<?xml version="1.0" encoding="UTF-8" standalone="no"?>
<!DOCTYPE svg PUBLIC "-//W3C//DTD SVG 1.1//EN" "http://www.w3.org/Graphics/SVG/1.1/DTD/svg11.dtd">
<!-- Generated by Microsoft Visio, SVG Export deploy-from-local-or-cloud.svg Page-1 -->
<svg xmlns="http://www.w3.org/2000/svg" xmlns:xlink="http://www.w3.org/1999/xlink" xmlns:ev="http://www.w3.org/2001/xml-events"
		xmlns:v="http://schemas.microsoft.com/visio/2003/SVGExtensions/" width="5.00333in" height="1.64623in"
		viewBox="0 0 360.24 118.529" xml:space="preserve" color-interpolation-filters="sRGB" class="st7">
	<v:documentProperties v:langID="1033" v:viewMarkup="false"/>

	<style type="text/css">
	<![CDATA[
		.st1 {fill:#e6e6e6;stroke:none;stroke-linecap:round;stroke-linejoin:round;stroke-width:0.24}
		.st2 {fill:#737373;stroke:none;stroke-linecap:butt;stroke-width:0.75}
		.st3 {fill:#737373;stroke:none;stroke-linecap:butt;stroke-width:0.944444}
		.st4 {fill:#ffffff;stroke:none;stroke-linecap:round;stroke-linejoin:round;stroke-width:0.24}
		.st5 {marker-start:url(#mrkr2-29);stroke:#0078d4;stroke-width:1.5}
		.st6 {fill:#0078d4;fill-opacity:1;stroke:#0078d4;stroke-opacity:1;stroke-width:0.45454545454545}
		.st7 {fill:none;fill-rule:evenodd;font-size:12px;overflow:visible;stroke-linecap:square;stroke-miterlimit:3}
	]]>
	</style>

	<defs id="Markers">
		<g id="lend2">
			<path d="M 1 1 L 0 0 L 1 -1 L 1 1 " style="stroke:none"/>
		</g>
		<marker id="mrkr2-29" class="st6" v:arrowType="2" v:arrowSize="1" v:setback="1.96" refX="1.96" orient="auto"
				markerUnits="strokeWidth" overflow="visible">
			<use xlink:href="#lend2" transform="scale(2.2) "/>
		</marker>
	</defs>
	<g v:mID="0" v:index="1" v:groupContext="foregroundPage">
		<title>Page-1</title>
		<v:pageProperties v:drawingScale="1" v:pageScale="1" v:drawingUnits="19" v:shadowOffsetX="8.50394"
				v:shadowOffsetY="-8.50394"/>
		<v:layer v:name="Lines-Arrows-Connectors" v:index="0"/>
		<g id="shape1-1" v:mID="1" v:groupContext="shape" transform="translate(0.12,-22.7838)">
			<title>Rectangle.1077</title>
			<v:userDefs>
				<v:ud v:nameU="visVersion" v:val="VT0(15):26"/>
			</v:userDefs>
			<rect x="0" y="22.9038" width="360" height="95.625" class="st1"/>
		</g>
		<g id="shape2-3" v:mID="2" v:groupContext="shape" transform="translate(35.8576,-87.5968)">
			<title>Cloud.1066</title>
			<path d="M40.57 113.83 C40.57 111.24 38.47 109.14 35.88 109.14 C35.68 109.14 35.49 109.15 35.31 109.17 C35.59 108.12
						 35.75 107.01 35.75 105.86 C35.75 98.95 30.15 93.34 23.23 93.34 C17.71 93.34 13.02 96.92 11.36 101.88 C10.48
						 101.58 9.54 101.41 8.56 101.41 C3.83 101.41 0 105.24 0 109.97 C0 114.7 3.83 118.53 8.56 118.53 C8.56 118.53
						 8.57 118.53 8.57 118.53 L8.57 118.53 L36.26 118.53 L36.26 118.51 C38.67 118.32 40.57 116.3 40.57 113.83
						 Z" class="st2"/>
		</g>
		<g id="group3-5" transform="translate(49.4324,-28.0291)" v:mID="3" v:groupContext="group">
			<title>Sheet.3</title>
			<g id="shape4-6" v:mID="4" v:groupContext="shape" transform="translate(1.17906E-13,-2.48684)">
				<title>Sheet.4</title>
				<path d="M2.45 115.21 L2.45 113.94 L7.06 113.94 L7.06 111.51 L2.45 111.51 L2.45 110.24 L7.06 110.24 L7.06 108.42
							 C7.06 107.14 7.95 106.09 9.04 106.09 L12.71 106.09 L12.71 91.17 C12.71 90.29 12.09 89.52 11.29 89.52
							 L1.41 89.52 C0.66 89.52 0 90.29 0 91.17 L0 118.53 L7.06 118.53 L7.06 115.21 L2.45 115.21 ZM2.45 93.27
							 L10.21 93.27 L10.21 94.54 L2.45 94.54 L2.45 93.27 Z" class="st3"/>
			</g>
			<g id="shape5-8" v:mID="5" v:groupContext="shape" transform="translate(8.09462,1.7053E-13)">
				<title>Sheet.5</title>
				<path d="M0 105.93 L0 118.53 L15.53 118.53 L15.53 104.82 L0.89 104.82 C0.38 104.88 0 105.38 0 105.93 Z" class="st3"/>
			</g>
			<g id="shape6-10" v:mID="6" v:groupContext="shape" transform="translate(16.4716,-14.4789)">
				<title>Sheet.6</title>
				<path d="M6.21 116.43 L5.98 116.43 L4.05 116.43 L2.31 116.43 C1.93 116.43 1.74 116.65 1.46 116.98 L0 118.53 L7.15
							 118.53 L7.15 117.53 C7.15 116.87 6.73 116.43 6.21 116.43 Z" class="st3"/>
			</g>
		</g>
		<g id="shape7-12" v:mID="7" v:groupContext="shape" transform="translate(98.9324,-27.8964)">
			<title>Laptop computer.1079</title>
			<path d="M24.76 114.88 C24.76 103.27 24.76 103.27 24.76 103.27 C24.76 102.72 24.23 101.76 23.59 101.76 C22.18 101.76
						 3.53 101.75 3.53 101.75 C2.89 101.75 2.26 102.72 2.26 103.27 C2.26 114.88 2.26 114.88 2.26 114.88 C-0 117.31
						 0.12 117.31 0.12 117.31 C0.12 117.98 0.76 118.53 1.52 118.53 C25.6 118.53 25.6 118.53 25.6 118.53 C26.36
						 118.53 27 117.98 27 117.31 L24.77 114.88 L24.76 114.88 ZM15.44 117.54 C11.27 117.54 11.27 117.54 11.27 117.54
						 C11.04 117.54 10.85 117.45 10.85 117.34 C11.33 116.57 11.33 116.57 11.33 116.57 C11.33 116.49 11.49 116.43
						 11.68 116.43 C15.02 116.43 15.02 116.43 15.02 116.43 C15.18 116.43 15.34 116.49 15.34 116.57 C15.85 117.34
						 15.85 117.34 15.85 117.34 C15.85 117.45 15.66 117.54 15.44 117.54 ZM23.75 114.86 C3.09 114.86 3.27 114.88
						 3.27 114.88 C3.27 103.44 3.27 103.44 3.27 103.44 C3.27 103.16 3.53 102.8 3.85 102.8 C23.37 102.8 23.23 102.8
						 23.23 102.8 C23.55 102.8 23.75 103.16 23.75 103.44 L23.75 114.86 Z" class="st2"/>
		</g>
		<g id="shape8-14" v:mID="8" v:groupContext="shape" transform="translate(126.382,-27.8964)">
			<title>Laptop computer.1080</title>
			<path d="M24.76 114.88 C24.76 103.27 24.76 103.27 24.76 103.27 C24.76 102.72 24.23 101.76 23.59 101.76 C22.18 101.76
						 3.53 101.75 3.53 101.75 C2.89 101.75 2.26 102.72 2.26 103.27 C2.26 114.88 2.26 114.88 2.26 114.88 C-0 117.31
						 0.12 117.31 0.12 117.31 C0.12 117.98 0.76 118.53 1.52 118.53 C25.6 118.53 25.6 118.53 25.6 118.53 C26.36
						 118.53 27 117.98 27 117.31 L24.77 114.88 L24.76 114.88 ZM15.44 117.54 C11.27 117.54 11.27 117.54 11.27 117.54
						 C11.04 117.54 10.85 117.45 10.85 117.34 C11.33 116.57 11.33 116.57 11.33 116.57 C11.33 116.49 11.49 116.43
						 11.68 116.43 C15.02 116.43 15.02 116.43 15.02 116.43 C15.18 116.43 15.34 116.49 15.34 116.57 C15.85 117.34
						 15.85 117.34 15.85 117.34 C15.85 117.45 15.66 117.54 15.44 117.54 ZM23.75 114.86 C3.09 114.86 3.27 114.88
						 3.27 114.88 C3.27 103.44 3.27 103.44 3.27 103.44 C3.27 103.16 3.53 102.8 3.85 102.8 C23.37 102.8 23.23 102.8
						 23.23 102.8 C23.55 102.8 23.75 103.16 23.75 103.44 L23.75 114.86 Z" class="st2"/>
		</g>
		<g id="shape9-16" v:mID="9" v:groupContext="shape" transform="translate(254.745,-87.5968)">
			<title>Cloud.1083</title>
			<path d="M40.57 113.83 C40.57 111.24 38.47 109.14 35.88 109.14 C35.68 109.14 35.49 109.15 35.31 109.17 C35.59 108.12
						 35.75 107.01 35.75 105.86 C35.75 98.95 30.15 93.34 23.23 93.34 C17.71 93.34 13.02 96.92 11.36 101.88 C10.48
						 101.58 9.54 101.41 8.56 101.41 C3.83 101.41 0 105.24 0 109.97 C0 114.7 3.83 118.53 8.56 118.53 C8.56 118.53
						 8.57 118.53 8.57 118.53 L8.57 118.53 L36.26 118.53 L36.26 118.51 C38.67 118.32 40.57 116.3 40.57 113.83
						 Z" class="st2"/>
		</g>
		<g id="shape10-18" v:mID="10" v:groupContext="shape" transform="translate(247.62,-27.8964)">
			<title>Laptop computer.1089</title>
			<path d="M24.76 114.88 C24.76 103.27 24.76 103.27 24.76 103.27 C24.76 102.72 24.23 101.76 23.59 101.76 C22.18 101.76
						 3.53 101.75 3.53 101.75 C2.89 101.75 2.26 102.72 2.26 103.27 C2.26 114.88 2.26 114.88 2.26 114.88 C-0 117.31
						 0.12 117.31 0.12 117.31 C0.12 117.98 0.76 118.53 1.52 118.53 C25.6 118.53 25.6 118.53 25.6 118.53 C26.36
						 118.53 27 117.98 27 117.31 L24.77 114.88 L24.76 114.88 ZM15.44 117.54 C11.27 117.54 11.27 117.54 11.27 117.54
						 C11.04 117.54 10.85 117.45 10.85 117.34 C11.33 116.57 11.33 116.57 11.33 116.57 C11.33 116.49 11.49 116.43
						 11.68 116.43 C15.02 116.43 15.02 116.43 15.02 116.43 C15.18 116.43 15.34 116.49 15.34 116.57 C15.85 117.34
						 15.85 117.34 15.85 117.34 C15.85 117.45 15.66 117.54 15.44 117.54 ZM23.75 114.86 C3.09 114.86 3.27 114.88
						 3.27 114.88 C3.27 103.44 3.27 103.44 3.27 103.44 C3.27 103.16 3.53 102.8 3.85 102.8 C23.37 102.8 23.23 102.8
						 23.23 102.8 C23.55 102.8 23.75 103.16 23.75 103.44 L23.75 114.86 Z" class="st2"/>
		</g>
		<g id="shape11-20" v:mID="11" v:groupContext="shape" transform="translate(275.07,-27.8964)">
			<title>Laptop computer.1090</title>
			<path d="M24.76 114.88 C24.76 103.27 24.76 103.27 24.76 103.27 C24.76 102.72 24.23 101.76 23.59 101.76 C22.18 101.76
						 3.53 101.75 3.53 101.75 C2.89 101.75 2.26 102.72 2.26 103.27 C2.26 114.88 2.26 114.88 2.26 114.88 C-0 117.31
						 0.12 117.31 0.12 117.31 C0.12 117.98 0.76 118.53 1.52 118.53 C25.6 118.53 25.6 118.53 25.6 118.53 C26.36
						 118.53 27 117.98 27 117.31 L24.77 114.88 L24.76 114.88 ZM15.44 117.54 C11.27 117.54 11.27 117.54 11.27 117.54
						 C11.04 117.54 10.85 117.45 10.85 117.34 C11.33 116.57 11.33 116.57 11.33 116.57 C11.33 116.49 11.49 116.43
						 11.68 116.43 C15.02 116.43 15.02 116.43 15.02 116.43 C15.18 116.43 15.34 116.49 15.34 116.57 C15.85 117.34
						 15.85 117.34 15.85 117.34 C15.85 117.45 15.66 117.54 15.44 117.54 ZM23.75 114.86 C3.09 114.86 3.27 114.88
						 3.27 114.88 C3.27 103.44 3.27 103.44 3.27 103.44 C3.27 103.16 3.53 102.8 3.85 102.8 C23.37 102.8 23.23 102.8
						 23.23 102.8 C23.55 102.8 23.75 103.16 23.75 103.44 L23.75 114.86 Z" class="st2"/>
		</g>
		<g id="shape12-22" v:mID="12" v:groupContext="shape" transform="translate(189.176,-22.7838)">
			<title>Rectangle.2004</title>
			<v:userDefs>
				<v:ud v:nameU="visVersion" v:val="VT0(15):26"/>
			</v:userDefs>
			<rect x="0" y="22.9038" width="9.5625" height="95.625" class="st4"/>
		</g>
		<g id="shape13-24" v:mID="13" v:groupContext="shape" v:layerMember="0" transform="translate(-62.3838,53.4325) rotate(-90)">
			<title>Arrow 1 - blue.1081</title>
			<path d="M2.94 118.53 L3.3 118.53 L15.68 118.53" class="st5"/>
		</g>
		<g id="shape14-30" v:mID="14" v:groupContext="shape" v:layerMember="0" transform="translate(95.8388,201.674) rotate(180)">
			<title>Arrow 1 - blue.2010</title>
			<path d="M2.94 118.53 L3.3 118.53 L16.09 118.53" class="st5"/>
		</g>
		<g id="shape15-35" v:mID="15" v:groupContext="shape" v:layerMember="0" transform="translate(156.372,68.4605) rotate(-90)">
			<title>Arrow 1 - blue.2013</title>
			<path d="M2.94 118.53 L3.3 118.53 L30.58 118.53" class="st5"/>
		</g>
	</g>
</svg>
