<svg width="103" height="103" viewBox="0 0 103 103" fill="none" xmlns="http://www.w3.org/2000/svg">
<path d="M51.5563 98.204C25.7063 98.204 4.74634 77.254 4.74634 51.394C4.74634 25.534 25.7063 4.58398 51.5563 4.58398C77.4063 4.58398 98.3663 25.544 98.3663 51.394C98.3663 77.244 77.4063 98.204 51.5563 98.204Z" fill="url(#paint0_linear_149_129589)"/>
<path fill-rule="evenodd" clip-rule="evenodd" d="M97.4563 51.3939C97.4563 76.7439 76.9063 97.2939 51.5563 97.2939C26.2063 97.2939 5.65632 76.7439 5.65632 51.3939C5.65632 26.0439 26.2063 5.49391 51.5563 5.49391C76.9063 5.49391 97.4563 26.0439 97.4563 51.3939ZM51.5563 1.75391C78.9763 1.75391 101.196 23.9739 101.196 51.3939C101.196 78.8139 78.9663 101.034 51.5563 101.034C24.1363 101.034 1.91632 78.8039 1.91632 51.3939C1.91632 23.9739 24.1363 1.75391 51.5563 1.75391Z" fill="#F2F1F0"/>
<path fill-rule="evenodd" clip-rule="evenodd" d="M94.6463 51.3935C94.6463 75.1935 75.3563 94.4835 51.5563 94.4835C27.7563 94.4835 8.46632 75.1935 8.46632 51.3935C8.46632 27.5935 27.7563 8.30348 51.5563 8.30348C75.3563 8.30348 94.6463 27.5935 94.6463 51.3935ZM51.5563 4.56348C77.4163 4.56348 98.3863 25.5335 98.3863 51.3935C98.3863 77.2535 77.4163 98.2235 51.5563 98.2235C25.6963 98.2235 4.72632 77.2535 4.72632 51.3935C4.72632 25.5335 25.6863 4.56348 51.5563 4.56348Z" fill="url(#paint1_linear_149_129589)"/>
<path opacity="0.15" d="M73.7015 22.0915L29.9015 21.7315C28.9515 21.7215 28.1815 22.4815 28.1815 23.4315L27.7115 80.5915C27.7015 81.5415 28.4615 82.3115 29.4115 82.3115L73.2115 82.6715C74.1615 82.6815 74.9315 81.9215 74.9315 80.9715L75.4015 23.8115C75.3915 22.8715 74.6315 22.1015 73.7015 22.0915Z" fill="#1F1D20"/>
<path d="M73.7115 20.282L29.9115 19.922C28.9615 19.912 28.1915 20.672 28.1915 21.622L27.7115 78.772C27.7015 79.722 28.4615 80.492 29.4115 80.492L73.2115 80.852C74.1615 80.862 74.9315 80.102 74.9315 79.152L75.4015 21.992C75.4015 21.062 74.6515 20.292 73.7115 20.282Z" fill="#F2F2F2"/>
<path opacity="0.15" d="M70.6616 22.2422H32.4516V75.4522H70.6616V22.2422Z" fill="#1F1D20"/>
<path d="M70.6616 21.6309H32.4516V74.8409H70.6616V21.6309Z" fill="white"/>
<path fill-rule="evenodd" clip-rule="evenodd" d="M53.8414 13.6413C55.0814 14.3113 55.8014 15.6413 55.7914 17.0413V17.3813C55.7914 17.5113 55.7814 17.6213 55.7714 17.7513L58.4614 17.7713C59.2614 17.7813 60.0114 18.1813 60.4114 18.8813C61.5314 20.8713 60.1114 22.8913 58.2414 22.8713L44.6614 22.7713C43.8614 22.7613 43.1114 22.3613 42.7114 21.6613C41.5914 19.6713 43.0114 17.6513 44.8814 17.6713L47.3814 17.6913C47.3714 17.5713 47.3714 17.4513 47.3714 17.3213V17.2113C47.4114 14.1713 50.6414 11.9213 53.8414 13.6413Z" fill="#243A5E"/>
<path d="M51.5417 19.2113C52.5017 19.2213 53.2817 18.4513 53.2917 17.4913C53.3017 16.5313 52.5317 15.7513 51.5717 15.7413C50.6117 15.7313 49.8317 16.5013 49.8217 17.4613C49.8217 18.4213 50.5817 19.2013 51.5417 19.2113Z" fill="#F2F2F2"/>
<path opacity="0.15" d="M88.7436 61.7412H67.4943C66.8988 61.7412 66.4208 61.2554 66.4208 60.6678V41.0012C66.4208 40.4057 66.8988 39.9277 67.4943 39.9277H88.7436C89.3391 39.9277 89.8171 40.4057 89.8171 41.0012V60.66C89.8171 61.2554 89.3313 61.7412 88.7436 61.7412Z" fill="#1F1D20"/>
<path d="M88.7436 61.7334H67.4943C66.8988 61.7334 66.4208 61.2554 66.4208 60.6599V41.009C66.4208 40.4135 66.8988 39.9355 67.4943 39.9355H88.7436C89.3391 39.9355 89.8171 40.4135 89.8171 41.009V60.6678C89.8171 61.2554 89.3313 61.7334 88.7436 61.7334Z" fill="white"/>
<path d="M82.7731 46.2906C82.7731 45.8049 82.3813 45.4131 81.8955 45.4131H71.357C70.8713 45.4131 70.4795 45.8049 70.4795 46.2906C70.4795 46.7764 70.8713 47.1682 71.357 47.1682H81.9034C82.3892 47.1604 82.7731 46.7764 82.7731 46.2906Z" fill="url(#paint2_linear_149_129589)"/>
<path d="M85.7585 46.2906C85.7585 45.8049 85.3667 45.4131 84.8809 45.4131H82.0132C81.5274 45.4131 81.8408 45.8049 81.8408 46.2906C81.8408 46.7764 81.5352 47.1682 82.0132 47.1682H84.8887C85.3589 47.1604 85.7585 46.7764 85.7585 46.2906Z" fill="#9B9BA0"/>
<path d="M80.5947 46.2902C80.5947 47.254 81.3704 48.0375 82.342 48.0375C83.3136 48.0375 84.0893 47.2618 84.0893 46.2902C84.0893 45.3265 83.2979 44.543 82.3342 44.543C81.3783 44.5586 80.5947 45.3265 80.5947 46.2902Z" fill="#50E6FF"/>
<path d="M79.5371 50.7018C79.5371 50.216 79.1453 49.8242 78.6596 49.8242H71.357C70.8713 49.8242 70.4795 50.216 70.4795 50.7018C70.4795 51.1876 70.8713 51.5793 71.357 51.5793H78.6752C79.1532 51.5715 79.5371 51.1876 79.5371 50.7018Z" fill="url(#paint3_linear_149_129589)"/>
<path d="M85.7582 50.7018C85.7582 50.216 85.3664 49.8242 84.8807 49.8242H79.1922C78.7064 49.8242 78.3147 50.216 78.3147 50.7018C78.3147 51.1876 78.7064 51.5793 79.1922 51.5793H84.8885C85.3586 51.5715 85.7582 51.1876 85.7582 50.7018Z" fill="#9B9BA0"/>
<path d="M76.779 50.7014C76.779 51.6651 77.5547 52.4486 78.5262 52.4486C79.4978 52.4486 80.2735 51.673 80.2735 50.7014C80.2735 49.7376 79.4978 48.9541 78.5262 48.9541C77.5547 48.9541 76.779 49.7376 76.779 50.7014Z" fill="#35AFE4"/>
<path d="M75.4706 55.3795C75.4706 54.8937 75.0788 54.502 74.593 54.502H71.357C70.8713 54.5098 70.4795 54.8937 70.4795 55.3795C70.4795 55.8653 70.8713 56.2571 71.357 56.2571H74.593C75.0788 56.2414 75.4706 55.8575 75.4706 55.3795Z" fill="url(#paint4_linear_149_129589)"/>
<path d="M85.7583 55.3795C85.7583 54.8937 85.3665 54.502 84.8808 54.502H75.4549C74.9691 54.502 74.5773 54.8937 74.5773 55.3795C74.5773 55.8653 74.9691 56.2571 75.4549 56.2571H84.8808C85.3587 56.2414 85.7583 55.8575 85.7583 55.3795Z" fill="#9B9BA0"/>
<path d="M73.1825 55.3791C73.1825 56.3429 73.9582 57.1264 74.9298 57.1264C75.8935 57.1264 76.6771 56.3507 76.6771 55.3791C76.6771 54.4154 75.9014 53.6318 74.9298 53.6318C73.9582 53.6318 73.1825 54.4154 73.1825 55.3791Z" fill="#2E76BC"/>
<path fill-rule="evenodd" clip-rule="evenodd" d="M51.6082 55.1301C52.2468 55.1313 52.8794 55.0064 53.4696 54.7625C54.0598 54.5187 54.5961 54.1607 55.0477 53.7091C55.4992 53.2576 55.8572 52.7213 56.101 52.1311C56.3448 51.5409 56.4698 50.9083 56.4686 50.2697V43.2997C56.4967 42.6446 56.3918 41.9905 56.1604 41.3769C55.9291 40.7633 55.5759 40.2029 55.1222 39.7294C54.6685 39.2559 54.1238 38.879 53.5206 38.6215C52.9175 38.3641 52.2685 38.2314 51.6127 38.2314C50.9569 38.2314 50.3079 38.3641 49.7048 38.6215C49.1016 38.879 48.5568 39.2559 48.1031 39.7294C47.6495 40.2029 47.2964 40.7633 47.065 41.3769C46.8336 41.9905 46.7287 42.6446 46.7568 43.2997V50.3054C46.7639 51.5874 47.2781 52.8145 48.1872 53.7186C49.0962 54.6227 50.3262 55.1302 51.6082 55.1301V55.1301Z" fill="url(#paint5_linear_149_129589)"/>
<path fill-rule="evenodd" clip-rule="evenodd" d="M57.8394 47.6797V50.092C57.6958 51.6382 56.98 53.0751 55.8324 54.1212C54.6847 55.1672 53.1878 55.747 51.635 55.747C50.0821 55.747 48.5852 55.1672 47.4375 54.1212C46.2898 53.0751 45.574 51.6382 45.4304 50.092V47.6797H43.5165V50.092C43.5172 52.1183 44.2756 54.0711 45.6428 55.5667C47.0099 57.0623 48.8869 57.9925 50.905 58.1747V59.1806H47.4244V61.1034H56.4863V59.1806H52.8188V58.1125C54.7434 57.8306 56.5025 56.8664 57.7754 55.3958C59.0484 53.9251 59.7504 52.046 59.7533 50.1009V47.6886L57.8394 47.6797Z" fill="url(#paint6_linear_149_129589)"/>
<path opacity="0.15" d="M37.0241 38.1592H13.7334C13.2926 38.1592 12.9352 38.5165 12.9352 38.9574V62.248C12.9352 62.6888 13.2926 63.0462 13.7334 63.0462H37.0241C37.4649 63.0462 37.8223 62.6888 37.8223 62.248V38.9574C37.8223 38.5165 37.4649 38.1592 37.0241 38.1592Z" fill="#1F1D20"/>
<path d="M37.0241 37.4199H13.7334C13.2926 37.4199 12.9352 37.7773 12.9352 38.2181V61.5088C12.9352 61.9496 13.2926 62.3069 13.7334 62.3069H37.0241C37.4649 62.3069 37.8223 61.9496 37.8223 61.5088V38.2181C37.8223 37.7773 37.4649 37.4199 37.0241 37.4199Z" fill="#7B83EB"/>
<path d="M21.4702 44.6825L20.8076 44.4141L20.816 46.0076L21.1263 45.907L21.4702 46.276V44.6825Z" fill="url(#paint7_linear_149_129589)"/>
<path opacity="0.15" d="M25.3788 61.6658C31.2247 61.6658 35.955 56.927 35.955 51.0895C35.955 45.252 31.2247 40.5049 25.3788 40.5049C19.5329 40.5049 14.8026 45.2436 14.8026 51.0811C14.8109 56.927 19.5413 61.6658 25.3788 61.6658Z" fill="#1F1D20"/>
<path d="M25.3794 60.408C31.1749 60.408 35.8717 55.7112 35.8717 49.9156C35.8717 44.1285 31.1749 39.4316 25.3794 39.4316C19.5838 39.4316 14.8954 44.1285 14.8954 49.924C14.8954 55.7196 19.5922 60.408 25.3794 60.408Z" fill="white"/>
<path d="M31.0918 55.1101C30.773 52.2501 28.3203 50.001 25.3628 50.001C22.4231 50.001 20.0058 52.1969 19.6339 55.0393C19.5719 55.2252 19.5719 55.4554 19.5719 55.6502C19.6516 56.4472 20.2094 57.2352 21.2631 57.8462C23.5122 59.1478 27.1869 59.1478 29.4183 57.8462C30.4631 57.2352 31.0033 56.456 31.083 55.6502C31.1361 55.4732 31.1095 55.2872 31.0918 55.1101Z" fill="#5059C9"/>
<path d="M25.3542 49.4514C27.2757 49.4514 28.8252 47.9019 28.8252 46.007C28.8341 44.0944 27.2757 42.5625 25.3542 42.5625C23.4416 42.5625 21.8832 44.1121 21.8832 46.007C21.8832 47.9107 23.4416 49.4514 25.3542 49.4514Z" fill="#5059C9"/>
<path opacity="0.15" d="M25.3187 47.0164C27.1782 47.0164 28.6835 46.2549 28.6835 45.3163C28.6835 44.3777 27.1782 43.6162 25.3187 43.6162C23.4593 43.6162 21.954 44.3777 21.954 45.3163C21.954 46.2549 23.4681 47.0164 25.3187 47.0164Z" fill="#1F1D20"/>
<defs>
<linearGradient id="paint0_linear_149_129589" x1="36.4992" y1="0.954984" x2="66.7355" y2="102.246" gradientUnits="userSpaceOnUse">
<stop stop-color="#A9B1FF"/>
<stop offset="1" stop-color="#7B83EB"/>
</linearGradient>
<linearGradient id="paint1_linear_149_129589" x1="43.0139" y1="11.4987" x2="59.7021" y2="92.4664" gradientUnits="userSpaceOnUse">
<stop stop-color="#5A62C3"/>
<stop offset="0.5" stop-color="#4D55BD"/>
<stop offset="1" stop-color="#3940AB"/>
</linearGradient>
<linearGradient id="paint2_linear_149_129589" x1="76.2742" y1="45.3" x2="83.4826" y2="65.6246" gradientUnits="userSpaceOnUse">
<stop stop-color="#15548F"/>
<stop offset="0.4179" stop-color="#243A5E"/>
<stop offset="0.9677" stop-color="#1A2C45"/>
</linearGradient>
<linearGradient id="paint3_linear_149_129589" x1="73.7985" y1="47.2951" x2="79.5268" y2="63.4464" gradientUnits="userSpaceOnUse">
<stop stop-color="#15548F"/>
<stop offset="0.4179" stop-color="#243A5E"/>
<stop offset="0.9677" stop-color="#1A2C45"/>
</linearGradient>
<linearGradient id="paint4_linear_149_129589" x1="71.4949" y1="51.1988" x2="75.3643" y2="62.1085" gradientUnits="userSpaceOnUse">
<stop stop-color="#15548F"/>
<stop offset="0.4179" stop-color="#243A5E"/>
<stop offset="0.9677" stop-color="#1A2C45"/>
</linearGradient>
<linearGradient id="paint5_linear_149_129589" x1="51.8379" y1="38.6466" x2="51.3095" y2="60.417" gradientUnits="userSpaceOnUse">
<stop stop-color="#5A62C3"/>
<stop offset="0.5" stop-color="#4D55BD"/>
<stop offset="1" stop-color="#3940AB"/>
</linearGradient>
<linearGradient id="paint6_linear_149_129589" x1="50.9924" y1="38.8584" x2="52.2627" y2="63.0093" gradientUnits="userSpaceOnUse">
<stop stop-color="#5A62C3"/>
<stop offset="0.5" stop-color="#4D55BD"/>
<stop offset="1" stop-color="#3940AB"/>
</linearGradient>
<linearGradient id="paint7_linear_149_129589" x1="21.1292" y1="43.5498" x2="21.1718" y2="48.1936" gradientUnits="userSpaceOnUse">
<stop stop-color="#007ED8"/>
<stop offset="0.7065" stop-color="#002D4C"/>
</linearGradient>
</defs>
</svg>
