<svg width="103" height="103" viewBox="0 0 103 103" fill="none" xmlns="http://www.w3.org/2000/svg">
<path d="M51.374 98.6844C25.524 98.6844 4.56403 77.7345 4.56403 51.8745C4.56403 26.0145 25.524 5.06445 51.374 5.06445C77.224 5.06445 98.184 26.0245 98.184 51.8745C98.184 77.7245 77.224 98.6844 51.374 98.6844Z" fill="url(#paint0_linear_342_58327)"/>
<path fill-rule="evenodd" clip-rule="evenodd" d="M97.274 51.8744C97.274 77.2244 76.724 97.7744 51.374 97.7744C26.024 97.7744 5.47401 77.2244 5.47401 51.8744C5.47401 26.5244 26.024 5.97438 51.374 5.97438C76.724 5.97438 97.274 26.5244 97.274 51.8744ZM51.374 2.23438C78.794 2.23438 101.014 24.4544 101.014 51.8744C101.014 79.2944 78.784 101.514 51.374 101.514C23.954 101.514 1.73401 79.2844 1.73401 51.8744C1.73401 24.4544 23.954 2.23438 51.374 2.23438Z" fill="#F2F1F0"/>
<path fill-rule="evenodd" clip-rule="evenodd" d="M94.464 51.8749C94.464 75.6749 75.174 94.9649 51.374 94.9649C27.574 94.9649 8.28401 75.6749 8.28401 51.8749C8.28401 28.0749 27.574 8.78493 51.374 8.78493C75.174 8.78493 94.464 28.0749 94.464 51.8749ZM51.374 5.04492C77.234 5.04492 98.204 26.0149 98.204 51.8749C98.204 77.7349 77.234 98.7049 51.374 98.7049C25.514 98.7049 4.54401 77.7349 4.54401 51.8749C4.54401 26.0149 25.504 5.04492 51.374 5.04492Z" fill="url(#paint1_linear_342_58327)"/>
<path opacity="0.15" d="M74.8992 21.9113L28.3692 21.5313C27.3592 21.5213 26.5392 22.3313 26.5392 23.3413L26.0392 84.0613C26.0292 85.0713 26.8392 85.8913 27.8492 85.8913L74.3792 86.2713C75.3892 86.2813 76.2092 85.4713 76.2092 84.4613L76.7092 23.7313C76.6992 22.7413 75.8892 21.9213 74.8992 21.9113Z" fill="#1F1D20"/>
<path d="M74.9092 19.9914L28.3792 19.6114C27.3692 19.6014 26.5492 20.4014 26.5492 21.4114L26.0392 82.1314C26.0292 83.1414 26.8392 83.9614 27.8492 83.9614L74.3792 84.3414C75.3892 84.3514 76.2092 83.5414 76.2092 82.5314L76.7092 21.8014C76.7092 20.8214 75.9092 20.0014 74.9092 19.9914Z" fill="#F2F2F2"/>
<path fill-rule="evenodd" clip-rule="evenodd" d="M54.0792 12.9313C55.3992 13.6413 56.1592 15.0513 56.1492 16.5413V16.9013C56.1492 17.0413 56.1392 17.1513 56.1292 17.2913L58.9892 17.3113C59.8392 17.3213 60.6392 17.7513 61.0592 18.4913C62.2492 20.6013 60.7392 22.7513 58.7492 22.7313L44.3192 22.6213C43.4692 22.6113 42.6692 22.1813 42.2492 21.4413C41.0592 19.3313 42.5692 17.1813 44.5592 17.2013L47.2192 17.2213C47.2092 17.0913 47.2092 16.9713 47.2092 16.8313V16.7313C47.2492 13.5013 50.6792 11.1113 54.0792 12.9313Z" fill="#243A5E"/>
<path d="M51.6492 18.8512C52.6692 18.8612 53.4992 18.0412 53.5092 17.0212C53.5192 16.0012 52.6992 15.1712 51.6792 15.1612C50.6592 15.1512 49.8292 15.9712 49.8192 16.9912C49.8292 18.0112 50.6292 18.8412 51.6492 18.8512Z" fill="#F2F2F2"/>
<path d="M73.1991 24.4912H29.5491V63.7512H73.1991V24.4912Z" fill="white"/>
<path d="M46.1552 68.3314C46.1552 67.8614 45.7752 67.4814 45.3052 67.4814H32.1952C31.7252 67.4814 31.3452 67.8614 31.3452 68.3314C31.3452 68.8014 31.7252 69.1814 32.1952 69.1814H45.3152C45.7852 69.1814 46.1552 68.8014 46.1552 68.3314Z" fill="#008AF0"/>
<path d="M34.5052 68.3314C34.5052 69.2614 35.2652 70.0114 36.1852 70.0114C37.1152 70.0114 37.8652 69.2514 37.8652 68.3314C37.8652 67.4014 37.1052 66.6514 36.1852 66.6514C35.2652 66.6514 34.5052 67.4014 34.5052 68.3314Z" fill="#0D3868"/>
<path d="M46.1552 72.6215C46.1552 72.1515 45.7752 71.7715 45.3052 71.7715H32.1952C31.7252 71.7715 31.3452 72.1515 31.3452 72.6215C31.3452 73.0915 31.7252 73.4715 32.1952 73.4715H45.3152C45.7852 73.4615 46.1552 73.0815 46.1552 72.6215Z" fill="#0075DA"/>
<path d="M39.5852 72.6116C39.5852 73.5416 40.3452 74.2916 41.2652 74.2916C42.1952 74.2916 42.9452 73.5316 42.9452 72.6116C42.9452 71.6816 42.1852 70.9316 41.2652 70.9316C40.3352 70.9316 39.5852 71.6816 39.5852 72.6116Z" fill="#0D3868"/>
<path d="M46.1552 77.1518C46.1552 76.6818 45.7752 76.3018 45.3052 76.3018H32.1952C31.7252 76.3018 31.3452 76.6818 31.3452 77.1518C31.3452 77.6218 31.7252 78.0018 32.1952 78.0018H45.3152C45.7852 78.0018 46.1552 77.6218 46.1552 77.1518Z" fill="#0053B5"/>
<path d="M34.5652 77.1518C34.5652 78.0818 35.3252 78.8318 36.2452 78.8318C37.1752 78.8318 37.9252 78.0718 37.9252 77.1518C37.9252 76.2218 37.1652 75.4718 36.2452 75.4718C35.3252 75.4618 34.5652 76.2218 34.5652 77.1518Z" fill="#0D3868"/>
<path fill-rule="evenodd" clip-rule="evenodd" d="M36.6325 47.0279C36.6325 46.807 36.8116 46.6279 37.0325 46.6279H65.7159C65.9368 46.6279 66.1159 46.807 66.1159 47.0279V52.5904H65.3159V47.4279H37.4325V52.5904H36.6325V47.0279Z" fill="#78787D"/>
<path fill-rule="evenodd" clip-rule="evenodd" d="M50.974 52.5908V37.9658H51.774V52.5908H50.974Z" fill="#78787D"/>
<path d="M51.374 33.3721V25.3408" stroke="white" stroke-width="1.5" stroke-miterlimit="10" stroke-linejoin="round"/>
<path opacity="0.15" d="M59.92 32.9277H42.8286V44.3892H59.92V32.9277Z" fill="#1F1D20"/>
<path d="M59.6005 30.2552H48.9822L48.1231 29.3408H43.1576V40.9401H59.6005V30.2552Z" fill="#092E4C"/>
<path d="M59.92 31.9414H42.8286V43.4029H59.92V31.9414Z" fill="url(#paint2_linear_342_58327)"/>
<path d="M56.2051 38.0477C56.2084 38.0243 56.2151 38.001 56.2184 37.9809C56.281 37.6508 56.2701 37.3109 56.1865 36.9854C56.1029 36.6599 55.9486 36.3568 55.7347 36.0977C55.5208 35.8385 55.2524 35.6296 54.9486 35.4859C54.6448 35.3422 54.3132 35.2671 53.9771 35.266C53.8052 35.2654 53.6339 35.2856 53.4668 35.326C53.1262 34.7888 52.6203 34.3766 52.0252 34.1517C51.4301 33.9267 50.7781 33.901 50.1672 34.0786C49.5563 34.2561 49.0196 34.6273 48.6379 35.1362C48.2561 35.645 48.0499 36.2641 48.0503 36.9003C48.0503 36.9403 48.0503 36.9803 48.0536 37.0204C47.901 36.969 47.741 36.9431 47.58 36.9437C47.2094 36.9437 46.853 37.0862 46.5845 37.3417C46.316 37.5972 46.156 37.9461 46.1376 38.3163C46.1192 38.6864 46.2438 39.0495 46.4855 39.3304C46.7273 39.6113 47.0678 39.7885 47.4366 39.8253L53.9737 39.8387C54.3806 39.8382 54.7801 39.7295 55.1311 39.5238C55.4822 39.3181 55.7723 39.0227 55.9716 38.668C55.9816 38.648 55.9949 38.628 56.0049 38.6079C56.0932 38.4296 56.1604 38.2416 56.2051 38.0477Z" fill="white"/>
<path opacity="0.15" d="M42.8954 52.7051H31.884V60.0893H42.8954V52.7051Z" fill="#1F1D20"/>
<path d="M42.6896 50.9837H35.8485L35.2951 50.3945H32.096V57.8675H42.6896V50.9837Z" fill="#092E4C"/>
<path d="M42.8954 52.0693H31.884V59.4536H42.8954V52.0693Z" fill="url(#paint3_linear_342_58327)"/>
<path d="M34.4089 53.3408H34.1104V55.4616H34.4089V53.3408Z" fill="#9CEBFF"/>
<path d="M35.32 54.2676H33.1992V54.5661H35.32V54.2676Z" fill="#9CEBFF"/>
<path d="M35.32 55.9629H33.1992V56.2614H35.32V55.9629Z" fill="#9CEBFF"/>
<path d="M35.32 56.5547H33.1992V56.8532H35.32V56.5547Z" fill="#9CEBFF"/>
<path d="M35.32 57.1309H33.1992V57.4294H35.32V57.1309Z" fill="#9CEBFF"/>
<path opacity="0.15" d="M56.8798 52.7051H45.8685V60.0893H56.8798V52.7051Z" fill="#1F1D20"/>
<path d="M56.674 50.9837H49.833L49.2796 50.3945H46.0804V57.8675H56.674V50.9837Z" fill="#092E4C"/>
<path d="M56.8798 52.0693H45.8685V59.4536H56.8798V52.0693Z" fill="url(#paint4_linear_342_58327)"/>
<path d="M48.3854 53.3408H48.0868V55.4616H48.3854V53.3408Z" fill="white"/>
<path d="M49.2965 54.2676H47.1757V54.5661H49.2965V54.2676Z" fill="white"/>
<path d="M49.2965 55.9629H47.1757V56.2614H49.2965V55.9629Z" fill="#9CEBFF"/>
<path d="M49.2965 56.5547H47.1757V56.8532H49.2965V56.5547Z" fill="#9CEBFF"/>
<path d="M49.2965 57.1309H47.1757V57.4294H49.2965V57.1309Z" fill="#9CEBFF"/>
<path opacity="0.15" d="M70.8642 52.7051H59.8529V60.0893H70.8642V52.7051Z" fill="#1F1D20"/>
<path d="M70.6584 50.9837H63.8174L63.264 50.3945H60.0648V57.8675H70.6584V50.9837Z" fill="#092E4C"/>
<path d="M70.8642 52.0693H59.8529V59.4536H70.8642V52.0693Z" fill="url(#paint5_linear_342_58327)"/>
<path d="M62.3698 53.3408H62.0713V55.4616H62.3698V53.3408Z" fill="white"/>
<path d="M63.2809 54.2676H61.1602V54.5661H63.2809V54.2676Z" fill="white"/>
<path d="M63.2809 55.9629H61.1602V56.2614H63.2809V55.9629Z" fill="white"/>
<path d="M63.2809 56.5547H61.1602V56.8532H63.2809V56.5547Z" fill="white"/>
<path d="M63.2809 57.1309H61.1602V57.4294H63.2809V57.1309Z" fill="white"/>
<path d="M80.957 55.6271L79.1642 57.356L83.5951 61.9534L86.2716 59.2769L85.4008 55.2686L80.957 55.6271Z" fill="url(#paint6_linear_342_58327)"/>
<path d="M65.0773 71.4548L63.2844 73.1709L67.7666 77.7555L70.3407 75.1686L69.4826 71.1475L65.0773 71.4548Z" fill="url(#paint7_linear_342_58327)"/>
<path d="M86.0283 54.9863C84.7861 53.7441 83.2494 53.2575 82.5706 53.885H82.5578L80.5985 55.87C80.5857 55.8828 80.5985 55.9084 80.6241 55.8956C81.3668 55.4858 82.7755 55.998 83.9409 57.1378C84.991 58.1879 85.5033 59.4429 85.2856 60.2241C85.2856 60.2497 85.2984 60.2625 85.3112 60.2369L87.104 58.4568L87.1169 58.444C87.1169 58.444 87.1169 58.444 87.1169 58.4312L87.1297 58.4184C87.7572 57.7781 87.2705 56.2414 86.0283 54.9863Z" fill="#092E4C"/>
<path d="M82.8011 58.2134C81.5717 56.984 80.0606 56.4973 79.3562 57.0992L64.6675 71.788C64.6418 71.8136 64.6675 71.8649 64.7059 71.852C65.4871 71.5575 66.7805 72.0569 67.8818 73.1583C68.9063 74.1828 69.4186 75.3994 69.2393 76.1934C69.2265 76.2318 69.2905 76.2702 69.3161 76.2318L83.9153 61.6327C84.5172 60.9539 84.0433 59.4428 82.8011 58.2134Z" fill="#092E4C"/>
<path d="M66.7165 74.2985C65.4486 73.0307 63.8991 72.5569 63.2332 73.1972V73.21L62.0294 77.705C62.2215 77.5129 62.3367 77.8587 62.6953 78.2172C63.0667 78.5758 62.9258 78.5118 62.7337 78.7039L61.8757 79.4723L67.805 77.7818C68.4581 77.1159 67.9715 75.5535 66.7165 74.2985Z" fill="#FFBB00"/>
<path d="M63.0411 78.0256C62.6825 77.667 62.2343 77.5133 62.0294 77.7054L61.6324 79.2294C61.594 79.383 61.7348 79.5111 61.8757 79.4727L63.3612 79.0373C63.5533 78.8452 63.4125 78.3841 63.0411 78.0256Z" fill="#092E4C"/>
<defs>
<linearGradient id="paint0_linear_342_58327" x1="49.6001" y1="-12.915" x2="53.5821" y2="132.855" gradientUnits="userSpaceOnUse">
<stop stop-color="#00ABDE"/>
<stop offset="1" stop-color="#007ED8"/>
</linearGradient>
<linearGradient id="paint1_linear_342_58327" x1="2.80441" y1="-19.7477" x2="98.3319" y2="121.134" gradientUnits="userSpaceOnUse">
<stop stop-color="#007ED8"/>
<stop offset="0.7065" stop-color="#002D4C"/>
</linearGradient>
<linearGradient id="paint2_linear_342_58327" x1="51.3743" y1="31.9414" x2="51.3743" y2="43.4029" gradientUnits="userSpaceOnUse">
<stop stop-color="#008BF1"/>
<stop offset="0.22" stop-color="#0086EC"/>
<stop offset="0.49" stop-color="#0078DD"/>
<stop offset="0.79" stop-color="#0061C4"/>
<stop offset="1" stop-color="#004DAE"/>
</linearGradient>
<linearGradient id="paint3_linear_342_58327" x1="37.3897" y1="52.0693" x2="37.3897" y2="59.4536" gradientUnits="userSpaceOnUse">
<stop stop-color="#008BF1"/>
<stop offset="0.22" stop-color="#0086EC"/>
<stop offset="0.49" stop-color="#0078DD"/>
<stop offset="0.79" stop-color="#0061C4"/>
<stop offset="1" stop-color="#004DAE"/>
</linearGradient>
<linearGradient id="paint4_linear_342_58327" x1="51.3741" y1="52.0693" x2="51.3741" y2="59.4536" gradientUnits="userSpaceOnUse">
<stop stop-color="#008BF1"/>
<stop offset="0.22" stop-color="#0086EC"/>
<stop offset="0.49" stop-color="#0078DD"/>
<stop offset="0.79" stop-color="#0061C4"/>
<stop offset="1" stop-color="#004DAE"/>
</linearGradient>
<linearGradient id="paint5_linear_342_58327" x1="65.3586" y1="52.0693" x2="65.3586" y2="59.4536" gradientUnits="userSpaceOnUse">
<stop stop-color="#008BF1"/>
<stop offset="0.22" stop-color="#0086EC"/>
<stop offset="0.49" stop-color="#0078DD"/>
<stop offset="0.79" stop-color="#0061C4"/>
<stop offset="1" stop-color="#004DAE"/>
</linearGradient>
<linearGradient id="paint6_linear_342_58327" x1="79.1663" y1="58.6127" x2="86.2678" y2="58.6127" gradientUnits="userSpaceOnUse">
<stop stop-color="#388CF4"/>
<stop offset="1" stop-color="#2C7CEF"/>
</linearGradient>
<linearGradient id="paint7_linear_342_58327" x1="63.2845" y1="74.4481" x2="70.3405" y2="74.4481" gradientUnits="userSpaceOnUse">
<stop stop-color="#388CF4"/>
<stop offset="1" stop-color="#2C7CEF"/>
</linearGradient>
</defs>
</svg>
