<svg width="103" height="103" viewBox="0 0 103 103" fill="none" xmlns="http://www.w3.org/2000/svg">
<path d="M51.4765 98.2968C25.6265 98.2968 4.6665 77.3468 4.6665 51.4868C4.6665 25.6268 25.6265 4.67676 51.4765 4.67676C77.3265 4.67676 98.2865 25.6368 98.2865 51.4868C98.2865 77.3368 77.3265 98.2968 51.4765 98.2968Z" fill="url(#paint0_linear_46_22343)"/>
<path fill-rule="evenodd" clip-rule="evenodd" d="M97.3764 51.4867C97.3764 76.8367 76.8264 97.3867 51.4764 97.3867C26.1264 97.3867 5.57643 76.8367 5.57643 51.4867C5.57643 26.1367 26.1264 5.58668 51.4764 5.58668C76.8264 5.58668 97.3764 26.1367 97.3764 51.4867ZM51.4764 1.84668C78.8964 1.84668 101.116 24.0667 101.116 51.4867C101.116 78.9067 78.8864 101.127 51.4764 101.127C24.0564 101.127 1.83643 78.8967 1.83643 51.4867C1.83643 24.0667 24.0564 1.84668 51.4764 1.84668Z" fill="#F2F1F0"/>
<path fill-rule="evenodd" clip-rule="evenodd" d="M94.5665 51.4867C94.5665 75.2867 75.2765 94.5767 51.4765 94.5767C27.6765 94.5767 8.38648 75.2867 8.38648 51.4867C8.38648 27.6867 27.6765 8.39674 51.4765 8.39674C75.2765 8.39674 94.5665 27.6867 94.5665 51.4867ZM51.4765 4.65674C77.3365 4.65674 98.3065 25.6267 98.3065 51.4867C98.3065 77.3467 77.3365 98.3167 51.4765 98.3167C25.6165 98.3167 4.64648 77.3467 4.64648 51.4867C4.64648 25.6267 25.6065 4.65674 51.4765 4.65674Z" fill="url(#paint1_linear_46_22343)"/>
<path opacity="0.15" d="M84.2666 80.5569L75.1566 71.5069C78.9966 66.5069 81.2766 60.2569 81.2766 53.4769C81.2766 37.0969 67.9866 23.8369 51.6266 23.8369C35.2666 23.8369 21.9766 37.0969 21.9766 53.4769C21.9766 69.8569 35.2366 83.1169 51.6166 83.1169C58.1866 83.1169 64.2366 80.9869 69.1766 77.3669L78.3366 86.4769C78.3366 86.4769 80.6566 87.3869 83.0866 84.8069C85.5166 82.2369 84.2666 80.5569 84.2666 80.5569ZM26.3966 53.5869C26.3966 39.7069 37.6566 28.4469 51.5366 28.4469C65.4166 28.4469 76.6766 39.7069 76.6766 53.5869C76.6766 67.4669 65.3866 78.7269 51.5066 78.7269C37.6266 78.7269 26.3966 67.4669 26.3966 53.5869Z" fill="#1F1D20"/>
<path d="M51.3365 78.927C66.4691 78.927 78.7365 66.6596 78.7365 51.527C78.7365 36.3944 66.4691 24.127 51.3365 24.127C36.2039 24.127 23.9365 36.3944 23.9365 51.527C23.9365 66.6596 36.2039 78.927 51.3365 78.927Z" fill="white"/>
<path d="M86.1866 80.5669L75.1466 69.5269C78.9866 64.5269 81.2666 58.2769 81.2666 51.4969C81.2666 35.1169 67.9766 21.8569 51.6166 21.8569C35.2566 21.8569 21.9766 35.1169 21.9766 51.4969C21.9766 67.8769 35.2366 81.1369 51.6166 81.1369C58.1866 81.1369 64.2366 79.0069 69.1766 75.3869L80.2466 86.4869C80.2466 86.4869 81.3666 86.4969 83.8066 83.9269C86.2366 81.3469 86.1866 80.5669 86.1866 80.5669ZM26.3966 51.5969C26.3966 37.7169 37.6566 26.4569 51.5366 26.4569C65.4166 26.4569 76.6766 37.7169 76.6766 51.5969C76.6766 65.4769 65.3866 76.7369 51.5066 76.7369C37.6266 76.7369 26.3966 65.4769 26.3966 51.5969Z" fill="url(#paint2_linear_46_22343)"/>
<path opacity="0.2" d="M70.6164 53.2433L56.7812 63.7254V57.8186H33.8438V48.6679H56.7812V42.749L70.6164 53.2433Z" fill="url(#paint3_linear_46_22343)"/>
<path d="M70.6164 51.5246L56.7812 61.9825V56.1H33.8438V46.9372H56.7812V41.0425L70.6164 51.5246Z" fill="url(#paint4_linear_46_22343)"/>
<defs>
<linearGradient id="paint0_linear_46_22343" x1="49.7066" y1="-13.3027" x2="53.6886" y2="132.468" gradientUnits="userSpaceOnUse">
<stop stop-color="#00ABDE"/>
<stop offset="1" stop-color="#007ED8"/>
</linearGradient>
<linearGradient id="paint1_linear_46_22343" x1="2.90979" y1="-20.1383" x2="98.4378" y2="120.744" gradientUnits="userSpaceOnUse">
<stop stop-color="#007ED8"/>
<stop offset="0.7065" stop-color="#002D4C"/>
</linearGradient>
<linearGradient id="paint2_linear_46_22343" x1="29.5632" y1="26.4522" x2="75.3453" y2="78.4445" gradientUnits="userSpaceOnUse">
<stop stop-color="#007ED8"/>
<stop offset="0.7065" stop-color="#002D4C"/>
</linearGradient>
<linearGradient id="paint3_linear_46_22343" x1="38.1885" y1="44.2405" x2="50.1582" y2="68.2261" gradientUnits="userSpaceOnUse">
<stop stop-color="#007ED8"/>
<stop offset="0.7065" stop-color="#002D4C"/>
</linearGradient>
<linearGradient id="paint4_linear_46_22343" x1="38.1885" y1="42.5314" x2="50.125" y2="66.492" gradientUnits="userSpaceOnUse">
<stop stop-color="#007ED8"/>
<stop offset="0.7065" stop-color="#002D4C"/>
</linearGradient>
</defs>
</svg>
