<svg width="103" height="103" viewBox="0 0 103 103" fill="none" xmlns="http://www.w3.org/2000/svg">
<path d="M51.374 97.9647C25.524 97.9647 4.56403 77.0147 4.56403 51.1547C4.56403 25.2947 25.524 4.34473 51.374 4.34473C77.224 4.34473 98.184 25.3047 98.184 51.1547C98.184 77.0047 77.224 97.9647 51.374 97.9647Z" fill="url(#paint0_linear_342_58329)"/>
<path fill-rule="evenodd" clip-rule="evenodd" d="M97.274 51.1546C97.274 76.5046 76.724 97.0546 51.374 97.0546C26.024 97.0546 5.47402 76.5046 5.47402 51.1546C5.47402 25.8046 26.024 5.25465 51.374 5.25465C76.724 5.25465 97.274 25.8046 97.274 51.1546ZM51.374 1.51465C78.794 1.51465 101.014 23.7346 101.014 51.1546C101.014 78.5746 78.784 100.795 51.374 100.795C23.954 100.795 1.73402 78.5646 1.73402 51.1546C1.73402 23.7346 23.954 1.51465 51.374 1.51465Z" fill="#F2F1F0"/>
<path fill-rule="evenodd" clip-rule="evenodd" d="M94.464 51.1542C94.464 74.9542 75.174 94.2442 51.374 94.2442C27.574 94.2442 8.28402 74.9542 8.28402 51.1542C8.28402 27.3542 27.574 8.06422 51.374 8.06422C75.174 8.06422 94.464 27.3542 94.464 51.1542ZM51.374 4.32422C77.234 4.32422 98.204 25.2942 98.204 51.1542C98.204 77.0142 77.234 97.9842 51.374 97.9842C25.514 97.9842 4.54402 77.0142 4.54402 51.1542C4.54402 25.2942 25.504 4.32422 51.374 4.32422Z" fill="url(#paint1_linear_342_58329)"/>
<path opacity="0.1" d="M83.4338 68.6536L77.875 71.7165L50.6869 56.8021L56.2458 53.7393L83.4338 68.6536Z" fill="#1F1D21"/>
<path d="M59.1739 29.8461C58.6935 29.4004 58.1788 29.0346 57.6641 28.7832C56.3716 28.0861 55.2278 28.0518 54.3814 28.4861L50.8471 30.3146C51.6935 29.8689 52.8373 29.9146 54.1298 30.6118C54.6445 30.8747 55.1249 31.2404 55.6396 31.6747L56.4517 32.4061L60.0203 30.5432L59.1739 29.8461Z" fill="#A1F6FF"/>
<path d="M78.3325 33.355C76.491 29.2292 73.357 25.6978 69.937 23.8578C67.1691 22.3835 64.6641 22.2349 62.8569 23.2292L59.2883 25.0806C61.0955 24.0863 63.6004 24.2349 66.3684 25.7092C69.7998 27.5492 72.9224 31.1264 74.7639 35.2064L74.9812 35.7207L78.5498 33.8578L78.3325 33.355Z" fill="#A1F6FF"/>
<path d="M88.2378 46.9445C88.2378 42.453 84.8522 36.933 80.6544 34.6816C80.0597 34.3501 79.5106 34.133 78.9616 33.9844L78.5613 33.8701L74.9812 35.733L75.3815 35.8473C75.9306 35.9958 76.491 36.213 77.0744 36.5444C81.2721 38.7959 84.6577 44.3159 84.6577 48.8073C84.6577 49.3216 84.6234 49.8016 84.509 50.3159C84.509 50.3502 84.4747 50.4645 84.4747 50.4988C84.326 51.1274 84.0286 51.8245 83.8113 52.1216C83.777 52.1559 83.777 52.1902 83.7427 52.2359C83.7084 52.2702 83.7084 52.3045 83.6741 52.3502C83.3424 52.7959 82.8963 53.1617 82.4616 53.4131L86.0303 51.5502C86.5107 51.2874 86.911 50.9216 87.2427 50.4874C87.277 50.4531 87.277 50.4188 87.3113 50.3731C87.3457 50.3388 87.3457 50.3045 87.38 50.2588C87.5973 49.9616 87.8947 49.2645 88.0434 48.6359C88.0434 48.6016 88.0777 48.4873 88.0777 48.4531V48.5216V48.4531C88.2035 47.9731 88.2378 47.4588 88.2378 46.9445Z" fill="#A1F6FF"/>
<path d="M66.3684 25.7098C69.7998 27.5498 72.9224 31.127 74.7639 35.207L74.9812 35.7213L75.3815 35.8356C75.9305 35.9841 76.491 36.2013 77.0743 36.5327C81.2721 38.7841 84.6577 44.3042 84.6577 48.7956C84.6577 49.3099 84.6234 49.7899 84.509 50.3042C84.509 50.3385 84.4747 50.4528 84.4747 50.4871C84.326 51.1156 84.0286 51.8128 83.8113 52.1099C83.777 52.1442 83.777 52.1785 83.7427 52.2242C83.7084 52.2585 83.7084 52.2928 83.6741 52.3385C82.3129 54.1785 79.7623 54.3957 77.04 52.9214L53.5693 40.2127C52.4598 39.4813 51.4304 38.3727 50.6641 37.047C49.8863 35.7213 49.4859 34.327 49.4859 33.0698C49.4859 30.3498 51.5562 29.2412 54.0955 30.6012C54.6102 30.8641 55.0906 31.2298 55.6053 31.6641L56.4174 32.3955L56.383 31.4355C56.383 31.287 56.383 31.1384 56.383 30.9898C56.383 25.1612 60.8782 22.7726 66.3684 25.7098Z" fill="url(#paint2_linear_342_58329)"/>
<path d="M74.7868 43.652L70.509 38.3148L70.4975 40.4291L60.4207 34.3148C60.089 34.1091 59.6543 34.2234 59.4484 34.5548C59.2426 34.8862 59.3569 35.3205 59.6886 35.5262L70.4975 42.0863L70.4861 44.0063L74.7868 43.652Z" fill="white"/>
<path opacity="0.15" d="M63.059 65.183L44.2737 54.2441L26.9192 64.2138L45.7045 74.9219L63.059 65.183Z" fill="url(#paint3_linear_342_58329)"/>
<path d="M44.8738 36.1968L44.7815 73.906L27.1962 64.3518L27.2423 26.458L44.8738 36.1968Z" fill="#EBEBEB"/>
<path d="M44.7353 36.0116L44.7815 73.9053L62.4129 64.0742L62.3668 26.2266L44.7353 36.0116Z" fill="#CDCDD0"/>
<path d="M62.3667 26.2271L44.7352 36.1044L27.2422 26.4578L44.8737 16.6729L62.3667 26.2271Z" fill="#CDCDD0"/>
<path d="M43.3506 37.6277V40.8585L28.3961 32.3198V29.0889L43.3506 37.6277Z" fill="url(#paint4_linear_342_58329)"/>
<path d="M43.3506 41.4587V44.7358L28.3961 36.1508V32.9199L43.3506 41.4587Z" fill="url(#paint5_linear_342_58329)"/>
<path d="M43.3506 45.3825V48.6134L28.3961 40.0285V36.8438L43.3506 45.3825Z" fill="url(#paint6_linear_342_58329)"/>
<path d="M43.3506 49.3044V52.5353L28.3961 43.9504V40.7656L43.3506 49.3044Z" fill="url(#paint7_linear_342_58329)"/>
<path d="M43.3506 53.1823V56.4594L28.3961 47.8744V44.6436L43.3506 53.1823Z" fill="url(#paint8_linear_342_58329)"/>
<path d="M43.3506 57.1052V60.3361L28.3961 51.7973V48.5664L43.3506 57.1052Z" fill="url(#paint9_linear_342_58329)"/>
<path d="M43.3506 61.029V64.2599L28.3961 55.675V52.4902L43.3506 61.029Z" fill="url(#paint10_linear_342_58329)"/>
<path d="M43.3506 64.9057V68.1828L28.3961 59.5978V56.4131L43.3506 64.9057Z" fill="url(#paint11_linear_342_58329)"/>
<path d="M46.12 37.4421V40.673L61.0283 32.0881V28.9033L46.12 37.4421Z" fill="url(#paint12_linear_342_58329)"/>
<path d="M46.12 41.32V44.5509L61.0283 35.966V32.7812L46.12 41.32Z" fill="url(#paint13_linear_342_58329)"/>
<path d="M46.12 45.197V48.4279L61.0283 39.8891V36.6582L46.12 45.197Z" fill="url(#paint14_linear_342_58329)"/>
<path d="M46.12 49.1198V52.3507L61.0283 43.7658V40.5811L46.12 49.1198Z" fill="url(#paint15_linear_342_58329)"/>
<path d="M46.12 53.0437V56.2746L61.0283 47.6896V44.5049L46.12 53.0437Z" fill="url(#paint16_linear_342_58329)"/>
<path d="M46.12 56.9204V60.1974L61.0283 51.6125V48.4277L46.12 56.9204Z" fill="url(#paint17_linear_342_58329)"/>
<path d="M46.12 60.8445V64.0753L61.0283 55.5366V52.3057L46.12 60.8445Z" fill="url(#paint18_linear_342_58329)"/>
<path d="M46.12 64.7663V67.9972L61.0283 59.4123V56.2275L46.12 64.7663Z" fill="url(#paint19_linear_342_58329)"/>
<mask id="mask0_342_58329" style="mask-type:alpha" maskUnits="userSpaceOnUse" x="30" y="17" width="29" height="17">
<path d="M58.8665 25.3133L44.7834 33.5053L30.6617 25.3485L44.7506 17.1367L58.8665 25.3133Z" fill="#CDCDD0"/>
</mask>
<g mask="url(#mask0_342_58329)">
<path d="M61.7617 24.3829C61.7771 18.9553 54.1975 14.5339 44.8323 14.5074C35.4671 14.4808 27.8626 18.8592 27.8472 24.2868C27.8318 29.7143 35.4114 34.1358 44.7766 34.1623C54.1418 34.1889 61.7463 29.8105 61.7617 24.3829Z" fill="#F4F4F4"/>
</g>
<path d="M44.7353 16.7646C49.8124 19.7186 54.9357 22.6726 60.059 25.6265C59.8282 25.4881 59.459 25.3957 58.8589 25.3496L44.7353 17.18C44.7353 16.857 44.7353 16.7646 44.7353 16.7646Z" fill="#CDCDD0"/>
<path d="M29.4577 25.6265C34.0272 22.9495 38.6427 20.3186 43.2121 17.6416C43.6737 17.3647 44.2737 17.0416 44.7353 16.7646C44.7353 16.7646 44.7353 16.857 44.7353 17.18L30.6578 25.3496C30.0578 25.3957 29.6885 25.4881 29.4577 25.6265Z" fill="#CDCDD0"/>
<path d="M44.8275 35.274C42.7967 34.074 40.7197 32.9201 38.6888 31.7201C35.5964 29.92 32.5501 28.1661 29.4577 26.366C29.3192 26.2737 29.2269 26.1814 29.1808 26.0891C29.0885 25.9045 29.3192 25.4429 30.6578 25.3506L44.7814 33.5201C44.7814 34.3971 44.7814 34.9971 44.7814 35.1356C44.8275 35.2279 44.8275 35.274 44.8275 35.274Z" fill="#EBEBEB"/>
<path d="M60.1051 26.4114L58.582 27.2884C57.5665 27.8884 56.5511 28.4884 55.5357 29.0423L54.0126 29.9193L52.4894 30.7962C49.9509 32.2732 47.4123 33.7502 44.8276 35.2272C44.8276 35.2272 44.8276 35.181 44.8276 35.0887C44.8276 34.9041 44.8276 34.3502 44.8276 33.4733L58.8589 25.3037C60.1974 25.396 60.4282 25.8576 60.382 26.0422C60.3359 26.2268 60.1974 26.3191 60.1051 26.4114Z" fill="#9B9BA0"/>
<path opacity="0.15" d="M85.0911 72.6635L66.3058 61.7246L48.9513 71.6942L67.7366 82.4023L85.0911 72.6635Z" fill="url(#paint20_linear_342_58329)"/>
<path d="M62.5671 62.6944L62.5209 79.1258L49.0896 71.2332L49.1358 54.6172L62.5671 62.6944Z" fill="#EBEBEB"/>
<path d="M62.4748 62.5098L62.5209 79.1259L75.7214 71.3256L75.6753 54.4326L62.4748 62.5098Z" fill="#CDCDD0"/>
<path d="M75.6753 54.4322L62.4748 62.6017L49.1359 54.6168L62.3364 46.4473L75.6753 54.4322Z" fill="#F4F4F4"/>
<path d="M54.9053 61.4014V66.1554L56.1977 66.94V62.1399L54.9053 61.4014Z" fill="url(#paint21_linear_342_58329)"/>
<path d="M50.5205 58.8174L50.4743 63.5714L51.6744 64.2637V59.5097L50.5205 58.8174Z" fill="url(#paint22_linear_342_58329)"/>
<path d="M57.9516 63.1553L57.9054 67.9093L59.2439 68.6939V63.8938L57.9516 63.1553Z" fill="url(#paint23_linear_342_58329)"/>
<path d="M51.9051 59.6016L51.859 64.4017L53.1975 65.1864V60.3862L51.9051 59.6016Z" fill="url(#paint24_linear_342_58329)"/>
<path d="M53.4283 60.5254L53.3822 65.2794L54.6745 66.0641L54.7207 61.2639L53.4283 60.5254Z" fill="url(#paint25_linear_342_58329)"/>
<path d="M62.2902 70.4479V65.6477L60.9517 64.9092V69.7094L62.2902 70.4479Z" fill="url(#paint26_linear_342_58329)"/>
<path d="M59.4747 64.0332L59.4286 68.8334L60.7209 69.5719L60.7671 64.7717L59.4747 64.0332Z" fill="url(#paint27_linear_342_58329)"/>
<path d="M56.4285 62.2793V67.0333L57.7208 67.818V63.0178L56.4285 62.2793Z" fill="url(#paint28_linear_342_58329)"/>
<path d="M54.9053 67.3555V71.8326L56.1977 72.6172V68.094L54.9053 67.3555Z" fill="url(#paint29_linear_342_58329)"/>
<path d="M50.5205 64.7705L50.4743 69.2938L51.6744 69.9861V65.4628L50.5205 64.7705Z" fill="url(#paint30_linear_342_58329)"/>
<path d="M50.5205 58.8174L50.4743 63.5714L51.6744 64.2637V59.5097L50.5205 58.8174Z" fill="url(#paint31_linear_342_58329)"/>
<path d="M57.9516 69.1094L57.9054 73.6326L59.2439 74.3711V69.8479L57.9516 69.1094Z" fill="url(#paint32_linear_342_58329)"/>
<path d="M51.9051 65.6016L51.859 70.0787L53.1975 70.8633V66.3401L51.9051 65.6016Z" fill="url(#paint33_linear_342_58329)"/>
<path d="M53.4283 66.4785L53.3822 70.9556L54.6745 71.7403L54.7207 67.217L53.4283 66.4785Z" fill="url(#paint34_linear_342_58329)"/>
<path d="M62.2902 76.125V71.6018L60.9517 70.8633V75.3865L62.2902 76.125Z" fill="url(#paint35_linear_342_58329)"/>
<path d="M59.4747 69.9873L59.4286 74.5105L60.7209 75.249L60.7671 70.7258L59.4747 69.9873Z" fill="url(#paint36_linear_342_58329)"/>
<path d="M56.4285 68.2334V72.7105L57.7208 73.4951V68.9719L56.4285 68.2334Z" fill="url(#paint37_linear_342_58329)"/>
<path d="M70.0905 61.4014V66.1554L68.7981 66.94L68.752 62.1399L70.0905 61.4014Z" fill="url(#paint38_linear_342_58329)"/>
<path d="M74.4752 58.8174L74.5214 63.5714L73.3213 64.2637V59.5097L74.4752 58.8174Z" fill="url(#paint39_linear_342_58329)"/>
<path d="M67.0442 63.1553V67.9093L65.7519 68.6939V63.8938L67.0442 63.1553Z" fill="url(#paint40_linear_342_58329)"/>
<path d="M73.0907 59.6016V64.4017L71.7983 65.1864V60.3862L73.0907 59.6016Z" fill="url(#paint41_linear_342_58329)"/>
<path d="M71.5675 60.5254L71.6137 65.2794L70.3213 66.0641L70.2752 61.2639L71.5675 60.5254Z" fill="url(#paint42_linear_342_58329)"/>
<path d="M62.6595 70.5402V65.6938L64.0442 64.9092V69.7094L62.6595 70.5402Z" fill="url(#paint43_linear_342_58329)"/>
<path d="M65.5211 64.0332L65.5672 68.8334L64.2287 69.5719V64.7717L65.5211 64.0332Z" fill="url(#paint44_linear_342_58329)"/>
<path d="M68.5674 62.2793V67.0333L67.275 67.818V63.0178L68.5674 62.2793Z" fill="url(#paint45_linear_342_58329)"/>
<path d="M70.0905 67.3555V71.8326L68.7981 72.6172L68.752 68.094L70.0905 67.3555Z" fill="url(#paint46_linear_342_58329)"/>
<path d="M74.4752 64.7705L74.5214 69.2938L73.3213 69.9861V65.4628L74.4752 64.7705Z" fill="url(#paint47_linear_342_58329)"/>
<path d="M67.0442 69.1094V73.6326L65.7519 74.3711V69.8479L67.0442 69.1094Z" fill="url(#paint48_linear_342_58329)"/>
<path d="M73.0907 65.6016V70.0787L71.7983 70.8633V66.3401L73.0907 65.6016Z" fill="url(#paint49_linear_342_58329)"/>
<path d="M71.5675 66.4785L71.6137 70.9556L70.3213 71.7403L70.2752 67.217L71.5675 66.4785Z" fill="url(#paint50_linear_342_58329)"/>
<path d="M62.6595 76.2173V71.6479L64.0442 70.8633V75.3865L62.6595 76.2173Z" fill="url(#paint51_linear_342_58329)"/>
<path d="M65.5211 69.9873L65.5672 74.5105L64.2287 75.249V70.7258L65.5211 69.9873Z" fill="url(#paint52_linear_342_58329)"/>
<path d="M68.5674 68.2334V72.7105L67.275 73.4951V68.9719L68.5674 68.2334Z" fill="url(#paint53_linear_342_58329)"/>
<path d="M62.3825 46.5859C66.3057 48.8476 70.4597 51.4323 74.383 53.7401C74.2445 53.6477 74.0137 53.6016 73.6906 53.5554L62.3825 46.7706C62.3825 46.6321 62.3825 46.5859 62.3825 46.5859Z" fill="#CDCDD0"/>
<path d="M50.382 53.9701C54.3053 51.7085 58.5054 48.8468 62.4287 46.5391C62.4287 46.5391 62.4287 46.5852 62.4287 46.7698L51.0744 53.7855C50.7513 53.8316 50.5205 53.8778 50.382 53.9701Z" fill="#CDCDD0"/>
<path d="M73.6907 53.5092C70.1829 55.5401 65.7981 58.2633 62.2902 60.2941C58.7363 58.2633 54.5823 55.817 51.0283 53.7862C54.5361 51.7553 58.8747 48.8014 62.3826 46.7705C65.9365 48.8014 70.1829 51.4784 73.6907 53.5092Z" fill="#F4F4F4"/>
<path d="M62.2902 61.6787C58.367 59.4171 54.2592 57.0632 50.3359 54.7554C50.1975 54.6631 50.1052 54.5708 50.059 54.4323C50.0128 54.2477 50.1975 53.8784 51.0283 53.7861L62.2902 60.2941C62.2902 60.8941 62.2902 61.3557 62.2902 61.5403C62.2902 61.6326 62.2902 61.6787 62.2902 61.6787Z" fill="#EBEBEB"/>
<path d="M74.4292 54.4781C74.4292 54.4781 63.4903 60.986 62.3364 61.6783C62.3364 61.6783 62.3364 60.8937 62.3364 60.2937L73.7369 53.5088C74.6138 53.6011 74.7523 53.9703 74.7061 54.155C74.6138 54.3396 74.5215 54.4319 74.4292 54.4781Z" fill="#CDCDD0"/>
<path d="M62.3364 48.2934L62.3826 47.6934L72.306 53.509L71.706 53.8782L62.3364 48.2934Z" fill="#CDCDD0"/>
<path d="M62.3364 48.2936L62.3826 47.6475L52.8745 53.4631L53.4284 53.7862L62.3364 48.2936Z" fill="#9B9BA0"/>
<path d="M31.9721 75.648C40.87 75.648 48.0832 68.4348 48.0832 59.5369C48.0832 50.639 40.87 43.4258 31.9721 43.4258C23.0742 43.4258 15.861 50.639 15.861 59.5369C15.861 68.4348 23.0742 75.648 31.9721 75.648Z" fill="white"/>
<path opacity="0.15" d="M61.6444 87.1475L45.8718 71.3855C48.1568 68.4129 49.5108 64.6893 49.5108 60.6588C49.5108 50.916 41.5981 43.0244 31.8658 43.0244C22.1336 43.0244 14.2314 50.916 14.2314 60.6588C14.2314 70.4017 22.123 78.2933 31.8658 78.2933C35.7799 78.2933 39.3766 77.0239 42.3174 74.8658L58.1112 90.6596C58.1112 90.6596 59.4864 91.1991 60.9357 89.6652C62.3955 88.1525 61.6444 87.1475 61.6444 87.1475ZM16.8654 60.7223C14.094 52.8444 23.5375 43.7288 31.7993 43.7288C40.0612 43.7288 48.5698 51.3252 46.7816 60.7223C46.7816 68.9842 40.0642 75.6804 31.8023 75.6804C23.5405 75.6804 16.8654 68.9842 16.8654 60.7223Z" fill="#1F1D20"/>
<path d="M16.8654 59.7487C16.8654 51.4868 23.5617 44.7906 31.8235 44.7906C40.0853 44.7906 46.7816 51.4868 46.7816 59.7487C46.7816 68.0105 40.0642 74.7068 31.8023 74.7068C23.5405 74.7068 16.8654 68.0105 16.8654 59.7487ZM61.6444 86.1739L45.8718 70.4119C48.1568 67.4393 49.5108 63.7156 49.5108 59.6852C49.5108 49.9424 41.6087 42.0508 31.8658 42.0508C22.123 42.0508 14.2314 49.9424 14.2314 59.6852C14.2314 69.4281 22.123 77.3197 31.8658 77.3197C35.7799 77.3197 39.3766 76.0502 42.3174 73.8922L58.1112 89.686C58.1112 89.686 59.4864 90.2255 60.9357 88.6916C62.3955 87.1789 61.6444 86.1739 61.6444 86.1739Z" fill="#092E4C"/>
<path opacity="0.15" d="M43.4225 63.6555L41.3788 62.4673L32.0444 67.9615L23.0712 62.3438L20.847 63.6555L32.0444 70.9082L43.4225 63.6555Z" fill="#1F1D20"/>
<path d="M21.9729 60.8756L31.9743 67.304L42.1526 60.8506L43.428 62.3264L31.9743 69.6303L20.6974 62.3264L21.9729 60.8756Z" fill="#9CEBFF"/>
<path d="M22.7311 60.0465L31.9749 49.1406L41.4081 60.059L31.9749 65.9621L22.7311 60.0465Z" fill="white"/>
<path d="M31.9749 49.1406V65.9621L22.7311 60.0465L31.9749 49.1406Z" fill="#9CEBFF"/>
<path d="M31.9739 49.1406V65.9621L41.4071 60.059L31.9739 49.1406Z" fill="url(#paint54_linear_342_58329)"/>
<path d="M31.9739 57.8359L41.4071 60.0621L31.9739 65.9653V57.8359Z" fill="#53B1E0"/>
<path d="M31.9749 65.9653L22.7311 60.0496L31.9749 57.8359V65.9653Z" fill="#C3F1FF"/>
<path d="M31.9739 69.6303L43.4277 62.3264L42.1522 60.8506L31.9739 67.304V69.6303Z" fill="url(#paint55_linear_342_58329)"/>
<defs>
<linearGradient id="paint0_linear_342_58329" x1="49.6001" y1="-13.6348" x2="53.5821" y2="132.135" gradientUnits="userSpaceOnUse">
<stop stop-color="#00ABDE"/>
<stop offset="1" stop-color="#007ED8"/>
</linearGradient>
<linearGradient id="paint1_linear_342_58329" x1="2.80442" y1="-20.4684" x2="98.332" y2="120.413" gradientUnits="userSpaceOnUse">
<stop stop-color="#007ED8"/>
<stop offset="0.7065" stop-color="#002D4C"/>
</linearGradient>
<linearGradient id="paint2_linear_342_58329" x1="73.3332" y1="22.5153" x2="58.2199" y2="67.6851" gradientUnits="userSpaceOnUse">
<stop stop-color="#4DC1EA"/>
<stop offset="0.585" stop-color="#0078D4"/>
</linearGradient>
<linearGradient id="paint3_linear_342_58329" x1="36.6004" y1="55.0433" x2="54.6262" y2="75.4658" gradientUnits="userSpaceOnUse">
<stop/>
<stop offset="0.8221" stop-opacity="0"/>
</linearGradient>
<linearGradient id="paint4_linear_342_58329" x1="36.9035" y1="72.151" x2="35.8307" y2="33.3159" gradientUnits="userSpaceOnUse">
<stop stop-color="#0078D4"/>
<stop offset="0.848" stop-color="#4DC2EB"/>
</linearGradient>
<linearGradient id="paint5_linear_342_58329" x1="36.7892" y1="71.8501" x2="35.7164" y2="33.015" gradientUnits="userSpaceOnUse">
<stop stop-color="#0078D4"/>
<stop offset="0.848" stop-color="#4DC2EB"/>
</linearGradient>
<linearGradient id="paint6_linear_342_58329" x1="36.6667" y1="71.3287" x2="35.5939" y2="32.4936" gradientUnits="userSpaceOnUse">
<stop stop-color="#0078D4"/>
<stop offset="0.848" stop-color="#4DC2EB"/>
</linearGradient>
<linearGradient id="paint7_linear_342_58329" x1="36.5443" y1="70.8053" x2="35.4715" y2="31.9702" gradientUnits="userSpaceOnUse">
<stop stop-color="#0078D4"/>
<stop offset="0.848" stop-color="#4DC2EB"/>
</linearGradient>
<linearGradient id="paint8_linear_342_58329" x1="36.4218" y1="70.2841" x2="35.349" y2="31.449" gradientUnits="userSpaceOnUse">
<stop stop-color="#0078D4"/>
<stop offset="0.848" stop-color="#4DC2EB"/>
</linearGradient>
<linearGradient id="paint9_linear_342_58329" x1="36.2994" y1="69.7617" x2="35.2266" y2="30.9266" gradientUnits="userSpaceOnUse">
<stop stop-color="#0078D4"/>
<stop offset="0.848" stop-color="#4DC2EB"/>
</linearGradient>
<linearGradient id="paint10_linear_342_58329" x1="36.1769" y1="69.2403" x2="35.1041" y2="30.4051" gradientUnits="userSpaceOnUse">
<stop stop-color="#0078D4"/>
<stop offset="0.848" stop-color="#4DC2EB"/>
</linearGradient>
<linearGradient id="paint11_linear_342_58329" x1="36.0545" y1="68.7178" x2="34.9817" y2="29.8827" gradientUnits="userSpaceOnUse">
<stop stop-color="#0078D4"/>
<stop offset="0.848" stop-color="#4DC2EB"/>
</linearGradient>
<linearGradient id="paint12_linear_342_58329" x1="53.8439" y1="76.3885" x2="53.4741" y2="21.6519" gradientUnits="userSpaceOnUse">
<stop stop-color="#0078D4"/>
<stop offset="0.848" stop-color="#4DC2EB"/>
</linearGradient>
<linearGradient id="paint13_linear_342_58329" x1="53.8158" y1="76.0977" x2="53.446" y2="21.3611" gradientUnits="userSpaceOnUse">
<stop stop-color="#0078D4"/>
<stop offset="0.848" stop-color="#4DC2EB"/>
</linearGradient>
<linearGradient id="paint14_linear_342_58329" x1="53.7857" y1="75.5509" x2="53.4159" y2="20.8143" gradientUnits="userSpaceOnUse">
<stop stop-color="#0078D4"/>
<stop offset="0.848" stop-color="#4DC2EB"/>
</linearGradient>
<linearGradient id="paint15_linear_342_58329" x1="53.7556" y1="75.0039" x2="53.3857" y2="20.2673" gradientUnits="userSpaceOnUse">
<stop stop-color="#0078D4"/>
<stop offset="0.848" stop-color="#4DC2EB"/>
</linearGradient>
<linearGradient id="paint16_linear_342_58329" x1="53.7255" y1="74.4578" x2="53.3556" y2="19.7213" gradientUnits="userSpaceOnUse">
<stop stop-color="#0078D4"/>
<stop offset="0.848" stop-color="#4DC2EB"/>
</linearGradient>
<linearGradient id="paint17_linear_342_58329" x1="53.6954" y1="73.9108" x2="53.3255" y2="19.1742" gradientUnits="userSpaceOnUse">
<stop stop-color="#0078D4"/>
<stop offset="0.848" stop-color="#4DC2EB"/>
</linearGradient>
<linearGradient id="paint18_linear_342_58329" x1="53.6653" y1="73.365" x2="53.2954" y2="18.6285" gradientUnits="userSpaceOnUse">
<stop stop-color="#0078D4"/>
<stop offset="0.848" stop-color="#4DC2EB"/>
</linearGradient>
<linearGradient id="paint19_linear_342_58329" x1="53.6352" y1="72.817" x2="53.2653" y2="18.0804" gradientUnits="userSpaceOnUse">
<stop stop-color="#0078D4"/>
<stop offset="0.848" stop-color="#4DC2EB"/>
</linearGradient>
<linearGradient id="paint20_linear_342_58329" x1="58.6232" y1="62.5052" x2="76.6491" y2="82.9277" gradientUnits="userSpaceOnUse">
<stop/>
<stop offset="0.8221" stop-opacity="0"/>
</linearGradient>
<linearGradient id="paint21_linear_342_58329" x1="66.8832" y1="75.4754" x2="53.9094" y2="62.5016" gradientUnits="userSpaceOnUse">
<stop stop-color="#0078D4"/>
<stop offset="0.848" stop-color="#4DC2EB"/>
</linearGradient>
<linearGradient id="paint22_linear_342_58329" x1="66.7478" y1="77.2114" x2="53.6934" y2="64.157" gradientUnits="userSpaceOnUse">
<stop stop-color="#0078D4"/>
<stop offset="0.848" stop-color="#4DC2EB"/>
</linearGradient>
<linearGradient id="paint23_linear_342_58329" x1="67.0381" y1="74.367" x2="54.0659" y2="61.3947" gradientUnits="userSpaceOnUse">
<stop stop-color="#0078D4"/>
<stop offset="0.848" stop-color="#4DC2EB"/>
</linearGradient>
<linearGradient id="paint24_linear_342_58329" x1="66.7288" y1="76.5843" x2="53.7535" y2="63.609" gradientUnits="userSpaceOnUse">
<stop stop-color="#0078D4"/>
<stop offset="0.848" stop-color="#4DC2EB"/>
</linearGradient>
<linearGradient id="paint25_linear_342_58329" x1="66.8052" y1="76.0299" x2="53.8314" y2="63.0561" gradientUnits="userSpaceOnUse">
<stop stop-color="#0078D4"/>
<stop offset="0.848" stop-color="#4DC2EB"/>
</linearGradient>
<linearGradient id="paint26_linear_342_58329" x1="66.659" y1="72.7163" x2="54.6468" y2="60.7041" gradientUnits="userSpaceOnUse">
<stop stop-color="#0078D4"/>
<stop offset="0.848" stop-color="#4DC2EB"/>
</linearGradient>
<linearGradient id="paint27_linear_342_58329" x1="67.1152" y1="73.8133" x2="54.145" y2="60.8431" gradientUnits="userSpaceOnUse">
<stop stop-color="#0078D4"/>
<stop offset="0.848" stop-color="#4DC2EB"/>
</linearGradient>
<linearGradient id="paint28_linear_342_58329" x1="66.9594" y1="74.9209" x2="53.9879" y2="61.9494" gradientUnits="userSpaceOnUse">
<stop stop-color="#0078D4"/>
<stop offset="0.848" stop-color="#4DC2EB"/>
</linearGradient>
<linearGradient id="paint29_linear_342_58329" x1="63.231" y1="77.646" x2="50.7951" y2="65.2101" gradientUnits="userSpaceOnUse">
<stop stop-color="#0078D4"/>
<stop offset="0.848" stop-color="#4DC2EB"/>
</linearGradient>
<linearGradient id="paint30_linear_342_58329" x1="62.8802" y1="79.1656" x2="50.3838" y2="66.6692" gradientUnits="userSpaceOnUse">
<stop stop-color="#0078D4"/>
<stop offset="0.848" stop-color="#4DC2EB"/>
</linearGradient>
<linearGradient id="paint31_linear_342_58329" x1="66.7478" y1="77.2114" x2="53.6934" y2="64.157" gradientUnits="userSpaceOnUse">
<stop stop-color="#0078D4"/>
<stop offset="0.848" stop-color="#4DC2EB"/>
</linearGradient>
<linearGradient id="paint32_linear_342_58329" x1="63.5055" y1="76.6571" x2="51.0706" y2="64.2223" gradientUnits="userSpaceOnUse">
<stop stop-color="#0078D4"/>
<stop offset="0.848" stop-color="#4DC2EB"/>
</linearGradient>
<linearGradient id="paint33_linear_342_58329" x1="62.9571" y1="78.6351" x2="50.52" y2="66.198" gradientUnits="userSpaceOnUse">
<stop stop-color="#0078D4"/>
<stop offset="0.848" stop-color="#4DC2EB"/>
</linearGradient>
<linearGradient id="paint34_linear_342_58329" x1="63.0936" y1="78.1401" x2="50.6576" y2="65.7042" gradientUnits="userSpaceOnUse">
<stop stop-color="#0078D4"/>
<stop offset="0.848" stop-color="#4DC2EB"/>
</linearGradient>
<linearGradient id="paint35_linear_342_58329" x1="63.5038" y1="75.3838" x2="51.9868" y2="63.8668" gradientUnits="userSpaceOnUse">
<stop stop-color="#0078D4"/>
<stop offset="0.848" stop-color="#4DC2EB"/>
</linearGradient>
<linearGradient id="paint36_linear_342_58329" x1="63.6426" y1="76.1635" x2="51.2094" y2="63.7303" gradientUnits="userSpaceOnUse">
<stop stop-color="#0078D4"/>
<stop offset="0.848" stop-color="#4DC2EB"/>
</linearGradient>
<linearGradient id="paint37_linear_342_58329" x1="63.3676" y1="77.1519" x2="50.9334" y2="64.7177" gradientUnits="userSpaceOnUse">
<stop stop-color="#0078D4"/>
<stop offset="0.848" stop-color="#4DC2EB"/>
</linearGradient>
<linearGradient id="paint38_linear_342_58329" x1="70.2868" y1="69.1506" x2="67.6688" y2="53.8792" gradientUnits="userSpaceOnUse">
<stop stop-color="#0078D4"/>
<stop offset="0.848" stop-color="#4DC2EB"/>
</linearGradient>
<linearGradient id="paint39_linear_342_58329" x1="75.1505" y1="68.8358" x2="72.5248" y2="53.5191" gradientUnits="userSpaceOnUse">
<stop stop-color="#0078D4"/>
<stop offset="0.848" stop-color="#4DC2EB"/>
</linearGradient>
<linearGradient id="paint40_linear_342_58329" x1="66.999" y1="69.3779" x2="64.3815" y2="54.1097" gradientUnits="userSpaceOnUse">
<stop stop-color="#0078D4"/>
<stop offset="0.848" stop-color="#4DC2EB"/>
</linearGradient>
<linearGradient id="paint41_linear_342_58329" x1="73.5733" y1="68.9242" x2="70.9548" y2="53.6498" gradientUnits="userSpaceOnUse">
<stop stop-color="#0078D4"/>
<stop offset="0.848" stop-color="#4DC2EB"/>
</linearGradient>
<linearGradient id="paint42_linear_342_58329" x1="71.93" y1="69.038" x2="69.3118" y2="53.7655" gradientUnits="userSpaceOnUse">
<stop stop-color="#0078D4"/>
<stop offset="0.848" stop-color="#4DC2EB"/>
</linearGradient>
<linearGradient id="paint43_linear_342_58329" x1="63.6533" y1="69.5252" x2="61.0875" y2="54.5577" gradientUnits="userSpaceOnUse">
<stop stop-color="#0078D4"/>
<stop offset="0.848" stop-color="#4DC2EB"/>
</linearGradient>
<linearGradient id="paint44_linear_342_58329" x1="65.3552" y1="69.4927" x2="62.7382" y2="54.2267" gradientUnits="userSpaceOnUse">
<stop stop-color="#0078D4"/>
<stop offset="0.848" stop-color="#4DC2EB"/>
</linearGradient>
<linearGradient id="paint45_linear_342_58329" x1="68.6428" y1="69.2649" x2="66.0253" y2="53.996" gradientUnits="userSpaceOnUse">
<stop stop-color="#0078D4"/>
<stop offset="0.848" stop-color="#4DC2EB"/>
</linearGradient>
<linearGradient id="paint46_linear_342_58329" x1="69.1318" y1="68.2367" x2="66.6532" y2="53.7769" gradientUnits="userSpaceOnUse">
<stop stop-color="#0078D4"/>
<stop offset="0.848" stop-color="#4DC2EB"/>
</linearGradient>
<linearGradient id="paint47_linear_342_58329" x1="73.9715" y1="67.7798" x2="71.4868" y2="53.2861" gradientUnits="userSpaceOnUse">
<stop stop-color="#0078D4"/>
<stop offset="0.848" stop-color="#4DC2EB"/>
</linearGradient>
<linearGradient id="paint48_linear_342_58329" x1="65.8583" y1="68.5467" x2="63.3799" y2="54.0894" gradientUnits="userSpaceOnUse">
<stop stop-color="#0078D4"/>
<stop offset="0.848" stop-color="#4DC2EB"/>
</linearGradient>
<linearGradient id="paint49_linear_342_58329" x1="72.4043" y1="67.9272" x2="69.925" y2="53.4652" gradientUnits="userSpaceOnUse">
<stop stop-color="#0078D4"/>
<stop offset="0.848" stop-color="#4DC2EB"/>
</linearGradient>
<linearGradient id="paint50_linear_342_58329" x1="70.7681" y1="68.0819" x2="68.2891" y2="53.6214" gradientUnits="userSpaceOnUse">
<stop stop-color="#0078D4"/>
<stop offset="0.848" stop-color="#4DC2EB"/>
</linearGradient>
<linearGradient id="paint51_linear_342_58329" x1="62.549" y1="68.9061" x2="60.118" y2="54.7253" gradientUnits="userSpaceOnUse">
<stop stop-color="#0078D4"/>
<stop offset="0.848" stop-color="#4DC2EB"/>
</linearGradient>
<linearGradient id="paint52_linear_342_58329" x1="64.2217" y1="68.703" x2="61.7436" y2="54.2473" gradientUnits="userSpaceOnUse">
<stop stop-color="#0078D4"/>
<stop offset="0.848" stop-color="#4DC2EB"/>
</linearGradient>
<linearGradient id="paint53_linear_342_58329" x1="67.4951" y1="68.3927" x2="65.0166" y2="53.9348" gradientUnits="userSpaceOnUse">
<stop stop-color="#0078D4"/>
<stop offset="0.848" stop-color="#4DC2EB"/>
</linearGradient>
<linearGradient id="paint54_linear_342_58329" x1="37.4293" y1="64.4113" x2="31.6703" y2="53.397" gradientUnits="userSpaceOnUse">
<stop stop-color="#1988D9"/>
<stop offset="0.9" stop-color="#54AEF0"/>
</linearGradient>
<linearGradient id="paint55_linear_342_58329" x1="34.9163" y1="61.2258" x2="38.8991" y2="68.1629" gradientUnits="userSpaceOnUse">
<stop offset="0.1" stop-color="#54AEF0"/>
<stop offset="0.29" stop-color="#4FABEE"/>
<stop offset="0.51" stop-color="#41A2E9"/>
<stop offset="0.74" stop-color="#2A93E0"/>
<stop offset="0.88" stop-color="#1988D9"/>
</linearGradient>
</defs>
</svg>
