<svg width="103" height="103" viewBox="0 0 103 103" fill="none" xmlns="http://www.w3.org/2000/svg">
<path d="M51.6498 98.8075C25.7998 98.8075 4.83978 77.8575 4.83978 51.9975C4.83978 26.1375 25.7998 5.1875 51.6498 5.1875C77.4998 5.1875 98.4598 26.1475 98.4598 51.9975C98.4598 77.8475 77.4998 98.8075 51.6498 98.8075Z" fill="url(#paint0_linear_149_127256)"/>
<path fill-rule="evenodd" clip-rule="evenodd" d="M51.6503 1.99707C79.2603 1.99707 101.65 24.3871 101.65 51.9971C101.65 79.6071 79.2603 101.997 51.6503 101.997C24.0403 101.997 1.65033 79.6071 1.65033 51.9971C1.65033 24.3871 24.0403 1.99707 51.6503 1.99707ZM51.6503 97.7571C76.9203 97.7571 97.4103 77.2671 97.4103 51.9971C97.4103 26.7271 76.9203 6.23707 51.6503 6.23707C26.3803 6.23707 5.89033 26.7271 5.89033 51.9971C5.89033 77.2671 26.3803 97.7571 51.6503 97.7571Z" fill="#D9D9D9"/>
<path fill-rule="evenodd" clip-rule="evenodd" d="M97.5497 51.9974C97.5497 77.3474 76.9997 97.8974 51.6497 97.8974C26.2997 97.8974 5.7497 77.3474 5.7497 51.9974C5.7497 26.6474 26.2997 6.09742 51.6497 6.09742C76.9997 6.09742 97.5497 26.6474 97.5497 51.9974ZM51.6497 2.35742C79.0697 2.35742 101.29 24.5774 101.29 51.9974C101.29 79.4174 79.0597 101.637 51.6497 101.637C24.2297 101.637 2.0097 79.4074 2.0097 51.9974C2.0097 24.5774 24.2297 2.35742 51.6497 2.35742Z" fill="#F2F1F0"/>
<path fill-rule="evenodd" clip-rule="evenodd" d="M51.6503 95.087C27.8503 95.087 8.56025 75.797 8.56025 51.997C8.56025 28.197 27.8503 8.90699 51.6503 8.90699C75.4503 8.90699 94.7402 28.197 94.7402 51.997C94.7402 75.797 75.4503 95.087 51.6503 95.087ZM98.4803 51.997C98.4803 77.857 77.5103 98.827 51.6503 98.827C25.7903 98.827 4.82025 77.857 4.82025 51.997C4.82025 26.137 25.7903 5.16699 51.6503 5.16699C77.5103 5.16699 98.4803 26.127 98.4803 51.997Z" fill="url(#paint1_linear_149_127256)"/>
<path d="M51.6498 98.8075C25.7998 98.8075 4.83978 77.8575 4.83978 51.9975C4.83978 26.1375 25.7998 5.1875 51.6498 5.1875C77.4998 5.1875 98.4598 26.1475 98.4598 51.9975C98.4598 77.8475 77.4998 98.8075 51.6498 98.8075Z" fill="url(#paint2_linear_149_127256)"/>
<path fill-rule="evenodd" clip-rule="evenodd" d="M51.6503 1.99707C79.2603 1.99707 101.65 24.3871 101.65 51.9971C101.65 79.6071 79.2603 101.997 51.6503 101.997C24.0403 101.997 1.65033 79.6071 1.65033 51.9971C1.65033 24.3871 24.0403 1.99707 51.6503 1.99707ZM51.6503 97.7571C76.9203 97.7571 97.4103 77.2671 97.4103 51.9971C97.4103 26.7271 76.9203 6.23707 51.6503 6.23707C26.3803 6.23707 5.89033 26.7271 5.89033 51.9971C5.89033 77.2671 26.3803 97.7571 51.6503 97.7571Z" fill="#D9D9D9"/>
<path fill-rule="evenodd" clip-rule="evenodd" d="M97.5497 51.9974C97.5497 77.3474 76.9997 97.8974 51.6497 97.8974C26.2997 97.8974 5.7497 77.3474 5.7497 51.9974C5.7497 26.6474 26.2997 6.09742 51.6497 6.09742C76.9997 6.09742 97.5497 26.6474 97.5497 51.9974ZM51.6497 2.35742C79.0697 2.35742 101.29 24.5774 101.29 51.9974C101.29 79.4174 79.0597 101.637 51.6497 101.637C24.2297 101.637 2.0097 79.4074 2.0097 51.9974C2.0097 24.5774 24.2297 2.35742 51.6497 2.35742Z" fill="#F2F1F0"/>
<path fill-rule="evenodd" clip-rule="evenodd" d="M51.6503 95.087C27.8503 95.087 8.56025 75.797 8.56025 51.997C8.56025 28.197 27.8503 8.90699 51.6503 8.90699C75.4503 8.90699 94.7402 28.197 94.7402 51.997C94.7402 75.797 75.4503 95.087 51.6503 95.087ZM98.4803 51.997C98.4803 77.857 77.5103 98.827 51.6503 98.827C25.7903 98.827 4.82025 77.857 4.82025 51.997C4.82025 26.137 25.7903 5.16699 51.6503 5.16699C77.5103 5.16699 98.4803 26.127 98.4803 51.997Z" fill="url(#paint3_linear_149_127256)"/>
<path fill-rule="evenodd" clip-rule="evenodd" d="M52.7062 37.0967C52.7062 36.8205 52.9301 36.5967 53.2062 36.5967H59.0462V37.5967H53.7062V68.0523H59.0362V69.0523H53.2062C52.9301 69.0523 52.7062 68.8284 52.7062 68.5523V37.0967Z" fill="white"/>
<path fill-rule="evenodd" clip-rule="evenodd" d="M44.7062 52.3242H53.2962V53.3242H44.7062V52.3242Z" fill="white"/>
<path opacity="0.15" d="M47.9413 70.1072C48.4771 70.1072 48.909 69.6752 48.909 69.1394V37.2119H15.183V69.1436C15.183 69.6794 15.615 70.1113 16.1508 70.1113H47.9413V70.1072Z" fill="#1F1D20"/>
<path d="M48.9049 37.4983V36.975C48.9049 36.327 48.3815 35.8037 47.7336 35.8037H16.3543C15.7064 35.8037 15.183 36.327 15.183 36.975V37.5565V38.0881V68.1175C15.183 68.7654 15.7064 69.2888 16.3543 69.2888H47.7419C48.3898 69.2888 48.9132 68.7654 48.9132 68.1175V37.5565C48.9132 37.5357 48.9049 37.5191 48.9049 37.4983Z" fill="white"/>
<path d="M27.2713 49.248H20.6079C19.9784 49.248 19.468 49.7579 19.468 50.3868V56.4502C19.468 58.7616 21.3436 60.6353 23.6573 60.6353H23.6771C25.9908 60.6356 27.8667 58.7622 27.867 56.4508C27.867 56.4506 27.867 56.4504 27.867 56.4502V49.8432C27.867 49.5145 27.6003 49.248 27.2713 49.248Z" fill="#5059C9"/>
<path d="M22.7676 48.0492C21.2766 48.0492 20.0679 46.8418 20.0679 45.3523C20.0679 43.8628 21.2766 42.6553 22.7676 42.6553C24.2585 42.6553 25.4672 43.8628 25.4672 45.3523C25.4672 46.8418 24.2585 48.0492 22.7676 48.0492Z" fill="#5059C9"/>
<path d="M31.1663 48.0491C29.0126 48.0491 27.2668 46.305 27.2668 44.1535C27.2668 42.002 29.0126 40.2578 31.1663 40.2578C33.3199 40.2578 35.0658 42.002 35.0658 44.1535C35.0658 46.305 33.3199 48.0491 31.1663 48.0491Z" fill="#7B83EB"/>
<path d="M25.9668 49.248H36.9658C37.5878 49.2634 38.0799 49.7791 38.0655 50.4006V57.3162C38.1523 61.0454 35.199 64.14 31.4663 64.2313C27.7335 64.14 24.7802 61.0454 24.8671 57.3162V50.4006C24.8527 49.7791 25.3447 49.2634 25.9668 49.248Z" fill="#7B83EB"/>
<path opacity="0.1" d="M30.8666 49.248V58.9392C30.8695 59.3836 31.1391 59.7829 31.5505 59.9521C31.6814 60.0074 31.8222 60.0359 31.9644 60.036H37.5377C37.6157 59.8382 37.6877 59.6404 37.7477 59.4367C37.9577 58.7489 38.0649 58.034 38.0657 57.315V50.3988C38.0801 49.7783 37.5888 49.2634 36.9678 49.248H30.8666Z" fill="black"/>
<path opacity="0.2" d="M31.4665 49.248V59.5385C31.4665 59.6806 31.4951 59.8212 31.5505 59.9521C31.7198 60.363 32.1195 60.6323 32.5643 60.6353H37.2558C37.3578 60.4375 37.4537 60.2398 37.5377 60.036C37.6217 59.8322 37.6877 59.6404 37.7477 59.4367C37.9577 58.749 38.0649 58.034 38.0657 57.315V50.3988C38.0801 49.7783 37.5888 49.2634 36.9678 49.248H31.4665Z" fill="black"/>
<path opacity="0.2" d="M31.4665 49.248V58.3399C31.4711 58.9437 31.9599 59.4321 32.5644 59.4367H37.7477C37.9577 58.749 38.0649 58.034 38.0657 57.315V50.3988C38.0801 49.7783 37.5888 49.2634 36.9678 49.248H31.4665Z" fill="black"/>
<path opacity="0.2" d="M32.0664 49.248V58.3399C32.071 58.9437 32.5598 59.4321 33.1643 59.4367H37.7477C37.9577 58.749 38.0649 58.034 38.0657 57.315V50.3988C38.0801 49.7783 37.5888 49.2634 36.9678 49.248H32.0664Z" fill="black"/>
<path opacity="0.1" d="M30.8662 46.1495V48.0374C30.9682 48.0434 31.0642 48.0494 31.1662 48.0494C31.2682 48.0494 31.3641 48.0434 31.4661 48.0374C31.6686 48.024 31.8695 47.9919 32.0661 47.9415C33.2809 47.6541 34.2846 46.8029 34.7657 45.6521C34.8485 45.4588 34.9128 45.2581 34.9577 45.0527H31.9641C31.3587 45.055 30.8685 45.5447 30.8662 46.1495Z" fill="black"/>
<path opacity="0.2" d="M31.4662 46.7491V48.0377C31.6687 48.0242 31.8695 47.9921 32.0661 47.9418C33.2809 47.6544 34.2846 46.8032 34.7657 45.6523H32.564C31.9586 45.6546 31.4685 46.1443 31.4662 46.7491Z" fill="black"/>
<path opacity="0.2" d="M31.4662 46.7491V48.0377C31.6687 48.0242 31.8695 47.9921 32.0661 47.9418C33.2809 47.6544 34.2846 46.8032 34.7657 45.6523H32.564C31.9586 45.6546 31.4685 46.1443 31.4662 46.7491Z" fill="black"/>
<path opacity="0.2" d="M32.0661 46.7491V47.9418C33.2809 47.6544 34.2846 46.8032 34.7657 45.6523H33.1639C32.5586 45.6546 32.0684 46.1443 32.0661 46.7491Z" fill="black"/>
<path d="M44.1649 45.6523H33.1659C32.5586 45.6523 32.0662 46.1442 32.0662 46.7509V57.739C32.0662 58.3457 32.5586 58.8376 33.1659 58.8376H44.1649C44.7723 58.8376 45.2646 58.3457 45.2646 57.739V46.7509C45.2646 46.1442 44.7722 45.6523 44.1649 45.6523Z" fill="url(#paint4_linear_149_127256)"/>
<path d="M35.7712 49.8341H37.9699V55.8154H39.3707V49.8341H41.5593V48.6738H35.7712V49.8341Z" fill="white"/>
<path d="M70.2864 33.7562C71.162 33.7562 71.8784 33.0398 71.8624 32.1642C71.8624 31.2886 71.146 30.5722 70.2704 30.5882C69.3949 30.5882 68.6785 31.3045 68.6944 32.1801C68.6944 33.0398 69.4108 33.7562 70.2864 33.7562Z" fill="#737373"/>
<path d="M80.2206 26.1621H60.1934C58.7924 26.1621 57.6621 27.2765 57.6621 28.6456V75.9276C57.6621 76.9305 58.49 77.7424 59.5088 77.7424H80.6504C81.6693 77.7424 82.4971 76.9305 82.4971 75.9276V28.4068C82.4812 27.1651 81.4623 26.1621 80.2206 26.1621Z" fill="#E6E6E6"/>
<path d="M81.3986 26.1621H63.9823L82.4971 43.1008V27.2606C82.4811 26.6556 82.0035 26.1621 81.3986 26.1621Z" fill="url(#paint5_linear_149_127256)"/>
<path d="M81.3987 26.1621H59.1586C58.5537 26.1621 58.0602 26.6556 58.0602 27.2606V30.3809H82.4812V27.2606C82.4812 26.6556 82.0036 26.1621 81.3987 26.1621Z" fill="#7B83EB"/>
<path d="M62.8896 54.0137H70.5013C71.5866 54.0137 72.4935 54.9057 72.4935 56.0058V59.113C72.4935 60.1982 71.6015 61.1051 70.5013 61.1051H68.4646V63.0378L66.5319 61.1051H62.8896C61.8043 61.1051 60.8974 60.2131 60.8974 59.113V56.0058C60.8974 54.9057 61.7894 54.0137 62.8896 54.0137Z" fill="white"/>
<path d="M63.4398 56.7338H69.9217C70.1001 56.7338 70.2339 56.6 70.2339 56.4216C70.2339 56.2432 70.1001 56.1094 69.9217 56.1094H63.4398C63.2614 56.1094 63.1276 56.2432 63.1276 56.4216C63.1276 56.6 63.2763 56.7338 63.4398 56.7338Z" fill="#99A5FF"/>
<path d="M63.4398 58.2064H69.9217C70.1001 58.2064 70.2339 58.0726 70.2339 57.8942C70.2339 57.7158 70.1001 57.582 69.9217 57.582H63.4398C63.2614 57.582 63.1276 57.7158 63.1276 57.8942C63.1276 58.0578 63.2763 58.2064 63.4398 58.2064Z" fill="#99A5FF"/>
<path d="M77.7795 64.5986H70.1678C69.0825 64.5986 68.1757 65.4906 68.1757 66.5908V70.7237C68.1757 71.809 69.0677 72.7159 70.1678 72.7159H72.2045V74.6485L74.1372 72.7159H77.7795C78.8648 72.7159 79.7717 71.8239 79.7717 70.7237V66.5908C79.7717 65.4906 78.8797 64.5986 77.7795 64.5986Z" fill="#3B42AD"/>
<path d="M70.6438 67.3187H77.1257C77.3041 67.3187 77.4379 67.1849 77.4379 67.0065C77.4379 66.8281 77.3041 66.6943 77.1257 66.6943H70.6438C70.4654 66.6943 70.3316 66.8281 70.3316 67.0065C70.3316 67.1849 70.4654 67.3187 70.6438 67.3187Z" fill="white"/>
<path d="M70.6438 68.7758H77.1257C77.3041 68.7758 77.4379 68.642 77.4379 68.4636C77.4379 68.2852 77.3041 68.1514 77.1257 68.1514H70.6438C70.4654 68.1514 70.3316 68.2852 70.3316 68.4636C70.3316 68.642 70.4654 68.7758 70.6438 68.7758Z" fill="white"/>
<path d="M70.6438 70.2621H74.1969C74.3753 70.2621 74.5091 70.1283 74.5091 69.9499C74.5091 69.7715 74.3753 69.6377 74.1969 69.6377H70.6438C70.4654 69.6377 70.3316 69.7715 70.3316 69.9499C70.3316 70.1134 70.4654 70.2621 70.6438 70.2621Z" fill="white"/>
<path d="M79.8864 24.873H60.4642C58.3309 24.873 56.5956 26.6083 56.5956 28.7416V75.1479C56.5956 77.2812 58.3309 79.0165 60.4642 79.0165H79.8864C82.0197 79.0165 83.7549 77.2812 83.7549 75.1479V28.7416C83.7549 26.6083 82.0197 24.873 79.8864 24.873ZM82.147 74.9251C82.147 76.2464 81.0645 77.329 79.7431 77.329H60.6074C59.2861 77.329 58.2035 76.2464 58.2035 74.9251V28.9644C58.2035 27.6431 59.2861 26.5606 60.6074 26.5606H79.7272C81.0485 26.5606 82.1311 27.6431 82.1311 28.9644V74.9251H82.147Z" fill="#3B42AD"/>
<path d="M63.648 26.4805V26.8307C63.648 27.6904 64.3485 28.3909 65.2082 28.3909H75.3332C76.1929 28.3909 76.8934 27.6904 76.8934 26.8307V26.4805H63.648Z" fill="#3B42AD"/>
<path d="M73.1362 27.6429C73.375 27.6429 73.566 27.4518 73.566 27.213C73.566 26.9742 73.375 26.7832 73.1362 26.7832C72.8974 26.7832 72.7063 26.9742 72.7063 27.213C72.7222 27.4678 72.9133 27.6429 73.1362 27.6429Z" fill="#F2F1F0"/>
<path d="M68.8858 27.5792H71.5763C71.7514 27.5792 71.8947 27.4359 71.8947 27.2608C71.8947 27.0857 71.7514 26.9424 71.5763 26.9424H68.8858C68.7107 26.9424 68.5674 27.0857 68.5674 27.2608C68.5674 27.4518 68.7107 27.5792 68.8858 27.5792Z" fill="#F2F1F0"/>
<path d="M74.5054 76.7243H65.9405C65.7973 76.7243 65.6858 76.6128 65.6858 76.4696C65.6858 76.3263 65.7973 76.2148 65.9405 76.2148H74.5054C74.6487 76.2148 74.7601 76.3263 74.7601 76.4696C74.7601 76.6128 74.6487 76.7243 74.5054 76.7243Z" fill="#E6E6E6"/>
<path opacity="0.15" d="M78.5487 33.791H61.9196C61.5119 33.791 61.1843 34.1186 61.1843 34.5264V51.17C61.1843 51.5777 61.5119 51.9053 61.9196 51.9053H78.5487C78.9564 51.9053 79.284 51.5777 79.284 51.17V34.5264C79.2986 34.1186 78.9637 33.791 78.5487 33.791Z" fill="#1F1D20"/>
<path d="M78.5489 33.1357H61.9199C61.5121 33.1357 61.1845 33.4634 61.1845 33.8711V50.5147C61.1845 50.9224 61.5121 51.2501 61.9199 51.2501H78.5489C78.9566 51.2501 79.2843 50.9224 79.2843 50.5147V33.8711C79.2988 33.4634 78.9639 33.1357 78.5489 33.1357Z" fill="#7B83EB"/>
<path opacity="0.15" d="M70.234 49.5105C73.7652 49.5105 76.6192 46.6565 76.6192 43.1254C76.6192 39.5943 73.7652 36.7402 70.234 36.7402C66.7029 36.7402 63.8489 39.5943 63.8489 43.1254C63.8489 46.6565 66.7102 49.5105 70.234 49.5105Z" fill="#1F1D20"/>
<path d="M70.2342 48.9422C73.7653 48.9422 76.6194 46.0882 76.6194 42.557C76.6194 39.0259 73.7653 36.1719 70.2342 36.1719C66.7031 36.1719 63.8491 39.0259 63.8491 42.557C63.8491 46.0809 66.7104 48.9422 70.2342 48.9422Z" fill="white"/>
<path d="M73.3501 45.1496C73.1754 43.5697 71.8212 42.3174 70.1757 42.3174C68.5376 42.3174 67.1979 43.5405 67.0014 45.1059C66.9722 45.2151 66.9722 45.3389 66.9722 45.4408C67.0159 45.8922 67.3217 46.3218 67.9042 46.6639C69.1492 47.3847 71.195 47.3847 72.4327 46.6639C73.0225 46.329 73.3137 45.8922 73.3574 45.4408C73.3792 45.3461 73.3574 45.2442 73.3501 45.1496Z" fill="url(#paint6_radial_149_127256)"/>
<path d="M70.1761 41.8648C71.239 41.8648 72.1054 41.0057 72.1054 39.95C72.1054 38.8943 71.2463 38.0352 70.1761 38.0352C69.1058 38.0352 68.2467 38.8797 68.2467 39.95C68.2467 41.013 69.1131 41.8648 70.1761 41.8648Z" fill="url(#paint7_radial_149_127256)"/>
<defs>
<linearGradient id="paint0_linear_149_127256" x1="36.5927" y1="1.5585" x2="66.829" y2="102.85" gradientUnits="userSpaceOnUse">
<stop stop-color="#A9B1FF"/>
<stop offset="1" stop-color="#7B83EB"/>
</linearGradient>
<linearGradient id="paint1_linear_149_127256" x1="51.6502" y1="5.16689" x2="51.6502" y2="98.8271" gradientUnits="userSpaceOnUse">
<stop stop-color="#5A62C3"/>
<stop offset="0.5" stop-color="#4D55BD"/>
<stop offset="1" stop-color="#3940AB"/>
</linearGradient>
<linearGradient id="paint2_linear_149_127256" x1="36.5927" y1="1.5585" x2="66.829" y2="102.85" gradientUnits="userSpaceOnUse">
<stop stop-color="#A9B1FF"/>
<stop offset="1" stop-color="#7B83EB"/>
</linearGradient>
<linearGradient id="paint3_linear_149_127256" x1="51.6502" y1="5.16689" x2="51.6502" y2="98.8271" gradientUnits="userSpaceOnUse">
<stop stop-color="#5A62C3"/>
<stop offset="0.5" stop-color="#4D55BD"/>
<stop offset="1" stop-color="#3940AB"/>
</linearGradient>
<linearGradient id="paint4_linear_149_127256" x1="42.9718" y1="44.7939" x2="34.3719" y2="59.7034" gradientUnits="userSpaceOnUse">
<stop stop-color="#5A62C3"/>
<stop offset="0.5" stop-color="#4D55BD"/>
<stop offset="1" stop-color="#3940AB"/>
</linearGradient>
<linearGradient id="paint5_linear_149_127256" x1="73.2408" y1="43.1012" x2="73.2408" y2="26.1626" gradientUnits="userSpaceOnUse">
<stop offset="0.0994" stop-color="#E6E6E6"/>
<stop offset="0.9511" stop-color="white"/>
</linearGradient>
<radialGradient id="paint6_radial_149_127256" cx="0" cy="0" r="1" gradientUnits="userSpaceOnUse" gradientTransform="translate(68.3216 39.4427) scale(13.4384)">
<stop stop-color="#4FC2EB"/>
<stop offset="0.585" stop-color="#2E76BC"/>
</radialGradient>
<radialGradient id="paint7_radial_149_127256" cx="0" cy="0" r="1" gradientUnits="userSpaceOnUse" gradientTransform="translate(68.3219 39.4415) scale(13.4384)">
<stop stop-color="#4FC2EB"/>
<stop offset="0.585" stop-color="#2E76BC"/>
</radialGradient>
</defs>
</svg>
