<svg width="103" height="103" viewBox="0 0 103 103" fill="none" xmlns="http://www.w3.org/2000/svg">
<path d="M51.447 97.9423C25.597 97.9423 4.63696 76.9923 4.63696 51.1323C4.63696 25.2723 25.597 4.32227 51.447 4.32227C77.297 4.32227 98.257 25.2823 98.257 51.1323C98.257 76.9823 77.297 97.9423 51.447 97.9423Z" fill="url(#paint0_linear_660_9055)"/>
<path fill-rule="evenodd" clip-rule="evenodd" d="M97.3471 51.1324C97.3471 76.4824 76.7971 97.0324 51.4471 97.0324C26.0971 97.0324 5.54713 76.4824 5.54713 51.1324C5.54713 25.7824 26.0971 5.23244 51.4471 5.23244C76.7971 5.23244 97.3471 25.7824 97.3471 51.1324ZM51.4471 1.49243C78.8671 1.49243 101.087 23.7124 101.087 51.1324C101.087 78.5524 78.8571 100.772 51.4471 100.772C24.0271 100.772 1.80713 78.5424 1.80713 51.1324C1.80713 23.7124 24.0271 1.49243 51.4471 1.49243Z" fill="#F2F1F0"/>
<path fill-rule="evenodd" clip-rule="evenodd" d="M94.5369 51.1322C94.5369 74.9322 75.2469 94.2222 51.4469 94.2222C27.6469 94.2222 8.35694 74.9322 8.35694 51.1322C8.35694 27.3322 27.6469 8.04225 51.4469 8.04225C75.2469 8.04225 94.5369 27.3322 94.5369 51.1322ZM51.4469 4.30225C77.3069 4.30225 98.2769 25.2722 98.2769 51.1322C98.2769 76.9922 77.3069 97.9623 51.4469 97.9623C25.5869 97.9623 4.61694 76.9922 4.61694 51.1322C4.61694 25.2722 25.5769 4.30225 51.4469 4.30225Z" fill="url(#paint1_linear_660_9055)"/>
<path d="M63.8441 52.7895L85.8933 52.7896L85.8933 49.1861L63.8441 49.1861L63.8441 52.7895Z" fill="white"/>
<path d="M84.1856 47.2252L89.9966 50.9715L84.1856 54.7178L84.1856 47.2252Z" fill="white"/>
<path opacity="0.15" d="M73.5922 23.386L29.7921 23.026C28.8421 23.016 28.0721 23.776 28.0721 24.726L27.6021 81.886C27.5921 82.836 28.3521 83.606 29.3021 83.606L73.1021 83.966C74.0521 83.976 74.8222 83.216 74.8222 82.266L75.2921 25.106C75.2821 24.166 74.5222 23.396 73.5922 23.386Z" fill="#1F1D20"/>
<path d="M73.6021 21.5759L29.8021 21.2159C28.8521 21.2059 28.0821 21.9659 28.0821 22.9159L27.6021 80.0659C27.5921 81.0159 28.3521 81.7859 29.3021 81.7859L73.1021 82.1459C74.0521 82.1559 74.8222 81.3959 74.8222 80.4459L75.2921 23.2859C75.2921 22.3559 74.5421 21.5859 73.6021 21.5759Z" fill="#F2F2F2"/>
<path fill-rule="evenodd" clip-rule="evenodd" d="M53.9921 14.9359C55.2321 15.6059 55.9521 16.9359 55.9421 18.3359V18.6759C55.9421 18.8059 55.9321 18.9159 55.9221 19.0459L58.6121 19.0659C59.4121 19.0759 60.1621 19.4759 60.5621 20.1759C61.6821 22.1659 60.2621 24.1859 58.3921 24.1659L44.8121 24.0659C44.0121 24.0559 43.2621 23.6559 42.8621 22.9559C41.7421 20.9659 43.1621 18.9459 45.0321 18.9659L47.5321 18.9859C47.5221 18.8659 47.5221 18.7459 47.5221 18.6159V18.5059C47.5621 15.4659 50.7921 13.2159 53.9921 14.9359Z" fill="#243A5E"/>
<path d="M51.7122 20.506C52.6722 20.516 53.4522 19.746 53.4622 18.786C53.4722 17.826 52.7022 17.046 51.7422 17.036C50.7822 17.026 50.0022 17.796 49.9922 18.756C49.9922 19.716 50.7522 20.496 51.7122 20.506Z" fill="#F2F2F2"/>
<path d="M35.1826 42.6042L47.8578 32.8274L50.7992 30.5562C51.1789 30.263 51.6459 30.1055 52.1257 30.1089C52.6054 30.1123 53.0702 30.2764 53.4457 30.575L56.3471 32.8815L68.8931 42.8421L51.9455 55.9175L35.1826 42.6042Z" fill="url(#paint2_linear_660_9055)"/>
<path d="M42.1125 47.9203L48.194 41.8381L52.5297 46.1737L61.2017 37.5017" stroke="white" stroke-width="1.57764" stroke-miterlimit="10" stroke-linecap="round"/>
<path d="M61.2021 39.796C62.4694 39.796 63.4967 38.7687 63.4967 37.5014C63.4967 36.2341 62.4694 35.2068 61.2021 35.2068C59.9348 35.2068 58.9075 36.2341 58.9075 37.5014C58.9075 38.7687 59.9348 39.796 61.2021 39.796Z" fill="#0078D4" stroke="white" stroke-width="1.57764" stroke-miterlimit="10" stroke-linecap="round"/>
<path d="M42.1124 50.0016C43.0339 50.0016 43.7809 49.2546 43.7809 48.3331C43.7809 47.4116 43.0339 46.6646 42.1124 46.6646C41.1909 46.6646 40.4438 47.4116 40.4438 48.3331C40.4438 49.2546 41.1909 50.0016 42.1124 50.0016Z" fill="#0078D4" stroke="white" stroke-width="1.57764" stroke-miterlimit="10" stroke-linecap="round"/>
<path d="M48.2299 43.4253C49.0707 43.4253 49.7522 42.7438 49.7522 41.903C49.7522 41.0622 49.0707 40.3806 48.2299 40.3806C47.3891 40.3806 46.7075 41.0622 46.7075 41.903C46.7075 42.7438 47.3891 43.4253 48.2299 43.4253Z" fill="#0078D4" stroke="white" stroke-width="1.57764" stroke-miterlimit="10" stroke-linecap="round"/>
<path d="M52.5675 47.3826C53.4083 47.3826 54.0899 46.701 54.0899 45.8603C54.0899 45.0195 53.4083 44.3379 52.5675 44.3379C51.7268 44.3379 51.0452 45.0195 51.0452 45.8603C51.0452 46.701 51.7268 47.3826 52.5675 47.3826Z" fill="#0078D4" stroke="white" stroke-width="1.57764" stroke-miterlimit="10" stroke-linecap="round"/>
<path d="M47.7284 52.5649L35.2802 65.013C35.0778 64.814 34.917 64.5767 34.8073 64.3148C34.6977 64.053 34.6413 63.7719 34.6416 63.488V44.021C34.6402 43.4981 34.8329 42.9933 35.1824 42.6042L47.7284 52.5649Z" fill="url(#paint3_linear_660_9055)"/>
<path fill-rule="evenodd" clip-rule="evenodd" d="M68.6114 65.013C68.4124 65.2154 68.1751 65.3761 67.9132 65.4857C67.6514 65.5952 67.3703 65.6515 67.0865 65.6511H36.8044C36.5207 65.6514 36.2397 65.5951 35.978 65.4856C35.7162 65.376 35.4789 65.2154 35.28 65.013L47.7281 52.5649L50.2623 50.0788C50.7117 49.638 51.316 49.3911 51.9454 49.3911C52.5748 49.3911 53.1792 49.6381 53.6284 50.0789L56.2174 52.619L68.6114 65.013Z" fill="url(#paint4_linear_660_9055)"/>
<path d="M69.2499 44.0209V63.4879C69.2502 63.7718 69.194 64.0528 69.0844 64.3147C68.9749 64.5765 68.8142 64.8139 68.6118 65.0129L56.2178 52.6188L68.893 42.842C69.126 43.191 69.2502 43.6013 69.2499 44.0209V44.0209Z" fill="url(#paint5_linear_660_9055)"/>
<path opacity="0.2" d="M64.5224 65.6511V61.8618C64.5217 61.2644 64.2841 60.6917 63.8616 60.2694C63.4392 59.847 62.8665 59.6095 62.2692 59.6089H41.6221C41.0249 59.6096 40.4524 59.8473 40.0301 60.2696C39.6078 60.6919 39.3703 61.2645 39.3696 61.8618V65.6511H64.5224Z" fill="#003067"/>
<path d="M62.2694 61.0393H41.6221C41.168 61.0393 40.7998 61.4075 40.7998 61.8616V69.7853C40.7998 70.2395 41.168 70.6076 41.6221 70.6076H62.2694C62.7236 70.6076 63.0918 70.2395 63.0918 69.7853V61.8616C63.0918 61.4075 62.7236 61.0393 62.2694 61.0393Z" fill="url(#paint6_linear_660_9055)"/>
<path d="M62.2694 61.0393H41.6221C41.168 61.0393 40.7998 61.4075 40.7998 61.8616V69.7853C40.7998 70.2395 41.168 70.6076 41.6221 70.6076H62.2694C62.7236 70.6076 63.0918 70.2395 63.0918 69.7853V61.8616C63.0918 61.4075 62.7236 61.0393 62.2694 61.0393Z" fill="white"/>
<path d="M43.4539 63.7615H60.4375" stroke="#0078D4" stroke-width="0.95" stroke-miterlimit="10" stroke-linecap="round"/>
<path d="M56.2178 65.069C56.9399 65.069 57.5253 64.4836 57.5253 63.7615C57.5253 63.0395 56.9399 62.4541 56.2178 62.4541C55.4958 62.4541 54.9104 63.0395 54.9104 63.7615C54.9104 64.4836 55.4958 65.069 56.2178 65.069Z" fill="#50E6FF"/>
<path d="M43.4539 67.8855H60.4375" stroke="#0078D4" stroke-width="0.95" stroke-miterlimit="10" stroke-linecap="round"/>
<path d="M48.2298 69.193C48.9519 69.193 49.5372 68.6076 49.5372 67.8856C49.5372 67.1635 48.9519 66.5781 48.2298 66.5781C47.5077 66.5781 46.9224 67.1635 46.9224 67.8856C46.9224 68.6076 47.5077 69.193 48.2298 69.193Z" fill="#50E6FF"/>
<defs>
<linearGradient id="paint0_linear_660_9055" x1="49.6731" y1="-13.6572" x2="53.6551" y2="132.113" gradientUnits="userSpaceOnUse">
<stop stop-color="#00ABDE"/>
<stop offset="1" stop-color="#007ED8"/>
</linearGradient>
<linearGradient id="paint1_linear_660_9055" x1="2.87734" y1="-20.4904" x2="98.4049" y2="120.391" gradientUnits="userSpaceOnUse">
<stop stop-color="#007ED8"/>
<stop offset="0.7065" stop-color="#002D4C"/>
</linearGradient>
<linearGradient id="paint2_linear_660_9055" x1="52.0378" y1="55.9175" x2="52.0378" y2="30.0627" gradientUnits="userSpaceOnUse">
<stop stop-color="#005BA1"/>
<stop offset="0.26" stop-color="#00589D"/>
<stop offset="0.53" stop-color="#004F90"/>
<stop offset="0.8" stop-color="#003F7C"/>
<stop offset="1" stop-color="#003067"/>
</linearGradient>
<linearGradient id="paint3_linear_660_9055" x1="32.8821" y1="43.9323" x2="42.6098" y2="60.7812" gradientUnits="userSpaceOnUse">
<stop stop-color="#008BF1"/>
<stop offset="0.22" stop-color="#0086EC"/>
<stop offset="0.49" stop-color="#0078DD"/>
<stop offset="0.79" stop-color="#0061C4"/>
<stop offset="1" stop-color="#004DAE"/>
</linearGradient>
<linearGradient id="paint4_linear_660_9055" x1="51.9457" y1="65.6511" x2="51.9457" y2="49.3911" gradientUnits="userSpaceOnUse">
<stop stop-color="#004DAE"/>
<stop offset="0.21" stop-color="#0061C4"/>
<stop offset="0.51" stop-color="#0078DD"/>
<stop offset="0.78" stop-color="#0086EC"/>
<stop offset="1" stop-color="#008BF1"/>
</linearGradient>
<linearGradient id="paint5_linear_660_9055" x1="62.7338" y1="42.842" x2="62.7338" y2="65.0129" gradientUnits="userSpaceOnUse">
<stop stop-color="#008BF1"/>
<stop offset="0.22" stop-color="#0086EC"/>
<stop offset="0.49" stop-color="#0078DD"/>
<stop offset="0.79" stop-color="#0061C4"/>
<stop offset="1" stop-color="#004DAE"/>
</linearGradient>
<linearGradient id="paint6_linear_660_9055" x1="51.9458" y1="70.2642" x2="51.9458" y2="61.2477" gradientUnits="userSpaceOnUse">
<stop stop-color="white"/>
<stop offset="0.56" stop-color="#FBFBFB"/>
<stop offset="1" stop-color="#F2F2F2"/>
</linearGradient>
</defs>
</svg>
