<svg width="103" height="103" viewBox="0 0 103 103" fill="none" xmlns="http://www.w3.org/2000/svg">
<path d="M51.6166 98.5682C25.7666 98.5682 4.80664 77.6182 4.80664 51.7582C4.80664 25.8982 25.7666 4.94824 51.6166 4.94824C77.4666 4.94824 98.4266 25.9082 98.4266 51.7582C98.4266 77.6082 77.4666 98.5682 51.6166 98.5682Z" fill="url(#paint0_linear_59_258)"/>
<path fill-rule="evenodd" clip-rule="evenodd" d="M97.5166 51.7582C97.5166 77.1082 76.9666 97.6582 51.6166 97.6582C26.2666 97.6582 5.71656 77.1082 5.71656 51.7582C5.71656 26.4082 26.2666 5.85817 51.6166 5.85817C76.9666 5.85817 97.5166 26.4082 97.5166 51.7582ZM51.6166 2.11816C79.0366 2.11816 101.257 24.3382 101.257 51.7582C101.257 79.1782 79.0266 101.398 51.6166 101.398C24.1966 101.398 1.97656 79.1682 1.97656 51.7582C1.97656 24.3382 24.1966 2.11816 51.6166 2.11816Z" fill="#F2F1F0"/>
<path fill-rule="evenodd" clip-rule="evenodd" d="M94.7066 51.7577C94.7066 75.5577 75.4166 94.8477 51.6166 94.8477C27.8166 94.8477 8.52662 75.5577 8.52662 51.7577C8.52662 27.9577 27.8166 8.66774 51.6166 8.66774C75.4166 8.66774 94.7066 27.9577 94.7066 51.7577ZM51.6166 4.92773C77.4766 4.92773 98.4466 25.8977 98.4466 51.7577C98.4466 77.6177 77.4766 98.5878 51.6166 98.5878C25.7566 98.5878 4.78662 77.6177 4.78662 51.7577C4.78662 25.8977 25.7466 4.92773 51.6166 4.92773Z" fill="url(#paint1_linear_59_258)"/>
<path opacity="0.2" d="M93.1033 52.8059L81.87 61.3167V56.5208H63.2461V49.0909H81.87V44.2852L93.1033 52.8059Z" fill="#1F1D21"/>
<path d="M93.1043 51.4103L81.8709 59.9015V55.1252H63.2471V47.6856H81.8709V42.8994L93.1043 51.4103Z" fill="white"/>
<path opacity="0.15" d="M75.5371 32.4929V71.3394C75.5371 72.4216 74.6559 73.2932 73.5833 73.2932H20.8015C19.7288 73.2932 18.8477 72.412 18.8477 71.3394V32.4929C18.8477 31.4106 19.7288 30.5391 20.8015 30.5391H73.5833C74.6559 30.5391 75.5371 31.4202 75.5371 32.4929Z" fill="#1F1D20"/>
<path d="M75.5371 31.861V70.7075C75.5371 71.7898 74.6559 72.6613 73.5833 72.6613H20.8015C19.7288 72.6613 18.8477 71.7898 18.8477 70.7075V31.861C18.8477 30.7884 19.7288 29.9072 20.8015 29.9072H73.5833C74.6559 29.9072 75.5371 30.7884 75.5371 31.861Z" fill="url(#paint2_linear_59_258)"/>
<path d="M75.5371 31.861V70.7075C75.5371 71.7898 74.6559 72.6613 73.5833 72.6613H20.8015C19.7288 72.6613 18.8477 71.7898 18.8477 70.7075V31.861C18.8477 30.7884 19.7288 29.9072 20.8015 29.9072H73.5833C74.6559 29.9072 75.5371 30.7884 75.5371 31.861Z" fill="url(#paint3_linear_59_258)"/>
<path opacity="0.15" d="M72.051 35.6155V68.045C72.051 68.9453 71.2752 69.6732 70.3366 69.6732H24.0484C23.1002 69.6732 22.334 68.9357 22.334 68.045V35.6155C22.334 34.7152 23.1098 33.9873 24.0484 33.9873H70.3366C71.2848 33.9873 72.051 34.7152 72.051 35.6155Z" fill="#1F1D20"/>
<path d="M72.051 35.0696V67.4991C72.051 68.3994 71.2752 69.1273 70.3366 69.1273H24.0484C23.1002 69.1273 22.334 68.3898 22.334 67.4991V35.0696C22.334 34.1693 23.1098 33.4414 24.0484 33.4414H70.3366C71.2848 33.4414 72.051 34.1693 72.051 35.0696Z" fill="url(#paint4_linear_59_258)"/>
<path opacity="0.15" d="M55.5969 46.0742H41.5658C40.9624 46.0742 40.4644 46.5723 40.4644 47.1756C40.4644 47.779 40.9624 48.2771 41.5658 48.2771H55.5873C56.1907 48.2771 56.6887 47.779 56.6887 47.1756C56.6887 46.5723 56.2002 46.0742 55.5969 46.0742Z" fill="#1F1D20"/>
<path opacity="0.15" d="M55.5969 50.8721H41.5658C40.9624 50.8721 40.4644 51.3701 40.4644 51.9735C40.4644 52.5769 40.9624 53.0749 41.5658 53.0749H55.5873C56.1907 53.0749 56.6887 52.5769 56.6887 51.9735C56.6887 51.3605 56.2002 50.8721 55.5969 50.8721Z" fill="#1F1D20"/>
<path opacity="0.15" fill-rule="evenodd" clip-rule="evenodd" d="M41.5654 55.6709H55.5678C56.1712 55.6709 56.6692 56.1689 56.6692 56.7723C56.6692 57.3757 56.1712 57.8737 55.5678 57.8737H41.5654C40.962 57.8737 40.464 57.3757 40.464 56.7723C40.4544 56.1785 40.9525 55.6709 41.5654 55.6709Z" fill="#1F1D20"/>
<path d="M55.5339 45.4619H41.5028C40.8994 45.4619 40.4014 45.9599 40.4014 46.5633C40.4014 47.1667 40.8994 47.6647 41.5028 47.6647H55.5243C56.1277 47.6647 56.6257 47.1667 56.6257 46.5633C56.6257 45.9504 56.1373 45.4619 55.5339 45.4619Z" fill="#D5F9FD"/>
<path d="M55.5339 50.2598H41.5028C40.8994 50.2598 40.4014 50.7578 40.4014 51.3612C40.4014 51.9646 40.8994 52.4626 41.5028 52.4626H55.5243C56.1277 52.4626 56.6257 51.9646 56.6257 51.3612C56.6257 50.7482 56.1373 50.2598 55.5339 50.2598Z" fill="#84ECFD"/>
<path fill-rule="evenodd" clip-rule="evenodd" d="M41.5024 55.0488H55.5048C56.1082 55.0488 56.6062 55.5469 56.6062 56.1502C56.6062 56.7536 56.1082 57.2517 55.5048 57.2517H41.5024C40.899 57.2517 40.401 56.7536 40.401 56.1502C40.3914 55.5564 40.8895 55.0488 41.5024 55.0488Z" fill="#50E6FF"/>
<path opacity="0.15" d="M34.1248 61.4143H15.0077C14.472 61.4143 14.042 60.9843 14.042 60.4486V42.7694C14.042 42.2337 14.472 41.8037 15.0077 41.8037H34.1248C34.6606 41.8037 35.0906 42.2337 35.0906 42.7694V60.4556C35.0906 60.9843 34.6535 61.4143 34.1248 61.4143Z" fill="#1F1D20"/>
<path opacity="0.15" d="M34.1009 60.6354H14.9838C14.4481 60.6354 14.0181 60.1984 14.0181 59.6697V41.9765C14.0181 41.4407 14.4481 41.0107 14.9838 41.0107H34.1009C34.6367 41.0107 35.0666 41.4407 35.0666 41.9765V59.6626C35.0666 60.1984 34.6296 60.6354 34.1009 60.6354Z" fill="#1F1D20"/>
<path d="M34.1009 60.6291H14.9838C14.4481 60.6291 14.0181 60.1991 14.0181 59.6634V41.9843C14.0181 41.4485 14.4481 41.0186 14.9838 41.0186H34.1009C34.6367 41.0186 35.0666 41.4485 35.0666 41.9843V59.6704C35.0666 60.1991 34.6296 60.6291 34.1009 60.6291Z" fill="white"/>
<path d="M28.7295 46.7338C28.7295 46.2968 28.377 45.9443 27.94 45.9443H18.4589C18.0219 45.9443 17.6694 46.2968 17.6694 46.7338C17.6694 47.1709 18.0219 47.5233 18.4589 47.5233H27.947C28.384 47.5163 28.7295 47.1709 28.7295 46.7338Z" fill="url(#paint5_linear_59_258)"/>
<path d="M31.4153 46.7338C31.4153 46.2968 31.0629 45.9443 30.6258 45.9443H28.0458C27.6088 45.9443 27.8908 46.2968 27.8908 46.7338C27.8908 47.1709 27.6158 47.5233 28.0458 47.5233H30.6329C31.0558 47.5163 31.4153 47.1709 31.4153 46.7338Z" fill="#9B9BA0"/>
<path d="M26.7695 46.7341C26.7695 47.6011 27.4674 48.306 28.3415 48.306C29.2156 48.306 29.9134 47.6081 29.9134 46.7341C29.9134 45.867 29.2015 45.1621 28.3344 45.1621C27.4744 45.1762 26.7695 45.867 26.7695 46.7341Z" fill="#50E6FF"/>
<path d="M25.8182 50.7026C25.8182 50.2655 25.4657 49.9131 25.0287 49.9131H18.4589C18.0219 49.9131 17.6694 50.2655 17.6694 50.7026C17.6694 51.1396 18.0219 51.4921 18.4589 51.4921H25.0428C25.4728 51.485 25.8182 51.1396 25.8182 50.7026Z" fill="url(#paint6_linear_59_258)"/>
<path d="M31.4154 50.7026C31.4154 50.2655 31.0629 49.9131 30.6259 49.9131H25.5082C25.0712 49.9131 24.7188 50.2655 24.7188 50.7026C24.7188 51.1396 25.0712 51.4921 25.5082 51.4921H30.6329C31.0559 51.485 31.4154 51.1396 31.4154 50.7026Z" fill="#9B9BA0"/>
<path d="M23.3369 50.7028C23.3369 51.5698 24.0348 52.2748 24.9089 52.2748C25.7829 52.2748 26.4808 51.5769 26.4808 50.7028C26.4808 49.8358 25.7829 49.1309 24.9089 49.1309C24.0348 49.1309 23.3369 49.8358 23.3369 50.7028Z" fill="#35AFE4"/>
<path d="M22.1597 54.9106C22.1597 54.4735 21.8072 54.1211 21.3702 54.1211H18.4589C18.0219 54.1281 17.6694 54.4735 17.6694 54.9106C17.6694 55.3476 18.0219 55.7001 18.4589 55.7001H21.3702C21.8072 55.686 22.1597 55.3406 22.1597 54.9106Z" fill="url(#paint7_linear_59_258)"/>
<path d="M31.415 54.9106C31.415 54.4735 31.0626 54.1211 30.6255 54.1211H22.1455C21.7084 54.1211 21.356 54.4735 21.356 54.9106C21.356 55.3476 21.7084 55.7001 22.1455 55.7001H30.6255C31.0555 55.686 31.415 55.3406 31.415 54.9106Z" fill="#9B9BA0"/>
<path d="M20.1016 54.9108C20.1016 55.7779 20.7994 56.4828 21.6735 56.4828C22.5405 56.4828 23.2455 55.7849 23.2455 54.9108C23.2455 54.0438 22.5476 53.3389 21.6735 53.3389C20.7994 53.3389 20.1016 54.0438 20.1016 54.9108Z" fill="#2E76BC"/>
<defs>
<linearGradient id="paint0_linear_59_258" x1="49.8427" y1="-13.0313" x2="53.8247" y2="132.739" gradientUnits="userSpaceOnUse">
<stop stop-color="#00ABDE"/>
<stop offset="1" stop-color="#007ED8"/>
</linearGradient>
<linearGradient id="paint1_linear_59_258" x1="3.04702" y1="-19.8649" x2="98.5746" y2="121.017" gradientUnits="userSpaceOnUse">
<stop stop-color="#007ED8"/>
<stop offset="0.7065" stop-color="#002D4C"/>
</linearGradient>
<linearGradient id="paint2_linear_59_258" x1="40.6757" y1="3.41538" x2="53.802" y2="99.8568" gradientUnits="userSpaceOnUse">
<stop offset="0.0435" stop-color="white"/>
<stop offset="0.4857" stop-color="#4DC1EA"/>
<stop offset="0.8452" stop-color="#0078D4"/>
</linearGradient>
<linearGradient id="paint3_linear_59_258" x1="40.6757" y1="3.41538" x2="53.802" y2="99.8568" gradientUnits="userSpaceOnUse">
<stop stop-color="#007ED8"/>
<stop offset="0.7065" stop-color="#002D4C"/>
</linearGradient>
<linearGradient id="paint4_linear_59_258" x1="43.5045" y1="-14.9076" x2="49.2058" y2="87.4439" gradientUnits="userSpaceOnUse">
<stop offset="0.0435" stop-color="white"/>
<stop offset="0.4857" stop-color="#4DC1EA"/>
<stop offset="0.8452" stop-color="#0078D4"/>
</linearGradient>
<linearGradient id="paint5_linear_59_258" x1="22.8827" y1="45.8426" x2="29.3677" y2="64.1277" gradientUnits="userSpaceOnUse">
<stop stop-color="#15548F"/>
<stop offset="0.4179" stop-color="#243A5E"/>
<stop offset="0.9677" stop-color="#1A2C45"/>
</linearGradient>
<linearGradient id="paint6_linear_59_258" x1="20.6554" y1="47.6377" x2="25.8089" y2="62.1683" gradientUnits="userSpaceOnUse">
<stop stop-color="#15548F"/>
<stop offset="0.4179" stop-color="#243A5E"/>
<stop offset="0.9677" stop-color="#1A2C45"/>
</linearGradient>
<linearGradient id="paint7_linear_59_258" x1="18.5829" y1="51.1494" x2="22.064" y2="60.9644" gradientUnits="userSpaceOnUse">
<stop stop-color="#15548F"/>
<stop offset="0.4179" stop-color="#243A5E"/>
<stop offset="0.9677" stop-color="#1A2C45"/>
</linearGradient>
</defs>
</svg>
