<svg width="103" height="103" viewBox="0 0 103 103" fill="none" xmlns="http://www.w3.org/2000/svg">
<path d="M51.645 98.3563C25.795 98.3563 4.83502 77.4063 4.83502 51.5463C4.83502 25.6863 25.795 4.73633 51.645 4.73633C77.495 4.73633 98.455 25.6963 98.455 51.5463C98.455 77.3963 77.495 98.3563 51.645 98.3563Z" fill="url(#paint0_linear_150_131876)"/>
<path fill-rule="evenodd" clip-rule="evenodd" d="M51.6456 1.5459C79.2556 1.5459 101.646 23.9359 101.646 51.5459C101.646 79.1559 79.2556 101.546 51.6456 101.546C24.0356 101.546 1.64557 79.1559 1.64557 51.5459C1.64557 23.9359 24.0356 1.5459 51.6456 1.5459ZM51.6456 97.3059C76.9156 97.3059 97.4056 76.8159 97.4056 51.5459C97.4056 26.2759 76.9156 5.7859 51.6456 5.7859C26.3756 5.7859 5.88557 26.2759 5.88557 51.5459C5.88557 76.8159 26.3756 97.3059 51.6456 97.3059Z" fill="#D9D9D9"/>
<path fill-rule="evenodd" clip-rule="evenodd" d="M97.5449 51.5462C97.5449 76.8962 76.9949 97.4463 51.6449 97.4463C26.2949 97.4463 5.74494 76.8962 5.74494 51.5462C5.74494 26.1962 26.2949 5.64625 51.6449 5.64625C76.9949 5.64625 97.5449 26.1962 97.5449 51.5462ZM51.6449 1.90625C79.0649 1.90625 101.285 24.1262 101.285 51.5462C101.285 78.9662 79.0549 101.186 51.6449 101.186C24.2249 101.186 2.00494 78.9562 2.00494 51.5462C2.00494 24.1262 24.2249 1.90625 51.6449 1.90625Z" fill="#F2F1F0"/>
<path fill-rule="evenodd" clip-rule="evenodd" d="M51.6455 94.6358C27.8455 94.6358 8.55549 75.3458 8.55549 51.5458C8.55549 27.7458 27.8455 8.45582 51.6455 8.45582C75.4455 8.45582 94.7355 27.7458 94.7355 51.5458C94.7355 75.3458 75.4455 94.6358 51.6455 94.6358ZM98.4755 51.5458C98.4755 77.4058 77.5055 98.3758 51.6455 98.3758C25.7855 98.3758 4.81549 77.4058 4.81549 51.5458C4.81549 25.6858 25.7855 4.71582 51.6455 4.71582C77.5055 4.71582 98.4755 25.6758 98.4755 51.5458Z" fill="url(#paint1_linear_150_131876)"/>
<path opacity="0.15" d="M90.1426 47.2632C90.1426 46.552 89.5632 45.9726 88.852 45.9726C88.3867 45.9726 85.4893 45.7179 83.9353 44.5063C83.9353 44.5063 83.944 44.4888 83.9353 44.5063C83.347 42.364 82.4866 40.3622 81.4242 38.4658C81.152 36.6659 83.0134 35.3577 83.865 33.9529C84.0143 33.7071 84.1021 33.5666 84.1548 33.47C84.3128 33.0135 84.225 32.4867 83.865 32.1267C83.865 32.1267 82.4339 30.081 80.9677 28.6235C79.5014 27.1661 77.2801 25.5418 77.2801 25.5418C76.7797 25.0414 75.9544 25.0414 75.4539 25.5418C75.1203 25.8667 72.9165 27.6841 70.9323 27.9738C70.9059 27.9738 70.9059 27.9738 70.9059 27.9738C69.0622 26.929 66.9901 26.0686 64.9093 25.4804H64.883C63.4167 24.4004 63.803 22.1616 63.4167 20.5636C63.4167 19.8525 62.8372 19.273 62.1261 19.273C62.1261 19.273 59.6677 18.8428 57.5957 18.8428C55.5236 18.8428 52.8106 19.273 52.8106 19.273C52.0995 19.273 51.52 19.8525 51.52 20.5636C51.52 21.029 51.2654 23.9263 50.0538 25.4804C47.9993 26.0598 45.8394 26.9729 44.0132 27.9914C42.2133 28.2636 40.9051 26.4022 39.5004 25.5506C39.2545 25.4013 39.114 25.3135 39.0175 25.2609C38.5609 25.1028 38.0341 25.1906 37.6741 25.5506C37.6741 25.5506 35.6284 26.9817 34.171 28.4479C32.7135 29.9142 31.0892 32.1355 31.0892 32.1355C30.5888 32.6359 30.5888 33.4613 31.0892 33.9617C31.4141 34.2866 33.2842 36.5254 33.53 38.4746V38.4921C32.5116 40.3183 31.616 42.4694 31.0366 44.5239C31.0366 44.5239 31.0629 44.4888 31.0366 44.5239C29.781 46.0516 27.7178 45.6038 26.1198 45.9901C25.4087 45.9901 24.8292 46.5696 24.8292 47.2808C24.8292 47.2808 24.399 49.7391 24.399 51.8112C24.399 53.8832 24.8292 56.5962 24.8292 56.5962C24.8292 57.3074 25.4087 57.8868 26.1198 57.8868C26.5852 57.8868 29.4825 58.1415 31.0366 59.3531C31.0717 59.3355 31.0541 59.3794 31.0541 59.3794C31.6512 61.4427 32.5028 63.506 33.5388 65.3322C33.5213 65.3585 33.5388 65.3322 33.5476 65.3936C33.7232 67.2725 31.9585 68.5017 31.1068 69.9065C30.9575 70.1523 30.8697 70.2928 30.8171 70.3894C30.659 70.8459 30.7468 71.3727 31.1068 71.7327C31.1068 71.7327 32.5379 73.7784 34.0042 75.2359C35.4704 76.7021 37.6917 78.3176 37.6917 78.3176C38.1922 78.818 39.0175 78.818 39.5179 78.3176C39.8428 77.9927 42.0816 76.1226 44.0308 75.8768C44.0308 75.8768 44.022 75.8856 44.0571 75.8944C45.936 76.9392 47.8764 77.7645 50.0011 78.3439C50.0186 78.3527 50.0801 78.3703 50.0801 78.3703C51.5463 79.4502 51.16 81.6891 51.5463 83.287C51.6254 84.0069 52.0204 84.4635 52.837 84.5776C52.837 84.5776 55.2953 85.0078 57.3674 85.0078C59.4394 85.0078 62.1524 84.5864 62.1524 84.5864C62.8636 84.4635 63.4431 84.0069 63.4431 83.2958C63.4431 82.8304 63.6977 79.9331 64.9093 78.379C64.9093 78.379 64.962 78.3351 65.0146 78.2913C67.1745 77.6854 68.8163 77.0182 70.7216 75.9207C70.8181 75.8856 70.7128 75.8943 70.9411 75.8592C72.7409 75.5871 74.0491 77.4484 75.4539 78.3C75.6997 78.4493 75.8402 78.5371 75.9368 78.5898C76.3934 78.7478 76.9201 78.66 77.2801 78.3C77.2801 78.3 79.3258 76.8689 80.7833 75.4027C82.2495 73.9364 83.865 71.7151 83.865 71.7151C84.3655 71.2147 84.3655 70.3894 83.865 69.8889C83.5402 69.5641 81.6701 67.3252 81.4242 65.3761C81.3979 65.1741 81.4154 65.1478 81.4418 65.0951C82.5305 63.1723 83.2153 61.7675 83.8123 59.5901C83.8123 59.5901 83.786 59.5199 83.9265 59.3355C85.0064 57.8693 87.2453 58.2556 88.8432 57.8693C89.5544 57.8693 90.1339 57.2898 90.1339 56.5786C90.1339 56.5786 90.5641 54.1203 90.5641 52.0482C90.5641 49.9762 90.1426 47.2632 90.1426 47.2632Z" fill="#1F1D20"/>
<path d="M90.143 46.4507C90.143 45.7395 89.5635 45.1601 88.8524 45.1601C88.387 45.1601 85.4897 44.9054 83.9356 43.6938C83.9356 43.6938 83.9444 43.6763 83.9356 43.6938C83.3474 41.5515 82.4869 39.5497 81.4246 37.6533C81.1524 35.8534 83.0137 34.5452 83.8654 33.1404C84.0147 32.8946 84.1024 32.7541 84.1551 32.6575C84.3132 32.201 84.2254 31.6742 83.8654 31.3142C83.8654 31.3142 82.4343 29.2685 80.968 27.811C79.5018 26.3536 77.2805 24.7293 77.2805 24.7293C76.78 24.2289 75.9547 24.2289 75.4543 24.7293C75.1206 25.0542 72.9169 26.8716 70.9326 27.1613C70.9063 27.1613 70.9063 27.1613 70.9063 27.1613C69.0625 26.1165 66.9905 25.2561 64.9097 24.6679H64.8833C63.4171 23.5879 63.8034 21.3491 63.4171 19.7511C63.4171 19.04 62.8376 18.4605 62.1264 18.4605C62.1264 18.4605 59.6681 18.0303 57.596 18.0303C55.524 18.0303 52.811 18.4605 52.811 18.4605C52.0998 18.4605 51.5204 19.04 51.5204 19.7511C51.5204 20.2165 51.2657 23.1138 50.0541 24.6679C47.9996 25.2473 45.8398 26.1604 44.0136 27.1789C42.2137 27.4511 40.9055 25.5897 39.5007 24.7381C39.2549 24.5888 39.1144 24.501 39.0178 24.4484C38.5613 24.2903 38.0345 24.3781 37.6745 24.7381C37.6745 24.7381 35.6288 26.1692 34.1713 27.6354C32.7139 29.1017 31.0896 31.323 31.0896 31.323C30.5892 31.8234 30.5892 32.6488 31.0896 33.1492C31.4145 33.4741 33.2846 35.7129 33.5304 37.6621V37.6796C32.5119 39.5058 31.6164 41.6569 31.0369 43.7114C31.0369 43.7114 31.0633 43.6763 31.0369 43.7114C29.7814 45.2391 27.7181 44.7913 26.1202 45.1776C25.409 45.1776 24.8296 45.7571 24.8296 46.4683C24.8296 46.4683 24.3994 48.9266 24.3994 50.9987C24.3994 53.0707 24.8296 55.7837 24.8296 55.7837C24.8296 56.4949 25.409 57.0743 26.1202 57.0743C26.5855 57.0743 29.4829 57.329 31.0369 58.5406C31.0721 58.523 31.0545 58.5669 31.0545 58.5669C31.6515 60.6302 32.5032 62.6935 33.5392 64.5197C33.5216 64.546 33.5392 64.5197 33.548 64.5811C33.7236 66.46 31.9588 67.6892 31.1072 69.094C30.9579 69.3398 30.8701 69.4803 30.8174 69.5769C30.6594 70.0334 30.7472 70.5602 31.1072 70.9202C31.1072 70.9202 32.5383 72.9659 34.0045 74.4234C35.4708 75.8896 37.6921 77.5051 37.6921 77.5051C38.1925 78.0055 39.0178 78.0055 39.5183 77.5051C39.8431 77.1802 42.082 75.3101 44.0311 75.0643C44.0311 75.0643 44.0224 75.0731 44.0575 75.0819C45.9364 76.1267 47.8767 76.952 50.0014 77.5314C50.019 77.5402 50.0805 77.5578 50.0805 77.5578C51.5467 78.6377 51.1604 80.8766 51.5467 82.4745C51.6257 83.1944 52.0208 83.651 52.8373 83.7651C52.8373 83.7651 55.2957 84.1953 57.3678 84.1953C59.4398 84.1953 62.1528 83.7739 62.1528 83.7739C62.8639 83.651 63.4434 83.1944 63.4434 82.4833C63.4434 82.0179 63.698 79.1206 64.9097 77.5665C64.9097 77.5665 64.9623 77.5226 65.015 77.4788C67.1749 76.8729 68.8167 76.2057 70.7219 75.1082C70.8185 75.0731 70.7131 75.0818 70.9414 75.0467C72.7413 74.7746 74.0495 76.6359 75.4543 77.4875C75.7001 77.6368 75.8406 77.7246 75.9372 77.7773C76.3937 77.9353 76.9205 77.8475 77.2805 77.4875C77.2805 77.4875 79.3262 76.0564 80.7837 74.5902C82.2499 73.1239 83.8654 70.9026 83.8654 70.9026C84.3658 70.4022 84.3658 69.5769 83.8654 69.0764C83.5405 68.7516 81.6704 66.5127 81.4246 64.5636C81.3982 64.3616 81.4158 64.3353 81.4421 64.2826C82.5309 62.3598 83.2157 60.955 83.8127 58.7776C83.8127 58.7776 83.7864 58.7074 83.9269 58.523C85.0068 57.0568 87.2456 57.4431 88.8436 57.0568C89.5547 57.0568 90.1342 56.4773 90.1342 55.7661C90.1342 55.7661 90.5644 53.3078 90.5644 51.2357C90.5644 49.1637 90.143 46.4507 90.143 46.4507Z" fill="#F2F1F0"/>
<path d="M53.1633 46.8779H44.5948C43.7853 46.8779 43.1291 47.5335 43.1291 48.3422V56.1392C43.1291 59.1115 45.5409 61.5209 48.5161 61.5209H48.5416C51.5168 61.5213 53.929 59.1122 53.9294 56.14C53.9294 56.1397 53.9294 56.1395 53.9294 56.1392V47.6432C53.9294 47.2206 53.5864 46.8779 53.1633 46.8779Z" fill="#5059C9"/>
<path d="M47.3718 45.3366C45.4545 45.3366 43.9003 43.7838 43.9003 41.8685C43.9003 39.9531 45.4545 38.4004 47.3718 38.4004C49.2891 38.4004 50.8433 39.9531 50.8433 41.8685C50.8433 43.7838 49.2891 45.3366 47.3718 45.3366Z" fill="#5059C9"/>
<path d="M58.1722 45.3363C55.4028 45.3363 53.1578 43.0935 53.1578 40.3268C53.1578 37.5602 55.4028 35.3174 58.1722 35.3174C60.9416 35.3174 63.1866 37.5602 63.1866 40.3268C63.1866 43.0935 60.9416 45.3363 58.1722 45.3363Z" fill="#7B83EB"/>
<path d="M51.4861 46.8779H65.6299C66.4298 46.8977 67.0625 47.5609 67.044 48.36V57.2529C67.1557 62.0483 63.358 66.0277 58.558 66.1451C53.758 66.0277 49.9604 62.0483 50.0721 57.2529V48.36C50.0535 47.5609 50.6863 46.8977 51.4861 46.8779Z" fill="#7B83EB"/>
<path opacity="0.1" d="M57.7867 46.8779V59.3399C57.7905 59.9114 58.1372 60.4248 58.6661 60.6424C58.8345 60.7135 59.0156 60.7502 59.1984 60.7503H66.3652C66.4655 60.4959 66.5581 60.2416 66.6352 59.9796C66.9053 59.0952 67.0431 58.1759 67.0441 57.2513V48.3576C67.0626 47.5598 66.4309 46.8977 65.6323 46.8779H57.7867Z" fill="black"/>
<path opacity="0.2" d="M58.5581 46.8779V60.1106C58.5582 60.2933 58.5949 60.4741 58.6661 60.6423C58.8839 61.1708 59.3978 61.5171 59.9699 61.5209H66.0026C66.1338 61.2666 66.2572 61.0123 66.3652 60.7502C66.4732 60.4882 66.5581 60.2416 66.6352 59.9796C66.9053 59.0953 67.0431 58.1759 67.0441 57.2513V48.3576C67.0626 47.5598 66.4309 46.8977 65.6323 46.8779H58.5581Z" fill="black"/>
<path opacity="0.2" d="M58.5581 46.8779V58.5692C58.564 59.3457 59.1926 59.9737 59.9699 59.9796H66.6352C66.9053 59.0953 67.0431 58.1759 67.0441 57.2513V48.3576C67.0626 47.5598 66.4309 46.8977 65.6323 46.8779H58.5581Z" fill="black"/>
<path opacity="0.2" d="M59.3296 46.8779V58.5692C59.3355 59.3457 59.9641 59.9737 60.7414 59.9796H66.6352C66.9053 59.0953 67.0431 58.1759 67.0441 57.2513V48.3576C67.0626 47.5598 66.4309 46.8977 65.6323 46.8779H59.3296Z" fill="black"/>
<path opacity="0.1" d="M57.7865 42.8928V45.3204C57.9176 45.3281 58.0411 45.3358 58.1722 45.3358C58.3034 45.3358 58.4268 45.3281 58.5579 45.3204C58.8183 45.3032 59.0766 45.2619 59.3294 45.1971C60.8916 44.8275 62.1822 43.733 62.8009 42.2531C62.9074 42.0046 62.99 41.7465 63.0478 41.4824H59.1983C58.4198 41.4854 57.7894 42.1151 57.7865 42.8928Z" fill="black"/>
<path opacity="0.2" d="M58.5578 43.6642V45.3212C58.8182 45.304 59.0765 45.2627 59.3293 45.1979C60.8914 44.8283 62.1821 43.7338 62.8008 42.2539H59.9696C59.1911 42.2569 58.5608 42.8866 58.5578 43.6642Z" fill="black"/>
<path opacity="0.2" d="M58.5578 43.6642V45.3212C58.8182 45.304 59.0765 45.2627 59.3293 45.1979C60.8914 44.8283 62.1821 43.7338 62.8008 42.2539H59.9696C59.1911 42.2569 58.5608 42.8866 58.5578 43.6642Z" fill="black"/>
<path opacity="0.2" d="M59.3293 43.6643V45.1979C60.8914 44.8283 62.1821 43.7338 62.8008 42.2539H60.741C59.9625 42.2569 59.3322 42.8866 59.3293 43.6643Z" fill="black"/>
<path d="M74.8873 42.2539H60.7435C59.9625 42.2539 59.3294 42.8864 59.3294 43.6666V57.7963C59.3294 58.5765 59.9625 59.2089 60.7435 59.2089H74.8873C75.6682 59.2089 76.3013 58.5765 76.3013 57.7963V43.6666C76.3013 42.8864 75.6682 42.2539 74.8873 42.2539Z" fill="url(#paint2_linear_150_131876)"/>
<path d="M64.0937 47.6317H66.9211V55.3231H68.7224V47.6317H71.5367V46.1396H64.0937V47.6317Z" fill="white"/>
<path opacity="0.15" d="M36.3678 64.572H13.0705C12.4176 64.572 11.8936 64.0394 11.8936 63.3951V41.8331C11.8936 41.1803 12.4176 40.6562 13.0705 40.6562H36.3678C37.0206 40.6562 37.5446 41.1803 37.5446 41.8331V63.3865C37.5446 64.0394 37.012 64.572 36.3678 64.572Z" fill="#1F1D20"/>
<path d="M36.3677 64.5636H13.0704C12.4176 64.5636 11.8936 64.0396 11.8936 63.3867V41.8419C11.8936 41.1891 12.4176 40.665 13.0704 40.665H36.3677C37.0206 40.665 37.5446 41.1891 37.5446 41.8419V63.3953C37.5446 64.0396 37.012 64.5636 36.3677 64.5636Z" fill="white"/>
<path d="M29.8218 47.6321C29.8218 47.0994 29.3923 46.6699 28.8597 46.6699H17.3056C16.773 46.6699 16.3434 47.0994 16.3434 47.6321C16.3434 48.1647 16.773 48.5942 17.3056 48.5942H28.8683C29.4009 48.5856 29.8218 48.1647 29.8218 47.6321Z" fill="url(#paint3_linear_150_131876)"/>
<path d="M33.0948 47.6321C33.0948 47.0994 32.6652 46.6699 32.1326 46.6699H28.9885C28.4559 46.6699 28.7996 47.0994 28.7996 47.6321C28.7996 48.1647 28.4645 48.5942 28.9885 48.5942H32.1412C32.6567 48.5856 33.0948 48.1647 33.0948 47.6321Z" fill="#9B9BA0"/>
<path d="M27.4336 47.6315C27.4336 48.6881 28.284 49.5472 29.3493 49.5472C30.4145 49.5472 31.2649 48.6967 31.2649 47.6315C31.2649 46.5749 30.3973 45.7158 29.3407 45.7158C28.2926 45.733 27.4336 46.5749 27.4336 47.6315Z" fill="#50E6FF"/>
<path d="M26.274 52.468C26.274 51.9354 25.8445 51.5059 25.3119 51.5059H17.3056C16.773 51.5059 16.3434 51.9354 16.3434 52.468C16.3434 53.0006 16.773 53.4301 17.3056 53.4301H25.329C25.8531 53.4215 26.274 53.0006 26.274 52.468Z" fill="url(#paint4_linear_150_131876)"/>
<path d="M33.0948 52.468C33.0948 51.9354 32.6653 51.5059 32.1327 51.5059H25.896C25.3634 51.5059 24.9339 51.9354 24.9339 52.468C24.9339 53.0006 25.3634 53.4301 25.896 53.4301H32.1413C32.6567 53.4215 33.0948 53.0006 33.0948 52.468Z" fill="#9B9BA0"/>
<path d="M23.2502 52.4674C23.2502 53.524 24.1006 54.3831 25.1658 54.3831C26.2311 54.3831 27.0815 53.5326 27.0815 52.4674C27.0815 51.4108 26.2311 50.5518 25.1658 50.5518C24.1006 50.5518 23.2502 51.4108 23.2502 52.4674Z" fill="#35AFE4"/>
<path d="M21.8156 57.5959C21.8156 57.0633 21.386 56.6338 20.8534 56.6338H17.3056C16.773 56.6424 16.3434 57.0633 16.3434 57.5959C16.3434 58.1285 16.773 58.558 17.3056 58.558H20.8534C21.386 58.5409 21.8156 58.1199 21.8156 57.5959Z" fill="url(#paint5_linear_150_131876)"/>
<path d="M33.0948 57.5959C33.0948 57.0633 32.6653 56.6338 32.1327 56.6338H21.7984C21.2658 56.6338 20.8362 57.0633 20.8362 57.5959C20.8362 58.1285 21.2658 58.558 21.7984 58.558H32.1327C32.6567 58.5409 33.0948 58.1199 33.0948 57.5959Z" fill="#9B9BA0"/>
<path d="M19.3071 57.5963C19.3071 58.653 20.1576 59.512 21.2228 59.512C22.2794 59.512 23.1385 58.6615 23.1385 57.5963C23.1385 56.5397 22.288 55.6807 21.2228 55.6807C20.1576 55.6807 19.3071 56.5397 19.3071 57.5963Z" fill="#2E76BC"/>
<defs>
<linearGradient id="paint0_linear_150_131876" x1="36.5879" y1="1.10733" x2="66.8242" y2="102.399" gradientUnits="userSpaceOnUse">
<stop stop-color="#A9B1FF"/>
<stop offset="1" stop-color="#7B83EB"/>
</linearGradient>
<linearGradient id="paint1_linear_150_131876" x1="51.6454" y1="4.71572" x2="51.6454" y2="98.3759" gradientUnits="userSpaceOnUse">
<stop stop-color="#5A62C3"/>
<stop offset="0.5" stop-color="#4D55BD"/>
<stop offset="1" stop-color="#3940AB"/>
</linearGradient>
<linearGradient id="paint2_linear_150_131876" x1="73.353" y1="41.1501" x2="62.2943" y2="60.3223" gradientUnits="userSpaceOnUse">
<stop stop-color="#5A62C3"/>
<stop offset="0.5" stop-color="#4D55BD"/>
<stop offset="1" stop-color="#3940AB"/>
</linearGradient>
<linearGradient id="paint3_linear_150_131876" x1="22.6967" y1="46.546" x2="30.5997" y2="68.8293" gradientUnits="userSpaceOnUse">
<stop stop-color="#15548F"/>
<stop offset="0.4179" stop-color="#243A5E"/>
<stop offset="0.9677" stop-color="#1A2C45"/>
</linearGradient>
<linearGradient id="paint4_linear_150_131876" x1="19.9824" y1="48.733" x2="26.2627" y2="66.4408" gradientUnits="userSpaceOnUse">
<stop stop-color="#15548F"/>
<stop offset="0.4179" stop-color="#243A5E"/>
<stop offset="0.9677" stop-color="#1A2C45"/>
</linearGradient>
<linearGradient id="paint5_linear_150_131876" x1="17.4567" y1="53.0123" x2="21.699" y2="64.9735" gradientUnits="userSpaceOnUse">
<stop stop-color="#15548F"/>
<stop offset="0.4179" stop-color="#243A5E"/>
<stop offset="0.9677" stop-color="#1A2C45"/>
</linearGradient>
</defs>
</svg>
