<svg width="103" height="103" viewBox="0 0 103 103" fill="none" xmlns="http://www.w3.org/2000/svg">
<path d="M51.374 98.6854C25.524 98.6854 4.56403 77.7354 4.56403 51.8754C4.56403 26.0154 25.524 5.06543 51.374 5.06543C77.224 5.06543 98.184 26.0254 98.184 51.8754C98.184 77.7254 77.224 98.6854 51.374 98.6854Z" fill="url(#paint0_linear_342_58334)"/>
<path fill-rule="evenodd" clip-rule="evenodd" d="M97.274 51.8754C97.274 77.2254 76.724 97.7753 51.374 97.7753C26.024 97.7753 5.47402 77.2254 5.47402 51.8754C5.47402 26.5254 26.024 5.97536 51.374 5.97536C76.724 5.97536 97.274 26.5254 97.274 51.8754ZM51.374 2.23535C78.794 2.23535 101.014 24.4554 101.014 51.8754C101.014 79.2954 78.784 101.515 51.374 101.515C23.954 101.515 1.73402 79.2854 1.73402 51.8754C1.73402 24.4554 23.954 2.23535 51.374 2.23535Z" fill="#F2F1F0"/>
<path fill-rule="evenodd" clip-rule="evenodd" d="M94.464 51.8749C94.464 75.6749 75.174 94.9649 51.374 94.9649C27.574 94.9649 8.28402 75.6749 8.28402 51.8749C8.28402 28.0749 27.574 8.78493 51.374 8.78493C75.174 8.78493 94.464 28.0749 94.464 51.8749ZM51.374 5.04492C77.234 5.04492 98.204 26.0149 98.204 51.8749C98.204 77.7349 77.234 98.7049 51.374 98.7049C25.514 98.7049 4.54402 77.7349 4.54402 51.8749C4.54402 26.0149 25.504 5.04492 51.374 5.04492Z" fill="url(#paint1_linear_342_58334)"/>
<path opacity="0.15" d="M83.7539 27.9287H44.4568C43.8875 27.9287 43.4204 28.3958 43.4204 28.9651V43.8256C43.4204 44.3949 43.8875 44.8621 44.4568 44.8621H83.7539C84.3232 44.8621 84.7903 44.3949 84.7903 43.8256V28.9651C84.7903 28.3958 84.3232 27.9287 83.7539 27.9287Z" fill="#1F1D20"/>
<path opacity="0.15" d="M83.7539 59.6953H44.4568C43.8875 59.6953 43.4204 60.1624 43.4204 60.7317V75.5922C43.4204 76.1615 43.8875 76.6287 44.4568 76.6287H83.7539C84.3232 76.6287 84.7903 76.1615 84.7903 75.5922V60.7317C84.7903 60.1478 84.3232 59.6953 83.7539 59.6953Z" fill="#1F1D20"/>
<path opacity="0.15" d="M83.7539 46.7461H44.4568C43.8875 46.7461 43.4204 47.2132 43.4204 47.7825V56.8039C43.4204 57.3732 43.8875 57.8404 44.4568 57.8404H83.7539C84.3232 57.8404 84.7903 57.3732 84.7903 56.8039V47.7825C84.7903 47.2132 84.3232 46.7461 83.7539 46.7461Z" fill="#1F1D20"/>
<path d="M83.7539 26.8984H44.4568C43.8875 26.8984 43.4204 27.3656 43.4204 27.9349V42.7953C43.4204 43.3647 43.8875 43.8318 44.4568 43.8318H83.7539C84.3232 43.8318 84.7903 43.3647 84.7903 42.7953V27.9349C84.7903 27.3656 84.3232 26.8984 83.7539 26.8984Z" fill="#282828"/>
<path d="M56.6308 31.2637H56.2659C56.0323 31.2637 55.8426 31.4534 55.8426 31.687V31.8476C55.8426 32.0811 56.0323 32.2709 56.2659 32.2709H56.6308C56.8644 32.2709 57.0542 32.0811 57.0542 31.8476V31.687C57.0542 31.4388 56.8644 31.2637 56.6308 31.2637Z" fill="#D5F9FD"/>
<path d="M57.0542 33.6865H55.8426V34.6938H57.0542V33.6865Z" fill="#ACF3FD"/>
<path d="M57.0542 35.9053H55.8426V36.9125H57.0542V35.9053Z" fill="#84ECFD"/>
<path d="M57.0542 38.3438H55.8426V39.351H57.0542V38.3438Z" fill="#50E6FF"/>
<path d="M63.521 35.9053H60.2803V36.9125H63.521V35.9053Z" fill="#84ECFD"/>
<path d="M76.0751 31.249H60.7913C60.5285 31.249 60.3242 31.4534 60.3242 31.7161C60.3242 31.9789 60.5285 32.1833 60.7913 32.1833H76.0897C76.3524 32.1833 76.5568 31.9789 76.5568 31.7161C76.5568 31.4534 76.3379 31.249 76.0751 31.249Z" fill="#D5F9FD"/>
<path d="M81.1843 35.9639H65.1268C64.864 35.9639 64.6596 36.1682 64.6596 36.431C64.6596 36.6938 64.864 36.8981 65.1268 36.8981H81.1843C81.447 36.8981 81.6514 36.6938 81.6514 36.431C81.6514 36.1828 81.447 35.9639 81.1843 35.9639Z" fill="#84ECFD"/>
<path d="M70.9803 38.416H60.9663C60.7035 38.416 60.4991 38.6204 60.4991 38.8831C60.4991 39.1459 60.7035 39.3503 60.9663 39.3503H70.9803C71.2431 39.3503 71.4474 39.1459 71.4474 38.8831C71.4474 38.635 71.2431 38.416 70.9803 38.416Z" fill="#50E6FF"/>
<path d="M83.7539 58.6191H44.4568C43.8875 58.6191 43.4204 59.0863 43.4204 59.6556V74.5161C43.4204 75.0854 43.8875 75.5525 44.4568 75.5525H83.7539C84.3232 75.5525 84.7903 75.0854 84.7903 74.5161V59.6556C84.7903 59.0717 84.3232 58.6191 83.7539 58.6191Z" fill="#282828"/>
<path d="M56.6308 62.9697H56.2659C56.0323 62.9697 55.8426 63.1595 55.8426 63.3931V63.5536C55.8426 63.7872 56.0323 63.977 56.2659 63.977H56.6308C56.8644 63.977 57.0542 63.7872 57.0542 63.5536V63.3931C57.0542 63.1595 56.8644 62.9697 56.6308 62.9697Z" fill="#0179CE"/>
<path d="M57.0542 65.3926H55.8426V66.3998H57.0542V65.3926Z" fill="#016CB8"/>
<path d="M57.0542 67.626H55.8426V68.6332H57.0542V67.626Z" fill="#01538D"/>
<path d="M57.0542 70.0498H55.8426V71.057H57.0542V70.0498Z" fill="#01416E"/>
<path d="M63.521 67.626H60.2803V68.6332H63.521V67.626Z" fill="#01538D"/>
<path d="M76.0751 62.9551H60.7913C60.5285 62.9551 60.3242 63.1594 60.3242 63.4222C60.3242 63.685 60.5285 63.8893 60.7913 63.8893H76.0897C76.3524 63.8893 76.5568 63.685 76.5568 63.4222C76.5568 63.174 76.3379 62.9551 76.0751 62.9551Z" fill="#0179CE"/>
<path d="M81.1843 67.6846H65.1268C64.864 67.6846 64.6596 67.8889 64.6596 68.1517C64.6596 68.4145 64.864 68.6188 65.1268 68.6188H81.1843C81.447 68.6188 81.6514 68.4145 81.6514 68.1517C81.6514 67.8889 81.447 67.6846 81.1843 67.6846Z" fill="#01538D"/>
<path d="M70.9803 70.1367H60.9663C60.7035 70.1367 60.4991 70.3411 60.4991 70.6038C60.4991 70.8666 60.7035 71.071 60.9663 71.071H70.9803C71.2431 71.071 71.4474 70.8666 71.4474 70.6038C71.4474 70.3411 71.2431 70.1367 70.9803 70.1367Z" fill="#01416E"/>
<path d="M83.7539 45.7148H44.4568C43.8875 45.7148 43.4204 46.182 43.4204 46.7513V55.7727C43.4204 56.342 43.8875 56.8091 44.4568 56.8091H83.7539C84.3232 56.8091 84.7903 56.342 84.7903 55.7727V46.7513C84.7903 46.182 84.3232 45.7148 83.7539 45.7148Z" fill="#282828"/>
<path d="M56.6308 50.0654H56.2659C56.0323 50.0654 55.8426 50.2552 55.8426 50.4888V50.6493C55.8426 50.8829 56.0323 51.0727 56.2659 51.0727H56.6308C56.8644 51.0727 57.0542 50.8829 57.0542 50.6493V50.4888C57.0542 50.2552 56.8644 50.0654 56.6308 50.0654Z" fill="#34C1F1"/>
<path d="M57.0542 52.4883H55.8426V53.4955H57.0542V52.4883Z" fill="#1497E2"/>
<path d="M76.0751 50.0508H60.7913C60.5285 50.0508 60.3242 50.2551 60.3242 50.5179C60.3242 50.7807 60.5285 50.985 60.7913 50.985H76.0897C76.3524 50.985 76.5568 50.7807 76.5568 50.5179C76.5568 50.2697 76.3379 50.0508 76.0751 50.0508Z" fill="#34C1F1"/>
<path opacity="0.15" d="M52.7008 72.0612C53.3097 72.0612 53.7926 71.5783 53.7926 70.9694V33.9941H15.7571V70.9799C15.7571 71.5888 16.24 72.0717 16.8489 72.0717L52.7008 72.0612Z" fill="#1F1D20"/>
<path d="M53.7821 34.3091V33.7212C53.7821 32.9863 53.1942 32.3984 52.4593 32.3984H17.0799C16.345 32.3984 15.7571 32.9863 15.7571 33.7212V34.3721V34.9705V69.8146C15.7571 70.5495 16.345 71.1374 17.0799 71.1374H52.4698C53.2047 71.1374 53.7926 70.5495 53.7926 69.8146V34.3826C53.7926 34.3511 53.7821 34.3406 53.7821 34.3091Z" fill="white"/>
<path d="M48.6438 41.4375H21.1258C20.5606 41.4375 20.1043 41.8733 20.1043 42.4045V61.3626C20.1043 61.8938 20.5606 62.3296 21.1258 62.3296H48.6438C49.209 62.3296 49.6652 61.8938 49.6652 61.3626V42.4113C49.6652 41.8733 49.2021 41.4375 48.6438 41.4375Z" fill="url(#paint2_linear_342_58334)"/>
<path d="M50.5641 43.8684L49.8286 43.1602L38.0547 55.4244C37.3465 56.1667 36.4068 56.5821 35.4057 56.5957C34.4388 56.6093 33.465 56.2279 32.7295 55.5129L20.6491 43.7186L19.9409 44.4472L28.7867 53.0887L19.2531 60.9947L19.9069 61.7778L29.5222 53.8037L32.0281 56.2484C32.9338 57.1336 34.1187 57.6171 35.3581 57.6171C35.3853 57.6171 35.4125 57.6171 35.433 57.6171C36.7064 57.5967 37.8981 57.0655 38.797 56.1326L41.0373 53.7969L49.0251 60.5044L49.6788 59.7213L41.7455 53.0546L50.5641 43.8684Z" fill="url(#paint3_linear_342_58334)"/>
<path d="M49.7265 39.708H20.0431C19.437 39.708 18.9399 40.2051 18.9399 40.8112V62.6567C18.9399 63.2627 19.437 63.7598 20.0431 63.7598H49.7265C50.3326 63.7598 50.8297 63.2627 50.8297 62.6567V40.8112C50.8229 40.2051 50.3326 39.708 49.7265 39.708ZM48.8685 60.8521C48.8685 61.356 48.4327 61.7714 47.9015 61.7714H21.8681C21.3369 61.7714 20.9011 61.356 20.9011 60.8521V42.9222C20.9011 42.4183 21.3369 42.0029 21.8681 42.0029H47.9015C48.4327 42.0029 48.8685 42.4115 48.8685 42.9222V60.8521V60.8521Z" fill="url(#paint4_linear_342_58334)"/>
<path opacity="0.15" d="M49.7265 63.7594H20.0431C19.437 63.7594 18.9399 63.2623 18.9399 62.6562V63.4802C18.9399 64.0795 19.437 64.5766 20.0431 64.5834H49.7265C50.3326 64.5834 50.8297 64.0863 50.8297 63.4802V62.6562C50.8229 63.2623 50.3326 63.7594 49.7265 63.7594Z" fill="#1F1D20"/>
<path opacity="0.15" d="M47.9015 61.7709H21.8681C21.3369 61.7709 20.9011 61.3555 20.9011 60.8516V61.158C20.9011 61.6619 21.3369 62.0773 21.8681 62.0773H47.9015C48.4327 62.0773 48.8685 61.6619 48.8685 61.158V60.8516C48.8685 61.3623 48.4327 61.7709 47.9015 61.7709Z" fill="#1F1D20"/>
<defs>
<linearGradient id="paint0_linear_342_58334" x1="49.6001" y1="-12.9141" x2="53.5821" y2="132.856" gradientUnits="userSpaceOnUse">
<stop stop-color="#00ABDE"/>
<stop offset="1" stop-color="#007ED8"/>
</linearGradient>
<linearGradient id="paint1_linear_342_58334" x1="2.80442" y1="-19.7477" x2="98.332" y2="121.134" gradientUnits="userSpaceOnUse">
<stop stop-color="#007ED8"/>
<stop offset="0.7065" stop-color="#002D4C"/>
</linearGradient>
<linearGradient id="paint2_linear_342_58334" x1="19.6091" y1="32.7455" x2="104.804" y2="139.51" gradientUnits="userSpaceOnUse">
<stop offset="0.0435" stop-color="white"/>
<stop offset="0.4857" stop-color="#4DC1EA"/>
<stop offset="0.8452" stop-color="#0078D4"/>
</linearGradient>
<linearGradient id="paint3_linear_342_58334" x1="34.9086" y1="43.1602" x2="34.9086" y2="61.7778" gradientUnits="userSpaceOnUse">
<stop stop-color="#008BF1"/>
<stop offset="0.22" stop-color="#0086EC"/>
<stop offset="0.49" stop-color="#0078DD"/>
<stop offset="0.79" stop-color="#0061C4"/>
<stop offset="1" stop-color="#004DAE"/>
</linearGradient>
<linearGradient id="paint4_linear_342_58334" x1="34.8848" y1="39.708" x2="34.8848" y2="63.7598" gradientUnits="userSpaceOnUse">
<stop stop-color="#008BF1"/>
<stop offset="0.22" stop-color="#0086EC"/>
<stop offset="0.49" stop-color="#0078DD"/>
<stop offset="0.79" stop-color="#0061C4"/>
<stop offset="1" stop-color="#004DAE"/>
</linearGradient>
</defs>
</svg>
