<svg width="103" height="103" viewBox="0 0 103 103" fill="none" xmlns="http://www.w3.org/2000/svg">
<path d="M51.1015 97.9534C25.2515 97.9534 4.2915 77.0034 4.2915 51.1434C4.2915 25.2834 25.2515 4.3334 51.1015 4.3334C76.9515 4.3334 97.9115 25.2934 97.9115 51.1434C97.9115 76.9934 76.9515 97.9534 51.1015 97.9534Z" fill="url(#paint0_linear_818_26319)"/>
<path fill-rule="evenodd" clip-rule="evenodd" d="M97.0017 51.1435C97.0017 76.4935 76.4517 97.0435 51.1017 97.0435C25.7517 97.0435 5.20167 76.4935 5.20167 51.1435C5.20167 25.7935 25.7517 5.24352 51.1017 5.24352C76.4517 5.24352 97.0017 25.7935 97.0017 51.1435ZM51.1017 1.50351C78.5217 1.50351 100.742 23.7235 100.742 51.1435C100.742 78.5635 78.5117 100.784 51.1017 100.784C23.6817 100.784 1.46167 78.5535 1.46167 51.1435C1.46167 23.7235 23.6817 1.50351 51.1017 1.50351Z" fill="#F2F1F0"/>
<path fill-rule="evenodd" clip-rule="evenodd" d="M94.1915 51.1434C94.1915 74.9434 74.9015 94.2334 51.1015 94.2334C27.3015 94.2334 8.01148 74.9434 8.01148 51.1434C8.01148 27.3434 27.3015 8.05341 51.1015 8.05341C74.9015 8.05341 94.1915 27.3434 94.1915 51.1434ZM51.1015 4.3134C76.9615 4.3134 97.9315 25.2834 97.9315 51.1434C97.9315 77.0034 76.9615 97.9734 51.1015 97.9734C25.2415 97.9734 4.27148 77.0034 4.27148 51.1434C4.27148 25.2834 25.2315 4.3134 51.1015 4.3134Z" fill="url(#paint1_linear_818_26319)"/>
<path opacity="0.2" d="M78.7017 25.2625H24.0117V75.8225C24.0117 77.3625 25.2617 78.6125 26.8017 78.6125H32.7617V85.7925C32.7617 86.3325 33.4117 86.6025 33.8017 86.2225L41.4717 78.6125H75.9117C77.4517 78.6125 78.7017 77.3625 78.7017 75.8225V25.2625Z" fill="#1F1D21"/>
<g filter="url(#filter0_d_818_26319)">
<path d="M78.7017 25.5672V24.7172C78.7017 23.6672 77.8517 22.8172 76.8017 22.8172H25.9117C24.8617 22.8172 24.0117 23.6672 24.0117 24.7172V25.6572V26.5172V75.2172C24.0117 76.2672 24.8617 77.1172 25.9117 77.1172H32.7617V84.2972C32.7617 84.8372 33.4117 85.1072 33.8017 84.7272L41.4717 77.1172H76.8117C77.8617 77.1172 78.7117 76.2672 78.7117 75.2172V25.6572C78.7117 25.6272 78.7017 25.5972 78.7017 25.5672Z" fill="white"/>
</g>
<g opacity="0.15">
<path d="M58.7748 34.0405L51.8205 27.0789V32.2198C51.4119 32.1943 51.0032 32.1797 50.5909 32.1797C46.9448 32.1809 43.3807 33.2624 40.3486 35.2876C37.3166 37.3128 34.9526 40.191 33.5551 43.5587C32.1576 46.9265 31.7892 50.6328 32.4964 54.2097C33.2037 57.7866 34.9549 61.0738 37.5289 63.6563L41.006 60.1791C39.1178 58.2852 37.8333 55.8741 37.3147 53.2505C36.7961 50.6269 37.0667 47.9084 38.0924 45.4385C39.118 42.9686 40.8527 40.8581 43.0773 39.3736C45.3019 37.8891 47.9165 37.0972 50.5909 37.098C51.0032 37.098 51.4119 37.1163 51.8205 37.1564V40.9911L58.7748 34.0405Z" fill="#1F1D20"/>
<path d="M50.6293 42.1586L42.3621 50.3064L46.9443 50.3064V64.5368H54.224L54.224 50.3064H58.9025L50.6293 42.1586Z" fill="#1F1D20"/>
<path d="M63.6092 37.5739L60.1321 41.0511V41.0693C62.0245 42.9616 63.3131 45.3726 63.835 47.9974C64.357 50.6221 64.0888 53.3427 63.0643 55.815C62.0398 58.2873 60.3051 60.4003 58.0797 61.8866C55.8542 63.3729 53.2379 64.1658 50.5618 64.165V59.8597L43.6002 66.8212L50.591 73.7828V69.0943C54.2409 69.0896 57.8075 68.0029 60.8399 65.9716C63.8723 63.9404 66.2345 61.0557 67.6278 57.6822C69.0211 54.3087 69.3829 50.5978 68.6677 47.0187C67.9524 43.4396 66.1921 40.1528 63.6092 37.5739Z" fill="#1F1D20"/>
</g>
<path d="M58.7748 32.8647L51.8205 25.9032V31.0441C51.4119 31.0185 51.0032 31.0039 50.5909 31.0039C46.9448 31.0051 43.3807 32.0866 40.3486 34.1118C37.3166 36.1371 34.9526 39.0152 33.5551 42.383C32.1576 45.7507 31.7892 49.457 32.4964 53.0339C33.2037 56.6108 34.9549 59.898 37.5289 62.4805L41.006 59.0034C39.1178 57.1094 37.8333 54.6983 37.3147 52.0747C36.7961 49.4511 37.0667 46.7326 38.0924 44.2627C39.118 41.7928 40.8527 39.6823 43.0773 38.1978C45.3019 36.7133 47.9165 35.9215 50.5909 35.9223C51.0032 35.9223 51.4119 35.9405 51.8205 35.9806V39.8153L58.7748 32.8647Z" fill="url(#paint2_linear_818_26319)"/>
<path d="M50.6292 40.9829L42.3621 49.1306L46.9442 49.1306L46.9442 63.361L54.2239 63.361L54.2239 49.1306L58.9024 49.1306L50.6292 40.9829Z" fill="#002D4C"/>
<path d="M63.6093 36.3982L60.1322 39.8753V39.8935C62.0246 41.7858 63.3132 44.1968 63.8351 46.8216C64.3571 49.4464 64.0889 52.167 63.0644 54.6393C62.0399 57.1116 60.3052 59.2245 58.0798 60.7108C55.8543 62.1971 53.2381 62.99 50.5619 62.9892V58.6839L43.6003 65.6454L50.5911 72.607V67.9185C54.241 67.9138 57.8076 66.8272 60.84 64.7959C63.8724 62.7646 66.2346 59.8799 67.6279 56.5064C69.0212 53.1329 69.383 49.422 68.6678 45.8429C67.9525 42.2638 66.1922 38.977 63.6093 36.3982V36.3982Z" fill="url(#paint3_linear_818_26319)"/>
<path opacity="0.3" d="M65.8891 72.5667C70.0491 72.5667 73.4191 69.1967 73.4191 65.0367C73.4191 60.8767 70.0491 57.5067 65.8891 57.5067C61.7291 57.5067 58.3591 60.8767 58.3591 65.0367C58.3691 69.1967 61.7391 72.5667 65.8891 72.5667Z" fill="#1F1D20"/>
<path d="M65.8891 71.7542C70.0491 71.7542 73.4191 68.3842 73.4191 64.2242C73.4191 60.0642 70.0491 56.6942 65.8891 56.6942C61.7291 56.6942 58.3591 60.0642 58.3591 64.2242C58.3691 68.3842 61.7391 71.7542 65.8891 71.7542Z" fill="#002D4C"/>
<path opacity="0.3" d="M69.9892 60.9344L63.7892 67.1644L61.9292 65.2944L60.6892 66.5444L63.7892 69.6544L71.2392 62.1844L69.9892 60.9344Z" fill="#1F1D20"/>
<path d="M69.9892 60.4051L63.7892 66.6351L61.9292 64.7651L60.6892 66.0151L63.7892 69.1251L71.2392 61.6551L69.9892 60.4051Z" fill="#FAF9F8"/>
<defs>
<filter id="filter0_d_818_26319" x="20.0117" y="20.8172" width="62.7" height="70.0876" filterUnits="userSpaceOnUse" color-interpolation-filters="sRGB">
<feFlood flood-opacity="0" result="BackgroundImageFix"/>
<feColorMatrix in="SourceAlpha" type="matrix" values="0 0 0 0 0 0 0 0 0 0 0 0 0 0 0 0 0 0 127 0" result="hardAlpha"/>
<feOffset dy="2"/>
<feGaussianBlur stdDeviation="2"/>
<feComposite in2="hardAlpha" operator="out"/>
<feColorMatrix type="matrix" values="0 0 0 0 0 0 0 0 0 0 0 0 0 0 0 0 0 0 0.25 0"/>
<feBlend mode="normal" in2="BackgroundImageFix" result="effect1_dropShadow_818_26319"/>
<feBlend mode="normal" in="SourceGraphic" in2="effect1_dropShadow_818_26319" result="shape"/>
</filter>
<linearGradient id="paint0_linear_818_26319" x1="49.3276" y1="-13.6461" x2="53.3096" y2="132.124" gradientUnits="userSpaceOnUse">
<stop stop-color="#00ABDE"/>
<stop offset="1" stop-color="#007ED8"/>
</linearGradient>
<linearGradient id="paint1_linear_818_26319" x1="2.53188" y1="-20.4792" x2="98.0594" y2="120.402" gradientUnits="userSpaceOnUse">
<stop stop-color="#007ED8"/>
<stop offset="0.7065" stop-color="#002D4C"/>
</linearGradient>
<linearGradient id="paint2_linear_818_26319" x1="45.4604" y1="25.9032" x2="45.4604" y2="62.4805" gradientUnits="userSpaceOnUse">
<stop stop-color="#008BF1"/>
<stop offset="0.22" stop-color="#0086EC"/>
<stop offset="0.49" stop-color="#0078DD"/>
<stop offset="0.79" stop-color="#0061C4"/>
<stop offset="1" stop-color="#004DAE"/>
</linearGradient>
<linearGradient id="paint3_linear_818_26319" x1="56.313" y1="36.3982" x2="56.313" y2="72.607" gradientUnits="userSpaceOnUse">
<stop stop-color="#008BF1"/>
<stop offset="0.22" stop-color="#0086EC"/>
<stop offset="0.49" stop-color="#0078DD"/>
<stop offset="0.79" stop-color="#0061C4"/>
<stop offset="1" stop-color="#004DAE"/>
</linearGradient>
</defs>
</svg>
