<svg width="103" height="103" viewBox="0 0 103 103" fill="none" xmlns="http://www.w3.org/2000/svg">
<path d="M51.8456 98.6903C25.9956 98.6903 5.03561 77.7403 5.03561 51.8803C5.03561 26.0203 25.9956 5.07031 51.8456 5.07031C77.6956 5.07031 98.6556 26.0303 98.6556 51.8803C98.6556 77.7303 77.6956 98.6903 51.8456 98.6903Z" fill="url(#paint0_linear_148_120437)"/>
<path fill-rule="evenodd" clip-rule="evenodd" d="M51.8462 1.88086C79.4562 1.88086 101.846 24.2709 101.846 51.8809C101.846 79.4909 79.4562 101.881 51.8462 101.881C24.2362 101.881 1.84616 79.4909 1.84616 51.8809C1.84616 24.2709 24.2362 1.88086 51.8462 1.88086ZM51.8462 97.6409C77.1162 97.6409 97.6062 77.1509 97.6062 51.8809C97.6062 26.6109 77.1162 6.12086 51.8462 6.12086C26.5762 6.12086 6.08616 26.6109 6.08616 51.8809C6.08616 77.1509 26.5762 97.6409 51.8462 97.6409Z" fill="#D9D9D9"/>
<path fill-rule="evenodd" clip-rule="evenodd" d="M97.7455 51.8812C97.7455 77.2312 77.1955 97.7812 51.8455 97.7812C26.4955 97.7812 5.94554 77.2312 5.94554 51.8812C5.94554 26.5312 26.4955 5.98121 51.8455 5.98121C77.1955 5.98121 97.7455 26.5312 97.7455 51.8812ZM51.8455 2.24121C79.2655 2.24121 101.486 24.4612 101.486 51.8812C101.486 79.3012 79.2555 101.521 51.8455 101.521C24.4255 101.521 2.20554 79.2912 2.20554 51.8812C2.20554 24.4612 24.4255 2.24121 51.8455 2.24121Z" fill="#F2F1F0"/>
<path fill-rule="evenodd" clip-rule="evenodd" d="M51.8461 94.9708C28.0461 94.9708 8.75608 75.6808 8.75608 51.8808C8.75608 28.0808 28.0461 8.79078 51.8461 8.79078C75.6461 8.79078 94.9361 28.0808 94.9361 51.8808C94.9361 75.6808 75.6461 94.9708 51.8461 94.9708ZM98.6761 51.8808C98.6761 77.7408 77.7061 98.7108 51.8461 98.7108C25.9861 98.7108 5.01608 77.7408 5.01608 51.8808C5.01608 26.0208 25.9861 5.05078 51.8461 5.05078C77.7061 5.05078 98.6761 26.0108 98.6761 51.8808Z" fill="url(#paint1_linear_148_120437)"/>
<path d="M59.0322 28.3879C60.1663 28.3879 61.0942 27.46 61.0736 26.3259C61.0736 25.1918 60.1457 24.2639 59.0116 24.2845C57.8775 24.2845 56.9496 25.2124 56.9702 26.3465C56.9702 27.46 57.8981 28.3879 59.0322 28.3879Z" fill="#737373"/>
<path d="M71.899 18.5527H45.9593C44.1448 18.5527 42.6808 19.9961 42.6808 21.7694V83.0102C42.6808 84.3093 43.753 85.3609 45.0727 85.3609H72.4557C73.7754 85.3609 74.8476 84.3093 74.8476 83.0102V21.4601C74.827 19.8518 73.5074 18.5527 71.899 18.5527Z" fill="#E6E6E6"/>
<path d="M73.4248 18.5527H50.8667L74.8475 40.4922V19.9755C74.8269 19.1919 74.2083 18.5527 73.4248 18.5527Z" fill="url(#paint2_linear_148_120437)"/>
<path d="M73.4248 18.5527H44.6189C43.8354 18.5527 43.1962 19.1919 43.1962 19.9755V24.017H74.8269V19.9755C74.8269 19.1919 74.2083 18.5527 73.4248 18.5527Z" fill="#7B83EB"/>
<path d="M71.4661 16.8818H46.3099C43.5468 16.8818 41.2993 19.1294 41.2993 21.8924V81.9992C41.2993 84.7622 43.5468 87.0098 46.3099 87.0098H71.4661C74.2291 87.0098 76.4767 84.7622 76.4767 81.9992V21.8924C76.4767 19.1294 74.2291 16.8818 71.4661 16.8818ZM74.3941 81.7105C74.3941 83.4219 72.9919 84.8241 71.2805 84.8241H46.4955C44.784 84.8241 43.3819 83.4219 43.3819 81.7105V22.1811C43.3819 20.4697 44.784 19.0675 46.4955 19.0675H71.2599C72.9713 19.0675 74.3734 20.4697 74.3734 22.1811V81.7105H74.3941Z" fill="#3B42AD"/>
<path d="M50.4337 18.9648V19.4185C50.4337 20.5319 51.3409 21.4392 52.4544 21.4392H65.5686C66.6821 21.4392 67.5893 20.5319 67.5893 19.4185V18.9648H50.4337Z" fill="#3B42AD"/>
<path d="M62.7236 20.4699C63.0329 20.4699 63.2803 20.2225 63.2803 19.9132C63.2803 19.6039 63.0329 19.3564 62.7236 19.3564C62.4143 19.3564 62.1669 19.6039 62.1669 19.9132C62.1875 20.2431 62.4349 20.4699 62.7236 20.4699Z" fill="#737373"/>
<path d="M57.2178 20.3873H60.7025C60.9293 20.3873 61.1149 20.2017 61.1149 19.9749C61.1149 19.7481 60.9293 19.5625 60.7025 19.5625H57.2178C56.9909 19.5625 56.8054 19.7481 56.8054 19.9749C56.8054 20.2223 56.9909 20.3873 57.2178 20.3873Z" fill="#737373"/>
<path d="M64.4965 84.0407H53.403C53.2175 84.0407 53.0731 83.8964 53.0731 83.7108C53.0731 83.5252 53.2175 83.3809 53.403 83.3809H64.4965C64.6821 83.3809 64.8264 83.5252 64.8264 83.7108C64.8264 83.8964 64.6821 84.0407 64.4965 84.0407Z" fill="#E6E6E6"/>
<path d="M47.6292 60.3151V57.5999C47.6292 56.8675 47.0419 56.2803 46.3096 56.2803C45.5772 56.2803 44.99 56.8744 44.99 57.5999V60.3151C44.99 61.0475 45.5772 61.6347 46.3096 61.6347C47.0419 61.6417 47.6292 61.0475 47.6292 60.3151Z" fill="url(#paint3_linear_148_120437)"/>
<path d="M52.9769 60.3146V54.9739C52.9769 54.2416 52.3896 53.6543 51.6573 53.6543C50.9249 53.6543 50.3377 54.2416 50.3377 54.9739V60.3146C50.3377 61.0469 50.9249 61.6342 51.6573 61.6342C52.3896 61.6342 52.9769 61.0469 52.9769 60.3146Z" fill="url(#paint4_linear_148_120437)"/>
<path d="M63.5887 60.3147V42.9524C63.5887 42.2201 63.0014 41.6328 62.2691 41.6328C61.5367 41.6328 60.9495 42.2201 60.9495 42.9524V60.3147C60.9495 61.0471 61.5367 61.6343 62.2691 61.6343C63.0014 61.6413 63.5887 61.0471 63.5887 60.3147Z" fill="#5661E3"/>
<path d="M58.2417 60.3145V49.6263C58.2417 48.8939 57.6544 48.3066 56.922 48.3066C56.1897 48.3066 55.6024 48.8939 55.6024 49.6263V60.3214C55.6024 61.0537 56.1897 61.641 56.922 61.641C57.6406 61.641 58.2417 61.0468 58.2417 60.3145Z" fill="#4852CB"/>
<path d="M68.9435 60.3149V37.6741C68.9435 36.9418 68.3563 36.3545 67.6239 36.3545H67.6032C66.8709 36.3545 66.2836 36.9418 66.2905 37.6741V60.3149C66.2905 61.0472 66.8778 61.6345 67.6101 61.6345H67.617C68.3563 61.6414 68.9435 61.0472 68.9435 60.3149Z" fill="#5B67F1"/>
<path opacity="0.15" d="M47.7717 70.2562C48.2664 70.2562 48.6653 69.8573 48.6653 69.3626V39.8809H17.5229V69.3664C17.5229 69.8612 17.9218 70.26 18.4165 70.26H47.7717V70.2562Z" fill="#1F1D20"/>
<path d="M48.6617 40.1458V39.6626C48.6617 39.0643 48.1784 38.5811 47.5801 38.5811H18.6047C18.0064 38.5811 17.5231 39.0643 17.5231 39.6626V40.1995V40.6905V68.4195C17.5231 69.0178 18.0064 69.501 18.6047 69.501H47.5878C48.1861 69.501 48.6694 69.0178 48.6694 68.4195V40.1995C48.6694 40.1804 48.6617 40.165 48.6617 40.1458Z" fill="white"/>
<path d="M28.8684 51.3887H22.684C22.0997 51.3887 21.626 51.8619 21.626 52.4456V58.0732C21.626 60.2185 23.3668 61.9575 25.5142 61.9575H25.5326C27.68 61.9578 29.421 60.219 29.4214 58.0737C29.4214 58.0736 29.4214 58.0734 29.4214 58.0732V51.941C29.4213 51.636 29.1738 51.3887 28.8684 51.3887Z" fill="#5059C9"/>
<path d="M24.6884 50.2758C23.3046 50.2758 22.1828 49.1551 22.1828 47.7727C22.1828 46.3902 23.3046 45.2695 24.6884 45.2695C26.0722 45.2695 27.194 46.3902 27.194 47.7727C27.194 49.1551 26.0722 50.2758 24.6884 50.2758Z" fill="#5059C9"/>
<path d="M32.4837 50.2763C30.4849 50.2763 28.8645 48.6575 28.8645 46.6606C28.8645 44.6637 30.4849 43.0449 32.4837 43.0449C34.4826 43.0449 36.103 44.6637 36.103 46.6606C36.103 48.6575 34.4826 50.2763 32.4837 50.2763Z" fill="#7B83EB"/>
<path d="M27.6579 51.3887H37.8664C38.4437 51.4029 38.9004 51.8816 38.887 52.4584V58.877C38.9677 62.3381 36.2266 65.2104 32.7621 65.2951C29.2976 65.2104 26.5566 62.3381 26.6372 58.877V52.4584C26.6239 51.8816 27.0805 51.4029 27.6579 51.3887Z" fill="#7B83EB"/>
<path opacity="0.1" d="M32.2054 51.3887V60.3833C32.2082 60.7958 32.4584 61.1664 32.8402 61.3234C32.9617 61.3748 33.0924 61.4012 33.2244 61.4013H38.3971C38.4695 61.2177 38.5363 61.0341 38.592 60.845C38.7869 60.2067 38.8864 59.5432 38.8871 58.8759V52.4567C38.9005 51.8808 38.4446 51.4029 37.8682 51.3887H32.2054Z" fill="black"/>
<path opacity="0.2" d="M32.7622 51.3887V60.9396C32.7622 61.0714 32.7888 61.202 32.8402 61.3234C32.9974 61.7048 33.3683 61.9548 33.7812 61.9575H38.1354C38.2301 61.774 38.3192 61.5904 38.3971 61.4013C38.4751 61.2122 38.5363 61.0341 38.592 60.845C38.7869 60.2068 38.8864 59.5432 38.8871 58.8759V52.4567C38.9005 51.8808 38.4446 51.4029 37.8682 51.3887H32.7622Z" fill="black"/>
<path opacity="0.2" d="M32.7622 51.3887V59.8271C32.7665 60.3875 33.2202 60.8408 33.7812 60.845H38.592C38.7869 60.2068 38.8864 59.5432 38.8871 58.8759V52.4567C38.9005 51.8808 38.4446 51.4029 37.8682 51.3887H32.7622Z" fill="black"/>
<path opacity="0.2" d="M33.3191 51.3887V59.8271C33.3233 60.3875 33.777 60.8408 34.338 60.845H38.592C38.7869 60.2068 38.8864 59.5432 38.8871 58.8759V52.4567C38.9005 51.8808 38.4446 51.4029 37.8682 51.3887H33.3191Z" fill="black"/>
<path opacity="0.1" d="M32.2053 48.5131V50.2653C32.3 50.2708 32.3891 50.2764 32.4837 50.2764C32.5784 50.2764 32.6675 50.2708 32.7621 50.2653C32.9501 50.2528 33.1365 50.223 33.3189 50.1763C34.4465 49.9095 35.378 49.1195 35.8246 48.0514C35.9014 47.872 35.9611 47.6857 36.0027 47.4951H33.2243C32.6624 47.4972 32.2074 47.9517 32.2053 48.5131Z" fill="black"/>
<path opacity="0.2" d="M32.762 49.0687V50.2647C32.95 50.2522 33.1364 50.2224 33.3189 50.1757C34.4464 49.9089 35.3779 49.1189 35.8245 48.0508H33.781C33.2191 48.0529 32.7642 48.5074 32.762 49.0687Z" fill="black"/>
<path opacity="0.2" d="M32.762 49.0687V50.2647C32.95 50.2522 33.1364 50.2224 33.3189 50.1757C34.4464 49.9089 35.3779 49.1189 35.8245 48.0508H33.781C33.2191 48.0529 32.7642 48.5074 32.762 49.0687Z" fill="black"/>
<path opacity="0.2" d="M33.3189 49.0687V50.1757C34.4464 49.9089 35.3779 49.1189 35.8245 48.0508H34.3378C33.7759 48.0529 33.321 48.5074 33.3189 49.0687Z" fill="black"/>
<path d="M44.5481 48.0508H34.3396C33.7759 48.0508 33.3189 48.5073 33.3189 49.0704V59.2688C33.3189 59.8319 33.7759 60.2884 34.3396 60.2884H44.5481C45.1118 60.2884 45.5687 59.8319 45.5687 59.2688V49.0704C45.5687 48.5073 45.1118 48.0508 44.5481 48.0508Z" fill="url(#paint5_linear_148_120437)"/>
<path d="M36.7577 51.9334H38.7984V57.4848H40.0986V51.9334H42.1298V50.8564H36.7577V51.9334Z" fill="white"/>
<defs>
<linearGradient id="paint0_linear_148_120437" x1="36.7885" y1="1.44131" x2="67.0248" y2="102.733" gradientUnits="userSpaceOnUse">
<stop stop-color="#A9B1FF"/>
<stop offset="1" stop-color="#7B83EB"/>
</linearGradient>
<linearGradient id="paint1_linear_148_120437" x1="51.846" y1="5.05068" x2="51.846" y2="98.7109" gradientUnits="userSpaceOnUse">
<stop stop-color="#5A62C3"/>
<stop offset="0.5" stop-color="#4D55BD"/>
<stop offset="1" stop-color="#3940AB"/>
</linearGradient>
<linearGradient id="paint2_linear_148_120437" x1="62.8586" y1="40.4926" x2="62.8586" y2="18.5534" gradientUnits="userSpaceOnUse">
<stop offset="0.0994" stop-color="#E6E6E6"/>
<stop offset="0.9511" stop-color="white"/>
</linearGradient>
<linearGradient id="paint3_linear_148_120437" x1="45.4484" y1="55.9317" x2="49.4331" y2="59.3333" gradientUnits="userSpaceOnUse">
<stop stop-color="#4049B5"/>
<stop offset="0.5" stop-color="#363EA5"/>
<stop offset="1" stop-color="#3940AB"/>
</linearGradient>
<linearGradient id="paint4_linear_148_120437" x1="50.7962" y1="53.1348" x2="55.9828" y2="56.1058" gradientUnits="userSpaceOnUse">
<stop stop-color="#4049B5"/>
<stop offset="0.5" stop-color="#363EA5"/>
<stop offset="1" stop-color="#3940AB"/>
</linearGradient>
<linearGradient id="paint5_linear_148_120437" x1="43.4407" y1="47.2541" x2="35.4589" y2="61.092" gradientUnits="userSpaceOnUse">
<stop stop-color="#5A62C3"/>
<stop offset="0.5" stop-color="#4D55BD"/>
<stop offset="1" stop-color="#3940AB"/>
</linearGradient>
</defs>
</svg>
