<svg width="103" height="103" viewBox="0 0 103 103" fill="none" xmlns="http://www.w3.org/2000/svg">
<path d="M51.447 97.9423C25.597 97.9423 4.63696 76.9923 4.63696 51.1323C4.63696 25.2723 25.597 4.32227 51.447 4.32227C77.297 4.32227 98.257 25.2823 98.257 51.1323C98.257 76.9823 77.297 97.9423 51.447 97.9423Z" fill="url(#paint0_linear_660_28849)"/>
<path fill-rule="evenodd" clip-rule="evenodd" d="M97.3471 51.1324C97.3471 76.4824 76.7971 97.0324 51.4471 97.0324C26.0971 97.0324 5.54713 76.4824 5.54713 51.1324C5.54713 25.7824 26.0971 5.23244 51.4471 5.23244C76.7971 5.23244 97.3471 25.7824 97.3471 51.1324ZM51.4471 1.49243C78.8671 1.49243 101.087 23.7124 101.087 51.1324C101.087 78.5524 78.8571 100.772 51.4471 100.772C24.0271 100.772 1.80713 78.5424 1.80713 51.1324C1.80713 23.7124 24.0271 1.49243 51.4471 1.49243Z" fill="#F2F1F0"/>
<path fill-rule="evenodd" clip-rule="evenodd" d="M94.5369 51.1322C94.5369 74.9322 75.2469 94.2222 51.4469 94.2222C27.6469 94.2222 8.35694 74.9322 8.35694 51.1322C8.35694 27.3322 27.6469 8.04225 51.4469 8.04225C75.2469 8.04225 94.5369 27.3322 94.5369 51.1322ZM51.4469 4.30225C77.3069 4.30225 98.2769 25.2722 98.2769 51.1322C98.2769 76.9922 77.3069 97.9623 51.4469 97.9623C25.5869 97.9623 4.61694 76.9922 4.61694 51.1322C4.61694 25.2722 25.5769 4.30225 51.4469 4.30225Z" fill="url(#paint1_linear_660_28849)"/>
<g opacity="0.2">
<path d="M83.2516 75.2213H71.1527C70.4134 75.2213 69.8095 74.6174 69.8095 73.8781V66.4646C69.8095 65.7254 70.4134 65.1215 71.1527 65.1215H83.2621C84.0013 65.1111 84.6052 65.715 84.6052 66.4542V73.8677C84.5948 74.6174 83.9909 75.2213 83.2516 75.2213Z" fill="#1F1D21"/>
<path d="M83.2516 50.5441H71.1527C70.4134 50.5441 69.8095 49.9401 69.8095 49.2009V41.777C69.8095 41.0377 70.4134 40.4338 71.1527 40.4338H83.2621C84.0013 40.4338 84.6052 41.0377 84.6052 41.777V49.1905C84.5948 49.9401 83.9909 50.5441 83.2516 50.5441Z" fill="#1F1D21"/>
<path d="M83.2516 62.9034H71.1527C70.4134 62.9034 69.8095 62.2995 69.8095 61.5602V54.1468C69.8095 53.4075 70.4134 52.8036 71.1527 52.8036H83.2621C84.0013 52.7932 84.6052 53.3971 84.6052 54.1468V61.5602C84.5948 62.2995 83.9909 62.9034 83.2516 62.9034Z" fill="#1F1D21"/>
<path d="M83.2516 38.2267H71.1527C70.4134 38.2267 69.8095 37.6228 69.8095 36.8835V29.4596C69.8095 28.7204 70.4134 28.1165 71.1527 28.1165H83.2621C84.0013 28.1165 84.6052 28.7204 84.6052 29.4596V36.8731C84.5948 37.6228 83.9909 38.2267 83.2516 38.2267Z" fill="#1F1D21"/>
</g>
<path d="M59.8438 32.1541H76.6074V32.987H59.8438V32.1541Z" fill="white"/>
<path d="M59.8438 44.3259H76.6074V45.1589H59.8438V44.3259Z" fill="white"/>
<path d="M59.8438 56.5081H76.6074V57.341H59.8438V56.5081Z" fill="white"/>
<path d="M59.8438 68.6799H76.6074V69.5129H59.8438V68.6799Z" fill="white"/>
<path d="M83.2294 74.4693H71.1305C70.3912 74.4693 69.7873 73.8654 69.7873 73.1262V65.7127C69.7873 64.9734 70.3912 64.3695 71.1305 64.3695H83.2398C83.9791 64.3591 84.583 64.963 84.583 65.7023V73.1157C84.5726 73.8654 83.9687 74.4693 83.2294 74.4693Z" fill="#0078D4"/>
<path d="M83.2294 49.7921H71.1305C70.3912 49.7921 69.7873 49.1882 69.7873 48.4489V41.0251C69.7873 40.2858 70.3912 39.6819 71.1305 39.6819H83.2398C83.9791 39.6819 84.583 40.2858 84.583 41.0251V48.4385C84.5726 49.1882 83.9687 49.7921 83.2294 49.7921Z" fill="#50E6FF"/>
<path d="M83.2294 62.1514H71.1305C70.3912 62.1514 69.7873 61.5475 69.7873 60.8083V53.3948C69.7873 52.6556 70.3912 52.0516 71.1305 52.0516H83.2398C83.9791 52.0412 84.583 52.6451 84.583 53.3948V60.8083C84.5726 61.5475 83.9687 62.1514 83.2294 62.1514Z" fill="#3BCAF4"/>
<path d="M83.2294 37.4747H71.1305C70.3912 37.4747 69.7873 36.8708 69.7873 36.1315V28.7077C69.7873 27.9684 70.3912 27.3645 71.1305 27.3645H83.2398C83.9791 27.3645 84.583 27.9684 84.583 28.7077V36.1211C84.5726 36.8708 83.9687 37.4747 83.2294 37.4747Z" fill="#50E6FF"/>
<path opacity="0.2" d="M50.4623 75.6721H20.7148C19.382 75.6721 18.3096 74.5893 18.3096 73.2669V29.5879H65.5496V73.2669C65.5496 74.5997 64.4667 75.6721 63.1444 75.6721H58.0007H50.4623V75.6721Z" fill="#1F1D21"/>
<path d="M50.4623 74.4066H19.9339C19.028 74.4066 18.2887 73.6673 18.2887 72.7615V29.9466C18.2991 29.0408 19.028 28.3015 19.9339 28.3015H63.9044C64.8103 28.3015 65.5496 29.0408 65.5496 29.9466V72.7615C65.5496 73.6673 64.8103 74.4066 63.9044 74.4066H57.9903H50.4623Z" fill="white"/>
<path d="M18.3096 29.1346C18.3096 28.2288 19.0488 27.4895 19.9547 27.4895H63.9044C64.8103 27.4895 65.5496 28.2288 65.5496 29.1346V30.686H18.3096V29.1346V29.1346Z" fill="white"/>
<path opacity="0.15" d="M57.8568 48.0168V40.7767C57.8592 40.4936 57.8059 40.2127 57.6998 39.9502C57.5914 39.7079 57.4371 39.489 57.2452 39.3055C57.0524 39.1136 56.8253 38.9594 56.5758 38.851C56.3132 38.7449 56.0324 38.6915 55.7493 38.6939H48.5091C47.9626 38.6943 47.4378 38.9078 47.0463 39.289L43.575 42.7603L40.1615 39.3055C39.7669 38.9238 39.2394 38.7104 38.6904 38.7105H31.4503C31.1767 38.7076 30.9052 38.7587 30.6513 38.8608C30.3975 38.9629 30.1663 39.114 29.9708 39.3055C29.7787 39.4975 29.6265 39.7256 29.5229 39.9767C29.4194 40.2278 29.3665 40.4968 29.3675 40.7684V44.6282H26.5905C26.2244 44.6282 25.8733 44.7736 25.6145 45.0324C25.3556 45.2913 25.2102 45.6424 25.2102 46.0084V59.8688C25.2102 60.2348 25.3556 60.5859 25.6145 60.8448C25.8733 61.1036 26.2244 61.249 26.5905 61.249H29.3675V65.1088C29.3654 65.3817 29.4178 65.6524 29.5213 65.905C29.6249 66.1575 29.7777 66.387 29.9708 66.5799C30.3588 66.9687 30.8845 67.1885 31.4337 67.1915H38.6738C39.2229 67.1916 39.7504 66.9782 40.145 66.5965L43.608 63.1252L47.0793 66.5799C47.4709 66.9611 47.9957 67.1746 48.5422 67.175H55.7823C56.0655 67.1774 56.3463 67.124 56.6088 67.018C56.8453 66.911 57.0608 66.7626 57.2452 66.5799C57.4397 66.3892 57.5942 66.1616 57.6998 65.9105C57.8059 65.6479 57.8592 65.3671 57.8568 65.084V57.8686C57.8551 57.32 57.642 56.793 57.2617 56.3975L53.7905 52.951L57.2617 49.488C57.642 49.0924 57.8551 48.5655 57.8568 48.0168V48.0168Z" fill="#1F1D20"/>
<path d="M55.7669 36.9714H48.5237C47.9765 36.9702 47.4506 37.1831 47.0585 37.5647L29.956 54.6671C29.5744 55.0593 29.3615 55.5852 29.3628 56.1323V63.3755C29.3628 63.9246 29.5809 64.4512 29.9692 64.8395C30.3574 65.2277 30.884 65.4459 31.4331 65.4459H38.6763C39.2235 65.4471 39.7494 65.2342 40.1416 64.8526L57.244 47.7502C57.6256 47.358 57.8385 46.8321 57.8372 46.2849V39.0418C57.8372 38.7699 57.7837 38.5007 57.6796 38.2495C57.5756 37.9983 57.4231 37.7701 57.2308 37.5778C57.0386 37.3856 56.8104 37.2331 56.5592 37.129C56.308 37.025 56.0388 36.9714 55.7669 36.9714V36.9714Z" fill="#28A8EA"/>
<path d="M55.7667 65.4459H48.5236C47.9764 65.4472 47.4505 65.2343 47.0583 64.8527L43.5999 61.3765V54.9104C43.5999 54.4243 43.6956 53.943 43.8816 53.4938C44.0677 53.0447 44.3403 52.6367 44.684 52.2929C45.0278 51.9492 45.4358 51.6765 45.885 51.4905C46.3341 51.3045 46.8154 51.2087 47.3015 51.2087H53.7676L57.2438 54.6672C57.6254 55.0594 57.8383 55.5853 57.8371 56.1324V63.3756C57.8371 63.6475 57.7835 63.9167 57.6795 64.1679C57.5754 64.4191 57.4229 64.6473 57.2307 64.8396C57.0384 65.0318 56.8102 65.1843 56.559 65.2884C56.3078 65.3924 56.0386 65.4459 55.7667 65.4459Z" fill="#0078D4"/>
<path d="M31.4331 36.9714H38.6763C39.2235 36.9702 39.7494 37.1831 40.1416 37.5647L43.6 41.0409V47.507C43.6 48.4887 43.21 49.4303 42.5158 50.1245C41.8216 50.8187 40.8801 51.2086 39.8983 51.2086H33.4323L29.956 47.7502C29.5744 47.358 29.3615 46.8321 29.3628 46.2849V39.0418C29.3628 38.4927 29.5809 37.9661 29.9692 37.5778C30.3574 37.1896 30.884 36.9714 31.4331 36.9714V36.9714Z" fill="#50D9FF"/>
<path opacity="0.2" d="M42.4136 44.2855V59.9108C42.4223 59.9897 42.4223 60.0693 42.4136 60.1481C42.3583 60.4728 42.1884 60.7668 41.9348 60.9769C41.6812 61.187 41.3606 61.2991 41.0314 61.293H29.3628V42.9033H41.0314C41.3969 42.9033 41.7476 43.0481 42.0066 43.3061C42.2657 43.564 42.412 43.914 42.4136 44.2796V44.2855Z" fill="black"/>
<path opacity="0.1" d="M43.0068 44.2855V58.7244C43.0006 59.2464 42.7905 59.7453 42.4214 60.1144C42.0523 60.4835 41.5534 60.6936 41.0314 60.6998H29.3628V42.3101H41.0314C41.5548 42.3116 42.0563 42.5202 42.4265 42.8904C42.7966 43.2605 43.0052 43.762 43.0068 44.2855V44.2855Z" fill="black"/>
<path opacity="0.2" d="M42.4136 44.2855V58.7244C42.4136 59.09 42.2688 59.4406 42.0108 59.6997C41.7529 59.9587 41.4029 60.105 41.0373 60.1066H29.3628V42.9033H41.0314C41.3969 42.9033 41.7476 43.0481 42.0066 43.3061C42.2657 43.564 42.412 43.914 42.4136 44.2796V44.2855Z" fill="black"/>
<path opacity="0.1" d="M41.8203 44.2855V58.7244C41.8204 59.09 41.6755 59.4406 41.4176 59.6997C41.1597 59.9587 40.8096 60.105 40.4441 60.1066H29.3628V42.9033H40.4382C40.8037 42.9033 41.1544 43.0481 41.4134 43.3061C41.6725 43.564 41.8188 43.914 41.8203 44.2796V44.2855Z" fill="black"/>
<path d="M40.4381 42.9033H26.5924C25.829 42.9033 25.2102 43.5222 25.2102 44.2855V58.1312C25.2102 58.8946 25.829 59.5134 26.5924 59.5134H40.4381C41.2015 59.5134 41.8203 58.8946 41.8203 58.1312V44.2855C41.8203 43.5222 41.2015 42.9033 40.4381 42.9033Z" fill="#0078D4"/>
<path d="M36.238 48.1715H32.3287V50.4435H35.9711V51.8969H32.3287V54.2697H36.416V55.7172H30.5906V46.7122H36.238V48.1715Z" fill="white"/>
<defs>
<linearGradient id="paint0_linear_660_28849" x1="49.6731" y1="-13.6572" x2="53.6551" y2="132.113" gradientUnits="userSpaceOnUse">
<stop stop-color="#00ABDE"/>
<stop offset="1" stop-color="#007ED8"/>
</linearGradient>
<linearGradient id="paint1_linear_660_28849" x1="2.87734" y1="-20.4904" x2="98.4049" y2="120.391" gradientUnits="userSpaceOnUse">
<stop stop-color="#007ED8"/>
<stop offset="0.7065" stop-color="#002D4C"/>
</linearGradient>
</defs>
</svg>
