<svg width="103" height="103" viewBox="0 0 103 103" fill="none" xmlns="http://www.w3.org/2000/svg">
<path d="M51.1015 97.9221C25.2515 97.9221 4.2915 76.9721 4.2915 51.1121C4.2915 25.2521 25.2515 4.30206 51.1015 4.30206C76.9515 4.30206 97.9115 25.2621 97.9115 51.1121C97.9115 76.9621 76.9515 97.9221 51.1015 97.9221Z" fill="url(#paint0_linear_818_26342)"/>
<path fill-rule="evenodd" clip-rule="evenodd" d="M97.0017 51.1122C97.0017 76.4622 76.4517 97.0122 51.1017 97.0122C25.7517 97.0122 5.20167 76.4622 5.20167 51.1122C5.20167 25.7622 25.7517 5.21217 51.1017 5.21217C76.4517 5.21217 97.0017 25.7622 97.0017 51.1122ZM51.1017 1.47217C78.5217 1.47217 100.742 23.6922 100.742 51.1122C100.742 78.5322 78.5117 100.752 51.1017 100.752C23.6817 100.752 1.46167 78.5222 1.46167 51.1122C1.46167 23.6922 23.6817 1.47217 51.1017 1.47217Z" fill="#F2F1F0"/>
<path fill-rule="evenodd" clip-rule="evenodd" d="M94.1915 51.112C94.1915 74.912 74.9015 94.202 51.1015 94.202C27.3015 94.202 8.01148 74.912 8.01148 51.112C8.01148 27.312 27.3015 8.02205 51.1015 8.02205C74.9015 8.02205 94.1915 27.312 94.1915 51.112ZM51.1015 4.28204C76.9615 4.28204 97.9315 25.252 97.9315 51.112C97.9315 76.972 76.9615 97.9421 51.1015 97.9421C25.2415 97.9421 4.27148 76.972 4.27148 51.112C4.27148 25.252 25.2315 4.28204 51.1015 4.28204Z" fill="url(#paint1_linear_818_26342)"/>
<path opacity="0.2" d="M78.4415 25.4067H23.7515V75.9667C23.7515 77.5067 25.0015 78.7567 26.5415 78.7567H32.5015V85.9367C32.5015 86.4767 33.1515 86.7467 33.5415 86.3667L41.2115 78.7567H75.6515C77.1915 78.7567 78.4415 77.5067 78.4415 75.9667V25.4067Z" fill="#1F1D21"/>
<g filter="url(#filter0_d_818_26342)">
<path d="M78.4415 24.5867V23.7367C78.4415 22.6867 77.5915 21.8367 76.5415 21.8367H25.6515C24.6015 21.8367 23.7515 22.6867 23.7515 23.7367V24.6767V25.5367V74.2367C23.7515 75.2867 24.6015 76.1367 25.6515 76.1367H32.5015V83.3167C32.5015 83.8567 33.1515 84.1267 33.5415 83.7467L41.2115 76.1367H76.5515C77.6015 76.1367 78.4515 75.2867 78.4515 74.2367V24.6767C78.4515 24.6467 78.4415 24.6167 78.4415 24.5867Z" fill="url(#paint2_linear_818_26342)" shape-rendering="crispEdges"/>
</g>
<g opacity="0.15">
<path opacity="0.15" d="M37.9678 59.4574C37.9678 61.2216 39.4039 62.6578 41.1682 62.6578C42.9325 62.6578 44.3686 61.2216 44.3686 59.4574C44.3686 58.696 44.0901 58.0212 43.6567 57.4579L49.4014 46.538C48.6895 46.2718 48.0891 45.8818 47.5443 45.3557C46.4981 44.3528 45.8358 42.9352 45.8358 41.3691C45.8358 38.3296 48.3119 35.841 51.3638 35.841C54.4156 35.841 56.8918 38.3172 56.8918 41.3691C56.8918 41.8333 56.8175 42.2914 56.6999 42.7247L58.7861 43.5543C58.9841 42.8486 59.1513 42.1367 59.1513 41.3691C59.1513 37.0791 55.6537 33.5815 51.3638 33.5815C47.0738 33.5815 43.5763 37.0791 43.5763 41.3691C43.5763 43.7709 44.7029 45.8942 46.3991 47.3366L41.682 56.325C41.5087 56.2941 41.3415 56.2755 41.1496 56.2755C39.4101 56.2755 37.9678 57.6931 37.9678 59.4574Z" fill="#1F1D20"/>
<path opacity="0.15" d="M61.3179 62.6643C63.0822 62.6643 64.5184 61.2282 64.5184 59.4639C64.5184 57.6996 63.0822 56.2635 61.3179 56.2635C59.9622 56.2635 58.7923 57.1239 58.3342 58.3249H46.5662C46.6405 58.6901 46.69 59.0615 46.69 59.4515C46.69 59.8415 46.6405 60.2129 46.5662 60.5782C46.04 63.0915 43.8239 64.9795 41.1496 64.9795C38.1102 64.9795 35.6216 62.5034 35.6216 59.4515C35.6216 57.0992 37.1197 55.0749 39.212 54.2825L38.5559 52.1592C35.5473 53.224 33.3745 56.0839 33.3745 59.4515C33.3745 63.7415 36.8721 67.239 41.162 67.239C45.062 67.239 48.281 64.3295 48.8443 60.5782H58.3404C58.7923 61.8039 59.9499 62.6643 61.3179 62.6643Z" fill="#1F1D20"/>
<path opacity="0.15" d="M61.3241 51.669C60.5689 51.669 59.8755 51.8114 59.1884 52.0095C59.1698 52.0095 59.1698 52.0095 59.1574 52.0095V52.028V52.0095L53.9142 43.2996C54.3228 42.7672 54.5827 42.0986 54.5827 41.362C54.5827 39.5977 53.1466 38.1616 51.3823 38.1616C49.6181 38.1616 48.1819 39.5977 48.1819 41.362C48.1819 43.1263 49.6181 44.5624 51.3823 44.5624C51.5804 44.5624 51.7909 44.5439 51.9952 44.4943L58.2165 54.9189C58.8541 54.498 59.6527 54.139 60.4389 53.9966C60.736 53.9471 61.0269 53.9223 61.3241 53.9223C64.3636 53.9223 66.8521 56.3984 66.8521 59.4503C66.8521 62.4898 64.3759 64.9783 61.3241 64.9783C59.9312 64.9783 58.6746 64.4645 57.7027 63.6041L56.1118 65.195C57.486 66.464 59.3122 67.244 61.3241 67.244C65.614 67.244 69.1116 63.7464 69.1116 59.4565C69.1054 55.1666 65.6078 51.669 61.3241 51.669Z" fill="#1F1D20"/>
</g>
<path d="M37.9678 58.3273C37.9678 60.0916 39.4039 61.5277 41.1682 61.5277C42.9325 61.5277 44.3686 60.0916 44.3686 58.3273C44.3686 57.5659 44.0901 56.8911 43.6567 56.3278L49.4014 45.408C48.6895 45.1418 48.0891 44.7518 47.5443 44.2256C46.4981 43.2228 45.8358 41.8052 45.8358 40.239C45.8358 37.1995 48.3119 34.711 51.3638 34.711C54.4156 34.711 56.8918 37.1871 56.8918 40.239C56.8918 40.7033 56.8175 41.1614 56.6999 41.5947L58.7861 42.4242C58.9841 41.7185 59.1513 41.0066 59.1513 40.239C59.1513 35.949 55.6537 32.4515 51.3638 32.4515C47.0738 32.4515 43.5825 35.949 43.5825 40.2328C43.5825 42.6347 44.7091 44.758 46.4053 46.2003L41.6882 55.1888C41.5149 55.1578 41.3477 55.1393 41.1558 55.1393C39.4101 55.1393 37.9678 56.563 37.9678 58.3273Z" fill="#32B0E7"/>
<path d="M61.318 61.5279C63.0823 61.5279 64.5185 60.0917 64.5185 58.3275C64.5185 56.5632 63.0823 55.1271 61.318 55.1271C59.9623 55.1271 58.7923 55.9875 58.3343 57.1885H46.5663C46.6406 57.5537 46.6901 57.9251 46.6901 58.3151C46.6901 58.7051 46.6406 59.0765 46.5663 59.4418C46.0401 61.9551 43.824 63.8431 41.1497 63.8431C38.1102 63.8431 35.6217 61.367 35.6217 58.3151C35.6217 55.9628 37.1198 53.9385 39.2121 53.1461L38.556 51.0228C35.5412 52.1 33.3684 54.9599 33.3684 58.3213C33.3684 62.6112 36.866 66.1088 41.1559 66.1088C45.0559 66.1088 48.2749 63.1993 48.8382 59.4479H58.3343C58.7923 60.6675 59.9499 61.5279 61.318 61.5279Z" fill="#32B0E7"/>
<path d="M61.3241 50.5411C60.5689 50.5411 59.8755 50.6834 59.1884 50.8815C59.1698 50.8815 59.1698 50.8815 59.1574 50.8815V50.9001V50.8815L53.9142 42.1717C54.3228 41.6393 54.5827 40.9707 54.5827 40.2341C54.5827 38.4698 53.1466 37.0336 51.3823 37.0336C49.6181 37.0336 48.1819 38.4698 48.1819 40.2341C48.1819 41.9983 49.6181 43.4345 51.3823 43.4345C51.5804 43.4345 51.7909 43.4159 51.9952 43.3664L58.2165 53.791C58.8541 53.3701 59.6527 53.011 60.4389 52.8686C60.736 52.8191 61.0269 52.7944 61.3241 52.7944C64.3636 52.7944 66.8521 55.2705 66.8521 58.3224C66.8521 61.3619 64.3759 63.8504 61.3241 63.8504C59.9312 63.8504 58.6746 63.3366 57.7027 62.4761L56.1118 64.0671C57.486 65.3361 59.3122 66.1161 61.3241 66.1161C65.614 66.1161 69.1116 62.6185 69.1116 58.3286C69.1054 54.0386 65.6078 50.5411 61.3241 50.5411Z" fill="#32B0E7"/>
<path opacity="0.15" d="M51.24 48.5551C56.7922 48.5551 61.2932 44.0541 61.2932 38.5019C61.2932 32.9496 56.7922 28.4487 51.24 28.4487C45.6877 28.4487 41.1868 32.9496 41.1868 38.5019C41.1868 44.0541 45.6877 48.5551 51.24 48.5551Z" fill="#1F1D20"/>
<g filter="url(#filter1_d_818_26342)">
<path d="M51.24 47.7438C56.7922 47.7438 61.2932 43.2429 61.2932 37.6906C61.2932 32.1384 56.7922 27.6375 51.24 27.6375C45.6877 27.6375 41.1868 32.1384 41.1868 37.6906C41.1868 43.2429 45.6877 47.7438 51.24 47.7438Z" fill="white"/>
</g>
<path d="M56.3718 41.9564C56.0871 39.406 53.9019 37.4003 51.2524 37.4003C48.6277 37.4003 46.461 39.3688 46.1329 41.8945C46.0896 42.0616 46.0896 42.2659 46.0896 42.4331C46.1577 43.1511 46.6591 43.8507 47.6001 44.4016C49.6119 45.5592 52.899 45.5592 54.8861 44.4016C55.8271 43.8568 56.3099 43.1573 56.3718 42.4331C56.4152 42.2845 56.3966 42.1112 56.3718 41.9564Z" fill="url(#paint3_linear_818_26342)"/>
<path d="M51.2524 36.652C52.9672 36.652 54.3476 35.2716 54.3476 33.5692C54.3538 31.8607 52.961 30.4802 51.2524 30.4802C49.5439 30.4802 48.1572 31.8607 48.1572 33.563C48.1572 35.2654 49.5439 36.652 51.2524 36.652Z" fill="url(#paint4_linear_818_26342)"/>
<path opacity="0.15" d="M38.8716 69.9569C44.4238 69.9569 48.9247 65.4559 48.9247 59.9037C48.9247 54.3514 44.4238 49.8505 38.8716 49.8505C33.3193 49.8505 28.8184 54.3514 28.8184 59.9037C28.8184 65.4559 33.3193 69.9569 38.8716 69.9569Z" fill="#1F1D20"/>
<g filter="url(#filter2_d_818_26342)">
<path d="M38.8716 68.7196C44.4238 68.7196 48.9247 64.2186 48.9247 58.6664C48.9247 53.1142 44.4238 48.6132 38.8716 48.6132C33.3193 48.6132 28.8184 53.1142 28.8184 58.6664C28.8184 64.2186 33.3193 68.7196 38.8716 68.7196Z" fill="white"/>
</g>
<path d="M43.9971 62.9306C43.7123 60.3802 41.5271 58.3745 38.8776 58.3745C36.2529 58.3745 34.0863 60.3431 33.7582 62.8687C33.7148 63.0359 33.7148 63.2402 33.7148 63.4073C33.7829 64.1254 34.2844 64.8249 35.2253 65.3758C37.2372 66.5334 40.5243 66.5334 42.5114 65.3758C43.4523 64.8311 43.9352 64.1316 43.9971 63.4073C44.0466 63.2649 44.0218 63.0854 43.9971 62.9306Z" fill="url(#paint5_linear_818_26342)"/>
<path d="M38.8777 57.6263C40.5924 57.6263 41.9729 56.2458 41.9729 54.5435C41.9791 52.8349 40.5862 51.4545 38.8777 51.4545C37.1691 51.4545 35.7825 52.8349 35.7825 54.5373C35.7825 56.2396 37.1753 57.6263 38.8777 57.6263Z" fill="url(#paint6_linear_818_26342)"/>
<path opacity="0.15" d="M63.6145 69.7483C69.1667 69.7483 73.6677 65.2473 73.6677 59.6951C73.6677 54.1429 69.1667 49.6419 63.6145 49.6419C58.0622 49.6419 53.5613 54.1429 53.5613 59.6951C53.5613 65.2473 58.0622 69.7483 63.6145 69.7483Z" fill="#1F1D20"/>
<g filter="url(#filter3_d_818_26342)">
<path d="M63.6145 68.7197C69.1667 68.7197 73.6677 64.2188 73.6677 58.6665C73.6677 53.1143 69.1667 48.6133 63.6145 48.6133C58.0622 48.6133 53.5613 53.1143 53.5613 58.6665C53.5613 64.2188 58.0622 68.7197 63.6145 68.7197Z" fill="white"/>
</g>
<path d="M68.74 62.9308C68.4552 60.3803 66.27 58.3746 63.6205 58.3746C60.9958 58.3746 58.8292 60.3432 58.5011 62.8689C58.4578 63.036 58.4578 63.2403 58.4578 63.4074C58.5259 64.1255 59.0273 64.825 59.9682 65.376C61.9801 66.5336 65.2672 66.5336 67.2543 65.376C68.1952 64.8312 68.6781 64.1317 68.74 63.4074C68.7895 63.265 68.7648 63.0855 68.74 62.9308Z" fill="url(#paint7_linear_818_26342)"/>
<path d="M63.6206 57.6264C65.3353 57.6264 66.7158 56.246 66.7158 54.5436C66.722 52.835 65.3291 51.4546 63.6206 51.4546C61.912 51.4546 60.5254 52.835 60.5254 54.5374C60.5254 56.2398 61.912 57.6264 63.6206 57.6264Z" fill="url(#paint8_linear_818_26342)"/>
<defs>
<filter id="filter0_d_818_26342" x="19.7515" y="19.8367" width="62.7" height="70.0876" filterUnits="userSpaceOnUse" color-interpolation-filters="sRGB">
<feFlood flood-opacity="0" result="BackgroundImageFix"/>
<feColorMatrix in="SourceAlpha" type="matrix" values="0 0 0 0 0 0 0 0 0 0 0 0 0 0 0 0 0 0 127 0" result="hardAlpha"/>
<feOffset dy="2"/>
<feGaussianBlur stdDeviation="2"/>
<feComposite in2="hardAlpha" operator="out"/>
<feColorMatrix type="matrix" values="0 0 0 0 0 0 0 0 0 0 0 0 0 0 0 0 0 0 0.25 0"/>
<feBlend mode="normal" in2="BackgroundImageFix" result="effect1_dropShadow_818_26342"/>
<feBlend mode="normal" in="SourceGraphic" in2="effect1_dropShadow_818_26342" result="shape"/>
</filter>
<filter id="filter1_d_818_26342" x="37.1868" y="24.6375" width="28.1064" height="28.1064" filterUnits="userSpaceOnUse" color-interpolation-filters="sRGB">
<feFlood flood-opacity="0" result="BackgroundImageFix"/>
<feColorMatrix in="SourceAlpha" type="matrix" values="0 0 0 0 0 0 0 0 0 0 0 0 0 0 0 0 0 0 127 0" result="hardAlpha"/>
<feOffset dy="1"/>
<feGaussianBlur stdDeviation="2"/>
<feComposite in2="hardAlpha" operator="out"/>
<feColorMatrix type="matrix" values="0 0 0 0 0 0 0 0 0 0 0 0 0 0 0 0 0 0 0.25 0"/>
<feBlend mode="normal" in2="BackgroundImageFix" result="effect1_dropShadow_818_26342"/>
<feBlend mode="normal" in="SourceGraphic" in2="effect1_dropShadow_818_26342" result="shape"/>
</filter>
<filter id="filter2_d_818_26342" x="24.8184" y="45.6132" width="28.1064" height="28.1064" filterUnits="userSpaceOnUse" color-interpolation-filters="sRGB">
<feFlood flood-opacity="0" result="BackgroundImageFix"/>
<feColorMatrix in="SourceAlpha" type="matrix" values="0 0 0 0 0 0 0 0 0 0 0 0 0 0 0 0 0 0 127 0" result="hardAlpha"/>
<feOffset dy="1"/>
<feGaussianBlur stdDeviation="2"/>
<feComposite in2="hardAlpha" operator="out"/>
<feColorMatrix type="matrix" values="0 0 0 0 0 0 0 0 0 0 0 0 0 0 0 0 0 0 0.25 0"/>
<feBlend mode="normal" in2="BackgroundImageFix" result="effect1_dropShadow_818_26342"/>
<feBlend mode="normal" in="SourceGraphic" in2="effect1_dropShadow_818_26342" result="shape"/>
</filter>
<filter id="filter3_d_818_26342" x="49.5613" y="45.6133" width="28.1064" height="28.1064" filterUnits="userSpaceOnUse" color-interpolation-filters="sRGB">
<feFlood flood-opacity="0" result="BackgroundImageFix"/>
<feColorMatrix in="SourceAlpha" type="matrix" values="0 0 0 0 0 0 0 0 0 0 0 0 0 0 0 0 0 0 127 0" result="hardAlpha"/>
<feOffset dy="1"/>
<feGaussianBlur stdDeviation="2"/>
<feComposite in2="hardAlpha" operator="out"/>
<feColorMatrix type="matrix" values="0 0 0 0 0 0 0 0 0 0 0 0 0 0 0 0 0 0 0.25 0"/>
<feBlend mode="normal" in2="BackgroundImageFix" result="effect1_dropShadow_818_26342"/>
<feBlend mode="normal" in="SourceGraphic" in2="effect1_dropShadow_818_26342" result="shape"/>
</filter>
<linearGradient id="paint0_linear_818_26342" x1="49.3276" y1="-13.6774" x2="53.3096" y2="132.093" gradientUnits="userSpaceOnUse">
<stop stop-color="#00ABDE"/>
<stop offset="1" stop-color="#007ED8"/>
</linearGradient>
<linearGradient id="paint1_linear_818_26342" x1="2.53188" y1="-20.5106" x2="98.0594" y2="120.371" gradientUnits="userSpaceOnUse">
<stop stop-color="#007ED8"/>
<stop offset="0.7065" stop-color="#002D4C"/>
</linearGradient>
<linearGradient id="paint2_linear_818_26342" x1="44.8245" y1="1.09881" x2="85.0898" y2="124.183" gradientUnits="userSpaceOnUse">
<stop offset="0.104167" stop-color="#F2F1F0"/>
<stop offset="1" stop-color="#F2F1F0" stop-opacity="0"/>
</linearGradient>
<linearGradient id="paint3_linear_818_26342" x1="51.2437" y1="37.4003" x2="51.2437" y2="45.2698" gradientUnits="userSpaceOnUse">
<stop stop-color="#008BF1"/>
<stop offset="0.22" stop-color="#0086EC"/>
<stop offset="0.49" stop-color="#0078DD"/>
<stop offset="0.79" stop-color="#0061C4"/>
<stop offset="1" stop-color="#004DAE"/>
</linearGradient>
<linearGradient id="paint4_linear_818_26342" x1="51.2524" y1="30.4802" x2="51.2524" y2="36.652" gradientUnits="userSpaceOnUse">
<stop stop-color="#008BF1"/>
<stop offset="0.22" stop-color="#0086EC"/>
<stop offset="0.49" stop-color="#0078DD"/>
<stop offset="0.79" stop-color="#0061C4"/>
<stop offset="1" stop-color="#004DAE"/>
</linearGradient>
<linearGradient id="paint5_linear_818_26342" x1="38.8703" y1="58.3745" x2="38.8703" y2="66.244" gradientUnits="userSpaceOnUse">
<stop stop-color="#008BF1"/>
<stop offset="0.22" stop-color="#0086EC"/>
<stop offset="0.49" stop-color="#0078DD"/>
<stop offset="0.79" stop-color="#0061C4"/>
<stop offset="1" stop-color="#004DAE"/>
</linearGradient>
<linearGradient id="paint6_linear_818_26342" x1="38.8777" y1="51.4545" x2="38.8777" y2="57.6263" gradientUnits="userSpaceOnUse">
<stop stop-color="#008BF1"/>
<stop offset="0.22" stop-color="#0086EC"/>
<stop offset="0.49" stop-color="#0078DD"/>
<stop offset="0.79" stop-color="#0061C4"/>
<stop offset="1" stop-color="#004DAE"/>
</linearGradient>
<linearGradient id="paint7_linear_818_26342" x1="63.6132" y1="58.3746" x2="63.6132" y2="66.2442" gradientUnits="userSpaceOnUse">
<stop stop-color="#008BF1"/>
<stop offset="0.22" stop-color="#0086EC"/>
<stop offset="0.49" stop-color="#0078DD"/>
<stop offset="0.79" stop-color="#0061C4"/>
<stop offset="1" stop-color="#004DAE"/>
</linearGradient>
<linearGradient id="paint8_linear_818_26342" x1="63.6206" y1="51.4546" x2="63.6206" y2="57.6264" gradientUnits="userSpaceOnUse">
<stop stop-color="#008BF1"/>
<stop offset="0.22" stop-color="#0086EC"/>
<stop offset="0.49" stop-color="#0078DD"/>
<stop offset="0.79" stop-color="#0061C4"/>
<stop offset="1" stop-color="#004DAE"/>
</linearGradient>
</defs>
</svg>
