<svg width="103" height="103" viewBox="0 0 103 103" fill="none" xmlns="http://www.w3.org/2000/svg">
<path d="M51.374 98.6844C25.524 98.6844 4.56403 77.7345 4.56403 51.8745C4.56403 26.0145 25.524 5.06445 51.374 5.06445C77.224 5.06445 98.184 26.0245 98.184 51.8745C98.184 77.7245 77.224 98.6844 51.374 98.6844Z" fill="url(#paint0_linear_342_58336)"/>
<path fill-rule="evenodd" clip-rule="evenodd" d="M97.274 51.8744C97.274 77.2244 76.724 97.7744 51.374 97.7744C26.024 97.7744 5.47401 77.2244 5.47401 51.8744C5.47401 26.5244 26.024 5.97438 51.374 5.97438C76.724 5.97438 97.274 26.5244 97.274 51.8744ZM51.374 2.23438C78.794 2.23438 101.014 24.4544 101.014 51.8744C101.014 79.2944 78.784 101.514 51.374 101.514C23.954 101.514 1.73401 79.2844 1.73401 51.8744C1.73401 24.4544 23.954 2.23438 51.374 2.23438Z" fill="#F2F1F0"/>
<path fill-rule="evenodd" clip-rule="evenodd" d="M94.464 51.8749C94.464 75.6749 75.174 94.9649 51.374 94.9649C27.574 94.9649 8.28401 75.6749 8.28401 51.8749C8.28401 28.0749 27.574 8.78493 51.374 8.78493C75.174 8.78493 94.464 28.0749 94.464 51.8749ZM51.374 5.04492C77.234 5.04492 98.204 26.0149 98.204 51.8749C98.204 77.7349 77.234 98.7049 51.374 98.7049C25.514 98.7049 4.54401 77.7349 4.54401 51.8749C4.54401 26.0149 25.504 5.04492 51.374 5.04492Z" fill="url(#paint1_linear_342_58336)"/>
<path opacity="0.15" d="M76.5215 77.8179H42.9436C41.6162 77.8179 40.5318 76.7429 40.5318 75.4061V29.76C40.5318 28.1709 41.8218 26.8809 43.411 26.8809H77.4095C78.8865 26.8809 80.0737 28.0774 80.0737 29.545V74.275C80.0737 76.2287 78.4845 77.8179 76.5215 77.8179Z" fill="#1F1D20"/>
<path d="M76.5215 76.3433H42.9436C41.6162 76.3433 40.5318 75.2683 40.5318 73.9315V28.2854C40.5318 26.6963 41.8218 25.4062 43.411 25.4062H77.4095C78.8865 25.4062 80.0737 26.6028 80.0737 28.0704V72.8004C80.0737 74.7541 78.4845 76.3433 76.5215 76.3433Z" fill="#ECECEC"/>
<path d="M69.4382 34.3721H48.8144C47.9094 34.3721 47.195 35.1341 47.195 35.9915C47.195 36.8965 47.9571 37.6109 48.8144 37.6109H69.4382C70.3431 37.6109 71.0576 36.8488 71.0576 35.9915C71.0576 35.0865 70.3431 34.3721 69.4382 34.3721Z" fill="#45CAF2"/>
<path d="M69.4382 41.4219H48.8144C47.9094 41.4219 47.195 42.184 47.195 43.0413C47.195 43.9463 47.9571 44.6607 48.8144 44.6607H69.4382C70.3431 44.6607 71.0576 43.8986 71.0576 43.0413C71.0576 42.184 70.3431 41.4219 69.4382 41.4219Z" fill="#0078D4"/>
<path fill-rule="evenodd" clip-rule="evenodd" d="M48.8144 49.043H59.1025C60.0074 49.043 60.7219 49.805 60.7219 50.6624C60.7219 51.5674 59.9598 52.2818 59.1025 52.2818H48.8144C47.9094 52.2818 47.195 51.5197 47.195 50.6624C47.195 49.7574 47.9094 49.043 48.8144 49.043Z" fill="#185A97"/>
<path opacity="0.15" d="M71.1428 82.4282H37.565C36.2376 82.4282 35.1532 81.3532 35.1532 80.0165V34.3704C35.1532 32.7812 36.4432 31.4912 38.0324 31.4912H72.0309C73.5079 31.4912 74.6951 32.6877 74.6951 34.1554V78.8854C74.6951 80.8391 73.1059 82.4282 71.1428 82.4282Z" fill="#1F1D20"/>
<path d="M71.1428 80.9536H37.565C36.2376 80.9536 35.1532 79.8786 35.1532 78.5419V32.8958C35.1532 31.3066 36.4432 30.0166 38.0324 30.0166H72.0309C73.5079 30.0166 74.6951 31.2131 74.6951 32.6808V77.4108C74.6951 79.3645 73.1059 80.9536 71.1428 80.9536Z" fill="white"/>
<path d="M69.8204 42.0117H56.8563C56.2874 42.0117 55.8383 42.4908 55.8383 43.0297C55.8383 43.5985 56.3173 44.0477 56.8563 44.0477H69.8204C70.3892 44.0477 70.8383 43.5686 70.8383 43.0297C70.8383 42.4608 70.3892 42.0117 69.8204 42.0117Z" fill="#008BF1"/>
<path d="M69.8204 46.7061H56.8563C56.2874 46.7061 55.8383 47.1851 55.8383 47.724C55.8383 48.2929 56.3174 48.742 56.8563 48.742H69.8204C70.3892 48.742 70.8383 48.2629 70.8383 47.724C70.8383 47.1851 70.3892 46.7061 69.8204 46.7061Z" fill="#0078D4"/>
<path fill-rule="evenodd" clip-rule="evenodd" d="M56.8563 51.2334H63.3234C63.8922 51.2334 64.3413 51.7124 64.3413 52.2514C64.3413 52.8202 63.8623 53.2693 63.3234 53.2693H56.8563C56.2874 53.2693 55.8383 52.7903 55.8383 52.2514C55.8383 51.6825 56.2874 51.2334 56.8563 51.2334Z" fill="#185A97"/>
<path d="M49.6458 42.7412H16.5068C15.8261 42.7412 15.2767 43.2661 15.2767 43.9057V66.7364C15.2767 67.3761 15.8261 67.9009 16.5068 67.9009H49.6458C50.3264 67.9009 50.8759 67.3761 50.8759 66.7364V43.9139C50.8759 43.2661 50.3182 42.7412 49.6458 42.7412Z" fill="url(#paint2_linear_342_58336)"/>
<path d="M51.9584 45.6693L51.0727 44.8164L36.8937 59.5858C36.0408 60.4797 34.9091 60.98 33.7036 60.9964C32.5391 61.0128 31.3664 60.5535 30.4808 59.6924L15.9328 45.4889L15.0799 46.3663L25.7326 56.773L14.2516 66.294L15.0389 67.2371L26.6183 57.6341L29.6361 60.5781C30.7268 61.6442 32.1537 62.2265 33.6462 62.2265C33.679 62.2265 33.7118 62.2265 33.7364 62.2265C35.27 62.2019 36.7051 61.5622 37.7876 60.4387L40.4856 57.6259L50.105 65.7036L50.8923 64.7605L41.3385 56.732L51.9584 45.6693Z" fill="url(#paint3_linear_342_58336)"/>
<path d="M50.9497 40.6582H15.2029C14.473 40.6582 13.8744 41.2569 13.8744 41.9867V68.2945C13.8744 69.0244 14.473 69.623 15.2029 69.623H50.9497C51.6795 69.623 52.2782 69.0244 52.2782 68.2945V41.9867C52.27 41.2569 51.6795 40.6582 50.9497 40.6582ZM49.9164 66.1213C49.9164 66.7282 49.3916 67.2284 48.7519 67.2284H17.4007C16.761 67.2284 16.2362 66.7282 16.2362 66.1213V44.5289C16.2362 43.9221 16.761 43.4218 17.4007 43.4218H48.7519C49.3916 43.4218 49.9164 43.9139 49.9164 44.5289V66.1213V66.1213Z" fill="url(#paint4_linear_342_58336)"/>
<path opacity="0.15" d="M50.9497 69.6234H15.2029C14.473 69.6234 13.8744 69.0248 13.8744 68.2949V69.2872C13.8744 70.0089 14.473 70.6075 15.2029 70.6157H50.9497C51.6795 70.6157 52.2782 70.0171 52.2782 69.2872V68.2949C52.27 69.0248 51.6795 69.6234 50.9497 69.6234Z" fill="#1F1D20"/>
<path opacity="0.15" d="M48.7519 67.2282H17.4007C16.761 67.2282 16.2362 66.7279 16.2362 66.1211V66.4901C16.2362 67.097 16.761 67.5972 17.4007 67.5972H48.7519C49.3916 67.5972 49.9164 67.097 49.9164 66.4901V66.1211C49.9164 66.7361 49.3916 67.2282 48.7519 67.2282Z" fill="#1F1D20"/>
<path opacity="0.15" d="M76.5215 77.8179H42.9436C41.6162 77.8179 40.5318 76.7429 40.5318 75.4061V29.76C40.5318 28.1709 41.8218 26.8809 43.411 26.8809H77.4095C78.8865 26.8809 80.0737 28.0774 80.0737 29.545V74.275C80.0737 76.2287 78.4845 77.8179 76.5215 77.8179Z" fill="#1F1D20"/>
<path d="M76.5215 76.3433H42.9436C41.6162 76.3433 40.5318 75.2683 40.5318 73.9315V28.2854C40.5318 26.6963 41.8218 25.4062 43.411 25.4062H77.4095C78.8865 25.4062 80.0737 26.6028 80.0737 28.0704V72.8004C80.0737 74.7541 78.4845 76.3433 76.5215 76.3433Z" fill="#ECECEC"/>
<path d="M69.4382 34.3721H48.8144C47.9094 34.3721 47.195 35.1341 47.195 35.9915C47.195 36.8965 47.9571 37.6109 48.8144 37.6109H69.4382C70.3431 37.6109 71.0576 36.8488 71.0576 35.9915C71.0576 35.0865 70.3431 34.3721 69.4382 34.3721Z" fill="#45CAF2"/>
<path d="M69.4382 41.4219H48.8144C47.9094 41.4219 47.195 42.184 47.195 43.0413C47.195 43.9463 47.9571 44.6607 48.8144 44.6607H69.4382C70.3431 44.6607 71.0576 43.8986 71.0576 43.0413C71.0576 42.184 70.3431 41.4219 69.4382 41.4219Z" fill="#0078D4"/>
<path fill-rule="evenodd" clip-rule="evenodd" d="M48.8144 49.043H59.1025C60.0074 49.043 60.7219 49.805 60.7219 50.6624C60.7219 51.5674 59.9598 52.2818 59.1025 52.2818H48.8144C47.9094 52.2818 47.195 51.5197 47.195 50.6624C47.195 49.7574 47.9094 49.043 48.8144 49.043Z" fill="#185A97"/>
<path opacity="0.15" d="M71.1428 82.4282H37.565C36.2376 82.4282 35.1532 81.3532 35.1532 80.0165V34.3704C35.1532 32.7812 36.4432 31.4912 38.0324 31.4912H72.0309C73.5079 31.4912 74.6951 32.6877 74.6951 34.1554V78.8854C74.6951 80.8391 73.1059 82.4282 71.1428 82.4282Z" fill="#1F1D20"/>
<path d="M71.1428 80.9536H37.565C36.2376 80.9536 35.1532 79.8786 35.1532 78.5419V32.8958C35.1532 31.3066 36.4432 30.0166 38.0324 30.0166H72.0309C73.5079 30.0166 74.6951 31.2131 74.6951 32.6808V77.4108C74.6951 79.3645 73.1059 80.9536 71.1428 80.9536Z" fill="white"/>
<path d="M69.8203 47.0117H56.8563C56.2874 47.0117 55.8383 47.4908 55.8383 48.0297C55.8383 48.5985 56.3173 49.0477 56.8563 49.0477H69.8203C70.3892 49.0477 70.8383 48.5686 70.8383 48.0297C70.8383 47.4608 70.3892 47.0117 69.8203 47.0117Z" fill="#008BF1"/>
<path d="M69.8204 51.7061H56.8563C56.2874 51.7061 55.8383 52.1851 55.8383 52.724C55.8383 53.2929 56.3173 53.742 56.8563 53.742H69.8204C70.3892 53.742 70.8383 53.2629 70.8383 52.724C70.8383 52.1851 70.3892 51.7061 69.8204 51.7061Z" fill="#0078D4"/>
<path fill-rule="evenodd" clip-rule="evenodd" d="M56.8563 56.2334H63.3233C63.8922 56.2334 64.3413 56.7124 64.3413 57.2514C64.3413 57.8202 63.8623 58.2693 63.3233 58.2693H56.8563C56.2874 58.2693 55.8383 57.7903 55.8383 57.2514C55.8383 56.6825 56.2874 56.2334 56.8563 56.2334Z" fill="#185A97"/>
<path d="M49.6458 42.7412H16.5068C15.8261 42.7412 15.2767 43.2661 15.2767 43.9057V66.7364C15.2767 67.3761 15.8261 67.9009 16.5068 67.9009H49.6458C50.3264 67.9009 50.8759 67.3761 50.8759 66.7364V43.9139C50.8759 43.2661 50.3182 42.7412 49.6458 42.7412Z" fill="url(#paint5_linear_342_58336)"/>
<path d="M51.9584 45.6693L51.0727 44.8164L36.8937 59.5858C36.0408 60.4797 34.9091 60.98 33.7036 60.9964C32.5391 61.0128 31.3664 60.5535 30.4808 59.6924L15.9328 45.4889L15.0799 46.3663L25.7326 56.773L14.2516 66.294L15.0389 67.2371L26.6183 57.6341L29.6361 60.5781C30.7268 61.6442 32.1537 62.2265 33.6462 62.2265C33.679 62.2265 33.7118 62.2265 33.7364 62.2265C35.27 62.2019 36.7051 61.5622 37.7876 60.4387L40.4856 57.6259L50.105 65.7036L50.8923 64.7605L41.3385 56.732L51.9584 45.6693Z" fill="url(#paint6_linear_342_58336)"/>
<path d="M50.9497 40.6582H15.2029C14.473 40.6582 13.8744 41.2569 13.8744 41.9867V68.2945C13.8744 69.0244 14.473 69.623 15.2029 69.623H50.9497C51.6795 69.623 52.2782 69.0244 52.2782 68.2945V41.9867C52.27 41.2569 51.6795 40.6582 50.9497 40.6582ZM49.9164 66.1213C49.9164 66.7282 49.3916 67.2284 48.7519 67.2284H17.4007C16.761 67.2284 16.2362 66.7282 16.2362 66.1213V44.5289C16.2362 43.9221 16.761 43.4218 17.4007 43.4218H48.7519C49.3916 43.4218 49.9164 43.9139 49.9164 44.5289V66.1213V66.1213Z" fill="url(#paint7_linear_342_58336)"/>
<path opacity="0.15" d="M50.9497 69.6234H15.2029C14.473 69.6234 13.8744 69.0248 13.8744 68.2949V69.2872C13.8744 70.0089 14.473 70.6075 15.2029 70.6157H50.9497C51.6795 70.6157 52.2782 70.0171 52.2782 69.2872V68.2949C52.27 69.0248 51.6795 69.6234 50.9497 69.6234Z" fill="#1F1D20"/>
<path opacity="0.15" d="M48.7519 67.2282H17.4007C16.761 67.2282 16.2362 66.7279 16.2362 66.1211V66.4901C16.2362 67.097 16.761 67.5972 17.4007 67.5972H48.7519C49.3916 67.5972 49.9164 67.097 49.9164 66.4901V66.1211C49.9164 66.7361 49.3916 67.2282 48.7519 67.2282Z" fill="#1F1D20"/>
<defs>
<linearGradient id="paint0_linear_342_58336" x1="49.6001" y1="-12.915" x2="53.5821" y2="132.855" gradientUnits="userSpaceOnUse">
<stop stop-color="#00ABDE"/>
<stop offset="1" stop-color="#007ED8"/>
</linearGradient>
<linearGradient id="paint1_linear_342_58336" x1="2.80441" y1="-19.7477" x2="98.3319" y2="121.134" gradientUnits="userSpaceOnUse">
<stop stop-color="#007ED8"/>
<stop offset="0.7065" stop-color="#002D4C"/>
</linearGradient>
<linearGradient id="paint2_linear_342_58336" x1="14.6803" y1="32.2738" x2="117.277" y2="160.846" gradientUnits="userSpaceOnUse">
<stop offset="0.0435" stop-color="white"/>
<stop offset="0.4857" stop-color="#4DC1EA"/>
<stop offset="0.8452" stop-color="#0078D4"/>
</linearGradient>
<linearGradient id="paint3_linear_342_58336" x1="33.105" y1="44.8164" x2="33.105" y2="67.2371" gradientUnits="userSpaceOnUse">
<stop stop-color="#008BF1"/>
<stop offset="0.22" stop-color="#0086EC"/>
<stop offset="0.49" stop-color="#0078DD"/>
<stop offset="0.79" stop-color="#0061C4"/>
<stop offset="1" stop-color="#004DAE"/>
</linearGradient>
<linearGradient id="paint4_linear_342_58336" x1="33.0763" y1="40.6582" x2="33.0763" y2="69.623" gradientUnits="userSpaceOnUse">
<stop stop-color="#008BF1"/>
<stop offset="0.22" stop-color="#0086EC"/>
<stop offset="0.49" stop-color="#0078DD"/>
<stop offset="0.79" stop-color="#0061C4"/>
<stop offset="1" stop-color="#004DAE"/>
</linearGradient>
<linearGradient id="paint5_linear_342_58336" x1="14.6803" y1="32.2738" x2="117.277" y2="160.846" gradientUnits="userSpaceOnUse">
<stop offset="0.0435" stop-color="white"/>
<stop offset="0.4857" stop-color="#4DC1EA"/>
<stop offset="0.8452" stop-color="#0078D4"/>
</linearGradient>
<linearGradient id="paint6_linear_342_58336" x1="33.105" y1="44.8164" x2="33.105" y2="67.2371" gradientUnits="userSpaceOnUse">
<stop stop-color="#008BF1"/>
<stop offset="0.22" stop-color="#0086EC"/>
<stop offset="0.49" stop-color="#0078DD"/>
<stop offset="0.79" stop-color="#0061C4"/>
<stop offset="1" stop-color="#004DAE"/>
</linearGradient>
<linearGradient id="paint7_linear_342_58336" x1="33.0763" y1="40.6582" x2="33.0763" y2="69.623" gradientUnits="userSpaceOnUse">
<stop stop-color="#008BF1"/>
<stop offset="0.22" stop-color="#0086EC"/>
<stop offset="0.49" stop-color="#0078DD"/>
<stop offset="0.79" stop-color="#0061C4"/>
<stop offset="1" stop-color="#004DAE"/>
</linearGradient>
</defs>
</svg>
