<svg width="103" height="103" viewBox="0 0 103 103" fill="none" xmlns="http://www.w3.org/2000/svg">
<path d="M51.0884 97.8651C25.2384 97.8651 4.27844 76.9151 4.27844 51.0551C4.27844 25.1951 25.2384 4.24512 51.0884 4.24512C76.9384 4.24512 97.8984 25.2051 97.8984 51.0551C97.8984 76.9051 76.9384 97.8651 51.0884 97.8651Z" fill="url(#paint0_linear_149_125005)"/>
<path fill-rule="evenodd" clip-rule="evenodd" d="M96.9884 51.055C96.9884 76.405 76.4384 96.955 51.0884 96.955C25.7384 96.955 5.18843 76.405 5.18843 51.055C5.18843 25.705 25.7384 5.15504 51.0884 5.15504C76.4384 5.15504 96.9884 25.705 96.9884 51.055ZM51.0884 1.41504C78.5084 1.41504 100.728 23.635 100.728 51.055C100.728 78.475 78.4984 100.695 51.0884 100.695C23.6684 100.695 1.44843 78.465 1.44843 51.055C1.44843 23.635 23.6684 1.41504 51.0884 1.41504Z" fill="#F2F1F0"/>
<path fill-rule="evenodd" clip-rule="evenodd" d="M94.1785 51.0546C94.1785 74.8546 74.8885 94.1446 51.0885 94.1446C27.2885 94.1446 7.99845 74.8546 7.99845 51.0546C7.99845 27.2546 27.2885 7.96461 51.0885 7.96461C74.8885 7.96461 94.1785 27.2546 94.1785 51.0546ZM51.0885 4.22461C76.9485 4.22461 97.9185 25.1946 97.9185 51.0546C97.9185 76.9146 76.9485 97.8846 51.0885 97.8846C25.2285 97.8846 4.25845 76.9146 4.25845 51.0546C4.25845 25.1946 25.2185 4.22461 51.0885 4.22461Z" fill="url(#paint1_linear_149_125005)"/>
<path opacity="0.15" d="M49.6307 30.9014H18.1776C17.4957 30.9014 16.9503 31.4469 16.9503 32.1287V73.1765C16.9503 73.8583 17.4957 74.4038 18.1776 74.4038H49.6307C50.3125 74.4038 50.858 73.8583 50.858 73.1765V32.1287C50.8483 31.4469 50.3028 30.9014 49.6307 30.9014Z" fill="#1F1D20"/>
<path d="M49.6307 29.3818H18.1776C17.4957 29.3818 16.9503 29.9273 16.9503 30.6092V71.6569C16.9503 72.3388 17.4957 72.8843 18.1776 72.8843H49.6307C50.3125 72.8843 50.858 72.3388 50.858 71.6569V30.6092C50.8483 29.9273 50.3028 29.3818 49.6307 29.3818Z" fill="#F2F2F2"/>
<path opacity="0.15" d="M85.5252 30.9014H54.0721C53.3902 30.9014 52.8448 31.4469 52.8448 32.1287V73.1765C52.8448 73.8583 53.3902 74.4038 54.0721 74.4038H85.5252C86.207 74.4038 86.7525 73.8583 86.7525 73.1765V32.1287C86.7428 31.4469 86.1973 30.9014 85.5252 30.9014Z" fill="#1F1D20"/>
<path d="M85.5252 29.3818H54.0721C53.3902 29.3818 52.8448 29.9273 52.8448 30.6092V71.6569C52.8448 72.3388 53.3902 72.8843 54.0721 72.8843H85.5252C86.207 72.8843 86.7525 72.3388 86.7525 71.6569V30.6092C86.7428 29.9273 86.1973 29.3818 85.5252 29.3818Z" fill="#F2F2F2"/>
<path d="M35.8125 45.6217C35.8125 49.783 32.4285 53.1565 28.2515 53.1565C24.0771 53.1565 20.6905 49.783 20.6905 45.6217C20.6905 41.4604 24.0745 38.0869 28.2515 38.0869C32.4285 38.0843 35.8125 41.4578 35.8125 45.6217Z" fill="url(#paint2_linear_149_125005)"/>
<path d="M46.3493 56.4407C46.3493 60.6047 42.9627 63.9782 38.7857 63.9782C34.6087 63.9782 31.2221 60.602 31.2221 56.4407C31.2221 52.2768 34.6087 48.9033 38.7857 48.9033C42.9627 48.9033 46.3493 52.2795 46.3493 56.4407Z" fill="url(#paint3_linear_149_125005)"/>
<path opacity="0.05" fill-rule="evenodd" clip-rule="evenodd" d="M20.7193 46.2663C21.0621 50.4275 24.7131 53.521 28.8743 53.1782C33.0356 52.8353 36.1291 49.1844 35.7863 45.0231C35.4932 41.4585 32.7399 38.5875 29.191 38.1426C25.2967 39.4485 22.1875 42.4269 20.7193 46.2663Z" fill="black"/>
<path opacity="0.05" fill-rule="evenodd" clip-rule="evenodd" d="M46.3311 55.9015C46.0458 51.735 42.4367 48.5891 38.2702 48.8744C34.1037 49.1597 30.9579 52.7688 31.2431 56.9353C31.497 60.6412 34.4047 63.6143 38.1027 63.9493C41.8897 62.5988 44.8995 59.6571 46.3311 55.9015Z" fill="black"/>
<path opacity="0.1" fill-rule="evenodd" clip-rule="evenodd" d="M21.0725 47.9879C22.3706 51.9555 26.6366 54.1199 30.6042 52.8218C34.5718 51.5237 36.7362 47.2577 35.4381 43.2901C34.7262 41.1074 33.0591 39.3696 30.9104 38.5635C26.1 39.5685 22.2816 43.2246 21.0725 47.9879Z" fill="black"/>
<path opacity="0.1" fill-rule="evenodd" clip-rule="evenodd" d="M45.988 54.1304C44.7213 50.1524 40.471 47.9539 36.4903 49.2206C32.5122 50.4873 30.3138 54.7376 31.5805 58.7183C32.3054 60.9953 34.0668 62.7985 36.328 63.5758C41.0729 62.508 44.8129 58.8518 45.988 54.1304Z" fill="black"/>
<path opacity="0.1" fill-rule="evenodd" clip-rule="evenodd" d="M21.3528 48.7021C23.0461 52.5153 27.5084 54.2348 31.3242 52.5441C35.1401 50.8534 36.8569 46.3886 35.1662 42.5727C34.4517 40.9632 33.1981 39.6546 31.62 38.8721C26.4746 39.6729 22.3735 43.5987 21.3528 48.7021Z" fill="black"/>
<path opacity="0.1" fill-rule="evenodd" clip-rule="evenodd" d="M45.7077 53.4C44.0379 49.5737 39.5835 47.8254 35.7572 49.4952C31.9309 51.1649 30.1827 55.6193 31.8524 59.4456C32.5905 61.1363 33.9226 62.4998 35.595 63.2771C40.6958 62.4135 44.7236 58.4773 45.7077 53.4Z" fill="black"/>
<path d="M45.4987 51.0895C45.4987 57.6822 40.1361 63.0238 33.5225 63.0238C26.909 63.0238 21.5464 57.6795 21.5464 51.0895C21.5464 44.4969 26.909 39.1553 33.5225 39.1553C40.1361 39.1553 45.4987 44.4969 45.4987 51.0895Z" fill="url(#paint4_linear_149_125005)"/>
<path fill-rule="evenodd" clip-rule="evenodd" d="M30.1543 50.6755C29.6701 50.3562 29.267 49.9322 28.9739 49.4297C28.6913 48.901 28.5526 48.307 28.5709 47.7102C28.5499 46.9513 28.809 46.208 29.2985 45.627C29.8088 45.0434 30.4631 44.6063 31.1985 44.3577C31.9967 44.075 32.8369 43.9337 33.6848 43.9389C34.2397 43.9337 34.7919 43.9755 35.3389 44.0645C35.7288 44.1247 36.1135 44.2242 36.4852 44.3603C36.8254 44.4754 37.1342 44.6717 37.3829 44.9334C37.5661 45.148 37.6655 45.4228 37.6603 45.7055C37.6734 46.0012 37.5687 46.2917 37.3698 46.509C37.1814 46.7105 36.9144 46.823 36.637 46.8152C36.4485 46.8126 36.2627 46.7707 36.0926 46.6922C35.6712 46.5037 35.2394 46.3441 34.7945 46.2185C34.3862 46.1112 33.9675 46.0588 33.5435 46.064C32.9939 46.0431 32.4495 46.1818 31.9784 46.4645C31.5728 46.7105 31.332 47.1606 31.3529 47.6343C31.3503 47.9406 31.4655 48.2363 31.6775 48.4561C31.9287 48.7152 32.2244 48.9272 32.5516 49.0816C32.918 49.2622 33.465 49.5056 34.1925 49.804C34.2737 49.8301 34.3522 49.8615 34.4281 49.8982C35.1373 50.1782 35.8178 50.5289 36.459 50.9424C36.9641 51.2722 37.3933 51.7093 37.71 52.2249C38.0215 52.7666 38.1785 53.3816 38.1602 54.0071C38.1863 54.7713 37.9665 55.5251 37.5347 56.1558C37.095 56.7525 36.4852 57.2053 35.7864 57.4539C34.9437 57.7549 34.0538 57.8989 33.1588 57.8832C31.9287 57.925 30.7065 57.6947 29.5785 57.2053C29.2906 57.0771 29.0367 56.8808 28.8404 56.6322C28.6782 56.4045 28.5944 56.1323 28.5997 55.8522C28.584 55.5539 28.6991 55.2634 28.9137 55.0592C29.1388 54.8629 29.4293 54.7609 29.7251 54.774C30.0574 54.7792 30.382 54.8629 30.6751 55.0174C31.0389 55.1979 31.3268 55.3367 31.5361 55.4256C31.7769 55.5251 32.0255 55.6036 32.2794 55.6612C32.5935 55.7292 32.9128 55.7632 33.2321 55.7606C33.8 55.7999 34.3627 55.6507 34.8338 55.334C35.1923 55.054 35.3938 54.6169 35.3729 54.1642C35.3729 53.8475 35.2525 53.5413 35.0353 53.3084C34.7474 53.01 34.4098 52.7666 34.0381 52.5834C33.5985 52.3531 32.9808 52.0704 32.1852 51.7381C31.4786 51.4475 30.7955 51.0942 30.1543 50.6755Z" fill="white"/>
<path d="M65.1831 48.0352H58.5533C57.927 48.0352 57.4192 48.5243 57.4192 49.1277V54.9451C57.4192 57.1627 59.2854 58.9604 61.5874 58.9604H61.6071C63.9091 58.9607 65.7755 57.1632 65.7758 54.9456C65.7758 54.9454 65.7758 54.9453 65.7758 54.9451V48.6061C65.7758 48.2908 65.5105 48.0352 65.1831 48.0352Z" fill="#5059C9"/>
<path d="M60.702 46.8851C59.2186 46.8851 58.016 45.7266 58.016 44.2975C58.016 42.8684 59.2186 41.71 60.702 41.71C62.1855 41.71 63.3881 42.8684 63.3881 44.2975C63.3881 45.7266 62.1855 46.8851 60.702 46.8851Z" fill="#5059C9"/>
<path d="M69.0587 46.8853C66.916 46.8853 65.1789 45.2119 65.1789 43.1477C65.1789 41.0835 66.916 39.4102 69.0587 39.4102C71.2015 39.4102 72.9386 41.0835 72.9386 43.1477C72.9386 45.2119 71.2015 46.8853 69.0587 46.8853Z" fill="#7B83EB"/>
<path d="M63.8854 48.0352H74.829C75.4478 48.0499 75.9374 48.5447 75.9231 49.1409V55.776C76.0095 59.3538 73.0711 62.3229 69.3572 62.4105C65.6432 62.3229 62.7048 59.3538 62.7912 55.776V49.1409C62.7769 48.5447 63.2665 48.0499 63.8854 48.0352Z" fill="#7B83EB"/>
<path opacity="0.1" d="M68.7604 48.0352V57.3331C68.7633 57.7595 69.0315 58.1425 69.4408 58.3049C69.5711 58.358 69.7112 58.3853 69.8527 58.3854H75.3979C75.4755 58.1956 75.5471 58.0059 75.6068 57.8104C75.8158 57.1505 75.9224 56.4646 75.9232 55.7748V49.1392C75.9375 48.5439 75.4488 48.0499 74.8309 48.0352H68.7604Z" fill="black"/>
<path opacity="0.2" d="M69.3573 48.0352V57.9081C69.3573 58.0444 69.3857 58.1793 69.4408 58.3049C69.6094 58.6991 70.007 58.9575 70.4496 58.9604H75.1174C75.2188 58.7706 75.3143 58.5809 75.3979 58.3854C75.4815 58.1899 75.5471 58.0059 75.6068 57.8104C75.8158 57.1506 75.9224 56.4646 75.9232 55.7748V49.1392C75.9375 48.5439 75.4488 48.0499 74.8309 48.0352H69.3573Z" fill="black"/>
<path opacity="0.2" d="M69.3573 48.0352V56.7581C69.3618 57.3374 69.8482 57.806 70.4496 57.8104H75.6068C75.8158 57.1506 75.9224 56.4646 75.9232 55.7748V49.1392C75.9375 48.5439 75.4488 48.0499 74.8309 48.0352H69.3573Z" fill="black"/>
<path opacity="0.2" d="M69.9542 48.0352V56.7581C69.9587 57.3374 70.4451 57.806 71.0465 57.8104H75.6068C75.8158 57.1506 75.9224 56.4646 75.9232 55.7748V49.1392C75.9375 48.5439 75.4488 48.0499 74.8309 48.0352H69.9542Z" fill="black"/>
<path opacity="0.1" d="M68.7602 45.062V46.8733C68.8617 46.8791 68.9572 46.8848 69.0587 46.8848C69.1601 46.8848 69.2556 46.8791 69.3571 46.8733C69.5586 46.8604 69.7584 46.8296 69.954 46.7813C71.1627 46.5056 72.1614 45.689 72.6401 44.5848C72.7224 44.3993 72.7864 44.2068 72.8311 44.0098H69.8526C69.2502 44.012 68.7625 44.4818 68.7602 45.062Z" fill="black"/>
<path opacity="0.2" d="M69.357 45.6372V46.8735C69.5585 46.8606 69.7583 46.8298 69.9539 46.7815C71.1626 46.5058 72.1612 45.6891 72.64 44.585H70.4493C69.847 44.5872 69.3593 45.057 69.357 45.6372Z" fill="black"/>
<path opacity="0.2" d="M69.357 45.6372V46.8735C69.5585 46.8606 69.7583 46.8298 69.9539 46.7815C71.1626 46.5058 72.1612 45.6891 72.64 44.585H70.4493C69.847 44.5872 69.3593 45.057 69.357 45.6372Z" fill="black"/>
<path opacity="0.2" d="M69.9539 45.6372V46.7815C71.1626 46.5058 72.1612 45.6891 72.64 44.585H71.0462C70.4439 44.5872 69.9562 45.057 69.9539 45.6372Z" fill="black"/>
<path d="M81.9917 44.585H71.0482C70.4439 44.585 69.954 45.0569 69.954 45.639V56.1812C69.954 56.7633 70.4439 57.2352 71.0482 57.2352H81.9917C82.596 57.2352 83.0858 56.7633 83.0858 56.1812V45.639C83.0858 45.0569 82.596 44.585 81.9917 44.585Z" fill="url(#paint5_linear_149_125005)"/>
<path d="M73.6404 48.5976H75.828V54.3362H77.2218V48.5976H79.3993V47.4844H73.6404V48.5976Z" fill="white"/>
<defs>
<linearGradient id="paint0_linear_149_125005" x1="49.3145" y1="-13.7344" x2="53.2965" y2="132.036" gradientUnits="userSpaceOnUse">
<stop stop-color="#00ABDE"/>
<stop offset="1" stop-color="#007ED8"/>
</linearGradient>
<linearGradient id="paint1_linear_149_125005" x1="2.51885" y1="-20.568" x2="98.0464" y2="120.313" gradientUnits="userSpaceOnUse">
<stop stop-color="#007ED8"/>
<stop offset="0.7065" stop-color="#002D4C"/>
</linearGradient>
<linearGradient id="paint2_linear_149_125005" x1="27.0561" y1="38.1879" x2="29.4133" y2="53.0778" gradientUnits="userSpaceOnUse">
<stop offset="0.012" stop-color="#00B7F0"/>
<stop offset="0.339" stop-color="#009DE5"/>
<stop offset="0.755" stop-color="#0082D9"/>
<stop offset="1" stop-color="#0078D4"/>
</linearGradient>
<linearGradient id="paint3_linear_149_125005" x1="32.2234" y1="60.2328" x2="45.3153" y2="52.6744" gradientUnits="userSpaceOnUse">
<stop stop-color="#0078D4"/>
<stop offset="0.37" stop-color="#007AD5"/>
<stop offset="0.573" stop-color="#0082D9"/>
<stop offset="0.735" stop-color="#0090DF"/>
<stop offset="0.875" stop-color="#00A3E7"/>
<stop offset="1" stop-color="#00BCF2"/>
</linearGradient>
<linearGradient id="paint4_linear_149_125005" x1="28.8324" y1="43.0084" x2="40.7788" y2="63.7005" gradientUnits="userSpaceOnUse">
<stop stop-color="#00B7F0"/>
<stop offset="1" stop-color="#007CC1"/>
</linearGradient>
<linearGradient id="paint5_linear_149_125005" x1="80.8046" y1="43.7614" x2="72.7065" y2="58.3209" gradientUnits="userSpaceOnUse">
<stop stop-color="#5A62C3"/>
<stop offset="0.5" stop-color="#4D55BD"/>
<stop offset="1" stop-color="#3940AB"/>
</linearGradient>
</defs>
</svg>
