<svg width="103" height="103" viewBox="0 0 103 103" fill="none" xmlns="http://www.w3.org/2000/svg">
<path d="M51.1713 98.5145C25.3213 98.5145 4.36127 77.5645 4.36127 51.7045C4.36127 25.8445 25.3213 4.89453 51.1713 4.89453C77.0213 4.89453 97.9813 25.8545 97.9813 51.7045C97.9813 77.5545 77.0213 98.5145 51.1713 98.5145Z" fill="url(#paint0_linear_150_134107)"/>
<path fill-rule="evenodd" clip-rule="evenodd" d="M51.1718 1.7041C78.7818 1.7041 101.172 24.0941 101.172 51.7041C101.172 79.3141 78.7818 101.704 51.1718 101.704C23.5618 101.704 1.17181 79.3141 1.17181 51.7041C1.17181 24.0941 23.5618 1.7041 51.1718 1.7041ZM51.1718 97.4641C76.4418 97.4641 96.9318 76.9741 96.9318 51.7041C96.9318 26.4341 76.4418 5.9441 51.1718 5.9441C25.9018 5.9441 5.41181 26.4341 5.41181 51.7041C5.41181 76.9741 25.9018 97.4641 51.1718 97.4641Z" fill="#D9D9D9"/>
<path fill-rule="evenodd" clip-rule="evenodd" d="M97.0712 51.7045C97.0712 77.0545 76.5212 97.6045 51.1712 97.6045C25.8212 97.6045 5.27119 77.0545 5.27119 51.7045C5.27119 26.3545 25.8212 5.80445 51.1712 5.80445C76.5212 5.80445 97.0712 26.3545 97.0712 51.7045ZM51.1712 2.06445C78.5912 2.06445 100.811 24.2845 100.811 51.7045C100.811 79.1245 78.5812 101.344 51.1712 101.344C23.7512 101.344 1.53119 79.1145 1.53119 51.7045C1.53119 24.2845 23.7512 2.06445 51.1712 2.06445Z" fill="#F2F1F0"/>
<path fill-rule="evenodd" clip-rule="evenodd" d="M51.1717 94.794C27.3717 94.794 8.08174 75.504 8.08174 51.704C8.08174 27.904 27.3717 8.61402 51.1717 8.61402C74.9717 8.61402 94.2617 27.904 94.2617 51.704C94.2617 75.504 74.9717 94.794 51.1717 94.794ZM98.0017 51.704C98.0017 77.564 77.0317 98.534 51.1717 98.534C25.3117 98.534 4.34174 77.564 4.34174 51.704C4.34174 25.844 25.3117 4.87402 51.1717 4.87402C77.0317 4.87402 98.0017 25.834 98.0017 51.704Z" fill="url(#paint1_linear_150_134107)"/>
<path d="M51.1713 98.5145C25.3213 98.5145 4.36127 77.5645 4.36127 51.7045C4.36127 25.8445 25.3213 4.89453 51.1713 4.89453C77.0213 4.89453 97.9813 25.8545 97.9813 51.7045C97.9813 77.5545 77.0213 98.5145 51.1713 98.5145Z" fill="url(#paint2_linear_150_134107)"/>
<path fill-rule="evenodd" clip-rule="evenodd" d="M51.1718 1.7041C78.7818 1.7041 101.172 24.0941 101.172 51.7041C101.172 79.3141 78.7818 101.704 51.1718 101.704C23.5618 101.704 1.17181 79.3141 1.17181 51.7041C1.17181 24.0941 23.5618 1.7041 51.1718 1.7041ZM51.1718 97.4641C76.4418 97.4641 96.9318 76.9741 96.9318 51.7041C96.9318 26.4341 76.4418 5.9441 51.1718 5.9441C25.9018 5.9441 5.41181 26.4341 5.41181 51.7041C5.41181 76.9741 25.9018 97.4641 51.1718 97.4641Z" fill="#D9D9D9"/>
<path fill-rule="evenodd" clip-rule="evenodd" d="M97.0712 51.7045C97.0712 77.0545 76.5212 97.6045 51.1712 97.6045C25.8212 97.6045 5.27119 77.0545 5.27119 51.7045C5.27119 26.3545 25.8212 5.80445 51.1712 5.80445C76.5212 5.80445 97.0712 26.3545 97.0712 51.7045ZM51.1712 2.06445C78.5912 2.06445 100.811 24.2845 100.811 51.7045C100.811 79.1245 78.5812 101.344 51.1712 101.344C23.7512 101.344 1.53119 79.1145 1.53119 51.7045C1.53119 24.2845 23.7512 2.06445 51.1712 2.06445Z" fill="#F2F1F0"/>
<path fill-rule="evenodd" clip-rule="evenodd" d="M51.1717 94.794C27.3717 94.794 8.08174 75.504 8.08174 51.704C8.08174 27.904 27.3717 8.61402 51.1717 8.61402C74.9717 8.61402 94.2617 27.904 94.2617 51.704C94.2617 75.504 74.9717 94.794 51.1717 94.794ZM98.0017 51.704C98.0017 77.564 77.0317 98.534 51.1717 98.534C25.3117 98.534 4.34174 77.564 4.34174 51.704C4.34174 25.844 25.3117 4.87402 51.1717 4.87402C77.0317 4.87402 98.0017 25.834 98.0017 51.704Z" fill="url(#paint3_linear_150_134107)"/>
<path d="M62.6771 31.4422C63.7002 31.4422 64.5373 30.6051 64.5187 29.5821C64.5187 28.559 63.6816 27.7219 62.6585 27.7405C61.6355 27.7405 60.7984 28.5776 60.817 29.6007C60.817 30.6051 61.6541 31.4422 62.6771 31.4422Z" fill="#737373"/>
<path d="M74.2844 22.5693H50.8839C49.247 22.5693 47.9263 23.8714 47.9263 25.4711V80.717C47.9263 81.8889 48.8936 82.8375 50.0841 82.8375H74.7866C75.9771 82.8375 76.9443 81.8889 76.9443 80.717V25.1921C76.9257 23.7412 75.7353 22.5693 74.2844 22.5693Z" fill="#E6E6E6"/>
<path d="M75.6608 22.5693H55.311L76.9443 42.3611V23.8528C76.9257 23.146 76.3676 22.5693 75.6608 22.5693Z" fill="url(#paint4_linear_150_134107)"/>
<path d="M75.6608 22.5693H49.6748C48.9679 22.5693 48.3913 23.146 48.3913 23.8528V27.4987H76.9257V23.8528C76.9257 23.146 76.3676 22.5693 75.6608 22.5693Z" fill="#7B83EB"/>
<path d="M73.8938 21.0625H51.2002C48.7077 21.0625 46.6801 23.09 46.6801 25.5826V79.8054C46.6801 82.2979 48.7077 84.3255 51.2002 84.3255H73.8938C76.3864 84.3255 78.4139 82.2979 78.4139 79.8054V25.5826C78.4139 23.09 76.3864 21.0625 73.8938 21.0625ZM76.5352 79.545C76.5352 81.0889 75.2703 82.3538 73.7264 82.3538H51.3676C49.8237 82.3538 48.5588 81.0889 48.5588 79.545V25.843C48.5588 24.2991 49.8237 23.0342 51.3676 23.0342H73.7078C75.2517 23.0342 76.5166 24.2991 76.5166 25.843V79.545H76.5352Z" fill="#3B42AD"/>
<path d="M54.9203 22.9414V23.3506C54.9203 24.3551 55.7387 25.1736 56.7432 25.1736H68.5736C69.5781 25.1736 70.3966 24.3551 70.3966 23.3506V22.9414H54.9203Z" fill="#3B42AD"/>
<path d="M66.0072 24.2984C66.2862 24.2984 66.5094 24.0752 66.5094 23.7962C66.5094 23.5172 66.2862 23.2939 66.0072 23.2939C65.7282 23.2939 65.5049 23.5172 65.5049 23.7962C65.5235 24.0938 65.7468 24.2984 66.0072 24.2984Z" fill="#737373"/>
<path d="M61.0403 24.2245H64.1839C64.3885 24.2245 64.5559 24.0571 64.5559 23.8525C64.5559 23.6479 64.3885 23.4805 64.1839 23.4805H61.0403C60.8357 23.4805 60.6683 23.6479 60.6683 23.8525C60.6683 24.0757 60.8357 24.2245 61.0403 24.2245Z" fill="#737373"/>
<path d="M67.6065 81.647H57.599C57.4316 81.647 57.3014 81.5168 57.3014 81.3494C57.3014 81.182 57.4316 81.0518 57.599 81.0518H67.6065C67.7739 81.0518 67.9041 81.182 67.9041 81.3494C67.9041 81.5168 67.7739 81.647 67.6065 81.647Z" fill="#E6E6E6"/>
<path opacity="0.15" d="M63.3598 77.152C64.079 77.152 64.6589 76.5721 64.6589 75.8529V32.9932H19.3849V75.8584C19.3849 76.5777 19.9648 77.1576 20.6841 77.1576H63.3598V77.152Z" fill="#1F1D20"/>
<path d="M64.6533 33.3774V32.6749C64.6533 31.8051 63.9508 31.1025 63.081 31.1025H20.9573C20.0875 31.1025 19.3849 31.8051 19.3849 32.6749V33.4554V34.1691V74.4808C19.3849 75.3506 20.0875 76.0531 20.9573 76.0531H63.0921C63.9619 76.0531 64.6645 75.3506 64.6645 74.4808V33.4554C64.6645 33.4276 64.6533 33.4053 64.6533 33.3774Z" fill="white"/>
<path d="M36.6739 49.7744H29.1174C28.4035 49.7744 27.8248 50.3526 27.8248 51.0658V57.9419C27.8248 60.5631 29.9518 62.6879 32.5756 62.6879H32.598C35.2218 62.6883 37.3491 60.5637 37.3495 57.9426C37.3495 57.9423 37.3495 57.9421 37.3495 57.9419V50.4493C37.3495 50.0766 37.047 49.7744 36.6739 49.7744Z" fill="#5059C9"/>
<path d="M31.5666 48.4148C29.8758 48.4148 28.5051 47.0455 28.5051 45.3563C28.5051 43.6672 29.8758 42.2979 31.5666 42.2979C33.2574 42.2979 34.6281 43.6672 34.6281 45.3563C34.6281 47.0455 33.2574 48.4148 31.5666 48.4148Z" fill="#5059C9"/>
<path d="M41.0911 48.4147C38.6488 48.4147 36.6689 46.4368 36.6689 43.9969C36.6689 41.557 38.6488 39.5791 41.0911 39.5791C43.5334 39.5791 45.5133 41.557 45.5133 43.9969C45.5133 46.4368 43.5334 48.4147 41.0911 48.4147Z" fill="#7B83EB"/>
<path d="M35.1947 49.7744H47.6679C48.3733 49.7919 48.9314 50.3767 48.915 51.0814V58.924C49.0135 63.153 45.6644 66.6624 41.4313 66.7659C37.1982 66.6624 33.8491 63.153 33.9476 58.924V51.0814C33.9313 50.3767 34.4893 49.7919 35.1947 49.7744Z" fill="#7B83EB"/>
<path opacity="0.1" d="M40.7513 49.7744V60.7645C40.7547 61.2685 41.0604 61.7212 41.5269 61.9131C41.6754 61.9759 41.8351 62.0082 41.9963 62.0083H48.3167C48.4051 61.784 48.4867 61.5597 48.5548 61.3286C48.7929 60.5487 48.9144 59.738 48.9154 58.9226V51.0794C48.9317 50.3758 48.3746 49.7919 47.6703 49.7744H40.7513Z" fill="black"/>
<path opacity="0.2" d="M41.4317 49.7744V61.4442C41.4317 61.6053 41.4641 61.7648 41.5269 61.9131C41.719 62.3792 42.1722 62.6846 42.6767 62.6879H47.9969C48.1126 62.4637 48.2214 62.2394 48.3167 62.0083C48.4119 61.7772 48.4867 61.5597 48.5548 61.3286C48.7929 60.5488 48.9144 59.738 48.9154 58.9226V51.0794C48.9317 50.3758 48.3746 49.7919 47.6703 49.7744H41.4317Z" fill="black"/>
<path opacity="0.2" d="M41.4317 49.7744V60.0849C41.4369 60.7696 41.9912 61.3235 42.6767 61.3286H48.5548C48.7929 60.5488 48.9144 59.738 48.9154 58.9226V51.0794C48.9317 50.3758 48.3746 49.7919 47.6703 49.7744H41.4317Z" fill="black"/>
<path opacity="0.2" d="M42.112 49.7744V60.0849C42.1172 60.7696 42.6716 61.3235 43.357 61.3286H48.5548C48.7929 60.5488 48.9144 59.738 48.9154 58.9226V51.0794C48.9317 50.3758 48.3746 49.7919 47.6703 49.7744H42.112Z" fill="black"/>
<path opacity="0.1" d="M40.7509 46.2594V48.4003C40.8665 48.4071 40.9754 48.4139 41.091 48.4139C41.2067 48.4139 41.3155 48.4071 41.4312 48.4003C41.6608 48.3851 41.8886 48.3487 42.1115 48.2916C43.4892 47.9656 44.6274 47.0004 45.173 45.6953C45.2669 45.4761 45.3398 45.2485 45.3907 45.0156H41.9959C41.3094 45.0182 40.7535 45.5735 40.7509 46.2594Z" fill="black"/>
<path opacity="0.2" d="M41.4311 46.9401V48.4013C41.6608 48.3861 41.8885 48.3497 42.1115 48.2926C43.4891 47.9667 44.6273 47.0014 45.173 45.6963H42.6761C41.9896 45.6989 41.4337 46.2542 41.4311 46.9401Z" fill="black"/>
<path opacity="0.2" d="M41.4311 46.9401V48.4013C41.6608 48.3861 41.8885 48.3497 42.1115 48.2926C43.4891 47.9667 44.6273 47.0014 45.173 45.6963H42.6761C41.9896 45.6989 41.4337 46.2542 41.4311 46.9401Z" fill="black"/>
<path opacity="0.2" d="M42.1115 46.9401V48.2926C43.4892 47.9667 44.6273 47.0014 45.173 45.6963H43.3565C42.67 45.6989 42.1141 46.2542 42.1115 46.9401Z" fill="black"/>
<path d="M55.832 45.6963H43.3587C42.67 45.6963 42.1117 46.2541 42.1117 46.9421V59.403C42.1117 60.091 42.67 60.6488 43.3587 60.6488H55.832C56.5207 60.6488 57.079 60.091 57.079 59.403V46.9421C57.079 46.2541 56.5207 45.6963 55.832 45.6963Z" fill="url(#paint5_linear_150_134107)"/>
<path d="M46.3131 50.4389H48.8066V57.2219H50.3952V50.4389H52.877V49.123H46.3131V50.4389Z" fill="white"/>
<defs>
<linearGradient id="paint0_linear_150_134107" x1="36.1142" y1="1.26553" x2="66.3505" y2="102.557" gradientUnits="userSpaceOnUse">
<stop stop-color="#A9B1FF"/>
<stop offset="1" stop-color="#7B83EB"/>
</linearGradient>
<linearGradient id="paint1_linear_150_134107" x1="51.1716" y1="4.87392" x2="51.1716" y2="98.5341" gradientUnits="userSpaceOnUse">
<stop stop-color="#5A62C3"/>
<stop offset="0.5" stop-color="#4D55BD"/>
<stop offset="1" stop-color="#3940AB"/>
</linearGradient>
<linearGradient id="paint2_linear_150_134107" x1="36.1142" y1="1.26553" x2="66.3505" y2="102.557" gradientUnits="userSpaceOnUse">
<stop stop-color="#A9B1FF"/>
<stop offset="1" stop-color="#7B83EB"/>
</linearGradient>
<linearGradient id="paint3_linear_150_134107" x1="51.1716" y1="4.87392" x2="51.1716" y2="98.5341" gradientUnits="userSpaceOnUse">
<stop stop-color="#5A62C3"/>
<stop offset="0.5" stop-color="#4D55BD"/>
<stop offset="1" stop-color="#3940AB"/>
</linearGradient>
<linearGradient id="paint4_linear_150_134107" x1="66.1289" y1="42.3615" x2="66.1289" y2="22.5699" gradientUnits="userSpaceOnUse">
<stop offset="0.0994" stop-color="#E6E6E6"/>
<stop offset="0.9511" stop-color="white"/>
</linearGradient>
<linearGradient id="paint5_linear_150_134107" x1="54.4789" y1="44.7228" x2="44.7263" y2="61.6306" gradientUnits="userSpaceOnUse">
<stop stop-color="#5A62C3"/>
<stop offset="0.5" stop-color="#4D55BD"/>
<stop offset="1" stop-color="#3940AB"/>
</linearGradient>
</defs>
</svg>
