<svg width="103" height="103" viewBox="0 0 103 103" fill="none" xmlns="http://www.w3.org/2000/svg">
<path d="M51.447 97.9423C25.597 97.9423 4.63696 76.9923 4.63696 51.1323C4.63696 25.2723 25.597 4.32227 51.447 4.32227C77.297 4.32227 98.257 25.2823 98.257 51.1323C98.257 76.9823 77.297 97.9423 51.447 97.9423Z" fill="url(#paint0_linear_660_28956)"/>
<path fill-rule="evenodd" clip-rule="evenodd" d="M97.3471 51.1324C97.3471 76.4824 76.7971 97.0324 51.4471 97.0324C26.0971 97.0324 5.54713 76.4824 5.54713 51.1324C5.54713 25.7824 26.0971 5.23244 51.4471 5.23244C76.7971 5.23244 97.3471 25.7824 97.3471 51.1324ZM51.4471 1.49243C78.8671 1.49243 101.087 23.7124 101.087 51.1324C101.087 78.5524 78.8571 100.772 51.4471 100.772C24.0271 100.772 1.80713 78.5424 1.80713 51.1324C1.80713 23.7124 24.0271 1.49243 51.4471 1.49243Z" fill="#F2F1F0"/>
<path fill-rule="evenodd" clip-rule="evenodd" d="M94.5369 51.1324C94.5369 74.9324 75.2469 94.2224 51.4469 94.2224C27.6469 94.2224 8.35694 74.9324 8.35694 51.1324C8.35694 27.3324 27.6469 8.04237 51.4469 8.04237C75.2469 8.04237 94.5369 27.3324 94.5369 51.1324ZM51.4469 4.30237C77.3069 4.30237 98.2769 25.2724 98.2769 51.1324C98.2769 76.9924 77.3069 97.9624 51.4469 97.9624C25.5869 97.9624 4.61694 76.9924 4.61694 51.1324C4.61694 25.2724 25.5769 4.30237 51.4469 4.30237Z" fill="url(#paint1_linear_660_28956)"/>
<path fill-rule="evenodd" clip-rule="evenodd" d="M64.4689 64.2553V33.431H63.6689V65.0553H78.5084V64.2553H64.4689Z" fill="white"/>
<path fill-rule="evenodd" clip-rule="evenodd" d="M64.0688 53.7646H78.5083V54.5646H64.0688V53.7646Z" fill="white"/>
<path fill-rule="evenodd" clip-rule="evenodd" d="M64.0688 43.2742H78.5083V44.0742H64.0688V43.2742Z" fill="white"/>
<g opacity="0.15">
<path d="M36.1906 82.0875L65.3972 82.0875L65.3972 77.3144L36.1906 77.3144L36.1906 82.0875Z" fill="#1F1D20"/>
<path d="M63.1352 74.7171L70.8325 79.6795L63.1352 84.6418L63.1352 74.7171Z" fill="#1F1D20"/>
</g>
<path d="M36.1906 80.8678L65.3972 80.8678L65.3972 76.0946L36.1906 76.0946L36.1906 80.8678Z" fill="white"/>
<path d="M63.1352 73.4974L70.8325 78.4597L63.1352 83.4221L63.1352 73.4974Z" fill="white"/>
<g opacity="0.15">
<path d="M84.2181 39.8009H73.7875C73.1506 39.8009 72.6335 40.3179 72.6335 40.9549V47.3391C72.6335 47.976 73.1506 48.493 73.7875 48.493H84.2256C84.8625 48.5005 85.3795 47.9835 85.3795 47.3466V40.9624C85.372 40.3179 84.855 39.8009 84.2181 39.8009Z" fill="#1F1D20"/>
<path d="M84.2181 61.059H73.7875C73.1506 61.059 72.6335 61.576 72.6335 62.2129V68.6046C72.6335 69.2416 73.1506 69.7586 73.7875 69.7586H84.2256C84.8625 69.7586 85.3795 69.2416 85.3795 68.6046V62.2204C85.372 61.576 84.855 61.059 84.2181 61.059Z" fill="#1F1D20"/>
<path d="M84.2181 50.4111H73.7875C73.1506 50.4111 72.6335 50.9282 72.6335 51.5651V57.9493C72.6335 58.5862 73.1506 59.1033 73.7875 59.1033H84.2256C84.8625 59.1108 85.3795 58.5937 85.3795 57.9493V51.5651C85.372 50.9282 84.855 50.4111 84.2181 50.4111Z" fill="#1F1D20"/>
<path d="M58.4339 37.8901H68.8645C69.5014 37.8901 70.0184 37.373 70.0184 36.7361V30.3444C70.0184 29.7075 69.5014 29.1904 68.8645 29.1904H58.4264C57.7895 29.1904 57.2725 29.7075 57.2725 30.3444V36.7286C57.28 37.373 57.797 37.8901 58.4339 37.8901Z" fill="#1F1D20"/>
</g>
<path opacity="0.15" d="M58.6397 67.7311C59.2642 67.7311 59.7676 67.2277 59.7676 66.6032V29.3921H20.4604V66.6081C20.4604 67.2325 20.9639 67.736 21.5884 67.736H58.6397V67.7311Z" fill="#1F1D20"/>
<path d="M59.7628 29.6818V29.0719C59.7628 28.3167 59.1529 27.7068 58.3977 27.7068H21.8256C21.0704 27.7068 20.4604 28.3167 20.4604 29.0719V29.7496V30.3692V65.3681C20.4604 66.1233 21.0704 66.7332 21.8256 66.7332H58.4074C59.1625 66.7332 59.7725 66.1233 59.7725 65.3681V29.7496C59.7725 29.7254 59.7628 29.706 59.7628 29.6818Z" fill="white"/>
<path d="M27.5938 44.2807L37.0626 36.977L39.2599 35.2804C39.5436 35.0613 39.8925 34.9437 40.2509 34.9462C40.6092 34.9487 40.9564 35.0713 41.237 35.2943L43.4044 37.0174L52.7768 44.4584L40.1163 54.2262L27.5938 44.2807Z" fill="url(#paint2_linear_660_28956)"/>
<path opacity="0.15" d="M47.7142 53.4937H34.8773C34.3699 53.4937 33.9553 53.0827 33.9553 52.5717V35.1211C33.9553 34.5136 34.4485 34.0204 35.056 34.0204H48.0537C48.6184 34.0204 49.0722 34.4778 49.0722 35.0389V52.1392C49.0722 52.8861 48.4647 53.4937 47.7142 53.4937Z" fill="#1F1D20"/>
<path d="M47.7142 52.9301H34.8773C34.3699 52.9301 33.9553 52.5191 33.9553 52.0081V34.5575C33.9553 33.95 34.4485 33.4568 35.056 33.4568H48.0537C48.6184 33.4568 49.0722 33.9142 49.0722 34.4753V51.5756C49.0722 52.3225 48.4647 52.9301 47.7142 52.9301Z" fill="#DADADA"/>
<path d="M45.0063 36.8844H37.1218C36.7758 36.8844 36.5027 37.1757 36.5027 37.5035C36.5027 37.8495 36.794 38.1226 37.1218 38.1226H45.0063C45.3522 38.1226 45.6254 37.8313 45.6254 37.5035C45.6254 37.1575 45.3522 36.8844 45.0063 36.8844Z" fill="#45CAF2"/>
<path d="M45.0063 39.5795H37.1218C36.7758 39.5795 36.5027 39.8708 36.5027 40.1986C36.5027 40.5445 36.794 40.8177 37.1218 40.8177H45.0063C45.3522 40.8177 45.6254 40.5263 45.6254 40.1986C45.6254 39.8708 45.3522 39.5795 45.0063 39.5795Z" fill="#0078D4"/>
<path fill-rule="evenodd" clip-rule="evenodd" d="M37.1218 42.4933H41.0549C41.4009 42.4933 41.674 42.7846 41.674 43.1124C41.674 43.4584 41.3827 43.7315 41.0549 43.7315H37.1218C36.7758 43.7315 36.5027 43.4402 36.5027 43.1124C36.5027 42.7664 36.7758 42.4933 37.1218 42.4933Z" fill="#185A97"/>
<path opacity="0.15" d="M45.6581 55.2558H32.8212C32.3137 55.2558 31.8992 54.8448 31.8992 54.3337V36.8832C31.8992 36.2756 32.3923 35.7825 32.9999 35.7825H45.9976C46.5622 35.7825 47.0161 36.2399 47.0161 36.801V53.9013C47.0161 54.6482 46.4085 55.2558 45.6581 55.2558Z" fill="#1F1D20"/>
<path d="M45.6581 54.6922H32.8212C32.3137 54.6922 31.8992 54.2812 31.8992 53.7701V36.3196C31.8992 35.712 32.3923 35.2189 32.9999 35.2189H45.9976C46.5622 35.2189 47.0161 35.6763 47.0161 36.2374V53.3377C47.0161 54.0846 46.4085 54.6922 45.6581 54.6922Z" fill="white"/>
<path d="M42.9501 38.6464H35.0656C34.7197 38.6464 34.4465 38.9377 34.4465 39.2655C34.4465 39.6114 34.7379 39.8846 35.0656 39.8846H42.9501C43.2961 39.8846 43.5692 39.5932 43.5692 39.2655C43.5692 38.9195 43.2961 38.6464 42.9501 38.6464Z" fill="#45CAF2"/>
<path d="M42.9501 41.3412H35.0656C34.7197 41.3412 34.4465 41.6325 34.4465 41.9603C34.4465 42.3063 34.7379 42.5794 35.0656 42.5794H42.9501C43.2961 42.5794 43.5692 42.2881 43.5692 41.9603C43.5692 41.6325 43.2961 41.3412 42.9501 41.3412Z" fill="#0078D4"/>
<path fill-rule="evenodd" clip-rule="evenodd" d="M35.0656 44.255H38.9988C39.3447 44.255 39.6179 44.5463 39.6179 44.8741C39.6179 45.2201 39.3265 45.4932 38.9988 45.4932H35.0656C34.7197 45.4932 34.4465 45.2019 34.4465 44.8741C34.4465 44.5281 34.7197 44.255 35.0656 44.255Z" fill="#185A97"/>
<path d="M36.966 51.7218L27.6668 61.0209C27.5155 60.8723 27.3954 60.695 27.3135 60.4994C27.2316 60.3038 27.1895 60.0938 27.1897 59.8818V45.3391C27.1887 44.9485 27.3326 44.5714 27.5937 44.2808L36.966 51.7218Z" fill="url(#paint3_linear_660_28956)"/>
<path fill-rule="evenodd" clip-rule="evenodd" d="M52.5666 61.021C52.4179 61.1722 52.2406 61.2922 52.045 61.3741C51.8494 61.4559 51.6394 61.4979 51.4274 61.4977H28.8055C28.5935 61.4979 28.3837 61.4559 28.1881 61.374C27.9926 61.2922 27.8153 61.1721 27.6667 61.021L36.9659 51.7218L38.8591 49.8646C39.1948 49.5353 39.6462 49.3508 40.1164 49.3508C40.5866 49.3508 41.0381 49.5353 41.3737 49.8646L43.3077 51.7622L52.5666 61.021Z" fill="url(#paint4_linear_660_28956)"/>
<path d="M53.0436 45.3391V59.8818C53.0438 60.0938 53.0018 60.3038 52.92 60.4994C52.8381 60.695 52.7181 60.8723 52.5669 61.0209L43.3081 51.7621L52.777 44.4585C52.951 44.7192 53.0438 45.0257 53.0436 45.3391V45.3391Z" fill="url(#paint5_linear_660_28956)"/>
<path d="M84.2181 39.0509H73.7875C73.1506 39.0509 72.6335 39.5679 72.6335 40.2049V46.5891C72.6335 47.226 73.1506 47.743 73.7875 47.743H84.2256C84.8625 47.7505 85.3795 47.2335 85.3795 46.5966V40.2124C85.372 39.5679 84.855 39.0509 84.2181 39.0509Z" fill="#0364B8"/>
<path d="M84.2181 60.309H73.7875C73.1506 60.309 72.6335 60.826 72.6335 61.4629V67.8546C72.6335 68.4916 73.1506 69.0086 73.7875 69.0086H84.2256C84.8625 69.0086 85.3795 68.4916 85.3795 67.8546V61.4704C85.372 60.826 84.855 60.309 84.2181 60.309Z" fill="#0F335E"/>
<path d="M84.2181 49.6611H73.7875C73.1506 49.6611 72.6335 50.1782 72.6335 50.8151V57.1993C72.6335 57.8362 73.1506 58.3533 73.7875 58.3533H84.2256C84.8625 58.3608 85.3795 57.8437 85.3795 57.1993V50.8151C85.372 50.1782 84.855 49.6611 84.2181 49.6611Z" fill="#14447D"/>
<path d="M58.4339 37.1401H68.8645C69.5014 37.1401 70.0184 36.623 70.0184 35.9861V29.5944C70.0184 28.9575 69.5014 28.4404 68.8645 28.4404H58.4264C57.7895 28.4404 57.2725 28.9575 57.2725 29.5944V35.9786C57.28 36.623 57.797 37.1401 58.4339 37.1401Z" fill="#0364B8"/>
<defs>
<linearGradient id="paint0_linear_660_28956" x1="49.6731" y1="-13.6572" x2="53.6551" y2="132.113" gradientUnits="userSpaceOnUse">
<stop stop-color="#00ABDE"/>
<stop offset="1" stop-color="#007ED8"/>
</linearGradient>
<linearGradient id="paint1_linear_660_28956" x1="2.87734" y1="-20.4902" x2="98.4049" y2="120.391" gradientUnits="userSpaceOnUse">
<stop stop-color="#007ED8"/>
<stop offset="0.7065" stop-color="#002D4C"/>
</linearGradient>
<linearGradient id="paint2_linear_660_28956" x1="40.1852" y1="54.2262" x2="40.1852" y2="34.9116" gradientUnits="userSpaceOnUse">
<stop stop-color="#005BA1"/>
<stop offset="0.26" stop-color="#00589D"/>
<stop offset="0.53" stop-color="#004F90"/>
<stop offset="0.8" stop-color="#003F7C"/>
<stop offset="1" stop-color="#003067"/>
</linearGradient>
<linearGradient id="paint3_linear_660_28956" x1="25.8753" y1="45.2729" x2="33.1422" y2="57.8597" gradientUnits="userSpaceOnUse">
<stop stop-color="#008BF1"/>
<stop offset="0.22" stop-color="#0086EC"/>
<stop offset="0.49" stop-color="#0078DD"/>
<stop offset="0.79" stop-color="#0061C4"/>
<stop offset="1" stop-color="#004DAE"/>
</linearGradient>
<linearGradient id="paint4_linear_660_28956" x1="40.1167" y1="61.4977" x2="40.1167" y2="49.3508" gradientUnits="userSpaceOnUse">
<stop stop-color="#004DAE"/>
<stop offset="0.21" stop-color="#0061C4"/>
<stop offset="0.51" stop-color="#0078DD"/>
<stop offset="0.78" stop-color="#0086EC"/>
<stop offset="1" stop-color="#008BF1"/>
</linearGradient>
<linearGradient id="paint5_linear_660_28956" x1="48.1758" y1="44.4585" x2="48.1758" y2="61.021" gradientUnits="userSpaceOnUse">
<stop stop-color="#008BF1"/>
<stop offset="0.22" stop-color="#0086EC"/>
<stop offset="0.49" stop-color="#0078DD"/>
<stop offset="0.79" stop-color="#0061C4"/>
<stop offset="1" stop-color="#004DAE"/>
</linearGradient>
</defs>
</svg>
