<svg width="103" height="103" viewBox="0 0 103 103" fill="none" xmlns="http://www.w3.org/2000/svg">
<path d="M51.374 98.6844C25.524 98.6844 4.56403 77.7345 4.56403 51.8745C4.56403 26.0145 25.524 5.06445 51.374 5.06445C77.224 5.06445 98.184 26.0245 98.184 51.8745C98.184 77.7245 77.224 98.6844 51.374 98.6844Z" fill="url(#paint0_linear_342_58326)"/>
<path fill-rule="evenodd" clip-rule="evenodd" d="M97.274 51.8744C97.274 77.2244 76.724 97.7744 51.374 97.7744C26.024 97.7744 5.47401 77.2244 5.47401 51.8744C5.47401 26.5244 26.024 5.97438 51.374 5.97438C76.724 5.97438 97.274 26.5244 97.274 51.8744ZM51.374 2.23438C78.794 2.23438 101.014 24.4544 101.014 51.8744C101.014 79.2944 78.784 101.514 51.374 101.514C23.954 101.514 1.73401 79.2844 1.73401 51.8744C1.73401 24.4544 23.954 2.23438 51.374 2.23438Z" fill="#F2F1F0"/>
<path fill-rule="evenodd" clip-rule="evenodd" d="M94.464 51.8749C94.464 75.6749 75.174 94.9649 51.374 94.9649C27.574 94.9649 8.28401 75.6749 8.28401 51.8749C8.28401 28.0749 27.574 8.78493 51.374 8.78493C75.174 8.78493 94.464 28.0749 94.464 51.8749ZM51.374 5.04492C77.234 5.04492 98.204 26.0149 98.204 51.8749C98.204 77.7349 77.234 98.7049 51.374 98.7049C25.514 98.7049 4.54401 77.7349 4.54401 51.8749C4.54401 26.0149 25.504 5.04492 51.374 5.04492Z" fill="url(#paint1_linear_342_58326)"/>
<path opacity="0.15" d="M84.1602 39.0586H28.4187V76.439H84.1602V39.0586Z" fill="#1F1D20"/>
<path d="M83.1183 30.3426H48.4877L45.6862 27.3604H29.4915V65.1901H83.1183V30.3426Z" fill="#092E4C"/>
<path d="M84.1602 35.8408H28.4187V73.2212H84.1602V35.8408Z" fill="url(#paint2_linear_342_58326)"/>
<path d="M75.0445 56.7559C75.0554 56.6797 75.0772 56.6036 75.088 56.5383C75.2921 55.4615 75.2566 54.3529 74.9839 53.2914C74.7113 52.2298 74.2082 51.2414 73.5105 50.3962C72.8127 49.551 71.9374 48.8698 70.9467 48.401C69.956 47.9322 68.8743 47.6874 67.7783 47.6838C67.2177 47.6819 66.6589 47.7477 66.114 47.8796C65.003 46.1273 63.3531 44.7832 61.4123 44.0495C59.4716 43.3158 57.3451 43.2322 55.3527 43.8112C53.3604 44.3903 51.61 45.6007 50.3648 47.2603C49.1197 48.92 48.4472 50.9391 48.4486 53.0139C48.4486 53.1444 48.4486 53.275 48.4594 53.4055C47.9617 53.238 47.4399 53.1535 46.9148 53.1553C45.7061 53.1555 44.5437 53.6203 43.6681 54.4536C42.7925 55.2868 42.2707 56.4247 42.2106 57.632C42.1505 58.8392 42.5568 60.0233 43.3453 60.9394C44.1338 61.8554 45.2443 62.4334 46.447 62.5536L67.7673 62.5971C69.0943 62.5955 70.3971 62.2411 71.542 61.5702C72.687 60.8993 73.633 59.936 74.283 58.779C74.3156 58.7137 74.3591 58.6485 74.3918 58.5832C74.6798 58.0016 74.8989 57.3883 75.0445 56.7559Z" fill="white"/>
<path opacity="0.15" d="M36.3192 64.9828C36.7036 64.9828 37.0085 64.6779 37.0085 64.2934V40.9473H12.9929V64.3C12.9929 64.6845 13.2978 64.9894 13.6823 64.9894L36.3192 64.9828Z" fill="#1F1D20"/>
<path d="M37.0019 41.1459V40.7747C37.0019 40.3107 36.6307 39.9395 36.1667 39.9395H13.8281C13.3641 39.9395 12.9929 40.3107 12.9929 40.7747V41.1856V41.5635V63.564C12.9929 64.028 13.3641 64.3992 13.8281 64.3992H36.1733C36.6373 64.3992 37.0085 64.028 37.0085 63.564V41.1923C37.0085 41.1724 37.0019 41.1658 37.0019 41.1459Z" fill="white"/>
<path d="M21.7898 56.9155L28.1212 50.077C30.3652 50.2916 31.116 49.8155 31.7779 49.1007C32.1681 48.6224 32.4344 48.0554 32.5534 47.4498C32.6725 46.8442 32.6404 46.2185 32.4602 45.6282L30.258 47.9275C30.1872 48.0014 30.0903 48.0444 29.9881 48.0474C29.8858 48.0503 29.7866 48.0129 29.7117 47.9433L28.8113 47.104L27.9108 46.2648C27.8359 46.1949 27.7913 46.0985 27.7867 45.9961C27.7821 45.8937 27.8178 45.7937 27.8862 45.7173L30.0094 43.3439C29.4091 43.2073 28.7843 43.2215 28.1908 43.3853C27.5973 43.549 27.0537 43.8573 26.6084 44.2824C25.9377 45.007 25.5576 45.7718 25.8861 47.8775L19.4392 54.8411C18.0119 54.7238 16.8628 54.8091 15.9193 55.8287C15.529 56.3068 15.2625 56.8738 15.1435 57.4794C15.0244 58.0851 15.0565 58.7107 15.2368 59.301L17.4389 57.0013C17.5096 56.9273 17.6065 56.8842 17.7088 56.8813C17.8111 56.8784 17.9103 56.9159 17.9851 56.9858L18.8856 57.8254L19.786 58.6642C19.861 58.7341 19.9056 58.8306 19.9102 58.933C19.9149 59.0354 19.8793 59.1356 19.8111 59.2121L17.6877 61.5845C18.2751 61.7168 18.8856 61.7058 19.4679 61.5527C20.0502 61.3995 20.5871 61.1085 21.0334 60.7044C21.7465 59.972 22.1683 59.1454 21.7898 56.9155Z" fill="#092E4C"/>
<path opacity="0.2" d="M26.2401 48.5049L26.7932 49.0191L20.084 56.2357L19.5309 55.7215L26.2401 48.5049Z" fill="#53B1E0"/>
<path opacity="0.17" d="M23.9884 49.7441L26.7815 51.5448L25.6666 52.9014L23.9884 49.7441Z" fill="#1F56A3"/>
<path d="M19.0535 46.2917L19.8854 45.4912L28.0007 53.9256L27.1688 54.726L19.0535 46.2917Z" fill="#1F56A3"/>
<path d="M34.5467 58.0594L31.7061 55.1L30.5789 55.0638L30.5545 53.8996L29.3785 52.6741C29.3431 52.6391 29.3012 52.6113 29.2551 52.5925C29.209 52.5737 29.1596 52.5642 29.1098 52.5645C29.06 52.5647 29.0107 52.5748 28.9648 52.5941C28.9189 52.6135 28.8773 52.6416 28.8423 52.6771L27.3136 54.1539L27.3148 54.1556L27.3134 54.1541L25.8587 55.5593C25.788 55.6277 25.7473 55.7213 25.7455 55.8196C25.7437 55.9179 25.7808 56.0129 25.8489 56.0839L27.0248 57.3091L28.1558 57.4041L28.1764 58.5093L31.0166 61.4687C31.1454 61.6033 31.2995 61.7111 31.4701 61.786C31.6407 61.8608 31.8244 61.9012 32.0106 61.9048C32.1969 61.9084 32.382 61.8752 32.5554 61.8071C32.7287 61.7389 32.8869 61.6372 33.0209 61.5077L33.721 60.8314L33.7087 60.8186L33.7218 60.8312L34.4574 60.1207C34.7415 59.8585 34.9104 59.4946 34.9271 59.1084C34.9438 58.7222 34.8071 58.3451 34.5467 58.0594V58.0594Z" fill="#0078D4"/>
<path d="M18.3923 43.1739C18.3482 43.1278 18.2953 43.0909 18.2368 43.0652C18.1784 43.0396 18.1154 43.0258 18.0516 43.0245C17.9877 43.0233 17.9243 43.0346 17.8649 43.058C17.8054 43.0813 17.7512 43.1161 17.7053 43.1605L16.8302 44.0058C16.7374 44.0958 16.6839 44.2188 16.6815 44.348C16.6791 44.4772 16.7279 44.6021 16.8173 44.6954L18.2614 46.2004L19.0652 46.2912L19.8966 45.4883L19.8259 44.668L18.3923 43.1739Z" fill="#1F56A3"/>
<path d="M18.2297 46.167L18.2622 46.2007L19.0654 46.2909L19.8968 45.488L19.8265 44.6676L19.8051 44.6455L18.2297 46.167Z" fill="#003067"/>
<path d="M32.2903 59.8365C32.336 59.884 32.361 59.9478 32.3597 60.0138C32.3585 60.0797 32.3311 60.1425 32.2837 60.1883L32.145 60.3224C32.1216 60.3451 32.0939 60.3628 32.0636 60.3748C32.0333 60.3867 32.0009 60.3925 31.9683 60.3919C31.9357 60.3912 31.9036 60.3842 31.8738 60.3711C31.8439 60.3581 31.8169 60.3392 31.7944 60.3157L29.2291 57.6424C29.1834 57.5948 29.1584 57.531 29.1597 57.4651C29.1609 57.3991 29.1883 57.3363 29.2357 57.2905L29.3743 57.1564C29.3978 57.1338 29.4255 57.116 29.4558 57.1041C29.4861 57.0921 29.5185 57.0863 29.5511 57.087C29.5836 57.0876 29.6158 57.0946 29.6456 57.1077C29.6755 57.1207 29.7025 57.1396 29.725 57.1631L32.2903 59.8365Z" fill="#1B93EB"/>
<path d="M33.4416 58.7238C33.4873 58.7714 33.5122 58.835 33.5111 58.9009C33.5099 58.9668 33.4827 59.0296 33.4354 59.0754L33.2965 59.2096C33.2731 59.2322 33.2454 59.25 33.2151 59.2619C33.1847 59.2738 33.1524 59.2796 33.1198 59.279C33.0872 59.2784 33.0551 59.2713 33.0252 59.2583C32.9954 59.2452 32.9684 59.2264 32.9458 59.2029L30.3818 56.5303C30.3362 56.4827 30.3113 56.419 30.3125 56.3531C30.3137 56.2872 30.3409 56.2245 30.3882 56.1785L30.5268 56.045C30.5502 56.0224 30.5779 56.0046 30.6082 55.9927C30.6385 55.9808 30.6709 55.975 30.7035 55.9756C30.736 55.9763 30.7681 55.9833 30.798 55.9964C30.8278 56.0095 30.8547 56.0284 30.8773 56.0519L33.4416 58.7238Z" fill="#1B93EB"/>
<defs>
<linearGradient id="paint0_linear_342_58326" x1="49.6001" y1="-12.915" x2="53.5821" y2="132.855" gradientUnits="userSpaceOnUse">
<stop stop-color="#00ABDE"/>
<stop offset="1" stop-color="#007ED8"/>
</linearGradient>
<linearGradient id="paint1_linear_342_58326" x1="2.80441" y1="-19.7477" x2="98.3319" y2="121.134" gradientUnits="userSpaceOnUse">
<stop stop-color="#007ED8"/>
<stop offset="0.7065" stop-color="#002D4C"/>
</linearGradient>
<linearGradient id="paint2_linear_342_58326" x1="56.2895" y1="35.8408" x2="56.2895" y2="73.2212" gradientUnits="userSpaceOnUse">
<stop stop-color="#008BF1"/>
<stop offset="0.22" stop-color="#0086EC"/>
<stop offset="0.49" stop-color="#0078DD"/>
<stop offset="0.79" stop-color="#0061C4"/>
<stop offset="1" stop-color="#004DAE"/>
</linearGradient>
</defs>
</svg>
