<svg width="103" height="103" viewBox="0 0 103 103" fill="none" xmlns="http://www.w3.org/2000/svg">
<path d="M51.6036 98.0184C25.7536 98.0184 4.79358 77.0684 4.79358 51.2084C4.79358 25.3484 25.7536 4.39844 51.6036 4.39844C77.4536 4.39844 98.4136 25.3584 98.4136 51.2084C98.4136 77.0584 77.4536 98.0184 51.6036 98.0184Z" fill="url(#paint0_linear_149_122718)"/>
<path fill-rule="evenodd" clip-rule="evenodd" d="M51.6041 1.20801C79.2141 1.20801 101.604 23.598 101.604 51.208C101.604 78.818 79.2141 101.208 51.6041 101.208C23.9941 101.208 1.60413 78.818 1.60413 51.208C1.60413 23.598 23.9941 1.20801 51.6041 1.20801ZM51.6041 96.968C76.8741 96.968 97.3641 76.478 97.3641 51.208C97.3641 25.938 76.8741 5.44801 51.6041 5.44801C26.3341 5.44801 5.84413 25.938 5.84413 51.208C5.84413 76.478 26.3341 96.968 51.6041 96.968Z" fill="#D9D9D9"/>
<path fill-rule="evenodd" clip-rule="evenodd" d="M97.5035 51.2084C97.5035 76.5584 76.9535 97.1084 51.6035 97.1084C26.2535 97.1084 5.7035 76.5584 5.7035 51.2084C5.7035 25.8584 26.2535 5.30836 51.6035 5.30836C76.9535 5.30836 97.5035 25.8584 97.5035 51.2084ZM51.6035 1.56836C79.0235 1.56836 101.243 23.7884 101.243 51.2084C101.243 78.6284 79.0135 100.848 51.6035 100.848C24.1835 100.848 1.9635 78.6184 1.9635 51.2084C1.9635 23.7884 24.1835 1.56836 51.6035 1.56836Z" fill="#F2F1F0"/>
<path fill-rule="evenodd" clip-rule="evenodd" d="M51.604 94.2979C27.8041 94.2979 8.51405 75.0079 8.51405 51.2079C8.51405 27.4079 27.8041 8.11793 51.604 8.11793C75.404 8.11793 94.694 27.4079 94.694 51.2079C94.694 75.0079 75.404 94.2979 51.604 94.2979ZM98.4341 51.2079C98.4341 77.0679 77.4641 98.0379 51.604 98.0379C25.744 98.0379 4.77405 77.0679 4.77405 51.2079C4.77405 25.3479 25.744 4.37793 51.604 4.37793C77.4641 4.37793 98.4341 25.3379 98.4341 51.2079Z" fill="url(#paint1_linear_149_122718)"/>
<path d="M55.1539 27.1115C56.288 27.1115 57.2159 26.1836 57.1953 25.0495C57.1953 23.9154 56.2674 22.9875 55.1333 23.0081C53.9992 23.0081 53.0713 23.936 53.092 25.0701C53.092 26.1836 54.0198 27.1115 55.1539 27.1115Z" fill="#737373"/>
<path d="M68.0207 17.2764H42.081C40.2665 17.2764 38.8025 18.7198 38.8025 20.4931V81.7339C38.8025 83.0329 39.8747 84.0845 41.1944 84.0845H68.5775C69.8971 84.0845 70.9694 83.0329 70.9694 81.7339V20.1838C70.9488 18.5754 69.6291 17.2764 68.0207 17.2764Z" fill="#E6E6E6"/>
<path d="M69.5465 17.2764H46.9884L70.9693 39.2158V18.6991C70.9486 17.9156 70.33 17.2764 69.5465 17.2764Z" fill="url(#paint2_linear_149_122718)"/>
<path d="M69.5465 17.2764H40.7407C39.9571 17.2764 39.3179 17.9156 39.3179 18.6991V22.7406H70.9487V18.6991C70.9487 17.9156 70.3301 17.2764 69.5465 17.2764Z" fill="#7B83EB"/>
<path d="M67.5878 15.6055H42.4316C39.6686 15.6055 37.421 17.853 37.421 20.6161V80.7228C37.421 83.4859 39.6686 85.7334 42.4316 85.7334H67.5878C70.3508 85.7334 72.5984 83.4859 72.5984 80.7228V20.6161C72.5984 17.853 70.3508 15.6055 67.5878 15.6055ZM70.5158 80.4341C70.5158 82.1456 69.1137 83.5477 67.4022 83.5477H42.6172C40.9058 83.5477 39.5036 82.1456 39.5036 80.4341V20.9048C39.5036 19.1933 40.9058 17.7912 42.6172 17.7912H67.3816C69.093 17.7912 70.4952 19.1933 70.4952 20.9048V80.4341H70.5158Z" fill="#3B42AD"/>
<path d="M46.5554 17.6885V18.1421C46.5554 19.2556 47.4627 20.1629 48.5761 20.1629H61.6903C62.8038 20.1629 63.7111 19.2556 63.7111 18.1421V17.6885H46.5554Z" fill="#3B42AD"/>
<path d="M58.8453 19.1935C59.1546 19.1935 59.4021 18.9461 59.4021 18.6368C59.4021 18.3275 59.1546 18.0801 58.8453 18.0801C58.536 18.0801 58.2886 18.3275 58.2886 18.6368C58.3092 18.9667 58.5567 19.1935 58.8453 19.1935Z" fill="#737373"/>
<path d="M53.3395 19.1109H56.8242C57.0511 19.1109 57.2366 18.9253 57.2366 18.6985C57.2366 18.4717 57.0511 18.2861 56.8242 18.2861H53.3395C53.1127 18.2861 52.9271 18.4717 52.9271 18.6985C52.9271 18.946 53.1127 19.1109 53.3395 19.1109Z" fill="#737373"/>
<path d="M60.6182 82.7643H49.5248C49.3392 82.7643 49.1949 82.62 49.1949 82.4344C49.1949 82.2488 49.3392 82.1045 49.5248 82.1045H60.6182C60.8038 82.1045 60.9481 82.2488 60.9481 82.4344C60.9481 82.62 60.8038 82.7643 60.6182 82.7643Z" fill="#E6E6E6"/>
<path opacity="0.15" d="M42.5243 64.5968H15.4043C14.6443 64.5968 14.0343 63.9768 14.0343 63.2268V38.1268C14.0343 37.3668 14.6443 36.7568 15.4043 36.7568H42.5243C43.2843 36.7568 43.8943 37.3668 43.8943 38.1268V63.2168C43.8943 63.9768 43.2743 64.5968 42.5243 64.5968Z" fill="#1F1D20"/>
<path d="M42.5243 64.5866H15.4043C14.6443 64.5866 14.0343 63.9766 14.0343 63.2166V38.1366C14.0343 37.3766 14.6443 36.7666 15.4043 36.7666H42.5243C43.2843 36.7666 43.8943 37.3766 43.8943 38.1366V63.2266C43.8943 63.9766 43.2743 64.5866 42.5243 64.5866Z" fill="white"/>
<path d="M34.9043 44.8768C34.9043 44.2568 34.4043 43.7568 33.7843 43.7568H20.3343C19.7143 43.7568 19.2143 44.2568 19.2143 44.8768C19.2143 45.4968 19.7143 45.9968 20.3343 45.9968H33.7943C34.4143 45.9868 34.9043 45.4968 34.9043 44.8768Z" fill="url(#paint3_linear_149_122718)"/>
<path d="M38.7143 44.8768C38.7143 44.2568 38.2143 43.7568 37.5943 43.7568H33.9343C33.3143 43.7568 33.7143 44.2568 33.7143 44.8768C33.7143 45.4968 33.3243 45.9968 33.9343 45.9968H37.6043C38.2043 45.9868 38.7143 45.4968 38.7143 44.8768Z" fill="#9B9BA0"/>
<path d="M32.1243 44.8765C32.1243 46.1065 33.1143 47.1065 34.3543 47.1065C35.5943 47.1065 36.5843 46.1165 36.5843 44.8765C36.5843 43.6465 35.5743 42.6465 34.3443 42.6465C33.1243 42.6665 32.1243 43.6465 32.1243 44.8765Z" fill="#50E6FF"/>
<path d="M30.7743 50.5067C30.7743 49.8867 30.2743 49.3867 29.6543 49.3867H20.3343C19.7143 49.3867 19.2143 49.8867 19.2143 50.5067C19.2143 51.1267 19.7143 51.6267 20.3343 51.6267H29.6743C30.2843 51.6167 30.7743 51.1267 30.7743 50.5067Z" fill="url(#paint4_linear_149_122718)"/>
<path d="M38.7143 50.5067C38.7143 49.8867 38.2143 49.3867 37.5943 49.3867H30.3343C29.7143 49.3867 29.2143 49.8867 29.2143 50.5067C29.2143 51.1267 29.7143 51.6267 30.3343 51.6267H37.6043C38.2043 51.6167 38.7143 51.1267 38.7143 50.5067Z" fill="#9B9BA0"/>
<path d="M27.2543 50.5064C27.2543 51.7364 28.2443 52.7364 29.4843 52.7364C30.7243 52.7364 31.7143 51.7464 31.7143 50.5064C31.7143 49.2764 30.7243 48.2764 29.4843 48.2764C28.2443 48.2764 27.2543 49.2764 27.2543 50.5064Z" fill="#35AFE4"/>
<path d="M25.5843 56.4764C25.5843 55.8564 25.0843 55.3564 24.4643 55.3564H20.3343C19.7143 55.3664 19.2143 55.8564 19.2143 56.4764C19.2143 57.0964 19.7143 57.5964 20.3343 57.5964H24.4643C25.0843 57.5764 25.5843 57.0864 25.5843 56.4764Z" fill="url(#paint5_linear_149_122718)"/>
<path d="M38.7143 56.4764C38.7143 55.8564 38.2143 55.3564 37.5943 55.3564H25.5643C24.9443 55.3564 24.4443 55.8564 24.4443 56.4764C24.4443 57.0964 24.9443 57.5964 25.5643 57.5964H37.5943C38.2043 57.5764 38.7143 57.0864 38.7143 56.4764Z" fill="#9B9BA0"/>
<path d="M22.6643 56.4761C22.6643 57.7061 23.6543 58.7061 24.8943 58.7061C26.1243 58.7061 27.1243 57.7161 27.1243 56.4761C27.1243 55.2461 26.1343 54.2461 24.8943 54.2461C23.6543 54.2461 22.6643 55.2461 22.6643 56.4761Z" fill="#2E76BC"/>
<path opacity="0.15" d="M85.7113 72.4966C86.3555 72.4966 86.8748 71.9773 86.8748 71.3331V32.9492H46.3287V71.3381C46.3287 71.9823 46.848 72.5016 47.4922 72.5016H85.7113V72.4966Z" fill="#1F1D20"/>
<path d="M86.8698 33.2941V32.665C86.8698 31.886 86.2406 31.2568 85.4616 31.2568H47.7369C46.9579 31.2568 46.3287 31.886 46.3287 32.665V33.364V34.0032V70.1051C46.3287 70.8841 46.9579 71.5132 47.7369 71.5132H85.4716C86.2506 71.5132 86.8797 70.8841 86.8797 70.1051V33.364C86.8797 33.3391 86.8698 33.3191 86.8698 33.2941Z" fill="white"/>
<path d="M61.7092 47.918H54.8075C54.1554 47.918 53.6268 48.446 53.6268 49.0974V55.3778C53.6268 57.7719 55.5695 59.7127 57.966 59.7127H57.9865C60.383 59.713 62.3259 57.7725 62.3263 55.3784C62.3263 55.3782 62.3263 55.378 62.3263 55.3778V48.5344C62.3263 48.194 62.05 47.918 61.7092 47.918Z" fill="#5059C9"/>
<path d="M57.0444 46.6758C55.5001 46.6758 54.2482 45.4251 54.2482 43.8823C54.2482 42.3396 55.5001 41.0889 57.0444 41.0889C58.5888 41.0889 59.8407 42.3396 59.8407 43.8823C59.8407 45.4251 58.5888 46.6758 57.0444 46.6758Z" fill="#5059C9"/>
<path d="M65.7436 46.6765C63.5129 46.6765 61.7046 44.87 61.7046 42.6415C61.7046 40.413 63.5129 38.6064 65.7436 38.6064C67.9743 38.6064 69.7827 40.413 69.7827 42.6415C69.7827 44.87 67.9743 46.6765 65.7436 46.6765Z" fill="#7B83EB"/>
<path d="M60.3582 47.918H71.7508C72.395 47.9339 72.9047 48.4681 72.8898 49.1117V56.2748C72.9797 60.1374 69.9208 63.3428 66.0545 63.4373C62.1881 63.3428 59.1292 60.1374 59.2192 56.2748V49.1117C59.2042 48.4681 59.7139 47.9339 60.3582 47.918Z" fill="#7B83EB"/>
<path opacity="0.1" d="M65.4334 47.918V57.9559C65.4365 58.4162 65.7157 58.8297 66.1418 59.005C66.2775 59.0623 66.4233 59.0919 66.5706 59.0919H72.3433C72.4241 58.887 72.4986 58.6822 72.5608 58.4711C72.7783 57.7588 72.8893 57.0183 72.8901 56.2736V49.1099C72.9051 48.4672 72.3962 47.9339 71.753 47.918H65.4334Z" fill="black"/>
<path opacity="0.2" d="M66.0548 47.918V58.5766C66.0548 58.7238 66.0844 58.8695 66.1418 59.005C66.3172 59.4306 66.7312 59.7096 67.192 59.7127H72.0512C72.1569 59.5078 72.2563 59.3029 72.3433 59.0919C72.4303 58.8808 72.4986 58.6822 72.5608 58.4711C72.7783 57.7588 72.8893 57.0183 72.8901 56.2736V49.1099C72.9051 48.4672 72.3962 47.9339 71.753 47.918H66.0548Z" fill="black"/>
<path opacity="0.2" d="M66.0548 47.918V57.3351C66.0596 57.9605 66.5659 58.4664 67.192 58.4711H72.5608C72.7783 57.7588 72.8893 57.0183 72.8901 56.2736V49.1099C72.9051 48.4672 72.3962 47.9339 71.753 47.918H66.0548Z" fill="black"/>
<path opacity="0.2" d="M66.6762 47.918V57.3351C66.681 57.9605 67.1873 58.4664 67.8134 58.4711H72.5608C72.7783 57.7588 72.8893 57.0183 72.8901 56.2736V49.1099C72.9051 48.4672 72.3962 47.9339 71.753 47.918H66.6762Z" fill="black"/>
<path opacity="0.1" d="M65.4329 44.7083V46.6637C65.5385 46.6699 65.6379 46.6761 65.7436 46.6761C65.8492 46.6761 65.9486 46.6699 66.0543 46.6637C66.264 46.6498 66.472 46.6166 66.6756 46.5644C67.934 46.2667 68.9735 45.3851 69.4719 44.193C69.5576 43.9929 69.6242 43.785 69.6707 43.5723H66.57C65.943 43.5746 65.4352 44.0818 65.4329 44.7083Z" fill="black"/>
<path opacity="0.2" d="M66.0543 45.3294V46.664C66.2641 46.6501 66.4721 46.6169 66.6757 46.5647C67.934 46.267 68.9736 45.3854 69.472 44.1934H67.1915C66.5645 44.1957 66.0567 44.703 66.0543 45.3294Z" fill="black"/>
<path opacity="0.2" d="M66.0543 45.3294V46.664C66.2641 46.6501 66.4721 46.6169 66.6757 46.5647C67.934 46.267 68.9736 45.3854 69.472 44.1934H67.1915C66.5645 44.1957 66.0567 44.703 66.0543 45.3294Z" fill="black"/>
<path opacity="0.2" d="M66.6757 45.3294V46.5647C67.934 46.267 68.9736 45.3854 69.472 44.1934H67.8129C67.1858 44.1957 66.6781 44.703 66.6757 45.3294Z" fill="black"/>
<path d="M79.2074 44.1934H67.8148C67.1857 44.1934 66.6758 44.7028 66.6758 45.3312V56.7125C66.6758 57.3409 67.1858 57.8504 67.8148 57.8504H79.2074C79.8364 57.8504 80.3464 57.3409 80.3464 56.7125V45.3312C80.3464 44.7028 79.8364 44.1934 79.2074 44.1934Z" fill="url(#paint6_linear_149_122718)"/>
<path d="M70.5133 48.5251H72.7907V54.7204H74.2417V48.5251H76.5085V47.3232H70.5133V48.5251Z" fill="white"/>
<defs>
<linearGradient id="paint0_linear_149_122718" x1="36.5465" y1="0.769437" x2="66.7828" y2="102.061" gradientUnits="userSpaceOnUse">
<stop stop-color="#A9B1FF"/>
<stop offset="1" stop-color="#7B83EB"/>
</linearGradient>
<linearGradient id="paint1_linear_149_122718" x1="51.604" y1="4.37783" x2="51.604" y2="98.038" gradientUnits="userSpaceOnUse">
<stop stop-color="#5A62C3"/>
<stop offset="0.5" stop-color="#4D55BD"/>
<stop offset="1" stop-color="#3940AB"/>
</linearGradient>
<linearGradient id="paint2_linear_149_122718" x1="58.9803" y1="39.2162" x2="58.9803" y2="17.277" gradientUnits="userSpaceOnUse">
<stop offset="0.0994" stop-color="#E6E6E6"/>
<stop offset="0.9511" stop-color="white"/>
</linearGradient>
<linearGradient id="paint3_linear_149_122718" x1="26.61" y1="43.6125" x2="35.8098" y2="69.5522" gradientUnits="userSpaceOnUse">
<stop stop-color="#15548F"/>
<stop offset="0.4179" stop-color="#243A5E"/>
<stop offset="0.9677" stop-color="#1A2C45"/>
</linearGradient>
<linearGradient id="paint4_linear_149_122718" x1="23.4503" y1="46.1588" x2="30.7612" y2="66.7723" gradientUnits="userSpaceOnUse">
<stop stop-color="#15548F"/>
<stop offset="0.4179" stop-color="#243A5E"/>
<stop offset="0.9677" stop-color="#1A2C45"/>
</linearGradient>
<linearGradient id="paint5_linear_149_122718" x1="20.5102" y1="51.1407" x2="25.4486" y2="65.0645" gradientUnits="userSpaceOnUse">
<stop stop-color="#15548F"/>
<stop offset="0.4179" stop-color="#243A5E"/>
<stop offset="0.9677" stop-color="#1A2C45"/>
</linearGradient>
<linearGradient id="paint6_linear_149_122718" x1="77.9715" y1="43.3042" x2="69.0639" y2="58.7472" gradientUnits="userSpaceOnUse">
<stop stop-color="#5A62C3"/>
<stop offset="0.5" stop-color="#4D55BD"/>
<stop offset="1" stop-color="#3940AB"/>
</linearGradient>
</defs>
</svg>
