<svg width="103" height="103" viewBox="0 0 103 103" fill="none" xmlns="http://www.w3.org/2000/svg">
<path d="M51.8676 98.0477C26.0176 98.0477 5.05765 77.0977 5.05765 51.2377C5.05765 25.3777 26.0176 4.42773 51.8676 4.42773C77.7176 4.42773 98.6776 25.3877 98.6776 51.2377C98.6776 77.0877 77.7176 98.0477 51.8676 98.0477Z" fill="url(#paint0_linear_148_118212)"/>
<path fill-rule="evenodd" clip-rule="evenodd" d="M51.8682 1.23828C79.4782 1.23828 101.868 23.6283 101.868 51.2383C101.868 78.8483 79.4782 101.238 51.8682 101.238C24.2582 101.238 1.86819 78.8483 1.86819 51.2383C1.86819 23.6283 24.2582 1.23828 51.8682 1.23828ZM51.8682 96.9983C77.1382 96.9983 97.6282 76.5083 97.6282 51.2383C97.6282 25.9683 77.1382 5.47828 51.8682 5.47828C26.5982 5.47828 6.10819 25.9683 6.10819 51.2383C6.10819 76.5083 26.5982 96.9983 51.8682 96.9983Z" fill="#D9D9D9"/>
<path fill-rule="evenodd" clip-rule="evenodd" d="M97.7676 51.2386C97.7676 76.5886 77.2176 97.1386 51.8676 97.1386C26.5176 97.1386 5.96757 76.5886 5.96757 51.2386C5.96757 25.8886 26.5176 5.33863 51.8676 5.33863C77.2176 5.33863 97.7676 25.8886 97.7676 51.2386ZM51.8676 1.59863C79.2876 1.59863 101.508 23.8186 101.508 51.2386C101.508 78.6586 79.2776 100.879 51.8676 100.879C24.4476 100.879 2.22757 78.6486 2.22757 51.2386C2.22757 23.8186 24.4476 1.59863 51.8676 1.59863Z" fill="#F2F1F0"/>
<path fill-rule="evenodd" clip-rule="evenodd" d="M51.8681 94.3282C28.0681 94.3282 8.77812 75.0382 8.77812 51.2382C8.77812 27.4382 28.0681 8.1482 51.8681 8.1482C75.6681 8.1482 94.9581 27.4382 94.9581 51.2382C94.9581 75.0382 75.6681 94.3282 51.8681 94.3282ZM98.6981 51.2382C98.6981 77.0982 77.7281 98.0682 51.8681 98.0682C26.0081 98.0682 5.03812 77.0982 5.03812 51.2382C5.03812 25.3782 26.0081 4.4082 51.8681 4.4082C77.7281 4.4082 98.6981 25.3682 98.6981 51.2382Z" fill="url(#paint1_linear_148_118212)"/>
<path opacity="0.15" d="M56.3914 80.913C68.2414 78.923 77.7514 69.683 80.0514 57.893C82.2614 46.563 77.5414 35.013 68.0314 28.473C67.8314 28.333 67.7914 28.123 67.7914 28.023C67.7914 27.933 67.8014 27.693 68.0214 27.523L69.2514 26.563C70.2314 25.803 71.6514 25.823 72.6314 26.633C82.1114 34.393 86.5514 46.693 84.2114 58.723C81.5714 72.273 70.6014 82.873 56.9214 85.093L55.6014 85.303L56.3014 90.273C56.3514 90.613 56.0014 90.893 55.6914 90.753L43.2014 85.833C42.6814 85.623 42.5914 84.943 43.0314 84.613L53.6614 76.393C53.9314 76.183 54.3414 76.343 54.3914 76.693L55.0114 81.163L56.3914 80.913Z" fill="#1F1D20"/>
<path opacity="0.15" d="M51.4914 28.7432C51.2214 28.9532 50.8214 28.7932 50.7714 28.4432L50.0314 23.3932L48.7414 23.5232C36.1014 24.7732 25.5814 34.3432 23.1514 46.8032C20.7214 59.2832 26.8914 72.1132 38.1614 78.0032C38.4214 78.1432 38.4814 78.3632 38.4814 78.4832C38.4814 78.5332 38.4914 78.5932 38.4714 78.6632C38.4514 78.7732 38.3914 78.9132 38.2414 79.0132L36.7614 80.1632C35.8614 80.8632 34.6014 80.9032 33.6214 80.2632C21.9914 72.7632 16.2514 59.1032 19.0814 45.5432C22.0614 31.2732 34.3014 20.7932 48.7914 19.2232L49.4014 19.1532L48.7514 14.7932C48.7014 14.4532 49.0514 14.1732 49.3714 14.3132L62.0314 19.3732C62.5514 19.5832 62.6414 20.2632 62.2014 20.6132L51.4914 28.7432Z" fill="#1F1D20"/>
<path d="M56.6321 79.6728C68.4821 77.6828 77.9921 68.4428 80.2921 56.6528C82.5021 45.3228 77.7821 33.7728 68.2721 27.2328C68.0721 27.0928 68.0321 26.8828 68.0321 26.7828C68.0321 26.6928 68.0421 26.4528 68.2621 26.2828L69.4921 25.3228C70.4721 24.5628 71.8921 24.5828 72.8721 25.3928C82.3521 33.1428 86.7921 45.4428 84.4521 57.4728C81.8121 71.0228 70.8421 81.6228 57.1721 83.8328L55.8521 84.0528L56.5521 89.0228C56.6021 89.3628 56.2521 89.6428 55.9421 89.5028L43.4621 84.5828C42.9421 84.3728 42.8521 83.6928 43.2921 83.3628L53.9221 75.1428C54.1921 74.9328 54.6021 75.0928 54.6521 75.4428L55.2721 79.9128L56.6321 79.6728Z" fill="#F2F1F0"/>
<path d="M51.7315 27.5028C51.4615 27.7128 51.0615 27.5528 51.0115 27.2028L50.2715 22.1528L48.9815 22.2828C36.3515 23.5228 25.8215 33.1028 23.3915 45.5528C20.9615 58.0328 27.1415 70.8628 38.4015 76.7528C38.6615 76.8928 38.7215 77.1128 38.7215 77.2328C38.7215 77.2828 38.7315 77.3428 38.7115 77.4128C38.6915 77.5228 38.6315 77.6628 38.4815 77.7628L37.0014 78.9128C36.1014 79.6128 34.8415 79.6528 33.8615 79.0128C22.2415 71.5228 16.5015 57.8528 19.3315 44.3028C22.3015 30.0528 34.5415 19.5628 49.0315 17.9928L49.6415 17.9228L48.9915 13.5628C48.9415 13.2228 49.2915 12.9428 49.6115 13.0828L62.2715 18.1328C62.7915 18.3428 62.8815 19.0228 62.4415 19.3728L51.7315 27.5028Z" fill="#F2F1F0"/>
<path opacity="0.15" d="M71.6686 34.8359H65.741C65.3804 34.8359 65.0872 35.1292 65.0872 35.4898V39.1194C65.0872 39.4799 65.3804 39.7732 65.741 39.7732H71.6734C72.034 39.778 72.3272 39.4847 72.3272 39.1194V35.4946C72.3272 35.1244 72.034 34.8359 71.6686 34.8359Z" fill="#1F1D20"/>
<path opacity="0.15" d="M71.6686 46.917H65.741C65.3804 46.917 65.0872 47.2102 65.0872 47.5708V51.2052C65.0872 51.5658 65.3804 51.8591 65.741 51.8591H71.6734C72.034 51.8591 72.3272 51.5658 72.3272 51.2052V47.5804C72.3272 47.2102 72.034 46.917 71.6686 46.917Z" fill="#1F1D20"/>
<path opacity="0.15" d="M71.6686 40.8643H65.741C65.3804 40.8643 65.0872 41.1575 65.0872 41.5181V45.1477C65.0872 45.5083 65.3804 45.8015 65.741 45.8015H71.6734C72.034 45.8063 72.3272 45.5131 72.3272 45.1477V41.5181C72.3272 41.1575 72.034 40.8643 71.6686 40.8643Z" fill="#1F1D20"/>
<path opacity="0.15" d="M71.6686 52.9453H65.741C65.3804 52.9453 65.0872 53.2386 65.0872 53.5991V57.2336C65.0872 57.5941 65.3804 57.8874 65.741 57.8874H71.6734C72.034 57.8874 72.3272 57.5941 72.3272 57.2336V53.6039C72.3272 53.2434 72.034 52.9453 71.6686 52.9453Z" fill="#1F1D20"/>
<path d="M71.6689 34.4033H65.7413C65.3807 34.4033 65.0875 34.6966 65.0875 35.0571V38.6868C65.0875 39.0473 65.3807 39.3406 65.7413 39.3406H71.6737C72.0342 39.3454 72.3275 39.0521 72.3275 38.6868V35.0619C72.3275 34.6966 72.0342 34.4033 71.6689 34.4033Z" fill="#5B67F1"/>
<path d="M71.6686 46.4844H65.741C65.3804 46.4844 65.0872 46.7776 65.0872 47.1382V50.7726C65.0872 51.1332 65.3804 51.4264 65.741 51.4264H71.6734C72.034 51.4264 72.3272 51.1332 72.3272 50.7726V47.1478C72.3272 46.7776 72.034 46.4844 71.6686 46.4844Z" fill="#4852CB"/>
<path d="M71.6686 40.4365H65.741C65.3804 40.4365 65.0872 40.7298 65.0872 41.0903V44.72C65.0872 45.0805 65.3804 45.3738 65.741 45.3738H71.6734C72.034 45.3786 72.3272 45.0853 72.3272 44.72V41.0903C72.3272 40.7298 72.034 40.4365 71.6686 40.4365Z" fill="#5661E3"/>
<path d="M71.6686 52.5176H65.741C65.3804 52.5176 65.0872 52.8108 65.0872 53.1714V56.8058C65.0872 57.1664 65.3804 57.4596 65.741 57.4596H71.6734C72.034 57.4596 72.3272 57.1664 72.3272 56.8058V53.1762C72.3272 52.8156 72.034 52.5176 71.6686 52.5176Z" fill="url(#paint2_linear_148_118212)"/>
<path opacity="0.15" d="M66.0315 68.0115C66.5663 68.0115 66.9975 67.5803 66.9975 67.0455V35.1748H33.3316V67.0497C33.3316 67.5845 33.7628 68.0157 34.2976 68.0157H66.0315V68.0115Z" fill="#1F1D20"/>
<path d="M66.9934 35.4611V34.9387C66.9934 34.2919 66.471 33.7695 65.8242 33.7695H34.5008C33.854 33.7695 33.3316 34.2919 33.3316 34.9387V35.5192V36.0499V66.0258C33.3316 66.6726 33.854 67.195 34.5008 67.195H65.8325C66.4793 67.195 67.0017 66.6726 67.0017 66.0258V35.5192C67.0017 35.4984 66.9934 35.4819 66.9934 35.4611Z" fill="white"/>
<path d="M59.3085 57.9564C58.8015 53.3935 54.9016 49.8057 50.1828 49.8057C45.503 49.8057 41.6421 53.3155 41.0572 57.8394C40.9792 58.1513 40.9792 58.5023 40.9792 58.8143C41.0962 60.1013 41.9931 61.3492 43.6701 62.3242C47.2579 64.3911 53.1077 64.3911 56.6566 62.3242C58.3335 61.3492 59.1915 60.1013 59.3085 58.8143C59.3865 58.5413 59.3475 58.2293 59.3085 57.9564Z" fill="#3B42AD"/>
<path d="M50.183 48.9087C53.2199 48.9087 55.6818 46.4468 55.6818 43.4099C55.6818 40.373 53.2199 37.9111 50.183 37.9111C47.1461 37.9111 44.6842 40.373 44.6842 43.4099C44.6842 46.4468 47.1461 48.9087 50.183 48.9087Z" fill="#3B42AD"/>
<defs>
<linearGradient id="paint0_linear_148_118212" x1="36.8105" y1="0.798734" x2="67.0468" y2="102.09" gradientUnits="userSpaceOnUse">
<stop stop-color="#A9B1FF"/>
<stop offset="1" stop-color="#7B83EB"/>
</linearGradient>
<linearGradient id="paint1_linear_148_118212" x1="51.868" y1="4.4081" x2="51.868" y2="98.0683" gradientUnits="userSpaceOnUse">
<stop stop-color="#5A62C3"/>
<stop offset="0.5" stop-color="#4D55BD"/>
<stop offset="1" stop-color="#3940AB"/>
</linearGradient>
<linearGradient id="paint2_linear_148_118212" x1="66.3449" y1="52.1958" x2="68.8856" y2="58.6421" gradientUnits="userSpaceOnUse">
<stop stop-color="#4049B5"/>
<stop offset="0.5" stop-color="#363EA5"/>
<stop offset="1" stop-color="#3940AB"/>
</linearGradient>
</defs>
</svg>
