<svg width="103" height="103" viewBox="0 0 103 103" fill="none" xmlns="http://www.w3.org/2000/svg">
<path d="M51.0518 98.7391C25.2018 98.7391 4.24176 77.7891 4.24176 51.9291C4.24176 26.0691 25.2018 5.11914 51.0518 5.11914C76.9018 5.11914 97.8618 26.0791 97.8618 51.9291C97.8618 77.7791 76.9018 98.7391 51.0518 98.7391Z" fill="url(#paint0_linear_346_60711)"/>
<path fill-rule="evenodd" clip-rule="evenodd" d="M96.9517 51.9291C96.9517 77.2791 76.4017 97.8291 51.0517 97.8291C25.7017 97.8291 5.15174 77.2791 5.15174 51.9291C5.15174 26.5791 25.7017 6.02907 51.0517 6.02907C76.4017 6.02907 96.9517 26.5791 96.9517 51.9291ZM51.0517 2.28906C78.4717 2.28906 100.692 24.5091 100.692 51.9291C100.692 79.3491 78.4617 101.569 51.0517 101.569C23.6317 101.569 1.41174 79.3391 1.41174 51.9291C1.41174 24.5091 23.6317 2.28906 51.0517 2.28906Z" fill="#F2F1F0"/>
<path fill-rule="evenodd" clip-rule="evenodd" d="M94.1417 51.9296C94.1417 75.7296 74.8517 95.0196 51.0517 95.0196C27.2517 95.0196 7.96174 75.7296 7.96174 51.9296C7.96174 28.1296 27.2517 8.83961 51.0517 8.83961C74.8517 8.83961 94.1417 28.1296 94.1417 51.9296ZM51.0517 5.09961C76.9117 5.09961 97.8817 26.0696 97.8817 51.9296C97.8817 77.7896 76.9117 98.7596 51.0517 98.7596C25.1917 98.7596 4.22174 77.7896 4.22174 51.9296C4.22174 26.0696 25.1817 5.09961 51.0517 5.09961Z" fill="url(#paint1_linear_346_60711)"/>
<path d="M52.5609 14.046C52.7037 14.14 52.8222 14.2664 52.9068 14.4149C52.9914 14.5634 53.0398 14.7298 53.0478 14.9005C53.0478 15.2129 52.8273 15.3416 52.5517 15.1853C52.4082 15.0913 52.2887 14.9651 52.2025 14.8168C52.1164 14.6684 52.066 14.5021 52.0555 14.3308C52.0555 14.046 52.2485 13.9266 52.5609 14.046Z" fill="#E6F6FC"/>
<path d="M55.9238 16.0117C56.0688 16.1041 56.1895 16.2298 56.2759 16.3785C56.3622 16.5272 56.4116 16.6945 56.4199 16.8662C56.4199 17.1694 56.1903 17.298 55.9238 17.1418C55.7798 17.0483 55.6599 16.9223 55.5737 16.7738C55.4875 16.6254 55.4375 16.4587 55.4276 16.2873C55.4093 15.9841 55.6298 15.883 55.9238 16.0117Z" fill="#DAF2FB"/>
<path d="M59.2591 17.951C59.4035 18.0432 59.5233 18.1693 59.6081 18.3181C59.693 18.467 59.7403 18.6342 59.7461 18.8055C59.7461 19.1179 59.5348 19.2557 59.2591 19.0903C59.1141 18.9979 58.9934 18.8721 58.9071 18.7234C58.8207 18.5747 58.7713 18.4075 58.763 18.2358C58.763 17.9142 58.9835 17.7948 59.2591 17.951Z" fill="#CEEEF9"/>
<path d="M62.6129 19.8889C62.756 19.9803 62.875 20.1048 62.9598 20.252C63.0445 20.3991 63.0926 20.5645 63.0999 20.7342C63.0999 21.0558 62.8794 21.1844 62.6037 21.0282C62.4612 20.9317 62.3431 20.8036 62.2586 20.6537C62.1741 20.5038 62.1255 20.3363 62.1167 20.1645C62.1167 19.8521 62.3556 19.7235 62.6129 19.8889Z" fill="#C1E9F8"/>
<path d="M65.9574 21.8201C66.1009 21.9141 66.2204 22.0403 66.3065 22.1887C66.3927 22.337 66.4431 22.5034 66.4536 22.6746C66.4536 22.9962 66.233 23.1248 65.9574 22.9594C65.8129 22.8665 65.6926 22.7406 65.6063 22.592C65.5201 22.4434 65.4703 22.2765 65.4612 22.1049C65.4612 21.7834 65.6817 21.6639 65.9574 21.8201Z" fill="#B5E5F6"/>
<path d="M69.3019 23.7481C69.4454 23.8422 69.5649 23.9684 69.651 24.1167C69.7372 24.265 69.7875 24.4314 69.798 24.6026C69.798 24.9242 69.5775 25.0529 69.3019 24.8875C69.1574 24.7945 69.0371 24.6686 68.9508 24.52C68.8646 24.3715 68.8148 24.2045 68.8057 24.033C68.7874 23.7206 69.0262 23.5919 69.3019 23.7481Z" fill="#A9E1F5"/>
<path d="M52.5333 21.7816C52.6778 21.8745 52.7981 22.0004 52.8844 22.149C52.9706 22.2976 53.0204 22.4645 53.0295 22.6361C53.0409 22.6978 53.0329 22.7616 53.0065 22.8186C52.9802 22.8756 52.9368 22.923 52.8823 22.9543C52.8278 22.9855 52.765 22.9991 52.7025 22.9931C52.64 22.9872 52.5809 22.9619 52.5333 22.9209C52.386 22.8288 52.2636 22.7019 52.1771 22.5512C52.0905 22.4006 52.0425 22.2309 52.0372 22.0572C52.0372 21.754 52.2485 21.6254 52.5333 21.7816Z" fill="#C6EBF8"/>
<path d="M55.9238 23.7127C56.0682 23.805 56.1879 23.931 56.2728 24.0798C56.3576 24.2287 56.405 24.396 56.4108 24.5672C56.4108 24.8704 56.1811 25.0082 55.9238 24.852C55.777 24.7594 55.6551 24.6322 55.5686 24.4817C55.4822 24.3312 55.4338 24.1618 55.4276 23.9883C55.3909 23.6668 55.6114 23.5565 55.9238 23.7127Z" fill="#BAE7F7"/>
<path d="M59.2408 25.6507C59.3841 25.7441 59.503 25.8704 59.5877 26.019C59.6724 26.1676 59.7204 26.3343 59.7278 26.5052C59.7278 26.8176 59.5072 26.9462 59.2316 26.79C59.0864 26.6957 58.9657 26.5682 58.8794 26.418C58.7932 26.2678 58.7438 26.0993 58.7354 25.9263C58.7354 25.6231 58.9651 25.4945 59.2408 25.6507Z" fill="#AFE3F6"/>
<path d="M62.5853 27.5883C62.7296 27.6793 62.8499 27.8035 62.9363 27.9506C63.0226 28.0977 63.0724 28.2633 63.0814 28.4336C63.0814 28.7552 62.8609 28.8839 62.5853 28.7277C62.4406 28.6327 62.3203 28.5051 62.2341 28.3551C62.1479 28.205 62.0982 28.0368 62.0891 27.864C62.0891 27.5608 62.3556 27.4229 62.5853 27.5883Z" fill="#A2DFF4"/>
<path d="M65.939 29.5196C66.0835 29.6126 66.2038 29.7385 66.2901 29.8871C66.3763 30.0356 66.4261 30.2026 66.4352 30.3741C66.4352 30.6957 66.2055 30.8152 65.9298 30.659C65.7865 30.5655 65.6675 30.4392 65.5828 30.2906C65.4981 30.142 65.4501 29.9754 65.4428 29.8045C65.4428 29.4921 65.6634 29.3634 65.939 29.5196Z" fill="#96DAF3"/>
<path d="M69.2835 31.4493C69.427 31.5433 69.5465 31.6695 69.6327 31.8179C69.7188 31.9662 69.7692 32.1326 69.7797 32.3038C69.7797 32.6254 69.55 32.754 69.2744 32.5886C69.1311 32.4952 69.0121 32.369 68.9274 32.2204C68.8427 32.0717 68.7947 31.905 68.7874 31.7341C68.7874 31.4217 69.0079 31.2931 69.2835 31.4493Z" fill="#8AD6F1"/>
<path d="M52.5517 17.9317C52.6935 18.0268 52.8113 18.1534 52.8958 18.3017C52.9803 18.45 53.0292 18.6158 53.0387 18.7862C53.0387 19.0986 52.8182 19.2273 52.5425 19.0711C52.398 18.9781 52.2777 18.8522 52.1914 18.7036C52.1051 18.5551 52.0555 18.3881 52.0464 18.2166C52.0464 17.9042 52.2485 17.7755 52.5517 17.9317Z" fill="#D5F0FA"/>
<path d="M55.8503 19.7526C55.9958 19.8444 56.117 19.97 56.2034 20.1188C56.2898 20.2676 56.3389 20.4352 56.3465 20.6071C56.3465 20.9103 56.1259 21.0481 55.8503 20.8919C55.7058 20.799 55.5855 20.673 55.4992 20.5245C55.4129 20.3759 55.3632 20.2089 55.3541 20.0374C55.3541 19.725 55.5746 19.5596 55.8503 19.7526Z" fill="#CBEDF9"/>
<path d="M59.25 21.8009C59.3922 21.8954 59.5104 22.0219 59.595 22.1703C59.6795 22.3187 59.7282 22.4848 59.737 22.6554C59.737 22.9678 59.5164 23.1056 59.2408 22.9402C59.0963 22.8473 58.976 22.7213 58.8897 22.5728C58.8034 22.4242 58.7537 22.2573 58.7446 22.0857C58.7446 21.7733 58.9743 21.6447 59.25 21.8009Z" fill="#BEE8F7"/>
<path d="M62.5945 23.7387C62.7378 23.8308 62.8573 23.9553 62.9435 24.1021C63.0297 24.249 63.0801 24.4141 63.0906 24.584C63.0906 24.9056 62.8701 25.0343 62.5945 24.8781C62.4494 24.7843 62.3293 24.6568 62.2444 24.5063C62.1596 24.3558 62.1126 24.187 62.1075 24.0144C62.1075 23.7111 62.3556 23.5733 62.5945 23.7387Z" fill="#B2E4F6"/>
<path d="M65.9482 25.67C66.0916 25.764 66.2113 25.8902 66.2974 26.0386C66.3835 26.1869 66.4338 26.3533 66.4444 26.5245C66.4444 26.8461 66.2238 26.9747 65.9482 26.8093C65.8037 26.7164 65.6834 26.5905 65.5971 26.4419C65.5108 26.2933 65.4611 26.1264 65.452 25.9548C65.452 25.6424 65.6725 25.5138 65.9482 25.67Z" fill="#A6E0F4"/>
<path d="M69.2927 27.5977C69.4357 27.6923 69.5549 27.8186 69.6409 27.9669C69.727 28.1151 69.7776 28.2812 69.7889 28.4522C69.7889 28.7738 69.5591 28.9025 69.2835 28.7371C69.1402 28.6437 69.0213 28.5174 68.9366 28.3688C68.8519 28.2202 68.8039 28.0535 68.7965 27.8826C68.7873 27.5702 69.017 27.4415 69.2927 27.5977Z" fill="#99DCF3"/>
<path d="M52.5242 25.6331C52.6686 25.7261 52.789 25.852 52.8753 26.0006C52.9615 26.1491 53.0113 26.3161 53.0204 26.4876C53.0318 26.5494 53.0237 26.6132 52.9974 26.6702C52.971 26.7272 52.9276 26.7746 52.8732 26.8058C52.8187 26.8371 52.7559 26.8507 52.6934 26.8447C52.6308 26.8387 52.5717 26.8135 52.5242 26.7725C52.3768 26.6804 52.2545 26.5534 52.1679 26.4028C52.0814 26.2521 52.0333 26.0824 52.028 25.9088C52.028 25.6056 52.2485 25.4769 52.5242 25.6331Z" fill="#B7E6F6"/>
<path d="M55.9238 27.5532C56.0656 27.6482 56.1834 27.7748 56.2679 27.9231C56.3524 28.0714 56.4013 28.2373 56.4108 28.4077C56.4222 28.4694 56.4142 28.5332 56.3878 28.5902C56.3615 28.6472 56.3181 28.6946 56.2636 28.7259C56.2091 28.7571 56.1463 28.7707 56.0838 28.7647C56.0213 28.7588 55.9622 28.7335 55.9146 28.6925C55.7704 28.597 55.6505 28.4693 55.5644 28.3194C55.4782 28.1694 55.4283 28.0014 55.4185 27.8288C55.3725 27.5256 55.593 27.3878 55.9238 27.5532Z" fill="#AAE2F5"/>
<path d="M59.2224 29.5003C59.3669 29.5933 59.4872 29.7192 59.5735 29.8678C59.6597 30.0163 59.7095 30.1833 59.7185 30.3548C59.7185 30.6672 59.498 30.7959 59.2224 30.6397C59.0772 30.5453 58.9565 30.4178 58.8702 30.2676C58.784 30.1175 58.7346 29.9489 58.7262 29.776C58.7262 29.4727 58.9468 29.3441 59.2224 29.5003Z" fill="#9FDDF4"/>
<path d="M62.5761 31.4396C62.7203 31.5299 62.8401 31.6541 62.925 31.8015C63.01 31.9489 63.0574 32.1149 63.0631 32.2849C63.0631 32.6065 62.8518 32.7352 62.5761 32.579C62.4314 32.484 62.3111 32.3564 62.2249 32.2064C62.1387 32.0563 62.0891 31.8881 62.08 31.7153C62.08 31.4029 62.3005 31.2742 62.5761 31.4396Z" fill="#93D9F2"/>
<path d="M65.9298 33.341C66.0743 33.4339 66.1946 33.5598 66.2809 33.7084C66.3671 33.857 66.4169 34.0239 66.4259 34.1955C66.4259 34.5079 66.1962 34.6365 65.9206 34.4803C65.7773 34.3869 65.6583 34.2606 65.5736 34.112C65.4889 33.9634 65.4409 33.7967 65.4336 33.6258C65.4336 33.341 65.6541 33.2123 65.9298 33.341Z" fill="#86D5F1"/>
<path d="M69.2652 35.2985C69.4109 35.3909 69.5326 35.5166 69.6204 35.6651C69.7083 35.8136 69.7597 35.9808 69.7705 36.153C69.7705 36.4746 69.5409 36.594 69.2652 36.4378C69.1219 36.3444 69.0029 36.2182 68.9182 36.0695C68.8335 35.9209 68.7855 35.7542 68.7782 35.5833C68.7874 35.2709 68.9896 35.179 69.2652 35.2985Z" fill="#7AD1EF"/>
<path d="M52.5149 29.4825C52.6579 29.5771 52.7771 29.7034 52.8632 29.8516C52.9493 29.9999 52.9999 30.166 53.0111 30.337C53.0111 30.6494 52.7814 30.778 52.5149 30.6218C52.3694 30.53 52.2483 30.4044 52.1619 30.2556C52.0755 30.1068 52.0264 29.9393 52.0188 29.7673C52.0188 29.4549 52.2485 29.3263 52.5149 29.4825Z" fill="#A7E0F5"/>
<path d="M55.8687 31.4028C56.0105 31.4978 56.1282 31.6244 56.2127 31.7727C56.2972 31.921 56.3461 32.0869 56.3556 32.2573C56.3671 32.319 56.3591 32.3828 56.3327 32.4398C56.3063 32.4968 56.2629 32.5442 56.2085 32.5754C56.154 32.6067 56.0912 32.6203 56.0287 32.6144C55.9662 32.6084 55.907 32.5831 55.8595 32.5421C55.7153 32.4467 55.5954 32.3189 55.5093 32.169C55.4231 32.019 55.3732 31.8511 55.3633 31.6784C55.3633 31.3752 55.5838 31.2374 55.8687 31.4028Z" fill="#9ADCF3"/>
<path d="M59.2132 33.3411C59.3576 33.434 59.478 33.5599 59.5642 33.7085C59.6505 33.8571 59.7002 34.024 59.7093 34.1956C59.7093 34.508 59.4888 34.6366 59.2132 34.4804C59.0687 34.3875 58.9483 34.2615 58.862 34.113C58.7758 33.9644 58.726 33.7974 58.717 33.6259C58.6802 33.3411 58.9375 33.194 59.2132 33.3411Z" fill="#8FD8F2"/>
<path d="M62.5669 35.2792C62.7104 35.3746 62.8293 35.5026 62.9139 35.6527C62.9985 35.8028 63.0465 35.9707 63.0539 36.1429C63.0539 36.4553 62.8333 36.5839 62.5577 36.4185C62.4146 36.3271 62.2956 36.2026 62.2108 36.0554C62.1261 35.9083 62.078 35.7429 62.0707 35.5732C62.0707 35.2516 62.2912 35.123 62.5669 35.2792Z" fill="#82D4F0"/>
<path d="M65.9114 37.2188C66.0582 37.3115 66.1802 37.4387 66.2667 37.5892C66.3531 37.7397 66.4015 37.909 66.4076 38.0825C66.4076 38.3857 66.1871 38.5144 65.9114 38.3582C65.7671 38.2659 65.6473 38.1399 65.5625 37.9911C65.4776 37.8422 65.4303 37.675 65.4245 37.5037C65.4245 37.1913 65.6358 37.0626 65.9114 37.2188Z" fill="#77D0EF"/>
<path d="M69.256 39.1485C69.4012 39.2429 69.5218 39.3704 69.6081 39.5206C69.6944 39.6707 69.7437 39.8393 69.7521 40.0122C69.7521 40.3154 69.5316 40.4441 69.256 40.2879C69.1115 40.1949 68.9911 40.069 68.9048 39.9204C68.8186 39.7719 68.7689 39.6049 68.7598 39.4334C68.7873 39.121 68.9803 38.9923 69.256 39.1485Z" fill="#6BCBED"/>
<path d="M52.5058 33.3413C52.6487 33.4372 52.7672 33.5653 52.8518 33.7153C52.9363 33.8653 52.9846 34.033 52.9927 34.205C52.9927 34.5082 52.7722 34.6368 52.5058 34.4806C52.3596 34.3887 52.2374 34.2633 52.1495 34.1146C52.0616 33.966 52.0105 33.7985 52.0004 33.6261C52.0096 33.3413 52.2485 33.1667 52.5058 33.3413Z" fill="#97DBF3"/>
<path d="M55.8503 35.2524C55.9942 35.3459 56.1142 35.4719 56.2004 35.6204C56.2866 35.7689 56.3367 35.9355 56.3465 36.1069C56.3579 36.1686 56.3498 36.2324 56.3235 36.2894C56.2971 36.3464 56.2537 36.3938 56.1993 36.425C56.1448 36.4563 56.082 36.4699 56.0195 36.464C55.957 36.458 55.8978 36.4327 55.8503 36.3917C55.7061 36.2963 55.5862 36.1685 55.5 36.0186C55.4139 35.8686 55.364 35.7007 55.3541 35.528C55.3541 35.2248 55.5746 35.087 55.8503 35.2524Z" fill="#8BD7F1"/>
<path d="M59.2041 37.1917C59.3484 37.284 59.4682 37.41 59.553 37.5589C59.6379 37.7078 59.6852 37.875 59.691 38.0462C59.691 38.3586 59.4797 38.4873 59.2041 38.3311C59.0585 38.2393 58.9374 38.1136 58.851 37.9648C58.7646 37.816 58.7155 37.6485 58.7079 37.4766C58.6803 37.1642 58.9284 37.0172 59.2041 37.1917Z" fill="#7FD3F0"/>
<path d="M62.5577 39.1311C62.7015 39.2239 62.8209 39.3501 62.9057 39.4988C62.9904 39.6475 63.0381 39.8145 63.0447 39.9856C63.0447 40.298 62.8242 40.4266 62.5485 40.2704C62.4063 40.1759 62.2881 40.0494 62.2035 39.901C62.119 39.7526 62.0703 39.5865 62.0615 39.4159C62.0615 39.1035 62.282 38.9657 62.5577 39.1311Z" fill="#73CEEE"/>
<path d="M65.9023 41.0604C66.0475 41.1548 66.1681 41.2823 66.2544 41.4325C66.3407 41.5826 66.3901 41.7512 66.3985 41.9241C66.3985 42.2365 66.1779 42.356 65.9023 42.1998C65.759 42.1077 65.6394 41.9832 65.5532 41.8364C65.467 41.6895 65.4166 41.5244 65.4061 41.3544C65.4061 41.0328 65.6266 40.9042 65.9023 41.0604Z" fill="#67CAED"/>
<path d="M69.2468 42.9881C69.3914 43.0831 69.5117 43.2107 69.5979 43.3607C69.6841 43.5108 69.7338 43.679 69.7429 43.8518C69.7429 44.1643 69.5224 44.2929 69.2468 44.1275C69.1035 44.0354 68.9839 43.9109 68.8977 43.7641C68.8115 43.6172 68.7611 43.4521 68.7506 43.2822C68.7874 42.9606 68.9711 42.8319 69.2468 42.9881Z" fill="#5AC6EC"/>
<path d="M72.6557 25.6873C72.8007 25.7797 72.9214 25.9055 73.0078 26.0542C73.0941 26.2029 73.1435 26.3701 73.1518 26.5418C73.1518 26.8542 72.9221 26.9828 72.6465 26.8266C72.5057 26.7306 72.3887 26.6037 72.3043 26.4557C72.2199 26.3076 72.1704 26.1422 72.1595 25.9721C72.1595 25.6505 72.38 25.5311 72.6557 25.6873Z" fill="#9CDDF3"/>
<path d="M76.0093 27.627C76.1543 27.7194 76.2751 27.8451 76.3614 27.9938C76.4477 28.1425 76.4972 28.3098 76.5055 28.4815C76.5055 28.7939 76.2758 28.9225 76.0001 28.7663C75.8561 28.6715 75.7368 28.5436 75.6522 28.3934C75.5675 28.2432 75.5198 28.0749 75.5132 27.9026C75.5132 27.5902 75.7337 27.4708 76.0093 27.627Z" fill="#91D9F2"/>
<path d="M79.3631 29.5644C79.5062 29.6558 79.6252 29.7803 79.7099 29.9275C79.7947 30.0746 79.8428 30.2401 79.85 30.4097C79.85 30.7313 79.6295 30.86 79.3631 30.7038C79.2184 30.6088 79.0981 30.4811 79.0119 30.3311C78.9257 30.1811 78.876 30.0129 78.8669 29.8401C78.8944 29.5185 79.0874 29.399 79.3631 29.5644Z" fill="#85D4F1"/>
<path d="M82.7076 31.5036C82.8492 31.5966 82.9669 31.7216 83.0515 31.8684C83.1361 32.0152 83.1851 32.1797 83.1946 32.3489C83.1946 32.6705 82.9741 32.7991 82.7076 32.6429C82.5622 32.5479 82.4409 32.4205 82.3532 32.2706C82.2655 32.1207 82.2138 31.9525 82.2022 31.7792C82.2114 31.5036 82.432 31.329 82.7076 31.5036Z" fill="#79D0EF"/>
<path d="M86.0521 33.4239C86.1971 33.5162 86.3179 33.642 86.4042 33.7907C86.4905 33.9394 86.54 34.1066 86.5483 34.2784C86.5598 34.3401 86.5517 34.4039 86.5254 34.4609C86.499 34.5179 86.4556 34.5653 86.4011 34.5965C86.3466 34.6278 86.2838 34.6414 86.2213 34.6354C86.1588 34.6295 86.0997 34.6042 86.0521 34.5632C85.9059 34.4699 85.7844 34.3427 85.698 34.1923C85.6116 34.0419 85.5629 33.8728 85.556 33.6995C85.556 33.3871 85.7765 33.2677 86.0521 33.4239Z" fill="#6CCCEE"/>
<path d="M72.628 33.3865C72.7725 33.4795 72.8929 33.6054 72.9792 33.754C73.0654 33.9025 73.1151 34.0695 73.1242 34.241C73.1242 34.5534 72.9037 34.6821 72.628 34.5259C72.4829 34.4315 72.3622 34.304 72.2759 34.1538C72.1897 34.0037 72.1403 33.8351 72.1319 33.6622C72.1319 33.3406 72.3616 33.2303 72.628 33.3865Z" fill="#7DD2F0"/>
<path d="M75.9818 35.3261C76.1274 35.4179 76.2485 35.5436 76.3349 35.6924C76.4213 35.8412 76.4704 36.0087 76.478 36.1806C76.478 36.493 76.2575 36.6217 75.9818 36.4655C75.8378 36.3706 75.7185 36.2427 75.6338 36.0925C75.5491 35.9423 75.5014 35.7741 75.4948 35.6018C75.4948 35.2894 75.7154 35.1791 75.9818 35.3261Z" fill="#71CEEE"/>
<path d="M79.3447 37.2559C79.4865 37.351 79.6042 37.4776 79.6888 37.6259C79.7733 37.7742 79.8222 37.94 79.8317 38.1105C79.8317 38.4229 79.6111 38.5515 79.3355 38.3953C79.19 38.3035 79.0688 38.1778 78.9824 38.029C78.896 37.8802 78.8469 37.7127 78.8394 37.5408C78.8394 37.2284 79.0691 37.0997 79.3447 37.2559Z" fill="#65C9ED"/>
<path d="M82.6892 39.1935C82.8313 39.2861 82.9495 39.4109 83.0341 39.5578C83.1188 39.7047 83.1674 39.8695 83.1762 40.0388C83.1762 40.3604 82.9557 40.4799 82.68 40.3329C82.5349 40.2385 82.4142 40.111 82.3279 39.9608C82.2417 39.8107 82.1923 39.6421 82.1839 39.4692C82.1839 39.1568 82.4136 39.0282 82.6892 39.1935Z" fill="#59C5EB"/>
<path d="M86.0338 41.1234C86.1768 41.2179 86.2959 41.3442 86.382 41.4925C86.4681 41.6407 86.5187 41.8069 86.5299 41.9779C86.5299 42.2903 86.3003 42.4189 86.0338 42.2627C85.8876 42.1695 85.766 42.0422 85.6797 41.8918C85.5933 41.7414 85.5445 41.5724 85.5376 41.399C85.5376 41.0958 85.7582 40.9672 86.0338 41.1234Z" fill="#4DC1EA"/>
<path d="M72.6373 29.5374C72.7828 29.6292 72.904 29.7549 72.9904 29.9037C73.0768 30.0526 73.1258 30.22 73.1334 30.3919C73.1334 30.7043 72.9129 30.833 72.6373 30.6768C72.4933 30.5819 72.374 30.4541 72.2893 30.3039C72.2046 30.1537 72.1569 29.9854 72.1503 29.8131C72.1503 29.5098 72.3708 29.3812 72.6373 29.5374Z" fill="#8DD7F2"/>
<path d="M76.0001 31.504C76.1446 31.597 76.265 31.7229 76.3512 31.8715C76.4375 32.0201 76.4872 32.187 76.4963 32.3585C76.4963 32.671 76.2666 32.7996 75.991 32.6434C75.8475 32.548 75.7286 32.42 75.6439 32.2699C75.5593 32.1198 75.5113 31.9518 75.504 31.7797C75.504 31.4489 75.7245 31.3203 76.0001 31.504Z" fill="#81D3F0"/>
<path d="M79.3539 33.414C79.4959 33.5066 79.6141 33.6314 79.6988 33.7783C79.7834 33.9252 79.8321 34.09 79.8409 34.2593C79.8409 34.5809 79.6203 34.7004 79.3447 34.5442C79.2 34.4492 79.0797 34.3216 78.9935 34.1716C78.9073 34.0215 78.8576 33.8533 78.8485 33.6805C78.8945 33.3405 79.0782 33.2486 79.3539 33.414Z" fill="#75CFEF"/>
<path d="M82.6985 35.3439C82.84 35.437 82.9578 35.5619 83.0424 35.7087C83.127 35.8555 83.1759 36.0201 83.1854 36.1892C83.1854 36.5108 82.9649 36.6395 82.6893 36.4833C82.5456 36.3873 82.4261 36.2594 82.34 36.1095C82.2539 35.9597 82.2037 35.792 82.1931 35.6196C82.1931 35.3072 82.4228 35.1785 82.6985 35.3439Z" fill="#69CBED"/>
<path d="M86.043 37.2738C86.1874 37.3667 86.3078 37.4926 86.394 37.6412C86.4803 37.7898 86.53 37.9567 86.5391 38.1283C86.5505 38.19 86.5425 38.2537 86.5162 38.3107C86.4898 38.3677 86.4464 38.4151 86.3919 38.4464C86.3374 38.4777 86.2746 38.4912 86.2121 38.4853C86.1496 38.4793 86.0905 38.4541 86.043 38.4131C85.8978 38.3187 85.777 38.1912 85.6908 38.041C85.6045 37.8908 85.5552 37.7224 85.5468 37.5494C85.5468 37.2462 85.7673 37.1176 86.043 37.2738Z" fill="#5CC6EC"/>
<path d="M72.6189 37.2366C72.7634 37.3296 72.8837 37.4555 72.97 37.6041C73.0563 37.7527 73.106 37.9196 73.1151 38.0911C73.1151 38.4035 72.8945 38.5322 72.6189 38.376C72.4737 38.2816 72.353 38.1541 72.2668 38.0039C72.1805 37.8538 72.1311 37.6852 72.1227 37.5123C72.1227 37.2091 72.3524 37.0804 72.6189 37.2366Z" fill="#6ECDEE"/>
<path d="M75.9726 39.166C76.1156 39.2605 76.2347 39.3868 76.3208 39.5351C76.4069 39.6833 76.4575 39.8494 76.4687 40.0205C76.4687 40.3421 76.2482 40.4707 75.9726 40.3053C75.8281 40.2124 75.7077 40.0864 75.6215 39.9379C75.5352 39.7893 75.4855 39.6224 75.4764 39.4508C75.4856 39.1384 75.7061 39.019 75.9726 39.166Z" fill="#62C8EC"/>
<path d="M79.3263 41.1056C79.4708 41.1985 79.5911 41.3244 79.6774 41.473C79.7637 41.6216 79.8134 41.7885 79.8225 41.9601C79.8339 42.0218 79.8259 42.0856 79.7996 42.1425C79.7732 42.1995 79.7297 42.247 79.6753 42.2783C79.6208 42.3095 79.558 42.3231 79.4955 42.3171C79.433 42.3112 79.3738 42.2859 79.3263 42.2449C79.1807 42.1531 79.0596 42.0274 78.9732 41.8786C78.8868 41.7298 78.8377 41.5623 78.8301 41.3904C78.8301 41.078 79.0506 40.9494 79.3263 41.1056Z" fill="#56C4EB"/>
<path d="M82.6708 43.0352C82.8153 43.1282 82.9357 43.2541 83.022 43.4027C83.1082 43.5513 83.1579 43.7182 83.167 43.8897C83.167 44.2113 82.9373 44.3308 82.6708 44.1746C82.5236 44.0846 82.4012 43.9594 82.3146 43.8102C82.228 43.661 82.1799 43.4925 82.1747 43.3201C82.1747 43.0077 82.3952 42.879 82.6708 43.0352Z" fill="#4BBFE9"/>
<path d="M86.0246 44.9746C86.1663 45.0697 86.2841 45.1963 86.3686 45.3446C86.4531 45.4929 86.502 45.6588 86.5115 45.8292C86.5115 46.1416 86.291 46.2702 86.0246 46.114C85.8787 46.0196 85.757 45.8922 85.6692 45.7422C85.5815 45.5922 85.5301 45.4238 85.5192 45.2503C85.5284 44.9379 85.7489 44.8184 86.0246 44.9746Z" fill="#45B9E8"/>
<path d="M72.6097 41.0877C72.7542 41.1806 72.8745 41.3066 72.9608 41.4551C73.0471 41.6037 73.0968 41.7706 73.1059 41.9422C73.1059 42.2546 72.8762 42.3832 72.6005 42.227C72.4588 42.132 72.341 42.0054 72.2565 41.8571C72.172 41.7088 72.123 41.5429 72.1135 41.3725C72.1135 41.0509 72.334 40.9315 72.6097 41.0877Z" fill="#5EC7EC"/>
<path d="M75.9634 43.0155C76.107 43.1115 76.2266 43.2393 76.3126 43.3892C76.3987 43.539 76.449 43.7067 76.4595 43.8791C76.4595 44.1915 76.239 44.3202 75.9634 44.1548C75.8185 44.0645 75.6978 43.9404 75.6114 43.7932C75.5249 43.646 75.4755 43.48 75.4672 43.3095C75.4672 42.9879 75.6969 42.8593 75.9634 43.0155Z" fill="#52C3EB"/>
<path d="M79.3171 44.9552C79.4623 45.0496 79.583 45.177 79.6693 45.3272C79.7555 45.4774 79.8049 45.6459 79.8133 45.8189C79.8133 46.1221 79.5836 46.2507 79.3171 46.0945C79.1716 46.0027 79.0504 45.877 78.964 45.7282C78.8776 45.5794 78.8285 45.4119 78.8209 45.24C78.8209 44.9276 79.0415 44.799 79.3171 44.9552Z" fill="#49BEE9"/>
<path d="M82.6616 46.8849C82.8068 46.9792 82.9275 47.1068 83.0138 47.257C83.1001 47.4071 83.1494 47.5756 83.1578 47.7486C83.1578 48.0518 82.9281 48.1804 82.6616 48.0242C82.5144 47.9342 82.392 47.809 82.3054 47.6598C82.2188 47.5106 82.1707 47.3421 82.1655 47.1697C82.1655 46.8573 82.386 46.7287 82.6616 46.8849Z" fill="#43B7E7"/>
<path d="M86.0154 48.824C86.1571 48.919 86.2749 49.0457 86.3594 49.194C86.4439 49.3423 86.4929 49.5082 86.5024 49.6786C86.5024 49.991 86.2818 50.1196 86.0062 49.9634C85.8632 49.8689 85.744 49.7425 85.658 49.5943C85.5719 49.4461 85.5212 49.2799 85.51 49.1089C85.51 48.7873 85.7397 48.6678 86.0154 48.824Z" fill="#3CB1E5"/>
<path d="M72.6005 44.9278C72.745 45.0208 72.8653 45.1467 72.9516 45.2953C73.0378 45.4438 73.0876 45.6108 73.0967 45.7823C73.0967 46.0947 72.867 46.2234 72.5913 46.0672C72.4495 45.9721 72.3318 45.8455 72.2473 45.6973C72.1628 45.549 72.1138 45.3831 72.1043 45.2127C72.1043 44.9003 72.3249 44.7716 72.6005 44.9278Z" fill="#5DC7EC"/>
<path d="M75.9542 46.867C76.0987 46.9599 76.2191 47.0859 76.3053 47.2345C76.3916 47.383 76.4413 47.55 76.4504 47.7215C76.4504 48.0339 76.2207 48.1626 75.945 48.0064C75.8022 47.9124 75.6837 47.786 75.5991 47.6375C75.5144 47.489 75.4661 47.3226 75.4581 47.1519C75.4581 46.8303 75.6786 46.7108 75.9542 46.867Z" fill="#47BBE8"/>
<path d="M79.3079 48.797C79.4519 48.8918 79.5712 49.0197 79.6559 49.1699C79.7406 49.3201 79.7882 49.4883 79.7949 49.6607C79.7949 49.9639 79.5744 50.0925 79.3079 49.9363C79.1624 49.8445 79.0412 49.7188 78.9548 49.57C78.8684 49.4212 78.8193 49.2537 78.8117 49.0818C78.8117 48.7694 79.0323 48.6408 79.3079 48.797Z" fill="#40B5E6"/>
<path d="M82.6525 50.7343C82.7974 50.826 82.9176 50.9519 83.0025 51.1009C83.0874 51.2498 83.1344 51.4174 83.1395 51.5888C83.1395 51.9012 82.919 52.0207 82.6525 51.8736C82.507 51.7818 82.3858 51.6562 82.2994 51.5074C82.213 51.3586 82.1639 51.1911 82.1563 51.0191C82.1563 50.6976 82.3769 50.5689 82.6525 50.7343Z" fill="#3AAFE5"/>
<path d="M86.0062 52.6359C86.148 52.7309 86.2657 52.8576 86.3503 53.0058C86.4348 53.1541 86.4837 53.32 86.4932 53.4904C86.4932 53.8028 86.2726 53.9314 85.997 53.7752C85.852 53.6828 85.7313 53.557 85.6449 53.4083C85.5586 53.2597 85.5092 53.0924 85.5009 52.9207C85.5009 52.6359 85.7305 52.5072 86.0062 52.6359Z" fill="#34A9E3"/>
<path d="M52.4966 37.172C52.6384 37.267 52.7562 37.3936 52.8407 37.5419C52.9252 37.6902 52.9741 37.8561 52.9836 38.0265C52.9836 38.3389 52.7631 38.4675 52.4874 38.3113C52.3439 38.2173 52.2244 38.0911 52.1383 37.9427C52.0521 37.7944 52.0017 37.628 51.9912 37.4568C51.9912 37.1444 52.2485 37.0158 52.4966 37.172Z" fill="#88D6F1"/>
<path d="M55.8411 39.1115C55.9866 39.2033 56.1078 39.329 56.1942 39.4778C56.2806 39.6266 56.3297 39.7941 56.3373 39.966C56.3487 40.0278 56.3407 40.0915 56.3143 40.1485C56.288 40.2055 56.2445 40.2529 56.19 40.2842C56.1356 40.3155 56.0728 40.329 56.0103 40.3231C55.9477 40.3171 55.8886 40.2919 55.8411 40.2509C55.699 40.1553 55.5806 40.0287 55.4946 39.8807C55.4087 39.7327 55.3575 39.5671 55.3449 39.3964C55.3449 39.084 55.5654 38.9462 55.8411 39.1115Z" fill="#7CD2F0"/>
<path d="M59.1948 41.0411C59.3381 41.1345 59.457 41.2608 59.5417 41.4094C59.6264 41.558 59.6745 41.7247 59.6818 41.8956C59.6818 42.208 59.4613 42.3366 59.1856 42.1804C59.0411 42.0875 58.9208 41.9616 58.8345 41.813C58.7483 41.6644 58.6986 41.4975 58.6895 41.3259C58.6803 41.0135 58.9192 40.8849 59.1948 41.0411Z" fill="#70CDEE"/>
<path d="M62.5394 42.9804C62.6844 43.0728 62.8051 43.1986 62.8914 43.3473C62.9778 43.496 63.0272 43.6632 63.0355 43.8349C63.0355 44.1473 62.815 44.2759 62.5394 44.1197C62.3955 44.0269 62.2762 43.9008 62.1914 43.752C62.1066 43.6033 62.0589 43.4363 62.0524 43.2652C62.0524 42.9437 62.2637 42.815 62.5394 42.9804Z" fill="#63C9ED"/>
<path d="M65.8931 44.9102C66.0382 45.0046 66.159 45.1321 66.2452 45.2823C66.3315 45.4324 66.3809 45.601 66.3893 45.7739C66.3893 46.0772 66.1687 46.2058 65.8931 46.0496C65.7486 45.9566 65.6283 45.8307 65.542 45.6821C65.4557 45.5336 65.406 45.3666 65.3969 45.1951C65.3969 44.8827 65.6174 44.754 65.8931 44.9102Z" fill="#57C5EB"/>
<path d="M69.2376 46.838C69.3828 46.9324 69.5034 47.0599 69.5897 47.21C69.676 47.3602 69.7254 47.5287 69.7338 47.7017C69.7338 48.0141 69.5132 48.1335 69.2376 47.9773C69.1016 47.8794 68.9902 47.7512 68.9121 47.603C68.834 47.4547 68.7913 47.2904 68.7874 47.1228C68.7874 46.8104 68.9619 46.6818 69.2376 46.838Z" fill="#4CC0EA"/>
<path d="M52.469 44.8826C52.6135 44.9756 52.7338 45.1015 52.8201 45.2501C52.9064 45.3986 52.9561 45.5656 52.9652 45.7371C52.9766 45.7989 52.9686 45.8627 52.9422 45.9197C52.9158 45.9767 52.8724 46.0241 52.818 46.0553C52.7635 46.0866 52.7007 46.1002 52.6382 46.0942C52.5757 46.0882 52.5165 46.063 52.469 46.0219C52.3229 45.9307 52.2014 45.8052 52.1149 45.6563C52.0284 45.5074 51.9796 45.3395 51.9728 45.1674C51.9728 44.8459 52.1933 44.7264 52.469 44.8826Z" fill="#69CBED"/>
<path d="M55.8227 46.8029C55.9671 46.8952 56.0868 47.0212 56.1717 47.1701C56.2565 47.3189 56.3039 47.4862 56.3097 47.6574C56.319 47.7176 56.31 47.7791 56.2839 47.8341C56.2577 47.8891 56.2157 47.9348 56.1631 47.9656C56.1106 47.9963 56.0501 48.0105 55.9893 48.0064C55.9286 48.0022 55.8706 47.9799 55.8227 47.9423C55.678 47.8487 55.5571 47.7229 55.4694 47.5746C55.3817 47.4263 55.3296 47.2596 55.3174 47.0878C55.3266 46.7754 55.5379 46.6376 55.8227 46.8029Z" fill="#5DC6EC"/>
<path d="M59.1673 48.7498C59.3118 48.8427 59.4321 48.9687 59.5183 49.1172C59.6046 49.2658 59.6543 49.4327 59.6634 49.6043C59.6634 49.9167 59.4429 50.0453 59.1673 49.8891C59.0238 49.7951 58.9042 49.6689 58.8181 49.5206C58.7319 49.3722 58.6816 49.2058 58.6711 49.0346C58.6803 48.713 58.8916 48.5936 59.1673 48.7498Z" fill="#50C2EA"/>
<path d="M62.521 50.6893C62.6652 50.7795 62.785 50.9037 62.8699 51.0511C62.9548 51.1985 63.0023 51.3645 63.008 51.5346C63.008 51.8561 62.7966 51.9756 62.521 51.8194C62.3767 51.7285 62.2563 51.6043 62.17 51.4572C62.0836 51.3101 62.0339 51.1444 62.0248 50.9741C62.0248 50.6525 62.2453 50.5331 62.521 50.6893Z" fill="#49BDE9"/>
<path d="M65.8747 52.6362C66.0182 52.7302 66.1378 52.8564 66.2239 53.0048C66.31 53.1531 66.3604 53.3195 66.3709 53.4907C66.3709 53.8123 66.1412 53.9317 65.8655 53.7755C65.7233 53.681 65.6051 53.5545 65.5205 53.4061C65.436 53.2577 65.3873 53.0916 65.3785 52.921C65.3785 52.6362 65.5991 52.4616 65.8747 52.6362Z" fill="#42B6E7"/>
<path d="M69.2192 54.547C69.3626 54.641 69.4822 54.7672 69.5684 54.9155C69.6545 55.0639 69.7048 55.2303 69.7154 55.4015C69.7154 55.7231 69.4857 55.8425 69.21 55.6863C69.0667 55.5929 68.9478 55.4666 68.8631 55.318C68.7784 55.1694 68.7304 55.0027 68.723 54.8318C68.723 54.5194 68.9435 54.3908 69.2192 54.547Z" fill="#3BB0E5"/>
<path d="M52.4874 41.0312C52.6292 41.1262 52.7469 41.2529 52.8315 41.4012C52.916 41.5494 52.9648 41.7153 52.9743 41.8857C52.9743 42.2073 52.7538 42.3267 52.4782 42.1705C52.3347 42.0765 52.2152 41.9503 52.129 41.802C52.0429 41.6536 51.9926 41.4872 51.9821 41.316C51.9821 40.9944 52.2485 40.8658 52.4874 41.0312Z" fill="#77D0EF"/>
<path d="M55.832 42.9611C55.9775 43.0529 56.0986 43.1787 56.185 43.3275C56.2714 43.4763 56.3205 43.6438 56.3281 43.8157C56.3372 43.8767 56.3274 43.939 56.3001 43.9943C56.2728 44.0496 56.2294 44.0953 56.1755 44.1252C56.1215 44.1552 56.0598 44.168 55.9984 44.1619C55.937 44.1559 55.879 44.1312 55.832 44.0913C55.6877 44.0004 55.5672 43.8762 55.4809 43.7291C55.3946 43.582 55.3448 43.4163 55.3358 43.246C55.3358 42.9336 55.5471 42.7958 55.832 42.9611Z" fill="#6CCCEE"/>
<path d="M59.1856 44.9003C59.3289 44.9937 59.4479 45.12 59.5326 45.2686C59.6173 45.4172 59.6653 45.5839 59.6726 45.7548C59.6726 46.0764 59.4521 46.1959 59.1764 46.0397C59.0335 45.9451 58.9143 45.8188 58.8282 45.6705C58.7422 45.5223 58.6915 45.3562 58.6803 45.1852C58.6803 44.8636 58.91 44.7349 59.1856 44.9003Z" fill="#61C8EC"/>
<path d="M62.5301 46.8299C62.6748 46.9249 62.7951 47.0526 62.8813 47.2026C62.9675 47.3526 63.0172 47.5208 63.0263 47.6936C63.0263 48.006 62.8058 48.1347 62.5301 47.9693C62.3869 47.8772 62.2673 47.7528 62.1811 47.6059C62.0949 47.4591 62.0445 47.2939 62.034 47.124C62.034 46.8024 62.2545 46.6737 62.5301 46.8299Z" fill="#55C4EB"/>
<path d="M65.8839 48.7678C66.0284 48.8607 66.1487 48.9867 66.235 49.1352C66.3212 49.2838 66.371 49.4507 66.38 49.6223C66.38 49.9439 66.1503 50.0634 65.8747 49.9072C65.7329 49.8122 65.6151 49.6855 65.5306 49.5372C65.4461 49.3889 65.3972 49.223 65.3877 49.0526C65.3877 48.7402 65.6082 48.6024 65.8839 48.7678Z" fill="#4ABEE9"/>
<path d="M69.2284 50.6975C69.3729 50.7904 69.4932 50.9164 69.5795 51.0649C69.6658 51.2135 69.7155 51.3804 69.7246 51.552C69.7246 51.8736 69.4948 51.993 69.2192 51.8368C69.0774 51.7418 68.9597 51.6151 68.8752 51.4669C68.7907 51.3186 68.7417 51.1527 68.7322 50.9823C68.7322 50.6699 68.9527 50.5321 69.2284 50.6975Z" fill="#44B9E7"/>
<path d="M52.4598 48.7324C52.6041 48.8233 52.7246 48.9475 52.8109 49.0946C52.8972 49.2417 52.947 49.4074 52.956 49.5777C52.956 49.8993 52.7263 50.0187 52.4598 49.8625C52.3143 49.7707 52.1931 49.6451 52.1067 49.4963C52.0203 49.3475 51.9713 49.1799 51.9637 49.008C51.9637 48.6864 52.1842 48.567 52.4598 48.7324Z" fill="#59C5EB"/>
<path d="M55.8135 50.6526C55.9568 50.746 56.0757 50.8722 56.1604 51.0208C56.2451 51.1695 56.2931 51.3362 56.3005 51.5071C56.3119 51.5688 56.3039 51.6326 56.2775 51.6895C56.2512 51.7465 56.2078 51.7939 56.1533 51.8252C56.0988 51.8565 56.036 51.8701 55.9735 51.8641C55.911 51.8582 55.8519 51.8329 55.8043 51.7919C55.6623 51.6963 55.5439 51.5697 55.4579 51.4217C55.372 51.2737 55.3208 51.1081 55.3082 50.9374C55.3082 50.625 55.5287 50.4872 55.8135 50.6526Z" fill="#4DC1EA"/>
<path d="M59.1581 52.6371C59.3024 52.728 59.4227 52.8522 59.5091 52.9993C59.5954 53.1464 59.6452 53.3121 59.6542 53.4824C59.6542 53.804 59.4337 53.9234 59.1581 53.7672C59.0146 53.6732 58.895 53.547 58.8089 53.3987C58.7228 53.2503 58.6724 53.0839 58.6619 52.9127C58.6802 52.5544 58.8824 52.435 59.1581 52.6371Z" fill="#46BBE8"/>
<path d="M62.5118 54.5306C62.6556 54.6235 62.775 54.7496 62.8598 54.8984C62.9445 55.0471 62.9922 55.2141 62.9988 55.3851C62.9988 55.6975 62.7782 55.8262 62.5026 55.6608C62.3605 55.5683 62.2423 55.4434 62.1577 55.2965C62.073 55.1496 62.0244 54.9848 62.0156 54.8155C62.0156 54.4755 62.2361 54.3744 62.5118 54.5306Z" fill="#40B5E6"/>
<path d="M65.8563 56.4688C66.0017 56.5585 66.1229 56.6825 66.2094 56.8298C66.2959 56.9772 66.345 57.1435 66.3525 57.3142C66.3525 57.6357 66.132 57.7552 65.8563 57.599C65.7125 57.5061 65.5932 57.38 65.5084 57.2313C65.4236 57.0825 65.376 56.9155 65.3694 56.7444C65.3694 56.432 65.5807 56.3126 65.8563 56.4688Z" fill="#3AAFE4"/>
<path d="M69.2009 58.3986C69.3475 58.4892 69.4695 58.6146 69.556 58.7636C69.6426 58.9127 69.691 59.0809 69.697 59.2531C69.697 59.5655 69.4765 59.685 69.2009 59.5288C69.0565 59.4365 68.9367 59.3105 68.8519 59.1616C68.767 59.0127 68.7197 58.8455 68.7139 58.6743C68.7139 58.3619 68.9252 58.2332 69.2009 58.3986Z" fill="#34A9E3"/>
<path d="M52.4506 52.5721C52.5939 52.6655 52.7129 52.7917 52.7976 52.9403C52.8823 53.089 52.9303 53.2557 52.9376 53.4266C52.9376 53.7482 52.7171 53.8676 52.4506 53.7114C52.3034 53.6214 52.181 53.4962 52.0944 53.347C52.0078 53.1978 51.9597 53.0293 51.9545 52.8569C51.9545 52.5353 52.175 52.4159 52.4506 52.5721Z" fill="#4BBFE9"/>
<path d="M55.8044 54.4738C55.9466 54.5683 56.0648 54.6948 56.1494 54.8432C56.2339 54.9916 56.2826 55.1577 56.2914 55.3283C56.2914 55.6407 56.0616 55.7601 55.7952 55.6039C55.6524 55.5113 55.5332 55.3868 55.4471 55.24C55.3609 55.0933 55.3102 54.9284 55.299 54.7586C55.299 54.4738 55.5195 54.3451 55.8044 54.4738Z" fill="#44B9E8"/>
<path d="M59.1489 56.4408C59.2923 56.5348 59.4119 56.661 59.498 56.8094C59.5841 56.9577 59.6345 57.1241 59.645 57.2953C59.645 57.6169 59.4245 57.7455 59.1489 57.5802C59.0044 57.4872 58.884 57.3613 58.7977 57.2127C58.7115 57.0641 58.6617 56.8972 58.6526 56.7257C58.6802 56.4041 58.8732 56.3122 59.1489 56.4408Z" fill="#3EB3E6"/>
<path d="M62.5026 58.3787C62.6464 58.4716 62.7658 58.5977 62.8505 58.7464C62.9353 58.8952 62.983 59.0621 62.9896 59.2332C62.9896 59.5456 62.7691 59.6742 62.4934 59.518C62.3501 59.4246 62.2311 59.2984 62.1464 59.1498C62.0617 59.0011 62.0137 58.8344 62.0064 58.6635C62.0064 58.342 62.2269 58.2225 62.5026 58.3787Z" fill="#38ADE4"/>
<path d="M65.8471 60.3087C65.9906 60.4027 66.1101 60.5289 66.1963 60.6772C66.2824 60.8256 66.3328 60.992 66.3433 61.1632C66.3433 61.4848 66.1227 61.6135 65.8471 61.4481C65.7021 61.3557 65.5814 61.2299 65.495 61.0812C65.4087 60.9325 65.3593 60.7652 65.351 60.5935C65.3601 60.2811 65.5715 60.1525 65.8471 60.3087Z" fill="#31A6E2"/>
<path d="M69.1916 62.2482C69.3359 62.3391 69.4563 62.4634 69.5427 62.6105C69.629 62.7575 69.6788 62.9232 69.6878 63.0935C69.6878 63.4151 69.4673 63.5438 69.1916 63.3876C69.047 63.2926 68.9267 63.165 68.8405 63.0149C68.7543 62.8649 68.7046 62.6967 68.6955 62.5239C68.6955 62.2115 68.916 62.0828 69.1916 62.2482Z" fill="#2BA0E0"/>
<path d="M72.5822 48.7774C72.7278 48.8699 72.8496 48.9955 72.9374 49.144C73.0253 49.2925 73.0767 49.4597 73.0875 49.6319C73.0875 49.9443 72.8578 50.073 72.5822 49.9168C72.4404 49.8217 72.3226 49.6951 72.2381 49.5469C72.1536 49.3986 72.1047 49.2327 72.0952 49.0623C72.0952 48.7499 72.3157 48.6212 72.5822 48.7774Z" fill="#5CC2EB"/>
<path d="M75.945 50.7068C76.0887 50.8028 76.2083 50.9306 76.2943 51.0805C76.3804 51.2303 76.4307 51.398 76.4412 51.5705C76.4412 51.8829 76.2115 52.0115 75.9359 51.8461C75.7922 51.7553 75.6728 51.6309 75.5879 51.4836C75.5031 51.3364 75.4554 51.1706 75.4489 51.0008C75.4489 50.6792 75.6694 50.5598 75.945 50.7068Z" fill="#3FB4E6"/>
<path d="M79.2987 52.6379C79.4417 52.7339 79.5602 52.8619 79.6448 53.0119C79.7294 53.1619 79.7776 53.3296 79.7857 53.5016C79.7857 53.8048 79.5652 53.9335 79.2987 53.7773C79.152 53.6859 79.0295 53.5606 78.9415 53.4118C78.8535 53.2631 78.8027 53.0953 78.7934 52.9228C78.8026 52.6379 79.0231 52.4909 79.2987 52.6379Z" fill="#39AEE4"/>
<path d="M82.6433 54.5763C82.7863 54.6722 82.9047 54.8003 82.9893 54.9503C83.0739 55.1003 83.1221 55.268 83.1302 55.44C83.1302 55.7524 82.9097 55.8718 82.6341 55.7156C82.4896 55.6227 82.3692 55.4967 82.283 55.3482C82.1967 55.1996 82.147 55.0327 82.1379 54.8611C82.1379 54.5487 82.3676 54.4201 82.6433 54.5763Z" fill="#32A8E2"/>
<path d="M85.9878 56.5135C86.1323 56.6064 86.2526 56.7324 86.3389 56.881C86.4252 57.0295 86.4749 57.1965 86.484 57.368C86.4954 57.4298 86.4874 57.4935 86.461 57.5505C86.4347 57.6075 86.3912 57.6549 86.3368 57.6862C86.2823 57.7174 86.2195 57.731 86.157 57.725C86.0945 57.7191 86.0353 57.6939 85.9878 57.6529C85.8428 57.5605 85.722 57.4347 85.6357 57.286C85.5494 57.1373 85.5 56.9701 85.4916 56.7984C85.4916 56.4768 85.7121 56.3573 85.9878 56.5135Z" fill="#2BA1E0"/>
<path d="M72.5637 56.4864C72.7087 56.5788 72.8295 56.7046 72.9158 56.8533C73.0021 57.002 73.0516 57.1692 73.0599 57.3409C73.0599 57.6533 72.8394 57.7727 72.5637 57.6165C72.4194 57.5256 72.299 57.4014 72.2127 57.2543C72.1264 57.1072 72.0766 56.9416 72.0676 56.7712C72.0676 56.4497 72.2973 56.3118 72.5637 56.4864Z" fill="#35AAE3"/>
<path d="M75.9175 58.4258C76.0625 58.5182 76.1832 58.644 76.2695 58.7927C76.3559 58.9414 76.4053 59.1086 76.4136 59.2803C76.4136 59.5927 76.1931 59.7122 75.9175 59.556C75.7725 59.4636 75.6517 59.3378 75.5654 59.1891C75.4791 59.0405 75.4296 58.8732 75.4213 58.7015C75.4305 58.3891 75.651 58.2696 75.9175 58.4258Z" fill="#2FA4E1"/>
<path d="M79.2712 60.3632C79.4155 60.4542 79.5359 60.5784 79.6222 60.7255C79.7086 60.8726 79.7583 61.0383 79.7674 61.2086C79.7674 61.5302 79.5376 61.6496 79.2712 61.4934C79.1256 61.4016 79.0045 61.2759 78.9181 61.1271C78.8317 60.9783 78.7826 60.8108 78.775 60.6389C78.775 60.3173 78.9955 60.1979 79.2712 60.3632Z" fill="#289EDF"/>
<path d="M82.6157 62.2931C82.76 62.3841 82.8804 62.5083 82.9667 62.6554C83.0531 62.8025 83.1029 62.9681 83.1119 63.1385C83.1119 63.46 82.8822 63.5795 82.6157 63.4233C82.4696 63.3321 82.3481 63.2065 82.2616 63.0576C82.1751 62.9087 82.1264 62.7409 82.1196 62.5688C82.1196 62.2564 82.3401 62.1278 82.6157 62.2931Z" fill="#2197DD"/>
<path d="M85.9695 64.2225C86.1133 64.3153 86.2326 64.4414 86.3174 64.5902C86.4022 64.7389 86.4498 64.9059 86.4564 65.077C86.4564 65.3894 86.2359 65.5089 85.9695 65.3527C85.8241 65.2629 85.7029 65.1389 85.6164 64.9916C85.5299 64.8443 85.4808 64.678 85.4733 64.5073C85.4733 64.1857 85.6938 64.0663 85.9695 64.2225Z" fill="#1B92DC"/>
<path d="M72.5729 52.6359C72.7176 52.7309 72.8379 52.8585 72.9241 53.0085C73.0103 53.1586 73.0599 53.3268 73.0691 53.4996C73.0691 53.812 72.8486 53.9406 72.5729 53.7753C72.4311 53.6816 72.3127 53.5568 72.2267 53.4102C72.1407 53.2637 72.0894 53.0994 72.0768 52.93C72.086 52.6359 72.3065 52.4705 72.5729 52.6359Z" fill="#3DB2E6"/>
<path d="M75.9266 54.5663C76.073 54.6602 76.1951 54.7874 76.2829 54.9375C76.3708 55.0876 76.4218 55.2564 76.432 55.43C76.432 55.7424 76.2023 55.8619 75.9266 55.7057C75.784 55.6137 75.6654 55.489 75.5807 55.342C75.496 55.195 75.4477 55.0298 75.4396 54.8603C75.4396 54.5387 75.6602 54.4101 75.9266 54.5663Z" fill="#37ACE4"/>
<path d="M79.2895 56.5045C79.4313 56.5995 79.5491 56.7261 79.6336 56.8744C79.7181 57.0227 79.767 57.1886 79.7765 57.359C79.7765 57.6806 79.556 57.8 79.2803 57.6438C79.1353 57.5515 79.0146 57.4257 78.9283 57.277C78.8419 57.1283 78.7925 56.9611 78.7842 56.7893C78.7842 56.4769 79.0139 56.3116 79.2895 56.5045Z" fill="#30A6E2"/>
<path d="M82.6341 58.4337C82.7759 58.5287 82.8937 58.6554 82.9782 58.8036C83.0627 58.9519 83.1116 59.1178 83.1211 59.2882C83.1211 59.6098 82.9006 59.7292 82.6249 59.573C82.481 59.4795 82.361 59.3535 82.2748 59.205C82.1886 59.0566 82.1386 58.8899 82.1288 58.7185C82.1288 58.4061 82.3585 58.2775 82.6341 58.4337Z" fill="#2AA0E0"/>
<path d="M85.9786 60.373C86.1236 60.4654 86.2444 60.5912 86.3307 60.7399C86.417 60.8885 86.4664 61.0558 86.4748 61.2275C86.4862 61.2892 86.4782 61.353 86.4518 61.41C86.4255 61.467 86.3821 61.5144 86.3276 61.5457C86.2732 61.577 86.2103 61.5905 86.1478 61.5846C86.0853 61.5786 86.0262 61.5533 85.9786 61.5123C85.8352 61.4183 85.7156 61.2921 85.6295 61.1438C85.5433 60.9954 85.493 60.829 85.4824 60.6578C85.4824 60.3362 85.703 60.2076 85.9786 60.373Z" fill="#2399DE"/>
<path d="M72.5546 60.326C72.699 60.4189 72.8194 60.5448 72.9057 60.6934C72.9919 60.842 73.0417 61.0089 73.0508 61.1805C73.0508 61.5021 72.8302 61.6215 72.5546 61.4561C72.4103 61.3652 72.2899 61.241 72.2035 61.0939C72.1172 60.9468 72.0674 60.7811 72.0584 60.6108C72.0584 60.2892 72.2881 60.1698 72.5546 60.326Z" fill="#2CA2E1"/>
<path d="M75.9083 62.2654C76.0533 62.3578 76.174 62.4836 76.2603 62.6323C76.3467 62.781 76.3961 62.9482 76.4044 63.1199C76.4044 63.4323 76.1839 63.561 75.9083 63.3956C75.765 63.3036 75.6454 63.1791 75.5592 63.0322C75.473 62.8854 75.4226 62.7202 75.4121 62.5503C75.4121 62.2287 75.6418 62.1092 75.9083 62.2654Z" fill="#269CDF"/>
<path d="M79.262 64.2053C79.4063 64.2962 79.5267 64.4204 79.613 64.5675C79.6994 64.7146 79.7491 64.8802 79.7582 65.0506C79.7582 65.3722 79.5285 65.4916 79.262 65.3354C79.117 65.243 78.9963 65.1172 78.9099 64.9685C78.8236 64.8198 78.7742 64.6526 78.7658 64.4809C78.7658 64.1685 78.9864 64.0399 79.262 64.2053Z" fill="#1F96DD"/>
<path d="M82.5698 66.1348C82.7148 66.2272 82.8355 66.353 82.9218 66.5017C83.0082 66.6504 83.0576 66.8176 83.0659 66.9893C83.0659 67.3017 82.8362 67.4211 82.5698 67.2649C82.4237 67.1737 82.3021 67.0482 82.2157 66.8993C82.1292 66.7504 82.0804 66.5825 82.0736 66.4104C82.1104 66.098 82.3309 65.9786 82.5698 66.1348Z" fill="#1990DB"/>
<path d="M85.9602 68.0643C86.102 68.1593 86.2198 68.2859 86.3043 68.4342C86.3888 68.5825 86.4377 68.7484 86.4472 68.9188C86.4472 69.2312 86.2267 69.3598 85.951 69.2036C85.8081 69.1091 85.6889 68.9828 85.6028 68.8345C85.5168 68.6863 85.4661 68.5201 85.4549 68.3491C85.4549 68.0275 85.6846 67.9081 85.9602 68.0643Z" fill="#1289D9"/>
<path d="M72.5454 64.1775C72.6904 64.2699 72.8111 64.3957 72.8975 64.5444C72.9838 64.6931 73.0332 64.8603 73.0415 65.032C73.0415 65.3444 72.8118 65.4731 72.5362 65.3169C72.3944 65.2218 72.2766 65.0952 72.1921 64.947C72.1076 64.7987 72.0587 64.6328 72.0492 64.4624C72.0492 64.1408 72.2697 64.0213 72.5454 64.1775Z" fill="#249ADE"/>
<path d="M75.8991 66.115C76.0441 66.2074 76.1648 66.3332 76.2512 66.4819C76.3375 66.6306 76.387 66.7978 76.3953 66.9695C76.3953 67.2819 76.1747 67.4106 75.8991 67.2544C75.7536 67.1626 75.6324 67.0369 75.546 66.8881C75.4596 66.7393 75.4105 66.5718 75.403 66.3999C75.403 66.0783 75.6326 65.9588 75.8991 66.115Z" fill="#1E94DD"/>
<path d="M79.2529 68.0549C79.3956 68.1474 79.5148 68.272 79.6009 68.4188C79.6871 68.5655 79.7378 68.7304 79.749 68.9002C79.749 69.2218 79.5193 69.3504 79.2529 69.1942C79.1077 69.0998 78.987 68.9723 78.9007 68.8221C78.8145 68.6719 78.7651 68.5035 78.7567 68.3305C78.7567 68.0181 78.9772 67.8895 79.2529 68.0549Z" fill="#178EDB"/>
<path d="M82.5698 69.9844C82.7129 70.0758 82.8318 70.2003 82.9166 70.3475C83.0014 70.4946 83.0495 70.6601 83.0568 70.8297C83.0568 71.1513 82.8362 71.28 82.5698 71.1238C82.423 71.0311 82.3011 70.904 82.2146 70.7535C82.1281 70.6029 82.0797 70.4335 82.0736 70.2601C82.1012 69.9477 82.3217 69.8282 82.5698 69.9844Z" fill="#1088D9"/>
<path d="M85.951 71.9313C86.0938 72.0253 86.2124 72.1517 86.297 72.3002C86.3816 72.4487 86.43 72.6151 86.438 72.7858C86.438 73.0982 86.2175 73.2269 85.9418 73.0707C85.7963 72.9789 85.6751 72.8532 85.5887 72.7044C85.5023 72.5556 85.4533 72.3881 85.4457 72.2162C85.4457 71.8762 85.6754 71.7568 85.951 71.9313Z" fill="#0A81D7"/>
<path opacity="0.1" d="M82.4529 72.6109L79.3913 74.3529L52.87 60.9881L55.9316 59.2461L82.4529 72.6109Z" fill="#1F1D21"/>
<path d="M61.1488 36.8334C60.6802 36.434 60.1781 36.1062 59.676 35.8809C58.4153 35.2562 57.2995 35.2255 56.4738 35.6147L53.0262 37.2533C53.8518 36.8539 54.9676 36.8948 56.2284 37.5195C56.7305 37.7551 57.1991 38.0828 57.7012 38.472L58.4934 39.1274L61.9745 37.4581L61.1488 36.8334Z" fill="#A1F6FF"/>
<path d="M79.8376 39.9782C78.0412 36.2811 74.9841 33.1166 71.648 31.4677C68.9479 30.1466 66.5044 30.0135 64.7415 30.9045L61.2604 32.5636C63.0233 31.6726 65.4668 31.8057 68.1669 33.1268C71.5141 34.7757 74.5601 37.9812 76.3565 41.6373L76.5685 42.0981L80.0496 40.4288L79.8376 39.9782Z" fill="#A1F6FF"/>
<path d="M89.5 52.1554C89.5 48.1306 86.1974 43.1841 82.1026 41.1666C81.5224 40.8696 80.9868 40.675 80.4513 40.5419L80.0608 40.4395L76.5685 42.1088L76.959 42.2112C77.4946 42.3443 78.0413 42.5389 78.6103 42.8359C82.7051 44.8534 86.0077 49.7999 86.0077 53.8247C86.0077 54.2856 85.9742 54.7157 85.8627 55.1766C85.8627 55.2073 85.8292 55.3097 85.8292 55.3404C85.6842 55.9037 85.3941 56.5284 85.1821 56.7947C85.1486 56.8254 85.1486 56.8561 85.1151 56.8971C85.0816 56.9278 85.0816 56.9585 85.0482 56.9995C84.7246 57.3989 84.2895 57.7266 83.8655 57.9519L87.3466 56.2826C87.8152 56.0471 88.2057 55.7193 88.5293 55.3302C88.5628 55.2994 88.5628 55.2687 88.5963 55.2278C88.6297 55.197 88.6297 55.1663 88.6632 55.1253C88.8752 54.8591 89.1653 54.2344 89.3103 53.6711C89.3103 53.6404 89.3438 53.538 89.3438 53.5072V53.5687V53.5072C89.4665 53.0771 89.5 52.6162 89.5 52.1554Z" fill="#A1F6FF"/>
<path d="M68.1669 33.127C71.5141 34.7758 74.5601 37.9813 76.3565 41.6374L76.5685 42.0983L76.959 42.2007C77.4945 42.3338 78.0413 42.5284 78.6103 42.8254C82.7051 44.8429 86.0077 49.7894 86.0077 53.8142C86.0077 54.2751 85.9742 54.7052 85.8627 55.1661C85.8627 55.1968 85.8292 55.2992 85.8292 55.3299C85.6841 55.8932 85.394 56.5179 85.1821 56.7842C85.1486 56.8149 85.1486 56.8456 85.1151 56.8866C85.0816 56.9173 85.0816 56.948 85.0482 56.989C83.7204 58.6378 81.2323 58.8324 78.5768 57.5113L55.6816 46.1231C54.5994 45.4676 53.5952 44.4742 52.8476 43.2863C52.0889 42.0983 51.6984 40.8488 51.6984 39.7223C51.6984 37.2849 53.7179 36.2915 56.1949 37.5102C56.697 37.7458 57.1656 38.0735 57.6677 38.4626L58.4599 39.1181L58.4264 38.2578C58.4264 38.1247 58.4264 37.9915 58.4264 37.8584C58.4264 32.6354 62.8113 30.495 68.1669 33.127Z" fill="url(#paint2_linear_346_60711)"/>
<path d="M76.3788 49.2054L72.2059 44.4227L72.1948 46.3173L62.365 40.8383C62.0414 40.654 61.6175 40.7564 61.4166 41.0534C61.2158 41.3504 61.3274 41.7395 61.6509 41.9239L72.1948 47.8023L72.1836 49.5228L76.3788 49.2054Z" fill="white"/>
<path opacity="0.15" d="M86.2272 78.6076L67.6095 68.6484L50.4098 77.7251L69.0275 87.4741L86.2272 78.6076Z" fill="url(#paint3_linear_346_60711)"/>
<path opacity="0.15" d="M63.3095 65.6642L44.6918 55.7051L27.4921 64.7817L46.1098 74.5307L63.3095 65.6642Z" fill="url(#paint4_linear_346_60711)"/>
<path d="M45.2865 39.2748L45.195 73.6064L27.7666 64.9079L27.8123 30.4082L45.2865 39.2748Z" fill="#EBEBEB"/>
<path d="M45.1492 39.1058L45.195 73.6056L62.6691 64.655L62.6234 30.1973L45.1492 39.1058Z" fill="#CDCDD0"/>
<path d="M62.6233 30.1985L45.1492 39.1911L27.8123 30.4086L45.2864 21.5L62.6233 30.1985Z" fill="#CDCDD0"/>
<path d="M43.7768 40.5767V43.5182L28.9558 35.7442V32.8027L43.7768 40.5767Z" fill="url(#paint5_linear_346_60711)"/>
<path d="M43.7768 44.065V47.0485L28.9558 39.2325V36.291L43.7768 44.065Z" fill="url(#paint6_linear_346_60711)"/>
<path d="M43.7768 47.6373V50.5788L28.9558 42.7628V39.8633L43.7768 47.6373Z" fill="url(#paint7_linear_346_60711)"/>
<path d="M43.7768 51.2095V54.151L28.9558 46.335V43.4355L43.7768 51.2095Z" fill="url(#paint8_linear_346_60711)"/>
<path d="M43.7768 54.7388V57.7224L28.9558 49.9064V46.9648L43.7768 54.7388Z" fill="url(#paint9_linear_346_60711)"/>
<path d="M43.7768 58.3111V61.2526L28.9558 53.4786V50.5371L43.7768 58.3111Z" fill="url(#paint10_linear_346_60711)"/>
<path d="M43.7768 61.8834V64.8249L28.9558 57.0089V54.1094L43.7768 61.8834Z" fill="url(#paint11_linear_346_60711)"/>
<path d="M43.7768 65.4117V68.3952L28.9558 60.5792V57.6797L43.7768 65.4117Z" fill="url(#paint12_linear_346_60711)"/>
<path d="M46.5215 40.4088V43.3503L61.2968 35.5343V32.6348L46.5215 40.4088Z" fill="url(#paint13_linear_346_60711)"/>
<path d="M46.5215 43.94V46.8815L61.2968 39.0655V36.166L46.5215 43.94Z" fill="url(#paint14_linear_346_60711)"/>
<path d="M46.5215 47.4693V50.4108L61.2968 42.6368V39.6953L46.5215 47.4693Z" fill="url(#paint15_linear_346_60711)"/>
<path d="M46.5215 51.0416V53.9831L61.2968 46.1671V43.2676L46.5215 51.0416Z" fill="url(#paint16_linear_346_60711)"/>
<path d="M46.5215 54.6138V57.5553L61.2968 49.7393V46.8398L46.5215 54.6138Z" fill="url(#paint17_linear_346_60711)"/>
<path d="M46.5215 58.1421V61.1257L61.2968 53.3096V50.4102L46.5215 58.1421Z" fill="url(#paint18_linear_346_60711)"/>
<path d="M46.5215 61.7154V64.6569L61.2968 56.8829V53.9414L46.5215 61.7154Z" fill="url(#paint19_linear_346_60711)"/>
<path d="M46.5215 65.2857V68.2272L61.2968 60.4112V57.5117L46.5215 65.2857Z" fill="url(#paint20_linear_346_60711)"/>
<mask id="mask0_346_60711" style="mask-type:alpha" maskUnits="userSpaceOnUse" x="31" y="21" width="29" height="16">
<path d="M59.1544 29.3661L45.1969 36.8243L31.2012 29.3981L45.1644 21.9219L59.1544 29.3661Z" fill="#CDCDD0"/>
</mask>
<g mask="url(#mask0_346_60711)">
<path d="M62.0237 28.5192C62.0389 23.5777 54.527 19.5523 45.2453 19.5281C35.9637 19.504 28.427 23.4902 28.4118 28.4316C28.3965 33.3731 35.9084 37.3985 45.1901 37.4227C54.4718 37.4468 62.0084 33.4606 62.0237 28.5192Z" fill="#F4F4F4"/>
</g>
<path d="M45.1492 21.584C50.1811 24.2734 55.2586 26.9627 60.3362 29.6521C60.1075 29.5261 59.7415 29.442 59.1469 29.4L45.1492 21.9622C45.1492 21.668 45.1492 21.584 45.1492 21.584Z" fill="#CDCDD0"/>
<path d="M30.008 29.6521C34.5366 27.2149 39.111 24.8196 43.6397 22.3824C44.0971 22.1303 44.6918 21.8361 45.1492 21.584C45.1492 21.584 45.1492 21.668 45.1492 21.9622L31.1973 29.4C30.6027 29.442 30.2367 29.5261 30.008 29.6521Z" fill="#CDCDD0"/>
<path d="M45.2407 38.435C43.2279 37.3425 41.1694 36.2919 39.1567 35.1994C36.0919 33.5605 33.0728 31.9637 30.0079 30.3249C29.8707 30.2408 29.7792 30.1568 29.7335 30.0727C29.642 29.9046 29.8707 29.4844 31.1973 29.4004L45.1949 36.8382C45.1949 37.6366 45.1949 38.1829 45.1949 38.309C45.2407 38.393 45.2407 38.435 45.2407 38.435Z" fill="#EBEBEB"/>
<path d="M60.3819 30.3659L58.8724 31.1643C57.866 31.7106 56.8597 32.2569 55.8533 32.7612L54.3438 33.5596L52.8342 34.358C50.3183 35.7027 47.8024 37.0474 45.2407 38.3921C45.2407 38.3921 45.2407 38.35 45.2407 38.266C45.2407 38.0979 45.2407 37.5937 45.2407 36.7952L59.1469 29.3574C60.4734 29.4415 60.7022 29.8617 60.6564 30.0298C60.6107 30.1979 60.4734 30.2819 60.3819 30.3659Z" fill="#9B9BA0"/>
<path d="M63.9041 69.5296L63.8584 84.4892L50.5469 77.3035L50.5927 62.1758L63.9041 69.5296Z" fill="#EBEBEB"/>
<path d="M63.8126 69.3635L63.8584 84.4913L76.9411 77.3897L76.8954 62.0098L63.8126 69.3635Z" fill="#CDCDD0"/>
<path d="M76.8954 62.008L63.8127 69.4458L50.5927 62.1761L63.6755 54.7383L76.8954 62.008Z" fill="#F4F4F4"/>
<path d="M56.3107 68.3535V72.6817L57.5915 73.3961V69.0259L56.3107 68.3535Z" fill="url(#paint21_linear_346_60711)"/>
<path d="M51.965 66L51.9193 70.3282L53.1086 70.9585V66.6303L51.965 66Z" fill="url(#paint22_linear_346_60711)"/>
<path d="M59.3298 69.9512L59.2841 74.2794L60.6106 74.9938V70.6235L59.3298 69.9512Z" fill="url(#paint23_linear_346_60711)"/>
<path d="M53.3373 66.7148L53.2916 71.0851L54.6181 71.7995V67.4292L53.3373 66.7148Z" fill="url(#paint24_linear_346_60711)"/>
<path d="M54.8469 67.5547L54.8011 71.8829L56.082 72.5973L56.1277 68.227L54.8469 67.5547Z" fill="url(#paint25_linear_346_60711)"/>
<path d="M63.6298 76.5895V72.2192L62.3032 71.5469V75.9171L63.6298 76.5895Z" fill="url(#paint26_linear_346_60711)"/>
<path d="M60.8394 70.75L60.7936 75.1202L62.0745 75.7926L62.1202 71.4223L60.8394 70.75Z" fill="url(#paint27_linear_346_60711)"/>
<path d="M57.8203 69.1523V73.4806L59.1011 74.1949V69.8247L57.8203 69.1523Z" fill="url(#paint28_linear_346_60711)"/>
<path d="M56.3107 73.7754V77.8515L57.5915 78.5659V74.4477L56.3107 73.7754Z" fill="url(#paint29_linear_346_60711)"/>
<path d="M51.965 71.4219L51.9193 75.54L53.1086 76.1703V72.0522L51.965 71.4219Z" fill="url(#paint30_linear_346_60711)"/>
<path d="M51.965 66L51.9193 70.3282L53.1086 70.9585V66.6303L51.965 66Z" fill="url(#paint31_linear_346_60711)"/>
<path d="M59.3298 75.3711L59.2841 79.4892L60.6106 80.1616V76.0434L59.3298 75.3711Z" fill="url(#paint32_linear_346_60711)"/>
<path d="M53.3373 72.1777L53.2916 76.2538L54.6181 76.9682V72.8501L53.3373 72.1777Z" fill="url(#paint33_linear_346_60711)"/>
<path d="M54.8469 72.9766L54.8011 77.0527L56.082 77.767L56.1277 73.6489L54.8469 72.9766Z" fill="url(#paint34_linear_346_60711)"/>
<path d="M63.6298 81.7592V77.6411L62.3032 76.9688V81.0869L63.6298 81.7592Z" fill="url(#paint35_linear_346_60711)"/>
<path d="M60.8394 76.1699L60.7936 80.288L62.0745 80.9604L62.1202 76.8423L60.8394 76.1699Z" fill="url(#paint36_linear_346_60711)"/>
<path d="M57.8203 74.5723V78.6484L59.1011 79.3627V75.2446L57.8203 74.5723Z" fill="url(#paint37_linear_346_60711)"/>
<path d="M71.3604 68.3535V72.6817L70.0796 73.3961L70.0339 69.0259L71.3604 68.3535Z" fill="url(#paint38_linear_346_60711)"/>
<path d="M75.706 66L75.7518 70.3282L74.5624 70.9585V66.6303L75.706 66Z" fill="url(#paint39_linear_346_60711)"/>
<path d="M68.3414 69.9512V74.2794L67.0605 74.9938V70.6235L68.3414 69.9512Z" fill="url(#paint40_linear_346_60711)"/>
<path d="M74.3338 66.7148V71.0851L73.053 71.7995V67.4292L74.3338 66.7148Z" fill="url(#paint41_linear_346_60711)"/>
<path d="M72.8243 67.5547L72.87 71.8829L71.5892 72.5973L71.5435 68.227L72.8243 67.5547Z" fill="url(#paint42_linear_346_60711)"/>
<path d="M63.9957 76.6735V72.2612L65.368 71.5469V75.9171L63.9957 76.6735Z" fill="url(#paint43_linear_346_60711)"/>
<path d="M66.8318 70.75L66.8775 75.1202L65.551 75.7926V71.4223L66.8318 70.75Z" fill="url(#paint44_linear_346_60711)"/>
<path d="M69.8509 69.1523V73.4806L68.5701 74.1949V69.8247L69.8509 69.1523Z" fill="url(#paint45_linear_346_60711)"/>
<path d="M71.3604 73.7754V77.8515L70.0796 78.5659L70.0339 74.4477L71.3604 73.7754Z" fill="url(#paint46_linear_346_60711)"/>
<path d="M75.706 71.4219L75.7518 75.54L74.5624 76.1703V72.0522L75.706 71.4219Z" fill="url(#paint47_linear_346_60711)"/>
<path d="M68.3414 75.3711V79.4892L67.0605 80.1616V76.0434L68.3414 75.3711Z" fill="url(#paint48_linear_346_60711)"/>
<path d="M74.3338 72.1777V76.2538L73.053 76.9682V72.8501L74.3338 72.1777Z" fill="url(#paint49_linear_346_60711)"/>
<path d="M72.8243 72.9766L72.87 77.0527L71.5892 77.767L71.5435 73.6489L72.8243 72.9766Z" fill="url(#paint50_linear_346_60711)"/>
<path d="M63.9957 81.8433V77.6831L65.368 76.9688V81.0869L63.9957 81.8433Z" fill="url(#paint51_linear_346_60711)"/>
<path d="M66.8318 76.1699L66.8775 80.288L65.551 80.9604V76.8423L66.8318 76.1699Z" fill="url(#paint52_linear_346_60711)"/>
<path d="M69.8509 74.5723V78.6484L68.5701 79.3627V75.2446L69.8509 74.5723Z" fill="url(#paint53_linear_346_60711)"/>
<path d="M63.7212 54.8652C67.6094 56.9243 71.7264 59.2775 75.6146 61.3786C75.4774 61.2945 75.2486 61.2525 74.9284 61.2105L63.7212 55.0333C63.7212 54.9073 63.7212 54.8652 63.7212 54.8652Z" fill="#CDCDD0"/>
<path d="M51.8278 61.5877C55.716 59.5287 59.8787 56.9233 63.767 54.8223C63.767 54.8223 63.767 54.8643 63.767 55.0324L52.514 61.4197C52.1938 61.4617 51.9651 61.5037 51.8278 61.5877Z" fill="#CDCDD0"/>
<path d="M74.9285 61.1684C71.452 63.0173 67.1063 65.4966 63.6298 67.3455C60.1075 65.4966 55.9905 63.2694 52.4683 61.4205C55.9448 59.5715 60.2447 56.8822 63.7213 55.0332C67.2435 56.8822 71.452 59.3194 74.9285 61.1684Z" fill="#F4F4F4"/>
<path d="M63.6297 68.6056C59.7415 66.5466 55.6703 64.4035 51.7821 62.3024C51.6448 62.2183 51.5533 62.1343 51.5076 62.0082C51.4619 61.8401 51.6448 61.504 52.4682 61.4199L63.6297 67.345C63.6297 67.8912 63.6297 68.3115 63.6297 68.4795C63.6297 68.5636 63.6297 68.6056 63.6297 68.6056Z" fill="#EBEBEB"/>
<path d="M75.6604 62.0504C75.6604 62.0504 64.8191 67.9755 63.6755 68.6058C63.6755 68.6058 63.6755 67.8914 63.6755 67.3451L74.9743 61.168C75.8434 61.252 75.9806 61.5882 75.9349 61.7563C75.8434 61.9244 75.7519 62.0084 75.6604 62.0504Z" fill="#CDCDD0"/>
<path d="M63.6755 56.4193L63.7213 55.873L73.5562 61.1678L72.9615 61.5039L63.6755 56.4193Z" fill="#CDCDD0"/>
<path d="M63.6755 56.4203L63.7212 55.832L54.298 61.1268L54.8469 61.4209L63.6755 56.4203Z" fill="#9B9BA0"/>
<path opacity="0.15" d="M39.276 66.8594C39.6916 66.8594 40.0267 66.5243 40.0267 66.1087V41.3418H13.8647V66.1119C13.8647 66.5275 14.1998 66.8626 14.6155 66.8626H39.276V66.8594Z" fill="#1F1D20"/>
<path d="M40.0235 41.5645V41.1586C40.0235 40.656 39.6175 40.25 39.1149 40.25H14.7733C14.2707 40.25 13.8647 40.656 13.8647 41.1586V41.6096V42.0221V65.3165C13.8647 65.8191 14.2707 66.2251 14.7733 66.2251H39.1213C39.624 66.2251 40.0299 65.8191 40.0299 65.3165V41.6096C40.0299 41.5935 40.0235 41.5807 40.0235 41.5645Z" fill="white"/>
<path d="M31.325 54.6971C31.325 54.6971 31.1114 54.2343 30.9593 53.8525C30.8202 53.5062 30.4416 53.6357 30.2927 53.791C30.1115 53.9819 29.4481 54.6744 29.4481 54.6744L29.0145 54.2441L28.1764 55.2472L28.5129 55.5676C28.5129 55.5676 27.966 56.1209 27.6521 56.4445C27.3382 56.7714 27.4839 57.0238 27.678 57.1208C27.8722 57.2179 28.3802 57.3603 28.4385 57.4186C28.4967 57.4768 32.3249 61.3147 32.5353 61.5283C32.8362 61.8292 34.0238 62.4473 35.1176 61.292C36.4314 59.9006 35.4509 58.8424 35.3053 58.6968C35.1629 58.5544 31.325 54.6971 31.325 54.6971ZM33.5805 60.8908L33.5352 60.9361C33.4381 61.0332 33.2795 61.0332 33.1825 60.9361L29.2993 57.0529C29.2022 56.9558 29.2022 56.7972 29.2993 56.7002L29.3446 56.6549C29.4416 56.5578 29.6002 56.5578 29.6973 56.6549L33.5805 60.5381C33.6776 60.6351 33.6776 60.7937 33.5805 60.8908ZM34.7551 59.7161L34.7098 59.7614C34.6127 59.8585 34.4542 59.8585 34.3571 59.7614L30.4739 55.8782C30.3768 55.7811 30.3768 55.6226 30.4739 55.5255L30.5192 55.4802C30.6163 55.3831 30.7749 55.3831 30.8719 55.4802L34.7551 59.3634C34.8522 59.4605 34.8522 59.6158 34.7551 59.7161Z" fill="#0078D4"/>
<path d="M29.9367 52.3226C30.7942 52.507 31.9301 52.5297 32.409 52.4164C34.3021 51.9763 35.8003 50.3616 35.8003 48.3455C35.8003 47.9087 35.7486 47.4589 35.645 47.035C35.6094 46.8926 35.4282 46.8473 35.3246 46.9508L33.0627 49.2128C32.7261 49.5493 32.1793 49.5493 31.8427 49.2128L30.7295 48.0996C30.393 47.7631 30.393 47.2162 30.7295 46.8796L32.9074 44.7018C33.0141 44.595 32.9624 44.4041 32.8135 44.375C32.3961 44.2973 31.9657 44.2617 31.5385 44.2617C29.6066 44.2617 28.1699 45.6208 27.7233 47.4686C27.4612 48.5526 27.5841 48.9442 27.7233 49.9732C27.7233 49.9732 21.1381 55.7463 20.6915 56.141C19.067 57.5714 18.1448 58.0665 18.0962 59.377C18.0412 60.8947 19.2126 62.0079 20.63 61.9043C21.7108 61.8234 22.2609 61.1762 23.6459 59.5453C23.7819 59.3867 29.9367 52.3226 29.9367 52.3226ZM20.5912 60.7556C19.8501 60.7556 19.2482 60.1537 19.2482 59.4126C19.2482 58.6716 19.8501 58.0697 20.5912 58.0697C21.3322 58.0697 21.9341 58.6716 21.9341 59.4126C21.9341 60.1537 21.3354 60.7556 20.5912 60.7556Z" fill="#1D4A79"/>
<path d="M21.4617 48.5526L24.7494 51.8242L25.7138 50.9635L22.3645 47.6369L22.1121 46.3716L18.8696 44.2617L18.1124 45.0448L20.232 48.2873L21.4617 48.5526Z" fill="#0078D4"/>
<defs>
<linearGradient id="paint0_linear_346_60711" x1="49.2779" y1="-12.8604" x2="53.2599" y2="132.91" gradientUnits="userSpaceOnUse">
<stop stop-color="#00ABDE"/>
<stop offset="1" stop-color="#007ED8"/>
</linearGradient>
<linearGradient id="paint1_linear_346_60711" x1="2.48214" y1="-19.693" x2="98.0097" y2="121.188" gradientUnits="userSpaceOnUse">
<stop stop-color="#007ED8"/>
<stop offset="0.7065" stop-color="#002D4C"/>
</linearGradient>
<linearGradient id="paint2_linear_346_60711" x1="74.9609" y1="30.2644" x2="62.3212" y2="71.3874" gradientUnits="userSpaceOnUse">
<stop stop-color="#4DC1EA"/>
<stop offset="0.585" stop-color="#0078D4"/>
</linearGradient>
<linearGradient id="paint3_linear_346_60711" x1="59.9954" y1="69.3591" x2="76.1777" y2="89.3169" gradientUnits="userSpaceOnUse">
<stop/>
<stop offset="0.8221" stop-opacity="0"/>
</linearGradient>
<linearGradient id="paint4_linear_346_60711" x1="37.0869" y1="56.4326" x2="53.269" y2="76.3904" gradientUnits="userSpaceOnUse">
<stop/>
<stop offset="0.8221" stop-opacity="0"/>
</linearGradient>
<linearGradient id="paint5_linear_346_60711" x1="37.3873" y1="72.0079" x2="36.4899" y2="36.6469" gradientUnits="userSpaceOnUse">
<stop stop-color="#0078D4"/>
<stop offset="0.848" stop-color="#4DC2EB"/>
</linearGradient>
<linearGradient id="paint6_linear_346_60711" x1="37.274" y1="71.7343" x2="36.3766" y2="36.3734" gradientUnits="userSpaceOnUse">
<stop stop-color="#0078D4"/>
<stop offset="0.848" stop-color="#4DC2EB"/>
</linearGradient>
<linearGradient id="paint7_linear_346_60711" x1="37.1526" y1="71.2595" x2="36.2553" y2="35.8985" gradientUnits="userSpaceOnUse">
<stop stop-color="#0078D4"/>
<stop offset="0.848" stop-color="#4DC2EB"/>
</linearGradient>
<linearGradient id="paint8_linear_346_60711" x1="37.0312" y1="70.7847" x2="36.1339" y2="35.4237" gradientUnits="userSpaceOnUse">
<stop stop-color="#0078D4"/>
<stop offset="0.848" stop-color="#4DC2EB"/>
</linearGradient>
<linearGradient id="paint9_linear_346_60711" x1="36.9099" y1="70.3088" x2="36.0126" y2="34.9479" gradientUnits="userSpaceOnUse">
<stop stop-color="#0078D4"/>
<stop offset="0.848" stop-color="#4DC2EB"/>
</linearGradient>
<linearGradient id="paint10_linear_346_60711" x1="36.7885" y1="69.834" x2="35.8912" y2="34.473" gradientUnits="userSpaceOnUse">
<stop stop-color="#0078D4"/>
<stop offset="0.848" stop-color="#4DC2EB"/>
</linearGradient>
<linearGradient id="paint11_linear_346_60711" x1="36.6672" y1="69.3592" x2="35.7698" y2="33.9982" gradientUnits="userSpaceOnUse">
<stop stop-color="#0078D4"/>
<stop offset="0.848" stop-color="#4DC2EB"/>
</linearGradient>
<linearGradient id="paint12_linear_346_60711" x1="36.5458" y1="68.8823" x2="35.6485" y2="33.5214" gradientUnits="userSpaceOnUse">
<stop stop-color="#0078D4"/>
<stop offset="0.848" stop-color="#4DC2EB"/>
</linearGradient>
<linearGradient id="paint13_linear_346_60711" x1="54.1766" y1="75.8668" x2="53.8672" y2="26.0325" gradientUnits="userSpaceOnUse">
<stop stop-color="#0078D4"/>
<stop offset="0.848" stop-color="#4DC2EB"/>
</linearGradient>
<linearGradient id="paint14_linear_346_60711" x1="54.1487" y1="75.6027" x2="53.8394" y2="25.7684" gradientUnits="userSpaceOnUse">
<stop stop-color="#0078D4"/>
<stop offset="0.848" stop-color="#4DC2EB"/>
</linearGradient>
<linearGradient id="paint15_linear_346_60711" x1="54.1189" y1="75.1045" x2="53.8096" y2="25.2702" gradientUnits="userSpaceOnUse">
<stop stop-color="#0078D4"/>
<stop offset="0.848" stop-color="#4DC2EB"/>
</linearGradient>
<linearGradient id="paint16_linear_346_60711" x1="54.089" y1="74.6072" x2="53.7797" y2="24.7729" gradientUnits="userSpaceOnUse">
<stop stop-color="#0078D4"/>
<stop offset="0.848" stop-color="#4DC2EB"/>
</linearGradient>
<linearGradient id="paint17_linear_346_60711" x1="54.0592" y1="74.11" x2="53.7499" y2="24.2757" gradientUnits="userSpaceOnUse">
<stop stop-color="#0078D4"/>
<stop offset="0.848" stop-color="#4DC2EB"/>
</linearGradient>
<linearGradient id="paint18_linear_346_60711" x1="54.0294" y1="73.6108" x2="53.72" y2="23.7764" gradientUnits="userSpaceOnUse">
<stop stop-color="#0078D4"/>
<stop offset="0.848" stop-color="#4DC2EB"/>
</linearGradient>
<linearGradient id="paint19_linear_346_60711" x1="53.9995" y1="73.1145" x2="53.6902" y2="23.2802" gradientUnits="userSpaceOnUse">
<stop stop-color="#0078D4"/>
<stop offset="0.848" stop-color="#4DC2EB"/>
</linearGradient>
<linearGradient id="paint20_linear_346_60711" x1="53.9697" y1="72.6153" x2="53.6603" y2="22.781" gradientUnits="userSpaceOnUse">
<stop stop-color="#0078D4"/>
<stop offset="0.848" stop-color="#4DC2EB"/>
</linearGradient>
<linearGradient id="paint21_linear_346_60711" x1="68.1817" y1="81.167" x2="56.4123" y2="68.3551" gradientUnits="userSpaceOnUse">
<stop stop-color="#0078D4"/>
<stop offset="0.848" stop-color="#4DC2EB"/>
</linearGradient>
<linearGradient id="paint22_linear_346_60711" x1="68.0475" y1="82.7465" x2="56.2051" y2="69.8551" gradientUnits="userSpaceOnUse">
<stop stop-color="#0078D4"/>
<stop offset="0.848" stop-color="#4DC2EB"/>
</linearGradient>
<linearGradient id="paint23_linear_346_60711" x1="68.3353" y1="80.1587" x2="56.5673" y2="67.3483" gradientUnits="userSpaceOnUse">
<stop stop-color="#0078D4"/>
<stop offset="0.848" stop-color="#4DC2EB"/>
</linearGradient>
<linearGradient id="paint24_linear_346_60711" x1="68.0288" y1="82.1765" x2="56.258" y2="69.3631" gradientUnits="userSpaceOnUse">
<stop stop-color="#0078D4"/>
<stop offset="0.848" stop-color="#4DC2EB"/>
</linearGradient>
<linearGradient id="paint25_linear_346_60711" x1="68.1044" y1="81.6705" x2="56.3351" y2="68.8586" gradientUnits="userSpaceOnUse">
<stop stop-color="#0078D4"/>
<stop offset="0.848" stop-color="#4DC2EB"/>
</linearGradient>
<linearGradient id="paint26_linear_346_60711" x1="67.9596" y1="78.6547" x2="57.0626" y2="66.7924" gradientUnits="userSpaceOnUse">
<stop stop-color="#0078D4"/>
<stop offset="0.848" stop-color="#4DC2EB"/>
</linearGradient>
<linearGradient id="paint27_linear_346_60711" x1="68.4117" y1="79.6541" x2="56.6456" y2="66.8458" gradientUnits="userSpaceOnUse">
<stop stop-color="#0078D4"/>
<stop offset="0.848" stop-color="#4DC2EB"/>
</linearGradient>
<linearGradient id="paint28_linear_346_60711" x1="68.2573" y1="80.6617" x2="56.4901" y2="67.8521" gradientUnits="userSpaceOnUse">
<stop stop-color="#0078D4"/>
<stop offset="0.848" stop-color="#4DC2EB"/>
</linearGradient>
<linearGradient id="paint29_linear_346_60711" x1="64.5621" y1="83.1443" x2="53.2807" y2="70.8635" gradientUnits="userSpaceOnUse">
<stop stop-color="#0078D4"/>
<stop offset="0.848" stop-color="#4DC2EB"/>
</linearGradient>
<linearGradient id="paint30_linear_346_60711" x1="64.2144" y1="84.5276" x2="52.8782" y2="72.1872" gradientUnits="userSpaceOnUse">
<stop stop-color="#0078D4"/>
<stop offset="0.848" stop-color="#4DC2EB"/>
</linearGradient>
<linearGradient id="paint31_linear_346_60711" x1="68.0475" y1="82.7465" x2="56.2051" y2="69.8551" gradientUnits="userSpaceOnUse">
<stop stop-color="#0078D4"/>
<stop offset="0.848" stop-color="#4DC2EB"/>
</linearGradient>
<linearGradient id="paint32_linear_346_60711" x1="64.8342" y1="82.2428" x2="53.5537" y2="69.9632" gradientUnits="userSpaceOnUse">
<stop stop-color="#0078D4"/>
<stop offset="0.848" stop-color="#4DC2EB"/>
</linearGradient>
<linearGradient id="paint33_linear_346_60711" x1="64.2907" y1="84.0439" x2="53.0082" y2="71.762" gradientUnits="userSpaceOnUse">
<stop stop-color="#0078D4"/>
<stop offset="0.848" stop-color="#4DC2EB"/>
</linearGradient>
<linearGradient id="paint34_linear_346_60711" x1="64.4259" y1="83.5936" x2="53.1445" y2="71.3129" gradientUnits="userSpaceOnUse">
<stop stop-color="#0078D4"/>
<stop offset="0.848" stop-color="#4DC2EB"/>
</linearGradient>
<linearGradient id="paint35_linear_346_60711" x1="64.8325" y1="81.0844" x2="54.3847" y2="69.7111" gradientUnits="userSpaceOnUse">
<stop stop-color="#0078D4"/>
<stop offset="0.848" stop-color="#4DC2EB"/>
</linearGradient>
<linearGradient id="paint36_linear_346_60711" x1="64.9701" y1="81.7929" x2="53.6911" y2="69.5149" gradientUnits="userSpaceOnUse">
<stop stop-color="#0078D4"/>
<stop offset="0.848" stop-color="#4DC2EB"/>
</linearGradient>
<linearGradient id="paint37_linear_346_60711" x1="64.6976" y1="82.6919" x2="53.4177" y2="70.4129" gradientUnits="userSpaceOnUse">
<stop stop-color="#0078D4"/>
<stop offset="0.848" stop-color="#4DC2EB"/>
</linearGradient>
<linearGradient id="paint38_linear_346_60711" x1="71.555" y1="75.4086" x2="69.3556" y2="61.4429" gradientUnits="userSpaceOnUse">
<stop stop-color="#0078D4"/>
<stop offset="0.848" stop-color="#4DC2EB"/>
</linearGradient>
<linearGradient id="paint39_linear_346_60711" x1="76.3753" y1="75.1211" x2="74.1695" y2="61.1138" gradientUnits="userSpaceOnUse">
<stop stop-color="#0078D4"/>
<stop offset="0.848" stop-color="#4DC2EB"/>
</linearGradient>
<linearGradient id="paint40_linear_346_60711" x1="68.2965" y1="75.6165" x2="66.0976" y2="61.6535" gradientUnits="userSpaceOnUse">
<stop stop-color="#0078D4"/>
<stop offset="0.848" stop-color="#4DC2EB"/>
</linearGradient>
<linearGradient id="paint41_linear_346_60711" x1="74.8121" y1="75.2025" x2="72.6124" y2="61.2339" gradientUnits="userSpaceOnUse">
<stop stop-color="#0078D4"/>
<stop offset="0.848" stop-color="#4DC2EB"/>
</linearGradient>
<linearGradient id="paint42_linear_346_60711" x1="73.1835" y1="75.3049" x2="70.984" y2="61.338" gradientUnits="userSpaceOnUse">
<stop stop-color="#0078D4"/>
<stop offset="0.848" stop-color="#4DC2EB"/>
</linearGradient>
<linearGradient id="paint43_linear_346_60711" x1="64.9806" y1="75.7494" x2="62.8251" y2="62.0616" gradientUnits="userSpaceOnUse">
<stop stop-color="#0078D4"/>
<stop offset="0.848" stop-color="#4DC2EB"/>
</linearGradient>
<linearGradient id="paint44_linear_346_60711" x1="66.6674" y1="75.7205" x2="64.4689" y2="61.7596" gradientUnits="userSpaceOnUse">
<stop stop-color="#0078D4"/>
<stop offset="0.848" stop-color="#4DC2EB"/>
</linearGradient>
<linearGradient id="paint45_linear_346_60711" x1="69.9256" y1="75.5123" x2="67.7267" y2="61.5487" gradientUnits="userSpaceOnUse">
<stop stop-color="#0078D4"/>
<stop offset="0.848" stop-color="#4DC2EB"/>
</linearGradient>
<linearGradient id="paint46_linear_346_60711" x1="70.4103" y1="74.5777" x2="68.328" y2="61.3541" gradientUnits="userSpaceOnUse">
<stop stop-color="#0078D4"/>
<stop offset="0.848" stop-color="#4DC2EB"/>
</linearGradient>
<linearGradient id="paint47_linear_346_60711" x1="75.2068" y1="74.1616" x2="73.1194" y2="60.907" gradientUnits="userSpaceOnUse">
<stop stop-color="#0078D4"/>
<stop offset="0.848" stop-color="#4DC2EB"/>
</linearGradient>
<linearGradient id="paint48_linear_346_60711" x1="67.166" y1="74.8589" x2="65.0839" y2="61.6374" gradientUnits="userSpaceOnUse">
<stop stop-color="#0078D4"/>
<stop offset="0.848" stop-color="#4DC2EB"/>
</linearGradient>
<linearGradient id="paint49_linear_346_60711" x1="73.6536" y1="74.2951" x2="71.5707" y2="61.0695" gradientUnits="userSpaceOnUse">
<stop stop-color="#0078D4"/>
<stop offset="0.848" stop-color="#4DC2EB"/>
</linearGradient>
<linearGradient id="paint50_linear_346_60711" x1="72.032" y1="74.4363" x2="69.9494" y2="61.2121" gradientUnits="userSpaceOnUse">
<stop stop-color="#0078D4"/>
<stop offset="0.848" stop-color="#4DC2EB"/>
</linearGradient>
<linearGradient id="paint51_linear_346_60711" x1="63.8862" y1="75.1869" x2="61.844" y2="62.2184" gradientUnits="userSpaceOnUse">
<stop stop-color="#0078D4"/>
<stop offset="0.848" stop-color="#4DC2EB"/>
</linearGradient>
<linearGradient id="paint52_linear_346_60711" x1="65.544" y1="75.0007" x2="63.4621" y2="61.7808" gradientUnits="userSpaceOnUse">
<stop stop-color="#0078D4"/>
<stop offset="0.848" stop-color="#4DC2EB"/>
</linearGradient>
<linearGradient id="paint53_linear_346_60711" x1="68.7882" y1="74.7173" x2="66.706" y2="61.4954" gradientUnits="userSpaceOnUse">
<stop stop-color="#0078D4"/>
<stop offset="0.848" stop-color="#4DC2EB"/>
</linearGradient>
</defs>
</svg>
