<svg width="103" height="103" viewBox="0 0 103 103" fill="none" xmlns="http://www.w3.org/2000/svg">
<path d="M51.6231 98.7177C25.7731 98.7177 4.81311 77.7677 4.81311 51.9077C4.81311 26.0477 25.7731 5.09766 51.6231 5.09766C77.4731 5.09766 98.4331 26.0577 98.4331 51.9077C98.4331 77.7577 77.4731 98.7177 51.6231 98.7177Z" fill="url(#paint0_linear_212_2616)"/>
<path fill-rule="evenodd" clip-rule="evenodd" d="M51.6237 1.9082C79.2337 1.9082 101.624 24.2982 101.624 51.9082C101.624 79.5182 79.2337 101.908 51.6237 101.908C24.0137 101.908 1.62366 79.5182 1.62366 51.9082C1.62366 24.2982 24.0137 1.9082 51.6237 1.9082ZM51.6237 97.6682C76.8937 97.6682 97.3837 77.1782 97.3837 51.9082C97.3837 26.6382 76.8937 6.1482 51.6237 6.1482C26.3537 6.1482 5.86366 26.6382 5.86366 51.9082C5.86366 77.1782 26.3537 97.6682 51.6237 97.6682Z" fill="#D9D9D9"/>
<path fill-rule="evenodd" clip-rule="evenodd" d="M97.523 51.9076C97.523 77.2576 76.973 97.8076 51.623 97.8076C26.273 97.8076 5.72303 77.2576 5.72303 51.9076C5.72303 26.5576 26.273 6.00758 51.623 6.00758C76.973 6.00758 97.523 26.5576 97.523 51.9076ZM51.623 2.26758C79.043 2.26758 101.263 24.4876 101.263 51.9076C101.263 79.3276 79.033 101.548 51.623 101.548C24.203 101.548 1.98303 79.3176 1.98303 51.9076C1.98303 24.4876 24.203 2.26758 51.623 2.26758Z" fill="#F2F1F0"/>
<path fill-rule="evenodd" clip-rule="evenodd" d="M51.6236 94.9981C27.8236 94.9981 8.53358 75.7081 8.53358 51.9081C8.53358 28.1081 27.8236 8.81812 51.6236 8.81812C75.4236 8.81812 94.7136 28.1081 94.7136 51.9081C94.7136 75.7081 75.4236 94.9981 51.6236 94.9981ZM98.4536 51.9081C98.4536 77.7681 77.4836 98.7381 51.6236 98.7381C25.7636 98.7381 4.79358 77.7681 4.79358 51.9081C4.79358 26.0481 25.7636 5.07812 51.6236 5.07812C77.4836 5.07812 98.4536 26.0381 98.4536 51.9081Z" fill="url(#paint1_linear_212_2616)"/>
<path opacity="0.15" d="M83.7501 27.8828H71.8374C71.1127 27.8828 70.5234 28.4722 70.5234 29.1968V36.4913C70.5234 37.2159 71.1127 37.8053 71.8374 37.8053H83.7598C84.4844 37.815 85.0738 37.2256 85.0738 36.4913V29.2065C85.0738 28.4625 84.4844 27.8828 83.7501 27.8828Z" fill="#1F1D20"/>
<path opacity="0.15" d="M83.7501 52.1621H71.8374C71.1127 52.1621 70.5234 52.7515 70.5234 53.4761V60.7803C70.5234 61.5049 71.1127 62.0943 71.8374 62.0943H83.7598C84.4844 62.0943 85.0738 61.5049 85.0738 60.7803V53.4954C85.0738 52.7515 84.4844 52.1621 83.7501 52.1621Z" fill="#1F1D20"/>
<path opacity="0.15" d="M83.7501 40H71.8374C71.1127 40 70.5234 40.5894 70.5234 41.314V48.6085C70.5234 49.3331 71.1127 49.9225 71.8374 49.9225H83.7598C84.4844 49.9322 85.0738 49.3428 85.0738 48.6085V41.314C85.0738 40.5894 84.4844 40 83.7501 40Z" fill="#1F1D20"/>
<path opacity="0.15" d="M83.7501 64.2793H71.8374C71.1127 64.2793 70.5234 64.8687 70.5234 65.5933V72.8975C70.5234 73.6221 71.1127 74.2115 71.8374 74.2115H83.7598C84.4844 74.2115 85.0738 73.6221 85.0738 72.8975V65.6029C85.0738 64.8783 84.4844 64.2793 83.7501 64.2793Z" fill="#1F1D20"/>
<path fill-rule="evenodd" clip-rule="evenodd" d="M65.1221 55.8691H81.6145V56.6691H65.1221V55.8691Z" fill="#78787D"/>
<path fill-rule="evenodd" clip-rule="evenodd" d="M65.1221 43.8887H81.6145V44.6887H65.1221V43.8887Z" fill="#78787D"/>
<path fill-rule="evenodd" clip-rule="evenodd" d="M64.7221 32.2887C64.7221 32.0678 64.9012 31.8887 65.1221 31.8887H81.6145V32.6887H65.5221V67.8396H81.6145V68.6396H65.1221C64.9012 68.6396 64.7221 68.4605 64.7221 68.2396V32.2887Z" fill="#78787D"/>
<path d="M83.7501 27.0137H71.8374C71.1127 27.0137 70.5234 27.603 70.5234 28.3277V35.6222C70.5234 36.3468 71.1127 36.9362 71.8374 36.9362H83.7598C84.4844 36.9458 85.0738 36.3565 85.0738 35.6222V28.3373C85.0738 27.603 84.4844 27.0137 83.7501 27.0137Z" fill="#5B67F1"/>
<path d="M83.7501 51.293H71.8374C71.1127 51.293 70.5234 51.8823 70.5234 52.607V59.9111C70.5234 60.6358 71.1127 61.2251 71.8374 61.2251H83.7598C84.4844 61.2251 85.0738 60.6358 85.0738 59.9111V52.6263C85.0738 51.8823 84.4844 51.293 83.7501 51.293Z" fill="#4852CB"/>
<path d="M83.7501 39.1387H71.8374C71.1127 39.1387 70.5234 39.728 70.5234 40.4527V47.7472C70.5234 48.4718 71.1127 49.0612 71.8374 49.0612H83.7598C84.4844 49.0708 85.0738 48.4815 85.0738 47.7472V40.4527C85.0738 39.728 84.4844 39.1387 83.7501 39.1387Z" fill="#5661E3"/>
<path d="M83.7501 63.418H71.8374C71.1127 63.418 70.5234 64.0073 70.5234 64.732V72.0361C70.5234 72.7608 71.1127 73.3501 71.8374 73.3501H83.7598C84.4844 73.3501 85.0738 72.7608 85.0738 72.0361V64.7416C85.0738 64.017 84.4844 63.418 83.7501 63.418Z" fill="#373FA6"/>
<path fill-rule="evenodd" clip-rule="evenodd" d="M55.9752 50.2168L65.1697 50.2168L65.1697 51.0168L55.9752 51.0168L55.9752 50.2168Z" fill="#78787D"/>
<path opacity="0.15" d="M79.524 79.3081L63.2072 69.8066L48.1332 78.4662L64.45 87.7671L79.524 79.3081Z" fill="url(#paint2_linear_212_2616)"/>
<path opacity="0.15" d="M59.4387 66.9604L43.1219 57.459L28.048 66.1185L44.3647 75.4195L59.4387 66.9604Z" fill="url(#paint3_linear_212_2616)"/>
<path d="M43.6431 41.7833L43.5629 74.5371L28.2885 66.2384L28.3286 33.3242L43.6431 41.7833Z" fill="#EBEBEB"/>
<path d="M43.5228 41.6222L43.5629 74.5364L58.8774 65.9971L58.8373 33.123L43.5228 41.6222Z" fill="#CDCDD0"/>
<path d="M58.8379 33.1229L43.5234 41.7023L28.3292 33.3234L43.6437 24.8242L58.8379 33.1229Z" fill="#CDCDD0"/>
<path d="M42.3201 43.0261V45.8324L29.3309 38.4157V35.6094L42.3201 43.0261Z" fill="url(#paint4_linear_212_2616)"/>
<path d="M42.3201 46.3523V49.1987L29.3309 41.7419V38.9355L42.3201 46.3523Z" fill="url(#paint5_linear_212_2616)"/>
<path d="M42.3201 49.7605V52.5668L29.3309 45.11V42.3438L42.3201 49.7605Z" fill="url(#paint6_linear_212_2616)"/>
<path d="M42.3201 53.1687V55.975L29.3309 48.5182V45.752L42.3201 53.1687Z" fill="url(#paint7_linear_212_2616)"/>
<path d="M42.3201 56.5359V59.3823L29.3309 51.9255V49.1191L42.3201 56.5359Z" fill="url(#paint8_linear_212_2616)"/>
<path d="M42.3201 59.9441V62.7504L29.3309 55.3337V52.5273L42.3201 59.9441Z" fill="url(#paint9_linear_212_2616)"/>
<path d="M42.3201 63.3503V66.1566L29.3309 58.6998V55.9336L42.3201 63.3503Z" fill="url(#paint10_linear_212_2616)"/>
<path d="M42.3201 66.7184V69.5648L29.3309 62.108V59.3418L42.3201 66.7184Z" fill="url(#paint11_linear_212_2616)"/>
<path d="M44.7255 42.8659V45.6723L57.6747 38.2155V35.4492L44.7255 42.8659Z" fill="url(#paint12_linear_212_2616)"/>
<path d="M44.7255 46.2331V49.0394L57.6747 41.5826V38.8164L44.7255 46.2331Z" fill="url(#paint13_linear_212_2616)"/>
<path d="M44.7255 49.6003V52.4066L57.6747 44.9899V42.1836L44.7255 49.6003Z" fill="url(#paint14_linear_212_2616)"/>
<path d="M44.7255 53.0085V55.8148L57.6747 48.358V45.5918L44.7255 53.0085Z" fill="url(#paint15_linear_212_2616)"/>
<path d="M44.7255 56.4167V59.223L57.6747 51.7662V49L44.7255 56.4167Z" fill="url(#paint16_linear_212_2616)"/>
<path d="M44.7255 59.7829V62.6293L57.6747 55.1725V52.4062L44.7255 59.7829Z" fill="url(#paint17_linear_212_2616)"/>
<path d="M44.7255 63.1902V65.9965L57.6747 58.5798V55.7734L44.7255 63.1902Z" fill="url(#paint18_linear_212_2616)"/>
<path d="M44.7255 66.5984V69.4047L57.6747 61.9479V59.1816L44.7255 66.5984Z" fill="url(#paint19_linear_212_2616)"/>
<mask id="mask0_212_2616" style="mask-type:alpha" maskUnits="userSpaceOnUse" x="31" y="25" width="25" height="15">
<path d="M55.7973 32.3287L43.5648 39.4441L31.2988 32.3592L43.5363 25.2265L55.7973 32.3287Z" fill="#CDCDD0"/>
</mask>
<g mask="url(#mask0_212_2616)">
<path d="M58.3117 31.5201C58.325 26.8058 51.7415 22.9653 43.607 22.9423C35.4724 22.9192 28.8672 26.7222 28.8539 31.4366C28.8405 36.1509 35.424 39.9914 43.5586 40.0144C51.6931 40.0375 58.2983 36.2344 58.3117 31.5201Z" fill="#F4F4F4"/>
</g>
<path d="M43.5228 24.9043C47.9327 27.4701 52.3827 30.0359 56.8328 32.6016C56.6323 32.4814 56.3116 32.4012 55.7904 32.3611L43.5228 25.2651C43.5228 24.9845 43.5228 24.9043 43.5228 24.9043Z" fill="#CDCDD0"/>
<path d="M30.253 32.6016C34.2219 30.2764 38.231 27.9913 42.1999 25.666C42.6008 25.4255 43.122 25.1448 43.5229 24.9043C43.5229 24.9043 43.5229 24.9845 43.5229 25.2651L31.2953 32.3611C30.7742 32.4012 30.4534 32.4814 30.253 32.6016Z" fill="#CDCDD0"/>
<path d="M43.6029 40.9808C41.8389 39.9384 40.0348 38.9361 38.2708 37.8938C35.5848 36.3303 32.9388 34.8068 30.2528 33.2433C30.1325 33.1631 30.0523 33.083 30.0122 33.0028C29.932 32.8424 30.1325 32.4415 31.2951 32.3613L43.5628 39.4573C43.5628 40.219 43.5628 40.7402 43.5628 40.8605C43.6029 40.9407 43.6029 40.9808 43.6029 40.9808Z" fill="#EBEBEB"/>
<path d="M56.8729 33.2844L55.5499 34.0462C54.6679 34.5673 53.7859 35.0885 52.9039 35.5696L51.5809 36.3313L50.258 37.093C48.053 38.3759 45.848 39.6588 43.603 40.9417C43.603 40.9417 43.603 40.9016 43.603 40.8214C43.603 40.6611 43.603 40.18 43.603 39.4183L55.7904 32.3223C56.9531 32.4024 57.1535 32.8033 57.1134 32.9637C57.0733 33.1241 56.9531 33.2043 56.8729 33.2844Z" fill="#9B9BA0"/>
<path d="M59.9599 70.6467L59.9198 84.9188L48.2535 78.0634L48.2936 63.6309L59.9599 70.6467Z" fill="#EBEBEB"/>
<path d="M59.8799 70.4865L59.92 84.919L71.3858 78.1438L71.3457 63.4707L59.8799 70.4865Z" fill="#CDCDD0"/>
<path d="M71.3455 63.4708L59.8797 70.5668L48.2936 63.6312L59.7594 56.5352L71.3455 63.4708Z" fill="#F4F4F4"/>
<path d="M53.305 69.5254V73.6547L54.4275 74.3362V70.1668L53.305 69.5254Z" fill="url(#paint20_linear_212_2616)"/>
<path d="M49.4963 67.2812L49.4562 71.4106L50.4986 72.0119V67.8826L49.4963 67.2812Z" fill="url(#paint21_linear_212_2616)"/>
<path d="M55.9512 71.0488L55.9111 75.1781L57.0738 75.8597V71.6903L55.9512 71.0488Z" fill="url(#paint22_linear_212_2616)"/>
<path d="M50.6993 67.9609L50.6592 72.1303L51.8219 72.8119V68.6425L50.6993 67.9609Z" fill="url(#paint23_linear_212_2616)"/>
<path d="M52.0221 68.7637L51.982 72.893L53.1045 73.5745L53.1446 69.4051L52.0221 68.7637Z" fill="url(#paint24_linear_212_2616)"/>
<path d="M59.7193 77.3831V73.2137L58.5566 72.5723V76.7417L59.7193 77.3831Z" fill="url(#paint25_linear_212_2616)"/>
<path d="M57.274 71.8105L57.2339 75.9799L58.3564 76.6214L58.3965 72.452L57.274 71.8105Z" fill="url(#paint26_linear_212_2616)"/>
<path d="M54.628 70.2871V74.4164L55.7505 75.098V70.9286L54.628 70.2871Z" fill="url(#paint27_linear_212_2616)"/>
<path d="M53.305 74.6973V78.586L54.4275 79.2676V75.3387L53.305 74.6973Z" fill="url(#paint28_linear_212_2616)"/>
<path d="M49.4963 72.4512L49.4562 76.38L50.4986 76.9814V73.0525L49.4963 72.4512Z" fill="url(#paint29_linear_212_2616)"/>
<path d="M49.4963 67.2812L49.4562 71.4106L50.4986 72.0119V67.8826L49.4963 67.2812Z" fill="url(#paint30_linear_212_2616)"/>
<path d="M55.9512 76.2207L55.9111 80.1496L57.0738 80.791V76.8622L55.9512 76.2207Z" fill="url(#paint31_linear_212_2616)"/>
<path d="M50.6993 73.1738L50.6592 77.0626L51.8219 77.7441V73.8153L50.6993 73.1738Z" fill="url(#paint32_linear_212_2616)"/>
<path d="M52.0221 73.9355L51.982 77.8243L53.1045 78.5058L53.1446 74.577L52.0221 73.9355Z" fill="url(#paint33_linear_212_2616)"/>
<path d="M59.7193 82.3144V78.3856L58.5566 77.7441V81.673L59.7193 82.3144Z" fill="url(#paint34_linear_212_2616)"/>
<path d="M57.274 76.9824L57.2339 80.9113L58.3564 81.5527L58.3965 77.6239L57.274 76.9824Z" fill="url(#paint35_linear_212_2616)"/>
<path d="M54.628 75.459V79.3477L55.7505 80.0293V76.1004L54.628 75.459Z" fill="url(#paint36_linear_212_2616)"/>
<path d="M66.4948 69.5254V73.6547L65.3723 74.3362L65.3322 70.1668L66.4948 69.5254Z" fill="url(#paint37_linear_212_2616)"/>
<path d="M70.3032 67.2812L70.3433 71.4106L69.301 72.0119V67.8826L70.3032 67.2812Z" fill="url(#paint38_linear_212_2616)"/>
<path d="M63.8486 71.0488V75.1781L62.7261 75.8597V71.6903L63.8486 71.0488Z" fill="url(#paint39_linear_212_2616)"/>
<path d="M69.1008 67.9609V72.1303L67.9783 72.8119V68.6425L69.1008 67.9609Z" fill="url(#paint40_linear_212_2616)"/>
<path d="M67.7778 68.7637L67.8179 72.893L66.6954 73.5745L66.6553 69.4051L67.7778 68.7637Z" fill="url(#paint41_linear_212_2616)"/>
<path d="M60.0405 77.4633V73.2538L61.2432 72.5723V76.7417L60.0405 77.4633Z" fill="url(#paint42_linear_212_2616)"/>
<path d="M62.5256 71.8105L62.5657 75.9799L61.4031 76.6214V72.452L62.5256 71.8105Z" fill="url(#paint43_linear_212_2616)"/>
<path d="M65.1721 70.2871V74.4164L64.0496 75.098V70.9286L65.1721 70.2871Z" fill="url(#paint44_linear_212_2616)"/>
<path d="M66.4948 74.6973V78.586L65.3723 79.2676L65.3322 75.3387L66.4948 74.6973Z" fill="url(#paint45_linear_212_2616)"/>
<path d="M70.3032 72.4512L70.3433 76.38L69.301 76.9814V73.0525L70.3032 72.4512Z" fill="url(#paint46_linear_212_2616)"/>
<path d="M63.8486 76.2207V80.1496L62.7261 80.791V76.8622L63.8486 76.2207Z" fill="url(#paint47_linear_212_2616)"/>
<path d="M69.1008 73.1738V77.0626L67.9783 77.7441V73.8153L69.1008 73.1738Z" fill="url(#paint48_linear_212_2616)"/>
<path d="M67.7778 73.9355L67.8179 77.8243L66.6954 78.5058L66.6553 74.577L67.7778 73.9355Z" fill="url(#paint49_linear_212_2616)"/>
<path d="M60.0405 82.3946V78.4257L61.2432 77.7441V81.673L60.0405 82.3946Z" fill="url(#paint50_linear_212_2616)"/>
<path d="M62.5256 76.9824L62.5657 80.9113L61.4031 81.5527V77.6239L62.5256 76.9824Z" fill="url(#paint51_linear_212_2616)"/>
<path d="M65.1721 75.459V79.3477L64.0496 80.0293V76.1004L65.1721 75.459Z" fill="url(#paint52_linear_212_2616)"/>
<path d="M59.7994 56.6562C63.2071 58.6207 66.8153 60.8657 70.2229 62.8703C70.1027 62.7901 69.9022 62.75 69.6216 62.7099L59.7994 56.8166C59.7994 56.6963 59.7994 56.6562 59.7994 56.6562Z" fill="#CDCDD0"/>
<path d="M49.3766 63.0698C52.7843 61.1054 56.4325 58.6198 59.8402 56.6152C59.8402 56.6152 59.8402 56.6553 59.8402 56.8157L49.9779 62.9094C49.6973 62.9495 49.4969 62.9896 49.3766 63.0698Z" fill="#CDCDD0"/>
<path d="M69.622 62.6696C66.5751 64.4336 62.7665 66.7989 59.7197 68.5629C56.6327 66.7989 53.0246 64.6741 49.9376 62.9101C52.9845 61.1462 56.753 58.5804 59.7998 56.8164C62.8868 58.5804 66.5751 60.9056 69.622 62.6696Z" fill="#F4F4F4"/>
<path d="M59.7195 69.7656C56.3118 67.8012 52.7438 65.7566 49.3361 63.7521C49.2158 63.6719 49.1356 63.5917 49.0955 63.4714C49.0554 63.3111 49.2158 62.9903 49.9374 62.9102L59.7195 68.5629C59.7195 69.0841 59.7195 69.485 59.7195 69.6453C59.7195 69.7255 59.7195 69.7656 59.7195 69.7656Z" fill="#EBEBEB"/>
<path d="M70.263 63.5118C70.263 63.5118 60.7616 69.1646 59.7593 69.7659C59.7593 69.7659 59.7593 69.0844 59.7593 68.5632L69.6617 62.6699C70.4234 62.7501 70.5436 63.0708 70.5036 63.2312C70.4234 63.3915 70.3432 63.4717 70.263 63.5118Z" fill="#CDCDD0"/>
<path d="M59.7593 58.1403L59.7994 57.6191L68.4189 62.6705L67.8977 62.9912L59.7593 58.1403Z" fill="#CDCDD0"/>
<path d="M59.7598 58.1394L59.7999 57.5781L51.5413 62.6295L52.0223 62.9101L59.7598 58.1394Z" fill="#9B9BA0"/>
<path d="M26.2614 38.574C26.8994 38.574 27.4213 38.0521 27.4097 37.4141C27.4097 36.7762 26.8878 36.2542 26.2498 36.2658C25.6119 36.2658 25.0899 36.7878 25.1015 37.4257C25.1015 38.0521 25.6235 38.574 26.2614 38.574Z" fill="#737373"/>
<path d="M33.4992 33.041H18.9076C17.8869 33.041 17.0634 33.8529 17.0634 34.8505V69.2997C17.0634 70.0304 17.6665 70.6219 18.4088 70.6219H33.8124C34.5547 70.6219 35.1579 70.0304 35.1579 69.2997V34.6765C35.1463 33.7718 34.4039 33.041 33.4992 33.041Z" fill="#E6E6E6"/>
<path d="M34.3573 33.041H21.668L35.1577 45.3824V33.8414C35.1461 33.4006 34.7981 33.041 34.3573 33.041Z" fill="url(#paint53_linear_212_2616)"/>
<path d="M34.3573 33.041H18.1534C17.7127 33.041 17.3531 33.4006 17.3531 33.8414V36.1148H35.146V33.8414C35.146 33.4006 34.7981 33.041 34.3573 33.041Z" fill="#7B83EB"/>
<path d="M33.2557 32.1016H19.1048C17.5506 32.1016 16.2863 33.3659 16.2863 34.9201V68.7314C16.2863 70.2856 17.5506 71.5499 19.1048 71.5499H33.2557C34.8099 71.5499 36.0742 70.2856 36.0742 68.7314V34.9201C36.0742 33.3659 34.8099 32.1016 33.2557 32.1016ZM34.9027 68.569C34.9027 69.5317 34.114 70.3204 33.1513 70.3204H19.2092C18.2465 70.3204 17.4578 69.5317 17.4578 68.569V35.0825C17.4578 34.1198 18.2465 33.3311 19.2092 33.3311H33.1397C34.1024 33.3311 34.8911 34.1198 34.8911 35.0825V68.569H34.9027Z" fill="#3B42AD"/>
<path d="M21.4245 33.2734V33.5286C21.4245 34.155 21.9349 34.6653 22.5612 34.6653H29.9382C30.5646 34.6653 31.0749 34.155 31.0749 33.5286V33.2734H21.4245Z" fill="#3B42AD"/>
<path d="M28.338 34.1205C28.5119 34.1205 28.6511 33.9813 28.6511 33.8073C28.6511 33.6333 28.5119 33.4941 28.338 33.4941C28.164 33.4941 28.0248 33.6333 28.0248 33.8073C28.0364 33.9929 28.1756 34.1205 28.338 34.1205Z" fill="white"/>
<path d="M25.2406 34.0733H27.2008C27.3284 34.0733 27.4328 33.9689 27.4328 33.8414C27.4328 33.7138 27.3284 33.6094 27.2008 33.6094H25.2406C25.113 33.6094 25.0086 33.7138 25.0086 33.8414C25.0086 33.9805 25.113 34.0733 25.2406 34.0733Z" fill="white"/>
<path d="M29.3353 69.879H23.095C22.9906 69.879 22.9094 69.7978 22.9094 69.6934C22.9094 69.589 22.9906 69.5078 23.095 69.5078H29.3353C29.4397 69.5078 29.5209 69.589 29.5209 69.6934C29.5209 69.7978 29.4397 69.879 29.3353 69.879Z" fill="#E6E6E6"/>
<path d="M80.4025 78.0303C84.4302 78.0303 87.693 74.7675 87.693 70.7398C87.693 66.7121 84.4302 63.4492 80.4025 63.4492C76.3748 63.4492 73.1119 66.7121 73.1119 70.7398C73.1216 74.7675 76.3845 78.0303 80.4025 78.0303Z" fill="#002D4C"/>
<path d="M84.3721 67.041L78.3693 73.0729L76.5684 71.2624L75.3679 72.4726L78.3693 75.4837L85.5824 68.2513L84.3721 67.041Z" fill="#FAF9F8"/>
<path d="M26.1772 59.6742C30.7107 59.6742 34.3847 56.0001 34.3847 51.4666C34.3847 46.9397 30.7107 43.2656 26.1772 43.2656C21.6437 43.2656 17.9762 46.9397 17.9762 51.4732C17.9762 56.0067 21.6502 59.6742 26.1772 59.6742Z" fill="white"/>
<path d="M31.3408 55.546C31.0547 52.9705 28.8534 50.9453 26.1898 50.9453C23.5483 50.9453 21.369 52.9265 21.0388 55.48C20.9948 55.6561 20.9948 55.8542 20.9948 56.0303C21.0608 56.7567 21.5671 57.4611 22.5136 58.0115C24.5388 59.1782 27.8408 59.1782 29.844 58.0115C30.7905 57.4611 31.2748 56.7567 31.3408 56.0303C31.3849 55.8762 31.3629 55.7001 31.3408 55.546Z" fill="#3B42AD"/>
<path d="M26.19 50.4381C27.9042 50.4381 29.2938 49.0485 29.2938 47.3343C29.2938 45.6201 27.9042 44.2305 26.19 44.2305C24.4758 44.2305 23.0862 45.6201 23.0862 47.3343C23.0862 49.0485 24.4758 50.4381 26.19 50.4381Z" fill="#3B42AD"/>
<defs>
<linearGradient id="paint0_linear_212_2616" x1="36.566" y1="1.46866" x2="66.8023" y2="102.76" gradientUnits="userSpaceOnUse">
<stop stop-color="#A9B1FF"/>
<stop offset="1" stop-color="#7B83EB"/>
</linearGradient>
<linearGradient id="paint1_linear_212_2616" x1="51.6235" y1="5.07802" x2="51.6235" y2="98.7382" gradientUnits="userSpaceOnUse">
<stop stop-color="#5A62C3"/>
<stop offset="0.5" stop-color="#4D55BD"/>
<stop offset="1" stop-color="#3940AB"/>
</linearGradient>
<linearGradient id="paint2_linear_212_2616" x1="56.5342" y1="70.4846" x2="72.1913" y2="88.2234" gradientUnits="userSpaceOnUse">
<stop/>
<stop offset="0.8221" stop-opacity="0"/>
</linearGradient>
<linearGradient id="paint3_linear_212_2616" x1="36.4569" y1="58.1531" x2="52.114" y2="75.8919" gradientUnits="userSpaceOnUse">
<stop/>
<stop offset="0.8221" stop-opacity="0"/>
</linearGradient>
<linearGradient id="paint4_linear_212_2616" x1="36.7203" y1="73.0128" x2="35.7885" y2="39.2809" gradientUnits="userSpaceOnUse">
<stop stop-color="#0078D4"/>
<stop offset="0.848" stop-color="#4DC2EB"/>
</linearGradient>
<linearGradient id="paint5_linear_212_2616" x1="36.621" y1="72.75" x2="35.6892" y2="39.0181" gradientUnits="userSpaceOnUse">
<stop stop-color="#0078D4"/>
<stop offset="0.848" stop-color="#4DC2EB"/>
</linearGradient>
<linearGradient id="paint6_linear_212_2616" x1="36.5146" y1="72.2971" x2="35.5828" y2="38.5652" gradientUnits="userSpaceOnUse">
<stop stop-color="#0078D4"/>
<stop offset="0.848" stop-color="#4DC2EB"/>
</linearGradient>
<linearGradient id="paint7_linear_212_2616" x1="36.4083" y1="71.8442" x2="35.4764" y2="38.1123" gradientUnits="userSpaceOnUse">
<stop stop-color="#0078D4"/>
<stop offset="0.848" stop-color="#4DC2EB"/>
</linearGradient>
<linearGradient id="paint8_linear_212_2616" x1="36.3019" y1="71.3903" x2="35.3701" y2="37.6585" gradientUnits="userSpaceOnUse">
<stop stop-color="#0078D4"/>
<stop offset="0.848" stop-color="#4DC2EB"/>
</linearGradient>
<linearGradient id="paint9_linear_212_2616" x1="36.1955" y1="70.9374" x2="35.2637" y2="37.2056" gradientUnits="userSpaceOnUse">
<stop stop-color="#0078D4"/>
<stop offset="0.848" stop-color="#4DC2EB"/>
</linearGradient>
<linearGradient id="paint10_linear_212_2616" x1="36.0892" y1="70.4825" x2="35.1574" y2="36.7507" gradientUnits="userSpaceOnUse">
<stop stop-color="#0078D4"/>
<stop offset="0.848" stop-color="#4DC2EB"/>
</linearGradient>
<linearGradient id="paint11_linear_212_2616" x1="35.9828" y1="70.0296" x2="35.051" y2="36.2978" gradientUnits="userSpaceOnUse">
<stop stop-color="#0078D4"/>
<stop offset="0.848" stop-color="#4DC2EB"/>
</linearGradient>
<linearGradient id="paint12_linear_212_2616" x1="51.4344" y1="76.6944" x2="51.1132" y2="29.1507" gradientUnits="userSpaceOnUse">
<stop stop-color="#0078D4"/>
<stop offset="0.848" stop-color="#4DC2EB"/>
</linearGradient>
<linearGradient id="paint13_linear_212_2616" x1="51.4101" y1="76.4407" x2="51.0888" y2="28.897" gradientUnits="userSpaceOnUse">
<stop stop-color="#0078D4"/>
<stop offset="0.848" stop-color="#4DC2EB"/>
</linearGradient>
<linearGradient id="paint14_linear_212_2616" x1="51.3839" y1="75.9655" x2="51.0627" y2="28.4217" gradientUnits="userSpaceOnUse">
<stop stop-color="#0078D4"/>
<stop offset="0.848" stop-color="#4DC2EB"/>
</linearGradient>
<linearGradient id="paint15_linear_212_2616" x1="51.3577" y1="75.4911" x2="51.0365" y2="27.9475" gradientUnits="userSpaceOnUse">
<stop stop-color="#0078D4"/>
<stop offset="0.848" stop-color="#4DC2EB"/>
</linearGradient>
<linearGradient id="paint16_linear_212_2616" x1="51.3316" y1="75.0169" x2="51.0103" y2="27.4732" gradientUnits="userSpaceOnUse">
<stop stop-color="#0078D4"/>
<stop offset="0.848" stop-color="#4DC2EB"/>
</linearGradient>
<linearGradient id="paint17_linear_212_2616" x1="51.3054" y1="74.5406" x2="50.9842" y2="26.9969" gradientUnits="userSpaceOnUse">
<stop stop-color="#0078D4"/>
<stop offset="0.848" stop-color="#4DC2EB"/>
</linearGradient>
<linearGradient id="paint18_linear_212_2616" x1="51.2793" y1="74.0654" x2="50.9581" y2="26.5217" gradientUnits="userSpaceOnUse">
<stop stop-color="#0078D4"/>
<stop offset="0.848" stop-color="#4DC2EB"/>
</linearGradient>
<linearGradient id="paint19_linear_212_2616" x1="51.2532" y1="73.5911" x2="50.9318" y2="26.0474" gradientUnits="userSpaceOnUse">
<stop stop-color="#0078D4"/>
<stop offset="0.848" stop-color="#4DC2EB"/>
</linearGradient>
<linearGradient id="paint20_linear_212_2616" x1="63.7089" y1="81.75" x2="52.4399" y2="70.4811" gradientUnits="userSpaceOnUse">
<stop stop-color="#0078D4"/>
<stop offset="0.848" stop-color="#4DC2EB"/>
</linearGradient>
<linearGradient id="paint21_linear_212_2616" x1="63.5912" y1="83.2581" x2="52.2523" y2="71.9192" gradientUnits="userSpaceOnUse">
<stop stop-color="#0078D4"/>
<stop offset="0.848" stop-color="#4DC2EB"/>
</linearGradient>
<linearGradient id="paint22_linear_212_2616" x1="63.8437" y1="80.7872" x2="52.5761" y2="69.5196" gradientUnits="userSpaceOnUse">
<stop stop-color="#0078D4"/>
<stop offset="0.848" stop-color="#4DC2EB"/>
</linearGradient>
<linearGradient id="paint23_linear_212_2616" x1="63.5751" y1="82.712" x2="52.3048" y2="71.4418" gradientUnits="userSpaceOnUse">
<stop stop-color="#0078D4"/>
<stop offset="0.848" stop-color="#4DC2EB"/>
</linearGradient>
<linearGradient id="paint24_linear_212_2616" x1="63.6411" y1="82.2307" x2="52.3722" y2="70.9618" gradientUnits="userSpaceOnUse">
<stop stop-color="#0078D4"/>
<stop offset="0.848" stop-color="#4DC2EB"/>
</linearGradient>
<linearGradient id="paint25_linear_212_2616" x1="63.5139" y1="79.3534" x2="53.0803" y2="68.9198" gradientUnits="userSpaceOnUse">
<stop stop-color="#0078D4"/>
<stop offset="0.848" stop-color="#4DC2EB"/>
</linearGradient>
<linearGradient id="paint26_linear_212_2616" x1="63.9104" y1="80.3055" x2="52.6446" y2="69.0397" gradientUnits="userSpaceOnUse">
<stop stop-color="#0078D4"/>
<stop offset="0.848" stop-color="#4DC2EB"/>
</linearGradient>
<linearGradient id="paint27_linear_212_2616" x1="63.7751" y1="81.2675" x2="52.5082" y2="70.0006" gradientUnits="userSpaceOnUse">
<stop stop-color="#0078D4"/>
<stop offset="0.848" stop-color="#4DC2EB"/>
</linearGradient>
<linearGradient id="paint28_linear_212_2616" x1="60.5366" y1="83.6356" x2="49.7349" y2="72.8338" gradientUnits="userSpaceOnUse">
<stop stop-color="#0078D4"/>
<stop offset="0.848" stop-color="#4DC2EB"/>
</linearGradient>
<linearGradient id="paint29_linear_212_2616" x1="60.2318" y1="84.9546" x2="49.3776" y2="74.1004" gradientUnits="userSpaceOnUse">
<stop stop-color="#0078D4"/>
<stop offset="0.848" stop-color="#4DC2EB"/>
</linearGradient>
<linearGradient id="paint30_linear_212_2616" x1="63.5912" y1="83.2581" x2="52.2523" y2="71.9192" gradientUnits="userSpaceOnUse">
<stop stop-color="#0078D4"/>
<stop offset="0.848" stop-color="#4DC2EB"/>
</linearGradient>
<linearGradient id="paint31_linear_212_2616" x1="60.7753" y1="82.7766" x2="49.9745" y2="71.9758" gradientUnits="userSpaceOnUse">
<stop stop-color="#0078D4"/>
<stop offset="0.848" stop-color="#4DC2EB"/>
</linearGradient>
<linearGradient id="paint32_linear_212_2616" x1="60.299" y1="84.4947" x2="49.4962" y2="73.6919" gradientUnits="userSpaceOnUse">
<stop stop-color="#0078D4"/>
<stop offset="0.848" stop-color="#4DC2EB"/>
</linearGradient>
<linearGradient id="paint33_linear_212_2616" x1="60.4172" y1="84.0647" x2="49.6155" y2="73.263" gradientUnits="userSpaceOnUse">
<stop stop-color="#0078D4"/>
<stop offset="0.848" stop-color="#4DC2EB"/>
</linearGradient>
<linearGradient id="paint34_linear_212_2616" x1="60.7734" y1="81.6706" x2="50.7698" y2="71.6671" gradientUnits="userSpaceOnUse">
<stop stop-color="#0078D4"/>
<stop offset="0.848" stop-color="#4DC2EB"/>
</linearGradient>
<linearGradient id="paint35_linear_212_2616" x1="60.8942" y1="82.347" x2="50.0948" y2="71.5476" gradientUnits="userSpaceOnUse">
<stop stop-color="#0078D4"/>
<stop offset="0.848" stop-color="#4DC2EB"/>
</linearGradient>
<linearGradient id="paint36_linear_212_2616" x1="60.6553" y1="83.2055" x2="49.855" y2="72.4053" gradientUnits="userSpaceOnUse">
<stop stop-color="#0078D4"/>
<stop offset="0.848" stop-color="#4DC2EB"/>
</linearGradient>
<linearGradient id="paint37_linear_212_2616" x1="66.6653" y1="76.2563" x2="64.3913" y2="62.9917" gradientUnits="userSpaceOnUse">
<stop stop-color="#0078D4"/>
<stop offset="0.848" stop-color="#4DC2EB"/>
</linearGradient>
<linearGradient id="paint38_linear_212_2616" x1="70.8898" y1="75.9831" x2="68.6091" y2="62.6792" gradientUnits="userSpaceOnUse">
<stop stop-color="#0078D4"/>
<stop offset="0.848" stop-color="#4DC2EB"/>
</linearGradient>
<linearGradient id="paint39_linear_212_2616" x1="63.8093" y1="76.4538" x2="61.5358" y2="63.1919" gradientUnits="userSpaceOnUse">
<stop stop-color="#0078D4"/>
<stop offset="0.848" stop-color="#4DC2EB"/>
</linearGradient>
<linearGradient id="paint40_linear_212_2616" x1="69.52" y1="76.0585" x2="67.2456" y2="62.7913" gradientUnits="userSpaceOnUse">
<stop stop-color="#0078D4"/>
<stop offset="0.848" stop-color="#4DC2EB"/>
</linearGradient>
<linearGradient id="paint41_linear_212_2616" x1="68.0926" y1="76.1577" x2="65.8185" y2="62.8921" gradientUnits="userSpaceOnUse">
<stop stop-color="#0078D4"/>
<stop offset="0.848" stop-color="#4DC2EB"/>
</linearGradient>
<linearGradient id="paint42_linear_212_2616" x1="60.9037" y1="76.5817" x2="58.6751" y2="63.5811" gradientUnits="userSpaceOnUse">
<stop stop-color="#0078D4"/>
<stop offset="0.848" stop-color="#4DC2EB"/>
</linearGradient>
<linearGradient id="paint43_linear_212_2616" x1="62.3815" y1="76.5526" x2="60.1084" y2="63.2927" gradientUnits="userSpaceOnUse">
<stop stop-color="#0078D4"/>
<stop offset="0.848" stop-color="#4DC2EB"/>
</linearGradient>
<linearGradient id="paint44_linear_212_2616" x1="65.2377" y1="76.3548" x2="62.9641" y2="63.0923" gradientUnits="userSpaceOnUse">
<stop stop-color="#0078D4"/>
<stop offset="0.848" stop-color="#4DC2EB"/>
</linearGradient>
<linearGradient id="paint45_linear_212_2616" x1="65.6622" y1="75.4627" x2="63.5092" y2="62.9031" gradientUnits="userSpaceOnUse">
<stop stop-color="#0078D4"/>
<stop offset="0.848" stop-color="#4DC2EB"/>
</linearGradient>
<linearGradient id="paint46_linear_212_2616" x1="69.8657" y1="75.065" x2="67.7075" y2="62.4759" gradientUnits="userSpaceOnUse">
<stop stop-color="#0078D4"/>
<stop offset="0.848" stop-color="#4DC2EB"/>
</linearGradient>
<linearGradient id="paint47_linear_212_2616" x1="62.8185" y1="75.732" x2="60.6658" y2="63.1744" gradientUnits="userSpaceOnUse">
<stop stop-color="#0078D4"/>
<stop offset="0.848" stop-color="#4DC2EB"/>
</linearGradient>
<linearGradient id="paint48_linear_212_2616" x1="68.5046" y1="75.1939" x2="66.3511" y2="62.6323" gradientUnits="userSpaceOnUse">
<stop stop-color="#0078D4"/>
<stop offset="0.848" stop-color="#4DC2EB"/>
</linearGradient>
<linearGradient id="paint49_linear_212_2616" x1="67.0834" y1="75.3282" x2="64.9302" y2="62.7679" gradientUnits="userSpaceOnUse">
<stop stop-color="#0078D4"/>
<stop offset="0.848" stop-color="#4DC2EB"/>
</linearGradient>
<linearGradient id="paint50_linear_212_2616" x1="59.9446" y1="76.0442" x2="57.833" y2="63.7268" gradientUnits="userSpaceOnUse">
<stop stop-color="#0078D4"/>
<stop offset="0.848" stop-color="#4DC2EB"/>
</linearGradient>
<linearGradient id="paint51_linear_212_2616" x1="61.397" y1="75.8669" x2="59.2445" y2="63.3108" gradientUnits="userSpaceOnUse">
<stop stop-color="#0078D4"/>
<stop offset="0.848" stop-color="#4DC2EB"/>
</linearGradient>
<linearGradient id="paint52_linear_212_2616" x1="64.2408" y1="75.5974" x2="62.088" y2="63.0394" gradientUnits="userSpaceOnUse">
<stop stop-color="#0078D4"/>
<stop offset="0.848" stop-color="#4DC2EB"/>
</linearGradient>
<linearGradient id="paint53_linear_212_2616" x1="28.4136" y1="45.3826" x2="28.4136" y2="33.0414" gradientUnits="userSpaceOnUse">
<stop offset="0.0994" stop-color="#E6E6E6"/>
<stop offset="0.9511" stop-color="white"/>
</linearGradient>
</defs>
</svg>
