<svg width="103" height="103" viewBox="0 0 103 103" fill="none" xmlns="http://www.w3.org/2000/svg">
<path d="M51.476 98.2108C25.626 98.2108 4.66602 77.2608 4.66602 51.4008C4.66602 25.5408 25.626 4.59082 51.476 4.59082C77.326 4.59082 98.286 25.5508 98.286 51.4008C98.286 77.2508 77.326 98.2108 51.476 98.2108Z" fill="url(#paint0_linear_48_53)"/>
<path fill-rule="evenodd" clip-rule="evenodd" d="M51.4766 1.40088C79.0866 1.40088 101.477 23.7909 101.477 51.4009C101.477 79.0109 79.0866 101.401 51.4766 101.401C23.8666 101.401 1.47656 79.0109 1.47656 51.4009C1.47656 23.7909 23.8666 1.40088 51.4766 1.40088ZM51.4766 97.1609C76.7466 97.1609 97.2366 76.6709 97.2366 51.4009C97.2366 26.1309 76.7466 5.64088 51.4766 5.64088C26.2066 5.64088 5.71656 26.1309 5.71656 51.4009C5.71656 76.6709 26.2066 97.1609 51.4766 97.1609Z" fill="#D9D9D9"/>
<path fill-rule="evenodd" clip-rule="evenodd" d="M97.3759 51.4007C97.3759 76.7507 76.8259 97.3007 51.4759 97.3007C26.1259 97.3007 5.57594 76.7507 5.57594 51.4007C5.57594 26.0507 26.1259 5.50074 51.4759 5.50074C76.8259 5.50074 97.3759 26.0507 97.3759 51.4007ZM51.4759 1.76074C78.8959 1.76074 101.116 23.9807 101.116 51.4007C101.116 78.8207 78.8859 101.041 51.4759 101.041C24.0559 101.041 1.83594 78.8107 1.83594 51.4007C1.83594 23.9807 24.0559 1.76074 51.4759 1.76074Z" fill="#F2F1F0"/>
<path fill-rule="evenodd" clip-rule="evenodd" d="M51.4765 94.4908C27.6765 94.4908 8.38648 75.2008 8.38648 51.4008C8.38648 27.6008 27.6765 8.3108 51.4765 8.3108C75.2765 8.3108 94.5665 27.6008 94.5665 51.4008C94.5665 75.2008 75.2765 94.4908 51.4765 94.4908ZM98.3065 51.4008C98.3065 77.2608 77.3365 98.2308 51.4765 98.2308C25.6165 98.2308 4.64648 77.2608 4.64648 51.4008C4.64648 25.5408 25.6165 4.5708 51.4765 4.5708C77.3365 4.5708 98.3065 25.5308 98.3065 51.4008Z" fill="url(#paint1_linear_48_53)"/>
<path opacity="0.15" d="M83.3006 27.1494H70.5179C69.7403 27.1494 69.1079 27.7818 69.1079 28.5594V36.3866C69.1079 37.1641 69.7403 37.7965 70.5179 37.7965H83.311C84.0885 37.8069 84.7209 37.1745 84.7209 36.3866V28.5697C84.7209 27.7714 84.0885 27.1494 83.3006 27.1494Z" fill="#1F1D20"/>
<path opacity="0.15" d="M83.3006 53.2021H70.5179C69.7403 53.2021 69.1079 53.8345 69.1079 54.6121V62.4497C69.1079 63.2272 69.7403 63.8596 70.5179 63.8596H83.311C84.0885 63.8596 84.7209 63.2272 84.7209 62.4497V54.6328C84.7209 53.8345 84.0885 53.2021 83.3006 53.2021Z" fill="#1F1D20"/>
<path opacity="0.15" d="M83.3006 40.1499H70.5179C69.7403 40.1499 69.1079 40.7823 69.1079 41.5598V49.3871C69.1079 50.1646 69.7403 50.797 70.5179 50.797H83.311C84.0885 50.8074 84.7209 50.175 84.7209 49.3871V41.5598C84.7209 40.7823 84.0885 40.1499 83.3006 40.1499Z" fill="#1F1D20"/>
<path opacity="0.15" d="M83.3006 66.2026H70.5179C69.7403 66.2026 69.1079 66.835 69.1079 67.6126V75.4502C69.1079 76.2277 69.7403 76.8601 70.5179 76.8601H83.311C84.0885 76.8601 84.7209 76.2277 84.7209 75.4502V67.6229C84.7209 66.8454 84.0885 66.2026 83.3006 66.2026Z" fill="#1F1D20"/>
<path fill-rule="evenodd" clip-rule="evenodd" d="M63.958 57.4209H81.6548V58.2209H63.958V57.4209Z" fill="white"/>
<path fill-rule="evenodd" clip-rule="evenodd" d="M63.958 44.0312H81.6548V44.8313H63.958V44.0312Z" fill="white"/>
<path fill-rule="evenodd" clip-rule="evenodd" d="M63.5576 31.0201C63.5576 30.7992 63.7367 30.6201 63.9576 30.6201H81.6544V31.4201H64.3576V70.7997H81.6544V71.5997H63.9576C63.7367 71.5997 63.5576 71.4207 63.5576 71.1997V31.0201Z" fill="white"/>
<path d="M83.3006 26.2163H70.5179C69.7403 26.2163 69.1079 26.8487 69.1079 27.6262V35.4535C69.1079 36.231 69.7403 36.8634 70.5179 36.8634H83.311C84.0885 36.8738 84.7209 36.2414 84.7209 35.4535V27.6366C84.7209 26.8487 84.0885 26.2163 83.3006 26.2163Z" fill="#5B67F1"/>
<path d="M83.3006 52.269H70.5179C69.7403 52.269 69.1079 52.9014 69.1079 53.679V61.5166C69.1079 62.2941 69.7403 62.9265 70.5179 62.9265H83.311C84.0885 62.9265 84.7209 62.2941 84.7209 61.5166V53.6997C84.7209 52.9014 84.0885 52.269 83.3006 52.269Z" fill="#4852CB"/>
<path d="M83.3006 39.2271H70.5179C69.7403 39.2271 69.1079 39.8594 69.1079 40.637V48.4642C69.1079 49.2418 69.7403 49.8742 70.5179 49.8742H83.311C84.0885 49.8845 84.7209 49.2521 84.7209 48.4642V40.637C84.7209 39.8594 84.0885 39.2271 83.3006 39.2271Z" fill="#5661E3"/>
<path d="M83.3006 65.2798H70.5179C69.7403 65.2798 69.1079 65.9122 69.1079 66.6897V74.5273C69.1079 75.3049 69.7403 75.9373 70.5179 75.9373H83.311C84.0885 75.9373 84.7209 75.3049 84.7209 74.5273V66.7001C84.7209 65.9226 84.0885 65.2798 83.3006 65.2798Z" fill="url(#paint2_linear_48_53)"/>
<path d="M80.5222 29.6169L79.7447 28.8394L75.8259 32.7374L74.6647 31.5659L73.8872 32.3435L75.8362 34.2925L80.5222 29.6169Z" fill="white"/>
<path d="M80.5221 55.2756L79.7446 54.498L75.8361 58.3961L74.675 57.2246L73.8975 58.0022L75.8465 59.9512L80.5221 55.2756Z" fill="white"/>
<path d="M80.5223 68.6076L79.7448 67.8301L75.826 71.7281L74.6545 70.5463L73.877 71.3238L75.826 73.2729L80.5223 68.6076Z" fill="white"/>
<path d="M80.5222 42.6071L79.7447 41.8296L75.8362 45.7277L74.6647 44.5458L73.8872 45.3233L75.8362 47.2724L80.5222 42.6071Z" fill="white"/>
<path fill-rule="evenodd" clip-rule="evenodd" d="M50.6982 51.104H64.0097V51.904H50.6982V51.104Z" fill="white"/>
<path opacity="0.15" d="M58.4578 72.7459C59.122 72.7459 59.6575 72.2104 59.6575 71.5462V31.9673H17.8491V71.5513C17.8491 72.2155 18.3846 72.751 19.0488 72.751H58.4578V72.7459Z" fill="#1F1D20"/>
<path d="M59.6523 32.3224V31.6736C59.6523 30.8704 59.0036 30.2217 58.2003 30.2217H19.3011C18.4979 30.2217 17.8491 30.8704 17.8491 31.6736V32.3945V33.0535V70.2794C17.8491 71.0826 18.4979 71.7314 19.3011 71.7314H58.2106C59.0139 71.7314 59.6626 71.0826 59.6626 70.2794V32.3945C59.6626 32.3687 59.6523 32.3481 59.6523 32.3224Z" fill="white"/>
<path d="M33.6829 46.9502H26.1061C25.3902 46.9502 24.8099 47.5299 24.8099 48.245V55.1397C24.8099 57.768 26.9427 59.8986 29.5735 59.8986H29.5961C32.2269 59.899 34.36 57.7687 34.3604 55.1404C34.3604 55.1402 34.3604 55.1399 34.3604 55.1397V47.6269C34.3603 47.2532 34.0571 46.9502 33.6829 46.9502Z" fill="#5059C9"/>
<path d="M28.5616 45.5871C26.8662 45.5871 25.4918 44.214 25.4918 42.5203C25.4918 40.8266 26.8662 39.4536 28.5616 39.4536C30.257 39.4536 31.6313 40.8266 31.6313 42.5203C31.6313 44.214 30.257 45.5871 28.5616 45.5871Z" fill="#5059C9"/>
<path d="M38.1123 45.587C35.6634 45.587 33.6781 43.6037 33.6781 41.1573C33.6781 38.7108 35.6634 36.7275 38.1123 36.7275C40.5612 36.7275 42.5464 38.7108 42.5464 41.1573C42.5464 43.6037 40.5612 45.587 38.1123 45.587Z" fill="#7B83EB"/>
<path d="M32.1995 46.9502H44.7064C45.4137 46.9677 45.9733 47.5541 45.9569 48.2607V56.1245C46.0556 60.3649 42.6975 63.8838 38.453 63.9876C34.2084 63.8838 30.8503 60.3649 30.9491 56.1245V48.2607C30.9327 47.5541 31.4922 46.9677 32.1995 46.9502Z" fill="#7B83EB"/>
<path opacity="0.1" d="M37.7711 46.9502V57.97C37.7745 58.4753 38.081 58.9293 38.5488 59.1217C38.6977 59.1846 38.8578 59.2171 39.0195 59.2171H45.3568C45.4455 58.9922 45.5274 58.7673 45.5956 58.5356C45.8344 57.7536 45.9562 56.9407 45.9572 56.1231V48.2587C45.9736 47.5532 45.415 46.9677 44.7088 46.9502H37.7711Z" fill="black"/>
<path opacity="0.2" d="M38.4533 46.9502V58.6515C38.4533 58.813 38.4858 58.9729 38.5488 59.1217C38.7414 59.589 39.1958 59.8952 39.7016 59.8986H45.0362C45.1522 59.6737 45.2613 59.4488 45.3568 59.2171C45.4524 58.9854 45.5274 58.7673 45.5956 58.5356C45.8344 57.7536 45.9562 56.9407 45.9572 56.1231V48.2587C45.9736 47.5532 45.415 46.9677 44.7088 46.9502H38.4533Z" fill="black"/>
<path opacity="0.2" d="M38.4533 46.9502V57.2885C38.4585 57.9751 39.0143 58.5304 39.7016 58.5356H45.5956C45.8344 57.7536 45.9562 56.9407 45.9572 56.1231V48.2587C45.9736 47.5532 45.415 46.9677 44.7088 46.9502H38.4533Z" fill="black"/>
<path opacity="0.2" d="M39.1355 46.9502V57.2885C39.1406 57.9751 39.6965 58.5304 40.3838 58.5356H45.5956C45.8344 57.7536 45.9562 56.9407 45.9572 56.1231V48.2587C45.9736 47.5532 45.415 46.9677 44.7088 46.9502H39.1355Z" fill="black"/>
<path opacity="0.1" d="M37.7709 43.4263V45.573C37.8869 45.5798 37.996 45.5867 38.112 45.5867C38.228 45.5867 38.3371 45.5799 38.4531 45.573C38.6834 45.5578 38.9117 45.5213 39.1353 45.464C40.5167 45.1372 41.6579 44.1693 42.205 42.8607C42.2992 42.6409 42.3723 42.4127 42.4233 42.1792H39.0193C38.3309 42.1818 37.7735 42.7386 37.7709 43.4263Z" fill="black"/>
<path opacity="0.2" d="M38.4531 44.108V45.5732C38.6834 45.5579 38.9118 45.5214 39.1353 45.4641C40.5167 45.1373 41.658 44.1695 42.2051 42.8608H39.7015C39.0131 42.8634 38.4558 43.4203 38.4531 44.108Z" fill="black"/>
<path opacity="0.2" d="M38.4531 44.108V45.5732C38.6834 45.5579 38.9118 45.5214 39.1353 45.4641C40.5167 45.1373 41.658 44.1695 42.2051 42.8608H39.7015C39.0131 42.8634 38.4558 43.4203 38.4531 44.108Z" fill="black"/>
<path opacity="0.2" d="M39.1353 44.108V45.4641C40.5167 45.1373 41.658 44.1695 42.2051 42.8608H40.3837C39.6953 42.8635 39.1379 43.4203 39.1353 44.108Z" fill="black"/>
<path d="M52.8927 42.8608H40.3857C39.6951 42.8608 39.1353 43.4201 39.1353 44.11V56.6045C39.1353 57.2944 39.6951 57.8537 40.3857 57.8537H52.8927C53.5832 57.8537 54.1431 57.2944 54.1431 56.6045V44.11C54.1431 43.4201 53.5832 42.8608 52.8927 42.8608Z" fill="url(#paint3_linear_48_53)"/>
<path d="M43.3481 47.6167H45.8483V54.4181H47.4411V47.6167H49.9297V46.2974H43.3481V47.6167Z" fill="white"/>
<defs>
<linearGradient id="paint0_linear_48_53" x1="36.4189" y1="0.96182" x2="66.6552" y2="102.253" gradientUnits="userSpaceOnUse">
<stop stop-color="#A9B1FF"/>
<stop offset="1" stop-color="#7B83EB"/>
</linearGradient>
<linearGradient id="paint1_linear_48_53" x1="51.4764" y1="4.5707" x2="51.4764" y2="98.2309" gradientUnits="userSpaceOnUse">
<stop stop-color="#5A62C3"/>
<stop offset="0.5" stop-color="#4D55BD"/>
<stop offset="1" stop-color="#3940AB"/>
</linearGradient>
<linearGradient id="paint2_linear_48_53" x1="71.8202" y1="64.5859" x2="77.299" y2="78.4873" gradientUnits="userSpaceOnUse">
<stop stop-color="#4049B5"/>
<stop offset="0.5" stop-color="#363EA5"/>
<stop offset="1" stop-color="#3940AB"/>
</linearGradient>
<linearGradient id="paint3_linear_48_53" x1="51.5359" y1="41.8848" x2="41.757" y2="58.8382" gradientUnits="userSpaceOnUse">
<stop stop-color="#5A62C3"/>
<stop offset="0.5" stop-color="#4D55BD"/>
<stop offset="1" stop-color="#3940AB"/>
</linearGradient>
</defs>
</svg>
