<svg width="100" height="100" viewBox="0 0 100 100" fill="none" xmlns="http://www.w3.org/2000/svg">
<g clip-path="url(#clip0)">
<path d="M49.6396 96.4501C40.3815 96.4501 31.3312 93.7047 23.6334 88.5612C15.9355 83.4176 9.93575 76.1069 6.39281 67.5535C2.84987 59.0001 1.92288 49.5882 3.72905 40.5079C5.53523 31.4277 9.99345 23.0869 16.5399 16.5404C23.0864 9.99393 31.4272 5.53571 40.5074 3.72954C49.5877 1.92337 58.9996 2.85036 67.553 6.3933C76.1064 9.93624 83.4172 15.936 88.5607 23.6339C93.7042 31.3317 96.4496 40.382 96.4496 49.6401C96.45 55.7874 95.2395 61.8746 92.8873 67.554C90.535 73.2335 87.087 78.3939 82.7402 82.7407C78.3934 87.0875 73.233 90.5355 67.5535 92.8878C61.8741 95.24 55.7869 96.4505 49.6396 96.4501V96.4501Z" fill="url(#paint0_linear)"/>
<path fill-rule="evenodd" clip-rule="evenodd" d="M95.5402 49.7113C95.5402 58.7895 92.8483 67.6637 87.8047 75.212C82.7611 82.7602 75.5925 88.6433 67.2054 92.1174C58.8183 95.5914 49.5893 96.5004 40.6856 94.7293C31.7819 92.9583 23.6033 88.5867 17.184 82.1675C10.7648 75.7483 6.39326 67.5697 4.6222 58.6659C2.85114 49.7622 3.76011 40.5333 7.23417 32.1461C10.7082 23.759 16.5914 16.5904 24.1396 11.5468C31.6878 6.50328 40.5621 3.81129 49.6402 3.81129C55.6679 3.81127 61.6366 4.99849 67.2054 7.30517C72.7743 9.61186 77.8343 12.9928 82.0965 17.255C86.3587 21.5173 89.7397 26.5772 92.0464 32.1461C94.353 37.715 95.5403 43.6836 95.5402 49.7113V49.7113ZM49.6402 0.0712894C59.4581 0.0712894 69.0555 2.98262 77.2188 8.43714C85.382 13.8917 91.7445 21.6444 95.5016 30.7149C99.2588 39.7854 100.242 49.7664 98.3264 59.3956C96.4111 69.0248 91.6833 77.8698 84.741 84.8121C77.7987 91.7544 68.9537 96.4821 59.3245 98.3975C49.6953 100.313 39.7144 99.3298 30.6438 95.5727C21.5733 91.8155 13.8206 85.4531 8.36609 77.2898C2.91158 69.1265 0.000244503 59.5292 0.000244503 49.7113C-0.000543598 43.1922 1.2829 36.7369 3.77726 30.714C6.27162 24.691 9.92805 19.2184 14.5377 14.6088C19.1474 9.99909 24.62 6.34267 30.6429 3.8483C36.6659 1.35394 43.1212 0.0705013 49.6402 0.0712894V0.0712894Z" fill="#F2F1F0"/>
<path fill-rule="evenodd" clip-rule="evenodd" d="M92.7303 49.6406C92.7303 58.163 90.2031 66.494 85.4683 73.5801C80.7335 80.6662 74.0038 86.1892 66.1301 89.4505C58.2565 92.7119 49.5925 93.5653 41.2339 91.9026C32.8752 90.24 25.1973 86.1361 19.1711 80.1098C13.1448 74.0836 9.0409 66.4057 7.37827 58.047C5.71563 49.6884 6.56895 41.0244 9.83033 33.1507C13.0917 25.2771 18.6147 18.5473 25.7008 13.8126C32.7869 9.07776 41.1179 6.55058 49.6403 6.55058C55.2991 6.55023 60.9025 7.66455 66.1305 9.82991C71.3586 11.9953 76.109 15.1692 80.1103 19.1706C84.1116 23.1719 87.2856 27.9223 89.451 33.1503C91.6163 38.3784 92.7306 43.9818 92.7303 49.6406V49.6406ZM49.6403 2.81058C58.9024 2.81058 67.9565 5.55711 75.6577 10.7029C83.3588 15.8486 89.3611 23.1624 92.9056 31.7195C96.45 40.2766 97.3774 49.6925 95.5705 58.7767C93.7635 67.8608 89.3034 76.2051 82.7541 82.7544C76.2048 89.3037 67.8605 93.7638 58.7764 95.5708C49.6923 97.3777 40.2763 96.4503 31.7192 92.9059C23.1622 89.3614 15.8483 83.3591 10.7026 75.6579C5.55683 67.9568 2.8103 58.9027 2.8103 49.6406C2.81149 37.2208 7.74573 25.3101 16.5278 16.5281C25.3099 7.74599 37.2206 2.81174 49.6403 2.81055V2.81058Z" fill="#0078D4"/>
<path d="M25.3924 30.7969C24.2248 30.8003 23.1059 31.2657 22.2803 32.0913C21.4546 32.917 20.9893 34.0358 20.9858 35.2034V66.0494H78.2711V35.2034C78.2677 34.0358 77.8023 32.917 76.9767 32.0913C76.151 31.2657 75.0322 30.8003 73.8645 30.7969L25.3924 30.7969ZM73.8645 33.0002C74.4486 33.001 75.0086 33.2333 75.4216 33.6464C75.8346 34.0594 76.067 34.6193 76.0678 35.2034V63.8461H23.1891V35.2034C23.1897 34.6193 23.422 34.0592 23.8351 33.6461C24.2482 33.233 24.8082 33.0007 25.3924 33.0002L73.8645 33.0002Z" fill="url(#paint1_linear)"/>
<path d="M23.189 35.2033C23.1896 34.6191 23.4219 34.059 23.8349 33.646C24.248 33.2329 24.8081 33.0006 25.3923 33H73.8644C74.4485 33.0008 75.0085 33.2332 75.4215 33.6462C75.8345 34.0592 76.0669 34.6192 76.0677 35.2033V63.846H23.189V35.2033Z" fill="url(#paint2_linear)"/>
<path d="M14.376 66.0488V67.1504C14.3794 68.3181 14.8448 69.4369 15.6704 70.2626C16.4961 71.0882 17.6149 71.5536 18.7825 71.557H80.4743C81.642 71.5536 82.7608 71.0882 83.5865 70.2626C84.4121 69.4369 84.8775 68.3181 84.8809 67.1504V66.0488H14.376Z" fill="url(#paint3_linear)"/>
<path fill-rule="evenodd" clip-rule="evenodd" d="M45.2218 68.2521H54.0349C54.6192 68.2518 55.1795 68.0197 55.5926 67.6065C56.0058 67.1934 56.238 66.6331 56.2382 66.0488H43.0186C43.0186 66.6332 43.2507 67.1935 43.6639 67.6067C44.0771 68.0199 44.6375 68.252 45.2218 68.2521V68.2521Z" fill="#003067"/>
<path d="M49.6403 38.9209C51.6184 38.9209 53.5521 39.5075 55.1968 40.6065C56.8415 41.7055 58.1234 43.2675 58.8804 45.095C59.6374 46.9226 59.8355 48.9335 59.4496 50.8736C59.0637 52.8137 58.1111 54.5958 56.7124 55.9946C55.3136 57.3933 53.5315 58.3459 51.5914 58.7318C49.6513 59.1177 47.6404 58.9197 45.8128 58.1627C43.9853 57.4057 42.4233 56.1238 41.3243 54.479C40.2253 52.8343 39.6387 50.9006 39.6387 48.9225C39.6387 47.6091 39.8974 46.3085 40.4 45.095C40.9026 43.8816 41.6393 42.779 42.568 41.8503C43.4968 40.9215 44.5994 40.1848 45.8128 39.6822C47.0263 39.1796 48.3268 38.9209 49.6403 38.9209V38.9209ZM52.5791 53.4222H46.7013C47.3533 55.8363 48.4868 57.424 49.6403 57.424C50.7938 57.424 51.9271 55.8363 52.5791 53.4222ZM45.1485 53.4228L42.426 53.4226C43.3916 54.9675 44.8263 56.1627 46.5202 56.8333C45.949 55.897 45.5208 54.8806 45.2499 53.8178L45.1485 53.4228ZM56.8543 53.4226L54.1319 53.4228C53.8621 54.6265 53.3984 55.7783 52.7591 56.8333C54.346 56.2056 55.708 55.1163 56.6691 53.7062L56.8543 53.4226ZM44.7337 46.9218H41.376L41.3713 46.939C40.9771 48.5943 41.0857 50.3296 41.6833 51.9228L44.8564 51.9224C44.7098 50.9292 44.637 49.9265 44.6387 48.9225C44.6387 48.2385 44.6711 47.5693 44.7337 46.9218ZM53.0371 46.9219H46.2433C46.1732 47.5865 46.1383 48.2543 46.1387 48.9225C46.1369 49.9274 46.2171 50.9307 46.3784 51.9226H52.9021C53.0633 50.9307 53.1435 49.9274 53.1418 48.9225C53.1421 48.2543 53.1072 47.5865 53.0371 46.9219V46.9219ZM57.9048 46.921L54.5467 46.9218C54.6093 47.5693 54.6417 48.2385 54.6417 48.9225C54.6434 49.9265 54.5707 50.9292 54.424 51.9224L57.5971 51.9228C58.1969 50.3237 58.304 48.5816 57.9048 46.921V46.921ZM46.5213 41.0116L46.4984 41.0203C44.4515 41.8374 42.8001 43.4148 41.8904 45.4222L44.9385 45.4226C45.1799 43.8648 45.7172 42.3676 46.5213 41.0116ZM49.6403 40.4209L49.5246 40.4262C48.2592 40.542 47.0367 42.544 46.469 45.4222H52.8116C52.2454 42.5521 51.0282 40.5532 49.7666 40.4273L49.6403 40.4209ZM52.7603 41.0117L52.8671 41.1858C53.6073 42.4989 54.1068 43.9337 54.342 45.4226L57.3901 45.4222C56.5219 43.5067 54.9768 41.9792 53.0515 41.133L52.7603 41.0117Z" fill="#003067"/>
<path opacity="0.6" d="M38.2004 30.7334C38.4058 32.0288 38.8285 33.2803 39.4507 34.4349L47.2876 48.8451C47.5165 49.2663 47.8547 49.6179 48.2667 49.8629C48.6787 50.1079 49.1491 50.2372 49.6284 50.2372C50.1077 50.2372 50.5782 50.1079 50.9902 49.8629C51.4021 49.6179 51.7404 49.2663 51.9692 48.8451L59.8061 34.4349C60.4283 33.2803 60.851 32.0288 61.0564 30.7334H38.2004Z" fill="#003067"/>
<path d="M49.6285 19.3135C47.9665 19.3135 46.3332 19.7456 44.8886 20.5674C43.4441 21.3891 42.238 22.5724 41.3888 24.0009C40.5395 25.4295 40.0763 27.0543 40.0445 28.7159C40.0127 30.3776 40.4135 32.0189 41.2075 33.4789L49.0445 47.8893C49.1016 47.9944 49.186 48.0821 49.2888 48.1432C49.3916 48.2043 49.509 48.2366 49.6286 48.2366C49.7482 48.2366 49.8655 48.2043 49.9683 48.1432C50.0711 48.0821 50.1555 47.9944 50.2127 47.8893L58.0496 33.4789C58.8436 32.0189 59.2443 30.3775 59.2126 28.7159C59.1808 27.0543 58.7175 25.4294 57.8683 24.0009C57.019 22.5723 55.8129 21.3891 54.3684 20.5673C52.9238 19.7455 51.2904 19.3135 49.6285 19.3135V19.3135Z" fill="white"/>
<path d="M49.6283 24.7324C50.0191 24.7324 50.4002 24.8535 50.7193 25.0791C51.0384 25.3047 51.2797 25.6237 51.41 25.9921C51.4502 26.1057 51.4454 26.2304 51.3966 26.3407C51.3478 26.4509 51.2588 26.5383 51.1477 26.5851C51.0366 26.6318 50.9118 26.6343 50.7989 26.592C50.686 26.5498 50.5936 26.466 50.5404 26.3578L50.5191 26.3069C50.4468 26.1026 50.3065 25.9293 50.1216 25.8162C49.9367 25.703 49.7186 25.6569 49.5037 25.6855C49.2889 25.7142 49.0904 25.8158 48.9416 25.9734C48.7928 26.131 48.7028 26.335 48.6866 26.5512L48.6839 26.6216V27.566L52.3448 27.5665C52.6141 27.5665 52.8734 27.6687 53.0702 27.8525C53.2671 28.0363 53.3868 28.288 53.4053 28.5567L53.4077 28.6294V33.1157C53.4077 33.385 53.3055 33.6443 53.1217 33.8412C52.9379 34.038 52.6862 34.1578 52.4175 34.1762L52.3448 34.1787H46.9118C46.6425 34.1787 46.3832 34.0765 46.1864 33.8927C45.9895 33.7089 45.8698 33.4572 45.8513 33.1885L45.8489 33.1157V28.6294C45.8489 28.3601 45.9511 28.1008 46.1349 27.904C46.3187 27.7071 46.5704 27.5874 46.8391 27.5689L46.9118 27.5665L47.739 27.566V26.6216C47.739 26.3735 47.7879 26.1279 47.8829 25.8987C47.9778 25.6694 48.117 25.4612 48.2924 25.2858C48.4678 25.1103 48.6761 24.9712 48.9053 24.8762C49.1345 24.7813 49.3802 24.7324 49.6283 24.7324ZM49.6283 30.1646C49.4882 30.1646 49.3514 30.2061 49.2349 30.2839C49.1185 30.3617 49.0278 30.4723 48.9742 30.6017C48.9206 30.7311 48.9066 30.8734 48.9339 31.0107C48.9612 31.1481 49.0286 31.2742 49.1276 31.3733C49.2267 31.4723 49.3528 31.5397 49.4902 31.567C49.6275 31.5943 49.7698 31.5803 49.8992 31.5267C50.0286 31.4731 50.1392 31.3824 50.217 31.266C50.2948 31.1495 50.3363 31.0127 50.3363 30.8726C50.3363 30.6848 50.2617 30.5048 50.1289 30.372C49.9961 30.2392 49.8161 30.1646 49.6283 30.1646V30.1646Z" fill="url(#paint4_linear)"/>
</g>
<defs>
<linearGradient id="paint0_linear" x1="47.8693" y1="-15.153" x2="51.8521" y2="130.615" gradientUnits="userSpaceOnUse">
<stop stop-color="#00ABDE"/>
<stop offset="1" stop-color="#007ED8"/>
</linearGradient>
<linearGradient id="paint1_linear" x1="49.6285" y1="66.0494" x2="49.6285" y2="30.7337" gradientUnits="userSpaceOnUse">
<stop stop-color="#003067"/>
<stop offset="0.16493" stop-color="#003F7C"/>
<stop offset="0.36216" stop-color="#004F90"/>
<stop offset="0.68089" stop-color="#00589D"/>
<stop offset="1" stop-color="#005BA1"/>
</linearGradient>
<linearGradient id="paint2_linear" x1="49.6283" y1="63.846" x2="49.6283" y2="32.9448" gradientUnits="userSpaceOnUse">
<stop stop-color="#005BA1"/>
<stop offset="0.26" stop-color="#00589D"/>
<stop offset="0.53" stop-color="#004F90"/>
<stop offset="0.8" stop-color="#003F7C"/>
<stop offset="1" stop-color="#003067"/>
</linearGradient>
<linearGradient id="paint3_linear" x1="49.6284" y1="71.557" x2="49.6284" y2="66.0488" gradientUnits="userSpaceOnUse">
<stop stop-color="#004DAE"/>
<stop offset="0.21" stop-color="#0061C4"/>
<stop offset="0.51" stop-color="#0078DD"/>
<stop offset="0.78" stop-color="#0086EC"/>
<stop offset="1" stop-color="#008BF1"/>
</linearGradient>
<linearGradient id="paint4_linear" x1="420.982" y1="347.593" x2="420.982" y2="258.362" gradientUnits="userSpaceOnUse">
<stop stop-color="#004DAE"/>
<stop offset="0.21" stop-color="#0061C4"/>
<stop offset="0.51" stop-color="#0078DD"/>
<stop offset="0.78" stop-color="#0086EC"/>
<stop offset="1" stop-color="#008BF1"/>
</linearGradient>
<clipPath id="clip0">
<rect width="99.2799" height="99.28" fill="white"/>
</clipPath>
</defs>
</svg>
