<svg width="103" height="103" viewBox="0 0 103 103" fill="none" xmlns="http://www.w3.org/2000/svg">
<path d="M51.6806 98.7919C25.8306 98.7919 4.87061 77.8419 4.87061 51.9819C4.87061 26.1219 25.8306 5.17188 51.6806 5.17188C77.5306 5.17188 98.4906 26.1319 98.4906 51.9819C98.4906 77.8319 77.5306 98.7919 51.6806 98.7919Z" fill="url(#paint0_linear)"/>
<path fill-rule="evenodd" clip-rule="evenodd" d="M51.6807 1.98242C79.2907 1.98242 101.681 24.3724 101.681 51.9824C101.681 79.5924 79.2907 101.982 51.6807 101.982C24.0707 101.982 1.68066 79.5924 1.68066 51.9824C1.68066 24.3724 24.0707 1.98242 51.6807 1.98242ZM51.6807 97.7424C76.9507 97.7424 97.4407 77.2524 97.4407 51.9824C97.4407 26.7124 76.9507 6.22242 51.6807 6.22242C26.4107 6.22242 5.92066 26.7124 5.92066 51.9824C5.92066 77.2524 26.4107 97.7424 51.6807 97.7424Z" fill="#D9D9D9"/>
<path fill-rule="evenodd" clip-rule="evenodd" d="M97.5805 51.9828C97.5805 77.3328 77.0305 97.8828 51.6805 97.8828C26.3305 97.8828 5.78053 77.3328 5.78053 51.9828C5.78053 26.6328 26.3305 6.08277 51.6805 6.08277C77.0305 6.08277 97.5805 26.6328 97.5805 51.9828ZM51.6805 2.34277C79.1005 2.34277 101.321 24.5628 101.321 51.9828C101.321 79.4028 79.0905 101.623 51.6805 101.623C24.2605 101.623 2.04053 79.3928 2.04053 51.9828C2.04053 24.5628 24.2605 2.34277 51.6805 2.34277Z" fill="#F2F1F0"/>
<path fill-rule="evenodd" clip-rule="evenodd" d="M51.6806 95.0723C27.8806 95.0723 8.59059 75.7823 8.59059 51.9823C8.59059 28.1823 27.8806 8.89234 51.6806 8.89234C75.4806 8.89234 94.7706 28.1823 94.7706 51.9823C94.7706 75.7823 75.4806 95.0723 51.6806 95.0723ZM98.5106 51.9823C98.5106 77.8423 77.5406 98.8123 51.6806 98.8123C25.8206 98.8123 4.85059 77.8423 4.85059 51.9823C4.85059 26.1223 25.8206 5.15234 51.6806 5.15234C77.5406 5.15234 98.5106 26.1123 98.5106 51.9823Z" fill="url(#paint1_linear)"/>
<path d="M81.6606 71.773L26.0406 71.823C25.8506 71.823 25.7006 71.673 25.7006 71.483L25.6606 29.933C25.6606 29.743 25.8106 29.593 26.0006 29.593L81.6206 29.543C81.8106 29.543 81.9606 29.693 81.9606 29.883L82.0006 71.433C82.0006 71.613 81.8506 71.773 81.6606 71.773Z" fill="#E6E6E6"/>
<path d="M79.7105 30.0225L55.0605 30.0425L81.2005 56.0625L81.1805 31.4925C81.1905 30.6825 80.5305 30.0225 79.7105 30.0225Z" fill="url(#paint2_linear)"/>
<path d="M81.1106 31.0324C80.9206 30.4524 80.3606 30.0224 79.7106 30.0324L26.3606 30.0824C25.5506 30.0824 24.8906 30.7424 24.8906 31.5524V35.2924L81.1106 35.2424V31.0324Z" fill="#7B83EB"/>
<path d="M81.1908 35.2325C81.1908 35.2325 82.0508 30.0225 81.2408 30.0225L55.0708 30.0425L60.2808 35.2425L81.1908 35.2325Z" fill="#99A5FF"/>
<path d="M82.4408 28.0127L25.0608 28.0627C23.5408 28.0627 22.3008 29.3027 22.3008 30.8227L22.3408 70.5927C22.3408 72.1127 23.5808 73.3527 25.1008 73.3527L82.4808 73.3027C84.0008 73.3027 85.2408 72.0627 85.2408 70.5427L85.2008 30.7727C85.2008 29.2427 83.9608 28.0127 82.4408 28.0127ZM81.1208 70.4927C81.1208 70.7627 80.9008 70.9827 80.6308 70.9827L27.0708 71.0327C26.8008 71.0327 26.5808 70.8127 26.5808 70.5427L26.5408 30.7927C26.5408 30.5227 26.7608 30.3027 27.0308 30.3027L80.5908 30.2527C80.8608 30.2527 81.0808 30.4727 81.0808 30.7427L81.1208 70.4927Z" fill="#3B42AD"/>
<path d="M24.5407 51.6921C25.1107 51.6921 25.5707 51.2321 25.5707 50.6521C25.5707 50.0821 25.1107 49.6221 24.5307 49.6221C23.9607 49.6221 23.5007 50.0821 23.5007 50.6621C23.5007 51.2321 23.9607 51.6921 24.5407 51.6921Z" fill="#737373"/>
<path d="M29.2006 77.0926C37.4006 77.0926 44.0506 70.4426 44.0506 62.2426C44.0506 54.0426 37.4006 47.3926 29.2006 47.3926C21.0006 47.3926 14.3506 54.0426 14.3506 62.2426C14.3506 70.4426 21.0006 77.0926 29.2006 77.0926Z" fill="#3B42AD"/>
<path d="M29.5906 55.8121C30.8206 55.8121 31.8106 54.8221 31.8106 53.5921C31.8106 52.3621 30.8206 51.3721 29.5906 51.3721C28.3606 51.3721 27.3706 52.3621 27.3706 53.5921C27.3706 54.8221 28.3606 55.8121 29.5906 55.8121Z" fill="white"/>
<path d="M39.1406 57.7122C39.1406 57.0322 38.5906 56.4922 37.9206 56.4922C37.8206 56.4922 37.7206 56.5122 37.6306 56.5322C37.6306 56.5322 32.6106 57.1922 29.7406 57.1922C27.2406 57.1922 22.7806 56.8822 21.6506 56.6122C21.4906 56.5322 21.1706 56.5522 20.9806 56.5522C20.3006 56.5522 19.9006 57.0322 19.9006 57.7122C19.9006 58.3222 20.3406 58.8222 20.9206 58.9122C21.1906 58.9822 23.9406 58.9422 27.0306 59.2422C27.0306 60.5522 27.0306 62.9122 27.0306 63.6822C27.0306 64.6822 25.6406 69.5422 25.2006 70.7722C25.0906 71.0022 25.0206 71.1722 25.0206 71.4022C25.0206 72.0822 25.5706 72.6222 26.2406 72.6222C26.7206 72.6222 27.1206 72.3522 27.3306 71.9522C27.3706 71.9022 28.2006 70.7622 28.7206 68.3822C28.9906 67.1522 29.1906 65.2022 29.1906 65.2022H29.8806C29.8806 65.2022 30.1506 67.4822 30.4106 68.5522C30.6706 69.6122 31.7406 71.8922 31.7406 71.8922C31.9306 72.3322 32.3806 72.6222 32.8806 72.6222C33.5606 72.6222 34.1006 72.0722 34.1006 71.4022C34.1006 71.2022 34.0506 71.0122 33.9606 70.8422C33.7506 70.3622 32.9806 68.5522 32.7806 67.1822C32.5506 65.6022 32.4106 65.0822 32.4106 63.7022C32.4106 62.7622 32.4106 60.5522 32.4106 59.2522C35.6106 58.9322 38.3106 58.8622 38.3106 58.8622V58.8522C38.7906 58.7022 39.1406 58.2522 39.1406 57.7122Z" fill="white"/>
<path d="M59.7507 56.4932L50.1507 56.5032C48.7807 56.5032 47.6407 57.6332 47.6507 59.0132V62.9432C47.6507 64.3132 48.7807 65.4532 50.1607 65.4432H52.7307V67.4532C52.7307 67.6132 52.9207 67.6932 53.0407 67.5832L55.1707 65.4432L59.7607 65.4332C61.1307 65.4332 62.2707 64.3032 62.2607 62.9232V58.9832C62.2507 57.6132 61.1307 56.4932 59.7507 56.4932Z" fill="#7B83EB"/>
<path d="M56.4706 59.4929L50.3006 59.5029C50.0806 59.5029 49.9106 59.3229 49.9106 59.1129C49.9106 58.9029 50.0906 58.7229 50.3006 58.7229L56.4706 58.7129C56.6906 58.7129 56.8606 58.8929 56.8606 59.1029C56.8606 59.3129 56.6906 59.4929 56.4706 59.4929Z" fill="white"/>
<path d="M56.4807 61.3425L50.3107 61.3525C50.0907 61.3525 49.9207 61.1725 49.9207 60.9625C49.9207 60.7425 50.1007 60.5725 50.3107 60.5725L56.4807 60.5625C56.7007 60.5625 56.8707 60.7425 56.8707 60.9525C56.8707 61.1625 56.6907 61.3425 56.4807 61.3425Z" fill="white"/>
<path d="M52.2206 63.1823H50.3006C50.0806 63.1823 49.9106 63.0023 49.9106 62.7923C49.9106 62.5723 50.0906 62.4023 50.3006 62.4023H52.2206C52.4406 62.4023 52.6106 62.5823 52.6106 62.7923C52.6106 63.0123 52.4406 63.1823 52.2206 63.1823Z" fill="white"/>
<path d="M63.8007 61.7928C66.6007 61.7928 68.8807 59.5128 68.8807 56.7128C68.8807 53.9128 66.6007 51.6328 63.8007 51.6328C61.0007 51.6328 58.7207 53.9128 58.7207 56.7128C58.7207 59.5128 60.9907 61.7928 63.8007 61.7928Z" fill="#B5D5EA"/>
<path d="M68.3707 58.9123C68.3407 58.9123 68.3107 58.9023 68.2707 58.9023L63.7607 58.9123H59.6107C59.4907 58.9123 59.3607 58.9323 59.2407 58.9623C60.0807 60.6423 61.8007 61.7923 63.7907 61.7923C65.8107 61.7823 67.5507 60.6123 68.3707 58.9123Z" fill="#2B88D8"/>
<path d="M67.1808 58.9923L67.2008 58.9023L60.2808 58.9123L60.3008 59.0023C60.4408 59.6023 60.7608 60.0823 61.2508 60.4623C61.7408 60.8423 62.3008 61.0223 62.9308 61.0223H64.5808C64.9408 61.0223 65.2908 60.9623 65.6108 60.8223C65.9308 60.6823 66.2208 60.5023 66.4808 60.2523C66.8308 59.9023 67.0708 59.4723 67.1808 58.9923Z" fill="#2B88D8"/>
<path d="M61.4907 60.1323C61.9107 60.4523 62.3807 60.6223 62.9207 60.6223H64.5707C65.1907 60.6223 65.7307 60.4023 66.1807 59.9723C66.4907 59.6723 66.6907 59.3223 66.7807 58.9023L60.6807 58.9123C60.8107 59.4123 61.0807 59.8123 61.4907 60.1323Z" fill="#9A6541"/>
<path d="M63.3308 56.993C63.4108 57.053 63.5108 57.093 63.6108 57.113C63.7208 57.133 63.8208 57.133 63.9208 57.123C64.0608 57.103 64.1508 57.043 64.2108 56.963C64.2308 56.943 64.2308 56.923 64.2308 56.903C64.2208 56.883 64.2108 56.863 64.2008 56.853C64.1808 56.833 64.1608 56.833 64.1308 56.833L64.1108 56.843C64.0108 56.873 63.8808 56.873 63.6908 56.843C63.5908 56.823 63.5208 56.793 63.4708 56.773C63.4008 56.743 63.3408 56.713 63.3008 56.673L63.2908 56.653C63.2408 56.613 63.2008 56.613 63.1608 56.653C63.1308 56.673 63.1208 56.703 63.1408 56.743C63.1608 56.853 63.2208 56.933 63.3308 56.993Z" fill="#9A6541"/>
<path d="M66.2506 58.5223C66.2506 58.2123 66.2806 55.4023 66.2806 55.4023L61.3206 55.5923L61.3406 58.5423C61.3306 58.8723 60.8606 58.9423 60.8606 58.9423C61.2006 59.3223 62.4606 59.8223 63.8706 59.7223C65.4006 59.7023 66.2106 59.2323 66.6206 58.9023C66.6206 58.9023 66.2406 58.9223 66.2506 58.5223Z" fill="#9A6541"/>
<path d="M65.8907 56.0525C65.9907 56.1625 66.1107 56.2225 66.2607 56.2125C66.4007 56.2025 66.5207 56.1525 66.6107 56.0225C66.7107 55.9025 66.7507 55.7625 66.7507 55.6025C66.7407 55.4325 66.6907 55.2925 66.5807 55.1825C66.4807 55.0725 66.3607 55.0225 66.2107 55.0225C66.0707 55.0325 65.9507 55.0925 65.8607 55.2125C65.7607 55.3325 65.7207 55.4725 65.7207 55.6325C65.7307 55.8125 65.7807 55.9525 65.8907 56.0525Z" fill="#9A6541"/>
<path d="M60.8308 55.683C60.8408 55.853 60.8908 55.993 61.0008 56.103C61.1008 56.213 61.2208 56.273 61.3708 56.263C61.5108 56.253 61.6308 56.203 61.7208 56.083C61.8108 55.963 61.8608 55.823 61.8508 55.663C61.8408 55.503 61.7908 55.363 61.6808 55.243C61.5808 55.133 61.4608 55.083 61.3108 55.083C61.1708 55.093 61.0508 55.143 60.9608 55.263C60.8608 55.373 60.8108 55.513 60.8308 55.683Z" fill="#9A6541"/>
<path d="M61.3107 55.0631V56.5631C61.3307 57.1531 61.5807 57.7331 62.0107 58.1431C62.4407 58.5531 62.9607 58.7331 63.5407 58.7231L64.2507 58.6931C64.8407 58.6731 65.3306 58.4431 65.7406 58.0031C66.1506 57.5631 66.2907 57.1331 66.2907 56.5131L66.2607 55.0031C66.2407 54.3731 65.9907 53.8431 65.5507 53.4231C65.0907 52.9931 64.6506 52.7831 64.0306 52.8031H63.4307C62.8107 52.8231 62.3107 53.1131 61.8807 53.5631C61.4607 54.0331 61.2907 54.4431 61.3107 55.0631Z" fill="#9A6541"/>
<path d="M63.8606 53.6025L64.0206 57.7825L65.9706 57.5825L65.8306 53.7425L63.8606 53.6025Z" fill="url(#paint3_radial)"/>
<path opacity="0.75" d="M66.0308 55.083V55.553C66.0408 55.853 65.9408 56.103 65.7308 56.313C65.5108 56.533 65.3008 56.643 64.9908 56.683C64.5008 56.743 64.4008 56.463 63.7508 56.473C63.1608 56.493 62.8708 56.763 62.4808 56.723C62.2408 56.703 62.0108 56.573 61.8408 56.383C61.6608 56.193 61.5708 55.973 61.5708 55.723L61.5608 55.133L61.2908 55.123L61.3508 56.653C61.3708 57.243 61.5908 57.743 62.0208 58.153C62.4508 58.563 62.8608 58.723 63.3908 58.733L64.2808 58.723C64.9408 58.723 65.3608 58.443 65.7608 58.013C66.1608 57.573 66.3508 57.053 66.3408 56.463L66.3008 55.103L66.0308 55.083Z" fill="url(#paint4_linear)"/>
<path d="M64.1108 56.3333C64.2108 56.3033 64.2908 56.2333 64.3608 56.1533C64.4208 56.0633 64.4608 55.9733 64.4508 55.8633C64.4408 55.6933 64.3608 55.5633 64.2108 55.4733C64.0408 55.3733 63.9408 55.2533 63.9108 55.1133L63.6808 55.4033C63.5208 55.6233 63.4408 55.7833 63.4508 55.8933C63.4608 56.0333 63.5108 56.1733 63.6108 56.3133C63.7108 56.4033 63.8108 56.4633 63.9408 56.4633C64.0008 56.3933 64.0708 56.3333 64.1108 56.3333Z" fill="#9A6541"/>
<path d="M64.3208 57.0225C64.2608 57.1225 64.1708 57.1825 64.0608 57.2325C63.9608 57.2725 63.8408 57.2925 63.7208 57.2825C63.6108 57.2725 63.5008 57.2325 63.4008 57.1625C63.3008 57.1025 63.2308 57.0025 63.2108 56.8925C63.2008 56.8625 63.2208 56.8325 63.2608 56.8225C63.2808 56.8125 63.2908 56.8225 63.3008 56.8325H63.3108C63.4808 56.9225 63.6208 56.9625 63.7708 56.9725C63.9208 56.9925 64.0808 56.9825 64.2608 56.9425C64.2908 56.9325 64.3208 56.9625 64.3308 56.9925C64.3408 57.0025 64.3308 57.0225 64.3208 57.0225Z" fill="#9A6541"/>
<path d="M62.9508 55.6225C63.0408 55.6225 63.1008 55.4925 63.1008 55.3425C63.1008 55.1925 63.0308 55.0625 62.9508 55.0625C62.8608 55.0625 62.8008 55.1925 62.8008 55.3425C62.8008 55.4925 62.8708 55.6225 62.9508 55.6225Z" fill="#33312D"/>
<path d="M64.7506 55.6127C64.8406 55.6127 64.9006 55.4827 64.9006 55.3327C64.9006 55.1827 64.8306 55.0527 64.7506 55.0527C64.6606 55.0527 64.6006 55.1827 64.6006 55.3327C64.6006 55.4927 64.6606 55.6127 64.7506 55.6127Z" fill="#33312D"/>
<path d="M41.5108 39.7727L52.0908 39.7627C53.6008 39.7627 54.8508 41.0027 54.8508 42.5127V46.8427C54.8508 48.3527 53.6108 49.6027 52.1008 49.6027H49.2708V51.7927C49.2708 51.9827 49.0508 52.0727 48.9208 51.9427L46.5808 49.6127L41.5208 49.6227C40.0108 49.6227 38.7608 48.3827 38.7608 46.8727V42.5427C38.7508 41.0127 39.9808 39.7727 41.5108 39.7727Z" fill="white"/>
<path d="M45.1306 43.0721L51.9306 43.0621C52.1706 43.0621 52.3606 42.8721 52.3606 42.6321C52.3606 42.3921 52.1706 42.2021 51.9306 42.2021L45.1306 42.2121C44.8906 42.2121 44.7006 42.4021 44.7006 42.6421C44.6906 42.8721 44.8806 43.0721 45.1306 43.0721Z" fill="#99A5FF"/>
<path d="M45.1308 45.1024L51.9308 45.0924C52.1708 45.0924 52.3608 44.9024 52.3608 44.6624C52.3608 44.4224 52.1708 44.2324 51.9308 44.2324L45.1308 44.2424C44.8908 44.2424 44.7008 44.4324 44.7008 44.6724C44.6908 44.9124 44.8908 45.1024 45.1308 45.1024Z" fill="#99A5FF"/>
<path d="M37.0507 44.7625C40.1407 44.7625 42.6507 42.2525 42.6507 39.1625C42.6507 36.0725 40.1407 33.5625 37.0507 33.5625C33.9607 33.5625 31.4507 36.0725 31.4507 39.1625C31.4507 42.2625 33.9607 44.7725 37.0507 44.7625Z" fill="#FFB900"/>
<path d="M41.5106 42.5625C41.1306 42.0725 40.7406 41.6925 40.3306 41.4325C39.8106 41.0825 39.2006 40.8725 38.5206 40.8025C38.3306 40.7625 38.1206 40.7425 37.9306 40.7525H36.1906C35.9806 40.7425 35.7706 40.7725 35.5706 40.8125C34.9106 40.8925 34.3306 41.1025 33.8306 41.4425C33.4106 41.7125 33.0206 42.1125 32.6306 42.6125C33.6606 43.9325 35.2606 44.7925 37.0706 44.7925C38.8706 44.7625 40.4806 43.8925 41.5106 42.5625Z" fill="#53ADE5"/>
<path d="M35.1006 40.8724C35.4306 40.7724 35.7806 40.7324 36.1406 40.7324H38.1006C38.4306 40.7324 38.7506 40.7724 39.0406 40.8524C39.0006 41.0624 38.4606 41.7724 37.0606 41.7724C35.6506 41.7724 35.1606 41.0924 35.1006 40.8724Z" fill="#BE906B"/>
<path d="M35.9006 41.3227V39.4727H38.2506V41.3227H35.9006Z" fill="url(#paint5_linear)"/>
<path d="M34.0408 37.8521V37.3321C34.0408 36.6021 34.3008 35.9821 34.8108 35.4721C35.3208 34.9621 35.9408 34.7021 36.6708 34.7021H37.4108C38.1408 34.7021 38.7608 34.9621 39.2708 35.4721C39.7808 35.9821 40.0408 36.6021 40.0408 37.3321V37.8521C40.0408 38.4621 39.8308 38.9921 39.3808 39.4321C38.9508 39.8621 38.4208 40.0921 37.8108 40.0921H36.2308C35.6208 40.0921 35.0908 39.8821 34.6508 39.4321C34.2608 38.9821 34.0408 38.4621 34.0408 37.8521Z" fill="#E1DFDD"/>
<path d="M38.8806 38.8821C39.0206 38.7621 39.1806 38.7221 39.3606 38.7621C39.5306 38.8021 39.6606 38.9021 39.7506 39.0621C39.8406 39.2321 39.8706 39.4121 39.8306 39.6121C39.7906 39.8021 39.7106 39.9721 39.5606 40.0921C39.4206 40.2121 39.2606 40.2521 39.0806 40.2121C38.9106 40.1721 38.7806 40.0821 38.6906 39.9121C38.6006 39.7421 38.5706 39.5621 38.6106 39.3621C38.6406 39.1621 38.7406 39.0021 38.8806 38.8821Z" fill="#E1DFDD"/>
<path d="M38.2806 40.2626C38.3406 40.1126 38.4406 39.9926 38.5806 39.9226C38.7306 39.8526 38.8706 39.8426 39.0106 39.8926C39.1506 39.9426 39.2506 40.0426 39.3106 40.1926C39.3606 40.3326 39.3506 40.4826 39.3006 40.6326C39.2406 40.7826 39.1306 40.9026 38.9906 40.9826C38.8506 41.0526 38.7106 41.0626 38.5706 41.0126C38.4306 40.9626 38.3306 40.8526 38.2706 40.7126C38.2106 40.5626 38.2106 40.4126 38.2806 40.2626Z" fill="#E1DFDD"/>
<path d="M37.8806 41.2028C37.9206 41.0328 38.0006 40.9028 38.1306 40.7928C38.2506 40.6828 38.3806 40.6528 38.5206 40.6728C38.6506 40.6928 38.7606 40.7628 38.8206 40.8928C38.8906 41.0228 38.9006 41.1628 38.8606 41.3328C38.8206 41.4928 38.7406 41.6128 38.6006 41.7228C38.4806 41.8328 38.3406 41.8728 38.2106 41.8528C38.0806 41.8328 37.9706 41.7528 37.9106 41.6328C37.8406 41.5128 37.8306 41.3728 37.8806 41.2028Z" fill="#E1DFDD"/>
<path d="M38.0007 41.5724C38.1207 41.5524 38.2307 41.5824 38.3307 41.6624C38.4207 41.7524 38.4807 41.8624 38.4907 42.0124C38.5007 42.1624 38.4707 42.2924 38.3907 42.4224C38.3207 42.5424 38.2107 42.6124 38.1007 42.6524C37.9807 42.6824 37.8707 42.6524 37.7707 42.5724C37.6707 42.4824 37.6207 42.3724 37.6107 42.2224C37.6007 42.0724 37.6307 41.9424 37.7107 41.8124C37.7807 41.6924 37.8807 41.6124 38.0007 41.5724Z" fill="#E1DFDD"/>
<path d="M38.0107 42.5124C38.2707 42.5524 38.4207 42.7124 38.4307 43.0224C38.4607 43.3224 38.3607 43.5624 38.1407 43.7424C38.0307 43.8324 37.9807 43.9324 37.9807 44.0524C37.9807 44.1124 38.0007 44.1624 38.0207 44.2024L37.8707 44.1024C37.7707 44.0124 37.7307 43.9124 37.7507 43.7824C37.7607 43.6824 37.7307 43.6024 37.6707 43.5424C37.5807 43.4524 37.5207 43.3724 37.4907 43.3024C37.4307 43.1424 37.4407 42.9624 37.5207 42.7924C37.6207 42.5724 37.7807 42.4824 38.0107 42.5124Z" fill="#E1DFDD"/>
<path d="M37.5407 36.082C37.9807 36.082 38.3607 36.242 38.6807 36.552C38.9907 36.862 39.1507 37.242 39.1507 37.682V38.832C39.1507 39.272 38.9907 39.652 38.6807 39.972C38.3607 40.292 37.9807 40.452 37.5407 40.452H36.5407C36.1007 40.452 35.7207 40.292 35.4007 39.982C35.0907 39.672 34.9307 39.292 34.9307 38.852V37.702C34.9307 37.262 35.0907 36.882 35.4007 36.562C35.7207 36.242 36.1007 36.082 36.5407 36.082H37.5407Z" fill="#BE906B"/>
<path d="M37.6606 38.2121C37.6606 38.1321 37.6806 38.0621 37.7006 38.0021C37.7406 37.9521 37.7706 37.9121 37.8206 37.9121C37.8706 37.9121 37.9006 37.9421 37.9306 38.0021C37.9706 38.0521 37.9706 38.1221 37.9706 38.2121C37.9706 38.3021 37.9506 38.3721 37.9306 38.4221C37.8906 38.4721 37.8606 38.5121 37.8106 38.5121C37.7606 38.5121 37.7306 38.4821 37.7006 38.4221C37.6806 38.3621 37.6606 38.2921 37.6606 38.2121Z" fill="#33312D"/>
<path d="M39.1607 37.8123C39.1607 37.8123 38.4407 37.6223 38.1707 37.5523C37.8107 37.4523 37.2407 37.1823 37.0707 36.6623C36.9007 36.1323 36.9607 35.3623 36.9607 35.3623L39.1107 35.5623L39.1607 37.8123Z" fill="#E1DFDD"/>
<path d="M35.5708 37.8721H36.9208L36.9108 39.5121L35.5708 39.5021V37.8721Z" fill="url(#paint6_radial)"/>
<path d="M35.9607 38.2121C35.9607 38.1321 35.9807 38.0621 36.0007 38.0021C36.0407 37.9521 36.0707 37.9121 36.1207 37.9121C36.1707 37.9121 36.2007 37.9421 36.2307 38.0021C36.2707 38.0521 36.2707 38.1221 36.2707 38.2121C36.2707 38.3021 36.2507 38.3721 36.2307 38.4221C36.1907 38.4721 36.1607 38.5121 36.1107 38.5121C36.0607 38.5121 36.0307 38.4821 36.0007 38.4221C35.9707 38.3721 35.9607 38.3021 35.9607 38.2121Z" fill="#33312D"/>
<path d="M38.8108 37.7529H39.0008C39.1908 37.7529 39.3508 37.8229 39.4808 37.9529C39.6108 38.0829 39.6708 38.2529 39.6708 38.4429C39.6708 38.6329 39.6008 38.7929 39.4708 38.9329C39.3408 39.0629 39.1808 39.1229 38.9908 39.1229H38.8008V37.7529H38.8108Z" fill="#BE906B"/>
<path d="M35.2006 37.7725H35.0106C34.8206 37.7725 34.6606 37.8425 34.5306 37.9725C34.4006 38.1025 34.3406 38.2625 34.3406 38.4525C34.3406 38.6425 34.4106 38.8025 34.5406 38.9325C34.6706 39.0625 34.8306 39.1225 35.0206 39.1225H35.2106V37.7725H35.2006Z" fill="#BE906B"/>
<path opacity="0.5" d="M36.7508 39.452C36.8008 39.452 36.8608 39.442 36.9108 39.432C36.9608 39.422 37.0208 39.402 37.0708 39.392C37.1208 39.372 37.1808 39.352 37.2208 39.332C37.2608 39.302 37.3108 39.282 37.3608 39.232L37.3708 39.222C37.3908 39.202 37.4208 39.202 37.4408 39.222C37.4508 39.232 37.4508 39.242 37.4508 39.252C37.4608 39.342 37.4208 39.432 37.3608 39.492C37.3008 39.552 37.2308 39.602 37.1508 39.622C37.0708 39.652 36.9908 39.662 36.9108 39.652C36.8308 39.642 36.7308 39.612 36.6908 39.522C36.6808 39.492 36.6808 39.472 36.7108 39.452C36.7208 39.442 36.7308 39.442 36.7408 39.442L36.7508 39.452Z" fill="#9A6541"/>
<path d="M37.2307 38.6227C37.2307 38.8127 37.0707 39.3327 36.9107 39.3727C36.9107 39.3727 36.9007 39.3127 36.8907 39.2427C36.8707 39.1227 36.8007 39.0127 36.6907 38.9527C36.5907 38.9027 36.4707 38.8027 36.4707 38.6227C36.4707 38.4327 36.6107 38.3427 36.7207 38.2827C36.8207 38.2327 36.8807 38.1327 36.9007 38.0227C36.9207 37.9027 36.9307 37.8027 36.9307 37.8027C37.0307 37.8527 37.2307 38.4627 37.2307 38.6227Z" fill="#BE906B"/>
<path d="M73.8607 42.1123H77.7307C78.1007 42.1123 78.3907 42.4123 78.3907 42.7723V46.2923C78.3907 47.6323 77.3007 48.7223 75.9607 48.7223H75.9507C74.6107 48.7223 73.5207 47.6323 73.5207 46.2923V42.4523C73.5107 42.2623 73.6707 42.1123 73.8607 42.1123Z" fill="#5059C9"/>
<path d="M76.4706 41.4125C77.3406 41.4125 78.0406 40.7125 78.0406 39.8425C78.0406 38.9725 77.3406 38.2725 76.4706 38.2725C75.6006 38.2725 74.9006 38.9725 74.9006 39.8425C74.9006 40.7125 75.6006 41.4125 76.4706 41.4125Z" fill="#5059C9"/>
<path d="M71.6006 41.4126C72.8506 41.4126 73.8606 40.4026 73.8606 39.1526C73.8606 37.9026 72.8506 36.8926 71.6006 36.8926C70.3506 36.8926 69.3406 37.9026 69.3406 39.1526C69.3306 40.4026 70.3506 41.4126 71.6006 41.4126Z" fill="#7B83EB"/>
<path d="M74.6107 42.1123H68.2307C67.8707 42.1223 67.5807 42.4223 67.5907 42.7823V46.8023C67.5407 48.9723 69.2507 50.7623 71.4207 50.8223C73.5907 50.7723 75.3007 48.9723 75.2507 46.8023V42.7823C75.2607 42.4123 74.9707 42.1123 74.6107 42.1123Z" fill="#7B83EB"/>
<path opacity="0.1" d="M71.7706 42.1123V47.7423C71.7706 48.0023 71.6106 48.2323 71.3706 48.3323C71.2906 48.3623 71.2106 48.3823 71.1306 48.3823H67.9006C67.8506 48.2723 67.8106 48.1523 67.7806 48.0323C67.6606 47.6323 67.6006 47.2223 67.6006 46.8023V42.7823C67.5906 42.4223 67.8806 42.1223 68.2406 42.1123H71.7706V42.1123Z" fill="black"/>
<path opacity="0.2" d="M71.4206 42.1123V48.0923C71.4206 48.1723 71.4006 48.2523 71.3706 48.3323C71.2706 48.5723 71.0406 48.7323 70.7806 48.7323H68.0606C68.0006 48.6223 67.9506 48.5023 67.9006 48.3823C67.8506 48.2623 67.8106 48.1523 67.7806 48.0323C67.6606 47.6323 67.6006 47.2223 67.6006 46.8023V42.7823C67.5906 42.4223 67.8806 42.1223 68.2406 42.1123H71.4206V42.1123Z" fill="black"/>
<path opacity="0.2" d="M71.4206 42.1123V47.3923C71.4206 47.7423 71.1306 48.0223 70.7806 48.0323H67.7706C67.6506 47.6323 67.5906 47.2223 67.5906 46.8023V42.7823C67.5806 42.4223 67.8706 42.1223 68.2306 42.1123H71.4206V42.1123Z" fill="black"/>
<path opacity="0.2" d="M71.0706 42.1123V47.3923C71.0706 47.7423 70.7806 48.0223 70.4306 48.0323H67.7706C67.6506 47.6323 67.5906 47.2223 67.5906 46.8023V42.7823C67.5806 42.4223 67.8706 42.1223 68.2306 42.1123H71.0706V42.1123Z" fill="black"/>
<path opacity="0.1" d="M71.7706 40.3129V41.4129C71.7106 41.4129 71.6606 41.4229 71.6006 41.4229C71.5406 41.4229 71.4906 41.4229 71.4306 41.4129C71.3106 41.4029 71.2006 41.3829 71.0806 41.3529C70.3806 41.1829 69.7906 40.6929 69.5106 40.0229C69.4606 39.9129 69.4206 39.7929 69.4006 39.6729H71.1406C71.4806 39.6729 71.7706 39.9629 71.7706 40.3129Z" fill="black"/>
<path opacity="0.2" d="M71.4207 40.6527V41.4027C71.3007 41.3927 71.1907 41.3727 71.0707 41.3427C70.3707 41.1727 69.7807 40.6827 69.5007 40.0127H70.7807C71.1407 40.0227 71.4207 40.3027 71.4207 40.6527Z" fill="black"/>
<path opacity="0.2" d="M71.4207 40.6527V41.4027C71.3007 41.3927 71.1907 41.3727 71.0707 41.3427C70.3707 41.1727 69.7807 40.6827 69.5007 40.0127H70.7807C71.1407 40.0227 71.4207 40.3027 71.4207 40.6527Z" fill="black"/>
<path opacity="0.2" d="M71.0707 40.6527V41.3427C70.3707 41.1727 69.7807 40.6827 69.5007 40.0127H70.4307C70.7907 40.0227 71.0707 40.3027 71.0707 40.6527Z" fill="black"/>
<path d="M64.0707 40.0127H70.4507C70.8007 40.0127 71.0907 40.3027 71.0907 40.6527V47.0327C71.0907 47.3827 70.8007 47.6727 70.4507 47.6727H64.0707C63.7207 47.6727 63.4307 47.3827 63.4307 47.0327V40.6527C63.4407 40.3027 63.7207 40.0127 64.0707 40.0127Z" fill="url(#paint7_linear)"/>
<path d="M68.9205 42.4522H67.6405V45.9222H66.8306V42.4522H65.5605V41.7822H68.9205V42.4522Z" fill="white"/>
<defs>
<linearGradient id="paint0_linear" x1="36.6235" y1="1.54287" x2="66.8598" y2="102.834" gradientUnits="userSpaceOnUse">
<stop stop-color="#A9B1FF"/>
<stop offset="1" stop-color="#7B83EB"/>
</linearGradient>
<linearGradient id="paint1_linear" x1="51.6805" y1="5.15224" x2="51.6805" y2="98.8124" gradientUnits="userSpaceOnUse">
<stop stop-color="#5A62C3"/>
<stop offset="0.5" stop-color="#4D55BD"/>
<stop offset="1" stop-color="#3940AB"/>
</linearGradient>
<linearGradient id="paint2_linear" x1="68.1441" y1="56.0748" x2="68.12" y2="30.0303" gradientUnits="userSpaceOnUse">
<stop offset="0.0994" stop-color="#E6E6E6"/>
<stop offset="0.9511" stop-color="white"/>
</linearGradient>
<radialGradient id="paint3_radial" cx="0" cy="0" r="1" gradientUnits="userSpaceOnUse" gradientTransform="translate(63.9566 55.8824) rotate(177.844) scale(1.38577 1.21635)">
<stop stop-color="#59453A"/>
<stop offset="1" stop-color="#9A6541" stop-opacity="0"/>
</radialGradient>
<linearGradient id="paint4_linear" x1="63.8133" y1="57.9386" x2="63.8145" y2="55.1915" gradientUnits="userSpaceOnUse">
<stop offset="0.0144" stop-color="#48372D"/>
<stop offset="0.4807" stop-color="#59453A"/>
<stop offset="1" stop-color="#9A6541"/>
</linearGradient>
<linearGradient id="paint5_linear" x1="37.0818" y1="41.0144" x2="37.0812" y2="40.3528" gradientUnits="userSpaceOnUse">
<stop stop-color="#BE906B"/>
<stop offset="0.9922" stop-color="#9F7757"/>
</linearGradient>
<radialGradient id="paint6_radial" cx="0" cy="0" r="1" gradientUnits="userSpaceOnUse" gradientTransform="translate(36.9147 38.704) rotate(-179.968) scale(1.05935 0.78349)">
<stop stop-color="#744D2C"/>
<stop offset="1" stop-color="#BE906B" stop-opacity="0"/>
</radialGradient>
<linearGradient id="paint7_linear" x1="64.7609" y1="39.512" x2="69.7569" y2="48.1648" gradientUnits="userSpaceOnUse">
<stop stop-color="#5A62C3"/>
<stop offset="0.5" stop-color="#4D55BD"/>
<stop offset="1" stop-color="#3940AB"/>
</linearGradient>
</defs>
</svg>
