<svg width="103" height="103" viewBox="0 0 103 103" fill="none" xmlns="https://www.w3.org/2000/svg">
<path d="M51.5999 98.2987C25.7499 98.2987 4.78992 77.3487 4.78992 51.4887C4.78992 25.6287 25.7499 4.67871 51.5999 4.67871C77.4499 4.67871 98.4099 25.6387 98.4099 51.4887C98.4099 77.3387 77.4499 98.2987 51.5999 98.2987Z" fill="url(#paint0_linear)"/>
<path fill-rule="evenodd" clip-rule="evenodd" d="M97.5 51.4886C97.5 76.8386 76.95 97.3886 51.6 97.3886C26.25 97.3886 5.69996 76.8386 5.69996 51.4886C5.69996 26.1386 26.25 5.58863 51.6 5.58863C76.95 5.58863 97.5 26.1386 97.5 51.4886ZM51.6 1.84863C79.02 1.84863 101.24 24.0686 101.24 51.4886C101.24 78.9086 79.01 101.129 51.6 101.129C24.18 101.129 1.95996 78.8986 1.95996 51.4886C1.95996 24.0686 24.18 1.84863 51.6 1.84863Z" fill="#F2F1F0"/>
<path fill-rule="evenodd" clip-rule="evenodd" d="M94.69 51.4882C94.69 75.2882 75.4 94.5782 51.6 94.5782C27.8 94.5782 8.51002 75.2882 8.51002 51.4882C8.51002 27.6882 27.8 8.3982 51.6 8.3982C75.4 8.3982 94.69 27.6882 94.69 51.4882ZM51.6 4.6582C77.46 4.6582 98.43 25.6282 98.43 51.4882C98.43 77.3482 77.46 98.3182 51.6 98.3182C25.74 98.3182 4.77002 77.3482 4.77002 51.4882C4.77002 25.6282 25.73 4.6582 51.6 4.6582Z" fill="url(#paint1_linear)"/>
<path opacity="0.15" d="M19.73 72.0187H64.1C65.34 72.0187 66.35 71.0087 66.35 69.7687V34.3887H17.48V69.7687C17.48 71.0087 18.49 72.0187 19.73 72.0187Z" fill="#1F1D20"/>
<path d="M18.41 69.9591H65.42C65.93 69.9591 66.35 69.5391 66.35 69.0291V32.3291H17.48V69.0291C17.48 69.5391 17.9 69.9591 18.41 69.9591Z" fill="white"/>
<path d="M17.48 36.3888H66.35V32.0088C66.35 31.6088 66.03 31.2988 65.64 31.2988H18.19C17.79 31.2988 17.48 31.6188 17.48 32.0088V36.3888Z" fill="#0D3868"/>
<path d="M21.24 35.1888C21.92 35.1888 22.48 34.6387 22.48 33.9487C22.48 33.2587 21.91 32.7188 21.24 32.7188C20.56 32.7188 20 33.2688 20 33.9588C20 34.6388 20.54 35.1888 21.24 35.1888Z" fill="#50E6FF"/>
<path d="M74.76 67.818C83.83 67.818 91.19 60.468 91.19 51.388C91.19 42.318 83.84 34.958 74.76 34.958C65.69 34.958 58.33 42.308 58.33 51.388C58.34 60.468 65.69 67.818 74.76 67.818Z" fill="url(#paint2_radial)"/>
<path d="M74.7 67.9183C65.55 67.9183 58.11 60.4783 58.11 51.3283C58.11 42.1783 65.55 34.7383 74.7 34.7383C83.85 34.7383 91.29 42.1783 91.29 51.3283C91.29 60.4783 83.84 67.9183 74.7 67.9183ZM74.7 35.0683C65.73 35.0683 58.44 42.3683 58.44 51.3283C58.44 60.2883 65.74 67.5883 74.7 67.5883C83.66 67.5883 90.96 60.2883 90.96 51.3283C90.96 42.3683 83.67 35.0683 74.7 35.0683Z" fill="#50E6FF"/>
<path d="M74.7 58.4081C65.55 58.4081 58.11 55.2381 58.11 51.3281H58.43C58.43 55.0481 65.73 58.0781 74.7 58.0781C83.67 58.0781 90.96 55.0481 90.96 51.3281H91.28C91.29 55.2381 83.85 58.4081 74.7 58.4081Z" fill="#50E6FF"/>
<path d="M74.7 67.9183C70.8 67.9183 67.62 60.4783 67.62 51.3283C67.62 42.1783 70.79 34.7383 74.7 34.7383C78.6 34.7383 81.78 42.1783 81.78 51.3283C81.78 60.4783 78.6 67.9183 74.7 67.9183ZM74.7 35.0683C70.98 35.0683 67.95 42.3683 67.95 51.3283C67.95 60.2883 70.98 67.5883 74.7 67.5883C78.42 67.5883 81.45 60.2883 81.45 51.3283C81.45 42.3683 78.42 35.0683 74.7 35.0683Z" fill="#50E6FF"/>
<path d="M74.7 47.4986C67.07 47.4986 61.1 45.3086 61.1 42.5186H61.42C61.42 45.0886 67.37 47.1786 74.69 47.1786C82.01 47.1786 87.97 45.0886 87.97 42.5186H88.29C88.3 45.3186 82.32 47.4986 74.7 47.4986Z" fill="#50E6FF"/>
<path d="M74.7 64.8986C67.07 64.8986 61.1 62.7886 61.1 60.0986H61.42C61.42 62.5686 67.37 64.5786 74.69 64.5786C82.01 64.5786 87.97 62.5686 87.97 60.0986H88.29C88.3 62.7886 82.32 64.8986 74.7 64.8986Z" fill="#50E6FF"/>
<path d="M91.2199 51.3284H91.0299C91.0299 47.5684 83.6999 44.5084 74.6999 44.5084C65.6899 44.5084 58.3699 47.5684 58.3699 51.3284H58.1799C58.1799 47.4684 65.5899 44.3184 74.6999 44.3184C83.8099 44.3284 91.2199 47.4684 91.2199 51.3284Z" fill="#50E6FF"/>
<path d="M88.3 42.5184H87.98C87.98 39.9084 82.06 37.7884 74.71 37.7884C67.35 37.7884 61.43 39.9084 61.43 42.5184L61.11 42.5284C61.11 39.8184 67.25 37.6084 74.71 37.6084C82.16 37.6084 88.3 39.8184 88.3 42.5184Z" fill="#50E6FF"/>
<path d="M88.3 60.0982H87.98C87.98 57.5882 82.06 55.5482 74.7 55.5482C67.34 55.5482 61.42 57.5982 61.42 60.1082H61.1C61.1 57.4982 67.24 55.3682 74.7 55.3682C82.16 55.3682 88.3 57.4882 88.3 60.0982Z" fill="#50E6FF"/>
<path d="M51.55 45.5885C51.55 44.8385 50.94 44.2285 50.19 44.2285H29.1C28.35 44.2285 27.74 44.8385 27.74 45.5885C27.74 46.3385 28.35 46.9485 29.1 46.9485H50.2C50.95 46.9385 51.55 46.3385 51.55 45.5885Z" fill="#50E6FF"/>
<path d="M32.83 45.5782C32.83 47.0682 34.04 48.2882 35.54 48.2882C37.04 48.2882 38.25 47.0782 38.25 45.5782C38.25 44.0882 37.04 42.8682 35.54 42.8682C34.04 42.8682 32.83 44.0882 32.83 45.5782Z" fill="#0D3868"/>
<path d="M51.55 52.4684C51.55 51.7184 50.94 51.1084 50.19 51.1084H29.1C28.35 51.1084 27.74 51.7184 27.74 52.4684C27.74 53.2184 28.35 53.8284 29.1 53.8284H50.2C50.95 53.8184 51.55 53.2184 51.55 52.4684Z" fill="#32B0E7"/>
<path d="M40.99 52.4678C40.99 53.9578 42.2 55.1778 43.7 55.1778C45.2 55.1778 46.41 53.9678 46.41 52.4678C46.41 50.9678 45.2 49.7578 43.7 49.7578C42.2 49.7578 40.99 50.9678 40.99 52.4678Z" fill="#0D3868"/>
<path d="M51.55 59.7477C51.55 58.9977 50.94 58.3877 50.19 58.3877H29.1C28.35 58.3877 27.74 58.9977 27.74 59.7477C27.74 60.4977 28.35 61.1077 29.1 61.1077H50.2C50.95 61.1077 51.55 60.5077 51.55 59.7477Z" fill="#185A97"/>
<path d="M32.92 59.7481C32.92 61.2381 34.13 62.4581 35.63 62.4581C37.12 62.4581 38.34 61.2481 38.34 59.7481C38.34 58.2481 37.13 57.0381 35.63 57.0381C34.14 57.0381 32.92 58.2581 32.92 59.7481Z" fill="#0D3868"/>
<defs>
<linearGradient id="paint0_linear" x1="49.83" y1="-13.3003" x2="53.812" y2="132.47" gradientUnits="userSpaceOnUse">
<stop stop-color="#00ABDE"/>
<stop offset="1" stop-color="#007ED8"/>
</linearGradient>
<linearGradient id="paint1_linear" x1="3.03322" y1="-20.1368" x2="98.5612" y2="120.745" gradientUnits="userSpaceOnUse">
<stop stop-color="#007ED8"/>
<stop offset="0.7065" stop-color="#002D4C"/>
</linearGradient>
<radialGradient id="paint2_radial" cx="0" cy="0" r="1" gradientUnits="userSpaceOnUse" gradientTransform="translate(69.6831 39.7166) scale(50.7498)">
<stop stop-color="#15548F"/>
<stop offset="0.4179" stop-color="#243A5E"/>
<stop offset="0.9677" stop-color="#1A2C45"/>
</radialGradient>
</defs>
</svg>
