<svg width="103" height="103" viewBox="0 0 103 103" fill="none" xmlns="https://www.w3.org/2000/svg">
<path d="M51.4385 98.0121C25.5885 98.0121 4.62854 77.0621 4.62854 51.2021C4.62854 25.3421 25.5885 4.39209 51.4385 4.39209C77.2885 4.39209 98.2485 25.3521 98.2485 51.2021C98.2485 77.0521 77.2885 98.0121 51.4385 98.0121Z" fill="url(#paint0_linear)"/>
<path fill-rule="evenodd" clip-rule="evenodd" d="M97.3385 51.202C97.3385 76.552 76.7885 97.102 51.4385 97.102C26.0885 97.102 5.53852 76.552 5.53852 51.202C5.53852 25.852 26.0885 5.30201 51.4385 5.30201C76.7885 5.30201 97.3385 25.852 97.3385 51.202ZM51.4385 1.56201C78.8585 1.56201 101.079 23.782 101.079 51.202C101.079 78.622 78.8485 100.842 51.4385 100.842C24.0185 100.842 1.79852 78.612 1.79852 51.202C1.79852 23.782 24.0185 1.56201 51.4385 1.56201Z" fill="#F2F1F0"/>
<path fill-rule="evenodd" clip-rule="evenodd" d="M94.5285 51.2021C94.5285 75.0021 75.2385 94.2921 51.4385 94.2921C27.6385 94.2921 8.34852 75.0021 8.34852 51.2021C8.34852 27.4021 27.6385 8.11207 51.4385 8.11207C75.2385 8.11207 94.5285 27.4021 94.5285 51.2021ZM51.4385 4.37207C77.2985 4.37207 98.2685 25.3421 98.2685 51.2021C98.2685 77.0621 77.2985 98.0321 51.4385 98.0321C25.5785 98.0321 4.60852 77.0621 4.60852 51.2021C4.60852 25.3421 25.5685 4.37207 51.4385 4.37207Z" fill="#0078D4"/>
<path opacity="0.15" d="M82.9685 30.8821V74.4621C82.9685 75.6721 81.9885 76.6621 80.7685 76.6621H21.5685C20.3585 76.6621 19.3685 75.6821 19.3685 74.4621V30.8821C19.3685 29.6721 20.3485 28.6821 21.5685 28.6821H80.7885C81.9885 28.6821 82.9685 29.6721 82.9685 30.8821Z" fill="#1F1D20"/>
<path d="M82.9685 30.262V73.842C82.9685 75.052 81.9885 76.042 80.7685 76.042H21.5685C20.3585 76.042 19.3685 75.062 19.3685 73.842V30.262C19.3685 29.052 20.3485 28.062 21.5685 28.062H80.7885C81.9885 28.062 82.9685 29.052 82.9685 30.262Z" fill="url(#paint1_linear)"/>
<path opacity="0.15" d="M80.8385 33.3519V72.0619C80.8385 73.1319 79.9185 74.0119 78.7885 74.0119H23.5585C22.4285 74.0119 21.5085 73.1419 21.5085 72.0619V33.3519C21.5085 32.2819 22.4285 31.4019 23.5585 31.4019H78.7985C79.9185 31.4119 80.8385 32.2719 80.8385 33.3519Z" fill="#1F1D20"/>
<path d="M80.8385 32.6922V71.4022C80.8385 72.4722 79.9185 73.3522 78.7885 73.3522H23.5585C22.4285 73.3522 21.5085 72.4822 21.5085 71.4022V32.6922C21.5085 31.6222 22.4285 30.7422 23.5585 30.7422H78.7985C79.9185 30.7522 80.8385 31.6222 80.8385 32.6922Z" fill="url(#paint2_linear)"/>
<path opacity="0.15" d="M48.3485 39.4824H40.8885C39.8885 39.4824 39.0785 40.2924 39.0785 41.2924V47.0224H34.4185C33.5485 47.0224 32.8485 47.7324 32.8485 48.5924V54.2524H28.9585C27.8285 54.2524 26.9085 55.1724 26.9085 56.3024V66.9524C26.9085 68.0824 27.8285 69.0024 28.9585 69.0024H32.8485H42.3485H48.3485C49.3485 69.0024 50.1585 68.1924 50.1585 67.1924V41.2924C50.1585 40.2924 49.3485 39.4824 48.3485 39.4824Z" fill="#1F1D20"/>
<path d="M67.9685 46.4324C69.4185 46.4324 70.5885 45.2624 70.5885 43.8124C70.5885 42.3624 69.4185 41.1924 67.9685 41.1924C66.5185 41.1924 65.3485 42.3624 65.3485 43.8124C65.3485 45.2624 66.5285 46.4324 67.9685 46.4324Z" fill="#50E6FF"/>
<path d="M65.3485 53.9024C66.4385 53.9024 67.3185 53.0224 67.3185 51.9324C67.3185 50.8424 66.4385 49.9624 65.3485 49.9624C64.2585 49.9624 63.3785 50.8424 63.3785 51.9324C63.3785 53.0224 64.2685 53.9024 65.3485 53.9024Z" fill="#0078D4"/>
<path d="M58.5085 60.5323C59.0485 60.5323 59.4885 60.0923 59.4885 59.5523C59.4885 59.0123 59.0485 58.5723 58.5085 58.5723C57.9685 58.5723 57.5285 59.0123 57.5285 59.5523C57.5285 60.0923 57.9685 60.5323 58.5085 60.5323Z" fill="#0078D4"/>
<path d="M61.8485 58.3622C62.5685 58.3622 63.1585 57.7722 63.1585 57.0522C63.1585 56.3322 62.5685 55.7422 61.8485 55.7422C61.1285 55.7422 60.5385 56.3322 60.5385 57.0522C60.5385 57.7822 61.1285 58.3622 61.8485 58.3622Z" fill="#0078D4"/>
<path d="M55.3686 61.8722C55.7286 61.8722 56.0286 61.5822 56.0286 61.2122C56.0286 60.8522 55.7386 60.5522 55.3686 60.5522C55.0086 60.5522 54.7086 60.8422 54.7086 61.2122C54.7186 61.5822 55.0086 61.8722 55.3686 61.8722Z" fill="#0078D4"/>
<path d="M52.4085 62.6525C52.7685 62.6525 53.0685 62.3625 53.0685 61.9925C53.0685 61.6325 52.7785 61.3325 52.4085 61.3325C52.0485 61.3325 51.7485 61.6225 51.7485 61.9925C51.7585 62.3625 52.0485 62.6525 52.4085 62.6525Z" fill="#0078D4"/>
<path opacity="0.15" d="M71.9085 41.8623C71.9085 54.1723 61.9285 64.1523 49.6185 64.1523V66.7723H74.5285V41.8623H71.9085Z" fill="#1F1D20"/>
<path d="M71.9085 41.1924C71.9085 53.5024 61.9285 63.4824 49.6185 63.4824V66.1024H74.5285V41.1924H71.9085Z" fill="#0078D4"/>
<path d="M48.3485 68.3923H39.0885V40.6723C39.0885 39.6723 39.8985 38.8623 40.8985 38.8623H48.3585C49.3585 38.8623 50.1685 39.6723 50.1685 40.6723V66.5823C50.1585 67.5823 49.3485 68.3923 48.3485 68.3923Z" fill="url(#paint3_linear)"/>
<path d="M42.3485 68.3921H32.8485V47.9821C32.8485 47.1121 33.5585 46.4121 34.4185 46.4121H42.3385C43.2085 46.4121 43.9085 47.1221 43.9085 47.9821V66.8121C43.9285 67.6821 43.2185 68.3921 42.3485 68.3921Z" fill="url(#paint4_linear)"/>
<path d="M35.9285 68.3921H28.9585C27.8285 68.3921 26.9085 67.4721 26.9085 66.3421V55.6921C26.9085 54.5621 27.8285 53.6421 28.9585 53.6421H35.9285C37.0585 53.6421 37.9785 54.5621 37.9785 55.6921V66.3421C37.9785 67.4721 37.0585 68.3921 35.9285 68.3921Z" fill="url(#paint5_linear)"/>
<path opacity="0.2" d="M74.6385 19.6621H49.6385V35.7721C49.6385 36.4521 50.1885 37.0021 50.8685 37.0021H53.4986V40.0621C53.4986 40.3421 53.8285 40.4721 54.0285 40.2821L57.3386 37.0021H73.3985C74.0785 37.0021 74.6286 36.4521 74.6286 35.7721V19.6621H74.6385Z" fill="#1F1D21"/>
<path d="M73.7985 18.8623H50.4785C50.0185 18.8623 49.6385 19.2423 49.6385 19.7023V35.3723C49.6385 35.8323 50.0185 36.2123 50.4785 36.2123H53.4986V39.2723C53.4986 39.5523 53.8285 39.6823 54.0285 39.4923L57.3386 36.2023H73.7985C74.2585 36.2023 74.6385 35.8223 74.6385 35.3623V19.7023C74.6385 19.2323 74.2585 18.8623 73.7985 18.8623Z" fill="#F2F1F0"/>
<path d="M74.6385 19.4821C74.6385 19.0221 74.2585 18.6421 73.7985 18.6421H50.4785C50.0185 18.6421 49.6385 19.0221 49.6385 19.4821V20.3421H74.6385V19.4821Z" fill="#50E6FF"/>
<path fill-rule="evenodd" clip-rule="evenodd" d="M54.4186 29.5121C55.4386 28.6721 58.8486 25.3921 60.0686 24.3521C59.9286 24.0721 61.2886 24.2621 61.0286 24.6121L64.8286 29.7521C64.9886 29.7121 64.8386 29.4921 65.1486 29.6921L69.9086 26.0721C69.7186 25.7621 70.9086 26.9521 70.5986 26.7621L65.8086 30.4021C65.9786 30.7021 63.5286 30.5621 63.9686 30.1921L60.2886 25.2221C60.0186 25.3521 61.0386 25.3521 60.6886 25.0921C59.2986 26.2821 55.8186 29.6221 54.7686 30.4721L54.4186 29.5121Z" fill="#0078D4"/>
<path d="M70.2086 27.9422C71.2248 27.9422 72.0486 27.1184 72.0486 26.1022C72.0486 25.086 71.2248 24.2622 70.2086 24.2622C69.1924 24.2622 68.3686 25.086 68.3686 26.1022C68.3686 27.1184 69.1924 27.9422 70.2086 27.9422Z" fill="#50E6FF"/>
<path d="M64.9486 32.0721C65.8267 32.0721 66.5386 31.3602 66.5386 30.4821C66.5386 29.604 65.8267 28.8921 64.9486 28.8921C64.0705 28.8921 63.3586 29.604 63.3586 30.4821C63.3586 31.3602 64.0705 32.0721 64.9486 32.0721Z" fill="#0078D4"/>
<path d="M60.3586 26.1922C61.0986 26.1922 61.6986 25.5923 61.6986 24.8522C61.6986 24.1121 61.0986 23.5122 60.3586 23.5122C59.6185 23.5122 59.0186 24.1121 59.0186 24.8522C59.0186 25.5923 59.6185 26.1922 60.3586 26.1922Z" fill="#0078D4"/>
<path d="M53.9686 31.6724C54.6589 31.6724 55.2186 31.1127 55.2186 30.4224C55.2186 29.732 54.6589 29.1724 53.9686 29.1724C53.2782 29.1724 52.7186 29.732 52.7186 30.4224C52.7186 31.1127 53.2782 31.6724 53.9686 31.6724Z" fill="#0078D4"/>
<defs>
<linearGradient id="paint0_linear" x1="49.6686" y1="-13.5879" x2="53.6506" y2="132.182" gradientUnits="userSpaceOnUse">
<stop stop-color="#00ABDE"/>
<stop offset="1" stop-color="#007ED8"/>
</linearGradient>
<linearGradient id="paint1_linear" x1="43.8619" y1="-1.65959" x2="58.5893" y2="106.546" gradientUnits="userSpaceOnUse">
<stop offset="0.0435" stop-color="white"/>
<stop offset="0.4857" stop-color="#4DC1EA"/>
<stop offset="0.8452" stop-color="#0078D4"/>
</linearGradient>
<linearGradient id="paint2_linear" x1="20.674" y1="13.8295" x2="191.676" y2="228.125" gradientUnits="userSpaceOnUse">
<stop offset="0.0435" stop-color="white"/>
<stop offset="0.4857" stop-color="#4DC1EA"/>
<stop offset="0.8452" stop-color="#0078D4"/>
</linearGradient>
<linearGradient id="paint3_linear" x1="44.4975" y1="41.569" x2="44.7331" y2="66.0638" gradientUnits="userSpaceOnUse">
<stop offset="0.00753769" stop-color="#E0A310"/>
<stop offset="1" stop-color="#CA810E"/>
</linearGradient>
<linearGradient id="paint4_linear" x1="38.091" y1="47.2617" x2="38.7975" y2="73.1695" gradientUnits="userSpaceOnUse">
<stop offset="0.00753769" stop-color="#F2CC40"/>
<stop offset="1" stop-color="#E7B116"/>
</linearGradient>
<linearGradient id="paint5_linear" x1="32.1842" y1="54.7729" x2="32.8908" y2="71.4952" gradientUnits="userSpaceOnUse">
<stop stop-color="#F8E17B"/>
<stop offset="0.5302" stop-color="#F6D856"/>
<stop offset="1" stop-color="#F6D856"/>
</linearGradient>
</defs>
</svg>
