<svg width="100" height="100" viewBox="0 0 100 100" fill="none" xmlns="http://www.w3.org/2000/svg">
<g clip-path="url(#clip0_1136_1344)">
<path d="M49.6401 96.4499C40.382 96.4499 31.3317 93.7045 23.6339 88.561C15.936 83.4174 9.93624 76.1067 6.3933 67.5533C2.85036 58.9999 1.92337 49.588 3.72954 40.5077C5.53571 31.4275 9.99394 23.0867 16.5404 16.5402C23.0869 9.99372 31.4277 5.5355 40.5079 3.72933C49.5882 1.92315 59.0001 2.85015 67.5535 6.39308C76.1069 9.93602 83.4176 15.9358 88.5612 23.6336C93.7047 31.3315 96.4501 40.3817 96.4501 49.6399C96.4505 55.7872 95.24 61.8744 92.8878 67.5538C90.5355 73.2332 87.0875 78.3937 82.7407 82.7405C78.3939 87.0873 73.2335 90.5353 67.554 92.8876C61.8746 95.2398 55.7874 96.4503 49.6401 96.4499V96.4499Z" fill="url(#paint0_linear_1136_1344)"/>
<path fill-rule="evenodd" clip-rule="evenodd" d="M95.54 49.6399C95.54 58.718 92.848 67.5923 87.8045 75.1406C82.7609 82.6888 75.5923 88.5719 67.2052 92.046C58.818 95.52 49.5891 96.429 40.6854 94.6579C31.7816 92.8869 23.603 88.5153 17.1838 82.0961C10.7646 75.6769 6.39302 67.4983 4.62196 58.5945C2.85089 49.6908 3.75987 40.4618 7.23393 32.0747C10.708 23.6876 16.5911 16.519 24.1393 11.4754C31.6875 6.43187 40.5618 3.73988 49.64 3.73988C55.6677 3.73986 61.6363 4.92708 67.2052 7.23377C72.774 9.54045 77.834 12.9214 82.0963 17.1836C86.3585 21.4458 89.7394 26.5058 92.0461 32.0747C94.3528 37.6435 95.54 43.6122 95.54 49.6399V49.6399ZM49.64 -0.000106449C59.4579 -0.000106449 69.0552 2.91123 77.2185 8.36574C85.3818 13.8203 91.7442 21.573 95.5014 30.6435C99.2585 39.714 100.242 49.695 98.3262 59.3242C96.4108 68.9534 91.6831 77.7984 84.7408 84.7407C77.7985 91.683 68.9535 96.4107 59.3243 98.3261C49.6951 100.241 39.7141 99.2584 30.6436 95.5013C21.5731 91.7441 13.8204 85.3816 8.36584 77.2184C2.91133 69.0551 -1.61629e-06 59.4577 3.61524e-07 49.6399C-0.000786426 43.1208 1.28265 36.6655 3.77702 30.6425C6.27138 24.6196 9.92781 19.147 14.5375 14.5374C19.1471 9.9277 24.6197 6.27127 30.6427 3.77691C36.6656 1.28254 43.121 -0.000894549 49.64 -0.000106449V-0.000106449Z" fill="#F2F1F0"/>
<path fill-rule="evenodd" clip-rule="evenodd" d="M92.7296 49.64C92.7296 58.1624 90.2024 66.4934 85.4676 73.5795C80.7328 80.6656 74.0031 86.1886 66.1294 89.45C58.2557 92.7113 49.5918 93.5647 41.2331 91.902C32.8745 90.2394 25.1966 86.1355 19.1703 80.1092C13.1441 74.083 9.04017 66.4051 7.37753 58.0464C5.7149 49.6878 6.56822 41.0238 9.8296 33.1502C13.091 25.2765 18.6139 18.5468 25.7 13.812C32.7862 9.07718 41.1172 6.55 49.6396 6.55C55.2983 6.54965 60.9017 7.66397 66.1298 9.82933C71.3579 11.9947 76.1082 15.1687 80.1096 19.17C84.1109 23.1713 87.2849 27.9217 89.4502 33.1498C91.6156 38.3778 92.7299 43.9812 92.7296 49.64ZM49.6396 2.81C58.9017 2.81 67.9558 5.55653 75.6569 10.7023C83.3581 15.848 89.3604 23.1619 92.9049 31.7189C96.4493 40.276 97.3767 49.6919 95.5697 58.7761C93.7628 67.8602 89.3027 76.2045 82.7534 82.7538C76.2041 89.3031 67.8598 93.7632 58.7757 95.5702C49.6915 97.3771 40.2756 96.4497 31.7185 92.9053C23.1614 89.3608 15.8476 83.3585 10.7018 75.6574C5.5561 67.9562 2.80957 58.9021 2.80957 49.64C2.81076 37.2203 7.74501 25.3096 16.5271 16.5275C25.3091 7.74544 37.2198 2.81119 49.6396 2.81V2.81Z" fill="#0078D4"/>
<path fill-rule="evenodd" clip-rule="evenodd" d="M92.7301 49.7835C92.7301 58.3059 90.2029 66.6369 85.4681 73.723C80.7333 80.8091 74.0036 86.3321 66.1299 89.5935C58.2562 92.8549 49.5923 93.7082 41.2336 92.0455C32.875 90.3829 25.1971 86.279 19.1708 80.2527C13.1446 74.2265 9.04066 66.5486 7.37802 58.1899C5.71538 49.8313 6.56871 41.1673 9.83009 33.2937C13.0915 25.42 18.6144 18.6903 25.7005 13.9555C32.7867 9.22069 41.1177 6.69351 49.6401 6.69351C55.2988 6.69316 60.9022 7.80748 66.1303 9.97284C71.3584 12.1382 76.1087 15.3122 80.1101 19.3135C84.1114 23.3149 87.2854 28.0652 89.4507 33.2933C91.6161 38.5213 92.7304 44.1248 92.7301 49.7835V49.7835ZM49.6401 2.95351C58.9022 2.95351 67.9563 5.70004 75.6574 10.8458C83.3586 15.9915 89.3609 23.3054 92.9053 31.8624C96.4498 40.4195 97.3772 49.8355 95.5702 58.9196C93.7633 68.0037 89.3032 76.348 82.7539 82.8973C76.2046 89.4466 67.8603 93.9067 58.7761 95.7137C49.692 97.5206 40.2761 96.5932 31.719 93.0488C23.1619 89.5043 15.8481 83.502 10.7023 75.8009C5.55659 68.0997 2.81006 59.0456 2.81006 49.7835C2.81124 37.3638 7.74548 25.4531 16.5276 16.671C25.3096 7.88892 37.2203 2.95467 49.64 2.95348L49.6401 2.95351Z" fill="#0078D4"/>
<path d="M75.7977 32.9661H23.4827C20.7846 32.9661 18.5974 35.1533 18.5974 37.8514V65.5607C18.5974 68.2587 20.7846 70.4459 23.4827 70.4459H75.7977C78.4957 70.4459 80.6829 68.2587 80.6829 65.5607V37.8514C80.6829 35.1533 78.4957 32.9661 75.7977 32.9661Z" fill="#F2F2F2"/>
<path d="M42.545 54.5314C42.8881 54.5314 43.2279 54.599 43.545 54.7303C43.862 54.8616 44.1501 55.0541 44.3927 55.2967C44.6354 55.5394 44.8279 55.8274 44.9592 56.1445C45.0905 56.4615 45.1581 56.8013 45.1581 57.1445V58.2116C45.1581 58.8779 44.9498 59.5274 44.5625 60.0695C42.7662 62.5831 39.8331 63.8283 35.8589 63.8283C31.8839 63.8283 28.9523 62.5826 27.1604 60.0676C26.7747 59.5263 26.5674 58.8781 26.5674 58.2134V57.1445C26.5674 56.8013 26.635 56.4615 26.7663 56.1445C26.8976 55.8274 27.0901 55.5394 27.3327 55.2967C27.5754 55.0541 27.8634 54.8616 28.1805 54.7303C28.4975 54.599 28.8373 54.5314 29.1805 54.5314H42.545ZM35.8589 40.5934C37.0079 40.5934 38.1312 40.9341 39.0866 41.5725C40.042 42.2109 40.7867 43.1182 41.2264 44.1798C41.6661 45.2414 41.7812 46.4096 41.557 47.5366C41.3329 48.6636 40.7795 49.6988 39.967 50.5113C39.1545 51.3238 38.1193 51.8771 36.9923 52.1013C35.8653 52.3255 34.6972 52.2104 33.6356 51.7707C32.574 51.331 31.6666 50.5863 31.0282 49.6309C30.3898 48.6755 30.0491 47.5522 30.0491 46.4031C30.0491 44.8623 30.6612 43.3846 31.7508 42.295C32.8403 41.2055 34.318 40.5934 35.8589 40.5934L35.8589 40.5934Z" fill="#0078D4"/>
<path d="M57.8335 50.3295H53.5778C52.9815 50.3295 52.498 50.8129 52.498 51.4092V62.2639C52.498 62.8602 52.9815 63.3436 53.5778 63.3436H57.8335C58.4298 63.3436 58.9132 62.8602 58.9132 62.2639V51.4092C58.9132 50.8129 58.4298 50.3295 57.8335 50.3295Z" fill="#9CEBFF"/>
<path d="M65.4964 40.247H61.2406C60.6443 40.247 60.1609 40.7304 60.1609 41.3267V62.2639C60.1609 62.8602 60.6443 63.3436 61.2406 63.3436H65.4964C66.0927 63.3436 66.5761 62.8602 66.5761 62.2639V41.3267C66.5761 40.7304 66.0927 40.247 65.4964 40.247Z" fill="#0078D4"/>
<path d="M73.1592 46.0568H68.9035C68.3071 46.0568 67.8237 46.5402 67.8237 47.1365V62.2639C67.8237 62.8602 68.3071 63.3436 68.9035 63.3436H73.1592C73.7555 63.3436 74.2389 62.8602 74.2389 62.2639V47.1365C74.2389 46.5402 73.7555 46.0568 73.1592 46.0568Z" fill="#1F56A3"/>
<path opacity="0.2" d="M37.4358 32.9661C38.1796 35.6306 39.7751 37.9785 41.9786 39.6511C44.1821 41.3237 46.8725 42.2291 49.6389 42.2291C52.4054 42.2291 55.0957 41.3237 57.2992 39.6511C59.5027 37.9785 61.0982 35.6306 61.8421 32.9661H37.4358Z" fill="#B3B3B3"/>
<path d="M49.6391 40.0654C55.4501 40.0654 60.1608 35.3547 60.1608 29.5438C60.1608 23.7328 55.4501 19.0221 49.6391 19.0221C43.8281 19.0221 39.1174 23.7328 39.1174 29.5438C39.1174 35.3547 43.8281 40.0654 49.6391 40.0654Z" fill="#F2F2F2"/>
<path d="M51.9364 34.0863L51.7477 34.9031C51.6775 35.2059 51.5126 35.4784 51.277 35.6809C51.0413 35.8835 50.7472 36.0057 50.4374 36.0296L50.325 36.0339H48.9544C48.6435 36.0339 48.3406 35.9346 48.09 35.7506C47.8394 35.5666 47.654 35.3074 47.5609 35.0107L47.5314 34.9021L47.343 34.0863H51.9364ZM49.64 23.0536C50.2579 23.0536 50.8699 23.1753 51.4408 23.4118C52.0117 23.6483 52.5304 23.9949 52.9674 24.4319C53.4044 24.8688 53.751 25.3876 53.9875 25.9585C54.2239 26.5294 54.3457 27.1413 54.3457 27.7593C54.3277 28.4815 54.1588 29.1919 53.8496 29.8448C53.5405 30.4978 53.098 31.0787 52.5508 31.5503C52.5279 31.5722 52.5119 31.6003 52.5048 31.6311L52.1622 33.1128H50.1268V28.7325C50.1262 28.6037 50.0747 28.4805 49.9834 28.3897C49.8922 28.2989 49.7687 28.2479 49.64 28.2479C49.5113 28.2479 49.3878 28.2989 49.2966 28.3897C49.2053 28.4805 49.1538 28.6037 49.1532 28.7325V33.1128H47.1178L46.7764 31.6312C46.7692 31.6003 46.7532 31.5722 46.7303 31.5503C46.1828 31.0789 45.7401 30.498 45.4307 29.845C45.1214 29.1921 44.9523 28.4816 44.9343 27.7593C44.9343 27.1413 45.056 26.5294 45.2925 25.9585C45.529 25.3876 45.8756 24.8688 46.3126 24.4319C46.7495 23.9949 47.2683 23.6483 47.8392 23.4118C48.4101 23.1753 49.022 23.0536 49.64 23.0536V23.0536ZM49.1532 26.1365V27.1101C49.1538 27.2388 49.2053 27.3621 49.2966 27.4529C49.3878 27.5437 49.5113 27.5947 49.64 27.5947C49.7687 27.5947 49.8922 27.5437 49.9834 27.4529C50.0747 27.3621 50.1262 27.2388 50.1268 27.1101V26.1365C50.1262 26.0078 50.0747 25.8845 49.9834 25.7937C49.8922 25.7029 49.7687 25.6519 49.64 25.6519C49.5113 25.6519 49.3878 25.7029 49.2966 25.7937C49.2053 25.8845 49.1538 26.0078 49.1532 26.1365V26.1365ZM52.4182 27.0876C52.373 27.0424 52.3193 27.0065 52.2603 26.982C52.2012 26.9576 52.1379 26.945 52.074 26.945C52.0101 26.945 51.9468 26.9576 51.8877 26.982C51.8287 27.0065 51.775 27.0424 51.7298 27.0876L51.0413 27.776C50.9961 27.8212 50.9603 27.8749 50.9358 27.9339C50.9114 27.993 50.8988 28.0563 50.8988 28.1202C50.8988 28.1842 50.9114 28.2475 50.9358 28.3065C50.9603 28.3656 50.9962 28.4193 51.0414 28.4645C51.0866 28.5097 51.1402 28.5455 51.1993 28.57C51.2584 28.5944 51.3217 28.607 51.3856 28.607C51.4495 28.607 51.5128 28.5944 51.5719 28.57C51.6309 28.5455 51.6846 28.5096 51.7298 28.4644L52.4182 27.776C52.5095 27.6847 52.5608 27.5609 52.5608 27.4318C52.5607 27.3027 52.5095 27.1789 52.4182 27.0876H52.4182ZM47.5503 27.0876C47.459 26.9963 47.3352 26.945 47.2061 26.945C47.077 26.945 46.9531 26.9963 46.8618 27.0876C46.7706 27.1789 46.7193 27.3027 46.7193 27.4318C46.7193 27.5609 46.7706 27.6847 46.8618 27.776L47.5503 28.4644C47.5955 28.5096 47.6492 28.5455 47.7082 28.57C47.7673 28.5944 47.8306 28.607 47.8945 28.607C47.9584 28.607 48.0217 28.5944 48.0808 28.57C48.1399 28.5455 48.1935 28.5096 48.2387 28.4644C48.2839 28.4192 48.3198 28.3656 48.3442 28.3065C48.3687 28.2475 48.3813 28.1842 48.3813 28.1202C48.3813 28.0563 48.3687 27.993 48.3442 27.9339C48.3198 27.8749 48.2839 27.8212 48.2387 27.776L47.5503 27.0876Z" fill="#0078D4"/>
</g>
<defs>
<linearGradient id="paint0_linear_1136_1344" x1="47.8698" y1="-15.1532" x2="51.8525" y2="130.615" gradientUnits="userSpaceOnUse">
<stop stop-color="#00ABDE"/>
<stop offset="1" stop-color="#007ED8"/>
</linearGradient>
<clipPath id="clip0_1136_1344">
<rect width="99.2799" height="99.28" fill="white"/>
</clipPath>
</defs>
</svg>
