<svg width="103" height="102" viewBox="0 0 103 102" fill="none" xmlns="http://www.w3.org/2000/svg">
<path d="M51.4224 97.8094C25.5724 97.8094 4.61237 76.8595 4.61237 50.9995C4.61237 25.1395 25.5724 4.18945 51.4224 4.18945C77.2724 4.18945 98.2324 25.1495 98.2324 50.9995C98.2324 76.8495 77.2724 97.8094 51.4224 97.8094Z" fill="url(#paint0_linear)"/>
<path fill-rule="evenodd" clip-rule="evenodd" d="M97.3223 50.9994C97.3223 76.3494 76.7723 96.8994 51.4223 96.8994C26.0723 96.8994 5.52235 76.3494 5.52235 50.9994C5.52235 25.6494 26.0723 5.09937 51.4223 5.09937C76.7723 5.09937 97.3223 25.6494 97.3223 50.9994ZM51.4223 1.35938C78.8423 1.35938 101.062 23.5794 101.062 50.9994C101.062 78.4194 78.8323 100.639 51.4223 100.639C24.0023 100.639 1.78235 78.4094 1.78235 50.9994C1.78235 23.5794 24.0023 1.35938 51.4223 1.35938Z" fill="#F2F1F0"/>
<path fill-rule="evenodd" clip-rule="evenodd" d="M94.5123 50.9994C94.5123 74.7994 75.2223 94.0894 51.4223 94.0894C27.6223 94.0894 8.33235 74.7994 8.33235 50.9994C8.33235 27.1994 27.6223 7.90943 51.4223 7.90943C75.2223 7.90943 94.5123 27.1994 94.5123 50.9994ZM51.4223 4.16943C77.2823 4.16943 98.2523 25.1394 98.2523 50.9994C98.2523 76.8594 77.2823 97.8294 51.4223 97.8294C25.5623 97.8294 4.59235 76.8594 4.59235 50.9994C4.59235 25.1394 25.5523 4.16943 51.4223 4.16943Z" fill="#0078D4"/>
<path opacity="0.15" d="M29.0724 74.0597H77.4024V24.4097H29.0724V74.0597Z" fill="#1F1D20"/>
<path d="M29.0724 71.8997H77.4024V22.2397H29.0724V71.8997Z" fill="#D5F9FD"/>
<path d="M29.0724 26.5696H77.3824V21.1396H29.0724V26.5696Z" fill="#50E6FF"/>
<path d="M33.0724 25.2994C33.8024 25.2994 34.3924 24.7094 34.3924 23.9794C34.3924 23.2494 33.8024 22.6494 33.0724 22.6494C32.3424 22.6494 31.7524 23.2394 31.7524 23.9694C31.7524 24.6994 32.3424 25.2994 33.0724 25.2994Z" fill="#45CAF2"/>
<path d="M27.6024 78.3993C33.4345 78.3993 38.1624 73.6714 38.1624 67.8393C38.1624 62.0072 33.4345 57.2793 27.6024 57.2793C21.7702 57.2793 17.0424 62.0072 17.0424 67.8393C17.0424 73.6714 21.7702 78.3993 27.6024 78.3993Z" fill="url(#paint1_linear)"/>
<path d="M47.5023 85.0792L36.9923 74.5692C38.5223 72.5892 39.4223 70.1092 39.4223 67.4192C39.4223 60.9192 34.1523 55.6592 27.6523 55.6592C21.1623 55.6592 15.8923 60.9192 15.8923 67.4192C15.8923 73.9192 21.1523 79.1792 27.6523 79.1792C30.2623 79.1792 32.6623 78.3292 34.6223 76.8992L45.1523 87.4292C45.1523 87.4292 46.0723 87.7892 47.0423 86.7692C48.0023 85.7492 47.5023 85.0792 47.5023 85.0792ZM17.6423 67.4592C17.6423 61.9492 22.1123 57.4792 27.6223 57.4792C33.1323 57.4792 37.6023 61.9492 37.6023 67.4592C37.6023 72.9692 33.1223 77.4392 27.6123 77.4392C22.1023 77.4392 17.6423 72.9692 17.6423 67.4592Z" fill="url(#paint2_linear)"/>
<path d="M24.9323 68.7192H22.4923V73.1992H24.9323V68.7192Z" fill="#C3F1FF"/>
<path d="M28.6523 65.8291H25.9623V73.1991H28.6523V65.8291Z" fill="#45CAF2"/>
<path d="M32.8823 62.8091H29.7823V73.1991H32.8823V62.8091Z" fill="#50E6FF"/>
<path d="M57.6623 58.0391C57.6523 58.0391 57.6523 58.0291 57.6623 58.0391V58.0391Z" fill="#F2F1F0"/>
<path d="M57.6523 58.0294C57.6023 57.9894 57.5223 57.9194 57.5223 57.9194C57.5623 57.9794 57.6023 58.0094 57.6523 58.0294Z" fill="#F2F1F0"/>
<path d="M57.6624 58.0391C57.7024 58.0791 57.6924 58.0691 57.6624 58.0391V58.0391Z" fill="#F2F1F0"/>
<path d="M48.9324 40.5693C48.9824 40.6093 49.0624 40.6793 49.0624 40.6793C49.0324 40.6293 48.9824 40.5993 48.9324 40.5693Z" fill="#F2F1F0"/>
<path d="M48.9324 40.5694C48.8924 40.5294 48.9024 40.5394 48.9324 40.5694V40.5694Z" fill="#F2F1F0"/>
<path d="M63.2624 45.1494C63.2624 45.1594 63.2524 45.1594 63.2624 45.1494V45.1494Z" fill="#F2F1F0"/>
<g opacity="0.15">
<path opacity="0.15" d="M56.3824 64.9194C62.5624 63.6394 67.3624 58.6094 68.3324 52.3894C69.2724 46.4094 66.5724 40.4394 61.4524 37.1994C61.3424 37.1294 61.3224 37.0194 61.3224 36.9694C61.3224 36.9194 61.3224 36.7994 61.4324 36.6994L62.0624 36.1694C62.5624 35.7494 63.3024 35.7394 63.8324 36.1394C68.9524 40.0194 71.5224 46.3894 70.5324 52.7394C69.4124 59.9094 63.8724 65.6794 56.7424 67.1094L56.0524 67.2494L56.5224 69.8394C56.5524 70.0194 56.3824 70.1694 56.2124 70.1094L49.5624 67.7694C49.2824 67.6694 49.2224 67.3194 49.4524 67.1294L54.8724 62.6094C55.0124 62.4894 55.2324 62.5694 55.2624 62.7494L55.6724 65.0794L56.3824 64.9194Z" fill="#1F1D20"/>
<path opacity="0.15" d="M52.7924 37.6691C52.6524 37.7891 52.4424 37.7091 52.4124 37.5291L51.9224 34.8991L51.2524 34.9891C44.6524 35.8891 39.3224 41.1191 38.2924 47.6991C37.2624 54.2891 40.7524 60.8991 46.7724 63.7591C46.9124 63.8291 46.9424 63.9391 46.9524 63.9991C46.9524 64.0291 46.9624 64.0591 46.9524 64.0891C46.9424 64.1491 46.9124 64.2191 46.8424 64.2791L46.0924 64.9091C45.6324 65.2991 44.9724 65.3391 44.4424 65.0191C38.2024 61.3191 34.9224 54.2691 36.1424 47.0991C37.4224 39.5591 43.6424 33.8191 51.2024 32.7191L51.5224 32.6691L51.1024 30.3991C51.0724 30.2191 51.2424 30.0691 51.4224 30.1391L58.1624 32.5491C58.4424 32.6491 58.5024 32.9991 58.2724 33.1991L52.7924 37.6691Z" fill="#1F1D20"/>
</g>
<path d="M56.1324 64.4692C62.3124 63.1892 67.1124 58.1592 68.0824 51.9392C69.0224 45.9592 66.3224 39.9892 61.2024 36.7492C61.0924 36.6792 61.0724 36.5692 61.0724 36.5192C61.0724 36.4692 61.0724 36.3492 61.1824 36.2492L61.8124 35.7192C62.3124 35.2992 63.0524 35.2892 63.5824 35.6892C68.7024 39.5692 71.2724 45.9292 70.2824 52.2792C69.1624 59.4492 63.6224 65.2192 56.4924 66.6492L55.8024 66.7892L56.2724 69.3792C56.3024 69.5592 56.1324 69.7092 55.9624 69.6492L49.3224 67.3092C49.0424 67.2092 48.9824 66.8592 49.2124 66.6692L54.6324 62.1492C54.7724 62.0292 54.9924 62.1092 55.0224 62.2892L55.4224 64.6292L56.1324 64.4692Z" fill="#50E6FF"/>
<path d="M52.5424 37.2192C52.4024 37.3392 52.1924 37.2592 52.1624 37.0792L51.6724 34.4492L51.0024 34.5392C44.4024 35.4392 39.0724 40.6692 38.0424 47.2492C37.0124 53.8392 40.5024 60.4492 46.5224 63.3092C46.6624 63.3792 46.6924 63.4892 46.7024 63.5492C46.7024 63.5792 46.7124 63.6092 46.7024 63.6392C46.6924 63.6992 46.6624 63.7692 46.5924 63.8292L45.8424 64.4592C45.3824 64.8492 44.7224 64.8892 44.1924 64.5692C37.9524 60.8692 34.6724 53.8192 35.8924 46.6492C37.1724 39.1192 43.3924 33.3792 50.9524 32.2792L51.2724 32.2292L50.8524 29.9592C50.8224 29.7792 50.9924 29.6292 51.1724 29.6992L57.9124 32.0992C58.1924 32.1992 58.2524 32.5492 58.0224 32.7492L52.5424 37.2192Z" fill="#50E6FF"/>
<path d="M63.9324 53.1888C63.6624 50.7388 61.5624 48.8188 59.0224 48.8188C56.5024 48.8188 54.4224 50.7088 54.1124 53.1288C54.0724 53.2888 54.0724 53.4788 54.0724 53.6488C54.1424 54.3388 54.6224 55.0088 55.5224 55.5388C57.4524 56.6488 60.6024 56.6488 62.5124 55.5388C63.4124 55.0088 63.8824 54.3488 63.9424 53.6488C63.9724 53.5088 63.9524 53.3388 63.9324 53.1888Z" fill="url(#paint3_linear)"/>
<path d="M59.0224 48.109C60.6624 48.109 61.9924 46.789 61.9924 45.149C62.0024 43.509 60.6624 42.189 59.0224 42.189C57.3824 42.189 56.0524 43.509 56.0524 45.149C56.0424 46.789 57.3824 48.109 59.0224 48.109Z" fill="url(#paint4_linear)"/>
<path d="M52.6423 53.1888C52.3723 50.7388 50.2723 48.8188 47.7323 48.8188C45.2123 48.8188 43.1323 50.7088 42.8223 53.1288C42.7823 53.2888 42.7823 53.4788 42.7823 53.6488C42.8523 54.3388 43.3323 55.0088 44.2323 55.5388C46.1623 56.6488 49.3123 56.6488 51.2223 55.5388C52.1223 55.0088 52.5923 54.3488 52.6523 53.6488C52.6823 53.5088 52.6623 53.3388 52.6423 53.1888Z" fill="url(#paint5_linear)"/>
<path d="M47.7223 48.109C49.3623 48.109 50.6923 46.789 50.6923 45.149C50.7023 43.509 49.3623 42.189 47.7223 42.189C46.0823 42.189 44.7523 43.509 44.7523 45.149C44.7523 46.789 46.0923 48.109 47.7223 48.109Z" fill="url(#paint6_linear)"/>
<defs>
<linearGradient id="paint0_linear" x1="49.6524" y1="-13.7935" x2="53.6352" y2="131.975" gradientUnits="userSpaceOnUse">
<stop stop-color="#00ABDE"/>
<stop offset="1" stop-color="#007ED8"/>
</linearGradient>
<linearGradient id="paint1_linear" x1="18.0998" y1="58.6781" x2="49.9896" y2="89.434" gradientUnits="userSpaceOnUse">
<stop stop-color="#00ABDE"/>
<stop offset="1" stop-color="#007ED8"/>
</linearGradient>
<linearGradient id="paint2_linear" x1="13.7629" y1="41.5727" x2="41.259" y2="92.738" gradientUnits="userSpaceOnUse">
<stop stop-color="#007ED8"/>
<stop offset="0.7065" stop-color="#002D4C"/>
</linearGradient>
<linearGradient id="paint3_linear" x1="59.0786" y1="34.4236" x2="58.9695" y2="64.3333" gradientUnits="userSpaceOnUse">
<stop stop-color="#007ED8"/>
<stop offset="0.7065" stop-color="#002D4C"/>
</linearGradient>
<linearGradient id="paint4_linear" x1="59.0852" y1="30.9101" x2="58.9736" y2="54.3613" gradientUnits="userSpaceOnUse">
<stop stop-color="#007ED8"/>
<stop offset="0.7065" stop-color="#002D4C"/>
</linearGradient>
<linearGradient id="paint5_linear" x1="47.7878" y1="34.4236" x2="47.6786" y2="64.3333" gradientUnits="userSpaceOnUse">
<stop stop-color="#007ED8"/>
<stop offset="0.7065" stop-color="#002D4C"/>
</linearGradient>
<linearGradient id="paint6_linear" x1="47.7943" y1="30.9101" x2="47.6827" y2="54.3613" gradientUnits="userSpaceOnUse">
<stop stop-color="#007ED8"/>
<stop offset="0.7065" stop-color="#002D4C"/>
</linearGradient>
</defs>
</svg>
