<svg width="160" height="188" viewBox="0 0 160 188" fill="none" xmlns="http://www.w3.org/2000/svg">
<g clip-path="url(#clip0_1102_291)">
<path d="M80.0334 188C83.1147 187.994 86.1351 187.141 88.7638 185.534L150.739 147.874C153.52 146.11 155.804 143.665 157.375 140.771C158.945 137.876 159.749 134.628 159.711 131.336V56.6207C159.747 53.3283 158.942 50.0812 157.372 47.1871C155.802 44.2929 153.519 41.8476 150.739 40.0829L88.7638 2.4228C86.1303 0.837605 83.1147 0 80.041 0C76.9672 0 73.9516 0.837605 71.3182 2.4228L9.34307 40.098C6.55997 41.8604 4.27342 44.3048 2.70046 47.1991C1.12749 50.0935 0.32029 53.3418 0.355473 56.6358V131.336C0.33694 134.119 0.911657 136.874 2.04135 139.418C3.17104 141.962 4.82977 144.236 6.90707 146.089V146.115L71.3182 185.549C73.9438 187.149 76.9586 187.996 80.0334 188V188ZM80.6812 6.95218C82.6331 6.95218 85.1103 8.1651 86.8201 9.20912L147.577 46.4034C151.329 48.6881 153.445 55.2842 153.445 60.0352L152.813 131.336C152.813 136.087 149.614 140.355 145.861 142.64L85.4659 179.021C82.0313 181.109 79.2409 181.109 75.8062 179.021L14.5982 142.549C10.8458 140.265 7.82738 136.072 7.82738 131.336V57.688C7.85989 55.3228 8.46888 53.0013 9.60155 50.9247C10.7342 48.8482 12.3563 47.0792 14.3273 45.7714L74.9035 9.20912C76.6132 8.1651 78.7294 6.95218 80.6812 6.95218Z" fill="#F2F1F0"/>
<path fill-rule="evenodd" clip-rule="evenodd" d="M87.9319 10.5328C85.561 9.05928 82.8252 8.27838 80.0337 8.27838C77.2422 8.27838 74.5064 9.05928 72.1355 10.5328L16.0008 44.8642C13.4748 46.4759 11.4025 48.7062 9.98047 51.3437C8.55847 53.9812 7.83398 56.9382 7.87573 59.9343V128.038C7.83581 131.033 8.56109 133.99 9.98292 136.627C11.4048 139.264 13.4761 141.495 16.0008 143.108L72.1355 177.439C74.5063 178.912 77.2422 179.694 80.0337 179.694C82.8253 179.694 85.5612 178.912 87.9319 177.439L144.066 143.108C146.591 141.495 148.663 139.264 150.085 136.627C151.507 133.99 152.232 131.033 152.192 128.038V59.9343C152.23 56.9388 151.504 53.983 150.082 51.3461C148.66 48.7092 146.59 46.4784 144.066 44.8642L87.9319 10.5328Z" fill="url(#paint0_linear_1102_291)"/>
<path fill-rule="evenodd" clip-rule="evenodd" d="M80.0338 9.75432C81.717 9.75432 83.5997 10.62 85.6665 11.8781L144.132 47.4205C146.024 48.6339 147.573 50.3108 148.634 52.2919C149.694 54.2729 150.231 56.4922 150.192 58.739V129.218C150.231 131.464 149.694 133.684 148.634 135.664C147.573 137.645 146.024 139.322 144.132 140.536L85.6675 176.078L85.6665 176.079C83.9963 177.218 82.0512 177.889 80.0338 178.022C78.0163 177.889 76.0713 177.218 74.4011 176.079L74.4001 176.078L15.9378 140.538L15.9356 140.537C14.1473 139.573 12.6222 138.186 11.4938 136.497C10.5169 134.894 9.87578 132.679 9.87578 129.218V58.739C9.83704 56.4923 10.3734 54.273 11.434 52.292C12.4945 50.311 14.044 48.6341 15.9352 47.4206L74.392 11.8835L74.3961 11.8811C76.4799 10.6281 78.3401 9.75432 80.0338 9.75432ZM87.7463 8.46132L146.21 44.0026C148.689 45.5727 150.723 47.7514 152.121 50.3311C153.518 52.9109 154.231 55.8055 154.192 58.7391V129.218C154.231 132.151 153.518 135.046 152.121 137.626C150.723 140.205 148.688 142.384 146.21 143.955L87.7453 179.496C85.4511 181.021 82.7857 181.894 80.0338 182.022C77.2819 181.894 74.6164 181.021 72.3222 179.496H72.3213L13.8575 143.954L13.855 143.953C11.5197 142.66 9.53644 140.814 8.07828 138.579C6.4837 135.725 5.72068 132.482 5.87578 129.218V58.739C5.83672 55.8054 6.54983 52.9107 7.94712 50.331C9.34441 47.7512 11.3793 45.5724 13.8577 44.0024L72.3222 8.46067L72.3304 8.45579C74.421 7.19838 77.1289 5.75433 80.0338 5.75433C82.92 5.75433 85.6371 7.17741 87.7463 8.46127V8.46132Z" fill="#0078D4"/>
<g opacity="0.2">
<path d="M139.965 132.026L80.4154 166.633L20.4764 132.027L80.0264 97.42L139.965 132.026Z" fill="#003067"/>
</g>
<path d="M140.956 120.649L80.2334 155.937L19.1224 120.654L79.8444 85.366L140.956 120.649Z" fill="#1B93EB"/>
<path d="M140.956 120.649L140.944 124.755L80.2224 160.043L80.2334 155.937L140.956 120.649Z" fill="#1F56A3"/>
<path d="M80.2335 155.937L80.2225 160.043L19.1105 124.76L19.1225 120.654L80.2335 155.937Z" fill="#0078D4"/>
<path d="M84.5164 68.833V92.82L63.6744 80.788V56.8L84.5164 68.833Z" fill="url(#paint1_linear_1102_291)"/>
<path d="M84.5165 68.833V92.82L105.358 80.788V56.8L84.5165 68.833Z" fill="url(#paint2_linear_1102_291)"/>
<path d="M63.6744 56.8L84.5164 44.765L105.358 56.8L84.5164 68.833L63.6744 56.8Z" fill="url(#paint3_linear_1102_291)"/>
<path d="M63.6745 104.813V128.799L42.8325 116.767V92.779L63.6745 104.813Z" fill="url(#paint4_linear_1102_291)"/>
<path d="M63.6744 104.813V128.799L84.5164 116.767V92.779L63.6744 104.813Z" fill="url(#paint5_linear_1102_291)"/>
<path d="M42.8325 92.779L63.6745 80.744L84.5165 92.779L63.6745 104.813L42.8325 92.779Z" fill="url(#paint6_linear_1102_291)"/>
<path d="M105.358 104.813V128.799L84.5165 116.767V92.779L105.358 104.813Z" fill="url(#paint7_linear_1102_291)"/>
<path d="M105.359 104.813V128.799L126.202 116.767V92.779L105.359 104.813Z" fill="url(#paint8_linear_1102_291)"/>
<path d="M84.5165 92.779L105.358 80.744L126.201 92.779L105.358 104.813L84.5165 92.779Z" fill="url(#paint9_linear_1102_291)"/>
<path opacity="0.3" d="M87.706 134.066C91.3203 134.066 94.2503 132.646 94.2503 130.895C94.2503 129.144 91.3203 127.724 87.706 127.724C84.0917 127.724 81.1617 129.144 81.1617 130.895C81.1617 132.646 84.0917 134.066 87.706 134.066Z" fill="#003067"/>
<path d="M90.0013 126.856C90.0013 128.085 89.6368 129.287 88.9539 130.309C88.2709 131.331 87.3003 132.128 86.1646 132.598C85.029 133.069 83.7793 133.192 82.5737 132.952C81.3681 132.712 80.2607 132.12 79.3915 131.251C78.5223 130.382 77.9304 129.274 77.6906 128.069C77.4508 126.863 77.5739 125.614 78.0443 124.478C78.5147 123.342 79.3113 122.372 80.3333 121.689C81.3554 121.006 82.557 120.641 83.7862 120.641C85.4346 120.641 87.0154 121.296 88.1809 122.462C89.3465 123.627 90.0013 125.208 90.0013 126.856V126.856Z" fill="url(#paint10_radial_1102_291)"/>
<path fill-rule="evenodd" clip-rule="evenodd" d="M88.1139 122.948L88.1584 122.946C88.137 122.924 88.1215 122.922 88.1139 122.948Z" fill="#7CB65A"/>
<path d="M93.6332 122.029C93.6004 122.086 93.5567 122.135 93.5047 122.175C93.4526 122.215 93.3932 122.245 93.3298 122.262C93.2664 122.279 93.2003 122.283 93.1352 122.274C93.0701 122.266 93.0074 122.245 92.9506 122.212L89.475 120.205C89.3602 120.139 89.2764 120.03 89.2421 119.902C89.2078 119.774 89.2258 119.637 89.2921 119.522C89.3584 119.408 89.4675 119.324 89.5956 119.289C89.7237 119.255 89.8601 119.273 89.975 119.339L93.4506 121.346C93.5075 121.378 93.5573 121.422 93.5973 121.474C93.6373 121.526 93.6666 121.586 93.6836 121.649C93.7006 121.713 93.7048 121.779 93.6962 121.844C93.6875 121.909 93.6661 121.972 93.6332 122.029V122.029ZM100.402 125.358L96.9262 123.352C96.8113 123.286 96.6748 123.268 96.5468 123.302C96.4187 123.336 96.3095 123.42 96.2433 123.535C96.177 123.65 96.159 123.786 96.1933 123.914C96.2276 124.043 96.3114 124.152 96.4262 124.218L99.9017 126.224C100.017 126.291 100.153 126.309 100.281 126.274C100.409 126.24 100.518 126.156 100.585 126.041C100.651 125.926 100.669 125.79 100.635 125.662C100.6 125.534 100.517 125.425 100.402 125.358ZM104.859 118.806V122.803C104.859 122.936 104.911 123.063 105.005 123.157C105.099 123.25 105.226 123.303 105.359 123.303C105.491 123.303 105.619 123.25 105.712 123.157C105.806 123.063 105.859 122.936 105.859 122.803V118.803C105.859 118.67 105.806 118.543 105.712 118.45C105.619 118.356 105.491 118.303 105.359 118.303C105.226 118.303 105.099 118.356 105.005 118.45C104.911 118.543 104.859 118.67 104.859 118.803V118.806ZM106.841 127.365L105.859 127.932V126.798C105.859 126.665 105.806 126.538 105.712 126.444C105.619 126.35 105.491 126.298 105.359 126.298C105.226 126.298 105.099 126.35 105.005 126.444C104.911 126.538 104.859 126.665 104.859 126.798V127.932L103.876 127.365C103.761 127.298 103.625 127.28 103.497 127.315C103.369 127.349 103.26 127.433 103.193 127.548C103.127 127.663 103.109 127.799 103.143 127.927C103.178 128.055 103.262 128.164 103.376 128.231L104.361 128.799L103.376 129.368C103.262 129.434 103.178 129.543 103.143 129.671C103.109 129.799 103.127 129.936 103.193 130.051C103.26 130.165 103.369 130.249 103.497 130.284C103.625 130.318 103.761 130.3 103.876 130.234L105.609 129.234L105.616 129.227L107.341 128.231C107.456 128.165 107.54 128.055 107.574 127.927C107.608 127.799 107.59 127.663 107.524 127.548C107.458 127.433 107.349 127.349 107.221 127.315C107.092 127.281 106.956 127.298 106.841 127.365V127.365ZM120.743 119.339L117.268 121.345C117.153 121.411 117.069 121.521 117.035 121.649C117.001 121.777 117.018 121.913 117.085 122.028C117.151 122.143 117.26 122.227 117.388 122.261C117.517 122.296 117.653 122.278 117.768 122.211L121.243 120.205C121.358 120.139 121.442 120.029 121.476 119.901C121.511 119.773 121.493 119.637 121.426 119.522C121.36 119.407 121.251 119.323 121.123 119.289C120.995 119.255 120.858 119.272 120.743 119.339V119.339ZM113.792 123.352L110.317 125.358C110.202 125.425 110.118 125.534 110.084 125.662C110.05 125.79 110.068 125.926 110.134 126.041C110.2 126.156 110.309 126.24 110.437 126.274C110.565 126.309 110.702 126.291 110.817 126.224L114.292 124.218C114.407 124.152 114.491 124.043 114.525 123.914C114.559 123.786 114.541 123.65 114.475 123.535C114.409 123.42 114.3 123.336 114.172 123.302C114.044 123.268 113.907 123.286 113.792 123.352ZM126.201 114.265C126.135 114.265 126.07 114.278 126.009 114.303C125.948 114.329 125.893 114.365 125.847 114.412C125.8 114.458 125.764 114.513 125.739 114.574C125.713 114.635 125.7 114.7 125.701 114.765V116.477L124.219 117.332C124.104 117.399 124.021 117.508 123.986 117.636C123.952 117.764 123.97 117.901 124.036 118.015C124.102 118.13 124.212 118.214 124.34 118.248C124.468 118.283 124.604 118.265 124.719 118.199L126.451 117.199C126.526 117.155 126.59 117.091 126.633 117.015C126.677 116.939 126.7 116.853 126.701 116.765V114.765C126.701 114.7 126.688 114.635 126.663 114.574C126.637 114.513 126.601 114.458 126.554 114.412C126.508 114.365 126.453 114.329 126.392 114.303C126.331 114.278 126.266 114.265 126.201 114.265H126.201ZM126.201 98.2752C126.135 98.2752 126.07 98.2881 126.009 98.3132C125.948 98.3383 125.893 98.3752 125.847 98.4216C125.8 98.468 125.764 98.5232 125.739 98.5839C125.713 98.6445 125.7 98.7096 125.701 98.7752V102.773C125.701 102.905 125.753 103.033 125.847 103.126C125.941 103.22 126.068 103.273 126.201 103.273C126.333 103.273 126.46 103.22 126.554 103.126C126.648 103.033 126.701 102.905 126.701 102.773V98.7752C126.701 98.7096 126.688 98.6445 126.663 98.5839C126.637 98.5232 126.601 98.4681 126.554 98.4216C126.508 98.3752 126.453 98.3383 126.392 98.3132C126.331 98.2881 126.266 98.2752 126.201 98.2752H126.201ZM126.201 106.27C126.135 106.27 126.07 106.283 126.009 106.308C125.948 106.333 125.893 106.37 125.847 106.417C125.8 106.463 125.764 106.518 125.739 106.579C125.713 106.64 125.7 106.705 125.701 106.77V110.768C125.701 110.901 125.753 111.028 125.847 111.121C125.941 111.215 126.068 111.268 126.201 111.268C126.333 111.268 126.46 111.215 126.554 111.121C126.648 111.028 126.701 110.901 126.701 110.768V106.77C126.701 106.705 126.688 106.64 126.663 106.579C126.637 106.518 126.601 106.463 126.554 106.417C126.508 106.37 126.453 106.333 126.392 106.308C126.331 106.283 126.266 106.27 126.201 106.27H126.201ZM114.292 85.3241L110.817 83.3167C110.702 83.2504 110.565 83.2325 110.437 83.2668C110.309 83.3012 110.2 83.385 110.134 83.4998C110.067 83.6147 110.049 83.7512 110.084 83.8793C110.118 84.0074 110.202 84.1167 110.317 84.183L113.792 86.1903C113.907 86.2565 114.044 86.2744 114.172 86.24C114.3 86.2057 114.409 86.1219 114.475 86.007C114.541 85.8922 114.559 85.7558 114.525 85.6277C114.491 85.4996 114.407 85.3904 114.292 85.3241V85.3241ZM121.243 89.3377L117.768 87.3309C117.653 87.2646 117.517 87.2466 117.388 87.281C117.26 87.3153 117.151 87.3991 117.085 87.514C117.018 87.6289 117.001 87.7654 117.035 87.8935C117.069 88.0216 117.153 88.1308 117.268 88.1971L120.743 90.204C120.858 90.2702 120.995 90.2881 121.123 90.2538C121.251 90.2194 121.36 90.1356 121.426 90.0208C121.493 89.9059 121.511 89.7695 121.476 89.6414C121.442 89.5133 121.358 89.4041 121.243 89.3378L121.243 89.3377ZM100.584 83.4998C100.552 83.4429 100.508 83.393 100.456 83.353C100.404 83.313 100.344 83.2837 100.281 83.2666C100.218 83.2496 100.151 83.2453 100.086 83.2539C100.021 83.2625 99.9585 83.2839 99.9017 83.3167L96.4261 85.3236C96.3407 85.3728 96.2718 85.4461 96.2278 85.5343C96.1839 85.6226 96.1669 85.7218 96.1791 85.8196C96.1891 85.9015 96.2193 85.9797 96.267 86.0472C96.3146 86.1146 96.3783 86.1692 96.4521 86.206C96.526 86.2429 96.6079 86.2609 96.6904 86.2584C96.773 86.2559 96.8536 86.233 96.9251 86.1917L100.401 84.1854C100.486 84.1361 100.555 84.0628 100.599 83.9746C100.643 83.8863 100.66 83.7871 100.648 83.6893C100.64 83.6225 100.618 83.558 100.584 83.4998H100.584ZM93.6331 87.5135C93.6004 87.4566 93.5568 87.4067 93.5048 87.3666C93.4527 87.3266 93.3933 87.2972 93.3299 87.2802C93.2664 87.2632 93.2003 87.2589 93.1352 87.2675C93.0701 87.2761 93.0073 87.2975 92.9505 87.3304L91.4813 88.179L89.474 89.3377C89.359 89.404 89.2751 89.5133 89.2408 89.6414C89.2064 89.7696 89.2243 89.9062 89.2906 90.0211C89.3569 90.136 89.4662 90.2199 89.5943 90.2543C89.7225 90.2887 89.859 90.2707 89.974 90.2044L89.9747 90.204L89.9749 90.2039L93.4505 88.1976C93.5655 88.1311 93.6493 88.0217 93.6835 87.8934C93.7178 87.7651 93.6996 87.6285 93.6331 87.5135V87.5135ZM63.1742 74.7479C63.1742 74.8805 63.2269 75.0077 63.3206 75.1015C63.4144 75.1952 63.5416 75.2479 63.6742 75.2479C63.8068 75.2479 63.934 75.1952 64.0277 75.1015C64.1215 75.0077 64.1742 74.8805 64.1742 74.7479V70.7503C64.1742 70.6177 64.1215 70.4906 64.0277 70.3968C63.934 70.303 63.8068 70.2503 63.6742 70.2503C63.5416 70.2503 63.4144 70.303 63.3206 70.3968C63.2269 70.4906 63.1742 70.6177 63.1742 70.7503V74.7479ZM63.6742 67.2528C63.7399 67.2528 63.8049 67.2399 63.8656 67.2148C63.9263 67.1897 63.9814 67.1529 64.0278 67.1064C64.0743 67.06 64.1111 67.0048 64.1362 66.9442C64.1613 66.8835 64.1742 66.8184 64.1742 66.7528V62.7552C64.1742 62.6226 64.1215 62.4954 64.0277 62.4017C63.934 62.3079 63.8068 62.2552 63.6742 62.2552C63.5416 62.2552 63.4144 62.3079 63.3206 62.4017C63.2269 62.4954 63.1742 62.6226 63.1742 62.7552V66.7528C63.1741 66.8184 63.1871 66.8835 63.2122 66.9442C63.2373 67.0048 63.2741 67.06 63.3206 67.1064C63.367 67.1529 63.4221 67.1897 63.4828 67.2148C63.5435 67.2399 63.6085 67.2528 63.6742 67.2528V67.2528ZM105.359 67.2528C105.424 67.2528 105.489 67.2399 105.55 67.2148C105.611 67.1897 105.666 67.1529 105.712 67.1064C105.759 67.06 105.796 67.0048 105.821 66.9442C105.846 66.8835 105.859 66.8184 105.859 66.7528V62.7552C105.859 62.6226 105.806 62.4954 105.712 62.4017C105.619 62.3079 105.491 62.2552 105.359 62.2552C105.226 62.2552 105.099 62.3079 105.005 62.4017C104.911 62.4954 104.859 62.6226 104.859 62.7552V66.7528C104.859 66.8184 104.872 66.8835 104.897 66.9442C104.922 67.0048 104.959 67.06 105.005 67.1064C105.052 67.1529 105.107 67.1897 105.167 67.2148C105.228 67.2399 105.293 67.2528 105.359 67.2528V67.2528ZM104.859 74.7479C104.859 74.8805 104.911 75.0077 105.005 75.1015C105.099 75.1952 105.226 75.2479 105.359 75.2479C105.491 75.2479 105.619 75.1952 105.712 75.1015C105.806 75.0077 105.859 74.8805 105.859 74.7479V70.7503C105.859 70.6177 105.806 70.4906 105.712 70.3968C105.619 70.303 105.491 70.2503 105.359 70.2503C105.226 70.2503 105.099 70.303 105.005 70.3968C104.911 70.4906 104.859 70.6177 104.859 70.7503V74.7479ZM100.402 53.3177L96.9262 51.3109C96.8693 51.278 96.8065 51.2567 96.7414 51.2482C96.6763 51.2396 96.6101 51.244 96.5467 51.261C96.4833 51.278 96.4238 51.3073 96.3717 51.3473C96.3196 51.3873 96.2759 51.4371 96.2431 51.494C96.2102 51.5509 96.1889 51.6137 96.1804 51.6788C96.1718 51.7439 96.1761 51.81 96.1931 51.8735C96.2102 51.9369 96.2395 51.9964 96.2795 52.0485C96.3194 52.1006 96.3693 52.1443 96.4262 52.1771L99.9018 54.1839C100.017 54.2502 100.153 54.2681 100.281 54.2337C100.409 54.1993 100.518 54.1155 100.585 54.0007C100.651 53.8859 100.669 53.7494 100.635 53.6213C100.6 53.4933 100.517 53.3841 100.402 53.3177V53.3177ZM93.4506 49.304L89.975 47.2967C89.9181 47.2638 89.8553 47.2425 89.7902 47.234C89.7251 47.2254 89.6589 47.2297 89.5955 47.2467C89.5321 47.2638 89.4726 47.2931 89.4205 47.3331C89.3684 47.373 89.3247 47.4229 89.2919 47.4798C89.259 47.5367 89.2377 47.5994 89.2292 47.6646C89.2206 47.7297 89.2249 47.7958 89.2419 47.8593C89.259 47.9227 89.2883 47.9822 89.3283 48.0343C89.3682 48.0863 89.4181 48.1301 89.475 48.1629L92.9506 50.1702C93.0654 50.2364 93.2019 50.2543 93.3299 50.22C93.458 50.1856 93.5672 50.1018 93.6334 49.987C93.6997 49.8721 93.7177 49.7357 93.6834 49.6076C93.6491 49.4796 93.5654 49.3703 93.4506 49.304V49.304ZM86.4984 45.2898L84.767 44.2894C84.6909 44.2457 84.6047 44.2227 84.517 44.2227C84.4292 44.2227 84.3431 44.2457 84.267 44.2894L82.5345 45.2899C82.4198 45.3562 82.336 45.4654 82.3017 45.5935C82.2674 45.7216 82.2854 45.858 82.3517 45.9729C82.4179 46.0877 82.5271 46.1715 82.6552 46.2059C82.7832 46.2402 82.9197 46.2223 83.0345 46.1561L84.517 45.3001L85.9984 46.1561C86.1133 46.2223 86.2497 46.2402 86.3778 46.2059C86.5058 46.1715 86.615 46.0877 86.6813 45.9729C86.7476 45.858 86.7655 45.7216 86.7313 45.5935C86.697 45.4654 86.6132 45.3562 86.4984 45.2899V45.2898ZM72.1078 51.3104L68.6322 53.3177C68.5174 53.3841 68.4337 53.4933 68.3994 53.6213C68.3651 53.7494 68.383 53.8859 68.4493 54.0007C68.5156 54.1155 68.6248 54.1993 68.7528 54.2337C68.8809 54.2681 69.0173 54.2502 69.1322 54.1839L72.6078 52.1766C72.7226 52.1103 72.8063 52.0011 72.8406 51.873C72.8749 51.7449 72.857 51.6085 72.7907 51.4936C72.7244 51.3788 72.6152 51.295 72.4872 51.2606C72.3591 51.2263 72.2226 51.2442 72.1078 51.3104V51.3104ZM79.059 47.2967L75.5834 49.3036C75.4686 49.3699 75.3848 49.4791 75.3505 49.6072C75.3162 49.7353 75.3342 49.8717 75.4005 49.9865C75.4668 50.1014 75.5759 50.1852 75.704 50.2195C75.832 50.2539 75.9685 50.236 76.0834 50.1698L79.559 48.1629C79.6738 48.0966 79.7576 47.9874 79.792 47.8593C79.8263 47.7312 79.8084 47.5947 79.7421 47.4798C79.6758 47.365 79.5665 47.2811 79.4384 47.2468C79.3103 47.2125 79.1738 47.2304 79.059 47.2967ZM65.8392 55.5077C65.773 55.3929 65.6638 55.3091 65.5358 55.2748C65.4078 55.2405 65.2714 55.2584 65.1566 55.3246L63.4242 56.3246L61.6927 57.3246C61.578 57.3909 61.4942 57.5001 61.4599 57.6282C61.4256 57.7563 61.4436 57.8927 61.5099 58.0075C61.5761 58.1224 61.6853 58.2062 61.8134 58.2405C61.9414 58.2749 62.0779 58.257 62.1927 58.1908L63.1742 57.6237V58.7577C63.1742 58.8903 63.2269 59.0175 63.3206 59.1112C63.4144 59.205 63.5416 59.2577 63.6742 59.2577C63.8068 59.2577 63.934 59.205 64.0277 59.1112C64.1215 59.0175 64.1742 58.8903 64.1742 58.7577V57.6237L65.1566 58.1908C65.226 58.2287 65.3034 58.2494 65.3825 58.2512C65.3908 58.2516 65.3985 58.2577 65.4066 58.2577C65.4211 58.2577 65.434 58.248 65.4484 58.2467C65.5056 58.242 65.5615 58.2272 65.6135 58.2031C65.6331 58.1952 65.6521 58.1859 65.6704 58.1754C65.7398 58.1345 65.7979 58.0768 65.8392 58.0076C65.8722 57.9508 65.8936 57.8881 65.9022 57.8229C65.9109 57.7578 65.9066 57.6917 65.8897 57.6282C65.8727 57.5647 65.8434 57.5053 65.8034 57.4532C65.7634 57.401 65.7135 57.3573 65.6566 57.3245L64.6744 56.7575L65.6566 56.1908C65.7135 56.158 65.7634 56.1143 65.8034 56.0621C65.8434 56.01 65.8727 55.9506 65.8897 55.8871C65.9066 55.8236 65.9109 55.7575 65.9022 55.6924C65.8936 55.6272 65.8722 55.5645 65.8392 55.5077V55.5077ZM79.559 65.3509L76.0834 63.3446C76.0264 63.3118 75.9636 63.2905 75.8984 63.2819C75.8332 63.2734 75.767 63.2778 75.7035 63.2948C75.6401 63.3118 75.5806 63.3412 75.5285 63.3813C75.4763 63.4213 75.4326 63.4712 75.3998 63.5282C75.3669 63.5851 75.3457 63.648 75.3371 63.7131C75.3286 63.7783 75.3329 63.8445 75.35 63.908C75.367 63.9715 75.3964 64.031 75.4365 64.0831C75.4765 64.1352 75.5264 64.1789 75.5834 64.2118L79.059 66.2186C79.1158 66.2514 79.1785 66.2727 79.2436 66.2812C79.3087 66.2898 79.3748 66.2854 79.4382 66.2684C79.5016 66.2514 79.561 66.2221 79.6131 66.1821C79.6651 66.1422 79.7088 66.0923 79.7416 66.0355C79.7754 65.9773 79.797 65.9129 79.805 65.846C79.8173 65.7485 79.8005 65.6494 79.7567 65.5613C79.713 65.4733 79.6442 65.4001 79.559 65.3509ZM72.6078 61.3377L69.1322 59.3314C69.0173 59.2652 68.8809 59.2473 68.7528 59.2816C68.6248 59.316 68.5156 59.3998 68.4493 59.5146C68.383 59.6294 68.3651 59.7659 68.3994 59.894C68.4337 60.022 68.5174 60.1313 68.6322 60.1976L72.1078 62.2049C72.1647 62.2378 72.2276 62.2591 72.2928 62.2676C72.3579 62.2761 72.4241 62.2718 72.4876 62.2547C72.5511 62.2377 72.6106 62.2083 72.6627 62.1682C72.7148 62.1282 72.7586 62.0783 72.7914 62.0213C72.8242 61.9644 72.8455 61.9015 72.854 61.8364C72.8626 61.7712 72.8582 61.705 72.8412 61.6415C72.8241 61.578 72.7947 61.5185 72.7547 61.4664C72.7146 61.4143 72.6647 61.3706 72.6078 61.3377V61.3377ZM84.017 82.7826V86.7826C84.017 86.9152 84.0696 87.0423 84.1634 87.1361C84.2572 87.2299 84.3844 87.2826 84.517 87.2826C84.6496 87.2826 84.7767 87.2299 84.8705 87.1361C84.9643 87.0423 85.017 86.9152 85.017 86.7826V82.7025C85.017 82.5699 84.9643 82.4427 84.8705 82.3489C84.7767 82.2552 84.6496 82.2025 84.517 82.2025C84.3844 82.2025 84.2572 82.2552 84.1634 82.3489C84.0696 82.4427 84.017 82.5699 84.017 82.7025V82.7826ZM93.4496 97.2772L89.974 95.2709C89.8591 95.2049 89.7228 95.1871 89.5949 95.2214C89.4669 95.2558 89.3578 95.3394 89.2914 95.4539C89.2486 95.532 89.2282 95.6202 89.2324 95.7091C89.2165 95.8083 89.2311 95.9101 89.2743 96.0008C89.3174 96.0916 89.387 96.1672 89.474 96.2176L91.4813 97.3764L92.9505 98.225C93.0074 98.2578 93.0701 98.279 93.1352 98.2876C93.2003 98.2961 93.2664 98.2918 93.3298 98.2748C93.3931 98.2578 93.4526 98.2285 93.5046 98.1885C93.5567 98.1485 93.6003 98.0987 93.6331 98.0418C93.6763 97.9628 93.6966 97.8734 93.692 97.7835C93.7072 97.6845 93.6922 97.5832 93.6489 97.4929C93.6057 97.4026 93.5362 97.3274 93.4496 97.2772V97.2772ZM100.401 101.29L96.9252 99.2835C96.8103 99.2176 96.674 99.1998 96.546 99.2341C96.4181 99.2684 96.309 99.352 96.2425 99.4667C96.1998 99.5448 96.1794 99.6332 96.1835 99.7222C96.1673 99.8217 96.1819 99.9238 96.2252 100.015C96.2686 100.106 96.3386 100.182 96.4261 100.232L99.9017 102.239C99.9585 102.271 100.021 102.293 100.086 102.301C100.151 102.31 100.218 102.305 100.281 102.288C100.344 102.271 100.404 102.242 100.456 102.202C100.508 102.162 100.552 102.112 100.584 102.056C100.628 101.976 100.648 101.887 100.643 101.796C100.658 101.697 100.643 101.596 100.6 101.506C100.557 101.415 100.487 101.34 100.401 101.29V101.29ZM93.4506 73.2899L89.975 71.2831C89.9181 71.2502 89.8553 71.2288 89.7902 71.2202C89.725 71.2115 89.6588 71.2158 89.5954 71.2328C89.5319 71.2497 89.4724 71.279 89.4202 71.319C89.368 71.3589 89.3243 71.4088 89.2914 71.4657C89.2585 71.5225 89.2371 71.5853 89.2285 71.6505C89.2199 71.7156 89.2241 71.7818 89.2411 71.8453C89.258 71.9088 89.2873 71.9683 89.3273 72.0204C89.3673 72.0726 89.4171 72.1164 89.474 72.1493L90.013 72.4605L92.9505 74.1571C93.0655 74.2234 93.2022 74.2413 93.3304 74.2069C93.4586 74.1724 93.5678 74.0885 93.6341 73.9735C93.7004 73.8585 93.7183 73.7219 93.6839 73.5937C93.6495 73.4655 93.5655 73.3562 93.4505 73.2899H93.4506ZM100.402 77.3031L96.9262 75.2962C96.8111 75.2299 96.6744 75.2121 96.5462 75.2465C96.4179 75.281 96.3086 75.365 96.2423 75.4801C96.176 75.5951 96.1581 75.7318 96.1926 75.8601C96.2271 75.9883 96.3111 76.0976 96.4262 76.1639L99.9017 78.1708C99.9586 78.2036 100.021 78.2248 100.086 78.2334C100.151 78.2419 100.218 78.2376 100.281 78.2206C100.344 78.2036 100.404 78.1743 100.456 78.1343C100.508 78.0943 100.552 78.0445 100.584 77.9876C100.618 77.9295 100.64 77.865 100.648 77.7982C100.66 77.7006 100.643 77.6016 100.6 77.5135C100.556 77.4254 100.487 77.3522 100.402 77.3031V77.3031ZM104.859 94.7372V98.7347C104.859 98.8673 104.911 98.9945 105.005 99.0883C105.099 99.182 105.226 99.2347 105.359 99.2347C105.491 99.2347 105.619 99.182 105.712 99.0883C105.806 98.9945 105.859 98.8673 105.859 98.7347V94.7347C105.859 94.6021 105.806 94.4749 105.712 94.3812C105.619 94.2874 105.491 94.2347 105.359 94.2347C105.226 94.2347 105.099 94.2874 105.005 94.3812C104.911 94.4749 104.859 94.6021 104.859 94.7347V94.7372ZM107.524 103.48C107.457 103.365 107.348 103.281 107.22 103.247C107.092 103.213 106.956 103.231 106.841 103.297L105.859 103.864V102.73C105.859 102.597 105.806 102.47 105.712 102.376C105.618 102.283 105.491 102.23 105.359 102.23C105.226 102.23 105.099 102.283 105.005 102.376C104.911 102.47 104.859 102.597 104.859 102.73V103.864L103.876 103.297C103.761 103.231 103.625 103.214 103.497 103.248C103.369 103.282 103.26 103.365 103.194 103.48C103.151 103.558 103.13 103.646 103.135 103.735C103.119 103.835 103.133 103.937 103.177 104.028C103.22 104.119 103.29 104.195 103.377 104.245L104.289 104.772L103.376 105.299C103.289 105.35 103.22 105.425 103.177 105.516C103.133 105.607 103.119 105.708 103.135 105.808C103.129 105.892 103.147 105.977 103.187 106.051C103.227 106.126 103.287 106.187 103.361 106.229C103.381 106.241 103.401 106.251 103.422 106.259C103.473 106.282 103.527 106.297 103.583 106.301C103.598 106.303 103.611 106.313 103.626 106.313C103.635 106.313 103.643 106.307 103.651 106.306C103.73 106.305 103.807 106.284 103.876 106.246L104.859 105.679V106.813C104.859 106.945 104.911 107.073 105.005 107.166C105.099 107.26 105.226 107.313 105.359 107.313C105.491 107.313 105.618 107.26 105.712 107.166C105.806 107.073 105.859 106.945 105.859 106.813V105.1L107.341 104.244C107.428 104.194 107.498 104.118 107.541 104.027C107.584 103.936 107.599 103.835 107.583 103.735C107.587 103.646 107.567 103.558 107.524 103.48H107.524ZM121.426 95.4535C121.393 95.3965 121.35 95.3466 121.298 95.3066C121.246 95.2665 121.186 95.2372 121.123 95.2202C121.059 95.2032 120.993 95.1988 120.928 95.2075C120.863 95.2161 120.8 95.2374 120.743 95.2704L117.268 97.2767C117.181 97.3271 117.111 97.4027 117.068 97.4935C117.025 97.5843 117.01 97.686 117.026 97.7853C117.022 97.8743 117.043 97.9627 117.085 98.0409C117.118 98.0977 117.162 98.1475 117.214 98.1875C117.266 98.2275 117.325 98.2568 117.389 98.2738C117.452 98.2908 117.518 98.2952 117.583 98.2866C117.648 98.2781 117.711 98.2568 117.768 98.224L121.243 96.2176C121.329 96.1685 121.397 96.0953 121.441 96.0073C121.485 95.9193 121.502 95.8203 121.49 95.7227L121.485 95.7086C121.489 95.6197 121.469 95.5315 121.426 95.4535H121.426ZM114.475 99.4667C114.442 99.4098 114.399 99.3599 114.346 99.3199C114.294 99.2799 114.235 99.2506 114.172 99.2335C114.108 99.2165 114.042 99.2122 113.977 99.2208C113.912 99.2294 113.849 99.2507 113.792 99.2835L110.317 101.29C110.23 101.34 110.16 101.416 110.117 101.507C110.074 101.597 110.059 101.699 110.075 101.798C110.071 101.887 110.091 101.976 110.134 102.054C110.167 102.111 110.211 102.161 110.263 102.201C110.315 102.241 110.374 102.27 110.438 102.287C110.501 102.304 110.567 102.308 110.632 102.3C110.697 102.291 110.76 102.27 110.817 102.237L114.292 100.231C114.378 100.182 114.446 100.109 114.49 100.02C114.534 99.9324 114.551 99.8334 114.539 99.7359L114.534 99.7218C114.538 99.6329 114.518 99.5447 114.475 99.4667H114.475ZM126.2 90.1976C126.135 90.1976 126.07 90.2105 126.009 90.2356C125.948 90.2607 125.893 90.2975 125.847 90.344C125.8 90.3904 125.764 90.4455 125.738 90.5062C125.713 90.5669 125.7 90.6319 125.7 90.6976V91.9114L124.719 91.3446C124.604 91.2784 124.468 91.2605 124.34 91.2948C124.212 91.3292 124.102 91.413 124.036 91.5278C123.97 91.6426 123.952 91.7791 123.986 91.9072C124.021 92.0352 124.104 92.1445 124.219 92.2108L125.131 92.7376L124.219 93.264C124.132 93.3144 124.062 93.39 124.019 93.4808C123.976 93.5716 123.962 93.6733 123.977 93.7726C123.972 93.8573 123.99 93.9419 124.03 94.0166C124.071 94.0914 124.131 94.1533 124.205 94.1952C124.224 94.206 124.243 94.2155 124.263 94.2235C124.314 94.2472 124.37 94.2616 124.426 94.2663C124.441 94.2677 124.454 94.2777 124.469 94.2777C124.478 94.2777 124.486 94.2714 124.494 94.271C124.573 94.2689 124.65 94.2483 124.719 94.2108L125.7 93.644V94.7777C125.7 94.9103 125.753 95.0375 125.847 95.1312C125.941 95.225 126.068 95.2777 126.2 95.2777C126.333 95.2777 126.46 95.225 126.554 95.1312C126.648 95.0375 126.7 94.9103 126.7 94.7777V92.7777C126.7 92.7634 126.691 92.7517 126.69 92.7377C126.691 92.7236 126.7 92.7119 126.7 92.6977V90.6977C126.701 90.632 126.688 90.567 126.663 90.5063C126.637 90.4456 126.601 90.3905 126.554 90.344C126.508 90.2976 126.453 90.2607 126.392 90.2356C126.331 90.2105 126.266 90.1976 126.201 90.1976H126.2ZM126.2 82.2025C126.135 82.2025 126.07 82.2154 126.009 82.2405C125.948 82.2656 125.893 82.3024 125.847 82.3489C125.8 82.3953 125.764 82.4504 125.738 82.5111C125.713 82.5718 125.7 82.6368 125.7 82.7025V86.7C125.7 86.8326 125.753 86.9598 125.847 87.0536C125.941 87.1473 126.068 87.2 126.2 87.2C126.333 87.2 126.46 87.1473 126.554 87.0536C126.648 86.9598 126.7 86.8326 126.7 86.7V82.7025C126.701 82.6368 126.688 82.5718 126.663 82.5111C126.637 82.4504 126.601 82.3953 126.554 82.3489C126.508 82.3024 126.453 82.2656 126.392 82.2405C126.331 82.2154 126.266 82.2025 126.201 82.2025H126.2ZM126.2 74.2074C126.135 74.2073 126.07 74.2202 126.009 74.2454C125.948 74.2705 125.893 74.3073 125.847 74.3537C125.8 74.4002 125.764 74.4553 125.738 74.516C125.713 74.5767 125.7 74.6417 125.7 74.7074V78.7049C125.7 78.8375 125.753 78.9647 125.847 79.0585C125.941 79.1523 126.068 79.2049 126.2 79.2049C126.333 79.2049 126.46 79.1523 126.554 79.0585C126.648 78.9647 126.7 78.8375 126.7 78.7049V74.7074C126.701 74.6417 126.688 74.5767 126.663 74.516C126.637 74.4553 126.601 74.4002 126.554 74.3538C126.508 74.3073 126.453 74.2705 126.392 74.2454C126.331 74.2203 126.266 74.2073 126.201 74.2074H126.2ZM107.524 79.493C107.491 79.4361 107.447 79.3862 107.395 79.3462C107.343 79.3061 107.284 79.2768 107.22 79.2598C107.157 79.2428 107.091 79.2384 107.026 79.247C106.961 79.2556 106.898 79.277 106.841 79.3099L105.859 79.877V78.7455C105.859 78.6129 105.806 78.4857 105.712 78.3919C105.619 78.2981 105.491 78.2455 105.359 78.2455C105.226 78.2455 105.099 78.2981 105.005 78.3919C104.911 78.4857 104.859 78.6129 104.859 78.7455V79.877L103.876 79.3099C103.761 79.2446 103.625 79.2275 103.498 79.2622C103.37 79.297 103.261 79.3809 103.195 79.4956C103.129 79.6102 103.112 79.7463 103.146 79.8741C103.18 80.0019 103.263 80.111 103.377 80.1776L104.358 80.7438L103.377 81.3099C103.32 81.3429 103.27 81.3867 103.23 81.439C103.19 81.4913 103.161 81.551 103.143 81.6147C103.126 81.6783 103.122 81.7447 103.131 81.8101C103.139 81.8754 103.161 81.9384 103.194 81.9955L103.201 82.0025C103.241 82.0663 103.295 82.1199 103.359 82.1593C103.381 82.1726 103.404 82.1839 103.428 82.1933C103.475 82.214 103.525 82.2271 103.576 82.2323C103.594 82.2341 103.609 82.2455 103.626 82.2455C103.636 82.2455 103.645 82.2384 103.655 82.2378C103.727 82.2348 103.797 82.2159 103.861 82.1826C103.866 82.18 103.872 82.1813 103.876 82.1786L104.859 81.6115V82.7445C104.859 82.8771 104.911 83.0043 105.005 83.0981C105.099 83.1918 105.226 83.2445 105.359 83.2445C105.491 83.2445 105.619 83.1918 105.712 83.0981C105.806 83.0043 105.859 82.8771 105.859 82.7445V81.6089L106.841 82.1761C106.956 82.2423 107.092 82.2602 107.221 82.2259C107.349 82.1915 107.458 82.1077 107.524 81.9929C107.59 81.8781 107.608 81.7416 107.574 81.6135C107.54 81.4855 107.456 81.3763 107.341 81.3099L106.359 80.743L107.341 80.1761C107.398 80.1433 107.448 80.0996 107.488 80.0475C107.528 79.9954 107.557 79.9359 107.574 79.8725C107.591 79.809 107.595 79.7428 107.587 79.6777C107.578 79.6126 107.557 79.5498 107.524 79.493V79.493ZM121.426 71.4657C121.393 71.4087 121.35 71.3588 121.298 71.3188C121.246 71.2787 121.186 71.2494 121.123 71.2324C121.059 71.2154 120.993 71.211 120.928 71.2196C120.863 71.2283 120.8 71.2496 120.744 71.2825L117.268 73.2894C117.153 73.3557 117.069 73.4649 117.035 73.5931C117 73.7212 117.018 73.8578 117.085 73.9727C117.151 74.0877 117.26 74.1716 117.388 74.2059C117.516 74.2403 117.653 74.2224 117.768 74.1561L121.244 72.1492C121.3 72.1164 121.35 72.0727 121.39 72.0205C121.43 71.9684 121.46 71.9089 121.477 71.8454C121.494 71.7819 121.498 71.7156 121.489 71.6505C121.481 71.5853 121.459 71.5225 121.426 71.4657V71.4657ZM113.792 75.2962L110.317 77.3031C110.202 77.3694 110.118 77.4786 110.084 77.6067C110.05 77.7348 110.068 77.8712 110.134 77.986C110.2 78.1009 110.309 78.1847 110.437 78.219C110.565 78.2534 110.702 78.2355 110.817 78.1693L114.292 76.1624C114.407 76.0961 114.491 75.9869 114.525 75.8588C114.559 75.7307 114.542 75.5943 114.475 75.4795C114.409 75.3646 114.3 75.2808 114.172 75.2465C114.044 75.2121 113.907 75.23 113.792 75.2962V75.2962ZM126.451 68.2767L124.719 67.2762C124.604 67.21 124.468 67.1921 124.34 67.2264C124.212 67.2608 124.103 67.3446 124.036 67.4594C123.97 67.5743 123.952 67.7107 123.986 67.8388C124.021 67.9669 124.104 68.0761 124.219 68.1424L125.201 68.7098L124.219 69.2767C124.162 69.3095 124.112 69.3532 124.072 69.4053C124.032 69.4574 124.003 69.5169 123.986 69.5804C123.969 69.6438 123.965 69.71 123.973 69.7751C123.982 69.8402 124.004 69.903 124.036 69.9598C124.078 70.0288 124.136 70.0864 124.205 70.1273C124.274 70.1656 124.349 70.1899 124.427 70.1988C124.442 70.2001 124.454 70.2098 124.469 70.2098C124.477 70.2098 124.485 70.2038 124.493 70.2033C124.572 70.2015 124.65 70.1808 124.719 70.1429L125.701 69.5761V70.7098C125.701 70.8424 125.753 70.9696 125.847 71.0634C125.941 71.1571 126.068 71.2098 126.201 71.2098C126.333 71.2098 126.46 71.1571 126.554 71.0634C126.648 70.9696 126.701 70.8424 126.701 70.7098V68.7098C126.701 68.622 126.678 68.5357 126.634 68.4597C126.59 68.3836 126.527 68.3205 126.451 68.2767V68.2767ZM121.244 65.2694L117.768 63.2625C117.653 63.1962 117.517 63.1783 117.388 63.2126C117.26 63.2469 117.151 63.3308 117.085 63.4456C117.019 63.5605 117.001 63.697 117.035 63.8251C117.069 63.9532 117.153 64.0624 117.268 64.1288L120.744 66.1356C120.858 66.2018 120.995 66.2197 121.123 66.1853C121.251 66.151 121.36 66.0672 121.426 65.9523C121.493 65.8375 121.511 65.7011 121.476 65.573C121.442 65.4449 121.358 65.3357 121.244 65.2694ZM114.292 61.2557L110.817 59.2484C110.702 59.1821 110.565 59.1641 110.437 59.1984C110.309 59.2328 110.2 59.3166 110.134 59.4315C110.067 59.5463 110.049 59.6829 110.084 59.811C110.118 59.9391 110.202 60.0483 110.317 60.1146L113.792 62.1219C113.907 62.1881 114.044 62.206 114.172 62.1717C114.3 62.1373 114.409 62.0535 114.475 61.9387C114.542 61.8239 114.56 61.6874 114.525 61.5593C114.491 61.4313 114.407 61.322 114.292 61.2557V61.2557ZM107.341 57.2415L105.609 56.2415C105.531 56.1972 105.442 56.1748 105.353 56.1765L103.877 55.3245C103.762 55.2583 103.626 55.2404 103.498 55.2748C103.37 55.3091 103.261 55.3929 103.194 55.5078C103.128 55.6226 103.11 55.7591 103.145 55.8871C103.179 56.0152 103.263 56.1244 103.377 56.1908L104.287 56.7161L103.377 57.2415C103.291 57.2918 103.221 57.367 103.178 57.4574C103.135 57.5477 103.12 57.6491 103.135 57.7481C103.128 57.8331 103.146 57.9183 103.186 57.9936C103.226 58.069 103.287 58.1314 103.361 58.1735C103.381 58.1854 103.402 58.1958 103.424 58.2044C103.474 58.2266 103.526 58.2405 103.58 58.2454C103.596 58.247 103.61 58.2576 103.626 58.2576C103.635 58.2576 103.644 58.251 103.653 58.2505C103.731 58.2485 103.808 58.228 103.876 58.1907L104.859 57.6236V58.7576C104.859 58.8903 104.911 59.0174 105.005 59.1112C105.099 59.205 105.226 59.2576 105.359 59.2576C105.491 59.2576 105.619 59.205 105.712 59.1112C105.806 59.0174 105.859 58.8903 105.859 58.7576V57.5405L106.841 58.1078C106.956 58.174 107.093 58.1919 107.221 58.1575C107.349 58.1232 107.458 58.0394 107.524 57.9245C107.59 57.8097 107.608 57.6733 107.574 57.5452C107.54 57.4171 107.456 57.3079 107.341 57.2416V57.2415ZM93.6332 63.4451C93.6005 63.3882 93.5569 63.3383 93.5048 63.2983C93.4528 63.2582 93.3933 63.2289 93.3299 63.2119C93.2665 63.1948 93.2004 63.1905 93.1353 63.1991C93.0702 63.2078 93.0074 63.2291 92.9506 63.2621L89.475 65.2694C89.3884 65.3196 89.3189 65.3948 89.2756 65.4851C89.2324 65.5754 89.2174 65.6767 89.2326 65.7757C89.2279 65.8656 89.2483 65.955 89.2914 66.034C89.3351 66.1101 89.3981 66.1733 89.4741 66.2172C89.5501 66.2611 89.6363 66.2842 89.724 66.284L89.7245 66.2839L89.725 66.284C89.8128 66.284 89.899 66.261 89.975 66.2171L93.4506 64.2108C93.5376 64.1603 93.6072 64.0847 93.6503 63.9938C93.6934 63.903 93.708 63.8012 93.6921 63.7019C93.6966 63.6125 93.6762 63.5237 93.6332 63.4452L93.6332 63.4451ZM100.584 59.4315C100.552 59.3745 100.508 59.3246 100.456 59.2845C100.404 59.2445 100.345 59.2151 100.281 59.1981C100.218 59.1811 100.152 59.1768 100.086 59.1854C100.021 59.194 99.9586 59.2154 99.9018 59.2484L96.4262 61.2552C96.3395 61.3054 96.27 61.3807 96.2268 61.471C96.1836 61.5614 96.1686 61.6627 96.1839 61.7617C96.1789 61.8519 96.1992 61.9416 96.2426 62.0208C96.2863 62.0969 96.3493 62.1601 96.4253 62.204C96.5012 62.2479 96.5875 62.271 96.6752 62.2708L96.6757 62.2707L96.6762 62.2708C96.7639 62.2709 96.8502 62.2478 96.9262 62.2039L100.402 60.1976C100.489 60.1471 100.558 60.0715 100.602 59.9806C100.645 59.8898 100.659 59.788 100.643 59.6887C100.648 59.5992 100.627 59.5101 100.584 59.4315L100.584 59.4315ZM86.681 67.4593C86.6147 67.3446 86.5056 67.2608 86.3776 67.2265C86.2496 67.1922 86.1132 67.21 85.9984 67.2762L84.4467 68.1729L83.0345 67.3578C82.9196 67.292 82.7834 67.2744 82.6555 67.3087C82.5276 67.343 82.4185 67.4264 82.3519 67.5409C82.3181 67.599 82.2965 67.6635 82.2884 67.7303C82.2762 67.8279 82.293 67.9269 82.3368 68.015C82.3806 68.1031 82.4494 68.1763 82.5345 68.2254L83.4453 68.751L82.5345 69.2767C82.4476 69.3272 82.3779 69.4028 82.3348 69.4936C82.2917 69.5845 82.2772 69.6863 82.2931 69.7856C82.287 69.8704 82.305 69.9552 82.3451 70.0301C82.3853 70.1051 82.4458 70.1671 82.5198 70.2091C82.5391 70.2203 82.5592 70.2301 82.58 70.2384C82.6309 70.2617 82.6855 70.2761 82.7413 70.281C82.7563 70.2823 82.7694 70.2923 82.7845 70.2923C82.793 70.2923 82.8009 70.2862 82.8092 70.2857C82.8881 70.284 82.9654 70.2634 83.0345 70.2254L84.017 69.6584V70.7924C84.017 70.925 84.0696 71.0521 84.1634 71.1459C84.2572 71.2397 84.3844 71.2924 84.517 71.2924C84.6496 71.2924 84.7767 71.2397 84.8705 71.1459C84.9643 71.0521 85.017 70.925 85.017 70.7924V69.5761L85.9984 70.1429C86.0684 70.1815 86.1467 70.2024 86.2266 70.2039C86.234 70.2042 86.241 70.2098 86.2484 70.2098C86.2616 70.2098 86.2729 70.2009 86.286 70.1999C86.3457 70.1956 86.404 70.1802 86.4581 70.1547C86.4763 70.1472 86.494 70.1385 86.5111 70.1287C86.5811 70.0876 86.6395 70.0295 86.681 69.9598C86.714 69.903 86.7354 69.8402 86.7441 69.7751C86.7527 69.71 86.7484 69.6438 86.7315 69.5804C86.7145 69.5169 86.6852 69.4574 86.6452 69.4053C86.6052 69.3532 86.5553 69.3095 86.4984 69.2767L85.5871 68.7503L86.4984 68.224C86.5854 68.1735 86.6551 68.0979 86.6982 68.0071C86.7413 67.9163 86.7558 67.8145 86.7399 67.7152C86.7442 67.6261 86.7239 67.5376 86.681 67.4593V67.4593ZM42.8324 103.275C42.8981 103.275 42.9631 103.262 43.0238 103.237C43.0845 103.212 43.1396 103.175 43.186 103.128C43.2325 103.082 43.2693 103.027 43.2944 102.966C43.3195 102.905 43.3324 102.84 43.3324 102.775V98.7772C43.3324 98.6446 43.2797 98.5174 43.186 98.4236C43.0922 98.3299 42.965 98.2772 42.8324 98.2772C42.6998 98.2772 42.5726 98.3299 42.4788 98.4236C42.3851 98.5174 42.3324 98.6446 42.3324 98.7772V102.775C42.3324 102.84 42.3453 102.905 42.3704 102.966C42.3955 103.027 42.4323 103.082 42.4788 103.128C42.5252 103.175 42.5803 103.212 42.641 103.237C42.7017 103.262 42.7667 103.275 42.8324 103.275V103.275ZM42.8324 111.27C42.8981 111.27 42.9631 111.257 43.0238 111.232C43.0845 111.207 43.1396 111.17 43.186 111.124C43.2325 111.077 43.2693 111.022 43.2944 110.961C43.3195 110.901 43.3324 110.836 43.3324 110.77V106.772C43.3324 106.64 43.2797 106.513 43.186 106.419C43.0922 106.325 42.965 106.272 42.8324 106.272C42.6998 106.272 42.5726 106.325 42.4788 106.419C42.3851 106.513 42.3324 106.64 42.3324 106.772V110.77C42.3324 110.836 42.3453 110.901 42.3704 110.961C42.3955 111.022 42.4323 111.077 42.4788 111.124C42.5252 111.17 42.5803 111.207 42.641 111.232C42.7017 111.257 42.7667 111.27 42.8324 111.27V111.27ZM44.8148 117.334L43.3324 116.479V114.767C43.3324 114.635 43.2797 114.508 43.186 114.414C43.0922 114.32 42.965 114.267 42.8324 114.267C42.6998 114.267 42.5726 114.32 42.4788 114.414C42.3851 114.508 42.3324 114.635 42.3324 114.767V116.767C42.3325 116.855 42.3556 116.941 42.3995 117.017C42.4434 117.093 42.5064 117.157 42.5824 117.201L44.3148 118.2C44.4297 118.266 44.5661 118.284 44.6942 118.25C44.8223 118.215 44.9314 118.132 44.9977 118.017C45.064 117.902 45.082 117.766 45.0477 117.637C45.0134 117.509 44.9296 117.4 44.8148 117.334V117.334ZM51.766 121.347L48.2904 119.341C48.1755 119.274 48.0391 119.257 47.911 119.291C47.783 119.325 47.6738 119.409 47.6075 119.524C47.5412 119.639 47.5233 119.775 47.5576 119.903C47.5919 120.031 47.6756 120.141 47.7904 120.207L51.266 122.213C51.3808 122.279 51.5173 122.297 51.6454 122.263C51.7734 122.229 51.8826 122.145 51.9489 122.03C52.0152 121.915 52.0331 121.779 51.9988 121.651C51.9645 121.523 51.8808 121.413 51.766 121.347ZM58.7172 125.36L55.2416 123.354C55.1267 123.288 54.9903 123.27 54.8622 123.304C54.7341 123.338 54.625 123.422 54.5587 123.537C54.4924 123.652 54.4744 123.788 54.5087 123.916C54.543 124.044 54.6268 124.154 54.7416 124.22L58.2172 126.226C58.332 126.293 58.4685 126.311 58.5965 126.276C58.7246 126.242 58.8338 126.158 58.9 126.043C58.9663 125.928 58.9843 125.792 58.95 125.664C58.9157 125.536 58.832 125.427 58.7172 125.36ZM58.7172 101.373L55.2416 99.366C55.17 99.325 55.0895 99.3022 55.007 99.2997C54.9245 99.2973 54.8427 99.3153 54.7689 99.3521C54.695 99.3888 54.6314 99.4433 54.5837 99.5106C54.536 99.5779 54.5056 99.656 54.4954 99.7378V99.7383C54.4831 99.8359 54.5 99.9349 54.5438 100.023C54.5876 100.111 54.6564 100.184 54.7416 100.233L58.2172 102.24C58.3321 102.306 58.4687 102.324 58.5968 102.289C58.725 102.255 58.8342 102.171 58.9005 102.056C58.9668 101.941 58.9847 101.805 58.9504 101.677C58.916 101.548 58.8321 101.439 58.7172 101.373V101.373ZM63.1742 118.805V122.803C63.1742 122.936 63.2268 123.063 63.3206 123.157C63.4144 123.25 63.5415 123.303 63.6742 123.303C63.8068 123.303 63.9339 123.25 64.0277 123.157C64.1215 123.063 64.1742 122.936 64.1742 122.803V118.805C64.1742 118.672 64.1215 118.545 64.0277 118.451C63.9339 118.357 63.8068 118.305 63.6742 118.305C63.5415 118.305 63.4144 118.357 63.3206 118.451C63.2268 118.545 63.1742 118.672 63.1742 118.805V118.805ZM65.8392 127.55C65.8064 127.493 65.7628 127.443 65.7107 127.403C65.6587 127.363 65.5993 127.333 65.5358 127.316C65.4724 127.299 65.4063 127.295 65.3412 127.304C65.2761 127.312 65.2134 127.334 65.1566 127.367L64.1741 127.934V126.8C64.1741 126.667 64.1214 126.54 64.0277 126.446C63.9339 126.352 63.8067 126.3 63.6741 126.3C63.5415 126.3 63.4143 126.352 63.3206 126.446C63.2268 126.54 63.1741 126.667 63.1741 126.8V127.933L62.1927 127.367C62.0778 127.3 61.9414 127.282 61.8133 127.317C61.6852 127.351 61.5761 127.435 61.5098 127.55C61.4435 127.665 61.4255 127.801 61.4598 127.929C61.4941 128.057 61.5779 128.166 61.6927 128.233L63.4218 129.231L63.4241 129.234L65.1566 130.234C65.2714 130.3 65.4079 130.318 65.5359 130.283C65.664 130.249 65.7731 130.165 65.8394 130.05C65.9057 129.936 65.9237 129.799 65.8894 129.671C65.8551 129.543 65.7713 129.434 65.6566 129.368L64.6734 128.8L65.6566 128.233C65.7135 128.2 65.7633 128.156 65.8033 128.104C65.8433 128.052 65.8726 127.993 65.8896 127.929C65.9066 127.866 65.9109 127.799 65.9022 127.734C65.8936 127.669 65.8722 127.606 65.8392 127.55L65.8392 127.55ZM79.0589 119.341L75.5834 121.347C75.4686 121.413 75.3848 121.523 75.3505 121.651C75.3162 121.779 75.3342 121.915 75.4005 122.03C75.4668 122.145 75.5759 122.229 75.704 122.263C75.832 122.297 75.9685 122.279 76.0834 122.213L79.559 120.207C79.6738 120.141 79.7575 120.031 79.7918 119.903C79.8261 119.775 79.8081 119.639 79.7418 119.524C79.6756 119.409 79.5664 119.325 79.4383 119.291C79.3103 119.257 79.1738 119.274 79.059 119.341L79.0589 119.341ZM72.1077 123.353L68.6321 125.36C68.5173 125.426 68.4336 125.535 68.3993 125.663C68.365 125.791 68.383 125.928 68.4492 126.043C68.5155 126.157 68.6247 126.241 68.7528 126.276C68.8808 126.31 69.0173 126.292 69.1321 126.226L72.6077 124.22C72.7225 124.153 72.8063 124.044 72.8406 123.916C72.8749 123.788 72.8569 123.651 72.7906 123.537C72.7243 123.422 72.6152 123.338 72.4871 123.304C72.359 123.269 72.2226 123.287 72.1077 123.353ZM84.5169 103.275C84.5826 103.275 84.6476 103.262 84.7083 103.237C84.769 103.212 84.8241 103.175 84.8705 103.128C84.917 103.082 84.9538 103.027 84.9789 102.966C85.004 102.905 85.0169 102.84 85.0169 102.775V98.7752C85.0169 98.6426 84.9642 98.5155 84.8704 98.4217C84.7767 98.3279 84.6495 98.2752 84.5169 98.2752C84.3843 98.2752 84.2571 98.3279 84.1633 98.4217C84.0696 98.5155 84.0169 98.6426 84.0169 98.7752V102.775C84.0169 102.84 84.0298 102.905 84.0549 102.966C84.08 103.027 84.1168 103.082 84.1633 103.128C84.2097 103.175 84.2649 103.212 84.3256 103.237C84.3862 103.262 84.4513 103.275 84.517 103.275L84.5169 103.275ZM51.266 87.3319L47.7904 89.3392C47.6756 89.4056 47.5919 89.5148 47.5576 89.6428C47.5233 89.7709 47.5412 89.9074 47.6075 90.0222C47.6738 90.137 47.783 90.2208 47.911 90.2552C48.0391 90.2895 48.1755 90.2716 48.2904 90.2054L51.766 88.1981C51.8808 88.1317 51.9645 88.0225 51.9988 87.8945C52.0331 87.7664 52.0152 87.6299 51.9489 87.5151C51.8826 87.4003 51.7734 87.3165 51.6454 87.2821C51.5173 87.2478 51.3808 87.2657 51.266 87.3319V87.3319ZM58.2172 83.3182L54.7416 85.325C54.6267 85.3913 54.5429 85.5005 54.5085 85.6286C54.4742 85.7567 54.4922 85.8932 54.5585 86.0081C54.6248 86.123 54.734 86.2068 54.8621 86.2411C54.9902 86.2755 55.1267 86.2575 55.2416 86.1912L58.7172 84.1844C58.832 84.118 58.9157 84.0088 58.95 83.8808C58.9843 83.7527 58.9663 83.6162 58.9 83.5014C58.8338 83.3866 58.7246 83.3028 58.5965 83.2684C58.4685 83.234 58.332 83.2519 58.2172 83.3182V83.3182ZM44.9975 91.5292C44.9648 91.4722 44.9211 91.4223 44.8691 91.3823C44.817 91.3423 44.7576 91.313 44.6942 91.2959C44.6308 91.2789 44.5646 91.2746 44.4995 91.2832C44.4344 91.2918 44.3717 91.3132 44.3149 91.346L43.3324 91.9131V90.7806C43.3324 90.648 43.2798 90.5208 43.186 90.4271C43.0922 90.3333 42.9651 90.2806 42.8324 90.2806C42.6998 90.2806 42.5727 90.3333 42.4789 90.4271C42.3851 90.5208 42.3324 90.648 42.3324 90.7806V94.7792C42.3324 94.9118 42.3851 95.0389 42.4789 95.1327C42.5727 95.2265 42.6998 95.2792 42.8324 95.2792C42.9651 95.2792 43.0922 95.2265 43.186 95.1327C43.2798 95.0389 43.3324 94.9118 43.3324 94.7792V93.6464L44.3149 94.2132L44.3293 94.2171C44.3938 94.2509 44.4651 94.27 44.538 94.2729C44.5472 94.2734 44.5558 94.2801 44.5649 94.2801C44.5812 94.2801 44.5954 94.2694 44.6115 94.2679C44.665 94.2629 44.7173 94.2491 44.7663 94.2271C44.7889 94.2182 44.8107 94.2076 44.8316 94.1952C44.8963 94.1557 44.9508 94.1014 44.9906 94.0368L44.9975 94.0301C45.064 93.9152 45.0821 93.7786 45.0478 93.6503C45.0136 93.522 44.9298 93.4125 44.8149 93.346L43.8327 92.779L44.8149 92.2123C44.8718 92.1795 44.9217 92.1358 44.9616 92.0836C45.0016 92.0315 45.0309 91.9721 45.0479 91.9086C45.0649 91.8451 45.0692 91.779 45.0605 91.7139C45.0518 91.6487 45.0304 91.586 44.9975 91.5292V91.5292ZM51.766 97.3597L48.2905 95.3529C48.1755 95.2866 48.0388 95.2687 47.9106 95.3031C47.7824 95.3375 47.6732 95.4215 47.6069 95.5365C47.5406 95.6515 47.5227 95.7881 47.5571 95.9163C47.5915 96.0445 47.6755 96.1538 47.7905 96.2201L51.266 98.2264C51.381 98.2927 51.5175 98.3106 51.6457 98.2763C51.7738 98.2419 51.8831 98.158 51.9494 98.0431C52.0157 97.9281 52.0336 97.7916 51.9992 97.6634C51.9649 97.5353 51.881 97.426 51.766 97.3597V97.3597ZM63.6742 115.308C63.7399 115.308 63.8049 115.295 63.8656 115.27C63.9263 115.245 63.9814 115.208 64.0278 115.162C64.0743 115.115 64.1111 115.06 64.1362 114.999C64.1613 114.939 64.1742 114.874 64.1742 114.808V110.81C64.1742 110.677 64.1215 110.55 64.0277 110.456C63.934 110.363 63.8068 110.31 63.6742 110.31C63.5416 110.31 63.4144 110.363 63.3206 110.456C63.2269 110.55 63.1742 110.677 63.1742 110.81V114.808C63.1741 114.874 63.1871 114.939 63.2122 114.999C63.2373 115.06 63.2741 115.115 63.3206 115.162C63.367 115.208 63.4221 115.245 63.4828 115.27C63.5435 115.295 63.6085 115.308 63.6742 115.308V115.308ZM79.559 137.393L76.0834 135.387C75.9685 135.32 75.832 135.303 75.704 135.337C75.5759 135.371 75.4668 135.455 75.4005 135.57C75.3342 135.685 75.3162 135.821 75.3505 135.949C75.3848 136.077 75.4686 136.187 75.5834 136.253L79.059 138.259C79.1738 138.325 79.3103 138.343 79.4383 138.309C79.5664 138.275 79.6756 138.191 79.7418 138.076C79.8081 137.961 79.8261 137.825 79.7918 137.697C79.7575 137.569 79.6738 137.459 79.559 137.393ZM72.6078 133.38L69.1322 131.374C69.0173 131.308 68.8809 131.29 68.7528 131.324C68.6248 131.359 68.5156 131.442 68.4493 131.557C68.383 131.672 68.3651 131.808 68.3994 131.937C68.4337 132.065 68.5174 132.174 68.6322 132.24L72.1078 134.247C72.2226 134.313 72.3591 134.331 72.4872 134.296C72.6152 134.262 72.7244 134.178 72.7907 134.063C72.857 133.948 72.8749 133.812 72.8406 133.684C72.8063 133.556 72.7226 133.447 72.6078 133.38ZM84.517 127.341C84.5826 127.341 84.6477 127.328 84.7084 127.303C84.769 127.278 84.8242 127.241 84.8706 127.194C84.917 127.148 84.9539 127.093 84.979 127.032C85.0041 126.971 85.017 126.906 85.017 126.841V122.843C85.017 122.711 84.9643 122.583 84.8705 122.49C84.7767 122.396 84.6496 122.343 84.517 122.343C84.3844 122.343 84.2572 122.396 84.1634 122.49C84.0696 122.583 84.017 122.711 84.017 122.843V126.841C84.0169 126.906 84.0299 126.971 84.055 127.032C84.0801 127.093 84.1169 127.148 84.1634 127.194C84.2098 127.241 84.2649 127.278 84.3256 127.303C84.3863 127.328 84.4513 127.341 84.517 127.341V127.341ZM84.017 134.835C84.017 134.968 84.0696 135.095 84.1634 135.189C84.2572 135.283 84.3844 135.335 84.517 135.335C84.6496 135.335 84.7767 135.283 84.8705 135.189C84.9643 135.095 85.017 134.968 85.017 134.835V130.838C85.017 130.705 84.9643 130.578 84.8705 130.484C84.7767 130.391 84.6496 130.338 84.517 130.338C84.3844 130.338 84.2572 130.391 84.1634 130.484C84.0696 130.578 84.017 130.705 84.017 130.838V134.835ZM85.9984 139.4L85.017 139.967V138.833C85.017 138.7 84.9643 138.573 84.8705 138.479C84.7767 138.386 84.6496 138.333 84.517 138.333C84.3844 138.333 84.2572 138.386 84.1634 138.479C84.0696 138.573 84.017 138.7 84.017 138.833V139.967L83.0345 139.4C82.9197 139.334 82.7832 139.316 82.6552 139.35C82.5271 139.384 82.4179 139.468 82.3517 139.583C82.2854 139.698 82.2674 139.834 82.3017 139.962C82.336 140.09 82.4198 140.2 82.5345 140.266L84.267 141.266C84.343 141.31 84.4292 141.333 84.517 141.333C84.6047 141.333 84.6909 141.31 84.767 141.266L86.4984 140.266C86.6132 140.2 86.697 140.09 86.7313 139.962C86.7655 139.834 86.7476 139.698 86.6813 139.583C86.615 139.468 86.5058 139.384 86.3778 139.35C86.2497 139.316 86.1133 139.334 85.9984 139.4V139.4ZM99.9008 131.374L96.4252 133.38C96.3104 133.447 96.2266 133.556 96.1923 133.684C96.158 133.812 96.176 133.948 96.2423 134.063C96.3086 134.178 96.4177 134.262 96.5458 134.296C96.6738 134.331 96.8103 134.313 96.9252 134.247L100.401 132.24C100.516 132.174 100.599 132.065 100.634 131.937C100.668 131.808 100.65 131.672 100.584 131.557C100.517 131.442 100.408 131.359 100.28 131.324C100.152 131.29 100.016 131.308 99.9008 131.374V131.374ZM92.9496 135.387L89.474 137.393C89.4171 137.426 89.3673 137.47 89.3273 137.522C89.2873 137.574 89.258 137.634 89.241 137.697C89.224 137.761 89.2196 137.827 89.2282 137.892C89.2367 137.957 89.2581 138.02 89.2909 138.077C89.3237 138.133 89.3674 138.183 89.4195 138.223C89.4716 138.263 89.5311 138.293 89.5945 138.31C89.6579 138.327 89.7241 138.331 89.7892 138.322C89.8543 138.314 89.9171 138.293 89.974 138.26L93.4496 136.253C93.5644 136.187 93.6481 136.078 93.6824 135.95C93.7167 135.822 93.6987 135.685 93.6325 135.57C93.5662 135.456 93.457 135.372 93.329 135.337C93.2009 135.303 93.0644 135.321 92.9496 135.387V135.387ZM105.359 115.308C105.424 115.308 105.489 115.295 105.55 115.27C105.611 115.245 105.666 115.208 105.712 115.162C105.759 115.115 105.796 115.06 105.821 114.999C105.846 114.939 105.859 114.874 105.859 114.808V110.809C105.859 110.676 105.806 110.549 105.712 110.455C105.619 110.361 105.491 110.309 105.359 110.309C105.226 110.309 105.099 110.361 105.005 110.455C104.911 110.549 104.859 110.676 104.859 110.809V114.808C104.859 114.874 104.872 114.939 104.897 114.999C104.922 115.06 104.959 115.115 105.005 115.162C105.052 115.208 105.107 115.245 105.167 115.27C105.228 115.295 105.293 115.308 105.359 115.308V115.308ZM72.7904 99.5482C72.7577 99.4912 72.7141 99.4413 72.6621 99.4013C72.61 99.3612 72.5506 99.3318 72.4871 99.3148C72.4237 99.2978 72.3576 99.2935 72.2925 99.3021C72.2274 99.3107 72.1646 99.3321 72.1078 99.3651L68.6322 101.372C68.5173 101.439 68.4334 101.548 68.399 101.676C68.3646 101.804 68.3825 101.941 68.4488 102.056C68.5152 102.171 68.6244 102.255 68.7526 102.289C68.8807 102.323 69.0173 102.305 69.1322 102.239L72.6078 100.233C72.693 100.184 72.7618 100.11 72.8056 100.022C72.8494 99.9344 72.8662 99.8354 72.854 99.7378L72.8539 99.7372C72.8457 99.6706 72.8241 99.6063 72.7904 99.5482V99.5482ZM79.7416 95.5345C79.7089 95.4776 79.6652 95.4277 79.6132 95.3876C79.5611 95.3476 79.5017 95.3183 79.4383 95.3012C79.3749 95.2842 79.3087 95.2799 79.2436 95.2885C79.1785 95.2971 79.1158 95.3185 79.059 95.3514L75.5834 97.3583C75.4982 97.4074 75.4294 97.4806 75.3856 97.5687C75.3418 97.6567 75.325 97.7558 75.3373 97.8534L75.3372 97.8547C75.3473 97.9366 75.3776 98.0147 75.4253 98.0821C75.4729 98.1495 75.5366 98.204 75.6105 98.2408C75.6844 98.2776 75.7662 98.2956 75.8487 98.2931C75.9313 98.2906 76.0119 98.2677 76.0834 98.2264L79.559 96.2201C79.6442 96.1709 79.713 96.0978 79.7567 96.0097C79.8005 95.9216 79.8173 95.8226 79.805 95.725V95.724C79.797 95.6572 79.7754 95.5927 79.7416 95.5345V95.5345ZM65.8392 103.562C65.8066 103.505 65.763 103.455 65.7109 103.415C65.6589 103.375 65.5995 103.346 65.536 103.329C65.4726 103.312 65.4064 103.307 65.3413 103.316C65.2762 103.325 65.2134 103.346 65.1566 103.379L64.1742 103.947V102.732C64.1742 102.6 64.1215 102.472 64.0277 102.379C63.934 102.285 63.8068 102.232 63.6742 102.232C63.5416 102.232 63.4144 102.285 63.3206 102.379C63.2269 102.472 63.1742 102.6 63.1742 102.732V103.947L62.1927 103.38C62.0779 103.314 61.9414 103.296 61.8134 103.33C61.6853 103.364 61.5761 103.448 61.5099 103.563C61.4436 103.678 61.4256 103.814 61.4599 103.942C61.4942 104.07 61.578 104.18 61.6927 104.246L63.1742 105.102V106.813C63.1742 106.945 63.2269 107.073 63.3206 107.166C63.4144 107.26 63.5416 107.313 63.6742 107.313C63.8068 107.313 63.934 107.26 64.0277 107.166C64.1215 107.073 64.1742 106.945 64.1742 106.813V105.679L65.1566 106.246C65.2264 106.284 65.3046 106.305 65.3843 106.307C65.392 106.307 65.3991 106.313 65.4066 106.313C65.42 106.313 65.432 106.304 65.4454 106.303C65.5043 106.298 65.5618 106.283 65.6152 106.258C65.634 106.25 65.6522 106.241 65.6698 106.231C65.7439 106.189 65.8047 106.127 65.8451 106.052C65.8855 105.977 65.9039 105.893 65.8982 105.808C65.914 105.708 65.8994 105.607 65.8563 105.516C65.8132 105.425 65.7436 105.35 65.6566 105.299L64.7443 104.773L65.6566 104.246C65.7136 104.213 65.7635 104.169 65.8035 104.117C65.8435 104.065 65.8728 104.006 65.8898 103.942C65.9067 103.879 65.911 103.812 65.9023 103.747C65.8937 103.682 65.8722 103.619 65.8392 103.562V103.562ZM42.8324 79.2875C42.8981 79.2875 42.9631 79.2746 43.0238 79.2495C43.0845 79.2244 43.1396 79.1875 43.186 79.1411C43.2325 79.0946 43.2693 79.0395 43.2944 78.9788C43.3195 78.9182 43.3324 78.8531 43.3324 78.7875V74.7899C43.3324 74.6573 43.2797 74.5301 43.186 74.4363C43.0922 74.3426 42.965 74.2899 42.8324 74.2899C42.6998 74.2899 42.5726 74.3426 42.4788 74.4363C42.3851 74.5301 42.3324 74.6573 42.3324 74.7899V78.7875C42.3324 78.8531 42.3453 78.9182 42.3704 78.9788C42.3955 79.0395 42.4323 79.0946 42.4788 79.1411C42.5252 79.1875 42.5803 79.2244 42.641 79.2495C42.7017 79.2746 42.7667 79.2875 42.8324 79.2875ZM42.8324 87.2826C42.8981 87.2826 42.9631 87.2697 43.0238 87.2446C43.0845 87.2195 43.1396 87.1826 43.186 87.1362C43.2325 87.0898 43.2693 87.0346 43.2944 86.9739C43.3195 86.9133 43.3324 86.8482 43.3324 86.7826V82.785C43.3324 82.6524 43.2797 82.5252 43.186 82.4314C43.0922 82.3377 42.965 82.285 42.8324 82.285C42.6998 82.285 42.5726 82.3377 42.4788 82.4314C42.3851 82.5252 42.3324 82.6524 42.3324 82.785V86.7825C42.3324 86.8482 42.3453 86.9133 42.3704 86.9739C42.3955 87.0346 42.4323 87.0898 42.4788 87.1362C42.5252 87.1826 42.5803 87.2195 42.641 87.2446C42.7017 87.2697 42.7667 87.2826 42.8324 87.2826V87.2826ZM58.7172 77.3861L55.2416 75.3792C55.1266 75.3129 54.9901 75.295 54.8619 75.3294C54.7338 75.3638 54.6245 75.4477 54.5582 75.5626C54.4919 75.6775 54.474 75.8141 54.5084 75.9422C54.5428 76.0704 54.6266 76.1796 54.7416 76.2459L58.2172 78.2528C58.3321 78.3191 58.4687 78.337 58.5968 78.3026C58.725 78.2683 58.8342 78.1844 58.9005 78.0694C58.9668 77.9545 58.9847 77.8179 58.9504 77.6898C58.916 77.5616 58.8321 77.4524 58.7172 77.3861V77.3861ZM63.6742 91.3206C63.7398 91.3207 63.8049 91.3078 63.8655 91.2827C63.9262 91.2576 63.9814 91.2207 64.0278 91.1743C64.0742 91.1278 64.1111 91.0727 64.1362 91.012C64.1613 90.9514 64.1742 90.8863 64.1742 90.8206V86.742C64.1742 86.6094 64.1215 86.4822 64.0277 86.3884C63.9339 86.2947 63.8068 86.242 63.6742 86.242C63.5415 86.242 63.4144 86.2947 63.3206 86.3884C63.2268 86.4822 63.1742 86.6094 63.1742 86.742V90.8206C63.1741 90.8863 63.187 90.9513 63.2121 91.012C63.2372 91.0727 63.2741 91.1278 63.3205 91.1743C63.367 91.2207 63.4221 91.2576 63.4828 91.2827C63.5435 91.3078 63.6085 91.3207 63.6742 91.3206H63.6742ZM84.5169 79.2875C84.5826 79.2875 84.6476 79.2746 84.7083 79.2495C84.769 79.2244 84.8241 79.1875 84.8706 79.1411C84.917 79.0946 84.9538 79.0395 84.979 78.9788C85.0041 78.9182 85.017 78.8531 85.0169 78.7875V74.7074C85.0169 74.5748 84.9643 74.4476 84.8705 74.3538C84.7767 74.26 84.6495 74.2074 84.5169 74.2074C84.3843 74.2074 84.2572 74.26 84.1634 74.3538C84.0696 74.4476 84.0169 74.5748 84.0169 74.7074V78.7875C84.0169 78.8531 84.0298 78.9182 84.0549 78.9788C84.08 79.0395 84.1169 79.0947 84.1633 79.1411C84.2098 79.1875 84.2649 79.2244 84.3256 79.2495C84.3863 79.2746 84.4513 79.2875 84.517 79.2875H84.5169ZM51.266 63.3451L47.7904 65.3524C47.6756 65.4187 47.5919 65.5279 47.5576 65.656C47.5233 65.7841 47.5412 65.9205 47.6075 66.0354C47.6738 66.1502 47.783 66.234 47.911 66.2684C48.0391 66.3027 48.1755 66.2848 48.2904 66.2186L51.766 64.2113C51.8229 64.1785 51.8727 64.1347 51.9127 64.0826C51.9527 64.0305 51.982 63.9711 51.999 63.9076C52.016 63.8442 52.0204 63.7781 52.0118 63.7129C52.0032 63.6478 51.9819 63.585 51.9491 63.5282C51.9163 63.4713 51.8726 63.4214 51.8205 63.3815C51.7684 63.3415 51.7089 63.3121 51.6455 63.2951C51.582 63.2781 51.5159 63.2738 51.4508 63.2824C51.3857 63.2909 51.3229 63.3122 51.266 63.3451ZM58.2172 59.3314L54.7416 61.3382C54.6268 61.4046 54.543 61.5138 54.5087 61.6419C54.4744 61.7699 54.4924 61.9064 54.5587 62.0212C54.625 62.136 54.7341 62.2198 54.8622 62.2542C54.9903 62.2886 55.1267 62.2707 55.2416 62.2044L58.7172 60.1976C58.832 60.1313 58.9157 60.022 58.95 59.894C58.9843 59.7659 58.9663 59.6294 58.9 59.5146C58.8338 59.3998 58.7246 59.316 58.5965 59.2816C58.4685 59.2473 58.332 59.2652 58.2172 59.3314V59.3314ZM44.9975 67.5423C44.9312 67.4276 44.8221 67.3438 44.6941 67.3095C44.5661 67.2751 44.4297 67.293 44.3149 67.3592L42.5824 68.3592C42.5065 68.4032 42.4434 68.4663 42.3995 68.5424C42.3557 68.6184 42.3325 68.7046 42.3324 68.7923V70.7923C42.3324 70.9249 42.3851 71.0521 42.4789 71.1459C42.5727 71.2396 42.6998 71.2923 42.8324 71.2923C42.9651 71.2923 43.0922 71.2396 43.186 71.1459C43.2798 71.0521 43.3324 70.9249 43.3324 70.7923V69.6583L44.3149 70.2254C44.3846 70.264 44.4627 70.2849 44.5424 70.2863C44.55 70.2867 44.5573 70.2923 44.5649 70.2923C44.5784 70.2923 44.5903 70.2832 44.6037 70.2821C44.6623 70.2776 44.7196 70.2625 44.7729 70.2374C44.7919 70.2297 44.8104 70.2207 44.8283 70.2104C44.8979 70.1695 44.9561 70.1117 44.9975 70.0424C45.0304 69.9855 45.0518 69.9228 45.0605 69.8577C45.0691 69.7925 45.0649 69.7264 45.0479 69.6629C45.0309 69.5995 45.0016 69.54 44.9616 69.4879C44.9216 69.4358 44.8718 69.3921 44.8149 69.3593L43.8327 68.7923L44.8149 68.2255C44.8718 68.1927 44.9217 68.149 44.9617 68.0969C45.0016 68.0447 45.031 67.9853 45.0479 67.9218C45.0649 67.8583 45.0692 67.7922 45.0605 67.727C45.0519 67.6619 45.0304 67.5992 44.9975 67.5423V67.5423ZM51.766 73.3729L48.2904 71.3661C48.1755 71.2998 48.0391 71.2819 47.911 71.3163C47.783 71.3507 47.6738 71.4345 47.6075 71.5493C47.5412 71.6641 47.5233 71.8006 47.5576 71.9286C47.5919 72.0567 47.6756 72.1659 47.7904 72.2323L51.266 74.2391C51.3808 74.3053 51.5173 74.3232 51.6454 74.2889C51.7734 74.2545 51.8826 74.1707 51.9489 74.0559C52.0152 73.941 52.0331 73.8046 51.9988 73.6765C51.9645 73.5485 51.8808 73.4392 51.766 73.3729V73.3729ZM63.1742 94.8177V98.8153C63.1742 98.9479 63.2269 99.0751 63.3206 99.1688C63.4144 99.2626 63.5416 99.3153 63.6742 99.3153C63.8068 99.3153 63.934 99.2626 64.0277 99.1688C64.1215 99.0751 64.1742 98.9479 64.1742 98.8153V94.7372C64.1742 94.6045 64.1215 94.4774 64.0277 94.3836C63.934 94.2898 63.8068 94.2372 63.6742 94.2372C63.5416 94.2372 63.4144 94.2898 63.3206 94.3836C63.2269 94.4774 63.1742 94.6045 63.1742 94.7372V94.8177ZM79.559 113.325L76.0834 111.319C75.9685 111.253 75.8322 111.235 75.7043 111.269C75.5763 111.304 75.4672 111.387 75.4008 111.502C75.358 111.58 75.3376 111.668 75.3418 111.757C75.3259 111.856 75.3405 111.958 75.3836 112.049C75.4268 112.139 75.4964 112.215 75.5833 112.265L79.0589 114.272C79.1158 114.305 79.1785 114.326 79.2436 114.335C79.3086 114.343 79.3748 114.339 79.4382 114.322C79.5015 114.305 79.561 114.276 79.613 114.236C79.6651 114.196 79.7087 114.146 79.7415 114.089C79.7843 114.011 79.8047 113.923 79.8005 113.834C79.8164 113.734 79.8018 113.633 79.7587 113.542C79.7156 113.451 79.6459 113.375 79.559 113.325ZM72.6078 109.312L69.1322 107.305C69.0173 107.239 68.881 107.222 68.753 107.256C68.6251 107.29 68.516 107.374 68.4496 107.489C68.4068 107.567 68.3864 107.655 68.3906 107.744C68.3747 107.843 68.3893 107.945 68.4325 108.035C68.4756 108.126 68.5452 108.202 68.6322 108.252L72.1077 110.259C72.1646 110.292 72.2273 110.313 72.2924 110.322C72.3575 110.33 72.4236 110.326 72.487 110.309C72.5504 110.292 72.6098 110.263 72.6618 110.223C72.7139 110.183 72.7576 110.133 72.7904 110.076C72.8331 109.998 72.8535 109.909 72.8494 109.82C72.8652 109.721 72.8507 109.619 72.8075 109.529C72.7644 109.438 72.6947 109.362 72.6078 109.312V109.312ZM84.017 106.77V110.77C84.017 110.902 84.0696 111.03 84.1634 111.123C84.2572 111.217 84.3844 111.27 84.517 111.27C84.6496 111.27 84.7767 111.217 84.8705 111.123C84.9643 111.03 85.017 110.902 85.017 110.77V106.77C85.017 106.637 84.9643 106.51 84.8705 106.416C84.7767 106.323 84.6496 106.27 84.517 106.27C84.3844 106.27 84.2572 106.323 84.1634 106.416C84.0696 106.51 84.017 106.637 84.017 106.77V106.77ZM86.681 115.514C86.6483 115.458 86.6047 115.408 86.5526 115.368C86.5006 115.328 86.4411 115.298 86.3777 115.281C86.3143 115.264 86.2482 115.26 86.1831 115.269C86.118 115.277 86.0552 115.298 85.9984 115.331L85.017 115.898V114.765C85.017 114.632 84.9643 114.505 84.8705 114.411C84.7767 114.317 84.6496 114.265 84.517 114.265C84.3844 114.265 84.2572 114.317 84.1634 114.411C84.0696 114.505 84.017 114.632 84.017 114.765V115.899L83.0345 115.331C82.9197 115.266 82.7834 115.248 82.6555 115.282C82.5276 115.316 82.4184 115.4 82.3519 115.515C82.3092 115.593 82.2888 115.681 82.2929 115.771C82.277 115.87 82.2916 115.972 82.3348 116.062C82.3779 116.153 82.4475 116.229 82.5345 116.279L83.4484 116.807L82.5345 117.334C82.4197 117.4 82.336 117.509 82.3017 117.637C82.2674 117.766 82.2853 117.902 82.3516 118.017C82.4179 118.132 82.5271 118.215 82.6551 118.25C82.7832 118.284 82.9196 118.266 83.0345 118.2L84.0169 117.633V118.846C84.0169 118.979 84.0696 119.106 84.1634 119.2C84.2571 119.293 84.3843 119.346 84.5169 119.346C84.6495 119.346 84.7767 119.293 84.8705 119.2C84.9642 119.106 85.0169 118.979 85.0169 118.846V117.632L85.9984 118.199C86.1132 118.265 86.2497 118.283 86.3777 118.248C86.5058 118.214 86.615 118.13 86.6812 118.015C86.7475 117.9 86.7655 117.764 86.7312 117.636C86.6969 117.508 86.6132 117.399 86.4984 117.332L85.5865 116.806L86.4984 116.279C86.5853 116.229 86.655 116.153 86.6981 116.062C86.7412 115.971 86.7558 115.87 86.7399 115.77C86.7441 115.681 86.7237 115.593 86.681 115.515V115.514ZM93.6322 111.502C93.5995 111.445 93.5559 111.395 93.5038 111.355C93.4518 111.315 93.3923 111.285 93.3289 111.268C93.2655 111.251 93.1993 111.247 93.1342 111.256C93.0691 111.264 93.0064 111.286 92.9496 111.319L89.474 113.325C89.387 113.375 89.3174 113.451 89.2743 113.542C89.2311 113.633 89.2165 113.734 89.2324 113.834C89.2283 113.923 89.2487 114.011 89.2914 114.089C89.3351 114.165 89.3981 114.228 89.4741 114.272C89.5501 114.316 89.6363 114.339 89.724 114.339L89.7245 114.339L89.725 114.339C89.8128 114.339 89.899 114.316 89.975 114.272L93.4506 112.265C93.5379 112.215 93.6076 112.139 93.6506 112.048C93.6936 111.956 93.7078 111.854 93.6913 111.755C93.695 111.666 93.6746 111.579 93.6322 111.502V111.502ZM100.583 107.489C100.551 107.432 100.507 107.382 100.455 107.342C100.403 107.302 100.344 107.273 100.28 107.256C100.217 107.239 100.151 107.234 100.085 107.243C100.02 107.252 99.9576 107.273 99.9008 107.306L96.4252 109.312C96.3382 109.363 96.2686 109.438 96.2255 109.529C96.1823 109.62 96.1677 109.722 96.1836 109.821C96.1794 109.91 96.1999 109.998 96.2426 110.076C96.2863 110.152 96.3493 110.215 96.4253 110.259C96.5012 110.303 96.5875 110.326 96.6752 110.326L96.6757 110.326L96.6762 110.326C96.7639 110.326 96.8502 110.303 96.9262 110.259L100.402 108.252C100.489 108.202 100.559 108.126 100.602 108.034C100.645 107.943 100.659 107.841 100.643 107.741C100.646 107.653 100.626 107.566 100.583 107.489V107.489ZM105.359 91.2396C105.424 91.2396 105.489 91.2267 105.55 91.2016C105.611 91.1765 105.666 91.1396 105.712 91.0932C105.759 91.0468 105.796 90.9916 105.821 90.9309C105.846 90.8703 105.859 90.8052 105.859 90.7396V86.7401C105.859 86.6075 105.806 86.4803 105.712 86.3865C105.619 86.2928 105.491 86.2401 105.359 86.2401C105.226 86.2401 105.099 86.2928 105.005 86.3865C104.911 86.4803 104.859 86.6075 104.859 86.7401V90.7396C104.859 90.8053 104.872 90.8703 104.897 90.931C104.922 90.9917 104.959 91.0468 105.005 91.0932C105.052 91.1397 105.107 91.1765 105.167 91.2016C105.228 91.2267 105.293 91.2396 105.359 91.2396V91.2396ZM86.681 91.5276C86.6484 91.4706 86.6048 91.4207 86.5527 91.3806C86.5007 91.3405 86.4412 91.3111 86.3778 91.2941C86.3144 91.2771 86.2482 91.2728 86.1831 91.2814C86.118 91.2901 86.0552 91.3115 85.9984 91.3445L85.017 91.9114V90.6976C85.017 90.565 84.9643 90.4378 84.8705 90.344C84.7767 90.2503 84.6496 90.1976 84.517 90.1976C84.3844 90.1976 84.2572 90.2503 84.1634 90.344C84.0696 90.4378 84.017 90.565 84.017 90.6976V91.9117L83.0345 91.3446C82.9197 91.2786 82.7834 91.2608 82.6554 91.2952C82.5275 91.3295 82.4184 91.4131 82.3519 91.5277C82.3181 91.5859 82.2965 91.6503 82.2884 91.7171C82.2762 91.8147 82.293 91.9138 82.3368 92.0018C82.3806 92.0899 82.4494 92.1631 82.5345 92.2122L83.5155 92.7783L82.5345 93.3445C82.4494 93.3937 82.3806 93.4669 82.3368 93.555C82.293 93.643 82.2762 93.7421 82.2884 93.8397V93.8411C82.2966 93.9077 82.3182 93.972 82.3519 94.0301L82.3588 94.037C82.3985 94.101 82.4526 94.1549 82.5168 94.1943C82.5389 94.2073 82.562 94.2185 82.5858 94.2278C82.633 94.2485 82.6831 94.2617 82.7343 94.2668C82.7516 94.2687 82.767 94.2801 82.7846 94.2801C82.7943 94.2801 82.8036 94.2729 82.8134 94.2723C82.8852 94.2692 82.9555 94.2504 83.0193 94.2173C83.0242 94.2147 83.0297 94.216 83.0346 94.2132L84.017 93.6464V94.7791C84.017 94.9117 84.0697 95.0389 84.1634 95.1327C84.2572 95.2265 84.3844 95.2791 84.517 95.2791C84.6496 95.2791 84.7768 95.2265 84.8705 95.1327C84.9643 95.0389 85.017 94.9117 85.017 94.7791V93.644L85.9984 94.2108C86.0681 94.249 86.146 94.2699 86.2254 94.2716C86.2333 94.2719 86.2406 94.2777 86.2484 94.2777C86.2622 94.2777 86.2742 94.2685 86.288 94.2674C86.3466 94.2629 86.4038 94.2479 86.457 94.2229C86.4758 94.2153 86.4941 94.2064 86.5117 94.1963C86.5858 94.1543 86.6465 94.0923 86.6869 94.0173C86.7273 93.9424 86.7457 93.8576 86.7401 93.7726C86.7559 93.6733 86.7413 93.5716 86.6982 93.4808C86.6551 93.3901 86.5854 93.3145 86.4985 93.2641L85.5864 92.7377L86.4985 92.2108C86.5554 92.178 86.6053 92.1343 86.6453 92.0822C86.6852 92.0301 86.7145 91.9706 86.7315 91.9071C86.7485 91.8437 86.7527 91.7775 86.7441 91.7124C86.7354 91.6473 86.714 91.5845 86.681 91.5277V91.5276ZM72.7904 75.4803C72.7576 75.4235 72.714 75.3736 72.6619 75.3336C72.6099 75.2936 72.5504 75.2643 72.487 75.2473C72.4237 75.2303 72.3575 75.2259 72.2924 75.2345C72.2274 75.2431 72.1646 75.2644 72.1078 75.2972L68.6322 77.3045C68.5452 77.355 68.4756 77.4306 68.4325 77.5214C68.3893 77.6122 68.3747 77.7139 68.3906 77.8132C68.3865 77.9023 68.4069 77.9909 68.4496 78.0692C68.4824 78.126 68.5261 78.1759 68.5781 78.2158C68.6302 78.2558 68.6896 78.2851 68.753 78.3021C68.8164 78.3191 68.8825 78.3235 68.9476 78.3149C69.0126 78.3064 69.0754 78.2851 69.1322 78.2523L72.6078 76.2455C72.6948 76.195 72.7644 76.1194 72.8076 76.0286C72.8507 75.9377 72.8652 75.836 72.8493 75.7367C72.8537 75.6474 72.8333 75.5587 72.7904 75.4803ZM79.7416 71.4667C79.7089 71.4097 79.6653 71.3597 79.6133 71.3197C79.5612 71.2796 79.5018 71.2502 79.4383 71.2332C79.3749 71.2162 79.3087 71.2119 79.2436 71.2205C79.1785 71.2291 79.1158 71.2506 79.059 71.2835L75.5834 73.2904C75.4964 73.3408 75.4267 73.4165 75.3836 73.5073C75.3405 73.5982 75.326 73.6999 75.3419 73.7992C75.3374 73.8886 75.3578 73.9775 75.4008 74.056C75.4336 74.1128 75.4772 74.1627 75.5293 74.2026C75.5813 74.2426 75.6407 74.2719 75.7041 74.2889C75.7675 74.3059 75.8336 74.3103 75.8987 74.3017C75.9638 74.2932 76.0265 74.2719 76.0834 74.2391L79.559 72.2323C79.6459 72.1818 79.7156 72.1062 79.7587 72.0153C79.8018 71.9245 79.8164 71.8227 79.8004 71.7234C79.8049 71.634 79.7846 71.5451 79.7416 71.4667V71.4667ZM65.8392 79.4945C65.8065 79.4376 65.7629 79.3877 65.7108 79.3477C65.6588 79.3076 65.5993 79.2783 65.5359 79.2613C65.4725 79.2443 65.4064 79.2399 65.3413 79.2485C65.2762 79.2571 65.2134 79.2785 65.1566 79.3114L64.1742 79.8784V78.7455C64.1742 78.6128 64.1215 78.4857 64.0277 78.3919C63.934 78.2981 63.8068 78.2455 63.6742 78.2455C63.5416 78.2455 63.4144 78.2981 63.3206 78.3919C63.2269 78.4857 63.1742 78.6128 63.1742 78.7455V79.9593L62.1927 79.3924C62.0779 79.3262 61.9414 79.3083 61.8134 79.3427C61.6853 79.377 61.5761 79.4608 61.5099 79.5757C61.4436 79.6905 61.4256 79.8269 61.4599 79.955C61.4942 80.0831 61.578 80.1923 61.6927 80.2586L62.6041 80.785L61.6927 81.3114C61.578 81.3777 61.4942 81.4869 61.4599 81.615C61.4256 81.7431 61.4436 81.8795 61.5099 81.9943C61.5761 82.1092 61.6853 82.193 61.8134 82.2273C61.9414 82.2617 62.0779 82.2438 62.1927 82.1776L63.1742 81.6105V82.8255C63.1742 82.9581 63.2269 83.0853 63.3206 83.1791C63.4144 83.2728 63.5416 83.3255 63.6742 83.3255C63.8068 83.3255 63.934 83.2728 64.0277 83.1791C64.1215 83.0853 64.1742 82.9581 64.1742 82.8255V81.6115L65.1566 82.1786C65.1611 82.1812 65.1664 82.18 65.171 82.1824C65.2358 82.2165 65.3074 82.2356 65.3805 82.2385C65.3894 82.239 65.3978 82.2455 65.4066 82.2455C65.4225 82.2455 65.4362 82.2351 65.452 82.2335C65.5065 82.2286 65.5597 82.2146 65.6095 82.1919C65.6312 82.1833 65.6522 82.1731 65.6724 82.1612C65.7376 82.1216 65.7925 82.067 65.8326 82.0021L65.8392 81.9955C65.9057 81.8805 65.9238 81.7439 65.8896 81.6156C65.8553 81.4873 65.7715 81.3779 65.6566 81.3114L64.7447 80.785L65.6566 80.2587C65.7436 80.2082 65.8132 80.1326 65.8564 80.0418C65.8995 79.951 65.9141 79.8493 65.8982 79.75C65.9024 79.661 65.882 79.5726 65.8392 79.4945ZM72.6078 85.3246L69.1322 83.3182C69.0173 83.2519 68.8807 83.234 68.7526 83.2684C68.6244 83.3027 68.5152 83.3866 68.4488 83.5016C68.3825 83.6165 68.3646 83.7531 68.399 83.8812C68.4334 84.0094 68.5173 84.1186 68.6322 84.1849L70.37 85.1881L72.1078 86.1917C72.1793 86.2328 72.2599 86.2556 72.3424 86.2581C72.4248 86.2605 72.5066 86.2425 72.5805 86.2057C72.6543 86.169 72.7179 86.1145 72.7656 86.0472C72.8134 85.9799 72.8437 85.9018 72.854 85.82V85.8195C72.8662 85.7219 72.8494 85.6229 72.8056 85.5349C72.7618 85.4468 72.693 85.3737 72.6078 85.3246V85.3246ZM79.559 89.3377L76.0834 87.3314C76.0118 87.2903 75.9312 87.2675 75.8488 87.2651C75.7663 87.2626 75.6845 87.2806 75.6107 87.3174C75.5368 87.3542 75.4732 87.4087 75.4255 87.476C75.3778 87.5433 75.3474 87.6213 75.3372 87.7032V87.7037C75.3249 87.8012 75.3418 87.9002 75.3856 87.9883C75.4294 88.0763 75.4982 88.1495 75.5834 88.1986L79.059 90.2054C79.1305 90.2466 79.2111 90.2694 79.2936 90.2719C79.3761 90.2743 79.458 90.2563 79.5318 90.2195C79.6057 90.1826 79.6693 90.1281 79.717 90.0607C79.7646 89.9933 79.7949 89.9152 79.805 89.8333L79.8052 89.8327C79.8174 89.7351 79.8005 89.6361 79.7567 89.5481C79.7129 89.46 79.6441 89.3869 79.559 89.3377V89.3377Z" fill="url(#paint11_radial_1102_291)"/>
<g opacity="0.2">
<path d="M66.8227 140.465C66.9769 140.516 67.111 140.615 67.2063 140.746C67.3017 140.878 67.3534 141.036 67.3543 141.199C67.3552 141.361 67.3053 141.52 67.2115 141.653C67.1176 141.786 66.9846 141.886 66.831 141.939C66.4366 142.139 66.0005 142.243 65.5583 142.243C65.116 142.243 64.6799 142.139 64.2854 141.939L48.8091 133.004C48.6555 132.952 48.522 132.853 48.4271 132.721C48.3323 132.59 48.2808 132.432 48.2799 132.27C48.279 132.107 48.3287 131.949 48.422 131.816C48.5154 131.683 48.6478 131.583 48.8008 131.529C49.195 131.328 49.6311 131.224 50.0736 131.224C50.516 131.224 50.9521 131.328 51.3464 131.529L66.8227 140.465Z" fill="#003067"/>
</g>
<path d="M59.6754 132.246L61.6404 131.104L62.6024 132.773L60.6374 133.915L59.6754 132.246Z" fill="#0078D4"/>
<path d="M61.6472 128.69C61.0579 129.016 61.0548 130.1 61.6404 131.104C61.3129 131.294 60.9854 131.485 60.6578 131.675C60.4068 131.821 60.1558 131.967 59.9048 132.113L59.6753 132.246C59.0898 131.242 59.0928 130.158 59.6822 129.832L61.6472 128.69Z" fill="#0078D4"/>
<path d="M56.5315 128.175C54.436 126.81 52.6923 124.971 51.442 122.805C50.1918 120.64 49.4704 118.21 49.3366 115.713C49.343 113.442 50.1485 111.842 51.4454 111.088L49.4802 112.23C48.1835 112.984 47.3781 114.584 47.3716 116.855C47.5055 119.352 48.2269 121.782 49.4771 123.947C50.7272 126.113 52.4709 127.952 54.5663 129.317C56.5686 130.473 58.3863 130.578 59.6997 129.815L61.6649 128.673C60.3513 129.436 58.5337 129.331 56.5315 128.175Z" fill="#1F56A3"/>
<path d="M59.6823 129.832L61.6473 128.69C61.8157 128.614 62.0011 128.584 62.185 128.603C62.3688 128.621 62.5445 128.688 62.6945 128.796L60.7295 129.938C60.5795 129.83 60.4038 129.763 60.22 129.745C60.0361 129.726 59.8507 129.756 59.6823 129.832V129.832Z" fill="#0078D4"/>
<path d="M61.7734 131.04L63.7384 129.898L64.7064 131.573L62.7414 132.715L61.7734 131.04Z" fill="#0078D4"/>
<path d="M54.6078 112.731C56.7037 114.094 58.4475 115.933 59.6967 118.098C60.946 120.263 61.6652 122.693 61.7957 125.19C61.7827 129.77 58.5466 131.614 54.5608 129.313C52.4641 127.951 50.7192 126.113 49.4687 123.949C48.2182 121.784 47.4975 119.355 47.3655 116.858C47.3785 112.278 50.622 110.43 54.6078 112.731Z" fill="url(#paint12_linear_1102_291)"/>
<path d="M60.7295 129.937L62.6945 128.795C63.1312 129.068 63.4908 129.447 63.7389 129.898L61.7739 131.04C61.5258 130.589 61.1662 130.21 60.7295 129.937V129.937Z" fill="#0078D4"/>
<path d="M68.7691 138.611L64.7063 131.573C65.4174 130.79 65.9637 129.871 66.3126 128.873C66.6616 127.874 66.806 126.815 66.7373 125.759C66.7555 119.306 62.2044 111.423 56.5882 108.18C53.7619 106.549 51.1979 106.399 49.3456 107.475L47.3806 108.617C49.2328 107.541 51.7969 107.691 54.6232 109.322C60.2395 112.565 64.7905 120.448 64.7723 126.901C64.8409 127.957 64.6965 129.016 64.3475 130.015C63.9986 131.013 63.4523 131.932 62.7411 132.715L66.8041 139.753C67.3806 140.751 67.3776 141.835 66.7973 142.166L68.7623 141.024C69.3428 140.693 69.3458 139.609 68.7691 138.611Z" fill="#1F56A3"/>
<path d="M66.8041 139.753L62.7411 132.715C63.4523 131.932 63.9987 131.013 64.3476 130.015C64.6966 129.016 64.841 127.957 64.7723 126.901C64.7905 120.448 60.2396 112.565 54.6232 109.322C49.0069 106.08 44.4262 108.69 44.4078 115.144C44.3894 121.597 48.9407 129.48 54.5569 132.723C55.4405 133.315 56.4333 133.726 57.4774 133.931C58.5215 134.135 59.596 134.13 60.638 133.915L64.6968 140.953C64.9461 141.405 65.3073 141.786 65.7457 142.058C65.8962 142.167 66.0726 142.234 66.2571 142.253C66.4417 142.272 66.628 142.242 66.7974 142.166C67.3776 141.835 67.3807 140.751 66.8041 139.753ZM54.5664 129.317C52.471 127.952 50.7273 126.113 49.4771 123.947C48.2269 121.782 47.5055 119.352 47.3716 116.855C47.3847 112.283 50.635 110.431 54.6135 112.728C56.7089 114.092 58.4527 115.932 59.7029 118.098C60.9532 120.263 61.6745 122.693 61.8084 125.19C61.7955 129.762 58.545 131.614 54.5664 129.317Z" fill="#0078D4"/>
</g>
<defs>
<linearGradient id="paint0_linear_1102_291" x1="80.0339" y1="8.27838" x2="80.0339" y2="179.694" gradientUnits="userSpaceOnUse">
<stop stop-color="#00ABDE"/>
<stop offset="1" stop-color="#007ED8"/>
</linearGradient>
<linearGradient id="paint1_linear_1102_291" x1="84.5391" y1="92.8991" x2="63.6916" y2="56.7901" gradientUnits="userSpaceOnUse">
<stop stop-color="#003067"/>
<stop offset="1" stop-color="#005BA1"/>
</linearGradient>
<linearGradient id="paint2_linear_1102_291" x1="100.151" y1="83.8403" x2="89.7445" y2="65.8149" gradientUnits="userSpaceOnUse">
<stop stop-color="#003067"/>
<stop offset="1" stop-color="#005BA1"/>
</linearGradient>
<linearGradient id="paint3_linear_1102_291" x1="89.7472" y1="65.8595" x2="79.3054" y2="47.7738" gradientUnits="userSpaceOnUse">
<stop stop-color="#003067"/>
<stop offset="1" stop-color="#005BA1"/>
</linearGradient>
<linearGradient id="paint4_linear_1102_291" x1="63.697" y1="128.879" x2="42.8495" y2="92.7696" gradientUnits="userSpaceOnUse">
<stop stop-color="#50E6FF"/>
<stop offset="1" stop-color="#9CEBFF"/>
</linearGradient>
<linearGradient id="paint5_linear_1102_291" x1="79.3093" y1="119.82" x2="68.9023" y2="101.794" gradientUnits="userSpaceOnUse">
<stop stop-color="#50E6FF"/>
<stop offset="1" stop-color="#9CEBFF"/>
</linearGradient>
<linearGradient id="paint6_linear_1102_291" x1="68.9051" y1="101.839" x2="58.4634" y2="83.7532" gradientUnits="userSpaceOnUse">
<stop stop-color="#50E6FF"/>
<stop offset="1" stop-color="#9CEBFF"/>
</linearGradient>
<linearGradient id="paint7_linear_1102_291" x1="105.381" y1="128.879" x2="84.5338" y2="92.7696" gradientUnits="userSpaceOnUse">
<stop stop-color="#0078D4"/>
<stop offset="1" stop-color="#1B93EB"/>
</linearGradient>
<linearGradient id="paint8_linear_1102_291" x1="120.994" y1="119.82" x2="110.587" y2="101.794" gradientUnits="userSpaceOnUse">
<stop stop-color="#0078D4"/>
<stop offset="1" stop-color="#1B93EB"/>
</linearGradient>
<linearGradient id="paint9_linear_1102_291" x1="110.589" y1="101.839" x2="100.148" y2="83.7532" gradientUnits="userSpaceOnUse">
<stop stop-color="#0078D4"/>
<stop offset="1" stop-color="#1B93EB"/>
</linearGradient>
<radialGradient id="paint10_radial_1102_291" cx="0" cy="0" r="1" gradientUnits="userSpaceOnUse" gradientTransform="translate(83.3992 127.003) scale(6.23584 6.23584)">
<stop offset="0.04816" stop-color="#C3F1FF"/>
<stop offset="1" stop-color="#50E6FF"/>
</radialGradient>
<radialGradient id="paint11_radial_1102_291" cx="0" cy="0" r="1" gradientUnits="userSpaceOnUse" gradientTransform="translate(84.5165 92.7778) scale(45.4813 45.4813)">
<stop stop-color="white" stop-opacity="0"/>
<stop offset="1" stop-color="white"/>
</radialGradient>
<linearGradient id="paint12_linear_1102_291" x1="54.5806" y1="130.303" x2="54.5806" y2="111.741" gradientUnits="userSpaceOnUse">
<stop stop-color="white" stop-opacity="0.2"/>
<stop offset="1" stop-color="white" stop-opacity="0"/>
</linearGradient>
<clipPath id="clip0_1102_291">
<rect width="159.356" height="188" fill="white" transform="translate(0.355469)"/>
</clipPath>
</defs>
</svg>
