<svg width="100" height="100" viewBox="0 0 100 100" fill="none" xmlns="http://www.w3.org/2000/svg">
<g clip-path="url(#clip0_1042_426)">
<path d="M49.6401 96.4499C40.382 96.4499 31.3317 93.7045 23.6339 88.561C15.936 83.4174 9.93624 76.1067 6.3933 67.5533C2.85036 58.9999 1.92337 49.588 3.72954 40.5077C5.53571 31.4275 9.99394 23.0867 16.5404 16.5402C23.0869 9.99372 31.4277 5.5355 40.5079 3.72933C49.5882 1.92315 59.0001 2.85015 67.5535 6.39308C76.1069 9.93602 83.4176 15.9358 88.5612 23.6336C93.7047 31.3315 96.4501 40.3817 96.4501 49.6399C96.4505 55.7872 95.24 61.8744 92.8878 67.5538C90.5355 73.2332 87.0875 78.3937 82.7407 82.7405C78.3939 87.0873 73.2335 90.5353 67.554 92.8876C61.8746 95.2398 55.7874 96.4503 49.6401 96.4499V96.4499Z" fill="url(#paint0_linear_1042_426)"/>
<path fill-rule="evenodd" clip-rule="evenodd" d="M95.54 49.6399C95.54 58.718 92.848 67.5923 87.8045 75.1406C82.7609 82.6888 75.5923 88.5719 67.2052 92.046C58.818 95.52 49.5891 96.429 40.6854 94.6579C31.7816 92.8869 23.603 88.5153 17.1838 82.0961C10.7646 75.6769 6.39302 67.4983 4.62196 58.5945C2.85089 49.6908 3.75987 40.4618 7.23393 32.0747C10.708 23.6876 16.5911 16.519 24.1393 11.4754C31.6875 6.43187 40.5618 3.73988 49.64 3.73988C55.6677 3.73986 61.6363 4.92708 67.2052 7.23377C72.774 9.54045 77.834 12.9214 82.0963 17.1836C86.3585 21.4458 89.7394 26.5058 92.0461 32.0747C94.3528 37.6435 95.54 43.6122 95.54 49.6399V49.6399ZM49.64 -0.000106449C59.4579 -0.000106449 69.0552 2.91123 77.2185 8.36574C85.3818 13.8203 91.7442 21.573 95.5014 30.6435C99.2585 39.714 100.242 49.695 98.3262 59.3242C96.4108 68.9534 91.6831 77.7984 84.7408 84.7407C77.7985 91.683 68.9535 96.4107 59.3243 98.3261C49.6951 100.241 39.7141 99.2584 30.6436 95.5013C21.5731 91.7441 13.8204 85.3816 8.36584 77.2184C2.91133 69.0551 -1.61629e-06 59.4577 3.61524e-07 49.6399C-0.000786426 43.1208 1.28265 36.6655 3.77702 30.6425C6.27138 24.6196 9.92781 19.147 14.5375 14.5374C19.1471 9.9277 24.6197 6.27127 30.6427 3.77691C36.6656 1.28254 43.121 -0.000894549 49.64 -0.000106449V-0.000106449Z" fill="#F2F1F0"/>
<path fill-rule="evenodd" clip-rule="evenodd" d="M92.7296 49.64C92.7296 58.1624 90.2024 66.4934 85.4676 73.5795C80.7328 80.6656 74.0031 86.1886 66.1294 89.45C58.2557 92.7113 49.5918 93.5647 41.2331 91.902C32.8745 90.2394 25.1966 86.1355 19.1703 80.1092C13.1441 74.083 9.04017 66.4051 7.37753 58.0464C5.7149 49.6878 6.56822 41.0238 9.8296 33.1502C13.091 25.2765 18.6139 18.5468 25.7 13.812C32.7862 9.07718 41.1172 6.55 49.6396 6.55C55.2983 6.54965 60.9017 7.66397 66.1298 9.82933C71.3579 11.9947 76.1082 15.1687 80.1096 19.17C84.1109 23.1713 87.2849 27.9217 89.4502 33.1498C91.6156 38.3778 92.7299 43.9812 92.7296 49.64ZM49.6396 2.81C58.9017 2.81 67.9558 5.55653 75.6569 10.7023C83.3581 15.848 89.3604 23.1619 92.9049 31.7189C96.4493 40.276 97.3767 49.6919 95.5697 58.7761C93.7628 67.8602 89.3027 76.2045 82.7534 82.7538C76.2041 89.3031 67.8598 93.7632 58.7757 95.5702C49.6915 97.3771 40.2756 96.4497 31.7185 92.9053C23.1614 89.3608 15.8476 83.3585 10.7018 75.6574C5.5561 67.9562 2.80957 58.9021 2.80957 49.64C2.81076 37.2203 7.74501 25.3096 16.5271 16.5275C25.3091 7.74544 37.2198 2.81119 49.6396 2.81V2.81Z" fill="#0078D4"/>
<path fill-rule="evenodd" clip-rule="evenodd" d="M92.7301 49.7835C92.7301 58.3059 90.2029 66.6369 85.4681 73.723C80.7333 80.8091 74.0036 86.3321 66.1299 89.5935C58.2562 92.8549 49.5923 93.7082 41.2336 92.0455C32.875 90.3829 25.1971 86.279 19.1708 80.2527C13.1446 74.2265 9.04066 66.5486 7.37802 58.1899C5.71538 49.8313 6.56871 41.1673 9.83009 33.2937C13.0915 25.42 18.6144 18.6903 25.7005 13.9555C32.7867 9.22069 41.1177 6.69351 49.6401 6.69351C55.2988 6.69316 60.9022 7.80748 66.1303 9.97284C71.3584 12.1382 76.1087 15.3122 80.1101 19.3135C84.1114 23.3149 87.2854 28.0652 89.4507 33.2933C91.6161 38.5213 92.7304 44.1248 92.7301 49.7835V49.7835ZM49.6401 2.95351C58.9022 2.95351 67.9563 5.70004 75.6574 10.8458C83.3586 15.9915 89.3609 23.3054 92.9053 31.8624C96.4498 40.4195 97.3772 49.8355 95.5702 58.9196C93.7633 68.0037 89.3032 76.348 82.7539 82.8973C76.2046 89.4466 67.8603 93.9067 58.7761 95.7137C49.692 97.5206 40.2761 96.5932 31.719 93.0488C23.1619 89.5043 15.8481 83.502 10.7023 75.8009C5.55659 68.0997 2.81006 59.0456 2.81006 49.7835C2.81124 37.3638 7.74548 25.4531 16.5276 16.671C25.3096 7.88892 37.2203 2.95467 49.64 2.95348L49.6401 2.95351Z" fill="#0078D4"/>
<path opacity="0.2" d="M26.8862 63.8489H72.3833C72.6223 63.8482 72.8513 63.7529 73.0204 63.5839C73.1894 63.4149 73.2847 63.1858 73.2854 62.9468V27.4258H25.9841V62.9468C25.9848 63.1858 26.0801 63.4149 26.2491 63.5839C26.4182 63.7529 26.6472 63.8482 26.8862 63.8489V63.8489Z" fill="#003067"/>
<path d="M26.8862 61.9917H72.3833C72.6223 61.991 72.8513 61.8957 73.0204 61.7267C73.1894 61.5576 73.2847 61.3286 73.2854 61.0895V25.5685H25.9841V61.0895C25.9848 61.3286 26.0801 61.5576 26.2491 61.7267C26.4182 61.8957 26.6472 61.991 26.8862 61.9917V61.9917Z" fill="#F2F2F2"/>
<path d="M25.9841 29.5002H73.2854V25.2602C73.2856 25.1693 73.2679 25.0793 73.2332 24.9952C73.1986 24.9112 73.1476 24.8349 73.0834 24.7706C73.0191 24.7063 72.9428 24.6554 72.8587 24.6207C72.7747 24.586 72.6847 24.5683 72.5938 24.5686H26.6758C26.5849 24.5683 26.4948 24.586 26.4108 24.6207C26.3268 24.6554 26.2504 24.7063 26.1862 24.7706C26.1219 24.8349 26.071 24.9112 26.0363 24.9952C26.0016 25.0793 25.9839 25.1693 25.9841 25.2602L25.9841 29.5002Z" fill="url(#paint1_linear_1042_426)"/>
<path d="M29.6228 28.3348C29.86 28.3341 30.0916 28.263 30.2884 28.1306C30.4851 27.9982 30.6382 27.8105 30.7283 27.5911C30.8183 27.3717 30.8413 27.1306 30.7943 26.8981C30.7473 26.6657 30.6325 26.4524 30.4642 26.2852C30.296 26.118 30.082 26.0045 29.8493 25.959C29.6165 25.9134 29.3755 25.9379 29.1567 26.0294C28.9379 26.1208 28.7511 26.2751 28.6199 26.4727C28.4888 26.6703 28.4192 26.9024 28.42 27.1395C28.4187 27.2975 28.449 27.4541 28.5091 27.6002C28.5691 27.7463 28.6578 27.8789 28.7699 27.9903C28.8819 28.1016 29.0151 28.1895 29.1616 28.2486C29.3081 28.3078 29.4649 28.3371 29.6228 28.3348V28.3348Z" fill="#50E6FF"/>
<path d="M69.0925 32.5522H30.1679C29.655 32.5522 29.2393 32.968 29.2393 33.4809V57.6781C29.2393 58.1909 29.655 58.6067 30.1679 58.6067H69.0925C69.6054 58.6067 70.0211 58.1909 70.0211 57.6781V33.4809C70.0211 32.968 69.6054 32.5522 69.0925 32.5522Z" fill="#E8E8E8"/>
<path d="M46.4128 49.8756H52.8569V56.3198H46.4128V49.8756ZM38.8945 41.2833H45.3387V34.8392H39.7941C39.6759 34.8392 39.559 34.8624 39.4498 34.9076C39.3407 34.9528 39.2416 35.0191 39.158 35.1026C39.0745 35.1861 39.0082 35.2853 38.963 35.3944C38.9178 35.5036 38.8946 35.6205 38.8946 35.7387L38.8945 41.2833ZM39.7941 56.3198H45.3388V49.8756H38.8945V55.4203C38.8945 55.5384 38.9178 55.6554 38.963 55.7645C39.0082 55.8736 39.0745 55.9728 39.158 56.0563C39.2415 56.1398 39.3407 56.2061 39.4498 56.2513C39.5589 56.2965 39.6759 56.3198 39.794 56.3198H39.7941ZM38.8946 48.8015H45.3388V42.3574H38.8945L38.8946 48.8015ZM53.931 56.3198H59.4891C59.7253 56.3162 59.9507 56.2199 60.1165 56.0516C60.2823 55.8833 60.3752 55.6565 60.3752 55.4203V49.8756H53.931L53.931 56.3198ZM46.4128 48.8015H52.857V42.3574H46.4128L46.4128 48.8015ZM53.931 48.8015H60.3752V42.3574H53.931L53.931 48.8015ZM53.931 34.8392V41.2833H60.3752V35.7387C60.3752 35.5024 60.2823 35.2756 60.1165 35.1073C59.9507 34.939 59.7253 34.8427 59.4891 34.8392H53.931ZM46.4128 41.2833H52.857V34.8392H46.4128L46.4128 41.2833Z" fill="url(#paint2_linear_1042_426)"/>
<path opacity="0.2" d="M49.5503 40.8398C47.4001 40.8405 45.2778 40.3526 43.3438 39.4129C41.4098 38.4732 39.7146 37.1063 38.3862 35.4155C38.1547 35.1216 37.9835 34.7849 37.8824 34.4247C37.7813 34.0644 37.7523 33.6878 37.797 33.3163C37.8417 32.9449 37.9593 32.5859 38.143 32.26C38.3268 31.934 38.573 31.6476 38.8677 31.417C39.3692 31.0261 39.9866 30.8132 40.6225 30.812C41.0515 30.8111 41.475 30.9075 41.8612 31.0941C42.2474 31.2807 42.5862 31.5525 42.852 31.8891C44.0505 33.4196 45.737 34.4933 47.6308 34.9315C49.5246 35.3697 51.5114 35.1459 53.2602 34.2973C53.2472 34.0436 53.2709 33.7894 53.3305 33.5425C53.4409 33.0871 53.669 32.6688 53.9919 32.3293C54.3148 31.9898 54.7212 31.741 55.1704 31.6079L58.355 30.6787L58.8159 30.6557C59.2191 30.6558 59.6169 30.7473 59.9797 30.9232C60.3424 31.0991 60.6606 31.355 60.9103 31.6715C61.16 31.988 61.3348 32.357 61.4214 32.7507C61.5081 33.1445 61.5044 33.5527 61.4106 33.9448L60.6938 36.8823C60.6013 37.2597 60.4275 37.6124 60.1847 37.9158C59.9418 38.2191 59.6357 38.4658 59.2877 38.6387C58.9396 38.8115 58.5581 38.9063 58.1696 38.9165C57.7812 38.9267 57.3952 38.8521 57.0386 38.6977C54.7897 40.0931 52.1968 40.8348 49.5503 40.8398V40.8398Z" fill="#767676"/>
<path d="M58.8159 32.6558L58.6968 32.6626L55.7358 33.5264C55.6234 33.5595 55.5217 33.6217 55.4409 33.7065C55.3601 33.7914 55.3029 33.896 55.2752 34.0099C55.2476 34.1238 55.2503 34.2429 55.2831 34.3554C55.316 34.4679 55.3778 34.5698 55.4624 34.6509L55.8643 35.035C53.6691 36.6899 50.9124 37.4178 48.1865 37.0622C45.4605 36.7066 42.9828 35.2959 41.2857 33.1333C41.2067 33.033 41.106 32.952 40.9911 32.8963C40.8762 32.8406 40.7502 32.8118 40.6226 32.812C40.4336 32.8124 40.2502 32.8756 40.1011 32.9917C40.0134 33.0601 39.9401 33.1452 39.8855 33.2421C39.8308 33.3389 39.7959 33.4456 39.7826 33.556C39.7694 33.6665 39.7781 33.7784 39.8083 33.8854C39.8385 33.9925 39.8895 34.0925 39.9585 34.1797C40.949 35.4407 42.1786 36.494 43.5768 37.279C44.975 38.0641 46.5143 38.5656 48.1066 38.7547C49.699 38.9439 51.313 38.817 52.8562 38.3814C54.3994 37.9457 55.8415 37.2099 57.0999 36.216L57.6392 36.7314C57.7238 36.8127 57.8284 36.8702 57.9424 36.8982C58.0564 36.9262 58.1757 36.9237 58.2884 36.8908C58.4011 36.858 58.5031 36.7961 58.5842 36.7113C58.6654 36.6264 58.7227 36.5217 58.7505 36.4077L59.4653 33.481C59.489 33.3827 59.49 33.2804 59.4684 33.1817C59.4468 33.0829 59.4031 32.9904 59.3406 32.911C59.2781 32.8316 59.1984 32.7674 59.1076 32.7231C59.0167 32.6789 58.917 32.6559 58.8159 32.6558V32.6558Z" fill="white"/>
<path d="M40.4448 21.4131L40.5639 21.4062L43.5229 20.5425C43.6357 20.5098 43.7378 20.4479 43.819 20.3632C43.9002 20.2785 43.9577 20.1738 43.9856 20.0598C44.0136 19.9458 44.0109 19.8265 43.9781 19.7138C43.9452 19.6011 43.8832 19.4991 43.7983 19.418L43.396 19.0334C45.5913 17.3787 48.348 16.651 51.074 17.0067C53.8 17.3624 56.2778 18.773 57.9751 20.9355C58.054 21.0358 58.1547 21.1169 58.2696 21.1725C58.3845 21.2282 58.5105 21.257 58.6382 21.2568C58.8275 21.2564 59.0114 21.1928 59.1606 21.0762C59.2481 21.0077 59.3211 20.9226 59.3756 20.8258C59.43 20.729 59.4648 20.6224 59.478 20.5121C59.4912 20.4018 59.4824 20.29 59.4522 20.1831C59.4221 20.0762 59.3711 19.9763 59.3022 19.8892C58.3117 18.6282 57.0821 17.575 55.6839 16.7899C54.2857 16.0049 52.7464 15.5034 51.1541 15.3142C49.5618 15.125 47.9478 15.2518 46.4045 15.6873C44.8613 16.1229 43.4192 16.8586 42.1607 17.8524L41.6206 17.3359C41.5358 17.2549 41.4312 17.1976 41.3172 17.1699C41.2033 17.1421 41.084 17.1448 40.9715 17.1778C40.8589 17.2108 40.757 17.2728 40.6761 17.3576C40.5951 17.4425 40.5379 17.5472 40.5102 17.6611L39.7954 20.5879C39.7718 20.6862 39.7707 20.7885 39.7923 20.8872C39.8139 20.9859 39.8576 21.0785 39.9201 21.1579C39.9826 21.2373 40.0623 21.3015 40.1532 21.3457C40.244 21.3899 40.3437 21.413 40.4448 21.4131L40.4448 21.4131Z" fill="white"/>
<path d="M34.1359 60.474L49.4499 51.637L64.7599 60.474V78.157L49.4499 86.994L34.1169 78.157V60.535L34.1359 60.474Z" fill="url(#paint3_linear_1042_426)"/>
<path d="M34.158 60.505L49.434 69.29L49.436 86.966L34.136 78.149V60.566L34.158 60.505Z" fill="#0078D4"/>
<path opacity="0.9" d="M41.8992 70.9456C41.8839 70.9342 41.8656 70.9273 41.8466 70.9255C41.8275 70.9238 41.8084 70.9274 41.7912 70.9358L38.4657 72.8196C38.3674 72.8746 38.4342 73.1044 38.5717 73.183L40.3396 74.0257L40.4496 74.0885C40.4944 74.1178 40.5316 74.1573 40.5582 74.2037C40.5848 74.2502 40.6001 74.3022 40.6028 74.3557L40.5851 78.351C40.5933 78.5 40.6361 78.645 40.7101 78.7746C40.7841 78.9041 40.8872 79.0147 41.0114 79.0974L42.3294 79.8831C42.5729 80.0226 42.7674 79.9146 42.7694 79.6396L42.7831 75.6265C42.7831 75.5283 42.8499 75.489 42.9363 75.5381L43.0463 75.601L45.105 76.8621C45.2425 76.9407 45.3112 76.7894 45.215 76.6225L42.0073 71.0596C41.9813 71.0132 41.9442 70.974 41.8992 70.9456Z" fill="white"/>
<path opacity="0.5" d="M39.6778 63.6836L54.6064 54.6125L59.2873 57.3095L44.3587 66.3865V69.2603C44.3589 69.3044 44.3455 69.3476 44.3202 69.3838C44.2949 69.42 44.2591 69.4476 44.2176 69.4626C44.1761 69.4777 44.1309 69.4795 44.0883 69.4679C44.0457 69.4563 44.0077 69.4318 43.9796 69.3978L41.9996 67.0406C41.973 67.009 41.9381 66.9856 41.8988 66.9731C41.8595 66.9606 41.8175 66.9595 41.7776 66.9699L39.937 67.3628C39.9059 67.3695 39.8736 67.3692 39.8426 67.3619C39.8116 67.3545 39.7826 67.3404 39.7578 67.3204C39.7329 67.3005 39.7129 67.2752 39.699 67.2465C39.6852 67.2178 39.6779 67.1864 39.6777 67.1545L39.6778 63.6836Z" fill="white"/>
</g>
<defs>
<linearGradient id="paint0_linear_1042_426" x1="47.8698" y1="-15.1532" x2="51.8525" y2="130.615" gradientUnits="userSpaceOnUse">
<stop stop-color="#00ABDE"/>
<stop offset="1" stop-color="#007ED8"/>
</linearGradient>
<linearGradient id="paint1_linear_1042_426" x1="25.9841" y1="27.0344" x2="73.3702" y2="27.0344" gradientUnits="userSpaceOnUse">
<stop stop-color="#005BA1"/>
<stop offset="0.26" stop-color="#00589D"/>
<stop offset="0.53" stop-color="#004F90"/>
<stop offset="0.8" stop-color="#003F7C"/>
<stop offset="1" stop-color="#003067"/>
</linearGradient>
<linearGradient id="paint2_linear_1042_426" x1="49.6348" y1="34.8392" x2="49.6348" y2="56.3198" gradientUnits="userSpaceOnUse">
<stop stop-color="#008BF1"/>
<stop offset="0.22" stop-color="#0086EC"/>
<stop offset="0.49" stop-color="#0078DD"/>
<stop offset="0.79" stop-color="#0061C4"/>
<stop offset="1" stop-color="#004DAE"/>
</linearGradient>
<linearGradient id="paint3_linear_1042_426" x1="49.4382" y1="91.4961" x2="49.4382" y2="45.0837" gradientUnits="userSpaceOnUse">
<stop stop-color="#0078D4"/>
<stop offset="1" stop-color="#83B9F9"/>
</linearGradient>
<clipPath id="clip0_1042_426">
<rect width="99.2799" height="99.28" fill="white"/>
</clipPath>
</defs>
</svg>
