<svg width="100" height="100" viewBox="0 0 100 100" fill="none" xmlns="http://www.w3.org/2000/svg">
<g clip-path="url(#clip0_930_1021)">
<path d="M49.6401 96.45C40.382 96.45 31.3317 93.7047 23.6339 88.5611C15.936 83.4176 9.93624 76.1068 6.3933 67.5534C2.85036 59 1.92337 49.5881 3.72954 40.5078C5.53571 31.4276 9.99394 23.0868 16.5404 16.5403C23.0869 9.99384 31.4277 5.53562 40.5079 3.72945C49.5882 1.92327 59.0001 2.85027 67.5535 6.39321C76.1069 9.93614 83.4176 15.9359 88.5612 23.6338C93.7047 31.3316 96.4501 40.3819 96.4501 49.64C96.4505 55.7873 95.24 61.8745 92.8878 67.5539C90.5355 73.2334 87.0875 78.3938 82.7407 82.7406C78.3939 87.0874 73.2335 90.5354 67.554 92.8877C61.8746 95.2399 55.7874 96.4504 49.6401 96.45V96.45Z" fill="url(#paint0_linear_930_1021)"/>
<path fill-rule="evenodd" clip-rule="evenodd" d="M95.54 49.64C95.54 58.7182 92.848 67.5925 87.8045 75.1407C82.7609 82.6889 75.5923 88.572 67.2052 92.0461C58.818 95.5201 49.5891 96.4291 40.6854 94.658C31.7816 92.887 23.603 88.5154 17.1838 82.0962C10.7646 75.677 6.39302 67.4984 4.62196 58.5946C2.85089 49.6909 3.75987 40.462 7.23393 32.0748C10.708 23.6877 16.5911 16.5191 24.1393 11.4755C31.6875 6.43199 40.5618 3.74 49.64 3.74C55.6677 3.73998 61.6363 4.9272 67.2052 7.23388C72.774 9.54057 77.834 12.9215 82.0963 17.1837C86.3585 21.446 89.7394 26.5059 92.0461 32.0748C94.3528 37.6437 95.54 43.6123 95.54 49.64V49.64ZM49.64 3.62732e-07C59.4579 3.62732e-07 69.0553 2.91134 77.2185 8.36585C85.3818 13.8204 91.7442 21.5731 95.5014 30.6436C99.2585 39.7141 100.242 49.6951 98.3262 59.3243C96.4108 68.9535 91.6831 77.7985 84.7408 84.7408C77.7985 91.6831 68.9535 96.4108 59.3243 98.3262C49.6951 100.242 39.7141 99.2585 30.6436 95.5014C21.5731 91.7442 13.8204 85.3818 8.36585 77.2185C2.91134 69.0553 3.62732e-07 59.4579 3.62732e-07 49.64C-0.000787738 43.121 1.28265 36.6656 3.77702 30.6427C6.27138 24.6197 9.9278 19.1471 14.5375 14.5375C19.1471 9.9278 24.6197 6.27138 30.6427 3.77702C36.6656 1.28265 43.121 -0.000787738 49.64 3.62732e-07V3.62732e-07Z" fill="#F2F1F0"/>
<path fill-rule="evenodd" clip-rule="evenodd" d="M92.7296 49.6401C92.7296 58.1625 90.2024 66.4935 85.4676 73.5796C80.7328 80.6657 74.0031 86.1887 66.1294 89.4501C58.2557 92.7114 49.5918 93.5648 41.2331 91.9021C32.8745 90.2395 25.1966 86.1356 19.1703 80.1093C13.1441 74.0831 9.04017 66.4052 7.37753 58.0465C5.7149 49.6879 6.56822 41.0239 9.8296 33.1503C13.091 25.2766 18.6139 18.5469 25.7 13.8121C32.7862 9.07727 41.1172 6.55009 49.6396 6.55009C55.2983 6.54974 60.9017 7.66407 66.1298 9.82942C71.3579 11.9948 76.1082 15.1687 80.1096 19.1701C84.1109 23.1714 87.2849 27.9218 89.4502 33.1499C91.6156 38.3779 92.7299 43.9813 92.7296 49.6401V49.6401ZM49.6396 2.81009C58.9017 2.81009 67.9558 5.55662 75.6569 10.7024C83.3581 15.8481 89.3604 23.162 92.9049 31.719C96.4493 40.2761 97.3767 49.692 95.5697 58.7762C93.7628 67.8603 89.3027 76.2046 82.7534 82.7539C76.2041 89.3032 67.8598 93.7633 58.7757 95.5703C49.6915 97.3772 40.2756 96.4498 31.7185 92.9054C23.1614 89.3609 15.8476 83.3586 10.7018 75.6574C5.5561 67.9563 2.80957 58.9022 2.80957 49.6401C2.81076 37.2204 7.745 25.3097 16.5271 16.5276C25.3091 7.7455 37.2198 2.81125 49.6396 2.81006V2.81009Z" fill="#0078D4"/>
<path fill-rule="evenodd" clip-rule="evenodd" d="M92.7637 49.6401C92.7637 58.1625 90.2366 66.4935 85.5018 73.5796C80.767 80.6657 74.0372 86.1887 66.1636 89.4501C58.2899 92.7114 49.6259 93.5648 41.2673 91.9021C32.9087 90.2395 25.2308 86.1356 19.2045 80.1093C13.1783 74.0831 9.07435 66.4052 7.41171 58.0465C5.74908 49.6879 6.6024 41.0239 9.86378 33.1503C13.1252 25.2766 18.6481 18.5469 25.7342 13.8121C32.8203 9.07727 41.1514 6.55009 49.6738 6.55009C55.3325 6.54974 60.9359 7.66407 66.164 9.82942C71.3921 11.9948 76.1424 15.1687 80.1437 19.1701C84.1451 23.1714 87.3191 27.9218 89.4844 33.1499C91.6498 38.3779 92.7641 43.9813 92.7637 49.6401V49.6401ZM49.6738 2.81009C58.9359 2.81009 67.9899 5.55662 75.6911 10.7024C83.3923 15.8481 89.3946 23.162 92.939 31.719C96.4835 40.2761 97.4109 49.692 95.6039 58.7762C93.797 67.8603 89.3369 76.2046 82.7876 82.7539C76.2383 89.3032 67.894 93.7633 58.8098 95.5703C49.7257 97.3772 40.3097 96.4498 31.7527 92.9054C23.1956 89.3609 15.8818 83.3586 10.736 75.6574C5.59028 67.9563 2.84375 58.9022 2.84375 49.6401C2.84494 37.2204 7.77918 25.3097 16.5612 16.5276C25.3433 7.7455 37.254 2.81125 49.6738 2.81006V2.81009Z" fill="#0078D4"/>
<path opacity="0.2" d="M23.6259 76.1663H75.6551C75.9285 76.1655 76.1904 76.0566 76.3837 75.8633C76.577 75.67 76.686 75.408 76.6868 75.1347V34.5137H22.5942V75.1347C22.595 75.408 22.704 75.67 22.8973 75.8633C23.0906 76.0566 23.3525 76.1655 23.6259 76.1663V76.1663Z" fill="#003067"/>
<path d="M23.6259 74.0424H75.6551C75.9285 74.0416 76.1904 73.9327 76.3837 73.7394C76.577 73.5461 76.686 73.2841 76.6868 73.0108V32.3898H22.5942V73.0108C22.595 73.2841 22.704 73.5461 22.8973 73.7394C23.0906 73.9327 23.3525 74.0416 23.6259 74.0424V74.0424Z" fill="#F2F2F2"/>
<path d="M22.5942 36.886H76.6868V32.0373C76.687 31.9333 76.6668 31.8304 76.6271 31.7343C76.5875 31.6382 76.5292 31.5509 76.4557 31.4774C76.3822 31.4039 76.2949 31.3456 76.1988 31.306C76.1028 31.2663 75.9998 31.2461 75.8958 31.2464H23.3852C23.2812 31.2461 23.1783 31.2663 23.0822 31.306C22.9861 31.3456 22.8988 31.4039 22.8253 31.4774C22.7518 31.5509 22.6935 31.6382 22.6539 31.7343C22.6142 31.8304 22.594 31.9333 22.5942 32.0373V36.886Z" fill="url(#paint1_linear_930_1021)"/>
<path d="M26.7552 35.5533C27.0264 35.5525 27.2913 35.4712 27.5163 35.3198C27.7413 35.1684 27.9164 34.9537 28.0194 34.7029C28.1224 34.452 28.1487 34.1762 28.0949 33.9104C28.0412 33.6445 27.9098 33.4006 27.7175 33.2094C27.5251 33.0183 27.2804 32.8884 27.0142 32.8364C26.7481 32.7843 26.4724 32.8123 26.2222 32.9169C25.972 33.0215 25.7584 33.1979 25.6084 33.4238C25.4584 33.6498 25.3788 33.9152 25.3797 34.1864C25.3782 34.367 25.4128 34.5461 25.4816 34.7132C25.5503 34.8803 25.6517 35.0319 25.7798 35.1593C25.9079 35.2866 26.0602 35.3871 26.2277 35.4547C26.3952 35.5224 26.5746 35.5559 26.7552 35.5533V35.5533Z" fill="#50E6FF"/>
<path d="M71.8918 40.3762H27.3786C26.7921 40.3762 26.3167 40.8517 26.3167 41.4382V69.1095C26.3167 69.696 26.7921 70.1715 27.3786 70.1715H71.8918C72.4783 70.1715 72.9537 69.696 72.9537 69.1095V41.4382C72.9537 40.8517 72.4783 40.3762 71.8918 40.3762Z" fill="#E8E8E8"/>
<path d="M45.9556 60.1868H53.325V67.5562H45.9556V60.1868ZM37.3579 50.3609H44.7273V42.9915H38.3866C38.2515 42.9915 38.1177 43.0181 37.9929 43.0698C37.8681 43.1215 37.7547 43.1973 37.6592 43.2928C37.5637 43.3883 37.4879 43.5017 37.4362 43.6265C37.3845 43.7513 37.3579 43.8851 37.3579 44.0202V50.3609ZM38.3866 67.5562H44.7273V60.1868H37.3579V66.5275C37.3579 66.6626 37.3845 66.7964 37.4362 66.9212C37.4879 67.046 37.5637 67.1594 37.6592 67.2549C37.7547 67.3504 37.8681 67.4262 37.9929 67.4779C38.1177 67.5296 38.2515 67.5562 38.3866 67.5562V67.5562ZM37.3579 58.9586H44.7273V51.5891H37.3579V58.9586ZM54.5532 67.5562H60.9093C61.1794 67.5522 61.4372 67.442 61.6268 67.2495C61.8164 67.0571 61.9226 66.7977 61.9226 66.5275V60.1868H54.5532V67.5562ZM45.9555 58.9586H53.325V51.5891H45.9556L45.9555 58.9586ZM54.5532 58.9586H61.9226V51.5891H54.5532V58.9586ZM54.5532 42.9916V50.361H61.9226V44.0202C61.9226 43.75 61.8164 43.4906 61.6268 43.2982C61.4372 43.1057 61.1794 42.9955 60.9093 42.9915L54.5532 42.9916ZM45.9555 50.361H53.325V42.9915H45.9556L45.9555 50.361Z" fill="url(#paint2_linear_930_1021)"/>
<path opacity="0.2" d="M62.7842 31.2463H36.496C35.7669 32.2051 35.3696 33.3751 35.3643 34.5795V35.965C35.3657 36.2733 35.3894 36.5811 35.4353 36.886H63.8447C63.8906 36.5804 63.9144 36.2719 63.9159 35.9628V34.5795C63.9105 33.3751 63.5133 32.2051 62.7842 31.2463V31.2463Z" fill="#003067"/>
<path opacity="0.2" d="M62.7282 39.6669C63.3176 38.8427 63.7004 37.889 63.8445 36.886H35.4351C35.5791 37.8863 35.9601 38.8377 36.5462 39.6609C37.4897 40.9835 38.6768 42.1139 40.0439 42.9915H44.7273V44.9225C45.1282 45.016 45.5348 45.1021 45.9557 45.1707V42.9915H53.325V45.1697C53.7461 45.1008 54.1523 45.0141 54.5533 44.9205V42.9915H59.2304C60.5966 42.1151 61.7836 40.9869 62.7282 39.6669V39.6669Z" fill="#767676"/>
<g opacity="0.2">
<path opacity="0.2" d="M45.9556 45.1708C48.3957 45.5707 50.8848 45.5703 53.3248 45.1697V42.9915H45.9556V45.1708Z" fill="#003067"/>
<path opacity="0.2" d="M54.5532 42.9915V44.9205C56.2121 44.5527 57.7945 43.9 59.2304 42.9915H54.5532Z" fill="#003067"/>
<path opacity="0.2" d="M44.7273 44.9225V42.9915H40.0439C41.4814 43.9017 43.0661 44.5551 44.7273 44.9225V44.9225Z" fill="#003067"/>
</g>
<path d="M58.3019 31.1927C58.7467 31.1927 59.1871 31.2803 59.5981 31.4505C60.009 31.6207 60.3824 31.8702 60.6969 32.1847C61.0114 32.4992 61.2609 32.8726 61.4311 33.2836C61.6013 33.6945 61.689 34.135 61.6889 34.5798V35.963C61.6889 36.8265 61.419 37.6685 60.9169 38.3711C58.5887 41.6292 54.7868 43.2432 49.6355 43.2432C44.4832 43.2432 40.6834 41.6285 38.3607 38.3687C37.8607 37.667 37.592 36.8269 37.592 35.9653V34.5798C37.592 34.135 37.6796 33.6945 37.8498 33.2836C38.0201 32.8726 38.2695 32.4993 38.584 32.1847C38.8986 31.8702 39.2719 31.6207 39.6829 31.4505C40.0938 31.2803 40.5342 31.1927 40.979 31.1927H58.3019ZM49.6355 13.1265C51.1249 13.1265 52.5808 13.5682 53.8192 14.3956C55.0576 15.2231 56.0228 16.3992 56.5928 17.7752C57.1628 19.1512 57.3119 20.6654 57.0213 22.1262C56.7308 23.587 56.0135 24.9288 54.9604 25.9819C53.9072 27.0351 52.5654 27.7523 51.1046 28.0429C49.6438 28.3334 48.1297 28.1843 46.7537 27.6143C45.3776 27.0444 44.2015 26.0791 43.3741 24.8407C42.5466 23.6024 42.105 22.1464 42.105 20.657C42.105 18.6598 42.8984 16.7444 44.3106 15.3322C45.7229 13.9199 47.6383 13.1265 49.6355 13.1265Z" fill="#C3F1FF"/>
<path fill-rule="evenodd" clip-rule="evenodd" d="M34.6195 21.2041C33.8511 21.2041 33.1141 21.5093 32.5708 22.0527C32.0275 22.596 31.7222 23.3329 31.7222 24.1013V51.8957C31.7222 52.6641 32.0275 53.401 32.5708 53.9444C33.1141 54.4877 33.8511 54.793 34.6195 54.793H35.8974V55.887H34.6195C33.5609 55.887 32.5457 55.4665 31.7972 54.718C31.0487 53.9695 30.6282 52.9543 30.6282 51.8957V24.1013C30.6282 23.0428 31.0487 22.0276 31.7972 21.2791C32.5457 20.5305 33.5609 20.11 34.6195 20.11H38.6162V21.2041H34.6195Z" fill="#F3F3F3"/>
<path fill-rule="evenodd" clip-rule="evenodd" d="M60.6951 20.11H64.6918C65.7504 20.11 66.7656 20.5305 67.5141 21.2791C68.2626 22.0276 68.6831 23.0428 68.6831 24.1013V51.8958C68.6831 52.9543 68.2626 53.9695 67.5141 54.718C66.7656 55.4665 65.7504 55.887 64.6918 55.887H63.4139V54.793H64.6918C65.4602 54.793 66.1971 54.4877 66.7405 53.9444C67.2838 53.4011 67.589 52.6641 67.5891 51.8958V24.1013C67.5891 23.3329 67.2838 22.596 66.7405 22.0527C66.1971 21.5093 65.4602 21.2041 64.6918 21.2041H60.6951V20.11Z" fill="#F3F3F3"/>
</g>
<defs>
<linearGradient id="paint0_linear_930_1021" x1="47.8697" y1="-15.1531" x2="51.8525" y2="130.615" gradientUnits="userSpaceOnUse">
<stop stop-color="#00ABDE"/>
<stop offset="1" stop-color="#007ED8"/>
</linearGradient>
<linearGradient id="paint1_linear_930_1021" x1="22.5942" y1="34.0662" x2="76.7837" y2="34.0662" gradientUnits="userSpaceOnUse">
<stop stop-color="#005BA1"/>
<stop offset="0.26" stop-color="#00589D"/>
<stop offset="0.53" stop-color="#004F90"/>
<stop offset="0.8" stop-color="#003F7C"/>
<stop offset="1" stop-color="#003067"/>
</linearGradient>
<linearGradient id="paint2_linear_930_1021" x1="49.6403" y1="42.9915" x2="49.6403" y2="67.5562" gradientUnits="userSpaceOnUse">
<stop stop-color="#008BF1"/>
<stop offset="0.22" stop-color="#0086EC"/>
<stop offset="0.49" stop-color="#0078DD"/>
<stop offset="0.79" stop-color="#0061C4"/>
<stop offset="1" stop-color="#004DAE"/>
</linearGradient>
<clipPath id="clip0_930_1021">
<rect width="99.2799" height="99.28" fill="white"/>
</clipPath>
</defs>
</svg>
