<svg width="100" height="100" viewBox="0 0 100 100" fill="none" xmlns="http://www.w3.org/2000/svg">
<g clip-path="url(#clip0)">
<path d="M49.6401 96.4501C40.382 96.4501 31.3317 93.7047 23.6339 88.5612C15.936 83.4176 9.93624 76.1069 6.3933 67.5535C2.85036 59.0001 1.92337 49.5882 3.72954 40.5079C5.53571 31.4277 9.99394 23.0869 16.5404 16.5404C23.0869 9.99393 31.4277 5.53571 40.5079 3.72954C49.5882 1.92337 59.0001 2.85036 67.5535 6.3933C76.1069 9.93624 83.4176 15.936 88.5612 23.6339C93.7047 31.3317 96.4501 40.382 96.4501 49.6401C96.4505 55.7874 95.24 61.8746 92.8878 67.554C90.5355 73.2335 87.0875 78.3939 82.7407 82.7407C78.3939 87.0875 73.2335 90.5355 67.554 92.8878C61.8746 95.24 55.7874 96.4505 49.6401 96.4501V96.4501Z" fill="url(#paint0_linear)"/>
<path fill-rule="evenodd" clip-rule="evenodd" d="M95.54 49.64C95.54 58.7182 92.848 67.5925 87.8045 75.1407C82.7609 82.6889 75.5923 88.572 67.2052 92.0461C58.818 95.5201 49.5891 96.4291 40.6854 94.658C31.7816 92.887 23.603 88.5154 17.1838 82.0962C10.7646 75.677 6.39302 67.4984 4.62196 58.5946C2.85089 49.6909 3.75987 40.462 7.23393 32.0748C10.708 23.6877 16.5911 16.5191 24.1393 11.4755C31.6875 6.43199 40.5618 3.74 49.64 3.74C55.6677 3.73998 61.6363 4.9272 67.2052 7.23388C72.774 9.54057 77.834 12.9215 82.0963 17.1837C86.3585 21.446 89.7394 26.5059 92.0461 32.0748C94.3528 37.6437 95.54 43.6123 95.54 49.64V49.64ZM49.64 3.62732e-07C59.4579 3.62732e-07 69.0553 2.91134 77.2185 8.36585C85.3818 13.8204 91.7442 21.5731 95.5014 30.6436C99.2585 39.7141 100.242 49.6951 98.3262 59.3243C96.4108 68.9535 91.6831 77.7985 84.7408 84.7408C77.7985 91.6831 68.9535 96.4108 59.3243 98.3262C49.6951 100.242 39.7141 99.2585 30.6436 95.5014C21.5731 91.7442 13.8204 85.3818 8.36585 77.2185C2.91134 69.0553 3.62732e-07 59.4579 3.62732e-07 49.64C-0.000787738 43.121 1.28265 36.6656 3.77702 30.6427C6.27138 24.6197 9.9278 19.1471 14.5375 14.5375C19.1471 9.9278 24.6197 6.27138 30.6427 3.77702C36.6656 1.28265 43.121 -0.000787738 49.64 3.62732e-07V3.62732e-07Z" fill="#F2F1F0"/>
<path fill-rule="evenodd" clip-rule="evenodd" d="M92.7296 49.6401C92.7296 58.1625 90.2024 66.4935 85.4676 73.5796C80.7328 80.6657 74.0031 86.1887 66.1294 89.4501C58.2557 92.7114 49.5918 93.5648 41.2331 91.9021C32.8745 90.2395 25.1966 86.1356 19.1703 80.1093C13.1441 74.0831 9.04017 66.4052 7.37753 58.0465C5.7149 49.6879 6.56822 41.0239 9.8296 33.1503C13.091 25.2766 18.6139 18.5469 25.7 13.8121C32.7862 9.07727 41.1172 6.55009 49.6396 6.55009C55.2983 6.54974 60.9017 7.66407 66.1298 9.82942C71.3579 11.9948 76.1082 15.1687 80.1096 19.1701C84.1109 23.1714 87.2849 27.9218 89.4502 33.1499C91.6156 38.3779 92.7299 43.9813 92.7296 49.6401V49.6401ZM49.6396 2.81009C58.9017 2.81009 67.9558 5.55662 75.6569 10.7024C83.3581 15.8481 89.3604 23.162 92.9049 31.719C96.4493 40.2761 97.3767 49.692 95.5697 58.7762C93.7628 67.8603 89.3027 76.2046 82.7534 82.7539C76.2041 89.3032 67.8598 93.7633 58.7757 95.5703C49.6915 97.3772 40.2756 96.4498 31.7185 92.9054C23.1614 89.3609 15.8476 83.3586 10.7018 75.6574C5.5561 67.9563 2.80957 58.9022 2.80957 49.6401C2.81076 37.2204 7.745 25.3097 16.5271 16.5276C25.3091 7.7455 37.2198 2.81125 49.6396 2.81006V2.81009Z" fill="#0078D4"/>
<path fill-rule="evenodd" clip-rule="evenodd" d="M45.3159 45.4038H32.346C31.6913 45.4057 31.0641 45.6666 30.6012 46.1295C30.1383 46.5924 29.8774 47.2196 29.8755 47.8743V54.0504H69.403V51.58C69.4012 50.9253 69.1403 50.298 68.6774 49.8351C68.2145 49.3722 67.5872 49.1113 66.9325 49.1095H48.404L45.3159 45.4038Z" fill="#CC9547"/>
<path fill-rule="evenodd" clip-rule="evenodd" d="M21.9911 37.9804C21.6121 38.1462 21.314 38.4553 21.1621 38.8402C21.0102 39.225 21.0168 39.6543 21.1804 40.0344L29.8834 60.0885C30.0492 60.4675 30.3583 60.7656 30.7432 60.9175C31.128 61.0694 31.5574 61.0629 31.9374 60.8993L45.5455 54.9937C45.9246 54.8278 46.2227 54.5187 46.3746 54.1338C46.5265 53.749 46.5199 53.3196 46.3563 52.9396L39.5183 37.1829L37.0317 31.4531L21.9911 37.9804Z" fill="white"/>
<path fill-rule="evenodd" clip-rule="evenodd" d="M31.1968 40.5621C30.676 42.1974 29.024 43.3822 26.9451 44.2844L28.3161 47.4436C29.7302 50.702 32.0836 52.1721 36.3392 52.4116C39.071 49.1397 39.6047 46.4167 38.1906 43.1583L36.8196 39.999C34.7407 40.9012 32.7469 41.2986 31.1968 40.5621Z" fill="#F2F2F2"/>
<path fill-rule="evenodd" clip-rule="evenodd" d="M31.197 40.5621L36.3394 52.4116C39.0712 49.1397 39.605 46.4167 38.1909 43.1583L36.8199 39.999C34.7409 40.9012 32.7472 41.2986 31.197 40.5621Z" fill="#E8E8E8"/>
<path fill-rule="evenodd" clip-rule="evenodd" d="M27.508 44.4984L28.711 47.2703C30.039 50.3303 32.2015 51.7025 36.1478 51.9698C38.6473 48.9033 39.1229 46.3881 37.7942 43.3265L36.592 40.5562C34.494 41.4058 32.7985 41.592 31.4395 41.1205C30.854 42.4358 29.5615 43.5464 27.508 44.4984ZM36.511 52.8068C36.4493 52.8333 36.3823 52.8454 36.3153 52.8423C31.9132 52.5941 29.4024 51.0287 27.9196 47.6118L26.5479 44.451C26.5253 44.3991 26.5132 44.3433 26.5123 44.2867C26.5113 44.2301 26.5215 44.1738 26.5423 44.1212C26.5631 44.0686 26.594 44.0205 26.6334 43.9798C26.6727 43.9392 26.7197 43.9067 26.7716 43.8841C29.0458 42.8972 30.3581 41.7667 30.7841 40.4255C30.8047 40.3683 30.8368 40.316 30.8784 40.2717C30.9201 40.2274 30.9703 40.1921 31.026 40.1679C31.0818 40.1437 31.1419 40.1311 31.2027 40.131C31.2634 40.1309 31.3236 40.1432 31.3794 40.1671C32.65 40.7721 34.372 40.5858 36.6462 39.5988C36.7511 39.5536 36.8696 39.5517 36.9759 39.5936C37.0821 39.6356 37.1674 39.7179 37.2131 39.8226L38.5848 42.9834C40.0677 46.4003 39.4953 49.3017 36.6699 52.6865C36.6273 52.7387 36.5728 52.7799 36.511 52.8068H36.511Z" fill="#B3B3B3"/>
<path fill-rule="evenodd" clip-rule="evenodd" d="M77.2897 37.9804C77.6688 38.1462 77.9668 38.4553 78.1187 38.8402C78.2706 39.225 78.2641 39.6543 78.1005 40.0344L69.3975 60.0885C69.2316 60.4675 68.9225 60.7656 68.5377 60.9175C68.1528 61.0694 67.7234 61.0629 67.3434 60.8993L53.7353 54.9937C53.3562 54.8278 53.0582 54.5187 52.9063 54.1338C52.7543 53.749 52.7609 53.3196 52.9245 52.9396L59.7626 37.1829L62.2491 31.4531L77.2897 37.9804Z" fill="white"/>
<path fill-rule="evenodd" clip-rule="evenodd" d="M68.084 40.5621C68.6048 42.1974 70.2568 43.3822 72.3358 44.2844L70.9648 47.4436C69.5507 50.702 67.1972 52.1721 62.9416 52.4116C60.2098 49.1397 59.6761 46.4167 61.0902 43.1583L62.4612 39.999C64.5401 40.9012 66.5339 41.2986 68.084 40.5621Z" fill="#F2F2F2"/>
<path fill-rule="evenodd" clip-rule="evenodd" d="M68.0838 40.5621L62.9414 52.4116C60.2096 49.1397 59.6758 46.4167 61.0899 43.1583L62.4609 39.999C64.5399 40.9012 66.5336 41.2986 68.0838 40.5621Z" fill="#E8E8E8"/>
<path fill-rule="evenodd" clip-rule="evenodd" d="M67.8415 41.1205C66.4825 41.592 64.787 41.4058 62.689 40.5562L61.4868 43.3265C60.1581 46.3881 60.6337 48.9033 63.1332 51.9698C67.0795 51.7025 69.2421 50.3303 70.5701 47.2703L71.7731 44.4984C69.7195 43.5464 68.427 42.4358 67.8415 41.1205ZM62.6111 52.6865C59.7857 49.3017 59.2134 46.4003 60.6962 42.9834L62.0679 39.8226C62.1136 39.7179 62.1989 39.6356 62.3052 39.5936C62.4114 39.5517 62.5299 39.5536 62.6348 39.5988C64.909 40.5858 66.6311 40.7721 67.9016 40.1671C67.9574 40.1432 68.0176 40.1309 68.0784 40.131C68.1391 40.1311 68.1993 40.1437 68.255 40.1678C68.3108 40.192 68.361 40.2274 68.4026 40.2717C68.4442 40.316 68.4763 40.3683 68.4969 40.4255C68.9229 41.7667 70.2352 42.8972 72.5094 43.8841C72.5613 43.9066 72.6083 43.9392 72.6476 43.9799C72.687 44.0205 72.7179 44.0686 72.7387 44.1212C72.7595 44.1738 72.7697 44.2301 72.7688 44.2867C72.7678 44.3432 72.7557 44.3991 72.7331 44.451L71.3614 47.6118C69.8786 51.0287 67.3678 52.5941 62.9657 52.8423C62.8986 52.8454 62.8317 52.8332 62.77 52.8068C62.7082 52.7799 62.6537 52.7387 62.6111 52.6865V52.6865Z" fill="#B3B3B3"/>
<path fill-rule="evenodd" clip-rule="evenodd" d="M33.2073 65.0069V27.4487C33.2083 27.034 33.3736 26.6366 33.6668 26.3433C33.9601 26.0501 34.3575 25.8849 34.7722 25.8838H64.5058C64.9205 25.8849 65.3179 26.0501 65.6112 26.3433C65.9044 26.6366 66.0696 27.034 66.0707 27.4487V65.0069C66.0696 65.4216 65.9044 65.8191 65.6112 66.1123C65.3179 66.4056 64.9205 66.5708 64.5058 66.5719H34.7722C34.3575 66.5708 33.9601 66.4056 33.6668 66.1123C33.3736 65.8191 33.2083 65.4216 33.2073 65.0069V65.0069Z" fill="white"/>
<path fill-rule="evenodd" clip-rule="evenodd" d="M57.1309 37.3094C56.6721 36.8515 56.0504 36.5943 55.4022 36.5943C54.754 36.5943 54.1323 36.8515 53.6735 37.3094L51.3686 39.6144C51.1415 39.8414 50.9615 40.1109 50.8386 40.4075C50.7158 40.7041 50.6525 41.022 50.6525 41.343C50.6525 41.6641 50.7158 41.982 50.8386 42.2786C50.9615 42.5752 51.1416 42.8447 51.3686 43.0717C51.5956 43.2987 51.8651 43.4788 52.1617 43.6017C52.4583 43.7245 52.7762 43.7878 53.0973 43.7878C53.4183 43.7878 53.7362 43.7245 54.0328 43.6017C54.3294 43.4788 54.5989 43.2987 54.826 43.0717L57.1309 40.7668C57.5888 40.308 57.846 39.6863 57.846 39.0381C57.846 38.3899 57.5888 37.7682 57.1309 37.3094V37.3094ZM49.6399 44.8004C48.7241 43.8829 48.2097 42.6394 48.2097 41.343C48.2097 40.0466 48.7241 38.8032 49.6399 37.8856L51.9448 35.5807C52.8621 34.6652 54.1053 34.1512 55.4013 34.1519C56.6972 34.1525 57.94 34.6676 58.8564 35.584C59.7727 36.5004 60.2878 37.7431 60.2884 39.0391C60.289 40.335 59.7751 41.5782 58.8596 42.4955L56.5546 44.8004C55.6371 45.7162 54.3937 46.2306 53.0973 46.2306C51.8009 46.2306 50.5575 45.7162 49.6399 44.8004V44.8004Z" fill="#B3B3B3"/>
<path fill-rule="evenodd" clip-rule="evenodd" d="M47.9114 46.5295C47.4526 46.0715 46.8309 45.8143 46.1827 45.8143C45.5345 45.8143 44.9128 46.0715 44.454 46.5295L42.1491 48.8343C41.6906 49.2928 41.433 49.9147 41.433 50.563C41.433 51.2114 41.6906 51.8333 42.1491 52.2917C42.6076 52.7502 43.2294 53.0078 43.8778 53.0078C44.5262 53.0078 45.148 52.7502 45.6065 52.2917L47.9114 49.9868C48.3694 49.5281 48.6266 48.9063 48.6265 48.2581C48.6265 47.6099 48.3693 46.9882 47.9114 46.5295V46.5295ZM40.4204 54.0204C39.5046 53.1029 38.9902 51.8594 38.9902 50.563C38.9902 49.2666 39.5046 48.0232 40.4204 47.1057L42.7253 44.8007C43.6423 43.8838 44.886 43.3686 46.1827 43.3687C47.4795 43.3687 48.7232 43.8838 49.6401 44.8008C50.5571 45.7177 51.0722 46.9614 51.0722 48.2582C51.0722 49.5549 50.5571 50.7986 49.6401 51.7155L47.3352 54.0204C46.4176 54.9362 45.1742 55.4506 43.8778 55.4506C42.5814 55.4506 41.338 54.9362 40.4204 54.0204V54.0204Z" fill="#B3B3B3"/>
<path opacity="0.5" fill-rule="evenodd" clip-rule="evenodd" d="M40.9967 53.4442C40.3344 52.7992 39.8494 51.9945 39.5883 51.1077C39.3272 50.2209 39.2989 49.2818 39.506 48.3809C39.0472 49.2979 38.8886 50.3361 39.0527 51.3483C39.2168 52.3605 39.6954 53.2953 40.4204 54.0204C41.1455 54.7455 42.0804 55.224 43.0926 55.3881C44.1048 55.5523 45.1429 55.3937 46.06 54.9349C45.159 55.142 44.2199 55.1137 43.3331 54.8526C42.4463 54.5915 41.6416 54.1065 40.9967 53.4442V53.4442Z" fill="#767676"/>
<path opacity="0.5" fill-rule="evenodd" clip-rule="evenodd" d="M50.2161 44.2245C49.5539 43.5795 49.0688 42.7748 48.8078 41.888C48.5467 41.0012 48.5183 40.0621 48.7255 39.1611C48.2667 40.0782 48.1081 41.1164 48.2722 42.1286C48.4363 43.1408 48.9149 44.0756 49.6399 44.8007C50.365 45.5258 51.2999 46.0043 52.3121 46.1684C53.3243 46.3326 54.3625 46.174 55.2795 45.7152C54.3786 45.9223 53.4395 45.894 52.5526 45.6329C51.6658 45.3718 50.8611 44.8868 50.2161 44.2245V44.2245Z" fill="#767676"/>
<path fill-rule="evenodd" clip-rule="evenodd" d="M45.6062 48.8341C45.3013 48.528 45.1301 48.1136 45.1301 47.6816C45.1301 47.2497 45.3013 46.8353 45.6062 46.5292L51.3685 40.7669C51.5198 40.6155 51.6995 40.4955 51.8973 40.4136C52.095 40.3317 52.3069 40.2895 52.521 40.2896C52.735 40.2896 52.9469 40.3317 53.1447 40.4136C53.3424 40.4955 53.5221 40.6156 53.6734 40.7669C53.8248 40.9183 53.9448 41.098 54.0267 41.2957C54.1086 41.4935 54.1508 41.7054 54.1508 41.9194C54.1508 42.1335 54.1086 42.3454 54.0267 42.5431C53.9448 42.7409 53.8247 42.9205 53.6734 43.0719L47.9111 48.8342C47.605 49.139 47.1906 49.3102 46.7586 49.3102C46.3266 49.3102 45.9122 49.139 45.6062 48.8341V48.8341Z" fill="#B3B3B3"/>
<path opacity="0.5" fill-rule="evenodd" clip-rule="evenodd" d="M46.9174 47.5234L52.3627 42.078C52.4652 41.9753 52.5932 41.9018 52.7336 41.865C52.8739 41.8282 53.0215 41.8296 53.1612 41.8688C53.3008 41.9081 53.4275 41.9839 53.5281 42.0884C53.6287 42.193 53.6997 42.3224 53.7336 42.4635C53.7592 42.5778 53.7752 42.694 53.7814 42.811C53.7497 42.8888 53.7056 42.9945 53.6737 43.072L47.9114 48.8343C47.6173 49.13 47.2208 49.3013 46.8039 49.3128C46.387 49.3244 45.9816 49.1753 45.6716 48.8963C45.3616 48.6174 45.1706 48.23 45.1382 47.8142C45.1058 47.3984 45.2345 46.9861 45.4975 46.6625C45.4949 46.8249 45.5119 46.987 45.5482 47.1453C45.5833 47.2855 45.6549 47.4139 45.7558 47.5173C45.8567 47.6207 45.9832 47.6955 46.1225 47.7339C46.2618 47.7724 46.4088 47.7731 46.5484 47.7362C46.6881 47.6992 46.8154 47.6257 46.9174 47.5234Z" fill="#767676"/>
<path opacity="0.5" fill-rule="evenodd" clip-rule="evenodd" d="M48.2804 43.8557L48.2706 43.8516C48.0396 43.7461 47.7817 43.7142 47.5319 43.7603C47.2821 43.8064 47.0526 43.9282 46.8744 44.1092L45.0305 45.9531C44.9449 46.0403 44.8693 46.1367 44.8052 46.2406C45.2486 45.9408 45.778 45.7943 46.3126 45.8235L48.2804 43.8557Z" fill="#767676"/>
<path opacity="0.5" fill-rule="evenodd" clip-rule="evenodd" d="M50.585 46.1606L50.589 46.1705C50.6944 46.4015 50.7262 46.6594 50.6802 46.9091C50.6341 47.1589 50.5124 47.3884 50.3314 47.5666L48.4874 49.4106C48.4003 49.4962 48.3038 49.5717 48.2 49.6359C48.4998 49.1924 48.6463 48.663 48.6171 48.1285L50.585 46.1606Z" fill="#767676"/>
<path opacity="0.5" fill-rule="evenodd" clip-rule="evenodd" d="M50.9998 45.7458C51.0016 45.7456 51.0035 45.7458 51.0052 45.7465C51.0069 45.7472 51.0084 45.7484 51.0096 45.7499C51.2413 45.8554 51.4999 45.887 51.7502 45.8404C52.0005 45.7938 52.2304 45.6712 52.4086 45.4894L54.2497 43.6484C54.3355 43.5614 54.4111 43.4649 54.475 43.3608C54.0323 43.6598 53.5038 43.8053 52.9705 43.7751L50.9998 45.7458Z" fill="#767676"/>
<path opacity="0.5" fill-rule="evenodd" clip-rule="evenodd" d="M48.6947 43.4405C48.695 43.4387 48.6947 43.4368 48.694 43.4351C48.6933 43.4334 48.6922 43.4319 48.6907 43.4308C48.5851 43.1991 48.5534 42.9405 48.6 42.6901C48.6466 42.4398 48.7692 42.2099 48.9511 42.0317L50.7922 40.1907C50.8792 40.1049 50.9757 40.0293 51.0797 39.9653C50.7808 40.408 50.6352 40.9365 50.6654 41.4699L48.6947 43.4405Z" fill="#767676"/>
<path opacity="0.2" d="M66.0714 52.5063H33.208V53.6518H66.0714V52.5063Z" fill="#767676"/>
<path fill-rule="evenodd" clip-rule="evenodd" d="M72.2594 56.4749L69.7084 74.1666C69.6236 74.7546 69.3297 75.2924 68.8806 75.6814C68.4315 76.0703 67.8573 76.2845 67.2632 76.2845H32.0154C31.4212 76.2845 30.847 76.0703 30.3979 75.6814C29.9488 75.2924 29.655 74.7546 29.5702 74.1666L27.0192 56.4749C26.9686 56.1243 26.9941 55.7669 27.0938 55.427C27.1935 55.0871 27.3651 54.7726 27.597 54.5049C27.8289 54.2371 28.1157 54.0224 28.4379 53.8752C28.7601 53.728 29.1101 53.6519 29.4644 53.6519H69.8142C70.1684 53.6519 70.5185 53.728 70.8407 53.8752C71.1629 54.0224 71.4496 54.2371 71.6816 54.5049C71.9135 54.7726 72.0851 55.0871 72.1848 55.427C72.2845 55.7669 72.3099 56.1243 72.2594 56.4749Z" fill="#EFB252"/>
<path fill-rule="evenodd" clip-rule="evenodd" d="M55.6075 59.5795C52.8584 59.5795 51.0244 59.0088 49.999 57.8325C49.9528 57.7835 49.897 57.7444 49.8351 57.7177C49.7733 57.691 49.7066 57.6772 49.6392 57.6772C49.5718 57.6772 49.5051 57.691 49.4433 57.7177C49.3814 57.7444 49.3256 57.7835 49.2794 57.8325C48.254 59.0087 46.42 59.5795 43.6709 59.5795C43.6082 59.5794 43.546 59.5918 43.488 59.6158C43.4301 59.6398 43.3774 59.675 43.333 59.7193C43.2886 59.7637 43.2534 59.8164 43.2294 59.8744C43.2054 59.9324 43.1931 59.9946 43.1931 60.0573V63.8781C43.1931 68.0086 45.0561 70.7092 49.4244 72.905C49.4913 72.9378 49.5647 72.955 49.6391 72.9553C49.7138 72.9553 49.7875 72.9373 49.8538 72.9031C54.2222 70.7073 56.0853 68.0086 56.0853 63.8781V60.0573C56.085 59.9307 56.0346 59.8093 55.945 59.7197C55.8555 59.6302 55.7341 59.5797 55.6075 59.5795V59.5795Z" fill="#CC9547"/>
<path opacity="0.2" d="M33.207 33.1128L32.032 33.6228V53.6518H33.208L33.207 33.1128Z" fill="#767676"/>
<path opacity="0.2" d="M66.072 33.1128L67.248 33.6228V53.6518H66.071L66.072 33.1128Z" fill="#767676"/>
<path opacity="0.2" fill-rule="evenodd" clip-rule="evenodd" d="M40.4114 25.8838V25.884C40.4114 28.3317 41.3837 30.6792 43.1145 32.4099C44.8453 34.1407 47.1927 35.113 49.6404 35.113C52.0881 35.113 54.4355 34.1407 56.1663 32.4099C57.897 30.6792 58.8694 28.3317 58.8694 25.884V25.8838H40.4114Z" fill="#767676"/>
<path fill-rule="evenodd" clip-rule="evenodd" d="M49.6403 33.1131C48.2105 33.1131 46.8128 32.6891 45.6239 31.8947C44.435 31.1004 43.5084 29.9713 42.9612 28.6503C42.414 27.3293 42.2709 25.8757 42.5498 24.4733C42.8287 23.071 43.5173 21.7828 44.5283 20.7717C45.5394 19.7607 46.8275 19.0722 48.2299 18.7932C49.6323 18.5143 51.0859 18.6574 52.4069 19.2046C53.7279 19.7518 54.8569 20.6784 55.6513 21.8673C56.4457 23.0562 56.8697 24.4539 56.8697 25.8837C56.8696 27.8011 56.1079 29.6398 54.7522 30.9956C53.3964 32.3513 51.5577 33.113 49.6403 33.1131Z" fill="white"/>
<path fill-rule="evenodd" clip-rule="evenodd" d="M52.9615 23.8785C52.7919 23.709 52.5619 23.6138 52.3221 23.6138C52.0823 23.6138 51.8523 23.709 51.6827 23.8785L48.702 26.8571L47.6253 25.7907C47.6001 25.7533 47.5717 25.7183 47.5403 25.6859C47.3718 25.5171 47.1435 25.4218 46.905 25.4207C46.6665 25.4196 46.4373 25.5128 46.2673 25.68C46.0973 25.8472 46.0002 26.0749 45.9974 26.3133C45.9945 26.5518 46.086 26.7817 46.252 26.9529L46.2412 26.9638L48.0653 28.7712C48.235 28.9406 48.465 29.0358 48.7049 29.0358C48.9447 29.0358 49.1747 28.9406 49.3445 28.7712L52.9588 25.1585L52.9615 25.1563C53.0454 25.0725 53.1121 24.9729 53.1575 24.8632C53.2029 24.7536 53.2263 24.6361 53.2263 24.5174C53.2263 24.3987 53.203 24.2812 53.1575 24.1716C53.1121 24.062 53.0455 23.9624 52.9615 23.8785Z" fill="#0078D4"/>
</g>
<defs>
<linearGradient id="paint0_linear" x1="47.8697" y1="-15.153" x2="51.8525" y2="130.615" gradientUnits="userSpaceOnUse">
<stop stop-color="#00ABDE"/>
<stop offset="1" stop-color="#007ED8"/>
</linearGradient>
<clipPath id="clip0">
<rect width="99.2799" height="99.28" fill="white"/>
</clipPath>
</defs>
</svg>
