<svg width="160" height="189" viewBox="0 0 160 189" fill="none" xmlns="http://www.w3.org/2000/svg">
<g clip-path="url(#clip0_1023_1582)">
<path d="M80.0334 188.986C83.1147 188.981 86.1351 188.127 88.7638 186.52L150.739 148.86C153.52 147.096 155.804 144.651 157.375 141.757C158.945 138.862 159.749 135.615 159.711 132.322V57.607C159.747 54.3146 158.942 51.0675 157.372 48.1734C155.802 45.2793 153.519 42.834 150.739 41.0692L88.7638 3.40913C86.1303 1.82393 83.1147 0.986328 80.041 0.986328C76.9672 0.986328 73.9516 1.82393 71.3182 3.40913L9.34307 41.0843C6.55997 42.8467 4.27342 45.2911 2.70046 48.1855C1.12749 51.0798 0.32029 54.3282 0.355473 57.6222V132.322C0.33694 135.105 0.911657 137.861 2.04135 140.404C3.17104 142.948 4.82977 145.222 6.90707 147.075V147.101L71.3182 186.535C73.9438 188.135 76.9586 188.983 80.0334 188.986V188.986ZM80.6812 7.93851C82.6331 7.93851 85.1103 9.15143 86.8201 10.1954L147.577 47.3897C151.329 49.6745 153.445 56.2706 153.445 61.0216L152.813 132.322C152.813 137.073 149.614 141.341 145.861 143.626L85.4659 180.007C82.0313 182.095 79.2409 182.095 75.8062 180.007L14.5982 143.535C10.8458 141.251 7.82738 137.058 7.82738 132.322V58.6743C7.85989 56.3092 8.46888 53.9876 9.60155 51.9111C10.7342 49.8345 12.3563 48.0656 14.3273 46.7577L74.9035 10.1954C76.6132 9.15143 78.7294 7.93851 80.6812 7.93851Z" fill="#F2F1F0"/>
<path fill-rule="evenodd" clip-rule="evenodd" d="M87.9319 11.5191C85.561 10.0456 82.8252 9.26471 80.0337 9.26471C77.2422 9.26471 74.5064 10.0456 72.1355 11.5191L16.0008 45.8505C13.4748 47.4622 11.4025 49.6926 9.98047 52.33C8.55847 54.9675 7.83398 57.9246 7.87573 60.9207V129.024C7.83581 132.02 8.56109 134.976 9.98292 137.613C11.4048 140.25 13.4761 142.481 16.0008 144.094L72.1355 178.425C74.5063 179.899 77.2422 180.68 80.0337 180.68C82.8253 180.68 85.5612 179.899 87.9319 178.425L144.066 144.094C146.591 142.481 148.663 140.25 150.085 137.613C151.507 134.976 152.232 132.02 152.192 129.024V60.9207C152.23 57.9251 151.504 54.9693 150.082 52.3324C148.66 49.6956 146.59 47.4647 144.066 45.8505L87.9319 11.5191Z" fill="url(#paint0_linear_1023_1582)"/>
<path fill-rule="evenodd" clip-rule="evenodd" d="M80.0338 10.7407C81.717 10.7407 83.5997 11.6063 85.6665 12.8645L144.132 48.4068C146.024 49.6203 147.573 51.2972 148.634 53.2782C149.694 55.2592 150.231 57.4786 150.192 59.7253V130.204C150.231 132.451 149.694 134.67 148.634 136.651C147.573 138.632 146.024 140.309 144.132 141.522L85.6675 177.064L85.6665 177.065C83.9963 178.204 82.0512 178.875 80.0338 179.008C78.0163 178.875 76.0713 178.204 74.4011 177.065L74.4001 177.064L15.9378 141.524L15.9356 141.523C14.1473 140.559 12.6222 139.172 11.4938 137.483C10.5169 135.88 9.87578 133.665 9.87578 130.204V59.7253C9.83704 57.4786 10.3734 55.2593 11.434 53.2783C12.4945 51.2973 14.044 49.6204 15.9352 48.4069L74.392 12.8699L74.3961 12.8674C76.4799 11.6145 78.3401 10.7407 80.0338 10.7407ZM87.7463 9.44765L146.21 44.9889C148.689 46.559 150.723 48.7378 152.121 51.3175C153.518 53.8972 154.231 56.7918 154.192 59.7254V130.204C154.231 133.138 153.518 136.032 152.121 138.612C150.723 141.192 148.688 143.371 146.21 144.941L87.7453 180.482C85.4511 182.007 82.7857 182.88 80.0338 183.008C77.2819 182.88 74.6164 182.007 72.3222 180.482H72.3213L13.8575 144.94L13.855 144.939C11.5197 143.646 9.53644 141.801 8.07828 139.565C6.4837 136.712 5.72068 133.469 5.87578 130.204V59.7253C5.83672 56.7917 6.54983 53.897 7.94712 51.3173C9.34441 48.7375 11.3793 46.5588 13.8577 44.9887L72.3222 9.447L72.3304 9.44212C74.421 8.18471 77.1289 6.74066 80.0338 6.74066C82.92 6.74066 85.6371 8.16374 87.7463 9.4476V9.44765Z" fill="#0078D4"/>
<g opacity="0.2">
<path d="M139.965 133.012L80.4154 167.619L20.4764 133.013L80.0264 98.4063L139.965 133.012Z" fill="#003067"/>
</g>
<path d="M140.956 121.635L80.2334 156.923L19.1224 121.64L79.8444 86.3523L140.956 121.635Z" fill="#1B93EB"/>
<path d="M140.956 121.635L140.944 125.741L80.2224 161.029L80.2334 156.923L140.956 121.635Z" fill="#1F56A3"/>
<path d="M80.2335 156.923L80.2225 161.029L19.1105 125.746L19.1225 121.64L80.2335 156.923Z" fill="#0078D4"/>
<path opacity="0.2" d="M55.7419 128.78C56.0171 129.029 55.9512 129.388 55.5916 129.597L55.234 129.805C54.7938 130.019 54.2869 130.052 53.823 129.895L52.8085 129.52C52.6862 129.489 52.5586 129.486 52.4349 129.51L51.6125 129.709C51.4978 129.727 51.3938 129.787 51.3206 129.877L51.0654 130.558C50.9432 130.733 50.7765 130.874 50.5823 130.964C50.3882 131.054 50.1736 131.091 49.9604 131.072H49.4553C49.1739 131.073 48.8969 131.002 48.6502 130.867C48.5171 130.8 48.4096 130.692 48.3445 130.558L48.0775 129.877C48.0492 129.832 48.0094 129.797 47.9623 129.773C47.9205 129.749 47.8753 129.73 47.8283 129.718L46.9973 129.52C46.8635 129.487 46.7235 129.487 46.5898 129.52L45.5773 129.894C45.1131 130.05 44.606 130.018 44.1653 129.804L43.8076 129.598C43.4456 129.389 43.3757 129.03 43.6481 128.78L44.29 128.192C44.3159 128.163 44.3315 128.126 44.3344 128.087C44.3372 128.048 44.3272 128.009 44.3057 127.976L43.9571 127.5C43.9312 127.457 43.8935 127.421 43.8483 127.398C43.7923 127.366 43.7312 127.343 43.6675 127.331L42.4929 127.179C42.3045 127.156 42.1225 127.096 41.957 127.003C41.8632 126.962 41.7814 126.897 41.7193 126.816C41.6572 126.735 41.6169 126.639 41.6021 126.538L41.6005 126.245C41.5988 125.95 41.9856 125.668 42.484 125.603L43.6569 125.452C43.7615 125.436 43.8577 125.385 43.9299 125.308L44.271 124.829C44.2983 124.795 44.313 124.753 44.3127 124.709C44.3125 124.666 44.2973 124.624 44.2697 124.59L43.619 124.004C43.3438 123.754 43.4097 123.395 43.7694 123.186L44.1269 122.978C44.5671 122.764 45.074 122.732 45.5378 122.889L46.5524 123.264C46.6746 123.295 46.8022 123.298 46.926 123.273L47.7484 123.074C47.8631 123.057 47.9672 122.997 48.0404 122.907L48.2955 122.226C48.4178 122.05 48.5845 121.91 48.7786 121.82C48.9727 121.73 49.1873 121.692 49.4005 121.712H49.9057C50.187 121.711 50.464 121.781 50.7107 121.917C50.8438 121.983 50.9513 122.092 51.0165 122.226L51.2813 122.906C51.3104 122.951 51.3509 122.987 51.3987 123.01C51.4408 123.036 51.4868 123.054 51.5348 123.064L52.3616 123.262C52.4959 123.297 52.6367 123.297 52.7712 123.264L53.7858 122.889C54.2495 122.733 54.7557 122.766 55.1956 122.98L55.5533 123.186C55.9153 123.395 55.9853 123.754 55.7129 124.004L55.0709 124.591C55.045 124.621 55.0294 124.658 55.0266 124.697C55.0237 124.736 55.0338 124.775 55.0552 124.808L55.4038 125.284C55.4297 125.327 55.4674 125.363 55.5126 125.386C55.5678 125.418 55.6283 125.44 55.6913 125.452L56.868 125.604C57.0565 125.628 57.2385 125.688 57.404 125.781C57.4977 125.822 57.5796 125.886 57.642 125.967C57.7044 126.048 57.7453 126.144 57.761 126.245L57.7605 126.539C57.7622 126.834 57.3754 127.115 56.877 127.18L55.702 127.33C55.5982 127.348 55.503 127.399 55.4311 127.476L55.09 127.955C55.0625 127.989 55.0478 128.031 55.0484 128.074C55.0491 128.118 55.065 128.159 55.0934 128.192L55.7419 128.78ZM47.9002 127.426C48.4537 127.707 49.0657 127.854 49.6864 127.854C50.3072 127.853 50.9191 127.707 51.4723 127.425C51.6872 127.35 51.8733 127.209 52.0045 127.023C52.1358 126.837 52.2056 126.615 52.2043 126.387C52.203 126.159 52.1307 125.938 51.9974 125.753C51.8641 125.568 51.6765 125.43 51.4607 125.357C50.9076 125.076 50.296 124.93 49.6757 124.93C49.0554 124.93 48.4438 125.076 47.8907 125.357C47.6755 125.432 47.4891 125.573 47.3575 125.759C47.226 125.945 47.1558 126.167 47.1569 126.395C47.1579 126.623 47.2301 126.845 47.3634 127.03C47.4967 127.215 47.6843 127.353 47.9002 127.426" fill="#003067"/>
<path d="M47.1512 122.241L47.1569 120.244C47.1774 120.023 47.2561 119.812 47.385 119.631C47.5139 119.45 47.6884 119.307 47.8908 119.216C48.4439 118.935 49.0554 118.788 49.6758 118.788C50.2961 118.788 50.9077 118.935 51.4608 119.216C51.6663 119.307 51.8436 119.452 51.9743 119.635C52.105 119.818 52.1845 120.033 52.2044 120.257L52.1988 122.241L47.1512 122.241Z" fill="url(#paint1_linear_1023_1582)"/>
<path d="M55.7419 122.638C56.0171 122.888 55.9512 123.247 55.5916 123.456L55.234 123.664C54.7938 123.878 54.2869 123.91 53.823 123.753L52.8085 123.378C52.6862 123.348 52.5586 123.344 52.4349 123.369L51.6125 123.568C51.4978 123.585 51.3938 123.645 51.3206 123.735L51.0654 124.416C50.9432 124.592 50.7765 124.732 50.5823 124.822C50.3882 124.913 50.1736 124.95 49.9604 124.93H49.4553C49.1739 124.931 48.8969 124.861 48.6502 124.725C48.5171 124.659 48.4096 124.55 48.3445 124.416L48.0775 123.735C48.0492 123.691 48.0094 123.655 47.9623 123.632C47.9205 123.607 47.8753 123.588 47.8283 123.576L46.9973 123.378C46.8635 123.345 46.7235 123.345 46.5898 123.378L45.5773 123.752C45.1131 123.909 44.606 123.877 44.1653 123.662L43.8076 123.456C43.4456 123.247 43.3757 122.888 43.6481 122.638L44.29 122.051C44.3159 122.021 44.3315 121.984 44.3344 121.945C44.3372 121.906 44.3272 121.867 44.3057 121.834L43.9571 121.359C43.9312 121.315 43.8935 121.28 43.8483 121.257C43.7923 121.224 43.7312 121.201 43.6675 121.189L42.4929 121.038C42.3045 121.014 42.1225 120.954 41.957 120.861C41.8632 120.82 41.7814 120.756 41.7193 120.674C41.6572 120.593 41.6169 120.497 41.6021 120.396L41.6005 120.103C41.5988 119.808 41.9856 119.527 42.484 119.462L43.6569 119.31C43.7615 119.294 43.8577 119.244 43.9299 119.167L44.271 118.687C44.2983 118.653 44.313 118.611 44.3127 118.568C44.3125 118.524 44.2973 118.482 44.2697 118.449L43.619 117.862C43.3438 117.613 43.4097 117.254 43.7694 117.045L44.1269 116.837C44.5671 116.623 45.074 116.59 45.5378 116.747L46.5524 117.122C46.6746 117.153 46.8022 117.156 46.926 117.132L47.7484 116.933C47.8631 116.915 47.9672 116.855 48.0404 116.765L48.2955 116.084C48.4178 115.909 48.5845 115.768 48.7786 115.678C48.9727 115.588 49.1873 115.551 49.4005 115.57H49.9057C50.187 115.569 50.464 115.64 50.7107 115.775C50.8438 115.842 50.9513 115.95 51.0165 116.084L51.2813 116.764C51.3104 116.809 51.3509 116.845 51.3987 116.869C51.4408 116.894 51.4868 116.912 51.5348 116.923L52.3616 117.121C52.4959 117.155 52.6367 117.156 52.7712 117.122L53.7858 116.747C54.2495 116.592 54.7557 116.624 55.1956 116.838L55.5533 117.045C55.9153 117.254 55.9853 117.613 55.7129 117.862L55.0709 118.45C55.045 118.479 55.0294 118.516 55.0266 118.555C55.0237 118.594 55.0338 118.633 55.0552 118.666L55.4038 119.142C55.4297 119.186 55.4674 119.221 55.5126 119.244C55.5678 119.276 55.6283 119.299 55.6913 119.31L56.868 119.463C57.0565 119.486 57.2385 119.546 57.404 119.639C57.4977 119.68 57.5796 119.744 57.642 119.825C57.7044 119.907 57.7453 120.002 57.761 120.103L57.7605 120.397C57.7622 120.692 57.3754 120.974 56.877 121.039L55.702 121.189C55.5982 121.206 55.503 121.257 55.4311 121.334L55.09 121.813C55.0625 121.847 55.0478 121.889 55.0484 121.933C55.0491 121.976 55.065 122.018 55.0934 122.051L55.7419 122.638ZM47.9002 121.285C48.4537 121.566 49.0657 121.712 49.6864 121.712C50.3072 121.712 50.9191 121.565 51.4723 121.284C51.6872 121.208 51.8733 121.068 52.0045 120.882C52.1358 120.696 52.2056 120.473 52.2043 120.245C52.203 120.018 52.1307 119.796 51.9974 119.611C51.8641 119.427 51.6765 119.289 51.4607 119.216C50.9076 118.935 50.296 118.788 49.6757 118.788C49.0554 118.788 48.4438 118.935 47.8907 119.216C47.6755 119.291 47.4891 119.431 47.3575 119.617C47.226 119.803 47.1558 120.026 47.1569 120.254C47.1579 120.482 47.2301 120.703 47.3634 120.888C47.4967 121.073 47.6843 121.212 47.9002 121.285" fill="url(#paint2_linear_1023_1582)"/>
<path d="M55.8727 117.571C55.8697 117.594 55.8649 117.616 55.8581 117.638C55.8544 117.65 55.8505 117.662 55.8456 117.674C55.8359 117.697 55.8242 117.72 55.8109 117.741C55.8046 117.751 55.7995 117.762 55.7923 117.772C55.7692 117.804 55.7427 117.834 55.7134 117.862L55.7129 117.862L55.0709 118.45C55.0564 118.464 55.0455 118.482 55.039 118.501C55.037 118.508 55.0354 118.515 55.0342 118.522C55.0304 118.536 55.0279 118.55 55.027 118.565C55.0236 118.601 55.0337 118.637 55.0551 118.666L55.4038 119.142C55.4297 119.186 55.4674 119.221 55.5126 119.244C55.5678 119.276 55.6283 119.299 55.6913 119.31L55.8735 119.334L55.8787 117.519L55.8767 117.536C55.8762 117.548 55.8743 117.559 55.8727 117.571Z" fill="url(#paint3_linear_1023_1582)"/>
<path d="M57.7435 120.507C57.6737 120.675 57.5423 120.81 57.376 120.885C57.3108 120.918 57.2431 120.946 57.1735 120.969C57.0772 121.002 56.9779 121.025 56.877 121.039L55.8901 121.165L55.8685 121.168L55.702 121.189C55.5982 121.206 55.503 121.257 55.4311 121.334L55.09 121.813C55.0625 121.847 55.0478 121.889 55.0485 121.933C55.0491 121.976 55.065 122.018 55.0934 122.051L55.742 122.638C56.0172 122.888 55.9513 123.247 55.5917 123.456L55.2341 123.664C54.8907 123.833 54.5026 123.89 54.125 123.827L54.0846 123.82C53.9957 123.805 53.9082 123.783 53.8232 123.753L52.8086 123.378C52.7876 123.372 52.766 123.368 52.7442 123.365C52.704 123.358 52.6633 123.354 52.6225 123.353C52.5596 123.349 52.4965 123.355 52.4351 123.369L51.6127 123.568C51.6025 123.57 51.593 123.574 51.5829 123.577C51.4796 123.597 51.3868 123.653 51.3207 123.735L51.0656 124.416C51.0102 124.538 50.9178 124.639 50.8015 124.706C50.7087 124.764 50.609 124.81 50.5048 124.844C50.3291 124.901 50.1454 124.93 49.9606 124.93H49.4554C49.3237 124.929 49.1925 124.913 49.0645 124.883C48.9832 124.864 48.9033 124.84 48.8256 124.81C48.7653 124.786 48.7067 124.758 48.6503 124.725C48.5172 124.659 48.4097 124.55 48.3446 124.416L48.0776 123.735C48.0493 123.691 48.0095 123.655 47.9624 123.632C47.9206 123.607 47.8754 123.588 47.8284 123.576L47.4129 123.477L46.9974 123.378C46.9636 123.369 46.9291 123.363 46.8942 123.359C46.856 123.355 46.8176 123.353 46.7792 123.354C46.7432 123.354 46.7072 123.356 46.6714 123.36C46.6437 123.364 46.6163 123.37 46.5899 123.378L45.5775 123.752C45.4882 123.784 45.3963 123.807 45.3027 123.821C45.2885 123.823 45.2752 123.826 45.2609 123.828C45.1655 123.842 45.0693 123.848 44.973 123.847L44.9287 123.847C44.8293 123.845 44.7301 123.835 44.6321 123.819L44.6181 123.816C44.4596 123.791 44.3066 123.739 44.1655 123.662L43.8078 123.456C43.4458 123.247 43.3759 122.888 43.6483 122.638L44.2902 122.051C44.3082 122.03 44.3213 122.006 44.3283 121.979C44.3354 121.953 44.3364 121.925 44.3311 121.898L44.3286 121.88C44.3246 121.864 44.317 121.848 44.3062 121.835L44.3059 121.834L44.3036 121.831L43.9573 121.359C43.9314 121.315 43.8937 121.28 43.8485 121.257C43.7925 121.224 43.7314 121.201 43.6677 121.189L42.4931 121.038C42.3333 121.016 42.1781 120.968 42.0339 120.895C42.0092 120.883 41.9803 120.874 41.9572 120.861C41.8583 120.806 41.7706 120.733 41.699 120.646C41.6396 120.576 41.6056 120.488 41.6023 120.396L41.5869 123.115C41.6017 123.216 41.642 123.312 41.7041 123.393C41.7662 123.475 41.848 123.539 41.9418 123.58C42.1073 123.673 42.2893 123.733 42.4777 123.756L43.4721 123.884L43.4669 125.7C43.4742 125.801 43.5082 125.898 43.5654 125.982C43.6226 126.065 43.7009 126.132 43.7924 126.175L44.1501 126.381C44.5907 126.595 45.0979 126.628 45.5621 126.471L46.5745 126.097C46.7083 126.064 46.8483 126.064 46.9821 126.097L47.813 126.295C47.8601 126.307 47.9052 126.326 47.947 126.35C47.9941 126.374 48.034 126.409 48.0622 126.454L48.3292 127.135C48.3944 127.269 48.5019 127.377 48.6351 127.444C48.8817 127.579 49.1587 127.65 49.4401 127.649H49.9453C50.1584 127.668 50.373 127.631 50.5672 127.541C50.7613 127.451 50.928 127.311 51.0503 127.135L51.3054 126.454C51.3786 126.364 51.4826 126.304 51.5973 126.287L52.4198 126.087C52.5435 126.063 52.6711 126.066 52.7933 126.097L53.8079 126.472C54.2717 126.629 54.7786 126.597 55.2188 126.382L55.5764 126.175C55.6662 126.132 55.743 126.066 55.7993 125.984C55.8555 125.902 55.889 125.807 55.8964 125.707L55.9016 123.88L56.8616 123.758C57.36 123.692 57.7469 123.411 57.7453 123.116L57.7607 120.397C57.7607 120.434 57.7549 120.471 57.7435 120.507V120.507Z" fill="url(#paint4_linear_1023_1582)"/>
<path d="M43.657 119.31C43.7616 119.295 43.8578 119.244 43.93 119.167L44.2712 118.687C44.2992 118.652 44.3138 118.608 44.3122 118.563C44.3114 118.548 44.3089 118.534 44.3048 118.519C44.3038 118.512 44.3024 118.505 44.3007 118.498C44.2942 118.48 44.2837 118.463 44.2698 118.449L43.6192 117.862C43.5891 117.835 43.562 117.804 43.5382 117.771C43.5309 117.761 43.5257 117.75 43.5192 117.74C43.5057 117.719 43.4939 117.696 43.4839 117.673C43.4788 117.661 43.4749 117.649 43.4709 117.636C43.4642 117.615 43.4591 117.593 43.4559 117.571C43.4541 117.558 43.4524 117.546 43.4517 117.533C43.4514 117.526 43.4494 117.519 43.4494 117.512L43.4442 119.338L43.657 119.31Z" fill="url(#paint5_linear_1023_1582)"/>
<path d="M58.725 132.348C58.8927 132.5 58.8525 132.719 58.6334 132.846L58.4155 132.973C58.1472 133.103 57.8382 133.123 57.5555 133.027L56.9372 132.799C56.8627 132.78 56.785 132.778 56.7096 132.793L56.2083 132.914C56.1384 132.925 56.075 132.961 56.0304 133.016L55.8749 133.431C55.8004 133.538 55.6988 133.624 55.5805 133.679C55.4622 133.734 55.3314 133.756 55.2014 133.744H54.8936C54.7221 133.745 54.5533 133.702 54.4029 133.62C54.3218 133.579 54.2563 133.513 54.2166 133.431L54.0538 133.016C54.0366 132.989 54.0123 132.967 53.9836 132.953C53.9581 132.938 53.9306 132.927 53.902 132.92L53.3955 132.799C53.314 132.779 53.2287 132.779 53.1471 132.799L52.5301 133.027C52.2472 133.122 51.9382 133.102 51.6696 132.972L51.4516 132.846C51.231 132.719 51.1884 132.5 51.3544 132.348L51.7456 131.99C51.7614 131.972 51.7709 131.949 51.7726 131.925C51.7744 131.902 51.7683 131.878 51.7552 131.858L51.5427 131.568C51.5269 131.541 51.504 131.52 51.4764 131.506C51.4423 131.486 51.405 131.472 51.3662 131.464L50.6504 131.372C50.5356 131.358 50.4246 131.321 50.3238 131.265C50.2666 131.24 50.2168 131.2 50.1789 131.151C50.1411 131.101 50.1165 131.043 50.1074 130.981L50.1064 130.803C50.1054 130.623 50.3412 130.451 50.6449 130.412L51.3597 130.32C51.4235 130.31 51.4821 130.279 51.5261 130.232L51.734 129.94C51.7506 129.919 51.7596 129.893 51.7595 129.867C51.7593 129.84 51.75 129.815 51.7332 129.794L51.3367 129.437C51.169 129.285 51.2091 129.066 51.4283 128.939L51.6462 128.812C51.9145 128.681 52.2234 128.662 52.5061 128.757L53.1244 128.986C53.1989 129.005 53.2767 129.007 53.3521 128.992L53.8533 128.87C53.9232 128.86 53.9867 128.823 54.0313 128.769L54.1867 128.353C54.2613 128.246 54.3629 128.161 54.4812 128.106C54.5995 128.051 54.7303 128.028 54.8602 128.04H55.1681C55.3396 128.04 55.5084 128.082 55.6587 128.165C55.7399 128.206 55.8054 128.272 55.8451 128.353L56.0065 128.768C56.0242 128.795 56.0489 128.817 56.078 128.831C56.1037 128.847 56.1317 128.858 56.161 128.864L56.6649 128.985C56.7468 129.006 56.8326 129.006 56.9146 128.986L57.5329 128.757C57.8155 128.663 58.124 128.682 58.3921 128.813L58.6101 128.939C58.8307 129.066 58.8734 129.285 58.7074 129.437L58.3161 129.795C58.3003 129.813 58.2908 129.836 58.2891 129.859C58.2873 129.883 58.2935 129.907 58.3065 129.927L58.519 130.217C58.5348 130.244 58.5578 130.265 58.5853 130.279C58.619 130.299 58.6558 130.313 58.6942 130.32L59.4114 130.412C59.5262 130.427 59.6372 130.463 59.738 130.52C59.7951 130.545 59.845 130.584 59.883 130.634C59.9211 130.683 59.946 130.741 59.9556 130.803L59.9553 130.982C59.9563 131.162 59.7205 131.333 59.4168 131.373L58.7007 131.464C58.6374 131.475 58.5794 131.506 58.5356 131.553L58.3277 131.845C58.3109 131.866 58.302 131.891 58.3024 131.918C58.3027 131.944 58.3124 131.97 58.3298 131.99L58.725 132.348ZM53.9458 131.523C54.2831 131.694 54.6561 131.783 55.0344 131.783C55.4127 131.783 55.7857 131.694 56.1228 131.522C56.2538 131.476 56.3672 131.391 56.4472 131.277C56.5272 131.164 56.5697 131.028 56.569 130.889C56.5682 130.751 56.5241 130.616 56.4428 130.503C56.3616 130.391 56.2472 130.306 56.1157 130.262C55.7787 130.091 55.4059 130.001 55.0279 130.001C54.6498 130.001 54.2771 130.091 53.94 130.262C53.8089 130.308 53.6953 130.393 53.6151 130.507C53.5349 130.62 53.4922 130.756 53.4928 130.894C53.4934 131.033 53.5374 131.169 53.6187 131.281C53.6999 131.394 53.8142 131.478 53.9458 131.523" fill="url(#paint6_linear_1023_1582)"/>
<path d="M58.8047 129.26C58.8029 129.273 58.7999 129.287 58.7958 129.3L58.7882 129.322C58.7823 129.337 58.7752 129.35 58.7671 129.363L58.7557 129.382C58.7416 129.402 58.7255 129.42 58.7076 129.437L58.7073 129.437L58.3161 129.795C58.3073 129.804 58.3006 129.814 58.2966 129.826L58.2937 129.839C58.2914 129.847 58.2899 129.856 58.2893 129.865C58.2873 129.887 58.2934 129.909 58.3065 129.927L58.5189 130.217C58.5347 130.243 58.5577 130.265 58.5853 130.279C58.6189 130.299 58.6558 130.313 58.6942 130.32L58.8053 130.334L58.8084 129.228L58.8072 129.238L58.8047 129.26Z" fill="url(#paint7_linear_1023_1582)"/>
<path d="M59.9449 131.049C59.9024 131.151 59.8222 131.234 59.7209 131.279C59.6812 131.3 59.6399 131.317 59.5975 131.33C59.5388 131.35 59.4783 131.365 59.4168 131.373L58.8153 131.45L58.8022 131.451L58.7007 131.464C58.6374 131.475 58.5794 131.506 58.5356 131.553L58.3277 131.845C58.311 131.866 58.302 131.891 58.3024 131.918C58.3028 131.944 58.3125 131.97 58.3298 131.99L58.725 132.348C58.8928 132.5 58.8526 132.719 58.6334 132.846L58.4155 132.973C58.2063 133.076 57.9697 133.111 57.7395 133.072L57.715 133.068C57.6608 133.059 57.6074 133.046 57.5556 133.027L56.9373 132.799C56.9244 132.795 56.9113 132.792 56.898 132.791C56.8735 132.786 56.8487 132.784 56.8239 132.783C56.7855 132.781 56.7471 132.784 56.7096 132.793L56.2084 132.914L56.1902 132.92C56.1273 132.932 56.0707 132.966 56.0304 133.016L55.875 133.431C55.8412 133.506 55.7849 133.567 55.714 133.608C55.6574 133.643 55.5967 133.671 55.5332 133.692C55.4261 133.727 55.3142 133.745 55.2015 133.744H54.8936C54.8134 133.744 54.7334 133.734 54.6554 133.716C54.6058 133.704 54.5572 133.69 54.5098 133.671C54.473 133.657 54.4373 133.639 54.403 133.62C54.3218 133.579 54.2563 133.513 54.2166 133.431L54.0539 133.016C54.0367 132.989 54.0124 132.967 53.9837 132.953C53.9582 132.938 53.9307 132.927 53.902 132.92L53.6488 132.859L53.3956 132.799C53.375 132.793 53.3539 132.789 53.3327 132.787C53.3094 132.785 53.286 132.784 53.2626 132.784C53.2406 132.784 53.2187 132.785 53.1969 132.788C53.18 132.79 53.1633 132.794 53.1472 132.799L52.5302 133.027C52.4758 133.046 52.4197 133.06 52.3628 133.069L52.3372 133.073C52.2791 133.081 52.2205 133.085 52.1618 133.085L52.1348 133.084C52.0742 133.083 52.0138 133.078 51.954 133.068L51.9455 133.066C51.8489 133.05 51.7557 133.019 51.6697 132.972L51.4517 132.846C51.231 132.719 51.1884 132.5 51.3544 132.348L51.7457 131.99C51.7566 131.977 51.7646 131.962 51.7689 131.946C51.7733 131.93 51.7738 131.913 51.7706 131.897L51.7691 131.886C51.7667 131.876 51.762 131.866 51.7554 131.858L51.7553 131.858L51.7538 131.856L51.5428 131.568C51.527 131.541 51.504 131.52 51.4765 131.506C51.4423 131.486 51.4051 131.472 51.3663 131.465L50.6504 131.372C50.553 131.359 50.4585 131.33 50.3706 131.286C50.3555 131.278 50.3379 131.273 50.3238 131.265C50.2635 131.231 50.2101 131.187 50.1664 131.134C50.1303 131.091 50.1095 131.037 50.1075 130.981L50.0981 132.638C50.1071 132.7 50.1317 132.758 50.1696 132.808C50.2074 132.858 50.2573 132.897 50.3145 132.922C50.4153 132.978 50.5262 133.015 50.641 133.029L51.2471 133.107L51.2439 134.214C51.2484 134.276 51.2691 134.335 51.3039 134.386C51.3388 134.436 51.3865 134.477 51.4423 134.503L51.6603 134.629C51.9288 134.76 52.2379 134.779 52.5208 134.684L53.1378 134.456C53.2194 134.436 53.3047 134.436 53.3862 134.456L53.8926 134.577C53.9213 134.584 53.9488 134.595 53.9743 134.61C54.003 134.624 54.0273 134.646 54.0445 134.673L54.2072 135.088C54.247 135.17 54.3125 135.236 54.3936 135.277C54.544 135.359 54.7128 135.402 54.8843 135.402H55.1922C55.3221 135.414 55.4529 135.391 55.5712 135.336C55.6895 135.281 55.7911 135.195 55.8656 135.088L56.0211 134.673C56.0657 134.618 56.1291 134.582 56.199 134.571L56.7003 134.45C56.7757 134.435 56.8534 134.437 56.9279 134.456L57.5463 134.684C57.8289 134.78 58.1379 134.76 58.4062 134.63L58.6241 134.503C58.6788 134.477 58.7257 134.437 58.7599 134.387C58.7942 134.337 58.8146 134.279 58.8191 134.218L58.8223 133.105L59.4074 133.03C59.7112 132.99 59.9469 132.819 59.9459 132.639L59.9553 130.982C59.9553 131.005 59.9518 131.027 59.9449 131.049V131.049Z" fill="url(#paint8_linear_1023_1582)"/>
<path d="M51.3598 130.32C51.4235 130.31 51.4821 130.279 51.5261 130.232L51.7341 129.94C51.7512 129.918 51.7601 129.892 51.7591 129.864C51.7586 129.855 51.7571 129.846 51.7546 129.837L51.7521 129.825C51.7481 129.813 51.7417 129.803 51.7333 129.794L51.3368 129.437C51.3184 129.42 51.3019 129.402 51.2874 129.381L51.2758 129.363C51.2676 129.35 51.2604 129.336 51.2543 129.322L51.2464 129.299C51.2423 129.286 51.2392 129.273 51.2373 129.259L51.2347 129.236C51.2345 129.232 51.2333 129.228 51.2333 129.224L51.2301 130.336L51.3598 130.32Z" fill="url(#paint9_linear_1023_1582)"/>
<path d="M95.8099 104.702C95.9563 104.751 96.0837 104.845 96.1742 104.97C96.2647 105.096 96.3138 105.246 96.3147 105.4C96.3156 105.555 96.2681 105.706 96.179 105.832C96.0899 105.958 95.9636 106.053 95.8178 106.104L85.3582 112.183C84.9835 112.374 84.5687 112.474 84.148 112.474C83.7272 112.474 83.3124 112.374 82.9378 112.183L65.9014 102.347C65.2288 101.958 65.2198 101.33 65.8881 100.942L76.3477 94.8632C76.7238 94.673 77.1395 94.5741 77.561 94.5747C77.9825 94.5752 78.3979 94.6751 78.7735 94.8663L95.8099 104.702ZM84.1322 109.379L90.9676 105.406L77.5738 97.6735L70.7384 101.646L84.1322 109.379" fill="white"/>
<path d="M90.9675 105.406L84.1325 109.378L70.7385 101.645L77.5735 97.6733L90.9675 105.406Z" fill="#50E6FF"/>
<path d="M95.8179 106.104L85.3583 112.183C84.9836 112.374 84.5688 112.474 84.1481 112.474C83.7273 112.474 83.3125 112.374 82.9378 112.183L65.9016 102.347C65.7611 102.284 65.6398 102.186 65.5502 102.061C65.4606 101.936 65.406 101.789 65.3919 101.636L65.3879 103.033C65.402 103.186 65.4566 103.332 65.5462 103.457C65.6358 103.582 65.7571 103.681 65.8976 103.743L82.9338 113.579C83.3085 113.771 83.7233 113.871 84.1441 113.871C84.5649 113.871 84.9796 113.771 85.3543 113.579L95.8139 107.501C95.9509 107.439 96.069 107.342 96.1563 107.22C96.2436 107.097 96.2969 106.954 96.3108 106.804L96.3148 105.408C96.3009 105.557 96.2476 105.701 96.1603 105.823C96.073 105.945 95.9549 106.042 95.8179 106.104V106.104Z" fill="#E8E8E8"/>
<path d="M124.37 121.191C124.516 121.24 124.643 121.334 124.734 121.459C124.824 121.585 124.874 121.735 124.874 121.889C124.875 122.044 124.828 122.195 124.739 122.321C124.65 122.447 124.523 122.542 124.377 122.593L113.918 128.672C113.543 128.863 113.128 128.963 112.708 128.963C112.287 128.963 111.872 128.863 111.497 128.672L88.2647 115.258C87.592 114.87 87.583 114.241 88.2514 113.853L98.711 107.775C99.0871 107.584 99.5028 107.486 99.9243 107.486C100.346 107.487 100.761 107.587 101.137 107.778L124.37 121.191ZM113.866 123.285C114.053 123.38 114.261 123.429 114.471 123.429C114.681 123.429 114.888 123.38 115.076 123.285C115.149 123.26 115.213 123.212 115.257 123.149C115.302 123.086 115.326 123.01 115.325 122.933C115.325 122.855 115.3 122.78 115.255 122.717C115.209 122.655 115.145 122.608 115.072 122.584L98.2272 112.858C98.0398 112.763 97.8324 112.713 97.6221 112.713C97.4117 112.713 97.2043 112.763 97.017 112.858C96.9443 112.884 96.8814 112.932 96.837 112.995C96.7927 113.058 96.7691 113.133 96.7696 113.21C96.77 113.287 96.7944 113.362 96.8395 113.425C96.8846 113.488 96.948 113.534 97.021 113.559L113.866 123.285M101.406 111.011C101.218 110.916 101.011 110.867 100.801 110.867C100.59 110.867 100.383 110.916 100.196 111.011C100.122 111.036 100.059 111.084 100.014 111.147C99.9695 111.21 99.9457 111.286 99.9461 111.363C99.9465 111.44 99.9712 111.516 100.017 111.578C100.062 111.641 100.126 111.688 100.2 111.712L115.551 120.575C115.738 120.672 115.946 120.722 116.156 120.722C116.367 120.722 116.574 120.672 116.762 120.575C116.835 120.55 116.898 120.503 116.943 120.44C116.988 120.376 117.011 120.301 117.011 120.224C117.011 120.146 116.986 120.071 116.94 120.008C116.895 119.946 116.831 119.899 116.758 119.874L101.406 111.011M107.958 123.55C108.145 123.646 108.353 123.696 108.563 123.696C108.773 123.696 108.981 123.646 109.168 123.55C109.241 123.524 109.304 123.477 109.348 123.414C109.392 123.35 109.416 123.275 109.416 123.198C109.415 123.121 109.391 123.046 109.346 122.983C109.301 122.921 109.237 122.874 109.164 122.849L95.0539 114.702C94.8663 114.607 94.6591 114.558 94.4488 114.558C94.2386 114.558 94.0313 114.607 93.8437 114.702C93.7705 114.728 93.7071 114.775 93.6624 114.838C93.6176 114.901 93.5938 114.977 93.5942 115.054C93.5947 115.132 93.6194 115.207 93.6648 115.27C93.7103 115.332 93.7743 115.379 93.8477 115.403L107.958 123.55Z" fill="white"/>
<path d="M116.757 119.874C116.831 119.899 116.895 119.946 116.94 120.008C116.986 120.071 117.011 120.146 117.011 120.224C117.011 120.301 116.988 120.376 116.943 120.44C116.898 120.503 116.835 120.55 116.761 120.575C116.574 120.672 116.367 120.722 116.156 120.722C115.946 120.722 115.738 120.672 115.551 120.575L100.2 111.712C100.126 111.688 100.062 111.641 100.017 111.578C99.9712 111.516 99.9465 111.44 99.9461 111.363C99.9456 111.286 99.9694 111.21 100.014 111.147C100.059 111.084 100.122 111.036 100.196 111.011C100.383 110.916 100.59 110.867 100.801 110.867C101.011 110.867 101.218 110.916 101.406 111.011L116.757 119.874Z" fill="#C3F1FF"/>
<path d="M115.072 122.584C115.145 122.608 115.209 122.655 115.255 122.717C115.3 122.78 115.325 122.855 115.325 122.933C115.326 123.01 115.302 123.086 115.257 123.149C115.213 123.212 115.149 123.26 115.076 123.285C114.888 123.38 114.681 123.429 114.471 123.429C114.261 123.429 114.053 123.38 113.866 123.285L97.0209 113.559C96.948 113.534 96.8845 113.488 96.8395 113.425C96.7944 113.362 96.77 113.287 96.7695 113.21C96.7691 113.133 96.7927 113.058 96.837 112.995C96.8814 112.932 96.9442 112.884 97.0169 112.858C97.2043 112.763 97.4117 112.713 97.622 112.713C97.8324 112.713 98.0398 112.763 98.2271 112.858L115.072 122.584Z" fill="#C3F1FF"/>
<path d="M109.164 122.849C109.237 122.874 109.301 122.921 109.346 122.983C109.391 123.046 109.415 123.121 109.416 123.198C109.416 123.275 109.392 123.35 109.348 123.414C109.304 123.477 109.241 123.524 109.168 123.55C108.981 123.646 108.773 123.696 108.563 123.696C108.353 123.696 108.145 123.646 107.958 123.55L93.8477 115.403C93.7743 115.379 93.7103 115.332 93.6649 115.27C93.6194 115.207 93.5947 115.132 93.5942 115.054C93.5938 114.977 93.6176 114.901 93.6624 114.838C93.7071 114.775 93.7706 114.728 93.8437 114.702C94.0313 114.607 94.2386 114.558 94.4488 114.558C94.6591 114.558 94.8664 114.607 95.0539 114.702L109.164 122.849Z" fill="#C3F1FF"/>
<path d="M124.378 122.593L113.918 128.672C113.543 128.863 113.128 128.963 112.708 128.963C112.287 128.963 111.872 128.863 111.498 128.672L88.2647 115.258C88.1242 115.196 88.0029 115.097 87.9133 114.972C87.8237 114.847 87.7691 114.701 87.7551 114.548L87.7511 115.944C87.7652 116.097 87.8198 116.244 87.9094 116.369C87.999 116.494 88.1203 116.592 88.2608 116.655L111.494 130.068C111.868 130.26 112.283 130.359 112.704 130.359C113.124 130.359 113.539 130.26 113.914 130.068L124.374 123.99C124.51 123.928 124.629 123.831 124.716 123.708C124.803 123.586 124.856 123.443 124.87 123.293L124.874 121.897C124.86 122.046 124.807 122.19 124.72 122.312C124.633 122.434 124.514 122.531 124.378 122.593V122.593Z" fill="#E8E8E8"/>
<path d="M79.1696 115.811C79.2429 115.836 79.3065 115.884 79.3514 115.947C79.3964 116.01 79.4204 116.086 79.4203 116.163C79.4201 116.241 79.3957 116.317 79.3505 116.38C79.3053 116.443 79.2415 116.49 79.1681 116.515C78.9805 116.61 78.7732 116.659 78.563 116.659C78.3527 116.659 78.1454 116.61 77.9579 116.515L62.6061 107.652C62.5332 107.627 62.4697 107.58 62.4247 107.517C62.3796 107.455 62.3552 107.38 62.3547 107.303C62.3543 107.225 62.3779 107.15 62.4222 107.087C62.4666 107.024 62.5295 106.976 62.6021 106.951C62.7902 106.854 62.9983 106.804 63.2096 106.803C63.4208 106.803 63.6292 106.852 63.8178 106.947L79.1696 115.811Z" fill="#1F56A3"/>
<path d="M77.4839 118.52C77.5569 118.545 77.6203 118.592 77.6654 118.654C77.7105 118.717 77.7349 118.792 77.7353 118.869C77.7358 118.946 77.7122 119.022 77.6679 119.085C77.6235 119.148 77.5606 119.195 77.4879 119.221C77.3006 119.317 77.0932 119.367 76.8828 119.367C76.6725 119.367 76.4651 119.317 76.2777 119.221L59.4329 109.496C59.3595 109.471 59.2955 109.425 59.25 109.362C59.2046 109.299 59.1799 109.224 59.1794 109.147C59.179 109.069 59.2028 108.994 59.2476 108.931C59.2924 108.867 59.3558 108.82 59.429 108.795C59.6165 108.7 59.8238 108.65 60.0341 108.65C60.2443 108.65 60.4516 108.7 60.6392 108.795L77.4839 118.52Z" fill="#1F56A3"/>
<path d="M86.7762 117.131C86.923 117.179 87.0509 117.273 87.1418 117.398C87.2327 117.523 87.2821 117.674 87.283 117.829C87.2838 117.984 87.2362 118.135 87.1467 118.261C87.0572 118.387 86.9304 118.482 86.7841 118.533L76.3299 124.608C75.9545 124.8 75.539 124.9 75.1174 124.901C74.6957 124.901 74.28 124.802 73.904 124.611L50.6713 111.198C50.5242 111.148 50.3964 111.054 50.3055 110.928C50.2146 110.802 50.1653 110.651 50.1644 110.496C50.1636 110.341 50.2112 110.19 50.3006 110.063C50.3901 109.936 50.5169 109.841 50.6634 109.789L61.1175 103.714C61.4934 103.523 61.9092 103.424 62.3308 103.424C62.7525 103.425 63.168 103.525 63.5434 103.717L86.7762 117.131ZM76.2777 119.221C76.4651 119.317 76.6725 119.367 76.8829 119.367C77.0933 119.367 77.3006 119.317 77.488 119.221C77.5607 119.195 77.6236 119.148 77.6679 119.085C77.7122 119.022 77.7358 118.946 77.7354 118.869C77.7349 118.792 77.7105 118.717 77.6654 118.654C77.6204 118.592 77.557 118.545 77.484 118.52L60.6392 108.795C60.4516 108.7 60.2443 108.65 60.0341 108.65C59.8238 108.65 59.6165 108.7 59.4289 108.795C59.3558 108.82 59.2924 108.867 59.2476 108.93C59.2028 108.994 59.179 109.069 59.1794 109.147C59.1799 109.224 59.2046 109.299 59.25 109.362C59.2955 109.425 59.3594 109.471 59.4329 109.496L76.2777 119.221M63.8178 106.947C63.6293 106.852 63.4209 106.803 63.2096 106.803C62.9983 106.804 62.7902 106.854 62.6021 106.951C62.5295 106.976 62.4666 107.024 62.4222 107.087C62.3779 107.15 62.3543 107.225 62.3548 107.303C62.3552 107.38 62.3796 107.455 62.4247 107.517C62.4697 107.58 62.5332 107.627 62.6061 107.652L77.9579 116.515C78.1455 116.61 78.3528 116.659 78.563 116.659C78.7732 116.659 78.9805 116.61 79.1681 116.515C79.2415 116.49 79.3053 116.443 79.3505 116.38C79.3957 116.317 79.4201 116.241 79.4203 116.163C79.4205 116.086 79.3964 116.01 79.3514 115.947C79.3065 115.884 79.2429 115.836 79.1696 115.811L63.8178 106.947M70.3646 119.489C70.5522 119.584 70.7595 119.634 70.9697 119.634C71.18 119.634 71.3872 119.584 71.5748 119.489C71.648 119.464 71.7114 119.417 71.7562 119.354C71.8009 119.29 71.8247 119.215 71.8243 119.137C71.8239 119.06 71.7992 118.985 71.7537 118.922C71.7082 118.86 71.6443 118.813 71.5708 118.788L57.4605 110.642C57.2732 110.546 57.0658 110.496 56.8554 110.496C56.645 110.496 56.4376 110.546 56.2503 110.642C56.1776 110.668 56.1147 110.715 56.0704 110.778C56.026 110.841 56.0024 110.917 56.0029 110.994C56.0033 111.071 56.0277 111.146 56.0728 111.208C56.1178 111.271 56.1813 111.318 56.2542 111.343L70.3645 119.489" fill="white"/>
<path d="M71.5708 118.788C71.6443 118.813 71.7082 118.86 71.7537 118.922C71.7992 118.985 71.8239 119.06 71.8243 119.138C71.8247 119.215 71.8009 119.29 71.7562 119.354C71.7114 119.417 71.648 119.464 71.5748 119.489C71.3872 119.584 71.1799 119.634 70.9697 119.634C70.7595 119.634 70.5522 119.584 70.3646 119.489L56.2543 111.343C56.1813 111.318 56.1179 111.271 56.0729 111.209C56.0278 111.146 56.0034 111.071 56.0029 110.994C56.0025 110.917 56.0261 110.841 56.0704 110.778C56.1148 110.715 56.1776 110.668 56.2503 110.642C56.4377 110.546 56.645 110.496 56.8554 110.496C57.0658 110.496 57.2732 110.546 57.4605 110.642L71.5708 118.788Z" fill="#1F56A3"/>
<path d="M86.7841 118.533L76.3298 124.608C75.9544 124.8 75.5389 124.9 75.1173 124.901C74.6957 124.901 74.2799 124.802 73.904 124.611L50.6712 111.198C50.5312 111.135 50.4104 111.037 50.3213 110.912C50.2322 110.787 50.178 110.641 50.1644 110.489L50.1604 111.885C50.174 112.038 50.2282 112.184 50.3173 112.309C50.4064 112.433 50.5272 112.532 50.6672 112.594L73.9 126.008C74.2759 126.199 74.6917 126.298 75.1133 126.297C75.5349 126.297 75.9504 126.196 76.3258 126.004L86.7801 119.929C86.9174 119.868 87.0358 119.771 87.1235 119.648C87.2111 119.526 87.2648 119.383 87.279 119.233L87.283 117.837C87.2687 117.986 87.2151 118.13 87.1274 118.252C87.0398 118.374 86.9213 118.471 86.7841 118.533V118.533Z" fill="#E8E8E8"/>
<path d="M109.139 130.042C109.286 130.091 109.414 130.184 109.505 130.31C109.596 130.435 109.645 130.585 109.646 130.74C109.647 130.895 109.599 131.046 109.51 131.172C109.42 131.299 109.294 131.394 109.147 131.444L98.6931 137.519C98.3177 137.711 97.9022 137.812 97.4805 137.812C97.0589 137.813 96.6431 137.713 96.2673 137.523L79.231 127.687C79.0839 127.637 78.9561 127.543 78.8652 127.417C78.7743 127.291 78.725 127.14 78.7241 126.985C78.7233 126.83 78.7709 126.679 78.8603 126.552C78.9498 126.425 79.0766 126.329 79.2231 126.278L89.6772 120.203C90.0531 120.012 90.4689 119.913 90.8905 119.913C91.3122 119.914 91.7277 120.014 92.1031 120.206L109.139 130.042ZM97.4671 134.715L104.302 130.743L90.9086 123.01L84.0732 126.982L97.4671 134.715Z" fill="white"/>
<path d="M104.302 130.743L97.4675 134.715L84.0735 126.982L90.9085 123.01L104.302 130.743Z" fill="#0078D4"/>
<path d="M109.147 131.444L98.6931 137.519C98.3177 137.711 97.9022 137.812 97.4805 137.812C97.0589 137.813 96.6431 137.713 96.2672 137.522L79.2309 127.687C79.0909 127.624 78.9701 127.526 78.881 127.401C78.7919 127.276 78.7377 127.13 78.7241 126.978L78.7201 128.374C78.7337 128.527 78.7879 128.673 78.877 128.798C78.9661 128.922 79.0869 129.021 79.2269 129.083L96.2632 138.919C96.6391 139.11 97.0549 139.209 97.4765 139.209C97.8982 139.208 98.3137 139.108 98.6891 138.916L109.143 132.841C109.28 132.779 109.399 132.682 109.487 132.56C109.574 132.438 109.628 132.294 109.642 132.144L109.646 130.748C109.632 130.898 109.578 131.041 109.491 131.163C109.403 131.286 109.284 131.382 109.147 131.444V131.444Z" fill="#E8E8E8"/>
<g opacity="0.3">
<path d="M105.611 122.371C105.794 122.433 105.953 122.549 106.066 122.705C106.179 122.861 106.24 123.049 106.241 123.242C106.243 123.434 106.183 123.622 106.072 123.78C105.961 123.937 105.803 124.056 105.621 124.119L98.6881 128.148C98.2207 128.385 97.7039 128.509 97.1798 128.509C96.6557 128.509 96.1389 128.385 95.6715 128.148L68.9518 112.721C68.7696 112.659 68.6112 112.542 68.4987 112.387C68.3861 112.231 68.3251 112.043 68.324 111.851C68.3229 111.659 68.3819 111.471 68.4926 111.314C68.6034 111.156 68.7605 111.038 68.9419 110.974L75.875 106.945C76.3421 106.707 76.859 106.583 77.3833 106.583C77.9076 106.583 78.4244 106.707 78.8915 106.945L105.611 122.371Z" fill="#003067"/>
</g>
<path d="M96.513 83.685C97.172 84.1128 97.7204 84.6906 98.1133 85.3711C98.5062 86.0516 98.7324 86.8154 98.7734 87.6001L98.707 111.023C98.7029 112.458 97.6855 113.038 96.4318 112.314L72.6533 98.5856C71.995 98.1584 71.447 97.5815 71.0542 96.9021C70.6613 96.2227 70.4347 95.46 70.3929 94.6763L70.4593 71.253C70.4634 69.8125 71.4809 69.2327 72.7345 69.9565L96.513 83.685Z" fill="url(#paint10_linear_1023_1582)"/>
<path d="M107.764 77.1465L83.9857 63.418C83.7552 63.2502 83.484 63.1469 83.2002 63.119C82.9164 63.0911 82.6304 63.1395 82.3716 63.2592L71.1205 69.7976C71.3793 69.6779 71.6653 69.6295 71.9491 69.6575C72.2328 69.6854 72.504 69.7886 72.7345 69.9564L96.513 83.6849C97.172 84.1128 97.7204 84.6906 98.1133 85.3711C98.5062 86.0516 98.7324 86.8154 98.7734 87.6001L98.707 111.023C98.735 111.302 98.6887 111.583 98.5728 111.837C98.4568 112.092 98.2755 112.311 98.0471 112.473L109.298 105.935C109.527 105.773 109.708 105.553 109.824 105.299C109.94 105.044 109.986 104.763 109.958 104.485L110.024 81.0617C109.983 80.277 109.757 79.5132 109.364 78.8327C108.972 78.1522 108.423 77.5744 107.764 77.1465Z" fill="url(#paint11_linear_1023_1582)"/>
<path d="M83.1825 57.0244C81.9036 57.7676 81.1093 59.3457 81.1029 61.5856L81.0758 71.1482L84.9056 68.9226L84.9327 59.36C84.9391 57.12 85.7334 55.542 87.0123 54.7988L83.1825 57.0244Z" fill="url(#paint12_linear_1023_1582)"/>
<path d="M92.0829 52.5258C89.4377 50.9985 87.0369 50.8584 85.3028 51.8661L81.473 54.0918C83.2072 53.084 85.6079 53.2242 88.2531 54.7514C93.5021 57.7819 97.7639 65.1577 97.7468 71.195L97.7197 80.7576L101.549 78.5319L101.577 68.9694C101.594 62.932 97.332 55.5563 92.0829 52.5258Z" fill="url(#paint13_linear_1023_1582)"/>
<path d="M88.2531 54.7514C93.5021 57.7819 97.7639 65.1577 97.7468 71.195L97.7197 80.7576L95.3092 79.3659L95.3363 69.8033C95.2053 67.3415 94.4947 64.9454 93.2625 62.8101C92.0303 60.6748 90.3112 58.8606 88.2453 57.5153C84.3213 55.2498 81.1156 57.0766 81.1028 61.5856L81.0757 71.1482L78.6653 69.7565L78.6924 60.194C78.7095 54.1566 82.999 51.718 88.2531 54.7514Z" fill="url(#paint14_linear_1023_1582)"/>
<path d="M84.077 90.213C85.5095 91.1516 86.7206 92.3909 87.6259 93.8447C88.5313 95.2985 89.1093 96.932 89.3197 98.6317C89.3559 98.8216 89.3554 99.0167 89.3181 99.2064C89.3111 99.4016 89.2654 99.5935 89.1839 99.7709C89.1024 99.9484 88.9865 100.108 88.843 100.241C88.6995 100.373 88.5312 100.476 88.3478 100.543C88.1644 100.61 87.9695 100.64 87.7744 100.632C86.4474 100.628 85.1503 100.238 84.0415 99.5088C82.611 98.678 81.3422 97.5958 80.2961 96.3143C79.4751 95.4176 78.9346 94.3001 78.7412 93.0998C78.7326 92.893 78.7496 92.6858 78.7918 92.4831C79.1418 89.6804 81.3688 88.6494 84.077 90.213Z" fill="#003067"/>
<path d="M84.1001 82.0684C85.0243 82.667 85.7937 83.4759 86.3453 84.4289C86.8969 85.3819 87.2151 86.4519 87.2738 87.5515C87.2681 89.5561 85.8362 90.3581 84.0794 89.3438C83.1551 88.746 82.3848 87.9385 81.8313 86.987C81.2777 86.0355 80.9564 84.9668 80.8934 83.8677C80.8991 81.8491 82.3312 81.0472 84.1001 82.0684Z" fill="#003067"/>
<path d="M85.2396 138.014L85.2327 140.447C85.2291 141.711 84.3983 142.974 82.7374 143.939C80.8606 144.893 78.7849 145.391 76.6794 145.391C74.5739 145.391 72.4982 144.893 70.6214 143.939C68.9281 142.961 68.0829 141.678 68.0866 140.398L68.0934 137.965C68.0898 139.246 68.935 140.529 70.6283 141.506C72.5051 142.461 74.5808 142.958 76.6863 142.958C78.7918 142.958 80.8675 142.461 82.7443 141.506C84.4052 140.541 85.236 139.278 85.2396 138.014Z" fill="#E8E8E8"/>
<path d="M82.7143 134.483C86.0675 136.419 86.0852 139.565 82.7443 141.506C80.8676 142.461 78.7919 142.958 76.6864 142.958C74.5809 142.958 72.5051 142.461 70.6284 141.506C67.2656 139.565 67.248 136.419 70.5794 134.483C72.4587 133.526 74.5378 133.027 76.6468 133.027C78.7559 133.027 80.835 133.526 82.7143 134.483V134.483Z" fill="white"/>
<path d="M81.4519 137.917C81.511 137.944 81.5625 137.986 81.6021 138.037C81.6417 138.089 81.6683 138.149 81.6796 138.213C81.7009 138.467 81.3686 138.678 80.9404 138.689L73.4884 138.894C73.2884 138.905 73.0891 138.863 72.9101 138.773C72.8436 138.744 72.7858 138.698 72.7427 138.64C72.6995 138.582 72.6725 138.513 72.6643 138.441L72.6544 136.688C72.653 136.44 73.0054 136.235 73.4335 136.235C73.6277 136.231 73.8198 136.276 73.9913 136.367C74.0544 136.396 74.1087 136.44 74.1485 136.497C74.1884 136.553 74.2123 136.619 74.2178 136.688L74.225 137.968L80.8607 137.787C81.0659 137.776 81.2703 137.821 81.4519 137.917V137.917Z" fill="#0078D4"/>
</g>
<defs>
<linearGradient id="paint0_linear_1023_1582" x1="80.0339" y1="9.26471" x2="80.0339" y2="180.68" gradientUnits="userSpaceOnUse">
<stop stop-color="#00ABDE"/>
<stop offset="1" stop-color="#007ED8"/>
</linearGradient>
<linearGradient id="paint1_linear_1023_1582" x1="49.6778" y1="122.241" x2="49.6778" y2="118.788" gradientUnits="userSpaceOnUse">
<stop stop-color="#F0F0F0" stop-opacity="0"/>
<stop offset="1" stop-color="#F0F0F0" stop-opacity="0.5"/>
</linearGradient>
<linearGradient id="paint2_linear_1023_1582" x1="49.6807" y1="124.594" x2="49.6807" y2="115.774" gradientUnits="userSpaceOnUse">
<stop stop-color="white"/>
<stop offset="0.56" stop-color="#FBFBFB"/>
<stop offset="1" stop-color="#F2F2F2"/>
</linearGradient>
<linearGradient id="paint3_linear_1023_1582" x1="55.4528" y1="117.519" x2="55.4528" y2="119.334" gradientUnits="userSpaceOnUse">
<stop stop-color="#F0F0F0" stop-opacity="0"/>
<stop offset="1" stop-color="#F0F0F0" stop-opacity="0.5"/>
</linearGradient>
<linearGradient id="paint4_linear_1023_1582" x1="49.6737" y1="120.396" x2="49.6737" y2="127.649" gradientUnits="userSpaceOnUse">
<stop stop-color="#F0F0F0" stop-opacity="0"/>
<stop offset="1" stop-color="#F0F0F0" stop-opacity="0.5"/>
</linearGradient>
<linearGradient id="paint5_linear_1023_1582" x1="43.8781" y1="117.512" x2="43.8781" y2="119.338" gradientUnits="userSpaceOnUse">
<stop stop-color="#F0F0F0" stop-opacity="0"/>
<stop offset="1" stop-color="#F0F0F0" stop-opacity="0.5"/>
</linearGradient>
<linearGradient id="paint6_linear_1023_1582" x1="49.6807" y1="124.594" x2="49.6807" y2="115.774" gradientUnits="userSpaceOnUse">
<stop stop-color="white"/>
<stop offset="0.56" stop-color="#FBFBFB"/>
<stop offset="1" stop-color="#F2F2F2"/>
</linearGradient>
<linearGradient id="paint7_linear_1023_1582" x1="58.5488" y1="129.228" x2="58.5488" y2="130.334" gradientUnits="userSpaceOnUse">
<stop stop-color="#F0F0F0" stop-opacity="0"/>
<stop offset="1" stop-color="#F0F0F0" stop-opacity="0.5"/>
</linearGradient>
<linearGradient id="paint8_linear_1023_1582" x1="55.0267" y1="130.981" x2="55.0267" y2="135.401" gradientUnits="userSpaceOnUse">
<stop stop-color="#F0F0F0" stop-opacity="0"/>
<stop offset="1" stop-color="#F0F0F0" stop-opacity="0.5"/>
</linearGradient>
<linearGradient id="paint9_linear_1023_1582" x1="51.4946" y1="129.223" x2="51.4946" y2="130.336" gradientUnits="userSpaceOnUse">
<stop stop-color="#F0F0F0" stop-opacity="0"/>
<stop offset="1" stop-color="#F0F0F0" stop-opacity="0.5"/>
</linearGradient>
<linearGradient id="paint10_linear_1023_1582" x1="84.5832" y1="112.626" x2="84.5832" y2="69.6448" gradientUnits="userSpaceOnUse">
<stop stop-color="#004DAE"/>
<stop offset="0.21" stop-color="#0061C4"/>
<stop offset="0.51" stop-color="#0078DD"/>
<stop offset="0.78" stop-color="#0086EC"/>
<stop offset="1" stop-color="#008BF1"/>
</linearGradient>
<linearGradient id="paint11_linear_1023_1582" x1="90.5725" y1="112.473" x2="90.5725" y2="63.0179" gradientUnits="userSpaceOnUse">
<stop stop-color="#005BA1"/>
<stop offset="0.26" stop-color="#00589D"/>
<stop offset="0.53" stop-color="#004F90"/>
<stop offset="0.8" stop-color="#003F7C"/>
<stop offset="1" stop-color="#003067"/>
</linearGradient>
<linearGradient id="paint12_linear_1023_1582" x1="84.044" y1="71.1482" x2="84.044" y2="54.7988" gradientUnits="userSpaceOnUse">
<stop stop-color="#005BA1"/>
<stop offset="0.43897" stop-color="#004A8A"/>
<stop offset="1" stop-color="#003067"/>
</linearGradient>
<linearGradient id="paint13_linear_1023_1582" x1="81.473" y1="65.9896" x2="101.577" y2="65.9896" gradientUnits="userSpaceOnUse">
<stop stop-color="#005BA1"/>
<stop offset="0.26" stop-color="#00589D"/>
<stop offset="0.53" stop-color="#004F90"/>
<stop offset="0.8" stop-color="#003F7C"/>
<stop offset="1" stop-color="#003067"/>
</linearGradient>
<linearGradient id="paint14_linear_1023_1582" x1="78.6653" y1="67.1024" x2="97.7468" y2="67.1024" gradientUnits="userSpaceOnUse">
<stop stop-color="#008BF1"/>
<stop offset="0.22" stop-color="#0086EC"/>
<stop offset="0.49" stop-color="#0078DD"/>
<stop offset="0.79" stop-color="#0061C4"/>
<stop offset="1" stop-color="#004DAE"/>
</linearGradient>
<clipPath id="clip0_1023_1582">
<rect width="159.356" height="188" fill="white" transform="translate(0.355469 0.986328)"/>
</clipPath>
</defs>
</svg>
