<svg width="100" height="100" viewBox="0 0 100 100" fill="none" xmlns="http://www.w3.org/2000/svg">
<g clip-path="url(#clip0_932_1343)">
<path d="M49.6401 96.45C40.382 96.45 31.3317 93.7047 23.6339 88.5611C15.936 83.4176 9.93624 76.1068 6.3933 67.5534C2.85036 59 1.92337 49.5881 3.72954 40.5078C5.53571 31.4276 9.99394 23.0868 16.5404 16.5403C23.0869 9.99384 31.4277 5.53562 40.5079 3.72945C49.5882 1.92327 59.0001 2.85027 67.5535 6.39321C76.1069 9.93614 83.4176 15.9359 88.5612 23.6338C93.7047 31.3316 96.4501 40.3819 96.4501 49.64C96.4505 55.7873 95.24 61.8745 92.8878 67.5539C90.5355 73.2334 87.0875 78.3938 82.7407 82.7406C78.3939 87.0874 73.2335 90.5354 67.554 92.8877C61.8746 95.2399 55.7874 96.4504 49.6401 96.45V96.45Z" fill="url(#paint0_linear_932_1343)"/>
<path fill-rule="evenodd" clip-rule="evenodd" d="M95.54 49.64C95.54 58.7182 92.848 67.5925 87.8045 75.1407C82.7609 82.6889 75.5923 88.572 67.2052 92.0461C58.818 95.5201 49.5891 96.4291 40.6854 94.658C31.7816 92.887 23.603 88.5154 17.1838 82.0962C10.7646 75.677 6.39302 67.4984 4.62196 58.5946C2.85089 49.6909 3.75987 40.462 7.23393 32.0748C10.708 23.6877 16.5911 16.5191 24.1393 11.4755C31.6875 6.43199 40.5618 3.74 49.64 3.74C55.6677 3.73998 61.6363 4.9272 67.2052 7.23388C72.774 9.54057 77.834 12.9215 82.0963 17.1837C86.3585 21.446 89.7394 26.5059 92.0461 32.0748C94.3528 37.6437 95.54 43.6123 95.54 49.64V49.64ZM49.64 3.62732e-07C59.4579 3.62732e-07 69.0553 2.91134 77.2185 8.36585C85.3818 13.8204 91.7442 21.5731 95.5014 30.6436C99.2585 39.7141 100.242 49.6951 98.3262 59.3243C96.4108 68.9535 91.6831 77.7985 84.7408 84.7408C77.7985 91.6831 68.9535 96.4108 59.3243 98.3262C49.6951 100.242 39.7141 99.2585 30.6436 95.5014C21.5731 91.7442 13.8204 85.3818 8.36585 77.2185C2.91134 69.0553 3.62732e-07 59.4579 3.62732e-07 49.64C-0.000787738 43.121 1.28265 36.6656 3.77702 30.6427C6.27138 24.6197 9.9278 19.1471 14.5375 14.5375C19.1471 9.9278 24.6197 6.27138 30.6427 3.77702C36.6656 1.28265 43.121 -0.000787738 49.64 3.62732e-07V3.62732e-07Z" fill="#F2F1F0"/>
<path fill-rule="evenodd" clip-rule="evenodd" d="M92.7296 49.6401C92.7296 58.1625 90.2024 66.4935 85.4676 73.5796C80.7328 80.6657 74.0031 86.1887 66.1294 89.4501C58.2557 92.7114 49.5918 93.5648 41.2331 91.9021C32.8745 90.2395 25.1966 86.1356 19.1703 80.1093C13.1441 74.0831 9.04017 66.4052 7.37753 58.0465C5.7149 49.6879 6.56822 41.0239 9.8296 33.1503C13.091 25.2766 18.6139 18.5469 25.7 13.8121C32.7862 9.07727 41.1172 6.55009 49.6396 6.55009C55.2983 6.54974 60.9017 7.66407 66.1298 9.82942C71.3579 11.9948 76.1082 15.1687 80.1096 19.1701C84.1109 23.1714 87.2849 27.9218 89.4502 33.1499C91.6156 38.3779 92.7299 43.9813 92.7296 49.6401V49.6401ZM49.6396 2.81009C58.9017 2.81009 67.9558 5.55662 75.6569 10.7024C83.3581 15.8481 89.3604 23.162 92.9049 31.719C96.4493 40.2761 97.3767 49.692 95.5697 58.7762C93.7628 67.8603 89.3027 76.2046 82.7534 82.7539C76.2041 89.3032 67.8598 93.7633 58.7757 95.5703C49.6915 97.3772 40.2756 96.4498 31.7185 92.9054C23.1614 89.3609 15.8476 83.3586 10.7018 75.6574C5.5561 67.9563 2.80957 58.9022 2.80957 49.6401C2.81076 37.2204 7.745 25.3097 16.5271 16.5276C25.3091 7.7455 37.2198 2.81125 49.6396 2.81006V2.81009Z" fill="#0078D4"/>
<path fill-rule="evenodd" clip-rule="evenodd" d="M92.7637 49.6401C92.7637 58.1625 90.2366 66.4935 85.5018 73.5796C80.767 80.6657 74.0372 86.1887 66.1636 89.4501C58.2899 92.7114 49.6259 93.5648 41.2673 91.9021C32.9087 90.2395 25.2308 86.1356 19.2045 80.1093C13.1783 74.0831 9.07435 66.4052 7.41171 58.0465C5.74908 49.6879 6.6024 41.0239 9.86378 33.1503C13.1252 25.2766 18.6481 18.5469 25.7342 13.8121C32.8203 9.07727 41.1514 6.55009 49.6738 6.55009C55.3325 6.54974 60.9359 7.66407 66.164 9.82942C71.3921 11.9948 76.1424 15.1687 80.1437 19.1701C84.1451 23.1714 87.3191 27.9218 89.4844 33.1499C91.6498 38.3779 92.7641 43.9813 92.7637 49.6401V49.6401ZM49.6738 2.81009C58.9359 2.81009 67.9899 5.55662 75.6911 10.7024C83.3923 15.8481 89.3946 23.162 92.939 31.719C96.4835 40.2761 97.4109 49.692 95.6039 58.7762C93.797 67.8603 89.3369 76.2046 82.7876 82.7539C76.2383 89.3032 67.894 93.7633 58.8098 95.5703C49.7257 97.3772 40.3097 96.4498 31.7527 92.9054C23.1956 89.3609 15.8818 83.3586 10.736 75.6574C5.59028 67.9563 2.84375 58.9022 2.84375 49.6401C2.84494 37.2204 7.77918 25.3097 16.5612 16.5276C25.3433 7.7455 37.254 2.81125 49.6738 2.81006V2.81009Z" fill="#0078D4"/>
<path opacity="0.2" d="M22.7389 72.7151H76.5411C76.8237 72.7143 77.0946 72.6016 77.2945 72.4017C77.4944 72.2019 77.607 71.931 77.6079 71.6483V29.6432H21.6721V71.6483C21.6729 71.931 21.7856 72.2018 21.9855 72.4017C22.1854 72.6016 22.4562 72.7143 22.7389 72.7151V72.7151Z" fill="#003067"/>
<path d="M22.7389 70.5188H76.5411C76.8238 70.518 77.0946 70.4054 77.2945 70.2055C77.4944 70.0056 77.6071 69.7347 77.6079 69.452V27.4469H21.6721V69.452C21.6729 69.7347 21.7856 70.0056 21.9855 70.2054C22.1854 70.4053 22.4562 70.518 22.7389 70.5188Z" fill="#F2F2F2"/>
<path d="M21.6721 32.0963H77.6079V27.0823C77.6082 26.9749 77.5872 26.8684 77.5462 26.769C77.5052 26.6697 77.445 26.5794 77.369 26.5034C77.293 26.4274 77.2027 26.3671 77.1033 26.3261C77.004 26.2851 76.8975 26.2642 76.79 26.2645H22.49C22.3825 26.2642 22.2761 26.2851 22.1767 26.3261C22.0773 26.3671 21.9871 26.4274 21.9111 26.5034C21.8351 26.5794 21.7748 26.6697 21.7338 26.769C21.6928 26.8684 21.6719 26.9749 21.6721 27.0823L21.6721 32.0963Z" fill="url(#paint1_linear_932_1343)"/>
<path d="M25.9752 30.7182C26.2556 30.7173 26.5295 30.6333 26.7622 30.4768C26.9949 30.3202 27.176 30.0982 27.2825 29.8388C27.389 29.5793 27.4162 29.2941 27.3607 29.0192C27.3051 28.7443 27.1692 28.4921 26.9703 28.2944C26.7714 28.0967 26.5183 27.9624 26.243 27.9086C25.9678 27.8547 25.6828 27.8837 25.424 27.9919C25.1652 28.1 24.9443 28.2824 24.7893 28.5161C24.6342 28.7498 24.5519 29.0242 24.5528 29.3047C24.5513 29.4915 24.5871 29.6767 24.6581 29.8495C24.7292 30.0222 24.834 30.1791 24.9666 30.3107C25.0991 30.4424 25.2565 30.5463 25.4297 30.6163C25.603 30.6862 25.7884 30.7209 25.9752 30.7182V30.7182Z" fill="#50E6FF"/>
<path d="M72.6496 35.7055H26.6196C26.0131 35.7055 25.5215 36.1971 25.5215 36.8036V65.4178C25.5215 66.0243 26.0131 66.516 26.6196 66.516H72.6496C73.2561 66.516 73.7477 66.0243 73.7477 65.4178V36.8036C73.7477 36.1971 73.2561 35.7055 72.6496 35.7055Z" fill="#E8E8E8"/>
<path opacity="0.2" d="M61.0327 70.5189C60.8309 67.6367 59.5437 64.9383 57.4305 62.968C55.3174 60.9976 52.5357 59.9019 49.6465 59.9019C46.7573 59.9019 43.9756 60.9976 41.8624 62.968C39.7493 64.9383 38.462 67.6367 38.2603 70.5189H61.0327Z" fill="#767676"/>
<path opacity="0.1" d="M65.5911 38.2109C65.5572 36.7143 64.9933 35.2783 63.9997 34.1585C63.0062 33.0388 61.6475 32.308 60.1655 32.0963H58.4121C57.2475 32.258 56.1509 32.7409 55.2454 33.491C54.3399 34.241 53.6613 35.2286 53.2856 36.3427H49.6956C51.9537 35.5809 53.8925 34.0862 55.2039 32.0963H37.454C38.7654 34.0863 40.7044 35.581 42.9626 36.3427H36.4065C35.2481 36.3417 34.1151 36.683 33.1501 37.3239C32.1851 37.9648 31.431 38.8766 30.9827 39.9447L30.9231 40.0981L30.9114 40.1411C30.6702 40.8102 30.5393 41.514 30.5237 42.2251V43.2221C30.5235 45.2366 31.2412 47.1852 32.5481 48.7182C32.6222 48.8065 32.7024 48.8894 32.7883 48.9662C32.9543 49.163 33.1233 49.3573 33.3167 49.5517C33.3938 49.6279 33.4758 49.6991 33.594 49.8002C33.7747 49.9701 33.9612 50.1332 34.1438 50.288C34.3967 50.5038 34.6575 50.7123 34.9309 50.9135C35.1311 51.0605 35.3365 51.2032 35.5471 51.3417C35.8225 51.5234 36.1086 51.6947 36.4045 51.8617C36.6262 51.9862 36.8479 52.1083 37.0784 52.2226C37.3772 52.3715 37.6868 52.5082 38.0696 52.6688C38.2864 52.7606 38.5032 52.8515 38.7229 52.9306C39.0471 53.0497 39.385 53.1542 39.7209 53.2543L39.8703 53.2997C40.0705 53.3607 40.2707 53.4213 40.4748 53.4726C40.8117 53.5585 41.1643 53.6288 41.5861 53.7113L41.7912 53.7528C41.968 53.7895 42.1438 53.8246 42.3274 53.8539C42.7502 53.9208 43.1926 53.9662 43.633 54.0102L43.8205 54.0322C43.9719 54.0507 44.1233 54.0683 44.2775 54.0795C44.964 54.1298 45.6545 54.1557 46.3293 54.1557C47.2394 54.1532 48.1488 54.1036 49.0539 54.0073L49.3019 53.9838C49.5773 53.9579 49.8527 53.9311 50.1173 53.892L50.3002 53.865C50.7203 54.4855 51.286 54.9935 51.9479 55.3449C52.6097 55.6962 53.3476 55.88 54.0969 55.8803H64.4553C65.6722 55.879 66.8389 55.395 67.6993 54.5345C68.5598 53.6741 69.0438 52.5074 69.0451 51.2905V42.6587C69.0438 41.6393 68.7039 40.6493 68.0786 39.8442C67.4534 39.039 66.5784 38.4645 65.5911 38.2109V38.2109Z" fill="#767676"/>
<path d="M58.4121 32.0963H60.1655C59.5848 32.003 58.9929 32.003 58.4121 32.0963V32.0963Z" fill="url(#paint2_linear_932_1343)"/>
<path d="M58.4121 32.0963H60.1655C59.5848 32.003 58.9929 32.003 58.4121 32.0963V32.0963Z" fill="url(#paint3_linear_932_1343)"/>
<path opacity="0.2" d="M56.9612 26.2661V26.2659H35.6965V26.2661C35.6959 28.3401 36.3073 30.3682 37.454 32.0963H55.2039C56.3505 30.3681 56.9618 28.3401 56.9612 26.2661V26.2661Z" fill="#003067"/>
<path d="M46.3291 34.8465C48.0364 34.8465 49.7053 34.3402 51.1248 33.3917C52.5444 32.4432 53.6508 31.0951 54.3041 29.5178C54.9575 27.9405 55.1285 26.2048 54.7954 24.5304C54.4623 22.8559 53.6402 21.3178 52.433 20.1106C51.2258 18.9033 49.6877 18.0812 48.0132 17.7481C46.3388 17.415 44.6032 17.586 43.0258 18.2393C41.4485 18.8926 40.1004 19.999 39.1518 21.4185C38.2033 22.8381 37.697 24.507 37.697 26.2143V26.2144C37.697 28.5038 38.6065 30.6994 40.2253 32.3182C41.8441 33.937 44.0397 34.8465 46.3291 34.8465Z" fill="url(#paint4_linear_932_1343)"/>
<path d="M51.9529 38.8688C52.1052 38.7813 52.2628 38.7033 52.4247 38.6352C52.4824 38.6108 52.5402 38.5865 52.5991 38.5646C52.802 38.4875 53.0104 38.4259 53.2227 38.3805L53.2338 38.3775V38.291H36.4062C35.6429 38.2909 34.8964 38.5158 34.2602 38.9376C33.6239 39.3594 33.1261 39.9593 32.8289 40.6624C32.8191 40.6855 32.8157 40.7116 32.8063 40.735C32.6343 41.1959 32.5389 41.6819 32.5237 42.1736V43.1707C32.5237 44.712 33.0736 46.2027 34.0745 47.3748C34.1501 47.4634 34.2383 47.5376 34.3162 47.6236C34.4463 47.7786 34.5782 47.9325 34.7224 48.0768C34.7996 48.1538 34.8874 48.2185 34.9663 48.2933C35.1205 48.4393 35.2808 48.5782 35.4423 48.7157C35.6597 48.9007 35.8827 49.0793 36.1137 49.2491C36.2874 49.3768 36.4648 49.5002 36.646 49.6193C36.8845 49.7759 37.1309 49.9237 37.3826 50.0655C37.5752 50.1741 37.7693 50.2811 37.9697 50.3809C38.2305 50.5108 38.501 50.6294 38.7748 50.7444C38.9848 50.8327 39.1936 50.9222 39.411 51.0018C39.6978 51.1067 39.9963 51.1977 40.2961 51.2874C40.5189 51.3541 40.738 51.4249 40.968 51.4833C41.2908 51.5652 41.6278 51.6302 41.9646 51.6957C42.1893 51.7393 42.408 51.7903 42.6389 51.8267C43.0259 51.8877 43.4302 51.9285 43.8347 51.969C44.0328 51.9888 44.2227 52.0186 44.4248 52.0335C45.041 52.079 45.6743 52.1043 46.3289 52.1043C47.1723 52.1012 48.0151 52.055 48.8539 51.966C49.1792 51.933 49.5115 51.9082 49.8254 51.8619V51.8618H49.8257C49.7958 51.6555 49.7809 51.4473 49.781 51.2389V42.6069C49.7814 41.875 49.969 41.1554 50.326 40.5164C50.3395 40.4922 50.35 40.4662 50.364 40.4422C50.4729 40.2571 50.5955 40.0804 50.7308 39.9135C50.7669 39.8685 50.8059 39.8258 50.8437 39.7822C50.9552 39.654 51.0741 39.5323 51.1999 39.418C51.2392 39.3822 51.2766 39.3446 51.3172 39.3103C51.4799 39.1726 51.6525 39.047 51.8337 38.9346C51.8723 38.9107 51.9136 38.8913 51.9529 38.8688Z" fill="url(#paint5_linear_932_1343)"/>
<path d="M46.3291 34.8465C48.0364 34.8465 49.7053 34.3402 51.1248 33.3917C52.5444 32.4432 53.6508 31.0951 54.3041 29.5178C54.9575 27.9405 55.1285 26.2048 54.7954 24.5304C54.4623 22.8559 53.6402 21.3178 52.433 20.1106C51.2258 18.9033 49.6877 18.0812 48.0132 17.7481C46.3388 17.415 44.6032 17.586 43.0258 18.2393C41.4485 18.8926 40.1004 19.999 39.1518 21.4185C38.2033 22.8381 37.697 24.507 37.697 26.2143V26.2144C37.697 28.5038 38.6065 30.6994 40.2253 32.3182C41.8441 33.937 44.0397 34.8465 46.3291 34.8465Z" fill="url(#paint6_linear_932_1343)"/>
<path d="M51.9529 38.8688C52.1052 38.7813 52.2628 38.7033 52.4247 38.6352C52.4824 38.6108 52.5402 38.5865 52.5991 38.5646C52.802 38.4875 53.0104 38.4259 53.2227 38.3805L53.2338 38.3775V38.291H36.4062C35.6429 38.2909 34.8964 38.5158 34.2602 38.9376C33.6239 39.3594 33.1261 39.9593 32.8289 40.6624C32.8191 40.6855 32.8157 40.7116 32.8063 40.735C32.6343 41.1959 32.5389 41.6819 32.5237 42.1736V43.1707C32.5237 44.712 33.0736 46.2027 34.0745 47.3748C34.1501 47.4634 34.2383 47.5376 34.3162 47.6236C34.4463 47.7786 34.5782 47.9325 34.7224 48.0768C34.7996 48.1538 34.8874 48.2185 34.9663 48.2933C35.1205 48.4393 35.2808 48.5782 35.4423 48.7157C35.6597 48.9007 35.8827 49.0793 36.1137 49.2491C36.2874 49.3768 36.4648 49.5002 36.646 49.6193C36.8845 49.7759 37.1309 49.9237 37.3826 50.0655C37.5752 50.1741 37.7693 50.2811 37.9697 50.3809C38.2305 50.5108 38.501 50.6294 38.7748 50.7444C38.9848 50.8327 39.1936 50.9222 39.411 51.0018C39.6978 51.1067 39.9963 51.1977 40.2961 51.2874C40.5189 51.3541 40.738 51.4249 40.968 51.4833C41.2908 51.5652 41.6278 51.6302 41.9646 51.6957C42.1893 51.7393 42.408 51.7903 42.6389 51.8267C43.0259 51.8877 43.4302 51.9285 43.8347 51.969C44.0328 51.9888 44.2227 52.0186 44.4248 52.0335C45.041 52.079 45.6743 52.1043 46.3289 52.1043C47.1723 52.1012 48.0151 52.055 48.8539 51.966C49.1792 51.933 49.5115 51.9082 49.8254 51.8619V51.8618H49.8257C49.7958 51.6555 49.7809 51.4473 49.781 51.2389V42.6069C49.7814 41.875 49.969 41.1554 50.326 40.5164C50.3395 40.4922 50.35 40.4662 50.364 40.4422C50.4729 40.2571 50.5955 40.0804 50.7308 39.9135C50.7669 39.8685 50.8059 39.8258 50.8437 39.7822C50.9552 39.654 51.0741 39.5323 51.1999 39.418C51.2392 39.3822 51.2766 39.3446 51.3172 39.3103C51.4799 39.1726 51.6525 39.047 51.8337 38.9346C51.8723 38.9107 51.9136 38.8913 51.9529 38.8688Z" fill="url(#paint7_linear_932_1343)"/>
<path d="M64.4554 40.0174H63.5922V38.291C63.5922 37.1463 63.1375 36.0485 62.3281 35.2391C61.5187 34.4297 60.4209 33.975 59.2762 33.975C58.1315 33.975 57.0337 34.4297 56.2243 35.2391C55.4149 36.0485 54.9602 37.1463 54.9602 38.291V40.0174H54.0969C53.4101 40.0174 52.7515 40.2903 52.2658 40.7759C51.7802 41.2616 51.5073 41.9202 51.5073 42.607V51.239C51.5073 51.5791 51.5743 51.9159 51.7044 52.23C51.8346 52.5442 52.0253 52.8297 52.2658 53.0702C52.5062 53.3107 52.7917 53.5014 53.1059 53.6315C53.4201 53.7617 53.7568 53.8287 54.0969 53.8286H64.4553C64.7954 53.8287 65.1321 53.7617 65.4463 53.6315C65.7605 53.5014 66.046 53.3106 66.2865 53.0702C66.527 52.8297 66.7177 52.5442 66.8478 52.23C66.978 51.9158 67.0449 51.5791 67.0449 51.239V42.607C67.0449 41.9202 66.7721 41.2616 66.2864 40.7759C65.8008 40.2903 65.1422 40.0174 64.4554 40.0174V40.0174ZM59.2762 48.6494C58.9347 48.6494 58.601 48.5482 58.3171 48.3585C58.0332 48.1688 57.8119 47.8991 57.6812 47.5837C57.5506 47.2682 57.5164 46.9211 57.583 46.5862C57.6496 46.2514 57.8141 45.9437 58.0555 45.7023C58.2969 45.4609 58.6045 45.2965 58.9394 45.2298C59.2743 45.1632 59.6214 45.1974 59.9369 45.3281C60.2523 45.4587 60.5219 45.68 60.7116 45.9639C60.9013 46.2478 61.0026 46.5816 61.0026 46.923C61.0026 47.1497 60.958 47.3742 60.8712 47.5837C60.7844 47.7931 60.6573 47.9835 60.4969 48.1438C60.3366 48.3041 60.1463 48.4312 59.9368 48.518C59.7274 48.6048 59.5029 48.6494 59.2762 48.6494V48.6494ZM61.0026 40.0174H57.5498V38.291C57.5498 37.8331 57.7317 37.394 58.0555 37.0703C58.3792 36.7465 58.8184 36.5646 59.2762 36.5646C59.7341 36.5646 60.1732 36.7465 60.497 37.0703C60.8207 37.394 61.0026 37.8331 61.0026 38.291V40.0174Z" fill="url(#paint8_linear_932_1343)"/>
<path d="M49.6469 61.9019C51.4041 61.902 53.1263 62.3932 54.6191 63.32C56.112 64.2469 57.3162 65.5725 58.0957 67.1473C58.8753 68.7221 59.1992 70.4835 59.0309 72.2326C58.8627 73.9817 58.209 75.649 57.1435 77.0464L63.1055 83.0103C63.3318 83.2363 63.4634 83.54 63.4735 83.8597C63.4836 84.1794 63.3716 84.4909 63.1601 84.7308C62.9486 84.9707 62.6536 85.121 62.3352 85.151C62.0168 85.181 61.6989 85.0886 61.4463 84.8925L61.3279 84.7879L55.364 78.8259C54.1736 79.7337 52.7842 80.3449 51.3107 80.6091C49.8372 80.8733 48.3219 80.7827 46.8904 80.345C45.4588 79.9073 44.152 79.1349 43.0782 78.0918C42.0044 77.0488 41.1945 75.765 40.7153 74.3467C40.2362 72.9284 40.1018 71.4165 40.323 69.9359C40.5443 68.4553 41.115 67.0488 41.9879 65.8325C42.8607 64.6163 44.0107 63.6255 45.3425 62.942C46.6744 62.2584 48.1499 61.9019 49.6469 61.9019L49.6469 61.9019ZM49.6469 64.4159C48.2795 64.4159 46.9429 64.8213 45.806 65.581C44.6691 66.3406 43.783 67.4204 43.2597 68.6836C42.7364 69.9469 42.5995 71.3369 42.8663 72.678C43.133 74.0191 43.7915 75.2509 44.7583 76.2178C45.7252 77.1846 46.957 77.8431 48.2981 78.1098C49.6392 78.3766 51.0292 78.2397 52.2925 77.7164C53.5558 77.1932 54.6355 76.3071 55.3951 75.1701C56.1548 74.0332 56.5603 72.6966 56.5603 71.3293C56.5603 70.4214 56.3815 69.5224 56.034 68.6836C55.6866 67.8448 55.1774 67.0827 54.5354 66.4407C53.8934 65.7988 53.1313 65.2895 52.2925 64.9421C51.4537 64.5946 50.5547 64.4158 49.6469 64.4158V64.4159Z" fill="#F2F2F2"/>
<path opacity="0.4" d="M49.6468 78.2426C53.465 78.2426 56.5602 75.1474 56.5602 71.3292C56.5602 67.5111 53.465 64.4158 49.6468 64.4158C45.8286 64.4158 42.7334 67.5111 42.7334 71.3292C42.7334 75.1474 45.8286 78.2426 49.6468 78.2426Z" fill="#F2F2F2"/>
</g>
<defs>
<linearGradient id="paint0_linear_932_1343" x1="47.8697" y1="-15.1531" x2="51.8525" y2="130.615" gradientUnits="userSpaceOnUse">
<stop stop-color="#00ABDE"/>
<stop offset="1" stop-color="#007ED8"/>
</linearGradient>
<linearGradient id="paint1_linear_932_1343" x1="21.6721" y1="29.1804" x2="77.7081" y2="29.1804" gradientUnits="userSpaceOnUse">
<stop stop-color="#005BA1"/>
<stop offset="0.26" stop-color="#00589D"/>
<stop offset="0.53" stop-color="#004F90"/>
<stop offset="0.8" stop-color="#003F7C"/>
<stop offset="1" stop-color="#003067"/>
</linearGradient>
<linearGradient id="paint2_linear_932_1343" x1="59.2888" y1="55.8804" x2="59.2888" y2="26.2659" gradientUnits="userSpaceOnUse">
<stop stop-color="#004DAE"/>
<stop offset="0.21" stop-color="#0061C4"/>
<stop offset="0.51" stop-color="#0078DD"/>
<stop offset="0.78" stop-color="#0086EC"/>
<stop offset="1" stop-color="#008BF1"/>
</linearGradient>
<linearGradient id="paint3_linear_932_1343" x1="59.2888" y1="32.0963" x2="59.2888" y2="20.1719" gradientUnits="userSpaceOnUse">
<stop stop-color="#004DAE"/>
<stop offset="0.21" stop-color="#0061C4"/>
<stop offset="0.51" stop-color="#0078DD"/>
<stop offset="0.78" stop-color="#0086EC"/>
<stop offset="1" stop-color="#008BF1"/>
</linearGradient>
<linearGradient id="paint4_linear_932_1343" x1="43.7425" y1="52.1043" x2="43.7425" y2="17.5204" gradientUnits="userSpaceOnUse">
<stop stop-color="#005BA1"/>
<stop offset="0.26" stop-color="#00589D"/>
<stop offset="0.53" stop-color="#004F90"/>
<stop offset="0.8" stop-color="#003F7C"/>
<stop offset="1" stop-color="#003067"/>
</linearGradient>
<linearGradient id="paint5_linear_932_1343" x1="43.7423" y1="52.1043" x2="43.7423" y2="17.5204" gradientUnits="userSpaceOnUse">
<stop stop-color="#005BA1"/>
<stop offset="0.26" stop-color="#00589D"/>
<stop offset="0.53" stop-color="#004F90"/>
<stop offset="0.8" stop-color="#003F7C"/>
<stop offset="1" stop-color="#003067"/>
</linearGradient>
<linearGradient id="paint6_linear_932_1343" x1="46.3291" y1="34.8465" x2="46.3291" y2="17.5822" gradientUnits="userSpaceOnUse">
<stop stop-color="#004DAE"/>
<stop offset="1" stop-color="#008BF1"/>
</linearGradient>
<linearGradient id="paint7_linear_932_1343" x1="42.8787" y1="52.1043" x2="42.8787" y2="38.291" gradientUnits="userSpaceOnUse">
<stop stop-color="#004DAE"/>
<stop offset="1" stop-color="#008BF1"/>
</linearGradient>
<linearGradient id="paint8_linear_932_1343" x1="59.2762" y1="53.8286" x2="59.2762" y2="33.975" gradientUnits="userSpaceOnUse">
<stop stop-color="#003067"/>
<stop offset="1" stop-color="#1F56A3"/>
</linearGradient>
<clipPath id="clip0_932_1343">
<rect width="99.2799" height="99.28" fill="white"/>
</clipPath>
</defs>
</svg>
