<?xml version="1.0" encoding="UTF-8"?>
<svg width="100px" height="100px" viewBox="0 0 100 100" version="1.1" xmlns="http://www.w3.org/2000/svg" xmlns:xlink="http://www.w3.org/1999/xlink">
    <!-- Generator: Sketch 55.2 (78181) - https://sketchapp.com -->
    <title>Modern your enterprise deployment with Microsoft 365/use-autopilot-to-deploy-windows-10</title>
    <desc>Created with Sketch.</desc>
    <defs>
        <rect id="path-1" x="0" y="0" width="96" height="96" rx="48"></rect>
        <filter x="-5.7%" y="-5.7%" width="111.4%" height="111.4%" filterUnits="objectBoundingBox" id="filter-3">
            <feOffset dx="0" dy="2" in="SourceAlpha" result="shadowOffsetOuter1"></feOffset>
            <feColorMatrix values="0 0 0 0 0   0 0 0 0 0   0 0 0 0 0  0 0 0 0.102864583 0" type="matrix" in="shadowOffsetOuter1" result="shadowMatrixOuter1"></feColorMatrix>
            <feMerge>
                <feMergeNode in="shadowMatrixOuter1"></feMergeNode>
                <feMergeNode in="SourceGraphic"></feMergeNode>
            </feMerge>
        </filter>
        <circle id="path-4" cx="48" cy="48" r="9"></circle>
        <filter x="-2.8%" y="-2.8%" width="105.6%" height="105.6%" filterUnits="objectBoundingBox" id="filter-5">
            <feOffset dx="0" dy="1" in="SourceAlpha" result="shadowOffsetInner1"></feOffset>
            <feComposite in="shadowOffsetInner1" in2="SourceAlpha" operator="arithmetic" k2="-1" k3="1" result="shadowInnerInner1"></feComposite>
            <feColorMatrix values="0 0 0 0 0   0 0 0 0 0   0 0 0 0 0  0 0 0 0.1 0" type="matrix" in="shadowInnerInner1"></feColorMatrix>
        </filter>
    </defs>
    <g id="Badges" stroke="none" stroke-width="1" fill="none" fill-rule="evenodd">
        <g id="Modern-your-enterprise-deployment-with-Microsoft-365-1" transform="translate(-50.000000, -1260.000000)">
            <g id="Modern-your-enterprise-deployment-with-Microsoft-365/use-autopilot-to-deploy-windows-10" transform="translate(50.000000, 1260.000000)">
                <g id="Mask" transform="translate(2.000000, 2.000000)">
                    <mask id="mask-2" fill="white">
                        <use xlink:href="#path-1"></use>
                    </mask>
                    <use id="BG" fill="#55A2FF" xlink:href="#path-1"></use>
                    <g id="Steering-Wheel" filter="url(#filter-3)" mask="url(#mask-2)">
                        <g transform="translate(13.000000, 13.000000)">
                            <polyline id="Fill-21" fill="#546670" points="40.46875 65.625 29.53125 65.625 28.4375 43.75 41.5625 43.75 40.46875 65.625"></polyline>
                            <path d="M41.5625,43.75 L28.4375,43.75 L28.6879687,46.5073438 C30.025625,47.2434375 31.504375,47.753125 33.075,47.985 C34.1654688,48.1446875 35,49.030625 35,50.133125 L35,65.625 L40.46875,65.625 L41.453125,45.9375 L41.3634375,45.9375 L41.5625,43.75" id="Fill-22" fill="#30404D"></path>
                            <path d="M67.8125,29.53125 L45.1139063,28.4998438 C42.9734375,25.1759375 39.2492187,22.96875 35,22.96875 C30.7507813,22.96875 27.0254688,25.1759375 24.885,28.4998438 L2.1875,29.53125 L2.1875,38.28125 L23.7595313,39.26125 C25.4810938,43.7992188 29.8560938,47.03125 35,47.03125 C40.1417188,47.03125 44.5178125,43.7992188 46.239375,39.26125 L67.8125,38.28125 L67.8125,29.53125" id="Fill-23" fill="#546670"></path>
                            <path d="M35,63.4375 C19.298125,63.4375 6.5625,50.7051562 6.5625,35 C6.5625,19.2948438 19.298125,6.5625 35,6.5625 C50.7095312,6.5625 63.4375,19.2948438 63.4375,35 C63.4375,50.7051562 50.7095312,63.4375 35,63.4375 Z M35,0 C15.675625,0 0,15.6701562 0,35 C0,54.3298438 15.675625,70 35,70 C54.3353125,70 70,54.3298438 70,35 C70,15.6701562 54.3353125,0 35,0 L35,0 Z" id="Fill-24" fill="#30404D"></path>
                            <path d="M37.1875,52.5 L32.8125,52.5 C32.2076562,52.5 31.71875,52.0110938 31.71875,51.40625 C31.71875,50.8014062 32.2076562,50.3125 32.8125,50.3125 L37.1875,50.3125 C37.79125,50.3125 38.28125,50.8014062 38.28125,51.40625 C38.28125,52.0110938 37.79125,52.5 37.1875,52.5" id="Fill-25" fill="#546670"></path>
                            <path d="M37.1875,56.875 L32.8125,56.875 C32.2076562,56.875 31.71875,56.3860938 31.71875,55.78125 C31.71875,55.1764063 32.2076562,54.6875 32.8125,54.6875 L37.1875,54.6875 C37.79125,54.6875 38.28125,55.1764063 38.28125,55.78125 C38.28125,56.3860938 37.79125,56.875 37.1875,56.875" id="Fill-26" fill="#546670"></path>
                            <path d="M37.1875,61.25 L32.8125,61.25 C32.2076562,61.25 31.71875,60.7610938 31.71875,60.15625 C31.71875,59.5514063 32.2076562,59.0625 32.8125,59.0625 L37.1875,59.0625 C37.79125,59.0625 38.28125,59.5514063 38.28125,60.15625 C38.28125,60.7610938 37.79125,61.25 37.1875,61.25" id="Fill-27" fill="#546670"></path>
                            <path d="M32.8125,55.78125 L37.1875,55.78125 C37.5878125,55.78125 37.9235937,56.0065625 38.1139062,56.328125 C38.2101562,56.1651563 38.28125,55.9846875 38.28125,55.78125 C38.28125,55.1764063 37.7923437,54.6875 37.1875,54.6875 L32.8125,54.6875 C32.20875,54.6875 31.71875,55.1764063 31.71875,55.78125 C31.71875,55.9846875 31.7898437,56.1651563 31.8860938,56.328125 C32.0775,56.0065625 32.4121875,55.78125 32.8125,55.78125" id="Fill-28" fill="#30404D"></path>
                            <path d="M32.8125,51.40625 L37.1875,51.40625 C37.5878125,51.40625 37.9235937,51.6315625 38.1139062,51.953125 C38.2101562,51.7901562 38.28125,51.6096875 38.28125,51.40625 C38.28125,50.8014062 37.7923437,50.3125 37.1875,50.3125 L32.8125,50.3125 C32.20875,50.3125 31.71875,50.8014062 31.71875,51.40625 C31.71875,51.6096875 31.7898437,51.7901562 31.8860938,51.953125 C32.0775,51.6315625 32.4121875,51.40625 32.8125,51.40625" id="Fill-29" fill="#30404D"></path>
                            <path d="M32.8125,60.15625 L37.1875,60.15625 C37.5878125,60.15625 37.9235937,60.3815625 38.1139062,60.703125 C38.2101562,60.5401563 38.28125,60.3596875 38.28125,60.15625 C38.28125,59.5514063 37.7923437,59.0625 37.1875,59.0625 L32.8125,59.0625 C32.20875,59.0625 31.71875,59.5514063 31.71875,60.15625 C31.71875,60.3596875 31.7898437,60.5401563 31.8860938,60.703125 C32.0775,60.3815625 32.4121875,60.15625 32.8125,60.15625" id="Fill-30" fill="#30404D"></path>
                            <path d="M2.1875,33.90625 L2.1875,38.28125 L23.7595313,39.26125 C25.4810938,43.7992188 29.8560938,47.03125 35,47.03125 C40.1417188,47.03125 44.5178125,43.7992188 46.239375,39.26125 L67.8125,38.28125 L67.8125,33.90625 L2.1875,33.90625" id="Fill-31" fill="#30404D"></path>
                            <path d="M51.40625,33.90625 C51.40625,34.5110938 50.91625,35 50.3125,35 C49.7076562,35 49.21875,34.5110938 49.21875,33.90625 C49.21875,33.3014062 49.7076562,32.8125 50.3125,32.8125 C50.91625,32.8125 51.40625,33.3014062 51.40625,33.90625" id="Fill-32" fill="#546670"></path>
                            <path d="M55.78125,33.90625 C55.78125,34.5110938 55.29125,35 54.6875,35 C54.0826562,35 53.59375,34.5110938 53.59375,33.90625 C53.59375,33.3014062 54.0826562,32.8125 54.6875,32.8125 C55.29125,32.8125 55.78125,33.3014062 55.78125,33.90625" id="Fill-33" fill="#546670"></path>
                            <path d="M60.15625,33.90625 C60.15625,34.5110938 59.66625,35 59.0625,35 C58.4576563,35 57.96875,34.5110938 57.96875,33.90625 C57.96875,33.3014062 58.4576563,32.8125 59.0625,32.8125 C59.66625,32.8125 60.15625,33.3014062 60.15625,33.90625" id="Fill-34" fill="#546670"></path>
                            <path d="M18.59375,33.90625 C18.59375,33.3014062 19.0826563,32.8125 19.6875,32.8125 C20.29125,32.8125 20.78125,33.3014062 20.78125,33.90625 C20.78125,34.5110938 20.29125,35 19.6875,35 C19.0826563,35 18.59375,34.5110938 18.59375,33.90625" id="Fill-35" fill="#546670"></path>
                            <path d="M14.21875,33.90625 C14.21875,33.3014062 14.7076563,32.8125 15.3125,32.8125 C15.91625,32.8125 16.40625,33.3014062 16.40625,33.90625 C16.40625,34.5110938 15.91625,35 15.3125,35 C14.7076563,35 14.21875,34.5110938 14.21875,33.90625" id="Fill-36" fill="#546670"></path>
                            <path d="M9.84375,33.90625 C9.84375,33.3014062 10.3326563,32.8125 10.9375,32.8125 C11.54125,32.8125 12.03125,33.3014062 12.03125,33.90625 C12.03125,34.5110938 11.54125,35 10.9375,35 C10.3326563,35 9.84375,34.5110938 9.84375,33.90625" id="Fill-37" fill="#546670"></path>
                            <path d="M27.34375,35 C27.34375,39.2284375 30.7704687,42.65625 35,42.65625 C39.2284375,42.65625 42.65625,39.2284375 42.65625,35 C42.65625,30.7715625 39.2284375,27.34375 35,27.34375 C30.7704687,27.34375 27.34375,30.7715625 27.34375,35" id="Fill-38" fill="#546670"></path>
                        </g>
                    </g>
                    <g id="Stars" mask="url(#mask-2)" fill="#FFFFFF">
                        <g transform="translate(7.000000, 17.000000)">
                            <path d="M6.12218666,38.0487603 L4.59151082,38.0487603 L4.59151082,36.5180845 C4.59151082,36.0965516 4.24770572,35.7527465 3.8261729,35.7527465 C3.40464009,35.7527465 3.06083499,36.0965516 3.06083499,36.5180845 L3.06083499,38.0487603 L1.53015915,38.0487603 C1.10862633,38.0487603 0.764821234,38.3925654 0.764821234,38.8140982 C0.764821234,39.235631 1.10862633,39.5794361 1.53015915,39.5794361 L3.06083499,39.5794361 L3.06083499,41.1101097 C3.06083499,41.5316425 3.40464009,41.8754476 3.8261729,41.8754476 C4.24770572,41.8754476 4.59151082,41.5316425 4.59151082,41.1101097 L4.59151082,39.5794361 L6.12218666,39.5794361 C6.54371947,39.5794361 6.88752457,39.235631 6.88752457,38.8140982 C6.88752457,38.3925654 6.54371947,38.0487603 6.12218666,38.0487603 Z M78.939165,28.7630402 C79.1424541,28.7630402 79.336781,28.68232 79.4802819,28.5388192 C79.6237827,28.3953183 79.7045029,28.2009913 79.7045029,27.9977023 L79.7045029,27.2323644 L80.4698408,27.2323644 C80.8913737,27.2323644 81.2351788,26.8885593 81.2351788,26.4670264 C81.2351788,26.0454936 80.8913737,25.7016885 80.4698408,25.7016885 L79.7045029,25.7016885 L79.7045029,24.9363506 C79.7045029,24.5148178 79.3606978,24.1710127 78.939165,24.1710127 C78.5176322,24.1710127 78.1738271,24.5148178 78.1738271,24.9363506 L78.1738271,25.7016885 L77.4084892,25.7016885 C76.9869564,25.7016885 76.6431513,26.0454936 76.6431513,26.4670264 C76.6431513,26.8885593 76.9869564,27.2323644 77.4084892,27.2323644 L78.1738271,27.2323644 L78.1738271,27.9977023 C78.1738271,28.2009913 78.2545473,28.3953183 78.3980481,28.5388192 C78.541549,28.68232 78.735876,28.7630402 78.939165,28.7630402 Z M20.7734833,62.9601375 C20.3519505,62.9601375 20.0081454,63.3039426 20.0081454,63.7254754 L20.0081454,64.4908134 L19.2428075,64.4908134 C18.8212746,64.4908134 18.4774695,64.8346185 18.4774695,65.2561513 C18.4774695,65.6776841 18.8212746,66.0214892 19.2428075,66.0214892 L20.0081454,66.0214892 L20.0081454,66.7868271 C20.0081454,67.2083599 20.3519505,67.552165 20.7734833,67.552165 C21.1950161,67.552165 21.5388212,67.2083599 21.5388212,66.7868271 L21.5388212,66.0214892 L22.3041591,66.0214892 C22.7256919,66.0214892 23.069497,65.6776841 23.069497,65.2561513 C23.069497,64.8346185 22.7256919,64.4908134 22.3041591,64.4908134 L21.5388212,64.4908134 L21.5388212,63.7254754 C21.5388212,63.5221864 21.458101,63.3278594 21.3146002,63.1843586 C21.1710993,63.0408577 20.9767724,62.9601375 20.7734833,62.9601375 Z M72.0511238,9.38648331 C72.0511238,9.80801612 72.3949289,10.1518212 72.8164617,10.1518212 C73.2379945,10.1518212 73.5817996,9.80801612 73.5817996,9.38648331 C74.0033324,9.38648331 74.3471375,9.04267821 74.3471375,8.62114539 C74.3471375,8.19961257 74.0033324,7.85580747 73.5817996,7.85580747 C73.5817996,7.43427465 73.2379945,7.09046955 72.8164617,7.09046955 C72.3949289,7.09046955 72.0511238,7.43427465 72.0511238,7.85580747 C71.6295909,7.85580747 71.2857858,8.19961257 71.2857858,8.62114539 C71.2857858,9.04267821 71.6295909,9.38648331 72.0511238,9.38648331 Z M45.2642967,15.5091866 C45.2642967,15.9307195 45.6081018,16.2745246 46.0296346,16.2745246 C46.4511674,16.2745246 46.7949725,15.9307195 46.7949725,15.5091866 C47.2165053,15.5091866 47.5603104,15.1653815 47.5603104,14.7438487 C47.5603104,14.3223159 47.2165053,13.9785108 46.7949725,13.9785108 C46.7949725,13.556978 46.4511674,13.2131729 46.0296346,13.2131729 C45.6081018,13.2131729 45.2642967,13.556978 45.2642967,13.9785108 C44.8427638,13.9785108 44.4989587,14.3223159 44.4989587,14.7438487 C44.4989587,15.1653815 44.8427638,15.5091866 45.2642967,15.5091866 Z M14.4774695,5.8052004 L17.5388212,5.8052004 L17.5388212,8.86655207 C17.5388212,9.28808488 17.8826263,9.63188998 18.3041591,9.63188998 C18.7256919,9.63188998 19.069497,9.28808488 19.069497,8.86655207 L19.069497,5.8052004 L22.1308487,5.8052004 C22.5523815,5.8052004 22.8961866,5.4613953 22.8961866,5.03986248 C22.8961866,4.61832966 22.5523815,4.27452456 22.1308487,4.27452456 L19.069497,4.27452456 L19.069497,1.21317289 C19.069497,0.791640075 18.7256919,0.447834976 18.3041591,0.447834976 C17.8826263,0.447834976 17.5388212,0.791640075 17.5388212,1.21317289 L17.5388212,4.27452456 L14.4774695,4.27452456 C14.0559367,4.27452456 13.7121316,4.61832966 13.7121316,5.03986248 C13.7121316,5.4613953 14.0559367,5.8052004 14.4774695,5.8052004 Z"></path>
                        </g>
                    </g>
                    <g id="Oval" mask="url(#mask-2)">
                        <use fill="#FFFFFF" fill-rule="evenodd" xlink:href="#path-4"></use>
                        <use fill="black" fill-opacity="1" filter="url(#filter-5)" xlink:href="#path-4"></use>
                    </g>
                    <g id="microsoft" mask="url(#mask-2)" fill-rule="nonzero">
                        <g transform="translate(43.000000, 43.000000)" id="Rectangle-path">
                            <rect fill="#E86C60" x="0" y="0" width="4.375" height="4.375"></rect>
                            <polygon fill="#72C472" points="5.625 0 10 0 10 4.375 5.625 4.375"></polygon>
                            <polygon fill="#43A6DD" points="0 5.625 4.375 5.625 4.375 10 0 10"></polygon>
                            <polygon fill="#EFD358" points="5.625 5.625 10 5.625 10 10 5.625 10"></polygon>
                        </g>
                    </g>
                </g>
                <g id="Azure-Border" stroke="#0078D4" stroke-width="4">
                    <rect x="2" y="2" width="96" height="96" rx="48"></rect>
                </g>
            </g>
        </g>
    </g>
</svg>