<svg width="100" height="100" viewBox="0 0 100 100" fill="none" xmlns="http://www.w3.org/2000/svg">
<g clip-path="url(#clip0)">
<path d="M49.6401 96.4481C40.382 96.4481 31.3317 93.7028 23.6339 88.5592C15.936 83.4157 9.93624 76.105 6.3933 67.5516C2.85036 58.9981 1.92337 49.5862 3.72954 40.506C5.53571 31.4257 9.99394 23.085 16.5404 16.5385C23.0869 9.99198 31.4277 5.53376 40.5079 3.72759C49.5882 1.92141 59.0001 2.84841 67.5535 6.39135C76.1069 9.93428 83.4176 15.934 88.5612 23.6319C93.7047 31.3298 96.4501 40.38 96.4501 49.6381C96.4505 55.7854 95.24 61.8726 92.8878 67.5521C90.5355 73.2315 87.0875 78.392 82.7407 82.7388C78.3939 87.0856 73.2335 90.5335 67.554 92.8858C61.8746 95.2381 55.7874 96.4486 49.6401 96.4481V96.4481Z" fill="url(#paint0_linear)"/>
<path fill-rule="evenodd" clip-rule="evenodd" d="M95.54 49.64C95.54 58.7182 92.848 67.5925 87.8045 75.1407C82.7609 82.6889 75.5923 88.572 67.2052 92.0461C58.818 95.5201 49.5891 96.4291 40.6854 94.658C31.7816 92.887 23.603 88.5154 17.1838 82.0962C10.7646 75.677 6.39302 67.4984 4.62196 58.5946C2.85089 49.6909 3.75987 40.462 7.23393 32.0748C10.708 23.6877 16.5911 16.5191 24.1393 11.4755C31.6875 6.43199 40.5618 3.74 49.64 3.74C55.6677 3.73998 61.6363 4.9272 67.2052 7.23388C72.774 9.54057 77.834 12.9215 82.0963 17.1837C86.3585 21.446 89.7394 26.5059 92.0461 32.0748C94.3528 37.6437 95.54 43.6123 95.54 49.64V49.64ZM49.64 3.62732e-07C59.4579 3.62732e-07 69.0553 2.91134 77.2185 8.36585C85.3818 13.8204 91.7442 21.5731 95.5014 30.6436C99.2585 39.7141 100.242 49.6951 98.3262 59.3243C96.4108 68.9535 91.6831 77.7985 84.7408 84.7408C77.7985 91.6831 68.9535 96.4108 59.3243 98.3262C49.6951 100.242 39.7141 99.2585 30.6436 95.5014C21.5731 91.7442 13.8204 85.3818 8.36585 77.2185C2.91134 69.0553 3.62732e-07 59.4579 3.62732e-07 49.64C-0.000787738 43.121 1.28265 36.6656 3.77702 30.6427C6.27138 24.6197 9.9278 19.1471 14.5375 14.5375C19.1471 9.9278 24.6197 6.27138 30.6427 3.77702C36.6656 1.28265 43.121 -0.000787738 49.64 3.62732e-07V3.62732e-07Z" fill="#F2F1F0"/>
<path fill-rule="evenodd" clip-rule="evenodd" d="M92.7296 49.6386C92.7296 58.161 90.2024 66.492 85.4676 73.5781C80.7328 80.6643 74.0031 86.1872 66.1294 89.4486C58.2558 92.71 49.5918 93.5633 41.2332 91.9007C32.8745 90.238 25.1966 86.1341 19.1704 80.1079C13.1441 74.0816 9.0402 66.4037 7.37756 58.0451C5.71493 49.6864 6.56825 41.0225 9.82963 33.1488C13.091 25.2751 18.614 18.5454 25.7001 13.8106C32.7862 9.07581 41.1172 6.54862 49.6396 6.54862C55.2984 6.54828 60.9018 7.6626 66.1298 9.82795C71.3579 11.9933 76.1083 15.1673 80.1096 19.1686C84.1109 23.17 87.2849 27.9203 89.4503 33.1484C91.6156 38.3765 92.7299 43.9799 92.7296 49.6386V49.6386ZM49.6396 2.80862C58.9017 2.80862 67.9558 5.55515 75.657 10.7009C83.3581 15.8466 89.3604 23.1605 92.9049 31.7176C96.4493 40.2746 97.3767 49.6906 95.5698 58.7747C93.7628 67.8588 89.3027 76.2031 82.7534 82.7524C76.2041 89.3017 67.8598 93.7619 58.7757 95.5688C49.6916 97.3757 40.2756 96.4484 31.7185 92.9039C23.1615 89.3594 15.8476 83.3571 10.7019 75.656C5.55613 67.9548 2.8096 58.9007 2.8096 49.6386C2.81079 37.2189 7.74503 25.3082 16.5271 16.5261C25.3092 7.74403 37.2199 2.80979 49.6396 2.80859V2.80862Z" fill="#0078D4"/>
<path fill-rule="evenodd" clip-rule="evenodd" d="M92.7295 49.6386C92.7295 58.161 90.2023 66.492 85.4675 73.5781C80.7327 80.6642 74.003 86.1872 66.1293 89.4486C58.2556 92.7099 49.5917 93.5633 41.233 91.9006C32.8744 90.238 25.1965 86.1341 19.1702 80.1078C13.144 74.0816 9.04008 66.4037 7.37744 58.045C5.7148 49.6864 6.56813 41.0224 9.82951 33.1488C13.0909 25.2751 18.6138 18.5454 25.7 13.8106C32.7861 9.07578 41.1171 6.54859 49.6395 6.54859C55.2982 6.54825 60.9016 7.66257 66.1297 9.82792C71.3578 11.9933 76.1081 15.1673 80.1095 19.1686C84.1108 23.1699 87.2848 27.9203 89.4501 33.1484C91.6155 38.3764 92.7298 43.9798 92.7295 49.6386V49.6386ZM49.6395 2.80859C58.9016 2.80859 67.9557 5.55513 75.6568 10.7009C83.358 15.8466 89.3603 23.1605 92.9048 31.7175C96.4492 40.2746 97.3766 49.6905 95.5696 58.7747C93.7627 67.8588 89.3026 76.2031 82.7533 82.7524C76.204 89.3017 67.8597 93.7618 58.7756 95.5688C49.6914 97.3757 40.2755 96.4483 31.7184 92.9039C23.1614 89.3594 15.8475 83.3571 10.7018 75.656C5.55601 67.9548 2.80948 58.9007 2.80948 49.6386C2.81067 37.2189 7.74492 25.3082 16.527 16.5261C25.3091 7.74403 37.2198 2.80979 49.6395 2.80859V2.80859Z" fill="#0078D4"/>
<path fill-rule="evenodd" clip-rule="evenodd" d="M44.1276 48.3772L27.8589 64.6458C27.5943 64.3858 27.3842 64.0756 27.2408 63.7334C27.0975 63.3912 27.0239 63.0238 27.0243 62.6528V37.211C27.0225 36.5276 27.2743 35.8678 27.731 35.3594L44.1276 48.3772Z" fill="#E8E8E8"/>
<path fill-rule="evenodd" clip-rule="evenodd" d="M71.4201 64.6476C71.1601 64.9121 70.8498 65.1221 70.5076 65.2653C70.1654 65.4085 69.7981 65.482 69.4272 65.4815H29.8509C29.4801 65.4819 29.1129 65.4084 28.7708 65.2652C28.4287 65.122 28.1186 64.912 27.8587 64.6476L44.1273 48.3789L49.639 52.7606L55.2221 48.4496L71.4201 64.6476Z" fill="white"/>
<path fill-rule="evenodd" clip-rule="evenodd" d="M72.2546 37.2125V62.6544C72.2551 63.0254 72.1816 63.3927 72.0384 63.7349C71.8952 64.0771 71.6852 64.3874 71.4207 64.6474L55.2227 48.4494L71.7882 35.6719C72.0927 36.128 72.255 36.6641 72.2546 37.2125Z" fill="#E8E8E8"/>
<path fill-rule="evenodd" clip-rule="evenodd" d="M71.7879 35.6691L55.2224 48.4466L49.6393 52.7576L44.1276 48.3759L27.731 35.3581C27.9921 35.0511 28.3171 34.8047 28.6833 34.6363C29.0495 34.4678 29.4481 34.3813 29.8511 34.3828H69.4274C69.8972 34.3822 70.3595 34.4997 70.7719 34.7245C71.1844 34.9492 71.5337 35.274 71.7879 35.6691V35.6691Z" fill="white"/>
<path fill-rule="evenodd" clip-rule="evenodd" d="M55.2222 48.4493L50.2592 52.2814C50.0823 52.4181 49.8646 52.4915 49.641 52.4899C49.4174 52.4883 49.2008 52.4118 49.0258 52.2727L44.1274 48.3786L32.2453 38.9453L48.3274 53.0253C48.6909 53.3436 49.1574 53.5195 49.6405 53.5205C50.1237 53.5216 50.5909 53.3477 50.9557 53.031L64.3254 41.428L55.2222 48.4493Z" fill="#B3B3B3"/>
<path opacity="0.2" fill-rule="evenodd" clip-rule="evenodd" d="M27.0243 65.4812H44.4204C44.6229 64.3018 44.7236 63.1073 44.7212 61.9106V55.936C44.7242 55.2177 44.4434 54.5272 43.9399 54.0149C43.4364 53.5025 42.751 53.2097 42.0327 53.2002C38.3247 53.1187 35.6674 52.356 34.1333 50.9331C33.6216 50.4541 32.947 50.1876 32.2462 50.1875C31.5453 50.1874 30.8706 50.4538 30.3589 50.9326C29.3996 51.7552 28.2555 52.3334 27.0243 52.6179V65.4812Z" fill="#767676"/>
<path opacity="0.2" d="M72.2546 34.3828H57.243L52.9282 41.7481C52.4939 42.4893 52.263 43.3321 52.2589 44.1911C52.2548 45.0502 52.4777 45.8951 52.9049 46.6404C53.3321 47.3857 53.9485 48.005 54.6919 48.4356C55.4352 48.8663 56.2791 49.093 57.1382 49.0928H72.2546V34.3828Z" fill="#767676"/>
<path d="M54.654 42.7599L64.6651 25.6698C64.919 25.2364 65.2818 24.877 65.7176 24.6273C66.1534 24.3775 66.6469 24.2461 67.1491 24.2461C67.6514 24.2461 68.1449 24.3775 68.5807 24.6273C69.0164 24.877 69.3793 25.2364 69.6331 25.6698L79.6443 42.7599C79.9005 43.1973 80.0367 43.6945 80.0391 44.2014C80.0415 44.7083 79.91 45.2068 79.6579 45.6465C79.4059 46.0863 79.0422 46.4517 78.6036 46.7059C78.1651 46.96 77.6672 47.0938 77.1603 47.0938H57.138C56.6311 47.0938 56.1332 46.96 55.6947 46.7059C55.2561 46.4517 54.8924 46.0863 54.6403 45.6465C54.3883 45.2068 54.2568 44.7083 54.2592 44.2014C54.2616 43.6945 54.3978 43.1973 54.654 42.7599Z" fill="#FF9300"/>
<path d="M57.1378 45.6561C56.8844 45.656 56.6355 45.589 56.4163 45.4619C56.1971 45.3348 56.0154 45.1521 55.8894 44.9323C55.7634 44.7125 55.6976 44.4633 55.6988 44.2099C55.6999 43.9565 55.7679 43.7079 55.8959 43.4893L65.907 26.3991C66.034 26.1825 66.2155 26.0028 66.4335 25.878C66.6514 25.7531 66.8982 25.6875 67.1494 25.6875C67.4005 25.6875 67.6473 25.7533 67.8652 25.8782C68.0831 26.0031 68.2646 26.1828 68.3915 26.3995L78.402 43.4893C78.5302 43.7079 78.5983 43.9565 78.5995 44.21C78.6008 44.4634 78.535 44.7127 78.409 44.9326C78.283 45.1525 78.1011 45.3352 77.8818 45.4622C77.6625 45.5893 77.4135 45.6561 77.1601 45.6561H57.1378Z" fill="#FFCA00"/>
<path d="M67.149 31.6953V38.5897" stroke="#FF9300" stroke-width="1.43941" stroke-miterlimit="10" stroke-linecap="round"/>
<path d="M67.149 42.9516C67.6761 42.9516 68.1034 42.5244 68.1034 41.9973C68.1034 41.4702 67.6761 41.043 67.149 41.043C66.622 41.043 66.1947 41.4702 66.1947 41.9973C66.1947 42.5244 66.622 42.9516 67.149 42.9516Z" fill="#FF9300"/>
<path fill-rule="evenodd" clip-rule="evenodd" d="M31.7178 52.3996C29.5955 54.3679 26.2774 55.1168 22.5022 55.2C22.3079 55.2024 22.1224 55.2808 21.9854 55.4185C21.8484 55.5562 21.7709 55.7421 21.7695 55.9363V61.9111C21.7695 68.7129 24.734 73.1285 31.8886 76.8168C31.9993 76.8723 32.1214 76.9012 32.2453 76.9012C32.3691 76.9012 32.4913 76.8723 32.602 76.8168C39.7566 73.1285 42.7211 68.7129 42.7211 61.9111V55.9363C42.7197 55.7421 42.6422 55.5562 42.5052 55.4185C42.3682 55.2808 42.1826 55.2024 41.9884 55.2C38.2132 55.1168 34.8951 54.368 32.7728 52.3996C32.6309 52.2635 32.4419 52.1875 32.2453 52.1875C32.0487 52.1875 31.8597 52.2635 31.7178 52.3996V52.3996Z" fill="white"/>
<path d="M30.7043 67.2076C32.7076 67.2076 34.3315 65.5836 34.3315 63.5803C34.3315 61.5771 32.7076 59.9531 30.7043 59.9531C28.701 59.9531 27.0771 61.5771 27.0771 63.5803C27.0771 65.5836 28.701 67.2076 30.7043 67.2076Z" stroke="#0078D4" stroke-width="1.5" stroke-miterlimit="10"/>
<path d="M36.5732 68.2265L33.5917 65.7734" stroke="#0078D4" stroke-width="1.5" stroke-miterlimit="10" stroke-linecap="round"/>
</g>
<defs>
<linearGradient id="paint0_linear" x1="47.8698" y1="-15.155" x2="51.8525" y2="130.613" gradientUnits="userSpaceOnUse">
<stop stop-color="#00ABDE"/>
<stop offset="1" stop-color="#007ED8"/>
</linearGradient>
<clipPath id="clip0">
<rect width="99.2799" height="99.28" fill="white"/>
</clipPath>
</defs>
</svg>
