<svg width="100" height="100" viewBox="0 0 100 100" fill="none" xmlns="http://www.w3.org/2000/svg">
<g clip-path="url(#clip0)">
<path d="M49.6401 96.4481C40.382 96.4481 31.3317 93.7028 23.6339 88.5592C15.936 83.4157 9.93624 76.105 6.3933 67.5516C2.85036 58.9981 1.92337 49.5862 3.72954 40.506C5.53571 31.4257 9.99394 23.085 16.5404 16.5385C23.0869 9.99198 31.4277 5.53376 40.5079 3.72759C49.5882 1.92141 59.0001 2.84841 67.5535 6.39135C76.1069 9.93428 83.4176 15.934 88.5612 23.6319C93.7047 31.3298 96.4501 40.38 96.4501 49.6381C96.4505 55.7854 95.24 61.8726 92.8878 67.5521C90.5355 73.2315 87.0875 78.392 82.7407 82.7388C78.3939 87.0856 73.2335 90.5335 67.554 92.8858C61.8746 95.2381 55.7874 96.4486 49.6401 96.4481V96.4481Z" fill="url(#paint0_linear)"/>
<path fill-rule="evenodd" clip-rule="evenodd" d="M95.54 49.64C95.54 58.7182 92.848 67.5925 87.8045 75.1407C82.7609 82.6889 75.5923 88.572 67.2052 92.0461C58.818 95.5201 49.5891 96.4291 40.6854 94.658C31.7816 92.887 23.603 88.5154 17.1838 82.0962C10.7646 75.677 6.39302 67.4984 4.62196 58.5946C2.85089 49.6909 3.75987 40.462 7.23393 32.0748C10.708 23.6877 16.5911 16.5191 24.1393 11.4755C31.6875 6.43199 40.5618 3.74 49.64 3.74C55.6677 3.73998 61.6363 4.9272 67.2052 7.23388C72.774 9.54057 77.834 12.9215 82.0963 17.1837C86.3585 21.446 89.7394 26.5059 92.0461 32.0748C94.3528 37.6437 95.54 43.6123 95.54 49.64V49.64ZM49.64 3.62732e-07C59.4579 3.62732e-07 69.0553 2.91134 77.2185 8.36585C85.3818 13.8204 91.7442 21.5731 95.5014 30.6436C99.2585 39.7141 100.242 49.6951 98.3262 59.3243C96.4108 68.9535 91.6831 77.7985 84.7408 84.7408C77.7985 91.6831 68.9535 96.4108 59.3243 98.3262C49.6951 100.242 39.7141 99.2585 30.6436 95.5014C21.5731 91.7442 13.8204 85.3818 8.36585 77.2185C2.91134 69.0553 3.62732e-07 59.4579 3.62732e-07 49.64C-0.000787738 43.121 1.28265 36.6656 3.77702 30.6427C6.27138 24.6197 9.9278 19.1471 14.5375 14.5375C19.1471 9.9278 24.6197 6.27138 30.6427 3.77702C36.6656 1.28265 43.121 -0.000787738 49.64 3.62732e-07V3.62732e-07Z" fill="#F2F1F0"/>
<path fill-rule="evenodd" clip-rule="evenodd" d="M92.7296 49.6386C92.7296 58.161 90.2024 66.492 85.4676 73.5781C80.7328 80.6643 74.0031 86.1872 66.1294 89.4486C58.2557 92.71 49.5918 93.5633 41.2331 91.9007C32.8745 90.238 25.1966 86.1341 19.1703 80.1079C13.1441 74.0816 9.04017 66.4037 7.37753 58.0451C5.7149 49.6864 6.56822 41.0225 9.8296 33.1488C13.091 25.2751 18.6139 18.5454 25.7 13.8106C32.7862 9.07581 41.1172 6.54862 49.6396 6.54862C55.2983 6.54828 60.9017 7.6626 66.1298 9.82795C71.3579 11.9933 76.1082 15.1673 80.1096 19.1686C84.1109 23.17 87.2849 27.9203 89.4502 33.1484C91.6156 38.3765 92.7299 43.9799 92.7296 49.6386V49.6386ZM49.6396 2.80862C58.9017 2.80862 67.9558 5.55515 75.6569 10.7009C83.3581 15.8466 89.3604 23.1605 92.9049 31.7176C96.4493 40.2746 97.3767 49.6906 95.5697 58.7747C93.7628 67.8588 89.3027 76.2031 82.7534 82.7524C76.2041 89.3017 67.8598 93.7619 58.7757 95.5688C49.6915 97.3757 40.2756 96.4484 31.7185 92.9039C23.1614 89.3594 15.8476 83.3571 10.7018 75.656C5.5561 67.9548 2.80957 58.9007 2.80957 49.6386C2.81076 37.2189 7.745 25.3082 16.5271 16.5261C25.3091 7.74403 37.2198 2.80979 49.6396 2.80859V2.80862Z" fill="#0078D4"/>
<path fill-rule="evenodd" clip-rule="evenodd" d="M92.7296 49.6386C92.7296 58.161 90.2024 66.492 85.4676 73.5781C80.7328 80.6642 74.0031 86.1872 66.1294 89.4486C58.2557 92.7099 49.5918 93.5633 41.2331 91.9006C32.8745 90.238 25.1966 86.1341 19.1703 80.1078C13.1441 74.0816 9.04017 66.4037 7.37753 58.045C5.7149 49.6864 6.56822 41.0224 9.8296 33.1488C13.091 25.2751 18.6139 18.5454 25.7001 13.8106C32.7862 9.07578 41.1172 6.54859 49.6396 6.54859C55.2983 6.54825 60.9017 7.66257 66.1298 9.82792C71.3579 11.9933 76.1082 15.1673 80.1096 19.1686C84.1109 23.1699 87.2849 27.9203 89.4502 33.1484C91.6156 38.3764 92.7299 43.9798 92.7296 49.6386V49.6386ZM49.6396 2.80859C58.9017 2.80859 67.9558 5.55513 75.6569 10.7009C83.3581 15.8466 89.3604 23.1605 92.9048 31.7175C96.4493 40.2746 97.3767 49.6905 95.5697 58.7747C93.7628 67.8588 89.3027 76.2031 82.7534 82.7524C76.2041 89.3017 67.8598 93.7618 58.7757 95.5688C49.6915 97.3757 40.2756 96.4483 31.7185 92.9039C23.1614 89.3594 15.8476 83.3571 10.7018 75.656C5.5561 67.9548 2.80957 58.9007 2.80957 49.6386C2.81076 37.2189 7.74501 25.3082 16.5271 16.5261C25.3091 7.74403 37.2198 2.80979 49.6396 2.80859V2.80859Z" fill="#0078D4"/>
<path d="M72.3525 30.168H26.9265C26.0306 30.168 25.3042 30.8943 25.3042 31.7903V60.9927C25.3042 61.8887 26.0306 62.615 26.9265 62.615H72.3525C73.2485 62.615 73.9748 61.8887 73.9748 60.9927V31.7903C73.9748 30.8943 73.2485 30.168 72.3525 30.168Z" fill="url(#paint1_linear)"/>
<path d="M59.4005 72.4285C54.5875 71.6714 54.3983 68.2104 54.3983 62.6133H44.8534C44.8534 68.2104 44.6912 71.6714 39.8782 72.4285C39.2138 72.502 38.6002 72.8191 38.1558 73.3184C37.7114 73.8177 37.4677 74.464 37.4717 75.1324H61.807C61.8111 74.464 61.5674 73.8177 61.123 73.3184C60.6786 72.8191 60.0649 72.502 59.4005 72.4285V72.4285Z" fill="url(#paint2_linear)"/>
<path opacity="0.2" d="M41.705 37.1719H57.6049C58.3053 37.1719 58.977 37.4501 59.4723 37.9454C59.9676 38.4407 60.2459 39.1124 60.2459 39.8129V55.7128C60.2459 56.0596 60.1776 56.403 60.0448 56.7235C59.9121 57.0439 59.7176 57.3351 59.4723 57.5803C59.2271 57.8256 58.9359 58.0201 58.6155 58.1528C58.295 58.2856 57.9516 58.3539 57.6048 58.3539H41.7051C41.0046 58.3539 40.3328 58.0756 39.8375 57.5803C39.3422 57.085 39.064 56.4132 39.064 55.7128V39.813C39.064 39.4661 39.1323 39.1227 39.265 38.8023C39.3977 38.4818 39.5923 38.1907 39.8375 37.9454C40.0827 37.7002 40.3739 37.5056 40.6943 37.3729C41.0148 37.2402 41.3582 37.1719 41.705 37.1719V37.1719Z" fill="#003067"/>
<path d="M57.6048 36.1719H41.705C40.2464 36.1719 39.064 37.3543 39.064 38.8129V54.7128C39.064 56.1714 40.2464 57.3538 41.705 57.3538H57.6048C59.0635 57.3538 60.2459 56.1714 60.2459 54.7128V38.8129C60.2459 37.3543 59.0635 36.1719 57.6048 36.1719Z" fill="white"/>
<path d="M42.6172 47.6459L49.5802 52.1709L56.6762 47.6289L57.5652 48.6679L49.5802 53.8089L41.7192 48.6679L42.6172 47.6459Z" fill="#50E6FF"/>
<path d="M43.1362 47.0627L49.5802 39.3867L56.1562 47.0717L49.5802 51.2267L43.1362 47.0627Z" fill="white"/>
<path d="M49.5802 39.3867V51.2267L43.1362 47.0627L49.5802 39.3867Z" fill="#50E6FF"/>
<path d="M49.5801 39.3867V51.2267L56.1561 47.0717L49.5801 39.3867Z" fill="url(#paint3_linear)"/>
<path d="M49.5801 45.5039L56.1561 47.0709L49.5801 51.2259V45.5039Z" fill="#53B1E0"/>
<path d="M49.5802 51.2259L43.1362 47.0619L49.5802 45.5039V51.2259Z" fill="#9CEBFF"/>
<path d="M49.5801 53.8089L57.5651 48.6679L56.6761 47.6289L49.5801 52.1709V53.8089Z" fill="url(#paint4_linear)"/>
<path d="M53.6476 54.1426C57.5036 51.3783 57.5916 49.8025 57.5916 49.3095C57.5916 48.6052 57.5212 46.7741 55.6813 46.6685C55.2394 46.6324 54.798 46.7443 54.4267 46.9865C54.0553 47.2288 53.7751 47.5876 53.6301 48.0066C53.4938 47.5849 53.2205 47.2207 52.8537 46.9719C52.4869 46.7231 52.0475 46.6039 51.6052 46.6333C49.7653 46.7653 49.6685 48.6053 49.6685 49.3095C49.6685 49.8025 49.7829 51.3784 53.6036 54.1162" fill="#F04049"/>
<path d="M57.5916 49.0272H55.8309C55.8061 49.0278 55.7819 49.0346 55.7604 49.0469C55.7389 49.0592 55.7207 49.0766 55.7076 49.0976L55.153 50.0396C55.1469 50.0506 55.138 50.0598 55.1272 50.0662C55.1163 50.0726 55.104 50.076 55.0914 50.076C55.0788 50.076 55.0665 50.0726 55.0556 50.0662C55.0448 50.0598 55.0358 50.0506 55.0298 50.0396L54.1934 48.5254C54.1834 48.4985 54.1654 48.4752 54.1418 48.4588C54.1182 48.4424 54.0901 48.4336 54.0614 48.4336C54.0326 48.4336 54.0046 48.4424 53.9809 48.4588C53.9573 48.4752 53.9393 48.4985 53.9293 48.5254L53.1898 50.8143C53.1848 50.8278 53.1758 50.8394 53.164 50.8476C53.1522 50.8558 53.1382 50.8602 53.1238 50.8602C53.1095 50.8602 53.0954 50.8558 53.0836 50.8476C53.0719 50.8394 53.0628 50.8278 53.0578 50.8143L52.3887 49.2737C52.3774 49.2494 52.3594 49.2288 52.3367 49.2144C52.3141 49.2 52.2879 49.1924 52.2611 49.1924C52.2343 49.1924 52.208 49.2 52.1854 49.2144C52.1628 49.2288 52.1447 49.2494 52.1334 49.2737L51.2531 50.8759C51.2411 50.9005 51.2223 50.9211 51.1988 50.9352C51.1754 50.9492 51.1483 50.9562 51.121 50.9551H50.2759C50.4058 51.1537 50.5469 51.3448 50.6984 51.5274H51.4291C51.4547 51.5258 51.4795 51.5177 51.5011 51.5039C51.5227 51.49 51.5403 51.4708 51.5524 51.4481L52.1774 50.2861L53.0578 52.2141C53.0678 52.241 53.0858 52.2643 53.1094 52.2807C53.133 52.2971 53.1611 52.3059 53.1898 52.3059C53.2186 52.3059 53.2466 52.2971 53.2703 52.2807C53.2939 52.2643 53.3119 52.241 53.3219 52.2141L54.2022 49.6347L54.9505 51.096C54.9627 51.1181 54.9806 51.1364 55.0022 51.1492C55.0239 51.162 55.0486 51.1687 55.0738 51.1687C55.0989 51.1687 55.1236 51.162 55.1453 51.1492C55.167 51.1364 55.1848 51.1181 55.197 51.096L56.0774 49.6699C56.0905 49.6488 56.1086 49.6314 56.1301 49.6191C56.1516 49.6068 56.1759 49.6001 56.2006 49.5994H57.5916" fill="white"/>
<path opacity="0.2" d="M41.2227 30.1602C42.0288 31.6946 43.239 32.9794 44.7225 33.8758C46.206 34.7722 47.9064 35.246 49.6397 35.246C51.3729 35.246 53.0733 34.7722 54.5568 33.8758C56.0403 32.9794 57.2505 31.6946 58.0567 30.1602H41.2227Z" fill="#003067"/>
<path d="M49.6393 33.2453C53.792 33.2453 57.1584 29.8789 57.1584 25.7262C57.1584 21.5735 53.792 18.207 49.6393 18.207C45.4865 18.207 42.1201 21.5735 42.1201 25.7262C42.1201 29.8789 45.4865 33.2453 49.6393 33.2453Z" fill="#0078D4"/>
<path fill-rule="evenodd" clip-rule="evenodd" d="M52.3963 30.1598H46.8838C46.7506 30.1592 46.6231 30.1059 46.5291 30.0115C46.4351 29.9171 46.3823 29.7893 46.3823 29.6561C46.3823 29.5229 46.4351 29.3951 46.5291 29.3007C46.6231 29.2063 46.7506 29.1529 46.8838 29.1523H52.3963C52.5295 29.1529 52.6571 29.2063 52.7511 29.3007C52.845 29.3951 52.8978 29.5229 52.8978 29.6561C52.8978 29.7893 52.845 29.9171 52.7511 30.0115C52.6571 30.1059 52.5295 30.1592 52.3963 30.1598Z" fill="white"/>
<path d="M49.64 27.7067C49.5146 27.7066 49.3943 27.6568 49.3056 27.5681C49.2169 27.4794 49.167 27.3591 49.167 27.2337V21.766C49.167 21.6405 49.2168 21.5202 49.3055 21.4315C49.3942 21.3428 49.5145 21.293 49.64 21.293C49.7654 21.293 49.8857 21.3428 49.9745 21.4315C50.0632 21.5202 50.113 21.6405 50.113 21.766V27.2336C50.113 27.3591 50.0631 27.4794 49.9744 27.5681C49.8857 27.6568 49.7654 27.7066 49.64 27.7067V27.7067Z" fill="white"/>
<path d="M49.64 27.7071C49.5464 27.7071 49.455 27.6794 49.3772 27.6274C49.2994 27.5754 49.2388 27.5016 49.203 27.4151C49.1672 27.3287 49.1578 27.2336 49.1761 27.1419C49.1943 27.0501 49.2394 26.9658 49.3055 26.8997L51.2936 24.9119C51.3827 24.825 51.5024 24.7766 51.6269 24.7774C51.7514 24.7781 51.8705 24.8279 51.9585 24.9159C52.0466 25.0039 52.0963 25.123 52.0971 25.2475C52.0978 25.372 52.0495 25.4917 51.9625 25.5808L49.9744 27.5686C49.9305 27.6126 49.8784 27.6475 49.821 27.6713C49.7636 27.6951 49.7021 27.7072 49.64 27.7071Z" fill="white"/>
<path d="M49.64 27.707C49.5779 27.7071 49.5164 27.6949 49.459 27.6711C49.4016 27.6473 49.3494 27.6124 49.3056 27.5684L47.3175 25.5806C47.2306 25.4915 47.1823 25.3718 47.1831 25.2474C47.1839 25.123 47.2337 25.0039 47.3216 24.9159C47.4096 24.8279 47.5287 24.7781 47.6531 24.7774C47.7775 24.7766 47.8973 24.8248 47.9863 24.9117L49.9745 26.8995C50.0406 26.9657 50.0857 27.05 50.1039 27.1417C50.1222 27.2335 50.1128 27.3286 50.077 27.415C50.0412 27.5014 49.9806 27.5753 49.9028 27.6273C49.825 27.6792 49.7336 27.707 49.64 27.707V27.707Z" fill="white"/>
</g>
<defs>
<linearGradient id="paint0_linear" x1="47.8698" y1="-15.155" x2="51.8525" y2="130.613" gradientUnits="userSpaceOnUse">
<stop stop-color="#00ABDE"/>
<stop offset="1" stop-color="#007ED8"/>
</linearGradient>
<linearGradient id="paint1_linear" x1="49.6395" y1="62.615" x2="49.6395" y2="30.168" gradientUnits="userSpaceOnUse">
<stop stop-color="#0078D4"/>
<stop offset="0.82" stop-color="#5EA0EF"/>
</linearGradient>
<linearGradient id="paint2_linear" x1="49.6394" y1="75.1324" x2="49.6394" y2="62.6133" gradientUnits="userSpaceOnUse">
<stop offset="0.15" stop-color="#CCCCCC"/>
<stop offset="1" stop-color="#707070"/>
</linearGradient>
<linearGradient id="paint3_linear" x1="53.3897" y1="50.1368" x2="49.3137" y2="42.4162" gradientUnits="userSpaceOnUse">
<stop stop-color="#1988D9"/>
<stop offset="0.9" stop-color="#54AEF0"/>
</linearGradient>
<linearGradient id="paint4_linear" x1="51.6284" y1="47.8946" x2="54.4543" y2="52.7541" gradientUnits="userSpaceOnUse">
<stop offset="0.1" stop-color="#54AEF0"/>
<stop offset="0.29" stop-color="#4FABEE"/>
<stop offset="0.51" stop-color="#41A2E9"/>
<stop offset="0.74" stop-color="#2A93E0"/>
<stop offset="0.88" stop-color="#1988D9"/>
</linearGradient>
<clipPath id="clip0">
<rect width="99.2799" height="99.28" fill="white"/>
</clipPath>
</defs>
</svg>
