<svg width="100" height="100" viewBox="0 0 100 100" fill="none" xmlns="http://www.w3.org/2000/svg">
<g clip-path="url(#clip0)">
<path d="M49.6401 96.4481C40.382 96.4481 31.3317 93.7028 23.6339 88.5592C15.936 83.4157 9.93624 76.105 6.3933 67.5516C2.85036 58.9981 1.92337 49.5862 3.72954 40.506C5.53571 31.4257 9.99394 23.085 16.5404 16.5385C23.0869 9.99198 31.4277 5.53376 40.5079 3.72759C49.5882 1.92141 59.0001 2.84841 67.5535 6.39135C76.1069 9.93428 83.4176 15.934 88.5612 23.6319C93.7047 31.3298 96.4501 40.38 96.4501 49.6381C96.4505 55.7854 95.24 61.8726 92.8878 67.5521C90.5355 73.2315 87.0875 78.392 82.7407 82.7388C78.3939 87.0856 73.2335 90.5335 67.554 92.8858C61.8746 95.2381 55.7874 96.4486 49.6401 96.4481V96.4481Z" fill="url(#paint0_linear)"/>
<path fill-rule="evenodd" clip-rule="evenodd" d="M95.54 49.64C95.54 58.7182 92.848 67.5925 87.8045 75.1407C82.7609 82.6889 75.5923 88.572 67.2052 92.0461C58.818 95.5201 49.5891 96.4291 40.6854 94.658C31.7816 92.887 23.603 88.5154 17.1838 82.0962C10.7646 75.677 6.39302 67.4984 4.62196 58.5946C2.85089 49.6909 3.75987 40.462 7.23393 32.0748C10.708 23.6877 16.5911 16.5191 24.1393 11.4755C31.6875 6.43199 40.5618 3.74 49.64 3.74C55.6677 3.73998 61.6363 4.9272 67.2052 7.23388C72.774 9.54057 77.834 12.9215 82.0963 17.1837C86.3585 21.446 89.7394 26.5059 92.0461 32.0748C94.3528 37.6437 95.54 43.6123 95.54 49.64V49.64ZM49.64 3.62732e-07C59.4579 3.62732e-07 69.0553 2.91134 77.2185 8.36585C85.3818 13.8204 91.7442 21.5731 95.5014 30.6436C99.2585 39.7141 100.242 49.6951 98.3262 59.3243C96.4108 68.9535 91.6831 77.7985 84.7408 84.7408C77.7985 91.6831 68.9535 96.4108 59.3243 98.3262C49.6951 100.242 39.7141 99.2585 30.6436 95.5014C21.5731 91.7442 13.8204 85.3818 8.36585 77.2185C2.91134 69.0553 3.62732e-07 59.4579 3.62732e-07 49.64C-0.000787738 43.121 1.28265 36.6656 3.77702 30.6427C6.27138 24.6197 9.9278 19.1471 14.5375 14.5375C19.1471 9.9278 24.6197 6.27138 30.6427 3.77702C36.6656 1.28265 43.121 -0.000787738 49.64 3.62732e-07V3.62732e-07Z" fill="#F2F1F0"/>
<path fill-rule="evenodd" clip-rule="evenodd" d="M92.7296 49.6386C92.7296 58.161 90.2024 66.492 85.4676 73.5781C80.7328 80.6643 74.0031 86.1872 66.1294 89.4486C58.2558 92.71 49.5918 93.5633 41.2332 91.9007C32.8745 90.238 25.1966 86.1341 19.1704 80.1079C13.1441 74.0816 9.0402 66.4037 7.37756 58.0451C5.71493 49.6864 6.56825 41.0225 9.82963 33.1488C13.091 25.2751 18.614 18.5454 25.7001 13.8106C32.7862 9.07581 41.1172 6.54862 49.6396 6.54862C55.2984 6.54828 60.9018 7.6626 66.1298 9.82795C71.3579 11.9933 76.1083 15.1673 80.1096 19.1686C84.1109 23.17 87.2849 27.9203 89.4503 33.1484C91.6156 38.3765 92.7299 43.9799 92.7296 49.6386V49.6386ZM49.6396 2.80862C58.9017 2.80862 67.9558 5.55515 75.657 10.7009C83.3581 15.8466 89.3604 23.1605 92.9049 31.7176C96.4493 40.2746 97.3767 49.6906 95.5698 58.7747C93.7628 67.8588 89.3027 76.2031 82.7534 82.7524C76.2041 89.3017 67.8598 93.7619 58.7757 95.5688C49.6916 97.3757 40.2756 96.4484 31.7185 92.9039C23.1615 89.3594 15.8476 83.3571 10.7019 75.656C5.55613 67.9548 2.8096 58.9007 2.8096 49.6386C2.81079 37.2189 7.74503 25.3082 16.5271 16.5261C25.3092 7.74403 37.2199 2.80979 49.6396 2.80859V2.80862Z" fill="#0078D4"/>
<path fill-rule="evenodd" clip-rule="evenodd" d="M63.824 62.8789L35.4725 62.8794C34.9334 62.8815 34.4172 63.0975 34.0374 63.4801C33.6576 63.8627 33.4454 64.3804 33.4473 64.9195V70.0197C33.4454 70.5587 33.6576 71.0765 34.0374 71.4591C34.4172 71.8417 34.9333 72.0577 35.4724 72.0598H63.824C64.3631 72.0576 64.8793 71.8415 65.2591 71.4588C65.6389 71.0761 65.8511 70.5583 65.8491 70.0192V64.919C65.8511 64.3799 65.6388 63.8621 65.259 63.4796C64.8793 63.097 64.3631 62.8809 63.824 62.8789V62.8789Z" fill="#0078D4"/>
<path fill-rule="evenodd" clip-rule="evenodd" d="M40.832 68.1667C40.6421 67.9747 40.5356 67.7155 40.5356 67.4455C40.5356 67.1755 40.6421 66.9163 40.832 66.7243C40.9257 66.6297 41.0372 66.5546 41.1601 66.5034C41.2829 66.4522 41.4148 66.4258 41.5479 66.4258C41.681 66.4258 41.8128 66.4522 41.9357 66.5034C42.0586 66.5546 42.1701 66.6297 42.2638 66.7243C42.4538 66.9163 42.5603 67.1754 42.5603 67.4455C42.5603 67.7156 42.4538 67.9747 42.2638 68.1667C42.1701 68.2613 42.0586 68.3364 41.9358 68.3877C41.8129 68.439 41.681 68.4654 41.5479 68.4654C41.4147 68.4654 41.2829 68.439 41.16 68.3877C41.0371 68.3364 40.9257 68.2613 40.832 68.1667Z" fill="#9CEBFF"/>
<path fill-rule="evenodd" clip-rule="evenodd" d="M37.7979 68.1745C37.6081 67.9824 37.5017 67.7233 37.5017 67.4533C37.5017 67.1833 37.6081 66.9242 37.7979 66.7321C37.8916 66.6375 38.0032 66.5625 38.1261 66.5112C38.249 66.46 38.3808 66.4336 38.514 66.4336C38.6472 66.4336 38.779 66.46 38.9019 66.5112C39.0249 66.5625 39.1364 66.6375 39.2301 66.7321C39.4199 66.9242 39.5263 67.1833 39.5263 67.4533C39.5263 67.7233 39.4199 67.9824 39.2301 68.1745C39.1364 68.2691 39.0249 68.3443 38.902 68.3955C38.7791 68.4468 38.6472 68.4732 38.514 68.4732C38.3808 68.4732 38.249 68.4468 38.126 68.3955C38.0031 68.3443 37.8916 68.2691 37.7979 68.1745V68.1745Z" fill="#9CEBFF"/>
<path fill-rule="evenodd" clip-rule="evenodd" d="M49.648 64.9223V70.0225C49.6486 70.156 49.6228 70.2883 49.5722 70.4118C49.5216 70.5353 49.4472 70.6476 49.3531 70.7423C49.2591 70.8371 49.1473 70.9124 49.0242 70.9639C48.901 71.0154 48.7689 71.0421 48.6355 71.0426H33.7281C33.9032 71.3512 34.1567 71.6081 34.463 71.7872C34.7693 71.9663 35.1175 72.0613 35.4723 72.0626H63.8238C64.3629 72.0604 64.8791 71.8443 65.2589 71.4616C65.6387 71.079 65.8509 70.5612 65.8489 70.022V64.9218C65.8471 64.5632 65.7503 64.2114 65.5685 63.9023H50.6606C50.5271 63.9028 50.395 63.9295 50.2719 63.9811C50.1488 64.0326 50.037 64.1078 49.943 64.2026C49.849 64.2973 49.7745 64.4096 49.7239 64.5331C49.6733 64.6566 49.6475 64.7889 49.648 64.9223V64.9223Z" fill="#1F56A3"/>
<path fill-rule="evenodd" clip-rule="evenodd" d="M61.7991 66.4492H55.7238C55.4545 66.4511 55.1969 66.5594 55.0071 66.7505C54.8173 66.9416 54.7108 67.2 54.7108 67.4693C54.7108 67.7386 54.8173 67.9969 55.0071 68.188C55.1969 68.3791 55.4545 68.4874 55.7238 68.4893H61.7991C62.0684 68.4874 62.326 68.3791 62.5158 68.188C62.7055 67.9969 62.812 67.7386 62.812 67.4693C62.812 67.2 62.7055 66.9416 62.5158 66.7505C62.326 66.5594 62.0684 66.4511 61.7991 66.4492V66.4492Z" fill="#50E6FF"/>
<path fill-rule="evenodd" clip-rule="evenodd" d="M55.7238 66.9592H61.7991C62.0237 66.9603 62.2416 67.036 62.4184 67.1745C62.5952 67.313 62.7209 67.5064 62.7757 67.7242C62.8169 67.5742 62.8229 67.4168 62.7931 67.2641C62.7633 67.1114 62.6986 66.9677 62.604 66.8442C62.5094 66.7207 62.3875 66.6208 62.2479 66.5523C62.1082 66.4838 61.9546 66.4485 61.7991 66.4492H55.7238C55.5682 66.4485 55.4146 66.4839 55.275 66.5524C55.1354 66.6209 55.0136 66.7208 54.919 66.8443C54.8244 66.9678 54.7597 67.1115 54.7299 67.2641C54.7001 67.4168 54.706 67.5742 54.7471 67.7242C54.8019 67.5064 54.9276 67.313 55.1045 67.1745C55.2813 67.036 55.4992 66.9603 55.7238 66.9592V66.9592Z" fill="#53B1E0"/>
<path fill-rule="evenodd" clip-rule="evenodd" d="M41.8873 67.7871C41.7309 67.9444 41.5268 68.0456 41.3069 68.0747C41.087 68.1039 40.8636 68.0594 40.6717 67.9482C40.7463 68.0857 40.8523 68.2036 40.981 68.2925C41.1097 68.3814 41.2575 68.4388 41.4124 68.46C41.5674 68.4812 41.7252 68.4656 41.873 68.4145C42.0209 68.3635 42.1546 68.2783 42.2635 68.166C42.4534 67.9741 42.56 67.7149 42.56 67.4448C42.56 67.1748 42.4534 66.9156 42.2635 66.7237C42.1989 66.6605 42.1262 66.6063 42.0472 66.5625C42.1576 66.7562 42.2016 66.9806 42.1727 67.2016C42.1439 67.4227 42.0436 67.6282 41.8873 67.7871Z" fill="#C3F1FF"/>
<path fill-rule="evenodd" clip-rule="evenodd" d="M38.8535 67.7949C38.6971 67.9523 38.4931 68.0534 38.2732 68.0826C38.0532 68.1118 37.8299 68.0672 37.6379 67.956C37.7126 68.0935 37.8186 68.2115 37.9473 68.3004C38.0761 68.3893 38.2239 68.4467 38.3789 68.4679C38.5339 68.4891 38.6918 68.4735 38.8396 68.4224C38.9875 68.3714 39.1213 68.2862 39.2302 68.1738C39.3426 68.0639 39.4278 67.9293 39.4789 67.7806C39.5301 67.632 39.5457 67.4734 39.5247 67.3176C39.5036 67.1618 39.4464 67.0131 39.3577 66.8834C39.2689 66.7536 39.151 66.6464 39.0135 66.5703C39.124 66.7639 39.1682 66.9884 39.1394 67.2095C39.1105 67.4306 39.0101 67.6362 38.8535 67.7949V67.7949Z" fill="#C3F1FF"/>
<path fill-rule="evenodd" clip-rule="evenodd" d="M63.824 53.6992H35.4724C34.9333 53.7012 34.4172 53.9173 34.0374 54.2999C33.6576 54.6825 33.4454 55.2002 33.4473 55.7393V60.8394C33.4454 61.3785 33.6576 61.8963 34.0374 62.2789C34.4172 62.6615 34.9333 62.8775 35.4724 62.8795H63.824C64.3631 62.8774 64.8793 62.6612 65.2591 62.2786C65.6389 61.8959 65.8511 61.3781 65.8491 60.8389V55.7388C65.8501 55.4719 65.7985 55.2074 65.6972 54.9605C65.596 54.7135 65.4471 54.4889 65.259 54.2996C65.071 54.1102 64.8474 53.9597 64.6012 53.8567C64.355 53.7537 64.0909 53.7002 63.824 53.6992V53.6992Z" fill="#0078D4"/>
<path fill-rule="evenodd" clip-rule="evenodd" d="M40.832 58.987C40.6421 58.795 40.5356 58.5358 40.5356 58.2658C40.5356 57.9958 40.6421 57.7366 40.832 57.5446C40.9257 57.45 41.0372 57.375 41.1601 57.3237C41.2829 57.2725 41.4148 57.2461 41.5479 57.2461C41.681 57.2461 41.8128 57.2725 41.9357 57.3237C42.0586 57.375 42.1701 57.45 42.2638 57.5446C42.4538 57.7366 42.5603 57.9957 42.5603 58.2658C42.5603 58.5359 42.4538 58.795 42.2638 58.987C42.1701 59.0816 42.0586 59.1567 41.9358 59.208C41.8129 59.2593 41.681 59.2857 41.5479 59.2857C41.4147 59.2857 41.2829 59.2593 41.16 59.208C41.0371 59.1567 40.9257 59.0816 40.832 58.987Z" fill="#9CEBFF"/>
<path fill-rule="evenodd" clip-rule="evenodd" d="M37.7979 58.9948C37.6081 58.8027 37.5017 58.5436 37.5017 58.2736C37.5017 58.0037 37.6081 57.7445 37.7979 57.5525C37.8916 57.4579 38.0032 57.3828 38.1261 57.3315C38.249 57.2803 38.3808 57.2539 38.514 57.2539C38.6472 57.2539 38.779 57.2803 38.902 57.3315C39.0249 57.3828 39.1364 57.4579 39.2301 57.5525C39.4199 57.7445 39.5263 58.0037 39.5263 58.2736C39.5263 58.5436 39.4199 58.8027 39.2301 58.9948C39.1364 59.0895 39.0249 59.1646 38.902 59.2159C38.7791 59.2671 38.6472 59.2935 38.514 59.2935C38.3808 59.2935 38.249 59.2671 38.126 59.2159C38.0031 59.1646 37.8916 59.0895 37.7979 58.9948V58.9948Z" fill="#9CEBFF"/>
<path fill-rule="evenodd" clip-rule="evenodd" d="M49.648 55.7388V60.8389C49.6486 60.9724 49.6228 61.1047 49.5722 61.2282C49.5216 61.3517 49.4472 61.464 49.3531 61.5588C49.2591 61.6535 49.1473 61.7288 49.0242 61.7803C48.901 61.8318 48.7689 61.8585 48.6355 61.859H33.7281C33.9032 62.1676 34.1567 62.4245 34.463 62.6036C34.7693 62.7827 35.1175 62.8777 35.4723 62.879H63.8238C64.363 62.8769 64.8792 62.6607 65.2589 62.278C65.6387 61.8953 65.8509 61.3775 65.8489 60.8384V55.7382C65.8471 55.3796 65.7503 55.0279 65.5685 54.7188H50.6606C50.5271 54.7192 50.395 54.746 50.2719 54.7975C50.1488 54.849 50.037 54.9243 49.943 55.019C49.849 55.1137 49.7745 55.226 49.7239 55.3495C49.6733 55.473 49.6475 55.6053 49.648 55.7388V55.7388Z" fill="#1F56A3"/>
<path fill-rule="evenodd" clip-rule="evenodd" d="M61.7991 57.2695H55.7238C55.4545 57.2714 55.1969 57.3797 55.0071 57.5708C54.8173 57.7619 54.7108 58.0203 54.7108 58.2896C54.7108 58.5589 54.8173 58.8172 55.0071 59.0083C55.1969 59.1994 55.4545 59.3077 55.7238 59.3096H61.7991C62.0684 59.3077 62.326 59.1994 62.5158 59.0083C62.7055 58.8172 62.812 58.5589 62.812 58.2896C62.812 58.0203 62.7055 57.7619 62.5158 57.5708C62.326 57.3797 62.0684 57.2714 61.7991 57.2695V57.2695Z" fill="#50E6FF"/>
<path fill-rule="evenodd" clip-rule="evenodd" d="M55.7238 57.7796H61.7991C62.0237 57.7806 62.2416 57.8564 62.4184 57.9949C62.5952 58.1334 62.7209 58.3268 62.7757 58.5446C62.8169 58.3946 62.8229 58.2371 62.7931 58.0844C62.7633 57.9318 62.6986 57.7881 62.604 57.6646C62.5094 57.5411 62.3876 57.4412 62.2479 57.3726C62.1083 57.3041 61.9547 57.2688 61.7991 57.2695H55.7238C55.5682 57.2689 55.4147 57.3042 55.275 57.3727C55.1354 57.4413 55.0135 57.5412 54.919 57.6646C54.8244 57.7881 54.7597 57.9318 54.7299 58.0845C54.7001 58.2371 54.706 58.3946 54.7472 58.5446C54.802 58.3268 54.9277 58.1334 55.1045 57.9949C55.2813 57.8564 55.4992 57.7806 55.7238 57.7796V57.7796Z" fill="#53B1E0"/>
<path fill-rule="evenodd" clip-rule="evenodd" d="M41.8873 58.6074C41.7308 58.7646 41.5268 58.8657 41.3069 58.8948C41.087 58.924 40.8637 58.8796 40.6717 58.7685C40.7463 58.906 40.8523 59.0239 40.981 59.1128C41.1097 59.2017 41.2575 59.2591 41.4124 59.2803C41.5674 59.3015 41.7252 59.2859 41.873 59.2348C42.0209 59.1838 42.1546 59.0986 42.2635 58.9863C42.4534 58.7944 42.56 58.5352 42.56 58.2651C42.56 57.9951 42.4534 57.7359 42.2635 57.544C42.1991 57.4807 42.1263 57.4264 42.0472 57.3828C42.1576 57.5765 42.2016 57.8009 42.1727 58.0219C42.1439 58.243 42.0436 58.4485 41.8873 58.6074Z" fill="#C3F1FF"/>
<path fill-rule="evenodd" clip-rule="evenodd" d="M38.8535 58.6152C38.6971 58.7726 38.4931 58.8737 38.2732 58.9029C38.0532 58.9321 37.8299 58.8876 37.6379 58.7764C37.7126 58.9138 37.8186 59.0318 37.9473 59.1207C38.0761 59.2096 38.2239 59.267 38.3789 59.2882C38.5339 59.3094 38.6918 59.2938 38.8396 59.2427C38.9875 59.1917 39.1213 59.1065 39.2302 58.9941C39.3426 58.8842 39.4278 58.7496 39.4789 58.6009C39.5301 58.4523 39.5458 58.2937 39.5247 58.1379C39.5036 57.9821 39.4465 57.8334 39.3577 57.7037C39.2689 57.5739 39.151 57.4667 39.0135 57.3906C39.124 57.5843 39.1682 57.8087 39.1393 58.0298C39.1105 58.2509 39.0101 58.4565 38.8535 58.6152V58.6152Z" fill="#C3F1FF"/>
<path fill-rule="evenodd" clip-rule="evenodd" d="M63.824 44.5195H35.4724C34.9334 44.5215 34.4172 44.7376 34.0374 45.1202C33.6576 45.5028 33.4454 46.0205 33.4473 46.5596V51.6598C33.4454 52.1988 33.6576 52.7166 34.0374 53.0992C34.4172 53.4818 34.9334 53.6978 35.4724 53.6999H63.824C64.3631 53.6977 64.8793 53.4816 65.2591 53.0989C65.6389 52.7162 65.8511 52.1984 65.8491 51.6593V46.5591C65.8501 46.2922 65.7985 46.0277 65.6972 45.7808C65.5959 45.5338 65.447 45.3093 65.259 45.1199C65.0709 44.9305 64.8474 44.78 64.6012 44.677C64.355 44.574 64.0909 44.5205 63.824 44.5195V44.5195Z" fill="#0078D4"/>
<path fill-rule="evenodd" clip-rule="evenodd" d="M40.832 49.8034C40.6421 49.6114 40.5356 49.3522 40.5356 49.0822C40.5356 48.8122 40.6421 48.5531 40.832 48.361C40.9257 48.2665 41.0372 48.1914 41.1601 48.1401C41.2829 48.0889 41.4148 48.0625 41.5479 48.0625C41.681 48.0625 41.8128 48.0889 41.9357 48.1401C42.0586 48.1914 42.1701 48.2665 42.2638 48.361C42.4538 48.553 42.5603 48.8122 42.5603 49.0822C42.5603 49.3523 42.4538 49.6114 42.2638 49.8034C42.1701 49.898 42.0586 49.9732 41.9358 50.0244C41.8129 50.0757 41.681 50.1021 41.5479 50.1021C41.4147 50.1021 41.2829 50.0757 41.16 50.0244C41.0371 49.9732 40.9257 49.898 40.832 49.8034V49.8034Z" fill="#9CEBFF"/>
<path fill-rule="evenodd" clip-rule="evenodd" d="M37.7979 49.8151C37.6081 49.623 37.5017 49.3639 37.5017 49.0939C37.5017 48.8239 37.6081 48.5648 37.7979 48.3728C37.8916 48.2782 38.0032 48.2031 38.1261 48.1518C38.249 48.1006 38.3808 48.0742 38.514 48.0742C38.6472 48.0742 38.779 48.1006 38.9019 48.1518C39.0249 48.2031 39.1364 48.2782 39.2301 48.3728C39.4199 48.5648 39.5263 48.8239 39.5263 49.0939C39.5263 49.3639 39.4199 49.623 39.2301 49.8151C39.1364 49.9097 39.0249 49.9849 38.902 50.0362C38.7791 50.0874 38.6472 50.1138 38.514 50.1138C38.3808 50.1138 38.249 50.0874 38.126 50.0362C38.0031 49.9849 37.8916 49.9097 37.7979 49.8151V49.8151Z" fill="#9CEBFF"/>
<path fill-rule="evenodd" clip-rule="evenodd" d="M49.648 46.5591V51.6593C49.6486 51.7928 49.6228 51.925 49.5722 52.0485C49.5216 52.172 49.4471 52.2844 49.3531 52.3791C49.2591 52.4738 49.1473 52.5491 49.0241 52.6006C48.901 52.6521 48.7689 52.6788 48.6355 52.6793H33.7281C33.9032 52.9879 34.1567 53.2448 34.463 53.424C34.7693 53.6031 35.1175 53.6981 35.4723 53.6994H63.8238C64.363 53.6972 64.8792 53.4811 65.2589 53.0984C65.6387 52.7157 65.8509 52.1979 65.8489 51.6588V46.5586C65.8471 46.1999 65.7503 45.8482 65.5685 45.5391H50.6606C50.5271 45.5395 50.395 45.5663 50.2719 45.6178C50.1488 45.6693 50.037 45.7446 49.943 45.8393C49.8489 45.934 49.7745 46.0464 49.7239 46.1699C49.6733 46.2934 49.6475 46.4256 49.648 46.5591V46.5591Z" fill="#1F56A3"/>
<path fill-rule="evenodd" clip-rule="evenodd" d="M61.7991 48.0898H55.7238C55.4545 48.0917 55.1969 48.2 55.0071 48.3911C54.8173 48.5822 54.7108 48.8406 54.7108 49.1099C54.7108 49.3792 54.8173 49.6376 55.0071 49.8286C55.1969 50.0197 55.4545 50.128 55.7238 50.1299H61.7991C62.0684 50.128 62.326 50.0197 62.5158 49.8286C62.7055 49.6376 62.812 49.3792 62.812 49.1099C62.812 48.8406 62.7055 48.5822 62.5158 48.3911C62.326 48.2 62.0684 48.0917 61.7991 48.0898Z" fill="#50E6FF"/>
<path fill-rule="evenodd" clip-rule="evenodd" d="M55.7238 48.5999H61.7991C62.0237 48.6009 62.2416 48.6767 62.4184 48.8152C62.5952 48.9537 62.7209 49.1471 62.7757 49.3649C62.8169 49.2149 62.8229 49.0574 62.7931 48.9047C62.7633 48.7521 62.6986 48.6084 62.604 48.4849C62.5094 48.3614 62.3876 48.2615 62.2479 48.1929C62.1083 48.1244 61.9547 48.0891 61.7991 48.0899H55.7238C55.5682 48.0892 55.4147 48.1245 55.275 48.193C55.1354 48.2616 55.0135 48.3615 54.919 48.485C54.8244 48.6084 54.7597 48.7521 54.7299 48.9048C54.7001 49.0574 54.706 49.2149 54.7472 49.3649C54.802 49.1471 54.9277 48.9537 55.1045 48.8152C55.2813 48.6767 55.4992 48.6009 55.7238 48.5999V48.5999Z" fill="#53B1E0"/>
<path fill-rule="evenodd" clip-rule="evenodd" d="M41.8873 49.4238C41.7308 49.581 41.5268 49.6821 41.3069 49.7113C41.087 49.7404 40.8637 49.696 40.6717 49.5849C40.7463 49.7224 40.8523 49.8403 40.981 49.9292C41.1097 50.0181 41.2575 50.0755 41.4124 50.0967C41.5674 50.1179 41.7252 50.1023 41.873 50.0513C42.0209 50.0002 42.1546 49.915 42.2635 49.8027C42.4534 49.6108 42.56 49.3516 42.56 49.0815C42.56 48.8115 42.4534 48.5523 42.2635 48.3604C42.1991 48.2971 42.1263 48.2428 42.0472 48.1992C42.1576 48.3929 42.2016 48.6173 42.1727 48.8383C42.1439 49.0594 42.0436 49.2649 41.8873 49.4238V49.4238Z" fill="#C3F1FF"/>
<path fill-rule="evenodd" clip-rule="evenodd" d="M38.8535 49.4355C38.6971 49.5929 38.4931 49.694 38.2732 49.7232C38.0532 49.7524 37.8299 49.7079 37.6379 49.5967C37.7126 49.7341 37.8186 49.8521 37.9473 49.941C38.0761 50.03 38.2239 50.0873 38.3789 50.1085C38.5339 50.1297 38.6918 50.1142 38.8396 50.0631C38.9875 50.012 39.1213 49.9268 39.2302 49.8144C39.3426 49.7046 39.4278 49.5699 39.4789 49.4213C39.5301 49.2726 39.5458 49.114 39.5247 48.9582C39.5037 48.8024 39.4465 48.6537 39.3577 48.524C39.2689 48.3942 39.151 48.287 39.0135 48.2109C39.124 48.4046 39.1682 48.629 39.1393 48.8501C39.1105 49.0712 39.0101 49.2768 38.8535 49.4355V49.4355Z" fill="#C3F1FF"/>
<path fill-rule="evenodd" clip-rule="evenodd" d="M63.824 35.3398H35.4724C34.9334 35.3419 34.4172 35.5579 34.0374 35.9405C33.6576 36.3231 33.4454 36.8408 33.4473 37.3799V42.4801C33.4454 43.0191 33.6576 43.5369 34.0374 43.9195C34.4172 44.3021 34.9334 44.5181 35.4724 44.5202H63.824C64.3631 44.518 64.8793 44.3019 65.2591 43.9192C65.6389 43.5365 65.8511 43.0187 65.8491 42.4796V37.3794C65.8501 37.1125 65.7985 36.848 65.6972 36.6011C65.5959 36.3542 65.447 36.1296 65.259 35.9402C65.0709 35.7508 64.8474 35.6003 64.6012 35.4973C64.355 35.3943 64.0909 35.3408 63.824 35.3398V35.3398Z" fill="#0078D4"/>
<path fill-rule="evenodd" clip-rule="evenodd" d="M40.832 40.6237C40.6421 40.4317 40.5356 40.1726 40.5356 39.9025C40.5356 39.6325 40.6421 39.3734 40.832 39.1814C40.9257 39.0868 41.0372 39.0117 41.1601 38.9604C41.2829 38.9092 41.4148 38.8828 41.5479 38.8828C41.681 38.8828 41.8128 38.9092 41.9357 38.9604C42.0586 39.0117 42.1701 39.0868 42.2638 39.1814C42.4538 39.3733 42.5603 39.6325 42.5603 39.9025C42.5603 40.1726 42.4538 40.4317 42.2638 40.6237C42.1701 40.7183 42.0586 40.7935 41.9358 40.8447C41.8129 40.896 41.681 40.9224 41.5479 40.9224C41.4147 40.9224 41.2829 40.896 41.16 40.8447C41.0371 40.7935 40.9257 40.7183 40.832 40.6237Z" fill="#9CEBFF"/>
<path fill-rule="evenodd" clip-rule="evenodd" d="M37.7979 40.6354C37.6081 40.4433 37.5017 40.1842 37.5017 39.9142C37.5017 39.6442 37.6081 39.3851 37.7979 39.1931C37.8916 39.0985 38.0032 39.0234 38.1261 38.9722C38.249 38.9209 38.3808 38.8945 38.514 38.8945C38.6472 38.8945 38.779 38.9209 38.9019 38.9722C39.0249 39.0234 39.1364 39.0985 39.2301 39.1931C39.4199 39.3851 39.5263 39.6442 39.5263 39.9142C39.5263 40.1842 39.4199 40.4433 39.2301 40.6354C39.1364 40.7301 39.0249 40.8052 38.902 40.8565C38.7791 40.9077 38.6472 40.9341 38.514 40.9341C38.3808 40.9341 38.249 40.9077 38.126 40.8565C38.0031 40.8052 37.8916 40.7301 37.7979 40.6354V40.6354Z" fill="#9CEBFF"/>
<path fill-rule="evenodd" clip-rule="evenodd" d="M49.648 37.3794V42.4796C49.6486 42.613 49.6228 42.7453 49.5722 42.8688C49.5216 42.9923 49.4471 43.1046 49.3531 43.1994C49.2591 43.2941 49.1473 43.3694 49.0241 43.4209C48.901 43.4724 48.7689 43.4991 48.6355 43.4996H33.7281C33.9032 43.8082 34.1567 44.0651 34.463 44.2442C34.7693 44.4234 35.1175 44.5184 35.4723 44.5196H63.8238C64.363 44.5175 64.8792 44.3013 65.2589 43.9187C65.6387 43.536 65.8509 43.0182 65.8489 42.479V37.3789C65.8471 37.0203 65.7503 36.6685 65.5685 36.3594H50.6606C50.5271 36.3598 50.395 36.3866 50.2719 36.4381C50.1488 36.4896 50.037 36.5649 49.943 36.6596C49.8489 36.7543 49.7745 36.8667 49.7239 36.9902C49.6733 37.1137 49.6475 37.2459 49.648 37.3794V37.3794Z" fill="#1F56A3"/>
<path fill-rule="evenodd" clip-rule="evenodd" d="M61.7991 38.9102H55.7238C55.4545 38.912 55.1969 39.0203 55.0071 39.2114C54.8173 39.4025 54.7108 39.6609 54.7108 39.9302C54.7108 40.1995 54.8173 40.4579 55.0071 40.649C55.1969 40.84 55.4545 40.9483 55.7238 40.9502H61.7991C62.0684 40.9483 62.326 40.84 62.5158 40.649C62.7055 40.4579 62.812 40.1995 62.812 39.9302C62.812 39.6609 62.7055 39.4025 62.5158 39.2114C62.326 39.0203 62.0684 38.912 61.7991 38.9102Z" fill="#50E6FF"/>
<path fill-rule="evenodd" clip-rule="evenodd" d="M55.7238 39.4202H61.7991C62.0237 39.4212 62.2416 39.4969 62.4184 39.6354C62.5952 39.774 62.7209 39.9674 62.7757 40.1852C62.8169 40.0352 62.8229 39.8777 62.7931 39.725C62.7633 39.5724 62.6986 39.4287 62.604 39.3052C62.5094 39.1817 62.3875 39.0818 62.2479 39.0132C62.1082 38.9447 61.9546 38.9094 61.7991 38.9102H55.7238C55.5682 38.9095 55.4146 38.9448 55.275 39.0133C55.1354 39.0819 55.0136 39.1818 54.919 39.3053C54.8244 39.4287 54.7597 39.5724 54.7299 39.7251C54.7001 39.8777 54.706 40.0352 54.7472 40.1852C54.8019 39.9674 54.9277 39.774 55.1045 39.6354C55.2813 39.4969 55.4992 39.4212 55.7238 39.4202V39.4202Z" fill="#53B1E0"/>
<path fill-rule="evenodd" clip-rule="evenodd" d="M41.8873 40.2441C41.7308 40.4013 41.5268 40.5024 41.3069 40.5316C41.087 40.5607 40.8637 40.5163 40.6717 40.4053C40.7463 40.5427 40.8523 40.6606 40.981 40.7495C41.1097 40.8384 41.2575 40.8958 41.4124 40.917C41.5674 40.9382 41.7252 40.9226 41.873 40.8716C42.0209 40.8205 42.1546 40.7354 42.2635 40.623C42.4534 40.4311 42.56 40.1719 42.56 39.9019C42.56 39.6318 42.4534 39.3726 42.2635 39.1807C42.1991 39.1174 42.1263 39.0632 42.0472 39.0195C42.1576 39.2132 42.2016 39.4376 42.1727 39.6587C42.1439 39.8797 42.0436 40.0852 41.8873 40.2441Z" fill="#C3F1FF"/>
<path fill-rule="evenodd" clip-rule="evenodd" d="M38.8535 40.2558C38.6971 40.4132 38.4931 40.5143 38.2732 40.5435C38.0532 40.5727 37.8299 40.5282 37.6379 40.417C37.7126 40.5544 37.8186 40.6724 37.9473 40.7614C38.076 40.8503 38.2239 40.9077 38.3789 40.9289C38.5339 40.9501 38.6918 40.9345 38.8396 40.8834C38.9875 40.8323 39.1213 40.7471 39.2302 40.6347C39.3426 40.5249 39.4278 40.3902 39.4789 40.2416C39.5301 40.0929 39.5458 39.9343 39.5247 39.7785C39.5037 39.6228 39.4465 39.474 39.3577 39.3443C39.2689 39.2145 39.151 39.1073 39.0135 39.0312C39.124 39.2249 39.1682 39.4493 39.1393 39.6704C39.1105 39.8915 39.0101 40.0971 38.8535 40.2558V40.2558Z" fill="#C3F1FF"/>
<g opacity="0.2">
<path opacity="0.2" d="M65.849 72.0624V54.9766H55.6078C54.5473 54.9777 53.5305 55.3995 52.7806 56.1494C52.0307 56.8993 51.6089 57.916 51.6078 58.9766V72.0624H65.849Z" fill="#003067"/>
<path opacity="0.2" d="M33.4474 72.0624H47.6713V58.9766C47.6701 57.916 47.2483 56.8993 46.4984 56.1494C45.7485 55.3995 44.7318 54.9777 43.6713 54.9766H33.4474V72.0624Z" fill="#003067"/>
</g>
<path d="M68.8985 56.9766H55.6078C54.5032 56.9766 53.6078 57.872 53.6078 58.9766V74.9471C53.6078 76.0517 54.5032 76.9471 55.6078 76.9471H68.8985C70.0031 76.9471 70.8985 76.0517 70.8985 74.9471V58.9766C70.8985 57.872 70.0031 56.9766 68.8985 56.9766Z" fill="white"/>
<path fill-rule="evenodd" clip-rule="evenodd" d="M58.0536 73.8731C57.6694 73.8731 57.2939 73.7591 56.9744 73.5457C56.655 73.3323 56.4061 73.0289 56.2591 72.674C56.112 72.3191 56.0736 71.9285 56.1485 71.5517C56.2235 71.1749 56.4085 70.8288 56.6801 70.5572C56.9518 70.2855 57.2979 70.1005 57.6747 70.0256C58.0515 69.9507 58.442 69.9891 58.7969 70.1361C59.1519 70.2832 59.4552 70.5321 59.6687 70.8516C59.8821 71.171 59.996 71.5465 59.996 71.9307C59.996 72.4459 59.7913 72.9399 59.4271 73.3042C59.0628 73.6684 58.5687 73.8731 58.0536 73.8731V73.8731Z" fill="#E8E8E8"/>
<path fill-rule="evenodd" clip-rule="evenodd" d="M58.0536 68.7754C57.6694 68.7754 57.2939 68.6615 56.9744 68.4481C56.655 68.2346 56.4061 67.9312 56.2591 67.5763C56.112 67.2214 56.0736 66.8308 56.1485 66.4541C56.2235 66.0773 56.4085 65.7312 56.6801 65.4595C56.9518 65.1879 57.2979 65.0029 57.6747 64.9279C58.0515 64.853 58.442 64.8915 58.7969 65.0385C59.1519 65.1855 59.4552 65.4345 59.6687 65.7539C59.8821 66.0733 59.996 66.4489 59.996 66.833C59.996 67.3482 59.7913 67.8423 59.4271 68.2065C59.0628 68.5708 58.5687 68.7754 58.0536 68.7754V68.7754Z" fill="#72C472"/>
<path fill-rule="evenodd" clip-rule="evenodd" d="M58.9459 66.2938C58.9003 66.2482 58.8385 66.2227 58.7741 66.2227C58.7097 66.2227 58.6479 66.2482 58.6023 66.2938L57.8014 67.0941L57.5122 66.8076C57.5054 66.7975 57.4978 66.7881 57.4893 66.7794C57.444 66.7342 57.3827 66.7087 57.3187 66.7084C57.2547 66.7082 57.1932 66.7332 57.1475 66.7781C57.1019 66.823 57.0758 66.8841 57.075 66.9481C57.0742 67.0121 57.0987 67.0738 57.1432 67.1198L57.1403 67.1227L57.6304 67.6084C57.676 67.6539 57.7378 67.6795 57.8022 67.6795C57.8667 67.6795 57.9285 67.6539 57.9741 67.6084L58.9452 66.6377L58.9459 66.6371C58.9685 66.6146 58.9864 66.5878 58.9986 66.5584C59.0108 66.5289 59.0171 66.4973 59.0171 66.4655C59.0171 66.4336 59.0108 66.402 58.9986 66.3725C58.9864 66.3431 58.9685 66.3163 58.9459 66.2938V66.2938Z" fill="white"/>
<path fill-rule="evenodd" clip-rule="evenodd" d="M58.0536 63.6739C57.6694 63.6739 57.2939 63.5599 56.9744 63.3465C56.655 63.1331 56.4061 62.8297 56.2591 62.4748C56.112 62.1198 56.0736 61.7293 56.1485 61.3525C56.2235 60.9757 56.4085 60.6296 56.6801 60.358C56.9518 60.0863 57.2979 59.9013 57.6747 59.8264C58.0515 59.7514 58.442 59.7899 58.7969 59.9369C59.1519 60.0839 59.4552 60.3329 59.6687 60.6523C59.8821 60.9718 59.996 61.3473 59.996 61.7315C59.996 62.2466 59.7913 62.7407 59.4271 63.105C59.0628 63.4692 58.5687 63.6739 58.0536 63.6739V63.6739Z" fill="#72C472"/>
<path fill-rule="evenodd" clip-rule="evenodd" d="M58.9459 61.1922C58.9003 61.1467 58.8385 61.1211 58.7741 61.1211C58.7097 61.1211 58.6479 61.1467 58.6023 61.1922L57.8014 61.9925L57.5122 61.706C57.5054 61.696 57.4978 61.6865 57.4893 61.6778C57.444 61.6326 57.3827 61.6071 57.3187 61.6068C57.2547 61.6066 57.1932 61.6316 57.1475 61.6765C57.1019 61.7214 57.0758 61.7825 57.075 61.8465C57.0742 61.9105 57.0987 61.9722 57.1432 62.0183L57.1403 62.0212L57.6304 62.5068C57.676 62.5523 57.7378 62.5779 57.8022 62.5779C57.8667 62.5779 57.9285 62.5523 57.9741 62.5068L58.9452 61.5361L58.9459 61.5356C58.9685 61.513 58.9864 61.4863 58.9986 61.4568C59.0108 61.4274 59.0171 61.3958 59.0171 61.3639C59.0171 61.332 59.0108 61.3004 58.9986 61.271C58.9864 61.2415 58.9685 61.2148 58.9459 61.1922V61.1922Z" fill="white"/>
<path d="M62.3036 60.2344H67.6666C67.7623 60.2344 67.857 60.2532 67.9454 60.2898C68.0337 60.3264 68.114 60.3801 68.1817 60.4477C68.2493 60.5154 68.303 60.5957 68.3396 60.684C68.3762 60.7724 68.395 60.8671 68.395 60.9628V60.9628C68.395 61.0584 68.3762 61.1531 68.3396 61.2415C68.303 61.3299 68.2493 61.4102 68.1817 61.4778C68.114 61.5455 68.0337 61.5991 67.9454 61.6357C67.857 61.6723 67.7623 61.6912 67.6666 61.6912H62.3036C62.1104 61.6912 61.9252 61.6144 61.7886 61.4778C61.652 61.3412 61.5752 61.156 61.5752 60.9628V60.9628C61.5752 60.8671 61.5941 60.7724 61.6307 60.684C61.6673 60.5957 61.7209 60.5154 61.7886 60.4477C61.8562 60.3801 61.9365 60.3264 62.0249 60.2898C62.1132 60.2532 62.208 60.2344 62.3036 60.2344V60.2344Z" fill="#E8E8E8"/>
<path d="M62.3036 66.0625H66.9383C67.1314 66.0625 67.3167 66.1392 67.4533 66.2758C67.5899 66.4124 67.6667 66.5977 67.6667 66.7909V66.7909C67.6667 66.9841 67.5899 67.1693 67.4533 67.3059C67.3167 67.4425 67.1314 67.5193 66.9383 67.5193H62.3036C62.1104 67.5193 61.9252 67.4425 61.7886 67.3059C61.652 67.1693 61.5752 66.9841 61.5752 66.7909V66.7909C61.5752 66.5977 61.652 66.4124 61.7886 66.2758C61.9252 66.1392 62.1104 66.0625 62.3036 66.0625V66.0625Z" fill="#E8E8E8"/>
<path d="M62.3036 63.1484H67.6666C67.7623 63.1484 67.857 63.1673 67.9454 63.2039C68.0337 63.2405 68.114 63.2941 68.1817 63.3618C68.2493 63.4294 68.303 63.5097 68.3396 63.5981C68.3762 63.6865 68.395 63.7812 68.395 63.8768V63.8768C68.395 63.9725 68.3762 64.0672 68.3396 64.1556C68.303 64.244 68.2493 64.3243 68.1817 64.3919C68.114 64.4595 68.0337 64.5132 67.9454 64.5498C67.857 64.5864 67.7623 64.6052 67.6666 64.6052H62.3036C62.1104 64.6052 61.9252 64.5285 61.7886 64.3919C61.652 64.2553 61.5752 64.07 61.5752 63.8768V63.8768C61.5752 63.7812 61.5941 63.6865 61.6307 63.5981C61.6673 63.5097 61.7209 63.4294 61.7886 63.3618C61.8562 63.2941 61.9365 63.2405 62.0249 63.2039C62.1132 63.1673 62.208 63.1484 62.3036 63.1484V63.1484Z" fill="#E8E8E8"/>
<path d="M62.3036 68.9766H67.6666C67.8598 68.9766 68.0451 69.0533 68.1817 69.1899C68.3183 69.3265 68.395 69.5118 68.395 69.705V69.705C68.395 69.8981 68.3183 70.0834 68.1817 70.22C68.0451 70.3566 67.8598 70.4334 67.6666 70.4334H62.3036C62.1104 70.4334 61.9252 70.3566 61.7886 70.22C61.652 70.0834 61.5752 69.8981 61.5752 69.705V69.705C61.5752 69.5118 61.652 69.3265 61.7886 69.1899C61.9252 69.0533 62.1104 68.9766 62.3036 68.9766V68.9766Z" fill="#E8E8E8"/>
<path d="M62.3036 71.8867H65.8456C66.0388 71.8867 66.2241 71.9635 66.3607 72.1001C66.4973 72.2367 66.574 72.4219 66.574 72.6151V72.6151C66.574 72.8083 66.4973 72.9936 66.3607 73.1302C66.2241 73.2668 66.0388 73.3435 65.8456 73.3435H62.3036C62.1104 73.3435 61.9252 73.2668 61.7886 73.1302C61.652 72.9936 61.5752 72.8083 61.5752 72.6151V72.6151C61.5752 72.4219 61.652 72.2367 61.7886 72.1001C61.9252 71.9635 62.1104 71.8867 62.3036 71.8867V71.8867Z" fill="#E8E8E8"/>
<path fill-rule="evenodd" clip-rule="evenodd" d="M28.3806 58.9766V74.9471C28.3806 75.4775 28.5913 75.9862 28.9663 76.3613C29.3414 76.7364 29.8501 76.9471 30.3806 76.9471H43.6712C44.2017 76.9471 44.7104 76.7364 45.0854 76.3613C45.4605 75.9862 45.6712 75.4775 45.6712 74.9471V58.9766C45.6712 58.4461 45.4605 57.9374 45.0854 57.5624C44.7104 57.1873 44.2017 56.9766 43.6712 56.9766H30.3806C29.8501 56.9766 29.3414 57.1873 28.9663 57.5624C28.5913 57.9374 28.3806 58.4461 28.3806 58.9766Z" fill="white"/>
<path fill-rule="evenodd" clip-rule="evenodd" d="M32.8263 73.8731C32.4421 73.8731 32.0666 73.7592 31.7472 73.5457C31.4277 73.3323 31.1788 73.0289 31.0317 72.674C30.8847 72.3191 30.8463 71.9285 30.9212 71.5517C30.9962 71.175 31.1811 70.8288 31.4528 70.5572C31.7244 70.2855 32.0706 70.1006 32.4473 70.0256C32.8241 69.9507 33.2147 69.9891 33.5696 70.1361C33.9245 70.2832 34.2279 70.5321 34.4413 70.8516C34.6548 71.171 34.7687 71.5465 34.7687 71.9307C34.7687 72.4459 34.564 72.9399 34.1998 73.3042C33.8355 73.6684 33.3414 73.8731 32.8263 73.8731V73.8731Z" fill="#E8E8E8"/>
<path fill-rule="evenodd" clip-rule="evenodd" d="M32.8263 68.7754C32.4421 68.7754 32.0666 68.6615 31.7472 68.4481C31.4277 68.2346 31.1788 67.9313 31.0317 67.5764C30.8847 67.2214 30.8463 66.8309 30.9212 66.4541C30.9962 66.0773 31.1811 65.7312 31.4528 65.4595C31.7244 65.1879 32.0706 65.0029 32.4473 64.9279C32.8241 64.853 33.2147 64.8915 33.5696 65.0385C33.9245 65.1855 34.2279 65.4345 34.4413 65.7539C34.6548 66.0733 34.7687 66.4489 34.7687 66.833C34.7687 67.3482 34.564 67.8422 34.1998 68.2065C33.8355 68.5708 33.3414 68.7754 32.8263 68.7754V68.7754Z" fill="#E8E8E8"/>
<path fill-rule="evenodd" clip-rule="evenodd" d="M32.8263 63.6739C32.4421 63.6739 32.0666 63.56 31.7472 63.3465C31.4277 63.1331 31.1788 62.8297 31.0317 62.4748C30.8847 62.1199 30.8463 61.7293 30.9212 61.3525C30.9962 60.9757 31.1811 60.6296 31.4528 60.358C31.7244 60.0863 32.0706 59.9013 32.4473 59.8264C32.8241 59.7514 33.2147 59.7899 33.5696 59.9369C33.9245 60.0839 34.2279 60.3329 34.4413 60.6523C34.6548 60.9718 34.7687 61.3473 34.7687 61.7315C34.7687 62.2466 34.564 62.7407 34.1998 63.1049C33.8355 63.4692 33.3414 63.6739 32.8263 63.6739Z" fill="#E8E8E8"/>
<path d="M37.0764 60.2344H42.4394C42.535 60.2344 42.6297 60.2532 42.7181 60.2898C42.8065 60.3264 42.8868 60.3801 42.9544 60.4477C43.022 60.5154 43.0757 60.5957 43.1123 60.684C43.1489 60.7724 43.1678 60.8671 43.1678 60.9628V60.9628C43.1678 61.0584 43.1489 61.1531 43.1123 61.2415C43.0757 61.3299 43.022 61.4102 42.9544 61.4778C42.8868 61.5455 42.8065 61.5991 42.7181 61.6357C42.6297 61.6723 42.535 61.6912 42.4394 61.6912H37.0764C36.8832 61.6912 36.6979 61.6144 36.5613 61.4778C36.4247 61.3412 36.348 61.156 36.348 60.9628V60.9628C36.348 60.8671 36.3668 60.7724 36.4034 60.684C36.44 60.5957 36.4937 60.5154 36.5613 60.4477C36.6289 60.3801 36.7092 60.3264 36.7976 60.2898C36.886 60.2532 36.9807 60.2344 37.0764 60.2344V60.2344Z" fill="#E8E8E8"/>
<path d="M37.0764 66.0625H41.711C41.9042 66.0625 42.0894 66.1392 42.226 66.2758C42.3626 66.4124 42.4394 66.5977 42.4394 66.7909V66.7909C42.4394 66.9841 42.3626 67.1693 42.226 67.3059C42.0894 67.4425 41.9042 67.5193 41.711 67.5193H37.0764C36.8832 67.5193 36.6979 67.4425 36.5613 67.3059C36.4247 67.1693 36.348 66.9841 36.348 66.7909V66.7909C36.348 66.5977 36.4247 66.4124 36.5613 66.2758C36.6979 66.1392 36.8832 66.0625 37.0764 66.0625V66.0625Z" fill="#E8E8E8"/>
<path d="M37.0764 63.1484H42.4394C42.535 63.1484 42.6297 63.1673 42.7181 63.2039C42.8065 63.2405 42.8868 63.2941 42.9544 63.3618C43.022 63.4294 43.0757 63.5097 43.1123 63.5981C43.1489 63.6865 43.1678 63.7812 43.1678 63.8768V63.8768C43.1678 63.9725 43.1489 64.0672 43.1123 64.1556C43.0757 64.244 43.022 64.3243 42.9544 64.3919C42.8868 64.4595 42.8065 64.5132 42.7181 64.5498C42.6297 64.5864 42.535 64.6052 42.4394 64.6052H37.0764C36.8832 64.6052 36.6979 64.5285 36.5613 64.3919C36.4247 64.2553 36.348 64.07 36.348 63.8768V63.8768C36.348 63.7812 36.3668 63.6865 36.4034 63.5981C36.44 63.5097 36.4937 63.4294 36.5613 63.3618C36.6289 63.2941 36.7092 63.2405 36.7976 63.2039C36.886 63.1673 36.9807 63.1484 37.0764 63.1484V63.1484Z" fill="#E8E8E8"/>
<path d="M37.0764 68.9766H42.4394C42.6325 68.9766 42.8178 69.0533 42.9544 69.1899C43.091 69.3265 43.1678 69.5118 43.1678 69.705V69.705C43.1678 69.8981 43.091 70.0834 42.9544 70.22C42.8178 70.3566 42.6325 70.4334 42.4394 70.4334H37.0764C36.8832 70.4334 36.6979 70.3566 36.5613 70.22C36.4247 70.0834 36.348 69.8981 36.348 69.705V69.705C36.348 69.5118 36.4247 69.3265 36.5613 69.1899C36.6979 69.0533 36.8832 68.9766 37.0764 68.9766V68.9766Z" fill="#E8E8E8"/>
<path d="M37.0764 71.8867H40.6184C40.8115 71.8867 40.9968 71.9635 41.1334 72.1001C41.27 72.2367 41.3467 72.4219 41.3468 72.6151V72.6151C41.3467 72.8083 41.27 72.9936 41.1334 73.1302C40.9968 73.2668 40.8115 73.3435 40.6184 73.3435H37.0764C36.8832 73.3435 36.6979 73.2668 36.5613 73.1302C36.4247 72.9936 36.348 72.8083 36.348 72.6151V72.6151C36.348 72.4219 36.4247 72.2367 36.5613 72.1001C36.6979 71.9635 36.8832 71.8867 37.0764 71.8867V71.8867Z" fill="#E8E8E8"/>
<path d="M64.624 27.0025C64.634 26.9326 64.6539 26.8627 64.6639 26.8029C64.8511 25.8149 64.8185 24.7979 64.5684 23.824C64.3183 22.8501 63.8567 21.9432 63.2166 21.1678C62.5764 20.3923 61.7734 19.7674 60.8645 19.3373C59.9556 18.9073 58.9631 18.6826 57.9576 18.6794C57.4432 18.6776 56.9306 18.738 56.4307 18.859C55.4114 17.2514 53.8977 16.0182 52.1172 15.3451C50.3367 14.6719 48.3857 14.5952 46.5578 15.1265C44.73 15.6577 43.1241 16.7682 41.9817 18.2909C40.8394 19.8135 40.2224 21.6659 40.2237 23.5694C40.2237 23.6892 40.2237 23.809 40.2337 23.9287C39.7771 23.775 39.2983 23.6975 38.8166 23.6992C37.7077 23.6994 36.6413 24.1258 35.838 24.8903C35.0346 25.6548 34.5559 26.6987 34.5008 27.8063C34.4457 28.9138 34.8184 30.0002 35.5418 30.8406C36.2652 31.6811 37.284 32.2113 38.3874 32.3216L57.9476 32.3615C59.1651 32.3601 60.3604 32.0349 61.4108 31.4194C62.4612 30.8039 63.3291 29.9201 63.9255 28.8586C63.9554 28.7988 63.9953 28.7389 64.0253 28.679C64.2895 28.1454 64.4904 27.5827 64.624 27.0025Z" fill="white"/>
<path d="M53.6078 67.4258H45.6712" stroke="white" stroke-miterlimit="10"/>
</g>
<defs>
<linearGradient id="paint0_linear" x1="47.8697" y1="-15.155" x2="51.8525" y2="130.613" gradientUnits="userSpaceOnUse">
<stop stop-color="#00ABDE"/>
<stop offset="1" stop-color="#007ED8"/>
</linearGradient>
<clipPath id="clip0">
<rect width="99.2799" height="99.28" fill="white"/>
</clipPath>
</defs>
</svg>
