<svg width="160" height="188" viewBox="0 0 160 188" fill="none" xmlns="http://www.w3.org/2000/svg">
<g clip-path="url(#clip0)">
<path d="M79.6779 188C82.7592 187.994 85.7796 187.141 88.4083 185.534L150.384 147.874C153.165 146.11 155.449 143.665 157.019 140.771C158.589 137.876 159.394 134.628 159.356 131.336V56.6207C159.392 53.3283 158.587 50.0812 157.017 47.1871C155.447 44.2929 153.163 41.8476 150.384 40.0829L88.4083 2.4228C85.7749 0.837605 82.7592 0 79.6855 0C76.6118 0 73.5961 0.837605 70.9627 2.4228L8.9876 40.098C6.2045 41.8604 3.91796 44.3048 2.34499 47.1991C0.772021 50.0935 -0.0351786 53.3418 4.1431e-06 56.6358V131.336C-0.0185283 134.119 0.556189 136.874 1.68588 139.418C2.81557 141.962 4.4743 144.236 6.5516 146.089V146.115L70.9627 185.549C73.5884 187.149 76.6032 187.996 79.6779 188V188ZM80.3257 6.95218C82.2776 6.95218 84.7548 8.1651 86.4646 9.20912L147.222 46.4034C150.974 48.6881 153.09 55.2842 153.09 60.0352L152.458 131.336C152.458 136.087 149.259 140.355 145.506 142.64L85.1104 179.021C81.6758 181.109 78.8854 181.109 75.4507 179.021L14.2427 142.549C10.4903 140.265 7.47191 136.072 7.47191 131.336V57.688C7.50442 55.3228 8.11341 53.0013 9.24608 50.9247C10.3787 48.8482 12.0009 47.0792 13.9718 45.7714L74.548 9.20912C76.2577 8.1651 78.3739 6.95218 80.3257 6.95218Z" fill="#F2F1F0"/>
<path fill-rule="evenodd" clip-rule="evenodd" d="M87.5765 10.5328C85.2056 9.05922 82.4697 8.27832 79.6783 8.27832C76.8868 8.27832 74.1509 9.05922 71.7801 10.5328L15.6454 44.8642C13.1193 46.4758 11.047 48.7062 9.625 51.3436C8.203 53.9811 7.47851 56.9382 7.52026 59.9343V128.037C7.48034 131.033 8.20562 133.99 9.62745 136.627C11.0493 139.264 13.1206 141.494 15.6454 143.107L71.7801 177.438C74.1508 178.912 76.8867 179.693 79.6783 179.693C82.4698 179.693 85.2057 178.912 87.5765 177.438L143.711 143.107C146.236 141.495 148.307 139.264 149.729 136.627C151.151 133.99 151.877 131.033 151.837 128.037V59.9343C151.875 56.9387 151.149 53.9829 149.727 51.346C148.305 48.7092 146.234 46.4783 143.711 44.8642L87.5765 10.5328Z" fill="url(#paint0_linear)"/>
<path fill-rule="evenodd" clip-rule="evenodd" d="M79.6783 9.7539C81.3615 9.7539 83.2442 10.6196 85.311 11.8777L143.777 47.4201C145.668 48.6335 147.218 50.3104 148.278 52.2914C149.339 54.2725 149.875 56.4918 149.837 58.7386V129.217C149.875 131.464 149.339 133.683 148.278 135.664C147.218 137.645 145.668 139.322 143.777 140.535L85.312 176.077L85.311 176.078C83.6408 177.217 81.6958 177.888 79.6783 178.021C77.6609 177.888 75.7158 177.217 74.0456 176.078L74.0446 176.077L15.5823 140.537L15.5801 140.536C13.7918 139.572 12.2668 138.185 11.1383 136.496C10.1614 134.893 9.52031 132.678 9.52031 129.217V58.7386C9.48157 56.4919 10.018 54.2726 11.0785 52.2916C12.139 50.3106 13.6885 48.6336 15.5797 47.4202L74.0365 11.8831L74.0406 11.8807C76.1244 10.6277 77.9846 9.7539 79.6783 9.7539ZM87.3908 8.4609L145.855 44.0021C148.333 45.5722 150.368 47.751 151.765 50.3307C153.162 52.9104 153.876 55.8051 153.837 58.7386V129.217C153.876 132.151 153.162 135.045 151.765 137.625C150.368 140.205 148.333 142.384 145.855 143.954L87.3898 179.495C85.0956 181.02 82.4302 181.893 79.6783 182.021C76.9264 181.893 74.261 181.02 71.9667 179.495H71.9658L13.502 143.953L13.4995 143.952C11.1642 142.659 9.18097 140.814 7.72281 138.578C6.12823 135.725 5.36521 132.482 5.52031 129.217V58.7386C5.48125 55.805 6.19436 52.9103 7.59165 50.3305C8.98894 47.7508 11.0238 45.572 13.5022 44.002L71.9667 8.46025L71.9749 8.45537C74.0655 7.19796 76.7734 5.75391 79.6783 5.75391C82.5645 5.75391 85.2816 7.17699 87.3908 8.46085V8.4609Z" fill="#0078D4"/>
<path opacity="0.2" d="M139.887 131.927L80.3369 166.534L20.3979 131.928L79.9479 97.3213L139.887 131.927Z" fill="#003067"/>
<path d="M140.532 120.546L79.81 155.834L18.698 120.551L79.42 85.2627L140.532 120.546Z" fill="#1B93EB"/>
<path d="M140.532 120.546L140.52 124.652L79.798 159.94L79.81 155.834L140.532 120.546Z" fill="#1F56A3"/>
<path d="M79.81 155.834L79.798 159.94L18.686 124.657L18.698 120.551L79.81 155.834Z" fill="#0078D4"/>
<path d="M83.0226 54.6051L79.4907 56.6576C81.05 55.7515 83.2088 55.8794 85.5885 57.2533C86.6076 57.8505 87.5505 58.569 88.3966 59.3931L91.9284 57.3406C91.0823 56.5166 90.1394 55.7981 89.1204 55.2008C86.7407 53.8269 84.5818 53.6991 83.0226 54.6051Z" fill="#1F56A3"/>
<path d="M127.108 65.6723C126.154 65.1096 125.136 64.662 124.076 64.339C120.991 56.9243 115.577 50.1071 109.384 46.5314C104.547 43.7387 100.165 43.4787 97.0002 45.3181L93.4683 47.3706C96.6335 45.5312 101.015 45.7912 105.852 48.5839C112.045 52.1597 117.459 58.9768 120.545 66.3914C121.604 66.7145 122.622 67.1621 123.576 67.7248C131.059 72.0453 137.092 82.5239 137.067 91.1126C137.07 92.0503 136.988 92.9862 136.82 93.9089C136.802 94.0407 136.758 94.1676 136.739 94.3198C136.499 95.4179 136.097 96.474 135.545 97.4535C135.482 97.5598 135.403 97.6459 135.34 97.7524C134.767 98.5989 134.013 99.307 133.132 99.8252L136.664 97.7728C137.545 97.2545 138.299 96.5464 138.872 95.7C138.934 95.5935 139.014 95.5074 139.077 95.4011C139.628 94.4217 140.031 93.3655 140.271 92.2674C140.29 92.1152 140.334 91.9883 140.352 91.8564C140.519 90.9338 140.602 89.9978 140.599 89.0602C140.623 80.4715 134.591 69.9928 127.108 65.6723Z" fill="#1F56A3"/>
<path d="M105.852 48.5841C112.045 52.1599 117.459 58.977 120.545 66.3916C121.604 66.7147 122.622 67.1623 123.576 67.725C131.059 72.0455 137.092 82.5242 137.067 91.1128C137.07 92.0505 136.988 92.9865 136.82 93.9091C136.802 94.041 136.758 94.1678 136.74 94.32C136.499 95.4181 136.097 96.4743 135.545 97.4537C135.483 97.5601 135.403 97.6462 135.34 97.7526C132.995 101.157 128.55 101.825 123.47 98.8919L84.6849 76.4076C80.366 73.4158 76.9763 67.2693 76.9908 62.1526C77.0062 56.7111 80.8619 54.524 85.5887 57.253C86.6077 57.8502 87.5506 58.5687 88.3967 59.3928C88.3799 59.1085 88.3806 58.8446 88.3814 58.5705C88.4128 47.4946 96.2307 43.0293 105.852 48.5841Z" fill="#0078D4"/>
<path d="M109.208 81.051C104.401 78.2757 100.527 71.5654 100.542 66.0419C100.449 64.3361 100.98 62.6548 102.035 61.3115C100.026 61.9895 98.7307 64.0726 98.7217 67.2465C98.7061 72.77 102.58 79.4804 107.387 82.2556C110.413 84.0027 113.074 83.7789 114.642 82.0081C113.72 82.2436 112.759 82.2801 111.822 82.115C110.885 81.95 109.994 81.5872 109.208 81.051Z" fill="#1F56A3"/>
<path d="M107.444 62.2542C106.661 61.721 105.774 61.3611 104.841 61.1984C103.909 61.0358 102.952 61.0742 102.035 61.3112C100.98 62.6544 100.449 64.3358 100.542 66.0415C100.527 71.5651 104.401 78.2754 109.208 81.0506C109.994 81.5869 110.885 81.9496 111.822 82.1147C112.759 82.2797 113.721 82.2433 114.642 82.0078C115.693 80.6694 116.221 78.9946 116.128 77.2957C116.144 71.7722 112.269 65.0403 107.444 62.2542Z" fill="#003067"/>
<path d="M78.2272 96.3722C78.3659 96.4191 78.4865 96.5081 78.5721 96.6268C78.6578 96.7455 78.7043 96.888 78.7051 97.0343C78.7059 97.1807 78.6611 97.3237 78.5767 97.4434C78.4924 97.563 78.3728 97.6534 78.2347 97.7019C77.8787 97.8848 77.4844 97.9806 77.0841 97.9812C76.6839 97.9819 76.2893 97.8874 75.9327 97.7056C75.2821 97.33 75.2789 96.7441 75.9188 96.3722C76.2762 96.1898 76.6717 96.0947 77.073 96.0947C77.4742 96.0947 77.8698 96.1898 78.2272 96.3722V96.3722Z" fill="#50E6FF"/>
<path d="M120.851 119.469C120.931 119.496 121 119.548 121.049 119.616C121.098 119.685 121.125 119.767 121.125 119.851C121.126 119.935 121.1 120.017 121.052 120.086C121.003 120.155 120.935 120.207 120.855 120.235L116.803 122.591L71.3209 96.3317L75.0762 94.1494L75.3735 93.9766C75.5783 93.8719 75.805 93.8174 76.0349 93.8174C76.2649 93.8174 76.4916 93.8719 76.6964 93.9766L120.851 119.469ZM75.9327 97.7064C76.2892 97.8882 76.6839 97.9826 77.0841 97.982C77.4844 97.9813 77.8787 97.8856 78.2347 97.7026C78.3728 97.6542 78.4924 97.5638 78.5767 97.4441C78.661 97.3245 78.7059 97.1815 78.7051 97.0351C78.7043 96.8887 78.6578 96.7462 78.5721 96.6275C78.4864 96.5088 78.3658 96.4198 78.2272 96.3729C77.8698 96.1906 77.4742 96.0955 77.0729 96.0955C76.6717 96.0955 76.2761 96.1906 75.9187 96.3729C75.2788 96.7448 75.282 97.3307 75.9326 97.7063" fill="#0078D4"/>
<path d="M71.3209 96.3311L116.803 122.59L86.6246 140.127C86.3572 140.263 86.0618 140.333 85.7621 140.333C85.4625 140.333 85.1671 140.263 84.8997 140.127L41.1485 114.868C41.0446 114.832 40.9544 114.765 40.8903 114.676C40.8262 114.587 40.7914 114.48 40.7908 114.37C40.7902 114.26 40.8237 114.153 40.8869 114.063C40.95 113.973 41.0395 113.905 41.143 113.869L71.3209 96.3311Z" fill="#F2F2F2"/>
<path d="M120.855 120.235L116.803 122.59L116.796 125.082L120.848 122.727C120.923 122.693 120.987 122.64 121.035 122.573C121.082 122.506 121.111 122.428 121.118 122.346L121.125 119.854C121.118 119.936 121.089 120.014 121.042 120.081C120.994 120.148 120.93 120.201 120.855 120.235Z" fill="#1F56A3"/>
<path d="M86.6247 140.128C86.3572 140.263 86.0618 140.334 85.7621 140.334C85.4625 140.334 85.1671 140.263 84.8996 140.128L41.1485 114.868C41.0494 114.824 40.964 114.754 40.9011 114.665C40.8382 114.577 40.8001 114.473 40.7908 114.365L40.7836 116.857C40.793 116.965 40.8311 117.069 40.894 117.157C40.957 117.246 41.0424 117.316 41.1414 117.36L84.8927 142.62C85.1601 142.755 85.4556 142.826 85.7552 142.826C86.0548 142.826 86.3503 142.755 86.6177 142.62L116.796 125.082L116.803 122.591L86.6247 140.128Z" fill="#E8E8E8"/>
<path d="M98.5746 121.623C101.67 123.411 101.686 126.308 98.611 128.095C96.8796 128.977 94.9643 129.437 93.0212 129.438C91.0782 129.439 89.1626 128.98 87.4304 128.1C84.3275 126.308 84.3187 123.406 87.3939 121.619C89.1257 120.738 91.0416 120.279 92.9848 120.279C94.928 120.28 96.8434 120.741 98.5746 121.623V121.623Z" fill="white"/>
<path d="M97.294 124.535C97.1695 123.473 96.661 122.493 95.8642 121.779C95.0674 121.066 94.0373 120.669 92.9678 120.662C91.8984 120.656 90.8635 121.04 90.0579 121.744C89.2524 122.447 88.7318 123.421 88.5942 124.481C88.5631 124.635 88.5505 124.791 88.5567 124.948C88.6203 125.309 88.7701 125.649 88.9932 125.939C89.2164 126.229 89.5064 126.462 89.8386 126.616C90.7984 127.1 91.8584 127.352 92.9334 127.352C94.0084 127.352 95.0684 127.1 96.0282 126.616C96.3589 126.462 96.6469 126.229 96.8675 125.939C97.088 125.648 97.2344 125.308 97.294 124.948C97.3208 124.812 97.3208 124.671 97.294 124.535V124.535Z" fill="#B3B3B3"/>
<path d="M92.9441 120.04C93.4611 120.036 93.9656 119.88 94.3939 119.591C94.8222 119.301 95.1552 118.891 95.3509 118.413C95.5465 117.934 95.5961 117.408 95.4933 116.902C95.3904 116.395 95.1399 115.93 94.7732 115.566C94.4065 115.201 93.9401 114.954 93.4328 114.854C92.9255 114.754 92.4 114.807 91.9227 115.005C91.4453 115.204 91.0375 115.54 90.7506 115.97C90.4637 116.4 90.3105 116.905 90.3105 117.422C90.311 117.767 90.3796 118.109 90.5123 118.427C90.645 118.745 90.8392 119.034 91.0839 119.278C91.3286 119.521 91.6188 119.713 91.938 119.844C92.2573 119.975 92.5991 120.041 92.9441 120.04Z" fill="#B3B3B3"/>
<path d="M73.1095 107.706C76.2049 109.494 76.2212 112.391 73.1459 114.178C71.4145 115.06 69.4992 115.52 67.5562 115.521C65.6131 115.522 63.6975 115.063 61.9654 114.183C58.8624 112.391 58.8536 109.489 61.9289 107.702C63.6607 106.821 65.5765 106.362 67.5197 106.362C69.4629 106.363 71.3784 106.824 73.1095 107.706Z" fill="white"/>
<g opacity="0.2">
<path opacity="0.2" d="M87.1385 113.388C91.2088 115.738 91.2303 119.548 87.1864 121.898C84.9096 123.057 82.391 123.662 79.836 123.663C77.281 123.664 74.7619 123.061 72.4842 121.904C68.4039 119.548 68.3923 115.732 72.4362 113.382C74.7135 112.223 77.2327 111.619 79.788 111.62C82.3433 111.621 84.8621 112.227 87.1385 113.388V113.388Z" fill="#767676"/>
</g>
<path d="M71.8291 110.617C71.7046 109.555 71.196 108.575 70.3992 107.861C69.6024 107.148 68.5723 106.751 67.5029 106.744C66.4335 106.738 65.3985 107.122 64.593 107.826C63.7874 108.529 63.2669 109.503 63.1293 110.563C63.0982 110.717 63.0856 110.873 63.0917 111.03C63.1553 111.391 63.3051 111.731 63.5283 112.021C63.7515 112.311 64.0415 112.544 64.3736 112.698C65.3335 113.182 66.3935 113.434 67.4684 113.434C68.5434 113.434 69.6034 113.182 70.5632 112.698C70.8939 112.544 71.182 112.311 71.4025 112.021C71.6231 111.73 71.7695 111.39 71.8291 111.03C71.8559 110.894 71.8559 110.753 71.8291 110.617V110.617Z" fill="#B3B3B3"/>
<path d="M67.4791 106.122C67.9961 106.118 68.5006 105.962 68.9289 105.673C69.3573 105.383 69.6902 104.973 69.8859 104.495C70.0815 104.016 70.1311 103.49 70.0283 102.984C69.9255 102.477 69.6749 102.012 69.3082 101.648C68.9415 101.283 68.4751 101.036 67.9678 100.936C67.4605 100.836 66.935 100.889 66.4577 101.087C65.9803 101.286 65.5725 101.622 65.2856 102.052C64.9987 102.482 64.8456 102.987 64.8456 103.504C64.846 103.849 64.9146 104.191 65.0473 104.509C65.18 104.827 65.3743 105.117 65.6189 105.36C65.8636 105.603 66.1539 105.795 66.4731 105.926C66.7923 106.057 67.1342 106.123 67.4791 106.122V106.122Z" fill="#B3B3B3"/>
<path d="M90.2055 105.781H89.1185C88.5545 105.138 87.8849 104.596 87.1386 104.179C84.8622 103.018 82.3434 102.412 79.7881 102.411C77.2329 102.41 74.7136 103.014 72.4363 104.173C71.6929 104.591 71.0276 105.135 70.4697 105.781H69.4158V108.405C69.4115 109.956 70.4323 111.51 72.4843 112.695C74.7619 113.852 77.281 114.455 79.836 114.454C82.391 114.453 84.9096 113.849 87.1864 112.689C89.2089 111.514 90.2145 109.973 90.2053 108.433H90.2055V105.781Z" fill="#1F56A3"/>
<path d="M87.1385 101.711C91.2088 104.061 91.2303 107.871 87.1864 110.221C84.9096 111.381 82.391 111.986 79.836 111.987C77.281 111.988 74.7619 111.385 72.4842 110.227C68.4039 107.871 68.3923 104.055 72.4362 101.705C74.7135 100.546 77.2327 99.9424 79.788 99.9434C82.3433 99.9443 84.8621 100.55 87.1385 101.711V101.711Z" fill="url(#paint1_linear)"/>
<path d="M85.4546 105.539C85.2908 104.142 84.6221 102.853 83.5743 101.915C82.5265 100.978 81.172 100.455 79.7658 100.446C78.3596 100.438 76.9988 100.943 75.9395 101.868C74.8802 102.793 74.1956 104.073 74.0146 105.468C73.9737 105.67 73.9571 105.876 73.9653 106.082C74.0489 106.556 74.2458 107.003 74.5393 107.385C74.8328 107.767 75.2142 108.072 75.651 108.275C76.9132 108.912 78.307 109.243 79.7206 109.243C81.1341 109.243 82.528 108.912 83.7902 108.275C84.225 108.072 84.6038 107.766 84.8938 107.384C85.1838 107.002 85.3763 106.555 85.4547 106.082C85.4899 105.902 85.4899 105.718 85.4546 105.539V105.539Z" fill="#50E6FF"/>
<path d="M79.7347 99.628C80.4146 99.6238 81.078 99.4184 81.6412 99.0377C82.2045 98.657 82.6423 98.118 82.8996 97.4887C83.1569 96.8594 83.2221 96.168 83.0869 95.5017C82.9517 94.8354 82.6223 94.2241 82.1401 93.7448C81.6579 93.2656 81.0445 92.9399 80.3774 92.8087C79.7103 92.6776 79.0194 92.747 78.3916 93.0082C77.7639 93.2693 77.2276 93.7105 76.8503 94.276C76.4731 94.8416 76.2717 95.5062 76.2717 96.1861C76.2723 96.6397 76.3625 97.0887 76.537 97.5074C76.7115 97.9261 76.967 98.3062 77.2887 98.626C77.6104 98.9457 77.9921 99.1988 78.4118 99.3708C78.8316 99.5427 79.2811 99.6301 79.7347 99.628V99.628Z" fill="#50E6FF"/>
<path d="M108.335 71.6582L105.685 73.0649" stroke="white" stroke-linecap="round" stroke-linejoin="round"/>
<path d="M101.025 75.5391L84.7145 84.1981" stroke="white" stroke-linecap="round" stroke-linejoin="round" stroke-dasharray="5.28 5.28"/>
<path d="M82.384 85.4346L79.735 86.8416V90.9266" stroke="white" stroke-linecap="round" stroke-linejoin="round"/>
<path d="M43.1625 63.3424C42.8578 63.5308 42.6015 63.7879 42.414 64.0932C40.0105 67.9804 36.2998 71.0726 32.1087 73.6422C31.8013 73.8507 31.5458 74.127 31.362 74.4499C31.1781 74.7727 31.0708 75.1334 31.0483 75.5042L31.0701 83.1901C31.096 92.2983 34.5872 96.1814 43.0055 96.2451L43.5051 95.9567C51.8956 86.1884 55.3534 78.2932 55.3276 69.185L55.3058 61.4991C55.3039 60.8254 54.8246 60.5522 54.2381 60.8659C50.0465 63.1359 46.3301 64.3318 43.9127 63.2279C43.7871 63.1893 43.6544 63.1795 43.5245 63.1993C43.3946 63.2191 43.2708 63.268 43.1625 63.3424V63.3424Z" fill="#50E6FF"/>
<path d="M28.0801 71.4963C32.2712 68.9266 35.9819 65.8345 38.3856 61.9473C38.573 61.6421 38.8292 61.3849 39.1338 61.1964C39.2422 61.122 39.366 61.0731 39.496 61.0533C39.626 61.0335 39.7588 61.0433 39.8845 61.082C42.3018 62.1859 46.0179 60.9899 50.2099 58.7199C50.3197 58.6468 50.4466 58.6034 50.5782 58.5938C50.7098 58.5842 50.8417 58.6089 50.961 58.6653L54.9893 60.8115C54.87 60.7551 54.738 60.7305 54.6064 60.74C54.4747 60.7496 54.3477 60.793 54.2378 60.8661C50.0467 63.1363 46.3301 64.3321 43.9128 63.2282C43.7872 63.1896 43.6545 63.1798 43.5245 63.1996C43.3946 63.2194 43.2709 63.2683 43.1625 63.3426C42.8579 63.5311 42.6017 63.7883 42.4143 64.0935C40.0103 67.9807 36.3 71.0728 32.1089 73.6425C31.8014 73.851 31.5458 74.1273 31.362 74.4501C31.1781 74.7729 31.0708 75.1337 31.0484 75.5045L31.07 83.1902C31.0866 89.0561 32.5407 92.7547 35.8225 94.6618L31.7937 92.5156C28.5119 90.6086 27.0583 86.9099 27.0417 81.044L27.0197 73.3583C27.0422 72.9875 27.1496 72.6268 27.3334 72.304C27.5173 71.9812 27.7727 71.7049 28.0801 71.4963Z" fill="#C3F1FF"/>
<path d="M43.592 75.805C43.3865 75.9392 43.2155 76.1199 43.0928 76.3324C42.9701 76.545 42.8991 76.7834 42.8856 77.0285L42.8915 79.1047L44.309 78.2864L44.303 76.2101C44.3018 75.7626 43.9878 75.5764 43.592 75.805Z" fill="#0078D4"/>
<path d="M44.3194 81.9981L44.3135 79.9219L42.8961 80.7402L42.902 82.8164C42.9033 83.264 43.2236 83.4464 43.613 83.2216C43.8191 83.0881 43.9907 82.9076 44.1135 82.6949C44.2363 82.4822 44.3069 82.2434 44.3194 81.9981V81.9981Z" fill="#0078D4"/>
<path d="M41.0846 80.1473C40.8785 80.2808 40.707 80.4614 40.5842 80.674C40.4614 80.8867 40.3908 81.1255 40.3783 81.3708C40.3796 81.8257 40.6934 82.0119 41.0893 81.7833L42.8961 80.7402L44.3136 79.9218L46.1268 78.8749C46.3332 78.7399 46.5047 78.558 46.6275 78.3441C46.7502 78.1302 46.8207 77.8904 46.8332 77.6441C46.832 77.1965 46.5116 77.0141 46.1222 77.2389L44.309 78.2858L42.8915 79.1041L41.0846 80.1473Z" fill="#0078D4"/>
<path d="M49.9361 75.8532C49.8208 78.0446 49.1888 80.1776 48.0917 82.078C46.9945 83.9784 45.4633 85.5922 43.6231 86.7877C40.1243 88.8077 37.2803 87.187 37.2689 83.1666C37.3851 80.9765 38.0176 78.8449 39.1148 76.9458C40.2119 75.0468 41.7426 73.4341 43.5819 72.2395C47.0807 70.2194 49.9247 71.8402 49.9361 75.8532ZM41.0893 81.784L42.8961 80.7408L42.902 82.817C42.9033 83.2645 43.2236 83.447 43.613 83.2222C43.8191 83.0886 43.9906 82.9081 44.1134 82.6954C44.2362 82.4827 44.3068 82.2439 44.3194 81.9986L44.3135 79.9224L46.1268 78.8755C46.3331 78.7405 46.5047 78.5586 46.6274 78.3447C46.7502 78.1308 46.8207 77.891 46.8331 77.6447C46.8319 77.1971 46.5116 77.0147 46.1222 77.2395L44.3089 78.2864L44.303 76.2102C44.3017 75.7626 43.9878 75.5765 43.592 75.805C43.3865 75.9392 43.2155 76.1199 43.0928 76.3324C42.97 76.545 42.8991 76.7834 42.8856 77.0285L42.8915 79.1047L41.0846 80.1479C40.8785 80.2814 40.707 80.462 40.5842 80.6747C40.4614 80.8873 40.3909 81.1261 40.3783 81.3714C40.3796 81.8263 40.6934 82.0125 41.0893 81.784" fill="white"/>
</g>
<defs>
<linearGradient id="paint0_linear" x1="79.6785" y1="8.27832" x2="79.6785" y2="179.693" gradientUnits="userSpaceOnUse">
<stop stop-color="#00ABDE"/>
<stop offset="1" stop-color="#007ED8"/>
</linearGradient>
<linearGradient id="paint1_linear" x1="1512.64" y1="1376.11" x2="1944.94" y2="1376.11" gradientUnits="userSpaceOnUse">
<stop stop-color="#00ABDE"/>
<stop offset="1" stop-color="#007ED8"/>
</linearGradient>
<clipPath id="clip0">
<rect width="159.356" height="188" fill="white"/>
</clipPath>
</defs>
</svg>
