<svg width="100" height="100" viewBox="0 0 100 100" fill="none" xmlns="http://www.w3.org/2000/svg">
<g clip-path="url(#clip0)">
<path d="M49.6401 96.4481C40.382 96.4481 31.3317 93.7028 23.6339 88.5592C15.936 83.4157 9.93624 76.105 6.3933 67.5516C2.85036 58.9981 1.92337 49.5862 3.72954 40.506C5.53571 31.4257 9.99394 23.085 16.5404 16.5385C23.0869 9.99198 31.4277 5.53376 40.5079 3.72759C49.5882 1.92141 59.0001 2.84841 67.5535 6.39135C76.1069 9.93428 83.4176 15.934 88.5612 23.6319C93.7047 31.3298 96.4501 40.38 96.4501 49.6381C96.4505 55.7854 95.24 61.8726 92.8878 67.5521C90.5355 73.2315 87.0875 78.392 82.7407 82.7388C78.3939 87.0856 73.2335 90.5335 67.554 92.8858C61.8746 95.2381 55.7874 96.4486 49.6401 96.4481V96.4481Z" fill="url(#paint0_linear)"/>
<path fill-rule="evenodd" clip-rule="evenodd" d="M95.54 49.64C95.54 58.7182 92.848 67.5925 87.8045 75.1407C82.7609 82.6889 75.5923 88.572 67.2052 92.0461C58.818 95.5201 49.5891 96.4291 40.6854 94.658C31.7816 92.887 23.603 88.5154 17.1838 82.0962C10.7646 75.677 6.39302 67.4984 4.62196 58.5946C2.85089 49.6909 3.75987 40.462 7.23393 32.0748C10.708 23.6877 16.5911 16.5191 24.1393 11.4755C31.6875 6.43199 40.5618 3.74 49.64 3.74C55.6677 3.73998 61.6363 4.9272 67.2052 7.23388C72.774 9.54057 77.834 12.9215 82.0963 17.1837C86.3585 21.446 89.7394 26.5059 92.0461 32.0748C94.3528 37.6437 95.54 43.6123 95.54 49.64V49.64ZM49.64 3.62732e-07C59.4579 3.62732e-07 69.0553 2.91134 77.2185 8.36585C85.3818 13.8204 91.7442 21.5731 95.5014 30.6436C99.2585 39.7141 100.242 49.6951 98.3262 59.3243C96.4108 68.9535 91.6831 77.7985 84.7408 84.7408C77.7985 91.6831 68.9535 96.4108 59.3243 98.3262C49.6951 100.242 39.7141 99.2585 30.6436 95.5014C21.5731 91.7442 13.8204 85.3818 8.36585 77.2185C2.91134 69.0553 3.62732e-07 59.4579 3.62732e-07 49.64C-0.000787738 43.121 1.28265 36.6656 3.77702 30.6427C6.27138 24.6197 9.9278 19.1471 14.5375 14.5375C19.1471 9.9278 24.6197 6.27138 30.6427 3.77702C36.6656 1.28265 43.121 -0.000787738 49.64 3.62732e-07V3.62732e-07Z" fill="#F2F1F0"/>
<path fill-rule="evenodd" clip-rule="evenodd" d="M92.7296 49.6386C92.7296 58.161 90.2024 66.492 85.4676 73.5781C80.7328 80.6643 74.0031 86.1872 66.1294 89.4486C58.2558 92.71 49.5918 93.5633 41.2332 91.9007C32.8745 90.238 25.1966 86.1341 19.1704 80.1079C13.1441 74.0816 9.0402 66.4037 7.37756 58.0451C5.71493 49.6864 6.56825 41.0225 9.82963 33.1488C13.091 25.2751 18.614 18.5454 25.7001 13.8106C32.7862 9.07581 41.1172 6.54862 49.6396 6.54862C55.2984 6.54828 60.9018 7.6626 66.1298 9.82795C71.3579 11.9933 76.1083 15.1673 80.1096 19.1686C84.1109 23.17 87.2849 27.9203 89.4503 33.1484C91.6156 38.3765 92.7299 43.9799 92.7296 49.6386V49.6386ZM49.6396 2.80862C58.9017 2.80862 67.9558 5.55515 75.657 10.7009C83.3581 15.8466 89.3604 23.1605 92.9049 31.7176C96.4493 40.2746 97.3767 49.6906 95.5698 58.7747C93.7628 67.8588 89.3027 76.2031 82.7534 82.7524C76.2041 89.3017 67.8598 93.7619 58.7757 95.5688C49.6916 97.3757 40.2756 96.4484 31.7185 92.9039C23.1615 89.3594 15.8476 83.3571 10.7019 75.656C5.55613 67.9548 2.8096 58.9007 2.8096 49.6386C2.81079 37.2189 7.74503 25.3082 16.5271 16.5261C25.3092 7.74403 37.2199 2.80979 49.6396 2.80859V2.80862Z" fill="#0078D4"/>
<path fill-rule="evenodd" clip-rule="evenodd" d="M92.7295 49.6386C92.7295 58.161 90.2023 66.492 85.4675 73.5781C80.7327 80.6642 74.003 86.1872 66.1293 89.4486C58.2556 92.7099 49.5917 93.5633 41.233 91.9006C32.8744 90.238 25.1965 86.1341 19.1702 80.1078C13.144 74.0816 9.04008 66.4037 7.37744 58.045C5.7148 49.6864 6.56813 41.0224 9.82951 33.1488C13.0909 25.2751 18.6138 18.5454 25.7 13.8106C32.7861 9.07578 41.1171 6.54859 49.6395 6.54859C55.2982 6.54825 60.9016 7.66257 66.1297 9.82792C71.3578 11.9933 76.1081 15.1673 80.1095 19.1686C84.1108 23.1699 87.2848 27.9203 89.4501 33.1484C91.6155 38.3764 92.7298 43.9798 92.7295 49.6386V49.6386ZM49.6395 2.80859C58.9016 2.80859 67.9557 5.55513 75.6568 10.7009C83.358 15.8466 89.3603 23.1605 92.9048 31.7175C96.4492 40.2746 97.3766 49.6905 95.5696 58.7747C93.7627 67.8588 89.3026 76.2031 82.7533 82.7524C76.204 89.3017 67.8597 93.7618 58.7756 95.5688C49.6914 97.3757 40.2755 96.4483 31.7184 92.9039C23.1614 89.3594 15.8475 83.3571 10.7018 75.656C5.55601 67.9548 2.80948 58.9007 2.80948 49.6386C2.81067 37.2189 7.74492 25.3082 16.527 16.5261C25.3091 7.74403 37.2198 2.80979 49.6395 2.80859V2.80859Z" fill="#0078D4"/>
<path fill-rule="evenodd" clip-rule="evenodd" d="M28.8318 69.7053C28.0441 69.703 27.2893 69.389 26.7323 68.8321C26.1753 68.2751 25.8614 67.5203 25.8591 66.7326V32.5469C25.8614 31.7592 26.1753 31.0044 26.7323 30.4474C27.2893 29.8905 28.0441 29.5765 28.8318 29.5742H70.4491C71.2368 29.5765 71.9916 29.8904 72.5486 30.4474C73.1056 31.0044 73.4195 31.7592 73.4218 32.5469V66.7326C73.4195 67.5203 73.1056 68.2751 72.5486 68.8321C71.9916 69.389 71.2368 69.703 70.4491 69.7053H28.8318Z" fill="#1F56A3"/>
<path fill-rule="evenodd" clip-rule="evenodd" d="M29.5749 67.4747C29.1811 67.4736 28.8037 67.3166 28.5252 67.0381C28.2467 66.7596 28.0897 66.3823 28.0886 65.9884V37.748C28.0897 37.3542 28.2467 36.9768 28.5252 36.6983C28.8037 36.4198 29.1811 36.2629 29.5749 36.2617H69.706C70.0998 36.2629 70.4772 36.4198 70.7557 36.6983C71.0342 36.9768 71.1912 37.3542 71.1923 37.748V65.9884C71.1912 66.3823 71.0342 66.7596 70.7557 67.0381C70.4772 67.3166 70.0998 67.4736 69.706 67.4747H29.5749Z" fill="#0078D4"/>
<path fill-rule="evenodd" clip-rule="evenodd" d="M28.8318 32.9194C28.8318 32.699 28.8971 32.4834 29.0196 32.3001C29.1421 32.1168 29.3162 31.9739 29.5199 31.8895C29.7236 31.8052 29.9477 31.7831 30.164 31.8261C30.3802 31.8691 30.5789 31.9753 30.7348 32.1312C30.8907 32.2871 30.9968 32.4857 31.0398 32.702C31.0828 32.9182 31.0608 33.1423 30.9764 33.346C30.892 33.5497 30.7491 33.7238 30.5658 33.8463C30.3825 33.9688 30.167 34.0342 29.9465 34.0342C29.8001 34.0342 29.6552 34.0054 29.5199 33.9494C29.3846 33.8933 29.2618 33.8112 29.1582 33.7077C29.0547 33.6042 28.9726 33.4813 28.9166 33.346C28.8606 33.2108 28.8317 33.0658 28.8318 32.9194Z" fill="#003067"/>
<path fill-rule="evenodd" clip-rule="evenodd" d="M33.2907 32.9194C33.2907 32.699 33.3561 32.4834 33.4786 32.3001C33.6011 32.1168 33.7752 31.9739 33.9789 31.8895C34.1826 31.8052 34.4067 31.7831 34.623 31.8261C34.8392 31.8691 35.0378 31.9753 35.1937 32.1312C35.3496 32.2871 35.4558 32.4857 35.4988 32.702C35.5418 32.9182 35.5198 33.1423 35.4354 33.346C35.351 33.5497 35.2081 33.7238 35.0248 33.8463C34.8415 33.9688 34.626 34.0342 34.4055 34.0342C34.2591 34.0342 34.1141 34.0054 33.9789 33.9494C33.8436 33.8933 33.7207 33.8112 33.6172 33.7077C33.5137 33.6042 33.4316 33.4813 33.3756 33.346C33.3196 33.2108 33.2907 33.0658 33.2907 32.9194Z" fill="#50E6FF"/>
<path fill-rule="evenodd" clip-rule="evenodd" d="M37.7497 32.9195C37.7497 32.699 37.8151 32.4835 37.9376 32.3001C38.0601 32.1168 38.2342 31.9739 38.4379 31.8895C38.6416 31.8052 38.8657 31.7831 39.082 31.8261C39.2982 31.8691 39.4968 31.9753 39.6527 32.1312C39.8086 32.2871 39.9148 32.4857 39.9578 32.702C40.0008 32.9182 39.9788 33.1424 39.8944 33.3461C39.81 33.5498 39.6671 33.7238 39.4838 33.8463C39.3005 33.9688 39.085 34.0342 38.8645 34.0342C38.7181 34.0342 38.5731 34.0054 38.4379 33.9494C38.3026 33.8933 38.1797 33.8112 38.0762 33.7077C37.9727 33.6042 37.8906 33.4813 37.8346 33.3461C37.7785 33.2108 37.7497 33.0659 37.7497 32.9195V32.9195Z" fill="#C3F1FF"/>
<path fill-rule="evenodd" clip-rule="evenodd" d="M70.0775 34.0342H44.8098C44.5142 34.0342 44.2306 33.9167 44.0216 33.7077C43.8125 33.4986 43.6951 33.2151 43.6951 32.9194C43.6951 32.6238 43.8125 32.3402 44.0216 32.1312C44.2306 31.9221 44.5142 31.8047 44.8098 31.8047H70.0775C70.3732 31.8047 70.6567 31.9221 70.8658 32.1312C71.0748 32.3402 71.1923 32.6238 71.1923 32.9194C71.1923 33.2151 71.0748 33.4986 70.8658 33.7077C70.6567 33.9167 70.3732 34.0342 70.0775 34.0342Z" fill="#003067"/>
<path opacity="0.2" fill-rule="evenodd" clip-rule="evenodd" d="M61.6938 38.3176C60.6879 38.3199 59.7203 38.7037 58.9863 39.3916C58.2523 38.7037 57.2847 38.3199 56.2788 38.3176H53.7158C55.6196 37.6222 57.316 36.4554 58.6464 34.9264C59.9768 33.3973 60.8978 31.5559 61.3232 29.5742H37.958C38.3834 31.5558 39.3043 33.3972 40.6346 34.9263C41.9649 36.4554 43.6612 37.6221 45.5649 38.3176H43.0005C41.9945 38.3199 41.0269 38.7037 40.2929 39.3916C39.5589 38.7037 38.5913 38.3199 37.5854 38.3176H25.8591V65.4211H37.5854C38.5913 65.4188 39.5589 65.0349 40.2929 64.3471C41.0269 65.0349 41.9945 65.4188 43.0005 65.4211H56.2788C57.2847 65.4188 58.2523 65.0349 58.9863 64.3471C59.7203 65.0349 60.6879 65.4188 61.6938 65.4211H73.4218V38.3176H61.6938Z" fill="#003067"/>
<path d="M74.9714 40.3164H61.6933C60.5888 40.3164 59.6933 41.2118 59.6933 42.3164V61.4197C59.6933 62.5243 60.5888 63.4197 61.6933 63.4197H74.9714C76.076 63.4197 76.9714 62.5243 76.9714 61.4197V42.3164C76.9714 41.2118 76.076 40.3164 74.9714 40.3164Z" fill="white"/>
<path d="M65.9426 60.2521C66.7436 60.2521 67.3929 59.6028 67.3929 58.8018C67.3929 58.0009 66.7436 57.3516 65.9426 57.3516C65.1417 57.3516 64.4924 58.0009 64.4924 58.8018C64.4924 59.6028 65.1417 60.2521 65.9426 60.2521Z" fill="#E8E8E8"/>
<path d="M71.901 58.3975H68.8521C68.7802 58.3975 68.7113 58.3689 68.6605 58.3181C68.6097 58.2673 68.5811 58.1983 68.5811 58.1265C68.5811 58.0546 68.6097 57.9857 68.6605 57.9348C68.7113 57.884 68.7802 57.8555 68.8521 57.8555H71.901C71.9729 57.8555 72.0418 57.884 72.0926 57.9348C72.1434 57.9857 72.172 58.0546 72.172 58.1265C72.172 58.1983 72.1434 58.2673 72.0926 58.3181C72.0418 58.3689 71.9729 58.3975 71.901 58.3975V58.3975Z" fill="#E8E8E8"/>
<path d="M71.1402 59.7451H68.8521C68.7802 59.7451 68.7113 59.7166 68.6605 59.6658C68.6097 59.6149 68.5811 59.546 68.5811 59.4741C68.5811 59.4023 68.6097 59.3333 68.6605 59.2825C68.7113 59.2317 68.7802 59.2031 68.8521 59.2031H71.1402C71.2121 59.2031 71.281 59.2317 71.3318 59.2825C71.3826 59.3333 71.4112 59.4023 71.4112 59.4741C71.4112 59.546 71.3826 59.6149 71.3318 59.6658C71.281 59.7166 71.2121 59.7451 71.1402 59.7451Z" fill="#E8E8E8"/>
<path d="M68.3324 49.9856C69.8127 49.9856 71.0127 48.7856 71.0127 47.3053C71.0127 45.825 69.8127 44.625 68.3324 44.625C66.8521 44.625 65.6521 45.825 65.6521 47.3053C65.6521 48.7856 66.8521 49.9856 68.3324 49.9856Z" fill="#E8E8E8"/>
<path fill-rule="evenodd" clip-rule="evenodd" d="M63.6206 55.1092C63.6197 54.4899 63.7409 53.8765 63.9773 53.304C64.2137 52.7316 64.5606 52.2113 64.9983 51.7731C65.4359 51.3348 65.9556 50.9872 66.5277 50.7499C67.0998 50.5127 67.7131 50.3906 68.3324 50.3906C68.9517 50.3906 69.565 50.5127 70.1371 50.7499C70.7092 50.9872 71.2289 51.3348 71.6665 51.7731C72.1041 52.2113 72.4511 52.7316 72.6874 53.304C72.9238 53.8765 73.045 54.4899 73.0441 55.1092H63.6206Z" fill="#E8E8E8"/>
<path d="M56.2785 40.3164H43.0004C41.8958 40.3164 41.0004 41.2118 41.0004 42.3164V61.4197C41.0004 62.5243 41.8958 63.4197 43.0004 63.4197H56.2785C57.3831 63.4197 58.2785 62.5243 58.2785 61.4197V42.3164C58.2785 41.2118 57.3831 40.3164 56.2785 40.3164Z" fill="white"/>
<path d="M47.2497 60.2521C48.0506 60.2521 48.6999 59.6028 48.6999 58.8018C48.6999 58.0009 48.0506 57.3516 47.2497 57.3516C46.4487 57.3516 45.7994 58.0009 45.7994 58.8018C45.7994 59.6028 46.4487 60.2521 47.2497 60.2521Z" fill="#E8E8E8"/>
<path d="M53.208 58.3975H50.1592C50.0873 58.3975 50.0184 58.3689 49.9676 58.3181C49.9167 58.2673 49.8882 58.1983 49.8882 58.1265C49.8882 58.0546 49.9167 57.9857 49.9676 57.9348C50.0184 57.884 50.0873 57.8555 50.1592 57.8555H53.208C53.2799 57.8555 53.3488 57.884 53.3996 57.9348C53.4505 57.9857 53.479 58.0546 53.479 58.1265C53.479 58.1983 53.4505 58.2673 53.3996 58.3181C53.3488 58.3689 53.2799 58.3975 53.208 58.3975Z" fill="#E8E8E8"/>
<path d="M52.4473 59.7451H50.1592C50.0873 59.7451 50.0184 59.7166 49.9676 59.6658C49.9167 59.6149 49.8882 59.546 49.8882 59.4741C49.8882 59.4023 49.9167 59.3333 49.9676 59.2825C50.0184 59.2317 50.0873 59.2031 50.1592 59.2031H52.4473C52.5191 59.2031 52.5881 59.2317 52.6389 59.2825C52.6897 59.3333 52.7183 59.4023 52.7183 59.4741C52.7183 59.546 52.6897 59.6149 52.6389 59.6658C52.5881 59.7166 52.5191 59.7451 52.4473 59.7451Z" fill="#E8E8E8"/>
<path d="M49.6395 49.9856C51.1198 49.9856 52.3198 48.7856 52.3198 47.3053C52.3198 45.825 51.1198 44.625 49.6395 44.625C48.1592 44.625 46.9591 45.825 46.9591 47.3053C46.9591 48.7856 48.1592 49.9856 49.6395 49.9856Z" fill="#0078D4"/>
<path fill-rule="evenodd" clip-rule="evenodd" d="M44.9277 55.1102C44.9277 53.8606 45.4241 52.6621 46.3077 51.7785C47.1914 50.8949 48.3898 50.3984 49.6395 50.3984C50.8891 50.3984 52.0875 50.8949 52.9712 51.7785C53.8548 52.6621 54.3512 53.8606 54.3512 55.1102H44.9277Z" fill="#0078D4"/>
<path d="M37.5856 40.3164H24.3075C23.2029 40.3164 22.3075 41.2118 22.3075 42.3164V61.4197C22.3075 62.5243 23.2029 63.4197 24.3075 63.4197H37.5856C38.6901 63.4197 39.5856 62.5243 39.5856 61.4197V42.3164C39.5856 41.2118 38.6901 40.3164 37.5856 40.3164Z" fill="white"/>
<path d="M28.5567 60.2521C29.3577 60.2521 30.007 59.6028 30.007 58.8018C30.007 58.0009 29.3577 57.3516 28.5567 57.3516C27.7558 57.3516 27.1065 58.0009 27.1065 58.8018C27.1065 59.6028 27.7558 60.2521 28.5567 60.2521Z" fill="#E8E8E8"/>
<path d="M34.5151 58.3975H31.4662C31.3943 58.3975 31.3254 58.3689 31.2746 58.3181C31.2238 58.2673 31.1952 58.1983 31.1952 58.1265C31.1952 58.0546 31.2238 57.9857 31.2746 57.9348C31.3254 57.884 31.3943 57.8555 31.4662 57.8555H34.5151C34.5869 57.8555 34.6559 57.884 34.7067 57.9348C34.7575 57.9857 34.7861 58.0546 34.7861 58.1265C34.7861 58.1983 34.7575 58.2673 34.7067 58.3181C34.6559 58.3689 34.5869 58.3975 34.5151 58.3975Z" fill="#E8E8E8"/>
<path d="M33.7543 59.7451H31.4662C31.3943 59.7451 31.3254 59.7166 31.2746 59.6658C31.2238 59.6149 31.1952 59.546 31.1952 59.4741C31.1952 59.4023 31.2238 59.3333 31.2746 59.2825C31.3254 59.2317 31.3943 59.2031 31.4662 59.2031H33.7543C33.8262 59.2031 33.8951 59.2317 33.9459 59.2825C33.9968 59.3333 34.0253 59.4023 34.0253 59.4741C34.0253 59.546 33.9968 59.6149 33.9459 59.6658C33.8951 59.7166 33.8262 59.7451 33.7543 59.7451Z" fill="#E8E8E8"/>
<path d="M30.9465 49.9856C32.4268 49.9856 33.6268 48.7856 33.6268 47.3053C33.6268 45.825 32.4268 44.625 30.9465 44.625C29.4662 44.625 28.2662 45.825 28.2662 47.3053C28.2662 48.7856 29.4662 49.9856 30.9465 49.9856Z" fill="#E8E8E8"/>
<path fill-rule="evenodd" clip-rule="evenodd" d="M26.2348 55.1102C26.2348 53.8606 26.7312 52.6621 27.6148 51.7785C28.4984 50.8949 29.6969 50.3984 30.9465 50.3984C32.1962 50.3984 33.3946 50.8949 34.2782 51.7785C35.1619 52.6621 35.6583 53.8606 35.6583 55.1102H26.2348Z" fill="#E8E8E8"/>
<path d="M30.9467 40.8164C30.8811 40.8164 30.816 40.8035 30.7554 40.7784C30.6947 40.7533 30.6395 40.7165 30.5931 40.67C30.5467 40.6236 30.5098 40.5685 30.4847 40.5078C30.4596 40.4471 30.4467 40.3821 30.4467 40.3164V39.3164C30.4467 39.1838 30.4994 39.0566 30.5932 38.9629C30.687 38.8691 30.8141 38.8164 30.9467 38.8164C31.0794 38.8164 31.2065 38.8691 31.3003 38.9629C31.3941 39.0566 31.4467 39.1838 31.4467 39.3164V40.3164C31.4468 40.3821 31.4339 40.4471 31.4088 40.5078C31.3837 40.5685 31.3468 40.6236 31.3004 40.67C31.2539 40.7165 31.1988 40.7533 31.1381 40.7784C31.0775 40.8035 31.0124 40.8164 30.9467 40.8164V40.8164Z" fill="white"/>
<path d="M30.9467 37.8038C30.8811 37.8038 30.816 37.7909 30.7554 37.7658C30.6947 37.7407 30.6395 37.7038 30.5931 37.6574C30.5467 37.611 30.5098 37.5558 30.4847 37.4952C30.4596 37.4345 30.4467 37.3694 30.4467 37.3038V35.2911C30.4467 35.1585 30.4994 35.0313 30.5932 34.9375C30.687 34.8438 30.8141 34.7911 30.9467 34.7911C31.0794 34.7911 31.2065 34.8438 31.3003 34.9375C31.3941 35.0313 31.4467 35.1585 31.4467 35.2911V37.3038C31.4468 37.3694 31.4339 37.4345 31.4088 37.4952C31.3836 37.5558 31.3468 37.611 31.3004 37.6574C31.2539 37.7038 31.1988 37.7407 31.1381 37.7658C31.0775 37.7909 31.0124 37.8038 30.9467 37.8038V37.8038ZM68.3325 37.7803C68.2668 37.7804 68.2018 37.7675 68.1411 37.7423C68.0804 37.7172 68.0253 37.6804 67.9788 37.634C67.9324 37.5875 67.8956 37.5324 67.8705 37.4717C67.8454 37.411 67.8324 37.346 67.8325 37.2803V35.2676C67.8325 35.135 67.8852 35.0078 67.9789 34.914C68.0727 34.8203 68.1999 34.7676 68.3325 34.7676C68.4651 34.7676 68.5923 34.8203 68.686 34.914C68.7798 35.0078 68.8325 35.135 68.8325 35.2676V37.2803C68.8325 37.346 68.8196 37.411 68.7945 37.4717C68.7694 37.5324 68.7326 37.5875 68.6861 37.634C68.6397 37.6804 68.5846 37.7172 68.5239 37.7423C68.4632 37.7675 68.3982 37.7804 68.3325 37.7803ZM30.9467 33.7783C30.8811 33.7784 30.816 33.7655 30.7554 33.7403C30.6947 33.7152 30.6395 33.6784 30.5931 33.632C30.5467 33.5855 30.5098 33.5304 30.4847 33.4697C30.4596 33.409 30.4467 33.344 30.4467 33.2783V31.2652C30.4467 31.1326 30.4994 31.0054 30.5932 30.9116C30.687 30.8179 30.8141 30.7652 30.9467 30.7652C31.0794 30.7652 31.2065 30.8179 31.3003 30.9116C31.3941 31.0054 31.4467 31.1326 31.4467 31.2652V33.2784C31.4468 33.3441 31.4339 33.4091 31.4088 33.4698C31.3836 33.5304 31.3468 33.5856 31.3004 33.632C31.2539 33.6785 31.1988 33.7153 31.1381 33.7404C31.0775 33.7655 31.0124 33.7784 30.9467 33.7784V33.7783ZM68.3325 33.7549C68.2668 33.7549 68.2018 33.742 68.1411 33.7169C68.0804 33.6918 68.0253 33.655 67.9788 33.6085C67.9324 33.5621 67.8956 33.507 67.8705 33.4463C67.8454 33.3856 67.8324 33.3206 67.8325 33.2549V31.2422C67.8325 31.1096 67.8852 30.9824 67.9789 30.8886C68.0727 30.7949 68.1999 30.7422 68.3325 30.7422C68.4651 30.7422 68.5923 30.7949 68.686 30.8886C68.7798 30.9824 68.8325 31.1096 68.8325 31.2422V33.2549C68.8325 33.3206 68.8196 33.3856 68.7945 33.4463C68.7694 33.507 68.7326 33.5621 68.6861 33.6086C68.6397 33.655 68.5846 33.6918 68.5239 33.717C68.4632 33.7421 68.3982 33.755 68.3325 33.7549V33.7549ZM31.3637 29.8174C31.2785 29.8174 31.1948 29.7957 31.1203 29.7542C31.0459 29.7128 30.9833 29.653 30.9385 29.5805C30.8937 29.508 30.8682 29.4253 30.8643 29.3402C30.8604 29.2551 30.8784 29.1705 30.9165 29.0942C31.2555 28.4162 31.7592 27.834 32.3813 27.4009C32.4352 27.3634 32.4959 27.337 32.56 27.323C32.6241 27.309 32.6903 27.3078 32.7549 27.3194C32.8194 27.331 32.8811 27.3552 32.9363 27.3906C32.9915 27.4261 33.0392 27.472 33.0766 27.5259C33.1141 27.5798 33.1405 27.6405 33.1545 27.7046C33.1685 27.7686 33.1697 27.8349 33.1581 27.8994C33.1465 27.964 33.1223 28.0256 33.0869 28.0809C33.0514 28.1361 33.0055 28.1838 32.9516 28.2212C32.4673 28.559 32.0752 29.0126 31.811 29.5406C31.7696 29.6238 31.7059 29.6939 31.6268 29.7428C31.5478 29.7917 31.4567 29.8176 31.3637 29.8174V29.8174ZM67.9057 29.7974C67.8132 29.7974 67.7225 29.7718 67.6437 29.7233C67.565 29.6749 67.5012 29.6055 67.4594 29.523C67.1929 28.996 66.798 28.5446 66.311 28.2105C66.2017 28.1354 66.1267 28.0199 66.1026 27.8895C66.0784 27.7591 66.107 27.6245 66.1821 27.5152C66.2572 27.4059 66.3727 27.3309 66.5031 27.3067C66.6335 27.2825 66.7681 27.3112 66.8774 27.3863C67.5025 27.8158 68.0096 28.3955 68.352 29.0723C68.3905 29.1485 68.4088 29.2333 68.4053 29.3186C68.4017 29.4039 68.3763 29.4868 68.3315 29.5595C68.2868 29.6323 68.2242 29.6923 68.1496 29.7339C68.0751 29.7756 67.9911 29.7974 67.9057 29.7974V29.7974ZM34.5317 27.6187C34.4038 27.6184 34.2808 27.569 34.1881 27.4807C34.0955 27.3925 34.0402 27.272 34.0337 27.1442C34.0272 27.0164 34.0699 26.891 34.1531 26.7938C34.2363 26.6965 34.3537 26.6349 34.481 26.6216C34.6363 26.6051 34.7925 26.5971 34.9487 26.5977H36.5454C36.678 26.5977 36.8052 26.6504 36.899 26.7441C36.9927 26.8379 37.0454 26.9651 37.0454 27.0977C37.0454 27.2303 36.9927 27.3575 36.899 27.4512C36.8052 27.545 36.678 27.5977 36.5454 27.5977H34.9467C34.8257 27.5937 34.7045 27.5998 34.5844 27.6158C34.5669 27.6177 34.5493 27.6187 34.5317 27.6187L34.5317 27.6187ZM64.7241 27.6162C64.7078 27.6164 64.6915 27.6156 64.6753 27.6138C64.563 27.603 64.4487 27.5977 64.3325 27.5977H62.7114C62.5788 27.5977 62.4516 27.545 62.3578 27.4512C62.2641 27.3575 62.2114 27.2303 62.2114 27.0977C62.2114 26.9651 62.2641 26.8379 62.3578 26.7441C62.4516 26.6504 62.5788 26.5977 62.7114 26.5977H64.3325C64.4799 26.5977 64.6274 26.605 64.771 26.6187C64.8988 26.6309 65.017 26.6918 65.1012 26.7888C65.1853 26.8858 65.2289 27.0115 65.2229 27.1398C65.2168 27.2681 65.1617 27.3891 65.0688 27.4778C64.9759 27.5665 64.8525 27.6161 64.7241 27.6162H64.7241ZM60.6987 27.5977H58.686C58.5534 27.5977 58.4262 27.545 58.3324 27.4512C58.2387 27.3575 58.186 27.2303 58.186 27.0977C58.186 26.9651 58.2387 26.8379 58.3324 26.7441C58.4262 26.6504 58.5534 26.5977 58.686 26.5977H60.6987C60.8313 26.5977 60.9585 26.6504 61.0522 26.7441C61.146 26.8379 61.1987 26.9651 61.1987 27.0977C61.1987 27.2303 61.146 27.3575 61.0522 27.4512C60.9585 27.545 60.8313 27.5977 60.6987 27.5977H60.6987ZM56.6733 27.5977H54.6606C54.528 27.5977 54.4008 27.545 54.3071 27.4512C54.2133 27.3575 54.1606 27.2303 54.1606 27.0977C54.1606 26.9651 54.2133 26.8379 54.3071 26.7441C54.4008 26.6504 54.528 26.5977 54.6606 26.5977H56.6733C56.8059 26.5977 56.9331 26.6504 57.0269 26.7441C57.1206 26.8379 57.1733 26.9651 57.1733 27.0977C57.1733 27.2303 57.1206 27.3575 57.0269 27.4512C56.9331 27.545 56.8059 27.5977 56.6733 27.5977H56.6733ZM52.647 27.5977H50.6343C50.5017 27.5977 50.3745 27.545 50.2807 27.4512C50.187 27.3575 50.1343 27.2303 50.1343 27.0977C50.1343 26.9651 50.187 26.8379 50.2807 26.7441C50.3745 26.6504 50.5017 26.5977 50.6343 26.5977H52.647C52.7796 26.5977 52.9068 26.6504 53.0005 26.7441C53.0943 26.8379 53.147 26.9651 53.147 27.0977C53.147 27.2303 53.0943 27.3575 53.0005 27.4512C52.9068 27.545 52.7796 27.5977 52.647 27.5977H52.647ZM48.6216 27.5977H46.6089C46.4763 27.5977 46.3491 27.545 46.2553 27.4512C46.1616 27.3575 46.1089 27.2303 46.1089 27.0977C46.1089 26.9651 46.1616 26.8379 46.2553 26.7441C46.3491 26.6504 46.4763 26.5977 46.6089 26.5977H48.6216C48.7542 26.5977 48.8814 26.6504 48.9751 26.7441C49.0689 26.8379 49.1216 26.9651 49.1216 27.0977C49.1216 27.2303 49.0689 27.3575 48.9751 27.4512C48.8814 27.545 48.7542 27.5977 48.6216 27.5977ZM44.5962 27.5977H42.5835C42.4509 27.5977 42.3237 27.545 42.2299 27.4512C42.1362 27.3575 42.0835 27.2303 42.0835 27.0977C42.0835 26.9651 42.1362 26.8379 42.2299 26.7441C42.3237 26.6504 42.4509 26.5977 42.5835 26.5977H44.5962C44.7288 26.5977 44.856 26.6504 44.9497 26.7441C45.0435 26.8379 45.0962 26.9651 45.0962 27.0977C45.0962 27.2303 45.0435 27.3575 44.9497 27.4512C44.856 27.545 44.7288 27.5977 44.5962 27.5977ZM40.5708 27.5977H38.5581C38.4255 27.5977 38.2983 27.545 38.2046 27.4512C38.1108 27.3575 38.0581 27.2303 38.0581 27.0977C38.0581 26.9651 38.1108 26.8379 38.2046 26.7441C38.2983 26.6504 38.4255 26.5977 38.5581 26.5977H40.5708C40.7034 26.5977 40.8306 26.6504 40.9244 26.7441C41.0181 26.8379 41.0708 26.9651 41.0708 27.0977C41.0708 27.2303 41.0181 27.3575 40.9244 27.4512C40.8306 27.545 40.7034 27.5977 40.5708 27.5977Z" fill="white"/>
<path d="M68.3325 40.8164C68.2668 40.8164 68.2018 40.8035 68.1411 40.7784C68.0804 40.7533 68.0253 40.7165 67.9789 40.67C67.9324 40.6236 67.8956 40.5685 67.8705 40.5078C67.8454 40.4471 67.8325 40.3821 67.8325 40.3164V39.3164C67.8325 39.1838 67.8852 39.0566 67.9789 38.9629C68.0727 38.8691 68.1999 38.8164 68.3325 38.8164C68.4651 38.8164 68.5923 38.8691 68.686 38.9629C68.7798 39.0566 68.8325 39.1838 68.8325 39.3164V40.3164C68.8325 40.3821 68.8196 40.4471 68.7945 40.5078C68.7694 40.5685 68.7326 40.6236 68.6861 40.67C68.6397 40.7165 68.5846 40.7533 68.5239 40.7784C68.4632 40.8035 68.3982 40.8164 68.3325 40.8164V40.8164Z" fill="white"/>
<path d="M49.6405 37.0479C55.1355 37.0479 59.5902 32.5932 59.5902 27.0982C59.5902 21.6031 55.1355 17.1484 49.6405 17.1484C44.1454 17.1484 39.6907 21.6031 39.6907 27.0982C39.6907 32.5932 44.1454 37.0479 49.6405 37.0479Z" fill="white"/>
<path fill-rule="evenodd" clip-rule="evenodd" d="M51.6596 27.098C51.6596 27.4973 51.5412 27.8877 51.3193 28.2197C51.0974 28.5518 50.7821 28.8106 50.4131 28.9634C50.0442 29.1162 49.6382 29.1562 49.2465 29.0783C48.8548 29.0004 48.4951 28.8081 48.2127 28.5257C47.9303 28.2433 47.738 27.8835 47.6601 27.4919C47.5822 27.1002 47.6222 26.6942 47.775 26.3253C47.9278 25.9563 48.1866 25.641 48.5187 25.4191C48.8507 25.1972 49.2411 25.0788 49.6404 25.0788C50.1758 25.0795 50.689 25.2924 51.0675 25.6709C51.446 26.0494 51.6589 26.5626 51.6596 27.098V27.098ZM55.3912 26.0105L54.4523 25.8017C54.3551 25.7663 54.2758 25.694 54.2316 25.6006C54.2285 25.5903 54.2247 25.5801 54.2205 25.5703L53.9614 24.9407L53.9464 24.9084C53.9113 24.8119 53.916 24.7053 53.9594 24.6122L54.4759 23.8005C54.5815 23.6248 54.6266 23.4192 54.6043 23.2154C54.5819 23.0116 54.4933 22.8207 54.3521 22.672L54.0664 22.3863C53.9164 22.2475 53.7257 22.1606 53.5226 22.1383C53.3194 22.116 53.1144 22.1595 52.9379 22.2625L52.126 22.7788C52.0743 22.8047 52.0168 22.8172 51.959 22.8152C51.9148 22.8168 51.8708 22.8089 51.83 22.792C51.8195 22.7863 51.8086 22.7813 51.7975 22.777L51.1681 22.5177C51.1582 22.5136 51.1481 22.51 51.1378 22.5068C51.0444 22.4625 50.9721 22.3832 50.9367 22.286L50.7282 21.3473C50.6786 21.1482 50.5651 20.971 50.4051 20.8426C50.2451 20.7143 50.0474 20.6419 49.8424 20.6367H49.4385C49.2335 20.6419 49.0359 20.7142 48.8759 20.8425C48.7159 20.9708 48.6025 21.1481 48.5529 21.3471L48.3442 22.2864C48.3086 22.3834 48.2364 22.4625 48.1431 22.5068L48.1126 22.5177L47.4832 22.777C47.4721 22.7814 47.4612 22.7864 47.4507 22.792C47.4099 22.8089 47.3659 22.8168 47.3217 22.8152C47.2638 22.8171 47.2064 22.8046 47.1545 22.7788L46.343 22.2627C46.1665 22.1598 45.9615 22.1163 45.7584 22.1385C45.5552 22.1608 45.3646 22.2477 45.2145 22.3865L44.9288 22.672C44.7875 22.8207 44.6989 23.0116 44.6766 23.2155C44.6542 23.4194 44.6993 23.6249 44.805 23.8007L45.3215 24.6122C45.3647 24.7053 45.3694 24.8117 45.3344 24.9082C45.329 24.9189 45.3237 24.9298 45.3193 24.9407L45.0603 25.5703L45.0491 25.6006C45.0049 25.6941 44.9256 25.7664 44.8285 25.8019L43.8898 26.0102C43.6907 26.0598 43.5134 26.1733 43.3851 26.3333C43.2567 26.4933 43.1844 26.691 43.1792 26.896V27.2999C43.1844 27.5049 43.2567 27.7025 43.385 27.8625C43.5133 28.0224 43.6906 28.1359 43.8896 28.1855L44.8287 28.394C44.9258 28.4296 45.005 28.5019 45.0491 28.5954L45.0603 28.6256L45.3193 29.2552C45.3237 29.2661 45.3288 29.2768 45.3344 29.2875C45.3694 29.3841 45.3647 29.4906 45.3213 29.5837L44.805 30.3952C44.6993 30.571 44.6541 30.7766 44.6765 30.9804C44.6988 31.1843 44.7875 31.3753 44.9288 31.5239L45.2145 31.8096C45.3646 31.9483 45.5553 32.0352 45.7585 32.0575C45.9616 32.0798 46.1666 32.0363 46.3432 31.9334L47.1543 31.4171C47.2062 31.3913 47.2637 31.3788 47.3217 31.3807C47.3659 31.379 47.4099 31.3869 47.4507 31.404C47.4614 31.4092 47.4721 31.4145 47.4832 31.4189L48.1126 31.6782L48.1431 31.6891C48.2364 31.7334 48.3087 31.8127 48.3442 31.9098L48.5529 32.8487C48.6024 33.0477 48.7159 33.225 48.8758 33.3534C49.0358 33.4817 49.2335 33.554 49.4385 33.5592H49.8424C50.0474 33.554 50.245 33.4816 50.405 33.3533C50.565 33.2249 50.6784 33.0477 50.728 32.8487L50.9367 31.9098C50.9722 31.8126 51.0444 31.7334 51.1378 31.6891L51.1681 31.6782L51.7975 31.4189C51.8086 31.4145 51.8195 31.4092 51.83 31.404C51.8707 31.387 51.9147 31.379 51.9588 31.3807C52.0167 31.3787 52.0742 31.3912 52.126 31.4171L52.9377 31.9332C53.1143 32.0362 53.3192 32.0798 53.5224 32.0575C53.7256 32.0353 53.9163 31.9484 54.0664 31.8096L54.3519 31.5241C54.4932 31.3754 54.5819 31.1845 54.6043 30.9806C54.6267 30.7767 54.5816 30.571 54.4759 30.3952L53.9594 29.5837C53.9379 29.5376 53.9257 29.4878 53.9235 29.437C53.9213 29.3862 53.9291 29.3355 53.9465 29.2877L53.9614 29.2554L54.2205 28.6256C54.2248 28.6158 54.2285 28.6057 54.2316 28.5954C54.2759 28.5018 54.3553 28.4295 54.4525 28.394L55.391 28.1855C55.5901 28.136 55.7674 28.0226 55.8958 27.8626C56.0242 27.7026 56.0965 27.5049 56.1017 27.2999V26.896C56.0966 26.691 56.0242 26.4933 55.8959 26.3334C55.7675 26.1734 55.5902 26.0599 55.3912 26.0105V26.0105Z" fill="#0078D4"/>
<path d="M49.6395 40.3165V35.5586" stroke="white" stroke-linecap="round" stroke-linejoin="round"/>
</g>
<defs>
<linearGradient id="paint0_linear" x1="47.8698" y1="-15.155" x2="51.8525" y2="130.613" gradientUnits="userSpaceOnUse">
<stop stop-color="#00ABDE"/>
<stop offset="1" stop-color="#007ED8"/>
</linearGradient>
<clipPath id="clip0">
<rect width="99.2799" height="99.28" fill="white"/>
</clipPath>
</defs>
</svg>
