<svg width="100" height="100" viewBox="0 0 100 100" fill="none" xmlns="https://www.w3.org/2000/svg">
<g clip-path="url(#clip0)">
<path d="M49.6401 96.4481C40.382 96.4481 31.3317 93.7028 23.6339 88.5592C15.936 83.4157 9.93624 76.105 6.3933 67.5516C2.85036 58.9981 1.92337 49.5862 3.72954 40.506C5.53571 31.4257 9.99394 23.085 16.5404 16.5385C23.0869 9.99198 31.4277 5.53376 40.5079 3.72759C49.5882 1.92141 59.0001 2.84841 67.5535 6.39135C76.1069 9.93428 83.4176 15.934 88.5612 23.6319C93.7047 31.3298 96.4501 40.38 96.4501 49.6381C96.4505 55.7854 95.24 61.8726 92.8878 67.5521C90.5355 73.2315 87.0875 78.392 82.7407 82.7388C78.3939 87.0856 73.2335 90.5335 67.554 92.8858C61.8746 95.2381 55.7874 96.4486 49.6401 96.4481V96.4481Z" fill="url(#paint0_linear)"/>
<path fill-rule="evenodd" clip-rule="evenodd" d="M95.54 49.64C95.54 58.7182 92.848 67.5925 87.8045 75.1407C82.7609 82.6889 75.5923 88.572 67.2052 92.0461C58.818 95.5201 49.5891 96.4291 40.6854 94.658C31.7816 92.887 23.603 88.5154 17.1838 82.0962C10.7646 75.677 6.39302 67.4984 4.62196 58.5946C2.85089 49.6909 3.75987 40.462 7.23393 32.0748C10.708 23.6877 16.5911 16.5191 24.1393 11.4755C31.6875 6.43199 40.5618 3.74 49.64 3.74C55.6677 3.73998 61.6363 4.9272 67.2052 7.23388C72.774 9.54057 77.834 12.9215 82.0963 17.1837C86.3585 21.446 89.7394 26.5059 92.0461 32.0748C94.3528 37.6437 95.54 43.6123 95.54 49.64V49.64ZM49.64 3.62732e-07C59.4579 3.62732e-07 69.0553 2.91134 77.2185 8.36585C85.3818 13.8204 91.7442 21.5731 95.5014 30.6436C99.2585 39.7141 100.242 49.6951 98.3262 59.3243C96.4108 68.9535 91.6831 77.7985 84.7408 84.7408C77.7985 91.6831 68.9535 96.4108 59.3243 98.3262C49.6951 100.242 39.7141 99.2585 30.6436 95.5014C21.5731 91.7442 13.8204 85.3818 8.36585 77.2185C2.91134 69.0553 3.62732e-07 59.4579 3.62732e-07 49.64C-0.000787738 43.121 1.28265 36.6656 3.77702 30.6427C6.27138 24.6197 9.9278 19.1471 14.5375 14.5375C19.1471 9.9278 24.6197 6.27138 30.6427 3.77702C36.6656 1.28265 43.121 -0.000787738 49.64 3.62732e-07V3.62732e-07Z" fill="#F2F1F0"/>
<path fill-rule="evenodd" clip-rule="evenodd" d="M92.7296 49.6386C92.7296 58.161 90.2024 66.492 85.4676 73.5781C80.7328 80.6643 74.0031 86.1872 66.1294 89.4486C58.2557 92.71 49.5918 93.5633 41.2331 91.9007C32.8745 90.238 25.1966 86.1341 19.1703 80.1079C13.1441 74.0816 9.04017 66.4037 7.37753 58.0451C5.7149 49.6864 6.56822 41.0225 9.8296 33.1488C13.091 25.2751 18.6139 18.5454 25.7 13.8106C32.7862 9.07581 41.1172 6.54862 49.6396 6.54862C55.2983 6.54828 60.9017 7.6626 66.1298 9.82795C71.3579 11.9933 76.1082 15.1673 80.1096 19.1686C84.1109 23.17 87.2849 27.9203 89.4502 33.1484C91.6156 38.3765 92.7299 43.9799 92.7296 49.6386V49.6386ZM49.6396 2.80862C58.9017 2.80862 67.9558 5.55515 75.6569 10.7009C83.3581 15.8466 89.3604 23.1605 92.9049 31.7176C96.4493 40.2746 97.3767 49.6906 95.5697 58.7747C93.7628 67.8588 89.3027 76.2031 82.7534 82.7524C76.2041 89.3017 67.8598 93.7619 58.7757 95.5688C49.6915 97.3757 40.2756 96.4484 31.7185 92.9039C23.1614 89.3594 15.8476 83.3571 10.7018 75.656C5.5561 67.9548 2.80957 58.9007 2.80957 49.6386C2.81076 37.2189 7.745 25.3082 16.5271 16.5261C25.3091 7.74403 37.2198 2.80979 49.6396 2.80859V2.80862Z" fill="#0078D4"/>
<path opacity="0.2" d="M24.5622 76.5334H75.818C76.0873 76.5326 76.3453 76.4253 76.5358 76.2349C76.7262 76.0445 76.8335 75.7864 76.8343 75.5171V35.5H23.5459V75.5171C23.5467 75.7864 23.654 76.0445 23.8444 76.2349C24.0348 76.4253 24.2929 76.5326 24.5622 76.5334Z" fill="#003067"/>
<path d="M24.5622 74.4397H75.818C76.0873 74.4389 76.3453 74.3316 76.5358 74.1412C76.7262 73.9508 76.8335 73.6927 76.8343 73.4234V33.4062H23.5459V73.4234C23.5467 73.6927 23.654 73.9507 23.8444 74.1412C24.0348 74.3316 24.2929 74.4389 24.5622 74.4397V74.4397Z" fill="#F2F2F2"/>
<path d="M23.5459 37.8371H76.8343V33.0604C76.8346 32.958 76.8146 32.8566 76.7756 32.7619C76.7365 32.6673 76.6791 32.5813 76.6067 32.5089C76.5343 32.4365 76.4483 32.3791 76.3537 32.34C76.259 32.301 76.1576 32.281 76.0552 32.2813H24.3251C24.2227 32.281 24.1212 32.301 24.0266 32.34C23.9319 32.3791 23.8459 32.4365 23.7735 32.5089C23.7011 32.5813 23.6437 32.6673 23.6047 32.7619C23.5656 32.8566 23.5456 32.958 23.5459 33.0604L23.5459 37.8371Z" fill="#092E4C"/>
<path d="M27.6452 36.522C27.9123 36.5212 28.1733 36.4411 28.3949 36.292C28.6166 36.1429 28.7891 35.9313 28.8906 35.6842C28.992 35.437 29.0179 35.1653 28.965 34.9035C28.912 34.6416 28.7826 34.4013 28.5931 34.213C28.4036 34.0246 28.1625 33.8968 27.9003 33.8454C27.6381 33.7941 27.3666 33.8218 27.1201 33.9248C26.8736 34.0278 26.6631 34.2016 26.5154 34.4242C26.3677 34.6468 26.2892 34.9082 26.2901 35.1754C26.2886 35.3534 26.3228 35.5298 26.3904 35.6944C26.4581 35.859 26.558 36.0084 26.6843 36.1338C26.8105 36.2593 26.9605 36.3582 27.1255 36.4249C27.2906 36.4916 27.4672 36.5246 27.6452 36.522V36.522Z" fill="#50E6FF"/>
<path d="M72.1111 41.2734H28.2595C27.6818 41.2734 27.2134 41.7418 27.2134 42.3196V69.5796C27.2134 70.1574 27.6818 70.6258 28.2595 70.6258H72.1111C72.6888 70.6258 73.1572 70.1574 73.1572 69.5796V42.3196C73.1572 41.7418 72.6888 41.2734 72.1111 41.2734Z" fill="#E8E8E8"/>
<path fill-rule="evenodd" clip-rule="evenodd" d="M56.419 53.1057H46.7064V50.4309C46.7064 50.0258 46.7862 49.6247 46.9412 49.2505C47.0962 48.8763 47.3234 48.5363 47.6098 48.2499C47.8962 47.9635 48.2362 47.7363 48.6104 47.5813C48.9846 47.4263 49.3857 47.3465 49.7907 47.3465C50.1958 47.3465 50.5969 47.4263 50.9711 47.5813C51.3453 47.7363 51.6853 47.9635 51.9717 48.2499C52.2581 48.5363 52.4853 48.8763 52.6403 49.2505C52.7953 49.6247 52.8751 50.0258 52.8751 50.4309V51.0216H55.0965V50.4309C55.0965 49.0237 54.5375 47.6741 53.5425 46.679C52.5474 45.684 51.1979 45.125 49.7907 45.125C48.3835 45.125 47.0339 45.684 46.0389 46.679C45.0438 47.6741 44.4848 49.0237 44.4848 50.4309V53.1057H43.1622C43.0225 53.1056 42.8841 53.1332 42.755 53.1866C42.6259 53.2401 42.5086 53.3185 42.4098 53.4173C42.311 53.5161 42.2326 53.6334 42.1791 53.7625C42.1256 53.8916 42.0981 54.03 42.0981 54.1697V64.5605C42.0981 64.7002 42.1256 64.8386 42.1791 64.9677C42.2326 65.0968 42.311 65.2141 42.4098 65.313C42.5086 65.4118 42.6259 65.4902 42.755 65.5436C42.8841 65.5971 43.0225 65.6246 43.1622 65.6246H56.419C56.5588 65.6246 56.6972 65.5971 56.8263 65.5436C56.9554 65.4901 57.0727 65.4118 57.1715 65.3129C57.2703 65.2141 57.3486 65.0968 57.4021 64.9677C57.4556 64.8386 57.4831 64.7002 57.483 64.5605V54.1697C57.4831 54.03 57.4555 53.8916 57.4021 53.7625C57.3486 53.6334 57.2702 53.5161 57.1714 53.4173C57.0726 53.3185 56.9553 53.2401 56.8262 53.1867C56.6971 53.1332 56.5588 53.1057 56.419 53.1057V53.1057ZM50.2723 60.3599V61.7631C50.2723 61.8909 50.2216 62.0134 50.1312 62.1037C50.0409 62.1941 49.9184 62.2448 49.7906 62.2448C49.6629 62.2448 49.5404 62.1941 49.45 62.1037C49.3597 62.0134 49.3089 61.8909 49.3089 61.7631V60.3599C48.843 60.2424 48.436 59.9586 48.1647 59.562C47.8933 59.1655 47.7762 58.6834 47.8354 58.2065C47.8946 57.7296 48.1261 57.2908 48.4862 56.9727C48.8463 56.6545 49.3103 56.4789 49.7909 56.479C50.2714 56.479 50.7354 56.6546 51.0955 56.9728C51.4556 57.291 51.6869 57.7299 51.7461 58.2068C51.8053 58.6836 51.6881 59.1657 51.4167 59.5622C51.1453 59.9588 50.7383 60.2425 50.2723 60.3599Z" fill="white"/>
<path opacity="0.2" d="M35.5636 32.2812C35.5168 32.7483 35.4917 33.2217 35.4917 33.7009C35.4917 37.4533 36.9823 41.052 39.6357 43.7054C42.289 46.3587 45.8877 47.8494 49.6401 47.8494C53.3925 47.8494 56.9913 46.3587 59.6446 43.7054C62.2979 41.052 63.7886 37.4533 63.7886 33.7009C63.7886 33.2217 63.7634 32.7483 63.7167 32.2812H35.5636Z" fill="#767676"/>
<path d="M49.6401 45.8476C56.3495 45.8476 61.7885 40.4086 61.7885 33.6992C61.7885 26.9898 56.3495 21.5508 49.6401 21.5508C42.9307 21.5508 37.4917 26.9898 37.4917 33.6992C37.4917 40.4086 42.9307 45.8476 49.6401 45.8476Z" fill="white"/>
<path d="M49.6399 24.9219C47.9036 24.9219 46.2064 25.4367 44.7628 26.4013C43.3191 27.3659 42.194 28.7369 41.5296 30.341C40.8651 31.9451 40.6913 33.7101 41.03 35.413C41.3687 37.1159 42.2048 38.68 43.4325 39.9077C44.6602 41.1354 46.2244 41.9715 47.9272 42.3102C49.6301 42.649 51.3952 42.4751 52.9992 41.8107C54.6033 41.1463 55.9743 40.0211 56.9389 38.5775C57.9035 37.1339 58.4184 35.4366 58.4184 33.7004C58.4184 31.3722 57.4935 29.1393 55.8472 27.493C54.2009 25.8468 51.9681 24.9219 49.6399 24.9219V24.9219ZM41.8482 34.0954H44.647C44.6925 34.0955 44.7362 34.1133 44.7688 34.145C44.8014 34.1768 44.8204 34.2199 44.8218 34.2654C44.8538 35.2588 44.9853 36.2465 45.2142 37.2137C45.2206 37.2395 45.221 37.2665 45.2155 37.2925C45.2099 37.3185 45.1985 37.3429 45.1821 37.3639C45.1657 37.3848 45.1448 37.4018 45.1209 37.4135C45.097 37.4251 45.0707 37.4312 45.0441 37.4312H42.6852C42.6529 37.4313 42.6211 37.4225 42.5935 37.4057C42.5658 37.389 42.5433 37.3649 42.5284 37.3362C42.0403 36.3862 41.7492 35.3474 41.6726 34.2821C41.671 34.2582 41.6744 34.2341 41.6826 34.2115C41.6907 34.1889 41.7034 34.1682 41.7199 34.1507C41.7363 34.1332 41.7562 34.1192 41.7783 34.1097C41.8004 34.1002 41.8242 34.0953 41.8482 34.0954ZM50.0349 29.0039V25.9829C50.035 25.9549 50.0418 25.9273 50.0546 25.9025C50.0675 25.8776 50.0861 25.8562 50.1088 25.8399C50.1316 25.8237 50.158 25.8131 50.1856 25.809C50.2133 25.8049 50.2416 25.8075 50.2681 25.8165C51.196 26.2202 51.9418 26.953 52.3616 27.8738C52.5494 28.2176 52.7141 28.5734 52.8548 28.939C52.8652 28.9657 52.869 28.9945 52.8658 29.023C52.8626 29.0514 52.8525 29.0787 52.8364 29.1024C52.8203 29.126 52.7987 29.1454 52.7734 29.1588C52.7481 29.1723 52.7199 29.1793 52.6912 29.1794H50.2105C50.1639 29.1794 50.1192 29.1609 50.0863 29.128C50.0534 29.0951 50.0349 29.0504 50.0349 29.0039V29.0039ZM53.2298 30.0995C53.4864 31.0883 53.633 32.1024 53.6671 33.1234C53.6678 33.147 53.6639 33.1705 53.6554 33.1926C53.6469 33.2146 53.634 33.2347 53.6176 33.2517C53.6012 33.2687 53.5815 33.2822 53.5597 33.2914C53.538 33.3006 53.5146 33.3054 53.4909 33.3054H50.2105C50.1874 33.3054 50.1646 33.3008 50.1433 33.292C50.122 33.2832 50.1026 33.2703 50.0863 33.254C50.07 33.2377 50.0571 33.2183 50.0483 33.197C50.0394 33.1757 50.0349 33.1529 50.0349 33.1298V30.1451C50.0349 30.122 50.0394 30.0992 50.0483 30.0779C50.0571 30.0566 50.07 30.0372 50.0863 30.0209C50.1026 30.0046 50.122 29.9917 50.1433 29.9829C50.1646 29.974 50.1874 29.9695 50.2105 29.9695H53.0595C53.0982 29.9694 53.1359 29.9821 53.1667 30.0056C53.1975 30.0291 53.2197 30.0621 53.2298 30.0995V30.0995ZM49.2448 25.9829V29.0039C49.2448 29.0505 49.2263 29.0951 49.1934 29.128C49.1605 29.161 49.1158 29.1795 49.0692 29.1795H46.5885C46.5598 29.1794 46.5316 29.1723 46.5063 29.1589C46.4811 29.1455 46.4594 29.1261 46.4433 29.1024C46.4272 29.0787 46.4171 29.0515 46.4139 29.023C46.4107 28.9946 46.4145 28.9658 46.4249 28.9391C46.5656 28.5735 46.7304 28.2176 46.9181 27.8738C47.3379 26.9531 48.0837 26.2203 49.0116 25.8166C49.0381 25.8076 49.0664 25.805 49.0941 25.8091C49.1217 25.8131 49.1481 25.8237 49.1708 25.84C49.1936 25.8562 49.2122 25.8777 49.2251 25.9025C49.2379 25.9274 49.2447 25.9549 49.2448 25.9829H49.2448ZM49.2448 30.1451V33.1298C49.2448 33.1763 49.2263 33.221 49.1934 33.2539C49.1605 33.2868 49.1158 33.3053 49.0692 33.3053H45.7888C45.7651 33.3053 45.7417 33.3006 45.72 33.2914C45.6982 33.2822 45.6786 33.2687 45.6621 33.2517C45.6457 33.2347 45.6328 33.2146 45.6243 33.1925C45.6158 33.1705 45.6119 33.147 45.6126 33.1233C45.6467 32.1024 45.7933 31.0883 46.0499 30.0995C46.06 30.0621 46.0822 30.029 46.113 30.0055C46.1438 29.982 46.1815 29.9693 46.2203 29.9694H49.0693C49.0923 29.9695 49.1152 29.974 49.1365 29.9828C49.1578 29.9917 49.1771 30.0046 49.1934 30.0209C49.2097 30.0372 49.2227 30.0566 49.2315 30.0779C49.2403 30.0992 49.2448 30.122 49.2448 30.1451H49.2448ZM44.647 33.3053H41.8482C41.8242 33.3054 41.8004 33.3005 41.7783 33.291C41.7562 33.2815 41.7363 33.2676 41.7199 33.2501C41.7034 33.2326 41.6907 33.2119 41.6825 33.1893C41.6744 33.1666 41.671 33.1426 41.6725 33.1186C41.7492 32.0533 42.0403 31.0145 42.5284 30.0645C42.5433 30.0358 42.5658 30.0118 42.5935 29.995C42.6212 29.9783 42.6529 29.9694 42.6852 29.9695H45.0441C45.0707 29.9695 45.097 29.9756 45.1209 29.9873C45.1448 29.999 45.1657 30.0159 45.1821 30.0369C45.1985 30.0578 45.2099 30.0822 45.2155 30.1083C45.2211 30.1343 45.2206 30.1612 45.2143 30.187C44.9853 31.1542 44.8538 32.1419 44.8218 33.1354C44.8204 33.1808 44.8014 33.224 44.7688 33.2557C44.7362 33.2874 44.6925 33.3052 44.647 33.3053H44.647ZM45.7888 34.0954H49.0692C49.1158 34.0954 49.1605 34.1139 49.1934 34.1468C49.2263 34.1798 49.2448 34.2244 49.2448 34.271V37.2557C49.2448 37.3022 49.2263 37.3469 49.1934 37.3798C49.1605 37.4127 49.1158 37.4312 49.0692 37.4312H46.2202C46.1815 37.4314 46.1438 37.4187 46.113 37.3952C46.0822 37.3717 46.06 37.3387 46.0499 37.3012C45.7933 36.3125 45.6466 35.2984 45.6126 34.2774C45.6118 34.2538 45.6158 34.2302 45.6243 34.2082C45.6328 34.1861 45.6457 34.166 45.6621 34.1491C45.6785 34.1321 45.6982 34.1186 45.72 34.1094C45.7417 34.1001 45.7651 34.0954 45.7888 34.0954H45.7888ZM49.2448 38.3969V41.4179C49.2447 41.4459 49.2379 41.4734 49.2251 41.4983C49.2122 41.5231 49.1936 41.5446 49.1708 41.5608C49.1481 41.5771 49.1217 41.5876 49.0941 41.5917C49.0664 41.5958 49.0381 41.5932 49.0116 41.5842C48.0837 41.1805 47.3379 40.4477 46.9181 39.527C46.7303 39.1832 46.5656 38.8273 46.4249 38.4617C46.4144 38.435 46.4107 38.4062 46.4139 38.3777C46.4171 38.3493 46.4272 38.322 46.4433 38.2984C46.4594 38.2747 46.481 38.2553 46.5063 38.2419C46.5316 38.2285 46.5598 38.2214 46.5885 38.2213H49.0693C49.1158 38.2213 49.1605 38.2398 49.1934 38.2727C49.2263 38.3057 49.2448 38.3503 49.2448 38.3969H49.2448ZM50.0349 41.4179V38.3969C50.0349 38.3503 50.0534 38.3057 50.0863 38.2727C50.1192 38.2398 50.1639 38.2213 50.2105 38.2213H52.6912C52.7199 38.2214 52.7481 38.2284 52.7734 38.2419C52.7987 38.2553 52.8203 38.2747 52.8364 38.2984C52.8525 38.322 52.8626 38.3493 52.8658 38.3777C52.869 38.4062 52.8653 38.435 52.8548 38.4617C52.7141 38.8273 52.5494 39.1832 52.3616 39.527C51.9418 40.4477 51.196 41.1806 50.2681 41.5842C50.2416 41.5932 50.2133 41.5958 50.1856 41.5917C50.1579 41.5877 50.1316 41.5771 50.1089 41.5608C50.0861 41.5446 50.0675 41.5231 50.0546 41.4983C50.0418 41.4734 50.035 41.4459 50.0349 41.4179L50.0349 41.4179ZM50.0349 37.2557V34.271C50.0349 34.2479 50.0394 34.2251 50.0482 34.2038C50.0571 34.1825 50.07 34.1632 50.0863 34.1469C50.1026 34.1306 50.122 34.1176 50.1433 34.1088C50.1646 34.1 50.1874 34.0954 50.2105 34.0954H53.4909C53.5146 34.0954 53.538 34.1002 53.5597 34.1094C53.5815 34.1186 53.6012 34.1321 53.6176 34.1491C53.634 34.1661 53.6469 34.1862 53.6554 34.2082C53.6639 34.2303 53.6678 34.2538 53.6671 34.2774C53.633 35.2984 53.4864 36.3125 53.2298 37.3012C53.2197 37.3386 53.1975 37.3716 53.1667 37.3952C53.1359 37.4187 53.0982 37.4313 53.0594 37.4312H50.2104C50.1639 37.4312 50.1192 37.4127 50.0863 37.3798C50.0534 37.3469 50.0349 37.3022 50.0349 37.2557L50.0349 37.2557ZM54.6328 34.0954H57.4316C57.4556 34.0953 57.4794 34.1002 57.5015 34.1097C57.5235 34.1192 57.5434 34.1331 57.5599 34.1506C57.5764 34.1682 57.5891 34.1889 57.5972 34.2115C57.6053 34.2341 57.6087 34.2581 57.6072 34.2821C57.5305 35.3474 57.2394 36.3862 56.7513 37.3362C56.7364 37.3649 56.7139 37.389 56.6863 37.4057C56.6586 37.4225 56.6269 37.4313 56.5945 37.4312H54.2356C54.209 37.4312 54.1827 37.4251 54.1588 37.4134C54.1349 37.4018 54.114 37.3848 54.0976 37.3639C54.0812 37.3429 54.0698 37.3185 54.0642 37.2925C54.0587 37.2665 54.0591 37.2395 54.0655 37.2137C54.2944 36.2465 54.4259 35.2588 54.4579 34.2654C54.4593 34.2199 54.4783 34.1767 54.5109 34.145C54.5436 34.1133 54.5873 34.0955 54.6328 34.0954V34.0954ZM54.458 33.1353C54.426 32.1419 54.2945 31.1542 54.0655 30.187C54.0591 30.1612 54.0587 30.1343 54.0643 30.1082C54.0698 30.0822 54.0812 30.0578 54.0976 30.0369C54.114 30.0159 54.135 29.999 54.1589 29.9873C54.1828 29.9756 54.209 29.9695 54.2356 29.9695H56.5945C56.6269 29.9694 56.6586 29.9782 56.6863 29.995C56.7139 30.0117 56.7364 30.0358 56.7513 30.0645C57.2394 31.0145 57.5305 32.0533 57.6072 33.1186C57.6087 33.1426 57.6053 33.1666 57.5972 33.1892C57.5891 33.2119 57.5764 33.2326 57.5599 33.2501C57.5434 33.2676 57.5235 33.2815 57.5015 33.291C57.4794 33.3005 57.4556 33.3054 57.4316 33.3053H54.6328C54.5873 33.3052 54.5436 33.2874 54.5109 33.2557C54.4783 33.224 54.4593 33.1808 54.4579 33.1353H54.458ZM55.8782 29.1794H53.9047C53.868 29.1793 53.8324 29.1677 53.8027 29.1464C53.773 29.125 53.7507 29.0948 53.7389 29.0602C53.4475 28.1701 53.0165 27.332 52.4621 26.5772C52.4386 26.5468 52.4257 26.5095 52.4255 26.4711C52.4252 26.4327 52.4376 26.3952 52.4607 26.3645C52.4839 26.3339 52.5164 26.3116 52.5534 26.3013C52.5904 26.2909 52.6298 26.293 52.6655 26.3073C53.9951 26.855 55.1533 27.7497 56.0191 28.8979C56.0387 28.9241 56.0506 28.9552 56.0535 28.9877C56.0564 29.0203 56.0502 29.053 56.0356 29.0822C56.0209 29.1114 55.9985 29.136 55.9707 29.1531C55.9429 29.1703 55.9108 29.1794 55.8782 29.1794H55.8782ZM46.8177 26.5772C46.2632 27.332 45.8323 28.1701 45.5408 29.0602C45.5291 29.0949 45.5068 29.125 45.4771 29.1464C45.4474 29.1678 45.4117 29.1793 45.3751 29.1795H43.4015C43.3689 29.1794 43.3369 29.1703 43.3091 29.1532C43.2813 29.136 43.2588 29.1114 43.2442 29.0822C43.2296 29.053 43.2233 29.0203 43.2262 28.9878C43.2291 28.9552 43.241 28.9241 43.2606 28.898C44.1264 27.7498 45.2846 26.8551 46.6142 26.3073C46.6499 26.2931 46.6893 26.291 46.7263 26.3013C46.7633 26.3117 46.7958 26.3339 46.8189 26.3646C46.8421 26.3953 46.8545 26.4327 46.8542 26.4711C46.854 26.5095 46.8411 26.5468 46.8176 26.5772H46.8177ZM43.4015 38.2213H45.375C45.4116 38.2214 45.4473 38.233 45.477 38.2544C45.5067 38.2758 45.529 38.3059 45.5408 38.3406C45.8322 39.2306 46.2632 40.0688 46.8176 40.8236C46.8411 40.854 46.854 40.8912 46.8542 40.9297C46.8545 40.9681 46.8421 41.0055 46.819 41.0362C46.7958 41.0669 46.7633 41.0891 46.7263 41.0994C46.6893 41.1098 46.6499 41.1077 46.6142 41.0935C45.2846 40.5457 44.1264 39.651 43.2606 38.5028C43.241 38.4766 43.2291 38.4455 43.2262 38.413C43.2233 38.3804 43.2295 38.3478 43.2442 38.3185C43.2588 38.2893 43.2813 38.2648 43.309 38.2476C43.3368 38.2304 43.3688 38.2213 43.4015 38.2213V38.2213ZM52.4621 40.8236C53.0165 40.0688 53.4475 39.2307 53.739 38.3406C53.7507 38.3059 53.773 38.2758 53.8027 38.2544C53.8324 38.233 53.8681 38.2215 53.9047 38.2213H55.8782C55.9109 38.2214 55.9429 38.2305 55.9707 38.2476C55.9985 38.2648 56.0209 38.2894 56.0356 38.3186C56.0502 38.3478 56.0564 38.3805 56.0535 38.413C56.0506 38.4456 56.0387 38.4767 56.0191 38.5028C55.1533 39.6511 53.9951 40.5458 52.6655 41.0935C52.6298 41.1078 52.5904 41.1099 52.5534 41.0995C52.5164 41.0892 52.4838 41.0669 52.4607 41.0362C52.4376 41.0056 52.4252 40.9681 52.4255 40.9297C52.4257 40.8913 52.4386 40.854 52.4621 40.8236V40.8236Z" fill="url(#paint1_linear)"/>
</g>
<defs>
<linearGradient id="paint0_linear" x1="47.8697" y1="-15.155" x2="51.8525" y2="130.613" gradientUnits="userSpaceOnUse">
<stop stop-color="#00ABDE"/>
<stop offset="1" stop-color="#007ED8"/>
</linearGradient>
<linearGradient id="paint1_linear" x1="54.0299" y1="41.3041" x2="45.2499" y2="26.0967" gradientUnits="userSpaceOnUse">
<stop stop-color="#0078D4"/>
<stop offset="1" stop-color="#00A4E8"/>
</linearGradient>
<clipPath id="clip0">
<rect width="99.2799" height="99.28" fill="white"/>
</clipPath>
</defs>
</svg>
