<svg width="103" height="103" viewBox="0 0 103 103" fill="none" xmlns="http://www.w3.org/2000/svg">
<path d="M51.0378 98.0526C25.1878 98.0526 4.22778 77.1026 4.22778 51.2426C4.22778 25.3826 25.1878 4.43262 51.0378 4.43262C76.8878 4.43262 97.8478 25.3926 97.8478 51.2426C97.8478 77.0926 76.8878 98.0526 51.0378 98.0526Z" fill="url(#paint0_linear)"/>
<path fill-rule="evenodd" clip-rule="evenodd" d="M96.938 51.2425C96.938 76.5925 76.3879 97.1425 51.0379 97.1425C25.6879 97.1425 5.13795 76.5925 5.13795 51.2425C5.13795 25.8925 25.6879 5.34254 51.0379 5.34254C76.3879 5.34254 96.938 25.8925 96.938 51.2425ZM51.0379 1.60254C78.4579 1.60254 100.678 23.8225 100.678 51.2425C100.678 78.6625 78.4479 100.883 51.0379 100.883C23.6179 100.883 1.39795 78.6525 1.39795 51.2425C1.39795 23.8225 23.6179 1.60254 51.0379 1.60254Z" fill="#F2F1F0"/>
<path fill-rule="evenodd" clip-rule="evenodd" d="M94.1278 51.2421C94.1278 75.0421 74.8378 94.3321 51.0378 94.3321C27.2378 94.3321 7.94776 75.0421 7.94776 51.2421C7.94776 27.4421 27.2378 8.15211 51.0378 8.15211C74.8378 8.15211 94.1278 27.4421 94.1278 51.2421ZM51.0378 4.41211C76.8978 4.41211 97.8678 25.3821 97.8678 51.2421C97.8678 77.1021 76.8978 98.0721 51.0378 98.0721C25.1778 98.0721 4.20776 77.1021 4.20776 51.2421C4.20776 25.3821 25.1678 4.41211 51.0378 4.41211Z" fill="url(#paint1_linear)"/>
<path opacity="0.15" d="M88.0552 70.3506H14.7688V70.5365C14.7688 72.2967 16.1901 73.7181 17.9504 73.7181H84.8846C86.6448 73.7181 88.0662 72.2967 88.0662 70.5365V70.3506H88.0552V70.3506Z" fill="#1F1D20"/>
<path d="M81.1565 29.5361H21.7227V66.8846H81.1565V29.5361Z" fill="url(#paint2_linear)"/>
<path d="M81.6373 27.874H21.1867C20.3667 27.874 19.7107 28.541 19.7107 29.361V67.7809C19.7107 68.6009 20.3776 69.2678 21.1976 69.2678H81.6483C82.4683 69.2678 83.1352 68.6009 83.1352 67.7809V29.361C83.1243 28.541 82.4573 27.874 81.6373 27.874ZM79.3741 65.7691H23.4608V31.1978H79.3741V65.7691Z" fill="#282828"/>
<path d="M88.0552 69.2676H14.7688V69.4534C14.7688 71.2137 16.1901 72.6351 17.9504 72.6351H84.8846C86.6448 72.6351 88.0662 71.2137 88.0662 69.4534V69.2676H88.0552Z" fill="#F3F3F3"/>
<path opacity="0.2" d="M76.3032 55.9553C76.3032 53.4525 72.8096 51.4195 68.4959 51.4025C64.1822 51.3854 60.6799 53.4098 60.6714 55.9126C60.6629 58.4154 64.1565 60.4484 68.4702 60.457C72.7839 60.4655 76.2947 58.4496 76.3032 55.9553Z" fill="#1F1D21"/>
<path d="M76.0427 54.9624C75.9426 55.5854 75.6943 56.1754 75.3187 56.6825C74.9431 57.1896 74.4511 57.599 73.8842 57.8763C72.2113 58.7223 70.3628 59.163 68.4881 59.163C66.6134 59.163 64.765 58.7223 63.0921 57.8763C62.4856 57.6374 61.9479 57.2517 61.5272 56.7539C61.1379 56.2435 60.8753 55.648 60.7609 55.0163C60.7503 54.7413 60.772 54.466 60.8257 54.1961C61.0787 52.3504 61.9946 50.6598 63.4024 49.4397C64.8102 48.2195 66.6139 47.5533 68.4768 47.5652C70.3398 47.577 72.1347 48.2663 73.5269 49.5043C74.919 50.7423 75.8132 52.4445 76.0427 54.2933C76.0857 54.5324 76.0857 54.7772 76.0427 55.0163V54.9624ZM68.4881 46.3286C69.3924 46.3215 70.2745 46.0473 71.0233 45.5404C71.7722 45.0334 72.3545 44.3164 72.6971 43.4795C72.9361 42.8536 73.0354 42.1829 72.9881 41.5146C72.9407 40.8463 72.7479 40.1963 72.423 39.6104C72.0981 39.0244 71.6491 38.5165 71.1074 38.1222C70.5656 37.728 69.9443 37.4569 69.2868 37.3279C68.398 37.1575 67.4787 37.2513 66.6427 37.5977C65.8095 37.942 65.0989 38.5285 64.603 39.2813C64.098 40.0309 63.8276 40.9137 63.8259 41.8175C63.8241 42.422 63.9453 43.0205 64.1821 43.5766C64.4099 44.1372 64.7517 44.6443 65.1857 45.0659C65.6107 45.4933 66.1171 45.8309 66.6751 46.0588C67.2337 46.2861 67.831 46.4034 68.4342 46.4042L68.4881 46.3286Z" fill="url(#paint3_linear)"/>
<path opacity="0.2" d="M35.1648 44.0467C35.1648 42.8324 33.4739 41.846 31.3809 41.8418C29.2879 41.8377 27.5679 42.8116 27.5679 44.0177C27.5679 45.2238 29.2588 46.2185 31.3518 46.2226C33.4448 46.2267 35.1607 45.2611 35.1648 44.0467Z" fill="#1F1D21"/>
<path d="M35.2186 43.1813C35.1675 43.5053 35.0363 43.8114 34.837 44.0717C34.6391 44.3309 34.3809 44.5379 34.0848 44.6746C33.2275 45.1081 32.2803 45.334 31.3196 45.334C30.3589 45.334 29.4116 45.1081 28.5543 44.6746C28.2561 44.5373 27.9956 44.3297 27.7953 44.0696C27.5949 43.8095 27.4606 43.5047 27.4039 43.1813C27.3862 43.0362 27.3862 42.8895 27.4039 42.7444C27.5311 41.7964 27.9966 40.9263 28.7147 40.2944C29.2539 39.8247 29.9109 39.511 30.6151 39.3869C31.3193 39.2629 32.0441 39.3332 32.7113 39.5903C33.3785 39.8474 33.963 40.2816 34.4019 40.8461C34.8408 41.4106 35.1174 42.0842 35.202 42.7942C35.2295 42.9162 35.2295 43.0428 35.202 43.1647L35.2186 43.1813ZM31.3472 38.7569C31.8107 38.7531 32.2628 38.6127 32.6469 38.3532C33.0226 38.1009 33.3151 37.7429 33.4875 37.3245C33.6622 36.8961 33.7066 36.4256 33.6151 35.9721C33.5236 35.5186 33.3003 35.1021 32.9732 34.7749C32.6421 34.4486 32.2232 34.2257 31.7675 34.1334C31.3139 34.0459 30.8445 34.094 30.4181 34.2717C29.9887 34.4465 29.6224 34.7473 29.3673 35.1344C29.1078 35.5202 28.9692 35.9747 28.9691 36.4396C28.9742 36.747 29.0361 37.0507 29.1516 37.3356C29.2704 37.6217 29.4453 37.8812 29.6659 38.0988C29.882 38.3198 30.142 38.4932 30.4291 38.6076C30.7154 38.7241 31.0215 38.7842 31.3306 38.7846L31.3472 38.7569Z" fill="url(#paint4_linear)"/>
<path opacity="0.2" d="M51.5445 44.0467C51.5445 42.8324 49.8535 41.846 47.7605 41.8418C45.6675 41.8377 43.9475 42.8116 43.9475 44.0177C43.9475 45.2238 45.6385 46.2185 47.7315 46.2226C49.8245 46.2267 51.5403 45.2611 51.5445 44.0467Z" fill="#1F1D21"/>
<path d="M51.598 43.1813C51.5469 43.5053 51.4157 43.8114 51.2164 44.0717C51.0185 44.3309 50.7603 44.5379 50.4642 44.6746C49.6069 45.1081 48.6597 45.334 47.699 45.334C46.7383 45.334 45.791 45.1081 44.9337 44.6746C44.6355 44.5373 44.375 44.3297 44.1747 44.0696C43.9743 43.8095 43.84 43.5047 43.7833 43.1813C43.7656 43.0362 43.7656 42.8895 43.7833 42.7444C43.9105 41.7964 44.376 40.9263 45.0941 40.2944C45.6333 39.8247 46.2903 39.511 46.9945 39.3869C47.6987 39.2629 48.4235 39.3332 49.0907 39.5903C49.7579 39.8474 50.3424 40.2816 50.7813 40.8461C51.2201 41.4106 51.4968 42.0842 51.5814 42.7942C51.6089 42.9162 51.6089 43.0428 51.5814 43.1647L51.598 43.1813ZM47.7266 38.7569C48.1901 38.7531 48.6422 38.6127 49.0263 38.3532C49.402 38.1009 49.6945 37.7429 49.8669 37.3245C50.0416 36.8961 50.086 36.4256 49.9945 35.9721C49.903 35.5186 49.6797 35.1021 49.3526 34.7749C49.0215 34.4486 48.6026 34.2257 48.1469 34.1334C47.6933 34.0459 47.2239 34.094 46.7975 34.2717C46.3681 34.4465 46.0018 34.7473 45.7467 35.1344C45.4872 35.5202 45.3486 35.9747 45.3485 36.4396C45.3536 36.747 45.4155 37.0507 45.531 37.3356C45.6498 37.6217 45.8247 37.8812 46.0453 38.0988C46.2614 38.3198 46.5214 38.4932 46.8085 38.6076C47.0948 38.7241 47.4009 38.7842 47.71 38.7846L47.7266 38.7569Z" fill="#50E6FF"/>
<path opacity="0.2" d="M35.1648 61.5848C35.1648 60.3704 33.4739 59.384 31.3809 59.3799C29.2879 59.3758 27.5679 60.3497 27.5679 61.5558C27.5679 62.7618 29.2588 63.7565 31.3518 63.7607C33.4448 63.7648 35.1607 62.7991 35.1648 61.5848Z" fill="#1F1D21"/>
<path d="M35.2186 60.7194C35.1675 61.0434 35.0363 61.3494 34.837 61.6098C34.6391 61.869 34.3809 62.076 34.0848 62.2127C33.2275 62.6462 32.2803 62.8721 31.3196 62.8721C30.3589 62.8721 29.4116 62.6462 28.5543 62.2127C28.2561 62.0754 27.9956 61.8678 27.7953 61.6077C27.5949 61.3476 27.4606 61.0428 27.4039 60.7194C27.3862 60.5743 27.3862 60.4276 27.4039 60.2825C27.5311 59.3345 27.9966 58.4643 28.7147 57.8325C29.2539 57.3628 29.9109 57.0491 30.6151 56.925C31.3193 56.8009 32.0441 56.8712 32.7113 57.1284C33.3785 57.3855 33.963 57.8196 34.4019 58.3842C34.8408 58.9487 35.1174 59.6222 35.202 60.3323C35.2295 60.4543 35.2295 60.5809 35.202 60.7028L35.2186 60.7194ZM31.3472 56.295C31.8107 56.2912 32.2628 56.1508 32.6469 55.8913C33.0226 55.639 33.3151 55.281 33.4875 54.8626C33.6622 54.4342 33.7066 53.9637 33.6151 53.5102C33.5236 53.0566 33.3003 52.6402 32.9732 52.313C32.6421 51.9867 32.2232 51.7638 31.7675 51.6715C31.3139 51.5839 30.8445 51.632 30.4181 51.8097C29.9887 51.9846 29.6224 52.2854 29.3673 52.6725C29.1078 53.0583 28.9692 53.5127 28.9691 53.9777C28.9742 54.2851 29.0361 54.5888 29.1516 54.8737C29.2704 55.1598 29.4453 55.4193 29.6659 55.6369C29.882 55.8579 30.142 56.0313 30.4291 56.1457C30.7154 56.2622 31.0215 56.3223 31.3306 56.3227L31.3472 56.295Z" fill="#32B0E7"/>
<path opacity="0.2" d="M51.5445 61.5848C51.5445 60.3704 49.8535 59.384 47.7605 59.3799C45.6675 59.3758 43.9475 60.3497 43.9475 61.5558C43.9475 62.7618 45.6385 63.7565 47.7315 63.7607C49.8245 63.7648 51.5403 62.7991 51.5445 61.5848Z" fill="#1F1D21"/>
<path d="M51.598 60.7194C51.5469 61.0434 51.4157 61.3494 51.2164 61.6098C51.0185 61.869 50.7603 62.076 50.4642 62.2127C49.6069 62.6462 48.6597 62.8721 47.699 62.8721C46.7383 62.8721 45.791 62.6462 44.9337 62.2127C44.6355 62.0754 44.375 61.8678 44.1747 61.6077C43.9743 61.3476 43.84 61.0428 43.7833 60.7194C43.7656 60.5743 43.7656 60.4276 43.7833 60.2825C43.9105 59.3345 44.376 58.4643 45.0941 57.8325C45.6333 57.3628 46.2903 57.0491 46.9945 56.925C47.6987 56.8009 48.4235 56.8712 49.0907 57.1284C49.7579 57.3855 50.3424 57.8196 50.7813 58.3842C51.2201 58.9487 51.4968 59.6222 51.5814 60.3323C51.6089 60.4543 51.6089 60.5809 51.5814 60.7028L51.598 60.7194ZM47.7266 56.295C48.1901 56.2912 48.6422 56.1508 49.0263 55.8913C49.402 55.639 49.6945 55.281 49.8669 54.8626C50.0416 54.4342 50.086 53.9637 49.9945 53.5102C49.903 53.0566 49.6797 52.6402 49.3526 52.313C49.0215 51.9867 48.6026 51.7638 48.1469 51.6715C47.6933 51.5839 47.2239 51.632 46.7975 51.8097C46.3681 51.9846 46.0018 52.2854 45.7467 52.6725C45.4872 53.0583 45.3486 53.5127 45.3485 53.9777C45.3536 54.2851 45.4155 54.5888 45.531 54.8737C45.6498 55.1598 45.8247 55.4193 46.0453 55.6369C46.2614 55.8579 46.5214 56.0313 46.8085 56.1457C47.0948 56.2622 47.4009 56.3223 47.71 56.3227L47.7266 56.295Z" fill="#2195DC"/>
<path d="M72.0006 63.3945C71.8697 63.4831 71.7155 63.531 71.5575 63.5323L71.548 63.5455C71.4426 63.5453 71.3382 63.5248 71.2405 63.4851C71.143 63.4453 71.0544 63.3862 70.9802 63.3115C70.9043 63.2378 70.8445 63.1492 70.8047 63.0512C70.7633 62.9539 70.7421 62.8493 70.7424 62.7437C70.7427 62.5857 70.79 62.4313 70.8783 62.3003C70.965 62.1687 71.0892 62.0662 71.2348 62.006C71.381 61.9454 71.5417 61.929 71.6971 61.9588C71.812 61.9814 71.9206 62.0287 72.0153 62.0977C72.11 62.1666 72.1885 62.2554 72.2453 62.3578C72.3021 62.4603 72.3358 62.5739 72.3441 62.6907C72.3524 62.8075 72.335 62.9248 72.2932 63.0342C72.2334 63.1805 72.1316 63.3058 72.0006 63.3945Z" fill="url(#paint5_linear)"/>
<path d="M68.8007 63.3945C68.6698 63.4831 68.5156 63.531 68.3575 63.5323L68.3481 63.5455C68.2426 63.5453 68.1382 63.5248 68.0406 63.4851C67.943 63.4453 67.8545 63.3862 67.7802 63.3115C67.7043 63.2378 67.6446 63.1492 67.6047 63.0512C67.5634 62.9539 67.5422 62.8493 67.5425 62.7437C67.5428 62.5857 67.5901 62.4313 67.6783 62.3003C67.765 62.1687 67.8892 62.0662 68.0349 62.006C68.181 61.9454 68.3417 61.929 68.4971 61.9588C68.6121 61.9814 68.7207 62.0287 68.8154 62.0977C68.9101 62.1666 68.9886 62.2554 69.0454 62.3578C69.1022 62.4603 69.1359 62.5739 69.1442 62.6907C69.1524 62.8075 69.1351 62.9248 69.0933 63.0342C69.0334 63.1805 68.9316 63.3058 68.8007 63.3945Z" fill="url(#paint6_linear)"/>
<path d="M65.6007 63.3945C65.4698 63.4831 65.3156 63.531 65.1576 63.5323L65.1481 63.5455C65.0427 63.5453 64.9383 63.5248 64.8406 63.4851C64.7431 63.4453 64.6545 63.3862 64.5802 63.3115C64.5044 63.2378 64.4446 63.1492 64.4048 63.0512C64.3634 62.9539 64.3422 62.8493 64.3425 62.7437C64.3428 62.5857 64.3901 62.4313 64.4784 62.3003C64.5651 62.1687 64.6893 62.0662 64.8349 62.006C64.9811 61.9454 65.1418 61.929 65.2972 61.9588C65.4121 61.9814 65.5207 62.0287 65.6154 62.0977C65.7101 62.1666 65.7886 62.2554 65.8454 62.3578C65.9022 62.4603 65.9359 62.5739 65.9442 62.6907C65.9525 62.8075 65.9351 62.9248 65.8933 63.0342C65.8335 63.1805 65.7317 63.3058 65.6007 63.3945Z" fill="url(#paint7_linear)"/>
<rect x="55.741" y="31.2676" width="0.278203" height="34.5115" fill="#C4C4C4"/>
<rect x="38.9622" y="31.2676" width="0.278203" height="34.5115" fill="#C4C4C4"/>
<rect x="55.801" y="48.3848" width="0.278203" height="32.3493" transform="rotate(90 55.801 48.3848)" fill="#C4C4C4"/>
<defs>
<linearGradient id="paint0_linear" x1="49.2639" y1="-13.5469" x2="53.2459" y2="132.223" gradientUnits="userSpaceOnUse">
<stop stop-color="#00ABDE"/>
<stop offset="1" stop-color="#007ED8"/>
</linearGradient>
<linearGradient id="paint1_linear" x1="2.46816" y1="-20.3805" x2="97.9957" y2="120.501" gradientUnits="userSpaceOnUse">
<stop stop-color="#007ED8"/>
<stop offset="0.7065" stop-color="#002D4C"/>
</linearGradient>
<linearGradient id="paint2_linear" x1="33.7248" y1="30.9154" x2="78.3358" y2="74.4679" gradientUnits="userSpaceOnUse">
<stop stop-color="#007ED8"/>
<stop offset="0.7065" stop-color="#002D4C"/>
</linearGradient>
<linearGradient id="paint3_linear" x1="75.0174" y1="55.4588" x2="61.2682" y2="42.7564" gradientUnits="userSpaceOnUse">
<stop stop-color="#50E6FF"/>
<stop offset="1" stop-color="#C3F1FF"/>
</linearGradient>
<linearGradient id="paint4_linear" x1="28.2015" y1="32.8008" x2="43.4514" y2="49.0739" gradientUnits="userSpaceOnUse">
<stop offset="0.1608" stop-color="#ACF3FD"/>
<stop offset="0.9598" stop-color="#45CAF2"/>
</linearGradient>
<linearGradient id="paint5_linear" x1="72.6989" y1="65.1283" x2="70.2953" y2="62.9078" gradientUnits="userSpaceOnUse">
<stop stop-color="#50E6FF"/>
<stop offset="1" stop-color="#C3F1FF"/>
</linearGradient>
<linearGradient id="paint6_linear" x1="69.4989" y1="65.1283" x2="67.0953" y2="62.9078" gradientUnits="userSpaceOnUse">
<stop stop-color="#50E6FF"/>
<stop offset="1" stop-color="#C3F1FF"/>
</linearGradient>
<linearGradient id="paint7_linear" x1="66.299" y1="65.1283" x2="63.8954" y2="62.9078" gradientUnits="userSpaceOnUse">
<stop stop-color="#50E6FF"/>
<stop offset="1" stop-color="#C3F1FF"/>
</linearGradient>
</defs>
</svg>
