<svg width="103" height="103" viewBox="0 0 103 103" fill="none" xmlns="https://www.w3.org/2000/svg">
<path d="M51.2206 98.2194C25.3706 98.2194 4.41064 77.2694 4.41064 51.4094C4.41064 25.5494 25.3706 4.59937 51.2206 4.59937C77.0706 4.59937 98.0306 25.5594 98.0306 51.4094C98.0306 77.2594 77.0706 98.2194 51.2206 98.2194Z" fill="url(#paint0_linear)"/>
<path fill-rule="evenodd" clip-rule="evenodd" d="M97.1207 51.4094C97.1207 76.7594 76.5707 97.3094 51.2207 97.3094C25.8707 97.3094 5.32069 76.7594 5.32069 51.4094C5.32069 26.0594 25.8707 5.50941 51.2207 5.50941C76.5707 5.50941 97.1207 26.0594 97.1207 51.4094ZM51.2207 1.76941C78.6407 1.76941 100.861 23.9894 100.861 51.4094C100.861 78.8294 78.6307 101.049 51.2207 101.049C23.8007 101.049 1.58069 78.8194 1.58069 51.4094C1.58069 23.9894 23.8007 1.76941 51.2207 1.76941Z" fill="#F2F1F0"/>
<path fill-rule="evenodd" clip-rule="evenodd" d="M94.3107 51.4095C94.3107 75.2095 75.0207 94.4995 51.2207 94.4995C27.4207 94.4995 8.13075 75.2095 8.13075 51.4095C8.13075 27.6095 27.4207 8.31947 51.2207 8.31947C75.0207 8.31947 94.3107 27.6095 94.3107 51.4095ZM51.2207 4.57947C77.0807 4.57947 98.0508 25.5495 98.0508 51.4095C98.0508 77.2695 77.0807 98.2395 51.2207 98.2395C25.3607 98.2395 4.39075 77.2695 4.39075 51.4095C4.39075 25.5495 25.3507 4.57947 51.2207 4.57947Z" fill="#0078D4"/>
<path d="M59.6207 70.3295H54.2507C54.0207 70.3295 53.8307 70.1395 53.8307 69.9095V44.4295C53.8307 44.1995 54.0207 44.0095 54.2507 44.0095H59.6207V44.8495H54.6807V69.4895H59.6207V70.3295Z" fill="white"/>
<path d="M80.0206 56.7495H72.6506C72.4206 56.7495 72.2306 56.5595 72.2306 56.3295V44.8495H65.2806V44.0095H72.6506C72.8806 44.0095 73.0706 44.1995 73.0706 44.4295V55.9095H80.0106V56.7495H80.0206Z" fill="white"/>
<path d="M79.7407 43.9995H67.7708V44.8395H79.7407V43.9995Z" fill="white"/>
<path d="M59.6007 56.5095H47.7107V57.3495H59.6007V56.5095Z" fill="white"/>
<path d="M70.0306 41.5394H57.4006V48.9294C57.4006 49.1594 57.5806 49.3294 57.8006 49.3294H69.6206C69.8506 49.3294 70.0206 49.1494 70.0206 48.9294L70.0306 41.5394Z" fill="#50E6FF"/>
<path d="M69.6006 40.4495H57.8306C57.5906 40.4495 57.4006 40.6395 57.4006 40.8795V41.7995H70.0306V40.8795C70.0306 40.6395 69.8406 40.4495 69.6006 40.4495Z" fill="white"/>
<path d="M88.2107 41.5394H75.5807V48.9294C75.5807 49.1594 75.7607 49.3294 75.9807 49.3294H87.8007C88.0307 49.3294 88.2007 49.1494 88.2007 48.9294L88.2107 41.5394Z" fill="#45CAF2"/>
<path d="M87.7807 40.4495H76.0107C75.7707 40.4495 75.5807 40.6395 75.5807 40.8795V41.7995H88.2107V40.8795C88.2107 40.6395 88.0207 40.4495 87.7807 40.4495Z" fill="white"/>
<path d="M88.5007 53.2694H75.8707V60.6594C75.8707 60.8894 76.0507 61.0594 76.2707 61.0594H88.0907C88.3207 61.0594 88.4907 60.8794 88.4907 60.6594L88.5007 53.2694Z" fill="#45CAF2"/>
<path d="M88.0707 52.1794H76.3107C76.0707 52.1794 75.8807 52.3694 75.8807 52.6094V53.5294H88.5107V52.6094C88.5007 52.3694 88.3107 52.1794 88.0707 52.1794Z" fill="white"/>
<path d="M70.0306 67.1195H57.4006V74.5095C57.4006 74.7395 57.5806 74.9095 57.8006 74.9095H69.6206C69.8506 74.9095 70.0206 74.7295 70.0206 74.5095L70.0306 67.1195Z" fill="#50E6FF"/>
<path d="M69.6006 66.0194H57.8306C57.5906 66.0194 57.4006 66.2094 57.4006 66.4494V67.3694H70.0306V66.4494C70.0306 66.2194 69.8406 66.0194 69.6006 66.0194Z" fill="white"/>
<path d="M70.0306 52.8994H57.4006V63.3694C57.4006 63.7394 57.6906 64.0294 58.0606 64.0294H69.3606C69.7306 64.0294 70.0206 63.7394 70.0206 63.3694V52.8994H70.0306Z" fill="#50E6FF"/>
<path d="M69.4306 51.8094H58.0106C57.6806 51.8094 57.4006 52.0794 57.4006 52.4194V53.1694H70.0306V52.4194C70.0306 52.0794 69.7606 51.8094 69.4306 51.8094Z" fill="white"/>
<path d="M47.7306 71.0695H33.2906V27.8794C33.2906 26.3294 34.5506 25.0594 36.1106 25.0594H47.7306C49.2806 25.0594 50.5507 26.3194 50.5507 27.8794V68.2494C50.5507 69.8094 49.2806 71.0695 47.7306 71.0695Z" fill="url(#paint1_linear)"/>
<path d="M38.3807 71.0695H23.5807V39.2695C23.5807 37.9195 24.6807 36.8195 26.0307 36.8195H38.3707C39.7207 36.8195 40.8207 37.9195 40.8207 39.2695V68.6095C40.8407 69.9695 39.7407 71.0695 38.3807 71.0695Z" fill="url(#paint2_linear)"/>
<path d="M28.3807 71.0695H17.5207C15.7507 71.0695 14.3207 69.6395 14.3207 67.8695V51.2795C14.3207 49.5095 15.7507 48.0795 17.5207 48.0795H28.3807C30.1507 48.0795 31.5807 49.5095 31.5807 51.2795V67.8695C31.5707 69.6395 30.1407 71.0695 28.3807 71.0695Z" fill="url(#paint3_linear)"/>
<defs>
<linearGradient id="paint0_linear" x1="49.4507" y1="-13.3806" x2="53.4327" y2="132.389" gradientUnits="userSpaceOnUse">
<stop stop-color="#00ABDE"/>
<stop offset="1" stop-color="#007ED8"/>
</linearGradient>
<linearGradient id="paint1_linear" x1="41.7269" y1="29.2754" x2="42.0939" y2="67.4431" gradientUnits="userSpaceOnUse">
<stop offset="0.00753769" stop-color="#E0A310"/>
<stop offset="1" stop-color="#CA810E"/>
</linearGradient>
<linearGradient id="paint2_linear" x1="31.7443" y1="38.1461" x2="32.8452" y2="78.5156" gradientUnits="userSpaceOnUse">
<stop offset="0.00753769" stop-color="#F2CC40"/>
<stop offset="1" stop-color="#E7B116"/>
</linearGradient>
<linearGradient id="paint3_linear" x1="22.5403" y1="49.8501" x2="23.6413" y2="75.9067" gradientUnits="userSpaceOnUse">
<stop stop-color="#F8E17B"/>
<stop offset="0.5302" stop-color="#F6D856"/>
<stop offset="1" stop-color="#F6D856"/>
</linearGradient>
</defs>
</svg>
