<svg width="103" height="103" viewBox="0 0 103 103" fill="none" xmlns="http://www.w3.org/2000/svg">
<path d="M51.7396 98.2516C25.8896 98.2516 4.92957 77.3016 4.92957 51.4416C4.92957 25.5816 25.8896 4.63159 51.7396 4.63159C77.5896 4.63159 98.5496 25.5916 98.5496 51.4416C98.5496 77.2916 77.5896 98.2516 51.7396 98.2516Z" fill="url(#paint0_linear)"/>
<path fill-rule="evenodd" clip-rule="evenodd" d="M97.6396 51.4416C97.6396 76.7916 77.0896 97.3416 51.7396 97.3416C26.3896 97.3416 5.83961 76.7916 5.83961 51.4416C5.83961 26.0916 26.3896 5.54164 51.7396 5.54164C77.0896 5.54164 97.6396 26.0916 97.6396 51.4416ZM51.7396 1.80164C79.1596 1.80164 101.38 24.0216 101.38 51.4416C101.38 78.8616 79.1496 101.082 51.7396 101.082C24.3196 101.082 2.09961 78.8516 2.09961 51.4416C2.09961 24.0216 24.3196 1.80164 51.7396 1.80164Z" fill="#F2F1F0"/>
<path fill-rule="evenodd" clip-rule="evenodd" d="M94.8297 51.4417C94.8297 75.2417 75.5397 94.5317 51.7397 94.5317C27.9397 94.5317 8.64967 75.2417 8.64967 51.4417C8.64967 27.6417 27.9397 8.35169 51.7397 8.35169C75.5397 8.35169 94.8297 27.6417 94.8297 51.4417ZM51.7397 4.61169C77.5997 4.61169 98.5697 25.5817 98.5697 51.4417C98.5697 77.3017 77.5997 98.2717 51.7397 98.2717C25.8797 98.2717 4.90967 77.3017 4.90967 51.4417C4.90967 25.5817 25.8697 4.61169 51.7397 4.61169Z" fill="#0078D4"/>
<path opacity="0.15" d="M84.3396 28.9116H67.6096V38.7116C67.6096 39.0116 67.8496 39.2416 68.1396 39.2416H83.7996C84.0996 39.2416 84.3296 39.0016 84.3296 38.7116L84.3396 28.9116Z" fill="#1F1D20"/>
<path opacity="0.15" d="M84.3396 62.8016H67.6096V72.6016C67.6096 72.9016 67.8496 73.1316 68.1396 73.1316H83.7996C84.0996 73.1316 84.3296 72.8916 84.3296 72.6016L84.3396 62.8016Z" fill="#1F1D20"/>
<path opacity="0.15" d="M84.3396 43.9717H67.6096V57.8417C67.6096 58.3317 67.9996 58.7217 68.4896 58.7217H83.4696C83.9596 58.7217 84.3496 58.3317 84.3496 57.8417V43.9717H84.3396Z" fill="#1F1D20"/>
<path fill-rule="evenodd" clip-rule="evenodd" d="M62.2596 32.1017C62.2596 31.8807 62.4387 31.7017 62.6596 31.7017H69.7696V32.5017H63.0596V65.4717H69.7696V66.2717H62.6596C62.4387 66.2717 62.2596 66.0926 62.2596 65.8717V32.1017Z" fill="white"/>
<path fill-rule="evenodd" clip-rule="evenodd" d="M54.7697 45.6217H70.5297V46.4217H54.7697V45.6217Z" fill="white"/>
<path d="M84.3396 28.2816H67.6096V38.0816C67.6096 38.3816 67.8496 38.6116 68.1396 38.6116H83.7996C84.0996 38.6116 84.3296 38.3716 84.3296 38.0816L84.3396 28.2816Z" fill="url(#paint1_linear)"/>
<path d="M83.7696 26.8317H68.1796C67.8596 26.8317 67.6096 27.0817 67.6096 27.4017V28.6217H84.3396V27.4017C84.3396 27.0817 84.0896 26.8317 83.7696 26.8317Z" fill="#185A97"/>
<path d="M84.3396 62.1716H67.6096V71.9716C67.6096 72.2716 67.8496 72.5016 68.1396 72.5016H83.7996C84.0996 72.5016 84.3296 72.2616 84.3296 71.9716L84.3396 62.1716Z" fill="url(#paint2_linear)"/>
<path d="M83.7696 60.7217H68.1796C67.8596 60.7217 67.6096 60.9717 67.6096 61.2917V62.5117H84.3396V61.2917C84.3396 60.9717 84.0896 60.7217 83.7696 60.7217Z" fill="#185A97"/>
<path d="M84.3396 43.3417H67.6096V57.2117C67.6096 57.7017 67.9996 58.0917 68.4896 58.0917H83.4696C83.9596 58.0917 84.3496 57.7017 84.3496 57.2117V43.3417H84.3396Z" fill="url(#paint3_linear)"/>
<path d="M83.5396 41.8917H68.4196C67.9796 41.8917 67.6196 42.2517 67.6196 42.6917V43.6817H84.3396V42.6917C84.3396 42.2417 83.9796 41.8917 83.5396 41.8917Z" fill="#185A97"/>
<path d="M79.6596 47.8816L78.7196 46.9417L73.9896 51.6617L72.5796 50.2416L71.6296 51.1817L73.9896 53.5416L79.6596 47.8816Z" fill="#F2F1F0"/>
<path opacity="0.15" d="M21.4996 73.1917H57.2696C58.1696 73.1917 58.9096 72.4617 58.9096 71.5517V30.6017C58.9096 29.7017 58.1796 28.9617 57.2696 28.9617H21.4996C20.5996 28.9617 19.8596 29.6917 19.8596 30.6017V71.5517C19.8596 72.4517 20.5896 73.1917 21.4996 73.1917Z" fill="#1F1D20"/>
<path d="M20.6096 72.3217H58.1596C58.5696 72.3217 58.9096 71.9917 58.9096 71.5717V28.1017H19.8596V71.5717C19.8596 71.9917 20.1896 72.3217 20.6096 72.3217Z" fill="url(#paint4_linear)"/>
<path d="M19.8596 31.2516H58.8996V27.5616C58.8996 27.1516 58.5696 26.8116 58.1496 26.8116H20.8196C20.2896 26.8116 19.8596 27.2416 19.8596 27.7716V31.2516V31.2516Z" fill="#185A97"/>
<path d="M22.4096 30.1617C22.9796 30.1617 23.4596 29.6917 23.4596 29.1117C23.4596 28.5317 22.9896 28.0717 22.4096 28.0717C21.8396 28.0717 21.3596 28.5417 21.3596 29.1217C21.3596 29.7017 21.8296 30.1617 22.4096 30.1617Z" fill="#50E6FF"/>
<path opacity="0.15" d="M53.2696 60.5916L39.2496 52.8116L25.2296 60.5916L39.2496 68.6816L53.2696 60.5916Z" fill="#1F1D20"/>
<path d="M53.2696 59.3717V43.1917L39.2496 35.0917L25.2296 43.1917V59.3717L39.2496 67.4717L53.2696 59.3717Z" fill="white"/>
<path opacity="0.15" d="M51.7796 59.1217L50.3296 58.2517L39.2496 64.2817L27.8396 58.4317L26.7196 59.1217L39.2496 66.3617L51.7796 59.1217Z" fill="#1F1D20"/>
<path d="M39.2496 36.7617L26.6396 43.9717V55.6817V56.4517V58.3817L39.2496 65.6817L51.8596 58.4717V44.0117L39.2496 36.7617ZM49.5396 56.9617L39.2496 62.9017L28.9596 57.0217V47.3917V45.4217V45.3917L39.2496 39.4517L49.5396 45.4117V56.9617Z" fill="#0078D1"/>
<path d="M44.2196 51.2217C44.0096 51.2217 43.8196 51.2417 43.6296 51.2817C42.1496 49.3717 39.9596 48.0917 37.5596 47.7517L47.9596 41.7417L45.5396 40.3517L36.0296 45.8417C35.5396 45.4817 34.9296 45.2717 34.2796 45.2717C32.6396 45.2717 31.3096 46.6017 31.3096 48.2417C31.3096 49.8817 32.6396 51.2117 34.2796 51.2117C35.2296 51.2117 36.0796 50.7617 36.6196 50.0717C38.5996 50.1817 40.4396 51.1417 41.6596 52.6717C41.3996 53.1117 41.2496 53.6317 41.2496 54.1817C41.2496 54.2817 41.2596 54.4017 41.2696 54.5017L30.5996 60.6717L33.0096 62.0617L42.4696 56.5817C42.9596 56.9417 43.5696 57.1517 44.2196 57.1517C45.8596 57.1517 47.1896 55.8217 47.1896 54.1817C47.1896 52.5517 45.8596 51.2217 44.2196 51.2217Z" fill="#50E6FF"/>
<path opacity="0.15" d="M82.9396 80.4716C87.1496 80.4716 90.5496 77.0616 90.5496 72.8616C90.5496 68.6516 87.1396 65.2516 82.9396 65.2516C78.7296 65.2516 75.3296 68.6616 75.3296 72.8616C75.3396 77.0716 78.7496 80.4716 82.9396 80.4716Z" fill="#1F1D20"/>
<path d="M82.9396 79.6116C87.1496 79.6116 90.5496 76.2016 90.5496 72.0016C90.5496 67.7916 87.1396 64.3916 82.9396 64.3916C78.7296 64.3916 75.3296 67.8016 75.3296 72.0016C75.3396 76.2116 78.7496 79.6116 82.9396 79.6116Z" fill="#002D4C"/>
<path d="M84.0096 66.0116H82.7396V72.8916H84.0096V66.0116Z" fill="#FAF9F8"/>
<path d="M77.0696 71.6216V72.8916H84.0096V71.6216H77.0696Z" fill="#FAF9F8"/>
<path d="M72.9696 35.2117H71.4596V37.1817H72.9696V35.2117Z" fill="white"/>
<path d="M75.2196 33.9117H73.6896V37.1917H75.2196V33.9117Z" fill="#EBFBFF"/>
<path d="M77.9496 31.7917H75.9796V37.1817H77.9496V31.7917Z" fill="#D4F4FC"/>
<path d="M81.0395 30.1217H78.7695V37.1817H81.0395V30.1217Z" fill="#C3F1FF"/>
<defs>
<linearGradient id="paint0_linear" x1="49.9697" y1="-13.3484" x2="53.9517" y2="132.422" gradientUnits="userSpaceOnUse">
<stop stop-color="#00ABDE"/>
<stop offset="1" stop-color="#007ED8"/>
</linearGradient>
<linearGradient id="paint1_linear" x1="49.5954" y1="-64.2313" x2="117.62" y2="187.017" gradientUnits="userSpaceOnUse">
<stop offset="0.0435" stop-color="white"/>
<stop offset="0.4857" stop-color="#4DC1EA"/>
<stop offset="0.8452" stop-color="#0078D4"/>
</linearGradient>
<linearGradient id="paint2_linear" x1="41.0467" y1="-61.9167" x2="109.072" y2="189.331" gradientUnits="userSpaceOnUse">
<stop offset="0.0435" stop-color="white"/>
<stop offset="0.4857" stop-color="#4DC1EA"/>
<stop offset="0.8452" stop-color="#0078D4"/>
</linearGradient>
<linearGradient id="paint3_linear" x1="45.2762" y1="-63.0618" x2="113.301" y2="188.186" gradientUnits="userSpaceOnUse">
<stop offset="0.0435" stop-color="white"/>
<stop offset="0.4857" stop-color="#4DC1EA"/>
<stop offset="0.8452" stop-color="#0078D4"/>
</linearGradient>
<linearGradient id="paint4_linear" x1="9.25591" y1="-61.3714" x2="81.6442" y2="205.992" gradientUnits="userSpaceOnUse">
<stop offset="0.0435" stop-color="white"/>
<stop offset="0.4857" stop-color="#4DC1EA"/>
<stop offset="0.8452" stop-color="#0078D4"/>
</linearGradient>
</defs>
</svg>
