<svg width="100" height="100" viewBox="0 0 100 100" fill="none" xmlns="http://www.w3.org/2000/svg">
<g clip-path="url(#clip0)">
<path d="M49.1926 96.45C39.9344 96.45 30.8842 93.7047 23.1863 88.5611C15.4885 83.4176 9.48873 76.1068 5.94579 67.5534C2.40285 59 1.47586 49.5881 3.28203 40.5078C5.0882 31.4276 9.54643 23.0868 16.0929 16.5403C22.6394 9.99384 30.9802 5.53562 40.0604 3.72945C49.1407 1.92327 58.5526 2.85027 67.106 6.39321C75.6594 9.93614 82.9701 15.9359 88.1137 23.6338C93.2572 31.3316 96.0026 40.3819 96.0026 49.64C96.003 55.7873 94.7925 61.8745 92.4403 67.5539C90.088 73.2334 86.64 78.3938 82.2932 82.7406C77.9464 87.0874 72.7859 90.5354 67.1065 92.8877C61.4271 95.2399 55.3399 96.4504 49.1926 96.45V96.45Z" fill="url(#paint0_linear)"/>
<path fill-rule="evenodd" clip-rule="evenodd" d="M95.5402 49.7109C95.5402 58.789 92.8483 67.6633 87.8047 75.2115C82.7611 82.7597 75.5925 88.6429 67.2054 92.1169C58.8183 95.591 49.5893 96.5 40.6856 94.7289C31.7819 92.9578 23.6033 88.5863 17.184 82.1671C10.7648 75.7478 6.39326 67.5692 4.6222 58.6655C2.85114 49.7618 3.76011 40.5328 7.23417 32.1457C10.7082 23.7586 16.5914 16.59 24.1396 11.5464C31.6878 6.50285 40.5621 3.81086 49.6402 3.81086C55.6679 3.81084 61.6366 4.99806 67.2054 7.30475C72.7743 9.61143 77.8343 12.9924 82.0965 17.2546C86.3587 21.5168 89.7397 26.5768 92.0464 32.1457C94.353 37.7145 95.5403 43.6832 95.5402 49.7109V49.7109ZM49.6402 0.0708618C59.4581 0.0708618 69.0555 2.9822 77.2188 8.43671C85.382 13.8912 91.7445 21.6439 95.5016 30.7145C99.2588 39.785 100.242 49.7659 98.3264 59.3951C96.4111 69.0244 91.6833 77.8694 84.741 84.8116C77.7987 91.7539 68.9537 96.4817 59.3245 98.397C49.6953 100.312 39.7144 99.3294 30.6438 95.5722C21.5733 91.8151 13.8206 85.4526 8.36609 77.2894C2.91158 69.1261 0.000244502 59.5287 0.000244502 49.7109C-0.000542285 43.1918 1.2829 36.7365 3.77726 30.7135C6.27163 24.6906 9.92805 19.218 14.5377 14.6083C19.1474 9.99867 24.62 6.34225 30.6429 3.84789C36.6659 1.35352 43.1212 0.0700837 49.6402 0.0708718V0.0708618Z" fill="#F2F1F0"/>
<path fill-rule="evenodd" clip-rule="evenodd" d="M92.2821 49.6401C92.2821 58.1625 89.7549 66.4935 85.0201 73.5796C80.2853 80.6657 73.5556 86.1887 65.6819 89.4501C57.8082 92.7114 49.1443 93.5648 40.7856 91.9021C32.427 90.2395 24.7491 86.1356 18.7228 80.1093C12.6966 74.0831 8.59266 66.4052 6.93002 58.0465C5.26739 49.6879 6.12071 41.0239 9.38209 33.1503C12.6435 25.2766 18.1664 18.5469 25.2525 13.8121C32.3387 9.07727 40.6697 6.55009 49.1921 6.55009C54.8508 6.54974 60.4542 7.66407 65.6823 9.82942C70.9104 11.9948 75.6607 15.1687 79.6621 19.1701C83.6634 23.1714 86.8374 27.9218 89.0027 33.1499C91.1681 38.3779 92.2824 43.9813 92.2821 49.6401V49.6401ZM49.1921 2.81009C58.4542 2.81009 67.5083 5.55662 75.2094 10.7024C82.9106 15.8481 88.9129 23.162 92.4573 31.719C96.0018 40.2761 96.9292 49.692 95.1222 58.7762C93.3153 67.8603 88.8552 76.2046 82.3059 82.7539C75.7566 89.3032 67.4123 93.7633 58.3281 95.5703C49.244 97.3772 39.8281 96.4498 31.271 92.9054C22.7139 89.3609 15.4001 83.3586 10.2543 75.6574C5.10859 67.9563 2.36206 58.9022 2.36206 49.6401C2.36325 37.2204 7.29749 25.3097 16.0796 16.5276C24.8616 7.7455 36.7723 2.81125 49.1921 2.81006V2.81009Z" fill="#0078D4"/>
<path d="M46.0422 38.2633H14.3291C13.7036 38.2633 13.1965 38.7704 13.1965 39.3959V59.7829C13.1965 60.4084 13.7036 60.9155 14.3291 60.9155H46.0422C46.6678 60.9155 47.1749 60.4084 47.1749 59.7829V39.3959C47.1749 38.7704 46.6678 38.2633 46.0422 38.2633Z" fill="url(#paint1_linear)"/>
<path d="M37.0003 67.7678C33.6402 67.2392 33.5081 64.823 33.5081 60.9155H26.8445C26.8445 64.823 26.7313 67.2392 23.3712 67.7678C22.9074 67.8191 22.479 68.0404 22.1687 68.389C21.8585 68.7376 21.6884 69.1888 21.6912 69.6555H38.6803C38.6831 69.1888 38.513 68.7376 38.2028 68.389C37.8925 68.0404 37.4641 67.8191 37.0003 67.7678V67.7678Z" fill="url(#paint2_linear)"/>
<path d="M22.9744 54.2716L29.1621 43.7085C29.2667 43.53 29.4161 43.3819 29.5956 43.279C29.7751 43.1762 29.9784 43.122 30.1853 43.122C30.3922 43.122 30.5954 43.1762 30.7749 43.279C30.9544 43.3819 31.1039 43.53 31.2084 43.7085L37.3962 54.2716C37.5017 54.4517 37.5578 54.6566 37.5588 54.8653C37.5598 55.0741 37.5056 55.2794 37.4018 55.4606C37.298 55.6417 37.1482 55.7922 36.9675 55.8969C36.7869 56.0016 36.5818 56.0567 36.373 56.0567H23.9975C23.7888 56.0567 23.5837 56.0016 23.403 55.8969C23.2224 55.7922 23.0726 55.6417 22.9688 55.4606C22.8649 55.2795 22.8108 55.0741 22.8118 54.8653C22.8128 54.6566 22.8689 54.4517 22.9744 54.2716V54.2716Z" fill="#FF9300"/>
<path d="M23.9977 55.2662C23.9281 55.2662 23.8597 55.2479 23.7995 55.213C23.7393 55.1782 23.6893 55.128 23.6547 55.0677C23.6201 55.0073 23.602 54.9389 23.6023 54.8693C23.6026 54.7997 23.6213 54.7314 23.6565 54.6714L29.844 44.108C29.8789 44.0485 29.9287 43.9991 29.9886 43.9648C30.0485 43.9305 30.1163 43.9125 30.1853 43.9125C30.2543 43.9125 30.3221 43.9306 30.3819 43.9649C30.4418 43.9993 30.4916 44.0487 30.5264 44.1082L36.7139 54.6712C36.7491 54.7312 36.7678 54.7995 36.7681 54.8691C36.7685 54.9386 36.7505 55.0071 36.7159 55.0674C36.6813 55.1278 36.6314 55.178 36.5712 55.2129C36.511 55.2478 36.4427 55.2662 36.3731 55.2662L23.9977 55.2662Z" fill="#FFCA00"/>
<path d="M32.5423 52.8943C32.489 52.8942 32.4366 52.8804 32.3902 52.8543C32.3437 52.8282 32.3047 52.7906 32.2769 52.7452C32.249 52.6997 32.2333 52.6479 32.2312 52.5947C32.2291 52.5414 32.2407 52.4885 32.2648 52.441C32.4439 52.0881 32.5253 51.6937 32.5007 51.2987C32.4761 50.9037 32.3462 50.5225 32.1247 50.1946C31.9031 49.8666 31.5979 49.6039 31.2406 49.4337C30.8833 49.2634 30.487 49.1918 30.0928 49.2263C30.0105 49.2334 29.9287 49.2075 29.8654 49.1544C29.8022 49.1012 29.7626 49.0251 29.7553 48.9428C29.7481 48.8605 29.7739 48.7787 29.8269 48.7154C29.8799 48.652 29.9559 48.6123 30.0382 48.6049C30.5433 48.5608 31.051 48.6526 31.5087 48.8708C31.9664 49.0889 32.3574 49.4255 32.6412 49.8457C32.9251 50.2658 33.0913 50.7542 33.1229 51.2602C33.1544 51.7663 33.05 52.2715 32.8205 52.7237C32.7944 52.775 32.7546 52.8182 32.7055 52.8483C32.6564 52.8784 32.5999 52.8943 32.5423 52.8943V52.8943Z" fill="#FF9300"/>
<path d="M30.2806 54.2791C29.822 54.2781 29.3705 54.1661 28.9646 53.9528C28.5586 53.7395 28.2103 53.4312 27.9492 53.0541C27.6882 52.6771 27.5222 52.2425 27.4655 51.7874C27.4087 51.3324 27.4629 50.8703 27.6233 50.4407C27.6376 50.4024 27.6594 50.3672 27.6873 50.3373C27.7152 50.3074 27.7488 50.2833 27.786 50.2663C27.8233 50.2494 27.8635 50.2399 27.9044 50.2385C27.9453 50.2371 27.9861 50.2438 28.0244 50.2581C28.0627 50.2725 28.0979 50.2942 28.1278 50.3221C28.1577 50.3501 28.1818 50.3836 28.1988 50.4209C28.2157 50.4581 28.2252 50.4983 28.2266 50.5392C28.228 50.5801 28.2213 50.6209 28.207 50.6592C28.0758 51.0102 28.0357 51.3887 28.0903 51.7595C28.145 52.1302 28.2926 52.481 28.5194 52.7793C28.7462 53.0775 29.0449 53.3135 29.3875 53.4652C29.7301 53.6169 30.1056 53.6794 30.4789 53.6468C30.5611 53.6406 30.6424 53.6668 30.7055 53.7198C30.7687 53.7728 30.8086 53.8483 30.8168 53.9303C30.824 54.0127 30.7982 54.0946 30.745 54.1579C30.6919 54.2212 30.6158 54.2609 30.5334 54.2681C30.4487 54.2755 30.3646 54.2791 30.2806 54.2791Z" fill="#FF9300"/>
<path d="M26.9548 50.2005L28.3734 49.3787C28.3942 49.3667 28.4175 49.3598 28.4415 49.3585C28.4655 49.3573 28.4894 49.3618 28.5113 49.3717C28.5332 49.3816 28.5524 49.3965 28.5674 49.4153C28.5824 49.434 28.5927 49.4561 28.5974 49.4796L28.9192 51.0757C28.9247 51.1029 28.9226 51.1311 28.9131 51.1572C28.9037 51.1833 28.8872 51.2062 28.8656 51.2236C28.8439 51.2409 28.8179 51.252 28.7904 51.2555C28.7629 51.2591 28.7349 51.255 28.7096 51.2437L26.9691 50.4694C26.9437 50.4581 26.9218 50.4399 26.906 50.417C26.8902 50.394 26.8811 50.3671 26.8796 50.3393C26.8781 50.3115 26.8844 50.2838 26.8976 50.2593C26.9109 50.2348 26.9307 50.2144 26.9548 50.2005Z" fill="#FF9300"/>
<path d="M33.3993 53.0512L31.8911 53.694C31.869 53.7034 31.845 53.7074 31.8211 53.7057C31.7971 53.704 31.7739 53.6966 31.7534 53.6841C31.7329 53.6717 31.7156 53.6545 31.703 53.6341C31.6905 53.6136 31.683 53.5905 31.6811 53.5665L31.5561 51.9431C31.554 51.9154 31.5595 51.8877 31.5721 51.863C31.5847 51.8383 31.6038 51.8175 31.6274 51.8029C31.651 51.7883 31.6782 51.7805 31.7059 51.7803C31.7336 51.7801 31.7609 51.7876 31.7847 51.8019L33.4178 52.7825C33.4417 52.7969 33.4612 52.8176 33.4741 52.8423C33.4869 52.867 33.4927 52.8948 33.4908 52.9226C33.4889 52.9504 33.4793 52.9771 33.4632 52.9998C33.447 53.0225 33.4249 53.0403 33.3993 53.0512V53.0512Z" fill="#FF9300"/>
<path d="M29.323 51.6722C29.4462 51.6722 29.5461 51.5723 29.5461 51.4491C29.5461 51.3259 29.4462 51.226 29.323 51.226C29.1997 51.226 29.0999 51.3259 29.0999 51.4491C29.0999 51.5723 29.1997 51.6722 29.323 51.6722Z" fill="#FF9300"/>
<path d="M30.1857 51.6722C30.309 51.6722 30.4088 51.5723 30.4088 51.4491C30.4088 51.3259 30.309 51.226 30.1857 51.226C30.0625 51.226 29.9626 51.3259 29.9626 51.4491C29.9626 51.5723 30.0625 51.6722 30.1857 51.6722Z" fill="#FF9300"/>
<path d="M31.0485 51.6722C31.1718 51.6722 31.2716 51.5723 31.2716 51.4491C31.2716 51.3259 31.1718 51.226 31.0485 51.226C30.9253 51.226 30.8254 51.3259 30.8254 51.4491C30.8254 51.5723 30.9253 51.6722 31.0485 51.6722Z" fill="#FF9300"/>
<path d="M84.8901 38.2633H53.177C52.5515 38.2633 52.0444 38.7704 52.0444 39.3959V59.7829C52.0444 60.4084 52.5515 60.9155 53.177 60.9155H84.8901C85.5157 60.9155 86.0228 60.4084 86.0228 59.7829V39.3959C86.0228 38.7704 85.5157 38.2633 84.8901 38.2633Z" fill="url(#paint3_linear)"/>
<path d="M75.8482 67.7678C72.4881 67.2392 72.356 64.823 72.356 60.9155H65.6924C65.6924 64.823 65.5792 67.2392 62.2191 67.7678C61.7553 67.8191 61.3269 68.0405 61.0166 68.3891C60.7064 68.7377 60.5363 69.1888 60.5391 69.6555H77.5282C77.5311 69.1888 77.3609 68.7376 77.0507 68.389C76.7404 68.0404 76.312 67.8191 75.8482 67.7678V67.7678Z" fill="url(#paint4_linear)"/>
<path d="M61.8223 54.2716L68.01 43.7085C68.1145 43.53 68.264 43.3819 68.4435 43.279C68.623 43.1762 68.8263 43.122 69.0331 43.122C69.24 43.122 69.4433 43.1762 69.6228 43.279C69.8023 43.3819 69.9517 43.53 70.0563 43.7085L76.244 54.2716C76.3495 54.4517 76.4056 54.6566 76.4066 54.8653C76.4076 55.0741 76.3535 55.2794 76.2496 55.4606C76.1458 55.6417 75.996 55.7922 75.8154 55.8969C75.6347 56.0016 75.4296 56.0567 75.2209 56.0567H62.8454C62.6367 56.0567 62.4316 56.0016 62.2509 55.8969C62.0703 55.7922 61.9205 55.6417 61.8167 55.4606C61.7128 55.2795 61.6587 55.0741 61.6597 54.8653C61.6607 54.6566 61.7168 54.4517 61.8223 54.2716V54.2716Z" fill="#FF9300"/>
<path d="M62.8458 55.2662C62.7762 55.2662 62.7079 55.2479 62.6476 55.213C62.5874 55.1782 62.5375 55.128 62.5028 55.0677C62.4682 55.0073 62.4501 54.9389 62.4504 54.8693C62.4508 54.7997 62.4694 54.7314 62.5046 54.6714L68.6921 44.108C68.727 44.0485 68.7769 43.9991 68.8367 43.9648C68.8966 43.9305 68.9644 43.9125 69.0334 43.9125C69.1024 43.9125 69.1702 43.9306 69.23 43.9649C69.2899 43.9993 69.3397 44.0487 69.3746 44.1082L75.5621 54.6712C75.5973 54.7312 75.6159 54.7995 75.6163 54.8691C75.6166 54.9386 75.5986 55.0071 75.564 55.0674C75.5294 55.1278 75.4795 55.178 75.4193 55.2129C75.3592 55.2478 75.2908 55.2662 75.2213 55.2662L62.8458 55.2662Z" fill="#FFCA00"/>
<path d="M71.3902 52.8943C71.3369 52.8942 71.2845 52.8804 71.2381 52.8543C71.1916 52.8282 71.1526 52.7906 71.1248 52.7452C71.0969 52.6997 71.0812 52.6479 71.0791 52.5947C71.077 52.5414 71.0886 52.4885 71.1127 52.441C71.2918 52.0881 71.3732 51.6937 71.3486 51.2987C71.324 50.9037 71.1941 50.5225 70.9726 50.1946C70.751 49.8666 70.4458 49.6039 70.0885 49.4337C69.7312 49.2634 69.3349 49.1918 68.9407 49.2263C68.8584 49.2334 68.7766 49.2075 68.7133 49.1544C68.6501 49.1012 68.6105 49.0251 68.6032 48.9428C68.596 48.8605 68.6218 48.7787 68.6748 48.7154C68.7278 48.652 68.8038 48.6123 68.8861 48.6049C69.3912 48.5608 69.8989 48.6526 70.3566 48.8708C70.8143 49.0889 71.2053 49.4255 71.4891 49.8457C71.773 50.2658 71.9393 50.7542 71.9708 51.2602C72.0023 51.7663 71.8979 52.2715 71.6684 52.7237C71.6424 52.775 71.6025 52.8182 71.5534 52.8483C71.5043 52.8784 71.4478 52.8943 71.3902 52.8943V52.8943Z" fill="#FF9300"/>
<path d="M69.1285 54.2791C68.67 54.2781 68.2184 54.1661 67.8125 53.9528C67.4065 53.7395 67.0582 53.4312 66.7971 53.0541C66.5361 52.6771 66.3701 52.2425 66.3134 51.7874C66.2566 51.3324 66.3108 50.8703 66.4712 50.4407C66.4854 50.4022 66.5071 50.3669 66.535 50.3368C66.5629 50.3067 66.5965 50.2824 66.6338 50.2654C66.6711 50.2483 66.7114 50.2387 66.7524 50.2373C66.7934 50.2358 66.8343 50.2425 66.8728 50.2569C66.9112 50.2713 66.9464 50.2931 66.9764 50.3211C67.0063 50.3492 67.0305 50.3828 67.0474 50.4202C67.0643 50.4576 67.0737 50.498 67.075 50.539C67.0763 50.58 67.0695 50.6209 67.0549 50.6592C66.9238 51.0102 66.8836 51.3887 66.9383 51.7595C66.9929 52.1302 67.1405 52.481 67.3673 52.7793C67.5941 53.0775 67.8928 53.3135 68.2354 53.4652C68.578 53.6169 68.9535 53.6794 69.3268 53.6468C69.409 53.6406 69.4903 53.6668 69.5534 53.7198C69.6166 53.7728 69.6565 53.8483 69.6647 53.9303C69.6719 54.0127 69.6461 54.0946 69.5929 54.1579C69.5398 54.2212 69.4637 54.2609 69.3813 54.2681C69.2966 54.2755 69.2126 54.2791 69.1285 54.2791Z" fill="#FF9300"/>
<path d="M65.8027 50.2005L67.2213 49.3787C67.2421 49.3667 67.2655 49.3598 67.2895 49.3585C67.3134 49.3573 67.3374 49.3618 67.3593 49.3717C67.3811 49.3816 67.4004 49.3965 67.4153 49.4153C67.4303 49.434 67.4406 49.4561 67.4453 49.4796L67.7672 51.0757C67.7726 51.1029 67.7705 51.1311 67.7611 51.1572C67.7516 51.1833 67.7351 51.2062 67.7135 51.2236C67.6918 51.2409 67.6658 51.252 67.6383 51.2555C67.6108 51.2591 67.5829 51.255 67.5575 51.2437L65.817 50.4694C65.7915 50.4581 65.7697 50.4399 65.7539 50.417C65.7381 50.394 65.729 50.3672 65.7275 50.3393C65.726 50.3115 65.7323 50.2838 65.7455 50.2593C65.7588 50.2348 65.7786 50.2144 65.8027 50.2005V50.2005Z" fill="#FF9300"/>
<path d="M72.2471 53.0512L70.7389 53.694C70.7168 53.7034 70.6928 53.7074 70.6689 53.7057C70.6449 53.704 70.6217 53.6966 70.6012 53.6841C70.5807 53.6717 70.5634 53.6545 70.5508 53.6341C70.5383 53.6136 70.5308 53.5905 70.5289 53.5665L70.404 51.9431C70.4019 51.9154 70.4074 51.8877 70.42 51.863C70.4326 51.8383 70.4517 51.8175 70.4753 51.8029C70.4989 51.7883 70.5261 51.7805 70.5538 51.7803C70.5815 51.7801 70.6088 51.7876 70.6326 51.8019L72.2657 52.7825C72.2896 52.7969 72.3091 52.8176 72.3219 52.8423C72.3348 52.867 72.3406 52.8948 72.3387 52.9226C72.3368 52.9504 72.3272 52.9771 72.311 52.9998C72.2949 53.0225 72.2728 53.0403 72.2471 53.0512Z" fill="#FF9300"/>
<path fill-rule="evenodd" clip-rule="evenodd" d="M70.0256 50.811C69.9829 50.7683 69.925 50.7443 69.8646 50.7443C69.8042 50.7443 69.7463 50.7683 69.7035 50.811L68.9528 51.5612L68.6816 51.2926C68.6753 51.2832 68.6681 51.2744 68.6602 51.2662C68.6178 51.2237 68.5603 51.1996 68.5002 51.1993C68.4401 51.199 68.3823 51.2225 68.3395 51.2646C68.2966 51.3068 68.2722 51.3641 68.2715 51.4242C68.2708 51.4843 68.2939 51.5422 68.3357 51.5853L68.333 51.5881L68.7924 52.0433C68.8352 52.086 68.8931 52.11 68.9535 52.11C69.0139 52.11 69.0719 52.086 69.1146 52.0433L70.0249 51.1334L70.0256 51.1328C70.0468 51.1117 70.0636 51.0866 70.075 51.059C70.0864 51.0314 70.0923 51.0018 70.0923 50.9719C70.0923 50.942 70.0864 50.9124 70.075 50.8848C70.0636 50.8572 70.0468 50.8321 70.0256 50.811Z" fill="#FF9300"/>
<path d="M23.2358 30.1021H76.0436" stroke="white" stroke-width="0.5" stroke-miterlimit="10"/>
<path d="M23.2358 31.5239C24.0211 31.5239 24.6576 30.8873 24.6576 30.1021C24.6576 29.3168 24.0211 28.6802 23.2358 28.6802C22.4505 28.6802 21.814 29.3168 21.814 30.1021C21.814 30.8873 22.4505 31.5239 23.2358 31.5239Z" fill="#0078D4" stroke="white" stroke-width="0.5" stroke-miterlimit="10"/>
<path d="M76.0437 31.5239C76.8289 31.5239 77.4655 30.8873 77.4655 30.1021C77.4655 29.3168 76.8289 28.6802 76.0437 28.6802C75.2584 28.6802 74.6218 29.3168 74.6218 30.1021C74.6218 30.8873 75.2584 31.5239 76.0437 31.5239Z" fill="#0078D4" stroke="white" stroke-width="0.5" stroke-miterlimit="10"/>
<path d="M49.6398 33.6293C51.5878 33.6293 53.167 32.0501 53.167 30.1021C53.167 28.1541 51.5878 26.5749 49.6398 26.5749C47.6917 26.5749 46.1125 28.1541 46.1125 30.1021C46.1125 32.0501 47.6917 33.6293 49.6398 33.6293Z" fill="#50E6FF" stroke="white" stroke-width="0.5" stroke-miterlimit="10"/>
<path d="M49.7419 28.2828L50.2903 29.3941L51.5167 29.5723C51.5376 29.5753 51.5573 29.5841 51.5734 29.5978C51.5896 29.6114 51.6016 29.6292 51.6081 29.6493C51.6147 29.6694 51.6154 29.691 51.6104 29.7115C51.6053 29.732 51.5946 29.7507 51.5795 29.7654L50.692 30.6304L50.9015 31.8519C50.9051 31.8727 50.9028 31.8941 50.8948 31.9137C50.8869 31.9332 50.8736 31.9502 50.8565 31.9626C50.8394 31.975 50.8192 31.9824 50.7981 31.9839C50.777 31.9854 50.756 31.981 50.7373 31.9712L49.6403 31.3945L48.5434 31.9712C48.5247 31.981 48.5036 31.9854 48.4826 31.9839C48.4615 31.9824 48.4413 31.975 48.4242 31.9626C48.4071 31.9502 48.3938 31.9332 48.3858 31.9137C48.3779 31.8941 48.3756 31.8727 48.3791 31.8519L48.5886 30.6304L47.7012 29.7654C47.6861 29.7507 47.6754 29.732 47.6703 29.7115C47.6652 29.691 47.666 29.6694 47.6725 29.6493C47.6791 29.6292 47.6911 29.6114 47.7072 29.5978C47.7234 29.5841 47.743 29.5753 47.7639 29.5723L48.9903 29.3941L49.5388 28.2828C49.5482 28.2638 49.5626 28.2479 49.5806 28.2367C49.5985 28.2256 49.6192 28.2197 49.6403 28.2197C49.6615 28.2197 49.6822 28.2256 49.7001 28.2367C49.718 28.2479 49.7325 28.2638 49.7419 28.2828V28.2828Z" fill="white"/>
</g>
<defs>
<linearGradient id="paint0_linear" x1="47.4222" y1="-15.1531" x2="51.405" y2="130.615" gradientUnits="userSpaceOnUse">
<stop stop-color="#00ABDE"/>
<stop offset="1" stop-color="#007ED8"/>
</linearGradient>
<linearGradient id="paint1_linear" x1="30.1857" y1="60.9155" x2="30.1857" y2="38.2633" gradientUnits="userSpaceOnUse">
<stop stop-color="#0078D4"/>
<stop offset="0.82" stop-color="#5EA0EF"/>
</linearGradient>
<linearGradient id="paint2_linear" x1="30.1857" y1="69.6555" x2="30.1857" y2="60.9155" gradientUnits="userSpaceOnUse">
<stop offset="0.15" stop-color="#CCCCCC"/>
<stop offset="1" stop-color="#707070"/>
</linearGradient>
<linearGradient id="paint3_linear" x1="69.0336" y1="60.8144" x2="69.0336" y2="38.268" gradientUnits="userSpaceOnUse">
<stop stop-color="#0078D4"/>
<stop offset="0.16" stop-color="#1380DA"/>
<stop offset="0.53" stop-color="#3C91E5"/>
<stop offset="0.82" stop-color="#559CEC"/>
<stop offset="1" stop-color="#5EA0EF"/>
</linearGradient>
<linearGradient id="paint4_linear" x1="69.0336" y1="69.6555" x2="69.0336" y2="60.9155" gradientUnits="userSpaceOnUse">
<stop offset="0.15" stop-color="#CCCCCC"/>
<stop offset="1" stop-color="#707070"/>
</linearGradient>
<clipPath id="clip0">
<rect width="99.2799" height="99.28" fill="white"/>
</clipPath>
</defs>
</svg>
