<svg width="103" height="103" viewBox="0 0 103 103" fill="none" xmlns="http://www.w3.org/2000/svg">
<path d="M51.8045 98.142C25.9545 98.142 4.99451 77.192 4.99451 51.332C4.99451 25.472 25.9545 4.52197 51.8045 4.52197C77.6545 4.52197 98.6145 25.482 98.6145 51.332C98.6145 77.182 77.6545 98.142 51.8045 98.142Z" fill="url(#paint0_linear)"/>
<path fill-rule="evenodd" clip-rule="evenodd" d="M51.8045 1.33203C79.4145 1.33203 101.805 23.722 101.805 51.332C101.805 78.942 79.4145 101.332 51.8045 101.332C24.1945 101.332 1.8045 78.942 1.8045 51.332C1.8045 23.722 24.1945 1.33203 51.8045 1.33203ZM51.8045 97.092C77.0745 97.092 97.5645 76.602 97.5645 51.332C97.5645 26.062 77.0745 5.57203 51.8045 5.57203C26.5345 5.57203 6.0445 26.062 6.0445 51.332C6.0445 76.602 26.5345 97.092 51.8045 97.092Z" fill="#D9D9D9"/>
<path fill-rule="evenodd" clip-rule="evenodd" d="M97.7045 51.3319C97.7045 76.6819 77.1545 97.2319 51.8045 97.2319C26.4545 97.2319 5.90449 76.6819 5.90449 51.3319C5.90449 25.9819 26.4545 5.43189 51.8045 5.43189C77.1545 5.43189 97.7045 25.9819 97.7045 51.3319ZM51.8045 1.69189C79.2245 1.69189 101.444 23.9119 101.444 51.3319C101.444 78.7519 79.2145 100.972 51.8045 100.972C24.3845 100.972 2.16449 78.7419 2.16449 51.3319C2.16449 23.9119 24.3845 1.69189 51.8045 1.69189Z" fill="#F2F1F0"/>
<path fill-rule="evenodd" clip-rule="evenodd" d="M51.8045 94.422C28.0045 94.422 8.71449 75.132 8.71449 51.332C8.71449 27.532 28.0045 8.24195 51.8045 8.24195C75.6045 8.24195 94.8945 27.532 94.8945 51.332C94.8945 75.132 75.6045 94.422 51.8045 94.422ZM98.6345 51.332C98.6345 77.192 77.6645 98.162 51.8045 98.162C25.9445 98.162 4.97449 77.192 4.97449 51.332C4.97449 25.472 25.9445 4.50195 51.8045 4.50195C77.6645 4.50195 98.6345 25.462 98.6345 51.332Z" fill="url(#paint1_linear)"/>
<path d="M81.0545 66.8119L27.5445 66.8619C27.3645 66.8619 27.2245 66.7219 27.2245 66.5419L27.1845 26.5619C27.1845 26.3819 27.3245 26.2419 27.5045 26.2419L81.0145 26.1919C81.1945 26.1919 81.3345 26.3319 81.3345 26.5119L81.3745 66.4819C81.3745 66.6619 81.2345 66.8119 81.0545 66.8119Z" fill="#E6E6E6"/>
<path d="M79.1745 26.6519L55.4545 26.6719L80.6045 51.7019L80.5845 28.0619C80.5945 27.2819 79.9545 26.6519 79.1745 26.6519Z" fill="url(#paint2_linear)"/>
<path d="M80.5145 27.6219C80.3245 27.0619 79.7945 26.6519 79.1745 26.6519L27.8445 26.7019C27.0645 26.7019 26.4245 27.3319 26.4345 28.1219V31.7219L80.5145 31.6719V27.6219Z" fill="#7B83EB"/>
<path d="M80.5945 31.6619C80.5945 31.6619 81.4245 26.6519 80.6345 26.6519L55.4545 26.6719L60.4745 31.6819L80.5945 31.6619Z" fill="#99A5FF"/>
<path d="M65.9146 49.0718L54.4146 49.0818C52.7646 49.0818 51.4146 50.4318 51.4146 52.0818V56.7818C51.4146 58.4318 52.7646 59.7818 54.4146 59.7818H57.4945V62.1818C57.4945 62.3718 57.7246 62.4718 57.8646 62.3318L60.4146 59.7718L65.9045 59.7618C67.5545 59.7618 68.9045 58.4118 68.9045 56.7618V52.0618C68.9145 50.4218 67.5646 49.0718 65.9146 49.0718Z" fill="#7B83EB"/>
<path d="M61.9945 52.6719L54.6045 52.6819C54.3445 52.6819 54.1345 52.4719 54.1345 52.2119C54.1345 51.9519 54.3445 51.7419 54.6045 51.7419L61.9945 51.7319C62.2545 51.7319 62.4645 51.9419 62.4645 52.2019C62.4645 52.4619 62.2545 52.6719 61.9945 52.6719Z" fill="white"/>
<path d="M61.9945 54.8819L54.6045 54.8919C54.3445 54.8919 54.1345 54.6819 54.1345 54.4219C54.1345 54.1619 54.3445 53.9519 54.6045 53.9519L61.9945 53.9419C62.2545 53.9419 62.4645 54.1519 62.4645 54.4119C62.4645 54.6719 62.2545 54.8819 61.9945 54.8819Z" fill="white"/>
<path d="M56.9045 57.1021H54.6045C54.3445 57.1021 54.1345 56.8921 54.1345 56.6321C54.1345 56.3721 54.3445 56.1621 54.6045 56.1621H56.9045C57.1645 56.1621 57.3745 56.3721 57.3745 56.6321C57.3745 56.8921 57.1645 57.1021 56.9045 57.1021Z" fill="white"/>
<path d="M41.1345 36.6721L52.6345 36.6621C54.2845 36.6621 55.6345 38.0121 55.6345 39.6621V44.3621C55.6345 46.0121 54.2845 47.3621 52.6345 47.3621H49.5545V49.7421C49.5545 49.9421 49.3045 50.0421 49.1645 49.9021L46.6245 47.3721L41.1345 47.3821C39.4845 47.3821 38.1345 46.0321 38.1345 44.3821V39.6821C38.1445 38.0221 39.4945 36.6721 41.1345 36.6721Z" fill="white"/>
<path d="M45.0745 40.262L52.4645 40.252C52.7245 40.252 52.9345 40.042 52.9345 39.782C52.9345 39.522 52.7245 39.312 52.4645 39.312L45.0745 39.322C44.8145 39.322 44.6045 39.532 44.6045 39.792C44.5945 40.052 44.8145 40.262 45.0745 40.262Z" fill="#99A5FF"/>
<path d="M45.0745 42.472L52.4645 42.462C52.7245 42.462 52.9345 42.252 52.9345 41.992C52.9345 41.732 52.7245 41.522 52.4645 41.522L45.0745 41.532C44.8145 41.532 44.6045 41.742 44.6045 42.002C44.6045 42.262 44.8145 42.472 45.0745 42.472Z" fill="#99A5FF"/>
<path d="M70.7645 55.422C74.1245 55.422 76.8445 52.692 76.8445 49.332C76.8445 45.972 74.1145 43.252 70.7545 43.252C67.3945 43.252 64.6745 45.982 64.6745 49.342C64.6745 52.702 67.4045 55.422 70.7645 55.422Z" fill="#B5D5EA"/>
<path d="M76.2445 51.9817C76.2045 51.9817 76.1745 51.9717 76.1345 51.9717L70.7245 51.9817H65.7445C65.5945 51.9817 65.4445 52.0017 65.3045 52.0417C66.3045 54.0517 68.3745 55.4317 70.7645 55.4217C73.1845 55.4217 75.2645 54.0117 76.2445 51.9817Z" fill="#2B88D8"/>
<path d="M74.8245 52.0817L74.8445 51.9717L66.5445 51.9817L66.5645 52.0917C66.7345 52.8117 67.1145 53.3917 67.7045 53.8417C68.2945 54.2917 68.9645 54.5217 69.7145 54.5217H71.6945C72.1245 54.5217 72.5345 54.4417 72.9345 54.2817C73.3245 54.1217 73.6645 53.8917 73.9745 53.5917C74.4045 53.1617 74.6845 52.6617 74.8245 52.0817Z" fill="#2B88D8"/>
<path d="M68.0045 53.4419C68.5045 53.8319 69.0745 54.0219 69.7145 54.0219H71.6945C72.4445 54.0219 73.0845 53.7619 73.6245 53.2419C73.9845 52.8919 74.2245 52.4619 74.3445 51.9619L67.0545 51.9719C67.1945 52.5719 67.5145 53.0619 68.0045 53.4419Z" fill="#9A6541"/>
<path d="M70.2046 49.6821C70.3046 49.7521 70.4145 49.8021 70.5445 49.8221C70.6745 49.8521 70.7945 49.8521 70.9045 49.8321C71.0645 49.8021 71.1845 49.7321 71.2545 49.6421C71.2745 49.6221 71.2846 49.6021 71.2746 49.5721C71.2646 49.5421 71.2546 49.5221 71.2346 49.5121C71.2146 49.4921 71.1845 49.4821 71.1445 49.4921L71.1145 49.5021C70.9945 49.5421 70.8345 49.5421 70.6145 49.5021C70.4945 49.4721 70.4146 49.4421 70.3546 49.4121C70.2646 49.3721 70.1945 49.3321 70.1545 49.2821L70.1445 49.2621C70.0845 49.2121 70.0346 49.2121 69.9846 49.2621C69.9446 49.2921 69.9446 49.3221 69.9646 49.3621C70.0046 49.5021 70.0846 49.6021 70.2046 49.6821Z" fill="#9A6541"/>
<path d="M73.7045 51.512C73.7045 51.152 73.7445 47.772 73.7445 47.772L67.8045 48.002L67.8245 51.532C67.8145 51.922 67.2545 52.012 67.2545 52.012C67.6545 52.462 69.1745 53.062 70.8545 52.942C72.6845 52.922 73.6545 52.352 74.1545 51.962C74.1545 51.962 73.7045 51.992 73.7045 51.512Z" fill="#9A6541"/>
<path d="M73.2745 48.5618C73.4045 48.7018 73.5445 48.7618 73.7145 48.7618C73.8845 48.7518 74.0245 48.6818 74.1345 48.5318C74.2545 48.3918 74.3045 48.2218 74.3045 48.0318C74.2945 47.8318 74.2245 47.6718 74.1045 47.5318C73.9745 47.4018 73.8345 47.3418 73.6645 47.3418C73.4945 47.3518 73.3545 47.4318 73.2445 47.5718C73.1245 47.7118 73.0645 47.8818 73.0745 48.0718C73.0845 48.2618 73.1545 48.4218 73.2745 48.5618Z" fill="#9A6541"/>
<path d="M67.2045 48.1018C67.2145 48.3018 67.2745 48.4618 67.4045 48.6018C67.5345 48.7418 67.6745 48.8018 67.8445 48.7918C68.0145 48.7818 68.1545 48.7118 68.2645 48.5718C68.3745 48.4318 68.4245 48.2618 68.4245 48.0718C68.4145 47.8818 68.3545 47.7118 68.2245 47.5718C68.0945 47.4418 67.9545 47.3818 67.7845 47.3818C67.6145 47.3918 67.4745 47.4618 67.3645 47.6018C67.2545 47.7418 67.1945 47.9018 67.2045 48.1018Z" fill="#9A6541"/>
<path d="M67.7945 47.372V49.172C67.8145 49.882 68.1145 50.582 68.6345 51.062C69.1545 51.552 69.7645 51.782 70.4645 51.752L71.3245 51.712C72.0245 51.692 72.6245 51.412 73.1045 50.892C73.5845 50.362 73.7645 49.852 73.7745 49.112L73.7345 47.302C73.7045 46.552 73.4245 45.922 72.8745 45.402C72.3245 44.892 71.8045 44.632 71.0545 44.662H70.3345C69.5845 44.692 68.9845 45.022 68.4745 45.582C67.9645 46.132 67.7645 46.622 67.7945 47.372Z" fill="#9A6541"/>
<path d="M70.8445 45.6221L71.0345 50.6321L73.3745 50.3821L73.1945 45.7821L70.8445 45.6221Z" fill="url(#paint3_radial)"/>
<path opacity="0.75" d="M73.4445 47.3921V47.9521C73.4545 48.3021 73.3345 48.6121 73.0845 48.8721C72.8245 49.1321 72.5645 49.2721 72.1945 49.3121C71.6145 49.3821 71.4945 49.0421 70.7045 49.0621C70.0045 49.0821 69.6445 49.4021 69.1845 49.3621C68.8945 49.3321 68.6245 49.1821 68.4145 48.9621C68.2045 48.7321 68.0945 48.4721 68.0845 48.1721L68.0745 47.4621L67.7445 47.4521L67.8145 49.2721C67.8345 49.9821 68.1045 50.5821 68.6245 51.0721C69.1445 51.5621 69.6245 51.7521 70.2545 51.7621L71.3145 51.7521C72.1045 51.7521 72.6045 51.4221 73.0845 50.8921C73.5645 50.3621 73.7945 49.7421 73.7745 49.0321L73.7245 47.4021L73.4445 47.3921Z" fill="url(#paint4_linear)"/>
<path d="M71.1545 48.8821C71.2745 48.8421 71.3745 48.7721 71.4545 48.6721C71.5345 48.5621 71.5745 48.4521 71.5645 48.3221C71.5545 48.1221 71.4545 47.9721 71.2845 47.8621C71.0845 47.7321 70.9645 47.5921 70.9345 47.4321L70.6445 47.7821C70.4545 48.0421 70.3545 48.2321 70.3645 48.3621C70.3745 48.5321 70.4345 48.7021 70.5545 48.8621C70.6645 48.9721 70.7945 49.0421 70.9545 49.0421C71.0145 48.9621 71.0945 48.8921 71.1545 48.8821Z" fill="#9A6541"/>
<path d="M71.4045 49.7219C71.3345 49.8319 71.2245 49.9219 71.0945 49.9719C70.9645 50.0219 70.8345 50.0419 70.6945 50.0319C70.5545 50.0219 70.4245 49.9719 70.3145 49.8919C70.2045 49.8119 70.1145 49.6919 70.0745 49.5619C70.0645 49.5219 70.0845 49.4819 70.1245 49.4719C70.1445 49.4619 70.1645 49.4719 70.1745 49.4819H70.1845C70.3845 49.5919 70.5445 49.6319 70.7345 49.6519C70.9145 49.6719 71.1045 49.6619 71.3245 49.6119C71.3645 49.6019 71.4045 49.6319 71.4045 49.6719C71.4145 49.6819 71.4145 49.7019 71.4045 49.7219Z" fill="#9A6541"/>
<path d="M69.7545 48.0321C69.8545 48.0321 69.9345 47.8821 69.9345 47.7021C69.9345 47.5221 69.8545 47.3721 69.7445 47.3721C69.6445 47.3721 69.5645 47.5221 69.5645 47.7021C69.5745 47.8821 69.6545 48.0321 69.7545 48.0321Z" fill="#33312D"/>
<path d="M71.9045 48.0321C72.0045 48.0321 72.0845 47.8821 72.0845 47.7021C72.0845 47.5221 72.0045 47.3721 71.8945 47.3721C71.7945 47.3721 71.7145 47.5221 71.7145 47.7021C71.7245 47.8821 71.8045 48.0321 71.9045 48.0321Z" fill="#33312D"/>
<path d="M36.3045 42.1021C39.6645 42.1021 42.3845 39.3721 42.3845 36.0121C42.3845 32.6521 39.6545 29.9321 36.2945 29.9321C32.9345 29.9321 30.2145 32.6621 30.2145 36.0221C30.2145 39.3821 32.9345 42.1121 36.3045 42.1021Z" fill="#FFB900"/>
<path d="M41.1445 39.7017C40.7345 39.1717 40.3045 38.7617 39.8645 38.4717C39.2945 38.0917 38.6345 37.8617 37.8945 37.7817C37.6845 37.7317 37.4645 37.7117 37.2445 37.7217H35.3545C35.1245 37.7117 34.9045 37.7417 34.6745 37.7917C33.9645 37.8817 33.3345 38.1017 32.7745 38.4717C32.3245 38.7717 31.8845 39.2017 31.4745 39.7417C32.5845 41.1817 34.3345 42.1017 36.2945 42.1017C38.2745 42.1017 40.0345 41.1617 41.1445 39.7017Z" fill="#53ADE5"/>
<path d="M34.1745 37.8817C34.5345 37.7817 34.9145 37.7217 35.3145 37.7217H37.4345C37.7945 37.7217 38.1345 37.7617 38.4545 37.8417C38.4145 38.0717 37.8345 38.8417 36.2945 38.8417C34.7645 38.8517 34.2445 38.1017 34.1745 37.8817Z" fill="#BE906B"/>
<path d="M35.0545 38.3518V36.3418H37.6045V38.3518H35.0545Z" fill="url(#paint5_linear)"/>
<path d="M33.0245 34.5819V34.0119C33.0245 33.2219 33.3045 32.5519 33.8645 31.9919C34.4245 31.4319 35.0945 31.1519 35.8845 31.1519H36.6945C37.4845 31.1519 38.1545 31.4319 38.7145 31.9919C39.2745 32.5519 39.5545 33.2219 39.5545 34.0119V34.5819C39.5545 35.2519 39.3145 35.8219 38.8445 36.2919C38.3745 36.7619 37.8045 37.0019 37.1445 37.0019H35.4345C34.7645 37.0019 34.1945 36.7619 33.7245 36.2919C33.2645 35.8219 33.0245 35.2519 33.0245 34.5819Z" fill="#E1DFDD"/>
<path d="M38.2845 35.712C38.4445 35.582 38.6145 35.542 38.8045 35.572C38.9845 35.612 39.1245 35.722 39.2245 35.902C39.3245 36.082 39.3545 36.282 39.3145 36.502C39.2745 36.722 39.1745 36.892 39.0145 37.022C38.8545 37.152 38.6845 37.192 38.4945 37.152C38.3145 37.122 38.1745 37.002 38.0645 36.822C37.9645 36.642 37.9345 36.442 37.9745 36.222C38.0245 36.012 38.1245 35.842 38.2845 35.712Z" fill="#E1DFDD"/>
<path d="M37.6346 37.212C37.7046 37.042 37.8145 36.922 37.9645 36.842C38.1245 36.762 38.2845 36.752 38.4345 36.812C38.5845 36.872 38.6945 36.972 38.7545 37.132C38.8145 37.292 38.8045 37.452 38.7445 37.612C38.6745 37.782 38.5645 37.902 38.4045 37.982C38.2545 38.062 38.0945 38.062 37.9445 38.012C37.7945 37.962 37.6845 37.842 37.6245 37.692C37.5545 37.542 37.5646 37.382 37.6346 37.212Z" fill="#E1DFDD"/>
<path d="M37.1945 38.2317C37.2345 38.0517 37.3245 37.9017 37.4645 37.7917C37.5945 37.6817 37.7345 37.6417 37.8845 37.6617C38.0345 37.6817 38.1445 37.7617 38.2145 37.9017C38.2845 38.0417 38.3045 38.2017 38.2545 38.3817C38.2045 38.5517 38.1145 38.6917 37.9745 38.8117C37.8345 38.9217 37.6945 38.9717 37.5445 38.9517C37.3945 38.9317 37.2845 38.8417 37.2145 38.7117C37.1645 38.5717 37.1545 38.4117 37.1945 38.2317Z" fill="#E1DFDD"/>
<path d="M37.3345 38.6417C37.4645 38.6217 37.5845 38.6517 37.6845 38.7317C37.7845 38.8217 37.8445 38.9517 37.8645 39.1117C37.8745 39.2717 37.8445 39.4217 37.7645 39.5517C37.6845 39.6817 37.5745 39.7617 37.4445 39.8017C37.3145 39.8317 37.1945 39.8017 37.0945 39.7117C36.9945 39.6217 36.9345 39.4917 36.9145 39.3317C36.9045 39.1717 36.9345 39.0217 37.0145 38.8917C37.0945 38.7517 37.2045 38.6717 37.3345 38.6417Z" fill="#E1DFDD"/>
<path d="M37.3445 39.6517C37.6245 39.6917 37.7845 39.8817 37.8145 40.2117C37.8445 40.5417 37.7345 40.8017 37.4945 40.9917C37.3845 41.0817 37.3245 41.1917 37.3245 41.3217C37.3245 41.3817 37.3345 41.4417 37.3645 41.4917L37.2045 41.3817C37.1045 41.2917 37.0545 41.1717 37.0645 41.0317C37.0745 40.9317 37.0445 40.8417 36.9745 40.7717C36.8745 40.6717 36.8145 40.5917 36.7845 40.5117C36.7145 40.3317 36.7245 40.1517 36.8145 39.9517C36.9145 39.7217 37.0945 39.6217 37.3445 39.6517Z" fill="#E1DFDD"/>
<path d="M36.8345 32.6719C37.3145 32.6719 37.7345 32.8419 38.0745 33.1819C38.4145 33.5219 38.5845 33.9319 38.5845 34.4219V35.6719C38.5845 36.1519 38.4145 36.5719 38.0745 36.9119C37.7245 37.2619 37.3145 37.4319 36.8345 37.4319H35.7445C35.2645 37.4319 34.8445 37.2619 34.5045 36.9219C34.1645 36.5819 33.9945 36.1719 33.9945 35.6819V34.4319C33.9945 33.9519 34.1645 33.5319 34.5045 33.1919C34.8545 32.8419 35.2645 32.6719 35.7445 32.6719H36.8345Z" fill="#BE906B"/>
<path d="M36.9645 34.9821C36.9645 34.8921 36.9845 34.8121 37.0145 34.7521C37.0445 34.6921 37.0945 34.6621 37.1445 34.6621C37.1945 34.6621 37.2345 34.6921 37.2645 34.7521C37.2945 34.8121 37.3145 34.8921 37.3145 34.9821C37.3145 35.0821 37.2945 35.1521 37.2645 35.2221C37.2345 35.2821 37.1845 35.3121 37.1345 35.3121C37.0845 35.3121 37.0445 35.2821 37.0145 35.2121C36.9845 35.1521 36.9645 35.0721 36.9645 34.9821Z" fill="#33312D"/>
<path d="M38.5845 34.5418C38.5845 34.5418 37.8045 34.3418 37.5045 34.2618C37.1045 34.1618 36.4945 33.8618 36.3145 33.2918C36.1345 32.7218 36.1945 31.8818 36.1945 31.8818L38.5345 32.1018L38.5845 34.5418Z" fill="#E1DFDD"/>
<path d="M34.6845 34.6118H36.1445L36.1345 36.3918L34.6745 36.3818L34.6845 34.6118Z" fill="url(#paint6_radial)"/>
<path d="M35.1145 34.9821C35.1145 34.8921 35.1345 34.8121 35.1645 34.7521C35.1945 34.6921 35.2445 34.6621 35.2945 34.6621C35.3445 34.6621 35.3845 34.6921 35.4145 34.7521C35.4445 34.8121 35.4645 34.8921 35.4645 34.9821C35.4645 35.0821 35.4445 35.1521 35.4145 35.2221C35.3845 35.2821 35.3345 35.3121 35.2845 35.3121C35.2345 35.3121 35.1945 35.2821 35.1645 35.2121C35.1345 35.1521 35.1145 35.0721 35.1145 34.9821Z" fill="#33312D"/>
<path d="M38.2045 34.4819H38.4145C38.6145 34.4819 38.7845 34.5519 38.9345 34.7019C39.0745 34.8519 39.1445 35.0219 39.1445 35.2319C39.1445 35.4419 39.0745 35.6219 38.9245 35.7619C38.7845 35.9019 38.6145 35.9819 38.4045 35.9819H38.2045V34.4819Z" fill="#BE906B"/>
<path d="M34.2945 34.5117H34.0845C33.8845 34.5117 33.7145 34.5817 33.5645 34.7317C33.4245 34.8817 33.3545 35.0517 33.3545 35.2517C33.3545 35.4517 33.4245 35.6317 33.5745 35.7717C33.7145 35.9117 33.8845 35.9817 34.0945 35.9817H34.2945V34.5117Z" fill="#BE906B"/>
<path opacity="0.5" d="M35.9745 36.3319C36.0345 36.3319 36.0945 36.3219 36.1545 36.3119C36.2145 36.3019 36.2745 36.2819 36.3345 36.2619C36.3945 36.2419 36.4445 36.2219 36.4945 36.1919C36.5445 36.1619 36.5945 36.1419 36.6445 36.0919L36.6545 36.0819C36.6745 36.0619 36.7045 36.0619 36.7245 36.0819C36.7345 36.0919 36.7345 36.1019 36.7345 36.1119C36.7445 36.2119 36.7045 36.3019 36.6345 36.3719C36.5745 36.4419 36.4945 36.4819 36.4045 36.5119C36.3245 36.5419 36.2345 36.5519 36.1445 36.5419C36.0545 36.5319 35.9545 36.4919 35.9045 36.4019C35.8945 36.3819 35.8945 36.3519 35.9245 36.3319C35.9345 36.3319 35.9445 36.3319 35.9545 36.3319H35.9745Z" fill="#9A6541"/>
<path d="M36.4945 35.4217C36.4945 35.6217 36.3246 36.1917 36.1446 36.2317C36.1446 36.2317 36.1345 36.1717 36.1245 36.0917C36.1045 35.9617 36.0245 35.8417 35.9045 35.7817C35.7945 35.7217 35.6646 35.6217 35.6646 35.4217C35.6646 35.2217 35.8146 35.1117 35.9346 35.0517C36.0446 35.0017 36.1145 34.8917 36.1245 34.7717C36.1445 34.6517 36.1545 34.5317 36.1545 34.5317C36.2745 34.6017 36.4945 35.2617 36.4945 35.4217Z" fill="#BE906B"/>
<path d="M81.7945 24.7119L26.5945 24.7619C25.1245 24.7619 23.9445 25.9519 23.9445 27.4219L23.9845 65.6819C23.9845 67.1519 25.1745 68.3319 26.6445 68.3319L81.8445 68.2819C83.3145 68.2819 84.4945 67.0919 84.4945 65.6219L84.4545 27.3619C84.4545 25.9019 83.2645 24.7119 81.7945 24.7119ZM80.5245 65.5819C80.5245 65.8419 80.3145 66.0519 80.0545 66.0519L28.5245 66.1019C28.2645 66.1019 28.0545 65.8919 28.0545 65.6319L28.0145 27.3919C28.0145 27.1319 28.2245 26.9219 28.4845 26.9219L80.0145 26.8719C80.2745 26.8719 80.4845 27.0819 80.4845 27.3419L80.5245 65.5819Z" fill="#3B42AD"/>
<path d="M26.0945 47.5019C26.6445 47.5019 27.0945 47.0519 27.0845 46.5019C27.0845 45.9519 26.6345 45.5019 26.0845 45.5119C25.5345 45.5119 25.0845 45.9619 25.0945 46.5119C25.0945 47.0519 25.5445 47.5019 26.0945 47.5019Z" fill="#737373"/>
<path d="M39.8344 69.6421H47.0644C47.5544 69.6421 47.9644 70.0421 47.9644 70.5421V71.7621C47.9644 72.2521 47.5644 72.6621 47.0644 72.6621H39.8344C39.3444 72.6621 38.9344 72.2621 38.9344 71.7621V70.5321C38.9444 70.0421 39.3444 69.6421 39.8344 69.6421ZM47.0744 72.0821C47.2544 72.0821 47.4044 71.9321 47.4044 71.7521V70.5321C47.4044 70.3521 47.2544 70.2021 47.0744 70.2021H39.8444C39.6644 70.2021 39.5144 70.3521 39.5144 70.5321V71.7521C39.5144 71.9321 39.6644 72.0821 39.8444 72.0821H47.0744Z" fill="#D69521"/>
<path d="M47.0745 71.622L46.6645 75.682C46.6245 76.062 46.3345 76.352 45.9845 76.352H40.9645C40.6145 76.352 40.3145 76.062 40.2845 75.682L39.8745 71.622C39.8245 71.182 40.1445 70.792 40.5545 70.792H46.4045C46.8045 70.792 47.1245 71.182 47.0745 71.622Z" fill="#5059C9"/>
<path d="M40.0145 73.152H46.9145L47.0745 71.622C47.1245 71.182 46.8045 70.792 46.3945 70.792H40.5445C40.1345 70.792 39.8145 71.182 39.8645 71.622L40.0145 73.152Z" fill="#3B42AD"/>
<path d="M47.0745 60.812H39.8445C39.3545 60.812 38.9445 60.412 38.9445 59.912V58.692C38.9445 58.202 39.3445 57.792 39.8445 57.792H47.0745C47.5645 57.792 47.9745 58.192 47.9745 58.692V59.912C47.9645 60.412 47.5645 60.812 47.0745 60.812ZM39.8345 58.362C39.6545 58.362 39.5045 58.512 39.5045 58.692V59.912C39.5045 60.092 39.6545 60.242 39.8345 60.242H47.0645C47.2445 60.242 47.3945 60.092 47.3945 59.912V58.692C47.3945 58.512 47.2445 58.362 47.0645 58.362H39.8345Z" fill="#D69521"/>
<path d="M39.8344 58.8321L40.2444 54.772C40.2844 54.392 40.5744 54.1021 40.9244 54.1021H45.9444C46.2944 54.1021 46.5944 54.392 46.6244 54.772L47.0344 58.8321C47.0844 59.2721 46.7644 59.6621 46.3544 59.6621H40.5044C40.1044 59.6621 39.7844 59.2721 39.8344 58.8321Z" fill="#7B83EB"/>
<path d="M46.9044 57.4219H39.9744L39.8344 58.8219C39.7844 59.2619 40.1044 59.6519 40.5144 59.6519H46.3644C46.7744 59.6519 47.0944 59.2619 47.0444 58.8219L46.9044 57.4219Z" fill="#3B42AD"/>
<path d="M48.7645 63.8619H49.3245C49.4945 63.8619 49.6245 63.7219 49.6245 63.5619V62.0319C49.6245 61.8619 49.4845 61.7319 49.3245 61.7319H48.7645C48.5945 61.7319 48.4645 61.8719 48.4645 62.0319V63.5519C48.4545 63.7319 48.5945 63.8619 48.7645 63.8619Z" fill="#D2D2D2"/>
<path d="M49.6245 62.0923H49.2645V62.2823H49.6245V62.0923Z" fill="#939393"/>
<path d="M49.6245 62.4722H49.2645V62.6622H49.6245V62.4722Z" fill="#939393"/>
<path d="M49.6245 62.8521H49.2645V63.042H49.6245V62.8521Z" fill="#939393"/>
<path d="M49.6245 63.2319H49.2645V63.4219H49.6245V63.2319Z" fill="#939393"/>
<path d="M47.3245 71.402H39.5645C38.7245 71.402 38.0445 70.722 38.0445 69.882V60.602C38.0445 59.762 38.7245 59.082 39.5645 59.082H47.3245C48.1645 59.082 48.8445 59.762 48.8445 60.602V69.882C48.8345 70.722 48.1545 71.402 47.3245 71.402Z" fill="white"/>
<path d="M48.8345 61.7323V60.6123C48.8345 59.7723 48.1545 59.0923 47.3145 59.0923H39.5545C38.7145 59.0923 38.0345 59.7723 38.0345 60.6123V61.7323H48.8345Z" fill="#99A5FF"/>
<path d="M47.3245 71.692H39.5645C38.5745 71.692 37.7645 70.882 37.7645 69.892V60.612C37.7645 59.622 38.5745 58.812 39.5645 58.812H47.3245C48.3145 58.812 49.1245 59.622 49.1245 60.612V69.892C49.1145 70.882 48.3145 71.692 47.3245 71.692ZM39.5545 59.382C38.8745 59.382 38.3245 59.932 38.3245 60.612V69.892C38.3245 70.572 38.8745 71.122 39.5545 71.122H47.3145C47.9945 71.122 48.5445 70.572 48.5445 69.892V60.612C48.5445 59.932 47.9945 59.382 47.3145 59.382H39.5545Z" fill="#3B42AD"/>
<path d="M41.4545 62.9722H45.4245C46.1745 62.9722 46.7845 63.5822 46.7845 64.3322V66.4722C46.7845 67.2222 46.1745 67.8322 45.4245 67.8322H44.0245V69.1622L42.6945 67.8322H41.4645C40.7145 67.8322 40.1045 67.2222 40.1045 66.4722V64.3322C40.0945 63.5922 40.7045 62.9722 41.4545 62.9722Z" fill="#3B42AD"/>
<path d="M41.8145 65.0919H45.1745C45.2945 65.0919 45.3845 64.9919 45.3845 64.8819C45.3845 64.7619 45.2845 64.6719 45.1745 64.6719H41.8145C41.6945 64.6719 41.6045 64.7719 41.6045 64.8819C41.6045 64.9919 41.6945 65.0919 41.8145 65.0919Z" fill="white"/>
<path d="M41.8145 66.1021H45.1745C45.2945 66.1021 45.3845 66.0021 45.3845 65.8921C45.3845 65.7721 45.2845 65.6821 45.1745 65.6821H41.8145C41.6945 65.6821 41.6045 65.7821 41.6045 65.8921C41.6045 66.0021 41.6945 66.1021 41.8145 66.1021Z" fill="white"/>
<path d="M32.3344 42.7319H19.7544C18.8744 42.7319 18.1644 43.4319 18.1644 44.2919V73.9919C18.1644 74.6219 18.6844 75.1319 19.3244 75.1319H32.6044C33.2444 75.1319 33.7644 74.6219 33.7644 73.9919V44.1419C33.7544 43.3619 33.1144 42.7319 32.3344 42.7319Z" fill="#E6E6E6"/>
<path d="M33.0745 42.7319H22.1345L33.7645 53.3719V43.4219C33.7545 43.0419 33.4545 42.7319 33.0745 42.7319Z" fill="url(#paint7_linear)"/>
<path d="M33.0744 42.7319H19.1044C18.7244 42.7319 18.4144 43.0419 18.4144 43.4219V45.3819H33.7544V43.4219C33.7544 43.0419 33.4544 42.7319 33.0744 42.7319Z" fill="#7B83EB"/>
<path d="M22.0844 53.2819C22.9944 53.2819 23.7344 52.5419 23.7344 51.6319C23.7344 50.7219 22.9944 49.9819 22.0844 49.9819C21.1744 49.9819 20.4344 50.7219 20.4344 51.6319C20.4344 52.5519 21.1744 53.2819 22.0844 53.2819Z" fill="#99A5FF"/>
<path d="M21.8844 54.042H27.0044C27.7344 54.042 28.3444 54.642 28.3444 55.382V57.472C28.3444 58.202 27.7444 58.812 27.0044 58.812H25.6344V60.112L24.3344 58.812H21.8844C21.1544 58.812 20.5444 58.212 20.5444 57.472V55.382C20.5444 54.642 21.1444 54.042 21.8844 54.042Z" fill="white"/>
<path d="M22.2544 55.8717H26.6144C26.7344 55.8717 26.8244 55.7817 26.8244 55.6617C26.8244 55.5417 26.7344 55.4517 26.6144 55.4517H22.2544C22.1344 55.4517 22.0444 55.5417 22.0444 55.6617C22.0444 55.7817 22.1444 55.8717 22.2544 55.8717Z" fill="#99A5FF"/>
<path d="M22.2544 56.8619H26.6144C26.7344 56.8619 26.8244 56.7719 26.8244 56.6519C26.8244 56.5319 26.7344 56.4419 26.6144 56.4419H22.2544C22.1344 56.4419 22.0444 56.5319 22.0444 56.6519C22.0444 56.7619 22.1444 56.8619 22.2544 56.8619Z" fill="#99A5FF"/>
<path d="M30.5044 61.1621H25.3844C24.6544 61.1621 24.0444 61.7621 24.0444 62.5021V65.2821C24.0444 66.0121 24.6444 66.6221 25.3844 66.6221H26.7544V67.9221L28.0544 66.6221H30.5044C31.2344 66.6221 31.8444 66.0221 31.8444 65.2821V62.5021C31.8444 61.7621 31.2444 61.1621 30.5044 61.1621Z" fill="#3B42AD"/>
<path d="M25.7044 62.9918H30.0644C30.1844 62.9918 30.2744 62.9018 30.2744 62.7818C30.2744 62.6618 30.1844 62.5718 30.0644 62.5718H25.7044C25.5844 62.5718 25.4944 62.6618 25.4944 62.7818C25.4944 62.9018 25.5844 62.9918 25.7044 62.9918Z" fill="white"/>
<path d="M25.7044 63.9718H30.0644C30.1844 63.9718 30.2744 63.8818 30.2744 63.7618C30.2744 63.6418 30.1844 63.5518 30.0644 63.5518H25.7044C25.5844 63.5518 25.4944 63.6418 25.4944 63.7618C25.4944 63.8818 25.5844 63.9718 25.7044 63.9718Z" fill="white"/>
<path d="M25.7044 64.9718H28.0944C28.2144 64.9718 28.3044 64.8818 28.3044 64.7618C28.3044 64.6418 28.2144 64.5518 28.0944 64.5518H25.7044C25.5844 64.5518 25.4944 64.6418 25.4944 64.7618C25.4944 64.8718 25.5844 64.9718 25.7044 64.9718Z" fill="white"/>
<path d="M32.1244 41.9219H19.9244C18.5844 41.9219 17.4944 43.0119 17.4944 44.3519V73.5019C17.4944 74.8419 18.5844 75.9319 19.9244 75.9319H32.1244C33.4644 75.9319 34.5544 74.8419 34.5544 73.5019V44.3519C34.5544 43.0119 33.4644 41.9219 32.1244 41.9219ZM33.5444 73.3619C33.5444 74.1919 32.8644 74.8719 32.0344 74.8719H20.0144C19.1844 74.8719 18.5044 74.1919 18.5044 73.3619V44.4919C18.5044 43.6619 19.1844 42.9819 20.0144 42.9819H32.0244C32.8544 42.9819 33.5344 43.6619 33.5344 44.4919V73.3619H33.5444Z" fill="#3B42AD"/>
<path d="M21.9244 42.9316V43.1516C21.9244 43.6916 22.3644 44.1316 22.9044 44.1316H29.2644C29.8044 44.1316 30.2444 43.6916 30.2444 43.1516V42.9316H21.9244Z" fill="#3B42AD"/>
<path d="M27.8844 43.6621C28.0344 43.6621 28.1544 43.5421 28.1544 43.3921C28.1544 43.2421 28.0344 43.1221 27.8844 43.1221C27.7344 43.1221 27.6144 43.2421 27.6144 43.3921C27.6244 43.5521 27.7444 43.6621 27.8844 43.6621Z" fill="#737373"/>
<path d="M25.2145 43.6217H26.9045C27.0145 43.6217 27.1045 43.5317 27.1045 43.4217C27.1045 43.3117 27.0145 43.2217 26.9045 43.2217H25.2145C25.1045 43.2217 25.0145 43.3117 25.0145 43.4217C25.0145 43.5417 25.1045 43.6217 25.2145 43.6217Z" fill="#737373"/>
<path d="M28.7445 74.4919H23.3645C23.2745 74.4919 23.2045 74.4219 23.2045 74.3319C23.2045 74.2419 23.2745 74.1719 23.3645 74.1719H28.7445C28.8345 74.1719 28.9045 74.2419 28.9045 74.3319C28.9045 74.4219 28.8345 74.4919 28.7445 74.4919Z" fill="#E6E6E6"/>
<defs>
<linearGradient id="paint0_linear" x1="36.7471" y1="0.892973" x2="66.9834" y2="102.184" gradientUnits="userSpaceOnUse">
<stop stop-color="#A9B1FF"/>
<stop offset="1" stop-color="#7B83EB"/>
</linearGradient>
<linearGradient id="paint1_linear" x1="51.805" y1="4.50185" x2="51.805" y2="98.162" gradientUnits="userSpaceOnUse">
<stop stop-color="#5A62C3"/>
<stop offset="0.5" stop-color="#4D55BD"/>
<stop offset="1" stop-color="#3940AB"/>
</linearGradient>
<linearGradient id="paint2_linear" x1="68.0483" y1="51.7194" x2="68.0251" y2="26.6627" gradientUnits="userSpaceOnUse">
<stop offset="0.0994" stop-color="#E6E6E6"/>
<stop offset="0.9511" stop-color="white"/>
</linearGradient>
<radialGradient id="paint3_radial" cx="0" cy="0" r="1" gradientUnits="userSpaceOnUse" gradientTransform="translate(70.9112 48.3246) rotate(177.844) scale(1.66002 1.4571)">
<stop stop-color="#59453A"/>
<stop offset="1" stop-color="#9A6541" stop-opacity="0"/>
</radialGradient>
<linearGradient id="paint4_linear" x1="70.7677" y1="50.8118" x2="70.7692" y2="47.5208" gradientUnits="userSpaceOnUse">
<stop offset="0.0144" stop-color="#48372D"/>
<stop offset="0.4807" stop-color="#59453A"/>
<stop offset="1" stop-color="#9A6541"/>
</linearGradient>
<linearGradient id="paint5_linear" x1="36.3341" y1="38.0271" x2="36.3335" y2="37.3084" gradientUnits="userSpaceOnUse">
<stop stop-color="#BE906B"/>
<stop offset="0.9922" stop-color="#9F7757"/>
</linearGradient>
<radialGradient id="paint6_radial" cx="0" cy="0" r="1" gradientUnits="userSpaceOnUse" gradientTransform="translate(36.1297 35.5037) rotate(-179.968) scale(1.15118 0.851405)">
<stop stop-color="#744D2C"/>
<stop offset="1" stop-color="#BE906B" stop-opacity="0"/>
</radialGradient>
<linearGradient id="paint7_linear" x1="27.9445" y1="53.3729" x2="27.9445" y2="42.7333" gradientUnits="userSpaceOnUse">
<stop offset="0.0994" stop-color="#E6E6E6"/>
<stop offset="0.9511" stop-color="white"/>
</linearGradient>
</defs>
</svg>
