<svg width="100" height="100" viewBox="0 0 100 100" fill="none" xmlns="http://www.w3.org/2000/svg">
<g clip-path="url(#clip0)">
<path d="M49.6401 96.5202C40.382 96.5202 31.3317 93.7748 23.6339 88.6313C15.936 83.4877 9.93624 76.177 6.3933 67.6236C2.85036 59.0702 1.92337 49.6583 3.72954 40.578C5.53571 31.4978 9.99394 23.157 16.5404 16.6105C23.0869 10.064 31.4277 5.60581 40.5079 3.79964C49.5882 1.99346 59.0001 2.92046 67.5535 6.4634C76.1069 10.0063 83.4176 16.0061 88.5612 23.704C93.7047 31.4018 96.4501 40.4521 96.4501 49.7102C96.4505 55.8575 95.24 61.9447 92.8878 67.6241C90.5355 73.3036 87.0875 78.464 82.7407 82.8108C78.3939 87.1576 73.2335 90.6056 67.554 92.9579C61.8746 95.3101 55.7874 96.5206 49.6401 96.5202V96.5202Z" fill="url(#paint0_linear)"/>
<path fill-rule="evenodd" clip-rule="evenodd" d="M95.54 49.7102C95.54 58.7884 92.848 67.6627 87.8045 75.2109C82.7609 82.7591 75.5923 88.6422 67.2052 92.1163C58.818 95.5903 49.5891 96.4993 40.6854 94.7282C31.7816 92.9572 23.603 88.5856 17.1838 82.1664C10.7646 75.7472 6.39302 67.5686 4.62196 58.6648C2.85089 49.7611 3.75987 40.5322 7.23393 32.145C10.708 23.7579 16.5911 16.5893 24.1393 11.5457C31.6875 6.50218 40.5618 3.8102 49.64 3.8102C55.6677 3.81017 61.6363 4.9974 67.2052 7.30408C72.774 9.61076 77.834 12.9917 82.0963 17.2539C86.3585 21.5162 89.7394 26.5761 92.0461 32.145C94.3528 37.7139 95.54 43.6825 95.54 49.7102V49.7102ZM49.64 0.0702061C59.4579 0.0702061 69.0552 2.98154 77.2185 8.43606C85.3818 13.8906 91.7442 21.6433 95.5014 30.7138C99.2585 39.7843 100.242 49.7653 98.3262 59.3945C96.4108 69.0237 91.6831 77.8687 84.7408 84.811C77.7985 91.7533 68.9535 96.481 59.3243 98.3964C49.6951 100.312 39.7141 99.3287 30.6436 95.5716C21.5731 91.8144 13.8204 85.452 8.36584 77.2887C2.91133 69.1254 -1.61629e-06 59.5281 3.61524e-07 49.7102C-0.000786426 43.1912 1.28265 36.7358 3.77702 30.7129C6.27138 24.6899 9.92781 19.2173 14.5375 14.6077C19.1471 9.99801 24.6197 6.34158 30.6427 3.84722C36.6656 1.35286 43.121 0.069418 49.64 0.0702061V0.0702061Z" fill="#F2F1F0"/>
<path fill-rule="evenodd" clip-rule="evenodd" d="M92.7296 49.7103C92.7296 58.2327 90.2024 66.5637 85.4676 73.6498C80.7328 80.7359 74.0031 86.2589 66.1294 89.5203C58.2557 92.7817 49.5918 93.635 41.2331 91.9724C32.8745 90.3097 25.1966 86.2058 19.1703 80.1795C13.1441 74.1533 9.04017 66.4754 7.37753 58.1167C5.7149 49.7581 6.56822 41.0941 9.8296 33.2205C13.091 25.3468 18.6139 18.6171 25.7 13.8823C32.7862 9.14749 41.1172 6.62031 49.6396 6.62031C55.2983 6.61997 60.9017 7.73429 66.1298 9.89964C71.3579 12.065 76.1082 15.239 80.1096 19.2403C84.1109 23.2417 87.2849 27.992 89.4502 33.2201C91.6156 38.4482 92.7299 44.0516 92.7296 49.7103ZM49.6396 2.88031C58.9017 2.88031 67.9558 5.62684 75.6569 10.7726C83.3581 15.9183 89.3604 23.2322 92.9049 31.7892C96.4493 40.3463 97.3767 49.7623 95.5697 58.8464C93.7628 67.9305 89.3027 76.2748 82.7534 82.8241C76.2041 89.3734 67.8598 93.8335 58.7757 95.6405C49.6915 97.4474 40.2756 96.52 31.7185 92.9756C23.1614 89.4311 15.8476 83.4288 10.7018 75.7277C5.5561 68.0265 2.80957 58.9724 2.80957 49.7103C2.81076 37.2906 7.74501 25.3799 16.5271 16.5978C25.3091 7.81575 37.2198 2.8815 49.6396 2.88031V2.88031Z" fill="#0078D4"/>
<path fill-rule="evenodd" clip-rule="evenodd" d="M92.7296 49.7102C92.7296 58.2326 90.2024 66.5636 85.4676 73.6497C80.7328 80.7358 74.0031 86.2588 66.1294 89.5202C58.2557 92.7816 49.5918 93.6349 41.2331 91.9723C32.8745 90.3096 25.1966 86.2057 19.1703 80.1794C13.1441 74.1532 9.04017 66.4753 7.37753 58.1167C5.7149 49.758 6.56822 41.0941 9.8296 33.2204C13.091 25.3467 18.6139 18.617 25.7001 13.8822C32.7862 9.1474 41.1172 6.62021 49.6396 6.62021C55.2983 6.61987 60.9017 7.73419 66.1298 9.89954C71.3579 12.0649 76.1082 15.2389 80.1096 19.2402C84.1109 23.2416 87.2849 27.9919 89.4502 33.22C91.6156 38.448 92.7299 44.0515 92.7296 49.7102V49.7102ZM49.6396 2.88021C58.9017 2.88021 67.9558 5.62674 75.6569 10.7725C83.3581 15.9182 89.3604 23.2321 92.9048 31.7891C96.4493 40.3462 97.3767 49.7622 95.5697 58.8463C93.7628 67.9304 89.3027 76.2747 82.7534 82.824C76.2041 89.3733 67.8598 93.8334 58.7757 95.6404C49.6915 97.4473 40.2756 96.5199 31.7185 92.9755C23.1614 89.431 15.8476 83.4287 10.7018 75.7276C5.5561 68.0264 2.80957 58.9723 2.80957 49.7102C2.81075 37.2905 7.74499 25.3798 16.5271 16.5977C25.3091 7.81562 37.2198 2.88137 49.6396 2.88017V2.88021Z" fill="#0078D4"/>
<path d="M54.7719 30.5372H29.3812C25.8037 30.5372 22.9036 33.4373 22.9036 37.0149V62.4055C22.9036 65.983 25.8037 68.8832 29.3812 68.8832H54.7719C58.3494 68.8832 61.2496 65.983 61.2496 62.4055V37.0149C61.2496 33.4373 58.3494 30.5372 54.7719 30.5372Z" fill="url(#paint1_linear)"/>
<path d="M72.8067 65.6761L61.2495 59.1666V40.2536L72.8067 33.744C73.1709 33.5389 73.5825 33.4327 74.0006 33.436C74.4186 33.4393 74.8285 33.5521 75.1894 33.763C75.5503 33.974 75.8497 34.2758 76.0578 34.6384C76.2658 35.0009 76.3753 35.4117 76.3753 35.8298V63.5904C76.3753 64.0084 76.2658 64.4192 76.0578 64.7818C75.8497 65.1444 75.5503 65.4462 75.1894 65.6571C74.8285 65.8681 74.4186 65.9808 74.0006 65.9842C73.5825 65.9875 73.1709 65.8813 72.8067 65.6761V65.6761Z" fill="url(#paint2_linear)"/>
<path d="M39.8241 42.294L35.4141 45.8108H30.4675C30.2883 45.8107 30.1109 45.846 29.9454 45.9146C29.7799 45.9831 29.6295 46.0836 29.5028 46.2103C29.3761 46.337 29.2756 46.4874 29.2071 46.6529C29.1385 46.8184 29.1033 46.9958 29.1033 47.175V52.2452C29.1033 52.4244 29.1385 52.6018 29.2071 52.7673C29.2756 52.9328 29.3761 53.0832 29.5028 53.2099C29.6295 53.3365 29.7799 53.437 29.9454 53.5056C30.1109 53.5741 30.2883 53.6094 30.4675 53.6094H35.4142L39.8242 57.1262C40.0249 57.2863 40.2668 57.3865 40.522 57.4153C40.7772 57.444 41.0353 57.4002 41.2666 57.2888C41.498 57.1774 41.6932 57.0029 41.8298 56.7855C41.9665 56.5681 42.039 56.3165 42.039 56.0597V43.3605C42.039 43.1037 41.9665 42.8521 41.8299 42.6346C41.6932 42.4172 41.498 42.2428 41.2666 42.1313C41.0353 42.0199 40.7771 41.9761 40.5219 42.0048C40.2668 42.0336 40.0249 42.1338 39.8241 42.294V42.294Z" fill="white"/>
<path d="M46.8649 49.7098C46.8639 48.8981 46.7017 48.0946 46.3876 47.3461C46.0734 46.5976 45.6137 45.919 45.0351 45.3496L44.0696 46.3152C44.5225 46.757 44.8825 47.2849 45.1283 47.868C45.3741 48.451 45.5007 49.0774 45.5007 49.7101C45.5007 50.3428 45.3741 50.9692 45.1284 51.5522C44.8826 52.1353 44.5227 52.6633 44.0698 53.1051L45.0351 54.0704C45.6137 53.501 46.0734 52.8223 46.3876 52.0737C46.7017 51.3252 46.8639 50.5216 46.8649 49.7098V49.7098Z" fill="white"/>
<path d="M50.9575 49.7098C50.9579 48.3601 50.691 47.0236 50.1723 45.7775C49.6537 44.5314 48.8934 43.4004 47.9353 42.4496L46.9622 43.4227C47.7955 44.244 48.4573 45.2228 48.909 46.3022C49.3607 47.3816 49.5933 48.54 49.5933 49.7101C49.5933 50.8802 49.3607 52.0386 48.909 53.118C48.4573 54.1974 47.7955 55.1762 46.9622 55.9976L47.9353 56.9706C48.8934 56.0197 49.6537 54.8885 50.1724 53.6424C50.6911 52.3962 50.9579 51.0596 50.9575 49.7098V49.7098Z" fill="white"/>
<path d="M55.0499 49.7098C55.0498 47.8232 54.676 45.9553 53.9501 44.2139C53.2243 42.4725 52.1607 40.8921 50.8208 39.564L49.8564 40.5283C51.0697 41.7298 52.0328 43.1599 52.6901 44.7359C53.3473 46.3119 53.6857 48.0025 53.6857 49.7101C53.6857 51.4176 53.3473 53.1083 52.6901 54.6842C52.0328 56.2602 51.0697 57.6903 49.8564 58.8919L50.8208 59.8562C52.1607 58.5279 53.2243 56.9475 53.9502 55.206C54.676 53.4645 55.0498 51.5965 55.0499 49.7098Z" fill="white"/>
<path opacity="0.4" d="M62.8804 51.7699C62.0903 51.7657 61.3131 51.9704 60.6276 52.3633C59.9421 52.7562 59.3727 53.3233 58.977 54.0072L50.2634 68.8831H54.772C56.49 68.883 58.1376 68.2006 59.3524 66.9858C60.5671 65.771 61.2496 64.1234 61.2496 62.4054V59.1665L72.8068 65.6761C73.1084 65.8411 73.4425 65.9378 73.7856 65.9596L66.7837 54.0072C66.3881 53.3232 65.8187 52.756 65.1332 52.3631C64.4477 51.9702 63.6705 51.7656 62.8804 51.7699V51.7699Z" fill="#003067"/>
<path d="M51.9269 69.9997L60.7029 55.0182C60.9255 54.6383 61.2435 54.3232 61.6255 54.1043C62.0075 53.8853 62.4401 53.7701 62.8804 53.7701C63.3207 53.7701 63.7533 53.8853 64.1353 54.1043C64.5173 54.3232 64.8354 54.6383 65.0579 55.0182L73.8339 69.9997C74.0585 70.3831 74.1779 70.8189 74.18 71.2633C74.1821 71.7076 74.0668 72.1446 73.8459 72.5301C73.6249 72.9156 73.3061 73.236 72.9217 73.4587C72.5372 73.6815 72.1007 73.7988 71.6564 73.7988H54.1044C53.6601 73.7988 53.2236 73.6815 52.8392 73.4587C52.4547 73.236 52.1359 72.9156 51.9149 72.5301C51.694 72.1446 51.5787 71.7076 51.5808 71.2633C51.5829 70.8189 51.7023 70.3831 51.9269 69.9997Z" fill="#FF9300"/>
<path d="M54.1042 72.5369C53.8821 72.5368 53.664 72.478 53.4718 72.3666C53.2797 72.2552 53.1203 72.0951 53.0099 71.9024C52.8994 71.7097 52.8418 71.4912 52.8428 71.2691C52.8438 71.047 52.9034 70.8291 53.0155 70.6374L61.7915 55.6558C61.9029 55.4659 62.062 55.3084 62.2531 55.199C62.4441 55.0895 62.6605 55.032 62.8806 55.032C63.1008 55.032 63.3171 55.0896 63.5082 55.1991C63.6992 55.3086 63.8582 55.4662 63.9695 55.6562L72.7449 70.6374C72.8573 70.8291 72.917 71.047 72.9181 71.2692C72.9191 71.4913 72.8615 71.7099 72.751 71.9026C72.6406 72.0954 72.4811 72.2555 72.2889 72.3669C72.0967 72.4783 71.8784 72.5369 71.6562 72.5369H54.1042Z" fill="#FFCA00"/>
<path d="M62.8804 60.3001V66.3439" stroke="#FF9300" stroke-width="1.26181" stroke-miterlimit="10" stroke-linecap="round"/>
<path d="M62.8805 70.1676C63.3426 70.1676 63.7171 69.793 63.7171 69.331C63.7171 68.869 63.3426 68.4944 62.8805 68.4944C62.4185 68.4944 62.0439 68.869 62.0439 69.331C62.0439 69.793 62.4185 70.1676 62.8805 70.1676Z" fill="#FF9300"/>
</g>
<defs>
<linearGradient id="paint0_linear" x1="47.8698" y1="-15.0829" x2="51.8525" y2="130.685" gradientUnits="userSpaceOnUse">
<stop stop-color="#00ABDE"/>
<stop offset="1" stop-color="#007ED8"/>
</linearGradient>
<linearGradient id="paint1_linear" x1="42.0766" y1="68.8832" x2="42.0766" y2="30.4684" gradientUnits="userSpaceOnUse">
<stop stop-color="#003067"/>
<stop offset="0.2" stop-color="#003F7C"/>
<stop offset="0.47" stop-color="#004F90"/>
<stop offset="0.74" stop-color="#00589D"/>
<stop offset="1" stop-color="#005BA1"/>
</linearGradient>
<linearGradient id="paint2_linear" x1="82.5" y1="48.5707" x2="57" y2="48.0707" gradientUnits="userSpaceOnUse">
<stop stop-color="#005BA1"/>
<stop offset="0.26" stop-color="#00589D"/>
<stop offset="0.53" stop-color="#004F90"/>
<stop offset="0.8" stop-color="#003F7C"/>
<stop offset="1" stop-color="#003067"/>
</linearGradient>
<clipPath id="clip0">
<rect width="99.2799" height="99.28" fill="white" transform="translate(0 0.0703125)"/>
</clipPath>
</defs>
</svg>
