<svg width="160" height="188" viewBox="0 0 160 188" fill="none" xmlns="https://www.w3.org/2000/svg">
<g clip-path="url(#clip0)">
<path d="M79.6779 188C82.7592 187.994 85.7796 187.141 88.4083 185.534L150.384 147.874C153.165 146.11 155.449 143.665 157.019 140.771C158.589 137.876 159.394 134.628 159.356 131.336V56.6207C159.392 53.3283 158.587 50.0812 157.017 47.1871C155.447 44.2929 153.163 41.8476 150.384 40.0829L88.4083 2.4228C85.7749 0.837605 82.7592 0 79.6855 0C76.6118 0 73.5961 0.837605 70.9627 2.4228L8.9876 40.098C6.2045 41.8604 3.91796 44.3048 2.34499 47.1991C0.772021 50.0935 -0.0351786 53.3418 4.1431e-06 56.6358V131.336C-0.0185283 134.119 0.556189 136.874 1.68588 139.418C2.81557 141.962 4.4743 144.236 6.5516 146.089V146.115L70.9627 185.549C73.5884 187.149 76.6032 187.996 79.6779 188V188ZM80.3257 6.95218C82.2776 6.95218 84.7548 8.1651 86.4646 9.20912L147.222 46.4034C150.974 48.6881 153.09 55.2842 153.09 60.0352L152.458 131.336C152.458 136.087 149.259 140.355 145.506 142.64L85.1104 179.021C81.6758 181.109 78.8854 181.109 75.4507 179.021L14.2427 142.549C10.4903 140.265 7.47191 136.072 7.47191 131.336V57.688C7.50442 55.3228 8.11341 53.0013 9.24608 50.9247C10.3787 48.8482 12.0009 47.0792 13.9718 45.7714L74.548 9.20912C76.2577 8.1651 78.3739 6.95218 80.3257 6.95218Z" fill="#F2F1F0"/>
<path fill-rule="evenodd" clip-rule="evenodd" d="M87.5765 10.5337C85.2056 9.0602 82.4697 8.2793 79.6783 8.2793C76.8868 8.2793 74.1509 9.0602 71.7801 10.5337L15.6454 44.8651C13.1193 46.4768 11.047 48.7072 9.625 51.3446C8.203 53.9821 7.47851 56.9392 7.52026 59.9352V128.038C7.48034 131.034 8.20562 133.991 9.62745 136.628C11.0493 139.265 13.1206 141.495 15.6454 143.108L71.7801 177.439C74.1508 178.913 76.8867 179.694 79.6783 179.694C82.4698 179.694 85.2057 178.913 87.5765 177.439L143.711 143.108C146.236 141.496 148.307 139.265 149.729 136.628C151.151 133.991 151.877 131.034 151.837 128.038V59.9352C151.875 56.9397 151.149 53.9839 149.727 51.347C148.305 48.7101 146.234 46.4793 143.711 44.8651L87.5765 10.5337Z" fill="url(#paint0_linear)"/>
<path fill-rule="evenodd" clip-rule="evenodd" d="M79.6783 9.7539C81.3615 9.7539 83.2442 10.6196 85.311 11.8777L143.777 47.4201C145.668 48.6335 147.218 50.3104 148.278 52.2914C149.339 54.2725 149.875 56.4918 149.837 58.7386V129.217C149.875 131.464 149.339 133.683 148.278 135.664C147.218 137.645 145.668 139.322 143.777 140.535L85.312 176.077L85.311 176.078C83.6408 177.217 81.6958 177.888 79.6783 178.021C77.6609 177.888 75.7158 177.217 74.0456 176.078L74.0446 176.077L15.5823 140.537L15.5801 140.536C13.7918 139.572 12.2668 138.185 11.1383 136.496C10.1614 134.893 9.52031 132.678 9.52031 129.217V58.7386C9.48157 56.4919 10.018 54.2726 11.0785 52.2916C12.139 50.3106 13.6885 48.6336 15.5797 47.4202L74.0365 11.8831L74.0406 11.8807C76.1244 10.6277 77.9846 9.7539 79.6783 9.7539ZM87.3908 8.4609L145.855 44.0021C148.333 45.5722 150.368 47.751 151.765 50.3307C153.162 52.9104 153.876 55.8051 153.837 58.7386V129.217C153.876 132.151 153.162 135.045 151.765 137.625C150.368 140.205 148.333 142.384 145.855 143.954L87.3898 179.495C85.0956 181.02 82.4302 181.893 79.6783 182.021C76.9264 181.893 74.261 181.02 71.9667 179.495H71.9658L13.502 143.953L13.4995 143.952C11.1642 142.659 9.18097 140.814 7.72281 138.578C6.12823 135.725 5.36521 132.482 5.52031 129.217V58.7386C5.48125 55.805 6.19436 52.9103 7.59165 50.3305C8.98894 47.7508 11.0238 45.572 13.5022 44.002L71.9667 8.46025L71.9749 8.45537C74.0655 7.19796 76.7734 5.75391 79.6783 5.75391C82.5645 5.75391 85.2816 7.17699 87.3908 8.46085V8.4609Z" fill="#0078D4"/>
<path opacity="0.2" d="M139.959 132.026L80.409 166.633L20.47 132.027L80.02 97.4199L139.959 132.026Z" fill="#003067"/>
<path d="M140.601 120.648L79.878 155.936L18.767 120.653L79.489 85.3652L140.601 120.648Z" fill="#1B93EB"/>
<path d="M140.601 120.648L140.589 124.754L79.8669 160.042L79.8779 155.936L140.601 120.648Z" fill="#1F56A3"/>
<path d="M79.878 155.935L79.867 160.041L18.755 124.758L18.767 120.652L79.878 155.935Z" fill="#0078D4"/>
<path d="M87.0134 52.9316L83.8312 54.7808C85.2361 53.9645 87.1811 54.0797 89.3252 55.3176C90.2433 55.8556 91.0929 56.503 91.8553 57.2455L95.0373 55.3963C94.275 54.6538 93.4255 54.0064 92.5074 53.4683C90.3633 52.2305 88.4181 52.1153 87.0134 52.9316Z" fill="#E8E8E8"/>
<path d="M126.734 62.9029C125.874 62.396 124.957 61.9927 124.002 61.7016C121.222 55.0211 116.344 48.8789 110.764 45.6572C106.406 43.1411 102.459 42.9068 99.6069 44.5641L96.4247 46.4133C99.2765 44.7561 103.224 44.9903 107.582 47.5065C113.162 50.7282 118.04 56.8704 120.82 63.5508C121.775 63.842 122.692 64.2452 123.551 64.7522C130.294 68.6449 135.729 78.086 135.707 85.8242C135.709 86.6691 135.635 87.5124 135.484 88.3436C135.468 88.4624 135.428 88.5767 135.411 88.7139C135.195 89.7032 134.832 90.6548 134.335 91.5373C134.279 91.6331 134.207 91.7107 134.151 91.8066C133.635 92.5693 132.955 93.2073 132.161 93.6742L135.343 91.825C136.137 91.358 136.817 90.72 137.333 89.9574C137.389 89.8614 137.461 89.7839 137.517 89.688C138.014 88.8056 138.377 87.854 138.593 86.8646C138.61 86.7275 138.65 86.6132 138.666 86.4944C138.817 85.6631 138.891 84.8198 138.889 83.975C138.911 76.2368 133.476 66.7956 126.734 62.9029Z" fill="#E8E8E8"/>
<path d="M107.582 47.5069C113.162 50.7286 118.04 56.8707 120.82 63.5512C121.775 63.8423 122.692 64.2455 123.551 64.7525C130.294 68.6452 135.728 78.0863 135.707 85.8245C135.709 86.6694 135.635 87.5127 135.484 88.3439C135.468 88.4628 135.428 88.577 135.411 88.7141C135.195 89.7036 134.832 90.6552 134.335 91.5376C134.279 91.6334 134.207 91.711 134.151 91.8069C132.037 94.8743 128.033 95.4759 123.456 92.8333L88.5108 72.5754C84.6195 69.8798 81.5655 64.3419 81.5785 59.7319C81.5924 54.8292 85.0664 52.8586 89.3252 55.3174C90.2433 55.8555 91.0928 56.5028 91.8552 57.2453C91.84 56.9892 91.8407 56.7514 91.8414 56.5044C91.8697 46.5253 98.9135 42.5021 107.582 47.5069Z" fill="white"/>
<path d="M106.912 67.7998C107.626 68.264 108.22 68.8904 108.646 69.6279C109.072 70.3654 109.317 71.1931 109.362 72.0435C109.359 73.2687 108.679 73.9051 107.739 73.7594L107.735 75.3074C107.734 75.8503 107.349 76.062 106.877 75.7892C106.63 75.629 106.425 75.4126 106.278 75.1578C106.131 74.903 106.046 74.617 106.03 74.3232L106.035 72.7679C105.082 71.8182 104.516 70.5486 104.446 69.2052C104.451 67.6499 105.552 67.0147 106.912 67.7998Z" fill="white"/>
<path d="M113.976 68.8871C114.18 69.0207 114.35 69.1997 114.474 69.41C114.598 69.6203 114.671 69.8563 114.689 70.0996L114.655 82.0727C114.641 82.5128 114.327 82.6844 113.937 82.4669L99.808 74.3093C99.6037 74.1742 99.4332 73.9939 99.3096 73.7824C99.186 73.5709 99.1126 73.3338 99.0952 73.0895L99.1292 61.1164C99.1432 60.6835 99.4571 60.5047 99.8466 60.7295L101.602 61.7432L101.612 58.1924C101.54 57.5043 101.643 56.8092 101.911 56.1714C102.179 55.5335 102.603 54.9735 103.145 54.5431C103.254 54.4737 103.363 54.4117 103.478 54.3533C104.05 54.145 104.663 54.0779 105.267 54.1576C105.87 54.2373 106.445 54.4615 106.943 54.8111C108.553 55.8185 109.863 57.2396 110.736 58.926C111.679 60.5761 112.199 62.4338 112.249 64.3336L112.239 67.8844L113.976 68.8871ZM109.749 66.4468L109.772 62.852C109.742 62.0542 109.553 61.2706 109.216 60.5467C109.118 60.3086 109.007 60.0757 108.885 59.8488C108.822 59.7313 108.752 59.6174 108.682 59.5035C108.251 58.7794 107.653 58.1698 106.937 57.7265C106.659 57.5204 106.328 57.3988 105.982 57.3764C105.637 57.354 105.293 57.4317 104.991 57.6002C104.684 57.8218 104.439 58.1191 104.281 58.4633C104.123 58.8074 104.057 59.1866 104.09 59.5639L104.08 63.1735L109.749 66.4468ZM107.74 73.7593C108.679 73.905 109.359 73.2686 109.362 72.0435C109.317 71.1931 109.072 70.3654 108.646 69.6279C108.22 68.8904 107.626 68.264 106.912 67.7998C105.552 67.0146 104.451 67.6498 104.446 69.2051C104.516 70.5485 105.082 71.818 106.035 72.7678L106.03 74.3231C106.046 74.6169 106.131 74.9029 106.278 75.1577C106.425 75.4125 106.63 75.6289 106.877 75.7891C107.349 76.0619 107.734 75.8502 107.735 75.3072L107.74 73.7592" fill="#0078D4"/>
<path opacity="0.3" d="M103.273 110.326C92.3852 104.04 74.7956 104.04 63.9791 110.326C53.1626 116.612 53.2198 126.8 64.1073 133.086C68.8828 135.687 74.1607 137.232 79.5847 137.617C88.0273 138.359 96.927 136.848 103.401 133.086C114.217 126.8 114.16 116.611 103.273 110.326Z" fill="#003067"/>
<path d="M99.0639 99.9297L99.0499 105.116L87.5549 111.796L87.5699 106.609L99.0639 99.9297Z" fill="#0078D4"/>
<path d="M90.9581 111.342L90.9434 116.529C90.9482 114.817 89.8191 113.103 87.5551 111.796L87.5698 106.609C89.8338 107.916 90.963 109.631 90.9581 111.342Z" fill="#0078D4"/>
<path d="M67.9792 116.464L67.994 111.277C67.9988 109.586 69.1109 107.896 71.3324 106.605C75.7963 104.011 83.0687 104.011 87.5698 106.61L87.5551 111.796C83.054 109.198 75.7816 109.198 71.3177 111.792C69.0961 113.083 67.984 114.772 67.9792 116.464Z" fill="#1F56A3"/>
<path d="M107.267 111.389L107.253 116.575C107.241 120.667 104.551 124.753 99.1777 127.876L99.1924 122.689C104.566 119.567 107.256 115.481 107.267 111.389Z" fill="#0078D4"/>
<path d="M99.0644 99.9297C109.952 106.215 110.009 116.404 99.1925 122.69L87.6227 116.01C92.0865 113.416 92.0709 109.208 87.5698 106.61L99.0644 99.9297Z" fill="#1490DF"/>
<path d="M99.192 122.69L99.178 127.877L87.608 121.197L87.623 116.01L99.192 122.69Z" fill="#1490DF"/>
<path d="M51.6811 116.417L51.6958 111.23C51.684 115.375 54.4202 119.527 59.8989 122.69C64.6743 125.29 69.9523 126.836 75.3762 127.221L75.3615 132.408C69.9376 132.022 64.6596 130.477 59.8842 127.877C54.4055 124.714 51.6693 120.562 51.6811 116.417Z" fill="#1F56A3"/>
<path d="M99.0643 99.9291L87.5697 106.609C83.0686 104.01 75.7962 104.01 71.3324 106.604C66.8605 109.203 66.8842 113.416 71.3853 116.014C73.3615 117.084 75.5437 117.719 77.7855 117.877L75.3761 127.221C69.9522 126.835 64.6743 125.29 59.8988 122.69C49.0115 116.404 48.9542 106.215 59.7707 99.9293C70.5872 93.6434 88.1769 93.6433 99.0643 99.9291Z" fill="#0078D4"/>
<path d="M77.786 117.877L77.771 123.064L75.361 132.408L75.376 127.221L77.786 117.877Z" fill="#0078D4"/>
<path d="M87.6227 116.01L99.1925 122.69C92.7187 126.452 83.819 127.962 75.3762 127.221L77.7856 117.877C81.1771 118.242 84.6009 117.593 87.6227 116.01Z" fill="#50E6FF"/>
<path d="M99.1924 122.689L99.1777 127.876C92.7039 131.638 83.8042 133.149 75.3615 132.408L75.3761 127.221C83.819 127.962 92.7186 126.452 99.1924 122.689Z" fill="#32BEDD"/>
<path opacity="0.2" d="M100.489 110.918C99.9157 110.587 99.3863 110.247 98.8716 109.916C98.43 109.614 98.0072 109.285 97.6055 108.932C97.2631 108.633 96.9519 108.3 96.6767 107.938C96.4301 107.616 96.2398 107.255 96.1139 106.869C95.8734 106.17 95.4905 105.528 94.9894 104.984C94.4553 104.401 93.8575 103.88 93.2072 103.431L93.0014 103.295C92.7515 103.151 91.7811 102.59 91.5311 102.446L91.2959 102.327C90.4271 101.918 89.5286 101.574 88.6081 101.3C87.5582 100.993 86.4828 100.78 85.395 100.663C84.7587 100.588 84.127 100.477 83.5028 100.332C82.9186 100.194 82.3446 100.015 81.7849 99.7974C81.1827 99.5683 80.6098 99.3222 80.0662 99.059C79.493 98.762 78.9198 98.4648 78.3463 98.1337C77.6517 97.78 76.8834 97.5957 76.104 97.5957C75.3246 97.5957 74.5562 97.78 73.8617 98.1337L67.9164 101.589C67.6533 101.741 67.4053 101.903 67.1571 102.064C66.8942 102.251 66.6168 102.429 66.3686 102.624C66.106 102.828 65.1724 103.609 64.9394 103.83C63.9297 104.801 63.1197 105.96 62.555 107.242C62.0834 108.358 61.8123 109.547 61.7541 110.757C61.7033 111.935 61.8284 113.113 62.1254 114.254C62.4153 115.383 62.809 116.483 63.3016 117.539C63.4837 117.896 63.7721 118.186 64.1269 118.371C64.3771 118.516 65.3475 119.076 65.5975 119.22C66.0429 119.468 66.5311 119.629 67.0365 119.696C68.8699 119.976 70.7618 120.205 72.7119 120.366C74.7202 120.536 76.7359 120.604 78.7511 120.57C80.7805 120.537 82.806 120.378 84.8158 120.095C86.8157 119.813 88.7851 119.347 90.699 118.702C91.0796 118.567 92.366 118.04 92.7025 117.913C93.0536 117.76 93.4042 117.59 93.7407 117.429C94.0471 117.268 94.3395 117.098 94.6315 116.928L100.504 113.516C101.731 112.803 101.739 111.64 100.489 110.918Z" fill="#1F56A3"/>
<path d="M84.7897 93.265C85.5942 93.3547 86.3894 93.5137 87.1665 93.7403C87.8917 93.9562 88.5989 94.2287 89.2814 94.5552L79.1145 100.464L68.8812 94.5554C69.0854 94.4025 69.319 94.2497 69.5527 94.097C69.7716 93.9356 70.0053 93.7998 70.2389 93.647L76.1111 90.2344C76.7435 90.5995 77.361 90.9391 78.0075 91.2615C78.6688 91.5756 79.3299 91.8728 80.0497 92.136C80.7727 92.4136 81.5132 92.6433 82.2664 92.8235C83.0967 93.027 83.9397 93.1745 84.7897 93.265V93.265Z" fill="white"/>
<path d="M96.46 101.913C97.019 102.287 97.622 102.652 98.2542 103.017L92.382 106.43C92.1337 106.574 91.8851 106.701 91.6221 106.837C91.3592 106.973 91.0961 107.109 90.8183 107.219L80.5848 101.311L90.7517 95.4023C91.2695 95.7526 91.7441 96.1629 92.1655 96.6247C92.5364 97.0254 92.8188 97.4998 92.9942 98.017C93.1743 98.535 93.4341 99.0219 93.7642 99.46C94.1134 99.9304 94.514 100.36 94.9586 100.742C95.4337 101.164 95.9352 101.555 96.46 101.913V101.913Z" fill="white"/>
<path d="M65.6497 98.4756C66.1331 97.3848 66.8244 96.3986 67.685 95.5723L77.6391 101.319L66.3766 107.864C65.9164 106.876 65.5476 105.847 65.2749 104.791C64.9979 103.754 64.8783 102.681 64.92 101.608C64.9908 100.531 65.2373 99.473 65.6497 98.4756V98.4756Z" fill="white"/>
<path d="M67.847 108.713L79.1096 102.168L89.0636 107.915C87.4353 108.465 85.7596 108.862 84.0581 109.103C82.2661 109.351 80.4614 109.496 78.6528 109.536C76.8184 109.565 74.9837 109.499 73.1559 109.341C71.3376 109.188 69.5632 108.976 67.847 108.713Z" fill="white"/>
<path d="M100.489 101.719C101.739 102.44 101.731 103.603 100.504 104.316L94.6316 107.729C94.3394 107.899 94.0472 108.068 93.7406 108.23C93.4043 108.391 93.0536 108.561 92.7026 108.714C92.3662 108.841 91.0796 109.367 90.6992 109.503C88.7852 110.148 86.8156 110.614 84.8157 110.895C82.8059 111.179 80.7804 111.338 78.7509 111.371C76.7357 111.405 74.7202 111.337 72.7119 111.167C70.7617 111.006 68.87 110.777 67.0364 110.496C66.531 110.43 66.0428 110.269 65.5974 110.021L64.127 109.172C63.7722 108.987 63.4837 108.697 63.3017 108.34C62.809 107.284 62.4152 106.184 62.1256 105.055C61.8285 103.914 61.7032 102.735 61.7541 101.558C61.8122 100.348 62.0833 99.1584 62.5551 98.0432C63.1196 96.7611 63.9296 95.6017 64.9393 94.6306C65.1724 94.4098 66.106 93.6289 66.3687 93.4252C66.6168 93.2299 66.8942 93.0516 67.157 92.8649C67.4052 92.7036 67.6534 92.5423 67.9163 92.3895L73.8616 88.9345C74.5561 88.5808 75.3245 88.3965 76.1038 88.3965C76.8832 88.3965 77.6515 88.5808 78.3461 88.9344C78.9196 89.2655 79.4929 89.5627 80.0661 89.8598C80.6097 90.1228 81.1826 90.369 81.7849 90.5983C82.3446 90.8156 82.9186 90.9943 83.5027 91.1331C84.127 91.278 84.7587 91.3885 85.3951 91.4641C86.4829 91.5803 87.5582 91.7934 88.6082 92.1008C89.5286 92.375 90.427 92.7184 91.2958 93.1279L91.531 93.2467L93.0013 94.0956L93.2073 94.2315C93.8575 94.6811 94.4553 95.2022 94.9894 95.785C95.4905 96.3286 95.8733 96.9703 96.1137 97.6695C96.2397 98.0552 96.4301 98.4169 96.6767 98.7391C96.9518 99.1008 97.263 99.4336 97.6055 99.7322C98.0071 100.086 98.4299 100.415 98.8715 100.717C99.3863 101.048 99.9157 101.388 100.489 101.719ZM66.3767 107.865L77.6392 101.32L67.685 95.5728C66.8245 96.3991 66.1331 97.3853 65.6497 98.4761C65.2374 99.4735 64.9909 100.532 64.92 101.609C64.8783 102.681 64.998 103.755 65.275 104.792C65.5477 105.848 65.9164 106.876 66.3766 107.865L66.3767 107.865ZM84.058 109.104C85.7596 108.863 87.4353 108.465 89.0636 107.916L79.1095 102.169L67.847 108.714C69.5632 108.977 71.3377 109.189 73.1559 109.342C74.9837 109.5 76.8184 109.565 78.6528 109.537C80.4614 109.497 82.2661 109.352 84.0581 109.104H84.058ZM79.1146 100.462L89.2815 94.554C88.5989 94.2275 87.8918 93.9551 87.1666 93.7392C86.3895 93.5126 85.5943 93.3535 84.7898 93.2638C83.9398 93.1734 83.0968 93.0259 82.2665 92.8224C81.5133 92.6421 80.7727 92.4125 80.0497 92.1348C79.33 91.8716 78.6688 91.5744 78.0075 91.2603C77.3611 90.9379 76.7436 90.5983 76.1112 90.2332L70.2389 93.6458C70.0053 93.7986 69.7716 93.9344 69.5528 94.0958C69.319 94.2485 69.0854 94.4013 68.8812 94.5542L79.1145 100.462L79.1146 100.462ZM92.382 106.43L98.2543 103.018C97.6221 102.653 97.0191 102.287 96.4601 101.914C95.9353 101.556 95.4338 101.164 94.9587 100.743C94.5141 100.361 94.1135 99.931 93.7643 99.4606C93.4342 99.0225 93.1745 98.5357 92.9943 98.0176C92.8189 97.5005 92.5366 97.026 92.1656 96.6253C91.7442 96.1635 91.2697 95.7532 90.7518 95.403L80.5849 101.311L90.8184 107.22C91.0962 107.109 91.3593 106.973 91.6222 106.838C91.8852 106.702 92.1338 106.574 92.3821 106.43" fill="#0078D4"/>
<path d="M100.504 104.316L94.6315 107.728C94.3394 107.898 94.0471 108.068 93.7407 108.229C93.4045 108.39 93.0537 108.56 92.7025 108.713C92.366 108.84 91.0796 109.367 90.699 109.502C88.7851 110.147 86.8157 110.613 84.8158 110.895C82.806 111.178 80.7805 111.337 78.7511 111.37C76.7359 111.404 74.7202 111.336 72.7119 111.166C70.7618 111.005 68.8699 110.776 67.0364 110.496C66.5311 110.429 66.0428 110.268 65.5974 110.02C65.3475 109.876 64.3771 109.316 64.1269 109.172C63.7722 108.987 63.4837 108.696 63.3016 108.34C62.8091 107.283 62.4154 106.183 62.1257 105.054C61.8695 104.07 61.7408 103.056 61.7425 102.039L61.7318 105.793C61.7301 106.811 61.8589 107.824 62.115 108.809C62.4047 109.938 62.7985 111.038 63.2912 112.094C63.4731 112.45 63.7616 112.741 64.1165 112.926C64.3664 113.07 65.3369 113.631 65.5868 113.775C66.0321 114.023 66.5204 114.184 67.0258 114.25C68.8592 114.53 70.7511 114.76 72.7012 114.921C74.7095 115.09 76.7252 115.158 78.7404 115.124C80.7699 115.091 82.7953 114.933 84.8052 114.649C86.8051 114.368 88.7746 113.901 90.6886 113.257C91.069 113.121 92.3553 112.595 92.6918 112.467C93.043 112.315 93.3938 112.145 93.73 111.984C94.0364 111.822 94.3288 111.652 94.6209 111.483L100.493 108.07C100.747 107.956 100.966 107.776 101.128 107.549C101.29 107.322 101.389 107.057 101.415 106.779L101.425 103.025C101.399 103.302 101.301 103.568 101.139 103.795C100.977 104.021 100.758 104.201 100.504 104.316Z" fill="#1F56A3"/>
<path opacity="0.3" d="M63.6237 141.619C65.3234 141.619 66.7013 140.951 66.7013 140.128C66.7013 139.304 65.3234 138.637 63.6237 138.637C61.924 138.637 60.5461 139.304 60.5461 140.128C60.5461 140.951 61.924 141.619 63.6237 141.619Z" fill="#003067"/>
<path fill-rule="evenodd" clip-rule="evenodd" d="M64.703 138.227C64.703 138.805 64.5316 139.371 64.2105 139.851C63.8893 140.332 63.4328 140.706 62.8988 140.928C62.3647 141.149 61.777 141.207 61.2101 141.094C60.6431 140.981 60.1223 140.703 59.7136 140.294C59.3048 139.885 59.0265 139.365 58.9137 138.798C58.8009 138.231 58.8588 137.643 59.08 137.109C59.3012 136.575 59.6759 136.118 60.1565 135.797C60.6371 135.476 61.2022 135.305 61.7803 135.305C62.5555 135.305 63.2989 135.613 63.847 136.161C64.3951 136.709 64.703 137.452 64.703 138.227V138.227Z" fill="#C3F1FF"/>
<path fill-rule="evenodd" clip-rule="evenodd" d="M63.8154 136.39L63.8363 136.389C63.8263 136.379 63.819 136.378 63.8154 136.39Z" fill="#7CB65A"/>
<path opacity="0.3" d="M71.4673 145.902C73.167 145.902 74.5449 145.235 74.5449 144.411C74.5449 143.588 73.167 142.92 71.4673 142.92C69.7676 142.92 68.3898 143.588 68.3898 144.411C68.3898 145.235 69.7676 145.902 71.4673 145.902Z" fill="#003067"/>
<path fill-rule="evenodd" clip-rule="evenodd" d="M72.5467 142.513C72.5467 143.091 72.3752 143.656 72.0541 144.136C71.7329 144.617 71.2765 144.992 70.7424 145.213C70.2083 145.434 69.6207 145.492 69.0537 145.379C68.4868 145.266 67.966 144.988 67.5572 144.579C67.1485 144.171 66.8701 143.65 66.7573 143.083C66.6446 142.516 66.7024 141.928 66.9237 141.394C67.1449 140.86 67.5195 140.404 68.0001 140.082C68.4808 139.761 69.0458 139.59 69.6239 139.59C70.3991 139.59 71.1425 139.898 71.6906 140.446C72.2387 140.994 72.5466 141.737 72.5467 142.513Z" fill="#50E6FF"/>
<path fill-rule="evenodd" clip-rule="evenodd" d="M71.6592 140.673L71.6801 140.672C71.6701 140.662 71.6627 140.661 71.6592 140.673Z" fill="#7CB65A"/>
<path opacity="0.3" d="M79.311 150.187C81.0106 150.187 82.3885 149.52 82.3885 148.696C82.3885 147.873 81.0106 147.205 79.311 147.205C77.6113 147.205 76.2334 147.873 76.2334 148.696C76.2334 149.52 77.6113 150.187 79.311 150.187Z" fill="#003067"/>
<path fill-rule="evenodd" clip-rule="evenodd" d="M80.3904 146.796C80.3904 147.374 80.219 147.939 79.8978 148.42C79.5767 148.9 79.1202 149.275 78.5862 149.496C78.0521 149.717 77.4644 149.775 76.8975 149.662C76.3305 149.55 75.8097 149.271 75.401 148.862C74.9922 148.454 74.7139 147.933 74.6011 147.366C74.4883 146.799 74.5462 146.211 74.7674 145.677C74.9886 145.143 75.3632 144.687 75.8439 144.366C76.3245 144.044 76.8896 143.873 77.4677 143.873C78.2428 143.873 78.9862 144.181 79.5343 144.729C80.0825 145.277 80.3904 146.021 80.3904 146.796Z" fill="#1F56A3"/>
<path fill-rule="evenodd" clip-rule="evenodd" d="M79.5028 144.958L79.5237 144.957C79.5137 144.947 79.5064 144.946 79.5028 144.958Z" fill="#7CB65A"/>
<path d="M52.619 131.533L50.989 132.48L27.379 118.856L29.009 117.908L52.619 131.533Z" fill="#1B93EB"/>
<path d="M52.619 131.533L52.615 132.977L50.985 133.925L50.989 132.48L52.619 131.533Z" fill="#1F56A3"/>
<path d="M50.989 132.479L50.985 133.924L27.375 120.3L27.379 118.855L50.989 132.479Z" fill="#0078D4"/>
<path d="M42.799 127.754L44.444 126.815L29.009 117.908L27.379 118.856L42.799 127.754Z" fill="#50E6FF"/>
<path d="M42.799 127.753V129.2L27.375 120.3L27.379 118.855L42.799 127.753Z" fill="#53B1E0"/>
<path d="M129.54 121.018C129.546 118.753 126.382 116.908 122.472 116.897C118.562 116.886 115.387 118.713 115.381 120.977C115.374 123.242 118.539 125.087 122.449 125.098C126.359 125.109 129.533 123.282 129.54 121.018Z" fill="#0078D4"/>
<path d="M127.925 120.161C127.769 118.829 127.131 117.6 126.131 116.706C125.132 115.811 123.84 115.313 122.499 115.305C121.158 115.297 119.86 115.779 118.85 116.661C117.839 117.543 117.186 118.764 117.014 120.094C116.975 120.287 116.959 120.483 116.967 120.679C117.047 121.132 117.234 121.558 117.514 121.922C117.794 122.287 118.158 122.578 118.574 122.771C119.778 123.378 121.108 123.695 122.456 123.695C123.804 123.695 125.134 123.378 126.337 122.771C126.752 122.578 127.113 122.286 127.39 121.922C127.667 121.557 127.85 121.131 127.925 120.679C127.958 120.508 127.958 120.332 127.925 120.161Z" fill="url(#paint1_radial)"/>
<path d="M122.469 114.523C123.118 114.519 123.75 114.323 124.288 113.96C124.825 113.596 125.242 113.082 125.488 112.482C125.733 111.882 125.795 111.223 125.666 110.587C125.537 109.952 125.223 109.369 124.763 108.911C124.303 108.454 123.718 108.144 123.082 108.019C122.446 107.894 121.787 107.96 121.188 108.209C120.59 108.458 120.078 108.879 119.718 109.418C119.358 109.958 119.166 110.591 119.166 111.24C119.167 111.672 119.253 112.101 119.419 112.5C119.586 112.899 119.829 113.262 120.136 113.567C120.443 113.872 120.807 114.113 121.208 114.277C121.608 114.441 122.037 114.525 122.469 114.523V114.523Z" fill="url(#paint2_radial)"/>
<path d="M27.928 61.2344L27.384 61.5484L27.498 101.684L28.041 101.37L27.928 61.2344Z" fill="white"/>
<path d="M32.7441 78.0377C32.5101 78.1892 32.3155 78.3941 32.1761 78.6355C32.0367 78.8769 31.9566 79.1479 31.9424 79.4263L31.9558 84.1643C31.9573 84.6723 32.3135 84.8836 32.7627 84.6242L64.384 66.8443C64.6172 66.692 64.8113 66.4869 64.9506 66.2457C65.0898 66.0044 65.1704 65.7338 65.1856 65.4557L65.1722 60.7177C65.1708 60.2097 64.8073 60.0025 64.3653 60.2577L32.7441 78.0377Z" fill="#50E6FF"/>
<path d="M32.7146 67.6366C32.4807 67.7882 32.286 67.993 32.1467 68.2344C32.0073 68.4758 31.9272 68.7469 31.913 69.0252L31.9264 73.7632C31.9278 74.2712 32.284 74.4826 32.7333 74.2232L59.1369 59.4557C59.3701 59.3033 59.5643 59.0983 59.7036 58.857C59.8429 58.6158 59.9234 58.3451 59.9387 58.067L59.9252 53.329C59.9238 52.821 59.5603 52.6139 59.1182 52.8691L32.7146 67.6366Z" fill="#C3F1FF"/>
<path d="M32.7736 88.4376C32.5396 88.5892 32.345 88.7941 32.2056 89.0355C32.0663 89.2769 31.9862 89.5479 31.9719 89.8263L31.9854 94.5643C31.9868 95.0722 32.343 95.2836 32.7923 95.0242L52.471 84.1392C52.7042 83.9869 52.8984 83.7818 53.0376 83.5406C53.1769 83.2994 53.2575 83.0287 53.2728 82.7506L53.2593 78.0126C53.2579 77.5046 52.8943 77.2975 52.4523 77.5527L32.7736 88.4376Z" fill="#0078D4"/>
<path d="M27.7095 60.0422C27.4086 60.238 27.1581 60.5022 26.9786 60.8131C26.7991 61.1241 26.6955 61.473 26.6764 61.8316C26.6783 62.4884 27.1446 62.7541 27.7163 62.4241C28.0172 62.2283 28.2676 61.9641 28.4471 61.6532C28.6266 61.3422 28.7302 60.9933 28.7493 60.6348C28.7474 59.9779 28.2812 59.7122 27.7095 60.0422Z" fill="white"/>
<path d="M27.7095 100.179C27.4086 100.375 27.1581 100.639 26.9786 100.95C26.7991 101.261 26.6955 101.61 26.6764 101.968C26.6783 102.625 27.1446 102.891 27.7163 102.561C28.0172 102.365 28.2676 102.101 28.4471 101.79C28.6266 101.479 28.7302 101.13 28.7493 100.771C28.7474 100.115 28.2812 99.8489 27.7095 100.179Z" fill="white"/>
</g>
<defs>
<linearGradient id="paint0_linear" x1="79.6785" y1="8.2793" x2="79.6785" y2="179.694" gradientUnits="userSpaceOnUse">
<stop stop-color="#00ABDE"/>
<stop offset="1" stop-color="#007ED8"/>
</linearGradient>
<radialGradient id="paint1_radial" cx="0" cy="0" r="1" gradientUnits="userSpaceOnUse" gradientTransform="translate(122.459 119.5) scale(7.40211)">
<stop stop-color="#C3F1FF"/>
<stop offset="1" stop-color="#50E6FF"/>
</radialGradient>
<radialGradient id="paint2_radial" cx="0" cy="0" r="1" gradientUnits="userSpaceOnUse" gradientTransform="translate(923.248 838.314) scale(27.4265)">
<stop stop-color="#C3F1FF"/>
<stop offset="1" stop-color="#50E6FF"/>
</radialGradient>
<clipPath id="clip0">
<rect width="159.356" height="188" fill="white"/>
</clipPath>
</defs>
</svg>
