<svg width="100" height="100" viewBox="0 0 100 100" fill="none" xmlns="http://www.w3.org/2000/svg">
<g clip-path="url(#clip0)">
<path d="M49.6401 96.4501C40.382 96.4501 31.3317 93.7047 23.6339 88.5612C15.936 83.4176 9.93624 76.1069 6.3933 67.5535C2.85036 59.0001 1.92337 49.5882 3.72954 40.5079C5.53571 31.4277 9.99394 23.0869 16.5404 16.5404C23.0869 9.99393 31.4277 5.53571 40.5079 3.72954C49.5882 1.92337 59.0001 2.85036 67.5535 6.3933C76.1069 9.93624 83.4176 15.936 88.5612 23.6339C93.7047 31.3317 96.4501 40.382 96.4501 49.6401C96.4505 55.7874 95.24 61.8746 92.8878 67.554C90.5355 73.2335 87.0875 78.3939 82.7407 82.7407C78.3939 87.0875 73.2335 90.5355 67.554 92.8878C61.8746 95.24 55.7874 96.4505 49.6401 96.4501V96.4501Z" fill="url(#paint0_linear)"/>
<path fill-rule="evenodd" clip-rule="evenodd" d="M95.54 49.64C95.54 58.7182 92.848 67.5925 87.8045 75.1407C82.7609 82.6889 75.5923 88.572 67.2052 92.0461C58.818 95.5201 49.5891 96.4291 40.6854 94.658C31.7816 92.887 23.603 88.5154 17.1838 82.0962C10.7646 75.677 6.39302 67.4984 4.62196 58.5946C2.85089 49.6909 3.75987 40.462 7.23393 32.0748C10.708 23.6877 16.5911 16.5191 24.1393 11.4755C31.6875 6.43199 40.5618 3.74 49.64 3.74C55.6677 3.73998 61.6363 4.9272 67.2052 7.23388C72.774 9.54057 77.834 12.9215 82.0963 17.1837C86.3585 21.446 89.7394 26.5059 92.0461 32.0748C94.3528 37.6437 95.54 43.6123 95.54 49.64V49.64ZM49.64 3.62732e-07C59.4579 3.62732e-07 69.0553 2.91134 77.2185 8.36585C85.3818 13.8204 91.7442 21.5731 95.5014 30.6436C99.2585 39.7141 100.242 49.6951 98.3262 59.3243C96.4108 68.9535 91.6831 77.7985 84.7408 84.7408C77.7985 91.6831 68.9535 96.4108 59.3243 98.3262C49.6951 100.242 39.7141 99.2585 30.6436 95.5014C21.5731 91.7442 13.8204 85.3818 8.36585 77.2185C2.91134 69.0553 3.62732e-07 59.4579 3.62732e-07 49.64C-0.000787738 43.121 1.28265 36.6656 3.77702 30.6427C6.27138 24.6197 9.9278 19.1471 14.5375 14.5375C19.1471 9.9278 24.6197 6.27138 30.6427 3.77702C36.6656 1.28265 43.121 -0.000787738 49.64 3.62732e-07V3.62732e-07Z" fill="#F2F1F0"/>
<path fill-rule="evenodd" clip-rule="evenodd" d="M92.7296 49.6406C92.7296 58.163 90.2024 66.494 85.4676 73.5801C80.7328 80.6662 74.0031 86.1892 66.1294 89.4505C58.2557 92.7119 49.5918 93.5653 41.2331 91.9026C32.8745 90.24 25.1966 86.1361 19.1703 80.1098C13.1441 74.0836 9.04017 66.4057 7.37753 58.047C5.7149 49.6884 6.56822 41.0244 9.8296 33.1507C13.091 25.2771 18.6139 18.5473 25.7 13.8126C32.7862 9.07776 41.1172 6.55058 49.6396 6.55058C55.2983 6.55023 60.9017 7.66455 66.1298 9.82991C71.3579 11.9953 76.1082 15.1692 80.1096 19.1706C84.1109 23.1719 87.2849 27.9223 89.4502 33.1503C91.6156 38.3784 92.7299 43.9818 92.7296 49.6406V49.6406ZM49.6396 2.81058C58.9017 2.81058 67.9558 5.55711 75.6569 10.7029C83.3581 15.8486 89.3604 23.1624 92.9049 31.7195C96.4493 40.2766 97.3767 49.6925 95.5697 58.7767C93.7628 67.8608 89.3027 76.2051 82.7534 82.7544C76.2041 89.3037 67.8598 93.7638 58.7757 95.5708C49.6915 97.3777 40.2756 96.4503 31.7185 92.9059C23.1614 89.3614 15.8476 83.3591 10.7018 75.6579C5.5561 67.9568 2.80957 58.9027 2.80957 49.6406C2.81076 37.2209 7.745 25.3101 16.5271 16.5281C25.3091 7.74599 37.2198 2.81174 49.6396 2.81055V2.81058Z" fill="#0078D4"/>
<path fill-rule="evenodd" clip-rule="evenodd" d="M29.5482 37.3262C28.5823 37.329 27.6567 37.714 26.9737 38.397C26.2906 39.08 25.9057 40.0056 25.9028 40.9715V66.4889H73.2923V40.9715C73.2894 40.0056 72.9045 39.08 72.2214 38.397C71.5384 37.714 70.6129 37.329 69.6469 37.3262H29.5482ZM69.6469 39.1488C70.1301 39.1495 70.5934 39.3417 70.935 39.6834C71.2767 40.0251 71.4689 40.4883 71.4696 40.9715V64.6662H27.7255V40.9715C27.726 40.4883 27.9182 40.0249 28.2599 39.6832C28.6016 39.3415 29.0649 39.1493 29.5482 39.1488H69.6469Z" fill="#1F56A3"/>
<path fill-rule="evenodd" clip-rule="evenodd" d="M27.7253 40.9711C27.7258 40.4879 27.918 40.0245 28.2597 39.6828C28.6015 39.3411 29.0648 39.1489 29.548 39.1484H69.6468C70.13 39.1491 70.5932 39.3413 70.9349 39.683C71.2766 40.0247 71.4688 40.4879 71.4694 40.9711V64.6658H27.7253V40.9711Z" fill="#0078D4"/>
<path d="M69.469 41.1484H29.7249V62.666H69.469V41.1484Z" fill="#1B93EB"/>
<path fill-rule="evenodd" clip-rule="evenodd" d="M20.4346 66.4883V67.3996C20.4374 68.3655 20.8224 69.2911 21.5054 69.9741C22.1884 70.6571 23.114 71.0421 24.0799 71.045H75.1147C76.0806 71.0421 77.0062 70.6572 77.6892 69.9741C78.3722 69.2911 78.7572 68.3656 78.76 67.3996V66.4883H20.4346Z" fill="#0078D4"/>
<path fill-rule="evenodd" clip-rule="evenodd" d="M47.7745 69.2223H20.9438C21.2616 69.7738 21.7183 70.2323 22.2686 70.5521C22.8188 70.8719 23.4433 71.0419 24.0797 71.045H75.1145C76.0805 71.0421 77.006 70.6572 77.689 69.9741C78.3721 69.2911 78.757 68.3656 78.7599 67.3996V66.4883H49.5972V67.3996C49.5972 67.639 49.5501 67.876 49.4585 68.0972C49.367 68.3184 49.2327 68.5193 49.0635 68.6886C48.8942 68.8578 48.6932 68.9921 48.4721 69.0837C48.2509 69.1753 48.0139 69.2224 47.7745 69.2223V69.2223Z" fill="#1F56A3"/>
<path fill-rule="evenodd" clip-rule="evenodd" d="M45.9521 68.311H53.2427C53.7261 68.3108 54.1896 68.1187 54.5314 67.7769C54.8731 67.4351 55.0652 66.9716 55.0654 66.4883H44.1294C44.1294 66.9717 44.3214 67.4353 44.6633 67.7771C45.0051 68.1189 45.4687 68.3109 45.9521 68.311V68.311Z" fill="#003067"/>
<path d="M40.2128 54.5511C40.4312 54.9367 40.5455 55.3726 40.5444 55.8158C40.5434 56.2591 40.427 56.6944 40.2067 57.079C39.9865 57.4636 39.6699 57.7843 39.2882 58.0095C38.9065 58.2348 38.4727 58.3568 38.0295 58.3637V61.0927L42.5872 58.45V53.1738L40.2128 54.5511Z" fill="#32BEDD"/>
<path d="M39.2656 51.2383V53.576C39.451 53.6831 39.6218 53.8136 39.7738 53.9643C39.9468 54.1386 40.0934 54.3372 40.2088 54.5538L42.5812 53.1745L39.2656 51.2383Z" fill="#9CEBFF"/>
<path d="M36.1441 53.9962C36.3274 53.8093 36.5395 53.6528 36.7722 53.5327V51.2529L33.4719 53.1648L35.7659 54.5004C35.8711 54.3176 35.9981 54.1484 36.1441 53.9962V53.9962Z" fill="#9CEBFF"/>
<path d="M37.9777 58.3691C37.5253 58.371 37.0804 58.2529 36.6885 58.0268C36.2966 57.8007 35.9717 57.4747 35.7469 57.0821C35.522 56.6895 35.4054 56.2442 35.4087 55.7918C35.4121 55.3394 35.5353 54.896 35.766 54.5067L33.4719 53.165V58.4504L38.0295 61.0931V58.364C38.0143 58.364 37.997 58.3691 37.9777 58.3691Z" fill="#50E6FF"/>
<path d="M36.6169 57.1833C36.9844 57.5444 37.4804 57.7447 37.9956 57.7402C38.5109 57.7356 39.0032 57.5265 39.3643 57.159C39.7254 56.7914 39.9257 56.2954 39.9211 55.7802C39.9165 55.265 39.7074 54.7727 39.3399 54.4116C39.1406 54.2179 38.9017 54.0698 38.6396 53.9776V45.6338H37.3975V53.9542C37.0765 54.0521 36.7865 54.2319 36.5561 54.476C36.3258 54.7201 36.1631 55.0201 36.0839 55.3462C36.0048 55.6724 36.0121 56.0136 36.105 56.3361C36.1979 56.6586 36.3733 56.9513 36.6138 57.1854L36.6169 57.1833Z" fill="url(#paint1_linear)"/>
<path d="M37.9778 46.6816C39.0505 46.6816 39.9201 45.812 39.9201 44.7392C39.9201 43.6665 39.0505 42.7969 37.9778 42.7969C36.905 42.7969 36.0354 43.6665 36.0354 44.7392C36.0354 45.812 36.905 46.6816 37.9778 46.6816Z" fill="url(#paint2_linear)"/>
<path opacity="0.2" d="M29.324 37.3262C29.9084 38.3737 30.7377 39.2642 31.7409 39.9218C32.7441 40.5794 33.8915 40.9845 35.0852 41.1025L35.1838 41.1128L59.9866 41.1636C61.5432 41.1578 63.0798 40.8112 64.4882 40.1483C65.8967 39.4853 67.1429 38.5221 68.1394 37.3262H29.324Z" fill="#003067"/>
<path d="M44.9875 51.9072H46.4446C46.885 51.9072 47.3074 51.7322 47.6188 51.4208C47.9302 51.1094 48.1052 50.687 48.1052 50.2466V46.7544C48.1052 46.3771 48.255 46.0154 48.5218 45.7486C48.7885 45.4819 49.1503 45.332 49.5275 45.332H52.4531" stroke="white" stroke-miterlimit="10"/>
<path d="M44.9875 51.9072H46.4446C46.885 51.9072 47.3074 52.0822 47.6188 52.3936C47.9302 52.705 48.1052 53.1274 48.1052 53.5678V57.06C48.1052 57.4373 48.255 57.799 48.5218 58.0658C48.7885 58.3325 49.1503 58.4823 49.5275 58.4823H52.4531" stroke="white" stroke-miterlimit="10"/>
<path d="M68.4177 32.3956C68.4303 32.3074 68.4555 32.2192 68.4681 32.1436C68.7045 30.8961 68.6633 29.6118 68.3475 28.382C68.0316 27.1521 67.4488 26.0069 66.6404 25.0278C65.832 24.0486 64.818 23.2594 63.6702 22.7163C62.5225 22.1732 61.2692 21.8896 59.9995 21.8854C59.35 21.8832 58.7026 21.9594 58.0714 22.1123C56.7843 20.0822 54.8728 18.525 52.6244 17.6749C50.376 16.8249 47.9123 16.728 45.6041 17.3989C43.2959 18.0697 41.268 19.4721 39.8255 21.3948C38.383 23.3176 37.6039 25.6568 37.6055 28.0605C37.6055 28.2117 37.6055 28.363 37.6181 28.5142C37.0415 28.3201 36.4369 28.2222 35.8286 28.2243C34.4283 28.2246 33.0816 28.7631 32.0672 29.7284C31.0527 30.6938 30.4482 32.0121 30.3786 33.4107C30.309 34.8093 30.7796 36.1812 31.6932 37.2425C32.6067 38.3038 33.8933 38.9733 35.2867 39.1126L59.9869 39.163C61.5243 39.1612 63.0336 38.7506 64.3601 37.9733C65.6866 37.196 66.7825 36.08 67.5356 34.7396C67.5734 34.664 67.6238 34.5884 67.6616 34.5128C67.9953 33.8389 68.249 33.1284 68.4177 32.3956V32.3956Z" fill="white"/>
<path d="M56.005 23.1043C55.6763 23.1043 55.3551 23.0923 55.0441 23.0685C54.7572 23.0464 54.472 23.0056 54.1903 22.9466C53.9295 22.8918 53.6741 22.8141 53.427 22.7144C53.1842 22.6155 52.952 22.4922 52.734 22.3464C52.3456 22.0808 51.9211 21.8721 51.4735 21.7269C51.0567 21.5953 50.6272 21.508 50.1921 21.4663C50.149 21.4622 50.1066 21.46 50.0641 21.46H49.216C49.1736 21.46 49.1311 21.4622 49.0881 21.4663C48.6528 21.508 48.223 21.5955 47.8061 21.7273C47.3654 21.8696 46.9471 22.0734 46.5633 22.3325C46.338 22.4836 46.0985 22.6122 45.8482 22.7167C45.6042 22.8158 45.3517 22.8925 45.0938 22.9457C44.8089 23.0049 44.5205 23.046 44.2304 23.0686C43.9182 23.0923 43.5998 23.1042 43.2752 23.1044C42.9312 23.1044 42.6013 23.2411 42.358 23.4843C42.1147 23.7276 41.9781 24.0575 41.978 24.4015L41.9787 27.8365C41.9837 27.9917 41.9913 28.1469 42.0002 28.2958C42.0103 28.4658 42.0262 28.6359 42.0477 28.806C42.0699 28.9833 42.194 29.643 42.2377 29.815C42.4527 30.6568 42.7901 31.4624 43.2391 32.2061C43.6714 32.921 44.1785 33.588 44.7517 34.1957C45.3185 34.7956 45.9363 35.3452 46.5982 35.8381C47.2283 36.3082 47.8845 36.7424 48.5636 37.1385C48.7617 37.254 48.9868 37.3148 49.2161 37.3146H50.0642C50.2934 37.3148 50.5186 37.254 50.7166 37.1385C51.3958 36.7424 52.052 36.3081 52.6821 35.8378C53.344 35.3451 53.9618 34.7958 54.5285 34.1961C55.1017 33.5882 55.6087 32.9211 56.0411 32.2062C56.4902 31.4625 56.8276 30.6568 57.0425 29.8151C57.0869 29.6431 57.2015 29.0084 57.2269 28.8456C57.2554 28.6642 57.2752 28.4829 57.2864 28.3018C57.2972 28.1334 57.3025 27.9648 57.3022 27.7961V24.4015C57.3022 24.0575 57.1656 23.7276 56.9223 23.4843C56.679 23.241 56.3491 23.1043 56.005 23.1043V23.1043Z" fill="white"/>
<path d="M50.0645 22.7568C50.4089 22.7894 50.749 22.8583 51.0789 22.9624C51.4086 23.0696 51.7212 23.2237 52.0071 23.4198C52.3008 23.6172 52.6141 23.7838 52.9419 23.9171C53.2596 24.0451 53.588 24.1449 53.9232 24.2154C54.26 24.2863 54.601 24.335 54.9442 24.3613C55.2889 24.3878 55.6425 24.4011 56.005 24.4011V27.7956C56.005 27.9371 56.0006 28.0785 55.9917 28.22C55.9829 28.3614 55.9674 28.5028 55.9453 28.6443H50.0645V22.7568ZM43.2754 24.4011C43.6334 24.4011 43.9848 24.3878 44.3296 24.3613C44.6749 24.3347 45.0181 24.286 45.3572 24.2154C45.6927 24.1462 46.0212 24.0463 46.3384 23.9171C46.6681 23.7805 46.9834 23.6117 47.2799 23.4132C47.5642 23.2201 47.8745 23.0683 48.2015 22.9624C48.5314 22.8583 48.8714 22.7894 49.2159 22.7568V28.6443H43.3351C43.3174 28.5028 43.3042 28.3614 43.2953 28.22C43.2865 28.0785 43.2798 27.9371 43.2754 27.7956L43.2754 24.4011ZM49.2159 36.0168C48.5789 35.6453 47.9636 35.238 47.3727 34.7969C46.7711 34.3496 46.2099 33.8504 45.6953 33.3052C45.185 32.7647 44.7338 32.1712 44.3494 31.535C43.9656 30.9 43.6774 30.212 43.4942 29.493H49.2159V36.0168ZM50.0645 29.4929H55.7862C55.603 30.2119 55.3148 30.9 54.9309 31.5349C54.5465 32.1712 54.0954 32.7646 53.585 33.3051C53.0705 33.8504 52.5093 34.3495 51.9076 34.7969C51.3168 35.238 50.7014 35.6453 50.0645 36.0168V29.4929Z" fill="#1B93EB"/>
<path d="M56.0049 46.9414C56.8937 46.9414 57.6143 46.2209 57.6143 45.332C57.6143 44.4432 56.8937 43.7227 56.0049 43.7227C55.1161 43.7227 54.3955 44.4432 54.3955 45.332C54.3955 46.2209 55.1161 46.9414 56.0049 46.9414Z" fill="white"/>
<path d="M65.3987 45.832H59.426C59.2934 45.832 59.1662 45.7794 59.0725 45.6856C58.9787 45.5918 58.926 45.4646 58.926 45.332C58.926 45.1994 58.9787 45.0722 59.0725 44.9785C59.1662 44.8847 59.2934 44.832 59.426 44.832H65.3987C65.5313 44.832 65.6585 44.8847 65.7522 44.9785C65.846 45.0722 65.8987 45.1994 65.8987 45.332C65.8987 45.4646 65.846 45.5918 65.7522 45.6856C65.6585 45.7794 65.5313 45.832 65.3987 45.832Z" fill="white"/>
<g opacity="0.75">
<path opacity="0.75" d="M56.0049 51.3145C56.8937 51.3145 57.6143 50.5939 57.6143 49.7051C57.6143 48.8162 56.8937 48.0957 56.0049 48.0957C55.1161 48.0957 54.3955 48.8162 54.3955 49.7051C54.3955 50.5939 55.1161 51.3145 56.0049 51.3145Z" fill="white"/>
<path opacity="0.75" d="M65.3987 50.2051H59.426C59.2934 50.2051 59.1662 50.1524 59.0725 50.0586C58.9787 49.9649 58.926 49.8377 58.926 49.7051C58.926 49.5725 58.9787 49.4453 59.0725 49.3515C59.1662 49.2578 59.2934 49.2051 59.426 49.2051H65.3987C65.5313 49.2051 65.6585 49.2578 65.7522 49.3515C65.846 49.4453 65.8987 49.5725 65.8987 49.7051C65.8987 49.8377 65.846 49.9649 65.7522 50.0586C65.6585 50.1524 65.5313 50.2051 65.3987 50.2051Z" fill="white"/>
</g>
<g opacity="0.5">
<path opacity="0.5" d="M56.0049 55.835C56.8937 55.835 57.6143 55.1144 57.6143 54.2256C57.6143 53.3368 56.8937 52.6162 56.0049 52.6162C55.1161 52.6162 54.3955 53.3368 54.3955 54.2256C54.3955 55.1144 55.1161 55.835 56.0049 55.835Z" fill="white"/>
<path opacity="0.5" d="M65.3987 54.7256H59.426C59.2934 54.7256 59.1662 54.6729 59.0725 54.5791C58.9787 54.4854 58.926 54.3582 58.926 54.2256C58.926 54.093 58.9787 53.9658 59.0725 53.872C59.1662 53.7783 59.2934 53.7256 59.426 53.7256H65.3987C65.5313 53.7256 65.6585 53.7783 65.7522 53.872C65.846 53.9658 65.8987 54.093 65.8987 54.2256C65.8987 54.3582 65.846 54.4854 65.7522 54.5791C65.6585 54.6729 65.5313 54.7256 65.3987 54.7256Z" fill="white"/>
</g>
<g opacity="0.2">
<path opacity="0.2" d="M56.0049 60.0918C56.8937 60.0918 57.6143 59.3713 57.6143 58.4824C57.6143 57.5936 56.8937 56.873 56.0049 56.873C55.1161 56.873 54.3955 57.5936 54.3955 58.4824C54.3955 59.3713 55.1161 60.0918 56.0049 60.0918Z" fill="white"/>
<path opacity="0.2" d="M65.3987 58.9824H59.426C59.2934 58.9824 59.1662 58.9297 59.0725 58.836C58.9787 58.7422 58.926 58.615 58.926 58.4824C58.926 58.3498 58.9787 58.2226 59.0725 58.1289C59.1662 58.0351 59.2934 57.9824 59.426 57.9824H65.3987C65.5313 57.9824 65.6585 58.0351 65.7522 58.1289C65.846 58.2226 65.8987 58.3498 65.8987 58.4824C65.8987 58.615 65.846 58.7422 65.7522 58.836C65.6585 58.9297 65.5313 58.9824 65.3987 58.9824Z" fill="white"/>
</g>
</g>
<defs>
<linearGradient id="paint0_linear" x1="47.8697" y1="-15.153" x2="51.8525" y2="130.615" gradientUnits="userSpaceOnUse">
<stop stop-color="#00ABDE"/>
<stop offset="1" stop-color="#007ED8"/>
</linearGradient>
<linearGradient id="paint1_linear" x1="37.9751" y1="45.3878" x2="37.9751" y2="57.7871" gradientUnits="userSpaceOnUse">
<stop stop-color="#E6E6E6"/>
<stop offset="1" stop-color="#999999"/>
</linearGradient>
<linearGradient id="paint2_linear" x1="37.9778" y1="42.8833" x2="37.9778" y2="46.768" gradientUnits="userSpaceOnUse">
<stop stop-color="#50E6FF"/>
<stop offset="1" stop-color="#32BEDD"/>
</linearGradient>
<clipPath id="clip0">
<rect width="99.2799" height="99.28" fill="white"/>
</clipPath>
</defs>
</svg>
