<svg width="160" height="188" viewBox="0 0 160 188" fill="none" xmlns="https://www.w3.org/2000/svg">
<g clip-path="url(#clip0)">
<path d="M79.6779 188C82.7592 187.994 85.7796 187.141 88.4083 185.534L150.384 147.874C153.165 146.11 155.449 143.665 157.019 140.771C158.589 137.876 159.394 134.628 159.356 131.336V56.6207C159.392 53.3283 158.587 50.0812 157.017 47.1871C155.447 44.2929 153.163 41.8476 150.384 40.0829L88.4083 2.4228C85.7749 0.837605 82.7592 0 79.6855 0C76.6118 0 73.5961 0.837605 70.9627 2.4228L8.9876 40.098C6.2045 41.8604 3.91796 44.3048 2.34499 47.1991C0.772021 50.0935 -0.0351786 53.3418 4.1431e-06 56.6358V131.336C-0.0185283 134.119 0.556189 136.874 1.68588 139.418C2.81557 141.962 4.4743 144.236 6.5516 146.089V146.115L70.9627 185.549C73.5884 187.149 76.6032 187.996 79.6779 188V188ZM80.3257 6.95218C82.2776 6.95218 84.7548 8.1651 86.4646 9.20912L147.222 46.4034C150.974 48.6881 153.09 55.2842 153.09 60.0352L152.458 131.336C152.458 136.087 149.259 140.355 145.506 142.64L85.1104 179.021C81.6758 181.109 78.8854 181.109 75.4507 179.021L14.2427 142.549C10.4903 140.265 7.47191 136.072 7.47191 131.336V57.688C7.50442 55.3228 8.11341 53.0013 9.24608 50.9247C10.3787 48.8482 12.0009 47.0792 13.9718 45.7714L74.548 9.20912C76.2577 8.1651 78.3739 6.95218 80.3257 6.95218Z" fill="#F2F1F0"/>
<path fill-rule="evenodd" clip-rule="evenodd" d="M87.5765 10.5337C85.2056 9.0602 82.4697 8.2793 79.6783 8.2793C76.8868 8.2793 74.1509 9.0602 71.7801 10.5337L15.6454 44.8651C13.1193 46.4768 11.047 48.7072 9.625 51.3446C8.203 53.9821 7.47851 56.9392 7.52026 59.9352V128.038C7.48034 131.034 8.20562 133.991 9.62745 136.628C11.0493 139.265 13.1206 141.495 15.6454 143.108L71.7801 177.439C74.1508 178.913 76.8867 179.694 79.6783 179.694C82.4698 179.694 85.2057 178.913 87.5765 177.439L143.711 143.108C146.236 141.496 148.307 139.265 149.729 136.628C151.151 133.991 151.877 131.034 151.837 128.038V59.9352C151.875 56.9397 151.149 53.9839 149.727 51.347C148.305 48.7101 146.234 46.4793 143.711 44.8651L87.5765 10.5337Z" fill="url(#paint0_linear)"/>
<path fill-rule="evenodd" clip-rule="evenodd" d="M79.6783 9.7539C81.3615 9.7539 83.2442 10.6196 85.311 11.8777L143.777 47.4201C145.668 48.6335 147.218 50.3104 148.278 52.2914C149.339 54.2725 149.875 56.4918 149.837 58.7386V129.217C149.875 131.464 149.339 133.683 148.278 135.664C147.218 137.645 145.668 139.322 143.777 140.535L85.312 176.077L85.311 176.078C83.6408 177.217 81.6958 177.888 79.6783 178.021C77.6609 177.888 75.7158 177.217 74.0456 176.078L74.0446 176.077L15.5823 140.537L15.5801 140.536C13.7918 139.572 12.2668 138.185 11.1383 136.496C10.1614 134.893 9.52031 132.678 9.52031 129.217V58.7386C9.48157 56.4919 10.018 54.2726 11.0785 52.2916C12.139 50.3106 13.6885 48.6336 15.5797 47.4202L74.0365 11.8831L74.0406 11.8807C76.1244 10.6277 77.9846 9.7539 79.6783 9.7539ZM87.3908 8.4609L145.855 44.0021C148.333 45.5722 150.368 47.751 151.765 50.3307C153.162 52.9104 153.876 55.8051 153.837 58.7386V129.217C153.876 132.151 153.162 135.045 151.765 137.625C150.368 140.205 148.333 142.384 145.855 143.954L87.3898 179.495C85.0956 181.02 82.4302 181.893 79.6783 182.021C76.9264 181.893 74.261 181.02 71.9667 179.495H71.9658L13.502 143.953L13.4995 143.952C11.1642 142.659 9.18097 140.814 7.72281 138.578C6.12823 135.725 5.36521 132.482 5.52031 129.217V58.7386C5.48125 55.805 6.19436 52.9103 7.59165 50.3305C8.98894 47.7508 11.0238 45.572 13.5022 44.002L71.9667 8.46025L71.9749 8.45537C74.0655 7.19796 76.7734 5.75391 79.6783 5.75391C82.5645 5.75391 85.2816 7.17699 87.3908 8.46085V8.4609Z" fill="#0078D4"/>
<path opacity="0.2" d="M139.887 131.926L80.3369 166.533L20.3979 131.927L79.9479 97.3203L139.887 131.926Z" fill="#003067"/>
<path d="M140.532 120.547L79.81 155.835L18.698 120.552L79.42 85.2637L140.532 120.547Z" fill="#1B93EB"/>
<path d="M140.532 120.547L140.52 124.653L79.798 159.941L79.81 155.835L140.532 120.547Z" fill="#1F56A3"/>
<path d="M79.81 155.834L79.798 159.94L18.686 124.657L18.698 120.551L79.81 155.834Z" fill="#0078D4"/>
<path d="M49.9585 107.448C50.0478 107.478 50.1254 107.536 50.1806 107.612C50.2358 107.689 50.2657 107.781 50.2662 107.875C50.2668 107.969 50.2379 108.061 50.1836 108.138C50.1293 108.215 50.0523 108.274 49.9633 108.305C49.734 108.423 49.48 108.484 49.2221 108.485C48.9643 108.485 48.7101 108.424 48.4804 108.307C48.0613 108.065 48.0593 107.688 48.4714 107.448C48.7016 107.331 48.9565 107.27 49.2149 107.27C49.4734 107.27 49.7282 107.331 49.9585 107.448V107.448Z" fill="#50E6FF"/>
<path d="M77.4149 122.325C77.4663 122.342 77.5109 122.375 77.5426 122.419C77.5743 122.463 77.5914 122.516 77.5917 122.57C77.592 122.625 77.5755 122.678 77.5443 122.722C77.5131 122.766 77.4688 122.8 77.4177 122.818L74.8072 124.335L45.5098 107.42L47.9288 106.015L48.1203 105.903C48.2522 105.836 48.3982 105.801 48.5463 105.801C48.6945 105.801 48.8405 105.836 48.9724 105.903L77.4149 122.325ZM48.4805 108.306C48.7102 108.423 48.9644 108.484 49.2222 108.483C49.48 108.483 49.734 108.421 49.9633 108.303C50.0523 108.272 50.1293 108.214 50.1836 108.137C50.2379 108.06 50.2668 107.968 50.2663 107.874C50.2657 107.779 50.2358 107.687 50.1806 107.611C50.1255 107.535 50.0478 107.477 49.9585 107.447C49.7283 107.329 49.4735 107.268 49.215 107.268C48.9565 107.268 48.7017 107.329 48.4715 107.447C48.0593 107.687 48.0614 108.064 48.4805 108.306" fill="#0078D4"/>
<path d="M45.5098 107.422L74.8072 124.337L55.3678 135.634C55.1956 135.721 55.0053 135.766 54.8123 135.766C54.6193 135.766 54.4289 135.721 54.2567 135.634L26.074 119.362C26.007 119.339 25.9489 119.296 25.9076 119.239C25.8663 119.181 25.8439 119.113 25.8435 119.042C25.8431 118.971 25.8648 118.902 25.9054 118.844C25.9461 118.786 26.0037 118.742 26.0704 118.719L45.5098 107.422Z" fill="#F2F2F2"/>
<path d="M77.4176 122.819L74.8071 124.336L74.8026 125.941L77.4131 124.424C77.4612 124.403 77.5026 124.368 77.5332 124.325C77.5638 124.282 77.5823 124.232 77.5871 124.179L77.5917 122.574C77.5869 122.627 77.5683 122.677 77.5377 122.72C77.5071 122.763 77.4657 122.797 77.4176 122.819V122.819Z" fill="#1F56A3"/>
<path d="M55.3677 135.632C55.1955 135.719 55.0052 135.765 54.8121 135.765C54.6191 135.765 54.4288 135.719 54.2566 135.632L26.0739 119.361C26.0101 119.333 25.9551 119.287 25.9146 119.231C25.8741 119.174 25.8495 119.107 25.8435 119.037L25.8389 120.642C25.8449 120.712 25.8695 120.779 25.91 120.836C25.9506 120.893 26.0056 120.938 26.0694 120.966L54.2521 137.238C54.4244 137.325 54.6147 137.37 54.8077 137.37C55.0007 137.37 55.191 137.325 55.3633 137.238L74.8026 125.941L74.8071 124.335L55.3677 135.632Z" fill="#E8E8E8"/>
<path d="M106.814 103.899C106.904 103.93 106.981 103.987 107.037 104.063C107.092 104.14 107.122 104.232 107.122 104.326C107.123 104.42 107.094 104.512 107.04 104.589C106.985 104.667 106.908 104.725 106.819 104.756C106.59 104.874 106.336 104.936 106.078 104.936C105.82 104.936 105.566 104.875 105.336 104.758C104.917 104.516 104.915 104.139 105.327 103.899C105.558 103.782 105.812 103.721 106.071 103.721C106.329 103.721 106.584 103.782 106.814 103.899V103.899Z" fill="#50E6FF"/>
<path d="M134.271 118.778C134.322 118.795 134.367 118.828 134.398 118.872C134.43 118.916 134.447 118.969 134.448 119.024C134.448 119.078 134.431 119.131 134.4 119.175C134.369 119.22 134.325 119.253 134.274 119.271L131.663 120.788L102.366 103.874L104.785 102.468L104.976 102.356C105.108 102.289 105.254 102.254 105.402 102.254C105.55 102.254 105.696 102.289 105.828 102.356L134.271 118.778ZM105.336 104.759C105.566 104.876 105.82 104.937 106.078 104.937C106.336 104.936 106.59 104.874 106.819 104.757C106.908 104.725 106.985 104.667 107.039 104.59C107.094 104.513 107.123 104.421 107.122 104.327C107.122 104.232 107.092 104.141 107.036 104.064C106.981 103.988 106.904 103.93 106.814 103.9C106.584 103.783 106.329 103.721 106.071 103.721C105.812 103.721 105.558 103.783 105.327 103.9C104.915 104.14 104.917 104.517 105.336 104.759" fill="#0078D4"/>
<path d="M102.366 103.873L131.663 120.788L112.224 132.085C112.051 132.172 111.861 132.217 111.668 132.217C111.475 132.217 111.285 132.172 111.113 132.085L82.9298 115.814C82.8629 115.791 82.8047 115.748 82.7634 115.69C82.7221 115.633 82.6997 115.564 82.6993 115.493C82.699 115.422 82.7206 115.353 82.7612 115.295C82.8019 115.237 82.8596 115.194 82.9262 115.17L102.366 103.873Z" fill="#F2F2F2"/>
<path d="M134.274 119.27L131.663 120.787L131.659 122.393L134.269 120.876C134.317 120.854 134.359 120.82 134.389 120.777C134.42 120.734 134.438 120.683 134.443 120.631L134.448 119.025C134.443 119.078 134.424 119.128 134.394 119.171C134.363 119.214 134.322 119.249 134.274 119.27Z" fill="#1F56A3"/>
<path d="M112.224 132.086C112.051 132.173 111.861 132.218 111.668 132.218C111.475 132.218 111.285 132.173 111.112 132.086L82.9298 115.814C82.866 115.786 82.8109 115.741 82.7704 115.684C82.7299 115.627 82.7054 115.56 82.6993 115.49L82.6947 117.095C82.7008 117.165 82.7253 117.232 82.7659 117.289C82.8064 117.346 82.8614 117.391 82.9252 117.419L111.108 133.691C111.28 133.778 111.471 133.823 111.664 133.823C111.857 133.823 112.047 133.778 112.219 133.691L131.658 122.394L131.663 120.789L112.224 132.086Z" fill="#E8E8E8"/>
<path d="M59.4751 121.618C59.4834 118.692 55.3945 116.308 50.3421 116.294C45.2898 116.279 41.1874 118.64 41.1791 121.566C41.1708 124.493 45.2598 126.877 50.3121 126.891C55.3644 126.906 59.4668 124.545 59.4751 121.618Z" fill="#E8E8E8"/>
<path d="M116.331 118.071C116.339 115.145 112.25 112.761 107.198 112.747C102.146 112.732 98.0434 115.093 98.0351 118.02C98.0268 120.946 102.116 123.33 107.168 123.344C112.22 123.359 116.323 120.998 116.331 118.071Z" fill="#E8E8E8"/>
<path d="M83.9758 129.744C84.4616 130.025 84.4719 130.473 83.9893 130.753L70.1721 138.783C69.9019 138.919 69.6034 138.99 69.3007 138.989C68.9981 138.988 68.6999 138.916 68.4305 138.778L66.268 137.53C66.1634 137.494 66.0726 137.427 66.008 137.337C65.9435 137.248 65.9085 137.14 65.9078 137.03C65.9072 136.919 65.941 136.811 66.0045 136.721C66.0681 136.631 66.1582 136.562 66.2623 136.525L80.0795 128.496C80.3479 128.359 80.645 128.287 80.9464 128.287C81.2478 128.287 81.5449 128.359 81.8133 128.496L83.9758 129.744Z" fill="#0078D4"/>
<path d="M65.9077 137.025C65.9172 137.134 65.9556 137.238 66.0189 137.327C66.0822 137.416 66.1682 137.486 66.2678 137.531L68.4304 138.78C68.6998 138.917 68.998 138.99 69.3007 138.99C69.6033 138.991 69.9019 138.92 70.172 138.784L83.9891 130.754C84.0872 130.711 84.1718 130.641 84.2345 130.554C84.2971 130.467 84.3355 130.365 84.3457 130.258L84.34 132.259C84.3298 132.365 84.2915 132.468 84.2288 132.555C84.1662 132.642 84.0815 132.711 83.9834 132.755L70.1663 140.785C69.8962 140.921 69.5976 140.992 69.295 140.991C68.9923 140.99 68.6941 140.918 68.4247 140.78L66.2622 139.532C66.1626 139.487 66.0767 139.417 66.0134 139.328C65.95 139.239 65.9116 139.135 65.9021 139.026L65.9077 137.025Z" fill="#1F56A3"/>
<path d="M94.1826 131.02C94.6684 131.3 94.6709 131.753 94.1961 132.029L76.3933 142.375C76.1231 142.511 75.8246 142.582 75.5219 142.581C75.2193 142.58 74.9211 142.508 74.6517 142.37L72.4892 141.122C72.3846 141.086 72.2938 141.019 72.2292 140.929C72.1647 140.839 72.1297 140.732 72.129 140.621C72.1284 140.511 72.1622 140.403 72.2257 140.313C72.2893 140.222 72.3793 140.154 72.4835 140.117L90.2863 129.771C90.555 129.635 90.852 129.564 91.1532 129.564C91.4544 129.564 91.7514 129.635 92.0201 129.771L94.1826 131.02Z" fill="#50E6FF"/>
<path d="M72.129 140.615C72.1385 140.724 72.1769 140.828 72.2403 140.917C72.3036 141.006 72.3896 141.077 72.4892 141.121L74.6517 142.37C74.9211 142.507 75.2192 142.58 75.5219 142.58C75.8245 142.581 76.123 142.511 76.3932 142.374L94.196 132.028C94.2936 131.984 94.3778 131.915 94.4399 131.827C94.502 131.74 94.5398 131.638 94.5496 131.531L94.5439 133.532C94.5342 133.639 94.4964 133.741 94.4342 133.828C94.3721 133.916 94.288 133.985 94.1903 134.029L76.3875 144.375C76.1174 144.511 75.8188 144.582 75.5162 144.581C75.2136 144.58 74.9154 144.508 74.646 144.37L72.4835 143.122C72.3839 143.077 72.2979 143.007 72.2346 142.918C72.1713 142.829 72.1329 142.725 72.1234 142.616L72.129 140.615Z" fill="#32BEDD"/>
<path d="M90.619 140.307C90.7235 140.343 90.8144 140.41 90.8789 140.5C90.9434 140.589 90.9784 140.697 90.979 140.807C90.9796 140.918 90.9458 141.026 90.8823 141.116C90.8188 141.206 90.7287 141.275 90.6245 141.311L82.6145 145.966C82.3458 146.102 82.0488 146.173 81.7476 146.173C81.4464 146.173 81.1495 146.102 80.8808 145.966L78.7182 144.718C78.2325 144.437 78.2298 143.985 78.7047 143.709L86.7148 139.054C86.9849 138.918 87.2835 138.847 87.5862 138.848C87.8888 138.848 88.187 138.921 88.4565 139.059L90.619 140.307Z" fill="#C3F1FF"/>
<path d="M78.3511 144.206C78.3612 144.316 78.4005 144.422 78.4651 144.512C78.5296 144.602 78.6169 144.673 78.7181 144.718L80.8807 145.966C81.1494 146.102 81.4464 146.173 81.7476 146.173C82.0488 146.173 82.3457 146.102 82.6144 145.966L90.6245 141.311C90.7224 141.267 90.8068 141.197 90.8691 141.11C90.9314 141.022 90.9694 140.92 90.9791 140.812L90.9734 142.813C90.9637 142.92 90.9257 143.023 90.8634 143.11C90.8011 143.198 90.7167 143.268 90.6188 143.312L82.6087 147.967C82.34 148.103 82.0431 148.174 81.7419 148.174C81.4407 148.174 81.1437 148.103 80.875 147.967L78.7125 146.718C78.6113 146.673 78.5239 146.602 78.4594 146.512C78.3949 146.422 78.3555 146.317 78.3455 146.207L78.3511 144.206Z" fill="#9CEBFF"/>
<path d="M57.3292 121.339C57.2327 121.923 56.9954 122.474 56.638 122.945C56.2806 123.416 55.8137 123.793 55.2779 124.043C53.7224 124.827 52.0046 125.236 50.2625 125.236C48.5204 125.236 46.8026 124.827 45.2471 124.043C44.7088 123.793 44.2388 123.416 43.8771 122.946C43.5155 122.475 43.2728 121.924 43.1697 121.339C43.1597 121.086 43.1801 120.832 43.2306 120.583C43.4536 118.865 44.2973 117.287 45.6027 116.147C46.9082 115.007 48.5853 114.384 50.3183 114.395C52.0513 114.405 53.7206 115.049 55.0119 116.205C56.3032 117.361 57.1274 118.949 57.3292 120.67C57.3727 120.891 57.3727 121.119 57.3292 121.339V121.339ZM50.2799 113.386C51.1178 113.381 51.9353 113.128 52.6295 112.658C53.3236 112.189 53.8632 111.525 54.1803 110.749C54.4974 109.974 54.5777 109.122 54.4111 108.301C54.2445 107.48 53.8384 106.726 53.2442 106.136C52.6499 105.545 51.894 105.144 51.0719 104.982C50.2498 104.82 49.3982 104.906 48.6246 105.228C47.851 105.55 47.1901 106.093 46.7251 106.79C46.2602 107.487 46.0121 108.306 46.0121 109.144C46.0128 109.703 46.1239 110.257 46.339 110.773C46.5541 111.289 46.8689 111.757 47.2654 112.151C47.6619 112.545 48.1323 112.857 48.6496 113.069C49.1669 113.281 49.7209 113.389 50.2799 113.386V113.386Z" fill="url(#paint1_linear)"/>
<path opacity="0.2" d="M66.019 105.927C66.1248 105.988 66.2355 106.053 66.3511 106.109L66.3546 107.345C66.239 107.29 66.1283 107.225 66.0225 107.164C63.8603 105.907 62.7786 104.265 62.7739 102.622L62.7704 101.385C62.7751 103.028 63.8569 104.67 66.019 105.927Z" fill="#32BEDD"/>
<path opacity="0.2" d="M64.8451 111.221C65.9796 111.794 67.2266 112.111 68.4972 112.147C69.7679 112.183 71.0309 111.939 72.1963 111.431L89.845 101.286C91.561 100.295 92.4132 98.9911 92.4095 97.6914L92.413 98.9281C92.4166 100.228 91.5645 101.532 89.8484 102.523L72.1998 112.667C71.0344 113.175 69.7714 113.42 68.5008 113.384C67.2301 113.347 65.9831 113.031 64.8486 112.458C64.4091 112.26 64.0299 111.949 63.7497 111.557C63.4695 111.165 63.2984 110.705 63.2536 110.225L63.2501 108.988C63.2949 109.468 63.466 109.928 63.7462 110.32C64.0264 110.712 64.4056 111.023 64.8451 111.221V111.221Z" fill="#32BEDD"/>
<path opacity="0.2" d="M66.0608 96.7899C61.6921 99.3121 61.6691 103.4 66.019 105.928C66.1249 105.99 66.2355 106.054 66.3511 106.11C65.8342 106.254 65.3369 106.46 64.8703 106.725C62.7199 107.967 62.7086 109.98 64.8451 111.222C65.9795 111.795 67.2266 112.111 68.4972 112.147C69.7679 112.184 71.0309 111.939 72.1962 111.431L89.845 101.286C92.1552 99.9526 92.8997 98.0512 92.0982 96.3566C92.0647 96.309 92.0505 96.2559 92.0218 96.2112C91.7653 95.7688 91.4419 95.3688 91.063 95.0255C91.0101 94.9836 90.9621 94.9388 90.9188 94.9025C90.5959 94.6269 90.2482 94.3816 89.8802 94.1699C87.9805 93.2024 85.879 92.6978 83.7471 92.6973C81.6153 92.6968 79.5135 93.2004 77.6134 94.167C77.1749 94.4145 76.7666 94.7119 76.3967 95.0535C72.8545 94.5345 69.2389 95.1419 66.0608 96.7899V96.7899Z" fill="url(#paint2_linear)"/>
<path opacity="0.5" d="M66.019 99.8977C66.1248 99.9592 66.2355 100.023 66.3511 100.079L66.3546 101.316C66.239 101.26 66.1283 101.196 66.0225 101.134C63.8603 99.8779 62.7786 98.2358 62.7739 96.5922L62.7704 95.3555C62.7751 96.9991 63.8569 98.6412 66.019 99.8977Z" fill="#32BEDD"/>
<path opacity="0.5" d="M64.8451 105.19C65.9796 105.763 67.2266 106.079 68.4972 106.116C69.7679 106.152 71.0309 105.907 72.1963 105.4L89.845 95.2546C91.561 94.2638 92.4132 92.9598 92.4095 91.6602L92.413 92.8969C92.4167 94.1966 91.5646 95.5006 89.8484 96.4913L72.1998 106.636C71.0344 107.144 69.7714 107.389 68.5008 107.352C67.2301 107.316 65.9831 107 64.8486 106.426C64.4091 106.229 64.0299 105.918 63.7497 105.526C63.4695 105.133 63.2984 104.674 63.2536 104.194L63.2501 102.957C63.2949 103.437 63.466 103.897 63.7462 104.289C64.0264 104.681 64.4056 104.992 64.8451 105.19V105.19Z" fill="#32BEDD"/>
<path opacity="0.5" d="M66.0608 90.7586C61.6921 93.2809 61.6691 97.369 66.019 99.8969C66.1248 99.9584 66.2355 100.023 66.351 100.079C65.8341 100.222 65.3368 100.429 64.8703 100.694C62.7199 101.935 62.7086 103.949 64.845 105.19C65.9795 105.764 67.2265 106.08 68.4972 106.116C69.7679 106.152 71.0309 105.908 72.1962 105.4L89.845 95.2552C92.1552 93.9214 92.8997 92.0199 92.0982 90.3253C92.0647 90.2778 92.0505 90.2247 92.0218 90.1799C91.7654 89.7375 91.4419 89.3376 91.063 88.9943C91.0101 88.9523 90.9621 88.9076 90.9188 88.8713C90.5959 88.5956 90.2482 88.3504 89.8802 88.1386C87.9805 87.1711 85.879 86.6665 83.7471 86.666C81.6153 86.6655 79.5135 87.1691 77.6134 88.1358C77.1749 88.3832 76.7666 88.6807 76.3967 89.0222C72.8546 88.5032 69.2389 89.1107 66.0608 90.7586V90.7586Z" fill="url(#paint3_linear)"/>
<path d="M66.019 93.8664C66.1248 93.9279 66.2355 93.9922 66.3511 94.0482L66.3546 95.2849C66.239 95.229 66.1283 95.1647 66.0225 95.1031C63.8603 93.8466 62.7786 92.2045 62.7739 90.561L62.7704 89.3242C62.7751 90.9678 63.8569 92.6099 66.019 93.8664Z" fill="#32BEDD"/>
<path d="M64.8451 99.1605C65.9796 99.7339 67.2266 100.05 68.4972 100.086C69.7679 100.123 71.0309 99.8781 72.1963 99.3702L89.845 89.2253C91.561 88.2346 92.4132 86.9306 92.4095 85.6309L92.413 86.8676C92.4167 88.1673 91.5646 89.4713 89.8484 90.4621L72.1998 100.607C71.0344 101.115 69.7714 101.359 68.5008 101.323C67.2301 101.287 65.9831 100.971 64.8486 100.397C64.4091 100.199 64.0299 99.8884 63.7497 99.4962C63.4695 99.1041 63.2984 98.6446 63.2536 98.1646L63.2501 96.9279C63.2949 97.4078 63.466 97.8673 63.7462 98.2595C64.0264 98.6517 64.4056 98.9626 64.8451 99.1605V99.1605Z" fill="#32BEDD"/>
<path d="M66.0608 84.7274C61.6921 87.2496 61.6691 91.3378 66.019 93.8657C66.1249 93.9272 66.2355 93.9915 66.3511 94.0474C65.8342 94.1911 65.3369 94.3977 64.8703 94.6626C62.7199 95.9042 62.7086 97.9175 64.8451 99.1591C65.9795 99.7325 67.2266 100.049 68.4972 100.085C69.7679 100.121 71.0309 99.8767 72.1962 99.3688L89.845 89.2239C92.1552 87.8901 92.8997 85.9886 92.0982 84.2941C92.0647 84.2465 92.0505 84.1934 92.0218 84.1487C91.7653 83.7063 91.4419 83.3063 91.063 82.963C91.0101 82.9211 90.9621 82.8763 90.9188 82.84C90.5959 82.5644 90.2482 82.3191 89.8802 82.1074C87.9805 81.1399 85.879 80.6353 83.7471 80.6348C81.6153 80.6343 79.5135 81.1379 77.6134 82.1045C77.1749 82.352 76.7666 82.6494 76.3967 82.991C72.8545 82.472 69.2389 83.0794 66.0608 84.7274Z" fill="url(#paint4_linear)"/>
<path d="M107.069 94.748C107.003 94.748 106.938 94.7609 106.877 94.786C106.817 94.8111 106.762 94.848 106.715 94.8944C106.669 94.9408 106.632 94.996 106.607 95.0567C106.582 95.1173 106.569 95.1824 106.569 95.248V99.008C106.569 99.1406 106.621 99.2678 106.715 99.3615C106.809 99.4553 106.936 99.508 107.069 99.508C107.201 99.508 107.329 99.4553 107.422 99.3615C107.516 99.2678 107.569 99.1406 107.569 99.008V95.248C107.569 95.1824 107.556 95.1173 107.531 95.0567C107.506 94.996 107.469 94.9408 107.422 94.8944C107.376 94.848 107.321 94.8111 107.26 94.786C107.199 94.7609 107.134 94.748 107.069 94.748V94.748Z" fill="white"/>
<path d="M107.069 83.4492C107.003 83.4492 106.938 83.4621 106.877 83.4872C106.817 83.5123 106.762 83.5491 106.715 83.5956C106.669 83.642 106.632 83.6972 106.607 83.7578C106.582 83.8185 106.569 83.8835 106.569 83.9492V89.5986C106.569 89.7312 106.621 89.8584 106.715 89.9522C106.809 90.046 106.936 90.0986 107.069 90.0986C107.201 90.0986 107.329 90.046 107.422 89.9522C107.516 89.8584 107.569 89.7312 107.569 89.5986V83.9492C107.569 83.8835 107.556 83.8185 107.531 83.7578C107.506 83.6972 107.469 83.642 107.422 83.5956C107.376 83.5491 107.321 83.5123 107.26 83.4872C107.199 83.4621 107.134 83.4492 107.069 83.4492V83.4492Z" fill="white"/>
<path d="M107.069 72.1523C107.003 72.1523 106.938 72.1652 106.877 72.1903C106.817 72.2154 106.762 72.2523 106.715 72.2987C106.669 72.3451 106.632 72.4003 106.607 72.461C106.582 72.5216 106.569 72.5867 106.569 72.6523V78.3018C106.569 78.4344 106.621 78.5615 106.715 78.6553C106.809 78.7491 106.936 78.8018 107.069 78.8018C107.201 78.8018 107.329 78.7491 107.422 78.6553C107.516 78.5615 107.569 78.4344 107.569 78.3018V72.6523C107.569 72.5867 107.556 72.5216 107.531 72.461C107.506 72.4003 107.469 72.3451 107.422 72.2987C107.376 72.2523 107.321 72.2154 107.26 72.1903C107.199 72.1652 107.134 72.1523 107.069 72.1523V72.1523Z" fill="white"/>
<path d="M107.339 64.0817L105.237 62.7292C105.181 62.6933 105.12 62.6687 105.055 62.6567C104.99 62.6448 104.924 62.6458 104.859 62.6596C104.795 62.6734 104.734 62.6998 104.68 62.7372C104.626 62.7747 104.579 62.8225 104.544 62.8779C104.508 62.9332 104.484 62.9951 104.472 63.0599C104.461 63.1247 104.462 63.1912 104.476 63.2555C104.49 63.3198 104.517 63.3807 104.554 63.4347C104.592 63.4886 104.64 63.5346 104.696 63.57L106.569 64.7751V67.0021C106.569 67.1347 106.621 67.2619 106.715 67.3557C106.809 67.4495 106.936 67.5021 107.069 67.5021C107.201 67.5021 107.328 67.4495 107.422 67.3557C107.516 67.2619 107.569 67.1347 107.569 67.0021V64.5021C107.569 64.4185 107.548 64.3362 107.507 64.2627C107.467 64.1893 107.41 64.1271 107.339 64.0817Z" fill="white"/>
<path d="M87.1459 51.09L83.5277 48.7624C83.4725 48.7265 83.4107 48.7019 83.346 48.6899C83.2813 48.678 83.2148 48.679 83.1504 48.6928C83.086 48.7066 83.025 48.733 82.9709 48.7704C82.9167 48.8079 82.8705 48.8557 82.8349 48.9111C82.7993 48.9664 82.7749 49.0283 82.7633 49.0931C82.7516 49.1579 82.7529 49.2244 82.767 49.2887C82.7811 49.353 82.8078 49.4139 82.8455 49.4679C82.8832 49.5218 82.9312 49.5678 82.9867 49.6032L86.6049 51.9308C86.6601 51.9667 86.7218 51.9913 86.7866 52.0033C86.8513 52.0152 86.9178 52.0143 86.9822 52.0004C87.0465 51.9866 87.1076 51.9602 87.1617 51.9228C87.2159 51.8853 87.2621 51.8375 87.2977 51.7822C87.3333 51.7268 87.3577 51.6649 87.3693 51.6001C87.381 51.5353 87.3797 51.4689 87.3656 51.4045C87.3515 51.3402 87.3248 51.2793 87.2871 51.2254C87.2494 51.1714 87.2014 51.1254 87.1459 51.09H87.1459Z" fill="white"/>
<path d="M94.3822 55.7463L90.764 53.4186C90.7088 53.3828 90.6471 53.3581 90.5823 53.3462C90.5176 53.3342 90.4511 53.3352 90.3867 53.349C90.3224 53.3628 90.2613 53.3892 90.2072 53.4267C90.153 53.4642 90.1068 53.5119 90.0712 53.5673C90.0356 53.6227 90.0112 53.6845 89.9996 53.7493C89.9879 53.8141 89.9892 53.8806 90.0033 53.9449C90.0174 54.0092 90.0441 54.0701 90.0818 54.1241C90.1195 54.1781 90.1675 54.2241 90.223 54.2595L93.8412 56.5871C93.8964 56.623 93.9582 56.6476 94.0229 56.6595C94.0877 56.6715 94.1541 56.6705 94.2185 56.6567C94.2829 56.6429 94.3439 56.6165 94.3981 56.579C94.4522 56.5416 94.4984 56.4938 94.534 56.4384C94.5697 56.383 94.594 56.3212 94.6057 56.2564C94.6173 56.1916 94.616 56.1251 94.6019 56.0608C94.5878 55.9965 94.5612 55.9356 94.5234 55.8816C94.4857 55.8276 94.4377 55.7816 94.3822 55.7463L94.3822 55.7463Z" fill="white"/>
<path d="M101.619 60.4006L98.0004 58.0729C97.9452 58.037 97.8834 58.0124 97.8187 58.0005C97.7539 57.9885 97.6874 57.9895 97.6231 58.0033C97.5587 58.0171 97.4977 58.0435 97.4435 58.081C97.3894 58.1184 97.3432 58.1662 97.3075 58.2216C97.2719 58.277 97.2476 58.3388 97.2359 58.4036C97.2243 58.4684 97.2255 58.5349 97.2396 58.5992C97.2537 58.6635 97.2804 58.7244 97.3181 58.7784C97.3558 58.8324 97.4038 58.8784 97.4594 58.9137L101.078 61.2414C101.133 61.2773 101.194 61.3019 101.259 61.3138C101.324 61.3258 101.39 61.3248 101.455 61.311C101.519 61.2972 101.58 61.2708 101.634 61.2333C101.689 61.1959 101.735 61.1481 101.77 61.0927C101.806 61.0373 101.83 60.9755 101.842 60.9107C101.854 60.8459 101.852 60.7794 101.838 60.7151C101.824 60.6508 101.797 60.5899 101.76 60.5359C101.722 60.4819 101.674 60.4359 101.619 60.4006H101.619Z" fill="white"/>
<path d="M79.9095 46.4351L77.807 45.0825C77.8013 45.0789 77.7943 45.0801 77.7887 45.0767C77.7829 45.0734 77.7806 45.0667 77.7747 45.0635C77.7392 45.0507 77.7024 45.0421 77.6649 45.038C77.6258 45.0183 77.5827 45.008 77.5389 45.0078C77.4952 45.0076 77.452 45.0175 77.4127 45.0368C77.3732 45.0409 77.3344 45.0501 77.2972 45.064C77.2911 45.0673 77.2885 45.0745 77.2826 45.0781C77.2768 45.0815 77.2696 45.0803 77.264 45.084L75.1683 46.4468C75.1132 46.4825 75.0656 46.5288 75.0284 46.5829C74.9911 46.637 74.9649 46.6979 74.9512 46.7622C74.9376 46.8265 74.9367 46.8928 74.9487 46.9574C74.9607 47.022 74.9853 47.0836 75.0211 47.1387C75.0569 47.1937 75.1033 47.2412 75.1574 47.2784C75.2116 47.3155 75.2726 47.3416 75.3369 47.3552C75.4012 47.3687 75.4675 47.3695 75.5321 47.3574C75.5966 47.3453 75.6582 47.3206 75.7132 47.2847L77.0365 46.4243V48.0029C77.0365 48.1356 77.0891 48.2627 77.1829 48.3565C77.2767 48.4503 77.4039 48.5029 77.5365 48.5029C77.6691 48.5029 77.7962 48.4503 77.89 48.3565C77.9838 48.2627 78.0365 48.1356 78.0365 48.0029V46.4189L79.3685 47.2759C79.4237 47.3118 79.4854 47.3364 79.5502 47.3483C79.6149 47.3603 79.6814 47.3593 79.7458 47.3455C79.8101 47.3317 79.8712 47.3053 79.9253 47.2678C79.9794 47.2304 80.0257 47.1826 80.0613 47.1272C80.0969 47.0718 80.1213 47.01 80.1329 46.9452C80.1446 46.8804 80.1433 46.8139 80.1292 46.7496C80.1151 46.6853 80.0884 46.6244 80.0507 46.5704C80.013 46.5164 79.965 46.4704 79.9095 46.4351L79.9095 46.4351Z" fill="white"/>
<path d="M50.2709 98.3848H50.2699C50.1375 98.3847 50.0104 98.4372 49.9166 98.5308C49.8229 98.6244 49.7701 98.7513 49.7699 98.8838L49.766 101.384C49.7659 101.449 49.7787 101.514 49.8037 101.575C49.8287 101.636 49.8654 101.691 49.9117 101.738C49.9581 101.784 50.0131 101.821 50.0737 101.846C50.1343 101.872 50.1993 101.885 50.265 101.885H50.266C50.3984 101.885 50.5255 101.832 50.6192 101.739C50.713 101.645 50.7658 101.518 50.766 101.386L50.7699 98.8858C50.77 98.8201 50.7572 98.7551 50.7322 98.6943C50.7072 98.6336 50.6705 98.5784 50.6242 98.5319C50.5778 98.4854 50.5228 98.4485 50.4622 98.4232C50.4016 98.398 50.3366 98.3849 50.2709 98.3848Z" fill="white"/>
<path d="M50.3148 69.9434H50.3138C50.1813 69.9434 50.0542 69.996 49.9605 70.0897C49.8668 70.1833 49.814 70.3104 49.8138 70.4429L49.807 75.1831C49.8069 75.3156 49.8593 75.4428 49.9529 75.5367C50.0465 75.6305 50.1735 75.6834 50.306 75.6836H50.307C50.4395 75.6835 50.5666 75.6309 50.6603 75.5373C50.7541 75.4436 50.8068 75.3166 50.807 75.1841L50.8138 70.4438C50.814 70.3113 50.7615 70.1842 50.6679 70.0903C50.5744 69.9965 50.4474 69.9436 50.3148 69.9434V69.9434Z" fill="white"/>
<path d="M50.2855 88.9043H50.2846C50.152 88.9044 50.025 88.957 49.9312 89.0506C49.8375 89.1443 49.7847 89.2713 49.7846 89.4038L49.7777 94.144C49.7776 94.2766 49.83 94.4037 49.9236 94.4976C50.0172 94.5914 50.1442 94.6443 50.2767 94.6445H50.2777C50.4102 94.6446 50.5374 94.592 50.6311 94.4983C50.7249 94.4046 50.7776 94.2775 50.7777 94.145L50.7846 89.4048C50.7847 89.2723 50.7322 89.1451 50.6387 89.0512C50.5451 88.9574 50.4181 88.9045 50.2855 88.9043V88.9043Z" fill="white"/>
<path d="M50.3002 79.4238H50.2992C50.1667 79.4239 50.0396 79.4765 49.9459 79.5702C49.8521 79.6638 49.7994 79.7908 49.7992 79.9233L49.7924 84.6636C49.7922 84.7961 49.8447 84.9233 49.9383 85.0171C50.0318 85.111 50.1588 85.1638 50.2914 85.1641H50.2924C50.4249 85.1641 50.552 85.1115 50.6458 85.0178C50.7395 84.9241 50.7923 84.7971 50.7924 84.6646L50.7992 79.9243C50.7993 79.7918 50.7469 79.6646 50.6533 79.5708C50.5597 79.4769 50.4327 79.4241 50.3002 79.4238V79.4238Z" fill="white"/>
<path d="M52.1488 61.4201L50.0531 62.7834C49.9833 62.8286 49.9259 62.8905 49.8862 62.9635C49.8465 63.0365 49.8256 63.1183 49.8256 63.2014L49.8217 65.7014C49.8215 65.7671 49.8343 65.8321 49.8593 65.8928C49.8843 65.9535 49.9211 66.0087 49.9674 66.0552C50.0137 66.1018 50.0688 66.1387 50.1294 66.164C50.19 66.1892 50.255 66.2023 50.3207 66.2024H50.3217C50.4541 66.2024 50.5812 66.1499 50.6749 66.0564C50.7687 65.9628 50.8214 65.8358 50.8217 65.7034L50.8256 63.4739L52.6937 62.2581C52.8046 62.1857 52.8822 62.0723 52.9095 61.9428C52.9369 61.8132 52.9117 61.6781 52.8395 61.5671C52.7673 61.4561 52.6541 61.3783 52.5246 61.3508C52.3951 61.3232 52.2599 61.3482 52.1488 61.4202V61.4201Z" fill="white"/>
<path d="M61.3568 55.4324L56.7524 58.427C56.6621 58.4858 56.5932 58.5722 56.5559 58.6733C56.5187 58.7744 56.5151 58.8848 56.5458 58.9881C56.5764 59.0914 56.6396 59.1821 56.7259 59.2465C56.8122 59.311 56.9171 59.3459 57.0248 59.346C57.1216 59.3462 57.2164 59.318 57.2973 59.2649L61.9018 56.2703C62.0129 56.198 62.0907 56.0846 62.1182 55.9549C62.1457 55.8252 62.1205 55.69 62.0483 55.5789C61.976 55.4677 61.8625 55.3899 61.7329 55.3624C61.6032 55.3349 61.468 55.3601 61.3568 55.4324V55.4324Z" fill="white"/>
<path d="M70.5648 49.4425L65.9603 52.4372C65.87 52.4959 65.8011 52.5823 65.7638 52.6834C65.7266 52.7846 65.723 52.895 65.7537 52.9983C65.7843 53.1016 65.8475 53.1923 65.9338 53.2568C66.0202 53.3213 66.125 53.3561 66.2328 53.3562C66.3296 53.3564 66.4243 53.3282 66.5052 53.2751L71.1097 50.2805C71.1649 50.2448 71.2124 50.1985 71.2497 50.1444C71.2869 50.0903 71.3131 50.0293 71.3268 49.9651C71.3404 49.9008 71.3413 49.8345 71.3293 49.7699C71.3173 49.7053 71.2927 49.6437 71.2569 49.5886C71.2211 49.5335 71.1748 49.4861 71.1206 49.4489C71.0664 49.4118 71.0054 49.3857 70.9411 49.3721C70.8768 49.3585 70.8105 49.3578 70.746 49.3699C70.6814 49.382 70.6198 49.4067 70.5648 49.4426V49.4425Z" fill="white"/>
<path d="M77.5365 63.6309C77.4708 63.6308 77.4058 63.6437 77.3451 63.6688C77.2844 63.694 77.2293 63.7308 77.1829 63.7772C77.1364 63.8237 77.0996 63.8788 77.0745 63.9395C77.0494 64.0002 77.0365 64.0652 77.0365 64.1309V69.5073C77.0365 69.6399 77.0892 69.7671 77.1829 69.8609C77.2767 69.9547 77.4039 70.0073 77.5365 70.0073C77.6691 70.0073 77.7963 69.9547 77.8901 69.8609C77.9838 69.7671 78.0365 69.6399 78.0365 69.5073V64.1309C78.0365 64.0652 78.0236 64.0002 77.9985 63.9395C77.9734 63.8788 77.9366 63.8237 77.8901 63.7772C77.8437 63.7308 77.7886 63.694 77.7279 63.6688C77.6672 63.6437 77.6022 63.6308 77.5365 63.6309V63.6309Z" fill="white"/>
<path d="M77.5365 52.8789C77.4708 52.8789 77.4058 52.8918 77.3451 52.9169C77.2844 52.942 77.2293 52.9788 77.1829 53.0253C77.1364 53.0717 77.0996 53.1268 77.0745 53.1875C77.0494 53.2482 77.0365 53.3132 77.0365 53.3789V58.7549C77.0365 58.8875 77.0892 59.0147 77.1829 59.1085C77.2767 59.2022 77.4039 59.2549 77.5365 59.2549C77.6691 59.2549 77.7963 59.2022 77.8901 59.1085C77.9838 59.0147 78.0365 58.8875 78.0365 58.7549V53.3789C78.0365 53.3132 78.0236 53.2482 77.9985 53.1875C77.9734 53.1268 77.9366 53.0717 77.8901 53.0253C77.8437 52.9788 77.7886 52.942 77.7279 52.9169C77.6672 52.8918 77.6022 52.8789 77.5365 52.8789V52.8789Z" fill="white"/>
<path d="M77.5365 74.3848C77.4708 74.3847 77.4058 74.3976 77.3451 74.4227C77.2844 74.4479 77.2293 74.4847 77.1829 74.5311C77.1364 74.5776 77.0996 74.6327 77.0745 74.6934C77.0494 74.7541 77.0365 74.8191 77.0365 74.8848V80.2608C77.0365 80.3934 77.0892 80.5206 77.1829 80.6143C77.2767 80.7081 77.4039 80.7608 77.5365 80.7608C77.6691 80.7608 77.7963 80.7081 77.8901 80.6143C77.9838 80.5206 78.0365 80.3934 78.0365 80.2608V74.8848C78.0365 74.8191 78.0236 74.7541 77.9985 74.6934C77.9734 74.6327 77.9366 74.5776 77.8901 74.5311C77.8437 74.4847 77.7886 74.4479 77.7279 74.4227C77.6672 74.3976 77.6022 74.3847 77.5365 74.3848V74.3848Z" fill="white"/>
<path d="M77.5365 85.1367C77.4708 85.1367 77.4058 85.1496 77.3451 85.1747C77.2844 85.1998 77.2293 85.2366 77.1829 85.2831C77.1364 85.3295 77.0996 85.3846 77.0745 85.4453C77.0494 85.506 77.0365 85.571 77.0365 85.6367V88.1367C77.0365 88.2693 77.0892 88.3965 77.1829 88.4903C77.2767 88.584 77.4039 88.6367 77.5365 88.6367C77.6691 88.6367 77.7963 88.584 77.8901 88.4903C77.9838 88.3965 78.0365 88.2693 78.0365 88.1367V85.6367C78.0365 85.571 78.0236 85.506 77.9985 85.4453C77.9734 85.3846 77.9366 85.3295 77.8901 85.2831C77.8437 85.2366 77.7886 85.1998 77.7279 85.1747C77.6672 85.1496 77.6022 85.1367 77.5365 85.1367Z" fill="white"/>
<path d="M52.631 72.9512L50.303 75.7952L47.99 72.9702" stroke="white" stroke-linecap="round" stroke-linejoin="round"/>
<path d="M52.631 91.8984L50.303 94.7434L47.99 91.9174" stroke="white" stroke-linecap="round" stroke-linejoin="round"/>
<path d="M104.752 74.9954L107.08 72.1504L109.392 74.9764" stroke="white" stroke-linecap="round" stroke-linejoin="round"/>
<path d="M90.772 56.8986L89.85 53.3406L93.495 53.1406" stroke="white" stroke-linecap="round" stroke-linejoin="round"/>
<path d="M60.074 59.1056L56.406 59.3446L56.894 55.7266" stroke="white" stroke-linecap="round" stroke-linejoin="round"/>
<path d="M104.752 96.7776L107.08 93.9336L109.392 96.7586" stroke="white" stroke-linecap="round" stroke-linejoin="round"/>
<path d="M114.132 117.791C114.035 118.374 113.798 118.925 113.44 119.396C113.083 119.867 112.616 120.244 112.08 120.494C110.525 121.278 108.807 121.687 107.065 121.687C105.323 121.687 103.605 121.278 102.05 120.494C101.511 120.244 101.041 119.868 100.68 119.397C100.318 118.926 100.075 118.375 99.9721 117.791C99.9621 117.537 99.9825 117.283 100.033 117.034C100.256 115.316 101.1 113.738 102.405 112.598C103.711 111.458 105.388 110.835 107.121 110.846C108.854 110.856 110.523 111.5 111.814 112.656C113.106 113.812 113.93 115.4 114.132 117.121C114.175 117.342 114.175 117.57 114.132 117.791V117.791ZM107.082 109.837C107.92 109.832 108.738 109.579 109.432 109.11C110.126 108.64 110.666 107.976 110.983 107.201C111.3 106.425 111.38 105.573 111.213 104.752C111.047 103.931 110.641 103.177 110.047 102.587C109.452 101.996 108.696 101.595 107.874 101.433C107.052 101.272 106.201 101.357 105.427 101.679C104.653 102.001 103.992 102.544 103.528 103.241C103.063 103.938 102.814 104.758 102.814 105.595C102.815 106.154 102.926 106.708 103.141 107.224C103.356 107.74 103.671 108.208 104.068 108.602C104.464 108.996 104.935 109.308 105.452 109.52C105.969 109.732 106.523 109.84 107.082 109.837V109.837Z" fill="url(#paint5_linear)"/>
</g>
<defs>
<linearGradient id="paint0_linear" x1="79.6785" y1="8.2793" x2="79.6785" y2="179.694" gradientUnits="userSpaceOnUse">
<stop stop-color="#00ABDE"/>
<stop offset="1" stop-color="#007ED8"/>
</linearGradient>
<linearGradient id="paint1_linear" x1="52.9722" y1="125.495" x2="40.2265" y2="113.725" gradientUnits="userSpaceOnUse">
<stop stop-color="#50E6FF"/>
<stop offset="1" stop-color="#C3F1FF"/>
</linearGradient>
<linearGradient id="paint2_linear" x1="62.7704" y1="102.423" x2="92.4095" y2="102.423" gradientUnits="userSpaceOnUse">
<stop stop-color="#C3F1FF"/>
<stop offset="1" stop-color="#50E6FF"/>
</linearGradient>
<linearGradient id="paint3_linear" x1="1923.23" y1="1961.85" x2="2801.71" y2="1961.85" gradientUnits="userSpaceOnUse">
<stop stop-color="#C3F1FF"/>
<stop offset="1" stop-color="#50E6FF"/>
</linearGradient>
<linearGradient id="paint4_linear" x1="1923.23" y1="1838.51" x2="2801.71" y2="1838.51" gradientUnits="userSpaceOnUse">
<stop stop-color="#C3F1FF"/>
<stop offset="1" stop-color="#50E6FF"/>
</linearGradient>
<linearGradient id="paint5_linear" x1="111.109" y1="120.8" x2="101.509" y2="104.171" gradientUnits="userSpaceOnUse">
<stop stop-color="#773ADC"/>
<stop offset="1" stop-color="#B376F2"/>
</linearGradient>
<clipPath id="clip0">
<rect width="159.356" height="188" fill="white"/>
</clipPath>
</defs>
</svg>
