<svg width="100" height="100" viewBox="0 0 100 100" fill="none" xmlns="https://www.w3.org/2000/svg">
<g clip-path="url(#clip0)">
<path d="M49.6401 96.4501C40.382 96.4501 31.3317 93.7047 23.6339 88.5612C15.936 83.4176 9.93624 76.1069 6.3933 67.5535C2.85036 59.0001 1.92337 49.5882 3.72954 40.5079C5.53571 31.4277 9.99394 23.0869 16.5404 16.5404C23.0869 9.99393 31.4277 5.53571 40.5079 3.72954C49.5882 1.92337 59.0001 2.85036 67.5535 6.3933C76.1069 9.93624 83.4176 15.936 88.5612 23.6339C93.7047 31.3317 96.4501 40.382 96.4501 49.6401C96.4505 55.7874 95.24 61.8746 92.8878 67.554C90.5355 73.2335 87.0875 78.3939 82.7407 82.7407C78.3939 87.0875 73.2335 90.5355 67.554 92.8878C61.8746 95.24 55.7874 96.4505 49.6401 96.4501V96.4501Z" fill="url(#paint0_linear)"/>
<path fill-rule="evenodd" clip-rule="evenodd" d="M95.54 49.64C95.54 58.7182 92.848 67.5925 87.8045 75.1407C82.7609 82.6889 75.5923 88.572 67.2052 92.0461C58.818 95.5201 49.5891 96.4291 40.6854 94.658C31.7816 92.887 23.603 88.5154 17.1838 82.0962C10.7646 75.677 6.39302 67.4984 4.62196 58.5946C2.85089 49.6909 3.75987 40.462 7.23393 32.0748C10.708 23.6877 16.5911 16.5191 24.1393 11.4755C31.6875 6.43199 40.5618 3.74 49.64 3.74C55.6677 3.73998 61.6363 4.9272 67.2052 7.23388C72.774 9.54057 77.834 12.9215 82.0963 17.1837C86.3585 21.446 89.7394 26.5059 92.0461 32.0748C94.3528 37.6437 95.54 43.6123 95.54 49.64V49.64ZM49.64 3.62732e-07C59.4579 3.62732e-07 69.0553 2.91134 77.2185 8.36585C85.3818 13.8204 91.7442 21.5731 95.5014 30.6436C99.2585 39.7141 100.242 49.6951 98.3262 59.3243C96.4108 68.9535 91.6831 77.7985 84.7408 84.7408C77.7985 91.6831 68.9535 96.4108 59.3243 98.3262C49.6951 100.242 39.7141 99.2585 30.6436 95.5014C21.5731 91.7442 13.8204 85.3818 8.36585 77.2185C2.91134 69.0553 3.62732e-07 59.4579 3.62732e-07 49.64C-0.000787738 43.121 1.28265 36.6656 3.77702 30.6427C6.27138 24.6197 9.9278 19.1471 14.5375 14.5375C19.1471 9.9278 24.6197 6.27138 30.6427 3.77702C36.6656 1.28265 43.121 -0.000787738 49.64 3.62732e-07V3.62732e-07Z" fill="#F2F1F0"/>
<path fill-rule="evenodd" clip-rule="evenodd" d="M92.7296 49.6406C92.7296 58.163 90.2024 66.494 85.4676 73.5801C80.7328 80.6662 74.0031 86.1892 66.1294 89.4505C58.2557 92.7119 49.5918 93.5653 41.2331 91.9026C32.8745 90.24 25.1966 86.1361 19.1703 80.1098C13.1441 74.0836 9.04017 66.4057 7.37753 58.047C5.7149 49.6884 6.56822 41.0244 9.8296 33.1507C13.091 25.2771 18.6139 18.5473 25.7 13.8126C32.7862 9.07776 41.1172 6.55058 49.6396 6.55058C55.2983 6.55023 60.9017 7.66455 66.1298 9.82991C71.3579 11.9953 76.1082 15.1692 80.1096 19.1706C84.1109 23.1719 87.2849 27.9223 89.4502 33.1503C91.6156 38.3784 92.7299 43.9818 92.7296 49.6406V49.6406ZM49.6396 2.81058C58.9017 2.81058 67.9558 5.55711 75.6569 10.7029C83.3581 15.8486 89.3604 23.1624 92.9049 31.7195C96.4493 40.2766 97.3767 49.6925 95.5697 58.7767C93.7628 67.8608 89.3027 76.2051 82.7534 82.7544C76.2041 89.3037 67.8598 93.7638 58.7757 95.5708C49.6915 97.3777 40.2756 96.4503 31.7185 92.9059C23.1614 89.3614 15.8476 83.3591 10.7018 75.6579C5.5561 67.9568 2.80957 58.9027 2.80957 49.6406C2.81076 37.2209 7.745 25.3101 16.5271 16.5281C25.3091 7.74599 37.2198 2.81174 49.6396 2.81055V2.81058Z" fill="#0078D4"/>
<path fill-rule="evenodd" clip-rule="evenodd" d="M68.7142 71.3426C68.7115 72.2616 68.3453 73.1421 67.6955 73.7919C67.0456 74.4417 66.1651 74.808 65.2461 74.8107H34.0335C33.1145 74.808 32.234 74.4417 31.5842 73.7919C30.9344 73.1421 30.5681 72.2615 30.5654 71.3426V45.332H68.7142V71.3426Z" fill="#1F56A3"/>
<path fill-rule="evenodd" clip-rule="evenodd" d="M68.7142 45.3306C68.7115 46.2496 68.3453 47.1301 67.6955 47.7799C67.0456 48.4297 66.1651 48.796 65.2461 48.7987H34.0335C33.1145 48.796 32.234 48.4297 31.5842 47.7799C30.9344 47.1301 30.5681 46.2496 30.5654 45.3306V41.8625C30.5681 40.9436 30.9344 40.063 31.5842 39.4132C32.234 38.7634 33.1145 38.3972 34.0335 38.3945H65.2461C66.1651 38.3972 67.0456 38.7634 67.6954 39.4132C68.3453 40.063 68.7115 40.9436 68.7142 41.8625V45.3306Z" fill="#0078D4"/>
<path opacity="0.2" fill-rule="evenodd" clip-rule="evenodd" d="M65.2461 49.6653H51.3738C51.1461 49.6653 50.9206 49.7101 50.7102 49.7972C50.4998 49.8843 50.3086 50.012 50.1475 50.1731C49.9865 50.3341 49.8588 50.5253 49.7717 50.7357C49.6845 50.9461 49.6397 51.1716 49.6398 51.3993V71.3407C49.6399 71.5684 49.5951 71.794 49.508 72.0044C49.4208 72.2148 49.2931 72.406 49.1321 72.567C48.9711 72.728 48.7799 72.8558 48.5695 72.9429C48.3591 73.03 48.1335 73.0748 47.9058 73.0748H34.0335C33.1145 73.0721 32.234 72.7058 31.5842 72.056C30.9344 71.4062 30.5681 70.5257 30.5654 69.6067V71.3407C30.5681 72.2597 30.9344 73.1402 31.5842 73.7901C32.234 74.4399 33.1145 74.8061 34.0335 74.8088H65.2461C66.1651 74.8061 67.0457 74.4399 67.6955 73.7901C68.3453 73.1402 68.7115 72.2597 68.7142 71.3407V46.1973C68.7115 47.1162 68.3453 47.9968 67.6955 48.6466C67.0456 49.2964 66.1651 49.6627 65.2461 49.6653V49.6653Z" fill="#003067"/>
<path fill-rule="evenodd" clip-rule="evenodd" d="M41.8365 43.5971C41.8365 45.0329 40.2837 46.1981 38.3685 46.1981C36.4532 46.1981 34.9004 45.0329 34.9004 43.5971C34.9004 42.1613 36.4532 40.9961 38.3685 40.9961C40.2837 40.9961 41.8365 42.1613 41.8365 43.5971Z" fill="#182A37"/>
<path fill-rule="evenodd" clip-rule="evenodd" d="M64.3793 43.5971C64.3793 45.0329 62.8264 46.1981 60.9112 46.1981C58.9959 46.1981 57.4431 45.0329 57.4431 43.5971C57.4431 42.1613 58.9959 40.9961 60.9112 40.9961C62.8264 40.9961 64.3793 42.1613 64.3793 43.5971Z" fill="#182A37"/>
<path fill-rule="evenodd" clip-rule="evenodd" d="M49.6399 19.3203C45.962 19.3246 42.4361 20.7875 39.8354 23.3881C37.2348 25.9887 35.7719 29.5147 35.7676 33.1925V45.3004C36.5099 45.8819 37.4257 46.1978 38.3686 46.1978C39.3116 46.1978 40.2274 45.8819 40.9697 45.3004V33.1925C40.9697 30.8931 41.8832 28.6878 43.5091 27.0618C45.1351 25.4358 47.3404 24.5224 49.6399 24.5224C51.9393 24.5224 54.1446 25.4358 55.7706 27.0618C57.3966 28.6878 58.31 30.8931 58.31 33.1925V43.5968C58.31 44.554 59.4744 45.3308 60.911 45.3308C62.3476 45.3308 63.5121 44.554 63.5121 43.5968V33.1925C63.5078 29.5147 62.0449 25.9887 59.4443 23.3881C56.8436 20.7875 53.3177 19.3246 49.6399 19.3203V19.3203Z" fill="white"/>
<path opacity="0.2" fill-rule="evenodd" clip-rule="evenodd" d="M44.6667 25.1802C43.0355 25.8945 41.6507 27.0731 40.6849 28.5691C39.7191 30.0651 39.2151 31.8123 39.2357 33.5929V42.4676C39.2368 42.7328 39.177 42.9948 39.0607 43.2331C38.9444 43.4715 38.7749 43.6799 38.5652 43.8423C38.3554 44.0047 38.1112 44.1166 37.8513 44.1695C37.5914 44.2223 37.3228 44.2147 37.0664 44.1471C36.599 44.0421 36.1574 43.8446 35.7676 43.5662V45.3002C36.5013 45.8972 37.4228 46.2152 38.3686 46.1976C38.66 46.1953 38.9503 46.1645 39.2356 46.1057C39.4073 46.0722 39.5767 46.0282 39.7429 45.9739C39.8269 45.9462 39.905 45.9115 39.9848 45.8794C40.1044 45.8308 40.2206 45.7788 40.3316 45.7207C40.3914 45.6886 40.4512 45.6583 40.5085 45.6237C40.6712 45.5293 40.8256 45.4211 40.9697 45.3002V33.1923C40.9725 31.0438 41.7718 28.9726 43.2131 27.3793C44.6545 25.786 46.6354 24.7838 48.7728 24.5664C47.3742 24.4205 45.9615 24.6317 44.6667 25.1802V25.1802Z" fill="#B3B3B3"/>
<path opacity="0.2" fill-rule="evenodd" clip-rule="evenodd" d="M49.6402 19.3203C49.348 19.3203 49.0619 19.3455 48.7732 19.3645C52.2919 19.5864 55.5942 21.1391 58.0097 23.7073C60.4251 26.2756 61.7726 29.6669 61.7784 33.1925V42.4679C61.7796 42.7331 61.7197 42.995 61.6035 43.2334C61.4872 43.4717 61.3176 43.6802 61.1079 43.8425C60.8982 44.0049 60.654 44.1168 60.3941 44.1697C60.1342 44.2225 59.8657 44.2149 59.6092 44.1473C59.1418 44.0423 58.7002 43.8448 58.3104 43.5664V45.3004C59.0527 45.8819 59.9685 46.1978 60.9114 46.1978C61.8544 46.1978 62.7702 45.8819 63.5125 45.3004V33.1925C63.5082 29.5147 62.0453 25.9887 59.4446 23.3881C56.844 20.7875 53.318 19.3246 49.6402 19.3203V19.3203Z" fill="#B3B3B3"/>
<path fill-rule="evenodd" clip-rule="evenodd" d="M49.6399 53.4004C48.1804 55.0719 45.6111 55.6268 42.6809 55.6268V60.0797C42.6809 64.6725 44.7156 67.6276 49.64 70.1022C54.5644 67.6276 56.5991 64.6725 56.5991 60.0797V55.6268C53.6688 55.6268 51.0994 55.0719 49.6399 53.4004Z" fill="#C3F1FF"/>
<path fill-rule="evenodd" clip-rule="evenodd" d="M49.6401 53.4004V70.1022C54.5645 67.6276 56.5992 64.6725 56.5992 60.0797V55.6268C53.669 55.6268 51.0996 55.0719 49.6401 53.4004Z" fill="#9CEBFF"/>
<path fill-rule="evenodd" clip-rule="evenodd" d="M43.2381 56.1694V60.0764C43.2381 64.3894 45.0969 67.1302 49.64 69.4784C54.1832 67.1279 56.0419 64.3894 56.0419 60.0741V56.1694C53.1162 56.0972 51.0093 55.4453 49.64 54.1865C48.2685 55.4453 46.1639 56.0972 43.2381 56.1694ZM49.64 70.6582C49.5532 70.6579 49.4676 70.6378 49.3896 70.5996C44.2961 68.0393 42.1238 64.8902 42.1238 60.0741V55.619C42.1237 55.5458 42.1381 55.4733 42.1661 55.4057C42.1941 55.3381 42.2352 55.2766 42.2869 55.2249C42.3386 55.1731 42.4001 55.1321 42.4677 55.1041C42.5353 55.0761 42.6078 55.0617 42.681 55.0618C45.8864 55.0618 48.0249 54.3963 49.2205 53.0248C49.2744 52.9676 49.3394 52.9221 49.4116 52.8909C49.4837 52.8598 49.5615 52.8438 49.64 52.8438C49.7186 52.8438 49.7964 52.8598 49.8685 52.8909C49.9407 52.9221 50.0057 52.9676 50.0596 53.0248C51.2552 54.3963 53.3936 55.0618 56.5991 55.0618C56.7468 55.0621 56.8883 55.1209 56.9927 55.2253C57.0972 55.3297 57.156 55.4713 57.1563 55.619V60.0741C57.1563 64.8902 54.984 68.037 49.8904 70.5973C49.813 70.6373 49.7272 70.6582 49.64 70.6582V70.6582Z" fill="#0078D4"/>
<path d="M78.7265 60.7581C78.7322 60.7181 78.7437 60.6781 78.7494 60.6438C78.8567 60.0776 78.838 59.4947 78.6946 58.9366C78.5513 58.3784 78.2868 57.8587 77.9199 57.4143C77.553 56.9699 77.0928 56.6118 76.5719 56.3653C76.051 56.1188 75.4823 55.9901 74.906 55.9882C74.6113 55.9872 74.3174 56.0218 74.031 56.0912C73.4468 55.1698 72.5793 54.4631 71.5589 54.0773C70.5385 53.6915 69.4204 53.6476 68.3728 53.952C67.3253 54.2565 66.405 54.8929 65.7503 55.7656C65.0956 56.6382 64.7421 57.6998 64.7428 58.7907C64.7428 58.8593 64.7428 58.928 64.7485 58.9966C64.4868 58.9085 64.2125 58.8641 63.9364 58.8651C63.3008 58.8652 62.6897 59.1096 62.2293 59.5477C61.769 59.9858 61.4946 60.5841 61.463 61.2188C61.4314 61.8535 61.645 62.4761 62.0596 62.9578C62.4742 63.4394 63.0581 63.7433 63.6904 63.8065L74.9003 63.8294C75.598 63.8286 76.283 63.6423 76.885 63.2895C77.487 62.9367 77.9844 62.4302 78.3262 61.8219C78.3433 61.7876 78.3662 61.7533 78.3834 61.719C78.5348 61.4132 78.65 61.0907 78.7265 60.7581V60.7581Z" fill="white"/>
<path d="M22.6982 65.4937C22.6934 65.4599 22.6837 65.426 22.6789 65.397C22.5882 64.9182 22.604 64.4252 22.7252 63.9532C22.8464 63.4811 23.0701 63.0416 23.3804 62.6657C23.6907 62.2899 24.0799 61.987 24.5205 61.7785C24.961 61.5701 25.442 61.4612 25.9294 61.4596C26.1787 61.4588 26.4272 61.488 26.6695 61.5467C27.1635 60.7675 27.8972 60.1698 28.7602 59.8435C29.6232 59.5173 30.5688 59.4801 31.4547 59.7376C32.3407 59.9951 33.119 60.5333 33.6727 61.2713C34.2264 62.0093 34.5254 62.9072 34.5248 63.8298C34.5248 63.8878 34.5248 63.9459 34.52 64.0039C34.7413 63.9294 34.9733 63.8919 35.2068 63.8927C35.7443 63.8928 36.2612 64.0995 36.6506 64.47C37.0399 64.8405 37.272 65.3465 37.2987 65.8833C37.3254 66.4202 37.1447 66.9467 36.7941 67.3541C36.4435 67.7614 35.9497 68.0184 35.4148 68.0719L25.9342 68.0912C25.3441 68.0905 24.7648 67.9329 24.2557 67.6346C23.7465 67.3362 23.3259 66.9079 23.0368 66.3934C23.0223 66.3644 23.003 66.3354 22.9884 66.3063C22.8604 66.0477 22.763 65.775 22.6982 65.4937V65.4937Z" fill="white"/>
</g>
<defs>
<linearGradient id="paint0_linear" x1="47.8697" y1="-15.153" x2="51.8525" y2="130.615" gradientUnits="userSpaceOnUse">
<stop stop-color="#00ABDE"/>
<stop offset="1" stop-color="#007ED8"/>
</linearGradient>
<clipPath id="clip0">
<rect width="99.2799" height="99.28" fill="white"/>
</clipPath>
</defs>
</svg>
