<svg width="100" height="100" viewBox="0 0 100 100" fill="none" xmlns="http://www.w3.org/2000/svg">
<g clip-path="url(#clip0)">
<path d="M49.6401 96.4501C40.382 96.4501 31.3317 93.7047 23.6339 88.5612C15.936 83.4176 9.93624 76.1069 6.3933 67.5535C2.85036 59.0001 1.92337 49.5882 3.72954 40.5079C5.53571 31.4277 9.99394 23.0869 16.5404 16.5404C23.0869 9.99393 31.4277 5.53571 40.5079 3.72954C49.5882 1.92337 59.0001 2.85036 67.5535 6.3933C76.1069 9.93624 83.4176 15.936 88.5612 23.6339C93.7047 31.3317 96.4501 40.382 96.4501 49.6401C96.4505 55.7874 95.24 61.8746 92.8878 67.554C90.5355 73.2335 87.0875 78.3939 82.7407 82.7407C78.3939 87.0875 73.2335 90.5355 67.554 92.8878C61.8746 95.24 55.7874 96.4505 49.6401 96.4501V96.4501Z" fill="url(#paint0_linear)"/>
<path fill-rule="evenodd" clip-rule="evenodd" d="M95.54 49.64C95.54 58.7182 92.848 67.5925 87.8045 75.1407C82.7609 82.6889 75.5923 88.572 67.2052 92.0461C58.818 95.5201 49.5891 96.4291 40.6854 94.658C31.7816 92.887 23.603 88.5154 17.1838 82.0962C10.7646 75.677 6.39302 67.4984 4.62196 58.5946C2.85089 49.6909 3.75987 40.462 7.23393 32.0748C10.708 23.6877 16.5911 16.5191 24.1393 11.4755C31.6875 6.43199 40.5618 3.74 49.64 3.74C55.6677 3.73998 61.6363 4.9272 67.2052 7.23388C72.774 9.54057 77.834 12.9215 82.0963 17.1837C86.3585 21.446 89.7394 26.5059 92.0461 32.0748C94.3528 37.6437 95.54 43.6123 95.54 49.64V49.64ZM49.64 3.62732e-07C59.4579 3.62732e-07 69.0553 2.91134 77.2185 8.36585C85.3818 13.8204 91.7442 21.5731 95.5014 30.6436C99.2585 39.7141 100.242 49.6951 98.3262 59.3243C96.4108 68.9535 91.6831 77.7985 84.7408 84.7408C77.7985 91.6831 68.9535 96.4108 59.3243 98.3262C49.6951 100.242 39.7141 99.2585 30.6436 95.5014C21.5731 91.7442 13.8204 85.3818 8.36585 77.2185C2.91134 69.0553 3.62732e-07 59.4579 3.62732e-07 49.64C-0.000787738 43.121 1.28265 36.6656 3.77702 30.6427C6.27138 24.6197 9.9278 19.1471 14.5375 14.5375C19.1471 9.9278 24.6197 6.27138 30.6427 3.77702C36.6656 1.28265 43.121 -0.000787738 49.64 3.62732e-07V3.62732e-07Z" fill="#F2F1F0"/>
<path fill-rule="evenodd" clip-rule="evenodd" d="M92.7296 49.6406C92.7296 58.163 90.2024 66.494 85.4676 73.5801C80.7328 80.6662 74.0031 86.1892 66.1294 89.4505C58.2557 92.7119 49.5918 93.5653 41.2331 91.9026C32.8745 90.24 25.1966 86.1361 19.1703 80.1098C13.1441 74.0836 9.04017 66.4057 7.37753 58.047C5.7149 49.6884 6.56822 41.0244 9.8296 33.1507C13.091 25.2771 18.6139 18.5473 25.7 13.8126C32.7862 9.07776 41.1172 6.55058 49.6396 6.55058C55.2983 6.55023 60.9017 7.66455 66.1298 9.82991C71.3579 11.9953 76.1082 15.1692 80.1096 19.1706C84.1109 23.1719 87.2849 27.9223 89.4502 33.1503C91.6156 38.3784 92.7299 43.9818 92.7296 49.6406V49.6406ZM49.6396 2.81058C58.9017 2.81058 67.9558 5.55711 75.6569 10.7029C83.3581 15.8486 89.3604 23.1624 92.9049 31.7195C96.4493 40.2766 97.3767 49.6925 95.5697 58.7767C93.7628 67.8608 89.3027 76.2051 82.7534 82.7544C76.2041 89.3037 67.8598 93.7638 58.7757 95.5708C49.6915 97.3777 40.2756 96.4503 31.7185 92.9059C23.1614 89.3614 15.8476 83.3591 10.7018 75.6579C5.5561 67.9568 2.80957 58.9027 2.80957 49.6406C2.81076 37.2209 7.745 25.3101 16.5271 16.5281C25.3091 7.74599 37.2198 2.81174 49.6396 2.81055V2.81058Z" fill="#0078D4"/>
<path fill-rule="evenodd" clip-rule="evenodd" d="M92.7296 49.6396C92.7296 58.162 90.2024 66.493 85.4676 73.5791C80.7328 80.6652 74.0031 86.1882 66.1294 89.4495C58.2557 92.7109 49.5918 93.5642 41.2331 91.9016C32.8745 90.239 25.1966 86.135 19.1703 80.1088C13.1441 74.0826 9.04017 66.4047 7.37753 58.046C5.7149 49.6874 6.56822 41.0234 9.8296 33.1497C13.091 25.2761 18.6139 18.5463 25.7001 13.8115C32.7862 9.07675 41.1172 6.54957 49.6396 6.54957C55.2983 6.54923 60.9017 7.66355 66.1298 9.8289C71.3579 11.9943 76.1082 15.1682 80.1096 19.1696C84.1109 23.1709 87.2849 27.9213 89.4502 33.1493C91.6156 38.3774 92.7299 43.9808 92.7296 49.6396V49.6396ZM49.6396 2.80957C58.9017 2.80957 67.9558 5.5561 75.6569 10.7018C83.3581 15.8476 89.3604 23.1614 92.9048 31.7185C96.4493 40.2756 97.3767 49.6915 95.5697 58.7757C93.7628 67.8598 89.3027 76.2041 82.7534 82.7534C76.2041 89.3027 67.8598 93.7628 58.7757 95.5697C49.6915 97.3767 40.2756 96.4493 31.7185 92.9049C23.1614 89.3604 15.8476 83.3581 10.7018 75.6569C5.5561 67.9558 2.80957 58.9017 2.80957 49.6396C2.81076 37.2198 7.74501 25.3091 16.5271 16.5271C25.3091 7.74501 37.2198 2.81076 49.6396 2.80957V2.80957Z" fill="#0078D4"/>
<path d="M81.5505 44.9448C81.5717 44.7968 81.614 44.6488 81.6351 44.5219C82.0319 42.4286 81.9627 40.2736 81.4327 38.21C80.9027 36.1464 79.9247 34.2248 78.5683 32.5817C77.2119 30.9387 75.5104 29.6145 73.5845 28.7032C71.6586 27.792 69.5557 27.316 67.4251 27.3091C66.3353 27.3054 65.249 27.4332 64.1898 27.6897C62.0301 24.2833 58.8226 21.6703 55.0499 20.244C51.2772 18.8177 47.1433 18.6551 43.2702 19.7808C39.3971 20.9065 35.9944 23.2595 33.5739 26.4858C31.1534 29.7121 29.8461 33.6373 29.8488 37.6706C29.8488 37.9244 29.8488 38.1781 29.8699 38.4319C28.9025 38.1062 27.888 37.9419 26.8672 37.9455C24.5175 37.9459 22.2579 38.8495 20.5558 40.4694C18.8537 42.0892 17.8393 44.3013 17.7225 46.6481C17.6057 48.9948 18.3954 51.2967 19.9283 53.0775C21.4612 54.8584 23.62 55.9818 25.958 56.2156L67.404 56.3001C69.9837 56.2971 72.5163 55.6081 74.7421 54.3039C76.9678 52.9996 78.8068 51.127 80.0704 48.8779C80.1338 48.751 80.2184 48.6241 80.2819 48.4972C80.8418 47.3666 81.2675 46.1744 81.5505 44.9448V44.9448Z" fill="white"/>
<path opacity="0.15" d="M69.229 56.186V51.5034C69.2274 50.1947 68.7329 48.9346 67.8439 47.9742C66.955 47.0137 65.7368 46.4234 64.4322 46.3208V43.5088C64.4322 39.5857 62.8737 35.8233 60.0997 33.0493C57.3256 30.2752 53.5632 28.7168 49.6402 28.7168C45.7171 28.7168 41.9547 30.2752 39.1806 33.0493C36.4066 35.8233 34.8482 39.5857 34.8482 43.5088V46.3208C33.5435 46.4234 32.3253 47.0137 31.4364 47.9742C30.5474 48.9346 30.0529 50.1947 30.0513 51.5034V56.2245L66.2819 56.3002H67.9364L69.229 56.186ZM43.645 43.5068C43.6453 43.2945 43.658 43.0824 43.6831 42.8716L43.7066 42.7139C43.7232 42.5869 43.7388 42.4595 43.7837 42.2524L43.8355 42.04C43.8569 41.9526 43.8765 41.8647 43.8989 41.7905L43.9878 41.5352C44.021 41.439 44.0532 41.3418 44.0923 41.2471C44.0923 41.2471 44.2886 40.8184 44.3237 40.7495C44.3657 40.6709 44.4107 40.5947 44.4605 40.5103C44.5103 40.4248 44.5591 40.3394 44.6138 40.2554C44.6636 40.1797 44.7163 40.1064 44.772 40.0284C44.8267 39.9517 44.8823 39.8755 44.9351 39.8091C44.9946 39.7344 45.0552 39.6617 45.1138 39.5933C45.1753 39.5225 45.2388 39.4532 45.3169 39.3711C45.3765 39.3081 45.438 39.2466 45.5025 39.1851C45.5718 39.1187 45.6441 39.0538 45.7105 38.9961C45.7788 38.9361 45.8482 38.8765 45.9292 38.8125C46.0005 38.7554 46.0757 38.7017 46.1411 38.6534C46.2231 38.5948 46.3052 38.5357 46.3755 38.4893L46.6362 38.3321C46.7124 38.2876 46.7876 38.2417 46.8677 38.1998C46.8677 38.1998 47.3062 37.9908 47.3716 37.9639C47.3716 37.9639 47.8462 37.7906 47.9107 37.771L48.1694 37.7061C48.1694 37.7061 48.4058 37.6431 48.4692 37.6304C48.4692 37.6304 48.9849 37.5503 49.0376 37.545V37.5396L49.0386 37.5445C49.8725 37.4596 50.7149 37.5507 51.5114 37.8119C52.3079 38.0731 53.0407 38.4985 53.6625 39.0606C54.2842 39.6228 54.7811 40.3092 55.1209 41.0754C55.4607 41.8416 55.636 42.6706 55.6353 43.5088V46.3057H43.645V43.5068Z" fill="#B3B3B3"/>
<path fill-rule="evenodd" clip-rule="evenodd" d="M67.2287 78.6856C67.2262 79.533 66.8885 80.345 66.2893 80.9442C65.6901 81.5434 64.8781 81.8811 64.0307 81.8836H35.2494C34.4021 81.8811 33.5901 81.5434 32.9909 80.9442C32.3917 80.345 32.054 79.533 32.0515 78.6856V54.7012H67.2287V78.6856Z" fill="#1F56A3"/>
<path fill-rule="evenodd" clip-rule="evenodd" d="M67.2287 54.7005C67.2262 55.5478 66.8885 56.3598 66.2893 56.959C65.6901 57.5582 64.8781 57.8959 64.0307 57.8984H35.2494C34.4021 57.8959 33.5901 57.5582 32.9909 56.959C32.3917 56.3598 32.054 55.5478 32.0515 54.7005V51.5025C32.054 50.6552 32.3917 49.8432 32.9909 49.244C33.5901 48.6449 34.4021 48.3072 35.2494 48.3047H64.0307C64.8781 48.3072 65.6901 48.6449 66.2893 49.244C66.8885 49.8432 67.2262 50.6552 67.2287 51.5026V54.7005Z" fill="#0078D4"/>
<path opacity="0.2" fill-rule="evenodd" clip-rule="evenodd" d="M64.0307 58.6979H51.2391C51.0291 58.6979 50.8211 58.7392 50.6271 58.8195C50.4331 58.8998 50.2568 59.0176 50.1083 59.1661C49.9598 59.3146 49.842 59.4909 49.7617 59.6849C49.6813 59.8789 49.64 60.0869 49.6401 60.2969V78.6848C49.6401 78.8948 49.5988 79.1028 49.5185 79.2968C49.4382 79.4908 49.3204 79.6671 49.1719 79.8156C49.0234 79.9641 48.8471 80.0819 48.6531 80.1622C48.4591 80.2426 48.2511 80.2839 48.0411 80.2838H35.2494C34.4021 80.2814 33.5901 79.9436 32.9909 79.3445C32.3917 78.7453 32.054 77.9333 32.0515 77.0859V78.6848C32.054 79.5322 32.3917 80.3442 32.9909 80.9434C33.5901 81.5426 34.402 81.8804 35.2494 81.8829H64.0307C64.8781 81.8804 65.6901 81.5426 66.2893 80.9434C66.8885 80.3442 67.2262 79.5322 67.2287 78.6848V55.5C67.2262 56.3474 66.8885 57.1593 66.2893 57.7585C65.6901 58.3577 64.8781 58.6954 64.0307 58.6979V58.6979Z" fill="#003067"/>
<path fill-rule="evenodd" clip-rule="evenodd" d="M42.4447 53.1016C42.4447 54.4256 41.0128 55.5 39.2467 55.5C37.4807 55.5 36.0488 54.4255 36.0488 53.1016C36.0488 51.7776 37.4807 50.7031 39.2467 50.7031C41.0128 50.7031 42.4447 51.7776 42.4447 53.1016Z" fill="#182A37"/>
<path fill-rule="evenodd" clip-rule="evenodd" d="M63.2313 53.1016C63.2313 54.4256 61.7994 55.5 60.0334 55.5C58.2673 55.5 56.8354 54.4255 56.8354 53.1016C56.8354 51.7776 58.2673 50.7031 60.0334 50.7031C61.7994 50.7031 63.2313 51.7776 63.2313 53.1016Z" fill="#182A37"/>
<path fill-rule="evenodd" clip-rule="evenodd" d="M49.6401 30.7168C46.2487 30.7207 42.9974 32.0697 40.5994 34.4677C38.2013 36.8658 36.8523 40.1171 36.8484 43.5085V54.6732C37.5329 55.2094 38.3773 55.5007 39.2468 55.5007C40.1163 55.5007 40.9608 55.2094 41.6453 54.6732V43.5085C41.6453 41.3881 42.4876 39.3546 43.9869 37.8553C45.4862 36.356 47.5197 35.5137 49.6401 35.5137C51.7604 35.5137 53.794 36.356 55.2933 37.8553C56.7926 39.3546 57.6349 41.3881 57.6349 43.5085V53.1023C57.6349 53.9849 58.7086 54.7012 60.0333 54.7012C61.3581 54.7012 62.4318 53.9849 62.4318 53.1023V43.5085C62.4278 40.1171 61.0789 36.8658 58.6808 34.4678C56.2828 32.0697 53.0314 30.7207 49.6401 30.7168Z" fill="white"/>
<path opacity="0.2" fill-rule="evenodd" clip-rule="evenodd" d="M45.0543 36.1201C43.5502 36.7787 42.2733 37.8655 41.3827 39.245C40.4921 40.6245 40.0273 42.2356 40.0463 43.8775V52.0609C40.0474 52.3054 39.9922 52.547 39.8849 52.7668C39.7777 52.9866 39.6214 53.1788 39.428 53.3285C39.2347 53.4782 39.0094 53.5814 38.7698 53.6301C38.5301 53.6789 38.2825 53.6718 38.046 53.6095C37.6151 53.5127 37.2079 53.3305 36.8484 53.0739V54.6728C37.525 55.2233 38.3747 55.5165 39.2469 55.5003C39.5155 55.4982 39.7832 55.4698 40.0463 55.4155C40.2046 55.3847 40.3608 55.3441 40.514 55.294C40.5915 55.2685 40.6635 55.2365 40.7371 55.2069C40.8474 55.1621 40.9545 55.1141 41.0569 55.0606C41.1121 55.031 41.1672 55.003 41.22 54.9711C41.3701 54.8841 41.5124 54.7843 41.6453 54.6728V43.5081C41.6478 41.5269 42.3849 39.6171 43.714 38.1479C45.043 36.6787 46.8696 35.7545 48.8406 35.5541C47.5509 35.4195 46.2482 35.6143 45.0543 36.1201V36.1201Z" fill="#B3B3B3"/>
<path opacity="0.2" fill-rule="evenodd" clip-rule="evenodd" d="M49.6405 30.7168C49.3711 30.7168 49.1073 30.74 48.8411 30.7576C52.0857 30.9621 55.1308 32.3939 57.3581 34.7621C59.5854 37.1303 60.8278 40.2574 60.8332 43.5085V52.0613C60.8343 52.3059 60.7791 52.5474 60.6719 52.7672C60.5647 52.987 60.4083 53.1792 60.215 53.3289C60.0216 53.4786 59.7964 53.5818 59.5567 53.6305C59.3171 53.6793 59.0695 53.6722 58.833 53.6099C58.402 53.5131 57.9948 53.3309 57.6353 53.0743V54.6732C58.3198 55.2094 59.1643 55.5007 60.0338 55.5007C60.9033 55.5007 61.7477 55.2094 62.4322 54.6732V43.5085C62.4283 40.1171 61.0793 36.8658 58.6812 34.4677C56.2832 32.0697 53.0319 30.7207 49.6405 30.7168V30.7168Z" fill="#B3B3B3"/>
<path d="M56.4156 62.6187C56.0656 62.6187 55.7238 62.6059 55.3927 62.5806C55.0872 62.5571 54.7835 62.5137 54.4837 62.4508C54.2061 62.3925 53.9341 62.3098 53.6711 62.2037C53.4126 62.0983 53.1654 61.9671 52.9333 61.8119C52.5198 61.5291 52.0679 61.307 51.5914 61.1524C51.1477 61.0123 50.6904 60.9193 50.2272 60.8749C50.1814 60.8705 50.1362 60.8682 50.091 60.8682H49.1881C49.1429 60.8682 49.0978 60.8705 49.0519 60.8749C48.5884 60.9193 48.131 61.0124 47.687 61.1527C47.2179 61.3043 46.7725 61.5212 46.364 61.7971C46.1241 61.9579 45.8691 62.0948 45.6026 62.2061C45.3429 62.3116 45.0741 62.3932 44.7995 62.4498C44.4962 62.5129 44.1892 62.5566 43.8804 62.5807C43.5479 62.6059 43.209 62.6186 42.8635 62.6188C42.4972 62.6188 42.1459 62.7643 41.8869 63.0233C41.628 63.2823 41.4824 63.6335 41.4824 63.9998L41.4831 67.6567C41.4885 67.822 41.4966 67.9872 41.506 68.1456C41.5168 68.3267 41.5337 68.5078 41.5566 68.6888C41.5802 68.8776 41.7124 69.58 41.7589 69.763C41.9877 70.6592 42.347 71.5169 42.825 72.3087C43.2852 73.0698 43.8251 73.7798 44.4354 74.4268C45.0387 75.0655 45.6964 75.6505 46.4011 76.1753C47.0719 76.6758 47.7705 77.138 48.4935 77.5597C48.7043 77.6826 48.944 77.7473 49.1881 77.7472H50.091C50.3351 77.7473 50.5748 77.6826 50.7856 77.5597C51.5087 77.138 52.2073 76.6757 52.8781 76.175C53.5828 75.6504 54.2405 75.0656 54.8438 74.4271C55.454 73.7799 55.9938 73.0698 56.4541 72.3087C56.9322 71.5169 57.2914 70.6592 57.5202 69.763C57.5674 69.5799 57.6895 68.9043 57.7165 68.731C57.7468 68.5378 57.7679 68.3448 57.7799 68.152C57.7913 67.9727 57.7969 67.7932 57.7967 67.6136V63.9998C57.7967 63.6335 57.6512 63.2823 57.3922 63.0233C57.1332 62.7643 56.7819 62.6188 56.4156 62.6187Z" fill="#1F56A3"/>
<path d="M50.0912 62.2491C50.4579 62.2838 50.8199 62.3571 51.1712 62.4679C51.5222 62.5821 51.855 62.7461 52.1593 62.9549C52.4721 63.165 52.8056 63.3424 53.1546 63.4843C53.4928 63.6206 53.8424 63.7268 54.1992 63.8019C54.5578 63.8773 54.9209 63.9292 55.2862 63.9572C55.6532 63.9854 56.0297 63.9995 56.4155 63.9995V67.6134C56.4155 67.764 56.4108 67.9145 56.4014 68.0651C56.392 68.2157 56.3755 68.3663 56.352 68.5168H50.0912V62.2491ZM42.8635 63.9995C43.2447 63.9995 43.6188 63.9854 43.9858 63.9572C44.3534 63.9289 44.7188 63.877 45.0798 63.8019C45.437 63.7282 45.7867 63.6219 46.1244 63.4843C46.4753 63.3388 46.8111 63.1592 47.1267 62.9478C47.4294 62.7422 47.7597 62.5806 48.1078 62.4678C48.4591 62.3571 48.8211 62.2837 49.1877 62.249V68.5168H42.9271C42.9082 68.3662 42.8941 68.2157 42.8847 68.0651C42.8753 67.9145 42.8682 67.7639 42.8635 67.6134L42.8635 63.9995ZM49.1878 76.3657C48.5097 75.9702 47.8546 75.5366 47.2256 75.067C46.5851 74.5907 45.9876 74.0593 45.4398 73.4789C44.8965 72.9034 44.4162 72.2717 44.007 71.5943C43.5983 70.9183 43.2915 70.1858 43.0964 69.4203H49.1878V76.3657ZM50.0912 69.4203H56.1826C55.9876 70.1858 55.6808 70.9183 55.2721 71.5943C54.8628 72.2717 54.3825 72.9035 53.8392 73.4789C53.2915 74.0594 52.6939 74.5908 52.0535 75.067C51.4244 75.5366 50.7693 75.9702 50.0912 76.3657V69.4203Z" fill="white"/>
</g>
<defs>
<linearGradient id="paint0_linear" x1="47.8698" y1="-15.153" x2="51.8525" y2="130.615" gradientUnits="userSpaceOnUse">
<stop stop-color="#00ABDE"/>
<stop offset="1" stop-color="#007ED8"/>
</linearGradient>
<clipPath id="clip0">
<rect width="99.2799" height="99.28" fill="white"/>
</clipPath>
</defs>
</svg>
