<svg width="103" height="103" viewBox="0 0 103 103" fill="none" xmlns="http://www.w3.org/2000/svg">
<path d="M51.0329 98.3065C25.1829 98.3065 4.2229 77.3565 4.2229 51.4965C4.2229 25.6365 25.1829 4.68652 51.0329 4.68652C76.8829 4.68652 97.8429 25.6465 97.8429 51.4965C97.8429 77.3465 76.8829 98.3065 51.0329 98.3065Z" fill="url(#paint0_linear)"/>
<path fill-rule="evenodd" clip-rule="evenodd" d="M96.9331 51.4964C96.9331 76.8464 76.3831 97.3964 51.0331 97.3964C25.6831 97.3964 5.13307 76.8464 5.13307 51.4964C5.13307 26.1464 25.6831 5.59645 51.0331 5.59645C76.3831 5.59645 96.9331 26.1464 96.9331 51.4964ZM51.0331 1.85645C78.4531 1.85645 100.673 24.0764 100.673 51.4964C100.673 78.9164 78.4431 101.136 51.0331 101.136C23.6131 101.136 1.39307 78.9064 1.39307 51.4964C1.39307 24.0764 23.6131 1.85645 51.0331 1.85645Z" fill="#F2F1F0"/>
<path fill-rule="evenodd" clip-rule="evenodd" d="M94.1229 51.496C94.1229 75.296 74.8329 94.586 51.0329 94.586C27.2329 94.586 7.94288 75.296 7.94288 51.496C7.94288 27.696 27.2329 8.40602 51.0329 8.40602C74.8329 8.40602 94.1229 27.696 94.1229 51.496ZM51.0329 4.66602C76.8929 4.66602 97.8629 25.636 97.8629 51.496C97.8629 77.356 76.8929 98.326 51.0329 98.326C25.1729 98.326 4.20288 77.356 4.20288 51.496C4.20288 25.636 25.1629 4.66602 51.0329 4.66602Z" fill="url(#paint1_linear)"/>
<path opacity="0.15" d="M30.0929 64.1463C30.0929 66.9263 32.3629 69.1863 35.1329 69.1863C37.9129 69.1863 40.1729 66.9163 40.1729 64.1463C40.1729 62.9463 39.7329 61.8763 39.0429 60.9963L48.0929 43.7962C46.9629 43.3762 46.0229 42.7562 45.1629 41.9362C43.5129 40.3562 42.4729 38.1262 42.4729 35.6662C42.4729 30.8762 46.3729 26.9662 51.1729 26.9662C55.9729 26.9662 59.8729 30.8662 59.8729 35.6662C59.8729 36.4062 59.7529 37.1262 59.5729 37.7962L62.8629 39.1063C63.1829 37.9963 63.4329 36.8662 63.4329 35.6662C63.4329 28.9162 57.9229 23.4062 51.1729 23.4062C44.4229 23.4062 38.9329 28.9062 38.9329 35.6662C38.9329 39.4462 40.7029 42.7963 43.3729 45.0563L35.9429 59.2062C35.6729 59.1562 35.4029 59.1263 35.1029 59.1263C32.3629 59.1263 30.0929 61.3663 30.0929 64.1463Z" fill="#1F1D20"/>
<path opacity="0.15" d="M66.8629 69.1857C69.6429 69.1857 71.9029 66.9157 71.9029 64.1457C71.9029 61.3657 69.6329 59.1057 66.8629 59.1057C64.7329 59.1057 62.8829 60.4557 62.1629 62.3457H43.6329C43.7529 62.9157 43.8329 63.5057 43.8329 64.1157C43.8329 64.7257 43.7529 65.3157 43.6329 65.8857C42.8029 69.8457 39.3129 72.8157 35.1129 72.8157C30.3229 72.8157 26.4129 68.9157 26.4129 64.1157C26.4129 60.4057 28.7729 57.2257 32.0729 55.9857L31.0329 52.6357C26.2929 54.3357 22.8729 58.8357 22.8729 64.1257C22.8729 70.8757 28.3829 76.3857 35.1329 76.3857C41.2729 76.3857 46.3429 71.8057 47.2229 65.8957H62.1629C62.8829 67.8357 64.6929 69.1857 66.8629 69.1857Z" fill="#1F1D20"/>
<path opacity="0.15" d="M66.863 51.886C65.673 51.886 64.583 52.116 63.503 52.426C63.473 52.426 63.473 52.426 63.453 52.426V52.456V52.426L55.203 38.716C55.853 37.876 56.253 36.826 56.253 35.666C56.253 32.886 53.983 30.626 51.213 30.626C48.443 30.626 46.173 32.896 46.173 35.666C46.173 38.446 48.443 40.706 51.213 40.706C51.533 40.706 51.863 40.676 52.173 40.596L61.973 57.016C62.983 56.356 64.243 55.786 65.473 55.556C65.943 55.476 66.403 55.436 66.873 55.436C71.663 55.436 75.573 59.336 75.573 64.136C75.573 68.926 71.673 72.836 66.873 72.836C64.683 72.836 62.703 72.026 61.173 70.676L58.663 73.186C60.823 75.186 63.703 76.416 66.873 76.416C73.623 76.416 79.133 70.906 79.133 64.156C79.113 57.386 73.613 51.886 66.863 51.886Z" fill="#1F1D20"/>
<path d="M30.0929 62.366C30.0929 65.146 32.3629 67.406 35.1329 67.406C37.9129 67.406 40.1729 65.136 40.1729 62.366C40.1729 61.166 39.7329 60.096 39.0429 59.216L48.0929 42.016C46.9629 41.596 46.0229 40.976 45.1629 40.156C43.5129 38.576 42.4729 36.346 42.4729 33.886C42.4729 29.096 46.3729 25.186 51.1729 25.186C55.9729 25.186 59.8729 29.086 59.8729 33.886C59.8729 34.626 59.7529 35.346 59.5729 36.016L62.8629 37.326C63.1829 36.216 63.4329 35.086 63.4329 33.886C63.4329 27.136 57.9229 21.626 51.1729 21.626C44.4229 21.626 38.9329 27.126 38.9329 33.886C38.9329 37.666 40.7029 41.016 43.3729 43.276L35.9429 57.426C35.6729 57.376 35.4029 57.346 35.1029 57.346C32.3629 57.346 30.0929 59.586 30.0929 62.366Z" fill="white"/>
<path d="M66.8629 67.4064C69.6429 67.4064 71.9029 65.1364 71.9029 62.3664C71.9029 59.5864 69.6329 57.3264 66.8629 57.3264C64.7329 57.3264 62.8829 58.6764 62.1629 60.5664H43.6329C43.7529 61.1364 43.8329 61.7264 43.8329 62.3364C43.8329 62.9564 43.7529 63.5364 43.6329 64.1064C42.8029 68.0664 39.3129 71.0364 35.1129 71.0364C30.3229 71.0364 26.4129 67.1364 26.4129 62.3364C26.4129 58.6264 28.7729 55.4464 32.0729 54.2064L31.0329 50.8564C26.2929 52.5564 22.8729 57.0564 22.8729 62.3464C22.8729 69.0964 28.3829 74.6064 35.1329 74.6064C41.2729 74.6064 46.3429 70.0264 47.2229 64.1164H62.1629C62.8829 66.0564 64.6929 67.4064 66.8629 67.4064Z" fill="white"/>
<path d="M66.863 50.1057C65.673 50.1057 64.583 50.3357 63.503 50.6457C63.473 50.6457 63.473 50.6457 63.453 50.6457V50.6757V50.6457L55.203 36.9357C55.853 36.0957 56.253 35.0457 56.253 33.8857C56.253 31.1057 53.983 28.8457 51.213 28.8457C48.443 28.8457 46.173 31.1157 46.173 33.8857C46.173 36.6657 48.443 38.9257 51.213 38.9257C51.533 38.9257 51.863 38.8957 52.173 38.8157L61.973 55.2357C62.983 54.5757 64.243 54.0057 65.473 53.7757C65.943 53.6957 66.403 53.6557 66.873 53.6557C71.663 53.6557 75.573 57.5557 75.573 62.3557C75.573 67.1457 71.673 71.0557 66.873 71.0557C64.683 71.0557 62.703 70.2457 61.173 68.8957L58.663 71.4057C60.823 73.4057 63.703 74.6357 66.873 74.6357C73.623 74.6357 79.133 69.1257 79.133 62.3757C79.113 55.6057 73.613 50.1057 66.863 50.1057Z" fill="white"/>
<path opacity="0.15" d="M50.993 46.9862C59.7356 46.9862 66.823 39.8988 66.823 31.1562C66.823 22.4135 59.7356 15.3262 50.993 15.3262C42.2503 15.3262 35.163 22.4135 35.163 31.1562C35.163 39.8988 42.2503 46.9862 50.993 46.9862Z" fill="#1F1D20"/>
<path d="M50.993 45.6961C59.7356 45.6961 66.823 38.6088 66.823 29.8661C66.823 21.1235 59.7356 14.0361 50.993 14.0361C42.2503 14.0361 35.163 21.1235 35.163 29.8661C35.163 38.6088 42.2503 45.6961 50.993 45.6961Z" fill="#F2F1F0"/>
<path d="M59.0629 36.586C58.6129 32.566 55.1729 29.416 51.0029 29.416C46.8729 29.416 43.4629 32.516 42.9429 36.496C42.8729 36.766 42.8729 37.076 42.8729 37.346C42.9829 38.476 43.7729 39.576 45.2529 40.446C48.4129 42.266 53.5929 42.266 56.7229 40.446C58.2029 39.586 58.9629 38.486 59.0629 37.346C59.1429 37.106 59.1029 36.826 59.0629 36.586Z" fill="url(#paint2_linear)"/>
<path d="M51.0029 28.2364C53.7029 28.2364 55.8829 26.0664 55.8829 23.3864C55.8929 20.6964 53.7029 18.5264 51.0029 18.5264C48.3129 18.5264 46.1229 20.6964 46.1229 23.3764C46.1229 26.0564 48.3129 28.2364 51.0029 28.2364Z" fill="url(#paint3_linear)"/>
<path opacity="0.15" d="M70.4629 80.3358C79.2056 80.3358 86.2929 73.2485 86.2929 64.5058C86.2929 55.7631 79.2056 48.6758 70.4629 48.6758C61.7203 48.6758 54.6329 55.7631 54.6329 64.5058C54.6329 73.2485 61.7203 80.3358 70.4629 80.3358Z" fill="#1F1D20"/>
<path d="M70.4629 78.7157C79.2056 78.7157 86.2929 71.6283 86.2929 62.8857C86.2929 54.143 79.2056 47.0557 70.4629 47.0557C61.7203 47.0557 54.6329 54.143 54.6329 62.8857C54.6329 71.6283 61.7203 78.7157 70.4629 78.7157Z" fill="#F2F1F0"/>
<path d="M78.5429 69.6055C78.0929 65.5855 74.6529 62.4355 70.4829 62.4355C66.3529 62.4355 62.9429 65.5355 62.4229 69.5155C62.3529 69.7855 62.3529 70.0956 62.3529 70.3656C62.4629 71.4956 63.2529 72.5955 64.7329 73.4655C67.8929 75.2855 73.0729 75.2855 76.2029 73.4655C77.6829 72.6055 78.4429 71.5056 78.5429 70.3656C78.6129 70.1256 78.5829 69.8555 78.5429 69.6055Z" fill="url(#paint4_linear)"/>
<path d="M70.4829 61.2559C73.1829 61.2559 75.3629 59.0859 75.3629 56.4059C75.3729 53.7159 73.1829 51.5459 70.4829 51.5459C67.7929 51.5459 65.6029 53.7159 65.6029 56.3959C65.6029 59.0759 67.7929 61.2559 70.4829 61.2559Z" fill="url(#paint5_linear)"/>
<path opacity="0.15" d="M31.6029 80.1766C40.3456 80.1766 47.433 73.0893 47.433 64.3466C47.433 55.6039 40.3456 48.5166 31.6029 48.5166C22.8603 48.5166 15.7729 55.6039 15.7729 64.3466C15.7729 73.0893 22.8603 80.1766 31.6029 80.1766Z" fill="#1F1D20"/>
<path d="M31.6029 78.8963C40.3456 78.8963 47.433 71.809 47.433 63.0663C47.433 54.3237 40.3456 47.2363 31.6029 47.2363C22.8603 47.2363 15.7729 54.3237 15.7729 63.0663C15.7729 71.809 22.8603 78.8963 31.6029 78.8963Z" fill="#F2F1F0"/>
<path d="M28.0129 61.2061H22.3229C21.7829 61.2061 21.3529 61.6461 21.3529 62.1761V67.3561C21.3529 69.3361 22.9529 70.9361 24.9329 70.9361H24.9529C26.9329 70.9361 28.5329 69.3361 28.5329 67.3561V61.7061C28.5229 61.4261 28.2929 61.2061 28.0129 61.2061Z" fill="#5059C9"/>
<path d="M24.5329 60.1457C22.9729 60.3857 21.6529 59.0657 21.8929 57.5057C22.0429 56.5357 22.8329 55.7457 23.8029 55.5957C25.3629 55.3557 26.6829 56.6757 26.4529 58.2357C26.2929 59.2057 25.5029 59.9957 24.5329 60.1457Z" fill="#5059C9"/>
<path d="M31.9929 60.1157C29.6429 60.5657 27.6229 58.5457 28.0729 56.1957C28.3229 54.8857 29.3829 53.8257 30.6929 53.5857C33.0429 53.1357 35.0629 55.1557 34.6129 57.5057C34.3629 58.8057 33.3029 59.8657 31.9929 60.1157Z" fill="#7B83EB"/>
<path d="M26.893 61.2061H36.293C36.823 61.2161 37.243 61.6561 37.233 62.1861V68.0961C37.303 71.2861 34.783 73.9261 31.593 74.0061C28.403 73.9261 25.883 71.2861 25.953 68.0961V62.1861C25.943 61.6561 26.363 61.2161 26.893 61.2061Z" fill="#7B83EB"/>
<path opacity="0.1" d="M31.0829 61.2061V69.4861C31.0829 69.8661 31.3129 70.2061 31.6629 70.3561C31.7729 70.4061 31.8929 70.4261 32.0129 70.4261H36.7729C36.8429 70.2561 36.9029 70.0861 36.9529 69.9161C37.1329 69.3261 37.2229 68.7161 37.2229 68.1061V62.1961C37.2329 61.6661 36.8129 61.2261 36.2829 61.2161H31.0829V61.2061Z" fill="black"/>
<path opacity="0.2" d="M31.5929 61.2061V69.9961C31.5929 70.1161 31.6129 70.2361 31.6629 70.3461C31.8029 70.6961 32.1529 70.9261 32.5329 70.9261H36.5429C36.6329 70.7561 36.7129 70.5861 36.7829 70.4161C36.8529 70.2461 36.9129 70.0761 36.9629 69.9061C37.1429 69.3161 37.2329 68.7061 37.2329 68.0961V62.1861C37.2429 61.6561 36.8229 61.2161 36.2929 61.2061H31.5929V61.2061Z" fill="black"/>
<path opacity="0.2" d="M31.5929 61.2061V68.9761C31.5929 69.4961 32.0129 69.9061 32.5329 69.9161H36.9629C37.1429 69.3261 37.2329 68.7161 37.2329 68.1061V62.1961C37.2429 61.6661 36.8229 61.2261 36.2929 61.2161H31.5929V61.2061Z" fill="black"/>
<path opacity="0.2" d="M32.1129 61.2061V68.9761C32.1129 69.4961 32.5329 69.9061 33.0529 69.9161H36.9729C37.1529 69.3261 37.2429 68.7161 37.2429 68.1061V62.1961C37.2529 61.6661 36.8329 61.2261 36.3029 61.2161H32.1129V61.2061Z" fill="black"/>
<path opacity="0.1" d="M31.0829 58.5552V60.1652C31.1729 60.1752 31.2529 60.1752 31.3429 60.1752C31.4329 60.1752 31.5129 60.1652 31.6029 60.1652C31.7729 60.1552 31.9429 60.1252 32.1129 60.0852C33.1529 59.8352 34.0129 59.1152 34.4229 58.1252C34.4929 57.9552 34.5529 57.7852 34.5829 57.6152H32.0229C31.5029 57.6152 31.0829 58.0352 31.0829 58.5552Z" fill="black"/>
<path opacity="0.2" d="M31.5929 59.066V60.166C31.7629 60.156 31.9329 60.126 32.1029 60.086C33.1429 59.836 34.0029 59.116 34.4129 58.126H32.5329C32.0129 58.126 31.5929 58.546 31.5929 59.066Z" fill="black"/>
<path opacity="0.2" d="M31.5929 59.066V60.166C31.7629 60.156 31.9329 60.126 32.1029 60.086C33.1429 59.836 34.0029 59.116 34.4129 58.126H32.5329C32.0129 58.126 31.5929 58.546 31.5929 59.066Z" fill="black"/>
<path opacity="0.2" d="M32.1129 59.066V60.086C33.1529 59.836 34.0129 59.116 34.4229 58.126H33.0529C32.5329 58.126 32.1129 58.546 32.1129 59.066Z" fill="black"/>
<path d="M42.4429 58.126H33.0429C32.5229 58.126 32.1029 58.546 32.1029 59.066V68.456C32.1029 68.976 32.5229 69.396 33.0429 69.396H42.4429C42.9629 69.396 43.3829 68.976 43.3829 68.456V59.066C43.3829 58.546 42.9629 58.126 42.4429 58.126Z" fill="url(#paint6_linear)"/>
<path d="M35.2729 61.7058H37.1529V66.8158H38.3529V61.7058H40.2229V60.7158H35.2729V61.7058Z" fill="white"/>
<defs>
<linearGradient id="paint0_linear" x1="49.263" y1="-13.293" x2="53.245" y2="132.478" gradientUnits="userSpaceOnUse">
<stop stop-color="#A9B1FF"/>
<stop offset="1" stop-color="#7B83EB"/>
</linearGradient>
<linearGradient id="paint1_linear" x1="48.5392" y1="6.41762" x2="53.4526" y2="95.2365" gradientUnits="userSpaceOnUse">
<stop stop-color="#5A62C3"/>
<stop offset="0.5" stop-color="#4D55BD"/>
<stop offset="1" stop-color="#3940AB"/>
</linearGradient>
<linearGradient id="paint2_linear" x1="42.9229" y1="14.5568" x2="63.7338" y2="72.0169" gradientUnits="userSpaceOnUse">
<stop stop-color="#5A62C3"/>
<stop offset="0.5" stop-color="#4D55BD"/>
<stop offset="1" stop-color="#3940AB"/>
</linearGradient>
<linearGradient id="paint3_linear" x1="47.2452" y1="12.9917" x2="68.0561" y2="70.4519" gradientUnits="userSpaceOnUse">
<stop stop-color="#5A62C3"/>
<stop offset="0.5" stop-color="#4D55BD"/>
<stop offset="1" stop-color="#3940AB"/>
</linearGradient>
<linearGradient id="paint4_linear" x1="49.5676" y1="12.1497" x2="70.3785" y2="69.6098" gradientUnits="userSpaceOnUse">
<stop stop-color="#5A62C3"/>
<stop offset="0.5" stop-color="#4D55BD"/>
<stop offset="1" stop-color="#3940AB"/>
</linearGradient>
<linearGradient id="paint5_linear" x1="53.8899" y1="10.5847" x2="74.7008" y2="68.0448" gradientUnits="userSpaceOnUse">
<stop stop-color="#5A62C3"/>
<stop offset="0.5" stop-color="#4D55BD"/>
<stop offset="1" stop-color="#3940AB"/>
</linearGradient>
<linearGradient id="paint6_linear" x1="41.4216" y1="57.392" x2="34.073" y2="70.1323" gradientUnits="userSpaceOnUse">
<stop stop-color="#5A62C3"/>
<stop offset="0.5" stop-color="#4D55BD"/>
<stop offset="1" stop-color="#3940AB"/>
</linearGradient>
</defs>
</svg>
