<svg width="100" height="100" viewBox="0 0 100 100" fill="none" xmlns="http://www.w3.org/2000/svg">
<g clip-path="url(#clip0)">
<path d="M49.6396 96.4501C40.3815 96.4501 31.3312 93.7047 23.6334 88.5612C15.9355 83.4176 9.93575 76.1069 6.39281 67.5535C2.84987 59.0001 1.92288 49.5882 3.72905 40.5079C5.53523 31.4277 9.99345 23.0869 16.5399 16.5404C23.0864 9.99393 31.4272 5.53571 40.5074 3.72954C49.5877 1.92337 58.9996 2.85036 67.553 6.3933C76.1064 9.93624 83.4172 15.936 88.5607 23.6339C93.7042 31.3317 96.4496 40.382 96.4496 49.6401C96.45 55.7874 95.2395 61.8746 92.8873 67.554C90.535 73.2335 87.087 78.3939 82.7402 82.7407C78.3934 87.0875 73.233 90.5355 67.5535 92.8878C61.8741 95.24 55.7869 96.4505 49.6396 96.4501V96.4501Z" fill="url(#paint0_linear)"/>
<path fill-rule="evenodd" clip-rule="evenodd" d="M95.5402 49.7113C95.5402 58.7895 92.8483 67.6637 87.8047 75.212C82.7611 82.7602 75.5925 88.6433 67.2054 92.1174C58.8183 95.5914 49.5893 96.5004 40.6856 94.7293C31.7819 92.9583 23.6033 88.5867 17.184 82.1675C10.7648 75.7483 6.39326 67.5697 4.6222 58.6659C2.85114 49.7622 3.76011 40.5333 7.23417 32.1461C10.7082 23.759 16.5914 16.5904 24.1396 11.5468C31.6878 6.50328 40.5621 3.81129 49.6402 3.81129C55.6679 3.81127 61.6366 4.99849 67.2054 7.30517C72.7743 9.61186 77.8343 12.9928 82.0965 17.255C86.3587 21.5173 89.7397 26.5772 92.0464 32.1461C94.353 37.715 95.5403 43.6836 95.5402 49.7113V49.7113ZM49.6402 0.0712894C59.4581 0.0712894 69.0555 2.98262 77.2188 8.43714C85.382 13.8917 91.7445 21.6444 95.5016 30.7149C99.2588 39.7854 100.242 49.7664 98.3264 59.3956C96.4111 69.0248 91.6833 77.8698 84.741 84.8121C77.7987 91.7544 68.9537 96.4821 59.3245 98.3975C49.6953 100.313 39.7144 99.3298 30.6438 95.5727C21.5733 91.8155 13.8206 85.4531 8.36609 77.2898C2.91158 69.1265 0.000244503 59.5292 0.000244503 49.7113C-0.000543598 43.1922 1.2829 36.7369 3.77726 30.714C6.27162 24.691 9.92805 19.2184 14.5377 14.6088C19.1474 9.99909 24.62 6.34267 30.6429 3.8483C36.6659 1.35394 43.1212 0.0705013 49.6402 0.0712894V0.0712894Z" fill="#F2F1F0"/>
<path fill-rule="evenodd" clip-rule="evenodd" d="M92.7303 49.6406C92.7303 58.163 90.2031 66.494 85.4683 73.5801C80.7335 80.6662 74.0038 86.1892 66.1301 89.4505C58.2565 92.7119 49.5925 93.5653 41.2339 91.9026C32.8752 90.24 25.1973 86.1361 19.1711 80.1098C13.1448 74.0836 9.0409 66.4057 7.37827 58.047C5.71563 49.6884 6.56895 41.0244 9.83033 33.1507C13.0917 25.2771 18.6147 18.5473 25.7008 13.8126C32.7869 9.07776 41.1179 6.55058 49.6403 6.55058C55.2991 6.55023 60.9025 7.66455 66.1305 9.82991C71.3586 11.9953 76.109 15.1692 80.1103 19.1706C84.1116 23.1719 87.2856 27.9223 89.451 33.1503C91.6163 38.3784 92.7306 43.9818 92.7303 49.6406V49.6406ZM49.6403 2.81058C58.9024 2.81058 67.9565 5.55711 75.6577 10.7029C83.3588 15.8486 89.3611 23.1624 92.9056 31.7195C96.45 40.2766 97.3774 49.6925 95.5705 58.7767C93.7635 67.8608 89.3034 76.2051 82.7541 82.7544C76.2048 89.3037 67.8605 93.7638 58.7764 95.5708C49.6923 97.3777 40.2763 96.4503 31.7192 92.9059C23.1622 89.3614 15.8483 83.3591 10.7026 75.6579C5.55683 67.9568 2.8103 58.9027 2.8103 49.6406C2.81149 37.2208 7.74573 25.3101 16.5278 16.5281C25.3099 7.74599 37.2206 2.81174 49.6403 2.81055V2.81058Z" fill="#0078D4"/>
<path d="M46.1974 36.6387H13.9694C13.4847 36.6387 13.0918 37.0316 13.0918 37.5162V45.2942C13.0918 45.7788 13.4847 46.1717 13.9694 46.1717H46.1974C46.6821 46.1717 47.075 45.7788 47.075 45.2942V37.5162C47.075 37.0316 46.6821 36.6387 46.1974 36.6387Z" fill="white"/>
<path d="M46.1974 47.6465H13.9694C13.4847 47.6465 13.0918 48.0394 13.0918 48.5241V56.302C13.0918 56.7866 13.4847 57.1795 13.9694 57.1795H46.1974C46.6821 57.1795 47.075 56.7866 47.075 56.302V48.5241C47.075 48.0394 46.6821 47.6465 46.1974 47.6465Z" fill="#C3F1FF"/>
<path d="M17.5556 43.3553C18.6326 43.3553 19.5057 42.4822 19.5057 41.4052C19.5057 40.3282 18.6326 39.4551 17.5556 39.4551C16.4786 39.4551 15.6055 40.3282 15.6055 41.4052C15.6055 42.4822 16.4786 43.3553 17.5556 43.3553Z" fill="#9CEBFF"/>
<path d="M17.5556 54.3632C18.6326 54.3632 19.5057 53.49 19.5057 52.413C19.5057 51.336 18.6326 50.4629 17.5556 50.4629C16.4786 50.4629 15.6055 51.336 15.6055 52.413C15.6055 53.49 16.4786 54.3632 17.5556 54.3632Z" fill="white"/>
<path d="M85.31 36.5225H53.0819C52.5972 36.5225 52.2043 36.9154 52.2043 37.4V45.178C52.2043 45.6626 52.5972 46.0555 53.0819 46.0555H85.31C85.7947 46.0555 86.1876 45.6626 86.1876 45.178V37.4C86.1876 36.9154 85.7947 36.5225 85.31 36.5225Z" fill="#9CEBFF"/>
<path d="M56.6681 43.2391C57.7452 43.2391 58.6183 42.366 58.6183 41.289C58.6183 40.212 57.7452 39.3389 56.6681 39.3389C55.5911 39.3389 54.718 40.212 54.718 41.289C54.718 42.366 55.5911 43.2391 56.6681 43.2391Z" fill="white"/>
<path d="M85.31 47.7627H53.0819C52.5972 47.7627 52.2043 48.1556 52.2043 48.6403V56.4182C52.2043 56.9029 52.5972 57.2958 53.0819 57.2958H85.31C85.7947 57.2958 86.1876 56.9029 86.1876 56.4182V48.6403C86.1876 48.1556 85.7947 47.7627 85.31 47.7627Z" fill="#0078D4"/>
<path d="M56.6681 54.4794C57.7452 54.4794 58.6183 53.6063 58.6183 52.5292C58.6183 51.4522 57.7452 50.5791 56.6681 50.5791C55.5911 50.5791 54.718 51.4522 54.718 52.5292C54.718 53.6063 55.5911 54.4794 56.6681 54.4794Z" fill="white"/>
<path opacity="0.2" d="M47.0751 36.6387H37.7128L37.6522 36.8716C37.5262 37.3614 37.5302 37.8757 37.6639 38.3635C37.7976 38.8513 38.0563 39.2957 38.4144 39.6529C38.7726 40.01 39.2178 40.2675 39.7059 40.3998C40.1941 40.5321 40.7084 40.5347 41.1978 40.4073L44.7736 39.4763C45.514 39.8 46.285 40.0486 47.0751 40.2185L47.0751 36.6387Z" fill="#767676"/>
<path opacity="0.2" d="M52.2043 36.5225V40.1017C54.608 39.5751 56.7932 38.3262 58.4669 36.5225H52.2043Z" fill="#003067"/>
<path d="M49.6404 18.2725C51.161 18.2731 52.6616 18.6195 54.0286 19.2856C55.3957 19.9516 56.5933 20.9198 57.531 22.117C58.4687 23.3141 59.1219 24.7088 59.4411 26.1956C59.7603 27.6824 59.7372 29.2222 59.3736 30.6988C59.01 32.1753 58.3153 33.5498 57.3422 34.7183C56.3691 35.8868 55.1429 36.8187 53.7566 37.4435C52.3702 38.0683 50.8599 38.3696 49.3399 38.3247C47.8199 38.2798 46.33 37.8897 44.983 37.1841L40.6805 38.3043C40.5366 38.3418 40.3855 38.341 40.2421 38.302C40.0987 38.2631 39.968 38.1873 39.8629 38.0822C39.7578 37.9771 39.682 37.8464 39.643 37.703C39.6041 37.5596 39.6032 37.4085 39.6407 37.2647L40.7602 32.9641C39.9583 31.4355 39.5644 29.7258 39.6167 28.0003C39.6689 26.2749 40.1655 24.5922 41.0585 23.1148C41.9514 21.6375 43.2105 20.4156 44.7139 19.5673C46.2173 18.719 47.9142 18.273 49.6404 18.2725H49.6404Z" fill="url(#paint1_linear)"/>
<path d="M50.8955 29.3039H46.3811L46.279 29.3107C46.0989 29.3354 45.9338 29.4245 45.8143 29.5615C45.6948 29.6985 45.6289 29.8742 45.6289 30.056C45.6289 30.2378 45.6948 30.4135 45.8143 30.5505C45.9338 30.6875 46.0989 30.7766 46.279 30.8013L46.3811 30.8081H50.8955L50.9975 30.8013C51.1777 30.7766 51.3427 30.6875 51.4622 30.5504C51.5817 30.4134 51.6476 30.2378 51.6476 30.056C51.6476 29.8742 51.5817 29.6985 51.4622 29.5615C51.3427 29.4245 51.1777 29.3354 50.9975 29.3107L50.8955 29.3039ZM52.8994 25.7939H46.3811L46.279 25.8008C46.0989 25.8255 45.9338 25.9146 45.8143 26.0516C45.6948 26.1886 45.6289 26.3643 45.6289 26.5461C45.6289 26.7279 45.6948 26.9036 45.8143 27.0406C45.9338 27.1776 46.0989 27.2667 46.279 27.2914L46.3811 27.2982H52.8994L53.0015 27.2914C53.1817 27.2667 53.3467 27.1776 53.4662 27.0406C53.5857 26.9035 53.6516 26.7279 53.6516 26.5461C53.6516 26.3643 53.5857 26.1886 53.4662 26.0516C53.3467 25.9146 53.1817 25.8255 53.0015 25.8008L52.8994 25.7939Z" fill="white"/>
<path d="M36.5318 73.397C30.8127 70.5572 26.1621 65.9483 23.271 60.2549" stroke="white" stroke-width="1.02623" stroke-miterlimit="10"/>
<path d="M76.0085 60.2549C73.0143 66.1515 68.1359 70.8788 62.1479 73.6859" stroke="white" stroke-width="1.02623" stroke-miterlimit="10"/>
<path d="M52.5814 75.1766C52.5814 75.7584 52.4089 76.3272 52.0857 76.811C51.7624 77.2948 51.3029 77.6719 50.7654 77.8945C50.2278 78.1172 49.6363 78.1754 49.0657 78.0619C48.495 77.9484 47.9708 77.6682 47.5594 77.2568C47.148 76.8454 46.8678 76.3212 46.7543 75.7505C46.6407 75.1799 46.699 74.5884 46.9217 74.0508C47.1443 73.5132 47.5214 73.0538 48.0052 72.7305C48.489 72.4073 49.0577 72.2347 49.6396 72.2347C50.4195 72.2357 51.1673 72.5459 51.7188 73.0974C52.2703 73.6489 52.5805 74.3967 52.5814 75.1766V75.1766ZM58.0183 73.5921L56.6503 73.2879C56.5087 73.2364 56.3932 73.1311 56.3288 72.9949C56.3242 72.9799 56.3188 72.9652 56.3126 72.9508L55.9351 72.0335C55.9287 72.0176 55.9213 72.0018 55.9134 71.9865C55.8622 71.8458 55.8689 71.6905 55.9322 71.5549L56.6847 70.3722C56.8387 70.1162 56.9044 69.8167 56.8718 69.5197C56.8392 69.2228 56.7102 68.9447 56.5044 68.7281L56.0881 68.3118C55.8695 68.1095 55.5918 67.9829 55.2958 67.9504C54.9997 67.9179 54.7011 67.9814 54.4439 68.1314L53.261 68.8837C53.1856 68.9214 53.102 68.9396 53.0177 68.9367C52.9533 68.939 52.8892 68.9275 52.8297 68.9028C52.8144 68.8946 52.7985 68.8874 52.7823 68.8811L51.8653 68.5033C51.8509 68.4973 51.8362 68.492 51.8212 68.4874C51.685 68.4229 51.5797 68.3073 51.5282 68.1656L51.2243 66.7979C51.152 66.508 50.9867 66.2497 50.7536 66.0627C50.5205 65.8757 50.2325 65.7703 49.9337 65.7627H49.3453C49.0466 65.7702 48.7587 65.8756 48.5256 66.0625C48.2925 66.2494 48.1272 66.5077 48.055 66.7976L47.7508 68.1662C47.699 68.3075 47.5938 68.4229 47.4578 68.4874C47.4428 68.4919 47.4281 68.4974 47.4134 68.5033L46.4964 68.8811C46.4802 68.8874 46.4644 68.8947 46.4491 68.9028C46.3896 68.9275 46.3254 68.9391 46.2611 68.9367C46.1767 68.9394 46.093 68.9212 46.0175 68.8837L44.8351 68.1317C44.5779 67.9818 44.2793 67.9183 43.9833 67.9508C43.6873 67.9832 43.4096 68.1099 43.191 68.312L42.7747 68.728C42.5689 68.9447 42.4398 69.2228 42.4072 69.5199C42.3746 69.8169 42.4404 70.1164 42.5944 70.3725L43.3469 71.5549C43.4098 71.6905 43.4166 71.8455 43.3657 71.9861C43.3577 72.0017 43.3501 72.0176 43.3437 72.0335L42.9662 72.9508C42.9603 72.9652 42.9547 72.9799 42.95 72.9949C42.8856 73.1312 42.7701 73.2366 42.6285 73.2882L41.2608 73.5918C40.9708 73.664 40.7125 73.8294 40.5255 74.0625C40.3385 74.2956 40.2332 74.5836 40.2256 74.8824V75.4708C40.2332 75.7695 40.3385 76.0574 40.5255 76.2905C40.7124 76.5235 40.9707 76.6888 41.2606 76.761L42.6288 77.0649C42.7703 77.1167 42.8857 77.2221 42.9501 77.3582C42.9548 77.3732 42.9604 77.388 42.9663 77.4024L43.3437 78.3196C43.3502 78.3355 43.3575 78.3511 43.3658 78.3667C43.4167 78.5074 43.4098 78.6626 43.3466 78.7983L42.5944 79.9806C42.4404 80.2367 42.3746 80.5362 42.4071 80.8333C42.4397 81.1304 42.5689 81.4085 42.7748 81.6251L43.191 82.0414C43.4097 82.2435 43.6875 82.3701 43.9836 82.4025C44.2796 82.435 44.5782 82.3716 44.8355 82.2217L46.0173 81.4695C46.0929 81.4318 46.1767 81.4136 46.2612 81.4165C46.3255 81.414 46.3897 81.4255 46.4492 81.4504C46.4647 81.458 46.4803 81.4657 46.4965 81.4721L47.4135 81.8499C47.4282 81.8558 47.4429 81.8611 47.4579 81.8658C47.594 81.9304 47.6992 82.0458 47.7509 82.1873L48.0551 83.5553C48.1272 83.8453 48.2925 84.1036 48.5256 84.2906C48.7587 84.4777 49.0467 84.583 49.3454 84.5906H49.9338C50.2325 84.5829 50.5205 84.4775 50.7536 84.2905C50.9866 84.1035 51.1519 83.8453 51.2241 83.5553L51.5283 82.1873C51.5799 82.0458 51.6852 81.9303 51.8213 81.8658C51.8363 81.8611 51.851 81.8558 51.8654 81.8499L52.7824 81.4721C52.7986 81.4657 52.8145 81.458 52.8298 81.4504C52.8892 81.4256 52.9532 81.4141 53.0175 81.4165C53.1018 81.4136 53.1856 81.4318 53.2611 81.4695L54.4437 82.2214C54.7009 82.3715 54.9996 82.435 55.2956 82.4026C55.5917 82.3702 55.8695 82.2436 56.0882 82.0414L56.5042 81.6254C56.7101 81.4088 56.8392 81.1306 56.8719 80.8335C56.9045 80.5364 56.8388 80.2368 56.6848 79.9806L55.9323 78.7983C55.901 78.7312 55.8832 78.6585 55.88 78.5845C55.8767 78.5105 55.8881 78.4366 55.9135 78.367C55.9215 78.3514 55.9288 78.3358 55.9352 78.32L56.3127 77.4024C56.3189 77.388 56.3243 77.3733 56.3289 77.3583C56.3934 77.222 56.509 77.1166 56.6507 77.065L58.018 76.761C58.308 76.689 58.5664 76.5237 58.7534 76.2906C58.9405 76.0575 59.0459 75.7695 59.0535 75.4707V74.8824C59.046 74.5836 58.9406 74.2957 58.7536 74.0626C58.5666 73.8295 58.3083 73.6642 58.0183 73.5921V73.5921Z" fill="url(#paint2_linear)"/>
<path opacity="0.2" d="M52.5815 75.1772C52.5815 75.7591 52.4089 76.3278 52.0857 76.8116C51.7624 77.2954 51.303 77.6725 50.7654 77.8951C50.2279 78.1178 49.6364 78.1761 49.0657 78.0625C48.495 77.949 47.9708 77.6688 47.5594 77.2574C47.148 76.846 46.8678 76.3218 46.7543 75.7511C46.6408 75.1805 46.699 74.589 46.9217 74.0514C47.1444 73.5139 47.5214 73.0544 48.0052 72.7311C48.489 72.4079 49.0578 72.2354 49.6396 72.2354C50.4196 72.2363 51.1673 72.5465 51.7188 73.098C52.2703 73.6495 52.5805 74.3973 52.5815 75.1772V75.1772Z" fill="url(#paint3_linear)"/>
</g>
<defs>
<linearGradient id="paint0_linear" x1="47.8693" y1="-15.153" x2="51.8521" y2="130.615" gradientUnits="userSpaceOnUse">
<stop stop-color="#00ABDE"/>
<stop offset="1" stop-color="#007ED8"/>
</linearGradient>
<linearGradient id="paint1_linear" x1="49.6404" y1="38.3321" x2="49.6404" y2="18.2725" gradientUnits="userSpaceOnUse">
<stop stop-color="#004DAE"/>
<stop offset="0.21" stop-color="#0061C4"/>
<stop offset="0.51" stop-color="#0078DD"/>
<stop offset="0.78" stop-color="#0086EC"/>
<stop offset="1" stop-color="#008BF1"/>
</linearGradient>
<linearGradient id="paint2_linear" x1="49.6396" y1="84.5906" x2="49.6396" y2="65.7626" gradientUnits="userSpaceOnUse">
<stop stop-color="#CCCCCC"/>
<stop offset="0.32" stop-color="#DFDFDF"/>
<stop offset="0.67" stop-color="#ECECEC"/>
<stop offset="1" stop-color="#F0F0F0"/>
</linearGradient>
<linearGradient id="paint3_linear" x1="49.6396" y1="78.1191" x2="49.6396" y2="72.2354" gradientUnits="userSpaceOnUse">
<stop stop-color="#CCCCCC"/>
<stop offset="1" stop-color="white"/>
</linearGradient>
<clipPath id="clip0">
<rect width="99.2799" height="99.28" fill="white"/>
</clipPath>
</defs>
</svg>
