<svg width="100" height="100" viewBox="0 0 100 100" fill="none" xmlns="http://www.w3.org/2000/svg">
<g clip-path="url(#clip0)">
<path d="M49.6394 96.4501C40.3812 96.4501 31.331 93.7047 23.6331 88.5612C15.9353 83.4176 9.9355 76.1069 6.39257 67.5535C2.84963 59.0001 1.92263 49.5882 3.72881 40.5079C5.53498 31.4277 9.9932 23.0869 16.5397 16.5404C23.0862 9.99394 31.4269 5.53571 40.5072 3.72954C49.5874 1.92337 58.9994 2.85036 67.5528 6.3933C76.1062 9.93624 83.4169 15.936 88.5605 23.6339C93.704 31.3317 96.4494 40.382 96.4494 49.6401C96.4498 55.7874 95.2393 61.8746 92.887 67.554C90.5348 73.2335 87.0868 78.3939 82.74 82.7407C78.3932 87.0875 73.2327 90.5355 67.5533 92.8878C61.8738 95.24 55.7867 96.4505 49.6394 96.4501V96.4501Z" fill="url(#paint0_linear)"/>
<path fill-rule="evenodd" clip-rule="evenodd" d="M95.54 49.64C95.54 58.7182 92.848 67.5924 87.8045 75.1407C82.7609 82.6889 75.5923 88.572 67.2052 92.0461C58.818 95.5201 49.5891 96.4291 40.6854 94.658C31.7816 92.887 23.603 88.5154 17.1838 82.0962C10.7646 75.677 6.39302 67.4984 4.62196 58.5946C2.85089 49.6909 3.75987 40.462 7.23393 32.0748C10.708 23.6877 16.5911 16.5191 24.1393 11.4755C31.6875 6.43198 40.5618 3.73999 49.64 3.73999C55.6677 3.73997 61.6363 4.92719 67.2052 7.23387C72.774 9.54056 77.834 12.9215 82.0963 17.1837C86.3585 21.446 89.7394 26.5059 92.0461 32.0748C94.3528 37.6436 95.54 43.6123 95.54 49.64V49.64ZM49.64 3.62732e-07C59.4579 3.62732e-07 69.0552 2.91134 77.2185 8.36585C85.3818 13.8204 91.7442 21.5731 95.5014 30.6436C99.2585 39.7141 100.242 49.6951 98.3262 59.3243C96.4108 68.9535 91.6831 77.7985 84.7408 84.7408C77.7985 91.6831 68.9535 96.4108 59.3243 98.3262C49.6951 100.242 39.7141 99.2585 30.6436 95.5014C21.5731 91.7442 13.8204 85.3818 8.36584 77.2185C2.91133 69.0552 -1.61629e-06 59.4579 3.61524e-07 49.64C-0.000786426 43.1209 1.28265 36.6656 3.77702 30.6427C6.27138 24.6197 9.92781 19.1471 14.5375 14.5375C19.1471 9.9278 24.6197 6.27138 30.6427 3.77701C36.6656 1.28265 43.121 -0.000787738 49.64 3.62732e-07V3.62732e-07Z" fill="#F2F1F0"/>
<path fill-rule="evenodd" clip-rule="evenodd" d="M92.7296 49.6401C92.7296 58.1625 90.2024 66.4935 85.4676 73.5796C80.7328 80.6657 74.0031 86.1886 66.1294 89.45C58.2557 92.7114 49.5918 93.5647 41.2331 91.9021C32.8745 90.2395 25.1966 86.1355 19.1703 80.1093C13.1441 74.083 9.04017 66.4051 7.37753 58.0465C5.7149 49.6879 6.56822 41.0239 9.8296 33.1502C13.091 25.2766 18.6139 18.5468 25.7 13.812C32.7862 9.07724 41.1172 6.55006 49.6396 6.55006C55.2983 6.54971 60.9017 7.66404 66.1298 9.82939C71.3579 11.9947 76.1082 15.1687 80.1096 19.1701C84.1109 23.1714 87.2849 27.9217 89.4502 33.1498C91.6156 38.3779 92.7299 43.9813 92.7296 49.6401ZM49.6396 2.81006C58.9017 2.81006 67.9558 5.55659 75.6569 10.7023C83.3581 15.8481 89.3604 23.1619 92.9049 31.719C96.4493 40.2761 97.3767 49.692 95.5697 58.7761C93.7628 67.8603 89.3027 76.2046 82.7534 82.7539C76.2041 89.3032 67.8598 93.7633 58.7757 95.5702C49.6915 97.3772 40.2756 96.4498 31.7185 92.9053C23.1614 89.3609 15.8476 83.3586 10.7018 75.6574C5.5561 67.9563 2.80957 58.9022 2.80957 49.6401C2.81076 37.2203 7.74501 25.3096 16.5271 16.5276C25.3091 7.7455 37.2198 2.81125 49.6396 2.81006V2.81006Z" fill="#0078D4"/>
<path fill-rule="evenodd" clip-rule="evenodd" d="M92.7296 49.6401C92.7296 58.1625 90.2024 66.4935 85.4676 73.5796C80.7328 80.6657 74.0031 86.1887 66.1294 89.4501C58.2557 92.7114 49.5918 93.5648 41.2331 91.9021C32.8745 90.2395 25.1966 86.1356 19.1703 80.1093C13.1441 74.0831 9.04017 66.4052 7.37753 58.0465C5.7149 49.6879 6.56822 41.0239 9.8296 33.1503C13.091 25.2766 18.6139 18.5469 25.7001 13.8121C32.7862 9.07728 41.1172 6.5501 49.6396 6.5501C55.2983 6.54975 60.9017 7.66408 66.1298 9.82943C71.3579 11.9948 76.1082 15.1688 80.1096 19.1701C84.1109 23.1714 87.2849 27.9218 89.4502 33.1499C91.6156 38.3779 92.7299 43.9813 92.7296 49.6401V49.6401ZM49.6396 2.8101C58.9017 2.8101 67.9558 5.55663 75.6569 10.7024C83.3581 15.8481 89.3604 23.162 92.9048 31.719C96.4493 40.2761 97.3767 49.692 95.5697 58.7762C93.7628 67.8603 89.3027 76.2046 82.7534 82.7539C76.2041 89.3032 67.8598 93.7633 58.7757 95.5703C49.6915 97.3772 40.2756 96.4498 31.7185 92.9054C23.1614 89.3609 15.8476 83.3586 10.7018 75.6575C5.5561 67.9563 2.80957 58.9022 2.80957 49.6401C2.81075 37.2204 7.74499 25.3097 16.5271 16.5276C25.3091 7.7455 37.2198 2.81125 49.6396 2.81006V2.8101Z" fill="#0078D4"/>
<path d="M43.7852 37.4106H19.6651C19.3024 37.4106 19.0083 37.7047 19.0083 38.0674V43.8886C19.0083 44.2513 19.3024 44.5454 19.6651 44.5454H43.7852C44.148 44.5454 44.442 44.2513 44.442 43.8886V38.0674C44.442 37.7047 44.148 37.4106 43.7852 37.4106Z" fill="white"/>
<path d="M43.7852 45.6489H19.6651C19.3024 45.6489 19.0083 45.943 19.0083 46.3057V52.1269C19.0083 52.4896 19.3024 52.7837 19.6651 52.7837H43.7852C44.148 52.7837 44.442 52.4896 44.442 52.1269V46.3057C44.442 45.943 44.148 45.6489 43.7852 45.6489Z" fill="#C3F1FF"/>
<path d="M43.7852 53.8872H19.6651C19.3024 53.8872 19.0083 54.1813 19.0083 54.544V60.3652C19.0083 60.7279 19.3024 61.0219 19.6651 61.0219H43.7852C44.148 61.0219 44.442 60.7279 44.442 60.3652V54.544C44.442 54.1813 44.148 53.8872 43.7852 53.8872Z" fill="#9CEBFF"/>
<path d="M22.3492 42.4376C23.1552 42.4376 23.8087 41.7841 23.8087 40.9781C23.8087 40.172 23.1552 39.5186 22.3492 39.5186C21.5431 39.5186 20.8896 40.172 20.8896 40.9781C20.8896 41.7841 21.5431 42.4376 22.3492 42.4376Z" fill="#9CEBFF"/>
<path d="M22.3492 50.6759C23.1552 50.6759 23.8087 50.0224 23.8087 49.2164C23.8087 48.4103 23.1552 47.7568 22.3492 47.7568C21.5431 47.7568 20.8896 48.4103 20.8896 49.2164C20.8896 50.0224 21.5431 50.6759 22.3492 50.6759Z" fill="white"/>
<path d="M22.3492 58.9142C23.1552 58.9142 23.8087 58.2607 23.8087 57.4546C23.8087 56.6486 23.1552 55.9951 22.3492 55.9951C21.5431 55.9951 20.8896 56.6486 20.8896 57.4546C20.8896 58.2607 21.5431 58.9142 22.3492 58.9142Z" fill="white"/>
<path d="M43.7852 62.2998H19.6651C19.3024 62.2998 19.0083 62.5939 19.0083 62.9566V68.7778C19.0083 69.1405 19.3024 69.4345 19.6651 69.4345H43.7852C44.148 69.4345 44.442 69.1405 44.442 68.7778V62.9566C44.442 62.5939 44.148 62.2998 43.7852 62.2998Z" fill="#0078D4"/>
<path d="M22.3492 67.3268C23.1552 67.3268 23.8087 66.6733 23.8087 65.8672C23.8087 65.0612 23.1552 64.4077 22.3492 64.4077C21.5431 64.4077 20.8896 65.0612 20.8896 65.8672C20.8896 66.6733 21.5431 67.3268 22.3492 67.3268Z" fill="white"/>
<path d="M79.6151 37.4106H55.4949C55.1322 37.4106 54.8381 37.7047 54.8381 38.0674V43.8886C54.8381 44.2513 55.1322 44.5454 55.4949 44.5454H79.6151C79.9778 44.5454 80.2719 44.2513 80.2719 43.8886V38.0674C80.2719 37.7047 79.9778 37.4106 79.6151 37.4106Z" fill="white"/>
<path d="M79.6151 45.6489H55.4949C55.1322 45.6489 54.8381 45.943 54.8381 46.3057V52.1269C54.8381 52.4896 55.1322 52.7837 55.4949 52.7837H79.6151C79.9778 52.7837 80.2719 52.4896 80.2719 52.1269V46.3057C80.2719 45.943 79.9778 45.6489 79.6151 45.6489Z" fill="#C3F1FF"/>
<path d="M79.6151 53.8872H55.4949C55.1322 53.8872 54.8381 54.1813 54.8381 54.544V60.3652C54.8381 60.7279 55.1322 61.0219 55.4949 61.0219H79.6151C79.9778 61.0219 80.2719 60.7279 80.2719 60.3652V54.544C80.2719 54.1813 79.9778 53.8872 79.6151 53.8872Z" fill="#9CEBFF"/>
<path d="M58.179 42.4376C58.9851 42.4376 59.6385 41.7841 59.6385 40.9781C59.6385 40.172 58.9851 39.5186 58.179 39.5186C57.3729 39.5186 56.7195 40.172 56.7195 40.9781C56.7195 41.7841 57.3729 42.4376 58.179 42.4376Z" fill="#9CEBFF"/>
<path d="M58.179 50.6759C58.9851 50.6759 59.6385 50.0224 59.6385 49.2164C59.6385 48.4103 58.9851 47.7568 58.179 47.7568C57.3729 47.7568 56.7195 48.4103 56.7195 49.2164C56.7195 50.0224 57.3729 50.6759 58.179 50.6759Z" fill="white"/>
<path d="M58.179 58.9142C58.9851 58.9142 59.6385 58.2607 59.6385 57.4546C59.6385 56.6486 58.9851 55.9951 58.179 55.9951C57.3729 55.9951 56.7195 56.6486 56.7195 57.4546C56.7195 58.2607 57.3729 58.9142 58.179 58.9142Z" fill="white"/>
<path d="M79.6151 62.2998H55.4949C55.1322 62.2998 54.8381 62.5939 54.8381 62.9566V68.7778C54.8381 69.1405 55.1322 69.4345 55.4949 69.4345H79.6151C79.9778 69.4345 80.2719 69.1405 80.2719 68.7778V62.9566C80.2719 62.5939 79.9778 62.2998 79.6151 62.2998Z" fill="#0078D4"/>
<path d="M58.179 67.3268C58.9851 67.3268 59.6385 66.6733 59.6385 65.8672C59.6385 65.0612 58.9851 64.4077 58.179 64.4077C57.3729 64.4077 56.7195 65.0612 56.7195 65.8672C56.7195 66.6733 57.3729 67.3268 58.179 67.3268Z" fill="white"/>
<path d="M44.4421 40.978H47.2266C47.8667 40.978 48.4806 41.2323 48.9333 41.6849C49.3859 42.1376 49.6402 42.7515 49.6402 43.3916V55.0409C49.6402 55.3579 49.7026 55.6717 49.8239 55.9646C49.9452 56.2574 50.123 56.5235 50.3471 56.7476C50.5712 56.9717 50.8373 57.1495 51.1301 57.2708C51.4229 57.3921 51.7368 57.4545 52.0537 57.4545H54.8382" stroke="white" stroke-width="0.5" stroke-miterlimit="10"/>
<path d="M54.8382 40.978H52.0537C51.7368 40.978 51.4229 41.0405 51.1301 41.1617C50.8373 41.283 50.5712 41.4608 50.3471 41.6849C50.123 41.9091 49.9452 42.1751 49.8239 42.4679C49.7026 42.7608 49.6402 43.0746 49.6402 43.3916V63.2006C49.6402 63.8408 49.3859 64.4546 48.9333 64.9073C48.4806 65.3599 47.8667 65.6142 47.2266 65.6142H44.4421" stroke="white" stroke-width="0.5" stroke-miterlimit="10"/>
<path d="M54.8382 49.1782H44.4421" stroke="white" stroke-width="0.5" stroke-miterlimit="10"/>
<path d="M44.4421 57.4546H47.2266C47.5436 57.4546 47.8574 57.517 48.1502 57.6383C48.4431 57.7596 48.7091 57.9374 48.9333 58.1615C49.1574 58.3856 49.3351 58.6517 49.4564 58.9445C49.5777 59.2373 49.6402 59.5512 49.6402 59.8681V63.4535C49.6402 63.7704 49.7026 64.0843 49.8239 64.3771C49.9452 64.6699 50.123 64.936 50.3471 65.1601C50.5712 65.3842 50.8373 65.562 51.1301 65.6833C51.4229 65.8046 51.7368 65.867 52.0537 65.867H54.8382" stroke="white" stroke-width="0.5" stroke-miterlimit="10"/>
<path d="M33.5391 22.9795C34.7368 22.98 35.9187 23.2528 36.9954 23.7774C38.0722 24.302 39.0155 25.0646 39.754 26.0075C40.4926 26.9505 41.007 28.049 41.2585 29.22C41.5099 30.391 41.4917 31.6039 41.2053 32.7669C40.9189 33.9299 40.3718 35.0125 39.6053 35.9328C38.8388 36.8532 37.8731 37.5872 36.7811 38.0793C35.6892 38.5714 34.4996 38.8087 33.3024 38.7733C32.1052 38.7379 30.9317 38.4307 29.8708 37.8749L26.4819 38.7572C26.3687 38.7867 26.2496 38.7861 26.1367 38.7554C26.0237 38.7248 25.9207 38.6651 25.838 38.5823C25.7552 38.4996 25.6955 38.3966 25.6648 38.2836C25.6341 38.1707 25.6334 38.0517 25.6629 37.9384L26.5447 34.5511C25.9131 33.3471 25.6028 32.0005 25.644 30.6415C25.6852 29.2825 26.0763 27.9571 26.7796 26.7935C27.483 25.6299 28.4746 24.6675 29.6588 23.9993C30.8429 23.3312 32.1794 22.9799 33.5391 22.9795V22.9795Z" fill="url(#paint1_linear)"/>
<path d="M34.5277 31.6683H30.972L30.8916 31.6737C30.7498 31.6932 30.6198 31.7633 30.5257 31.8713C30.4316 31.9792 30.3798 32.1175 30.3798 32.2607C30.3798 32.4038 30.4316 32.5422 30.5257 32.6501C30.6198 32.758 30.7498 32.8282 30.8916 32.8477L30.972 32.853H34.5277L34.6081 32.8477C34.75 32.8282 34.8799 32.758 34.974 32.6501C35.0681 32.5422 35.12 32.4038 35.12 32.2607C35.12 32.1175 35.0681 31.9792 34.974 31.8713C34.8799 31.7633 34.75 31.6932 34.6081 31.6737L34.5277 31.6683ZM36.1061 28.9038H30.972L30.8916 28.9092C30.7497 28.9287 30.6197 28.9989 30.5256 29.1068C30.4315 29.2147 30.3796 29.353 30.3796 29.4962C30.3796 29.6394 30.4315 29.7778 30.5256 29.8857C30.6197 29.9936 30.7497 30.0638 30.8916 30.0832L30.972 30.0886H36.1061L36.1865 30.0832C36.3283 30.0638 36.4584 29.9936 36.5525 29.8857C36.6466 29.7778 36.6984 29.6394 36.6984 29.4962C36.6984 29.353 36.6466 29.2147 36.5525 29.1068C36.4584 28.9989 36.3283 28.9287 36.1865 28.9092L36.1061 28.9038Z" fill="white"/>
<path d="M68.2981 22.9795C69.4958 22.98 70.6777 23.2528 71.7544 23.7774C72.8312 24.302 73.7745 25.0646 74.513 26.0075C75.2516 26.9504 75.7661 28.0489 76.0175 29.22C76.2689 30.391 76.2508 31.6039 75.9644 32.7669C75.678 33.9298 75.1308 35.0125 74.3643 35.9328C73.5979 36.8532 72.6321 37.5872 71.5402 38.0793C70.4482 38.5714 69.2586 38.8087 68.0614 38.7733C66.8642 38.7379 65.6908 38.4307 64.6298 37.8749L61.241 38.7572C61.1277 38.7867 61.0087 38.7861 60.8957 38.7554C60.7827 38.7248 60.6798 38.6651 60.597 38.5823C60.5142 38.4996 60.4545 38.3966 60.4238 38.2836C60.3931 38.1707 60.3925 38.0517 60.422 37.9384L61.3037 34.5511C60.6721 33.3471 60.3619 32.0005 60.403 30.6415C60.4442 29.2825 60.8353 27.9571 61.5387 26.7935C62.242 25.6299 63.2337 24.6675 64.4178 23.9993C65.6019 23.3312 66.9384 22.9799 68.2981 22.9795V22.9795ZM69.2867 31.668H65.7311L65.6507 31.6734C65.5088 31.6929 65.3789 31.763 65.2848 31.871C65.1907 31.9789 65.1388 32.1172 65.1388 32.2604C65.1388 32.4035 65.1907 32.5418 65.2848 32.6498C65.3789 32.7577 65.5088 32.8279 65.6507 32.8474L65.7311 32.8527H69.2868L69.3672 32.8474C69.509 32.8279 69.639 32.7577 69.7331 32.6498C69.8272 32.5418 69.879 32.4035 69.879 32.2604C69.879 32.1172 69.8272 31.9789 69.7331 31.871C69.639 31.763 69.509 31.6929 69.3672 31.6734L69.2867 31.668ZM70.8651 28.9035H65.7311L65.6507 28.9089C65.5088 28.9283 65.3788 28.9985 65.2847 29.1064C65.1906 29.2143 65.1387 29.3527 65.1387 29.4959C65.1387 29.6391 65.1906 29.7774 65.2847 29.8853C65.3788 29.9932 65.5088 30.0634 65.6507 30.0829L65.7311 30.0882H70.8652L70.9456 30.0829C71.0874 30.0634 71.2174 29.9932 71.3116 29.8853C71.4057 29.7774 71.4575 29.6391 71.4575 29.4959C71.4575 29.3527 71.4057 29.2143 71.3116 29.1064C71.2174 28.9985 71.0874 28.9283 70.9456 28.9089L70.8651 28.9035Z" fill="url(#paint2_linear)"/>
</g>
<defs>
<linearGradient id="paint0_linear" x1="47.869" y1="-15.153" x2="51.8518" y2="130.615" gradientUnits="userSpaceOnUse">
<stop stop-color="#00ABDE"/>
<stop offset="1" stop-color="#007ED8"/>
</linearGradient>
<linearGradient id="paint1_linear" x1="33.539" y1="38.7791" x2="33.539" y2="22.9795" gradientUnits="userSpaceOnUse">
<stop stop-color="#004DAE"/>
<stop offset="0.21" stop-color="#0061C4"/>
<stop offset="0.51" stop-color="#0078DD"/>
<stop offset="0.78" stop-color="#0086EC"/>
<stop offset="1" stop-color="#008BF1"/>
</linearGradient>
<linearGradient id="paint2_linear" x1="68.2981" y1="38.7791" x2="68.2981" y2="22.9512" gradientUnits="userSpaceOnUse">
<stop stop-color="#003067"/>
<stop offset="0.2" stop-color="#003F7C"/>
<stop offset="0.47" stop-color="#004F90"/>
<stop offset="0.74" stop-color="#00589D"/>
<stop offset="1" stop-color="#005BA1"/>
</linearGradient>
<clipPath id="clip0">
<rect width="99.2799" height="99.28" fill="white"/>
</clipPath>
</defs>
</svg>
