<svg width="103" height="103" viewBox="0 0 103 103" fill="none" xmlns="http://www.w3.org/2000/svg">
<path d="M51.0378 97.8231C25.1878 97.8231 4.22778 76.8731 4.22778 51.0131C4.22778 25.1531 25.1878 4.20312 51.0378 4.20312C76.8878 4.20312 97.8478 25.1631 97.8478 51.0131C97.8478 76.8631 76.8878 97.8231 51.0378 97.8231Z" fill="url(#paint0_linear)"/>
<path fill-rule="evenodd" clip-rule="evenodd" d="M96.938 51.013C96.938 76.363 76.3879 96.913 51.0379 96.913C25.6879 96.913 5.13795 76.363 5.13795 51.013C5.13795 25.663 25.6879 5.11305 51.0379 5.11305C76.3879 5.11305 96.938 25.663 96.938 51.013ZM51.0379 1.37305C78.4579 1.37305 100.678 23.593 100.678 51.013C100.678 78.433 78.4479 100.653 51.0379 100.653C23.6179 100.653 1.39795 78.423 1.39795 51.013C1.39795 23.593 23.6179 1.37305 51.0379 1.37305Z" fill="#F2F1F0"/>
<path fill-rule="evenodd" clip-rule="evenodd" d="M94.1278 51.0126C94.1278 74.8126 74.8378 94.1026 51.0378 94.1026C27.2378 94.1026 7.94776 74.8126 7.94776 51.0126C7.94776 27.2126 27.2378 7.92262 51.0378 7.92262C74.8378 7.92262 94.1278 27.2126 94.1278 51.0126ZM51.0378 4.18262C76.8978 4.18262 97.8678 25.1526 97.8678 51.0126C97.8678 76.8726 76.8978 97.8426 51.0378 97.8426C25.1778 97.8426 4.20776 76.8726 4.20776 51.0126C4.20776 25.1526 25.1678 4.18262 51.0378 4.18262Z" fill="url(#paint1_linear)"/>
<path fill-rule="evenodd" clip-rule="evenodd" d="M18.0225 54.875H27.1203V55.675H18.0225V54.875Z" fill="white"/>
<path fill-rule="evenodd" clip-rule="evenodd" d="M18.0225 44.5576H27.1203V45.3576H18.0225V44.5576Z" fill="white"/>
<path fill-rule="evenodd" clip-rule="evenodd" d="M17.6226 34.6324C17.6226 34.4115 17.8016 34.2324 18.0226 34.2324H27.1204V35.0324H18.4226V65.1739H27.1116V65.9739H18.0226C17.8016 65.9739 17.6226 65.7949 17.6226 65.5739V34.6324Z" fill="white"/>
<path fill-rule="evenodd" clip-rule="evenodd" d="M11.2124 49.9082H18.049V50.9082H11.2124V49.9082Z" fill="white"/>
<path fill-rule="evenodd" clip-rule="evenodd" d="M39.124 45.34H30.0261V44.54H39.124V45.34Z" fill="white"/>
<path fill-rule="evenodd" clip-rule="evenodd" d="M39.124 55.6486H30.0261V54.8486H39.124V55.6486Z" fill="white"/>
<path fill-rule="evenodd" clip-rule="evenodd" d="M30.0261 34.2324H39.124C39.3449 34.2324 39.524 34.4115 39.524 34.6324V65.5739C39.524 65.7949 39.3449 65.9739 39.124 65.9739H30.0261V65.1739H38.724V35.0324H30.0261V34.2324Z" fill="white"/>
<path fill-rule="evenodd" clip-rule="evenodd" d="M48.8754 50.2988H39.0974V49.2988H48.8754V50.2988Z" fill="white"/>
<path opacity="0.15" d="M33.5242 30.8428H23.2693C22.6421 30.8428 22.1387 31.3462 22.1387 31.9734V38.2535C22.1387 38.8807 22.6421 39.3842 23.2693 39.3842H33.5331C34.1602 39.393 34.6637 38.8895 34.6637 38.2535V31.9822C34.6637 31.3374 34.1514 30.8428 33.5242 30.8428Z" fill="#1F1D20"/>
<path opacity="0.15" d="M33.5242 51.7412H23.2693C22.6421 51.7412 22.1387 52.2447 22.1387 52.8718V59.1608C22.1387 59.788 22.6421 60.2914 23.2693 60.2914H33.5331C34.1602 60.2914 34.6637 59.788 34.6637 59.1608V52.8895C34.6637 52.2447 34.1514 51.7412 33.5242 51.7412Z" fill="#1F1D20"/>
<path opacity="0.15" d="M33.5242 41.2656H23.2693C22.6421 41.2656 22.1387 41.7691 22.1387 42.3962V48.6764C22.1387 49.3035 22.6421 49.807 23.2693 49.807H33.5331C34.1602 49.8158 34.6637 49.3124 34.6637 48.6764V42.3962C34.6637 41.7779 34.1514 41.2656 33.5242 41.2656Z" fill="#1F1D20"/>
<path opacity="0.15" d="M33.5242 62.1641H23.2693C22.6421 62.1641 22.1387 62.6675 22.1387 63.2947V69.5837C22.1387 70.2108 22.6421 70.7143 23.2693 70.7143H33.5331C34.1602 70.7143 34.6637 70.2108 34.6637 69.5837V63.3035C34.6637 62.6852 34.1514 62.1641 33.5242 62.1641Z" fill="#1F1D20"/>
<path d="M33.5242 30.0918H23.2693C22.6421 30.0918 22.1387 30.5953 22.1387 31.2224V37.5026C22.1387 38.1297 22.6421 38.6332 23.2693 38.6332H33.5331C34.1602 38.642 34.6637 38.1385 34.6637 37.5026V31.2312C34.6637 30.5953 34.1514 30.0918 33.5242 30.0918Z" fill="#84ECFD"/>
<path d="M33.5242 50.9902H23.2693C22.6421 50.9902 22.1387 51.4937 22.1387 52.1208V58.4098C22.1387 59.037 22.6421 59.5404 23.2693 59.5404H33.5331C34.1602 59.5404 34.6637 59.037 34.6637 58.4098V52.1385C34.6637 51.4937 34.1514 50.9902 33.5242 50.9902Z" fill="#32B0E7"/>
<path d="M33.5242 40.5322H23.2693C22.6421 40.5322 22.1387 41.0357 22.1387 41.6628V47.943C22.1387 48.5701 22.6421 49.0736 23.2693 49.0736H33.5331C34.1602 49.0824 34.6637 48.579 34.6637 47.943V41.6628C34.6637 41.0357 34.1514 40.5322 33.5242 40.5322Z" fill="#50E6FF"/>
<path d="M33.5242 61.4219H23.2693C22.6421 61.4219 22.1387 61.9253 22.1387 62.5525V68.8415C22.1387 69.4686 22.6421 69.9721 23.2693 69.9721H33.5331C34.1602 69.9721 34.6637 69.4686 34.6637 68.8415V62.5613C34.6637 61.943 34.1514 61.4219 33.5242 61.4219Z" fill="#185A97"/>
<path d="M44.6541 46.918L49.9891 50.0006L44.6541 53.0745V46.918Z" fill="white"/>
<path opacity="0.15" d="M82.3566 30.6445H52.5259C51.882 30.6445 51.3616 31.1649 51.3616 31.8088V70.7335C51.3616 71.3774 51.882 71.8978 52.5259 71.8978H82.3566C83.0005 71.8978 83.5209 71.3774 83.5209 70.7335V31.8088C83.5121 31.1649 82.9917 30.6445 82.3566 30.6445Z" fill="#1F1D20"/>
<path d="M82.3566 29.207H52.5259C51.882 29.207 51.3616 29.7274 51.3616 30.3713V69.296C51.3616 69.9399 51.882 70.4603 52.5259 70.4603H82.3566C83.0005 70.4603 83.5209 69.9399 83.5209 69.296V30.3713C83.5121 29.7274 82.9917 29.207 82.3566 29.207Z" fill="#F2F2F2"/>
<path fill-rule="evenodd" clip-rule="evenodd" d="M69.4526 23.8444C70.5728 24.4353 71.2343 25.6349 71.2343 26.8962V27.205C71.2343 27.3196 71.2255 27.4255 71.2166 27.5401H73.6423C74.3655 27.5401 75.0447 27.9018 75.4064 28.528C76.4295 30.3186 75.1682 32.1444 73.4747 32.1444H61.2407C60.5174 32.1444 59.8383 31.7828 59.4766 31.1565C58.4535 29.366 59.7148 27.5401 61.4083 27.5401H63.6663C63.6575 27.4343 63.6575 27.3196 63.6575 27.205V27.1079C63.6575 24.3736 66.5594 22.3184 69.4526 23.8444Z" fill="#1F56A3"/>
<path d="M67.4411 28.8803C68.3033 28.8803 69.0023 28.1813 69.0023 27.319C69.0023 26.4568 68.3033 25.7578 67.4411 25.7578C66.5789 25.7578 65.8799 26.4568 65.8799 27.319C65.8799 28.1813 66.5789 28.8803 67.4411 28.8803Z" fill="#F2F2F2"/>
<path opacity="0.4" d="M79.1935 57.1547L67.6604 63.8924L56.1272 57.1547L67.6579 50.4512L79.1935 57.1547Z" fill="#1F1D20"/>
<path d="M79.1934 42.457V55.8204L67.687 62.558V49.163L79.1934 42.457Z" fill="#32B0E7"/>
<path d="M79.1935 42.4565L67.6871 49.1649L56.1272 42.4565L67.6579 35.7529L79.1935 42.4565Z" fill="#45CAF2"/>
<path d="M67.6871 49.163V62.558L56.1272 55.818V42.457L67.6871 49.163Z" fill="#0078D4"/>
<path d="M56.1272 55.8181L67.6871 49.1631V62.5581L56.1272 55.8181Z" fill="#185A97"/>
<path d="M79.1934 55.8205L67.687 49.1631V62.5581L79.1934 55.8205Z" fill="#156AB3"/>
<path opacity="0.15" d="M86.6162 72.2442H68.3472C67.8352 72.2442 67.4243 71.8266 67.4243 71.3213V54.4131C67.4243 53.9012 67.8352 53.4902 68.3472 53.4902H86.6162C87.1281 53.4902 87.5391 53.9012 87.5391 54.4131V71.3146C87.5391 71.8266 87.1214 72.2442 86.6162 72.2442Z" fill="#1F1D20"/>
<path d="M86.6162 72.2376H68.3472C67.8352 72.2376 67.4243 71.8267 67.4243 71.3147V54.42C67.4243 53.908 67.8352 53.4971 68.3472 53.4971H86.6162C87.1281 53.4971 87.5391 53.908 87.5391 54.42V71.3214C87.5391 71.8267 87.1214 72.2376 86.6162 72.2376Z" fill="white"/>
<path d="M81.4831 58.9605C81.4831 58.5429 81.1463 58.2061 80.7287 58.2061H71.6683C71.2506 58.2061 70.9138 58.5429 70.9138 58.9605C70.9138 59.3782 71.2506 59.715 71.6683 59.715H80.7354C81.1531 59.7083 81.4831 59.3782 81.4831 58.9605Z" fill="url(#paint2_linear)"/>
<path d="M84.0496 58.9605C84.0496 58.5429 83.7128 58.2061 83.2952 58.2061H80.8297C80.412 58.2061 80.6815 58.5429 80.6815 58.9605C80.6815 59.3782 80.4188 59.715 80.8297 59.715H83.3019C83.7061 59.7083 84.0496 59.3782 84.0496 58.9605Z" fill="#9B9BA0"/>
<path d="M79.6104 58.9602C79.6104 59.7888 80.2772 60.4624 81.1126 60.4624C81.9479 60.4624 82.6148 59.7955 82.6148 58.9602C82.6148 58.1316 81.9344 57.458 81.1058 57.458C80.284 57.4715 79.6104 58.1316 79.6104 58.9602Z" fill="#50E6FF"/>
<path d="M78.701 62.7525C78.701 62.3349 78.3642 61.998 77.9466 61.998H71.6683C71.2506 61.998 70.9138 62.3349 70.9138 62.7525C70.9138 63.1702 71.2506 63.507 71.6683 63.507H77.96C78.371 63.5003 78.701 63.1702 78.701 62.7525Z" fill="url(#paint3_linear)"/>
<path d="M84.0497 62.7525C84.0497 62.3349 83.7129 61.998 83.2952 61.998H78.4046C77.987 61.998 77.6501 62.3349 77.6501 62.7525C77.6501 63.1702 77.987 63.507 78.4046 63.507H83.3019C83.7061 63.5003 84.0497 63.1702 84.0497 62.7525Z" fill="#9B9BA0"/>
<path d="M76.3298 62.7522C76.3298 63.5808 76.9967 64.2544 77.832 64.2544C78.6673 64.2544 79.3342 63.5875 79.3342 62.7522C79.3342 61.9236 78.6673 61.25 77.832 61.25C76.9967 61.25 76.3298 61.9236 76.3298 62.7522Z" fill="#35AFE4"/>
<path d="M75.2049 66.774C75.2049 66.3563 74.8681 66.0195 74.4504 66.0195H71.6683C71.2506 66.0263 70.9138 66.3563 70.9138 66.774C70.9138 67.1917 71.2506 67.5285 71.6683 67.5285H74.4504C74.8681 67.515 75.2049 67.1849 75.2049 66.774Z" fill="url(#paint4_linear)"/>
<path d="M84.0498 66.774C84.0498 66.3563 83.713 66.0195 83.2953 66.0195H75.1915C74.7738 66.0195 74.437 66.3563 74.437 66.774C74.437 67.1917 74.7738 67.5285 75.1915 67.5285H83.2953C83.7062 67.515 84.0498 67.1849 84.0498 66.774Z" fill="#9B9BA0"/>
<path d="M73.2378 66.7747C73.2378 67.6032 73.9047 68.2769 74.74 68.2769C75.5686 68.2769 76.2422 67.61 76.2422 66.7747C76.2422 65.9461 75.5753 65.2725 74.74 65.2725C73.9047 65.2725 73.2378 65.9461 73.2378 66.7747Z" fill="#2E76BC"/>
<defs>
<linearGradient id="paint0_linear" x1="49.2639" y1="-13.7764" x2="53.2459" y2="131.994" gradientUnits="userSpaceOnUse">
<stop stop-color="#00ABDE"/>
<stop offset="1" stop-color="#007ED8"/>
</linearGradient>
<linearGradient id="paint1_linear" x1="2.46816" y1="-20.61" x2="97.9957" y2="120.271" gradientUnits="userSpaceOnUse">
<stop stop-color="#007ED8"/>
<stop offset="0.7065" stop-color="#002D4C"/>
</linearGradient>
<linearGradient id="paint2_linear" x1="75.8958" y1="58.1088" x2="82.0931" y2="75.5827" gradientUnits="userSpaceOnUse">
<stop stop-color="#15548F"/>
<stop offset="0.4179" stop-color="#243A5E"/>
<stop offset="0.9677" stop-color="#1A2C45"/>
</linearGradient>
<linearGradient id="paint3_linear" x1="73.7673" y1="59.8236" x2="78.6922" y2="73.7096" gradientUnits="userSpaceOnUse">
<stop stop-color="#15548F"/>
<stop offset="0.4179" stop-color="#243A5E"/>
<stop offset="0.9677" stop-color="#1A2C45"/>
</linearGradient>
<linearGradient id="paint4_linear" x1="71.7868" y1="63.1797" x2="75.1135" y2="72.5592" gradientUnits="userSpaceOnUse">
<stop stop-color="#15548F"/>
<stop offset="0.4179" stop-color="#243A5E"/>
<stop offset="0.9677" stop-color="#1A2C45"/>
</linearGradient>
</defs>
</svg>
