<?xml version="1.0" encoding="UTF-8"?>
<svg width="100px" height="100px" viewBox="0 0 100 100" version="1.1" xmlns="http://www.w3.org/2000/svg" xmlns:xlink="http://www.w3.org/1999/xlink">
    <!-- Generator: Sketch 52.6 (67491) - http://www.bohemiancoding.com/sketch -->
    <title>M365 SFA Generalist/meet-your-compliance-obligations-with-microsoft-365</title>
    <desc>Created with Sketch.</desc>
    <defs>
        <rect id="path-1" x="0" y="0" width="96" height="96" rx="48"></rect>
        <filter x="-8.2%" y="-6.2%" width="116.3%" height="112.5%" filterUnits="objectBoundingBox" id="filter-3">
            <feOffset dx="0" dy="2" in="SourceAlpha" result="shadowOffsetOuter1"></feOffset>
            <feColorMatrix values="0 0 0 0 0   0 0 0 0 0   0 0 0 0 0  0 0 0 0.0964956975 0" type="matrix" in="shadowOffsetOuter1" result="shadowMatrixOuter1"></feColorMatrix>
            <feMerge>
                <feMergeNode in="shadowMatrixOuter1"></feMergeNode>
                <feMergeNode in="SourceGraphic"></feMergeNode>
            </feMerge>
        </filter>
    </defs>
    <g id="Badges" stroke="none" stroke-width="1" fill="none" fill-rule="evenodd">
        <g id="M365-SFA-Generalist-1" transform="translate(-50.000000, -1060.000000)">
            <g id="M365-SFA-Generalist/meet-your-compliance-obligations-with-microsoft-365" transform="translate(50.000000, 1060.000000)">
                <g id="Mask" transform="translate(2.000000, 2.000000)">
                    <mask id="mask-2" fill="white">
                        <use xlink:href="#path-1"></use>
                    </mask>
                    <use id="BG" fill="#55A2FF" xlink:href="#path-1"></use>
                    <g id="Clipboard" filter="url(#filter-3)" mask="url(#mask-2)">
                        <g transform="translate(23.500000, 14.000000)">
                            <path d="M4.27393336,64 C2.07393336,64 0.273933363,62.2 0.273933363,60 L0.273933363,10 C0.273933363,7.8 2.07393336,6 4.27393336,6 L44.2739334,6 C46.4739334,6 48.2739334,7.8 48.2739334,10 L48.2739334,60 C48.2739334,62.2 46.4739334,64 44.2739334,64 L4.27393336,64" id="Fill-18" fill="#30404D" fill-rule="evenodd"></path>
                            <path d="M44.2739334,6 L24.2739334,6 L24.2739334,64 L44.2739334,64 C46.4739334,64 48.2739334,62.2 48.2739334,60 L48.2739334,10 C48.2739334,7.8 46.4739334,6 44.2739334,6" id="Fill-19" fill="#182A37" fill-rule="evenodd"></path>
                            <path d="M3.27393336,59 L3.27393336,11 C3.27393336,9.899 4.17393336,9 5.27393336,9 L43.2739334,9 C44.3739334,9 45.2739334,9.899 45.2739334,11 L45.2739334,59 C45.2739334,60.101 44.3739334,61 43.2739334,61 L5.27393336,61 C4.17393336,61 3.27393336,60.101 3.27393336,59 Z" id="Fill-20" fill="#E1E4E1" fill-rule="evenodd"></path>
                            <polygon id="Fill-26" fill="#182A37" fill-rule="evenodd" points="13.2739334 9 14.2739334 9 14.2739334 6 13.2739334 6"></polygon>
                            <path d="M12.6041291,55.4478722 C9.65848809,55.4478722 7.27079578,53.0597697 7.27079578,50.1145389 C7.27079578,47.1693081 9.65848809,44.7812056 12.6041291,44.7812056 C15.5497701,44.7812056 17.9374625,47.1693081 17.9374625,50.1145389 C17.9374625,53.0597697 15.5497701,55.4478722 12.6041291,55.4478722 Z" id="Fill-25" fill="#C5CCCD" fill-rule="evenodd"></path>
                            <g id="Group-70" stroke-width="1" fill="none" fill-rule="evenodd" transform="translate(7.000000, 30.500000)">
                                <path d="M5.60412912,10.9478722 C2.65848809,10.9478722 0.270795783,8.55976967 0.270795783,5.6145389 C0.270795783,2.66930814 2.65848809,0.281205571 5.60412912,0.281205571 C8.54977014,0.281205571 10.9374625,2.66930814 10.9374625,5.6145389 C10.9374625,8.55976967 8.54977014,10.9478722 5.60412912,10.9478722 Z" id="Fill-25" fill="#72C472"></path>
                                <path d="M8.05409032,4.13513136 C7.79355819,3.87478718 7.37090235,3.87478718 7.11070381,4.13513136 L4.91169254,6.33255626 L4.11741981,5.54585681 C4.09840531,5.51918903 4.07905721,5.49252126 4.05470529,5.46852026 C3.79417316,5.20817607 3.37151733,5.20817607 3.11131879,5.46852026 C2.85312177,5.72553096 2.85145383,6.14221499 3.10431344,6.40322587 L3.09630733,6.4112262 L4.44200082,7.74461509 C4.70253295,8.00495927 5.12518878,8.00495927 5.38572091,7.74461509 L8.05208879,5.07950405 C8.05275597,5.0791707 8.05342314,5.078504 8.05409032,5.07783731 C8.31462245,4.81749313 8.31462245,4.39480885 8.05409032,4.13513136" id="Fill-26" fill="#FFFFFF"></path>
                            </g>
                            <g id="Group-70" stroke-width="1" fill="none" fill-rule="evenodd" transform="translate(7.000000, 16.500000)">
                                <path d="M5.60412912,10.9478722 C2.65848809,10.9478722 0.270795783,8.55976967 0.270795783,5.6145389 C0.270795783,2.66930814 2.65848809,0.281205571 5.60412912,0.281205571 C8.54977014,0.281205571 10.9374625,2.66930814 10.9374625,5.6145389 C10.9374625,8.55976967 8.54977014,10.9478722 5.60412912,10.9478722 Z" id="Fill-25" fill="#72C472"></path>
                                <path d="M8.05409032,4.13513136 C7.79355819,3.87478718 7.37090235,3.87478718 7.11070381,4.13513136 L4.91169254,6.33255626 L4.11741981,5.54585681 C4.09840531,5.51918903 4.07905721,5.49252126 4.05470529,5.46852026 C3.79417316,5.20817607 3.37151733,5.20817607 3.11131879,5.46852026 C2.85312177,5.72553096 2.85145383,6.14221499 3.10431344,6.40322587 L3.09630733,6.4112262 L4.44200082,7.74461509 C4.70253295,8.00495927 5.12518878,8.00495927 5.38572091,7.74461509 L8.05208879,5.07950405 C8.05275597,5.0791707 8.05342314,5.078504 8.05409032,5.07783731 C8.31462245,4.81749313 8.31462245,4.39480885 8.05409032,4.13513136" id="Fill-26" fill="#FFFFFF"></path>
                            </g>
                            <rect id="Rectangle" fill="#C5CCCD" fill-rule="nonzero" x="22" y="18" width="19" height="4" rx="2"></rect>
                            <rect id="Rectangle" fill="#C5CCCD" fill-rule="nonzero" x="22" y="34" width="17" height="4" rx="2"></rect>
                            <rect id="Rectangle" fill="#C5CCCD" fill-rule="nonzero" x="22" y="26" width="19" height="4" rx="2"></rect>
                            <rect id="Rectangle" fill="#C5CCCD" fill-rule="nonzero" x="22" y="42" width="19" height="4" rx="2"></rect>
                            <rect id="Rectangle" fill="#C5CCCD" fill-rule="nonzero" x="22" y="50" width="14" height="4" rx="2"></rect>
                            <g id="Top" stroke-width="1" fill="none" fill-rule="evenodd" transform="translate(14.272933, 0.000000)">
                                <path d="M19.001,11 L1.001,11 C0.451,11 0.001,10.55 0.001,10 L0.001,11 C0.001,11.55 0.451,12 1.001,12 L19.001,12 C19.551,12 20.001,11.55 20.001,11 L20.001,10 C20.001,10.55 19.551,11 19.001,11" id="Fill-22" fill="#546670"></path>
                                <path d="M10.001,2 C11.104,2 12.001,2.897 12.001,4 L8.001,4 C8.001,2.897 8.897,2 10.001,2 Z M19.001,4 L14.001,4 C14.001,1.791 12.21,0 10.001,0 C7.792,0 6.001,1.791 6.001,4 L1.001,4 C0.451,4 0.001,4.45 0.001,5 L0.001,10 C0.001,10.55 0.451,11 1.001,11 L19.001,11 C19.551,11 20.001,10.55 20.001,10 L20.001,5 C20.001,4.45 19.551,4 19.001,4 Z" id="Fill-24" fill="#ADBDC4"></path>
                                <path d="M20.001,10 L20.001,5 C20.001,4.45 19.551,4 19.001,4 L15.001,4 L12.001,11 L19.001,11 C19.551,11 20.001,10.55 20.001,10" id="Fill-33" fill="#8BA6B1"></path>
                                <path d="M10.686,0.069 L9.852,2.015 C9.902,2.011 9.95,2 10.001,2 C11.104,2 12.001,2.897 12.001,4 L9.001,4 L6.001,11 L10.001,11 L13.676,2.424 C13.151,1.202 12.033,0.303 10.686,0.069" id="Fill-34" fill="#8BA6B1"></path>
                            </g>
                        </g>
                    </g>
                </g>
                <g id="Azure-Border" stroke="#0078D4" stroke-width="4">
                    <rect x="2" y="2" width="96" height="96" rx="48"></rect>
                </g>
            </g>
        </g>
    </g>
</svg>