<?xml version="1.0" encoding="UTF-8"?>
<svg width="100px" height="100px" viewBox="0 0 100 100" version="1.1" xmlns="http://www.w3.org/2000/svg" xmlns:xlink="http://www.w3.org/1999/xlink">
    <!-- Generator: Sketch 53.2 (72643) - https://sketchapp.com -->
    <title>M365 Fundamentals/introduction-to-microsoft-365-security-and-compliance</title>
    <desc>Created with Sketch.</desc>
    <defs>
        <rect id="path-1" x="0" y="0" width="96" height="96" rx="48"></rect>
        <filter x="-7.8%" y="-6.8%" width="115.7%" height="113.6%" filterUnits="objectBoundingBox" id="filter-3">
            <feOffset dx="0" dy="2" in="SourceAlpha" result="shadowOffsetOuter1"></feOffset>
            <feColorMatrix values="0 0 0 0 0   0 0 0 0 0   0 0 0 0 0  0 0 0 0.102921196 0" type="matrix" in="shadowOffsetOuter1" result="shadowMatrixOuter1"></feColorMatrix>
            <feMerge>
                <feMergeNode in="shadowMatrixOuter1"></feMergeNode>
                <feMergeNode in="SourceGraphic"></feMergeNode>
            </feMerge>
        </filter>
        <filter x="-17.4%" y="-11.8%" width="134.8%" height="123.5%" filterUnits="objectBoundingBox" id="filter-4">
            <feOffset dx="0" dy="2" in="SourceAlpha" result="shadowOffsetOuter1"></feOffset>
            <feColorMatrix values="0 0 0 0 0   0 0 0 0 0   0 0 0 0 0  0 0 0 0.0985337409 0" type="matrix" in="shadowOffsetOuter1" result="shadowMatrixOuter1"></feColorMatrix>
            <feMerge>
                <feMergeNode in="shadowMatrixOuter1"></feMergeNode>
                <feMergeNode in="SourceGraphic"></feMergeNode>
            </feMerge>
        </filter>
    </defs>
    <g id="Badges" stroke="none" stroke-width="1" fill="none" fill-rule="evenodd">
        <g id="M365-Fundamentals-2" transform="translate(-50.000000, -1260.000000)">
            <g id="M365-Fundamentals/introduction-to-microsoft-365-security-and-compliance" transform="translate(50.000000, 1260.000000)">
                <g id="Mask" transform="translate(2.000000, 2.000000)">
                    <mask id="mask-2" fill="white">
                        <use xlink:href="#path-1"></use>
                    </mask>
                    <use id="BG" fill="#55A2FF" xlink:href="#path-1"></use>
                    <g id="Shield" filter="url(#filter-3)" mask="url(#mask-2)">
                        <g transform="translate(20.000000, 18.000000)">
                            <path d="M25.2,1.8375 C20.3074667,7.35735 11.69,9.1875 1.86666667,9.1875 L1.86666667,23.8875 C1.86666667,39.0432 8.6912,48.79665 25.2,56.9625 C41.7078667,48.79665 48.5333333,39.0432 48.5333333,23.8875 L48.5333333,9.1875 C38.7109333,9.1875 30.0925333,7.35735 25.2,1.8375" id="Fill-22" fill="#7CB65A"></path>
                            <path d="M25.2,1.8375 L25.2,39.50625 C18.8141333,39.50625 13.5921333,34.6460625 13.1133333,28.48125 C13.09,28.7853563 13.0666667,29.0894625 13.0666667,29.4 C13.0666667,35.210175 17.2825333,40.0529062 22.8676,41.12325 C24.2078667,41.3805 25.2,42.4931062 25.2,43.8372375 L25.2,56.9625 C41.7078667,48.79665 48.5333333,39.0432 48.5333333,23.8875 L48.5333333,9.1875 C38.7109333,9.1875 30.0925333,7.35735 25.2,1.8375" id="Fill-23" fill="#629E3F"></path>
                            <path d="M3.73333333,10.9781438 L3.73333333,23.8700438 C3.73333333,38.1079125 9.968,47.1520875 25.2,54.8980688 C40.432,47.1520875 46.6666667,38.1079125 46.6666667,23.8700438 L46.6666667,10.9781438 C36.8545333,10.7411062 29.7957333,8.59123125 25.2,4.4375625 C20.6042667,8.59123125 13.5454667,10.7411062 3.73333333,10.9781438 Z M25.2,58.8 C24.9125333,58.8 24.626,58.7347687 24.3618667,58.6043063 C7.28653333,50.1536438 0,39.7653375 0,23.8700437 L0,9.16269375 C0,8.147475 0.835333333,7.324275 1.86666667,7.324275 C12.6130667,7.324275 19.7848,5.1247875 23.7934667,0.59994375 C24.5028,-0.2002875 25.8972,-0.2002875 26.6065333,0.59994375 C30.6152,5.1247875 37.7869333,7.324275 48.5333333,7.324275 C49.5637333,7.324275 50.4,8.147475 50.4,9.16269375 L50.4,23.8700437 C50.4,39.7653375 43.1134667,50.1536438 26.0381333,58.6043063 C25.774,58.7347687 25.4874667,58.8 25.2,58.8 L25.2,58.8 Z" id="Fill-24" fill="#629E3F"></path>
                            <path d="M37.3333333,27.5625 C37.3333333,34.1582062 31.9013333,39.50625 25.2,39.50625 C18.4986667,39.50625 13.0666667,34.1582062 13.0666667,27.5625 C13.0666667,20.9667937 18.4986667,15.61875 25.2,15.61875 C31.9013333,15.61875 37.3333333,20.9667937 37.3333333,27.5625" id="Fill-25" fill="#FFFFFE"></path>
                            <path d="M32.1197333,22.5883875 C31.3908,21.8708438 30.2082667,21.8708438 29.4802667,22.5883875 L23.3277333,28.6447875 L21.1054667,26.4765375 C21.0522667,26.4030375 20.9981333,26.3295375 20.93,26.2633875 C20.2010667,25.5458437 19.0185333,25.5458437 18.2905333,26.2633875 C17.5681333,26.9717437 17.5634667,28.1201812 18.2709333,28.8395625 L18.2485333,28.8616125 L22.0136,32.5366125 C22.7425333,33.2541562 23.9250667,33.2541562 24.654,32.5366125 L32.1141333,25.1912062 C32.116,25.1902875 32.1178667,25.18845 32.1197333,25.1866125 C32.8486667,24.4690687 32.8486667,23.3040938 32.1197333,22.5883875" id="Fill-26" fill="#7CB65A"></path>
                        </g>
                    </g>
                    <g id="Dark-Lock" filter="url(#filter-4)" mask="url(#mask-2)">
                        <g transform="translate(57.000000, 43.000000)">
                            <g id="Lower" transform="translate(0.000000, 12.000000)">
                                <path d="M22.851916,19.5767875 C22.851916,20.6903263 21.9170649,21.6014035 20.7744691,21.6014035 L2.07744691,21.6014035 C0.93485111,21.6014035 0,20.6903263 0,19.5767875 L0,4.39216733 L22.851916,4.39216733 L22.851916,19.5767875" id="Fill-53" fill="#30404D"></path>
                                <path d="M22.851916,4.39216733 C22.851916,5.50570614 21.9170649,6.41678335 20.7744691,6.41678335 L2.07744691,6.41678335 C0.93485111,6.41678335 0,5.50570614 0,4.39216733 L0,2.36755131 C0,1.2540125 0.93485111,0.342935288 2.07744691,0.342935288 L20.7744691,0.342935288 C21.9170649,0.342935288 22.851916,1.2540125 22.851916,2.36755131 L22.851916,4.39216733" id="Fill-54" fill="#546670"></path>
                                <path d="M20.7744691,6.92293736 L12.4646815,6.92293736 C11.8907868,6.92293736 11.425958,7.37594519 11.425958,7.93524537 L11.425958,19.5767875 C11.425958,20.1360877 10.9611293,20.5890955 10.3872346,20.5890955 L2.07744691,20.5890955 C0.93485111,20.5890955 0,19.6780183 0,18.5644795 L0,19.5767875 C0,20.6903263 0.93485111,21.6014035 2.07744691,21.6014035 L20.7744691,21.6014035 C21.9170649,21.6014035 22.851916,20.6903263 22.851916,19.5767875 L22.851916,4.89832134 C22.851916,6.01186015 21.9170649,6.92293736 20.7744691,6.92293736" id="Fill-55" fill="#182A37"></path>
                                <path d="M6.75170246,3.37985932 C6.75170246,4.21805035 5.82152561,4.89832134 4.67425555,4.89832134 C3.52698549,4.89832134 2.59680864,4.21805035 2.59680864,3.37985932 C2.59680864,2.54166829 3.52698549,1.8613973 4.67425555,1.8613973 C5.82152561,1.8613973 6.75170246,2.54166829 6.75170246,3.37985932" id="Fill-60" fill="#182A37"></path>
                                <path d="M20.2551074,3.37985932 C20.2551074,4.21805035 19.3249305,4.89832134 18.1776605,4.89832134 C17.0303904,4.89832134 16.1002136,4.21805035 16.1002136,3.37985932 C16.1002136,2.54166829 17.0303904,1.8613973 18.1776605,1.8613973 C19.3249305,1.8613973 20.2551074,2.54166829 20.2551074,3.37985932" id="Fill-61" fill="#182A37"></path>
                            </g>
                            <g id="Top" transform="translate(3.000000, 0.000000)">
                                <path d="M8.29172289,0 C3.71987418,0 0,3.68532427 0,8.21470998 L0,15.3846115 C0.379864555,15.7075523 0.93178236,15.9160006 1.55469804,15.9160006 C2.17761372,15.9160006 2.72953153,15.7075523 3.10939608,15.3846115 L3.10939608,8.21470998 C3.10939608,5.38371555 5.43418789,3.08051624 8.29172289,3.08051624 C11.1492579,3.08051624 13.4740497,5.38371555 13.4740497,8.21470998 L13.4740497,14.3757425 C13.4740497,14.9425575 14.1700362,15.4025812 15.0287477,15.4025812 C15.8874593,15.4025812 16.5834458,14.9425575 16.5834458,14.3757425 L16.5834458,8.21470998 C16.5834458,3.68532427 12.8635716,0 8.29172289,0" id="Fill-63" fill="#F5F8F5"></path>
                                <path d="M5.31914023,3.47020155 C3.31928032,4.29886042 2.07293072,6.30427649 2.07293072,8.45190973 L2.07293072,13.7072704 C2.07293072,14.378823 1.42980397,14.8799203 0.776312555,14.7017638 C0.450862432,14.6129422 0.162206829,14.4958826 0,14.3577728 L0,15.3846115 C0.379864555,15.7075523 0.93178236,15.9160006 1.55469804,15.9160006 C1.73504301,15.9160006 1.90709626,15.8939236 2.07293072,15.8615781 C2.17761372,15.8415548 2.2786691,15.814857 2.37609684,15.7835384 C2.42636541,15.767109 2.47300635,15.7465722 2.52068376,15.7275757 C2.59219987,15.6988242 2.66164305,15.668019 2.72797683,15.6336199 C2.76373489,15.6146234 2.79949294,15.5966537 2.8336963,15.576117 C2.93267874,15.5175872 3.02647885,15.4554634 3.10939608,15.3846115 L3.10939608,8.21470998 C3.10939608,5.55673788 5.1584881,3.365464 7.77349021,3.10670063 C6.99510472,3.02866089 6.1685236,3.11799586 5.31914023,3.47020155" id="Fill-64" fill="#C5CCCD"></path>
                                <path d="M8.29172289,0 C8.11707847,0 7.94606169,0.0148891618 7.77349021,0.0261843881 C12.1038425,0.293162462 15.5469804,3.85886001 15.5469804,8.21470998 L15.5469804,13.7072704 C15.5469804,14.378823 14.9038537,14.8799203 14.2503622,14.7017638 C13.9249121,14.6129422 13.6362565,14.4958826 13.4740497,14.3577728 L13.4740497,15.3846115 C13.8539142,15.7075523 14.4063503,15.9160006 15.0287477,15.9160006 C15.6516634,15.9160006 16.2035812,15.7075523 16.5834458,15.3846115 L16.5834458,8.21470998 C16.5834458,3.68532427 12.8635716,0 8.29172289,0" id="Fill-65" fill="#C5CCCD"></path>
                            </g>
                        </g>
                    </g>
                </g>
                <g id="Azure-Border" stroke="#0078D4" stroke-width="4">
                    <rect x="2" y="2" width="96" height="96" rx="48"></rect>
                </g>
            </g>
        </g>
    </g>
</svg>