<svg width="103" height="103" viewBox="0 0 103 103" fill="none" xmlns="http://www.w3.org/2000/svg">
<path d="M51.6845 98.2494C25.8345 98.2494 4.87451 77.2994 4.87451 51.4394C4.87451 25.5794 25.8345 4.62939 51.6845 4.62939C77.5345 4.62939 98.4945 25.5894 98.4945 51.4394C98.4945 77.2894 77.5345 98.2494 51.6845 98.2494Z" fill="url(#paint0_linear)"/>
<path fill-rule="evenodd" clip-rule="evenodd" d="M51.6846 1.43945C79.2946 1.43945 101.685 23.8295 101.685 51.4395C101.685 79.0495 79.2946 101.439 51.6846 101.439C24.0746 101.439 1.68457 79.0495 1.68457 51.4395C1.68457 23.8295 24.0746 1.43945 51.6846 1.43945ZM51.6846 97.1995C76.9546 97.1995 97.4446 76.7095 97.4446 51.4395C97.4446 26.1695 76.9546 5.67945 51.6846 5.67945C26.4146 5.67945 5.92457 26.1695 5.92457 51.4395C5.92457 76.7095 26.4146 97.1995 51.6846 97.1995Z" fill="#D9D9D9"/>
<path fill-rule="evenodd" clip-rule="evenodd" d="M97.5847 51.4396C97.5847 76.7896 77.0347 97.3396 51.6847 97.3396C26.3347 97.3396 5.78468 76.7896 5.78468 51.4396C5.78468 26.0896 26.3347 5.53956 51.6847 5.53956C77.0347 5.53956 97.5847 26.0896 97.5847 51.4396ZM51.6847 1.79956C79.1047 1.79956 101.325 24.0196 101.325 51.4396C101.325 78.8596 79.0947 101.08 51.6847 101.08C24.2647 101.08 2.04468 78.8496 2.04468 51.4396C2.04468 24.0196 24.2647 1.79956 51.6847 1.79956Z" fill="#F2F1F0"/>
<path fill-rule="evenodd" clip-rule="evenodd" d="M51.6845 94.5294C27.8845 94.5294 8.59449 75.2394 8.59449 51.4394C8.59449 27.6394 27.8845 8.34937 51.6845 8.34937C75.4845 8.34937 94.7745 27.6394 94.7745 51.4394C94.7745 75.2394 75.4845 94.5294 51.6845 94.5294ZM98.5145 51.4394C98.5145 77.2994 77.5445 98.2694 51.6845 98.2694C25.8245 98.2694 4.85449 77.2994 4.85449 51.4394C4.85449 25.5794 25.8245 4.60938 51.6845 4.60938C77.5445 4.60938 98.5145 25.5694 98.5145 51.4394Z" fill="url(#paint1_linear)"/>
<path d="M60.7545 59.9093C68.8345 50.4493 71.3645 39.3393 66.3845 35.0793C61.4145 30.8293 50.8245 35.0493 42.7445 44.5093C34.6645 53.9693 32.1345 65.0793 37.1145 69.3393C42.0845 73.5893 52.6745 69.3693 60.7545 59.9093Z" stroke="url(#paint2_linear)" stroke-miterlimit="10"/>
<path d="M59.5444 58.8693C66.5344 50.6893 68.7244 41.0693 64.4144 37.3893C60.1044 33.7093 50.9444 37.3593 43.9544 45.5493C36.9544 53.7293 34.7744 63.3493 39.0844 67.0293C43.3944 70.7093 52.5544 67.0593 59.5444 58.8693Z" stroke="url(#paint3_linear)" stroke-miterlimit="10"/>
<path d="M58.3344 57.8393C64.2444 50.9293 66.0844 42.7993 62.4444 39.6893C58.8044 36.5793 51.0644 39.6693 45.1644 46.5793C39.2544 53.4893 37.4144 61.6193 41.0544 64.7293C44.6944 67.8393 52.4344 64.7493 58.3344 57.8393Z" stroke="url(#paint4_linear)" stroke-miterlimit="10"/>
<path d="M57.1246 56.7992C61.9446 51.1592 63.4546 44.5292 60.4846 41.9992C57.5146 39.4692 51.2046 41.9892 46.3846 47.6292C41.5646 53.2692 40.0546 59.8992 43.0246 62.4292C45.9846 64.9592 52.3046 62.4392 57.1246 56.7992Z" stroke="url(#paint5_linear)" stroke-miterlimit="10"/>
<path d="M55.9145 55.7693C59.6445 51.3993 60.8145 46.2693 58.5145 44.3093C56.2145 42.3493 51.3345 44.2993 47.5945 48.6593C43.8645 53.0293 42.6945 58.1593 44.9945 60.1193C47.2945 62.0793 52.1845 60.1293 55.9145 55.7693Z" stroke="url(#paint6_linear)" stroke-miterlimit="10"/>
<path d="M67.6144 67.5595C72.1644 62.8595 68.3844 51.8194 59.1744 42.9094C49.9644 33.9994 38.8144 30.5794 34.2644 35.2794C29.7144 39.9794 33.4944 51.0194 42.7044 59.9294C51.9044 68.8494 63.0644 72.2595 67.6144 67.5595Z" stroke="url(#paint7_linear)" stroke-miterlimit="10"/>
<path d="M65.3645 65.3894C69.3045 61.3194 66.0345 51.7694 58.0645 44.0594C50.0945 36.3494 40.4445 33.3894 36.5045 37.4594C32.5645 41.5294 35.8345 51.0794 43.8045 58.7894C51.7745 66.4994 61.4245 69.4594 65.3645 65.3894Z" stroke="url(#paint8_linear)" stroke-miterlimit="10"/>
<path d="M63.1244 63.2194C66.4544 59.7794 63.6944 51.7094 56.9644 45.1994C50.2344 38.6894 42.0844 36.1894 38.7544 39.6294C35.4244 43.0694 38.1844 51.1394 44.9144 57.6494C51.6444 64.1594 59.7944 66.6594 63.1244 63.2194Z" stroke="url(#paint9_linear)" stroke-miterlimit="10"/>
<path d="M60.8845 61.0493C63.5945 58.2493 61.3445 51.6693 55.8545 46.3493C50.3645 41.0293 43.7145 38.9993 40.9945 41.7993C38.2845 44.5993 40.5345 51.1793 46.0245 56.4993C51.5145 61.8193 58.1745 63.8493 60.8845 61.0493Z" stroke="url(#paint10_linear)" stroke-miterlimit="10"/>
<path d="M58.6344 58.8692C60.7344 56.6992 58.9944 51.5992 54.7444 47.4892C50.4944 43.3792 45.3444 41.7992 43.2444 43.9692C41.1444 46.1392 42.8844 51.2392 47.1344 55.3492C51.3844 59.4692 56.5344 61.0392 58.6344 58.8692Z" stroke="url(#paint11_linear)" stroke-miterlimit="10"/>
<path d="M24.7346 78.3994C17.2546 70.9194 23.2546 52.7894 38.1346 37.8994C53.0146 23.0094 71.1546 17.0094 78.6446 24.4894" stroke="white" stroke-width="1.5" stroke-miterlimit="10"/>
<path d="M33.6544 21.2694C42.5144 21.2694 54.6844 27.3494 65.2244 37.8894C80.1044 52.7694 86.1044 70.9094 78.6244 78.3894C76.4344 80.5794 73.3444 81.6094 69.6944 81.6094C60.8344 81.6094 48.6644 75.5294 38.1244 64.9894C23.2444 50.1094 17.2344 31.9694 24.7244 24.4894C26.9144 22.2994 30.0044 21.2694 33.6544 21.2694ZM33.6544 20.3494C29.6644 20.3494 26.3544 21.5594 24.0744 23.8394C20.1944 27.7194 19.5144 34.2494 22.1744 42.2494C24.7544 50.0294 30.1844 58.3394 37.4844 65.6294C47.9044 76.0494 60.2444 82.5294 69.7044 82.5294C73.6944 82.5294 77.0044 81.3194 79.2844 79.0394C83.1644 75.1594 83.8444 68.6294 81.1844 60.6294C78.6044 52.8494 73.1744 44.5394 65.8744 37.2494C55.4544 26.8294 43.1144 20.3494 33.6544 20.3494Z" stroke="white" stroke-miterlimit="10"/>
<path fill-rule="evenodd" clip-rule="evenodd" d="M30.6944 33.2594V46.2794C30.6944 60.6494 36.8844 69.7894 52.0244 77.5994C67.1644 69.7794 73.3544 60.6494 73.3544 46.2794V33.2594C63.6044 33.0194 56.5844 30.8494 52.0244 26.6594C47.4644 30.8594 40.4444 33.0194 30.6944 33.2594ZM52.0244 81.5494C51.7444 81.5494 51.4544 81.4894 51.1944 81.3494C34.2244 72.8094 26.9844 62.3294 26.9844 46.2794V31.4294C26.9844 30.4094 27.8144 29.5694 28.8444 29.5694C39.5244 29.5694 46.6544 27.3494 50.6344 22.7794C51.3344 21.9694 52.7244 21.9694 53.4344 22.7794C57.4244 27.3394 64.5444 29.5694 75.2244 29.5694C76.2444 29.5694 77.0844 30.3994 77.0844 31.4294V46.2794C77.0844 62.3294 69.8344 72.8194 52.8744 81.3394C52.5944 81.4794 52.3144 81.5494 52.0244 81.5494Z" fill="#546670"/>
<path fill-rule="evenodd" clip-rule="evenodd" d="M52.0243 25.0894C47.3443 30.4494 39.0943 32.2294 29.7043 32.2294V46.5094C29.7043 61.2394 36.2243 70.7094 52.0243 78.6494C67.8143 70.7194 74.3443 61.2294 74.3443 46.5094V32.2294C64.9543 32.2294 56.7043 30.4494 52.0243 25.0894Z" fill="white"/>
<path fill-rule="evenodd" clip-rule="evenodd" d="M52.0244 25.0894V78.6594C67.8144 70.7294 74.3444 61.2394 74.3444 46.5194V32.2294C64.9544 32.2294 56.7044 30.4494 52.0244 25.0894Z" fill="#EBEBEB"/>
<path d="M78.6444 24.4893C86.1244 31.9693 80.1244 50.0993 65.2444 64.9893C50.3544 79.8693 32.2144 85.8793 24.7344 78.3993" stroke="white" stroke-width="1.5" stroke-miterlimit="10"/>
<path d="M57.0745 45.4592H64.9445C65.6845 45.4592 66.2945 46.0592 66.2945 46.8092V53.9792C66.2945 56.7092 64.0845 58.9292 61.3445 58.9292H61.3245C58.5945 58.9292 56.3745 56.7192 56.3745 53.9792V46.1692C56.3645 45.7692 56.6845 45.4592 57.0745 45.4592Z" fill="#5059C9"/>
<path d="M62.3946 44.0394C64.1546 44.0394 65.5846 42.6094 65.5846 40.8494C65.5846 39.0894 64.1546 37.6594 62.3946 37.6594C60.6346 37.6594 59.2046 39.0894 59.2046 40.8494C59.2046 42.6094 60.6346 44.0394 62.3946 44.0394Z" fill="#5059C9"/>
<path d="M52.4745 44.0393C55.0145 44.0393 57.0845 41.9793 57.0845 39.4293C57.0845 36.8893 55.0245 34.8193 52.4745 34.8193C49.9245 34.8193 47.8645 36.8793 47.8645 39.4293C47.8645 41.9793 49.9245 44.0393 52.4745 44.0393Z" fill="#7B83EB"/>
<path d="M58.6146 45.4592H45.6246C44.8946 45.4792 44.3046 46.0892 44.3246 46.8192V54.9892C44.2246 59.3992 47.7146 63.0592 52.1146 63.1592C56.5246 63.0492 60.0146 59.3892 59.9046 54.9892V46.8192C59.9246 46.0892 59.3446 45.4792 58.6146 45.4592Z" fill="#7B83EB"/>
<path opacity="0.1" d="M52.8245 45.4592V56.9192C52.8245 57.4492 52.5045 57.9192 52.0145 58.1192C51.8645 58.1892 51.6945 58.2192 51.5245 58.2192H44.9445C44.8545 57.9892 44.7645 57.7492 44.6945 57.5092C44.4445 56.6992 44.3245 55.8492 44.3145 54.9992V46.8192C44.2945 46.0892 44.8745 45.4792 45.6145 45.4592H52.8245V45.4592Z" fill="black"/>
<path opacity="0.2" d="M52.1145 45.4592V57.6192C52.1145 57.7892 52.0845 57.9492 52.0145 58.1092C51.8145 58.5992 51.3445 58.9092 50.8145 58.9192H45.2845C45.1645 58.6892 45.0545 58.4492 44.9545 58.2092C44.8545 57.9692 44.7745 57.7392 44.7045 57.4992C44.4545 56.6892 44.3345 55.8392 44.3245 54.9892V46.8092C44.3045 46.0792 44.8845 45.4692 45.6245 45.4492H52.1145V45.4592Z" fill="black"/>
<path opacity="0.2" d="M52.1145 45.4592V56.2092C52.1045 56.9192 51.5345 57.4992 50.8145 57.5092H44.6945C44.4445 56.6992 44.3245 55.8492 44.3145 54.9992V46.8192C44.2945 46.0892 44.8745 45.4792 45.6145 45.4592H52.1145Z" fill="black"/>
<path opacity="0.2" d="M51.4145 45.4592V56.2092C51.4045 56.9192 50.8345 57.4992 50.1145 57.5092H44.7045C44.4545 56.6992 44.3345 55.8492 44.3245 54.9992V46.8192C44.3045 46.0892 44.8845 45.4792 45.6245 45.4592H51.4145Z" fill="black"/>
<path opacity="0.1" d="M52.8244 41.7893V44.0193C52.7044 44.0293 52.5944 44.0293 52.4744 44.0293C52.3544 44.0293 52.2444 44.0193 52.1244 44.0193C51.8844 43.9993 51.6444 43.9693 51.4144 43.9093C49.9844 43.5693 48.7944 42.5593 48.2244 41.1993C48.1244 40.9693 48.0544 40.7293 47.9944 40.4893H51.5344C52.2444 40.4993 52.8244 41.0793 52.8244 41.7893Z" fill="black"/>
<path opacity="0.2" d="M52.1146 42.4992V44.0192C51.8746 43.9992 51.6346 43.9692 51.4046 43.9092C49.9746 43.5692 48.7846 42.5592 48.2146 41.1992H50.8146C51.5346 41.2092 52.1146 41.7892 52.1146 42.4992Z" fill="black"/>
<path opacity="0.2" d="M52.1146 42.4992V44.0192C51.8746 43.9992 51.6346 43.9692 51.4046 43.9092C49.9746 43.5692 48.7846 42.5592 48.2146 41.1992H50.8146C51.5346 41.2092 52.1146 41.7892 52.1146 42.4992Z" fill="black"/>
<path opacity="0.2" d="M51.4146 42.4992V43.9092C49.9846 43.5692 48.7946 42.5592 48.2246 41.1992H50.1146C50.8246 41.2092 51.4046 41.7892 51.4146 42.4992Z" fill="black"/>
<path d="M37.1645 41.1895H50.1545C50.8745 41.1895 51.4545 41.7695 51.4545 42.4895V55.4795C51.4545 56.1995 50.8745 56.7795 50.1545 56.7795H37.1645C36.4445 56.7795 35.8645 56.1995 35.8645 55.4795V42.4895C35.8645 41.7695 36.4445 41.1895 37.1645 41.1895Z" fill="url(#paint12_linear)"/>
<path d="M47.0346 46.1493H44.4346V53.2193H42.7846V46.1493H40.2046V44.7793H47.0446V46.1493H47.0346Z" fill="white"/>
<path d="M76.5244 61.0693H61.3145V76.2793H76.5244V61.0693Z" fill="#002D4C"/>
<path d="M73.4243 63.9592L66.7743 70.6492L64.7743 68.6392L63.4443 69.9792L66.7743 73.3192L74.7743 65.2992L73.4243 63.9592Z" fill="#FAF9F8"/>
<defs>
<linearGradient id="paint0_linear" x1="36.6271" y1="1.00039" x2="66.8634" y2="102.292" gradientUnits="userSpaceOnUse">
<stop stop-color="#C1C7FF"/>
<stop offset="1" stop-color="#9DA4FF"/>
</linearGradient>
<linearGradient id="paint1_linear" x1="51.6846" y1="4.60938" x2="51.6846" y2="98.2694" gradientUnits="userSpaceOnUse">
<stop stop-color="#5A62C3"/>
<stop offset="0.5" stop-color="#4D55BD"/>
<stop offset="1" stop-color="#3940AB"/>
</linearGradient>
<linearGradient id="paint2_linear" x1="39.4157" y1="54.1567" x2="64.099" y2="50.264" gradientUnits="userSpaceOnUse">
<stop stop-color="#00ABDE"/>
<stop offset="1" stop-color="#007ED8"/>
</linearGradient>
<linearGradient id="paint3_linear" x1="40.9903" y1="53.9086" x2="62.5237" y2="50.5126" gradientUnits="userSpaceOnUse">
<stop stop-color="#00ABDE"/>
<stop offset="1" stop-color="#007ED8"/>
</linearGradient>
<linearGradient id="paint4_linear" x1="42.565" y1="53.6598" x2="60.9487" y2="50.7605" gradientUnits="userSpaceOnUse">
<stop stop-color="#00ABDE"/>
<stop offset="1" stop-color="#007ED8"/>
</linearGradient>
<linearGradient id="paint5_linear" x1="44.1401" y1="53.4118" x2="59.3743" y2="51.0092" gradientUnits="userSpaceOnUse">
<stop stop-color="#00ABDE"/>
<stop offset="1" stop-color="#007ED8"/>
</linearGradient>
<linearGradient id="paint6_linear" x1="45.7149" y1="53.1634" x2="57.7997" y2="51.2575" gradientUnits="userSpaceOnUse">
<stop stop-color="#00ABDE"/>
<stop offset="1" stop-color="#007ED8"/>
</linearGradient>
<linearGradient id="paint7_linear" x1="51.3437" y1="63.8997" x2="50.5307" y2="38.9244" gradientUnits="userSpaceOnUse">
<stop stop-color="#00ABDE"/>
<stop offset="1" stop-color="#007ED8"/>
</linearGradient>
<linearGradient id="paint8_linear" x1="51.2919" y1="62.306" x2="50.5827" y2="40.5177" gradientUnits="userSpaceOnUse">
<stop stop-color="#00ABDE"/>
<stop offset="1" stop-color="#007ED8"/>
</linearGradient>
<linearGradient id="paint9_linear" x1="51.2399" y1="60.7127" x2="50.6344" y2="42.1112" gradientUnits="userSpaceOnUse">
<stop stop-color="#00ABDE"/>
<stop offset="1" stop-color="#007ED8"/>
</linearGradient>
<linearGradient id="paint10_linear" x1="51.1884" y1="59.1192" x2="50.6866" y2="43.7046" gradientUnits="userSpaceOnUse">
<stop stop-color="#00ABDE"/>
<stop offset="1" stop-color="#007ED8"/>
</linearGradient>
<linearGradient id="paint11_linear" x1="51.1364" y1="57.5258" x2="50.7384" y2="45.2977" gradientUnits="userSpaceOnUse">
<stop stop-color="#00ABDE"/>
<stop offset="1" stop-color="#007ED8"/>
</linearGradient>
<linearGradient id="paint12_linear" x1="38.5722" y1="40.1775" x2="48.7431" y2="57.7931" gradientUnits="userSpaceOnUse">
<stop stop-color="#5A62C3"/>
<stop offset="0.5" stop-color="#4D55BD"/>
<stop offset="1" stop-color="#3940AB"/>
</linearGradient>
</defs>
</svg>
