<svg width="103" height="103" viewBox="0 0 103 103" fill="none" xmlns="http://www.w3.org/2000/svg">
<path d="M51.7353 98.7654C25.8853 98.7654 4.92529 77.8154 4.92529 51.9554C4.92529 26.0954 25.8853 5.14539 51.7353 5.14539C77.5853 5.14539 98.5453 26.1054 98.5453 51.9554C98.5453 77.8054 77.5853 98.7654 51.7353 98.7654Z" fill="url(#paint0_linear)"/>
<path fill-rule="evenodd" clip-rule="evenodd" d="M97.6352 51.9554C97.6352 77.3054 77.0852 97.8554 51.7352 97.8554C26.3852 97.8554 5.83521 77.3054 5.83521 51.9554C5.83521 26.6054 26.3852 6.05543 51.7352 6.05543C77.0852 6.05543 97.6352 26.6054 97.6352 51.9554ZM51.7352 2.31543C79.1552 2.31543 101.375 24.5354 101.375 51.9554C101.375 79.3754 79.1452 101.595 51.7352 101.595C24.3152 101.595 2.09521 79.3654 2.09521 51.9554C2.09521 24.5354 24.3152 2.31543 51.7352 2.31543Z" fill="#F2F1F0"/>
<path fill-rule="evenodd" clip-rule="evenodd" d="M51.7353 95.0455C27.9353 95.0455 8.64527 75.7555 8.64527 51.9555C8.64527 28.1555 27.9353 8.86549 51.7353 8.86549C75.5353 8.86549 94.8253 28.1555 94.8253 51.9555C94.8253 75.7555 75.5353 95.0455 51.7353 95.0455ZM98.5653 51.9555C98.5653 77.8155 77.5953 98.7855 51.7353 98.7855C25.8753 98.7855 4.90527 77.8155 4.90527 51.9555C4.90527 26.0955 25.8753 5.12549 51.7353 5.12549C77.5953 5.12549 98.5653 26.0855 98.5653 51.9555Z" fill="url(#paint1_linear)"/>
<path d="M48.7054 44.5654C48.7054 43.8854 48.1454 43.3254 47.4654 43.3254H42.2454C41.5654 43.3254 41.0054 43.8854 41.0054 44.5654C41.0054 45.2454 41.5654 45.8054 42.2454 45.8054H47.4754C48.1654 45.8054 48.7054 45.2554 48.7054 44.5654Z" fill="url(#paint2_linear)"/>
<path d="M62.6653 44.5654C62.6653 43.8854 62.1053 43.3254 61.4253 43.3254H47.6253C46.9453 43.3254 47.3753 43.8854 47.3753 44.5654C47.3753 45.2454 46.9453 45.8054 47.6253 45.8054H61.4353C62.1153 45.8054 62.6653 45.2554 62.6653 44.5654Z" fill="white"/>
<path d="M45.6255 44.5554C45.6255 45.9154 46.7255 47.0254 48.0955 47.0254C49.4655 47.0254 50.5655 45.9254 50.5655 44.5554C50.5655 43.1954 49.4655 42.0854 48.0955 42.0854C46.7255 42.1054 45.6255 43.1954 45.6255 44.5554Z" fill="#35AFE4"/>
<path d="M56.9554 50.8254C56.9554 50.1454 56.3954 49.5854 55.7154 49.5854H42.2454C41.5654 49.5854 41.0054 50.1454 41.0054 50.8254C41.0054 51.5054 41.5654 52.0654 42.2454 52.0654H55.7254C56.4154 52.0554 56.9554 51.5054 56.9554 50.8254Z" fill="url(#paint3_linear)"/>
<path d="M62.6654 50.8254C62.6654 50.1454 62.1054 49.5854 61.4254 49.5854H56.4754C55.7954 49.5854 55.2354 50.1454 55.2354 50.8254C55.2354 51.5054 55.7954 52.0654 56.4754 52.0654H61.4354C62.1154 52.0554 62.6654 51.5054 62.6654 50.8254Z" fill="white"/>
<path d="M53.0454 50.8255C53.0454 52.1855 54.1454 53.2955 55.5154 53.2955C56.8754 53.2955 57.9854 52.1955 57.9854 50.8255C57.9854 49.4555 56.8854 48.3555 55.5154 48.3555C54.1554 48.3555 53.0454 49.4655 53.0454 50.8255Z" fill="#2E76BC"/>
<path d="M48.9554 57.4555C48.9554 56.7755 48.3954 56.2155 47.7154 56.2155H42.2454C41.5654 56.2155 41.0054 56.7755 41.0054 57.4555C41.0054 58.1355 41.5654 58.6955 42.2454 58.6955H47.7254C48.4154 58.6855 48.9554 58.1355 48.9554 57.4555Z" fill="url(#paint4_linear)"/>
<path d="M62.6656 57.4555C62.6656 56.7755 62.1056 56.2155 61.4256 56.2155H48.9456C48.2656 56.2155 47.7056 56.7755 47.7056 57.4555C47.7056 58.1355 48.2656 58.6955 48.9456 58.6955H61.4256C62.1156 58.6855 62.6656 58.1355 62.6656 57.4555Z" fill="white"/>
<path d="M45.7153 57.4554C45.7153 58.8154 46.8153 59.9254 48.1853 59.9254C49.5453 59.9254 50.6553 58.8254 50.6553 57.4554C50.6553 56.0954 49.5553 54.9854 48.1853 54.9854C46.8153 54.9754 45.7153 56.0854 45.7153 57.4554Z" fill="#50E6FF"/>
<path d="M51.4253 88.4454L52.1153 88.4254V67.0754H51.4253V88.4454Z" fill="white"/>
<path d="M52.1153 13.6055H51.4253V37.0255H52.1153V13.6055Z" fill="white"/>
<path d="M33.355 50.9554C33.355 30.1754 41.605 13.1954 51.685 13.1954C61.765 13.1954 70.005 30.1754 70.005 50.9554C70.005 71.7354 61.755 88.7154 51.675 88.7154C41.605 88.6954 33.355 71.7154 33.355 50.9554ZM69.475 50.9554C69.475 30.4754 61.495 13.8854 51.845 13.8854C42.195 13.8854 34.205 30.4554 34.205 50.9554C34.205 71.4554 42.185 88.0254 51.835 88.0254C61.495 88.0054 69.475 71.4354 69.475 50.9554Z" fill="white"/>
<path d="M14.0352 50.9554C14.0352 40.8454 30.9552 32.5654 51.6952 32.5654C72.4352 32.5654 89.3652 40.8454 89.3652 50.9554C89.3652 61.0654 72.4252 69.3454 51.7052 69.3454C30.9852 69.3454 14.0352 61.0454 14.0352 50.9554ZM88.7952 50.9554C88.7952 41.1154 72.2652 33.2854 51.8452 33.2854C31.3952 33.2854 14.8952 41.2854 14.8952 50.9554C14.8952 60.6254 31.4252 68.6254 51.8452 68.6254C72.2652 68.6254 88.7952 60.7754 88.7952 50.9554Z" fill="white"/>
<path d="M49.5952 32.8455C49.5952 34.0755 50.5952 35.0855 51.8352 35.0855C53.0652 35.0855 54.0752 34.0755 54.0752 32.8455C54.0752 31.6155 53.0752 30.6055 51.8352 30.6055C50.5952 30.6055 49.5952 31.5955 49.5952 32.8455Z" fill="white"/>
<path d="M49.6152 68.8855C49.6152 70.1555 50.6252 71.1655 51.8952 71.1655C53.1652 71.1655 54.1752 70.1555 54.1752 68.8855C54.1752 67.6155 53.1652 66.6055 51.8952 66.6055C50.6352 66.6055 49.6152 67.6255 49.6152 68.8855Z" fill="#5059C9"/>
<path d="M33.9854 66.8054C33.9854 67.8954 34.8754 68.7854 35.9654 68.7854C37.0554 68.7854 37.9454 67.8954 37.9454 66.8054C37.9454 65.7154 37.0554 64.8254 35.9654 64.8254C34.8754 64.8254 33.9854 65.7154 33.9854 66.8054Z" fill="white"/>
<path d="M33.9854 34.9455C33.9854 36.0355 34.8754 36.9255 35.9654 36.9255C37.0554 36.9255 37.9454 36.0355 37.9454 34.9455C37.9454 33.8555 37.0554 32.9655 35.9654 32.9655C34.8754 32.9655 33.9854 33.8555 33.9854 34.9455Z" fill="white"/>
<path d="M12.5151 50.6754C12.5151 51.7654 13.4051 52.6554 14.4951 52.6554C15.5851 52.6554 16.4751 51.7654 16.4751 50.6754C16.4751 49.5854 15.5851 48.6954 14.4951 48.6954C13.4051 48.6954 12.5151 49.5854 12.5151 50.6754Z" fill="white"/>
<path d="M86.9951 50.6754C86.9951 51.7654 87.8851 52.6554 88.9751 52.6554C90.0651 52.6554 90.9551 51.7654 90.9551 50.6754C90.9551 49.5854 90.0651 48.6954 88.9751 48.6954C87.8851 48.6954 86.9951 49.5854 86.9951 50.6754Z" fill="white"/>
<path d="M65.915 66.8054C65.915 67.8954 66.805 68.7854 67.895 68.7854C68.985 68.7854 69.875 67.8954 69.875 66.8054C69.875 65.7154 68.985 64.8254 67.895 64.8254C66.785 64.8254 65.915 65.7154 65.915 66.8054Z" fill="white"/>
<path d="M65.915 34.9455C65.915 36.0355 66.805 36.9255 67.895 36.9255C68.985 36.9255 69.875 36.0355 69.875 34.9455C69.875 33.8555 68.985 32.9655 67.895 32.9655C66.785 32.9655 65.915 33.8555 65.915 34.9455Z" fill="white"/>
<path opacity="0.15" d="M44.9652 23.7854H58.4452C59.1852 23.7854 59.7952 24.3854 59.7952 25.1354V38.6154C59.7952 39.3554 59.1952 39.9654 58.4452 39.9654H44.9652C44.2252 39.9654 43.6152 39.3654 43.6152 38.6154V25.1354C43.6152 24.3954 44.2152 23.7854 44.9652 23.7854Z" fill="#1F1D20"/>
<path opacity="0.2" d="M59.7451 24.2554V25.7154C58.2551 25.3654 57.0251 24.3154 56.4351 22.9054H58.3951C59.1451 22.9154 59.7451 23.5154 59.7451 24.2554Z" fill="black"/>
<path d="M44.9652 22.8954H58.4452C59.1852 22.8954 59.7952 23.4954 59.7952 24.2454V37.7254C59.7952 38.4654 59.1952 39.0754 58.4452 39.0754H44.9652C44.2252 39.0754 43.6152 38.4754 43.6152 37.7254V24.2454C43.6152 23.5054 44.2152 22.8954 44.9652 22.8954Z" fill="url(#paint5_linear)"/>
<path d="M55.2052 28.0454H52.5152V35.3854H50.7952V28.0454H48.1152V26.6254H55.2052V28.0454Z" fill="white"/>
<path d="M89.0649 50.6554H69.8149V51.3654H89.0649V50.6554Z" fill="white"/>
<path d="M33.8951 50.6554H14.4551V51.3654H33.8951V50.6554Z" fill="white"/>
<path opacity="0.15" d="M58.975 78.7654L57.135 77.4854L46.925 75.4554L44.415 77.2254L53.765 80.6154L58.985 78.9254" fill="#1F1D20"/>
<path d="M55.625 70.0254C55.625 70.0254 54.825 64.8154 54.695 64.7554C54.565 64.6954 46.675 67.1254 46.675 67.1254L44.415 76.7054L52.525 79.0154L56.045 77.7054" fill="white"/>
<path d="M53.765 62.5554L44.415 66.1854V76.6954L47.785 75.2754V67.0054L53.835 65.5854V77.9354L44.415 76.6854L53.765 80.0754L58.995 78.3854V64.3154L53.765 62.5554Z" fill="#E73F24"/>
<defs>
<linearGradient id="paint0_linear" x1="36.6779" y1="1.51639" x2="66.9142" y2="102.808" gradientUnits="userSpaceOnUse">
<stop stop-color="#A9B1FF"/>
<stop offset="1" stop-color="#7B83EB"/>
</linearGradient>
<linearGradient id="paint1_linear" x1="51.7354" y1="5.12539" x2="51.7354" y2="98.7856" gradientUnits="userSpaceOnUse">
<stop stop-color="#5A62C3"/>
<stop offset="0.5" stop-color="#4D55BD"/>
<stop offset="1" stop-color="#3940AB"/>
</linearGradient>
<linearGradient id="paint2_linear" x1="44.5737" y1="43.7726" x2="50.3504" y2="60.0612" gradientUnits="userSpaceOnUse">
<stop stop-color="#15548F"/>
<stop offset="0.4179" stop-color="#243A5E"/>
<stop offset="0.9677" stop-color="#1A2C45"/>
</linearGradient>
<linearGradient id="paint3_linear" x1="46.9669" y1="45.143" x2="56.5114" y2="72.0553" gradientUnits="userSpaceOnUse">
<stop stop-color="#15548F"/>
<stop offset="0.4179" stop-color="#243A5E"/>
<stop offset="0.9677" stop-color="#1A2C45"/>
</linearGradient>
<linearGradient id="paint4_linear" x1="42.7252" y1="51.0907" x2="48.6164" y2="67.7022" gradientUnits="userSpaceOnUse">
<stop stop-color="#15548F"/>
<stop offset="0.4179" stop-color="#243A5E"/>
<stop offset="0.9677" stop-color="#1A2C45"/>
</linearGradient>
<linearGradient id="paint5_linear" x1="46.4249" y1="21.845" x2="56.9788" y2="40.1238" gradientUnits="userSpaceOnUse">
<stop stop-color="#5A62C3"/>
<stop offset="0.5" stop-color="#4D55BD"/>
<stop offset="1" stop-color="#3940AB"/>
</linearGradient>
</defs>
</svg>
