<svg width="103" height="102" viewBox="0 0 103 102" fill="none" xmlns="http://www.w3.org/2000/svg">
<path d="M51.5004 97.8099C25.6504 97.8099 4.69043 76.8599 4.69043 50.9999C4.69043 25.1399 25.6504 4.18994 51.5004 4.18994C77.3504 4.18994 98.3104 25.1499 98.3104 50.9999C98.3104 76.8499 77.3504 97.8099 51.5004 97.8099Z" fill="url(#paint0_linear)"/>
<path fill-rule="evenodd" clip-rule="evenodd" d="M97.4004 51.0001C97.4004 76.3501 76.8504 96.9001 51.5004 96.9001C26.1504 96.9001 5.60035 76.3501 5.60035 51.0001C5.60035 25.6501 26.1504 5.10011 51.5004 5.10011C76.8504 5.10011 97.4004 25.6501 97.4004 51.0001ZM51.5004 1.36011C78.9204 1.36011 101.14 23.5801 101.14 51.0001C101.14 78.4201 78.9104 100.64 51.5004 100.64C24.0804 100.64 1.86035 78.4101 1.86035 51.0001C1.86035 23.5801 24.0804 1.36011 51.5004 1.36011Z" fill="#F2F1F0"/>
<path fill-rule="evenodd" clip-rule="evenodd" d="M94.5899 50.9999C94.5899 74.7999 75.2999 94.0899 51.4999 94.0899C27.6999 94.0899 8.40992 74.7999 8.40992 50.9999C8.40992 27.1999 27.6999 7.90992 51.4999 7.90992C75.2999 7.90992 94.5899 27.1999 94.5899 50.9999ZM51.4999 4.16992C77.3599 4.16992 98.3299 25.1399 98.3299 50.9999C98.3299 76.8599 77.3599 97.8299 51.4999 97.8299C25.6399 97.8299 4.66992 76.8599 4.66992 50.9999C4.66992 25.1399 25.6299 4.16992 51.4999 4.16992Z" fill="url(#paint1_linear)"/>
<g opacity="0.2">
<path opacity="0.2" d="M49.91 67.2998C48.27 67.3198 46.95 68.6698 46.96 70.2998C46.97 71.3398 47.53 72.3098 48.44 72.8398L58.94 78.7898C59.81 79.2798 60.78 79.5398 61.78 79.5398C62.32 79.5398 62.85 79.4698 63.36 79.3098L79.15 74.8098C81.57 74.1198 83.23 71.8998 83.24 69.3898V67.2998H49.91Z" fill="white"/>
</g>
<g opacity="0.12">
<path opacity="0.12" d="M49.91 67.2998C48.27 67.3198 46.95 68.6698 46.96 70.2998C46.97 71.3398 47.53 72.3098 48.44 72.8398L58.94 78.7898C59.81 79.2798 60.78 79.5398 61.78 79.5398C62.32 79.5398 62.85 79.4698 63.36 79.3098L79.15 74.8098C81.57 74.1198 83.23 71.8998 83.24 69.3898V67.2998H49.91Z" fill="white"/>
</g>
<path d="M63.29 23.8799L67.53 33.5799V67.2999L63.35 79.3099L79.14 74.8099C81.56 74.1199 83.22 71.8999 83.23 69.3899V33.7999C83.23 31.2799 81.56 29.0599 79.13 28.3699L63.29 23.8799Z" fill="url(#paint2_linear)"/>
<path d="M43.2601 66.9399L47.8801 64.4499C49.1701 63.7399 49.9701 62.3799 49.9701 60.9099V42.7499C49.9701 41.0599 51.0301 39.5399 52.6201 38.9599L67.5201 33.5699V29.4799C67.5201 26.8699 65.7801 24.5799 63.2801 23.8699C62.7601 23.7199 62.2301 23.6499 61.6801 23.6499C60.6601 23.6499 59.6701 23.9199 58.7801 24.4199L41.7201 34.1499C39.9601 35.1599 38.8701 37.0199 38.8701 39.0499V64.3299C38.8701 65.9699 40.1901 67.2999 41.8301 67.3099C42.3401 67.2999 42.8301 67.1799 43.2601 66.9399Z" fill="url(#paint3_linear)"/>
<path d="M67.53 67.2998H49.91C48.27 67.3198 46.95 68.6698 46.96 70.2998C46.97 71.3398 47.53 72.3098 48.44 72.8398L58.94 78.7898C59.81 79.2798 60.78 79.5398 61.78 79.5398C62.32 79.5398 62.85 79.4698 63.36 79.3098C65.84 78.6098 67.55 76.3398 67.54 73.7698V67.2998H67.53Z" fill="url(#paint4_linear)"/>
<path d="M43.2601 66.9399L47.8801 64.4499C49.1701 63.7399 49.9701 62.3799 49.9701 60.9099V42.7499C49.9701 41.0599 51.0301 39.5399 52.6201 38.9599L67.5201 33.5699V29.4799C67.5201 26.8699 65.7801 24.5799 63.2801 23.8699C62.7601 23.7199 62.2301 23.6499 61.6801 23.6499C60.6601 23.6499 59.6701 23.9199 58.7801 24.4199L41.7201 34.1499C39.9601 35.1599 38.8701 37.0199 38.8701 39.0499V64.3299C38.8701 65.9699 40.1901 67.2999 41.8301 67.3099C42.3401 67.2999 42.8301 67.1799 43.2601 66.9399Z" fill="url(#paint5_linear)"/>
<path d="M67.53 67.2998H49.91C48.27 67.3198 46.95 68.6698 46.96 70.2998C46.97 71.3398 47.53 72.3098 48.44 72.8398L58.94 78.7898C59.81 79.2798 60.78 79.5398 61.78 79.5398C62.32 79.5398 62.85 79.4698 63.36 79.3098C65.84 78.6098 67.55 76.3398 67.54 73.7698V67.2998H67.53Z" fill="url(#paint6_linear)"/>
<path opacity="0.15" d="M57.88 33.26H16.3C15.74 33.26 15.29 33.71 15.29 34.27V59.3C15.29 59.86 15.74 60.31 16.3 60.31H57.88C58.44 60.31 58.89 59.86 58.89 59.3V34.27C58.91 33.71 58.45 33.26 57.88 33.26Z" fill="#1F1D20"/>
<path d="M57.88 32.3501H16.3C15.74 32.3501 15.29 32.8001 15.29 33.3601V58.4001C15.29 58.9601 15.74 59.4101 16.3 59.4101H57.88C58.44 59.4101 58.89 58.9601 58.89 58.4001V33.3701C58.91 32.8101 58.45 32.3501 57.88 32.3501Z" fill="#243A5E"/>
<path opacity="0.15" d="M28.24 55.58C33.09 55.58 37.02 51.66 37.02 46.8C37.02 41.95 33.1 38.02 28.24 38.02C23.39 38.02 19.46 41.94 19.46 46.8C19.47 51.66 23.4 55.58 28.24 55.58Z" fill="#1F1D20"/>
<path d="M28.24 54.8C33.09 54.8 37.02 50.88 37.02 46.02C37.02 41.17 33.1 37.24 28.24 37.24C23.39 37.24 19.46 41.16 19.46 46.02C19.47 50.87 23.4 54.8 28.24 54.8Z" fill="white"/>
<path d="M32.5305 49.5902C32.2905 47.4102 30.4205 45.7002 28.1705 45.7002C25.9205 45.7002 24.0805 47.3802 23.8105 49.5302C23.7705 49.6802 23.7705 49.8502 23.7705 49.9902C23.8305 50.6102 24.2505 51.2002 25.0505 51.6702C26.7605 52.6602 29.5705 52.6602 31.2705 51.6702C32.0805 51.2102 32.4805 50.6102 32.5405 49.9902C32.5605 49.8602 32.5405 49.7202 32.5305 49.5902Z" fill="url(#paint7_radial)"/>
<path d="M28.1598 45.0701C29.6198 45.0701 30.8098 43.8901 30.8098 42.4401C30.8098 40.9901 29.6298 39.8101 28.1598 39.8101C26.6898 39.8101 25.5098 40.9801 25.5098 42.4401C25.5098 43.9001 26.6998 45.0701 28.1598 45.0701Z" fill="url(#paint8_radial)"/>
<path d="M53.7997 42.24C53.7997 41.84 53.4697 41.5 53.0597 41.5H41.6697C41.2697 41.5 40.9297 41.83 40.9297 42.24C40.9297 42.64 41.2597 42.98 41.6697 42.98H53.0697C53.4697 42.98 53.7997 42.65 53.7997 42.24Z" fill="#50E6FF"/>
<path d="M43.6797 42.24C43.6797 43.05 44.3397 43.7 45.1397 43.7C45.9497 43.7 46.5997 43.04 46.5997 42.24C46.5997 41.43 45.9397 40.78 45.1397 40.78C44.3297 40.78 43.6797 41.43 43.6797 42.24Z" fill="white"/>
<path d="M53.7997 45.96C53.7997 45.56 53.4697 45.22 53.0597 45.22H41.6697C41.2697 45.22 40.9297 45.55 40.9297 45.96C40.9297 46.36 41.2597 46.7 41.6697 46.7H53.0697C53.4697 46.69 53.7997 46.37 53.7997 45.96Z" fill="#32B0E7"/>
<path d="M48.0898 45.96C48.0898 46.77 48.7498 47.42 49.5498 47.42C50.3598 47.42 51.0098 46.76 51.0098 45.96C51.0098 45.15 50.3498 44.5 49.5498 44.5C48.7398 44.5 48.0898 45.15 48.0898 45.96Z" fill="white"/>
<path d="M53.7997 49.8999C53.7997 49.4999 53.4697 49.1599 53.0597 49.1599H41.6697C41.2697 49.1599 40.9297 49.4899 40.9297 49.8999C40.9297 50.3099 41.2597 50.6399 41.6697 50.6399H53.0697C53.4697 50.6299 53.7997 50.3099 53.7997 49.8999Z" fill="#185A97"/>
<path d="M43.7295 49.9001C43.7295 50.7101 44.3895 51.3601 45.1895 51.3601C45.9995 51.3601 46.6495 50.7001 46.6495 49.9001C46.6495 49.0901 45.9895 48.4401 45.1895 48.4401C44.3895 48.4301 43.7295 49.0901 43.7295 49.9001Z" fill="white"/>
<defs>
<linearGradient id="paint0_linear" x1="49.7309" y1="-13.7902" x2="53.7129" y2="131.98" gradientUnits="userSpaceOnUse">
<stop stop-color="#00ABDE"/>
<stop offset="1" stop-color="#007ED8"/>
</linearGradient>
<linearGradient id="paint1_linear" x1="2.93312" y1="-20.6251" x2="98.4607" y2="120.256" gradientUnits="userSpaceOnUse">
<stop stop-color="#007ED8"/>
<stop offset="0.7065" stop-color="#002D4C"/>
</linearGradient>
<linearGradient id="paint2_linear" x1="73.2602" y1="20.7147" x2="73.2602" y2="75.4344" gradientUnits="userSpaceOnUse">
<stop stop-color="#FFB900"/>
<stop offset="0.17" stop-color="#EF8400"/>
<stop offset="0.31" stop-color="#E25C01"/>
<stop offset="0.43" stop-color="#DB4401"/>
<stop offset="0.5" stop-color="#D83B01"/>
</linearGradient>
<linearGradient id="paint3_linear" x1="63.3914" y1="22.6498" x2="34.4147" y2="64.0262" gradientUnits="userSpaceOnUse">
<stop stop-color="#800600"/>
<stop offset="0.6" stop-color="#C72127"/>
<stop offset="0.73" stop-color="#C13959"/>
<stop offset="0.85" stop-color="#BC4B81"/>
<stop offset="0.94" stop-color="#B95799"/>
<stop offset="1" stop-color="#B85BA2"/>
</linearGradient>
<linearGradient id="paint4_linear" x1="48.584" y1="73.4255" x2="86.4128" y2="73.4255" gradientUnits="userSpaceOnUse">
<stop stop-color="#F32B44"/>
<stop offset="0.6" stop-color="#A4070A"/>
</linearGradient>
<linearGradient id="paint5_linear" x1="63.9832" y1="21.8089" x2="57.8478" y2="30.5687" gradientUnits="userSpaceOnUse">
<stop stop-opacity="0.4"/>
<stop offset="1" stop-opacity="0"/>
</linearGradient>
<linearGradient id="paint6_linear" x1="74.29" y1="74.2781" x2="57.353" y2="72.7996" gradientUnits="userSpaceOnUse">
<stop stop-opacity="0.4"/>
<stop offset="1" stop-opacity="0"/>
</linearGradient>
<radialGradient id="paint7_radial" cx="0" cy="0" r="1" gradientUnits="userSpaceOnUse" gradientTransform="translate(25.6176 41.7436) scale(18.4705)">
<stop stop-color="#4FC2EB"/>
<stop offset="0.585" stop-color="#2E76BC"/>
</radialGradient>
<radialGradient id="paint8_radial" cx="0" cy="0" r="1" gradientUnits="userSpaceOnUse" gradientTransform="translate(25.6149 41.7435) scale(18.4705)">
<stop stop-color="#4FC2EB"/>
<stop offset="0.585" stop-color="#2E76BC"/>
</radialGradient>
</defs>
</svg>
