<svg width="180" height="190" viewBox="0 0 180 190" fill="none" xmlns="https://www.w3.org/2000/svg">
<path d="M89.9999 189C93.0599 189 96.0699 188.15 98.7299 186.53L160.7 148.87C166.24 145.5 169.67 139.17 169.67 132.33V57.6201C169.67 50.8001 166.24 44.4601 160.7 41.0801L98.7299 3.42006C93.4 0.180064 86.5799 0.200064 81.2799 3.42006L19.3099 41.1001C13.7699 44.4701 10.3199 50.8001 10.3199 57.6401V132.34C10.3199 138.1 12.7699 143.52 16.8699 147.09V147.12L81.2799 186.55C83.9199 188.15 86.9399 189 89.9999 189ZM90.6499 7.95006C92.5999 7.95006 95.0799 9.16006 96.7899 10.2101L157.55 47.4001C161.3 49.6801 163.42 56.2801 163.42 61.0301L162.79 132.33C162.79 137.08 159.59 141.35 155.84 143.63L95.4399 180.01C92.0099 182.1 89.2199 182.1 85.7799 180.01L24.5699 143.54C20.8199 141.26 17.7999 137.06 17.7999 132.33V58.6901C17.7999 53.9501 20.5299 49.0601 24.2999 46.7701L84.8799 10.2101C86.5799 9.17006 88.6999 7.95006 90.6499 7.95006Z" fill="#F2F1F0"/>
<path fill-rule="evenodd" clip-rule="evenodd" d="M97.9 11.5298C95.45 10.0298 92.73 9.27979 90 9.27979C87.27 9.27979 84.55 10.0398 82.1 11.5298L25.97 45.8598C20.95 48.9298 17.84 54.6798 17.84 60.9298V129.03C17.84 135.26 20.94 141.03 25.97 144.1L82.1 178.43C84.55 179.93 87.27 180.68 90 180.68C92.73 180.68 95.45 179.94 97.9 178.43L154.03 144.1C159.05 141.03 162.16 135.26 162.16 129.03V60.9298C162.16 54.6998 159.06 48.9498 154.03 45.8598L97.9 11.5298Z" fill="url(#paint0_linear)"/>
<path fill-rule="evenodd" clip-rule="evenodd" d="M90 10.75C91.68 10.75 93.57 11.62 95.63 12.87L154.1 48.41C157.75 50.63 160.16 54.9 160.16 59.73V130.21C160.16 135.03 157.75 139.31 154.1 141.53L95.64 177.07C93.68 178.26 91.76 179.01 90.01 179.01C88.26 179.01 86.34 178.26 84.38 177.07L25.9 141.54C23.89 140.31 22.44 139.11 21.46 137.5C20.48 135.9 19.84 133.68 19.84 130.22V59.74C19.84 54.91 22.25 50.64 25.9 48.42L84.36 12.88C86.45 11.63 88.31 10.75 90 10.75ZM97.71 180.5L156.17 144.96C161.09 141.97 164.15 136.35 164.15 130.22V59.74C164.15 53.61 161.09 47.99 156.17 45L97.71 9.46C95.6 8.18 92.89 6.75 90 6.75C87.1 6.75 84.39 8.19 82.3 9.45H82.29L23.82 45C18.9 47.99 15.84 53.61 15.84 59.74V130.22C15.84 134.18 16.58 137.17 18.04 139.58C19.5 141.98 21.56 143.58 23.82 144.95L82.28 180.49C84.5 181.84 87.17 183.02 89.99 183.02C92.81 183.02 95.49 181.85 97.71 180.5Z" fill="url(#paint1_linear)"/>
<path d="M89.9999 162.04C87.7699 162.04 85.5499 161.41 83.5999 160.21L39.9999 133.55C35.9499 131.09 33.4399 126.44 33.4399 121.42V68.53C33.4399 63.53 35.9499 58.88 39.9999 56.4L83.5799 29.73C87.5199 27.33 92.4899 27.35 96.3799 29.73L140 56.41C144.05 58.9 146.56 63.54 146.56 68.54V121.42C146.56 126.42 144.05 131.07 140 133.55L96.3999 160.22C94.4699 161.41 92.2599 162.04 89.9999 162.04ZM89.9899 28.91C87.9499 28.91 85.9199 29.49 84.1099 30.59L40.5299 57.25C36.7799 59.55 34.4499 63.87 34.4499 68.53V121.42C34.4499 126.09 36.7799 130.41 40.5299 132.7L84.1199 159.37C87.7299 161.58 92.3599 161.55 95.8799 159.37L139.48 132.7C143.23 130.4 145.56 126.08 145.56 121.42V68.54C145.56 63.89 143.23 59.57 139.48 57.26L95.8799 30.58C94.0699 29.49 92.0399 28.91 89.9899 28.91Z" fill="white"/>
<path opacity="0.15" d="M29.72 128.44H107.39C109.57 128.44 111.33 126.67 111.33 124.5V57.8999H25.77V124.5C25.77 126.67 27.54 128.44 29.72 128.44Z" fill="#1F1D20"/>
<path d="M27.4 124.83H109.69C110.59 124.83 111.32 124.1 111.32 123.2V54.29H25.77V123.2C25.77 124.1 26.51 124.83 27.4 124.83Z" fill="#EBEBEB"/>
<path d="M25.77 61.4H111.33V53.73C111.33 53.04 110.77 52.48 110.08 52.48H27.02C26.33 52.48 25.77 53.04 25.77 53.73V61.4Z" fill="#092E4C"/>
<path d="M32.35 59.2902C33.55 59.2902 34.53 58.3202 34.53 57.1102C34.53 55.9002 33.54 54.9502 32.35 54.9502C31.15 54.9502 30.17 55.9202 30.17 57.1302C30.18 58.3402 31.13 59.2902 32.35 59.2902Z" fill="#32B0E7"/>
<path d="M65.95 65.1902L30.7 65.1802C29.78 65.1802 29.03 65.9302 29.03 66.8502V89.8402C29.03 90.7602 29.78 91.5102 30.7 91.5102H65.95C66.87 91.5102 67.62 90.7602 67.62 89.8402V66.8602C67.63 65.9402 66.88 65.1902 65.95 65.1902Z" fill="#F7F7F7"/>
<path d="M65.95 93.7793H30.71C29.79 93.7793 29.04 94.5293 29.04 95.4493V118.439C29.04 119.359 29.79 120.109 30.71 120.109H65.96C66.88 120.109 67.63 119.359 67.63 118.439V95.4493C67.63 94.5293 66.88 93.7793 65.95 93.7793Z" fill="#F7F7F7"/>
<path d="M107.08 93.8105H71.82C70.9 93.8105 70.15 94.5606 70.15 95.4806V118.451C70.15 119.371 70.9 120.121 71.82 120.121H107.08C108 120.121 108.75 119.371 108.75 118.451V95.4806C108.75 94.5506 108.01 93.8105 107.08 93.8105Z" fill="#F7F7F7"/>
<path d="M61.79 73.2695H51.42C50.96 73.2695 50.61 73.6395 50.61 74.0795C50.61 74.5395 50.98 74.8895 51.42 74.8895H61.79C62.25 74.8895 62.6 74.5195 62.6 74.0795C62.6 73.6195 62.22 73.2695 61.79 73.2695Z" fill="#50E6FF"/>
<path d="M61.79 76.7998H51.42C50.96 76.7998 50.61 77.1698 50.61 77.6098C50.61 78.0698 50.98 78.4198 51.42 78.4198H61.79C62.25 78.4198 62.6 78.0498 62.6 77.6098C62.6 77.1798 62.22 76.7998 61.79 76.7998Z" fill="#32B0E7"/>
<path fill-rule="evenodd" clip-rule="evenodd" d="M51.41 80.6406H56.59C57.05 80.6406 57.4 81.0106 57.4 81.4506C57.4 81.9106 57.03 82.2606 56.59 82.2606H51.41C50.95 82.2606 50.6 81.8906 50.6 81.4506C50.6 81.0006 50.96 80.6406 51.41 80.6406Z" fill="#185A97"/>
<path d="M107.08 65.1802H71.82C70.9 65.1802 70.15 65.9302 70.15 66.8502V89.8302C70.15 90.7502 70.9 91.5002 71.82 91.5002H107.08C108 91.5002 108.75 90.7502 108.75 89.8302V66.8502C108.75 65.9302 108.01 65.1802 107.08 65.1802Z" fill="#F7F7F7"/>
<path d="M40.26 111.6H36.65V116.32H40.26V111.6Z" fill="#45CAF2"/>
<path d="M45.64 108.46H41.96V116.33H45.64V108.46Z" fill="#50E6FF"/>
<path d="M52.19 103.359H47.47V116.309H52.19V103.359Z" fill="#32B0E7"/>
<path d="M59.6 98.0898H54.16V116.32H59.6V98.0898Z" fill="#185A97"/>
<path fill-rule="evenodd" clip-rule="evenodd" d="M78.0699 88.6498H78.7699V69.0298H78.0699V88.6498Z" fill="#0065A9"/>
<path fill-rule="evenodd" clip-rule="evenodd" d="M76.57 77.4201C76.57 77.8401 76.18 78.1701 75.7 78.1701C75.22 78.1601 74.83 77.8301 74.83 77.4201C74.83 77.0001 75.22 76.6701 75.7 76.6701C76.19 76.6601 76.57 77.0101 76.57 77.4201Z" fill="#007ACC"/>
<path fill-rule="evenodd" clip-rule="evenodd" d="M76.57 80.8301C76.57 81.2501 76.18 81.5801 75.7 81.5801C75.22 81.5701 74.83 81.2301 74.83 80.8301C74.83 80.4101 75.22 80.0801 75.7 80.0801C76.19 80.0801 76.57 80.4001 76.57 80.8301Z" fill="#0065A9"/>
<path fill-rule="evenodd" clip-rule="evenodd" d="M76.57 84.3801C76.57 84.8001 76.18 85.1301 75.7 85.1301C75.22 85.1301 74.83 84.7901 74.83 84.3801C74.83 83.9601 75.22 83.6301 75.7 83.6301C76.19 83.6201 76.57 83.9701 76.57 84.3801Z" fill="#00527F"/>
<path fill-rule="evenodd" clip-rule="evenodd" d="M88.66 85.1305H81.26C80.92 85.1305 80.66 84.8105 80.66 84.4305C80.66 84.0505 80.93 83.7305 81.26 83.7305H88.66C89 83.7305 89.26 84.0505 89.26 84.4305C89.26 84.8205 88.99 85.1305 88.66 85.1305Z" fill="#00527F"/>
<path fill-rule="evenodd" clip-rule="evenodd" d="M95.9 85.1305H91.35C90.86 85.1305 90.47 84.8105 90.47 84.4305C90.47 84.0505 90.87 83.7305 91.35 83.7305H95.9C96.39 83.7305 96.78 84.0505 96.78 84.4305C96.79 84.8205 96.39 85.1305 95.9 85.1305Z" fill="#00527F"/>
<path fill-rule="evenodd" clip-rule="evenodd" d="M88.37 74.44H81.53C81.04 74.44 80.65 74.12 80.65 73.74C80.65 73.35 81.05 73.04 81.53 73.04H88.37C88.86 73.04 89.25 73.36 89.25 73.74C89.25 74.12 88.85 74.44 88.37 74.44Z" fill="#1F9CF0"/>
<path fill-rule="evenodd" clip-rule="evenodd" d="M88.66 81.5299H81.32C80.96 81.5299 80.67 81.2099 80.67 80.8299C80.67 80.4399 80.96 80.1299 81.32 80.1299H88.66C89.02 80.1299 89.31 80.4499 89.31 80.8299C89.32 81.2099 89.03 81.5299 88.66 81.5299Z" fill="#0065A9"/>
<path fill-rule="evenodd" clip-rule="evenodd" d="M98.26 81.5299H91.13C90.77 81.5299 90.48 81.2099 90.48 80.8299C90.48 80.4399 90.77 80.1299 91.13 80.1299H98.26C98.62 80.1299 98.91 80.4499 98.91 80.8299C98.91 81.2199 98.63 81.5299 98.26 81.5299Z" fill="#0065A9"/>
<path fill-rule="evenodd" clip-rule="evenodd" d="M81.4 78.0602C80.98 78.0602 80.64 77.7402 80.64 77.3602C80.64 76.9802 80.98 76.6602 81.4 76.6602H88.59C89.01 76.6602 89.35 76.9802 89.35 77.3602C89.35 77.7402 89.01 78.0602 88.59 78.0602H81.4Z" fill="#007ACC"/>
<path fill-rule="evenodd" clip-rule="evenodd" d="M102.47 81.5299H95.3399C94.9799 81.5299 94.6899 81.2099 94.6899 80.8299C94.6899 80.4399 94.9799 80.1299 95.3399 80.1299H102.47C102.83 80.1299 103.12 80.4499 103.12 80.8299C103.13 81.2099 102.84 81.5299 102.47 81.5299Z" fill="#0065A9"/>
<path fill-rule="evenodd" clip-rule="evenodd" d="M85.84 107.671L84.3 108.221L84.02 109.171L84.69 110.551L84.78 110.741L83.8 111.691L82.23 110.921L81.29 111.291L80.78 112.741L80.72 112.941L79.36 112.901L78.8 111.241L77.86 110.841L76.48 111.511L76.29 111.601L75.34 110.611L76.11 109.041L75.74 108.091L74.29 107.581L74.09 107.521L74.13 106.161L75.8 105.591L76.2 104.651L75.53 103.271L75.44 103.091L76.42 102.151L77.99 102.931L78.95 102.591L79.44 101.211L79.51 101.141L80.85 101.181L81.42 102.711L82.36 102.991L83.74 102.321L83.93 102.231L84.44 102.771L84.86 103.211L84.78 103.361L84.07 104.781L84.41 105.731L85.79 106.221L85.86 106.291L85.84 107.671ZM80.09 108.821C81.14 108.841 82.01 107.991 82.03 106.951C82.05 105.901 81.21 105.021 80.16 105.011C79.11 104.991 78.23 105.841 78.22 106.891C78.2 107.931 79.04 108.811 80.09 108.821Z" fill="url(#paint2_linear)"/>
<path fill-rule="evenodd" clip-rule="evenodd" d="M87.86 105.5H104.58V102.59H87.86V105.5Z" fill="#50E6FF"/>
<path fill-rule="evenodd" clip-rule="evenodd" d="M87.86 110.551H104.58V107.641H87.86V110.551Z" fill="#50E6FF"/>
<path fill-rule="evenodd" clip-rule="evenodd" d="M87.86 105.5H94.9V102.59H87.86V105.5Z" fill="url(#paint3_linear)"/>
<path fill-rule="evenodd" clip-rule="evenodd" d="M87.86 110.551H99V107.641H87.86V110.551Z" fill="url(#paint4_linear)"/>
<path d="M40.37 81.3898C41.97 81.3898 43.27 80.0898 43.27 78.4898C43.27 76.8898 41.97 75.5898 40.37 75.5898C38.77 75.5898 37.47 76.8898 37.47 78.4898C37.47 80.0898 38.76 81.3898 40.37 81.3898Z" fill="url(#paint5_linear)"/>
<path d="M41.73 77.0801L39.57 79.2401L38.93 78.6001L38.51 79.0301L39.59 80.1101L42.19 77.5301L41.73 77.0801Z" fill="#F2F1F0"/>
<path d="M40.35 70.52C35.95 70.52 32.37 74.09 32.37 78.5C32.37 82.91 35.94 86.48 40.35 86.48C44.76 86.48 48.33 82.91 48.33 78.5C48.31 74.09 44.75 70.52 40.35 70.52ZM40.35 82.22C38.3 82.22 36.63 80.55 36.63 78.5C36.63 76.45 38.3 74.78 40.35 74.78C42.4 74.78 44.07 76.45 44.07 78.5C44.07 80.55 42.4 82.22 40.35 82.22Z" fill="url(#paint6_linear)"/>
<path d="M40.34 74.78L40.32 70.52C37.53 70.53 35.06 71.98 33.64 74.18L37.14 76.62C37.77 75.53 38.97 74.78 40.34 74.78Z" fill="#50E6FF"/>
<path d="M36.64 78.4997C36.64 77.8197 36.82 77.1897 37.13 76.6397L33.65 74.1797L33.64 74.2197C32.86 75.4597 32.39 76.9197 32.39 78.4997C32.39 79.6697 32.65 80.7797 33.1 81.7897L36.98 80.0697C36.75 79.5897 36.64 79.0597 36.64 78.4997Z" fill="#3BCAF4"/>
<path opacity="0.15" d="M98.8899 137.45H151.53C153.58 137.45 155.23 135.79 155.23 133.75V91.8496H95.1899V133.76C95.1899 135.81 96.8399 137.45 98.8899 137.45Z" fill="#1F1D20"/>
<path d="M96.7199 135.591H153.69C154.53 135.591 155.23 134.911 155.23 134.051V89.9707H95.1899V134.071C95.1899 134.911 95.8699 135.591 96.7199 135.591Z" fill="white"/>
<path d="M95.1899 93.7593H155.22V88.9493C155.22 88.3093 154.69 87.7793 154.05 87.7793H96.3599C95.7199 87.7793 95.1899 88.3093 95.1899 88.9493V93.7593Z" fill="#185A97"/>
<path d="M98.33 92.12C99.12 92.12 99.77 91.48 99.77 90.68C99.77 89.88 99.12 89.25 98.33 89.25C97.54 89.25 96.89 89.89 96.89 90.69C96.89 91.49 97.52 92.12 98.33 92.12Z" fill="url(#paint7_linear)"/>
<path opacity="0.15" d="M125.89 127.09H102.1C101.89 127.09 101.71 126.91 101.71 126.69V124.84H126.27V126.69C126.28 126.91 126.1 127.09 125.89 127.09Z" fill="#1F1D20"/>
<path d="M125.51 112.359H120.76V126.619H125.51V112.359Z" fill="#185A97"/>
<path d="M120.75 104.439H106.49V126.629H120.75V104.439Z" fill="#243A5E"/>
<path d="M112.04 113.16H102.53V125.84H112.04V113.16Z" fill="#50E6FF"/>
<path d="M111.25 113.939V125.029H103.34V113.939H111.25ZM112.84 112.359H101.74V126.619H112.84V112.359Z" fill="#32B0E7"/>
<path d="M109.66 115.52H104.91V117.1H109.66V115.52Z" fill="#32B0E7"/>
<path d="M109.66 118.7H104.91V120.28H109.66V118.7Z" fill="#32B0E7"/>
<path d="M109.66 121.87H104.91V123.45H109.66V121.87Z" fill="#32B0E7"/>
<path d="M112.84 107.609H109.67V110.779H112.84V107.609Z" fill="white"/>
<path d="M117.59 107.609H114.42V110.779H117.59V107.609Z" fill="white"/>
<path d="M117.59 112.359H114.42V115.529H117.59V112.359Z" fill="white"/>
<path d="M117.59 117.109H114.42V120.279H117.59V117.109Z" fill="white"/>
<path d="M117.59 121.87H114.42V125.04H117.59V121.87Z" fill="white"/>
<path d="M125.51 123.45C126.39 123.45 127.09 122.74 127.09 121.87C127.09 120.99 126.38 120.29 125.51 120.29C124.64 120.29 123.93 121 123.93 121.87C123.92 122.75 124.64 123.45 125.51 123.45Z" fill="#0078D4"/>
<path d="M127.88 121.87C127.88 120.56 126.81 119.49 125.5 119.49C124.19 119.49 123.12 120.56 123.12 121.87C123.12 122.9 123.78 123.78 124.7 124.11V126.63H126.29V124.11C127.23 123.78 127.88 122.9 127.88 121.87ZM125.5 122.66C125.07 122.66 124.7 122.31 124.7 121.86C124.7 121.43 125.05 121.06 125.5 121.06C125.94 121.06 126.3 121.41 126.3 121.86C126.3 122.3 125.95 122.66 125.5 122.66Z" fill="#50E6FF"/>
<path d="M147.37 109.69C147.37 109.2 146.97 108.8 146.48 108.8H132.69C132.2 108.8 131.8 109.2 131.8 109.69C131.8 110.18 132.2 110.58 132.69 110.58H146.49C146.98 110.57 147.37 110.17 147.37 109.69Z" fill="#50E6FF"/>
<path d="M135.13 109.67C135.13 110.65 135.92 111.44 136.9 111.44C137.88 111.44 138.67 110.65 138.67 109.67C138.67 108.69 137.88 107.9 136.9 107.9C135.92 107.91 135.13 108.7 135.13 109.67Z" fill="#0D3868"/>
<path d="M147.37 114.18C147.37 113.69 146.97 113.29 146.48 113.29H132.69C132.2 113.29 131.8 113.69 131.8 114.18C131.8 114.67 132.2 115.07 132.69 115.07H146.49C146.98 115.07 147.37 114.68 147.37 114.18Z" fill="#32B0E7"/>
<path d="M140.46 114.18C140.46 115.16 141.25 115.95 142.23 115.95C143.21 115.95 144 115.16 144 114.18C144 113.2 143.21 112.41 142.23 112.41C141.26 112.42 140.46 113.2 140.46 114.18Z" fill="#0D3868"/>
<path d="M147.37 118.951C147.37 118.461 146.97 118.061 146.48 118.061H132.69C132.2 118.061 131.8 118.461 131.8 118.951C131.8 119.441 132.2 119.841 132.69 119.841H146.49C146.98 119.831 147.37 119.441 147.37 118.951Z" fill="#185A97"/>
<path d="M135.19 118.95C135.19 119.93 135.98 120.72 136.96 120.72C137.94 120.72 138.73 119.93 138.73 118.95C138.73 117.97 137.94 117.18 136.96 117.18C135.98 117.17 135.19 117.97 135.19 118.95Z" fill="#0D3868"/>
<defs>
<linearGradient id="paint0_linear" x1="90" y1="9.27999" x2="90" y2="180.68" gradientUnits="userSpaceOnUse">
<stop stop-color="#00ABDE"/>
<stop offset="1" stop-color="#007ED8"/>
</linearGradient>
<linearGradient id="paint1_linear" x1="36.1195" y1="4.0713" x2="202.797" y2="286.401" gradientUnits="userSpaceOnUse">
<stop stop-color="#007ED8"/>
<stop offset="0.7065" stop-color="#002D4C"/>
</linearGradient>
<linearGradient id="paint2_linear" x1="65.0461" y1="90.7203" x2="113.334" y2="142.655" gradientUnits="userSpaceOnUse">
<stop stop-color="#007ED8"/>
<stop offset="0.7065" stop-color="#002D4C"/>
</linearGradient>
<linearGradient id="paint3_linear" x1="72.5247" y1="83.7664" x2="120.812" y2="135.7" gradientUnits="userSpaceOnUse">
<stop stop-color="#007ED8"/>
<stop offset="0.7065" stop-color="#002D4C"/>
</linearGradient>
<linearGradient id="paint4_linear" x1="71.1058" y1="85.0855" x2="119.393" y2="137.02" gradientUnits="userSpaceOnUse">
<stop stop-color="#007ED8"/>
<stop offset="0.7065" stop-color="#002D4C"/>
</linearGradient>
<linearGradient id="paint5_linear" x1="55.2429" y1="80.8621" x2="14.7238" y2="74.4012" gradientUnits="userSpaceOnUse">
<stop stop-color="#007ED8"/>
<stop offset="0.7065" stop-color="#002D4C"/>
</linearGradient>
<linearGradient id="paint6_linear" x1="55.2414" y1="80.875" x2="14.7222" y2="74.414" gradientUnits="userSpaceOnUse">
<stop stop-color="#007ED8"/>
<stop offset="0.7065" stop-color="#002D4C"/>
</linearGradient>
<linearGradient id="paint7_linear" x1="96.8899" y1="90.6845" x2="99.7699" y2="90.6845" gradientUnits="userSpaceOnUse">
<stop stop-color="#76C0FD"/>
<stop offset="1" stop-color="#63B2FB"/>
</linearGradient>
</defs>
</svg>
