<svg width="103" height="103" viewBox="0 0 103 103" fill="none" xmlns="http://www.w3.org/2000/svg">
<path d="M51.6845 98.0946C25.8345 98.0946 4.87451 77.1446 4.87451 51.2846C4.87451 25.4246 25.8345 4.47461 51.6845 4.47461C77.5345 4.47461 98.4945 25.4346 98.4945 51.2846C98.4945 77.1346 77.5345 98.0946 51.6845 98.0946Z" fill="url(#paint0_linear)"/>
<path fill-rule="evenodd" clip-rule="evenodd" d="M51.6846 1.28467C79.2946 1.28467 101.685 23.6747 101.685 51.2847C101.685 78.8947 79.2946 101.285 51.6846 101.285C24.0746 101.285 1.68457 78.8947 1.68457 51.2847C1.68457 23.6747 24.0746 1.28467 51.6846 1.28467ZM51.6846 97.0447C76.9546 97.0447 97.4446 76.5547 97.4446 51.2847C97.4446 26.0147 76.9546 5.52467 51.6846 5.52467C26.4146 5.52467 5.92457 26.0147 5.92457 51.2847C5.92457 76.5547 26.4146 97.0447 51.6846 97.0447Z" fill="#D9D9D9"/>
<path fill-rule="evenodd" clip-rule="evenodd" d="M97.5847 51.2845C97.5847 76.6345 77.0347 97.1845 51.6847 97.1845C26.3347 97.1845 5.78468 76.6345 5.78468 51.2845C5.78468 25.9345 26.3347 5.38453 51.6847 5.38453C77.0347 5.38453 97.5847 25.9345 97.5847 51.2845ZM51.6847 1.64453C79.1047 1.64453 101.325 23.8645 101.325 51.2845C101.325 78.7045 79.0947 100.925 51.6847 100.925C24.2647 100.925 2.04468 78.6945 2.04468 51.2845C2.04468 23.8645 24.2647 1.64453 51.6847 1.64453Z" fill="#F2F1F0"/>
<path fill-rule="evenodd" clip-rule="evenodd" d="M51.6845 94.3746C27.8845 94.3746 8.59449 75.0846 8.59449 51.2846C8.59449 27.4846 27.8845 8.19459 51.6845 8.19459C75.4845 8.19459 94.7745 27.4846 94.7745 51.2846C94.7745 75.0846 75.4845 94.3746 51.6845 94.3746ZM98.5145 51.2846C98.5145 77.1446 77.5445 98.1146 51.6845 98.1146C25.8245 98.1146 4.85449 77.1446 4.85449 51.2846C4.85449 25.4246 25.8245 4.45459 51.6845 4.45459C77.5445 4.45459 98.5145 25.4146 98.5145 51.2846Z" fill="url(#paint1_linear)"/>
<path d="M29.1545 68.5844H43.8445C48.3345 68.5844 51.9745 64.9444 51.9745 60.4544V48.3644C51.9745 43.8744 55.6145 40.2344 60.1045 40.2344H67.4745" stroke="#3940AB" stroke-width="2" stroke-miterlimit="10"/>
<path d="M65.8846 40.2344H26.5046" stroke="#3940AB" stroke-width="2" stroke-miterlimit="10"/>
<path d="M77.5445 47.7946C81.5099 47.7946 84.7245 44.58 84.7245 40.6146C84.7245 36.6492 81.5099 33.4346 77.5445 33.4346C73.5791 33.4346 70.3645 36.6492 70.3645 40.6146C70.3645 44.58 73.5791 47.7946 77.5445 47.7946Z" fill="url(#paint2_linear)"/>
<path d="M28.0145 74.6344C31.9799 74.6344 35.1945 71.4198 35.1945 67.4544C35.1945 63.489 31.9799 60.2744 28.0145 60.2744C24.0491 60.2744 20.8345 63.489 20.8345 67.4544C20.8345 71.4198 24.0491 74.6344 28.0145 74.6344Z" fill="url(#paint3_linear)"/>
<path d="M27.6446 47.7946C31.61 47.7946 34.8246 44.58 34.8246 40.6146C34.8246 36.6492 31.61 33.4346 27.6446 33.4346C23.6792 33.4346 20.4646 36.6492 20.4646 40.6146C20.4646 44.58 23.6792 47.7946 27.6446 47.7946Z" fill="url(#paint4_linear)"/>
<path d="M63.1145 36.3945L69.5745 40.0745L63.1145 43.8145V36.3945Z" fill="#3940AB"/>
<defs>
<linearGradient id="paint0_linear" x1="36.6271" y1="0.84561" x2="66.8634" y2="102.137" gradientUnits="userSpaceOnUse">
<stop stop-color="#C1C7FF"/>
<stop offset="1" stop-color="#9DA4FF"/>
</linearGradient>
<linearGradient id="paint1_linear" x1="51.6846" y1="4.45459" x2="51.6846" y2="98.1146" gradientUnits="userSpaceOnUse">
<stop stop-color="#5A62C3"/>
<stop offset="0.5" stop-color="#4D55BD"/>
<stop offset="1" stop-color="#3940AB"/>
</linearGradient>
<linearGradient id="paint2_linear" x1="61.3376" y1="7.72328" x2="90.251" y2="66.4004" gradientUnits="userSpaceOnUse">
<stop stop-color="#007ED8"/>
<stop offset="0.7065" stop-color="#002D4C"/>
</linearGradient>
<linearGradient id="paint3_linear" x1="11.0421" y1="32.9991" x2="39.9555" y2="91.6763" gradientUnits="userSpaceOnUse">
<stop stop-color="#007ED8"/>
<stop offset="0.7065" stop-color="#002D4C"/>
</linearGradient>
<linearGradient id="paint4_linear" x1="21.3776" y1="27.9065" x2="50.291" y2="86.5837" gradientUnits="userSpaceOnUse">
<stop stop-color="#007ED8"/>
<stop offset="0.7065" stop-color="#002D4C"/>
</linearGradient>
</defs>
</svg>
