<svg width="181" height="191" viewBox="0 0 181 191" fill="none" xmlns="http://www.w3.org/2000/svg">
<path d="M90.9424 189.371C94.0241 189.366 97.0453 188.511 99.6729 186.901L161.673 149.241C164.46 147.481 166.75 145.037 168.325 142.142C169.901 139.247 170.709 135.997 170.673 132.701V57.9609C170.706 54.6656 169.896 51.4162 168.321 48.5215C166.746 45.6268 164.458 43.1827 161.673 41.4209L99.6729 3.76074C97.0387 2.17536 94.0227 1.33789 90.9482 1.33789C87.8738 1.33789 84.8568 2.17536 82.2227 3.76074L20.2227 41.4409C17.4363 43.2013 15.1466 45.645 13.5713 48.54C11.996 51.4351 11.1874 54.6853 11.2227 57.981V132.681C11.2042 135.464 11.7788 138.218 12.9082 140.762C14.0376 143.305 15.6957 145.579 17.7725 147.431L82.1826 186.861C84.8165 188.487 87.8472 189.355 90.9424 189.371V189.371ZM91.5928 8.3208C93.5928 8.3208 96.0224 9.53105 97.7324 10.5811L158.493 47.771C162.243 50.051 164.362 56.6509 164.362 61.4009L163.732 132.701C163.732 137.451 160.533 141.701 156.783 144.001L96.3828 180.381C92.9528 182.471 90.1627 182.471 86.7227 180.381L25.5127 143.961C21.7627 141.681 18.7432 137.481 18.7432 132.751V59.061C18.775 56.6953 19.3829 54.3731 20.5156 52.2959C21.6483 50.2187 23.2717 48.4492 25.2432 47.1411L85.8232 10.5811C87.5232 9.54105 89.6428 8.3208 91.5928 8.3208Z" fill="#F2F1F0"/>
<path fill-rule="evenodd" clip-rule="evenodd" d="M98.8423 11.9014C96.4695 10.4313 93.7332 9.65234 90.9419 9.65234C88.1507 9.65234 85.4153 10.4313 83.0425 11.9014L26.9126 46.2314C24.386 47.8428 22.313 50.073 20.8902 52.7104C19.4673 55.3479 18.742 58.3048 18.7828 61.3013V129.401C18.7429 132.398 19.4684 135.354 20.8912 137.992C22.3139 140.629 24.3867 142.859 26.9126 144.471L83.0425 178.801C85.4153 180.271 88.1507 181.05 90.9419 181.05C93.7332 181.05 96.4695 180.271 98.8423 178.801L154.972 144.471C157.497 142.858 159.568 140.627 160.991 137.99C162.413 135.353 163.14 132.397 163.102 129.401V61.3013C163.14 58.3053 162.413 55.3493 160.991 52.7124C159.568 50.0755 157.497 47.8449 154.972 46.2314L98.8423 11.9014Z" fill="url(#paint0_linear)"/>
<path fill-rule="evenodd" clip-rule="evenodd" d="M90.9418 11.1211C92.6218 11.1211 94.5127 11.9907 96.5727 13.2407L155.042 48.7808C156.934 49.9938 158.485 51.6709 159.545 53.6523C160.606 55.6338 161.142 57.8539 161.102 60.1011V130.581C161.141 132.828 160.605 135.048 159.544 137.029C158.484 139.01 156.934 140.687 155.042 141.901L96.5824 177.441C94.9749 178.698 92.9931 179.381 90.9525 179.381C88.912 179.381 86.9302 178.698 85.3227 177.441L26.8422 141.961C25.0596 141.008 23.5354 139.635 22.4018 137.961C21.4018 136.361 20.7826 134.141 20.7826 130.681V60.2012C20.7429 57.954 21.2785 55.7339 22.3393 53.7524C23.4 51.771 24.9501 50.0939 26.8422 48.8809L85.3022 13.3408C87.3922 11.9608 89.2518 11.1211 90.9418 11.1211ZM98.6518 180.871L157.112 145.331C159.594 143.763 161.634 141.585 163.035 139.004C164.435 136.423 165.15 133.527 165.112 130.591V60.1108C165.15 57.1749 164.435 54.2784 163.035 51.6978C161.634 49.1172 159.594 46.939 157.112 45.3711L98.6518 9.83105C96.5418 8.55105 93.8318 7.12109 90.9418 7.12109C88.0518 7.12109 85.3326 8.5608 83.2426 9.8208L24.7719 45.3711C22.2894 46.939 20.2506 49.1172 18.85 51.6978C17.4494 54.2784 16.7338 57.1749 16.7719 60.1108V130.591C16.6196 133.855 17.3817 137.097 18.9721 139.951C20.4271 142.19 22.4128 144.034 24.7524 145.321L83.2123 180.861C85.4471 182.509 88.1506 183.398 90.9272 183.398C93.7037 183.398 96.4072 182.509 98.642 180.861L98.6518 180.871Z" fill="url(#paint1_linear)"/>
<path opacity="0.15" d="M138.843 119.771H45.8427C41.9983 119.765 38.2682 118.465 35.2518 116.082C32.2354 113.698 30.1082 110.37 29.2128 106.631C28.9128 107.901 28.7225 105.571 28.7225 106.941C28.7278 111.48 30.5336 115.831 33.743 119.041C36.9525 122.25 41.3038 124.056 45.8427 124.061H138.843C143.382 124.056 147.733 122.25 150.942 119.041C154.152 115.831 155.957 111.48 155.963 106.941C155.963 105.571 155.773 107.941 155.473 106.631C154.577 110.37 152.45 113.698 149.433 116.082C146.417 118.465 142.687 119.765 138.843 119.771V119.771Z" fill="#1F1D20"/>
<path opacity="0.25" d="M45.8424 119.772C41.4828 119.833 37.2645 118.224 34.0534 115.275C30.8423 112.326 28.8822 108.259 28.5739 103.91C28.2656 99.5611 29.6332 95.2586 32.3961 91.8858C35.1591 88.513 39.1076 86.3254 43.4323 85.7715C42.7357 83.0154 42.3801 80.1841 42.3727 77.3414C42.3833 69.7189 44.9386 62.3183 49.6344 56.314C54.3302 50.3097 60.8973 46.0454 68.2926 44.1983C75.688 42.3512 83.4881 43.027 90.4557 46.1182C97.4233 49.2094 103.159 54.5389 106.753 61.2613C109.703 59.8366 112.936 59.095 116.213 59.0914C121.883 59.0966 127.32 61.3501 131.332 65.358C135.343 69.3658 137.601 74.8007 137.612 80.4712C137.601 82.2472 137.383 84.0159 136.963 85.7413C137.607 85.6711 138.254 85.6412 138.902 85.6514C141.139 85.6311 143.358 86.0527 145.432 86.8916C148.554 88.1612 151.223 90.3355 153.098 93.1353C154.973 95.9351 155.968 99.2321 155.953 102.602C155.95 107.14 154.145 111.492 150.934 114.701C147.724 117.909 143.371 119.711 138.833 119.711L45.8424 119.772Z" fill="url(#paint2_linear)"/>
<path d="M45.8422 120.771C41.3687 120.764 37.0566 119.098 33.7406 116.095C30.4247 113.093 28.3402 108.967 27.891 104.516C27.4418 100.065 28.6599 95.6055 31.309 92.0007C33.9581 88.3959 37.8499 85.9018 42.2319 85.0012C41.6831 82.4947 41.4017 79.9372 41.392 77.3713C41.4026 69.6061 43.9802 62.0619 48.7231 55.9133C53.466 49.7648 60.1085 45.3565 67.6166 43.3748C75.1248 41.393 83.0773 41.9493 90.2367 44.9563C97.3962 47.9633 103.361 53.2526 107.203 60.0012C110.044 58.7707 113.106 58.1312 116.203 58.1213C122.138 58.1293 127.827 60.4891 132.026 64.6838C136.224 68.8786 138.589 74.5663 138.602 80.5012C138.595 81.9038 138.461 83.3029 138.203 84.6814H138.913C142.479 84.6766 145.965 85.7307 148.931 87.7107C151.897 89.6907 154.208 92.5071 155.571 95.8025C156.933 99.0979 157.287 102.724 156.585 106.22C155.884 109.717 154.16 112.926 151.632 115.441C149.951 117.124 147.954 118.459 145.755 119.368C143.557 120.278 141.202 120.744 138.823 120.741H45.8227L45.8422 120.771ZM76.5619 44.2014C73.8644 44.2056 71.1775 44.5415 68.5619 45.2014C61.3797 46.9905 55.0018 51.1297 50.4428 56.9607C45.8838 62.7917 43.4054 69.9794 43.4018 77.3811C43.3999 80.1417 43.7357 82.892 44.4018 85.5711L44.6723 86.6414L43.5727 86.801C39.5174 87.3387 35.819 89.403 33.2328 92.5725C30.6467 95.742 29.3668 99.7785 29.6537 103.859C29.9407 107.94 31.7735 111.757 34.7778 114.533C37.782 117.31 41.7321 118.836 45.8227 118.801V118.801H138.823C143.095 118.798 147.192 117.101 150.214 114.08C153.237 111.06 154.937 106.964 154.942 102.691C154.956 100.585 154.549 98.497 153.743 96.551C152.936 94.6056 151.753 92.8387 150.262 91.3513C148.765 89.8738 146.991 88.7058 145.041 87.9148C143.092 87.1238 141.005 86.7249 138.902 86.741C138.284 86.7323 137.667 86.759 137.052 86.8211L135.642 86.971L135.982 85.5911C136.38 83.9538 136.588 82.276 136.602 80.5911C136.589 75.1866 134.435 70.0075 130.612 66.1878C126.788 62.368 121.607 60.2191 116.203 60.2112C113.086 60.2218 110.011 60.9289 107.203 62.281L106.342 62.7014L105.892 61.8513C103.057 56.5382 98.8294 52.0966 93.6625 49.0032C88.4956 45.9097 82.5841 44.281 76.5619 44.2913V44.2014Z" fill="white"/>
<path opacity="0.25" d="M42.6122 81.4209C42.4519 82.7184 42.3622 84.0238 42.3427 85.3311V85.9907C42.6722 85.9088 43.006 85.8455 43.3427 85.8008C43 84.3591 42.7557 82.8958 42.6122 81.4209V81.4209Z" fill="url(#paint3_linear)"/>
<path opacity="0.15" d="M116.093 129.961L84.9823 148.141L53.8427 129.961L84.953 111.871L116.093 129.961Z" fill="#1F1D20"/>
<path d="M116.093 90.2607V126.321L85.0927 144.501V108.361L116.093 90.2607Z" fill="#35AFE4"/>
<path d="M116.093 90.2612L85.0927 108.361L53.8427 90.2612L84.953 72.1816L116.093 90.2612Z" fill="#4BC8EF"/>
<path d="M85.0526 108.361V144.501L53.8427 126.311V90.2607L85.0526 108.361Z" fill="#2E76BC"/>
<path d="M53.8427 126.312L85.0331 108.312V144.452L53.8427 126.312Z" fill="#175A98"/>
<path d="M116.093 126.321L85.0927 108.321V144.461L116.093 126.321Z" fill="#166BB3"/>
<path opacity="0.15" fill-rule="evenodd" clip-rule="evenodd" d="M70.4423 121.481H59.4423C59.0797 121.484 58.7328 121.629 58.4764 121.886C58.2201 122.142 58.0757 122.489 58.0731 122.852V138.591C58.0679 138.955 57.9199 139.302 57.662 139.558C57.404 139.814 57.0557 139.959 56.6923 139.961H45.8427C45.1176 139.954 44.4248 139.661 43.9139 139.146C43.4031 138.631 43.1148 137.937 43.1122 137.211V138.591C43.1174 139.313 43.4077 140.003 43.9188 140.513C44.4299 141.022 45.1211 141.309 45.8427 141.312H70.4725C71.194 141.309 71.8852 141.022 72.3964 140.513C72.9075 140.003 73.1977 139.313 73.203 138.591V118.731C73.2043 119.094 73.1334 119.453 72.995 119.788C72.8566 120.122 72.653 120.427 72.3964 120.683C72.1397 120.938 71.8353 121.141 71.4999 121.278C71.1645 121.415 70.8046 121.484 70.4423 121.481Z" fill="#1F1D20"/>
<path fill-rule="evenodd" clip-rule="evenodd" d="M73.1727 137.451C73.1675 138.174 72.8779 138.865 72.3671 139.375C71.8562 139.886 71.1647 140.176 70.4423 140.181H45.8427C45.1202 140.176 44.4287 139.886 43.9178 139.375C43.407 138.865 43.1174 138.174 43.1122 137.451V116.961H73.203L73.1727 137.451Z" fill="#30404D"/>
<path fill-rule="evenodd" clip-rule="evenodd" d="M73.1727 116.962C73.1701 117.685 72.8814 118.378 72.37 118.89C71.8586 119.401 71.1655 119.689 70.4423 119.692H45.8427C45.1186 119.692 44.424 119.404 43.912 118.892C43.4 118.38 43.1122 117.686 43.1122 116.962V114.242C43.1148 113.518 43.4035 112.826 43.9149 112.314C44.4263 111.803 45.1194 111.514 45.8427 111.512H70.4725C71.1958 111.514 71.8889 111.803 72.4003 112.314C72.9117 112.826 73.2004 113.518 73.203 114.242L73.1727 116.962Z" fill="#556670"/>
<path fill-rule="evenodd" clip-rule="evenodd" d="M70.4423 120.352H59.4423C59.0797 120.354 58.7328 120.499 58.4764 120.755C58.2201 121.012 58.0757 121.359 58.0731 121.721V137.452C58.0679 137.815 57.9199 138.162 57.662 138.418C57.404 138.674 57.0557 138.819 56.6923 138.821H45.8427C45.1193 138.813 44.4284 138.522 43.9178 138.01C43.4073 137.497 43.1174 136.805 43.1122 136.082V137.452C43.1174 138.174 43.407 138.865 43.9178 139.376C44.4287 139.887 45.1202 140.176 45.8427 140.182H70.4725C71.1958 140.179 71.8889 139.89 72.4003 139.379C72.9117 138.868 73.2004 138.175 73.203 137.452V117.602C73.203 117.964 73.1309 118.322 72.9921 118.656C72.8532 118.991 72.6499 119.294 72.3934 119.549C72.137 119.805 71.8327 120.007 71.4979 120.145C71.1631 120.283 70.8042 120.353 70.4423 120.352V120.352Z" fill="#182A37"/>
<path fill-rule="evenodd" clip-rule="evenodd" d="M58.1225 125.342C57.251 125.338 56.3978 125.593 55.6714 126.074C54.9449 126.556 54.3783 127.242 54.0425 128.046C53.7067 128.851 53.6163 129.737 53.7846 130.592C53.953 131.447 54.3722 132.233 54.9878 132.85C55.6033 133.467 56.3879 133.887 57.2426 134.057C58.0974 134.227 58.9836 134.14 59.7885 133.806C60.5935 133.472 61.281 132.907 61.7641 132.181C62.2473 131.456 62.5044 130.603 62.5024 129.732C62.5037 129.156 62.3909 128.585 62.1714 128.053C61.9518 127.52 61.63 127.036 61.2231 126.628C60.8163 126.221 60.3323 125.897 59.8003 125.676C59.2682 125.456 58.6986 125.342 58.1225 125.342V125.342Z" fill="#74CFEB"/>
<path fill-rule="evenodd" clip-rule="evenodd" d="M51.9725 115.562C51.9725 116.692 50.743 117.622 49.243 117.622C47.743 117.622 46.5126 116.692 46.5126 115.562C46.5126 114.432 47.743 113.502 49.243 113.502C50.743 113.502 51.9725 114.412 51.9725 115.562Z" fill="#182A37"/>
<path fill-rule="evenodd" clip-rule="evenodd" d="M69.7626 115.562C69.7626 116.692 68.5331 117.622 67.0331 117.622C65.5331 117.622 64.3026 116.712 64.3026 115.562C64.3026 114.412 65.5331 113.502 67.0331 113.502C68.5331 113.502 69.7626 114.412 69.7626 115.562Z" fill="#182A37"/>
<path fill-rule="evenodd" clip-rule="evenodd" d="M58.1229 96.4014C55.2055 96.4014 52.4075 97.5601 50.3446 99.623C48.2817 101.686 47.1229 104.484 47.1229 107.401V116.961C47.7028 117.436 48.4331 117.688 49.1825 117.671C49.9309 117.682 50.6602 117.431 51.243 116.961V107.412C51.2079 106.493 51.3583 105.577 51.6854 104.719C52.0126 103.86 52.5091 103.076 53.1464 102.414C53.7836 101.752 54.5479 101.225 55.3934 100.865C56.239 100.505 57.1483 100.32 58.0673 100.32C58.9862 100.32 59.8965 100.505 60.7421 100.865C61.5876 101.225 62.3519 101.752 62.9891 102.414C63.6264 103.076 64.1229 103.86 64.4501 104.719C64.7772 105.577 64.9276 106.493 64.8925 107.412V115.611C64.8925 116.351 65.803 116.981 66.953 116.981C68.103 116.981 69.0126 116.371 69.0126 115.611V107.412C69.0231 105.973 68.7499 104.546 68.2079 103.213C67.6658 101.881 66.8651 100.668 65.8534 99.645C64.8416 98.6221 63.6381 97.8091 62.3114 97.2524C60.9847 96.6958 59.5617 96.4066 58.1229 96.4014V96.4014Z" fill="#30404D"/>
<path fill-rule="evenodd" clip-rule="evenodd" d="M54.1923 101.022C52.9077 101.589 51.8182 102.52 51.0575 103.7C50.2968 104.88 49.899 106.258 49.913 107.662V114.662C49.9127 114.872 49.8639 115.08 49.7704 115.268C49.6769 115.457 49.5412 115.621 49.3739 115.749C49.2066 115.876 49.0121 115.964 48.8055 116.005C48.599 116.045 48.3856 116.037 48.1825 115.982C47.8191 115.899 47.478 115.738 47.1825 115.511V116.892C47.7671 117.357 48.496 117.604 49.243 117.591C49.4749 117.592 49.7056 117.569 49.9325 117.522C50.0708 117.496 50.2078 117.462 50.3427 117.422C50.407 117.411 50.4681 117.388 50.5223 117.352C50.6146 117.321 50.7029 117.276 50.7831 117.221L50.913 117.151L51.2831 116.901V107.372C51.2821 105.675 51.9113 104.038 53.0497 102.779C54.1881 101.521 55.7536 100.73 57.4423 100.562C56.3372 100.41 55.2118 100.569 54.1923 101.022Z" fill="#182A37"/>
<path fill-rule="evenodd" clip-rule="evenodd" d="M58.1327 96.4014C57.9027 96.4014 57.6623 96.4014 57.4423 96.4014C60.2191 96.5744 62.8263 97.799 64.7323 99.8258C66.6383 101.853 67.7008 104.529 67.703 107.312V114.622C67.7027 114.832 67.6539 115.04 67.5604 115.228C67.467 115.417 67.3313 115.581 67.1639 115.709C66.9966 115.836 66.8021 115.924 66.5956 115.964C66.389 116.005 66.1756 115.997 65.9725 115.941C65.6098 115.857 65.269 115.697 64.9725 115.471V116.852C65.5632 117.306 66.288 117.552 67.0331 117.552C67.7782 117.552 68.5019 117.306 69.0927 116.852V107.312C69.0913 105.875 68.8066 104.453 68.2548 103.127C67.7029 101.8 66.895 100.596 65.8768 99.5821C64.8587 98.5686 63.65 97.7661 62.3212 97.2203C60.9923 96.6745 59.5692 96.3962 58.1327 96.4014V96.4014Z" fill="#182A37"/>
<path opacity="0.15" d="M142.213 146.091H98.4022C98.1103 146.093 97.8216 146.036 97.5517 145.925C97.2817 145.814 97.0364 145.651 96.83 145.444C96.6236 145.238 96.4596 144.993 96.3485 144.723C96.2374 144.453 96.1812 144.164 96.1825 143.872V103.361C96.1812 103.069 96.2374 102.78 96.3485 102.51C96.4596 102.24 96.6236 101.995 96.83 101.789C97.0364 101.582 97.2817 101.419 97.5517 101.308C97.8216 101.197 98.1103 101.14 98.4022 101.142H142.213C142.504 101.142 142.792 101.199 143.06 101.311C143.329 101.422 143.574 101.586 143.779 101.793C143.985 101.999 144.147 102.243 144.258 102.513C144.368 102.782 144.424 103.07 144.423 103.361V143.892C144.418 144.475 144.183 145.033 143.769 145.445C143.356 145.857 142.796 146.089 142.213 146.091V146.091Z" fill="#1F1D20"/>
<path opacity="0.15" d="M142.213 143.271H98.4022C97.8152 143.271 97.2529 143.038 96.8368 142.624C96.4208 142.21 96.1852 141.648 96.1825 141.061V100.511C96.1812 100.219 96.2374 99.9296 96.3485 99.6597C96.4596 99.3898 96.6236 99.1444 96.83 98.938C97.0364 98.7316 97.2817 98.5682 97.5517 98.4571C97.8216 98.346 98.1103 98.2897 98.4022 98.291H142.213C142.504 98.291 142.792 98.3483 143.06 98.46C143.329 98.5717 143.574 98.7356 143.779 98.9419C143.985 99.1482 144.147 99.3928 144.258 99.6621C144.368 99.9314 144.424 100.22 144.423 100.511V141.041C144.423 141.629 144.19 142.193 143.776 142.611C143.362 143.028 142.801 143.266 142.213 143.271V143.271Z" fill="#1F1D20"/>
<path d="M142.213 143.251H98.4022C98.1112 143.253 97.8229 143.196 97.5536 143.086C97.2843 142.975 97.0401 142.813 96.8339 142.608C96.6276 142.403 96.4631 142.158 96.3514 141.89C96.2398 141.621 96.1825 141.333 96.1825 141.042V100.522C96.1825 100.23 96.2398 99.9421 96.3514 99.6734C96.4631 99.4046 96.6276 99.1604 96.8339 98.9551C97.0401 98.7498 97.2843 98.5871 97.5536 98.4766C97.8229 98.3661 98.1112 98.3102 98.4022 98.3115H142.213C142.503 98.3102 142.792 98.3665 143.06 98.4771C143.329 98.5877 143.573 98.7501 143.778 98.9556C143.984 99.1611 144.146 99.4056 144.257 99.6743C144.367 99.9431 144.424 100.231 144.423 100.522V141.062C144.417 141.644 144.182 142.201 143.768 142.611C143.355 143.021 142.795 143.252 142.213 143.251V143.251Z" fill="white"/>
<path d="M129.902 111.412C129.902 110.932 129.712 110.471 129.373 110.131C129.033 109.792 128.573 109.602 128.093 109.602H106.362C105.882 109.602 105.422 109.792 105.083 110.131C104.743 110.471 104.553 110.932 104.553 111.412C104.553 111.892 104.743 112.352 105.083 112.691C105.422 113.031 105.882 113.221 106.362 113.221H128.112C128.589 113.216 129.045 113.023 129.38 112.684C129.715 112.345 129.902 111.888 129.902 111.412V111.412Z" fill="url(#paint4_linear)"/>
<path d="M136.053 111.412C136.054 111.174 136.009 110.938 135.918 110.717C135.828 110.497 135.694 110.297 135.526 110.128C135.357 109.96 135.157 109.827 134.937 109.736C134.716 109.646 134.481 109.6 134.243 109.602H128.333C127.333 109.602 127.983 110.412 127.983 111.412C127.983 112.412 127.353 113.221 128.333 113.221H134.263C134.738 113.211 135.191 113.017 135.525 112.679C135.859 112.341 136.048 111.887 136.053 111.412V111.412Z" fill="#9A9AA0"/>
<path d="M125.413 111.412C125.413 112.125 125.624 112.821 126.02 113.414C126.417 114.006 126.981 114.467 127.64 114.739C128.299 115.011 129.024 115.082 129.723 114.941C130.421 114.8 131.063 114.455 131.565 113.95C132.068 113.444 132.409 112.801 132.546 112.102C132.682 111.402 132.608 110.678 132.333 110.02C132.057 109.363 131.593 108.801 130.998 108.408C130.403 108.015 129.706 107.808 128.993 107.812C128.522 107.813 128.055 107.907 127.62 108.088C127.185 108.27 126.789 108.536 126.457 108.87C126.124 109.204 125.862 109.601 125.683 110.037C125.503 110.473 125.412 110.94 125.413 111.412V111.412Z" fill="#74CFEB"/>
<path d="M123.232 120.511C123.234 120.273 123.188 120.037 123.098 119.817C123.007 119.597 122.874 119.396 122.706 119.228C122.538 119.06 122.337 118.926 122.117 118.836C121.897 118.745 121.661 118.7 121.423 118.701H106.362C106.124 118.701 105.889 118.748 105.67 118.839C105.45 118.93 105.251 119.063 105.083 119.231C104.915 119.399 104.781 119.599 104.69 119.818C104.599 120.038 104.553 120.273 104.553 120.511C104.553 120.748 104.599 120.984 104.69 121.204C104.781 121.423 104.915 121.623 105.083 121.791C105.251 121.959 105.45 122.092 105.67 122.183C105.889 122.274 106.124 122.321 106.362 122.321H121.453C121.928 122.313 122.38 122.119 122.713 121.78C123.046 121.442 123.232 120.986 123.232 120.511Z" fill="url(#paint5_linear)"/>
<path d="M136.053 120.511C136.054 120.273 136.008 120.037 135.918 119.817C135.827 119.597 135.694 119.396 135.525 119.228C135.357 119.06 135.157 118.926 134.936 118.836C134.716 118.745 134.481 118.7 134.243 118.701H122.522C122.285 118.701 122.05 118.748 121.83 118.839C121.61 118.93 121.411 119.063 121.243 119.231C121.075 119.399 120.941 119.599 120.85 119.818C120.76 120.038 120.713 120.273 120.713 120.511C120.713 120.748 120.76 120.984 120.85 121.204C120.941 121.423 121.075 121.623 121.243 121.791C121.411 121.959 121.61 122.092 121.83 122.183C122.05 122.274 122.285 122.321 122.522 122.321H134.263C134.738 122.31 135.19 122.116 135.524 121.778C135.858 121.441 136.048 120.986 136.053 120.511V120.511Z" fill="#9A9AA0"/>
<path d="M117.543 120.511C117.543 121.226 117.755 121.924 118.152 122.518C118.549 123.112 119.113 123.575 119.773 123.848C120.434 124.121 121.16 124.191 121.86 124.051C122.561 123.911 123.204 123.566 123.709 123.061C124.213 122.555 124.556 121.91 124.694 121.209C124.832 120.509 124.76 119.783 124.485 119.123C124.21 118.464 123.746 117.9 123.151 117.505C122.556 117.109 121.857 116.899 121.142 116.901C120.669 116.901 120.2 116.995 119.763 117.176C119.325 117.358 118.928 117.624 118.594 117.959C118.259 118.295 117.994 118.693 117.813 119.131C117.633 119.569 117.542 120.038 117.543 120.511V120.511Z" fill="#34AEE4"/>
<path d="M114.843 130.152C114.843 129.672 114.652 129.212 114.312 128.872C113.973 128.533 113.513 128.342 113.033 128.342H106.362C105.882 128.342 105.422 128.533 105.083 128.872C104.743 129.212 104.553 129.672 104.553 130.152C104.553 130.632 104.743 131.092 105.083 131.432C105.422 131.771 105.882 131.962 106.362 131.962H113.033C113.511 131.954 113.966 131.761 114.304 131.423C114.641 131.086 114.835 130.629 114.843 130.152V130.152Z" fill="url(#paint6_linear)"/>
<path d="M136.053 130.152C136.054 129.915 136.009 129.68 135.919 129.46C135.829 129.24 135.696 129.041 135.529 128.873C135.362 128.704 135.163 128.571 134.944 128.48C134.725 128.389 134.49 128.342 134.253 128.342H114.843C114.363 128.342 113.902 128.533 113.562 128.872C113.223 129.212 113.033 129.672 113.033 130.152C113.033 130.632 113.223 131.092 113.562 131.432C113.902 131.771 114.363 131.962 114.843 131.962H134.283C134.754 131.944 135.199 131.746 135.528 131.41C135.857 131.073 136.045 130.623 136.053 130.152V130.152Z" fill="#9A9AA0"/>
<path d="M110.123 130.151C110.121 130.865 110.331 131.564 110.726 132.159C111.122 132.754 111.685 133.218 112.345 133.493C113.004 133.768 113.73 133.841 114.431 133.703C115.131 133.565 115.776 133.222 116.282 132.717C116.788 132.213 117.132 131.57 117.272 130.869C117.412 130.169 117.342 129.442 117.069 128.782C116.796 128.122 116.333 127.557 115.739 127.16C115.145 126.763 114.447 126.551 113.732 126.551C113.258 126.548 112.789 126.64 112.35 126.819C111.912 126.999 111.513 127.264 111.178 127.599C110.842 127.933 110.576 128.332 110.395 128.77C110.214 129.208 110.122 129.677 110.123 130.151V130.151Z" fill="#2E77BC"/>
<defs>
<linearGradient id="paint0_linear" x1="90.9424" y1="9.65127" x2="90.9424" y2="181.051" gradientUnits="userSpaceOnUse">
<stop stop-color="#00ABDE"/>
<stop offset="1" stop-color="#2E7BBF"/>
</linearGradient>
<linearGradient id="paint1_linear" x1="37.0619" y1="4.44109" x2="203.742" y2="286.771" gradientUnits="userSpaceOnUse">
<stop stop-color="#2E7BBF"/>
<stop offset="0.71" stop-color="#092D4C"/>
</linearGradient>
<linearGradient id="paint2_linear" x1="89.5428" y1="-10.4088" x2="92.8928" y2="125.812" gradientUnits="userSpaceOnUse">
<stop offset="0.57" stop-color="white" stop-opacity="0"/>
<stop offset="0.78" stop-color="white" stop-opacity="0.43"/>
<stop offset="0.9" stop-color="white" stop-opacity="0.5"/>
<stop offset="1" stop-color="white"/>
</linearGradient>
<linearGradient id="paint3_linear" x1="9927.22" y1="14889.4" x2="9935.65" y2="14906.2" gradientUnits="userSpaceOnUse">
<stop offset="0.57" stop-color="white" stop-opacity="0"/>
<stop offset="0.78" stop-color="white" stop-opacity="0.43"/>
<stop offset="0.9" stop-color="white" stop-opacity="0.5"/>
<stop offset="1" stop-color="white"/>
</linearGradient>
<linearGradient id="paint4_linear" x1="116.502" y1="109.372" x2="131.36" y2="151.278" gradientUnits="userSpaceOnUse">
<stop stop-color="#145490"/>
<stop offset="0.42" stop-color="#243A5E"/>
<stop offset="0.97" stop-color="#1A2C45"/>
</linearGradient>
<linearGradient id="paint5_linear" x1="186034" y1="11748.4" x2="186044" y2="11613.4" gradientUnits="userSpaceOnUse">
<stop stop-color="#145490"/>
<stop offset="0.42" stop-color="#243A5E"/>
<stop offset="0.97" stop-color="#1A2C45"/>
</linearGradient>
<linearGradient id="paint6_linear" x1="102478" y1="11730.4" x2="102489" y2="11640.1" gradientUnits="userSpaceOnUse">
<stop stop-color="#145490"/>
<stop offset="0.42" stop-color="#243A5E"/>
<stop offset="0.97" stop-color="#1A2C45"/>
</linearGradient>
</defs>
</svg>
