<svg width="103" height="103" viewBox="0 0 103 103" fill="none" xmlns="http://www.w3.org/2000/svg">
<path d="M51.9423 97.9178C26.0923 97.9178 5.13232 76.9679 5.13232 51.1079C5.13232 25.2479 26.0923 4.29785 51.9423 4.29785C77.7923 4.29785 98.7523 25.2579 98.7523 51.1079C98.7523 76.9579 77.7923 97.9178 51.9423 97.9178Z" fill="url(#paint0_linear)"/>
<path fill-rule="evenodd" clip-rule="evenodd" d="M97.8424 51.1078C97.8424 76.4578 77.2924 97.0078 51.9424 97.0078C26.5924 97.0078 6.04237 76.4578 6.04237 51.1078C6.04237 25.7578 26.5924 5.20777 51.9424 5.20777C77.2924 5.20777 97.8424 25.7578 97.8424 51.1078ZM51.9424 1.46777C79.3624 1.46777 101.582 23.6878 101.582 51.1078C101.582 78.5278 79.3524 100.748 51.9424 100.748C24.5224 100.748 2.30237 78.5178 2.30237 51.1078C2.30237 23.6878 24.5224 1.46777 51.9424 1.46777Z" fill="#F2F1F0"/>
<path fill-rule="evenodd" clip-rule="evenodd" d="M95.0324 51.1073C95.0324 74.9073 75.7424 94.1973 51.9424 94.1973C28.1424 94.1973 8.85243 74.9073 8.85243 51.1073C8.85243 27.3073 28.1424 8.01734 51.9424 8.01734C75.7424 8.01734 95.0324 27.3073 95.0324 51.1073ZM51.9424 4.27734C77.8024 4.27734 98.7724 25.2473 98.7724 51.1073C98.7724 76.9673 77.8024 97.9373 51.9424 97.9373C26.0824 97.9373 5.11243 76.9673 5.11243 51.1073C5.11243 25.2473 26.0724 4.27734 51.9424 4.27734Z" fill="url(#paint1_linear)"/>
<path d="M42.6323 44.1968L41.1223 42.7168L29.3223 54.7168C28.7023 54.3468 27.9623 54.1568 27.2023 54.1568C24.8523 54.1568 22.9823 56.0468 22.9823 58.3768C22.9823 60.7168 24.8723 62.5968 27.2023 62.5968C29.5523 62.5968 31.4223 60.7068 31.4223 58.3768C31.4223 57.5868 31.2123 56.8568 30.8323 56.2168L42.6323 44.1968Z" fill="#50E6FF"/>
<path d="M50.5124 56.1268C50.0624 56.1268 49.6324 56.1668 49.2124 56.2568L42.8224 43.0068L40.9124 43.9268L47.2324 57.0368C45.3924 58.1468 44.1624 60.1568 44.1624 62.4468C44.1624 65.9468 46.9924 68.7768 50.5024 68.7768C54.0224 68.7768 56.8424 65.9568 56.8424 62.4468C56.8624 58.9268 54.0224 56.1268 50.5124 56.1268Z" fill="#50E6FF"/>
<path d="M65.3323 45.6777C63.7523 45.6777 62.3823 46.5377 61.6623 47.8177L42.1523 42.4277L41.5823 44.4677L61.1023 49.8577C61.1023 49.8677 61.1023 49.8877 61.1023 49.8877C61.1023 52.2277 62.9923 54.1077 65.3223 54.1077C67.6723 54.1077 69.5423 52.2177 69.5423 49.8877C69.5623 47.5677 67.6823 45.6777 65.3323 45.6777Z" fill="#50E6FF"/>
<path d="M42.3223 42.5077L29.1723 36.2477C29.2523 35.8377 29.3023 35.3977 29.3023 34.9677C29.3023 31.4677 26.4723 28.6377 22.9623 28.6377C19.4423 28.6377 16.6223 31.4577 16.6223 34.9677C16.6223 38.4777 19.4523 41.2977 22.9623 41.2977C25.2823 41.2977 27.3023 40.0677 28.4023 38.2277L41.4123 44.4177L42.3223 42.5077Z" fill="#50E6FF"/>
<path d="M78.0523 24.667C75.7023 24.667 73.8323 26.557 73.8323 28.887C73.8323 29.257 73.8723 29.617 73.9723 29.957L41.4923 42.457L42.2523 44.427L75.0123 31.807C75.7723 32.597 76.8623 33.087 78.0523 33.087C80.4023 33.087 82.2723 31.197 82.2723 28.867C82.2723 26.557 80.4023 24.667 78.0523 24.667Z" fill="#50E6FF"/>
<path d="M43.8524 24.387C43.8524 22.047 41.9624 20.167 39.6324 20.167C37.2824 20.167 35.4124 22.057 35.4124 24.387C35.4124 26.527 37.0124 28.297 39.0824 28.557L40.8324 43.577L42.9424 43.337L41.1824 28.307C42.7424 27.697 43.8524 26.167 43.8524 24.387Z" fill="#50E6FF"/>
<path d="M41.8723 51.8474C46.5123 51.8474 50.2823 48.0874 50.2823 43.4574C50.2823 38.8274 46.5223 35.0674 41.8723 35.0674C37.2223 35.0674 33.4623 38.8274 33.4623 43.4574C33.4623 48.0974 37.2323 51.8474 41.8723 51.8474Z" fill="#0078D4"/>
<path d="M44.4923 16.4768C43.3023 16.4768 42.3623 15.5168 42.3623 14.3468C42.3623 13.1768 43.3223 12.2168 44.4923 12.2168C45.6823 12.2168 46.6223 13.1768 46.6223 14.3468C46.6223 15.5168 45.6823 16.4768 44.4923 16.4768Z" fill="url(#paint2_linear)"/>
<path d="M16.6423 70.9377C15.4523 70.9377 14.5123 69.9777 14.5123 68.8077C14.5123 67.6377 15.4723 66.6777 16.6423 66.6777C17.8123 66.6777 18.7723 67.6377 18.7723 68.8077C18.7723 69.9777 17.8223 70.9377 16.6423 70.9377Z" fill="#50E6FF"/>
<path d="M76.1123 54.2971C74.9223 54.2971 73.9823 53.3371 73.9823 52.1671C73.9823 50.9971 74.9423 50.0371 76.1123 50.0371C77.3023 50.0371 78.2423 50.9971 78.2423 52.1671C78.2423 53.3371 77.3023 54.2971 76.1123 54.2971Z" fill="#50E6FF"/>
<path d="M37.4223 75.6674L43.1723 42.0674L18.3323 47.7474C17.6223 46.4174 16.2223 45.5374 14.6123 45.5374C12.2623 45.5374 10.3923 47.4274 10.3923 49.7574C10.3923 52.0974 12.2823 53.9774 14.6123 53.9774C16.9323 53.9774 18.8123 52.1174 18.8323 49.8074L40.5423 44.8474L35.3423 75.3074C33.1623 75.4774 31.4423 77.2974 31.4423 79.5074C31.4423 81.8474 33.3323 83.7274 35.6623 83.7274C38.0123 83.7274 39.8823 81.8374 39.8823 79.5074C39.8923 77.7974 38.8923 76.3274 37.4223 75.6674Z" fill="url(#paint3_linear)"/>
<path d="M61.1023 20.1572C58.7523 20.1572 56.8823 22.0472 56.8823 24.3772C56.8823 25.1672 57.0923 25.8972 57.4723 26.5372L41.1223 42.7072L42.6223 44.2172L58.9823 28.0272C59.6023 28.3972 60.3423 28.6072 61.1123 28.6072C63.4623 28.6072 65.3323 26.7172 65.3323 24.3872C65.3223 22.0472 63.4423 20.1572 61.1023 20.1572Z" fill="url(#paint4_linear)"/>
<path d="M54.7723 75.177C53.5823 75.177 52.6423 74.217 52.6423 73.047C52.6423 71.877 53.6023 70.917 54.7723 70.917C55.9423 70.917 56.9023 71.877 56.9023 73.047C56.9023 74.217 55.9523 75.177 54.7723 75.177Z" fill="url(#paint5_linear)"/>
<path d="M71.5824 15.9573C70.3924 15.9573 69.4524 14.9973 69.4524 13.8273C69.4524 12.6573 70.4124 11.6973 71.5824 11.6973C72.7524 11.6973 73.7124 12.6573 73.7124 13.8273C73.7124 14.9973 72.7724 15.9573 71.5824 15.9573Z" fill="#50E6FF"/>
<path d="M41.9824 53.5773C47.7524 53.5773 52.4224 48.9073 52.4224 43.1373C52.4224 37.3673 47.7524 32.6973 41.9824 32.6973C36.2124 32.6973 31.5424 37.3673 31.5424 43.1373C31.5324 48.9073 36.2124 53.5773 41.9824 53.5773Z" fill="#002D4C"/>
<path d="M47.0623 47.3876C46.7723 44.7976 44.5523 42.7676 41.8723 42.7676C39.2023 42.7676 37.0023 44.7576 36.6823 47.3276C36.6423 47.5076 36.6423 47.7076 36.6423 47.8776C36.7123 48.6076 37.2123 49.3176 38.1723 49.8676C40.2123 51.0376 43.5423 51.0376 45.5623 49.8676C46.5223 49.3176 47.0023 48.6076 47.0723 47.8776C47.1123 47.7176 47.0923 47.5376 47.0623 47.3876Z" fill="white"/>
<path d="M41.8724 42.0168C43.6124 42.0168 45.0224 40.6168 45.0224 38.8868C45.0224 37.1568 43.6124 35.7568 41.8724 35.7568C40.1324 35.7568 38.7224 37.1568 38.7224 38.8868C38.7224 40.6168 40.1324 42.0168 41.8724 42.0168Z" fill="white"/>
<path opacity="0.15" d="M85.8723 59.8574H59.6523V75.2074C59.6523 75.6674 60.0323 76.0474 60.4923 76.0474H85.0223C85.4823 76.0474 85.8623 75.6674 85.8623 75.2074L85.8723 59.8574Z" fill="#1F1D20"/>
<path d="M84.9723 56.6074H60.5423C60.0423 56.6074 59.6523 56.9974 59.6523 57.4974V58.8674V59.4074V74.2074C59.6523 74.6674 60.0323 75.0474 60.4923 75.0474H85.0223C85.4823 75.0474 85.8623 74.6674 85.8623 74.2074V59.4074H85.8723V57.4974C85.8723 56.9974 85.4723 56.6074 84.9723 56.6074Z" fill="white"/>
<path d="M79.4923 61.8471C79.4923 61.4171 79.1423 61.0771 78.7223 61.0771H66.7923C66.3623 61.0771 66.0223 61.4271 66.0223 61.8471C66.0223 62.2771 66.3723 62.6171 66.7923 62.6171H78.7223C79.1523 62.6071 79.4923 62.2671 79.4923 61.8471Z" fill="#50E6FF"/>
<path d="M68.9023 61.8376C68.9023 62.6776 69.5923 63.3676 70.4323 63.3676C71.2723 63.3676 71.9623 62.6776 71.9623 61.8376C71.9623 60.9976 71.2723 60.3076 70.4323 60.3076C69.5923 60.3076 68.9023 60.9976 68.9023 61.8376Z" fill="#0D3868"/>
<path d="M79.4923 65.7378C79.4923 65.3078 79.1423 64.9678 78.7223 64.9678H66.7923C66.3623 64.9678 66.0223 65.3178 66.0223 65.7378C66.0223 66.1678 66.3723 66.5078 66.7923 66.5078H78.7223C79.1523 66.5078 79.4923 66.1678 79.4923 65.7378Z" fill="#32B0E7"/>
<path d="M73.5123 65.737C73.5123 66.577 74.2023 67.267 75.0423 67.267C75.8823 67.267 76.5723 66.577 76.5723 65.737C76.5723 64.897 75.8823 64.207 75.0423 64.207C74.2023 64.207 73.5123 64.887 73.5123 65.737Z" fill="#0D3868"/>
<path d="M79.4923 69.8579C79.4923 69.4279 79.1423 69.0879 78.7223 69.0879H66.7923C66.3623 69.0879 66.0223 69.4379 66.0223 69.8579C66.0223 70.2879 66.3723 70.6279 66.7923 70.6279H78.7223C79.1523 70.6279 79.4923 70.2879 79.4923 69.8579Z" fill="#185A97"/>
<path d="M68.9524 69.8571C68.9524 70.6971 69.6424 71.3871 70.4824 71.3871C71.3224 71.3871 72.0124 70.6971 72.0124 69.8571C72.0124 69.0171 71.3224 68.3271 70.4824 68.3271C69.6424 68.3271 68.9524 69.0071 68.9524 69.8571Z" fill="#0D3868"/>
<defs>
<linearGradient id="paint0_linear" x1="50.1724" y1="-13.6821" x2="54.1544" y2="132.088" gradientUnits="userSpaceOnUse">
<stop stop-color="#00ABDE"/>
<stop offset="1" stop-color="#007ED8"/>
</linearGradient>
<linearGradient id="paint1_linear" x1="3.37563" y1="-20.5177" x2="98.9036" y2="120.364" gradientUnits="userSpaceOnUse">
<stop stop-color="#007ED8"/>
<stop offset="0.7065" stop-color="#002D4C"/>
</linearGradient>
<linearGradient id="paint2_linear" x1="9.28029" y1="-15.5884" x2="86.1937" y2="49.7974" gradientUnits="userSpaceOnUse">
<stop stop-color="#007ED8"/>
<stop offset="0.7065" stop-color="#002D4C"/>
</linearGradient>
<linearGradient id="paint3_linear" x1="-17.1315" y1="15.4805" x2="59.7818" y2="80.8663" gradientUnits="userSpaceOnUse">
<stop stop-color="#007ED8"/>
<stop offset="0.7065" stop-color="#002D4C"/>
</linearGradient>
<linearGradient id="paint4_linear" x1="3.89581" y1="-9.25418" x2="80.8092" y2="56.1317" gradientUnits="userSpaceOnUse">
<stop stop-color="#007ED8"/>
<stop offset="0.7065" stop-color="#002D4C"/>
</linearGradient>
<linearGradient id="paint5_linear" x1="-15.3783" y1="13.4179" x2="61.5351" y2="78.8036" gradientUnits="userSpaceOnUse">
<stop stop-color="#007ED8"/>
<stop offset="0.7065" stop-color="#002D4C"/>
</linearGradient>
</defs>
</svg>
