<svg width="102" height="102" viewBox="0 0 102 102" fill="none" xmlns="http://www.w3.org/2000/svg">
<path d="M50.9999 97.8104C25.1499 97.8104 4.18994 76.8604 4.18994 51.0004C4.18994 25.1404 25.1499 4.19043 50.9999 4.19043C76.8499 4.19043 97.8099 25.1504 97.8099 51.0004C97.8099 76.8504 76.8499 97.8104 50.9999 97.8104Z" fill="url(#paint0_linear)"/>
<path fill-rule="evenodd" clip-rule="evenodd" d="M96.9001 51.0004C96.9001 76.3504 76.3501 96.9004 51.0001 96.9004C25.6501 96.9004 5.10011 76.3504 5.10011 51.0004C5.10011 25.6504 25.6501 5.10035 51.0001 5.10035C76.3501 5.10035 96.9001 25.6504 96.9001 51.0004ZM51.0001 1.36035C78.4201 1.36035 100.64 23.5804 100.64 51.0004C100.64 78.4204 78.4101 100.64 51.0001 100.64C23.5801 100.64 1.36011 78.4104 1.36011 51.0004C1.36011 23.5804 23.5801 1.36035 51.0001 1.36035Z" fill="#F2F1F0"/>
<path fill-rule="evenodd" clip-rule="evenodd" d="M94.0899 50.9999C94.0899 74.7999 74.7999 94.0899 50.9999 94.0899C27.1999 94.0899 7.90992 74.7999 7.90992 50.9999C7.90992 27.1999 27.1999 7.90992 50.9999 7.90992C74.7999 7.90992 94.0899 27.1999 94.0899 50.9999ZM50.9999 4.16992C76.8599 4.16992 97.8299 25.1399 97.8299 50.9999C97.8299 76.8599 76.8599 97.8299 50.9999 97.8299C25.1399 97.8299 4.16992 76.8599 4.16992 50.9999C4.16992 25.1399 25.1299 4.16992 50.9999 4.16992Z" fill="url(#paint1_linear)"/>
<path opacity="0.4" d="M26.6201 59.83C21.4901 59.83 17.3101 55.66 17.3101 50.53C17.3101 45.84 20.7801 41.98 25.3001 41.36C24.9501 39.91 24.7301 38.38 24.7301 36.8C24.7701 26.54 33.0701 18.25 43.3401 18.25C50.4101 18.25 56.5501 22.24 59.7101 28.07C61.2501 27.32 63.0001 26.89 64.8401 26.89C71.2501 26.89 76.4701 32.11 76.4701 38.51C76.4701 39.47 76.3401 40.44 76.1201 41.36C76.4701 41.32 76.8201 41.32 77.1701 41.32C82.2601 41.28 86.4301 45.4 86.4301 50.53C86.4301 55.66 82.2601 59.83 77.1301 59.83H26.6201Z" fill="url(#paint2_linear)"/>
<path d="M77.1401 60.58H26.6201C21.0801 60.58 16.5601 56.07 16.5601 50.53C16.5601 45.82 19.8801 41.76 24.3901 40.76C24.1101 39.41 23.9701 38.08 23.9701 36.8C24.0101 26.16 32.7001 17.5 43.3301 17.5C50.1901 17.5 56.5201 21.16 60.0201 27.11C61.5401 26.47 63.2001 26.14 64.8401 26.14C71.6701 26.14 77.2201 31.69 77.2201 38.51C77.2201 39.18 77.1601 39.86 77.0401 40.57C77.1101 40.57 77.1801 40.57 77.2501 40.57C79.8801 40.57 82.3501 41.59 84.2301 43.45C86.1301 45.33 87.1801 47.85 87.1801 50.53C87.1901 56.07 82.6801 60.58 77.1401 60.58ZM43.3401 19C33.5301 19 25.5201 26.99 25.4801 36.81C25.4801 38.21 25.6601 39.69 26.0301 41.19L26.2301 42L25.4101 42.11C21.2301 42.68 18.0701 46.3 18.0701 50.53C18.0701 55.24 21.9101 59.08 26.6301 59.08H77.1501C81.8701 59.08 85.7001 55.25 85.7001 50.53C85.7001 48.25 84.8101 46.11 83.2001 44.51C81.5901 42.92 79.4801 42.01 77.2001 42.07C77.1801 42.07 77.1501 42.07 77.1201 42.07C76.8201 42.07 76.5301 42.07 76.2301 42.11L75.1601 42.24L75.4101 41.19C75.6301 40.26 75.7401 39.36 75.7401 38.51C75.7401 32.51 70.8601 27.64 64.8601 27.64C63.2101 27.64 61.5501 28.02 60.0501 28.75L59.4101 29.06L59.0701 28.43C55.9001 22.62 49.8801 19 43.3401 19Z" fill="white"/>
<path opacity="0.15" d="M51.9101 56.3809L70.9601 67.4609L51.8501 78.5409L32.8401 67.4609L51.9101 56.3809Z" fill="#1F1D20"/>
<path d="M51.8501 54.4706V76.6106L32.8401 65.4706V43.3906L51.8501 54.4706Z" fill="#32B0E7"/>
<path d="M51.9101 32.3105L70.9601 43.3905L51.8501 54.4705L32.8401 43.3905L51.9101 32.3105Z" fill="#45CAF2"/>
<path d="M70.9601 43.3906V65.4706L51.8501 76.6106V54.4706L70.9601 43.3906Z" fill="#156AB3"/>
<path d="M51.8501 76.6107V54.4707L70.9601 65.4707L51.8501 76.6107Z" fill="#185A97"/>
<path d="M51.8501 76.6107V54.4707L32.8401 65.4707L51.8501 76.6107Z" fill="#0078D4"/>
<path fill-rule="evenodd" clip-rule="evenodd" d="M48.22 78.3298C48.22 79.2998 47.41 80.0998 46.45 80.0998H30.4699C29.5099 80.0998 28.7 79.3098 28.7 78.3298V65.0098H48.2099V78.3298H48.22Z" fill="#30404D"/>
<path fill-rule="evenodd" clip-rule="evenodd" d="M48.22 65.0097C48.22 65.9797 47.41 66.7797 46.45 66.7797H30.4699C29.5099 66.7897 28.7 65.9897 28.7 65.0097V63.2397C28.7 62.2697 29.5099 61.4697 30.4699 61.4697H46.45C47.42 61.4697 48.22 62.2797 48.22 63.2397V65.0097V65.0097Z" fill="#546670"/>
<path fill-rule="evenodd" clip-rule="evenodd" d="M46.45 67.2402H39.34C38.86 67.2402 38.45 67.6402 38.45 68.1302V78.3302C38.45 78.8102 38.05 79.2202 37.56 79.2202H30.4699C29.5099 79.2202 28.7 78.4102 28.7 77.4402V78.3302C28.7 79.3002 29.5099 80.1002 30.4699 80.1002H46.45C47.42 80.1002 48.22 79.2902 48.22 78.3302V65.4502C48.22 66.4302 47.42 67.2402 46.45 67.2402Z" fill="#182A37"/>
<path fill-rule="evenodd" clip-rule="evenodd" d="M38.4599 70.4697C36.8799 70.4697 35.6099 71.7497 35.6099 73.3197C35.6099 74.8997 36.8899 76.1697 38.4599 76.1697C40.0399 76.1697 41.2999 74.8797 41.2999 73.3197C41.3099 71.7497 40.0399 70.4697 38.4599 70.4697Z" fill="#50E6FF"/>
<path fill-rule="evenodd" clip-rule="evenodd" d="M34.4699 64.13C34.4699 64.86 33.6799 65.47 32.6999 65.47C31.7199 65.47 30.9299 64.87 30.9299 64.13C30.9299 63.4 31.7199 62.79 32.6999 62.79C33.6799 62.79 34.4699 63.39 34.4699 64.13Z" fill="#182A37"/>
<path fill-rule="evenodd" clip-rule="evenodd" d="M46 64.1302C46 64.8602 45.21 65.4702 44.23 65.4702C43.25 65.4702 42.46 64.8802 42.46 64.1302C42.46 63.4002 43.25 62.7902 44.23 62.7902C45.21 62.7802 46 63.3902 46 64.1302Z" fill="#182A37"/>
<path fill-rule="evenodd" clip-rule="evenodd" d="M38.4599 51.7002C34.5399 51.7002 31.3499 54.8802 31.3499 58.8102V65.0102C31.6699 65.2902 32.1399 65.4702 32.6899 65.4702C33.2299 65.4702 33.6899 65.2902 34.0299 65.0102V58.8102C34.0299 56.3702 36.0299 54.3802 38.4599 54.3802C40.8999 54.3802 42.8899 56.3802 42.8899 58.8102V64.1302C42.8899 64.6102 43.4799 65.0202 44.2299 65.0202C44.9599 65.0202 45.5699 64.6202 45.5699 64.1302V58.8102C45.5599 54.8802 42.3699 51.7002 38.4599 51.7002Z" fill="#30404D"/>
<path fill-rule="evenodd" clip-rule="evenodd" d="M35.9098 54.7002C34.1998 55.4202 33.1298 57.1502 33.1298 59.0102V63.5602C33.1298 64.1402 32.5798 64.5702 32.0098 64.4102C31.7298 64.3402 31.4898 64.2402 31.3398 64.1102V65.0002C31.6598 65.2802 32.1298 65.4602 32.6798 65.4602C32.8198 65.4602 32.9798 65.4502 33.1298 65.4102C33.2098 65.4002 33.2998 65.3702 33.3898 65.3502C33.4298 65.3402 33.4698 65.3302 33.5098 65.3002C33.5698 65.2802 33.6298 65.2502 33.6798 65.2202C33.6998 65.2102 33.7398 65.2002 33.7598 65.1702C33.8398 65.1202 33.9198 65.0602 33.9998 65.0102V58.8302C33.9998 56.5302 35.7598 54.6302 37.9898 54.4102C37.3498 54.3102 36.6398 54.4002 35.9098 54.7002Z" fill="#182A37"/>
<path fill-rule="evenodd" clip-rule="evenodd" d="M38.46 51.7002C38.32 51.7002 38.16 51.7102 38.01 51.7202C41.73 51.9602 44.66 55.0302 44.66 58.7902V63.5302C44.66 64.1102 44.11 64.5402 43.54 64.3802C43.26 64.3102 43.02 64.2102 42.87 64.0802V64.9702C43.19 65.2502 43.68 65.4302 44.21 65.4302C44.74 65.4302 45.21 65.2502 45.55 64.9702V58.8002C45.56 54.8802 42.37 51.7002 38.46 51.7002Z" fill="#182A37"/>
<path opacity="0.15" d="M80.51 59.4297H55.77V79.4897C55.77 80.0897 56.27 80.5897 56.87 80.5897H79.4C80 80.5897 80.5 80.0897 80.5 79.4897L80.51 59.4297Z" fill="#1F1D20"/>
<path d="M79.34 55.1699H56.93C56.28 55.1699 55.76 55.6899 55.76 56.3399V58.1299V58.8399V78.1899C55.76 78.7899 56.26 79.2899 56.86 79.2899H79.4C80 79.2899 80.5 78.7899 80.5 78.1899V58.8399H80.51V56.3399C80.51 55.6899 79.99 55.1699 79.34 55.1699Z" fill="white"/>
<path d="M76.1501 62.4903C76.1501 61.9803 75.7401 61.5703 75.2301 61.5703H61.0301C60.5201 61.5703 60.1101 61.9803 60.1101 62.4903C60.1101 63.0003 60.5201 63.4103 61.0301 63.4103H75.2301C75.7501 63.4003 76.1501 62.9903 76.1501 62.4903Z" fill="#50E6FF"/>
<path d="M63.54 62.4802C63.54 63.4802 64.36 64.3002 65.36 64.3002C66.36 64.3002 67.18 63.4802 67.18 62.4802C67.18 61.4802 66.36 60.6602 65.36 60.6602C64.36 60.6602 63.54 61.4802 63.54 62.4802Z" fill="#0D3868"/>
<path d="M76.1501 67.1202C76.1501 66.6102 75.7401 66.2002 75.2301 66.2002H61.0301C60.5201 66.2002 60.1101 66.6102 60.1101 67.1202C60.1101 67.6302 60.5201 68.0402 61.0301 68.0402H75.2301C75.7501 68.0302 76.1501 67.6302 76.1501 67.1202Z" fill="#32B0E7"/>
<path d="M69.04 67.1198C69.04 68.1198 69.86 68.9398 70.86 68.9398C71.86 68.9398 72.68 68.1198 72.68 67.1198C72.68 66.1198 71.86 65.2998 70.86 65.2998C69.86 65.2998 69.04 66.1098 69.04 67.1198Z" fill="#0D3868"/>
<path d="M76.1501 72.0206C76.1501 71.5106 75.7401 71.1006 75.2301 71.1006H61.0301C60.5201 71.1006 60.1101 71.5106 60.1101 72.0206C60.1101 72.5306 60.5201 72.9406 61.0301 72.9406H75.2301C75.7501 72.9406 76.1501 72.5406 76.1501 72.0206Z" fill="#185A97"/>
<path d="M63.6001 72.0202C63.6001 73.0202 64.4201 73.8402 65.4201 73.8402C66.4201 73.8402 67.2401 73.0202 67.2401 72.0202C67.2401 71.0202 66.4201 70.2002 65.4201 70.2002C64.4301 70.2002 63.6001 71.0202 63.6001 72.0202Z" fill="#0D3868"/>
<defs>
<linearGradient id="paint0_linear" x1="49.23" y1="-13.7892" x2="53.212" y2="131.981" gradientUnits="userSpaceOnUse">
<stop stop-color="#00ABDE"/>
<stop offset="1" stop-color="#007ED8"/>
</linearGradient>
<linearGradient id="paint1_linear" x1="2.43262" y1="-20.6247" x2="97.9596" y2="120.257" gradientUnits="userSpaceOnUse">
<stop stop-color="#007ED8"/>
<stop offset="0.7065" stop-color="#002D4C"/>
</linearGradient>
<linearGradient id="paint2_linear" x1="50.364" y1="-10.9059" x2="52.1897" y2="63.1086" gradientUnits="userSpaceOnUse">
<stop offset="0.5727" stop-color="white" stop-opacity="0"/>
<stop offset="0.7823" stop-color="white" stop-opacity="0.4301"/>
<stop offset="0.9044" stop-color="white" stop-opacity="0.5"/>
<stop offset="0.9273" stop-color="white"/>
</linearGradient>
</defs>
</svg>
