<svg width="100" height="100" viewBox="0 0 100 100" fill="none" xmlns="http://www.w3.org/2000/svg">
<g clip-path="url(#clip0_378_1397)">
<path d="M49.6401 96.4499C40.382 96.4499 31.3317 93.7045 23.6339 88.561C15.936 83.4174 9.93624 76.1067 6.3933 67.5533C2.85036 58.9999 1.92337 49.588 3.72954 40.5077C5.53571 31.4275 9.99394 23.0867 16.5404 16.5402C23.0869 9.99372 31.4277 5.5355 40.5079 3.72933C49.5882 1.92315 59.0001 2.85015 67.5535 6.39308C76.1069 9.93602 83.4176 15.9358 88.5612 23.6336C93.7047 31.3315 96.4501 40.3817 96.4501 49.6399C96.4505 55.7872 95.24 61.8744 92.8878 67.5538C90.5355 73.2332 87.0875 78.3937 82.7407 82.7405C78.3939 87.0873 73.2335 90.5353 67.554 92.8876C61.8746 95.2398 55.7874 96.4503 49.6401 96.4499V96.4499Z" fill="url(#paint0_linear_378_1397)"/>
<path fill-rule="evenodd" clip-rule="evenodd" d="M95.54 49.6399C95.54 58.718 92.848 67.5923 87.8045 75.1406C82.7609 82.6888 75.5923 88.5719 67.2052 92.046C58.818 95.52 49.5891 96.429 40.6854 94.6579C31.7816 92.8869 23.603 88.5153 17.1838 82.0961C10.7646 75.6769 6.39302 67.4983 4.62196 58.5945C2.85089 49.6908 3.75987 40.4618 7.23393 32.0747C10.708 23.6876 16.5911 16.519 24.1393 11.4754C31.6875 6.43187 40.5618 3.73988 49.64 3.73988C55.6677 3.73986 61.6363 4.92708 67.2052 7.23377C72.774 9.54045 77.834 12.9214 82.0963 17.1836C86.3585 21.4458 89.7394 26.5058 92.0461 32.0747C94.3528 37.6435 95.54 43.6122 95.54 49.6399V49.6399ZM49.64 -0.000106449C59.4579 -0.000106449 69.0552 2.91123 77.2185 8.36574C85.3818 13.8203 91.7442 21.573 95.5014 30.6435C99.2585 39.714 100.242 49.695 98.3262 59.3242C96.4108 68.9534 91.6831 77.7984 84.7408 84.7407C77.7985 91.683 68.9535 96.4107 59.3243 98.3261C49.6951 100.241 39.7141 99.2584 30.6436 95.5013C21.5731 91.7441 13.8204 85.3816 8.36584 77.2184C2.91133 69.0551 -1.61629e-06 59.4577 3.61524e-07 49.6399C-0.000786426 43.1208 1.28265 36.6655 3.77702 30.6425C6.27138 24.6196 9.92781 19.147 14.5375 14.5374C19.1471 9.9277 24.6197 6.27127 30.6427 3.77691C36.6656 1.28254 43.121 -0.000894549 49.64 -0.000106449V-0.000106449Z" fill="#F2F1F0"/>
<path fill-rule="evenodd" clip-rule="evenodd" d="M92.7296 49.64C92.7296 58.1624 90.2024 66.4934 85.4676 73.5795C80.7328 80.6656 74.0031 86.1886 66.1294 89.45C58.2557 92.7113 49.5918 93.5647 41.2331 91.902C32.8745 90.2394 25.1966 86.1355 19.1703 80.1092C13.1441 74.083 9.04017 66.4051 7.37753 58.0464C5.7149 49.6878 6.56822 41.0238 9.8296 33.1502C13.091 25.2765 18.6139 18.5468 25.7 13.812C32.7862 9.07718 41.1172 6.55 49.6396 6.55C55.2983 6.54965 60.9017 7.66397 66.1298 9.82933C71.3579 11.9947 76.1082 15.1687 80.1096 19.17C84.1109 23.1713 87.2849 27.9217 89.4502 33.1498C91.6156 38.3778 92.7299 43.9812 92.7296 49.64ZM49.6396 2.81C58.9017 2.81 67.9558 5.55653 75.6569 10.7023C83.3581 15.848 89.3604 23.1619 92.9049 31.7189C96.4493 40.276 97.3767 49.6919 95.5697 58.7761C93.7628 67.8602 89.3027 76.2045 82.7534 82.7538C76.2041 89.3031 67.8598 93.7632 58.7757 95.5702C49.6915 97.3771 40.2756 96.4497 31.7185 92.9053C23.1614 89.3608 15.8476 83.3585 10.7018 75.6574C5.5561 67.9562 2.80957 58.9021 2.80957 49.64C2.81076 37.2203 7.74501 25.3096 16.5271 16.5275C25.3091 7.74544 37.2198 2.81119 49.6396 2.81V2.81Z" fill="#0078D4"/>
<path fill-rule="evenodd" clip-rule="evenodd" d="M92.7296 49.6399C92.7296 58.1623 90.2024 66.4933 85.4676 73.5794C80.7328 80.6655 74.0031 86.1885 66.1294 89.4499C58.2557 92.7112 49.5918 93.5646 41.2331 91.9019C32.8745 90.2393 25.1966 86.1354 19.1703 80.1091C13.1441 74.0829 9.04017 66.405 7.37753 58.0463C5.7149 49.6877 6.56822 41.0237 9.8296 33.1501C13.091 25.2764 18.6139 18.5467 25.7001 13.8119C32.7862 9.07708 41.1172 6.5499 49.6396 6.5499C55.2983 6.54956 60.9017 7.66388 66.1298 9.82923C71.3579 11.9946 76.1082 15.1686 80.1096 19.1699C84.1109 23.1712 87.2849 27.9216 89.4502 33.1497C91.6156 38.3777 92.7299 43.9811 92.7296 49.6399V49.6399ZM49.6396 2.8099C58.9017 2.8099 67.9558 5.55643 75.6569 10.7022C83.3581 15.8479 89.3604 23.1618 92.9048 31.7188C96.4493 40.2759 97.3767 49.6918 95.5697 58.776C93.7628 67.8601 89.3027 76.2044 82.7534 82.7537C76.2041 89.303 67.8598 93.7631 58.7757 95.5701C49.6915 97.377 40.2756 96.4496 31.7185 92.9052C23.1614 89.3607 15.8476 83.3584 10.7018 75.6573C5.5561 67.9561 2.80957 58.902 2.80957 49.6399C2.81075 37.2202 7.74499 25.3095 16.5271 16.5274C25.3091 7.7453 37.2198 2.81105 49.6396 2.80986V2.8099Z" fill="#0078D4"/>
<path opacity="0.2" d="M74.1803 31.1334H58.8519V31.1334H35.8746V31.1334H25.1001C24.3044 31.1334 23.5414 31.4495 22.9788 32.0121C22.4162 32.5747 22.1001 33.3378 22.1001 34.1334V72.3799C22.1001 72.7059 22.1643 73.0287 22.2891 73.3299C22.4138 73.6311 22.5967 73.9048 22.8272 74.1353C23.0577 74.3659 23.3314 74.5487 23.6326 74.6735C23.9338 74.7983 24.2566 74.8625 24.5826 74.8625H74.6977C75.0237 74.8625 75.3466 74.7983 75.6478 74.6735C75.9489 74.5487 76.2226 74.3659 76.4531 74.1353C76.6837 73.9048 76.8665 73.6311 76.9913 73.3299C77.116 73.0287 77.1803 72.7059 77.1803 72.3799V34.1334C77.1803 33.7395 77.1027 33.3493 76.9519 32.9854C76.8012 32.6214 76.5802 32.2907 76.3016 32.0121C76.023 31.7335 75.6923 31.5125 75.3283 31.3618C74.9643 31.211 74.5742 31.1334 74.1803 31.1334V31.1334Z" fill="#003067"/>
<path d="M77.1802 53.9038H70.2952V60.1209H77.1802V53.9038Z" fill="#0078D4"/>
<path d="M25.1001 29.2364H49.6402V53.9042H22.1001V32.2364C22.1001 31.4407 22.4162 30.6777 22.9788 30.1151C23.5414 29.5524 24.3044 29.2364 25.1001 29.2364V29.2364Z" fill="#003067"/>
<path d="M49.64 53.9038H22.0999V60.1209H49.64V53.9038Z" fill="#50E6FF"/>
<path d="M56.5252 53.9038H49.6401V60.1209H56.5252V53.9038Z" fill="white"/>
<path d="M63.4102 53.9038H56.5251V60.1209H63.4102V53.9038Z" fill="#C3F1FF"/>
<path d="M70.2952 53.9038H63.4102V60.1209H70.2952V53.9038Z" fill="#50E6FF"/>
<path d="M49.6401 29.2364H74.1803C74.9759 29.2364 75.739 29.5524 76.3016 30.1151C76.8642 30.6777 77.1803 31.4407 77.1803 32.2364V53.9042H49.6401V29.2364Z" fill="#1F56A3"/>
<path d="M22.1001 60.1209H49.6402V72.9653H24.5827C23.9242 72.9653 23.2928 72.7037 22.8272 72.2382C22.3617 71.7726 22.1001 71.1411 22.1001 70.4827V60.1209Z" fill="#E8E8E8"/>
<path d="M49.6401 60.1209H77.1803V70.4827C77.1803 71.1411 76.9187 71.7726 76.4531 72.2382C75.9876 72.7038 75.3561 72.9653 74.6977 72.9653H49.6401V60.1209Z" fill="white"/>
<path d="M73.16 34.265C73.8425 34.265 74.3957 33.7118 74.3957 33.0293C74.3957 32.3468 73.8425 31.7936 73.16 31.7936C72.4776 31.7936 71.9243 32.3468 71.9243 33.0293C71.9243 33.7118 72.4776 34.265 73.16 34.265Z" fill="#0078D4"/>
<path d="M69.0594 34.265C69.7419 34.265 70.2951 33.7118 70.2951 33.0293C70.2951 32.3468 69.7419 31.7936 69.0594 31.7936C68.377 31.7936 67.8237 32.3468 67.8237 33.0293C67.8237 33.7118 68.377 34.265 69.0594 34.265Z" fill="#0078D4"/>
<path d="M64.9591 34.265C65.6415 34.265 66.1948 33.7118 66.1948 33.0293C66.1948 32.3468 65.6415 31.7936 64.9591 31.7936C64.2766 31.7936 63.7234 32.3468 63.7234 33.0293C63.7234 33.7118 64.2766 34.265 64.9591 34.265Z" fill="#0078D4"/>
<path opacity="0.2" d="M57.6597 32.5923C58.2284 31.5421 58.6306 30.4099 58.8518 29.2363H35.8745C36.4029 31.898 37.8372 34.2945 39.9333 36.018C42.0294 37.7414 44.6579 38.6855 47.3716 38.6894C49.3374 38.6951 51.2724 38.2019 52.9956 37.2558L58.0464 42.3042L58.312 42.5336C58.8906 42.9812 59.601 43.2245 60.3325 43.2255H60.3335C60.9853 43.2254 61.6225 43.0321 62.1644 42.6699C62.7064 42.3077 63.1287 41.7929 63.3781 41.1907C63.6275 40.5885 63.6928 39.9258 63.5656 39.2865C63.4384 38.6472 63.1245 38.06 62.6636 37.5991L57.6597 32.5923Z" fill="#003067"/>
<path d="M47.3711 17.2469C49.1831 17.247 50.9589 17.7535 52.4983 18.7093C54.0377 19.665 55.2794 21.0319 56.0833 22.6558C56.8871 24.2797 57.2211 26.096 57.0476 27.8996C56.8741 29.7033 56.2 31.4225 55.1014 32.8634L61.2492 39.0132C61.4823 39.2463 61.6178 39.5595 61.6282 39.889C61.6385 40.2185 61.523 40.5396 61.305 40.7869C61.087 41.0342 60.7829 41.1891 60.4547 41.2202C60.1265 41.2512 59.7988 41.1561 59.5383 40.9541L59.4162 40.8462L53.2664 34.6984C52.039 35.6345 50.6062 36.2648 49.0868 36.5372C47.5673 36.8096 46.0049 36.7162 44.5287 36.2649C43.0525 35.8135 41.705 35.017 40.5977 33.9415C39.4905 32.8659 38.6553 31.5421 38.1612 30.0796C37.6672 28.6171 37.5285 27.058 37.7567 25.5313C37.9849 24.0046 38.5733 22.5542 39.4734 21.3001C40.3735 20.046 41.5592 19.0242 42.9326 18.3194C44.306 17.6146 45.8274 17.2469 47.3711 17.2469V17.2469ZM47.3711 19.8392C45.9611 19.8392 44.5828 20.2573 43.4105 21.0406C42.2382 21.824 41.3244 22.9374 40.7849 24.24C40.2453 25.5426 40.1041 26.976 40.3792 28.3589C40.6542 29.7417 41.3332 31.012 42.3302 32.009C43.3272 33.006 44.5974 33.6849 45.9803 33.96C47.3632 34.2351 48.7966 34.0939 50.0992 33.5543C51.4018 33.0148 52.5152 32.101 53.2985 30.9287C54.0819 29.7564 54.5 28.3781 54.5 26.9681C54.5 26.0319 54.3156 25.1049 53.9573 24.24C53.5991 23.3751 53.074 22.5892 52.412 21.9272C51.75 21.2652 50.9641 20.7401 50.0992 20.3819C49.2343 20.0236 48.3073 19.8392 47.3711 19.8392V19.8392Z" fill="url(#paint1_linear_378_1397)"/>
<path opacity="0.6" d="M47.3711 34.097C51.3083 34.097 54.5 30.9053 54.5 26.9681C54.5 23.0309 51.3083 19.8392 47.3711 19.8392C43.4339 19.8392 40.2422 23.0309 40.2422 26.9681C40.2422 30.9053 43.4339 34.097 47.3711 34.097Z" fill="url(#paint2_linear_378_1397)"/>
</g>
<defs>
<linearGradient id="paint0_linear_378_1397" x1="47.8698" y1="-15.1532" x2="51.8525" y2="130.615" gradientUnits="userSpaceOnUse">
<stop stop-color="#00ABDE"/>
<stop offset="1" stop-color="#007ED8"/>
</linearGradient>
<linearGradient id="paint1_linear_378_1397" x1="49.6394" y1="40.3652" x2="49.6394" y2="17.7692" gradientUnits="userSpaceOnUse">
<stop stop-color="#F2F2F2"/>
<stop offset="0.44" stop-color="#FBFBFB"/>
<stop offset="1" stop-color="white"/>
</linearGradient>
<linearGradient id="paint2_linear_378_1397" x1="715.65" y1="505.986" x2="715.65" y2="302.702" gradientUnits="userSpaceOnUse">
<stop stop-color="#F2F2F2"/>
<stop offset="0.44" stop-color="#FBFBFB"/>
<stop offset="1" stop-color="white"/>
</linearGradient>
<clipPath id="clip0_378_1397">
<rect width="99.2799" height="99.28" fill="white"/>
</clipPath>
</defs>
</svg>
