<svg width="103" height="103" viewBox="0 0 103 103" fill="none" xmlns="http://www.w3.org/2000/svg">
<path d="M51.3994 98.7303C25.5494 98.7303 4.58936 77.7804 4.58936 51.9204C4.58936 26.0604 25.5494 5.11035 51.3994 5.11035C77.2494 5.11035 98.2094 26.0704 98.2094 51.9204C98.2094 77.7704 77.2494 98.7303 51.3994 98.7303Z" fill="url(#paint0_linear)"/>
<path fill-rule="evenodd" clip-rule="evenodd" d="M97.2994 51.9205C97.2994 77.2705 76.7494 97.8205 51.3994 97.8205C26.0494 97.8205 5.4994 77.2705 5.4994 51.9205C5.4994 26.5705 26.0494 6.02052 51.3994 6.02052C76.7494 6.02052 97.2994 26.5705 97.2994 51.9205ZM51.3994 2.28052C78.8194 2.28052 101.039 24.5005 101.039 51.9205C101.039 79.3405 78.8094 101.561 51.3994 101.561C23.9794 101.561 1.7594 79.3305 1.7594 51.9205C1.7594 24.5005 23.9794 2.28052 51.3994 2.28052Z" fill="#F2F1F0"/>
<path fill-rule="evenodd" clip-rule="evenodd" d="M94.4895 51.9203C94.4895 75.7203 75.1995 95.0103 51.3995 95.0103C27.5995 95.0103 8.30946 75.7203 8.30946 51.9203C8.30946 28.1203 27.5995 8.83033 51.3995 8.83033C75.1995 8.83033 94.4895 28.1203 94.4895 51.9203ZM51.3995 5.09033C77.2595 5.09033 98.2295 26.0603 98.2295 51.9203C98.2295 77.7803 77.2595 98.7503 51.3995 98.7503C25.5395 98.7503 4.56946 77.7803 4.56946 51.9203C4.56946 26.0603 25.5295 5.09033 51.3995 5.09033Z" fill="url(#paint1_linear)"/>
<g opacity="0.15">
<path opacity="0.15" d="M30.0194 64.9904C30.0194 67.8404 32.3394 70.1604 35.1894 70.1604C38.0394 70.1604 40.3594 67.8404 40.3594 64.9904C40.3594 63.7604 39.9094 62.6704 39.2094 61.7604L48.4894 44.1204C47.3394 43.6904 46.3694 43.0604 45.4894 42.2104C43.7994 40.5904 42.7294 38.3004 42.7294 35.7704C42.7294 30.8604 46.7294 26.8404 51.6594 26.8404C56.5894 26.8404 60.5894 30.8404 60.5894 35.7704C60.5894 36.5204 60.4694 37.2604 60.2794 37.9604L63.6494 39.3004C63.9694 38.1604 64.2394 37.0104 64.2394 35.7704C64.2394 28.8404 58.5894 23.1904 51.6594 23.1904C44.7294 23.1904 39.0794 28.8404 39.0794 35.7704C39.0794 39.6504 40.8994 43.0804 43.6394 45.4104L36.0194 59.9304C35.7394 59.8804 35.4694 59.8504 35.1594 59.8504C32.3494 59.8504 30.0194 62.1404 30.0194 64.9904Z" fill="#1F1D20"/>
<path opacity="0.15" d="M67.7394 70.1704C70.5894 70.1704 72.9094 67.8504 72.9094 65.0004C72.9094 62.1504 70.5894 59.8304 67.7394 59.8304C65.5494 59.8304 63.6594 61.2204 62.9194 63.1604H43.9094C44.0294 63.7504 44.1094 64.3504 44.1094 64.9804C44.1094 65.6104 44.0294 66.2104 43.9094 66.8004C43.0594 70.8604 39.4794 73.9104 35.1594 73.9104C30.2494 73.9104 26.2294 69.9104 26.2294 64.9804C26.2294 61.1804 28.6494 57.9104 32.0294 56.6304L30.9694 53.2004C26.1094 54.9204 22.5994 59.5404 22.5994 64.9804C22.5994 71.9104 28.2494 77.5604 35.1794 77.5604C41.4794 77.5604 46.6794 72.8604 47.5894 66.8004H62.9294C63.6594 68.7804 65.5294 70.1704 67.7394 70.1704Z" fill="#1F1D20"/>
<path opacity="0.15" d="M67.7494 52.4103C66.5294 52.4103 65.4094 52.6403 64.2994 52.9603C64.2694 52.9603 64.2694 52.9603 64.2494 52.9603V52.9903V52.9603L55.7794 38.8903C56.4394 38.0303 56.8594 36.9503 56.8594 35.7603C56.8594 32.9103 54.5394 30.5903 51.6894 30.5903C48.8394 30.5903 46.5194 32.9103 46.5194 35.7603C46.5194 38.6103 48.8394 40.9303 51.6894 40.9303C52.0094 40.9303 52.3494 40.9003 52.6794 40.8203L62.7294 57.6603C63.7594 56.9803 65.0494 56.4003 66.3194 56.1703C66.7994 56.0903 67.2694 56.0503 67.7494 56.0503C72.6594 56.0503 76.6794 60.0503 76.6794 64.9803C76.6794 69.8903 72.6794 73.9103 67.7494 73.9103C65.4994 73.9103 63.4694 73.0803 61.8994 71.6903L59.3294 74.2603C61.5494 76.3103 64.4994 77.5703 67.7494 77.5703C74.6794 77.5703 80.3294 71.9203 80.3294 64.9903C80.3194 58.0603 74.6694 52.4103 67.7494 52.4103Z" fill="#1F1D20"/>
</g>
<path d="M30.0194 63.1704C30.0194 66.0204 32.3394 68.3404 35.1894 68.3404C38.0394 68.3404 40.3594 66.0204 40.3594 63.1704C40.3594 61.9404 39.9094 60.8504 39.2094 59.9404L48.4894 42.3004C47.3394 41.8704 46.3694 41.2404 45.4894 40.3904C43.7994 38.7704 42.7294 36.4804 42.7294 33.9504C42.7294 29.0404 46.7294 25.0204 51.6594 25.0204C56.5894 25.0204 60.5894 29.0204 60.5894 33.9504C60.5894 34.7004 60.4694 35.4404 60.2794 36.1404L63.6494 37.4804C63.9694 36.3404 64.2394 35.1904 64.2394 33.9504C64.2394 27.0204 58.5894 21.3704 51.6594 21.3704C44.7294 21.3704 39.0894 27.0204 39.0894 33.9404C39.0894 37.8204 40.9094 41.2504 43.6494 43.5804L36.0294 58.1004C35.7494 58.0504 35.4794 58.0204 35.1694 58.0204C32.3494 58.0204 30.0194 60.3204 30.0194 63.1704Z" fill="white"/>
<path d="M67.7393 68.3404C70.5893 68.3404 72.9094 66.0204 72.9094 63.1704C72.9094 60.3204 70.5893 58.0004 67.7393 58.0004C65.5493 58.0004 63.6594 59.3904 62.9194 61.3304H43.9094C44.0294 61.9204 44.1094 62.5204 44.1094 63.1504C44.1094 63.7804 44.0294 64.3804 43.9094 64.9704C43.0594 69.0304 39.4794 72.0804 35.1594 72.0804C30.2494 72.0804 26.2294 68.0804 26.2294 63.1504C26.2294 59.3504 28.6494 56.0804 32.0294 54.8004L30.9694 51.3704C26.0994 53.1104 22.5894 57.7304 22.5894 63.1604C22.5894 70.0904 28.2394 75.7404 35.1694 75.7404C41.4694 75.7404 46.6694 71.0404 47.5794 64.9804H62.9194C63.6594 66.9504 65.5293 68.3404 67.7393 68.3404Z" fill="white"/>
<path d="M67.7494 50.5903C66.5294 50.5903 65.4094 50.8203 64.2994 51.1403C64.2694 51.1403 64.2694 51.1403 64.2494 51.1403V51.1703V51.1403L55.7794 37.0703C56.4394 36.2103 56.8594 35.1303 56.8594 33.9403C56.8594 31.0903 54.5394 28.7703 51.6894 28.7703C48.8394 28.7703 46.5194 31.0903 46.5194 33.9403C46.5194 36.7903 48.8394 39.1103 51.6894 39.1103C52.0094 39.1103 52.3494 39.0803 52.6794 39.0003L62.7294 55.8403C63.7594 55.1603 65.0494 54.5803 66.3194 54.3503C66.7994 54.2703 67.2694 54.2303 67.7494 54.2303C72.6594 54.2303 76.6794 58.2303 76.6794 63.1603C76.6794 68.0703 72.6794 72.0903 67.7494 72.0903C65.4994 72.0903 63.4694 71.2603 61.8994 69.8703L59.3294 72.4403C61.5494 74.4903 64.4994 75.7503 67.7494 75.7503C74.6794 75.7503 80.3294 70.1003 80.3294 63.1703C80.3194 56.2403 74.6694 50.5903 67.7494 50.5903Z" fill="white"/>
<path opacity="0.15" d="M51.4595 47.3804C60.4286 47.3804 67.6995 40.1095 67.6995 31.1404C67.6995 22.1713 60.4286 14.9004 51.4595 14.9004C42.4904 14.9004 35.2195 22.1713 35.2195 31.1404C35.2195 40.1095 42.4904 47.3804 51.4595 47.3804Z" fill="#1F1D20"/>
<path d="M51.4595 46.0703C60.4286 46.0703 67.6995 38.7994 67.6995 29.8303C67.6995 20.8612 60.4286 13.5903 51.4595 13.5903C42.4904 13.5903 35.2195 20.8612 35.2195 29.8303C35.2195 38.7994 42.4904 46.0703 51.4595 46.0703Z" fill="#F2F1F0"/>
<path d="M59.7495 36.7204C59.2895 32.6004 55.7595 29.3604 51.4795 29.3604C47.2395 29.3604 43.7395 32.5404 43.2095 36.6204C43.1395 36.8904 43.1395 37.2204 43.1395 37.4904C43.2495 38.6504 44.0595 39.7804 45.5795 40.6704C48.8295 42.5404 54.1395 42.5404 57.3495 40.6704C58.8695 39.7904 59.6495 38.6604 59.7495 37.4904C59.8195 37.2504 59.7895 36.9704 59.7495 36.7204Z" fill="url(#paint2_linear)"/>
<path d="M51.4795 28.1504C54.2495 28.1504 56.4795 25.9204 56.4795 23.1704C56.4895 20.4104 54.2395 18.1804 51.4795 18.1804C48.7195 18.1804 46.4795 20.4104 46.4795 23.1604C46.4795 25.9104 48.7195 28.1504 51.4795 28.1504Z" fill="url(#paint3_linear)"/>
<path opacity="0.15" d="M31.4795 81.9505C40.4486 81.9505 47.7195 74.6796 47.7195 65.7105C47.7195 56.7414 40.4486 49.4705 31.4795 49.4705C22.5104 49.4705 15.2395 56.7414 15.2395 65.7105C15.2395 74.6796 22.5104 81.9505 31.4795 81.9505Z" fill="#1F1D20"/>
<path d="M31.4795 79.9505C40.4486 79.9505 47.7195 72.6796 47.7195 63.7105C47.7195 54.7414 40.4486 47.4705 31.4795 47.4705C22.5104 47.4705 15.2395 54.7414 15.2395 63.7105C15.2395 72.6796 22.5104 79.9505 31.4795 79.9505Z" fill="#F2F1F0"/>
<path d="M39.7595 70.6005C39.2995 66.4805 35.7695 63.2405 31.4895 63.2405C27.2495 63.2405 23.7495 66.4205 23.2195 70.5005C23.1495 70.7705 23.1495 71.1005 23.1495 71.3705C23.2595 72.5305 24.0695 73.6605 25.5895 74.5505C28.8395 76.4205 34.1495 76.4205 37.3595 74.5505C38.8795 73.6705 39.6595 72.5405 39.7595 71.3705C39.8395 71.1405 39.7995 70.8505 39.7595 70.6005Z" fill="url(#paint4_linear)"/>
<path d="M31.4895 62.0305C34.2595 62.0305 36.4895 59.8005 36.4895 57.0505C36.4995 54.2905 34.2495 52.0605 31.4895 52.0605C28.7295 52.0605 26.4895 54.2905 26.4895 57.0405C26.4895 59.7905 28.7395 62.0305 31.4895 62.0305Z" fill="url(#paint5_linear)"/>
<path opacity="0.15" d="M71.4495 81.6104C80.4186 81.6104 87.6895 74.3395 87.6895 65.3704C87.6895 56.4013 80.4186 49.1304 71.4495 49.1304C62.4804 49.1304 55.2095 56.4013 55.2095 65.3704C55.2095 74.3395 62.4804 81.6104 71.4495 81.6104Z" fill="#1F1D20"/>
<path d="M71.4495 79.9505C80.4186 79.9505 87.6895 72.6796 87.6895 63.7105C87.6895 54.7414 80.4186 47.4705 71.4495 47.4705C62.4804 47.4705 55.2095 54.7414 55.2095 63.7105C55.2095 72.6796 62.4804 79.9505 71.4495 79.9505Z" fill="#F2F1F0"/>
<path d="M79.7295 70.6005C79.2695 66.4805 75.7395 63.2405 71.4595 63.2405C67.2195 63.2405 63.7195 66.4205 63.1895 70.5005C63.1195 70.7705 63.1195 71.1005 63.1195 71.3705C63.2295 72.5305 64.0395 73.6605 65.5595 74.5505C68.8095 76.4205 74.1195 76.4205 77.3295 74.5505C78.8495 73.6705 79.6295 72.5405 79.7295 71.3705C79.8095 71.1405 79.7695 70.8505 79.7295 70.6005Z" fill="url(#paint6_linear)"/>
<path d="M71.4595 62.0305C74.2295 62.0305 76.4595 59.8005 76.4595 57.0505C76.4695 54.2905 74.2195 52.0605 71.4595 52.0605C68.6995 52.0605 66.4595 54.2905 66.4595 57.0405C66.4595 59.7905 68.6995 62.0305 71.4595 62.0305Z" fill="url(#paint7_linear)"/>
<defs>
<linearGradient id="paint0_linear" x1="49.6295" y1="-12.8692" x2="53.6115" y2="132.901" gradientUnits="userSpaceOnUse">
<stop stop-color="#A9B1FF"/>
<stop offset="1" stop-color="#7B83EB"/>
</linearGradient>
<linearGradient id="paint1_linear" x1="48.9058" y1="6.84193" x2="53.8192" y2="95.6608" gradientUnits="userSpaceOnUse">
<stop stop-color="#5A62C3"/>
<stop offset="0.5" stop-color="#4D55BD"/>
<stop offset="1" stop-color="#3940AB"/>
</linearGradient>
<linearGradient id="paint2_linear" x1="43.184" y1="14.1138" x2="64.5383" y2="73.0743" gradientUnits="userSpaceOnUse">
<stop stop-color="#5A62C3"/>
<stop offset="0.5" stop-color="#4D55BD"/>
<stop offset="1" stop-color="#3940AB"/>
</linearGradient>
<linearGradient id="paint3_linear" x1="47.6192" y1="12.5074" x2="68.9735" y2="71.4681" gradientUnits="userSpaceOnUse">
<stop stop-color="#5A62C3"/>
<stop offset="0.5" stop-color="#4D55BD"/>
<stop offset="1" stop-color="#3940AB"/>
</linearGradient>
<linearGradient id="paint4_linear" x1="14.6684" y1="24.4416" x2="36.0228" y2="83.4023" gradientUnits="userSpaceOnUse">
<stop stop-color="#5A62C3"/>
<stop offset="0.5" stop-color="#4D55BD"/>
<stop offset="1" stop-color="#3940AB"/>
</linearGradient>
<linearGradient id="paint5_linear" x1="19.1036" y1="22.8353" x2="40.458" y2="81.796" gradientUnits="userSpaceOnUse">
<stop stop-color="#5A62C3"/>
<stop offset="0.5" stop-color="#4D55BD"/>
<stop offset="1" stop-color="#3940AB"/>
</linearGradient>
<linearGradient id="paint6_linear" x1="50.0022" y1="11.6444" x2="71.3566" y2="70.6051" gradientUnits="userSpaceOnUse">
<stop stop-color="#5A62C3"/>
<stop offset="0.5" stop-color="#4D55BD"/>
<stop offset="1" stop-color="#3940AB"/>
</linearGradient>
<linearGradient id="paint7_linear" x1="54.4374" y1="10.0381" x2="75.7918" y2="68.9987" gradientUnits="userSpaceOnUse">
<stop stop-color="#5A62C3"/>
<stop offset="0.5" stop-color="#4D55BD"/>
<stop offset="1" stop-color="#3940AB"/>
</linearGradient>
</defs>
</svg>
