<svg width="103" height="103" viewBox="0 0 103 103" fill="none" xmlns="http://www.w3.org/2000/svg">
<path d="M51.2455 97.8558C25.3955 97.8558 4.43555 76.9058 4.43555 51.0458C4.43555 25.1858 25.3955 4.23584 51.2455 4.23584C77.0955 4.23584 98.0555 25.1958 98.0555 51.0458C98.0555 76.8958 77.0955 97.8558 51.2455 97.8558Z" fill="url(#paint0_linear)"/>
<path fill-rule="evenodd" clip-rule="evenodd" d="M97.1455 51.046C97.1455 76.396 76.5955 96.946 51.2455 96.946C25.8955 96.946 5.34547 76.396 5.34547 51.046C5.34547 25.696 25.8955 5.14601 51.2455 5.14601C76.5955 5.14601 97.1455 25.696 97.1455 51.046ZM51.2455 1.40601C78.6655 1.40601 100.885 23.626 100.885 51.046C100.885 78.466 78.6555 100.686 51.2455 100.686C23.8255 100.686 1.60547 78.456 1.60547 51.046C1.60547 23.626 23.8255 1.40601 51.2455 1.40601Z" fill="#F2F1F0"/>
<path fill-rule="evenodd" clip-rule="evenodd" d="M94.336 51.0458C94.336 74.8458 75.046 94.1358 51.246 94.1358C27.446 94.1358 8.15602 74.8458 8.15602 51.0458C8.15602 27.2458 27.446 7.95582 51.246 7.95582C75.046 7.95582 94.336 27.2458 94.336 51.0458ZM51.246 4.21582C77.106 4.21582 98.076 25.1858 98.076 51.0458C98.076 76.9058 77.106 97.8758 51.246 97.8758C25.386 97.8758 4.41602 76.9058 4.41602 51.0458C4.41602 25.1858 25.376 4.21582 51.246 4.21582Z" fill="url(#paint1_linear)"/>
<path opacity="0.15" d="M86.7566 68.006H15.7266V68.176C15.7266 69.786 17.0266 71.086 18.6366 71.086H83.8566C85.4666 71.086 86.7666 69.786 86.7666 68.176L86.7566 68.006Z" fill="#1F1D20"/>
<path d="M78.4469 30.676H24.0869V64.836H78.4469V30.676Z" fill="url(#paint2_linear)"/>
<path d="M78.8861 29.156H23.5961C22.8461 29.156 22.2461 29.766 22.2461 30.516V65.656C22.2461 66.406 22.8561 67.016 23.6061 67.016H78.8961C79.6461 67.016 80.2561 66.406 80.2561 65.656V30.516C80.2461 29.766 79.6361 29.156 78.8861 29.156ZM76.8161 63.816H25.6761V32.196H76.8161V63.816Z" fill="#282828"/>
<path d="M86.7566 67.016H15.7266V67.186C15.7266 68.796 17.0266 70.096 18.6366 70.096H83.8566C85.4666 70.096 86.7666 68.796 86.7666 67.186L86.7566 67.016Z" fill="#F3F3F3"/>
<path fill-rule="evenodd" clip-rule="evenodd" d="M60.326 59.6758C60.326 60.5858 59.586 61.3258 58.676 61.3258H43.816C42.916 61.3258 42.166 60.5858 42.166 59.6758V47.2958H60.316V59.6758H60.326Z" fill="#E6E8E6"/>
<path fill-rule="evenodd" clip-rule="evenodd" d="M60.326 47.2958C60.326 48.2058 59.586 48.9458 58.676 48.9458H43.816C42.916 48.9558 42.166 48.2058 42.166 47.2958V45.6458C42.166 44.7358 42.906 43.9958 43.816 43.9958H58.676C59.586 43.9958 60.326 44.7358 60.326 45.6458V47.2958Z" fill="#B8B9BA"/>
<path fill-rule="evenodd" clip-rule="evenodd" d="M58.676 49.3658H52.076C51.626 49.3658 51.246 49.7358 51.246 50.1958V59.6858C51.246 60.1358 50.876 60.5158 50.416 60.5158H43.816C42.916 60.5158 42.166 59.7758 42.166 58.8658V59.6958C42.166 60.6058 42.906 61.3458 43.816 61.3458H58.676C59.586 61.3458 60.326 60.6058 60.326 59.6958V47.7158C60.326 48.6258 59.586 49.3658 58.676 49.3658Z" fill="#F5F8F5"/>
<path fill-rule="evenodd" clip-rule="evenodd" d="M51.2463 51.4358C49.2663 51.4358 47.6562 53.0358 47.6562 55.0258C47.6562 57.0058 49.2563 58.6158 51.2463 58.6158C53.2263 58.6158 54.8363 57.0058 54.8363 55.0258C54.8263 53.0458 53.2263 51.4358 51.2463 51.4358Z" fill="#50E6FF"/>
<path fill-rule="evenodd" clip-rule="evenodd" d="M47.5363 46.4758C47.5363 47.1558 46.7963 47.7158 45.8863 47.7158C44.9763 47.7158 44.2363 47.1658 44.2363 46.4758C44.2363 45.7858 44.9763 45.2358 45.8863 45.2358C46.7963 45.2358 47.5363 45.7958 47.5363 46.4758Z" fill="#182A37"/>
<path fill-rule="evenodd" clip-rule="evenodd" d="M58.2658 46.4758C58.2658 47.1558 57.5258 47.7158 56.6158 47.7158C55.7058 47.7158 54.9658 47.1658 54.9658 46.4758C54.9658 45.7858 55.7058 45.2358 56.6158 45.2358C57.5258 45.2358 58.2658 45.7958 58.2658 46.4758Z" fill="#182A37"/>
<path fill-rule="evenodd" clip-rule="evenodd" d="M51.2465 34.9258C47.6065 34.9258 44.6465 37.8858 44.6465 41.5258V47.2858C44.9465 47.5458 45.3865 47.7158 45.8865 47.7158C46.3865 47.7158 46.8265 47.5458 47.1265 47.2858V41.5258C47.1265 39.2558 48.9765 37.4058 51.2465 37.4058C53.5165 37.4058 55.3665 39.2558 55.3665 41.5258V46.4758C55.3665 46.9258 55.9165 47.3058 56.6065 47.3058C57.2865 47.3058 57.8465 46.9358 57.8465 46.4758V41.5258C57.8465 37.8858 54.8865 34.9258 51.2465 34.9258Z" fill="#F5F8F5"/>
<path fill-rule="evenodd" clip-rule="evenodd" d="M48.8765 37.7158C47.2865 38.3858 46.2965 39.9958 46.2965 41.7158V45.9358C46.2965 46.4758 45.7865 46.8758 45.2665 46.7358C45.0065 46.6658 44.7765 46.5758 44.6465 46.4658V47.2958C44.9465 47.5558 45.3865 47.7258 45.8865 47.7258C46.0265 47.7258 46.1665 47.7058 46.2965 47.6858C46.3765 47.6658 46.4565 47.6458 46.5365 47.6258C46.5765 47.6158 46.6165 47.5958 46.6565 47.5858C46.7065 47.5658 46.7665 47.5358 46.8165 47.5058C46.8465 47.4858 46.8665 47.4758 46.8965 47.4658C46.9765 47.4158 47.0465 47.3658 47.1165 47.3158V41.5458C47.1165 39.4058 48.7465 37.6458 50.8265 37.4358C50.2165 37.3558 49.5565 37.4358 48.8765 37.7158Z" fill="#C5CCCD"/>
<path fill-rule="evenodd" clip-rule="evenodd" d="M51.2459 34.9258C51.1059 34.9258 50.9759 34.9358 50.8359 34.9458C54.2859 35.1558 57.0259 38.0258 57.0259 41.5258V45.9358C57.0259 46.4758 56.5159 46.8758 55.9959 46.7358C55.7359 46.6658 55.5059 46.5758 55.3759 46.4658V47.2958C55.6759 47.5558 56.1159 47.7258 56.6159 47.7258C57.1159 47.7258 57.5559 47.5558 57.8559 47.2958V41.5258C57.8459 37.8858 54.8859 34.9258 51.2459 34.9258Z" fill="#C5CCCD"/>
<defs>
<linearGradient id="paint0_linear" x1="49.475" y1="-13.7481" x2="53.458" y2="132.021" gradientUnits="userSpaceOnUse">
<stop stop-color="#00ABDE"/>
<stop offset="1" stop-color="#007ED8"/>
</linearGradient>
<linearGradient id="paint1_linear" x1="51.246" y1="-2.44608" x2="51.246" y2="99.3178" gradientUnits="userSpaceOnUse">
<stop stop-color="#007ED8"/>
<stop offset="0.7065" stop-color="#002D4C"/>
</linearGradient>
<linearGradient id="paint2_linear" x1="35.0642" y1="31.9345" x2="75.8662" y2="71.7687" gradientUnits="userSpaceOnUse">
<stop stop-color="#007ED8"/>
<stop offset="0.7065" stop-color="#002D4C"/>
</linearGradient>
</defs>
</svg>
