<svg width="103" height="103" viewBox="0 0 103 103" fill="none" xmlns="http://www.w3.org/2000/svg">
<path d="M51.8776 97.9415C26.0276 97.9415 5.06763 76.9915 5.06763 51.1315C5.06763 25.2715 26.0276 4.32153 51.8776 4.32153C77.7276 4.32153 98.6876 25.2815 98.6876 51.1315C98.6876 76.9815 77.7276 97.9415 51.8776 97.9415Z" fill="url(#paint0_linear)"/>
<path fill-rule="evenodd" clip-rule="evenodd" d="M97.7778 51.1316C97.7778 76.4816 77.2278 97.0316 51.8778 97.0316C26.5278 97.0316 5.97779 76.4816 5.97779 51.1316C5.97779 25.7816 26.5278 5.23158 51.8778 5.23158C77.2278 5.23158 97.7778 25.7816 97.7778 51.1316ZM51.8778 1.49158C79.2978 1.49158 101.518 23.7116 101.518 51.1316C101.518 78.5516 79.2878 100.772 51.8778 100.772C24.4578 100.772 2.23779 78.5416 2.23779 51.1316C2.23779 23.7116 24.4578 1.49158 51.8778 1.49158Z" fill="#F2F1F0"/>
<path fill-rule="evenodd" clip-rule="evenodd" d="M94.9676 51.1316C94.9676 74.9316 75.6776 94.2216 51.8776 94.2216C28.0776 94.2216 8.78761 74.9316 8.78761 51.1316C8.78761 27.3316 28.0776 8.04164 51.8776 8.04164C75.6776 8.04164 94.9676 27.3316 94.9676 51.1316ZM51.8776 4.30164C77.7376 4.30164 98.7076 25.2716 98.7076 51.1316C98.7076 76.9916 77.7376 97.9617 51.8776 97.9617C26.0176 97.9617 5.04761 76.9916 5.04761 51.1316C5.04761 25.2716 26.0076 4.30164 51.8776 4.30164Z" fill="url(#paint1_linear)"/>
<path opacity="0.15" d="M91.1899 47.6257C91.1899 46.7718 90.4942 46.0761 89.6403 46.0761C89.0816 46.0761 85.6028 45.7704 83.7368 44.3156C83.7368 44.3156 83.7474 44.2945 83.7368 44.3156C83.0305 41.7434 81.9974 39.3398 80.7219 37.0628C80.3951 34.9017 82.63 33.331 83.6525 31.6443C83.8317 31.3491 83.9371 31.1804 84.0004 31.0645C84.1901 30.5163 84.0847 29.8838 83.6525 29.4516C83.6525 29.4516 81.9342 26.9953 80.1737 25.2454C78.4132 23.4954 75.7461 21.5452 75.7461 21.5452C75.1452 20.9443 74.1543 20.9443 73.5534 21.5452C73.1528 21.9352 70.5068 24.1174 68.1243 24.4653C68.0927 24.4653 68.0927 24.4653 68.0927 24.4653C65.8789 23.2108 63.391 22.1777 60.8926 21.4714H60.861C59.1005 20.1747 59.5643 17.4865 59.1005 15.5679C59.1005 14.714 58.4047 14.0183 57.5509 14.0183C57.5509 14.0183 54.5991 13.5017 52.1112 13.5017C49.6234 13.5017 46.3659 14.0183 46.3659 14.0183C45.512 14.0183 44.8163 14.714 44.8163 15.5679C44.8163 16.1266 44.5106 19.6055 43.0558 21.4714C40.589 22.1671 37.9957 23.2635 35.803 24.4863C33.6419 24.8131 32.0712 22.5783 30.3845 21.5557C30.0893 21.3765 29.9206 21.2711 29.8047 21.2078C29.2565 21.0181 28.624 21.1235 28.1917 21.5557C28.1917 21.5557 25.7355 23.274 23.9855 25.0345C22.2356 26.795 20.2853 29.4621 20.2853 29.4621C19.6845 30.063 19.6845 31.0539 20.2853 31.6548C20.6754 32.0449 22.9208 34.733 23.216 37.0733V37.0944C21.9931 39.2871 20.9179 41.8699 20.2221 44.3367C20.2221 44.3367 20.2537 44.2945 20.2221 44.3367C18.7146 46.171 16.2373 45.6333 14.3186 46.0972C13.4648 46.0972 12.769 46.7929 12.769 47.6468C12.769 47.6468 12.2524 50.5985 12.2524 53.0864C12.2524 55.5743 12.769 58.8317 12.769 58.8317C12.769 59.6856 13.4648 60.3814 14.3186 60.3814C14.8774 60.3814 18.3562 60.6871 20.2221 62.1419C20.2643 62.1208 20.2432 62.1735 20.2432 62.1735C20.96 64.6509 21.9826 67.1282 23.2265 69.3209C23.2054 69.3525 23.2265 69.3209 23.2371 69.3947C23.4479 71.6507 21.329 73.1265 20.3064 74.8132C20.1272 75.1084 20.0218 75.2771 19.9585 75.393C19.7688 75.9412 19.8742 76.5737 20.3064 77.0059C20.3064 77.0059 22.0248 79.4622 23.7852 81.2121C25.5457 82.9726 28.2128 84.9123 28.2128 84.9123C28.8137 85.5132 29.8047 85.5132 30.4055 84.9123C30.7956 84.5223 33.4838 82.2769 35.8241 81.9817C35.8241 81.9817 35.8135 81.9922 35.8557 82.0028C38.1116 83.2573 40.4414 84.2482 42.9925 84.9439C43.0136 84.9545 43.0874 84.9756 43.0874 84.9756C44.8479 86.2722 44.3841 88.9604 44.8479 90.879C44.9428 91.7435 45.4172 92.2916 46.3976 92.4287C46.3976 92.4287 49.3493 92.9452 51.8372 92.9452C54.325 92.9452 57.5825 92.4392 57.5825 92.4392C58.4364 92.2916 59.1321 91.7435 59.1321 90.8896C59.1321 90.3308 59.4378 86.852 60.8926 84.9861C60.8926 84.9861 60.9559 84.9334 61.0191 84.8807C63.6124 84.1533 65.5838 83.3521 67.8713 82.0344C67.9873 81.9922 67.8608 82.0028 68.1349 81.9606C70.296 81.6338 71.8667 83.8687 73.5534 84.8912C73.8486 85.0705 74.0172 85.1759 74.1332 85.2391C74.6814 85.4289 75.3139 85.3235 75.7461 84.8912C75.7461 84.8912 78.2024 83.1729 79.9523 81.4124C81.7128 79.6519 83.6525 76.9848 83.6525 76.9848C84.2534 76.384 84.2534 75.393 83.6525 74.7921C83.2625 74.4021 81.017 71.7139 80.7219 69.3736C80.6902 69.1311 80.7113 69.0995 80.743 69.0363C82.0502 66.7276 82.8724 65.0409 83.5893 62.4265C83.5893 62.4265 83.5576 62.3422 83.7263 62.1208C85.023 60.3603 87.7111 60.8242 89.6298 60.3603C90.4836 60.3603 91.1794 59.6645 91.1794 58.8107C91.1794 58.8107 91.696 55.8589 91.696 53.3711C91.696 50.8832 91.1899 47.6257 91.1899 47.6257Z" fill="#1F1D20"/>
<path d="M91.1902 45.5175C91.1902 44.6636 90.4944 43.9678 89.6405 43.9678C89.0818 43.9678 85.603 43.6621 83.7371 42.2073C83.7371 42.2073 83.7476 42.1862 83.7371 42.2073C83.0308 39.6351 81.9977 37.2316 80.7221 34.9545C80.3953 32.7934 82.6302 31.2227 83.6528 29.536C83.832 29.2408 83.9374 29.0721 84.0006 28.9562C84.1904 28.408 84.085 27.7755 83.6528 27.3433C83.6528 27.3433 81.9344 24.887 80.1739 23.1371C78.4135 21.3871 75.7464 19.4369 75.7464 19.4369C75.1455 18.836 74.1545 18.836 73.5537 19.4369C73.1531 19.8269 70.507 22.0091 68.1246 22.357C68.093 22.357 68.093 22.357 68.093 22.357C65.8792 21.1025 63.3913 20.0694 60.8929 19.3631H60.8612C59.1007 18.0664 59.5646 15.3783 59.1007 13.4596C59.1007 12.6057 58.405 11.91 57.5511 11.91C57.5511 11.91 54.5994 11.3934 52.1115 11.3934C49.6236 11.3934 46.3662 11.91 46.3662 11.91C45.5123 11.91 44.8165 12.6057 44.8165 13.4596C44.8165 14.0184 44.5108 17.4972 43.056 19.3631C40.5892 20.0588 37.9959 21.1552 35.8032 22.3781C33.6421 22.7049 32.0714 20.47 30.3847 19.4474C30.0895 19.2682 29.9209 19.1628 29.8049 19.0995C29.2567 18.9098 28.6242 19.0152 28.192 19.4474C28.192 19.4474 25.7357 21.1657 23.9858 22.9262C22.2358 24.6867 20.2856 27.3538 20.2856 27.3538C19.6847 27.9547 19.6847 28.9456 20.2856 29.5465C20.6756 29.9366 22.9211 32.6248 23.2162 34.9651V34.9861C21.9934 37.1788 20.9181 39.7616 20.2223 42.2284C20.2223 42.2284 20.254 42.1862 20.2223 42.2284C18.7149 44.0627 16.2375 43.525 14.3189 43.9889C13.465 43.9889 12.7692 44.6847 12.7692 45.5385C12.7692 45.5385 12.2527 48.4903 12.2527 50.9781C12.2527 53.466 12.7692 56.7235 12.7692 56.7235C12.7692 57.5774 13.465 58.2731 14.3189 58.2731C14.8776 58.2731 18.3564 58.5788 20.2223 60.0336C20.2645 60.0125 20.2434 60.0652 20.2434 60.0652C20.9603 62.5426 21.9828 65.0199 23.2268 67.2126C23.2057 67.2443 23.2268 67.2126 23.2373 67.2864C23.4481 69.5424 21.3292 71.0182 20.3067 72.7049C20.1275 73.0001 20.022 73.1688 19.9588 73.2847C19.769 73.8329 19.8745 74.4654 20.3067 74.8976C20.3067 74.8976 22.025 77.3539 23.7855 79.1039C25.546 80.8643 28.2131 82.804 28.2131 82.804C28.814 83.4049 29.8049 83.4049 30.4058 82.804C30.7958 82.414 33.484 80.1686 35.8243 79.8734C35.8243 79.8734 35.8138 79.884 35.8559 79.8945C38.1119 81.149 40.4416 82.1399 42.9928 82.8357C43.0139 82.8462 43.0877 82.8673 43.0877 82.8673C44.8481 84.164 44.3843 86.8521 44.8481 88.7707C44.943 89.6352 45.4174 90.1834 46.3978 90.3204C46.3978 90.3204 49.3495 90.837 51.8374 90.837C54.3253 90.837 57.5827 90.3309 57.5827 90.3309C58.4366 90.1834 59.1324 89.6352 59.1324 88.7813C59.1324 88.2226 59.4381 84.7437 60.8929 82.8778C60.8929 82.8778 60.9561 82.8251 61.0194 82.7724C63.6127 82.045 65.584 81.2439 67.8716 79.9261C67.9875 79.884 67.861 79.8945 68.1351 79.8523C70.2962 79.5255 71.867 81.7604 73.5537 82.783C73.8488 82.9622 74.0175 83.0676 74.1335 83.1308C74.6816 83.3206 75.3141 83.2152 75.7464 82.783C75.7464 82.783 78.2026 81.0646 79.9526 79.3041C81.7131 77.5437 83.6528 74.8766 83.6528 74.8766C84.2536 74.2757 84.2536 73.2847 83.6528 72.6839C83.2627 72.2938 81.0173 69.6056 80.7221 67.2653C80.6905 67.0229 80.7116 66.9912 80.7432 66.928C82.0504 64.6193 82.8727 62.9326 83.5895 60.3182C83.5895 60.3182 83.5579 60.2339 83.7266 60.0125C85.0232 58.252 87.7114 58.7159 89.63 58.252C90.4839 58.252 91.1797 57.5563 91.1797 56.7024C91.1797 56.7024 91.6962 53.7507 91.6962 51.2628C91.6962 48.7749 91.1902 45.5175 91.1902 45.5175Z" fill="#00375D"/>
<path opacity="0.15" d="M65.7224 74.7461H34.3907C33.7686 74.7461 33.2502 74.2277 33.2502 73.6056V30.5168C33.2502 29.5422 34.0382 28.7543 35.0128 28.7543H68.9779C69.7866 28.7543 70.4294 29.4178 70.4294 30.2058V69.9562C70.4501 72.6311 68.3351 74.7461 65.7224 74.7461Z" fill="#1F1D20"/>
<path d="M65.7224 73.3352H34.3907C33.7686 73.3352 33.2502 72.8168 33.2502 72.1948V29.1059C33.2502 28.1313 34.0382 27.3434 35.0128 27.3434H68.9779C69.7866 27.3434 70.4294 28.0069 70.4294 28.7949V68.5453C70.4501 71.2202 68.3351 73.3352 65.7224 73.3352Z" fill="white"/>
<path d="M64.3322 44.5338C64.3322 43.8703 63.7931 43.3312 63.1295 43.3312H40.1958C39.5323 43.3312 38.9932 43.8703 38.9932 44.5338C38.9932 45.1974 39.5323 45.7365 40.1958 45.7365H63.1503C63.8138 45.7158 64.3322 45.1974 64.3322 44.5338Z" fill="#9D9E9D"/>
<path d="M64.3322 51.0033C64.3322 50.3398 63.7931 49.8007 63.1295 49.8007H40.1958C39.5323 49.8007 38.9932 50.3398 38.9932 51.0033C38.9932 51.6669 39.5323 52.206 40.1958 52.206H63.1503C63.8138 52.206 64.3322 51.6669 64.3322 51.0033Z" fill="#9D9E9D"/>
<path d="M63.1503 36.426H40.1958C39.5323 36.426 38.9932 36.9652 38.9932 37.6287C38.9932 38.2922 39.5323 38.8314 40.1958 38.8314H63.1503C63.8138 38.8314 64.353 38.2922 64.353 37.6287C64.353 36.9652 63.8138 36.426 63.1503 36.426Z" fill="#9D9E9D"/>
<path opacity="0.15" d="M66.8118 76.6087C68.6268 76.6047 70.3665 75.8818 71.6498 74.5984C72.9332 73.3151 73.6557 71.5757 73.6597 69.7608C73.6597 67.9446 72.9385 66.2026 71.6543 64.9183C70.37 63.6341 68.628 62.9128 66.8118 62.9128C64.9969 62.9168 63.2572 63.6394 61.9738 64.9228C60.6904 66.2061 59.9679 67.9458 59.9639 69.7608C59.9639 70.6601 60.1413 71.5505 60.4854 72.3814C60.8295 73.2122 61.3335 73.967 61.9693 74.6029C62.6052 75.2387 63.3608 75.743 64.1916 76.0872C65.0224 76.4313 65.9125 76.6087 66.8118 76.6087V76.6087Z" fill="#1F1D20"/>
<path d="M66.8118 75.0328C68.628 75.0328 70.37 74.3112 71.6543 73.0269C72.9385 71.7427 73.6597 70.001 73.6597 68.1848C73.6597 66.3687 72.9385 64.627 71.6543 63.3428C70.37 62.0585 68.628 61.3369 66.8118 61.3369C64.9969 61.3409 63.2572 62.0638 61.9738 63.3472C60.6904 64.6306 59.9679 66.3699 59.9639 68.1848C59.9639 69.0841 60.1413 69.9746 60.4854 70.8054C60.8295 71.6363 61.3335 72.391 61.9693 73.0269C62.6052 73.6628 63.3608 74.1675 64.1916 74.5116C65.0224 74.8558 65.9125 75.0328 66.8118 75.0328V75.0328Z" fill="url(#paint2_linear)"/>
<path d="M67.448 63.8368H66.2207V72.533H67.448V63.8368Z" fill="white"/>
<path d="M71.1905 67.6392H62.4939V68.8513H71.1905V67.6392Z" fill="white"/>
<defs>
<linearGradient id="paint0_linear" x1="50.1037" y1="-13.658" x2="54.0857" y2="132.112" gradientUnits="userSpaceOnUse">
<stop stop-color="#00ABDE"/>
<stop offset="1" stop-color="#007ED8"/>
</linearGradient>
<linearGradient id="paint1_linear" x1="3.30801" y1="-20.491" x2="98.8355" y2="120.39" gradientUnits="userSpaceOnUse">
<stop stop-color="#007ED8"/>
<stop offset="0.7065" stop-color="#002D4C"/>
</linearGradient>
<linearGradient id="paint2_linear" x1="64.0296" y1="59.9618" x2="69.5915" y2="76.4055" gradientUnits="userSpaceOnUse">
<stop stop-color="#50E6FF"/>
<stop offset="0.495" stop-color="#007ED8"/>
<stop offset="1" stop-color="#002D4C"/>
</linearGradient>
</defs>
</svg>
