<svg width="103" height="103" viewBox="0 0 103 103" fill="none" xmlns="https://www.w3.org/2000/svg">
<path d="M51.0307 97.8558C25.1807 97.8558 4.2207 76.9058 4.2207 51.0458C4.2207 25.1858 25.1807 4.23584 51.0307 4.23584C76.8807 4.23584 97.8407 25.1958 97.8407 51.0458C97.8407 76.8958 76.8807 97.8558 51.0307 97.8558Z" fill="url(#paint0_linear)"/>
<path fill-rule="evenodd" clip-rule="evenodd" d="M96.9306 51.0459C96.9306 76.3959 76.3806 96.9459 51.0306 96.9459C25.6806 96.9459 5.13062 76.3959 5.13062 51.0459C5.13062 25.6959 25.6806 5.14588 51.0306 5.14588C76.3806 5.14588 96.9306 25.6959 96.9306 51.0459ZM51.0306 1.40588C78.4506 1.40588 100.671 23.6259 100.671 51.0459C100.671 78.4659 78.4406 100.686 51.0306 100.686C23.6106 100.686 1.39062 78.4559 1.39062 51.0459C1.39062 23.6259 23.6106 1.40588 51.0306 1.40588Z" fill="#F2F1F0"/>
<path fill-rule="evenodd" clip-rule="evenodd" d="M94.1202 51.0459C94.1202 74.8459 74.8302 94.1359 51.0302 94.1359C27.2302 94.1359 7.9402 74.8459 7.9402 51.0459C7.9402 27.2459 27.2302 7.95594 51.0302 7.95594C74.8302 7.95594 94.1202 27.2459 94.1202 51.0459ZM51.0302 4.21594C76.8902 4.21594 97.8602 25.1859 97.8602 51.0459C97.8602 76.9059 76.8902 97.8759 51.0302 97.8759C25.1702 97.8759 4.2002 76.9059 4.2002 51.0459C4.2002 25.1859 25.1602 4.21594 51.0302 4.21594Z" fill="url(#paint1_linear)"/>
<g opacity="0.15">
<path opacity="0.15" d="M49.1998 39.1657C49.1998 38.3657 48.5598 37.7257 47.7498 37.7257C46.9398 37.7257 46.2998 38.3657 46.2998 39.1657C46.2998 39.9657 46.9398 40.6057 47.7498 40.6057C48.5498 40.5957 49.1998 39.9557 49.1998 39.1657Z" fill="#1F1D20"/>
<path opacity="0.15" d="M54.3006 40.6057C55.1006 40.6057 55.7506 39.9657 55.7506 39.1657C55.7506 38.3657 55.1106 37.7257 54.3006 37.7257C53.4906 37.7257 52.8506 38.3657 52.8506 39.1657C52.8506 39.9657 53.5006 40.6057 54.3006 40.6057Z" fill="#1F1D20"/>
<path opacity="0.15" d="M36.1002 39.1657C36.1002 38.3657 35.4602 37.7257 34.6502 37.7257C33.8402 37.7257 33.2002 38.3657 33.2002 39.1657C33.2002 39.9657 33.8402 40.6057 34.6502 40.6057C35.4502 40.5957 36.1002 39.9557 36.1002 39.1657Z" fill="#1F1D20"/>
<path opacity="0.15" d="M41.2098 40.6057C42.0098 40.6057 42.6598 39.9657 42.6598 39.1657C42.6598 38.3657 42.0198 37.7257 41.2098 37.7257C40.4098 37.7257 39.7598 38.3657 39.7598 39.1657C39.7598 39.9657 40.3998 40.6057 41.2098 40.6057Z" fill="#1F1D20"/>
<path opacity="0.15" d="M62.3004 39.1657C62.3004 38.3657 61.6604 37.7257 60.8504 37.7257C60.0404 37.7257 59.4004 38.3657 59.4004 39.1657C59.4004 39.9657 60.0404 40.6057 60.8504 40.6057C61.6604 40.6057 62.3004 39.9557 62.3004 39.1657Z" fill="#1F1D20"/>
<path opacity="0.15" d="M67.4002 40.6057C68.2002 40.6057 68.8502 39.9657 68.8502 39.1657C68.8502 38.3657 68.2102 37.7257 67.4002 37.7257C66.5902 37.7257 65.9502 38.3657 65.9502 39.1657C65.9502 39.9657 66.6002 40.6057 67.4002 40.6057Z" fill="#1F1D20"/>
<path opacity="0.15" d="M49.1998 32.8257C49.1998 32.0257 48.5598 31.3857 47.7498 31.3857C46.9398 31.3857 46.2998 32.0257 46.2998 32.8257C46.2998 33.6257 46.9398 34.2657 47.7498 34.2657C48.5398 34.2657 49.1998 33.6157 49.1998 32.8257Z" fill="#1F1D20"/>
<path opacity="0.15" d="M55.7398 32.8257C55.7398 32.0257 55.0998 31.3857 54.2898 31.3857C53.4798 31.3857 52.8398 32.0257 52.8398 32.8257C52.8398 33.6257 53.4798 34.2657 54.2898 34.2657C55.0998 34.2657 55.7398 33.6157 55.7398 32.8257Z" fill="#1F1D20"/>
<path opacity="0.15" d="M36.1002 32.8257C36.1002 32.0257 35.4602 31.3857 34.6502 31.3857C33.8402 31.3857 33.2002 32.0257 33.2002 32.8257C33.2002 33.6257 33.8402 34.2657 34.6502 34.2657C35.4502 34.2657 36.1002 33.6157 36.1002 32.8257Z" fill="#1F1D20"/>
<path opacity="0.15" d="M42.65 32.8257C42.65 32.0257 42.01 31.3857 41.2 31.3857C40.4 31.3857 39.75 32.0257 39.75 32.8257C39.75 33.6257 40.39 34.2657 41.2 34.2657C42.01 34.2657 42.65 33.6157 42.65 32.8257Z" fill="#1F1D20"/>
<path opacity="0.15" d="M62.2906 32.8257C62.2906 32.0257 61.6506 31.3857 60.8406 31.3857C60.0306 31.3857 59.3906 32.0257 59.3906 32.8257C59.3906 33.6257 60.0306 34.2657 60.8406 34.2657C61.6506 34.2657 62.2906 33.6157 62.2906 32.8257Z" fill="#1F1D20"/>
<path opacity="0.15" d="M68.8404 32.8257C68.8404 32.0257 68.2004 31.3857 67.3904 31.3857C66.5804 31.3857 65.9404 32.0257 65.9404 32.8257C65.9404 33.6257 66.5804 34.2657 67.3904 34.2657C68.2004 34.2657 68.8404 33.6157 68.8404 32.8257Z" fill="#1F1D20"/>
<path opacity="0.15" d="M49.1998 26.5057C49.1998 25.7057 48.5598 25.0657 47.7498 25.0657C46.9398 25.0657 46.2998 25.7057 46.2998 26.5057C46.2998 27.3057 46.9398 27.9457 47.7498 27.9457C48.5398 27.9457 49.1998 27.3057 49.1998 26.5057Z" fill="#1F1D20"/>
<path opacity="0.15" d="M55.7398 26.5057C55.7398 25.7057 55.0998 25.0657 54.2898 25.0657C53.4798 25.0657 52.8398 25.7057 52.8398 26.5057C52.8398 27.3057 53.4798 27.9457 54.2898 27.9457C55.0998 27.9457 55.7398 27.3057 55.7398 26.5057Z" fill="#1F1D20"/>
<path opacity="0.15" d="M36.1002 26.5057C36.1002 25.7057 35.4602 25.0657 34.6502 25.0657C33.8402 25.0657 33.2002 25.7057 33.2002 26.5057C33.2002 27.3057 33.8402 27.9457 34.6502 27.9457C35.4502 27.9457 36.1002 27.3057 36.1002 26.5057Z" fill="#1F1D20"/>
<path opacity="0.15" d="M42.65 26.5057C42.65 25.7057 42.01 25.0657 41.2 25.0657C40.4 25.0657 39.75 25.7057 39.75 26.5057C39.75 27.3057 40.39 27.9457 41.2 27.9457C42.01 27.9457 42.65 27.3057 42.65 26.5057Z" fill="#1F1D20"/>
<path opacity="0.15" d="M62.2906 26.5057C62.2906 25.7057 61.6506 25.0657 60.8406 25.0657C60.0306 25.0657 59.3906 25.7057 59.3906 26.5057C59.3906 27.3057 60.0306 27.9457 60.8406 27.9457C61.6506 27.9457 62.2906 27.3057 62.2906 26.5057Z" fill="#1F1D20"/>
<path opacity="0.15" d="M68.8404 26.5057C68.8404 25.7057 68.2004 25.0657 67.3904 25.0657C66.5804 25.0657 65.9404 25.7057 65.9404 26.5057C65.9404 27.3057 66.5804 27.9457 67.3904 27.9457C68.2004 27.9457 68.8404 27.3057 68.8404 26.5057Z" fill="#1F1D20"/>
<path opacity="0.15" d="M49.1998 20.1857C49.1998 19.3857 48.5598 18.7457 47.7498 18.7457C46.9398 18.7457 46.2998 19.3857 46.2998 20.1857C46.2998 20.9857 46.9398 21.6257 47.7498 21.6257C48.5398 21.6257 49.1998 20.9757 49.1998 20.1857Z" fill="#1F1D20"/>
<path opacity="0.15" d="M55.7398 20.1857C55.7398 19.3857 55.0998 18.7457 54.2898 18.7457C53.4798 18.7457 52.8398 19.3857 52.8398 20.1857C52.8398 20.9857 53.4798 21.6257 54.2898 21.6257C55.0998 21.6257 55.7398 20.9757 55.7398 20.1857Z" fill="#1F1D20"/>
<path opacity="0.15" d="M36.1002 20.1857C36.1002 19.3857 35.4602 18.7457 34.6502 18.7457C33.8402 18.7457 33.2002 19.3857 33.2002 20.1857C33.2002 20.9857 33.8402 21.6257 34.6502 21.6257C35.4502 21.6257 36.1002 20.9757 36.1002 20.1857Z" fill="#1F1D20"/>
<path opacity="0.15" d="M42.65 20.1857C42.65 19.3857 42.01 18.7457 41.2 18.7457C40.4 18.7457 39.75 19.3857 39.75 20.1857C39.75 20.9857 40.39 21.6257 41.2 21.6257C42.01 21.6257 42.65 20.9757 42.65 20.1857Z" fill="#1F1D20"/>
<path opacity="0.15" d="M62.2906 20.1857C62.2906 19.3857 61.6506 18.7457 60.8406 18.7457C60.0306 18.7457 59.3906 19.3857 59.3906 20.1857C59.3906 20.9857 60.0306 21.6257 60.8406 21.6257C61.6506 21.6257 62.2906 20.9757 62.2906 20.1857Z" fill="#1F1D20"/>
<path opacity="0.15" d="M68.8404 20.1857C68.8404 19.3857 68.2004 18.7457 67.3904 18.7457C66.5804 18.7457 65.9404 19.3857 65.9404 20.1857C65.9404 20.9857 66.5804 21.6257 67.3904 21.6257C68.2004 21.6257 68.8404 20.9757 68.8404 20.1857Z" fill="#1F1D20"/>
</g>
<path d="M49.1998 38.3458C49.1998 37.5458 48.5598 36.9058 47.7498 36.9058C46.9398 36.9058 46.2998 37.5458 46.2998 38.3458C46.2998 39.1458 46.9398 39.7858 47.7498 39.7858C48.5498 39.7758 49.1998 39.1358 49.1998 38.3458Z" fill="#50E6FF"/>
<path d="M54.3006 39.7858C55.1006 39.7858 55.7506 39.1458 55.7506 38.3458C55.7506 37.5458 55.1106 36.9058 54.3006 36.9058C53.4906 36.9058 52.8506 37.5458 52.8506 38.3458C52.8506 39.1458 53.5006 39.7858 54.3006 39.7858Z" fill="#50E6FF"/>
<path d="M36.1002 38.3458C36.1002 37.5458 35.4602 36.9058 34.6502 36.9058C33.8402 36.9058 33.2002 37.5458 33.2002 38.3458C33.2002 39.1458 33.8402 39.7858 34.6502 39.7858C35.4502 39.7758 36.1002 39.1358 36.1002 38.3458Z" fill="#9CEBFF"/>
<path d="M41.2098 39.7858C42.0098 39.7858 42.6598 39.1458 42.6598 38.3458C42.6598 37.5458 42.0198 36.9058 41.2098 36.9058C40.4098 36.9058 39.7598 37.5458 39.7598 38.3458C39.7598 39.1458 40.3998 39.7858 41.2098 39.7858Z" fill="#9CEBFF"/>
<path d="M62.3004 38.3458C62.3004 37.5458 61.6604 36.9058 60.8504 36.9058C60.0404 36.9058 59.4004 37.5458 59.4004 38.3458C59.4004 39.1458 60.0404 39.7858 60.8504 39.7858C61.6604 39.7858 62.3004 39.1358 62.3004 38.3458Z" fill="#3BCAF4"/>
<path d="M67.4002 39.7858C68.2002 39.7858 68.8502 39.1458 68.8502 38.3458C68.8502 37.5458 68.2102 36.9058 67.4002 36.9058C66.5902 36.9058 65.9502 37.5458 65.9502 38.3458C65.9502 39.1458 66.6002 39.7858 67.4002 39.7858Z" fill="#3BCAF4"/>
<path d="M49.1998 32.0058C49.1998 31.2058 48.5598 30.5658 47.7498 30.5658C46.9398 30.5658 46.2998 31.2058 46.2998 32.0058C46.2998 32.8058 46.9398 33.4458 47.7498 33.4458C48.5398 33.4458 49.1998 32.7958 49.1998 32.0058Z" fill="#9CEBFF"/>
<path d="M55.7398 32.0058C55.7398 31.2058 55.0998 30.5658 54.2898 30.5658C53.4798 30.5658 52.8398 31.2058 52.8398 32.0058C52.8398 32.8058 53.4798 33.4458 54.2898 33.4458C55.0998 33.4458 55.7398 32.7958 55.7398 32.0058Z" fill="#50E6FF"/>
<path d="M36.1002 32.0058C36.1002 31.2058 35.4602 30.5658 34.6502 30.5658C33.8402 30.5658 33.2002 31.2058 33.2002 32.0058C33.2002 32.8058 33.8402 33.4458 34.6502 33.4458C35.4502 33.4458 36.1002 32.7958 36.1002 32.0058Z" fill="#9CEBFF"/>
<path d="M42.65 32.0058C42.65 31.2058 42.01 30.5658 41.2 30.5658C40.4 30.5658 39.75 31.2058 39.75 32.0058C39.75 32.8058 40.39 33.4458 41.2 33.4458C42.01 33.4458 42.65 32.7958 42.65 32.0058Z" fill="#9CEBFF"/>
<path d="M62.2906 32.0058C62.2906 31.2058 61.6506 30.5658 60.8406 30.5658C60.0306 30.5658 59.3906 31.2058 59.3906 32.0058C59.3906 32.8058 60.0306 33.4458 60.8406 33.4458C61.6506 33.4458 62.2906 32.7958 62.2906 32.0058Z" fill="#50E6FF"/>
<path d="M68.8404 32.0058C68.8404 31.2058 68.2004 30.5658 67.3904 30.5658C66.5804 30.5658 65.9404 31.2058 65.9404 32.0058C65.9404 32.8058 66.5804 33.4458 67.3904 33.4458C68.2004 33.4458 68.8404 32.7958 68.8404 32.0058Z" fill="#3BCAF4"/>
<path d="M49.1998 25.6857C49.1998 24.8857 48.5598 24.2457 47.7498 24.2457C46.9398 24.2457 46.2998 24.8857 46.2998 25.6857C46.2998 26.4857 46.9398 27.1257 47.7498 27.1257C48.5398 27.1257 49.1998 26.4857 49.1998 25.6857Z" fill="#9CEBFF"/>
<path d="M55.7398 25.6857C55.7398 24.8857 55.0998 24.2457 54.2898 24.2457C53.4798 24.2457 52.8398 24.8857 52.8398 25.6857C52.8398 26.4857 53.4798 27.1257 54.2898 27.1257C55.0998 27.1257 55.7398 26.4857 55.7398 25.6857Z" fill="#9CEBFF"/>
<path d="M36.1002 25.6857C36.1002 24.8857 35.4602 24.2457 34.6502 24.2457C33.8402 24.2457 33.2002 24.8857 33.2002 25.6857C33.2002 26.4857 33.8402 27.1257 34.6502 27.1257C35.4502 27.1257 36.1002 26.4857 36.1002 25.6857Z" fill="url(#paint2_linear)"/>
<path d="M42.65 25.6857C42.65 24.8857 42.01 24.2457 41.2 24.2457C40.4 24.2457 39.75 24.8857 39.75 25.6857C39.75 26.4857 40.39 27.1257 41.2 27.1257C42.01 27.1257 42.65 26.4857 42.65 25.6857Z" fill="url(#paint3_linear)"/>
<path d="M62.2906 25.6857C62.2906 24.8857 61.6506 24.2457 60.8406 24.2457C60.0306 24.2457 59.3906 24.8857 59.3906 25.6857C59.3906 26.4857 60.0306 27.1257 60.8406 27.1257C61.6506 27.1257 62.2906 26.4857 62.2906 25.6857Z" fill="#50E6FF"/>
<path d="M68.8404 25.6857C68.8404 24.8857 68.2004 24.2457 67.3904 24.2457C66.5804 24.2457 65.9404 24.8857 65.9404 25.6857C65.9404 26.4857 66.5804 27.1257 67.3904 27.1257C68.2004 27.1257 68.8404 26.4857 68.8404 25.6857Z" fill="#50E6FF"/>
<path d="M49.1998 19.3658C49.1998 18.5658 48.5598 17.9258 47.7498 17.9258C46.9398 17.9258 46.2998 18.5658 46.2998 19.3658C46.2998 20.1658 46.9398 20.8058 47.7498 20.8058C48.5398 20.8058 49.1998 20.1558 49.1998 19.3658Z" fill="url(#paint4_linear)"/>
<path d="M55.7398 19.3658C55.7398 18.5658 55.0998 17.9258 54.2898 17.9258C53.4798 17.9258 52.8398 18.5658 52.8398 19.3658C52.8398 20.1658 53.4798 20.8058 54.2898 20.8058C55.0998 20.8058 55.7398 20.1558 55.7398 19.3658Z" fill="#9CEBFF"/>
<path d="M36.1002 19.3658C36.1002 18.5658 35.4602 17.9258 34.6502 17.9258C33.8402 17.9258 33.2002 18.5658 33.2002 19.3658C33.2002 20.1658 33.8402 20.8058 34.6502 20.8058C35.4502 20.8058 36.1002 20.1558 36.1002 19.3658Z" fill="url(#paint5_linear)"/>
<path d="M42.65 19.3658C42.65 18.5658 42.01 17.9258 41.2 17.9258C40.4 17.9258 39.75 18.5658 39.75 19.3658C39.75 20.1658 40.39 20.8058 41.2 20.8058C42.01 20.8058 42.65 20.1558 42.65 19.3658Z" fill="url(#paint6_linear)"/>
<path d="M62.2906 19.3658C62.2906 18.5658 61.6506 17.9258 60.8406 17.9258C60.0306 17.9258 59.3906 18.5658 59.3906 19.3658C59.3906 20.1658 60.0306 20.8058 60.8406 20.8058C61.6506 20.8058 62.2906 20.1558 62.2906 19.3658Z" fill="#9CEBFF"/>
<path d="M68.8404 19.3658C68.8404 18.5658 68.2004 17.9258 67.3904 17.9258C66.5804 17.9258 65.9404 18.5658 65.9404 19.3658C65.9404 20.1658 66.5804 20.8058 67.3904 20.8058C68.2004 20.8058 68.8404 20.1558 68.8404 19.3658Z" fill="#50E6FF"/>
<path d="M77.5103 43.3723H24.3203V63.0723H77.5103V43.3723Z" fill="url(#paint7_linear)"/>
<path fill-rule="evenodd" clip-rule="evenodd" d="M74.4906 64.0223H71.6806V69.9423H30.4206V64.0223H27.6206V79.0723H25.6006V81.8723H32.4406V79.0723H30.4206V72.0523H71.6806V79.0723H69.6606V81.8723H76.5106V79.0723H74.4906V64.0223Z" fill="#033056"/>
<path fill-rule="evenodd" clip-rule="evenodd" d="M77.6209 42.1958H74.4909V38.9558H71.6809V42.1958H30.4209V38.9558H27.6209V42.1958H23.3809V63.9958H78.6709V42.1958H77.6209ZM76.5709 53.6258L70.5309 44.3058H76.5709V53.6258ZM74.8109 61.8958H67.3309L55.8509 44.3058H62.8609L74.8109 61.8958ZM59.8709 61.8958H52.4309L41.0409 44.3058H48.5409L59.8709 61.8958ZM45.4909 61.8958H38.7809L28.1809 46.4158L27.6209 45.6058L26.7309 44.3058H33.6709L45.4909 61.8958ZM25.4909 61.8958V53.6158L27.6209 57.0058L28.8909 59.0258L30.6909 61.8858H25.4909V61.8958Z" fill="#054174"/>
<defs>
<linearGradient id="paint0_linear" x1="49.2607" y1="-13.7484" x2="53.2437" y2="132.02" gradientUnits="userSpaceOnUse">
<stop stop-color="#00ABDE"/>
<stop offset="1" stop-color="#007ED8"/>
</linearGradient>
<linearGradient id="paint1_linear" x1="51.0301" y1="-2.44626" x2="51.0301" y2="99.3176" gradientUnits="userSpaceOnUse">
<stop stop-color="#007ED8"/>
<stop offset="0.7065" stop-color="#002D4C"/>
</linearGradient>
<linearGradient id="paint2_linear" x1="33.211" y1="25.6834" x2="36.1025" y2="25.6834" gradientUnits="userSpaceOnUse">
<stop stop-color="#D2EBFF"/>
<stop offset="1" stop-color="#F0FFFD"/>
</linearGradient>
<linearGradient id="paint3_linear" x1="39.758" y1="25.6834" x2="42.6495" y2="25.6834" gradientUnits="userSpaceOnUse">
<stop stop-color="#D2EBFF"/>
<stop offset="1" stop-color="#F0FFFD"/>
</linearGradient>
<linearGradient id="paint4_linear" x1="46.305" y1="19.3689" x2="49.1966" y2="19.3689" gradientUnits="userSpaceOnUse">
<stop stop-color="#D2EBFF"/>
<stop offset="1" stop-color="#F0FFFD"/>
</linearGradient>
<linearGradient id="paint5_linear" x1="33.211" y1="19.3689" x2="36.1025" y2="19.3689" gradientUnits="userSpaceOnUse">
<stop stop-color="#D2EBFF"/>
<stop offset="1" stop-color="#F0FFFD"/>
</linearGradient>
<linearGradient id="paint6_linear" x1="39.758" y1="19.3689" x2="42.6495" y2="19.3689" gradientUnits="userSpaceOnUse">
<stop stop-color="#D2EBFF"/>
<stop offset="1" stop-color="#F0FFFD"/>
</linearGradient>
<linearGradient id="paint7_linear" x1="77.4806" y1="53.2406" x2="24.2952" y2="53.2406" gradientUnits="userSpaceOnUse">
<stop stop-color="#D2EBFF"/>
<stop offset="1" stop-color="#F0FFFD"/>
</linearGradient>
</defs>
</svg>
