<svg width="100" height="100" viewBox="0 0 100 100" fill="none" xmlns="http://www.w3.org/2000/svg">
<g clip-path="url(#clip0)">
<path d="M49.6394 96.4501C40.3812 96.4501 31.331 93.7047 23.6331 88.5612C15.9353 83.4176 9.9355 76.1069 6.39257 67.5535C2.84963 59.0001 1.92263 49.5882 3.72881 40.5079C5.53498 31.4277 9.9932 23.0869 16.5397 16.5404C23.0862 9.99394 31.4269 5.53571 40.5072 3.72954C49.5874 1.92337 58.9994 2.85036 67.5528 6.3933C76.1062 9.93624 83.4169 15.936 88.5605 23.6339C93.704 31.3317 96.4494 40.382 96.4494 49.6401C96.4498 55.7874 95.2393 61.8746 92.887 67.554C90.5348 73.2335 87.0868 78.3939 82.74 82.7407C78.3932 87.0875 73.2327 90.5355 67.5533 92.8878C61.8738 95.24 55.7867 96.4505 49.6394 96.4501V96.4501Z" fill="url(#paint0_linear)"/>
<path fill-rule="evenodd" clip-rule="evenodd" d="M95.54 49.64C95.54 58.7182 92.848 67.5924 87.8045 75.1407C82.7609 82.6889 75.5923 88.572 67.2052 92.0461C58.818 95.5201 49.5891 96.4291 40.6854 94.658C31.7816 92.887 23.603 88.5154 17.1838 82.0962C10.7646 75.677 6.39302 67.4984 4.62196 58.5946C2.85089 49.6909 3.75987 40.462 7.23393 32.0748C10.708 23.6877 16.5911 16.5191 24.1393 11.4755C31.6875 6.43198 40.5618 3.73999 49.64 3.73999C55.6677 3.73997 61.6363 4.92719 67.2052 7.23387C72.774 9.54056 77.834 12.9215 82.0963 17.1837C86.3585 21.446 89.7394 26.5059 92.0461 32.0748C94.3528 37.6436 95.54 43.6123 95.54 49.64V49.64ZM49.64 3.62732e-07C59.4579 3.62732e-07 69.0552 2.91134 77.2185 8.36585C85.3818 13.8204 91.7442 21.5731 95.5014 30.6436C99.2585 39.7141 100.242 49.6951 98.3262 59.3243C96.4108 68.9535 91.6831 77.7985 84.7408 84.7408C77.7985 91.6831 68.9535 96.4108 59.3243 98.3262C49.6951 100.242 39.7141 99.2585 30.6436 95.5014C21.5731 91.7442 13.8204 85.3818 8.36584 77.2185C2.91133 69.0552 -1.61629e-06 59.4579 3.61524e-07 49.64C-0.000786426 43.1209 1.28265 36.6656 3.77702 30.6427C6.27138 24.6197 9.92781 19.1471 14.5375 14.5375C19.1471 9.9278 24.6197 6.27138 30.6427 3.77701C36.6656 1.28265 43.121 -0.000787738 49.64 3.62732e-07V3.62732e-07Z" fill="#F2F1F0"/>
<path fill-rule="evenodd" clip-rule="evenodd" d="M92.7296 49.6401C92.7296 58.1625 90.2024 66.4935 85.4676 73.5796C80.7328 80.6657 74.0031 86.1886 66.1294 89.45C58.2557 92.7114 49.5918 93.5647 41.2331 91.9021C32.8745 90.2395 25.1966 86.1355 19.1703 80.1093C13.1441 74.083 9.04017 66.4051 7.37753 58.0465C5.7149 49.6879 6.56822 41.0239 9.8296 33.1502C13.091 25.2766 18.6139 18.5468 25.7 13.812C32.7862 9.07724 41.1172 6.55006 49.6396 6.55006C55.2983 6.54971 60.9017 7.66404 66.1298 9.82939C71.3579 11.9947 76.1082 15.1687 80.1096 19.1701C84.1109 23.1714 87.2849 27.9217 89.4502 33.1498C91.6156 38.3779 92.7299 43.9813 92.7296 49.6401ZM49.6396 2.81006C58.9017 2.81006 67.9558 5.55659 75.6569 10.7023C83.3581 15.8481 89.3604 23.1619 92.9049 31.719C96.4493 40.2761 97.3767 49.692 95.5697 58.7761C93.7628 67.8603 89.3027 76.2046 82.7534 82.7539C76.2041 89.3032 67.8598 93.7633 58.7757 95.5702C49.6915 97.3772 40.2756 96.4498 31.7185 92.9053C23.1614 89.3609 15.8476 83.3586 10.7018 75.6574C5.5561 67.9563 2.80957 58.9022 2.80957 49.6401C2.81076 37.2203 7.74501 25.3096 16.5271 16.5276C25.3091 7.7455 37.2198 2.81125 49.6396 2.81006V2.81006Z" fill="#0078D4"/>
<path fill-rule="evenodd" clip-rule="evenodd" d="M92.7296 49.6401C92.7296 58.1625 90.2024 66.4935 85.4676 73.5796C80.7328 80.6657 74.0031 86.1887 66.1294 89.4501C58.2557 92.7114 49.5918 93.5648 41.2331 91.9021C32.8745 90.2395 25.1966 86.1356 19.1703 80.1093C13.1441 74.0831 9.04017 66.4052 7.37753 58.0465C5.7149 49.6879 6.56822 41.0239 9.8296 33.1503C13.091 25.2766 18.6139 18.5469 25.7001 13.8121C32.7862 9.07728 41.1172 6.5501 49.6396 6.5501C55.2983 6.54975 60.9017 7.66408 66.1298 9.82943C71.3579 11.9948 76.1082 15.1688 80.1096 19.1701C84.1109 23.1714 87.2849 27.9218 89.4502 33.1499C91.6156 38.3779 92.7299 43.9813 92.7296 49.6401V49.6401ZM49.6396 2.8101C58.9017 2.8101 67.9558 5.55663 75.6569 10.7024C83.3581 15.8481 89.3604 23.162 92.9048 31.719C96.4493 40.2761 97.3767 49.692 95.5697 58.7762C93.7628 67.8603 89.3027 76.2046 82.7534 82.7539C76.2041 89.3032 67.8598 93.7633 58.7757 95.5703C49.6915 97.3772 40.2756 96.4498 31.7185 92.9054C23.1614 89.3609 15.8476 83.3586 10.7018 75.6575C5.5561 67.9563 2.80957 58.9022 2.80957 49.6401C2.81075 37.2204 7.74499 25.3097 16.5271 16.5276C25.3091 7.7455 37.2198 2.81125 49.6396 2.81006V2.8101Z" fill="#0078D4"/>
<path d="M35.2642 57.9147C44.507 57.9147 51.9997 50.422 51.9997 41.1793C51.9997 31.9366 44.507 24.4438 35.2642 24.4438C26.0215 24.4438 18.5288 31.9366 18.5288 41.1793C18.5288 50.422 26.0215 57.9147 35.2642 57.9147Z" fill="url(#paint1_linear)" stroke="#003067" stroke-miterlimit="10"/>
<path d="M39.2907 42.5774C39.4975 42.5774 39.7023 42.6181 39.8933 42.6972C40.0844 42.7763 40.2579 42.8923 40.4042 43.0385C40.5504 43.1848 40.6664 43.3583 40.7455 43.5494C40.8246 43.7404 40.8653 43.9452 40.8653 44.152V44.795C40.8653 45.1964 40.7398 45.5878 40.5064 45.9144C39.4241 47.4291 37.6566 48.1794 35.2619 48.1794C32.8667 48.1794 31.1002 47.4288 30.0204 45.9134C29.788 45.5872 29.6631 45.1966 29.6631 44.7961V44.152C29.6631 43.9452 29.7038 43.7404 29.7829 43.5494C29.8621 43.3584 29.978 43.1848 30.1243 43.0386C30.2705 42.8923 30.4441 42.7764 30.6351 42.6972C30.8261 42.6181 31.0309 42.5774 31.2377 42.5774L39.2907 42.5774ZM35.2619 34.1787C35.9543 34.1787 36.6311 34.384 37.2068 34.7687C37.7825 35.1534 38.2313 35.7001 38.4962 36.3398C38.7612 36.9795 38.8305 37.6834 38.6955 38.3625C38.5604 39.0416 38.227 39.6654 37.7374 40.155C37.2478 40.6446 36.624 40.978 35.9449 41.1131C35.2658 41.2481 34.5619 41.1788 33.9222 40.9139C33.2825 40.6489 32.7358 40.2002 32.3511 39.6245C31.9664 39.0488 31.7611 38.3719 31.7611 37.6795C31.7611 36.7511 32.1299 35.8606 32.7865 35.2041C33.443 34.5476 34.3334 34.1787 35.2619 34.1787V34.1787Z" fill="#0078D4"/>
<path d="M63.9666 57.9147C73.2094 57.9147 80.7021 50.422 80.7021 41.1793C80.7021 31.9366 73.2094 24.4438 63.9666 24.4438C54.7239 24.4438 47.2312 31.9366 47.2312 41.1793C47.2312 50.422 54.7239 57.9147 63.9666 57.9147Z" fill="url(#paint2_linear)" stroke="#003067" stroke-miterlimit="10"/>
<path d="M67.9931 42.5774C68.1999 42.5774 68.4047 42.6181 68.5957 42.6972C68.7867 42.7763 68.9603 42.8923 69.1065 43.0385C69.2528 43.1848 69.3687 43.3583 69.4479 43.5494C69.527 43.7404 69.5677 43.9452 69.5677 44.152V44.795C69.5677 45.1964 69.4422 45.5878 69.2088 45.9144C68.1264 47.4291 66.359 48.1794 63.9643 48.1794C61.569 48.1794 59.8026 47.4288 58.7228 45.9134C58.4904 45.5872 58.3655 45.1966 58.3655 44.7961V44.152C58.3655 43.9452 58.4062 43.7404 58.4853 43.5494C58.5644 43.3583 58.6804 43.1848 58.8266 43.0385C58.9729 42.8923 59.1464 42.7763 59.3375 42.6972C59.5285 42.6181 59.7333 42.5774 59.9401 42.5774H67.9931ZM63.9643 34.1787C64.6567 34.1787 65.3335 34.384 65.9092 34.7687C66.4849 35.1534 66.9336 35.7001 67.1986 36.3398C67.4636 36.9795 67.5329 37.6834 67.3978 38.3625C67.2628 39.0416 66.9293 39.6654 66.4397 40.155C65.9501 40.6446 65.3264 40.978 64.6473 41.1131C63.9682 41.2481 63.2643 41.1788 62.6246 40.9139C61.9849 40.6489 61.4381 40.2002 61.0535 39.6245C60.6688 39.0488 60.4635 38.3719 60.4635 37.6795C60.4635 36.7511 60.8323 35.8606 61.4888 35.2041C62.1454 34.5476 63.0358 34.1787 63.9643 34.1787V34.1787Z" fill="#0078D4"/>
<path opacity="0.2" d="M49.7969 32.9834C49.7516 32.9832 49.7071 32.98 49.6616 32.98C49.6021 32.98 49.5432 32.9841 49.4836 32.9845C49.5346 33.0663 49.5903 33.1448 49.6399 33.2276C49.6897 33.1445 49.7456 33.0656 49.7969 32.9834Z" fill="#003067"/>
<path opacity="0.2" d="M49.7969 32.9834C49.7456 33.0656 49.6897 33.1445 49.6399 33.2276C49.5903 33.1448 49.5346 33.0663 49.4836 32.9845C43.3958 33.0379 37.5705 35.471 33.2533 39.7636C28.9361 44.0562 26.4697 49.8676 26.3816 55.955C28.2658 57.1473 30.3699 57.9497 32.5695 58.3148C34.7692 58.6799 37.0197 58.6003 39.188 58.0807C41.3563 57.561 43.3985 56.612 45.1937 55.2895C46.9889 53.9671 48.5008 52.2981 49.6399 50.3813C50.7813 52.3016 52.2967 53.9731 54.0963 55.2966C55.8958 56.6201 57.9429 57.5687 60.116 58.0862C62.2891 58.6036 64.544 58.6794 66.7469 58.3089C68.9499 57.9384 71.0559 57.1292 72.9402 55.9294C72.8457 49.8391 70.3709 44.0278 66.0455 39.7393C61.7201 35.4508 55.8878 33.0258 49.7969 32.9834V32.9834Z" fill="#003067"/>
<path d="M49.6369 74.9296C60.2891 74.9296 68.9244 66.2942 68.9244 55.642C68.9244 44.9898 60.2891 36.3545 49.6369 36.3545C38.9847 36.3545 30.3494 44.9898 30.3494 55.642C30.3494 66.2942 38.9847 74.9296 49.6369 74.9296Z" fill="url(#paint3_linear)" stroke="#1F56A3" stroke-width="1.1525" stroke-miterlimit="10"/>
<path d="M54.9338 57.6225C55.2057 57.6225 55.4749 57.676 55.7261 57.78C55.9772 57.8841 56.2054 58.0366 56.3977 58.2288C56.5899 58.421 56.7424 58.6492 56.8464 58.9004C56.9505 59.1516 57.004 59.4207 57.004 59.6926V60.538C57.004 61.0658 56.839 61.5804 56.5321 62.0098C55.1091 64.0012 52.7854 64.9876 49.637 64.9876C46.488 64.9876 44.1655 64.0007 42.7459 62.0084C42.4403 61.5795 42.2761 61.066 42.2761 60.5394V59.6926C42.2761 59.4207 42.3297 59.1515 42.4337 58.9004C42.5377 58.6492 42.6902 58.421 42.8824 58.2287C43.0747 58.0365 43.3029 57.884 43.554 57.78C43.8052 57.676 44.0744 57.6224 44.3463 57.6224L54.9338 57.6225ZM49.637 46.5806C50.5473 46.5806 51.4372 46.8505 52.1941 47.3562C52.951 47.862 53.5409 48.5808 53.8893 49.4218C54.2376 50.2628 54.3288 51.1883 54.1512 52.0811C53.9736 52.9739 53.5352 53.794 52.8915 54.4377C52.2479 55.0814 51.4278 55.5197 50.5349 55.6973C49.6421 55.8749 48.7167 55.7837 47.8757 55.4354C47.0347 55.087 46.3158 54.4971 45.8101 53.7402C45.3044 52.9833 45.0344 52.0934 45.0344 51.1831C45.0344 49.9625 45.5194 48.7918 46.3825 47.9286C47.2457 47.0655 48.4163 46.5806 49.637 46.5806V46.5806Z" fill="white"/>
<path opacity="0.2" d="M67.9843 63.3016C67.5404 63.3666 67.115 63.5237 66.7353 63.7627L66.581 63.8608L66.541 63.6831C66.3737 62.9471 65.9623 62.2894 65.3736 61.817C64.7849 61.3446 64.0536 61.0854 63.2988 61.0815H62.7099C61.9552 61.0855 61.2239 61.3447 60.6353 61.8171C60.0466 62.2894 59.6351 62.9471 59.4677 63.6831L59.4277 63.8608L59.2725 63.7622C58.7445 63.4309 58.1331 63.2569 57.5098 63.2607C56.6253 63.2551 55.7743 63.5987 55.1416 64.2168L54.7246 64.6333C54.1946 65.1704 53.8616 65.8707 53.7795 66.6208C53.6974 67.3709 53.8711 68.1267 54.2725 68.7656L54.3691 68.9189L54.1924 68.958C53.4563 69.1256 52.7987 69.5373 52.3263 70.1261C51.854 70.715 51.5947 71.4463 51.5908 72.2012V72.7896C51.5935 73.238 51.6868 73.6813 51.8651 74.0927C52.0435 74.5042 52.3032 74.8753 52.6287 75.1838C56.0103 74.7381 59.2132 73.4034 61.9108 71.316C64.6084 69.2287 66.7041 66.4632 67.9843 63.3016V63.3016Z" fill="#003067"/>
<path d="M65.4752 72.0579C65.4752 72.6398 65.3027 73.2086 64.9794 73.6924C64.6562 74.1761 64.1967 74.5532 63.6592 74.7759C63.1216 74.9985 62.5301 75.0568 61.9594 74.9433C61.3887 74.8298 60.8646 74.5496 60.4531 74.1382C60.0417 73.7267 59.7615 73.2025 59.648 72.6319C59.5345 72.0612 59.5927 71.4697 59.8154 70.9321C60.0381 70.3946 60.4151 69.9351 60.8989 69.6119C61.3827 69.2886 61.9515 69.1161 62.5334 69.1161C63.3133 69.117 64.061 69.4272 64.6125 69.9788C65.164 70.5303 65.4743 71.278 65.4752 72.0579ZM70.912 70.4734L69.544 70.1693C69.4024 70.1177 69.2869 70.0124 69.2225 69.8763C69.218 69.8612 69.2126 69.8465 69.2063 69.8321L68.8288 68.9149C68.8224 68.899 68.815 68.8831 68.8071 68.8678C68.7559 68.7271 68.7627 68.5719 68.8259 68.4362L69.5784 67.2536C69.7324 66.9975 69.7981 66.6981 69.7655 66.4011C69.7329 66.1041 69.6039 65.826 69.3981 65.6094L68.9818 65.1931C68.7633 64.9909 68.4855 64.8642 68.1895 64.8317C67.8935 64.7993 67.5948 64.8627 67.3376 65.0128L66.1547 65.765C66.0793 65.8028 65.9957 65.821 65.9114 65.818C65.847 65.8204 65.7829 65.8088 65.7234 65.7842C65.7081 65.776 65.6923 65.7687 65.6761 65.7624L64.7591 65.3847C64.7446 65.3786 64.7299 65.3733 64.7149 65.3688C64.5787 65.3042 64.4734 65.1886 64.4219 65.047L64.118 63.6793C64.0458 63.3893 63.8804 63.131 63.6473 62.944C63.4142 62.7571 63.1262 62.6517 62.8274 62.644H62.2391C61.9404 62.6516 61.6524 62.7569 61.4193 62.9439C61.1862 63.1308 61.0209 63.3891 60.9488 63.679L60.6446 65.0476C60.5928 65.1889 60.4876 65.3043 60.3516 65.3688C60.3366 65.3733 60.3219 65.3788 60.3072 65.3847L59.3902 65.7625C59.374 65.7688 59.3582 65.7761 59.3428 65.7842C59.2833 65.8089 59.2192 65.8205 59.1548 65.8181C59.0705 65.8208 58.9868 65.8026 58.9112 65.7651L57.729 65.0131C57.4718 64.8631 57.1732 64.7996 56.8772 64.8321C56.5812 64.8646 56.3034 64.9912 56.0848 65.1934L55.6686 65.6094C55.4627 65.826 55.3336 66.1042 55.301 66.4012C55.2685 66.6983 55.3342 66.9978 55.4882 67.2539L56.2407 68.4362C56.3037 68.5719 56.3105 68.7269 56.2596 68.8675C56.2516 68.8831 56.244 68.899 56.2375 68.9149L55.86 69.8322C55.8541 69.8466 55.8486 69.8613 55.8438 69.8763C55.7794 70.0125 55.6639 70.1179 55.5223 70.1696L54.1546 70.4732C53.8646 70.5454 53.6063 70.7107 53.4193 70.9439C53.2323 71.177 53.127 71.465 53.1194 71.7638V72.3521C53.127 72.6508 53.2323 72.9388 53.4192 73.1719C53.6062 73.4049 53.8644 73.5702 54.1543 73.6425L55.5226 73.9463C55.6641 73.9981 55.7795 74.1035 55.8438 74.2397C55.8486 74.2547 55.8541 74.2694 55.86 74.2838L56.2375 75.201C56.2439 75.2169 56.2513 75.2325 56.2595 75.2481C56.3105 75.3888 56.3036 75.544 56.2404 75.6797L55.4882 76.862C55.3341 77.1181 55.2683 77.4176 55.3009 77.7147C55.3335 78.0118 55.4626 78.2899 55.6685 78.5065L56.0848 78.9228C56.3035 79.1249 56.5813 79.2515 56.8773 79.2839C57.1733 79.3164 57.472 79.253 57.7293 79.1031L58.911 78.3509C58.9867 78.3133 59.0705 78.2951 59.1549 78.298C59.2193 78.2954 59.2835 78.3069 59.3429 78.3318C59.3585 78.3394 59.3741 78.3471 59.3903 78.3536L60.3073 78.7313C60.322 78.7372 60.3367 78.7425 60.3517 78.7472C60.4877 78.8118 60.593 78.9273 60.6447 79.0687L60.9489 80.4367C61.021 80.7267 61.1863 80.985 61.4193 81.1721C61.6524 81.3591 61.9404 81.4644 62.2392 81.472H62.8275C63.1263 81.4643 63.4142 81.3589 63.6473 81.1719C63.8804 80.9849 64.0457 80.7267 64.1178 80.4367L64.422 79.0687C64.4737 78.9272 64.5789 78.8117 64.715 78.7472C64.73 78.7425 64.7447 78.7372 64.7592 78.7313L65.6762 78.3536C65.6923 78.3471 65.7082 78.3394 65.7235 78.3318C65.7829 78.307 65.8469 78.2955 65.9112 78.298C65.9956 78.295 66.0793 78.3132 66.1548 78.3509L67.3374 79.1028C67.5947 79.2529 67.8933 79.3165 68.1894 79.284C68.4854 79.2516 68.7633 79.125 68.9819 78.9228L69.3979 78.5068C69.6038 78.2902 69.733 78.012 69.7656 77.7149C69.7982 77.4178 69.7325 77.1182 69.5786 76.862L68.826 75.6797C68.7947 75.6125 68.7769 75.5399 68.7737 75.4659C68.7705 75.3919 68.7818 75.318 68.8072 75.2484C68.8151 75.2328 68.8225 75.2172 68.829 75.2013L69.2064 74.2838C69.2127 74.2694 69.2181 74.2546 69.2226 74.2396C69.2871 74.1033 69.4028 73.998 69.5444 73.9463L70.9118 73.6424C71.2018 73.5703 71.4602 73.4051 71.6473 73.172C71.8343 72.9389 71.9398 72.6509 71.9473 72.3521V71.7638C71.9398 71.465 71.8344 71.177 71.6474 70.9439C71.4604 70.7108 71.202 70.5455 70.912 70.4734V70.4734Z" fill="url(#paint4_linear)"/>
<path opacity="0.2" d="M65.4753 72.0576C65.4753 72.6394 65.3028 73.2082 64.9795 73.692C64.6562 74.1758 64.1968 74.5529 63.6592 74.7755C63.1217 74.9982 62.5302 75.0564 61.9595 74.9429C61.3888 74.8294 60.8646 74.5492 60.4532 74.1378C60.0418 73.7264 59.7616 73.2022 59.6481 72.6315C59.5346 72.0609 59.5928 71.4693 59.8155 70.9318C60.0382 70.3942 60.4152 69.9348 60.899 69.6115C61.3828 69.2883 61.9516 69.1157 62.5334 69.1157C63.3134 69.1167 64.0611 69.4269 64.6126 69.9784C65.1641 70.5299 65.4744 71.2776 65.4753 72.0576Z" fill="url(#paint5_linear)"/>
</g>
<defs>
<linearGradient id="paint0_linear" x1="47.869" y1="-15.153" x2="51.8518" y2="130.615" gradientUnits="userSpaceOnUse">
<stop stop-color="#00ABDE"/>
<stop offset="1" stop-color="#007ED8"/>
</linearGradient>
<linearGradient id="paint1_linear" x1="35.2642" y1="24.4438" x2="35.2642" y2="57.9747" gradientUnits="userSpaceOnUse">
<stop stop-color="#005BA1"/>
<stop offset="0.26" stop-color="#00589D"/>
<stop offset="0.53" stop-color="#004F90"/>
<stop offset="0.8" stop-color="#003F7C"/>
<stop offset="1" stop-color="#003067"/>
</linearGradient>
<linearGradient id="paint2_linear" x1="63.9666" y1="24.4438" x2="63.9666" y2="57.9747" gradientUnits="userSpaceOnUse">
<stop stop-color="#005BA1"/>
<stop offset="0.26" stop-color="#00589D"/>
<stop offset="0.53" stop-color="#004F90"/>
<stop offset="0.8" stop-color="#003F7C"/>
<stop offset="1" stop-color="#003067"/>
</linearGradient>
<linearGradient id="paint3_linear" x1="49.6369" y1="74.9296" x2="49.6369" y2="36.3545" gradientUnits="userSpaceOnUse">
<stop stop-color="#004DAE"/>
<stop offset="0.21" stop-color="#0061C4"/>
<stop offset="0.51" stop-color="#0078DD"/>
<stop offset="0.78" stop-color="#0086EC"/>
<stop offset="1" stop-color="#008BF1"/>
</linearGradient>
<linearGradient id="paint4_linear" x1="62.5334" y1="81.4719" x2="62.5334" y2="62.644" gradientUnits="userSpaceOnUse">
<stop stop-color="#CCCCCC"/>
<stop offset="0.32" stop-color="#DFDFDF"/>
<stop offset="0.67" stop-color="#ECECEC"/>
<stop offset="1" stop-color="#F0F0F0"/>
</linearGradient>
<linearGradient id="paint5_linear" x1="62.5334" y1="74.9994" x2="62.5334" y2="69.1157" gradientUnits="userSpaceOnUse">
<stop stop-color="#CCCCCC"/>
<stop offset="1" stop-color="white"/>
</linearGradient>
<clipPath id="clip0">
<rect width="99.2799" height="99.28" fill="white"/>
</clipPath>
</defs>
</svg>
