<svg width="102" height="102" viewBox="0 0 102 102" fill="none" xmlns="http://www.w3.org/2000/svg">
<path d="M50.9995 97.8099C44.8523 97.8099 38.7652 96.5991 33.0859 94.2467C27.4067 91.8943 22.2461 88.4463 17.8994 84.0996C13.5527 79.7529 10.1049 74.5926 7.75244 68.9133C5.40002 63.2341 4.18945 57.1471 4.18945 50.9999C4.18945 44.8527 5.40002 38.7658 7.75244 33.0865C10.1049 27.4073 13.5527 22.247 17.8994 17.9003C22.2461 13.5536 27.4067 10.1056 33.0859 7.75317C38.7652 5.40075 44.8523 4.18994 50.9995 4.18994C63.4143 4.18994 75.3205 9.12169 84.0991 17.9003C92.8777 26.6788 97.8091 38.5851 97.8091 50.9999C97.8091 63.4147 92.8777 75.321 84.0991 84.0996C75.3205 92.8782 63.4143 97.8099 50.9995 97.8099V97.8099Z" fill="url(#paint0_linear)"/>
<path fill-rule="evenodd" clip-rule="evenodd" d="M96.8994 50.9999C96.8994 63.1733 92.0635 74.8483 83.4556 83.4562C74.8476 92.0641 63.1729 96.8999 50.9995 96.8999C38.8261 96.8999 27.1509 92.0641 18.543 83.4562C9.93505 74.8483 5.09912 63.1733 5.09912 50.9999C5.09912 38.8264 9.93505 27.1516 18.543 18.5437C27.1509 9.93578 38.8261 5.09998 50.9995 5.09998C63.1729 5.09998 74.8476 9.93578 83.4556 18.5437C92.0635 27.1516 96.8994 38.8264 96.8994 50.9999V50.9999ZM50.9995 1.35986C57.5187 1.35855 63.9739 2.64169 69.9971 5.13587C76.0203 7.63004 81.4933 11.2865 86.103 15.8962C90.7128 20.506 94.3691 25.9788 96.8633 32.002C99.3575 38.0252 100.64 44.4807 100.639 50.9999C100.639 64.1652 95.4094 76.7914 86.1001 86.1007C76.7908 95.41 64.1649 100.64 50.9995 100.64C37.8342 100.64 25.2077 95.41 15.8984 86.1007C6.58913 76.7914 1.35938 64.1652 1.35938 50.9999C1.35806 44.4807 2.64108 38.0252 5.13525 32.002C7.62943 25.9788 11.2857 20.506 15.8955 15.8962C20.5053 11.2865 25.9783 7.63004 32.0015 5.13587C38.0247 2.64169 44.4803 1.35855 50.9995 1.35986V1.35986Z" fill="#F2F1F0"/>
<path fill-rule="evenodd" clip-rule="evenodd" d="M94.0898 50.9999C94.0898 62.4281 89.5502 73.3882 81.4692 81.4691C73.3883 89.5501 62.4282 94.09 51 94.09C39.5718 94.09 28.6117 89.5501 20.5308 81.4691C12.4498 73.3882 7.90967 62.4281 7.90967 50.9999C7.90967 39.5717 12.4498 28.6116 20.5308 20.5306C28.6117 12.4497 39.5718 7.90991 51 7.90991C62.4282 7.90991 73.3883 12.4497 81.4692 20.5306C89.5502 28.6116 94.0898 39.5717 94.0898 50.9999ZM51 4.16992C63.4201 4.16992 75.3314 9.10378 84.1138 17.8861C92.8961 26.6684 97.8296 38.5798 97.8296 50.9999C97.8296 63.42 92.8961 75.3314 84.1138 84.1138C75.3314 92.8961 63.4201 97.83 51 97.83C38.5799 97.83 26.6686 92.8961 17.8862 84.1138C9.1039 75.3314 4.16992 63.42 4.16992 50.9999C4.16992 38.5798 9.1039 26.6684 17.8862 17.8861C26.6686 9.10378 38.5799 4.16992 51 4.16992Z" fill="url(#paint1_linear)"/>
<path opacity="0.15" d="M20.9404 76.45H81.4604C81.7787 76.45 82.0836 76.3236 82.3086 76.0985C82.5336 75.8735 82.6602 75.5683 82.6602 75.25V28H19.7402V75.25C19.7402 75.5683 19.8668 75.8735 20.0918 76.0985C20.3168 76.3236 20.6222 76.45 20.9404 76.45V76.45Z" fill="#1F1D20"/>
<path d="M20.9404 74.74H81.4604C81.7787 74.74 82.0836 74.6136 82.3086 74.3885C82.5336 74.1635 82.6602 73.8583 82.6602 73.54V26.29H19.7402V73.54C19.7402 73.8583 19.8668 74.1635 20.0918 74.3885C20.3168 74.6136 20.6222 74.74 20.9404 74.74V74.74Z" fill="#EBEBEB"/>
<path d="M19.7402 31.5199H82.6602V25.8799C82.6602 25.7591 82.6366 25.6395 82.5903 25.5278C82.5441 25.4162 82.4761 25.3148 82.3906 25.2294C82.3052 25.1439 82.2039 25.0761 82.0923 25.0299C81.9807 24.9837 81.8611 24.96 81.7402 24.96H20.6602C20.5393 24.96 20.4197 24.9837 20.3081 25.0299C20.1965 25.0761 20.0952 25.1439 20.0098 25.2294C19.9243 25.3148 19.8568 25.4162 19.8105 25.5278C19.7643 25.6395 19.7402 25.7591 19.7402 25.8799V31.5199Z" fill="#092E4C"/>
<path d="M24.5801 29.9698C24.7902 29.9698 24.9983 29.9284 25.1924 29.848C25.3865 29.7676 25.5629 29.6498 25.7115 29.5012C25.86 29.3526 25.9782 29.1762 26.0586 28.9821C26.139 28.7879 26.1802 28.5799 26.1802 28.3698C26.1776 27.9471 26.0078 27.5428 25.708 27.2449C25.4083 26.947 25.0027 26.7798 24.5801 26.7798C24.1558 26.7798 23.7488 26.9484 23.4488 27.2484C23.1487 27.5485 22.9805 27.9554 22.9805 28.3798C22.9792 28.5898 23.0196 28.798 23.0996 28.9922C23.1797 29.1864 23.2978 29.3626 23.4468 29.5106C23.5958 29.6587 23.7726 29.7755 23.9673 29.8544C24.162 29.9332 24.3701 29.9725 24.5801 29.9698Z" fill="#41C2CD"/>
<path d="M36.3701 54.7598C38.3592 54.7598 40.2673 53.9696 41.6738 52.5631C43.0804 51.1566 43.8701 49.2489 43.8701 47.2598C43.8701 45.2706 43.0804 43.3631 41.6738 41.9565C40.2673 40.55 38.3592 39.7598 36.3701 39.7598C34.381 39.7598 32.4734 40.55 31.0669 41.9565C29.6604 43.3631 28.8701 45.2706 28.8701 47.2598C28.8701 49.2489 29.6604 51.1566 31.0669 52.5631C32.4734 53.9696 34.381 54.7598 36.3701 54.7598Z" fill="#036C70"/>
<path d="M42.6196 61.0098C44.4426 61.0098 46.191 60.2864 47.481 58.9983C48.7709 57.7102 49.4974 55.9627 49.5 54.1398C49.5 53.2363 49.3218 52.3417 48.9761 51.507C48.6303 50.6722 48.1237 49.9138 47.4849 49.2749C46.846 48.636 46.0872 48.1293 45.2524 47.7836C44.4177 47.4378 43.5231 47.2598 42.6196 47.2598C41.7166 47.2598 40.8224 47.4378 39.9883 47.7837C39.1541 48.1296 38.3964 48.6365 37.7583 49.2755C37.1202 49.9145 36.6147 50.673 36.27 51.5077C35.9254 52.3424 35.7487 53.2367 35.75 54.1398C35.75 55.9618 36.4738 57.7093 37.7622 58.9977C39.0506 60.2861 40.7976 61.0098 42.6196 61.0098Z" fill="#179BA1"/>
<path d="M37.3003 66.0099C38.7086 66.0099 40.0594 65.4505 41.0552 64.4547C42.051 63.4589 42.6104 62.1083 42.6104 60.7C42.6024 59.2969 42.0394 57.9539 41.0444 56.9646C40.0495 55.9753 38.7034 55.4199 37.3003 55.4199C36.603 55.4199 35.9123 55.5572 35.2681 55.8241C34.6238 56.0909 34.0385 56.4821 33.5454 56.9752C33.0523 57.4683 32.6614 58.0536 32.3945 58.6979C32.1277 59.3421 31.9902 60.0327 31.9902 60.73C31.9982 62.1331 32.5612 63.476 33.5562 64.4653C34.5511 65.4547 35.8972 66.0099 37.3003 66.0099V66.0099Z" fill="#41C2CD"/>
<path opacity="0.1" d="M37.6197 46.5302V59.8702C37.6101 60.0875 37.5381 60.2975 37.4122 60.4749C37.2862 60.6523 37.1118 60.7895 36.9097 60.8702C36.7741 60.9296 36.628 60.9603 36.48 60.9603H32V60.6502C31.9899 60.5471 31.9899 60.4434 32 60.3403C32.0536 59.3597 32.3792 58.4134 32.941 57.6078C33.5027 56.8023 34.278 56.1693 35.1797 55.7802V54.6202C33.2161 54.308 31.4569 53.2288 30.2886 51.6199C29.1204 50.011 28.6388 48.0041 28.9498 46.0402V45.9603C28.9776 45.7507 29.021 45.5434 29.0796 45.3403H36.4498C36.6063 45.336 36.7621 45.364 36.9073 45.4225C37.0525 45.4811 37.1842 45.569 37.294 45.6806C37.4038 45.7922 37.4894 45.9253 37.5455 46.0715C37.6015 46.2177 37.6266 46.3738 37.6197 46.5302Z" fill="black"/>
<path opacity="0.2" d="M35.8503 46.0098H28.9806C28.8144 46.9798 28.841 47.973 29.0593 48.9327C29.2775 49.8923 29.6832 50.7993 30.2526 51.602C30.8221 52.4046 31.544 53.087 32.3776 53.61C33.2113 54.133 34.1401 54.4864 35.1105 54.6498L35.4806 54.7099C34.4845 55.3036 33.6477 56.1311 33.0431 57.1208C32.4385 58.1104 32.084 59.2324 32.0104 60.3898C32.0003 60.4929 32.0003 60.5968 32.0104 60.6999V61.0098C32.0223 61.2214 32.0491 61.4319 32.0905 61.6398H35.8605C36.0881 61.6359 36.3095 61.5658 36.4977 61.4379C36.686 61.31 36.8331 61.13 36.9206 60.9198C36.9821 60.785 37.0127 60.638 37.0104 60.4898V47.1498C37.0091 46.9988 36.9781 46.8495 36.9191 46.7105C36.8601 46.5715 36.7744 46.4455 36.6667 46.3396C36.559 46.2338 36.4312 46.1501 36.2912 46.0935C36.1512 46.037 36.0013 46.0085 35.8503 46.0098V46.0098Z" fill="black"/>
<path opacity="0.2" d="M35.8503 46.0098H28.9806C28.8144 46.9797 28.841 47.973 29.0593 48.9326C29.2775 49.8922 29.6832 50.7993 30.2526 51.6019C30.8221 52.4046 31.544 53.087 32.3776 53.61C33.2113 54.133 34.1401 54.4863 35.1105 54.6498H35.3605C34.3974 55.274 33.5929 56.1142 33.0114 57.1036C32.4299 58.0931 32.0871 59.2047 32.0104 60.3499H35.8503C36.1537 60.3447 36.4433 60.2219 36.6579 60.0073C36.8725 59.7928 36.9955 59.5032 37.0007 59.1998V47.1097C36.9878 46.8135 36.8609 46.5337 36.6467 46.3287C36.4324 46.1238 36.1468 46.0095 35.8503 46.0098V46.0098Z" fill="black"/>
<path opacity="0.2" d="M35.2299 46.0098H28.9799C28.663 47.8663 29.0567 49.7742 30.0834 51.3531C31.1101 52.9321 32.6945 54.0663 34.52 54.5298C33.0888 56.1711 32.2103 58.2213 32.0097 60.3898H35.2299C35.5332 60.3871 35.8231 60.2648 36.0366 60.0494C36.2501 59.8341 36.3696 59.543 36.3696 59.2397V47.1498C36.3696 46.8474 36.2499 46.5575 36.0361 46.3438C35.8223 46.13 35.5323 46.0098 35.2299 46.0098V46.0098Z" fill="black"/>
<path d="M23.7706 46.0098H35.2305C35.3811 46.0098 35.53 46.0397 35.669 46.0976C35.808 46.1555 35.9341 46.2403 36.0401 46.3472C36.1461 46.4541 36.23 46.581 36.2867 46.7205C36.3434 46.86 36.3715 47.0093 36.3702 47.1598V58.6098C36.3715 58.7603 36.3434 58.9096 36.2867 59.0491C36.23 59.1886 36.1461 59.3155 36.0401 59.4224C35.9341 59.5293 35.808 59.6142 35.669 59.6722C35.53 59.7301 35.3811 59.7598 35.2305 59.7598H23.7706C23.6192 59.7611 23.4688 59.7323 23.3287 59.675C23.1885 59.6177 23.0612 59.533 22.9541 59.4259C22.8471 59.3189 22.7624 59.1917 22.7051 59.0516C22.6478 58.9114 22.6188 58.7612 22.6202 58.6098V47.1598C22.6188 47.0084 22.6478 46.8583 22.7051 46.7182C22.7624 46.5781 22.8471 46.4507 22.9541 46.3437C23.0612 46.2366 23.1885 46.152 23.3287 46.0946C23.4688 46.0373 23.6192 46.0085 23.7706 46.0098V46.0098Z" fill="url(#paint2_linear)"/>
<path d="M27.7397 52.7498C27.471 52.5678 27.2455 52.3288 27.0796 52.0499C26.9173 51.7422 26.838 51.3975 26.8496 51.0499C26.8387 50.6043 26.9919 50.1702 27.2798 49.8299C27.58 49.4826 27.9713 49.2263 28.4097 49.0899C28.9075 48.9307 29.427 48.8498 29.9497 48.8499C30.6282 48.829 31.3051 48.9271 31.9497 49.1398V50.5699C31.6657 50.3964 31.3549 50.2713 31.0298 50.1999C30.68 50.1118 30.3207 50.0681 29.96 50.0699C29.5773 50.0609 29.1972 50.1396 28.8496 50.2999C28.7215 50.359 28.6133 50.4534 28.5371 50.5721C28.4609 50.6908 28.4203 50.8289 28.4199 50.9699C28.4172 51.0563 28.4315 51.1423 28.4624 51.223C28.4933 51.3037 28.5399 51.3775 28.5996 51.4399C28.7435 51.5861 28.913 51.7047 29.0996 51.7899C29.3096 51.8999 29.62 52.0399 30.04 52.2099L30.1699 52.2598C30.5807 52.4227 30.9785 52.6167 31.3599 52.8399C31.6431 53.0215 31.882 53.2641 32.0596 53.5499C32.2325 53.8759 32.3186 54.2409 32.3096 54.6098C32.3275 55.0698 32.1863 55.5219 31.9097 55.8898C31.6332 56.2271 31.265 56.4771 30.8496 56.6098C30.3566 56.7577 29.8443 56.8319 29.3296 56.8299C28.8703 56.8301 28.4122 56.79 27.96 56.7099C27.5735 56.6505 27.1967 56.5394 26.8398 56.3798V54.8698C27.1841 55.1111 27.5658 55.2936 27.9697 55.4099C28.3723 55.5314 28.7896 55.5986 29.21 55.6098C29.5981 55.6321 29.9847 55.5492 30.3296 55.3698C30.4495 55.3018 30.5491 55.2028 30.6177 55.0832C30.6863 54.9636 30.7216 54.8278 30.7197 54.6899C30.7198 54.5944 30.7004 54.4998 30.6626 54.4121C30.6248 54.3244 30.5695 54.2454 30.5 54.1799C30.3312 54.0114 30.135 53.8728 29.9199 53.7698C29.6699 53.6398 29.2996 53.4798 28.8096 53.2698C28.4383 53.1283 28.0804 52.9543 27.7397 52.7498V52.7498Z" fill="white"/>
<path d="M55.4502 54.9799C56.1795 54.9799 56.8793 54.69 57.395 54.1743C57.9107 53.6586 58.2002 52.9592 58.2002 52.2299C58.1975 51.5022 57.9066 50.8053 57.3911 50.2917C56.8757 49.7782 56.1778 49.4897 55.4502 49.4897C54.7226 49.4897 54.0247 49.7782 53.5093 50.2917C52.9938 50.8053 52.7028 51.5022 52.7002 52.2299C52.7002 52.9592 52.9901 53.6586 53.5059 54.1743C54.0216 54.69 54.7208 54.9799 55.4502 54.9799Z" fill="#B9DDB0"/>
<path d="M73.5601 66.8201C74.2894 66.8201 74.9892 66.5304 75.5049 66.0146C76.0206 65.4989 76.3101 64.7994 76.3101 64.0701C76.3074 63.3425 76.0169 62.6455 75.5015 62.132C74.986 61.6184 74.2877 61.3301 73.5601 61.3301C72.8334 61.3301 72.1369 61.6187 71.623 62.1326C71.1092 62.6464 70.8203 63.3434 70.8203 64.0701C70.8203 64.7977 71.1085 65.4957 71.6221 66.0111C72.1356 66.5265 72.8324 66.8174 73.5601 66.8201Z" fill="#ADD9AE"/>
<path d="M55.6201 49.8302C56.2284 49.8302 56.8121 50.0711 57.2432 50.5002C57.6742 50.9294 57.9178 51.5119 57.9204 52.1201C57.9178 52.7284 57.6742 53.3108 57.2432 53.74C56.8121 54.1692 56.2284 54.4102 55.6201 54.4102C55.0145 54.4102 54.4336 54.1702 54.0044 53.7429C53.5752 53.3156 53.3327 52.7357 53.3301 52.1301C53.3301 51.5219 53.5713 50.9384 54.0005 50.5073C54.4297 50.0763 55.0119 49.8328 55.6201 49.8302V49.8302ZM55.6201 48.7002C54.7122 48.7028 53.8423 49.0654 53.2012 49.7084C52.5601 50.3513 52.2002 51.2222 52.2002 52.1301C52.2002 53.0372 52.5608 53.9071 53.2021 54.5485C53.8435 55.1898 54.7131 55.5502 55.6201 55.5502C56.529 55.5475 57.4003 55.1853 58.043 54.5426C58.6856 53.8999 59.0477 53.029 59.0503 52.1201C59.0476 51.2122 58.685 50.3424 58.042 49.7013C57.399 49.0602 56.5281 48.7002 55.6201 48.7002V48.7002Z" fill="#38B559"/>
<path d="M73.5606 61.58C74.1662 61.58 74.7476 61.8198 75.1768 62.2471C75.6059 62.6744 75.848 63.2543 75.8506 63.8599C75.8506 64.4681 75.6099 65.0517 75.1807 65.4828C74.7515 65.9138 74.1688 66.1573 73.5606 66.1599C72.9523 66.1599 72.3691 65.9189 71.938 65.4897C71.507 65.0606 71.2634 64.4781 71.2608 63.8699C71.2634 63.2616 71.507 62.6792 71.938 62.25C72.3691 61.8208 72.9523 61.58 73.5606 61.58ZM73.5606 60.4399C72.6517 60.4426 71.7809 60.8048 71.1382 61.4475C70.4955 62.0902 70.1335 62.961 70.1309 63.8699C70.1295 64.3202 70.2171 64.7664 70.3892 65.1826C70.5612 65.5988 70.8139 65.9767 71.1328 66.2947C71.4517 66.6126 71.8309 66.8643 72.2476 67.0352C72.6643 67.206 73.1102 67.2926 73.5606 67.2899C74.4685 67.2873 75.3384 66.9247 75.9795 66.2817C76.6206 65.6388 76.981 64.7678 76.981 63.8599C76.9836 63.4091 76.8968 62.9623 76.7261 62.545C76.5554 62.1278 76.3042 61.7484 75.9863 61.4287C75.6685 61.109 75.2903 60.8552 74.874 60.6821C74.4578 60.509 74.0114 60.4199 73.5606 60.4199V60.4399Z" fill="#098142"/>
<path d="M77.1909 50.4897L76.1909 49.4897L74.001 51.6798L71.8408 49.5198L70.8408 50.5198L72.9907 52.6698L70.8809 54.7898L71.8809 55.7898L74.001 53.6698L76.1606 55.8298L77.1606 54.8298L74.9907 52.6698L77.1909 50.4897Z" fill="#175A98"/>
<path d="M57.6509 60.6201L55.4507 62.8102L53.3008 60.6602L52.3008 61.6602L54.4507 63.8202L52.3306 65.9302L53.3306 66.9302L55.4409 64.8102L57.6006 66.9702L58.6006 65.9702L56.4409 63.8102L58.6406 61.6101L57.6509 60.6201Z" fill="#175A98"/>
<path d="M60.9707 56.7898L59.8809 54.0698L62.791 54.4998L60.9707 56.7898Z" fill="url(#paint3_linear)"/>
<path d="M69.4605 61.4202C69.3741 61.4195 69.2899 61.3915 69.2203 61.3402C66.5762 59.1351 63.7717 57.1295 60.8302 55.3402C60.7879 55.3155 60.7512 55.2825 60.7218 55.2434C60.6923 55.2043 60.6709 55.1597 60.6588 55.1123C60.6467 55.0649 60.6443 55.0155 60.6515 54.967C60.6586 54.9186 60.6751 54.8721 60.7003 54.8302C60.7231 54.7861 60.7549 54.7472 60.7936 54.7159C60.8322 54.6847 60.877 54.6617 60.9249 54.6485C60.9728 54.6354 61.0227 54.6324 61.0719 54.6395C61.121 54.6467 61.1684 54.6639 61.2105 54.6902C64.1817 56.5037 67.0159 58.5324 69.6905 60.7601C69.7596 60.8311 69.7979 60.9262 69.7979 61.0251C69.7979 61.1241 69.7596 61.2192 69.6905 61.2901C69.6319 61.3596 69.5503 61.4057 69.4605 61.4202V61.4202Z" fill="#175A98"/>
<path d="M67.3008 41.5L70.2407 41.5801L68.6909 44.0801L67.3008 41.5Z" fill="url(#paint4_linear)"/>
<path d="M59.301 48.7102C59.2453 48.7095 59.1904 48.6965 59.1403 48.6723C59.0902 48.6481 59.0461 48.6133 59.0109 48.5701C58.9786 48.5324 58.9542 48.4886 58.9391 48.4412C58.9241 48.3939 58.9189 48.344 58.9235 48.2945C58.9282 48.245 58.9429 48.197 58.9665 48.1533C58.9901 48.1096 59.0219 48.0711 59.0607 48.0401C61.874 45.6583 65.021 43.7009 68.4011 42.2302C68.4456 42.2084 68.4941 42.1957 68.5436 42.1929C68.5931 42.1902 68.6425 42.1975 68.6891 42.2143C68.7358 42.2311 68.7787 42.2571 68.8151 42.2907C68.8515 42.3244 68.8807 42.3649 68.9011 42.4101C68.9424 42.5004 68.9464 42.6034 68.9128 42.6968C68.8791 42.7903 68.8103 42.8668 68.7209 42.9101C65.399 44.3475 62.3064 46.2647 59.5412 48.6002C59.5122 48.6356 59.4754 48.6639 59.4338 48.6829C59.3922 48.702 59.3467 48.7113 59.301 48.7102V48.7102Z" fill="url(#paint5_linear)"/>
<path d="M74.4209 44.2097C75.1485 44.2071 75.8453 43.9161 76.3589 43.4006C76.8725 42.8852 77.1606 42.1873 77.1606 41.4597C77.1606 40.733 76.8722 40.0361 76.3584 39.5222C75.8445 39.0084 75.1476 38.7197 74.4209 38.7197C73.6933 38.7197 72.9954 39.008 72.48 39.5216C71.9645 40.0352 71.6735 40.7321 71.6709 41.4597C71.6709 42.1891 71.9603 42.8884 72.4761 43.4042C72.9918 43.9199 73.6916 44.2097 74.4209 44.2097Z" fill="#DCEDD7"/>
<path d="M74.5708 39.17C75.1774 39.1727 75.7581 39.4147 76.187 39.8436C76.6159 40.2725 76.8582 40.8535 76.8609 41.4601C76.8582 42.0666 76.6159 42.6475 76.187 43.0764C75.7581 43.5053 75.1774 43.7474 74.5708 43.75C73.9625 43.75 73.3788 43.5091 72.9478 43.08C72.5167 42.6508 72.2737 42.0683 72.271 41.4601C72.2737 40.8518 72.5167 40.2694 72.9478 39.8402C73.3788 39.411 73.9625 39.17 74.5708 39.17V39.17ZM74.5708 38.04C73.6629 38.04 72.7919 38.4 72.1489 39.0411C71.506 39.6822 71.1433 40.5521 71.1406 41.4601C71.1393 41.9104 71.2274 42.3565 71.3994 42.7727C71.5715 43.1889 71.8242 43.5669 72.1431 43.8849C72.462 44.2029 72.8407 44.4544 73.2573 44.6252C73.674 44.7961 74.1205 44.8826 74.5708 44.88C75.0199 44.88 75.4645 44.7916 75.8794 44.6198C76.2943 44.4479 76.6717 44.1959 76.9893 43.8783C77.3068 43.5607 77.5586 43.1837 77.7305 42.7688C77.9024 42.3539 77.9907 41.9092 77.9907 41.4601C77.9907 40.553 77.6306 39.6831 76.9893 39.0417C76.3479 38.4004 75.4779 38.04 74.5708 38.04V38.04Z" fill="#81C566"/>
<defs>
<linearGradient id="paint0_linear" x1="49.2393" y1="-13.7801" x2="53.2193" y2="131.99" gradientUnits="userSpaceOnUse">
<stop stop-color="#00ABDE"/>
<stop offset="1" stop-color="#2E7BBF"/>
</linearGradient>
<linearGradient id="paint1_linear" x1="2.43993" y1="-20.6201" x2="97.9601" y2="120.26" gradientUnits="userSpaceOnUse">
<stop stop-color="#2E7BBF"/>
<stop offset="0.71" stop-color="#092D4C"/>
</linearGradient>
<linearGradient id="paint2_linear" x1="25.0102" y1="45.1198" x2="33.9802" y2="60.6598" gradientUnits="userSpaceOnUse">
<stop stop-color="#038F92"/>
<stop offset="0.5" stop-color="#018489"/>
<stop offset="1" stop-color="#026D71"/>
</linearGradient>
<linearGradient id="paint3_linear" x1="67.5113" y1="34.11" x2="45.0527" y2="107.49" gradientUnits="userSpaceOnUse">
<stop stop-color="#145490"/>
<stop offset="0.42" stop-color="#243A5E"/>
<stop offset="0.97" stop-color="#1A2C45"/>
</linearGradient>
<linearGradient id="paint4_linear" x1="15041.7" y1="18331.4" x2="14989.8" y2="18138.3" gradientUnits="userSpaceOnUse">
<stop stop-color="#145490"/>
<stop offset="0.42" stop-color="#243A5E"/>
<stop offset="0.97" stop-color="#1A2C45"/>
</linearGradient>
<linearGradient id="paint5_linear" x1="51028.6" y1="46253.2" x2="50928.4" y2="45750.1" gradientUnits="userSpaceOnUse">
<stop stop-color="#145490"/>
<stop offset="0.42" stop-color="#243A5E"/>
<stop offset="0.97" stop-color="#1A2C45"/>
</linearGradient>
</defs>
</svg>
