<svg width="100" height="100" viewBox="0 0 100 100" fill="none" xmlns="http://www.w3.org/2000/svg">
<g clip-path="url(#clip0)">
<path d="M49.6396 96.4501C40.3815 96.4501 31.3312 93.7047 23.6334 88.5612C15.9355 83.4176 9.93575 76.1069 6.39281 67.5535C2.84987 59.0001 1.92288 49.5882 3.72905 40.5079C5.53523 31.4277 9.99345 23.0869 16.5399 16.5404C23.0864 9.99393 31.4272 5.53571 40.5074 3.72954C49.5877 1.92337 58.9996 2.85036 67.553 6.3933C76.1064 9.93624 83.4172 15.936 88.5607 23.6339C93.7042 31.3317 96.4496 40.382 96.4496 49.6401C96.45 55.7874 95.2395 61.8746 92.8873 67.554C90.535 73.2335 87.087 78.3939 82.7402 82.7407C78.3934 87.0875 73.233 90.5355 67.5535 92.8878C61.8741 95.24 55.7869 96.4505 49.6396 96.4501V96.4501Z" fill="url(#paint0_linear)"/>
<path fill-rule="evenodd" clip-rule="evenodd" d="M95.5402 49.7103C95.5402 58.7885 92.8483 67.6628 87.8047 75.211C82.7611 82.7592 75.5925 88.6423 67.2054 92.1164C58.8183 95.5904 49.5893 96.4994 40.6856 94.7284C31.7819 92.9573 23.6033 88.5857 17.184 82.1665C10.7648 75.7473 6.39326 67.5687 4.6222 58.665C2.85114 49.7612 3.76011 40.5323 7.23417 32.1451C10.7082 23.758 16.5914 16.5894 24.1396 11.5459C31.6878 6.5023 40.5621 3.81031 49.6402 3.81031C55.6679 3.81029 61.6366 4.99751 67.2054 7.3042C72.7743 9.61088 77.8343 12.9918 82.0965 17.2541C86.3587 21.5163 89.7397 26.5763 92.0464 32.1451C94.353 37.714 95.5403 43.6826 95.5402 49.7103V49.7103ZM49.6402 0.0703129C59.4581 0.0703129 69.0555 2.98165 77.2188 8.43616C85.382 13.8907 91.7445 21.6434 95.5016 30.7139C99.2588 39.7844 100.242 49.7654 98.3264 59.3946C96.4111 69.0238 91.6833 77.8688 84.741 84.8111C77.7987 91.7534 68.9537 96.4811 59.3245 98.3965C49.6953 100.312 39.7144 99.3288 30.6438 95.5717C21.5733 91.8146 13.8206 85.4521 8.36609 77.2888C2.91158 69.1256 0.000244503 59.5282 0.000244503 49.7103C-0.000543598 43.1913 1.2829 36.7359 3.77726 30.713C6.27162 24.69 9.92805 19.2174 14.5377 14.6078C19.1474 9.99812 24.62 6.34169 30.6429 3.84733C36.6659 1.35296 43.1212 0.0695248 49.6402 0.0703129V0.0703129Z" fill="#F2F1F0"/>
<path fill-rule="evenodd" clip-rule="evenodd" d="M92.7303 49.6386C92.7303 58.161 90.2031 66.492 85.4683 73.5781C80.7335 80.6643 74.0038 86.1872 66.1301 89.4486C58.2565 92.71 49.5925 93.5633 41.2339 91.9007C32.8752 90.238 25.1973 86.1341 19.1711 80.1079C13.1448 74.0816 9.0409 66.4037 7.37827 58.0451C5.71563 49.6864 6.56895 41.0225 9.83033 33.1488C13.0917 25.2751 18.6147 18.5454 25.7008 13.8106C32.7869 9.07581 41.1179 6.54862 49.6403 6.54862C55.2991 6.54828 60.9025 7.6626 66.1305 9.82795C71.3586 11.9933 76.109 15.1673 80.1103 19.1686C84.1116 23.17 87.2856 27.9203 89.451 33.1484C91.6163 38.3765 92.7306 43.9799 92.7303 49.6386V49.6386ZM49.6403 2.80862C58.9024 2.80862 67.9565 5.55516 75.6577 10.7009C83.3588 15.8466 89.3611 23.1605 92.9056 31.7176C96.45 40.2746 97.3774 49.6906 95.5705 58.7747C93.7635 67.8588 89.3034 76.2031 82.7541 82.7524C76.2048 89.3017 67.8605 93.7619 58.7764 95.5688C49.6923 97.3757 40.2763 96.4484 31.7192 92.9039C23.1622 89.3595 15.8483 83.3571 10.7026 75.656C5.55683 67.9548 2.8103 58.9007 2.8103 49.6386C2.81149 37.2189 7.74573 25.3082 16.5278 16.5261C25.3099 7.74403 37.2206 2.80979 49.6403 2.80859V2.80862Z" fill="#0078D4"/>
<path opacity="0.2" d="M17.4848 73.0101H46.2469C46.398 73.0097 46.5428 72.9494 46.6496 72.8426C46.7565 72.7357 46.8167 72.5909 46.8171 72.4398V49.9844H16.9146V72.4398C16.915 72.5909 16.9752 72.7357 17.0821 72.8426C17.1889 72.9494 17.3337 73.0097 17.4848 73.0101Z" fill="#003067"/>
<path d="M17.4848 71.8363H46.2469C46.398 71.8358 46.5428 71.7756 46.6496 71.6688C46.7565 71.5619 46.8167 71.4171 46.8171 71.266V48.8105H16.9146V71.266C16.915 71.4171 16.9752 71.5619 17.0821 71.6688C17.1889 71.7756 17.3337 71.8358 17.4848 71.8363V71.8363Z" fill="#F2F2F2"/>
<path d="M16.9146 51.2973H46.8171V48.6169C46.8173 48.5595 46.8061 48.5025 46.7842 48.4494C46.7622 48.3963 46.73 48.348 46.6894 48.3074C46.6488 48.2668 46.6005 48.2346 46.5474 48.2127C46.4943 48.1907 46.4374 48.1795 46.3799 48.1797H17.3518C17.2943 48.1795 17.2374 48.1907 17.1843 48.2127C17.1312 48.2346 17.0829 48.2668 17.0423 48.3074C17.0016 48.348 16.9694 48.3963 16.9475 48.4494C16.9256 48.5025 16.9144 48.5595 16.9146 48.6169V51.2973Z" fill="url(#paint1_linear)"/>
<path d="M19.215 50.559C19.3649 50.5585 19.5113 50.5136 19.6357 50.4299C19.7601 50.3462 19.8569 50.2275 19.9138 50.0888C19.9708 49.9501 19.9853 49.7977 19.9556 49.6508C19.9259 49.5038 19.8533 49.369 19.7469 49.2633C19.6406 49.1576 19.5053 49.0859 19.3582 49.0571C19.211 49.0283 19.0587 49.0438 18.9204 49.1016C18.782 49.1594 18.6639 49.2569 18.581 49.3818C18.4981 49.5067 18.4541 49.6534 18.4546 49.8033C18.4538 49.9032 18.4729 50.0022 18.5109 50.0946C18.5489 50.1869 18.605 50.2708 18.6758 50.3411C18.7466 50.4115 18.8308 50.4671 18.9234 50.5045C19.016 50.5419 19.1152 50.5604 19.215 50.559V50.559Z" fill="#50E6FF"/>
<path d="M44.1666 53.2266H19.5595C19.2352 53.2266 18.9724 53.4894 18.9724 53.8136V69.1104C18.9724 69.4347 19.2352 69.6975 19.5595 69.6975H44.1666C44.4908 69.6975 44.7536 69.4347 44.7536 69.1104V53.8136C44.7536 53.4894 44.4908 53.2266 44.1666 53.2266Z" fill="#E8E8E8"/>
<path opacity="0.2" d="M31.8659 55.3613C30.54 55.3613 29.2438 55.7546 28.1413 56.4912C27.0388 57.2279 26.1796 58.275 25.6722 59.5C25.1648 60.725 25.032 62.073 25.2907 63.3735C25.5494 64.6739 26.1879 65.8685 27.1255 66.8061C28.0631 67.7437 29.2577 68.3822 30.5581 68.6408C31.8586 68.8995 33.2066 68.7667 34.4316 68.2593C35.6566 67.7519 36.7037 66.8926 37.4403 65.7901C38.177 64.6876 38.5702 63.3914 38.5702 62.0655C38.5702 61.1851 38.3968 60.3133 38.0599 59.4999C37.7229 58.6865 37.2291 57.9474 36.6066 57.3249C35.984 56.7023 35.2449 56.2085 34.4315 55.8716C33.6181 55.5347 32.7463 55.3613 31.8659 55.3613V55.3613Z" fill="#003067"/>
<path d="M31.866 67.836C35.5686 67.836 38.5702 64.8345 38.5702 61.1319C38.5702 57.4293 35.5686 54.4277 31.866 54.4277C28.1634 54.4277 25.1619 57.4293 25.1619 61.1319C25.1619 64.8345 28.1634 67.836 31.866 67.836Z" fill="url(#paint2_linear)" stroke="#1F56A3" stroke-width="0.4006" stroke-miterlimit="10"/>
<path d="M33.707 61.8205C33.8015 61.8205 33.8951 61.8391 33.9824 61.8753C34.0697 61.9114 34.149 61.9644 34.2159 62.0312C34.2827 62.0981 34.3357 62.1774 34.3718 62.2647C34.408 62.352 34.4266 62.4456 34.4266 62.5401V62.8339C34.4266 63.0174 34.3693 63.1962 34.2626 63.3455C33.9801 63.703 33.6132 63.9847 33.1949 64.1654C32.7765 64.3461 32.3199 64.42 31.8659 64.3805C31.4121 64.4201 30.9556 64.3462 30.5374 64.1654C30.1193 63.9847 29.7527 63.7027 29.4707 63.3449C29.3645 63.1959 29.3074 63.0174 29.3074 62.8343V62.54C29.3074 62.4455 29.326 62.3519 29.3621 62.2646C29.3983 62.1773 29.4513 62.098 29.5181 62.0312C29.5849 61.9644 29.6643 61.9114 29.7516 61.8752C29.8389 61.839 29.9324 61.8204 30.0269 61.8204L33.707 61.8205ZM31.8659 57.9824C32.1823 57.9824 32.4916 58.0762 32.7547 58.252C33.0178 58.4278 33.2229 58.6777 33.344 58.97C33.465 59.2623 33.4967 59.584 33.435 59.8943C33.3733 60.2047 33.2209 60.4897 32.9972 60.7135C32.7734 60.9372 32.4884 61.0896 32.1781 61.1513C31.8677 61.213 31.5461 61.1814 31.2537 61.0603C30.9614 60.9392 30.7115 60.7341 30.5358 60.4711C30.36 60.208 30.2661 59.8987 30.2661 59.5822C30.2661 59.158 30.4347 58.751 30.7347 58.451C31.0347 58.151 31.4416 57.9824 31.8659 57.9824V57.9824Z" fill="white"/>
<path opacity="0.2" d="M53.0337 73.0101H81.7957C81.9468 73.0097 82.0916 72.9494 82.1984 72.8426C82.3053 72.7357 82.3655 72.5909 82.366 72.4398V49.9844H52.4634V72.4398C52.4638 72.5909 52.5241 72.7357 52.6309 72.8426C52.7378 72.9494 52.8826 73.0097 53.0337 73.0101Z" fill="#003067"/>
<path d="M53.0337 71.8363H81.7957C81.9468 71.8358 82.0916 71.7756 82.1984 71.6688C82.3053 71.5619 82.3655 71.4171 82.366 71.266V48.8105H52.4634V71.266C52.4638 71.4171 52.5241 71.5619 52.6309 71.6688C52.7378 71.7756 52.8826 71.8358 53.0337 71.8363V71.8363Z" fill="#F2F2F2"/>
<path d="M52.4634 51.2973H82.366V48.6169C82.3661 48.5595 82.3549 48.5025 82.333 48.4494C82.3111 48.3963 82.2789 48.348 82.2382 48.3074C82.1976 48.2668 82.1494 48.2346 82.0962 48.2127C82.0431 48.1907 81.9862 48.1795 81.9287 48.1797H52.9006C52.8431 48.1795 52.7862 48.1907 52.7331 48.2127C52.68 48.2346 52.6317 48.2668 52.5911 48.3074C52.5505 48.348 52.5183 48.3963 52.4964 48.4494C52.4744 48.5025 52.4632 48.5595 52.4634 48.6169V51.2973Z" fill="url(#paint3_linear)"/>
<path d="M54.7636 50.559C54.9135 50.5585 55.0599 50.5136 55.1843 50.4299C55.3087 50.3462 55.4055 50.2275 55.4624 50.0888C55.5193 49.9501 55.5339 49.7977 55.5042 49.6508C55.4745 49.5038 55.4018 49.369 55.2955 49.2633C55.1892 49.1576 55.0539 49.0859 54.9067 49.0571C54.7596 49.0283 54.6073 49.0438 54.4689 49.1016C54.3306 49.1594 54.2125 49.2569 54.1296 49.3818C54.0467 49.5067 54.0027 49.6534 54.0032 49.8033C54.0024 49.9032 54.0215 50.0022 54.0595 50.0946C54.0975 50.1869 54.1536 50.2708 54.2244 50.3411C54.2952 50.4115 54.3794 50.4671 54.472 50.5045C54.5646 50.5419 54.6637 50.5604 54.7636 50.559V50.559Z" fill="#50E6FF"/>
<path d="M79.7154 53.2266H55.1083C54.7841 53.2266 54.5212 53.4894 54.5212 53.8136V69.1104C54.5212 69.4347 54.7841 69.6975 55.1083 69.6975H79.7154C80.0396 69.6975 80.3024 69.4347 80.3024 69.1104V53.8136C80.3024 53.4894 80.0396 53.2266 79.7154 53.2266Z" fill="#E8E8E8"/>
<path opacity="0.2" d="M67.4146 55.3613C66.0886 55.3613 64.7924 55.7545 63.6899 56.4912C62.5875 57.2279 61.7282 58.2749 61.2208 59.5C60.7133 60.725 60.5806 62.073 60.8393 63.3734C61.098 64.6739 61.7365 65.8685 62.6741 66.8061C63.6117 67.7437 64.8062 68.3822 66.1067 68.6408C67.4072 68.8995 68.7552 68.7667 69.9802 68.2593C71.2052 67.7519 72.2523 66.8926 72.9889 65.7901C73.7256 64.6876 74.1188 63.3914 74.1188 62.0655C74.1188 61.1851 73.9454 60.3133 73.6085 59.4999C73.2715 58.6865 72.7777 57.9474 72.1552 57.3249C71.5326 56.7023 70.7935 56.2085 69.9802 55.8716C69.1668 55.5347 68.295 55.3613 67.4146 55.3613V55.3613Z" fill="#003067"/>
<path d="M67.4146 67.836C71.1172 67.836 74.1187 64.8345 74.1187 61.1319C74.1187 57.4293 71.1172 54.4277 67.4146 54.4277C63.712 54.4277 60.7104 57.4293 60.7104 61.1319C60.7104 64.8345 63.712 67.836 67.4146 67.836Z" fill="url(#paint4_linear)" stroke="#1F56A3" stroke-width="0.4006" stroke-miterlimit="10"/>
<path d="M69.2556 61.8205C69.3501 61.8205 69.4437 61.8391 69.531 61.8753C69.6183 61.9114 69.6976 61.9644 69.7644 62.0312C69.8313 62.0981 69.8843 62.1774 69.9204 62.2647C69.9566 62.352 69.9752 62.4456 69.9752 62.5401V62.8339C69.9752 63.0174 69.9178 63.1962 69.8112 63.3455C69.5035 63.6723 69.1323 63.9328 68.7202 64.1108C68.3081 64.2888 67.864 64.3806 67.4151 64.3805C66.9662 64.3805 66.5221 64.2886 66.1101 64.1105C65.6981 63.9324 65.3268 63.6719 65.0193 63.345C64.913 63.1959 64.856 63.0174 64.856 62.8344V62.5401C64.856 62.4456 64.8746 62.352 64.9107 62.2647C64.9469 62.1774 64.9999 62.0981 65.0667 62.0312C65.1335 61.9644 65.2128 61.9114 65.3001 61.8753C65.3875 61.8391 65.481 61.8205 65.5755 61.8205H69.2556ZM67.4145 57.9825C67.7309 57.9825 68.0402 58.0763 68.3033 58.2521C68.5664 58.4279 68.7715 58.6778 68.8925 58.9701C69.0136 59.2624 69.0453 59.5841 68.9836 59.8944C68.9218 60.2047 68.7695 60.4898 68.5457 60.7135C68.322 60.9373 68.0369 61.0896 67.7266 61.1514C67.4163 61.2131 67.0946 61.1814 66.8023 61.0603C66.51 60.9392 66.2601 60.7342 66.0843 60.4711C65.9085 60.208 65.8147 59.8987 65.8147 59.5823C65.8147 59.3722 65.8561 59.1642 65.9365 58.9701C66.0168 58.776 66.1347 58.5996 66.2832 58.451C66.4318 58.3025 66.6082 58.1846 66.8023 58.1042C66.9964 58.0238 67.2044 57.9824 67.4145 57.9824V57.9825Z" fill="white"/>
<path opacity="0.2" d="M35.2593 44.8949H64.0213C64.1724 44.8944 64.3172 44.8342 64.424 44.7274C64.5309 44.6205 64.5911 44.4757 64.5916 44.3246V21.8691H34.689V44.3246C34.6894 44.4757 34.7496 44.6205 34.8565 44.7274C34.9634 44.8342 35.1082 44.8944 35.2593 44.8949Z" fill="#003067"/>
<path d="M35.2593 43.7191H64.0213C64.1724 43.7186 64.3172 43.6584 64.424 43.5515C64.5309 43.4447 64.5911 43.2999 64.5916 43.1488V20.6934H34.689V43.1488C34.6894 43.2999 34.7496 43.4447 34.8565 43.5515C34.9634 43.6584 35.1082 43.7186 35.2593 43.7191Z" fill="#F2F2F2"/>
<path d="M34.689 23.1801H64.5916V20.4997C64.5917 20.4423 64.5805 20.3853 64.5586 20.3322C64.5367 20.2791 64.5045 20.2308 64.4638 20.1902C64.4232 20.1496 64.3749 20.1174 64.3218 20.0955C64.2687 20.0736 64.2118 20.0623 64.1543 20.0625H35.1262C35.0687 20.0623 35.0118 20.0736 34.9587 20.0955C34.9056 20.1174 34.8573 20.1496 34.8167 20.1902C34.7761 20.2308 34.7439 20.2791 34.7219 20.3322C34.7 20.3853 34.6888 20.4423 34.689 20.4997V23.1801Z" fill="url(#paint5_linear)"/>
<path d="M36.9892 22.4437C37.1391 22.4433 37.2855 22.3983 37.4099 22.3147C37.5343 22.231 37.6311 22.1123 37.688 21.9736C37.7449 21.8349 37.7595 21.6825 37.7297 21.5355C37.7 21.3886 37.6274 21.2537 37.5211 21.1481C37.4147 21.0424 37.2795 20.9706 37.1323 20.9418C36.9852 20.9131 36.8328 20.9285 36.6945 20.9863C36.5562 21.0441 36.4381 21.1417 36.3552 21.2666C36.2723 21.3915 36.2283 21.5382 36.2288 21.6881C36.228 21.788 36.2471 21.887 36.2851 21.9793C36.3231 22.0717 36.3791 22.1555 36.45 22.2259C36.5208 22.2963 36.605 22.3518 36.6976 22.3892C36.7902 22.4266 36.8893 22.4452 36.9892 22.4437V22.4437Z" fill="#50E6FF"/>
<path d="M61.941 25.1094H37.3339C37.0097 25.1094 36.7468 25.3722 36.7468 25.6964V40.9933C36.7468 41.3175 37.0097 41.5803 37.3339 41.5803H61.941C62.2652 41.5803 62.528 41.3175 62.528 40.9933V25.6964C62.528 25.3722 62.2652 25.1094 61.941 25.1094Z" fill="#E8E8E8"/>
<path opacity="0.2" d="M49.6402 27.2461C48.3142 27.2461 47.018 27.6393 45.9155 28.376C44.813 29.1126 43.9538 30.1597 43.4463 31.3847C42.9389 32.6098 42.8062 33.9577 43.0649 35.2582C43.3236 36.5587 43.9621 37.7533 44.8997 38.6908C45.8373 39.6284 47.0318 40.2669 48.3323 40.5256C49.6328 40.7843 50.9808 40.6515 52.2058 40.1441C53.4308 39.6367 54.4779 38.7774 55.2145 37.6749C55.9512 36.5724 56.3444 35.2762 56.3444 33.9503C56.3444 33.0699 56.171 32.1981 55.8341 31.3847C55.4971 30.5713 55.0033 29.8322 54.3808 29.2097C53.7582 28.5871 53.0192 28.0933 52.2058 27.7564C51.3924 27.4195 50.5206 27.2461 49.6402 27.2461Z" fill="#003067"/>
<path d="M49.6402 39.7188C53.3428 39.7188 56.3443 36.7173 56.3443 33.0147C56.3443 29.3121 53.3428 26.3105 49.6402 26.3105C45.9376 26.3105 42.936 29.3121 42.936 33.0147C42.936 36.7173 45.9376 39.7188 49.6402 39.7188Z" fill="url(#paint6_linear)" stroke="#1F56A3" stroke-width="0.4006" stroke-miterlimit="10"/>
<path d="M51.4815 33.7033C51.576 33.7033 51.6695 33.7219 51.7568 33.7581C51.8441 33.7942 51.9235 33.8472 51.9903 33.914C52.0571 33.9809 52.1101 34.0602 52.1463 34.1475C52.1824 34.2348 52.201 34.3284 52.201 34.4229V34.7167C52.201 34.9002 52.1437 35.079 52.037 35.2283C51.7294 35.5551 51.3581 35.8156 50.946 35.9936C50.5339 36.1716 50.0898 36.2634 49.6409 36.2633C49.1921 36.2633 48.748 36.1714 48.3359 35.9933C47.9239 35.8152 47.5527 35.5547 47.2451 35.2278C47.1389 35.0787 47.0818 34.9002 47.0818 34.7172V34.4228C47.0818 34.3283 47.1004 34.2347 47.1366 34.1474C47.1727 34.0601 47.2257 33.9808 47.2925 33.914C47.3594 33.8472 47.4387 33.7942 47.526 33.758C47.6133 33.7219 47.7069 33.7032 47.8013 33.7032L51.4815 33.7033ZM49.6403 29.8653C49.9568 29.8653 50.2661 29.9591 50.5292 30.1349C50.7922 30.3107 50.9973 30.5605 51.1184 30.8529C51.2395 31.1452 51.2712 31.4669 51.2094 31.7772C51.1477 32.0875 50.9953 32.3726 50.7716 32.5963C50.5479 32.8201 50.2628 32.9725 49.9525 33.0342C49.6421 33.0959 49.3205 33.0642 49.0281 32.9431C48.7358 32.8221 48.4859 32.617 48.3102 32.3539C48.1344 32.0908 48.0405 31.7815 48.0405 31.4651C48.0405 31.255 48.0819 31.047 48.1623 30.8529C48.2427 30.6588 48.3605 30.4824 48.5091 30.3338C48.6576 30.1853 48.834 30.0674 49.0281 29.987C49.2222 29.9066 49.4302 29.8652 49.6403 29.8652V29.8653Z" fill="white"/>
<path d="M46.8171 61.1328H52.4632" stroke="white" stroke-miterlimit="10"/>
<path d="M34.6892 32.5977H31.8672V48.1787" stroke="white" stroke-miterlimit="10"/>
<path d="M64.5911 32.5977H67.4131V48.1787" stroke="white" stroke-miterlimit="10"/>
</g>
<defs>
<linearGradient id="paint0_linear" x1="47.8693" y1="-15.153" x2="51.8521" y2="130.615" gradientUnits="userSpaceOnUse">
<stop stop-color="#00ABDE"/>
<stop offset="1" stop-color="#007ED8"/>
</linearGradient>
<linearGradient id="paint1_linear" x1="16.9146" y1="49.7385" x2="46.8707" y2="49.7385" gradientUnits="userSpaceOnUse">
<stop stop-color="#005BA1"/>
<stop offset="0.26" stop-color="#00589D"/>
<stop offset="0.53" stop-color="#004F90"/>
<stop offset="0.8" stop-color="#003F7C"/>
<stop offset="1" stop-color="#003067"/>
</linearGradient>
<linearGradient id="paint2_linear" x1="31.866" y1="67.836" x2="31.866" y2="54.4277" gradientUnits="userSpaceOnUse">
<stop stop-color="#004DAE"/>
<stop offset="0.21" stop-color="#0061C4"/>
<stop offset="0.51" stop-color="#0078DD"/>
<stop offset="0.78" stop-color="#0086EC"/>
<stop offset="1" stop-color="#008BF1"/>
</linearGradient>
<linearGradient id="paint3_linear" x1="1621.25" y1="203.245" x2="2517.02" y2="203.245" gradientUnits="userSpaceOnUse">
<stop stop-color="#005BA1"/>
<stop offset="0.26" stop-color="#00589D"/>
<stop offset="0.53" stop-color="#004F90"/>
<stop offset="0.8" stop-color="#003F7C"/>
<stop offset="1" stop-color="#003067"/>
</linearGradient>
<linearGradient id="paint4_linear" x1="67.4146" y1="54.4277" x2="67.4146" y2="67.8361" gradientUnits="userSpaceOnUse">
<stop stop-color="#008BF1"/>
<stop offset="0.22" stop-color="#0086EC"/>
<stop offset="0.49" stop-color="#0078DD"/>
<stop offset="0.79" stop-color="#0061C4"/>
<stop offset="1" stop-color="#004DAE"/>
</linearGradient>
<linearGradient id="paint5_linear" x1="1071.98" y1="87.4707" x2="1967.74" y2="87.4707" gradientUnits="userSpaceOnUse">
<stop stop-color="#005BA1"/>
<stop offset="0.26" stop-color="#00589D"/>
<stop offset="0.53" stop-color="#004F90"/>
<stop offset="0.8" stop-color="#003F7C"/>
<stop offset="1" stop-color="#003067"/>
</linearGradient>
<linearGradient id="paint6_linear" x1="49.6402" y1="26.3105" x2="49.6402" y2="39.7189" gradientUnits="userSpaceOnUse">
<stop stop-color="#008BF1"/>
<stop offset="0.22" stop-color="#0086EC"/>
<stop offset="0.49" stop-color="#0078DD"/>
<stop offset="0.79" stop-color="#0061C4"/>
<stop offset="1" stop-color="#004DAE"/>
</linearGradient>
<clipPath id="clip0">
<rect width="99.2799" height="99.28" fill="white"/>
</clipPath>
</defs>
</svg>
