<?xml version="1.0" encoding="UTF-8"?>
<svg width="102px" height="102px" viewBox="0 0 102 102" version="1.1" xmlns="http://www.w3.org/2000/svg" xmlns:xlink="http://www.w3.org/1999/xlink">
    <title>Manage insider risk management in Microsoft 365/customer-lockbox</title>
    <defs>
        <rect id="path-1" x="0" y="0" width="94.3396226" height="94.3396226" rx="47.1698113"></rect>
        <filter x="-2.9%" y="-2.9%" width="106.4%" height="106.4%" filterUnits="objectBoundingBox" id="filter-3">
            <feMorphology radius="2.5" operator="dilate" in="SourceAlpha" result="shadowSpreadOuter1"></feMorphology>
            <feOffset dx="0.5" dy="0.5" in="shadowSpreadOuter1" result="shadowOffsetOuter1"></feOffset>
            <feMorphology radius="1" operator="erode" in="SourceAlpha" result="shadowInner"></feMorphology>
            <feOffset dx="0.5" dy="0.5" in="shadowInner" result="shadowInner"></feOffset>
            <feComposite in="shadowOffsetOuter1" in2="shadowInner" operator="out" result="shadowOffsetOuter1"></feComposite>
            <feColorMatrix values="0 0 0 0 0.821822822   0 0 0 0 0.831640661   0 0 0 0 0.835737288  0 0 0 1 0" type="matrix" in="shadowOffsetOuter1"></feColorMatrix>
        </filter>
        <linearGradient x1="77.8299825%" y1="11.1997378%" x2="-99.6885927%" y2="253.807911%" id="linearGradient-4">
            <stop stop-color="#FFFFFF" offset="0%"></stop>
            <stop stop-color="#000000" stop-opacity="0.5" offset="100%"></stop>
        </linearGradient>
        <rect id="path-5" x="0" y="0" width="94.3396226" height="94.3396226"></rect>
        <path d="M48.1132075,0.739331515 C74.2770768,0.739331515 95.4870836,21.9493383 95.4870836,48.1132075 C95.4870836,74.2770768 74.2770768,95.4870836 48.1132075,95.4870836 C21.9493383,95.4870836 0.739331515,74.2770768 0.739331515,48.1132075 C0.739331515,21.9493383 21.9493383,0.739331515 48.1132075,0.739331515 Z M48.1132075,4.71698113 C24.1461335,4.71698113 4.71698113,24.1461335 4.71698113,48.1132075 C4.71698113,72.0802816 24.1461335,91.509434 48.1132075,91.509434 C72.0802816,91.509434 91.509434,72.0802816 91.509434,48.1132075 C91.509434,24.1461335 72.0802816,4.71698113 48.1132075,4.71698113 Z" id="path-6"></path>
        <filter x="-18.8%" y="-17.1%" width="137.5%" height="134.3%" filterUnits="objectBoundingBox" id="filter-8">
            <feOffset dx="0" dy="2" in="SourceAlpha" result="shadowOffsetOuter1"></feOffset>
            <feGaussianBlur stdDeviation="2" in="shadowOffsetOuter1" result="shadowBlurOuter1"></feGaussianBlur>
            <feColorMatrix values="0 0 0 0 0   0 0 0 0 0   0 0 0 0 0  0 0 0 0.1 0" type="matrix" in="shadowBlurOuter1" result="shadowMatrixOuter1"></feColorMatrix>
            <feMerge>
                <feMergeNode in="shadowMatrixOuter1"></feMergeNode>
                <feMergeNode in="SourceGraphic"></feMergeNode>
            </feMerge>
        </filter>
        <linearGradient x1="50%" y1="0.670396959%" x2="50%" y2="100%" id="linearGradient-9">
            <stop stop-color="#6A6A6A" offset="0%"></stop>
            <stop stop-color="#343333" offset="100%"></stop>
        </linearGradient>
        <linearGradient x1="50%" y1="0.670396959%" x2="50%" y2="100%" id="linearGradient-10">
            <stop stop-color="#6A6A6A" offset="0%"></stop>
            <stop stop-color="#343333" offset="100%"></stop>
        </linearGradient>
    </defs>
    <g id="Badges" stroke="none" stroke-width="1" fill="none" fill-rule="evenodd">
        <g id="Manage-insider-risk-management-in-Microsoft-365" transform="translate(-159.000000, -509.000000)">
            <g id="Manage-insider-risk-management-in-Microsoft-365/customer-lockbox" transform="translate(160.000000, 510.000000)">
                <g id="Badge-Plates/Circle">
                    <g id="BG" transform="translate(2.830189, 2.830189)">
                        <mask id="mask-2" fill="white">
                            <use xlink:href="#path-1"></use>
                        </mask>
                        <g>
                            <use fill="black" fill-opacity="1" filter="url(#filter-3)" xlink:href="#path-1"></use>
                            <rect stroke="#F2F1F0" stroke-width="2.5" x="-1.25" y="-1.25" width="96.8396226" height="96.8396226" rx="48.4198113"></rect>
                        </g>
                        <g id="Colors/Microsoft-365/BG-Solid-Badge" mask="url(#mask-2)">
                            <g id="Rectangle">
                                <use fill="#0078D4" xlink:href="#path-5"></use>
                                <use fill-opacity="0.4" fill="url(#linearGradient-4)" xlink:href="#path-5"></use>
                            </g>
                        </g>
                    </g>
                    <g id="Border" transform="translate(1.886792, 1.886792)">
                        <mask id="mask-7" fill="white">
                            <use xlink:href="#path-6"></use>
                        </mask>
                        <use id="Boarder" fill="#0078D4" fill-rule="nonzero" xlink:href="#path-6"></use>
                        <g id="Colors/Microsoft-365/Border" mask="url(#mask-7)" fill="#0076D7">
                            <g transform="translate(-1.886792, -1.886792)" id="Microsoft-365/Border">
                                <rect x="0" y="0" width="100" height="100"></rect>
                            </g>
                        </g>
                    </g>
                </g>
                <g id="Box" filter="url(#filter-8)" transform="translate(18.000000, 10.096774)">
                    <path d="M0,23.3517963 L4.32175639,13.7668791 C4.80667136,12.6914205 5.87688184,12 7.0566079,12 L56.4692383,12 C57.6056222,12 58.6444613,12.6420829 59.152604,13.6585274 L64,23.3548387 L64,23.3548387 L0,23.3517963 Z" id="Path-12" fill="url(#linearGradient-9)"></path>
                    <path d="M16.2145767,4.27579258 C15.8765639,4.27579258 15.6128725,4.13772243 15.4234948,3.861578 C15.2341171,3.58543357 15.1394296,3.18631277 15.1394296,2.66420362 C15.1394296,2.09078896 15.2382667,1.656962 15.4359439,1.36270974 C15.633621,1.06845747 15.9188151,0.921333548 16.2915346,0.921333548 C17.005285,0.921333548 17.3621548,1.47587757 17.3621548,2.58498226 C17.3621548,3.13425315 17.2614315,3.55336771 17.0599819,3.84233853 C16.8585323,4.13130934 16.5767334,4.27579258 16.2145767,4.27579258 Z M16.2666365,1.34007506 C15.8727911,1.34007506 15.6758714,1.77390202 15.6758714,2.64156895 C15.6758714,3.4534034 15.8690187,3.85931453 16.2553191,3.85931453 C16.6355836,3.85931453 16.825713,3.44661306 16.825713,2.62119774 C16.825713,1.76711168 16.639356,1.34007506 16.2666365,1.34007506 Z M20.2028067,0.903225806 L20.2028067,4.22146936 L19.6776822,4.22146936 L19.6776822,1.54605061 C19.5826161,1.61395498 19.4803838,1.67167283 19.3709823,1.71920589 C19.2615809,1.76673895 19.1367141,1.80861268 18.9963785,1.84482834 L18.9963785,1.39666175 C19.0838996,1.36799102 19.1684016,1.33781175 19.2498868,1.30612305 C19.3313721,1.27443434 19.4117244,1.2389737 19.4909461,1.19974007 C19.5701679,1.16050643 19.6501429,1.11674649 19.7308737,1.06845894 C19.8116044,1.02017139 19.8949747,0.965094231 19.9809869,0.903225806 L20.2028067,0.903225806 Z M23.2019013,4.27579258 C22.8638885,4.27579258 22.6001971,4.13772243 22.4108194,3.861578 C22.2214416,3.58543357 22.1267542,3.18631277 22.1267542,2.66420362 C22.1267542,2.09078896 22.2255913,1.656962 22.4232684,1.36270974 C22.6209456,1.06845747 22.9061397,0.921333548 23.2788592,0.921333548 C23.9926096,0.921333548 24.3494794,1.47587757 24.3494794,2.58498226 C24.3494794,3.13425315 24.2487561,3.55336771 24.0473065,3.84233853 C23.8458568,4.13130934 23.5640579,4.27579258 23.2019013,4.27579258 Z M23.2539611,1.34007506 C22.8601157,1.34007506 22.663196,1.77390202 22.663196,2.64156895 C22.663196,3.4534034 22.8563433,3.85931453 23.2426437,3.85931453 C23.6229082,3.85931453 23.8130376,3.44661306 23.8130376,2.62119774 C23.8130376,1.76711168 23.6266806,1.34007506 23.2539611,1.34007506 Z M27.1901313,0.903225806 L27.1901313,4.22146936 L26.6650068,4.22146936 L26.6650068,1.54605061 C26.5699407,1.61395498 26.4677084,1.67167283 26.3583069,1.71920589 C26.2489054,1.76673895 26.1240387,1.80861268 25.983703,1.84482834 L25.983703,1.39666175 C26.0712242,1.36799102 26.1557262,1.33781175 26.2372114,1.30612305 C26.3186967,1.27443434 26.3990489,1.2389737 26.4782707,1.19974007 C26.5574925,1.16050643 26.6374675,1.11674649 26.7181983,1.06845894 C26.798929,1.02017139 26.8822993,0.965094231 26.9683115,0.903225806 L27.1901313,0.903225806 Z M30.1892259,4.27579258 C29.851213,4.27579258 29.5875217,4.13772243 29.398144,3.861578 C29.2087662,3.58543357 29.1140788,3.18631277 29.1140788,2.66420362 C29.1140788,2.09078896 29.2129159,1.656962 29.410593,1.36270974 C29.6082702,1.06845747 29.8934643,0.921333548 30.2661838,0.921333548 C30.9799342,0.921333548 31.336804,1.47587757 31.336804,2.58498226 C31.336804,3.13425315 31.2360807,3.55336771 31.0346311,3.84233853 C30.8331814,4.13130934 30.5513825,4.27579258 30.1892259,4.27579258 Z M30.2412856,1.34007506 C29.8474403,1.34007506 29.6505206,1.77390202 29.6505206,2.64156895 C29.6505206,3.4534034 29.8436679,3.85931453 30.2299683,3.85931453 C30.6102328,3.85931453 30.8003622,3.44661306 30.8003622,2.62119774 C30.8003622,1.76711168 30.6140052,1.34007506 30.2412856,1.34007506 Z M34.1774559,0.903225806 L34.1774559,4.22146936 L33.6523314,4.22146936 L33.6523314,1.54605061 C33.5572653,1.61395498 33.455033,1.67167283 33.3456315,1.71920589 C33.23623,1.76673895 33.1113633,1.80861268 32.9710276,1.84482834 L32.9710276,1.39666175 C33.0585488,1.36799102 33.1430507,1.33781175 33.224536,1.30612305 C33.3060212,1.27443434 33.3863735,1.2389737 33.4655953,1.19974007 C33.5448171,1.16050643 33.6247921,1.11674649 33.7055229,1.06845894 C33.7862536,1.02017139 33.8696238,0.965094231 33.955636,0.903225806 L34.1774559,0.903225806 Z M37.1765505,4.27579258 C36.8385376,4.27579258 36.5748463,4.13772243 36.3854685,3.861578 C36.1960908,3.58543357 36.1014033,3.18631277 36.1014033,2.66420362 C36.1014033,2.09078896 36.2002404,1.656962 36.3979176,1.36270974 C36.5955948,1.06845747 36.8807888,0.921333548 37.2535084,0.921333548 C37.9672587,0.921333548 38.3241286,1.47587757 38.3241286,2.58498226 C38.3241286,3.13425315 38.2234053,3.55336771 38.0219556,3.84233853 C37.820506,4.13130934 37.5387071,4.27579258 37.1765505,4.27579258 Z M37.2286102,1.34007506 C36.8347649,1.34007506 36.6378452,1.77390202 36.6378452,2.64156895 C36.6378452,3.4534034 36.8309925,3.85931453 37.2172929,3.85931453 C37.5975574,3.85931453 37.7876867,3.44661306 37.7876867,2.62119774 C37.7876867,1.76711168 37.6013298,1.34007506 37.2286102,1.34007506 Z M41.1647804,0.903225806 L41.1647804,4.22146936 L40.639656,4.22146936 L40.639656,1.54605061 C40.5445898,1.61395498 40.4423576,1.67167283 40.3329561,1.71920589 C40.2235546,1.76673895 40.0986879,1.80861268 39.9583522,1.84482834 L39.9583522,1.39666175 C40.0458734,1.36799102 40.1303753,1.33781175 40.2118606,1.30612305 C40.2933458,1.27443434 40.3736981,1.2389737 40.4529199,1.19974007 C40.5321416,1.16050643 40.6121167,1.11674649 40.6928474,1.06845894 C40.7735782,1.02017139 40.8569484,0.965094231 40.9429606,0.903225806 L41.1647804,0.903225806 Z M44.1638751,4.27579258 C43.8258622,4.27579258 43.5621709,4.13772243 43.3727931,3.861578 C43.1834154,3.58543357 43.0887279,3.18631277 43.0887279,2.66420362 C43.0887279,2.09078896 43.187565,1.656962 43.3852422,1.36270974 C43.5829194,1.06845747 43.8681134,0.921333548 44.240833,0.921333548 C44.9545833,0.921333548 45.3114531,1.47587757 45.3114531,2.58498226 C45.3114531,3.13425315 45.2107298,3.55336771 45.0092802,3.84233853 C44.8078306,4.13130934 44.5260317,4.27579258 44.1638751,4.27579258 Z M44.2159348,1.34007506 C43.8220895,1.34007506 43.6251698,1.77390202 43.6251698,2.64156895 C43.6251698,3.4534034 43.8183171,3.85931453 44.2046175,3.85931453 C44.5848819,3.85931453 44.7750113,3.44661306 44.7750113,2.62119774 C44.7750113,1.76711168 44.5886543,1.34007506 44.2159348,1.34007506 Z M48.152105,0.903225806 L48.152105,4.22146936 L47.6269805,4.22146936 L47.6269805,1.54605061 C47.5319144,1.61395498 47.4296822,1.67167283 47.3202807,1.71920589 C47.2108792,1.76673895 47.0860125,1.80861268 46.9456768,1.84482834 L46.9456768,1.39666175 C47.033198,1.36799102 47.1176999,1.33781175 47.1991852,1.30612305 C47.2806704,1.27443434 47.3610227,1.2389737 47.4402445,1.19974007 C47.5194662,1.16050643 47.5994413,1.11674649 47.680172,1.06845894 C47.7609028,1.02017139 47.844273,0.965094231 47.9302852,0.903225806 L48.152105,0.903225806 Z M13.2154821,7.27715066 L13.2154821,10.5953942 L12.6903576,10.5953942 L12.6903576,7.91997547 C12.5952915,7.98787984 12.4930592,8.04559768 12.3836578,8.09313074 C12.2742563,8.1406638 12.1493896,8.18253753 12.0090539,8.21875319 L12.0090539,7.7705866 C12.0965751,7.74191587 12.181077,7.7117366 12.2625622,7.6800479 C12.3440475,7.64835919 12.4243998,7.61289855 12.5036215,7.57366492 C12.5828433,7.53443128 12.6628184,7.49067135 12.7435491,7.4423838 C12.8242799,7.39409625 12.9076501,7.33901908 12.9936623,7.27715066 L13.2154821,7.27715066 Z M16.3549117,10.5953942 L15.8297872,10.5953942 L15.8297872,7.91997547 C15.7347211,7.98787984 15.6324889,8.04559768 15.5230874,8.09313074 C15.4136859,8.1406638 15.2888192,8.18253753 15.1484835,8.21875319 L15.1484835,7.7705866 C15.2360047,7.74191587 15.3205066,7.7117366 15.4019919,7.6800479 C15.4834771,7.64835919 15.5638294,7.61289855 15.6430512,7.57366492 C15.7222729,7.53443128 15.802248,7.49067135 15.8829787,7.4423838 C15.9637095,7.39409625 16.0470797,7.33901908 16.1330919,7.27715066 L16.3549117,10.5953942 Z M19.3540063,10.6497174 C19.0159935,10.6497174 18.7523021,10.5116473 18.5629244,10.2355029 C18.3735467,9.95935842 18.2788592,9.56023762 18.2788592,9.03812848 C18.2788592,8.46471381 18.3776963,8.03088685 18.5753735,7.73663459 C18.7730506,7.44238233 19.0582447,7.2952584 19.4309642,7.2952584 C20.1447146,7.2952584 20.5015844,7.84980242 20.5015844,8.95890711 C20.5015844,9.508178 20.4008611,9.92729257 20.1994115,10.2162634 C19.9979619,10.5052342 19.716163,10.6497174 19.3540063,10.6497174 Z M19.4060661,7.71399991 C19.0122208,7.71399991 18.815301,8.14782687 18.815301,9.0154938 C18.815301,9.82732825 19.0084483,10.2332394 19.3947488,10.2332394 C19.7750132,10.2332394 19.9651426,9.82053792 19.9651426,8.99512259 C19.9651426,8.14103654 19.7787856,7.71399991 19.4060661,7.71399991 Z M23.3422363,7.27715066 L23.3422363,10.5953942 L22.8171118,10.5953942 L22.8171118,7.91997547 C22.7220457,7.98787984 22.6198134,8.04559768 22.510412,8.09313074 C22.4010105,8.1406638 22.2761438,8.18253753 22.1358081,8.21875319 L22.1358081,7.7705866 C22.2233292,7.74191587 22.3078312,7.7117366 22.3893164,7.6800479 C22.4708017,7.64835919 22.551154,7.61289855 22.6303757,7.57366492 C22.7095975,7.53443128 22.7895726,7.49067135 22.8703033,7.4423838 C22.9510341,7.39409625 23.0344043,7.33901908 23.1204165,7.27715066 L23.3422363,7.27715066 Z M26.3413309,10.6497174 C26.0033181,10.6497174 25.7396267,10.5116473 25.550249,10.2355029 C25.3608712,9.95935842 25.2661838,9.56023762 25.2661838,9.03812848 C25.2661838,8.46471381 25.3650209,8.03088685 25.5626981,7.73663459 C25.7603752,7.44238233 26.0455693,7.2952584 26.4182888,7.2952584 C27.1320392,7.2952584 27.488909,7.84980242 27.488909,8.95890711 C27.488909,9.508178 27.3881857,9.92729257 27.1867361,10.2162634 C26.9852865,10.5052342 26.7034876,10.6497174 26.3413309,10.6497174 Z M26.3933907,7.71399991 C25.9995453,7.71399991 25.8026256,8.14782687 25.8026256,9.0154938 C25.8026256,9.82732825 25.9957729,10.2332394 26.3820733,10.2332394 C26.7623378,10.2332394 26.9524672,9.82053792 26.9524672,8.99512259 C26.9524672,8.14103654 26.7661102,7.71399991 26.3933907,7.71399991 Z M30.3295609,7.27715066 L30.3295609,10.5953942 L29.8044364,10.5953942 L29.8044364,7.91997547 C29.7093703,7.98787984 29.607138,8.04559768 29.4977365,8.09313074 C29.388335,8.1406638 29.2634683,8.18253753 29.1231326,8.21875319 L29.1231326,7.7705866 C29.2106538,7.74191587 29.2951558,7.7117366 29.376641,7.6800479 C29.4581263,7.64835919 29.5384786,7.61289855 29.6177003,7.57366492 C29.6969221,7.53443128 29.7768971,7.49067135 29.8576279,7.4423838 C29.9383586,7.39409625 30.0217289,7.33901908 30.1077411,7.27715066 L30.3295609,7.27715066 Z M33.3286555,10.6497174 C32.9906426,10.6497174 32.7269513,10.5116473 32.5375736,10.2355029 C32.3481958,9.95935842 32.2535084,9.56023762 32.2535084,9.03812848 C32.2535084,8.46471381 32.3523455,8.03088685 32.5500226,7.73663459 C32.7476998,7.44238233 33.0328939,7.2952584 33.4056134,7.2952584 C34.1193638,7.2952584 34.4762336,7.84980242 34.4762336,8.95890711 C34.4762336,9.508178 34.3755103,9.92729257 34.1740607,10.2162634 C33.972611,10.5052342 33.6908121,10.6497174 33.3286555,10.6497174 Z M33.3807153,7.71399991 C32.9868699,7.71399991 32.7899502,8.14782687 32.7899502,9.0154938 C32.7899502,9.82732825 32.9830975,10.2332394 33.3693979,10.2332394 C33.7496624,10.2332394 33.9397918,9.82053792 33.9397918,8.99512259 C33.9397918,8.14103654 33.7534348,7.71399991 33.3807153,7.71399991 Z M37.3168855,7.27715066 L37.3168855,10.5953942 L36.791761,10.5953942 L36.791761,7.91997547 C36.6966949,7.98787984 36.5944626,8.04559768 36.4850611,8.09313074 C36.3756596,8.1406638 36.2507929,8.18253753 36.1104572,8.21875319 L36.1104572,7.7705866 C36.1979784,7.74191587 36.2824804,7.7117366 36.3639656,7.6800479 C36.4454508,7.64835919 36.5258031,7.61289855 36.6050249,7.57366492 C36.6842467,7.53443128 36.7642217,7.49067135 36.8449525,7.4423838 C36.9256832,7.39409625 37.0090534,7.33901908 37.0950656,7.27715066 L37.3168855,7.27715066 Z M40.3159801,10.6497174 C39.9779672,10.6497174 39.7142759,10.5116473 39.5248981,10.2355029 C39.3355204,9.95935842 39.240833,9.56023762 39.240833,9.03812848 C39.240833,8.46471381 39.3396701,8.03088685 39.5373472,7.73663459 C39.7350244,7.44238233 40.0202184,7.2952584 40.392938,7.2952584 C41.1066883,7.2952584 41.4635582,7.84980242 41.4635582,8.95890711 C41.4635582,9.508178 41.3628349,9.92729257 41.1613852,10.2162634 C40.9599356,10.5052342 40.6781367,10.6497174 40.3159801,10.6497174 Z M40.3680398,7.71399991 C39.9741945,7.71399991 39.7772748,8.14782687 39.7772748,9.0154938 C39.7772748,9.82732825 39.9704221,10.2332394 40.3567225,10.2332394 C40.736987,10.2332394 40.9271163,9.82053792 40.9271163,8.99512259 C40.9271163,8.14103654 40.7407594,7.71399991 40.3680398,7.71399991 Z M44.30421,7.27715066 L44.30421,10.5953942 L43.7790856,10.5953942 L43.7790856,7.91997547 C43.6840194,7.98787984 43.5817872,8.04559768 43.4723857,8.09313074 C43.3629842,8.1406638 43.2381175,8.18253753 43.0977818,8.21875319 L43.0977818,7.7705866 C43.185303,7.74191587 43.2698049,7.7117366 43.3512902,7.6800479 C43.4327754,7.64835919 43.5131277,7.61289855 43.5923495,7.57366492 C43.6715712,7.53443128 43.7515463,7.49067135 43.832277,7.4423838 C43.9130078,7.39409625 43.996378,7.33901908 44.0823902,7.27715066 L44.30421,7.27715066 Z M47.3033047,10.6497174 C46.9652918,10.6497174 46.7016005,10.5116473 46.5122227,10.2355029 C46.322845,9.95935842 46.2281575,9.56023762 46.2281575,9.03812848 C46.2281575,8.46471381 46.3269946,8.03088685 46.5246718,7.73663459 C46.722349,7.44238233 47.007543,7.2952584 47.3802626,7.2952584 C48.0940129,7.2952584 48.4508828,7.84980242 48.4508828,8.95890711 C48.4508828,9.508178 48.3501594,9.92729257 48.1487098,10.2162634 C47.9472602,10.5052342 47.6654613,10.6497174 47.3033047,10.6497174 Z M47.3553644,7.71399991 C46.9615191,7.71399991 46.7645994,8.14782687 46.7645994,9.0154938 C46.7645994,9.82732825 46.9577467,10.2332394 47.3440471,10.2332394 C47.7243115,10.2332394 47.9144409,9.82053792 47.9144409,8.99512259 C47.9144409,8.14103654 47.728084,7.71399991 47.3553644,7.71399991 Z M51.2915346,7.27715066 L51.2915346,10.5953942 L50.7664101,10.5953942 L50.7664101,7.91997547 C50.671344,7.98787984 50.5691118,8.04559768 50.4597103,8.09313074 C50.3503088,8.1406638 50.2254421,8.18253753 50.0851064,8.21875319 L50.0851064,7.7705866 C50.1726276,7.74191587 50.2571295,7.7117366 50.3386148,7.6800479 C50.4201,7.64835919 50.5004523,7.61289855 50.5796741,7.57366492 C50.6588958,7.53443128 50.7388709,7.49067135 50.8196016,7.4423838 C50.9003324,7.39409625 50.9837026,7.33901908 51.0697148,7.27715066 L51.2915346,7.27715066 Z M13.0751471,17.0236423 C12.7371343,17.0236423 12.4734429,16.8855721 12.2840652,16.6094277 C12.0946874,16.3332833 12,15.9341625 12,15.4120533 C12,14.8386387 12.0988371,14.4048117 12.2965143,14.1105594 C12.4941914,13.8163072 12.7793855,13.6691833 13.152105,13.6691833 C13.8658554,13.6691833 14.2227252,14.2237273 14.2227252,15.332832 C14.2227252,15.8821029 14.1220019,16.3012174 13.9205523,16.5901882 C13.7191027,16.879159 13.4373038,17.0236423 13.0751471,17.0236423 Z M13.1272069,14.0879248 C12.7333615,14.0879248 12.5364418,14.5217517 12.5364418,15.3894187 C12.5364418,16.2012531 12.7295891,16.6071642 13.1158895,16.6071642 C13.496154,16.6071642 13.6862834,16.1944628 13.6862834,15.3690474 C13.6862834,14.5149614 13.4999264,14.0879248 13.1272069,14.0879248 Z M17.0633771,13.6510755 L17.0633771,16.9693191 L16.5382526,16.9693191 L16.5382526,14.2939003 C16.4431865,14.3618047 16.3409542,14.4195225 16.2315527,14.4670556 C16.1221513,14.5145887 15.9972845,14.5564624 15.8569488,14.592678 L15.8569488,14.1445115 C15.94447,14.1158407 16.028972,14.0856615 16.1104572,14.0539728 C16.1919425,14.022284 16.2722948,13.9868234 16.3515165,13.9475898 C16.4307383,13.9083561 16.5107133,13.8645962 16.5914441,13.8163086 C16.6721748,13.7680211 16.7555451,13.7129439 16.8415573,13.6510755 L17.0633771,13.6510755 Z M20.0624717,17.0236423 C19.7244589,17.0236423 19.4607675,16.8855721 19.2713898,16.6094277 C19.082012,16.3332833 18.9873246,15.9341625 18.9873246,15.4120533 C18.9873246,14.8386387 19.0861617,14.4048117 19.2838388,14.1105594 C19.481516,13.8163072 19.7667101,13.6691833 20.1394296,13.6691833 C20.85318,13.6691833 21.2100498,14.2237273 21.2100498,15.332832 C21.2100498,15.8821029 21.1093265,16.3012174 20.9078769,16.5901882 C20.7064272,16.879159 20.4246283,17.0236423 20.0624717,17.0236423 Z M20.1145315,14.0879248 C19.7206861,14.0879248 19.5237664,14.5217517 19.5237664,15.3894187 C19.5237664,16.2012531 19.7169137,16.6071642 20.1032141,16.6071642 C20.4834786,16.6071642 20.673608,16.1944628 20.673608,15.3690474 C20.673608,14.5149614 20.487251,14.0879248 20.1145315,14.0879248 Z M24.0507017,13.6510755 L24.0507017,16.9693191 L23.5255772,16.9693191 L23.5255772,14.2939003 C23.4305111,14.3618047 23.3282788,14.4195225 23.2188773,14.4670556 C23.1094758,14.5145887 22.9846091,14.5564624 22.8442734,14.592678 L22.8442734,14.1445115 C22.9317946,14.1158407 23.0162966,14.0856615 23.0977818,14.0539728 C23.179267,14.022284 23.2596193,13.9868234 23.3388411,13.9475898 C23.4180629,13.9083561 23.4980379,13.8645962 23.5787687,13.8163086 C23.6594994,13.7680211 23.7428696,13.7129439 23.8288818,13.6510755 L24.0507017,13.6510755 Z M27.0497963,17.0236423 C26.7117834,17.0236423 26.4480921,16.8855721 26.2587144,16.6094277 C26.0693366,16.3332833 25.9746492,15.9341625 25.9746492,15.4120533 C25.9746492,14.8386387 26.0734863,14.4048117 26.2711634,14.1105594 C26.4688406,13.8163072 26.7540347,13.6691833 27.1267542,13.6691833 C27.8405045,13.6691833 28.1973744,14.2237273 28.1973744,15.332832 C28.1973744,15.8821029 28.0966511,16.3012174 27.8952014,16.5901882 C27.6937518,16.879159 27.4119529,17.0236423 27.0497963,17.0236423 Z M27.101856,14.0879248 C26.7080107,14.0879248 26.511091,14.5217517 26.511091,15.3894187 C26.511091,16.2012531 26.7042383,16.6071642 27.0905387,16.6071642 C27.4708032,16.6071642 27.6609325,16.1944628 27.6609325,15.3690474 C27.6609325,14.5149614 27.4745756,14.0879248 27.101856,14.0879248 Z M31.0380263,13.6510755 L31.0380263,16.9693191 L30.5129018,16.9693191 L30.5129018,14.2939003 C30.4178356,14.3618047 30.3156034,14.4195225 30.2062019,14.4670556 C30.0968004,14.5145887 29.9719337,14.5564624 29.831598,14.592678 L29.831598,14.1445115 C29.9191192,14.1158407 30.0036211,14.0856615 30.0851064,14.0539728 C30.1665916,14.022284 30.2469439,13.9868234 30.3261657,13.9475898 C30.4053874,13.9083561 30.4853625,13.8645962 30.5660933,13.8163086 C30.646824,13.7680211 30.7301942,13.7129439 30.8162064,13.6510755 L31.0380263,13.6510755 Z M34.0371209,17.0236423 C33.699108,17.0236423 33.4354167,16.8855721 33.2460389,16.6094277 C33.0566612,16.3332833 32.9619737,15.9341625 32.9619737,15.4120533 C32.9619737,14.8386387 33.0608108,14.4048117 33.258488,14.1105594 C33.4561652,13.8163072 33.7413592,13.6691833 34.1140788,13.6691833 C34.8278291,13.6691833 35.184699,14.2237273 35.184699,15.332832 C35.184699,15.8821029 35.0839757,16.3012174 34.882526,16.5901882 C34.6810764,16.879159 34.3992775,17.0236423 34.0371209,17.0236423 Z M34.0891806,14.0879248 C33.6953353,14.0879248 33.4984156,14.5217517 33.4984156,15.3894187 C33.4984156,16.2012531 33.6915629,16.6071642 34.0778633,16.6071642 C34.4581278,16.6071642 34.6482571,16.1944628 34.6482571,15.3690474 C34.6482571,14.5149614 34.4619002,14.0879248 34.0891806,14.0879248 Z M38.0253508,13.6510755 L38.0253508,16.9693191 L37.5002263,16.9693191 L37.5002263,14.2939003 C37.4051602,14.3618047 37.302928,14.4195225 37.1935265,14.4670556 C37.084125,14.5145887 36.9592583,14.5564624 36.8189226,14.592678 L36.8189226,14.1445115 C36.9064438,14.1158407 36.9909457,14.0856615 37.072431,14.0539728 C37.1539162,14.022284 37.2342685,13.9868234 37.3134903,13.9475898 C37.392712,13.9083561 37.4726871,13.8645962 37.5534178,13.8163086 C37.6341486,13.7680211 37.7175188,13.7129439 37.803531,13.6510755 L38.0253508,13.6510755 Z M41.0244455,17.0236423 C40.6864326,17.0236423 40.4227413,16.8855721 40.2333635,16.6094277 C40.0439858,16.3332833 39.9492983,15.9341625 39.9492983,15.4120533 C39.9492983,14.8386387 40.0481354,14.4048117 40.2458126,14.1105594 C40.4434897,13.8163072 40.7286838,13.6691833 41.1014033,13.6691833 C41.8151537,13.6691833 42.1720235,14.2237273 42.1720235,15.332832 C42.1720235,15.8821029 42.0713002,16.3012174 41.8698506,16.5901882 C41.668401,16.879159 41.3866021,17.0236423 41.0244455,17.0236423 Z M41.0765052,14.0879248 C40.6826599,14.0879248 40.4857402,14.5217517 40.4857402,15.3894187 C40.4857402,16.2012531 40.6788875,16.6071642 41.0651879,16.6071642 C41.4454523,16.6071642 41.6355817,16.1944628 41.6355817,15.3690474 C41.6355817,14.5149614 41.4492247,14.0879248 41.0765052,14.0879248 Z M45.0126754,13.6510755 L45.0126754,16.9693191 L44.4875509,16.9693191 L44.4875509,14.2939003 C44.3924848,14.3618047 44.2902525,14.4195225 44.1808511,14.4670556 C44.0714496,14.5145887 43.9465829,14.5564624 43.8062472,14.592678 L43.8062472,14.1445115 C43.8937684,14.1158407 43.9782703,14.0856615 44.0597555,14.0539728 C44.1412408,14.022284 44.2215931,13.9868234 44.3008148,13.9475898 C44.3800366,13.9083561 44.4600117,13.8645962 44.5407424,13.8163086 C44.6214732,13.7680211 44.7048434,13.7129439 44.7908556,13.6510755 L45.0126754,13.6510755 Z M48.01177,17.0236423 C47.6737572,17.0236423 47.4100658,16.8855721 47.2206881,16.6094277 C47.0313104,16.3332833 46.9366229,15.9341625 46.9366229,15.4120533 C46.9366229,14.8386387 47.03546,14.4048117 47.2331372,14.1105594 C47.4308143,13.8163072 47.7160084,13.6691833 48.0887279,13.6691833 C48.8024783,13.6691833 49.1593481,14.2237273 49.1593481,15.332832 C49.1593481,15.8821029 49.0586248,16.3012174 48.8571752,16.5901882 C48.6557256,16.879159 48.3739267,17.0236423 48.01177,17.0236423 Z M48.0638298,14.0879248 C47.6699844,14.0879248 47.4730647,14.5217517 47.4730647,15.3894187 C47.4730647,16.2012531 47.666212,16.6071642 48.0525124,16.6071642 C48.4327769,16.6071642 48.6229063,16.1944628 48.6229063,15.3690474 C48.6229063,14.5149614 48.4365493,14.0879248 48.0638298,14.0879248 Z M52,13.6510755 L52,16.9693191 L51.4748755,16.9693191 L51.4748755,14.2939003 C51.3798094,14.3618047 51.2775771,14.4195225 51.1681756,14.4670556 C51.0587742,14.5145887 50.9339074,14.5564624 50.7935718,14.592678 L50.7935718,14.1445115 C50.8810929,14.1158407 50.9655949,14.0856615 51.0470801,14.0539728 C51.1285654,14.022284 51.2089177,13.9868234 51.2881394,13.9475898 C51.3673612,13.9083561 51.4473362,13.8645962 51.528067,13.8163086 C51.6087977,13.7680211 51.692168,13.7129439 51.7781802,13.6510755 L52,13.6510755 Z M13.0751471,23.3975671 C12.7371343,23.3975671 12.4734429,23.259497 12.2840652,22.9833526 C12.0946874,22.7072081 12,22.3080873 12,21.7859782 C12,21.2125635 12.0988371,20.7787366 12.2965143,20.4844843 C12.4941914,20.190232 12.7793855,20.0431081 13.152105,20.0431081 C13.8658554,20.0431081 14.2227252,20.5976521 14.2227252,21.7067568 C14.2227252,22.2560277 14.1220019,22.6751423 13.9205523,22.9641131 C13.7191027,23.2530839 13.4373038,23.3975671 13.0751471,23.3975671 Z M13.1272069,20.4618496 C12.7333615,20.4618496 12.5364418,20.8956766 12.5364418,21.7633435 C12.5364418,22.575178 12.7295891,22.9810891 13.1158895,22.9810891 C13.496154,22.9810891 13.6862834,22.5683876 13.6862834,21.7429723 C13.6862834,20.8888862 13.4999264,20.4618496 13.1272069,20.4618496 Z M17.0633771,20.0250004 L17.0633771,23.3432439 L16.5382526,23.3432439 L16.5382526,20.6678252 C16.4431865,20.7357295 16.3409542,20.7934474 16.2315527,20.8409804 C16.1221513,20.8885135 15.9972845,20.9303872 15.8569488,20.9666029 L15.8569488,20.5184363 C15.94447,20.4897656 16.028972,20.4595863 16.1104572,20.4278976 C16.1919425,20.3962089 16.2722948,20.3607483 16.3515165,20.3215146 C16.4307383,20.282281 16.5107133,20.2385211 16.5914441,20.1902335 C16.6721748,20.141946 16.7555451,20.0868688 16.8415573,20.0250004 L17.0633771,20.0250004 Z M20.0624717,23.3975671 C19.7244589,23.3975671 19.4607675,23.259497 19.2713898,22.9833526 C19.082012,22.7072081 18.9873246,22.3080873 18.9873246,21.7859782 C18.9873246,21.2125635 19.0861617,20.7787366 19.2838388,20.4844843 C19.481516,20.190232 19.7667101,20.0431081 20.1394296,20.0431081 C20.85318,20.0431081 21.2100498,20.5976521 21.2100498,21.7067568 C21.2100498,22.2560277 21.1093265,22.6751423 20.9078769,22.9641131 C20.7064272,23.2530839 20.4246283,23.3975671 20.0624717,23.3975671 Z M20.1145315,20.4618496 C19.7206861,20.4618496 19.5237664,20.8956766 19.5237664,21.7633435 C19.5237664,22.575178 19.7169137,22.9810891 20.1032141,22.9810891 C20.4834786,22.9810891 20.673608,22.5683876 20.673608,21.7429723 C20.673608,20.8888862 20.487251,20.4618496 20.1145315,20.4618496 Z M24.0507017,20.0250004 L24.0507017,23.3432439 L23.5255772,23.3432439 L23.5255772,20.6678252 C23.4305111,20.7357295 23.3282788,20.7934474 23.2188773,20.8409804 C23.1094758,20.8885135 22.9846091,20.9303872 22.8442734,20.9666029 L22.8442734,20.5184363 C22.9317946,20.4897656 23.0162966,20.4595863 23.0977818,20.4278976 C23.179267,20.3962089 23.2596193,20.3607483 23.3388411,20.3215146 C23.4180629,20.282281 23.4980379,20.2385211 23.5787687,20.1902335 C23.6594994,20.141946 23.7428696,20.0868688 23.8288818,20.0250004 L24.0507017,20.0250004 Z M27.0497963,23.3975671 C26.7117834,23.3975671 26.4480921,23.259497 26.2587144,22.9833526 C26.0693366,22.7072081 25.9746492,22.3080873 25.9746492,21.7859782 C25.9746492,21.2125635 26.0734863,20.7787366 26.2711634,20.4844843 C26.4688406,20.190232 26.7540347,20.0431081 27.1267542,20.0431081 C27.8405045,20.0431081 28.1973744,20.5976521 28.1973744,21.7067568 C28.1973744,22.2560277 28.0966511,22.6751423 27.8952014,22.9641131 C27.6937518,23.2530839 27.4119529,23.3975671 27.0497963,23.3975671 Z M27.101856,20.4618496 C26.7080107,20.4618496 26.511091,20.8956766 26.511091,21.7633435 C26.511091,22.575178 26.7042383,22.9810891 27.0905387,22.9810891 C27.4708032,22.9810891 27.6609325,22.5683876 27.6609325,21.7429723 C27.6609325,20.8888862 27.4745756,20.4618496 27.101856,20.4618496 Z M31.0380263,20.0250004 L31.0380263,23.3432439 L30.5129018,23.3432439 L30.5129018,20.6678252 C30.4178356,20.7357295 30.3156034,20.7934474 30.2062019,20.8409804 C30.0968004,20.8885135 29.9719337,20.9303872 29.831598,20.9666029 L29.831598,20.5184363 C29.9191192,20.4897656 30.0036211,20.4595863 30.0851064,20.4278976 C30.1665916,20.3962089 30.2469439,20.3607483 30.3261657,20.3215146 C30.4053874,20.282281 30.4853625,20.2385211 30.5660933,20.1902335 C30.646824,20.141946 30.7301942,20.0868688 30.8162064,20.0250004 L31.0380263,20.0250004 Z M34.0371209,23.3975671 C33.699108,23.3975671 33.4354167,23.259497 33.2460389,22.9833526 C33.0566612,22.7072081 32.9619737,22.3080873 32.9619737,21.7859782 C32.9619737,21.2125635 33.0608108,20.7787366 33.258488,20.4844843 C33.4561652,20.190232 33.7413592,20.0431081 34.1140788,20.0431081 C34.8278291,20.0431081 35.184699,20.5976521 35.184699,21.7067568 C35.184699,22.2560277 35.0839757,22.6751423 34.882526,22.9641131 C34.6810764,23.2530839 34.3992775,23.3975671 34.0371209,23.3975671 Z M34.0891806,20.4618496 C33.6953353,20.4618496 33.4984156,20.8956766 33.4984156,21.7633435 C33.4984156,22.575178 33.6915629,22.9810891 34.0778633,22.9810891 C34.4581278,22.9810891 34.6482571,22.5683876 34.6482571,21.7429723 C34.6482571,20.8888862 34.4619002,20.4618496 34.0891806,20.4618496 Z M38.0253508,20.0250004 L38.0253508,23.3432439 L37.5002263,23.3432439 L37.5002263,20.6678252 C37.4051602,20.7357295 37.302928,20.7934474 37.1935265,20.8409804 C37.084125,20.8885135 36.9592583,20.9303872 36.8189226,20.9666029 L36.8189226,20.5184363 C36.9064438,20.4897656 36.9909457,20.4595863 37.072431,20.4278976 C37.1539162,20.3962089 37.2342685,20.3607483 37.3134903,20.3215146 C37.392712,20.282281 37.4726871,20.2385211 37.5534178,20.1902335 C37.6341486,20.141946 37.7175188,20.0868688 37.803531,20.0250004 L38.0253508,20.0250004 Z M41.0244455,23.3975671 C40.6864326,23.3975671 40.4227413,23.259497 40.2333635,22.9833526 C40.0439858,22.7072081 39.9492983,22.3080873 39.9492983,21.7859782 C39.9492983,21.2125635 40.0481354,20.7787366 40.2458126,20.4844843 C40.4434897,20.190232 40.7286838,20.0431081 41.1014033,20.0431081 C41.8151537,20.0431081 42.1720235,20.5976521 42.1720235,21.7067568 C42.1720235,22.2560277 42.0713002,22.6751423 41.8698506,22.9641131 C41.668401,23.2530839 41.3866021,23.3975671 41.0244455,23.3975671 Z M41.0765052,20.4618496 C40.6826599,20.4618496 40.4857402,20.8956766 40.4857402,21.7633435 C40.4857402,22.575178 40.6788875,22.9810891 41.0651879,22.9810891 C41.4454523,22.9810891 41.6355817,22.5683876 41.6355817,21.7429723 C41.6355817,20.8888862 41.4492247,20.4618496 41.0765052,20.4618496 Z M45.0126754,20.0250004 L45.0126754,23.3432439 L44.4875509,23.3432439 L44.4875509,20.6678252 C44.3924848,20.7357295 44.2902525,20.7934474 44.1808511,20.8409804 C44.0714496,20.8885135 43.9465829,20.9303872 43.8062472,20.9666029 L43.8062472,20.5184363 C43.8937684,20.4897656 43.9782703,20.4595863 44.0597555,20.4278976 C44.1412408,20.3962089 44.2215931,20.3607483 44.3008148,20.3215146 C44.3800366,20.282281 44.4600117,20.2385211 44.5407424,20.1902335 C44.6214732,20.141946 44.7048434,20.0868688 44.7908556,20.0250004 L45.0126754,20.0250004 Z M48.01177,23.3975671 C47.6737572,23.3975671 47.4100658,23.259497 47.2206881,22.9833526 C47.0313104,22.7072081 46.9366229,22.3080873 46.9366229,21.7859782 C46.9366229,21.2125635 47.03546,20.7787366 47.2331372,20.4844843 C47.4308143,20.190232 47.7160084,20.0431081 48.0887279,20.0431081 C48.8024783,20.0431081 49.1593481,20.5976521 49.1593481,21.7067568 C49.1593481,22.2560277 49.0586248,22.6751423 48.8571752,22.9641131 C48.6557256,23.2530839 48.3739267,23.3975671 48.01177,23.3975671 Z M48.0638298,20.4618496 C47.6699844,20.4618496 47.4730647,20.8956766 47.4730647,21.7633435 C47.4730647,22.575178 47.666212,22.9810891 48.0525124,22.9810891 C48.4327769,22.9810891 48.6229063,22.5683876 48.6229063,21.7429723 C48.6229063,20.8888862 48.4365493,20.4618496 48.0638298,20.4618496 Z M52,20.0250004 L52,23.3432439 L51.4748755,23.3432439 L51.4748755,20.6678252 C51.3798094,20.7357295 51.2775771,20.7934474 51.1681756,20.8409804 C51.0587742,20.8885135 50.9339074,20.9303872 50.7935718,20.9666029 L50.7935718,20.5184363 C50.8810929,20.4897656 50.9655949,20.4595863 51.0470801,20.4278976 C51.1285654,20.3962089 51.2089177,20.3607483 51.2881394,20.3215146 C51.3673612,20.282281 51.4473362,20.2385211 51.528067,20.1902335 C51.6087977,20.141946 51.692168,20.0868688 51.7781802,20.0250004 L52,20.0250004 Z M13.0751471,29.771492 C12.7371343,29.771492 12.4734429,29.6334218 12.2840652,29.3572774 C12.0946874,29.081133 12,28.6820122 12,28.159903 C12,27.5864884 12.0988371,27.1526614 12.2965143,26.8584091 C12.4941914,26.5641569 12.7793855,26.417033 13.152105,26.417033 C13.8658554,26.417033 14.2227252,26.971577 14.2227252,28.0806817 C14.2227252,28.6299526 14.1220019,29.0490671 13.9205523,29.3380379 C13.7191027,29.6270088 13.4373038,29.771492 13.0751471,29.771492 Z M13.1272069,26.8357745 C12.7333615,26.8357745 12.5364418,27.2696014 12.5364418,28.1372684 C12.5364418,28.9491028 12.7295891,29.3550139 13.1158895,29.3550139 C13.496154,29.3550139 13.6862834,28.9423125 13.6862834,28.1168972 C13.6862834,27.2628111 13.4999264,26.8357745 13.1272069,26.8357745 Z M17.0633771,26.3989252 L17.0633771,29.7171688 L16.5382526,29.7171688 L16.5382526,27.04175 C16.4431865,27.1096544 16.3409542,27.1673722 16.2315527,27.2149053 C16.1221513,27.2624384 15.9972845,27.3043121 15.8569488,27.3405278 L15.8569488,26.8923612 C15.94447,26.8636904 16.028972,26.8335112 16.1104572,26.8018225 C16.1919425,26.7701338 16.2722948,26.7346731 16.3515165,26.6954395 C16.4307383,26.6562058 16.5107133,26.6124459 16.5914441,26.5641584 C16.6721748,26.5158708 16.7555451,26.4607936 16.8415573,26.3989252 L17.0633771,26.3989252 Z M20.0624717,29.771492 C19.7244589,29.771492 19.4607675,29.6334218 19.2713898,29.3572774 C19.082012,29.081133 18.9873246,28.6820122 18.9873246,28.159903 C18.9873246,27.5864884 19.0861617,27.1526614 19.2838388,26.8584091 C19.481516,26.5641569 19.7667101,26.417033 20.1394296,26.417033 C20.85318,26.417033 21.2100498,26.971577 21.2100498,28.0806817 C21.2100498,28.6299526 21.1093265,29.0490671 20.9078769,29.3380379 C20.7064272,29.6270088 20.4246283,29.771492 20.0624717,29.771492 Z M20.1145315,26.8357745 C19.7206861,26.8357745 19.5237664,27.2696014 19.5237664,28.1372684 C19.5237664,28.9491028 19.7169137,29.3550139 20.1032141,29.3550139 C20.4834786,29.3550139 20.673608,28.9423125 20.673608,28.1168972 C20.673608,27.2628111 20.487251,26.8357745 20.1145315,26.8357745 Z M24.0507017,26.3989252 L24.0507017,29.7171688 L23.5255772,29.7171688 L23.5255772,27.04175 C23.4305111,27.1096544 23.3282788,27.1673722 23.2188773,27.2149053 C23.1094758,27.2624384 22.9846091,27.3043121 22.8442734,27.3405278 L22.8442734,26.8923612 C22.9317946,26.8636904 23.0162966,26.8335112 23.0977818,26.8018225 C23.179267,26.7701338 23.2596193,26.7346731 23.3388411,26.6954395 C23.4180629,26.6562058 23.4980379,26.6124459 23.5787687,26.5641584 C23.6594994,26.5158708 23.7428696,26.4607936 23.8288818,26.3989252 L24.0507017,26.3989252 Z M27.0497963,29.771492 C26.7117834,29.771492 26.4480921,29.6334218 26.2587144,29.3572774 C26.0693366,29.081133 25.9746492,28.6820122 25.9746492,28.159903 C25.9746492,27.5864884 26.0734863,27.1526614 26.2711634,26.8584091 C26.4688406,26.5641569 26.7540347,26.417033 27.1267542,26.417033 C27.8405045,26.417033 28.1973744,26.971577 28.1973744,28.0806817 C28.1973744,28.6299526 28.0966511,29.0490671 27.8952014,29.3380379 C27.6937518,29.6270088 27.4119529,29.771492 27.0497963,29.771492 Z M27.101856,26.8357745 C26.7080107,26.8357745 26.511091,27.2696014 26.511091,28.1372684 C26.511091,28.9491028 26.7042383,29.3550139 27.0905387,29.3550139 C27.4708032,29.3550139 27.6609325,28.9423125 27.6609325,28.1168972 C27.6609325,27.2628111 27.4745756,26.8357745 27.101856,26.8357745 Z M31.0380263,26.3989252 L31.0380263,29.7171688 L30.5129018,29.7171688 L30.5129018,27.04175 C30.4178356,27.1096544 30.3156034,27.1673722 30.2062019,27.2149053 C30.0968004,27.2624384 29.9719337,27.3043121 29.831598,27.3405278 L29.831598,26.8923612 C29.9191192,26.8636904 30.0036211,26.8335112 30.0851064,26.8018225 C30.1665916,26.7701338 30.2469439,26.7346731 30.3261657,26.6954395 C30.4053874,26.6562058 30.4853625,26.6124459 30.5660933,26.5641584 C30.646824,26.5158708 30.7301942,26.4607936 30.8162064,26.3989252 L31.0380263,26.3989252 Z M34.0371209,29.771492 C33.699108,29.771492 33.4354167,29.6334218 33.2460389,29.3572774 C33.0566612,29.081133 32.9619737,28.6820122 32.9619737,28.159903 C32.9619737,27.5864884 33.0608108,27.1526614 33.258488,26.8584091 C33.4561652,26.5641569 33.7413592,26.417033 34.1140788,26.417033 C34.8278291,26.417033 35.184699,26.971577 35.184699,28.0806817 C35.184699,28.6299526 35.0839757,29.0490671 34.882526,29.3380379 C34.6810764,29.6270088 34.3992775,29.771492 34.0371209,29.771492 Z M34.0891806,26.8357745 C33.6953353,26.8357745 33.4984156,27.2696014 33.4984156,28.1372684 C33.4984156,28.9491028 33.6915629,29.3550139 34.0778633,29.3550139 C34.4581278,29.3550139 34.6482571,28.9423125 34.6482571,28.1168972 C34.6482571,27.2628111 34.4619002,26.8357745 34.0891806,26.8357745 Z M38.0253508,26.3989252 L38.0253508,29.7171688 L37.5002263,29.7171688 L37.5002263,27.04175 C37.4051602,27.1096544 37.302928,27.1673722 37.1935265,27.2149053 C37.084125,27.2624384 36.9592583,27.3043121 36.8189226,27.3405278 L36.8189226,26.8923612 C36.9064438,26.8636904 36.9909457,26.8335112 37.072431,26.8018225 C37.1539162,26.7701338 37.2342685,26.7346731 37.3134903,26.6954395 C37.392712,26.6562058 37.4726871,26.6124459 37.5534178,26.5641584 C37.6341486,26.5158708 37.7175188,26.4607936 37.803531,26.3989252 L38.0253508,26.3989252 Z M41.0244455,29.771492 C40.6864326,29.771492 40.4227413,29.6334218 40.2333635,29.3572774 C40.0439858,29.081133 39.9492983,28.6820122 39.9492983,28.159903 C39.9492983,27.5864884 40.0481354,27.1526614 40.2458126,26.8584091 C40.4434897,26.5641569 40.7286838,26.417033 41.1014033,26.417033 C41.8151537,26.417033 42.1720235,26.971577 42.1720235,28.0806817 C42.1720235,28.6299526 42.0713002,29.0490671 41.8698506,29.3380379 C41.668401,29.6270088 41.3866021,29.771492 41.0244455,29.771492 Z M41.0765052,26.8357745 C40.6826599,26.8357745 40.4857402,27.2696014 40.4857402,28.1372684 C40.4857402,28.9491028 40.6788875,29.3550139 41.0651879,29.3550139 C41.4454523,29.3550139 41.6355817,28.9423125 41.6355817,28.1168972 C41.6355817,27.2628111 41.4492247,26.8357745 41.0765052,26.8357745 Z M45.0126754,26.3989252 L45.0126754,29.7171688 L44.4875509,29.7171688 L44.4875509,27.04175 C44.3924848,27.1096544 44.2902525,27.1673722 44.1808511,27.2149053 C44.0714496,27.2624384 43.9465829,27.3043121 43.8062472,27.3405278 L43.8062472,26.8923612 C43.8937684,26.8636904 43.9782703,26.8335112 44.0597555,26.8018225 C44.1412408,26.7701338 44.2215931,26.7346731 44.3008148,26.6954395 C44.3800366,26.6562058 44.4600117,26.6124459 44.5407424,26.5641584 C44.6214732,26.5158708 44.7048434,26.4607936 44.7908556,26.3989252 L45.0126754,26.3989252 Z M48.01177,29.771492 C47.6737572,29.771492 47.4100658,29.6334218 47.2206881,29.3572774 C47.0313104,29.081133 46.9366229,28.6820122 46.9366229,28.159903 C46.9366229,27.5864884 47.03546,27.1526614 47.2331372,26.8584091 C47.4308143,26.5641569 47.7160084,26.417033 48.0887279,26.417033 C48.8024783,26.417033 49.1593481,26.971577 49.1593481,28.0806817 C49.1593481,28.6299526 49.0586248,29.0490671 48.8571752,29.3380379 C48.6557256,29.6270088 48.3739267,29.771492 48.01177,29.771492 Z M48.0638298,26.8357745 C47.6699844,26.8357745 47.4730647,27.2696014 47.4730647,28.1372684 C47.4730647,28.9491028 47.666212,29.3550139 48.0525124,29.3550139 C48.4327769,29.3550139 48.6229063,28.9423125 48.6229063,28.1168972 C48.6229063,27.2628111 48.4365493,26.8357745 48.0638298,26.8357745 Z M52,26.3989252 L52,29.7171688 L51.4748755,29.7171688 L51.4748755,27.04175 C51.3798094,27.1096544 51.2775771,27.1673722 51.1681756,27.2149053 C51.0587742,27.2624384 50.9339074,27.3043121 50.7935718,27.3405278 L50.7935718,26.8923612 C50.8810929,26.8636904 50.9655949,26.8335112 51.0470801,26.8018225 C51.1285654,26.7701338 51.2089177,26.7346731 51.2881394,26.6954395 C51.3673612,26.6562058 51.4473362,26.6124459 51.528067,26.5641584 C51.6087977,26.5158708 51.692168,26.4607936 51.7781802,26.3989252 L52,26.3989252 Z M17.0633771,32.7728501 L17.0633771,36.0910936 L16.5382526,36.0910936 L16.5382526,33.4156749 C16.4431865,33.4835792 16.3409542,33.5412971 16.2315527,33.5888302 C16.1221513,33.6363632 15.9972845,33.6782369 15.8569488,33.7144526 L15.8569488,33.266286 C15.94447,33.2376153 16.028972,33.207436 16.1104572,33.1757473 C16.1919425,33.1440586 16.2722948,33.108598 16.3515165,33.0693643 C16.4307383,33.0301307 16.5107133,32.9863708 16.5914441,32.9380832 C16.6721748,32.8897957 16.7555451,32.8347185 16.8415573,32.7728501 L17.0633771,32.7728501 Z M20.0624717,36.1454168 C19.7244589,36.1454168 19.4607675,36.0073467 19.2713898,35.7312023 C19.082012,35.4550578 18.9873246,35.055937 18.9873246,34.5338279 C18.9873246,33.9604132 19.0861617,33.5265863 19.2838388,33.232334 C19.481516,32.9380817 19.7667101,32.7909578 20.1394296,32.7909578 C20.85318,32.7909578 21.2100498,33.3455018 21.2100498,34.4546065 C21.2100498,35.0038774 21.1093265,35.422992 20.9078769,35.7119628 C20.7064272,36.0009336 20.4246283,36.1454168 20.0624717,36.1454168 Z M20.1145315,33.2096993 C19.7206861,33.2096993 19.5237664,33.6435263 19.5237664,34.5111932 C19.5237664,35.3230277 19.7169137,35.7289388 20.1032141,35.7289388 C20.4834786,35.7289388 20.673608,35.3162373 20.673608,34.490822 C20.673608,33.6367359 20.487251,33.2096993 20.1145315,33.2096993 Z M24.0507017,32.7728501 L24.0507017,36.0910936 L23.5255772,36.0910936 L23.5255772,33.4156749 C23.4305111,33.4835792 23.3282788,33.5412971 23.2188773,33.5888302 C23.1094758,33.6363632 22.9846091,33.6782369 22.8442734,33.7144526 L22.8442734,33.266286 C22.9317946,33.2376153 23.0162966,33.207436 23.0977818,33.1757473 C23.179267,33.1440586 23.2596193,33.108598 23.3388411,33.0693643 C23.4180629,33.0301307 23.4980379,32.9863708 23.5787687,32.9380832 C23.6594994,32.8897957 23.7428696,32.8347185 23.8288818,32.7728501 L24.0507017,32.7728501 Z M27.0497963,36.1454168 C26.7117834,36.1454168 26.4480921,36.0073467 26.2587144,35.7312023 C26.0693366,35.4550578 25.9746492,35.055937 25.9746492,34.5338279 C25.9746492,33.9604132 26.0734863,33.5265863 26.2711634,33.232334 C26.4688406,32.9380817 26.7540347,32.7909578 27.1267542,32.7909578 C27.8405045,32.7909578 28.1973744,33.3455018 28.1973744,34.4546065 C28.1973744,35.0038774 28.0966511,35.422992 27.8952014,35.7119628 C27.6937518,36.0009336 27.4119529,36.1454168 27.0497963,36.1454168 Z M27.101856,33.2096993 C26.7080107,33.2096993 26.511091,33.6435263 26.511091,34.5111932 C26.511091,35.3230277 26.7042383,35.7289388 27.0905387,35.7289388 C27.4708032,35.7289388 27.6609325,35.3162373 27.6609325,34.490822 C27.6609325,33.6367359 27.4745756,33.2096993 27.101856,33.2096993 Z M31.0380263,32.7728501 L31.0380263,36.0910936 L30.5129018,36.0910936 L30.5129018,33.4156749 C30.4178356,33.4835792 30.3156034,33.5412971 30.2062019,33.5888302 C30.0968004,33.6363632 29.9719337,33.6782369 29.831598,33.7144526 L29.831598,33.266286 C29.9191192,33.2376153 30.0036211,33.207436 30.0851064,33.1757473 C30.1665916,33.1440586 30.2469439,33.108598 30.3261657,33.0693643 C30.4053874,33.0301307 30.4853625,32.9863708 30.5660933,32.9380832 C30.646824,32.8897957 30.7301942,32.8347185 30.8162064,32.7728501 L31.0380263,32.7728501 Z M34.0371209,36.1454168 C33.699108,36.1454168 33.4354167,36.0073467 33.2460389,35.7312023 C33.0566612,35.4550578 32.9619737,35.055937 32.9619737,34.5338279 C32.9619737,33.9604132 33.0608108,33.5265863 33.258488,33.232334 C33.4561652,32.9380817 33.7413592,32.7909578 34.1140788,32.7909578 C34.8278291,32.7909578 35.184699,33.3455018 35.184699,34.4546065 C35.184699,35.0038774 35.0839757,35.422992 34.882526,35.7119628 C34.6810764,36.0009336 34.3992775,36.1454168 34.0371209,36.1454168 Z M34.0891806,33.2096993 C33.6953353,33.2096993 33.4984156,33.6435263 33.4984156,34.5111932 C33.4984156,35.3230277 33.6915629,35.7289388 34.0778633,35.7289388 C34.4581278,35.7289388 34.6482571,35.3162373 34.6482571,34.490822 C34.6482571,33.6367359 34.4619002,33.2096993 34.0891806,33.2096993 Z M38.0253508,32.7728501 L38.0253508,36.0910936 L37.5002263,36.0910936 L37.5002263,33.4156749 C37.4051602,33.4835792 37.302928,33.5412971 37.1935265,33.5888302 C37.084125,33.6363632 36.9592583,33.6782369 36.8189226,33.7144526 L36.8189226,33.266286 C36.9064438,33.2376153 36.9909457,33.207436 37.072431,33.1757473 C37.1539162,33.1440586 37.2342685,33.108598 37.3134903,33.0693643 C37.392712,33.0301307 37.4726871,32.9863708 37.5534178,32.9380832 C37.6341486,32.8897957 37.7175188,32.8347185 37.803531,32.7728501 L38.0253508,32.7728501 Z M41.0244455,36.1454168 C40.6864326,36.1454168 40.4227413,36.0073467 40.2333635,35.7312023 C40.0439858,35.4550578 39.9492983,35.055937 39.9492983,34.5338279 C39.9492983,33.9604132 40.0481354,33.5265863 40.2458126,33.232334 C40.4434897,32.9380817 40.7286838,32.7909578 41.1014033,32.7909578 C41.8151537,32.7909578 42.1720235,33.3455018 42.1720235,34.4546065 C42.1720235,35.0038774 42.0713002,35.422992 41.8698506,35.7119628 C41.668401,36.0009336 41.3866021,36.1454168 41.0244455,36.1454168 Z M41.0765052,33.2096993 C40.6826599,33.2096993 40.4857402,33.6435263 40.4857402,34.5111932 C40.4857402,35.3230277 40.6788875,35.7289388 41.0651879,35.7289388 C41.4454523,35.7289388 41.6355817,35.3162373 41.6355817,34.490822 C41.6355817,33.6367359 41.4492247,33.2096993 41.0765052,33.2096993 Z M45.0126754,32.7728501 L45.0126754,36.0910936 L44.4875509,36.0910936 L44.4875509,33.4156749 C44.3924848,33.4835792 44.2902525,33.5412971 44.1808511,33.5888302 C44.0714496,33.6363632 43.9465829,33.6782369 43.8062472,33.7144526 L43.8062472,33.266286 C43.8937684,33.2376153 43.9782703,33.207436 44.0597555,33.1757473 C44.1412408,33.1440586 44.2215931,33.108598 44.3008148,33.0693643 C44.3800366,33.0301307 44.4600117,32.9863708 44.5407424,32.9380832 C44.6214732,32.8897957 44.7048434,32.8347185 44.7908556,32.7728501 L45.0126754,32.7728501 Z M48.01177,36.1454168 C47.6737572,36.1454168 47.4100658,36.0073467 47.2206881,35.7312023 C47.0313104,35.4550578 46.9366229,35.055937 46.9366229,34.5338279 C46.9366229,33.9604132 47.03546,33.5265863 47.2331372,33.232334 C47.4308143,32.9380817 47.7160084,32.7909578 48.0887279,32.7909578 C48.8024783,32.7909578 49.1593481,33.3455018 49.1593481,34.4546065 C49.1593481,35.0038774 49.0586248,35.422992 48.8571752,35.7119628 C48.6557256,36.0009336 48.3739267,36.1454168 48.01177,36.1454168 Z M48.0638298,33.2096993 C47.6699844,33.2096993 47.4730647,33.6435263 47.4730647,34.5111932 C47.4730647,35.3230277 47.666212,35.7289388 48.0525124,35.7289388 C48.4327769,35.7289388 48.6229063,35.3162373 48.6229063,34.490822 C48.6229063,33.6367359 48.4365493,33.2096993 48.0638298,33.2096993 Z" id="101010101010110101010101010101010101010101010101010101010101010101010101" fill="#FFFFFF" fill-rule="nonzero"></path>
                    <path d="M0,23.3548387 L0,66.8064516 C6.46995335e-16,68.4633059 1.34314575,69.8064516 3,69.8064516 L61,69.8064516 C62.6568542,69.8064516 64,68.4633059 64,66.8064516 L64,23.3548387 L64,23.3548387" id="Path-11" fill="url(#linearGradient-10)"></path>
                </g>
                <g id="Lock" transform="translate(35.000000, 36.217391)" fill-rule="nonzero">
                    <path d="M28.4407228,19.0573413 L26.5543337,19.0573413 L26.5543337,12.2765076 C26.5871167,9.07379259 25.4055912,5.98031395 23.2531528,3.63333214 C21.1376219,1.31699955 18.1632104,0 15.0473604,0 C11.9315104,0 8.95709889,1.31699955 6.84156795,3.63333214 C4.68495637,5.97766994 3.50275986,9.07290534 3.54038709,12.2765076 L3.54038709,19.0573413 L1.65399802,19.0573413 C1.21291956,19.0142645 0.775433287,19.1696579 0.457588627,19.4823013 C0.139743968,19.7949447 -0.0263346091,20.2332393 0.00340758682,20.6809213 L0.00340758682,38.2537862 C0.00320805034,38.6674679 0.168660521,39.0635555 0.461957145,39.3515384 C0.755253769,39.6395212 1.15133031,39.7947891 1.55967857,39.7818615 L28.4407228,39.7818615 C28.849071,39.7947891 29.2451476,39.6395212 29.5384442,39.3515384 C29.8317408,39.0635555 29.9971933,38.6674679 29.9969937,38.2537862 L29.9969937,20.6809213 C30.0238222,20.2509386 29.8701398,19.8294678 29.5737944,19.5203054 C29.277449,19.211143 28.8659807,19.0430203 28.4407228,19.0573413 Z M21.1309651,19.0573413 L8.8694362,19.0573413 L8.8694362,12.1810029 C8.87221147,10.3944286 9.56636045,8.68010691 10.802985,7.40576783 C11.8680353,6.19072583 13.3957559,5.49537156 15.0002007,5.49537156 C16.6046454,5.49537156 18.1323661,6.19072583 19.1974163,7.40576783 C19.4743627,7.70263638 19.7267316,8.02206169 19.951972,8.36081483 L19.951972,8.36081483 C20.7118974,9.46902573 21.1229013,10.7841188 21.1309651,12.1332505 L21.1309651,19.0573413 Z" id="Shape" fill="#FFBD02"></path>
                    <path d="M1.58944081,18.9139151 L28.9904877,18.9139151 C29.3624185,18.9158965 29.7210532,19.0557779 30,19.307664 L0.579928552,39.7826087 C0.232910106,39.490286 0.0232635165,39.0609919 0.00306440618,38.6013619 L0.00306440618,20.587348 C-0.0242830185,20.1441625 0.13237226,19.7097502 0.434450358,19.3910947 C0.736528457,19.0724393 1.15595646,18.8991543 1.58944081,18.9139151 Z" id="Path" fill="#FFE452"></path>
                    <path d="M28.4105592,18.9139151 L1.00951226,18.9139151 C0.637581525,18.9158965 0.278946789,19.0557779 0,19.307664 L29.4200714,39.7826087 C29.7832159,39.5037542 29.9969356,39.0661195 29.9969356,38.6013619 L29.9969356,20.587348 C30.024283,20.1441625 29.8676277,19.7097502 29.5655496,19.3910947 C29.2634715,19.0724393 28.8440435,18.8991543 28.4105592,18.9139151 Z" id="Path" fill="#FFD400" opacity="0.5"></path>
                </g>
            </g>
        </g>
    </g>
</svg>