<svg width="181" height="191" viewBox="0 0 181 191" fill="none" xmlns="http://www.w3.org/2000/svg">
<path d="M90.0379 189.737C93.0979 189.737 96.1079 188.887 98.7679 187.267L160.738 149.607C166.278 146.237 169.708 139.907 169.708 133.067V58.3574C169.708 51.5374 166.278 45.1974 160.738 41.8174L98.7679 4.15737C93.4379 0.917369 86.6179 0.937369 81.3179 4.15737L19.3479 41.8374C13.8079 45.2074 10.3579 51.5374 10.3579 58.3774V133.077C10.3579 138.837 12.8079 144.257 16.9079 147.827V147.857L81.3179 187.287C83.9579 188.887 86.9779 189.737 90.0379 189.737ZM90.6879 8.68737C92.6379 8.68737 95.1179 9.89737 96.8279 10.9474L157.588 48.1374C161.338 50.4174 163.458 57.0174 163.458 61.7674L162.828 133.067C162.828 137.817 159.628 142.087 155.878 144.367L95.4779 180.747C92.0479 182.837 89.2579 182.837 85.8179 180.747L24.6079 144.277C20.8579 141.997 17.8379 137.797 17.8379 133.067V59.4274C17.8379 54.6874 20.5679 49.7974 24.3379 47.5074L84.9179 10.9474C86.6179 9.90737 88.7379 8.68737 90.6879 8.68737Z" fill="#F2F1F0"/>
<path fill-rule="evenodd" clip-rule="evenodd" d="M97.9379 12.2671C95.4879 10.7671 92.7679 10.0171 90.0379 10.0171C87.3079 10.0171 84.5879 10.7771 82.1379 12.2671L26.0079 46.5971C20.9879 49.6671 17.8779 55.4171 17.8779 61.6671V129.767C17.8779 135.997 20.9779 141.767 26.0079 144.837L82.1379 179.167C84.5879 180.667 87.3079 181.417 90.0379 181.417C92.7679 181.417 95.4879 180.677 97.9379 179.167L154.068 144.837C159.088 141.767 162.198 135.997 162.198 129.767V61.6671C162.198 55.4371 159.098 49.6871 154.068 46.5971L97.9379 12.2671Z" fill="url(#paint0_linear)"/>
<path fill-rule="evenodd" clip-rule="evenodd" d="M90.0379 11.4873C91.7179 11.4873 93.6079 12.3573 95.6679 13.6073L154.138 49.1473C157.788 51.3673 160.198 55.6373 160.198 60.4673V130.947C160.198 135.767 157.788 140.047 154.138 142.267L95.6779 177.807C93.7179 178.997 91.7979 179.747 90.0479 179.747C88.2979 179.747 86.3779 178.997 84.4179 177.807L25.9379 142.277C23.9279 141.047 22.4779 139.847 21.4979 138.237C20.5179 136.637 19.8779 134.417 19.8779 130.957V60.4773C19.8779 55.6473 22.2879 51.3773 25.9379 49.1573L84.3979 13.6173C86.4879 12.3673 88.3479 11.4873 90.0379 11.4873ZM97.7479 181.237L156.208 145.697C161.128 142.707 164.188 137.087 164.188 130.957V60.4773C164.188 54.3473 161.128 48.7273 156.208 45.7373L97.7479 10.1973C95.6379 8.9173 92.9279 7.4873 90.0379 7.4873C87.1379 7.4873 84.4279 8.9273 82.3379 10.1873H82.3279L23.8579 45.7373C18.9379 48.7273 15.8779 54.3473 15.8779 60.4773V130.957C15.8779 134.917 16.6179 137.907 18.0779 140.317C19.5379 142.717 21.5979 144.317 23.8579 145.687L82.3179 181.227C84.5379 182.577 87.2079 183.757 90.0279 183.757C92.8479 183.757 95.5279 182.587 97.7479 181.237Z" fill="url(#paint1_linear)"/>
<path d="M90.0379 189.737C93.0979 189.737 96.1079 188.887 98.7679 187.267L160.738 149.607C166.278 146.237 169.708 139.907 169.708 133.067V58.3574C169.708 51.5374 166.278 45.1974 160.738 41.8174L98.7679 4.15737C93.4379 0.917369 86.6179 0.937369 81.3179 4.15737L19.3479 41.8374C13.8079 45.2074 10.3579 51.5374 10.3579 58.3774V133.077C10.3579 138.837 12.8079 144.257 16.9079 147.827V147.857L81.3179 187.287C83.9579 188.887 86.9779 189.737 90.0379 189.737ZM90.6879 8.68737C92.6379 8.68737 95.1179 9.89737 96.8279 10.9474L157.588 48.1374C161.338 50.4174 163.458 57.0174 163.458 61.7674L162.828 133.067C162.828 137.817 159.628 142.087 155.878 144.367L95.4779 180.747C92.0479 182.837 89.2579 182.837 85.8179 180.747L24.6079 144.277C20.8579 141.997 17.8379 137.797 17.8379 133.067V59.4274C17.8379 54.6874 20.5679 49.7974 24.3379 47.5074L84.9179 10.9474C86.6179 9.90737 88.7379 8.68737 90.6879 8.68737Z" fill="#F2F1F0"/>
<path fill-rule="evenodd" clip-rule="evenodd" d="M97.9379 12.2671C95.4879 10.7671 92.7679 10.0171 90.0379 10.0171C87.3079 10.0171 84.5879 10.7771 82.1379 12.2671L26.0079 46.5971C20.9879 49.6671 17.8779 55.4171 17.8779 61.6671V129.767C17.8779 135.997 20.9779 141.767 26.0079 144.837L82.1379 179.167C84.5879 180.667 87.3079 181.417 90.0379 181.417C92.7679 181.417 95.4879 180.677 97.9379 179.167L154.068 144.837C159.088 141.767 162.198 135.997 162.198 129.767V61.6671C162.198 55.4371 159.098 49.6871 154.068 46.5971L97.9379 12.2671Z" fill="url(#paint2_linear)"/>
<path fill-rule="evenodd" clip-rule="evenodd" d="M90.0379 11.4873C91.7179 11.4873 93.6079 12.3573 95.6679 13.6073L154.138 49.1473C157.788 51.3673 160.198 55.6373 160.198 60.4673V130.947C160.198 135.767 157.788 140.047 154.138 142.267L95.6779 177.807C93.7179 178.997 91.7979 179.747 90.0479 179.747C88.2979 179.747 86.3779 178.997 84.4179 177.807L25.9379 142.277C23.9279 141.047 22.4779 139.847 21.4979 138.237C20.5179 136.637 19.8779 134.417 19.8779 130.957V60.4773C19.8779 55.6473 22.2879 51.3773 25.9379 49.1573L84.3979 13.6173C86.4879 12.3673 88.3479 11.4873 90.0379 11.4873ZM97.7479 181.237L156.208 145.697C161.128 142.707 164.188 137.087 164.188 130.957V60.4773C164.188 54.3473 161.128 48.7273 156.208 45.7373L97.7479 10.1973C95.6379 8.9173 92.9279 7.4873 90.0379 7.4873C87.1379 7.4873 84.4279 8.9273 82.3379 10.1873H82.3279L23.8579 45.7373C18.9379 48.7273 15.8779 54.3473 15.8779 60.4773V130.957C15.8779 134.917 16.6179 137.907 18.0779 140.317C19.5379 142.717 21.5979 144.317 23.8579 145.687L82.3179 181.227C84.5379 182.577 87.2079 183.757 90.0279 183.757C92.8479 183.757 95.5279 182.587 97.7479 181.237Z" fill="#002D4C"/>
<path opacity="0.5" d="M42.1711 122.234C37.7269 122.239 33.447 120.558 30.1935 117.53C26.9399 114.503 24.9548 110.354 24.64 105.921C24.3253 101.488 25.7045 97.1005 28.4976 93.6436C31.2908 90.1868 35.2906 87.918 39.6909 87.2948C38.977 84.4583 38.6103 81.5457 38.5982 78.6207C38.6064 70.7791 41.2343 63.1657 46.0643 56.9881C50.8944 50.8105 57.6493 46.4229 65.2574 44.5234C72.8655 42.6238 80.8904 43.3207 88.0573 46.503C95.2242 49.6852 101.123 55.1708 104.816 62.0883C107.85 60.62 111.176 59.855 114.547 59.8504C120.38 59.8595 125.972 62.1797 130.098 66.3025C134.224 70.4254 136.549 76.0152 136.563 81.8481C136.548 83.6725 136.322 85.4883 135.887 87.2601C136.549 87.1883 137.214 87.1596 137.881 87.1737C140.182 87.1483 142.465 87.5809 144.598 88.4468C146.731 89.3127 148.67 90.5945 150.302 92.2172C151.935 93.8398 153.229 95.7711 154.107 97.8985C154.986 100.026 155.432 102.307 155.42 104.608C155.416 109.275 153.558 113.75 150.256 117.048C146.955 120.347 142.478 122.199 137.811 122.199L42.1711 122.234Z" fill="url(#paint3_linear)"/>
<path d="M42.1711 122.234C37.7269 122.239 33.447 120.558 30.1935 117.53C26.9399 114.503 24.9548 110.354 24.64 105.921C24.3253 101.488 25.7045 97.1005 28.4976 93.6436C31.2908 90.1868 35.2906 87.918 39.6909 87.2948C38.977 84.4583 38.6103 81.5457 38.5982 78.6207C38.6064 70.7791 41.2343 63.1657 46.0643 56.9881C50.8944 50.8105 57.6492 46.4229 65.2574 44.5234C72.8655 42.6238 80.8904 43.3207 88.0573 46.503C95.2242 49.6852 101.123 55.1708 104.816 62.0883C107.85 60.62 111.176 59.855 114.547 59.8504C120.38 59.8595 125.972 62.1797 130.098 66.3025C134.224 70.4254 136.549 76.0152 136.563 81.8481C136.548 83.6725 136.322 85.4883 135.887 87.2601C136.549 87.1883 137.214 87.1597 137.881 87.1737C140.182 87.1483 142.465 87.5809 144.598 88.4468C146.731 89.3127 148.67 90.5945 150.302 92.2172C151.935 93.8398 153.229 95.7711 154.107 97.8985C154.986 100.026 155.432 102.307 155.42 104.608C155.416 109.275 153.558 113.75 150.256 117.048C146.955 120.347 142.478 122.199 137.811 122.199L42.1711 122.234Z" stroke="white" stroke-width="1.6" stroke-miterlimit="10"/>
<path opacity="0.25" d="M38.8757 82.7852C38.713 84.121 38.6201 85.4641 38.5979 86.8096C38.5979 87.0351 38.5979 87.2609 38.5979 87.4864C38.9471 87.4046 39.2993 87.3403 39.6551 87.295C39.2953 85.8104 39.0358 84.3043 38.8757 82.7852Z" fill="url(#paint4_linear)"/>
<path opacity="0.15" d="M137.811 122.234H42.1708C38.2163 122.23 34.3787 120.894 31.2757 118.443C28.1727 115.991 25.9861 112.566 25.0666 108.72C24.7544 110.021 24.5635 107.627 24.5635 109.033C24.5681 113.701 26.4244 118.178 29.7256 121.479C33.0268 124.78 37.5022 126.636 42.1708 126.641H137.811C142.479 126.636 146.957 124.78 150.258 121.479C153.559 118.178 155.415 113.701 155.42 109.033C155.42 107.627 155.229 110.039 154.917 108.72C153.997 112.566 151.809 115.991 148.706 118.443C145.603 120.894 141.765 122.23 137.811 122.234Z" fill="#1F1D20"/>
<path opacity="0.25" d="M136.354 87.2603C136.354 86.7919 136.232 86.3417 136.145 85.8906C136.059 86.359 136.008 86.8267 135.886 87.2951C136.041 87.2663 136.197 87.2546 136.354 87.2603Z" fill="url(#paint5_linear)"/>
<g opacity="0.15">
<path opacity="0.15" d="M126.111 76.5347H112.643C111.824 76.5347 111.157 77.201 111.157 78.0202V86.2673C111.157 87.0865 111.824 87.7528 112.643 87.7528H126.122C126.941 87.7638 127.608 87.0974 127.608 86.2673V78.0312C127.608 77.1901 126.941 76.5347 126.111 76.5347Z" fill="#1F1D20"/>
<path opacity="0.15" d="M126.111 103.985H112.643C111.824 103.985 111.157 104.651 111.157 105.47V113.728C111.157 114.548 111.824 115.214 112.643 115.214H126.122C126.941 115.214 127.608 114.548 127.608 113.728V105.492C127.608 104.651 126.941 103.985 126.111 103.985Z" fill="#1F1D20"/>
<path opacity="0.15" d="M126.111 90.2324H112.643C111.824 90.2324 111.157 90.8987 111.157 91.718V99.965C111.157 100.784 111.824 101.451 112.643 101.451H126.122C126.941 101.462 127.608 100.795 127.608 99.965V91.718C127.608 90.8987 126.941 90.2324 126.111 90.2324Z" fill="#1F1D20"/>
<path opacity="0.15" d="M126.111 117.683H112.643C111.824 117.683 111.157 118.349 111.157 119.168V127.426C111.157 128.245 111.824 128.912 112.643 128.912H126.122C126.941 128.912 127.608 128.245 127.608 127.426V119.179C127.608 118.36 126.941 117.683 126.111 117.683Z" fill="#1F1D20"/>
</g>
<path fill-rule="evenodd" clip-rule="evenodd" d="M103.853 108.127H122.499V109.127H103.853V108.127Z" fill="white"/>
<path fill-rule="evenodd" clip-rule="evenodd" d="M103.853 94.582H122.499V95.582H103.853V94.582Z" fill="white"/>
<path fill-rule="evenodd" clip-rule="evenodd" d="M103.353 81.5156C103.353 81.2395 103.577 81.0156 103.853 81.0156H122.499V82.0156H104.353V121.661H122.499V122.661H103.853C103.577 122.661 103.353 122.437 103.353 122.161V81.5156Z" fill="white"/>
<path d="M126.111 75.5513H112.643C111.824 75.5513 111.157 76.2176 111.157 77.0368V85.2839C111.157 86.1031 111.824 86.7694 112.643 86.7694H126.122C126.941 86.7804 127.608 86.114 127.608 85.2839V77.0478C127.608 76.2176 126.941 75.5513 126.111 75.5513Z" fill="#84ECFD"/>
<path d="M126.111 103.001H112.643C111.824 103.001 111.157 103.668 111.157 104.487V112.745C111.157 113.564 111.824 114.231 112.643 114.231H126.122C126.941 114.231 127.608 113.564 127.608 112.745V104.509C127.608 103.668 126.941 103.001 126.111 103.001Z" fill="#45CAF2"/>
<path d="M126.111 89.2603H112.643C111.824 89.2603 111.157 89.9266 111.157 90.7458V98.9929C111.157 99.8121 111.824 100.478 112.643 100.478H126.122C126.941 100.489 127.608 99.823 127.608 98.9929V90.7458C127.608 89.9266 126.941 89.2603 126.111 89.2603Z" fill="#50E6FF"/>
<path d="M126.111 116.71H112.643C111.824 116.71 111.157 117.376 111.157 118.196V126.453C111.157 127.273 111.824 127.939 112.643 127.939H126.122C126.941 127.939 127.608 127.273 127.608 126.453V118.206C127.608 117.387 126.941 116.71 126.111 116.71Z" fill="#32B0E7"/>
<path fill-rule="evenodd" clip-rule="evenodd" d="M89.8823 101.737H103.908V102.737H89.8823V101.737Z" fill="white"/>
<path opacity="0.2" d="M97.9409 131.648C99.4496 131.648 100.679 130.419 100.679 128.91V79.105H46.832V128.891C46.832 130.4 48.0613 131.629 49.57 131.629L97.9409 131.648Z" fill="#1F1D21"/>
<path d="M100.679 78.2486V77.4104C100.679 76.3674 99.8408 75.5479 98.8163 75.5479H48.6946C47.6702 75.5479 46.832 76.386 46.832 77.4104V78.3417V79.1799V127.141C46.832 128.184 47.6702 129.004 48.6946 129.004H98.7977C99.8408 129.004 100.66 128.165 100.66 127.141V78.3417C100.698 78.3045 100.679 78.2858 100.679 78.2486Z" fill="white"/>
<path d="M56.6754 87.2847H54.7131V119.59H56.6754V87.2847Z" fill="#50E6FF"/>
<path d="M87.8692 119.589V117.627H54.7209V119.589H87.8692Z" fill="#50E6FF"/>
<path d="M62.4325 101.37L59.4485 104.354V107.305L63.892 102.862L62.4325 101.37Z" fill="#185A97"/>
<path d="M72.8118 108.805V96.9258L66.8762 102.861L72.8118 108.805Z" fill="#185A97"/>
<path d="M77.2958 101.369L74.3118 98.4178V107.313L84.699 96.9258L87.683 99.9098V90.9497L77.2958 101.369Z" fill="#185A97"/>
<path d="M74.3118 107.313V114.749H87.683V99.8773L84.699 96.9258L74.3118 107.313Z" fill="url(#paint6_linear)"/>
<path d="M72.8116 108.805L65.376 101.37L59.4404 107.305V114.741H72.8116V108.805Z" fill="url(#paint7_linear)"/>
<path d="M73.5579 95.9283C74.3688 95.9283 75.0499 95.2715 75.0499 94.4363C75.0499 93.6255 74.3931 92.9443 73.5579 92.9443C72.747 92.9443 72.0659 93.6011 72.0659 94.4363C72.0659 95.2472 72.7552 95.9283 73.5579 95.9283Z" fill="#185A97"/>
<path fill-rule="evenodd" clip-rule="evenodd" d="M95.2244 121.241C95.2244 121.915 94.6665 122.465 94.0005 122.465H82.9443C82.2783 122.465 81.7205 121.915 81.7205 121.241V112.024H95.2244V121.241Z" fill="#30404D"/>
<path fill-rule="evenodd" clip-rule="evenodd" d="M95.2244 112.024C95.2244 112.698 94.6665 113.248 94.0005 113.248H82.9443C82.2783 113.256 81.7205 112.698 81.7205 112.024V110.8C81.7205 110.126 82.2783 109.576 82.9443 109.576H94.0005C94.6749 109.576 95.2244 110.134 95.2244 110.8V112.024Z" fill="#546670"/>
<path fill-rule="evenodd" clip-rule="evenodd" d="M94.0005 113.564H89.0802C88.7471 113.564 88.4641 113.839 88.4641 114.18V121.24C88.4641 121.573 88.1893 121.856 87.848 121.856H82.9443C82.2783 121.856 81.7205 121.299 81.7205 120.624V121.24C81.7205 121.915 82.2783 122.464 82.9443 122.464H94.0005C94.6749 122.464 95.2244 121.906 95.2244 121.24V112.332C95.2244 113.006 94.6749 113.564 94.0005 113.564Z" fill="#182A37"/>
<path fill-rule="evenodd" clip-rule="evenodd" d="M88.4724 115.804C87.3818 115.804 86.4993 116.686 86.4993 117.777C86.4993 118.867 87.3818 119.75 88.4724 119.75C89.563 119.75 90.4372 118.859 90.4372 117.777C90.4455 116.686 89.563 115.804 88.4724 115.804Z" fill="#50E6FF"/>
<path fill-rule="evenodd" clip-rule="evenodd" d="M85.7084 111.416C85.7084 111.924 85.1589 112.34 84.4846 112.34C83.8102 112.34 83.2607 111.924 83.2607 111.416C83.2607 110.908 83.8102 110.492 84.4846 110.492C85.1589 110.492 85.7084 110.9 85.7084 111.416Z" fill="#182A37"/>
<path fill-rule="evenodd" clip-rule="evenodd" d="M93.6923 111.416C93.6923 111.924 93.1428 112.341 92.4685 112.341C91.7941 112.341 91.2446 111.933 91.2446 111.416C91.2446 110.909 91.7941 110.492 92.4685 110.492C93.1428 110.484 93.6923 110.9 93.6923 111.416Z" fill="#182A37"/>
<path fill-rule="evenodd" clip-rule="evenodd" d="M88.4723 102.816C85.7582 102.816 83.552 105.014 83.552 107.736V112.024C83.7768 112.215 84.1015 112.34 84.4761 112.34C84.8508 112.34 85.1671 112.215 85.4003 112.024V107.736C85.4003 106.046 86.7823 104.672 88.464 104.672C90.1541 104.672 91.5278 106.055 91.5278 107.736V111.416C91.5278 111.749 91.9357 112.032 92.4519 112.032C92.9598 112.032 93.376 111.757 93.376 111.416V107.736C93.3844 105.014 91.1781 102.816 88.4723 102.816Z" fill="#30404D"/>
<path fill-rule="evenodd" clip-rule="evenodd" d="M86.7074 104.889C85.5252 105.389 84.7842 106.587 84.7842 107.87V111.017C84.7842 111.416 84.4012 111.716 84.0099 111.608C83.8184 111.558 83.6519 111.491 83.5437 111.4V112.016C83.7685 112.207 84.0932 112.332 84.4678 112.332C84.5677 112.332 84.676 112.324 84.7759 112.299C84.8341 112.29 84.8924 112.274 84.959 112.257C84.984 112.249 85.0173 112.24 85.0423 112.224C85.0839 112.207 85.1255 112.191 85.1588 112.166C85.1755 112.157 85.2005 112.149 85.2171 112.132C85.2754 112.099 85.3253 112.057 85.3836 112.024V107.745C85.3836 106.155 86.5991 104.839 88.1477 104.689C87.7064 104.623 87.2152 104.681 86.7074 104.889Z" fill="#182A37"/>
<path fill-rule="evenodd" clip-rule="evenodd" d="M88.4723 102.816C88.3724 102.816 88.2642 102.824 88.1643 102.833C90.7369 102.999 92.7683 105.122 92.7683 107.728V111.008C92.7683 111.408 92.3853 111.708 91.994 111.599C91.8025 111.549 91.636 111.483 91.5278 111.391V112.007C91.7526 112.199 92.0856 112.324 92.4519 112.324C92.8182 112.324 93.1429 112.199 93.376 112.007V107.728C93.3844 105.014 91.1781 102.816 88.4723 102.816Z" fill="#182A37"/>
<defs>
<linearGradient id="paint0_linear" x1="90.0378" y1="10.0173" x2="90.0378" y2="181.417" gradientUnits="userSpaceOnUse">
<stop stop-color="#00ABDE"/>
<stop offset="1" stop-color="#007ED8"/>
</linearGradient>
<linearGradient id="paint1_linear" x1="36.1574" y1="4.8086" x2="202.835" y2="287.14" gradientUnits="userSpaceOnUse">
<stop stop-color="#007ED8"/>
<stop offset="0.7065" stop-color="#002D4C"/>
</linearGradient>
<linearGradient id="paint2_linear" x1="87.6329" y1="-11.4351" x2="92.7352" y2="215.903" gradientUnits="userSpaceOnUse">
<stop stop-color="#007ED8"/>
<stop offset="0.7065" stop-color="#002D4C"/>
</linearGradient>
<linearGradient id="paint3_linear" x1="87.1204" y1="-11.659" x2="90.5727" y2="128.445" gradientUnits="userSpaceOnUse">
<stop offset="0.57" stop-color="white" stop-opacity="0"/>
<stop offset="0.78" stop-color="white" stop-opacity="0.43"/>
<stop offset="0.9" stop-color="white" stop-opacity="0.5"/>
<stop offset="1" stop-color="white"/>
</linearGradient>
<linearGradient id="paint4_linear" x1="9148.69" y1="26270.2" x2="9189.82" y2="25894.8" gradientUnits="userSpaceOnUse">
<stop offset="0.57" stop-color="white" stop-opacity="0"/>
<stop offset="0.78" stop-color="white" stop-opacity="0.43"/>
<stop offset="0.9" stop-color="white" stop-opacity="0.5"/>
<stop offset="1" stop-color="white"/>
</linearGradient>
<linearGradient id="paint5_linear" x1="4191.47" y1="7911.03" x2="4199.82" y2="7798.15" gradientUnits="userSpaceOnUse">
<stop offset="0.57" stop-color="white" stop-opacity="0"/>
<stop offset="0.78" stop-color="white" stop-opacity="0.43"/>
<stop offset="0.9" stop-color="white" stop-opacity="0.5"/>
<stop offset="1" stop-color="white"/>
</linearGradient>
<linearGradient id="paint6_linear" x1="74.2984" y1="87.6109" x2="121.188" y2="225.522" gradientUnits="userSpaceOnUse">
<stop offset="0.3643" stop-color="#4DC1EA"/>
<stop offset="0.585" stop-color="#0078D4"/>
</linearGradient>
<linearGradient id="paint7_linear" x1="59.609" y1="92.6054" x2="106.499" y2="230.516" gradientUnits="userSpaceOnUse">
<stop offset="0.3643" stop-color="#4DC1EA"/>
<stop offset="0.585" stop-color="#0078D4"/>
</linearGradient>
</defs>
</svg>
