<svg width="103" height="103" viewBox="0 0 103 103" fill="none" xmlns="http://www.w3.org/2000/svg">
<path d="M51.6845 98.3583C25.8345 98.3583 4.87451 77.4083 4.87451 51.5483C4.87451 25.6883 25.8345 4.73828 51.6845 4.73828C77.5345 4.73828 98.4945 25.6983 98.4945 51.5483C98.4945 77.3983 77.5345 98.3583 51.6845 98.3583Z" fill="url(#paint0_linear)"/>
<path fill-rule="evenodd" clip-rule="evenodd" d="M97.5847 51.5482C97.5847 76.8982 77.0347 97.4482 51.6847 97.4482C26.3347 97.4482 5.78468 76.8982 5.78468 51.5482C5.78468 26.1982 26.3347 5.6482 51.6847 5.6482C77.0347 5.6482 97.5847 26.1982 97.5847 51.5482ZM51.6847 1.9082C79.1047 1.9082 101.325 24.1282 101.325 51.5482C101.325 78.9682 79.0947 101.188 51.6847 101.188C24.2647 101.188 2.04468 78.9582 2.04468 51.5482C2.04468 24.1282 24.2647 1.9082 51.6847 1.9082Z" fill="#F2F1F0"/>
<path d="M33.2847 55.1487H46.1047C50.0247 55.1487 53.2047 51.9687 53.2047 48.0487V37.4887C53.2047 33.5687 56.3847 30.3887 60.3047 30.3887H66.7447" stroke="#3940AB" stroke-width="2" stroke-miterlimit="10"/>
<path d="M65.3646 30.3887H30.9746" stroke="#3940AB" stroke-width="2" stroke-miterlimit="10"/>
<path d="M75.5444 36.9882C79.0072 36.9882 81.8144 34.1811 81.8144 30.7182C81.8144 27.2554 79.0072 24.4482 75.5444 24.4482C72.0816 24.4482 69.2744 27.2554 69.2744 30.7182C69.2744 34.1811 72.0816 36.9882 75.5444 36.9882Z" fill="url(#paint1_linear)"/>
<path d="M32.2947 60.4287C35.7575 60.4287 38.5647 57.6215 38.5647 54.1587C38.5647 50.6958 35.7575 47.8887 32.2947 47.8887C28.8318 47.8887 26.0247 50.6958 26.0247 54.1587C26.0247 57.6215 28.8318 60.4287 32.2947 60.4287Z" fill="url(#paint2_linear)"/>
<path d="M31.9646 36.9882C35.4274 36.9882 38.2346 34.1811 38.2346 30.7182C38.2346 27.2554 35.4274 24.4482 31.9646 24.4482C28.5018 24.4482 25.6946 27.2554 25.6946 30.7182C25.6946 34.1811 28.5018 36.9882 31.9646 36.9882Z" fill="url(#paint3_linear)"/>
<path d="M62.9446 27.0283L68.5846 30.2383L62.9446 33.4983V27.0283V27.0283Z" fill="#3940AB"/>
<path d="M69.1945 54.4385L49.1345 84.0985L52.3945 86.3085L72.4545 56.6485L69.1945 54.4385Z" fill="#50E6FF"/>
<path d="M69.0644 63.3383C72.0044 63.3383 74.3744 60.9583 74.3744 58.0283C74.3744 55.0883 71.9944 52.7183 69.0644 52.7183C66.1244 52.7183 63.7544 55.0983 63.7544 58.0283C63.7444 60.9583 66.1244 63.3383 69.0644 63.3383Z" fill="#1F1D21"/>
<path d="M51.0046 78.9785C55.3846 78.9785 58.9246 82.4685 59.0246 86.7985H64.0846C63.9446 79.6685 58.1346 73.9585 51.0046 73.9585C43.8746 73.9585 38.0746 79.6585 37.9246 86.7485H42.9846C43.0946 82.4185 46.6346 78.9785 51.0046 78.9785Z" fill="#1F1D21"/>
<path d="M69.1945 54.4385L49.1345 84.0985L52.3945 86.3085L72.4545 56.6485L69.1945 54.4385Z" fill="#3940AB"/>
<path d="M69.0644 63.3383C72.0044 63.3383 74.3744 60.9583 74.3744 58.0283C74.3744 55.0883 71.9944 52.7183 69.0644 52.7183C66.1244 52.7183 63.7544 55.0983 63.7544 58.0283C63.7444 60.9583 66.1244 63.3383 69.0644 63.3383Z" fill="url(#paint4_linear)"/>
<path d="M51.0046 78.9785C55.3846 78.9785 58.9246 82.4685 59.0246 86.7985H64.0846C63.9446 79.6685 58.1346 73.9585 51.0046 73.9585C43.8746 73.9585 38.0746 79.6585 37.9246 86.7485H42.9846C43.0946 82.4185 46.6346 78.9785 51.0046 78.9785Z" fill="#1B93EB"/>
<path d="M78.1345 88.8483V85.9883H25.3645V88.8483H78.1345Z" fill="#3940AB"/>
<path fill-rule="evenodd" clip-rule="evenodd" d="M51.6845 94.6383C27.8845 94.6383 8.59449 75.3483 8.59449 51.5483C8.59449 27.7483 27.8845 8.45826 51.6845 8.45826C75.4845 8.45826 94.7745 27.7483 94.7745 51.5483C94.7745 75.3483 75.4845 94.6383 51.6845 94.6383ZM98.5145 51.5483C98.5145 77.4083 77.5445 98.3783 51.6845 98.3783C25.8245 98.3783 4.85449 77.4083 4.85449 51.5483C4.85449 25.6883 25.8245 4.71826 51.6845 4.71826C77.5445 4.71826 98.5145 25.6783 98.5145 51.5483Z" fill="url(#paint5_linear)"/>
<path d="M51.0146 78.2383C46.6346 78.2383 43.0946 81.7283 42.9946 86.0583H45.1546C45.2946 82.9183 47.8546 80.3983 51.0046 80.3983C54.1446 80.3983 56.7646 82.8983 56.8646 86.0583H59.0246C58.8746 81.6883 55.3346 78.2383 51.0146 78.2383Z" fill="#3940AB"/>
<path d="M51.0146 80.4082C47.8746 80.4082 45.2546 82.9082 45.1646 86.0682H56.9246C56.7646 82.9182 54.1546 80.4082 51.0146 80.4082Z" fill="#0078D4"/>
<defs>
<linearGradient id="paint0_linear" x1="36.6271" y1="1.10928" x2="66.8634" y2="102.401" gradientUnits="userSpaceOnUse">
<stop stop-color="#C1C7FF"/>
<stop offset="1" stop-color="#9DA4FF"/>
</linearGradient>
<linearGradient id="paint1_linear" x1="61.3912" y1="1.99434" x2="86.6417" y2="53.238" gradientUnits="userSpaceOnUse">
<stop stop-color="#007ED8"/>
<stop offset="0.7065" stop-color="#002D4C"/>
</linearGradient>
<linearGradient id="paint2_linear" x1="17.4676" y1="24.0688" x2="42.7181" y2="75.3125" gradientUnits="userSpaceOnUse">
<stop stop-color="#007ED8"/>
<stop offset="0.7065" stop-color="#002D4C"/>
</linearGradient>
<linearGradient id="paint3_linear" x1="26.4936" y1="19.6207" x2="51.7441" y2="70.8643" gradientUnits="userSpaceOnUse">
<stop stop-color="#007ED8"/>
<stop offset="0.7065" stop-color="#002D4C"/>
</linearGradient>
<linearGradient id="paint4_linear" x1="64.5678" y1="51.5928" x2="72.9126" y2="63.5291" gradientUnits="userSpaceOnUse">
<stop stop-color="#007ED8"/>
<stop offset="0.7065" stop-color="#002D4C"/>
</linearGradient>
<linearGradient id="paint5_linear" x1="51.6846" y1="4.71816" x2="51.6846" y2="98.3783" gradientUnits="userSpaceOnUse">
<stop stop-color="#5A62C3"/>
<stop offset="0.5" stop-color="#4D55BD"/>
<stop offset="1" stop-color="#3940AB"/>
</linearGradient>
</defs>
</svg>
