<svg width="100" height="100" viewBox="0 0 100 100" fill="none" xmlns="https://www.w3.org/2000/svg">
<g clip-path="url(#clip0)">
<path d="M49.6401 96.4501C40.382 96.4501 31.3317 93.7047 23.6339 88.5612C15.936 83.4176 9.93624 76.1069 6.3933 67.5535C2.85036 59.0001 1.92337 49.5882 3.72954 40.5079C5.53571 31.4277 9.99394 23.0869 16.5404 16.5404C23.0869 9.99393 31.4277 5.53571 40.5079 3.72954C49.5882 1.92337 59.0001 2.85036 67.5535 6.3933C76.1069 9.93624 83.4176 15.936 88.5612 23.6339C93.7047 31.3317 96.4501 40.382 96.4501 49.6401C96.4505 55.7874 95.24 61.8746 92.8878 67.554C90.5355 73.2335 87.0875 78.3939 82.7407 82.7407C78.3939 87.0875 73.2335 90.5355 67.554 92.8878C61.8746 95.24 55.7874 96.4505 49.6401 96.4501V96.4501Z" fill="url(#paint0_linear)"/>
<path fill-rule="evenodd" clip-rule="evenodd" d="M95.54 49.64C95.54 58.7182 92.848 67.5925 87.8045 75.1407C82.7609 82.6889 75.5923 88.572 67.2052 92.0461C58.818 95.5201 49.5891 96.4291 40.6854 94.658C31.7816 92.887 23.603 88.5154 17.1838 82.0962C10.7646 75.677 6.39302 67.4984 4.62196 58.5946C2.85089 49.6909 3.75987 40.462 7.23393 32.0748C10.708 23.6877 16.5911 16.5191 24.1393 11.4755C31.6875 6.43199 40.5618 3.74 49.64 3.74C55.6677 3.73998 61.6363 4.9272 67.2052 7.23388C72.774 9.54057 77.834 12.9215 82.0963 17.1837C86.3585 21.446 89.7394 26.5059 92.0461 32.0748C94.3528 37.6437 95.54 43.6123 95.54 49.64V49.64ZM49.64 3.62732e-07C59.4579 3.62732e-07 69.0553 2.91134 77.2185 8.36585C85.3818 13.8204 91.7442 21.5731 95.5014 30.6436C99.2585 39.7141 100.242 49.6951 98.3262 59.3243C96.4108 68.9535 91.6831 77.7985 84.7408 84.7408C77.7985 91.6831 68.9535 96.4108 59.3243 98.3262C49.6951 100.242 39.7141 99.2585 30.6436 95.5014C21.5731 91.7442 13.8204 85.3818 8.36585 77.2185C2.91134 69.0553 3.62732e-07 59.4579 3.62732e-07 49.64C-0.000787738 43.121 1.28265 36.6656 3.77702 30.6427C6.27138 24.6197 9.9278 19.1471 14.5375 14.5375C19.1471 9.9278 24.6197 6.27138 30.6427 3.77702C36.6656 1.28265 43.121 -0.000787738 49.64 3.62732e-07V3.62732e-07Z" fill="#F2F1F0"/>
<path fill-rule="evenodd" clip-rule="evenodd" d="M92.7296 49.6406C92.7296 58.163 90.2024 66.494 85.4676 73.5801C80.7328 80.6662 74.0031 86.1892 66.1294 89.4505C58.2557 92.7119 49.5918 93.5653 41.2331 91.9026C32.8745 90.24 25.1966 86.1361 19.1703 80.1098C13.1441 74.0836 9.04017 66.4057 7.37753 58.047C5.7149 49.6884 6.56822 41.0244 9.8296 33.1507C13.091 25.2771 18.6139 18.5473 25.7 13.8126C32.7862 9.07776 41.1172 6.55058 49.6396 6.55058C55.2983 6.55023 60.9017 7.66455 66.1298 9.82991C71.3579 11.9953 76.1082 15.1692 80.1096 19.1706C84.1109 23.1719 87.2849 27.9223 89.4502 33.1503C91.6156 38.3784 92.7299 43.9818 92.7296 49.6406V49.6406ZM49.6396 2.81058C58.9017 2.81058 67.9558 5.55711 75.6569 10.7029C83.3581 15.8486 89.3604 23.1624 92.9049 31.7195C96.4493 40.2766 97.3767 49.6925 95.5697 58.7767C93.7628 67.8608 89.3027 76.2051 82.7534 82.7544C76.2041 89.3037 67.8598 93.7638 58.7757 95.5708C49.6915 97.3777 40.2756 96.4503 31.7185 92.9059C23.1614 89.3614 15.8476 83.3591 10.7018 75.6579C5.5561 67.9568 2.80957 58.9027 2.80957 49.6406C2.81076 37.2209 7.745 25.3101 16.5271 16.5281C25.3091 7.74599 37.2198 2.81174 49.6396 2.81055V2.81058Z" fill="#0078D4"/>
<path opacity="0.2" d="M24.3873 78.4293H74.9007C75.1661 78.4285 75.4204 78.3227 75.6081 78.1351C75.7957 77.9474 75.9015 77.6931 75.9023 77.4277V37.9902H23.3857V77.4277C23.3865 77.6931 23.4923 77.9474 23.68 78.1351C23.8676 78.3227 24.1219 78.4285 24.3873 78.4293Z" fill="#003067"/>
<path d="M24.3873 76.3668H74.9007C75.1661 76.366 75.4204 76.2602 75.6081 76.0726C75.7957 75.8849 75.9015 75.6306 75.9023 75.3652V35.9277H23.3857V75.3652C23.3865 75.6306 23.4923 75.8849 23.68 76.0726C23.8676 76.2602 24.1219 76.366 24.3873 76.3668Z" fill="#F2F2F2"/>
<path d="M23.3857 40.2937H75.9023V35.5862C75.9025 35.4853 75.8829 35.3854 75.8444 35.2921C75.8059 35.1988 75.7493 35.114 75.678 35.0427C75.6066 34.9713 75.5219 34.9148 75.4286 34.8763C75.3353 34.8378 75.2353 34.8181 75.1344 34.8184H24.1536C24.0527 34.8181 23.9527 34.8378 23.8595 34.8763C23.7662 34.9148 23.6814 34.9713 23.6101 35.0427C23.5387 35.114 23.4822 35.1988 23.4437 35.2921C23.4052 35.3854 23.3855 35.4853 23.3857 35.5862V40.2937Z" fill="#092E4C"/>
<path d="M27.4258 38.9985C27.6891 38.9977 27.9463 38.9188 28.1647 38.7718C28.3832 38.6249 28.5532 38.4164 28.6532 38.1728C28.7532 37.9293 28.7787 37.6615 28.7265 37.4034C28.6744 37.1453 28.5468 36.9085 28.3601 36.7229C28.1733 36.5373 27.9357 36.4113 27.6773 36.3607C27.4189 36.3102 27.1513 36.3374 26.9083 36.4389C26.6654 36.5404 26.458 36.7117 26.3124 36.9311C26.1668 37.1505 26.0895 37.4081 26.0904 37.6714C26.0889 37.8468 26.1226 38.0207 26.1893 38.1829C26.256 38.3451 26.3544 38.4923 26.4788 38.616C26.6033 38.7396 26.7511 38.8371 26.9137 38.9028C27.0763 38.9685 27.2504 39.001 27.4258 38.9985V38.9985Z" fill="#50E6FF"/>
<path d="M71.2473 43.6816H28.031C27.4616 43.6816 27 44.1432 27 44.7127V71.5778C27 72.1472 27.4616 72.6088 28.031 72.6088H71.2473C71.8167 72.6088 72.2783 72.1472 72.2783 71.5778V44.7127C72.2783 44.1432 71.8167 43.6816 71.2473 43.6816Z" fill="#E8E8E8"/>
<path d="M36.7129 61.6203L49.6758 46.3203L62.8445 61.6237L49.6781 70.1013L36.7129 61.6203Z" fill="white"/>
<path d="M41.0665 59.8849L49.6884 65.4809L58.4637 59.8633L59.5629 61.1478L49.6884 67.5053L39.9673 61.1478L41.0665 59.8849Z" fill="#50E6FF"/>
<path d="M41.7202 59.1637L49.6885 49.6699L57.8216 59.175L49.6885 64.3129L41.7202 59.1637Z" fill="white"/>
<path d="M49.6885 49.6699V64.3129L41.7202 59.1637L49.6885 49.6699Z" fill="#50E6FF"/>
<path d="M49.6885 49.6699V64.3129L57.8216 59.175L49.6885 49.6699Z" fill="url(#paint1_linear)"/>
<path d="M49.6885 57.2383L57.8216 59.1764L49.6885 64.3142V57.2383Z" fill="#53B1E0"/>
<path d="M49.6885 64.3142L41.7202 59.165L49.6885 57.2383V64.3142Z" fill="#9CEBFF"/>
<path d="M49.6885 67.5053L59.563 61.1478L58.4638 59.8633L49.6885 65.4809V67.5053Z" fill="url(#paint2_linear)"/>
<path opacity="0.2" d="M36.6113 34.8184C39.615 40.6533 45.7421 44.8575 48.0319 46.2777C48.5147 46.5769 49.0715 46.7353 49.6394 46.7351C50.2074 46.7349 50.764 46.5761 51.2466 46.2766C51.5364 46.0968 51.9582 45.8276 52.471 45.479C52.7053 45.3192 52.9628 45.1405 53.2436 44.9401C53.2436 44.9401 53.8941 44.465 54.0962 44.3129C54.0962 44.3129 54.8455 43.7346 55.0475 43.5725L55.4482 43.2467C55.648 43.0824 55.849 42.9142 56.1376 42.6673L56.4739 42.3748C56.6871 42.1883 56.899 41.9946 57.12 41.7903C57.2587 41.6638 57.3953 41.5383 57.5285 41.4112C57.7616 41.1898 57.9925 40.9589 58.23 40.7191L58.5808 40.3666C58.9194 40.0142 59.2535 39.6512 59.6143 39.2372C59.9551 38.8459 60.2836 38.4407 60.6089 38.0178L60.8942 37.6276C61.1129 37.3317 61.326 37.0337 61.5303 36.7279C61.6168 36.598 61.8544 36.2156 61.8544 36.2156C62.0365 35.9264 62.2118 35.6345 62.3773 35.3353C62.4747 35.1607 62.5648 34.9866 62.6513 34.8184L36.6113 34.8184Z" fill="#003067"/>
<path d="M34.11 53.204C36.0611 53.204 37.6427 51.6224 37.6427 49.6713C37.6427 47.7203 36.0611 46.1387 34.11 46.1387C32.159 46.1387 30.5774 47.7203 30.5774 49.6713C30.5774 51.6224 32.159 53.204 34.11 53.204Z" fill="white"/>
<path d="M34.1099 50.0934C34.7565 50.0934 35.2806 49.5692 35.2806 48.9227C35.2806 48.2761 34.7565 47.752 34.1099 47.752C33.4634 47.752 32.9392 48.2761 32.9392 48.9227C32.9392 49.5692 33.4634 50.0934 34.1099 50.0934Z" fill="#0078D4"/>
<path d="M35.6983 51.8021C35.7957 51.7261 35.86 51.6154 35.8778 51.4931C35.8955 51.3708 35.8654 51.2464 35.7937 51.1458C35.6038 50.8757 35.3516 50.6553 35.0586 50.5031C34.7656 50.3509 34.4403 50.2715 34.1101 50.2715C33.7799 50.2715 33.4546 50.3509 33.1615 50.5031C32.8685 50.6553 32.6164 50.8757 32.4265 51.1458C32.3548 51.2464 32.3246 51.3708 32.3424 51.4931C32.3601 51.6154 32.4244 51.7261 32.5218 51.8021C32.9806 52.1445 33.5377 52.3295 34.1101 52.3295C34.6825 52.3295 35.2396 52.1445 35.6983 51.8021V51.8021Z" fill="#0078D4"/>
<path d="M66.184 53.204C68.1351 53.204 69.7167 51.6224 69.7167 49.6713C69.7167 47.7203 68.1351 46.1387 66.184 46.1387C64.233 46.1387 62.6514 47.7203 62.6514 49.6713C62.6514 51.6224 64.233 53.204 66.184 53.204Z" fill="white"/>
<path d="M66.1839 50.4006C66.1138 50.4005 66.0467 50.3726 65.9971 50.3231C65.9476 50.2736 65.9197 50.2064 65.9197 50.1364V47.606C65.9197 47.5359 65.9475 47.4687 65.9971 47.4192C66.0466 47.3696 66.1138 47.3418 66.1839 47.3418C66.2539 47.3418 66.3211 47.3696 66.3707 47.4192C66.4202 47.4687 66.4481 47.5359 66.4481 47.606V50.1364C66.448 50.2064 66.4201 50.2736 66.3706 50.3231C66.3211 50.3726 66.2539 50.4005 66.1839 50.4006Z" fill="#0078D4"/>
<path d="M66.1842 51.7356C66.3776 51.7356 66.5344 51.5788 66.5344 51.3854C66.5344 51.1919 66.3776 51.0352 66.1842 51.0352C65.9908 51.0352 65.834 51.1919 65.834 51.3854C65.834 51.5788 65.9908 51.7356 66.1842 51.7356Z" fill="#0078D4"/>
<path d="M62.104 28.2189C62.104 36.4117 52.2033 43.0065 50.0484 44.3438C49.9254 44.4201 49.7836 44.4605 49.6388 44.4605C49.494 44.4605 49.3522 44.4201 49.2292 44.3438C47.0743 43.0065 37.1736 36.4117 37.1736 28.2189V18.3706C37.174 18.1662 37.2542 17.9701 37.3971 17.824C37.54 17.6779 37.7344 17.5934 37.9387 17.5886C45.6406 17.3854 43.8666 14 49.6388 14C55.4109 14 53.637 17.3854 61.3388 17.5886C61.5432 17.5934 61.7375 17.6779 61.8804 17.824C62.0234 17.9701 62.1036 18.1662 62.104 18.3706L62.104 28.2189Z" fill="#50E6FF"/>
<path d="M61.0716 28.3115C61.0716 35.8238 51.9901 41.8719 50.0147 43.0991C49.9021 43.1697 49.7719 43.2071 49.639 43.2071C49.506 43.2071 49.3758 43.1697 49.2632 43.0991C47.2878 41.8719 38.2063 35.8204 38.2063 28.3115V19.2723C38.2071 19.085 38.281 18.9054 38.4122 18.7717C38.5433 18.638 38.7215 18.5607 38.9088 18.5563C45.9725 18.365 44.3458 15.2656 49.639 15.2656C54.9321 15.2656 53.3054 18.365 60.3691 18.5563C60.5564 18.5607 60.7346 18.638 60.8658 18.7717C60.9969 18.9054 61.0708 19.085 61.0716 19.2723V28.3115Z" fill="url(#paint3_linear)"/>
<path d="M51.0844 29.7723C52.282 29.7723 53.2528 28.8015 53.2528 27.6039C53.2528 26.4064 52.282 25.4355 51.0844 25.4355C49.8868 25.4355 48.916 26.4064 48.916 27.6039C48.916 28.8015 49.8868 29.7723 51.0844 29.7723Z" fill="white"/>
<path d="M47.9698 34.3542C48.7785 34.3542 49.434 33.6986 49.434 32.89C49.434 32.0813 48.7785 31.4258 47.9698 31.4258C47.1612 31.4258 46.5056 32.0813 46.5056 32.89C46.5056 33.6986 47.1612 34.3542 47.9698 34.3542Z" fill="white"/>
<path d="M46.9135 23.5545C47.9166 23.5545 48.7297 22.7413 48.7297 21.7382C48.7297 20.7351 47.9166 19.9219 46.9135 19.9219C45.9103 19.9219 45.0972 20.7351 45.0972 21.7382C45.0972 22.7413 45.9103 23.5545 46.9135 23.5545Z" fill="white"/>
<path d="M55.1136 33.7134L51.4478 27.2956L51.084 27.5059L51.3819 27.2854L47.2318 21.3848L46.4736 21.9372L50.1497 27.1638L42.0029 27.8355L42.0814 28.7824L50.1497 28.1118L47.4739 32.5585L48.2775 33.0428L51.0306 28.4641L54.2986 34.1772L55.1136 33.7134Z" fill="#E6E6E6"/>
<path d="M51.0845 25.4593C51.5197 25.4593 51.9451 25.5884 52.307 25.8302C52.6689 26.072 52.9509 26.4156 53.1175 26.8177C53.284 27.2198 53.3276 27.6623 53.2427 28.0891C53.1578 28.516 52.9482 28.9081 52.6405 29.2159C52.3327 29.5236 51.9406 29.7332 51.5138 29.8181C51.0869 29.903 50.6444 29.8594 50.2423 29.6929C49.8402 29.5263 49.4966 29.2443 49.2548 28.8824C49.013 28.5205 48.8839 28.0951 48.8839 27.6598V27.6057C48.898 27.0315 49.1361 26.4856 49.5473 26.0846C49.9584 25.6835 50.5101 25.4591 51.0845 25.4593V25.4593ZM45.1413 21.7353C45.1376 22.0969 45.2412 22.4514 45.439 22.7541C45.6368 23.0567 45.92 23.2939 46.2526 23.4357C46.5852 23.5775 46.9524 23.6174 47.3077 23.5505C47.6631 23.4835 47.9906 23.3128 48.2488 23.0597C48.5071 22.8066 48.6845 22.4827 48.7586 22.1288C48.8328 21.7749 48.8003 21.407 48.6654 21.0715C48.5304 20.7361 48.299 20.4482 48.0004 20.2443C47.7018 20.0403 47.3495 19.9295 46.9879 19.9259L46.9779 19.9258H46.9305C46.4538 19.932 45.9988 20.1258 45.6639 20.4651C45.329 20.8044 45.1413 21.262 45.1413 21.7387L45.1413 21.7353ZM40.5845 28.4216C40.5845 28.7112 40.6703 28.9943 40.8312 29.235C40.9921 29.4758 41.2208 29.6635 41.4884 29.7743C41.7559 29.8851 42.0503 29.9141 42.3343 29.8576C42.6184 29.8011 42.8793 29.6617 43.084 29.4569C43.2888 29.2521 43.4283 28.9913 43.4848 28.7072C43.5413 28.4232 43.5123 28.1288 43.4014 27.8612C43.2906 27.5937 43.1029 27.365 42.8622 27.2041C42.6214 27.0432 42.3383 26.9574 42.0487 26.9574H42.047C41.659 26.9578 41.287 27.1123 41.0127 27.3868C40.7385 27.6614 40.5845 28.0335 40.5845 28.4216ZM46.509 32.8786C46.5066 33.1705 46.5909 33.4566 46.7512 33.7006C46.9114 33.9446 47.1404 34.1356 47.4092 34.2495C47.678 34.3634 47.9746 34.395 48.2613 34.3403C48.5481 34.2857 48.8122 34.1472 49.0203 33.9424C49.2284 33.7377 49.3711 33.4758 49.4303 33.1899C49.4896 32.9041 49.4627 32.6071 49.3531 32.3365C49.2436 32.0659 49.0563 31.8338 48.8148 31.6697C48.5734 31.5056 48.2887 31.4167 47.9968 31.4144H47.9952H47.9799C47.5917 31.4121 47.2185 31.5639 46.9421 31.8365C46.6657 32.1091 46.5087 32.4802 46.5056 32.8684L46.509 32.8786ZM53.026 34.0635C53.0233 34.4009 53.1207 34.7316 53.306 35.0137C53.4913 35.2958 53.756 35.5166 54.0667 35.6482C54.3775 35.7798 54.7203 35.8163 55.0518 35.7531C55.3833 35.6898 55.6886 35.5298 55.9291 35.293C56.1696 35.0563 56.3345 34.7536 56.403 34.4231C56.4714 34.0927 56.4404 33.7493 56.3137 33.4365C56.187 33.1237 55.9704 32.8555 55.6913 32.6658C55.4122 32.4761 55.0831 32.3734 54.7457 32.3708H54.7424H54.7322C54.2868 32.364 53.8569 32.5341 53.5368 32.8438C53.2166 33.1535 53.0323 33.5775 53.0243 34.0229L53.026 34.0635Z" fill="white"/>
</g>
<defs>
<linearGradient id="paint0_linear" x1="47.8697" y1="-15.153" x2="51.8525" y2="130.615" gradientUnits="userSpaceOnUse">
<stop stop-color="#00ABDE"/>
<stop offset="1" stop-color="#007ED8"/>
</linearGradient>
<linearGradient id="paint1_linear" x1="54.3973" y1="62.9603" x2="49.3567" y2="53.4126" gradientUnits="userSpaceOnUse">
<stop stop-color="#1988D9"/>
<stop offset="0.9" stop-color="#54AEF0"/>
</linearGradient>
<linearGradient id="paint2_linear" x1="52.2272" y1="60.1888" x2="55.7109" y2="66.1983" gradientUnits="userSpaceOnUse">
<stop offset="0.1" stop-color="#54AEF0"/>
<stop offset="0.29" stop-color="#4FABEE"/>
<stop offset="0.51" stop-color="#41A2E9"/>
<stop offset="0.74" stop-color="#2A93E0"/>
<stop offset="0.88" stop-color="#1988D9"/>
</linearGradient>
<linearGradient id="paint3_linear" x1="49.639" y1="43.2071" x2="49.639" y2="15.2656" gradientUnits="userSpaceOnUse">
<stop stop-color="#50E6FF"/>
<stop offset="1" stop-color="#9CEBFF"/>
</linearGradient>
<clipPath id="clip0">
<rect width="99.2799" height="99.28" fill="white"/>
</clipPath>
</defs>
</svg>
