<svg width="199" height="199" viewBox="0 0 199 199" fill="none" xmlns="http://www.w3.org/2000/svg">
<path d="M99.2802 192.9C47.5802 192.9 5.66016 151 5.66016 99.2799C5.66016 47.5599 47.5802 5.65991 99.2802 5.65991C150.98 5.65991 192.9 47.5799 192.9 99.2799C192.9 150.98 150.98 192.9 99.2802 192.9Z" fill="url(#paint0_linear)"/>
<path fill-rule="evenodd" clip-rule="evenodd" d="M191.08 99.28C191.08 149.98 149.98 191.08 99.28 191.08C48.58 191.08 7.48 149.98 7.48 99.28C7.48 48.58 48.58 7.48 99.28 7.48C149.98 7.48 191.08 48.58 191.08 99.28ZM99.28 0C154.12 0 198.56 44.44 198.56 99.28C198.56 154.12 154.1 198.56 99.28 198.56C44.44 198.56 0 154.1 0 99.28C0 44.44 44.44 0 99.28 0Z" fill="#F2F1F0"/>
<path fill-rule="evenodd" clip-rule="evenodd" d="M185.46 99.2801C185.46 146.88 146.88 185.46 99.2801 185.46C51.6801 185.46 13.1001 146.88 13.1001 99.2801C13.1001 51.6801 51.6801 13.1001 99.2801 13.1001C146.88 13.1001 185.46 51.6801 185.46 99.2801ZM99.2801 5.62012C151 5.62012 192.94 47.5601 192.94 99.2801C192.94 151 151 192.94 99.2801 192.94C47.5601 192.94 5.62012 151 5.62012 99.2801C5.62012 47.5601 47.5401 5.62012 99.2801 5.62012Z" fill="#0078D4"/>
<path d="M117.5 147.18H81.4399V39.32C81.4399 35.44 84.5999 32.28 88.4799 32.28H117.5C121.38 32.28 124.54 35.44 124.54 39.32V140.14C124.52 144.02 121.38 147.18 117.5 147.18Z" fill="url(#paint1_linear)"/>
<path d="M94.1402 147.18H57.1802V67.7401C57.1802 64.3601 59.9202 61.6201 63.3002 61.6201H94.1202C97.5002 61.6201 100.24 64.3601 100.24 67.7401V141.02C100.28 144.44 97.5202 147.18 94.1402 147.18Z" fill="url(#paint2_linear)"/>
<path d="M69.1601 147.18H42.0401C37.6201 147.18 34.0601 143.6 34.0601 139.2V97.76C34.0601 93.34 37.6401 89.78 42.0401 89.78H69.1601C73.5801 89.78 77.1401 93.36 77.1401 97.76V139.2C77.1401 143.6 73.5601 147.18 69.1601 147.18Z" fill="url(#paint3_linear)"/>
<path d="M111.531 69.1053L93.4917 97.5481L114.79 111.056L132.829 82.6132L111.531 69.1053Z" fill="white"/>
<path d="M115.7 116.4L113.94 119.16C113.48 119.88 112.54 120.08 111.82 119.64L86.3 103.46C85.58 103 85.36 102.06 85.82 101.34L87.58 98.5799C88.04 97.8599 88.98 97.6599 89.7 98.0999L115.22 114.28C115.94 114.72 116.16 115.68 115.7 116.4Z" fill="white"/>
<path d="M140.5 79L138.74 81.76C138.28 82.48 137.34 82.68 136.62 82.24L111.1 66.06C110.38 65.6 110.16 64.66 110.62 63.94L112.38 61.18C112.84 60.46 113.78 60.26 114.5 60.7L140.02 76.88C140.74 77.32 140.96 78.28 140.5 79Z" fill="white"/>
<path d="M174.62 127.12C173.36 129.24 170.58 129.88 168.52 128.54L112.52 92.3601L114.9 87.9001L173.04 121.08C175.16 122.32 175.86 125.02 174.62 127.12Z" fill="white"/>
<path d="M123.7 141.78H63.1599C61.3799 141.78 59.9399 143.22 59.9399 145V151.72H126.9V145C126.9 143.22 125.46 141.78 123.7 141.78Z" fill="white"/>
<path d="M119.7 139.34H67.1602V137.96C67.1602 136.7 68.1802 135.7 69.4202 135.7H117.44C118.7 135.7 119.7 136.72 119.7 137.96V139.34Z" fill="white"/>
<defs>
<linearGradient id="paint0_linear" x1="95.7404" y1="-30.3001" x2="103.704" y2="261.24" gradientUnits="userSpaceOnUse">
<stop stop-color="#00ABDE"/>
<stop offset="1" stop-color="#007ED8"/>
</linearGradient>
<linearGradient id="paint1_linear" x1="102.498" y1="42.7988" x2="103.415" y2="138.126" gradientUnits="userSpaceOnUse">
<stop offset="0.00753769" stop-color="#E0A310"/>
<stop offset="1" stop-color="#CA810E"/>
</linearGradient>
<linearGradient id="paint2_linear" x1="77.566" y1="64.9537" x2="80.3156" y2="165.78" gradientUnits="userSpaceOnUse">
<stop offset="0.00753769" stop-color="#F2CC40"/>
<stop offset="1" stop-color="#E7B116"/>
</linearGradient>
<linearGradient id="paint3_linear" x1="54.5781" y1="94.1858" x2="57.3281" y2="159.265" gradientUnits="userSpaceOnUse">
<stop stop-color="#F8E17B"/>
<stop offset="0.5302" stop-color="#F6D856"/>
<stop offset="1" stop-color="#F6D856"/>
</linearGradient>
</defs>
</svg>
