<svg width="160" height="189" viewBox="0 0 160 189" fill="none" xmlns="http://www.w3.org/2000/svg">
<g clip-path="url(#clip0_972_604)">
<path d="M80.0334 188.986C83.1147 188.981 86.1351 188.127 88.7638 186.52L150.739 148.86C153.52 147.096 155.804 144.651 157.375 141.757C158.945 138.862 159.749 135.615 159.711 132.322V57.607C159.747 54.3146 158.942 51.0675 157.372 48.1734C155.802 45.2793 153.519 42.834 150.739 41.0692L88.7638 3.40913C86.1303 1.82393 83.1147 0.986328 80.041 0.986328C76.9672 0.986328 73.9516 1.82393 71.3182 3.40913L9.34307 41.0843C6.55997 42.8467 4.27342 45.2911 2.70046 48.1855C1.12749 51.0798 0.32029 54.3282 0.355473 57.6222V132.322C0.33694 135.105 0.911657 137.861 2.04135 140.404C3.17104 142.948 4.82977 145.222 6.90707 147.075V147.101L71.3182 186.535C73.9438 188.135 76.9586 188.983 80.0334 188.986V188.986ZM80.6812 7.93851C82.6331 7.93851 85.1103 9.15143 86.8201 10.1954L147.577 47.3897C151.329 49.6745 153.445 56.2706 153.445 61.0216L152.813 132.322C152.813 137.073 149.614 141.341 145.861 143.626L85.4659 180.007C82.0313 182.095 79.2409 182.095 75.8062 180.007L14.5982 143.535C10.8458 141.251 7.82738 137.058 7.82738 132.322V58.6743C7.85989 56.3092 8.46888 53.9876 9.60155 51.9111C10.7342 49.8345 12.3563 48.0656 14.3273 46.7577L74.9035 10.1954C76.6132 9.15143 78.7294 7.93851 80.6812 7.93851Z" fill="#F2F1F0"/>
<path fill-rule="evenodd" clip-rule="evenodd" d="M87.9319 11.5191C85.561 10.0456 82.8252 9.26471 80.0337 9.26471C77.2422 9.26471 74.5064 10.0456 72.1355 11.5191L16.0008 45.8505C13.4748 47.4622 11.4025 49.6926 9.98047 52.33C8.55847 54.9675 7.83398 57.9246 7.87573 60.9207V129.024C7.83581 132.02 8.56109 134.976 9.98292 137.613C11.4048 140.25 13.4761 142.481 16.0008 144.094L72.1355 178.425C74.5063 179.899 77.2422 180.68 80.0337 180.68C82.8253 180.68 85.5612 179.899 87.9319 178.425L144.066 144.094C146.591 142.481 148.663 140.25 150.085 137.613C151.507 134.976 152.232 132.02 152.192 129.024V60.9207C152.23 57.9251 151.504 54.9693 150.082 52.3324C148.66 49.6956 146.59 47.4647 144.066 45.8505L87.9319 11.5191Z" fill="url(#paint0_linear_972_604)"/>
<path fill-rule="evenodd" clip-rule="evenodd" d="M80.0338 10.7407C81.717 10.7407 83.5997 11.6063 85.6665 12.8645L144.132 48.4068C146.024 49.6203 147.573 51.2972 148.634 53.2782C149.694 55.2592 150.231 57.4786 150.192 59.7253V130.204C150.231 132.451 149.694 134.67 148.634 136.651C147.573 138.632 146.024 140.309 144.132 141.522L85.6675 177.064L85.6665 177.065C83.9963 178.204 82.0512 178.875 80.0338 179.008C78.0163 178.875 76.0713 178.204 74.4011 177.065L74.4001 177.064L15.9378 141.524L15.9356 141.523C14.1473 140.559 12.6222 139.172 11.4938 137.483C10.5169 135.88 9.87578 133.665 9.87578 130.204V59.7253C9.83704 57.4786 10.3734 55.2593 11.434 53.2783C12.4945 51.2973 14.044 49.6204 15.9352 48.4069L74.392 12.8699L74.3961 12.8674C76.4799 11.6145 78.3401 10.7407 80.0338 10.7407ZM87.7463 9.44765L146.21 44.9889C148.689 46.559 150.723 48.7378 152.121 51.3175C153.518 53.8972 154.231 56.7918 154.192 59.7254V130.204C154.231 133.138 153.518 136.032 152.121 138.612C150.723 141.192 148.688 143.371 146.21 144.941L87.7453 180.482C85.4511 182.007 82.7857 182.88 80.0338 183.008C77.2819 182.88 74.6164 182.007 72.3222 180.482H72.3213L13.8575 144.94L13.855 144.939C11.5197 143.646 9.53644 141.801 8.07828 139.565C6.4837 136.712 5.72068 133.469 5.87578 130.204V59.7253C5.83672 56.7917 6.54983 53.897 7.94712 51.3173C9.34441 48.7375 11.3793 46.5588 13.8577 44.9887L72.3222 9.447L72.3304 9.44212C74.421 8.18471 77.1289 6.74066 80.0338 6.74066C82.92 6.74066 85.6371 8.16374 87.7463 9.4476V9.44765Z" fill="#0078D4"/>
<g opacity="0.2">
<path d="M139.965 133.012L80.4154 167.619L20.4764 133.013L80.0264 98.4063L139.965 133.012Z" fill="#003067"/>
</g>
<path d="M140.956 121.635L80.2334 156.923L19.1224 121.64L79.8444 86.3523L140.956 121.635Z" fill="#1B93EB"/>
<path d="M140.956 121.635L140.944 125.741L80.2224 161.029L80.2334 156.923L140.956 121.635Z" fill="#1F56A3"/>
<path d="M80.2335 156.923L80.2225 161.029L19.1105 125.746L19.1225 121.64L80.2335 156.923Z" fill="#0078D4"/>
<path d="M79.2467 96.8111C79.3976 96.8621 79.5288 96.9589 79.622 97.0881C79.7152 97.2173 79.7658 97.3723 79.7667 97.5316C79.7676 97.6909 79.7188 97.8465 79.627 97.9767C79.5352 98.1069 79.4051 98.2052 79.2548 98.2579C78.8675 98.457 78.4384 98.5612 78.0028 98.5619C77.5673 98.5626 77.1379 98.4598 76.7499 98.262C76.0419 97.8533 76.0384 97.2157 76.7347 96.8111C77.1236 96.6126 77.554 96.5091 77.9907 96.5091C78.4273 96.5091 78.8577 96.6126 79.2467 96.8111Z" fill="#32B0E7"/>
<path d="M125.627 121.943C125.714 121.973 125.789 122.029 125.843 122.103C125.896 122.177 125.925 122.267 125.926 122.358C125.926 122.45 125.898 122.539 125.846 122.614C125.793 122.689 125.718 122.746 125.632 122.777L121.222 125.339L71.7317 96.7662L75.8179 94.3915L76.1415 94.2035C76.3643 94.0896 76.611 94.0303 76.8612 94.0303C77.1114 94.0303 77.3581 94.0896 77.5809 94.2035L125.627 121.943ZM76.7499 98.262C77.1379 98.4598 77.5674 98.5626 78.0029 98.5619C78.4384 98.5612 78.8675 98.457 79.2548 98.2579C79.4052 98.2052 79.5353 98.1068 79.627 97.9766C79.7188 97.8464 79.7676 97.6908 79.7667 97.5315C79.7658 97.3723 79.7152 97.2172 79.622 97.0881C79.5288 96.9589 79.3976 96.862 79.2467 96.811C78.8577 96.6126 78.4273 96.5091 77.9907 96.5091C77.5541 96.5091 77.1237 96.6126 76.7347 96.811C76.0385 97.2157 76.042 97.8532 76.7499 98.2619" fill="#0078D4"/>
<path d="M71.7316 96.7662L121.222 125.339L88.3842 144.423C88.0933 144.57 87.7718 144.646 87.4457 144.646C87.1197 144.646 86.7982 144.57 86.5072 144.423L38.8998 116.937C38.7868 116.898 38.6885 116.825 38.6188 116.728C38.549 116.631 38.5112 116.515 38.5105 116.395C38.5098 116.276 38.5464 116.159 38.6151 116.061C38.6838 115.963 38.7812 115.889 38.8938 115.849L71.7316 96.7662Z" fill="#003067"/>
<path d="M92.3258 113.086C96.2243 115.337 97.6423 118.476 96.5398 121.383C97.2782 121.641 97.991 121.967 98.6691 122.357C103.381 125.078 103.392 129.494 98.7111 132.214C98.1521 132.539 97.5692 132.82 96.9673 133.056C96.8804 133.091 96.76 133.13 96.6665 133.169C95.7452 133.503 94.7991 133.764 93.8369 133.949C93.723 133.968 93.6025 133.984 93.4821 134.007C89.4545 134.715 85.3057 134.089 81.6671 132.222L57.2742 118.077C54.8258 116.354 54.9655 113.789 57.7502 112.17C59.4175 111.321 61.2619 110.878 63.1329 110.878C65.004 110.877 66.8487 111.319 68.5166 112.167C69.0762 112.477 69.5791 112.88 70.004 113.358C70.1374 113.265 70.291 113.176 70.4379 113.09C76.468 109.586 86.263 109.586 92.3258 113.086Z" fill="#00244D"/>
<path d="M125.632 122.777L121.222 125.339L121.214 128.051L125.624 125.488C125.705 125.451 125.775 125.394 125.827 125.321C125.879 125.248 125.91 125.163 125.918 125.074L125.926 122.363C125.918 122.452 125.886 122.537 125.835 122.609C125.783 122.682 125.713 122.74 125.632 122.777V122.777Z" fill="#1F56A3"/>
<path d="M88.3843 144.423C88.0933 144.57 87.7718 144.646 87.4458 144.646C87.1197 144.646 86.7982 144.57 86.5073 144.423L38.8999 116.937C38.7921 116.888 38.6992 116.812 38.6307 116.716C38.5623 116.62 38.5208 116.507 38.5107 116.389L38.5028 119.101C38.513 119.218 38.5545 119.331 38.623 119.427C38.6915 119.524 38.7844 119.6 38.8922 119.648L86.4997 147.134C86.7907 147.281 87.1121 147.358 87.4382 147.358C87.7642 147.358 88.0857 147.281 88.3767 147.134L121.214 128.051L121.222 125.339L88.3843 144.423Z" fill="#00244D"/>
<path d="M66.7584 104.267L68.639 103.173C69.7068 102.553 70.949 102.919 72.4156 103.766C72.8278 104.003 73.2583 104.28 73.7071 104.582L71.8265 105.676C71.3777 105.372 70.9473 105.096 70.535 104.858C69.0685 104.011 67.8263 103.646 66.7584 104.267Z" fill="#C3F1FF"/>
<path d="M71.9587 107.242L78.2154 103.136L78.9872 104.508L72.7739 108.585L71.9587 107.242Z" fill="#8DDFF9"/>
<path d="M78.9863 104.508L80.7247 107.597L75.2834 111.192C75.8349 115.303 75.2091 116.344 74.1493 116.978C73.036 117.646 71.6611 117.155 70.5205 116.496C70.0666 116.229 69.6274 115.937 69.2047 115.623L72.3506 113.41C72.5643 113.258 72.5486 112.838 72.3192 112.46L70.9946 110.263L69.6697 108.077C69.5757 107.911 69.4415 107.771 69.2793 107.67C69.2193 107.627 69.1489 107.601 69.0753 107.594C69.0018 107.587 68.9279 107.599 68.8605 107.629L65.5956 109.657C65.3526 108.115 65.0189 105.412 66.6259 104.349C67.7231 103.616 69.0074 103.977 70.5351 104.858C70.9475 105.097 71.3778 105.373 71.8266 105.676L77.5222 101.905L78.2145 103.136L71.9585 107.242L72.7738 108.585L78.9863 104.508Z" fill="#9CEBFF"/>
<path d="M78.7246 101.11L79.5797 102.24L79.3822 102.371L78.6869 101.135L78.7246 101.11Z" fill="#87D2EF"/>
<path d="M79.5795 102.24L80.5305 103.494L80.1538 103.742L79.382 102.371L79.5795 102.24Z" fill="#7AC8EA"/>
<path d="M80.5303 103.494L82.6676 106.314L81.889 106.828L80.1536 103.742L80.5303 103.494Z" fill="#87D2EF"/>
<path d="M81.8994 100.717L82.7146 102.06L80.5305 103.494L79.5795 102.24L81.8994 100.717Z" fill="#8DDFF9"/>
<path d="M82.5748 93.7986L84.4554 92.706C85.5566 92.0666 86.9161 92.5564 88.046 93.2095C88.5016 93.4777 88.9427 93.77 89.3673 94.0852L87.4866 95.1778C87.0621 94.8627 86.6211 94.5703 86.1654 94.3021C85.0356 93.6502 83.676 93.1592 82.5748 93.7986Z" fill="#C3F1FF"/>
<path d="M89.3003 102.037C89.1397 101.937 89.006 101.799 88.9108 101.635L87.5774 99.4444L86.2527 97.2477C86.0235 96.8698 86.0075 96.4496 86.2211 96.2978L89.3672 94.0851L87.4867 95.1777L84.3407 97.3915C84.1269 97.5422 84.1429 97.9635 84.3721 98.3403L85.6969 100.537L87.0302 102.728C87.1254 102.892 87.2592 103.03 87.4198 103.13C87.4768 103.171 87.5436 103.196 87.6136 103.203C87.6835 103.21 87.7539 103.198 87.8178 103.169L89.6984 102.076C89.6346 102.105 89.5641 102.117 89.4941 102.11C89.4242 102.104 89.3573 102.078 89.3003 102.037H89.3003Z" fill="#C3F1FF"/>
<path d="M84.6693 104.992L75.2837 111.19C75.8352 115.303 75.2095 116.344 74.1495 116.977L76.0302 115.884C77.09 115.252 77.7158 114.21 77.1644 110.098L84.8074 105.087L84.6693 104.992Z" fill="#C3F1FF"/>
<path d="M92.9766 100.051L91.096 101.144C91.3476 102.691 91.6728 105.388 90.0743 106.456C90.0163 106.495 89.9577 106.531 89.8984 106.565L91.7791 105.473C91.8383 105.437 91.8969 105.401 91.9549 105.363C93.5533 104.296 93.228 101.599 92.9766 100.051Z" fill="#C3F1FF"/>
<path d="M91.0959 101.144C91.3473 102.691 91.6725 105.388 90.0741 106.456C89.2524 106.998 88.3427 107.201 86.1316 105.924C85.6974 105.674 85.2126 105.365 84.6691 104.992L82.668 106.314L80.5306 103.494L82.7151 102.06L81.8998 100.717L79.5799 102.239L78.7238 101.11L81.3748 99.3553C80.8993 95.502 81.4653 94.5247 82.4653 93.8671C83.5849 93.1261 84.9979 93.6273 86.1656 94.3021C86.6212 94.5703 87.0623 94.8626 87.4868 95.1778L84.3408 97.3916C84.1272 97.5423 84.1431 97.9636 84.3723 98.3403L85.6971 100.537L87.0303 102.728C87.1255 102.892 87.2591 103.03 87.4197 103.13C87.4785 103.173 87.5482 103.199 87.6209 103.204C87.6936 103.21 87.7665 103.195 87.8311 103.161L91.0959 101.144Z" fill="#9CEBFF"/>
<path d="M70.1875 88.6814L70.2218 88.7396L70.32 90.1884L69.0892 90.8506L67.9064 90.0103L67.855 89.9224L70.1875 88.6814Z" fill="#E8E8E8"/>
<path d="M67.5955 84.4354C67.8108 84.5693 67.9874 84.757 68.108 84.9799L70.2216 88.7396L70.1877 88.6814L67.856 89.9213L65.7752 86.221C65.5036 85.7312 65.5136 85.2174 65.7956 85.0564L67.0943 84.3754C67.1763 84.3431 67.265 84.3316 67.3525 84.3421C67.44 84.3526 67.5235 84.3847 67.5955 84.4355V84.4354Z" fill="#F2F2F2"/>
<path d="M79.0693 112.369L80.9498 111.276L80.96 111.27L79.0796 112.363L79.0693 112.369Z" fill="#0078D4"/>
<path d="M79.0793 112.363L80.9598 111.27L82.5799 110.413L80.6994 111.506L79.0793 112.363Z" fill="#0078D4"/>
<path d="M80.6993 111.506L82.5798 110.413L83.1129 110.131L81.2325 111.224L80.6993 111.506Z" fill="#0078D4"/>
<path d="M70.3073 90.1953L76.3561 100.948L76.4611 101.135L77.1564 102.371L77.9282 103.742L79.6648 106.828L79.7264 106.938L81.9299 110.854L81.2324 111.224L80.6992 111.506L78.5002 107.597L76.7613 104.508L75.9895 103.136L75.2977 101.906L69.0719 90.8415L70.3073 90.1953Z" fill="#F2F2F2"/>
<path d="M81.607 105.845L81.5454 105.735L79.8088 102.649L79.037 101.277L78.3417 100.042L78.2378 99.8554L72.1878 89.1027L70.3074 90.1953L76.3562 100.948L76.4612 101.135L77.1565 102.371L77.9283 103.742L79.6649 106.828L79.7266 106.938L81.9301 110.854L83.8105 109.761L81.607 105.845Z" fill="#E8E8E8"/>
<path d="M69.0719 90.8415L70.9534 89.7478L72.1876 89.1027L70.3073 90.1953L69.0719 90.8415Z" fill="white"/>
<path d="M70.2222 88.7396L72.1026 87.647L72.2008 89.0958L70.3203 90.1884L70.2222 88.7396Z" fill="#B3B3B3"/>
<path d="M67.855 89.9224L69.7354 88.8298L72.0679 87.5876L70.1875 88.6814L67.855 89.9224Z" fill="#F2F2F2"/>
<path d="M70.1875 88.6814L72.0679 87.5876L72.1022 87.647L70.2218 88.7396L70.1875 88.6814Z" fill="#F2F2F2"/>
<path d="M69.9884 83.8872C69.8679 83.6641 69.6912 83.4764 69.476 83.3425C69.404 83.2916 69.3205 83.2595 69.233 83.2491C69.1455 83.2386 69.0568 83.25 68.9748 83.2824L67.6759 83.964L65.7957 85.0564L67.0942 84.3753C67.1762 84.3429 67.265 84.3315 67.3525 84.342C67.4399 84.3525 67.5235 84.3846 67.5955 84.4354C67.8106 84.5694 67.9872 84.757 68.1079 84.9799L70.2215 88.7396L72.1021 87.647L69.9884 83.8872Z" fill="#E8E8E8"/>
<path d="M81.9304 110.854L83.8108 109.761L85.3772 108.929L83.4969 110.021L81.9304 110.854Z" fill="#0078D4"/>
<path d="M84.5233 118.104C84.6297 118.173 84.7173 118.267 84.7785 118.379L88.5561 125.109C88.6919 125.354 88.6911 125.618 88.5373 125.696L88.3324 125.803C88.2907 125.821 88.2452 125.827 88.2004 125.822C88.1555 125.816 88.1129 125.799 88.0765 125.773C87.969 125.705 87.881 125.611 87.8213 125.499L84.0437 118.768C83.8994 118.518 83.9085 118.259 84.054 118.177L84.2589 118.069C84.3022 118.051 84.3494 118.045 84.3958 118.051C84.442 118.058 84.4857 118.076 84.5233 118.104V118.104Z" fill="#0078D4"/>
<path d="M91.8953 124.017C92.6933 125.438 92.6292 126.97 91.7491 127.433L90.6639 128.011L89.6215 128.557C89.3864 128.658 89.1292 128.697 88.8749 128.669C88.6205 128.641 88.3776 128.549 88.1696 128.4C87.5368 128.004 87.0185 127.45 86.6661 126.792L82.481 119.346L82.4607 117.452L80.7917 116.332L79.0599 113.243C78.8476 112.876 78.8574 112.479 79.0795 112.363L80.6996 111.506L81.2327 111.224L81.9301 110.854L83.497 110.021C83.5628 109.993 83.6348 109.982 83.7061 109.989C83.7774 109.997 83.8456 110.022 83.9042 110.064C84.065 110.164 84.1975 110.303 84.2892 110.469L86.021 113.557L86.0495 115.544L87.7103 116.571L91.8953 124.017ZM90.2465 124.791C90.3917 124.707 90.4011 124.448 90.2567 124.198L86.4876 117.483C86.4237 117.367 86.3316 117.269 86.2199 117.198C86.1841 117.172 86.1416 117.156 86.0974 117.153C86.0532 117.148 86.0086 117.155 85.9681 117.173L85.763 117.28C85.7249 117.305 85.6944 117.339 85.6747 117.379C85.655 117.42 85.6469 117.465 85.6514 117.51C85.6555 117.637 85.6903 117.762 85.7528 117.873L89.5219 124.587C89.5825 124.699 89.6702 124.794 89.777 124.863C89.8144 124.891 89.8583 124.909 89.9046 124.915C89.9509 124.921 89.9979 124.915 90.0413 124.898L90.2465 124.791ZM88.5376 125.696C88.6914 125.618 88.692 125.354 88.5563 125.108L84.7788 118.379C84.7178 118.267 84.6301 118.173 84.5235 118.104C84.4859 118.076 84.4421 118.058 84.396 118.051C84.3495 118.045 84.3023 118.051 84.2591 118.069L84.0541 118.176C83.9087 118.259 83.8995 118.518 84.0439 118.768L87.8214 125.499C87.8811 125.61 87.9691 125.705 88.0765 125.773C88.1129 125.799 88.1556 125.816 88.2005 125.822C88.2453 125.827 88.2908 125.821 88.3325 125.803L88.5375 125.696" fill="#1F56A3"/>
<path d="M86.2196 117.198C86.3317 117.269 86.4238 117.367 86.4872 117.484L90.2563 124.198C90.4007 124.448 90.3915 124.707 90.2462 124.791L90.0411 124.898C89.9976 124.915 89.9506 124.921 89.9043 124.915C89.8579 124.909 89.8138 124.891 89.7768 124.863C89.6699 124.794 89.5822 124.699 89.5216 124.587L85.7525 117.873C85.6898 117.762 85.655 117.637 85.6511 117.51C85.6466 117.465 85.6547 117.42 85.6743 117.379C85.694 117.339 85.7245 117.305 85.7625 117.28L85.9677 117.173C86.0083 117.155 86.0528 117.148 86.0969 117.153C86.1411 117.157 86.1833 117.173 86.2196 117.198H86.2196Z" fill="#0078D4"/>
<path d="M93.7758 122.924L89.5907 115.479L87.9298 114.451L87.9012 112.463L86.1696 109.376C86.0782 109.21 85.9456 109.071 85.7846 108.971C85.726 108.93 85.6578 108.904 85.5865 108.897C85.5153 108.889 85.4433 108.9 85.3775 108.929L83.4968 110.021C83.5626 109.993 83.6346 109.982 83.7059 109.989C83.7772 109.997 83.8454 110.022 83.904 110.064C84.0647 110.164 84.1972 110.303 84.289 110.469L86.0208 113.557L86.0494 115.544L87.7101 116.571L91.8952 124.017C92.6805 125.415 92.6308 126.921 91.7905 127.41L93.6712 126.317C94.5115 125.828 94.561 124.323 93.7758 122.924Z" fill="#0078D4"/>
<path d="M75.08 53.573L71.064 55.9067C72.837 54.8764 75.2916 55.0218 77.9975 56.584C79.1562 57.263 80.2283 58.08 81.1905 59.017L85.2062 56.6833C84.2442 55.7464 83.1721 54.9294 82.0135 54.2503C79.3076 52.6881 76.8528 52.5427 75.08 53.573Z" fill="#E8E8E8"/>
<path d="M125.207 66.1574C124.122 65.5176 122.965 65.0087 121.76 64.6413C118.252 56.2105 112.096 48.459 105.054 44.3932C99.5539 41.2178 94.572 40.9221 90.9732 43.0137L86.9572 45.3474C90.5562 43.256 95.5378 43.5515 101.038 46.727C108.08 50.7928 114.236 58.5443 117.744 66.975C118.949 67.3424 120.106 67.8513 121.191 68.4911C129.7 73.4038 136.559 85.3186 136.531 95.0843C136.535 96.1505 136.441 97.2148 136.251 98.2638C136.23 98.4138 136.18 98.558 136.159 98.7311C135.886 99.9797 135.428 101.181 134.801 102.294C134.729 102.415 134.639 102.513 134.568 102.634C133.917 103.597 133.059 104.402 132.057 104.991L136.073 102.657C137.075 102.068 137.932 101.263 138.584 100.3C138.655 100.179 138.745 100.081 138.816 99.9605C139.444 98.8469 139.901 97.6459 140.175 96.3973C140.195 96.2243 140.246 96.08 140.266 95.93C140.457 94.881 140.551 93.8167 140.547 92.7506C140.575 82.9848 133.716 71.07 125.207 66.1574Z" fill="#E8E8E8"/>
<path d="M101.038 46.727C108.08 50.7928 114.236 58.5443 117.744 66.9751C118.949 67.3424 120.106 67.8514 121.191 68.4912C129.7 73.4038 136.559 85.3186 136.531 95.0843C136.535 96.1505 136.441 97.2147 136.251 98.2638C136.23 98.4138 136.179 98.558 136.159 98.731C135.886 99.9797 135.428 101.181 134.8 102.294C134.73 102.415 134.639 102.513 134.568 102.634C131.901 106.505 126.847 107.264 121.071 103.929L76.9699 78.3637C72.0591 74.9619 68.2049 67.973 68.2214 62.1551C68.2389 55.9679 72.6231 53.481 77.9977 56.584C79.1563 57.2631 80.2284 58.0801 81.1905 59.0171C81.1713 58.6939 81.1722 58.3937 81.1731 58.0821C81.2088 45.4882 90.0981 40.4109 101.038 46.727Z" fill="white"/>
</g>
<defs>
<linearGradient id="paint0_linear_972_604" x1="80.0339" y1="9.26471" x2="80.0339" y2="180.68" gradientUnits="userSpaceOnUse">
<stop stop-color="#00ABDE"/>
<stop offset="1" stop-color="#007ED8"/>
</linearGradient>
<clipPath id="clip0_972_604">
<rect width="159.356" height="188" fill="white" transform="translate(0.355469 0.986328)"/>
</clipPath>
</defs>
</svg>
