<svg width="103" height="103" viewBox="0 0 103 103" fill="none" xmlns="http://www.w3.org/2000/svg">
<path d="M51.8045 98.5521C25.9545 98.5521 4.99451 77.6021 4.99451 51.7421C4.99451 25.8821 25.9545 4.93213 51.8045 4.93213C77.6545 4.93213 98.6145 25.8921 98.6145 51.7421C98.6145 77.5921 77.6545 98.5521 51.8045 98.5521Z" fill="url(#paint0_linear)"/>
<path fill-rule="evenodd" clip-rule="evenodd" d="M51.8045 1.74219C79.4145 1.74219 101.805 24.1322 101.805 51.7422C101.805 79.3522 79.4145 101.742 51.8045 101.742C24.1945 101.742 1.8045 79.3522 1.8045 51.7422C1.8045 24.1322 24.1945 1.74219 51.8045 1.74219ZM51.8045 97.5022C77.0745 97.5022 97.5645 77.0122 97.5645 51.7422C97.5645 26.4722 77.0745 5.98219 51.8045 5.98219C26.5345 5.98219 6.0445 26.4722 6.0445 51.7422C6.0445 77.0122 26.5345 97.5022 51.8045 97.5022Z" fill="#D9D9D9"/>
<path fill-rule="evenodd" clip-rule="evenodd" d="M97.7045 51.7421C97.7045 77.092 77.1545 97.6421 51.8045 97.6421C26.4545 97.6421 5.90449 77.092 5.90449 51.7421C5.90449 26.392 26.4545 5.84205 51.8045 5.84205C77.1545 5.84205 97.7045 26.392 97.7045 51.7421ZM51.8045 2.10205C79.2245 2.10205 101.444 24.3221 101.444 51.7421C101.444 79.162 79.2145 101.382 51.8045 101.382C24.3845 101.382 2.16449 79.1521 2.16449 51.7421C2.16449 24.3221 24.3845 2.10205 51.8045 2.10205Z" fill="#F2F1F0"/>
<path fill-rule="evenodd" clip-rule="evenodd" d="M51.8045 94.8321C28.0045 94.8321 8.71449 75.5421 8.71449 51.7421C8.71449 27.9421 28.0045 8.65211 51.8045 8.65211C75.6045 8.65211 94.8945 27.9421 94.8945 51.7421C94.8945 75.5421 75.6045 94.8321 51.8045 94.8321ZM98.6345 51.7421C98.6345 77.6021 77.6645 98.5721 51.8045 98.5721C25.9445 98.5721 4.97449 77.6021 4.97449 51.7421C4.97449 25.8821 25.9445 4.91211 51.8045 4.91211C77.6645 4.91211 98.6345 25.8721 98.6345 51.7421Z" fill="url(#paint1_linear)"/>
<path opacity="0.2" d="M82.4445 71.3319L51.4945 89.5719L21.1645 71.4319L51.4945 53.1919L82.4445 71.3319Z" fill="#1F1D21"/>
<path d="M21.1645 33.252L51.4945 15.332L82.4445 32.942L51.4945 50.872L21.1645 33.252Z" fill="#7B83EB"/>
<path d="M51.4945 50.8719V86.4119L82.4445 68.4919V32.9419L51.4945 50.8719Z" fill="url(#paint2_linear)"/>
<path d="M21.1645 33.252V68.792L51.4945 86.412V50.872L21.1645 33.252Z" fill="url(#paint3_linear)"/>
<path d="M77.7845 65.802L51.4945 80.842L26.1245 66.062L51.4945 51.022L77.7845 65.802Z" fill="#7B83EB"/>
<path d="M51.4945 51.0219V21.2119L26.3845 36.2419L26.1245 66.0519L51.4945 51.0219Z" fill="url(#paint4_linear)"/>
<path d="M77.7845 65.8019V35.9919L51.4945 21.2119V51.0219L77.7845 65.8019Z" fill="#5059C9"/>
<path d="M51.9646 71.3118C62.9274 71.3118 71.8146 62.4247 71.8146 51.4618C71.8146 40.499 62.9274 31.6118 51.9646 31.6118C41.0017 31.6118 32.1146 40.499 32.1146 51.4618C32.1146 62.4247 41.0017 71.3118 51.9646 71.3118Z" fill="#3B42AD"/>
<path d="M48.7346 36.3618H46.8446V37.9318H48.7346V36.3618Z" fill="#505150"/>
<path d="M48.7346 39.8218H46.8446V41.3918H48.7346V39.8218Z" fill="#505150"/>
<path d="M48.7346 43.6021H46.8446V45.1721H48.7346V43.6021Z" fill="#505150"/>
<path d="M48.7346 47.3818H46.8446V48.9518H48.7346V47.3818Z" fill="#505150"/>
<path d="M48.7346 50.8418H46.8446V52.4118H48.7346V50.8418Z" fill="#505150"/>
<path d="M48.7346 54.6221H46.8446V56.1921H48.7346V54.6221Z" fill="#505150"/>
<path d="M48.7346 58.0918H46.8446V59.6618H48.7346V58.0918Z" fill="#505150"/>
<path d="M48.7346 62.1821H46.8446V63.7521H48.7346V62.1821Z" fill="#505150"/>
<path d="M48.7346 65.6421H46.8446V67.2121H48.7346V65.6421Z" fill="#505150"/>
<path d="M58.8146 39.8218H53.7746V41.3918H58.8146V39.8218Z" fill="#505150"/>
<path d="M59.0346 31.312L58.8746 31.522L59.0346 31.312Z" fill="#532D81"/>
<path d="M51.9346 68.1119C61.4546 68.1119 69.1646 60.3919 69.1646 50.8819C69.1646 41.3619 61.4446 33.6519 51.9346 33.6519C42.4146 33.6519 34.7046 41.3719 34.7046 50.8819C34.7046 60.4019 42.4246 68.1119 51.9346 68.1119Z" fill="#6CAEDF"/>
<path d="M59.1346 37.192C58.6946 39.932 56.7346 42.012 54.3846 42.552C54.3546 42.552 54.3346 42.562 54.3046 42.562C53.6746 42.702 53.0146 42.722 52.3446 42.612C52.1446 42.582 51.9446 42.532 51.7546 42.482C51.5046 42.412 51.2646 42.322 51.0346 42.222C50.6946 42.082 50.3746 41.892 50.0846 41.682C48.3046 40.412 47.2646 38.112 47.5546 35.632C47.5646 35.532 47.5846 35.432 47.5946 35.332C47.7846 34.152 48.2546 33.102 48.9146 32.232C48.9246 32.222 48.9246 32.222 48.9346 32.212C48.9746 32.162 49.0246 32.102 49.0646 32.052L49.0746 32.042C49.0846 32.032 49.0846 32.022 49.0946 32.012C49.3346 31.722 49.6146 31.442 49.8946 31.202L49.9046 31.192C51.1446 30.152 52.7446 29.642 54.3846 29.902C56.1446 30.182 57.5746 31.302 58.4146 32.832C58.6546 33.272 58.8546 33.752 58.9846 34.252C59.0146 34.342 59.0346 34.432 59.0546 34.522C59.1446 34.922 59.1946 35.332 59.2146 35.762C59.2246 35.862 59.2246 35.972 59.2246 36.082C59.2246 36.322 59.2146 36.562 59.1846 36.802C59.1846 36.802 59.1846 36.802 59.1846 36.822C59.1746 36.962 59.1546 37.082 59.1346 37.192Z" fill="#7A4623"/>
<path d="M61.5646 55.1422C57.7346 58.5022 51.3946 58.3022 48.2046 56.0822C45.4446 54.1722 43.6146 51.4522 45.0946 46.7622C45.5146 45.4422 46.6846 42.9522 47.1846 40.7922C47.6946 38.6022 47.5546 36.7322 47.5546 36.7322L59.2346 36.0522C59.2346 36.0522 59.4346 38.0022 60.2646 40.2122C61.2246 42.7522 62.9246 45.6522 63.3246 46.7022C64.8046 50.5422 63.1546 53.7622 61.5646 55.1422Z" fill="#7A4623"/>
<path d="M56.3846 43.2321L53.0646 43.0421L53.0446 39.6921C53.0446 39.6921 55.4646 39.2321 56.3546 39.1821C55.7846 41.1321 56.3846 43.2321 56.3846 43.2321Z" fill="#BF8F67"/>
<path d="M50.0846 40.0021C50.4146 39.8621 50.5546 39.4621 50.4046 39.1121C50.2546 38.7621 49.8646 38.5921 49.5346 38.7321C49.2046 38.8721 49.0646 39.2721 49.2146 39.6221C49.3746 39.9721 49.7546 40.1521 50.0846 40.0021Z" fill="#F8C954"/>
<path d="M56.3846 43.2321L53.0646 43.0421L53.0446 39.6921C53.0446 39.6921 55.4646 39.2321 56.3546 39.1821C55.7846 41.1321 56.3846 43.2321 56.3846 43.2321Z" fill="url(#paint5_radial)"/>
<path d="M56.6446 36.292C56.8946 38.872 55.0046 41.152 53.1546 41.252C51.3046 41.352 49.5946 39.342 49.3446 36.772C49.0946 34.192 50.4146 32.262 52.2746 32.162C54.1246 32.062 56.3946 33.722 56.6446 36.292Z" fill="#BF8F67"/>
<path d="M54.0646 36.5722C54.0946 36.2722 53.9746 36.0222 53.8046 36.0022C53.6346 35.9822 53.4646 36.2122 53.4346 36.5122C53.4046 36.8122 53.5246 37.0622 53.6946 37.0822C53.8646 37.1022 54.0346 36.8722 54.0646 36.5722Z" fill="#3A312E"/>
<path d="M52.7546 34.5422L52.5246 35.9022C52.3846 36.6022 51.9746 37.0222 51.6746 37.2522C51.5046 37.3822 51.3946 37.7322 51.5546 37.9822C51.6446 38.1222 52.0446 38.4422 52.0146 38.7722L51.8346 40.0422L49.2846 39.6822L50.0046 34.0522L52.7546 34.5422Z" fill="url(#paint6_radial)"/>
<path d="M51.7246 39.262C51.8446 39.302 51.9446 39.302 52.0546 39.312C52.1646 39.312 52.2746 39.312 52.3846 39.302C52.4946 39.292 52.6046 39.282 52.7146 39.272C52.8146 39.252 52.9046 39.242 53.0046 39.192L53.0546 39.162C53.1046 39.132 53.1546 39.152 53.1946 39.202C53.2046 39.212 53.2046 39.232 53.2046 39.242C53.2246 39.462 53.0646 39.642 52.9146 39.722C52.7646 39.822 52.5946 39.862 52.4246 39.872C52.2546 39.882 52.0846 39.862 51.9246 39.782C51.7646 39.712 51.6046 39.572 51.5646 39.382C51.5546 39.322 51.5946 39.262 51.6446 39.252C51.6646 39.252 51.6846 39.252 51.7046 39.252L51.7246 39.262Z" fill="white"/>
<path d="M50.6746 31.8518C50.6746 31.8518 51.1646 33.5518 53.1546 34.2418C56.0246 35.2318 56.4946 36.5218 56.5046 36.5418C58.7346 37.0518 58.1546 34.7918 56.0446 32.3318C53.8846 29.8118 50.6746 31.8518 50.6746 31.8518Z" fill="#7A4623"/>
<path d="M51.3646 36.5222C51.3846 36.2222 51.2646 35.9722 51.0846 35.9622C50.9046 35.9522 50.7546 36.1822 50.7346 36.4822C50.7146 36.7822 50.8346 37.0322 51.0146 37.0422C51.1846 37.0522 51.3446 36.8222 51.3646 36.5222Z" fill="#3A312E"/>
<path d="M55.5646 38.602L56.8646 38.532C57.4146 38.502 57.8246 38.022 57.7646 37.462C57.7146 36.902 57.2146 36.472 56.6646 36.502L55.3646 36.572L55.5646 38.602Z" fill="#BF8F67"/>
<path d="M56.9646 39.6921C57.2946 39.5521 57.4346 39.1521 57.2846 38.8021C57.1346 38.4521 56.7446 38.2821 56.4246 38.4221C56.0946 38.5621 55.9546 38.9621 56.1046 39.3121C56.2546 39.6621 56.6346 39.8321 56.9646 39.6921Z" fill="#F8C954"/>
<path d="M38.3746 61.502C39.9746 63.542 42.0246 65.222 44.3846 66.372L45.0446 65.572L42.2746 62.192C41.2646 60.962 39.5946 60.782 38.3746 61.502Z" fill="url(#paint7_radial)"/>
<path d="M59.8046 48.162C59.8046 48.812 59.6846 49.442 59.4746 50.012C58.7146 52.072 56.7446 53.542 54.4146 53.542C52.0946 53.542 50.1146 52.072 49.3546 50.012C49.1446 49.432 49.0246 48.812 49.0246 48.162C49.0246 48.112 49.0246 48.072 49.0246 48.022V48.012C49.0746 46.342 49.8746 44.872 51.1046 43.922C51.2446 43.822 51.3746 43.722 51.5246 43.632C52.3646 43.102 53.3546 42.792 54.4146 42.792C55.4846 42.792 56.4746 43.102 57.3146 43.642C57.4546 43.732 57.5946 43.832 57.7346 43.932C58.9546 44.892 59.7546 46.362 59.8046 48.022V48.032C59.8046 48.062 59.8046 48.112 59.8046 48.162Z" fill="#8B8CC4"/>
<path d="M49.0246 48.5021L48.6746 58.4822L38.0646 60.3222L39.7546 61.5121H50.1646C51.0846 61.5121 51.8346 60.7621 51.8346 59.8421L52.9146 48.4521L49.0246 48.5021Z" fill="#8083BF"/>
<path d="M60.3346 61.052H48.4946L49.4946 56.572C49.8046 54.672 49.8046 52.742 49.4946 50.842L49.0346 48.002H59.8046L59.3446 50.842C59.0346 52.742 59.0346 54.672 59.3446 56.572L60.3346 61.052Z" fill="#8B8CC4"/>
<path d="M39.5146 62.8121C42.1846 65.5921 45.7746 67.4721 49.8046 67.9821H53.7546C53.8246 67.9921 53.8946 67.9921 53.9546 68.0021C54.8446 67.9021 55.7146 67.7221 56.5646 67.4921C58.7846 66.3621 60.3346 64.0021 60.3346 61.4421C55.2446 61.5821 42.0546 61.4321 42.0546 61.4321C40.9546 61.4321 40.0346 61.9921 39.5146 62.8121Z" fill="#FDB813"/>
<path d="M57.3146 43.622C56.4646 44.112 55.4746 44.392 54.4246 44.392C53.3746 44.392 52.3846 44.112 51.5246 43.612C52.3646 43.082 53.3546 42.772 54.4146 42.772C55.4846 42.772 56.4746 43.082 57.3146 43.622Z" fill="#BF8F67"/>
<path d="M53.2746 61.482H60.2246C60.2246 61.482 59.6846 50.852 59.6246 48.542C59.3846 48.572 56.6846 48.702 56.1846 49.762C55.0546 52.122 53.8246 54.262 53.0946 55.152C52.3046 56.112 49.7546 60.042 48.2946 60.672C47.3746 61.052 53.2746 61.482 53.2746 61.482Z" fill="url(#paint8_radial)"/>
<path d="M55.9546 48.1621L56.6346 58.4821L46.0246 60.3221V61.5121H58.1146C59.0346 61.5121 59.7846 60.7621 59.7846 59.8421V48.1621H55.9546Z" fill="#8B8CC4"/>
<path d="M49.8346 60.6519H37.7546C37.9546 60.9419 38.1646 61.2219 38.3846 61.5019H49.8446C50.0846 61.5019 50.2746 61.3119 50.2746 61.0719C50.2646 60.8519 50.0746 60.6519 49.8346 60.6519Z" fill="#CBC1CC"/>
<path d="M51.9346 68.1122C55.0446 68.1122 57.9646 67.2822 60.4846 65.8322C60.1446 65.6322 59.7446 65.5122 59.3146 65.5122H46.9746C46.1346 65.5122 45.3946 65.9622 44.9846 66.6322C47.1046 67.5822 49.4646 68.1122 51.9346 68.1122Z" fill="#777678"/>
<path d="M55.2246 60.6118H51.1746V61.5118H54.4146C54.8546 61.5118 55.2246 61.1518 55.2246 60.7018V60.6118Z" fill="#B5B5B6"/>
<path d="M50.4646 51.3119C50.4546 51.2019 50.4246 51.0919 50.3646 50.9919C50.3146 50.8919 50.2446 50.8019 50.1546 50.7219C50.0646 50.6419 49.9646 50.5819 49.8646 50.5419C49.7646 50.5019 49.6546 50.4819 49.5446 50.4819H34.7246C34.7246 50.6119 34.7146 50.7419 34.7146 50.8719C34.7146 54.8819 36.0946 58.5719 38.3846 61.5019H50.9046C51.0146 61.5019 51.1146 61.4819 51.2146 61.4419C51.3046 61.4019 51.3946 61.3419 51.4546 61.2619C51.5246 61.1819 51.5746 61.0919 51.5946 60.9919C51.6246 60.8919 51.6246 60.7819 51.6146 60.6719L50.4646 51.3119Z" fill="#D6D6D6"/>
<path d="M38.3746 61.5118H51.4946L51.3846 60.6118H37.7146C37.9246 60.9218 38.1546 61.2118 38.3746 61.5118Z" fill="#707071"/>
<path d="M42.1946 55.042H41.5846L41.6646 55.652H42.2746L42.1946 55.042Z" fill="#B5B5B6"/>
<path d="M43.0346 55.042H42.4246L42.5046 55.652H43.1146L43.0346 55.042Z" fill="#B5B5B6"/>
<path d="M42.3146 55.9521H41.7046L41.7846 56.5621H42.3946L42.3146 55.9521Z" fill="#B5B5B6"/>
<path d="M43.1446 55.9521H42.5346L42.6146 56.5621H43.2246L43.1446 55.9521Z" fill="#B5B5B6"/>
<path d="M51.3946 60.7619L50.2246 51.1919C50.1846 50.9019 49.9846 50.4819 49.2946 50.4819H50.0446C50.4946 50.4819 50.7746 50.7519 50.8346 51.1919L52.0046 60.7619C52.0746 61.2719 51.8746 61.5119 51.3946 61.5119H50.6446C50.8546 61.4419 51.4546 61.2819 51.3946 60.7619Z" fill="#B5B5B6"/>
<path opacity="0.5" d="M42.3646 36.562C37.7446 39.652 34.7046 44.912 34.7046 50.892C34.7046 56.862 37.7446 62.132 42.3646 65.222V36.562Z" fill="white"/>
<path d="M80.1345 27.1523L89.2045 39.0923H84.0945V58.9323H76.1645V39.0923H71.0545L80.1345 27.1523Z" fill="#F2F1F0"/>
<path d="M76.2245 70.0425V72.4725H84.1545V70.0425H76.2245Z" fill="#F2F1F0"/>
<path d="M76.2245 65.5122V67.9422H84.1545V65.5122H76.2245Z" fill="#F2F1F0"/>
<path d="M76.2245 61.1523V63.5823H84.1545V61.1523H76.2245Z" fill="#F2F1F0"/>
<defs>
<linearGradient id="paint0_linear" x1="36.7471" y1="1.30313" x2="66.9834" y2="102.594" gradientUnits="userSpaceOnUse">
<stop stop-color="#A9B1FF"/>
<stop offset="1" stop-color="#7B83EB"/>
</linearGradient>
<linearGradient id="paint1_linear" x1="51.8045" y1="4.91211" x2="51.8045" y2="98.5717" gradientUnits="userSpaceOnUse">
<stop stop-color="#5A62C3"/>
<stop offset="0.5" stop-color="#4D55BD"/>
<stop offset="1" stop-color="#3940AB"/>
</linearGradient>
<linearGradient id="paint2_linear" x1="51.4981" y1="59.678" x2="82.444" y2="59.678" gradientUnits="userSpaceOnUse">
<stop stop-color="#5A62C3"/>
<stop offset="0.5" stop-color="#4D55BD"/>
<stop offset="1" stop-color="#3940AB"/>
</linearGradient>
<linearGradient id="paint3_linear" x1="84.1459" y1="17.9614" x2="30.4287" y2="65.0003" gradientUnits="userSpaceOnUse">
<stop stop-color="#5A62C3"/>
<stop offset="0.5" stop-color="#4D55BD"/>
<stop offset="1" stop-color="#3940AB"/>
</linearGradient>
<linearGradient id="paint4_linear" x1="34.1202" y1="24.6725" x2="48.5209" y2="82.8627" gradientUnits="userSpaceOnUse">
<stop stop-color="#5A62C3"/>
<stop offset="0.5" stop-color="#4D55BD"/>
<stop offset="1" stop-color="#3940AB"/>
</linearGradient>
<radialGradient id="paint5_radial" cx="0" cy="0" r="1" gradientUnits="userSpaceOnUse" gradientTransform="translate(53.587 39.7994) scale(2.60008)">
<stop offset="0.1432" stop-color="#9B643D"/>
<stop offset="0.3956" stop-color="#A16B44" stop-opacity="0.7053"/>
<stop offset="0.7681" stop-color="#B27F58" stop-opacity="0.2704"/>
<stop offset="0.9997" stop-color="#BF8F67" stop-opacity="0"/>
</radialGradient>
<radialGradient id="paint6_radial" cx="0" cy="0" r="1" gradientUnits="userSpaceOnUse" gradientTransform="translate(51.7564 37.6859) rotate(-175.921) scale(1.64827 1.76943)">
<stop offset="0.000320513" stop-color="#9B643D"/>
<stop offset="0.8822" stop-color="#B98A62" stop-opacity="0.1178"/>
<stop offset="1" stop-color="#BF8F67" stop-opacity="0"/>
</radialGradient>
<radialGradient id="paint7_radial" cx="0" cy="0" r="1" gradientUnits="userSpaceOnUse" gradientTransform="translate(46.0819 62.2675) scale(2.96968)">
<stop stop-color="#E4636A"/>
<stop offset="0.4464" stop-color="#EE9059"/>
<stop offset="0.7956" stop-color="#F4AB4B"/>
<stop offset="1" stop-color="#F7B547"/>
</radialGradient>
<radialGradient id="paint8_radial" cx="0" cy="0" r="1" gradientUnits="userSpaceOnUse" gradientTransform="translate(57.743 59.047) rotate(-175.475) scale(7.52198 10.6699)">
<stop offset="0.1363" stop-color="#7577AE"/>
<stop offset="0.7499" stop-color="#8B8CC4"/>
</radialGradient>
</defs>
</svg>
