<?xml version="1.0" encoding="UTF-8"?>
<svg width="100px" height="100px" viewBox="0 0 100 100" version="1.1" xmlns="http://www.w3.org/2000/svg" xmlns:xlink="http://www.w3.org/1999/xlink">
    <!-- Generator: Sketch 55.2 (78181) - https://sketchapp.com -->
    <title>Modern your enterprise deployment with Microsoft 365/keep-your-apps-and-devices-up-to-date-with-modern-servicing</title>
    <desc>Created with Sketch.</desc>
    <defs>
        <rect id="path-1" x="0" y="0" width="96" height="96" rx="48"></rect>
        <filter x="-7.7%" y="-8.8%" width="115.4%" height="118.7%" filterUnits="objectBoundingBox" id="filter-3">
            <feOffset dx="0" dy="2" in="SourceAlpha" result="shadowOffsetOuter1"></feOffset>
            <feColorMatrix values="0 0 0 0 0   0 0 0 0 0   0 0 0 0 0  0 0 0 0.0964956975 0" type="matrix" in="shadowOffsetOuter1" result="shadowMatrixOuter1"></feColorMatrix>
            <feMerge>
                <feMergeNode in="shadowMatrixOuter1"></feMergeNode>
                <feMergeNode in="SourceGraphic"></feMergeNode>
            </feMerge>
        </filter>
        <filter x="-23.5%" y="-14.0%" width="147.1%" height="129.2%" filterUnits="objectBoundingBox" id="filter-4">
            <feOffset dx="0" dy="2" in="SourceAlpha" result="shadowOffsetOuter1"></feOffset>
            <feColorMatrix values="0 0 0 0 0   0 0 0 0 0   0 0 0 0 0  0 0 0 0.0964956975 0" type="matrix" in="shadowOffsetOuter1" result="shadowMatrixOuter1"></feColorMatrix>
            <feMerge>
                <feMergeNode in="shadowMatrixOuter1"></feMergeNode>
                <feMergeNode in="SourceGraphic"></feMergeNode>
            </feMerge>
        </filter>
        <filter x="-9.1%" y="-15.3%" width="118.2%" height="134.0%" filterUnits="objectBoundingBox" id="filter-5">
            <feOffset dx="0" dy="2" in="SourceAlpha" result="shadowOffsetOuter1"></feOffset>
            <feColorMatrix values="0 0 0 0 0   0 0 0 0 0   0 0 0 0 0  0 0 0 0.0964956975 0" type="matrix" in="shadowOffsetOuter1" result="shadowMatrixOuter1"></feColorMatrix>
            <feMerge>
                <feMergeNode in="shadowMatrixOuter1"></feMergeNode>
                <feMergeNode in="SourceGraphic"></feMergeNode>
            </feMerge>
        </filter>
        <filter x="-8.7%" y="-13.9%" width="117.4%" height="128.7%" filterUnits="objectBoundingBox" id="filter-6">
            <feOffset dx="0" dy="2" in="SourceAlpha" result="shadowOffsetOuter1"></feOffset>
            <feColorMatrix values="0 0 0 0 0   0 0 0 0 0   0 0 0 0 0  0 0 0 0.0964956975 0" type="matrix" in="shadowOffsetOuter1" result="shadowMatrixOuter1"></feColorMatrix>
            <feMerge>
                <feMergeNode in="shadowMatrixOuter1"></feMergeNode>
                <feMergeNode in="SourceGraphic"></feMergeNode>
            </feMerge>
        </filter>
        <circle id="path-7" cx="9.94736842" cy="9.94736842" r="9.94736842"></circle>
        <filter x="-5.0%" y="-5.0%" width="110.1%" height="120.1%" filterUnits="objectBoundingBox" id="filter-8">
            <feOffset dx="0" dy="2" in="SourceAlpha" result="shadowOffsetOuter1"></feOffset>
            <feColorMatrix values="0 0 0 0 0   0 0 0 0 0   0 0 0 0 0  0 0 0 0.1 0" type="matrix" in="shadowOffsetOuter1"></feColorMatrix>
        </filter>
    </defs>
    <g id="Badges" stroke="none" stroke-width="1" fill="none" fill-rule="evenodd">
        <g id="Modern-your-enterprise-deployment-with-Microsoft-365-1" transform="translate(-50.000000, -460.000000)">
            <g id="Modern-your-enterprise-deployment-with-Microsoft-365/keep-your-apps-and-devices-up-to-date-with-modern-servicing" transform="translate(50.000000, 460.000000)">
                <g id="Mask" transform="translate(2.000000, 2.000000)">
                    <mask id="mask-2" fill="white">
                        <use xlink:href="#path-1"></use>
                    </mask>
                    <use id="BG" fill="#55A2FF" xlink:href="#path-1"></use>
                    <g id="Monitor" filter="url(#filter-3)" mask="url(#mask-2)">
                        <g transform="translate(22.000000, 20.000000)">
                            <path d="M0,29.25 L0,34.125 C0,35.9125 1.4625,37.375 3.25,37.375 L48.75,37.375 C50.5375,37.375 52,35.9125 52,34.125 L52,29.25 L0,29.25" id="Fill-1285" fill="#E1E4E1"></path>
                            <path d="M3.25,0 C1.4625,0 0,1.4625 0,3.25 L0,29.25 L52,29.25 L52,3.25 C52,1.4625 50.5375,0 48.75,0 L3.25,0 Z M48.75,1.625 C49.6461875,1.625 50.375,2.3538125 50.375,3.25 L50.375,27.625 L1.625,27.625 L1.625,3.25 C1.625,2.3538125 2.3538125,1.625 3.25,1.625 L48.75,1.625 L48.75,1.625 Z" id="Fill-1287" fill="#182A37"></path>
                            <path d="M1.625,3.25 C1.625,2.3538125 2.3538125,1.625 3.25,1.625 L48.75,1.625 C49.6461875,1.625 50.375,2.3538125 50.375,3.25 L50.375,27.625 L1.625,27.625 L1.625,3.25" id="Fill-1288" fill="#30404D"></path>
                            <path d="M3.25,1.625 L25.5035625,1.625 L17.5589375,27.625 L1.625,27.625 L1.625,3.25 C1.625,2.3538125 2.3538125,1.625 3.25,1.625" id="Fill-1289" fill="#384B58"></path>
                            <path d="M3.25,0 L26,0 L25.5035625,1.625 L3.25,1.625 C2.3538125,1.625 1.625,2.3538125 1.625,3.25 L1.625,27.625 L17.5589375,27.625 L17.0625,29.25 L0,29.25 L0,3.25 C0,1.4625 1.4625,0 3.25,0" id="Fill-1290" fill="#30404D"></path>
                            <polyline id="Fill-1291" fill="#E1E4E1" points="32.5 44.6875 19.5 44.6875 21.125 37.375 30.875 37.375 32.5 44.6875"></polyline>
                            <path d="M32.5,44.6875 L30.875,37.375 L21.125,37.375 L20.7634375,39 L24.375,39 C25.2728125,39 26,39.7271875 26,40.625 L26,44.6875 L32.5,44.6875" id="Fill-1292" fill="#CDD6D8"></path>
                            <path d="M35.75,44.6875 C35.75,45.134375 35.384375,45.5 34.9375,45.5 L17.0625,45.5 C16.615625,45.5 16.25,45.134375 16.25,44.6875 C16.25,44.240625 16.615625,43.875 17.0625,43.875 L34.9375,43.875 C35.384375,43.875 35.75,44.240625 35.75,44.6875" id="Fill-1293" fill="#E1E4E1"></path>
                            <path d="M17.0625,45.5 L34.9375,45.5 C35.384375,45.5 35.75,45.134375 35.75,44.6875 L16.25,44.6875 C16.25,45.134375 16.615625,45.5 17.0625,45.5" id="Fill-1294" fill="#CDD6D8"></path>
                        </g>
                    </g>
                    <g id="Mobile" filter="url(#filter-4)" mask="url(#mask-2)">
                        <g transform="translate(62.000000, 36.000000)">
                            <path d="M17,26.8421053 C17,27.8263158 16.1947368,28.6315789 15.2105263,28.6315789 L1.78947368,28.6315789 C0.805263158,28.6315789 0,27.8263158 0,26.8421053 L0,1.78947368 C0,0.805263158 0.805263158,0 1.78947368,0 L15.2105263,0 C16.1947368,0 17,0.805263158 17,1.78947368 L17,26.8421053" id="Fill-1355" fill="#3F4A4D"></path>
                            <polygon id="Fill-1356" fill="#252A2C" points="1.34210526 23.7105263 15.6578947 23.7105263 15.6578947 3.57894737 1.34210526 3.57894737"></polygon>
                            <path d="M9.84210526,25.9473684 C9.84210526,26.6886579 9.24128947,27.2894737 8.5,27.2894737 C7.75871053,27.2894737 7.15789474,26.6886579 7.15789474,25.9473684 C7.15789474,25.2060789 7.75871053,24.6052632 8.5,24.6052632 C9.24128947,24.6052632 9.84210526,25.2060789 9.84210526,25.9473684" id="Fill-1357" fill="#252A2C"></path>
                            <path d="M10.2894737,2.68421053 L6.71052632,2.68421053 C6.46357895,2.68421053 6.26315789,2.48423684 6.26315789,2.23684211 C6.26315789,1.98944737 6.46357895,1.78947368 6.71052632,1.78947368 L10.2894737,1.78947368 C10.5364211,1.78947368 10.7368421,1.98944737 10.7368421,2.23684211 C10.7368421,2.48423684 10.5364211,2.68421053 10.2894737,2.68421053" id="Fill-1358" fill="#252A2C"></path>
                            <polyline id="Fill-1359" fill="#2E3537" points="15.6578947 20.1315789 7.15789474 3.57894737 15.6578947 3.57894737 15.6578947 20.1315789"></polyline>
                        </g>
                    </g>
                    <g id="Laptop" filter="url(#filter-5)" mask="url(#mask-2)">
                        <g transform="translate(7.000000, 37.000000)">
                            <path d="M0,22 L0,23.375 C0,24.8875 1.2375,26.125 2.75,26.125 L41.25,26.125 C42.7625,26.125 44,24.8875 44,23.375 L44,22 L0,22" id="Fill-1415" fill="#E1E4E1"></path>
                            <path d="M6.875,0 C5.3625,0 4.125,1.2375 4.125,2.75 L4.125,22 L39.875,22 L39.875,2.75 C39.875,1.2375 38.6375,0 37.125,0 L6.875,0 Z M37.125,1.375 C37.882625,1.375 38.5,1.9916875 38.5,2.75 L38.5,20.625 L5.5,20.625 L5.5,2.75 C5.5,1.9916875 6.1166875,1.375 6.875,1.375 L37.125,1.375 L37.125,1.375 Z" id="Fill-1416" fill="#182A37"></path>
                            <path d="M5.5,2.75 C5.5,1.9916875 6.1166875,1.375 6.875,1.375 L37.125,1.375 C37.882625,1.375 38.5,1.9916875 38.5,2.75 L38.5,20.625 L5.5,20.625 L5.5,2.75" id="Fill-1417" fill="#30404D"></path>
                            <path d="M6.875,1.375 L21.5799375,1.375 L14.8575625,20.625 L5.5,20.625 L5.5,2.75 C5.5,1.9916875 6.1166875,1.375 6.875,1.375" id="Fill-1418" fill="#384B58"></path>
                            <path d="M6.875,0 L22,0 L21.5799375,1.375 L6.875,1.375 C6.1166875,1.375 5.5,1.9916875 5.5,2.75 L5.5,20.625 L14.8575625,20.625 L14.4375,22 L4.125,22 L4.125,2.75 C4.125,1.2375 5.3625,0 6.875,0" id="Fill-1419" fill="#30404D"></path>
                            <path d="M20.625,24.75 L0.3843125,24.75 C0.862125,25.56675 1.7400625,26.125 2.75,26.125 L41.25,26.125 C42.7625,26.125 44,24.8875 44,23.375 L44,22 L22,22 L22,23.375 C22,24.1346875 21.3846875,24.75 20.625,24.75" id="Fill-1420" fill="#CDD6D8"></path>
                            <path d="M19.25,23.375 L24.75,23.375 C25.509,23.375 26.125,22.759 26.125,22 L17.875,22 C17.875,22.759 18.4903125,23.375 19.25,23.375" id="Fill-1421" fill="#AAB0B1"></path>
                        </g>
                    </g>
                    <g id="One-Cloud" filter="url(#filter-6)" mask="url(#mask-2)">
                        <g transform="translate(26.000000, 48.000000)">
                            <path d="M10.0625,8.625 C10.1350937,8.625 10.2055313,8.63434375 10.2774062,8.63578125 C11.2721562,3.70946875 15.6241875,0 20.84375,0 C25.509875,0 29.471625,2.96915625 30.972375,7.1170625 C31.823375,6.7059375 32.7735625,6.46875 33.78125,6.46875 C37.3541563,6.46875 40.25,9.36459375 40.25,12.9375 C40.25,13.0395625 40.2392188,13.1380312 40.2349063,13.2386562 C43.5598438,14.17375 46,17.2205313 46,20.84375 C46,25.2101563 42.4601563,28.75 38.09375,28.75 L10.0625,28.75 C4.505125,28.75 0,24.244875 0,18.6875 C0,13.130125 4.505125,8.625 10.0625,8.625" id="Fill-11" fill="#FFFFFF"></path>
                            <path d="M38.6392813,12.9648125 C39.189125,13.0029062 39.7217187,13.0949063 40.2349063,13.2386562 C40.2392188,13.1380312 40.25,13.0395625 40.25,12.9375 C40.25,10.784125 39.1934375,8.88159375 37.5755312,7.70571875 C38.3503437,8.77234375 38.8125,10.0804687 38.8125,11.5 C38.8125,12.0045625 38.7485313,12.4933125 38.6392813,12.9648125" id="Fill-12" fill="#C4CBCD"></path>
                            <path d="M37.843625,28.75 C42.6949787,28.75 45.8425937,25.4265 45.9949687,21.13125 C46.0963125,18.27925 44.6854062,15.74925 42.501125,14.280125 C43.5885937,15.895875 44.0953125,17.9335313 43.7215625,20.0969688 C43.1990312,23.12075 40.8789062,25.607625 37.901125,26.349375 C36.2372187,26.7640938 34.6444687,26.62825 33.2335625,26.113625 C34.0263437,25.0405312 34.5,23.7180313 34.5,22.28125 C34.5,20.127875 33.4434375,18.2253437 31.8255312,17.0494688 C32.800875,18.3920937 33.281,20.1178125 32.9669062,21.965 C32.5155312,24.6229375 30.374375,26.7648125 27.7171562,27.2169062 C27.1651562,27.3103438 26.6239375,27.3333438 26.1006875,27.2938125 C24.0500937,27.137125 22.358875,25.6313438 21.7881875,23.6555 C21.6545,23.1911875 21.5625,22.715375 21.5625,22.28125 C21.5625,22.0203437 21.5811875,21.7644687 21.6128125,21.5121875 C21.7393125,20.444125 22.1238437,19.4558437 22.7060312,18.61275 C21.8794687,18.9448125 21.0061875,19.184875 20.0940937,19.3041875 C20.1063125,19.0993437 20.125,18.8959375 20.125,18.6875 C20.125,15.35825 18.5013437,12.4156875 16.0101562,10.5835937 C17.517375,12.6349062 18.2799687,15.2676875 17.8494375,18.0938125 C17.1975312,22.3746875 13.7496875,25.8225312 9.4688125,26.4744375 C6.6426875,26.9049688 4.00990625,26.142375 1.95859375,24.6351562 C3.7906875,27.1263437 6.73325,28.75 10.0625,28.75 L28.03125,28.75 L37.843625,28.75 Z" id="Fill-13" fill="#E6E6E6"></path>
                            <path d="M28.03125,15.8125 C28.7801875,15.8125 29.4967812,15.9461875 30.1659375,16.1805 C31.0880937,14.5913437 31.625,12.750625 31.625,10.78125 C31.625,7.253625 29.923,4.131375 27.303875,2.164875 C28.6572812,3.9660625 29.46875,6.1985 29.46875,8.625 C29.46875,11.479875 28.3510937,14.0666562 26.5384062,15.9921875 C27.0185312,15.878625 27.516625,15.8125 28.03125,15.8125" id="Fill-14" fill="#E6E6E6"></path>
                        </g>
                    </g>
                    <g id="Group-3" mask="url(#mask-2)">
                        <g transform="translate(39.000000, 62.000000)">
                            <g id="Oval">
                                <use fill="black" fill-opacity="1" filter="url(#filter-8)" xlink:href="#path-7"></use>
                                <use fill="#7CB65A" fill-rule="evenodd" xlink:href="#path-7"></use>
                            </g>
                            <g id="Browser-Refresh" stroke-width="1" fill-rule="evenodd" transform="translate(10.000000, 10.335204) rotate(8.000000) translate(-10.000000, -10.335204) translate(2.000000, 3.547326)">
                                <g id="Group-61" transform="translate(0.130322, 0.001081)">
                                    <path d="M3.8497608,1.50086506 C4.83330357,0.70330771 6.05723299,0.180898811 7.41372858,0.0622766398 C11.0307228,-0.25391822 14.2191847,2.42195443 14.5353795,6.03894868 C14.6463423,7.31020913 14.3878874,8.52863951 13.848785,9.58799049" id="Stroke-2" stroke="#FFFFFF"></path>
                                    <path d="M11.7103847,12.030311 C10.8053996,12.6534702 9.73151546,13.0580425 8.55864856,13.1605603 C4.94165432,13.4767552 1.75319248,10.8008825 1.43699762,7.1838883 C1.34881657,6.17422509 1.49375558,5.19775251 1.82723314,4.30808623" id="Stroke-4" stroke="#FFFFFF"></path>
                                    <polygon id="Rectangle" fill="#FFFFFF" fill-rule="nonzero" transform="translate(1.844806, 4.378287) rotate(-21.000000) translate(-1.844806, -4.378287) " points="0.468174093 3.45324919 3.2214386 3.01313103 2.75964893 5.7434421"></polygon>
                                    <polygon id="Rectangle" fill="#FFFFFF" fill-rule="nonzero" transform="translate(13.731355, 9.690480) rotate(-194.000000) translate(-13.731355, -9.690480) " points="12.3547228 8.76544264 15.1079873 8.32532448 14.6461976 11.0556355"></polygon>
                                </g>
                            </g>
                        </g>
                    </g>
                </g>
                <g id="Azure-Border" stroke="#0078D4" stroke-width="4">
                    <rect x="2" y="2" width="96" height="96" rx="48"></rect>
                </g>
            </g>
        </g>
    </g>
</svg>