<svg width="100" height="100" viewBox="0 0 100 100" fill="none" xmlns="http://www.w3.org/2000/svg">
<g clip-path="url(#clip0_973_859)">
<path d="M49.6401 96.45C40.382 96.45 31.3317 93.7047 23.6339 88.5611C15.936 83.4176 9.93624 76.1068 6.3933 67.5534C2.85036 59 1.92337 49.5881 3.72954 40.5078C5.53571 31.4276 9.99394 23.0868 16.5404 16.5403C23.0869 9.99384 31.4277 5.53562 40.5079 3.72945C49.5882 1.92327 59.0001 2.85027 67.5535 6.39321C76.1069 9.93614 83.4176 15.9359 88.5612 23.6338C93.7047 31.3316 96.4501 40.3819 96.4501 49.64C96.4505 55.7873 95.24 61.8745 92.8878 67.5539C90.5355 73.2334 87.0875 78.3938 82.7407 82.7406C78.3939 87.0874 73.2335 90.5354 67.554 92.8877C61.8746 95.2399 55.7874 96.4504 49.6401 96.45V96.45Z" fill="url(#paint0_linear_973_859)"/>
<path fill-rule="evenodd" clip-rule="evenodd" d="M95.54 49.64C95.54 58.7182 92.848 67.5925 87.8045 75.1407C82.7609 82.6889 75.5923 88.572 67.2052 92.0461C58.818 95.5201 49.5891 96.4291 40.6854 94.658C31.7816 92.887 23.603 88.5154 17.1838 82.0962C10.7646 75.677 6.39302 67.4984 4.62196 58.5946C2.85089 49.6909 3.75987 40.462 7.23393 32.0748C10.708 23.6877 16.5911 16.5191 24.1393 11.4755C31.6875 6.43199 40.5618 3.74 49.64 3.74C55.6677 3.73998 61.6363 4.9272 67.2052 7.23388C72.774 9.54057 77.834 12.9215 82.0963 17.1837C86.3585 21.446 89.7394 26.5059 92.0461 32.0748C94.3528 37.6437 95.54 43.6123 95.54 49.64V49.64ZM49.64 3.62732e-07C59.4579 3.62732e-07 69.0553 2.91134 77.2185 8.36585C85.3818 13.8204 91.7442 21.5731 95.5014 30.6436C99.2585 39.7141 100.242 49.6951 98.3262 59.3243C96.4108 68.9535 91.6831 77.7985 84.7408 84.7408C77.7985 91.6831 68.9535 96.4108 59.3243 98.3262C49.6951 100.242 39.7141 99.2585 30.6436 95.5014C21.5731 91.7442 13.8204 85.3818 8.36585 77.2185C2.91134 69.0553 3.62732e-07 59.4579 3.62732e-07 49.64C-0.000787738 43.121 1.28265 36.6656 3.77702 30.6427C6.27138 24.6197 9.9278 19.1471 14.5375 14.5375C19.1471 9.9278 24.6197 6.27138 30.6427 3.77702C36.6656 1.28265 43.121 -0.000787738 49.64 3.62732e-07V3.62732e-07Z" fill="#F2F1F0"/>
<path fill-rule="evenodd" clip-rule="evenodd" d="M92.7296 49.6401C92.7296 58.1625 90.2024 66.4935 85.4676 73.5796C80.7328 80.6657 74.0031 86.1887 66.1294 89.4501C58.2557 92.7114 49.5918 93.5648 41.2331 91.9021C32.8745 90.2395 25.1966 86.1356 19.1703 80.1093C13.1441 74.0831 9.04017 66.4052 7.37753 58.0465C5.7149 49.6879 6.56822 41.0239 9.8296 33.1503C13.091 25.2766 18.6139 18.5469 25.7 13.8121C32.7862 9.07727 41.1172 6.55009 49.6396 6.55009C55.2983 6.54974 60.9017 7.66407 66.1298 9.82942C71.3579 11.9948 76.1082 15.1687 80.1096 19.1701C84.1109 23.1714 87.2849 27.9218 89.4502 33.1499C91.6156 38.3779 92.7299 43.9813 92.7296 49.6401V49.6401ZM49.6396 2.81009C58.9017 2.81009 67.9558 5.55662 75.6569 10.7024C83.3581 15.8481 89.3604 23.162 92.9049 31.719C96.4493 40.2761 97.3767 49.692 95.5697 58.7762C93.7628 67.8603 89.3027 76.2046 82.7534 82.7539C76.2041 89.3032 67.8598 93.7633 58.7757 95.5703C49.6915 97.3772 40.2756 96.4498 31.7185 92.9054C23.1614 89.3609 15.8476 83.3586 10.7018 75.6574C5.5561 67.9563 2.80957 58.9022 2.80957 49.6401C2.81076 37.2204 7.745 25.3097 16.5271 16.5276C25.3091 7.7455 37.2198 2.81125 49.6396 2.81006V2.81009Z" fill="#0078D4"/>
<path fill-rule="evenodd" clip-rule="evenodd" d="M92.7637 49.6401C92.7637 58.1625 90.2366 66.4935 85.5018 73.5796C80.767 80.6657 74.0372 86.1887 66.1636 89.4501C58.2899 92.7114 49.6259 93.5648 41.2673 91.9021C32.9087 90.2395 25.2308 86.1356 19.2045 80.1093C13.1783 74.0831 9.07435 66.4052 7.41171 58.0465C5.74908 49.6879 6.6024 41.0239 9.86378 33.1503C13.1252 25.2766 18.6481 18.5469 25.7342 13.8121C32.8203 9.07727 41.1514 6.55009 49.6738 6.55009C55.3325 6.54974 60.9359 7.66407 66.164 9.82942C71.3921 11.9948 76.1424 15.1687 80.1437 19.1701C84.1451 23.1714 87.3191 27.9218 89.4844 33.1499C91.6498 38.3779 92.7641 43.9813 92.7637 49.6401V49.6401ZM49.6738 2.81009C58.9359 2.81009 67.9899 5.55662 75.6911 10.7024C83.3923 15.8481 89.3946 23.162 92.939 31.719C96.4835 40.2761 97.4109 49.692 95.6039 58.7762C93.797 67.8603 89.3369 76.2046 82.7876 82.7539C76.2383 89.3032 67.894 93.7633 58.8098 95.5703C49.7257 97.3772 40.3097 96.4498 31.7527 92.9054C23.1956 89.3609 15.8818 83.3586 10.736 75.6574C5.59028 67.9563 2.84375 58.9022 2.84375 49.6401C2.84494 37.2204 7.77918 25.3097 16.5612 16.5276C25.3433 7.7455 37.254 2.81125 49.6738 2.81006V2.81009Z" fill="#0078D4"/>
<path d="M22.54 68.202H76.7391C77.0239 68.2012 77.2967 68.0877 77.4981 67.8863C77.6995 67.685 77.813 67.4121 77.8138 67.1273V24.8122H21.4653V67.1273C21.4662 67.4121 21.5796 67.6849 21.781 67.8863C21.9823 68.0877 22.2552 68.2012 22.54 68.202Z" fill="#003067"/>
<path d="M21.4653 29.4959H77.8138V24.445C77.8141 24.3367 77.793 24.2295 77.7517 24.1294C77.7104 24.0293 77.6497 23.9383 77.5731 23.8618C77.4965 23.7852 77.4056 23.7245 77.3055 23.6832C77.2054 23.6419 77.0982 23.6208 76.9899 23.6211H22.2893C22.181 23.6208 22.0737 23.6419 21.9736 23.6832C21.8735 23.7245 21.7826 23.7852 21.706 23.8618C21.6295 23.9383 21.5688 24.0293 21.5275 24.1294C21.4862 24.2295 21.465 24.3367 21.4653 24.445V29.4959Z" fill="#1F56A3"/>
<path d="M25.8001 28.1076C26.0826 28.1068 26.3586 28.0221 26.593 27.8644C26.8274 27.7067 27.0098 27.4831 27.117 27.2217C27.2243 26.9604 27.2517 26.6731 27.1957 26.3962C27.1398 26.1193 27.0029 25.8652 26.8025 25.666C26.6021 25.4669 26.3472 25.3316 26.0699 25.2774C25.7927 25.2231 25.5056 25.2523 25.2449 25.3613C24.9842 25.4702 24.7617 25.654 24.6055 25.8894C24.4493 26.1248 24.3663 26.4012 24.3672 26.6837C24.3657 26.8719 24.4018 27.0585 24.4734 27.2325C24.5449 27.4066 24.6506 27.5645 24.7841 27.6972C24.9175 27.8298 25.0762 27.9345 25.2507 28.005C25.4252 28.0754 25.612 28.1104 25.8001 28.1076V28.1076Z" fill="#50E6FF"/>
<path d="M53.0032 47.8136C53.0032 48.479 52.8059 49.1295 52.4362 49.6828C52.0665 50.2361 51.5411 50.6673 50.9263 50.922C50.3115 51.1766 49.635 51.2433 48.9823 51.1134C48.3297 50.9836 47.7302 50.6632 47.2597 50.1926C46.7891 49.7221 46.4687 49.1226 46.3389 48.47C46.2091 47.8173 46.2757 47.1408 46.5303 46.526C46.785 45.9113 47.2162 45.3858 47.7695 45.0161C48.3228 44.6464 48.9733 44.4491 49.6387 44.4491C50.5307 44.4502 51.3859 44.805 52.0166 45.4357C52.6473 46.0664 53.0022 46.9216 53.0032 47.8136V47.8136ZM59.2212 46.0015L57.6567 45.6536C57.4948 45.5946 57.3626 45.4742 57.2889 45.3185C57.2838 45.3013 57.2776 45.2845 57.2704 45.268L56.8388 44.219C56.8314 44.2008 56.8229 44.1827 56.8139 44.1652C56.7553 44.0043 56.763 43.8268 56.8354 43.6716L57.696 42.3191C57.8721 42.0262 57.9472 41.6837 57.91 41.3441C57.8727 41.0044 57.7251 40.6864 57.4898 40.4387L57.0137 39.9626C56.7637 39.7313 56.4461 39.5864 56.1075 39.5493C55.769 39.5122 55.4275 39.5847 55.1333 39.7564L53.7804 40.6166C53.6942 40.6598 53.5985 40.6806 53.5022 40.6772C53.4286 40.6799 53.3552 40.6667 53.2872 40.6385C53.2696 40.6291 53.2516 40.6208 53.233 40.6136L52.1843 40.1816C52.1678 40.1747 52.151 40.1687 52.1338 40.1634C51.9781 40.0896 51.8577 39.9574 51.7987 39.7954L51.4512 38.2312C51.3685 37.8996 51.1794 37.6042 50.9128 37.3903C50.6462 37.1765 50.3168 37.0559 49.9752 37.0472H49.3023C48.9607 37.0558 48.6313 37.1763 48.3648 37.3901C48.0982 37.6039 47.9092 37.8993 47.8266 38.2309L47.4787 39.796C47.4195 39.9576 47.2991 40.0896 47.1436 40.1634C47.1265 40.1684 47.1096 40.1748 47.0928 40.1816L46.0441 40.6136C46.0256 40.6208 46.0075 40.6291 45.9899 40.6385C45.9219 40.6667 45.8486 40.6799 45.7749 40.6772C45.6785 40.6803 45.5828 40.6595 45.4964 40.6166L44.1442 39.7566C43.85 39.5851 43.5085 39.5125 43.17 39.5496C42.8314 39.5868 42.5138 39.7316 42.2638 39.9628L41.7877 40.4386C41.5523 40.6863 41.4046 41.0044 41.3674 41.3442C41.3301 41.6839 41.4053 42.0264 41.5814 42.3193L42.4421 43.6715C42.5141 43.8266 42.5218 44.0039 42.4636 44.1647C42.4545 44.1826 42.4458 44.2007 42.4384 44.2189L42.0067 45.2679C42 45.2844 41.9936 45.3012 41.9882 45.3184C41.9145 45.4742 41.7824 45.5947 41.6205 45.6538L40.0563 46.001C39.7246 46.0836 39.4292 46.2727 39.2154 46.5393C39.0015 46.8059 38.881 47.1353 38.8723 47.477V48.15C38.881 48.4916 39.0014 48.8209 39.2152 49.0875C39.429 49.354 39.7244 49.5431 40.0559 49.6257L41.6208 49.9732C41.7826 50.0324 41.9145 50.1529 41.9882 50.3087C41.9936 50.3258 42 50.3427 42.0067 50.3591L42.4383 51.4081C42.4457 51.4263 42.4542 51.4441 42.4636 51.462C42.5218 51.6229 42.514 51.8004 42.4417 51.9555L41.5814 53.3077C41.4052 53.6006 41.33 53.9432 41.3672 54.2829C41.4045 54.6226 41.5522 54.9408 41.7877 55.1885L42.2637 55.6646C42.5139 55.8957 42.8316 56.0405 43.1701 56.0776C43.5087 56.1147 43.8502 56.0422 44.1445 55.8708L45.496 55.0105C45.5825 54.9674 45.6783 54.9466 45.7749 54.9499C45.8485 54.947 45.9219 54.9602 45.9899 54.9886C46.0077 54.9974 46.0256 55.0061 46.0441 55.0135L47.0928 55.4455C47.1096 55.4522 47.1264 55.4583 47.1436 55.4637C47.2992 55.5376 47.4195 55.6696 47.4787 55.8314L47.8266 57.3959C47.909 57.7276 48.0981 58.023 48.3646 58.2369C48.6312 58.4508 48.9606 58.5713 49.3023 58.5799H49.9752C50.3168 58.5712 50.6461 58.4507 50.9127 58.2368C51.1792 58.0229 51.3683 57.7275 51.4508 57.3959L51.7987 55.8314C51.8578 55.6696 51.9781 55.5375 52.1338 55.4637C52.151 55.4583 52.1678 55.4523 52.1843 55.4455L53.233 55.0135C53.2515 55.0061 53.2697 54.9974 53.2872 54.9886C53.3551 54.9603 53.4283 54.9471 53.5018 54.9499C53.5983 54.9465 53.6941 54.9673 53.7804 55.0105L55.1329 55.8705C55.4271 56.0422 55.7687 56.1148 56.1073 56.0777C56.4459 56.0407 56.7636 55.8958 57.0137 55.6646L57.4894 55.1889C57.7249 54.9411 57.8726 54.6229 57.9099 54.2831C57.9472 53.9434 57.8721 53.6007 57.696 53.3078L56.8354 51.9556C56.7995 51.8788 56.7792 51.7957 56.7755 51.7111C56.7718 51.6265 56.7848 51.5419 56.8138 51.4623C56.8229 51.4445 56.8313 51.4267 56.8387 51.4085L57.2704 50.3591C57.2776 50.3427 57.2837 50.3258 57.2889 50.3087C57.3627 50.1528 57.4949 50.0323 57.657 49.9732L59.2208 49.6257C59.5525 49.5432 59.848 49.3542 60.0619 49.0877C60.2759 48.8211 60.3964 48.4917 60.4051 48.15V47.4771C60.3965 47.1355 60.276 46.8061 60.0621 46.5395C59.8482 46.273 59.5528 46.0839 59.2212 46.0015V46.0015Z" fill="#1F56A3"/>
<path opacity="0.2" d="M53.0032 47.8136C53.0032 48.479 52.8059 49.1295 52.4362 49.6828C52.0665 50.2361 51.541 50.6673 50.9262 50.922C50.3114 51.1766 49.6349 51.2433 48.9823 51.1134C48.3296 50.9836 47.7301 50.6632 47.2596 50.1926C46.7891 49.7221 46.4686 49.1226 46.3388 48.47C46.209 47.8173 46.2756 47.1408 46.5303 46.526C46.7849 45.9113 47.2162 45.3858 47.7695 45.0161C48.3228 44.6464 48.9732 44.4491 49.6387 44.4491C50.5307 44.4502 51.3858 44.805 52.0166 45.4357C52.6473 46.0664 53.0021 46.9216 53.0032 47.8136V47.8136Z" fill="#1F56A3"/>
<g opacity="0.2">
<path opacity="0.2" d="M43.4243 61.9928C44.223 61.1688 45.1827 60.518 46.2437 60.0807C47.3016 59.6426 48.4355 59.4176 49.5806 59.4186C50.7535 59.4235 51.9137 59.663 52.9927 60.1231C54.0419 60.5771 54.9989 61.2199 55.8159 62.0196C56.6234 62.8156 57.2665 63.7626 57.7085 64.8067C58.1622 65.8721 58.3938 67.0189 58.3892 68.1769L58.3877 68.202H65.9839V68.2018C65.9922 66.0433 65.5714 63.9048 64.7459 61.9104C63.9204 59.9161 62.7067 58.1057 61.1753 56.5846C59.6774 55.1125 57.9168 53.9341 55.9849 53.1104C53.9625 52.2485 51.7848 51.8107 49.5864 51.8243C47.446 51.8392 45.3279 52.2613 43.3452 53.068C41.3527 53.8856 39.5443 55.0943 38.0269 56.6227L36.6128 58.0372L42.0103 63.4337L43.4243 61.9928Z" fill="#00244D"/>
<path opacity="0.2" d="M57.894 68.202C57.894 68.1878 57.896 68.1744 57.896 68.1603C57.8816 67.0572 57.6562 65.9671 57.2319 64.9488C56.6034 63.4478 55.5428 62.1675 54.185 61.2706C52.8271 60.3737 51.2332 59.9007 49.606 59.9117L49.4946 59.9146C48.6713 59.9611 47.8558 60.099 47.063 60.3258C46.1713 60.5785 45.3374 61.0026 44.6079 61.5743C43.9393 62.1001 43.347 62.7164 42.8481 63.4053C42.6183 63.7228 42.4123 64.0569 42.2319 64.4048H23.0171V68.202H57.894Z" fill="#00244D"/>
</g>
<path d="M25.0173 69.9991V66.4048H43.5686C43.7648 65.7507 44.0684 65.1338 44.4672 64.5795C44.8568 64.0403 45.32 63.5582 45.8432 63.1474C46.3684 62.735 46.9695 62.4297 47.6123 62.2488C48.2623 62.0624 48.931 61.9494 49.6061 61.9118C50.4444 61.9036 51.2756 62.066 52.0491 62.3891C53.552 63.0308 54.7491 64.2279 55.3908 65.7308C55.7163 66.5144 55.8879 67.3534 55.8962 68.2019C55.9008 69.0399 55.7385 69.8703 55.4189 70.6449C55.1121 71.3955 54.6532 72.0743 54.071 72.6387C53.49 73.2007 52.8153 73.6569 52.0772 73.9866C51.2991 74.3296 50.4564 74.502 49.6061 74.492C48.9294 74.4945 48.2565 74.3903 47.6123 74.1831C46.9815 73.9802 46.3919 73.6664 45.8713 73.2565C45.3488 72.8463 44.8774 72.3749 44.4673 71.8525C44.0432 71.3032 43.7372 70.6722 43.5687 69.9991L25.0173 69.9991Z" fill="#C3F1FF"/>
<path d="M49.606 57.4188C48.1897 57.4139 46.7865 57.6907 45.4781 58.2332C44.1694 58.7749 42.9846 59.5775 41.9961 60.592L39.4407 58.0366C40.7695 56.6952 42.3549 55.6352 44.1022 54.9196C45.8501 54.2068 47.7183 53.8351 49.606 53.8244C51.5261 53.8115 53.4282 54.1938 55.1942 54.9477C56.8984 55.6719 58.4511 56.7102 59.7714 58.0085C61.7921 60.0369 63.1645 62.62 63.7145 65.4298C64.2645 68.2396 63.9672 71.1495 62.8603 73.7901C62.1361 75.4943 61.0978 77.047 59.7995 78.3673C58.4642 79.7098 56.8755 80.7735 55.1256 81.4966C53.3756 82.2197 51.4994 82.5878 49.606 82.5794C47.7192 82.5875 45.8492 82.2249 44.1021 81.5124C42.3498 80.7934 40.7634 79.723 39.4407 78.3673L41.9961 75.8119C42.9846 76.8264 44.1693 77.629 45.4781 78.1707C46.7864 78.7132 48.1896 78.99 49.606 78.9851C51.0219 78.9903 52.4246 78.7122 53.7315 78.1673C55.0384 77.6223 56.2231 76.8215 57.216 75.8119C58.1882 74.8217 58.9689 73.6602 59.5187 72.386C60.0867 71.0639 60.3827 69.6409 60.3892 68.2019C60.3944 66.786 60.1163 65.3833 59.5714 64.0764C59.0264 62.7695 58.2256 61.5847 57.216 60.5919C56.2258 59.6197 55.0643 58.8391 53.7901 58.2893C52.468 57.7213 51.045 57.4252 49.606 57.4188V57.4188Z" fill="#50E6FF"/>
</g>
<defs>
<linearGradient id="paint0_linear_973_859" x1="47.8697" y1="-15.1531" x2="51.8525" y2="130.615" gradientUnits="userSpaceOnUse">
<stop stop-color="#00ABDE"/>
<stop offset="1" stop-color="#007ED8"/>
</linearGradient>
<clipPath id="clip0_973_859">
<rect width="99.2799" height="99.28" fill="white"/>
</clipPath>
</defs>
</svg>
