<svg width="100" height="100" viewBox="0 0 100 100" fill="none" xmlns="http://www.w3.org/2000/svg">
<g clip-path="url(#clip0_932_1202)">
<path d="M49.6401 96.4499C40.382 96.4499 31.3317 93.7045 23.6339 88.561C15.936 83.4174 9.93624 76.1067 6.3933 67.5533C2.85036 58.9999 1.92337 49.588 3.72954 40.5077C5.53571 31.4275 9.99394 23.0867 16.5404 16.5402C23.0869 9.99372 31.4277 5.5355 40.5079 3.72933C49.5882 1.92315 59.0001 2.85015 67.5535 6.39308C76.1069 9.93602 83.4176 15.9358 88.5612 23.6336C93.7047 31.3315 96.4501 40.3817 96.4501 49.6399C96.4505 55.7872 95.24 61.8744 92.8878 67.5538C90.5355 73.2332 87.0875 78.3937 82.7407 82.7405C78.3939 87.0873 73.2335 90.5353 67.554 92.8876C61.8746 95.2398 55.7874 96.4503 49.6401 96.4499V96.4499Z" fill="url(#paint0_linear_932_1202)"/>
<path fill-rule="evenodd" clip-rule="evenodd" d="M95.54 49.6399C95.54 58.718 92.848 67.5923 87.8045 75.1406C82.7609 82.6888 75.5923 88.5719 67.2052 92.046C58.818 95.52 49.5891 96.429 40.6854 94.6579C31.7816 92.8869 23.603 88.5153 17.1838 82.0961C10.7646 75.6769 6.39302 67.4983 4.62196 58.5945C2.85089 49.6908 3.75987 40.4618 7.23393 32.0747C10.708 23.6876 16.5911 16.519 24.1393 11.4754C31.6875 6.43187 40.5618 3.73988 49.64 3.73988C55.6677 3.73986 61.6363 4.92708 67.2052 7.23377C72.774 9.54045 77.834 12.9214 82.0963 17.1836C86.3585 21.4458 89.7394 26.5058 92.0461 32.0747C94.3528 37.6435 95.54 43.6122 95.54 49.6399V49.6399ZM49.64 -0.000106449C59.4579 -0.000106449 69.0552 2.91123 77.2185 8.36574C85.3818 13.8203 91.7442 21.573 95.5014 30.6435C99.2585 39.714 100.242 49.695 98.3262 59.3242C96.4108 68.9534 91.6831 77.7984 84.7408 84.7407C77.7985 91.683 68.9535 96.4107 59.3243 98.3261C49.6951 100.241 39.7141 99.2584 30.6436 95.5013C21.5731 91.7441 13.8204 85.3816 8.36584 77.2184C2.91133 69.0551 -1.61629e-06 59.4577 3.61524e-07 49.6399C-0.000786426 43.1208 1.28265 36.6655 3.77702 30.6425C6.27138 24.6196 9.92781 19.147 14.5375 14.5374C19.1471 9.9277 24.6197 6.27127 30.6427 3.77691C36.6656 1.28254 43.121 -0.000894549 49.64 -0.000106449V-0.000106449Z" fill="#F2F1F0"/>
<path fill-rule="evenodd" clip-rule="evenodd" d="M92.7296 49.64C92.7296 58.1624 90.2024 66.4934 85.4676 73.5795C80.7328 80.6656 74.0031 86.1886 66.1294 89.45C58.2557 92.7113 49.5918 93.5647 41.2331 91.902C32.8745 90.2394 25.1966 86.1355 19.1703 80.1092C13.1441 74.083 9.04017 66.4051 7.37753 58.0464C5.7149 49.6878 6.56822 41.0238 9.8296 33.1502C13.091 25.2765 18.6139 18.5468 25.7 13.812C32.7862 9.07718 41.1172 6.55 49.6396 6.55C55.2983 6.54965 60.9017 7.66397 66.1298 9.82933C71.3579 11.9947 76.1082 15.1687 80.1096 19.17C84.1109 23.1713 87.2849 27.9217 89.4502 33.1498C91.6156 38.3778 92.7299 43.9812 92.7296 49.64ZM49.6396 2.81C58.9017 2.81 67.9558 5.55653 75.6569 10.7023C83.3581 15.848 89.3604 23.1619 92.9049 31.7189C96.4493 40.276 97.3767 49.6919 95.5697 58.7761C93.7628 67.8602 89.3027 76.2045 82.7534 82.7538C76.2041 89.3031 67.8598 93.7632 58.7757 95.5702C49.6915 97.3771 40.2756 96.4497 31.7185 92.9053C23.1614 89.3608 15.8476 83.3585 10.7018 75.6574C5.5561 67.9562 2.80957 58.9021 2.80957 49.64C2.81076 37.2203 7.74501 25.3096 16.5271 16.5275C25.3091 7.74544 37.2198 2.81119 49.6396 2.81V2.81Z" fill="#0078D4"/>
<path fill-rule="evenodd" clip-rule="evenodd" d="M92.7296 49.6399C92.7296 58.1623 90.2024 66.4933 85.4676 73.5794C80.7328 80.6655 74.0031 86.1885 66.1294 89.4499C58.2557 92.7112 49.5918 93.5646 41.2331 91.9019C32.8745 90.2393 25.1966 86.1354 19.1703 80.1091C13.1441 74.0829 9.04017 66.405 7.37753 58.0463C5.7149 49.6877 6.56822 41.0237 9.8296 33.1501C13.091 25.2764 18.6139 18.5467 25.7001 13.8119C32.7862 9.07708 41.1172 6.5499 49.6396 6.5499C55.2983 6.54956 60.9017 7.66388 66.1298 9.82923C71.3579 11.9946 76.1082 15.1686 80.1096 19.1699C84.1109 23.1712 87.2849 27.9216 89.4502 33.1497C91.6156 38.3777 92.7299 43.9811 92.7296 49.6399V49.6399ZM49.6396 2.8099C58.9017 2.8099 67.9558 5.55643 75.6569 10.7022C83.3581 15.8479 89.3604 23.1618 92.9048 31.7188C96.4493 40.2759 97.3767 49.6918 95.5697 58.776C93.7628 67.8601 89.3027 76.2044 82.7534 82.7537C76.2041 89.303 67.8598 93.7631 58.7757 95.5701C49.6915 97.377 40.2756 96.4496 31.7185 92.9052C23.1614 89.3607 15.8476 83.3584 10.7018 75.6573C5.5561 67.9561 2.80957 58.902 2.80957 49.6399C2.81075 37.2202 7.74499 25.3095 16.5271 16.5274C25.3091 7.7453 37.2198 2.81105 49.6396 2.80986V2.8099Z" fill="#0078D4"/>
<path d="M34.3186 52.8066C33.5805 52.8088 32.8732 53.103 32.3512 53.6249C31.8293 54.1468 31.5351 54.8541 31.533 55.5923V75.0916H67.746V55.5923C67.7439 54.8541 67.4497 54.1469 66.9278 53.6249C66.4058 53.103 65.6985 52.8088 64.9604 52.8066H34.3186ZM64.9604 54.1994C65.3296 54.1999 65.6836 54.3468 65.9447 54.6079C66.2058 54.869 66.3527 55.223 66.3532 55.5923V73.6988H32.9258V55.5923C32.9261 55.223 33.073 54.8689 33.3341 54.6078C33.5953 54.3467 33.9493 54.1998 34.3186 54.1994H64.9604Z" fill="url(#paint1_linear_932_1202)"/>
<path d="M32.9258 55.5923C32.9262 55.223 33.073 54.8689 33.3341 54.6078C33.5953 54.3467 33.9493 54.1998 34.3186 54.1994H64.9604C65.3296 54.1999 65.6836 54.3468 65.9447 54.6079C66.2058 54.869 66.3527 55.223 66.3532 55.5923V73.6988H32.9258V55.5923Z" fill="url(#paint2_linear_932_1202)"/>
<path d="M27.3545 75.0916V75.788C27.3567 76.5261 27.6508 77.2334 28.1728 77.7553C28.6947 78.2773 29.402 78.5715 30.1401 78.5736H69.1388C69.8769 78.5715 70.5842 78.2773 71.1061 77.7553C71.6281 77.2334 71.9222 76.5261 71.9244 75.788V75.0916H27.3545Z" fill="url(#paint3_linear_932_1202)"/>
<path fill-rule="evenodd" clip-rule="evenodd" d="M46.8538 76.4844H52.425C52.7944 76.4843 53.1486 76.3375 53.4097 76.0763C53.6709 75.8151 53.8177 75.461 53.8178 75.0916H45.4609C45.461 75.461 45.6077 75.8153 45.8689 76.0765C46.1301 76.3377 46.4844 76.4844 46.8538 76.4844V76.4844Z" fill="#003067"/>
<path opacity="0.2" fill-rule="evenodd" clip-rule="evenodd" d="M47.532 52.8069L32.167 57.3679L40.708 63.4689L42.94 74.0649L48.104 68.8999L52.629 72.4699L63.507 52.8069H47.532Z" fill="#003067"/>
<path fill-rule="evenodd" clip-rule="evenodd" d="M61.5995 51.1885L42.9106 62.028L37.6777 58.2902L61.5995 51.1885Z" fill="white"/>
<path fill-rule="evenodd" clip-rule="evenodd" d="M61.5995 51.1885L51.8813 68.756L47.9118 65.6241L44.7795 63.1493L61.5995 51.1885Z" fill="white"/>
<path fill-rule="evenodd" clip-rule="evenodd" d="M47.9118 65.6241L44.4058 69.1298L44.7795 63.1493L47.9118 65.6241Z" fill="#B3B3B3"/>
<path fill-rule="evenodd" clip-rule="evenodd" d="M61.5995 51.1885L44.7795 63.1493L44.4058 69.1298L42.9106 62.028L61.5995 51.1885Z" fill="#E8E8E8"/>
<path d="M49.6401 49.7245V48.0592C49.6401 47.0854 49.2533 46.1515 48.5647 45.4629C47.8761 44.7743 46.9422 44.3875 45.9684 44.3875H33.4216C32.4478 44.3875 31.514 44.0006 30.8254 43.312C30.1368 42.6235 29.75 41.6896 29.75 40.7158V39.7689" stroke="white" stroke-miterlimit="10"/>
<path d="M49.6401 49.7245V48.0592C49.6401 47.0854 50.027 46.1515 50.7155 45.4629C51.4041 44.7743 52.338 44.3875 53.3118 44.3875H65.8586C66.8324 44.3875 67.7663 44.0006 68.4549 43.3121C69.1434 42.6235 69.5303 41.6896 69.5303 40.7158V39.7689" stroke="white" stroke-miterlimit="10"/>
<path d="M49.6404 48.0592V39.7689" stroke="white" stroke-miterlimit="10"/>
<path opacity="0.2" d="M21.7384 35.358H37.7616C37.8458 35.3577 37.9264 35.3242 37.986 35.2647C38.0455 35.2051 38.0791 35.1245 38.0793 35.0403V22.5304H21.4207V35.0403C21.4209 35.1245 21.4545 35.2052 21.514 35.2647C21.5735 35.3242 21.6542 35.3577 21.7384 35.358Z" fill="#003067"/>
<path d="M21.7384 34.7039H37.7616C37.8458 34.7037 37.9264 34.6701 37.986 34.6106C38.0455 34.5511 38.0791 34.4704 38.0793 34.3862V21.8764H21.4207V34.3862C21.4209 34.4704 21.4545 34.5511 21.514 34.6106C21.5735 34.6701 21.6542 34.7037 21.7384 34.7039V34.7039Z" fill="#F2F2F2"/>
<path d="M21.4207 23.261H38.0793V21.7678C38.0794 21.7358 38.0731 21.7041 38.0609 21.6745C38.0487 21.6449 38.0308 21.618 38.0082 21.5954C37.9855 21.5727 37.9586 21.5548 37.929 21.5426C37.8994 21.5304 37.8677 21.5241 37.8357 21.5242H21.6642C21.6322 21.5241 21.6005 21.5304 21.5709 21.5426C21.5413 21.5548 21.5144 21.5727 21.4918 21.5954C21.4692 21.618 21.4512 21.6449 21.439 21.6745C21.4268 21.7041 21.4206 21.7358 21.4207 21.7678V23.261Z" fill="url(#paint4_linear_932_1202)"/>
<path d="M22.7022 22.8506C22.7857 22.8504 22.8673 22.8253 22.9366 22.7787C23.0059 22.7321 23.0598 22.666 23.0915 22.5887C23.1233 22.5114 23.1314 22.4265 23.1148 22.3446C23.0983 22.2628 23.0578 22.1877 22.9986 22.1288C22.9393 22.0699 22.864 22.0299 22.782 22.0139C22.7 21.9978 22.6151 22.0065 22.5381 22.0387C22.461 22.0709 22.3952 22.1252 22.349 22.1948C22.3028 22.2644 22.2783 22.3461 22.2786 22.4296C22.2781 22.4852 22.2888 22.5404 22.3099 22.5919C22.3311 22.6433 22.3623 22.69 22.4018 22.7293C22.4413 22.7685 22.4882 22.7994 22.5397 22.8202C22.5913 22.8411 22.6466 22.8514 22.7022 22.8506Z" fill="white"/>
<path d="M36.6027 24.3359H22.8942C22.7136 24.3359 22.5671 24.4823 22.5671 24.6629V33.1848C22.5671 33.3654 22.7136 33.5118 22.8942 33.5118H36.6027C36.7833 33.5118 36.9298 33.3654 36.9298 33.1848V24.6629C36.9298 24.4823 36.7833 24.3359 36.6027 24.3359Z" fill="#E8E8E8"/>
<path d="M32.1674 26.5049H27.3293V31.3429H32.1674V26.5049Z" fill="#0078D4"/>
<path opacity="0.2" d="M41.6278 35.358H57.651C57.7352 35.3577 57.8159 35.3242 57.8754 35.2647C57.9349 35.2051 57.9685 35.1245 57.9687 35.0403V22.5304H41.3101V35.0403C41.3103 35.1245 41.3439 35.2052 41.4034 35.2647C41.4629 35.3242 41.5436 35.3577 41.6278 35.358Z" fill="#003067"/>
<path d="M41.6278 34.7039H57.651C57.7352 34.7037 57.8159 34.6701 57.8754 34.6106C57.9349 34.5511 57.9685 34.4704 57.9687 34.3862V21.8764H41.3101V34.3862C41.3103 34.4704 41.3439 34.5511 41.4034 34.6106C41.4629 34.6701 41.5436 34.7037 41.6278 34.7039Z" fill="#F2F2F2"/>
<path d="M41.3101 23.261H57.9687V21.7678C57.9688 21.7358 57.9626 21.7041 57.9503 21.6745C57.9381 21.6449 57.9202 21.618 57.8976 21.5954C57.8749 21.5727 57.848 21.5548 57.8185 21.5426C57.7889 21.5304 57.7572 21.5241 57.7251 21.5242H41.5536C41.5216 21.5241 41.4899 21.5304 41.4603 21.5426C41.4307 21.5548 41.4039 21.5727 41.3812 21.5954C41.3586 21.618 41.3406 21.6449 41.3284 21.6745C41.3162 21.7041 41.31 21.7358 41.3101 21.7678V23.261Z" fill="url(#paint5_linear_932_1202)"/>
<path d="M42.5916 22.8506C42.6751 22.8504 42.7567 22.8253 42.826 22.7787C42.8953 22.7321 42.9492 22.666 42.9809 22.5887C43.0127 22.5114 43.0208 22.4265 43.0042 22.3446C42.9877 22.2628 42.9472 22.1877 42.888 22.1288C42.8287 22.0699 42.7534 22.0299 42.6714 22.0139C42.5894 21.9978 42.5045 22.0065 42.4275 22.0387C42.3504 22.0709 42.2846 22.1252 42.2384 22.1948C42.1922 22.2644 42.1677 22.3461 42.168 22.4296C42.1675 22.4852 42.1782 22.5404 42.1993 22.5919C42.2205 22.6433 42.2517 22.69 42.2912 22.7293C42.3307 22.7685 42.3776 22.7994 42.4291 22.8202C42.4807 22.8411 42.536 22.8514 42.5916 22.8506V22.8506Z" fill="#50E6FF"/>
<path d="M56.4921 24.3359H42.7836C42.603 24.3359 42.4565 24.4823 42.4565 24.6629V33.1848C42.4565 33.3654 42.603 33.5118 42.7836 33.5118H56.4921C56.6728 33.5118 56.8192 33.3654 56.8192 33.1848V24.6629C56.8192 24.4823 56.6728 24.3359 56.4921 24.3359Z" fill="#E8E8E8"/>
<path d="M51.0836 26.5252H48.1968C47.658 26.5252 47.2212 26.962 47.2212 27.5008V30.3877C47.2212 30.9265 47.658 31.3632 48.1968 31.3632H51.0836C51.6224 31.3632 52.0592 30.9265 52.0592 30.3877V27.5008C52.0592 26.962 51.6224 26.5252 51.0836 26.5252Z" fill="#0078D4"/>
<path opacity="0.2" d="M61.5186 35.358H77.5419C77.6261 35.3577 77.7067 35.3242 77.7663 35.2647C77.8258 35.2051 77.8593 35.1245 77.8596 35.0403V22.5304H61.2009V35.0403C61.2012 35.1245 61.2347 35.2052 61.2943 35.2647C61.3538 35.3242 61.4345 35.3577 61.5186 35.358V35.358Z" fill="#003067"/>
<path d="M61.5186 34.7039H77.5419C77.6261 34.7037 77.7067 34.6701 77.7663 34.6106C77.8258 34.5511 77.8593 34.4704 77.8596 34.3862V21.8764H61.2009V34.3862C61.2012 34.4704 61.2347 34.5511 61.2943 34.6106C61.3538 34.6701 61.4345 34.7037 61.5186 34.7039V34.7039Z" fill="#F2F2F2"/>
<path d="M61.2009 23.261H77.8596V21.7678C77.8597 21.7358 77.8534 21.7041 77.8412 21.6745C77.829 21.6449 77.8111 21.618 77.7884 21.5954C77.7658 21.5727 77.7389 21.5548 77.7093 21.5426C77.6797 21.5304 77.648 21.5241 77.616 21.5242H61.4445C61.4125 21.5241 61.3808 21.5304 61.3512 21.5426C61.3216 21.5548 61.2947 21.5727 61.2721 21.5954C61.2494 21.618 61.2315 21.6449 61.2193 21.6745C61.2071 21.7041 61.2008 21.7358 61.2009 21.7678V23.261Z" fill="url(#paint6_linear_932_1202)"/>
<path d="M62.4825 22.8506C62.566 22.8503 62.6476 22.8253 62.7169 22.7787C62.7862 22.7321 62.8401 22.666 62.8718 22.5887C62.9035 22.5114 62.9116 22.4265 62.8951 22.3446C62.8785 22.2628 62.8381 22.1877 62.7788 22.1288C62.7196 22.0699 62.6442 22.0299 62.5623 22.0139C62.4803 21.9978 62.3954 22.0065 62.3183 22.0387C62.2413 22.0709 62.1755 22.1252 62.1293 22.1948C62.0831 22.2644 62.0586 22.3461 62.0589 22.4296C62.0584 22.4852 62.0691 22.5404 62.0902 22.5919C62.1114 22.6433 62.1426 22.69 62.1821 22.7293C62.2215 22.7685 62.2684 22.7994 62.32 22.8203C62.3716 22.8411 62.4268 22.8514 62.4825 22.8506V22.8506Z" fill="#0078D4"/>
<path d="M76.383 24.3359H62.6744C62.4938 24.3359 62.3474 24.4823 62.3474 24.6629V33.1848C62.3474 33.3654 62.4938 33.5118 62.6744 33.5118H76.383C76.5636 33.5118 76.71 33.3654 76.71 33.1848V24.6629C76.71 24.4823 76.5636 24.3359 76.383 24.3359Z" fill="#E8E8E8"/>
<path d="M69.5286 26.5049H69.5286C68.1926 26.5049 67.1096 27.5879 67.1096 28.9239V28.9239C67.1096 30.2598 68.1926 31.3429 69.5286 31.3429H69.5286C70.8646 31.3429 71.9476 30.2598 71.9476 28.9239V28.9239C71.9476 27.5879 70.8646 26.5049 69.5286 26.5049Z" fill="#0078D4"/>
</g>
<defs>
<linearGradient id="paint0_linear_932_1202" x1="47.8698" y1="-15.1532" x2="51.8525" y2="130.615" gradientUnits="userSpaceOnUse">
<stop stop-color="#00ABDE"/>
<stop offset="1" stop-color="#007ED8"/>
</linearGradient>
<linearGradient id="paint1_linear_932_1202" x1="49.6395" y1="75.0916" x2="49.6395" y2="52.7667" gradientUnits="userSpaceOnUse">
<stop stop-color="#003067"/>
<stop offset="0.16493" stop-color="#003F7C"/>
<stop offset="0.36216" stop-color="#004F90"/>
<stop offset="0.68089" stop-color="#00589D"/>
<stop offset="1" stop-color="#005BA1"/>
</linearGradient>
<linearGradient id="paint2_linear_932_1202" x1="49.6395" y1="73.6988" x2="49.6395" y2="54.1645" gradientUnits="userSpaceOnUse">
<stop stop-color="#005BA1"/>
<stop offset="0.26" stop-color="#00589D"/>
<stop offset="0.53" stop-color="#004F90"/>
<stop offset="0.8" stop-color="#003F7C"/>
<stop offset="1" stop-color="#003067"/>
</linearGradient>
<linearGradient id="paint3_linear_932_1202" x1="49.6394" y1="78.5736" x2="49.6394" y2="75.0916" gradientUnits="userSpaceOnUse">
<stop stop-color="#004DAE"/>
<stop offset="0.21" stop-color="#0061C4"/>
<stop offset="0.51" stop-color="#0078DD"/>
<stop offset="0.78" stop-color="#0086EC"/>
<stop offset="1" stop-color="#008BF1"/>
</linearGradient>
<linearGradient id="paint4_linear_932_1202" x1="21.4207" y1="22.3926" x2="38.1092" y2="22.3926" gradientUnits="userSpaceOnUse">
<stop stop-color="#C3F1FF"/>
<stop offset="1" stop-color="white"/>
</linearGradient>
<linearGradient id="paint5_linear_932_1202" x1="41.3101" y1="22.3926" x2="57.9986" y2="22.3926" gradientUnits="userSpaceOnUse">
<stop stop-color="#0078D4"/>
<stop offset="1" stop-color="#6BB9F2"/>
</linearGradient>
<linearGradient id="paint6_linear_932_1202" x1="61.2009" y1="22.3926" x2="77.8894" y2="22.3926" gradientUnits="userSpaceOnUse">
<stop stop-color="#003067"/>
<stop offset="0.2" stop-color="#003F7C"/>
<stop offset="0.47" stop-color="#004F90"/>
<stop offset="0.74" stop-color="#00589D"/>
<stop offset="1" stop-color="#005BA1"/>
</linearGradient>
<clipPath id="clip0_932_1202">
<rect width="99.2799" height="99.28" fill="white"/>
</clipPath>
</defs>
</svg>
