<svg width="100" height="100" viewBox="0 0 100 100" fill="none" xmlns="http://www.w3.org/2000/svg">
<g clip-path="url(#clip0_970_831)">
<path d="M49.6401 96.45C40.382 96.45 31.3317 93.7047 23.6339 88.5611C15.936 83.4176 9.93624 76.1068 6.3933 67.5534C2.85036 59 1.92337 49.5881 3.72954 40.5078C5.53571 31.4276 9.99394 23.0868 16.5404 16.5403C23.0869 9.99384 31.4277 5.53562 40.5079 3.72945C49.5882 1.92327 59.0001 2.85027 67.5535 6.39321C76.1069 9.93614 83.4176 15.9359 88.5612 23.6338C93.7047 31.3316 96.4501 40.3819 96.4501 49.64C96.4505 55.7873 95.24 61.8745 92.8878 67.5539C90.5355 73.2334 87.0875 78.3938 82.7407 82.7406C78.3939 87.0874 73.2335 90.5354 67.554 92.8877C61.8746 95.2399 55.7874 96.4504 49.6401 96.45V96.45Z" fill="url(#paint0_linear_970_831)"/>
<path fill-rule="evenodd" clip-rule="evenodd" d="M95.54 49.64C95.54 58.7182 92.848 67.5925 87.8045 75.1407C82.7609 82.6889 75.5923 88.572 67.2052 92.0461C58.818 95.5201 49.5891 96.4291 40.6854 94.658C31.7816 92.887 23.603 88.5154 17.1838 82.0962C10.7646 75.677 6.39302 67.4984 4.62196 58.5946C2.85089 49.6909 3.75987 40.462 7.23393 32.0748C10.708 23.6877 16.5911 16.5191 24.1393 11.4755C31.6875 6.43199 40.5618 3.74 49.64 3.74C55.6677 3.73998 61.6363 4.9272 67.2052 7.23388C72.774 9.54057 77.834 12.9215 82.0963 17.1837C86.3585 21.446 89.7394 26.5059 92.0461 32.0748C94.3528 37.6437 95.54 43.6123 95.54 49.64V49.64ZM49.64 3.62732e-07C59.4579 3.62732e-07 69.0553 2.91134 77.2185 8.36585C85.3818 13.8204 91.7442 21.5731 95.5014 30.6436C99.2585 39.7141 100.242 49.6951 98.3262 59.3243C96.4108 68.9535 91.6831 77.7985 84.7408 84.7408C77.7985 91.6831 68.9535 96.4108 59.3243 98.3262C49.6951 100.242 39.7141 99.2585 30.6436 95.5014C21.5731 91.7442 13.8204 85.3818 8.36585 77.2185C2.91134 69.0553 3.62732e-07 59.4579 3.62732e-07 49.64C-0.000787738 43.121 1.28265 36.6656 3.77702 30.6427C6.27138 24.6197 9.9278 19.1471 14.5375 14.5375C19.1471 9.9278 24.6197 6.27138 30.6427 3.77702C36.6656 1.28265 43.121 -0.000787738 49.64 3.62732e-07V3.62732e-07Z" fill="#F2F1F0"/>
<path fill-rule="evenodd" clip-rule="evenodd" d="M92.7296 49.6401C92.7296 58.1625 90.2024 66.4935 85.4676 73.5796C80.7328 80.6657 74.0031 86.1887 66.1294 89.4501C58.2557 92.7114 49.5918 93.5648 41.2331 91.9021C32.8745 90.2395 25.1966 86.1356 19.1703 80.1093C13.1441 74.0831 9.04017 66.4052 7.37753 58.0465C5.7149 49.6879 6.56822 41.0239 9.8296 33.1503C13.091 25.2766 18.6139 18.5469 25.7 13.8121C32.7862 9.07727 41.1172 6.55009 49.6396 6.55009C55.2983 6.54974 60.9017 7.66407 66.1298 9.82942C71.3579 11.9948 76.1082 15.1687 80.1096 19.1701C84.1109 23.1714 87.2849 27.9218 89.4502 33.1499C91.6156 38.3779 92.7299 43.9813 92.7296 49.6401V49.6401ZM49.6396 2.81009C58.9017 2.81009 67.9558 5.55662 75.6569 10.7024C83.3581 15.8481 89.3604 23.162 92.9049 31.719C96.4493 40.2761 97.3767 49.692 95.5697 58.7762C93.7628 67.8603 89.3027 76.2046 82.7534 82.7539C76.2041 89.3032 67.8598 93.7633 58.7757 95.5703C49.6915 97.3772 40.2756 96.4498 31.7185 92.9054C23.1614 89.3609 15.8476 83.3586 10.7018 75.6574C5.5561 67.9563 2.80957 58.9022 2.80957 49.6401C2.81076 37.2204 7.745 25.3097 16.5271 16.5276C25.3091 7.7455 37.2198 2.81125 49.6396 2.81006V2.81009Z" fill="#0078D4"/>
<path fill-rule="evenodd" clip-rule="evenodd" d="M92.7637 49.6401C92.7637 58.1625 90.2366 66.4935 85.5018 73.5796C80.767 80.6657 74.0372 86.1887 66.1636 89.4501C58.2899 92.7114 49.6259 93.5648 41.2673 91.9021C32.9087 90.2395 25.2308 86.1356 19.2045 80.1093C13.1783 74.0831 9.07435 66.4052 7.41171 58.0465C5.74908 49.6879 6.6024 41.0239 9.86378 33.1503C13.1252 25.2766 18.6481 18.5469 25.7342 13.8121C32.8203 9.07727 41.1514 6.55009 49.6738 6.55009C55.3325 6.54974 60.9359 7.66407 66.164 9.82942C71.3921 11.9948 76.1424 15.1687 80.1437 19.1701C84.1451 23.1714 87.3191 27.9218 89.4844 33.1499C91.6498 38.3779 92.7641 43.9813 92.7637 49.6401V49.6401ZM49.6738 2.81009C58.9359 2.81009 67.9899 5.55662 75.6911 10.7024C83.3923 15.8481 89.3946 23.162 92.939 31.719C96.4835 40.2761 97.4109 49.692 95.6039 58.7762C93.797 67.8603 89.3369 76.2046 82.7876 82.7539C76.2383 89.3032 67.894 93.7633 58.8098 95.5703C49.7257 97.3772 40.3097 96.4498 31.7527 92.9054C23.1956 89.3609 15.8818 83.3586 10.736 75.6574C5.59028 67.9563 2.84375 58.9022 2.84375 49.6401C2.84494 37.2204 7.77918 25.3097 16.5612 16.5276C25.3433 7.7455 37.254 2.81125 49.6738 2.81006V2.81009Z" fill="#0078D4"/>
<path d="M25.9499 70.269H73.3292C73.5782 70.2682 73.8167 70.169 73.9927 69.993C74.1688 69.817 74.268 69.5784 74.2687 69.3295V32.3389H25.0105V69.3295C25.0112 69.5784 25.1104 69.817 25.2865 69.993C25.4625 70.169 25.701 70.2682 25.9499 70.269V70.269Z" fill="#003067"/>
<path d="M25.0105 36.4332H74.2687V32.0178C74.269 31.9232 74.2505 31.8294 74.2144 31.7419C74.1783 31.6544 74.1252 31.5749 74.0583 31.508C73.9914 31.4411 73.9119 31.388 73.8244 31.3519C73.7369 31.3158 73.6431 31.2974 73.5485 31.2976H25.7307C25.6361 31.2974 25.5423 31.3158 25.4548 31.3519C25.3673 31.388 25.2878 31.4411 25.2209 31.508C25.154 31.5749 25.1009 31.6544 25.0648 31.7419C25.0287 31.8294 25.0102 31.9232 25.0105 32.0178V36.4332Z" fill="#1F56A3"/>
<path d="M28.7998 35.2196C29.0467 35.2189 29.2879 35.1449 29.4928 35.007C29.6977 34.8692 29.8572 34.6737 29.951 34.4452C30.0448 34.2167 30.0687 33.9656 30.0198 33.7235C29.9708 33.4815 29.8512 33.2593 29.676 33.0852C29.5009 32.9112 29.278 32.7929 29.0356 32.7455C28.7932 32.6981 28.5422 32.7236 28.3144 32.8188C28.0865 32.9141 27.892 33.0747 27.7554 33.2805C27.6189 33.4863 27.5464 33.7279 27.5472 33.9749C27.5458 34.1394 27.5774 34.3025 27.6399 34.4546C27.7025 34.6068 27.7948 34.7449 27.9115 34.8608C28.0282 34.9768 28.1669 35.0683 28.3194 35.1299C28.472 35.1915 28.6353 35.222 28.7998 35.2196V35.2196Z" fill="#50E6FF"/>
<path d="M53.9308 59.1097L54.0034 59.1738C54.136 59.3065 54.2157 59.483 54.2275 59.6703C54.2393 59.8575 54.1823 60.0427 54.0674 60.1909L54.0033 60.2635L50.1525 64.1135C50.0198 64.2461 49.8434 64.3257 49.6563 64.3376C49.4691 64.3494 49.2841 64.2926 49.1358 64.1778L49.0632 64.1138L45.2079 60.2638C45.0693 60.1254 44.9886 59.9392 44.9823 59.7434C44.976 59.5475 45.0446 59.3566 45.1741 59.2095C45.3036 59.0624 45.4843 58.9702 45.6794 58.9516C45.8745 58.933 46.0693 58.9894 46.2243 59.1094L46.2968 59.1734L48.8354 61.7073L48.8353 52.0133C48.8353 51.8245 48.9047 51.6423 49.0301 51.5012C49.1556 51.3601 49.3285 51.27 49.516 51.248L49.6059 51.2428C49.7947 51.2428 49.9769 51.3121 50.118 51.4376C50.259 51.5631 50.3492 51.7359 50.3712 51.9235L50.3764 52.0133L50.3765 61.7096L52.9137 59.1736C53.0464 59.041 53.2229 58.9613 53.4101 58.9495C53.5974 58.9377 53.7825 58.9947 53.9308 59.1096L54.0034 59.1737L53.9308 59.1097Z" fill="#0078D4"/>
<path d="M41.4706 55.0762L41.5432 55.1404C41.6758 55.273 41.7555 55.4496 41.7673 55.6368C41.7791 55.8241 41.7221 56.0092 41.6072 56.1575L41.5431 56.23L37.6923 60.08C37.5596 60.2126 37.3832 60.2922 37.1961 60.3041C37.0089 60.3159 36.8239 60.2591 36.6756 60.1443L36.603 60.0803L32.7477 56.2303C32.6091 56.0918 32.5284 55.9057 32.5221 55.7099C32.5158 55.514 32.5844 55.3231 32.7139 55.176C32.8434 55.0289 33.0241 54.9366 33.2192 54.9181C33.4143 54.8995 33.6091 54.9559 33.7641 55.0759L33.8367 55.1399L36.3752 57.6738L36.3751 47.9798C36.3751 47.791 36.4445 47.6088 36.5699 47.4677C36.6954 47.3266 36.8683 47.2365 37.0558 47.2145L37.1457 47.2093C37.3345 47.2093 37.5167 47.2786 37.6578 47.4041C37.7988 47.5296 37.889 47.7024 37.911 47.8899L37.9162 47.9798L37.9163 57.6761L40.4535 55.1401C40.5862 55.0075 40.7627 54.9278 40.95 54.916C41.1372 54.9042 41.3223 54.9612 41.4706 55.0761L41.5432 55.1402L41.4706 55.0762Z" fill="#0078D4"/>
<path d="M66.3908 55.0762L66.4633 55.1404C66.596 55.273 66.6757 55.4496 66.6875 55.6368C66.6992 55.8241 66.6423 56.0092 66.5273 56.1575L66.4632 56.23L62.6124 60.08C62.4798 60.2126 62.3034 60.2922 62.1162 60.3041C61.9291 60.3159 61.744 60.2591 61.5957 60.1443L61.5231 60.0803L57.6679 56.2303C57.5293 56.0918 57.4486 55.9057 57.4423 55.7099C57.436 55.514 57.5046 55.3231 57.6341 55.176C57.7636 55.0289 57.9443 54.9366 58.1393 54.9181C58.3344 54.8995 58.5293 54.9559 58.6842 55.0759L58.7568 55.1399L61.2954 57.6738L61.2953 47.9798C61.2953 47.791 61.3646 47.6088 61.4901 47.4677C61.6156 47.3266 61.7885 47.2365 61.976 47.2145L62.0658 47.2093C62.2546 47.2093 62.4368 47.2786 62.5779 47.4041C62.719 47.5296 62.8091 47.7024 62.8312 47.8899L62.8363 47.9798L62.8364 57.6761L65.3737 55.1401C65.5063 55.0075 65.6829 54.9278 65.8701 54.916C66.0574 54.9042 66.2425 54.9612 66.3908 55.0761L66.4633 55.1402L66.3908 55.0762Z" fill="#0078D4"/>
<path opacity="0.2" fill-rule="evenodd" clip-rule="evenodd" d="M68.1216 31.2976H31.1577V42.5732H27.354V45.207C27.3555 46.4096 27.8339 47.5624 28.6843 48.4127C29.5346 49.263 30.6876 49.7413 31.8901 49.7426H67.3891C68.5917 49.7413 69.7446 49.263 70.595 48.4127C71.4454 47.5624 71.9238 46.4096 71.9253 45.207V42.5732H68.1216V31.2976Z" fill="#00244D"/>
<path d="M35.6934 24.2878C35.0215 24.2898 34.3777 24.5576 33.9026 25.0327C33.4275 25.5078 33.1597 26.1516 33.1577 26.8235V44.5731H66.1213V26.8235C66.1193 26.1516 65.8516 25.5078 65.3765 25.0327C64.9014 24.5576 64.2575 24.2898 63.5857 24.2878H35.6934ZM63.5857 25.5557C63.9218 25.5561 64.244 25.6898 64.4817 25.9275C64.7193 26.1652 64.853 26.4874 64.8535 26.8235V43.3053H34.4255V26.8235C34.4259 26.4873 34.5596 26.1651 34.7973 25.9274C35.035 25.6897 35.3572 25.556 35.6934 25.5557H63.5857Z" fill="url(#paint1_linear_970_831)"/>
<path d="M34.4255 26.8235C34.4259 26.4873 34.5596 26.1651 34.7973 25.9274C35.035 25.6897 35.3572 25.556 35.6934 25.5557H63.5856C63.9218 25.5561 64.244 25.6898 64.4816 25.9275C64.7193 26.1652 64.853 26.4874 64.8535 26.8235V43.3053H34.4255V26.8235Z" fill="url(#paint2_linear_970_831)"/>
<path d="M29.3542 44.5731V45.2071C29.3562 45.879 29.624 46.5228 30.0991 46.9979C30.5742 47.473 31.2181 47.7408 31.89 47.7427H67.3892C68.0611 47.7407 68.7049 47.473 69.18 46.9979C69.6551 46.5228 69.9229 45.8789 69.9248 45.2071V44.5731H29.3542Z" fill="url(#paint3_linear_970_831)"/>
<path fill-rule="evenodd" clip-rule="evenodd" d="M47.104 45.841H52.1754C52.5116 45.8409 52.834 45.7073 53.0717 45.4695C53.3094 45.2318 53.4431 44.9094 53.4432 44.5732H45.8362C45.8362 44.9094 45.9698 45.2319 46.2075 45.4697C46.4453 45.7074 46.7678 45.841 47.104 45.841V45.841Z" fill="#003067"/>
<path d="M49.6396 31.7431V38.4849" stroke="#F2F2F2" stroke-width="1.25" stroke-miterlimit="10" stroke-linecap="round"/>
<path d="M46.2688 35.114H53.0106" stroke="#F2F2F2" stroke-width="1.25" stroke-miterlimit="10" stroke-linecap="round"/>
</g>
<defs>
<linearGradient id="paint0_linear_970_831" x1="47.8697" y1="-15.1531" x2="51.8525" y2="130.615" gradientUnits="userSpaceOnUse">
<stop stop-color="#00ABDE"/>
<stop offset="1" stop-color="#007ED8"/>
</linearGradient>
<linearGradient id="paint1_linear_970_831" x1="49.6395" y1="44.5731" x2="49.6395" y2="24.2515" gradientUnits="userSpaceOnUse">
<stop stop-color="#003067"/>
<stop offset="0.16493" stop-color="#003F7C"/>
<stop offset="0.36216" stop-color="#004F90"/>
<stop offset="0.68089" stop-color="#00589D"/>
<stop offset="1" stop-color="#005BA1"/>
</linearGradient>
<linearGradient id="paint2_linear_970_831" x1="49.6395" y1="43.3053" x2="49.6395" y2="25.5239" gradientUnits="userSpaceOnUse">
<stop stop-color="#005BA1"/>
<stop offset="0.26" stop-color="#00589D"/>
<stop offset="0.53" stop-color="#004F90"/>
<stop offset="0.8" stop-color="#003F7C"/>
<stop offset="1" stop-color="#003067"/>
</linearGradient>
<linearGradient id="paint3_linear_970_831" x1="49.6395" y1="47.7427" x2="49.6395" y2="44.5731" gradientUnits="userSpaceOnUse">
<stop stop-color="#004DAE"/>
<stop offset="0.21" stop-color="#0061C4"/>
<stop offset="0.51" stop-color="#0078DD"/>
<stop offset="0.78" stop-color="#0086EC"/>
<stop offset="1" stop-color="#008BF1"/>
</linearGradient>
<clipPath id="clip0_970_831">
<rect width="99.2799" height="99.28" fill="white"/>
</clipPath>
</defs>
</svg>
