<?xml version="1.0" encoding="UTF-8"?>
<svg width="100px" height="100px" viewBox="0 0 100 100" version="1.1" xmlns="http://www.w3.org/2000/svg" xmlns:xlink="http://www.w3.org/1999/xlink">
    <!-- Generator: Sketch 55.2 (78181) - https://sketchapp.com -->
    <title>Deliver remote desktops and apps from Azure with Windows Virtual Desktop/deploy-windows-virtual-desktop</title>
    <desc>Created with Sketch.</desc>
    <defs>
        <rect id="path-1" x="0" y="0" width="96" height="96" rx="48"></rect>
        <filter x="-9.8%" y="-10.3%" width="119.5%" height="120.5%" filterUnits="objectBoundingBox" id="filter-3">
            <feOffset dx="0" dy="2" in="SourceAlpha" result="shadowOffsetOuter1"></feOffset>
            <feColorMatrix values="0 0 0 0 0   0 0 0 0 0   0 0 0 0 0  0 0 0 0.100232111 0" type="matrix" in="shadowOffsetOuter1" result="shadowMatrixOuter1"></feColorMatrix>
            <feMerge>
                <feMergeNode in="shadowMatrixOuter1"></feMergeNode>
                <feMergeNode in="SourceGraphic"></feMergeNode>
            </feMerge>
        </filter>
        <filter x="-8.0%" y="-9.8%" width="116.0%" height="119.5%" filterUnits="objectBoundingBox" id="filter-4">
            <feOffset dx="0" dy="2" in="SourceAlpha" result="shadowOffsetOuter1"></feOffset>
            <feColorMatrix values="0 0 0 0 0   0 0 0 0 0   0 0 0 0 0  0 0 0 0.0981657609 0" type="matrix" in="shadowOffsetOuter1" result="shadowMatrixOuter1"></feColorMatrix>
            <feMerge>
                <feMergeNode in="shadowMatrixOuter1"></feMergeNode>
                <feMergeNode in="SourceGraphic"></feMergeNode>
            </feMerge>
        </filter>
    </defs>
    <g id="Badges" stroke="none" stroke-width="1" fill="none" fill-rule="evenodd">
        <g id="Deliver-remote-desktops-and-apps-from-Azure-with-Windows-Virtual-Desktop" transform="translate(-50.000000, -260.000000)">
            <g id="Deliver-remote-desktops-and-apps-from-Azure-with-Windows-Virtual-Desktop/deploy-windows-virtual-desktop" transform="translate(50.000000, 260.000000)">
                <g id="Mask" transform="translate(2.000000, 2.000000)">
                    <mask id="mask-2" fill="white">
                        <use xlink:href="#path-1"></use>
                    </mask>
                    <use id="BG" fill="#55A2FF" xlink:href="#path-1"></use>
                    <g id="Parachute" mask="url(#mask-2)">
                        <g transform="translate(28.000000, 6.000000)">
                            <path d="M55.3261062,46.3090648 L38.4306745,46.3090648 C35.4363212,46.3090648 33,43.8727435 33,40.8783903 C33,38.5484318 34.4896642,36.5010314 36.6734832,35.7559006 C37.1292797,30.812255 41.2665184,27 46.274982,27 C51.1561688,27 55.2598157,30.6793785 55.8470164,35.4724676 C58.598003,35.7355718 60.7567806,38.0596349 60.7567806,40.8783903 C60.7567806,43.8727435 58.3204594,46.3090648 55.3261062,46.3090648 Z" id="Cloud" fill="#FFFFFF" fill-rule="nonzero" opacity="0.900000036"></path>
                            <g id="Parachute" filter="url(#filter-3)" stroke-width="1" fill="none" fill-rule="evenodd">
                                <g transform="translate(0.513522, 0.709794)">
                                    <path d="M38.65,18.241 C38.23,17.882 37.6,17.929 37.24,18.35 L22.219,35.875 L26.962,19.274 C27.113,18.744 26.806,18.19 26.274,18.038 C25.749,17.893 25.19,18.193 25.038,18.726 L20,36.36 L14.962,18.726 C14.81,18.193 14.253,17.894 13.726,18.038 C13.194,18.19 12.887,18.744 13.038,19.274 L17.781,35.875 L2.76,18.35 C2.398,17.929 1.768,17.88 1.35,18.241 C0.93,18.601 0.881,19.231 1.24,19.65 L16.969,38 L23.031,38 L38.76,19.65 C39.12,19.231 39.07,18.601 38.65,18.241" id="Fill-1113" fill="#E1E4E1"></path>
                                    <path d="M0,20 C0,8.954 8.954,0 20,0 C31.05,0 40,8.954 40,20 L0,20" id="Fill-1118" fill="#4D84CD"></path>
                                    <path d="M8,20 C8,8.954 13.372,0 20,0 C26.628,0 32,8.954 32,20 L8,20" id="Fill-1119" fill="#9EE5F9"></path>
                                    <path d="M16,20 C16,8.954 17.791,0 20,0 C22.209,0 24,8.954 24,20 L16,20" id="Fill-1120" fill="#4D84CD"></path>
                                    <path d="M20,0 C19.983,0 19.965,0 19.948,0 C18.663,0.004 18.249,1.755 19.383,2.359 C25.697,5.716 30,12.348 30,20 L40,20 C40,8.954 31.05,0 20,0" id="Fill-1122" fill="#3B68A3"></path>
                                    <path d="M20,0 C19.967,0 19.935,0.008 19.902,0.008 C18.657,0.057 18.264,1.763 19.383,2.359 C25.697,5.716 30,12.348 30,20 L32,20 C32,8.954 26.628,0 20,0" id="Fill-1123" fill="#7DB7C7"></path>
                                    <path d="M18.754,1.003 C18.651,1.504 18.832,2.066 19.383,2.359 C20.491,2.948 21.534,3.644 22.506,4.423 C21.82,1.661 20.949,0 20,0 C19.565,0 19.146,0.359 18.754,1.003" id="Fill-1124" fill="#3B68A3"></path>
                                    <polyline id="Fill-1125" fill="#C5CCCD" points="13.817 22 15.897 22 15.326 20 13.245 20 13.817 22"></polyline>
                                    <polyline id="Fill-1126" fill="#C5CCCD" points="26.755 20 24.674 20 24.103 22 26.183 22 26.755 20"></polyline>
                                    <polyline id="Fill-1127" fill="#C5CCCD" points="3.254 22 5.889 22 4.174 20 1.54 20 3.254 22"></polyline>
                                    <polyline id="Fill-1128" fill="#C5CCCD" points="38.46 20 35.83 20 34.11 22 36.74 22 38.46 20"></polyline>
                                </g>
                            </g>
                        </g>
                    </g>
                    <g id="Browser-Gear" filter="url(#filter-4)" mask="url(#mask-2)">
                        <g transform="translate(49.000000, 60.500000) rotate(2.000000) translate(-49.000000, -60.500000) translate(24.000000, 40.000000)">
                            <path d="M3.125,41 C1.40625,41 3.63797881e-12,39.6333333 3.63797881e-12,37.962963 L3.63797881e-12,3.03703704 C3.63797881e-12,1.36666667 1.40625,0 3.125,0 L46.875,0 C48.59375,0 50,1.36666667 50,3.03703704 L50,37.962963 C50,39.6333333 48.59375,41 46.875,41 L3.125,41" id="Fill-1485" fill="#30404D"></path>
                            <path d="M3.5862069,39 C2.7137931,39 2,38.2071429 2,37.2380952 L2,3.76190476 C2,2.79285714 2.7137931,2 3.5862069,2 L46.4137931,2 C47.2862069,2 48,2.79285714 48,3.76190476 L48,37.2380952 C48,38.2071429 47.2862069,39 46.4137931,39 L3.5862069,39" id="Fill-1486" fill="#E1E4E1"></path>
                            <path d="M2.86486486,39 C1.83545946,39 2,38.328 2,37.5 C2,36.948 2,36.448 2,36 L48,36 C48,36.448 48,36.948 48,37.5 C48,38.328 48.1645405,39 47.1351351,39 L2.86486486,39 Z" id="Fill-1490" fill="#697D85"></path>
                            <circle id="Oval" fill="#8B9EA6" cx="7.5" cy="37.5" r="1"></circle>
                            <circle id="Oval" fill="#8B9EA6" cx="9.5" cy="37.5" r="1"></circle>
                            <circle id="Oval" fill="#8B9EA6" cx="11.5" cy="37.5" r="1"></circle>
                            <circle id="Oval" fill="#8B9EA6" cx="13.5" cy="37.5" r="1"></circle>
                            <rect id="Rectangle" fill="#8B9EA6" x="37" y="37" width="9" height="1" rx="0.5"></rect>
                            <g id="Microsoft" stroke-width="1" fill="none" transform="translate(4.000000, 36.500000)">
                                <g id="microsoft" fill-rule="nonzero">
                                    <rect id="Rectangle-path" fill="#E86C60" x="0.127462336" y="0.127272727" width="1" height="1"></rect>
                                    <polygon id="Rectangle-path" fill="#72C472" points="1.10928052 0.127272727 1.87291688 0.127272727 1.87291688 0.890909091 1.10928052 0.890909091"></polygon>
                                    <polygon id="Rectangle-path" fill="#43A6DD" points="0.127462336 1.10909091 0.891098699 1.10909091 0.891098699 1.87272727 0.127462336 1.87272727"></polygon>
                                    <polygon id="Rectangle-path" fill="#EFD358" points="1.10928052 1.10909091 1.87291688 1.10909091 1.87291688 1.87272727 1.10928052 1.87272727"></polygon>
                                </g>
                            </g>
                            <g id="Group" stroke-width="1" fill="none" transform="translate(5.000000, 6.000000)">
                                <path d="M15.415683,10.836665 C15.415683,11.2623911 15.0505513,11.6107125 14.6042793,11.6107125 L1.62181976,11.6107125 C1.17554772,11.6107125 0.810416046,11.2623911 0.810416046,10.836665 L0.810416046,0.7740475 C0.810416046,0.348321375 1.17554772,7.54951657e-14 1.62181976,7.54951657e-14 L14.6042793,7.54951657e-14 C15.0505513,7.54951657e-14 15.415683,0.348321375 15.415683,0.7740475 L15.415683,10.836665" id="Fill-1471" fill="#C5CCCD"></path>
                                <path d="M38.9360109,2.14276421 L18.6509179,2.14276421 C18.2022116,2.14276421 17.8395142,1.79676498 17.8395142,1.36871671 C17.8395142,0.940668443 18.2022116,0.59466921 18.6509179,0.59466921 L38.9360109,0.59466921 C39.3847171,0.59466921 39.7474146,0.940668443 39.7474146,1.36871671 C39.7474146,1.79676498 39.3847171,2.14276421 38.9360109,2.14276421" id="Fill-1472" fill="#C5CCCD"></path>
                                <path d="M38.7739276,6.78422004 L18.4888347,6.78422004 C18.0401284,6.78422004 17.6774309,6.43822081 17.6774309,6.01017254 C17.6774309,5.58212427 18.0401284,5.23612504 18.4888347,5.23612504 L38.7739276,5.23612504 C39.2226339,5.23612504 39.5853314,5.58212427 39.5853314,6.01017254 C39.5853314,6.43822081 39.2226339,6.78422004 38.7739276,6.78422004" id="Fill-1473" fill="#C5CCCD"></path>
                                <path d="M38.6118444,11.4256759 L18.3267515,11.4256759 C17.8780452,11.4256759 17.5153477,11.0796766 17.5153477,10.6516284 C17.5153477,10.2235801 17.8780452,9.87758087 18.3267515,9.87758087 L38.6118444,9.87758087 C39.0605507,9.87758087 39.4232482,10.2235801 39.4232482,10.6516284 C39.4232482,11.0796766 39.0605507,11.4256759 38.6118444,11.4256759" id="Fill-1474" fill="#C5CCCD"></path>
                                <path d="M38.4601412,15.4724625 L1.13557014,15.4724625 C0.686863881,15.4724625 0.324166418,15.1264633 0.324166418,14.698415 C0.324166418,14.2703667 0.686863881,13.9243675 1.13557014,13.9243675 L38.4601412,13.9243675 C38.9088475,13.9243675 39.2715449,14.2703667 39.2715449,14.698415 C39.2715449,15.1264633 38.9088475,15.4724625 38.4601412,15.4724625" id="Fill-1475" fill="#C5CCCD"></path>
                                <path d="M38.298058,20.1139183 L0.973486928,20.1139183 C0.524780672,20.1139183 0.162083209,19.7679191 0.162083209,19.3398708 C0.162083209,18.9118225 0.524780672,18.5658233 0.973486928,18.5658233 L38.298058,18.5658233 C38.7467643,18.5658233 39.1094617,18.9118225 39.1094617,19.3398708 C39.1094617,19.7679191 38.7467643,20.1139183 38.298058,20.1139183" id="Fill-1476" fill="#C5CCCD"></path>
                                <path d="M38.1359748,24.7553741 L0.811403719,24.7553741 C0.362697462,24.7553741 -5.47117907e-13,24.4093749 -5.47117907e-13,23.9813266 C-5.47117907e-13,23.5532784 0.362697462,23.2072791 0.811403719,23.2072791 L38.1359748,23.2072791 C38.5846811,23.2072791 38.9473785,23.5532784 38.9473785,23.9813266 C38.9473785,24.4093749 38.5846811,24.7553741 38.1359748,24.7553741" id="Fill-1477" fill="#C5CCCD"></path>
                            </g>
                        </g>
                    </g>
                    <path d="M22.3449567,75.8182251 L13.4411905,75.8182251 C10.4409032,75.8182251 8,73.3773219 8,70.3770346 C8,67.3767473 10.4409032,64.9358441 13.4411905,64.9358441 C13.7165345,64.9358441 13.9933278,64.9607203 14.2904119,65.0131338 C15.3425155,61.4488721 18.5881955,59 22.3449567,59 C26.9818502,59 30.7540692,62.7722191 30.7540692,67.4091125 C30.7540692,72.046006 26.9818502,75.8182251 22.3449567,75.8182251 Z" id="Cloud" fill="#FFFFFF" fill-rule="nonzero" mask="url(#mask-2)"></path>
                </g>
                <g id="Azure-Border" stroke="#0078D4" stroke-width="4">
                    <rect x="2" y="2" width="96" height="96" rx="48"></rect>
                </g>
            </g>
        </g>
    </g>
</svg>