<svg width="103" height="102" viewBox="0 0 103 102" fill="none" xmlns="http://www.w3.org/2000/svg">
<path d="M51.2441 97.8501C41.986 97.8501 32.9361 95.1049 25.2383 89.9614C17.5404 84.8178 11.541 77.507 7.99802 68.9536C4.45508 60.4002 3.52778 50.9879 5.33395 41.9077C7.14013 32.8274 11.598 24.4869 18.1445 17.9404C24.691 11.3939 33.032 6.93554 42.1123 5.12936C51.1925 3.32319 60.6048 4.25049 69.1582 7.79343C77.7116 11.3364 85.0224 17.3358 90.166 25.0337C95.3095 32.7315 98.0547 41.7819 98.0547 51.04C98.0547 63.4548 93.1223 75.361 84.3437 84.1396C75.5651 92.9182 63.6589 97.8501 51.2441 97.8501Z" fill="url(#paint0_linear)"/>
<path fill-rule="evenodd" clip-rule="evenodd" d="M97.1045 51C97.1045 60.0782 94.4127 68.9528 89.3691 76.501C84.3256 84.0492 77.1567 89.9322 68.7695 93.4063C60.3824 96.8803 51.1537 97.7892 42.25 96.0181C33.3463 94.247 25.1673 89.8758 18.748 83.4566C12.3288 77.0373 7.95759 68.8583 6.18652 59.9546C4.41546 51.0509 5.32477 41.8222 8.79883 33.4351C12.2729 25.048 18.1559 17.879 25.7041 12.8355C33.2523 7.79192 42.1259 5.10012 51.2041 5.10012C63.3767 5.10277 75.0509 9.93955 83.6582 18.5469C92.2655 27.1542 97.1018 38.8274 97.1045 51V51ZM51.2041 1.35989C61.0248 1.35791 70.6256 4.26881 78.792 9.72366C86.9584 15.1785 93.3239 22.9326 97.083 32.0054C100.842 41.0782 101.827 51.0618 99.9111 60.6939C97.9957 70.326 93.2665 79.1739 86.3223 86.1182C79.378 93.0625 70.5305 97.7911 60.8984 99.7066C51.2663 101.622 41.2827 100.638 32.21 96.8789C23.1372 93.1198 15.3826 86.7543 9.92774 78.5879C4.47288 70.4215 1.56248 60.8207 1.56445 51C1.56314 44.4775 2.84805 38.0185 5.34473 31.9927C7.84141 25.9669 11.5012 20.4926 16.1152 15.8823C20.7292 11.2721 26.2066 7.61636 32.2344 5.12454C38.2622 2.63271 44.7216 1.35332 51.2441 1.35989H51.2041Z" fill="#F2F1F0"/>
<path fill-rule="evenodd" clip-rule="evenodd" d="M94.3242 51C94.3242 59.5224 91.7973 67.8533 87.0625 74.9395C82.3277 82.0256 75.5983 87.5487 67.7246 90.8101C59.8509 94.0714 51.1868 94.9248 42.8281 93.2622C34.4695 91.5996 26.7919 87.4955 20.7656 81.4692C14.7394 75.443 10.6353 67.7654 8.97266 59.4067C7.31002 51.0481 8.16342 42.3839 11.4248 34.5103C14.6862 26.6366 20.2088 19.9067 27.2949 15.1719C34.381 10.4371 42.712 7.91016 51.2344 7.91016C62.6626 7.91016 73.6232 12.4498 81.7041 20.5308C89.785 28.6117 94.3242 39.5718 94.3242 51ZM51.2344 4.16992C60.4965 4.16992 69.5508 6.91675 77.252 12.0625C84.9531 17.2082 90.9555 24.522 94.5 33.0791C98.0445 41.6362 98.972 51.0521 97.165 60.1362C95.3581 69.2204 90.8979 77.5645 84.3486 84.1138C77.7993 90.6631 69.4542 95.1232 60.3701 96.9302C51.286 98.7371 41.8705 97.8096 33.3135 94.2651C24.7564 90.7207 17.4426 84.7187 12.2969 77.0176C7.15113 69.3164 4.4043 60.2621 4.4043 51C4.4043 38.5799 9.33877 26.6686 18.1211 17.8862C26.9034 9.1039 38.8143 4.16992 51.2344 4.16992V4.16992Z" fill="url(#paint1_linear)"/>
<path opacity="0.15" d="M92.0146 51.54L81.6943 41.4502V46.1401H57.7549V56.4399H81.6943V61.6802C81.6921 61.7286 81.7049 61.7762 81.7305 61.8174C81.756 61.8585 81.7935 61.8912 81.8379 61.9106C81.8823 61.9301 81.9309 61.9358 81.9785 61.9268C82.0261 61.9177 82.0703 61.8942 82.1045 61.8599L92.0146 52.1699C92.0971 52.0858 92.1436 51.9728 92.1436 51.855C92.1436 51.7372 92.0971 51.6242 92.0146 51.54V51.54Z" fill="#1F1D20"/>
<path d="M92.0146 49.8499L82.0947 40.1599C82.0606 40.1256 82.0164 40.1021 81.9688 40.0931C81.9211 40.084 81.8725 40.0897 81.8281 40.1092C81.7838 40.1286 81.7463 40.1613 81.7207 40.2024C81.6951 40.2436 81.6824 40.2917 81.6846 40.3401V44.45H57.7549V54.7498H81.6943V59.99C81.6921 60.0384 81.7049 60.0861 81.7305 60.1272C81.756 60.1684 81.7935 60.201 81.8379 60.2205C81.8823 60.24 81.9309 60.2456 81.9785 60.2366C82.0261 60.2276 82.0703 60.2041 82.1045 60.1697L92.0146 50.4798C92.0971 50.3957 92.1436 50.2826 92.1436 50.1648C92.1436 50.047 92.0971 49.934 92.0146 49.8499V49.8499Z" fill="white"/>
<path opacity="0.15" d="M74.6348 25.02H22.2246C22.0189 25.02 21.815 25.0606 21.625 25.1396C21.4351 25.2187 21.2632 25.3345 21.1182 25.4805C20.9732 25.6264 20.8581 25.7998 20.7803 25.9902C20.7025 26.1807 20.6628 26.3846 20.6641 26.5903V78.8501C20.6641 79.2638 20.8286 79.6606 21.1211 79.9531C21.4137 80.2457 21.8109 80.4102 22.2246 80.4102H74.6348C75.0485 80.4102 75.4448 80.2457 75.7373 79.9531C76.0299 79.6606 76.1944 79.2638 76.1944 78.8501V26.6201C76.1983 26.4123 76.1615 26.2055 76.085 26.0122C76.0085 25.8189 75.8942 25.643 75.7491 25.4941C75.6039 25.3453 75.4306 25.2269 75.2393 25.1455C75.048 25.0641 74.8427 25.0213 74.6348 25.02V25.02Z" fill="#1F1D20"/>
<path d="M74.6348 23.0904H22.2246C22.0194 23.089 21.8159 23.1282 21.626 23.2061C21.4361 23.284 21.2633 23.3989 21.1182 23.544C20.9731 23.6891 20.8582 23.8619 20.7803 24.0518C20.7024 24.2417 20.6628 24.4447 20.6641 24.6499V76.8501C20.6628 77.0554 20.7024 77.2589 20.7803 77.4488C20.8582 77.6386 20.9731 77.811 21.1182 77.9561C21.2633 78.1012 21.4361 78.2161 21.626 78.294C21.8159 78.3719 22.0194 78.4115 22.2246 78.4102H74.6348C74.84 78.4115 75.0436 78.3719 75.2334 78.294C75.4233 78.2161 75.5951 78.1012 75.7403 77.9561C75.8854 77.811 76.0002 77.6386 76.0782 77.4488C76.1561 77.2589 76.1957 77.0554 76.1944 76.8501V24.6499C76.1944 24.2362 76.0299 23.8395 75.7373 23.5469C75.4448 23.2544 75.0485 23.0904 74.6348 23.0904V23.0904Z" fill="white"/>
<path opacity="0.25" d="M55.5049 55.3101L39.9043 64.4199L24.3047 55.3101L39.9043 46.2402L55.5049 55.3101Z" fill="#1F1D20"/>
<path d="M55.5049 35.4302V53.5103L39.9443 62.6201V44.5L55.5049 35.4302Z" fill="#35AFE4"/>
<path d="M55.5049 35.4302L39.9443 44.5L24.3047 35.4302L39.9043 26.3599L55.5049 35.4302Z" fill="#4BC8EF"/>
<path d="M39.9443 44.5V62.6201L24.3047 53.5V35.4302L39.9443 44.5Z" fill="#2E76BC"/>
<path d="M24.3047 53.5L39.9443 44.5V62.6201L24.3047 53.5Z" fill="#175A98"/>
<path d="M55.5049 53.5103L39.9443 44.5103V62.6299L55.5049 53.5103Z" fill="#166BB3"/>
<path d="M69.1045 48.3501H44.3545C44.1229 48.3527 43.9012 48.4466 43.7383 48.6113C43.5755 48.7761 43.4844 48.9983 43.4844 49.23V65.1299C43.4831 65.245 43.5048 65.3596 43.5479 65.4663C43.591 65.573 43.6545 65.6701 43.7354 65.752C43.8163 65.8338 43.9134 65.8985 44.0196 65.9429C44.1258 65.9872 44.2395 66.0103 44.3545 66.0103H69.1045C69.2205 66.0116 69.3351 65.9896 69.4424 65.9458C69.5498 65.9021 69.6476 65.8374 69.7295 65.7554C69.8115 65.6734 69.8762 65.5756 69.92 65.4683C69.9637 65.3609 69.9858 65.2458 69.9844 65.1299V49.23C69.9844 48.9966 69.8917 48.7729 69.7266 48.6079C69.5616 48.4429 69.3379 48.3501 69.1045 48.3501Z" fill="url(#paint2_linear)"/>
<path d="M67.9746 49.8502H45.4043C45.2743 49.8502 45.1495 49.9019 45.0576 49.9938C44.9657 50.0856 44.9141 50.2105 44.9141 50.3404V64.0802C44.9141 64.2101 44.9657 64.335 45.0576 64.4269C45.1495 64.5188 45.2743 64.5704 45.4043 64.5704H67.9746C68.0398 64.5717 68.1044 64.5598 68.165 64.5357C68.2256 64.5117 68.2806 64.4759 68.3271 64.4303C68.3737 64.3846 68.4113 64.3302 68.4365 64.2701C68.4618 64.21 68.4746 64.1454 68.4746 64.0802V50.3404C68.4746 50.2752 68.4618 50.2106 68.4365 50.1505C68.4113 50.0904 68.3737 50.036 68.3271 49.9903C68.2806 49.9447 68.2256 49.9084 68.165 49.8844C68.1044 49.8604 68.0398 49.8489 67.9746 49.8502V49.8502Z" fill="white"/>
<path d="M62.0146 71.3396C59.3746 70.9341 59.2749 69.0084 59.2949 66.0079H54.0244C54.0244 69.0996 53.9247 71.0254 51.3047 71.3396C50.9476 71.3925 50.62 71.5726 50.3818 71.8474C50.1437 72.1223 50.0106 72.4745 50.0049 72.8403H63.2441C63.2343 72.4874 63.1081 72.148 62.8848 71.8771C62.6638 71.6026 62.3567 71.4127 62.0146 71.3396V71.3396Z" fill="url(#paint3_linear)"/>
<path d="M72.7041 56.5104H60.624C60.4751 55.7726 60.1244 55.0905 59.6104 54.5407C59.0963 53.9909 58.44 53.5948 57.7139 53.3966C56.9877 53.1985 56.2201 53.2061 55.498 53.4186C54.776 53.6311 54.127 54.0403 53.624 54.6002C52.938 55.3399 52.5576 56.3117 52.5576 57.3205C52.5576 58.3293 52.938 59.3005 53.624 60.0402C54.2937 60.7917 55.2227 61.2628 56.2246 61.36C57.225 61.4595 58.227 61.1842 59.0361 60.5875C59.8453 59.9909 60.4039 59.1152 60.6045 58.13H61.8545V74.9401C61.8545 75.0939 61.9156 75.2415 62.0244 75.3502C62.1332 75.459 62.2807 75.5202 62.4346 75.5202H72.6641C72.8179 75.5201 72.9655 75.459 73.0742 75.3502C73.1295 75.2975 73.1739 75.2338 73.2031 75.1632C73.2324 75.0926 73.2458 75.0165 73.2441 74.9401V57.0905C73.2439 57.0158 73.2294 56.9419 73.2002 56.8732C73.171 56.8045 73.1278 56.7421 73.0742 56.6901C72.9776 56.5861 72.8455 56.5222 72.7041 56.5104V56.5104Z" fill="#33BEDD"/>
<path d="M72.0049 58.1099H63.1748C63.1191 58.1099 63.0657 58.132 63.0264 58.1714C62.987 58.2108 62.9648 58.2646 62.9648 58.3203V73.1699C62.9648 73.2256 62.987 73.279 63.0264 73.3184C63.0657 73.3577 63.1191 73.3799 63.1748 73.3799H72.0049C72.0606 73.3799 72.1139 73.3577 72.1533 73.3184C72.1927 73.279 72.2148 73.2256 72.2148 73.1699V58.3203C72.2124 58.2654 72.1893 58.2132 72.1504 58.1743C72.1115 58.1355 72.0598 58.1123 72.0049 58.1099V58.1099Z" fill="white"/>
<path opacity="0.9" d="M56.6943 59.9598C57.2031 59.9618 57.7011 59.8128 58.125 59.5316C58.5489 59.2504 58.8801 58.8496 59.0762 58.3802C59.2722 57.9108 59.3246 57.394 59.2266 56.8949C59.1285 56.3957 58.8844 55.9364 58.5254 55.576C58.1664 55.2156 57.7088 54.9699 57.21 54.8699C56.7112 54.77 56.1938 54.8203 55.7236 55.0145C55.2534 55.2087 54.8512 55.5384 54.5684 55.9613C54.2855 56.3841 54.1348 56.8812 54.1348 57.39C54.1348 58.0698 54.404 58.7218 54.8838 59.2034C55.3636 59.6851 56.0145 59.9571 56.6943 59.9598V59.9598Z" fill="url(#paint4_linear)"/>
<path d="M68.6021 65.224L66.6021 63.224C66.5944 63.2196 66.5854 63.2177 66.5767 63.2177C66.5679 63.2177 66.5598 63.2196 66.5522 63.224H66.4819C66.4775 63.2334 66.4751 63.2439 66.4751 63.2543C66.4751 63.2646 66.4775 63.2747 66.4819 63.2841V64.4843C66.4875 64.5073 66.4875 64.5311 66.4819 64.5541C66.4562 64.5641 66.4276 64.5641 66.4019 64.5541H61.8423V66.014H66.4019C66.4276 66.004 66.4562 66.004 66.4819 66.014C66.4876 66.0404 66.4876 66.0678 66.4819 66.0941V67.3041H66.5815L68.5815 65.4242V65.3544C68.5949 65.3262 68.6021 65.2952 68.6021 65.264C68.6021 65.2329 68.5949 65.2023 68.5815 65.1742L68.6021 65.224Z" fill="#2E76BC"/>
<defs>
<linearGradient id="paint0_linear" x1="49.4746" y1="-13.78" x2="53.4546" y2="131.99" gradientUnits="userSpaceOnUse">
<stop stop-color="#00ABDE"/>
<stop offset="1" stop-color="#2E7BBF"/>
</linearGradient>
<linearGradient id="paint1_linear" x1="2.67429" y1="-20.6201" x2="98.2041" y2="120.26" gradientUnits="userSpaceOnUse">
<stop stop-color="#2E7BBF"/>
<stop offset="0.71" stop-color="#092D4C"/>
</linearGradient>
<linearGradient id="paint2_linear" x1="56.6944" y1="66.0103" x2="56.6944" y2="48.3601" gradientUnits="userSpaceOnUse">
<stop stop-color="#2E76BC"/>
<stop offset="0.82" stop-color="#699CD3"/>
</linearGradient>
<linearGradient id="paint3_linear" x1="56.6245" y1="72.8403" x2="56.6245" y2="65.9167" gradientUnits="userSpaceOnUse">
<stop stop-color="#2F8DCC"/>
<stop offset="0.98" stop-color="#2157A3"/>
</linearGradient>
<linearGradient id="paint4_linear" x1="56.6947" y1="59.9598" x2="56.6947" y2="54.8198" gradientUnits="userSpaceOnUse">
<stop stop-color="#D3E9F9"/>
<stop offset="1" stop-color="#F1F9F9"/>
</linearGradient>
</defs>
</svg>
