<?xml version="1.0" encoding="UTF-8"?>
<svg width="100px" height="100px" viewBox="0 0 100 100" version="1.1" xmlns="http://www.w3.org/2000/svg" xmlns:xlink="http://www.w3.org/1999/xlink">
    <!-- Generator: Sketch 52.6 (67491) - http://www.bohemiancoding.com/sketch -->
    <title>M365 SFA Generalist/deploy-and-manage-your-modern-desktop-with-microsoft-365</title>
    <desc>Created with Sketch.</desc>
    <defs>
        <rect id="path-1" x="0" y="0" width="96" height="96" rx="48"></rect>
        <filter x="-6.2%" y="-7.1%" width="112.5%" height="114.3%" filterUnits="objectBoundingBox" id="filter-3">
            <feOffset dx="0" dy="2" in="SourceAlpha" result="shadowOffsetOuter1"></feOffset>
            <feColorMatrix values="0 0 0 0 0   0 0 0 0 0   0 0 0 0 0  0 0 0 0.0964956975 0" type="matrix" in="shadowOffsetOuter1" result="shadowMatrixOuter1"></feColorMatrix>
            <feMerge>
                <feMergeNode in="shadowMatrixOuter1"></feMergeNode>
                <feMergeNode in="SourceGraphic"></feMergeNode>
            </feMerge>
        </filter>
        <filter x="-25.0%" y="-16.0%" width="150.0%" height="132.0%" filterUnits="objectBoundingBox" id="filter-4">
            <feOffset dx="0" dy="2" in="SourceAlpha" result="shadowOffsetOuter1"></feOffset>
            <feColorMatrix values="0 0 0 0 0   0 0 0 0 0   0 0 0 0 0  0 0 0 0.103515625 0" type="matrix" in="shadowOffsetOuter1" result="shadowMatrixOuter1"></feColorMatrix>
            <feMerge>
                <feMergeNode in="shadowMatrixOuter1"></feMergeNode>
                <feMergeNode in="SourceGraphic"></feMergeNode>
            </feMerge>
        </filter>
        <path d="M7.5,12 C6.671625,12 6,11.328375 6,10.5 C6,9.671625 6.671625,9 7.5,9 C8.328375,9 9,9.671625 9,10.5 C9,11.328375 8.328375,12 7.5,12 Z" id="path-5"></path>
        <filter x="-8.3%" y="-8.3%" width="116.7%" height="116.7%" filterUnits="objectBoundingBox" id="filter-6">
            <feOffset dx="0" dy="0.5" in="SourceAlpha" result="shadowOffsetInner1"></feOffset>
            <feComposite in="shadowOffsetInner1" in2="SourceAlpha" operator="arithmetic" k2="-1" k3="1" result="shadowInnerInner1"></feComposite>
            <feColorMatrix values="0 0 0 0 0   0 0 0 0 0   0 0 0 0 0  0 0 0 0.2 0" type="matrix" in="shadowInnerInner1"></feColorMatrix>
        </filter>
        <path d="M18.375,14.6984848 C18.375,17.1108598 16.4119375,19.0734848 14,19.0734848 C11.587625,19.0734848 9.625,17.1108598 9.625,14.6984848 C9.625,12.2861098 11.587625,10.3234848 14,10.3234848 C16.4119375,10.3234848 18.375,12.2861098 18.375,14.6984848 Z M24.4260625,11.8897348 C24.259375,11.8529848 23.9999375,11.6167348 23.947875,11.4539848 C23.9413125,11.4316723 23.933,11.4097973 23.9238125,11.3883598 L23.3625,10.0242348 C23.352875,10.0006098 23.3419375,9.97698481 23.330125,9.95423481 C23.251375,9.80329731 23.2666875,9.45548481 23.358125,9.31242231 L24.47725,7.55367231 C24.9519375,6.80773481 24.8338125,5.73367231 24.2090625,5.10848481 L23.59,4.48942231 C22.9796875,3.87867231 21.875,3.75660981 21.1448125,4.22123481 L19.385625,5.33992231 C19.327,5.37798481 19.1883125,5.41867231 19.0238125,5.41867231 C18.8890625,5.41867231 18.788875,5.39154731 18.74425,5.36835981 C18.7219375,5.35610981 18.697875,5.34560981 18.6738125,5.33598481 L17.310125,4.77423481 C17.2886875,4.76548481 17.2668125,4.75717231 17.2445,4.75060981 C17.0821875,4.69854731 16.8455,4.43910981 16.80875,4.27198481 L16.3568125,2.23804731 C16.16475,1.37485981 15.3216875,0.69848481 14.4375,0.69848481 L13.5625,0.69848481 C12.677875,0.69848481 11.83525,1.37485981 11.643625,2.23760981 L11.19125,4.27285981 C11.1540625,4.43910981 10.9178125,4.69854731 10.7555,4.75060981 C10.7331875,4.75717231 10.7113125,4.76548481 10.6894375,4.77423481 L9.32575,5.33598481 C9.3016875,5.34560981 9.2780625,5.35610981 9.2553125,5.36835981 C9.211125,5.39154731 9.1109375,5.41867231 8.97575,5.41867231 C8.81125,5.41867231 8.6725625,5.37754731 8.6135,5.33992231 L6.8551875,4.22167231 C6.125,3.75704731 5.019875,3.87954731 4.41,4.48985981 L3.7909375,5.10848481 C3.16575,5.73410981 3.0480625,6.80817231 3.52275,7.55410981 L4.641875,9.31242231 C4.732875,9.45592231 4.7481875,9.80285981 4.669875,9.95379731 C4.6580625,9.97698481 4.6466875,10.0006098 4.6370625,10.0242348 L4.07575,11.3883598 C4.067,11.4097973 4.0586875,11.4316723 4.0516875,11.4539848 C3.999625,11.6167348 3.740625,11.8529848 3.5735,11.8901723 L1.5395625,12.3416723 C0.676375,12.5337348 5.68434189e-14,13.3763598 5.68434189e-14,14.2609848 L5.68434189e-14,15.1359848 C5.68434189e-14,16.0201723 0.676375,16.8632348 1.539125,17.0548598 L3.5739375,17.5067973 C3.740625,17.5439848 3.999625,17.7802348 4.0516875,17.9429848 C4.0586875,17.9652973 4.067,17.9871723 4.07575,18.0086098 L4.6370625,19.3727348 C4.6466875,19.3963598 4.657625,19.4195473 4.669875,19.4427348 C4.7481875,19.5932348 4.732875,19.9410473 4.6414375,20.0845473 L3.52275,21.8428598 C3.047625,22.5887973 3.16575,23.6632973 3.7909375,24.2884848 L4.41,24.9075473 C5.0194375,25.5165473 6.12325,25.6407973 6.855625,25.1757348 L8.6130625,24.0570473 C8.6725625,24.0189848 8.81125,23.9782973 8.97575,23.9782973 C9.1109375,23.9782973 9.211125,24.0049848 9.2553125,24.0286098 C9.2785,24.0399848 9.3016875,24.0513598 9.32575,24.0609848 L10.6894375,24.6227348 C10.7113125,24.6314848 10.7331875,24.6393598 10.7555,24.6463598 C10.9178125,24.6984223 11.1540625,24.9578598 11.19125,25.1245473 L11.643625,27.1589223 C11.83525,28.0221098 12.677875,28.6984848 13.5625,28.6984848 L14.4375,28.6984848 C15.3216875,28.6984848 16.1643125,28.0221098 16.356375,27.1589223 L16.80875,25.1245473 C16.8455,24.9578598 17.0821875,24.6984223 17.2445,24.6463598 C17.2668125,24.6393598 17.2886875,24.6314848 17.310125,24.6227348 L18.6738125,24.0609848 C18.697875,24.0513598 18.7215,24.0399848 18.74425,24.0286098 C18.788875,24.0049848 18.8890625,23.9782973 19.023375,23.9782973 C19.187875,23.9782973 19.327,24.0189848 19.385625,24.0570473 L21.144375,25.1752973 C21.874125,25.6407973 22.9796875,25.5174223 23.59,24.9075473 L24.208625,24.2889223 C24.8338125,23.6637348 24.9519375,22.5892348 24.47725,21.8428598 L23.358125,20.0845473 C23.2666875,19.9410473 23.251375,19.5936723 23.330125,19.4431723 C23.3419375,19.4199848 23.352875,19.3967973 23.3625,19.3731723 L23.9238125,18.0086098 C23.933,17.9871723 23.9413125,17.9652973 23.947875,17.9429848 C23.9999375,17.7802348 24.259375,17.5439848 24.4265,17.5067973 L26.46,17.0548598 C27.323625,16.8632348 28,16.0201723 28,15.1359848 L28,14.2609848 C28,13.3763598 27.323625,12.5337348 26.4604375,12.3421098 L24.4260625,11.8897348 Z" id="path-7"></path>
        <filter x="-3.6%" y="-3.6%" width="107.1%" height="114.3%" filterUnits="objectBoundingBox" id="filter-8">
            <feOffset dx="0" dy="2" in="SourceAlpha" result="shadowOffsetOuter1"></feOffset>
            <feColorMatrix values="0 0 0 0 0   0 0 0 0 0   0 0 0 0 0  0 0 0 0.1 0" type="matrix" in="shadowOffsetOuter1"></feColorMatrix>
        </filter>
        <path d="M0.415833333,10.5 C2.71833333,10.5 4.58333333,8.262 4.58333333,5.5 C4.58333333,2.738 2.71833333,0.5 0.415833333,0.5 L0.415833333,10.5 Z" id="path-9"></path>
    </defs>
    <g id="Badges" stroke="none" stroke-width="1" fill="none" fill-rule="evenodd">
        <g id="M365-SFA-Generalist-3" transform="translate(-50.000000, -260.000000)">
            <g id="M365-SFA-Generalist/deploy-and-manage-your-modern-desktop-with-microsoft-365" transform="translate(50.000000, 260.000000)">
                <g id="Mask" transform="translate(2.000000, 2.000000)">
                    <mask id="mask-2" fill="white">
                        <use xlink:href="#path-1"></use>
                    </mask>
                    <use id="BG" fill="#55A2FF" xlink:href="#path-1"></use>
                    <g id="Monitor" filter="url(#filter-3)" mask="url(#mask-2)">
                        <g transform="translate(16.000000, 22.000000)">
                            <path d="M0,36 L0,42 C0,44.2 1.8,46 4,46 L60,46 C62.2,46 64,44.2 64,42 L64,36 L0,36" id="Fill-1285" fill="#E1E4E1"></path>
                            <path d="M4,0 C1.8,0 0,1.8 0,4 L0,36 L64,36 L64,4 C64,1.8 62.2,0 60,0 L4,0 Z M60,2 C61.103,2 62,2.897 62,4 L62,34 L2,34 L2,4 C2,2.897 2.897,2 4,2 L60,2 Z" id="Fill-1287" fill="#182A37"></path>
                            <path d="M4,2 L60,2 C61.103,2 62,2.897 62,4 L62,34 L2,34 L2,4 C2,2.897 2.897,2 4,2 Z" id="Fill-1288" fill="#30404D"></path>
                            <path d="M32.4305268,2 L32.3248942,34 L2,34 L2,4 C2,2.897 2.897,2 4,2 L32.4305268,2 Z" id="Fill-1289" fill="#384B58"></path>
                            <path d="M32.3643883,5.67979852e-29 L32.3993123,2 L4,2 C2.897,2 2,2.897 2,4 L2,34 L21.611,34 L21,36 L0,36 L0,4 C0,1.8 1.8,0 4,0 L32.3643883,5.67979852e-29 Z" id="Fill-1290" fill="#30404D"></path>
                            <polyline id="Fill-1291" fill="#E1E4E1" points="40 55 24 55 26 46 38 46 40 55"></polyline>
                            <path d="M40,55 L38,46 L26,46 L25.555,48 L30,48 C31.105,48 32,48.895 32,50 L32,55 L40,55" id="Fill-1292" fill="#CDD6D8"></path>
                            <path d="M44,55 C44,55.55 43.55,56 43,56 L21,56 C20.45,56 20,55.55 20,55 C20,54.45 20.45,54 21,54 L43,54 C43.55,54 44,54.45 44,55" id="Fill-1293" fill="#E1E4E1"></path>
                            <path d="M21,56 L43,56 C43.55,56 44,55.55 44,55 L20,55 C20,55.55 20.45,56 21,56" id="Fill-1294" fill="#CDD6D8"></path>
                        </g>
                    </g>
                    <g id="Clouds" mask="url(#mask-2)">
                        <g transform="translate(29.000000, 48.000000)" id="Cloud">
                            <g>
                                <path d="M4.57703453,3.6 C4.60811146,3.6 4.6382653,3.6039 4.66903453,3.6045 C5.09488069,1.5483 6.95795761,0 9.19241915,0 C11.1899576,0 12.8859576,1.2393 13.5284191,2.9706 C13.8927268,2.799 14.2994961,2.7 14.7308807,2.7 C16.2604191,2.7 17.5001115,3.9087 17.5001115,5.4 C17.5001115,5.4426 17.4954961,5.4837 17.4936499,5.5257 C18.9170345,5.916 19.9616499,7.1877 19.9616499,8.7 C19.9616499,10.5225 18.4462653,12 16.5770345,12 L4.57703453,12 C2.19795761,12 0.269342225,10.1196 0.269342225,7.8 C0.269342225,5.4804 2.19795761,3.6 4.57703453,3.6" id="Fill-11" fill="#FBFFFC"></path>
                                <path d="M16.810573,5.4114 C17.0459576,5.4273 17.2739576,5.4657 17.4936499,5.5257 C17.4954961,5.4837 17.5001115,5.4426 17.5001115,5.4 C17.5001115,4.5012 17.0478038,3.7071 16.3551884,3.2163 C16.6868807,3.6615 16.8847268,4.2075 16.8847268,4.8 C16.8847268,5.0106 16.8573422,5.2146 16.810573,5.4114" id="Fill-12" fill="#C5CCCD"></path>
                                <path d="M12.2693422,12 L16.4699576,12 C18.3099576,12 19.8942653,10.6128 19.9594961,8.82 C20.0028807,7.6296 19.3988807,6.5736 18.4638038,5.9604 C18.9293422,6.6348 19.1462653,7.4853 18.9862653,8.3883 C18.762573,9.6504 17.7693422,10.6884 16.494573,10.998 C15.7822653,11.1711 15.1004191,11.1144 14.4964191,10.8996 C14.8358038,10.4517 15.038573,9.8997 15.038573,9.3 C15.038573,8.4012 14.5862653,7.6071 13.8936499,7.1163 C14.3111884,7.6767 14.5167268,8.397 14.3822653,9.168 C14.1890345,10.2774 13.2724191,11.1714 12.1348807,11.3601 C11.898573,11.3991 11.6668807,11.4087 11.4428807,11.3922 C10.5650345,11.3268 9.84103453,10.6983 9.59672684,9.8736 C9.53949607,9.6798 9.50011146,9.4812 9.50011146,9.3 C9.50011146,9.1911 9.50811146,9.0843 9.52164992,8.979 C9.57580376,8.5332 9.74041915,8.1207 9.98964992,7.7688 C9.63580376,7.9074 9.26195761,8.0076 8.87149607,8.0574 C8.87672684,7.9719 8.88472684,7.887 8.88472684,7.8 C8.88472684,6.4104 8.18964992,5.1822 7.12318838,4.4175 C7.76841915,5.2737 8.09488069,6.3726 7.91057299,7.5522 C7.63149607,9.339 6.15549607,10.7781 4.32288069,11.0502 C3.11303453,11.2299 1.98595761,10.9116 1.10780376,10.2825 C1.89211146,11.3223 3.15180376,12 4.57703453,12 L12.2693422,12" id="Fill-13" fill="#C5CCCD"></path>
                                <path d="M12.2693422,6.6 C12.5899576,6.6 12.8967268,6.6558 13.1831884,6.7536 C13.5779576,6.0903 13.8078038,5.322 13.8078038,4.5 C13.8078038,3.0276 13.0791884,1.7244 11.9579576,0.9036 C12.5373422,1.6554 12.8847268,2.5872 12.8847268,3.6 C12.8847268,4.7916 12.4062653,5.8713 11.6302653,6.675 C11.8358038,6.6276 12.0490345,6.6 12.2693422,6.6" id="Fill-14" fill="#C5CCCD"></path>
                            </g>
                            <g transform="translate(18.000000, 1.000000)">
                                <path d="M4.59244252,3.6 C4.62351945,3.6 4.65367329,3.6039 4.68444252,3.6045 C5.11028868,1.5483 6.9733656,0 9.20782714,0 C11.2053656,0 12.9013656,1.2393 13.5438271,2.9706 C13.9081348,2.799 14.3149041,2.7 14.7462887,2.7 C16.2758271,2.7 17.5155194,3.9087 17.5155194,5.4 C17.5155194,5.4426 17.5109041,5.4837 17.5090579,5.5257 C18.9324425,5.916 19.9770579,7.1877 19.9770579,8.7 C19.9770579,10.5225 18.4616733,12 16.5924425,12 L4.59244252,12 C2.2133656,12 0.284750215,10.1196 0.284750215,7.8 C0.284750215,5.4804 2.2133656,3.6 4.59244252,3.6" id="Fill-11-Copy" fill="#FBFFFC"></path>
                                <path d="M16.825981,5.4114 C17.0613656,5.4273 17.2893656,5.4657 17.5090579,5.5257 C17.5109041,5.4837 17.5155194,5.4426 17.5155194,5.4 C17.5155194,4.5012 17.0632118,3.7071 16.3705964,3.2163 C16.7022887,3.6615 16.9001348,4.2075 16.9001348,4.8 C16.9001348,5.0106 16.8727502,5.2146 16.825981,5.4114" id="Fill-12-Copy" fill="#C5CCCD"></path>
                                <path d="M12.2847502,12 L16.4853656,12 C18.3253656,12 19.9096733,10.6128 19.9749041,8.82 C20.0182887,7.6296 19.4142887,6.5736 18.4792118,5.9604 C18.9447502,6.6348 19.1616733,7.4853 19.0016733,8.3883 C18.777981,9.6504 17.7847502,10.6884 16.509981,10.998 C15.7976733,11.1711 15.1158271,11.1144 14.5118271,10.8996 C14.8512118,10.4517 15.053981,9.8997 15.053981,9.3 C15.053981,8.4012 14.6016733,7.6071 13.9090579,7.1163 C14.3265964,7.6767 14.5321348,8.397 14.3976733,9.168 C14.2044425,10.2774 13.2878271,11.1714 12.1502887,11.3601 C11.913981,11.3991 11.6822887,11.4087 11.4582887,11.3922 C10.5804425,11.3268 9.85644252,10.6983 9.61213483,9.8736 C9.55490406,9.6798 9.51551945,9.4812 9.51551945,9.3 C9.51551945,9.1911 9.52351945,9.0843 9.53705791,8.979 C9.59121175,8.5332 9.75582714,8.1207 10.0050579,7.7688 C9.65121175,7.9074 9.2773656,8.0076 8.88690406,8.0574 C8.89213483,7.9719 8.90013483,7.887 8.90013483,7.8 C8.90013483,6.4104 8.20505791,5.1822 7.13859637,4.4175 C7.78382714,5.2737 8.11028868,6.3726 7.92598098,7.5522 C7.64690406,9.339 6.17090406,10.7781 4.33828868,11.0502 C3.12844252,11.2299 2.0013656,10.9116 1.12321175,10.2825 C1.90751945,11.3223 3.16721175,12 4.59244252,12 L12.2847502,12" id="Fill-13-Copy" fill="#C5CCCD"></path>
                                <path d="M12.2847502,6.6 C12.6053656,6.6 12.9121348,6.6558 13.1985964,6.7536 C13.5933656,6.0903 13.8232118,5.322 13.8232118,4.5 C13.8232118,3.0276 13.0945964,1.7244 11.9733656,0.9036 C12.5527502,1.6554 12.9001348,2.5872 12.9001348,3.6 C12.9001348,4.7916 12.4216733,5.8713 11.6456733,6.675 C11.8512118,6.6276 12.0644425,6.6 12.2847502,6.6" id="Fill-14-Copy" fill="#C5CCCD"></path>
                            </g>
                        </g>
                    </g>
                    <g id="Rocket" filter="url(#filter-4)" mask="url(#mask-2)">
                        <g transform="translate(41.000000, 25.000000)">
                            <path d="M7.5,25 C7.2984,25 7.1103,24.8792857 6.9993,24.6792857 C6.8322,24.3782143 6,22.8275 6,21.8507143 C6,20.83 6.6729,20 7.5,20 C8.3271,20 9,20.83 9,21.8507143 C9,22.8275 8.1675,24.3782143 8.0007,24.6792857 C7.8897,24.8792857 7.7016,25 7.5,25" id="Fill-411" fill="#DF5142" fill-rule="evenodd"></path>
                            <path d="M7.5,23 C7.29825,23 7.110375,22.8792857 6.999375,22.6792857 C6.832125,22.3782143 6,20.8275 6,19.8507143 C6,18.83 6.67275,18 7.5,18 C8.326875,18 9,18.83 9,19.8507143 C9,20.8275 8.1675,22.3782143 8.000625,22.6792857 C7.889625,22.8792857 7.701375,23 7.5,23" id="Fill-412" fill="#C2423D" fill-rule="evenodd"></path>
                            <path d="M11.7857143,10.2533831 C11.7857143,5.57414549 8.18178571,1.40712774 8.02821429,1.23194337 C7.75785714,0.922685543 7.24214286,0.922685543 6.97142857,1.23194337 C6.81821429,1.40712774 3.21428571,5.57414549 3.21428571,10.2533831 C3.21428571,11.4933773 3.32071429,12.8074453 3.47535714,14.0655877 C1.55285714,14.5666965 0,16.8981671 0,19.5185254 C0,19.7877834 0.138928571,20.03556 0.363571429,20.1663002 C0.47,20.2285221 0.588571429,20.2592627 0.706071429,20.2592627 C0.835714286,20.2592627 0.965357143,20.2214851 1.07928571,20.147041 C1.09214286,20.1388929 2.37142857,19.3144522 3.48571429,19.3144522 C3.90142857,19.3144522 4.21464286,19.4314887 4.44392857,19.671858 C4.45785714,19.6863024 4.47357143,19.6970431 4.48785714,19.710006 C4.58714286,20.137041 4.65464286,20.4029657 4.66678571,20.4500025 C4.75035714,20.7740751 5.03357143,21 5.35714286,21 L9.64285714,21 C9.96642857,21 10.2496429,20.7740751 10.3328571,20.4500025 C10.345,20.4029657 10.4125,20.137041 10.5117857,19.710006 C10.5264286,19.6970431 10.5421429,19.6863024 10.5557143,19.671858 C10.7853571,19.4314887 11.0985714,19.3144522 11.5142857,19.3144522 C12.6282143,19.3144522 13.9075,20.1388929 13.9203571,20.147041 C14.0346429,20.2214851 14.1642857,20.2592627 14.2935714,20.2592627 C14.4110714,20.2592627 14.5296429,20.2285221 14.6360714,20.1663002 C14.8607143,20.03556 15,19.7877834 15,19.5185254 C15,16.8981671 13.4467857,14.5666965 11.5242857,14.0655877 C11.6792857,12.8074453 11.7857143,11.4933773 11.7857143,10.2533831 Z" id="Fill-413" fill="#546670" fill-rule="evenodd"></path>
                            <path d="M14.9608377,19.4300219 C14.8329693,19.4894764 14.6902147,19.5188497 14.548987,19.5188497 C14.3932547,19.5188497 14.2375224,19.4827524 14.1001116,19.4116193 C14.0890424,19.405957 13.2916779,18.9986231 12.3465967,18.7700065 C11.79619,18.6365879 11.4289978,18.1574132 11.4900692,17.6329399 C11.5992345,16.6961781 11.6362591,15.5318615 11.5877836,14.3901942 C11.4931228,14.3597592 11.3980803,14.3310936 11.3011294,14.3084443 C10.9885197,16.5786848 10.2883335,18.6721538 10.0165655,19.7186232 C10.0245811,19.7214544 10.2256339,20.4134339 10.2416727,20.0342295 C10.4901573,19.7776552 10.9046447,19.3566194 11.37375,19.3566194 C12.5642621,19.3566194 13.8803194,20.1934282 13.8940605,20.2012139 C14.0162034,20.272347 14.1547594,20.3084443 14.2929336,20.3084443 C14.4185118,20.3084443 14.5452351,20.279071 14.6589808,20.2196165 C14.899068,20.0946913 15.0165655,19.7761318 15.0165655,19.5188497 C15.0165655,19.4785056 15.0116034,19.4392232 15.01084,19.3988791 C14.993282,19.4084343 14.9795409,19.4215284 14.9608377,19.4300219 Z" id="Fill-414" fill="#30404D" fill-rule="evenodd"></path>
                            <path d="M0.0565836962,19.4064435 C0.184800341,19.4648903 0.327943699,19.4937658 0.469556113,19.4937658 C0.625329768,19.4937658 0.781868895,19.4582802 0.919653946,19.3883529 C0.930753298,19.3827865 1.73028933,18.9823566 2.67794429,18.757615 C3.22984997,18.6264577 3.59804224,18.1554046 3.53680444,17.6398208 C3.42734187,16.7189365 3.12703502,15.2712678 3.17564252,14.1489509 C3.27056111,14.1190317 3.36624518,14.090852 3.46307745,14.0685866 C3.77653844,16.3003481 4.72749179,19.2883488 5,20.3170813 C4.99649559,20.3183059 4.6929985,20.5291398 4.64347341,20.3475035 C4.59394833,20.1658672 4.49297864,19.7110881 4.48844559,19.7126577 C4.23928429,19.4604322 4.05461222,19.3678591 3.63548795,19.351739 C2.47563789,19.3071295 1.16986802,20.1292928 1.15608951,20.1369466 C1.03361391,20.2068739 0.815918257,20.2818015 0.677367734,20.2818015 C0.551447506,20.2818015 0.422824255,20.2196458 0.308768852,20.1611991 C0.068027749,20.0383913 0.0220447656,19.7658371 0.000704203315,19.4937658 C-0.00239215913,19.4542902 0.0056797746,19.4154889 0.00644524711,19.3758286 C0.0240511147,19.3852218 0.0382123561,19.398094 0.0565836962,19.4064435 Z" id="Fill-415" fill="#30404D" fill-rule="evenodd"></path>
                            <path d="M8.40045512,1.17968749 C8.27078802,1.02446415 7.62164248,1.06316937 7.43347123,1.06316937 L7.4894927,19.4731089 C7.4894927,19.8834481 7.28004356,20.2573046 6.90233255,20.2573046 L4.62599938,20.2583696 C4.6506327,20.3623469 4.66671279,20.4284468 4.67184473,20.4496136 C4.75190305,20.7745429 5.04602163,21 5.35599099,21 L9.94722276,21 C10.2571921,21 10.4805957,20.7734779 10.5603118,20.4485487 C10.6171054,20.217199 12,14.7294226 12,10.2249749 C12,5.533368 8.54757082,1.35533495 8.40045512,1.17968749 L8.18583089,6.708194" id="Fill-416" fill="#30404D" fill-rule="evenodd"></path>
                            <path d="M11,5.39858902 C9.87865778,2.9203278 8.06329046,1.31040079 7.95824582,1.20000261 C7.6772607,0.902639749 7.28509142,0.912581573 7.00373512,1.20994443 C6.89906166,1.32034262 5.37416668,3.20766348 4.25319564,5.6859247 C5.3144063,5.9455385 5.88633104,6 7.09861296,6 C8.3105237,6 9.93878934,5.65820282 11,5.39858902 Z" id="Fill-417" fill="#ADBDC4" fill-rule="evenodd"></path>
                            <path d="M11.0173984,5.40338498 C10.0751748,2.83440858 8.03458818,1.31169242 7.92984027,1.22828807 C7.56135483,0.934885688 7.3761799,0.665523614 7.45631872,1.8397769 L7.46090045,5.96762718 C8.47922553,5.96762718 8.62546108,5.95015934 9.61637423,5.78367082 L11.0173984,5.40338498 Z" id="Fill-418" fill="#8BA6B1" fill-rule="evenodd"></path>
                            <path d="M10,10.5 C10,11.8804167 8.88041667,13 7.5,13 C6.11916667,13 5,11.8804167 5,10.5 C5,9.11916667 6.11916667,8 7.5,8 C8.88041667,8 10,9.11916667 10,10.5" id="Fill-419" fill="#ADBDC4" fill-rule="evenodd"></path>
                            <g id="Fill-421" fill="none">
                                <use fill="#F7CB64" fill-rule="evenodd" xlink:href="#path-5"></use>
                                <use fill="black" fill-opacity="1" filter="url(#filter-6)" xlink:href="#path-5"></use>
                            </g>
                        </g>
                    </g>
                    <g id="Blocks" mask="url(#mask-2)" fill-rule="nonzero">
                        <g transform="translate(19.000000, 56.000000)" id="Rectangle">
                            <polygon fill="#182A37" points="29.3387751 2.27151631e-13 52 2.27151631e-13 52 2 29.3387751 2"></polygon>
                            <polygon fill="#30404D" points="0.607339015 0.0173665634 29.3719415 -6.48370246e-14 29.3701538 2.01736656 0.35516653 2"></polygon>
                            <rect fill="#E1E4E1" x="4" y="2" width="48" height="6"></rect>
                        </g>
                    </g>
                    <g id="Gear" mask="url(#mask-2)">
                        <g transform="translate(50.000000, 43.000000)">
                            <g id="Group-10" stroke-width="1" fill="none" fill-rule="evenodd" transform="translate(21.500000, 21.500000) rotate(-45.000000) translate(-21.500000, -21.500000) translate(7.000000, 7.000000)">
                                <path d="M17.125,14.6984848 C17.125,12.9766361 15.7217519,11.5734848 14,11.5734848 C12.2779809,11.5734848 10.875,12.9764657 10.875,14.6984848 C10.875,16.4205039 12.2779809,17.8234848 14,17.8234848 C15.7217519,17.8234848 17.125,16.4203336 17.125,14.6984848 Z M16.841815,5.93321734 L16.8377538,5.93154436 C16.8387549,5.9319855 16.8401662,5.93256384 16.841815,5.93321733 Z M26.7315817,11.1218718 C28.1668008,11.4406113 29.25,12.7905766 29.25,14.2609848 L29.25,15.1359848 C29.25,16.606306 28.1663982,17.9566373 26.7311909,18.2750875 L25.0083134,18.6579903 L24.5857248,19.6852979 L25.532005,21.1720455 C26.3209845,22.4125975 26.1319504,24.1333639 25.0925085,25.1728058 L24.4735665,25.7917476 C23.448083,26.816496 21.6955106,27.0095229 20.4736882,26.2301334 L18.9861068,25.2842418 L17.9597582,25.707025 L17.576536,27.4304128 C17.2572574,28.8653482 15.9074532,29.9484848 14.4375,29.9484848 L13.5625,29.9484848 C12.0920087,29.9484848 10.7419741,28.8651633 10.4234282,27.4302521 L10.0402855,25.7072202 L9.01322469,25.2840845 L7.52569935,26.2309601 C6.30053742,27.0089452 4.55092344,26.8155021 3.52611652,25.7914308 L2.90705402,25.1723683 C1.86740459,24.1327189 1.67851306,22.411517 2.46810831,21.1718673 L3.41395685,19.6852173 L2.99121066,18.657832 L1.26809297,18.2751227 C-0.166740484,17.9564326 -1.25,16.6059947 -1.25,15.1359848 L-1.25,14.2609848 C-1.25,12.7907011 -0.166967719,11.4408131 1.26867736,11.1213768 L2.99126738,10.7389908 L3.41410599,9.71140594 L2.46817314,8.22520418 C1.67899408,6.98506566 1.86759372,5.26478893 2.90736652,4.22428895 L3.52579966,3.60629331 C4.55038039,2.58097759 6.30220125,2.38820173 7.52599315,3.16691178 L9.01329176,4.11280296 L10.0403467,3.68977653 L10.4233621,1.96657778 C10.7420765,0.531635184 12.0921644,-0.55151519 13.5625,-0.55151519 L14.4375,-0.55151519 C15.907458,-0.55151519 17.257696,0.531626341 17.5770525,1.96691203 L17.9599204,3.69001445 L18.9859704,4.11273375 L20.473759,3.16663193 C21.6979308,2.38768021 23.4492927,2.58021347 24.4738835,3.60553883 L25.0932553,4.22491076 C26.1320812,5.26446417 26.3209205,6.98476233 25.5318485,8.22473273 L24.5856043,9.71178951 L25.0080133,10.7386095 L26.7315817,11.1218718 Z M26.7315817,11.1218718 L26.7317673,11.121913 L26.7313386,11.1218178 C26.7314197,11.1218358 26.7315007,11.1218538 26.7315817,11.1218718 Z" id="Fill-376" stroke="#55A2FF" stroke-width="2.5"></path>
                                <g id="Fill-376">
                                    <use fill="black" fill-opacity="1" filter="url(#filter-8)" xlink:href="#path-7"></use>
                                    <use fill="#546670" fill-rule="evenodd" xlink:href="#path-7"></use>
                                </g>
                                <path d="M8.65270592,24.1588987 C8.71245659,24.1206765 8.85172838,24.0798183 9.01692142,24.0798183 C9.15267846,24.0798183 9.25328805,24.1066178 9.29766171,24.1303419 C9.3209469,24.1417646 9.34423209,24.1531873 9.36839597,24.1628527 L10.7378287,24.726959 C10.7597958,24.7357457 10.781763,24.7436537 10.8041695,24.7506831 C10.9671658,24.802964 11.2044111,25.0634897 11.2417553,25.2308764 L11.6960361,27.2737848 C11.8884685,28.140593 12.7346434,28.8198052 13.6229953,28.8198052 L14.5016817,28.8198052 C15.3895943,28.8198052 16.2357692,28.140593 16.4286409,27.2737848 L16.8829217,25.2308764 C16.9198266,25.0634897 17.1575112,24.802964 17.3205076,24.7506831 C17.3429141,24.7436537 17.3648812,24.7357457 17.386409,24.726959 L18.7558417,24.1628527 C18.7800056,24.1531873 18.8037301,24.1417646 18.826576,24.1303419 C18.871389,24.1066178 18.9719986,24.0798183 19.1068769,24.0798183 C19.27207,24.0798183 19.4117811,24.1206765 19.4706531,24.1588987 L21.2368127,25.2818393 C21.9696371,25.7492919 23.0798573,25.6253994 23.6927411,25.0129662 L24.3139723,24.3917463 C24.9417937,23.7639364 25.0604164,22.6849293 24.583729,21.9354235 L23.4598892,20.1697356 C23.3680665,20.0256337 23.3526894,19.6768016 23.4317712,19.5256703 C23.4436335,19.5023855 23.4546171,19.4791008 23.4642826,19.4553767 L24.0279599,18.0850904 C24.0371861,18.0635629 24.0455336,18.0415962 24.0521238,18.0191901 C24.1044056,17.8557574 24.3649361,17.6185164 24.5327652,17.581173 L26.5748323,17.1273398 C27.4420958,16.934911 28.1213203,16.0883121 28.1213203,15.2004158 L28.1213203,14.3217456 C28.1213203,13.4334099 27.4420958,12.5872504 26.5752717,12.3948216 L24.5323259,11.9405491 C24.3649361,11.9036449 24.1044056,11.666404 24.0521238,11.5029713 C24.0455336,11.4805652 24.0371861,11.4585984 24.0279599,11.437071 L23.4642826,10.0672241 C23.4546171,10.0435 23.4436335,10.0197759 23.4317712,9.99693044 C23.3526894,9.84535981 23.3680665,9.49608838 23.4598892,9.35242579 L24.583729,7.58629853 C25.0604164,6.83723211 24.8938334,5.80662471 24.2664513,5.17881479 L23.685951,4.59832021 L16.9748737,11.3093975 C17.7705242,12.1050335 18.4557703,13.5498337 18.4557703,14.7610807 C18.4557703,17.1835746 16.4844375,19.1544321 14.0623385,19.1544321 C12.8510694,19.1544321 11.5345179,18.3406004 10.7388674,17.5454038 L3.85162053,24.4326507 L4.43193597,25.0129662 C5.04394103,25.6245207 6.15240387,25.7492919 6.88786436,25.2822786 L8.65270592,24.1588987 Z" id="Fill-377" fill="#30404D"></path>
                            </g>
                            <circle id="Oval" fill="#55A2FF" fill-rule="nonzero" cx="21" cy="22" r="5"></circle>
                            <g id="Group-11" stroke-width="1" fill="none" fill-rule="evenodd" transform="translate(16.000000, 17.000000)">
                                <path d="M5,10 C7.762,10 10,7.762 10,5 C10,2.238 7.762,0 5,0 C2.239,0 0,2.238 0,5 C0,7.762 2.239,10 5,10 Z" id="Stroke-4" stroke="#30404D"></path>
                                <g id="Group-8" transform="translate(5.000000, 0.000000)">
                                    <mask id="mask-10" fill="white">
                                        <use xlink:href="#path-9"></use>
                                    </mask>
                                    <g id="Clip-7"></g>
                                    <polygon id="Stroke-6" stroke="#C4C4C4" mask="url(#mask-10)" points="-7.91666667 15.5 8.75 15.5 8.75 -4.5 -7.91666667 -4.5"></polygon>
                                </g>
                                <path d="M5,10 C7.762,10 10,7.762 10,5 C10,2.238 7.762,0 5,0" id="Stroke-9" stroke="#546670"></path>
                            </g>
                        </g>
                    </g>
                </g>
                <g id="Azure-Border" stroke="#0078D4" stroke-width="4">
                    <rect x="2" y="2" width="96" height="96" rx="48"></rect>
                </g>
            </g>
        </g>
    </g>
</svg>