<svg width="103" height="103" viewBox="0 0 103 103" fill="none" xmlns="http://www.w3.org/2000/svg">
<path d="M51.9851 98.7545C77.8375 98.7545 98.791 77.801 98.791 51.9486C98.791 26.0962 77.8375 5.1427 51.9851 5.1427C26.1327 5.1427 5.1792 26.0962 5.1792 51.9486C5.1792 77.801 26.1327 98.7545 51.9851 98.7545Z" fill="url(#paint0_linear)"/>
<path fill-rule="evenodd" clip-rule="evenodd" d="M51.9849 1.94861C24.3715 1.94861 1.98486 24.3353 1.98486 51.9486C1.98486 79.5619 24.3715 101.949 51.9849 101.949C79.5982 101.949 101.985 79.5619 101.985 51.9486C101.985 24.3353 79.5982 1.94861 51.9849 1.94861ZM51.9849 97.7055C26.7132 97.7055 6.22805 77.2202 6.22805 51.9486C6.22805 26.677 26.7132 6.1918 51.9849 6.1918C77.2565 6.1918 97.7417 26.677 97.7417 51.9486C97.7417 77.2202 77.2565 97.7055 51.9849 97.7055Z" fill="#D9D9D9"/>
<path fill-rule="evenodd" clip-rule="evenodd" d="M6.08754 51.9486C6.08754 77.2952 26.6383 97.846 51.9849 97.846C77.3314 97.846 97.8822 77.2952 97.8822 51.9486C97.8822 26.6021 77.3314 6.05129 51.9849 6.05129C26.6383 6.05129 6.08754 26.6021 6.08754 51.9486ZM51.9849 2.30457C24.5682 2.30457 2.34082 24.532 2.34082 51.9486C2.34082 79.3653 24.5682 101.593 51.9849 101.593C79.4015 101.593 101.629 79.3653 101.629 51.9486C101.629 24.532 79.4015 2.30457 51.9849 2.30457Z" fill="#F2F1F0"/>
<path fill-rule="evenodd" clip-rule="evenodd" d="M8.8976 51.9486C8.8976 75.7497 28.1838 95.0359 51.9849 95.0359C75.7859 95.0359 95.0722 75.7497 95.0722 51.9486C95.0722 28.1476 75.7859 8.86135 51.9849 8.86135C28.1838 8.86135 8.8976 28.1476 8.8976 51.9486ZM51.9849 5.11462C26.1232 5.11462 5.15088 26.0869 5.15088 51.9486C5.15088 77.8104 26.1232 98.7827 51.9849 98.7827C77.8466 98.7827 98.8189 77.8104 98.8189 51.9486C98.8189 26.0869 77.856 5.11462 51.9849 5.11462Z" fill="#0078D4"/>
<path opacity="0.15" d="M20.8498 32.2596H83.1297C85.1154 32.2596 86.7171 33.8707 86.7171 35.8471V71.7782C86.7171 73.7639 85.1061 75.3656 83.1297 75.3656H20.8498C18.864 75.3656 17.2622 73.7546 17.2622 71.7782V35.8471C17.2529 33.8707 18.864 32.2596 20.8498 32.2596Z" fill="#1F1D20"/>
<path d="M20.8498 30.3864H83.1297C85.1154 30.3864 86.7171 31.9974 86.7171 33.9738V69.9049C86.7171 71.8907 85.1061 73.4923 83.1297 73.4923H20.8498C18.864 73.4923 17.2622 71.8813 17.2622 69.9049V33.9738C17.2529 31.9974 18.864 30.3864 20.8498 30.3864Z" fill="url(#paint1_linear)" stroke="#A3A3A3" stroke-width="1.6164"/>
<path d="M68.1145 34.5826H34.9653V67.7318H68.1145V34.5826Z" stroke="#F2F1F0" stroke-width="1.0599" stroke-miterlimit="10"/>
<path d="M68.1896 68.659C68.8172 68.659 69.3324 68.1438 69.3324 67.5163C69.3324 66.8887 68.8172 66.3735 68.1896 66.3735C67.562 66.3735 67.0469 66.8887 67.0469 67.5163C67.0469 68.1438 67.562 68.659 68.1896 68.659Z" fill="white" stroke="white" stroke-width="0.8479" stroke-miterlimit="10"/>
<path d="M51.6105 68.8463C52.2381 68.8463 52.7532 68.3311 52.7532 67.7035C52.7532 67.0759 52.2381 66.5608 51.6105 66.5608C50.9829 66.5608 50.4678 67.0759 50.4678 67.7035C50.4678 68.3311 50.9829 68.8463 51.6105 68.8463Z" fill="white" stroke="white" stroke-width="0.8479" stroke-miterlimit="10"/>
<path d="M35.031 68.659C35.6586 68.659 36.1737 68.1438 36.1737 67.5163C36.1737 66.8887 35.6586 66.3735 35.031 66.3735C34.4034 66.3735 33.8882 66.8887 33.8882 67.5163C33.8882 68.1438 34.4034 68.659 35.031 68.659Z" fill="white" stroke="white" stroke-width="0.8479" stroke-miterlimit="10"/>
<path d="M68.1896 52.445C68.8172 52.445 69.3324 51.9298 69.3324 51.3023C69.3324 50.6747 68.8172 50.1595 68.1896 50.1595C67.562 50.1595 67.0469 50.6747 67.0469 51.3023C67.0469 51.9298 67.562 52.445 68.1896 52.445Z" fill="white" stroke="white" stroke-width="0.8479" stroke-miterlimit="10"/>
<path d="M35.031 52.445C35.6586 52.445 36.1737 51.9298 36.1737 51.3023C36.1737 50.6747 35.6586 50.1595 35.031 50.1595C34.4034 50.1595 33.8882 50.6747 33.8882 51.3023C33.8882 51.9298 34.4034 52.445 35.031 52.445Z" fill="white" stroke="white" stroke-width="0.8479" stroke-miterlimit="10"/>
<path d="M68.1896 35.4443C68.8172 35.4443 69.3324 34.9292 69.3324 34.3016C69.3324 33.674 68.8172 33.1588 68.1896 33.1588C67.562 33.1588 67.0469 33.674 67.0469 34.3016C67.0469 34.9292 67.562 35.4443 68.1896 35.4443Z" fill="white" stroke="white" stroke-width="0.8479" stroke-miterlimit="10"/>
<path d="M51.6105 35.4443C52.2381 35.4443 52.7532 34.9292 52.7532 34.3016C52.7532 33.674 52.2381 33.1588 51.6105 33.1588C50.9829 33.1588 50.4678 33.674 50.4678 34.3016C50.4678 34.9292 50.9829 35.4443 51.6105 35.4443Z" fill="white" stroke="white" stroke-width="0.8479" stroke-miterlimit="10"/>
<path d="M35.031 35.4443C35.6586 35.4443 36.1737 34.9292 36.1737 34.3016C36.1737 33.674 35.6586 33.1588 35.031 33.1588C34.4034 33.1588 33.8882 33.674 33.8882 34.3016C33.8882 34.9292 34.4034 35.4443 35.031 35.4443Z" fill="white" stroke="white" stroke-width="0.8479" stroke-miterlimit="10"/>
<path d="M57.7456 56.1263C57.4084 53.1195 54.8418 50.7684 51.7133 50.7684C48.6223 50.7684 46.0746 53.0821 45.6812 56.0607C45.6343 56.2668 45.6343 56.5009 45.6343 56.707C45.7092 57.5594 46.2993 58.3743 47.414 59.0206C49.7838 60.3788 53.6523 60.3788 55.994 59.0206C57.0993 58.3743 57.6707 57.5594 57.7456 56.707C57.8018 56.5009 57.7737 56.3042 57.7456 56.1263Z" fill="white"/>
<path d="M51.7322 49.8972C53.746 49.8972 55.3853 48.2674 55.3853 46.2629C55.3853 44.2584 53.746 42.6285 51.7322 42.6285C49.7183 42.6285 48.0791 44.2584 48.0791 46.2629C48.0791 48.2674 49.7089 49.8972 51.7322 49.8972Z" fill="white"/>
<defs>
<linearGradient id="paint0_linear" x1="53.7585" y1="-12.8467" x2="49.7757" y2="132.921" gradientUnits="userSpaceOnUse">
<stop stop-color="#00ABDE"/>
<stop offset="1" stop-color="#007ED8"/>
</linearGradient>
<linearGradient id="paint1_linear" x1="51.9881" y1="30.3866" x2="51.9881" y2="73.5055" gradientUnits="userSpaceOnUse">
<stop stop-color="#555559"/>
<stop offset="1" stop-color="#2E2E33"/>
</linearGradient>
</defs>
</svg>
