<svg width="181" height="191" viewBox="0 0 181 191" fill="none" xmlns="http://www.w3.org/2000/svg">
<path d="M90.5181 189.786C93.5781 189.786 96.5881 188.936 99.2481 187.316L161.218 149.656C166.758 146.286 170.188 139.956 170.188 133.116V58.4064C170.188 51.5864 166.758 45.2464 161.218 41.8664L99.2481 4.20644C93.9181 0.966441 87.0981 0.986441 81.7981 4.20644L19.8281 41.8864C14.2881 45.2564 10.8381 51.5864 10.8381 58.4264V133.126C10.8381 138.886 13.2881 144.306 17.3881 147.876V147.906L81.7981 187.336C84.4381 188.936 87.4581 189.786 90.5181 189.786ZM91.1681 8.73644C93.1181 8.73644 95.5981 9.94644 97.3081 10.9964L158.068 48.1864C161.818 50.4664 163.938 57.0664 163.938 61.8164L163.308 133.116C163.308 137.866 160.108 142.136 156.358 144.416L95.9581 180.796C92.5281 182.886 89.7381 182.886 86.2981 180.796L25.0881 144.326C21.3381 142.046 18.3181 137.846 18.3181 133.116V59.4764C18.3181 54.7364 21.0481 49.8464 24.8181 47.5564L85.3981 10.9964C87.0981 9.95644 89.2181 8.73644 91.1681 8.73644Z" fill="#F2F1F0"/>
<path fill-rule="evenodd" clip-rule="evenodd" d="M98.4182 12.3162C95.9682 10.8162 93.2482 10.0662 90.5182 10.0662C87.7882 10.0662 85.0681 10.8262 82.6181 12.3162L26.4882 46.6462C21.4682 49.7162 18.3582 55.4662 18.3582 61.7162V129.816C18.3582 136.046 21.4582 141.816 26.4882 144.886L82.6181 179.216C85.0681 180.716 87.7882 181.466 90.5182 181.466C93.2482 181.466 95.9682 180.726 98.4182 179.216L154.548 144.886C159.568 141.816 162.678 136.046 162.678 129.816V61.7162C162.678 55.4862 159.578 49.7362 154.548 46.6462L98.4182 12.3162Z" fill="url(#paint0_linear_818_27139)"/>
<path fill-rule="evenodd" clip-rule="evenodd" d="M90.5182 11.5364C92.1982 11.5364 94.0881 12.4064 96.1481 13.6564L154.618 49.1964C158.268 51.4164 160.678 55.6864 160.678 60.5164V130.996C160.678 135.816 158.268 140.096 154.618 142.316L96.1582 177.856C94.1982 179.046 92.2782 179.796 90.5282 179.796C88.7782 179.796 86.8581 179.046 84.8981 177.856L26.4182 142.326C24.4082 141.096 22.9582 139.896 21.9782 138.286C20.9982 136.686 20.3582 134.466 20.3582 131.006V60.5264C20.3582 55.6964 22.7682 51.4264 26.4182 49.2064L84.8782 13.6664C86.9682 12.4164 88.8282 11.5364 90.5182 11.5364ZM98.2281 181.286L156.688 145.746C161.608 142.756 164.668 137.136 164.668 131.006V60.5264C164.668 54.3964 161.608 48.7764 156.688 45.7864L98.2281 10.2464C96.1181 8.96638 93.4082 7.53638 90.5182 7.53638C87.6182 7.53638 84.9082 8.97638 82.8182 10.2364H82.8082L24.3382 45.7864C19.4182 48.7764 16.3582 54.3964 16.3582 60.5264V131.006C16.3582 134.966 17.0982 137.956 18.5582 140.366C20.0182 142.766 22.0782 144.366 24.3382 145.736L82.7982 181.276C85.0182 182.626 87.6881 183.806 90.5081 183.806C93.3281 183.806 96.0081 182.636 98.2281 181.286Z" fill="url(#paint1_linear_818_27139)"/>
<path opacity="0.2" d="M139.65 47.9709H41.3684V138.831C41.3684 141.598 43.6147 143.844 46.3822 143.844H57.0927V156.747C57.0927 157.718 58.2608 158.203 58.9617 157.52L72.7452 143.844H134.636C137.404 143.844 139.65 141.598 139.65 138.831V47.9709Z" fill="#1F1D21"/>
<g filter="url(#filter0_d_818_27139)">
<path d="M139.65 49.1307V47.6031C139.65 45.7162 138.122 44.1887 136.236 44.1887H44.7828C42.8959 44.1887 41.3684 45.7162 41.3684 47.6031V49.2924V50.8379V138.355C41.3684 140.242 42.8959 141.769 44.7828 141.769H57.0927V154.672C57.0927 155.643 58.2608 156.128 58.9617 155.445L72.7452 141.769H136.254C138.14 141.769 139.668 140.242 139.668 138.355V49.2924C139.668 49.2385 139.65 49.1846 139.65 49.1307Z" fill="#F2F1F0"/>
</g>
<path d="M56.4711 110.67C59.0786 108.05 63.3324 108.05 65.94 110.67C68.5476 113.289 68.5476 117.543 65.94 120.151C63.3324 122.77 59.0786 122.77 56.4711 120.151C53.8515 117.531 53.8515 113.301 56.4711 110.67Z" fill="#0078D4"/>
<path d="M86.6924 112.138C84.938 110.383 82.0901 110.383 80.3237 112.138C79.7349 112.726 79.3504 113.447 79.1581 114.192H74.712C74.4476 111.14 73.1379 108.148 70.8067 105.817C69.4728 104.483 67.9227 103.474 66.2645 102.813L69.1724 98.0903C69.9175 98.3186 70.7346 98.3667 71.5397 98.1624C73.955 97.5856 75.457 95.1583 74.8923 92.731C74.3275 90.3157 71.8882 88.8136 69.4728 89.3784C67.0575 89.9552 65.5555 92.3825 66.1203 94.8098C66.3125 95.6269 66.7211 96.3239 67.2618 96.9007L64.0294 102.128C59.6915 101.215 54.993 102.428 51.6284 105.793C46.3412 111.08 46.3412 119.696 51.6284 124.983C56.9157 130.27 65.5074 130.27 70.7947 124.983C73.1859 122.592 74.4837 119.54 74.712 116.415H79.1341C79.3263 117.172 79.7229 117.893 80.2997 118.47C82.0541 120.225 84.9019 120.225 86.6684 118.47C88.4468 116.752 88.4468 113.892 86.6924 112.138ZM68.6677 122.892C64.5581 127.014 57.865 127.014 53.7674 122.892C49.6698 118.771 49.6578 112.065 53.7674 107.968C57.877 103.87 64.5701 103.846 68.6677 107.968C72.7774 112.077 72.7774 118.771 68.6677 122.892Z" fill="url(#paint2_linear_818_27139)"/>
<path d="M104.032 77.8289C103.227 77.6366 102.41 77.6727 101.665 77.901L99.8744 75.005C99.8984 74.981 99.9465 74.9449 99.9825 74.8969C105.27 69.6096 105.27 60.9939 99.9825 55.7066C94.6953 50.4194 86.1035 50.4194 80.8163 55.7066C75.5291 60.9939 75.5291 69.6096 80.8163 74.8969C80.8163 74.8969 80.8163 74.8969 80.8283 74.9089L78.9778 77.901C78.2328 77.6727 77.4157 77.6246 76.6106 77.8289C74.1953 78.4057 72.6932 80.833 73.258 83.2603C73.8227 85.6756 76.2621 87.1777 78.6774 86.6129C81.0927 86.0361 82.5947 83.6088 82.03 81.1815C81.8377 80.3643 81.4291 79.6674 80.8884 79.0906L82.5587 76.3869C87.197 79.6794 93.4576 79.7034 98.12 76.459L99.7422 79.1026C99.2014 79.6554 98.7929 80.3764 98.6006 81.1935C98.0358 83.6088 99.5259 86.0481 101.953 86.6249C104.369 87.2017 106.796 85.6876 107.373 83.2723C107.949 80.821 106.447 78.4057 104.032 77.8289ZM82.9312 72.77C78.8216 68.6483 78.8216 61.9432 82.9312 57.8456C87.0408 53.748 93.734 53.7239 97.8316 57.8456C101.941 61.9672 101.941 68.6724 97.8316 72.77C93.734 76.8916 87.0408 76.8916 82.9312 72.77Z" fill="url(#paint3_linear_818_27139)"/>
<path d="M114.859 110.597C117.49 108.001 121.732 108.013 124.328 110.645C126.923 113.276 126.911 117.53 124.28 120.126C121.648 122.721 117.406 122.709 114.811 120.078C112.203 117.446 112.239 113.192 114.859 110.597Z" fill="#0078D4"/>
<path d="M129.219 105.815C125.806 102.379 121.011 101.141 116.601 102.138L113.393 96.9233C113.934 96.3705 114.342 95.6495 114.535 94.8324C115.099 92.4171 113.609 89.9778 111.182 89.401C108.767 88.8242 106.339 90.3383 105.763 92.7536C105.198 95.1689 106.688 97.6082 109.115 98.185C109.92 98.3773 110.737 98.3412 111.482 98.1129L114.414 102.847C112.84 103.496 111.362 104.458 110.076 105.731C107.709 108.087 106.387 111.115 106.111 114.203H101.461C101.268 113.446 100.872 112.725 100.295 112.148C98.5406 110.394 95.6927 110.394 93.9263 112.148C92.1719 113.902 92.1719 116.762 93.9263 118.517C95.6807 120.271 98.5286 120.271 100.295 118.517C100.884 117.928 101.268 117.207 101.461 116.462H106.087C106.327 119.538 107.613 122.566 109.956 124.934C115.207 130.257 123.811 130.305 129.122 125.018C134.422 119.73 134.47 111.127 129.219 105.815ZM126.996 122.855C122.874 126.952 116.169 126.916 112.095 122.783C107.998 118.649 108.046 111.944 112.167 107.858C116.289 103.761 122.994 103.797 127.068 107.93C131.165 112.064 131.141 118.769 126.996 122.855Z" fill="url(#paint4_linear_818_27139)"/>
<g filter="url(#filter1_d_818_27139)">
<path d="M80.6121 55.5385C85.9834 50.1551 94.7314 50.1551 100.103 55.5385C105.474 60.9219 105.474 69.6698 100.103 75.0532C94.7314 80.4365 85.9834 80.4365 80.6121 75.0532C75.2407 69.6698 75.2407 60.9219 80.6121 55.5385Z" fill="white"/>
</g>
<g filter="url(#filter2_d_818_27139)">
<path d="M51.7245 105.754C57.0718 100.395 65.7717 100.395 71.1191 105.754C76.4664 111.113 76.4664 119.825 71.1191 125.173C65.7717 130.52 57.0718 130.532 51.7245 125.173C46.3772 119.813 46.3772 111.101 51.7245 105.754Z" fill="white"/>
</g>
<g filter="url(#filter3_d_818_27139)">
<path d="M109.968 105.754C115.316 100.395 124.015 100.395 129.363 105.754C134.71 111.113 134.71 119.825 129.363 125.173C124.015 130.532 115.316 130.532 109.968 125.173C104.621 119.813 104.621 111.101 109.968 105.754Z" fill="white"/>
</g>
<path opacity="0.15" d="M98.4324 70.7279L90.3694 75.4384L82.3063 70.7279L90.3694 66.0415L98.4324 70.7279Z" fill="#1F1D20"/>
<path d="M98.4324 60.1682V69.505L90.3934 74.2154V64.8787L98.4324 60.1682Z" fill="#32B0E7"/>
<path d="M98.4324 60.1674L90.3694 64.8778L82.3063 60.1674L90.3694 55.481L98.4324 60.1674Z" fill="#45CAF2"/>
<path d="M90.3935 64.8787V74.2154L82.3304 69.505V60.1682L90.3935 64.8787Z" fill="#0078D4"/>
<path d="M82.3304 69.4805L90.3935 64.8181V74.1549L82.3304 69.4805Z" fill="#185A97"/>
<path d="M98.4324 69.4805L90.3694 64.8181V74.1549L98.4324 69.4805Z" fill="#156AB3"/>
<path d="M112.816 118.122H109.944V121.883H112.816V118.122Z" fill="#45CAF2"/>
<path d="M117.106 115.636H114.186V121.896H117.118V115.636H117.106Z" fill="#50E6FF"/>
<path d="M122.309 111.574H118.548V121.872H122.309V111.574Z" fill="#32B0E7"/>
<path d="M128.209 107.367H123.883V121.871H128.209V107.367Z" fill="#185A97"/>
<path d="M70.3231 110.65C70.3231 110.109 69.8905 109.677 69.3498 109.677H54.2692C53.7284 109.677 53.2958 110.109 53.2958 110.65C53.2958 111.191 53.7284 111.623 54.2692 111.623H69.3618C69.9025 111.623 70.3231 111.191 70.3231 110.65Z" fill="#50E6FF"/>
<path d="M56.9368 110.637C56.9368 111.706 57.802 112.571 58.8714 112.571C59.9409 112.571 60.8061 111.706 60.8061 110.637C60.8061 109.567 59.9409 108.702 58.8714 108.702C57.802 108.702 56.9368 109.567 56.9368 110.637Z" fill="#0D3868"/>
<path d="M70.3231 115.576C70.3231 115.035 69.8905 114.603 69.3498 114.603H54.2692C53.7284 114.603 53.2958 115.035 53.2958 115.576C53.2958 116.117 53.7284 116.549 54.2692 116.549H69.3618C69.9025 116.537 70.3231 116.105 70.3231 115.576Z" fill="#32B0E7"/>
<path d="M62.7648 115.565C62.7648 116.634 63.63 117.499 64.6994 117.499C65.7689 117.499 66.6341 116.634 66.6341 115.565C66.6341 114.495 65.7689 113.63 64.6994 113.63C63.63 113.63 62.7648 114.495 62.7648 115.565Z" fill="#0D3868"/>
<path d="M70.3231 120.779C70.3231 120.238 69.8905 119.806 69.3498 119.806H54.2692C53.7284 119.806 53.2958 120.238 53.2958 120.779C53.2958 121.32 53.7284 121.752 54.2692 121.752H69.3618C69.9025 121.752 70.3231 121.32 70.3231 120.779Z" fill="#185A97"/>
<path d="M56.9969 120.779C56.9969 121.849 57.8621 122.714 58.9316 122.714C60.0011 122.714 60.8662 121.849 60.8662 120.779C60.8662 119.71 60.0011 118.845 58.9316 118.845C57.8741 118.845 56.9969 119.71 56.9969 120.779Z" fill="#0D3868"/>
<defs>
<filter id="filter0_d_818_27139" x="37.3684" y="42.1887" width="106.3" height="119.575" filterUnits="userSpaceOnUse" color-interpolation-filters="sRGB">
<feFlood flood-opacity="0" result="BackgroundImageFix"/>
<feColorMatrix in="SourceAlpha" type="matrix" values="0 0 0 0 0 0 0 0 0 0 0 0 0 0 0 0 0 0 127 0" result="hardAlpha"/>
<feOffset dy="2"/>
<feGaussianBlur stdDeviation="2"/>
<feComposite in2="hardAlpha" operator="out"/>
<feColorMatrix type="matrix" values="0 0 0 0 0 0 0 0 0 0 0 0 0 0 0 0 0 0 0.25 0"/>
<feBlend mode="normal" in2="BackgroundImageFix" result="effect1_dropShadow_818_27139"/>
<feBlend mode="normal" in="SourceGraphic" in2="effect1_dropShadow_818_27139" result="shape"/>
</filter>
<filter id="filter1_d_818_27139" x="72.5836" y="48.501" width="35.5477" height="35.5898" filterUnits="userSpaceOnUse" color-interpolation-filters="sRGB">
<feFlood flood-opacity="0" result="BackgroundImageFix"/>
<feColorMatrix in="SourceAlpha" type="matrix" values="0 0 0 0 0 0 0 0 0 0 0 0 0 0 0 0 0 0 127 0" result="hardAlpha"/>
<feOffset dy="1"/>
<feGaussianBlur stdDeviation="2"/>
<feComposite in2="hardAlpha" operator="out"/>
<feColorMatrix type="matrix" values="0 0 0 0 0 0 0 0 0 0 0 0 0 0 0 0 0 0 0.25 0"/>
<feBlend mode="normal" in2="BackgroundImageFix" result="effect1_dropShadow_818_27139"/>
<feBlend mode="normal" in="SourceGraphic" in2="effect1_dropShadow_818_27139" result="shape"/>
</filter>
<filter id="filter2_d_818_27139" x="43.7141" y="98.7346" width="35.4155" height="35.4531" filterUnits="userSpaceOnUse" color-interpolation-filters="sRGB">
<feFlood flood-opacity="0" result="BackgroundImageFix"/>
<feColorMatrix in="SourceAlpha" type="matrix" values="0 0 0 0 0 0 0 0 0 0 0 0 0 0 0 0 0 0 127 0" result="hardAlpha"/>
<feOffset dy="1"/>
<feGaussianBlur stdDeviation="2"/>
<feComposite in2="hardAlpha" operator="out"/>
<feColorMatrix type="matrix" values="0 0 0 0 0 0 0 0 0 0 0 0 0 0 0 0 0 0 0.25 0"/>
<feBlend mode="normal" in2="BackgroundImageFix" result="effect1_dropShadow_818_27139"/>
<feBlend mode="normal" in="SourceGraphic" in2="effect1_dropShadow_818_27139" result="shape"/>
</filter>
<filter id="filter3_d_818_27139" x="101.958" y="98.7346" width="35.4155" height="35.4575" filterUnits="userSpaceOnUse" color-interpolation-filters="sRGB">
<feFlood flood-opacity="0" result="BackgroundImageFix"/>
<feColorMatrix in="SourceAlpha" type="matrix" values="0 0 0 0 0 0 0 0 0 0 0 0 0 0 0 0 0 0 127 0" result="hardAlpha"/>
<feOffset dy="1"/>
<feGaussianBlur stdDeviation="2"/>
<feComposite in2="hardAlpha" operator="out"/>
<feColorMatrix type="matrix" values="0 0 0 0 0 0 0 0 0 0 0 0 0 0 0 0 0 0 0.25 0"/>
<feBlend mode="normal" in2="BackgroundImageFix" result="effect1_dropShadow_818_27139"/>
<feBlend mode="normal" in="SourceGraphic" in2="effect1_dropShadow_818_27139" result="shape"/>
</filter>
<linearGradient id="paint0_linear_818_27139" x1="90.5181" y1="10.0662" x2="90.5181" y2="181.466" gradientUnits="userSpaceOnUse">
<stop stop-color="#00ABDE"/>
<stop offset="1" stop-color="#007ED8"/>
</linearGradient>
<linearGradient id="paint1_linear_818_27139" x1="36.6378" y1="4.85748" x2="203.315" y2="287.188" gradientUnits="userSpaceOnUse">
<stop stop-color="#007ED8"/>
<stop offset="0.7065" stop-color="#002D4C"/>
</linearGradient>
<linearGradient id="paint2_linear_818_27139" x1="42.8433" y1="84.8252" x2="115.632" y2="186.694" gradientUnits="userSpaceOnUse">
<stop stop-color="#007ED8"/>
<stop offset="0.873156" stop-color="#002D4C"/>
</linearGradient>
<linearGradient id="paint3_linear_818_27139" x1="79.1138" y1="69.7338" x2="112.021" y2="129.785" gradientUnits="userSpaceOnUse">
<stop stop-color="#007ED8"/>
<stop offset="0.7065" stop-color="#002D4C"/>
</linearGradient>
<linearGradient id="paint4_linear_818_27139" x1="75.6721" y1="89.0605" x2="135.812" y2="147.771" gradientUnits="userSpaceOnUse">
<stop stop-color="#007ED8"/>
<stop offset="0.7065" stop-color="#002D4C"/>
</linearGradient>
</defs>
</svg>
