<svg width="103" height="103" viewBox="0 0 103 103" fill="none" xmlns="http://www.w3.org/2000/svg">
<path d="M51.9851 97.8682C77.8375 97.8682 98.791 76.9146 98.791 51.0622C98.791 25.2099 77.8375 4.25635 51.9851 4.25635C26.1327 4.25635 5.1792 25.2099 5.1792 51.0622C5.1792 76.9146 26.1327 97.8682 51.9851 97.8682Z" fill="url(#paint0_linear)"/>
<path fill-rule="evenodd" clip-rule="evenodd" d="M51.9849 1.06226C24.3715 1.06226 1.98486 23.4489 1.98486 51.0622C1.98486 78.6756 24.3715 101.062 51.9849 101.062C79.5982 101.062 101.985 78.6756 101.985 51.0622C101.985 23.4489 79.5982 1.06226 51.9849 1.06226ZM51.9849 96.8191C26.7132 96.8191 6.22805 76.3339 6.22805 51.0622C6.22805 25.7906 26.7132 5.30542 51.9849 5.30542C77.2565 5.30542 97.7417 25.7906 97.7417 51.0622C97.7417 76.3339 77.2565 96.8191 51.9849 96.8191Z" fill="#D9D9D9"/>
<path fill-rule="evenodd" clip-rule="evenodd" d="M6.08754 51.0623C6.08754 76.4088 26.6383 96.9596 51.9849 96.9596C77.3314 96.9596 97.8822 76.4088 97.8822 51.0623C97.8822 25.7157 77.3314 5.16493 51.9849 5.16493C26.6383 5.16493 6.08754 25.7157 6.08754 51.0623ZM51.9849 1.41821C24.5682 1.41821 2.34082 23.6456 2.34082 51.0623C2.34082 78.4789 24.5682 100.706 51.9849 100.706C79.4015 100.706 101.629 78.4789 101.629 51.0623C101.629 23.6456 79.4015 1.41821 51.9849 1.41821Z" fill="#F2F1F0"/>
<path fill-rule="evenodd" clip-rule="evenodd" d="M8.8976 51.0622C8.8976 74.8633 28.1838 94.1495 51.9849 94.1495C75.7859 94.1495 95.0722 74.8633 95.0722 51.0622C95.0722 27.2612 75.7859 7.97493 51.9849 7.97493C28.1838 7.97493 8.8976 27.2612 8.8976 51.0622ZM51.9849 4.22821C26.1232 4.22821 5.15088 25.2005 5.15088 51.0622C5.15088 76.924 26.1232 97.8962 51.9849 97.8962C77.8466 97.8962 98.8189 76.924 98.8189 51.0622C98.8189 25.2005 77.856 4.22821 51.9849 4.22821Z" fill="#0078D4"/>
<path opacity="0.15" d="M20.8498 31.3732H83.1297C85.1154 31.3732 86.7171 32.9843 86.7171 34.9607V70.8918C86.7171 72.8775 85.1061 74.4792 83.1297 74.4792H20.8498C18.864 74.4792 17.2622 72.8682 17.2622 70.8918V34.9607C17.2529 32.9843 18.864 31.3732 20.8498 31.3732Z" fill="#1F1D20"/>
<path d="M20.8498 29.4999H83.1297C85.1154 29.4999 86.7171 31.111 86.7171 33.0874V69.0184C86.7171 71.0042 85.1061 72.6059 83.1297 72.6059H20.8498C18.864 72.6059 17.2622 70.9948 17.2622 69.0184V33.0874C17.2529 31.111 18.864 29.4999 20.8498 29.4999Z" fill="url(#paint1_linear)" stroke="#A3A3A3" stroke-width="1.6164"/>
<path opacity="0.15" d="M24.3057 68.2316C19.2195 68.2316 15.0981 64.0821 15.0981 58.9678C15.0981 54.2938 18.5263 50.444 23.0037 49.8352C22.6571 48.3927 22.4417 46.8659 22.4417 45.2923C22.4885 35.0731 30.6939 26.8116 40.8662 26.8116C47.8632 26.8116 53.9422 30.7831 57.0707 36.5999C58.5882 35.8599 60.3304 35.4197 62.157 35.4197C68.4983 35.4197 73.6688 40.6182 73.6688 46.997C73.6688 47.9618 73.5377 48.9172 73.3222 49.8352C73.6688 49.7883 74.0154 49.7884 74.3619 49.7884C79.4013 49.7415 83.532 53.8536 83.532 58.9585C83.532 64.0634 79.4012 68.2222 74.3244 68.2222L24.3057 68.2316Z" fill="#1F1D20"/>
<path opacity="0.15" d="M24.1281 68.3627C19.0419 68.3627 14.9204 64.2133 14.9204 59.099C14.9204 54.425 18.3487 50.5752 22.8261 49.9664C22.4795 48.5239 22.2641 46.9971 22.2641 45.4234C22.3109 35.2043 30.5161 26.9427 40.6885 26.9427C47.6855 26.9427 53.7646 30.9143 56.8931 36.7311C58.4105 35.9911 60.1527 35.5508 61.9792 35.5508C68.3205 35.5508 73.4911 40.7494 73.4911 47.1282C73.4911 48.093 73.3599 49.0484 73.1445 49.9664C73.4911 49.9195 73.8376 49.9195 74.1842 49.9195C79.2235 49.8727 83.3543 53.9847 83.3543 59.0896C83.3543 64.1945 79.2236 68.3534 74.1468 68.3534L24.1281 68.3627Z" fill="#1F1D20"/>
<path d="M24.3057 66.7704C19.2195 66.7704 15.0981 62.6209 15.0981 57.5066C15.0981 52.8326 18.5263 48.9828 23.0037 48.374C22.6571 46.9315 22.4417 45.4047 22.4417 43.8311C22.4885 33.6119 30.6939 25.3504 40.8662 25.3504C47.8632 25.3504 53.9422 29.3219 57.0707 35.1387C58.5882 34.3987 60.3304 33.9585 62.157 33.9585C68.4983 33.9585 73.6688 39.1571 73.6688 45.5359C73.6688 46.5006 73.5377 47.456 73.3222 48.374C73.6688 48.3272 74.0154 48.3272 74.3619 48.3272C79.4013 48.2803 83.532 52.3924 83.532 57.4973C83.532 62.6022 79.4012 66.761 74.3244 66.761H24.3057V66.7704V66.7704Z" fill="url(#paint2_linear)"/>
<path opacity="0.15" d="M77.144 35.7944H86.1737V33.8086H77.144V35.7944Z" fill="#1F1D20"/>
<path opacity="0.15" d="M77.144 38.773H86.1737V36.7872H77.144V38.773Z" fill="#1F1D20"/>
<path opacity="0.15" d="M77.144 41.6486H86.1737V39.6628H77.144V41.6486Z" fill="#1F1D20"/>
<path opacity="0.15" d="M77.144 44.5898H86.1737V42.604H77.144V44.5898Z" fill="#1F1D20"/>
<path opacity="0.15" d="M77.144 47.6246H86.0613V45.6389H77.144V47.6246Z" fill="#1F1D20"/>
<path opacity="0.15" d="M77.144 50.5003H82.1553V48.5145H77.144V50.5003Z" fill="#1F1D20"/>
<path opacity="0.15" d="M65.96 34.0521C60.93 34.0521 56.8555 38.136 56.8555 43.1566C56.8555 48.1773 60.93 52.2612 65.96 52.2612C70.9899 52.2612 75.0646 48.1773 75.0646 43.1566C75.0552 38.1267 70.9899 34.0521 65.96 34.0521ZM65.96 47.3998C63.6183 47.3998 61.7075 45.4984 61.7075 43.1473C61.7075 40.7962 63.6089 38.8948 65.96 38.8948C68.311 38.8948 70.2125 40.7962 70.2125 43.1473C70.2125 45.4984 68.3017 47.3998 65.96 47.3998Z" fill="#1F1D20"/>
<path fill-rule="evenodd" clip-rule="evenodd" d="M56.781 77.3361C56.781 78.891 55.5071 80.1555 53.9615 80.1555H28.5494C26.9945 80.1555 25.73 78.8816 25.73 77.3361V56.1671H56.781V77.3361Z" fill="#30404D"/>
<path fill-rule="evenodd" clip-rule="evenodd" d="M56.781 56.1671C56.781 57.722 55.5071 58.9865 53.9615 58.9865H28.5494C26.9945 58.9865 25.73 57.7126 25.73 56.1671V53.3476C25.73 51.7928 27.0039 50.5283 28.5494 50.5283H53.9615C55.5164 50.5283 56.781 51.8021 56.781 53.3476V56.1671Z" fill="#546670"/>
<path fill-rule="evenodd" clip-rule="evenodd" d="M53.9522 59.689H42.6651C41.8877 59.689 41.2507 60.3166 41.2507 61.1034V77.3361C41.2507 78.1135 40.6233 78.7505 39.8364 78.7505H28.5494C26.9945 78.7505 25.73 77.4766 25.73 75.9311V77.3454C25.73 78.9003 27.0039 80.1649 28.5494 80.1649H53.9615C55.5164 80.1649 56.781 78.891 56.781 77.3454V56.8696C56.781 58.4245 55.5071 59.689 53.9522 59.689Z" fill="#182A37"/>
<path fill-rule="evenodd" clip-rule="evenodd" d="M41.2504 63.2391C37.869 63.2391 35.1152 65.9836 35.1152 69.3743C35.1152 72.7558 37.8596 75.5096 41.2504 75.5096C44.6412 75.5096 47.3857 72.7558 47.3857 69.3743C47.3857 65.9836 44.6412 63.2391 41.2504 63.2391Z" fill="#ADBDC4"/>
<path fill-rule="evenodd" clip-rule="evenodd" d="M34.9001 54.7527C34.9001 55.9235 33.6355 56.8696 32.0806 56.8696C30.5258 56.8696 29.2612 55.9235 29.2612 54.7527C29.2612 53.5818 30.5258 52.6358 32.0806 52.6358C33.6355 52.6358 34.9001 53.5818 34.9001 54.7527Z" fill="#182A37"/>
<path fill-rule="evenodd" clip-rule="evenodd" d="M53.2492 54.7527C53.2492 55.9235 51.9847 56.8696 50.4298 56.8696C48.8749 56.8696 47.6104 55.9235 47.6104 54.7527C47.6104 53.5818 48.8749 52.6358 50.4298 52.6358C51.9847 52.6358 53.2492 53.5818 53.2492 54.7527Z" fill="#182A37"/>
<path fill-rule="evenodd" clip-rule="evenodd" d="M41.2504 35.9255C35.0215 35.9255 29.9541 40.9929 29.9541 47.2219V56.1391C30.4693 56.5793 31.2186 56.8697 32.071 56.8697C32.9234 56.8697 33.6727 56.5793 34.1879 56.1391V47.2219C34.1879 43.3346 37.3539 40.1687 41.2411 40.1687C45.1284 40.1687 48.2943 43.3346 48.2943 47.2219V54.7528C48.2943 55.5302 49.2403 56.1672 50.4112 56.1672C51.582 56.1672 52.5281 55.5302 52.5281 54.7528V47.2219C52.5468 40.9929 47.4793 35.9255 41.2504 35.9255Z" fill="#F5F8F5"/>
<path fill-rule="evenodd" clip-rule="evenodd" d="M37.204 40.6932C34.4783 41.8359 32.7829 44.5898 32.7829 47.5403V53.8254C32.7829 54.7527 31.9024 55.4365 31.0126 55.193C30.5723 55.0712 30.1789 54.912 29.9541 54.7246V56.139C30.4693 56.5793 31.2186 56.8696 32.071 56.8696C32.3145 56.8696 32.5487 56.8416 32.7735 56.7947C32.914 56.7666 33.0545 56.7291 33.1856 56.6917C33.2512 56.6729 33.3168 56.6449 33.3824 56.6168C33.4761 56.5793 33.5697 56.5324 33.6633 56.4856C33.7102 56.4575 33.757 56.4388 33.8038 56.4107C33.935 56.3264 34.0661 56.2421 34.1785 56.1484V47.2312C34.1785 43.5781 36.9699 40.562 40.5293 40.2061C39.4802 40.0937 38.3561 40.2155 37.204 40.6932Z" fill="#C5CCCD"/>
<path fill-rule="evenodd" clip-rule="evenodd" d="M41.2504 35.9255C41.0162 35.9255 40.782 35.9442 40.5479 35.963C46.4489 36.3283 51.1324 41.2271 51.1324 47.2219V53.8348C51.1324 54.7621 50.2519 55.4459 49.362 55.2024C48.9218 55.0806 48.5284 54.9214 48.3036 54.734V56.1484C48.8188 56.5887 49.5775 56.879 50.4205 56.879C51.2729 56.879 52.0222 56.5887 52.5374 56.1484V47.2312C52.5468 40.9929 47.4793 35.9255 41.2504 35.9255Z" fill="#C5CCCD"/>
<path d="M77.144 35.3541H86.1737V33.3683H77.144V35.3541Z" fill="white"/>
<path d="M77.144 38.3328H86.1737V36.347H77.144V38.3328Z" fill="#50E6FF"/>
<path d="M77.144 41.2084H86.1737V39.2226H77.144V41.2084Z" fill="#50E6FF"/>
<path d="M77.144 44.1496H86.1737V42.1638H77.144V44.1496Z" fill="#50E6FF"/>
<path d="M77.144 47.1844H86.0613V45.1986H77.144V47.1844Z" fill="#50E6FF"/>
<path d="M77.144 50.0599H82.1553V48.0742H77.144V50.0599Z" fill="#50E6FF"/>
<path d="M65.96 33.1717C60.93 33.1717 56.8555 37.2556 56.8555 42.2762C56.8555 47.2968 60.93 51.3807 65.96 51.3807C70.9899 51.3807 75.0646 47.2968 75.0646 42.2762C75.0552 37.2463 70.9899 33.1717 65.96 33.1717ZM65.96 46.5194C63.6183 46.5194 61.7075 44.6179 61.7075 42.2669C61.7075 39.9158 63.6089 38.0143 65.96 38.0143C68.311 38.0143 70.2125 39.9158 70.2125 42.2669C70.2125 44.6179 68.3017 46.5194 65.96 46.5194Z" fill="white"/>
<path d="M65.9511 38.0237L65.9323 33.1623C62.7289 33.1717 59.9188 34.8296 58.2983 37.3493L62.2886 40.1405C63.0099 38.876 64.3868 38.0237 65.9511 38.0237Z" fill="#50E6FF"/>
<path d="M61.7169 42.2762C61.7169 41.4988 61.9229 40.7775 62.2789 40.1593L58.298 37.3586L58.2792 37.3867C57.38 38.8011 56.8555 40.4684 56.8555 42.2762C56.8555 43.6157 57.1458 44.8895 57.6704 46.0323L62.1102 44.0746C61.848 43.522 61.7169 42.9132 61.7169 42.2762Z" fill="#3BCAF4"/>
<defs>
<linearGradient id="paint0_linear" x1="53.7585" y1="-13.7297" x2="49.7757" y2="132.038" gradientUnits="userSpaceOnUse">
<stop stop-color="#00ABDE"/>
<stop offset="1" stop-color="#007ED8"/>
</linearGradient>
<linearGradient id="paint1_linear" x1="51.9881" y1="29.5035" x2="51.9881" y2="72.6228" gradientUnits="userSpaceOnUse">
<stop stop-color="#555559"/>
<stop offset="1" stop-color="#2E2E33"/>
</linearGradient>
<linearGradient id="paint2_linear" x1="49.3189" y1="23.1375" x2="49.3189" y2="68.5198" gradientUnits="userSpaceOnUse">
<stop stop-color="#008BF1"/>
<stop offset="0.22" stop-color="#0086EC"/>
<stop offset="0.49" stop-color="#0078DD"/>
<stop offset="0.79" stop-color="#0061C4"/>
<stop offset="1" stop-color="#004DAE"/>
</linearGradient>
</defs>
</svg>
