<svg width="103" height="103" viewBox="0 0 103 103" fill="none" xmlns="http://www.w3.org/2000/svg">
<path d="M51.9851 98.5518C77.8375 98.5518 98.791 77.5983 98.791 51.7459C98.791 25.8935 77.8375 4.93994 51.9851 4.93994C26.1327 4.93994 5.1792 25.8935 5.1792 51.7459C5.1792 77.5983 26.1327 98.5518 51.9851 98.5518Z" fill="url(#paint0_linear)"/>
<path fill-rule="evenodd" clip-rule="evenodd" d="M51.9849 1.74597C24.3715 1.74597 1.98486 24.1326 1.98486 51.746C1.98486 79.3593 24.3715 101.746 51.9849 101.746C79.5982 101.746 101.985 79.3593 101.985 51.746C101.985 24.1326 79.5982 1.74597 51.9849 1.74597ZM51.9849 97.5028C26.7132 97.5028 6.22805 77.0176 6.22805 51.746C6.22805 26.4743 26.7132 5.98916 51.9849 5.98916C77.2565 5.98916 97.7417 26.4743 97.7417 51.746C97.7417 77.0176 77.2565 97.5028 51.9849 97.5028Z" fill="#D9D9D9"/>
<path fill-rule="evenodd" clip-rule="evenodd" d="M6.08754 51.7459C6.08754 77.0924 26.6383 97.6432 51.9849 97.6432C77.3314 97.6432 97.8822 77.0924 97.8822 51.7459C97.8822 26.3993 77.3314 5.84853 51.9849 5.84853C26.6383 5.84853 6.08754 26.3993 6.08754 51.7459ZM51.9849 2.10181C24.5682 2.10181 2.34082 24.3292 2.34082 51.7459C2.34082 79.1625 24.5682 101.39 51.9849 101.39C79.4015 101.39 101.629 79.1625 101.629 51.7459C101.629 24.3292 79.4015 2.10181 51.9849 2.10181Z" fill="#F2F1F0"/>
<path fill-rule="evenodd" clip-rule="evenodd" d="M8.8976 51.7459C8.8976 75.5469 28.1838 94.8332 51.9849 94.8332C75.7859 94.8332 95.0722 75.5469 95.0722 51.7459C95.0722 27.9448 75.7859 8.65859 51.9849 8.65859C28.1838 8.65859 8.8976 27.9448 8.8976 51.7459ZM51.9849 4.91187C26.1232 4.91187 5.15088 25.8841 5.15088 51.7459C5.15088 77.6076 26.1232 98.5799 51.9849 98.5799C77.8466 98.5799 98.8189 77.6076 98.8189 51.7459C98.8189 25.8841 77.856 4.91187 51.9849 4.91187Z" fill="#0078D4"/>
<path opacity="0.15" d="M20.8498 32.0568H83.1297C85.1154 32.0568 86.7171 33.6679 86.7171 35.6443V71.5753C86.7171 73.5611 85.1061 75.1628 83.1297 75.1628H20.8498C18.864 75.1628 17.2622 73.5517 17.2622 71.5753V35.6443C17.2529 33.6679 18.864 32.0568 20.8498 32.0568Z" fill="#1F1D20"/>
<path d="M20.8498 30.1835H83.1297C85.1154 30.1835 86.7171 31.7946 86.7171 33.771V69.702C86.7171 71.6878 85.1061 73.2895 83.1297 73.2895H20.8498C18.864 73.2895 17.2622 71.6784 17.2622 69.702V33.771C17.2529 31.7946 18.864 30.1835 20.8498 30.1835Z" fill="url(#paint1_linear)"/>
<path opacity="0.15" fill-rule="evenodd" clip-rule="evenodd" d="M31.8463 33.5742V45.7698C31.8463 59.2392 37.6536 67.8005 51.835 75.1253C66.0163 67.8005 71.8237 59.2392 71.8237 45.7698V33.5742C62.6911 33.3494 56.1156 31.3168 51.835 27.3827C47.5544 31.3261 40.9883 33.3587 31.8463 33.5742ZM51.835 78.8252C51.5727 78.8252 51.2917 78.769 51.0576 78.6472C35.1621 70.648 28.3711 60.8222 28.3711 45.7885V31.8694C28.3711 30.914 29.1486 30.1272 30.1134 30.1272C40.1172 30.1272 46.805 28.0478 50.533 23.7672C51.198 23.0084 52.4907 23.0084 53.1557 23.7672C56.8931 28.0478 63.5622 30.1272 73.5753 30.1272C74.5307 30.1272 75.3176 30.9046 75.3176 31.8694V45.7885C75.3176 60.8316 68.5266 70.6573 52.6311 78.6472C52.3782 78.769 52.1066 78.8252 51.835 78.8252Z" fill="#1F1D20"/>
<path fill-rule="evenodd" clip-rule="evenodd" d="M51.8349 22.0156C47.2827 27.2423 39.2554 28.9752 30.104 28.9752V42.8755C30.104 57.2067 36.464 66.4424 51.8349 74.17C67.2152 66.4517 73.5659 57.216 73.5659 42.8755V28.9658C64.4239 28.9658 56.3966 27.2329 51.8349 22.0156Z" fill="#243A5E"/>
<path fill-rule="evenodd" clip-rule="evenodd" d="M51.835 22.0156V74.17C67.2153 66.4424 73.5659 57.2067 73.5659 42.8755V28.9658C64.4239 28.9658 56.3966 27.2329 51.835 22.0156Z" fill="#002D4C"/>
<path fill-rule="evenodd" clip-rule="evenodd" d="M31.8463 30.6613V42.8569C31.8463 56.3264 37.6536 64.8876 51.835 72.2124C66.0163 64.8876 71.8237 56.3264 71.8237 42.8569V30.6613C62.6911 30.4365 56.1156 28.4039 51.835 24.4699C47.5544 28.4039 40.9883 30.4365 31.8463 30.6613ZM51.835 75.9029C51.5727 75.9029 51.2917 75.8467 51.0576 75.725C35.1621 67.7257 28.3711 57.9 28.3711 42.8663V28.9472C28.3711 27.9917 29.1486 27.205 30.1134 27.205C40.1172 27.205 46.805 25.1255 50.533 20.8449C51.198 20.0862 52.4907 20.0862 53.1557 20.8449C56.8931 25.1255 63.5622 27.205 73.5753 27.205C74.5307 27.205 75.3176 27.9824 75.3176 28.9472V42.8663C75.3176 57.9094 68.5266 67.7351 52.6311 75.725C52.3782 75.8467 52.1066 75.9029 51.835 75.9029Z" fill="#546670"/>
<path opacity="0.15" d="M41.4375 52.7014C41.4375 54.1064 42.5802 55.2492 43.9852 55.2492C45.3903 55.2492 46.533 54.1064 46.533 52.7014C46.533 52.0926 46.3176 51.5587 45.9616 51.1091L50.542 42.4073C49.9706 42.1918 49.493 41.8828 49.0621 41.4613C48.2284 40.6651 47.7038 39.5317 47.7038 38.2859C47.7038 35.8599 49.6803 33.8835 52.1063 33.8835C54.5323 33.8835 56.5087 35.8599 56.5087 38.2859C56.5087 38.6606 56.4524 39.0258 56.3588 39.3631L58.0261 40.0281C58.1853 39.4661 58.3165 38.8947 58.3165 38.2859C58.3165 34.867 55.5346 32.0851 52.1157 32.0851C48.6968 32.0851 45.9149 34.867 45.9149 38.2859C45.9149 40.1967 46.814 41.8921 48.1628 43.0349L44.4068 50.1911C44.2663 50.1724 44.1351 50.1536 43.9852 50.1536C42.5802 50.1724 41.4375 51.2964 41.4375 52.7014Z" fill="#1F1D20"/>
<path opacity="0.15" d="M60.0402 55.2586C61.4452 55.2586 62.5879 54.1158 62.5879 52.7108C62.5879 51.3058 61.4452 50.1631 60.0402 50.1631C58.963 50.1631 58.0263 50.8468 57.661 51.8023H48.2848C48.341 52.0926 48.388 52.383 48.388 52.7015C48.388 53.0106 48.3504 53.3103 48.2848 53.6007C47.8633 55.6052 46.1024 57.1132 43.9761 57.1132C41.5501 57.1132 39.5738 55.1368 39.5738 52.7108C39.5738 50.8375 40.7633 49.2264 42.4399 48.5988L41.9155 46.9034C39.5176 47.7652 37.7847 50.0413 37.7847 52.7202C37.7847 56.1391 40.576 58.921 43.9855 58.921C47.0953 58.921 49.6618 56.6074 50.102 53.61H57.661C58.0263 54.5748 58.9443 55.2586 60.0402 55.2586Z" fill="#1F1D20"/>
<path opacity="0.15" d="M60.0399 46.4631C59.4404 46.4631 58.8878 46.5756 58.3352 46.7348C58.3165 46.7348 58.3164 46.7348 58.3164 46.7348V46.7535V46.7348L54.1388 39.794C54.4666 39.3725 54.6727 38.8386 54.6727 38.2485C54.6727 36.8435 53.53 35.7007 52.125 35.7007C50.72 35.7007 49.5771 36.8435 49.5771 38.2485C49.5771 39.6535 50.72 40.7962 52.125 40.7962C52.2842 40.7962 52.4527 40.7775 52.612 40.74L57.5671 49.0484C58.0729 48.7112 58.7098 48.4302 59.3374 48.3084C59.5716 48.271 59.8057 48.2522 60.0399 48.2522C62.4659 48.2522 64.4423 50.2286 64.4423 52.6546C64.4423 55.0806 62.4659 57.057 60.0399 57.057C58.9346 57.057 57.9324 56.6449 57.155 55.9611L55.8904 57.2256C56.9863 58.2372 58.4382 58.8555 60.0399 58.8555C63.4588 58.8555 66.2407 56.0735 66.2407 52.6546C66.2407 49.2451 63.4588 46.4631 60.0399 46.4631Z" fill="#1F1D20"/>
<path d="M41.4375 51.4182C41.4375 52.8232 42.5802 53.966 43.9852 53.966C45.3903 53.966 46.533 52.8232 46.533 51.4182C46.533 50.8094 46.3176 50.2755 45.9616 49.8259L50.542 41.1241C49.9706 40.9086 49.493 40.5996 49.0621 40.1781C48.2284 39.3819 47.7038 38.2485 47.7038 37.0027C47.7038 34.5767 49.6803 32.6003 52.1063 32.6003C54.5323 32.6003 56.5087 34.5767 56.5087 37.0027C56.5087 37.3774 56.4524 37.7426 56.3588 38.0798L58.0261 38.7449C58.1853 38.1829 58.3165 37.6115 58.3165 37.0027C58.3165 33.5838 55.5346 30.8019 52.1157 30.8019C48.6968 30.8019 45.9149 33.5838 45.9149 37.0027C45.9149 38.9135 46.814 40.6089 48.1628 41.7517L44.4068 48.9079C44.2663 48.8891 44.1351 48.8704 43.9852 48.8704C42.5802 48.8798 41.4375 50.0132 41.4375 51.4182Z" fill="white"/>
<path d="M60.0402 53.9659C61.4452 53.9659 62.5879 52.8232 62.5879 51.4181C62.5879 50.0131 61.4452 48.8703 60.0402 48.8703C58.963 48.8703 58.0263 49.5541 57.661 50.5095H48.2848C48.341 50.7999 48.388 51.0903 48.388 51.4088C48.388 51.7179 48.3504 52.0176 48.2848 52.3079C47.8633 54.3124 46.1024 55.8205 43.9761 55.8205C41.5501 55.8205 39.5738 53.8441 39.5738 51.4181C39.5738 49.5448 40.7633 47.9337 42.4399 47.3061L41.9155 45.6107C39.5176 46.4725 37.7847 48.7486 37.7847 51.4275C37.7847 54.8463 40.576 57.6283 43.9855 57.6283C47.0953 57.6283 49.6618 55.3147 50.102 52.3173H57.661C58.0263 53.2821 58.9443 53.9659 60.0402 53.9659Z" fill="white"/>
<path d="M60.0399 45.1799C59.4404 45.1799 58.8878 45.2923 58.3352 45.4515C58.3165 45.4515 58.3164 45.4515 58.3164 45.4515V45.4703V45.4515L54.1388 38.5108C54.4666 38.0893 54.6727 37.5553 54.6727 36.9652C54.6727 35.5602 53.53 34.4175 52.125 34.4175C50.72 34.4175 49.5771 35.5602 49.5771 36.9652C49.5771 38.3702 50.72 39.513 52.125 39.513C52.2842 39.513 52.4527 39.4943 52.612 39.4568L57.5671 47.7652C58.0729 47.428 58.7098 47.147 59.3374 47.0252C59.5716 46.9878 59.8057 46.969 60.0399 46.969C62.4659 46.969 64.4423 48.9454 64.4423 51.3714C64.4423 53.7974 62.4659 55.7738 60.0399 55.7738C58.9346 55.7738 57.9324 55.3617 57.155 54.6779L55.8904 55.9424C56.9863 56.954 58.4382 57.5722 60.0399 57.5722C63.4588 57.5722 66.2407 54.7903 66.2407 51.3714C66.2407 47.9619 63.4588 45.1799 60.0399 45.1799Z" fill="white"/>
<defs>
<linearGradient id="paint0_linear" x1="53.7585" y1="-13.0448" x2="49.7757" y2="132.723" gradientUnits="userSpaceOnUse">
<stop stop-color="#00ABDE"/>
<stop offset="1" stop-color="#007ED8"/>
</linearGradient>
<linearGradient id="paint1_linear" x1="51.9881" y1="30.1875" x2="51.9881" y2="73.3068" gradientUnits="userSpaceOnUse">
<stop stop-color="#555559"/>
<stop offset="1" stop-color="#2E2E33"/>
</linearGradient>
</defs>
</svg>
