<svg width="181" height="191" viewBox="0 0 181 191" fill="none" xmlns="http://www.w3.org/2000/svg">
<path d="M90.8045 189.877C93.8645 189.877 96.8745 189.027 99.5345 187.407L161.505 149.747C167.045 146.377 170.475 140.047 170.475 133.207V58.497C170.475 51.677 167.045 45.337 161.505 41.957L99.5345 4.29702C94.2045 1.05702 87.3845 1.07702 82.0845 4.29702L20.1145 41.977C14.5745 45.347 11.1245 51.677 11.1245 58.517V133.217C11.1245 138.977 13.5745 144.397 17.6745 147.967V147.997L82.0845 187.427C84.7245 189.027 87.7445 189.877 90.8045 189.877ZM91.4545 8.82702C93.4045 8.82702 95.8845 10.037 97.5945 11.087L158.355 48.277C162.105 50.557 164.225 57.157 164.225 61.907L163.595 133.207C163.595 137.957 160.395 142.227 156.645 144.507L96.2445 180.887C92.8145 182.977 90.0245 182.977 86.5845 180.887L25.3745 144.417C21.6245 142.137 18.6045 137.937 18.6045 133.207V59.567C18.6045 54.827 21.3345 49.937 25.1045 47.647L85.6845 11.087C87.3845 10.047 89.5045 8.82702 91.4545 8.82702Z" fill="#F2F1F0"/>
<path fill-rule="evenodd" clip-rule="evenodd" d="M98.7045 12.4067C96.2545 10.9067 93.5345 10.1567 90.8045 10.1567C88.0745 10.1567 85.3545 10.9167 82.9045 12.4067L26.7745 46.7367C21.7545 49.8067 18.6445 55.5567 18.6445 61.8067V129.907C18.6445 136.137 21.7445 141.907 26.7745 144.977L82.9045 179.307C85.3545 180.807 88.0745 181.557 90.8045 181.557C93.5345 181.557 96.2545 180.817 98.7045 179.307L154.835 144.977C159.855 141.907 162.965 136.137 162.965 129.907V61.8067C162.965 55.5767 159.865 49.8267 154.835 46.7367L98.7045 12.4067Z" fill="url(#paint0_linear)"/>
<path fill-rule="evenodd" clip-rule="evenodd" d="M90.8045 11.627C92.4845 11.627 94.3745 12.497 96.4345 13.747L154.905 49.287C158.555 51.507 160.965 55.777 160.965 60.607V131.087C160.965 135.907 158.555 140.187 154.905 142.407L96.4445 177.947C94.4845 179.137 92.5645 179.887 90.8145 179.887C89.0645 179.887 87.1445 179.137 85.1845 177.947L26.7045 142.417C24.6945 141.187 23.2445 139.987 22.2645 138.377C21.2845 136.777 20.6445 134.557 20.6445 131.097V60.617C20.6445 55.787 23.0545 51.517 26.7045 49.297L85.1645 13.757C87.2545 12.507 89.1145 11.627 90.8045 11.627ZM98.5145 181.377L156.975 145.837C161.895 142.847 164.955 137.227 164.955 131.097V60.617C164.955 54.487 161.895 48.867 156.975 45.877L98.5145 10.337C96.4045 9.05695 93.6945 7.62695 90.8045 7.62695C87.9045 7.62695 85.1945 9.06695 83.1045 10.327H83.0945L24.6245 45.877C19.7045 48.867 16.6445 54.487 16.6445 60.617V131.097C16.6445 135.057 17.3845 138.047 18.8445 140.457C20.3045 142.857 22.3645 144.457 24.6245 145.827L83.0845 181.367C85.3045 182.717 87.9745 183.897 90.7945 183.897C93.6145 183.897 96.2945 182.727 98.5145 181.377Z" fill="url(#paint1_linear)"/>
<path opacity="0.2" d="M149.695 132.377L89.6745 167.757L30.8445 132.577L89.6745 97.1968L149.695 132.377Z" fill="#1F1D21"/>
<path d="M31.7845 60.6069L90.6145 25.8369L150.635 60.0069L90.6245 94.7769L31.7845 60.6069Z" fill="#7B83EB"/>
<path d="M90.6245 94.7768V163.717L150.645 128.947V60.0068L90.6245 94.7768Z" fill="url(#paint2_linear)"/>
<path d="M31.7845 60.6069V129.547L90.6145 163.717V94.7769L31.7845 60.6069Z" fill="url(#paint3_linear)"/>
<path d="M141.614 123.737L90.6245 152.897L41.4145 124.237L90.6245 95.0767L141.614 123.737Z" fill="#7B83EB"/>
<path d="M90.6245 95.0768V37.2568L41.9145 66.4168L41.4145 124.237L90.6245 95.0768Z" fill="url(#paint4_linear)"/>
<path d="M141.615 123.737V65.9168L90.6245 37.2568V95.0768L141.615 123.737Z" fill="#5059C9"/>
<path d="M112.574 81.917H110.074V84.007H112.574V81.917Z" fill="#505150"/>
<path d="M112.574 86.5068H110.074V88.5968H112.574V86.5068Z" fill="#505150"/>
<path d="M112.574 91.5166H110.074V93.6066H112.574V91.5166Z" fill="#505150"/>
<path d="M112.574 96.5269H110.074V98.6169H112.574V96.5269Z" fill="#505150"/>
<path d="M112.574 101.117H110.074V103.207H112.574V101.117Z" fill="#505150"/>
<path d="M112.574 106.127H110.074V108.217H112.574V106.127Z" fill="#505150"/>
<path d="M112.574 110.717H110.074V112.807H112.574V110.717Z" fill="#505150"/>
<path d="M112.574 116.147H110.074V118.237H112.574V116.147Z" fill="#505150"/>
<path d="M112.574 120.737H110.074V122.827H112.574V120.737Z" fill="#505150"/>
<path d="M125.944 86.5068H119.264V88.5968H125.944V86.5068Z" fill="#505150"/>
<path d="M126.244 75.2168L126.034 75.4968L126.244 75.2168Z" fill="#532D81"/>
<path d="M116.824 124.017C129.444 124.017 139.674 113.787 139.674 101.167C139.674 88.5467 129.444 78.3267 116.824 78.3267C104.204 78.3267 93.9744 88.5567 93.9744 101.177C93.9844 113.787 104.214 124.017 116.824 124.017Z" fill="#6CAEDF"/>
<path d="M126.364 83.0168C125.784 86.6568 123.184 89.4068 120.064 90.1168C120.034 90.1168 119.994 90.1268 119.964 90.1368C119.124 90.3168 118.244 90.3468 117.354 90.2068C117.084 90.1668 116.834 90.1068 116.574 90.0368C116.244 89.9468 115.924 89.8268 115.614 89.6968C115.164 89.5068 114.744 89.2568 114.354 88.9768C111.994 87.2968 110.614 84.2368 111.004 80.9568C111.014 80.8268 111.034 80.6868 111.064 80.5668C111.314 79.0068 111.934 77.6068 112.814 76.4668C112.824 76.4568 112.824 76.4468 112.834 76.4368C112.884 76.3668 112.954 76.2868 113.004 76.2268C113.004 76.2268 113.014 76.2168 113.014 76.2068C113.024 76.1968 113.034 76.1868 113.044 76.1768C113.364 75.7868 113.734 75.4268 114.104 75.1068L114.114 75.0968C115.764 73.7168 117.884 73.0368 120.064 73.3868C122.394 73.7568 124.294 75.2368 125.404 77.2768C125.724 77.8668 125.984 78.4968 126.164 79.1668C126.194 79.2868 126.224 79.4068 126.254 79.5268C126.374 80.0568 126.444 80.6068 126.474 81.1668C126.484 81.3068 126.484 81.4468 126.484 81.5968C126.484 81.9168 126.464 82.2368 126.434 82.5568C126.434 82.5568 126.434 82.5568 126.434 82.5868C126.414 82.7068 126.394 82.8668 126.364 83.0168Z" fill="#7A4623"/>
<path d="M129.594 106.817C124.514 111.267 116.114 111.007 111.874 108.067C108.214 105.537 105.794 101.937 107.754 95.7066C108.304 93.9566 109.864 90.6566 110.534 87.7866C111.204 84.8766 111.024 82.3966 111.024 82.3966L126.504 81.4966C126.504 81.4966 126.764 84.0766 127.874 87.0166C129.144 90.3866 131.394 94.2266 131.934 95.6266C133.894 100.707 131.694 104.987 129.594 106.817Z" fill="#7A4623"/>
<path d="M122.734 91.017L118.334 90.767L118.304 86.317C118.304 86.317 121.514 85.707 122.694 85.647C121.924 88.247 122.734 91.017 122.734 91.017Z" fill="#BF8F67"/>
<path d="M114.374 86.7469C114.804 86.5669 114.994 86.0369 114.794 85.5669C114.594 85.1069 114.084 84.8769 113.644 85.0569C113.214 85.2469 113.024 85.7669 113.224 86.2369C113.424 86.7069 113.934 86.9369 114.374 86.7469Z" fill="#F8C954"/>
<path d="M122.734 91.017L118.334 90.767L118.304 86.317C118.304 86.317 121.514 85.707 122.694 85.647C121.924 88.247 122.734 91.017 122.734 91.017Z" fill="url(#paint5_radial)"/>
<path d="M123.064 81.8266C123.394 85.2366 120.884 88.2666 118.434 88.3966C115.974 88.5266 113.714 85.8666 113.384 82.4566C113.054 79.0466 114.804 76.4766 117.264 76.3466C119.724 76.2066 122.744 78.4066 123.064 81.8266Z" fill="#BF8F67"/>
<path d="M119.644 82.1867C119.684 81.7967 119.524 81.4567 119.294 81.4267C119.064 81.4067 118.844 81.7067 118.804 82.0967C118.764 82.4867 118.924 82.8267 119.154 82.8567C119.384 82.8867 119.604 82.5867 119.644 82.1867Z" fill="#3A312E"/>
<path d="M117.914 79.4969L117.614 81.3069C117.434 82.2269 116.884 82.7969 116.484 83.0969C116.264 83.2669 116.114 83.7369 116.324 84.0569C116.444 84.2369 116.974 84.6669 116.934 85.1069L116.704 86.7869L113.324 86.3069L114.284 78.8369L117.914 79.4969Z" fill="url(#paint6_radial)"/>
<path d="M116.544 85.7568C116.704 85.8068 116.834 85.8168 116.984 85.8268C117.134 85.8268 117.274 85.8268 117.424 85.8168C117.574 85.8068 117.714 85.7968 117.854 85.7768C117.994 85.7468 118.104 85.7468 118.244 85.6768L118.314 85.6368C118.374 85.6068 118.454 85.6268 118.494 85.6868C118.504 85.6968 118.504 85.7168 118.504 85.7368C118.534 86.0268 118.314 86.2568 118.114 86.3768C117.914 86.5068 117.694 86.5568 117.474 86.5768C117.254 86.5868 117.024 86.5568 116.804 86.4568C116.594 86.3568 116.384 86.1768 116.324 85.9368C116.314 85.8568 116.354 85.7868 116.434 85.7668C116.454 85.7668 116.484 85.7668 116.514 85.7668L116.544 85.7568Z" fill="white"/>
<path d="M115.154 75.9368C115.154 75.9368 115.794 78.1868 118.434 79.0968C122.244 80.4168 122.854 82.1168 122.884 82.1468C125.844 82.8168 125.074 79.8268 122.284 76.5568C119.404 73.2268 115.154 75.9368 115.154 75.9368Z" fill="#7A4623"/>
<path d="M116.064 82.1267C116.094 81.7267 115.924 81.3967 115.694 81.3767C115.464 81.3667 115.254 81.6667 115.224 82.0667C115.194 82.4667 115.364 82.7967 115.594 82.8167C115.834 82.8367 116.044 82.5267 116.064 82.1267Z" fill="#3A312E"/>
<path d="M121.634 84.8867L123.364 84.7967C124.094 84.7567 124.634 84.1267 124.564 83.3867C124.494 82.6467 123.844 82.0767 123.104 82.1167L121.374 82.2067L121.634 84.8867Z" fill="#BF8F67"/>
<path d="M123.494 86.3268C123.924 86.1468 124.114 85.6168 123.914 85.1468C123.714 84.6768 123.204 84.4568 122.774 84.6368C122.344 84.8268 122.154 85.3468 122.354 85.8168C122.554 86.2868 123.054 86.5168 123.494 86.3268Z" fill="#F8C954"/>
<path d="M98.8444 115.247C100.964 117.957 103.684 120.177 106.804 121.707L107.674 120.647L104.004 116.167C102.674 114.537 100.464 114.297 98.8444 115.247Z" fill="url(#paint7_radial)"/>
<path d="M127.254 97.557C127.254 98.417 127.104 99.247 126.824 100.017C125.824 102.747 123.204 104.697 120.114 104.697C117.034 104.697 114.404 102.747 113.404 100.017C113.124 99.247 112.974 98.417 112.974 97.557C112.974 97.497 112.974 97.437 112.974 97.367C112.974 97.367 112.974 97.357 112.974 97.347C113.034 95.137 114.104 93.187 115.734 91.917C115.914 91.777 116.094 91.647 116.284 91.527C117.394 90.817 118.704 90.417 120.114 90.417C121.524 90.417 122.844 90.827 123.954 91.537C124.144 91.657 124.324 91.787 124.504 91.927C126.124 93.197 127.184 95.147 127.244 97.347C127.244 97.347 127.244 97.357 127.244 97.367C127.254 97.427 127.254 97.497 127.254 97.557Z" fill="#8B8CC4"/>
<path d="M112.974 98.007L112.504 111.237L98.4445 113.677L100.684 115.257H114.484C115.714 115.257 116.704 114.267 116.704 113.037L118.134 97.937L112.974 98.007Z" fill="#8083BF"/>
<path d="M127.954 114.657H112.254L113.574 108.727C113.984 106.207 113.984 103.647 113.574 101.137L112.964 97.3667H127.244L126.634 101.137C126.224 103.657 126.224 106.217 126.634 108.727L127.954 114.657Z" fill="#8B8CC4"/>
<path d="M100.354 116.987C103.894 120.667 108.654 123.177 113.994 123.837H119.224C119.314 123.847 119.404 123.847 119.494 123.857C120.674 123.727 121.834 123.487 122.954 123.187C125.894 121.687 127.954 118.557 127.954 115.167C121.204 115.347 103.724 115.157 103.724 115.157C102.264 115.157 101.054 115.897 100.354 116.987Z" fill="#FDB813"/>
<path d="M123.954 91.5369C122.824 92.1869 121.514 92.5669 120.124 92.5669C118.724 92.5669 117.414 92.1969 116.284 91.5369C117.394 90.8269 118.704 90.4269 120.114 90.4269C121.524 90.4169 122.844 90.8269 123.954 91.5369Z" fill="#BF8F67"/>
<path d="M118.604 115.217H127.824C127.824 115.217 127.114 101.117 127.034 98.0566C126.724 98.0966 123.144 98.2666 122.464 99.6666C120.964 102.797 119.334 105.627 118.374 106.807C117.324 108.077 113.944 113.287 112.004 114.117C110.784 114.657 118.604 115.217 118.604 115.217Z" fill="url(#paint8_radial)"/>
<path d="M122.164 97.5566L123.064 111.237L109.004 113.677V115.257H125.044C126.274 115.257 127.264 114.267 127.264 113.037V97.5666L122.164 97.5566Z" fill="#8B8CC4"/>
<path d="M114.044 114.127H98.0144C98.2844 114.517 98.5544 114.887 98.8544 115.257H114.044C114.354 115.257 114.614 115.007 114.614 114.687C114.604 114.387 114.354 114.127 114.044 114.127Z" fill="#CBC1CC"/>
<path d="M116.824 124.017C120.954 124.017 124.824 122.917 128.164 120.997C127.704 120.727 127.184 120.577 126.614 120.577H110.244C109.134 120.577 108.144 121.177 107.604 122.067C110.424 123.307 113.544 124.017 116.824 124.017Z" fill="#777678"/>
<path d="M121.194 114.067H115.824V115.257H120.124C120.714 115.257 121.194 114.777 121.194 114.187V114.067Z" fill="#B5B5B6"/>
<path d="M114.874 101.737C114.864 101.587 114.814 101.447 114.744 101.317C114.674 101.187 114.584 101.067 114.474 100.957C114.354 100.857 114.224 100.777 114.094 100.717C113.954 100.667 113.814 100.637 113.674 100.637H94.0044C94.0044 100.807 93.9944 100.987 93.9944 101.157C93.9944 106.477 95.8244 111.367 98.8644 115.247H115.474C115.624 115.247 115.754 115.227 115.874 115.167C115.994 115.117 116.114 115.037 116.194 114.927C116.274 114.817 116.344 114.707 116.384 114.567C116.424 114.437 116.424 114.297 116.404 114.147L114.874 101.737Z" fill="#D6D6D6"/>
<path d="M98.8544 115.257H116.244L116.094 114.067H97.9744C98.2544 114.477 98.5444 114.867 98.8544 115.257Z" fill="#707071"/>
<path d="M103.914 106.687H103.104L103.204 107.497H104.014L103.914 106.687Z" fill="#B5B5B6"/>
<path d="M105.014 106.687H104.214L104.314 107.497H105.124L105.014 106.687Z" fill="#B5B5B6"/>
<path d="M104.064 107.897H103.254L103.354 108.707H104.164L104.064 107.897Z" fill="#B5B5B6"/>
<path d="M105.164 107.897H104.364L104.464 108.707H105.274L105.164 107.897Z" fill="#B5B5B6"/>
<path d="M116.114 114.267L114.554 101.577C114.504 101.187 114.234 100.637 113.324 100.637H114.314C114.914 100.637 115.274 100.987 115.364 101.577L116.924 114.267C117.014 114.937 116.754 115.257 116.114 115.257H115.124C115.394 115.167 116.194 114.957 116.114 114.267Z" fill="#B5B5B6"/>
<path opacity="0.5" d="M104.134 82.1768C98.0044 86.2768 93.9744 93.2468 93.9744 101.167C93.9744 109.087 98.0044 116.067 104.124 120.157L104.134 82.1768Z" fill="white"/>
<path d="M79.3645 51.8066H61.7045C54.7245 51.8066 49.0645 57.4666 49.0645 64.4466V74.1466C49.0645 81.1266 54.7245 86.7866 61.7045 86.7866H69.6645H77.8045H79.3645C86.3445 86.7866 92.0045 81.1266 92.0045 74.1466V64.4466C92.0045 57.4666 86.3445 51.8066 79.3645 51.8066Z" fill="#EDAC27"/>
<path d="M84.4145 85.7269C84.2845 85.2969 84.1445 84.8469 83.9945 84.3669C81.4045 76.2769 74.2945 68.4669 69.7945 70.5669C68.3045 71.2669 69.4545 74.0569 70.5545 75.2569L78.7545 86.7769H79.3645C81.1645 86.7769 82.8645 86.3969 84.4145 85.7269Z" fill="url(#paint9_radial)"/>
<path d="M77.3745 79.0769C77.2845 76.0169 75.2945 68.8769 67.1045 70.4369C64.9445 70.8469 62.4445 71.9769 61.5645 72.8469C60.6645 73.7269 61.3945 74.3569 60.8445 76.5669C60.3745 78.4369 60.4445 82.6969 60.6445 86.7369C60.9945 86.7669 61.3445 86.7869 61.7045 86.7869H68.6445L76.1445 94.3669C76.4645 94.6969 77.0345 94.4669 77.0245 93.9969L76.8245 86.7869C76.5845 83.1069 77.3845 79.5569 77.3745 79.0769Z" fill="url(#paint10_radial)"/>
<path d="M62.1045 72.3469C56.8245 75.1269 54.6745 81.7969 53.6945 83.8769C55.2045 85.1269 56.8045 86.1069 59.2145 86.5469C59.8845 85.3969 61.0045 83.8069 62.2645 82.4169C68.1045 75.9069 64.6845 70.9869 62.1045 72.3469Z" fill="url(#paint11_radial)"/>
<path d="M51.0545 60.0668C51.0545 60.0568 51.0545 60.0468 51.0545 60.0468C51.0545 60.0468 51.0445 60.0368 51.0445 60.0268C50.4745 59.2568 50.5445 58.2068 51.1645 57.5168C50.2745 57.2768 49.6445 56.4368 49.7045 55.4768C49.7645 54.5268 50.4945 53.7668 51.4045 53.6368C50.8745 52.8768 50.9345 51.8268 51.6045 51.1368C52.2645 50.4368 53.3145 50.3268 54.0945 50.8168C54.1745 49.8968 54.9045 49.1268 55.8545 49.0268C56.8045 48.9168 57.6745 49.5068 57.9645 50.3768C58.6145 49.7268 59.6645 49.6068 60.4645 50.1268C61.2545 50.6568 61.5545 51.6768 61.2145 52.5268C62.1345 52.4468 63.0145 53.0268 63.2845 53.9368C63.5545 54.8568 63.1345 55.8168 62.3145 56.2568C63.0745 56.7868 63.3745 57.7868 62.9945 58.6768C62.6145 59.5568 61.6645 60.0168 60.7545 59.8268C60.9645 60.6068 60.6745 61.4368 60.0145 61.9268C59.9245 61.9968 59.8145 62.0568 59.7245 62.1068C58.8645 62.5368 57.8445 62.2868 57.2745 61.5668C56.8845 62.3968 55.9445 62.8668 55.0145 62.6468C54.0745 62.4268 53.4645 61.5868 53.4845 60.6568C52.6445 61.0668 51.6245 60.8368 51.0545 60.0668Z" fill="url(#paint12_radial)"/>
<path d="M67.5345 66.4367L67.0445 66.6267C63.3645 68.0267 59.2445 66.1867 57.8445 62.5067L57.6545 62.0167C56.2845 58.4267 58.0845 54.4067 61.6745 53.0367L62.3245 52.7867C65.9145 51.4167 69.9345 53.2167 71.3045 56.8067L71.5545 57.4567C72.9245 61.0567 71.1245 65.0767 67.5345 66.4367Z" fill="#EBC9A7"/>
<path d="M63.6645 71.5169C63.6645 71.5169 65.2745 72.9869 68.5545 72.2769C71.4245 71.3069 71.6045 70.2469 71.6045 70.2469C71.6045 70.2469 69.7545 70.2269 69.1045 68.3669L68.4445 65.0869L63.2745 65.4369C63.2745 65.4369 64.9445 67.9269 64.9645 70.5469C64.6145 71.1469 63.6645 71.5169 63.6645 71.5169Z" fill="url(#paint13_radial)"/>
<path d="M69.6445 67.537L69.2445 67.687C66.1445 68.877 62.6645 67.307 61.4745 64.207L60.7645 62.347C59.6145 59.317 61.1245 55.927 64.1545 54.777L65.1045 54.417C67.6545 53.447 70.5145 54.727 71.4845 57.277L72.7545 60.597C73.8145 63.367 72.4145 66.477 69.6445 67.537Z" fill="#9B643D"/>
<path d="M70.2945 57.6367L72.4345 63.3167L69.2545 64.3067L67.3145 59.2067L70.2945 57.6367Z" fill="url(#paint14_radial)"/>
<path d="M60.7545 62.1367C59.7145 62.4767 59.1545 63.5967 59.4945 64.6467C59.8345 65.6867 60.9545 66.2467 62.0045 65.9067L62.6345 65.6967L60.7545 62.1367Z" fill="#9B643D"/>
<path d="M64.8045 62.1671C64.7145 61.7371 64.9345 61.2471 65.3945 60.9971C65.6145 60.9071 65.8745 60.8471 66.1345 60.9271C66.3845 60.9971 66.5745 61.1571 66.6745 61.3871C66.7145 61.4671 66.6745 61.5571 66.5945 61.5871C66.5545 61.6071 66.5245 61.6071 66.4845 61.5971L66.4345 61.5771C66.1245 61.4771 65.9345 61.4871 65.7145 61.6171C65.5045 61.6871 65.3545 61.9271 65.1445 62.1971L65.1245 62.2271C65.0745 62.2971 64.9645 62.3171 64.8845 62.2671C64.8345 62.2371 64.8045 62.2071 64.8045 62.1671Z" fill="#231F20"/>
<path d="M69.2945 60.4371C69.2045 60.0071 69.4245 59.5171 69.8845 59.2671C70.1045 59.1771 70.3645 59.1171 70.6245 59.1971C70.8745 59.2671 71.0645 59.4271 71.1645 59.6571C71.2045 59.7371 71.1645 59.8271 71.0845 59.8571C71.0445 59.8771 71.0045 59.8771 70.9745 59.8771L70.9245 59.8571C70.6145 59.7571 70.4245 59.7671 70.2045 59.8971C69.9945 59.9671 69.8445 60.2071 69.6345 60.4771L69.6145 60.5071C69.5645 60.5771 69.4545 60.5971 69.3745 60.5471C69.3145 60.5171 69.2945 60.4871 69.2945 60.4371Z" fill="#231F20"/>
<path d="M67.1245 62.3567C67.3845 62.7867 68.9445 63.4667 68.9445 63.4667C68.9445 63.4667 68.8245 63.0767 69.1945 62.7767C69.7845 62.2967 69.8445 61.4167 69.3545 60.8367C68.9945 60.4067 68.6645 60.3667 68.1445 60.2867C67.6745 60.2167 67.4845 59.6367 67.4845 59.6367C67.4845 59.6367 66.4345 61.2167 67.1245 62.3567Z" fill="#9B643D"/>
<path d="M69.4745 64.0571C69.6445 64.0371 69.7945 64.1771 69.7745 64.3471C69.7045 64.9871 69.1945 65.5071 68.5345 65.5871C67.8745 65.6671 67.2545 65.2771 67.0445 64.6671C66.9845 64.5071 67.0945 64.3371 67.2645 64.3171L69.4745 64.0571Z" fill="#6D3816"/>
<path d="M61.3645 59.2869C62.3845 59.2869 63.2045 58.4569 63.2045 57.4469C63.2045 56.4269 62.3745 55.6069 61.3645 55.6069C60.3445 55.6069 59.5245 56.4369 59.5245 57.4469C59.5245 58.4569 60.3445 59.2869 61.3645 59.2869Z" fill="#EBC9A7"/>
<path d="M60.3745 62.2068C61.2545 62.2068 61.9745 61.4868 61.9745 60.6068C61.9745 59.7268 61.2545 59.0068 60.3745 59.0068C59.4945 59.0068 58.7745 59.7268 58.7745 60.6068C58.7745 61.4868 59.4945 62.2068 60.3745 62.2068Z" fill="#EBC9A7"/>
<path d="M69.6345 64.0769C69.4045 64.3869 68.8545 64.6069 68.2145 64.6369C67.7845 64.6569 67.3745 64.5769 67.0745 64.4369C67.1145 64.3669 67.1845 64.3269 67.2745 64.3069L69.4845 64.0469C69.5345 64.0469 69.5945 64.0569 69.6345 64.0769Z" fill="white"/>
<path d="M89.1645 103.117C89.1645 101.927 88.2045 100.967 87.0145 100.967H53.8045C52.6145 100.967 51.6545 101.927 51.6545 103.117C51.6545 104.307 52.6145 105.267 53.8045 105.267H87.0345C88.2145 105.257 89.1645 104.297 89.1645 103.117Z" fill="url(#paint15_linear)"/>
<path d="M59.6645 103.107C59.6645 105.467 61.5845 107.367 63.9245 107.367C66.2945 107.377 68.1945 105.467 68.1945 103.107C68.1945 100.747 66.2745 98.8467 63.9345 98.8467C61.5745 98.8467 59.6645 100.747 59.6645 103.107Z" fill="#50E6FF"/>
<path d="M89.1645 113.967C89.1645 112.777 88.2045 111.817 87.0145 111.817H53.8045C52.6145 111.817 51.6545 112.777 51.6545 113.967C51.6545 115.157 52.6145 116.117 53.8045 116.117H87.0345C88.2145 116.097 89.1645 115.147 89.1645 113.967Z" fill="url(#paint16_linear)"/>
<path d="M72.5045 113.947C72.5045 116.307 74.4245 118.207 76.7645 118.207C79.1045 118.207 81.0245 116.287 81.0245 113.947C81.0245 111.587 79.1045 109.687 76.7645 109.687C74.4245 109.687 72.5045 111.597 72.5045 113.947Z" fill="#32B0E7"/>
<path d="M89.1645 125.437C89.1645 124.247 88.2045 123.287 87.0145 123.287H53.8045C52.6145 123.287 51.6545 124.247 51.6545 125.437C51.6545 126.627 52.6145 127.587 53.8045 127.587H87.0345C88.2145 127.587 89.1645 126.637 89.1645 125.437Z" fill="url(#paint17_linear)"/>
<path d="M59.8045 125.437C59.8045 127.797 61.7245 129.697 64.0645 129.697C66.4245 129.697 68.3245 127.777 68.3245 125.437C68.3245 123.077 66.4045 121.177 64.0645 121.177C61.7345 121.157 59.8045 123.077 59.8045 125.437Z" fill="#185A97"/>
<path d="M121.515 142.167L147.295 116.607C149.575 114.347 153.215 114.217 155.645 116.307C158.375 118.647 158.535 122.827 155.975 125.367L130.025 151.137L119.425 153.877C118.905 154.007 118.435 153.537 118.575 153.017L121.515 142.167Z" fill="url(#paint18_linear)"/>
<path d="M121.545 142.137L144.865 119.017L153.895 127.437L130.045 151.137L121.545 142.137Z" fill="#32B0E7"/>
<path d="M121.565 153.327L119.425 153.877C118.905 154.007 118.435 153.537 118.575 153.017L119.175 150.797L121.565 153.327Z" fill="#185A97"/>
<defs>
<linearGradient id="paint0_linear" x1="88.7001" y1="-3.79776" x2="92.8576" y2="193.116" gradientUnits="userSpaceOnUse">
<stop stop-color="#A9B1FF"/>
<stop offset="1" stop-color="#7B83EB"/>
</linearGradient>
<linearGradient id="paint1_linear" x1="91.4025" y1="11.3935" x2="90.2686" y2="170.134" gradientUnits="userSpaceOnUse">
<stop stop-color="#5A62C3"/>
<stop offset="0.5" stop-color="#4D55BD"/>
<stop offset="1" stop-color="#3940AB"/>
</linearGradient>
<linearGradient id="paint2_linear" x1="90.6203" y1="111.862" x2="150.642" y2="111.862" gradientUnits="userSpaceOnUse">
<stop stop-color="#5A62C3"/>
<stop offset="0.5" stop-color="#4D55BD"/>
<stop offset="1" stop-color="#3940AB"/>
</linearGradient>
<linearGradient id="paint3_linear" x1="153.943" y1="30.9492" x2="49.7547" y2="122.184" gradientUnits="userSpaceOnUse">
<stop stop-color="#5A62C3"/>
<stop offset="0.5" stop-color="#4D55BD"/>
<stop offset="1" stop-color="#3940AB"/>
</linearGradient>
<linearGradient id="paint4_linear" x1="56.9147" y1="43.9658" x2="84.8457" y2="156.83" gradientUnits="userSpaceOnUse">
<stop stop-color="#5A62C3"/>
<stop offset="0.5" stop-color="#4D55BD"/>
<stop offset="1" stop-color="#3940AB"/>
</linearGradient>
<radialGradient id="paint5_radial" cx="0" cy="0" r="1" gradientUnits="userSpaceOnUse" gradientTransform="translate(119.016 86.4713) scale(3.44807)">
<stop offset="0.1432" stop-color="#9B643D"/>
<stop offset="0.3956" stop-color="#A16B44" stop-opacity="0.7053"/>
<stop offset="0.7681" stop-color="#B27F58" stop-opacity="0.2704"/>
<stop offset="0.9997" stop-color="#BF8F67" stop-opacity="0"/>
</radialGradient>
<radialGradient id="paint6_radial" cx="0" cy="0" r="1" gradientUnits="userSpaceOnUse" gradientTransform="translate(116.65 83.7243) rotate(-175.921) scale(2.18584 2.34652)">
<stop offset="0.000320513" stop-color="#9B643D"/>
<stop offset="0.8822" stop-color="#B98A62" stop-opacity="0.1178"/>
<stop offset="1" stop-color="#BF8F67" stop-opacity="0"/>
</radialGradient>
<radialGradient id="paint7_radial" cx="0" cy="0" r="1" gradientUnits="userSpaceOnUse" gradientTransform="translate(109.064 116.263) scale(3.93821)">
<stop stop-color="#E4636A"/>
<stop offset="0.4464" stop-color="#EE9059"/>
<stop offset="0.7956" stop-color="#F4AB4B"/>
<stop offset="1" stop-color="#F7B547"/>
</radialGradient>
<radialGradient id="paint8_radial" cx="0" cy="0" r="1" gradientUnits="userSpaceOnUse" gradientTransform="translate(124.434 112.088) rotate(-175.475) scale(9.9752 14.1498)">
<stop offset="0.1363" stop-color="#7577AE"/>
<stop offset="0.7499" stop-color="#8B8CC4"/>
</radialGradient>
<radialGradient id="paint9_radial" cx="0" cy="0" r="1" gradientUnits="userSpaceOnUse" gradientTransform="translate(75.0221 83.5112) scale(7.19526)">
<stop stop-color="#1F6EB7"/>
<stop offset="0.1567" stop-color="#1A83C6"/>
<stop offset="0.4107" stop-color="#19A2DC"/>
<stop offset="0.6276" stop-color="#1DB3E8"/>
<stop offset="0.7804" stop-color="#1EBBEE"/>
</radialGradient>
<radialGradient id="paint10_radial" cx="0" cy="0" r="1" gradientUnits="userSpaceOnUse" gradientTransform="translate(60.3103 81.3355) scale(6.74695)">
<stop stop-color="#1F6EB7"/>
<stop offset="0.7804" stop-color="#1EBBEE"/>
</radialGradient>
<radialGradient id="paint11_radial" cx="0" cy="0" r="1" gradientUnits="userSpaceOnUse" gradientTransform="translate(45.9993 77.1993) scale(8.45378)">
<stop stop-color="#1F6EB7"/>
<stop offset="0.1964" stop-color="#1A8BCB"/>
<stop offset="0.4235" stop-color="#19A5DE"/>
<stop offset="0.6255" stop-color="#1CB5E9"/>
<stop offset="0.7804" stop-color="#1EBBEE"/>
</radialGradient>
<radialGradient id="paint12_radial" cx="0" cy="0" r="1" gradientUnits="userSpaceOnUse" gradientTransform="translate(61.2589 58.9143) scale(6.13355)">
<stop offset="0.0727" stop-color="#BD875E"/>
<stop offset="0.64" stop-color="#DBB28E"/>
<stop offset="1" stop-color="#EBC9A7"/>
</radialGradient>
<radialGradient id="paint13_radial" cx="0" cy="0" r="1" gradientUnits="userSpaceOnUse" gradientTransform="translate(67.6164 65.2825) rotate(-11.5258) scale(4.04336)">
<stop stop-color="#591C17"/>
<stop offset="0.5453" stop-color="#7C432B"/>
<stop offset="0.9994" stop-color="#9B643D"/>
</radialGradient>
<radialGradient id="paint14_radial" cx="0" cy="0" r="1" gradientUnits="userSpaceOnUse" gradientTransform="translate(68.1721 62.1923) rotate(-20.8674) scale(2.9806 2.83415)">
<stop stop-color="#591C17"/>
<stop offset="0.5455" stop-color="#7C432B" stop-opacity="0.4543"/>
<stop offset="0.9997" stop-color="#9B643D" stop-opacity="0"/>
</radialGradient>
<linearGradient id="paint15_linear" x1="71.3896" y1="130.763" x2="70.3987" y2="102.87" gradientUnits="userSpaceOnUse">
<stop stop-color="#D2EBFF"/>
<stop offset="1" stop-color="#F0FFFD"/>
</linearGradient>
<linearGradient id="paint16_linear" x1="71.0047" y1="130.776" x2="70.0137" y2="102.884" gradientUnits="userSpaceOnUse">
<stop stop-color="#D2EBFF"/>
<stop offset="1" stop-color="#F0FFFD"/>
</linearGradient>
<linearGradient id="paint17_linear" x1="70.5978" y1="130.79" x2="69.6067" y2="102.898" gradientUnits="userSpaceOnUse">
<stop stop-color="#D2EBFF"/>
<stop offset="1" stop-color="#F0FFFD"/>
</linearGradient>
<linearGradient id="paint18_linear" x1="118.549" y1="134.357" x2="157.797" y2="134.357" gradientUnits="userSpaceOnUse">
<stop stop-color="#D2EBFF"/>
<stop offset="1" stop-color="#F0FFFD"/>
</linearGradient>
</defs>
</svg>
