<svg width="103" height="103" viewBox="0 0 103 103" fill="none" xmlns="http://www.w3.org/2000/svg">
<path d="M51.0378 98.6805C25.1878 98.6805 4.22778 77.7305 4.22778 51.8705C4.22778 26.0105 25.1878 5.06055 51.0378 5.06055C76.8878 5.06055 97.8478 26.0205 97.8478 51.8705C97.8478 77.7205 76.8878 98.6805 51.0378 98.6805Z" fill="url(#paint0_linear)"/>
<path fill-rule="evenodd" clip-rule="evenodd" d="M96.938 51.8705C96.938 77.2205 76.3879 97.7705 51.0379 97.7705C25.6879 97.7705 5.13795 77.2205 5.13795 51.8705C5.13795 26.5205 25.6879 5.97047 51.0379 5.97047C76.3879 5.97047 96.938 26.5205 96.938 51.8705ZM51.0379 2.23047C78.4579 2.23047 100.678 24.4505 100.678 51.8705C100.678 79.2905 78.4479 101.51 51.0379 101.51C23.6179 101.51 1.39795 79.2805 1.39795 51.8705C1.39795 24.4505 23.6179 2.23047 51.0379 2.23047Z" fill="#F2F1F0"/>
<path fill-rule="evenodd" clip-rule="evenodd" d="M94.1278 51.87C94.1278 75.67 74.8378 94.96 51.0378 94.96C27.2378 94.96 7.94776 75.67 7.94776 51.87C7.94776 28.07 27.2378 8.78004 51.0378 8.78004C74.8378 8.78004 94.1278 28.07 94.1278 51.87ZM51.0378 5.04004C76.8978 5.04004 97.8678 26.01 97.8678 51.87C97.8678 77.73 76.8978 98.7001 51.0378 98.7001C25.1778 98.7001 4.20776 77.73 4.20776 51.87C4.20776 26.01 25.1678 5.04004 51.0378 5.04004Z" fill="url(#paint1_linear)"/>
<path opacity="0.15" d="M86.5552 69.9336H13.2688V70.1195C13.2688 71.8797 14.6901 73.3011 16.4504 73.3011H83.3846C85.1448 73.3011 86.5662 71.8797 86.5662 70.1195V69.9336H86.5552V69.9336Z" fill="#1F1D20"/>
<path d="M79.6565 29.1191H20.2227V66.4676H79.6565V29.1191Z" fill="url(#paint2_linear)"/>
<path d="M80.1373 27.457H19.6867C18.8667 27.457 18.2107 28.124 18.2107 28.944V67.3639C18.2107 68.1839 18.8776 68.8508 19.6976 68.8508H80.1483C80.9683 68.8508 81.6352 68.1839 81.6352 67.3639V28.944C81.6243 28.124 80.9573 27.457 80.1373 27.457ZM77.8741 65.3521H21.9608V30.7808H77.8741V65.3521Z" fill="#282828"/>
<path d="M86.5552 68.8506H13.2688V69.0365C13.2688 70.7967 14.6901 72.2181 16.4504 72.2181H83.3846C85.1448 72.2181 86.5662 70.7967 86.5662 69.0365V68.8506H86.5552Z" fill="#F3F3F3"/>
<path opacity="0.2" d="M74.8032 55.5383C74.8032 53.0355 71.3096 51.0025 66.9959 50.9855C62.6822 50.9684 59.1799 52.9928 59.1714 55.4956C59.1629 57.9984 62.6565 60.0314 66.9702 60.04C71.2839 60.0485 74.7947 58.0326 74.8032 55.5383Z" fill="#1F1D21"/>
<path d="M74.5427 54.5454C74.4426 55.1685 74.1943 55.7584 73.8187 56.2655C73.4431 56.7726 72.9511 57.182 72.3842 57.4593C70.7113 58.3053 68.8628 58.746 66.9881 58.746C65.1134 58.746 63.265 58.3053 61.5921 57.4593C60.9856 57.2204 60.4479 56.8347 60.0272 56.3369C59.6379 55.8265 59.3753 55.231 59.2609 54.5993C59.2503 54.3243 59.272 54.0491 59.3257 53.7791C59.5787 51.9334 60.4946 50.2428 61.9024 49.0227C63.3102 47.8025 65.1139 47.1363 66.9768 47.1482C68.8398 47.1601 70.6347 47.8493 72.0269 49.0873C73.419 50.3253 74.3132 52.0275 74.5427 53.8763C74.5857 54.1154 74.5857 54.3602 74.5427 54.5993V54.5454ZM66.9881 45.9116C67.8924 45.9045 68.7745 45.6303 69.5233 45.1234C70.2722 44.6164 70.8545 43.8994 71.1971 43.0625C71.4361 42.4366 71.5354 41.7659 71.4881 41.0976C71.4407 40.4293 71.2479 39.7794 70.923 39.1934C70.5981 38.6074 70.1491 38.0995 69.6074 37.7052C69.0656 37.311 68.4443 37.0399 67.7868 36.911C66.898 36.7405 65.9787 36.8343 65.1427 37.1808C64.3095 37.525 63.5989 38.1115 63.103 38.8643C62.598 39.6139 62.3276 40.4967 62.3259 41.4005C62.3241 42.005 62.4453 42.6035 62.6821 43.1596C62.9099 43.7202 63.2517 44.2273 63.6857 44.6489C64.1107 45.0763 64.6171 45.4139 65.1751 45.6418C65.7337 45.8691 66.331 45.9864 66.9342 45.9872L66.9881 45.9116Z" fill="url(#paint3_linear)"/>
<path opacity="0.2" d="M33.6648 43.6297C33.6648 42.4154 31.9739 41.429 29.8809 41.4248C27.7879 41.4207 26.0679 42.3946 26.0679 43.6007C26.0679 44.8068 27.7588 45.8015 29.8518 45.8056C31.9448 45.8097 33.6607 44.8441 33.6648 43.6297Z" fill="#1F1D21"/>
<path d="M33.7186 42.7643C33.6675 43.0883 33.5363 43.3944 33.337 43.6548C33.1391 43.914 32.8809 44.1209 32.5848 44.2576C31.7275 44.6911 30.7803 44.917 29.8196 44.917C28.8589 44.917 27.9116 44.6911 27.0543 44.2576C26.7561 44.1203 26.4956 43.9127 26.2953 43.6526C26.0949 43.3925 25.9606 43.0877 25.9039 42.7643C25.8862 42.6192 25.8862 42.4725 25.9039 42.3274C26.0311 41.3794 26.4966 40.5093 27.2147 39.8774C27.7539 39.4077 28.4109 39.094 29.1151 38.9699C29.8193 38.8459 30.5441 38.9162 31.2113 39.1733C31.8785 39.4304 32.463 39.8646 32.9019 40.4291C33.3408 40.9936 33.6174 41.6672 33.702 42.3772C33.7295 42.4992 33.7295 42.6258 33.702 42.7478L33.7186 42.7643ZM29.8472 38.3399C30.3107 38.3361 30.7628 38.1957 31.1469 37.9362C31.5226 37.6839 31.8151 37.326 31.9875 36.9075C32.1622 36.4791 32.2066 36.0086 32.1151 35.5551C32.0236 35.1016 31.8003 34.6851 31.4732 34.3579C31.1421 34.0316 30.7232 33.8087 30.2675 33.7164C29.8139 33.6289 29.3445 33.677 28.9181 33.8547C28.4887 34.0295 28.1224 34.3303 27.8673 34.7174C27.6078 35.1033 27.4692 35.5577 27.4691 36.0226C27.4742 36.33 27.5361 36.6337 27.6516 36.9186C27.7704 37.2047 27.9453 37.4642 28.1659 37.6818C28.382 37.9029 28.642 38.0762 28.9291 38.1906C29.2154 38.3071 29.5215 38.3672 29.8306 38.3676L29.8472 38.3399Z" fill="url(#paint4_linear)"/>
<path opacity="0.2" d="M50.0445 43.6297C50.0445 42.4154 48.3535 41.429 46.2605 41.4248C44.1675 41.4207 42.4475 42.3946 42.4475 43.6007C42.4475 44.8068 44.1385 45.8015 46.2315 45.8056C48.3245 45.8097 50.0403 44.8441 50.0445 43.6297Z" fill="#1F1D21"/>
<path d="M50.098 42.7643C50.0469 43.0883 49.9157 43.3944 49.7164 43.6548C49.5185 43.914 49.2603 44.1209 48.9642 44.2576C48.1069 44.6911 47.1597 44.917 46.199 44.917C45.2383 44.917 44.291 44.6911 43.4337 44.2576C43.1355 44.1203 42.875 43.9127 42.6747 43.6526C42.4743 43.3925 42.34 43.0877 42.2833 42.7643C42.2656 42.6192 42.2656 42.4725 42.2833 42.3274C42.4105 41.3794 42.876 40.5093 43.5941 39.8774C44.1333 39.4077 44.7903 39.094 45.4945 38.9699C46.1987 38.8459 46.9235 38.9162 47.5907 39.1733C48.2579 39.4304 48.8424 39.8646 49.2813 40.4291C49.7201 40.9936 49.9968 41.6672 50.0814 42.3772C50.1089 42.4992 50.1089 42.6258 50.0814 42.7478L50.098 42.7643ZM46.2266 38.3399C46.6901 38.3361 47.1422 38.1957 47.5263 37.9362C47.902 37.6839 48.1945 37.326 48.3669 36.9075C48.5416 36.4791 48.586 36.0086 48.4945 35.5551C48.403 35.1016 48.1797 34.6851 47.8526 34.3579C47.5215 34.0316 47.1026 33.8087 46.6469 33.7164C46.1933 33.6289 45.7239 33.677 45.2975 33.8547C44.8681 34.0295 44.5018 34.3303 44.2467 34.7174C43.9872 35.1033 43.8486 35.5577 43.8485 36.0226C43.8536 36.33 43.9155 36.6337 44.031 36.9186C44.1498 37.2047 44.3247 37.4642 44.5453 37.6818C44.7614 37.9029 45.0214 38.0762 45.3085 38.1906C45.5948 38.3071 45.9009 38.3672 46.21 38.3676L46.2266 38.3399Z" fill="#50E6FF"/>
<path opacity="0.2" d="M33.6648 61.1678C33.6648 59.9535 31.9739 58.967 29.8809 58.9629C27.7879 58.9588 26.0679 59.9327 26.0679 61.1388C26.0679 62.3449 27.7588 63.3395 29.8518 63.3437C31.9448 63.3478 33.6607 62.3822 33.6648 61.1678Z" fill="#1F1D21"/>
<path d="M33.7186 60.3024C33.6675 60.6264 33.5363 60.9325 33.337 61.1928C33.1391 61.452 32.8809 61.659 32.5848 61.7957C31.7275 62.2292 30.7803 62.4551 29.8196 62.4551C28.8589 62.4551 27.9116 62.2292 27.0543 61.7957C26.7561 61.6584 26.4956 61.4508 26.2953 61.1907C26.0949 60.9306 25.9606 60.6258 25.9039 60.3024C25.8862 60.1573 25.8862 60.0106 25.9039 59.8655C26.0311 58.9175 26.4966 58.0474 27.2147 57.4155C27.7539 56.9458 28.4109 56.6321 29.1151 56.508C29.8193 56.384 30.5441 56.4543 31.2113 56.7114C31.8785 56.9685 32.463 57.4027 32.9019 57.9672C33.3408 58.5317 33.6174 59.2053 33.702 59.9153C33.7295 60.0373 33.7295 60.1639 33.702 60.2858L33.7186 60.3024ZM29.8472 55.878C30.3107 55.8742 30.7628 55.7338 31.1469 55.4743C31.5226 55.222 31.8151 54.864 31.9875 54.4456C32.1622 54.0172 32.2066 53.5467 32.1151 53.0932C32.0236 52.6397 31.8003 52.2232 31.4732 51.896C31.1421 51.5697 30.7232 51.3468 30.2675 51.2545C29.8139 51.167 29.3445 51.215 28.9181 51.3928C28.4887 51.5676 28.1224 51.8684 27.8673 52.2555C27.6078 52.6413 27.4692 53.0957 27.4691 53.5607C27.4742 53.8681 27.5361 54.1718 27.6516 54.4567C27.7704 54.7428 27.9453 55.0023 28.1659 55.2199C28.382 55.4409 28.642 55.6143 28.9291 55.7287C29.2154 55.8452 29.5215 55.9053 29.8306 55.9057L29.8472 55.878Z" fill="#32B0E7"/>
<path opacity="0.2" d="M50.0445 61.1678C50.0445 59.9535 48.3535 58.967 46.2605 58.9629C44.1675 58.9588 42.4475 59.9327 42.4475 61.1388C42.4475 62.3449 44.1385 63.3395 46.2315 63.3437C48.3245 63.3478 50.0403 62.3822 50.0445 61.1678Z" fill="#1F1D21"/>
<path d="M50.098 60.3024C50.0469 60.6264 49.9157 60.9325 49.7164 61.1928C49.5185 61.452 49.2603 61.659 48.9642 61.7957C48.1069 62.2292 47.1597 62.4551 46.199 62.4551C45.2383 62.4551 44.291 62.2292 43.4337 61.7957C43.1355 61.6584 42.875 61.4508 42.6747 61.1907C42.4743 60.9306 42.34 60.6258 42.2833 60.3024C42.2656 60.1573 42.2656 60.0106 42.2833 59.8655C42.4105 58.9175 42.876 58.0474 43.5941 57.4155C44.1333 56.9458 44.7903 56.6321 45.4945 56.508C46.1987 56.384 46.9235 56.4543 47.5907 56.7114C48.2579 56.9685 48.8424 57.4027 49.2813 57.9672C49.7201 58.5317 49.9968 59.2053 50.0814 59.9153C50.1089 60.0373 50.1089 60.1639 50.0814 60.2858L50.098 60.3024ZM46.2266 55.878C46.6901 55.8742 47.1422 55.7338 47.5263 55.4743C47.902 55.222 48.1945 54.864 48.3669 54.4456C48.5416 54.0172 48.586 53.5467 48.4945 53.0932C48.403 52.6397 48.1797 52.2232 47.8526 51.896C47.5215 51.5697 47.1026 51.3468 46.6469 51.2545C46.1933 51.167 45.7239 51.215 45.2975 51.3928C44.8681 51.5676 44.5018 51.8684 44.2467 52.2555C43.9872 52.6413 43.8486 53.0957 43.8485 53.5607C43.8536 53.8681 43.9155 54.1718 44.031 54.4567C44.1498 54.7428 44.3247 55.0023 44.5453 55.2199C44.7614 55.4409 45.0214 55.6143 45.3085 55.7287C45.5948 55.8452 45.9009 55.9053 46.21 55.9057L46.2266 55.878Z" fill="#2195DC"/>
<path d="M70.5006 62.9775C70.3697 63.0661 70.2155 63.114 70.0575 63.1153L70.048 63.1285C69.9426 63.1283 69.8382 63.1078 69.7405 63.0681C69.643 63.0283 69.5544 62.9692 69.4802 62.8945C69.4043 62.8208 69.3445 62.7322 69.3047 62.6342C69.2633 62.537 69.2421 62.4323 69.2424 62.3267C69.2427 62.1687 69.29 62.0143 69.3783 61.8833C69.465 61.7517 69.5892 61.6492 69.7348 61.589C69.881 61.5284 70.0417 61.512 70.1971 61.5418C70.312 61.5644 70.4206 61.6118 70.5153 61.6807C70.61 61.7496 70.6885 61.8384 70.7453 61.9408C70.8021 62.0433 70.8358 62.1569 70.8441 62.2737C70.8524 62.3905 70.835 62.5078 70.7932 62.6172C70.7334 62.7635 70.6316 62.8889 70.5006 62.9775Z" fill="url(#paint5_linear)"/>
<path d="M67.3007 62.9775C67.1698 63.0661 67.0156 63.114 66.8575 63.1153L66.8481 63.1285C66.7426 63.1283 66.6382 63.1078 66.5406 63.0681C66.443 63.0283 66.3545 62.9692 66.2802 62.8945C66.2043 62.8208 66.1446 62.7322 66.1047 62.6342C66.0634 62.537 66.0422 62.4323 66.0425 62.3267C66.0428 62.1687 66.0901 62.0143 66.1783 61.8833C66.265 61.7517 66.3892 61.6492 66.5349 61.589C66.681 61.5284 66.8417 61.512 66.9971 61.5418C67.1121 61.5644 67.2207 61.6118 67.3154 61.6807C67.4101 61.7496 67.4886 61.8384 67.5454 61.9408C67.6022 62.0433 67.6359 62.1569 67.6442 62.2737C67.6524 62.3905 67.6351 62.5078 67.5933 62.6172C67.5334 62.7635 67.4316 62.8889 67.3007 62.9775Z" fill="url(#paint6_linear)"/>
<path d="M64.1007 62.9775C63.9698 63.0661 63.8156 63.114 63.6576 63.1153L63.6481 63.1285C63.5427 63.1283 63.4383 63.1078 63.3406 63.0681C63.2431 63.0283 63.1545 62.9692 63.0802 62.8945C63.0044 62.8208 62.9446 62.7322 62.9048 62.6342C62.8634 62.537 62.8422 62.4323 62.8425 62.3267C62.8428 62.1687 62.8901 62.0143 62.9784 61.8833C63.0651 61.7517 63.1893 61.6492 63.3349 61.589C63.4811 61.5284 63.6418 61.512 63.7972 61.5418C63.9121 61.5644 64.0207 61.6118 64.1154 61.6807C64.2101 61.7496 64.2886 61.8384 64.3454 61.9408C64.4022 62.0433 64.4359 62.1569 64.4442 62.2737C64.4525 62.3905 64.4351 62.5078 64.3933 62.6172C64.3335 62.7635 64.2317 62.8889 64.1007 62.9775Z" fill="url(#paint7_linear)"/>
<rect x="54.241" y="30.8506" width="0.278203" height="34.5115" fill="#C4C4C4"/>
<rect x="37.4622" y="30.8506" width="0.278203" height="34.5115" fill="#C4C4C4"/>
<rect x="54.301" y="47.9678" width="0.278203" height="32.3493" transform="rotate(90 54.301 47.9678)" fill="#C4C4C4"/>
<path d="M82.0769 75.3041C86.2369 75.3041 89.6069 71.9341 89.6069 67.7741C89.6069 63.6141 86.2369 60.2441 82.0769 60.2441C77.9169 60.2441 74.5469 63.6141 74.5469 67.7741C74.5569 71.9341 77.9269 75.3041 82.0769 75.3041Z" fill="#002D4C"/>
<path d="M86.177 63.9541L79.977 70.1841L78.117 68.3141L76.877 69.5641L79.977 72.6741L87.427 65.2041L86.177 63.9541Z" fill="#FAF9F8"/>
<defs>
<linearGradient id="paint0_linear" x1="49.2639" y1="-12.919" x2="53.2459" y2="132.851" gradientUnits="userSpaceOnUse">
<stop stop-color="#00ABDE"/>
<stop offset="1" stop-color="#007ED8"/>
</linearGradient>
<linearGradient id="paint1_linear" x1="2.46816" y1="-19.7526" x2="97.9957" y2="121.129" gradientUnits="userSpaceOnUse">
<stop stop-color="#007ED8"/>
<stop offset="0.7065" stop-color="#002D4C"/>
</linearGradient>
<linearGradient id="paint2_linear" x1="32.2248" y1="30.4984" x2="76.8358" y2="74.051" gradientUnits="userSpaceOnUse">
<stop stop-color="#007ED8"/>
<stop offset="0.7065" stop-color="#002D4C"/>
</linearGradient>
<linearGradient id="paint3_linear" x1="73.5174" y1="55.0418" x2="59.7682" y2="42.3394" gradientUnits="userSpaceOnUse">
<stop stop-color="#50E6FF"/>
<stop offset="1" stop-color="#C3F1FF"/>
</linearGradient>
<linearGradient id="paint4_linear" x1="26.7015" y1="32.3838" x2="41.9514" y2="48.6569" gradientUnits="userSpaceOnUse">
<stop offset="0.1608" stop-color="#ACF3FD"/>
<stop offset="0.9598" stop-color="#45CAF2"/>
</linearGradient>
<linearGradient id="paint5_linear" x1="71.1989" y1="64.7114" x2="68.7953" y2="62.4908" gradientUnits="userSpaceOnUse">
<stop stop-color="#50E6FF"/>
<stop offset="1" stop-color="#C3F1FF"/>
</linearGradient>
<linearGradient id="paint6_linear" x1="67.9989" y1="64.7114" x2="65.5953" y2="62.4908" gradientUnits="userSpaceOnUse">
<stop stop-color="#50E6FF"/>
<stop offset="1" stop-color="#C3F1FF"/>
</linearGradient>
<linearGradient id="paint7_linear" x1="64.799" y1="64.7114" x2="62.3954" y2="62.4908" gradientUnits="userSpaceOnUse">
<stop stop-color="#50E6FF"/>
<stop offset="1" stop-color="#C3F1FF"/>
</linearGradient>
</defs>
</svg>
