<svg width="100" height="100" viewBox="0 0 100 100" fill="none" xmlns="http://www.w3.org/2000/svg">
<g clip-path="url(#clip0_1102_816)">
<path d="M49.6401 96.45C40.382 96.45 31.3317 93.7047 23.6339 88.5611C15.936 83.4176 9.93624 76.1068 6.3933 67.5534C2.85036 59 1.92337 49.5881 3.72954 40.5078C5.53571 31.4276 9.99394 23.0868 16.5404 16.5403C23.0869 9.99384 31.4277 5.53562 40.5079 3.72945C49.5882 1.92327 59.0001 2.85027 67.5535 6.39321C76.1069 9.93614 83.4176 15.9359 88.5612 23.6338C93.7047 31.3316 96.4501 40.3819 96.4501 49.64C96.4505 55.7873 95.24 61.8745 92.8878 67.5539C90.5355 73.2334 87.0875 78.3938 82.7407 82.7406C78.3939 87.0874 73.2335 90.5354 67.554 92.8877C61.8746 95.2399 55.7874 96.4504 49.6401 96.45V96.45Z" fill="url(#paint0_linear_1102_816)"/>
<path fill-rule="evenodd" clip-rule="evenodd" d="M95.54 49.64C95.54 58.7182 92.848 67.5925 87.8045 75.1407C82.7609 82.6889 75.5923 88.572 67.2052 92.0461C58.818 95.5201 49.5891 96.4291 40.6854 94.658C31.7816 92.887 23.603 88.5154 17.1838 82.0962C10.7646 75.677 6.39302 67.4984 4.62196 58.5946C2.85089 49.6909 3.75987 40.462 7.23393 32.0748C10.708 23.6877 16.5911 16.5191 24.1393 11.4755C31.6875 6.43199 40.5618 3.74 49.64 3.74C55.6677 3.73998 61.6363 4.9272 67.2052 7.23388C72.774 9.54057 77.834 12.9215 82.0963 17.1837C86.3585 21.446 89.7394 26.5059 92.0461 32.0748C94.3528 37.6437 95.54 43.6123 95.54 49.64V49.64ZM49.64 3.62732e-07C59.4579 3.62732e-07 69.0553 2.91134 77.2185 8.36585C85.3818 13.8204 91.7442 21.5731 95.5014 30.6436C99.2585 39.7141 100.242 49.6951 98.3262 59.3243C96.4108 68.9535 91.6831 77.7985 84.7408 84.7408C77.7985 91.6831 68.9535 96.4108 59.3243 98.3262C49.6951 100.242 39.7141 99.2585 30.6436 95.5014C21.5731 91.7442 13.8204 85.3818 8.36585 77.2185C2.91134 69.0553 3.62732e-07 59.4579 3.62732e-07 49.64C-0.000787738 43.121 1.28265 36.6656 3.77702 30.6427C6.27138 24.6197 9.9278 19.1471 14.5375 14.5375C19.1471 9.9278 24.6197 6.27138 30.6427 3.77702C36.6656 1.28265 43.121 -0.000787738 49.64 3.62732e-07V3.62732e-07Z" fill="#F2F1F0"/>
<path fill-rule="evenodd" clip-rule="evenodd" d="M92.7296 49.6401C92.7296 58.1625 90.2024 66.4935 85.4676 73.5796C80.7328 80.6657 74.0031 86.1887 66.1294 89.4501C58.2557 92.7114 49.5918 93.5648 41.2331 91.9021C32.8745 90.2395 25.1966 86.1356 19.1703 80.1093C13.1441 74.0831 9.04017 66.4052 7.37753 58.0465C5.7149 49.6879 6.56822 41.0239 9.8296 33.1503C13.091 25.2766 18.6139 18.5469 25.7 13.8121C32.7862 9.07727 41.1172 6.55009 49.6396 6.55009C55.2983 6.54974 60.9017 7.66407 66.1298 9.82942C71.3579 11.9948 76.1082 15.1687 80.1096 19.1701C84.1109 23.1714 87.2849 27.9218 89.4502 33.1499C91.6156 38.3779 92.7299 43.9813 92.7296 49.6401V49.6401ZM49.6396 2.81009C58.9017 2.81009 67.9558 5.55662 75.6569 10.7024C83.3581 15.8481 89.3604 23.162 92.9049 31.719C96.4493 40.2761 97.3767 49.692 95.5697 58.7762C93.7628 67.8603 89.3027 76.2046 82.7534 82.7539C76.2041 89.3032 67.8598 93.7633 58.7757 95.5703C49.6915 97.3772 40.2756 96.4498 31.7185 92.9054C23.1614 89.3609 15.8476 83.3586 10.7018 75.6574C5.5561 67.9563 2.80957 58.9022 2.80957 49.6401C2.81076 37.2204 7.745 25.3097 16.5271 16.5276C25.3091 7.7455 37.2198 2.81125 49.6396 2.81006V2.81009Z" fill="#0078D4"/>
<path fill-rule="evenodd" clip-rule="evenodd" d="M92.7637 49.6401C92.7637 58.1625 90.2366 66.4935 85.5018 73.5796C80.767 80.6657 74.0372 86.1887 66.1636 89.4501C58.2899 92.7114 49.6259 93.5648 41.2673 91.9021C32.9087 90.2395 25.2308 86.1356 19.2045 80.1093C13.1783 74.0831 9.07435 66.4052 7.41171 58.0465C5.74908 49.6879 6.6024 41.0239 9.86378 33.1503C13.1252 25.2766 18.6481 18.5469 25.7342 13.8121C32.8203 9.07727 41.1514 6.55009 49.6738 6.55009C55.3325 6.54974 60.9359 7.66407 66.164 9.82942C71.3921 11.9948 76.1424 15.1687 80.1437 19.1701C84.1451 23.1714 87.3191 27.9218 89.4844 33.1499C91.6498 38.3779 92.7641 43.9813 92.7637 49.6401V49.6401ZM49.6738 2.81009C58.9359 2.81009 67.9899 5.55662 75.6911 10.7024C83.3923 15.8481 89.3946 23.162 92.939 31.719C96.4835 40.2761 97.4109 49.692 95.6039 58.7762C93.797 67.8603 89.3369 76.2046 82.7876 82.7539C76.2383 89.3032 67.894 93.7633 58.8098 95.5703C49.7257 97.3772 40.3097 96.4498 31.7527 92.9054C23.1956 89.3609 15.8818 83.3586 10.736 75.6574C5.59028 67.9563 2.84375 58.9022 2.84375 49.6401C2.84494 37.2204 7.77918 25.3097 16.5612 16.5276C25.3433 7.7455 37.254 2.81125 49.6738 2.81006V2.81009Z" fill="#0078D4"/>
<path d="M76.4781 24.7008H22.8008C21.7421 24.7008 20.8838 25.5591 20.8838 26.6178V61.1247C20.8838 62.1834 21.7421 63.0417 22.8008 63.0417H76.4781C77.5369 63.0417 78.3952 62.1834 78.3952 61.1247V26.6178C78.3952 25.5591 77.5369 24.7008 76.4781 24.7008Z" fill="url(#paint1_linear_1102_816)"/>
<path d="M61.1739 74.6398C55.4866 73.7452 55.263 69.6555 55.263 63.0417H43.9843C43.9843 69.6555 43.7926 73.7452 38.1054 74.6398C37.3203 74.7267 36.5952 75.1013 36.0701 75.6914C35.5449 76.2814 35.257 77.0451 35.2618 77.8349H64.0175C64.0223 77.0451 63.7343 76.2814 63.2092 75.6914C62.684 75.1013 61.959 74.7267 61.1739 74.6398V74.6398Z" fill="url(#paint2_linear_1102_816)"/>
<path d="M52.3196 43.2513H57.6359V55.9323H52.3196C52.1557 55.9323 51.9933 55.9 51.8418 55.8372C51.6903 55.7745 51.5527 55.6825 51.4367 55.5666C51.3208 55.4507 51.2288 55.313 51.1661 55.1615C51.1033 55.01 51.071 54.8477 51.071 54.6837V44.4999C51.071 44.3359 51.1033 44.1735 51.1661 44.0221C51.2288 43.8706 51.3208 43.7329 51.4367 43.617C51.5527 43.501 51.6903 43.4091 51.8418 43.3463C51.9933 43.2836 52.1557 43.2513 52.3196 43.2513V43.2513Z" fill="#0078D4"/>
<path d="M62.9523 31.8102H58.8846C58.7206 31.8102 58.5583 31.8425 58.4068 31.9052C58.2553 31.968 58.1176 32.0599 58.0017 32.1759C57.8857 32.2918 57.7938 32.4295 57.731 32.5809C57.6683 32.7324 57.636 32.8948 57.636 33.0588V55.9323H64.2009V33.0588C64.2008 32.7276 64.0693 32.4101 63.8352 32.1759C63.601 31.9418 63.2835 31.8102 62.9523 31.8102V31.8102Z" fill="#50E6FF"/>
<path d="M69.5173 55.9323C69.8484 55.9323 70.166 55.8008 70.4001 55.5666C70.6343 55.3325 70.7658 55.0149 70.7658 54.6837V39.0214C70.7658 38.8574 70.7335 38.6951 70.6708 38.5436C70.6081 38.3921 70.5161 38.2545 70.4001 38.1385C70.2842 38.0226 70.1466 37.9306 69.9951 37.8679C69.8436 37.8051 69.6812 37.7728 69.5173 37.7728H64.2009V55.9323H69.5173Z" fill="#F2F2F2"/>
<path d="M44.1739 31.9128H28.887C27.7589 31.9128 26.8445 32.8273 26.8445 33.9553V54.0175C26.8445 55.1455 27.7589 56.06 28.887 56.06H44.1739C45.302 56.06 46.2164 55.1455 46.2164 54.0175V33.9553C46.2164 32.8273 45.302 31.9128 44.1739 31.9128Z" fill="#0078D4"/>
<path d="M36.5303 48.2609C38.8911 48.2609 40.8048 46.3471 40.8048 43.9864C40.8048 41.6257 38.8911 39.7119 36.5303 39.7119C34.1696 39.7119 32.2559 41.6257 32.2559 43.9864C32.2559 46.3471 34.1696 48.2609 36.5303 48.2609Z" fill="#C3F1FF"/>
</g>
<defs>
<linearGradient id="paint0_linear_1102_816" x1="47.8697" y1="-15.1531" x2="51.8525" y2="130.615" gradientUnits="userSpaceOnUse">
<stop stop-color="#00ABDE"/>
<stop offset="1" stop-color="#007ED8"/>
</linearGradient>
<linearGradient id="paint1_linear_1102_816" x1="49.6395" y1="63.0417" x2="49.6395" y2="24.7008" gradientUnits="userSpaceOnUse">
<stop stop-color="#003067"/>
<stop offset="0.81879" stop-color="#1F56A3"/>
</linearGradient>
<linearGradient id="paint2_linear_1102_816" x1="49.6396" y1="77.8349" x2="49.6396" y2="63.0417" gradientUnits="userSpaceOnUse">
<stop offset="0.15" stop-color="#CCCCCC"/>
<stop offset="1" stop-color="#707070"/>
</linearGradient>
<clipPath id="clip0_1102_816">
<rect width="99.2799" height="99.28" fill="white"/>
</clipPath>
</defs>
</svg>
