<svg width="100" height="100" viewBox="0 0 100 100" fill="none" xmlns="http://www.w3.org/2000/svg">
<g clip-path="url(#clip0_1028_1471)">
<path d="M49.6401 96.4499C40.382 96.4499 31.3317 93.7045 23.6339 88.561C15.936 83.4174 9.93624 76.1067 6.3933 67.5533C2.85036 58.9999 1.92337 49.588 3.72954 40.5077C5.53571 31.4275 9.99394 23.0867 16.5404 16.5402C23.0869 9.99372 31.4277 5.5355 40.5079 3.72933C49.5882 1.92315 59.0001 2.85015 67.5535 6.39308C76.1069 9.93602 83.4176 15.9358 88.5612 23.6336C93.7047 31.3315 96.4501 40.3817 96.4501 49.6399C96.4505 55.7872 95.24 61.8744 92.8878 67.5538C90.5355 73.2332 87.0875 78.3937 82.7407 82.7405C78.3939 87.0873 73.2335 90.5353 67.554 92.8876C61.8746 95.2398 55.7874 96.4503 49.6401 96.4499V96.4499Z" fill="url(#paint0_linear_1028_1471)"/>
<path fill-rule="evenodd" clip-rule="evenodd" d="M95.54 49.6399C95.54 58.718 92.848 67.5923 87.8045 75.1406C82.7609 82.6888 75.5923 88.5719 67.2052 92.046C58.818 95.52 49.5891 96.429 40.6854 94.6579C31.7816 92.8869 23.603 88.5153 17.1838 82.0961C10.7646 75.6769 6.39302 67.4983 4.62196 58.5945C2.85089 49.6908 3.75987 40.4618 7.23393 32.0747C10.708 23.6876 16.5911 16.519 24.1393 11.4754C31.6875 6.43187 40.5618 3.73988 49.64 3.73988C55.6677 3.73986 61.6363 4.92708 67.2052 7.23377C72.774 9.54045 77.834 12.9214 82.0963 17.1836C86.3585 21.4458 89.7394 26.5058 92.0461 32.0747C94.3528 37.6435 95.54 43.6122 95.54 49.6399V49.6399ZM49.64 -0.000106449C59.4579 -0.000106449 69.0552 2.91123 77.2185 8.36574C85.3818 13.8203 91.7442 21.573 95.5014 30.6435C99.2585 39.714 100.242 49.695 98.3262 59.3242C96.4108 68.9534 91.6831 77.7984 84.7408 84.7407C77.7985 91.683 68.9535 96.4107 59.3243 98.3261C49.6951 100.241 39.7141 99.2584 30.6436 95.5013C21.5731 91.7441 13.8204 85.3816 8.36584 77.2184C2.91133 69.0551 -1.61629e-06 59.4577 3.61524e-07 49.6399C-0.000786426 43.1208 1.28265 36.6655 3.77702 30.6425C6.27138 24.6196 9.92781 19.147 14.5375 14.5374C19.1471 9.9277 24.6197 6.27127 30.6427 3.77691C36.6656 1.28254 43.121 -0.000894549 49.64 -0.000106449V-0.000106449Z" fill="#F2F1F0"/>
<path fill-rule="evenodd" clip-rule="evenodd" d="M92.7296 49.64C92.7296 58.1624 90.2024 66.4934 85.4676 73.5795C80.7328 80.6656 74.0031 86.1886 66.1294 89.45C58.2557 92.7113 49.5918 93.5647 41.2331 91.902C32.8745 90.2394 25.1966 86.1355 19.1703 80.1092C13.1441 74.083 9.04017 66.4051 7.37753 58.0464C5.7149 49.6878 6.56822 41.0238 9.8296 33.1502C13.091 25.2765 18.6139 18.5468 25.7 13.812C32.7862 9.07718 41.1172 6.55 49.6396 6.55C55.2983 6.54965 60.9017 7.66397 66.1298 9.82933C71.3579 11.9947 76.1082 15.1687 80.1096 19.17C84.1109 23.1713 87.2849 27.9217 89.4502 33.1498C91.6156 38.3778 92.7299 43.9812 92.7296 49.64ZM49.6396 2.81C58.9017 2.81 67.9558 5.55653 75.6569 10.7023C83.3581 15.848 89.3604 23.1619 92.9049 31.7189C96.4493 40.276 97.3767 49.6919 95.5697 58.7761C93.7628 67.8602 89.3027 76.2045 82.7534 82.7538C76.2041 89.3031 67.8598 93.7632 58.7757 95.5702C49.6915 97.3771 40.2756 96.4497 31.7185 92.9053C23.1614 89.3608 15.8476 83.3585 10.7018 75.6574C5.5561 67.9562 2.80957 58.9021 2.80957 49.64C2.81076 37.2203 7.74501 25.3096 16.5271 16.5275C25.3091 7.74544 37.2198 2.81119 49.6396 2.81V2.81Z" fill="#0078D4"/>
<path fill-rule="evenodd" clip-rule="evenodd" d="M92.7301 49.7835C92.7301 58.3059 90.2029 66.6369 85.4681 73.723C80.7333 80.8091 74.0036 86.3321 66.1299 89.5935C58.2562 92.8549 49.5923 93.7082 41.2336 92.0455C32.875 90.3829 25.1971 86.279 19.1708 80.2527C13.1446 74.2265 9.04066 66.5486 7.37802 58.1899C5.71538 49.8313 6.56871 41.1673 9.83009 33.2937C13.0915 25.42 18.6144 18.6903 25.7005 13.9555C32.7867 9.22069 41.1177 6.69351 49.6401 6.69351C55.2988 6.69316 60.9022 7.80748 66.1303 9.97284C71.3584 12.1382 76.1087 15.3122 80.1101 19.3135C84.1114 23.3149 87.2854 28.0652 89.4507 33.2933C91.6161 38.5213 92.7304 44.1248 92.7301 49.7835V49.7835ZM49.6401 2.95351C58.9022 2.95351 67.9563 5.70004 75.6574 10.8458C83.3586 15.9915 89.3609 23.3054 92.9053 31.8624C96.4498 40.4195 97.3772 49.8355 95.5702 58.9196C93.7633 68.0037 89.3032 76.348 82.7539 82.8973C76.2046 89.4466 67.8603 93.9067 58.7761 95.7137C49.692 97.5206 40.2761 96.5932 31.719 93.0488C23.1619 89.5043 15.8481 83.502 10.7023 75.8009C5.55659 68.0997 2.81006 59.0456 2.81006 49.7835C2.81124 37.3638 7.74548 25.4531 16.5276 16.671C25.3096 7.88892 37.2203 2.95467 49.64 2.95348L49.6401 2.95351Z" fill="#0078D4"/>
<path d="M21.0509 41.9764C20.524 41.978 20.0192 42.1879 19.6466 42.5605C19.274 42.9331 19.064 43.4379 19.0625 43.9648V57.8835H44.9115V43.9648C44.91 43.4379 44.7 42.9331 44.3274 42.5605C43.9549 42.1879 43.45 41.978 42.9231 41.9764H21.0509ZM42.9231 42.9706C43.1867 42.971 43.4393 43.0758 43.6257 43.2622C43.8121 43.4486 43.9169 43.7012 43.9173 43.9648V56.8893H20.0567V43.9648C20.057 43.7012 20.1618 43.4485 20.3482 43.2621C20.5346 43.0757 20.7873 42.9709 21.0509 42.9706H42.9231Z" fill="url(#paint1_linear_1028_1471)"/>
<path d="M20.0569 43.9648C20.0572 43.7012 20.162 43.4485 20.3484 43.2621C20.5348 43.0757 20.7875 42.9709 21.0511 42.9706H42.9233C43.1869 42.971 43.4395 43.0758 43.6259 43.2622C43.8123 43.4486 43.9171 43.7012 43.9175 43.9648V56.8893H20.0569V43.9648Z" fill="url(#paint2_linear_1028_1471)"/>
<path d="M16.0801 57.8835V58.3806C16.0816 58.9075 16.2916 59.4123 16.6642 59.7849C17.0367 60.1575 17.5416 60.3675 18.0685 60.369H45.9058C46.4327 60.3675 46.9375 60.1575 47.3101 59.7849C47.6827 59.4124 47.8926 58.9075 47.8942 58.3806V57.8835L16.0801 57.8835Z" fill="url(#paint3_linear_1028_1471)"/>
<path fill-rule="evenodd" clip-rule="evenodd" d="M29.9988 58.8777H33.9756C34.2392 58.8776 34.4921 58.7728 34.6785 58.5864C34.8649 58.4 34.9697 58.1471 34.9698 57.8835H29.0046C29.0046 58.1472 29.1094 58.4 29.2958 58.5865C29.4823 58.7729 29.7352 58.8777 29.9988 58.8777Z" fill="#003067"/>
<path d="M34.6616 51.3925C34.7989 51.3925 34.9349 51.4195 35.0618 51.4721C35.1887 51.5246 35.304 51.6017 35.4011 51.6988C35.4983 51.7959 35.5753 51.9112 35.6279 52.0381C35.6804 52.165 35.7075 52.301 35.7075 52.4384V52.8655C35.7075 53.1321 35.6241 53.3921 35.4691 53.6091C35.0584 54.1287 34.5252 54.5383 33.9171 54.8009C33.3091 55.0635 32.6453 55.1709 31.9855 55.1135C31.3259 55.1711 30.6623 55.0637 30.0545 54.8009C29.4467 54.5382 28.9139 54.1283 28.504 53.6083C28.3496 53.3917 28.2666 53.1322 28.2666 52.8662V52.4384C28.2666 52.301 28.2937 52.165 28.3462 52.0381C28.3988 51.9112 28.4758 51.7959 28.5729 51.6988C28.67 51.6017 28.7853 51.5246 28.9122 51.4721C29.0391 51.4195 29.1751 51.3925 29.3125 51.3925H34.6616ZM31.9855 45.8138C32.4454 45.8138 32.895 45.9502 33.2774 46.2057C33.6598 46.4612 33.9578 46.8244 34.1338 47.2493C34.3098 47.6742 34.3559 48.1417 34.2662 48.5928C34.1764 49.0439 33.955 49.4582 33.6298 49.7834C33.3046 50.1086 32.8902 50.3301 32.4392 50.4198C31.9881 50.5096 31.5205 50.4635 31.0956 50.2875C30.6707 50.1115 30.3076 49.8135 30.0521 49.4311C29.7965 49.0487 29.6602 48.5991 29.6602 48.1392C29.6602 47.5225 29.9052 46.931 30.3412 46.4949C30.7773 46.0588 31.3688 45.8139 31.9855 45.8138V45.8138Z" fill="white"/>
<path d="M56.3561 41.9764C55.8292 41.978 55.3243 42.1879 54.9518 42.5605C54.5792 42.9331 54.3692 43.4379 54.3677 43.9648V57.8835H80.2167V43.9648C80.2151 43.4379 80.0052 42.9331 79.6326 42.5605C79.26 42.1879 78.7552 41.978 78.2283 41.9764H56.3561ZM78.2283 42.9706C78.4918 42.971 78.7445 43.0758 78.9309 43.2622C79.1172 43.4486 79.2221 43.7012 79.2225 43.9648V56.8893H55.3618V43.9648C55.3621 43.7012 55.4669 43.4485 55.6533 43.2621C55.8397 43.0757 56.0925 42.9709 56.3561 42.9706H78.2283Z" fill="url(#paint4_linear_1028_1471)"/>
<path d="M55.3618 43.9648C55.3621 43.7012 55.4669 43.4485 55.6533 43.2621C55.8397 43.0757 56.0924 42.9709 56.356 42.9706H78.2282C78.4918 42.971 78.7445 43.0758 78.9308 43.2622C79.1172 43.4486 79.2221 43.7012 79.2224 43.9648V56.8893H55.3618V43.9648Z" fill="url(#paint5_linear_1028_1471)"/>
<path d="M51.385 57.8835V58.3806C51.3865 58.9075 51.5965 59.4123 51.9691 59.7849C52.3416 60.1575 52.8465 60.3675 53.3734 60.369H81.2108C81.7376 60.3675 82.2425 60.1575 82.615 59.7849C82.9876 59.4124 83.1976 58.9075 83.1991 58.3806V57.8835L51.385 57.8835Z" fill="url(#paint6_linear_1028_1471)"/>
<path fill-rule="evenodd" clip-rule="evenodd" d="M65.3038 58.8777H69.2805C69.5442 58.8776 69.797 58.7728 69.9834 58.5864C70.1698 58.4 70.2746 58.1471 70.2747 57.8835H64.3096C64.3096 58.1472 64.4143 58.4 64.6008 58.5865C64.7872 58.7729 65.0401 58.8777 65.3038 58.8777Z" fill="#003067"/>
<path d="M69.9665 51.3925C70.1039 51.3925 70.2399 51.4195 70.3668 51.4721C70.4936 51.5246 70.6089 51.6017 70.7061 51.6988C70.8032 51.7959 70.8802 51.9112 70.9328 52.0381C70.9853 52.165 71.0124 52.301 71.0124 52.4384V52.8655C71.0124 53.1321 70.929 53.3921 70.774 53.6091C70.3634 54.1287 69.8301 54.5383 69.222 54.8009C68.614 55.0635 67.9502 55.1709 67.2904 55.1135C66.6308 55.1711 65.9672 55.0637 65.3594 54.8009C64.7517 54.5382 64.2188 54.1283 63.8089 53.6083C63.6545 53.3917 63.5715 53.1322 63.5715 52.8662V52.4384C63.5715 52.301 63.5986 52.165 63.6511 52.0381C63.7037 51.9112 63.7807 51.7959 63.8779 51.6988C63.975 51.6017 64.0903 51.5246 64.2172 51.4721C64.3441 51.4195 64.4801 51.3925 64.6174 51.3925H69.9665ZM67.2904 45.8138C67.7503 45.8138 68.1999 45.9502 68.5823 46.2057C68.9647 46.4612 69.2627 46.8244 69.4388 47.2493C69.6148 47.6742 69.6608 48.1417 69.5711 48.5928C69.4814 49.0439 69.2599 49.4582 68.9347 49.7834C68.6095 50.1086 68.1952 50.3301 67.7441 50.4198C67.293 50.5096 66.8255 50.4635 66.4006 50.2875C65.9757 50.1115 65.6125 49.8135 65.357 49.4311C65.1015 49.0487 64.9651 48.5991 64.9651 48.1392C64.9651 47.5225 65.2101 46.931 65.6462 46.4949C66.0822 46.0588 66.6737 45.8139 67.2904 45.8138V45.8138Z" fill="white"/>
<path d="M38.7035 63.1214C38.1766 63.123 37.6717 63.333 37.2992 63.7055C36.9266 64.0781 36.7166 64.583 36.7151 65.1098V79.0285H62.5641V65.1098C62.5625 64.583 62.3526 64.0781 61.98 63.7055C61.6074 63.333 61.1026 63.123 60.5757 63.1214H38.7035ZM60.5757 64.1156C60.8392 64.116 61.0919 64.2208 61.2783 64.4072C61.4646 64.5936 61.5695 64.8463 61.5699 65.1098V78.0343H37.7093V65.1098C37.7095 64.8462 37.8144 64.5935 38.0008 64.4071C38.1872 64.2207 38.4399 64.1159 38.7035 64.1156H60.5757Z" fill="url(#paint7_linear_1028_1471)"/>
<path d="M37.7092 65.1098C37.7095 64.8462 37.8143 64.5935 38.0007 64.4071C38.1871 64.2207 38.4398 64.1159 38.7034 64.1156H60.5756C60.8392 64.116 61.0919 64.2208 61.2782 64.4072C61.4646 64.5936 61.5695 64.8463 61.5698 65.1098V78.0343H37.7092V65.1098Z" fill="url(#paint8_linear_1028_1471)"/>
<path d="M33.7324 79.0285V79.5256C33.734 80.0525 33.9439 80.5573 34.3165 80.9299C34.6891 81.3025 35.1939 81.5125 35.7208 81.514H63.5582C64.085 81.5125 64.5899 81.3025 64.9624 80.9299C65.335 80.5574 65.545 80.0525 65.5465 79.5256V79.0285L33.7324 79.0285Z" fill="url(#paint9_linear_1028_1471)"/>
<path fill-rule="evenodd" clip-rule="evenodd" d="M47.6512 80.0227H51.628C51.8916 80.0226 52.1444 79.9178 52.3309 79.7314C52.5173 79.545 52.6221 79.2922 52.6222 79.0285H46.657C46.657 79.2922 46.7617 79.5451 46.9482 79.7315C47.1346 79.918 47.3875 80.0227 47.6512 80.0227Z" fill="#003067"/>
<path d="M52.3147 72.4441C52.5921 72.4441 52.8581 72.5543 53.0542 72.7505C53.2504 72.9466 53.3606 73.2126 53.3606 73.49V73.9171C53.3606 74.1838 53.2772 74.4438 53.1222 74.6607C52.7115 75.1804 52.1783 75.5899 51.5702 75.8525C50.9622 76.1151 50.2984 76.2225 49.6386 76.1652C48.979 76.2228 48.3154 76.1153 47.7076 75.8526C47.0998 75.5898 46.567 75.18 46.157 74.66C46.0026 74.4433 45.9197 74.1839 45.9197 73.9178V73.49C45.9197 73.3526 45.9467 73.2166 45.9993 73.0898C46.0518 72.9629 46.1289 72.8476 46.226 72.7504C46.3231 72.6533 46.4384 72.5763 46.5653 72.5237C46.6922 72.4712 46.8282 72.4441 46.9656 72.4441L52.3147 72.4441ZM49.6386 66.8655C50.0985 66.8655 50.5481 67.0019 50.9305 67.2574C51.3129 67.5129 51.6109 67.8761 51.7869 68.301C51.9629 68.7259 52.009 69.1934 51.9193 69.6445C51.8295 70.0956 51.6081 70.5099 51.2829 70.8351C50.9577 71.1603 50.5433 71.3818 50.0923 71.4715C49.6412 71.5612 49.1736 71.5152 48.7487 71.3392C48.3238 71.1632 47.9607 70.8651 47.7052 70.4827C47.4496 70.1003 47.3133 69.6508 47.3133 69.1908C47.3133 68.5741 47.5582 67.9827 47.9943 67.5466C48.4304 67.1105 49.0219 66.8655 49.6386 66.8655V66.8655Z" fill="white"/>
<path d="M52.2951 22.8698C52.2951 23.3949 52.1394 23.9082 51.8476 24.3449C51.5559 24.7815 51.1412 25.1218 50.6561 25.3228C50.1709 25.5237 49.6371 25.5763 49.122 25.4738C48.607 25.3714 48.1339 25.1185 47.7626 24.7472C47.3912 24.3758 47.1384 23.9027 47.0359 23.3877C46.9335 22.8727 46.9861 22.3388 47.1871 21.8537C47.388 21.3685 47.7284 20.9538 48.165 20.6621C48.6016 20.3704 49.115 20.2147 49.6401 20.2147C50.344 20.2155 51.0188 20.4956 51.5166 20.9933C52.0143 21.491 52.2943 22.1659 52.2951 22.8698V22.8698ZM57.202 21.4398L55.9674 21.1652C55.8396 21.1187 55.7353 21.0237 55.6772 20.9008C55.6731 20.8872 55.6682 20.8739 55.6626 20.861L55.3219 20.0331C55.3161 20.0188 55.3094 20.0044 55.3023 19.9906C55.2561 19.8637 55.2622 19.7236 55.3193 19.6011L55.9984 18.5338C56.1374 18.3027 56.1967 18.0324 56.1673 17.7644C56.1379 17.4963 56.0214 17.2453 55.8357 17.0498L55.46 16.6742C55.2627 16.4916 55.012 16.3773 54.7449 16.348C54.4777 16.3187 54.2082 16.376 53.9761 16.5114L52.9085 17.1903C52.8404 17.2243 52.7649 17.2408 52.6889 17.2381C52.6308 17.2402 52.5729 17.2298 52.5192 17.2076C52.5054 17.2001 52.4911 17.1936 52.4765 17.1879L51.6489 16.847C51.6358 16.8416 51.6226 16.8368 51.6091 16.8327C51.4861 16.7744 51.3911 16.67 51.3446 16.5422L51.0703 15.3078C51.0051 15.0461 50.8559 14.813 50.6455 14.6443C50.4351 14.4755 50.1752 14.3804 49.9055 14.3735H49.3745C49.105 14.3803 48.8451 14.4754 48.6347 14.6441C48.4243 14.8128 48.2752 15.0459 48.21 15.3076L47.9355 16.5427C47.8887 16.6703 47.7938 16.7744 47.671 16.8327C47.6575 16.8367 47.6442 16.8417 47.6309 16.847L46.8034 17.1879C46.7887 17.1936 46.7745 17.2002 46.7606 17.2076C46.7069 17.2299 46.649 17.2403 46.591 17.2381C46.5148 17.2406 46.4393 17.2242 46.3711 17.1903L45.304 16.5117C45.0719 16.3763 44.8024 16.319 44.5352 16.3483C44.2681 16.3776 44.0174 16.4919 43.8201 16.6744L43.4444 17.0498C43.2587 17.2453 43.1421 17.4964 43.1127 17.7645C43.0833 18.0326 43.1427 18.3029 43.2817 18.534L43.9608 19.6011C44.0177 19.7235 44.0238 19.8634 43.9778 19.9903C43.9707 20.0044 43.9638 20.0187 43.9579 20.0331L43.6173 20.8609C43.612 20.8739 43.6069 20.8872 43.6027 20.9007C43.5445 21.0237 43.4403 21.1188 43.3125 21.1655L42.0781 21.4395C41.8164 21.5046 41.5833 21.6539 41.4145 21.8643C41.2457 22.0747 41.1506 22.3346 41.1438 22.6043V23.1353C41.1506 23.4048 41.2457 23.6647 41.4144 23.8751C41.5831 24.0854 41.8162 24.2346 42.0779 24.2998L43.3127 24.5741C43.4404 24.6208 43.5446 24.7159 43.6027 24.8388C43.6069 24.8523 43.612 24.8656 43.6173 24.8786L43.9579 25.7064C43.9638 25.7208 43.9704 25.7349 43.9778 25.7489C44.0238 25.8759 44.0176 26.016 43.9606 26.1384L43.2817 27.2055C43.1426 27.4366 43.0832 27.707 43.1126 27.9751C43.142 28.2432 43.2586 28.4942 43.4444 28.6897L43.8201 29.0654C44.0175 29.2478 44.2682 29.362 44.5354 29.3913C44.8026 29.4206 45.0721 29.3634 45.3043 29.2281L46.3709 28.5492C46.4391 28.5153 46.5148 28.4988 46.591 28.5015C46.6491 28.4991 46.707 28.5096 46.7606 28.532C46.7747 28.5389 46.7888 28.5458 46.8034 28.5516L47.631 28.8925C47.6442 28.8979 47.6575 28.9026 47.6711 28.9069C47.7939 28.9652 47.8888 29.0694 47.9355 29.1971L48.21 30.4317C48.2751 30.6934 48.4243 30.9266 48.6346 31.0954C48.845 31.2641 49.1049 31.3592 49.3746 31.366H49.9056C50.1752 31.3592 50.4351 31.264 50.6454 31.0953C50.8558 30.9265 51.005 30.6934 51.0701 30.4317L51.3446 29.1971C51.3912 29.0694 51.4862 28.9651 51.6091 28.9069C51.6226 28.9027 51.6359 28.8979 51.6489 28.8926L52.4765 28.5516C52.4911 28.5458 52.5054 28.5389 52.5192 28.532C52.5728 28.5096 52.6306 28.4992 52.6886 28.5015C52.7648 28.4988 52.8404 28.5152 52.9085 28.5493L53.9758 29.2279C54.208 29.3634 54.4775 29.4207 54.7447 29.3914C55.0119 29.3622 55.2627 29.2479 55.46 29.0654L55.8354 28.69C56.0213 28.4944 56.1378 28.2434 56.1673 27.9752C56.1967 27.7071 56.1374 27.4367 55.9985 27.2055L55.3193 26.1384C55.291 26.0779 55.275 26.0123 55.2721 25.9455C55.2691 25.8787 55.2794 25.812 55.3023 25.7492C55.3095 25.7351 55.3161 25.7211 55.3219 25.7067L55.6626 24.8786C55.6682 24.8656 55.6731 24.8523 55.6772 24.8388C55.7354 24.7158 55.8398 24.6207 55.9676 24.5741L57.2017 24.2998C57.4635 24.2347 57.6967 24.0856 57.8655 23.8752C58.0343 23.6649 58.1295 23.4049 58.1363 23.1353V22.6043C58.1295 22.3347 58.0344 22.0747 57.8657 21.8644C57.6969 21.654 57.4637 21.5048 57.202 21.4397L57.202 21.4398Z" fill="url(#paint10_linear_1028_1471)"/>
<path opacity="0.2" d="M52.295 22.8698C52.295 23.3949 52.1393 23.9082 51.8476 24.3449C51.5558 24.7815 51.1412 25.1218 50.656 25.3228C50.1708 25.5237 49.637 25.5763 49.1219 25.4738C48.6069 25.3714 48.1338 25.1185 47.7625 24.7472C47.3912 24.3758 47.1383 23.9027 47.0359 23.3877C46.9334 22.8727 46.986 22.3388 47.187 21.8536C47.388 21.3685 47.7283 20.9538 48.1649 20.6621C48.6016 20.3704 49.1149 20.2147 49.64 20.2147C50.3439 20.2155 51.0188 20.4956 51.5165 20.9933C52.0142 21.491 52.2942 22.1659 52.295 22.8698V22.8698Z" fill="url(#paint11_linear_1028_1471)"/>
<path d="M49.6395 32.8007V34.7515C49.6395 35.1196 49.4933 35.4726 49.233 35.7328C48.9727 35.9931 48.6197 36.1393 48.2516 36.1393H33.3749C33.0068 36.1393 32.6538 36.2856 32.3935 36.5458C32.1333 36.8061 31.9871 37.1591 31.9871 37.5272V39.478" stroke="white" stroke-width="0.5" stroke-miterlimit="10"/>
<path d="M49.6396 32.8007V34.7515C49.6396 35.1196 49.7859 35.4726 50.0461 35.7328C50.3064 35.9931 50.6594 36.1393 51.0275 36.1393H65.9043C66.2724 36.1393 66.6254 36.2856 66.8856 36.5458C67.1459 36.8061 67.2921 37.1591 67.2921 37.5272V39.478" stroke="white" stroke-width="0.5" stroke-miterlimit="10"/>
</g>
<defs>
<linearGradient id="paint0_linear_1028_1471" x1="47.8698" y1="-15.1532" x2="51.8525" y2="130.615" gradientUnits="userSpaceOnUse">
<stop stop-color="#00ABDE"/>
<stop offset="1" stop-color="#007ED8"/>
</linearGradient>
<linearGradient id="paint1_linear_1028_1471" x1="31.987" y1="57.8835" x2="31.987" y2="41.9479" gradientUnits="userSpaceOnUse">
<stop stop-color="#003067"/>
<stop offset="0.16493" stop-color="#003F7C"/>
<stop offset="0.36216" stop-color="#004F90"/>
<stop offset="0.68089" stop-color="#00589D"/>
<stop offset="1" stop-color="#005BA1"/>
</linearGradient>
<linearGradient id="paint2_linear_1028_1471" x1="31.9872" y1="56.8893" x2="31.9872" y2="42.9457" gradientUnits="userSpaceOnUse">
<stop stop-color="#005BA1"/>
<stop offset="0.26" stop-color="#00589D"/>
<stop offset="0.53" stop-color="#004F90"/>
<stop offset="0.8" stop-color="#003F7C"/>
<stop offset="1" stop-color="#003067"/>
</linearGradient>
<linearGradient id="paint3_linear_1028_1471" x1="31.9871" y1="60.369" x2="31.9871" y2="57.8835" gradientUnits="userSpaceOnUse">
<stop stop-color="#004DAE"/>
<stop offset="0.21" stop-color="#0061C4"/>
<stop offset="0.51" stop-color="#0078DD"/>
<stop offset="0.78" stop-color="#0086EC"/>
<stop offset="1" stop-color="#008BF1"/>
</linearGradient>
<linearGradient id="paint4_linear_1028_1471" x1="67.2921" y1="57.8835" x2="67.2921" y2="41.9479" gradientUnits="userSpaceOnUse">
<stop stop-color="#003067"/>
<stop offset="0.16493" stop-color="#003F7C"/>
<stop offset="0.36216" stop-color="#004F90"/>
<stop offset="0.68089" stop-color="#00589D"/>
<stop offset="1" stop-color="#005BA1"/>
</linearGradient>
<linearGradient id="paint5_linear_1028_1471" x1="31.9872" y1="56.8893" x2="31.9872" y2="42.9457" gradientUnits="userSpaceOnUse">
<stop stop-color="#005BA1"/>
<stop offset="0.26" stop-color="#00589D"/>
<stop offset="0.53" stop-color="#004F90"/>
<stop offset="0.8" stop-color="#003F7C"/>
<stop offset="1" stop-color="#003067"/>
</linearGradient>
<linearGradient id="paint6_linear_1028_1471" x1="67.2921" y1="60.369" x2="67.2921" y2="57.8835" gradientUnits="userSpaceOnUse">
<stop stop-color="#004DAE"/>
<stop offset="0.21" stop-color="#0061C4"/>
<stop offset="0.51" stop-color="#0078DD"/>
<stop offset="0.78" stop-color="#0086EC"/>
<stop offset="1" stop-color="#008BF1"/>
</linearGradient>
<linearGradient id="paint7_linear_1028_1471" x1="49.6396" y1="79.0285" x2="49.6396" y2="63.0929" gradientUnits="userSpaceOnUse">
<stop stop-color="#003067"/>
<stop offset="0.16493" stop-color="#003F7C"/>
<stop offset="0.36216" stop-color="#004F90"/>
<stop offset="0.68089" stop-color="#00589D"/>
<stop offset="1" stop-color="#005BA1"/>
</linearGradient>
<linearGradient id="paint8_linear_1028_1471" x1="31.987" y1="56.8893" x2="31.987" y2="42.9457" gradientUnits="userSpaceOnUse">
<stop stop-color="#005BA1"/>
<stop offset="0.26" stop-color="#00589D"/>
<stop offset="0.53" stop-color="#004F90"/>
<stop offset="0.8" stop-color="#003F7C"/>
<stop offset="1" stop-color="#003067"/>
</linearGradient>
<linearGradient id="paint9_linear_1028_1471" x1="49.6395" y1="81.514" x2="49.6395" y2="79.0285" gradientUnits="userSpaceOnUse">
<stop stop-color="#004DAE"/>
<stop offset="0.21" stop-color="#0061C4"/>
<stop offset="0.51" stop-color="#0078DD"/>
<stop offset="0.78" stop-color="#0086EC"/>
<stop offset="1" stop-color="#008BF1"/>
</linearGradient>
<linearGradient id="paint10_linear_1028_1471" x1="49.6401" y1="31.366" x2="49.6401" y2="14.3735" gradientUnits="userSpaceOnUse">
<stop stop-color="#CCCCCC"/>
<stop offset="0.32" stop-color="#DFDFDF"/>
<stop offset="0.67" stop-color="#ECECEC"/>
<stop offset="1" stop-color="#F0F0F0"/>
</linearGradient>
<linearGradient id="paint11_linear_1028_1471" x1="49.64" y1="25.5248" x2="49.64" y2="20.2147" gradientUnits="userSpaceOnUse">
<stop stop-color="#CCCCCC"/>
<stop offset="1" stop-color="white"/>
</linearGradient>
<clipPath id="clip0_1028_1471">
<rect width="99.2799" height="99.28" fill="white"/>
</clipPath>
</defs>
</svg>
