<svg width="100" height="100" viewBox="0 0 100 100" fill="none" xmlns="http://www.w3.org/2000/svg">
<g clip-path="url(#clip0_1028_916)">
<path d="M49.6401 96.4499C40.382 96.4499 31.3317 93.7045 23.6339 88.561C15.936 83.4174 9.93624 76.1067 6.3933 67.5533C2.85036 58.9999 1.92337 49.588 3.72954 40.5077C5.53571 31.4275 9.99394 23.0867 16.5404 16.5402C23.0869 9.99372 31.4277 5.5355 40.5079 3.72933C49.5882 1.92315 59.0001 2.85015 67.5535 6.39308C76.1069 9.93602 83.4176 15.9358 88.5612 23.6336C93.7047 31.3315 96.4501 40.3817 96.4501 49.6399C96.4505 55.7872 95.24 61.8744 92.8878 67.5538C90.5355 73.2332 87.0875 78.3937 82.7407 82.7405C78.3939 87.0873 73.2335 90.5353 67.554 92.8876C61.8746 95.2398 55.7874 96.4503 49.6401 96.4499V96.4499Z" fill="url(#paint0_linear_1028_916)"/>
<path fill-rule="evenodd" clip-rule="evenodd" d="M95.54 49.6399C95.54 58.718 92.848 67.5923 87.8045 75.1406C82.7609 82.6888 75.5923 88.5719 67.2052 92.046C58.818 95.52 49.5891 96.429 40.6854 94.6579C31.7816 92.8869 23.603 88.5153 17.1838 82.0961C10.7646 75.6769 6.39302 67.4983 4.62196 58.5945C2.85089 49.6908 3.75987 40.4618 7.23393 32.0747C10.708 23.6876 16.5911 16.519 24.1393 11.4754C31.6875 6.43187 40.5618 3.73988 49.64 3.73988C55.6677 3.73986 61.6363 4.92708 67.2052 7.23377C72.774 9.54045 77.834 12.9214 82.0963 17.1836C86.3585 21.4458 89.7394 26.5058 92.0461 32.0747C94.3528 37.6435 95.54 43.6122 95.54 49.6399V49.6399ZM49.64 -0.000106449C59.4579 -0.000106449 69.0552 2.91123 77.2185 8.36574C85.3818 13.8203 91.7442 21.573 95.5014 30.6435C99.2585 39.714 100.242 49.695 98.3262 59.3242C96.4108 68.9534 91.6831 77.7984 84.7408 84.7407C77.7985 91.683 68.9535 96.4107 59.3243 98.3261C49.6951 100.241 39.7141 99.2584 30.6436 95.5013C21.5731 91.7441 13.8204 85.3816 8.36584 77.2184C2.91133 69.0551 -1.61629e-06 59.4577 3.61524e-07 49.6399C-0.000786426 43.1208 1.28265 36.6655 3.77702 30.6425C6.27138 24.6196 9.92781 19.147 14.5375 14.5374C19.1471 9.9277 24.6197 6.27127 30.6427 3.77691C36.6656 1.28254 43.121 -0.000894549 49.64 -0.000106449V-0.000106449Z" fill="#F2F1F0"/>
<path fill-rule="evenodd" clip-rule="evenodd" d="M92.7296 49.64C92.7296 58.1624 90.2024 66.4934 85.4676 73.5795C80.7328 80.6656 74.0031 86.1886 66.1294 89.45C58.2557 92.7113 49.5918 93.5647 41.2331 91.902C32.8745 90.2394 25.1966 86.1355 19.1703 80.1092C13.1441 74.083 9.04017 66.4051 7.37753 58.0464C5.7149 49.6878 6.56822 41.0238 9.8296 33.1502C13.091 25.2765 18.6139 18.5468 25.7 13.812C32.7862 9.07718 41.1172 6.55 49.6396 6.55C55.2983 6.54965 60.9017 7.66397 66.1298 9.82933C71.3579 11.9947 76.1082 15.1687 80.1096 19.17C84.1109 23.1713 87.2849 27.9217 89.4502 33.1498C91.6156 38.3778 92.7299 43.9812 92.7296 49.64ZM49.6396 2.81C58.9017 2.81 67.9558 5.55653 75.6569 10.7023C83.3581 15.848 89.3604 23.1619 92.9049 31.7189C96.4493 40.276 97.3767 49.6919 95.5697 58.7761C93.7628 67.8602 89.3027 76.2045 82.7534 82.7538C76.2041 89.3031 67.8598 93.7632 58.7757 95.5702C49.6915 97.3771 40.2756 96.4497 31.7185 92.9053C23.1614 89.3608 15.8476 83.3585 10.7018 75.6574C5.5561 67.9562 2.80957 58.9021 2.80957 49.64C2.81076 37.2203 7.74501 25.3096 16.5271 16.5275C25.3091 7.74544 37.2198 2.81119 49.6396 2.81V2.81Z" fill="#0078D4"/>
<path fill-rule="evenodd" clip-rule="evenodd" d="M92.7301 49.7835C92.7301 58.3059 90.2029 66.6369 85.4681 73.723C80.7333 80.8091 74.0036 86.3321 66.1299 89.5935C58.2562 92.8549 49.5923 93.7082 41.2336 92.0455C32.875 90.3829 25.1971 86.279 19.1708 80.2527C13.1446 74.2265 9.04066 66.5486 7.37802 58.1899C5.71538 49.8313 6.56871 41.1673 9.83009 33.2937C13.0915 25.42 18.6144 18.6903 25.7005 13.9555C32.7867 9.22069 41.1177 6.69351 49.6401 6.69351C55.2988 6.69316 60.9022 7.80748 66.1303 9.97284C71.3584 12.1382 76.1087 15.3122 80.1101 19.3135C84.1114 23.3149 87.2854 28.0652 89.4507 33.2933C91.6161 38.5213 92.7304 44.1248 92.7301 49.7835V49.7835ZM49.6401 2.95351C58.9022 2.95351 67.9563 5.70004 75.6574 10.8458C83.3586 15.9915 89.3609 23.3054 92.9053 31.8624C96.4498 40.4195 97.3772 49.8355 95.5702 58.9196C93.7633 68.0037 89.3032 76.348 82.7539 82.8973C76.2046 89.4466 67.8603 93.9067 58.7761 95.7137C49.692 97.5206 40.2761 96.5932 31.719 93.0488C23.1619 89.5043 15.8481 83.502 10.7023 75.8009C5.55659 68.0997 2.81006 59.0456 2.81006 49.7835C2.81124 37.3638 7.74548 25.4531 16.5276 16.671C25.3096 7.88892 37.2203 2.95467 49.64 2.95348L49.6401 2.95351Z" fill="#0078D4"/>
<path d="M27.8272 31.2978C26.7764 31.3009 25.7694 31.7197 25.0263 32.4628C24.2832 33.2059 23.8644 34.2128 23.8613 35.2637V63.0248H75.4177V35.2637C75.4147 34.2128 74.9958 33.2059 74.2528 32.4628C73.5097 31.7197 72.5027 31.3009 71.4519 31.2978H27.8272ZM71.4519 33.2807C71.9776 33.2814 72.4815 33.4906 72.8532 33.8623C73.225 34.234 73.4341 34.738 73.4348 35.2637V61.0419H25.8443V35.2637C25.8448 34.7379 26.0539 34.2339 26.4257 33.8621C26.7974 33.4903 27.3015 33.2813 27.8273 33.2807H71.4519Z" fill="url(#paint1_linear_1028_916)"/>
<path d="M25.8442 35.2637C25.8448 34.7379 26.0539 34.2339 26.4256 33.8621C26.7974 33.4903 27.3015 33.2813 27.8272 33.2807H71.4519C71.9775 33.2814 72.4815 33.4906 72.8532 33.8623C73.225 34.234 73.4341 34.738 73.4348 35.2637V61.0419H25.8442V35.2637Z" fill="url(#paint2_linear_1028_916)"/>
<path d="M17.9126 63.0248V64.0163C17.9157 65.0672 18.3345 66.0741 19.0776 66.8172C19.8207 67.5603 20.8276 67.9791 21.8785 67.9822H77.4008C78.4517 67.9791 79.4586 67.5603 80.2017 66.8172C80.9448 66.0741 81.3636 65.0672 81.3667 64.0163V63.0248H17.9126Z" fill="url(#paint3_linear_1028_916)"/>
<path fill-rule="evenodd" clip-rule="evenodd" d="M45.6736 65.0078H53.6054C54.1312 65.0076 54.6355 64.7986 55.0073 64.4268C55.3791 64.0549 55.5881 63.5507 55.5883 63.0248H43.6907C43.6907 63.5507 43.8996 64.0551 44.2715 64.427C44.6434 64.7988 45.1477 65.0078 45.6736 65.0078V65.0078Z" fill="#003067"/>
<path d="M52.1744 48.0695C52.1744 48.5708 52.0257 49.0609 51.7472 49.4778C51.4686 49.8946 51.0727 50.2195 50.6095 50.4114C50.1463 50.6033 49.6367 50.6535 49.1449 50.5557C48.6532 50.4578 48.2015 50.2164 47.847 49.8619C47.4925 49.5074 47.2511 49.0557 47.1533 48.564C47.0555 48.0723 47.1057 47.5626 47.2975 47.0994C47.4894 46.6362 47.8143 46.2403 48.2312 45.9618C48.648 45.6832 49.1381 45.5346 49.6395 45.5346C50.3115 45.5354 50.9558 45.8027 51.431 46.2779C51.9062 46.7531 52.1736 47.3974 52.1744 48.0695ZM56.8591 46.7042L55.6804 46.4421C55.5584 46.3977 55.4588 46.3069 55.4033 46.1896C55.3994 46.1767 55.3947 46.164 55.3894 46.1516L55.0641 45.3612C55.0586 45.3475 55.0522 45.3338 55.0454 45.3206C55.0013 45.1994 55.0071 45.0657 55.0616 44.9488L55.71 43.9298C55.8427 43.7092 55.8993 43.4511 55.8712 43.1952C55.8431 42.9393 55.7319 42.6997 55.5546 42.5131L55.1959 42.1544C55.0076 41.9801 54.7683 41.871 54.5132 41.843C54.2581 41.815 54.0008 41.8697 53.7792 41.999L52.7599 42.6471C52.6949 42.6796 52.6229 42.6953 52.5503 42.6927C52.4948 42.6947 52.4395 42.6848 52.3883 42.6636C52.375 42.6565 52.3614 42.6502 52.3474 42.6448L51.5573 42.3193C51.5449 42.3141 51.5322 42.3096 51.5193 42.3056C51.402 42.25 51.3112 42.1504 51.2669 42.0283L51.005 40.8499C50.9427 40.6 50.8002 40.3775 50.5994 40.2164C50.3985 40.0552 50.1504 39.9644 49.8929 39.9579H49.3859C49.1286 39.9644 48.8804 40.0551 48.6796 40.2162C48.4788 40.3773 48.3363 40.5998 48.2741 40.8496L48.012 42.0289C47.9674 42.1506 47.8767 42.25 47.7596 42.3057C47.7466 42.3095 47.734 42.3143 47.7213 42.3194L46.9312 42.6448C46.9172 42.6503 46.9036 42.6566 46.8904 42.6636C46.8391 42.6849 46.7838 42.6948 46.7284 42.6927C46.6557 42.6952 46.5836 42.6795 46.5185 42.6471L45.4997 41.9992C45.278 41.87 45.0207 41.8153 44.7657 41.8433C44.5106 41.8713 44.2713 41.9804 44.0829 42.1546L43.7243 42.513C43.5469 42.6997 43.4357 42.9394 43.4076 43.1953C43.3795 43.4513 43.4362 43.7094 43.5689 43.93L44.2173 44.9488C44.2715 45.0657 44.2774 45.1993 44.2335 45.3204C44.2267 45.3338 44.2201 45.3475 44.2145 45.3612L43.8893 46.1516C43.8842 46.164 43.8794 46.1767 43.8754 46.1896C43.8199 46.307 43.7203 46.3978 43.5983 46.4423L42.4198 46.7039C42.17 46.7662 41.9474 46.9086 41.7863 47.1095C41.6251 47.3104 41.5344 47.5586 41.5278 47.816V48.323C41.5344 48.5803 41.6251 48.8285 41.7862 49.0293C41.9473 49.2301 42.1698 49.3726 42.4196 49.4348L43.5986 49.6966C43.7205 49.7412 43.8199 49.832 43.8754 49.9494C43.8795 49.9623 43.8843 49.975 43.8894 49.9874L44.2146 50.7777C44.2202 50.7914 44.2265 50.8049 44.2336 50.8183C44.2775 50.9396 44.2715 51.0733 44.2171 51.1902L43.5689 52.2089C43.4362 52.4296 43.3795 52.6877 43.4076 52.9436C43.4356 53.1996 43.5469 53.4393 43.7243 53.6259L44.083 53.9846C44.2715 54.1588 44.5108 54.2678 44.7659 54.2958C45.021 54.3238 45.2783 54.2692 45.5 54.14L46.5183 53.4918C46.5834 53.4594 46.6557 53.4437 46.7284 53.4462C46.7839 53.444 46.8392 53.4539 46.8904 53.4754C46.9038 53.482 46.9173 53.4885 46.9312 53.4941L47.7213 53.8196C47.734 53.8247 47.7467 53.8292 47.7596 53.8333C47.8769 53.889 47.9675 53.9885 48.0121 54.1104L48.2742 55.2891C48.3363 55.5389 48.4787 55.7615 48.6796 55.9227C48.8804 56.0838 49.1286 56.1746 49.386 56.1811H49.893C50.1504 56.1745 50.3985 56.0837 50.5993 55.9226C50.8002 55.7615 50.9426 55.5389 51.0048 55.2891L51.2669 54.1104C51.3114 53.9884 51.4021 53.8889 51.5194 53.8333C51.5323 53.8292 51.545 53.8247 51.5574 53.8196L52.3475 53.4941C52.3614 53.4885 52.3751 53.482 52.3883 53.4754C52.4395 53.454 52.4946 53.4441 52.55 53.4462C52.6227 53.4436 52.6949 53.4593 52.7599 53.4918L53.7789 54.1398C54.0006 54.2691 54.2579 54.3238 54.513 54.2959C54.7681 54.2679 55.0075 54.1588 55.1959 53.9846L55.5544 53.6262C55.7318 53.4395 55.843 53.1998 55.8712 52.9438C55.8993 52.6878 55.8427 52.4297 55.71 52.2089L55.0616 51.1902C55.0346 51.1323 55.0193 51.0697 55.0165 51.006C55.0137 50.9422 55.0235 50.8785 55.0454 50.8186C55.0522 50.8051 55.0585 50.7917 55.0641 50.778L55.3893 49.9874C55.3947 49.975 55.3994 49.9623 55.4033 49.9494C55.4589 49.8319 55.5585 49.7411 55.6806 49.6966L56.8588 49.4348C57.1087 49.3727 57.3313 49.2303 57.4925 49.0294C57.6537 48.8286 57.7445 48.5804 57.7511 48.323V47.816C57.7446 47.5586 57.6538 47.3104 57.4927 47.1096C57.3315 46.9087 57.109 46.7663 56.8591 46.7042Z" fill="url(#paint4_linear_1028_916)"/>
<path opacity="0.2" d="M52.1745 48.0695C52.1745 48.5708 52.0259 49.0609 51.7473 49.4778C51.4688 49.8946 51.0729 50.2195 50.6097 50.4114C50.1465 50.6033 49.6368 50.6535 49.1451 50.5556C48.6534 50.4578 48.2017 50.2164 47.8472 49.8619C47.4927 49.5074 47.2513 49.0557 47.1534 48.564C47.0556 48.0723 47.1058 47.5626 47.2977 47.0994C47.4896 46.6362 47.8145 46.2403 48.2313 45.9618C48.6482 45.6832 49.1383 45.5346 49.6396 45.5346C50.3117 45.5354 50.956 45.8027 51.4312 46.2779C51.9064 46.7531 52.1737 47.3974 52.1745 48.0695Z" fill="url(#paint5_linear_1028_916)"/>
<path d="M43.2675 20.4443H30.9218C29.9072 20.4443 29.0847 21.2668 29.0847 22.2814V34.6271C29.0847 35.6417 29.9072 36.4642 30.9218 36.4642H43.2675C44.2821 36.4642 45.1047 35.6417 45.1047 34.6271V22.2814C45.1047 21.2668 44.2821 20.4443 43.2675 20.4443Z" fill="url(#paint6_linear_1028_916)"/>
<path fill-rule="evenodd" clip-rule="evenodd" d="M40.8853 26.0667C40.6995 25.8809 40.4475 25.7766 40.1848 25.7766C39.922 25.7766 39.67 25.8809 39.4842 26.0667L36.2182 29.3303L35.0385 28.1619C35.0109 28.1209 34.9797 28.0825 34.9453 28.0471C34.7608 27.862 34.5105 27.7574 34.2492 27.7561C33.9878 27.7548 33.7365 27.857 33.5502 28.0403C33.3638 28.2235 33.2575 28.4731 33.2545 28.7344C33.2514 28.9958 33.3518 29.2477 33.5338 29.4353L33.5219 29.4472L35.5206 31.4276C35.7065 31.6133 35.9586 31.7176 36.2214 31.7176C36.4842 31.7176 36.7362 31.6133 36.9222 31.4276L40.8824 27.4692L40.8854 27.4668C40.9774 27.3749 41.0504 27.2658 41.1001 27.1456C41.1499 27.0255 41.1756 26.8968 41.1756 26.7667C41.1755 26.6367 41.1499 26.5079 41.1001 26.3878C41.0503 26.2677 40.9773 26.1586 40.8853 26.0667V26.0667Z" fill="#0078D4"/>
<path d="M68.2131 20.4443H55.8674C54.8528 20.4443 54.0303 21.2668 54.0303 22.2814V34.6271C54.0303 35.6417 54.8528 36.4642 55.8674 36.4642H68.2131C69.2277 36.4642 70.0502 35.6417 70.0502 34.6271V22.2814C70.0502 21.2668 69.2277 20.4443 68.2131 20.4443Z" fill="url(#paint7_linear_1028_916)"/>
<path fill-rule="evenodd" clip-rule="evenodd" d="M65.8307 26.0667C65.6448 25.8809 65.3928 25.7766 65.1301 25.7766C64.8673 25.7766 64.6153 25.8809 64.4295 26.0667L61.1635 29.3303L59.9838 28.1619C59.9562 28.1209 59.925 28.0825 59.8907 28.0471C59.7061 27.862 59.4559 27.7574 59.1945 27.7561C58.9331 27.7548 58.6819 27.857 58.4955 28.0403C58.3092 28.2235 58.2028 28.4731 58.1998 28.7344C58.1967 28.9958 58.2971 29.2477 58.4791 29.4353L58.4672 29.4472L60.4659 31.4276C60.6519 31.6133 60.9039 31.7176 61.1667 31.7176C61.4295 31.7176 61.6815 31.6133 61.8675 31.4276L65.8277 27.4692L65.8307 27.4668C65.9227 27.3749 65.9957 27.2658 66.0455 27.1456C66.0952 27.0255 66.1209 26.8968 66.1209 26.7667C66.1209 26.6367 66.0952 26.5079 66.0454 26.3878C65.9956 26.2677 65.9227 26.1586 65.8307 26.0667Z" fill="#E8E8E8"/>
<path d="M37.0947 37.6277V45.9103C37.0947 46.1938 37.1506 46.4746 37.2591 46.7366C37.3676 46.9985 37.5266 47.2365 37.7271 47.437C37.9276 47.6375 38.1657 47.7966 38.4276 47.9051C38.6896 48.0136 38.9704 48.0695 39.2539 48.0695H40.566" stroke="#E8E8E8" stroke-width="0.5" stroke-miterlimit="10"/>
<path d="M62.0401 37.6277V45.9103C62.0401 46.4829 61.8126 47.0321 61.4077 47.437C61.0028 47.842 60.4536 48.0695 59.8809 48.0695H58.5688" stroke="#E8E8E8" stroke-width="0.5" stroke-miterlimit="10"/>
</g>
<defs>
<linearGradient id="paint0_linear_1028_916" x1="47.8698" y1="-15.1532" x2="51.8525" y2="130.615" gradientUnits="userSpaceOnUse">
<stop stop-color="#00ABDE"/>
<stop offset="1" stop-color="#007ED8"/>
</linearGradient>
<linearGradient id="paint1_linear_1028_916" x1="49.6395" y1="63.0248" x2="49.6395" y2="31.2409" gradientUnits="userSpaceOnUse">
<stop stop-color="#003067"/>
<stop offset="0.16493" stop-color="#003F7C"/>
<stop offset="0.36216" stop-color="#004F90"/>
<stop offset="0.68089" stop-color="#00589D"/>
<stop offset="1" stop-color="#005BA1"/>
</linearGradient>
<linearGradient id="paint2_linear_1028_916" x1="49.6395" y1="61.0419" x2="49.6395" y2="33.231" gradientUnits="userSpaceOnUse">
<stop stop-color="#005BA1"/>
<stop offset="0.26" stop-color="#00589D"/>
<stop offset="0.53" stop-color="#004F90"/>
<stop offset="0.8" stop-color="#003F7C"/>
<stop offset="1" stop-color="#003067"/>
</linearGradient>
<linearGradient id="paint3_linear_1028_916" x1="49.6396" y1="67.9822" x2="49.6396" y2="63.0248" gradientUnits="userSpaceOnUse">
<stop stop-color="#004DAE"/>
<stop offset="0.21" stop-color="#0061C4"/>
<stop offset="0.51" stop-color="#0078DD"/>
<stop offset="0.78" stop-color="#0086EC"/>
<stop offset="1" stop-color="#008BF1"/>
</linearGradient>
<linearGradient id="paint4_linear_1028_916" x1="49.6395" y1="56.1811" x2="49.6395" y2="39.9578" gradientUnits="userSpaceOnUse">
<stop stop-color="#CCCCCC"/>
<stop offset="0.32" stop-color="#DFDFDF"/>
<stop offset="0.67" stop-color="#ECECEC"/>
<stop offset="1" stop-color="#F0F0F0"/>
</linearGradient>
<linearGradient id="paint5_linear_1028_916" x1="49.6396" y1="50.6043" x2="49.6396" y2="45.5346" gradientUnits="userSpaceOnUse">
<stop stop-color="#CCCCCC"/>
<stop offset="1" stop-color="white"/>
</linearGradient>
<linearGradient id="paint6_linear_1028_916" x1="37.0947" y1="35.8893" x2="37.0947" y2="20.7933" gradientUnits="userSpaceOnUse">
<stop stop-color="#F2F2F2"/>
<stop offset="0.44" stop-color="#FBFBFB"/>
<stop offset="1" stop-color="white"/>
</linearGradient>
<linearGradient id="paint7_linear_1028_916" x1="62.0402" y1="35.8893" x2="62.0402" y2="20.7933" gradientUnits="userSpaceOnUse">
<stop stop-color="#F2F2F2"/>
<stop offset="0.44" stop-color="#FBFBFB"/>
<stop offset="1" stop-color="white"/>
</linearGradient>
<clipPath id="clip0_1028_916">
<rect width="99.2799" height="99.28" fill="white"/>
</clipPath>
</defs>
</svg>
