<svg width="100" height="100" viewBox="0 0 100 100" fill="none" xmlns="http://www.w3.org/2000/svg">
<g clip-path="url(#clip0_940_1253)">
<path d="M49.6401 96.45C40.382 96.45 31.3317 93.7047 23.6339 88.5611C15.936 83.4176 9.93624 76.1068 6.3933 67.5534C2.85036 59 1.92337 49.5881 3.72954 40.5078C5.53571 31.4276 9.99394 23.0868 16.5404 16.5403C23.0869 9.99384 31.4277 5.53562 40.5079 3.72945C49.5882 1.92327 59.0001 2.85027 67.5535 6.39321C76.1069 9.93614 83.4176 15.9359 88.5612 23.6338C93.7047 31.3316 96.4501 40.3819 96.4501 49.64C96.4505 55.7873 95.24 61.8745 92.8878 67.5539C90.5355 73.2334 87.0875 78.3938 82.7407 82.7406C78.3939 87.0874 73.2335 90.5354 67.554 92.8877C61.8746 95.2399 55.7874 96.4504 49.6401 96.45V96.45Z" fill="url(#paint0_linear_940_1253)"/>
<path fill-rule="evenodd" clip-rule="evenodd" d="M95.54 49.64C95.54 58.7182 92.848 67.5925 87.8045 75.1407C82.7609 82.6889 75.5923 88.572 67.2052 92.0461C58.818 95.5201 49.5891 96.4291 40.6854 94.658C31.7816 92.887 23.603 88.5154 17.1838 82.0962C10.7646 75.677 6.39302 67.4984 4.62196 58.5946C2.85089 49.6909 3.75987 40.462 7.23393 32.0748C10.708 23.6877 16.5911 16.5191 24.1393 11.4755C31.6875 6.43199 40.5618 3.74 49.64 3.74C55.6677 3.73998 61.6363 4.9272 67.2052 7.23388C72.774 9.54057 77.834 12.9215 82.0963 17.1837C86.3585 21.446 89.7394 26.5059 92.0461 32.0748C94.3528 37.6437 95.54 43.6123 95.54 49.64V49.64ZM49.64 3.62732e-07C59.4579 3.62732e-07 69.0553 2.91134 77.2185 8.36585C85.3818 13.8204 91.7442 21.5731 95.5014 30.6436C99.2585 39.7141 100.242 49.6951 98.3262 59.3243C96.4108 68.9535 91.6831 77.7985 84.7408 84.7408C77.7985 91.6831 68.9535 96.4108 59.3243 98.3262C49.6951 100.242 39.7141 99.2585 30.6436 95.5014C21.5731 91.7442 13.8204 85.3818 8.36585 77.2185C2.91134 69.0553 3.62732e-07 59.4579 3.62732e-07 49.64C-0.000787738 43.121 1.28265 36.6656 3.77702 30.6427C6.27138 24.6197 9.9278 19.1471 14.5375 14.5375C19.1471 9.9278 24.6197 6.27138 30.6427 3.77702C36.6656 1.28265 43.121 -0.000787738 49.64 3.62732e-07V3.62732e-07Z" fill="#F2F1F0"/>
<path fill-rule="evenodd" clip-rule="evenodd" d="M92.7296 49.6401C92.7296 58.1625 90.2024 66.4935 85.4676 73.5796C80.7328 80.6657 74.0031 86.1887 66.1294 89.4501C58.2557 92.7114 49.5918 93.5648 41.2331 91.9021C32.8745 90.2395 25.1966 86.1356 19.1703 80.1093C13.1441 74.0831 9.04017 66.4052 7.37753 58.0465C5.7149 49.6879 6.56822 41.0239 9.8296 33.1503C13.091 25.2766 18.6139 18.5469 25.7 13.8121C32.7862 9.07727 41.1172 6.55009 49.6396 6.55009C55.2983 6.54974 60.9017 7.66407 66.1298 9.82942C71.3579 11.9948 76.1082 15.1687 80.1096 19.1701C84.1109 23.1714 87.2849 27.9218 89.4502 33.1499C91.6156 38.3779 92.7299 43.9813 92.7296 49.6401V49.6401ZM49.6396 2.81009C58.9017 2.81009 67.9558 5.55662 75.6569 10.7024C83.3581 15.8481 89.3604 23.162 92.9049 31.719C96.4493 40.2761 97.3767 49.692 95.5697 58.7762C93.7628 67.8603 89.3027 76.2046 82.7534 82.7539C76.2041 89.3032 67.8598 93.7633 58.7757 95.5703C49.6915 97.3772 40.2756 96.4498 31.7185 92.9054C23.1614 89.3609 15.8476 83.3586 10.7018 75.6574C5.5561 67.9563 2.80957 58.9022 2.80957 49.6401C2.81076 37.2204 7.745 25.3097 16.5271 16.5276C25.3091 7.7455 37.2198 2.81125 49.6396 2.81006V2.81009Z" fill="#0078D4"/>
<path fill-rule="evenodd" clip-rule="evenodd" d="M92.7637 49.6401C92.7637 58.1625 90.2366 66.4935 85.5018 73.5796C80.767 80.6657 74.0372 86.1887 66.1636 89.4501C58.2899 92.7114 49.6259 93.5648 41.2673 91.9021C32.9087 90.2395 25.2308 86.1356 19.2045 80.1093C13.1783 74.0831 9.07435 66.4052 7.41171 58.0465C5.74908 49.6879 6.6024 41.0239 9.86378 33.1503C13.1252 25.2766 18.6481 18.5469 25.7342 13.8121C32.8203 9.07727 41.1514 6.55009 49.6738 6.55009C55.3325 6.54974 60.9359 7.66407 66.164 9.82942C71.3921 11.9948 76.1424 15.1687 80.1437 19.1701C84.1451 23.1714 87.3191 27.9218 89.4844 33.1499C91.6498 38.3779 92.7641 43.9813 92.7637 49.6401V49.6401ZM49.6738 2.81009C58.9359 2.81009 67.9899 5.55662 75.6911 10.7024C83.3923 15.8481 89.3946 23.162 92.939 31.719C96.4835 40.2761 97.4109 49.692 95.6039 58.7762C93.797 67.8603 89.3369 76.2046 82.7876 82.7539C76.2383 89.3032 67.894 93.7633 58.8098 95.5703C49.7257 97.3772 40.3097 96.4498 31.7527 92.9054C23.1956 89.3609 15.8818 83.3586 10.736 75.6574C5.59028 67.9563 2.84375 58.9022 2.84375 49.6401C2.84494 37.2204 7.77918 25.3097 16.5612 16.5276C25.3433 7.7455 37.254 2.81125 49.6738 2.81006V2.81009Z" fill="#0078D4"/>
<path d="M27.8272 22.1047C26.7764 22.1078 25.7694 22.5266 25.0263 23.2697C24.2832 24.0128 23.8644 25.0197 23.8613 26.0706V53.8318H75.4177V26.0706C75.4147 25.0197 74.9958 24.0128 74.2528 23.2697C73.5097 22.5266 72.5027 22.1078 71.4519 22.1047H27.8272ZM71.4519 24.0877C71.9776 24.0884 72.4815 24.2975 72.8532 24.6692C73.225 25.0409 73.4341 25.5449 73.4348 26.0706V51.8488H25.8443V26.0706C25.8448 25.5448 26.0539 25.0408 26.4257 24.669C26.7974 24.2973 27.3015 24.0882 27.8273 24.0877H71.4519Z" fill="url(#paint1_linear_940_1253)"/>
<path d="M25.8442 26.0706C25.8448 25.5448 26.0539 25.0408 26.4256 24.669C26.7974 24.2973 27.3015 24.0882 27.8272 24.0877H71.4519C71.9775 24.0884 72.4815 24.2975 72.8532 24.6692C73.225 25.0409 73.4341 25.5449 73.4348 26.0706V51.8488H25.8442V26.0706Z" fill="url(#paint2_linear_940_1253)"/>
<path d="M17.9126 53.8318V54.8232C17.9157 55.8741 18.3345 56.881 19.0776 57.6241C19.8207 58.3672 20.8276 58.786 21.8785 58.7891H77.4008C78.4516 58.786 79.4586 58.3672 80.2017 57.6241C80.9448 56.881 81.3636 55.8741 81.3667 54.8232V53.8318H17.9126Z" fill="url(#paint3_linear_940_1253)"/>
<path fill-rule="evenodd" clip-rule="evenodd" d="M45.6736 55.8147H53.6054C54.1312 55.8145 54.6355 55.6055 55.0073 55.2337C55.3791 54.8619 55.5881 54.3576 55.5883 53.8318H43.6907C43.6907 54.3577 43.8996 54.862 44.2715 55.2339C44.6434 55.6058 45.1477 55.8147 45.6736 55.8147Z" fill="#003067"/>
<path d="M65.5109 65.1059H33.7683C33.235 65.1059 32.8027 65.5383 32.8027 66.0715V72.9593C32.8027 73.4926 33.235 73.9249 33.7683 73.9249H65.5109C66.0442 73.9249 66.4765 73.4926 66.4765 72.9593V66.0715C66.4765 65.5383 66.0442 65.1059 65.5109 65.1059Z" fill="#9CEBFF"/>
<path fill-rule="evenodd" clip-rule="evenodd" d="M41.1822 67.4971C41.0423 67.3573 40.8525 67.2787 40.6547 67.2787C40.4569 67.2787 40.2671 67.3573 40.1272 67.4971L37.6679 69.9546L36.7796 69.0748C36.7589 69.044 36.7354 69.015 36.7095 68.9883C36.5705 68.8492 36.3821 68.7706 36.1855 68.7698C35.9888 68.7689 35.7997 68.8458 35.6595 68.9837C35.5193 69.1216 35.4392 69.3094 35.4368 69.506C35.4344 69.7027 35.5098 69.8923 35.6466 70.0337L35.6377 70.0426L37.1427 71.5338C37.2827 71.6736 37.4725 71.7521 37.6704 71.7521C37.8683 71.7521 38.0581 71.6736 38.1981 71.5338L41.1799 68.5532L41.1822 68.5514C41.2515 68.4822 41.3064 68.4 41.3439 68.3096C41.3814 68.2191 41.4007 68.1222 41.4007 68.0243C41.4007 67.9264 41.3814 67.8294 41.3439 67.739C41.3064 67.6485 41.2515 67.5663 41.1822 67.4971V67.4971Z" fill="#0078D4"/>
<path d="M44.2993 69.5154H62.298" stroke="#0078D4" stroke-width="1.5" stroke-miterlimit="10" stroke-linecap="round"/>
<path d="M30.3151 69.515H17.9131V61.24" stroke="#F3F3F3" stroke-linecap="round" stroke-linejoin="round"/>
<path d="M68.9641 69.515H81.3671V61.24" stroke="#F3F3F3" stroke-linecap="round" stroke-linejoin="round"/>
<path d="M55.108 39.8554C55.3871 39.8554 55.6634 39.9104 55.9212 40.0172C56.1791 40.124 56.4133 40.2805 56.6107 40.4778C56.808 40.6752 56.9645 40.9094 57.0713 41.1673C57.1781 41.4251 57.2331 41.7014 57.2331 41.9805V42.8484C57.2331 43.3902 57.0637 43.9184 56.7487 44.3593C55.2879 46.4035 52.9026 47.4161 49.6705 47.4161C46.4379 47.4161 44.0538 46.403 42.5965 44.3577C42.2828 43.9175 42.1142 43.3903 42.1143 42.8497V41.9805C42.1143 41.7014 42.1692 41.4251 42.276 41.1672C42.3828 40.9094 42.5393 40.6751 42.7367 40.4778C42.934 40.2805 43.1683 40.1239 43.4261 40.0171C43.6839 39.9103 43.9603 39.8554 44.2393 39.8554L55.108 39.8554ZM49.6705 28.5204C50.605 28.5204 51.5185 28.7975 52.2955 29.3167C53.0725 29.8358 53.6781 30.5737 54.0357 31.4371C54.3933 32.3004 54.4869 33.2504 54.3046 34.1669C54.1223 35.0835 53.6723 35.9253 53.0115 36.5861C52.3507 37.2469 51.5088 37.6969 50.5923 37.8792C49.6758 38.0615 48.7258 37.9679 47.8625 37.6103C46.9991 37.2527 46.2612 36.6471 45.7421 35.8701C45.2229 35.0931 44.9458 34.1797 44.9458 33.2452C44.9458 31.9921 45.4436 30.7903 46.3296 29.9043C47.2157 29.0182 48.4175 28.5204 49.6705 28.5204V28.5204Z" fill="white"/>
</g>
<defs>
<linearGradient id="paint0_linear_940_1253" x1="47.8697" y1="-15.1531" x2="51.8525" y2="130.615" gradientUnits="userSpaceOnUse">
<stop stop-color="#00ABDE"/>
<stop offset="1" stop-color="#007ED8"/>
</linearGradient>
<linearGradient id="paint1_linear_940_1253" x1="49.6395" y1="53.8318" x2="49.6395" y2="22.0479" gradientUnits="userSpaceOnUse">
<stop stop-color="#003067"/>
<stop offset="0.16493" stop-color="#003F7C"/>
<stop offset="0.36216" stop-color="#004F90"/>
<stop offset="0.68089" stop-color="#00589D"/>
<stop offset="1" stop-color="#005BA1"/>
</linearGradient>
<linearGradient id="paint2_linear_940_1253" x1="49.6395" y1="51.8488" x2="49.6395" y2="24.0379" gradientUnits="userSpaceOnUse">
<stop stop-color="#005BA1"/>
<stop offset="0.26" stop-color="#00589D"/>
<stop offset="0.53" stop-color="#004F90"/>
<stop offset="0.8" stop-color="#003F7C"/>
<stop offset="1" stop-color="#003067"/>
</linearGradient>
<linearGradient id="paint3_linear_940_1253" x1="49.6396" y1="58.7891" x2="49.6396" y2="53.8318" gradientUnits="userSpaceOnUse">
<stop stop-color="#004DAE"/>
<stop offset="0.21" stop-color="#0061C4"/>
<stop offset="0.51" stop-color="#0078DD"/>
<stop offset="0.78" stop-color="#0086EC"/>
<stop offset="1" stop-color="#008BF1"/>
</linearGradient>
<clipPath id="clip0_940_1253">
<rect width="99.2799" height="99.28" fill="white"/>
</clipPath>
</defs>
</svg>
