<svg width="100" height="100" viewBox="0 0 100 100" fill="none" xmlns="http://www.w3.org/2000/svg">
<g clip-path="url(#clip0_927_812)">
<path d="M49.6401 96.4499C40.382 96.4499 31.3317 93.7045 23.6339 88.561C15.936 83.4174 9.93624 76.1067 6.3933 67.5533C2.85036 58.9999 1.92337 49.588 3.72954 40.5077C5.53571 31.4275 9.99394 23.0867 16.5404 16.5402C23.0869 9.99372 31.4277 5.5355 40.5079 3.72933C49.5882 1.92315 59.0001 2.85015 67.5535 6.39308C76.1069 9.93602 83.4176 15.9358 88.5612 23.6336C93.7047 31.3315 96.4501 40.3817 96.4501 49.6399C96.4505 55.7872 95.24 61.8744 92.8878 67.5538C90.5355 73.2332 87.0875 78.3937 82.7407 82.7405C78.3939 87.0873 73.2335 90.5353 67.554 92.8876C61.8746 95.2398 55.7874 96.4503 49.6401 96.4499V96.4499Z" fill="url(#paint0_linear_927_812)"/>
<path fill-rule="evenodd" clip-rule="evenodd" d="M95.54 49.6399C95.54 58.718 92.848 67.5923 87.8045 75.1406C82.7609 82.6888 75.5923 88.5719 67.2052 92.046C58.818 95.52 49.5891 96.429 40.6854 94.6579C31.7816 92.8869 23.603 88.5153 17.1838 82.0961C10.7646 75.6769 6.39302 67.4983 4.62196 58.5945C2.85089 49.6908 3.75987 40.4618 7.23393 32.0747C10.708 23.6876 16.5911 16.519 24.1393 11.4754C31.6875 6.43187 40.5618 3.73988 49.64 3.73988C55.6677 3.73986 61.6363 4.92708 67.2052 7.23377C72.774 9.54045 77.834 12.9214 82.0963 17.1836C86.3585 21.4458 89.7394 26.5058 92.0461 32.0747C94.3528 37.6435 95.54 43.6122 95.54 49.6399V49.6399ZM49.64 -0.000106449C59.4579 -0.000106449 69.0552 2.91123 77.2185 8.36574C85.3818 13.8203 91.7442 21.573 95.5014 30.6435C99.2585 39.714 100.242 49.695 98.3262 59.3242C96.4108 68.9534 91.6831 77.7984 84.7408 84.7407C77.7985 91.683 68.9535 96.4107 59.3243 98.3261C49.6951 100.241 39.7141 99.2584 30.6436 95.5013C21.5731 91.7441 13.8204 85.3816 8.36584 77.2184C2.91133 69.0551 -1.61629e-06 59.4577 3.61524e-07 49.6399C-0.000786426 43.1208 1.28265 36.6655 3.77702 30.6425C6.27138 24.6196 9.92781 19.147 14.5375 14.5374C19.1471 9.9277 24.6197 6.27127 30.6427 3.77691C36.6656 1.28254 43.121 -0.000894549 49.64 -0.000106449V-0.000106449Z" fill="#F2F1F0"/>
<path fill-rule="evenodd" clip-rule="evenodd" d="M92.7296 49.64C92.7296 58.1624 90.2024 66.4934 85.4676 73.5795C80.7328 80.6656 74.0031 86.1886 66.1294 89.45C58.2557 92.7113 49.5918 93.5647 41.2331 91.902C32.8745 90.2394 25.1966 86.1355 19.1703 80.1092C13.1441 74.083 9.04017 66.4051 7.37753 58.0464C5.7149 49.6878 6.56822 41.0238 9.8296 33.1502C13.091 25.2765 18.6139 18.5468 25.7 13.812C32.7862 9.07718 41.1172 6.55 49.6396 6.55C55.2983 6.54965 60.9017 7.66397 66.1298 9.82933C71.3579 11.9947 76.1082 15.1687 80.1096 19.17C84.1109 23.1713 87.2849 27.9217 89.4502 33.1498C91.6156 38.3778 92.7299 43.9812 92.7296 49.64ZM49.6396 2.81C58.9017 2.81 67.9558 5.55653 75.6569 10.7023C83.3581 15.848 89.3604 23.1619 92.9049 31.7189C96.4493 40.276 97.3767 49.6919 95.5697 58.7761C93.7628 67.8602 89.3027 76.2045 82.7534 82.7538C76.2041 89.3031 67.8598 93.7632 58.7757 95.5702C49.6915 97.3771 40.2756 96.4497 31.7185 92.9053C23.1614 89.3608 15.8476 83.3585 10.7018 75.6574C5.5561 67.9562 2.80957 58.9021 2.80957 49.64C2.81076 37.2203 7.74501 25.3096 16.5271 16.5275C25.3091 7.74544 37.2198 2.81119 49.6396 2.81V2.81Z" fill="#0078D4"/>
<path fill-rule="evenodd" clip-rule="evenodd" d="M92.7296 49.6399C92.7296 58.1623 90.2024 66.4933 85.4676 73.5794C80.7328 80.6655 74.0031 86.1885 66.1294 89.4499C58.2557 92.7112 49.5918 93.5646 41.2331 91.9019C32.8745 90.2393 25.1966 86.1354 19.1703 80.1091C13.1441 74.0829 9.04017 66.405 7.37753 58.0463C5.7149 49.6877 6.56822 41.0237 9.8296 33.1501C13.091 25.2764 18.6139 18.5467 25.7001 13.8119C32.7862 9.07708 41.1172 6.5499 49.6396 6.5499C55.2983 6.54956 60.9017 7.66388 66.1298 9.82923C71.3579 11.9946 76.1082 15.1686 80.1096 19.1699C84.1109 23.1712 87.2849 27.9216 89.4502 33.1497C91.6156 38.3777 92.7299 43.9811 92.7296 49.6399V49.6399ZM49.6396 2.8099C58.9017 2.8099 67.9558 5.55643 75.6569 10.7022C83.3581 15.8479 89.3604 23.1618 92.9048 31.7188C96.4493 40.2759 97.3767 49.6918 95.5697 58.776C93.7628 67.8601 89.3027 76.2044 82.7534 82.7537C76.2041 89.303 67.8598 93.7631 58.7757 95.5701C49.6915 97.377 40.2756 96.4496 31.7185 92.9052C23.1614 89.3607 15.8476 83.3584 10.7018 75.6573C5.5561 67.9561 2.80957 58.902 2.80957 49.6399C2.81075 37.2202 7.74499 25.3095 16.5271 16.5274C25.3091 7.7453 37.2198 2.81105 49.6396 2.80986V2.8099Z" fill="#0078D4"/>
<path opacity="0.2" d="M25.3976 69.5802H73.8811C74.1358 69.5795 74.3799 69.478 74.56 69.2978C74.7401 69.1177 74.8417 68.8736 74.8424 68.6189V30.7662H24.4363V68.6189C24.437 68.8736 24.5385 69.1177 24.7187 69.2978C24.8988 69.478 25.1429 69.5795 25.3976 69.5802V69.5802Z" fill="#003067"/>
<path d="M25.3976 67.6011H73.8811C74.1358 67.6003 74.3799 67.4988 74.56 67.3187C74.7401 67.1386 74.8417 66.8945 74.8424 66.6397V28.7871H24.4363V66.6397C24.437 66.8945 24.5385 67.1386 24.7187 67.3187C24.8988 67.4988 25.1429 67.6003 25.3976 67.6011V67.6011Z" fill="#F2F2F2"/>
<path d="M24.4363 32.9769H74.8424V28.4586C74.8426 28.3617 74.8238 28.2658 74.7868 28.1762C74.7499 28.0867 74.6956 28.0054 74.6271 27.9369C74.5586 27.8684 74.4773 27.8141 74.3877 27.7772C74.2982 27.7402 74.2023 27.7213 74.1054 27.7216H25.1733C25.0765 27.7213 24.9805 27.7402 24.891 27.7772C24.8014 27.8141 24.7201 27.8684 24.6516 27.9369C24.5831 28.0054 24.5288 28.0867 24.4919 28.1762C24.4549 28.2658 24.4361 28.3617 24.4363 28.4586L24.4363 32.9769Z" fill="url(#paint1_linear_927_812)"/>
<path d="M28.3141 31.735C28.5668 31.7342 28.8136 31.6585 29.0233 31.5174C29.233 31.3764 29.3961 31.1763 29.4921 30.9425C29.5881 30.7087 29.6126 30.4517 29.5625 30.204C29.5124 29.9563 29.39 29.729 29.2107 29.5509C29.0315 29.3727 28.8034 29.2517 28.5554 29.2032C28.3074 29.1547 28.0505 29.1808 27.8174 29.2782C27.5842 29.3757 27.3851 29.5401 27.2454 29.7507C27.1056 29.9612 27.0315 30.2085 27.0323 30.4612C27.0309 30.6296 27.0632 30.7965 27.1272 30.9522C27.1912 31.1078 27.2857 31.2492 27.4051 31.3678C27.5245 31.4865 27.6665 31.5801 27.8225 31.6431C27.9786 31.7062 28.1457 31.7374 28.3141 31.735Z" fill="#50E6FF"/>
<path d="M70.3745 36.2292H28.8949C28.3483 36.2292 27.9053 36.6723 27.9053 37.2188V63.0043C27.9053 63.5509 28.3483 63.9939 28.8949 63.9939H70.3745C70.921 63.9939 71.3641 63.5509 71.3641 63.0043V37.2188C71.3641 36.6723 70.921 36.2292 70.3745 36.2292Z" fill="#E8E8E8"/>
<path opacity="0.2" d="M67.9822 67.6011C68.4905 64.9043 68.3979 62.1287 67.7111 59.4718C67.0243 56.8149 65.7601 54.3421 64.0085 52.2296C62.257 50.117 60.0612 48.4167 57.5775 47.2496C55.0938 46.0825 52.3833 45.4774 49.639 45.4774C46.8948 45.4774 44.1843 46.0825 41.7006 47.2496C39.2169 48.4167 37.0211 50.117 35.2696 52.2296C33.518 54.3421 32.2538 56.8149 31.567 59.4718C30.8802 62.1287 30.7876 64.9043 31.2959 67.6011H67.9822Z" fill="#767676"/>
<path opacity="0.2" d="M48.2611 37.832L47.3314 41.4018C47.2204 41.8235 47.2076 42.265 47.294 42.6924C47.3805 43.1198 47.5638 43.5216 47.8299 43.8671C48.0959 44.2125 48.4377 44.4922 48.8289 44.6848C49.2201 44.8774 49.6503 44.9777 50.0863 44.978C50.3288 44.978 50.5703 44.9471 50.8051 44.8862L54.3871 43.9536C56.2139 44.7596 58.213 45.0972 60.2032 44.9358C62.1934 44.7743 64.1119 44.119 65.785 43.0291C67.4581 41.9391 68.8328 40.4491 69.7847 38.6938C70.7367 36.9386 71.2357 34.9736 71.2367 32.9769H47.2368C47.2377 34.6488 47.5866 36.3022 48.2611 37.832V37.832Z" fill="#767676"/>
<path opacity="0.2" d="M70.0092 27.7216H48.4645C47.6587 29.3557 47.2387 31.1531 47.2368 32.9751L47.2369 32.9769H71.2368V32.9751C71.2349 31.1531 70.8149 29.3557 70.0092 27.7216V27.7216Z" fill="#003067"/>
<path d="M49.6389 80.8825C58.8432 80.8825 66.3047 73.421 66.3047 64.2167C66.3047 55.0125 58.8432 47.551 49.6389 47.551C40.4347 47.551 32.9731 55.0125 32.9731 64.2167C32.9731 73.421 40.4347 80.8825 49.6389 80.8825Z" fill="#1F56A3"/>
<path d="M49.6386 78.3361C46.846 78.3361 44.1162 77.508 41.7943 75.9565C39.4723 74.405 37.6627 72.1998 36.594 69.6198C35.5254 67.0398 35.2458 64.2009 35.7906 61.462C36.3355 58.7231 37.6802 56.2073 39.6549 54.2327C41.6295 52.258 44.1454 50.9133 46.8843 50.3686C49.6232 49.8238 52.4621 50.1034 55.0421 51.1721C57.6221 52.2408 59.8272 54.0505 61.3787 56.3725C62.9301 58.6944 63.7582 61.4243 63.7581 64.2169C63.7539 67.9603 62.265 71.5492 59.618 74.1962C56.9709 76.8431 53.382 78.332 49.6386 78.3361Z" fill="#0078D4"/>
<path d="M49.6387 74.8881C46.8085 74.8881 44.0941 73.7638 42.0929 71.7625C40.0916 69.7612 38.9673 67.0469 38.9673 64.2167C38.9673 61.3865 40.0916 58.6721 42.0929 56.6709C44.0941 54.6696 46.8085 53.5453 49.6387 53.5453V55.8819C47.9902 55.8819 46.3788 56.3708 45.0082 57.2866C43.6376 58.2025 42.5693 59.5042 41.9385 61.0272C41.3077 62.5502 41.1426 64.226 41.4642 65.8428C41.7858 67.4596 42.5797 68.9447 43.7453 70.1103C44.9109 71.2759 46.396 72.0697 48.0128 72.3913C49.6296 72.713 51.3054 72.5479 52.8284 71.9171C54.3514 71.2863 55.6531 70.218 56.5689 68.8474C57.4848 67.4768 57.9737 65.8653 57.9737 64.2169H60.3103C60.3071 67.0461 59.1817 69.7586 57.1811 71.7591C55.1804 73.7597 52.468 74.885 49.6387 74.8881V74.8881Z" fill="url(#paint2_linear_927_812)"/>
<path d="M49.6388 67.3748C51.3382 67.3748 52.7158 65.9972 52.7158 64.2978C52.7158 62.5984 51.3382 61.2208 49.6388 61.2208C47.9394 61.2208 46.5618 62.5984 46.5618 64.2978C46.5618 65.9972 47.9394 67.3748 49.6388 67.3748Z" fill="white"/>
<path d="M50.5728 54.373L51.6475 63.2438C51.6635 63.376 51.6513 63.51 51.6117 63.6371C51.572 63.7641 51.5059 63.8813 51.4176 63.981C51.3293 64.0806 51.2209 64.1603 51.0996 64.215C50.9782 64.2696 50.8466 64.2978 50.7135 64.2978H48.5641C48.431 64.2978 48.2994 64.2696 48.178 64.215C48.0567 64.1603 47.9483 64.0806 47.86 63.981C47.7717 63.8813 47.7056 63.7641 47.6659 63.6371C47.6263 63.51 47.6141 63.376 47.6301 63.2438L48.7048 54.373C48.7324 54.1447 48.8427 53.9345 49.0148 53.782C49.1869 53.6295 49.4088 53.5453 49.6388 53.5453V53.5453C49.8687 53.5453 50.0907 53.6295 50.2628 53.782C50.4348 53.9345 50.5451 54.1447 50.5728 54.373Z" fill="white"/>
<path d="M59.2363 22.9754C60.7527 22.976 62.2491 23.3214 63.6122 23.9856C64.9754 24.6498 66.1697 25.6153 67.1047 26.809C68.0398 28.0028 68.6911 29.3935 69.0094 30.8761C69.3277 32.3587 69.3047 33.8942 68.9421 35.3666C68.5795 36.839 67.8868 38.2096 66.9164 39.3748C65.946 40.54 64.7234 41.4693 63.3409 42.0923C61.9585 42.7153 60.4524 43.0158 58.9367 42.971C57.421 42.9262 55.9353 42.5373 54.5921 41.8337L50.3017 42.9507C50.1583 42.988 50.0076 42.9872 49.8646 42.9484C49.7216 42.9095 49.5912 42.834 49.4865 42.7292C49.3817 42.6244 49.3061 42.494 49.2672 42.351C49.2284 42.208 49.2275 42.0574 49.2649 41.914L50.3812 37.6256C49.5816 36.1012 49.1888 34.3963 49.2409 32.6758C49.293 30.9552 49.7882 29.2772 50.6787 27.8041C51.5691 26.3309 52.8246 25.1125 54.3237 24.2666C55.8229 23.4206 57.515 22.9759 59.2363 22.9754V22.9754Z" fill="white"/>
<path d="M60.488 33.9754H55.9863L55.8845 33.9822C55.7049 34.0068 55.5403 34.0957 55.4212 34.2323C55.302 34.3689 55.2363 34.5441 55.2363 34.7254C55.2363 34.9067 55.302 35.0818 55.4212 35.2185C55.5403 35.3551 55.7049 35.4439 55.8845 35.4686L55.9863 35.4754H60.488L60.5898 35.4686C60.7694 35.4439 60.934 35.3551 61.0532 35.2185C61.1724 35.0818 61.238 34.9067 61.238 34.7254C61.238 34.5441 61.1724 34.3689 61.0532 34.2323C60.934 34.0957 60.7694 34.0068 60.5898 33.9822L60.488 33.9754ZM62.4863 30.4754H55.9863L55.8845 30.4822C55.7049 30.5069 55.5403 30.5957 55.4212 30.7323C55.302 30.8689 55.2363 31.0441 55.2363 31.2254C55.2363 31.4067 55.302 31.5818 55.4212 31.7185C55.5403 31.8551 55.7049 31.9439 55.8845 31.9686L55.9863 31.9754H62.4863L62.5881 31.9686C62.7677 31.9439 62.9323 31.8551 63.0515 31.7185C63.1707 31.5818 63.2363 31.4067 63.2363 31.2254C63.2363 31.0441 63.1707 30.8689 63.0515 30.7323C62.9323 30.5957 62.7677 30.5069 62.5881 30.4822L62.4863 30.4754Z" fill="#0078D4"/>
</g>
<defs>
<linearGradient id="paint0_linear_927_812" x1="47.8698" y1="-15.1532" x2="51.8525" y2="130.615" gradientUnits="userSpaceOnUse">
<stop stop-color="#00ABDE"/>
<stop offset="1" stop-color="#007ED8"/>
</linearGradient>
<linearGradient id="paint1_linear_927_812" x1="24.4363" y1="30.3492" x2="74.9327" y2="30.3492" gradientUnits="userSpaceOnUse">
<stop stop-color="#005BA1"/>
<stop offset="0.26" stop-color="#00589D"/>
<stop offset="0.53" stop-color="#004F90"/>
<stop offset="0.8" stop-color="#003F7C"/>
<stop offset="1" stop-color="#003067"/>
</linearGradient>
<linearGradient id="paint2_linear_927_812" x1="38.9677" y1="64.2167" x2="60.3102" y2="64.2167" gradientUnits="userSpaceOnUse">
<stop stop-color="#50E6FF"/>
<stop offset="0.07067" stop-color="#4ADEFC" stop-opacity="0.92653"/>
<stop offset="0.71949" stop-color="#1595DF" stop-opacity="0.26619"/>
<stop offset="1" stop-color="#0078D4" stop-opacity="0"/>
</linearGradient>
<clipPath id="clip0_927_812">
<rect width="99.2799" height="99.28" fill="white"/>
</clipPath>
</defs>
</svg>
