<svg width="103" height="103" viewBox="0 0 103 103" fill="none" xmlns="http://www.w3.org/2000/svg">
<path d="M51.9281 98.4641C77.7805 98.4641 98.734 77.5106 98.734 51.6582C98.734 25.8058 77.7805 4.85229 51.9281 4.85229C26.0757 4.85229 5.12219 25.8058 5.12219 51.6582C5.12219 77.5106 26.0757 98.4641 51.9281 98.4641Z" fill="url(#paint0_linear)"/>
<path fill-rule="evenodd" clip-rule="evenodd" d="M51.9281 1.6582C24.3148 1.6582 1.9281 24.0449 1.9281 51.6582C1.9281 79.2715 24.3148 101.658 51.9281 101.658C79.5414 101.658 101.928 79.2715 101.928 51.6582C101.928 24.0449 79.5414 1.6582 51.9281 1.6582ZM51.9281 97.415C26.6565 97.415 6.17126 76.9298 6.17126 51.6582C6.17126 26.3866 26.6565 5.90137 51.9281 5.90137C77.1997 5.90137 97.6849 26.3866 97.6849 51.6582C97.6849 76.9298 77.1997 97.415 51.9281 97.415Z" fill="#D9D9D9"/>
<path fill-rule="evenodd" clip-rule="evenodd" d="M6.03078 51.6582C6.03078 77.0048 26.5815 97.5556 51.9281 97.5556C77.2747 97.5556 97.8255 77.0048 97.8255 51.6582C97.8255 26.3117 77.2747 5.76088 51.9281 5.76088C26.5815 5.76088 6.03078 26.3117 6.03078 51.6582ZM51.9281 2.01416C24.5115 2.01416 2.28406 24.2416 2.28406 51.6582C2.28406 79.0749 24.5115 101.302 51.9281 101.302C79.3448 101.302 101.572 79.0749 101.572 51.6582C101.572 24.2416 79.3448 2.01416 51.9281 2.01416Z" fill="#F2F1F0"/>
<path fill-rule="evenodd" clip-rule="evenodd" d="M8.84084 51.6582C8.84084 75.4593 28.1271 94.7455 51.9281 94.7455C75.7292 94.7455 95.0154 75.4593 95.0154 51.6582C95.0154 27.8572 75.7292 8.57094 51.9281 8.57094C28.1271 8.57094 8.84084 27.8572 8.84084 51.6582ZM51.9281 4.82422C26.0664 4.82422 5.09412 25.7965 5.09412 51.6582C5.09412 77.52 26.0664 98.4923 51.9281 98.4923C77.7899 98.4923 98.7622 77.52 98.7622 51.6582C98.7622 25.7965 77.7992 4.82422 51.9281 4.82422Z" fill="#0078D4"/>
<path d="M25.851 29.4589C23.9214 29.4589 22.3572 31.0231 22.3572 32.9527C22.3572 34.8822 23.9214 36.4465 25.851 36.4465C27.7806 36.4465 29.3448 34.8822 29.3448 32.9527C29.3448 31.0231 27.7806 29.4589 25.851 29.4589Z" fill="white"/>
<path d="M25.851 49.2603C23.9214 49.2603 22.3572 50.8245 22.3572 52.7541C22.3572 54.6836 23.9214 56.2479 25.851 56.2479C27.7806 56.2479 29.3448 54.6836 29.3448 52.7541C29.3448 50.8151 27.7806 49.2603 25.851 49.2603Z" fill="white"/>
<path d="M25.851 69.043C23.9214 69.043 22.3572 70.6072 22.3572 72.5368C22.3572 74.4663 23.9214 76.0306 25.851 76.0306C27.7806 76.0306 29.3448 74.4663 29.3448 72.5368C29.3448 70.6072 27.7806 69.043 25.851 69.043Z" fill="white"/>
<path d="M15.9595 39.3408C14.03 39.3408 12.4657 40.9051 12.4657 42.8346C12.4657 44.7642 14.03 46.3285 15.9595 46.3285C17.8891 46.3285 19.4533 44.7642 19.4533 42.8346C19.4533 40.9144 17.8891 39.3408 15.9595 39.3408Z" fill="white"/>
<path d="M15.9595 59.1515C14.03 59.1515 12.4657 60.7157 12.4657 62.6453C12.4657 64.5749 14.03 66.1391 15.9595 66.1391C17.8891 66.1391 19.4533 64.5749 19.4533 62.6453C19.4533 60.7157 17.8891 59.1515 15.9595 59.1515Z" fill="white"/>
<path d="M83.5972 40.6897V27.5762H70.493V32.8216H65.2476V27.5762H33.7471V77.4263H65.2476V72.1809H70.493V77.4263H83.5972V64.3128H70.493V69.5582H65.2476V53.8126H70.493V59.058H83.5972V45.9445H70.493V51.1899H65.2476V35.4443H70.493V40.6897H83.5972Z" fill="url(#paint1_linear)"/>
<path d="M62.625 45.9539H36.3699V74.7568H62.625V45.9539Z" fill="white"/>
<path d="M80.9745 51.2086H73.1532V56.4259H80.9745V51.2086Z" fill="white"/>
<path d="M80.9745 66.9355H73.1532V74.7662H80.9745V66.9355Z" fill="white"/>
<path d="M80.9745 35.4443H73.1532V38.067H80.9745V35.4443Z" fill="white"/>
<path fill-rule="evenodd" clip-rule="evenodd" d="M64.9854 66.2048C59 66.2048 54.1387 71.01 54.1387 76.9111C54.1387 82.8122 59.0094 87.6173 64.9854 87.6173C70.9708 87.6173 75.8322 82.8122 75.8322 76.9111C75.8322 71.01 70.9614 66.2048 64.9854 66.2048Z" fill="#546670"/>
<path fill-rule="evenodd" clip-rule="evenodd" d="M74.6519 75.8152C74.1555 71.4128 70.5586 67.8628 66.0907 67.3757C60.227 66.7294 55.2439 71.2629 55.2439 76.9205C55.2439 77.0329 55.2533 77.1453 55.2533 77.2671C55.4219 72.5181 59.103 68.6402 63.8052 68.0782C64.4234 68.0033 64.976 68.481 64.976 69.0992V78.6346C64.0862 78.6346 63.3462 77.9696 63.2525 77.0985C63.2431 77.1734 63.2338 77.2483 63.2338 77.3326C63.2619 78.082 63.7771 78.7002 64.4702 78.9062C64.7699 78.9905 64.976 79.2528 64.976 79.5619V86.5308C70.7179 86.5121 75.3076 81.6039 74.6519 75.8152Z" fill="#405563"/>
<path fill-rule="evenodd" clip-rule="evenodd" d="M73.6684 76.9112C73.6684 76.9018 73.6684 76.8924 73.6684 76.8924C73.659 74.7006 72.816 72.5181 71.13 70.8508C69.4439 69.1836 67.224 68.3499 65.0134 68.3405C65.0041 68.3405 64.9947 68.3312 64.9947 68.3312C64.9853 68.3312 64.976 68.3312 64.976 68.3405C62.756 68.3499 60.5455 69.1836 58.8594 70.8508C57.1734 72.5181 56.321 74.7006 56.321 76.8924C56.321 76.9018 56.321 76.9112 56.321 76.9112C56.321 76.9205 56.321 76.9299 56.321 76.9299C56.3304 79.1217 57.1734 81.3042 58.8594 82.9715C58.925 83.0371 59.0187 83.0745 59.103 83.0745C59.1967 83.0745 59.281 83.0371 59.3465 82.9715L60.33 81.9973C60.4705 81.8662 60.4705 81.6414 60.33 81.5103C60.1989 81.3791 59.9741 81.3791 59.843 81.5103L59.1217 82.2221C57.8104 80.8078 57.1079 79.0374 57.0329 77.239H58.0539C58.2412 77.239 58.4005 77.0891 58.4005 76.8924C58.4005 76.7051 58.2412 76.5459 58.0539 76.5459H57.0048C57.0798 74.7474 57.7823 72.9771 59.0936 71.5627L59.8149 72.2746C59.8804 72.3402 59.9741 72.3776 60.0584 72.3776C60.1427 72.3776 60.2364 72.3402 60.3019 72.2746C60.4424 72.1435 60.4424 71.928 60.3019 71.7875L59.5807 71.0757C61.0138 69.783 62.8029 69.0899 64.6294 69.015V70.0266C64.6294 70.2139 64.7886 70.3731 64.976 70.3731C65.1633 70.3731 65.3225 70.2233 65.3225 70.0266V69.015C67.1397 69.0899 68.9381 69.783 70.3712 71.0757L69.65 71.7875C69.5095 71.9187 69.5095 72.1341 69.65 72.2746C69.7156 72.3402 69.8092 72.3776 69.8935 72.3776C69.9778 72.3776 70.0715 72.3402 70.1371 72.2746L70.8583 71.5627C72.1697 72.9771 72.8628 74.7474 72.9471 76.5459H71.9261C71.7388 76.5459 71.5796 76.6957 71.5796 76.8924C71.5796 77.0798 71.7388 77.239 71.9261 77.239H72.9471C72.8722 79.0374 72.1697 80.8078 70.8583 82.2221L70.1371 81.5103C70.0059 81.3791 69.7811 81.3791 69.65 81.5103C69.5095 81.6414 69.5095 81.8568 69.65 81.9973L70.6335 82.9715C70.6991 83.0371 70.7928 83.0745 70.8771 83.0745C70.9614 83.0745 71.055 83.0371 71.1206 82.9715C72.8066 81.3042 73.659 79.1217 73.659 76.9299C73.6684 76.9299 73.6684 76.9205 73.6684 76.9112Z" fill="#E1E4E1"/>
<path fill-rule="evenodd" clip-rule="evenodd" d="M64.9854 87.889C67.0648 87.889 69.0131 87.3176 70.6804 86.3341L68.4698 82.6436C68.2731 82.3157 67.8048 82.0535 67.4208 82.0535H62.2035C61.8194 82.0535 61.3604 82.3251 61.1731 82.6529L59.178 86.2592C60.8734 87.2989 62.8591 87.889 64.9854 87.889Z" fill="#30404D"/>
<path fill-rule="evenodd" clip-rule="evenodd" d="M67.4113 82.0629H64.976V87.889C67.0554 87.889 69.0037 87.3176 70.671 86.3341L68.4604 82.6436C68.2731 82.3251 67.7954 82.0629 67.4113 82.0629Z" fill="#182A37"/>
<path fill-rule="evenodd" clip-rule="evenodd" d="M67.4114 84.798C67.4114 85.1727 67.1023 85.4818 66.7183 85.4818H62.8966C62.5126 85.4818 62.2035 85.1727 62.2035 84.798V83.7676C62.2035 83.393 62.5126 83.0839 62.8966 83.0839H66.7183C67.1023 83.0839 67.4114 83.393 67.4114 83.7676V84.798Z" fill="#30404D"/>
<path fill-rule="evenodd" clip-rule="evenodd" d="M66.7183 83.0839H62.8966C62.5126 83.0839 62.2035 83.393 62.2035 83.7676V84.1142C62.2035 83.7395 62.5126 83.4304 62.8966 83.4304H66.7183C67.1023 83.4304 67.4114 83.7395 67.4114 84.1142V83.7676C67.4114 83.393 67.1023 83.0839 66.7183 83.0839Z" fill="#182A37"/>
<path fill-rule="evenodd" clip-rule="evenodd" d="M65.332 70.0545V69.0429C67.1491 69.1178 68.9475 69.811 70.3807 71.1036L69.6594 71.8155C69.5189 71.9466 69.5189 72.1621 69.6594 72.3026C69.725 72.3681 69.8187 72.4056 69.903 72.4056C69.9873 72.4056 70.0809 72.3681 70.1465 72.3026L70.8677 71.5907C72.1791 73.0051 72.8722 74.7754 72.9565 76.5738H71.9355C71.7482 76.5738 71.589 76.7237 71.589 76.9204C71.589 77.1077 71.7482 77.267 71.9355 77.267H72.9565C72.8816 79.0654 72.1791 80.8357 70.8677 82.2501L70.1465 81.5382C70.0154 81.4071 69.7906 81.4071 69.6594 81.5382C69.5189 81.6694 69.5189 81.8848 69.6594 82.0253L70.6429 82.9994C70.7085 83.065 70.8022 83.1025 70.8865 83.1025C70.9708 83.1025 71.0644 83.065 71.13 82.9994C72.816 81.3322 73.6684 79.1497 73.6684 76.9579C73.6684 76.9485 73.6684 76.9391 73.6684 76.9391C73.6684 76.9298 73.6684 76.9204 73.6684 76.9204C73.659 74.7286 72.816 72.5461 71.13 70.8788C69.444 69.2115 67.224 68.3779 65.0135 68.3685C65.0041 68.3685 64.9948 68.3591 64.9948 68.3591V70.4198C65.1727 70.4011 65.332 70.2419 65.332 70.0545Z" fill="#C5CCCD"/>
<path fill-rule="evenodd" clip-rule="evenodd" d="M64.9853 86.5121C59.6182 86.5121 55.2532 82.2034 55.2532 76.9112C55.2532 71.6189 59.6182 67.3102 64.9853 67.3102C70.3525 67.3102 74.7174 71.6189 74.7174 76.9112C74.7174 82.2128 70.3525 86.5121 64.9853 86.5121ZM64.9853 65.9426C58.8501 65.9426 53.8669 70.8696 53.8669 76.9205C53.8669 82.9715 58.8594 87.8984 64.9853 87.8984C71.1206 87.8984 76.1037 82.9715 76.1037 76.9205C76.1037 70.8602 71.1112 65.9426 64.9853 65.9426Z" fill="#212A31"/>
<path fill-rule="evenodd" clip-rule="evenodd" d="M66.6996 76.6396C66.7183 76.7332 66.7277 76.8269 66.7277 76.9206C66.7277 77.0236 66.7183 77.1266 66.6996 77.2203C66.6902 77.2484 66.6902 77.2765 66.6808 77.314C66.6621 77.3889 66.6434 77.4545 66.6153 77.52C66.6059 77.5575 66.5872 77.5856 66.5778 77.6231C66.5497 77.6886 66.5122 77.7636 66.4654 77.8198C66.4373 77.8666 66.3998 77.9135 66.3624 77.9603C66.3436 77.979 66.3249 77.9978 66.3155 78.0259C66.175 78.1851 66.0064 78.3256 65.8191 78.4286C67.7393 79.0187 70.8022 79.9086 70.9053 79.6744C71.0177 79.4215 68.2264 77.5575 66.6902 76.5459C66.6902 76.5646 66.6902 76.6021 66.6996 76.6396Z" fill="#DF5142"/>
<path fill-rule="evenodd" clip-rule="evenodd" d="M64.9948 78.6347C65.9502 78.6347 66.737 77.8666 66.737 76.9205C66.737 75.9745 65.9596 75.2064 64.9948 75.2064C64.0394 75.2064 63.2526 75.9745 63.2526 76.9205C63.2526 77.8666 64.03 78.6347 64.9948 78.6347Z" fill="#C5CCCD"/>
<path fill-rule="evenodd" clip-rule="evenodd" d="M66.2125 75.7029L63.7584 78.1195C63.7772 78.1382 63.7865 78.1476 63.7959 78.1663C64.4984 78.8127 65.6037 78.7752 66.25 78.082C66.8963 77.4076 66.8682 76.3586 66.2125 75.7029Z" fill="#ACB8C0"/>
<path fill-rule="evenodd" clip-rule="evenodd" d="M64.9854 76.2273C64.6013 76.2273 64.2922 76.5364 64.2922 76.9111C64.2922 77.2857 64.6013 77.5948 64.9854 77.5948C65.3694 77.5948 65.6785 77.2857 65.6785 76.9111C65.6785 76.5364 65.3694 76.2273 64.9854 76.2273Z" fill="#546670"/>
<defs>
<linearGradient id="paint0_linear" x1="53.6984" y1="-13.1346" x2="49.7157" y2="132.633" gradientUnits="userSpaceOnUse">
<stop stop-color="#00ABDE"/>
<stop offset="1" stop-color="#007ED8"/>
</linearGradient>
<linearGradient id="paint1_linear" x1="21.1865" y1="10.8508" x2="105.644" y2="104.693" gradientUnits="userSpaceOnUse">
<stop stop-color="#007ED8"/>
<stop offset="0.7065" stop-color="#002D4C"/>
</linearGradient>
</defs>
</svg>
