<?xml version="1.0" encoding="UTF-8"?>
<svg width="100px" height="100px" viewBox="0 0 100 100" version="1.1" xmlns="http://www.w3.org/2000/svg" xmlns:xlink="http://www.w3.org/1999/xlink">
    <!-- Generator: Sketch 52.6 (67491) - http://www.bohemiancoding.com/sketch -->
    <title>M365 SFA Generalist/introduction-to-microsoft-365-and-surface-for-business</title>
    <desc>Created with Sketch.</desc>
    <defs>
        <rect id="path-1" x="0" y="0" width="96" height="96" rx="48"></rect>
        <filter x="-5.3%" y="-8.5%" width="110.7%" height="117.0%" filterUnits="objectBoundingBox" id="filter-3">
            <feOffset dx="0" dy="2" in="SourceAlpha" result="shadowOffsetOuter1"></feOffset>
            <feColorMatrix values="0 0 0 0 0   0 0 0 0 0   0 0 0 0 0  0 0 0 0.0964956975 0" type="matrix" in="shadowOffsetOuter1" result="shadowMatrixOuter1"></feColorMatrix>
            <feMerge>
                <feMergeNode in="shadowMatrixOuter1"></feMergeNode>
                <feMergeNode in="SourceGraphic"></feMergeNode>
            </feMerge>
        </filter>
        <path d="M16.2772438,7.8 L20.1641037,14.3038505 C20.2490996,14.4460735 20.2027079,14.6302707 20.060485,14.7152666 C19.9969948,14.7532099 19.9217255,14.7663615 19.8491304,14.7521959 L13.2,13.454739 L16.2772438,7.8 Z" id="path-4"></path>
        <filter x="-6.8%" y="-7.1%" width="109.5%" height="120.1%" filterUnits="objectBoundingBox" id="filter-5">
            <feOffset dx="0" dy="1" in="SourceAlpha" result="shadowOffsetOuter1"></feOffset>
            <feColorMatrix values="0 0 0 0 0   0 0 0 0 0   0 0 0 0 0  0 0 0 0.1 0" type="matrix" in="shadowOffsetOuter1"></feColorMatrix>
        </filter>
        <path d="M19.6590552,0.000437368424 L19.6590552,0.000437368424 C19.8648918,-0.00944695057 20.0397681,0.149403741 20.0496524,0.355240319 C20.0528197,0.421196544 20.0384272,0.486811945 20.0079444,0.545387149 L12.3752852,15.2121727 C12.1880289,15.5720012 11.7832056,15.7620967 11.3867295,15.6763754 L0.315822165,13.2827555 C0.0997135172,13.2360311 -0.0375995127,13.0229628 0.00912492818,12.8068541 C0.0160168603,12.7749777 0.0267780314,12.7440629 0.0411692073,12.714797 L19.6590552,0.000437368424 Z" id="path-6"></path>
        <filter x="-2.5%" y="-3.2%" width="105.0%" height="112.7%" filterUnits="objectBoundingBox" id="filter-7">
            <feOffset dx="0" dy="1" in="SourceAlpha" result="shadowOffsetOuter1"></feOffset>
            <feColorMatrix values="0 0 0 0 0   0 0 0 0 0   0 0 0 0 0  0 0 0 0.1 0" type="matrix" in="shadowOffsetOuter1"></feColorMatrix>
        </filter>
        <polygon id="path-8" points="1.2 12.2962942 7.36658148 1.68275704 18.1094699 1.2 11.235617 14.4075074"></polygon>
        <filter x="-3.0%" y="-3.8%" width="105.9%" height="115.1%" filterUnits="objectBoundingBox" id="filter-9">
            <feOffset dx="0" dy="1" in="SourceAlpha" result="shadowOffsetOuter1"></feOffset>
            <feColorMatrix values="0 0 0 0 0   0 0 0 0 0   0 0 0 0 0  0 0 0 0.1 0" type="matrix" in="shadowOffsetOuter1"></feColorMatrix>
        </filter>
    </defs>
    <g id="Badges" stroke="none" stroke-width="1" fill="none" fill-rule="evenodd">
        <g id="M365-SFA-Generalist-1" transform="translate(-50.000000, -660.000000)">
            <g id="M365-SFA-Generalist/introduction-to-microsoft-365-and-surface-for-business" transform="translate(50.000000, 660.000000)">
                <g id="Mask" transform="translate(2.000000, 2.000000)">
                    <mask id="mask-2" fill="white">
                        <use xlink:href="#path-1"></use>
                    </mask>
                    <use id="BG" fill="#55A2FF" xlink:href="#path-1"></use>
                    <g id="Cloud" filter="url(#filter-3)" mask="url(#mask-2)">
                        <g transform="translate(11.000000, 20.000000)">
                            <path d="M16.40625,14.1 C16.5246094,14.1 16.6394531,14.115275 16.7566406,14.117625 C18.3785156,6.064175 25.4742188,0 33.984375,0 C41.5921875,0 48.0515625,4.853925 50.4984375,11.63485 C51.8859375,10.96275 53.4351563,10.575 55.078125,10.575 C60.9035156,10.575 65.625,15.309075 65.625,21.15 C65.625,21.31685 65.6074219,21.477825 65.6003906,21.642325 C71.0214844,23.171 75,28.151825 75,34.075 C75,41.213125 69.2285156,47 62.109375,47 L16.40625,47 C7.3453125,47 0,39.6351 0,30.55 C0,21.4649 7.3453125,14.1 16.40625,14.1" id="Fill-11" fill="#FFFFFF"></path>
                            <path d="M65.6993058,21.6777766 C65.7057556,21.5140977 65.593714,21.0258023 65.593714,20.8597851 C65.593714,17.3570572 63.8463672,14.6569487 61.4265876,12.7442441 C62.5854158,14.4792402 63.8500403,16.8628215 63.8500403,19.1718628 C63.8500403,19.9925955 63.7757693,20.4647107 63.7359301,21.0688382 C64.5055903,21.2515659 64.9317702,21.4439496 65.6993058,21.6777766 Z" id="Fill-12" fill="#C4CBCD"></path>
                            <path d="M61.6656321,47 C69.596731,47 74.7425208,41.5115727 74.9916267,34.4183976 C75.1573057,29.7086053 72.878166,25.8731689 69.3072553,23.4470562 C71.085073,26.1153054 71.8860272,29.1376855 71.2750126,32.7103858 C70.4207671,37.7038576 66.6277761,41.8106825 61.7596344,43.0356083 C59.0394441,43.7204748 56.4355817,43.4961424 54.1290013,42.6462908 C55.4250574,40.874184 56.199401,38.6902077 56.199401,36.3175074 C56.199401,32.7614243 54.4721096,29.6195846 51.8271211,27.6777448 C53.4216344,29.8949555 54.2065532,32.7448071 53.6930659,35.7952522 C52.9551482,40.1845697 49.4547392,43.7216617 45.11066,44.4682493 C44.2082384,44.6225519 43.3234422,44.6605341 42.4680216,44.5952522 C39.1156662,44.3364985 36.3508249,41.8498516 35.4178525,38.5869436 C35.1992973,37.820178 35.0488937,37.0344214 35.0488937,36.3175074 C35.0488937,35.8866469 35.0794444,35.464095 35.1311457,35.0474777 C35.3379506,33.2836795 35.9665907,31.651632 36.9183635,30.2593472 C35.5670811,30.8077151 34.1394219,31.2041543 32.6483111,31.4011869 C32.6682866,31.062908 32.6988373,30.727003 32.6988373,30.3827893 C32.6988373,24.8848665 30.0444487,20.0255193 25.971801,17 C28.4358351,20.3875371 29.68254,24.7353116 28.9786981,29.4023739 C27.9129475,36.4718101 22.2763373,42.1655786 15.2778695,43.2421365 C10.6576587,43.9531157 6.35353043,42.6937685 3,40.2047478 C5.99514684,44.3186944 10.8057122,47 16.2484428,47 L45.6241473,47 L61.6656321,47 Z" id="Fill-13" fill="#E6E6E6"></path>
                            <path d="M48.7052423,26 C50.1555744,23.3921538 50.6737224,20.2401073 51,17.1396923 C51.611693,11.32715 48.6243121,6.76702277 44.5050525,3.53994585 C46.6336381,6.49574072 47.6087325,9.61928205 47.6087325,13.6012308 C47.6087325,18.2861538 45.8509255,22.5311282 43,25.6909744 C43.7551222,25.5046154 44.538505,25.3961026 45.3478875,25.3961026 C46.5257878,25.3961026 47.652819,25.6154872 48.7052423,26 Z" id="Fill-14" fill="#E6E6E6"></path>
                        </g>
                    </g>
                    <g id="Microsoft" mask="url(#mask-2)">
                        <g transform="translate(31.000000, 30.000000)">
                            <circle id="Oval" fill="#FFFFFF" fill-rule="nonzero" cx="18.5" cy="18.5" r="18.5"></circle>
                            <g id="microsoft" stroke-width="1" fill="none" fill-rule="evenodd" transform="translate(10.000000, 10.000000)">
                                <rect id="Rectangle-path" fill="#E86C60" fill-rule="nonzero" x="0" y="0" width="7" height="7"></rect>
                                <polygon id="Rectangle-path" fill="#72C472" fill-rule="nonzero" points="9 0 16 0 16 7 9 7"></polygon>
                                <polygon id="Rectangle-path" fill="#43A6DD" fill-rule="nonzero" points="0 9 7 9 7 16 0 16"></polygon>
                                <polygon id="Rectangle-path" fill="#EFD358" fill-rule="nonzero" points="9 9 16 9 16 16 9 16"></polygon>
                            </g>
                        </g>
                    </g>
                    <path d="M23.3248601,72 C15.317433,72 8.8248601,65.5074271 8.8248601,57.5 C8.8248601,49.4925729 15.317433,43 23.3248601,43 C31.3329597,43 37.8248601,49.4922453 37.8248601,57.5 C37.8248601,65.5077547 31.3329597,72 23.3248601,72 Z" id="Fill-10" stroke="#55A2FF" stroke-width="3" fill="#DF5142" mask="url(#mask-2)"></path>
                    <g id="Surface" mask="url(#mask-2)" fill-rule="nonzero">
                        <g transform="translate(12.150000, 49.550000)">
                            <g id="Path-24" fill="none">
                                <use fill="black" fill-opacity="1" filter="url(#filter-5)" xlink:href="#path-4"></use>
                                <use fill="#242323" xlink:href="#path-4"></use>
                            </g>
                            <path d="M15.9976668,8.4 L19.018257,13.3442481 C19.104635,13.4856358 19.0600408,13.6702765 18.9186531,13.7566545 C18.8524221,13.797117 18.7730871,13.8103368 18.6973143,13.7935369 L13.8,12.7077291 L15.9976668,8.4 Z" id="Path-23" fill="#151615"></path>
                            <g id="Path-22" fill="none">
                                <use fill="black" fill-opacity="1" filter="url(#filter-7)" xlink:href="#path-6"></use>
                                <use fill="#546670" xlink:href="#path-6"></use>
                            </g>
                            <path d="M-2.13162821e-14,12.7324576 L6.58047602,1.19326549 C6.78365088,0.836988258 7.15471315,0.609153134 7.56436349,0.589150913 L19.6303174,-6.75015599e-14 L11.9730736,14.6013621 C11.7857753,14.9585155 11.3837565,15.1474732 10.9892508,15.0637805 L-2.13162821e-14,12.7324576 Z" id="Path-21" fill="#30404D"></path>
                            <g id="Path-21" fill="none">
                                <use fill="black" fill-opacity="1" filter="url(#filter-9)" xlink:href="#path-8"></use>
                                <use fill="#E6E6E6" xlink:href="#path-8"></use>
                            </g>
                            <path d="M11.740952,3.56025458 L7.56061235,10.9505428 C7.11862203,11.7319233 6.22881841,12.1459347 5.34641691,11.9807726 L1.8,11.3169775 L7.39265741,1.70062522 L12.0316839,1.51977775 L18.1282871,1.2 L17.4182906,2.56461291 L13.9410666,2.66792565 L13.942571,2.69446494 L13.4415603,2.69161842 C12.758592,2.68773811 12.1277844,3.01893547 11.740952,3.56025458 Z" id="Combined-Shape" fill="#FFFFFF"></path>
                        </g>
                    </g>
                </g>
                <g id="Azure-Border" stroke="#0078D4" stroke-width="4">
                    <rect x="2" y="2" width="96" height="96" rx="48"></rect>
                </g>
            </g>
        </g>
    </g>
</svg>