<svg width="100" height="100" viewBox="0 0 100 100" fill="none" xmlns="http://www.w3.org/2000/svg">
<g clip-path="url(#clip0_940_1145)">
<path d="M49.6401 96.45C40.382 96.45 31.3317 93.7047 23.6339 88.5611C15.936 83.4176 9.93624 76.1068 6.3933 67.5534C2.85036 59 1.92337 49.5881 3.72954 40.5078C5.53571 31.4276 9.99394 23.0868 16.5404 16.5403C23.0869 9.99384 31.4277 5.53562 40.5079 3.72945C49.5882 1.92327 59.0001 2.85027 67.5535 6.39321C76.1069 9.93614 83.4176 15.9359 88.5612 23.6338C93.7047 31.3316 96.4501 40.3819 96.4501 49.64C96.4505 55.7873 95.24 61.8745 92.8878 67.5539C90.5355 73.2334 87.0875 78.3938 82.7407 82.7406C78.3939 87.0874 73.2335 90.5354 67.554 92.8877C61.8746 95.2399 55.7874 96.4504 49.6401 96.45V96.45Z" fill="url(#paint0_linear_940_1145)"/>
<path fill-rule="evenodd" clip-rule="evenodd" d="M95.54 49.64C95.54 58.7182 92.848 67.5925 87.8045 75.1407C82.7609 82.6889 75.5923 88.572 67.2052 92.0461C58.818 95.5201 49.5891 96.4291 40.6854 94.658C31.7816 92.887 23.603 88.5154 17.1838 82.0962C10.7646 75.677 6.39302 67.4984 4.62196 58.5946C2.85089 49.6909 3.75987 40.462 7.23393 32.0748C10.708 23.6877 16.5911 16.5191 24.1393 11.4755C31.6875 6.43199 40.5618 3.74 49.64 3.74C55.6677 3.73998 61.6363 4.9272 67.2052 7.23388C72.774 9.54057 77.834 12.9215 82.0963 17.1837C86.3585 21.446 89.7394 26.5059 92.0461 32.0748C94.3528 37.6437 95.54 43.6123 95.54 49.64V49.64ZM49.64 3.62732e-07C59.4579 3.62732e-07 69.0553 2.91134 77.2185 8.36585C85.3818 13.8204 91.7442 21.5731 95.5014 30.6436C99.2585 39.7141 100.242 49.6951 98.3262 59.3243C96.4108 68.9535 91.6831 77.7985 84.7408 84.7408C77.7985 91.6831 68.9535 96.4108 59.3243 98.3262C49.6951 100.242 39.7141 99.2585 30.6436 95.5014C21.5731 91.7442 13.8204 85.3818 8.36585 77.2185C2.91134 69.0553 3.62732e-07 59.4579 3.62732e-07 49.64C-0.000787738 43.121 1.28265 36.6656 3.77702 30.6427C6.27138 24.6197 9.9278 19.1471 14.5375 14.5375C19.1471 9.9278 24.6197 6.27138 30.6427 3.77702C36.6656 1.28265 43.121 -0.000787738 49.64 3.62732e-07V3.62732e-07Z" fill="#F2F1F0"/>
<path fill-rule="evenodd" clip-rule="evenodd" d="M92.7296 49.6401C92.7296 58.1625 90.2024 66.4935 85.4676 73.5796C80.7328 80.6657 74.0031 86.1887 66.1294 89.4501C58.2557 92.7114 49.5918 93.5648 41.2331 91.9021C32.8745 90.2395 25.1966 86.1356 19.1703 80.1093C13.1441 74.0831 9.04017 66.4052 7.37753 58.0465C5.7149 49.6879 6.56822 41.0239 9.8296 33.1503C13.091 25.2766 18.6139 18.5469 25.7 13.8121C32.7862 9.07727 41.1172 6.55009 49.6396 6.55009C55.2983 6.54974 60.9017 7.66407 66.1298 9.82942C71.3579 11.9948 76.1082 15.1687 80.1096 19.1701C84.1109 23.1714 87.2849 27.9218 89.4502 33.1499C91.6156 38.3779 92.7299 43.9813 92.7296 49.6401V49.6401ZM49.6396 2.81009C58.9017 2.81009 67.9558 5.55662 75.6569 10.7024C83.3581 15.8481 89.3604 23.162 92.9049 31.719C96.4493 40.2761 97.3767 49.692 95.5697 58.7762C93.7628 67.8603 89.3027 76.2046 82.7534 82.7539C76.2041 89.3032 67.8598 93.7633 58.7757 95.5703C49.6915 97.3772 40.2756 96.4498 31.7185 92.9054C23.1614 89.3609 15.8476 83.3586 10.7018 75.6574C5.5561 67.9563 2.80957 58.9022 2.80957 49.6401C2.81076 37.2204 7.745 25.3097 16.5271 16.5276C25.3091 7.7455 37.2198 2.81125 49.6396 2.81006V2.81009Z" fill="#0078D4"/>
<path fill-rule="evenodd" clip-rule="evenodd" d="M92.7637 49.6401C92.7637 58.1625 90.2366 66.4935 85.5018 73.5796C80.767 80.6657 74.0372 86.1887 66.1636 89.4501C58.2899 92.7114 49.6259 93.5648 41.2673 91.9021C32.9087 90.2395 25.2308 86.1356 19.2045 80.1093C13.1783 74.0831 9.07435 66.4052 7.41171 58.0465C5.74908 49.6879 6.6024 41.0239 9.86378 33.1503C13.1252 25.2766 18.6481 18.5469 25.7342 13.8121C32.8203 9.07727 41.1514 6.55009 49.6738 6.55009C55.3325 6.54974 60.9359 7.66407 66.164 9.82942C71.3921 11.9948 76.1424 15.1687 80.1437 19.1701C84.1451 23.1714 87.3191 27.9218 89.4844 33.1499C91.6498 38.3779 92.7641 43.9813 92.7637 49.6401V49.6401ZM49.6738 2.81009C58.9359 2.81009 67.9899 5.55662 75.6911 10.7024C83.3923 15.8481 89.3946 23.162 92.939 31.719C96.4835 40.2761 97.4109 49.692 95.6039 58.7762C93.797 67.8603 89.3369 76.2046 82.7876 82.7539C76.2383 89.3032 67.894 93.7633 58.8098 95.5703C49.7257 97.3772 40.3097 96.4498 31.7527 92.9054C23.1956 89.3609 15.8818 83.3586 10.736 75.6574C5.59028 67.9563 2.84375 58.9022 2.84375 49.6401C2.84494 37.2204 7.77918 25.3097 16.5612 16.5276C25.3433 7.7455 37.254 2.81125 49.6738 2.81006V2.81009Z" fill="#0078D4"/>
<path d="M73.9047 73.3856L53.5835 85.3543C51.0655 86.8373 47.9392 86.8294 45.4287 85.3336L25.3756 73.3856C24.9691 73.1471 24.6321 72.8064 24.3982 72.3973C24.1642 71.9882 24.0414 71.525 24.042 71.0537C24.0426 70.5825 24.1665 70.1196 24.4015 69.7111C24.6365 69.3026 24.9743 68.9627 25.3813 68.7252L48.2799 55.3677C48.6927 55.1269 49.1622 55 49.6401 55C50.1181 55 50.5875 55.1269 51.0004 55.3677L73.8989 68.7252C74.306 68.9627 74.6438 69.3026 74.8788 69.7111C75.1138 70.1196 75.2377 70.5825 75.2383 71.0537C75.2389 71.525 75.1161 71.9882 74.8821 72.3973C74.6482 72.8064 74.3112 73.1471 73.9047 73.3856Z" fill="#0078D4"/>
<path d="M73.9047 62.3856L53.5835 74.3543C51.0655 75.8373 47.9392 75.8294 45.4287 74.3336L25.3756 62.3856C24.9691 62.1471 24.6321 61.8064 24.3982 61.3973C24.1642 60.9882 24.0414 60.525 24.042 60.0537C24.0426 59.5825 24.1665 59.1196 24.4015 58.7111C24.6365 58.3026 24.9743 57.9627 25.3813 57.7252L48.2799 44.3677C48.6927 44.1269 49.1622 44 49.6401 44C50.1181 44 50.5875 44.1269 51.0004 44.3677L73.8989 57.7252C74.306 57.9627 74.6438 58.3026 74.8788 58.7111C75.1138 59.1196 75.2377 59.5825 75.2383 60.0537C75.2389 60.525 75.1161 60.9882 74.8821 61.3973C74.6482 61.8064 74.3112 62.1471 73.9047 62.3856Z" fill="#50E6FF"/>
<path d="M73.9047 53.6262L53.5835 65.5949C51.0655 67.078 47.9392 67.07 45.4287 65.5743L25.3756 53.6262C24.9691 53.3878 24.6321 53.047 24.3982 52.638C24.1642 52.2289 24.0414 51.7657 24.042 51.2944C24.0426 50.8231 24.1665 50.3602 24.4015 49.9517C24.6365 49.5432 24.9743 49.2034 25.3813 48.9659L48.2799 35.6084C48.6927 35.3676 49.1622 35.2407 49.6401 35.2407C50.1181 35.2407 50.5875 35.3676 51.0004 35.6084L73.8989 48.9659C74.306 49.2034 74.6438 49.5432 74.8788 49.9517C75.1138 50.3602 75.2377 50.8231 75.2383 51.2944C75.2389 51.7657 75.1161 52.2289 74.8821 52.638C74.6482 53.047 74.3112 53.3878 73.9047 53.6262Z" fill="#C3F1FF"/>
<path opacity="0.2" d="M49.6331 51.8693C57.4244 51.8693 65.4787 49.6529 67.7808 45.397L51.0003 35.6084C50.5874 35.3676 50.118 35.2407 49.6401 35.2407C49.1621 35.2407 48.6927 35.3676 48.2798 35.6084L31.4919 45.4012C33.7773 49.6149 41.8995 51.8693 49.6331 51.8693Z" fill="#0078D4"/>
<path d="M49.5434 46.1078C58.8172 46.1078 66.335 43.0205 66.335 39.2121C66.335 35.4036 58.8172 32.3163 49.5434 32.3163C40.2696 32.3163 32.7517 35.4036 32.7517 39.2121C32.7517 43.0205 40.2696 46.1078 49.5434 46.1078Z" fill="#76BC2D"/>
<path d="M49.9689 40.6673C53.0478 40.6673 55.5437 39.9857 55.5437 39.1449C55.5437 38.3041 53.0478 37.6224 49.9689 37.6224C46.89 37.6224 44.394 38.3041 44.394 39.1449C44.394 39.9857 46.89 40.6673 49.9689 40.6673Z" fill="#5E9624"/>
<path d="M49.5434 30.8162C58.8172 30.8162 66.335 27.7289 66.335 23.9204C66.335 20.112 58.8172 17.0247 49.5434 17.0247C40.2696 17.0247 32.7517 20.112 32.7517 23.9204C32.7517 27.7289 40.2696 30.8162 49.5434 30.8162Z" fill="url(#paint1_linear_940_1145)"/>
<path d="M49.9689 25.3533C53.0478 25.3533 55.5437 24.6717 55.5437 23.8309C55.5437 22.9901 53.0478 22.3084 49.9689 22.3084C46.89 22.3084 44.394 22.9901 44.394 23.8309C44.394 24.6717 46.89 25.3533 49.9689 25.3533Z" fill="#005BA1"/>
<path d="M49.633 45.9735C58.9244 45.9735 66.4247 42.8838 66.4247 39.0777V43.1525C66.1113 46.8467 58.7229 49.8692 49.633 49.8692C40.5431 49.8692 32.8414 46.7795 32.8414 42.9734V39.0777C32.7518 42.8838 40.2745 45.9735 49.633 45.9735Z" fill="#5E9624"/>
<path d="M49.633 30.6595C58.9244 30.6595 66.4247 27.5698 66.4247 23.7637V27.8385C66.1113 31.5327 58.7229 34.5552 49.633 34.5552C40.5431 34.5552 32.8414 31.4655 32.8414 27.6594V23.7637C32.7518 27.5698 40.2745 30.6595 49.633 30.6595Z" fill="#0078D4"/>
<path fill-rule="evenodd" clip-rule="evenodd" d="M49.5436 61.5761C48.1586 61.5761 46.8047 61.1654 45.6531 60.396C44.5014 59.6265 43.6039 58.5328 43.0738 57.2532C42.5438 55.9736 42.4051 54.5656 42.6753 53.2072C42.9455 51.8488 43.6125 50.601 44.5918 49.6216C45.5712 48.6423 46.819 47.9753 48.1774 47.7051C49.5358 47.4349 50.9438 47.5736 52.2234 48.1036C53.503 48.6337 54.5967 49.5312 55.3662 50.6829C56.1356 51.8345 56.5463 53.1884 56.5463 54.5734C56.5463 56.4306 55.8085 58.2118 54.4952 59.525C53.182 60.8383 51.4008 61.5761 49.5436 61.5761V61.5761Z" fill="#1F56A3"/>
<path fill-rule="evenodd" clip-rule="evenodd" d="M52.7605 52.6309C52.5962 52.4667 52.3735 52.3745 52.1412 52.3745C51.9089 52.3745 51.6861 52.4667 51.5218 52.6309L48.6345 55.5162L47.5916 54.4832C47.5672 54.447 47.5396 54.413 47.5092 54.3817C47.3463 54.217 47.1247 54.1236 46.8931 54.122C46.6614 54.1205 46.4386 54.2108 46.2734 54.3732C46.1083 54.5357 46.0143 54.757 46.012 54.9886C46.0097 55.2203 46.0994 55.4434 46.2613 55.609L46.2509 55.6195L48.0178 57.3703C48.1822 57.5344 48.405 57.6266 48.6373 57.6266C48.8696 57.6266 49.0925 57.5344 49.2569 57.3703L52.7579 53.8708L52.7605 53.8687C52.8418 53.7875 52.9063 53.691 52.9504 53.5848C52.9944 53.4786 53.017 53.3648 53.0171 53.2498C53.0171 53.1349 52.9944 53.021 52.9504 52.9149C52.9064 52.8087 52.8418 52.7122 52.7605 52.6309V52.6309Z" fill="#E8E8E8"/>
</g>
<defs>
<linearGradient id="paint0_linear_940_1145" x1="47.8697" y1="-15.1531" x2="51.8525" y2="130.615" gradientUnits="userSpaceOnUse">
<stop stop-color="#00ABDE"/>
<stop offset="1" stop-color="#007ED8"/>
</linearGradient>
<linearGradient id="paint1_linear_940_1145" x1="40.5496" y1="8.36933" x2="65.286" y2="25.2879" gradientUnits="userSpaceOnUse">
<stop stop-color="#0078D4"/>
<stop offset="0.02" stop-color="#0D7ED8"/>
<stop offset="0.08" stop-color="#2B8AE0"/>
<stop offset="0.15" stop-color="#4194E7"/>
<stop offset="0.22" stop-color="#519BEB"/>
<stop offset="0.29" stop-color="#5B9FEE"/>
<stop offset="0.4" stop-color="#5EA0EF"/>
<stop offset="0.55" stop-color="#5B9FEE"/>
<stop offset="0.68" stop-color="#509AEB"/>
<stop offset="0.8" stop-color="#3F92E6"/>
<stop offset="0.91" stop-color="#2688DF"/>
<stop offset="0.99" stop-color="#127FD9"/>
</linearGradient>
<clipPath id="clip0_940_1145">
<rect width="99.2799" height="99.28" fill="white"/>
</clipPath>
</defs>
</svg>
