<svg width="100" height="100" viewBox="0 0 100 100" fill="none" xmlns="https://www.w3.org/2000/svg">
<g clip-path="url(#clip0)">
<path d="M49.6401 96.4481C40.382 96.4481 31.3317 93.7028 23.6339 88.5592C15.936 83.4157 9.93624 76.105 6.3933 67.5516C2.85036 58.9981 1.92337 49.5862 3.72954 40.506C5.53571 31.4257 9.99394 23.085 16.5404 16.5385C23.0869 9.99198 31.4277 5.53376 40.5079 3.72759C49.5882 1.92141 59.0001 2.84841 67.5535 6.39135C76.1069 9.93428 83.4176 15.934 88.5612 23.6319C93.7047 31.3298 96.4501 40.38 96.4501 49.6381C96.4505 55.7854 95.24 61.8726 92.8878 67.5521C90.5355 73.2315 87.0875 78.392 82.7407 82.7388C78.3939 87.0856 73.2335 90.5335 67.554 92.8858C61.8746 95.2381 55.7874 96.4486 49.6401 96.4481V96.4481Z" fill="url(#paint0_linear)"/>
<path fill-rule="evenodd" clip-rule="evenodd" d="M95.54 49.64C95.54 58.7182 92.848 67.5925 87.8045 75.1407C82.7609 82.6889 75.5923 88.572 67.2052 92.0461C58.818 95.5201 49.5891 96.4291 40.6854 94.658C31.7816 92.887 23.603 88.5154 17.1838 82.0962C10.7646 75.677 6.39302 67.4984 4.62196 58.5946C2.85089 49.6909 3.75987 40.462 7.23393 32.0748C10.708 23.6877 16.5911 16.5191 24.1393 11.4755C31.6875 6.43199 40.5618 3.74 49.64 3.74C55.6677 3.73998 61.6363 4.9272 67.2052 7.23388C72.774 9.54057 77.834 12.9215 82.0963 17.1837C86.3585 21.446 89.7394 26.5059 92.0461 32.0748C94.3528 37.6437 95.54 43.6123 95.54 49.64V49.64ZM49.64 3.62732e-07C59.4579 3.62732e-07 69.0553 2.91134 77.2185 8.36585C85.3818 13.8204 91.7442 21.5731 95.5014 30.6436C99.2585 39.7141 100.242 49.6951 98.3262 59.3243C96.4108 68.9535 91.6831 77.7985 84.7408 84.7408C77.7985 91.6831 68.9535 96.4108 59.3243 98.3262C49.6951 100.242 39.7141 99.2585 30.6436 95.5014C21.5731 91.7442 13.8204 85.3818 8.36585 77.2185C2.91134 69.0553 3.62732e-07 59.4579 3.62732e-07 49.64C-0.000787738 43.121 1.28265 36.6656 3.77702 30.6427C6.27138 24.6197 9.9278 19.1471 14.5375 14.5375C19.1471 9.9278 24.6197 6.27138 30.6427 3.77702C36.6656 1.28265 43.121 -0.000787738 49.64 3.62732e-07V3.62732e-07Z" fill="#F2F1F0"/>
<path fill-rule="evenodd" clip-rule="evenodd" d="M92.7296 49.6386C92.7296 58.161 90.2024 66.492 85.4676 73.5781C80.7328 80.6643 74.0031 86.1872 66.1294 89.4486C58.2557 92.71 49.5918 93.5633 41.2331 91.9007C32.8745 90.238 25.1966 86.1341 19.1703 80.1079C13.1441 74.0816 9.04017 66.4037 7.37753 58.0451C5.7149 49.6864 6.56822 41.0225 9.8296 33.1488C13.091 25.2751 18.6139 18.5454 25.7 13.8106C32.7862 9.07581 41.1172 6.54862 49.6396 6.54862C55.2983 6.54828 60.9017 7.6626 66.1298 9.82795C71.3579 11.9933 76.1082 15.1673 80.1096 19.1686C84.1109 23.17 87.2849 27.9203 89.4502 33.1484C91.6156 38.3765 92.7299 43.9799 92.7296 49.6386V49.6386ZM49.6396 2.80862C58.9017 2.80862 67.9558 5.55515 75.6569 10.7009C83.3581 15.8466 89.3604 23.1605 92.9049 31.7176C96.4493 40.2746 97.3767 49.6906 95.5697 58.7747C93.7628 67.8588 89.3027 76.2031 82.7534 82.7524C76.2041 89.3017 67.8598 93.7619 58.7757 95.5688C49.6915 97.3757 40.2756 96.4484 31.7185 92.9039C23.1614 89.3594 15.8476 83.3571 10.7018 75.656C5.5561 67.9548 2.80957 58.9007 2.80957 49.6386C2.81076 37.2189 7.745 25.3082 16.5271 16.5261C25.3091 7.74403 37.2198 2.80979 49.6396 2.80859V2.80862Z" fill="#0078D4"/>
<path fill-rule="evenodd" clip-rule="evenodd" d="M92.7296 49.6386C92.7296 58.161 90.2024 66.492 85.4676 73.5781C80.7328 80.6642 74.0031 86.1872 66.1294 89.4486C58.2557 92.7099 49.5918 93.5633 41.2331 91.9006C32.8745 90.238 25.1966 86.1341 19.1703 80.1078C13.1441 74.0816 9.04017 66.4037 7.37753 58.045C5.7149 49.6864 6.56822 41.0224 9.8296 33.1488C13.091 25.2751 18.6139 18.5454 25.7001 13.8106C32.7862 9.07578 41.1172 6.54859 49.6396 6.54859C55.2983 6.54825 60.9017 7.66257 66.1298 9.82792C71.3579 11.9933 76.1082 15.1673 80.1096 19.1686C84.1109 23.1699 87.2849 27.9203 89.4502 33.1484C91.6156 38.3764 92.7299 43.9798 92.7296 49.6386V49.6386ZM49.6396 2.80859C58.9017 2.80859 67.9558 5.55513 75.6569 10.7009C83.3581 15.8466 89.3604 23.1605 92.9048 31.7175C96.4493 40.2746 97.3767 49.6905 95.5697 58.7747C93.7628 67.8588 89.3027 76.2031 82.7534 82.7524C76.2041 89.3017 67.8598 93.7618 58.7757 95.5688C49.6915 97.3757 40.2756 96.4483 31.7185 92.9039C23.1614 89.3594 15.8476 83.3571 10.7018 75.656C5.5561 67.9548 2.80957 58.9007 2.80957 49.6386C2.81076 37.2189 7.74501 25.3082 16.5271 16.5261C25.3091 7.74403 37.2198 2.80979 49.6396 2.80859V2.80859Z" fill="#0078D4"/>
<path d="M70.5181 45.4453C70.4524 45.4454 70.3874 45.4324 70.3267 45.4073C70.266 45.3822 70.2109 45.3454 70.1644 45.299C70.118 45.2525 70.0812 45.1974 70.0561 45.1367C70.0309 45.076 70.018 45.011 70.0181 44.9453V41.9453C70.0181 41.8127 70.0707 41.6855 70.1645 41.5918C70.2583 41.498 70.3855 41.4453 70.5181 41.4453C70.6507 41.4453 70.7779 41.498 70.8716 41.5918C70.9654 41.6855 71.0181 41.8127 71.0181 41.9453V44.9453C71.0181 45.011 71.0052 45.076 70.9801 45.1367C70.955 45.1974 70.9181 45.2525 70.8717 45.299C70.8253 45.3454 70.7701 45.3822 70.7095 45.4073C70.6488 45.4324 70.5837 45.4454 70.5181 45.4453V45.4453Z" fill="white"/>
<path d="M59.9048 80.4321H53.7681C53.6355 80.4321 53.5083 80.3794 53.4145 80.2857C53.3207 80.1919 53.2681 80.0647 53.2681 79.9321C53.2681 79.7995 53.3207 79.6723 53.4145 79.5786C53.5083 79.4848 53.6355 79.4321 53.7681 79.4321H59.9048C60.0374 79.4321 60.1646 79.4848 60.2583 79.5786C60.3521 79.6723 60.4048 79.7995 60.4048 79.9321C60.4048 80.0647 60.3521 80.1919 60.2583 80.2857C60.1646 80.3794 60.0374 80.4321 59.9048 80.4321H59.9048ZM47.6314 80.4321H41.4947C41.3621 80.4321 41.2349 80.3794 41.1411 80.2857C41.0473 80.1919 40.9947 80.0647 40.9947 79.9321C40.9947 79.7995 41.0473 79.6723 41.1411 79.5786C41.2349 79.4848 41.3621 79.4321 41.4947 79.4321H47.6314C47.764 79.4321 47.8912 79.4848 47.9849 79.5786C48.0787 79.6723 48.1314 79.7995 48.1314 79.9321C48.1314 80.0647 48.0787 80.1919 47.9849 80.2857C47.8912 80.3794 47.764 80.4321 47.6314 80.4321ZM35.3579 80.4321H34.3687C33.4382 80.4308 32.5183 80.2348 31.6682 79.8568C30.818 79.4787 30.0563 78.9269 29.4322 78.2368C29.3436 78.1383 29.2978 78.0087 29.3046 77.8765C29.3115 77.7442 29.3705 77.6201 29.4687 77.5313C29.567 77.4425 29.6964 77.3963 29.8287 77.4027C29.961 77.4092 30.0853 77.4679 30.1744 77.5659C30.7045 78.1525 31.3516 78.6215 32.074 78.9429C32.7964 79.2643 33.578 79.431 34.3687 79.4321H35.3579C35.4906 79.4321 35.6177 79.4848 35.7115 79.5786C35.8053 79.6723 35.8579 79.7995 35.8579 79.9321C35.8579 80.0647 35.8053 80.1919 35.7115 80.2857C35.6177 80.3794 35.4906 80.4321 35.3579 80.4321V80.4321ZM66.0191 80.2051C65.8983 80.205 65.7816 80.1613 65.6906 80.0819C65.5995 80.0024 65.5403 79.8928 65.5239 79.7731C65.5075 79.6534 65.5349 79.5319 65.6012 79.4309C65.6674 79.3299 65.768 79.2562 65.8843 79.2236C66.7917 78.9641 67.6208 78.484 68.2977 77.8262C68.9745 77.1684 69.478 76.3533 69.7632 75.4536C69.8027 75.327 69.8909 75.2212 70.0084 75.1596C70.1259 75.098 70.263 75.0855 70.3897 75.125C70.5163 75.1645 70.6221 75.2527 70.6837 75.3702C70.7453 75.4877 70.7578 75.6248 70.7183 75.7515C70.3826 76.81 69.7901 77.769 68.9936 78.5429C68.1972 79.3167 67.2216 79.8814 66.1538 80.1866C66.11 80.1989 66.0646 80.2051 66.0191 80.2051V80.2051ZM28.2115 72.6636C28.1458 72.6636 28.0808 72.6507 28.0201 72.6256C27.9594 72.6005 27.9043 72.5637 27.8578 72.5172C27.8114 72.4708 27.7746 72.4156 27.7494 72.355C27.7243 72.2943 27.7114 72.2292 27.7115 72.1636V66.0269C27.7115 65.8943 27.7641 65.7671 27.8579 65.6733C27.9517 65.5795 28.0789 65.5269 28.2115 65.5269C28.3441 65.5269 28.4712 65.5795 28.565 65.6733C28.6588 65.7671 28.7115 65.8943 28.7115 66.0269V72.1636C28.7115 72.2292 28.6986 72.2943 28.6735 72.355C28.6484 72.4156 28.6115 72.4708 28.5651 72.5172C28.5187 72.5637 28.4635 72.6005 28.4029 72.6256C28.3422 72.6507 28.2771 72.6636 28.2115 72.6636V72.6636ZM70.5181 69.9942C70.4524 69.9942 70.3874 69.9813 70.3267 69.9562C70.266 69.9311 70.2109 69.8942 70.1644 69.8478C70.118 69.8013 70.0812 69.7462 70.056 69.6855C70.0309 69.6249 70.018 69.5598 70.0181 69.4942V63.3575C70.0181 63.2249 70.0707 63.0977 70.1645 63.0039C70.2583 62.9101 70.3855 62.8575 70.5181 62.8575C70.6507 62.8575 70.7778 62.9101 70.8716 63.0039C70.9654 63.0977 71.0181 63.2249 71.0181 63.3575V69.4942C71.0181 69.5599 71.0052 69.6249 70.9801 69.6856C70.955 69.7462 70.9181 69.8014 70.8717 69.8478C70.8252 69.8942 70.7701 69.9311 70.7094 69.9562C70.6488 69.9813 70.5837 69.9942 70.5181 69.9942V69.9942ZM28.2114 60.3901C28.1458 60.3902 28.0807 60.3773 28.02 60.3522C27.9594 60.3271 27.9042 60.2902 27.8578 60.2438C27.8113 60.1973 27.7745 60.1422 27.7494 60.0815C27.7243 60.0209 27.7114 59.9558 27.7114 59.8901V53.7535C27.7114 53.6209 27.7641 53.4937 27.8579 53.3999C27.9516 53.3061 28.0788 53.2535 28.2114 53.2535C28.344 53.2535 28.4712 53.3061 28.565 53.3999C28.6587 53.4937 28.7114 53.6209 28.7114 53.7535V59.8902C28.7115 59.9559 28.6985 60.0209 28.6734 60.0816C28.6483 60.1422 28.6115 60.1974 28.5651 60.2438C28.5186 60.2902 28.4635 60.327 28.4028 60.3521C28.3422 60.3773 28.2771 60.3902 28.2115 60.3901L28.2114 60.3901ZM70.5181 57.7207C70.4524 57.7207 70.3874 57.7078 70.3267 57.6827C70.266 57.6576 70.2109 57.6208 70.1644 57.5743C70.118 57.5279 70.0812 57.4728 70.056 57.4121C70.0309 57.3514 70.018 57.2864 70.0181 57.2207V51.084C70.0181 50.9514 70.0707 50.8242 70.1645 50.7304C70.2583 50.6367 70.3855 50.584 70.5181 50.584C70.6507 50.584 70.7778 50.6367 70.8716 50.7304C70.9654 50.8242 71.0181 50.9514 71.0181 51.084V57.2207C71.0181 57.2864 71.0052 57.3514 70.9801 57.4121C70.955 57.4728 70.9181 57.5279 70.8717 57.5743C70.8253 57.6208 70.7701 57.6576 70.7095 57.6827C70.6488 57.7078 70.5837 57.7207 70.5181 57.7207V57.7207ZM28.2114 48.1167C28.1458 48.1167 28.0807 48.1038 28.02 48.0787C27.9594 48.0536 27.9042 48.0168 27.8578 47.9703C27.8114 47.9239 27.7745 47.8688 27.7494 47.8081C27.7243 47.7474 27.7114 47.6824 27.7114 47.6167V41.48C27.7114 41.3474 27.7641 41.2202 27.8579 41.1264C27.9516 41.0327 28.0788 40.98 28.2114 40.98C28.344 40.98 28.4712 41.0327 28.565 41.1264C28.6587 41.2202 28.7114 41.3474 28.7114 41.48V47.6167C28.7115 47.6824 28.6986 47.7474 28.6734 47.8081C28.6483 47.8688 28.6115 47.9239 28.5651 47.9703C28.5186 48.0168 28.4635 48.0536 28.4028 48.0787C28.3422 48.1038 28.2771 48.1167 28.2115 48.1167H28.2114ZM28.2114 35.8433C28.1458 35.8433 28.0807 35.8304 28.02 35.8053C27.9594 35.7802 27.9042 35.7433 27.8578 35.6969C27.8114 35.6505 27.7745 35.5953 27.7494 35.5347C27.7243 35.474 27.7114 35.4089 27.7114 35.3433V29.5752C27.7114 29.4424 27.7153 29.3102 27.7231 29.1787C27.7255 29.1127 27.7412 29.0478 27.7692 28.988C27.7972 28.9282 27.8371 28.8747 27.8864 28.8307C27.9356 28.7867 27.9933 28.7531 28.0558 28.7319C28.1184 28.7107 28.1846 28.7025 28.2505 28.7075C28.316 28.7112 28.3801 28.7277 28.4393 28.7562C28.4984 28.7846 28.5513 28.8245 28.595 28.8734C28.6387 28.9223 28.6724 28.9794 28.694 29.0413C28.7157 29.1033 28.7249 29.1689 28.7212 29.2344C28.7153 29.3472 28.7114 29.4609 28.7114 29.5752V35.3433C28.7115 35.4089 28.6986 35.474 28.6734 35.5346C28.6483 35.5953 28.6115 35.6505 28.5651 35.6969C28.5186 35.7433 28.4635 35.7802 28.4028 35.8053C28.3422 35.8304 28.2771 35.8433 28.2115 35.8433H28.2114ZM31.3403 24.7158C31.23 24.7158 31.1227 24.6792 31.0353 24.6118C30.9478 24.5445 30.8851 24.4501 30.857 24.3434C30.8288 24.2367 30.8366 24.1236 30.8794 24.0219C30.9221 23.9201 30.9973 23.8353 31.0933 23.7808C32.0923 23.2152 33.2207 22.9179 34.3687 22.918H37.3374C37.47 22.918 37.5972 22.9706 37.691 23.0644C37.7847 23.1582 37.8374 23.2854 37.8374 23.418C37.8374 23.5506 37.7847 23.6778 37.691 23.7715C37.5972 23.8653 37.47 23.918 37.3374 23.918H34.3687C33.3938 23.9177 32.4356 24.1703 31.5874 24.6509C31.5121 24.6934 31.427 24.7158 31.3404 24.7158H31.3403Z" fill="white"/>
<path d="M46.5278 23.918H43.5278C43.3952 23.918 43.268 23.8653 43.1743 23.7715C43.0805 23.6778 43.0278 23.5506 43.0278 23.418C43.0278 23.2854 43.0805 23.1582 43.1743 23.0644C43.268 22.9706 43.3952 22.918 43.5278 22.918H46.5278C46.6604 22.918 46.7876 22.9706 46.8814 23.0644C46.9752 23.1582 47.0278 23.2854 47.0278 23.418C47.0278 23.5506 46.9752 23.6778 46.8814 23.7715C46.7876 23.8653 46.6604 23.918 46.5278 23.918Z" fill="white"/>
<path fill-rule="evenodd" clip-rule="evenodd" d="M34.3688 26.418C33.5322 26.4204 32.7306 26.7538 32.1391 27.3454C31.5475 27.9369 31.2141 28.7385 31.2117 29.5751V73.7749C31.2141 74.6115 31.5475 75.4131 32.1391 76.0046C32.7306 76.5962 33.5322 76.9296 34.3688 76.932H64.3615C65.1981 76.9297 65.9998 76.5964 66.5914 76.0048C67.1829 75.4132 67.5163 74.6115 67.5186 73.7749V39.0465L54.8901 26.418H34.3688Z" fill="white"/>
<path fill-rule="evenodd" clip-rule="evenodd" d="M58.0473 39.0465H67.5186L54.8901 26.418V35.8894C54.8926 36.7259 55.226 37.5275 55.8175 38.1191C56.4091 38.7106 57.2107 39.044 58.0473 39.0465Z" fill="#E8E8E8"/>
<path fill-rule="evenodd" clip-rule="evenodd" d="M59.6257 48.5165H39.1044C38.6864 48.5155 38.2859 48.3487 37.9907 48.0528C37.6956 47.7568 37.5298 47.3559 37.5298 46.9379C37.5298 46.52 37.6956 46.1191 37.9907 45.8231C38.2859 45.5272 38.6864 45.3604 39.1044 45.3594H59.6257C59.8333 45.3589 60.039 45.3993 60.231 45.4784C60.423 45.5575 60.5975 45.6737 60.7445 45.8203C60.8915 45.967 61.0081 46.1412 61.0877 46.3329C61.1673 46.5247 61.2083 46.7303 61.2083 46.9379C61.2083 47.1456 61.1673 47.3512 61.0877 47.543C61.0081 47.7347 60.8915 47.9089 60.7445 48.0556C60.5975 48.2022 60.423 48.3184 60.231 48.3975C60.039 48.4766 59.8333 48.517 59.6257 48.5165V48.5165Z" fill="#0078D4"/>
<path fill-rule="evenodd" clip-rule="evenodd" d="M59.6258 55.6181H39.1044C38.6858 55.6181 38.2843 55.4517 37.9882 55.1557C37.6922 54.8597 37.5259 54.4582 37.5259 54.0395C37.5259 53.6208 37.6922 53.2193 37.9882 52.9233C38.2843 52.6272 38.6858 52.4609 39.1044 52.4609H59.6258C60.0444 52.4609 60.4459 52.6272 60.742 52.9233C61.038 53.2193 61.2043 53.6208 61.2043 54.0395C61.2043 54.4582 61.038 54.8597 60.742 55.1557C60.4459 55.4517 60.0444 55.6181 59.6258 55.6181Z" fill="#50E6FF"/>
<path fill-rule="evenodd" clip-rule="evenodd" d="M59.6257 62.7235H39.1044C38.6864 62.7225 38.2859 62.5557 37.9907 62.2598C37.6956 61.9639 37.5298 61.5629 37.5298 61.145C37.5298 60.727 37.6956 60.3261 37.9907 60.0302C38.2859 59.7342 38.6864 59.5675 39.1044 59.5664H59.6257C59.8333 59.5659 60.039 59.6063 60.231 59.6854C60.423 59.7645 60.5975 59.8807 60.7445 60.0274C60.8915 60.174 61.0081 60.3482 61.0877 60.54C61.1673 60.7317 61.2083 60.9373 61.2083 61.145C61.2083 61.3526 61.1673 61.5582 61.0877 61.75C61.0081 61.9418 60.8915 62.116 60.7445 62.2626C60.5975 62.4092 60.423 62.5254 60.231 62.6045C60.039 62.6836 59.8333 62.7241 59.6257 62.7235V62.7235Z" fill="#9CEBFF"/>
<path fill-rule="evenodd" clip-rule="evenodd" d="M59.6257 69.8251H39.1044C38.6864 69.8241 38.2859 69.6573 37.9907 69.3614C37.6956 69.0654 37.5298 68.6645 37.5298 68.2465C37.5298 67.8286 37.6956 67.4277 37.9907 67.1317C38.2859 66.8358 38.6864 66.669 39.1044 66.668H59.6257C59.8333 66.6675 60.039 66.7079 60.231 66.787C60.423 66.8661 60.5975 66.9823 60.7445 67.1289C60.8915 67.2756 61.0081 67.4498 61.0877 67.6415C61.1673 67.8333 61.2083 68.0389 61.2083 68.2465C61.2083 68.4542 61.1673 68.6598 61.0877 68.8516C61.0081 69.0433 60.8915 69.2175 60.7445 69.3642C60.5975 69.5108 60.423 69.627 60.231 69.7061C60.039 69.7852 59.8333 69.8256 59.6257 69.8251V69.8251Z" fill="#C3F1FF"/>
<path d="M42.2014 31.75C43.1941 31.75 44.1646 32.0444 44.99 32.5959C45.8154 33.1475 46.4588 33.9314 46.8387 34.8486C47.2186 35.7658 47.318 36.775 47.1243 37.7487C46.9307 38.7224 46.4526 39.6168 45.7506 40.3187C45.0486 41.0207 44.1543 41.4988 43.1806 41.6925C42.2069 41.8861 41.1977 41.7867 40.2805 41.4068C39.3633 41.0269 38.5794 40.3836 38.0278 39.5581C37.4763 38.7327 37.1819 37.7622 37.1819 36.7695C37.1819 36.1103 37.3117 35.4576 37.564 34.8486C37.8162 34.2396 38.1859 33.6863 38.652 33.2202C39.1181 32.7541 39.6715 32.3843 40.2805 32.1321C40.8895 31.8798 41.5422 31.75 42.2014 31.75V31.75ZM43.6763 39.0277H40.7264C41.0536 40.2393 41.6225 41.0361 42.2014 41.0361C42.7803 41.0361 43.349 40.2393 43.6763 39.0277V39.0277ZM39.9471 39.028L38.5808 39.0279C39.0654 39.8032 39.7854 40.4031 40.6355 40.7396C40.3488 40.2698 40.134 39.7597 39.998 39.2263L39.9471 39.028ZM45.8219 39.0279L44.4556 39.028C44.3201 39.6321 44.0874 40.2102 43.7666 40.7396C44.563 40.4246 45.2466 39.8779 45.7289 39.1703L45.8219 39.0279ZM39.7389 35.7654H38.0538L38.0514 35.774C37.8536 36.6048 37.9081 37.4756 38.208 38.2752L39.8005 38.275C39.7269 37.7766 39.6904 37.2733 39.6912 36.7695C39.6912 36.4262 39.7075 36.0903 39.7389 35.7654V35.7654ZM43.9062 35.7654H40.4965C40.4614 36.0989 40.4438 36.434 40.444 36.7694C40.4432 37.2737 40.4834 37.7773 40.5643 38.275H43.8383C43.9193 37.7773 43.9595 37.2737 43.9586 36.7694C43.9588 36.434 43.9413 36.0989 43.9062 35.7654V35.7654ZM46.3491 35.7649L44.6638 35.7654C44.6952 36.0903 44.7114 36.4262 44.7114 36.7694C44.7123 37.2733 44.6758 37.7765 44.6022 38.275L46.1947 38.2752C46.4957 37.4726 46.5494 36.5983 46.3491 35.7649ZM40.636 32.7993L40.6245 32.8037C39.5972 33.2137 38.7685 34.0054 38.3119 35.0128L39.8417 35.013C39.9628 34.2312 40.2325 33.4798 40.636 32.7993V32.7993ZM42.2013 32.5028L42.1433 32.5055C41.5082 32.5636 40.8947 33.5683 40.6097 35.0128H43.7929C43.5087 33.5724 42.8979 32.5692 42.2647 32.506L42.2013 32.5028ZM43.7672 32.7993L43.8208 32.8867C44.1923 33.5457 44.4429 34.2658 44.561 35.013L46.0907 35.0128C45.655 34.0515 44.8796 33.2849 43.9133 32.8602L43.7672 32.7993Z" fill="#0078D4"/>
<g opacity="0.2">
<path opacity="0.2" d="M54.8899 26.418H49.2849V27.5109C49.2849 35.1398 52.8191 40.3185 60.7664 44.3131C61.1509 44.4998 61.5725 44.5972 61.9998 44.5983C62.4359 44.5986 62.8659 44.4959 63.2547 44.2985C64.7445 43.5593 66.1706 42.6984 67.5186 41.7245V39.0465L54.8899 26.418Z" fill="#767676"/>
</g>
<path fill-rule="evenodd" clip-rule="evenodd" d="M61.9993 17.9961C59.9189 20.3788 56.2563 21.1698 52.0793 21.1698V27.5173C52.0793 34.0642 54.9798 38.2766 61.9993 41.8041C69.0189 38.2766 71.9193 34.0642 71.9193 27.5173V21.1698C67.7423 21.1698 64.0798 20.3788 61.9993 17.9961Z" fill="#C3F1FF"/>
<path fill-rule="evenodd" clip-rule="evenodd" d="M61.9995 17.9961V41.8041C69.0191 38.2766 71.9195 34.0642 71.9195 27.5174V21.1698C67.7425 21.1698 64.08 20.3788 61.9995 17.9961Z" fill="#9CEBFF"/>
<path fill-rule="evenodd" clip-rule="evenodd" d="M52.8736 21.9437V27.513C52.8736 33.6611 55.5233 37.568 61.9994 40.9154C68.4755 37.5648 71.1251 33.6611 71.1251 27.5098V21.9437C66.9546 21.8408 63.9512 20.9115 61.9994 19.1172C60.0443 20.9115 57.0442 21.8408 52.8736 21.9437ZM61.9994 42.5972C61.8756 42.5966 61.7536 42.5681 61.6425 42.5136C54.3817 38.8639 51.2852 34.375 51.2852 27.5098V21.1591C51.2851 21.0547 51.3056 20.9514 51.3455 20.8551C51.3854 20.7587 51.4439 20.6711 51.5177 20.5973C51.5914 20.5236 51.679 20.4651 51.7754 20.4252C51.8718 20.3853 51.9751 20.3648 52.0794 20.3648C56.6487 20.3648 59.6971 19.4162 61.4013 17.4612C61.4782 17.3797 61.5708 17.3148 61.6737 17.2704C61.7765 17.226 61.8874 17.2031 61.9994 17.2031C62.1114 17.2031 62.2222 17.226 62.3251 17.2704C62.4279 17.3148 62.5206 17.3797 62.5975 17.4612C64.3017 19.4162 67.3501 20.3648 71.9194 20.3648C72.1299 20.3653 72.3317 20.4491 72.4805 20.5979C72.6294 20.7468 72.7132 20.9485 72.7136 21.1591V27.5098C72.7136 34.375 69.617 38.8607 62.3563 42.5104C62.246 42.5673 62.1236 42.5971 61.9994 42.5972V42.5972Z" fill="#1F56A3"/>
</g>
<defs>
<linearGradient id="paint0_linear" x1="47.8698" y1="-15.155" x2="51.8525" y2="130.613" gradientUnits="userSpaceOnUse">
<stop stop-color="#00ABDE"/>
<stop offset="1" stop-color="#007ED8"/>
</linearGradient>
<clipPath id="clip0">
<rect width="99.2799" height="99.28" fill="white"/>
</clipPath>
</defs>
</svg>
