<svg width="100" height="100" viewBox="0 0 100 100" fill="none" xmlns="https://www.w3.org/2000/svg">
<g clip-path="url(#clip0)">
<path d="M49.6401 96.4481C40.382 96.4481 31.3317 93.7028 23.6339 88.5592C15.936 83.4157 9.93624 76.105 6.3933 67.5516C2.85036 58.9981 1.92337 49.5862 3.72954 40.506C5.53571 31.4257 9.99394 23.085 16.5404 16.5385C23.0869 9.99198 31.4277 5.53376 40.5079 3.72759C49.5882 1.92141 59.0001 2.84841 67.5535 6.39135C76.1069 9.93428 83.4176 15.934 88.5612 23.6319C93.7047 31.3298 96.4501 40.38 96.4501 49.6381C96.4505 55.7854 95.24 61.8726 92.8878 67.5521C90.5355 73.2315 87.0875 78.392 82.7407 82.7388C78.3939 87.0856 73.2335 90.5335 67.554 92.8858C61.8746 95.2381 55.7874 96.4486 49.6401 96.4481V96.4481Z" fill="url(#paint0_linear)"/>
<path fill-rule="evenodd" clip-rule="evenodd" d="M95.54 49.64C95.54 58.7182 92.848 67.5925 87.8045 75.1407C82.7609 82.6889 75.5923 88.572 67.2052 92.0461C58.818 95.5201 49.5891 96.4291 40.6854 94.658C31.7816 92.887 23.603 88.5154 17.1838 82.0962C10.7646 75.677 6.39302 67.4984 4.62196 58.5946C2.85089 49.6909 3.75987 40.462 7.23393 32.0748C10.708 23.6877 16.5911 16.5191 24.1393 11.4755C31.6875 6.43199 40.5618 3.74 49.64 3.74C55.6677 3.73998 61.6363 4.9272 67.2052 7.23388C72.774 9.54057 77.834 12.9215 82.0963 17.1837C86.3585 21.446 89.7394 26.5059 92.0461 32.0748C94.3528 37.6437 95.54 43.6123 95.54 49.64V49.64ZM49.64 3.62732e-07C59.4579 3.62732e-07 69.0553 2.91134 77.2185 8.36585C85.3818 13.8204 91.7442 21.5731 95.5014 30.6436C99.2585 39.7141 100.242 49.6951 98.3262 59.3243C96.4108 68.9535 91.6831 77.7985 84.7408 84.7408C77.7985 91.6831 68.9535 96.4108 59.3243 98.3262C49.6951 100.242 39.7141 99.2585 30.6436 95.5014C21.5731 91.7442 13.8204 85.3818 8.36585 77.2185C2.91134 69.0553 3.62732e-07 59.4579 3.62732e-07 49.64C-0.000787738 43.121 1.28265 36.6656 3.77702 30.6427C6.27138 24.6197 9.9278 19.1471 14.5375 14.5375C19.1471 9.9278 24.6197 6.27138 30.6427 3.77702C36.6656 1.28265 43.121 -0.000787738 49.64 3.62732e-07V3.62732e-07Z" fill="#F2F1F0"/>
<path fill-rule="evenodd" clip-rule="evenodd" d="M92.7296 49.6386C92.7296 58.161 90.2024 66.492 85.4676 73.5781C80.7328 80.6643 74.0031 86.1872 66.1294 89.4486C58.2557 92.71 49.5918 93.5633 41.2331 91.9007C32.8745 90.238 25.1966 86.1341 19.1703 80.1079C13.1441 74.0816 9.04017 66.4037 7.37753 58.0451C5.7149 49.6864 6.56822 41.0225 9.8296 33.1488C13.091 25.2751 18.6139 18.5454 25.7 13.8106C32.7862 9.07581 41.1172 6.54862 49.6396 6.54862C55.2983 6.54828 60.9017 7.6626 66.1298 9.82795C71.3579 11.9933 76.1082 15.1673 80.1096 19.1686C84.1109 23.17 87.2849 27.9203 89.4502 33.1484C91.6156 38.3765 92.7299 43.9799 92.7296 49.6386V49.6386ZM49.6396 2.80862C58.9017 2.80862 67.9558 5.55515 75.6569 10.7009C83.3581 15.8466 89.3604 23.1605 92.9049 31.7176C96.4493 40.2746 97.3767 49.6906 95.5697 58.7747C93.7628 67.8588 89.3027 76.2031 82.7534 82.7524C76.2041 89.3017 67.8598 93.7619 58.7757 95.5688C49.6915 97.3757 40.2756 96.4484 31.7185 92.9039C23.1614 89.3594 15.8476 83.3571 10.7018 75.656C5.5561 67.9548 2.80957 58.9007 2.80957 49.6386C2.81076 37.2189 7.745 25.3082 16.5271 16.5261C25.3091 7.74403 37.2198 2.80979 49.6396 2.80859V2.80862Z" fill="#0078D4"/>
<path d="M67.473 36.7812H63.833V64.5542H67.473" stroke="white" stroke-width="1.09261" stroke-miterlimit="10"/>
<path fill-rule="evenodd" clip-rule="evenodd" d="M27.7217 26.1016C26.5627 26.1016 25.4512 26.562 24.6317 27.3815C23.8121 28.201 23.3517 29.3126 23.3517 30.4716V68.1665C23.3517 68.6425 23.2579 69.1138 23.0758 69.5536C22.8936 69.9934 22.6266 70.393 22.29 70.7296C21.9534 71.0662 21.5538 71.3332 21.114 71.5154C20.6742 71.6975 20.2028 71.7913 19.7268 71.7912H52.2635C52.8374 71.7912 53.4057 71.6782 53.9359 71.4586C54.466 71.239 54.9478 70.9171 55.3536 70.5113C55.7594 70.1055 56.0813 69.6238 56.3009 69.0936C56.5205 68.5634 56.6335 67.9951 56.6335 67.4212V29.7263C56.6335 28.765 57.0154 27.843 57.6952 27.1632C58.375 26.4835 59.297 26.1016 60.2583 26.1016H27.7217Z" fill="white"/>
<path fill-rule="evenodd" clip-rule="evenodd" d="M49.4902 69.0435C49.4371 68.7989 49.303 68.5793 49.1096 68.4204C48.9162 68.2615 48.6748 68.1726 48.4245 68.168H17.4494C17.2628 68.1687 17.0795 68.217 16.9166 68.3081C16.7538 68.3992 16.6168 68.5302 16.5185 68.6888C16.4202 68.8474 16.3639 69.0284 16.3548 69.2148C16.3457 69.4012 16.3842 69.5868 16.4666 69.7542C16.7641 70.3655 17.2276 70.8809 17.8041 71.2413C18.3806 71.6018 19.0468 71.7929 19.7267 71.7927H53.0085C52.1994 71.7927 51.4136 71.522 50.7761 71.0238C50.1385 70.5257 49.6859 69.8286 49.4902 69.0435V69.0435Z" fill="#E8E8E8"/>
<path fill-rule="evenodd" clip-rule="evenodd" d="M63.2814 29.7263C63.3627 29.7257 63.4429 29.7073 63.5163 29.6723C63.5897 29.6373 63.6545 29.5867 63.7062 29.5239C63.7579 29.4612 63.7952 29.3879 63.8154 29.3091C63.8357 29.2304 63.8385 29.1482 63.8235 29.0683C63.6593 28.1791 63.1687 27.3834 62.4481 26.8374C61.7274 26.2913 60.8287 26.0342 59.9283 26.1167C59.0279 26.1991 58.1907 26.615 57.5812 27.2828C56.9716 27.9507 56.6336 28.8222 56.6335 29.7263H63.2814Z" fill="#E8E8E8"/>
<path fill-rule="evenodd" clip-rule="evenodd" d="M31.909 62.2511C31.1695 62.2511 30.4467 62.0318 29.8318 61.621C29.217 61.2102 28.7378 60.6262 28.4548 59.9431C28.1718 59.2599 28.0977 58.5081 28.242 57.7829C28.3863 57.0576 28.7424 56.3914 29.2652 55.8685C29.7881 55.3456 30.4543 54.9895 31.1796 54.8453C31.9048 54.701 32.6566 54.7751 33.3398 55.058C34.023 55.341 34.6069 55.8202 35.0177 56.4351C35.4285 57.0499 35.6478 57.7728 35.6478 58.5123C35.6478 59.5039 35.2539 60.4548 34.5527 61.156C33.8516 61.8571 32.9006 62.251 31.909 62.2511V62.2511Z" fill="#E8E8E8"/>
<path fill-rule="evenodd" clip-rule="evenodd" d="M31.909 52.4386C31.1695 52.4386 30.4467 52.2193 29.8318 51.8085C29.217 51.3977 28.7378 50.8137 28.4548 50.1305C28.1718 49.4474 28.0977 48.6956 28.242 47.9704C28.3863 47.2451 28.7424 46.5789 29.2652 46.056C29.7881 45.5331 30.4543 45.177 31.1796 45.0328C31.9048 44.8885 32.6566 44.9626 33.3398 45.2455C34.023 45.5285 34.6069 46.0077 35.0177 46.6226C35.4285 47.2374 35.6478 47.9603 35.6478 48.6998C35.6478 49.6914 35.2539 50.6423 34.5527 51.3435C33.8516 52.0446 32.9006 52.4385 31.909 52.4386V52.4386Z" fill="#72C472"/>
<path fill-rule="evenodd" clip-rule="evenodd" d="M33.6266 47.6603C33.5388 47.5727 33.4199 47.5234 33.2959 47.5234C33.1719 47.5234 33.0529 47.5727 32.9652 47.6603L31.4237 49.2008L30.8668 48.6493C30.8538 48.6299 30.8391 48.6118 30.8228 48.5951C30.7357 48.5078 30.6176 48.4585 30.4943 48.458C30.371 48.4574 30.2524 48.5056 30.1645 48.5921C30.0766 48.6785 30.0264 48.7963 30.0249 48.9196C30.0234 49.0429 30.0708 49.1618 30.1566 49.2503L30.151 49.256L31.0943 50.1907C31.1821 50.2783 31.3011 50.3276 31.4251 50.3276C31.5492 50.3276 31.6681 50.2783 31.7559 50.1907L33.6251 48.3223L33.6265 48.3212C33.6699 48.2778 33.7044 48.2263 33.7279 48.1696C33.7514 48.1129 33.7635 48.0522 33.7635 47.9908C33.7635 47.9294 33.7514 47.8686 33.7279 47.8119C33.7044 47.7552 33.67 47.7037 33.6266 47.6603V47.6603Z" fill="white"/>
<path fill-rule="evenodd" clip-rule="evenodd" d="M31.909 42.6222C31.1695 42.6222 30.4467 42.4029 29.8318 41.9921C29.217 41.5812 28.7378 40.9973 28.4548 40.3141C28.1718 39.631 28.0977 38.8792 28.242 38.1539C28.3863 37.4287 28.7424 36.7625 29.2652 36.2396C29.7881 35.7167 30.4543 35.3606 31.1796 35.2164C31.9048 35.0721 32.6566 35.1462 33.3398 35.4291C34.023 35.7121 34.6069 36.1913 35.0177 36.8062C35.4285 37.421 35.6478 38.1439 35.6478 38.8834C35.6478 39.875 35.2539 40.8259 34.5527 41.5271C33.8516 42.2282 32.9006 42.6221 31.909 42.6222V42.6222Z" fill="#72C472"/>
<path fill-rule="evenodd" clip-rule="evenodd" d="M33.6267 37.8479C33.539 37.7602 33.4201 37.7109 33.2961 37.7109C33.172 37.7109 33.0531 37.7602 32.9654 37.8479L31.4238 39.3883L30.867 38.8368C30.854 38.8175 30.8393 38.7993 30.823 38.7826C30.7359 38.6955 30.6178 38.6463 30.4946 38.6458C30.3713 38.6453 30.2529 38.6935 30.165 38.7799C30.0771 38.8663 30.027 38.9839 30.0254 39.1072C30.0239 39.2304 30.0711 39.3492 30.1568 39.4378L30.1512 39.4435L31.0945 40.3782C31.1823 40.4658 31.3013 40.5151 31.4253 40.5151C31.5493 40.5151 31.6683 40.4658 31.7561 40.3782L33.6253 38.5098L33.6267 38.5087C33.6702 38.4654 33.7046 38.4138 33.7281 38.3571C33.7516 38.3004 33.7637 38.2397 33.7637 38.1783C33.7637 38.1169 33.7516 38.0561 33.7281 37.9994C33.7046 37.9427 33.6702 37.8912 33.6267 37.8479Z" fill="white"/>
<path d="M40.0897 36H50.4127C50.5969 36 50.7792 36.0363 50.9493 36.1067C51.1194 36.1772 51.274 36.2805 51.4041 36.4107C51.5343 36.5408 51.6376 36.6954 51.7081 36.8655C51.7785 37.0356 51.8148 37.2179 51.8148 37.4021V37.4021C51.8148 37.7739 51.6671 38.1305 51.4041 38.3935C51.1412 38.6564 50.7846 38.8041 50.4127 38.8041H40.0897C39.9056 38.8041 39.7233 38.7678 39.5532 38.6974C39.3831 38.6269 39.2286 38.5236 39.0984 38.3934C38.9682 38.2633 38.8649 38.1087 38.7945 37.9386C38.724 37.7685 38.6877 37.5862 38.6877 37.4021V37.4021C38.6877 37.2179 38.724 37.0356 38.7945 36.8655C38.8649 36.6954 38.9682 36.5408 39.0984 36.4107C39.2286 36.2805 39.3831 36.1772 39.5532 36.1067C39.7233 36.0363 39.9056 36 40.0897 36Z" fill="#E8E8E8"/>
<path d="M40.0897 47.2148H49.0107C49.3826 47.2149 49.7392 47.3626 50.0021 47.6255C50.265 47.8884 50.4127 48.245 50.4127 48.6168V48.6168C50.4127 48.9887 50.265 49.3453 50.0021 49.6082C49.7392 49.8712 49.3826 50.0189 49.0107 50.0189H40.0897C39.9056 50.0189 39.7233 49.9826 39.5532 49.9122C39.3831 49.8417 39.2286 49.7384 39.0984 49.6082C38.9682 49.478 38.8649 49.3235 38.7945 49.1534C38.724 48.9833 38.6877 48.801 38.6877 48.6168V48.6168C38.6877 48.245 38.8355 47.8884 39.0984 47.6255C39.3613 47.3626 39.7179 47.2148 40.0897 47.2148Z" fill="#E8E8E8"/>
<path d="M40.0897 41.6094H50.4127C50.5969 41.6094 50.7792 41.6456 50.9493 41.7161C51.1194 41.7866 51.274 41.8898 51.4042 42.02C51.5344 42.1502 51.6376 42.3048 51.7081 42.4749C51.7785 42.645 51.8148 42.8274 51.8148 43.0115V43.0115C51.8148 43.3833 51.6671 43.7399 51.4041 44.0028C51.1412 44.2658 50.7846 44.4135 50.4127 44.4135H40.0897C39.7179 44.4135 39.3613 44.2658 39.0984 44.0028C38.8355 43.7399 38.6877 43.3833 38.6877 43.0115C38.6877 42.8274 38.724 42.645 38.7944 42.4749C38.8649 42.3048 38.9682 42.1502 39.0983 42.02C39.2285 41.8898 39.3831 41.7866 39.5532 41.7161C39.7233 41.6456 39.9056 41.6094 40.0897 41.6094V41.6094Z" fill="#E8E8E8"/>
<path d="M40.0897 52.8242H50.4127C50.5969 52.8242 50.7792 52.8605 50.9493 52.9309C51.1194 53.0014 51.274 53.1047 51.4041 53.2349C51.5343 53.3651 51.6376 53.5196 51.7081 53.6897C51.7785 53.8598 51.8148 54.0421 51.8148 54.2263V54.2263C51.8148 54.5981 51.6671 54.9547 51.4041 55.2177C51.1412 55.4806 50.7846 55.6283 50.4127 55.6283H40.0897C39.9056 55.6283 39.7233 55.5921 39.5532 55.5216C39.3831 55.4511 39.2286 55.3479 39.0984 55.2177C38.9682 55.0875 38.8649 54.9329 38.7945 54.7628C38.724 54.5927 38.6877 54.4104 38.6877 54.2263V54.2263C38.6877 54.0422 38.724 53.8598 38.7945 53.6897C38.8649 53.5196 38.9682 53.3651 39.0984 53.2349C39.2286 53.1047 39.3831 53.0014 39.5532 52.9309C39.7233 52.8605 39.9056 52.8242 40.0897 52.8242V52.8242Z" fill="#E8E8E8"/>
<path d="M40.0897 58.4336H46.9076C47.2795 58.4336 47.6361 58.5813 47.899 58.8442C48.1619 59.1072 48.3097 59.4638 48.3097 59.8356V59.8356C48.3097 60.0197 48.2734 60.202 48.2029 60.3721C48.1325 60.5422 48.0292 60.6968 47.899 60.827C47.7688 60.9572 47.6143 61.0604 47.4442 61.1309C47.2741 61.2013 47.0917 61.2376 46.9076 61.2376H40.0897C39.7179 61.2376 39.3613 61.0899 39.0984 60.827C38.8355 60.564 38.6877 60.2074 38.6877 59.8356C38.6877 59.6515 38.724 59.4692 38.7945 59.2991C38.8649 59.129 38.9682 58.9744 39.0984 58.8442C39.2286 58.714 39.3831 58.6108 39.5532 58.5403C39.7233 58.4699 39.9056 58.4336 40.0897 58.4336V58.4336Z" fill="#E8E8E8"/>
<path d="M63.8328 50.668H56.6335" stroke="white" stroke-width="1.09261" stroke-miterlimit="10"/>
<path d="M81.5696 36.0131V40.488C81.5696 40.9442 81.395 41.3831 81.0817 41.7147C80.7685 42.0463 80.3402 42.2455 79.8847 42.2714L79.7834 42.2742H72.3636C71.9074 42.2742 71.4685 42.0997 71.1369 41.7864C70.8053 41.4731 70.6061 41.0448 70.5802 40.5893L70.5774 40.488V36.0131L75.8822 38.7921C75.9413 38.823 76.0069 38.8391 76.0735 38.8391C76.1401 38.8391 76.2057 38.823 76.2648 38.7921L81.5696 36.0131ZM72.3636 33.4805H79.7833C80.226 33.4805 80.6529 33.6449 80.9813 33.9417C81.3097 34.2386 81.5162 34.6468 81.5607 35.0873L76.0735 37.9616L70.5863 35.0873C70.629 34.6644 70.8212 34.2705 71.1282 33.9766C71.4352 33.6826 71.837 33.5077 72.2614 33.4833L72.3636 33.4805V33.4805Z" fill="#C3F1FF"/>
<path d="M81.2287 58.8906H71.173C70.5575 58.8906 70.0586 59.3896 70.0586 60.0051V69.1923C70.0586 69.8078 70.5575 70.3068 71.173 70.3068H81.2287C81.8442 70.3068 82.3432 69.8078 82.3432 69.1923V60.0051C82.3432 59.3896 81.8442 58.8906 81.2287 58.8906Z" fill="url(#paint1_linear)"/>
<path d="M72.822 65.25C72.5704 65.2503 72.3292 65.3504 72.1513 65.5283C71.9734 65.7062 71.8734 65.9474 71.873 66.1989V67.3846C71.8739 67.6357 71.9742 67.8763 72.1521 68.0536C72.3299 68.2309 72.5708 68.3304 72.822 68.3304C73.0731 68.3304 73.314 68.2309 73.4919 68.0536C73.6697 67.8763 73.7701 67.6357 73.7709 67.3846V66.1989C73.7706 65.9474 73.6705 65.7062 73.4926 65.5283C73.3147 65.3504 73.0735 65.2503 72.822 65.25Z" fill="#C3F1FF"/>
<path d="M79.58 60.668C79.3285 60.6683 79.0873 60.7683 78.9094 60.9462C78.7315 61.1241 78.6314 61.3653 78.6311 61.6169V67.3828C78.6319 67.634 78.7322 67.8746 78.9101 68.0519C79.088 68.2291 79.3289 68.3287 79.58 68.3287C79.8312 68.3287 80.0721 68.2291 80.2499 68.0519C80.4278 67.8746 80.5281 67.634 80.529 67.3828V61.6169C80.5287 61.3653 80.4286 61.1241 80.2507 60.9462C80.0728 60.7683 79.8316 60.6683 79.58 60.668V60.668Z" fill="#0078D4"/>
<path d="M76.2011 63.3555C75.9495 63.3558 75.7084 63.4559 75.5305 63.6337C75.3526 63.8116 75.2525 64.0528 75.2522 64.3044V67.3828C75.253 67.6339 75.3533 67.8745 75.5312 68.0518C75.7091 68.2291 75.95 68.3286 76.2011 68.3286C76.4523 68.3286 76.6932 68.2291 76.871 68.0518C77.0489 67.8745 77.1492 67.6339 77.15 67.3828V64.3044C77.1497 64.0528 77.0497 63.8116 76.8718 63.6337C76.6939 63.4558 76.4527 63.3558 76.2011 63.3555V63.3555Z" fill="#50E6FF"/>
</g>
<defs>
<linearGradient id="paint0_linear" x1="47.8697" y1="-15.155" x2="51.8525" y2="130.613" gradientUnits="userSpaceOnUse">
<stop stop-color="#00ABDE"/>
<stop offset="1" stop-color="#007ED8"/>
</linearGradient>
<linearGradient id="paint1_linear" x1="76.2009" y1="70.3068" x2="76.2009" y2="58.8702" gradientUnits="userSpaceOnUse">
<stop stop-color="#003067"/>
<stop offset="1" stop-color="#005BA1"/>
</linearGradient>
<clipPath id="clip0">
<rect width="99.2799" height="99.28" fill="white"/>
</clipPath>
</defs>
</svg>
