<svg width="103" height="103" viewBox="0 0 103 103" fill="none" xmlns="http://www.w3.org/2000/svg">
<path d="M51.4999 98.3104C25.6499 98.3104 4.68994 77.3604 4.68994 51.5004C4.68994 25.6404 25.6499 4.69043 51.4999 4.69043C77.3499 4.69043 98.3099 25.6504 98.3099 51.5004C98.3099 77.3504 77.3499 98.3104 51.4999 98.3104Z" fill="url(#paint0_linear)"/>
<path fill-rule="evenodd" clip-rule="evenodd" d="M97.4001 51.5004C97.4001 76.8504 76.8501 97.4004 51.5001 97.4004C26.1501 97.4004 5.60011 76.8504 5.60011 51.5004C5.60011 26.1504 26.1501 5.60035 51.5001 5.60035C76.8501 5.60035 97.4001 26.1504 97.4001 51.5004ZM51.5001 1.86035C78.9201 1.86035 101.14 24.0804 101.14 51.5004C101.14 78.9204 78.9101 101.14 51.5001 101.14C24.0801 101.14 1.86011 78.9104 1.86011 51.5004C1.86011 24.0804 24.0801 1.86035 51.5001 1.86035Z" fill="#F2F1F0"/>
<path fill-rule="evenodd" clip-rule="evenodd" d="M94.5899 51.4999C94.5899 75.2999 75.2999 94.5899 51.4999 94.5899C27.6999 94.5899 8.40992 75.2999 8.40992 51.4999C8.40992 27.6999 27.6999 8.40992 51.4999 8.40992C75.2999 8.40992 94.5899 27.6999 94.5899 51.4999ZM51.4999 4.66992C77.3599 4.66992 98.3299 25.6399 98.3299 51.4999C98.3299 77.3599 77.3599 98.3299 51.4999 98.3299C25.6399 98.3299 4.66992 77.3599 4.66992 51.4999C4.66992 25.6399 25.6299 4.66992 51.4999 4.66992Z" fill="url(#paint1_linear)"/>
<path opacity="0.15" fill-rule="evenodd" clip-rule="evenodd" d="M48.5299 85.5198C48.2199 85.5198 47.8999 85.4498 47.6199 85.3098C29.0999 75.9998 21.2 64.5498 21.2 47.0498V30.8498C21.2 29.7398 22.0999 28.8298 23.2199 28.8298C34.8699 28.8298 42.65 26.4098 46.99 21.4198C47.76 20.5398 49.27 20.5398 50.04 21.4198C54.39 26.4098 62.1599 28.8298 73.8099 28.8298C74.9199 28.8298 75.83 29.7398 75.83 30.8498V47.0498C75.83 64.5598 67.9299 75.9998 49.4199 85.3098C49.1499 85.4498 48.8299 85.5198 48.5299 85.5198Z" fill="#1F1D20"/>
<path fill-rule="evenodd" clip-rule="evenodd" d="M25.25 31.0898V45.2898C25.25 60.9698 32.0099 70.9298 48.5299 79.4598C65.0399 70.9298 71.8 60.9698 71.8 45.2898V31.0898C61.17 30.8198 53.51 28.4598 48.52 23.8898C43.54 28.4698 35.89 30.8398 25.25 31.0898ZM48.5299 83.7698C48.2199 83.7698 47.8999 83.6998 47.6199 83.5598C29.0999 74.2498 21.2 62.7998 21.2 45.2998V29.0998C21.2 27.9898 22.0999 27.0798 23.2199 27.0798C34.8699 27.0798 42.65 24.6598 46.99 19.6698C47.76 18.7898 49.27 18.7898 50.04 19.6698C54.39 24.6598 62.1599 27.0798 73.8099 27.0798C74.9199 27.0798 75.83 27.9898 75.83 29.0998V45.2998C75.83 62.8098 67.9299 74.2498 49.4199 83.5598C49.1499 83.6998 48.8299 83.7698 48.5299 83.7698Z" fill="#546670"/>
<path fill-rule="evenodd" clip-rule="evenodd" d="M48.5199 22.4297C43.4599 28.2297 34.5399 30.1597 24.3899 30.1597V45.5997C24.3899 61.5197 31.4399 71.7697 48.5199 80.3497C65.5999 71.7797 72.6499 61.5197 72.6499 45.5997V30.1497C62.4899 30.1497 53.5799 28.2297 48.5199 22.4297Z" fill="#243A5E"/>
<path fill-rule="evenodd" clip-rule="evenodd" d="M48.52 22.4297V80.3597C65.6 71.7697 72.66 61.5197 72.66 45.5997V30.1497C62.49 30.1497 53.58 28.2297 48.52 22.4297Z" fill="#002D4C"/>
<path d="M35.0601 53.1104H39.8801L50.0801 63.0303H55.8501" stroke="white" stroke-width="0.6" stroke-miterlimit="10"/>
<path d="M44.9701 48.78L40.4101 43.68L35.1201 43.78L35.1001 43.16L40.6701 43.08L40.7701 43.18L44.9901 47.94L50.3001 42.94L55.2801 43.02L60.1001 38.5L60.5001 38.94L55.5201 43.62L50.5401 43.54L44.9701 48.78Z" fill="white"/>
<path d="M34.8601 58.3904V57.7904L40.0301 57.7504L44.8701 52.9504L50.0801 47.9104L54.7401 48.0904L60.5001 42.6504L60.5401 48.4604H59.9401L59.9201 44.0404L54.9601 48.7004L54.8401 48.6804L50.3201 48.5204L45.3001 53.3804L40.2801 58.3204L34.8601 58.3904Z" fill="white"/>
<path d="M46.0901 62.9508C46.0901 62.3308 45.6101 61.8408 44.9801 61.8408C44.3601 61.8408 43.8701 62.3208 43.8701 62.9508C43.8701 63.5708 44.3501 64.0608 44.9801 64.0608C45.5901 64.0808 46.0901 63.5808 46.0901 62.9508Z" fill="url(#paint2_linear)"/>
<path d="M51.1201 62.9508C51.1201 62.3308 50.6401 61.8408 50.0101 61.8408C49.3901 61.8408 48.9001 62.3208 48.9001 62.9508C48.9001 63.5708 49.3801 64.0608 50.0101 64.0608C50.6101 64.0808 51.1201 63.5808 51.1201 62.9508Z" fill="url(#paint3_linear)"/>
<path d="M36.0201 62.9508C36.0201 62.3308 35.54 61.8408 34.91 61.8408C34.29 61.8408 33.8 62.3208 33.8 62.9508C33.8 63.5708 34.28 64.0608 34.91 64.0608C35.52 64.0808 36.0201 63.5808 36.0201 62.9508Z" fill="#3BCAF4"/>
<path d="M41.0501 62.9508C41.0501 62.3308 40.5701 61.8408 39.9401 61.8408C39.3101 61.8408 38.8301 62.3208 38.8301 62.9508C38.8301 63.5708 39.3101 64.0608 39.9401 64.0608C40.5701 64.0808 41.0501 63.5808 41.0501 62.9508Z" fill="#3BCAF4"/>
<path d="M56.1599 62.9508C56.1599 62.3308 55.6799 61.8408 55.0499 61.8408C54.4299 61.8408 53.9399 62.3208 53.9399 62.9508C53.9399 63.5708 54.4199 64.0608 55.0499 64.0608C55.6599 64.0808 56.1599 63.5808 56.1599 62.9508Z" fill="url(#paint4_linear)"/>
<path d="M58.96 62.9508C58.96 63.5708 59.44 64.0608 60.07 64.0608C60.69 64.0608 61.18 63.5808 61.18 62.9508C61.18 62.3308 60.7 61.8408 60.07 61.8408C59.46 61.8508 58.96 62.3508 58.96 62.9508Z" fill="url(#paint5_linear)"/>
<path d="M46.0901 58.07C46.0901 57.45 45.6101 56.96 44.9801 56.96C44.3601 56.96 43.8701 57.44 43.8701 58.07C43.8701 58.69 44.3501 59.18 44.9801 59.18C45.5901 59.17 46.0901 58.69 46.0901 58.07Z" fill="#3BCAF4"/>
<path d="M51.1201 58.07C51.1201 57.45 50.6401 56.96 50.0101 56.96C49.3901 56.96 48.9001 57.44 48.9001 58.07C48.9001 58.69 49.3801 59.18 50.0101 59.18C50.6101 59.17 51.1201 58.69 51.1201 58.07Z" fill="url(#paint6_linear)"/>
<path d="M36.0201 58.07C36.0201 57.45 35.54 56.96 34.91 56.96C34.29 56.96 33.8 57.44 33.8 58.07C33.8 58.69 34.28 59.18 34.91 59.18C35.52 59.17 36.0201 58.69 36.0201 58.07Z" fill="#3BCAF4"/>
<path d="M41.0501 58.07C41.0501 57.45 40.5701 56.96 39.9401 56.96C39.3101 56.96 38.8301 57.44 38.8301 58.07C38.8301 58.69 39.3101 59.18 39.9401 59.18C40.5701 59.18 41.0501 58.69 41.0501 58.07Z" fill="#3BCAF4"/>
<path d="M56.1402 58.07C56.1402 57.45 55.6602 56.96 55.0302 56.96C54.4102 56.96 53.9202 57.44 53.9202 58.07C53.9202 58.69 54.4002 59.18 55.0302 59.18C55.6602 59.17 56.1402 58.69 56.1402 58.07Z" fill="url(#paint7_linear)"/>
<path d="M61.19 58.07C61.19 57.45 60.71 56.96 60.08 56.96C59.45 56.96 58.97 57.44 58.97 58.07C58.97 58.69 59.45 59.18 60.08 59.18C60.71 59.18 61.19 58.69 61.19 58.07Z" fill="url(#paint8_linear)"/>
<path d="M46.0901 53.2106C46.0901 52.5906 45.6101 52.1006 44.9801 52.1006C44.3601 52.1006 43.8701 52.5806 43.8701 53.2106C43.8701 53.8306 44.3501 54.3206 44.9801 54.3206C45.5901 54.2906 46.0901 53.8106 46.0901 53.2106Z" fill="#3BCAF4"/>
<path d="M50.0101 54.3108C50.6301 54.3108 51.1201 53.8108 51.1201 53.2008C51.1201 52.6008 50.6201 52.0908 50.0101 52.0908C49.4101 52.0908 48.9001 52.5908 48.9001 53.2008C48.9101 53.8108 49.3901 54.3108 50.0101 54.3108Z" fill="#3BCAF4"/>
<path d="M36.0201 53.2106C36.0201 52.5906 35.54 52.1006 34.91 52.1006C34.29 52.1006 33.8 52.5806 33.8 53.2106C33.8 53.8306 34.28 54.3206 34.91 54.3206C35.52 54.2906 36.0201 53.8106 36.0201 53.2106Z" fill="#50E6FF"/>
<path d="M39.9401 54.3108C40.5601 54.3108 41.0501 53.8108 41.0501 53.2008C41.0501 52.6008 40.5501 52.0908 39.9401 52.0908C39.3201 52.0908 38.8301 52.5908 38.8301 53.2008C38.8401 53.8108 39.3401 54.3108 39.9401 54.3108Z" fill="#3BCAF4"/>
<path d="M56.1599 53.2106C56.1599 52.5906 55.6799 52.1006 55.0499 52.1006C54.4299 52.1006 53.9399 52.5806 53.9399 53.2106C53.9399 53.8306 54.4199 54.3206 55.0499 54.3206C55.6599 54.3106 56.1599 53.8106 56.1599 53.2106Z" fill="#3BCAF4"/>
<path d="M60.06 54.3108C60.68 54.3108 61.1699 53.8108 61.1699 53.2008C61.1699 52.6008 60.67 52.0908 60.06 52.0908C59.46 52.0908 58.95 52.5908 58.95 53.2008C58.96 53.8108 59.46 54.3108 60.06 54.3108Z" fill="url(#paint9_linear)"/>
<path d="M46.0901 48.3004C46.0901 47.6804 45.6101 47.1904 44.9801 47.1904C44.3601 47.1904 43.8701 47.6704 43.8701 48.3004C43.8701 48.9304 44.3501 49.4104 44.9801 49.4104C45.5901 49.4304 46.0901 48.9104 46.0901 48.3004Z" fill="#50E6FF"/>
<path d="M51.1201 48.3004C51.1201 47.6804 50.6401 47.1904 50.0101 47.1904C49.3901 47.1904 48.9001 47.6904 48.9001 48.3004C48.9001 48.9204 49.3801 49.4104 50.0101 49.4104C50.6301 49.4304 51.1201 48.9104 51.1201 48.3004Z" fill="#50E6FF"/>
<path d="M36.0201 48.3004C36.0201 47.6804 35.54 47.1904 34.91 47.1904C34.29 47.1904 33.8 47.6704 33.8 48.3004C33.8 48.9304 34.28 49.4104 34.91 49.4104C35.52 49.4304 36.0201 48.9104 36.0201 48.3004Z" fill="#50E6FF"/>
<path d="M41.0501 48.3004C41.0501 47.6804 40.5701 47.1904 39.9401 47.1904C39.3101 47.1904 38.8301 47.6704 38.8301 48.3004C38.8301 48.9304 39.3101 49.4104 39.9401 49.4104C40.5701 49.4304 41.0501 48.9104 41.0501 48.3004Z" fill="#50E6FF"/>
<path d="M56.1402 48.3004C56.1402 47.6804 55.6602 47.1904 55.0302 47.1904C54.4102 47.1904 53.9202 47.6704 53.9202 48.3004C53.9202 48.9304 54.4002 49.4104 55.0302 49.4104C55.6602 49.4304 56.1402 48.9104 56.1402 48.3004Z" fill="#50E6FF"/>
<path d="M61.19 48.3004C61.19 47.6804 60.71 47.1904 60.08 47.1904C59.45 47.1904 58.97 47.6704 58.97 48.3004C58.97 48.9304 59.45 49.4104 60.08 49.4104C60.71 49.4104 61.19 48.9104 61.19 48.3004Z" fill="#50E6FF"/>
<path d="M46.0901 43.4401C46.0901 42.8201 45.6101 42.3301 44.9801 42.3301C44.3601 42.3301 43.8701 42.8101 43.8701 43.4401C43.8701 44.0601 44.3501 44.5501 44.9801 44.5501C45.5901 44.5401 46.0901 44.0401 46.0901 43.4401Z" fill="#50E6FF"/>
<path d="M51.1201 43.4401C51.1201 42.8201 50.6401 42.3301 50.0101 42.3301C49.3901 42.3301 48.9001 42.8101 48.9001 43.4401C48.9001 44.0601 49.3801 44.5501 50.0101 44.5501C50.6101 44.5401 51.1201 44.0401 51.1201 43.4401Z" fill="#50E6FF"/>
<path d="M36.0201 43.4401C36.0201 42.8201 35.54 42.3301 34.91 42.3301C34.29 42.3301 33.8 42.8101 33.8 43.4401C33.8 44.0601 34.28 44.5501 34.91 44.5501C35.52 44.5401 36.0201 44.0401 36.0201 43.4401Z" fill="#9CEBFF"/>
<path d="M41.0501 43.4401C41.0501 42.8201 40.5701 42.3301 39.9401 42.3301C39.3101 42.3301 38.8301 42.8101 38.8301 43.4401C38.8301 44.0601 39.3101 44.5501 39.9401 44.5501C40.5701 44.5501 41.0501 44.0401 41.0501 43.4401Z" fill="#9CEBFF"/>
<path d="M56.1402 43.4401C56.1402 42.8201 55.6602 42.3301 55.0302 42.3301C54.4102 42.3301 53.9202 42.8101 53.9202 43.4401C53.9202 44.0601 54.4002 44.5501 55.0302 44.5501C55.6602 44.5401 56.1402 44.0401 56.1402 43.4401Z" fill="#50E6FF"/>
<path d="M61.19 43.4401C61.19 42.8201 60.71 42.3301 60.08 42.3301C59.45 42.3301 58.97 42.8101 58.97 43.4401C58.97 44.0601 59.45 44.5501 60.08 44.5501C60.71 44.5501 61.19 44.0401 61.19 43.4401Z" fill="#50E6FF"/>
<path d="M46.0901 38.5504C46.0901 37.9304 45.6101 37.4404 44.9801 37.4404C44.3601 37.4404 43.8701 37.9204 43.8701 38.5504C43.8701 39.1704 44.3501 39.6604 44.9801 39.6604C45.5901 39.6604 46.0901 39.1804 46.0901 38.5504Z" fill="#9CEBFF"/>
<path d="M51.1201 38.5504C51.1201 37.9304 50.6401 37.4404 50.0101 37.4404C49.3901 37.4404 48.9001 37.9404 48.9001 38.5504C48.9001 39.1704 49.3801 39.6604 50.0101 39.6604C50.6301 39.6604 51.1201 39.1804 51.1201 38.5504Z" fill="#9CEBFF"/>
<path d="M36.0201 38.5504C36.0201 37.9304 35.54 37.4404 34.91 37.4404C34.29 37.4404 33.8 37.9204 33.8 38.5504C33.8 39.1704 34.28 39.6604 34.91 39.6604C35.52 39.6604 36.0201 39.1804 36.0201 38.5504Z" fill="#9CEBFF"/>
<path d="M41.0501 38.5504C41.0501 37.9304 40.5701 37.4404 39.9401 37.4404C39.3101 37.4404 38.8301 37.9204 38.8301 38.5504C38.8301 39.1704 39.3101 39.6604 39.9401 39.6604C40.5701 39.6604 41.0501 39.1804 41.0501 38.5504Z" fill="#9CEBFF"/>
<path d="M56.1402 38.5504C56.1402 37.9304 55.6602 37.4404 55.0302 37.4404C54.4102 37.4404 53.9202 37.9204 53.9202 38.5504C53.9202 39.1704 54.4002 39.6604 55.0302 39.6604C55.6602 39.6604 56.1402 39.1804 56.1402 38.5504Z" fill="#9CEBFF"/>
<path d="M61.19 38.5504C61.19 37.9304 60.71 37.4404 60.08 37.4404C59.45 37.4404 58.97 37.9204 58.97 38.5504C58.97 39.1704 59.45 39.6604 60.08 39.6604C60.71 39.6604 61.19 39.1804 61.19 38.5504Z" fill="#50E6FF"/>
<path opacity="0.15" d="M81.0101 35.9697H55.9201C54.7601 35.9697 53.8101 36.9097 53.8101 38.0797V53.8497C53.8101 55.0097 54.7501 55.9597 55.9201 55.9597H80.3101C81.4701 55.9597 82.4201 55.0197 82.4201 53.8497V37.3797C82.4101 36.5997 81.7701 35.9697 81.0101 35.9697Z" fill="#1F1D20"/>
<path d="M55.3801 54.6502H80.8501C81.7101 54.6502 82.4201 53.9502 82.4201 53.0802V36.2302C82.4201 35.3702 81.7201 34.6602 80.8501 34.6602H55.3801C54.5201 34.6602 53.8101 35.3602 53.8101 36.2302V53.0802C53.8201 53.9402 54.5201 54.6502 55.3801 54.6502Z" fill="white"/>
<path opacity="0.15" d="M81.0101 58.7705H55.9201C54.7601 58.7705 53.8101 59.7105 53.8101 60.8805V76.6505C53.8101 77.8105 54.7501 78.7605 55.9201 78.7605H80.3101C81.4701 78.7605 82.4201 77.8205 82.4201 76.6505V60.1805C82.4101 59.4105 81.7701 58.7705 81.0101 58.7705Z" fill="#1F1D20"/>
<path d="M55.3801 77.4497H80.8501C81.7101 77.4497 82.4201 76.7497 82.4201 75.8797V59.0397C82.4201 58.1797 81.7201 57.4697 80.8501 57.4697H55.3801C54.5201 57.4697 53.8101 58.1697 53.8101 59.0397V75.8897C53.8201 76.7497 54.5201 77.4497 55.3801 77.4497Z" fill="white"/>
<path d="M71.38 42.6602H75.67C76.08 42.6602 76.4 42.9902 76.4 43.3902V47.3002C76.4 48.7902 75.19 50.0002 73.7 50.0002C72.21 50.0002 71 48.7902 71 47.3002V43.0402C71 42.8302 71.17 42.6602 71.38 42.6602Z" fill="#5059C9"/>
<path d="M74.29 41.8804C75.25 41.8804 76.03 41.1004 76.03 40.1404C76.03 39.1804 75.25 38.4004 74.29 38.4004C73.33 38.4004 72.55 39.1804 72.55 40.1404C72.55 41.1004 73.32 41.8804 74.29 41.8804Z" fill="#5059C9"/>
<path d="M68.8701 41.8804C70.2601 41.8804 71.3801 40.7603 71.3801 39.3703C71.3801 37.9803 70.2601 36.8604 68.8701 36.8604C67.4801 36.8604 66.3601 37.9803 66.3601 39.3703C66.3601 40.7603 67.4901 41.8804 68.8701 41.8804Z" fill="#7B83EB"/>
<path d="M72.2201 42.6602H65.1301C64.7301 42.6702 64.4101 43.0002 64.4201 43.4002V47.8602C64.3601 50.2602 66.2701 52.2602 68.6701 52.3202C71.0701 52.2602 72.9801 50.2702 72.9201 47.8602V43.4002C72.9401 43.0002 72.6201 42.6702 72.2201 42.6602Z" fill="#7B83EB"/>
<path opacity="0.1" d="M69.0699 42.6602V48.9102C69.0699 49.2002 68.8899 49.4502 68.6299 49.5602C68.5499 49.6002 68.4499 49.6102 68.3599 49.6102H64.7699C64.7199 49.4802 64.6699 49.3602 64.6399 49.2202C64.5099 48.7802 64.4399 48.3202 64.4399 47.8502V43.4002C64.4299 43.0002 64.7499 42.6702 65.1499 42.6602H69.0699Z" fill="black"/>
<path opacity="0.2" d="M68.6799 42.6602V49.3002C68.6799 49.3902 68.6599 49.4802 68.6299 49.5702C68.5199 49.8302 68.2599 50.0102 67.9799 50.0102H64.9599C64.8899 49.8802 64.8299 49.7602 64.7799 49.6202C64.7299 49.4902 64.6799 49.3702 64.6499 49.2302C64.5199 48.7902 64.4499 48.3302 64.4499 47.8602V43.4002C64.4399 43.0002 64.7599 42.6702 65.1599 42.6602H68.6799Z" fill="black"/>
<path opacity="0.2" d="M68.6799 42.6602V48.5202C68.6799 48.9102 68.3599 49.2202 67.9699 49.2302H64.6299C64.4999 48.7902 64.4299 48.3302 64.4299 47.8602V43.4002C64.4199 43.0002 64.7399 42.6702 65.1399 42.6602H68.6799Z" fill="black"/>
<path opacity="0.2" d="M68.2899 42.6602V48.5202C68.2899 48.9102 67.9699 49.2202 67.5799 49.2302H64.6299C64.4999 48.7902 64.4299 48.3302 64.4299 47.8602V43.4002C64.4199 43.0002 64.7399 42.6702 65.1399 42.6602H68.2899Z" fill="black"/>
<path opacity="0.1" d="M69.0699 40.6602V41.8802C68.9999 41.8802 68.9399 41.8902 68.8799 41.8902C68.8099 41.8902 68.7499 41.8902 68.6899 41.8802C68.5599 41.8702 68.4299 41.8502 68.2999 41.8202C67.5199 41.6402 66.8699 41.0902 66.5599 40.3402C66.5099 40.2202 66.4699 40.0902 66.4399 39.9502H68.3699C68.7499 39.9502 69.0699 40.2702 69.0699 40.6602Z" fill="black"/>
<path opacity="0.2" d="M68.68 41.0401V41.8701C68.55 41.8601 68.42 41.8401 68.29 41.8101C67.51 41.6301 66.86 41.0801 66.55 40.3301H67.97C68.36 40.3401 68.68 40.6501 68.68 41.0401Z" fill="black"/>
<path opacity="0.2" d="M68.68 41.0401V41.8701C68.55 41.8601 68.42 41.8401 68.29 41.8101C67.51 41.6301 66.86 41.0801 66.55 40.3301H67.97C68.36 40.3401 68.68 40.6501 68.68 41.0401Z" fill="black"/>
<path opacity="0.2" d="M68.29 41.0401V41.8101C67.51 41.6201 66.86 41.0801 66.55 40.3301H67.58C67.98 40.3401 68.29 40.6501 68.29 41.0401Z" fill="black"/>
<path d="M60.5 40.3408H67.59C67.98 40.3408 68.3 40.6608 68.3 41.0508V48.1408C68.3 48.5308 67.98 48.8508 67.59 48.8508H60.5C60.11 48.8508 59.79 48.5308 59.79 48.1408V41.0508C59.79 40.6508 60.11 40.3408 60.5 40.3408Z" fill="url(#paint10_linear)"/>
<path d="M65.9099 43.0303H64.4899V46.8903H63.5899V43.0303H62.1799V42.2803H65.9099V43.0303Z" fill="white"/>
<g opacity="0.2">
<path opacity="0.2" d="M65.1401 72.0195C64.7001 72.0195 64.3501 72.3795 64.3601 72.8195C64.3601 73.0995 64.5101 73.3495 64.7501 73.4895L67.5401 75.0695C67.7701 75.1995 68.0301 75.2695 68.2901 75.2695C68.4301 75.2695 68.5701 75.2495 68.7101 75.2095L72.9001 74.0095C73.5401 73.8295 73.9801 73.2395 73.9901 72.5695V72.0195H65.1401Z" fill="white"/>
</g>
<g opacity="0.12">
<path opacity="0.12" d="M65.1401 72.0195C64.7001 72.0195 64.3501 72.3795 64.3601 72.8195C64.3601 73.0995 64.5101 73.3495 64.7501 73.4895L67.5401 75.0695C67.7701 75.1995 68.0301 75.2695 68.2901 75.2695C68.4301 75.2695 68.5701 75.2495 68.7101 75.2095L72.9001 74.0095C73.5401 73.8295 73.9801 73.2395 73.9901 72.5695V72.0195H65.1401Z" fill="white"/>
</g>
<path d="M68.6899 60.4795L69.8199 63.0595V72.0195L68.7099 75.2095L72.8999 74.0095C73.5399 73.8295 73.9799 73.2395 73.9899 72.5695V63.1195C73.9899 62.4495 73.5499 61.8595 72.8999 61.6795L68.6899 60.4795Z" fill="url(#paint11_linear)"/>
<path d="M63.3699 71.9199L64.5999 71.2599C64.9399 71.0699 65.15 70.7099 65.15 70.3199V65.4999C65.15 65.0499 65.4299 64.6499 65.8499 64.4899L69.8099 63.0599V61.9699C69.8099 61.2799 69.35 60.6699 68.68 60.4799C68.54 60.4399 68.4 60.4199 68.26 60.4199C67.99 60.4199 67.7299 60.4899 67.4899 60.6199L62.9599 63.1999C62.4899 63.4699 62.2 63.9599 62.2 64.4999V71.2099C62.2 71.6399 62.55 71.9999 62.99 71.9999C63.13 72.0199 63.2599 71.9899 63.3699 71.9199Z" fill="url(#paint12_linear)"/>
<path d="M69.8201 72.0195H65.1401C64.7001 72.0195 64.3501 72.3795 64.3601 72.8195C64.3601 73.0995 64.5101 73.3495 64.7501 73.4895L67.5401 75.0695C67.7701 75.1995 68.0301 75.2695 68.2901 75.2695C68.4301 75.2695 68.5701 75.2495 68.7101 75.2095C69.3701 75.0195 69.8201 74.4195 69.8201 73.7395V72.0195Z" fill="url(#paint13_linear)"/>
<path d="M63.3699 71.9199L64.5999 71.2599C64.9399 71.0699 65.15 70.7099 65.15 70.3199V65.4999C65.15 65.0499 65.4299 64.6499 65.8499 64.4899L69.8099 63.0599V61.9699C69.8099 61.2799 69.35 60.6699 68.68 60.4799C68.54 60.4399 68.4 60.4199 68.26 60.4199C67.99 60.4199 67.7299 60.4899 67.4899 60.6199L62.9599 63.1999C62.4899 63.4699 62.2 63.9599 62.2 64.4999V71.2099C62.2 71.6399 62.55 71.9999 62.99 71.9999C63.13 72.0199 63.2599 71.9899 63.3699 71.9199Z" fill="url(#paint14_linear)"/>
<path d="M69.8201 72.0195H65.1401C64.7001 72.0195 64.3501 72.3795 64.3601 72.8195C64.3601 73.0995 64.5101 73.3495 64.7501 73.4895L67.5401 75.0695C67.7701 75.1995 68.0301 75.2695 68.2901 75.2695C68.4301 75.2695 68.5701 75.2495 68.7101 75.2095C69.3701 75.0195 69.8201 74.4195 69.8201 73.7395V72.0195Z" fill="url(#paint15_linear)"/>
<defs>
<linearGradient id="paint0_linear" x1="49.73" y1="-13.2892" x2="53.712" y2="132.481" gradientUnits="userSpaceOnUse">
<stop stop-color="#00ABDE"/>
<stop offset="1" stop-color="#007ED8"/>
</linearGradient>
<linearGradient id="paint1_linear" x1="2.93262" y1="-20.1246" x2="98.4596" y2="120.757" gradientUnits="userSpaceOnUse">
<stop stop-color="#007ED8"/>
<stop offset="0.7065" stop-color="#002D4C"/>
</linearGradient>
<linearGradient id="paint2_linear" x1="39.1471" y1="58.9153" x2="85.3444" y2="90.8631" gradientUnits="userSpaceOnUse">
<stop stop-color="#007ED8"/>
<stop offset="0.7065" stop-color="#002D4C"/>
</linearGradient>
<linearGradient id="paint3_linear" x1="40.8583" y1="56.6243" x2="87.0556" y2="88.5721" gradientUnits="userSpaceOnUse">
<stop stop-color="#007ED8"/>
<stop offset="0.7065" stop-color="#002D4C"/>
</linearGradient>
<linearGradient id="paint4_linear" x1="42.8439" y1="54.5096" x2="89.0417" y2="86.4564" gradientUnits="userSpaceOnUse">
<stop stop-color="#007ED8"/>
<stop offset="0.7065" stop-color="#002D4C"/>
</linearGradient>
<linearGradient id="paint5_linear" x1="42.9291" y1="51.1068" x2="92.6446" y2="85.4876" gradientUnits="userSpaceOnUse">
<stop stop-color="#007ED8"/>
<stop offset="0.7065" stop-color="#002D4C"/>
</linearGradient>
<linearGradient id="paint6_linear" x1="42.9094" y1="53.1582" x2="89.1071" y2="85.1049" gradientUnits="userSpaceOnUse">
<stop stop-color="#007ED8"/>
<stop offset="0.7065" stop-color="#002D4C"/>
</linearGradient>
<linearGradient id="paint7_linear" x1="44.8878" y1="51.0518" x2="91.0854" y2="82.9995" gradientUnits="userSpaceOnUse">
<stop stop-color="#007ED8"/>
<stop offset="0.7065" stop-color="#002D4C"/>
</linearGradient>
<linearGradient id="paint8_linear" x1="46.3679" y1="48.5869" x2="92.5653" y2="80.5346" gradientUnits="userSpaceOnUse">
<stop stop-color="#007ED8"/>
<stop offset="0.7065" stop-color="#002D4C"/>
</linearGradient>
<linearGradient id="paint9_linear" x1="48.6376" y1="45.3069" x2="94.8349" y2="77.2547" gradientUnits="userSpaceOnUse">
<stop stop-color="#007ED8"/>
<stop offset="0.7065" stop-color="#002D4C"/>
</linearGradient>
<linearGradient id="paint10_linear" x1="61.2691" y1="39.785" x2="66.8174" y2="49.3944" gradientUnits="userSpaceOnUse">
<stop stop-color="#5A62C3"/>
<stop offset="0.5" stop-color="#4D55BD"/>
<stop offset="1" stop-color="#3940AB"/>
</linearGradient>
<linearGradient id="paint11_linear" x1="71.3422" y1="59.6426" x2="71.3422" y2="74.1763" gradientUnits="userSpaceOnUse">
<stop stop-color="#FFB900"/>
<stop offset="0.17" stop-color="#EF8400"/>
<stop offset="0.31" stop-color="#E25C01"/>
<stop offset="0.43" stop-color="#DB4401"/>
<stop offset="0.5" stop-color="#D83B01"/>
</linearGradient>
<linearGradient id="paint12_linear" x1="68.721" y1="60.1571" x2="61.0247" y2="71.1469" gradientUnits="userSpaceOnUse">
<stop stop-color="#800600"/>
<stop offset="0.6" stop-color="#C72127"/>
<stop offset="0.73" stop-color="#C13959"/>
<stop offset="0.85" stop-color="#BC4B81"/>
<stop offset="0.94" stop-color="#B95799"/>
<stop offset="1" stop-color="#B85BA2"/>
</linearGradient>
<linearGradient id="paint13_linear" x1="64.7884" y1="73.6426" x2="74.8357" y2="73.6426" gradientUnits="userSpaceOnUse">
<stop stop-color="#F32B44"/>
<stop offset="0.6" stop-color="#A4070A"/>
</linearGradient>
<linearGradient id="paint14_linear" x1="68.8782" y1="59.9335" x2="67.2486" y2="62.2601" gradientUnits="userSpaceOnUse">
<stop stop-opacity="0.4"/>
<stop offset="1" stop-opacity="0"/>
</linearGradient>
<linearGradient id="paint15_linear" x1="71.6159" y1="73.8691" x2="67.1174" y2="73.4765" gradientUnits="userSpaceOnUse">
<stop stop-opacity="0.4"/>
<stop offset="1" stop-opacity="0"/>
</linearGradient>
</defs>
</svg>
