<?xml version="1.0" encoding="UTF-8"?>
<svg width="100px" height="118px" viewBox="0 0 100 118" version="1.1" xmlns="http://www.w3.org/2000/svg" xmlns:xlink="http://www.w3.org/1999/xlink">
    <!-- Generator: Sketch 58 (84663) - https://sketch.com -->
    <title>Drive adoption of Microsoft cloud services to enable business outcomes/drive-adoption-of-microsoft-cloud-services-to-enable-business-outcomes</title>
    <desc>Created with Sketch.</desc>
    <defs>
        <path d="M42.7425,1.49663266 C44.3745,0.498877554 46.1865,0 48,0 C49.8135,0 51.627,0.498877554 53.256,1.49663266 L90.591,24.3316189 C93.933,26.3773408 96,30.2031485 96,34.3529027 L96,79.6470973 C96,83.7952317 93.933,87.6242789 90.591,89.6683811 L53.256,112.504987 C51.627,113.501122 49.8135,114 48,114 C46.1865,114 44.3745,113.501122 42.7425,112.504987 L5.409,89.6683811 C2.0655,87.6242789 0,83.7952317 0,79.6470973 L0,34.3529027 C0,30.2031485 2.0655,26.3773408 5.409,24.3316189 L42.7425,1.49663266 Z" id="path-1"></path>
        <path d="M29.7239756,69.5555792 C28.9215501,68.9114242 29.3149989,67.6033991 30.3545577,67.5250927 L34.4092738,67.268702 L30.8937168,54.1484646 C30.757797,53.641205 31.0512071,53.1330039 31.5584666,52.9970841 L36.3681337,51.7083377 C36.8753933,51.5724179 37.3835944,51.865828 37.5195142,52.3730875 L41.0350712,65.493325 L44.6747537,63.6880077 C45.6131316,63.2363218 46.6350196,64.1651144 46.2360971,65.1311696 L41.5240775,77.0471021 C41.2618965,77.776275 40.3538314,78.0195903 39.7611475,77.5194778 L29.7239756,69.5555792 Z" id="path-3"></path>
        <filter x="-2.9%" y="-1.9%" width="105.9%" height="107.7%" filterUnits="objectBoundingBox" id="filter-4">
            <feOffset dx="0" dy="1" in="SourceAlpha" result="shadowOffsetOuter1"></feOffset>
            <feColorMatrix values="0 0 0 0 0   0 0 0 0 0   0 0 0 0 0  0 0 0 0.102072011 0" type="matrix" in="shadowOffsetOuter1"></feColorMatrix>
        </filter>
        <path d="M50.6267754,59.3630115 L60.6639473,51.399113 C61.2566312,50.8990005 62.1646963,51.1423158 62.4268773,51.8714887 L67.1388969,63.7874212 C67.5378194,64.7534764 66.5159314,65.6822689 65.5775535,65.230583 L61.937871,63.4252658 L58.422314,76.5455032 C58.2863942,77.0527628 57.7781931,77.3461729 57.2709335,77.2102531 L52.4612664,75.9215067 C51.9540069,75.7855869 51.6605968,75.2773857 51.7965166,74.7701262 L55.3120736,61.6498888 L51.2573575,61.3934981 C50.2177987,61.3151917 49.8243499,60.0071665 50.6267754,59.3630115 Z" id="path-5"></path>
        <filter x="-2.9%" y="-1.9%" width="105.9%" height="107.7%" filterUnits="objectBoundingBox" id="filter-6">
            <feOffset dx="0" dy="1" in="SourceAlpha" result="shadowOffsetOuter1"></feOffset>
            <feColorMatrix values="0 0 0 0 0   0 0 0 0 0   0 0 0 0 0  0 0 0 0.102072011 0" type="matrix" in="shadowOffsetOuter1"></feColorMatrix>
        </filter>
    </defs>
    <g id="Badges" stroke="none" stroke-width="1" fill="none" fill-rule="evenodd">
        <g id="Drive-adoption-of-Microsoft-cloud-services-to-enable-business-outcomes" transform="translate(-50.000000, -50.000000)">
            <g id="Drive-adoption-of-Microsoft-cloud-services-to-enable-business-outcomes/drive-adoption-of-microsoft-cloud-services-to-enable-business-outcomes" transform="translate(50.000000, 50.000000)">
                <g id="Mask" transform="translate(2.000000, 2.000000)">
                    <mask id="mask-2" fill="white">
                        <use xlink:href="#path-1"></use>
                    </mask>
                    <use id="Trophy-1" fill="#55A2FF" xlink:href="#path-1"></use>
                    <g id="Briefcase" mask="url(#mask-2)" fill-rule="nonzero">
                        <g transform="translate(12.666667, 66.600000)">
                            <ellipse id="Oval" fill="#0F1519" opacity="0.100000001" cx="35.231257" cy="49.5953779" rx="35.231257" ry="3.09971112"></ellipse>
                            <path d="M44.9047997,0 L25.2910795,0 C23.7672139,0 22.5325155,1.38567006 22.5325155,3.09088314 L22.5325155,14.4228567 L47.6629466,14.4228567 L47.6629466,3.09088314 C47.6633638,1.3852485 46.4282481,0 44.9047997,0 Z M45.2114923,11.6755455 L24.984387,11.6755455 L24.984387,3.09088314 C24.984387,2.90075926 25.1220857,2.74773272 25.2910795,2.74773272 L44.9047997,2.74773272 C45.0733763,2.74773272 45.2114923,2.90075926 45.2114923,3.09088314 L45.2114923,11.6755455 Z" id="Shape" fill="#CF955E"></path>
                            <path d="M6.25903207,21.4995963 L6.25903207,46.7784845 C6.25903207,48.4858053 7.62809102,49.8693676 9.31802968,49.8693676 L60.6454308,49.8693676 C62.3353695,49.8693676 63.7044284,48.4853838 63.7044284,46.7784845 L63.7044284,22.0649093 L34.9817302,27.6855782 L6.25903207,21.4995963 Z" id="Shape" fill="#E4A669"></path>
                            <path d="M60.6458481,7.16653211 L9.31802968,7.16653211 C7.62809102,7.16653211 6.25903207,8.57094885 6.25903207,10.3030486 L6.25903207,23.0245061 L34.9817302,27.8974001 L63.7048457,22.7849467 L63.7048457,10.3030486 C63.7048457,8.57094885 62.3353695,7.16653211 60.6458481,7.16653211 Z" id="Shape" fill="#F2B77D"></path>
                            <polyline id="Shape" fill="#D17D4F" opacity="0.31" points="63.7048457 24.1301352 63.7048457 22.7642785 34.9821475 27.8027721 6.25903207 23.000774 6.25903207 24.1301352 34.9821475 31.6630036"></polyline>
                            <rect id="Rectangle-path" fill="#B4804E" x="12.9353329" y="7.16653211" width="4.19271695" height="42.5835338"></rect>
                            <polygon id="Rectangle-path" fill="#B4804E" points="54.2449446 7.16653211 58.4376616 7.16653211 58.4376616 49.7500659 54.2449446 49.7500659"></polygon>
                            <path d="M38.085716,21.4895834 C38.1596542,21.2701484 38.1995793,21.0347795 38.1995793,20.7904326 C38.1995793,19.5796175 37.2170021,18.5982667 36.0046738,18.5982667 C35.2357321,18.5982667 34.5590309,18.9932173 34.1669071,19.5909411 C33.8730167,19.3814547 33.5135294,19.2581893 33.1250498,19.2581893 C32.1344553,19.2581893 31.3312574,20.0603847 31.3312574,21.0497428 C31.3312574,21.1488242 31.3392748,21.24556 31.3549046,21.3402738 C30.6914849,21.6029001 30.2221834,22.2498815 30.2221834,23.0061354 C30.2221834,23.9954936 31.0250574,24.797689 32.0159759,24.797689 L37.8573415,24.797689 C38.7763463,24.797689 39.5213168,24.0536483 39.5213168,23.1357905 C39.5213168,22.2954185 38.8965263,21.6005545 38.085716,21.4895834 Z" id="Shape" fill="#FFFFFF"></path>
                        </g>
                    </g>
                    <g id="Database-Upload" mask="url(#mask-2)">
                        <g transform="translate(0.137405, -13.500000)" id="Cloud">
                            <g>
                                <g id="Fill-1-Copy-2">
                                    <use fill="black" fill-opacity="1" filter="url(#filter-4)" xlink:href="#path-3"></use>
                                    <use fill="#EEC360" fill-rule="evenodd" xlink:href="#path-3"></use>
                                </g>
                                <path d="M40.6693518,77.7564373 L34.8130914,55.9005759 C34.5072995,54.7593448 35.5455564,53.4897661 37.1323547,53.0645848 L37.6687847,52.9208488 L41.0350712,65.4840009 L44.6747537,63.6786837 C45.6131316,63.2269978 46.6350196,64.1557904 46.2360971,65.1218456 L41.5240775,77.0377781 C41.3804014,77.4373675 41.042761,77.69105 40.6693518,77.7564373 L40.6693518,77.7564373 Z" id="Combined-Shape-Copy" fill="#DBB357"></path>
                                <path d="M47.8727953,15.629118 C49.5117419,15.629118 51.1506885,16.081388 52.6228936,16.9859281 L86.3643166,37.687562 C86.9945893,38.0745748 87.5746848,38.5318616 88.0980988,39.0474265 C85.3608836,41.4004203 81.9778715,43.0712479 78.1698552,43.7448047 C78.0217593,43.7709997 77.8747012,43.7772951 77.7275546,43.800289 C77.4702858,54.2406717 69.926229,63.402303 59.2779897,65.2857491 C49.7587981,66.9694908 40.6085165,62.3228447 36.0548135,54.3759139 C34.4666086,55.5243371 32.6134864,56.3525977 30.5577398,56.7162153 C23.2687839,58.005476 16.3193907,53.1242344 15.0341511,45.812474 C14.9974374,45.6036086 14.9840108,45.3982073 14.9566119,45.1907275 C11.5744676,44.8516147 8.4282474,43.465189 5.91734392,41.3081127 C6.75699972,39.828693 7.9372507,38.5738526 9.38127413,37.687562 L43.1213415,16.9859281 C44.5962578,16.081388 46.2338488,15.629118 47.8727953,15.629118 Z" id="Combined-Shape-Copy-2" fill-opacity="0.103459013" fill="#000000"></path>
                                <path d="M78.1698552,41.879518 C78.0217593,41.9055517 77.8747012,41.9118084 77.7275546,41.9346607 C77.4702858,52.3107756 69.926229,61.4160106 59.2779897,63.2878628 C49.7587981,64.9612399 40.6085165,60.3431972 36.0548135,52.4451853 C34.4666086,53.5865391 32.6134864,54.4097012 30.5577398,54.7710805 C23.2687839,56.0524048 16.3193907,51.2012108 15.0341511,43.9344594 C14.9974374,43.7268797 14.9840108,43.5227427 14.9566119,43.3165401 C7.83715778,42.6070979 1.76310108,37.2855 0.45976317,29.9164206 C-1.11091285,21.0358101 4.83724704,12.5668354 13.7449934,11.0009442 L70.9305254,0.948309047 C82.2679237,-1.0446903 93.0792408,6.50241429 95.07833,17.8052753 C97.0774192,29.1081362 89.5072535,39.8865186 78.1698552,41.879518 Z" id="Combined-Shape" fill="#FFFFFF"></path>
                                <g id="Fill-1-Copy">
                                    <use fill="black" fill-opacity="1" filter="url(#filter-6)" xlink:href="#path-5"></use>
                                    <use fill="#EEC360" fill-rule="evenodd" xlink:href="#path-5"></use>
                                </g>
                                <path d="M61.5721516,51.1528295 C61.9455608,51.2182168 62.2832012,51.4718993 62.4268773,51.8714887 L67.1388969,63.7874212 C67.5378194,64.7534764 66.5159314,65.6822689 65.5775535,65.230583 L61.937871,63.4252658 L58.5715845,75.9884179 L58.0351545,75.8446819 C56.4483561,75.4195006 55.4100993,74.1499219 55.7158912,73.0086909 L61.5721516,51.1528295 L61.5721516,51.1528295 Z" id="Combined-Shape" fill="#DBB357"></path>
                            </g>
                        </g>
                    </g>
                </g>
                <g id="Azure-Hex-Border" stroke="#0078D4" stroke-width="4">
                    <path d="M45.5618501,3.25844398 L45.5621963,3.25823359 L6.67338401,26.8942953 C3.79673288,28.6432593 2,31.9508238 2,35.5582677 L2,82.4417323 C2,86.0486597 3.79764663,89.3586805 6.67318764,91.1055853 L45.560618,114.742485 C46.9289662,115.572418 48.4546283,116 50,116 C51.5458817,116 53.0723633,115.572188 54.4362178,114.743457 L93.3268764,91.1055464 C96.2016145,89.3583456 98,86.0476286 98,82.4417323 L98,35.5582677 C98,31.9518547 96.202529,28.6435953 93.3268966,26.8944659 L54.4351916,3.25759524 C53.0721095,2.42798656 51.5462432,2 50,2 C48.4542664,2 46.9292165,2.42775755 45.5618501,3.25844398 Z"></path>
                </g>
            </g>
        </g>
    </g>
</svg>