<svg width="100" height="100" viewBox="0 0 100 100" fill="none" xmlns="http://www.w3.org/2000/svg">
<g clip-path="url(#clip0_932_846)">
<path d="M49.6401 96.45C40.382 96.45 31.3317 93.7047 23.6339 88.5611C15.936 83.4176 9.93624 76.1068 6.3933 67.5534C2.85036 59 1.92337 49.5881 3.72954 40.5078C5.53571 31.4276 9.99394 23.0868 16.5404 16.5403C23.0869 9.99384 31.4277 5.53562 40.5079 3.72945C49.5882 1.92327 59.0001 2.85027 67.5535 6.39321C76.1069 9.93614 83.4176 15.9359 88.5612 23.6338C93.7047 31.3316 96.4501 40.3819 96.4501 49.64C96.4505 55.7873 95.24 61.8745 92.8878 67.5539C90.5355 73.2334 87.0875 78.3938 82.7407 82.7406C78.3939 87.0874 73.2335 90.5354 67.554 92.8877C61.8746 95.2399 55.7874 96.4504 49.6401 96.45V96.45Z" fill="url(#paint0_linear_932_846)"/>
<path fill-rule="evenodd" clip-rule="evenodd" d="M95.54 49.64C95.54 58.7182 92.848 67.5925 87.8045 75.1407C82.7609 82.6889 75.5923 88.572 67.2052 92.0461C58.818 95.5201 49.5891 96.4291 40.6854 94.658C31.7816 92.887 23.603 88.5154 17.1838 82.0962C10.7646 75.677 6.39302 67.4984 4.62196 58.5946C2.85089 49.6909 3.75987 40.462 7.23393 32.0748C10.708 23.6877 16.5911 16.5191 24.1393 11.4755C31.6875 6.43199 40.5618 3.74 49.64 3.74C55.6677 3.73998 61.6363 4.9272 67.2052 7.23388C72.774 9.54057 77.834 12.9215 82.0963 17.1837C86.3585 21.446 89.7394 26.5059 92.0461 32.0748C94.3528 37.6437 95.54 43.6123 95.54 49.64V49.64ZM49.64 3.62732e-07C59.4579 3.62732e-07 69.0553 2.91134 77.2185 8.36585C85.3818 13.8204 91.7442 21.5731 95.5014 30.6436C99.2585 39.7141 100.242 49.6951 98.3262 59.3243C96.4108 68.9535 91.6831 77.7985 84.7408 84.7408C77.7985 91.6831 68.9535 96.4108 59.3243 98.3262C49.6951 100.242 39.7141 99.2585 30.6436 95.5014C21.5731 91.7442 13.8204 85.3818 8.36585 77.2185C2.91134 69.0553 3.62732e-07 59.4579 3.62732e-07 49.64C-0.000787738 43.121 1.28265 36.6656 3.77702 30.6427C6.27138 24.6197 9.9278 19.1471 14.5375 14.5375C19.1471 9.9278 24.6197 6.27138 30.6427 3.77702C36.6656 1.28265 43.121 -0.000787738 49.64 3.62732e-07V3.62732e-07Z" fill="#F2F1F0"/>
<path fill-rule="evenodd" clip-rule="evenodd" d="M92.7296 49.6401C92.7296 58.1625 90.2024 66.4935 85.4676 73.5796C80.7328 80.6657 74.0031 86.1887 66.1294 89.4501C58.2557 92.7114 49.5918 93.5648 41.2331 91.9021C32.8745 90.2395 25.1966 86.1356 19.1703 80.1093C13.1441 74.0831 9.04017 66.4052 7.37753 58.0465C5.7149 49.6879 6.56822 41.0239 9.8296 33.1503C13.091 25.2766 18.6139 18.5469 25.7 13.8121C32.7862 9.07727 41.1172 6.55009 49.6396 6.55009C55.2983 6.54974 60.9017 7.66407 66.1298 9.82942C71.3579 11.9948 76.1082 15.1687 80.1096 19.1701C84.1109 23.1714 87.2849 27.9218 89.4502 33.1499C91.6156 38.3779 92.7299 43.9813 92.7296 49.6401V49.6401ZM49.6396 2.81009C58.9017 2.81009 67.9558 5.55662 75.6569 10.7024C83.3581 15.8481 89.3604 23.162 92.9049 31.719C96.4493 40.2761 97.3767 49.692 95.5697 58.7762C93.7628 67.8603 89.3027 76.2046 82.7534 82.7539C76.2041 89.3032 67.8598 93.7633 58.7757 95.5703C49.6915 97.3772 40.2756 96.4498 31.7185 92.9054C23.1614 89.3609 15.8476 83.3586 10.7018 75.6574C5.5561 67.9563 2.80957 58.9022 2.80957 49.6401C2.81076 37.2204 7.745 25.3097 16.5271 16.5276C25.3091 7.7455 37.2198 2.81125 49.6396 2.81006V2.81009Z" fill="#0078D4"/>
<path fill-rule="evenodd" clip-rule="evenodd" d="M92.7637 49.6401C92.7637 58.1625 90.2366 66.4935 85.5018 73.5796C80.767 80.6657 74.0372 86.1887 66.1636 89.4501C58.2899 92.7114 49.6259 93.5648 41.2673 91.9021C32.9087 90.2395 25.2308 86.1356 19.2045 80.1093C13.1783 74.0831 9.07435 66.4052 7.41171 58.0465C5.74908 49.6879 6.6024 41.0239 9.86378 33.1503C13.1252 25.2766 18.6481 18.5469 25.7342 13.8121C32.8203 9.07727 41.1514 6.55009 49.6738 6.55009C55.3325 6.54974 60.9359 7.66407 66.164 9.82942C71.3921 11.9948 76.1424 15.1687 80.1437 19.1701C84.1451 23.1714 87.3191 27.9218 89.4844 33.1499C91.6498 38.3779 92.7641 43.9813 92.7637 49.6401V49.6401ZM49.6738 2.81009C58.9359 2.81009 67.9899 5.55662 75.6911 10.7024C83.3923 15.8481 89.3946 23.162 92.939 31.719C96.4835 40.2761 97.4109 49.692 95.6039 58.7762C93.797 67.8603 89.3369 76.2046 82.7876 82.7539C76.2383 89.3032 67.894 93.7633 58.8098 95.5703C49.7257 97.3772 40.3097 96.4498 31.7527 92.9054C23.1956 89.3609 15.8818 83.3586 10.736 75.6574C5.59028 67.9563 2.84375 58.9022 2.84375 49.6401C2.84494 37.2204 7.77918 25.3097 16.5612 16.5276C25.3433 7.7455 37.254 2.81125 49.6738 2.81006V2.81009Z" fill="#0078D4"/>
<path d="M27.3015 29.0223C26.2253 29.0255 25.194 29.4544 24.4331 30.2154C23.6721 30.9763 23.2431 32.0076 23.24 33.0838V61.5141H76.0391V33.0838C76.0359 32.0076 75.607 30.9764 74.846 30.2154C74.085 29.4544 73.0538 29.0255 71.9776 29.0223H27.3015ZM71.9776 31.053C72.516 31.0537 73.0321 31.2679 73.4127 31.6486C73.7934 32.0293 74.0076 32.5454 74.0083 33.0837V59.4833H25.2707V33.0838C25.2713 32.5453 25.4854 32.0291 25.8661 31.6484C26.2468 31.2677 26.7631 31.0535 27.3015 31.053H71.9776Z" fill="url(#paint1_linear_932_846)"/>
<path d="M25.2708 33.0838C25.2713 32.5453 25.4854 32.0291 25.8661 31.6484C26.2469 31.2677 26.7631 31.0535 27.3015 31.053H71.9776C72.516 31.0537 73.0321 31.2679 73.4128 31.6486C73.7935 32.0292 74.0076 32.5454 74.0083 33.0837V59.4833H25.2708V33.0838Z" fill="url(#paint2_linear_932_846)"/>
<path d="M17.1477 61.5141V62.5294C17.1509 63.6056 17.5798 64.6368 18.3408 65.3978C19.1018 66.1588 20.133 66.5877 21.2092 66.5909H78.0697C79.1459 66.5877 80.1771 66.1588 80.9381 65.3978C81.6991 64.6368 82.128 63.6056 82.1312 62.5294V61.5141H17.1477Z" fill="url(#paint3_linear_932_846)"/>
<path fill-rule="evenodd" clip-rule="evenodd" d="M45.5781 63.5448H53.701C54.2395 63.5446 54.756 63.3306 55.1367 62.9498C55.5175 62.569 55.7316 62.0526 55.7318 61.5141H43.5474C43.5474 62.0526 43.7613 62.5691 44.1422 62.95C44.523 63.3308 45.0395 63.5448 45.5781 63.5448V63.5448Z" fill="#003067"/>
<path d="M51.9929 43.9376C51.9929 44.403 51.8549 44.8581 51.5963 45.2451C51.3377 45.6321 50.9701 45.9338 50.5401 46.1119C50.11 46.29 49.6368 46.3366 49.1803 46.2458C48.7238 46.155 48.3044 45.9309 47.9753 45.6017C47.6461 45.2726 47.422 44.8532 47.3312 44.3967C47.2404 43.9402 47.287 43.467 47.4651 43.0369C47.6432 42.6069 47.9449 42.2393 48.3319 41.9807C48.719 41.7221 49.174 41.5841 49.6395 41.5841C50.2634 41.5848 50.8616 41.833 51.3028 42.2742C51.744 42.7154 51.9922 43.3136 51.9929 43.9376V43.9376ZM56.3424 42.67L55.248 42.4266C55.1347 42.3854 55.0423 42.3012 54.9908 42.1922C54.9872 42.1802 54.9828 42.1684 54.9778 42.1569L54.6758 41.4231C54.6707 41.4104 54.6648 41.3977 54.6584 41.3854C54.6175 41.2729 54.6229 41.1487 54.6735 41.0402L55.2755 40.0941C55.3986 39.8892 55.4512 39.6497 55.4251 39.4121C55.3991 39.1745 55.2958 38.952 55.1312 38.7787L54.7982 38.4457C54.6233 38.2839 54.4011 38.1826 54.1643 38.1566C53.9275 38.1307 53.6886 38.1814 53.4828 38.3015L52.5365 38.9033C52.4762 38.9334 52.4093 38.948 52.3419 38.9456C52.2904 38.9475 52.2391 38.9383 52.1915 38.9185C52.1792 38.912 52.1666 38.9062 52.1536 38.9011L51.42 38.5989C51.4085 38.5941 51.3967 38.5899 51.3847 38.5862C51.2757 38.5346 51.1915 38.4421 51.1503 38.3288L50.9072 37.2346C50.8494 37.0027 50.7171 36.796 50.5306 36.6464C50.3441 36.4968 50.1137 36.4125 49.8747 36.4064H49.404C49.1651 36.4125 48.9347 36.4967 48.7482 36.6463C48.5617 36.7959 48.4295 37.0025 48.3718 37.2344L48.1284 38.3293C48.087 38.4423 48.0028 38.5346 47.894 38.5863C47.882 38.5898 47.8702 38.5943 47.8585 38.599L47.1249 38.9012C47.112 38.9063 47.0993 38.9121 47.087 38.9186C47.0394 38.9384 46.9881 38.9476 46.9366 38.9456C46.8692 38.9479 46.8022 38.9333 46.7418 38.9033L45.7959 38.3017C45.5901 38.1817 45.3512 38.131 45.1144 38.157C44.8776 38.183 44.6554 38.2843 44.4805 38.446L44.1475 38.7788C43.9829 38.9521 43.8796 39.1746 43.8535 39.4123C43.8275 39.6499 43.8801 39.8895 44.0033 40.0944L44.6053 41.0402C44.6556 41.1488 44.661 41.2728 44.6203 41.3853C44.614 41.3977 44.6078 41.4104 44.6027 41.4231L44.3007 42.157C44.296 42.1685 44.2915 42.1803 44.2877 42.1923C44.2362 42.3013 44.1438 42.3856 44.0305 42.4269L42.9363 42.6698C42.7043 42.7276 42.4977 42.8598 42.3481 43.0463C42.1985 43.2328 42.1142 43.4633 42.1082 43.7023V44.173C42.1142 44.4119 42.1985 44.6423 42.3481 44.8287C42.4976 45.0152 42.7042 45.1474 42.9362 45.2052L44.0308 45.4483C44.1439 45.4897 44.2362 45.574 44.2878 45.6829C44.2915 45.6949 44.296 45.7067 44.3007 45.7183L44.6027 46.4521C44.6079 46.4649 44.6138 46.4775 44.6203 46.4897C44.6611 46.6023 44.6556 46.7264 44.605 46.835L44.0033 47.7808C43.88 47.9857 43.8274 48.2253 43.8534 48.463C43.8795 48.7006 43.9828 48.9232 44.1475 49.0964L44.4805 49.4294C44.6555 49.5911 44.8777 49.6924 45.1146 49.7184C45.3514 49.7443 45.5903 49.6936 45.7961 49.5737L46.7415 48.9719C46.802 48.9418 46.8691 48.9273 46.9366 48.9296C46.9881 48.9275 47.0395 48.9367 47.087 48.9566C47.0995 48.9627 47.112 48.9689 47.1249 48.974L47.8585 49.2762L47.894 49.2889C48.0029 49.3406 48.0871 49.433 48.1284 49.5462L48.3718 50.6405C48.4295 50.8725 48.5617 51.0792 48.7482 51.2288C48.9346 51.3784 49.165 51.4627 49.404 51.4687H49.8747C50.1137 51.4626 50.3441 51.3783 50.5305 51.2287C50.717 51.0791 50.8492 50.8725 50.907 50.6405L51.1503 49.5462C51.1916 49.433 51.2758 49.3405 51.3847 49.2889L51.42 49.2762L52.1536 48.974C52.1666 48.9689 52.1793 48.9627 52.1915 48.9566C52.239 48.9368 52.2902 48.9276 52.3416 48.9296C52.4091 48.9272 52.4761 48.9417 52.5365 48.9719L53.4826 49.5735C53.6884 49.6935 53.9273 49.7444 54.1642 49.7184C54.401 49.6925 54.6233 49.5912 54.7982 49.4295L55.131 49.0967C55.2957 48.9234 55.399 48.7008 55.4251 48.4631C55.4512 48.2255 55.3987 47.9858 55.2755 47.7808L54.6735 46.835C54.6484 46.7813 54.6342 46.7232 54.6316 46.664C54.6291 46.6048 54.6382 46.5457 54.6584 46.49C54.6648 46.4775 54.6707 46.465 54.6758 46.4523L54.9778 45.7183C54.9829 45.7068 54.9872 45.695 54.9908 45.683C55.0424 45.574 55.1349 45.4897 55.2483 45.4483L56.3422 45.2052C56.5742 45.1476 56.7809 45.0153 56.9305 44.8289C57.0802 44.6424 57.1645 44.412 57.1706 44.173V43.7023C57.1646 43.4633 57.0803 43.2329 56.9307 43.0464C56.7811 42.8599 56.5744 42.7277 56.3424 42.67V42.67Z" fill="url(#paint4_linear_932_846)"/>
<path opacity="0.2" d="M28.8157 29.0223V32.2193C28.8168 33.2798 29.2386 34.2966 29.9885 35.0465C30.7384 35.7964 31.7552 36.2182 32.8157 36.2193H66.0569C67.1174 36.2182 68.1342 35.7964 68.8841 35.0465C69.634 34.2966 70.0558 33.2798 70.0569 32.2193V29.0223H28.8157Z" fill="#003067"/>
<path opacity="0.2" fill-rule="evenodd" clip-rule="evenodd" d="M33.8294 66.5909H65.4495V64.5279C65.4484 64.2178 65.4081 63.909 65.3294 63.609L65.2903 63.4708C65.2214 63.2379 65.1308 63.012 65.0198 62.796C65.3028 62.2575 65.4503 61.6582 65.4495 61.0499V56.7023C65.4484 56.3921 65.4081 56.0833 65.3294 55.7833L65.2903 55.648C65.0647 54.8758 64.5956 54.1973 63.9529 53.7135C63.3102 53.2297 62.5283 52.9666 61.7239 52.9635H37.5559C36.5662 52.9663 35.6181 53.3615 34.9194 54.0625C34.2208 54.7636 33.8288 55.7131 33.8293 56.7027V61.0504C33.8309 61.6541 33.979 62.2485 34.261 62.7823C33.9768 63.3204 33.8286 63.9199 33.8293 64.5284L33.8294 66.5909Z" fill="#003067"/>
<path d="M42.5684 66.7107H33.382C32.7894 66.7107 32.2211 66.4753 31.8021 66.0563C31.3831 65.6373 31.1477 65.069 31.1477 64.4764V46.1719C31.1477 45.5793 31.3831 45.011 31.8021 44.592C32.2211 44.173 32.7894 43.9376 33.382 43.9376H37.3018" stroke="white" stroke-miterlimit="10"/>
<path d="M35.021 41.656L37.302 43.938L35.021 46.218" stroke="white" stroke-linecap="round" stroke-linejoin="round"/>
<path d="M66.0566 18.9942H32.8157C31.7111 18.9942 30.8157 19.8896 30.8157 20.9942V32.2195C30.8157 33.324 31.7111 34.2195 32.8157 34.2195H66.0566C67.1612 34.2195 68.0566 33.324 68.0566 32.2195V20.9942C68.0566 19.8896 67.1612 18.9942 66.0566 18.9942Z" fill="url(#paint5_linear_932_846)"/>
<path d="M66.0571 31.8894V21.3242C66.0571 21.1419 65.9093 20.994 65.727 20.994L33.1461 20.994C32.9637 20.994 32.8159 21.1419 32.8159 21.3242V31.8894C32.8159 32.0718 32.9637 32.2196 33.1461 32.2196H65.727C65.9093 32.2196 66.0571 32.0718 66.0571 31.8894Z" fill="#F2F2F2"/>
<path d="M37.4095 21.8688H34.1781C34.0343 21.8688 33.9177 21.9854 33.9177 22.1292V23.4766C33.9177 23.6204 34.0343 23.737 34.1781 23.737H37.4095C37.5533 23.737 37.6699 23.6204 37.6699 23.4766V22.1292C37.6699 21.9854 37.5533 21.8688 37.4095 21.8688Z" fill="white"/>
<path d="M39.777 21.8688H38.4203C38.2791 21.8688 38.1646 21.9833 38.1646 22.1246V23.4813C38.1646 23.6225 38.2791 23.737 38.4203 23.737H39.777C39.9182 23.737 40.0327 23.6225 40.0327 23.4813V22.1246C40.0327 21.9833 39.9182 21.8688 39.777 21.8688Z" fill="white"/>
<path d="M42.0426 21.8688H40.6859C40.5447 21.8688 40.4302 21.9833 40.4302 22.1246V23.4813C40.4302 23.6225 40.5447 23.737 40.6859 23.737H42.0426C42.1839 23.737 42.2984 23.6225 42.2984 23.4813V22.1246C42.2984 21.9833 42.1839 21.8688 42.0426 21.8688Z" fill="white"/>
<path d="M44.3083 21.8688H42.9515C42.8103 21.8688 42.6958 21.9833 42.6958 22.1246V23.4813C42.6958 23.6225 42.8103 23.737 42.9515 23.737H44.3083C44.4495 23.737 44.564 23.6225 44.564 23.4813V22.1246C44.564 21.9833 44.4495 21.8688 44.3083 21.8688Z" fill="white"/>
<path d="M46.5739 21.8688H45.2172C45.0759 21.8688 44.9614 21.9833 44.9614 22.1246V23.4813C44.9614 23.6225 45.0759 23.737 45.2172 23.737H46.5739C46.7151 23.737 46.8296 23.6225 46.8296 23.4813V22.1246C46.8296 21.9833 46.7151 21.8688 46.5739 21.8688Z" fill="white"/>
<path d="M48.8395 21.8688H47.4828C47.3416 21.8688 47.2271 21.9833 47.2271 22.1246V23.4813C47.2271 23.6225 47.3416 23.737 47.4828 23.737H48.8395C48.9807 23.737 49.0952 23.6225 49.0952 23.4813V22.1246C49.0952 21.9833 48.9807 21.8688 48.8395 21.8688Z" fill="white"/>
<path d="M51.1051 21.8688H49.7484C49.6072 21.8688 49.4927 21.9833 49.4927 22.1246V23.4813C49.4927 23.6225 49.6072 23.737 49.7484 23.737H51.1051C51.2464 23.737 51.3609 23.6225 51.3609 23.4813V22.1246C51.3609 21.9833 51.2464 21.8688 51.1051 21.8688Z" fill="white"/>
<path d="M53.3708 21.8688H52.014C51.8728 21.8688 51.7583 21.9833 51.7583 22.1246V23.4813C51.7583 23.6225 51.8728 23.737 52.014 23.737H53.3708C53.512 23.737 53.6265 23.6225 53.6265 23.4813V22.1246C53.6265 21.9833 53.512 21.8688 53.3708 21.8688Z" fill="white"/>
<path d="M55.6364 21.8688H54.2797C54.1384 21.8688 54.0239 21.9833 54.0239 22.1246V23.4813C54.0239 23.6225 54.1384 23.737 54.2797 23.737H55.6364C55.7776 23.737 55.8921 23.6225 55.8921 23.4813V22.1246C55.8921 21.9833 55.7776 21.8688 55.6364 21.8688Z" fill="white"/>
<path d="M57.902 21.8688H56.5453C56.4041 21.8688 56.2896 21.9833 56.2896 22.1246V23.4813C56.2896 23.6225 56.4041 23.737 56.5453 23.737H57.902C58.0432 23.737 58.1577 23.6225 58.1577 23.4813V22.1246C58.1577 21.9833 58.0432 21.8688 57.902 21.8688Z" fill="white"/>
<path d="M60.1676 21.8688H58.8109C58.6697 21.8688 58.5552 21.9833 58.5552 22.1246V23.4813C58.5552 23.6225 58.6697 23.737 58.8109 23.737H60.1676C60.3089 23.737 60.4234 23.6225 60.4234 23.4813V22.1246C60.4234 21.9833 60.3089 21.8688 60.1676 21.8688Z" fill="white"/>
<path d="M62.4333 21.8688H61.0765C60.9353 21.8688 60.8208 21.9833 60.8208 22.1246V23.4813C60.8208 23.6225 60.9353 23.737 61.0765 23.737H62.4333C62.5745 23.737 62.689 23.6225 62.689 23.4813V22.1246C62.689 21.9833 62.5745 21.8688 62.4333 21.8688Z" fill="white"/>
<path d="M64.6989 21.8688H63.3422C63.2009 21.8688 63.0864 21.9833 63.0864 22.1246V23.4813C63.0864 23.6225 63.2009 23.737 63.3422 23.737H64.6989C64.8401 23.737 64.9546 23.6225 64.9546 23.4813V22.1246C64.9546 21.9833 64.8401 21.8688 64.6989 21.8688Z" fill="white"/>
<path d="M36.5118 24.355H34.1781C34.0343 24.355 33.9177 24.4716 33.9177 24.6154V25.9628C33.9177 26.1066 34.0343 26.2232 34.1781 26.2232H36.5118C36.6556 26.2232 36.7722 26.1066 36.7722 25.9628V24.6154C36.7722 24.4716 36.6556 24.355 36.5118 24.355Z" fill="white"/>
<path d="M38.7865 24.355H37.4298C37.2886 24.355 37.1741 24.4695 37.1741 24.6107V25.9675C37.1741 26.1087 37.2886 26.2232 37.4298 26.2232H38.7865C38.9278 26.2232 39.0423 26.1087 39.0423 25.9675V24.6107C39.0423 24.4695 38.9278 24.355 38.7865 24.355Z" fill="white"/>
<path d="M41.0521 24.355H39.6954C39.5542 24.355 39.4397 24.4695 39.4397 24.6107V25.9675C39.4397 26.1087 39.5542 26.2232 39.6954 26.2232H41.0521C41.1934 26.2232 41.3079 26.1087 41.3079 25.9675V24.6107C41.3079 24.4695 41.1934 24.355 41.0521 24.355Z" fill="white"/>
<path d="M43.3178 24.355H41.9611C41.8198 24.355 41.7053 24.4695 41.7053 24.6107V25.9675C41.7053 26.1087 41.8198 26.2232 41.9611 26.2232H43.3178C43.459 26.2232 43.5735 26.1087 43.5735 25.9675V24.6107C43.5735 24.4695 43.459 24.355 43.3178 24.355Z" fill="white"/>
<path d="M45.5834 24.355H44.2267C44.0855 24.355 43.9709 24.4695 43.9709 24.6107V25.9675C43.9709 26.1087 44.0855 26.2232 44.2267 26.2232H45.5834C45.7246 26.2232 45.8391 26.1087 45.8391 25.9675V24.6107C45.8391 24.4695 45.7246 24.355 45.5834 24.355Z" fill="white"/>
<path d="M47.849 24.355H46.4923C46.3511 24.355 46.2366 24.4695 46.2366 24.6107V25.9675C46.2366 26.1087 46.3511 26.2232 46.4923 26.2232H47.849C47.9903 26.2232 48.1048 26.1087 48.1048 25.9675V24.6107C48.1048 24.4695 47.9903 24.355 47.849 24.355Z" fill="white"/>
<path d="M50.1146 24.355H48.7579C48.6167 24.355 48.5022 24.4695 48.5022 24.6107V25.9675C48.5022 26.1087 48.6167 26.2232 48.7579 26.2232H50.1146C50.2559 26.2232 50.3704 26.1087 50.3704 25.9675V24.6107C50.3704 24.4695 50.2559 24.355 50.1146 24.355Z" fill="white"/>
<path d="M52.3803 24.355H51.0236C50.8823 24.355 50.7678 24.4695 50.7678 24.6107V25.9675C50.7678 26.1087 50.8823 26.2232 51.0236 26.2232H52.3803C52.5215 26.2232 52.636 26.1087 52.636 25.9675V24.6107C52.636 24.4695 52.5215 24.355 52.3803 24.355Z" fill="white"/>
<path d="M54.6459 24.355H53.2892C53.148 24.355 53.0334 24.4695 53.0334 24.6107V25.9675C53.0334 26.1087 53.148 26.2232 53.2892 26.2232H54.6459C54.7871 26.2232 54.9016 26.1087 54.9016 25.9675V24.6107C54.9016 24.4695 54.7871 24.355 54.6459 24.355Z" fill="white"/>
<path d="M56.9115 24.355H55.5548C55.4136 24.355 55.2991 24.4695 55.2991 24.6107V25.9675C55.2991 26.1087 55.4136 26.2232 55.5548 26.2232H56.9115C57.0528 26.2232 57.1673 26.1087 57.1673 25.9675V24.6107C57.1673 24.4695 57.0528 24.355 56.9115 24.355Z" fill="white"/>
<path d="M59.1771 24.355H57.8204C57.6792 24.355 57.5647 24.4695 57.5647 24.6107V25.9675C57.5647 26.1087 57.6792 26.2232 57.8204 26.2232H59.1771C59.3184 26.2232 59.4329 26.1087 59.4329 25.9675V24.6107C59.4329 24.4695 59.3184 24.355 59.1771 24.355Z" fill="white"/>
<path d="M61.4428 24.355H60.0861C59.9448 24.355 59.8303 24.4695 59.8303 24.6107V25.9675C59.8303 26.1087 59.9448 26.2232 60.0861 26.2232H61.4428C61.584 26.2232 61.6985 26.1087 61.6985 25.9675V24.6107C61.6985 24.4695 61.584 24.355 61.4428 24.355Z" fill="white"/>
<path d="M37.4095 26.8412H34.1781C34.0343 26.8412 33.9177 26.9578 33.9177 27.1016V28.449C33.9177 28.5928 34.0343 28.7094 34.1781 28.7094H37.4095C37.5533 28.7094 37.6699 28.5928 37.6699 28.449V27.1016C37.6699 26.9578 37.5533 26.8412 37.4095 26.8412Z" fill="white"/>
<path d="M39.777 26.8412H38.4203C38.2791 26.8412 38.1646 26.9557 38.1646 27.0969V28.4537C38.1646 28.5949 38.2791 28.7094 38.4203 28.7094H39.777C39.9182 28.7094 40.0327 28.5949 40.0327 28.4537V27.0969C40.0327 26.9557 39.9182 26.8412 39.777 26.8412Z" fill="white"/>
<path d="M42.0426 26.8412H40.6859C40.5447 26.8412 40.4302 26.9557 40.4302 27.0969V28.4537C40.4302 28.5949 40.5447 28.7094 40.6859 28.7094H42.0426C42.1839 28.7094 42.2984 28.5949 42.2984 28.4537V27.0969C42.2984 26.9557 42.1839 26.8412 42.0426 26.8412Z" fill="white"/>
<path d="M44.3083 26.8412H42.9515C42.8103 26.8412 42.6958 26.9557 42.6958 27.0969V28.4537C42.6958 28.5949 42.8103 28.7094 42.9515 28.7094H44.3083C44.4495 28.7094 44.564 28.5949 44.564 28.4537V27.0969C44.564 26.9557 44.4495 26.8412 44.3083 26.8412Z" fill="white"/>
<path d="M46.5739 26.8412H45.2172C45.0759 26.8412 44.9614 26.9557 44.9614 27.0969V28.4537C44.9614 28.5949 45.0759 28.7094 45.2172 28.7094H46.5739C46.7151 28.7094 46.8296 28.5949 46.8296 28.4537V27.0969C46.8296 26.9557 46.7151 26.8412 46.5739 26.8412Z" fill="white"/>
<path d="M48.8395 26.8412H47.4828C47.3416 26.8412 47.2271 26.9557 47.2271 27.0969V28.4537C47.2271 28.5949 47.3416 28.7094 47.4828 28.7094H48.8395C48.9807 28.7094 49.0952 28.5949 49.0952 28.4537V27.0969C49.0952 26.9557 48.9807 26.8412 48.8395 26.8412Z" fill="white"/>
<path d="M51.1051 26.8412H49.7484C49.6072 26.8412 49.4927 26.9557 49.4927 27.0969V28.4537C49.4927 28.5949 49.6072 28.7094 49.7484 28.7094H51.1051C51.2464 28.7094 51.3609 28.5949 51.3609 28.4537V27.0969C51.3609 26.9557 51.2464 26.8412 51.1051 26.8412Z" fill="white"/>
<path d="M53.3708 26.8412H52.014C51.8728 26.8412 51.7583 26.9557 51.7583 27.0969V28.4537C51.7583 28.5949 51.8728 28.7094 52.014 28.7094H53.3708C53.512 28.7094 53.6265 28.5949 53.6265 28.4537V27.0969C53.6265 26.9557 53.512 26.8412 53.3708 26.8412Z" fill="white"/>
<path d="M55.6364 26.8412H54.2797C54.1384 26.8412 54.0239 26.9557 54.0239 27.0969V28.4537C54.0239 28.5949 54.1384 28.7094 54.2797 28.7094H55.6364C55.7776 28.7094 55.8921 28.5949 55.8921 28.4537V27.0969C55.8921 26.9557 55.7776 26.8412 55.6364 26.8412Z" fill="white"/>
<path d="M57.902 26.8412H56.5453C56.4041 26.8412 56.2896 26.9557 56.2896 27.0969V28.4537C56.2896 28.5949 56.4041 28.7094 56.5453 28.7094H57.902C58.0432 28.7094 58.1577 28.5949 58.1577 28.4537V27.0969C58.1577 26.9557 58.0432 26.8412 57.902 26.8412Z" fill="white"/>
<path d="M60.1676 26.8412H58.8109C58.6697 26.8412 58.5552 26.9557 58.5552 27.0969V28.4537C58.5552 28.5949 58.6697 28.7094 58.8109 28.7094H60.1676C60.3089 28.7094 60.4234 28.5949 60.4234 28.4537V27.0969C60.4234 26.9557 60.3089 26.8412 60.1676 26.8412Z" fill="white"/>
<path d="M62.4333 26.8412H61.0765C60.9353 26.8412 60.8208 26.9557 60.8208 27.0969V28.4537C60.8208 28.5949 60.9353 28.7094 61.0765 28.7094H62.4333C62.5745 28.7094 62.689 28.5949 62.689 28.4537V27.0969C62.689 26.9557 62.5745 26.8412 62.4333 26.8412Z" fill="white"/>
<path d="M64.6989 26.8412H63.3422C63.2009 26.8412 63.0864 26.9557 63.0864 27.0969V28.4537C63.0864 28.5949 63.2009 28.7094 63.3422 28.7094H64.6989C64.8401 28.7094 64.9546 28.5949 64.9546 28.4537V27.0969C64.9546 26.9557 64.8401 26.8412 64.6989 26.8412Z" fill="white"/>
<path d="M38.7865 29.3274H37.4298C37.2886 29.3274 37.1741 29.4419 37.1741 29.5831V30.9398C37.1741 31.0811 37.2886 31.1956 37.4298 31.1956H38.7865C38.9278 31.1956 39.0423 31.0811 39.0423 30.9398V29.5831C39.0423 29.4419 38.9278 29.3274 38.7865 29.3274Z" fill="white"/>
<path d="M42.0426 29.3274H39.6859C39.5447 29.3274 39.4302 29.4419 39.4302 29.5831V30.9398C39.4302 31.0811 39.5447 31.1956 39.6859 31.1956H42.0426C42.1839 31.1956 42.2984 31.0811 42.2984 30.9398V29.5831C42.2984 29.4419 42.1839 29.3274 42.0426 29.3274Z" fill="white"/>
<path d="M36.5302 29.3274H34.1735C34.0322 29.3274 33.9177 29.4419 33.9177 29.5831V30.9398C33.9177 31.0811 34.0322 31.1956 34.1735 31.1956H36.5302C36.6714 31.1956 36.7859 31.0811 36.7859 30.9398V29.5831C36.7859 29.4419 36.6714 29.3274 36.5302 29.3274Z" fill="white"/>
<path d="M55.6364 29.3274H42.9515C42.8103 29.3274 42.6958 29.4419 42.6958 29.5831V30.9398C42.6958 31.0811 42.8103 31.1956 42.9515 31.1956H55.6364C55.7776 31.1956 55.8921 31.0811 55.8921 30.9398V29.5831C55.8921 29.4419 55.7776 29.3274 55.6364 29.3274Z" fill="white"/>
<path d="M57.902 29.3274H56.5453C56.4041 29.3274 56.2896 29.4419 56.2896 29.5831V30.9398C56.2896 31.0811 56.4041 31.1956 56.5453 31.1956H57.902C58.0432 31.1956 58.1577 31.0811 58.1577 30.9398V29.5831C58.1577 29.4419 58.0432 29.3274 57.902 29.3274Z" fill="white"/>
<path d="M60.1676 29.3274H58.8109C58.6697 29.3274 58.5552 29.4419 58.5552 29.5831V30.9398C58.5552 31.0811 58.6697 31.1956 58.8109 31.1956H60.1676C60.3089 31.1956 60.4234 31.0811 60.4234 30.9398V29.5831C60.4234 29.4419 60.3089 29.3274 60.1676 29.3274Z" fill="white"/>
<path d="M62.4333 29.3274H61.0765C60.9353 29.3274 60.8208 29.4419 60.8208 29.5831V30.9398C60.8208 31.0811 60.9353 31.1956 61.0765 31.1956H62.4333C62.5745 31.1956 62.689 31.0811 62.689 30.9398V29.5831C62.689 29.4419 62.5745 29.3274 62.4333 29.3274Z" fill="white"/>
<path d="M64.6989 29.3274H63.3422C63.2009 29.3274 63.0864 29.4419 63.0864 29.5831V30.9398C63.0864 31.0811 63.2009 31.1956 63.3422 31.1956H64.6989C64.8401 31.1956 64.9546 31.0811 64.9546 30.9398V29.5831C64.9546 29.4419 64.8401 29.3274 64.6989 29.3274Z" fill="white"/>
<path d="M64.6148 24.355H62.2811C62.1373 24.355 62.0208 24.4716 62.0208 24.6154V25.9628C62.0208 26.1066 62.1373 26.2232 62.2811 26.2232H64.6148C64.7586 26.2232 64.8752 26.1066 64.8752 25.9628V24.6154C64.8752 24.4716 64.7586 24.355 64.6148 24.355Z" fill="white"/>
<path d="M60.7644 43.9376H62.5412C63.1338 43.9376 63.7021 43.7022 64.1211 43.2832C64.5401 42.8641 64.7755 42.2958 64.7755 41.7033V38.6481" stroke="white" stroke-miterlimit="10"/>
<path d="M67.0571 40.929L64.7751 38.648L62.4951 40.929" stroke="white" stroke-linecap="round" stroke-linejoin="round"/>
<path d="M61.7236 70.6151L37.5556 70.6155C37.0961 70.6172 36.6561 70.8014 36.3324 71.1275C36.0086 71.4536 35.8277 71.895 35.8294 72.3545V76.7021C35.8277 77.1616 36.0086 77.603 36.3324 77.9291C36.6561 78.2552 37.0961 78.4394 37.5556 78.4411H61.7236C62.1831 78.4393 62.6232 78.255 62.9469 77.9288C63.2706 77.6026 63.4515 77.1612 63.4498 76.7016V72.3541C63.4515 71.8946 63.2706 71.4532 62.9468 71.1271C62.6231 70.801 62.1831 70.6168 61.7236 70.6151V70.6151Z" fill="url(#paint6_linear_932_846)"/>
<path fill-rule="evenodd" clip-rule="evenodd" d="M42.1244 75.1208C41.9626 74.9571 41.8718 74.7363 41.8718 74.5061C41.8718 74.2759 41.9626 74.055 42.1244 73.8913C42.2043 73.8107 42.2994 73.7467 42.4041 73.703C42.5089 73.6593 42.6212 73.6368 42.7347 73.6368C42.8482 73.6368 42.9606 73.6593 43.0653 73.703C43.17 73.7467 43.2651 73.8107 43.345 73.8913C43.5069 74.0549 43.5977 74.2759 43.5977 74.5061C43.5977 74.7363 43.5069 74.9572 43.345 75.1208C43.2651 75.2015 43.1701 75.2655 43.0653 75.3093C42.9606 75.353 42.8482 75.3755 42.7347 75.3755C42.6212 75.3755 42.5088 75.353 42.4041 75.3093C42.2993 75.2655 42.2043 75.2015 42.1244 75.1208V75.1208Z" fill="#0078D4"/>
<path fill-rule="evenodd" clip-rule="evenodd" d="M39.5381 75.1287C39.3764 74.965 39.2856 74.7441 39.2856 74.5139C39.2856 74.2838 39.3764 74.0629 39.5381 73.8992C39.618 73.8186 39.7131 73.7546 39.8179 73.7109C39.9227 73.6672 40.0351 73.6447 40.1486 73.6447C40.2621 73.6447 40.3745 73.6672 40.4793 73.7109C40.584 73.7546 40.6791 73.8186 40.759 73.8992C40.9208 74.0629 41.0115 74.2838 41.0115 74.5139C41.0115 74.7441 40.9208 74.965 40.759 75.1287C40.6792 75.2094 40.5841 75.2734 40.4793 75.3171C40.3745 75.3609 40.2621 75.3834 40.1486 75.3834C40.035 75.3834 39.9226 75.3609 39.8179 75.3171C39.7131 75.2734 39.618 75.2094 39.5381 75.1287V75.1287Z" fill="#0078D4"/>
<path fill-rule="evenodd" clip-rule="evenodd" d="M49.6396 72.3544V76.702C49.64 76.8158 49.618 76.9285 49.5749 77.0338C49.5318 77.1391 49.4683 77.2349 49.3881 77.3156C49.308 77.3964 49.2127 77.4605 49.1077 77.5044C49.0028 77.5484 48.8902 77.5712 48.7764 77.5715H36.0688C36.2181 77.8346 36.4342 78.0536 36.6953 78.2063C36.9563 78.359 37.2531 78.44 37.5556 78.441H61.7235C62.1831 78.4392 62.6231 78.255 62.9468 77.9288C63.2706 77.6026 63.4515 77.1612 63.4498 76.7016V72.354C63.4482 72.0483 63.3657 71.7485 63.2107 71.485H50.5027C50.3889 71.4854 50.2764 71.5082 50.1714 71.5521C50.0664 71.596 49.9712 71.6601 49.891 71.7409C49.8108 71.8216 49.7474 71.9174 49.7042 72.0227C49.6611 72.1279 49.6391 72.2407 49.6396 72.3544Z" fill="url(#paint7_linear_932_846)"/>
<path d="M61.7236 62.7894H37.5556C37.0961 62.7911 36.6561 62.9753 36.3324 63.3014C36.0086 63.6275 35.8277 64.0689 35.8294 64.5284V68.876C35.8277 69.3355 36.0086 69.7769 36.3324 70.103C36.6561 70.4291 37.0961 70.6133 37.5556 70.615H61.7236C62.1831 70.6132 62.6232 70.4289 62.9469 70.1027C63.2706 69.7765 63.4515 69.3351 63.4498 68.8755V64.528C63.4507 64.3005 63.4067 64.075 63.3203 63.8645C63.234 63.654 63.1071 63.4626 62.9468 63.3011C62.7865 63.1397 62.596 63.0114 62.3861 62.9236C62.1762 62.8358 61.9511 62.7902 61.7236 62.7894V62.7894Z" fill="url(#paint8_linear_932_846)"/>
<path fill-rule="evenodd" clip-rule="evenodd" d="M42.1244 67.2949C41.9626 67.1312 41.8718 66.9103 41.8718 66.6801C41.8718 66.4499 41.9626 66.229 42.1244 66.0654C42.2043 65.9847 42.2994 65.9207 42.4041 65.877C42.5089 65.8333 42.6212 65.8109 42.7347 65.8109C42.8482 65.8109 42.9606 65.8333 43.0653 65.877C43.17 65.9207 43.2651 65.9847 43.345 66.0654C43.5069 66.229 43.5977 66.4499 43.5977 66.6801C43.5977 66.9103 43.5069 67.1312 43.345 67.2949C43.2651 67.3755 43.1701 67.4396 43.0653 67.4833C42.9606 67.527 42.8482 67.5495 42.7347 67.5495C42.6212 67.5495 42.5088 67.527 42.4041 67.4833C42.2993 67.4396 42.2043 67.3755 42.1244 67.2949V67.2949Z" fill="#0078D4"/>
<path fill-rule="evenodd" clip-rule="evenodd" d="M39.5381 67.3027C39.3764 67.139 39.2856 66.9181 39.2856 66.688C39.2856 66.4578 39.3764 66.2369 39.5381 66.0732C39.618 65.9926 39.7131 65.9286 39.8179 65.8849C39.9227 65.8412 40.0351 65.8187 40.1486 65.8187C40.2621 65.8187 40.3745 65.8412 40.4793 65.8849C40.5841 65.9286 40.6791 65.9926 40.759 66.0732C40.9208 66.2369 41.0115 66.4578 41.0115 66.688C41.0115 66.9181 40.9208 67.139 40.759 67.3027C40.6792 67.3834 40.5841 67.4475 40.4793 67.4912C40.3745 67.5349 40.2621 67.5574 40.1486 67.5574C40.035 67.5574 39.9226 67.5349 39.8179 67.4912C39.7131 67.4475 39.618 67.3834 39.5381 67.3027V67.3027Z" fill="#0078D4"/>
<path fill-rule="evenodd" clip-rule="evenodd" d="M49.6396 64.5285V68.876C49.64 68.9898 49.618 69.1025 49.5749 69.2078C49.5318 69.3131 49.4683 69.4089 49.3881 69.4896C49.308 69.5704 49.2127 69.6345 49.1077 69.6784C49.0028 69.7224 48.8902 69.7452 48.7764 69.7455H36.0688C36.2181 70.0086 36.4342 70.2276 36.6953 70.3803C36.9563 70.533 37.2532 70.614 37.5556 70.615H61.7235C62.1831 70.6132 62.6231 70.429 62.9469 70.1027C63.2706 69.7765 63.4515 69.3351 63.4498 68.8756V64.528C63.4482 64.2223 63.3657 63.9225 63.2107 63.659H50.5027C50.3889 63.6594 50.2764 63.6822 50.1714 63.7261C50.0664 63.77 49.9711 63.8342 49.891 63.9149C49.8108 63.9956 49.7474 64.0914 49.7042 64.1967C49.6611 64.302 49.6391 64.4147 49.6396 64.5285V64.5285Z" fill="url(#paint9_linear_932_846)"/>
<path fill-rule="evenodd" clip-rule="evenodd" d="M59.9976 73.6588H54.8187C54.5896 73.661 54.3705 73.7535 54.2093 73.9164C54.048 74.0792 53.9575 74.2991 53.9575 74.5283C53.9575 74.7574 54.048 74.9774 54.2093 75.1402C54.3705 75.303 54.5896 75.3956 54.8187 75.3978H59.9976C60.2267 75.3956 60.4457 75.303 60.607 75.1402C60.7683 74.9774 60.8588 74.7574 60.8588 74.5283C60.8588 74.2991 60.7683 74.0792 60.607 73.9164C60.4457 73.7535 60.2267 73.661 59.9976 73.6588Z" fill="#9CEBFF"/>
<path fill-rule="evenodd" clip-rule="evenodd" d="M59.9976 65.8328H54.8187C54.5896 65.835 54.3705 65.9276 54.2093 66.0904C54.048 66.2532 53.9575 66.4731 53.9575 66.7023C53.9575 66.9315 54.048 67.1514 54.2093 67.3142C54.3705 67.477 54.5896 67.5696 54.8187 67.5718H59.9976C60.2267 67.5696 60.4457 67.477 60.607 67.3142C60.7683 67.1514 60.8588 66.9315 60.8588 66.7023C60.8588 66.4731 60.7683 66.2532 60.607 66.0904C60.4457 65.9276 60.2267 65.835 59.9976 65.8328Z" fill="#9CEBFF"/>
<path fill-rule="evenodd" clip-rule="evenodd" d="M43.024 74.7977C42.8907 74.9318 42.7168 75.0181 42.5293 75.0429C42.3418 75.0678 42.1514 75.0299 41.9878 74.9351C42.0514 75.0522 42.1418 75.1528 42.2515 75.2285C42.3612 75.3043 42.4872 75.3532 42.6193 75.3713C42.7514 75.3894 42.8859 75.3761 43.0119 75.3326C43.1379 75.289 43.2519 75.2165 43.3447 75.1207C43.5066 74.9571 43.5975 74.7362 43.5975 74.506C43.5975 74.2757 43.5066 74.0548 43.3447 73.8912C43.2897 73.8374 43.2277 73.7912 43.1604 73.7538C43.2544 73.9189 43.292 74.1102 43.2674 74.2986C43.2428 74.4871 43.1573 74.6623 43.024 74.7977Z" fill="#003067"/>
<path fill-rule="evenodd" clip-rule="evenodd" d="M40.4378 74.8057C40.3045 74.9398 40.1306 75.0261 39.9431 75.0509C39.7557 75.0758 39.5652 75.0379 39.4016 74.9431C39.4653 75.0603 39.5556 75.1608 39.6654 75.2366C39.7751 75.3124 39.9011 75.3613 40.0333 75.3794C40.1654 75.3975 40.3 75.3842 40.426 75.3407C40.5521 75.2971 40.6661 75.2245 40.7589 75.1287C40.8548 75.035 40.9274 74.9203 40.971 74.7935C41.0146 74.6668 41.0279 74.5317 41.01 74.3988C40.9921 74.266 40.9433 74.1393 40.8676 74.0287C40.792 73.9181 40.6915 73.8267 40.5742 73.7618C40.6684 73.9269 40.7061 74.1182 40.6815 74.3067C40.6569 74.4951 40.5713 74.6704 40.4378 74.8057Z" fill="#003067"/>
<path fill-rule="evenodd" clip-rule="evenodd" d="M43.024 66.9717C42.8907 67.1058 42.7167 67.1919 42.5293 67.2168C42.3419 67.2416 42.1515 67.2038 41.9878 67.1091C42.0514 67.2263 42.1418 67.3268 42.2515 67.4026C42.3612 67.4784 42.4872 67.5273 42.6193 67.5453C42.7514 67.5634 42.8859 67.5501 43.0119 67.5066C43.1379 67.4631 43.2519 67.3905 43.3447 67.2947C43.5066 67.1311 43.5975 66.9102 43.5975 66.68C43.5975 66.4498 43.5066 66.2289 43.3447 66.0652C43.2898 66.0113 43.2278 65.965 43.1604 65.9279C43.2544 66.093 43.292 66.2843 43.2674 66.4727C43.2428 66.6611 43.1573 66.8363 43.024 66.9717Z" fill="#003067"/>
<path fill-rule="evenodd" clip-rule="evenodd" d="M40.4378 66.9797C40.3045 67.1139 40.1306 67.2001 39.9431 67.225C39.7557 67.2498 39.5652 67.2119 39.4016 67.1171C39.4653 67.2343 39.5556 67.3348 39.6654 67.4107C39.7751 67.4865 39.9011 67.5354 40.0333 67.5534C40.1654 67.5715 40.3 67.5582 40.426 67.5147C40.5521 67.4711 40.6661 67.3985 40.7589 67.3027C40.8548 67.2091 40.9274 67.0943 40.971 66.9676C41.0146 66.8408 41.0279 66.7057 41.01 66.5729C40.992 66.4401 40.9433 66.3133 40.8676 66.2027C40.792 66.0921 40.6915 66.0007 40.5742 65.9358C40.6684 66.1009 40.7061 66.2922 40.6815 66.4807C40.6569 66.6692 40.5713 66.8444 40.4378 66.9797V66.9797Z" fill="#003067"/>
<path fill-rule="evenodd" clip-rule="evenodd" d="M54.8187 74.0935H59.9976C60.189 74.0944 60.3748 74.159 60.5255 74.2771C60.6762 74.3951 60.7834 74.56 60.8301 74.7457C60.8652 74.6178 60.8703 74.4836 60.8449 74.3534C60.8195 74.2233 60.7644 74.1008 60.6837 73.9955C60.6031 73.8902 60.4992 73.805 60.3802 73.7466C60.2611 73.6882 60.1302 73.6581 59.9976 73.6588H54.8187C54.6862 73.6582 54.5552 73.6883 54.4362 73.7467C54.3172 73.8051 54.2133 73.8903 54.1327 73.9956C54.0521 74.1008 53.9969 74.2233 53.9715 74.3534C53.9461 74.4836 53.9511 74.6178 53.9862 74.7457C54.033 74.56 54.1401 74.3951 54.2908 74.2771C54.4416 74.159 54.6273 74.0944 54.8187 74.0935V74.0935Z" fill="#50E6FF"/>
<path fill-rule="evenodd" clip-rule="evenodd" d="M54.8187 66.2676H59.9976C60.189 66.2685 60.3748 66.333 60.5255 66.4511C60.6762 66.5692 60.7834 66.734 60.8301 66.9197C60.8652 66.7918 60.8703 66.6576 60.8449 66.5274C60.8195 66.3973 60.7644 66.2748 60.6837 66.1695C60.6031 66.0642 60.4992 65.9791 60.3802 65.9206C60.2611 65.8622 60.1302 65.8322 59.9976 65.8328H54.8187C54.6862 65.8322 54.5552 65.8623 54.4362 65.9207C54.3172 65.9792 54.2133 66.0643 54.1327 66.1696C54.0521 66.2749 53.9969 66.3973 53.9715 66.5275C53.9461 66.6576 53.9511 66.7918 53.9862 66.9197C54.033 66.734 54.1401 66.5692 54.2908 66.4511C54.4416 66.333 54.6273 66.2685 54.8187 66.2676V66.2676Z" fill="#50E6FF"/>
<path d="M61.7236 54.9637H37.5556C37.0961 54.9654 36.6561 55.1496 36.3324 55.4757C36.0086 55.8018 35.8277 56.2432 35.8294 56.7027V61.0503C35.8277 61.5098 36.0087 61.9511 36.3324 62.2772C36.6561 62.6034 37.0961 62.7875 37.5556 62.7893H61.7236C62.1831 62.7874 62.6232 62.6032 62.9469 62.277C63.2706 61.9508 63.4515 61.5094 63.4498 61.0498V56.7023C63.4507 56.4748 63.4067 56.2493 63.3203 56.0388C63.234 55.8283 63.1071 55.6369 62.9468 55.4754C62.7865 55.314 62.596 55.1857 62.3861 55.0979C62.1762 55.0101 61.9511 54.9645 61.7236 54.9637V54.9637Z" fill="url(#paint10_linear_932_846)"/>
<path fill-rule="evenodd" clip-rule="evenodd" d="M42.1244 59.4691C41.9626 59.3055 41.8718 59.0846 41.8718 58.8544C41.8718 58.6242 41.9626 58.4033 42.1244 58.2396C42.2043 58.159 42.2994 58.095 42.4041 58.0513C42.5088 58.0076 42.6212 57.9852 42.7347 57.9852C42.8482 57.9852 42.9606 58.0076 43.0653 58.0513C43.17 58.095 43.2651 58.159 43.345 58.2396C43.5069 58.4033 43.5977 58.6242 43.5977 58.8544C43.5977 59.0846 43.5069 59.3055 43.345 59.4691C43.2651 59.5498 43.1701 59.6139 43.0653 59.6576C42.9606 59.7013 42.8482 59.7238 42.7347 59.7238C42.6212 59.7238 42.5088 59.7013 42.4041 59.6576C42.2993 59.6139 42.2043 59.5498 42.1244 59.4691V59.4691Z" fill="#0078D4"/>
<path fill-rule="evenodd" clip-rule="evenodd" d="M39.5381 59.477C39.3764 59.3133 39.2856 59.0924 39.2856 58.8623C39.2856 58.6321 39.3764 58.4112 39.5381 58.2475C39.618 58.1669 39.7131 58.1029 39.8179 58.0592C39.9227 58.0155 40.0351 57.993 40.1486 57.993C40.2621 57.993 40.3745 58.0155 40.4793 58.0592C40.584 58.1029 40.6791 58.1669 40.759 58.2475C40.9208 58.4112 41.0115 58.6321 41.0115 58.8623C41.0115 59.0924 40.9208 59.3133 40.759 59.477C40.6792 59.5577 40.5841 59.6217 40.4793 59.6655C40.3745 59.7092 40.2621 59.7317 40.1486 59.7317C40.035 59.7317 39.9226 59.7092 39.8178 59.6655C39.7131 59.6217 39.618 59.5577 39.5381 59.477V59.477Z" fill="#0078D4"/>
<path fill-rule="evenodd" clip-rule="evenodd" d="M49.6396 56.7028V61.0504C49.64 61.1641 49.618 61.2769 49.5749 61.3822C49.5318 61.4874 49.4683 61.5832 49.3881 61.6639C49.308 61.7447 49.2127 61.8088 49.1077 61.8528C49.0028 61.8967 48.8902 61.9195 48.7764 61.9198H36.0688C36.2181 62.1829 36.4342 62.4019 36.6952 62.5546C36.9563 62.7073 37.2531 62.7883 37.5556 62.7894H61.7235C62.1831 62.7876 62.6231 62.6033 62.9469 62.2771C63.2706 61.9509 63.4515 61.5095 63.4498 61.0499V56.7023C63.4482 56.3966 63.3657 56.0968 63.2107 55.8333H50.5027C50.3889 55.8336 50.2764 55.8564 50.1714 55.9004C50.0664 55.9443 49.9711 56.0084 49.891 56.0892C49.8108 56.1699 49.7474 56.2657 49.7042 56.371C49.6611 56.4763 49.6391 56.589 49.6396 56.7028V56.7028Z" fill="url(#paint11_linear_932_846)"/>
<path fill-rule="evenodd" clip-rule="evenodd" d="M59.9976 58.0071H54.8187C54.5896 58.0093 54.3705 58.1019 54.2093 58.2647C54.048 58.4275 53.9575 58.6474 53.9575 58.8766C53.9575 59.1058 54.048 59.3257 54.2093 59.4885C54.3705 59.6513 54.5896 59.7439 54.8187 59.7461H59.9976C60.2267 59.7439 60.4457 59.6513 60.607 59.4885C60.7683 59.3257 60.8588 59.1058 60.8588 58.8766C60.8588 58.6474 60.7683 58.4275 60.607 58.2647C60.4457 58.1019 60.2267 58.0093 59.9976 58.0071V58.0071Z" fill="#9CEBFF"/>
<path fill-rule="evenodd" clip-rule="evenodd" d="M43.024 59.146C42.8907 59.28 42.7167 59.3662 42.5293 59.3911C42.3419 59.4159 42.1515 59.3781 41.9878 59.2834C42.0514 59.4005 42.1418 59.5011 42.2515 59.5769C42.3612 59.6526 42.4872 59.7015 42.6193 59.7196C42.7514 59.7377 42.8859 59.7244 43.0119 59.6809C43.1379 59.6374 43.2519 59.5648 43.3447 59.469C43.5066 59.3054 43.5975 59.0845 43.5975 58.8543C43.5975 58.6241 43.5066 58.4031 43.3447 58.2395C43.2898 58.1856 43.2278 58.1393 43.1604 58.1021C43.2544 58.2673 43.292 58.4586 43.2674 58.647C43.2428 58.8354 43.1573 59.0106 43.024 59.146V59.146Z" fill="#003067"/>
<path fill-rule="evenodd" clip-rule="evenodd" d="M40.4378 59.154C40.3045 59.2882 40.1306 59.3744 39.9431 59.3993C39.7557 59.4241 39.5652 59.3862 39.4016 59.2914C39.4653 59.4086 39.5556 59.5092 39.6654 59.585C39.7751 59.6608 39.9011 59.7097 40.0333 59.7278C40.1654 59.7458 40.3 59.7326 40.426 59.689C40.5521 59.6454 40.6661 59.5728 40.7589 59.477C40.8548 59.3833 40.9274 59.2686 40.971 59.1418C41.0146 59.0151 41.0279 58.88 41.01 58.7472C40.992 58.6144 40.9433 58.4876 40.8676 58.377C40.792 58.2664 40.6915 58.175 40.5742 58.1101C40.6685 58.2752 40.7061 58.4665 40.6815 58.655C40.6569 58.8435 40.5713 59.0187 40.4378 59.154V59.154Z" fill="#003067"/>
<path fill-rule="evenodd" clip-rule="evenodd" d="M54.8187 58.4418H59.9976C60.189 58.4427 60.3748 58.5073 60.5255 58.6254C60.6762 58.7434 60.7834 58.9083 60.8301 59.094C60.8652 58.9661 60.8703 58.8319 60.8449 58.7017C60.8195 58.5716 60.7644 58.4491 60.6837 58.3438C60.6031 58.2385 60.4992 58.1534 60.3802 58.0949C60.2611 58.0365 60.1302 58.0065 59.9976 58.0071H54.8187C54.6862 58.0065 54.5552 58.0366 54.4362 58.095C54.3172 58.1534 54.2133 58.2386 54.1327 58.3439C54.0521 58.4491 53.9969 58.5716 53.9715 58.7018C53.9461 58.8319 53.9511 58.9661 53.9862 59.094C54.033 58.9083 54.1401 58.7434 54.2908 58.6254C54.4416 58.5073 54.6273 58.4427 54.8187 58.4418V58.4418Z" fill="#50E6FF"/>
</g>
<defs>
<linearGradient id="paint0_linear_932_846" x1="47.8697" y1="-15.1531" x2="51.8525" y2="130.615" gradientUnits="userSpaceOnUse">
<stop stop-color="#00ABDE"/>
<stop offset="1" stop-color="#007ED8"/>
</linearGradient>
<linearGradient id="paint1_linear_932_846" x1="49.6395" y1="61.5141" x2="49.6395" y2="28.9641" gradientUnits="userSpaceOnUse">
<stop stop-color="#003067"/>
<stop offset="0.16493" stop-color="#003F7C"/>
<stop offset="0.36216" stop-color="#004F90"/>
<stop offset="0.68089" stop-color="#00589D"/>
<stop offset="1" stop-color="#005BA1"/>
</linearGradient>
<linearGradient id="paint2_linear_932_846" x1="49.6395" y1="59.4833" x2="49.6395" y2="31.0021" gradientUnits="userSpaceOnUse">
<stop stop-color="#005BA1"/>
<stop offset="0.26" stop-color="#00589D"/>
<stop offset="0.53" stop-color="#004F90"/>
<stop offset="0.8" stop-color="#003F7C"/>
<stop offset="1" stop-color="#003067"/>
</linearGradient>
<linearGradient id="paint3_linear_932_846" x1="49.6394" y1="66.5909" x2="49.6394" y2="61.5141" gradientUnits="userSpaceOnUse">
<stop stop-color="#004DAE"/>
<stop offset="0.21" stop-color="#0061C4"/>
<stop offset="0.51" stop-color="#0078DD"/>
<stop offset="0.78" stop-color="#0086EC"/>
<stop offset="1" stop-color="#008BF1"/>
</linearGradient>
<linearGradient id="paint4_linear_932_846" x1="49.6395" y1="36.4064" x2="49.6395" y2="51.4687" gradientUnits="userSpaceOnUse">
<stop stop-color="#F0F0F0"/>
<stop offset="0.33" stop-color="#ECECEC"/>
<stop offset="0.68" stop-color="#DFDFDF"/>
<stop offset="1" stop-color="#CCCCCC"/>
</linearGradient>
<linearGradient id="paint5_linear_932_846" x1="49.4361" y1="33.673" x2="49.4361" y2="19.3258" gradientUnits="userSpaceOnUse">
<stop stop-color="#F2F2F2"/>
<stop offset="0.44" stop-color="#FBFBFB"/>
<stop offset="1" stop-color="white"/>
</linearGradient>
<linearGradient id="paint6_linear_932_846" x1="49.6396" y1="70.6151" x2="49.6396" y2="78.4552" gradientUnits="userSpaceOnUse">
<stop stop-color="#005BA1"/>
<stop offset="0.26" stop-color="#00589D"/>
<stop offset="0.53" stop-color="#004F90"/>
<stop offset="0.8" stop-color="#003F7C"/>
<stop offset="1" stop-color="#003067"/>
</linearGradient>
<linearGradient id="paint7_linear_932_846" x1="49.7593" y1="71.485" x2="49.7593" y2="78.4411" gradientUnits="userSpaceOnUse">
<stop stop-color="#008BF1"/>
<stop offset="0.22" stop-color="#0086EC"/>
<stop offset="0.49" stop-color="#0078DD"/>
<stop offset="0.79" stop-color="#0061C4"/>
<stop offset="1" stop-color="#004DAE"/>
</linearGradient>
<linearGradient id="paint8_linear_932_846" x1="49.6396" y1="62.7894" x2="49.6396" y2="70.6291" gradientUnits="userSpaceOnUse">
<stop stop-color="#005BA1"/>
<stop offset="0.26" stop-color="#00589D"/>
<stop offset="0.53" stop-color="#004F90"/>
<stop offset="0.8" stop-color="#003F7C"/>
<stop offset="1" stop-color="#003067"/>
</linearGradient>
<linearGradient id="paint9_linear_932_846" x1="49.7593" y1="63.659" x2="49.7593" y2="70.6151" gradientUnits="userSpaceOnUse">
<stop stop-color="#008BF1"/>
<stop offset="0.22" stop-color="#0086EC"/>
<stop offset="0.49" stop-color="#0078DD"/>
<stop offset="0.79" stop-color="#0061C4"/>
<stop offset="1" stop-color="#004DAE"/>
</linearGradient>
<linearGradient id="paint10_linear_932_846" x1="49.6396" y1="54.9637" x2="49.6396" y2="62.8034" gradientUnits="userSpaceOnUse">
<stop stop-color="#005BA1"/>
<stop offset="0.26" stop-color="#00589D"/>
<stop offset="0.53" stop-color="#004F90"/>
<stop offset="0.8" stop-color="#003F7C"/>
<stop offset="1" stop-color="#003067"/>
</linearGradient>
<linearGradient id="paint11_linear_932_846" x1="49.7593" y1="55.8333" x2="49.7593" y2="62.7894" gradientUnits="userSpaceOnUse">
<stop stop-color="#008BF1"/>
<stop offset="0.22" stop-color="#0086EC"/>
<stop offset="0.49" stop-color="#0078DD"/>
<stop offset="0.79" stop-color="#0061C4"/>
<stop offset="1" stop-color="#004DAE"/>
</linearGradient>
<clipPath id="clip0_932_846">
<rect width="99.2799" height="99.28" fill="white"/>
</clipPath>
</defs>
</svg>
