<svg width="103" height="103" viewBox="0 0 103 103" fill="none" xmlns="https://www.w3.org/2000/svg">
<path d="M51.4224 97.9613C25.5724 97.9613 4.61237 77.0113 4.61237 51.1513C4.61237 25.2913 25.5724 4.34131 51.4224 4.34131C77.2724 4.34131 98.2324 25.3013 98.2324 51.1513C98.2324 77.0013 77.2724 97.9613 51.4224 97.9613Z" fill="url(#paint0_linear)"/>
<path fill-rule="evenodd" clip-rule="evenodd" d="M97.3223 51.1517C97.3223 76.5017 76.7723 97.0517 51.4223 97.0517C26.0723 97.0517 5.52235 76.5017 5.52235 51.1517C5.52235 25.8017 26.0723 5.25172 51.4223 5.25172C76.7723 5.25172 97.3223 25.8017 97.3223 51.1517ZM51.4223 1.51172C78.8423 1.51172 101.062 23.7317 101.062 51.1517C101.062 78.5717 78.8323 100.792 51.4223 100.792C24.0023 100.792 1.78235 78.5617 1.78235 51.1517C1.78235 23.7317 24.0023 1.51172 51.4223 1.51172Z" fill="#F2F1F0"/>
<path fill-rule="evenodd" clip-rule="evenodd" d="M94.5123 51.1513C94.5123 74.9513 75.2223 94.2413 51.4223 94.2413C27.6223 94.2413 8.33235 74.9513 8.33235 51.1513C8.33235 27.3513 27.6223 8.06129 51.4223 8.06129C75.2223 8.06129 94.5123 27.3513 94.5123 51.1513ZM51.4223 4.32129C77.2823 4.32129 98.2523 25.2913 98.2523 51.1513C98.2523 77.0113 77.2823 97.9813 51.4223 97.9813C25.5623 97.9813 4.59235 77.0113 4.59235 51.1513C4.59235 25.2913 25.5523 4.32129 51.4223 4.32129Z" fill="#0078D4"/>
<path opacity="0.15" d="M20.7324 75.8115H82.1324V32.2515H20.7324V75.8115V75.8115Z" fill="#1F1D20"/>
<path d="M20.7324 73.0913H82.1324V29.5312H20.7324V73.0913V73.0913Z" fill="#D5F9FD"/>
<path d="M20.7324 34.2013H82.1324V28.3413H20.7324V34.2013V34.2013Z" fill="#50E6FF"/>
<path d="M25.0624 32.8314C25.8524 32.8314 26.4924 32.1914 26.4924 31.4014C26.4924 30.6114 25.8524 29.9614 25.0624 29.9614C24.2724 29.9614 23.6324 30.6014 23.6324 31.3914C23.6324 32.1814 24.2624 32.8314 25.0624 32.8314Z" fill="#45CAF2"/>
<path d="M48.6923 49.8115H45.0823V54.5215H48.6923V49.8115Z" fill="white"/>
<path d="M54.6823 46.6812H50.4023V54.5312H54.6823V46.6812Z" fill="#C3F1FF"/>
<path d="M61.2123 41.6113H56.5023V54.5313H61.2123V41.6113Z" fill="#45CAF2"/>
<path d="M68.6123 36.3213H63.1823V54.5313H68.6123V36.3213Z" fill="#50E6FF"/>
<path d="M36.9324 48.3817L36.0024 45.0717H34.1424C33.8824 45.0717 33.6224 44.9217 33.5724 44.6617L32.8524 41.4517L30.2724 51.1717C30.2224 51.3717 30.0624 51.5317 29.8624 51.5817C29.8124 51.5817 29.7624 51.5817 29.7124 51.5817C29.5624 51.5817 29.4024 51.5317 29.3024 51.3817L27.0324 48.9417L26.0524 49.9617C25.9524 50.0617 25.7924 50.1117 25.6424 50.1117H23.5824V54.5917H41.2124V48.7917H37.5024C37.2424 48.7817 37.0324 48.6317 36.9324 48.3817Z" fill="#0078D4"/>
<path d="M26.6224 47.7714C26.7224 47.6714 26.8824 47.6214 27.0324 47.6214C27.1824 47.6214 27.3424 47.6714 27.4424 47.8214L29.4524 49.9614L32.3424 39.0614C32.3924 38.7514 32.6024 38.6014 32.8624 38.6014C33.1224 38.6014 33.3224 38.8014 33.4324 39.0114L34.6224 43.9514H36.4224C36.6824 43.9514 36.8824 44.1014 36.9924 44.3614L37.9224 47.6714H41.2224V37.2314H23.5824V48.9914H25.3824L26.6224 47.7714Z" fill="#50E6FF"/>
<path d="M37.9124 47.6616L36.9824 44.3516C36.9324 44.1016 36.6724 43.9416 36.4124 43.9416H34.6124L33.4224 39.0116C33.3724 38.7616 33.1124 38.6016 32.8524 38.6016C32.5924 38.6016 32.3924 38.7516 32.2824 39.0116L29.3924 49.9116L27.3824 47.7716C27.2824 47.6716 27.1224 47.6216 26.9724 47.5716C26.8224 47.5716 26.6624 47.6216 26.5624 47.7216L25.3224 48.9916H23.5724V50.1116H25.6324C25.7824 50.1116 25.9424 50.0616 26.0424 49.9616L27.0224 48.9416L29.2924 51.3816C29.3924 51.4816 29.5524 51.5816 29.7024 51.5816C29.7524 51.5816 29.8024 51.5816 29.8524 51.5816C30.0624 51.5316 30.2124 51.3816 30.2624 51.1716L32.8424 41.4516L33.6124 44.6616C33.6624 44.9116 33.9224 45.0716 34.1824 45.0716H36.0424L36.9724 48.3816C37.0224 48.6316 37.2824 48.7916 37.5424 48.7916H41.2524V47.6716H37.9124V47.6616Z" fill="white"/>
<path d="M38.5124 58.5811H24.6024C24.1024 58.5811 23.6924 58.9911 23.6924 59.4911C23.6924 59.9911 24.1024 60.4011 24.6024 60.4011H38.5024C39.0024 60.4011 39.4124 59.9911 39.4124 59.4911C39.4224 58.9811 39.0124 58.5811 38.5124 58.5811Z" fill="#50E6FF"/>
<path d="M36.1724 62.5312H24.6024C24.1024 62.5312 23.6924 62.9412 23.6924 63.4412C23.6924 63.9412 24.1024 64.3512 24.6024 64.3512H36.1624C36.6624 64.3512 37.0724 63.9412 37.0724 63.4412C37.0824 62.9412 36.6724 62.5312 36.1724 62.5312Z" fill="#32B0E7"/>
<path fill-rule="evenodd" clip-rule="evenodd" d="M24.6024 66.791H30.3824C30.8824 66.791 31.2924 67.201 31.2924 67.701C31.2924 68.201 30.8824 68.611 30.3824 68.611H24.6024C24.1024 68.611 23.6924 68.201 23.6924 67.701C23.6924 67.211 24.0924 66.791 24.6024 66.791Z" fill="#185A97"/>
<path d="M74.8923 49.7812L60.0123 71.7812L61.7623 72.7512L76.6423 50.7512L74.8923 49.7812Z" fill="#0078D4"/>
<path d="M61.1624 67.3216C64.4124 67.3216 67.0324 69.8916 67.1124 73.1016H70.8723C70.7623 67.8116 66.4624 63.6016 61.1724 63.6016C55.8824 63.6016 51.5824 67.8516 51.4724 73.1016H55.2324C55.2924 69.8916 57.9124 67.3216 61.1624 67.3216Z" fill="#50E6FF"/>
<path d="M61.1623 67.3213C57.9123 67.3213 55.2923 69.8913 55.2123 73.1013H56.8223C56.9323 70.7713 58.8323 68.9213 61.1623 68.9213C63.4923 68.9213 65.4323 70.7613 65.5023 73.1013H67.1123C67.0023 69.8613 64.3723 67.3213 61.1623 67.3213Z" fill="#E7E8EA"/>
<path d="M61.1623 68.9312C58.8323 68.9312 56.8923 70.7712 56.8223 73.1112H65.5423C65.4323 70.7712 63.4923 68.9312 61.1623 68.9312Z" fill="#1F1D21"/>
<path d="M74.5524 54.9513C76.3024 54.9513 77.7224 53.5313 77.7224 51.7813C77.7224 50.0313 76.3024 48.6113 74.5524 48.6113C72.8024 48.6113 71.3824 50.0313 71.3824 51.7813C71.3724 53.5313 72.7924 54.9513 74.5524 54.9513Z" fill="#0078D4"/>
<path d="M61.1623 67.3213C57.9123 67.3213 55.2923 69.8913 55.2123 73.1013H56.8223C56.9323 70.7713 58.8323 68.9213 61.1623 68.9213C63.4923 68.9213 65.4323 70.7613 65.5023 73.1013H67.1123C67.0023 69.8613 64.3723 67.3213 61.1623 67.3213Z" fill="#0078D4"/>
<path d="M61.1623 68.9312C58.8323 68.9312 56.8923 70.7712 56.8223 73.1112H65.5423C65.4323 70.7712 63.4923 68.9312 61.1623 68.9312Z" fill="#50E6FF"/>
<defs>
<linearGradient id="paint0_linear" x1="49.6524" y1="-13.6416" x2="53.6352" y2="132.126" gradientUnits="userSpaceOnUse">
<stop stop-color="#00ABDE"/>
<stop offset="1" stop-color="#007ED8"/>
</linearGradient>
</defs>
</svg>
