<svg width="100" height="100" viewBox="0 0 100 100" fill="none" xmlns="http://www.w3.org/2000/svg">
<g clip-path="url(#clip0)">
<path d="M49.6401 96.45C40.382 96.45 31.3317 93.7047 23.6339 88.5611C15.936 83.4176 9.93624 76.1068 6.3933 67.5534C2.85036 59 1.92337 49.5881 3.72954 40.5078C5.53571 31.4276 9.99394 23.0868 16.5404 16.5403C23.0869 9.99384 31.4277 5.53562 40.5079 3.72945C49.5882 1.92327 59.0001 2.85027 67.5535 6.39321C76.1069 9.93614 83.4176 15.9359 88.5612 23.6338C93.7047 31.3316 96.4501 40.3819 96.4501 49.64C96.4505 55.7873 95.24 61.8745 92.8878 67.5539C90.5355 73.2334 87.0875 78.3938 82.7407 82.7406C78.3939 87.0874 73.2335 90.5354 67.554 92.8877C61.8746 95.2399 55.7874 96.4504 49.6401 96.45V96.45Z" fill="url(#paint0_linear)"/>
<path fill-rule="evenodd" clip-rule="evenodd" d="M95.54 49.64C95.54 58.7182 92.848 67.5925 87.8045 75.1407C82.7609 82.6889 75.5923 88.572 67.2052 92.0461C58.818 95.5201 49.5891 96.4291 40.6854 94.658C31.7816 92.887 23.603 88.5154 17.1838 82.0962C10.7646 75.677 6.39302 67.4984 4.62196 58.5946C2.85089 49.6909 3.75987 40.462 7.23393 32.0748C10.708 23.6877 16.5911 16.5191 24.1393 11.4755C31.6875 6.43199 40.5618 3.74 49.64 3.74C55.6677 3.73998 61.6363 4.9272 67.2052 7.23388C72.774 9.54057 77.834 12.9215 82.0963 17.1837C86.3585 21.446 89.7394 26.5059 92.0461 32.0748C94.3528 37.6437 95.54 43.6123 95.54 49.64V49.64ZM49.64 3.62732e-07C59.4579 3.62732e-07 69.0553 2.91134 77.2185 8.36585C85.3818 13.8204 91.7442 21.5731 95.5014 30.6436C99.2585 39.7141 100.242 49.6951 98.3262 59.3243C96.4108 68.9535 91.6831 77.7985 84.7408 84.7408C77.7985 91.6831 68.9535 96.4108 59.3243 98.3262C49.6951 100.242 39.7141 99.2585 30.6436 95.5014C21.5731 91.7442 13.8204 85.3818 8.36585 77.2185C2.91134 69.0553 3.62732e-07 59.4579 3.62732e-07 49.64C-0.000787738 43.121 1.28265 36.6656 3.77702 30.6427C6.27138 24.6197 9.9278 19.1471 14.5375 14.5375C19.1471 9.9278 24.6197 6.27138 30.6427 3.77702C36.6656 1.28265 43.121 -0.000787738 49.64 3.62732e-07V3.62732e-07Z" fill="#F2F1F0"/>
<path fill-rule="evenodd" clip-rule="evenodd" d="M92.7296 49.6401C92.7296 58.1625 90.2024 66.4935 85.4676 73.5796C80.7328 80.6657 74.0031 86.1887 66.1294 89.4501C58.2557 92.7114 49.5918 93.5648 41.2331 91.9021C32.8745 90.2395 25.1966 86.1356 19.1703 80.1093C13.1441 74.0831 9.04017 66.4052 7.37753 58.0465C5.7149 49.6879 6.56822 41.0239 9.8296 33.1503C13.091 25.2766 18.6139 18.5469 25.7 13.8121C32.7862 9.07727 41.1172 6.55009 49.6396 6.55009C55.2983 6.54974 60.9017 7.66407 66.1298 9.82942C71.3579 11.9948 76.1082 15.1687 80.1096 19.1701C84.1109 23.1714 87.2849 27.9218 89.4502 33.1499C91.6156 38.3779 92.7299 43.9813 92.7296 49.6401V49.6401ZM49.6396 2.81009C58.9017 2.81009 67.9558 5.55662 75.6569 10.7024C83.3581 15.8481 89.3604 23.162 92.9049 31.719C96.4493 40.2761 97.3767 49.692 95.5697 58.7762C93.7628 67.8603 89.3027 76.2046 82.7534 82.7539C76.2041 89.3032 67.8598 93.7633 58.7757 95.5703C49.6915 97.3772 40.2756 96.4498 31.7185 92.9054C23.1614 89.3609 15.8476 83.3586 10.7018 75.6574C5.5561 67.9563 2.80957 58.9022 2.80957 49.6401C2.81076 37.2204 7.745 25.3097 16.5271 16.5276C25.3091 7.7455 37.2198 2.81125 49.6396 2.81006V2.81009Z" fill="#0078D4"/>
<path fill-rule="evenodd" clip-rule="evenodd" d="M92.7296 49.64C92.7296 58.1624 90.2024 66.4934 85.4676 73.5795C80.7328 80.6656 74.0031 86.1886 66.1294 89.45C58.2557 92.7113 49.5918 93.5647 41.2331 91.902C32.8745 90.2394 25.1966 86.1355 19.1703 80.1092C13.1441 74.083 9.04017 66.4051 7.37753 58.0464C5.7149 49.6878 6.56822 41.0238 9.8296 33.1502C13.091 25.2765 18.6139 18.5468 25.7001 13.812C32.7862 9.07718 41.1172 6.55 49.6396 6.55C55.2983 6.54965 60.9017 7.66397 66.1298 9.82933C71.3579 11.9947 76.1082 15.1687 80.1096 19.17C84.1109 23.1713 87.2849 27.9217 89.4502 33.1498C91.6156 38.3778 92.7299 43.9812 92.7296 49.64V49.64ZM49.6396 2.81C58.9017 2.81 67.9558 5.55653 75.6569 10.7023C83.3581 15.848 89.3604 23.1619 92.9048 31.7189C96.4493 40.276 97.3767 49.6919 95.5697 58.7761C93.7628 67.8602 89.3027 76.2045 82.7534 82.7538C76.2041 89.3031 67.8598 93.7632 58.7757 95.5702C49.6915 97.3771 40.2756 96.4497 31.7185 92.9053C23.1614 89.3608 15.8476 83.3585 10.7018 75.6574C5.5561 67.9562 2.80957 58.9021 2.80957 49.64C2.81076 37.2203 7.74501 25.3096 16.5271 16.5275C25.3091 7.74544 37.2198 2.81119 49.6396 2.81V2.81Z" fill="#0078D4"/>
<path d="M25.3357 32.1377C24.1681 32.1411 23.0493 32.6065 22.2236 33.4321C21.398 34.2578 20.9326 35.3766 20.9292 36.5442V67.3902H78.2144V36.5442C78.211 35.3766 77.7456 34.2578 76.92 33.4321C76.0943 32.6065 74.9755 32.1411 73.8079 32.1377H25.3357ZM73.8079 34.341C74.392 34.3418 74.9519 34.5742 75.365 34.9872C75.778 35.4002 76.0104 35.9602 76.0111 36.5443V65.1869H23.1324V36.5442C23.133 35.9601 23.3654 35.4 23.7784 34.9869C24.1915 34.5739 24.7516 34.3416 25.3357 34.341H73.8079Z" fill="url(#paint1_linear)"/>
<path d="M23.1323 36.5442C23.1329 35.9601 23.3653 35.4 23.7783 34.987C24.1914 34.5739 24.7515 34.3416 25.3356 34.341H73.8077C74.3919 34.3418 74.9518 34.5742 75.3648 34.9872C75.7779 35.4002 76.0103 35.9602 76.011 36.5443V65.1869H23.1323V36.5442Z" fill="url(#paint2_linear)"/>
<path d="M14.3193 67.3902V68.4918C14.3228 69.6594 14.7881 70.7783 15.6138 71.6039C16.4394 72.4296 17.5583 72.8949 18.7259 72.8984H80.4177C81.5853 72.8949 82.7042 72.4296 83.5298 71.6039C84.3555 70.7783 84.8208 69.6594 84.8243 68.4918V67.3902H14.3193Z" fill="url(#paint3_linear)"/>
<path fill-rule="evenodd" clip-rule="evenodd" d="M45.1652 69.5934H53.9783C54.5626 69.5932 55.1229 69.361 55.536 68.9479C55.9492 68.5347 56.1814 67.9744 56.1816 67.3902H42.9619C42.9619 67.9745 43.1941 68.5349 43.6073 68.9481C44.0205 69.3613 44.5809 69.5934 45.1652 69.5934V69.5934Z" fill="#003067"/>
<path opacity="0.2" d="M37.7126 32.1377V50.1442C37.7137 51.1208 38.1022 52.0571 38.7927 52.7477C39.4833 53.4383 40.4196 53.8267 41.3962 53.8278H57.7468C58.7235 53.8267 59.6598 53.4383 60.3503 52.7477C61.0409 52.0571 61.4294 51.1208 61.4304 50.1442V32.1377H37.7126Z" fill="#003067"/>
<path d="M44.6758 65.1869H32.6504V38.4236C32.6504 38.0243 32.8428 37.7002 33.0799 37.7002H44.2463C44.4834 37.7002 44.6758 38.0243 44.6758 38.4236V65.1869Z" fill="url(#paint4_linear)"/>
<path d="M32.6503 37.1276H44.6757C44.8275 37.1276 44.9732 37.1879 45.0806 37.2953C45.188 37.4027 45.2483 37.5484 45.2483 37.7002V37.7002C45.2483 37.8521 45.188 37.9978 45.0806 38.1052C44.9732 38.2125 44.8275 38.2729 44.6757 38.2729H32.6503C32.4984 38.2729 32.3528 38.2125 32.2454 38.1052C32.138 37.9978 32.0776 37.8521 32.0776 37.7002C32.0776 37.5484 32.138 37.4027 32.2454 37.2953C32.3528 37.1879 32.4984 37.1276 32.6503 37.1276Z" fill="url(#paint5_linear)"/>
<path d="M66.627 65.1869H54.6016V38.4236C54.6016 38.0243 54.794 37.7002 55.031 37.7002H66.1975C66.4346 37.7002 66.627 38.0243 66.627 38.4236V65.1869Z" fill="url(#paint6_linear)"/>
<path d="M54.6014 37.1276H66.6268C66.702 37.1276 66.7765 37.1424 66.846 37.1712C66.9154 37.2 66.9786 37.2421 67.0317 37.2953C67.0849 37.3485 67.1271 37.4116 67.1559 37.4811C67.1847 37.5506 67.1995 37.625 67.1995 37.7002V37.7002C67.1995 37.7754 67.1847 37.8499 67.1559 37.9194C67.1271 37.9889 67.0849 38.052 67.0317 38.1052C66.9786 38.1583 66.9154 38.2005 66.846 38.2293C66.7765 38.2581 66.702 38.2729 66.6268 38.2729H54.6014C54.4496 38.2729 54.3039 38.2125 54.1965 38.1052C54.0891 37.9978 54.0288 37.8521 54.0288 37.7002C54.0288 37.5484 54.0891 37.4027 54.1965 37.2953C54.3039 37.1879 54.4496 37.1276 54.6014 37.1276V37.1276Z" fill="url(#paint7_linear)"/>
<path opacity="0.2" d="M59.9487 37.1276H39.3318V65.1869H59.9487V37.1276Z" fill="#003067"/>
<path d="M58.3566 65.1869H40.9233V26.388C40.9233 25.8092 41.2023 25.3394 41.546 25.3394H57.734C58.0776 25.3394 58.3566 25.8092 58.3566 26.388L58.3566 65.1869Z" fill="white"/>
<path d="M49.7976 65.1869H40.9233V26.6369C40.9233 26.0618 41.2073 25.595 41.5572 25.595H49.4859C49.8358 25.595 49.7976 25.0199 49.7976 25.595V65.1869Z" fill="#F2F2F2"/>
<path d="M47.7028 47.7536H44.9357C44.7559 47.7571 44.5821 47.6892 44.4524 47.5647C44.3227 47.4401 44.2477 47.2692 44.2439 47.0895V45.0971C44.2477 44.9173 44.3227 44.7464 44.4524 44.6219C44.5821 44.4974 44.7559 44.4294 44.9357 44.433H47.7028C47.8826 44.4294 48.0564 44.4974 48.1861 44.6219C48.3159 44.7464 48.3909 44.9173 48.3947 45.0971V47.0895C48.3909 47.2692 48.3159 47.4401 48.1861 47.5647C48.0564 47.6892 47.8826 47.7571 47.7028 47.7536V47.7536Z" fill="#0078D4"/>
<path d="M54.3449 47.7536H51.5777C51.398 47.7571 51.2242 47.6892 51.0945 47.5646C50.9648 47.4401 50.8898 47.2692 50.886 47.0895V45.0971C50.8898 44.9173 50.9648 44.7464 51.0945 44.6219C51.2242 44.4974 51.398 44.4295 51.5777 44.433H54.3449C54.5247 44.4294 54.6985 44.4974 54.8282 44.6219C54.9579 44.7464 55.0329 44.9173 55.0368 45.0971V47.0895C55.0329 47.2692 54.9579 47.4401 54.8282 47.5647C54.6985 47.6892 54.5247 47.7571 54.3449 47.7536V47.7536Z" fill="#0078D4"/>
<path d="M47.7028 52.7345H44.9357C44.7559 52.7381 44.5821 52.6701 44.4524 52.5456C44.3227 52.4211 44.2477 52.2502 44.2439 52.0704V50.078C44.2477 49.8982 44.3227 49.7273 44.4524 49.6028C44.5821 49.4783 44.7559 49.4103 44.9357 49.4139H47.7028C47.8826 49.4103 48.0564 49.4783 48.1861 49.6028C48.3159 49.7273 48.3909 49.8982 48.3947 50.078V52.0704C48.3909 52.2501 48.3159 52.4211 48.1862 52.5456C48.0564 52.6701 47.8826 52.7381 47.7028 52.7345V52.7345Z" fill="#0078D4"/>
<path d="M54.3449 52.7345H51.5777C51.398 52.7381 51.2242 52.6701 51.0945 52.5456C50.9648 52.4211 50.8898 52.2502 50.886 52.0704V50.078C50.8898 49.8982 50.9648 49.7273 51.0945 49.6028C51.2242 49.4783 51.398 49.4103 51.5777 49.4139H54.3449C54.5247 49.4103 54.6985 49.4783 54.8282 49.6028C54.9579 49.7273 55.0329 49.8982 55.0368 50.078V52.0704C55.033 52.2501 54.958 52.4211 54.8282 52.5456C54.6985 52.6701 54.5247 52.7381 54.3449 52.7345V52.7345Z" fill="#0078D4"/>
<path d="M47.7028 57.7155H44.9357C44.7559 57.719 44.5821 57.651 44.4524 57.5265C44.3227 57.402 44.2477 57.2311 44.2439 57.0513V55.059C44.2477 54.8792 44.3227 54.7083 44.4524 54.5838C44.5821 54.4593 44.7559 54.3913 44.9357 54.3949H47.7028C47.8826 54.3913 48.0564 54.4593 48.1861 54.5838C48.3159 54.7083 48.3909 54.8792 48.3947 55.059V57.0514C48.3909 57.2311 48.3159 57.402 48.1861 57.5265C48.0564 57.6511 47.8826 57.719 47.7028 57.7155V57.7155Z" fill="#0078D4"/>
<path d="M54.3449 57.7155H51.5777C51.398 57.719 51.2242 57.651 51.0945 57.5265C50.9648 57.402 50.8898 57.2311 50.886 57.0513V55.059C50.8898 54.8792 50.9648 54.7083 51.0945 54.5838C51.2242 54.4593 51.398 54.3913 51.5777 54.3949H54.3449C54.5247 54.3913 54.6985 54.4593 54.8282 54.5838C54.9579 54.7083 55.0329 54.8792 55.0368 55.059V57.0514C55.0329 57.2311 54.9579 57.402 54.8282 57.5265C54.6985 57.6511 54.5247 57.719 54.3449 57.7155V57.7155Z" fill="#0078D4"/>
<path d="M47.7028 32.8108H44.9357C44.7559 32.8143 44.5821 32.7464 44.4524 32.6218C44.3227 32.4973 44.2477 32.3264 44.2439 32.1467V30.1542C44.2477 29.9745 44.3227 29.8036 44.4524 29.6791C44.5821 29.5545 44.7559 29.4866 44.9357 29.4901H47.7028C47.8826 29.4866 48.0564 29.5545 48.1861 29.6791C48.3159 29.8036 48.3909 29.9745 48.3947 30.1542V32.1467C48.3909 32.3264 48.3159 32.4973 48.1861 32.6218C48.0564 32.7464 47.8826 32.8143 47.7028 32.8108V32.8108Z" fill="#0078D4"/>
<path d="M54.3449 32.8108H51.5777C51.398 32.8143 51.2242 32.7464 51.0945 32.6218C50.9648 32.4973 50.8898 32.3264 50.886 32.1467V30.1542C50.8898 29.9745 50.9648 29.8036 51.0945 29.6791C51.2242 29.5546 51.398 29.4866 51.5777 29.4901H54.3449C54.5247 29.4866 54.6985 29.5545 54.8282 29.6791C54.9579 29.8036 55.0329 29.9745 55.0368 30.1542V32.1467C55.0329 32.3264 54.9579 32.4973 54.8282 32.6218C54.6985 32.7464 54.5247 32.8143 54.3449 32.8108V32.8108Z" fill="#0078D4"/>
<path d="M47.7028 37.7917H44.9357C44.7559 37.7953 44.5821 37.7273 44.4524 37.6028C44.3227 37.4783 44.2477 37.3074 44.2439 37.1276V35.1352C44.2477 34.9555 44.3227 34.7846 44.4524 34.66C44.5821 34.5355 44.7559 34.4676 44.9357 34.4711H47.7028C47.8826 34.4676 48.0564 34.5355 48.1861 34.66C48.3159 34.7846 48.3909 34.9555 48.3947 35.1352V37.1276C48.3909 37.3074 48.3159 37.4783 48.1861 37.6028C48.0564 37.7273 47.8826 37.7953 47.7028 37.7917V37.7917Z" fill="#0078D4"/>
<path d="M54.3449 37.7917H51.5777C51.398 37.7953 51.2242 37.7273 51.0945 37.6028C50.9648 37.4783 50.8898 37.3074 50.886 37.1276V35.1352C50.8898 34.9555 50.9648 34.7846 51.0945 34.6601C51.2242 34.5355 51.398 34.4676 51.5777 34.4711H54.3449C54.5247 34.4676 54.6985 34.5355 54.8282 34.66C54.9579 34.7846 55.0329 34.9555 55.0368 35.1352V37.1276C55.0329 37.3074 54.9579 37.4783 54.8282 37.6028C54.6985 37.7273 54.5247 37.7953 54.3449 37.7917V37.7917Z" fill="#0078D4"/>
<path d="M47.7028 42.7727H44.9357C44.7559 42.7762 44.5821 42.7082 44.4524 42.5837C44.3227 42.4592 44.2477 42.2883 44.2439 42.1085V40.1162C44.2477 39.9364 44.3227 39.7655 44.4524 39.641C44.5821 39.5165 44.7559 39.4485 44.9357 39.452H47.7028C47.8826 39.4485 48.0564 39.5165 48.1861 39.641C48.3159 39.7655 48.3909 39.9364 48.3947 40.1162V42.1085C48.3909 42.2883 48.3159 42.4592 48.1861 42.5837C48.0564 42.7082 47.8826 42.7762 47.7028 42.7727V42.7727Z" fill="#0078D4"/>
<path d="M54.3449 42.7727H51.5777C51.398 42.7762 51.2242 42.7082 51.0945 42.5837C50.9648 42.4592 50.8898 42.2883 50.886 42.1085V40.1162C50.8898 39.9364 50.9648 39.7655 51.0945 39.641C51.2242 39.5165 51.398 39.4485 51.5777 39.452H54.3449C54.5247 39.4485 54.6985 39.5165 54.8282 39.641C54.9579 39.7655 55.0329 39.9364 55.0368 40.1162V42.1085C55.0329 42.2883 54.9579 42.4592 54.8282 42.5837C54.6985 42.7082 54.5247 42.7762 54.3449 42.7727V42.7727Z" fill="#0078D4"/>
<path d="M51.0234 60.2059H48.2562C48.0821 60.1973 47.9116 60.258 47.782 60.3746C47.6524 60.4913 47.5742 60.6545 47.5645 60.8286V65.1869H51.7152V60.8286C51.7055 60.6544 51.6273 60.4913 51.4977 60.3746C51.3681 60.258 51.1976 60.1973 51.0234 60.2059V60.2059Z" fill="#1F56A3"/>
<path d="M49.2249 60.2059H48.1206C47.9645 60.2153 47.8184 60.286 47.7142 60.4027C47.6101 60.5193 47.5563 60.6724 47.5646 60.8286V65.1869H49.2208L49.2249 60.2059Z" fill="#003067"/>
<path d="M40.9232 24.5092H58.3564C58.5766 24.5092 58.7878 24.5966 58.9435 24.7523C59.0991 24.908 59.1866 25.1192 59.1866 25.3393V25.3393C59.1866 25.5595 59.0991 25.7707 58.9435 25.9264C58.7878 26.082 58.5766 26.1695 58.3564 26.1695H40.9232C40.703 26.1695 40.4919 26.082 40.3362 25.9264C40.1805 25.7707 40.093 25.5595 40.093 25.3393V25.3393C40.093 25.1192 40.1805 24.908 40.3362 24.7523C40.4919 24.5967 40.703 24.5092 40.9232 24.5092V24.5092Z" fill="#003067"/>
<path d="M37.5694 49.0152C37.5784 48.9524 37.5962 48.8897 37.6052 48.8359C37.7733 47.9487 37.744 47.0354 37.5194 46.1608C37.2948 45.2862 36.8803 44.4719 36.3054 43.7755C35.7306 43.0792 35.0094 42.518 34.1932 42.1317C33.377 41.7455 32.4857 41.5438 31.5828 41.5408C31.1209 41.5393 30.6605 41.5934 30.2116 41.7022C29.2963 40.2585 27.9369 39.1511 26.3379 38.5466C24.739 37.9421 22.987 37.8732 21.3455 38.3502C19.704 38.8273 18.2619 39.8246 17.2361 41.1919C16.2102 42.5593 15.6562 44.2228 15.6573 45.9322C15.6573 46.0398 15.6573 46.1473 15.6663 46.2549C15.2563 46.1169 14.8263 46.0472 14.3937 46.0487C13.3979 46.0489 12.4402 46.4319 11.7188 47.1184C10.9974 47.8049 10.5675 48.7424 10.518 49.737C10.4685 50.7316 10.8032 51.7072 11.4528 52.4619C12.1025 53.2167 13.0174 53.6928 14.0083 53.7919L31.5738 53.8277C32.6672 53.8265 33.7405 53.5345 34.6838 52.9817C35.6272 52.4289 36.4065 51.6353 36.9421 50.6821C36.969 50.6283 37.0048 50.5745 37.0317 50.5207C37.269 50.0416 37.4494 49.5363 37.5694 49.0152V49.0152Z" fill="white"/>
<path d="M61.5738 49.0152C61.5648 48.9524 61.5469 48.8897 61.538 48.8359C61.3698 47.9487 61.3991 47.0354 61.6238 46.1608C61.8484 45.2862 62.2629 44.4719 62.8377 43.7755C63.4126 43.0792 64.1338 42.518 64.95 42.1317C65.7662 41.7455 66.6574 41.5438 67.5604 41.5408C68.0223 41.5393 68.4827 41.5934 68.9316 41.7022C69.8469 40.2585 71.2063 39.1511 72.8052 38.5466C74.4042 37.9421 76.1562 37.8732 77.7977 38.3502C79.4391 38.8273 80.8813 39.8246 81.9071 41.1919C82.9329 42.5593 83.487 44.2228 83.4859 45.9322C83.4859 46.0398 83.4859 46.1473 83.4769 46.2549C83.8869 46.1169 84.3168 46.0472 84.7495 46.0487C85.7453 46.0489 86.703 46.4319 87.4244 47.1184C88.1458 47.8049 88.5757 48.7424 88.6252 49.737C88.6747 50.7316 88.34 51.7072 87.6903 52.4619C87.0407 53.2167 86.1257 53.6928 85.1348 53.7919L67.5693 53.8277C66.476 53.8265 65.4026 53.5345 64.4593 52.9817C63.516 52.4289 62.7366 51.6353 62.2011 50.6821C62.1742 50.6283 62.1384 50.5745 62.1115 50.5207C61.8742 50.0416 61.6937 49.5363 61.5738 49.0152V49.0152Z" fill="white"/>
<path d="M23.6323 53.8107H22.6323V55.8107H23.6323V53.8107Z" fill="white"/>
<path d="M25.1323 63.1964H23.1323C23.0667 63.1964 23.0016 63.1835 22.9409 63.1584C22.8803 63.1333 22.8251 63.0965 22.7787 63.05C22.7322 63.0036 22.6954 62.9485 22.6703 62.8878C22.6452 62.8271 22.6323 62.7621 22.6323 62.6964V60.6964H23.6323V62.1964H25.1323V63.1964Z" fill="white"/>
<path d="M34.3257 62.1964H29.729V63.1964H34.3257V62.1964Z" fill="white"/>
<path d="M40.9233 62.1964H38.9233V63.1964H40.9233V62.1964Z" fill="white"/>
<path d="M76.0991 36.0367H75.0991V38.0367H76.0991V36.0367Z" fill="white"/>
<path d="M76.0991 27.5738H75.0991V31.8053H76.0991V27.5738Z" fill="white"/>
<path d="M76.0991 23.3424H75.0991V21.8424H73.5991V20.8424H75.5991C75.6648 20.8423 75.7298 20.8552 75.7905 20.8804C75.8512 20.9055 75.9063 20.9423 75.9528 20.9887C75.9992 21.0352 76.036 21.0903 76.0611 21.151C76.0862 21.2117 76.0992 21.2767 76.0991 21.3424V23.3424Z" fill="white"/>
<path d="M69.2075 21.8424H64.8159V20.8424H69.2075V21.8424ZM60.4243 21.8424H56.0327V20.8424H60.4243V21.8424Z" fill="white"/>
<path d="M50.1421 24.5074H49.1421V21.3424C49.1421 21.2768 49.155 21.2117 49.1801 21.151C49.2052 21.0904 49.242 21.0352 49.2885 20.9888C49.3349 20.9424 49.39 20.9055 49.4507 20.8804C49.5114 20.8553 49.5764 20.8424 49.6421 20.8424H51.6421V21.8424H50.1421V24.5074Z" fill="white"/>
</g>
<defs>
<linearGradient id="paint0_linear" x1="47.8698" y1="-15.1531" x2="51.8525" y2="130.615" gradientUnits="userSpaceOnUse">
<stop stop-color="#00ABDE"/>
<stop offset="1" stop-color="#007ED8"/>
</linearGradient>
<linearGradient id="paint1_linear" x1="49.5718" y1="67.3902" x2="49.5718" y2="32.0745" gradientUnits="userSpaceOnUse">
<stop stop-color="#003067"/>
<stop offset="0.16493" stop-color="#003F7C"/>
<stop offset="0.36216" stop-color="#004F90"/>
<stop offset="0.68089" stop-color="#00589D"/>
<stop offset="1" stop-color="#005BA1"/>
</linearGradient>
<linearGradient id="paint2_linear" x1="49.5717" y1="65.1869" x2="49.5717" y2="34.2857" gradientUnits="userSpaceOnUse">
<stop stop-color="#005BA1"/>
<stop offset="0.26" stop-color="#00589D"/>
<stop offset="0.53" stop-color="#004F90"/>
<stop offset="0.8" stop-color="#003F7C"/>
<stop offset="1" stop-color="#003067"/>
</linearGradient>
<linearGradient id="paint3_linear" x1="49.5718" y1="72.8984" x2="49.5718" y2="67.3902" gradientUnits="userSpaceOnUse">
<stop stop-color="#004DAE"/>
<stop offset="0.21" stop-color="#0061C4"/>
<stop offset="0.51" stop-color="#0078DD"/>
<stop offset="0.78" stop-color="#0086EC"/>
<stop offset="1" stop-color="#008BF1"/>
</linearGradient>
<linearGradient id="paint4_linear" x1="38.6631" y1="65.1869" x2="38.6631" y2="37.7002" gradientUnits="userSpaceOnUse">
<stop stop-color="#008BF1"/>
<stop offset="0.22" stop-color="#0086EC"/>
<stop offset="0.49" stop-color="#0078DD"/>
<stop offset="0.79" stop-color="#0061C4"/>
<stop offset="1" stop-color="#004DAE"/>
</linearGradient>
<linearGradient id="paint5_linear" x1="38.663" y1="38.2318" x2="38.663" y2="37.1526" gradientUnits="userSpaceOnUse">
<stop stop-color="white"/>
<stop offset="0.56" stop-color="#FBFBFB"/>
<stop offset="1" stop-color="#F2F2F2"/>
</linearGradient>
<linearGradient id="paint6_linear" x1="38.6632" y1="65.1869" x2="38.6632" y2="37.7002" gradientUnits="userSpaceOnUse">
<stop stop-color="#008BF1"/>
<stop offset="0.22" stop-color="#0086EC"/>
<stop offset="0.49" stop-color="#0078DD"/>
<stop offset="0.79" stop-color="#0061C4"/>
<stop offset="1" stop-color="#004DAE"/>
</linearGradient>
<linearGradient id="paint7_linear" x1="38.663" y1="38.2318" x2="38.663" y2="37.1526" gradientUnits="userSpaceOnUse">
<stop stop-color="white"/>
<stop offset="0.56" stop-color="#FBFBFB"/>
<stop offset="1" stop-color="#F2F2F2"/>
</linearGradient>
<clipPath id="clip0">
<rect width="99.2799" height="99.28" fill="white"/>
</clipPath>
</defs>
</svg>
