<svg width="103" height="103" viewBox="0 0 103 103" fill="none" xmlns="http://www.w3.org/2000/svg">
<path d="M51.8186 98.5111C77.671 98.5111 98.6245 77.5575 98.6245 51.7052C98.6245 25.8528 77.671 4.89923 51.8186 4.89923C25.9662 4.89923 5.0127 25.8528 5.0127 51.7052C5.0127 77.5575 25.9662 98.5111 51.8186 98.5111Z" fill="url(#paint0_linear)"/>
<path fill-rule="evenodd" clip-rule="evenodd" d="M51.8184 1.7052C24.205 1.7052 1.81836 24.0919 1.81836 51.7052C1.81836 79.3185 24.205 101.705 51.8184 101.705C79.4317 101.705 101.818 79.3185 101.818 51.7052C101.818 24.0919 79.4317 1.7052 51.8184 1.7052ZM51.8184 97.462C26.5467 97.462 6.06152 76.9768 6.06152 51.7052C6.06152 26.4336 26.5467 5.94836 51.8184 5.94836C77.09 5.94836 97.5752 26.4336 97.5752 51.7052C97.5752 76.9768 77.09 97.462 51.8184 97.462Z" fill="#D9D9D9"/>
<path fill-rule="evenodd" clip-rule="evenodd" d="M5.92104 51.7052C5.92104 77.0518 26.4718 97.6026 51.8184 97.6026C77.165 97.6026 97.7157 77.0518 97.7157 51.7052C97.7157 26.3586 77.165 5.80788 51.8184 5.80788C26.4718 5.80788 5.92104 26.3586 5.92104 51.7052ZM51.8184 2.06116C24.4017 2.06116 2.17432 24.2886 2.17432 51.7052C2.17432 79.1219 24.4017 101.349 51.8184 101.349C79.235 101.349 101.462 79.1219 101.462 51.7052C101.462 24.2886 79.235 2.06116 51.8184 2.06116Z" fill="#F2F1F0"/>
<path fill-rule="evenodd" clip-rule="evenodd" d="M8.7311 51.7052C8.7311 75.5062 28.0173 94.7925 51.8184 94.7925C75.6194 94.7925 94.9057 75.5062 94.9057 51.7052C94.9057 27.9041 75.6194 8.61788 51.8184 8.61788C28.0173 8.61788 8.7311 27.9041 8.7311 51.7052ZM51.8184 4.87115C25.9566 4.87115 4.98438 25.8434 4.98438 51.7052C4.98438 77.5669 25.9566 98.5392 51.8184 98.5392C77.6801 98.5392 98.6524 77.5669 98.6524 51.7052C98.6524 25.8434 77.6895 4.87115 51.8184 4.87115Z" fill="#0078D4"/>
<path d="M20.6735 31.0983H82.9533C84.9391 31.0983 86.5408 32.7094 86.5408 34.6858V70.6168C86.5408 72.6026 84.9297 74.2043 82.9533 74.2043H20.6735C18.6877 74.2043 17.086 72.5932 17.086 70.6168V34.6858C17.0766 32.7094 18.6877 31.0983 20.6735 31.0983Z" fill="url(#paint1_linear)" stroke="#A3A3A3" stroke-width="1.6164"/>
<path opacity="0.15" d="M20.7859 32.9435H82.8503C84.8923 32.9435 86.5502 34.6015 86.5502 36.6434V72.3591C86.5502 74.401 84.8923 76.0589 82.8503 76.0589H20.7859C18.7439 76.0589 17.086 74.401 17.086 72.3591V36.6528C17.0766 34.6108 18.7345 32.9435 20.7859 32.9435Z" fill="#1F1D20"/>
<path d="M20.6735 31.0983H82.9533C84.9391 31.0983 86.5408 32.7094 86.5408 34.6858V70.6168C86.5408 72.6026 84.9297 74.2043 82.9533 74.2043H20.6735C18.6877 74.2043 17.086 72.5932 17.086 70.6168V34.6858C17.0766 32.7094 18.6877 31.0983 20.6735 31.0983Z" fill="url(#paint2_linear)" stroke="#A3A3A3" stroke-width="1.6164"/>
<path opacity="0.2" fill-rule="evenodd" clip-rule="evenodd" d="M39.7256 57.2316C38.2644 57.2316 37.0654 56.0327 37.0654 54.5714V24.0169C37.0654 22.5557 38.2644 21.3568 39.7256 21.3568H76.9305C78.3918 21.3568 79.5907 22.5557 79.5907 24.0169V54.5714C79.5907 56.0327 78.3918 57.2316 76.9305 57.2316H39.7256Z" fill="#1F1D21"/>
<path fill-rule="evenodd" clip-rule="evenodd" d="M39.7256 55.3583C38.2644 55.3583 37.0654 54.1593 37.0654 52.6981V22.1436C37.0654 20.6823 38.2644 19.4834 39.7256 19.4834H76.9305C78.3918 19.4834 79.5907 20.6823 79.5907 22.1436V52.6981C79.5907 54.1593 78.3918 55.3583 76.9305 55.3583H39.7256Z" fill="url(#paint3_linear)"/>
<path fill-rule="evenodd" clip-rule="evenodd" d="M40.3906 53.3631C39.66 53.3631 39.0605 52.7636 39.0605 52.033V26.7895C39.0605 26.0589 39.66 25.4594 40.3906 25.4594H76.2655C76.9961 25.4594 77.5956 26.0589 77.5956 26.7895V52.033C77.5956 52.7636 76.9961 53.3631 76.2655 53.3631H40.3906V53.3631Z" fill="#C3F1FF"/>
<path fill-rule="evenodd" clip-rule="evenodd" d="M39.7256 22.4714C39.7256 21.9188 40.1752 21.4785 40.7185 21.4785C41.2711 21.4785 41.7113 21.9281 41.7113 22.4714C41.7113 23.024 41.2617 23.4643 40.7185 23.4643C40.1658 23.4643 39.7256 23.024 39.7256 22.4714Z" fill="#DF5142"/>
<path fill-rule="evenodd" clip-rule="evenodd" d="M43.7065 22.4714C43.7065 21.9188 44.1561 21.4785 44.6994 21.4785C45.2521 21.4785 45.6923 21.9281 45.6923 22.4714C45.6923 23.024 45.2427 23.4643 44.6994 23.4643C44.1561 23.4643 43.7065 23.024 43.7065 22.4714Z" fill="#EFB252"/>
<path fill-rule="evenodd" clip-rule="evenodd" d="M47.6968 22.4714C47.6968 21.9188 48.1464 21.4785 48.6897 21.4785C49.2423 21.4785 49.6825 21.9281 49.6825 22.4714C49.6825 23.024 49.2329 23.4643 48.6897 23.4643C48.1464 23.4643 47.6968 23.024 47.6968 22.4714Z" fill="#7CB65A"/>
<path fill-rule="evenodd" clip-rule="evenodd" d="M76.5933 23.4643H54.01C53.4573 23.4643 53.0171 23.0147 53.0171 22.4714C53.0171 21.9188 53.4667 21.4785 54.01 21.4785H76.5933C77.146 21.4785 77.5862 21.9281 77.5862 22.4714C77.5862 23.024 77.146 23.4643 76.5933 23.4643Z" fill="#C3F1FF"/>
<path opacity="0.2" d="M13.686 67.8348H52.2398V38.1514H13.686V67.8348Z" fill="#1F1D21"/>
<path d="M13.686 66.561H52.2398V36.8776H13.686V66.561Z" fill="url(#paint4_linear)"/>
<path d="M13.686 40.081H52.2211V36.0626H13.686V40.081Z" fill="url(#paint5_linear)"/>
<path d="M19.6998 39.1349C20.2431 39.1349 20.6833 38.6947 20.6833 38.1514C20.6833 37.6081 20.2431 37.1679 19.6998 37.1679C19.1565 37.1679 18.7163 37.6081 18.7163 38.1514C18.7163 38.6947 19.1565 39.1349 19.6998 39.1349Z" fill="white"/>
<path d="M16.6554 39.1349C17.1987 39.1349 17.6389 38.6947 17.6389 38.1514C17.6389 37.6081 17.1987 37.1679 16.6554 37.1679C16.1121 37.1679 15.6719 37.6081 15.6719 38.1514C15.6719 38.6947 16.1121 39.1349 16.6554 39.1349Z" fill="white"/>
<path d="M22.8092 39.1349C23.3525 39.1349 23.7927 38.6947 23.7927 38.1514C23.7927 37.6081 23.3525 37.1679 22.8092 37.1679C22.2659 37.1679 21.8257 37.6081 21.8257 38.1514C21.8257 38.6947 22.2659 39.1349 22.8092 39.1349Z" fill="white"/>
<path d="M26.8652 44.1274H18.688V52.2485H26.8652V44.1274Z" fill="#C3F1FF"/>
<path d="M37.0093 44.1274H28.832V52.2485H37.0093V44.1274Z" fill="#C3F1FF"/>
<path d="M47.1626 44.1274H38.9854V52.2485H47.1626V44.1274Z" fill="white"/>
<path d="M26.8652 54.2811H18.688V62.4021H26.8652V54.2811Z" fill="white"/>
<path d="M37.0093 54.2811H28.832V62.4021H37.0093V54.2811Z" fill="white"/>
<path d="M47.1626 54.2811H38.9854V62.4021H47.1626V54.2811Z" fill="#C3F1FF"/>
<path opacity="0.2" d="M54.3008 59.2736V79.2249H82.8133V59.2736H82.7384L68.5196 73.4924L54.3008 59.2736Z" fill="#1F1D21"/>
<path d="M82.8133 77.8105V57.8592H54.3008V77.8105H54.3757L68.5945 63.5917L82.8133 77.8105Z" fill="url(#paint6_linear)"/>
<path d="M68.5948 63.5917L54.376 77.8105H82.8136L68.5948 63.5917Z" fill="#45CAF2"/>
<path d="M70.1778 70.495L82.8136 57.8592H54.376L67.0118 70.495C67.8923 71.3661 69.3067 71.3661 70.1778 70.495Z" fill="white"/>
<defs>
<linearGradient id="paint0_linear" x1="53.5889" y1="-13.0877" x2="49.6062" y2="132.68" gradientUnits="userSpaceOnUse">
<stop stop-color="#00ABDE"/>
<stop offset="1" stop-color="#007ED8"/>
</linearGradient>
<linearGradient id="paint1_linear" x1="51.8134" y1="31.0936" x2="51.8134" y2="74.2001" gradientUnits="userSpaceOnUse">
<stop stop-color="#555559"/>
<stop offset="1" stop-color="#2E2E33"/>
</linearGradient>
<linearGradient id="paint2_linear" x1="51.8134" y1="31.0936" x2="51.8134" y2="74.2001" gradientUnits="userSpaceOnUse">
<stop stop-color="#555559"/>
<stop offset="1" stop-color="#2E2E33"/>
</linearGradient>
<linearGradient id="paint3_linear" x1="37.0665" y1="37.4179" x2="79.5819" y2="37.4179" gradientUnits="userSpaceOnUse">
<stop stop-color="#005BA1"/>
<stop offset="0.26" stop-color="#00589D"/>
<stop offset="0.53" stop-color="#004F90"/>
<stop offset="0.8" stop-color="#003F7C"/>
<stop offset="1" stop-color="#003067"/>
</linearGradient>
<linearGradient id="paint4_linear" x1="34.5603" y1="24.6187" x2="31.1236" y2="83.0434" gradientUnits="userSpaceOnUse">
<stop stop-color="#008BF1"/>
<stop offset="0.22" stop-color="#0086EC"/>
<stop offset="0.49" stop-color="#0078DD"/>
<stop offset="0.79" stop-color="#0061C4"/>
<stop offset="1" stop-color="#004DAE"/>
</linearGradient>
<linearGradient id="paint5_linear" x1="13.6907" y1="38.0752" x2="52.2281" y2="38.0752" gradientUnits="userSpaceOnUse">
<stop stop-color="#005BA1"/>
<stop offset="0.26" stop-color="#00589D"/>
<stop offset="0.53" stop-color="#004F90"/>
<stop offset="0.8" stop-color="#003F7C"/>
<stop offset="1" stop-color="#003067"/>
</linearGradient>
<linearGradient id="paint6_linear" x1="54.3029" y1="67.8366" x2="82.8137" y2="67.8366" gradientUnits="userSpaceOnUse">
<stop stop-color="#008BF1"/>
<stop offset="0.22" stop-color="#0086EC"/>
<stop offset="0.49" stop-color="#0078DD"/>
<stop offset="0.79" stop-color="#0061C4"/>
<stop offset="1" stop-color="#004DAE"/>
</linearGradient>
</defs>
</svg>
