<svg width="102" height="102" viewBox="0 0 102 102" fill="none" xmlns="http://www.w3.org/2000/svg">
<path d="M50.9999 97.8099C25.1499 97.8099 4.18994 76.8599 4.18994 50.9999C4.18994 25.1399 25.1499 4.18994 50.9999 4.18994C76.8499 4.18994 97.8099 25.1499 97.8099 50.9999C97.8099 76.8499 76.8499 97.8099 50.9999 97.8099Z" fill="url(#paint0_linear)"/>
<path fill-rule="evenodd" clip-rule="evenodd" d="M96.9001 50.9999C96.9001 76.3499 76.3501 96.8999 51.0001 96.8999C25.6501 96.8999 5.10011 76.3499 5.10011 50.9999C5.10011 25.6499 25.6501 5.09986 51.0001 5.09986C76.3501 5.09986 96.9001 25.6499 96.9001 50.9999ZM51.0001 1.35986C78.4201 1.35986 100.64 23.5799 100.64 50.9999C100.64 78.4199 78.4101 100.64 51.0001 100.64C23.5801 100.64 1.36011 78.4099 1.36011 50.9999C1.36011 23.5799 23.5801 1.35986 51.0001 1.35986Z" fill="#F2F1F0"/>
<path fill-rule="evenodd" clip-rule="evenodd" d="M94.0899 50.9999C94.0899 74.7999 74.7999 94.0899 50.9999 94.0899C27.1999 94.0899 7.90992 74.7999 7.90992 50.9999C7.90992 27.1999 27.1999 7.90992 50.9999 7.90992C74.7999 7.90992 94.0899 27.1999 94.0899 50.9999ZM50.9999 4.16992C76.8599 4.16992 97.8299 25.1399 97.8299 50.9999C97.8299 76.8599 76.8599 97.8299 50.9999 97.8299C25.1399 97.8299 4.16992 76.8599 4.16992 50.9999C4.16992 25.1399 25.1299 4.16992 50.9999 4.16992Z" fill="url(#paint1_linear)"/>
<path opacity="0.2" d="M87.7601 35.8101H68.5901C68.2001 35.8101 67.8901 36.1201 67.8901 36.5101V37.5801V38.0201V49.6201C67.8901 49.9901 68.1901 50.2801 68.5501 50.2801H87.7901C88.1601 50.2801 88.4501 49.9801 88.4501 49.6201L88.4601 38.0201V36.5101C88.4601 36.1301 88.1501 35.8101 87.7601 35.8101Z" fill="#1F1D21"/>
<path opacity="0.2" d="M88.4701 54.0301C88.4601 53.6401 88.1501 53.3301 87.7601 53.3301H68.6001C68.2101 53.3301 67.9001 53.6401 67.9001 54.0301V55.1101H67.8901V67.1501C67.8901 67.5201 68.1901 67.8101 68.5501 67.8101H87.7901C88.1601 67.8101 88.4501 67.5101 88.4501 67.1501L88.4601 55.5401H88.4701V54.0301V54.0301Z" fill="#1F1D21"/>
<path d="M75.5799 61.05H63.5799C63.3299 61.05 63.1299 60.85 63.1299 60.6V41.2C63.1299 40.95 63.3299 40.75 63.5799 40.75H77.1899V41.66H64.0399V60.14H75.5799V61.05V61.05Z" fill="white"/>
<path d="M54.74 50.0601H63.27" stroke="white" stroke-miterlimit="10" stroke-linejoin="round"/>
<path d="M87.7601 34.7202H68.5901C68.2001 34.7202 67.8901 35.0302 67.8901 35.4202V36.4902V36.9302V48.5302C67.8901 48.9002 68.1901 49.1902 68.5501 49.1902H87.7901C88.1601 49.1902 88.4501 48.8902 88.4501 48.5302L88.4601 36.9302V35.4202C88.4601 35.0302 88.1501 34.7202 87.7601 34.7202Z" fill="url(#paint2_linear)"/>
<path d="M88.4701 52.9402C88.4601 52.5502 88.1501 52.2402 87.7601 52.2402H68.6001C68.2101 52.2402 67.9001 52.5502 67.9001 52.9402V54.0202H67.8901V66.0602C67.8901 66.4302 68.1901 66.7202 68.5501 66.7202H87.7901C88.1601 66.7202 88.4501 66.4202 88.4501 66.0602L88.4601 54.4502H88.4701V52.9402V52.9402Z" fill="url(#paint3_linear)"/>
<path d="M82.2201 57.1599L81.0001 55.9399L78.2501 58.6799L75.5501 55.9799L74.3301 57.1999L77.0301 59.8999L74.3801 62.5599L75.6001 63.7799L78.2501 61.1199L80.9701 63.8299L82.1901 62.6099L79.4701 59.8999L82.2201 57.1599Z" fill="#F2F1F0"/>
<path d="M82.8799 37.5601L76.5499 43.9101L74.6599 42.0101L73.3999 43.2801L76.5599 46.4501L84.1499 38.8301L82.8799 37.5601Z" fill="#F2F1F0"/>
<path opacity="0.2" d="M30.3201 73.3501H57.9301C59.1701 73.3501 60.1701 72.3501 60.1701 71.1101V30.5801H16.3201V71.1101C16.3201 72.3501 17.3201 73.3501 18.5601 73.3501H23.3401H30.3201Z" fill="#1F1D21"/>
<path d="M30.3201 71.9897H58.6501C59.4901 71.9897 60.1701 71.3097 60.1701 70.4697V30.7397C60.1601 29.8997 59.4801 29.2197 58.6501 29.2197H17.8401C17.0001 29.2197 16.3201 29.8997 16.3201 30.7397V70.4697C16.3201 71.3097 17.0001 71.9897 17.8401 71.9897H23.3301H30.3201Z" fill="url(#paint4_linear)"/>
<path d="M60.1601 29.98C60.1601 29.14 59.4801 28.46 58.6401 28.46H17.8401C17.0001 28.46 16.3201 29.14 16.3201 29.98V31.43H60.1601V29.98Z" fill="url(#paint5_linear)"/>
<path opacity="0.4" d="M25.09 58.1301C22.4 58.1301 20.22 55.9501 20.22 53.2601C20.22 50.8001 22.04 48.7801 24.4 48.4601C24.22 47.7001 24.1 46.9001 24.1 46.0701C24.12 40.6901 28.47 36.3501 33.85 36.3501C37.55 36.3501 40.77 38.4401 42.42 41.4901C43.22 41.1001 44.14 40.8701 45.11 40.8701C48.47 40.8701 51.2 43.6001 51.2 46.9601C51.2 47.4701 51.13 47.9701 51.02 48.4501C51.2 48.4301 51.39 48.4301 51.57 48.4301C54.24 48.4101 56.42 50.5701 56.42 53.2501C56.42 55.9401 54.24 58.1201 51.55 58.1201H25.09V58.1301Z" fill="url(#paint6_linear)"/>
<path d="M51.5401 58.5302H25.0901C22.1901 58.5302 19.8201 56.1702 19.8201 53.2702C19.8201 50.8002 21.5601 48.6802 23.9201 48.1502C23.7701 47.4402 23.7001 46.7502 23.7001 46.0802C23.7201 40.5102 28.2701 35.9702 33.8401 35.9702C37.4301 35.9702 40.7501 37.8902 42.5801 41.0002C43.3801 40.6702 44.2401 40.4902 45.1001 40.4902C48.6801 40.4902 51.5801 43.4002 51.5801 46.9702C51.5801 47.3202 51.5501 47.6802 51.4901 48.0502C51.5301 48.0502 51.5701 48.0502 51.6001 48.0502C52.9801 48.0502 54.2701 48.5802 55.2501 49.5602C56.2501 50.5502 56.7901 51.8602 56.7901 53.2702C56.8101 56.1702 54.4501 58.5302 51.5401 58.5302ZM33.8401 36.7502C28.7001 36.7502 24.5101 40.9302 24.4901 46.0802C24.4901 46.8202 24.5901 47.5902 24.7801 48.3702L24.8801 48.7902L24.4501 48.8502C22.2601 49.1502 20.6101 51.0402 20.6101 53.2602C20.6101 55.7302 22.6201 57.7402 25.0901 57.7402H51.5501C54.0201 57.7402 56.0301 55.7302 56.0301 53.2602C56.0301 52.0702 55.5601 50.9502 54.7201 50.1102C53.8801 49.2702 52.7701 48.8002 51.5801 48.8302C51.5701 48.8302 51.5501 48.8302 51.5401 48.8302C51.3801 48.8302 51.2301 48.8302 51.0701 48.8502L50.5101 48.9202L50.6401 48.3702C50.7601 47.8802 50.8101 47.4102 50.8101 46.9702C50.8101 43.8302 48.2501 41.2802 45.1101 41.2802C44.2501 41.2802 43.3701 41.4802 42.5901 41.8602L42.2501 42.0202L42.0701 41.6902C40.4201 38.6402 37.2701 36.7502 33.8401 36.7502Z" fill="white"/>
<path opacity="0.15" d="M38.3301 56.3301L48.3101 62.1301L38.3001 67.9301L28.3401 62.1301L38.3301 56.3301Z" fill="#1F1D20"/>
<path d="M38.3001 55.33V66.92L28.3401 61.09V49.52L38.3001 55.33Z" fill="#32B0E7"/>
<path d="M38.3301 43.7202L48.3101 49.5202L38.3001 55.3202L28.3401 49.5202L38.3301 43.7202Z" fill="#45CAF2"/>
<path d="M48.3101 49.52V61.08L38.3 66.92V55.33L48.3101 49.52Z" fill="#156AB3"/>
<path d="M38.3 66.9201V55.3301L48.3101 61.0901L38.3 66.9201Z" fill="#185A97"/>
<path d="M38.3001 66.9201V55.3301L28.3401 61.0901L38.3001 66.9201Z" fill="#0078D4"/>
<path fill-rule="evenodd" clip-rule="evenodd" d="M36.4002 67.8203C36.4002 68.3303 35.9802 68.7503 35.4702 68.7503H27.1002C26.6002 68.7503 26.1702 68.3303 26.1702 67.8203V60.8403H36.4002V67.8203Z" fill="#30404D"/>
<path fill-rule="evenodd" clip-rule="evenodd" d="M36.4002 60.8502C36.4002 61.3602 35.9802 61.7802 35.4702 61.7802H27.1002C26.6002 61.7902 26.1702 61.3602 26.1702 60.8502V59.9202C26.1702 59.4102 26.5902 58.9902 27.1002 58.9902H35.4702C35.9802 58.9902 36.4002 59.4102 36.4002 59.9202V60.8502Z" fill="#546670"/>
<path fill-rule="evenodd" clip-rule="evenodd" d="M35.4702 62.0103H31.7502C31.5002 62.0103 31.2802 62.2203 31.2802 62.4803V67.8203C31.2802 68.0703 31.0702 68.2903 30.8102 68.2903H27.1002C26.6002 68.2903 26.1702 67.8703 26.1702 67.3603V67.8303C26.1702 68.3403 26.5902 68.7603 27.1002 68.7603H35.4702C35.9802 68.7603 36.4002 68.3403 36.4002 67.8303V61.0903C36.4002 61.5903 35.9802 62.0103 35.4702 62.0103Z" fill="#182A37"/>
<path fill-rule="evenodd" clip-rule="evenodd" d="M31.2901 63.7104C30.4601 63.7104 29.8 64.3804 29.8 65.2004C29.8 66.0304 30.4701 66.6905 31.2901 66.6905C32.1201 66.6905 32.78 66.0204 32.78 65.2004C32.78 64.3704 32.1101 63.7104 31.2901 63.7104Z" fill="#50E6FF"/>
<path fill-rule="evenodd" clip-rule="evenodd" d="M29.2001 60.3904C29.2001 60.7704 28.7801 61.0904 28.2701 61.0904C27.7601 61.0904 27.3401 60.7704 27.3401 60.3904C27.3401 60.0104 27.7601 59.6904 28.2701 59.6904C28.7801 59.6904 29.2001 59.9904 29.2001 60.3904Z" fill="#182A37"/>
<path fill-rule="evenodd" clip-rule="evenodd" d="M35.2401 60.3902C35.2401 60.7702 34.8201 61.0902 34.3101 61.0902C33.8001 61.0902 33.3801 60.7802 33.3801 60.3902C33.3801 60.0102 33.8001 59.6902 34.3101 59.6902C34.8201 59.6802 35.2401 59.9902 35.2401 60.3902Z" fill="#182A37"/>
<path fill-rule="evenodd" clip-rule="evenodd" d="M31.2901 53.8804C29.2401 53.8804 27.5701 55.5404 27.5701 57.6004V60.8404C27.7401 60.9804 27.9901 61.0804 28.2701 61.0804C28.5501 61.0804 28.7901 60.9904 28.9701 60.8404V57.6004C28.9701 56.3204 30.0201 55.2804 31.2901 55.2804C32.5701 55.2804 33.6101 56.3304 33.6101 57.6004V60.3804C33.6101 60.6304 33.9201 60.8504 34.3101 60.8504C34.6901 60.8504 35.0101 60.6404 35.0101 60.3804V57.6004C35.0001 55.5404 33.3401 53.8804 31.2901 53.8804Z" fill="#30404D"/>
<path fill-rule="evenodd" clip-rule="evenodd" d="M29.9501 55.4504C29.0601 55.8304 28.49 56.7404 28.49 57.7104V60.0904C28.49 60.3904 28.2 60.6204 27.9 60.5404C27.76 60.5004 27.63 60.4504 27.55 60.3804V60.8504C27.72 60.9904 27.97 61.0904 28.25 61.0904C28.33 61.0904 28.41 61.0804 28.48 61.0604C28.52 61.0504 28.5701 61.0404 28.6201 61.0304C28.6401 61.0204 28.66 61.0204 28.68 61.0004C28.71 60.9904 28.7401 60.9704 28.7701 60.9604C28.7801 60.9504 28.8 60.9504 28.81 60.9304C28.85 60.9004 28.8901 60.8704 28.9401 60.8504V57.6104C28.9401 56.4104 29.8601 55.4104 31.0301 55.3004C30.7101 55.2404 30.3401 55.2904 29.9501 55.4504Z" fill="#182A37"/>
<path fill-rule="evenodd" clip-rule="evenodd" d="M31.2901 53.8804C31.2101 53.8804 31.1301 53.8904 31.0601 53.8904C33.0101 54.0204 34.5401 55.6204 34.5401 57.5904V60.0704C34.5401 60.3704 34.2501 60.6004 33.9501 60.5204C33.8101 60.4804 33.6801 60.4304 33.6001 60.3604V60.8304C33.7701 60.9704 34.0201 61.0704 34.3001 61.0704C34.5801 61.0704 34.8201 60.9804 35.0001 60.8304V57.5904C35.0001 55.5404 33.3401 53.8804 31.2901 53.8804Z" fill="#182A37"/>
<defs>
<linearGradient id="paint0_linear" x1="49.23" y1="-13.7897" x2="53.212" y2="131.98" gradientUnits="userSpaceOnUse">
<stop stop-color="#00ABDE"/>
<stop offset="1" stop-color="#007ED8"/>
</linearGradient>
<linearGradient id="paint1_linear" x1="2.43262" y1="-20.6246" x2="97.9596" y2="120.257" gradientUnits="userSpaceOnUse">
<stop stop-color="#007ED8"/>
<stop offset="0.7065" stop-color="#002D4C"/>
</linearGradient>
<linearGradient id="paint2_linear" x1="61.0493" y1="25.6166" x2="112.328" y2="74.5759" gradientUnits="userSpaceOnUse">
<stop stop-color="#007ED8"/>
<stop offset="0.7065" stop-color="#002D4C"/>
</linearGradient>
<linearGradient id="paint3_linear" x1="52.2982" y1="34.7822" x2="103.577" y2="83.7415" gradientUnits="userSpaceOnUse">
<stop stop-color="#007ED8"/>
<stop offset="0.7065" stop-color="#002D4C"/>
</linearGradient>
<linearGradient id="paint4_linear" x1="26.6548" y1="-11.8208" x2="47.2105" y2="98.8868" gradientUnits="userSpaceOnUse">
<stop offset="0.0435" stop-color="white"/>
<stop offset="0.4857" stop-color="#4DC1EA"/>
<stop offset="0.8452" stop-color="#0078D4"/>
</linearGradient>
<linearGradient id="paint5_linear" x1="40.4387" y1="3.64985" x2="36.6212" y2="50.6346" gradientUnits="userSpaceOnUse">
<stop stop-color="#007ED8"/>
<stop offset="0.7065" stop-color="#002D4C"/>
</linearGradient>
<linearGradient id="paint6_linear" x1="37.5215" y1="21.0873" x2="38.4777" y2="59.8498" gradientUnits="userSpaceOnUse">
<stop offset="0.5727" stop-color="white" stop-opacity="0"/>
<stop offset="0.7823" stop-color="white" stop-opacity="0.4301"/>
<stop offset="0.9044" stop-color="white" stop-opacity="0.5"/>
<stop offset="0.9273" stop-color="white"/>
</linearGradient>
</defs>
</svg>
