<svg width="103" height="103" viewBox="0 0 103 103" fill="none" xmlns="http://www.w3.org/2000/svg">
<path d="M51.1632 98.1456C25.3132 98.1456 4.35315 77.1956 4.35315 51.3356C4.35315 25.4756 25.3132 4.52563 51.1632 4.52563C77.0132 4.52563 97.9731 25.4856 97.9731 51.3356C97.9731 77.1856 77.0132 98.1456 51.1632 98.1456Z" fill="url(#paint0_linear)"/>
<path fill-rule="evenodd" clip-rule="evenodd" d="M97.0632 51.3358C97.0632 76.6858 76.5132 97.2358 51.1632 97.2358C25.8132 97.2358 5.26319 76.6858 5.26319 51.3358C5.26319 25.9858 25.8132 5.4358 51.1632 5.4358C76.5132 5.4358 97.0632 25.9858 97.0632 51.3358ZM51.1632 1.6958C78.5832 1.6958 100.803 23.9158 100.803 51.3358C100.803 78.7558 78.5732 100.976 51.1632 100.976C23.7432 100.976 1.52319 78.7458 1.52319 51.3358C1.52319 23.9158 23.7432 1.6958 51.1632 1.6958Z" fill="#F2F1F0"/>
<path fill-rule="evenodd" clip-rule="evenodd" d="M94.2533 51.3356C94.2533 75.1356 74.9633 94.4256 51.1633 94.4256C27.3633 94.4256 8.07325 75.1356 8.07325 51.3356C8.07325 27.5356 27.3633 8.24562 51.1633 8.24562C74.9633 8.24562 94.2533 27.5356 94.2533 51.3356ZM51.1633 4.50562C77.0233 4.50562 97.9933 25.4756 97.9933 51.3356C97.9933 77.1956 77.0233 98.1656 51.1633 98.1656C25.3033 98.1656 4.33325 77.1956 4.33325 51.3356C4.33325 25.4756 25.2933 4.50562 51.1633 4.50562Z" fill="url(#paint1_linear)"/>
<path d="M44.5432 60.1157H32.6132C31.4832 60.1157 30.5732 61.0257 30.5732 62.1557V73.0057C30.5732 77.1457 33.9332 80.4957 38.0632 80.4957H38.1132C42.2532 80.4957 45.6032 77.1357 45.6032 73.0057V61.1857C45.6132 60.5957 45.1332 60.1157 44.5432 60.1157Z" fill="#5059C9"/>
<path d="M37.2532 57.9158C33.9832 58.4158 31.2132 55.6458 31.7132 52.3858C32.0232 50.3558 33.6832 48.6958 35.7232 48.3758C38.9932 47.8758 41.7632 50.6458 41.2632 53.9058C40.9432 55.9358 39.2832 57.5958 37.2532 57.9158Z" fill="#5059C9"/>
<path d="M52.8933 57.8458C47.9733 58.7758 43.7333 54.5558 44.6733 49.6358C45.1933 46.8858 47.4133 44.6758 50.1533 44.1558C55.0733 43.2258 59.3133 47.4458 58.3733 52.3658C57.8533 55.1058 55.6333 57.3158 52.8933 57.8458Z" fill="#7B83EB"/>
<path d="M42.2132 60.1157H61.9032C63.0132 60.1457 63.8932 61.0657 63.8732 62.1757V74.5557C64.0332 81.2357 58.7432 86.7757 52.0532 86.9357C45.3732 86.7757 40.0832 81.2357 40.2332 74.5557V62.1857C40.2132 61.0657 41.0932 60.1457 42.2132 60.1157Z" fill="#7B83EB"/>
<path opacity="0.1" d="M50.9833 60.1157V77.4657C50.9933 78.2657 51.4733 78.9757 52.2033 79.2757C52.4333 79.3757 52.6933 79.4257 52.9433 79.4257H62.9233C63.0633 79.0757 63.1933 78.7157 63.3033 78.3557C63.6833 77.1257 63.8733 75.8457 63.8733 74.5557V62.1757C63.9033 61.0657 63.0233 60.1457 61.9033 60.1157H50.9833Z" fill="black"/>
<path opacity="0.2" d="M52.0632 60.1157V78.5457C52.0632 78.7957 52.1132 79.0557 52.2132 79.2857C52.5132 80.0257 53.2332 80.5057 54.0332 80.5057H62.4332C62.6132 80.1557 62.7832 79.7957 62.9332 79.4357C63.0832 79.0757 63.2032 78.7257 63.3132 78.3657C63.6932 77.1357 63.8832 75.8557 63.8832 74.5657V62.1757C63.9132 61.0657 63.0332 60.1457 61.9132 60.1157H52.0632Z" fill="black"/>
<path opacity="0.2" d="M52.0632 60.1157V76.3957C52.0732 77.4757 52.9432 78.3557 54.0332 78.3557H63.3132C63.6932 77.1257 63.8832 75.8457 63.8832 74.5557V62.1757C63.9132 61.0657 63.0332 60.1457 61.9132 60.1157H52.0632Z" fill="black"/>
<path opacity="0.2" d="M53.1333 60.1157V76.3957C53.1433 77.4757 54.0133 78.3557 55.1033 78.3557H63.3133C63.6933 77.1257 63.8833 75.8457 63.8833 74.5557V62.1757C63.9133 61.0657 63.0333 60.1457 61.9133 60.1157H53.1333Z" fill="black"/>
<path opacity="0.1" d="M50.9833 54.5657V57.9457C51.1633 57.9557 51.3333 57.9657 51.5233 57.9657C51.7133 57.9657 51.8733 57.9557 52.0633 57.9457C52.4233 57.9257 52.7833 57.8657 53.1333 57.7757C55.3133 57.2657 57.1033 55.7357 57.9633 53.6757C58.1133 53.3257 58.2233 52.9657 58.3033 52.6057H52.9433C51.8633 52.6057 50.9833 53.4857 50.9833 54.5657Z" fill="black"/>
<path opacity="0.2" d="M52.0532 55.6458V57.9558C52.4132 57.9358 52.7732 57.8758 53.1232 57.7858C55.3032 57.2758 57.0932 55.7458 57.9532 53.6858H54.0132C52.9432 53.6858 52.0632 54.5558 52.0532 55.6458Z" fill="black"/>
<path opacity="0.2" d="M52.0532 55.6458V57.9558C52.4132 57.9358 52.7732 57.8758 53.1232 57.7858C55.3032 57.2758 57.0932 55.7458 57.9532 53.6858H54.0132C52.9432 53.6858 52.0632 54.5558 52.0532 55.6458Z" fill="black"/>
<path opacity="0.2" d="M53.1333 55.6458V57.7858C55.3133 57.2758 57.1033 55.7458 57.9633 53.6858H55.0933C54.0133 53.6858 53.1333 54.5558 53.1333 55.6458Z" fill="black"/>
<path d="M74.7933 53.6758H55.0933C54.0033 53.6758 53.1233 54.5558 53.1233 55.6458V75.3158C53.1233 76.4058 54.0033 77.2858 55.0933 77.2858H74.7933C75.8833 77.2858 76.7633 76.4058 76.7633 75.3158V55.6458C76.7633 54.5558 75.8833 53.6758 74.7933 53.6758Z" fill="url(#paint2_linear)"/>
<path d="M59.7632 61.1657H63.7032V71.8757H66.2132V61.1657H70.1332V59.0857H59.7632V61.1657Z" fill="white"/>
<path opacity="0.2" d="M32.6832 18.5658V33.4258C32.6832 34.0758 33.2132 34.6058 33.8632 34.6058H47.0132L52.7332 40.2858V34.6058H57.0132C57.8032 34.6058 58.4432 33.9658 58.4432 33.1758V18.8258C58.4432 18.0358 57.8032 17.3958 57.0132 17.3958H33.8632C33.2132 17.3958 32.6832 17.9158 32.6832 18.5658Z" fill="#1F1D21"/>
<path d="M32.6832 16.8158V31.6758C32.6832 32.3258 33.2132 32.8558 33.8632 32.8558H47.0132L52.7332 38.5358V32.8558H57.0132C57.8032 32.8558 58.4432 32.2158 58.4432 31.4258V17.0758C58.4432 16.2858 57.8032 15.6458 57.0132 15.6458H33.8632C33.2132 15.6458 32.6832 16.1658 32.6832 16.8158Z" fill="white"/>
<path opacity="0.2" d="M84.4933 30.0056H60.8633V45.2356C60.8633 45.8856 61.3833 46.3956 62.0233 46.3956H64.5033V49.9956L68.1333 46.3956H83.3233C83.9733 46.3956 84.4833 45.8756 84.4833 45.2356V30.0056H84.4933Z" fill="#1F1D21"/>
<path d="M83.7033 28.4956H61.6533C61.2133 28.4956 60.8633 28.8456 60.8633 29.2856V44.1056C60.8633 44.5456 61.2133 44.8956 61.6533 44.8956H64.5033V48.4956L68.1333 44.8956H83.6933C84.1333 44.8956 84.4833 44.5456 84.4833 44.1056V29.2956C84.4933 28.8556 84.1333 28.4956 83.7033 28.4956Z" fill="white"/>
<path d="M76.3433 33.9055H69.0033C68.7133 33.9055 68.4733 34.1455 68.4733 34.4355C68.4733 34.7255 68.7133 34.9655 69.0033 34.9655H76.3433C76.6333 34.9655 76.8733 34.7255 76.8733 34.4355C76.8733 34.1455 76.6333 33.9055 76.3433 33.9055Z" fill="#5059C9"/>
<path d="M76.3433 36.2156H69.0033C68.7133 36.2156 68.4733 36.4556 68.4733 36.7456C68.4733 37.0356 68.7133 37.2756 69.0033 37.2756H76.3433C76.6333 37.2756 76.8733 37.0356 76.8733 36.7456C76.8733 36.4656 76.6333 36.2156 76.3433 36.2156Z" fill="#5059C9"/>
<path d="M76.3433 38.5356H69.0033C68.7133 38.5356 68.4733 38.7756 68.4733 39.0656C68.4733 39.3556 68.7133 39.5956 69.0033 39.5956H76.3433C76.6333 39.5956 76.8733 39.3556 76.8733 39.0656C76.8733 38.7756 76.6333 38.5356 76.3433 38.5356Z" fill="#5059C9"/>
<path d="M42.9732 59.8557H30.4632C29.2832 59.8557 28.3232 60.8157 28.3232 61.9957V73.3757C28.3232 77.7157 31.8432 81.2357 36.1832 81.2357H36.2332C40.5732 81.2357 44.0932 77.7157 44.0932 73.3757V60.9757C44.0932 60.3557 43.5932 59.8557 42.9732 59.8557Z" fill="#5059C9"/>
<path d="M35.3232 57.5456C31.8932 58.0756 28.9832 55.1656 29.5132 51.7456C29.8432 49.6156 31.5832 47.8756 33.7132 47.5456C37.1432 47.0156 40.0532 49.9256 39.5232 53.3456C39.1932 55.4756 37.4532 57.2156 35.3232 57.5456Z" fill="#5059C9"/>
<path d="M51.7233 57.4756C46.5633 58.4556 42.1233 54.0256 43.1033 48.8656C43.6533 45.9856 45.9733 43.6656 48.8533 43.1256C54.0133 42.1456 58.4533 46.5756 57.4733 51.7356C56.9233 54.6056 54.6033 56.9256 51.7233 57.4756Z" fill="#7B83EB"/>
<path d="M40.5232 59.8557H61.1732C62.3432 59.8857 63.2632 60.8557 63.2332 62.0157V74.9957C63.3932 81.9957 57.8532 87.8057 50.8432 87.9757C43.8332 87.8057 38.2932 81.9957 38.4532 74.9957V62.0257C38.4332 60.8557 39.3532 59.8857 40.5232 59.8557Z" fill="#7B83EB"/>
<path opacity="0.1" d="M49.7233 59.8557V78.0457C49.7333 78.8757 50.2333 79.6257 51.0033 79.9457C51.2533 80.0457 51.5133 80.1057 51.7833 80.1057H62.2433C62.3933 79.7357 62.5233 79.3657 62.6333 78.9757C63.0233 77.6857 63.2333 76.3457 63.2333 74.9957V62.0157C63.2633 60.8557 62.3333 59.8857 61.1733 59.8557H49.7233Z" fill="black"/>
<path opacity="0.2" d="M50.8433 59.8557V79.1757C50.8433 79.4457 50.8933 79.7057 51.0033 79.9557C51.3233 80.7257 52.0733 81.2357 52.9033 81.2357H61.7133C61.9033 80.8657 62.0833 80.4957 62.2433 80.1057C62.4033 79.7257 62.5233 79.3657 62.6333 78.9757C63.0233 77.6857 63.2333 76.3457 63.2333 74.9957V62.0157C63.2633 60.8557 62.3333 59.8857 61.1733 59.8557H50.8433Z" fill="black"/>
<path opacity="0.2" d="M50.8433 59.8557V76.9257C50.8533 78.0557 51.7733 78.9757 52.9033 78.9857H62.6333C63.0233 77.6957 63.2333 76.3557 63.2333 75.0057V62.0157C63.2633 60.8557 62.3333 59.8857 61.1733 59.8557H50.8433Z" fill="black"/>
<path opacity="0.2" d="M51.9733 59.8557V76.9257C51.9833 78.0557 52.9033 78.9757 54.0333 78.9857H62.6333C63.0233 77.6957 63.2333 76.3557 63.2333 75.0057V62.0157C63.2633 60.8557 62.3333 59.8857 61.1733 59.8557H51.9733Z" fill="black"/>
<path opacity="0.1" d="M49.7233 54.0456V57.5856C49.9133 57.5956 50.0933 57.6056 50.2833 57.6056C50.4733 57.6056 50.6533 57.5956 50.8433 57.5856C51.2233 57.5556 51.6033 57.4956 51.9733 57.4056C54.2533 56.8656 56.1333 55.2656 57.0433 53.1056C57.2033 52.7456 57.3233 52.3656 57.4033 51.9756H51.7833C50.6433 51.9856 49.7233 52.9056 49.7233 54.0456Z" fill="black"/>
<path opacity="0.2" d="M50.8433 55.1657V57.5857C51.2233 57.5557 51.6033 57.4957 51.9733 57.4057C54.2533 56.8657 56.1333 55.2657 57.0433 53.1057H52.9133C51.7733 53.1157 50.8533 54.0357 50.8433 55.1657Z" fill="black"/>
<path opacity="0.2" d="M50.8433 55.1657V57.5857C51.2233 57.5557 51.6033 57.4957 51.9733 57.4057C54.2533 56.8657 56.1333 55.2657 57.0433 53.1057H52.9133C51.7733 53.1157 50.8533 54.0357 50.8433 55.1657Z" fill="black"/>
<path opacity="0.2" d="M51.9733 55.1657V57.4057C54.2533 56.8657 56.1333 55.2657 57.0433 53.1057H54.0333C52.8933 53.1157 51.9733 54.0357 51.9733 55.1657Z" fill="black"/>
<path d="M74.6833 53.1057H54.0333C52.8933 53.1057 51.9733 54.0257 51.9733 55.1657V75.7957C51.9733 76.9357 52.8933 77.8557 54.0333 77.8557H74.6833C75.8233 77.8557 76.7433 76.9357 76.7433 75.7957V55.1657C76.7533 54.0257 75.8233 53.1057 74.6833 53.1057Z" fill="url(#paint3_linear)"/>
<path d="M58.9232 60.9556H63.0532V72.1856H65.6832V60.9556H69.7932V58.7756H58.9232V60.9556Z" fill="white"/>
<path d="M49.6933 20.8757H41.4433C41.1133 20.8757 40.8533 21.1457 40.8533 21.4657C40.8533 21.7957 41.1233 22.0557 41.4433 22.0557H49.6933C50.0233 22.0557 50.2833 21.7857 50.2833 21.4657C50.2833 21.1357 50.0133 20.8757 49.6933 20.8757Z" fill="#5059C9"/>
<path d="M49.6933 23.4658H41.4433C41.1133 23.4658 40.8533 23.7358 40.8533 24.0558C40.8533 24.3858 41.1233 24.6458 41.4433 24.6458H49.6933C50.0233 24.6458 50.2833 24.3758 50.2833 24.0558C50.2833 23.7358 50.0133 23.4658 49.6933 23.4658Z" fill="#5059C9"/>
<path d="M49.6933 26.0657H41.4433C41.1133 26.0657 40.8533 26.3357 40.8533 26.6557C40.8533 26.9857 41.1233 27.2457 41.4433 27.2457H49.6933C50.0233 27.2457 50.2833 26.9757 50.2833 26.6557C50.2833 26.3357 50.0133 26.0657 49.6933 26.0657Z" fill="#5059C9"/>
<defs>
<linearGradient id="paint0_linear" x1="47.4673" y1="3.78383" x2="55.9713" y2="113.201" gradientUnits="userSpaceOnUse">
<stop offset="0.1075" stop-color="#C9CEFF"/>
<stop offset="1" stop-color="#A9B1FF"/>
</linearGradient>
<linearGradient id="paint1_linear" x1="48.6696" y1="6.25722" x2="53.583" y2="95.0761" gradientUnits="userSpaceOnUse">
<stop stop-color="#5A62C3"/>
<stop offset="0.5" stop-color="#4D55BD"/>
<stop offset="1" stop-color="#3940AB"/>
</linearGradient>
<linearGradient id="paint2_linear" x1="72.6481" y1="52.1351" x2="57.2489" y2="78.8324" gradientUnits="userSpaceOnUse">
<stop stop-color="#5A62C3"/>
<stop offset="0.5" stop-color="#4D55BD"/>
<stop offset="1" stop-color="#3940AB"/>
</linearGradient>
<linearGradient id="paint3_linear" x1="72.4333" y1="51.4886" x2="56.2884" y2="79.4783" gradientUnits="userSpaceOnUse">
<stop stop-color="#5A62C3"/>
<stop offset="0.5" stop-color="#4D55BD"/>
<stop offset="1" stop-color="#3940AB"/>
</linearGradient>
</defs>
</svg>
