<svg width="100" height="100" viewBox="0 0 100 100" fill="none" xmlns="http://www.w3.org/2000/svg">
<g clip-path="url(#clip0_940_1313)">
<path d="M49.6401 96.45C40.382 96.45 31.3317 93.7047 23.6339 88.5611C15.936 83.4176 9.93624 76.1068 6.3933 67.5534C2.85036 59 1.92337 49.5881 3.72954 40.5078C5.53571 31.4276 9.99394 23.0868 16.5404 16.5403C23.0869 9.99384 31.4277 5.53562 40.5079 3.72945C49.5882 1.92327 59.0001 2.85027 67.5535 6.39321C76.1069 9.93614 83.4176 15.9359 88.5612 23.6338C93.7047 31.3316 96.4501 40.3819 96.4501 49.64C96.4505 55.7873 95.24 61.8745 92.8878 67.5539C90.5355 73.2334 87.0875 78.3938 82.7407 82.7406C78.3939 87.0874 73.2335 90.5354 67.554 92.8877C61.8746 95.2399 55.7874 96.4504 49.6401 96.45V96.45Z" fill="url(#paint0_linear_940_1313)"/>
<path fill-rule="evenodd" clip-rule="evenodd" d="M95.54 49.64C95.54 58.7182 92.848 67.5925 87.8045 75.1407C82.7609 82.6889 75.5923 88.572 67.2052 92.0461C58.818 95.5201 49.5891 96.4291 40.6854 94.658C31.7816 92.887 23.603 88.5154 17.1838 82.0962C10.7646 75.677 6.39302 67.4984 4.62196 58.5946C2.85089 49.6909 3.75987 40.462 7.23393 32.0748C10.708 23.6877 16.5911 16.5191 24.1393 11.4755C31.6875 6.43199 40.5618 3.74 49.64 3.74C55.6677 3.73998 61.6363 4.9272 67.2052 7.23388C72.774 9.54057 77.834 12.9215 82.0963 17.1837C86.3585 21.446 89.7394 26.5059 92.0461 32.0748C94.3528 37.6437 95.54 43.6123 95.54 49.64V49.64ZM49.64 3.62732e-07C59.4579 3.62732e-07 69.0553 2.91134 77.2185 8.36585C85.3818 13.8204 91.7442 21.5731 95.5014 30.6436C99.2585 39.7141 100.242 49.6951 98.3262 59.3243C96.4108 68.9535 91.6831 77.7985 84.7408 84.7408C77.7985 91.6831 68.9535 96.4108 59.3243 98.3262C49.6951 100.242 39.7141 99.2585 30.6436 95.5014C21.5731 91.7442 13.8204 85.3818 8.36585 77.2185C2.91134 69.0553 3.62732e-07 59.4579 3.62732e-07 49.64C-0.000787738 43.121 1.28265 36.6656 3.77702 30.6427C6.27138 24.6197 9.9278 19.1471 14.5375 14.5375C19.1471 9.9278 24.6197 6.27138 30.6427 3.77702C36.6656 1.28265 43.121 -0.000787738 49.64 3.62732e-07V3.62732e-07Z" fill="#F2F1F0"/>
<path fill-rule="evenodd" clip-rule="evenodd" d="M92.7296 49.6401C92.7296 58.1625 90.2024 66.4935 85.4676 73.5796C80.7328 80.6657 74.0031 86.1887 66.1294 89.4501C58.2557 92.7114 49.5918 93.5648 41.2331 91.9021C32.8745 90.2395 25.1966 86.1356 19.1703 80.1093C13.1441 74.0831 9.04017 66.4052 7.37753 58.0465C5.7149 49.6879 6.56822 41.0239 9.8296 33.1503C13.091 25.2766 18.6139 18.5469 25.7 13.8121C32.7862 9.07727 41.1172 6.55009 49.6396 6.55009C55.2983 6.54974 60.9017 7.66407 66.1298 9.82942C71.3579 11.9948 76.1082 15.1687 80.1096 19.1701C84.1109 23.1714 87.2849 27.9218 89.4502 33.1499C91.6156 38.3779 92.7299 43.9813 92.7296 49.6401V49.6401ZM49.6396 2.81009C58.9017 2.81009 67.9558 5.55662 75.6569 10.7024C83.3581 15.8481 89.3604 23.162 92.9049 31.719C96.4493 40.2761 97.3767 49.692 95.5697 58.7762C93.7628 67.8603 89.3027 76.2046 82.7534 82.7539C76.2041 89.3032 67.8598 93.7633 58.7757 95.5703C49.6915 97.3772 40.2756 96.4498 31.7185 92.9054C23.1614 89.3609 15.8476 83.3586 10.7018 75.6574C5.5561 67.9563 2.80957 58.9022 2.80957 49.6401C2.81076 37.2204 7.745 25.3097 16.5271 16.5276C25.3091 7.7455 37.2198 2.81125 49.6396 2.81006V2.81009Z" fill="#0078D4"/>
<path fill-rule="evenodd" clip-rule="evenodd" d="M92.7637 49.6401C92.7637 58.1625 90.2366 66.4935 85.5018 73.5796C80.767 80.6657 74.0372 86.1887 66.1636 89.4501C58.2899 92.7114 49.6259 93.5648 41.2673 91.9021C32.9087 90.2395 25.2308 86.1356 19.2045 80.1093C13.1783 74.0831 9.07435 66.4052 7.41171 58.0465C5.74908 49.6879 6.6024 41.0239 9.86378 33.1503C13.1252 25.2766 18.6481 18.5469 25.7342 13.8121C32.8203 9.07727 41.1514 6.55009 49.6738 6.55009C55.3325 6.54974 60.9359 7.66407 66.164 9.82942C71.3921 11.9948 76.1424 15.1687 80.1437 19.1701C84.1451 23.1714 87.3191 27.9218 89.4844 33.1499C91.6498 38.3779 92.7641 43.9813 92.7637 49.6401V49.6401ZM49.6738 2.81009C58.9359 2.81009 67.9899 5.55662 75.6911 10.7024C83.3923 15.8481 89.3946 23.162 92.939 31.719C96.4835 40.2761 97.4109 49.692 95.6039 58.7762C93.797 67.8603 89.3369 76.2046 82.7876 82.7539C76.2383 89.3032 67.894 93.7633 58.8098 95.5703C49.7257 97.3772 40.3097 96.4498 31.7527 92.9054C23.1956 89.3609 15.8818 83.3586 10.736 75.6574C5.59028 67.9563 2.84375 58.9022 2.84375 49.6401C2.84494 37.2204 7.77918 25.3097 16.5612 16.5276C25.3433 7.7455 37.254 2.81125 49.6738 2.81006V2.81009Z" fill="#0078D4"/>
<path opacity="0.2" d="M32.1573 73.7355H67.1903C67.3743 73.7349 67.5507 73.6616 67.6809 73.5314C67.811 73.4013 67.8844 73.2249 67.8849 73.0408V45.6894H31.4626V73.0408C31.4632 73.2249 31.5365 73.4013 31.6667 73.5314C31.7968 73.6616 31.9732 73.7349 32.1573 73.7355Z" fill="#003067"/>
<path d="M32.1573 72.3054H67.1903C67.3743 72.3049 67.5507 72.2315 67.6809 72.1014C67.811 71.9712 67.8844 71.7948 67.8849 71.6108V44.2593H31.4626V71.6108C31.4632 71.7948 31.5365 71.9712 31.6667 72.1014C31.7968 72.2315 31.9732 72.3049 32.1573 72.3054V72.3054Z" fill="#F2F2F2"/>
<path d="M31.4626 47.2867H67.8849V44.0219C67.8851 43.952 67.8715 43.8826 67.8448 43.8179C67.8181 43.7532 67.7789 43.6944 67.7294 43.645C67.6799 43.5955 67.6211 43.5562 67.5564 43.5295C67.4917 43.5028 67.4224 43.4892 67.3524 43.4894H31.9952C31.9252 43.4892 31.8559 43.5028 31.7912 43.5295C31.7265 43.5562 31.6677 43.5955 31.6182 43.645C31.5687 43.6944 31.5295 43.7532 31.5028 43.8179C31.4761 43.8826 31.4625 43.952 31.4626 44.0219V47.2867Z" fill="url(#paint1_linear_940_1313)"/>
<path d="M34.2646 46.3894C34.4472 46.3888 34.6256 46.3341 34.7771 46.2322C34.9286 46.1303 35.0465 45.9857 35.1158 45.8168C35.1852 45.6478 35.2029 45.4621 35.1667 45.2831C35.1305 45.1041 35.0421 44.9399 34.9125 44.8112C34.783 44.6825 34.6182 44.595 34.439 44.56C34.2598 44.5249 34.0742 44.5438 33.9057 44.6142C33.7372 44.6846 33.5934 44.8034 33.4924 44.9556C33.3914 45.1077 33.3378 45.2864 33.3384 45.469C33.3374 45.5906 33.3607 45.7112 33.407 45.8237C33.4533 45.9362 33.5216 46.0383 33.6078 46.1241C33.6941 46.2098 33.7967 46.2775 33.9094 46.323C34.0222 46.3686 34.143 46.3911 34.2646 46.3894V46.3894Z" fill="#50E6FF"/>
<path d="M64.7626 49.6368H34.5782C34.2419 49.6368 33.9692 49.9095 33.9692 50.2458V54.7812C33.9692 55.1175 34.2419 55.3901 34.5782 55.3901H64.7626C65.0989 55.3901 65.3715 55.1175 65.3715 54.7812V50.2458C65.3715 49.9095 65.0989 49.6368 64.7626 49.6368Z" fill="#0078D4"/>
<path d="M64.7626 56.7912H34.5782C34.2419 56.7912 33.9692 57.0639 33.9692 57.4002V61.9356C33.9692 62.2719 34.2419 62.5446 34.5782 62.5446H64.7626C65.0989 62.5446 65.3715 62.2719 65.3715 61.9356V57.4002C65.3715 57.0639 65.0989 56.7912 64.7626 56.7912Z" fill="#1F56A3"/>
<path d="M64.7626 63.9456H34.5782C34.2419 63.9456 33.9692 64.2183 33.9692 64.5546V69.09C33.9692 69.4263 34.2419 69.699 34.5782 69.699H64.7626C65.0989 69.699 65.3715 69.4263 65.3715 69.09V64.5546C65.3715 64.2183 65.0989 63.9456 64.7626 63.9456Z" fill="#003067"/>
<path d="M59.5555 19.252C55.0038 19.252 51.9673 18.3071 50.2695 16.3596C50.1929 16.2784 50.1006 16.2137 49.9981 16.1695C49.8957 16.1253 49.7853 16.1025 49.6737 16.1025C49.5621 16.1025 49.4517 16.1253 49.3493 16.1695C49.2469 16.2137 49.1545 16.2784 49.078 16.3596C47.3803 18.3071 44.3437 19.252 39.7921 19.252C39.6882 19.2519 39.5853 19.2724 39.4893 19.3121C39.3933 19.3519 39.306 19.4101 39.2326 19.4836C39.1591 19.5571 39.1008 19.6443 39.0611 19.7403C39.0213 19.8363 39.0009 19.9392 39.001 20.0432V26.3694C39.001 33.2081 42.0855 37.6796 49.3181 41.3152C49.4289 41.3695 49.5505 41.398 49.6738 41.3985C49.7975 41.3984 49.9194 41.3687 50.0293 41.312C57.262 37.6764 60.3466 33.208 60.3466 26.3693V20.0431C60.3461 19.8334 60.2626 19.6325 60.1144 19.4842C59.9661 19.3359 59.7651 19.2525 59.5555 19.252Z" fill="url(#paint2_linear_940_1313)"/>
<path d="M49.6554 16.8949C51.4955 19.0056 54.6825 20.0435 59.3737 20.0435C59.426 20.0435 59.4791 20.0434 59.5319 20.0431V26.3693C59.5319 32.856 56.5806 37.1071 49.684 40.5873C42.767 37.1103 39.8157 32.8583 39.8157 26.3693L39.7921 20.0666C44.5933 20.0666 47.8315 19.0291 49.6628 16.9185L49.6737 16.9172L49.6554 16.8949V16.8949ZM49.6738 16.1025C49.562 16.1007 49.451 16.1227 49.3483 16.167C49.2456 16.2113 49.1534 16.2769 49.078 16.3595C47.3802 18.307 44.3438 19.252 39.7921 19.252C39.6882 19.2519 39.5853 19.2723 39.4893 19.3121C39.3933 19.3518 39.3061 19.4101 39.2326 19.4836C39.1591 19.5571 39.1008 19.6443 39.0611 19.7403C39.0214 19.8363 39.0009 19.9392 39.001 20.0431V26.3693C39.001 33.208 42.0854 37.6796 49.3181 41.3152C49.4289 41.3695 49.5505 41.3979 49.6738 41.3985C49.7975 41.3984 49.9194 41.3687 50.0293 41.312C57.262 37.6764 60.3466 33.208 60.3466 26.3693V20.0431C60.3461 19.8334 60.2626 19.6325 60.1144 19.4842C59.9661 19.3359 59.7651 19.2524 59.5554 19.252C55.0038 19.252 51.9673 18.307 50.2695 16.3595C50.1941 16.277 50.102 16.2113 49.9993 16.167C49.8966 16.1227 49.7857 16.1007 49.6738 16.1025V16.1025Z" fill="url(#paint3_linear_940_1313)"/>
<path d="M49.646 32.2401C48.8225 32.2401 48.0174 31.9958 47.3326 31.5383C46.6478 31.0807 46.1141 30.4304 45.7989 29.6695C45.4837 28.9086 45.4013 28.0713 45.5619 27.2636C45.7226 26.4558 46.1192 25.7139 46.7016 25.1315C47.2839 24.5491 48.0259 24.1526 48.8337 23.9919C49.6414 23.8312 50.4787 23.9137 51.2396 24.2288C52.0005 24.544 52.6508 25.0777 53.1084 25.7625C53.5659 26.4473 53.8101 27.2524 53.8101 28.076C53.8089 29.18 53.3698 30.2384 52.5891 31.019C51.8085 31.7997 50.75 32.2388 49.646 32.2401V32.2401ZM49.646 25.1964C49.0765 25.1964 48.5198 25.3653 48.0462 25.6817C47.5727 25.9981 47.2036 26.4478 46.9857 26.974C46.7677 27.5002 46.7107 28.0791 46.8218 28.6377C46.9329 29.1963 47.2072 29.7094 47.6099 30.1121C48.0126 30.5148 48.5257 30.7891 49.0842 30.9002C49.6428 31.0113 50.2218 30.9543 50.748 30.7363C51.2741 30.5184 51.7239 30.1493 52.0403 29.6758C52.3567 29.2023 52.5256 28.6455 52.5256 28.076C52.5247 27.3126 52.221 26.5807 51.6812 26.0408C51.1414 25.501 50.4095 25.1973 49.646 25.1964V25.1964Z" fill="white"/>
<path d="M54.5165 33.5891C54.4322 33.5892 54.3486 33.5727 54.2707 33.5404C54.1928 33.5081 54.122 33.4606 54.0625 33.4009L51.6822 31.0206C51.5618 30.9002 51.4941 30.7368 51.4941 30.5665C51.4941 30.3962 51.5618 30.2329 51.6822 30.1125C51.8026 29.9921 51.966 29.9244 52.1363 29.9244C52.3066 29.9244 52.4699 29.9921 52.5903 30.1125L54.9706 32.4928C55.0604 32.5826 55.1215 32.697 55.1463 32.8216C55.171 32.9461 55.1583 33.0752 55.1097 33.1926C55.0611 33.3099 54.9788 33.4102 54.8733 33.4808C54.7677 33.5513 54.6435 33.589 54.5165 33.5891Z" fill="white"/>
<path opacity="0.6" d="M49.6462 30.9555C51.2365 30.9555 52.5257 29.6663 52.5257 28.076C52.5257 26.4856 51.2365 25.1964 49.6462 25.1964C48.0558 25.1964 46.7666 26.4856 46.7666 28.076C46.7666 29.6663 48.0558 30.9555 49.6462 30.9555Z" fill="white"/>
<path d="M64.7385 76.8053H60.6721C60.5395 76.8053 60.4123 76.7526 60.3186 76.6588C60.2248 76.5651 60.1721 76.4379 60.1721 76.3053C60.1721 76.1727 60.2248 76.0455 60.3186 75.9517C60.4123 75.8579 60.5395 75.8053 60.6721 75.8053H64.7385C64.8711 75.8053 64.9983 75.8579 65.0921 75.9517C65.1858 76.0455 65.2385 76.1727 65.2385 76.3053C65.2385 76.4379 65.1858 76.5651 65.0921 76.6588C64.9983 76.7526 64.8711 76.8053 64.7385 76.8053ZM56.6067 76.8053H52.5403C52.4077 76.8053 52.2805 76.7526 52.1867 76.6588C52.093 76.5651 52.0403 76.4379 52.0403 76.3053C52.0403 76.1727 52.093 76.0455 52.1867 75.9517C52.2805 75.8579 52.4077 75.8053 52.5403 75.8053H56.6067C56.7393 75.8053 56.8665 75.8579 56.9602 75.9517C57.054 76.0455 57.1067 76.1727 57.1067 76.3053C57.1067 76.4379 57.054 76.5651 56.9602 76.6588C56.8665 76.7526 56.7393 76.8053 56.6067 76.8053V76.8053ZM48.4739 76.8053H44.4084C44.2758 76.8053 44.1487 76.7526 44.0549 76.6588C43.9611 76.5651 43.9084 76.4379 43.9084 76.3053C43.9084 76.1727 43.9611 76.0455 44.0549 75.9517C44.1487 75.8579 44.2758 75.8053 44.4084 75.8053H48.4739C48.6065 75.8053 48.7337 75.8579 48.8274 75.9517C48.9212 76.0455 48.9739 76.1727 48.9739 76.3053C48.9739 76.4379 48.9212 76.5651 48.8274 76.6588C48.7337 76.7526 48.6065 76.8053 48.4739 76.8053H48.4739ZM40.342 76.8053H36.2766C36.144 76.8053 36.0168 76.7526 35.9231 76.6588C35.8293 76.5651 35.7766 76.4379 35.7766 76.3053C35.7766 76.1727 35.8293 76.0455 35.9231 75.9517C36.0168 75.8579 36.144 75.8053 36.2766 75.8053H40.342C40.4746 75.8053 40.6018 75.8579 40.6956 75.9517C40.7894 76.0455 40.842 76.1727 40.842 76.3053C40.842 76.4379 40.7894 76.5651 40.6956 76.6588C40.6018 76.7526 40.4746 76.8053 40.342 76.8053ZM32.2102 76.8053H32.1575C31.4048 76.8051 30.6612 76.6414 29.9781 76.3254C29.295 76.0094 28.6888 75.5487 28.2014 74.9752C28.1154 74.8742 28.0731 74.7432 28.0837 74.6109C28.0943 74.4787 28.157 74.3561 28.258 74.2701C28.3591 74.1841 28.4901 74.1418 28.6223 74.1524C28.7545 74.163 28.8771 74.2258 28.9631 74.3268C29.3566 74.79 29.8461 75.1621 30.3976 75.4174C30.9492 75.6727 31.5497 75.8051 32.1575 75.8053C32.2929 75.8042 32.4234 75.8558 32.5216 75.949C32.6197 76.0423 32.6779 76.17 32.6838 76.3053C32.6868 76.3695 32.6768 76.4337 32.6544 76.494C32.632 76.5542 32.5976 76.6094 32.5534 76.656C32.5092 76.7027 32.456 76.74 32.397 76.7657C32.338 76.7913 32.2745 76.8048 32.2102 76.8053V76.8053ZM68.7717 76.5309C68.654 76.5308 68.54 76.4893 68.4499 76.4135C68.3598 76.3377 68.2993 76.2325 68.2792 76.1165C68.259 76.0005 68.2804 75.8811 68.3396 75.7794C68.3988 75.6776 68.492 75.6 68.6028 75.5602C69.1752 75.3554 69.6964 75.0286 70.1301 74.6025C70.5637 74.1764 70.8996 73.6611 71.1145 73.0924C71.1377 73.031 71.1729 72.9747 71.2178 72.9268C71.2628 72.879 71.3168 72.8405 71.3767 72.8135C71.4365 72.7865 71.5011 72.7715 71.5668 72.7695C71.6324 72.7674 71.6978 72.7784 71.7593 72.8016C71.8207 72.8249 71.877 72.86 71.9248 72.9049C71.9727 72.9499 72.0112 73.0039 72.0382 73.0638C72.0652 73.1237 72.0801 73.1883 72.0822 73.2539C72.0842 73.3196 72.0733 73.385 72.05 73.4464C71.784 74.1505 71.3682 74.7884 70.8313 75.3159C70.2944 75.8434 69.6493 76.248 68.9407 76.5016C68.8865 76.521 68.8293 76.5309 68.7717 76.5309V76.5309ZM27.4622 71.3546C27.3965 71.3546 27.3315 71.3417 27.2708 71.3166C27.2101 71.2915 27.155 71.2547 27.1085 71.2082C27.0621 71.1618 27.0253 71.1067 27.0001 71.046C26.975 70.9853 26.9621 70.9203 26.9622 70.8546V66.7887C26.9622 66.6561 27.0148 66.5289 27.1086 66.4351C27.2024 66.3414 27.3296 66.2887 27.4622 66.2887C27.5948 66.2887 27.7219 66.3414 27.8157 66.4351C27.9095 66.5289 27.9622 66.6561 27.9622 66.7887V70.8546C27.9622 70.9203 27.9493 70.9853 27.9242 71.046C27.8991 71.1067 27.8622 71.1618 27.8158 71.2082C27.7694 71.2547 27.7142 71.2915 27.6535 71.3166C27.5929 71.3417 27.5278 71.3546 27.4622 71.3546V71.3546ZM71.885 69.7399C71.8193 69.7399 71.7543 69.727 71.6936 69.7019C71.6329 69.6768 71.5778 69.6399 71.5314 69.5935C71.4849 69.547 71.4481 69.4919 71.423 69.4312C71.3979 69.3706 71.385 69.3055 71.385 69.2399V65.1739C71.385 65.0413 71.4377 64.9141 71.5315 64.8204C71.6252 64.7266 71.7524 64.6739 71.885 64.6739C72.0176 64.6739 72.1448 64.7266 72.2386 64.8204C72.3323 64.9141 72.385 65.0413 72.385 65.1739V69.2399C72.385 69.3055 72.3721 69.3706 72.347 69.4312C72.3219 69.4919 72.2851 69.547 72.2386 69.5935C72.1922 69.6399 72.1371 69.6768 72.0764 69.7019C72.0157 69.727 71.9507 69.7399 71.885 69.7399V69.7399ZM27.4622 63.2228C27.3965 63.2228 27.3315 63.2099 27.2708 63.1848C27.2101 63.1597 27.155 63.1228 27.1085 63.0764C27.0621 63.03 27.0253 62.9748 27.0001 62.9141C26.975 62.8535 26.9621 62.7884 26.9622 62.7228V58.6568C26.9622 58.5242 27.0148 58.3971 27.1086 58.3033C27.2024 58.2095 27.3296 58.1568 27.4622 58.1568C27.5948 58.1568 27.7219 58.2095 27.8157 58.3033C27.9095 58.3971 27.9622 58.5242 27.9622 58.6568V62.7228C27.9622 62.7884 27.9493 62.8535 27.9242 62.9141C27.8991 62.9748 27.8622 63.03 27.8158 63.0764C27.7694 63.1228 27.7142 63.1597 27.6535 63.1848C27.5929 63.2099 27.5278 63.2228 27.4622 63.2228ZM71.885 61.608C71.8193 61.608 71.7543 61.5951 71.6936 61.57C71.6329 61.5449 71.5778 61.5081 71.5314 61.4616C71.4849 61.4152 71.4481 61.3601 71.423 61.2994C71.3979 61.2387 71.385 61.1737 71.385 61.108V57.0421C71.385 56.9095 71.4377 56.7823 71.5315 56.6885C71.6252 56.5948 71.7524 56.5421 71.885 56.5421C72.0176 56.5421 72.1448 56.5948 72.2386 56.6885C72.3323 56.7823 72.385 56.9095 72.385 57.0421V61.108C72.385 61.1737 72.3721 61.2387 72.347 61.2994C72.3219 61.3601 72.2851 61.4152 72.2386 61.4616C72.1922 61.5081 72.1371 61.5449 72.0764 61.57C72.0157 61.5951 71.9507 61.608 71.885 61.608V61.608ZM27.4622 55.0909C27.3965 55.091 27.3315 55.0781 27.2708 55.0529C27.2101 55.0278 27.155 54.991 27.1085 54.9446C27.0621 54.8981 27.0253 54.843 27.0001 54.7823C26.975 54.7216 26.9621 54.6566 26.9622 54.5909V50.5245C26.9622 50.3919 27.0148 50.2647 27.1086 50.171C27.2024 50.0772 27.3296 50.0245 27.4622 50.0245C27.5948 50.0245 27.7219 50.0772 27.8157 50.171C27.9095 50.2647 27.9622 50.3919 27.9622 50.5245V54.5909C27.9622 54.6566 27.9493 54.7216 27.9242 54.7823C27.8991 54.843 27.8622 54.8981 27.8158 54.9446C27.7694 54.991 27.7142 55.0278 27.6535 55.0529C27.5929 55.0781 27.5278 55.091 27.4622 55.0909ZM71.885 53.4762C71.8193 53.4762 71.7543 53.4633 71.6936 53.4382C71.6329 53.4131 71.5778 53.3762 71.5314 53.3298C71.4849 53.2834 71.4481 53.2282 71.423 53.1676C71.3979 53.1069 71.385 53.0418 71.385 52.9762V48.9098C71.385 48.7772 71.4377 48.65 71.5315 48.5562C71.6252 48.4625 71.7524 48.4098 71.885 48.4098C72.0176 48.4098 72.1448 48.4625 72.2386 48.5562C72.3323 48.65 72.385 48.7772 72.385 48.9098V52.9762C72.385 53.0418 72.3721 53.1069 72.347 53.1676C72.3219 53.2282 72.2851 53.2834 72.2386 53.3298C72.1922 53.3762 72.1371 53.4131 72.0764 53.4382C72.0157 53.4633 71.9507 53.4762 71.885 53.4762V53.4762ZM27.4622 46.9586C27.3965 46.9586 27.3315 46.9457 27.2708 46.9206C27.2101 46.8955 27.155 46.8587 27.1085 46.8122C27.0621 46.7658 27.0253 46.7107 27.0001 46.65C26.975 46.5893 26.9621 46.5243 26.9622 46.4586V44.0221C26.9617 43.4174 27.0706 42.8176 27.2834 42.2516C27.3301 42.1275 27.4241 42.027 27.5447 41.9723C27.6654 41.9175 27.8029 41.913 27.927 41.9596C28.0511 42.0062 28.1515 42.1002 28.2063 42.2209C28.261 42.3416 28.2656 42.4791 28.219 42.6031C28.0489 43.0569 27.9619 43.5375 27.9622 44.0221V46.4586C27.9622 46.5243 27.9493 46.5893 27.9242 46.65C27.8991 46.7107 27.8622 46.7658 27.8158 46.8122C27.7694 46.8587 27.7142 46.8955 27.6535 46.9206C27.5929 46.9457 27.5278 46.9586 27.4622 46.9586ZM71.885 45.3439C71.8193 45.3439 71.7543 45.331 71.6936 45.3059C71.6329 45.2808 71.5778 45.2439 71.5314 45.1975C71.4849 45.1511 71.4481 45.0959 71.423 45.0352C71.3979 44.9746 71.385 44.9095 71.385 44.8439V44.0221C71.3849 43.05 71.0331 42.1107 70.3948 41.3775C70.3517 41.328 70.3188 41.2705 70.2979 41.2083C70.277 41.1461 70.2686 41.0804 70.2732 41.0149C70.2823 40.8827 70.3436 40.7595 70.4436 40.6725C70.5436 40.5854 70.674 40.5417 70.8063 40.5509C70.9385 40.56 71.0617 40.6213 71.1487 40.7213C71.9455 41.6363 72.3847 42.8087 72.385 44.0221V44.8439C72.385 44.9095 72.3721 44.9746 72.347 45.0352C72.3219 45.0959 72.2851 45.1511 72.2386 45.1975C72.1922 45.2439 72.1371 45.2808 72.0764 45.3059C72.0157 45.331 71.9507 45.3439 71.885 45.3439V45.3439ZM30.593 40.211C30.474 40.2111 30.3589 40.1687 30.2683 40.0915C30.1777 40.0143 30.1177 39.9073 30.099 39.7898C30.0803 39.6722 30.1041 39.5519 30.1662 39.4503C30.2283 39.3488 30.3246 39.2728 30.4377 39.2359C30.9407 39.072 31.4664 38.9888 31.9954 38.9893H34.636C34.7686 38.9893 34.8958 39.042 34.9895 39.1358C35.0833 39.2295 35.136 39.3567 35.136 39.4893C35.136 39.6219 35.0833 39.7491 34.9895 39.8429C34.8958 39.9366 34.7686 39.9893 34.636 39.9893H31.9954C31.5719 39.9889 31.151 40.0553 30.7483 40.1861C30.6982 40.2027 30.6458 40.2111 30.593 40.211V40.211ZM67.1633 39.9893H63.0979C62.9653 39.9893 62.8381 39.9366 62.7443 39.8429C62.6506 39.7491 62.5979 39.6219 62.5979 39.4893C62.5979 39.3567 62.6506 39.2295 62.7443 39.1358C62.8381 39.042 62.9653 38.9893 63.0979 38.9893H67.1633C67.2959 38.9893 67.4231 39.042 67.5169 39.1358C67.6106 39.2295 67.6633 39.3567 67.6633 39.4893C67.6633 39.6219 67.6106 39.7491 67.5169 39.8429C67.4231 39.9366 67.2959 39.9893 67.1633 39.9893H67.1633ZM59.0315 39.9893H56.4033C56.2707 39.9893 56.1435 39.9366 56.0498 39.8429C55.956 39.7491 55.9033 39.6219 55.9033 39.4893C55.9033 39.3567 55.956 39.2295 56.0498 39.1358C56.1435 39.042 56.2707 38.9893 56.4033 38.9893H59.0315C59.1641 38.9893 59.2913 39.042 59.385 39.1358C59.4788 39.2295 59.5315 39.3567 59.5315 39.4893C59.5315 39.6219 59.4788 39.7491 59.385 39.8429C59.2913 39.9366 59.1641 39.9893 59.0315 39.9893ZM42.7678 39.9893H38.7014C38.5688 39.9893 38.4416 39.9366 38.3479 39.8429C38.2541 39.7491 38.2014 39.6219 38.2014 39.4893C38.2014 39.3567 38.2541 39.2295 38.3479 39.1358C38.4416 39.042 38.5688 38.9893 38.7014 38.9893H42.7678C42.9004 38.9893 43.0276 39.042 43.1214 39.1358C43.2151 39.2295 43.2678 39.3567 43.2678 39.4893C43.2678 39.6219 43.2151 39.7491 43.1214 39.8429C43.0276 39.9366 42.9004 39.9893 42.7678 39.9893Z" fill="url(#paint4_linear_940_1313)"/>
</g>
<defs>
<linearGradient id="paint0_linear_940_1313" x1="47.8697" y1="-15.1531" x2="51.8525" y2="130.615" gradientUnits="userSpaceOnUse">
<stop stop-color="#00ABDE"/>
<stop offset="1" stop-color="#007ED8"/>
</linearGradient>
<linearGradient id="paint1_linear_940_1313" x1="31.4626" y1="45.3881" x2="67.9502" y2="45.3881" gradientUnits="userSpaceOnUse">
<stop stop-color="#005BA1"/>
<stop offset="0.26" stop-color="#00589D"/>
<stop offset="0.53" stop-color="#004F90"/>
<stop offset="0.8" stop-color="#003F7C"/>
<stop offset="1" stop-color="#003067"/>
</linearGradient>
<linearGradient id="paint2_linear_940_1313" x1="49.6738" y1="41.3984" x2="49.6738" y2="16.1025" gradientUnits="userSpaceOnUse">
<stop stop-color="#008BF1"/>
<stop offset="0.99498" stop-color="#0078D4"/>
</linearGradient>
<linearGradient id="paint3_linear_940_1313" x1="49.6738" y1="16.1025" x2="49.6738" y2="41.3985" gradientUnits="userSpaceOnUse">
<stop stop-color="#008BF1"/>
<stop offset="0.22" stop-color="#0086EC"/>
<stop offset="0.49" stop-color="#0078DD"/>
<stop offset="0.79" stop-color="#0061C4"/>
<stop offset="1" stop-color="#004DAE"/>
</linearGradient>
<linearGradient id="paint4_linear_940_1313" x1="62.6472" y1="80.2318" x2="36.8376" y2="35.5283" gradientUnits="userSpaceOnUse">
<stop stop-color="#003067"/>
<stop offset="1" stop-color="#005BA1"/>
</linearGradient>
<clipPath id="clip0_940_1313">
<rect width="99.2799" height="99.28" fill="white"/>
</clipPath>
</defs>
</svg>
