<svg width="100" height="100" viewBox="0 0 100 100" fill="none" xmlns="http://www.w3.org/2000/svg">
<g clip-path="url(#clip0_1028_771)">
<path d="M49.6401 96.4499C40.382 96.4499 31.3317 93.7045 23.6339 88.561C15.936 83.4174 9.93624 76.1067 6.3933 67.5533C2.85036 58.9999 1.92337 49.588 3.72954 40.5077C5.53571 31.4275 9.99394 23.0867 16.5404 16.5402C23.0869 9.99372 31.4277 5.5355 40.5079 3.72933C49.5882 1.92315 59.0001 2.85015 67.5535 6.39308C76.1069 9.93602 83.4176 15.9358 88.5612 23.6336C93.7047 31.3315 96.4501 40.3817 96.4501 49.6399C96.4505 55.7872 95.24 61.8744 92.8878 67.5538C90.5355 73.2332 87.0875 78.3937 82.7407 82.7405C78.3939 87.0873 73.2335 90.5353 67.554 92.8876C61.8746 95.2398 55.7874 96.4503 49.6401 96.4499V96.4499Z" fill="url(#paint0_linear_1028_771)"/>
<path fill-rule="evenodd" clip-rule="evenodd" d="M95.54 49.6399C95.54 58.718 92.848 67.5923 87.8045 75.1406C82.7609 82.6888 75.5923 88.5719 67.2052 92.046C58.818 95.52 49.5891 96.429 40.6854 94.6579C31.7816 92.8869 23.603 88.5153 17.1838 82.0961C10.7646 75.6769 6.39302 67.4983 4.62196 58.5945C2.85089 49.6908 3.75987 40.4618 7.23393 32.0747C10.708 23.6876 16.5911 16.519 24.1393 11.4754C31.6875 6.43187 40.5618 3.73988 49.64 3.73988C55.6677 3.73986 61.6363 4.92708 67.2052 7.23377C72.774 9.54045 77.834 12.9214 82.0963 17.1836C86.3585 21.4458 89.7394 26.5058 92.0461 32.0747C94.3528 37.6435 95.54 43.6122 95.54 49.6399V49.6399ZM49.64 -0.000106449C59.4579 -0.000106449 69.0552 2.91123 77.2185 8.36574C85.3818 13.8203 91.7442 21.573 95.5014 30.6435C99.2585 39.714 100.242 49.695 98.3262 59.3242C96.4108 68.9534 91.6831 77.7984 84.7408 84.7407C77.7985 91.683 68.9535 96.4107 59.3243 98.3261C49.6951 100.241 39.7141 99.2584 30.6436 95.5013C21.5731 91.7441 13.8204 85.3816 8.36584 77.2184C2.91133 69.0551 -1.61629e-06 59.4577 3.61524e-07 49.6399C-0.000786426 43.1208 1.28265 36.6655 3.77702 30.6425C6.27138 24.6196 9.92781 19.147 14.5375 14.5374C19.1471 9.9277 24.6197 6.27127 30.6427 3.77691C36.6656 1.28254 43.121 -0.000894549 49.64 -0.000106449V-0.000106449Z" fill="#F2F1F0"/>
<path fill-rule="evenodd" clip-rule="evenodd" d="M92.7296 49.64C92.7296 58.1624 90.2024 66.4934 85.4676 73.5795C80.7328 80.6656 74.0031 86.1886 66.1294 89.45C58.2557 92.7113 49.5918 93.5647 41.2331 91.902C32.8745 90.2394 25.1966 86.1355 19.1703 80.1092C13.1441 74.083 9.04017 66.4051 7.37753 58.0464C5.7149 49.6878 6.56822 41.0238 9.8296 33.1502C13.091 25.2765 18.6139 18.5468 25.7 13.812C32.7862 9.07718 41.1172 6.55 49.6396 6.55C55.2983 6.54965 60.9017 7.66397 66.1298 9.82933C71.3579 11.9947 76.1082 15.1687 80.1096 19.17C84.1109 23.1713 87.2849 27.9217 89.4502 33.1498C91.6156 38.3778 92.7299 43.9812 92.7296 49.64ZM49.6396 2.81C58.9017 2.81 67.9558 5.55653 75.6569 10.7023C83.3581 15.848 89.3604 23.1619 92.9049 31.7189C96.4493 40.276 97.3767 49.6919 95.5697 58.7761C93.7628 67.8602 89.3027 76.2045 82.7534 82.7538C76.2041 89.3031 67.8598 93.7632 58.7757 95.5702C49.6915 97.3771 40.2756 96.4497 31.7185 92.9053C23.1614 89.3608 15.8476 83.3585 10.7018 75.6574C5.5561 67.9562 2.80957 58.9021 2.80957 49.64C2.81076 37.2203 7.74501 25.3096 16.5271 16.5275C25.3091 7.74544 37.2198 2.81119 49.6396 2.81V2.81Z" fill="#0078D4"/>
<path fill-rule="evenodd" clip-rule="evenodd" d="M92.7301 49.7835C92.7301 58.3059 90.2029 66.6369 85.4681 73.723C80.7333 80.8091 74.0036 86.3321 66.1299 89.5935C58.2562 92.8549 49.5923 93.7082 41.2336 92.0455C32.875 90.3829 25.1971 86.279 19.1708 80.2527C13.1446 74.2265 9.04066 66.5486 7.37802 58.1899C5.71538 49.8313 6.56871 41.1673 9.83009 33.2937C13.0915 25.42 18.6144 18.6903 25.7005 13.9555C32.7867 9.22069 41.1177 6.69351 49.6401 6.69351C55.2988 6.69316 60.9022 7.80748 66.1303 9.97284C71.3584 12.1382 76.1087 15.3122 80.1101 19.3135C84.1114 23.3149 87.2854 28.0652 89.4507 33.2933C91.6161 38.5213 92.7304 44.1248 92.7301 49.7835V49.7835ZM49.6401 2.95351C58.9022 2.95351 67.9563 5.70004 75.6574 10.8458C83.3586 15.9915 89.3609 23.3054 92.9053 31.8624C96.4498 40.4195 97.3772 49.8355 95.5702 58.9196C93.7633 68.0037 89.3032 76.348 82.7539 82.8973C76.2046 89.4466 67.8603 93.9067 58.7761 95.7137C49.692 97.5206 40.2761 96.5932 31.719 93.0488C23.1619 89.5043 15.8481 83.502 10.7023 75.8009C5.55659 68.0997 2.81006 59.0456 2.81006 49.7835C2.81124 37.3638 7.74548 25.4531 16.5276 16.671C25.3096 7.88892 37.2203 2.95467 49.64 2.95348L49.6401 2.95351Z" fill="#0078D4"/>
<path d="M27.8272 27.0977C26.7764 27.1008 25.7694 27.5196 25.0263 28.2627C24.2832 29.0058 23.8644 30.0127 23.8613 31.0636V58.8248H75.4177V31.0636C75.4147 30.0127 74.9958 29.0058 74.2528 28.2627C73.5097 27.5196 72.5027 27.1008 71.4519 27.0977H27.8272ZM71.4519 29.0807C71.9776 29.0814 72.4815 29.2905 72.8532 29.6622C73.225 30.034 73.4341 30.5379 73.4348 31.0636V56.8418H25.8443V31.0636C25.8448 30.5379 26.0539 30.0338 26.4257 29.662C26.7974 29.2903 27.3015 29.0812 27.8273 29.0807H71.4519Z" fill="url(#paint1_linear_1028_771)"/>
<path d="M25.8442 31.0636C25.8448 30.5379 26.0539 30.0338 26.4256 29.662C26.7974 29.2903 27.3015 29.0812 27.8272 29.0807H71.4519C71.9775 29.0814 72.4815 29.2905 72.8532 29.6622C73.225 30.034 73.4341 30.5379 73.4348 31.0636V56.8418H25.8442V31.0636Z" fill="url(#paint2_linear_1028_771)"/>
<path d="M17.9126 58.8248V59.8163C17.9157 60.8671 18.3345 61.8741 19.0776 62.6172C19.8207 63.3602 20.8276 63.7791 21.8785 63.7821H77.4008C78.4517 63.7791 79.4586 63.3602 80.2017 62.6172C80.9448 61.8741 81.3636 60.8671 81.3667 59.8163V58.8248H17.9126Z" fill="url(#paint3_linear_1028_771)"/>
<path fill-rule="evenodd" clip-rule="evenodd" d="M45.6736 60.8077H53.6054C54.1312 60.8075 54.6355 60.5986 55.0073 60.2267C55.3791 59.8549 55.5881 59.3506 55.5883 58.8248H43.6907C43.6907 59.3507 43.8996 59.8551 44.2715 60.2269C44.6434 60.5988 45.1477 60.8077 45.6736 60.8077V60.8077Z" fill="#003067"/>
<path opacity="0.2" d="M42.9272 42.8976C43.4368 43.5462 44.022 44.1315 44.6704 44.6412C45.3764 45.1962 46.1752 45.6214 47.0298 45.8971C47.8733 46.1682 48.7541 46.3053 49.6401 46.3033C50.7732 46.3131 51.8952 46.0807 52.9311 45.6217C53.8805 45.1972 54.7484 44.6101 55.4956 43.8868C56.2738 43.1321 56.8882 42.225 57.3003 41.2223C57.724 40.1916 57.9382 39.0867 57.9302 37.9723C57.9155 36.8689 57.6898 35.7785 57.2652 34.7599C56.4212 32.7807 54.8449 31.2042 52.8657 30.36C51.8447 29.9317 50.7474 29.7149 49.6401 29.7228L49.5288 29.7257C48.7055 29.7723 47.89 29.9102 47.0972 30.1368C46.2055 30.3888 45.3717 30.813 44.6431 31.3854C43.9734 31.9106 43.3807 32.5271 42.8823 33.2169C42.6524 33.5341 42.4464 33.8681 42.2661 34.2159H23.8613V41.8102H42.2329C42.4285 42.1943 42.661 42.5585 42.9272 42.8976Z" fill="#003067"/>
<path opacity="0.2" d="M64.7338 31.6139C64.0301 29.9597 63.057 28.4336 61.854 27.0977H37.397L36.647 27.8478L42.0425 33.2448L43.4565 31.8053C44.256 30.9811 45.2163 30.3299 46.2778 29.8922C47.3486 29.448 48.4975 29.2229 49.6567 29.2303C50.8159 29.2377 51.9619 29.4774 53.0268 29.9352C54.0762 30.3887 55.0333 31.0314 55.8501 31.8312C56.6575 32.6267 57.3005 33.5732 57.7427 34.6169C58.1955 35.683 58.4271 36.8301 58.4233 37.9885C58.4188 39.1613 58.179 40.3214 57.7182 41.4C57.2649 42.4491 56.6223 43.4058 55.8227 44.2223C55.0265 45.0301 54.0791 45.6735 53.0346 46.1158C51.9613 46.5718 50.8062 46.8034 49.6401 46.7965C48.4866 46.7999 47.3438 46.5749 46.2778 46.1344C45.2162 45.6967 44.2559 45.0455 43.4565 44.2213L42.0424 42.7818L36.6567 48.1685L38.0512 49.5826C39.0166 50.5568 40.1022 51.4039 41.2817 52.1037C40.7311 52.5413 40.286 53.0971 39.9792 53.7299C39.6724 54.3627 39.5118 55.0565 39.5092 55.7597V56.4414C39.3378 56.7626 39.2482 57.1212 39.2485 57.4853V61.2446C39.2484 61.4275 39.271 61.6097 39.3159 61.7871C39.271 61.9646 39.2484 62.147 39.2485 62.3301V63.7821H59.768V62.3052C59.9453 61.9798 60.038 61.6152 60.0375 61.2446V57.4853C60.038 57.1158 59.9453 56.752 59.768 56.4277V55.7597C59.7654 55.0561 59.6047 54.3621 59.2976 53.729C58.9905 53.0959 58.545 52.54 57.994 52.1024C59.1865 51.4077 60.2835 50.5607 61.2573 49.5826C62.7292 48.0845 63.9074 46.3238 64.7309 44.3917C65.5911 42.3758 66.0288 40.205 66.017 38.0133C66.0268 35.8153 65.5903 33.6382 64.7338 31.6139V31.6139Z" fill="#003067"/>
<path d="M57.7676 78.3814V55.7599C57.7676 54.2579 56.55 53.0404 55.0481 53.0404H44.2291C42.7272 53.0404 41.5096 54.2579 41.5096 55.7599V78.3814C41.5096 79.8833 42.7272 81.1009 44.2291 81.1009H55.0481C56.55 81.1009 57.7676 79.8833 57.7676 78.3814Z" fill="#1F56A3"/>
<path d="M55.1016 54.4215H44.1763C43.4068 54.4215 42.783 55.0453 42.783 55.8148V78.326C42.783 79.0955 43.4068 79.7193 44.1763 79.7193H55.1016C55.8711 79.7193 56.4949 79.0955 56.4949 78.326V55.8148C56.4949 55.0453 55.8711 54.4215 55.1016 54.4215Z" fill="#0078D4"/>
<path d="M42.1202 57.262H41.472C41.3487 57.262 41.2488 57.3619 41.2488 57.4852V61.2445C41.2488 61.3678 41.3487 61.4678 41.472 61.4678H42.1202C42.2435 61.4678 42.3434 61.3678 42.3434 61.2445V57.4852C42.3434 57.3619 42.2435 57.262 42.1202 57.262Z" fill="#1F56A3"/>
<path d="M57.8148 57.262H57.1666C57.0433 57.262 56.9434 57.3619 56.9434 57.4852V61.2445C56.9434 61.3678 57.0433 61.4678 57.1666 61.4678H57.8148C57.9381 61.4678 58.038 61.3678 58.038 61.2445V57.4852C58.038 57.3619 57.9381 57.262 57.8148 57.262Z" fill="#1F56A3"/>
<path d="M42.1202 62.1071H41.472C41.3487 62.1071 41.2488 62.207 41.2488 62.3303V66.0896C41.2488 66.2129 41.3487 66.3128 41.472 66.3128H42.1202C42.2435 66.3128 42.3434 66.2129 42.3434 66.0896V62.3303C42.3434 62.207 42.2435 62.1071 42.1202 62.1071Z" fill="#1F56A3"/>
<path d="M50.863 67.0706C50.863 67.3128 50.7912 67.5495 50.6566 67.7509C50.5221 67.9523 50.3308 68.1092 50.1071 68.2019C49.8833 68.2946 49.6371 68.3188 49.3996 68.2716C49.1621 68.2243 48.9439 68.1077 48.7727 67.9364C48.6014 67.7652 48.4848 67.547 48.4376 67.3095C48.3903 67.072 48.4146 66.8258 48.5072 66.602C48.5999 66.3783 48.7569 66.187 48.9582 66.0525C49.1596 65.9179 49.3963 65.8461 49.6385 65.8461C49.9631 65.8465 50.2744 65.9756 50.5039 66.2052C50.7335 66.4347 50.8626 66.746 50.863 67.0706ZM53.126 66.4111L52.5566 66.2845C52.4977 66.263 52.4496 66.2192 52.4228 66.1625L52.416 66.1441L52.2589 65.7623L52.2499 65.7427C52.2393 65.7137 52.2346 65.683 52.2359 65.6521C52.2373 65.6213 52.2447 65.5911 52.2577 65.5631L52.5709 65.0709C52.635 64.9643 52.6623 64.8396 52.6488 64.716C52.6352 64.5924 52.5815 64.4767 52.4959 64.3865L52.3226 64.2132C52.2316 64.1291 52.116 64.0763 51.9928 64.0628C51.8696 64.0493 51.7453 64.0757 51.6382 64.1382L51.1459 64.4513C51.1145 64.467 51.0797 64.4746 51.0446 64.4733C51.0178 64.4743 50.9911 64.4695 50.9664 64.4592L50.9467 64.4502L50.565 64.293L50.5466 64.2864C50.4899 64.2595 50.4461 64.2114 50.4246 64.1524L50.2981 63.5831C50.2681 63.4624 50.1992 63.3549 50.1022 63.2771C50.0052 63.1993 49.8853 63.1554 49.7609 63.1522H49.516C49.3917 63.1554 49.2719 63.1992 49.1748 63.277C49.0778 63.3548 49.009 63.4623 48.979 63.583L48.8524 64.1526C48.8308 64.2115 48.787 64.2595 48.7304 64.2863L48.712 64.293L48.3303 64.4502L48.3106 64.4593C48.2858 64.4696 48.2591 64.4744 48.2324 64.4734C48.1973 64.4745 48.1624 64.467 48.131 64.4513L47.6388 64.1383C47.5318 64.0759 47.4075 64.0495 47.2843 64.063C47.1611 64.0765 47.0455 64.1292 46.9545 64.2134L46.7812 64.3865C46.6955 64.4767 46.6418 64.5925 46.6283 64.7161C46.6147 64.8397 46.6421 64.9644 46.7062 65.071L47.0194 65.5631C47.0456 65.6196 47.0484 65.6841 47.0272 65.7426L47.018 65.7623L46.8609 66.1441L46.8542 66.1625C46.8274 66.2192 46.7793 66.2631 46.7204 66.2846L46.1511 66.4109C46.0304 66.441 45.9229 66.5098 45.8451 66.6069C45.7672 66.7039 45.7234 66.8238 45.7202 66.9481V67.193C45.7234 67.3173 45.7672 67.4372 45.845 67.5342C45.9228 67.6312 46.0303 67.7 46.151 67.73L46.7205 67.8565C46.7794 67.8781 46.8274 67.9219 46.8542 67.9786L46.8609 67.997L47.018 68.3788L47.0272 68.3983C47.0484 68.4569 47.0455 68.5215 47.0192 68.578L46.7061 69.0701C46.642 69.1767 46.6146 69.3014 46.6282 69.425C46.6417 69.5487 46.6955 69.6644 46.7812 69.7546L46.9544 69.9278C47.0455 70.012 47.1611 70.0647 47.2843 70.0782C47.4075 70.0917 47.5318 70.0653 47.6389 70.0029L48.1308 69.6898C48.1623 69.6742 48.1972 69.6666 48.2323 69.6678C48.2591 69.6667 48.2858 69.6715 48.3106 69.6819L48.3303 69.6909L48.7119 69.8482L48.7304 69.8548C48.7871 69.8817 48.8309 69.9297 48.8524 69.9886L48.9791 70.558C49.0091 70.6787 49.0779 70.7862 49.1749 70.8641C49.2719 70.9419 49.3918 70.9858 49.5161 70.9889H49.761C49.8853 70.9857 50.0052 70.9419 50.1022 70.864C50.1992 70.7862 50.268 70.6787 50.2981 70.558L50.4247 69.9886C50.4462 69.9297 50.49 69.8816 50.5467 69.8548L50.565 69.8482L50.9467 69.6909L50.9664 69.6819C50.9911 69.6716 51.0178 69.6668 51.0446 69.6678C51.0797 69.6666 51.1145 69.6741 51.1459 69.6898L51.6382 70.0028C51.7453 70.0653 51.8696 70.0917 51.9928 70.0782C52.116 70.0647 52.2316 70.012 52.3227 69.9279L52.4958 69.7547C52.5815 69.6646 52.6353 69.5488 52.6488 69.4251C52.6624 69.3014 52.6351 69.1767 52.571 69.0701L52.2578 68.578C52.2447 68.5501 52.2373 68.5198 52.236 68.489C52.2346 68.4582 52.2394 68.4275 52.2499 68.3985L52.259 68.3789L52.4161 67.997L52.4228 67.9786C52.4497 67.9219 52.4978 67.878 52.5568 67.8565L53.126 67.73C53.2467 67.7 53.3542 67.6313 53.4321 67.5343C53.5099 67.4373 53.5538 67.3174 53.557 67.193V66.9481C53.5538 66.8238 53.51 66.7039 53.4321 66.6069C53.3542 66.5099 53.2467 66.4411 53.126 66.4111Z" fill="white"/>
<path opacity="0.2" d="M50.863 67.0706C50.863 67.3128 50.7912 67.5495 50.6567 67.7509C50.5221 67.9523 50.3309 68.1092 50.1071 68.2019C49.8834 68.2946 49.6372 68.3188 49.3997 68.2716C49.1621 68.2243 48.944 68.1077 48.7727 67.9364C48.6015 67.7652 48.4848 67.547 48.4376 67.3095C48.3903 67.072 48.4146 66.8258 48.5073 66.602C48.5999 66.3783 48.7569 66.187 48.9583 66.0525C49.1596 65.9179 49.3964 65.8461 49.6385 65.8461C49.9632 65.8465 50.2744 65.9756 50.504 66.2052C50.7335 66.4348 50.8626 66.746 50.863 67.0706Z" fill="white"/>
<path d="M15.0386 39.8104V36.216H43.6025C43.7986 35.5619 44.1023 34.9451 44.5011 34.3907C44.8907 33.8515 45.3539 33.3694 45.8771 32.9586C46.4023 32.5462 47.0034 32.2409 47.6462 32.06C48.2961 31.8737 48.9648 31.7606 49.6399 31.723C50.4782 31.7148 51.3094 31.8772 52.0829 32.2004C53.5858 32.8421 54.7829 34.0392 55.4246 35.542C55.75 36.3257 55.9217 37.1646 55.93 38.0132C55.9346 38.8511 55.7723 39.6816 55.4527 40.4562C55.1459 41.2067 54.687 41.8856 54.1048 42.45C53.5238 43.012 52.8491 43.4682 52.1111 43.7979C51.3329 44.141 50.4903 44.3133 49.6399 44.3033C48.9632 44.3058 48.2904 44.2016 47.6462 43.9945C47.0153 43.7915 46.4258 43.4777 45.9052 43.0678C45.3827 42.6576 44.9113 42.1862 44.5012 41.6638C44.0771 41.1146 43.7711 40.4836 43.6026 39.8104L15.0386 39.8104Z" fill="#C3F1FF"/>
<path d="M49.64 27.2301C48.2236 27.2251 46.8204 27.502 45.5121 28.0444C44.2033 28.5862 43.0185 29.3888 42.03 30.4033L39.4746 27.8479C40.8034 26.5065 42.3888 25.4464 44.1361 24.7309C45.8841 24.0181 47.7523 23.6464 49.64 23.6357C51.56 23.6228 53.4622 24.0051 55.2281 24.759C56.9323 25.4832 58.485 26.5215 59.8053 27.8198C61.826 29.8482 63.1984 32.4312 63.7484 35.2411C64.2984 38.0509 64.0011 40.9608 62.8942 43.6014C62.17 45.3056 61.1317 46.8583 59.8334 48.1786C58.4981 49.521 56.9094 50.5847 55.1595 51.3078C53.4096 52.031 51.5334 52.399 49.64 52.3907C47.7532 52.3988 45.8832 52.0362 44.1361 51.3236C42.3838 50.6047 40.7973 49.5343 39.4746 48.1786L42.03 45.6232C43.0185 46.6377 44.2032 47.4402 45.512 47.982C46.8203 48.5245 48.2235 48.8013 49.6399 48.7963C51.0559 48.8015 52.4586 48.5235 53.7655 47.9785C55.0724 47.4336 56.2571 46.6328 57.2499 45.6232C58.2221 44.6329 59.0028 43.4714 59.5526 42.1973C60.1206 40.8752 60.4166 39.4522 60.4231 38.0132C60.4283 36.5973 60.1502 35.1946 59.6053 33.8877C59.0603 32.5808 58.2595 31.396 57.2499 30.4032C56.2596 29.4311 55.0981 28.6504 53.824 28.1006C52.5019 27.5326 51.0789 27.2365 49.64 27.2301V27.2301Z" fill="#50E6FF"/>
<path d="M50.8823 38.2086C50.8823 38.4543 50.8095 38.6946 50.6729 38.899C50.5364 39.1033 50.3423 39.2626 50.1152 39.3566C49.8882 39.4507 49.6383 39.4753 49.3973 39.4273C49.1562 39.3794 48.9348 39.261 48.761 39.0873C48.5872 38.9135 48.4689 38.6921 48.4209 38.451C48.373 38.2099 48.3976 37.9601 48.4916 37.733C48.5857 37.506 48.745 37.3119 48.9493 37.1753C49.1537 37.0388 49.3939 36.9659 49.6397 36.9659C49.9692 36.9663 50.285 37.0974 50.518 37.3303C50.7509 37.5633 50.882 37.8791 50.8823 38.2086V38.2086ZM53.1789 37.5393L52.601 37.4108C52.5412 37.389 52.4924 37.3446 52.4652 37.287L52.4584 37.2684L52.299 36.8809L52.2898 36.861C52.2791 36.8316 52.2743 36.8004 52.2756 36.7691C52.277 36.7378 52.2845 36.7071 52.2978 36.6788L52.6156 36.1792C52.6807 36.071 52.7084 35.9446 52.6947 35.8191C52.6809 35.6937 52.6264 35.5762 52.5395 35.4847L52.3636 35.3089C52.2713 35.2234 52.154 35.1699 52.0289 35.1562C51.9039 35.1425 51.7778 35.1693 51.6691 35.2327L51.1694 35.5504C51.1376 35.5664 51.1023 35.5741 51.0667 35.5728C51.0395 35.5738 51.0124 35.5689 50.9873 35.5585L50.9673 35.5493L50.5799 35.3898L50.5613 35.383C50.5038 35.3558 50.4593 35.3069 50.4375 35.2471L50.3091 34.6694C50.2786 34.5469 50.2087 34.4378 50.1103 34.3588C50.0118 34.2799 49.8902 34.2353 49.764 34.2321H49.5154C49.3893 34.2353 49.2676 34.2798 49.1692 34.3588C49.0707 34.4377 49.0009 34.5468 48.9704 34.6693L48.8419 35.2474C48.8201 35.3071 48.7756 35.3558 48.7182 35.383L48.6994 35.3898L48.3121 35.5493L48.2921 35.5585C48.267 35.5689 48.2399 35.5738 48.2127 35.5728C48.1771 35.574 48.1417 35.5663 48.1098 35.5504L47.6104 35.2328C47.5017 35.1695 47.3756 35.1427 47.2506 35.1564C47.1255 35.1701 47.0082 35.2236 46.9159 35.309L46.74 35.4847C46.6531 35.5762 46.5986 35.6937 46.5848 35.8192C46.571 35.9446 46.5988 36.0712 46.6638 36.1793L46.9817 36.6788C47.0083 36.736 47.0112 36.8015 46.9897 36.8609L46.9804 36.8809L46.821 37.2684L46.8141 37.287C46.7869 37.3446 46.7381 37.3891 46.6783 37.4109L46.1006 37.5392C45.9781 37.5697 45.869 37.6395 45.79 37.738C45.711 37.8365 45.6665 37.9581 45.6633 38.0843V38.3328C45.6665 38.459 45.711 38.5806 45.79 38.6791C45.869 38.7775 45.978 38.8473 46.1005 38.8778L46.6785 39.0062C46.7382 39.0281 46.787 39.0726 46.8142 39.1301L46.821 39.1487L46.9804 39.5362L46.9898 39.5561C47.0113 39.6155 47.0084 39.6811 46.9817 39.7384L46.6639 40.2378C46.5989 40.346 46.5711 40.4725 46.5848 40.598C46.5986 40.7234 46.6532 40.8409 46.7401 40.9324L46.916 41.1083C47.0083 41.1936 47.1257 41.2471 47.2507 41.2608C47.3758 41.2745 47.5019 41.2478 47.6106 41.1844L48.1098 40.8667C48.1417 40.8508 48.1771 40.8431 48.2128 40.8443C48.24 40.8432 48.2671 40.8481 48.2922 40.8586L48.3122 40.8678L48.6995 41.0274L48.7183 41.0341C48.7757 41.0614 48.8202 41.1101 48.842 41.1699L48.9705 41.7477C49.001 41.8702 49.0708 41.9793 49.1692 42.0583C49.2677 42.1373 49.3893 42.1818 49.5155 42.185H49.7641C49.8902 42.1818 50.0119 42.1373 50.1103 42.0583C50.2087 41.9793 50.2786 41.8702 50.3091 41.7477L50.4375 41.1699C50.4594 41.1101 50.5038 41.0613 50.5613 41.0341L50.5799 41.0274L50.9673 40.8678L50.9873 40.8586C51.0124 40.8482 51.0394 40.8433 51.0666 40.8443C51.1022 40.8431 51.1376 40.8508 51.1694 40.8667L51.669 41.1843C51.7777 41.2477 51.9038 41.2745 52.0289 41.2609C52.1539 41.2472 52.2713 41.1937 52.3636 41.1083L52.5393 40.9326C52.6263 40.841 52.6809 40.7235 52.6947 40.598C52.7084 40.4726 52.6807 40.346 52.6156 40.2378L52.2978 39.7384C52.2845 39.71 52.277 39.6793 52.2756 39.6481C52.2743 39.6168 52.2791 39.5856 52.2898 39.5562L52.299 39.5363L52.4584 39.1487L52.4652 39.1301C52.4925 39.0725 52.5413 39.028 52.6012 39.0062L53.1788 38.8778C53.3013 38.8474 53.4104 38.7776 53.4894 38.6791C53.5684 38.5807 53.613 38.459 53.6162 38.3328V38.0843C53.613 37.9581 53.5685 37.8365 53.4895 37.738C53.4105 37.6396 53.3014 37.5697 53.1789 37.5393V37.5393Z" fill="#0078D4"/>
<path opacity="0.2" d="M50.8823 38.2086C50.8823 38.4543 50.8094 38.6946 50.6728 38.899C50.5363 39.1033 50.3422 39.2626 50.1152 39.3566C49.8881 39.4507 49.6382 39.4753 49.3972 39.4273C49.1561 39.3794 48.9347 39.261 48.7609 39.0873C48.5871 38.9135 48.4688 38.6921 48.4208 38.451C48.3729 38.2099 48.3975 37.9601 48.4916 37.733C48.5856 37.506 48.7449 37.3119 48.9492 37.1753C49.1536 37.0388 49.3939 36.9659 49.6396 36.9659C49.9691 36.9663 50.2849 37.0974 50.5179 37.3303C50.7508 37.5633 50.8819 37.8791 50.8823 38.2086V38.2086Z" fill="#0078D4"/>
</g>
<defs>
<linearGradient id="paint0_linear_1028_771" x1="47.8698" y1="-15.1532" x2="51.8525" y2="130.615" gradientUnits="userSpaceOnUse">
<stop stop-color="#00ABDE"/>
<stop offset="1" stop-color="#007ED8"/>
</linearGradient>
<linearGradient id="paint1_linear_1028_771" x1="49.6395" y1="58.8248" x2="49.6395" y2="27.0409" gradientUnits="userSpaceOnUse">
<stop stop-color="#003067"/>
<stop offset="0.16493" stop-color="#003F7C"/>
<stop offset="0.36216" stop-color="#004F90"/>
<stop offset="0.68089" stop-color="#00589D"/>
<stop offset="1" stop-color="#005BA1"/>
</linearGradient>
<linearGradient id="paint2_linear_1028_771" x1="49.6395" y1="56.8418" x2="49.6395" y2="29.0309" gradientUnits="userSpaceOnUse">
<stop stop-color="#005BA1"/>
<stop offset="0.26" stop-color="#00589D"/>
<stop offset="0.53" stop-color="#004F90"/>
<stop offset="0.8" stop-color="#003F7C"/>
<stop offset="1" stop-color="#003067"/>
</linearGradient>
<linearGradient id="paint3_linear_1028_771" x1="49.6396" y1="63.7821" x2="49.6396" y2="58.8248" gradientUnits="userSpaceOnUse">
<stop stop-color="#004DAE"/>
<stop offset="0.21" stop-color="#0061C4"/>
<stop offset="0.51" stop-color="#0078DD"/>
<stop offset="0.78" stop-color="#0086EC"/>
<stop offset="1" stop-color="#008BF1"/>
</linearGradient>
<clipPath id="clip0_1028_771">
<rect width="99.2799" height="99.28" fill="white"/>
</clipPath>
</defs>
</svg>
