<svg width="100" height="100" viewBox="0 0 100 100" fill="none" xmlns="http://www.w3.org/2000/svg">
<g clip-path="url(#clip0_1102_672)">
<path d="M49.6401 96.45C40.382 96.45 31.3317 93.7047 23.6339 88.5611C15.936 83.4176 9.93624 76.1068 6.3933 67.5534C2.85036 59 1.92337 49.5881 3.72954 40.5078C5.53571 31.4276 9.99394 23.0868 16.5404 16.5403C23.0869 9.99384 31.4277 5.53562 40.5079 3.72945C49.5882 1.92327 59.0001 2.85027 67.5535 6.39321C76.1069 9.93614 83.4176 15.9359 88.5612 23.6338C93.7047 31.3316 96.4501 40.3819 96.4501 49.64C96.4505 55.7873 95.24 61.8745 92.8878 67.5539C90.5355 73.2334 87.0875 78.3938 82.7407 82.7406C78.3939 87.0874 73.2335 90.5354 67.554 92.8877C61.8746 95.2399 55.7874 96.4504 49.6401 96.45V96.45Z" fill="url(#paint0_linear_1102_672)"/>
<path fill-rule="evenodd" clip-rule="evenodd" d="M95.54 49.64C95.54 58.7182 92.848 67.5925 87.8045 75.1407C82.7609 82.6889 75.5923 88.572 67.2052 92.0461C58.818 95.5201 49.5891 96.4291 40.6854 94.658C31.7816 92.887 23.603 88.5154 17.1838 82.0962C10.7646 75.677 6.39302 67.4984 4.62196 58.5946C2.85089 49.6909 3.75987 40.462 7.23393 32.0748C10.708 23.6877 16.5911 16.5191 24.1393 11.4755C31.6875 6.43199 40.5618 3.74 49.64 3.74C55.6677 3.73998 61.6363 4.9272 67.2052 7.23388C72.774 9.54057 77.834 12.9215 82.0963 17.1837C86.3585 21.446 89.7394 26.5059 92.0461 32.0748C94.3528 37.6437 95.54 43.6123 95.54 49.64V49.64ZM49.64 3.62732e-07C59.4579 3.62732e-07 69.0553 2.91134 77.2185 8.36585C85.3818 13.8204 91.7442 21.5731 95.5014 30.6436C99.2585 39.7141 100.242 49.6951 98.3262 59.3243C96.4108 68.9535 91.6831 77.7985 84.7408 84.7408C77.7985 91.6831 68.9535 96.4108 59.3243 98.3262C49.6951 100.242 39.7141 99.2585 30.6436 95.5014C21.5731 91.7442 13.8204 85.3818 8.36585 77.2185C2.91134 69.0553 3.62732e-07 59.4579 3.62732e-07 49.64C-0.000787738 43.121 1.28265 36.6656 3.77702 30.6427C6.27138 24.6197 9.9278 19.1471 14.5375 14.5375C19.1471 9.9278 24.6197 6.27138 30.6427 3.77702C36.6656 1.28265 43.121 -0.000787738 49.64 3.62732e-07V3.62732e-07Z" fill="#F2F1F0"/>
<path fill-rule="evenodd" clip-rule="evenodd" d="M92.7296 49.6401C92.7296 58.1625 90.2024 66.4935 85.4676 73.5796C80.7328 80.6657 74.0031 86.1887 66.1294 89.4501C58.2557 92.7114 49.5918 93.5648 41.2331 91.9021C32.8745 90.2395 25.1966 86.1356 19.1703 80.1093C13.1441 74.0831 9.04017 66.4052 7.37753 58.0465C5.7149 49.6879 6.56822 41.0239 9.8296 33.1503C13.091 25.2766 18.6139 18.5469 25.7 13.8121C32.7862 9.07727 41.1172 6.55009 49.6396 6.55009C55.2983 6.54974 60.9017 7.66407 66.1298 9.82942C71.3579 11.9948 76.1082 15.1687 80.1096 19.1701C84.1109 23.1714 87.2849 27.9218 89.4502 33.1499C91.6156 38.3779 92.7299 43.9813 92.7296 49.6401V49.6401ZM49.6396 2.81009C58.9017 2.81009 67.9558 5.55662 75.6569 10.7024C83.3581 15.8481 89.3604 23.162 92.9049 31.719C96.4493 40.2761 97.3767 49.692 95.5697 58.7762C93.7628 67.8603 89.3027 76.2046 82.7534 82.7539C76.2041 89.3032 67.8598 93.7633 58.7757 95.5703C49.6915 97.3772 40.2756 96.4498 31.7185 92.9054C23.1614 89.3609 15.8476 83.3586 10.7018 75.6574C5.5561 67.9563 2.80957 58.9022 2.80957 49.6401C2.81076 37.2204 7.745 25.3097 16.5271 16.5276C25.3091 7.7455 37.2198 2.81125 49.6396 2.81006V2.81009Z" fill="#0078D4"/>
<path fill-rule="evenodd" clip-rule="evenodd" d="M92.7637 49.6401C92.7637 58.1625 90.2366 66.4935 85.5018 73.5796C80.767 80.6657 74.0372 86.1887 66.1636 89.4501C58.2899 92.7114 49.6259 93.5648 41.2673 91.9021C32.9087 90.2395 25.2308 86.1356 19.2045 80.1093C13.1783 74.0831 9.07435 66.4052 7.41171 58.0465C5.74908 49.6879 6.6024 41.0239 9.86378 33.1503C13.1252 25.2766 18.6481 18.5469 25.7342 13.8121C32.8203 9.07727 41.1514 6.55009 49.6738 6.55009C55.3325 6.54974 60.9359 7.66407 66.164 9.82942C71.3921 11.9948 76.1424 15.1687 80.1437 19.1701C84.1451 23.1714 87.3191 27.9218 89.4844 33.1499C91.6498 38.3779 92.7641 43.9813 92.7637 49.6401V49.6401ZM49.6738 2.81009C58.9359 2.81009 67.9899 5.55662 75.6911 10.7024C83.3923 15.8481 89.3946 23.162 92.939 31.719C96.4835 40.2761 97.4109 49.692 95.6039 58.7762C93.797 67.8603 89.3369 76.2046 82.7876 82.7539C76.2383 89.3032 67.894 93.7633 58.8098 95.5703C49.7257 97.3772 40.3097 96.4498 31.7527 92.9054C23.1956 89.3609 15.8818 83.3586 10.736 75.6574C5.59028 67.9563 2.84375 58.9022 2.84375 49.6401C2.84494 37.2204 7.77918 25.3097 16.5612 16.5276C25.3433 7.7455 37.254 2.81125 49.6738 2.81006V2.81009Z" fill="#0078D4"/>
<path d="M51.2211 58.3177C50.9757 56.1907 51.1826 54.0359 51.8284 51.9945C52.4741 49.9531 53.544 48.0713 54.9679 46.4724C56.3919 44.8734 58.1377 43.5935 60.091 42.7166C62.0442 41.8396 64.1608 41.3855 66.3019 41.3838H66.5575C67.1436 41.3833 67.7292 41.4164 68.3116 41.4829C70.8417 41.795 73.2513 42.7437 75.3152 44.2402V25.3062C75.3152 24.8334 75.1273 24.3799 74.793 24.0455C74.4587 23.7112 74.0052 23.5233 73.5323 23.5233H73.5227H23.6061C23.1338 23.5242 22.6811 23.7124 22.3475 24.0466C22.0138 24.3809 21.8264 24.8339 21.8264 25.3062V59.813C21.8264 60.0471 21.8725 60.279 21.9621 60.4953C22.0517 60.7116 22.183 60.9081 22.3486 61.0737C22.5141 61.2392 22.7107 61.3705 22.927 61.4601C23.1433 61.5497 23.3751 61.5959 23.6093 61.5959H52.1189C51.6578 60.554 51.3552 59.4491 51.2211 58.3177V58.3177Z" fill="#0078D4"/>
<path opacity="0.9" d="M51.1094 56.4103C51.1639 52.4163 52.7858 48.6037 55.6254 45.7946C58.465 42.9854 62.2949 41.4048 66.2892 41.3934H66.5576C68.3363 41.3833 70.1009 41.7085 71.7592 42.3519V27.1817C71.7592 27.0453 71.705 26.9144 71.6085 26.818C71.512 26.7215 71.3812 26.6673 71.2448 26.6673H25.9226C25.7864 26.6681 25.6561 26.7226 25.5598 26.8189C25.4635 26.9152 25.409 27.0455 25.4082 27.1817V57.6084C25.409 57.7446 25.4635 57.8749 25.5598 57.9712C25.6561 58.0675 25.7864 58.122 25.9226 58.1228H51.1989C51.1371 57.5541 51.1072 56.9823 51.1094 56.4103V56.4103Z" fill="url(#paint1_linear_1102_672)"/>
<path d="M52.6014 24.4819H44.6776C44.3635 24.4819 44.1089 24.7365 44.1089 25.0506V25.1464C44.1089 25.4605 44.3635 25.7152 44.6776 25.7152H52.6014C52.9155 25.7152 53.1701 25.4605 53.1701 25.1464V25.0506C53.1701 24.7365 52.9155 24.4819 52.6014 24.4819Z" fill="#F2F2F2"/>
<path d="M53.5119 56.407C53.5064 56.9408 53.5342 57.4743 53.595 58.0046C54.1829 63.3659 59.2822 65.8613 60.7392 72.6572C60.7921 72.8889 60.9214 73.0962 61.1062 73.2457C61.291 73.3951 61.5207 73.4782 61.7584 73.4815H71.0912C71.3291 73.4778 71.559 73.3946 71.7443 73.2453C71.9295 73.0959 72.0595 72.8889 72.1136 72.6572C73.5674 65.8613 78.6252 63.3659 79.2546 58.0046C79.4624 56.2138 79.289 54.3993 78.7457 52.6803C78.2024 50.9613 77.3016 49.3767 76.1024 48.0305C74.9032 46.6844 73.4328 45.6072 71.7878 44.8697C70.1427 44.1322 68.3602 43.7511 66.5574 43.7514H66.2954C62.9268 43.7503 59.694 45.0793 57.3001 47.4493C54.9062 49.8193 53.5448 53.0386 53.5119 56.407V56.407Z" fill="url(#paint2_radial_1102_672)"/>
<path d="M71.7592 50.9211C70.9572 50.9495 70.1989 51.294 69.65 51.8794C69.1011 52.4649 68.806 53.2437 68.8293 54.0459V55.7169H64.2476V54.0459C64.2656 53.2351 63.9607 52.4505 63.4001 51.8645C62.8396 51.2785 62.0691 50.9392 61.2584 50.9212L61.2538 50.9211H61.1867C60.3938 50.9779 59.6518 51.333 59.1101 51.9148C58.5685 52.4967 58.2673 53.2621 58.2673 54.0571C58.2673 54.852 58.5685 55.6175 59.1101 56.1993C59.6518 56.7812 60.3938 57.1362 61.1867 57.193H62.5766V70.2194C62.5893 70.4179 62.6771 70.6042 62.8222 70.7403C62.9673 70.8764 63.1588 70.9522 63.3578 70.9522C63.5567 70.9522 63.7482 70.8764 63.8933 70.7403C64.0384 70.6042 64.1263 70.4179 64.139 70.2194V57.193H68.8293V70.2194C68.842 70.4179 68.9299 70.6042 69.075 70.7403C69.2201 70.8764 69.4116 70.9522 69.6105 70.9522C69.8095 70.9522 70.001 70.8764 70.1461 70.7403C70.2912 70.6042 70.379 70.4179 70.3917 70.2194V57.193H71.7592C72.1576 57.1794 72.5494 57.0875 72.9122 56.9225C73.2751 56.7574 73.6019 56.5226 73.8739 56.2313C74.146 55.94 74.358 55.5979 74.4979 55.2247C74.6378 54.8514 74.7028 54.4543 74.6892 54.0559L74.6891 54.0523C74.7141 53.249 74.4198 52.4685 73.8707 51.8817C73.3216 51.2948 72.5624 50.9495 71.7592 50.9211V50.9211ZM62.5766 55.7137H61.1004C60.7612 55.7559 60.4171 55.6938 60.114 55.5356C59.8108 55.3775 59.563 55.1308 59.4035 54.8284C59.244 54.5261 59.1803 54.1823 59.2209 53.8428C59.2615 53.5033 59.4045 53.1843 59.6309 52.928C59.8572 52.6718 60.1562 52.4906 60.4881 52.4084C60.8199 52.3262 61.1689 52.347 61.4887 52.468C61.8085 52.589 62.0838 52.8045 62.2781 53.0858C62.4725 53.3671 62.5765 53.7008 62.5766 54.0427V55.7137ZM71.8678 55.7137H70.3917V53.9564C70.3526 53.5721 70.4657 53.1877 70.7068 52.8858C70.9479 52.5839 71.2978 52.3886 71.6813 52.3417C72.0648 52.2949 72.4514 52.4003 72.7581 52.6353C73.0647 52.8703 73.2671 53.2161 73.3216 53.5986C73.3376 53.7173 73.3376 53.8377 73.3216 53.9564C73.3658 54.3736 73.2441 54.7913 72.9828 55.1195C72.7216 55.4477 72.3418 55.66 71.9254 55.7105L71.8678 55.7137Z" fill="url(#paint3_linear_1102_672)"/>
<path d="M69.088 80.4436L70.8485 78.5553V73.5103H62.0845V78.5458L63.8418 80.434C63.9474 80.559 64.093 80.6437 64.2539 80.6736H68.596C68.6891 80.6695 68.7805 80.647 68.8649 80.6076C68.9494 80.5681 69.0252 80.5124 69.088 80.4436V80.4436Z" fill="#CECECE"/>
<path d="M61.9919 76.993L70.8489 75.277V74.299L61.9919 76.038V76.993Z" fill="#999999"/>
<path d="M70.8489 77.664V76.709L61.9919 78.469V78.555L62.6629 79.293L70.8489 77.664Z" fill="#999999"/>
<path d="M38.0795 47.9168C36.5122 47.9168 34.9801 47.452 33.6769 46.5813C32.3737 45.7105 31.358 44.4729 30.7582 43.0249C30.1585 41.5769 30.0015 39.9835 30.3073 38.4464C30.6131 36.9092 31.3678 35.4972 32.476 34.3889C33.5843 33.2807 34.9963 32.5259 36.5335 32.2202C38.0707 31.9144 39.664 32.0713 41.112 32.6711C42.56 33.2709 43.7976 34.2866 44.6684 35.5898C45.5391 36.8929 46.0039 38.425 46.0039 39.9923C46.0015 42.0933 45.1659 44.1075 43.6803 45.5931C42.1947 47.0787 40.1804 47.9144 38.0795 47.9168ZM38.0795 34.5125C36.9957 34.5125 35.9362 34.8339 35.035 35.436C34.1338 36.0381 33.4315 36.894 33.0167 37.8953C32.602 38.8966 32.4934 39.9984 32.7049 41.0614C32.9163 42.1244 33.4382 43.1008 34.2046 43.8672C34.971 44.6336 35.9474 45.1555 37.0104 45.3669C38.0734 45.5784 39.1752 45.4699 40.1765 45.0551C41.1778 44.6403 42.0337 43.938 42.6358 43.0368C43.238 42.1356 43.5593 41.0762 43.5593 39.9923C43.5576 38.5395 42.9797 37.1467 41.9524 36.1194C40.9251 35.0921 39.5323 34.5142 38.0795 34.5125V34.5125Z" fill="#F2F2F2"/>
<path d="M47.3483 50.484C47.1877 50.4843 47.0287 50.4528 46.8804 50.3913C46.7321 50.3298 46.5975 50.2396 46.4842 50.1258L41.9545 45.5961C41.7261 45.3667 41.598 45.0562 41.5984 44.7325C41.5987 44.4089 41.7275 44.0986 41.9563 43.8698C42.1852 43.6409 42.4954 43.5122 42.8191 43.5118C43.1427 43.5115 43.4533 43.6395 43.6826 43.8679L48.2124 48.3976C48.3832 48.5686 48.4996 48.7863 48.5467 49.0234C48.5938 49.2604 48.5696 49.5061 48.4771 49.7294C48.3846 49.9527 48.2281 50.1436 48.0271 50.2779C47.8262 50.4122 47.59 50.4839 47.3483 50.484V50.484Z" fill="#F2F2F2"/>
<path opacity="0.6" d="M38.0795 45.4722C41.1059 45.4722 43.5594 43.0188 43.5594 39.9923C43.5594 36.9659 41.1059 34.5125 38.0795 34.5125C35.053 34.5125 32.5996 36.9659 32.5996 39.9923C32.5996 43.0188 35.053 45.4722 38.0795 45.4722Z" fill="white"/>
<path d="M25.4082 70.9523H52.1568" stroke="#0078D4" stroke-miterlimit="10" stroke-linecap="round"/>
<path d="M42.2041 73.8317C43.7943 73.8317 45.0835 72.5426 45.0835 70.9523C45.0835 69.3621 43.7943 68.0729 42.2041 68.0729C40.6139 68.0729 39.3247 69.3621 39.3247 70.9523C39.3247 72.5426 40.6139 73.8317 42.2041 73.8317Z" fill="#50E6FF" stroke="#0078D4" stroke-miterlimit="10" stroke-linecap="round"/>
</g>
<defs>
<linearGradient id="paint0_linear_1102_672" x1="47.8697" y1="-15.1531" x2="51.8525" y2="130.615" gradientUnits="userSpaceOnUse">
<stop stop-color="#00ABDE"/>
<stop offset="1" stop-color="#007ED8"/>
</linearGradient>
<linearGradient id="paint1_linear_1102_672" x1="46.5163" y1="9.23469" x2="51.1428" y2="83.4403" gradientUnits="userSpaceOnUse">
<stop stop-color="#83B9F9"/>
<stop offset="1" stop-color="#0078D4"/>
</linearGradient>
<radialGradient id="paint2_radial_1102_672" cx="0" cy="0" r="1" gradientUnits="userSpaceOnUse" gradientTransform="translate(66.4262 58.6164) scale(18.0299 18.0299)">
<stop stop-color="#B4EC36"/>
<stop offset="0.813" stop-color="#86D633"/>
</radialGradient>
<linearGradient id="paint3_linear_1102_672" x1="66.4644" y1="52.2214" x2="66.6082" y2="70.3248" gradientUnits="userSpaceOnUse">
<stop stop-color="#F2F2F2"/>
<stop offset="1" stop-color="#B4EC36" stop-opacity="0.02"/>
</linearGradient>
<clipPath id="clip0_1102_672">
<rect width="99.2799" height="99.28" fill="white"/>
</clipPath>
</defs>
</svg>
