<svg width="103" height="103" viewBox="0 0 103 103" fill="none" xmlns="https://www.w3.org/2000/svg">
<path d="M51.9333 98.3087C26.0833 98.3087 5.12329 77.3587 5.12329 51.4987C5.12329 25.6387 26.0833 4.68869 51.9333 4.68869C77.7833 4.68869 98.7433 25.6487 98.7433 51.4987C98.7433 77.3487 77.7833 98.3087 51.9333 98.3087Z" fill="url(#paint0_linear)"/>
<path fill-rule="evenodd" clip-rule="evenodd" d="M97.8335 51.4987C97.8335 76.8487 77.2835 97.3987 51.9335 97.3987C26.5835 97.3987 6.03346 76.8487 6.03346 51.4987C6.03346 26.1487 26.5835 5.59867 51.9335 5.59867C77.2835 5.59867 97.8335 26.1487 97.8335 51.4987ZM51.9335 1.85867C79.3535 1.85867 101.573 24.0787 101.573 51.4987C101.573 78.9187 79.3435 101.139 51.9335 101.139C24.5135 101.139 2.29346 78.9087 2.29346 51.4987C2.29346 24.0787 24.5135 1.85867 51.9335 1.85867Z" fill="#F2F1F0"/>
<path fill-rule="evenodd" clip-rule="evenodd" d="M95.0233 51.4987C95.0233 75.2987 75.7333 94.5887 51.9333 94.5887C28.1333 94.5887 8.84327 75.2987 8.84327 51.4987C8.84327 27.6987 28.1333 8.4087 51.9333 8.4087C75.7333 8.4087 95.0233 27.6987 95.0233 51.4987ZM51.9333 4.6687C77.7933 4.6687 98.7633 25.6387 98.7633 51.4987C98.7633 77.3587 77.7933 98.3287 51.9333 98.3287C26.0733 98.3287 5.10327 77.3587 5.10327 51.4987C5.10327 25.6387 26.0633 4.6687 51.9333 4.6687Z" fill="#0078D4"/>
<path opacity="0.15" d="M22.5334 72.6187H81.4734V27.2287H22.5334V72.6187Z" fill="#1F1D20"/>
<path d="M22.5334 71.5587H81.4734V26.1687H22.5334V71.5587Z" fill="#F2F1F0"/>
<path d="M22.5334 31.1387H81.4534V25.9987H22.5334V31.1387Z" fill="#002D4C"/>
<path d="M74.1733 82.3887H56.5833C55.5233 82.3887 54.6633 81.5287 54.6633 80.4687V41.4487C54.6633 40.3887 55.5233 39.5287 56.5833 39.5287H74.1733C75.2333 39.5287 76.0933 40.3887 76.0933 41.4487V80.4687C76.0933 81.5287 75.2333 82.3887 74.1733 82.3887Z" fill="#002D4C"/>
<path d="M74.6932 43.3987H56.0632V75.9387H74.6932V43.3987Z" fill="#F2F1F0"/>
<path d="M67.0234 79.9787H63.7234C63.2034 79.9787 62.7734 79.5587 62.7734 79.0287C62.7734 78.5087 63.1934 78.0787 63.7234 78.0787H67.0234C67.5434 78.0787 67.9734 78.4987 67.9734 79.0287C67.9734 79.5587 67.5534 79.9787 67.0234 79.9787Z" fill="#50E6FF"/>
<path d="M49.0632 54.4387C48.7632 54.5987 48.4632 54.7287 48.1432 54.8487C47.1432 55.2287 46.0832 55.4187 45.0132 55.4087C40.8832 55.4087 37.2932 52.5687 37.2932 48.9287C37.3032 47.9287 37.8532 47.0187 38.7232 46.5487C34.9932 46.7087 34.0332 50.5987 34.0332 52.8787C34.0332 59.3187 39.9732 59.9787 41.2532 59.9787C41.9432 59.9787 42.9832 59.7787 43.6132 59.5787L43.7232 59.5387C46.1232 58.7087 48.1732 57.0787 49.5332 54.9287C49.6332 54.7687 49.5932 54.5487 49.4232 54.4487C49.3132 54.3787 49.1732 54.3787 49.0632 54.4387Z" fill="url(#paint1_linear)"/>
<path opacity="0.35" d="M49.0632 54.4387C48.7632 54.5987 48.4632 54.7287 48.1432 54.8487C47.1432 55.2287 46.0832 55.4187 45.0132 55.4087C40.8832 55.4087 37.2932 52.5687 37.2932 48.9287C37.3032 47.9287 37.8532 47.0187 38.7232 46.5487C34.9932 46.7087 34.0332 50.5987 34.0332 52.8787C34.0332 59.3187 39.9732 59.9787 41.2532 59.9787C41.9432 59.9787 42.9832 59.7787 43.6132 59.5787L43.7232 59.5387C46.1232 58.7087 48.1732 57.0787 49.5332 54.9287C49.6332 54.7687 49.5932 54.5487 49.4232 54.4487C49.3132 54.3787 49.1732 54.3787 49.0632 54.4387Z" fill="url(#paint2_radial)"/>
<path d="M38.1333 58.8787C37.3533 58.3987 36.6833 57.7587 36.1533 57.0187C33.8633 53.8787 34.5433 49.4687 37.6933 47.1787C38.0233 46.9387 38.3733 46.7287 38.7333 46.5487C39.0033 46.4187 39.4733 46.1887 40.0933 46.1987C40.9733 46.2087 41.8033 46.6287 42.3333 47.3287C42.6833 47.7987 42.8833 48.3687 42.8833 48.9587C42.8833 48.9387 45.0133 42.0187 35.9033 42.0187C32.0733 42.0187 28.9233 45.6487 28.9233 48.8387C28.9133 50.5287 29.2733 52.1987 29.9833 53.7287C32.3833 58.8587 38.2533 61.3787 43.6233 59.5787C41.7733 60.1587 39.7733 59.8987 38.1333 58.8787Z" fill="url(#paint3_linear)"/>
<path opacity="0.41" d="M38.1333 58.8787C37.3533 58.3987 36.6833 57.7587 36.1533 57.0187C33.8633 53.8787 34.5433 49.4687 37.6933 47.1787C38.0233 46.9387 38.3733 46.7287 38.7333 46.5487C39.0033 46.4187 39.4733 46.1887 40.0933 46.1987C40.9733 46.2087 41.8033 46.6287 42.3333 47.3287C42.6833 47.7987 42.8833 48.3687 42.8833 48.9587C42.8833 48.9387 45.0133 42.0187 35.9033 42.0187C32.0733 42.0187 28.9233 45.6487 28.9233 48.8387C28.9133 50.5287 29.2733 52.1987 29.9833 53.7287C32.3833 58.8587 38.2533 61.3787 43.6233 59.5787C41.7733 60.1587 39.7733 59.8987 38.1333 58.8787Z" fill="url(#paint4_radial)"/>
<path d="M42.1933 50.7987C42.1233 50.8887 41.9033 51.0187 41.9033 51.2887C41.9033 51.5187 42.0533 51.7387 42.3133 51.9187C43.5633 52.7887 45.9333 52.6787 45.9433 52.6787C46.8733 52.6787 47.7833 52.4287 48.5833 51.9487C50.2233 50.9887 51.2333 49.2387 51.2333 47.3387C51.2533 45.3887 50.5333 44.0887 50.2433 43.5087C48.3933 39.8887 44.4033 37.8087 40.0633 37.8087C33.9533 37.8087 28.9833 42.7087 28.8933 48.8187C28.9333 45.6287 32.1033 43.0587 35.8733 43.0587C36.1833 43.0587 37.9233 43.0887 39.5333 43.9387C40.9633 44.6887 41.7033 45.5887 42.2233 46.4887C42.7633 47.4187 42.8633 48.5987 42.8633 49.0687C42.8733 49.5287 42.6333 50.2287 42.1933 50.7987Z" fill="url(#paint5_radial)"/>
<path d="M42.1933 50.7987C42.1233 50.8887 41.9033 51.0187 41.9033 51.2887C41.9033 51.5187 42.0533 51.7387 42.3133 51.9187C43.5633 52.7887 45.9333 52.6787 45.9433 52.6787C46.8733 52.6787 47.7833 52.4287 48.5833 51.9487C50.2233 50.9887 51.2333 49.2387 51.2333 47.3387C51.2533 45.3887 50.5333 44.0887 50.2433 43.5087C48.3933 39.8887 44.4033 37.8087 40.0633 37.8087C33.9533 37.8087 28.9833 42.7087 28.8933 48.8187C28.9333 45.6287 32.1033 43.0587 35.8733 43.0587C36.1833 43.0587 37.9233 43.0887 39.5333 43.9387C40.9633 44.6887 41.7033 45.5887 42.2233 46.4887C42.7633 47.4187 42.8633 48.5987 42.8633 49.0687C42.8733 49.5287 42.6333 50.2287 42.1933 50.7987Z" fill="url(#paint6_radial)"/>
<path d="M71.0133 59.9787C70.8433 60.0687 70.6633 60.1487 70.4833 60.2187C69.9033 60.4387 69.2933 60.5487 68.6833 60.5387C66.3033 60.5387 64.2333 58.9087 64.2333 56.8087C64.2433 56.2387 64.5533 55.7087 65.0633 55.4387C62.9133 55.5287 62.3633 57.7687 62.3633 59.0787C62.3633 62.7887 65.7833 63.1687 66.5233 63.1687C66.9233 63.1687 67.5233 63.0487 67.8833 62.9387L67.9533 62.9187C69.3333 62.4387 70.5133 61.5087 71.2933 60.2687C71.3533 60.1787 71.3233 60.0487 71.2333 59.9887C71.1633 59.9487 71.0833 59.9487 71.0133 59.9787Z" fill="url(#paint7_linear)"/>
<path opacity="0.35" d="M71.0133 59.9787C70.8433 60.0687 70.6633 60.1487 70.4833 60.2187C69.9033 60.4387 69.2933 60.5487 68.6833 60.5387C66.3033 60.5387 64.2333 58.9087 64.2333 56.8087C64.2433 56.2387 64.5533 55.7087 65.0633 55.4387C62.9133 55.5287 62.3633 57.7687 62.3633 59.0787C62.3633 62.7887 65.7833 63.1687 66.5233 63.1687C66.9233 63.1687 67.5233 63.0487 67.8833 62.9387L67.9533 62.9187C69.3333 62.4387 70.5133 61.5087 71.2933 60.2687C71.3533 60.1787 71.3233 60.0487 71.2333 59.9887C71.1633 59.9487 71.0833 59.9487 71.0133 59.9787Z" fill="url(#paint8_radial)"/>
<path d="M64.7232 62.5387C64.2732 62.2587 63.8832 61.8987 63.5832 61.4687C62.2632 59.6587 62.6632 57.1287 64.4632 55.8087C64.6532 55.6687 64.8532 55.5487 65.0632 55.4487C65.2232 55.3787 65.4832 55.2387 65.8432 55.2487C66.3532 55.2487 66.8332 55.4987 67.1332 55.8987C67.3332 56.1687 67.4432 56.4987 67.4532 56.8387C67.4532 56.8287 68.6832 52.8387 63.4332 52.8387C61.2332 52.8387 59.4132 54.9287 59.4132 56.7687C59.4032 57.7387 59.6132 58.6987 60.0232 59.5787C61.4032 62.5287 64.7832 63.9787 67.8732 62.9487C66.8232 63.2687 65.6732 63.1287 64.7232 62.5387Z" fill="url(#paint9_linear)"/>
<path opacity="0.41" d="M64.7232 62.5387C64.2732 62.2587 63.8832 61.8987 63.5832 61.4687C62.2632 59.6587 62.6632 57.1287 64.4632 55.8087C64.6532 55.6687 64.8532 55.5487 65.0632 55.4487C65.2232 55.3787 65.4832 55.2387 65.8432 55.2487C66.3532 55.2487 66.8332 55.4987 67.1332 55.8987C67.3332 56.1687 67.4432 56.4987 67.4532 56.8387C67.4532 56.8287 68.6832 52.8387 63.4332 52.8387C61.2332 52.8387 59.4132 54.9287 59.4132 56.7687C59.4032 57.7387 59.6132 58.6987 60.0232 59.5787C61.4032 62.5287 64.7832 63.9787 67.8732 62.9487C66.8232 63.2687 65.6732 63.1287 64.7232 62.5387Z" fill="url(#paint10_radial)"/>
<path d="M67.0631 57.8887C67.0231 57.9387 66.8931 58.0187 66.8931 58.1687C66.8931 58.2987 66.9831 58.4287 67.1331 58.5287C67.8531 59.0287 69.2131 58.9687 69.2231 58.9687C69.7631 58.9687 70.2831 58.8187 70.7431 58.5487C71.6831 57.9987 72.2731 56.9887 72.2731 55.8887C72.2831 54.7587 71.8731 54.0187 71.7031 53.6787C70.6431 51.5987 68.3431 50.3987 65.8431 50.3987C62.3231 50.3987 59.4631 53.2187 59.4131 56.7387C59.4331 54.9087 61.2631 53.4187 63.4331 53.4187C63.6131 53.4187 64.6131 53.4387 65.5431 53.9287C66.3631 54.3587 66.7931 54.8787 67.0931 55.3987C67.4031 55.9387 67.4631 56.6087 67.4631 56.8787C67.4531 57.1587 67.3131 57.5587 67.0631 57.8887Z" fill="url(#paint11_radial)"/>
<path d="M67.0631 57.8887C67.0231 57.9387 66.8931 58.0187 66.8931 58.1687C66.8931 58.2987 66.9831 58.4287 67.1331 58.5287C67.8531 59.0287 69.2131 58.9687 69.2231 58.9687C69.7631 58.9687 70.2831 58.8187 70.7431 58.5487C71.6831 57.9987 72.2731 56.9887 72.2731 55.8887C72.2831 54.7587 71.8731 54.0187 71.7031 53.6787C70.6431 51.5987 68.3431 50.3987 65.8431 50.3987C62.3231 50.3987 59.4631 53.2187 59.4131 56.7387C59.4331 54.9087 61.2631 53.4187 63.4331 53.4187C63.6131 53.4187 64.6131 53.4387 65.5431 53.9287C66.3631 54.3587 66.7931 54.8787 67.0931 55.3987C67.4031 55.9387 67.4631 56.6087 67.4631 56.8787C67.4531 57.1587 67.3131 57.5587 67.0631 57.8887Z" fill="url(#paint12_radial)"/>
<path d="M34.3631 54.1486H27.1531V61.3586H34.3631V54.1486Z" fill="#002D4C"/>
<path d="M36.5431 53.9586L35.5331 52.9386L30.4431 58.0286L28.9131 56.4986L27.8931 57.5186L30.4331 60.0586L36.5431 53.9586Z" fill="#FAF9F8"/>
<path d="M63.4732 60.7787H58.2932V65.9587H63.4732V60.7787Z" fill="#002D4C"/>
<path d="M65.0433 60.6387L64.3133 59.9087L60.6533 63.5687L59.5633 62.4687L58.8333 63.1987L60.6533 65.0187L65.0433 60.6387Z" fill="#FAF9F8"/>
<path d="M76.3432 29.4087C76.8032 29.4087 77.1832 29.0387 77.1832 28.5687C77.1832 28.1087 76.8132 27.7287 76.3432 27.7287C75.8732 27.7287 75.5032 28.1087 75.5032 28.5687C75.5032 29.0387 75.8832 29.4087 76.3432 29.4087Z" fill="#50E6FF"/>
<path d="M73.7431 29.4087C74.2031 29.4087 74.5831 29.0387 74.5831 28.5687C74.5831 28.1087 74.2031 27.7287 73.7431 27.7287C73.2831 27.7287 72.9031 28.1087 72.9031 28.5687C72.9031 29.0387 73.2831 29.4087 73.7431 29.4087Z" fill="#84ECFD"/>
<path d="M79.0033 29.4087C79.4633 29.4087 79.8433 29.0387 79.8433 28.5687C79.8433 28.1087 79.4633 27.7287 79.0033 27.7287C78.5433 27.7287 78.1633 28.1087 78.1633 28.5687C78.1633 29.0387 78.5333 29.4087 79.0033 29.4087Z" fill="#45CAF2"/>
<defs>
<linearGradient id="paint0_linear" x1="50.1629" y1="-13.2943" x2="54.1457" y2="132.474" gradientUnits="userSpaceOnUse">
<stop stop-color="#00ABDE"/>
<stop offset="1" stop-color="#007ED8"/>
</linearGradient>
<linearGradient id="paint1_linear" x1="34.0287" y1="53.2584" x2="49.5819" y2="53.2584" gradientUnits="userSpaceOnUse">
<stop stop-color="#0C59A4"/>
<stop offset="1" stop-color="#114A8B"/>
</linearGradient>
<radialGradient id="paint2_radial" cx="0" cy="0" r="1" gradientUnits="userSpaceOnUse" gradientTransform="translate(42.6254 53.393) scale(8.32108 7.90503)">
<stop offset="0.72" stop-opacity="0"/>
<stop offset="0.95" stop-opacity="0.53"/>
<stop offset="1"/>
</radialGradient>
<linearGradient id="paint3_linear" x1="42.2357" y1="46.5162" x2="32.5185" y2="57.1007" gradientUnits="userSpaceOnUse">
<stop stop-color="#1B9DE2"/>
<stop offset="0.16" stop-color="#1595DF"/>
<stop offset="0.67" stop-color="#0680D7"/>
<stop offset="1" stop-color="#0078D4"/>
</linearGradient>
<radialGradient id="paint4_radial" cx="0" cy="0" r="1" gradientUnits="userSpaceOnUse" gradientTransform="translate(35.1195 55.2523) rotate(-81.3844) scale(12.5127 10.109)">
<stop offset="0.76" stop-opacity="0"/>
<stop offset="0.95" stop-opacity="0.5"/>
<stop offset="1"/>
</radialGradient>
<radialGradient id="paint5_radial" cx="0" cy="0" r="1" gradientUnits="userSpaceOnUse" gradientTransform="translate(31.2851 42.0718) rotate(92.2906) scale(17.6744 37.6428)">
<stop stop-color="#35C1F1"/>
<stop offset="0.11" stop-color="#34C1ED"/>
<stop offset="0.23" stop-color="#2FC2DF"/>
<stop offset="0.31" stop-color="#2BC3D2"/>
<stop offset="0.67" stop-color="#36C752"/>
</radialGradient>
<radialGradient id="paint6_radial" cx="0" cy="0" r="1" gradientUnits="userSpaceOnUse" gradientTransform="translate(49.7425 44.6117) rotate(73.7398) scale(8.49208 6.90575)">
<stop stop-color="#66EB6E"/>
<stop offset="1" stop-color="#66EB6E" stop-opacity="0"/>
</radialGradient>
<linearGradient id="paint7_linear" x1="62.3626" y1="59.3024" x2="71.3161" y2="59.3024" gradientUnits="userSpaceOnUse">
<stop stop-color="#0C59A4"/>
<stop offset="1" stop-color="#114A8B"/>
</linearGradient>
<radialGradient id="paint8_radial" cx="0" cy="0" r="1" gradientUnits="userSpaceOnUse" gradientTransform="translate(67.3088 59.3819) scale(4.78884 4.5494)">
<stop offset="0.72" stop-opacity="0"/>
<stop offset="0.95" stop-opacity="0.53"/>
<stop offset="1"/>
</radialGradient>
<linearGradient id="paint9_linear" x1="67.0869" y1="55.421" x2="61.4931" y2="61.5138" gradientUnits="userSpaceOnUse">
<stop stop-color="#1B9DE2"/>
<stop offset="0.16" stop-color="#1595DF"/>
<stop offset="0.67" stop-color="#0680D7"/>
<stop offset="1" stop-color="#0078D4"/>
</linearGradient>
<radialGradient id="paint10_radial" cx="0" cy="0" r="1" gradientUnits="userSpaceOnUse" gradientTransform="translate(63.0085 60.4817) rotate(-81.3844) scale(7.20115 5.81781)">
<stop offset="0.76" stop-opacity="0"/>
<stop offset="0.95" stop-opacity="0.5"/>
<stop offset="1"/>
</radialGradient>
<radialGradient id="paint11_radial" cx="0" cy="0" r="1" gradientUnits="userSpaceOnUse" gradientTransform="translate(60.8268 52.917) rotate(92.2906) scale(10.1717 21.6637)">
<stop stop-color="#35C1F1"/>
<stop offset="0.11" stop-color="#34C1ED"/>
<stop offset="0.23" stop-color="#2FC2DF"/>
<stop offset="0.31" stop-color="#2BC3D2"/>
<stop offset="0.67" stop-color="#36C752"/>
</radialGradient>
<radialGradient id="paint12_radial" cx="0" cy="0" r="1" gradientUnits="userSpaceOnUse" gradientTransform="translate(71.3711 54.3393) rotate(73.7399) scale(4.88725 3.97431)">
<stop stop-color="#66EB6E"/>
<stop offset="1" stop-color="#66EB6E" stop-opacity="0"/>
</radialGradient>
</defs>
</svg>
