<svg width="103" height="103" viewBox="0 0 103 103" fill="none" xmlns="http://www.w3.org/2000/svg">
<path d="M51.4224 98.1923C25.5724 98.1923 4.61237 77.2423 4.61237 51.3823C4.61237 25.5223 25.5724 4.57227 51.4224 4.57227C77.2724 4.57227 98.2324 25.5323 98.2324 51.3823C98.2324 77.2323 77.2724 98.1923 51.4224 98.1923Z" fill="url(#paint0_linear)"/>
<path fill-rule="evenodd" clip-rule="evenodd" d="M97.3223 51.3822C97.3223 76.7322 76.7723 97.2822 51.4223 97.2822C26.0723 97.2822 5.52235 76.7322 5.52235 51.3822C5.52235 26.0322 26.0723 5.48219 51.4223 5.48219C76.7723 5.48219 97.3223 26.0322 97.3223 51.3822ZM51.4223 1.74219C78.8423 1.74219 101.062 23.9622 101.062 51.3822C101.062 78.8022 78.8323 101.022 51.4223 101.022C24.0023 101.022 1.78235 78.7922 1.78235 51.3822C1.78235 23.9622 24.0023 1.74219 51.4223 1.74219Z" fill="#F2F1F0"/>
<path fill-rule="evenodd" clip-rule="evenodd" d="M94.5123 51.3822C94.5123 75.1822 75.2223 94.4722 51.4223 94.4722C27.6223 94.4722 8.33235 75.1822 8.33235 51.3822C8.33235 27.5822 27.6223 8.29225 51.4223 8.29225C75.2223 8.29225 94.5123 27.5822 94.5123 51.3822ZM51.4223 4.55225C77.2823 4.55225 98.2523 25.5222 98.2523 51.3822C98.2523 77.2422 77.2823 98.2122 51.4223 98.2122C25.5623 98.2122 4.59235 77.2422 4.59235 51.3822C4.59235 25.5222 25.5523 4.55225 51.4223 4.55225Z" fill="#0078D4"/>
<path d="M33.6324 67.0723H26.5124V76.3723H33.6324V67.0723Z" fill="white"/>
<path d="M45.4624 60.8926H37.0224V76.3726H45.4624V60.8926Z" fill="#C3F1FF"/>
<path d="M58.3224 50.8926H49.0224V76.3726H58.3224V50.8926V50.8926Z" fill="#45CAF2"/>
<path d="M72.9224 40.4624H62.2224V76.3724H72.9224V40.4624Z" fill="#50E6FF"/>
<path d="M32.9324 28.1724H25.7224V35.3824H32.9324V28.1724Z" fill="url(#paint1_linear)"/>
<path d="M35.1023 27.9724L34.0923 26.9624L29.0023 32.0424L27.4823 30.5124L26.4623 31.5224L29.0023 34.0624L35.1023 27.9724Z" fill="#F2F1F0"/>
<path d="M32.9324 39.5425H25.7224V46.7525H32.9324V39.5425Z" fill="url(#paint2_linear)"/>
<path d="M35.1023 39.3425L34.0923 38.3325L29.0023 43.4125L27.4823 41.8825L26.4623 42.8925L29.0023 45.4325L35.1023 39.3425Z" fill="#F2F1F0"/>
<path opacity="0.8307" d="M55.4724 28.4424H38.8024C38.0724 28.4424 37.4924 29.0324 37.4924 29.7524C37.4924 30.4824 38.0824 31.0624 38.8024 31.0624H55.4624C56.1924 31.0624 56.7724 30.4724 56.7724 29.7524C56.7924 29.0224 56.1924 28.4424 55.4724 28.4424Z" fill="white"/>
<path opacity="0.8307" d="M55.4724 34.1323H38.8024C38.0724 34.1323 37.4924 34.7223 37.4924 35.4423C37.4924 36.1723 38.0824 36.7523 38.8024 36.7523H55.4624C56.1924 36.7523 56.7724 36.1623 56.7724 35.4423C56.7924 34.7323 56.1924 34.1323 55.4724 34.1323Z" fill="white"/>
<path opacity="0.8307" fill-rule="evenodd" clip-rule="evenodd" d="M38.8024 40.2725H47.1324C47.8624 40.2725 48.4424 40.8625 48.4424 41.5825C48.4424 42.3125 47.8524 42.8925 47.1324 42.8925H38.8024C38.0724 42.8925 37.4924 42.3025 37.4924 41.5825C37.4924 40.8625 38.0724 40.2725 38.8024 40.2725Z" fill="white"/>
<path opacity="0.2" fill-rule="evenodd" clip-rule="evenodd" d="M87.5524 60.4321C87.5524 66.3521 82.7524 71.1521 76.8324 71.1521C70.9124 71.1521 66.1124 66.3521 66.1124 60.4321C66.1124 54.5121 70.9024 49.7021 76.8224 49.7021C82.7524 49.7121 87.5524 54.5121 87.5524 60.4321Z" fill="#1F1D21"/>
<path fill-rule="evenodd" clip-rule="evenodd" d="M87.5524 58.4321C87.5524 64.3521 82.7524 69.1521 76.8324 69.1521C70.9124 69.1521 66.1124 64.3521 66.1124 58.4321C66.1124 52.5121 70.9024 47.7021 76.8224 47.7021C82.7524 47.7021 87.5524 52.5121 87.5524 58.4321Z" fill="white"/>
<path d="M82.6924 63.5622C82.3424 60.4722 79.7024 58.0522 76.4924 58.0522C73.3124 58.0522 70.6924 60.4222 70.2924 63.4922C70.2424 63.7022 70.2424 63.9422 70.2424 64.1522C70.3224 65.0222 70.9324 65.8722 72.0724 66.5222C74.5124 67.9222 78.4824 67.9222 80.8924 66.5222C82.0324 65.8622 82.6124 65.0222 82.6924 64.1522C82.7424 63.9522 82.7124 63.7422 82.6924 63.5622Z" fill="#002D4C"/>
<path d="M76.4924 57.1524C78.5624 57.1524 80.2524 55.4824 80.2524 53.4124C80.2524 51.3524 78.5724 49.6724 76.4924 49.6724C74.4224 49.6724 72.7324 51.3424 72.7324 53.4124C72.7424 55.4824 74.4224 57.1524 76.4924 57.1524Z" fill="#002D4C"/>
<defs>
<linearGradient id="paint0_linear" x1="49.6524" y1="-13.4107" x2="53.6352" y2="132.357" gradientUnits="userSpaceOnUse">
<stop stop-color="#00ABDE"/>
<stop offset="1" stop-color="#007ED8"/>
</linearGradient>
<linearGradient id="paint1_linear" x1="29.2561" y1="24.8389" x2="29.5332" y2="51.4385" gradientUnits="userSpaceOnUse">
<stop stop-color="#007ED8"/>
<stop offset="0.7065" stop-color="#002D4C"/>
</linearGradient>
<linearGradient id="paint2_linear" x1="29.2561" y1="36.2062" x2="29.5331" y2="62.8058" gradientUnits="userSpaceOnUse">
<stop stop-color="#007ED8"/>
<stop offset="0.7065" stop-color="#002D4C"/>
</linearGradient>
</defs>
</svg>
