<svg width="100" height="100" viewBox="0 0 100 100" fill="none" xmlns="http://www.w3.org/2000/svg">
<g clip-path="url(#clip0_967_588)">
<path d="M49.6401 96.45C40.382 96.45 31.3317 93.7047 23.6339 88.5611C15.936 83.4176 9.93624 76.1068 6.3933 67.5534C2.85036 59 1.92337 49.5881 3.72954 40.5078C5.53571 31.4276 9.99394 23.0868 16.5404 16.5403C23.0869 9.99384 31.4277 5.53562 40.5079 3.72945C49.5882 1.92327 59.0001 2.85027 67.5535 6.39321C76.1069 9.93614 83.4176 15.9359 88.5612 23.6338C93.7047 31.3316 96.4501 40.3819 96.4501 49.64C96.4505 55.7873 95.24 61.8745 92.8878 67.5539C90.5355 73.2334 87.0875 78.3938 82.7407 82.7406C78.3939 87.0874 73.2335 90.5354 67.554 92.8877C61.8746 95.2399 55.7874 96.4504 49.6401 96.45V96.45Z" fill="url(#paint0_linear_967_588)"/>
<path fill-rule="evenodd" clip-rule="evenodd" d="M95.54 49.64C95.54 58.7182 92.848 67.5925 87.8045 75.1407C82.7609 82.6889 75.5923 88.572 67.2052 92.0461C58.818 95.5201 49.5891 96.4291 40.6854 94.658C31.7816 92.887 23.603 88.5154 17.1838 82.0962C10.7646 75.677 6.39302 67.4984 4.62196 58.5946C2.85089 49.6909 3.75987 40.462 7.23393 32.0748C10.708 23.6877 16.5911 16.5191 24.1393 11.4755C31.6875 6.43199 40.5618 3.74 49.64 3.74C55.6677 3.73998 61.6363 4.9272 67.2052 7.23388C72.774 9.54057 77.834 12.9215 82.0963 17.1837C86.3585 21.446 89.7394 26.5059 92.0461 32.0748C94.3528 37.6437 95.54 43.6123 95.54 49.64V49.64ZM49.64 3.62732e-07C59.4579 3.62732e-07 69.0553 2.91134 77.2185 8.36585C85.3818 13.8204 91.7442 21.5731 95.5014 30.6436C99.2585 39.7141 100.242 49.6951 98.3262 59.3243C96.4108 68.9535 91.6831 77.7985 84.7408 84.7408C77.7985 91.6831 68.9535 96.4108 59.3243 98.3262C49.6951 100.242 39.7141 99.2585 30.6436 95.5014C21.5731 91.7442 13.8204 85.3818 8.36585 77.2185C2.91134 69.0553 3.62732e-07 59.4579 3.62732e-07 49.64C-0.000787738 43.121 1.28265 36.6656 3.77702 30.6427C6.27138 24.6197 9.9278 19.1471 14.5375 14.5375C19.1471 9.9278 24.6197 6.27138 30.6427 3.77702C36.6656 1.28265 43.121 -0.000787738 49.64 3.62732e-07V3.62732e-07Z" fill="#F2F1F0"/>
<path fill-rule="evenodd" clip-rule="evenodd" d="M92.7296 49.6401C92.7296 58.1625 90.2024 66.4935 85.4676 73.5796C80.7328 80.6657 74.0031 86.1887 66.1294 89.4501C58.2557 92.7114 49.5918 93.5648 41.2331 91.9021C32.8745 90.2395 25.1966 86.1356 19.1703 80.1093C13.1441 74.0831 9.04017 66.4052 7.37753 58.0465C5.7149 49.6879 6.56822 41.0239 9.8296 33.1503C13.091 25.2766 18.6139 18.5469 25.7 13.8121C32.7862 9.07727 41.1172 6.55009 49.6396 6.55009C55.2983 6.54974 60.9017 7.66407 66.1298 9.82942C71.3579 11.9948 76.1082 15.1687 80.1096 19.1701C84.1109 23.1714 87.2849 27.9218 89.4502 33.1499C91.6156 38.3779 92.7299 43.9813 92.7296 49.6401V49.6401ZM49.6396 2.81009C58.9017 2.81009 67.9558 5.55662 75.6569 10.7024C83.3581 15.8481 89.3604 23.162 92.9049 31.719C96.4493 40.2761 97.3767 49.692 95.5697 58.7762C93.7628 67.8603 89.3027 76.2046 82.7534 82.7539C76.2041 89.3032 67.8598 93.7633 58.7757 95.5703C49.6915 97.3772 40.2756 96.4498 31.7185 92.9054C23.1614 89.3609 15.8476 83.3586 10.7018 75.6574C5.5561 67.9563 2.80957 58.9022 2.80957 49.6401C2.81076 37.2204 7.745 25.3097 16.5271 16.5276C25.3091 7.7455 37.2198 2.81125 49.6396 2.81006V2.81009Z" fill="#0078D4"/>
<path fill-rule="evenodd" clip-rule="evenodd" d="M92.7637 49.6401C92.7637 58.1625 90.2366 66.4935 85.5018 73.5796C80.767 80.6657 74.0372 86.1887 66.1636 89.4501C58.2899 92.7114 49.6259 93.5648 41.2673 91.9021C32.9087 90.2395 25.2308 86.1356 19.2045 80.1093C13.1783 74.0831 9.07435 66.4052 7.41171 58.0465C5.74908 49.6879 6.6024 41.0239 9.86378 33.1503C13.1252 25.2766 18.6481 18.5469 25.7342 13.8121C32.8203 9.07727 41.1514 6.55009 49.6738 6.55009C55.3325 6.54974 60.9359 7.66407 66.164 9.82942C71.3921 11.9948 76.1424 15.1687 80.1437 19.1701C84.1451 23.1714 87.3191 27.9218 89.4844 33.1499C91.6498 38.3779 92.7641 43.9813 92.7637 49.6401V49.6401ZM49.6738 2.81009C58.9359 2.81009 67.9899 5.55662 75.6911 10.7024C83.3923 15.8481 89.3946 23.162 92.939 31.719C96.4835 40.2761 97.4109 49.692 95.6039 58.7762C93.797 67.8603 89.3369 76.2046 82.7876 82.7539C76.2383 89.3032 67.894 93.7633 58.8098 95.5703C49.7257 97.3772 40.3097 96.4498 31.7527 92.9054C23.1956 89.3609 15.8818 83.3586 10.736 75.6574C5.59028 67.9563 2.84375 58.9022 2.84375 49.6401C2.84494 37.2204 7.77918 25.3097 16.5612 16.5276C25.3433 7.7455 37.254 2.81125 49.6738 2.81006V2.81009Z" fill="#0078D4"/>
<g opacity="0.6">
<path opacity="0.2" d="M35.0109 43.8016H14.6738C14.3997 43.8016 14.1368 43.9105 13.9429 44.1043C13.7491 44.2982 13.6401 44.5611 13.6401 44.8352V65.1737C13.6401 65.4478 13.7491 65.7108 13.9429 65.9046C14.1368 66.0985 14.3997 66.2074 14.6738 66.2074H35.0109C35.1467 66.2074 35.2811 66.1806 35.4065 66.1287C35.5319 66.0767 35.6459 66.0006 35.7419 65.9046C35.8378 65.8086 35.914 65.6947 35.9659 65.5693C36.0179 65.4439 36.0446 65.3094 36.0446 65.1737V44.8352C36.0446 44.5611 35.9357 44.2982 35.7419 44.1043C35.548 43.9105 35.2851 43.8016 35.0109 43.8016Z" fill="#003067"/>
<path opacity="0.6" d="M35.0109 42.7017H14.6738C14.1029 42.7017 13.6401 43.1645 13.6401 43.7354V64.0738C13.6401 64.6447 14.1029 65.1075 14.6738 65.1075H35.0109C35.5818 65.1075 36.0446 64.6447 36.0446 64.0738V43.7354C36.0446 43.1645 35.5818 42.7017 35.0109 42.7017Z" fill="url(#paint1_linear_967_588)"/>
<path opacity="0.6" d="M24.2337 53.2955H15.7087V44.7705H24.2337V53.2955ZM33.9765 53.2955H25.4515V44.7705H33.9765V53.2955ZM24.2337 63.0383H15.7087V54.5133H24.2337V63.0383ZM33.9765 63.0383H25.4515V54.5133H33.9765V63.0383Z" fill="#C3F1FF"/>
</g>
<path opacity="0.2" d="M59.7422 43.8016H39.405C39.1309 43.8016 38.868 43.9105 38.6741 44.1043C38.4803 44.2982 38.3713 44.5611 38.3713 44.8352V65.1737C38.3713 65.4478 38.4803 65.7108 38.6741 65.9046C38.868 66.0985 39.1309 66.2074 39.405 66.2074H59.7422C59.8779 66.2074 60.0123 66.1806 60.1377 66.1287C60.2632 66.0767 60.3771 66.0006 60.4731 65.9046C60.5691 65.8086 60.6452 65.6947 60.6972 65.5693C60.7491 65.4439 60.7758 65.3094 60.7758 65.1737V44.8352C60.7758 44.6995 60.7491 44.5651 60.6972 44.4397C60.6452 44.3142 60.5691 44.2003 60.4731 44.1043C60.3771 44.0083 60.2632 43.9322 60.1377 43.8802C60.0123 43.8283 59.8779 43.8016 59.7422 43.8016Z" fill="#003067"/>
<path d="M59.7424 42.7017H39.4053C38.8344 42.7017 38.3716 43.1645 38.3716 43.7354V64.0738C38.3716 64.6447 38.8344 65.1075 39.4053 65.1075H59.7424C60.3133 65.1075 60.7761 64.6447 60.7761 64.0738V43.7354C60.7761 43.1645 60.3133 42.7017 59.7424 42.7017Z" fill="url(#paint2_linear_967_588)"/>
<path d="M48.9649 53.2955H40.4399V44.7705H48.9649V53.2955ZM58.7077 53.2955H50.1827V44.7705H58.7077V53.2955ZM48.9649 63.0383H40.4399V54.5133H48.9649V63.0383ZM58.7077 63.0383H50.1827V54.5133H58.7077V63.0383Z" fill="#C3F1FF"/>
<g opacity="0.2">
<path opacity="0.2" d="M84.4734 43.8016H64.1362C63.8621 43.8016 63.5992 43.9105 63.4053 44.1043C63.2115 44.2982 63.1025 44.5611 63.1025 44.8352V65.1737C63.1025 65.4478 63.2115 65.7108 63.4053 65.9046C63.5992 66.0985 63.8621 66.2074 64.1362 66.2074H84.4734C84.6091 66.2074 84.7435 66.1806 84.8689 66.1287C84.9944 66.0767 85.1083 66.0006 85.2043 65.9046C85.3003 65.8086 85.3764 65.6947 85.4284 65.5693C85.4803 65.4439 85.5071 65.3094 85.5071 65.1737V44.8352C85.5071 44.5611 85.3982 44.2982 85.2043 44.1043C85.0104 43.9105 84.7475 43.8016 84.4734 43.8016Z" fill="#003067"/>
<path opacity="0.2" d="M84.4733 42.7017H64.1362C63.5653 42.7017 63.1025 43.1645 63.1025 43.7354V64.0738C63.1025 64.6447 63.5653 65.1075 64.1362 65.1075H84.4733C85.0442 65.1075 85.507 64.6447 85.507 64.0738V43.7354C85.507 43.1645 85.0442 42.7017 84.4733 42.7017Z" fill="url(#paint3_linear_967_588)"/>
<path opacity="0.2" d="M73.6961 53.2955H65.1711V44.7705H73.6961V53.2955ZM83.4389 53.2955H74.9139V44.7705H83.4389V53.2955ZM73.6961 63.0383H65.1711V54.5133H73.6961V63.0383ZM83.4389 63.0383H74.9139V54.5133H83.4389V63.0383Z" fill="#C3F1FF"/>
</g>
<path d="M49.6396 31.193C48.0723 31.193 46.5401 30.7283 45.237 29.8575C43.9338 28.9868 42.9181 27.7491 42.3183 26.3011C41.7185 24.8531 41.5616 23.2598 41.8674 21.7226C42.1731 20.1854 42.9278 18.7734 44.0361 17.6652C45.1443 16.5569 46.5563 15.8022 48.0935 15.4964C49.6307 15.1906 51.224 15.3476 52.6721 15.9473C54.1201 16.5471 55.3577 17.5628 56.2284 18.866C57.0992 20.1691 57.5639 21.7013 57.5639 23.2686C57.5616 25.3695 56.7259 27.3837 55.2403 28.8693C53.7547 30.355 51.7405 31.1906 49.6396 31.193V31.193ZM49.6396 17.7887C48.5557 17.7887 47.4963 18.1101 46.5951 18.7122C45.6939 19.3144 44.9916 20.1702 44.5768 21.1715C44.1621 22.1728 44.0535 23.2747 44.265 24.3376C44.4764 25.4006 44.9983 26.3771 45.7647 27.1434C46.5311 27.9098 47.5075 28.4317 48.5705 28.6432C49.6335 28.8546 50.7353 28.7461 51.7366 28.3313C52.7379 27.9166 53.5938 27.2142 54.1959 26.313C54.7981 25.4119 55.1194 24.3524 55.1194 23.2686C55.1177 21.8157 54.5398 20.4229 53.5125 19.3956C52.4852 18.3683 51.0924 17.7904 49.6396 17.7887V17.7887Z" fill="#003067"/>
<path d="M58.9084 33.7602C58.7478 33.7605 58.5888 33.729 58.4405 33.6675C58.2922 33.606 58.1576 33.5158 58.0443 33.402L53.5146 28.8723C53.2866 28.6429 53.1589 28.3324 53.1594 28.009C53.1599 27.6856 53.2887 27.3756 53.5173 27.1469C53.746 26.9182 54.056 26.7895 54.3795 26.789C54.7029 26.7885 55.0133 26.9162 55.2427 27.1441L59.7725 31.6739C59.9433 31.8448 60.0597 32.0626 60.1068 32.2996C60.1539 32.5366 60.1297 32.7823 60.0372 33.0056C59.9448 33.2289 59.7882 33.4198 59.5872 33.5541C59.3863 33.6884 59.1501 33.7601 58.9084 33.7602V33.7602Z" fill="#003067"/>
<path opacity="0.6" d="M49.6395 28.7484C52.666 28.7484 55.1194 26.295 55.1194 23.2686C55.1194 20.2421 52.666 17.7887 49.6395 17.7887C46.6131 17.7887 44.1597 20.2421 44.1597 23.2686C44.1597 26.295 46.6131 28.7484 49.6395 28.7484Z" fill="white"/>
<path d="M49.6396 32.7416V35.0104C49.6396 35.5452 49.4272 36.0581 49.049 36.4362C48.6709 36.8144 48.158 37.0268 47.6232 37.0268H26.9249C26.6601 37.0268 26.3979 37.079 26.1533 37.1803C25.9086 37.2817 25.6863 37.4302 25.4991 37.6175C25.3118 37.8047 25.1633 38.027 25.0619 38.2717C24.9606 38.5163 24.9084 38.7785 24.9084 39.0433V40.1268" stroke="#F3F3F3" stroke-width="0.5" stroke-miterlimit="10"/>
<path d="M49.6396 32.7416V35.0104C49.6396 35.5452 49.8521 36.0581 50.2303 36.4362C50.6084 36.8144 51.1213 37.0268 51.6561 37.0268H72.3544C72.6192 37.0268 72.8814 37.079 73.126 37.1803C73.3707 37.2817 73.593 37.4302 73.7802 37.6175C73.9675 37.8047 74.116 38.027 74.2174 38.2717C74.3187 38.5163 74.3709 38.7785 74.3708 39.0433V40.1268" stroke="#F3F3F3" stroke-width="0.5" stroke-miterlimit="10"/>
<path d="M49.6396 35.0103V40.1268" stroke="#F3F3F3" stroke-width="0.5" stroke-miterlimit="10"/>
<path fill-rule="evenodd" clip-rule="evenodd" d="M49.5508 80.3154C48.4103 80.3154 47.2954 79.9773 46.3471 79.3436C45.3987 78.71 44.6596 77.8094 44.2231 76.7556C43.7867 75.7019 43.6725 74.5425 43.895 73.4239C44.1175 72.3052 44.6667 71.2777 45.4732 70.4713C46.2796 69.6648 47.3072 69.1156 48.4258 68.8931C49.5444 68.6705 50.7039 68.7848 51.7576 69.2212C52.8113 69.6577 53.7119 70.3968 54.3455 71.3451C54.9792 72.2934 55.3174 73.4084 55.3174 74.5489C55.3173 76.0783 54.7098 77.545 53.6284 78.6264C52.5469 79.7078 51.0802 80.3154 49.5508 80.3154V80.3154Z" fill="white"/>
<path fill-rule="evenodd" clip-rule="evenodd" d="M52.2 72.9493C52.0648 72.8141 51.8813 72.7382 51.69 72.7382C51.4988 72.7382 51.3153 72.8141 51.18 72.9493L48.8024 75.3252L47.9436 74.4746C47.9235 74.4448 47.9008 74.4168 47.8758 74.391C47.7414 74.2565 47.5593 74.1805 47.3691 74.1797C47.179 74.1788 46.9962 74.2532 46.8606 74.3865C46.725 74.5199 46.6476 74.7014 46.6453 74.8915C46.643 75.0817 46.7159 75.265 46.8482 75.4017L46.8395 75.4103L48.2945 76.852C48.4299 76.9872 48.6134 77.0631 48.8047 77.0631C48.996 77.0631 49.1795 76.9872 49.3149 76.852L52.1979 73.9703L52.2 73.9686C52.267 73.9017 52.3201 73.8222 52.3564 73.7348C52.3926 73.6474 52.4113 73.5536 52.4113 73.459C52.4113 73.3643 52.3926 73.2706 52.3564 73.1831C52.3201 73.0957 52.267 73.0162 52.2 72.9493V72.9493Z" fill="#0078D4"/>
<path fill-rule="evenodd" clip-rule="evenodd" d="M74.3709 76.3471C73.5552 76.3471 72.7578 76.1052 72.0796 75.652C71.4013 75.1988 70.8727 74.5547 70.5605 73.8011C70.2484 73.0475 70.1667 72.2182 70.3258 71.4182C70.485 70.6181 70.8778 69.8832 71.4546 69.3064C72.0314 68.7296 72.7662 68.3368 73.5663 68.1777C74.3663 68.0186 75.1956 68.1003 75.9492 68.4124C76.7028 68.7246 77.3469 69.2532 77.8001 69.9314C78.2533 70.6097 78.4952 71.4071 78.4952 72.2228C78.4952 73.3166 78.0606 74.3656 77.2872 75.1391C76.5137 75.9125 75.4647 76.347 74.3709 76.3471V76.3471Z" fill="#0078D4"/>
<path fill-rule="evenodd" clip-rule="evenodd" d="M76.2654 71.0788C76.1687 70.9821 76.0374 70.9277 75.9006 70.9277C75.7638 70.9277 75.6326 70.9821 75.5359 71.0788L73.8354 72.778L73.2211 72.1696C73.2068 72.1483 73.1906 72.1283 73.1727 72.1099C73.0766 72.0134 72.9463 71.9588 72.8101 71.9581C72.674 71.9574 72.5431 72.0106 72.446 72.1061C72.3489 72.2015 72.2936 72.3315 72.292 72.4677C72.2905 72.6038 72.3429 72.735 72.4377 72.8327L72.4315 72.8389L73.4722 73.87C73.569 73.9667 73.7002 74.021 73.837 74.021C73.9739 74.021 74.1051 73.9667 74.2019 73.87L76.2639 71.809L76.2655 71.8078C76.3133 71.7599 76.3513 71.7031 76.3773 71.6405C76.4032 71.578 76.4165 71.511 76.4165 71.4433C76.4165 71.3756 76.4032 71.3085 76.3772 71.246C76.3513 71.1834 76.3133 71.1266 76.2654 71.0788V71.0788Z" fill="#1B93EB"/>
<path fill-rule="evenodd" clip-rule="evenodd" d="M24.9085 76.3471C24.0928 76.3471 23.2954 76.1052 22.6172 75.652C21.9389 75.1988 21.4103 74.5547 21.0981 73.8011C20.786 73.0475 20.7043 72.2182 20.8634 71.4182C21.0226 70.6181 21.4154 69.8832 21.9922 69.3064C22.569 68.7296 23.3038 68.3368 24.1039 68.1777C24.9039 68.0186 25.7332 68.1002 26.4868 68.4124C27.2404 68.7246 27.8845 69.2532 28.3377 69.9314C28.7909 70.6097 29.0328 71.4071 29.0328 72.2228C29.0328 73.3166 28.5982 74.3656 27.8248 75.1391C27.0514 75.9125 26.0023 76.347 24.9085 76.3471V76.3471Z" fill="#0078D4"/>
<path fill-rule="evenodd" clip-rule="evenodd" d="M26.8031 71.0788C26.7064 70.9821 26.5752 70.9277 26.4383 70.9277C26.3015 70.9277 26.1703 70.9821 26.0736 71.0788L24.3731 72.778L23.7588 72.1696C23.7445 72.1483 23.7283 72.1283 23.7104 72.1099C23.6142 72.0137 23.484 71.9593 23.348 71.9588C23.212 71.9582 23.0813 72.0113 22.9843 72.1067C22.8874 72.2021 22.832 72.3319 22.8304 72.4678C22.8287 72.6038 22.8808 72.735 22.9754 72.8327L22.9692 72.8389L24.0099 73.87C24.1067 73.9667 24.2379 74.021 24.3747 74.021C24.5116 74.021 24.6428 73.9667 24.7396 73.87L26.8016 71.809L26.8031 71.8078C26.851 71.7599 26.889 71.7031 26.9149 71.6405C26.9408 71.578 26.9542 71.511 26.9542 71.4433C26.9542 71.3756 26.9408 71.3085 26.9149 71.246C26.889 71.1834 26.851 71.1266 26.8031 71.0788V71.0788Z" fill="#1B93EB"/>
</g>
<defs>
<linearGradient id="paint0_linear_967_588" x1="47.8697" y1="-15.1531" x2="51.8525" y2="130.615" gradientUnits="userSpaceOnUse">
<stop stop-color="#00ABDE"/>
<stop offset="1" stop-color="#007ED8"/>
</linearGradient>
<linearGradient id="paint1_linear_967_588" x1="24.8424" y1="65.1075" x2="24.8424" y2="42.7017" gradientUnits="userSpaceOnUse">
<stop stop-color="#004DAE"/>
<stop offset="0.21" stop-color="#0061C4"/>
<stop offset="0.51" stop-color="#0078DD"/>
<stop offset="0.78" stop-color="#0086EC"/>
<stop offset="1" stop-color="#008BF1"/>
</linearGradient>
<linearGradient id="paint2_linear_967_588" x1="49.5738" y1="65.1075" x2="49.5738" y2="42.7017" gradientUnits="userSpaceOnUse">
<stop stop-color="#004DAE"/>
<stop offset="0.21" stop-color="#0061C4"/>
<stop offset="0.51" stop-color="#0078DD"/>
<stop offset="0.78" stop-color="#0086EC"/>
<stop offset="1" stop-color="#008BF1"/>
</linearGradient>
<linearGradient id="paint3_linear_967_588" x1="74.3048" y1="65.1075" x2="74.3048" y2="42.7017" gradientUnits="userSpaceOnUse">
<stop stop-color="#004DAE"/>
<stop offset="0.21" stop-color="#0061C4"/>
<stop offset="0.51" stop-color="#0078DD"/>
<stop offset="0.78" stop-color="#0086EC"/>
<stop offset="1" stop-color="#008BF1"/>
</linearGradient>
<clipPath id="clip0_967_588">
<rect width="99.2799" height="99.28" fill="white"/>
</clipPath>
</defs>
</svg>
