<svg width="103" height="102" viewBox="0 0 103 102" fill="none" xmlns="http://www.w3.org/2000/svg">
<path d="M51.2177 97.8099C25.3677 97.8099 4.40771 76.8599 4.40771 50.9999C4.40771 25.1399 25.3677 4.18994 51.2177 4.18994C77.0677 4.18994 98.0277 25.1499 98.0277 50.9999C98.0277 76.8499 77.0677 97.8099 51.2177 97.8099Z" fill="url(#paint0_linear_851_61138)"/>
<path fill-rule="evenodd" clip-rule="evenodd" d="M97.1176 51.0001C97.1176 76.3501 76.5676 96.9001 51.2176 96.9001C25.8676 96.9001 5.31764 76.3501 5.31764 51.0001C5.31764 25.6501 25.8676 5.10011 51.2176 5.10011C76.5676 5.10011 97.1176 25.6501 97.1176 51.0001ZM51.2176 1.36011C78.6376 1.36011 100.858 23.5801 100.858 51.0001C100.858 78.4201 78.6276 100.64 51.2176 100.64C23.7976 100.64 1.57764 78.4101 1.57764 51.0001C1.57764 23.5801 23.7976 1.36011 51.2176 1.36011Z" fill="#F2F1F0"/>
<path fill-rule="evenodd" clip-rule="evenodd" d="M94.3077 50.9999C94.3077 74.7999 75.0177 94.0899 51.2177 94.0899C27.4177 94.0899 8.1277 74.7999 8.1277 50.9999C8.1277 27.1999 27.4177 7.90993 51.2177 7.90993C75.0177 7.90993 94.3077 27.1999 94.3077 50.9999ZM51.2177 4.16992C77.0777 4.16992 98.0477 25.1399 98.0477 50.9999C98.0477 76.8599 77.0777 97.8299 51.2177 97.8299C25.3577 97.8299 4.3877 76.8599 4.3877 50.9999C4.3877 25.1399 25.3477 4.16992 51.2177 4.16992Z" fill="url(#paint1_linear_851_61138)"/>
<path opacity="0.15" d="M83.9891 28.3946H72.2454C71.9018 28.3946 71.5726 28.5311 71.3297 28.7741C71.0868 29.017 70.9502 29.3462 70.9502 29.6898V36.8521C70.9502 37.1957 71.0868 37.5249 71.3297 37.7678C71.5726 38.0108 71.9018 38.1473 72.2454 38.1473H83.9988C84.1693 38.1486 84.3382 38.1162 84.496 38.0515C84.6537 37.9869 84.7968 37.8916 84.9173 37.7711C85.0379 37.6506 85.1331 37.507 85.1978 37.3493C85.2624 37.1916 85.2953 37.0226 85.294 36.8521V29.6707C85.289 29.3288 85.1492 29.0029 84.9048 28.7638C84.6603 28.5247 84.331 28.392 83.9891 28.3946V28.3946Z" fill="#1F1D20"/>
<path opacity="0.15" d="M83.9891 52.3284H72.2454C71.9018 52.3284 71.5726 52.4649 71.3297 52.7079C71.0868 52.9508 70.9502 53.28 70.9502 53.6236V60.8241C70.9502 61.1676 71.0868 61.4973 71.3297 61.7402C71.5726 61.9832 71.9018 62.1193 72.2454 62.1193H83.9988C84.3424 62.1193 84.6716 61.9832 84.9145 61.7402C85.1574 61.4973 85.294 61.1676 85.294 60.8241V53.6426C85.2953 53.4705 85.2623 53.2998 85.1973 53.1404C85.1323 52.981 85.0363 52.8361 84.915 52.7139C84.7937 52.5917 84.6498 52.495 84.4909 52.4288C84.3319 52.3627 84.1612 52.3284 83.9891 52.3284V52.3284Z" fill="#1F1D20"/>
<path opacity="0.15" d="M83.9891 40.3372H72.2454C71.9018 40.3372 71.5726 40.4733 71.3297 40.7162C71.0868 40.9591 70.9502 41.2888 70.9502 41.6324V48.8231C70.9502 49.1667 71.0868 49.4964 71.3297 49.7393C71.5726 49.9822 71.9018 50.1188 72.2454 50.1188H83.9988C84.1693 50.1201 84.3382 50.0872 84.496 50.0225C84.6537 49.9579 84.7968 49.8626 84.9173 49.7421C85.0379 49.6216 85.1331 49.478 85.1978 49.3203C85.2624 49.1626 85.2953 48.9936 85.294 48.8231V41.6133C85.289 41.2714 85.1492 40.9455 84.9048 40.7065C84.6603 40.4674 84.331 40.3346 83.9891 40.3372V40.3372Z" fill="#1F1D20"/>
<path opacity="0.15" d="M83.9891 64.2729H72.2454C71.9018 64.2729 71.5726 64.4095 71.3297 64.6524C71.0868 64.8954 70.9502 65.2246 70.9502 65.5681V72.7687C70.9502 73.1122 71.0868 73.4419 71.3297 73.6848C71.5726 73.9277 71.9018 74.0638 72.2454 74.0638H83.9988C84.3424 74.0638 84.6716 73.9277 84.9145 73.6848C85.1574 73.4419 85.294 73.1122 85.294 72.7687V65.5779C85.294 65.2318 85.1564 64.8999 84.9117 64.6552C84.667 64.4105 84.3351 64.2729 83.9891 64.2729V64.2729Z" fill="#1F1D20"/>
<path d="M77.56 55.9004H64.1592V56.8528H77.56V55.9004Z" fill="white"/>
<path d="M77.56 44.0911H64.1592V45.0435H77.56V44.0911Z" fill="white"/>
<path d="M77.56 68.6545H64.1593C64.033 68.6545 63.9119 68.6043 63.8226 68.5149C63.7333 68.4256 63.6831 68.3045 63.6831 68.1782V32.7379C63.6831 32.6116 63.7333 32.4905 63.8226 32.4012C63.9119 32.3119 64.033 32.2617 64.1593 32.2617H77.56V33.2142H64.6355V67.702H77.56V68.6545Z" fill="white"/>
<path d="M83.9891 27.5374H72.2454C71.9018 27.5374 71.5726 27.6735 71.3297 27.9164C71.0868 28.1593 70.9502 28.489 70.9502 28.8325V36.0233C70.9502 36.3668 71.0868 36.6965 71.3297 36.9395C71.5726 37.1824 71.9018 37.3189 72.2454 37.3189H83.9988C84.1693 37.3202 84.3382 37.2873 84.496 37.2227C84.6537 37.158 84.7968 37.0628 84.9173 36.9422C85.0379 36.8217 85.1331 36.6782 85.1978 36.5204C85.2624 36.3627 85.2953 36.1937 85.294 36.0233V28.8418C85.294 28.4958 85.1564 28.1639 84.9117 27.9192C84.667 27.6745 84.3351 27.5374 83.9891 27.5374V27.5374Z" fill="#0273D6"/>
<path d="M83.9891 51.4729H72.2454C71.9018 51.4729 71.5726 51.6095 71.3297 51.8524C71.0868 52.0953 70.9502 52.4246 70.9502 52.7681V59.9686C70.9502 60.3121 71.0868 60.6414 71.3297 60.8843C71.5726 61.1272 71.9018 61.2638 72.2454 61.2638H83.9988C84.3424 61.2638 84.6716 61.1272 84.9145 60.8843C85.1574 60.6414 85.294 60.3121 85.294 59.9686V52.7872C85.2953 52.615 85.2623 52.4443 85.1973 52.2849C85.1323 52.1255 85.0363 51.9806 84.915 51.8584C84.7937 51.7363 84.6498 51.6391 84.4909 51.5729C84.3319 51.5067 84.1612 51.4729 83.9891 51.4729V51.4729Z" fill="#14447D"/>
<path d="M83.9891 39.4912H72.2454C71.9018 39.4912 71.5726 39.6278 71.3297 39.8707C71.0868 40.1137 70.9502 40.4429 70.9502 40.7864V47.9776C70.9502 48.3212 71.0868 48.6504 71.3297 48.8933C71.5726 49.1363 71.9018 49.2728 72.2454 49.2728H83.9988C84.1693 49.2741 84.3382 49.2412 84.496 49.1766C84.6537 49.1119 84.7968 49.0167 84.9173 48.8961C85.0379 48.7756 85.1331 48.6325 85.1978 48.4748C85.2624 48.3171 85.2953 48.1481 85.294 47.9776V40.7864C85.294 40.6155 85.2602 40.4466 85.1945 40.2888C85.1288 40.131 85.0326 39.9874 84.9113 39.867C84.79 39.7466 84.6459 39.6516 84.4876 39.587C84.3293 39.5225 84.16 39.49 83.9891 39.4912Z" fill="#0364B8"/>
<path d="M83.9891 63.4248H72.2454C71.9018 63.4248 71.5726 63.5614 71.3297 63.8043C71.0868 64.0472 70.9502 64.3765 70.9502 64.72V71.9205C70.9502 72.264 71.0868 72.5938 71.3297 72.8367C71.5726 73.0796 71.9018 73.2162 72.2454 73.2162H83.9988C84.3424 73.2162 84.6716 73.0796 84.9145 72.8367C85.1574 72.5938 85.294 72.264 85.294 71.9205V64.7298C85.294 64.3837 85.1564 64.0518 84.9117 63.8071C84.667 63.5624 84.3351 63.4248 83.9891 63.4248V63.4248Z" fill="#0F335E"/>
<path d="M64.2069 50.3298H51.9775V51.2823H64.2069V50.3298Z" fill="white"/>
<path opacity="0.15" d="M66.2316 25.1738H25.9205C25.0504 25.1738 24.3472 25.8771 24.3472 26.7472V79.3471C24.3472 80.2172 25.0504 80.9204 25.9205 80.9204H66.2316C67.1017 80.9204 67.805 80.2172 67.805 79.3471V26.7472C67.7931 25.8771 67.0898 25.1738 66.2316 25.1738Z" fill="#1F1D20"/>
<g filter="url(#filter0_d_851_61138)">
<path d="M66.2316 23.2307H25.9205C25.0504 23.2307 24.3472 23.934 24.3472 24.8041V77.404C24.3472 78.2741 25.0504 78.9773 25.9205 78.9773H66.2316C67.1017 78.9773 67.805 78.2741 67.805 77.404V24.8041C67.7931 23.934 67.0898 23.2307 66.2316 23.2307Z" fill="#F2F2F2"/>
</g>
<path opacity="0.15" d="M62.4176 73.7836C62.9685 73.7836 63.4126 73.3395 63.4126 72.7885V39.96H28.7349V72.7928C28.7349 73.3437 29.179 73.7879 29.7299 73.7879H62.4176V73.7836Z" fill="#1F1D20"/>
<g filter="url(#filter1_d_851_61138)">
<path d="M63.4084 27.9041V27.3659C63.4084 26.6997 62.8703 26.1616 62.2041 26.1616H29.9392C29.273 26.1616 28.7349 26.6997 28.7349 27.3659V27.9638V28.5105V71.7384C28.7349 72.4046 29.273 72.9427 29.9392 72.9427H62.2126C62.8788 72.9427 63.4169 72.4046 63.4169 71.7384V27.9638C63.4169 27.9425 63.4084 27.9254 63.4084 27.9041Z" fill="white"/>
</g>
<path opacity="0.15" fill-rule="evenodd" clip-rule="evenodd" d="M48.7934 17.053C50.3072 17.8516 51.2011 19.4726 51.2011 21.1771V21.5942C51.2011 21.7492 51.1892 21.8922 51.1773 22.0472H54.4551C55.4325 22.0472 56.3503 22.5359 56.839 23.3821C58.2216 25.8018 56.5172 28.2691 54.2286 28.2691H37.6966C36.7192 28.2691 35.8014 27.7804 35.3127 26.9341C33.9301 24.5145 35.6345 22.0472 37.923 22.0472H40.9744C40.9624 21.9042 40.9624 21.7492 40.9624 21.5942V21.4631C40.9624 17.7681 44.8839 14.9909 48.7934 17.053Z" fill="#1F1D20"/>
<path fill-rule="evenodd" clip-rule="evenodd" d="M48.7934 15.9841C50.3072 16.7827 51.2011 18.4038 51.2011 20.1082V20.5254C51.2011 20.6804 51.1892 20.8234 51.1773 20.9783H54.4551C55.4325 20.9783 56.3503 21.467 56.839 22.3133C58.2216 24.7329 56.5172 27.2002 54.2286 27.2002H37.6966C36.7192 27.2002 35.8014 26.7115 35.3127 25.8653C33.9301 23.4456 35.6345 20.9783 37.923 20.9783H40.9744C40.9624 20.8353 40.9624 20.6804 40.9624 20.5254V20.3943C40.9624 16.6993 44.8839 13.9221 48.7934 15.9841Z" fill="#092E4C"/>
<path d="M46.076 22.7907C47.2441 22.7907 48.1857 21.8491 48.1857 20.681C48.1857 19.5129 47.2441 18.5713 46.076 18.5713C44.9079 18.5713 43.9663 19.5129 43.9663 20.681C43.9663 21.8491 44.9079 22.7907 46.076 22.7907Z" fill="#01A2DD"/>
<path fill-rule="evenodd" clip-rule="evenodd" d="M55.6166 59.9287C55.6166 60.3939 55.4318 60.8399 55.1029 61.1688C54.774 61.4977 54.3279 61.6825 53.8628 61.6825H38.2718C37.8067 61.6825 37.3607 61.4977 37.0318 61.1688C36.7029 60.8399 36.5181 60.3939 36.5181 59.9287V46.9333H55.5552V59.9287H55.6166Z" fill="#30404D"/>
<path fill-rule="evenodd" clip-rule="evenodd" d="M55.6166 46.9318C55.6166 47.397 55.4318 47.843 55.1029 48.1719C54.774 48.5008 54.3279 48.6856 53.8628 48.6856H38.2718C37.8067 48.6856 37.3607 48.5008 37.0318 48.1719C36.7029 47.843 36.5181 47.397 36.5181 46.9318V45.1781C36.5181 44.713 36.7029 44.2668 37.0318 43.938C37.3607 43.6091 37.8067 43.4243 38.2718 43.4243H53.8628C54.3279 43.4243 54.774 43.6091 55.1029 43.938C55.4318 44.2668 55.6166 44.713 55.6166 45.1781V46.9318Z" fill="#546670"/>
<path fill-rule="evenodd" clip-rule="evenodd" d="M53.8892 49.1056H46.953C46.7204 49.1056 46.4975 49.198 46.333 49.3624C46.1686 49.5269 46.0761 49.7499 46.0761 49.9825V59.9351C46.0761 60.1677 45.9838 60.3907 45.8193 60.5552C45.6549 60.7196 45.4318 60.812 45.1992 60.812H38.2894C37.8243 60.812 37.3782 60.6272 37.0493 60.2983C36.7204 59.9694 36.5356 59.5234 36.5356 59.0582V59.9351C36.5356 60.4002 36.7204 60.8463 37.0493 61.1752C37.3782 61.5041 37.8243 61.6889 38.2894 61.6889H53.8804C54.3455 61.6889 54.7916 61.5041 55.1205 61.1752C55.4494 60.8463 55.6342 60.4002 55.6342 59.9351V47.3694C55.6296 47.83 55.444 48.2702 55.1175 48.5951C54.791 48.9199 54.3498 49.1033 53.8892 49.1056Z" fill="#182A37"/>
<path fill-rule="evenodd" clip-rule="evenodd" d="M46.0936 52.2627C45.5435 52.261 45.0051 52.4225 44.5469 52.7269C44.0886 53.0313 43.731 53.4648 43.5193 53.9726C43.3075 54.4804 43.2513 55.0395 43.3575 55.5793C43.4638 56.1191 43.7278 56.6152 44.1162 57.0048C44.5046 57.3945 44.9999 57.6601 45.5394 57.7681C46.0788 57.876 46.6381 57.8215 47.1466 57.6113C47.655 57.4012 48.0897 57.045 48.3955 56.5877C48.7014 56.1303 48.8646 55.5926 48.8646 55.0424C48.8646 54.3067 48.5729 53.601 48.0535 53.0799C47.5341 52.5589 46.8293 52.265 46.0936 52.2627V52.2627Z" fill="#50E6FF"/>
<path fill-rule="evenodd" clip-rule="evenodd" d="M42.1915 46.0836C42.2841 46.4353 42.265 46.8071 42.1369 47.1474C42.0089 47.4878 41.7782 47.7799 41.4768 47.9834C41.1754 48.1868 40.8183 48.2917 40.4548 48.2832C40.0912 48.2748 39.7393 48.1536 39.4477 47.9363C39.1561 47.7191 38.9392 47.4165 38.8271 47.0706C38.715 46.7247 38.7132 46.3525 38.822 46.0055C38.9307 45.6585 39.1446 45.3539 39.434 45.1338C39.7235 44.9137 40.0743 44.7891 40.4378 44.7771C41.3848 44.7771 42.1915 45.3558 42.1915 46.0836Z" fill="#182A37"/>
<path fill-rule="evenodd" clip-rule="evenodd" d="M53.4509 46.0834C53.388 46.4876 53.169 46.8509 52.8411 47.0952C52.5131 47.3396 52.1023 47.4454 51.6971 47.39C50.7501 47.39 49.9434 46.8112 49.9434 46.0834C50.0146 45.677 50.2268 45.3087 50.5428 45.0433C50.8588 44.7778 51.2581 44.6323 51.6708 44.6323C52.0834 44.6323 52.4829 44.7778 52.7989 45.0433C53.1149 45.3087 53.327 45.677 53.3982 46.0834H53.4509Z" fill="#182A37"/>
<path fill-rule="evenodd" clip-rule="evenodd" d="M46.015 33.4727C42.8845 33.4727 40.2275 34.9546 39.3681 37.6116C39.2761 37.8982 39.2058 38.1913 39.1577 38.4884C39.1051 38.8129 38.9209 39.8739 38.9209 40.2422C38.9205 40.3503 38.9449 40.457 38.992 40.5542C39.0391 40.6515 39.1078 40.7367 39.1928 40.8034C39.5622 40.9953 39.9694 41.1031 40.3853 41.1191C40.5527 41.1266 40.7199 41.0997 40.8764 41.0402C41.3412 40.8823 41.3938 40.5491 41.3938 40.1633L41.5603 39.7424C41.5603 37.2082 43.8929 35.8841 46.4622 36.1472C47.549 36.2913 48.5448 36.8304 49.2596 37.6617C49.9744 38.4929 50.3582 39.5582 50.3379 40.6543V45.6438C50.3379 46.1173 50.9167 46.5207 51.6445 46.5207C52.3723 46.5207 52.951 46.1348 52.951 45.6438V40.4527C52.9556 39.5384 52.7798 38.6323 52.4334 37.7862C52.087 36.9401 51.577 36.1708 50.9325 35.5223C50.2881 34.8738 49.5219 34.3589 48.678 34.0072C47.8342 33.6554 46.9292 33.4738 46.015 33.4727V33.4727Z" fill="#30404D"/>
<path fill-rule="evenodd" clip-rule="evenodd" d="M46.0498 33.4727H45.6113C47.3678 33.5819 49.0166 34.3565 50.2221 35.6386C51.4276 36.9207 52.0992 38.6139 52.1003 40.3738V44.9949C52.0975 45.1264 52.0653 45.2557 52.0059 45.373C51.9464 45.4904 51.8613 45.5928 51.7569 45.6728C51.6525 45.7528 51.5314 45.8083 51.4026 45.8352C51.2738 45.862 51.1406 45.8595 51.0129 45.8279C50.7761 45.7779 50.5522 45.6794 50.3553 45.5386V46.4154C50.725 46.713 51.1874 46.8712 51.6618 46.8627C52.1358 46.8683 52.5973 46.7103 52.9684 46.4154V40.3825C52.9661 38.5491 52.2361 36.7916 50.9389 35.496C49.6416 34.2004 47.8832 33.4727 46.0498 33.4727V33.4727Z" fill="#182A37"/>
<path fill-rule="evenodd" clip-rule="evenodd" d="M43.3668 36.3649C42.9492 36.5164 42.5659 36.7495 42.2392 37.0506C41.9125 37.3517 41.6489 37.7147 41.4639 38.1186L41.2009 39.0744C41.0518 39.6181 40.7624 39.9513 40.2538 40.0127C40.0332 40.0336 39.8106 40.0158 39.5962 39.9601C39.3734 39.913 39.1638 39.8171 38.9824 39.6795L38.9123 40.1881C38.9098 40.3005 38.9358 40.4117 38.9879 40.5114C39.0401 40.6111 39.1166 40.6959 39.2104 40.758C39.5773 40.9469 39.9817 41.0518 40.3941 41.065C40.5476 41.0643 40.7006 41.0467 40.8501 41.0123C40.8937 41.019 40.9381 41.019 40.9817 41.0123L41.0957 40.9597L41.2271 40.8633C41.3212 40.796 41.3918 40.7009 41.4289 40.5915L41.5078 40.2319C41.5604 39.9162 41.7533 38.8201 41.8498 38.4781C41.9001 38.2983 41.9707 38.1247 42.0602 37.9608C42.6828 36.777 44.0683 36.207 45.6642 36.0404C44.8836 35.9672 44.0966 36.0783 43.3668 36.3649V36.3649Z" fill="#182A37"/>
<path fill-rule="evenodd" clip-rule="evenodd" d="M38.3701 64.9514C37.6874 64.9514 37.134 65.5048 37.134 66.1875C37.134 66.8702 37.6874 67.4236 38.3701 67.4236H40.3356C41.0183 67.4236 41.5717 66.8702 41.5717 66.1875C41.5717 65.5048 41.0183 64.9514 40.3356 64.9514H38.3701ZM36.4268 66.1875C36.4268 65.1142 37.2968 64.2441 38.3701 64.2441H40.3356C41.4089 64.2441 42.2789 65.1142 42.2789 66.1875C42.2789 67.2608 41.4089 68.1308 40.3356 68.1308H38.3701C37.2968 68.1308 36.4268 67.2608 36.4268 66.1875Z" fill="#30404D"/>
<path fill-rule="evenodd" clip-rule="evenodd" d="M44.9219 64.9514C44.2392 64.9514 43.6858 65.5048 43.6858 66.1875C43.6858 66.8702 44.2392 67.4236 44.9219 67.4236H46.8873C47.57 67.4236 48.1235 66.8702 48.1235 66.1875C48.1235 65.5048 47.57 64.9514 46.8873 64.9514H44.9219ZM42.9785 66.1875C42.9785 65.1142 43.8486 64.2441 44.9219 64.2441H46.8873C47.9606 64.2441 48.8307 65.1142 48.8307 66.1875C48.8307 67.2608 47.9606 68.1308 46.8873 68.1308H44.9219C43.8486 68.1308 42.9785 67.2608 42.9785 66.1875Z" fill="#30404D"/>
<path fill-rule="evenodd" clip-rule="evenodd" d="M51.4741 64.9514C50.7914 64.9514 50.238 65.5048 50.238 66.1875C50.238 66.8702 50.7914 67.4236 51.4741 67.4236H53.4396C54.1223 67.4236 54.6757 66.8702 54.6757 66.1875C54.6757 65.5048 54.1223 64.9514 53.4396 64.9514H51.4741ZM49.5308 66.1875C49.5308 65.1142 50.4008 64.2441 51.4741 64.2441H53.4396C54.5129 64.2441 55.3829 65.1142 55.3829 66.1875C55.3829 67.2608 54.5129 68.1308 53.4396 68.1308H51.4741C50.4008 68.1308 49.5308 67.2608 49.5308 66.1875Z" fill="#30404D"/>
<path fill-rule="evenodd" clip-rule="evenodd" d="M40.7729 66.2738C40.7729 66.0785 40.9313 65.9202 41.1266 65.9202H44.1326C44.3279 65.9202 44.4862 66.0785 44.4862 66.2738C44.4862 66.4691 44.3279 66.6274 44.1326 66.6274H41.1266C40.9313 66.6274 40.7729 66.4691 40.7729 66.2738Z" fill="#30404D"/>
<path fill-rule="evenodd" clip-rule="evenodd" d="M47.3237 66.2738C47.3237 66.0785 47.4821 65.9202 47.6773 65.9202H50.6834C50.8787 65.9202 51.037 66.0785 51.037 66.2738C51.037 66.4691 50.8787 66.6274 50.6834 66.6274H47.6773C47.4821 66.6274 47.3237 66.4691 47.3237 66.2738Z" fill="#30404D"/>
<defs>
<filter id="filter0_d_851_61138" x="20.3472" y="21.2307" width="51.458" height="63.7466" filterUnits="userSpaceOnUse" color-interpolation-filters="sRGB">
<feFlood flood-opacity="0" result="BackgroundImageFix"/>
<feColorMatrix in="SourceAlpha" type="matrix" values="0 0 0 0 0 0 0 0 0 0 0 0 0 0 0 0 0 0 127 0" result="hardAlpha"/>
<feOffset dy="2"/>
<feGaussianBlur stdDeviation="2"/>
<feComposite in2="hardAlpha" operator="out"/>
<feColorMatrix type="matrix" values="0 0 0 0 0 0 0 0 0 0 0 0 0 0 0 0 0 0 0.25 0"/>
<feBlend mode="normal" in2="BackgroundImageFix" result="effect1_dropShadow_851_61138"/>
<feBlend mode="normal" in="SourceGraphic" in2="effect1_dropShadow_851_61138" result="shape"/>
</filter>
<filter id="filter1_d_851_61138" x="24.7349" y="23.1616" width="42.6821" height="54.781" filterUnits="userSpaceOnUse" color-interpolation-filters="sRGB">
<feFlood flood-opacity="0" result="BackgroundImageFix"/>
<feColorMatrix in="SourceAlpha" type="matrix" values="0 0 0 0 0 0 0 0 0 0 0 0 0 0 0 0 0 0 127 0" result="hardAlpha"/>
<feOffset dy="1"/>
<feGaussianBlur stdDeviation="2"/>
<feComposite in2="hardAlpha" operator="out"/>
<feColorMatrix type="matrix" values="0 0 0 0 0 0 0 0 0 0 0 0 0 0 0 0 0 0 0.25 0"/>
<feBlend mode="normal" in2="BackgroundImageFix" result="effect1_dropShadow_851_61138"/>
<feBlend mode="normal" in="SourceGraphic" in2="effect1_dropShadow_851_61138" result="shape"/>
</filter>
<linearGradient id="paint0_linear_851_61138" x1="49.4438" y1="-13.7896" x2="53.4258" y2="131.981" gradientUnits="userSpaceOnUse">
<stop stop-color="#00ABDE"/>
<stop offset="1" stop-color="#007ED8"/>
</linearGradient>
<linearGradient id="paint1_linear_851_61138" x1="2.6481" y1="-20.6227" x2="98.1756" y2="120.259" gradientUnits="userSpaceOnUse">
<stop stop-color="#007ED8"/>
<stop offset="0.7065" stop-color="#002D4C"/>
</linearGradient>
</defs>
</svg>
