<svg width="100" height="100" viewBox="0 0 100 100" fill="none" xmlns="https://www.w3.org/2000/svg">
<g clip-path="url(#clip0)">
<path d="M49.6401 96.4481C40.382 96.4481 31.3317 93.7028 23.6339 88.5592C15.936 83.4157 9.93624 76.105 6.3933 67.5516C2.85036 58.9981 1.92337 49.5862 3.72954 40.506C5.53571 31.4257 9.99394 23.085 16.5404 16.5385C23.0869 9.99198 31.4277 5.53376 40.5079 3.72759C49.5882 1.92141 59.0001 2.84841 67.5535 6.39135C76.1069 9.93428 83.4176 15.934 88.5612 23.6319C93.7047 31.3298 96.4501 40.38 96.4501 49.6381C96.4505 55.7854 95.24 61.8726 92.8878 67.5521C90.5355 73.2315 87.0875 78.392 82.7407 82.7388C78.3939 87.0856 73.2335 90.5335 67.554 92.8858C61.8746 95.2381 55.7874 96.4486 49.6401 96.4481V96.4481Z" fill="url(#paint0_linear)"/>
<path fill-rule="evenodd" clip-rule="evenodd" d="M95.54 49.64C95.54 58.7182 92.848 67.5925 87.8045 75.1407C82.7609 82.6889 75.5923 88.572 67.2052 92.0461C58.818 95.5201 49.5891 96.4291 40.6854 94.658C31.7816 92.887 23.603 88.5154 17.1838 82.0962C10.7646 75.677 6.39302 67.4984 4.62196 58.5946C2.85089 49.6909 3.75987 40.462 7.23393 32.0748C10.708 23.6877 16.5911 16.5191 24.1393 11.4755C31.6875 6.43199 40.5618 3.74 49.64 3.74C55.6677 3.73998 61.6363 4.9272 67.2052 7.23388C72.774 9.54057 77.834 12.9215 82.0963 17.1837C86.3585 21.446 89.7394 26.5059 92.0461 32.0748C94.3528 37.6437 95.54 43.6123 95.54 49.64V49.64ZM49.64 3.62732e-07C59.4579 3.62732e-07 69.0553 2.91134 77.2185 8.36585C85.3818 13.8204 91.7442 21.5731 95.5014 30.6436C99.2585 39.7141 100.242 49.6951 98.3262 59.3243C96.4108 68.9535 91.6831 77.7985 84.7408 84.7408C77.7985 91.6831 68.9535 96.4108 59.3243 98.3262C49.6951 100.242 39.7141 99.2585 30.6436 95.5014C21.5731 91.7442 13.8204 85.3818 8.36585 77.2185C2.91134 69.0553 3.62732e-07 59.4579 3.62732e-07 49.64C-0.000787738 43.121 1.28265 36.6656 3.77702 30.6427C6.27138 24.6197 9.9278 19.1471 14.5375 14.5375C19.1471 9.9278 24.6197 6.27138 30.6427 3.77702C36.6656 1.28265 43.121 -0.000787738 49.64 3.62732e-07V3.62732e-07Z" fill="#F2F1F0"/>
<path fill-rule="evenodd" clip-rule="evenodd" d="M92.7296 49.6386C92.7296 58.161 90.2024 66.492 85.4676 73.5781C80.7328 80.6643 74.0031 86.1872 66.1294 89.4486C58.2558 92.71 49.5918 93.5633 41.2332 91.9007C32.8745 90.238 25.1966 86.1341 19.1704 80.1079C13.1441 74.0816 9.0402 66.4037 7.37756 58.0451C5.71493 49.6864 6.56825 41.0225 9.82963 33.1488C13.091 25.2751 18.614 18.5454 25.7001 13.8106C32.7862 9.07581 41.1172 6.54862 49.6396 6.54862C55.2984 6.54828 60.9018 7.6626 66.1298 9.82795C71.3579 11.9933 76.1083 15.1673 80.1096 19.1686C84.1109 23.17 87.2849 27.9203 89.4503 33.1484C91.6156 38.3765 92.7299 43.9799 92.7296 49.6386V49.6386ZM49.6396 2.80862C58.9017 2.80862 67.9558 5.55515 75.657 10.7009C83.3581 15.8466 89.3604 23.1605 92.9049 31.7176C96.4493 40.2746 97.3767 49.6906 95.5698 58.7747C93.7628 67.8588 89.3027 76.2031 82.7534 82.7524C76.2041 89.3017 67.8598 93.7619 58.7757 95.5688C49.6916 97.3757 40.2756 96.4484 31.7185 92.9039C23.1615 89.3594 15.8476 83.3571 10.7019 75.656C5.55613 67.9548 2.8096 58.9007 2.8096 49.6386C2.81079 37.2189 7.74503 25.3082 16.5271 16.5261C25.3092 7.74403 37.2199 2.80979 49.6396 2.80859V2.80862Z" fill="#0078D4"/>
<path d="M64.1275 23.652C64.1372 23.5845 64.1565 23.5169 64.1661 23.459C64.3471 22.5038 64.3156 21.5205 64.0737 20.5788C63.8319 19.6372 63.3856 18.7604 62.7667 18.0107C62.1477 17.261 61.3713 16.6567 60.4925 16.2409C59.6137 15.8251 58.6542 15.6079 57.682 15.6047C57.1847 15.6031 56.689 15.6614 56.2057 15.7784C55.2202 14.2241 53.7566 13.0318 52.0351 12.3809C50.3136 11.7301 48.4273 11.6559 46.66 12.1696C44.8927 12.6832 43.34 13.7569 42.2356 15.2291C41.1311 16.7013 40.5346 18.4923 40.5358 20.3327C40.5358 20.4485 40.5358 20.5643 40.5454 20.6801C40.104 20.5315 39.6411 20.4566 39.1753 20.4582C38.1031 20.4584 37.072 20.8707 36.2954 21.6098C35.5187 22.349 35.0558 23.3584 35.0025 24.4292C34.9492 25.5 35.3096 26.5504 36.009 27.363C36.7085 28.1756 37.6935 28.6882 38.7604 28.7949L57.6724 28.8335C58.8495 28.8321 60.0051 28.5177 61.0208 27.9226C62.0364 27.3275 62.8755 26.473 63.4521 25.4467C63.481 25.3888 63.5196 25.3309 63.5486 25.273C63.8041 24.7571 63.9984 24.213 64.1275 23.652Z" fill="white"/>
<path fill-rule="evenodd" clip-rule="evenodd" d="M31.142 41.8086C30.2501 41.8112 29.3954 42.1667 28.7646 42.7974C28.1339 43.4281 27.7784 44.2828 27.7758 45.1748V68.7383H71.5366V45.1748C71.534 44.2828 71.1785 43.4281 70.5478 42.7974C69.917 42.1667 69.0623 41.8112 68.1704 41.8086H31.142ZM68.1704 43.4917C68.6166 43.4923 69.0443 43.6698 69.3598 43.9853C69.6754 44.3008 69.8529 44.7286 69.8535 45.1748V67.0552H29.4589V45.1748C29.4594 44.7286 29.6368 44.3007 29.9524 43.9852C30.2679 43.6696 30.6958 43.4921 31.142 43.4917H68.1704Z" fill="#1F56A3"/>
<path fill-rule="evenodd" clip-rule="evenodd" d="M29.4589 45.1753C29.4594 44.729 29.6368 44.3012 29.9524 43.9856C30.268 43.6701 30.6958 43.4926 31.1421 43.4922H68.1704C68.6166 43.4928 69.0443 43.6703 69.3599 43.9858C69.6754 44.3013 69.8529 44.7291 69.8535 45.1753V67.0557H29.4589V45.1753Z" fill="#0078D4"/>
<path d="M66.8535 45.4922H32.459C31.9067 45.4922 31.459 45.9399 31.459 46.4922V64.0557C31.459 64.6079 31.9067 65.0557 32.459 65.0557H66.8535C67.4058 65.0557 67.8535 64.6079 67.8535 64.0557V46.4922C67.8535 45.9399 67.4058 45.4922 66.8535 45.4922Z" fill="#1B93EB"/>
<path fill-rule="evenodd" clip-rule="evenodd" d="M22.7265 68.7383V69.5798C22.7291 70.4718 23.0846 71.3265 23.7153 71.9572C24.346 72.5879 25.2007 72.9434 26.0927 72.946H73.2197C74.1117 72.9434 74.9664 72.5879 75.5971 71.9572C76.2278 71.3265 76.5833 70.4718 76.5859 69.5798V68.7383H22.7265Z" fill="#0078D4"/>
<path fill-rule="evenodd" clip-rule="evenodd" d="M47.9728 71.263H23.1966C23.49 71.7722 23.9118 72.1956 24.4199 72.4909C24.928 72.7863 25.5047 72.9432 26.0924 72.9461H73.2194C74.1113 72.9435 74.966 72.588 75.5968 71.9572C76.2275 71.3265 76.583 70.4718 76.5856 69.5799V68.7383H49.6559V69.5798C49.6559 69.8009 49.6124 70.0198 49.5279 70.224C49.4433 70.4282 49.3194 70.6138 49.1631 70.7701C49.0068 70.9264 48.8212 71.0504 48.6169 71.135C48.4127 71.2195 48.1938 71.263 47.9728 71.263V71.263Z" fill="#1F56A3"/>
<path fill-rule="evenodd" clip-rule="evenodd" d="M46.29 70.4214H53.0224C53.4688 70.4212 53.8968 70.2438 54.2124 69.9282C54.528 69.6126 54.7054 69.1846 54.7055 68.7383H44.6069C44.6069 69.1847 44.7843 69.6128 45.0999 69.9284C45.4155 70.244 45.8436 70.4214 46.29 70.4214V70.4214Z" fill="#003067"/>
<path opacity="0.2" fill-rule="evenodd" clip-rule="evenodd" d="M32.8138 41.8086V54.1136C32.8175 55.1351 33.2249 56.1136 33.9471 56.8358C34.6694 57.5581 35.6479 57.9655 36.6693 57.9691H62.6429C63.6645 57.9659 64.6433 57.5587 65.3656 56.8363C66.088 56.114 66.4952 55.1352 66.4984 54.1136V41.8086H32.8138Z" fill="#003067"/>
<path d="M35.9708 61.4297H63.3084" stroke="#0078D4" stroke-miterlimit="10" stroke-linecap="round"/>
<path d="M35.9708 62.7405C36.6952 62.7405 37.2825 62.1533 37.2825 61.4289C37.2825 60.7044 36.6952 60.1172 35.9708 60.1172C35.2464 60.1172 34.6591 60.7044 34.6591 61.4289C34.6591 62.1533 35.2464 62.7405 35.9708 62.7405Z" fill="#0078D4" stroke="#0078D4" stroke-miterlimit="10" stroke-linecap="round"/>
<path d="M49.6396 62.7405C50.364 62.7405 50.9513 62.1533 50.9513 61.4289C50.9513 60.7044 50.364 60.1172 49.6396 60.1172C48.9152 60.1172 48.3279 60.7044 48.3279 61.4289C48.3279 62.1533 48.9152 62.7405 49.6396 62.7405Z" fill="#0078D4" stroke="#0078D4" stroke-miterlimit="10" stroke-linecap="round"/>
<path d="M63.3084 62.7405C64.0328 62.7405 64.6201 62.1533 64.6201 61.4289C64.6201 60.7044 64.0328 60.1172 63.3084 60.1172C62.584 60.1172 61.9967 60.7044 61.9967 61.4289C61.9967 62.1533 62.584 62.7405 63.3084 62.7405Z" fill="#1B93EB" stroke="#0078D4" stroke-miterlimit="10" stroke-linecap="round"/>
<path d="M56.56 62.8109C57.2844 62.8109 57.8717 62.2236 57.8717 61.4992C57.8717 60.7748 57.2844 60.1875 56.56 60.1875C55.8356 60.1875 55.2483 60.7748 55.2483 61.4992C55.2483 62.2236 55.8356 62.8109 56.56 62.8109Z" fill="#1B93EB" stroke="#0078D4" stroke-miterlimit="10" stroke-linecap="round"/>
<path d="M42.7553 62.8109C43.4798 62.8109 44.067 62.2236 44.067 61.4992C44.067 60.7748 43.4798 60.1875 42.7553 60.1875C42.0309 60.1875 41.4437 60.7748 41.4437 61.4992C41.4437 62.2236 42.0309 62.8109 42.7553 62.8109Z" fill="#0078D4" stroke="#0078D4" stroke-miterlimit="10" stroke-linecap="round"/>
<path fill-rule="evenodd" clip-rule="evenodd" d="M46.0388 44.7428L35.3616 55.42C35.1879 55.2493 35.05 55.0457 34.956 54.8212C34.8619 54.5966 34.8136 54.3555 34.8138 54.112V37.4144C34.8126 36.9659 34.9779 36.5329 35.2776 36.1992L46.0388 44.7428Z" fill="#E8E8E8"/>
<path fill-rule="evenodd" clip-rule="evenodd" d="M63.951 55.4233C63.7803 55.5969 63.5767 55.7347 63.3521 55.8287C63.1275 55.9227 62.8865 55.9709 62.643 55.9706H36.669C36.4256 55.9709 36.1846 55.9226 35.9601 55.8286C35.7356 55.7346 35.5321 55.5968 35.3615 55.4233L46.0386 44.7461L49.656 47.6217L53.3202 44.7924L63.951 55.4233Z" fill="white"/>
<path fill-rule="evenodd" clip-rule="evenodd" d="M64.4986 37.4174V54.115C64.499 54.3584 64.4507 54.5995 64.3567 54.8241C64.2628 55.0487 64.1249 55.2523 63.9513 55.423L53.3205 44.7922L64.1925 36.4062C64.3924 36.7056 64.4989 37.0575 64.4986 37.4174Z" fill="#E8E8E8"/>
<path fill-rule="evenodd" clip-rule="evenodd" d="M64.1923 36.4067L53.3203 44.7926L49.6561 47.6219L46.0388 44.7462L35.2776 36.2026C35.449 36.0011 35.6623 35.8394 35.9027 35.7288C36.143 35.6183 36.4046 35.5615 36.6691 35.5625H62.6432C62.9515 35.5621 63.2549 35.6392 63.5256 35.7867C63.7963 35.9342 64.0256 36.1474 64.1923 36.4067V36.4067Z" fill="white"/>
<path opacity="0.2" fill-rule="evenodd" clip-rule="evenodd" d="M53.3202 44.7922L50.2761 47.1426C50.0992 47.2793 49.8815 47.3527 49.6579 47.3511C49.4343 47.3495 49.2177 47.2731 49.0427 47.1339L46.0387 44.7458L38.2404 38.5547L48.3443 47.4007C48.7078 47.7189 49.1743 47.8949 49.6574 47.8959C50.1406 47.897 50.6078 47.7231 50.9726 47.4064L59.2946 40.184L53.3202 44.7922Z" fill="#767676"/>
<path opacity="0.2" fill-rule="evenodd" clip-rule="evenodd" d="M64.4986 35.5625H55.172C55.1461 35.8408 55.1293 36.1218 55.1293 36.4067C55.1321 38.8095 56.0879 41.1131 57.787 42.8121C59.4862 44.5111 61.7899 45.4666 64.1927 45.4692C64.296 45.4692 64.3962 45.4571 64.4986 45.4537L64.4986 35.5625Z" fill="#767676"/>
<path d="M64.1923 43.469C68.0929 43.469 71.255 40.3069 71.255 36.4064C71.255 32.5058 68.0929 29.3438 64.1923 29.3438C60.2918 29.3438 57.1297 32.5058 57.1297 36.4064C57.1297 40.3069 60.2918 43.469 64.1923 43.469Z" fill="white"/>
<path d="M64.1923 32.6484V37.6288" stroke="#FF9300" stroke-width="1.03979" stroke-miterlimit="10" stroke-linecap="round"/>
<path d="M64.1923 40.7811C64.5731 40.7811 64.8817 40.4725 64.8817 40.0917C64.8817 39.711 64.5731 39.4023 64.1923 39.4023C63.8116 39.4023 63.503 39.711 63.503 40.0917C63.503 40.4725 63.8116 40.7811 64.1923 40.7811Z" fill="#FF9300"/>
</g>
<defs>
<linearGradient id="paint0_linear" x1="47.8697" y1="-15.155" x2="51.8525" y2="130.613" gradientUnits="userSpaceOnUse">
<stop stop-color="#00ABDE"/>
<stop offset="1" stop-color="#007ED8"/>
</linearGradient>
<clipPath id="clip0">
<rect width="99.2799" height="99.28" fill="white"/>
</clipPath>
</defs>
</svg>
