<svg width="100" height="100" viewBox="0 0 100 100" fill="none" xmlns="http://www.w3.org/2000/svg">
<g clip-path="url(#clip0_455_667)">
<path d="M49.6401 96.4499C40.382 96.4499 31.3317 93.7045 23.6339 88.561C15.936 83.4174 9.93624 76.1067 6.3933 67.5533C2.85036 58.9999 1.92337 49.588 3.72954 40.5077C5.53571 31.4275 9.99394 23.0867 16.5404 16.5402C23.0869 9.99372 31.4277 5.5355 40.5079 3.72933C49.5882 1.92315 59.0001 2.85015 67.5535 6.39308C76.1069 9.93602 83.4176 15.9358 88.5612 23.6336C93.7047 31.3315 96.4501 40.3817 96.4501 49.6399C96.4505 55.7872 95.24 61.8744 92.8878 67.5538C90.5355 73.2332 87.0875 78.3937 82.7407 82.7405C78.3939 87.0873 73.2335 90.5353 67.554 92.8876C61.8746 95.2398 55.7874 96.4503 49.6401 96.4499V96.4499Z" fill="url(#paint0_linear_455_667)"/>
<path fill-rule="evenodd" clip-rule="evenodd" d="M95.54 49.6399C95.54 58.718 92.848 67.5923 87.8045 75.1406C82.7609 82.6888 75.5923 88.5719 67.2052 92.046C58.818 95.52 49.5891 96.429 40.6854 94.6579C31.7816 92.8869 23.603 88.5153 17.1838 82.0961C10.7646 75.6769 6.39302 67.4983 4.62196 58.5945C2.85089 49.6908 3.75987 40.4618 7.23393 32.0747C10.708 23.6876 16.5911 16.519 24.1393 11.4754C31.6875 6.43187 40.5618 3.73988 49.64 3.73988C55.6677 3.73986 61.6363 4.92708 67.2052 7.23377C72.774 9.54045 77.834 12.9214 82.0963 17.1836C86.3585 21.4458 89.7394 26.5058 92.0461 32.0747C94.3528 37.6435 95.54 43.6122 95.54 49.6399V49.6399ZM49.64 -0.000106449C59.4579 -0.000106449 69.0552 2.91123 77.2185 8.36574C85.3818 13.8203 91.7442 21.573 95.5014 30.6435C99.2585 39.714 100.242 49.695 98.3262 59.3242C96.4108 68.9534 91.6831 77.7984 84.7408 84.7407C77.7985 91.683 68.9535 96.4107 59.3243 98.3261C49.6951 100.241 39.7141 99.2584 30.6436 95.5013C21.5731 91.7441 13.8204 85.3816 8.36584 77.2184C2.91133 69.0551 -1.61629e-06 59.4577 3.61524e-07 49.6399C-0.000786426 43.1208 1.28265 36.6655 3.77702 30.6425C6.27138 24.6196 9.92781 19.147 14.5375 14.5374C19.1471 9.9277 24.6197 6.27127 30.6427 3.77691C36.6656 1.28254 43.121 -0.000894549 49.64 -0.000106449V-0.000106449Z" fill="#F2F1F0"/>
<path fill-rule="evenodd" clip-rule="evenodd" d="M92.7296 49.64C92.7296 58.1624 90.2024 66.4934 85.4676 73.5795C80.7328 80.6656 74.0031 86.1886 66.1294 89.45C58.2557 92.7113 49.5918 93.5647 41.2331 91.902C32.8745 90.2394 25.1966 86.1355 19.1703 80.1092C13.1441 74.083 9.04017 66.4051 7.37753 58.0464C5.7149 49.6878 6.56822 41.0238 9.8296 33.1502C13.091 25.2765 18.6139 18.5468 25.7 13.812C32.7862 9.07718 41.1172 6.55 49.6396 6.55C55.2983 6.54965 60.9017 7.66397 66.1298 9.82933C71.3579 11.9947 76.1082 15.1687 80.1096 19.17C84.1109 23.1713 87.2849 27.9217 89.4502 33.1498C91.6156 38.3778 92.7299 43.9812 92.7296 49.64ZM49.6396 2.81C58.9017 2.81 67.9558 5.55653 75.6569 10.7023C83.3581 15.848 89.3604 23.1619 92.9049 31.7189C96.4493 40.276 97.3767 49.6919 95.5697 58.7761C93.7628 67.8602 89.3027 76.2045 82.7534 82.7538C76.2041 89.3031 67.8598 93.7632 58.7757 95.5702C49.6915 97.3771 40.2756 96.4497 31.7185 92.9053C23.1614 89.3608 15.8476 83.3585 10.7018 75.6574C5.5561 67.9562 2.80957 58.9021 2.80957 49.64C2.81076 37.2203 7.74501 25.3096 16.5271 16.5275C25.3091 7.74544 37.2198 2.81119 49.6396 2.81V2.81Z" fill="#0078D4"/>
<path fill-rule="evenodd" clip-rule="evenodd" d="M92.7296 49.6399C92.7296 58.1623 90.2024 66.4933 85.4676 73.5794C80.7328 80.6655 74.0031 86.1885 66.1294 89.4499C58.2557 92.7112 49.5918 93.5646 41.2331 91.9019C32.8745 90.2393 25.1966 86.1354 19.1703 80.1091C13.1441 74.0829 9.04017 66.405 7.37753 58.0463C5.7149 49.6877 6.56822 41.0237 9.8296 33.1501C13.091 25.2764 18.6139 18.5467 25.7001 13.8119C32.7862 9.07708 41.1172 6.5499 49.6396 6.5499C55.2983 6.54956 60.9017 7.66388 66.1298 9.82923C71.3579 11.9946 76.1082 15.1686 80.1096 19.1699C84.1109 23.1712 87.2849 27.9216 89.4502 33.1497C91.6156 38.3777 92.7299 43.9811 92.7296 49.6399V49.6399ZM49.6396 2.8099C58.9017 2.8099 67.9558 5.55643 75.6569 10.7022C83.3581 15.8479 89.3604 23.1618 92.9048 31.7188C96.4493 40.2759 97.3767 49.6918 95.5697 58.776C93.7628 67.8601 89.3027 76.2044 82.7534 82.7537C76.2041 89.303 67.8598 93.7631 58.7757 95.5701C49.6915 97.377 40.2756 96.4496 31.7185 92.9052C23.1614 89.3607 15.8476 83.3584 10.7018 75.6573C5.5561 67.9561 2.80957 58.902 2.80957 49.6399C2.81075 37.2202 7.74499 25.3095 16.5271 16.5274C25.3091 7.7453 37.2198 2.81105 49.6396 2.80986V2.8099Z" fill="#0078D4"/>
<path d="M67.0446 37.2282H32.2385C30.7471 37.2282 29.5381 38.4372 29.5381 39.9286V74.7347C29.5381 76.2261 30.7471 77.4352 32.2385 77.4352H67.0446C68.536 77.4352 69.7451 76.2261 69.7451 74.7347V39.9286C69.7451 38.4372 68.536 37.2282 67.0446 37.2282Z" fill="url(#paint1_linear_455_667)"/>
<path d="M67.0447 38.4474C67.4374 38.4479 67.8139 38.6041 68.0916 38.8817C68.3692 39.1594 68.5254 39.5359 68.5259 39.9286V74.7347C68.5254 75.1274 68.3692 75.5039 68.0916 75.7816C67.8139 76.0593 67.4374 76.2155 67.0447 76.216H32.2385C31.8458 76.2155 31.4693 76.0593 31.1916 75.7816C30.914 75.5039 30.7578 75.1274 30.7573 74.7347V39.9286C30.7578 39.5359 30.914 39.1594 31.1916 38.8817C31.4693 38.6041 31.8458 38.4479 32.2385 38.4474H67.0447ZM67.0447 37.2282H32.2385C31.5223 37.2282 30.8355 37.5127 30.329 38.0192C29.8226 38.5256 29.5381 39.2124 29.5381 39.9286V74.7347C29.5381 75.4509 29.8226 76.1378 30.329 76.6442C30.8355 77.1506 31.5223 77.4352 32.2385 77.4352H67.0447C67.7609 77.4352 68.4477 77.1506 68.9542 76.6442C69.4606 76.1378 69.7451 75.4509 69.7451 74.7347V39.9286C69.7451 39.2124 69.4606 38.5256 68.9542 38.0192C68.4477 37.5127 67.7609 37.2282 67.0447 37.2282V37.2282Z" fill="url(#paint2_linear_455_667)"/>
<path d="M64.0938 52.3624C64.0933 52.6001 64.0453 52.8353 63.9526 53.0542C63.8628 53.2734 63.7336 53.4743 63.5714 53.6471L59.8727 57.3317L63.5714 61.0163C63.7354 61.1822 63.8649 61.3789 63.9526 61.5951C64.0462 61.8186 64.0942 62.0586 64.0938 62.301V68.1737C64.0961 68.4163 64.048 68.6566 63.9526 68.8796C63.8624 69.0902 63.7331 69.2819 63.5714 69.4443C63.4037 69.6096 63.2076 69.7435 62.9926 69.8396C62.7719 69.9421 62.5299 69.9905 62.2868 69.9807H56.4139C56.1763 69.9803 55.9411 69.9323 55.7222 69.8396C55.503 69.7497 55.302 69.6206 55.1293 69.4584L51.4447 65.7597L47.7601 69.4584C47.5941 69.6223 47.3974 69.7519 47.1812 69.8396C46.9577 69.9332 46.7177 69.9812 46.4754 69.9807H40.6026C40.3601 69.9831 40.1198 69.935 39.8968 69.8396C39.6861 69.7494 39.4945 69.62 39.3321 69.4584C39.1668 69.2907 39.0329 69.0946 38.9368 68.8796C38.8343 68.6589 38.7859 68.4169 38.7956 68.1737V64.5597H36.3816C36.0638 64.5584 35.7593 64.4316 35.5346 64.2068C35.3098 63.9821 35.183 63.6776 35.1816 63.3597V51.3036C35.183 50.9858 35.3098 50.6813 35.5346 50.4565C35.7593 50.2318 36.0638 50.1049 36.3816 50.1036H38.7956V46.4896C38.7933 46.2471 38.8414 46.0067 38.9368 45.7837C39.027 45.5731 39.1563 45.3815 39.318 45.2191C39.4857 45.0537 39.6818 44.9199 39.8968 44.8238C40.1175 44.7213 40.3595 44.6729 40.6026 44.6826H46.4754C46.7131 44.6831 46.9483 44.7311 47.1672 44.8238C47.3864 44.9136 47.5874 45.0428 47.7601 45.2049L51.4447 48.9037L55.1293 45.2049C55.2953 45.041 55.492 44.9115 55.7081 44.8238C55.9316 44.7301 56.1716 44.6821 56.414 44.6826H62.2868C62.5293 44.6803 62.7696 44.7283 62.9926 44.8238C63.2033 44.914 63.3949 45.0433 63.5573 45.2049C63.7226 45.3727 63.8565 45.5687 63.9526 45.7837C64.0551 46.0045 64.1035 46.2464 64.0938 46.4896V52.3624ZM40.6026 46.4896V50.1036H48.4377C48.7556 50.105 49.06 50.2318 49.2848 50.4566C49.5096 50.6813 49.6364 50.9858 49.6377 51.3036V49.6519L46.4755 46.4896H40.6026ZM39.2474 62.0751H45.5719V60.1693H41.4638V58.2493H45.1343V56.3435H41.4638V54.5082H45.3743V52.5883H39.2474V62.0751ZM62.2868 62.301L59.1245 59.1387H54.6775C54.4881 59.137 54.3005 59.1755 54.127 59.2516C53.961 59.3247 53.8083 59.4249 53.6752 59.5481C53.5405 59.6747 53.4346 59.8288 53.3647 59.9999C53.2894 60.1786 53.251 60.3707 53.2517 60.5646V65.0115L56.4139 68.1737H62.2867L62.2868 62.301ZM62.2868 52.3624V46.4896H56.4139L51.4447 51.4589V54.0988C51.4482 54.7046 51.2804 55.299 50.9607 55.8135C50.641 56.3281 50.1823 56.7418 49.6377 57.007V63.3597C49.6364 63.6776 49.5095 63.9821 49.2848 64.2068C49.06 64.4316 48.7556 64.5584 48.4377 64.5597H40.6026V68.1737H46.4754L51.4447 63.2045V60.5645C51.4407 60.1326 51.5272 59.7046 51.6988 59.3081C51.8658 58.9259 52.1001 58.5768 52.3906 58.2775C52.678 57.9793 53.0241 57.7438 53.407 57.5858C53.8108 57.4221 54.2418 57.3359 54.6775 57.3317H57.3175L62.2868 52.3624Z" fill="white"/>
<path opacity="0.2" d="M35.1265 37.2282L34.1821 40.8554C34.0622 41.3211 34.0504 41.808 34.1476 42.279C34.2448 42.75 34.4485 43.1925 34.743 43.5727C35.0375 43.9528 35.4151 44.2606 35.8468 44.4724C36.2785 44.6843 36.753 44.7945 37.2339 44.7948C37.5024 44.7949 37.7699 44.7606 38.0298 44.6928L43.1274 43.3657C46.6078 44.9692 50.5581 45.2296 54.2187 44.0966C57.8794 42.9636 60.992 40.5174 62.958 37.2282H35.1265Z" fill="#003067"/>
<path d="M49.6377 15.6777C51.6933 15.6786 53.7219 16.1469 55.5699 17.0473C57.4179 17.9477 59.0369 19.2566 60.3045 20.8749C61.5721 22.4932 62.4551 24.3786 62.8866 26.3885C63.3181 28.3984 63.2869 30.48 62.7954 32.4761C62.3038 34.4721 61.3648 36.3302 60.0492 37.9098C58.7337 39.4894 57.0762 40.7492 55.2021 41.5938C53.3279 42.4384 51.2862 42.8458 49.2315 42.785C47.1767 42.7243 45.1626 42.197 43.3417 41.2432L37.5254 42.7575C37.3309 42.8081 37.1267 42.807 36.9328 42.7544C36.7389 42.7017 36.5622 42.5993 36.4202 42.4572C36.2781 42.3152 36.1756 42.1385 36.1229 41.9446C36.0702 41.7507 36.0692 41.5465 36.1198 41.352L37.6332 35.5384C36.5491 33.472 36.0166 31.1607 36.0873 28.8282C36.1579 26.4957 36.8292 24.2209 38.0364 22.2238C39.2435 20.2267 40.9455 18.5749 42.9779 17.4282C45.0102 16.2814 47.3041 15.6785 49.6377 15.6777H49.6377Z" fill="url(#paint3_linear_455_667)"/>
<path d="M49.6377 16.8642C51.5134 16.8651 53.3643 17.2925 55.0505 18.114C56.7366 18.9356 58.2139 20.1299 59.3705 21.6065C60.5271 23.0832 61.3328 24.8035 61.7265 26.6374C62.1203 28.4712 62.0919 30.3707 61.6434 32.1919C61.195 34.0132 60.3382 35.7087 59.138 37.15C57.9377 38.5914 56.4254 39.741 54.7154 40.5117C53.0054 41.2825 51.1425 41.6544 49.2677 41.5991C47.3928 41.5439 45.5551 41.063 43.8934 40.1928L43.4871 39.9793L43.0427 40.095L37.2822 41.596L38.7814 35.8374L38.8972 35.3926L38.6831 34.9859C37.6942 33.1003 37.2086 30.9913 37.2733 28.8631C37.3379 26.7348 37.9506 24.6593 39.0521 22.8371C40.1536 21.0149 41.7066 19.5078 43.561 18.4615C45.4154 17.4151 47.5085 16.865 49.6377 16.8642ZM49.6377 15.6777C47.3041 15.6785 45.0102 16.2814 42.9779 17.4281C40.9455 18.5749 39.2435 20.2267 38.0363 22.2238C36.8292 24.2209 36.1579 26.4957 36.0873 28.8282C36.0166 31.1607 36.5491 33.472 37.6332 35.5384L36.1198 41.352C36.0689 41.5465 36.0698 41.7509 36.1224 41.9448C36.175 42.1388 36.2775 42.3157 36.4196 42.4578C36.5618 42.5999 36.7386 42.7023 36.9326 42.7549C37.1266 42.8075 37.331 42.8083 37.5254 42.7575L43.3417 41.2432C45.1628 42.1979 47.1773 42.7258 49.2326 42.7871C51.2878 42.8484 53.3302 42.4413 55.2049 41.5968C57.0797 40.7523 58.7378 39.4924 60.0538 37.9125C61.3698 36.3325 62.3092 34.474 62.8009 32.4774C63.2926 30.4809 63.3237 28.3986 62.8919 26.3883C62.4601 24.3779 61.5766 22.4921 60.3084 20.8736C59.0402 19.255 57.4205 17.9461 55.5718 17.046C53.7231 16.1458 51.6939 15.6779 49.6377 15.6777H49.6377Z" fill="url(#paint4_linear_455_667)"/>
<path opacity="0.2" d="M51.3347 31.0145H45.2319L45.0939 31.0238C44.8505 31.0573 44.6275 31.1778 44.466 31.363C44.3045 31.5482 44.2156 31.7856 44.2156 32.0313C44.2156 32.277 44.3045 32.5144 44.466 32.6996C44.6275 32.8848 44.8505 33.0053 45.0939 33.0388L45.2319 33.048H51.3347L51.4727 33.0388C51.7161 33.0053 51.9391 32.8848 52.1006 32.6996C52.2621 32.5144 52.351 32.277 52.351 32.0313C52.351 31.7856 52.2621 31.5482 52.1006 31.363C51.9391 31.1778 51.7161 31.0573 51.4727 31.0238L51.3347 31.0145ZM54.0437 26.2697H45.2319L45.0939 26.279C44.8504 26.3124 44.6272 26.4328 44.4657 26.6181C44.3041 26.8033 44.2151 27.0407 44.2151 27.2865C44.2151 27.5323 44.3041 27.7698 44.4657 27.955C44.6272 28.1402 44.8504 28.2606 45.0939 28.294L45.2319 28.3032H54.0437L54.1817 28.294C54.4252 28.2606 54.6484 28.1402 54.81 27.955C54.9715 27.7698 55.0605 27.5323 55.0605 27.2865C55.0605 27.0407 54.9715 26.8033 54.81 26.6181C54.6484 26.4328 54.4252 26.3124 54.1817 26.279L54.0437 26.2697Z" fill="#003067"/>
<path d="M51.3347 30.59H45.2319L45.0939 30.5992C44.8505 30.6327 44.6274 30.7531 44.4659 30.9384C44.3044 31.1236 44.2154 31.361 44.2154 31.6067C44.2154 31.8525 44.3044 32.0899 44.4659 32.2751C44.6274 32.4603 44.8505 32.5808 45.0939 32.6143L45.2319 32.6235H51.3347L51.4727 32.6143C51.7161 32.5808 51.9392 32.4603 52.1007 32.2751C52.2622 32.0899 52.3512 31.8525 52.3512 31.6067C52.3512 31.361 52.2622 31.1236 52.1007 30.9384C51.9392 30.7531 51.7161 30.6327 51.4727 30.5992L51.3347 30.59ZM54.0437 25.8452H45.2319L45.0939 25.8545C44.8504 25.8878 44.6272 26.0083 44.4657 26.1935C44.3041 26.3787 44.2151 26.6162 44.2151 26.862C44.2151 27.1077 44.3041 27.3452 44.4657 27.5304C44.6272 27.7157 44.8504 27.8361 45.0939 27.8695L45.2319 27.8787H54.0437L54.1817 27.8695C54.4252 27.8361 54.6484 27.7156 54.8099 27.5304C54.9715 27.3452 55.0605 27.1077 55.0605 26.862C55.0605 26.6162 54.9715 26.3787 54.8099 26.1935C54.6484 26.0083 54.4252 25.8879 54.1817 25.8545L54.0437 25.8452Z" fill="white"/>
</g>
<defs>
<linearGradient id="paint0_linear_455_667" x1="47.8698" y1="-15.1532" x2="51.8525" y2="130.615" gradientUnits="userSpaceOnUse">
<stop stop-color="#00ABDE"/>
<stop offset="1" stop-color="#007ED8"/>
</linearGradient>
<linearGradient id="paint1_linear_455_667" x1="49.6416" y1="77.4352" x2="49.6416" y2="37.2282" gradientUnits="userSpaceOnUse">
<stop stop-color="#008BF1"/>
<stop offset="0.22" stop-color="#0086EC"/>
<stop offset="0.49" stop-color="#0078DD"/>
<stop offset="0.79" stop-color="#0061C4"/>
<stop offset="1" stop-color="#004DAE"/>
</linearGradient>
<linearGradient id="paint2_linear_455_667" x1="49.6416" y1="77.4352" x2="49.6416" y2="37.2282" gradientUnits="userSpaceOnUse">
<stop stop-color="#004DAE"/>
<stop offset="0.21" stop-color="#0061C4"/>
<stop offset="0.51" stop-color="#0078DD"/>
<stop offset="0.78" stop-color="#0086EC"/>
<stop offset="1" stop-color="#008BF1"/>
</linearGradient>
<linearGradient id="paint3_linear_455_667" x1="52" y1="49" x2="50.5" y2="9.00001" gradientUnits="userSpaceOnUse">
<stop stop-color="#008BF1"/>
<stop offset="0.22" stop-color="#0086EC"/>
<stop offset="0.49" stop-color="#0078DD"/>
<stop offset="0.79" stop-color="#0061C4"/>
<stop offset="1" stop-color="#004DAE"/>
</linearGradient>
<linearGradient id="paint4_linear_455_667" x1="49.6376" y1="15.6777" x2="49.6376" y2="42.795" gradientUnits="userSpaceOnUse">
<stop stop-color="#008BF1"/>
<stop offset="0.22" stop-color="#0086EC"/>
<stop offset="0.49" stop-color="#0078DD"/>
<stop offset="0.79" stop-color="#0061C4"/>
<stop offset="1" stop-color="#004DAE"/>
</linearGradient>
<clipPath id="clip0_455_667">
<rect width="99.2799" height="99.28" fill="white"/>
</clipPath>
</defs>
</svg>
