<svg width="100" height="100" viewBox="0 0 100 100" fill="none" xmlns="https://www.w3.org/2000/svg">
<g clip-path="url(#clip0)">
<path d="M49.6401 96.4501C40.382 96.4501 31.3317 93.7047 23.6339 88.5612C15.936 83.4176 9.93624 76.1069 6.3933 67.5535C2.85036 59.0001 1.92337 49.5882 3.72954 40.5079C5.53571 31.4277 9.99394 23.0869 16.5404 16.5404C23.0869 9.99393 31.4277 5.53571 40.5079 3.72954C49.5882 1.92337 59.0001 2.85036 67.5535 6.3933C76.1069 9.93624 83.4176 15.936 88.5612 23.6339C93.7047 31.3317 96.4501 40.382 96.4501 49.6401C96.4505 55.7874 95.24 61.8746 92.8878 67.554C90.5355 73.2335 87.0875 78.3939 82.7407 82.7407C78.3939 87.0875 73.2335 90.5355 67.554 92.8878C61.8746 95.24 55.7874 96.4505 49.6401 96.4501V96.4501Z" fill="url(#paint0_linear)"/>
<path fill-rule="evenodd" clip-rule="evenodd" d="M95.54 49.64C95.54 58.7182 92.848 67.5925 87.8045 75.1407C82.7609 82.6889 75.5923 88.572 67.2052 92.0461C58.818 95.5201 49.5891 96.4291 40.6854 94.658C31.7816 92.887 23.603 88.5154 17.1838 82.0962C10.7646 75.677 6.39302 67.4984 4.62196 58.5946C2.85089 49.6909 3.75987 40.462 7.23393 32.0748C10.708 23.6877 16.5911 16.5191 24.1393 11.4755C31.6875 6.43199 40.5618 3.74 49.64 3.74C55.6677 3.73998 61.6363 4.9272 67.2052 7.23388C72.774 9.54057 77.834 12.9215 82.0963 17.1837C86.3585 21.446 89.7394 26.5059 92.0461 32.0748C94.3528 37.6437 95.54 43.6123 95.54 49.64V49.64ZM49.64 3.62732e-07C59.4579 3.62732e-07 69.0553 2.91134 77.2185 8.36585C85.3818 13.8204 91.7442 21.5731 95.5014 30.6436C99.2585 39.7141 100.242 49.6951 98.3262 59.3243C96.4108 68.9535 91.6831 77.7985 84.7408 84.7408C77.7985 91.6831 68.9535 96.4108 59.3243 98.3262C49.6951 100.242 39.7141 99.2585 30.6436 95.5014C21.5731 91.7442 13.8204 85.3818 8.36585 77.2185C2.91134 69.0553 3.62732e-07 59.4579 3.62732e-07 49.64C-0.000787738 43.121 1.28265 36.6656 3.77702 30.6427C6.27138 24.6197 9.9278 19.1471 14.5375 14.5375C19.1471 9.9278 24.6197 6.27138 30.6427 3.77702C36.6656 1.28265 43.121 -0.000787738 49.64 3.62732e-07V3.62732e-07Z" fill="#F2F1F0"/>
<path fill-rule="evenodd" clip-rule="evenodd" d="M92.7296 49.6401C92.7296 58.1625 90.2024 66.4935 85.4676 73.5796C80.7328 80.6657 74.0031 86.1887 66.1294 89.4501C58.2557 92.7114 49.5918 93.5648 41.2331 91.9021C32.8745 90.2395 25.1966 86.1356 19.1703 80.1093C13.1441 74.0831 9.04017 66.4052 7.37753 58.0465C5.7149 49.6879 6.56822 41.0239 9.8296 33.1503C13.091 25.2766 18.6139 18.5469 25.7 13.8121C32.7862 9.07727 41.1172 6.55009 49.6396 6.55009C55.2983 6.54974 60.9017 7.66407 66.1298 9.82942C71.3579 11.9948 76.1082 15.1687 80.1096 19.1701C84.1109 23.1714 87.2849 27.9218 89.4502 33.1499C91.6156 38.3779 92.7299 43.9813 92.7296 49.6401V49.6401ZM49.6396 2.81009C58.9017 2.81009 67.9558 5.55662 75.6569 10.7024C83.3581 15.8481 89.3604 23.162 92.9049 31.719C96.4493 40.2761 97.3767 49.692 95.5697 58.7762C93.7628 67.8603 89.3027 76.2046 82.7534 82.7539C76.2041 89.3032 67.8598 93.7633 58.7757 95.5703C49.6915 97.3772 40.2756 96.4498 31.7185 92.9054C23.1614 89.3609 15.8476 83.3586 10.7018 75.6574C5.5561 67.9563 2.80957 58.9022 2.80957 49.6401C2.81076 37.2204 7.745 25.3097 16.5271 16.5276C25.3091 7.7455 37.2198 2.81125 49.6396 2.81006V2.81009Z" fill="#0078D4"/>
<path fill-rule="evenodd" clip-rule="evenodd" d="M25.0198 41.4273L48.2161 23.734C48.6328 23.4162 49.1426 23.2446 49.6667 23.2459C50.1908 23.2471 50.6998 23.4211 51.115 23.7409L74.5292 41.7767L49.639 60.98L25.0198 41.4273Z" fill="#E8E8E8"/>
<path fill-rule="evenodd" clip-rule="evenodd" d="M33.875 19.0569C32.9956 19.0595 32.1529 19.4099 31.5311 20.0318C30.9092 20.6536 30.5587 21.4963 30.5562 22.3757V68.839C30.5587 69.7184 30.9092 70.561 31.5311 71.1829C32.1529 71.8047 32.9956 72.1552 33.875 72.1578H65.4036C66.2831 72.1554 67.1258 71.8049 67.7477 71.1831C68.3696 70.5612 68.72 69.7184 68.7224 68.839V32.3321L55.4472 19.0569H33.875Z" fill="white"/>
<path fill-rule="evenodd" clip-rule="evenodd" d="M58.7661 32.3321H68.7225L55.4473 19.0569V29.0133C55.4499 29.8927 55.8003 30.7354 56.4222 31.3572C57.044 31.979 57.8867 32.3295 58.7661 32.3321V32.3321Z" fill="#E8E8E8"/>
<path opacity="0.5" fill-rule="evenodd" clip-rule="evenodd" d="M68.7225 42.2887L58.7661 32.3323H68.7225V42.2887Z" fill="#F2F2F2"/>
<path d="M49.6395 33.2747C50.5362 33.272 51.4292 33.3901 52.2943 33.6261C53.1322 33.8542 53.9362 34.1923 54.6855 34.6314C55.4227 35.0638 56.1016 35.5886 56.7058 36.193C57.3119 36.7994 57.8369 37.4818 58.2675 38.2231C58.7043 38.9735 59.0422 39.7772 59.2728 40.6143C59.5097 41.4795 59.6311 42.3721 59.6339 43.2691C59.6367 44.1658 59.5185 45.0588 59.2825 45.9239C59.0544 46.7618 58.7163 47.5659 58.2772 48.3151C57.8448 49.0523 57.32 49.7312 56.7156 50.3355C56.1092 50.9416 55.4268 51.4665 54.6855 51.8971C53.9351 52.3339 53.1314 52.6718 52.2943 52.9024C51.4291 53.1393 50.5365 53.2607 49.6395 53.2635C48.7428 53.2663 47.8498 53.1481 46.9847 52.9122C46.1468 52.684 45.3427 52.346 44.5935 51.9069C43.8563 51.4744 43.1773 50.9497 42.5731 50.3452C41.967 49.7389 41.4421 49.0565 41.0115 48.3151C40.1162 46.7842 39.6446 45.0426 39.6451 43.2691C39.6423 42.3724 39.7605 41.4794 39.9964 40.6143C40.2246 39.7764 40.5626 38.9724 41.0017 38.2231C41.4341 37.4859 41.9589 36.807 42.5634 36.2028C43.1697 35.5967 43.8521 35.0718 44.5935 34.6411C46.1244 33.7458 47.866 33.2742 49.6395 33.2747H49.6395ZM57.5355 39.5212C57.2895 38.9963 56.9885 38.499 56.6376 38.0377C56.287 37.5766 55.895 37.1486 55.4663 36.7591C55.0382 36.3696 54.5704 36.0262 54.0706 35.7343C53.5707 35.442 53.0447 35.1969 52.4993 35.0023C52.7357 35.3312 52.9477 35.677 53.1337 36.0368C53.3221 36.4006 53.4883 36.7754 53.6314 37.1593C53.7746 37.5432 53.9015 37.9368 54.0121 38.3403C54.1227 38.7437 54.2138 39.1374 54.2854 39.5213L57.5355 39.5212ZM58.3846 43.2691C58.3874 42.423 58.2658 41.5812 58.0235 40.7705H54.4805C54.5326 41.1869 54.5716 41.6001 54.5977 42.0101C54.6237 42.42 54.6367 42.8397 54.6367 43.2691C54.6367 43.6921 54.6237 44.1085 54.5977 44.5184C54.5717 44.9283 54.5326 45.3448 54.4805 45.7677H58.0235C58.2657 44.9571 58.3874 44.1152 58.3846 43.2691H58.3846ZM49.6395 52.0142C49.955 52.0152 50.2638 51.9236 50.5277 51.7507C50.8181 51.5597 51.078 51.3261 51.2988 51.0577C51.5455 50.7622 51.7552 50.4377 51.9234 50.0914C52.0991 49.7336 52.265 49.3659 52.4212 48.9885C52.5677 48.64 52.6884 48.2811 52.7823 47.9149L53.0068 47.017H46.2722C46.3243 47.2707 46.3991 47.5701 46.4967 47.9149C46.5943 48.2598 46.7147 48.6176 46.8578 48.9885C47.0017 49.361 47.1646 49.7259 47.3458 50.0817C47.5212 50.4291 47.734 50.7564 47.9803 51.0577C48.1957 51.3276 48.4526 51.5615 48.7415 51.7507C49.0104 51.9205 49.3215 52.0118 49.6395 52.0142H49.6395ZM53.2215 45.7677C53.2736 45.3513 53.3126 44.9381 53.3386 44.5282C53.3647 44.1182 53.3809 43.6986 53.3874 43.2691C53.3874 42.8462 53.3744 42.4297 53.3484 42.0198C53.3224 41.6099 53.2802 41.1935 53.2216 40.7705H46.0576C46.0055 41.1869 45.9665 41.6001 45.9404 42.0101C45.9144 42.42 45.8981 42.8397 45.8916 43.2691C45.8916 43.6921 45.9046 44.1085 45.9306 44.5184C45.9566 44.9283 45.9989 45.3448 46.0575 45.7677H53.2215ZM40.8944 43.2691C40.8916 44.1152 41.0133 44.9571 41.2556 45.7677H44.7985C44.7465 45.3513 44.7074 44.9381 44.6814 44.5282C44.6554 44.1182 44.6424 43.6986 44.6424 43.2691C44.6424 42.8462 44.6554 42.4297 44.6814 42.0198C44.7074 41.6099 44.7464 41.1935 44.7985 40.7705H41.2555C41.0133 41.5812 40.8916 42.423 40.8944 43.2691H40.8944ZM49.6395 34.524C49.3241 34.523 49.0152 34.6146 48.7514 34.7875C48.461 34.9785 48.2011 35.2121 47.9804 35.4805C47.7337 35.776 47.5239 36.1005 47.3557 36.4468C47.18 36.8047 47.0141 37.1723 46.8579 37.5497C46.7114 37.8982 46.5907 38.2571 46.4968 38.6233L46.2723 39.5212H53.0068C52.9548 39.2675 52.88 38.9682 52.7824 38.6233C52.6848 38.2785 52.5643 37.9206 52.4211 37.5497C52.2773 37.1772 52.1144 36.8123 51.9331 36.4565C51.7577 36.1091 51.545 35.7818 51.2987 35.4805C51.0833 35.2106 50.8263 34.9767 50.5374 34.7875C50.2685 34.6177 49.9575 34.5264 49.6395 34.524H49.6395ZM46.7798 35.0023C46.2322 35.1914 45.7056 35.4367 45.2084 35.7343C44.2134 36.3269 43.3419 37.1056 42.6415 38.0279C42.289 38.4917 41.9879 38.9924 41.7435 39.5212H44.9937C45.0717 39.1308 45.1628 38.7371 45.2669 38.3402C45.3709 37.9438 45.4947 37.5529 45.6378 37.169C45.7827 36.7812 45.9523 36.403 46.1454 36.0368C46.3332 35.678 46.5451 35.3323 46.7798 35.0023H46.7798ZM41.7435 47.017C41.9895 47.5419 42.2905 48.0392 42.6415 48.5006C42.992 48.9616 43.384 49.3896 43.8127 49.7791C44.2408 50.1686 44.7086 50.5121 45.2084 50.804C45.7083 51.0962 46.2344 51.3413 46.7798 51.536C46.5433 51.207 46.3313 50.8613 46.1454 50.5014C45.9569 50.1376 45.7907 49.7628 45.6476 49.379C45.5044 48.9951 45.3776 48.6014 45.2669 48.198C45.1563 47.7945 45.0652 47.4009 44.9937 47.017L41.7435 47.017ZM52.4992 51.536C53.0469 51.3468 53.5734 51.1015 54.0706 50.804C55.0656 50.2114 55.9371 49.4326 56.6375 48.5104C56.99 48.0466 57.2911 47.5459 57.5355 47.0171H54.2853C54.2072 47.4075 54.1162 47.8012 54.012 48.1981C53.9081 48.5944 53.7843 48.9853 53.6412 49.3693C53.4963 49.7571 53.3267 50.1353 53.1336 50.5015C52.9458 50.8603 52.7339 51.2059 52.4992 51.536V51.536Z" fill="#0078D4"/>
<path opacity="0.2" fill-rule="evenodd" clip-rule="evenodd" d="M30.5562 72.158H68.7224V43.7304L56.0421 53.5107L52.642 50.3097C51.8291 49.5451 50.7551 49.1193 49.639 49.1193C48.523 49.1193 47.449 49.5451 46.6361 50.3097L43.3353 53.4147L30.5562 43.2693V72.158Z" fill="#767676"/>
<path fill-rule="evenodd" clip-rule="evenodd" d="M43.4455 56.0563L25.1635 74.3382C24.8661 74.046 24.63 73.6975 24.469 73.3129C24.3079 72.9284 24.2252 72.5156 24.2256 72.0986V43.5082C24.2236 42.7403 24.5066 41.9988 25.0198 41.4275L43.4455 56.0563Z" fill="#F2F2F2"/>
<path fill-rule="evenodd" clip-rule="evenodd" d="M75.0533 43.5082V72.0986C75.0538 72.5155 74.9712 72.9283 74.8103 73.3128C74.6494 73.6974 74.4134 74.0459 74.1162 74.3382L55.9136 56.1356L74.5291 41.7769C74.8713 42.2894 75.0537 42.8919 75.0533 43.5082V43.5082Z" fill="#F2F2F2"/>
<path fill-rule="evenodd" clip-rule="evenodd" d="M74.1157 74.3381C73.8234 74.6354 73.4749 74.8714 73.0903 75.0323C72.7058 75.1932 72.293 75.2758 71.8761 75.2753H27.4021C26.9854 75.2757 26.5728 75.1931 26.1883 75.0322C25.8039 74.8713 25.4555 74.6353 25.1633 74.3381L43.4453 56.0561L48.0062 51.7662C48.4482 51.3505 49.0322 51.119 49.639 51.1191C50.2458 51.1192 50.8297 51.3509 51.2715 51.7668L55.9131 56.1356L74.1157 74.3381Z" fill="white"/>
<path fill-rule="evenodd" clip-rule="evenodd" d="M75.38 64.7968C75.3799 66.9717 74.735 69.0978 73.5267 70.9061C72.3184 72.7145 70.601 74.1239 68.5916 74.9562C66.5823 75.7885 64.3713 76.0063 62.2381 75.582C60.105 75.1577 58.1457 74.1104 56.6078 72.5725C55.0699 71.0346 54.0226 69.0752 53.5983 66.9421C53.174 64.809 53.3917 62.598 54.224 60.5886C55.0563 58.5793 56.4658 56.8618 58.2741 55.6535C60.0825 54.4452 62.2085 53.8003 64.3834 53.8003C67.2999 53.8004 70.0968 54.959 72.159 57.0212C74.2212 59.0835 75.3798 61.8804 75.38 64.7968V64.7968Z" fill="#C7E7F1"/>
<path fill-rule="evenodd" clip-rule="evenodd" d="M53.3868 64.7967C53.3868 62.6218 54.0317 60.4958 55.24 58.6874C56.4483 56.879 58.1658 55.4696 60.1751 54.6373C62.1845 53.805 64.3955 53.5872 66.5286 54.0115C68.6617 54.4359 70.6211 55.4832 72.159 57.0211C73.6969 58.5589 74.7442 60.5183 75.1685 62.6514C75.5928 64.7846 75.375 66.9956 74.5427 69.0049C73.7104 71.0143 72.3009 72.7317 70.4926 73.94C68.6842 75.1483 66.5582 75.7932 64.3833 75.7932C61.4677 75.7904 58.6723 74.6309 56.6107 72.5693C54.5491 70.5077 53.3896 67.7123 53.3868 64.7967V64.7967ZM79.9067 78.5949L74.7078 73.3917C76.9276 70.7289 78.0353 67.3127 77.8005 63.854C77.5657 60.3952 76.0065 57.1601 73.4472 54.8217C70.8879 52.4832 67.5255 51.2215 64.0597 51.299C60.5938 51.3765 57.2912 52.7872 54.839 55.2377C52.3868 57.6882 50.9737 60.9898 50.8937 64.4556C50.8138 67.9214 52.0731 71.2846 54.4097 73.8456C56.7463 76.4066 59.9803 77.9681 63.4389 78.2054C66.8975 78.4426 70.3144 77.3373 72.9789 75.1194L78.1839 80.3226L79.9067 78.5949Z" fill="#30404D"/>
<path fill-rule="evenodd" clip-rule="evenodd" d="M62.4777 78.1046C65.8928 78.5943 69.3652 77.7489 72.173 75.7441C72.407 75.5773 72.6926 75.499 72.979 75.523C73.2654 75.5471 73.534 75.672 73.7369 75.8754L77.3169 79.4591H79.0458L72.1546 72.5691C71.1345 73.592 69.9227 74.4037 68.5886 74.9578C67.2545 75.512 65.8243 75.7977 64.3796 75.7986C62.935 75.7995 61.5044 75.5156 60.1696 74.9631C58.8348 74.4107 57.622 73.6005 56.6006 72.5789C55.5792 71.5573 54.7692 70.3444 54.2169 69.0095C53.6647 67.6746 53.381 66.244 53.3822 64.7994C53.3833 63.3548 53.6692 61.9245 54.2236 60.5905C54.7779 59.2565 55.5899 58.0449 56.6129 57.0249L54.884 55.2979C53.1171 57.0612 51.8765 59.2819 51.3014 61.7109C50.7262 64.14 50.8393 66.6812 51.6278 69.0496C52.4164 71.418 53.8493 73.5198 55.7658 75.1192C57.6822 76.7186 60.0064 77.7524 62.4777 78.1046H62.4777Z" fill="#182A37"/>
<path fill-rule="evenodd" clip-rule="evenodd" d="M78.7487 84.1883L75.7464 81.1852C75.5117 80.9492 75.3799 80.6298 75.3799 80.2969C75.3799 79.964 75.5117 79.6447 75.7464 79.4086L78.9965 76.1598C79.2328 75.925 79.5523 75.7932 79.8854 75.7932C80.2185 75.7932 80.538 75.925 80.7743 76.1598L83.662 79.0483L78.7487 84.1883Z" fill="#0078D4"/>
<path fill-rule="evenodd" clip-rule="evenodd" d="M81.2047 81.619L78.9904 79.4062C78.8775 79.2928 78.7432 79.2028 78.5954 79.1414C78.4476 79.0799 78.2891 79.0483 78.129 79.0483C77.969 79.0483 77.8105 79.0799 77.6626 79.1414C77.5148 79.2028 77.3806 79.2928 77.2676 79.4062L75.6304 81.0422V81.0685L78.7489 84.1881L81.2047 81.619Z" fill="#1F56A3"/>
<path d="M57.0136 67.8377L62.9183 57.7577C63.068 57.5021 63.2821 57.2901 63.5391 57.1428C63.7961 56.9955 64.0872 56.918 64.3834 56.918C64.6796 56.918 64.9707 56.9955 65.2277 57.1428C65.4848 57.2901 65.6988 57.5021 65.8485 57.7577L71.7532 67.8377C71.9043 68.0956 71.9846 68.3889 71.986 68.6879C71.9875 68.9868 71.9099 69.2808 71.7612 69.5402C71.6126 69.7996 71.3981 70.0151 71.1394 70.165C70.8807 70.3149 70.5871 70.3939 70.2881 70.3939H58.4787C58.1797 70.3939 57.8861 70.3149 57.6274 70.165C57.3688 70.0151 57.1542 69.7996 57.0056 69.5402C56.8569 69.2808 56.7794 68.9868 56.7808 68.6879C56.7822 68.3889 56.8625 68.0956 57.0136 67.8377V67.8377Z" fill="#FF9300"/>
<path d="M58.4786 69.5448C58.3292 69.5447 58.1824 69.5052 58.0531 69.4303C57.9238 69.3553 57.8166 69.2475 57.7423 69.1179C57.668 68.9882 57.6292 68.8413 57.6299 68.6918C57.6306 68.5424 57.6707 68.3958 57.7461 68.2668L63.6508 58.1868C63.7258 58.059 63.8328 57.953 63.9614 57.8794C64.0899 57.8058 64.2355 57.7671 64.3836 57.7671C64.5317 57.7671 64.6773 57.8059 64.8058 57.8795C64.9343 57.9532 65.0414 58.0592 65.1162 58.187L71.0206 68.2668C71.0961 68.3958 71.1363 68.5424 71.137 68.6919C71.1378 68.8414 71.099 68.9884 71.0247 69.1181C70.9503 69.2478 70.8431 69.3555 70.7137 69.4305C70.5844 69.5054 70.4375 69.5448 70.2881 69.5448H58.4786Z" fill="#FFCA00"/>
<path d="M64.3833 61.3115V65.378" stroke="#FF9300" stroke-width="0.84898" stroke-miterlimit="10" stroke-linecap="round"/>
<path d="M64.3834 67.9504C64.6943 67.9504 64.9463 67.6984 64.9463 67.3876C64.9463 67.0767 64.6943 66.8247 64.3834 66.8247C64.0726 66.8247 63.8206 67.0767 63.8206 67.3876C63.8206 67.6984 64.0726 67.9504 64.3834 67.9504Z" fill="#FF9300"/>
<path fill-rule="evenodd" clip-rule="evenodd" d="M75.38 64.7968C75.3799 66.9717 74.735 69.0978 73.5267 70.9061C72.3184 72.7145 70.601 74.1239 68.5916 74.9562C66.5823 75.7885 64.3713 76.0063 62.2381 75.582C60.105 75.1577 58.1457 74.1104 56.6078 72.5725C55.0699 71.0346 54.0226 69.0752 53.5983 66.9421C53.174 64.809 53.3917 62.598 54.224 60.5886C55.0563 58.5793 56.4658 56.8618 58.2741 55.6535C60.0825 54.4452 62.2085 53.8003 64.3834 53.8003C67.2999 53.8004 70.0968 54.959 72.159 57.0212C74.2212 59.0835 75.3798 61.8804 75.38 64.7968V64.7968Z" fill="url(#paint1_linear)"/>
<path opacity="0.2" fill-rule="evenodd" clip-rule="evenodd" d="M70.8355 55.9036C72.3749 58.0196 73.1083 60.6157 72.9037 63.2244C72.699 65.8332 71.5698 68.2832 69.7192 70.1333C67.8687 71.9834 65.4184 73.1121 62.8096 73.3161C60.2009 73.5201 57.6049 72.7861 55.4893 71.2461C56.4214 72.5345 57.622 73.6051 59.0082 74.3842C60.3945 75.1633 61.9333 75.6323 63.5184 75.7587C65.1035 75.8851 66.6972 75.666 68.1894 75.1165C69.6816 74.567 71.0367 73.7002 72.1613 72.5759C73.2858 71.4516 74.153 70.0967 74.7028 68.6046C75.2527 67.1125 75.4722 65.5189 75.3461 63.9338C75.2201 62.3486 74.7515 60.8097 73.9727 59.4233C73.1939 58.0369 72.1236 56.836 70.8355 55.9036Z" fill="#ABDCEC"/>
<path fill-rule="evenodd" clip-rule="evenodd" d="M92.7296 49.6401C92.7296 58.1625 90.2024 66.4935 85.4676 73.5796C80.7328 80.6657 74.0031 86.1886 66.1294 89.45C58.2557 92.7114 49.5918 93.5647 41.2331 91.9021C32.8745 90.2395 25.1966 86.1355 19.1703 80.1093C13.1441 74.083 9.04017 66.4051 7.37753 58.0465C5.7149 49.6879 6.56822 41.0239 9.8296 33.1502C13.091 25.2766 18.6139 18.5468 25.7001 13.812C32.7862 9.07724 41.1172 6.55006 49.6396 6.55006C55.2983 6.54971 60.9017 7.66404 66.1298 9.82939C71.3579 11.9947 76.1082 15.1687 80.1096 19.1701C84.1109 23.1714 87.2849 27.9217 89.4502 33.1498C91.6156 38.3779 92.7299 43.9813 92.7296 49.6401V49.6401ZM49.6396 2.81006C58.9017 2.81006 67.9558 5.55659 75.6569 10.7023C83.3581 15.8481 89.3604 23.1619 92.9048 31.719C96.4493 40.2761 97.3767 49.692 95.5697 58.7761C93.7628 67.8603 89.3027 76.2046 82.7534 82.7539C76.2041 89.3032 67.8598 93.7633 58.7757 95.5702C49.6915 97.3772 40.2756 96.4498 31.7185 92.9053C23.1614 89.3609 15.8476 83.3586 10.7018 75.6574C5.5561 67.9563 2.80957 58.9022 2.80957 49.6401C2.81076 37.2203 7.74501 25.3096 16.5271 16.5276C25.3091 7.7455 37.2198 2.81125 49.6396 2.81006V2.81006Z" fill="#0078D4"/>
</g>
<defs>
<linearGradient id="paint0_linear" x1="47.8698" y1="-15.153" x2="51.8525" y2="130.615" gradientUnits="userSpaceOnUse">
<stop stop-color="#00ABDE"/>
<stop offset="1" stop-color="#007ED8"/>
</linearGradient>
<linearGradient id="paint1_linear" x1="64.3835" y1="75.7933" x2="64.3835" y2="53.8003" gradientUnits="userSpaceOnUse">
<stop stop-color="white"/>
<stop offset="1" stop-color="white" stop-opacity="0"/>
</linearGradient>
<clipPath id="clip0">
<rect width="99.2799" height="99.28" fill="white"/>
</clipPath>
</defs>
</svg>
