<svg width="100" height="100" viewBox="0 0 100 100" fill="none" xmlns="http://www.w3.org/2000/svg">
<g clip-path="url(#clip0_455_627)">
<path d="M49.6401 96.4499C40.382 96.4499 31.3317 93.7045 23.6339 88.561C15.936 83.4174 9.93624 76.1067 6.3933 67.5533C2.85036 58.9999 1.92337 49.588 3.72954 40.5077C5.53571 31.4275 9.99394 23.0867 16.5404 16.5402C23.0869 9.99372 31.4277 5.5355 40.5079 3.72933C49.5882 1.92315 59.0001 2.85015 67.5535 6.39308C76.1069 9.93602 83.4176 15.9358 88.5612 23.6336C93.7047 31.3315 96.4501 40.3817 96.4501 49.6399C96.4505 55.7872 95.24 61.8744 92.8878 67.5538C90.5355 73.2332 87.0875 78.3937 82.7407 82.7405C78.3939 87.0873 73.2335 90.5353 67.554 92.8876C61.8746 95.2398 55.7874 96.4503 49.6401 96.4499V96.4499Z" fill="url(#paint0_linear_455_627)"/>
<path fill-rule="evenodd" clip-rule="evenodd" d="M95.54 49.6399C95.54 58.718 92.848 67.5923 87.8045 75.1406C82.7609 82.6888 75.5923 88.5719 67.2052 92.046C58.818 95.52 49.5891 96.429 40.6854 94.6579C31.7816 92.8869 23.603 88.5153 17.1838 82.0961C10.7646 75.6769 6.39302 67.4983 4.62196 58.5945C2.85089 49.6908 3.75987 40.4618 7.23393 32.0747C10.708 23.6876 16.5911 16.519 24.1393 11.4754C31.6875 6.43187 40.5618 3.73988 49.64 3.73988C55.6677 3.73986 61.6363 4.92708 67.2052 7.23377C72.774 9.54045 77.834 12.9214 82.0963 17.1836C86.3585 21.4458 89.7394 26.5058 92.0461 32.0747C94.3528 37.6435 95.54 43.6122 95.54 49.6399V49.6399ZM49.64 -0.000106449C59.4579 -0.000106449 69.0552 2.91123 77.2185 8.36574C85.3818 13.8203 91.7442 21.573 95.5014 30.6435C99.2585 39.714 100.242 49.695 98.3262 59.3242C96.4108 68.9534 91.6831 77.7984 84.7408 84.7407C77.7985 91.683 68.9535 96.4107 59.3243 98.3261C49.6951 100.241 39.7141 99.2584 30.6436 95.5013C21.5731 91.7441 13.8204 85.3816 8.36584 77.2184C2.91133 69.0551 -1.61629e-06 59.4577 3.61524e-07 49.6399C-0.000786426 43.1208 1.28265 36.6655 3.77702 30.6425C6.27138 24.6196 9.92781 19.147 14.5375 14.5374C19.1471 9.9277 24.6197 6.27127 30.6427 3.77691C36.6656 1.28254 43.121 -0.000894549 49.64 -0.000106449V-0.000106449Z" fill="#F2F1F0"/>
<path fill-rule="evenodd" clip-rule="evenodd" d="M92.7296 49.64C92.7296 58.1624 90.2024 66.4934 85.4676 73.5795C80.7328 80.6656 74.0031 86.1886 66.1294 89.45C58.2557 92.7113 49.5918 93.5647 41.2331 91.902C32.8745 90.2394 25.1966 86.1355 19.1703 80.1092C13.1441 74.083 9.04017 66.4051 7.37753 58.0464C5.7149 49.6878 6.56822 41.0238 9.8296 33.1502C13.091 25.2765 18.6139 18.5468 25.7 13.812C32.7862 9.07718 41.1172 6.55 49.6396 6.55C55.2983 6.54965 60.9017 7.66397 66.1298 9.82933C71.3579 11.9947 76.1082 15.1687 80.1096 19.17C84.1109 23.1713 87.2849 27.9217 89.4502 33.1498C91.6156 38.3778 92.7299 43.9812 92.7296 49.64ZM49.6396 2.81C58.9017 2.81 67.9558 5.55653 75.6569 10.7023C83.3581 15.848 89.3604 23.1619 92.9049 31.7189C96.4493 40.276 97.3767 49.6919 95.5697 58.7761C93.7628 67.8602 89.3027 76.2045 82.7534 82.7538C76.2041 89.3031 67.8598 93.7632 58.7757 95.5702C49.6915 97.3771 40.2756 96.4497 31.7185 92.9053C23.1614 89.3608 15.8476 83.3585 10.7018 75.6574C5.5561 67.9562 2.80957 58.9021 2.80957 49.64C2.81076 37.2203 7.74501 25.3096 16.5271 16.5275C25.3091 7.74544 37.2198 2.81119 49.6396 2.81V2.81Z" fill="#0078D4"/>
<path fill-rule="evenodd" clip-rule="evenodd" d="M92.7296 49.6399C92.7296 58.1623 90.2024 66.4933 85.4676 73.5794C80.7328 80.6655 74.0031 86.1885 66.1294 89.4499C58.2557 92.7112 49.5918 93.5646 41.2331 91.9019C32.8745 90.2393 25.1966 86.1354 19.1703 80.1091C13.1441 74.0829 9.04017 66.405 7.37753 58.0463C5.7149 49.6877 6.56822 41.0237 9.8296 33.1501C13.091 25.2764 18.6139 18.5467 25.7001 13.8119C32.7862 9.07708 41.1172 6.5499 49.6396 6.5499C55.2983 6.54956 60.9017 7.66388 66.1298 9.82923C71.3579 11.9946 76.1082 15.1686 80.1096 19.1699C84.1109 23.1712 87.2849 27.9216 89.4502 33.1497C91.6156 38.3777 92.7299 43.9811 92.7296 49.6399V49.6399ZM49.6396 2.8099C58.9017 2.8099 67.9558 5.55643 75.6569 10.7022C83.3581 15.8479 89.3604 23.1618 92.9048 31.7188C96.4493 40.2759 97.3767 49.6918 95.5697 58.776C93.7628 67.8601 89.3027 76.2044 82.7534 82.7537C76.2041 89.303 67.8598 93.7631 58.7757 95.5701C49.6915 97.377 40.2756 96.4496 31.7185 92.9052C23.1614 89.3607 15.8476 83.3584 10.7018 75.6573C5.5561 67.9561 2.80957 58.902 2.80957 49.6399C2.81075 37.2202 7.74499 25.3095 16.5271 16.5274C25.3091 7.7453 37.2198 2.81105 49.6396 2.80986V2.8099Z" fill="#0078D4"/>
<path d="M42.6233 34.7941H28.5029C27.7028 34.7965 26.9361 35.1154 26.3704 35.6811C25.8046 36.2469 25.4857 37.0135 25.4834 37.8136V51.5713H73.7954V42.3429C73.7931 41.5428 73.4742 40.7761 72.9084 40.2104C72.3427 39.6446 71.576 39.3257 70.7759 39.3234H48.1296L45.4639 36.1246C45.1169 35.7082 44.6826 35.3732 44.1917 35.1432C43.7008 34.9133 43.1654 34.7941 42.6233 34.7941V34.7941Z" fill="url(#paint1_linear_455_627)"/>
<path d="M49.6403 20.4074C53.3632 20.4074 57.0025 21.5114 60.0979 23.5797C63.1934 25.6481 65.606 28.5879 67.0307 32.0274C68.4554 35.4669 68.8281 39.2516 68.1018 42.903C67.3755 46.5543 65.5828 49.9083 62.9503 52.5408C60.3178 55.1733 56.9638 56.966 53.3125 57.6923C49.6611 58.4186 45.8764 58.0459 42.4369 56.6212C38.9974 55.1965 36.0576 52.7839 33.9892 49.6884C31.9209 46.5929 30.8169 42.9537 30.8169 39.2308C30.8169 36.7588 31.3037 34.3111 32.2497 32.0273C33.1957 29.7436 34.5822 27.6685 36.3301 25.9206C38.078 24.1727 40.1531 22.7861 42.4369 21.8402C44.7206 20.8942 47.1684 20.4074 49.6403 20.4074V20.4074ZM55.1714 47.6994H44.1091C45.3363 52.2428 47.4694 55.2309 49.6403 55.2309C51.8112 55.2309 53.9441 52.2428 55.1714 47.6994V47.6994ZM41.1867 47.7005L36.0629 47.7001C37.8801 50.6076 40.5803 52.8571 43.7682 54.1192C42.6932 52.357 41.8874 50.4442 41.3776 48.4439L41.1867 47.7005ZM63.2175 47.7001L58.0939 47.7005C57.586 49.9659 56.7134 52.1337 55.5102 54.1192C58.4967 52.9379 61.0602 50.8878 62.869 48.2339L63.2175 47.7001ZM40.4059 35.4654H34.0867L34.0777 35.4977C33.3358 38.6131 33.5403 41.8789 34.6648 44.8774L40.6368 44.8767C40.3608 43.0074 40.2238 41.1203 40.227 39.2308C40.2271 37.9434 40.2882 36.684 40.4059 35.4654ZM56.0334 35.4655H43.247C43.1151 36.7163 43.0494 37.9731 43.0501 39.2308C43.0469 41.122 43.1978 43.0103 43.5013 44.8771H55.7791C56.0827 43.0103 56.2335 41.122 56.2303 39.2308C56.231 37.9731 56.1653 36.7163 56.0334 35.4655V35.4655ZM65.1946 35.4638L58.8745 35.4654C58.9923 36.684 59.0533 37.9434 59.0533 39.2308C59.0565 41.1203 58.9196 43.0074 58.6436 44.8767L64.6155 44.8774C65.7443 41.8678 65.9459 38.5891 65.1946 35.4638V35.4638ZM43.7702 24.3422L43.7271 24.3586C39.8747 25.8962 36.7669 28.8651 35.0547 32.6431L40.7914 32.6438C41.2458 29.7119 42.2569 26.8941 43.7702 24.3422V24.3422ZM49.6403 23.2304L49.4225 23.2404C47.041 23.4583 44.7402 27.2261 43.6717 32.643H55.6088C54.5432 27.2413 52.2524 23.4794 49.878 23.2424L49.6403 23.2304ZM55.5123 24.3423L55.7133 24.6699C57.1064 27.1412 58.0465 29.8416 58.4891 32.6438L64.2258 32.6431C62.5918 29.0379 59.6839 26.1632 56.0603 24.5705L55.5123 24.3423Z" fill="white"/>
<path opacity="0.4" d="M55.1714 47.6994H44.1091C45.3362 52.2428 47.4693 55.2309 49.6403 55.2309C51.8112 55.2309 53.9441 52.2428 55.1714 47.6994ZM41.1867 47.7005L36.0628 47.7001C37.8801 50.6076 40.5803 52.8571 43.7682 54.1192C42.6932 52.357 41.8874 50.4442 41.3775 48.4439L41.1867 47.7005ZM63.2175 47.7001L58.0938 47.7005C57.5859 49.9659 56.7134 52.1337 55.5102 54.1192C58.4967 52.9379 61.0601 50.8878 62.8689 48.2339L63.2175 47.7001ZM40.4058 35.4654H34.0867L34.0777 35.4977C33.3358 38.6131 33.5402 41.8789 34.6648 44.8774L40.6368 44.8767C40.3608 43.0074 40.2238 41.1203 40.227 39.2308C40.2271 37.9434 40.2882 36.684 40.4058 35.4654ZM56.0334 35.4655H43.247C43.1151 36.7163 43.0494 37.9731 43.0501 39.2308C43.0469 41.122 43.1978 43.0103 43.5013 44.8771H55.7791C56.0826 43.0103 56.2335 41.122 56.2302 39.2308C56.231 37.9731 56.1653 36.7163 56.0334 35.4655V35.4655ZM65.1946 35.4638L58.8745 35.4654C58.9923 36.684 59.0533 37.9434 59.0533 39.2308C59.0565 41.1203 58.9196 43.0074 58.6436 44.8767L64.6155 44.8774C65.7442 41.8678 65.9459 38.5891 65.1946 35.4638V35.4638ZM43.7702 24.3422L43.7271 24.3586C39.8747 25.8962 36.7669 28.8651 35.0547 32.6431L40.7913 32.6438C41.2458 29.7119 42.2569 26.8941 43.7702 24.3422V24.3422ZM49.6403 23.2304L49.4225 23.2404C47.041 23.4583 44.7402 27.2261 43.6717 32.643H55.6088C54.5432 27.2413 52.2524 23.4794 49.878 23.2424L49.6403 23.2304ZM55.5123 24.3423L55.7133 24.6699C57.1064 27.1412 58.0465 29.8416 58.4891 32.6438L64.2257 32.6431C62.5917 29.0379 59.6839 26.1632 56.0603 24.5705L55.5123 24.3423Z" fill="white"/>
<path d="M73.7954 48.6244V68.7889C73.7954 69.7832 73.4004 70.7368 72.6973 71.4398C71.9943 72.1429 71.0407 72.5379 70.0464 72.5379H29.2324C28.2381 72.5379 27.2845 72.1429 26.5815 71.4398C25.8784 70.7368 25.4834 69.7832 25.4834 68.7889V48.6244C25.4834 47.6301 25.8784 46.6765 26.5815 45.9735C27.2845 45.2704 28.2381 44.8754 29.2324 44.8754H70.0464C71.0407 44.8754 71.9943 45.2704 72.6973 45.9735C73.4004 46.6765 73.7954 47.6301 73.7954 48.6244V48.6244Z" fill="url(#paint2_linear_455_627)"/>
<path opacity="0.2" d="M67.6013 44.8754H31.6779C31.501 44.3191 31.3525 43.7542 31.2332 43.1827H68.0478C67.9286 43.7544 67.7796 44.3194 67.6013 44.8754V44.8754Z" fill="#767676"/>
<path d="M58.0745 55.3263C58.0742 55.4879 58.0415 55.6479 57.9785 55.7968C57.9174 55.946 57.8295 56.0827 57.7192 56.2002L55.2031 58.7066L57.7192 61.2131C57.8307 61.326 57.9188 61.4598 57.9785 61.6069C58.0422 61.7589 58.0748 61.9222 58.0745 62.087V66.082C58.0761 66.247 58.0434 66.4105 57.9785 66.5622C57.9171 66.7055 57.8291 66.8359 57.7192 66.9463C57.6051 67.0588 57.4717 67.1499 57.3255 67.2152C57.1753 67.285 57.0107 67.3179 56.8453 67.3112H52.8503C52.6886 67.3109 52.5286 67.2783 52.3797 67.2152C52.2306 67.1541 52.0939 67.0663 51.9764 66.956L49.4699 64.4399L46.9634 66.956C46.8505 67.0675 46.7167 67.1556 46.5697 67.2153C46.4176 67.279 46.2544 67.3116 46.0895 67.3113H42.0945C41.9295 67.3129 41.766 67.2802 41.6143 67.2153C41.471 67.1539 41.3407 67.0659 41.2302 66.956C41.1177 66.8419 41.0267 66.7085 40.9613 66.5622C40.8916 66.4121 40.8587 66.2475 40.8653 66.0821V63.6236H39.223C39.0068 63.6227 38.7997 63.5364 38.6468 63.3835C38.4939 63.2306 38.4076 63.0235 38.4067 62.8073V54.606C38.4076 54.3898 38.4939 54.1827 38.6468 54.0298C38.7997 53.8769 39.0068 53.7906 39.223 53.7897H40.8652V51.3312C40.8636 51.1663 40.8963 51.0028 40.9612 50.8511C41.0225 50.7078 41.1105 50.5774 41.2205 50.4669C41.3346 50.3545 41.468 50.2634 41.6142 50.198C41.7644 50.1283 41.929 50.0954 42.0944 50.102H46.0894C46.2511 50.1024 46.4111 50.135 46.56 50.198C46.7091 50.2592 46.8458 50.347 46.9633 50.4573L49.4699 52.9734L51.9764 50.4573C52.0893 50.3458 52.2231 50.2577 52.3701 50.198C52.5222 50.1344 52.6854 50.1017 52.8503 50.102H56.8453C57.0103 50.1004 57.1738 50.1331 57.3255 50.198C57.4687 50.2594 57.5991 50.3474 57.7096 50.4573C57.822 50.5714 57.9131 50.7048 57.9785 50.8511C58.0482 51.0012 58.0811 51.1658 58.0745 51.3312V55.3263ZM42.0945 51.3313V53.7897H47.4244C47.6406 53.7906 47.8477 53.8769 48.0006 54.0298C48.1535 54.1827 48.2397 54.3898 48.2407 54.606V53.4824L46.0895 51.3313H42.0945ZM41.1726 61.9334H45.4749V60.6369H42.6802V59.3309H45.1771V58.0344H42.6802V56.786H45.3404V55.4799H41.1725L41.1726 61.9334ZM56.8453 62.0871L54.6941 59.9359H51.669C51.5401 59.9347 51.4125 59.9609 51.2945 60.0127C51.1816 60.0624 51.0777 60.1306 50.9872 60.2144C50.8955 60.3005 50.8235 60.4053 50.7759 60.5217C50.7247 60.6433 50.6986 60.7739 50.6991 60.9058V63.9309L52.8502 66.0821H56.8452L56.8453 62.0871ZM56.8453 55.3263V51.3313H52.8503L49.4699 54.7116V56.5075C49.4722 56.9196 49.3581 57.3239 49.1406 57.6739C48.9231 58.0239 48.6112 58.3054 48.2407 58.4858V62.8073C48.2397 63.0235 48.1535 63.2306 48.0006 63.3835C47.8477 63.5364 47.6406 63.6227 47.4244 63.6236H42.0944V66.0821H46.0894L49.4699 62.7017V60.9058C49.4671 60.612 49.526 60.3208 49.6427 60.0511C49.7563 59.7911 49.9157 59.5537 50.1133 59.3501C50.3089 59.1472 50.5443 58.987 50.8048 58.8796C51.0795 58.7682 51.3727 58.7096 51.6691 58.7067H53.4649L56.8453 55.3263Z" fill="white"/>
<path d="M65.6404 29.6963C64.5194 29.6963 63.4236 29.3639 62.4916 28.7411C61.5595 28.1184 60.8331 27.2332 60.4041 26.1976C59.9751 25.1619 59.8629 24.0224 60.0816 22.9229C60.3002 21.8235 60.84 20.8136 61.6327 20.021C62.4253 19.2284 63.4352 18.6886 64.5346 18.4699C65.6341 18.2512 66.7736 18.3634 67.8093 18.7924C68.8449 19.2214 69.7301 19.9478 70.3528 20.8799C70.9756 21.8119 71.308 22.9077 71.308 24.0287C71.3079 25.5318 70.7108 26.9734 69.6479 28.0363C68.5851 29.0991 67.1435 29.6963 65.6404 29.6963V29.6963Z" fill="white"/>
<path d="M67.7914 22.4458C67.6816 22.3361 67.5328 22.2745 67.3777 22.2745C67.2225 22.2745 67.0737 22.3361 66.9639 22.4458L65.0352 24.3731L64.3386 23.6831C64.3223 23.6589 64.3039 23.6362 64.2836 23.6153C64.1746 23.506 64.0268 23.4443 63.8725 23.4436C63.7182 23.4428 63.5699 23.5032 63.4598 23.6114C63.3498 23.7196 63.287 23.8669 63.2852 24.0212C63.2834 24.1755 63.3426 24.3243 63.45 24.4351L63.443 24.4421L64.6233 25.6115C64.7331 25.7212 64.882 25.7828 65.0371 25.7828C65.1923 25.7828 65.3412 25.7212 65.451 25.6115L67.7896 23.274L67.7914 23.2726C67.8457 23.2183 67.8888 23.1539 67.9182 23.0829C67.9476 23.012 67.9627 22.936 67.9627 22.8592C67.9627 22.7824 67.9476 22.7064 67.9182 22.6354C67.8888 22.5645 67.8457 22.5 67.7914 22.4458V22.4458Z" fill="#0078D4"/>
</g>
<defs>
<linearGradient id="paint0_linear_455_627" x1="47.8698" y1="-15.1532" x2="51.8525" y2="130.615" gradientUnits="userSpaceOnUse">
<stop stop-color="#00ABDE"/>
<stop offset="1" stop-color="#007ED8"/>
</linearGradient>
<linearGradient id="paint1_linear_455_627" x1="49.6394" y1="34.7941" x2="49.6394" y2="51.6014" gradientUnits="userSpaceOnUse">
<stop stop-color="#005BA1"/>
<stop offset="0.26" stop-color="#00589D"/>
<stop offset="0.53" stop-color="#004F90"/>
<stop offset="0.8" stop-color="#003F7C"/>
<stop offset="1" stop-color="#003067"/>
</linearGradient>
<linearGradient id="paint2_linear_455_627" x1="49.6394" y1="44.8754" x2="49.6394" y2="72.5379" gradientUnits="userSpaceOnUse">
<stop stop-color="#008BF1"/>
<stop offset="0.22" stop-color="#0086EC"/>
<stop offset="0.49" stop-color="#0078DD"/>
<stop offset="0.79" stop-color="#0061C4"/>
<stop offset="1" stop-color="#004DAE"/>
</linearGradient>
<clipPath id="clip0_455_627">
<rect width="99.2799" height="99.28" fill="white"/>
</clipPath>
</defs>
</svg>
