<svg width="100" height="100" viewBox="0 0 100 100" fill="none" xmlns="https://www.w3.org/2000/svg">
<g clip-path="url(#clip0)">
<path d="M49.6401 96.4481C40.382 96.4481 31.3317 93.7028 23.6339 88.5592C15.936 83.4157 9.93624 76.105 6.3933 67.5516C2.85036 58.9981 1.92337 49.5862 3.72954 40.506C5.53571 31.4257 9.99394 23.085 16.5404 16.5385C23.0869 9.99198 31.4277 5.53376 40.5079 3.72759C49.5882 1.92141 59.0001 2.84841 67.5535 6.39135C76.1069 9.93428 83.4176 15.934 88.5612 23.6319C93.7047 31.3298 96.4501 40.38 96.4501 49.6381C96.4505 55.7854 95.24 61.8726 92.8878 67.5521C90.5355 73.2315 87.0875 78.392 82.7407 82.7388C78.3939 87.0856 73.2335 90.5335 67.554 92.8858C61.8746 95.2381 55.7874 96.4486 49.6401 96.4481V96.4481Z" fill="url(#paint0_linear)"/>
<path fill-rule="evenodd" clip-rule="evenodd" d="M95.54 49.64C95.54 58.7182 92.848 67.5925 87.8045 75.1407C82.7609 82.6889 75.5923 88.572 67.2052 92.0461C58.818 95.5201 49.5891 96.4291 40.6854 94.658C31.7816 92.887 23.603 88.5154 17.1838 82.0962C10.7646 75.677 6.39302 67.4984 4.62196 58.5946C2.85089 49.6909 3.75987 40.462 7.23393 32.0748C10.708 23.6877 16.5911 16.5191 24.1393 11.4755C31.6875 6.43199 40.5618 3.74 49.64 3.74C55.6677 3.73998 61.6363 4.9272 67.2052 7.23388C72.774 9.54057 77.834 12.9215 82.0963 17.1837C86.3585 21.446 89.7394 26.5059 92.0461 32.0748C94.3528 37.6437 95.54 43.6123 95.54 49.64V49.64ZM49.64 3.62732e-07C59.4579 3.62732e-07 69.0553 2.91134 77.2185 8.36585C85.3818 13.8204 91.7442 21.5731 95.5014 30.6436C99.2585 39.7141 100.242 49.6951 98.3262 59.3243C96.4108 68.9535 91.6831 77.7985 84.7408 84.7408C77.7985 91.6831 68.9535 96.4108 59.3243 98.3262C49.6951 100.242 39.7141 99.2585 30.6436 95.5014C21.5731 91.7442 13.8204 85.3818 8.36585 77.2185C2.91134 69.0553 3.62732e-07 59.4579 3.62732e-07 49.64C-0.000787738 43.121 1.28265 36.6656 3.77702 30.6427C6.27138 24.6197 9.9278 19.1471 14.5375 14.5375C19.1471 9.9278 24.6197 6.27138 30.6427 3.77702C36.6656 1.28265 43.121 -0.000787738 49.64 3.62732e-07V3.62732e-07Z" fill="#F2F1F0"/>
<path fill-rule="evenodd" clip-rule="evenodd" d="M92.7296 49.6386C92.7296 58.161 90.2024 66.492 85.4676 73.5781C80.7328 80.6643 74.0031 86.1872 66.1294 89.4486C58.2557 92.71 49.5918 93.5633 41.2331 91.9007C32.8745 90.238 25.1966 86.1341 19.1703 80.1079C13.1441 74.0816 9.04017 66.4037 7.37753 58.0451C5.7149 49.6864 6.56822 41.0225 9.8296 33.1488C13.091 25.2751 18.6139 18.5454 25.7 13.8106C32.7862 9.07581 41.1172 6.54862 49.6396 6.54862C55.2983 6.54828 60.9017 7.6626 66.1298 9.82795C71.3579 11.9933 76.1082 15.1673 80.1096 19.1686C84.1109 23.17 87.2849 27.9203 89.4502 33.1484C91.6156 38.3765 92.7299 43.9799 92.7296 49.6386V49.6386ZM49.6396 2.80862C58.9017 2.80862 67.9558 5.55515 75.6569 10.7009C83.3581 15.8466 89.3604 23.1605 92.9049 31.7176C96.4493 40.2746 97.3767 49.6906 95.5697 58.7747C93.7628 67.8588 89.3027 76.2031 82.7534 82.7524C76.2041 89.3017 67.8598 93.7619 58.7757 95.5688C49.6915 97.3757 40.2756 96.4484 31.7185 92.9039C23.1614 89.3594 15.8476 83.3571 10.7018 75.656C5.5561 67.9548 2.80957 58.9007 2.80957 49.6386C2.81076 37.2189 7.745 25.3082 16.5271 16.5261C25.3091 7.74403 37.2198 2.80979 49.6396 2.80859V2.80862Z" fill="#0078D4"/>
<path fill-rule="evenodd" clip-rule="evenodd" d="M92.7296 49.6386C92.7296 58.161 90.2024 66.492 85.4676 73.5781C80.7328 80.6642 74.0031 86.1872 66.1294 89.4486C58.2557 92.7099 49.5918 93.5633 41.2331 91.9006C32.8745 90.238 25.1966 86.1341 19.1703 80.1078C13.1441 74.0816 9.04017 66.4037 7.37753 58.045C5.7149 49.6864 6.56822 41.0224 9.8296 33.1488C13.091 25.2751 18.6139 18.5454 25.7001 13.8106C32.7862 9.07578 41.1172 6.54859 49.6396 6.54859C55.2983 6.54825 60.9017 7.66257 66.1298 9.82792C71.3579 11.9933 76.1082 15.1673 80.1096 19.1686C84.1109 23.1699 87.2849 27.9203 89.4502 33.1484C91.6156 38.3764 92.7299 43.9798 92.7296 49.6386V49.6386ZM49.6396 2.80859C58.9017 2.80859 67.9558 5.55513 75.6569 10.7009C83.3581 15.8466 89.3604 23.1605 92.9048 31.7175C96.4493 40.2746 97.3767 49.6905 95.5697 58.7747C93.7628 67.8588 89.3027 76.2031 82.7534 82.7524C76.2041 89.3017 67.8598 93.7618 58.7757 95.5688C49.6915 97.3757 40.2756 96.4483 31.7185 92.9039C23.1614 89.3594 15.8476 83.3571 10.7018 75.656C5.5561 67.9548 2.80957 58.9007 2.80957 49.6386C2.81076 37.2189 7.74501 25.3082 16.5271 16.5261C25.3091 7.74403 37.2198 2.80979 49.6396 2.80859V2.80859Z" fill="#0078D4"/>
<path fill-rule="evenodd" clip-rule="evenodd" d="M25.2017 38.9483L48.1503 21.4439C48.5625 21.1295 49.0669 20.9597 49.5854 20.9609C50.1038 20.9622 50.6074 21.1343 51.0182 21.4507L74.1824 39.294L49.558 58.2921L25.2017 38.9483Z" fill="#E8E8E8"/>
<path fill-rule="evenodd" clip-rule="evenodd" d="M33.9623 16.8164C33.0923 16.8189 32.2586 17.1657 31.6434 17.7809C31.0282 18.3961 30.6815 19.2298 30.679 20.0998V66.0669C30.6815 66.9369 31.0282 67.7706 31.6434 68.3858C32.2586 69.001 33.0923 69.3477 33.9623 69.3503H65.1543C66.0244 69.3479 66.8581 69.0012 67.4733 68.3859C68.0886 67.7707 68.4353 66.937 68.4377 66.0669V29.9499L55.3042 16.8164H33.9623Z" fill="white"/>
<path fill-rule="evenodd" clip-rule="evenodd" d="M58.5876 29.9499H68.4377L55.3042 16.8164V26.6666C55.3068 27.5366 55.6535 28.3702 56.2687 28.9854C56.8839 29.6006 57.7176 29.9474 58.5876 29.9499V29.9499Z" fill="#E8E8E8"/>
<path opacity="0.5" fill-rule="evenodd" clip-rule="evenodd" d="M68.4377 39.7993L58.5876 29.9492H68.4377V39.7993Z" fill="#F2F2F2"/>
<path opacity="0.2" fill-rule="evenodd" clip-rule="evenodd" d="M30.679 69.3497H68.4377V41.2257L55.8928 50.9016L52.529 47.7348C51.7247 46.9783 50.6622 46.5571 49.5581 46.5571C48.454 46.5571 47.3915 46.9783 46.5872 47.7348L43.3217 50.8066L30.679 40.7695V69.3497Z" fill="#767676"/>
<path fill-rule="evenodd" clip-rule="evenodd" d="M43.4307 53.4179L25.3439 71.5046C25.0497 71.2155 24.8161 70.8707 24.6568 70.4902C24.4975 70.1098 24.4156 69.7014 24.416 69.2889V41.0038C24.414 40.2441 24.694 39.5105 25.2017 38.9453L43.4307 53.4179Z" fill="#F2F2F2"/>
<path fill-rule="evenodd" clip-rule="evenodd" d="M74.7009 41.0058V69.2909C74.7015 69.7033 74.6197 70.1117 74.4606 70.4921C74.3014 70.8726 74.0679 71.2174 73.7738 71.5066L55.7656 53.4984L74.1824 39.293C74.5209 39.8 74.7014 40.3961 74.7009 41.0058V41.0058Z" fill="#F2F2F2"/>
<path fill-rule="evenodd" clip-rule="evenodd" d="M73.7733 71.5062C73.4842 71.8003 73.1393 72.0337 72.7589 72.1929C72.3784 72.3521 71.97 72.4338 71.5576 72.4333H27.5586C27.1464 72.4338 26.7381 72.352 26.3578 72.1928C25.9775 72.0336 25.6328 71.8002 25.3438 71.5062L43.4304 53.4194L47.9426 49.1753C48.3799 48.764 48.9576 48.5351 49.5579 48.5352C50.1583 48.5353 50.7359 48.7644 51.1731 49.1759L55.7651 53.498L73.7733 71.5062Z" fill="white"/>
<path fill-rule="evenodd" clip-rule="evenodd" d="M41.835 33.0699C40.6986 33.0699 39.5877 32.7329 38.6428 32.1016C37.6979 31.4702 36.9614 30.5728 36.5265 29.5229C36.0916 28.473 35.9778 27.3176 36.1995 26.203C36.4212 25.0884 36.9685 24.0646 37.7721 23.261C38.5756 22.4575 39.5995 21.9102 40.7141 21.6885C41.8287 21.4668 42.984 21.5806 44.0339 22.0155C45.0838 22.4504 45.9812 23.1869 46.6126 24.1318C47.2439 25.0767 47.5809 26.1877 47.5809 27.3241C47.5809 28.848 46.9755 30.3094 45.8979 31.387C44.8204 32.4645 43.3589 33.0699 41.835 33.0699Z" fill="#72C472"/>
<path fill-rule="evenodd" clip-rule="evenodd" d="M44.4748 25.7299C44.34 25.5952 44.1572 25.5195 43.9666 25.5195C43.7761 25.5195 43.5933 25.5952 43.4585 25.7299L41.0894 28.0973L40.2336 27.2498C40.2136 27.22 40.191 27.1922 40.1661 27.1664C40.0322 27.0322 39.8507 26.9563 39.6611 26.9553C39.4715 26.9544 39.2892 27.0285 39.154 27.1614C39.0188 27.2944 38.9417 27.4754 38.9395 27.665C38.9373 27.8546 39.0101 28.0374 39.1422 28.1734L39.1335 28.1821L40.5833 29.6186C40.7182 29.7533 40.9011 29.8289 41.0917 29.8289C41.2823 29.8289 41.4651 29.7533 41.6 29.6186L44.4727 26.7472L44.4748 26.7455C44.5416 26.6788 44.5945 26.5997 44.6306 26.5126C44.6667 26.4254 44.6853 26.332 44.6853 26.2377C44.6853 26.1434 44.6667 26.05 44.6306 25.9629C44.5945 25.8758 44.5415 25.7966 44.4748 25.7299Z" fill="white"/>
<path d="M37.3557 36.8828H62.0282" stroke="#F2F2F2" stroke-width="0.98932" stroke-miterlimit="10" stroke-linecap="round"/>
<path d="M37.3557 39.7969H62.0282" stroke="#F2F2F2" stroke-width="0.98932" stroke-miterlimit="10" stroke-linecap="round"/>
<path d="M37.3557 42.7109H62.0282" stroke="#F2F2F2" stroke-width="0.98932" stroke-miterlimit="10" stroke-linecap="round"/>
<path opacity="0.2" d="M60.4937 72.4342L61.5 71.4274C61.8308 71.0985 62.0932 70.7072 62.2717 70.2761C62.4503 69.8451 62.5415 69.3829 62.5402 68.9163V63.2047C62.5391 62.2629 62.1645 61.36 61.4985 60.694C60.8326 60.028 59.9296 59.6534 58.9878 59.6524H53.2762C52.3348 59.6549 51.4325 60.0287 50.7651 60.6926L49.7586 61.6991L48.7511 60.6926C48.0837 60.0287 47.1813 59.6549 46.24 59.6523H40.5284C39.5866 59.6534 38.6837 60.028 38.0177 60.694C37.3517 61.36 36.9771 62.2629 36.9761 63.2047V63.8057C36.3994 64.0569 35.9085 64.4709 35.5635 64.997C35.2185 65.523 35.0344 66.1382 35.0337 66.7673V72.4342H60.4937Z" fill="#767676"/>
<path d="M39.0713 63.2034V68.9152C39.0713 69.1065 39.1089 69.2959 39.1821 69.4726C39.2553 69.6493 39.3626 69.8098 39.4978 69.9451L41.986 72.4332H49.7584V64.6608L47.2703 62.1726C46.997 61.8996 46.6266 61.7462 46.2404 61.7461H40.5286C40.1422 61.7462 39.7716 61.8998 39.4983 62.1731C39.225 62.4464 39.0714 62.8169 39.0713 63.2034V63.2034Z" fill="#50D9FF"/>
<path d="M40.5286 83.1207H46.2404C46.6266 83.1206 46.997 82.9672 47.2703 82.6942L49.7584 80.206V72.4336H41.986L39.4978 74.9218C39.3626 75.057 39.2553 75.2176 39.1821 75.3943C39.1089 75.571 39.0713 75.7604 39.0713 75.9516V81.6634C39.0714 82.0499 39.225 82.4205 39.4983 82.6937C39.7716 82.967 40.1422 83.1206 40.5286 83.1207Z" fill="#28A8EA"/>
<path d="M60.4454 81.6634V75.9516C60.4454 75.7603 60.4078 75.571 60.3346 75.3943C60.2614 75.2176 60.1542 75.057 60.0189 74.9218L57.5308 72.4336H49.7583V80.206L52.2465 82.6942C52.5197 82.9672 52.8901 83.1206 53.2763 83.1207H58.9881C59.3745 83.1206 59.7451 82.967 60.0184 82.6937C60.2917 82.4204 60.4453 82.0498 60.4454 81.6634V81.6634Z" fill="#0078D4"/>
<path d="M58.9881 61.7461H53.2763C52.8901 61.7462 52.5197 61.8996 52.2465 62.1726L49.7583 64.6608V72.4332H57.5308L60.0189 69.9451C60.1542 69.8098 60.2614 69.6493 60.3346 69.4726C60.4078 69.2959 60.4455 69.1065 60.4454 68.9152V63.2034C60.4453 62.8169 60.2917 62.4464 60.0184 62.1731C59.7451 61.8998 59.3745 61.7462 58.9881 61.7461V61.7461Z" fill="#28A8EA"/>
<path d="M50.5677 66.6016H39.0713V80.2034H50.3452C50.6907 80.1809 51.0169 80.0362 51.2654 79.7952C51.5139 79.5541 51.6685 79.2325 51.7015 78.8879V67.7354C51.7006 67.4349 51.5809 67.147 51.3685 66.9346C51.156 66.7221 50.8681 66.6024 50.5677 66.6016Z" fill="black" fill-opacity="0.5"/>
<path d="M49.5964 79.2346H38.2613C37.961 79.2336 37.6733 79.1137 37.461 78.9013C37.2488 78.6889 37.1292 78.4011 37.1284 78.1008V66.7666C37.1292 66.4663 37.2488 66.1785 37.461 65.9661C37.6733 65.7537 37.961 65.6338 38.2613 65.6328H49.5964C49.8968 65.6336 50.1847 65.7534 50.3972 65.9658C50.6096 66.1783 50.7293 66.4662 50.7302 66.7666V78.1008C50.7293 78.4012 50.6096 78.6891 50.3972 78.9016C50.1847 79.114 49.8968 79.2338 49.5964 79.2346V79.2346Z" fill="#0078D4"/>
<path d="M46.2786 69.8099H42.9238V71.7715H46.0727V73.0296H42.9238V75.067H46.4574V76.3193H41.4004V68.5469H46.2786L46.2786 69.8099Z" fill="white"/>
</g>
<defs>
<linearGradient id="paint0_linear" x1="47.8698" y1="-15.155" x2="51.8525" y2="130.613" gradientUnits="userSpaceOnUse">
<stop stop-color="#00ABDE"/>
<stop offset="1" stop-color="#007ED8"/>
</linearGradient>
<clipPath id="clip0">
<rect width="99.2799" height="99.28" fill="white"/>
</clipPath>
</defs>
</svg>
