<svg width="103" height="103" viewBox="0 0 103 103" fill="none" xmlns="https://www.w3.org/2000/svg">
<path d="M51.103 97.8558C25.253 97.8558 4.29297 76.9058 4.29297 51.0458C4.29297 25.1858 25.253 4.23584 51.103 4.23584C76.953 4.23584 97.913 25.1958 97.913 51.0458C97.913 76.8958 76.953 97.8558 51.103 97.8558Z" fill="url(#paint0_linear)"/>
<path fill-rule="evenodd" clip-rule="evenodd" d="M97.0029 51.046C97.0029 76.396 76.4529 96.946 51.1029 96.946C25.7529 96.946 5.20289 76.396 5.20289 51.046C5.20289 25.696 25.7529 5.14601 51.1029 5.14601C76.4529 5.14601 97.0029 25.696 97.0029 51.046ZM51.1029 1.40601C78.5229 1.40601 100.743 23.626 100.743 51.046C100.743 78.466 78.5129 100.686 51.1029 100.686C23.6829 100.686 1.46289 78.456 1.46289 51.046C1.46289 23.626 23.6829 1.40601 51.1029 1.40601Z" fill="#F2F1F0"/>
<path fill-rule="evenodd" clip-rule="evenodd" d="M94.1925 51.0458C94.1925 74.8458 74.9025 94.1358 51.1025 94.1358C27.3025 94.1358 8.01246 74.8458 8.01246 51.0458C8.01246 27.2458 27.3025 7.95582 51.1025 7.95582C74.9025 7.95582 94.1925 27.2458 94.1925 51.0458ZM51.1025 4.21582C76.9625 4.21582 97.9325 25.1858 97.9325 51.0458C97.9325 76.9058 76.9625 97.8758 51.1025 97.8758C25.2425 97.8758 4.27246 76.9058 4.27246 51.0458C4.27246 25.1858 25.2325 4.21582 51.1025 4.21582Z" fill="url(#paint1_linear)"/>
<path opacity="0.3" d="M43.8126 54.376L68.0226 68.346L63.8426 70.586L39.9326 56.736L43.8126 54.376Z" fill="#1F1D21"/>
<path opacity="0.3" d="M31.5029 61.0159L54.9529 74.4859L50.8129 76.6459L27.7129 63.2959L31.5029 61.0159Z" fill="#1F1D21"/>
<path opacity="0.3" d="M19.4729 67.5859L42.6429 80.9859L38.8329 83.1759L15.7129 69.8359L19.4729 67.5859Z" fill="#1F1D21"/>
<path d="M57.2421 36.6458L64.0821 40.5758L64.0221 68.2258L40.1221 54.3158L40.2421 19.4658L57.3721 29.3258L57.2421 36.6458Z" fill="#243A5E"/>
<path d="M57.3022 29.2661L60.4522 27.4561L60.3922 34.7761L57.2422 36.6561L57.3022 29.2661Z" fill="#0078D4"/>
<path d="M40.1826 19.5259L43.3326 17.5859L60.4626 27.4459L57.3126 29.3859L40.1826 19.5259Z" fill="#185A97"/>
<path d="M57.3027 29.3961L60.4527 27.4561L67.2927 39.1361L64.1427 40.9461L57.3027 29.3961Z" fill="#0078D4"/>
<path d="M64.1425 40.8859L67.2325 39.0759L67.1725 66.6059L64.0225 68.2959L64.1425 40.8859Z" fill="#1D4A79"/>
<path d="M57.3022 29.396L64.1422 40.886L57.2422 36.956L57.3022 29.396Z" fill="#156AB3"/>
<path d="M45.1421 43.066L51.9821 46.996L51.9221 74.646L27.9521 60.726L28.0721 25.876L45.1421 35.736V43.066V43.066Z" fill="#0078D4"/>
<path d="M28.0723 25.886L31.2823 24.376L48.4123 34.236L45.2623 36.046L28.0723 25.886Z" fill="#32B0E7"/>
<path d="M45.1426 36.0458L48.2926 34.2358L55.1326 45.5458L51.9826 47.3558L45.1426 36.0458Z" fill="#45CAF2"/>
<path d="M51.9821 47.2958L55.1321 45.4858L55.0021 73.0058L51.9121 74.6958L51.9821 47.2958Z" fill="#156AB3"/>
<path d="M45.1426 35.7458L51.9826 47.2958L45.1426 43.3658V35.7458V35.7458Z" fill="#32B0E7"/>
<path d="M32.6724 49.9559L39.5124 53.8859L39.4524 81.4159L15.4824 67.6259L15.6024 32.7759L32.7324 42.6359L32.6724 49.9559Z" fill="#45CAF2"/>
<path d="M32.6729 42.6359L35.8229 40.8259V48.1459L32.6729 49.9559V42.6359Z" fill="#0078D4"/>
<path d="M15.6025 32.7758L18.7525 30.9658L35.8225 40.8258L32.6725 42.6358L15.6025 32.7758Z" fill="#6ED5ED"/>
<path d="M32.6729 42.6359L35.8229 40.8259L42.6629 52.1359L39.5129 53.9459L32.6729 42.6359Z" fill="#84ECFD"/>
<path d="M39.5121 53.956L42.6622 52.146L42.6021 79.606L39.4521 81.416L39.5121 53.956Z" fill="#32B0E7"/>
<path d="M32.6729 42.636L39.5129 53.946L32.6729 49.956V42.636V42.636Z" fill="#50E6FF"/>
<path d="M31.2625 57.2857V58.9957L22.2725 53.8057V52.0957L31.2625 57.2857Z" fill="#84ECFD"/>
<path d="M31.2322 67.7256V69.4356L22.2422 64.2456V62.5356L31.2322 67.7256Z" fill="#84ECFD"/>
<path d="M31.2517 62.5757V64.2857L22.2617 59.0957V57.3857L31.2517 62.5757Z" fill="#84ECFD"/>
<path opacity="0.2" d="M58.5725 73.6459H85.2325C86.4225 73.6459 87.3825 72.6759 87.3825 71.4959V32.3459H45.0625V71.486C45.0625 72.676 46.0325 73.6359 47.2125 73.6359H51.8225H58.5725V73.6459Z" fill="#1F1D21"/>
<path d="M87.3825 31.6659V31.0059C87.3825 30.1859 86.7225 29.5459 85.9225 29.5459H46.5225C45.7125 29.5459 45.0625 30.2059 45.0625 31.0059V31.7359V32.3959V70.0959C45.0625 70.9159 45.7225 71.5559 46.5225 71.5559H51.8225H58.5525H85.9025C86.7225 71.5559 87.3625 70.8959 87.3625 70.0959V31.7359C87.4025 31.7159 87.3825 31.6959 87.3825 31.6659Z" fill="white"/>
<path d="M66.8623 52.4459C71.3923 52.4459 75.0723 48.7659 75.0723 44.2359C75.0723 39.7059 71.3923 36.0259 66.8623 36.0259C62.3323 36.0259 58.6523 39.7059 58.6523 44.2359C58.6523 48.7659 62.3223 52.4459 66.8623 52.4459Z" fill="#036C70"/>
<path d="M73.7029 59.2858C77.8629 59.2858 81.2328 55.9158 81.2328 51.7558C81.2328 47.5958 77.8629 44.2258 73.7029 44.2258C69.5429 44.2258 66.1729 47.5958 66.1729 51.7558C66.1729 55.9158 69.5429 59.2858 73.7029 59.2858Z" fill="#1A9BA1"/>
<path d="M67.8825 64.756C71.0925 64.756 73.7025 62.156 73.7025 58.936C73.7025 55.716 71.1025 53.116 67.8825 53.116C64.6725 53.116 62.0625 55.716 62.0625 58.936C62.0625 62.156 64.6725 64.756 67.8825 64.756Z" fill="#37C6D0"/>
<path opacity="0.1" d="M68.2326 43.4358V58.0358C68.2326 58.5458 67.9226 58.9958 67.4526 59.1958C67.3026 59.2558 67.1426 59.2958 66.9826 59.2958H62.0826C62.0726 59.1758 62.0726 59.0658 62.0726 58.9558C62.0726 58.8458 62.0726 58.7258 62.0826 58.6158C62.2126 56.4258 63.5526 54.4958 65.5626 53.6258V52.3558C61.0926 51.6458 58.0426 47.4458 58.7426 42.9758C58.7426 42.9458 58.7526 42.9158 58.7626 42.8858C58.7926 42.6558 58.8426 42.4258 58.9026 42.2058H66.9726C67.6626 42.1858 68.2226 42.7458 68.2326 43.4358Z" fill="black"/>
<path opacity="0.2" d="M66.2922 42.866H58.7622C58.0022 47.336 61.0022 51.566 65.4722 52.326C65.6122 52.346 65.7422 52.366 65.8822 52.386C63.7622 53.396 62.2122 56.246 62.0822 58.606C62.0722 58.716 62.0622 58.836 62.0722 58.946C62.0722 59.066 62.0722 59.176 62.0822 59.286C62.0922 59.516 62.1222 59.746 62.1722 59.966H66.3022C66.8122 59.966 67.2622 59.656 67.4622 59.186C67.5222 59.036 67.5622 58.876 67.5622 58.716V44.116C67.5422 43.426 66.9822 42.866 66.2922 42.866Z" fill="black"/>
<path opacity="0.2" d="M66.2922 42.866H58.7622C58.0022 47.336 61.0022 51.566 65.4722 52.326C65.5622 52.346 65.6522 52.356 65.7422 52.366C63.6922 53.446 62.2022 56.296 62.0722 58.596H66.2822C66.9722 58.586 67.5322 58.036 67.5322 57.346V44.116C67.5422 43.426 66.9822 42.866 66.2922 42.866Z" fill="black"/>
<path opacity="0.2" d="M65.6124 42.866H58.7724C58.0524 47.086 60.6924 51.146 64.8424 52.196C63.2724 53.986 62.3124 56.236 62.0924 58.606H65.6124C66.3024 58.606 66.8624 58.046 66.8624 57.356V44.116C66.8624 43.426 66.3024 42.866 65.6124 42.866Z" fill="black"/>
<path d="M53.0625 42.866H65.6025C66.2925 42.866 66.8525 43.426 66.8525 44.116V56.656C66.8525 57.346 66.2925 57.906 65.6025 57.906H53.0625C52.3725 57.906 51.8125 57.346 51.8125 56.656V44.116C51.8125 43.426 52.3725 42.866 53.0625 42.866Z" fill="url(#paint2_linear)"/>
<path d="M57.412 50.2358C57.122 50.0458 56.872 49.7858 56.692 49.4758C56.522 49.1558 56.432 48.7958 56.442 48.4358C56.422 47.9458 56.592 47.4658 56.902 47.0958C57.232 46.7158 57.662 46.4358 58.142 46.2858C58.682 46.1058 59.252 46.0158 59.832 46.0258C60.582 45.9958 61.342 46.1058 62.052 46.3358V47.9058C61.742 47.7158 61.402 47.5758 61.042 47.4958C60.662 47.4058 60.262 47.3558 59.862 47.3558C59.442 47.3358 59.032 47.4258 58.652 47.6158C58.362 47.7458 58.172 48.0258 58.172 48.3458C58.172 48.5358 58.242 48.7258 58.382 48.8558C58.542 49.0158 58.722 49.1558 58.932 49.2458C59.162 49.3558 59.502 49.5058 59.962 49.6958C60.012 49.7158 60.062 49.7358 60.112 49.7558C60.562 49.9358 60.992 50.1458 61.402 50.3958C61.712 50.5858 61.972 50.8558 62.162 51.1658C62.362 51.5258 62.452 51.9258 62.432 52.3258C62.452 52.8258 62.302 53.3258 61.992 53.7258C61.692 54.0958 61.282 54.3658 60.832 54.5058C60.292 54.6758 59.732 54.7558 59.172 54.7458C58.672 54.7458 58.162 54.7058 57.662 54.6258C57.242 54.5558 56.832 54.4358 56.442 54.2658V52.6058C56.812 52.8758 57.232 53.0758 57.672 53.1958C58.112 53.3358 58.572 53.4058 59.032 53.4158C59.462 53.4458 59.882 53.3558 60.262 53.1558C60.532 53.0058 60.692 52.7258 60.682 52.4158C60.682 52.2058 60.602 51.9958 60.452 51.8458C60.262 51.6658 60.052 51.5158 59.812 51.3958C59.542 51.2558 59.132 51.0758 58.602 50.8558C58.192 50.6958 57.792 50.4858 57.412 50.2358Z" fill="white"/>
<defs>
<linearGradient id="paint0_linear" x1="49.3325" y1="-13.7481" x2="53.3155" y2="132.021" gradientUnits="userSpaceOnUse">
<stop stop-color="#00ABDE"/>
<stop offset="1" stop-color="#007ED8"/>
</linearGradient>
<linearGradient id="paint1_linear" x1="51.1025" y1="-2.44628" x2="51.1025" y2="99.3175" gradientUnits="userSpaceOnUse">
<stop stop-color="#007ED8"/>
<stop offset="0.7065" stop-color="#002D4C"/>
</linearGradient>
<linearGradient id="paint2_linear" x1="54.4234" y1="41.884" x2="64.2457" y2="58.8959" gradientUnits="userSpaceOnUse">
<stop stop-color="#058F92"/>
<stop offset="0.5" stop-color="#038489"/>
<stop offset="1" stop-color="#026D71"/>
</linearGradient>
</defs>
</svg>
