<svg width="103" height="103" viewBox="0 0 103 103" fill="none" xmlns="http://www.w3.org/2000/svg">
<path d="M51.0307 98.4528C25.1807 98.4528 4.2207 77.5028 4.2207 51.6428C4.2207 25.7828 25.1807 4.83276 51.0307 4.83276C76.8807 4.83276 97.8407 25.7928 97.8407 51.6428C97.8407 77.4928 76.8807 98.4528 51.0307 98.4528Z" fill="url(#paint0_linear)"/>
<path fill-rule="evenodd" clip-rule="evenodd" d="M96.9306 51.6429C96.9306 76.9929 76.3806 97.5429 51.0306 97.5429C25.6806 97.5429 5.13062 76.9929 5.13062 51.6429C5.13062 26.2929 25.6806 5.74293 51.0306 5.74293C76.3806 5.74293 96.9306 26.2929 96.9306 51.6429ZM51.0306 2.00293C78.4506 2.00293 100.671 24.2229 100.671 51.6429C100.671 79.0629 78.4406 101.283 51.0306 101.283C23.6106 101.283 1.39062 79.0529 1.39062 51.6429C1.39062 24.2229 23.6106 2.00293 51.0306 2.00293Z" fill="#F2F1F0"/>
<path fill-rule="evenodd" clip-rule="evenodd" d="M94.1202 51.6427C94.1202 75.4427 74.8302 94.7327 51.0302 94.7327C27.2302 94.7327 7.9402 75.4427 7.9402 51.6427C7.9402 27.8427 27.2302 8.55274 51.0302 8.55274C74.8302 8.55274 94.1202 27.8427 94.1202 51.6427ZM51.0302 4.81274C76.8902 4.81274 97.8602 25.7827 97.8602 51.6427C97.8602 77.5027 76.8902 98.4727 51.0302 98.4727C25.1702 98.4727 4.2002 77.5027 4.2002 51.6427C4.2002 25.7827 25.1602 4.81274 51.0302 4.81274Z" fill="url(#paint1_linear)"/>
<path d="M52.4695 39.1526H16.5995C15.8595 39.1526 15.2695 39.7226 15.2695 40.4126V65.1226C15.2695 65.8126 15.8595 66.3826 16.5995 66.3826H52.4695C53.2095 66.3826 53.7995 65.8126 53.7995 65.1226V40.4226C53.7995 39.7226 53.1995 39.1526 52.4695 39.1526Z" fill="url(#paint2_linear)"/>
<path d="M54.9702 42.3226L54.0102 41.4026L38.6702 57.3926C37.7502 58.3626 36.5202 58.9026 35.2202 58.9226C33.9602 58.9426 32.6902 58.4426 31.7302 57.5126L15.9802 42.1326L15.0602 43.0826L26.5902 54.3426L14.1602 64.6526L15.0102 65.6726L27.5402 55.2826L30.8102 58.4726C31.9902 59.6226 33.5402 60.2526 35.1502 60.2526C35.1902 60.2526 35.2202 60.2526 35.2502 60.2526C36.9102 60.2226 38.4602 59.5326 39.6302 58.3126L42.5502 55.2726L52.9602 64.0126L53.8102 62.9926L43.4702 54.3026L54.9702 42.3226Z" fill="url(#paint3_linear)"/>
<path d="M53.88 36.9026H15.19C14.4 36.9026 13.75 37.5526 13.75 38.3426V66.8226C13.75 67.6126 14.4 68.2626 15.19 68.2626H53.88C54.67 68.2626 55.32 67.6126 55.32 66.8226V38.3426C55.31 37.5526 54.67 36.9026 53.88 36.9026ZM52.76 64.4626C52.76 65.1226 52.19 65.6626 51.5 65.6626H17.57C16.88 65.6626 16.31 65.1226 16.31 64.4626V41.0926C16.31 40.4326 16.88 39.8926 17.57 39.8926H51.5C52.19 39.8926 52.76 40.4226 52.76 41.0926V64.4626Z" fill="url(#paint4_linear)"/>
<path opacity="0.15" d="M53.88 68.2525H15.19C14.4 68.2525 13.75 67.6025 13.75 66.8125V67.8825C13.75 68.6625 14.4 69.3125 15.19 69.3225H53.88C54.67 69.3225 55.32 68.6725 55.32 67.8825V66.8125C55.31 67.6025 54.67 68.2525 53.88 68.2525Z" fill="#1F1D20"/>
<path opacity="0.15" d="M51.4996 65.6626H17.5696C16.8796 65.6626 16.3096 65.1226 16.3096 64.4626V64.8626C16.3096 65.5226 16.8796 66.0626 17.5696 66.0626H51.4996C52.1896 66.0626 52.7596 65.5226 52.7596 64.8626V64.4626C52.7596 65.1326 52.1896 65.6626 51.4996 65.6626Z" fill="#1F1D20"/>
<path opacity="0.2" d="M67.7695 68.9328H87.0195C87.8795 68.9328 88.5695 68.2328 88.5695 67.3828V39.1128H58.0195V67.3628C58.0195 68.2228 58.7195 68.9128 59.5695 68.9128H62.8995H67.7695V68.9328Z" fill="#1F1D21"/>
<path d="M88.5698 38.6228V38.1428C88.5698 37.5528 88.0898 37.0828 87.5098 37.0828H59.0698C58.4898 37.0828 58.0098 37.5628 58.0098 38.1428V38.6728V39.1528V66.3728C58.0098 66.9628 58.4898 67.4328 59.0698 67.4328H62.8998H67.7598H87.4998C88.0898 67.4328 88.5598 66.9528 88.5598 66.3728V38.6728C88.5798 38.6528 88.5698 38.6428 88.5698 38.6228Z" fill="#002D4C"/>
<path d="M82.1204 60.9129H64.4004V43.1929H82.1304V60.9129H82.1204ZM65.1504 60.1629H81.3804V43.9429H65.1504V60.1629Z" fill="white"/>
<path d="M81.7905 62.6427C82.7905 62.6427 83.6005 61.8327 83.6005 60.8327C83.6005 59.8327 82.7905 59.0227 81.7905 59.0227C80.7905 59.0227 79.9805 59.8327 79.9805 60.8327C79.9805 61.8327 80.7905 62.6427 81.7905 62.6427Z" fill="white"/>
<path d="M73.3002 62.6427C74.3002 62.6427 75.1102 61.8327 75.1102 60.8327C75.1102 59.8327 74.3002 59.0227 73.3002 59.0227C72.3002 59.0227 71.4902 59.8327 71.4902 60.8327C71.4902 61.8327 72.3002 62.6427 73.3002 62.6427Z" fill="white"/>
<path d="M64.81 62.6427C65.81 62.6427 66.62 61.8327 66.62 60.8327C66.62 59.8327 65.81 59.0227 64.81 59.0227C63.81 59.0227 63 59.8327 63 60.8327C63 61.8327 63.81 62.6427 64.81 62.6427Z" fill="white"/>
<path d="M81.7905 53.9327C82.7905 53.9327 83.6005 53.1227 83.6005 52.1227C83.6005 51.1227 82.7905 50.3127 81.7905 50.3127C80.7905 50.3127 79.9805 51.1227 79.9805 52.1227C79.9805 53.1227 80.7905 53.9327 81.7905 53.9327Z" fill="#50E6FF"/>
<path d="M73.3002 53.9327C74.3002 53.9327 75.1102 53.1227 75.1102 52.1227C75.1102 51.1227 74.3002 50.3127 73.3002 50.3127C72.3002 50.3127 71.4902 51.1227 71.4902 52.1227C71.4902 53.1227 72.3002 53.9327 73.3002 53.9327Z" fill="#50E6FF"/>
<path d="M64.81 53.9327C65.81 53.9327 66.62 53.1227 66.62 52.1227C66.62 51.1227 65.81 50.3127 64.81 50.3127C63.81 50.3127 63 51.1227 63 52.1227C63 53.1227 63.81 53.9327 64.81 53.9327Z" fill="#50E6FF"/>
<path d="M81.7905 45.2228C82.7905 45.2228 83.6005 44.4128 83.6005 43.4128C83.6005 42.4128 82.7905 41.6028 81.7905 41.6028C80.7905 41.6028 79.9805 42.4128 79.9805 43.4128C79.9805 44.4128 80.7905 45.2228 81.7905 45.2228Z" fill="white"/>
<path d="M73.3002 45.2228C74.3002 45.2228 75.1102 44.4128 75.1102 43.4128C75.1102 42.4128 74.3002 41.6028 73.3002 41.6028C72.3002 41.6028 71.4902 42.4128 71.4902 43.4128C71.4902 44.4128 72.3002 45.2228 73.3002 45.2228Z" fill="white"/>
<path d="M64.81 45.2228C65.81 45.2228 66.62 44.4128 66.62 43.4128C66.62 42.4128 65.81 41.6028 64.81 41.6028C63.81 41.6028 63 42.4128 63 43.4128C63 44.4128 63.81 45.2228 64.81 45.2228Z" fill="white"/>
<defs>
<linearGradient id="paint0_linear" x1="49.2607" y1="-13.1512" x2="53.2437" y2="132.618" gradientUnits="userSpaceOnUse">
<stop stop-color="#00ABDE"/>
<stop offset="1" stop-color="#007ED8"/>
</linearGradient>
<linearGradient id="paint1_linear" x1="51.0301" y1="-1.84916" x2="51.0301" y2="99.9145" gradientUnits="userSpaceOnUse">
<stop stop-color="#007ED8"/>
<stop offset="0.7065" stop-color="#002D4C"/>
</linearGradient>
<linearGradient id="paint2_linear" x1="14.6248" y1="27.8256" x2="125.674" y2="166.991" gradientUnits="userSpaceOnUse">
<stop offset="0.0435" stop-color="white"/>
<stop offset="0.4857" stop-color="#4DC1EA"/>
<stop offset="0.8452" stop-color="#0078D4"/>
</linearGradient>
<linearGradient id="paint3_linear" x1="25.1714" y1="10.8627" x2="45.468" y2="102.952" gradientUnits="userSpaceOnUse">
<stop offset="0.0435" stop-color="white"/>
<stop offset="0.4857" stop-color="#4DC1EA"/>
<stop offset="0.8452" stop-color="#0078D4"/>
</linearGradient>
<linearGradient id="paint4_linear" x1="29.7565" y1="17.4783" x2="39.3807" y2="88.1891" gradientUnits="userSpaceOnUse">
<stop offset="0.0435" stop-color="white"/>
<stop offset="0.4857" stop-color="#4DC1EA"/>
<stop offset="0.8452" stop-color="#0078D4"/>
</linearGradient>
</defs>
</svg>
