<svg width="103" height="103" viewBox="0 0 103 103" fill="none" xmlns="http://www.w3.org/2000/svg">
<path d="M51.145 98.5795C25.295 98.5795 4.33496 77.6295 4.33496 51.7695C4.33496 25.9095 25.295 4.95947 51.145 4.95947C76.995 4.95947 97.955 25.9195 97.955 51.7695C97.955 77.6195 76.995 98.5795 51.145 98.5795Z" fill="url(#paint0_linear_903_2879)"/>
<path fill-rule="evenodd" clip-rule="evenodd" d="M97.0449 51.7696C97.0449 77.1196 76.4949 97.6696 51.1449 97.6696C25.7949 97.6696 5.24488 77.1196 5.24488 51.7696C5.24488 26.4196 25.7949 5.86964 51.1449 5.86964C76.4949 5.86964 97.0449 26.4196 97.0449 51.7696ZM51.1449 2.12964C78.5649 2.12964 100.785 24.3496 100.785 51.7696C100.785 79.1896 78.5549 101.41 51.1449 101.41C23.7249 101.41 1.50488 79.1796 1.50488 51.7696C1.50488 24.3496 23.7249 2.12964 51.1449 2.12964Z" fill="#F2F1F0"/>
<path fill-rule="evenodd" clip-rule="evenodd" d="M94.2349 51.7695C94.2349 75.5695 74.9449 94.8595 51.1449 94.8595C27.3449 94.8595 8.05494 75.5695 8.05494 51.7695C8.05494 27.9695 27.3449 8.67946 51.1449 8.67946C74.9449 8.67946 94.2349 27.9695 94.2349 51.7695ZM51.1449 4.93945C77.0049 4.93945 97.9749 25.9095 97.9749 51.7695C97.9749 77.6295 77.0049 98.5995 51.1449 98.5995C25.2849 98.5995 4.31494 77.6295 4.31494 51.7695C4.31494 25.9095 25.2749 4.93945 51.1449 4.93945Z" fill="url(#paint1_linear_903_2879)"/>
<path d="M22.6838 24.3474V29.4117H21.8904V25.3265C21.7384 25.4278 21.5865 25.5122 21.4177 25.5966C21.2658 25.681 21.0632 25.7486 20.8438 25.7823V25.0902C20.9957 25.0564 21.1138 24.9889 21.232 24.9383C21.3502 24.8876 21.4683 24.837 21.6034 24.7864C21.7384 24.7188 21.8397 24.6513 21.9748 24.5838C22.1098 24.4994 22.228 24.4319 22.363 24.3306L22.6838 24.3474ZM27.4948 29.4286H26.7014V25.3434C26.5495 25.4447 26.3976 25.5291 26.2288 25.6135C26.06 25.6979 25.8743 25.7654 25.6548 25.7992V25.1071C25.8067 25.0733 25.9249 25.0058 26.0431 24.9552C26.1612 24.9045 26.2794 24.8539 26.4145 24.8032C26.5495 24.7357 26.6508 24.6682 26.7858 24.6007C26.9209 24.5163 27.0391 24.4487 27.1741 24.3474L27.4948 29.4286ZM32.0696 29.513C31.5463 29.513 31.158 29.2936 30.8542 28.8715C30.5503 28.4495 30.4152 27.8418 30.4152 27.0315C30.4152 26.1537 30.5672 25.4953 30.8879 25.0396C31.2087 24.5838 31.6307 24.3643 32.2046 24.3643C33.3019 24.3643 33.8421 25.2084 33.8421 26.9133C33.8421 27.7405 33.6901 28.382 33.3694 28.8378C33.0487 29.2767 32.6266 29.513 32.0696 29.513ZM32.154 25.0058C31.5632 25.0058 31.2593 25.6642 31.2593 26.9978C31.2593 28.2301 31.5463 28.8547 32.154 28.8547C32.7448 28.8547 33.0149 28.2132 33.0149 26.964C33.0149 25.681 32.7111 25.0058 32.154 25.0058ZM38.1636 24.3474V29.4117H37.3702V25.3265C37.2183 25.4278 37.0663 25.5122 36.8975 25.5966C36.7456 25.681 36.543 25.7486 36.3236 25.7823V25.0902C36.4755 25.0564 36.5937 24.9889 36.7118 24.9383C36.83 24.8876 36.9482 24.837 37.0832 24.7864C37.2183 24.7188 37.3196 24.6513 37.4546 24.5838C37.5897 24.4994 37.7078 24.4319 37.8429 24.3306L38.1636 24.3474ZM42.7552 29.513C42.2319 29.513 41.8436 29.2936 41.5398 28.8715C41.2528 28.4495 41.1009 27.8418 41.1009 27.0315C41.1009 26.1537 41.2528 25.4953 41.5736 25.0396C41.8943 24.5838 42.3163 24.3643 42.8903 24.3643C43.9875 24.3643 44.5277 25.2084 44.5277 26.9133C44.5277 27.7405 44.3758 28.382 44.0551 28.8378C43.7512 29.2767 43.3123 29.513 42.7552 29.513ZM42.8396 25.0058C42.2488 25.0058 41.9449 25.6642 41.9449 26.9978C41.9449 28.2301 42.2319 28.8547 42.8396 28.8547C43.4305 28.8547 43.7006 28.2132 43.7006 26.964C43.7006 25.681 43.4136 25.0058 42.8396 25.0058ZM48.8661 24.3474V29.4117H48.0727V25.3265C47.9208 25.4278 47.7689 25.5122 47.6001 25.5966C47.4481 25.681 47.2456 25.7486 47.0261 25.7823V25.0902C47.178 25.0564 47.2962 24.9889 47.4144 24.9383C47.5325 24.8876 47.6507 24.837 47.7857 24.7864C47.9208 24.7188 48.0221 24.6513 48.1571 24.5838C48.2922 24.4994 48.4103 24.4319 48.5454 24.3306L48.8661 24.3474ZM53.4409 29.513C52.9175 29.513 52.5293 29.2936 52.2254 28.8715C51.9385 28.4495 51.7865 27.8418 51.7865 27.0315C51.7865 26.1537 51.9385 25.4953 52.2592 25.0396C52.5799 24.5838 53.002 24.3643 53.5759 24.3643C54.6732 24.3643 55.2134 25.2084 55.2134 26.9133C55.2134 27.7405 55.0614 28.382 54.7407 28.8378C54.4368 29.2767 53.9979 29.513 53.4409 29.513ZM53.5253 25.0058C52.9344 25.0058 52.6306 25.6642 52.6306 26.9978C52.6306 28.2301 52.9176 28.8547 53.5253 28.8547C54.1161 28.8547 54.3862 28.2132 54.3862 26.964C54.3862 25.681 54.0823 25.0058 53.5253 25.0058ZM59.5518 24.3474V29.4117H58.7584V25.3265C58.6064 25.4278 58.4545 25.5122 58.2857 25.5966C58.1338 25.681 57.9312 25.7486 57.7117 25.7823V25.0902C57.8637 25.0564 57.9818 24.9889 58.1 24.9383C58.2182 24.8876 58.3363 24.837 58.4714 24.7864C58.6064 24.7188 58.7077 24.6513 58.8428 24.5838C58.9778 24.4994 59.096 24.4319 59.231 24.3306L59.5518 24.3474ZM64.1265 29.513C63.6032 29.513 63.2149 29.2936 62.9111 28.8715C62.6072 28.4495 62.4722 27.8418 62.4722 27.0315C62.4722 26.1537 62.6241 25.4953 62.9448 25.0396C63.2487 24.5838 63.6876 24.3643 64.2615 24.3643C65.3588 24.3643 65.899 25.2084 65.899 26.9133C65.899 27.7405 65.7471 28.382 65.4263 28.8378C65.1056 29.2767 64.6836 29.513 64.1265 29.513ZM64.2109 25.0058C63.6201 25.0058 63.3162 25.6642 63.3162 26.9978C63.3162 28.2301 63.6032 28.8547 64.2109 28.8547C64.8017 28.8547 65.0718 28.2132 65.0718 26.964C65.055 25.681 64.7849 25.0058 64.2109 25.0058ZM70.2374 24.3474V29.4117H69.444V25.3265C69.2921 25.4278 69.1401 25.5122 68.9713 25.5966C68.8194 25.681 68.6168 25.7486 68.3974 25.7823V25.0902C68.5493 25.0564 68.6675 24.9889 68.7856 24.9383C68.9207 24.8876 69.022 24.837 69.157 24.7864C69.2921 24.7188 69.3934 24.6513 69.5284 24.5838C69.6634 24.4994 69.7816 24.4319 69.9167 24.3306L70.2374 24.3474ZM74.8121 29.513C74.2888 29.513 73.9006 29.2936 73.5967 28.8715C73.3097 28.4495 73.1578 27.8418 73.1578 27.0315C73.1578 26.1537 73.3097 25.4953 73.6305 25.0396C73.9512 24.5838 74.3732 24.3643 74.9472 24.3643C76.0444 24.3643 76.5846 25.2084 76.5846 26.9133C76.5846 27.7405 76.4327 28.382 76.112 28.8378C75.8081 29.2767 75.3692 29.513 74.8121 29.513ZM74.8965 25.0058C74.3057 25.0058 74.0019 25.6642 74.0019 26.9978C74.0019 28.2301 74.2888 28.8547 74.8965 28.8547C75.4874 28.8547 75.7575 28.2132 75.7575 26.964C75.7575 25.681 75.4705 25.0058 74.8965 25.0058ZM80.9062 24.3474V29.4117H80.1128V25.3265C79.9608 25.4278 79.8089 25.5122 79.6401 25.5966C79.4882 25.681 79.2856 25.7486 79.0661 25.7823V25.0902C79.2181 25.0564 79.3362 24.9889 79.4544 24.9383C79.5894 24.8876 79.6907 24.837 79.8258 24.7864C79.9608 24.7188 80.0621 24.6513 80.1972 24.5838C80.3322 24.4994 80.4504 24.4319 80.5854 24.3306L80.9062 24.3474Z" fill="url(#paint2_linear_903_2879)"/>
<path d="M21.481 79.6985C20.9577 79.6985 20.5694 79.4791 20.2656 79.057C19.9786 78.635 19.8267 78.0273 19.8267 77.2339C19.8267 76.3561 19.9786 75.6977 20.2993 75.242C20.6032 74.7862 21.0421 74.5667 21.616 74.5667C22.7133 74.5667 23.2535 75.4108 23.2535 77.1157C23.2535 77.9429 23.1016 78.5844 22.7808 79.0402C22.477 79.496 22.0212 79.6985 21.481 79.6985ZM21.5485 75.2082C20.9577 75.2082 20.6538 75.8666 20.6538 77.2001C20.6538 78.4325 20.9408 79.057 21.5485 79.057C22.1393 79.057 22.4094 78.4156 22.4094 77.1664C22.4094 75.8665 22.1225 75.2082 21.5485 75.2082ZM27.575 74.5498V79.6141H26.7647V75.5289C26.6128 75.6302 26.4609 75.7146 26.2921 75.799C26.1401 75.8834 25.9376 75.951 25.7181 75.9847V75.2926C25.87 75.2588 25.9882 75.1913 26.1064 75.1407C26.2414 75.09 26.3427 75.0394 26.4778 74.9887C26.6128 74.9212 26.7141 74.8537 26.8491 74.7862C26.9842 74.7018 27.1024 74.6342 27.2374 74.533L27.575 74.5498ZM32.1498 79.6985C31.6264 79.6985 31.2382 79.4791 30.9343 79.057C30.6305 78.635 30.4954 78.0273 30.4954 77.217C30.4954 76.3392 30.6473 75.6809 30.9681 75.2251C31.2719 74.7693 31.7108 74.5498 32.2848 74.5498C33.3821 74.5498 33.9223 75.3939 33.9223 77.0989C33.9223 77.926 33.7703 78.5675 33.4496 79.0233C33.1457 79.4791 32.7068 79.6985 32.1498 79.6985ZM32.2342 75.2082C31.6433 75.2082 31.3395 75.8666 31.3395 77.2001C31.3395 78.4325 31.6264 79.057 32.2342 79.057C32.825 79.057 33.0951 78.4156 33.0951 77.1664C33.0951 75.8665 32.7912 75.2082 32.2342 75.2082ZM38.2607 74.5498V79.6141H37.4672V75.5289C37.3153 75.6302 37.1634 75.7146 36.9946 75.799C36.8427 75.8834 36.6401 75.951 36.4206 75.9847V75.2926C36.5726 75.2588 36.6907 75.1913 36.8089 75.1407C36.9439 75.09 37.0452 75.0394 37.1803 74.9887C37.3153 74.9212 37.4166 74.8537 37.5517 74.7862C37.6867 74.7018 37.8049 74.6342 37.9399 74.533L38.2607 74.5498ZM42.8354 79.6985C42.3121 79.6985 41.9238 79.4791 41.62 79.057C41.333 78.635 41.1811 78.0273 41.1811 77.217C41.1811 76.3392 41.333 75.6809 41.6537 75.2251C41.9576 74.7693 42.3965 74.5498 42.9704 74.5498C44.0677 74.5498 44.6079 75.3939 44.6079 77.0989C44.6079 77.926 44.456 78.5675 44.1352 79.0233C43.8314 79.4791 43.3925 79.6985 42.8354 79.6985ZM42.9198 75.2082C42.329 75.2082 42.0251 75.8666 42.0251 77.2001C42.0251 78.4325 42.3121 79.057 42.9198 79.057C43.5106 79.057 43.7807 78.4156 43.7807 77.1664C43.7638 75.8665 43.4937 75.2082 42.9198 75.2082ZM48.9463 74.5498V79.6141H48.1529V75.5289C48.001 75.6302 47.849 75.7146 47.6802 75.799C47.5283 75.8834 47.3257 75.951 47.1063 75.9847V75.2926C47.2582 75.2588 47.3764 75.1913 47.4945 75.1407C47.6296 75.09 47.7309 75.0394 47.8659 74.9887C48.001 74.9212 48.1022 74.8537 48.2373 74.7862C48.3723 74.7018 48.4905 74.6342 48.6256 74.533L48.9463 74.5498ZM53.521 79.6985C52.9977 79.6985 52.6095 79.4791 52.3056 79.057C52.0186 78.635 51.8667 78.0273 51.8667 77.217C51.8667 76.3392 52.0186 75.6809 52.3394 75.2251C52.6432 74.7693 53.0821 74.5498 53.6561 74.5498C54.7533 74.5498 55.2935 75.3939 55.2935 77.0989C55.2935 77.926 55.1416 78.5675 54.8209 79.0233C54.517 79.4791 54.0781 79.6985 53.521 79.6985ZM53.6054 75.2082C53.0146 75.2082 52.7107 75.8666 52.7107 77.2001C52.7107 78.4325 52.9977 79.057 53.6054 79.057C54.1963 79.057 54.4664 78.4156 54.4664 77.1664C54.4664 75.8665 54.1794 75.2082 53.6054 75.2082ZM59.6151 74.5498V79.6141H58.8217V75.5289C58.6697 75.6302 58.5178 75.7146 58.349 75.799C58.1971 75.8834 57.9945 75.951 57.775 75.9847V75.2926C57.927 75.2588 58.0451 75.1913 58.1633 75.1407C58.2983 75.09 58.3996 75.0394 58.5347 74.9887C58.6697 74.9212 58.771 74.8537 58.9061 74.7862C59.0411 74.7018 59.1593 74.6342 59.2943 74.533L59.6151 74.5498ZM64.2236 79.6985C63.7002 79.6985 63.312 79.4791 63.0081 79.057C62.7211 78.635 62.5692 78.0273 62.5692 77.217C62.5692 76.3392 62.7211 75.6809 63.0419 75.2251C63.3457 74.7693 63.7846 74.5498 64.3586 74.5498C65.4559 74.5498 65.9961 75.3939 65.9961 77.0989C65.9961 77.926 65.8441 78.5675 65.5234 79.0233C65.2026 79.4791 64.7637 79.6985 64.2236 79.6985ZM64.2911 75.2082C63.7002 75.2082 63.3964 75.8666 63.3964 77.2001C63.3964 78.4325 63.6834 79.057 64.2911 79.057C64.8819 79.057 65.152 78.4156 65.152 77.1664C65.152 75.8665 64.865 75.2082 64.2911 75.2082ZM70.3176 74.5498V79.6141H69.5242V75.5289C69.3722 75.6302 69.2203 75.7146 69.0515 75.799C68.8996 75.8834 68.697 75.951 68.4776 75.9847V75.2926C68.6295 75.2588 68.7477 75.1913 68.8658 75.1407C69.0009 75.09 69.1021 75.0394 69.2372 74.9887C69.3722 74.9212 69.4735 74.8537 69.6086 74.7862C69.7436 74.7018 69.8618 74.6342 69.9968 74.533L70.3176 74.5498ZM74.8923 79.6985C74.369 79.6985 73.9807 79.4791 73.6769 79.057C73.373 78.635 73.238 78.0273 73.238 77.217C73.238 76.3392 73.3899 75.6809 73.7106 75.2251C74.0145 74.7693 74.4534 74.5498 75.0274 74.5498C76.1246 74.5498 76.6648 75.3939 76.6648 77.0989C76.6648 77.926 76.5129 78.5675 76.1921 79.0233C75.8883 79.4791 75.4494 79.6985 74.8923 79.6985ZM74.9936 75.2082C74.4028 75.2082 74.0989 75.8666 74.0989 77.2001C74.0989 78.4325 74.3859 79.057 74.9936 79.057C75.5844 79.057 75.8545 78.4156 75.8545 77.1664C75.8377 75.8665 75.5338 75.2082 74.9936 75.2082ZM81.0032 74.5498V79.6141H80.2098V75.5289C80.0579 75.6302 79.9059 75.7146 79.7371 75.799C79.5852 75.8834 79.3826 75.951 79.1632 75.9847V75.2926C79.3151 75.2588 79.4333 75.1913 79.5514 75.1407C79.6865 75.09 79.7878 75.0394 79.9228 74.9887C80.0579 74.9212 80.1592 74.8537 80.2942 74.7862C80.4293 74.7018 80.5474 74.6342 80.6825 74.533L81.0032 74.5498Z" fill="url(#paint3_linear_903_2879)"/>
<path fill-rule="evenodd" clip-rule="evenodd" d="M54.8364 40.1219C54.8364 39.8955 55.02 39.7119 55.2464 39.7119H66.2168V40.5319H55.6564V64.5766H66.1998V65.3966H55.2464C55.02 65.3966 54.8364 65.213 54.8364 64.9866V40.1219Z" fill="white"/>
<path fill-rule="evenodd" clip-rule="evenodd" d="M54.5923 52.1443H66.2007V52.9643H54.5923V52.1443Z" fill="white"/>
<path opacity="0.15" d="M81.4675 46.4944H64.3147C63.974 46.4944 63.6978 46.7706 63.6978 47.1113V58.5087C63.6978 58.8494 63.974 59.1256 64.3147 59.1256H81.4675C81.8082 59.1256 82.0845 58.8494 82.0845 58.5087V47.1113C82.0845 46.7706 81.8082 46.4944 81.4675 46.4944Z" fill="#1F1D20"/>
<path d="M81.4675 45.9829H64.3147C63.974 45.9829 63.6978 46.2591 63.6978 46.5999V57.9972C63.6978 58.3379 63.974 58.6141 64.3147 58.6141H81.4675C81.8082 58.6141 82.0845 58.3379 82.0845 57.9972V46.5999C82.0845 46.2591 81.8082 45.9829 81.4675 45.9829Z" fill="white"/>
<path opacity="0.15" d="M81.4675 32.2878H64.3147C63.974 32.2878 63.6978 32.5641 63.6978 32.9048V44.3021C63.6978 44.6428 63.974 44.9191 64.3147 44.9191H81.4675C81.8082 44.9191 82.0845 44.6428 82.0845 44.3021V32.9048C82.0845 32.5641 81.8082 32.2878 81.4675 32.2878Z" fill="#1F1D20"/>
<path d="M81.4675 31.7769H64.3147C63.974 31.7769 63.6978 32.0531 63.6978 32.3938V43.7911C63.6978 44.1319 63.974 44.4081 64.3147 44.4081H81.4675C81.8082 44.4081 82.0845 44.1319 82.0845 43.7911V32.3938C82.0845 32.0531 81.8082 31.7769 81.4675 31.7769Z" fill="white"/>
<path opacity="0.15" d="M81.4675 60.7004H64.3147C63.974 60.7004 63.6978 60.9767 63.6978 61.3174V72.7147C63.6978 73.0554 63.974 73.3317 64.3147 73.3317H81.4675C81.8082 73.3317 82.0845 73.0554 82.0845 72.7147V61.3174C82.0845 60.9767 81.8082 60.7004 81.4675 60.7004Z" fill="#1F1D20"/>
<path d="M81.4675 60.189H64.3147C63.974 60.189 63.6978 60.4652 63.6978 60.8059V72.2032C63.6978 72.544 63.974 72.8202 64.3147 72.8202H81.4675C81.8082 72.8202 82.0845 72.544 82.0845 72.2032V60.8059C82.0845 60.4652 81.8082 60.189 81.4675 60.189Z" fill="white"/>
<path opacity="0.15" d="M59.6922 73.84C60.3374 73.84 60.8491 73.3283 60.8491 72.6831V33.5024H20.5449V72.6942C20.5449 73.3394 21.0567 73.8511 21.7019 73.8511L59.6922 73.84Z" fill="#1F1D20"/>
<path d="M60.838 33.8364V33.2135C60.838 32.4347 60.215 31.8118 59.4363 31.8118H21.9466C21.1679 31.8118 20.5449 32.4347 20.5449 33.2135V33.9032V34.5373V71.4596C20.5449 72.2383 21.1679 72.8613 21.9466 72.8613H59.4474C60.2261 72.8613 60.8491 72.2383 60.8491 71.4596V33.9143C60.8491 33.8809 60.838 33.8698 60.838 33.8364Z" fill="white"/>
<path d="M54.9737 40.989H26.4212C25.8347 40.989 25.3613 41.4412 25.3613 41.9923V61.6632C25.3613 62.2144 25.8347 62.6666 26.4212 62.6666H54.9737C55.5601 62.6666 56.0335 62.2144 56.0335 61.6632V41.9994C56.0335 41.4412 55.5531 40.989 54.9737 40.989Z" fill="url(#paint4_linear_903_2879)"/>
<path d="M56.9661 43.5119L56.203 42.7771L43.9864 55.5024C43.2516 56.2726 42.2765 56.7036 41.2379 56.7177C40.2345 56.7319 39.2241 56.3362 38.461 55.5943L25.9265 43.3565L25.1917 44.1125L34.37 53.0789L24.478 61.2822L25.1563 62.0947L35.1331 53.8208L37.7333 56.3574C38.673 57.2759 39.9025 57.7776 41.1884 57.7776C41.2167 57.7776 41.2449 57.7776 41.2661 57.7776C42.5874 57.7564 43.8239 57.2053 44.7566 56.2373L47.0812 53.8137L55.3693 60.7734L56.0476 59.9609L47.816 53.0436L56.9661 43.5119Z" fill="url(#paint5_linear_903_2879)"/>
<path d="M56.0969 39.1943H25.2975C24.6686 39.1943 24.1528 39.7101 24.1528 40.339V63.0057C24.1528 63.6346 24.6686 64.1504 25.2975 64.1504H56.0969C56.7257 64.1504 57.2415 63.6346 57.2415 63.0057V40.339C57.2344 39.7101 56.7257 39.1943 56.0969 39.1943ZM55.2066 61.1333C55.2066 61.6562 54.7544 62.0872 54.2032 62.0872H27.1911C26.64 62.0872 26.1878 61.6562 26.1878 61.1333V42.5293C26.1878 42.0065 26.64 41.5755 27.1911 41.5755H54.2032C54.7544 41.5755 55.2066 41.9994 55.2066 42.5293V61.1333V61.1333Z" fill="url(#paint6_linear_903_2879)"/>
<path opacity="0.15" d="M56.0969 64.1503H25.2975C24.6686 64.1503 24.1528 63.6345 24.1528 63.0056V63.8606C24.1528 64.4823 24.6686 64.9981 25.2975 65.0052H56.0969C56.7257 65.0052 57.2415 64.4894 57.2415 63.8606V63.0056C57.2344 63.6345 56.7257 64.1503 56.0969 64.1503Z" fill="#1F1D20"/>
<path opacity="0.15" d="M54.2035 62.0877H27.1913C26.6402 62.0877 26.188 61.6567 26.188 61.1338V61.4517C26.188 61.9746 26.6402 62.4056 27.1913 62.4056H54.2035C54.7546 62.4056 55.2068 61.9746 55.2068 61.4517V61.1338C55.2068 61.6637 54.7546 62.0877 54.2035 62.0877Z" fill="#1F1D20"/>
<path fill-rule="evenodd" clip-rule="evenodd" d="M58.3483 66.2015C58.3483 66.7227 57.9172 67.1474 57.4024 67.1474H48.8575C48.3427 67.1474 47.9116 66.7227 47.9116 66.2015V59.0786H58.3483V66.2015Z" fill="#30404D"/>
<path fill-rule="evenodd" clip-rule="evenodd" d="M58.3483 59.0787C58.3483 59.5999 57.9172 60.0246 57.4024 60.0246H48.8575C48.3427 60.031 47.9116 59.5999 47.9116 59.0787V58.1329C47.9116 57.6117 48.3427 57.187 48.8575 57.187H57.4024C57.9236 57.187 58.3483 57.6181 58.3483 58.1329V59.0787Z" fill="#546670"/>
<path fill-rule="evenodd" clip-rule="evenodd" d="M57.4024 60.2687H53.5997C53.3423 60.2687 53.1235 60.481 53.1235 60.7449V66.2013C53.1235 66.4586 52.9112 66.6774 52.6474 66.6774H48.8575C48.3427 66.6774 47.9116 66.2463 47.9116 65.7251V66.2013C47.9116 66.7224 48.3427 67.1471 48.8575 67.1471H57.4024C57.9236 67.1471 58.3483 66.716 58.3483 66.2013V59.3164C58.3483 59.8376 57.9236 60.2687 57.4024 60.2687Z" fill="#182A37"/>
<path fill-rule="evenodd" clip-rule="evenodd" d="M53.1299 61.9998C52.287 61.9998 51.605 62.6818 51.605 63.5247C51.605 64.3676 52.287 65.0497 53.1299 65.0497C53.9729 65.0497 54.6485 64.3612 54.6485 63.5247C54.6549 62.6818 53.9729 61.9998 53.1299 61.9998Z" fill="#50E6FF"/>
<path fill-rule="evenodd" clip-rule="evenodd" d="M50.9938 58.6085C50.9938 59.001 50.5691 59.3227 50.0479 59.3227C49.5267 59.3227 49.1021 59.001 49.1021 58.6085C49.1021 58.216 49.5267 57.8943 50.0479 57.8943C50.5691 57.8943 50.9938 58.2096 50.9938 58.6085Z" fill="#182A37"/>
<path fill-rule="evenodd" clip-rule="evenodd" d="M57.1642 58.6086C57.1642 59.0011 56.7395 59.3228 56.2183 59.3228C55.6971 59.3228 55.2725 59.0075 55.2725 58.6086C55.2725 58.2161 55.6971 57.8944 56.2183 57.8944C56.7395 57.8879 57.1642 58.2097 57.1642 58.6086Z" fill="#182A37"/>
<path fill-rule="evenodd" clip-rule="evenodd" d="M53.1299 51.9619C51.0323 51.9619 49.3271 53.6606 49.3271 55.7647V59.0784C49.5009 59.2264 49.7518 59.3229 50.0414 59.3229C50.3309 59.3229 50.5754 59.2264 50.7556 59.0784V55.7647C50.7556 54.4585 51.8237 53.3968 53.1235 53.3968C54.4297 53.3968 55.4913 54.4649 55.4913 55.7647V58.6087C55.4913 58.8661 55.8066 59.0848 56.2056 59.0848C56.5981 59.0848 56.9198 58.8725 56.9198 58.6087V55.7647C56.9262 53.6606 55.2211 51.9619 53.1299 51.9619Z" fill="#30404D"/>
<path fill-rule="evenodd" clip-rule="evenodd" d="M51.7659 53.5641C50.8522 53.9501 50.2795 54.8767 50.2795 55.8676V58.2998C50.2795 58.6087 49.9835 58.8403 49.6811 58.7567C49.5331 58.7181 49.4044 58.6666 49.3208 58.5958V59.072C49.4945 59.2199 49.7455 59.3165 50.035 59.3165C50.1122 59.3165 50.1959 59.31 50.2731 59.2907C50.3181 59.2843 50.3632 59.2714 50.4147 59.2585C50.434 59.2521 50.4597 59.2457 50.479 59.2328C50.5112 59.2199 50.5433 59.2071 50.5691 59.1878C50.582 59.1813 50.6013 59.1749 50.6141 59.162C50.6592 59.1363 50.6978 59.1041 50.7428 59.0784V55.7711C50.7428 54.5421 51.6822 53.5255 52.879 53.4096C52.538 53.3582 52.1584 53.4032 51.7659 53.5641Z" fill="#182A37"/>
<path fill-rule="evenodd" clip-rule="evenodd" d="M53.1302 51.9619C53.053 51.9619 52.9693 51.9683 52.8921 51.9748C54.8803 52.1035 56.4503 53.7443 56.4503 55.7582V58.2934C56.4503 58.6023 56.1544 58.8339 55.8519 58.7502C55.7039 58.7116 55.5753 58.6602 55.4916 58.5894V59.0655C55.6653 59.2135 55.9227 59.31 56.2058 59.31C56.4889 59.31 56.7399 59.2135 56.92 59.0655V55.7582C56.9265 53.6606 55.2214 51.9619 53.1302 51.9619Z" fill="#182A37"/>
<path d="M74.0353 38.2925C73.7671 38.2925 73.5099 38.186 73.3201 37.9965C73.1304 37.807 73.0236 37.5499 73.0233 37.2817C72.7691 37.2846 72.5219 37.3658 72.3156 37.5143C72.1093 37.6628 71.9538 37.8714 71.8705 38.1116C71.7871 38.3518 71.78 38.6118 71.8499 38.8562C71.9199 39.1006 72.0636 39.3175 72.2614 39.4772C72.4592 39.6369 72.7015 39.7316 72.9552 39.7484C73.2088 39.7653 73.4615 39.7034 73.6787 39.5713C73.8959 39.4392 74.067 39.2432 74.1687 39.0102C74.2704 38.7772 74.2976 38.5185 74.2468 38.2694C74.1773 38.2844 74.1064 38.2922 74.0353 38.2925Z" fill="url(#paint7_linear_903_2879)"/>
<path d="M75.461 39.8096C75.4158 39.3644 75.2763 38.9339 75.0517 38.5468C75.0203 39.0563 74.796 39.5347 74.4244 39.8847C74.0528 40.2347 73.5619 40.4301 73.0514 40.431C73.0034 40.431 72.9585 40.4204 72.9117 40.4167C71.851 40.4027 70.8349 39.9882 70.0672 39.2562C69.4071 38.622 68.9176 37.8317 68.644 36.9583C68.2828 37.2865 67.9408 37.6352 67.6195 38.0027C67.562 38.0558 67.516 38.1203 67.4846 38.192C67.4532 38.2637 67.437 38.3412 67.437 38.4195C67.437 38.4978 67.4532 38.5752 67.4846 38.647C67.516 38.7187 67.562 38.7832 67.6195 38.8363C68.31 39.6643 69.1235 40.3814 70.0316 40.9626C70.9449 41.5885 72.026 41.9236 73.1331 41.9241C73.8527 41.9281 74.5627 41.7593 75.2033 41.4318C75.2439 41.4131 75.2788 41.3881 75.3188 41.3694C75.4608 40.8625 75.509 40.3339 75.461 39.8096V39.8096Z" fill="url(#paint8_linear_903_2879)"/>
<path d="M71.2784 39.3536C71.0712 38.9719 70.995 38.5328 71.0617 38.1037C71.1283 37.6745 71.334 37.2792 71.6472 36.9783C72.1529 36.2975 72.8619 35.795 73.6718 35.5433C74.1133 35.4084 74.5716 35.3362 75.0332 35.3286C74.6618 35.1677 74.273 35.0504 73.8746 34.9792C72.7835 34.7956 71.6623 34.9806 70.6882 35.5052C70.1431 35.7879 69.6288 36.1262 69.1533 36.5147C69.3777 37.3713 69.8306 38.1509 70.4636 38.7702C70.7077 39.0004 70.9818 39.1967 71.2784 39.3536V39.3536Z" fill="url(#paint9_linear_903_2879)"/>
<path d="M78.4986 38.0301C77.8888 37.2997 77.1847 36.6537 76.4047 36.109C75.589 35.8863 74.728 35.8906 73.9146 36.1215C73.6702 36.1959 73.4344 36.2963 73.2114 36.421C73.5599 36.4455 73.8959 36.5608 74.186 36.7554C74.212 36.7628 74.2368 36.774 74.2596 36.7885C74.7397 37.1109 75.1479 37.5292 75.4583 38.0172C75.7688 38.5051 75.9748 39.0521 76.0634 39.6236C76.1205 40.0717 76.1136 40.5257 76.0428 40.9719C76.9673 40.3843 77.795 39.6566 78.4961 38.815C78.5499 38.7648 78.5929 38.7042 78.6224 38.6368C78.6518 38.5694 78.6672 38.4966 78.6674 38.4231C78.6676 38.3495 78.6528 38.2767 78.6237 38.2091C78.5947 38.1415 78.5521 38.0805 78.4986 38.0301V38.0301Z" fill="url(#paint10_linear_903_2879)"/>
<path d="M72.6313 49.5945H66.3748C66.1028 49.5945 65.8833 49.8188 65.8833 50.086C65.8833 50.358 66.1076 50.5776 66.3748 50.5776H72.6265C72.8985 50.5776 73.1181 50.3533 73.1181 50.086C73.1228 49.814 72.9033 49.5945 72.6313 49.5945Z" fill="#50E6FF"/>
<path d="M72.6313 51.7324H66.3748C66.1028 51.7324 65.8833 51.9567 65.8833 52.224C65.8833 52.496 66.1076 52.7155 66.3748 52.7155H72.6265C72.8985 52.7155 73.1181 52.4912 73.1181 52.224C73.1228 51.9567 72.9033 51.7324 72.6313 51.7324Z" fill="#32B0E7"/>
<path fill-rule="evenodd" clip-rule="evenodd" d="M66.3748 54.0371H69.5007C69.7727 54.0371 69.9922 54.2614 69.9922 54.5287C69.9922 54.8007 69.7679 55.0202 69.5007 55.0202H66.3748C66.1028 55.0202 65.8833 54.7959 65.8833 54.5287C65.8833 54.2614 66.1028 54.0371 66.3748 54.0371Z" fill="#185A97"/>
<path d="M72.3111 65.7393C72.1879 65.2635 71.9404 64.813 71.5672 64.4399C70.4538 63.3264 68.6495 63.3266 67.5359 64.4402C66.4223 65.5538 66.4221 67.3581 67.5355 68.4716C68.6489 69.585 70.4533 69.5848 71.5669 68.4712C71.8507 68.1874 72.0621 67.8576 72.201 67.5062L73.8435 67.506L73.8652 67.5278L74.5911 66.8019L75.335 67.553L76.0645 66.8235L76.7818 67.5408L77.5367 66.7859L77.5488 66.7859L77.5259 66.8089L78.2456 67.5286L78.591 67.1832L78.5922 67.1844L79.3206 66.4561L78.5912 65.7267L72.3111 65.7393Z" fill="url(#paint11_linear_903_2879)"/>
<path d="M68.6398 67.0123C68.9407 66.7115 68.9407 66.2237 68.6399 65.923C68.3392 65.6222 67.8514 65.6222 67.5506 65.923C67.2497 66.2239 67.2497 66.7116 67.5505 67.0124C67.8513 67.3132 68.339 67.3132 68.6398 67.0123Z" fill="#50E6FF"/>
<defs>
<linearGradient id="paint0_linear_903_2879" x1="49.3711" y1="-13.02" x2="53.3531" y2="132.75" gradientUnits="userSpaceOnUse">
<stop stop-color="#00ABDE"/>
<stop offset="1" stop-color="#007ED8"/>
</linearGradient>
<linearGradient id="paint1_linear_903_2879" x1="2.57534" y1="-19.8532" x2="98.1029" y2="121.028" gradientUnits="userSpaceOnUse">
<stop stop-color="#007ED8"/>
<stop offset="0.7065" stop-color="#002D4C"/>
</linearGradient>
<linearGradient id="paint2_linear_903_2879" x1="39.9995" y1="26.7911" x2="124.216" y2="99.6596" gradientUnits="userSpaceOnUse">
<stop stop-color="#007ED8"/>
<stop offset="0.7065" stop-color="#002D4C"/>
</linearGradient>
<linearGradient id="paint3_linear_903_2879" x1="24.5179" y1="44.9614" x2="108.735" y2="117.83" gradientUnits="userSpaceOnUse">
<stop stop-color="#007ED8"/>
<stop offset="0.7065" stop-color="#002D4C"/>
</linearGradient>
<linearGradient id="paint4_linear_903_2879" x1="24.8475" y1="31.9703" x2="113.245" y2="142.748" gradientUnits="userSpaceOnUse">
<stop offset="0.0435" stop-color="white"/>
<stop offset="0.4857" stop-color="#4DC1EA"/>
<stop offset="0.8452" stop-color="#0078D4"/>
</linearGradient>
<linearGradient id="paint5_linear_903_2879" x1="40.7221" y1="42.7771" x2="40.7221" y2="62.0947" gradientUnits="userSpaceOnUse">
<stop stop-color="#008BF1"/>
<stop offset="0.22" stop-color="#0086EC"/>
<stop offset="0.49" stop-color="#0078DD"/>
<stop offset="0.79" stop-color="#0061C4"/>
<stop offset="1" stop-color="#004DAE"/>
</linearGradient>
<linearGradient id="paint6_linear_903_2879" x1="40.6972" y1="39.1943" x2="40.6972" y2="64.1504" gradientUnits="userSpaceOnUse">
<stop stop-color="#008BF1"/>
<stop offset="0.22" stop-color="#0086EC"/>
<stop offset="0.49" stop-color="#0078DD"/>
<stop offset="0.79" stop-color="#0061C4"/>
<stop offset="1" stop-color="#004DAE"/>
</linearGradient>
<linearGradient id="paint7_linear_903_2879" x1="73.037" y1="39.7487" x2="73.037" y2="37.2805" gradientUnits="userSpaceOnUse">
<stop stop-color="#29BADE"/>
<stop offset="1" stop-color="#50E6FF"/>
</linearGradient>
<linearGradient id="paint8_linear_903_2879" x1="71.4579" y1="41.9278" x2="71.4579" y2="34.9074" gradientUnits="userSpaceOnUse">
<stop offset="0.041" stop-color="#32BEDD"/>
<stop offset="0.495" stop-color="#50E6FF"/>
<stop offset="0.92" stop-color="#C3F1FF"/>
</linearGradient>
<linearGradient id="paint9_linear_903_2879" x1="72.0933" y1="39.0709" x2="72.0933" y2="32.9608" gradientUnits="userSpaceOnUse">
<stop offset="0.244" stop-color="#0078D4"/>
<stop offset="0.6" stop-color="#2E8CE1"/>
<stop offset="0.933" stop-color="#589EED"/>
</linearGradient>
<linearGradient id="paint10_linear_903_2879" x1="75.9392" y1="41.9277" x2="75.9392" y2="35.4183" gradientUnits="userSpaceOnUse">
<stop stop-color="#005BA1"/>
<stop offset="0.399" stop-color="#0078D4"/>
<stop offset="0.857" stop-color="#5EA0EF"/>
</linearGradient>
<linearGradient id="paint11_linear_903_2879" x1="68.9702" y1="63.0059" x2="75.8704" y2="69.9062" gradientUnits="userSpaceOnUse">
<stop stop-color="#008BF1"/>
<stop offset="0.22" stop-color="#0086EC"/>
<stop offset="0.49" stop-color="#0078DD"/>
<stop offset="0.79" stop-color="#0061C4"/>
<stop offset="1" stop-color="#004DAE"/>
</linearGradient>
</defs>
</svg>
