<svg width="103" height="103" viewBox="0 0 103 103" fill="none" xmlns="http://www.w3.org/2000/svg">
<path d="M51.0307 97.8558C25.1807 97.8558 4.2207 76.9058 4.2207 51.0458C4.2207 25.1858 25.1807 4.23584 51.0307 4.23584C76.8807 4.23584 97.8407 25.1958 97.8407 51.0458C97.8407 76.8958 76.8807 97.8558 51.0307 97.8558Z" fill="url(#paint0_linear)"/>
<path fill-rule="evenodd" clip-rule="evenodd" d="M96.9306 51.0458C96.9306 76.3958 76.3806 96.9458 51.0306 96.9458C25.6806 96.9458 5.13062 76.3958 5.13062 51.0458C5.13062 25.6958 25.6806 5.14576 51.0306 5.14576C76.3806 5.14576 96.9306 25.6958 96.9306 51.0458ZM51.0306 1.40576C78.4506 1.40576 100.671 23.6258 100.671 51.0458C100.671 78.4658 78.4406 100.686 51.0306 100.686C23.6106 100.686 1.39062 78.4558 1.39062 51.0458C1.39062 23.6258 23.6106 1.40576 51.0306 1.40576Z" fill="#F2F1F0"/>
<path fill-rule="evenodd" clip-rule="evenodd" d="M94.1202 51.0458C94.1202 74.8458 74.8302 94.1358 51.0302 94.1358C27.2302 94.1358 7.9402 74.8458 7.9402 51.0458C7.9402 27.2458 27.2302 7.95582 51.0302 7.95582C74.8302 7.95582 94.1202 27.2458 94.1202 51.0458ZM51.0302 4.21582C76.8902 4.21582 97.8602 25.1858 97.8602 51.0458C97.8602 76.9058 76.8902 97.8758 51.0302 97.8758C25.1702 97.8758 4.2002 76.9058 4.2002 51.0458C4.2002 25.1858 25.1602 4.21582 51.0302 4.21582Z" fill="url(#paint1_linear)"/>
<path opacity="0.15" d="M82.6201 79.7957L73.5101 70.7457C77.3501 65.7457 79.6301 59.4957 79.6301 52.7157C79.6301 36.3357 66.3401 23.0757 49.9801 23.0757C33.6201 23.0757 20.3301 36.3357 20.3301 52.7157C20.3301 69.0957 33.5901 82.3557 49.9701 82.3557C56.5401 82.3557 62.5901 80.2257 67.5301 76.6057L76.6901 85.7157C76.6901 85.7157 79.0101 86.6257 81.4401 84.0457C83.8701 81.4757 82.6201 79.7957 82.6201 79.7957ZM24.7501 52.8257C24.7501 38.9457 36.0101 27.6857 49.8901 27.6857C63.7701 27.6857 75.0301 38.9457 75.0301 52.8257C75.0301 66.7057 63.7401 77.9657 49.8601 77.9657C35.9801 77.9657 24.7501 66.7057 24.7501 52.8257Z" fill="#1F1D20"/>
<path d="M49.69 78.1657C64.82 78.1657 77.09 65.8957 77.09 50.7657C77.09 35.6357 64.82 23.3657 49.69 23.3657C34.56 23.3657 22.29 35.6357 22.29 50.7657C22.29 65.8957 34.56 78.1657 49.69 78.1657Z" fill="#185A97"/>
<path d="M84.5401 79.8057L73.5001 68.7657C77.3401 63.7657 79.6201 57.5157 79.6201 50.7357C79.6201 34.3557 66.3301 21.0957 49.9701 21.0957C33.6101 21.0957 20.3301 34.3557 20.3301 50.7357C20.3301 67.1157 33.5901 80.3757 49.9701 80.3757C56.5401 80.3757 62.5901 78.2457 67.5301 74.6257L78.6001 85.7257C78.6001 85.7257 79.7201 85.7357 82.1601 83.1657C84.5901 80.5857 84.5401 79.8057 84.5401 79.8057ZM24.7501 50.8357C24.7501 36.9557 36.0101 25.6957 49.8901 25.6957C63.7701 25.6957 75.0301 36.9557 75.0301 50.8357C75.0301 64.7157 63.7401 75.9757 49.8601 75.9757C35.9801 75.9757 24.7501 64.7157 24.7501 50.8357Z" fill="url(#paint2_linear)"/>
<path d="M37.6498 46.6556C37.6498 46.2656 37.3298 45.9556 36.9498 45.9556H28.4998C28.1098 45.9556 27.7998 46.2756 27.7998 46.6556C27.7998 47.0356 28.1198 47.3556 28.4998 47.3556H36.9598C37.3398 47.3556 37.6498 47.0456 37.6498 46.6556Z" fill="#0078D4"/>
<path d="M28.5002 47.4657C28.0602 47.4657 27.7002 47.1057 27.7002 46.6657C27.7002 46.2257 28.0602 45.8657 28.5002 45.8657H36.9502C37.3902 45.8657 37.7502 46.2257 37.7502 46.6657C37.7502 47.1057 37.4002 47.4557 36.9602 47.4657H28.5002ZM28.5002 46.0557C28.1702 46.0557 27.9002 46.3257 27.9002 46.6557C27.9002 46.9857 28.1702 47.2557 28.5002 47.2557H36.9602C37.2902 47.2457 37.5602 46.9857 37.5602 46.6557C37.5602 46.3257 37.2902 46.0557 36.9602 46.0557H28.5002Z" fill="white"/>
<path d="M40.0402 46.6561C40.0402 46.2661 39.7202 45.9561 39.3402 45.9561H37.0402C36.6502 45.9561 36.9002 46.2761 36.9002 46.6561C36.9002 47.0361 36.6502 47.3561 37.0402 47.3561H39.3502C39.7202 47.3561 40.0402 47.0461 40.0402 46.6561Z" fill="white"/>
<path d="M35.9102 46.6559C35.9102 47.4259 36.5302 48.0559 37.3102 48.0559C38.0902 48.0559 38.7102 47.4359 38.7102 46.6559C38.7102 45.8859 38.0802 45.2559 37.3002 45.2559C36.5302 45.2659 35.9102 45.8859 35.9102 46.6559Z" fill="#50E6FF"/>
<path d="M35.0498 50.1961C35.0498 49.8061 34.7298 49.4961 34.3498 49.4961H28.4998C28.1098 49.4961 27.7998 49.8161 27.7998 50.1961C27.7998 50.5861 28.1198 50.8961 28.4998 50.8961H34.3698C34.7398 50.8861 35.0498 50.5861 35.0498 50.1961Z" fill="#0078D4"/>
<path d="M28.5002 50.996C28.0602 50.996 27.7002 50.636 27.7002 50.196C27.7002 49.756 28.0602 49.396 28.5002 49.396H34.3502C34.7902 49.396 35.1502 49.756 35.1502 50.196C35.1502 50.636 34.8102 50.986 34.3702 50.996H28.5002ZM28.5002 49.596C28.1702 49.596 27.9002 49.866 27.9002 50.196C27.9002 50.526 28.1702 50.796 28.5002 50.796H34.3702C34.7002 50.786 34.9602 50.526 34.9602 50.196C34.9602 49.866 34.6902 49.596 34.3602 49.596H28.5002Z" fill="white"/>
<path d="M40.0401 50.1961C40.0401 49.8061 39.7201 49.4961 39.3401 49.4961H34.7801C34.3901 49.4961 34.0801 49.8161 34.0801 50.1961C34.0801 50.5861 34.4001 50.8961 34.7801 50.8961H39.3501C39.7201 50.8861 40.0401 50.5861 40.0401 50.1961Z" fill="white"/>
<path d="M32.8398 50.1959C32.8398 50.9659 33.4598 51.5959 34.2398 51.5959C35.0098 51.5959 35.6398 50.9759 35.6398 50.1959C35.6398 49.4259 35.0198 48.7959 34.2398 48.7959C33.4698 48.7959 32.8398 49.4259 32.8398 50.1959Z" fill="#50E6FF"/>
<path d="M31.7998 53.9461C31.7998 53.5561 31.4798 53.2461 31.0998 53.2461H28.4998C28.1098 53.2561 27.7998 53.5661 27.7998 53.9461C27.7998 54.3361 28.1198 54.6461 28.4998 54.6461H31.0998C31.4798 54.6361 31.7998 54.3261 31.7998 53.9461Z" fill="#0078D4"/>
<path d="M28.5002 54.746C28.0602 54.746 27.7002 54.386 27.7002 53.946C27.7002 53.516 28.0602 53.156 28.5002 53.146H31.1002C31.5402 53.146 31.9002 53.506 31.9002 53.946C31.9002 54.386 31.5502 54.736 31.1002 54.746H28.5002ZM28.5002 53.336C28.1702 53.346 27.9002 53.616 27.9002 53.936C27.9002 54.266 28.1702 54.536 28.5002 54.536H31.1002C31.4402 54.526 31.7002 54.266 31.7002 53.936C31.7002 53.606 31.4302 53.336 31.1002 53.336H28.5002Z" fill="white"/>
<path d="M40.0401 53.9461C40.0401 53.5561 39.7201 53.2461 39.3401 53.2461H31.7801C31.3901 53.2461 31.0801 53.5661 31.0801 53.9461C31.0801 54.3361 31.4001 54.6461 31.7801 54.6461H39.3401C39.7201 54.6361 40.0401 54.3261 40.0401 53.9461Z" fill="white"/>
<path d="M29.96 53.9459C29.96 54.7159 30.58 55.3459 31.36 55.3459C32.13 55.3459 32.76 54.7259 32.76 53.9459C32.76 53.1759 32.14 52.5459 31.36 52.5459C30.58 52.5459 29.96 53.1659 29.96 53.9459Z" fill="#50E6FF"/>
<path opacity="0.15" d="M54.0702 62.7558C54.0702 62.1758 53.6002 61.7158 53.0302 61.7158C52.4502 61.7158 51.9902 62.1858 51.9902 62.7558C51.9902 63.3358 52.4602 63.7958 53.0302 63.7958C53.6002 63.7958 54.0702 63.3358 54.0702 62.7558Z" fill="#1F1D20"/>
<path opacity="0.15" d="M58.79 62.7558C58.79 62.1758 58.32 61.7158 57.75 61.7158C57.18 61.7158 56.71 62.1858 56.71 62.7558C56.71 63.3358 57.18 63.7958 57.75 63.7958C58.32 63.7958 58.79 63.3358 58.79 62.7558Z" fill="#1F1D20"/>
<path opacity="0.15" d="M44.6298 62.7558C44.6298 62.1758 44.1598 61.7158 43.5898 61.7158C43.0098 61.7158 42.5498 62.1858 42.5498 62.7558C42.5498 63.3358 43.0198 63.7958 43.5898 63.7958C44.1698 63.7958 44.6298 63.3358 44.6298 62.7558Z" fill="#1F1D20"/>
<path opacity="0.15" d="M49.3505 62.7558C49.3505 62.1758 48.8805 61.7158 48.3105 61.7158C47.7305 61.7158 47.2705 62.1858 47.2705 62.7558C47.2705 63.3358 47.7405 63.7958 48.3105 63.7958C48.8905 63.7958 49.3505 63.3358 49.3505 62.7558Z" fill="#1F1D20"/>
<path opacity="0.15" d="M63.4999 62.7558C63.4999 62.1758 63.0299 61.7158 62.4599 61.7158C61.8799 61.7158 61.4199 62.1858 61.4199 62.7558C61.4199 63.3358 61.8899 63.7958 62.4599 63.7958C63.0399 63.7958 63.4999 63.3358 63.4999 62.7558Z" fill="#1F1D20"/>
<path opacity="0.15" d="M66.1406 62.756C66.1406 63.336 66.6106 63.796 67.1806 63.796C67.7506 63.796 68.2206 63.326 68.2206 62.756C68.2206 62.176 67.7506 61.716 67.1806 61.716C66.6006 61.706 66.1406 62.176 66.1406 62.756Z" fill="#1F1D20"/>
<path opacity="0.15" d="M54.0702 57.9961C54.0702 57.4161 53.6002 56.9561 53.0302 56.9561C52.4502 56.9561 51.9902 57.4261 51.9902 57.9961C51.9902 58.5761 52.4602 59.0361 53.0302 59.0361C53.6002 59.0361 54.0702 58.5561 54.0702 57.9961Z" fill="#1F1D20"/>
<path opacity="0.15" d="M58.79 57.9961C58.79 57.4161 58.32 56.9561 57.75 56.9561C57.18 56.9561 56.71 57.4261 56.71 57.9961C56.71 58.5761 57.18 59.0361 57.75 59.0361C58.32 59.0361 58.79 58.5561 58.79 57.9961Z" fill="#1F1D20"/>
<path opacity="0.15" d="M44.6298 57.9961C44.6298 57.4161 44.1598 56.9561 43.5898 56.9561C43.0098 56.9561 42.5498 57.4261 42.5498 57.9961C42.5498 58.5761 43.0198 59.0361 43.5898 59.0361C44.1698 59.0361 44.6298 58.5561 44.6298 57.9961Z" fill="#1F1D20"/>
<path opacity="0.15" d="M49.3505 57.9961C49.3505 57.4161 48.8805 56.9561 48.3105 56.9561C47.7305 56.9561 47.2705 57.4261 47.2705 57.9961C47.2705 58.5761 47.7405 59.0361 48.3105 59.0361C48.8905 59.0361 49.3505 58.5561 49.3505 57.9961Z" fill="#1F1D20"/>
<path opacity="0.15" d="M63.4999 57.9961C63.4999 57.4161 63.0299 56.9561 62.4599 56.9561C61.8799 56.9561 61.4199 57.4261 61.4199 57.9961C61.4199 58.5761 61.8899 59.0361 62.4599 59.0361C63.0399 59.0361 63.4999 58.5561 63.4999 57.9961Z" fill="#1F1D20"/>
<path opacity="0.15" d="M68.2206 57.9961C68.2206 57.4161 67.7506 56.9561 67.1806 56.9561C66.6006 56.9561 66.1406 57.4261 66.1406 57.9961C66.1406 58.5761 66.6106 59.0361 67.1806 59.0361C67.7506 59.0361 68.2206 58.5561 68.2206 57.9961Z" fill="#1F1D20"/>
<path opacity="0.15" d="M54.0702 53.226C54.0702 52.646 53.6002 52.186 53.0302 52.186C52.4502 52.186 51.9902 52.656 51.9902 53.226C51.9902 53.806 52.4602 54.266 53.0302 54.266C53.6002 54.266 54.0702 53.796 54.0702 53.226Z" fill="#1F1D20"/>
<path opacity="0.15" d="M57.7402 54.266C58.3102 54.266 58.7802 53.796 58.7802 53.226C58.7802 52.656 58.3102 52.186 57.7402 52.186C57.1702 52.186 56.7002 52.656 56.7002 53.226C56.7102 53.806 57.1702 54.266 57.7402 54.266Z" fill="#1F1D20"/>
<path opacity="0.15" d="M44.6298 53.226C44.6298 52.646 44.1598 52.186 43.5898 52.186C43.0098 52.186 42.5498 52.656 42.5498 53.226C42.5498 53.806 43.0198 54.266 43.5898 54.266C44.1698 54.266 44.6298 53.796 44.6298 53.226Z" fill="#1F1D20"/>
<path opacity="0.15" d="M48.3105 54.266C48.8805 54.266 49.3505 53.796 49.3505 53.226C49.3505 52.656 48.8805 52.186 48.3105 52.186C47.7405 52.186 47.2705 52.656 47.2705 53.226C47.2705 53.806 47.7305 54.266 48.3105 54.266Z" fill="#1F1D20"/>
<path opacity="0.15" d="M63.4999 53.226C63.4999 52.646 63.0299 52.186 62.4599 52.186C61.8799 52.186 61.4199 52.656 61.4199 53.226C61.4199 53.806 61.8899 54.266 62.4599 54.266C63.0399 54.266 63.4999 53.796 63.4999 53.226Z" fill="#1F1D20"/>
<path opacity="0.15" d="M67.1806 54.266C67.7506 54.266 68.2206 53.796 68.2206 53.226C68.2206 52.656 67.7506 52.186 67.1806 52.186C66.6106 52.186 66.1406 52.656 66.1406 53.226C66.1406 53.806 66.6106 54.266 67.1806 54.266Z" fill="#1F1D20"/>
<path opacity="0.15" d="M54.0702 48.4658C54.0702 47.8858 53.6002 47.4258 53.0302 47.4258C52.4502 47.4258 51.9902 47.8958 51.9902 48.4658C51.9902 49.0458 52.4602 49.5058 53.0302 49.5058C53.6002 49.5058 54.0702 49.0458 54.0702 48.4658Z" fill="#1F1D20"/>
<path opacity="0.15" d="M58.79 48.4658C58.79 47.8858 58.32 47.4258 57.75 47.4258C57.18 47.4258 56.71 47.8958 56.71 48.4658C56.71 49.0458 57.18 49.5058 57.75 49.5058C58.32 49.5058 58.79 49.0458 58.79 48.4658Z" fill="#1F1D20"/>
<path opacity="0.15" d="M44.6298 48.4658C44.6298 47.8858 44.1598 47.4258 43.5898 47.4258C43.0098 47.4258 42.5498 47.8958 42.5498 48.4658C42.5498 49.0358 43.0198 49.5058 43.5898 49.5058C44.1698 49.5058 44.6298 49.0458 44.6298 48.4658Z" fill="#1F1D20"/>
<path opacity="0.15" d="M49.3505 48.4658C49.3505 47.8858 48.8805 47.4258 48.3105 47.4258C47.7305 47.4258 47.2705 47.8958 47.2705 48.4658C47.2705 49.0458 47.7405 49.5058 48.3105 49.5058C48.8905 49.5058 49.3505 49.0458 49.3505 48.4658Z" fill="#1F1D20"/>
<path opacity="0.15" d="M63.4999 48.4658C63.4999 47.8858 63.0299 47.4258 62.4599 47.4258C61.8799 47.4258 61.4199 47.8958 61.4199 48.4658C61.4199 49.0458 61.8899 49.5058 62.4599 49.5058C63.0399 49.5058 63.4999 49.0458 63.4999 48.4658Z" fill="#1F1D20"/>
<path opacity="0.15" d="M68.2206 48.4658C68.2206 47.8858 67.7506 47.4258 67.1806 47.4258C66.6006 47.4258 66.1406 47.8958 66.1406 48.4658C66.1406 49.0458 66.6106 49.5058 67.1806 49.5058C67.7506 49.5058 68.2206 49.0458 68.2206 48.4658Z" fill="#1F1D20"/>
<path opacity="0.15" d="M54.0702 43.706C54.0702 43.126 53.6002 42.666 53.0302 42.666C52.4502 42.666 51.9902 43.136 51.9902 43.706C51.9902 44.276 52.4602 44.746 53.0302 44.746C53.6002 44.746 54.0702 44.266 54.0702 43.706Z" fill="#1F1D20"/>
<path opacity="0.15" d="M58.79 43.706C58.79 43.126 58.32 42.666 57.75 42.666C57.18 42.666 56.71 43.136 56.71 43.706C56.71 44.276 57.18 44.746 57.75 44.746C58.32 44.746 58.79 44.266 58.79 43.706Z" fill="#1F1D20"/>
<path opacity="0.15" d="M44.6298 43.706C44.6298 43.126 44.1598 42.666 43.5898 42.666C43.0098 42.666 42.5498 43.136 42.5498 43.706C42.5498 44.276 43.0198 44.746 43.5898 44.746C44.1698 44.746 44.6298 44.266 44.6298 43.706Z" fill="#1F1D20"/>
<path opacity="0.15" d="M49.3503 43.706C49.3503 43.126 48.8803 42.666 48.3103 42.666C47.7303 42.666 47.2803 43.136 47.2803 43.706C47.2803 44.276 47.7503 44.746 48.3103 44.746C48.8703 44.746 49.3503 44.266 49.3503 43.706Z" fill="#1F1D20"/>
<path opacity="0.15" d="M63.4999 43.706C63.4999 43.126 63.0299 42.666 62.4599 42.666C61.8799 42.666 61.4199 43.136 61.4199 43.706C61.4199 44.276 61.8899 44.746 62.4599 44.746C63.0399 44.746 63.4999 44.266 63.4999 43.706Z" fill="#1F1D20"/>
<path opacity="0.15" d="M68.2206 43.706C68.2206 43.126 67.7506 42.666 67.1806 42.666C66.6006 42.666 66.1406 43.136 66.1406 43.706C66.1406 44.276 66.6106 44.746 67.1806 44.746C67.7506 44.746 68.2206 44.266 68.2206 43.706Z" fill="#1F1D20"/>
<path opacity="0.15" d="M54.0702 38.936C54.0702 38.356 53.6002 37.896 53.0302 37.896C52.4502 37.896 51.9902 38.366 51.9902 38.936C51.9902 39.516 52.4602 39.976 53.0302 39.976C53.6002 39.976 54.0702 39.506 54.0702 38.936Z" fill="#1F1D20"/>
<path opacity="0.15" d="M58.79 38.936C58.79 38.356 58.32 37.896 57.75 37.896C57.18 37.896 56.71 38.366 56.71 38.936C56.71 39.516 57.18 39.976 57.75 39.976C58.32 39.976 58.79 39.506 58.79 38.936Z" fill="#1F1D20"/>
<path opacity="0.15" d="M44.6298 38.936C44.6298 38.356 44.1598 37.896 43.5898 37.896C43.0098 37.896 42.5498 38.366 42.5498 38.936C42.5498 39.516 43.0198 39.976 43.5898 39.976C44.1698 39.986 44.6298 39.506 44.6298 38.936Z" fill="#1F1D20"/>
<path opacity="0.15" d="M49.3503 38.936C49.3503 38.356 48.8803 37.896 48.3103 37.896C47.7303 37.896 47.2803 38.366 47.2803 38.936C47.2803 39.516 47.7503 39.976 48.3103 39.976C48.8703 39.976 49.3503 39.506 49.3503 38.936Z" fill="#1F1D20"/>
<path opacity="0.15" d="M63.4999 38.936C63.4999 38.356 63.0299 37.896 62.4599 37.896C61.8799 37.896 61.4199 38.366 61.4199 38.936C61.4199 39.516 61.8899 39.976 62.4599 39.976C63.0399 39.976 63.4999 39.506 63.4999 38.936Z" fill="#1F1D20"/>
<path opacity="0.15" d="M68.2206 38.936C68.2206 38.356 67.7506 37.896 67.1806 37.896C66.6006 37.896 66.1406 38.366 66.1406 38.936C66.1406 39.516 66.6106 39.976 67.1806 39.976C67.7506 39.976 68.2206 39.506 68.2206 38.936Z" fill="#1F1D20"/>
<path d="M54.0702 62.226C54.0702 61.646 53.6002 61.186 53.0302 61.186C52.4502 61.186 51.9902 61.656 51.9902 62.226C51.9902 62.806 52.4602 63.266 53.0302 63.266C53.6002 63.266 54.0702 62.806 54.0702 62.226Z" fill="#0078D4"/>
<path d="M53.0306 63.3659C52.4006 63.3659 51.8906 62.8559 51.8906 62.2259C51.8906 61.5959 52.4006 61.0859 53.0306 61.0859C53.6606 61.0859 54.1706 61.5959 54.1706 62.2259C54.1706 62.8559 53.6606 63.3659 53.0306 63.3659ZM53.0206 61.2859C52.5006 61.2859 52.0806 61.7059 52.0806 62.2259C52.0806 62.7459 52.5006 63.1659 53.0206 63.1659C53.5406 63.1659 53.9606 62.7359 53.9606 62.2259C53.9706 61.7059 53.5406 61.2859 53.0206 61.2859Z" fill="white"/>
<path d="M58.79 62.226C58.79 61.646 58.32 61.186 57.75 61.186C57.18 61.186 56.71 61.656 56.71 62.226C56.71 62.806 57.18 63.266 57.75 63.266C58.32 63.266 58.79 62.806 58.79 62.226Z" fill="#0078D4"/>
<path d="M57.7504 63.3659C57.1204 63.3659 56.6104 62.8559 56.6104 62.2259C56.6104 61.5959 57.1204 61.0859 57.7504 61.0859C58.3804 61.0859 58.8904 61.5959 58.8904 62.2259C58.8904 62.8559 58.3804 63.3659 57.7504 63.3659ZM57.7403 61.2859C57.2203 61.2859 56.8004 61.7059 56.8004 62.2259C56.8004 62.7459 57.2203 63.1659 57.7403 63.1659C58.2603 63.1659 58.6804 62.7359 58.6804 62.2259C58.6904 61.7059 58.2603 61.2859 57.7403 61.2859Z" fill="white"/>
<path d="M44.6298 62.226C44.6298 61.646 44.1598 61.186 43.5898 61.186C43.0098 61.186 42.5498 61.656 42.5498 62.226C42.5498 62.806 43.0198 63.266 43.5898 63.266C44.1698 63.276 44.6298 62.806 44.6298 62.226Z" fill="#3BCAF4"/>
<path d="M43.5902 63.3659C42.9602 63.3659 42.4502 62.8559 42.4502 62.2259C42.4502 61.5959 42.9602 61.0859 43.5902 61.0859C44.2202 61.0859 44.7302 61.5959 44.7302 62.2259C44.7302 62.8559 44.2202 63.3659 43.5902 63.3659ZM43.5902 61.2859C43.0702 61.2859 42.6502 61.7059 42.6502 62.2259C42.6502 62.7459 43.0702 63.1659 43.5902 63.1659C44.1102 63.1659 44.5302 62.7459 44.5302 62.2259C44.5302 61.7059 44.1102 61.2859 43.5902 61.2859Z" fill="white"/>
<path d="M49.3495 62.226C49.3495 61.646 48.8795 61.186 48.3095 61.186C47.7295 61.186 47.2695 61.656 47.2695 62.226C47.2695 62.806 47.7395 63.266 48.3095 63.266C48.8895 63.266 49.3495 62.806 49.3495 62.226Z" fill="#3BCAF4"/>
<path d="M48.3099 63.3659C47.6799 63.3659 47.1699 62.8559 47.1699 62.2259C47.1699 61.5959 47.6799 61.0859 48.3099 61.0859C48.9399 61.0859 49.4499 61.5959 49.4499 62.2259C49.4499 62.8659 48.9499 63.3659 48.3099 63.3659ZM48.3099 61.2859C47.7899 61.2859 47.3699 61.7059 47.3699 62.2259C47.3699 62.7459 47.7899 63.1659 48.3099 63.1659C48.8399 63.1659 49.2499 62.7459 49.2499 62.2259C49.2499 61.7059 48.8199 61.2859 48.3099 61.2859Z" fill="white"/>
<path d="M63.4999 62.226C63.4999 61.646 63.0299 61.186 62.4599 61.186C61.8799 61.186 61.4199 61.656 61.4199 62.226C61.4199 62.806 61.8899 63.266 62.4599 63.266C63.0399 63.266 63.4999 62.806 63.4999 62.226Z" fill="#0078D4"/>
<path d="M62.4603 63.3659C61.8303 63.3659 61.3203 62.8559 61.3203 62.2259C61.3203 61.5959 61.8303 61.0859 62.4603 61.0859C63.0903 61.0859 63.6003 61.5959 63.6003 62.2259C63.6003 62.8659 63.1003 63.3659 62.4603 63.3659ZM62.4603 61.2859C61.9403 61.2859 61.5203 61.7059 61.5203 62.2259C61.5203 62.7459 61.9403 63.1659 62.4603 63.1659C62.9903 63.1659 63.4003 62.7459 63.4003 62.2259C63.4003 61.7059 62.9803 61.2859 62.4603 61.2859Z" fill="white"/>
<path d="M66.1396 62.226C66.1396 62.806 66.6096 63.266 67.1796 63.266C67.7496 63.266 68.2197 62.796 68.2197 62.226C68.2197 61.646 67.7496 61.186 67.1796 61.186C66.5996 61.186 66.1396 61.656 66.1396 62.226Z" fill="#0078D4"/>
<path d="M67.18 63.3659C66.55 63.3659 66.04 62.8559 66.04 62.2259C66.04 61.5959 66.55 61.0859 67.18 61.0859C67.81 61.0859 68.32 61.5959 68.32 62.2259C68.33 62.8559 67.81 63.3659 67.18 63.3659ZM67.18 61.2859C66.66 61.2859 66.24 61.7059 66.24 62.2259C66.24 62.7459 66.66 63.1659 67.18 63.1659C67.7 63.1659 68.12 62.7459 68.12 62.2259C68.13 61.7059 67.7 61.2859 67.18 61.2859Z" fill="white"/>
<path d="M54.0702 57.4658C54.0702 56.8858 53.6002 56.4258 53.0302 56.4258C52.4502 56.4258 51.9902 56.8958 51.9902 57.4658C51.9902 58.0458 52.4602 58.5058 53.0302 58.5058C53.6002 58.5058 54.0702 58.0358 54.0702 57.4658Z" fill="#3BCAF4"/>
<path d="M53.0306 58.6057C52.4006 58.6057 51.8906 58.0957 51.8906 57.4657C51.8906 56.8357 52.4006 56.3257 53.0306 56.3257C53.6606 56.3257 54.1706 56.8357 54.1706 57.4657C54.1706 58.0957 53.6606 58.6057 53.0306 58.6057ZM53.0206 56.5257C52.5006 56.5257 52.0806 56.9457 52.0806 57.4657C52.0806 57.9857 52.5006 58.4057 53.0206 58.4057C53.5406 58.4057 53.9606 57.9757 53.9606 57.4657C53.9706 56.9457 53.5406 56.5257 53.0206 56.5257Z" fill="white"/>
<path d="M58.79 57.4658C58.79 56.8858 58.32 56.4258 57.75 56.4258C57.18 56.4258 56.71 56.8958 56.71 57.4658C56.71 58.0458 57.18 58.5058 57.75 58.5058C58.32 58.5058 58.79 58.0358 58.79 57.4658Z" fill="#0078D4"/>
<path d="M57.7504 58.6057C57.1204 58.6057 56.6104 58.0957 56.6104 57.4657C56.6104 56.8357 57.1204 56.3257 57.7504 56.3257C58.3804 56.3257 58.8904 56.8357 58.8904 57.4657C58.8904 58.0957 58.3804 58.6057 57.7504 58.6057ZM57.7403 56.5257C57.2203 56.5257 56.8004 56.9457 56.8004 57.4657C56.8004 57.9857 57.2203 58.4057 57.7403 58.4057C58.2603 58.4057 58.6804 57.9757 58.6804 57.4657C58.6904 56.9457 58.2603 56.5257 57.7403 56.5257Z" fill="white"/>
<path d="M44.6298 57.4658C44.6298 56.8858 44.1598 56.4258 43.5898 56.4258C43.0098 56.4258 42.5498 56.8958 42.5498 57.4658C42.5498 58.0458 43.0198 58.5058 43.5898 58.5058C44.1698 58.5058 44.6298 58.0358 44.6298 57.4658Z" fill="#3BCAF4"/>
<path d="M43.5902 58.6057C42.9602 58.6057 42.4502 58.0957 42.4502 57.4657C42.4502 56.8357 42.9602 56.3257 43.5902 56.3257C44.2202 56.3257 44.7302 56.8357 44.7302 57.4657C44.7302 58.0957 44.2202 58.6057 43.5902 58.6057ZM43.5902 56.5257C43.0702 56.5257 42.6502 56.9457 42.6502 57.4657C42.6502 57.9857 43.0702 58.4057 43.5902 58.4057C44.1102 58.4057 44.5302 57.9857 44.5302 57.4657C44.5302 56.9457 44.1102 56.5257 43.5902 56.5257Z" fill="white"/>
<path d="M49.3495 57.4658C49.3495 56.8858 48.8795 56.4258 48.3095 56.4258C47.7295 56.4258 47.2695 56.8958 47.2695 57.4658C47.2695 58.0458 47.7395 58.5058 48.3095 58.5058C48.8895 58.5058 49.3495 58.0358 49.3495 57.4658Z" fill="#3BCAF4"/>
<path d="M48.3099 58.6057C47.6799 58.6057 47.1699 58.0957 47.1699 57.4657C47.1699 56.8357 47.6799 56.3257 48.3099 56.3257C48.9399 56.3257 49.4499 56.8357 49.4499 57.4657C49.4499 58.0957 48.9399 58.6057 48.3099 58.6057ZM48.3099 56.5257C47.7899 56.5257 47.3699 56.9457 47.3699 57.4657C47.3699 57.9857 47.7899 58.4057 48.3099 58.4057C48.8299 58.4057 49.2499 57.9757 49.2499 57.4657C49.2499 56.9457 48.8199 56.5257 48.3099 56.5257Z" fill="white"/>
<path d="M63.4999 57.4658C63.4999 56.8858 63.0299 56.4258 62.4599 56.4258C61.8799 56.4258 61.4199 56.8958 61.4199 57.4658C61.4199 58.0458 61.8899 58.5058 62.4599 58.5058C63.0399 58.5058 63.4999 58.0358 63.4999 57.4658Z" fill="#0078D4"/>
<path d="M62.4603 58.6057C61.8303 58.6057 61.3203 58.0957 61.3203 57.4657C61.3203 56.8357 61.8303 56.3257 62.4603 56.3257C63.0903 56.3257 63.6003 56.8357 63.6003 57.4657C63.6003 58.0957 63.0903 58.6057 62.4603 58.6057ZM62.4603 56.5257C61.9403 56.5257 61.5203 56.9457 61.5203 57.4657C61.5203 57.9857 61.9403 58.4057 62.4603 58.4057C62.9803 58.4057 63.4003 57.9757 63.4003 57.4657C63.4003 56.9457 62.9803 56.5257 62.4603 56.5257Z" fill="white"/>
<path d="M68.2197 57.4658C68.2197 56.8858 67.7496 56.4258 67.1796 56.4258C66.5996 56.4258 66.1396 56.8958 66.1396 57.4658C66.1396 58.0458 66.6096 58.5058 67.1796 58.5058C67.7496 58.5058 68.2197 58.0358 68.2197 57.4658Z" fill="#0078D4"/>
<path d="M67.18 58.6057C66.55 58.6057 66.04 58.0957 66.04 57.4657C66.04 56.8357 66.55 56.3257 67.18 56.3257C67.81 56.3257 68.32 56.8357 68.32 57.4657C68.32 58.0957 67.81 58.6057 67.18 58.6057ZM67.18 56.5257C66.66 56.5257 66.24 56.9457 66.24 57.4657C66.24 57.9857 66.66 58.4057 67.18 58.4057C67.7 58.4057 68.12 57.9757 68.12 57.4657C68.12 56.9457 67.7 56.5257 67.18 56.5257Z" fill="white"/>
<path d="M54.0702 52.6958C54.0702 52.1158 53.6002 51.6558 53.0302 51.6558C52.4502 51.6558 51.9902 52.1258 51.9902 52.6958C51.9902 53.2658 52.4602 53.7358 53.0302 53.7358C53.6002 53.7458 54.0702 53.2758 54.0702 52.6958Z" fill="#3BCAF4"/>
<path d="M53.0199 53.8459C52.3899 53.8459 51.8799 53.3359 51.8799 52.7059C51.8799 52.0759 52.3899 51.5659 53.0199 51.5659C53.6499 51.5659 54.1599 52.0759 54.1599 52.7059C54.1599 53.3359 53.6499 53.8459 53.0199 53.8459ZM53.0199 51.7559C52.4999 51.7559 52.0799 52.1759 52.0799 52.6959C52.0799 53.2159 52.4999 53.6359 53.0199 53.6359C53.5399 53.6359 53.9599 53.2159 53.9599 52.6959C53.9599 52.1759 53.5399 51.7559 53.0199 51.7559Z" fill="white"/>
<path d="M57.7402 53.746C58.3102 53.746 58.7802 53.276 58.7802 52.706C58.7802 52.136 58.3102 51.666 57.7402 51.666C57.1702 51.666 56.7002 52.136 56.7002 52.706C56.7102 53.276 57.1702 53.746 57.7402 53.746Z" fill="#3BCAF4"/>
<path d="M57.7406 53.8459C57.1106 53.8459 56.6006 53.3359 56.6006 52.7059C56.6006 52.0759 57.1106 51.5659 57.7406 51.5659C58.3706 51.5659 58.8806 52.0759 58.8806 52.7059C58.8806 53.3359 58.3806 53.8459 57.7406 53.8459ZM57.7406 51.7559C57.2206 51.7559 56.8006 52.1759 56.8006 52.6959C56.8006 53.2159 57.2306 53.6359 57.7406 53.6359C58.2606 53.6359 58.6806 53.2159 58.6806 52.6959C58.6806 52.1759 58.2606 51.7559 57.7406 51.7559Z" fill="white"/>
<path d="M44.6298 52.6958C44.6298 52.1158 44.1598 51.6558 43.5898 51.6558C43.0098 51.6558 42.5498 52.1258 42.5498 52.6958C42.5498 53.2658 43.0198 53.7358 43.5898 53.7358C44.1698 53.7458 44.6298 53.2758 44.6298 52.6958Z" fill="#50E6FF"/>
<path d="M43.5902 53.8459C42.9602 53.8459 42.4502 53.3359 42.4502 52.7059C42.4502 52.0759 42.9602 51.5659 43.5902 51.5659C44.2202 51.5659 44.7302 52.0759 44.7302 52.7059C44.7302 53.3359 44.2202 53.8459 43.5902 53.8459ZM43.5902 51.7559C43.0702 51.7559 42.6502 52.1759 42.6502 52.6959C42.6502 53.2159 43.0702 53.6359 43.5902 53.6359C44.1102 53.6359 44.5302 53.2159 44.5302 52.6959C44.5302 52.1759 44.1102 51.7559 43.5902 51.7559Z" fill="white"/>
<path d="M48.3095 53.746C48.8795 53.746 49.3495 53.276 49.3495 52.706C49.3495 52.136 48.8795 51.666 48.3095 51.666C47.7395 51.666 47.2695 52.136 47.2695 52.706C47.2695 53.276 47.7295 53.746 48.3095 53.746Z" fill="#3BCAF4"/>
<path d="M48.3099 53.8459C47.6799 53.8459 47.1699 53.3359 47.1699 52.7059C47.1699 52.0759 47.6799 51.5659 48.3099 51.5659C48.9399 51.5659 49.4499 52.0759 49.4499 52.7059C49.4499 53.3359 48.9399 53.8459 48.3099 53.8459ZM48.3099 51.7559C47.7899 51.7559 47.3699 52.1759 47.3699 52.6959C47.3699 53.2159 47.7899 53.6359 48.3099 53.6359C48.8299 53.6359 49.2499 53.2159 49.2499 52.6959C49.2499 52.1759 48.8299 51.7559 48.3099 51.7559Z" fill="white"/>
<path d="M63.4999 52.6958C63.4999 52.1158 63.0299 51.6558 62.4599 51.6558C61.8799 51.6558 61.4199 52.1258 61.4199 52.6958C61.4199 53.2658 61.8899 53.7358 62.4599 53.7358C63.0399 53.7458 63.4999 53.2758 63.4999 52.6958Z" fill="#3BCAF4"/>
<path d="M62.4603 53.8459C61.8303 53.8459 61.3203 53.3359 61.3203 52.7059C61.3203 52.0759 61.8303 51.5659 62.4603 51.5659C63.0903 51.5659 63.6003 52.0759 63.6003 52.7059C63.6003 53.3359 63.0903 53.8459 62.4603 53.8459ZM62.4603 51.7559C61.9403 51.7559 61.5203 52.1759 61.5203 52.6959C61.5203 53.2159 61.9403 53.6359 62.4603 53.6359C62.9803 53.6359 63.4003 53.2159 63.4003 52.6959C63.4003 52.1759 62.9803 51.7559 62.4603 51.7559Z" fill="white"/>
<path d="M67.1796 53.746C67.7496 53.746 68.2197 53.276 68.2197 52.706C68.2197 52.136 67.7496 51.666 67.1796 51.666C66.6096 51.666 66.1396 52.136 66.1396 52.706C66.1396 53.276 66.6096 53.746 67.1796 53.746Z" fill="#0078D4"/>
<path d="M67.18 53.8459C66.55 53.8459 66.04 53.3359 66.04 52.7059C66.04 52.0759 66.55 51.5659 67.18 51.5659C67.81 51.5659 68.32 52.0759 68.32 52.7059C68.32 53.3359 67.81 53.8459 67.18 53.8459ZM67.18 51.7559C66.66 51.7559 66.24 52.1759 66.24 52.6959C66.24 53.2159 66.67 53.6359 67.18 53.6359C67.7 53.6359 68.12 53.2159 68.12 52.6959C68.12 52.1759 67.7 51.7559 67.18 51.7559Z" fill="white"/>
<path d="M54.0702 47.936C54.0702 47.356 53.6002 46.896 53.0302 46.896C52.4502 46.896 51.9902 47.366 51.9902 47.936C51.9902 48.516 52.4602 48.976 53.0302 48.976C53.6002 48.986 54.0702 48.516 54.0702 47.936Z" fill="#50E6FF"/>
<path d="M53.0199 49.0759C52.3899 49.0759 51.8799 48.5659 51.8799 47.9359C51.8799 47.3059 52.3899 46.7959 53.0199 46.7959C53.6499 46.7959 54.1599 47.3059 54.1599 47.9359C54.1699 48.5659 53.6499 49.0759 53.0199 49.0759ZM53.0199 46.9959C52.4999 46.9959 52.0799 47.4159 52.0799 47.9359C52.0799 48.4559 52.4999 48.8759 53.0199 48.8759C53.5399 48.8759 53.9599 48.4559 53.9599 47.9359C53.9699 47.4159 53.5399 46.9959 53.0199 46.9959Z" fill="white"/>
<path d="M58.7909 47.936C58.7909 47.356 58.3209 46.896 57.7509 46.896C57.1809 46.896 56.7109 47.366 56.7109 47.936C56.7109 48.516 57.1809 48.976 57.7509 48.976C58.3209 48.976 58.7909 48.516 58.7909 47.936Z" fill="#50E6FF"/>
<path d="M57.7406 49.0759C57.1106 49.0759 56.6006 48.5659 56.6006 47.9359C56.6006 47.3059 57.1106 46.7959 57.7406 46.7959C58.3706 46.7959 58.8806 47.3059 58.8806 47.9359C58.8906 48.5659 58.3806 49.0759 57.7406 49.0759ZM57.7406 46.9959C57.2206 46.9959 56.8006 47.4159 56.8006 47.9359C56.8006 48.4559 57.2206 48.8759 57.7406 48.8759C58.2606 48.8759 58.6806 48.4559 58.6806 47.9359C58.6906 47.4159 58.2606 46.9959 57.7406 46.9959Z" fill="white"/>
<path d="M44.6298 47.936C44.6298 47.356 44.1598 46.896 43.5898 46.896C43.0098 46.896 42.5498 47.366 42.5498 47.936C42.5498 48.506 43.0198 48.976 43.5898 48.976C44.1698 48.986 44.6298 48.516 44.6298 47.936Z" fill="#50E6FF"/>
<path d="M43.5902 49.0759C42.9602 49.0759 42.4502 48.5659 42.4502 47.9359C42.4502 47.3059 42.9602 46.7959 43.5902 46.7959C44.2202 46.7959 44.7302 47.3059 44.7302 47.9359C44.7302 48.5659 44.2202 49.0759 43.5902 49.0759ZM43.5902 46.9959C43.0702 46.9959 42.6502 47.4159 42.6502 47.9359C42.6502 48.4559 43.0702 48.8759 43.5902 48.8759C44.1102 48.8759 44.5302 48.4559 44.5302 47.9359C44.5302 47.4159 44.1102 46.9959 43.5902 46.9959Z" fill="white"/>
<path d="M49.3495 47.936C49.3495 47.356 48.8795 46.896 48.3095 46.896C47.7295 46.896 47.2695 47.366 47.2695 47.936C47.2695 48.516 47.7395 48.976 48.3095 48.976C48.8895 48.986 49.3495 48.516 49.3495 47.936Z" fill="#50E6FF"/>
<path d="M48.3099 49.0759C47.6799 49.0759 47.1699 48.5659 47.1699 47.9359C47.1699 47.3059 47.6799 46.7959 48.3099 46.7959C48.9399 46.7959 49.4499 47.3059 49.4499 47.9359C49.4499 48.5659 48.9299 49.0759 48.3099 49.0759ZM48.3099 46.9959C47.7899 46.9959 47.3699 47.4159 47.3699 47.9359C47.3699 48.4559 47.7899 48.8759 48.3099 48.8759C48.8399 48.8759 49.2499 48.4559 49.2499 47.9359C49.2499 47.4159 48.8199 46.9959 48.3099 46.9959Z" fill="white"/>
<path d="M63.4999 47.936C63.4999 47.356 63.0299 46.896 62.4599 46.896C61.8799 46.896 61.4199 47.366 61.4199 47.936C61.4199 48.516 61.8899 48.976 62.4599 48.976C63.0399 48.986 63.4999 48.516 63.4999 47.936Z" fill="#50E6FF"/>
<path d="M62.4603 49.0759C61.8303 49.0759 61.3203 48.5659 61.3203 47.9359C61.3203 47.3059 61.8303 46.7959 62.4603 46.7959C63.0903 46.7959 63.6003 47.3059 63.6003 47.9359C63.6003 48.5659 63.0903 49.0759 62.4603 49.0759ZM62.4603 46.9959C61.9403 46.9959 61.5203 47.4159 61.5203 47.9359C61.5203 48.4559 61.9403 48.8759 62.4603 48.8759C62.9903 48.8759 63.4003 48.4559 63.4003 47.9359C63.4003 47.4159 62.9803 46.9959 62.4603 46.9959Z" fill="white"/>
<path d="M68.2197 47.936C68.2197 47.356 67.7496 46.896 67.1796 46.896C66.5996 46.896 66.1396 47.366 66.1396 47.936C66.1396 48.516 66.6096 48.976 67.1796 48.976C67.7496 48.986 68.2197 48.516 68.2197 47.936Z" fill="#50E6FF"/>
<path d="M67.18 49.0759C66.55 49.0759 66.04 48.5659 66.04 47.9359C66.04 47.3059 66.55 46.7959 67.18 46.7959C67.81 46.7959 68.32 47.3059 68.32 47.9359C68.32 48.5659 67.81 49.0759 67.18 49.0759ZM67.18 46.9959C66.66 46.9959 66.24 47.4159 66.24 47.9359C66.24 48.4559 66.66 48.8759 67.18 48.8759C67.7 48.8759 68.12 48.4559 68.12 47.9359C68.12 47.4159 67.7 46.9959 67.18 46.9959Z" fill="white"/>
<path d="M54.0702 43.1757C54.0702 42.5957 53.6002 42.1357 53.0302 42.1357C52.4502 42.1357 51.9902 42.6057 51.9902 43.1757C51.9902 43.7557 52.4602 44.2157 53.0302 44.2157C53.6002 44.2157 54.0702 43.7457 54.0702 43.1757Z" fill="#50E6FF"/>
<path d="M53.0306 44.3156C52.4006 44.3156 51.8906 43.8056 51.8906 43.1756C51.8906 42.5456 52.4006 42.0356 53.0306 42.0356C53.6606 42.0356 54.1706 42.5456 54.1706 43.1756C54.1706 43.8056 53.6606 44.3156 53.0306 44.3156ZM53.0206 42.2356C52.5006 42.2356 52.0806 42.6556 52.0806 43.1756C52.0806 43.6956 52.5006 44.1156 53.0206 44.1156C53.5406 44.1156 53.9606 43.6856 53.9606 43.1756C53.9706 42.6556 53.5406 42.2356 53.0206 42.2356Z" fill="white"/>
<path d="M58.79 43.1757C58.79 42.5957 58.32 42.1357 57.75 42.1357C57.18 42.1357 56.71 42.6057 56.71 43.1757C56.71 43.7557 57.18 44.2157 57.75 44.2157C58.32 44.2157 58.79 43.7457 58.79 43.1757Z" fill="#50E6FF"/>
<path d="M57.7504 44.3156C57.1204 44.3156 56.6104 43.8056 56.6104 43.1756C56.6104 42.5456 57.1204 42.0356 57.7504 42.0356C58.3804 42.0356 58.8904 42.5456 58.8904 43.1756C58.8904 43.8056 58.3804 44.3156 57.7504 44.3156ZM57.7403 42.2356C57.2203 42.2356 56.8004 42.6556 56.8004 43.1756C56.8004 43.6956 57.2203 44.1156 57.7403 44.1156C58.2603 44.1156 58.6804 43.6856 58.6804 43.1756C58.6904 42.6556 58.2603 42.2356 57.7403 42.2356Z" fill="white"/>
<path d="M44.6298 43.1757C44.6298 42.5957 44.1598 42.1357 43.5898 42.1357C43.0098 42.1357 42.5498 42.6057 42.5498 43.1757C42.5498 43.7557 43.0198 44.2157 43.5898 44.2157C44.1698 44.2157 44.6298 43.7457 44.6298 43.1757Z" fill="#9CEBFF"/>
<path d="M43.5902 44.3156C42.9602 44.3156 42.4502 43.8056 42.4502 43.1756C42.4502 42.5456 42.9602 42.0356 43.5902 42.0356C44.2202 42.0356 44.7302 42.5456 44.7302 43.1756C44.7302 43.8056 44.2202 44.3156 43.5902 44.3156ZM43.5902 42.2356C43.0702 42.2356 42.6502 42.6556 42.6502 43.1756C42.6502 43.6956 43.0702 44.1156 43.5902 44.1156C44.1102 44.1156 44.5302 43.6956 44.5302 43.1756C44.5302 42.6556 44.1102 42.2356 43.5902 42.2356Z" fill="white"/>
<path d="M49.3503 43.1757C49.3503 42.5957 48.8803 42.1357 48.3103 42.1357C47.7303 42.1357 47.2803 42.6057 47.2803 43.1757C47.2803 43.7557 47.7503 44.2157 48.3103 44.2157C48.8703 44.2157 49.3503 43.7457 49.3503 43.1757Z" fill="#9CEBFF"/>
<path d="M48.3107 44.3156C47.6807 44.3156 47.1807 43.8056 47.1807 43.1756C47.1807 42.5456 47.6907 42.0356 48.3107 42.0356C48.9407 42.0356 49.4507 42.5456 49.4507 43.1756C49.4507 43.8056 48.9307 44.3156 48.3107 44.3156ZM48.3007 42.2356C47.7807 42.2356 47.3707 42.6556 47.3707 43.1756C47.3707 43.6956 47.7907 44.1156 48.3007 44.1156C48.8107 44.1156 49.2407 43.6756 49.2407 43.1756C49.2507 42.6556 48.8207 42.2356 48.3007 42.2356Z" fill="white"/>
<path d="M63.4999 43.1757C63.4999 42.5957 63.0299 42.1357 62.4599 42.1357C61.8799 42.1357 61.4199 42.6057 61.4199 43.1757C61.4199 43.7557 61.8899 44.2157 62.4599 44.2157C63.0399 44.2157 63.4999 43.7457 63.4999 43.1757Z" fill="#50E6FF"/>
<path d="M62.4603 44.3156C61.8303 44.3156 61.3203 43.8056 61.3203 43.1756C61.3203 42.5456 61.8303 42.0356 62.4603 42.0356C63.0903 42.0356 63.6003 42.5456 63.6003 43.1756C63.6003 43.8056 63.0903 44.3156 62.4603 44.3156ZM62.4603 42.2356C61.9403 42.2356 61.5203 42.6556 61.5203 43.1756C61.5203 43.6956 61.9403 44.1156 62.4603 44.1156C62.9803 44.1156 63.4003 43.6856 63.4003 43.1756C63.4003 42.6556 62.9803 42.2356 62.4603 42.2356Z" fill="white"/>
<path d="M68.2197 43.1757C68.2197 42.5957 67.7496 42.1357 67.1796 42.1357C66.5996 42.1357 66.1396 42.6057 66.1396 43.1757C66.1396 43.7557 66.6096 44.2157 67.1796 44.2157C67.7496 44.2157 68.2197 43.7457 68.2197 43.1757Z" fill="#50E6FF"/>
<path d="M67.18 44.3156C66.55 44.3156 66.04 43.8056 66.04 43.1756C66.04 42.5456 66.55 42.0356 67.18 42.0356C67.81 42.0356 68.32 42.5456 68.32 43.1756C68.32 43.8056 67.81 44.3156 67.18 44.3156ZM67.18 42.2356C66.66 42.2356 66.24 42.6556 66.24 43.1756C66.24 43.6956 66.66 44.1156 67.18 44.1156C67.7 44.1156 68.12 43.6856 68.12 43.1756C68.12 42.6556 67.7 42.2356 67.18 42.2356Z" fill="white"/>
<path d="M54.0702 38.416C54.0702 37.836 53.6002 37.376 53.0302 37.376C52.4502 37.376 51.9902 37.846 51.9902 38.416C51.9902 38.996 52.4602 39.456 53.0302 39.456C53.6002 39.456 54.0702 38.986 54.0702 38.416Z" fill="#9CEBFF"/>
<path d="M53.0306 39.5559C52.4006 39.5559 51.8906 39.0459 51.8906 38.4159C51.8906 37.7859 52.4006 37.2759 53.0306 37.2759C53.6606 37.2759 54.1706 37.7859 54.1706 38.4159C54.1706 39.0359 53.6606 39.5559 53.0306 39.5559ZM53.0206 37.4659C52.5006 37.4659 52.0806 37.8859 52.0806 38.4059C52.0806 38.9259 52.5006 39.3459 53.0206 39.3459C53.5406 39.3459 53.9606 38.9159 53.9606 38.4059C53.9706 37.8959 53.5406 37.4659 53.0206 37.4659Z" fill="white"/>
<path d="M58.79 38.416C58.79 37.836 58.32 37.376 57.75 37.376C57.18 37.376 56.71 37.846 56.71 38.416C56.71 38.996 57.18 39.456 57.75 39.456C58.32 39.456 58.79 38.986 58.79 38.416Z" fill="#9CEBFF"/>
<path d="M57.7504 39.5559C57.1204 39.5559 56.6104 39.0459 56.6104 38.4159C56.6104 37.7859 57.1204 37.2759 57.7504 37.2759C58.3804 37.2759 58.8904 37.7859 58.8904 38.4159C58.8904 39.0359 58.3804 39.5559 57.7504 39.5559ZM57.7403 37.4659C57.2203 37.4659 56.8004 37.8859 56.8004 38.4059C56.8004 38.9259 57.2203 39.3459 57.7403 39.3459C58.2603 39.3459 58.6804 38.9159 58.6804 38.4059C58.6904 37.8959 58.2603 37.4659 57.7403 37.4659Z" fill="white"/>
<path d="M44.6298 38.416C44.6298 37.836 44.1598 37.376 43.5898 37.376C43.0098 37.376 42.5498 37.846 42.5498 38.416C42.5498 38.996 43.0198 39.456 43.5898 39.456C44.1698 39.456 44.6298 38.986 44.6298 38.416Z" fill="#9CEBFF"/>
<path d="M43.5902 39.5559C42.9602 39.5559 42.4502 39.0459 42.4502 38.4159C42.4502 37.7859 42.9602 37.2759 43.5902 37.2759C44.2202 37.2759 44.7302 37.7859 44.7302 38.4159C44.7302 39.0459 44.2202 39.5559 43.5902 39.5559ZM43.5902 37.4659C43.0702 37.4659 42.6502 37.8859 42.6502 38.4059C42.6502 38.9259 43.0702 39.3459 43.5902 39.3459C44.1102 39.3459 44.5302 38.9259 44.5302 38.4059C44.5302 37.8959 44.1102 37.4659 43.5902 37.4659Z" fill="white"/>
<path d="M49.3503 38.416C49.3503 37.836 48.8803 37.376 48.3103 37.376C47.7303 37.376 47.2803 37.846 47.2803 38.416C47.2803 38.996 47.7503 39.456 48.3103 39.456C48.8703 39.456 49.3503 38.986 49.3503 38.416Z" fill="#9CEBFF"/>
<path d="M48.3107 39.5559C47.6807 39.5559 47.1807 39.0459 47.1807 38.4159C47.1807 37.7859 47.6907 37.2759 48.3107 37.2759C48.9407 37.2759 49.4507 37.7859 49.4507 38.4159C49.4507 39.0359 48.9307 39.5559 48.3107 39.5559ZM48.3007 37.4659C47.7807 37.4659 47.3707 37.8859 47.3707 38.4059C47.3707 38.9259 47.7907 39.3459 48.3007 39.3459C48.8107 39.3459 49.2407 38.9059 49.2407 38.4059C49.2507 37.8959 48.8207 37.4659 48.3007 37.4659Z" fill="white"/>
<path d="M63.4999 38.416C63.4999 37.836 63.0299 37.376 62.4599 37.376C61.8799 37.376 61.4199 37.846 61.4199 38.416C61.4199 38.996 61.8899 39.456 62.4599 39.456C63.0399 39.456 63.4999 38.986 63.4999 38.416Z" fill="#9CEBFF"/>
<path d="M62.4603 39.5559C61.8303 39.5559 61.3203 39.0459 61.3203 38.4159C61.3203 37.7859 61.8303 37.2759 62.4603 37.2759C63.0903 37.2759 63.6003 37.7859 63.6003 38.4159C63.6003 39.0359 63.0903 39.5559 62.4603 39.5559ZM62.4603 37.4659C61.9403 37.4659 61.5203 37.8859 61.5203 38.4059C61.5203 38.9259 61.9403 39.3459 62.4603 39.3459C62.9803 39.3459 63.4003 38.9159 63.4003 38.4059C63.4003 37.8959 62.9803 37.4659 62.4603 37.4659Z" fill="white"/>
<path d="M68.2197 38.416C68.2197 37.836 67.7496 37.376 67.1796 37.376C66.5996 37.376 66.1396 37.846 66.1396 38.416C66.1396 38.996 66.6096 39.456 67.1796 39.456C67.7496 39.456 68.2197 38.986 68.2197 38.416Z" fill="#50E6FF"/>
<path d="M67.18 39.5559C66.55 39.5559 66.04 39.0459 66.04 38.4159C66.04 37.7859 66.55 37.2759 67.18 37.2759C67.81 37.2759 68.32 37.7859 68.32 38.4159C68.32 39.0359 67.81 39.5559 67.18 39.5559ZM67.18 37.4659C66.66 37.4659 66.24 37.8859 66.24 38.4059C66.24 38.9259 66.66 39.3459 67.18 39.3459C67.7 39.3459 68.12 38.9159 68.12 38.4059C68.12 37.8959 67.7 37.4659 67.18 37.4659Z" fill="white"/>
<defs>
<linearGradient id="paint0_linear" x1="49.2607" y1="-13.7482" x2="53.2437" y2="132.021" gradientUnits="userSpaceOnUse">
<stop stop-color="#00ABDE"/>
<stop offset="1" stop-color="#007ED8"/>
</linearGradient>
<linearGradient id="paint1_linear" x1="51.0301" y1="-2.44618" x2="51.0301" y2="99.3176" gradientUnits="userSpaceOnUse">
<stop stop-color="#007ED8"/>
<stop offset="0.7065" stop-color="#002D4C"/>
</linearGradient>
<linearGradient id="paint2_linear" x1="27.9144" y1="25.6953" x2="73.6966" y2="77.6876" gradientUnits="userSpaceOnUse">
<stop stop-color="#007ED8"/>
<stop offset="0.7065" stop-color="#002D4C"/>
</linearGradient>
</defs>
</svg>
