<svg width="103" height="103" viewBox="0 0 103 103" fill="none" xmlns="http://www.w3.org/2000/svg">
<path d="M51.0307 98.2797C25.1807 98.2797 4.2207 77.3297 4.2207 51.4697C4.2207 25.6097 25.1807 4.65967 51.0307 4.65967C76.8807 4.65967 97.8407 25.6197 97.8407 51.4697C97.8407 77.3197 76.8807 98.2797 51.0307 98.2797Z" fill="url(#paint0_linear)"/>
<path fill-rule="evenodd" clip-rule="evenodd" d="M96.9306 51.4698C96.9306 76.8198 76.3806 97.3698 51.0306 97.3698C25.6806 97.3698 5.13062 76.8198 5.13062 51.4698C5.13062 26.1198 25.6806 5.56983 51.0306 5.56983C76.3806 5.56983 96.9306 26.1198 96.9306 51.4698ZM51.0306 1.82983C78.4506 1.82983 100.671 24.0498 100.671 51.4698C100.671 78.8898 78.4406 101.11 51.0306 101.11C23.6106 101.11 1.39062 78.8798 1.39062 51.4698C1.39062 24.0498 23.6106 1.82983 51.0306 1.82983Z" fill="#F2F1F0"/>
<path fill-rule="evenodd" clip-rule="evenodd" d="M94.1202 51.4697C94.1202 75.2696 74.8302 94.5596 51.0302 94.5596C27.2302 94.5596 7.9402 75.2696 7.9402 51.4697C7.9402 27.6697 27.2302 8.37965 51.0302 8.37965C74.8302 8.37965 94.1202 27.6697 94.1202 51.4697ZM51.0302 4.63965C76.8902 4.63965 97.8602 25.6096 97.8602 51.4697C97.8602 77.3297 76.8902 98.2997 51.0302 98.2997C25.1702 98.2997 4.2002 77.3297 4.2002 51.4697C4.2002 25.6096 25.1602 4.63965 51.0302 4.63965Z" fill="url(#paint1_linear)"/>
<path opacity="0.15" fill-rule="evenodd" clip-rule="evenodd" d="M51.0301 92.1997C50.6801 92.1997 50.3201 92.1197 50.0001 91.9597C29.0601 81.4297 20.1201 68.4797 20.1201 48.6797V30.3497C20.1201 29.0897 21.1401 28.0597 22.4101 28.0597C35.5901 28.0597 44.3901 25.3197 49.3001 19.6797C50.1701 18.6797 51.8801 18.6797 52.7501 19.6797C57.6701 25.3197 66.4601 28.0597 79.6401 28.0597C80.9001 28.0597 81.9301 29.0897 81.9301 30.3497V48.6797C81.9301 68.4897 72.9901 81.4297 52.0501 91.9597C51.7401 92.1197 51.3801 92.1997 51.0301 92.1997Z" fill="#1F1D20"/>
<path fill-rule="evenodd" clip-rule="evenodd" d="M24.7001 30.6297V46.6897C24.7001 64.4297 32.3501 75.6997 51.0301 85.3497C69.7101 75.6997 77.3601 64.4297 77.3601 46.6897V30.6297C65.3301 30.3297 56.6701 27.6597 51.0301 22.4797C45.3901 27.6597 36.7401 30.3397 24.7001 30.6297ZM51.0301 90.2197C50.6801 90.2197 50.3201 90.1397 50.0001 89.9797C29.0601 79.4497 20.1201 66.4997 20.1201 46.6997V28.3697C20.1201 27.1097 21.1401 26.0797 22.4101 26.0797C35.5901 26.0797 44.3901 23.3397 49.3001 17.6997C50.1701 16.6997 51.8801 16.6997 52.7501 17.6997C57.6701 23.3397 66.4601 26.0797 79.6401 26.0797C80.9001 26.0797 81.9301 27.1097 81.9301 28.3697V46.6997C81.9301 66.5097 72.9901 79.4497 52.0501 89.9797C51.7401 90.1397 51.3801 90.2197 51.0301 90.2197Z" fill="#546670"/>
<path fill-rule="evenodd" clip-rule="evenodd" d="M51.0197 20.8296C45.2997 27.3896 35.2097 29.5696 23.7197 29.5696V47.0396C23.7197 65.0496 31.6997 76.6496 51.0197 86.3496C70.3397 76.6496 78.3197 65.0496 78.3197 47.0396V29.5596C66.8297 29.5596 56.7497 27.3896 51.0197 20.8296Z" fill="#243A5E"/>
<path fill-rule="evenodd" clip-rule="evenodd" d="M51.0303 20.8296V86.3596C70.3503 76.6496 78.3303 65.0496 78.3303 47.0396V29.5596C66.8303 29.5596 56.7503 27.3896 51.0303 20.8296Z" fill="#002D4C"/>
<path d="M38.79 44.0398L43.96 43.9598L48.19 48.6798L53.37 43.8198L58.12 43.8998L62.78 39.5398" stroke="#D5F9FD" stroke-width="0.8" stroke-miterlimit="10"/>
<path d="M62.7105 48.7699L62.6905 43.9199L57.5905 48.6999L53.1605 48.5299L48.2905 53.2199L43.5905 57.8499L38.5605 57.8999" stroke="white" stroke-width="0.8" stroke-miterlimit="10" stroke-linecap="round" stroke-linejoin="round"/>
<path d="M49.3202 62.51C49.3202 61.93 48.8502 61.46 48.2602 61.46C47.6702 61.46 47.2002 61.93 47.2002 62.51C47.2002 63.09 47.6702 63.56 48.2602 63.56C48.8402 63.57 49.3202 63.09 49.3202 62.51Z" fill="url(#paint2_linear)"/>
<path d="M53.9901 62.51C53.9901 61.93 53.5201 61.46 52.9301 61.46C52.3401 61.46 51.8701 61.93 51.8701 62.51C51.8701 63.09 52.3401 63.56 52.9301 63.56C53.5201 63.56 53.9901 63.09 53.9901 62.51Z" fill="url(#paint3_linear)"/>
<path d="M39.66 62.51C39.66 61.93 39.19 61.46 38.6 61.46C38.01 61.46 37.54 61.93 37.54 62.51C37.54 63.09 38.01 63.56 38.6 63.56C39.18 63.57 39.66 63.09 39.66 62.51Z" fill="#3BCAF4"/>
<path d="M44.66 62.51C44.66 61.93 44.19 61.46 43.6 61.46C43.01 61.46 42.54 61.93 42.54 62.51C42.54 63.09 43.01 63.56 43.6 63.56C44.19 63.57 44.66 63.09 44.66 62.51Z" fill="#3BCAF4"/>
<path d="M58.2802 62.51C58.2802 61.93 57.8102 61.46 57.2202 61.46C56.6302 61.46 56.1602 61.93 56.1602 62.51C56.1602 63.09 56.6302 63.56 57.2202 63.56C57.8102 63.56 58.2802 63.09 58.2802 62.51Z" fill="url(#paint4_linear)"/>
<path d="M61.5 62.51C61.5 63.09 61.97 63.56 62.56 63.56C63.15 63.56 63.62 63.09 63.62 62.51C63.62 61.93 63.15 61.46 62.56 61.46C61.97 61.46 61.5 61.93 61.5 62.51Z" fill="url(#paint5_linear)"/>
<path d="M49.3202 57.8798C49.3202 57.2998 48.8502 56.8298 48.2602 56.8298C47.6702 56.8298 47.2002 57.2998 47.2002 57.8798C47.2002 58.4598 47.6702 58.9298 48.2602 58.9298C48.8402 58.9298 49.3202 58.4698 49.3202 57.8798Z" fill="#3BCAF4"/>
<path d="M54.3104 57.8798C54.3104 57.2998 53.8404 56.8298 53.2504 56.8298C52.6604 56.8298 52.1904 57.2998 52.1904 57.8798C52.1904 58.4598 52.6604 58.9298 53.2504 58.9298C53.8404 58.9298 54.3104 58.4698 54.3104 57.8798Z" fill="url(#paint6_linear)"/>
<path d="M39.66 57.8798C39.66 57.2998 39.19 56.8298 38.6 56.8298C38.01 56.8298 37.54 57.2998 37.54 57.8798C37.54 58.4598 38.01 58.9298 38.6 58.9298C39.18 58.9298 39.66 58.4698 39.66 57.8798Z" fill="#3BCAF4"/>
<path d="M44.66 57.8798C44.66 57.2998 44.19 56.8298 43.6 56.8298C43.01 56.8298 42.54 57.2998 42.54 57.8798C42.54 58.4598 43.01 58.9298 43.6 58.9298C44.19 58.9298 44.66 58.4698 44.66 57.8798Z" fill="#3BCAF4"/>
<path d="M58.6005 57.8798C58.6005 57.2998 58.1305 56.8298 57.5405 56.8298C56.9505 56.8298 56.4805 57.2998 56.4805 57.8798C56.4805 58.4598 56.9505 58.9298 57.5405 58.9298C58.1305 58.9298 58.6005 58.4698 58.6005 57.8798Z" fill="url(#paint7_linear)"/>
<path d="M63.6005 57.8798C63.6005 57.2998 63.1305 56.8298 62.5405 56.8298C61.9505 56.8298 61.4805 57.2998 61.4805 57.8798C61.4805 58.4598 61.9505 58.9298 62.5405 58.9298C63.1305 58.9298 63.6005 58.4698 63.6005 57.8798Z" fill="url(#paint8_linear)"/>
<path d="M49.3202 53.26C49.3202 52.68 48.8502 52.21 48.2602 52.21C47.6702 52.21 47.2002 52.68 47.2002 53.26C47.2002 53.84 47.6702 54.31 48.2602 54.31C48.8402 54.31 49.3202 53.84 49.3202 53.26Z" fill="#3BCAF4"/>
<path d="M53.2504 54.3197C53.8404 54.3197 54.3104 53.8497 54.3104 53.2697C54.3104 52.6897 53.8404 52.2197 53.2504 52.2197C52.6604 52.2197 52.1904 52.6897 52.1904 53.2697C52.2004 53.8497 52.6704 54.3197 53.2504 54.3197Z" fill="#3BCAF4"/>
<path d="M39.66 53.26C39.66 52.68 39.19 52.21 38.6 52.21C38.01 52.21 37.54 52.68 37.54 53.26C37.54 53.84 38.01 54.31 38.6 54.31C39.18 54.31 39.66 53.84 39.66 53.26Z" fill="#50E6FF"/>
<path d="M43.6 54.3197C44.19 54.3197 44.66 53.8497 44.66 53.2697C44.66 52.6897 44.19 52.2197 43.6 52.2197C43.01 52.2197 42.54 52.6897 42.54 53.2697C42.55 53.8497 43.02 54.3197 43.6 54.3197Z" fill="#3BCAF4"/>
<path d="M58.6005 53.26C58.6005 52.68 58.1305 52.21 57.5405 52.21C56.9505 52.21 56.4805 52.68 56.4805 53.26C56.4805 53.84 56.9505 54.31 57.5405 54.31C58.1305 54.32 58.6005 53.84 58.6005 53.26Z" fill="#3BCAF4"/>
<path d="M62.5502 54.3197C63.1402 54.3197 63.6102 53.8497 63.6102 53.2697C63.6102 52.6897 63.1402 52.2197 62.5502 52.2197C61.9602 52.2197 61.4902 52.6897 61.4902 53.2697C61.5002 53.8497 61.9702 54.3197 62.5502 54.3197Z" fill="url(#paint9_linear)"/>
<path d="M49.3202 48.6298C49.3202 48.0498 48.8502 47.5798 48.2602 47.5798C47.6702 47.5798 47.2002 48.0498 47.2002 48.6298C47.2002 49.2098 47.6702 49.6798 48.2602 49.6798C48.8402 49.6798 49.3202 49.2098 49.3202 48.6298Z" fill="#50E6FF"/>
<path d="M54.3104 48.6298C54.3104 48.0498 53.8404 47.5798 53.2504 47.5798C52.6604 47.5798 52.1904 48.0498 52.1904 48.6298C52.1904 49.2098 52.6604 49.6798 53.2504 49.6798C53.8404 49.6798 54.3104 49.2098 54.3104 48.6298Z" fill="#50E6FF"/>
<path d="M39.66 48.6298C39.66 48.0498 39.19 47.5798 38.6 47.5798C38.01 47.5798 37.54 48.0498 37.54 48.6298C37.54 49.2098 38.01 49.6798 38.6 49.6798C39.18 49.6798 39.66 49.2098 39.66 48.6298Z" fill="#50E6FF"/>
<path d="M44.66 48.6298C44.66 48.0498 44.19 47.5798 43.6 47.5798C43.01 47.5798 42.54 48.0498 42.54 48.6298C42.54 49.2098 43.01 49.6798 43.6 49.6798C44.19 49.6798 44.66 49.2098 44.66 48.6298Z" fill="#50E6FF"/>
<path d="M58.6005 48.6298C58.6005 48.0498 58.1305 47.5798 57.5405 47.5798C56.9505 47.5798 56.4805 48.0498 56.4805 48.6298C56.4805 49.2098 56.9505 49.6798 57.5405 49.6798C58.1305 49.6798 58.6005 49.2098 58.6005 48.6298Z" fill="#50E6FF"/>
<path d="M63.6005 48.6298C63.6005 48.0498 63.1305 47.5798 62.5405 47.5798C61.9505 47.5798 61.4805 48.0498 61.4805 48.6298C61.4805 49.2098 61.9505 49.6798 62.5405 49.6798C63.1305 49.6798 63.6005 49.2098 63.6005 48.6298Z" fill="#50E6FF"/>
<path d="M49.3202 44C49.3202 43.42 48.8502 42.95 48.2602 42.95C47.6702 42.95 47.2002 43.42 47.2002 44C47.2002 44.58 47.6702 45.05 48.2602 45.05C48.8402 45.06 49.3202 44.59 49.3202 44Z" fill="#50E6FF"/>
<path d="M54.3104 44C54.3104 43.42 53.8404 42.95 53.2504 42.95C52.6604 42.95 52.1904 43.42 52.1904 44C52.1904 44.58 52.6604 45.05 53.2504 45.05C53.8404 45.06 54.3104 44.59 54.3104 44Z" fill="#50E6FF"/>
<path d="M39.66 44C39.66 43.42 39.19 42.95 38.6 42.95C38.01 42.95 37.54 43.42 37.54 44C37.54 44.58 38.01 45.05 38.6 45.05C39.18 45.06 39.66 44.59 39.66 44Z" fill="#9CEBFF"/>
<path d="M44.66 44C44.66 43.42 44.19 42.95 43.6 42.95C43.01 42.95 42.54 43.42 42.54 44C42.54 44.58 43.01 45.05 43.6 45.05C44.19 45.06 44.66 44.59 44.66 44Z" fill="#9CEBFF"/>
<path d="M58.6005 44C58.6005 43.42 58.1305 42.95 57.5405 42.95C56.9505 42.95 56.4805 43.42 56.4805 44C56.4805 44.58 56.9505 45.05 57.5405 45.05C58.1305 45.06 58.6005 44.59 58.6005 44Z" fill="#50E6FF"/>
<path d="M63.6005 44C63.6005 43.42 63.1305 42.95 62.5405 42.95C61.9505 42.95 61.4805 43.42 61.4805 44C61.4805 44.58 61.9505 45.05 62.5405 45.05C63.1305 45.05 63.6005 44.59 63.6005 44Z" fill="#50E6FF"/>
<path d="M49.3202 39.3798C49.3202 38.7998 48.8502 38.3298 48.2602 38.3298C47.6702 38.3298 47.2002 38.7998 47.2002 39.3798C47.2002 39.9598 47.6702 40.4298 48.2602 40.4298C48.8402 40.4398 49.3202 39.9598 49.3202 39.3798Z" fill="#9CEBFF"/>
<path d="M54.3104 39.3798C54.3104 38.7998 53.8404 38.3298 53.2504 38.3298C52.6604 38.3298 52.1904 38.7998 52.1904 39.3798C52.1904 39.9598 52.6604 40.4298 53.2504 40.4298C53.8404 40.4398 54.3104 39.9598 54.3104 39.3798Z" fill="#9CEBFF"/>
<path d="M39.66 39.3798C39.66 38.7998 39.19 38.3298 38.6 38.3298C38.01 38.3298 37.54 38.7998 37.54 39.3798C37.54 39.9598 38.01 40.4298 38.6 40.4298C39.18 40.4398 39.66 39.9598 39.66 39.3798Z" fill="#9CEBFF"/>
<path d="M44.66 39.3798C44.66 38.7998 44.19 38.3298 43.6 38.3298C43.01 38.3298 42.54 38.7998 42.54 39.3798C42.54 39.9598 43.01 40.4298 43.6 40.4298C44.19 40.4398 44.66 39.9598 44.66 39.3798Z" fill="#9CEBFF"/>
<path d="M58.6005 39.3798C58.6005 38.7998 58.1305 38.3298 57.5405 38.3298C56.9505 38.3298 56.4805 38.7998 56.4805 39.3798C56.4805 39.9598 56.9505 40.4298 57.5405 40.4298C58.1305 40.4398 58.6005 39.9598 58.6005 39.3798Z" fill="#9CEBFF"/>
<path d="M63.6005 39.3798C63.6005 38.7998 63.1305 38.3298 62.5405 38.3298C61.9505 38.3298 61.4805 38.7998 61.4805 39.3798C61.4805 39.9598 61.9505 40.4298 62.5405 40.4298C63.1305 40.4298 63.6005 39.9598 63.6005 39.3798Z" fill="#50E6FF"/>
<path fill-rule="evenodd" clip-rule="evenodd" d="M62.1201 34.5999C62.1201 34.3237 62.344 34.0999 62.6201 34.0999H68.2001C68.4763 34.0999 68.7001 34.3237 68.7001 34.5999V67.1999C68.7001 67.476 68.4763 67.6999 68.2001 67.6999H62.6201C62.344 67.6999 62.1201 67.476 62.1201 67.1999C62.1201 66.9237 62.344 66.6999 62.6201 66.6999H67.7001V35.0999H62.6201C62.344 35.0999 62.1201 34.876 62.1201 34.5999Z" fill="white"/>
<path fill-rule="evenodd" clip-rule="evenodd" d="M33.3604 34.5898C33.3604 34.3137 33.5842 34.0898 33.8604 34.0898H39.4403C39.7165 34.0898 39.9403 34.3137 39.9403 34.5898C39.9403 34.866 39.7165 35.0898 39.4403 35.0898H34.3604V66.6898H39.4403C39.7165 66.6898 39.9403 66.9137 39.9403 67.1898C39.9403 67.466 39.7165 67.6898 39.4403 67.6898H33.8604C33.5842 67.6898 33.3604 67.466 33.3604 67.1898V34.5898Z" fill="white"/>
<defs>
<linearGradient id="paint0_linear" x1="49.2607" y1="-13.3243" x2="53.2437" y2="132.444" gradientUnits="userSpaceOnUse">
<stop stop-color="#00ABDE"/>
<stop offset="1" stop-color="#007ED8"/>
</linearGradient>
<linearGradient id="paint1_linear" x1="51.0301" y1="-2.02235" x2="51.0301" y2="99.7414" gradientUnits="userSpaceOnUse">
<stop stop-color="#007ED8"/>
<stop offset="0.7065" stop-color="#002D4C"/>
</linearGradient>
<linearGradient id="paint2_linear" x1="42.7115" y1="58.6785" x2="86.6278" y2="89.0486" gradientUnits="userSpaceOnUse">
<stop stop-color="#007ED8"/>
<stop offset="0.7065" stop-color="#002D4C"/>
</linearGradient>
<linearGradient id="paint3_linear" x1="44.2268" y1="56.4971" x2="88.143" y2="86.8671" gradientUnits="userSpaceOnUse">
<stop stop-color="#007ED8"/>
<stop offset="0.7065" stop-color="#002D4C"/>
</linearGradient>
<linearGradient id="paint4_linear" x1="45.6191" y1="54.4923" x2="89.5352" y2="84.8622" gradientUnits="userSpaceOnUse">
<stop stop-color="#007ED8"/>
<stop offset="0.7065" stop-color="#002D4C"/>
</linearGradient>
<linearGradient id="paint5_linear" x1="46.258" y1="51.2456" x2="93.5185" y2="83.9282" gradientUnits="userSpaceOnUse">
<stop stop-color="#007ED8"/>
<stop offset="0.7065" stop-color="#002D4C"/>
</linearGradient>
<linearGradient id="paint6_linear" x1="46.5063" y1="53.2154" x2="90.4225" y2="83.5853" gradientUnits="userSpaceOnUse">
<stop stop-color="#007ED8"/>
<stop offset="0.7065" stop-color="#002D4C"/>
</linearGradient>
<linearGradient id="paint7_linear" x1="47.8987" y1="51.2105" x2="91.8149" y2="81.5805" gradientUnits="userSpaceOnUse">
<stop stop-color="#007ED8"/>
<stop offset="0.7065" stop-color="#002D4C"/>
</linearGradient>
<linearGradient id="paint8_linear" x1="49.522" y1="48.8739" x2="93.4381" y2="79.2439" gradientUnits="userSpaceOnUse">
<stop stop-color="#007ED8"/>
<stop offset="0.7065" stop-color="#002D4C"/>
</linearGradient>
<linearGradient id="paint9_linear" x1="51.6912" y1="45.7501" x2="95.6074" y2="76.1202" gradientUnits="userSpaceOnUse">
<stop stop-color="#007ED8"/>
<stop offset="0.7065" stop-color="#002D4C"/>
</linearGradient>
</defs>
</svg>
