<svg width="102" height="103" viewBox="0 0 102 103" fill="none" xmlns="http://www.w3.org/2000/svg">
<path d="M51.0004 97.8558C25.1504 97.8558 4.19043 76.9058 4.19043 51.0458C4.19043 25.1858 25.1504 4.23584 51.0004 4.23584C76.8504 4.23584 97.8104 25.1958 97.8104 51.0458C97.8104 76.8958 76.8504 97.8558 51.0004 97.8558Z" fill="url(#paint0_linear)"/>
<path fill-rule="evenodd" clip-rule="evenodd" d="M96.9004 51.0458C96.9004 76.3958 76.3504 96.9458 51.0004 96.9458C25.6504 96.9458 5.10035 76.3958 5.10035 51.0458C5.10035 25.6958 25.6504 5.14576 51.0004 5.14576C76.3504 5.14576 96.9004 25.6958 96.9004 51.0458ZM51.0004 1.40576C78.4204 1.40576 100.64 23.6258 100.64 51.0458C100.64 78.4658 78.4104 100.686 51.0004 100.686C23.5804 100.686 1.36035 78.4558 1.36035 51.0458C1.36035 23.6258 23.5804 1.40576 51.0004 1.40576Z" fill="#F2F1F0"/>
<path fill-rule="evenodd" clip-rule="evenodd" d="M94.0899 51.0458C94.0899 74.8458 74.7999 94.1358 50.9999 94.1358C27.1999 94.1358 7.90992 74.8458 7.90992 51.0458C7.90992 27.2458 27.1999 7.95582 50.9999 7.95582C74.7999 7.95582 94.0899 27.2458 94.0899 51.0458ZM50.9999 4.21582C76.8599 4.21582 97.8299 25.1858 97.8299 51.0458C97.8299 76.9058 76.8599 97.8758 50.9999 97.8758C25.1399 97.8758 4.16992 76.9058 4.16992 51.0458C4.16992 25.1858 25.1299 4.21582 50.9999 4.21582Z" fill="url(#paint1_linear)"/>
<path opacity="0.15" d="M82.9404 79.7361L73.8304 70.6861C77.6704 65.6861 79.9504 59.4361 79.9504 52.6561C79.9504 36.2761 66.6604 23.0161 50.3004 23.0161C33.9404 23.0161 20.6504 36.2761 20.6504 52.6561C20.6504 69.0361 33.9104 82.2961 50.2904 82.2961C56.8604 82.2961 62.9104 80.1661 67.8504 76.5461L77.0104 85.6561C77.0104 85.6561 79.3304 86.5661 81.7604 83.9861C84.1904 81.4161 82.9404 79.7361 82.9404 79.7361ZM25.0704 52.7661C25.0704 38.8861 36.3304 27.6261 50.2104 27.6261C64.0904 27.6261 75.3504 38.8861 75.3504 52.7661C75.3504 66.6461 64.0604 77.9061 50.1804 77.9061C36.3004 77.9061 25.0704 66.6461 25.0704 52.7661Z" fill="#1F1D20"/>
<path d="M50.0103 78.1061C65.1403 78.1061 77.4104 65.8362 77.4104 50.7062C77.4104 35.5762 65.1403 23.3062 50.0103 23.3062C34.8803 23.3062 22.6104 35.5762 22.6104 50.7062C22.6104 65.8362 34.8803 78.1061 50.0103 78.1061Z" fill="white"/>
<path d="M84.8604 79.7461L73.8204 68.7061C77.6604 63.7061 79.9404 57.4561 79.9404 50.6761C79.9404 34.2961 66.6504 21.0361 50.2904 21.0361C33.9304 21.0361 20.6504 34.2961 20.6504 50.6761C20.6504 67.0561 33.9104 80.3161 50.2904 80.3161C56.8604 80.3161 62.9104 78.1861 67.8504 74.5661L78.9204 85.6661C78.9204 85.6661 80.0404 85.6761 82.4804 83.1061C84.9104 80.5261 84.8604 79.7461 84.8604 79.7461ZM25.0704 50.7761C25.0704 36.8961 36.3304 25.6361 50.2104 25.6361C64.0904 25.6361 75.3504 36.8961 75.3504 50.7761C75.3504 64.6561 64.0604 75.9161 50.1804 75.9161C36.3004 75.9161 25.0704 64.6561 25.0704 50.7761Z" fill="url(#paint2_linear)"/>
<path opacity="0.3" d="M52.1797 53.7559L67.5397 62.6259L64.8897 64.0459L49.7197 55.2559L52.1797 53.7559Z" fill="#1F1D21"/>
<path opacity="0.3" d="M44.4597 57.5957L59.8997 66.4657L57.1697 67.8857L41.9697 59.0957L44.4597 57.5957Z" fill="#1F1D21"/>
<path opacity="0.3" d="M36.4295 61.896L51.8295 70.796L49.2995 72.256L33.9395 63.396L36.4295 61.896Z" fill="#1F1D21"/>
<path d="M60.6998 42.5057L65.0398 44.9957L64.9998 62.5457L49.8398 53.7257L49.9198 31.6157L60.7898 37.8757L60.6998 42.5057Z" fill="#243A5E"/>
<path d="M60.7392 37.8258L62.7392 36.6758L62.6992 41.3258L60.6992 42.5158L60.7392 37.8258Z" fill="#0078D4"/>
<path d="M49.8691 31.6558L51.8691 30.4258L62.7391 36.6858L60.7391 37.9158L49.8691 31.6558Z" fill="#185A97"/>
<path d="M60.7393 37.9058L62.7393 36.6758L67.0793 44.0858L65.0793 45.2358L60.7393 37.9058Z" fill="#0078D4"/>
<path d="M65.079 45.2059L67.039 44.0459L66.999 61.5159L64.999 62.5859L65.079 45.2059Z" fill="#1D4A79"/>
<path d="M60.7392 37.9058L65.0792 45.1958L60.6992 42.7058L60.7392 37.9058Z" fill="#156AB3"/>
<path d="M53.0191 46.5858L57.3591 49.0758L57.3291 66.6158L42.1191 57.7858L42.1991 35.6758L53.0291 41.9258V46.5858H53.0191Z" fill="#0078D4"/>
<path d="M42.1895 35.6856L44.2295 34.7256L55.0995 40.9756L53.0995 42.1256L42.1895 35.6856Z" fill="#32B0E7"/>
<path d="M53.0195 42.1256L55.0195 40.9756L59.3595 48.1556L57.3595 49.3056L53.0195 42.1256Z" fill="#45CAF2"/>
<path d="M57.3691 49.2657L59.3691 48.1157L59.2891 65.5857L57.3291 66.6557L57.3691 49.2657Z" fill="#156AB3"/>
<path d="M53.0195 41.9355L57.3595 49.2655L53.0195 46.7755V41.9355V41.9355Z" fill="#32B0E7"/>
<path d="M45.1092 50.9557L49.4492 53.4457L49.4092 70.9157L34.1992 62.1657L34.2792 40.0557L45.1492 46.3157L45.1092 50.9557Z" fill="#45CAF2"/>
<path d="M45.1094 46.3058L47.1094 45.1558V49.8058L45.1094 50.9558V46.3058Z" fill="#0078D4"/>
<path d="M34.2793 40.0558L36.2793 38.9058L47.1093 45.1658L45.1093 46.3158L34.2793 40.0558Z" fill="#6ED5ED"/>
<path d="M45.1094 46.3058L47.1094 45.1558L51.4494 52.3358L49.4494 53.4858L45.1094 46.3058Z" fill="#84ECFD"/>
<path d="M49.4492 53.4859L51.4492 52.3359L51.4092 69.7559L49.4092 70.9059L49.4492 53.4859Z" fill="#32B0E7"/>
<path d="M45.1094 46.3159L49.4494 53.4959L45.1094 50.9659V46.3159Z" fill="#50E6FF"/>
<path d="M44.4598 53.4458V54.5258L38.7598 51.2358V50.1558L44.4598 53.4458Z" fill="#84ECFD"/>
<path d="M44.4393 60.0659V61.1459L38.7393 57.8559V56.7759L44.4393 60.0659Z" fill="#84ECFD"/>
<path d="M44.449 56.8056V57.8856L38.749 54.5956V53.5156L44.449 56.8056Z" fill="#84ECFD"/>
<path opacity="0.15" d="M64.4 66.706C67.79 66.706 70.55 63.956 70.55 60.556C70.54 57.166 67.78 54.416 64.4 54.416C61.01 54.416 58.25 57.166 58.25 60.566C58.25 63.966 61 66.706 64.4 66.706Z" fill="#1F1D20"/>
<path d="M64.4 65.666C67.79 65.666 70.55 62.916 70.55 59.516C70.54 56.126 67.78 53.376 64.4 53.376C61.01 53.376 58.25 56.126 58.25 59.526C58.25 62.926 61 65.666 64.4 65.666Z" fill="#002D4C"/>
<path d="M64.8801 55.916H63.8701V63.116H64.8801V55.916Z" fill="#F2F2F2"/>
<path d="M67.9703 59.0659H60.7803V60.0759H67.9803L67.9703 59.0659Z" fill="#F2F2F2"/>
<defs>
<linearGradient id="paint0_linear" x1="49.2299" y1="-13.7481" x2="53.2129" y2="132.021" gradientUnits="userSpaceOnUse">
<stop stop-color="#00ABDE"/>
<stop offset="1" stop-color="#007ED8"/>
</linearGradient>
<linearGradient id="paint1_linear" x1="50.9999" y1="-2.44618" x2="50.9999" y2="99.3176" gradientUnits="userSpaceOnUse">
<stop stop-color="#007ED8"/>
<stop offset="0.7065" stop-color="#002D4C"/>
</linearGradient>
<linearGradient id="paint2_linear" x1="28.2404" y1="25.6335" x2="74.0226" y2="77.6258" gradientUnits="userSpaceOnUse">
<stop stop-color="#007ED8"/>
<stop offset="0.7065" stop-color="#002D4C"/>
</linearGradient>
</defs>
</svg>
