<svg width="103" height="103" viewBox="0 0 103 103" fill="none" xmlns="http://www.w3.org/2000/svg">
<path d="M51.0307 98.2523C25.1807 98.2523 4.2207 77.3023 4.2207 51.4423C4.2207 25.5823 25.1807 4.63232 51.0307 4.63232C76.8807 4.63232 97.8407 25.5923 97.8407 51.4423C97.8407 77.2923 76.8807 98.2523 51.0307 98.2523Z" fill="url(#paint0_linear)"/>
<path fill-rule="evenodd" clip-rule="evenodd" d="M96.9306 51.4422C96.9306 76.7922 76.3806 97.3422 51.0306 97.3422C25.6806 97.3422 5.13062 76.7922 5.13062 51.4422C5.13062 26.0922 25.6806 5.54225 51.0306 5.54225C76.3806 5.54225 96.9306 26.0922 96.9306 51.4422ZM51.0306 1.80225C78.4506 1.80225 100.671 24.0222 100.671 51.4422C100.671 78.8622 78.4406 101.082 51.0306 101.082C23.6106 101.082 1.39062 78.8522 1.39062 51.4422C1.39062 24.0222 23.6106 1.80225 51.0306 1.80225Z" fill="#F2F1F0"/>
<path fill-rule="evenodd" clip-rule="evenodd" d="M94.1202 51.4423C94.1202 75.2423 74.8302 94.5323 51.0302 94.5323C27.2302 94.5323 7.9402 75.2423 7.9402 51.4423C7.9402 27.6423 27.2302 8.3523 51.0302 8.3523C74.8302 8.3523 94.1202 27.6423 94.1202 51.4423ZM51.0302 4.6123C76.8902 4.6123 97.8602 25.5823 97.8602 51.4423C97.8602 77.3023 76.8902 98.2723 51.0302 98.2723C25.1702 98.2723 4.2002 77.3023 4.2002 51.4423C4.2002 25.5823 25.1602 4.6123 51.0302 4.6123Z" fill="url(#paint1_linear)"/>
<path opacity="0.15" d="M21.3804 54.7827C22.3704 67.1827 31.0504 77.8127 43.0004 81.2427C54.4904 84.5327 66.8204 80.7027 74.4204 71.4827C74.5804 71.2927 74.8004 71.2627 74.9104 71.2727C75.0004 71.2827 75.2504 71.3127 75.4104 71.5527L76.2904 72.9027C76.9904 73.9827 76.8404 75.4427 75.9204 76.3827C67.0704 85.4627 53.9904 88.9427 41.7904 85.4527C28.0504 81.5127 18.1004 69.2527 17.0404 54.9427L16.9404 53.5627L11.7504 53.8427C11.3904 53.8627 11.1404 53.4827 11.3104 53.1727L17.5004 40.7327C17.7604 40.2127 18.4704 40.1827 18.7704 40.6627L26.3004 52.3627C26.4904 52.6627 26.2904 53.0727 25.9304 53.0927L21.2604 53.3327L21.3804 54.7827Z" fill="#1F1D20"/>
<path opacity="0.15" d="M75.6208 54.4026C75.4308 54.1026 75.6308 53.7026 75.9908 53.6826L81.2608 53.3726L81.2408 52.0326C81.0808 38.8826 72.1608 27.1826 59.5208 23.5526C46.8808 19.9426 33.1008 25.1526 26.0108 36.2426C25.8408 36.5026 25.6108 36.5426 25.4908 36.5326C25.4408 36.5326 25.3808 36.5326 25.3108 36.5026C25.2008 36.4726 25.0608 36.4026 24.9708 36.2326L23.9208 34.6026C23.2808 33.6126 23.3508 32.3126 24.1008 31.3526C32.8708 20.0426 47.4708 15.3426 61.2008 19.4726C75.6508 23.8226 85.3608 37.3826 85.6808 52.4726L85.7008 53.1126L90.2508 52.8326C90.6108 52.8126 90.8608 53.1926 90.6908 53.5126L84.3408 66.1126C84.0808 66.6326 83.3708 66.6626 83.0508 66.1726L75.6208 54.4026Z" fill="#1F1D20"/>
<path d="M21.4099 53.1624C22.3999 65.5624 31.0799 76.1924 43.0299 79.6224C54.5199 82.9124 66.8499 79.0824 74.4499 69.8624C74.6099 69.6724 74.8299 69.6424 74.9399 69.6524C75.0299 69.6624 75.2799 69.6924 75.4399 69.9324L76.3199 71.2824C77.0199 72.3624 76.8699 73.8224 75.9499 74.7624C67.1099 83.8424 54.0299 87.3224 41.8299 83.8324C28.0699 79.9024 18.1299 67.6424 17.0699 53.3424L16.9599 51.9624L11.7699 52.2424C11.4099 52.2624 11.1599 51.8824 11.3299 51.5724L17.5299 39.1424C17.7899 38.6224 18.4999 38.5924 18.7999 39.0724L26.3299 50.7724C26.5199 51.0724 26.3199 51.4824 25.9599 51.5024L21.2899 51.7424L21.4099 53.1624Z" fill="white"/>
<path d="M75.6501 52.7825C75.4601 52.4825 75.6601 52.0825 76.0201 52.0625L81.2901 51.7525L81.2701 50.4125C81.1201 37.2725 72.1901 25.5625 59.5601 21.9325C46.9101 18.3125 33.1201 23.5325 26.0401 34.6225C25.8701 34.8825 25.6401 34.9225 25.5201 34.9125C25.4701 34.9125 25.4101 34.9125 25.3401 34.8825C25.2301 34.8525 25.0901 34.7825 25.0001 34.6125L23.9501 32.9825C23.3101 31.9925 23.3801 30.6925 24.1301 29.7325C32.9001 18.4225 47.5101 13.7225 61.2301 17.8525C75.6601 22.1925 85.3801 35.7525 85.7001 50.8425L85.7201 51.4825L90.2701 51.2025C90.6301 51.1825 90.8801 51.5625 90.7101 51.8825L84.3701 64.4825C84.1101 65.0025 83.4001 65.0325 83.0801 64.5425L75.6501 52.7825Z" fill="white"/>
<path opacity="0.2" d="M44.8198 70.4726H67.4698C68.4798 70.4726 69.2998 69.6526 69.2998 68.6426V35.3926H33.3398V68.6326C33.3398 69.6426 34.1598 70.4626 35.1698 70.4626H39.0898H44.8198V70.4726V70.4726Z" fill="#1F1D21"/>
<path d="M69.2898 34.8225V34.2625C69.2898 33.5625 68.7298 33.0225 68.0498 33.0225H34.5798C33.8998 33.0225 33.3398 33.5825 33.3398 34.2625V34.8825V35.4425V67.4625C33.3398 68.1625 33.8998 68.7025 34.5798 68.7025H39.0798H44.7998H68.0298C68.7298 68.7025 69.2698 68.1425 69.2698 67.4625V34.8825C69.2998 34.8625 69.2898 34.8425 69.2898 34.8225Z" fill="white"/>
<g opacity="0.2">
<path opacity="0.2" d="M44.9106 59.0728C44.0606 59.0828 43.3906 59.7828 43.3906 60.6228C43.3906 61.1628 43.6906 61.6528 44.1506 61.9328L49.5606 65.0028C50.0106 65.2528 50.5106 65.3927 51.0206 65.3927C51.3006 65.3927 51.5706 65.3528 51.8306 65.2728L59.9706 62.9528C61.2206 62.5928 62.0806 61.4528 62.0806 60.1528V59.0728H44.9106Z" fill="white"/>
</g>
<g opacity="0.12">
<path opacity="0.12" d="M44.9106 59.0728C44.0606 59.0828 43.3906 59.7828 43.3906 60.6228C43.3906 61.1628 43.6906 61.6528 44.1506 61.9328L49.5606 65.0028C50.0106 65.2528 50.5106 65.3927 51.0206 65.3927C51.3006 65.3927 51.5706 65.3528 51.8306 65.2728L59.9706 62.9528C61.2206 62.5928 62.0806 61.4528 62.0806 60.1528V59.0728H44.9106Z" fill="white"/>
</g>
<path d="M51.8008 36.6826L53.9908 41.6826V59.0726L51.8408 65.2626L59.9808 62.9426C61.2308 62.5826 62.0908 61.4426 62.0908 60.1426V41.8026C62.0908 40.5026 61.2308 39.3626 59.9708 39.0026L51.8008 36.6826Z" fill="url(#paint2_linear)"/>
<path d="M41.4807 58.8925L43.8607 57.6025C44.5307 57.2325 44.9407 56.5325 44.9407 55.7825V46.4225C44.9407 45.5525 45.4907 44.7725 46.3107 44.4725L53.9907 41.6925V39.5825C53.9907 38.2425 53.0907 37.0625 51.8007 36.6925C51.5307 36.6125 51.2607 36.5825 50.9807 36.5825C50.4607 36.5825 49.9407 36.7225 49.4807 36.9825L40.6907 42.0025C39.7807 42.5225 39.2207 43.4825 39.2207 44.5225V57.5425C39.2207 58.3825 39.9007 59.0725 40.7407 59.0725C41.0007 59.0725 41.2607 59.0125 41.4807 58.8925Z" fill="url(#paint3_linear)"/>
<path d="M53.9906 59.0728H44.9106C44.0606 59.0828 43.3906 59.7828 43.3906 60.6228C43.3906 61.1628 43.6906 61.6528 44.1506 61.9328L49.5606 65.0028C50.0106 65.2528 50.5106 65.3927 51.0206 65.3927C51.3006 65.3927 51.5706 65.3528 51.8306 65.2728C53.1106 64.9128 53.9906 63.7428 53.9806 62.4128V59.0728H53.9906Z" fill="url(#paint4_linear)"/>
<path d="M41.4807 58.8925L43.8607 57.6025C44.5307 57.2325 44.9407 56.5325 44.9407 55.7825V46.4225C44.9407 45.5525 45.4907 44.7725 46.3107 44.4725L53.9907 41.6925V39.5825C53.9907 38.2425 53.0907 37.0625 51.8007 36.6925C51.5307 36.6125 51.2607 36.5825 50.9807 36.5825C50.4607 36.5825 49.9407 36.7225 49.4807 36.9825L40.6907 42.0025C39.7807 42.5225 39.2207 43.4825 39.2207 44.5225V57.5425C39.2207 58.3825 39.9007 59.0725 40.7407 59.0725C41.0007 59.0725 41.2607 59.0125 41.4807 58.8925Z" fill="url(#paint5_linear)"/>
<path d="M53.9906 59.0728H44.9106C44.0606 59.0828 43.3906 59.7828 43.3906 60.6228C43.3906 61.1628 43.6906 61.6528 44.1506 61.9328L49.5606 65.0028C50.0106 65.2528 50.5106 65.3927 51.0206 65.3927C51.3006 65.3927 51.5706 65.3528 51.8306 65.2728C53.1106 64.9128 53.9906 63.7428 53.9806 62.4128V59.0728H53.9906Z" fill="url(#paint6_linear)"/>
<defs>
<linearGradient id="paint0_linear" x1="49.2602" y1="-13.3516" x2="53.2432" y2="132.417" gradientUnits="userSpaceOnUse">
<stop stop-color="#00ABDE"/>
<stop offset="1" stop-color="#007ED8"/>
</linearGradient>
<linearGradient id="paint1_linear" x1="51.0302" y1="-2.0497" x2="51.0302" y2="99.7141" gradientUnits="userSpaceOnUse">
<stop stop-color="#007ED8"/>
<stop offset="0.7065" stop-color="#002D4C"/>
</linearGradient>
<linearGradient id="paint2_linear" x1="56.9476" y1="35.0574" x2="56.9476" y2="63.2686" gradientUnits="userSpaceOnUse">
<stop stop-color="#FFB900"/>
<stop offset="0.17" stop-color="#EF8400"/>
<stop offset="0.31" stop-color="#E25C01"/>
<stop offset="0.43" stop-color="#DB4401"/>
<stop offset="0.5" stop-color="#D83B01"/>
</linearGradient>
<linearGradient id="paint3_linear" x1="51.8597" y1="36.0546" x2="36.9205" y2="57.3867" gradientUnits="userSpaceOnUse">
<stop stop-color="#800600"/>
<stop offset="0.6" stop-color="#C72127"/>
<stop offset="0.73" stop-color="#C13959"/>
<stop offset="0.85" stop-color="#BC4B81"/>
<stop offset="0.94" stop-color="#B95799"/>
<stop offset="1" stop-color="#B85BA2"/>
</linearGradient>
<linearGradient id="paint4_linear" x1="44.2259" y1="62.2326" x2="63.7288" y2="62.2326" gradientUnits="userSpaceOnUse">
<stop stop-color="#F32B44"/>
<stop offset="0.6" stop-color="#A4070A"/>
</linearGradient>
<linearGradient id="paint5_linear" x1="52.1648" y1="35.6211" x2="49.0017" y2="40.1371" gradientUnits="userSpaceOnUse">
<stop stop-opacity="0.4"/>
<stop offset="1" stop-opacity="0"/>
</linearGradient>
<linearGradient id="paint6_linear" x1="57.4788" y1="62.6722" x2="48.7468" y2="61.91" gradientUnits="userSpaceOnUse">
<stop stop-opacity="0.4"/>
<stop offset="1" stop-opacity="0"/>
</linearGradient>
</defs>
</svg>
