<svg width="103" height="103" viewBox="0 0 103 103" fill="none" xmlns="http://www.w3.org/2000/svg">
<path d="M51.6083 98.9652C25.7583 98.9652 4.79834 78.0152 4.79834 52.1552C4.79834 26.2952 25.7583 5.34521 51.6083 5.34521C77.4583 5.34521 98.4183 26.3052 98.4183 52.1552C98.4183 78.0052 77.4583 98.9652 51.6083 98.9652Z" fill="url(#paint0_linear)"/>
<path fill-rule="evenodd" clip-rule="evenodd" d="M97.5084 52.1551C97.5084 77.5051 76.9584 98.0551 51.6084 98.0551C26.2584 98.0551 5.70838 77.5051 5.70838 52.1551C5.70838 26.8051 26.2584 6.25514 51.6084 6.25514C76.9584 6.25514 97.5084 26.8051 97.5084 52.1551ZM51.6084 2.51514C79.0284 2.51514 101.248 24.7351 101.248 52.1551C101.248 79.5751 79.0184 101.795 51.6084 101.795C24.1884 101.795 1.96838 79.5651 1.96838 52.1551C1.96838 24.7351 24.1884 2.51514 51.6084 2.51514Z" fill="#F2F1F0"/>
<path fill-rule="evenodd" clip-rule="evenodd" d="M94.6984 52.1552C94.6984 75.9552 75.4084 95.2452 51.6084 95.2452C27.8084 95.2452 8.51838 75.9552 8.51838 52.1552C8.51838 28.3552 27.8084 9.0652 51.6084 9.0652C75.4084 9.0652 94.6984 28.3552 94.6984 52.1552ZM51.6084 5.3252C77.4684 5.3252 98.4384 26.2952 98.4384 52.1552C98.4384 78.0152 77.4684 98.9852 51.6084 98.9852C25.7484 98.9852 4.77838 78.0152 4.77838 52.1552C4.77838 26.2952 25.7384 5.3252 51.6084 5.3252Z" fill="#0078D4"/>
<path opacity="0.2" d="M67.2384 29.3955H20.3384V72.7555C20.3384 74.0755 21.4084 75.1455 22.7284 75.1455H27.8384V81.3055C27.8384 81.7655 28.3984 81.9955 28.7284 81.6755L35.3084 75.1455H64.8484C66.1684 75.1455 67.2384 74.0755 67.2384 72.7555V29.3955Z" fill="#1F1D21"/>
<path d="M65.6084 27.7153H21.9684C21.0684 27.7153 20.3384 28.4453 20.3384 29.3453V71.8453C20.3384 72.7453 21.0684 73.4753 21.9684 73.4753H27.8384V79.6353C27.8384 80.0953 28.3984 80.3253 28.7284 80.0053L35.3084 73.4753H65.6084C66.5084 73.4753 67.2384 72.7453 67.2384 71.8453V29.3453C67.2384 28.4453 66.5184 27.7153 65.6084 27.7153Z" fill="#F2F1F0"/>
<path d="M67.2384 28.5353C67.2384 27.6353 66.5084 26.9053 65.6084 26.9053H21.9684C21.0684 26.9053 20.3384 27.6353 20.3384 28.5353V30.0853H67.2384V28.5353Z" fill="#50E6FF"/>
<path d="M27.5784 34.1455H25.4984V68.3055H27.5784V34.1455V34.1455Z" fill="url(#paint1_linear)"/>
<path d="M60.5684 68.3051V66.2251H25.5184V68.3051H60.5684Z" fill="url(#paint2_linear)"/>
<path d="M33.6684 49.0352L30.5084 52.1952V55.3152L35.2084 50.6152L33.6684 49.0352Z" fill="#185A97"/>
<path d="M44.6484 56.9054V44.3354L38.3684 50.6155L44.6484 56.9054Z" fill="#185A97"/>
<path d="M49.3884 49.0354L46.2284 45.9154V55.3254L57.2084 44.3454L60.3684 47.5054V38.0254L49.3884 49.0354Z" fill="#185A97"/>
<path d="M46.2384 55.3252V63.1852H60.3784V47.4652L57.2184 44.3452L46.2384 55.3252Z" fill="url(#paint3_linear)"/>
<path d="M44.6484 56.9054L36.7884 49.0454L30.5084 55.3254V63.1854H44.6484V56.9054Z" fill="url(#paint4_linear)"/>
<path d="M45.4384 43.2855C46.2984 43.2855 47.0184 42.5955 47.0184 41.7055C47.0184 40.8455 46.3284 40.1255 45.4384 40.1255C44.5784 40.1255 43.8584 40.8155 43.8584 41.7055C43.8584 42.5655 44.5884 43.2855 45.4384 43.2855Z" fill="#185A97"/>
<g opacity="0.3">
<path opacity="0.3" d="M84.2084 62.195C88.7984 64.855 88.7984 68.965 84.2084 71.625C79.6184 74.285 72.3684 74.285 68.0184 71.625C63.4284 68.965 63.4284 64.855 68.0184 62.195C72.3684 59.545 79.6184 59.545 84.2084 62.195Z" fill="black"/>
</g>
<path d="M87.8384 63.165V65.345C87.8384 67.035 86.6284 68.725 84.4584 70.175C79.8684 72.835 72.3684 72.835 67.7784 70.175C65.3584 68.725 64.3984 67.035 64.3984 65.345V63.165C64.3984 64.855 65.6084 66.795 67.7784 67.995C72.3684 70.655 79.8684 70.655 84.4584 67.995C86.6284 66.795 87.8384 65.095 87.8384 63.165Z" fill="#E6E6E6"/>
<path d="M88.3184 46.0052V63.4052C88.3184 65.0952 87.1084 67.0352 84.6884 68.4852C79.8584 71.1452 72.1184 71.1452 67.2884 68.4852C66.0784 67.7552 65.1084 67.0352 64.6284 66.3052C64.1484 65.8252 63.6584 64.8552 63.6584 64.1252V45.2852C63.6584 45.2852 64.8684 46.9752 67.2884 48.4252C72.1184 51.0852 79.8584 51.0852 84.6884 48.4252C87.1084 46.9752 88.3184 47.6952 88.3184 46.0052Z" fill="url(#paint5_linear)"/>
<path d="M88.3184 44.0752V46.2552C88.3184 47.9452 87.1084 49.8852 84.6884 51.3352C79.8584 53.9952 72.1184 53.9952 67.2884 51.3352C64.8684 49.8852 63.6584 48.1952 63.6584 46.2552V44.0752C63.6584 46.0052 64.8684 47.7052 67.2884 49.1552C72.1184 51.8152 79.8584 51.8152 84.6884 49.1552C87.1084 47.6952 88.3184 45.7652 88.3184 44.0752Z" fill="#E6E6E6"/>
<path d="M84.6984 39.4852C89.5284 42.1452 89.5284 46.7352 84.6984 49.3952C79.8684 52.0552 72.1284 52.0552 67.2984 49.3952C62.4684 46.7352 62.4684 42.1452 67.2984 39.4852C72.1284 36.8252 79.8584 36.8252 84.6984 39.4852Z" fill="white"/>
<path d="M82.5184 40.6851C86.1484 42.8651 86.1484 46.2451 82.5184 48.4151C78.8884 50.5951 73.0884 50.5951 69.2284 48.4151C65.5984 46.2351 65.5984 42.8551 69.2284 40.6851C73.0984 38.5151 78.8984 38.5151 82.5184 40.6851Z" fill="#AEF3FF"/>
<path d="M69.2384 41.8951C72.8684 39.7151 78.6684 39.7151 82.5284 41.8951C83.9784 42.8651 84.9484 43.8251 85.1884 45.0351C85.4284 43.3451 84.7084 41.6551 82.5284 40.4451C78.8984 38.2651 72.8584 38.2651 69.2384 40.4451C67.0584 41.6551 66.3384 43.3451 66.5784 45.0351C66.8184 44.0751 67.5484 42.8651 69.2384 41.8951Z" fill="#50E6FF"/>
<path d="M63.5184 60.9349H74.7984V57.8149H63.5184V60.9349Z" fill="white"/>
<path d="M74.7983 56.2651L79.8183 59.5051L74.7983 62.7351V56.2651Z" fill="white"/>
<defs>
<linearGradient id="paint0_linear" x1="49.8339" y1="-12.6311" x2="53.8159" y2="133.139" gradientUnits="userSpaceOnUse">
<stop stop-color="#00ABDE"/>
<stop offset="1" stop-color="#007ED8"/>
</linearGradient>
<linearGradient id="paint1_linear" x1="31.1157" y1="32.4445" x2="12.974" y2="106.996" gradientUnits="userSpaceOnUse">
<stop stop-color="#4DC2EB"/>
<stop offset="0.585" stop-color="#0078D4"/>
</linearGradient>
<linearGradient id="paint2_linear" x1="50.3775" y1="37.1314" x2="32.2356" y2="111.683" gradientUnits="userSpaceOnUse">
<stop stop-color="#4DC2EB"/>
<stop offset="0.585" stop-color="#0078D4"/>
</linearGradient>
<linearGradient id="paint3_linear" x1="58.2231" y1="39.0407" x2="40.0814" y2="113.592" gradientUnits="userSpaceOnUse">
<stop stop-color="#4DC2EB"/>
<stop offset="0.585" stop-color="#0078D4"/>
</linearGradient>
<linearGradient id="paint4_linear" x1="43.3738" y1="35.4273" x2="25.2321" y2="109.979" gradientUnits="userSpaceOnUse">
<stop stop-color="#4DC2EB"/>
<stop offset="0.585" stop-color="#0078D4"/>
</linearGradient>
<linearGradient id="paint5_linear" x1="75.9947" y1="53.371" x2="75.9947" y2="82.7519" gradientUnits="userSpaceOnUse">
<stop stop-color="#4DC2EB"/>
<stop offset="0.585" stop-color="#0078D4"/>
</linearGradient>
</defs>
</svg>
