<?xml version="1.0" encoding="UTF-8"?>
<svg width="100px" height="100px" viewBox="0 0 100 100" version="1.1" xmlns="http://www.w3.org/2000/svg" xmlns:xlink="http://www.w3.org/1999/xlink">
    <!-- Generator: Sketch 52.6 (67491) - http://www.bohemiancoding.com/sketch -->
    <title>M365 SFA Generalist/teamwork-in-microsoft-365</title>
    <desc>Created with Sketch.</desc>
    <defs>
        <rect id="path-1" x="0" y="0" width="96" height="96" rx="48"></rect>
        <circle id="path-3" cx="48" cy="47" r="33"></circle>
        <filter x="-3.8%" y="-3.8%" width="107.6%" height="110.6%" filterUnits="objectBoundingBox" id="filter-4">
            <feMorphology radius="1.5" operator="dilate" in="SourceAlpha" result="shadowSpreadOuter1"></feMorphology>
            <feOffset dx="0" dy="2" in="shadowSpreadOuter1" result="shadowOffsetOuter1"></feOffset>
            <feMorphology radius="1.5" operator="erode" in="SourceAlpha" result="shadowInner"></feMorphology>
            <feOffset dx="0" dy="2" in="shadowInner" result="shadowInner"></feOffset>
            <feComposite in="shadowOffsetOuter1" in2="shadowInner" operator="out" result="shadowOffsetOuter1"></feComposite>
            <feColorMatrix values="0 0 0 0 0   0 0 0 0 0   0 0 0 0 0  0 0 0 0.1 0" type="matrix" in="shadowOffsetOuter1"></feColorMatrix>
        </filter>
        <path d="M13.0465116,4.76829268 C13.0465116,7.40039024 11.0081589,9.53658537 8.5,9.53658537 C5.98729457,9.53658537 3.95348837,7.40039024 3.95348837,4.76829268 C3.95348837,2.13619512 5.98729457,0 8.5,0 C11.0081589,0 13.0465116,2.13619512 13.0465116,4.76829268" id="path-5"></path>
        <filter x="-11.0%" y="-10.5%" width="122.0%" height="141.9%" filterUnits="objectBoundingBox" id="filter-6">
            <feOffset dx="0" dy="2" in="SourceAlpha" result="shadowOffsetOuter1"></feOffset>
            <feColorMatrix values="0 0 0 0 0   0 0 0 0 0   0 0 0 0 0  0 0 0 0.1 0" type="matrix" in="shadowOffsetOuter1"></feColorMatrix>
        </filter>
        <path d="M17,17 C15.7559508,13.3817988 12.4209362,10.7804878 8.50075215,10.7804878 C4.5790638,10.7804878 1.24555349,13.3817988 0,17 L17,17" id="path-7"></path>
        <filter x="-5.9%" y="-16.1%" width="111.8%" height="164.3%" filterUnits="objectBoundingBox" id="filter-8">
            <feOffset dx="0" dy="2" in="SourceAlpha" result="shadowOffsetOuter1"></feOffset>
            <feColorMatrix values="0 0 0 0 0   0 0 0 0 0   0 0 0 0 0  0 0 0 0.1 0" type="matrix" in="shadowOffsetOuter1"></feColorMatrix>
        </filter>
        <path d="M13.0465116,4.76829268 C13.0465116,7.40039024 11.0081589,9.53658537 8.5,9.53658537 C5.98729457,9.53658537 3.95348837,7.40039024 3.95348837,4.76829268 C3.95348837,2.13619512 5.98729457,0 8.5,0 C11.0081589,0 13.0465116,2.13619512 13.0465116,4.76829268" id="path-9"></path>
        <filter x="-11.0%" y="-10.5%" width="122.0%" height="141.9%" filterUnits="objectBoundingBox" id="filter-10">
            <feOffset dx="0" dy="2" in="SourceAlpha" result="shadowOffsetOuter1"></feOffset>
            <feColorMatrix values="0 0 0 0 0   0 0 0 0 0   0 0 0 0 0  0 0 0 0.1 0" type="matrix" in="shadowOffsetOuter1"></feColorMatrix>
        </filter>
        <path d="M17,17 C15.7559508,13.3817988 12.4209362,10.7804878 8.50075215,10.7804878 C4.5790638,10.7804878 1.24555349,13.3817988 0,17 L17,17" id="path-11"></path>
        <filter x="-5.9%" y="-16.1%" width="111.8%" height="164.3%" filterUnits="objectBoundingBox" id="filter-12">
            <feOffset dx="0" dy="2" in="SourceAlpha" result="shadowOffsetOuter1"></feOffset>
            <feColorMatrix values="0 0 0 0 0   0 0 0 0 0   0 0 0 0 0  0 0 0 0.1 0" type="matrix" in="shadowOffsetOuter1"></feColorMatrix>
        </filter>
        <path d="M13.0465116,4.76829268 C13.0465116,7.40039024 11.0081589,9.53658537 8.5,9.53658537 C5.98729457,9.53658537 3.95348837,7.40039024 3.95348837,4.76829268 C3.95348837,2.13619512 5.98729457,0 8.5,0 C11.0081589,0 13.0465116,2.13619512 13.0465116,4.76829268" id="path-13"></path>
        <filter x="-11.0%" y="-10.5%" width="122.0%" height="141.9%" filterUnits="objectBoundingBox" id="filter-14">
            <feOffset dx="0" dy="2" in="SourceAlpha" result="shadowOffsetOuter1"></feOffset>
            <feColorMatrix values="0 0 0 0 0   0 0 0 0 0   0 0 0 0 0  0 0 0 0.1 0" type="matrix" in="shadowOffsetOuter1"></feColorMatrix>
        </filter>
        <path d="M17,17 C15.7559508,13.3817988 12.4209362,10.7804878 8.50075215,10.7804878 C4.5790638,10.7804878 1.24555349,13.3817988 0,17 L17,17" id="path-15"></path>
        <filter x="-5.9%" y="-16.1%" width="111.8%" height="164.3%" filterUnits="objectBoundingBox" id="filter-16">
            <feOffset dx="0" dy="2" in="SourceAlpha" result="shadowOffsetOuter1"></feOffset>
            <feColorMatrix values="0 0 0 0 0   0 0 0 0 0   0 0 0 0 0  0 0 0 0.1 0" type="matrix" in="shadowOffsetOuter1"></feColorMatrix>
        </filter>
        <path d="M13.0465116,4.76829268 C13.0465116,7.40039024 11.0081589,9.53658537 8.5,9.53658537 C5.98729457,9.53658537 3.95348837,7.40039024 3.95348837,4.76829268 C3.95348837,2.13619512 5.98729457,0 8.5,0 C11.0081589,0 13.0465116,2.13619512 13.0465116,4.76829268" id="path-17"></path>
        <filter x="-11.0%" y="-10.5%" width="122.0%" height="141.9%" filterUnits="objectBoundingBox" id="filter-18">
            <feOffset dx="0" dy="2" in="SourceAlpha" result="shadowOffsetOuter1"></feOffset>
            <feColorMatrix values="0 0 0 0 0   0 0 0 0 0   0 0 0 0 0  0 0 0 0.1 0" type="matrix" in="shadowOffsetOuter1"></feColorMatrix>
        </filter>
        <path d="M17,17 C15.7559508,13.3817988 12.4209362,10.7804878 8.50075215,10.7804878 C4.5790638,10.7804878 1.24555349,13.3817988 0,17 L17,17" id="path-19"></path>
        <filter x="-5.9%" y="-16.1%" width="111.8%" height="164.3%" filterUnits="objectBoundingBox" id="filter-20">
            <feOffset dx="0" dy="2" in="SourceAlpha" result="shadowOffsetOuter1"></feOffset>
            <feColorMatrix values="0 0 0 0 0   0 0 0 0 0   0 0 0 0 0  0 0 0 0.1 0" type="matrix" in="shadowOffsetOuter1"></feColorMatrix>
        </filter>
        <path d="M23.1712963,18.6162368 C23.1712963,21.6716091 20.6958295,24.1573546 17.654321,24.1573546 C14.6122608,24.1573546 12.1373457,21.6716091 12.1373457,18.6162368 C12.1373457,15.5608644 14.6122608,13.075119 17.654321,13.075119 C20.6958295,13.075119 23.1712963,15.5608644 23.1712963,18.6162368 Z M30.8018248,15.0588391 C30.5916281,15.0122937 30.2644715,14.7130734 30.1988194,14.5069438 C30.190544,14.4786841 30.1800617,14.4509785 30.1684761,14.423827 L29.4606481,12.6961065 C29.4485108,12.6661845 29.4347184,12.6362624 29.4198225,12.6074486 C29.320517,12.41628 29.3398264,11.9757612 29.4551312,11.7945666 L30.8663735,9.56703728 C31.4649653,8.62227669 31.3160069,7.26193227 30.5281829,6.47010654 L29.7475309,5.68603837 C28.9779128,4.91249833 27.5848765,4.75790114 26.6640934,5.34636785 L24.4457176,6.76323167 C24.3717901,6.81143939 24.196902,6.86297179 23.9894637,6.86297179 C23.8195409,6.86297179 23.6932022,6.82861686 23.636929,6.79924894 C23.6087924,6.78373381 23.5784491,6.77043512 23.5481057,6.75824466 L21.8284645,6.04676514 C21.8014313,6.0356829 21.7738465,6.02515478 21.7457099,6.0168431 C21.5410301,5.9509038 21.2425617,5.62231552 21.1962191,5.41064482 L20.6263156,2.83457915 C20.3841204,1.74131661 19.3209992,0.884659797 18.2060185,0.884659797 L17.1026235,0.884659797 C15.987091,0.884659797 14.9245216,1.74131661 14.6828781,2.83402504 L14.1124228,5.41175304 C14.0655285,5.62231552 13.7676119,5.9509038 13.5629321,6.0168431 C13.5347955,6.02515478 13.5072106,6.0356829 13.4796258,6.04676514 L11.7599846,6.75824466 C11.7296412,6.77043512 11.6998495,6.78373381 11.6711613,6.79924894 C11.6154398,6.82861686 11.4891011,6.86297179 11.3186265,6.86297179 C11.1111883,6.86297179 10.9363002,6.81088528 10.861821,6.76323167 L8.64454861,5.34692196 C7.72376543,4.75845525 6.33017747,4.91360655 5.56111111,5.68659248 L4.7804591,6.47010654 C3.99208333,7.26248638 3.8436767,8.6228308 4.44226852,9.56759139 L5.8535108,11.7945666 C5.96826389,11.9763153 5.9875733,12.4157259 5.88881944,12.6068945 C5.87392361,12.6362624 5.85957948,12.6661845 5.84744213,12.6961065 L5.1396142,14.423827 C5.12858025,14.4509785 5.11809799,14.4786841 5.10927083,14.5069438 C5.04361883,14.7130734 4.71701389,15.0122937 4.50626543,15.0593932 L1.94142361,15.6312366 C0.852924383,15.8744917 -1.13686838e-13,16.941711 -1.13686838e-13,18.062125 L-1.13686838e-13,19.1703485 C-1.13686838e-13,20.2902084 0.852924383,21.3579818 1.94087191,21.6006828 L4.50681713,22.1730803 C4.71701389,22.2201798 5.04361883,22.5194001 5.10927083,22.7255297 C5.11809799,22.7537894 5.12858025,22.781495 5.1396142,22.8086465 L5.84744213,24.536367 C5.85957948,24.566289 5.87337191,24.595657 5.88881944,24.6250249 C5.9875733,24.8156393 5.96826389,25.2561582 5.8529591,25.4379069 L4.44226852,27.6648821 C3.843125,28.6096427 3.99208333,29.9705412 4.7804591,30.762367 L5.56111111,31.5464351 C6.32962577,32.3177587 7.72155864,32.4751265 8.64510031,31.8861057 L10.8612693,30.4692418 C10.9363002,30.4210341 11.1111883,30.3695017 11.3186265,30.3695017 C11.4891011,30.3695017 11.6154398,30.4033025 11.6711613,30.4332246 C11.7004012,30.4476315 11.7296412,30.4620384 11.7599846,30.4742288 L13.4796258,31.1857084 C13.5072106,31.1967906 13.5347955,31.2067646 13.5629321,31.2156304 C13.7676119,31.2815697 14.0655285,31.610158 14.1124228,31.8212746 L14.6828781,34.3978944 C14.9245216,35.4911569 15.987091,36.3478137 17.1026235,36.3478137 L18.2060185,36.3478137 C19.3209992,36.3478137 20.3835687,35.4911569 20.6257639,34.3978944 L21.1962191,31.8212746 C21.2425617,31.610158 21.5410301,31.2815697 21.7457099,31.2156304 C21.7738465,31.2067646 21.8014313,31.1967906 21.8284645,31.1857084 L23.5481057,30.4742288 C23.5784491,30.4620384 23.6082407,30.4476315 23.636929,30.4332246 C23.6932022,30.4033025 23.8195409,30.3695017 23.988912,30.3695017 C24.1963503,30.3695017 24.3717901,30.4210341 24.4457176,30.4692418 L26.6635417,31.8855515 C27.5837731,32.4751265 28.9779128,32.318867 29.7475309,31.5464351 L30.5276312,30.7629211 C31.3160069,29.9710953 31.4649653,28.6101968 30.8663735,27.6648821 L29.4551312,25.4379069 C29.3398264,25.2561582 29.320517,24.8161935 29.4198225,24.625579 C29.4347184,24.5962111 29.4485108,24.5668432 29.4606481,24.5369211 L30.1684761,22.8086465 C30.1800617,22.781495 30.190544,22.7537894 30.1988194,22.7255297 C30.2644715,22.5194001 30.5916281,22.2201798 30.8023765,22.1730803 L33.3666667,21.6006828 C34.4557176,21.3579818 35.308642,20.2902084 35.308642,19.1703485 L35.308642,18.062125 C35.308642,16.941711 34.4557176,15.8744917 33.3672184,15.6317907 L30.8018248,15.0588391 Z" id="path-21"></path>
        <filter x="-4.2%" y="-1.4%" width="105.7%" height="105.6%" filterUnits="objectBoundingBox" id="filter-22">
            <feOffset dx="-1" dy="1" in="SourceAlpha" result="shadowOffsetOuter1"></feOffset>
            <feColorMatrix values="0 0 0 0 0   0 0 0 0 0   0 0 0 0 0  0 0 0 0.1 0" type="matrix" in="shadowOffsetOuter1"></feColorMatrix>
        </filter>
        <path d="M0.489181713,12.4090909 C3.19781713,12.4090909 5.39178241,9.76418182 5.39178241,6.5 C5.39178241,3.23581818 3.19781713,0.590909091 0.489181713,0.590909091 L0.489181713,12.4090909 Z" id="path-23"></path>
    </defs>
    <g id="Badges" stroke="none" stroke-width="1" fill="none" fill-rule="evenodd">
        <g id="M365-SFA-Generalist-2" transform="translate(-50.000000, -860.000000)">
            <g id="M365-SFA-Generalist/teamwork-in-microsoft-365" transform="translate(50.000000, 860.000000)">
                <g id="Mask" transform="translate(2.000000, 2.000000)">
                    <mask id="mask-2" fill="white">
                        <use xlink:href="#path-1"></use>
                    </mask>
                    <use id="BG" fill="#55A2FF" xlink:href="#path-1"></use>
                    <g id="Circle" fill-rule="nonzero" mask="url(#mask-2)">
                        <use fill="black" fill-opacity="1" filter="url(#filter-4)" xlink:href="#path-3"></use>
                        <use stroke="#FFFFFF" stroke-width="3" xlink:href="#path-3"></use>
                    </g>
                    <g id="Person-4" mask="url(#mask-2)">
                        <g transform="translate(37.000000, 66.000000)">
                            <path d="M11.5,23 C5.14846154,23 -2.27373675e-13,17.8506538 -2.27373675e-13,11.5 C-2.27373675e-13,5.14934615 5.14846154,-9.09494702e-13 11.5,-9.09494702e-13 C17.8515385,-9.09494702e-13 23,5.14934615 23,11.5 C23,17.8506538 17.8515385,23 11.5,23 Z" id="Fill-25" fill="#55A2FF"></path>
                            <g id="Bottom-person" stroke-width="1" fill="none" transform="translate(3.000000, 4.000000)">
                                <g id="Group-22">
                                    <path d="M8.69767442,14.097561 C7.82316279,14.097561 7.11627907,13.2440366 7.11627907,12.1886545 L7.11627907,6.46670325 C7.11627907,5.4145 7.82316279,4.56097561 8.69767442,4.56097561 C9.57060465,4.56097561 10.2790698,5.4145 10.2790698,6.46670325 L10.2790698,12.1886545 C10.2790698,13.2440366 9.57060465,14.097561 8.69767442,14.097561" id="Fill-304" fill="#30404D"></path>
                                    <g id="Fill-305">
                                        <use fill="black" fill-opacity="1" filter="url(#filter-6)" xlink:href="#path-5"></use>
                                        <use fill="#546670" fill-rule="evenodd" xlink:href="#path-5"></use>
                                    </g>
                                    <path d="M10.8853662,0.829268293 C11.2993616,1.54102954 11.5519436,2.37037248 11.5519436,3.26556119 C11.5519436,5.8617652 9.54174952,7.96882932 7.06823938,7.96882932 C6.21334645,7.96882932 5.42421451,7.70544631 4.74418605,7.26961012 C5.53182341,8.62415135 6.93970653,9.53658537 8.56280744,9.53658537 C11.0363176,9.53658537 13.0465116,7.42952124 13.0465116,4.83331723 C13.0465116,3.13230192 12.1751784,1.65547573 10.8853662,0.829268293" id="Fill-306" fill="#30404D"></path>
                                    <g id="Fill-307">
                                        <use fill="black" fill-opacity="1" filter="url(#filter-8)" xlink:href="#path-7"></use>
                                        <use fill="#546670" fill-rule="evenodd" xlink:href="#path-7"></use>
                                    </g>
                                    <path d="M9.1048062,10.7804878 L5.53488372,17 L17,17 C15.8220155,13.536186 12.7571576,11.0248817 9.1048062,10.7804878" id="Fill-321" fill="#30404D"></path>
                                </g>
                            </g>
                        </g>
                    </g>
                    <g id="Person-3" mask="url(#mask-2)">
                        <g transform="translate(66.000000, 34.000000)">
                            <path d="M13,26 C5.82,26 -2.27373675e-13,20.179 -2.27373675e-13,13 C-2.27373675e-13,5.821 5.82,-9.09494702e-13 13,-9.09494702e-13 C20.18,-9.09494702e-13 26,5.821 26,13 C26,20.179 20.18,26 13,26 Z" id="Fill-25" fill="#55A2FF"></path>
                            <g id="4" stroke-width="1" fill="none" transform="translate(5.000000, 4.000000)">
                                <g id="Group-22">
                                    <path d="M8.69767442,14.097561 C7.82316279,14.097561 7.11627907,13.2440366 7.11627907,12.1886545 L7.11627907,6.46670325 C7.11627907,5.4145 7.82316279,4.56097561 8.69767442,4.56097561 C9.57060465,4.56097561 10.2790698,5.4145 10.2790698,6.46670325 L10.2790698,12.1886545 C10.2790698,13.2440366 9.57060465,14.097561 8.69767442,14.097561" id="Fill-304" fill="#30404D"></path>
                                    <g id="Fill-305">
                                        <use fill="black" fill-opacity="1" filter="url(#filter-10)" xlink:href="#path-9"></use>
                                        <use fill="#546670" fill-rule="evenodd" xlink:href="#path-9"></use>
                                    </g>
                                    <path d="M10.8853662,0.829268293 C11.2993616,1.54102954 11.5519436,2.37037248 11.5519436,3.26556119 C11.5519436,5.8617652 9.54174952,7.96882932 7.06823938,7.96882932 C6.21334645,7.96882932 5.42421451,7.70544631 4.74418605,7.26961012 C5.53182341,8.62415135 6.93970653,9.53658537 8.56280744,9.53658537 C11.0363176,9.53658537 13.0465116,7.42952124 13.0465116,4.83331723 C13.0465116,3.13230192 12.1751784,1.65547573 10.8853662,0.829268293" id="Fill-306" fill="#30404D"></path>
                                    <g id="Fill-307">
                                        <use fill="black" fill-opacity="1" filter="url(#filter-12)" xlink:href="#path-11"></use>
                                        <use fill="#546670" fill-rule="evenodd" xlink:href="#path-11"></use>
                                    </g>
                                    <path d="M9.1048062,10.7804878 L5.53488372,17 L17,17 C15.8220155,13.536186 12.7571576,11.0248817 9.1048062,10.7804878" id="Fill-321" fill="#30404D"></path>
                                </g>
                            </g>
                        </g>
                    </g>
                    <g id="Person-2" mask="url(#mask-2)">
                        <g transform="translate(37.000000, 2.000000)">
                            <path d="M11.5,23 C5.14846154,23 -2.27373675e-13,17.8506538 -2.27373675e-13,11.5 C-2.27373675e-13,5.14934615 5.14846154,-9.09494702e-13 11.5,-9.09494702e-13 C17.8515385,-9.09494702e-13 23,5.14934615 23,11.5 C23,17.8506538 17.8515385,23 11.5,23 Z" id="Fill-25" fill="#55A2FF"></path>
                            <g id="4" stroke-width="1" fill="none" transform="translate(3.000000, 4.000000)">
                                <g id="Group-22">
                                    <path d="M8.69767442,14.097561 C7.82316279,14.097561 7.11627907,13.2440366 7.11627907,12.1886545 L7.11627907,6.46670325 C7.11627907,5.4145 7.82316279,4.56097561 8.69767442,4.56097561 C9.57060465,4.56097561 10.2790698,5.4145 10.2790698,6.46670325 L10.2790698,12.1886545 C10.2790698,13.2440366 9.57060465,14.097561 8.69767442,14.097561" id="Fill-304" fill="#30404D"></path>
                                    <g id="Fill-305">
                                        <use fill="black" fill-opacity="1" filter="url(#filter-14)" xlink:href="#path-13"></use>
                                        <use fill="#546670" fill-rule="evenodd" xlink:href="#path-13"></use>
                                    </g>
                                    <path d="M10.8853662,0.829268293 C11.2993616,1.54102954 11.5519436,2.37037248 11.5519436,3.26556119 C11.5519436,5.8617652 9.54174952,7.96882932 7.06823938,7.96882932 C6.21334645,7.96882932 5.42421451,7.70544631 4.74418605,7.26961012 C5.53182341,8.62415135 6.93970653,9.53658537 8.56280744,9.53658537 C11.0363176,9.53658537 13.0465116,7.42952124 13.0465116,4.83331723 C13.0465116,3.13230192 12.1751784,1.65547573 10.8853662,0.829268293" id="Fill-306" fill="#30404D"></path>
                                    <g id="Fill-307">
                                        <use fill="black" fill-opacity="1" filter="url(#filter-16)" xlink:href="#path-15"></use>
                                        <use fill="#546670" fill-rule="evenodd" xlink:href="#path-15"></use>
                                    </g>
                                    <path d="M9.1048062,10.7804878 L5.53488372,17 L17,17 C15.8220155,13.536186 12.7571576,11.0248817 9.1048062,10.7804878" id="Fill-321" fill="#30404D"></path>
                                </g>
                            </g>
                        </g>
                    </g>
                    <g id="Person-1" mask="url(#mask-2)">
                        <g transform="translate(4.000000, 34.000000)">
                            <path d="M13,26 C5.82,26 -2.27373675e-13,20.179 -2.27373675e-13,13 C-2.27373675e-13,5.821 5.82,-9.09494702e-13 13,-9.09494702e-13 C20.18,-9.09494702e-13 26,5.821 26,13 C26,20.179 20.18,26 13,26 Z" id="Fill-25" fill="#55A2FF"></path>
                            <g id="4" stroke-width="1" fill="none" transform="translate(4.000000, 4.000000)">
                                <g id="Group-22">
                                    <path d="M8.69767442,14.097561 C7.82316279,14.097561 7.11627907,13.2440366 7.11627907,12.1886545 L7.11627907,6.46670325 C7.11627907,5.4145 7.82316279,4.56097561 8.69767442,4.56097561 C9.57060465,4.56097561 10.2790698,5.4145 10.2790698,6.46670325 L10.2790698,12.1886545 C10.2790698,13.2440366 9.57060465,14.097561 8.69767442,14.097561" id="Fill-304" fill="#30404D"></path>
                                    <g id="Fill-305">
                                        <use fill="black" fill-opacity="1" filter="url(#filter-18)" xlink:href="#path-17"></use>
                                        <use fill="#546670" fill-rule="evenodd" xlink:href="#path-17"></use>
                                    </g>
                                    <path d="M10.8853662,0.829268293 C11.2993616,1.54102954 11.5519436,2.37037248 11.5519436,3.26556119 C11.5519436,5.8617652 9.54174952,7.96882932 7.06823938,7.96882932 C6.21334645,7.96882932 5.42421451,7.70544631 4.74418605,7.26961012 C5.53182341,8.62415135 6.93970653,9.53658537 8.56280744,9.53658537 C11.0363176,9.53658537 13.0465116,7.42952124 13.0465116,4.83331723 C13.0465116,3.13230192 12.1751784,1.65547573 10.8853662,0.829268293" id="Fill-306" fill="#30404D"></path>
                                    <g id="Fill-307">
                                        <use fill="black" fill-opacity="1" filter="url(#filter-20)" xlink:href="#path-19"></use>
                                        <use fill="#546670" fill-rule="evenodd" xlink:href="#path-19"></use>
                                    </g>
                                    <path d="M9.1048062,10.7804878 L5.53488372,17 L17,17 C15.8220155,13.536186 12.7571576,11.0248817 9.1048062,10.7804878" id="Fill-321" fill="#30404D"></path>
                                </g>
                            </g>
                        </g>
                    </g>
                    <g id="Gear" mask="url(#mask-2)">
                        <g transform="translate(22.000000, 21.000000)">
                            <g id="Group-10" transform="translate(25.875555, 26.269245) rotate(-45.000000) translate(-25.875555, -26.269245) translate(7.875555, 7.769245)">
                                <g id="Fill-376">
                                    <use fill="black" fill-opacity="1" filter="url(#filter-22)" xlink:href="#path-21"></use>
                                    <use fill="#546670" fill-rule="evenodd" xlink:href="#path-21"></use>
                                </g>
                                <path d="M10.9112606,30.5982408 C10.9866075,30.5498308 11.1622324,30.4980823 11.3705446,30.4980823 C11.5417374,30.4980823 11.6686084,30.5320249 11.7245646,30.5620724 C11.7539278,30.5765398 11.7832909,30.5910071 11.8137621,30.6032487 L13.5406481,31.3177126 C13.5683492,31.3288413 13.5960503,31.3388572 13.6243054,31.3477601 C13.8298475,31.413976 14.1290193,31.7439426 14.1761112,31.9559448 L14.7489697,34.5433724 C14.9916313,35.6412208 16.0586773,36.5014709 17.1789095,36.5014709 L18.2869531,36.5014709 C19.4066312,36.5014709 20.4736773,35.6412208 20.7168928,34.5433724 L21.2897514,31.9559448 C21.3362892,31.7439426 21.6360151,31.413976 21.8415572,31.3477601 C21.8698123,31.3388572 21.8975134,31.3288413 21.9246604,31.3177126 L23.6515465,30.6032487 C23.6820177,30.5910071 23.7119348,30.5765398 23.740744,30.5620724 C23.7972542,30.5320249 23.9241252,30.4980823 24.0942099,30.4980823 C24.3025221,30.4980823 24.478701,30.5498308 24.55294,30.5982408 L26.7801077,32.0204913 C27.7042161,32.6125393 29.1042293,32.4556243 29.8770897,31.6799525 L30.6604766,30.8931519 C31.4521738,30.0980048 31.6017597,28.7313978 31.000646,27.7821179 L29.5834581,25.5458013 C29.4676676,25.3632903 29.4482768,24.9214801 29.5480007,24.7300661 C29.5629593,24.700575 29.5768099,24.6710839 29.5889984,24.6410363 L30.2998084,22.9055122 C30.3114428,22.8782469 30.3219692,22.8504251 30.3302796,22.8220468 C30.3962082,22.6150526 30.7247431,22.3145771 30.9363794,22.2672801 L33.5114729,21.6924816 C34.605112,21.4487626 35.4616297,20.3765104 35.4616297,19.2519531 L35.4616297,18.139081 C35.4616297,17.0139672 34.605112,15.9422714 33.5120269,15.6985524 L30.9358254,15.1231975 C30.7247431,15.0764569 30.3962082,14.7759814 30.3302796,14.5689872 C30.3219692,14.540609 30.3114428,14.5127872 30.2998084,14.4855218 L29.5889984,12.7505542 C29.5768099,12.7205066 29.5629593,12.6904591 29.5480007,12.6615244 C29.4482768,12.4695539 29.4676676,12.0271873 29.5834581,11.8452327 L31.000646,9.60835972 C31.6017597,8.65963624 31.3916946,7.35432949 30.6005515,6.55918236 L29.8685273,5.82396205 L21.405705,14.323818 C22.4090385,15.3315237 23.2731495,17.1614228 23.2731495,18.695517 C23.2731495,21.7637054 20.7872536,24.2598776 17.7329313,24.2598776 C16.2054931,24.2598776 14.5452916,23.2291263 13.541958,22.221977 L4.85698179,30.944959 L5.58877288,31.6799525 C6.36052528,32.4545115 7.75832235,32.6125393 8.68575488,32.0210478 L10.9112606,30.5982408 Z" id="Fill-377" fill="#30404D"></path>
                            </g>
                            <g id="Group-11" transform="translate(20.000000, 21.000000)">
                                <path d="M5.88194444,11.8181818 C9.13113056,11.8181818 11.7638889,9.17327273 11.7638889,5.90909091 C11.7638889,2.64490909 9.13113056,0 5.88194444,0 C2.63393472,0 0,2.64490909 0,5.90909091 C0,9.17327273 2.63393472,11.8181818 5.88194444,11.8181818 Z" id="Stroke-4" stroke="#30404D" stroke-width="2"></path>
                                <g id="Group-8" transform="translate(5.881944, 0.000000)">
                                    <mask id="mask-24" fill="white">
                                        <use xlink:href="#path-23"></use>
                                    </mask>
                                    <g id="Clip-7"></g>
                                    <polygon id="Stroke-6" stroke="#C4C4C4" mask="url(#mask-24)" points="-9.3130787 18.3181818 10.2934028 18.3181818 10.2934028 -5.31818182 -9.3130787 -5.31818182"></polygon>
                                </g>
                                <path d="M5.88194444,11.8181818 C9.13113056,11.8181818 11.7638889,9.17327273 11.7638889,5.90909091 C11.7638889,2.64490909 9.13113056,0 5.88194444,0" id="Stroke-9" stroke="#546670" stroke-width="2"></path>
                            </g>
                        </g>
                    </g>
                </g>
                <g id="Azure-Border" stroke="#0078D4" stroke-width="4">
                    <rect x="2" y="2" width="96" height="96" rx="48"></rect>
                </g>
            </g>
        </g>
    </g>
</svg>