<svg width="181" height="190" viewBox="0 0 181 190" fill="none" xmlns="https://www.w3.org/2000/svg">
<path d="M90.5001 189C93.5601 189 96.5701 188.15 99.2301 186.53L161.2 148.87C166.74 145.5 170.17 139.17 170.17 132.33V57.6196C170.17 50.7996 166.74 44.4596 161.2 41.0796L99.2301 3.41958C93.9001 0.179576 87.0801 0.199576 81.7801 3.41958L19.8101 41.0996C14.2701 44.4696 10.8201 50.7996 10.8201 57.6396V132.34C10.8201 138.1 13.2701 143.52 17.3701 147.09V147.12L81.7801 186.55C84.4201 188.15 87.4401 189 90.5001 189ZM91.1501 7.94958C93.1001 7.94958 95.5801 9.15958 97.2901 10.2096L158.05 47.3996C161.8 49.6796 163.92 56.2796 163.92 61.0296L163.29 132.33C163.29 137.08 160.09 141.35 156.34 143.63L95.9401 180.01C92.5101 182.1 89.7201 182.1 86.2801 180.01L25.0701 143.54C21.3201 141.26 18.3001 137.06 18.3001 132.33V58.6896C18.3001 53.9496 21.0301 49.0596 24.8001 46.7696L85.3801 10.2096C87.0801 9.16958 89.2001 7.94958 91.1501 7.94958Z" fill="#F2F1F0"/>
<path fill-rule="evenodd" clip-rule="evenodd" d="M98.4001 11.5303C95.9501 10.0303 93.2301 9.28027 90.5001 9.28027C87.7701 9.28027 85.0501 10.0403 82.6001 11.5303L26.4701 45.8603C21.4501 48.9303 18.3401 54.6803 18.3401 60.9303V129.03C18.3401 135.26 21.4401 141.03 26.4701 144.1L82.6001 178.43C85.0501 179.93 87.7701 180.68 90.5001 180.68C93.2301 180.68 95.9501 179.94 98.4001 178.43L154.53 144.1C159.55 141.03 162.66 135.26 162.66 129.03V60.9303C162.66 54.7003 159.56 48.9503 154.53 45.8603L98.4001 11.5303Z" fill="url(#paint0_linear)"/>
<path fill-rule="evenodd" clip-rule="evenodd" d="M90.5001 10.75C92.1801 10.75 94.0701 11.62 96.1301 12.87L154.6 48.41C158.25 50.63 160.66 54.9 160.66 59.73V130.21C160.66 135.03 158.25 139.31 154.6 141.53L96.1401 177.07C94.1801 178.26 92.2601 179.01 90.5101 179.01C88.7601 179.01 86.8401 178.26 84.8801 177.07L26.4001 141.54C24.3901 140.31 22.9401 139.11 21.9601 137.5C20.9801 135.9 20.3401 133.68 20.3401 130.22V59.74C20.3401 54.91 22.7501 50.64 26.4001 48.42L84.8601 12.88C86.9501 11.63 88.8101 10.75 90.5001 10.75ZM98.2101 180.5L156.67 144.96C161.59 141.97 164.65 136.35 164.65 130.22V59.74C164.65 53.61 161.59 47.99 156.67 45L98.2101 9.46C96.1001 8.18 93.3901 6.75 90.5001 6.75C87.6001 6.75 84.8901 8.19 82.8001 9.45H82.7901L24.3201 45C19.4001 47.99 16.3401 53.61 16.3401 59.74V130.22C16.3401 134.18 17.0801 137.17 18.5401 139.58C20.0001 141.98 22.0601 143.58 24.3201 144.95L82.7801 180.49C85.0001 181.84 87.6701 183.02 90.4901 183.02C93.3101 183.02 95.9901 181.85 98.2101 180.5Z" fill="url(#paint1_linear)"/>
<path d="M89.3201 57.8101C84.2601 57.8101 80.1301 53.6601 80.1301 48.5701C80.1301 43.4801 84.2601 39.3301 89.3201 39.3301C94.3801 39.3301 98.5001 43.4701 98.5001 48.5701C98.5001 53.6701 94.3801 57.8101 89.3201 57.8101ZM89.3201 42.9801C86.2701 42.9801 83.7901 45.4801 83.7901 48.5701C83.7901 51.6601 86.2701 54.1601 89.3201 54.1601C92.3701 54.1601 94.8501 51.6601 94.8501 48.5701C94.8501 45.4801 92.3701 42.9801 89.3201 42.9801Z" fill="url(#paint2_linear)"/>
<path d="M112.83 145.65H66.98L62.16 154.64L58.95 152.9L72.3 128.04L75.5 129.79L68.93 142H110.87L104.31 129.8L107.52 128.06L120.87 152.92L117.66 154.66L112.83 145.65Z" fill="url(#paint3_linear)"/>
<path d="M139.6 58.4502H40.25V125.23H139.6V58.4502Z" fill="url(#paint4_linear)"/>
<path d="M38.9601 48.5498H140.87C142.88 48.5498 144.52 50.1898 144.52 52.1998V56.0198C144.52 58.0298 142.88 59.6698 140.87 59.6698H38.9601C36.9501 59.6698 35.3101 58.0298 35.3101 56.0198V52.1998C35.3001 50.1898 36.9501 48.5498 38.9601 48.5498Z" fill="url(#paint5_linear)"/>
<path d="M38.39 123.82H141.41C143.11 123.82 144.5 125.21 144.5 126.91C144.5 128.61 143.11 130 141.41 130H38.39C36.69 130.02 35.3 128.63 35.3 126.93C35.3 125.21 36.69 123.82 38.39 123.82Z" fill="url(#paint6_linear)"/>
<path d="M139.6 58.4502H40.25V125.23H139.6V58.4502Z" fill="url(#paint7_linear)"/>
<path d="M38.9601 48.5498H140.87C142.88 48.5498 144.52 50.1898 144.52 52.1998V56.0198C144.52 58.0298 142.88 59.6698 140.87 59.6698H38.9601C36.9501 59.6698 35.3101 58.0298 35.3101 56.0198V52.1998C35.3001 50.1898 36.9501 48.5498 38.9601 48.5498Z" fill="url(#paint8_linear)"/>
<path d="M38.39 123.82H141.41C143.11 123.82 144.5 125.21 144.5 126.91C144.5 128.61 143.11 130 141.41 130H38.39C36.69 130.02 35.3 128.63 35.3 126.93C35.3 125.21 36.69 123.82 38.39 123.82Z" fill="url(#paint9_linear)"/>
<path opacity="0.2" d="M127.79 68.0098H115.46C114.71 68.0098 114.1 68.6198 114.1 69.3698V76.9198C114.1 77.6698 114.71 78.2798 115.46 78.2798H127.8C128.55 78.2898 129.16 77.6798 129.16 76.9198V69.3798C129.16 68.6198 128.55 68.0098 127.79 68.0098Z" fill="#1F1D21"/>
<path opacity="0.2" d="M127.79 93.1396H115.46C114.71 93.1396 114.1 93.7496 114.1 94.4996V102.06C114.1 102.81 114.71 103.42 115.46 103.42H127.8C128.55 103.42 129.16 102.81 129.16 102.06V94.5196C129.16 93.7496 128.55 93.1396 127.79 93.1396Z" fill="#1F1D21"/>
<path opacity="0.2" d="M127.79 80.5596H115.46C114.71 80.5596 114.1 81.1696 114.1 81.9196V89.4696C114.1 90.2196 114.71 90.8296 115.46 90.8296H127.8C128.55 90.8396 129.16 90.2296 129.16 89.4696V81.9196C129.16 81.1696 128.55 80.5596 127.79 80.5596Z" fill="#1F1D21"/>
<path opacity="0.2" d="M127.79 105.689H115.46C114.71 105.689 114.1 106.299 114.1 107.049V114.609C114.1 115.359 114.71 115.969 115.46 115.969H127.8C128.55 115.969 129.16 115.359 129.16 114.609V107.059C129.16 106.309 128.55 105.689 127.79 105.689Z" fill="#1F1D21"/>
<path opacity="0.2" d="M121.04 73.3096V72.3096H106.49C106.21 72.3096 105.99 72.5296 105.99 72.8096V91.2796H91.1799V92.2796H105.99V110.02C105.99 110.3 106.21 110.52 106.49 110.52H121.04V109.52H106.99V98.1296H121.04V97.1296H106.99V85.7296H121.04V84.7296H106.99V73.3096H121.04Z" fill="#1F1D21"/>
<g opacity="0.15">
<path opacity="0.15" d="M127.79 68.25H115.46C114.71 68.25 114.1 68.86 114.1 69.61V77.16C114.1 77.91 114.71 78.52 115.46 78.52H127.8C128.55 78.53 129.16 77.92 129.16 77.16V69.62C129.16 68.85 128.55 68.25 127.79 68.25Z" fill="#1F1D20"/>
<path opacity="0.15" d="M127.79 93.3799H115.46C114.71 93.3799 114.1 93.9899 114.1 94.7399V102.3C114.1 103.05 114.71 103.66 115.46 103.66H127.8C128.55 103.66 129.16 103.05 129.16 102.3V94.7599C129.16 93.9899 128.55 93.3799 127.79 93.3799Z" fill="#1F1D20"/>
<path opacity="0.15" d="M127.79 80.79H115.46C114.71 80.79 114.1 81.4 114.1 82.15V89.7C114.1 90.45 114.71 91.06 115.46 91.06H127.8C128.55 91.07 129.16 90.46 129.16 89.7V82.15C129.16 81.4 128.55 80.79 127.79 80.79Z" fill="#1F1D20"/>
<path opacity="0.15" d="M127.79 105.92H115.46C114.71 105.92 114.1 106.53 114.1 107.28V114.84C114.1 115.59 114.71 116.2 115.46 116.2H127.8C128.55 116.2 129.16 115.59 129.16 114.84V107.29C129.16 106.54 128.55 105.92 127.79 105.92Z" fill="#1F1D20"/>
</g>
<path d="M127.79 67.3496H115.46C114.71 67.3496 114.1 67.9596 114.1 68.7096V76.2596C114.1 77.0096 114.71 77.6196 115.46 77.6196H127.8C128.55 77.6296 129.16 77.0196 129.16 76.2596V68.7196C129.16 67.9596 128.55 67.3496 127.79 67.3496Z" fill="#84ECFD"/>
<path d="M127.79 92.4795H115.46C114.71 92.4795 114.1 93.0895 114.1 93.8395V101.399C114.1 102.149 114.71 102.759 115.46 102.759H127.8C128.55 102.759 129.16 102.149 129.16 101.399V93.8595C129.16 93.0895 128.55 92.4795 127.79 92.4795Z" fill="#45CAF2"/>
<path d="M127.79 79.8994H115.46C114.71 79.8994 114.1 80.5094 114.1 81.2594V88.8094C114.1 89.5594 114.71 90.1694 115.46 90.1694H127.8C128.55 90.1794 129.16 89.5694 129.16 88.8094V81.2594C129.16 80.5094 128.55 79.8994 127.79 79.8994Z" fill="#50E6FF"/>
<path d="M127.79 105.029H115.46C114.71 105.029 114.1 105.639 114.1 106.389V113.949C114.1 114.699 114.71 115.309 115.46 115.309H127.8C128.55 115.309 129.16 114.699 129.16 113.949V106.399C129.16 105.649 128.55 105.029 127.79 105.029Z" fill="#32B0E7"/>
<path opacity="0.2" d="M97.3799 116.45C98.4299 116.45 99.2799 115.6 99.2799 114.55V69.5303H51.1799V114.55C51.1799 115.6 52.0299 116.45 53.0799 116.45H97.3799V116.45Z" fill="#1F1D21"/>
<path d="M99.2899 69.5098V68.7598C99.2899 67.8298 98.5399 67.0898 97.6199 67.0898H52.8499C51.9199 67.0898 51.1799 67.8398 51.1799 68.7598V69.5798V70.3398V113.18C51.1799 114.11 51.9299 114.85 52.8499 114.85H97.6299C98.5599 114.85 99.2999 114.1 99.2999 113.18V69.5898C99.2999 69.5598 99.2899 69.5398 99.2899 69.5098Z" fill="white"/>
<path d="M65.0699 103.359H60.1599V109.769H65.0599L65.0699 103.359Z" fill="#45CAF2"/>
<path d="M72.3899 99.0996H67.4099V109.77H72.3999V99.0996H72.3899Z" fill="#50E6FF"/>
<path d="M81.2599 92.1797H74.8499V109.74H81.2599V92.1797Z" fill="#32B0E7"/>
<path d="M91.3099 85H83.9399V109.73H91.3099V85Z" fill="#185A97"/>
<path d="M63.0499 95.2902L62.1599 94.8702L68.9099 82.6402L77.8999 83.5302L87.2299 76.1602L87.9599 76.8202L78.2399 84.6202L69.4599 83.7902L63.0499 95.2902Z" fill="#16B2E6"/>
<path d="M61.6099 97.41C62.7899 97.73 63.9999 97.03 64.3199 95.85C64.6399 94.67 63.9399 93.46 62.7599 93.14C61.5799 92.82 60.3699 93.52 60.0499 94.7C59.7299 95.89 60.4299 97.09 61.6099 97.41Z" fill="#005599"/>
<path d="M68.7498 85.6297C69.9298 85.9497 71.1398 85.2497 71.4598 84.0697C71.7798 82.8897 71.0798 81.6797 69.8998 81.3597C68.7198 81.0397 67.5098 81.7397 67.1898 82.9197C66.8698 84.0997 67.5698 85.3097 68.7498 85.6297Z" fill="#005599"/>
<path d="M77.2899 86.1503C78.4699 86.4703 79.6799 85.7703 79.9999 84.5903C80.3199 83.4103 79.6199 82.2003 78.4399 81.8803C77.2599 81.5603 76.0499 82.2603 75.7299 83.4403C75.4099 84.6103 76.1099 85.8203 77.2899 86.1503Z" fill="#005599"/>
<path d="M86.2999 78.5402C87.7799 79.3502 89.5499 78.3302 89.5999 76.6402C89.6199 75.8502 89.1699 75.0702 88.4799 74.6902C86.9999 73.8802 85.2299 74.9002 85.1799 76.5902C85.1599 77.3802 85.5999 78.1602 86.2999 78.5402Z" fill="#005599"/>
<defs>
<linearGradient id="paint0_linear" x1="90.4997" y1="9.28037" x2="90.4997" y2="180.68" gradientUnits="userSpaceOnUse">
<stop stop-color="#00ABDE"/>
<stop offset="1" stop-color="#007ED8"/>
</linearGradient>
<linearGradient id="paint1_linear" x1="36.6196" y1="4.0711" x2="203.296" y2="286.402" gradientUnits="userSpaceOnUse">
<stop stop-color="#007ED8"/>
<stop offset="0.7065" stop-color="#002D4C"/>
</linearGradient>
<linearGradient id="paint2_linear" x1="76.0945" y1="21.2875" x2="125.284" y2="122.774" gradientUnits="userSpaceOnUse">
<stop stop-color="#007ED8"/>
<stop offset="0.7065" stop-color="#002D4C"/>
</linearGradient>
<linearGradient id="paint3_linear" x1="100.709" y1="285.464" x2="79.9972" y2="31.2298" gradientUnits="userSpaceOnUse">
<stop stop-color="#007ED8"/>
<stop offset="0.7065" stop-color="#002D4C"/>
</linearGradient>
<linearGradient id="paint4_linear" x1="89.9277" y1="125.229" x2="89.9277" y2="58.4473" gradientUnits="userSpaceOnUse">
<stop stop-color="#D2EBFF"/>
<stop offset="1" stop-color="#F0FFFD"/>
</linearGradient>
<linearGradient id="paint5_linear" x1="89.9095" y1="48.5714" x2="89.9095" y2="59.681" gradientUnits="userSpaceOnUse">
<stop stop-color="#0099BE"/>
<stop offset="1" stop-color="#006E97"/>
</linearGradient>
<linearGradient id="paint6_linear" x1="89.9003" y1="123.839" x2="89.9003" y2="130.013" gradientUnits="userSpaceOnUse">
<stop stop-color="#0099BE"/>
<stop offset="1" stop-color="#006E97"/>
</linearGradient>
<linearGradient id="paint7_linear" x1="89.9277" y1="125.229" x2="89.9277" y2="58.4473" gradientUnits="userSpaceOnUse">
<stop stop-color="#D2EBFF"/>
<stop offset="1" stop-color="#F0FFFD"/>
</linearGradient>
<linearGradient id="paint8_linear" x1="89.9095" y1="48.5714" x2="89.9095" y2="59.681" gradientUnits="userSpaceOnUse">
<stop stop-color="#007ED8"/>
<stop offset="0.7065" stop-color="#002D4C"/>
</linearGradient>
<linearGradient id="paint9_linear" x1="89.9003" y1="123.839" x2="89.9003" y2="130.013" gradientUnits="userSpaceOnUse">
<stop stop-color="#007ED8"/>
<stop offset="0.7065" stop-color="#002D4C"/>
</linearGradient>
</defs>
</svg>
