<?xml version="1.0" encoding="UTF-8"?>
<svg width="100px" height="100px" viewBox="0 0 100 100" version="1.1" xmlns="http://www.w3.org/2000/svg" xmlns:xlink="http://www.w3.org/1999/xlink">
    <!-- Generator: Sketch 54.1 (76490) - https://sketchapp.com -->
    <title>Get modern with Windows 10 and Office 365 ProPlus in Microsoft 365/get-modern-security-and-compliance</title>
    <desc>Created with Sketch.</desc>
    <defs>
        <rect id="path-1" x="0" y="0" width="96" height="96" rx="48"></rect>
        <filter x="-7.7%" y="-5.3%" width="115.4%" height="110.7%" filterUnits="objectBoundingBox" id="filter-3">
            <feOffset dx="0" dy="2" in="SourceAlpha" result="shadowOffsetOuter1"></feOffset>
            <feColorMatrix values="0 0 0 0 0   0 0 0 0 0   0 0 0 0 0  0 0 0 0.101760643 0" type="matrix" in="shadowOffsetOuter1" result="shadowMatrixOuter1"></feColorMatrix>
            <feMerge>
                <feMergeNode in="shadowMatrixOuter1"></feMergeNode>
                <feMergeNode in="SourceGraphic"></feMergeNode>
            </feMerge>
        </filter>
        <filter x="-5.3%" y="-5.4%" width="110.9%" height="110.8%" filterUnits="objectBoundingBox" id="filter-4">
            <feOffset dx="0" dy="1" in="SourceAlpha" result="shadowOffsetOuter1"></feOffset>
            <feColorMatrix values="0 0 0 0 0   0 0 0 0 0   0 0 0 0 0  0 0 0 0.0996503497 0" type="matrix" in="shadowOffsetOuter1" result="shadowMatrixOuter1"></feColorMatrix>
            <feMerge>
                <feMergeNode in="shadowMatrixOuter1"></feMergeNode>
                <feMergeNode in="SourceGraphic"></feMergeNode>
            </feMerge>
        </filter>
        <path d="M38.87625,26.2939854 C35.9646,23.3907354 33.1261,20.0499854 35.2226,17.3140354 C38.19795,13.4307854 49.6349,9.88703539 45.89095,1.12968539 C45.815,0.951885393 45.67325,0.810835393 45.49545,0.735235393 C36.72725,-2.98351461 33.2157,8.46323539 29.34225,11.4497854 C26.61155,13.5543354 23.2624,10.7249354 20.35145,7.82203539 C18.8958,6.37023539 17.3754,5.95443539 16.16405,5.95583539 C14.0091,5.95898539 13.78125,6.64743539 11.39705,9.03863539 L24.5413,22.1454354 L37.6852,35.2515354 C40.0799,32.8501854 40.7575,32.6212854 40.75435,30.4754354 C40.75225,29.2640854 40.3319,27.7454354 38.87625,26.2939854 Z" id="path-5"></path>
        <filter x="-4.3%" y="-4.3%" width="108.5%" height="108.5%" filterUnits="objectBoundingBox" id="filter-6">
            <feOffset dx="-3" dy="-3" in="SourceAlpha" result="shadowOffsetInner1"></feOffset>
            <feComposite in="shadowOffsetInner1" in2="SourceAlpha" operator="arithmetic" k2="-1" k3="1" result="shadowInnerInner1"></feComposite>
            <feColorMatrix values="0 0 0 0 0   0 0 0 0 0   0 0 0 0 0  0 0 0 0.10232736 0" type="matrix" in="shadowInnerInner1"></feColorMatrix>
        </filter>
    </defs>
    <g id="Badges" stroke="none" stroke-width="1" fill="none" fill-rule="evenodd">
        <g id="Get-modern-with-Windows-10-and-Office-365-ProPlus-in-Microsoft-365-1" transform="translate(-50.000000, -1260.000000)">
            <g id="Get-modern-with-Windows-10-and-Office-365-ProPlus-in-Microsoft-365/get-modern-security-and-compliance" transform="translate(50.000000, 1260.000000)">
                <g id="Mask" transform="translate(2.000000, 2.000000)">
                    <mask id="mask-2" fill="white">
                        <use xlink:href="#path-1"></use>
                    </mask>
                    <use id="BG" fill="#55A2FF" xlink:href="#path-1"></use>
                    <g id="Lock" filter="url(#filter-3)" mask="url(#mask-2)">
                        <g transform="translate(22.000000, 7.500000)">
                            <path d="M25.770248,0 C15.4363786,0 7.02824946,8.4081291 7.02824946,18.7419985 L7.02824946,32.7984975 C7.02824946,34.0916954 8.60257733,35.1412473 10.5423742,35.1412473 C12.482171,35.1412473 14.0564989,34.0916954 14.0564989,32.7984975 L14.0564989,18.7419985 C14.0564989,12.2830373 19.3112868,7.02824946 25.770248,7.02824946 C32.2292093,7.02824946 37.4839971,12.2830373 37.4839971,18.7419985 L37.4839971,32.7984975 C37.4839971,34.0916954 39.058325,35.1412473 40.9981218,35.1412473 C42.9379187,35.1412473 44.5122466,34.0916954 44.5122466,32.7984975 L44.5122466,18.7419985 C44.5122466,8.4081291 36.1041175,0 25.770248,0" id="Fill-84" fill="#F3F3F3"></path>
                            <path d="M25.770248,0 C25.3743233,0 24.9877696,0.0339698724 24.5988731,0.0597401204 C34.3857105,0.668855073 42.1694967,8.80405382 42.1694967,18.7419985 L42.1694967,24.5438185 C42.1694967,25.9049561 40.6865361,26.7530316 39.5221894,26.0490352 C38.861534,25.6495964 38.1821365,25.2782705 37.4839971,24.9397432 L37.4839971,32.7984975 C37.4839971,34.0916954 39.058325,35.1412473 40.9981218,35.1412473 C42.9379187,35.1412473 44.5122466,34.0916954 44.5122466,32.7984975 L44.5122466,18.7419985 C44.5122466,8.4081291 36.1041175,0 25.770248,0" id="Fill-85" fill="#C5CCCD"></path>
                            <path d="M21.3529932,7.21801219 C15.694081,8.25467899 11.7137491,13.4063858 11.7137491,19.1601794 L11.7137491,24.3599126 C11.7137491,25.4820898 11.1866304,26.5492123 10.2694438,27.1934685 C9.11915367,28.0017172 8.0344605,28.8943049 7.02824946,29.8700602 L7.02824946,32.7984975 C7.02824946,34.0916954 8.60257733,35.1412473 10.5423742,35.1412473 C12.482171,35.1412473 14.0564989,34.0916954 14.0564989,32.7984975 L14.0564989,18.7419985 C14.0564989,12.6777906 18.6869439,7.67836253 24.5988731,7.08798958 C23.5575208,6.98256583 22.48337,7.01067883 21.3529932,7.21801219" id="Fill-87" fill="#C5CCCD"></path>
                            <path d="M25.770248,25.770248 C12.8523255,25.770248 2.34274982,36.2798237 2.34274982,49.1977462 C2.34274982,62.1156687 12.8523255,72.6252444 25.770248,72.6252444 C38.6881705,72.6252444 49.1977462,62.1156687 49.1977462,49.1977462 C49.1977462,36.2798237 38.6881705,25.770248 25.770248,25.770248" id="Fill-88" fill="#30404D"></path>
                            <path d="M25.770248,25.770248 L25.770248,31.6271226 C25.1224777,31.6271226 24.5988731,31.103518 24.5988731,30.4557476 L24.5988731,31.6271226 C24.5988731,31.9961056 24.7698938,32.325262 25.0357959,32.5396236 C25.5535436,32.9566331 25.770248,33.6477443 25.770248,34.3119138 L25.770248,57.3961992 C23.6711442,57.3961992 21.5720403,56.5961501 19.9719422,54.9948806 C18.5194373,53.5447185 17.7346161,51.6822324 17.5987366,49.7834336 C17.4359155,52.0734716 18.2230795,54.4185642 19.9719422,56.1685983 C20.9664395,57.1630956 22.1542137,57.8495213 23.4157844,58.2255326 C24.8472046,58.6530845 25.770248,60.048192 25.770248,61.541695 L25.770248,72.6252444 C38.6881705,72.6252444 49.1977462,62.1156687 49.1977462,49.1977462 C49.1977462,36.2798237 38.6881705,25.770248 25.770248,25.770248" id="Fill-89" fill="#182A37"></path>
                            <path d="M13.3466457,36.7741439 C13.1170562,37.002562 12.8171843,37.1161854 12.5173123,37.1161854 C12.2186117,37.1161854 11.9187397,37.002562 11.6891502,36.7741439 L10.0785097,35.1635034 C6.98256583,38.6214021 5.01699874,43.0960543 4.74523976,48.0263713 L4.8600345,48.0263713 C5.35786884,43.5634329 7.23089731,39.5151612 10.0785097,36.3348783 L11.6891502,37.9455188 C11.9187397,38.1739369 12.2186117,38.2875603 12.5173123,38.2875603 C12.8171843,38.2875603 13.1170562,38.1739369 13.3466457,37.9455188 C13.7320281,37.5589651 13.7730262,36.9803059 13.5071241,36.5304979 C13.4579263,36.6148369 13.4180996,36.7015187 13.3466457,36.7741439" id="Fill-90" fill="#182A37"></path>
                            <path d="M24.5988731,29.3441129 L24.5988731,28.1727379 C19.6685561,28.4444969 15.1939039,30.410064 11.7360052,33.5060079 L12.3767473,34.1479214 C15.7432788,31.3659059 19.9637426,29.5994726 24.5988731,29.3441129" id="Fill-91" fill="#182A37"></path>
                            <path d="M7.02824946,50.3691211 L4.74523976,50.3691211 C4.76632451,50.7650458 4.817865,51.1515995 4.8600345,51.540496 L7.02824946,51.540496 C7.67601978,51.540496 8.19962436,51.0168914 8.19962436,50.3691211 C8.19962436,50.1524167 8.123485,49.9579685 8.020404,49.7834336 C7.81541339,50.1266465 7.45697267,50.3691211 7.02824946,50.3691211" id="Fill-92" fill="#182A37"></path>
                            <path d="M13.3466457,63.278844 L11.7360052,64.8894845 C11.9421672,65.0745617 12.1647284,65.2408969 12.3767473,65.4189459 L13.3466457,64.4502189 C13.7320281,64.0636652 13.7730262,63.485006 13.5071241,63.035198 C13.4579263,63.119537 13.4180996,63.2062187 13.3466457,63.278844" id="Fill-93" fill="#182A37"></path>
                            <path d="M41.4608149,63.231989 L39.8501744,61.6213485 C39.3933382,61.1645123 38.6518579,61.1645123 38.1938503,61.6213485 C37.7370141,62.0793561 37.7370141,62.8208364 38.1938503,63.278844 L39.8044908,64.8894845 C36.3465921,67.9854284 31.8719399,69.9509955 26.9416229,70.2227544 L26.9416229,67.9397447 C26.9416229,67.2919744 26.4180183,66.7683698 25.770248,66.7683698 C25.1224777,66.7683698 24.5988731,67.2919744 24.5988731,67.9397447 L24.5988731,70.2227544 C19.6685561,69.9509955 15.1939039,67.9854284 11.7360052,64.8894845 L13.3466457,63.278844 C13.8034819,62.8208364 13.8034819,62.0793561 13.3466457,61.6213485 C12.8886381,61.1645123 12.1471578,61.1645123 11.6891502,61.6213485 L10.0785097,63.231989 C6.98256583,59.7740902 5.01699874,55.2994381 4.74523976,50.3691211 L7.02824946,50.3691211 C7.67601978,50.3691211 8.19962436,49.8455165 8.19962436,49.1977462 C8.19962436,48.5499759 7.67601978,48.0263713 7.02824946,48.0263713 L4.74523976,48.0263713 C5.01699874,43.0960543 6.98256583,38.6214021 10.0785097,35.1635034 L11.6891502,36.7741439 C11.9187397,37.002562 12.2186117,37.1161854 12.5173123,37.1161854 C12.8171843,37.1161854 13.1170562,37.002562 13.3466457,36.7741439 C13.8034819,36.3161363 13.8034819,35.574656 13.3466457,35.1166484 L11.7360052,33.5060079 C15.1939039,30.410064 19.6685561,28.4444969 24.5988731,28.1727379 L24.5988731,30.4557476 C24.5988731,31.103518 25.1224777,31.6271226 25.770248,31.6271226 C26.4180183,31.6271226 26.9416229,31.103518 26.9416229,30.4557476 L26.9416229,28.1727379 C31.8719399,28.4444969 36.3465921,30.410064 39.8044908,33.5060079 L38.1938503,35.1166484 C37.7370141,35.574656 37.7370141,36.3161363 38.1938503,36.7741439 C38.4234398,37.002562 38.7233118,37.1161854 39.0220124,37.1161854 C39.3218843,37.1161854 39.6217563,37.002562 39.8501744,36.7741439 L41.4608149,35.1635034 C44.5579302,38.6214021 46.5234973,43.0960543 46.7952563,48.0263713 L44.5122466,48.0263713 C43.8644762,48.0263713 43.3408716,48.5499759 43.3408716,49.1977462 C43.3408716,49.8455165 43.8644762,50.3691211 44.5122466,50.3691211 L46.7952563,50.3691211 C46.5234973,55.2994381 44.5579302,59.7740902 41.4608149,63.231989 Z M25.770248,23.4274982 C11.560299,23.4274982 0,34.9877972 0,49.1977462 C0,63.4076952 11.560299,74.9679942 25.770248,74.9679942 C39.980197,74.9679942 51.540496,63.4076952 51.540496,49.1977462 C51.540496,34.9877972 39.980197,23.4274982 25.770248,23.4274982 L25.770248,23.4274982 Z" id="Fill-94" fill="#546670"></path>
                            <polyline id="Fill-95" fill="#DF5142" points="33.2248779 46.71326 27.4687416 47.4149136 28.2969037 41.7021181 35.668366 39.2164606 33.2248779 46.71326"></polyline>
                            <path d="M31.5685538,54.9948806 C34.7699214,51.7946844 34.7687501,46.5996366 31.5685538,43.4006118 C28.3660148,40.1969014 23.1744812,40.1969014 19.9719422,43.4006118 L31.5685538,54.9948806" id="Fill-96" fill="#ADBDC4"></path>
                            <path d="M19.9719422,43.4006118 C16.7705746,46.600808 16.771746,51.7958557 19.9719422,54.9948806 C23.1744812,58.198591 28.3660148,58.198591 31.5685538,54.9948806 L19.9719422,43.4006118" id="Fill-97" fill="#A0AEB3"></path>
                        </g>
                    </g>
                    <rect id="Rectangle" fill="#6AA99A" opacity="0.900000036" style="mix-blend-mode: color;" mask="url(#mask-2)" transform="translate(40.360070, 57.117618) rotate(-315.000000) translate(-40.360070, -57.117618) " x="24.617147" y="17.1969958" width="31.4858468" height="79.841244" rx="5.6"></rect>
                    <path d="M12.3831446,51.1614928 L10.8524688,51.1614928 L10.8524688,49.630817 C10.8524688,49.2092842 10.5086637,48.8654791 10.0871309,48.8654791 C9.66559807,48.8654791 9.32179297,49.2092842 9.32179297,49.630817 L9.32179297,51.1614928 L7.79111714,51.1614928 C7.36958432,51.1614928 7.02577922,51.5052979 7.02577922,51.9268307 C7.02577922,52.3483636 7.36958432,52.6921687 7.79111714,52.6921687 L9.32179297,52.6921687 L9.32179297,54.2228422 C9.32179297,54.644375 9.66559807,54.9881801 10.0871309,54.9881801 C10.5086637,54.9881801 10.8524688,54.644375 10.8524688,54.2228422 L10.8524688,52.6921687 L12.3831446,52.6921687 C12.8046775,52.6921687 13.1484826,52.3483636 13.1484826,51.9268307 C13.1484826,51.5052979 12.8046775,51.1614928 12.3831446,51.1614928 Z M62.321793,78.3688838 C62.525082,78.3688838 62.719409,78.2881636 62.8629098,78.1446628 C63.0064107,78.0011619 63.0871309,77.8068349 63.0871309,77.6035459 L63.0871309,76.838208 L63.8524688,76.838208 C64.2740016,76.838208 64.6178067,76.4944029 64.6178067,76.07287 C64.6178067,75.6513372 64.2740016,75.3075321 63.8524688,75.3075321 L63.0871309,75.3075321 L63.0871309,74.5421942 C63.0871309,74.1206614 62.7433258,73.7768563 62.321793,73.7768563 C61.9002602,73.7768563 61.5564551,74.1206614 61.5564551,74.5421942 L61.5564551,75.3075321 L60.7911171,75.3075321 C60.3695843,75.3075321 60.0257792,75.6513372 60.0257792,76.07287 C60.0257792,76.4944029 60.3695843,76.838208 60.7911171,76.838208 L61.5564551,76.838208 L61.5564551,77.6035459 C61.5564551,77.8068349 61.6371752,78.0011619 61.7806761,78.1446628 C61.924177,78.2881636 62.1185039,78.3688838 62.321793,78.3688838 Z M27.0344413,76.07287 C26.6129085,76.07287 26.2691034,76.4166751 26.2691034,76.838208 L26.2691034,77.6035459 L25.5037654,77.6035459 C25.0822326,77.6035459 24.7384275,77.947351 24.7384275,78.3688838 C24.7384275,78.7904166 25.0822326,79.1342217 25.5037654,79.1342217 L26.2691034,79.1342217 L26.2691034,79.8995596 C26.2691034,80.3210925 26.6129085,80.6648976 27.0344413,80.6648976 C27.4559741,80.6648976 27.7997792,80.3210925 27.7997792,79.8995596 L27.7997792,79.1342217 L28.5651171,79.1342217 C28.9866499,79.1342217 29.330455,78.7904166 29.330455,78.3688838 C29.330455,77.947351 28.9866499,77.6035459 28.5651171,77.6035459 L27.7997792,77.6035459 L27.7997792,76.838208 C27.7997792,76.6349189 27.719059,76.440592 27.5755582,76.2970911 C27.4320573,76.1535902 27.2377303,76.07287 27.0344413,76.07287 Z M27.7997792,24.844908 L30.8611309,24.844908 L30.8611309,27.9062596 C30.8611309,28.3277925 31.204936,28.6715976 31.6264688,28.6715976 C32.0480016,28.6715976 32.3918067,28.3277925 32.3918067,27.9062596 L32.3918067,24.844908 L35.4531584,24.844908 C35.8746912,24.844908 36.2184963,24.5011029 36.2184963,24.07957 C36.2184963,23.6580372 35.8746912,23.3142321 35.4531584,23.3142321 L32.3918067,23.3142321 L32.3918067,20.2528805 C32.3918067,19.8313476 32.0480016,19.4875425 31.6264688,19.4875425 C31.204936,19.4875425 30.8611309,19.8313476 30.8611309,20.2528805 L30.8611309,23.3142321 L27.7997792,23.3142321 C27.3782464,23.3142321 27.0344413,23.6580372 27.0344413,24.07957 C27.0344413,24.5011029 27.3782464,24.844908 27.7997792,24.844908 Z" id="Stars" fill="#FFFFFF" mask="url(#mask-2)"></path>
                    <g id="Group-56" filter="url(#filter-4)" mask="url(#mask-2)">
                        <g transform="translate(43.176187, 7.522312)">
                            <polygon id="Shape" stroke="none" fill="#FFFFFF" fill-rule="nonzero" points="37.5137 31.4050354 15.2439 9.19893539 0.7 23.7841354 3.77825 26.8532854 12.19995 23.4054354 6.2776 29.3452854 22.97015 45.9898854"></polygon>
                            <polygon id="Rectangle-path" stroke="none" fill="#000000" fill-rule="nonzero" opacity="0.14" transform="translate(24.149172, 22.539943) rotate(-45.081029) translate(-24.149172, -22.539943) " points="23.1525556 6.76015366 25.1457885 6.76015366 25.1457885 38.3197326 23.1525556 38.3197326"></polygon>
                            <path d="M15.46125,38.5047854 L26.07465,27.8598854" id="Shape" stroke="#000000" stroke-width="0.7" fill="none" opacity="0.3"></path>
                            <path d="M17.3418,40.3807854 L27.9566,29.7358854" id="Shape" stroke="#000000" stroke-width="0.7" fill="none" opacity="0.3"></path>
                            <path d="M19.51915,42.5511354 L30.1336,31.9062354" id="Shape" stroke="#000000" stroke-width="0.7" fill="none" opacity="0.3"></path>
                            <path d="M21.7322,44.7585854 L32.34665,34.1136854" id="Shape" stroke="#000000" stroke-width="0.7" fill="none" opacity="0.3"></path>
                            <polygon id="Shape" stroke="none" fill="#645252" fill-rule="nonzero" opacity="0.2" points="15.95405 13.5046354 22.97015 45.9898854 37.5137 31.4050354"></polygon>
                            <g id="Shape" stroke="none" fill="none" fill-rule="nonzero">
                                <use fill="#8B572A" xlink:href="#path-5"></use>
                                <use fill="black" fill-opacity="1" filter="url(#filter-6)" xlink:href="#path-5"></use>
                            </g>
                            <circle id="Oval" stroke="none" fill="#7B4D25" fill-rule="nonzero" cx="41.2804" cy="5.35733539" r="1.32125"></circle>
                            <path d="M24.99805,43.7712354 C24.99805,43.7712354 26.10895,39.0602354 21.3206,39.3066354 C16.53155,39.5530354 16.842,33.8056854 16.43985,31.3318854 C16.03735,28.8580854 11.2672,26.1571354 8.7724,27.7510354 C6.27725,29.3449354 6.27725,29.3449354 6.27725,29.3449354 L22.97015,45.9895354 L24.99805,43.7712354 Z" id="Shape" stroke="none" fill="#629E3F" fill-rule="nonzero"></path>
                            <path d="M3.01735,22.0726354 C0.5222,23.6668854 0.5222,23.6668854 0.5222,23.6668854 L3.65785,26.7934354 L10.02715,24.2503354 C8.5512,22.3088854 5.0386,20.7814854 3.01735,22.0726354 Z" id="Shape" stroke="none" fill="#629E3F" fill-rule="nonzero"></path>
                        </g>
                    </g>
                </g>
                <g id="Azure-Border" stroke="#0078D4" stroke-width="4">
                    <rect x="2" y="2" width="96" height="96" rx="48"></rect>
                </g>
            </g>
        </g>
    </g>
</svg>