<svg width="103" height="103" viewBox="0 0 103 103" fill="none" xmlns="https://www.w3.org/2000/svg">
<path d="M51.3284 98.2645C25.4784 98.2645 4.51843 77.3145 4.51843 51.4545C4.51843 25.5945 25.4784 4.64453 51.3284 4.64453C77.1784 4.64453 98.1384 25.6045 98.1384 51.4545C98.1384 77.3045 77.1784 98.2645 51.3284 98.2645Z" fill="url(#paint0_linear)"/>
<path fill-rule="evenodd" clip-rule="evenodd" d="M97.2285 51.4547C97.2285 76.8047 76.6785 97.3547 51.3285 97.3547C25.9785 97.3547 5.42848 76.8047 5.42848 51.4547C5.42848 26.1047 25.9785 5.5547 51.3285 5.5547C76.6785 5.5547 97.2285 26.1047 97.2285 51.4547ZM51.3285 1.8147C78.7485 1.8147 100.968 24.0347 100.968 51.4547C100.968 78.8747 78.7385 101.095 51.3285 101.095C23.9085 101.095 1.68848 78.8647 1.68848 51.4547C1.68848 24.0347 23.9085 1.8147 51.3285 1.8147Z" fill="#F2F1F0"/>
<path fill-rule="evenodd" clip-rule="evenodd" d="M94.4185 51.4545C94.4185 75.2545 75.1285 94.5445 51.3285 94.5445C27.5285 94.5445 8.23853 75.2545 8.23853 51.4545C8.23853 27.6545 27.5285 8.36451 51.3285 8.36451C75.1285 8.36451 94.4185 27.6545 94.4185 51.4545ZM51.3285 4.62451C77.1885 4.62451 98.1585 25.5945 98.1585 51.4545C98.1585 77.3145 77.1885 98.2845 51.3285 98.2845C25.4685 98.2845 4.49854 77.3145 4.49854 51.4545C4.49854 25.5945 25.4585 4.62451 51.3285 4.62451Z" fill="url(#paint1_linear)"/>
<path d="M51.3685 30.3947C48.4085 30.3947 45.9885 27.9647 45.9885 24.9747C45.9885 21.9847 48.4085 19.5547 51.3685 19.5547C54.3285 19.5547 56.7485 21.9847 56.7485 24.9747C56.7485 27.9647 54.3285 30.3947 51.3685 30.3947ZM51.3685 21.7047C49.5785 21.7047 48.1285 23.1747 48.1285 24.9847C48.1285 26.7947 49.5885 28.2647 51.3685 28.2647C53.1485 28.2647 54.6085 26.7947 54.6085 24.9847C54.6085 23.1747 53.1585 21.7047 51.3685 21.7047Z" fill="url(#paint2_linear)"/>
<path d="M65.1385 81.8647H38.2785L35.4485 87.1347L33.5685 86.1147L41.3885 71.5447L43.2585 72.5747L39.4185 79.7247H63.9985L60.1585 72.5747L62.0385 71.5547L69.8585 86.1247L67.9785 87.1447L65.1385 81.8647Z" fill="url(#paint3_linear)"/>
<path d="M80.8285 30.7646H22.6185V69.8947H80.8285V30.7646Z" fill="url(#paint4_linear)"/>
<path d="M21.8585 24.9646H81.5685C82.7485 24.9646 83.7085 25.9246 83.7085 27.1046V29.3446C83.7085 30.5246 82.7485 31.4846 81.5685 31.4846H21.8585C20.6785 31.4846 19.7185 30.5246 19.7185 29.3446V27.1046C19.7185 25.9346 20.6785 24.9646 21.8585 24.9646Z" fill="url(#paint5_linear)"/>
<path d="M21.5285 69.0747H81.8985C82.8985 69.0747 83.7085 69.8847 83.7085 70.8847C83.7085 71.8847 82.8985 72.6947 81.8985 72.6947H21.5285C20.5285 72.7047 19.7185 71.8947 19.7185 70.8947C19.7185 69.8847 20.5285 69.0747 21.5285 69.0747Z" fill="url(#paint6_linear)"/>
<path d="M80.8285 30.7646H22.6185V69.8947H80.8285V30.7646Z" fill="url(#paint7_linear)"/>
<path d="M21.8585 24.9646H81.5685C82.7485 24.9646 83.7085 25.9246 83.7085 27.1046V29.3446C83.7085 30.5246 82.7485 31.4846 81.5685 31.4846H21.8585C20.6785 31.4846 19.7185 30.5246 19.7185 29.3446V27.1046C19.7185 25.9346 20.6785 24.9646 21.8585 24.9646Z" fill="url(#paint8_linear)"/>
<path d="M21.5285 69.0747H81.8985C82.8985 69.0747 83.7085 69.8847 83.7085 70.8847C83.7085 71.8847 82.8985 72.6947 81.8985 72.6947H21.5285C20.5285 72.7047 19.7185 71.8947 19.7185 70.8947C19.7185 69.8847 20.5285 69.0747 21.5285 69.0747Z" fill="url(#paint9_linear)"/>
<path d="M46.9385 46.2546H38.8385C38.0685 46.2546 37.4485 46.8746 37.4485 47.6446V55.0146C37.4485 57.8246 39.7285 60.1046 42.5385 60.1046H42.5685C45.3785 60.1046 47.6585 57.8246 47.6585 55.0146V46.9846C47.6585 46.5846 47.3385 46.2546 46.9385 46.2546Z" fill="#5059C9"/>
<path d="M41.9785 44.7646C39.7585 45.1046 37.8785 43.2246 38.2185 41.0046C38.4285 39.6246 39.5585 38.4946 40.9385 38.2846C43.1585 37.9446 45.0385 39.8246 44.6985 42.0446C44.4885 43.4246 43.3585 44.5446 41.9785 44.7646Z" fill="#5059C9"/>
<path d="M52.6085 44.7145C49.2685 45.3445 46.3885 42.4745 47.0185 39.1345C47.3685 37.2745 48.8785 35.7645 50.7385 35.4145C54.0785 34.7845 56.9586 37.6545 56.3186 40.9945C55.9686 42.8545 54.4685 44.3545 52.6085 44.7145Z" fill="#7B83EB"/>
<path d="M45.3485 46.2546H58.7285C59.4885 46.2746 60.0785 46.9046 60.0685 47.6546V56.0646C60.1785 60.5946 56.5785 64.3646 52.0485 64.4746C47.5085 64.3646 43.9185 60.6046 44.0285 56.0646V47.6546C43.9985 46.9046 44.5885 46.2746 45.3485 46.2546Z" fill="#7B83EB"/>
<path opacity="0.1" d="M51.3085 46.2546V58.0346C51.3085 58.5746 51.6385 59.0646 52.1385 59.2646C52.2985 59.3346 52.4685 59.3646 52.6385 59.3646H59.4185C59.5085 59.1246 59.5985 58.8846 59.6785 58.6346C59.9385 57.7946 60.0685 56.9246 60.0685 56.0546V47.6546C60.0885 46.9046 59.4885 46.2746 58.7285 46.2546H51.3085V46.2546Z" fill="black"/>
<path opacity="0.2" d="M52.0385 46.2546V58.7646C52.0385 58.9346 52.0685 59.1046 52.1385 59.2646C52.3485 59.7646 52.8285 60.0946 53.3685 60.0946H59.0785C59.1985 59.8546 59.3185 59.6146 59.4185 59.3646C59.5185 59.1146 59.5985 58.8846 59.6785 58.6346C59.9385 57.7946 60.0685 56.9246 60.0685 56.0546V47.6546C60.0885 46.9046 59.4885 46.2746 58.7285 46.2546H52.0385V46.2546Z" fill="black"/>
<path opacity="0.2" d="M52.0385 46.2546V57.3146C52.0485 58.0446 52.6385 58.6446 53.3785 58.6446H59.6785C59.9385 57.8046 60.0685 56.9346 60.0685 56.0646V47.6546C60.0885 46.9046 59.4885 46.2746 58.7285 46.2546H52.0385V46.2546Z" fill="black"/>
<path opacity="0.2" d="M52.7684 46.2546V57.3146C52.7784 58.0446 53.3684 58.6446 54.1084 58.6446H59.6784C59.9384 57.8046 60.0684 56.9346 60.0684 56.0646V47.6546C60.0884 46.9046 59.4884 46.2746 58.7284 46.2546H52.7684V46.2546Z" fill="black"/>
<path opacity="0.1" d="M51.3085 42.4946V44.7946C51.4285 44.8046 51.5485 44.8046 51.6685 44.8046C51.7885 44.8046 51.9085 44.7946 52.0285 44.7946C52.2785 44.7746 52.5185 44.7346 52.7585 44.6746C54.2385 44.3246 55.4585 43.2946 56.0385 41.8946C56.1385 41.6646 56.2185 41.4146 56.2685 41.1646H52.6285C51.9085 41.1646 51.3085 41.7546 51.3085 42.4946Z" fill="black"/>
<path opacity="0.2" d="M52.0385 43.2247V44.7947C52.2885 44.7747 52.5285 44.7347 52.7685 44.6747C54.2485 44.3247 55.4685 43.2947 56.0485 41.8947H53.3685C52.6385 41.8847 52.0385 42.4847 52.0385 43.2247Z" fill="black"/>
<path opacity="0.2" d="M52.0385 43.2247V44.7947C52.2885 44.7747 52.5285 44.7347 52.7685 44.6747C54.2485 44.3247 55.4685 43.2947 56.0485 41.8947H53.3685C52.6385 41.8847 52.0385 42.4847 52.0385 43.2247Z" fill="black"/>
<path opacity="0.2" d="M52.7684 43.2247V44.6747C54.2484 44.3247 55.4684 43.2947 56.0484 41.8947H54.0984C53.3684 41.8847 52.7684 42.4847 52.7684 43.2247Z" fill="black"/>
<path d="M67.4784 41.8845H54.1084C53.3684 41.8845 52.7684 42.4845 52.7684 43.2245V56.5845C52.7684 57.3245 53.3684 57.9245 54.1084 57.9245H67.4884C68.2284 57.9245 68.8284 57.3245 68.8284 56.5845V43.2245C68.8184 42.4845 68.2184 41.8845 67.4784 41.8845Z" fill="url(#paint10_linear)"/>
<path d="M57.2685 46.9745H59.9385V54.2445H61.6385V46.9745H64.2985V45.5645H57.2585V46.9745H57.2685Z" fill="white"/>
<defs>
<linearGradient id="paint0_linear" x1="49.5585" y1="-13.3351" x2="53.5405" y2="132.435" gradientUnits="userSpaceOnUse">
<stop stop-color="#A9B1FF"/>
<stop offset="1" stop-color="#7B83EB"/>
</linearGradient>
<linearGradient id="paint1_linear" x1="48.8348" y1="6.37611" x2="53.7482" y2="95.195" gradientUnits="userSpaceOnUse">
<stop stop-color="#5A62C3"/>
<stop offset="0.5" stop-color="#4D55BD"/>
<stop offset="1" stop-color="#3940AB"/>
</linearGradient>
<linearGradient id="paint2_linear" x1="43.6191" y1="8.99369" x2="72.4426" y2="68.461" gradientUnits="userSpaceOnUse">
<stop stop-color="#5A62C3"/>
<stop offset="0.5" stop-color="#4D55BD"/>
<stop offset="1" stop-color="#3940AB"/>
</linearGradient>
<linearGradient id="paint3_linear" x1="58.0423" y1="163.792" x2="45.9061" y2="14.8194" gradientUnits="userSpaceOnUse">
<stop stop-color="#5A62C3"/>
<stop offset="0.5" stop-color="#4D55BD"/>
<stop offset="1" stop-color="#3940AB"/>
</linearGradient>
<linearGradient id="paint4_linear" x1="51.725" y1="69.9" x2="51.725" y2="30.7681" gradientUnits="userSpaceOnUse">
<stop stop-color="#D2EBFF"/>
<stop offset="1" stop-color="#F0FFFD"/>
</linearGradient>
<linearGradient id="paint5_linear" x1="51.7143" y1="24.9809" x2="51.7143" y2="31.4912" gradientUnits="userSpaceOnUse">
<stop stop-color="#0099BE"/>
<stop offset="1" stop-color="#006E97"/>
</linearGradient>
<linearGradient id="paint6_linear" x1="51.709" y1="69.0851" x2="51.709" y2="72.7027" gradientUnits="userSpaceOnUse">
<stop stop-color="#0099BE"/>
<stop offset="1" stop-color="#006E97"/>
</linearGradient>
<linearGradient id="paint7_linear" x1="51.725" y1="69.9" x2="51.725" y2="30.7681" gradientUnits="userSpaceOnUse">
<stop stop-color="#D2DBFF"/>
<stop offset="1" stop-color="#F0FFFD"/>
</linearGradient>
<linearGradient id="paint8_linear" x1="51.7143" y1="25.053" x2="51.7143" y2="29.2105" gradientUnits="userSpaceOnUse">
<stop stop-color="#5A62C3"/>
<stop offset="0.5" stop-color="#4D55BD"/>
<stop offset="1" stop-color="#3940AB"/>
</linearGradient>
<linearGradient id="paint9_linear" x1="51.709" y1="68.5177" x2="51.709" y2="71.5413" gradientUnits="userSpaceOnUse">
<stop stop-color="#5A62C3"/>
<stop offset="0.5" stop-color="#4D55BD"/>
<stop offset="1" stop-color="#3940AB"/>
</linearGradient>
<linearGradient id="paint10_linear" x1="66.0208" y1="40.8378" x2="55.5625" y2="58.9691" gradientUnits="userSpaceOnUse">
<stop stop-color="#5A62C3"/>
<stop offset="0.5" stop-color="#4D55BD"/>
<stop offset="1" stop-color="#3940AB"/>
</linearGradient>
</defs>
</svg>
