<svg width="180" height="190" viewBox="0 0 180 190" fill="none" xmlns="http://www.w3.org/2000/svg">
<path d="M90.0001 189C93.0601 189 96.0701 188.15 98.7301 186.53L160.7 148.87C166.24 145.5 169.67 139.17 169.67 132.33V57.6201C169.67 50.8001 166.24 44.4601 160.7 41.0801L98.7301 3.42006C93.4001 0.180064 86.5801 0.200064 81.2801 3.42006L19.3101 41.1001C13.7701 44.4701 10.3201 50.8001 10.3201 57.6401V132.34C10.3201 138.1 12.7701 143.52 16.8701 147.09V147.12L81.2801 186.55C83.9201 188.15 86.9401 189 90.0001 189ZM90.6501 7.95006C92.6001 7.95006 95.0801 9.16006 96.7901 10.2101L157.55 47.4001C161.3 49.6801 163.42 56.2801 163.42 61.0301L162.79 132.33C162.79 137.08 159.59 141.35 155.84 143.63L95.4401 180.01C92.0101 182.1 89.2201 182.1 85.7801 180.01L24.5701 143.54C20.8201 141.26 17.8001 137.06 17.8001 132.33V58.6901C17.8001 53.9501 20.5301 49.0601 24.3001 46.7701L84.8801 10.2101C86.5801 9.17006 88.7001 7.95006 90.6501 7.95006Z" fill="#F2F1F0"/>
<path fill-rule="evenodd" clip-rule="evenodd" d="M97.9001 11.5298C95.4501 10.0298 92.7301 9.27979 90.0001 9.27979C87.2701 9.27979 84.5501 10.0398 82.1001 11.5298L25.9701 45.8598C20.9501 48.9298 17.8401 54.6798 17.8401 60.9298V129.03C17.8401 135.26 20.9401 141.03 25.9701 144.1L82.1001 178.43C84.5501 179.93 87.2701 180.68 90.0001 180.68C92.7301 180.68 95.4501 179.94 97.9001 178.43L154.03 144.1C159.05 141.03 162.16 135.26 162.16 129.03V60.9298C162.16 54.6998 159.06 48.9498 154.03 45.8598L97.9001 11.5298Z" fill="url(#paint0_linear)"/>
<path fill-rule="evenodd" clip-rule="evenodd" d="M90.0001 10.75C91.6801 10.75 93.5701 11.62 95.6301 12.87L154.1 48.41C157.75 50.63 160.16 54.9 160.16 59.73V130.21C160.16 135.03 157.75 139.31 154.1 141.53L95.6401 177.07C93.6801 178.26 91.7601 179.01 90.0101 179.01C88.2601 179.01 86.3401 178.26 84.3801 177.07L25.9001 141.54C23.8901 140.31 22.4401 139.11 21.4601 137.5C20.4801 135.9 19.8401 133.68 19.8401 130.22V59.74C19.8401 54.91 22.2501 50.64 25.9001 48.42L84.3601 12.88C86.4501 11.63 88.3101 10.75 90.0001 10.75ZM97.7101 180.5L156.17 144.96C161.09 141.97 164.15 136.35 164.15 130.22V59.74C164.15 53.61 161.09 47.99 156.17 45L97.7101 9.46C95.6001 8.18 92.8901 6.75 90.0001 6.75C87.1001 6.75 84.3901 8.19 82.3001 9.45H82.2901L23.8201 45C18.9001 47.99 15.8401 53.61 15.8401 59.74V130.22C15.8401 134.18 16.5801 137.17 18.0401 139.58C19.5001 141.98 21.5601 143.58 23.8201 144.95L82.2801 180.49C84.5001 181.84 87.1701 183.02 89.9901 183.02C92.8101 183.02 95.4901 181.85 97.7101 180.5Z" fill="url(#paint1_linear)"/>
<path d="M89.6898 56.5401C84.4998 56.5401 80.2698 52.2901 80.2698 47.0701C80.2698 41.8501 84.4998 37.6001 89.6898 37.6001C94.8798 37.6001 99.1098 41.8501 99.1098 47.0701C99.1098 52.2901 94.8798 56.5401 89.6898 56.5401ZM89.6898 41.3401C86.5598 41.3401 84.0198 43.9001 84.0198 47.0701C84.0198 50.2301 86.5698 52.8001 89.6898 52.8001C92.8198 52.8001 95.3598 50.2401 95.3598 47.0701C95.3598 43.9101 92.8198 41.3401 89.6898 41.3401Z" fill="url(#paint2_linear)"/>
<path d="M113.78 146.57H66.7898L61.8498 155.78L58.5598 154L72.2498 128.52L75.5298 130.32L68.8098 142.83H111.79L105.07 130.32L108.36 128.54L122.05 154.02L118.76 155.8L113.78 146.57Z" fill="url(#paint3_linear)"/>
<path d="M141.23 57.2002H39.3999V125.64H141.22V57.2002H141.23Z" fill="url(#paint4_linear)"/>
<path d="M38.0799 47.0503H142.52C144.58 47.0503 146.26 48.7303 146.26 50.7903V54.7003C146.26 56.7603 144.58 58.4403 142.52 58.4403H38.0799C36.0199 58.4403 34.3399 56.7603 34.3399 54.7003V50.8003C34.3299 48.7403 36.0199 47.0503 38.0799 47.0503Z" fill="url(#paint5_linear)"/>
<path d="M37.4999 124.2H143.09C144.83 124.2 146.25 125.62 146.25 127.36C146.25 129.1 144.83 130.52 143.09 130.52H37.4999C35.7599 130.54 34.3399 129.12 34.3399 127.37C34.3299 125.62 35.7499 124.2 37.4999 124.2Z" fill="url(#paint6_linear)"/>
<path d="M141.23 57.2002H39.3999V125.64H141.22V57.2002H141.23Z" fill="url(#paint7_linear)"/>
<path d="M38.0799 47.0503H142.52C144.58 47.0503 146.26 48.7303 146.26 50.7903V54.7003C146.26 56.7603 144.58 58.4403 142.52 58.4403H38.0799C36.0199 58.4403 34.3399 56.7603 34.3399 54.7003V50.8003C34.3299 48.7403 36.0199 47.0503 38.0799 47.0503Z" fill="url(#paint8_linear)"/>
<path d="M37.4999 124.2H143.09C144.83 124.2 146.25 125.62 146.25 127.36C146.25 129.1 144.83 130.52 143.09 130.52H37.4999C35.7599 130.54 34.3399 129.12 34.3399 127.37C34.3299 125.62 35.7499 124.2 37.4999 124.2Z" fill="url(#paint9_linear)"/>
<path d="M134.57 65.5898H97.6201C97.0801 65.5898 96.6401 66.0298 96.6401 66.5698V80.5398C96.6401 81.0798 97.0801 81.5198 97.6201 81.5198H134.57C135.11 81.5198 135.55 81.0798 135.55 80.5398V66.5598C135.55 66.0298 135.11 65.5898 134.57 65.5898Z" fill="#282828"/>
<path d="M101.35 69.6899H101.01C100.79 69.6899 100.61 69.8699 100.61 70.0899V70.2399C100.61 70.4599 100.79 70.6399 101.01 70.6399H101.35C101.57 70.6399 101.75 70.4599 101.75 70.2399V70.0799C101.75 69.8599 101.57 69.6899 101.35 69.6899Z" fill="url(#paint10_linear)"/>
<path d="M101.75 71.96H100.61V72.91H101.75V71.96Z" fill="url(#paint11_linear)"/>
<path d="M101.75 74.0601H100.61V75.0101H101.75V74.0601Z" fill="url(#paint12_linear)"/>
<path d="M101.75 76.3398H100.61V77.2898H101.75V76.3398Z" fill="url(#paint13_linear)"/>
<path d="M107.85 74.0601H104.8V75.0101H107.85V74.0601Z" fill="url(#paint14_linear)"/>
<path d="M119.65 69.6699H105.27C105.03 69.6699 104.83 69.8699 104.83 70.1099C104.83 70.3499 105.03 70.5499 105.27 70.5499H119.65C119.89 70.5499 120.09 70.3499 120.09 70.1099C120.09 69.8699 119.89 69.6699 119.65 69.6699Z" fill="url(#paint15_linear)"/>
<path d="M124.45 74.1196H109.36C109.12 74.1196 108.92 74.3196 108.92 74.5596C108.92 74.7996 109.12 74.9996 109.36 74.9996H124.46C124.7 74.9996 124.9 74.7996 124.9 74.5596C124.9 74.3196 124.69 74.1196 124.45 74.1196Z" fill="url(#paint16_linear)"/>
<path d="M114.86 76.4199H105.44C105.2 76.4199 105 76.6199 105 76.8599C105 77.0999 105.2 77.2999 105.44 77.2999H114.85C115.09 77.2999 115.29 77.0999 115.29 76.8599C115.3 76.6299 115.11 76.4199 114.86 76.4199Z" fill="url(#paint17_linear)"/>
<path d="M134.57 83.7202H97.6201C97.0801 83.7202 96.6401 84.1602 96.6401 84.7002V98.6702C96.6401 99.2102 97.0801 99.6502 97.6201 99.6502H134.57C135.11 99.6502 135.55 99.2102 135.55 98.6702V84.7002C135.55 84.1602 135.11 83.7202 134.57 83.7202Z" fill="#282828"/>
<path d="M101.35 87.8203H101.01C100.79 87.8203 100.61 88.0003 100.61 88.2203V88.3703C100.61 88.5903 100.79 88.7703 101.01 88.7703H101.35C101.57 88.7703 101.75 88.5903 101.75 88.3703V88.2103C101.75 87.9903 101.57 87.8203 101.35 87.8203Z" fill="url(#paint18_linear)"/>
<path d="M101.75 90.1001H100.61V91.0501H101.75V90.1001Z" fill="url(#paint19_linear)"/>
<path d="M101.75 92.1904H100.61V93.1404H101.75V92.1904Z" fill="url(#paint20_linear)"/>
<path d="M101.75 94.48H100.61V95.43H101.75V94.48Z" fill="url(#paint21_linear)"/>
<path d="M107.85 92.1904H104.8V93.1404H107.85V92.1904Z" fill="url(#paint22_linear)"/>
<path d="M119.65 87.8101H105.27C105.03 87.8101 104.83 88.0101 104.83 88.2501C104.83 88.4901 105.03 88.6901 105.27 88.6901H119.65C119.89 88.6901 120.09 88.4901 120.09 88.2501C120.09 88.0001 119.89 87.8101 119.65 87.8101Z" fill="url(#paint23_linear)"/>
<path d="M124.45 92.25H109.36C109.12 92.25 108.92 92.45 108.92 92.69C108.92 92.93 109.12 93.13 109.36 93.13H124.46C124.7 93.13 124.9 92.93 124.9 92.69C124.9 92.45 124.69 92.25 124.45 92.25Z" fill="url(#paint24_linear)"/>
<path d="M114.86 94.5503H105.44C105.2 94.5503 105 94.7503 105 94.9903C105 95.2303 105.2 95.4303 105.44 95.4303H114.85C115.09 95.4303 115.29 95.2303 115.29 94.9903C115.3 94.7603 115.11 94.5503 114.86 94.5503Z" fill="url(#paint25_linear)"/>
<path d="M134.57 101.75H97.6201C97.0801 101.75 96.6401 102.19 96.6401 102.73V116.7C96.6401 117.24 97.0801 117.68 97.6201 117.68H134.57C135.11 117.68 135.55 117.24 135.55 116.7V102.73C135.55 102.19 135.11 101.75 134.57 101.75Z" fill="#282828"/>
<path d="M101.35 105.85H101.01C100.79 105.85 100.61 106.03 100.61 106.25V106.4C100.61 106.62 100.79 106.8 101.01 106.8H101.35C101.57 106.8 101.75 106.62 101.75 106.4V106.24C101.75 106.02 101.57 105.85 101.35 105.85Z" fill="url(#paint26_linear)"/>
<path d="M101.75 108.13H100.61V109.08H101.75V108.13Z" fill="url(#paint27_linear)"/>
<path d="M101.75 110.22H100.61V111.17H101.75V110.22Z" fill="url(#paint28_linear)"/>
<path d="M101.75 112.51H100.61V113.46H101.75V112.51Z" fill="url(#paint29_linear)"/>
<path d="M107.85 110.22H104.8V111.17H107.85V110.22Z" fill="url(#paint30_linear)"/>
<path d="M119.65 105.84H105.27C105.03 105.84 104.83 106.04 104.83 106.28C104.83 106.52 105.03 106.72 105.27 106.72H119.65C119.89 106.72 120.09 106.52 120.09 106.28C120.09 106.04 119.89 105.84 119.65 105.84Z" fill="url(#paint31_linear)"/>
<path d="M124.45 110.28H109.36C109.12 110.28 108.92 110.48 108.92 110.72C108.92 110.96 109.12 111.16 109.36 111.16H124.46C124.7 111.16 124.9 110.96 124.9 110.72C124.9 110.48 124.69 110.28 124.45 110.28Z" fill="url(#paint32_linear)"/>
<path d="M114.86 112.58H105.44C105.2 112.58 105 112.78 105 113.02C105 113.26 105.2 113.46 105.44 113.46H114.85C115.09 113.46 115.29 113.26 115.29 113.02C115.3 112.79 115.11 112.58 114.86 112.58Z" fill="url(#paint33_linear)"/>
<path opacity="0.15" d="M90.83 118.97C91.56 118.97 92.15 118.38 92.15 117.65V67.5103H46.03V117.65C46.03 118.38 46.62 118.97 47.35 118.97H90.83Z" fill="#1F1D20"/>
<path d="M92.14 67.9001V67.1801C92.14 66.2901 91.42 65.5801 90.54 65.5801H47.63C46.74 65.5801 46.03 66.3001 46.03 67.1801V67.9801V68.7101V116.25C46.03 117.14 46.75 117.85 47.63 117.85H90.56C91.45 117.85 92.16 117.13 92.16 116.25V67.9801C92.16 67.9501 92.14 67.9301 92.14 67.9001Z" fill="white"/>
<path d="M69.4901 93.1901C75.1001 93.1901 79.6401 88.6501 79.6401 83.0401C79.6401 77.4301 75.1001 72.8901 69.4901 72.8901C63.8801 72.8901 59.3401 77.4301 59.3401 83.0401C59.3401 88.6501 63.8901 93.1901 69.4901 93.1901Z" fill="#036C70"/>
<path d="M77.9501 101.65C83.0901 101.65 87.2501 97.4803 87.2501 92.3503C87.2501 87.2203 83.0801 83.0503 77.9501 83.0503C72.8101 83.0503 68.6501 87.2203 68.6501 92.3503C68.6501 97.4803 72.8101 101.65 77.9501 101.65Z" fill="#1A9BA1"/>
<path d="M70.7601 108.42C74.7301 108.42 77.9501 105.2 77.9501 101.23C77.9501 97.26 74.7301 94.04 70.7601 94.04C66.7901 94.04 63.5701 97.26 63.5701 101.23C63.5701 105.2 66.7901 108.42 70.7601 108.42Z" fill="#37C6D0"/>
<path opacity="0.1" d="M71.18 82.0503V100.1C71.18 100.73 70.8 101.29 70.22 101.53C70.04 101.61 69.84 101.65 69.64 101.65H63.58C63.57 101.51 63.57 101.37 63.57 101.23C63.57 101.09 63.57 100.95 63.59 100.81C63.74 98.1102 65.41 95.7203 67.89 94.6403V93.0703C62.36 92.1903 58.59 87.0003 59.46 81.4703C59.47 81.4303 59.47 81.3903 59.48 81.3603C59.52 81.0703 59.58 80.7903 59.66 80.5103H69.63C70.49 80.5103 71.18 81.2003 71.18 82.0503Z" fill="black"/>
<path opacity="0.2" d="M68.7901 81.3501H59.4901C58.5501 86.8701 62.2601 92.1101 67.7801 93.0501C67.9501 93.0801 68.1101 93.1001 68.2801 93.1201C65.6601 94.3601 63.7501 97.8901 63.5901 100.8C63.5801 100.94 63.5701 101.08 63.5701 101.22C63.5701 101.36 63.5701 101.5 63.5801 101.64C63.6001 101.92 63.6301 102.21 63.6901 102.49H68.7901C69.4201 102.49 69.9801 102.11 70.2201 101.53C70.3001 101.35 70.3401 101.15 70.3401 100.95V82.9001C70.3301 82.0501 69.6401 81.3601 68.7901 81.3501Z" fill="black"/>
<path opacity="0.2" d="M68.7901 81.3501H59.4901C58.5501 86.8701 62.2601 92.1101 67.7801 93.0501C67.8901 93.0701 68.0101 93.0901 68.1201 93.1001C65.5801 94.4301 63.7501 97.9601 63.5901 100.8H68.7901C69.6401 100.79 70.3301 100.1 70.3401 99.2501V82.9001C70.3401 82.0501 69.6401 81.3601 68.7901 81.3501Z" fill="black"/>
<path opacity="0.2" d="M67.9502 81.3501H59.4903C58.6003 86.5601 61.8702 91.5801 66.9902 92.8801C65.0502 95.1001 63.8602 97.8701 63.5902 100.8H67.9502C68.8002 100.8 69.4902 100.11 69.5002 99.2501V82.9001C69.4902 82.0501 68.8002 81.3501 67.9502 81.3501Z" fill="black"/>
<path d="M52.4401 81.3501H67.9501C68.8101 81.3501 69.5001 82.0401 69.5001 82.9001V98.4101C69.5001 99.2701 68.8101 99.9601 67.9501 99.9601H52.4401C51.5801 99.9601 50.8901 99.2701 50.8901 98.4101V82.9001C50.8901 82.0501 51.5801 81.3501 52.4401 81.3501Z" fill="url(#paint34_linear)"/>
<path d="M57.8102 90.4703C57.4502 90.2303 57.1402 89.9103 56.9202 89.5303C56.7102 89.1403 56.6002 88.6903 56.6102 88.2503C56.5902 87.6403 56.8002 87.0503 57.1802 86.5903C57.5902 86.1203 58.1202 85.7803 58.7102 85.5903C59.3802 85.3703 60.0902 85.2603 60.8002 85.2703C61.7302 85.2403 62.6602 85.3703 63.5502 85.6503V87.6003C63.1602 87.3703 62.7502 87.2003 62.3102 87.0903C61.8302 86.9703 61.3502 86.9103 60.8602 86.9203C60.3402 86.9003 59.8302 87.0103 59.3702 87.2403C59.0102 87.3903 58.7802 87.7503 58.7802 88.1403C58.7802 88.3803 58.8702 88.6103 59.0302 88.7803C59.2202 88.9803 59.4502 89.1503 59.7102 89.2603C59.9902 89.4003 60.4102 89.5903 60.9802 89.8203C61.0402 89.8403 61.1002 89.8603 61.1602 89.8903C61.7102 90.1103 62.2502 90.3703 62.7602 90.6803C63.1502 90.9203 63.4702 91.2403 63.7102 91.6303C63.9502 92.0703 64.0702 92.5703 64.0502 93.0703C64.0802 93.6903 63.8902 94.3003 63.5102 94.8003C63.1402 95.2603 62.6402 95.5903 62.0702 95.7703C61.4102 95.9803 60.7102 96.0803 60.0202 96.0703C59.4002 96.0703 58.7702 96.0203 58.1602 95.9203C57.6402 95.8403 57.1302 95.6903 56.6502 95.4803V93.4303C57.1102 93.7603 57.6302 94.0103 58.1702 94.1603C58.7102 94.3303 59.2802 94.4203 59.8502 94.4303C60.3802 94.4603 60.9002 94.3503 61.3702 94.1103C61.7002 93.9203 61.9002 93.5703 61.8902 93.2003C61.8902 92.9403 61.7902 92.6903 61.6002 92.5003C61.3702 92.2703 61.1002 92.0903 60.8102 91.9503C60.4702 91.7803 59.9702 91.5603 59.3202 91.2803C58.7802 91.0403 58.2802 90.7803 57.8102 90.4703Z" fill="white"/>
<defs>
<linearGradient id="paint0_linear" x1="89.9997" y1="9.28009" x2="89.9997" y2="180.679" gradientUnits="userSpaceOnUse">
<stop stop-color="#00ABDE"/>
<stop offset="1" stop-color="#007ED8"/>
</linearGradient>
<linearGradient id="paint1_linear" x1="36.1196" y1="4.0713" x2="202.796" y2="286.401" gradientUnits="userSpaceOnUse">
<stop stop-color="#007ED8"/>
<stop offset="0.7065" stop-color="#002D4C"/>
</linearGradient>
<linearGradient id="paint2_linear" x1="76.1388" y1="19.1144" x2="126.553" y2="123.127" gradientUnits="userSpaceOnUse">
<stop stop-color="#007ED8"/>
<stop offset="0.7065" stop-color="#002D4C"/>
</linearGradient>
<linearGradient id="paint3_linear" x1="101.366" y1="289.866" x2="80.1389" y2="29.3037" gradientUnits="userSpaceOnUse">
<stop stop-color="#007ED8"/>
<stop offset="0.7065" stop-color="#002D4C"/>
</linearGradient>
<linearGradient id="paint4_linear" x1="90.3166" y1="125.643" x2="90.3166" y2="57.1985" gradientUnits="userSpaceOnUse">
<stop stop-color="#D2EBFF"/>
<stop offset="1" stop-color="#F0FFFD"/>
</linearGradient>
<linearGradient id="paint5_linear" x1="90.2979" y1="47.0775" x2="90.2979" y2="58.4642" gradientUnits="userSpaceOnUse">
<stop stop-color="#0099BE"/>
<stop offset="1" stop-color="#006E97"/>
</linearGradient>
<linearGradient id="paint6_linear" x1="90.2885" y1="124.218" x2="90.2885" y2="130.546" gradientUnits="userSpaceOnUse">
<stop stop-color="#0099BE"/>
<stop offset="1" stop-color="#006E97"/>
</linearGradient>
<linearGradient id="paint7_linear" x1="90.3166" y1="125.643" x2="90.3166" y2="57.1985" gradientUnits="userSpaceOnUse">
<stop stop-color="#D2EBFF"/>
<stop offset="1" stop-color="#F0FFFD"/>
</linearGradient>
<linearGradient id="paint8_linear" x1="90.2979" y1="47.0775" x2="90.2979" y2="58.4642" gradientUnits="userSpaceOnUse">
<stop stop-color="#007ED8"/>
<stop offset="0.7065" stop-color="#002D4C"/>
</linearGradient>
<linearGradient id="paint9_linear" x1="90.2885" y1="124.218" x2="90.2885" y2="130.546" gradientUnits="userSpaceOnUse">
<stop stop-color="#007ED8"/>
<stop offset="0.7065" stop-color="#002D4C"/>
</linearGradient>
<linearGradient id="paint10_linear" x1="100.639" y1="69.6913" x2="129.609" y2="94.8446" gradientUnits="userSpaceOnUse">
<stop stop-color="#C8C8C8"/>
<stop offset="1" stop-color="#505050"/>
</linearGradient>
<linearGradient id="paint11_linear" x1="99.5131" y1="70.9883" x2="128.483" y2="96.1425" gradientUnits="userSpaceOnUse">
<stop stop-color="#C8C8C8"/>
<stop offset="1" stop-color="#505050"/>
</linearGradient>
<linearGradient id="paint12_linear" x1="98.477" y1="72.1817" x2="127.447" y2="97.335" gradientUnits="userSpaceOnUse">
<stop stop-color="#C8C8C8"/>
<stop offset="1" stop-color="#505050"/>
</linearGradient>
<linearGradient id="paint13_linear" x1="97.3439" y1="73.4871" x2="126.314" y2="98.6404" gradientUnits="userSpaceOnUse">
<stop stop-color="#C8C8C8"/>
<stop offset="1" stop-color="#505050"/>
</linearGradient>
<linearGradient id="paint14_linear" x1="100.686" y1="69.6377" x2="129.656" y2="94.7901" gradientUnits="userSpaceOnUse">
<stop stop-color="#C8C8C8"/>
<stop offset="1" stop-color="#505050"/>
</linearGradient>
<linearGradient id="paint15_linear" x1="105.51" y1="64.0819" x2="134.48" y2="89.2353" gradientUnits="userSpaceOnUse">
<stop stop-color="#C8C8C8"/>
<stop offset="1" stop-color="#505050"/>
</linearGradient>
<linearGradient id="paint16_linear" x1="105.221" y1="64.4138" x2="134.191" y2="89.5671" gradientUnits="userSpaceOnUse">
<stop stop-color="#C8C8C8"/>
<stop offset="1" stop-color="#505050"/>
</linearGradient>
<linearGradient id="paint17_linear" x1="101.178" y1="69.0702" x2="130.148" y2="94.2235" gradientUnits="userSpaceOnUse">
<stop stop-color="#C8C8C8"/>
<stop offset="1" stop-color="#505050"/>
</linearGradient>
<linearGradient id="paint18_linear" x1="100.639" y1="87.8275" x2="129.609" y2="112.981" gradientUnits="userSpaceOnUse">
<stop stop-color="#C8C8C8"/>
<stop offset="1" stop-color="#505050"/>
</linearGradient>
<linearGradient id="paint19_linear" x1="99.5131" y1="89.1241" x2="128.483" y2="114.277" gradientUnits="userSpaceOnUse">
<stop stop-color="#C8C8C8"/>
<stop offset="1" stop-color="#505050"/>
</linearGradient>
<linearGradient id="paint20_linear" x1="98.477" y1="90.3178" x2="127.447" y2="115.471" gradientUnits="userSpaceOnUse">
<stop stop-color="#C8C8C8"/>
<stop offset="1" stop-color="#505050"/>
</linearGradient>
<linearGradient id="paint21_linear" x1="97.3439" y1="91.6221" x2="126.314" y2="116.775" gradientUnits="userSpaceOnUse">
<stop stop-color="#C8C8C8"/>
<stop offset="1" stop-color="#505050"/>
</linearGradient>
<linearGradient id="paint22_linear" x1="100.686" y1="87.7729" x2="129.656" y2="112.926" gradientUnits="userSpaceOnUse">
<stop stop-color="#C8C8C8"/>
<stop offset="1" stop-color="#505050"/>
</linearGradient>
<linearGradient id="paint23_linear" x1="105.51" y1="82.2178" x2="134.48" y2="107.371" gradientUnits="userSpaceOnUse">
<stop stop-color="#C8C8C8"/>
<stop offset="1" stop-color="#505050"/>
</linearGradient>
<linearGradient id="paint24_linear" x1="105.221" y1="82.5498" x2="134.191" y2="107.703" gradientUnits="userSpaceOnUse">
<stop stop-color="#C8C8C8"/>
<stop offset="1" stop-color="#505050"/>
</linearGradient>
<linearGradient id="paint25_linear" x1="101.178" y1="87.2064" x2="130.148" y2="112.36" gradientUnits="userSpaceOnUse">
<stop stop-color="#C8C8C8"/>
<stop offset="1" stop-color="#505050"/>
</linearGradient>
<linearGradient id="paint26_linear" x1="100.639" y1="105.856" x2="129.609" y2="131.009" gradientUnits="userSpaceOnUse">
<stop stop-color="#C8C8C8"/>
<stop offset="1" stop-color="#505050"/>
</linearGradient>
<linearGradient id="paint27_linear" x1="99.5131" y1="107.152" x2="128.483" y2="132.306" gradientUnits="userSpaceOnUse">
<stop stop-color="#C8C8C8"/>
<stop offset="1" stop-color="#505050"/>
</linearGradient>
<linearGradient id="paint28_linear" x1="98.477" y1="108.346" x2="127.447" y2="133.499" gradientUnits="userSpaceOnUse">
<stop stop-color="#C8C8C8"/>
<stop offset="1" stop-color="#505050"/>
</linearGradient>
<linearGradient id="paint29_linear" x1="97.3439" y1="109.65" x2="126.314" y2="134.803" gradientUnits="userSpaceOnUse">
<stop stop-color="#C8C8C8"/>
<stop offset="1" stop-color="#505050"/>
</linearGradient>
<linearGradient id="paint30_linear" x1="100.686" y1="105.801" x2="129.656" y2="130.954" gradientUnits="userSpaceOnUse">
<stop stop-color="#C8C8C8"/>
<stop offset="1" stop-color="#505050"/>
</linearGradient>
<linearGradient id="paint31_linear" x1="105.51" y1="100.246" x2="134.48" y2="125.399" gradientUnits="userSpaceOnUse">
<stop stop-color="#C8C8C8"/>
<stop offset="1" stop-color="#505050"/>
</linearGradient>
<linearGradient id="paint32_linear" x1="105.221" y1="100.578" x2="134.191" y2="125.731" gradientUnits="userSpaceOnUse">
<stop stop-color="#C8C8C8"/>
<stop offset="1" stop-color="#505050"/>
</linearGradient>
<linearGradient id="paint33_linear" x1="101.178" y1="105.235" x2="130.148" y2="130.388" gradientUnits="userSpaceOnUse">
<stop stop-color="#C8C8C8"/>
<stop offset="1" stop-color="#505050"/>
</linearGradient>
<linearGradient id="paint34_linear" x1="54.1187" y1="80.1417" x2="66.2607" y2="101.171" gradientUnits="userSpaceOnUse">
<stop stop-color="#058F92"/>
<stop offset="0.5" stop-color="#038489"/>
<stop offset="1" stop-color="#026D71"/>
</linearGradient>
</defs>
</svg>
