<?xml version="1.0" encoding="UTF-8"?>
<svg width="100px" height="100px" viewBox="0 0 100 100" version="1.1" xmlns="http://www.w3.org/2000/svg" xmlns:xlink="http://www.w3.org/1999/xlink">
    <!-- Generator: Sketch 54.1 (76490) - https://sketchapp.com -->
    <title>Get modern with Windows 10 and Office 365 ProPlus in Microsoft 365/get-modern-user-communications-and-training</title>
    <desc>Created with Sketch.</desc>
    <defs>
        <rect id="path-1" x="0" y="0" width="96" height="96" rx="48"></rect>
        <filter x="-8.3%" y="-8.7%" width="116.7%" height="117.4%" filterUnits="objectBoundingBox" id="filter-3">
            <feOffset dx="0" dy="2" in="SourceAlpha" result="shadowOffsetOuter1"></feOffset>
            <feColorMatrix values="0 0 0 0 0   0 0 0 0 0   0 0 0 0 0  0 0 0 0.103146853 0" type="matrix" in="shadowOffsetOuter1" result="shadowMatrixOuter1"></feColorMatrix>
            <feMerge>
                <feMergeNode in="shadowMatrixOuter1"></feMergeNode>
                <feMergeNode in="SourceGraphic"></feMergeNode>
            </feMerge>
        </filter>
        <filter x="-8.3%" y="-8.7%" width="116.7%" height="117.4%" filterUnits="objectBoundingBox" id="filter-4">
            <feOffset dx="0" dy="2" in="SourceAlpha" result="shadowOffsetOuter1"></feOffset>
            <feColorMatrix values="0 0 0 0 0   0 0 0 0 0   0 0 0 0 0  0 0 0 0.103146853 0" type="matrix" in="shadowOffsetOuter1" result="shadowMatrixOuter1"></feColorMatrix>
            <feMerge>
                <feMergeNode in="shadowMatrixOuter1"></feMergeNode>
                <feMergeNode in="SourceGraphic"></feMergeNode>
            </feMerge>
        </filter>
        <filter x="-5.3%" y="-5.4%" width="110.9%" height="110.8%" filterUnits="objectBoundingBox" id="filter-5">
            <feOffset dx="0" dy="1" in="SourceAlpha" result="shadowOffsetOuter1"></feOffset>
            <feColorMatrix values="0 0 0 0 0   0 0 0 0 0   0 0 0 0 0  0 0 0 0.0996503497 0" type="matrix" in="shadowOffsetOuter1" result="shadowMatrixOuter1"></feColorMatrix>
            <feMerge>
                <feMergeNode in="shadowMatrixOuter1"></feMergeNode>
                <feMergeNode in="SourceGraphic"></feMergeNode>
            </feMerge>
        </filter>
        <path d="M38.87625,26.2939854 C35.9646,23.3907354 33.1261,20.0499854 35.2226,17.3140354 C38.19795,13.4307854 49.6349,9.88703539 45.89095,1.12968539 C45.815,0.951885393 45.67325,0.810835393 45.49545,0.735235393 C36.72725,-2.98351461 33.2157,8.46323539 29.34225,11.4497854 C26.61155,13.5543354 23.2624,10.7249354 20.35145,7.82203539 C18.8958,6.37023539 17.3754,5.95443539 16.16405,5.95583539 C14.0091,5.95898539 13.78125,6.64743539 11.39705,9.03863539 L24.5413,22.1454354 L37.6852,35.2515354 C40.0799,32.8501854 40.7575,32.6212854 40.75435,30.4754354 C40.75225,29.2640854 40.3319,27.7454354 38.87625,26.2939854 Z" id="path-6"></path>
        <filter x="-4.3%" y="-4.3%" width="108.5%" height="108.5%" filterUnits="objectBoundingBox" id="filter-7">
            <feOffset dx="-3" dy="-3" in="SourceAlpha" result="shadowOffsetInner1"></feOffset>
            <feComposite in="shadowOffsetInner1" in2="SourceAlpha" operator="arithmetic" k2="-1" k3="1" result="shadowInnerInner1"></feComposite>
            <feColorMatrix values="0 0 0 0 0   0 0 0 0 0   0 0 0 0 0  0 0 0 0.10232736 0" type="matrix" in="shadowInnerInner1"></feColorMatrix>
        </filter>
    </defs>
    <g id="Badges" stroke="none" stroke-width="1" fill="none" fill-rule="evenodd">
        <g id="Get-modern-with-Windows-10-and-Office-365-ProPlus-in-Microsoft-365-2" transform="translate(-50.000000, -660.000000)">
            <g id="Get-modern-with-Windows-10-and-Office-365-ProPlus-in-Microsoft-365/get-modern-user-communications-and-training" transform="translate(50.000000, 660.000000)">
                <g id="Mask" transform="translate(2.000000, 2.000000)">
                    <mask id="mask-2" fill="white">
                        <use xlink:href="#path-1"></use>
                    </mask>
                    <use id="BG" fill="#55A2FF" xlink:href="#path-1"></use>
                    <g id="Group-3" mask="url(#mask-2)">
                        <g transform="translate(16.024194, 18.076220)">
                            <g id="Group-2" filter="url(#filter-3)" transform="translate(15.741935, 0.000000)">
                                <path d="M43.4861129,29.9234516 C45.7067097,26.962 47.2258065,24.2976774 47.2258065,19.7423548 C47.2258065,8.11890323 37.5159839,0 23.6129032,0 C9.71080645,0 -5.68434189e-14,8.11890323 -5.68434189e-14,19.7423548 C-5.68434189e-14,30.8856774 9.48943548,38.3709677 23.6129032,38.3709677 C25.8600645,38.3709677 28.2233226,38.3040645 30.4891774,37.5779677 L44.3263387,45.0239032 C44.6185484,45.1803387 44.9392903,45.2580645 45.2580645,45.2580645 C45.6988387,45.2580645 46.1346935,45.1114677 46.4918387,44.8231935 C47.1087258,44.3273226 47.3684677,43.5107097 47.1500484,42.7491935 L43.4861129,29.9234516" id="Fill-170" fill="#F7CB64"></path>
                                <path d="M26.5645161,19.6774194 C26.5645161,21.3067097 25.2431774,22.6290323 23.6129032,22.6290323 C21.9836129,22.6290323 20.6612903,21.3067097 20.6612903,19.6774194 C20.6612903,18.0461613 21.9836129,16.7258065 23.6129032,16.7258065 C25.2431774,16.7258065 26.5645161,18.0461613 26.5645161,19.6774194" id="Fill-172" fill="#EFB252"></path>
                                <path d="M17.7096774,19.6774194 C17.7096774,21.3067097 16.3883387,22.6290323 14.7580645,22.6290323 C13.1287742,22.6290323 11.8064516,21.3067097 11.8064516,19.6774194 C11.8064516,18.0461613 13.1287742,16.7258065 14.7580645,16.7258065 C16.3883387,16.7258065 17.7096774,18.0461613 17.7096774,19.6774194" id="Fill-173" fill="#EFB252"></path>
                                <path d="M35.4193548,19.6774194 C35.4193548,21.3067097 34.0980161,22.6290323 32.4677419,22.6290323 C30.8384516,22.6290323 29.516129,21.3067097 29.516129,19.6774194 C29.516129,18.0461613 30.8384516,16.7258065 32.4677419,16.7258065 C34.0980161,16.7258065 35.4193548,18.0461613 35.4193548,19.6774194" id="Fill-174" fill="#EFB252"></path>
                            </g>
                            <g id="Group" filter="url(#filter-4)" transform="translate(0.000000, 15.741935)">
                                <path d="M23.6129032,0 C9.71080645,0 0,8.11890323 0,19.7423548 C0,24.2976774 1.52008065,26.962 3.74067742,29.9234516 L0.0767419355,42.7491935 C-0.141677419,43.5107097 0.118064516,44.3273226 0.734951613,44.8231935 C1.09209677,45.1114677 1.52795161,45.2580645 1.96774194,45.2580645 C2.2875,45.2580645 2.60824194,45.1803387 2.90045161,45.0239032 L16.7376129,37.5779677 C19.0034677,38.3040645 21.3667258,38.3709677 23.6129032,38.3709677 C37.7373548,38.3709677 47.2258065,30.8856774 47.2258065,19.7423548 C47.2258065,8.11890323 37.5159839,0 23.6129032,0" id="Fill-175" fill="#EFB252"></path>
                                <path d="M26.5645161,19.6774194 C26.5645161,21.3067097 25.2431774,22.6290323 23.6129032,22.6290323 C21.9836129,22.6290323 20.6612903,21.3067097 20.6612903,19.6774194 C20.6612903,18.0461613 21.9836129,16.7258065 23.6129032,16.7258065 C25.2431774,16.7258065 26.5645161,18.0461613 26.5645161,19.6774194" id="Fill-176" fill="#CC9547"></path>
                                <path d="M17.7096774,19.6774194 C17.7096774,21.3067097 16.3883387,22.6290323 14.7580645,22.6290323 C13.1287742,22.6290323 11.8064516,21.3067097 11.8064516,19.6774194 C11.8064516,18.0461613 13.1287742,16.7258065 14.7580645,16.7258065 C16.3883387,16.7258065 17.7096774,18.0461613 17.7096774,19.6774194" id="Fill-177" fill="#CC9547"></path>
                                <path d="M35.4193548,19.6774194 C35.4193548,21.3067097 34.0980161,22.6290323 32.4677419,22.6290323 C30.8384516,22.6290323 29.516129,21.3067097 29.516129,19.6774194 C29.516129,18.0461613 30.8384516,16.7258065 32.4677419,16.7258065 C34.0980161,16.7258065 35.4193548,18.0461613 35.4193548,19.6774194" id="Fill-178" fill="#CC9547"></path>
                            </g>
                        </g>
                    </g>
                    <rect id="Rectangle" fill="#6EAB82" opacity="0.400000006" mask="url(#mask-2)" transform="translate(40.360070, 55.617618) rotate(-315.000000) translate(-40.360070, -55.617618) " x="24.617147" y="15.6969958" width="31.4858468" height="79.841244" rx="5.6"></rect>
                    <path d="M12.3831446,49.6614928 L10.8524688,49.6614928 L10.8524688,48.130817 C10.8524688,47.7092842 10.5086637,47.3654791 10.0871309,47.3654791 C9.66559807,47.3654791 9.32179297,47.7092842 9.32179297,48.130817 L9.32179297,49.6614928 L7.79111714,49.6614928 C7.36958432,49.6614928 7.02577922,50.0052979 7.02577922,50.4268307 C7.02577922,50.8483636 7.36958432,51.1921687 7.79111714,51.1921687 L9.32179297,51.1921687 L9.32179297,52.7228422 C9.32179297,53.144375 9.66559807,53.4881801 10.0871309,53.4881801 C10.5086637,53.4881801 10.8524688,53.144375 10.8524688,52.7228422 L10.8524688,51.1921687 L12.3831446,51.1921687 C12.8046775,51.1921687 13.1484826,50.8483636 13.1484826,50.4268307 C13.1484826,50.0052979 12.8046775,49.6614928 12.3831446,49.6614928 Z M62.321793,76.8688838 C62.525082,76.8688838 62.719409,76.7881636 62.8629098,76.6446628 C63.0064107,76.5011619 63.0871309,76.3068349 63.0871309,76.1035459 L63.0871309,75.338208 L63.8524688,75.338208 C64.2740016,75.338208 64.6178067,74.9944029 64.6178067,74.57287 C64.6178067,74.1513372 64.2740016,73.8075321 63.8524688,73.8075321 L63.0871309,73.8075321 L63.0871309,73.0421942 C63.0871309,72.6206614 62.7433258,72.2768563 62.321793,72.2768563 C61.9002602,72.2768563 61.5564551,72.6206614 61.5564551,73.0421942 L61.5564551,73.8075321 L60.7911171,73.8075321 C60.3695843,73.8075321 60.0257792,74.1513372 60.0257792,74.57287 C60.0257792,74.9944029 60.3695843,75.338208 60.7911171,75.338208 L61.5564551,75.338208 L61.5564551,76.1035459 C61.5564551,76.3068349 61.6371752,76.5011619 61.7806761,76.6446628 C61.924177,76.7881636 62.1185039,76.8688838 62.321793,76.8688838 Z M27.0344413,74.57287 C26.6129085,74.57287 26.2691034,74.9166751 26.2691034,75.338208 L26.2691034,76.1035459 L25.5037654,76.1035459 C25.0822326,76.1035459 24.7384275,76.447351 24.7384275,76.8688838 C24.7384275,77.2904166 25.0822326,77.6342217 25.5037654,77.6342217 L26.2691034,77.6342217 L26.2691034,78.3995596 C26.2691034,78.8210925 26.6129085,79.1648976 27.0344413,79.1648976 C27.4559741,79.1648976 27.7997792,78.8210925 27.7997792,78.3995596 L27.7997792,77.6342217 L28.5651171,77.6342217 C28.9866499,77.6342217 29.330455,77.2904166 29.330455,76.8688838 C29.330455,76.447351 28.9866499,76.1035459 28.5651171,76.1035459 L27.7997792,76.1035459 L27.7997792,75.338208 C27.7997792,75.1349189 27.719059,74.940592 27.5755582,74.7970911 C27.4320573,74.6535902 27.2377303,74.57287 27.0344413,74.57287 Z M27.7997792,23.344908 L30.8611309,23.344908 L30.8611309,26.4062596 C30.8611309,26.8277925 31.204936,27.1715976 31.6264688,27.1715976 C32.0480016,27.1715976 32.3918067,26.8277925 32.3918067,26.4062596 L32.3918067,23.344908 L35.4531584,23.344908 C35.8746912,23.344908 36.2184963,23.0011029 36.2184963,22.57957 C36.2184963,22.1580372 35.8746912,21.8142321 35.4531584,21.8142321 L32.3918067,21.8142321 L32.3918067,18.7528805 C32.3918067,18.3313476 32.0480016,17.9875425 31.6264688,17.9875425 C31.204936,17.9875425 30.8611309,18.3313476 30.8611309,18.7528805 L30.8611309,21.8142321 L27.7997792,21.8142321 C27.3782464,21.8142321 27.0344413,22.1580372 27.0344413,22.57957 C27.0344413,23.0011029 27.3782464,23.344908 27.7997792,23.344908 Z" id="Stars" fill="#FFFFFF" mask="url(#mask-2)"></path>
                    <g id="Group-56" filter="url(#filter-5)" mask="url(#mask-2)">
                        <g transform="translate(43.176187, 6.022312)">
                            <polygon id="Shape" stroke="none" fill="#FFFFFF" fill-rule="nonzero" points="37.5137 31.4050354 15.2439 9.19893539 0.7 23.7841354 3.77825 26.8532854 12.19995 23.4054354 6.2776 29.3452854 22.97015 45.9898854"></polygon>
                            <polygon id="Rectangle-path" stroke="none" fill="#000000" fill-rule="nonzero" opacity="0.14" transform="translate(24.149172, 22.539943) rotate(-45.081029) translate(-24.149172, -22.539943) " points="23.1525556 6.76015366 25.1457885 6.76015366 25.1457885 38.3197326 23.1525556 38.3197326"></polygon>
                            <path d="M15.46125,38.5047854 L26.07465,27.8598854" id="Shape" stroke="#000000" stroke-width="0.7" fill="none" opacity="0.3"></path>
                            <path d="M17.3418,40.3807854 L27.9566,29.7358854" id="Shape" stroke="#000000" stroke-width="0.7" fill="none" opacity="0.3"></path>
                            <path d="M19.51915,42.5511354 L30.1336,31.9062354" id="Shape" stroke="#000000" stroke-width="0.7" fill="none" opacity="0.3"></path>
                            <path d="M21.7322,44.7585854 L32.34665,34.1136854" id="Shape" stroke="#000000" stroke-width="0.7" fill="none" opacity="0.3"></path>
                            <polygon id="Shape" stroke="none" fill="#645252" fill-rule="nonzero" opacity="0.2" points="15.95405 13.5046354 22.97015 45.9898854 37.5137 31.4050354"></polygon>
                            <g id="Shape" stroke="none" fill="none" fill-rule="nonzero">
                                <use fill="#8B572A" xlink:href="#path-6"></use>
                                <use fill="black" fill-opacity="1" filter="url(#filter-7)" xlink:href="#path-6"></use>
                            </g>
                            <circle id="Oval" stroke="none" fill="#7B4D25" fill-rule="nonzero" cx="41.2804" cy="5.35733539" r="1.32125"></circle>
                            <path d="M24.99805,43.7712354 C24.99805,43.7712354 26.10895,39.0602354 21.3206,39.3066354 C16.53155,39.5530354 16.842,33.8056854 16.43985,31.3318854 C16.03735,28.8580854 11.2672,26.1571354 8.7724,27.7510354 C6.27725,29.3449354 6.27725,29.3449354 6.27725,29.3449354 L22.97015,45.9895354 L24.99805,43.7712354 Z" id="Shape" stroke="none" fill="#629E3F" fill-rule="nonzero"></path>
                            <path d="M3.01735,22.0726354 C0.5222,23.6668854 0.5222,23.6668854 0.5222,23.6668854 L3.65785,26.7934354 L10.02715,24.2503354 C8.5512,22.3088854 5.0386,20.7814854 3.01735,22.0726354 Z" id="Shape" stroke="none" fill="#629E3F" fill-rule="nonzero"></path>
                        </g>
                    </g>
                </g>
                <g id="Azure-Border" stroke="#0078D4" stroke-width="4">
                    <rect x="2" y="2" width="96" height="96" rx="48"></rect>
                </g>
            </g>
        </g>
    </g>
</svg>