<?xml version="1.0" encoding="UTF-8"?>
<svg width="100px" height="100px" viewBox="0 0 100 100" version="1.1" xmlns="http://www.w3.org/2000/svg" xmlns:xlink="http://www.w3.org/1999/xlink">
    <!-- Generator: Sketch 54.1 (76490) - https://sketchapp.com -->
    <title>Get modern with Windows 10 and Office 365 ProPlus in Microsoft 365/get-modern-directory-and-network-readiness</title>
    <desc>Created with Sketch.</desc>
    <defs>
        <rect id="path-1" x="0" y="0" width="96" height="96" rx="48"></rect>
        <filter x="-6.2%" y="-6.2%" width="112.5%" height="112.3%" filterUnits="objectBoundingBox" id="filter-3">
            <feOffset dx="0" dy="2" in="SourceAlpha" result="shadowOffsetOuter1"></feOffset>
            <feColorMatrix values="0 0 0 0 0   0 0 0 0 0   0 0 0 0 0  0 0 0 0.0964956975 0" type="matrix" in="shadowOffsetOuter1" result="shadowMatrixOuter1"></feColorMatrix>
            <feMerge>
                <feMergeNode in="shadowMatrixOuter1"></feMergeNode>
                <feMergeNode in="SourceGraphic"></feMergeNode>
            </feMerge>
        </filter>
        <filter x="-5.3%" y="-5.4%" width="110.6%" height="110.9%" filterUnits="objectBoundingBox" id="filter-4">
            <feOffset dx="0" dy="1" in="SourceAlpha" result="shadowOffsetOuter1"></feOffset>
            <feColorMatrix values="0 0 0 0 0   0 0 0 0 0   0 0 0 0 0  0 0 0 0.0996503497 0" type="matrix" in="shadowOffsetOuter1" result="shadowMatrixOuter1"></feColorMatrix>
            <feMerge>
                <feMergeNode in="shadowMatrixOuter1"></feMergeNode>
                <feMergeNode in="SourceGraphic"></feMergeNode>
            </feMerge>
        </filter>
        <path d="M38.87625,26.2939854 C35.9646,23.3907354 33.1261,20.0499854 35.2226,17.3140354 C38.19795,13.4307854 49.6349,9.88703539 45.89095,1.12968539 C45.815,0.951885393 45.67325,0.810835393 45.49545,0.735235393 C36.72725,-2.98351461 33.2157,8.46323539 29.34225,11.4497854 C26.61155,13.5543354 23.2624,10.7249354 20.35145,7.82203539 C18.8958,6.37023539 17.3754,5.95443539 16.16405,5.95583539 C14.0091,5.95898539 13.78125,6.64743539 11.39705,9.03863539 L24.5413,22.1454354 L37.6852,35.2515354 C40.0799,32.8501854 40.7575,32.6212854 40.75435,30.4754354 C40.75225,29.2640854 40.3319,27.7454354 38.87625,26.2939854 Z" id="path-5"></path>
        <filter x="-4.3%" y="-4.3%" width="108.5%" height="108.5%" filterUnits="objectBoundingBox" id="filter-6">
            <feOffset dx="-3" dy="-3" in="SourceAlpha" result="shadowOffsetInner1"></feOffset>
            <feComposite in="shadowOffsetInner1" in2="SourceAlpha" operator="arithmetic" k2="-1" k3="1" result="shadowInnerInner1"></feComposite>
            <feColorMatrix values="0 0 0 0 0   0 0 0 0 0   0 0 0 0 0  0 0 0 0.10232736 0" type="matrix" in="shadowInnerInner1"></feColorMatrix>
        </filter>
    </defs>
    <g id="Badges" stroke="none" stroke-width="1" fill="none" fill-rule="evenodd">
        <g id="Get-modern-with-Windows-10-and-Office-365-ProPlus-in-Microsoft-365-1" transform="translate(-50.000000, -660.000000)">
            <g id="Get-modern-with-Windows-10-and-Office-365-ProPlus-in-Microsoft-365/get-modern-directory-and-network-readiness" transform="translate(50.000000, 660.000000)">
                <g id="Mask" transform="translate(2.000000, 2.000000)">
                    <mask id="mask-2" fill="white">
                        <use xlink:href="#path-1"></use>
                    </mask>
                    <use id="BG" fill="#55A2FF" xlink:href="#path-1"></use>
                    <g id="Hosting/Storage/Network" filter="url(#filter-3)" mask="url(#mask-2)">
                        <g transform="translate(16.000000, 19.500000)">
                            <polygon id="Fill-454" fill="#182A37" points="29 24.001 35 24.001 35 16.001 29 16.001"></polygon>
                            <path d="M60,0 L4,0 C1.791,0 0,1.791 0,4 L0,14 C0,16.209 1.791,18 4,18 L60,18 C62.209,18 64,16.208 64,13.999 L64,3.999 C64,1.79 62.209,0 60,0" id="Fill-456" fill="#30404D"></path>
                            <path d="M14.586,10.363 C13.805,9.583 13.805,8.316 14.586,7.535 C15.366,6.754 16.634,6.755 17.414,7.535 C18.194,8.315 18.195,9.583 17.414,10.363 C16.634,11.144 15.366,11.144 14.586,10.363" id="Fill-457" fill="#EFB252"></path>
                            <path d="M8.593,10.381 C7.813,9.601 7.813,8.333 8.593,7.553 C9.374,6.772 10.641,6.773 11.422,7.553 C12.202,8.333 12.202,9.601 11.422,10.381 C10.641,11.162 9.373,11.162 8.593,10.381" id="Fill-458" fill="#EFB252"></path>
                            <path d="M32,4 L32,14 C32,15.105 31.105,16 30,16 L0.555,16 C1.248,17.191 2.523,18 4,18 L60,18 C62.209,18 64,16.208 64,13.999 L64,3.999 C64,3.267 63.789,2.59 63.446,2 L34,2 C32.895,2 32,2.895 32,4" id="Fill-459" fill="#182A37"></path>
                            <path d="M56,7 L44,7 C42.896,7 42,7.896 42,9 C42,10.103 42.896,11 44,11 L56,11 C57.104,11 58,10.103 58,9 C58,7.896 57.104,7 56,7" id="Fill-460" fill="#7CB65A"></path>
                            <path d="M44,8 L56,8 C56.93,8 57.706,8.639 57.929,9.5 C57.971,9.339 58,9.174 58,9 C58,7.896 57.104,7 56,7 L44,7 C42.896,7 42,7.896 42,9 C42,9.174 42.029,9.339 42.071,9.5 C42.294,8.639 43.07,8 44,8" id="Fill-461" fill="#69994E"></path>
                            <path d="M16.671,9.62 C16.02,10.271 15.033,10.371 14.27,9.936 C14.356,10.088 14.456,10.234 14.586,10.363 C15.366,11.144 16.634,11.144 17.414,10.363 C18.195,9.583 18.194,8.315 17.414,7.535 C17.285,7.405 17.139,7.306 16.987,7.219 C17.422,7.982 17.322,8.969 16.671,9.62" id="Fill-462" fill="#D8A34B"></path>
                            <path d="M10.715,9.602 C10.063,10.254 9.077,10.353 8.313,9.918 C8.4,10.07 8.5,10.216 8.629,10.345 C9.409,11.126 10.677,11.126 11.458,10.345 C12.238,9.565 12.238,8.297 11.458,7.517 C11.328,7.388 11.182,7.288 11.03,7.201 C11.465,7.964 11.366,8.951 10.715,9.602" id="Fill-463" fill="#D8A34B"></path>
                            <path d="M60,22 L4,22 C1.791,22 0,23.791 0,26 L0,36 C0,38.209 1.791,40 4,40 L60,40 C62.209,40 64,38.208 64,35.999 L64,25.999 C64,23.79 62.209,22 60,22" id="Fill-464" fill="#30404D"></path>
                            <path d="M14.586,32.363 C13.805,31.583 13.805,30.316 14.586,29.535 C15.366,28.754 16.634,28.755 17.414,29.535 C18.194,30.315 18.195,31.583 17.414,32.363 C16.634,33.144 15.366,33.144 14.586,32.363" id="Fill-465" fill="#EFB252"></path>
                            <path d="M8.593,32.381 C7.813,31.601 7.813,30.333 8.593,29.553 C9.374,28.772 10.641,28.773 11.422,29.553 C12.202,30.333 12.202,31.601 11.422,32.381 C10.641,33.162 9.373,33.162 8.593,32.381" id="Fill-466" fill="#EFB252"></path>
                            <path d="M32,26 L32,36 C32,37.105 31.105,38 30,38 L0.555,38 C1.248,39.191 2.523,40 4,40 L60,40 C62.209,40 64,38.208 64,35.999 L64,25.999 C64,25.267 63.789,24.59 63.446,24 L34,24 C32.895,24 32,24.895 32,26" id="Fill-467" fill="#182A37"></path>
                            <path d="M56,29 L44,29 C42.896,29 42,29.896 42,31 C42,32.103 42.896,33 44,33 L56,33 C57.104,33 58,32.103 58,31 C58,29.896 57.104,29 56,29" id="Fill-468" fill="#7CB65A"></path>
                            <path d="M44,30 L56,30 C56.93,30 57.706,30.639 57.929,31.5 C57.971,31.339 58,31.174 58,31 C58,29.896 57.104,29 56,29 L44,29 C42.896,29 42,29.896 42,31 C42,31.174 42.029,31.339 42.071,31.5 C42.294,30.639 43.07,30 44,30" id="Fill-469" fill="#69994E"></path>
                            <path d="M16.671,31.62 C16.02,32.271 15.033,32.371 14.27,31.936 C14.356,32.088 14.456,32.234 14.586,32.363 C15.366,33.144 16.634,33.144 17.414,32.363 C18.195,31.583 18.194,30.315 17.414,29.535 C17.285,29.405 17.139,29.306 16.987,29.219 C17.422,29.982 17.322,30.969 16.671,31.62" id="Fill-470" fill="#D8A34B"></path>
                            <path d="M10.715,31.602 C10.063,32.254 9.077,32.353 8.313,31.918 C8.4,32.07 8.5,32.216 8.629,32.345 C9.409,33.126 10.677,33.126 11.458,32.345 C12.238,31.565 12.238,30.297 11.458,29.517 C11.328,29.388 11.182,29.288 11.03,29.201 C11.465,29.964 11.366,30.951 10.715,31.602" id="Fill-471" fill="#D8A34B"></path>
                            <path d="M29,18 L29,19 L31,19 C31.552,19 32,19.448 32,20 L32,22 L35,22 L35,18 L29,18" id="Fill-472" fill="#12202B"></path>
                            <g id="Group-11" stroke-width="1" fill="none" transform="translate(9.000000, 38.000000)">
                                <path d="M44,23.001 L2,23.001 C0.895,23.001 0,22.105 0,21.001 C0,19.896 0.895,19.001 2,19.001 L44,19.001 C45.104,19.001 46,19.896 46,21.001 C46,22.105 45.104,23.001 44,23.001" id="Fill-453" fill="#182A37"></path>
                                <polygon id="Fill-455" fill="#182A37" points="20 21.001 26 21.001 26 0.001 20 0.001"></polygon>
                                <path d="M20,2 L20,3 L22,3 C22.552,3 23,3.448 23,4 L23,16 L26,16 L26,2 L20,2" id="Fill-473" fill="#12202B"></path>
                                <path d="M0,21.001 C0,22.105 0.896,23.001 2,23.001 L44,23.001 C45.104,23.001 46,22.105 46,21.001 L46,21 L0,21 L0,21.001" id="Fill-474" fill="#12202B"></path>
                                <path d="M31,25.001 C31,25.551 30.55,26.001 30,26.001 L16,26.001 C15.45,26.001 15,25.551 15,25.001 L15,17.001 C15,16.451 15.45,16.001 16,16.001 L30,16.001 C30.55,16.001 31,16.451 31,17.001 L31,25.001" id="Fill-475" fill="#30404D"></path>
                                <path d="M30,16.001 L23,16.001 L23,22 C23,23.105 22.105,24 21,24 L15,24 L15,25.001 C15,25.551 15.45,26.001 16,26.001 L30,26.001 C30.55,26.001 31,25.551 31,25.001 L31,17.001 C31,16.451 30.55,16.001 30,16.001" id="Fill-476" fill="#182A37"></path>
                            </g>
                        </g>
                    </g>
                    <rect id="Rectangle" fill="#70AC74" opacity="0.900000036" style="mix-blend-mode: color;" mask="url(#mask-2)" transform="translate(40.360070, 57.117618) rotate(-315.000000) translate(-40.360070, -57.117618) " x="24.617147" y="17.1969958" width="31.4858468" height="79.841244" rx="5.6"></rect>
                    <path d="M12.3831446,51.1614928 L10.8524688,51.1614928 L10.8524688,49.630817 C10.8524688,49.2092842 10.5086637,48.8654791 10.0871309,48.8654791 C9.66559807,48.8654791 9.32179297,49.2092842 9.32179297,49.630817 L9.32179297,51.1614928 L7.79111714,51.1614928 C7.36958432,51.1614928 7.02577922,51.5052979 7.02577922,51.9268307 C7.02577922,52.3483636 7.36958432,52.6921687 7.79111714,52.6921687 L9.32179297,52.6921687 L9.32179297,54.2228422 C9.32179297,54.644375 9.66559807,54.9881801 10.0871309,54.9881801 C10.5086637,54.9881801 10.8524688,54.644375 10.8524688,54.2228422 L10.8524688,52.6921687 L12.3831446,52.6921687 C12.8046775,52.6921687 13.1484826,52.3483636 13.1484826,51.9268307 C13.1484826,51.5052979 12.8046775,51.1614928 12.3831446,51.1614928 Z M62.321793,78.3688838 C62.525082,78.3688838 62.719409,78.2881636 62.8629098,78.1446628 C63.0064107,78.0011619 63.0871309,77.8068349 63.0871309,77.6035459 L63.0871309,76.838208 L63.8524688,76.838208 C64.2740016,76.838208 64.6178067,76.4944029 64.6178067,76.07287 C64.6178067,75.6513372 64.2740016,75.3075321 63.8524688,75.3075321 L63.0871309,75.3075321 L63.0871309,74.5421942 C63.0871309,74.1206614 62.7433258,73.7768563 62.321793,73.7768563 C61.9002602,73.7768563 61.5564551,74.1206614 61.5564551,74.5421942 L61.5564551,75.3075321 L60.7911171,75.3075321 C60.3695843,75.3075321 60.0257792,75.6513372 60.0257792,76.07287 C60.0257792,76.4944029 60.3695843,76.838208 60.7911171,76.838208 L61.5564551,76.838208 L61.5564551,77.6035459 C61.5564551,77.8068349 61.6371752,78.0011619 61.7806761,78.1446628 C61.924177,78.2881636 62.1185039,78.3688838 62.321793,78.3688838 Z M27.0344413,76.07287 C26.6129085,76.07287 26.2691034,76.4166751 26.2691034,76.838208 L26.2691034,77.6035459 L25.5037654,77.6035459 C25.0822326,77.6035459 24.7384275,77.947351 24.7384275,78.3688838 C24.7384275,78.7904166 25.0822326,79.1342217 25.5037654,79.1342217 L26.2691034,79.1342217 L26.2691034,79.8995596 C26.2691034,80.3210925 26.6129085,80.6648976 27.0344413,80.6648976 C27.4559741,80.6648976 27.7997792,80.3210925 27.7997792,79.8995596 L27.7997792,79.1342217 L28.5651171,79.1342217 C28.9866499,79.1342217 29.330455,78.7904166 29.330455,78.3688838 C29.330455,77.947351 28.9866499,77.6035459 28.5651171,77.6035459 L27.7997792,77.6035459 L27.7997792,76.838208 C27.7997792,76.6349189 27.719059,76.440592 27.5755582,76.2970911 C27.4320573,76.1535902 27.2377303,76.07287 27.0344413,76.07287 Z M27.7997792,24.844908 L30.8611309,24.844908 L30.8611309,27.9062596 C30.8611309,28.3277925 31.204936,28.6715976 31.6264688,28.6715976 C32.0480016,28.6715976 32.3918067,28.3277925 32.3918067,27.9062596 L32.3918067,24.844908 L35.4531584,24.844908 C35.8746912,24.844908 36.2184963,24.5011029 36.2184963,24.07957 C36.2184963,23.6580372 35.8746912,23.3142321 35.4531584,23.3142321 L32.3918067,23.3142321 L32.3918067,20.2528805 C32.3918067,19.8313476 32.0480016,19.4875425 31.6264688,19.4875425 C31.204936,19.4875425 30.8611309,19.8313476 30.8611309,20.2528805 L30.8611309,23.3142321 L27.7997792,23.3142321 C27.3782464,23.3142321 27.0344413,23.6580372 27.0344413,24.07957 C27.0344413,24.5011029 27.3782464,24.844908 27.7997792,24.844908 Z" id="Stars" fill="#FFFFFF" mask="url(#mask-2)"></path>
                    <g id="Group-56" filter="url(#filter-4)" mask="url(#mask-2)">
                        <g transform="translate(43.176187, 7.522312)">
                            <polygon id="Shape" stroke="none" fill="#FFFFFF" fill-rule="nonzero" points="37.5137 31.4050354 15.2439 9.19893539 0.7 23.7841354 3.77825 26.8532854 12.19995 23.4054354 6.2776 29.3452854 22.97015 45.9898854"></polygon>
                            <polygon id="Rectangle-path" stroke="none" fill="#000000" fill-rule="nonzero" opacity="0.14" transform="translate(24.149172, 22.539943) rotate(-45.081029) translate(-24.149172, -22.539943) " points="23.1525556 6.76015366 25.1457885 6.76015366 25.1457885 38.3197326 23.1525556 38.3197326"></polygon>
                            <path d="M15.46125,38.5047854 L26.07465,27.8598854" id="Shape" stroke="#000000" stroke-width="0.7" fill="none" opacity="0.3"></path>
                            <path d="M17.3418,40.3807854 L27.9566,29.7358854" id="Shape" stroke="#000000" stroke-width="0.7" fill="none" opacity="0.3"></path>
                            <path d="M19.51915,42.5511354 L30.1336,31.9062354" id="Shape" stroke="#000000" stroke-width="0.7" fill="none" opacity="0.3"></path>
                            <path d="M21.7322,44.7585854 L32.34665,34.1136854" id="Shape" stroke="#000000" stroke-width="0.7" fill="none" opacity="0.3"></path>
                            <polygon id="Shape" stroke="none" fill="#645252" fill-rule="nonzero" opacity="0.2" points="15.95405 13.5046354 22.97015 45.9898854 37.5137 31.4050354"></polygon>
                            <g id="Shape" stroke="none" fill="none" fill-rule="nonzero">
                                <use fill="#8B572A" xlink:href="#path-5"></use>
                                <use fill="black" fill-opacity="1" filter="url(#filter-6)" xlink:href="#path-5"></use>
                            </g>
                            <circle id="Oval" stroke="none" fill="#7B4D25" fill-rule="nonzero" cx="41.2804" cy="5.35733539" r="1.32125"></circle>
                            <path d="M24.99805,43.7712354 C24.99805,43.7712354 26.10895,39.0602354 21.3206,39.3066354 C16.53155,39.5530354 16.842,33.8056854 16.43985,31.3318854 C16.03735,28.8580854 11.2672,26.1571354 8.7724,27.7510354 C6.27725,29.3449354 6.27725,29.3449354 6.27725,29.3449354 L22.97015,45.9895354 L24.99805,43.7712354 Z" id="Shape" stroke="none" fill="#629E3F" fill-rule="nonzero"></path>
                            <path d="M3.01735,22.0726354 C0.5222,23.6668854 0.5222,23.6668854 0.5222,23.6668854 L3.65785,26.7934354 L10.02715,24.2503354 C8.5512,22.3088854 5.0386,20.7814854 3.01735,22.0726354 Z" id="Shape" stroke="none" fill="#629E3F" fill-rule="nonzero"></path>
                        </g>
                    </g>
                </g>
                <g id="Azure-Border" stroke="#0078D4" stroke-width="4">
                    <rect x="2" y="2" width="96" height="96" rx="48"></rect>
                </g>
            </g>
        </g>
    </g>
</svg>