<?xml version="1.0" encoding="UTF-8"?>
<svg width="100px" height="100px" viewBox="0 0 100 100" version="1.1" xmlns="http://www.w3.org/2000/svg" xmlns:xlink="http://www.w3.org/1999/xlink">
    <!-- Generator: Sketch 54.1 (76490) - https://sketchapp.com -->
    <title>Get modern with Windows 10 and Office 365 ProPlus in Microsoft 365/get-modern-os-deployment-and-feature-updates</title>
    <desc>Created with Sketch.</desc>
    <defs>
        <rect id="path-1" x="0" y="0" width="96" height="96" rx="48"></rect>
        <filter x="-6.2%" y="-7.4%" width="112.5%" height="114.8%" filterUnits="objectBoundingBox" id="filter-3">
            <feOffset dx="0" dy="2" in="SourceAlpha" result="shadowOffsetOuter1"></feOffset>
            <feColorMatrix values="0 0 0 0 0   0 0 0 0 0   0 0 0 0 0  0 0 0 0.0964956975 0" type="matrix" in="shadowOffsetOuter1" result="shadowMatrixOuter1"></feColorMatrix>
            <feMerge>
                <feMergeNode in="shadowMatrixOuter1"></feMergeNode>
                <feMergeNode in="SourceGraphic"></feMergeNode>
            </feMerge>
        </filter>
        <filter x="-5.3%" y="-5.4%" width="110.9%" height="110.8%" filterUnits="objectBoundingBox" id="filter-4">
            <feOffset dx="0" dy="1" in="SourceAlpha" result="shadowOffsetOuter1"></feOffset>
            <feColorMatrix values="0 0 0 0 0   0 0 0 0 0   0 0 0 0 0  0 0 0 0.0996503497 0" type="matrix" in="shadowOffsetOuter1" result="shadowMatrixOuter1"></feColorMatrix>
            <feMerge>
                <feMergeNode in="shadowMatrixOuter1"></feMergeNode>
                <feMergeNode in="SourceGraphic"></feMergeNode>
            </feMerge>
        </filter>
        <path d="M38.87625,26.2939854 C35.9646,23.3907354 33.1261,20.0499854 35.2226,17.3140354 C38.19795,13.4307854 49.6349,9.88703539 45.89095,1.12968539 C45.815,0.951885393 45.67325,0.810835393 45.49545,0.735235393 C36.72725,-2.98351461 33.2157,8.46323539 29.34225,11.4497854 C26.61155,13.5543354 23.2624,10.7249354 20.35145,7.82203539 C18.8958,6.37023539 17.3754,5.95443539 16.16405,5.95583539 C14.0091,5.95898539 13.78125,6.64743539 11.39705,9.03863539 L24.5413,22.1454354 L37.6852,35.2515354 C40.0799,32.8501854 40.7575,32.6212854 40.75435,30.4754354 C40.75225,29.2640854 40.3319,27.7454354 38.87625,26.2939854 Z" id="path-5"></path>
        <filter x="-4.3%" y="-4.3%" width="108.5%" height="108.5%" filterUnits="objectBoundingBox" id="filter-6">
            <feOffset dx="-3" dy="-3" in="SourceAlpha" result="shadowOffsetInner1"></feOffset>
            <feComposite in="shadowOffsetInner1" in2="SourceAlpha" operator="arithmetic" k2="-1" k3="1" result="shadowInnerInner1"></feComposite>
            <feColorMatrix values="0 0 0 0 0   0 0 0 0 0   0 0 0 0 0  0 0 0 0.10232736 0" type="matrix" in="shadowInnerInner1"></feColorMatrix>
        </filter>
    </defs>
    <g id="Badges" stroke="none" stroke-width="1" fill="none" fill-rule="evenodd">
        <g id="Get-modern-with-Windows-10-and-Office-365-ProPlus-in-Microsoft-365-2" transform="translate(-50.000000, -260.000000)">
            <g id="Get-modern-with-Windows-10-and-Office-365-ProPlus-in-Microsoft-365/get-modern-os-deployment-and-feature-updates" transform="translate(50.000000, 260.000000)">
                <g id="Mask" transform="translate(2.000000, 2.000000)">
                    <mask id="mask-2" fill="white">
                        <use xlink:href="#path-1"></use>
                    </mask>
                    <use id="BG" fill="#55A2FF" xlink:href="#path-1"></use>
                    <g id="Code" filter="url(#filter-3)" mask="url(#mask-2)">
                        <g transform="translate(16.000000, 21.576220)">
                            <path d="M60,2 L4,2 C2.897,2 2,2.897 2,4 L2,50 C2,51.102 2.897,52 4,52 L60,52 C61.102,52 62,51.102 62,50 L62,4 C62,2.897 61.102,2 60,2" id="Fill-1523" fill="#182A37"></path>
                            <path d="M60,0 L4,0 C1.8,0 0,1.8 0,4 L0,50 C0,52.2 1.8,54 4,54 L60,54 C62.2,54 64,52.2 64,50 L64,4 C64,1.8 62.2,0 60,0 Z M60,2 C61.102,2 62,2.897 62,4 L62,50 C62,51.102 61.102,52 60,52 L4,52 C2.897,52 2,51.102 2,50 L2,4 C2,2.897 2.897,2 4,2 L60,2 L60,2 Z" id="Fill-1524" fill="#384B58"></path>
                            <polygon id="Fill-1525" fill="#384B58" points="11 52 13 52 13 2 11 2"></polygon>
                            <path d="M9,19 C9,20.104 8.104,21 7,21 C5.895,21 5,20.104 5,19 C5,17.895 5.895,17 7,17 C8.104,17 9,17.895 9,19" id="Fill-1526" fill="#E1E4E1"></path>
                            <path d="M9,26 C9,27.104 8.104,28 7,28 C5.895,28 5,27.104 5,26 C5,24.895 5.895,24 7,24 C8.104,24 9,24.895 9,26" id="Fill-1527" fill="#E1E4E1"></path>
                            <path d="M9,33 C9,34.104 8.104,35 7,35 C5.895,35 5,34.104 5,33 C5,31.895 5.895,31 7,31 C8.104,31 9,31.895 9,33" id="Fill-1528" fill="#E1E4E1"></path>
                            <path d="M9,40 C9,41.104 8.104,42 7,42 C5.895,42 5,41.104 5,40 C5,38.895 5.895,38 7,38 C8.104,38 9,38.895 9,40" id="Fill-1529" fill="#E1E4E1"></path>
                            <path d="M9,47 C9,48.104 8.104,49 7,49 C5.895,49 5,48.104 5,47 C5,45.895 5.895,45 7,45 C8.104,45 9,45.895 9,47" id="Fill-1530" fill="#E1E4E1"></path>
                            <path d="M28,48 L17,48 C16.447,48 16,47.553 16,47 C16,46.447 16.447,46 17,46 L28,46 C28.553,46 29,46.447 29,47 C29,47.553 28.553,48 28,48" id="Fill-1531" fill="#FFFFFE"></path>
                            <path d="M38,48 L32,48 C31.447,48 31,47.553 31,47 C31,46.447 31.447,46 32,46 L38,46 C38.553,46 39,46.447 39,47 C39,47.553 38.553,48 38,48" id="Fill-1532" fill="#55B7D9"></path>
                            <path d="M21,41 L17,41 C16.447,41 16,40.553 16,40 C16,39.447 16.447,39 17,39 L21,39 C21.553,39 22,39.447 22,40 C22,40.553 21.553,41 21,41" id="Fill-1533" fill="#EFB252"></path>
                            <path d="M28,34 L17,34 C16.447,34 16,33.553 16,33 C16,32.447 16.447,32 17,32 L28,32 C28.553,32 29,32.447 29,33 C29,33.553 28.553,34 28,34" id="Fill-1534" fill="#FFFFFE"></path>
                            <path d="M43,34 L32,34 C31.447,34 31,33.553 31,33 C31,32.447 31.447,32 32,32 L43,32 C43.553,32 44,32.447 44,33 C44,33.553 43.553,34 43,34" id="Fill-1535" fill="#FFFFFE"></path>
                            <path d="M50,34 L47,34 C46.447,34 46,33.553 46,33 C46,32.447 46.447,32 47,32 L50,32 C50.553,32 51,32.447 51,33 C51,33.553 50.553,34 50,34" id="Fill-1536" fill="#DF5142"></path>
                            <path d="M36,41 L25,41 C24.447,41 24,40.553 24,40 C24,39.447 24.447,39 25,39 L36,39 C36.553,39 37,39.447 37,40 C37,40.553 36.553,41 36,41" id="Fill-1537" fill="#DF5142"></path>
                            <path d="M36,27 L32,27 C31.447,27 31,26.553 31,26 C31,25.447 31.447,25 32,25 L36,25 C36.553,25 37,25.447 37,26 C37,26.553 36.553,27 36,27" id="Fill-1538" fill="#EFB252"></path>
                            <path d="M28,27 L17,27 C16.447,27 16,26.553 16,26 C16,25.447 16.447,25 17,25 L28,25 C28.553,25 29,25.447 29,26 C29,26.553 28.553,27 28,27" id="Fill-1539" fill="#55B7D9"></path>
                            <path d="M28,20 L17,20 C16.447,20 16,19.553 16,19 C16,18.447 16.447,18 17,18 L28,18 C28.553,18 29,18.447 29,19 C29,19.553 28.553,20 28,20" id="Fill-1540" fill="#FFFFFE"></path>
                            <path d="M17,13 C16.744,13 16.488,12.902 16.293,12.707 C15.902,12.316 15.902,11.684 16.293,11.293 L18.586,9 L16.293,6.707 C15.902,6.316 15.902,5.684 16.293,5.293 C16.684,4.902 17.316,4.902 17.707,5.293 L20.707,8.293 C21.098,8.684 21.098,9.316 20.707,9.707 L17.707,12.707 C17.512,12.902 17.256,13 17,13" id="Fill-1541" fill="#697D85"></path>
                            <path d="M27,13 L23,13 C22.447,13 22,12.553 22,12 C22,11.447 22.447,11 23,11 L27,11 C27.553,11 28,11.447 28,12 C28,12.553 27.553,13 27,13" id="Fill-1542" fill="#697D85"></path>
                        </g>
                    </g>
                    <rect id="Rectangle" fill="#70AC74" opacity="0.900000036" style="mix-blend-mode: color;" mask="url(#mask-2)" transform="translate(40.360070, 55.617618) rotate(-315.000000) translate(-40.360070, -55.617618) " x="24.617147" y="15.6969958" width="31.4858468" height="79.841244" rx="5.6"></rect>
                    <path d="M12.3831446,49.6614928 L10.8524688,49.6614928 L10.8524688,48.130817 C10.8524688,47.7092842 10.5086637,47.3654791 10.0871309,47.3654791 C9.66559807,47.3654791 9.32179297,47.7092842 9.32179297,48.130817 L9.32179297,49.6614928 L7.79111714,49.6614928 C7.36958432,49.6614928 7.02577922,50.0052979 7.02577922,50.4268307 C7.02577922,50.8483636 7.36958432,51.1921687 7.79111714,51.1921687 L9.32179297,51.1921687 L9.32179297,52.7228422 C9.32179297,53.144375 9.66559807,53.4881801 10.0871309,53.4881801 C10.5086637,53.4881801 10.8524688,53.144375 10.8524688,52.7228422 L10.8524688,51.1921687 L12.3831446,51.1921687 C12.8046775,51.1921687 13.1484826,50.8483636 13.1484826,50.4268307 C13.1484826,50.0052979 12.8046775,49.6614928 12.3831446,49.6614928 Z M62.321793,76.8688838 C62.525082,76.8688838 62.719409,76.7881636 62.8629098,76.6446628 C63.0064107,76.5011619 63.0871309,76.3068349 63.0871309,76.1035459 L63.0871309,75.338208 L63.8524688,75.338208 C64.2740016,75.338208 64.6178067,74.9944029 64.6178067,74.57287 C64.6178067,74.1513372 64.2740016,73.8075321 63.8524688,73.8075321 L63.0871309,73.8075321 L63.0871309,73.0421942 C63.0871309,72.6206614 62.7433258,72.2768563 62.321793,72.2768563 C61.9002602,72.2768563 61.5564551,72.6206614 61.5564551,73.0421942 L61.5564551,73.8075321 L60.7911171,73.8075321 C60.3695843,73.8075321 60.0257792,74.1513372 60.0257792,74.57287 C60.0257792,74.9944029 60.3695843,75.338208 60.7911171,75.338208 L61.5564551,75.338208 L61.5564551,76.1035459 C61.5564551,76.3068349 61.6371752,76.5011619 61.7806761,76.6446628 C61.924177,76.7881636 62.1185039,76.8688838 62.321793,76.8688838 Z M27.0344413,74.57287 C26.6129085,74.57287 26.2691034,74.9166751 26.2691034,75.338208 L26.2691034,76.1035459 L25.5037654,76.1035459 C25.0822326,76.1035459 24.7384275,76.447351 24.7384275,76.8688838 C24.7384275,77.2904166 25.0822326,77.6342217 25.5037654,77.6342217 L26.2691034,77.6342217 L26.2691034,78.3995596 C26.2691034,78.8210925 26.6129085,79.1648976 27.0344413,79.1648976 C27.4559741,79.1648976 27.7997792,78.8210925 27.7997792,78.3995596 L27.7997792,77.6342217 L28.5651171,77.6342217 C28.9866499,77.6342217 29.330455,77.2904166 29.330455,76.8688838 C29.330455,76.447351 28.9866499,76.1035459 28.5651171,76.1035459 L27.7997792,76.1035459 L27.7997792,75.338208 C27.7997792,75.1349189 27.719059,74.940592 27.5755582,74.7970911 C27.4320573,74.6535902 27.2377303,74.57287 27.0344413,74.57287 Z M27.7997792,23.344908 L30.8611309,23.344908 L30.8611309,26.4062596 C30.8611309,26.8277925 31.204936,27.1715976 31.6264688,27.1715976 C32.0480016,27.1715976 32.3918067,26.8277925 32.3918067,26.4062596 L32.3918067,23.344908 L35.4531584,23.344908 C35.8746912,23.344908 36.2184963,23.0011029 36.2184963,22.57957 C36.2184963,22.1580372 35.8746912,21.8142321 35.4531584,21.8142321 L32.3918067,21.8142321 L32.3918067,18.7528805 C32.3918067,18.3313476 32.0480016,17.9875425 31.6264688,17.9875425 C31.204936,17.9875425 30.8611309,18.3313476 30.8611309,18.7528805 L30.8611309,21.8142321 L27.7997792,21.8142321 C27.3782464,21.8142321 27.0344413,22.1580372 27.0344413,22.57957 C27.0344413,23.0011029 27.3782464,23.344908 27.7997792,23.344908 Z" id="Stars" fill="#FFFFFF" mask="url(#mask-2)"></path>
                    <g id="Group-56" filter="url(#filter-4)" mask="url(#mask-2)">
                        <g transform="translate(43.176187, 6.022312)">
                            <polygon id="Shape" stroke="none" fill="#FFFFFF" fill-rule="nonzero" points="37.5137 31.4050354 15.2439 9.19893539 0.7 23.7841354 3.77825 26.8532854 12.19995 23.4054354 6.2776 29.3452854 22.97015 45.9898854"></polygon>
                            <polygon id="Rectangle-path" stroke="none" fill="#000000" fill-rule="nonzero" opacity="0.14" transform="translate(24.149172, 22.539943) rotate(-45.081029) translate(-24.149172, -22.539943) " points="23.1525556 6.76015366 25.1457885 6.76015366 25.1457885 38.3197326 23.1525556 38.3197326"></polygon>
                            <path d="M15.46125,38.5047854 L26.07465,27.8598854" id="Shape" stroke="#000000" stroke-width="0.7" fill="none" opacity="0.3"></path>
                            <path d="M17.3418,40.3807854 L27.9566,29.7358854" id="Shape" stroke="#000000" stroke-width="0.7" fill="none" opacity="0.3"></path>
                            <path d="M19.51915,42.5511354 L30.1336,31.9062354" id="Shape" stroke="#000000" stroke-width="0.7" fill="none" opacity="0.3"></path>
                            <path d="M21.7322,44.7585854 L32.34665,34.1136854" id="Shape" stroke="#000000" stroke-width="0.7" fill="none" opacity="0.3"></path>
                            <polygon id="Shape" stroke="none" fill="#645252" fill-rule="nonzero" opacity="0.2" points="15.95405 13.5046354 22.97015 45.9898854 37.5137 31.4050354"></polygon>
                            <g id="Shape" stroke="none" fill="none" fill-rule="nonzero">
                                <use fill="#8B572A" xlink:href="#path-5"></use>
                                <use fill="black" fill-opacity="1" filter="url(#filter-6)" xlink:href="#path-5"></use>
                            </g>
                            <circle id="Oval" stroke="none" fill="#7B4D25" fill-rule="nonzero" cx="41.2804" cy="5.35733539" r="1.32125"></circle>
                            <path d="M24.99805,43.7712354 C24.99805,43.7712354 26.10895,39.0602354 21.3206,39.3066354 C16.53155,39.5530354 16.842,33.8056854 16.43985,31.3318854 C16.03735,28.8580854 11.2672,26.1571354 8.7724,27.7510354 C6.27725,29.3449354 6.27725,29.3449354 6.27725,29.3449354 L22.97015,45.9895354 L24.99805,43.7712354 Z" id="Shape" stroke="none" fill="#629E3F" fill-rule="nonzero"></path>
                            <path d="M3.01735,22.0726354 C0.5222,23.6668854 0.5222,23.6668854 0.5222,23.6668854 L3.65785,26.7934354 L10.02715,24.2503354 C8.5512,22.3088854 5.0386,20.7814854 3.01735,22.0726354 Z" id="Shape" stroke="none" fill="#629E3F" fill-rule="nonzero"></path>
                        </g>
                    </g>
                </g>
                <g id="Azure-Border" stroke="#0078D4" stroke-width="4">
                    <rect x="2" y="2" width="96" height="96" rx="48"></rect>
                </g>
            </g>
        </g>
    </g>
</svg>