<svg width="180" height="190" viewBox="0 0 180 190" fill="none" xmlns="http://www.w3.org/2000/svg">
<path d="M90.0006 189C93.0824 188.995 96.103 188.14 98.7306 186.53L160.731 148.87C163.518 147.11 165.808 144.667 167.383 141.771C168.958 138.876 169.767 135.626 169.731 132.33V57.62C169.764 54.3247 168.955 51.0755 167.38 48.1807C165.804 45.286 163.516 42.8418 160.731 41.08L98.7306 3.42003C96.0964 1.83465 93.08 0.996948 90.0055 0.996948C86.931 0.996948 83.9146 1.83465 81.2804 3.42003L19.2804 41.1C16.494 42.8604 14.2043 45.3043 12.629 48.1993C11.0537 51.0944 10.2452 54.3443 10.2804 57.64V132.34C10.2619 135.123 10.8365 137.878 11.9659 140.421C13.0954 142.964 14.7539 145.238 16.8307 147.09V147.09L81.2404 186.52C83.8773 188.135 86.9083 188.993 90.0006 189V189ZM90.6505 8.00003C92.6005 8.00003 95.0807 9.21003 96.7907 10.26L157.55 47.45C161.3 49.73 163.421 56.33 163.421 61.08L162.791 132.38C162.791 137.13 159.59 141.38 155.84 143.68L95.4406 180.06C92.0106 182.15 89.2204 182.15 85.7804 180.06L24.5704 143.59C20.8204 141.31 17.8004 137.11 17.8004 132.38V58.69C17.8367 56.3206 18.4516 53.996 19.5914 51.9185C20.7313 49.841 22.3615 48.0736 24.3405 46.77L84.9205 10.21C86.5805 9.17003 88.7005 7.95003 90.6505 7.95003V8.00003Z" fill="#F2F1F0"/>
<path fill-rule="evenodd" clip-rule="evenodd" d="M97.8996 11.5301C95.5268 10.06 92.791 9.28113 89.9997 9.28113C87.2084 9.28113 84.4721 10.06 82.0993 11.5301L25.9694 45.86C23.4428 47.4714 21.3698 49.7016 19.9469 52.339C18.5241 54.9764 17.7987 57.9336 17.8395 60.9301V129.03C17.7997 132.026 18.5257 134.983 19.9484 137.62C21.3712 140.258 23.4434 142.488 25.9694 144.1L82.0993 178.43C84.4721 179.9 87.2084 180.679 89.9997 180.679C92.791 180.679 95.5268 179.9 97.8996 178.43L154.029 144.1C156.554 142.487 158.625 140.256 160.048 137.619C161.471 134.982 162.197 132.026 162.159 129.03V60.9301C162.197 57.9341 161.471 54.978 160.048 52.3411C158.625 49.7041 156.554 47.4735 154.029 45.86L97.8996 11.5301Z" fill="url(#paint0_linear)"/>
<path fill-rule="evenodd" clip-rule="evenodd" d="M89.9996 10.77C91.6796 10.77 93.5694 11.64 95.6294 12.89L154.099 48.43C155.991 49.643 157.542 51.32 158.603 53.3015C159.663 55.2829 160.199 57.5029 160.159 59.75V130.23C160.198 132.477 159.662 134.697 158.601 136.678C157.54 138.659 155.991 140.336 154.099 141.55L95.6392 177.07C94.0317 178.327 92.0499 179.01 90.0093 179.01C87.9687 179.01 85.9869 178.327 84.3794 177.07L25.8995 141.54C24.1169 140.587 22.5931 139.214 21.4595 137.54C20.4595 135.94 19.8394 133.72 19.8394 130.26V59.77C19.7997 57.5229 20.3358 55.3029 21.3965 53.3215C22.4573 51.3401 24.0074 49.663 25.8995 48.45L84.3394 12.88C86.4494 11.63 88.3396 10.77 89.9996 10.77ZM97.7095 180.52L156.169 144.98C158.652 143.412 160.691 141.234 162.091 138.653C163.492 136.073 164.208 133.176 164.169 130.24V59.77C164.208 56.8341 163.492 53.9374 162.091 51.3568C160.691 48.7762 158.652 46.5979 156.169 45.03L97.7095 9.49003C95.5995 8.21003 92.8896 6.78003 89.9996 6.78003C87.1096 6.78003 84.3894 8.22003 82.2994 9.48003L23.8296 45.03C21.3471 46.5979 19.3079 48.7762 17.9073 51.3568C16.5067 53.9374 15.7915 56.8341 15.8296 59.77V130.25C15.6773 133.514 16.439 136.756 18.0293 139.61C19.4843 141.849 21.4701 143.693 23.8096 144.98L82.2696 180.52C84.5043 182.168 87.2078 183.057 89.9844 183.057C92.761 183.057 95.4645 182.168 97.6993 180.52H97.7095Z" fill="url(#paint1_linear)"/>
<path d="M89.4195 58.1802C87.6132 58.1921 85.8441 57.6674 84.3365 56.6725C82.8288 55.6776 81.6502 54.2575 80.9507 52.5921C80.2513 50.9267 80.0622 49.0911 80.4073 47.3181C80.7524 45.545 81.6162 43.9144 82.8892 42.6329C84.1622 41.3515 85.7874 40.4769 87.5582 40.1201C89.3289 39.7633 91.1655 39.9404 92.8355 40.6289C94.5055 41.3173 95.9332 42.4862 96.938 43.9873C97.9428 45.4883 98.4795 47.2539 98.4795 49.0602C98.4822 51.4694 97.5305 53.7816 95.8326 55.4908C94.1346 57.2 91.8287 58.167 89.4195 58.1802V58.1802ZM89.4195 43.5402C88.3253 43.5283 87.2521 43.8419 86.3365 44.4412C85.4209 45.0405 84.7039 45.8984 84.2769 46.9059C83.8499 47.9135 83.7319 49.0252 83.938 50.0999C84.1442 51.1746 84.6656 52.1637 85.4351 52.9417C86.2047 53.7197 87.1879 54.2515 88.2603 54.4694C89.3327 54.6873 90.4454 54.5815 91.4576 54.1655C92.4697 53.7496 93.3356 53.0421 93.9449 52.1331C94.5541 51.2241 94.8794 50.1545 94.8794 49.0602C94.8834 48.3393 94.7454 47.6246 94.4732 46.957C94.2009 46.2894 93.7995 45.682 93.2925 45.1694C92.7855 44.6568 92.1827 44.2491 91.5181 43.9696C90.8535 43.6901 90.1404 43.5442 89.4195 43.5402V43.5402Z" fill="url(#paint2_linear)"/>
<path d="M112.2 144.38H66.9302L62.1704 153.24L59 151.53L72.1704 127L75.3203 128.73L68.8501 140.73H110.23L103.76 128.73L106.93 127.02L120.11 151.55L116.94 153.26L112.2 144.38Z" fill="url(#paint3_linear)"/>
<path d="M139.029 58.7703H41.0293V124.66H139.029V58.7703Z" fill="url(#paint4_linear)"/>
<path d="M39.73 49.0403H140.27C140.744 49.0403 141.213 49.1337 141.651 49.3151C142.089 49.4965 142.487 49.7624 142.822 50.0976C143.157 50.4328 143.424 50.8308 143.605 51.2688C143.786 51.7068 143.88 52.1762 143.88 52.6503V56.4103C143.877 57.3669 143.496 58.2836 142.82 58.96C142.143 59.6365 141.227 60.0176 140.27 60.0203H39.73C38.7751 60.015 37.8608 59.6327 37.1865 58.9565C36.5122 58.2804 36.1325 57.3652 36.1299 56.4103V52.6503C36.1299 51.6946 36.5087 50.7779 37.1836 50.1012C37.8584 49.4244 38.7743 49.0429 39.73 49.0403V49.0403Z" fill="url(#paint5_linear)"/>
<path d="M39.1693 123.31H140.809C141.617 123.31 142.391 123.631 142.962 124.202C143.533 124.773 143.854 125.548 143.854 126.355C143.854 127.163 143.533 127.937 142.962 128.508C142.391 129.079 141.617 129.4 140.809 129.4H39.1693C38.3737 129.4 37.6103 129.084 37.0477 128.522C36.4851 127.959 36.1693 127.196 36.1693 126.4C36.1573 125.999 36.2261 125.599 36.3715 125.224C36.5168 124.85 36.7357 124.509 37.0155 124.22C37.2953 123.932 37.6299 123.703 37.9999 123.547C38.3699 123.39 38.7677 123.31 39.1693 123.31Z" fill="url(#paint6_linear)"/>
<path d="M139.029 58.7703H41.0293V124.66H139.029V58.7703Z" fill="url(#paint7_linear)"/>
<path d="M39.73 49.0403H140.27C140.744 49.0403 141.213 49.1337 141.651 49.3151C142.089 49.4965 142.487 49.7624 142.822 50.0976C143.157 50.4328 143.424 50.8308 143.605 51.2688C143.786 51.7068 143.88 52.1762 143.88 52.6503V56.4103C143.877 57.3669 143.496 58.2836 142.82 58.96C142.143 59.6365 141.227 60.0176 140.27 60.0203H39.73C38.7751 60.015 37.8608 59.6327 37.1865 58.9565C36.5122 58.2804 36.1325 57.3652 36.1299 56.4103V52.6503C36.1299 51.6946 36.5087 50.7779 37.1836 50.1012C37.8584 49.4244 38.7743 49.0429 39.73 49.0403V49.0403Z" fill="url(#paint8_linear)"/>
<path d="M39.1693 123.31H140.809C141.617 123.31 142.391 123.631 142.962 124.202C143.533 124.773 143.854 125.548 143.854 126.355C143.854 127.163 143.533 127.937 142.962 128.508C142.391 129.079 141.617 129.4 140.809 129.4H39.1693C38.3737 129.4 37.6103 129.084 37.0477 128.522C36.4851 127.959 36.1693 127.196 36.1693 126.4C36.1573 125.999 36.2261 125.599 36.3715 125.224C36.5168 124.85 36.7357 124.509 37.0155 124.22C37.2953 123.932 37.6299 123.703 37.9999 123.547C38.3699 123.39 38.7677 123.31 39.1693 123.31Z" fill="url(#paint9_linear)"/>
<g opacity="0.2">
<path opacity="0.2" d="M67.92 100.21C71.7639 100.21 74.88 97.0942 74.88 93.2503C74.88 89.4064 71.7639 86.2903 67.92 86.2903C64.0761 86.2903 60.96 89.4064 60.96 93.2503C60.96 97.0942 64.0761 100.21 67.92 100.21Z" fill="#1F1D21"/>
<path opacity="0.2" d="M113.04 79.1702C113.055 78.2684 112.89 77.3727 112.556 76.535C112.221 75.6974 111.724 74.9345 111.092 74.2907C110.461 73.6469 109.707 73.135 108.876 72.7847C108.045 72.4345 107.152 72.2528 106.25 72.2502C105.129 72.2524 104.024 72.5264 103.031 73.0489C102.038 73.5714 101.187 74.3267 100.55 75.2502L91.9902 83.3403L82.6904 74.0403C81.3715 72.8657 79.6535 72.2399 77.8881 72.2909C76.1228 72.342 74.4436 73.0661 73.1948 74.3149C71.946 75.5637 71.2219 77.2427 71.1709 79.008C71.1198 80.7733 71.7458 82.4914 72.9204 83.8102L72.8403 83.8902L82.1401 93.1902L74.3403 101.37C73.5575 101.896 72.8903 102.576 72.3798 103.369C71.8694 104.161 71.5262 105.05 71.3715 105.98C71.2169 106.91 71.254 107.862 71.4804 108.777C71.7069 109.692 72.1179 110.552 72.6884 111.302C73.2589 112.053 73.9766 112.679 74.7978 113.143C75.619 113.606 76.5263 113.896 77.4638 113.996C78.4014 114.096 79.3495 114.004 80.25 113.724C81.1504 113.444 81.9842 112.984 82.7002 112.37V112.37L92.0005 103.08L101.29 112.37C102.227 113.283 103.403 113.911 104.682 114.182C105.961 114.454 107.291 114.357 108.517 113.904C109.744 113.451 110.817 112.66 111.612 111.622C112.407 110.584 112.892 109.342 113.01 108.04V108.04V79.3403C113.03 79.2803 113.04 79.2302 113.04 79.1702Z" fill="#1F1D21"/>
</g>
<path d="M99.2495 93.6703L91.9795 100.93L101.279 110.23L105.619 105.89H99.2495V93.6703Z" fill="#3075BA"/>
<path d="M82.6983 71.8947L72.8271 81.7659L82.1256 91.0643L91.9968 81.1931L82.6983 71.8947Z" fill="#3274B6"/>
<path d="M72.9795 100.62L82.6895 110.23L91.9795 100.93L82.1195 91.0602L72.9795 100.62Z" fill="#8E79B3"/>
<path d="M99.2495 76.3103H105.689L101.689 72.0403L91.9795 81.2003L99.2495 88.4603V76.3103Z" fill="#9076B4"/>
<path d="M99.2501 88.4602L91.9801 81.2002L82.1201 91.0602L91.9801 100.93L99.2501 93.6702V88.4602Z" fill="#6E6AAB"/>
<path d="M113.039 77.2002L105.689 76.3102L111.149 81.7702L101.859 91.0602L110.959 100.57L105.619 105.89H113.039V77.2002Z" fill="#88D3ED"/>
<path opacity="0.5" d="M101.86 91.0602L99.25 93.6702V105.89H105.62L110.92 100.62L101.86 91.0602Z" fill="#2F75BB"/>
<path d="M101.86 91.0602L99.25 93.6702V105.89H105.62L111.14 100.66L101.86 91.0602Z" fill="#3075BA"/>
<path d="M99.25 88.4602L101.86 91.0602L111.15 81.7702L105.69 76.3102H99.25V88.4602Z" fill="#8D79B6"/>
<path d="M99.25 88.4602L101.86 91.0602L111.15 81.7702L105.69 76.3102L99.44 76.4502L99.25 88.4602Z" fill="#78C2E2"/>
<path d="M99.25 93.6702L101.86 91.0602L99.25 88.4602V93.6702Z" fill="#8D79B6"/>
<path d="M99.25 93.6702L101.86 91.0602L99.25 88.4602V93.6702Z" fill="#76BCD8"/>
<path d="M78.0196 83.9602C81.8414 83.9602 84.9396 80.862 84.9396 77.0402C84.9396 73.2184 81.8414 70.1202 78.0196 70.1202C74.1978 70.1202 71.0996 73.2184 71.0996 77.0402C71.0996 80.862 74.1978 83.9602 78.0196 83.9602Z" fill="#2F75BB"/>
<path d="M106.12 112.18C109.942 112.18 113.04 109.082 113.04 105.26C113.04 101.438 109.942 98.3402 106.12 98.3402C102.298 98.3402 99.2002 101.438 99.2002 105.26C99.2002 109.082 102.298 112.18 106.12 112.18Z" fill="#6DC0E5"/>
<path d="M67.92 98.0803C71.7639 98.0803 74.88 94.9642 74.88 91.1203C74.88 87.2764 71.7639 84.1603 67.92 84.1603C64.0761 84.1603 60.96 87.2764 60.96 91.1203C60.96 94.9642 64.0761 98.0803 67.92 98.0803Z" fill="#8267AC"/>
<path d="M67.9199 96.6202C70.9575 96.6202 73.4199 94.1578 73.4199 91.1202C73.4199 88.0827 70.9575 85.6202 67.9199 85.6202C64.8824 85.6202 62.4199 88.0827 62.4199 91.1202C62.4199 94.1578 64.8824 96.6202 67.9199 96.6202Z" fill="#FFFFF9"/>
<path d="M92.1395 98.1603C96.0718 98.1603 99.2595 94.9726 99.2595 91.0403C99.2595 87.108 96.0718 83.9203 92.1395 83.9203C88.2073 83.9203 85.0195 87.108 85.0195 91.0403C85.0195 94.9726 88.2073 98.1603 92.1395 98.1603Z" fill="#FFFFF9"/>
<path d="M92.1402 96.2302C95.0066 96.2302 97.3302 93.9066 97.3302 91.0402C97.3302 88.1739 95.0066 85.8502 92.1402 85.8502C89.2738 85.8502 86.9502 88.1739 86.9502 91.0402C86.9502 93.9066 89.2738 96.2302 92.1402 96.2302Z" fill="#7465AC"/>
<path d="M113.04 77.0402C113.055 77.9421 112.89 78.8378 112.555 79.6755C112.221 80.5131 111.723 81.276 111.092 81.9198C110.46 82.5636 109.707 83.0755 108.875 83.4258C108.044 83.776 107.152 83.9577 106.25 83.9602C104.459 83.8922 102.764 83.1328 101.521 81.8415C100.277 80.5503 99.583 78.8276 99.583 77.0352C99.583 75.2429 100.277 73.5202 101.521 72.2289C102.764 70.9377 104.459 70.1783 106.25 70.1102C107.153 70.1127 108.046 70.2947 108.878 70.6456C109.71 70.9965 110.463 71.5093 111.095 72.1542C111.727 72.7991 112.224 73.5631 112.558 74.4019C112.892 75.2407 113.056 76.1376 113.04 77.0402V77.0402Z" fill="#354F74"/>
<path d="M78.0196 111.99C81.8414 111.99 84.9396 108.892 84.9396 105.07C84.9396 101.248 81.8414 98.1503 78.0196 98.1503C74.1978 98.1503 71.0996 101.248 71.0996 105.07C71.0996 108.892 74.1978 111.99 78.0196 111.99Z" fill="#473B67"/>
<path d="M78.0196 83.9602C81.8414 83.9602 84.9396 80.862 84.9396 77.0402C84.9396 73.2184 81.8414 70.1202 78.0196 70.1202C74.1978 70.1202 71.0996 73.2184 71.0996 77.0402C71.0996 80.862 74.1978 83.9602 78.0196 83.9602Z" fill="#2F75BB"/>
<path d="M106.12 112.18C109.942 112.18 113.04 109.082 113.04 105.26C113.04 101.438 109.942 98.3402 106.12 98.3402C102.298 98.3402 99.2002 101.438 99.2002 105.26C99.2002 109.082 102.298 112.18 106.12 112.18Z" fill="#6DC0E5"/>
<defs>
<linearGradient id="paint0_linear" x1="89.9994" y1="9.28005" x2="89.9994" y2="180.68" gradientUnits="userSpaceOnUse">
<stop stop-color="#00AADD"/>
<stop offset="1" stop-color="#2E7BBE"/>
</linearGradient>
<linearGradient id="paint1_linear" x1="36.1196" y1="4.07003" x2="202.8" y2="286.4" gradientUnits="userSpaceOnUse">
<stop stop-color="#2E7BBE"/>
<stop offset="0.71" stop-color="#0A2D4B"/>
</linearGradient>
<linearGradient id="paint2_linear" x1="76.3692" y1="22.1502" x2="124.899" y2="122.281" gradientUnits="userSpaceOnUse">
<stop stop-color="#007ED8"/>
<stop offset="0.71" stop-color="#002D4C"/>
</linearGradient>
<linearGradient id="paint3_linear" x1="309989" y1="148365" x2="309989" y2="148205" gradientUnits="userSpaceOnUse">
<stop stop-color="#007ED8"/>
<stop offset="0.71" stop-color="#002D4C"/>
</linearGradient>
<linearGradient id="paint4_linear" x1="90.0193" y1="124.7" x2="90.0193" y2="58.8103" gradientUnits="userSpaceOnUse">
<stop stop-color="#D2EBFF"/>
<stop offset="1" stop-color="#F0FFFD"/>
</linearGradient>
<linearGradient id="paint5_linear" x1="89.9999" y1="49.0703" x2="89.9999" y2="60.0303" gradientUnits="userSpaceOnUse">
<stop stop-color="#0099BE"/>
<stop offset="1" stop-color="#006E97"/>
</linearGradient>
<linearGradient id="paint6_linear" x1="546184" y1="34507.5" x2="546184" y2="34470.4" gradientUnits="userSpaceOnUse">
<stop stop-color="#0099BE"/>
<stop offset="1" stop-color="#006E97"/>
</linearGradient>
<linearGradient id="paint7_linear" x1="90.0193" y1="124.7" x2="90.0193" y2="58.8103" gradientUnits="userSpaceOnUse">
<stop stop-color="#D2EBFF"/>
<stop offset="1" stop-color="#F0FFFD"/>
</linearGradient>
<linearGradient id="paint8_linear" x1="546508" y1="62857.5" x2="546508" y2="62737.1" gradientUnits="userSpaceOnUse">
<stop stop-color="#007ED8"/>
<stop offset="0.71" stop-color="#002D4C"/>
</linearGradient>
<linearGradient id="paint9_linear" x1="546184" y1="34507.5" x2="546184" y2="34470.4" gradientUnits="userSpaceOnUse">
<stop stop-color="#007ED8"/>
<stop offset="0.71" stop-color="#002D4C"/>
</linearGradient>
</defs>
</svg>
