<?xml version="1.0" encoding="UTF-8"?>
<svg width="100px" height="100px" viewBox="0 0 100 100" version="1.1" xmlns="http://www.w3.org/2000/svg" xmlns:xlink="http://www.w3.org/1999/xlink">
    <!-- Generator: Sketch 54.1 (76490) - https://sketchapp.com -->
    <title>Get modern with Windows 10 and Office 365 ProPlus in Microsoft 365/get-modern-overview</title>
    <desc>Created with Sketch.</desc>
    <defs>
        <rect id="path-1" x="0" y="0" width="96" height="96" rx="48"></rect>
        <filter x="-7.0%" y="-7.4%" width="114.0%" height="114.8%" filterUnits="objectBoundingBox" id="filter-3">
            <feOffset dx="0" dy="2" in="SourceAlpha" result="shadowOffsetOuter1"></feOffset>
            <feColorMatrix values="0 0 0 0 0   0 0 0 0 0   0 0 0 0 0  0 0 0 0.101316652 0" type="matrix" in="shadowOffsetOuter1" result="shadowMatrixOuter1"></feColorMatrix>
            <feMerge>
                <feMergeNode in="shadowMatrixOuter1"></feMergeNode>
                <feMergeNode in="SourceGraphic"></feMergeNode>
            </feMerge>
        </filter>
    </defs>
    <g id="Badges" stroke="none" stroke-width="1" fill="none" fill-rule="evenodd">
        <g id="Get-modern-with-Windows-10-and-Office-365-ProPlus-in-Microsoft-365-1" transform="translate(-50.000000, -260.000000)">
            <g id="Get-modern-with-Windows-10-and-Office-365-ProPlus-in-Microsoft-365/get-modern-overview" transform="translate(50.000000, 260.000000)">
                <g id="Mask" transform="translate(2.000000, 2.000000)">
                    <mask id="mask-2" fill="white">
                        <use xlink:href="#path-1"></use>
                    </mask>
                    <use id="BG" fill="#55A2FF" xlink:href="#path-1"></use>
                    <g id="Group-24" filter="url(#filter-3)" mask="url(#mask-2)">
                        <g transform="translate(19.500000, 21.000000)">
                            <path d="M28.6912307,4.4568902 L7.91893884,4.4568902 L7.91893884,4.4568902 L1.83050847,4.4568902 L1.83050847,4.53647752 L1.98968312,5.84966839 L2.06927045,6.48636699 L2.18865144,7.75976419 L4.41709654,28.8106116 L5.57111275,39.6742815 L5.80987472,42.0619013 L6.32719234,47.0759027 L7.08327192,54 L13.1717023,54 L10.9432572,32.8297716 L13.1717023,54 L28.6912307,54 L51.4929993,54 L52.0501105,47.0759027 L52.4480472,42.0619013 L52.6470155,39.6742815 L53.5224761,28.8106116 L53.5224761,28.651437 L53.5622697,27.9749447 L55.4325718,5.13338246 L55.4723655,4.4568902 L28.6912307,4.4568902 Z M8.11790715,6.44657332 L8.11790715,6.28739867 L8.15770081,6.6853353 L8.11790715,6.44657332 Z" id="Shape" stroke="none" fill="#8BA6B1" fill-rule="nonzero"></path>
                            <polygon id="Shape" stroke="none" fill="#8BA6B1" fill-rule="nonzero" points="13.1717023 53.9602063 7.08327192 53.9602063 6.32719234 47.0361091 5.80987472 42.0619013 5.57111275 39.6742815 4.41709654 28.8106116 2.18865144 7.75976419 2.02947679 6.44657332 1.98968312 5.84966839 1.83050847 4.49668386 1.83050847 4.4568902 7.91893884 4.4568902 7.91893884 4.49668386 8.07811349 5.84966839 8.11790715 6.44657332 8.2770818 7.75976419"></polygon>
                            <polygon id="Shape" stroke="none" fill="#ADBDC4" fill-rule="nonzero" points="28.6912307 4.4568902 28.6912307 53.9602063 13.1717023 53.9602063 7.91893884 4.4568902"></polygon>
                            <polygon id="Shape" stroke="none" fill="#30404D" fill-rule="nonzero" opacity="0.5" points="53.5224761 28.8106116 52.6470155 39.6742815 52.4480472 42.0619013 52.0501105 47.0361091 6.366986 47.0361091 5.80987472 42.0619013 5.57111275 39.6742815 4.41709654 28.8106116"></polygon>
                            <path d="M55.5121592,4.4568902 L55.5121592,4.53647752 L55.3927782,5.84966839 L53.5622697,27.9749447 C53.2439204,28.0545321 52.9255711,28.0943257 52.6072218,28.0943257 C50.7767133,28.0943257 49.3441415,26.6219602 49.3441415,24.8312454 L49.3441415,19.9764186 C48.9859985,18.5836404 47.6728077,17.5490052 46.2004422,17.5490052 C44.568902,17.5490052 43.2557111,18.7030214 42.9771555,20.2549742 C42.9373618,20.0560059 42.9373618,19.8570376 42.9373618,19.6580693 L42.9373618,27.1392778 C42.9373618,28.9697863 41.4649963,30.4023581 39.6742815,30.4023581 C38.1621223,30.4023581 36.8887251,29.3677229 36.5305822,27.9749447 L36.5305822,29.4473102 C36.5305822,31.2380251 35.0582167,32.7103906 33.2675018,32.7103906 C31.4369934,32.7103906 30.0044215,31.2380251 30.0044215,29.4473102 L30.0044215,16.036846 C30.0044215,15.917465 30.0044215,15.798084 30.0044215,15.678703 L30.0044215,15.678703 L30.0044215,4.4568902 L55.5121592,4.4568902 Z" id="Shape" stroke="none" fill="#629E3F" fill-rule="nonzero"></path>
                            <path d="M32.6705969,30.8002948 C31.9941046,30.5615328 31.5165807,29.9646279 31.5165807,29.2085483 L31.5165807,23.0007369 L31.5165807,15.2409727" id="Shape" stroke="#7CB65A" stroke-width="1.5" fill="none" stroke-linecap="round"></path>
                            <path d="M39.1967576,28.293294 C38.5202653,28.0545321 38.0427413,27.4576271 38.0427413,26.7015475 L38.0427413,20.4937362 L38.0427413,15.559322" id="Shape" stroke="#7CB65A" stroke-width="1.5" fill="none" stroke-linecap="round"></path>
                            <path d="M52.2490789,25.9056743 C51.5725866,25.6669123 51.0950626,25.0700074 51.0950626,24.3139278 L51.0950626,18.1061164 L51.0950626,15.1613854" id="Shape" stroke="#7CB65A" stroke-width="1.5" fill="none" stroke-linecap="round"></path>
                            <polygon id="Shape" stroke="none" fill-opacity="0.102354677" fill="#000000" fill-rule="nonzero" opacity="0.6" points="55.5121592 4.49668386 55.4325718 5.84966839 1.98968312 5.84966839 1.83050847 4.49668386"></polygon>
                            <polygon id="Shape" stroke="none" fill="#7CB65A" fill-rule="nonzero" points="55.5121592 4.49668386 55.4325718 5.84966839 29.9248342 5.84966839 29.9248342 4.49668386"></polygon>
                            <rect id="Rectangle-path" stroke="none" fill="#ADBDC4" fill-rule="nonzero" x="-8.52651283e-14" y="1.55195284" width="56.3478261" height="2.98452469"></rect>
                            <path d="M31.5165807,3.58142962 C31.5563744,3.42225497 31.5563744,3.22328666 31.5563744,3.06411201 C31.5563744,1.35298452 30.1635962,5.32907052e-14 28.4922623,5.32907052e-14 C26.7811349,5.32907052e-14 25.4281503,1.39277819 25.4281503,3.06411201 C25.4281503,3.26308032 25.4281503,3.42225497 25.467944,3.58142962 L31.5165807,3.58142962 Z" id="Shape" stroke="none" fill="#E0E0D3" fill-rule="nonzero"></path>
                            <path d="M28.412675,4.21812822 L28.412675,4.21812822 C27.6168018,4.21812822 26.9801032,3.58142962 26.9801032,2.78555637 L26.9801032,2.78555637 C26.9801032,1.98968312 27.6168018,1.35298452 28.412675,1.35298452 L28.412675,1.35298452 C29.2085483,1.35298452 29.8452469,1.98968312 29.8452469,2.78555637 L29.8452469,2.78555637 C29.8452469,3.54163596 29.2085483,4.21812822 28.412675,4.21812822 Z" id="Shape" stroke="none" fill="#A8A68F" fill-rule="nonzero" opacity="0.6"></path>
                            <path d="M2.78555637,23.3588799 C2.50700074,23.3588799 2.18865144,23.2394989 1.98968312,22.9609433 C1.67133382,22.523213 1.75092115,21.8865144 2.18865144,21.5681651 L27.7361828,1.98968312 C28.173913,1.67133382 28.8106116,1.75092115 29.1289609,2.18865144 C29.4473102,2.62638172 29.3677229,3.26308032 28.9299926,3.58142962 L3.38246131,23.1599116 C3.183493,23.2792926 2.98452469,23.3588799 2.78555637,23.3588799 Z" id="Shape" stroke="none" fill="#231F20" fill-rule="nonzero"></path>
                        </g>
                    </g>
                </g>
                <g id="Azure-Border" stroke="#0078D4" stroke-width="4">
                    <rect x="2" y="2" width="96" height="96" rx="48"></rect>
                </g>
            </g>
        </g>
    </g>
</svg>