<svg width="103" height="103" viewBox="0 0 103 103" fill="none" xmlns="http://www.w3.org/2000/svg">
<path d="M51.2141 98.6839C77.0665 98.6839 98.02 77.7304 98.02 51.878C98.02 26.0256 77.0665 5.07208 51.2141 5.07208C25.3617 5.07208 4.4082 26.0256 4.4082 51.878C4.4082 77.7304 25.3617 98.6839 51.2141 98.6839Z" fill="url(#paint0_linear)"/>
<path fill-rule="evenodd" clip-rule="evenodd" d="M51.2139 1.87805C23.6005 1.87805 1.21387 24.2647 1.21387 51.8781C1.21387 79.4914 23.6005 101.878 51.2139 101.878C78.8272 101.878 101.214 79.4914 101.214 51.8781C101.214 24.2647 78.8272 1.87805 51.2139 1.87805ZM51.2139 97.6349C25.9422 97.6349 5.45703 77.1497 5.45703 51.8781C5.45703 26.6064 25.9422 6.12121 51.2139 6.12121C76.4855 6.12121 96.9707 26.6064 96.9707 51.8781C96.9707 77.1497 76.4855 97.6349 51.2139 97.6349Z" fill="#D9D9D9"/>
<path fill-rule="evenodd" clip-rule="evenodd" d="M5.31655 51.8781C5.31655 77.2246 25.8673 97.7754 51.2139 97.7754C76.5605 97.7754 97.1112 77.2246 97.1112 51.8781C97.1112 26.5315 76.5605 5.98073 51.2139 5.98073C25.8673 5.98073 5.31655 26.5315 5.31655 51.8781ZM51.2139 2.23401C23.7973 2.23401 1.56982 24.4614 1.56982 51.8781C1.56982 79.2947 23.7973 101.522 51.2139 101.522C78.6305 101.522 100.858 79.2947 100.858 51.8781C100.858 24.4614 78.6305 2.23401 51.2139 2.23401Z" fill="#F2F1F0"/>
<path fill-rule="evenodd" clip-rule="evenodd" d="M8.1266 51.878C8.1266 75.6791 27.4129 94.9653 51.2139 94.9653C75.0149 94.9653 94.3012 75.6791 94.3012 51.878C94.3012 28.077 75.0149 8.79073 51.2139 8.79073C27.4129 8.79073 8.1266 28.077 8.1266 51.878ZM51.2139 5.04401C25.3522 5.04401 4.37988 26.0163 4.37988 51.878C4.37988 77.7398 25.3522 98.712 51.2139 98.712C77.0756 98.712 98.0479 77.7398 98.0479 51.878C98.0479 26.0163 77.085 5.04401 51.2139 5.04401Z" fill="#0078D4"/>
<path d="M20.9498 28.2269H83.2297C85.2154 28.2269 86.8172 29.838 86.8172 31.8144V67.7454C86.8172 69.7312 85.2061 71.3329 83.2297 71.3329H20.9498C18.964 71.3329 17.3623 69.7218 17.3623 67.7454V31.8144C17.3623 29.838 18.9734 28.2269 20.9498 28.2269Z" fill="url(#paint1_linear)" stroke="#A3A3A3" stroke-width="1.6164"/>
<path opacity="0.15" d="M20.9498 30.1002H83.2297C85.2154 30.1002 86.8172 31.7113 86.8172 33.6877V69.6188C86.8172 71.6045 85.2061 73.2063 83.2297 73.2063H20.9498C18.964 73.2063 17.3623 71.5952 17.3623 69.6188V33.6877C17.3623 31.7113 18.9734 30.1002 20.9498 30.1002Z" fill="#1F1D20"/>
<path opacity="0.15" d="M76.6167 77.7023L49.9494 93.1669C49.4248 93.476 48.7692 93.476 48.2352 93.1669L21.6148 77.7023C21.0809 77.3932 21.0809 76.6252 21.6148 76.3067L48.8909 60.3831L76.626 76.3067C77.1506 76.6158 77.1506 77.3932 76.6167 77.7023Z" fill="#1F1D20"/>
<path d="M77.2161 75.7541L49.5934 91.3311C49.303 91.4997 48.8908 91.4997 48.6005 91.3311L20.7998 75.7541C20.3408 75.5105 20.3408 74.8361 20.7998 74.5457L48.8908 57.723L77.2254 74.5457C77.675 74.8361 77.675 75.5105 77.2161 75.7541Z" fill="#175A98"/>
<path opacity="0.15" d="M73.7504 72.4382L49.8932 86.3948C49.4155 86.6758 48.8253 86.6758 48.3476 86.4041L24.2188 72.7099L49.7527 58.566L73.7504 72.4382Z" fill="#1F1D20"/>
<path d="M77.2161 68.9256L49.5934 84.512C49.303 84.6806 48.8908 84.6806 48.6005 84.512L20.7998 68.9256C20.3408 68.6821 20.3408 68.0077 20.7998 67.7173L48.8908 50.8945L77.2254 67.7267C77.675 68.017 77.675 68.6821 77.2161 68.9256Z" fill="#2E76BC"/>
<path opacity="0.15" d="M72.6264 65.207L50.1273 77.8429C49.556 78.1613 48.8535 78.1613 48.2915 77.8335L25.8018 64.7481L49.6403 51.569L72.6264 65.207Z" fill="#1F1D20"/>
<path d="M77.3 59.9054L49.668 75.4918C49.3401 75.6604 48.9655 75.6604 48.6751 75.4918L20.8838 59.1186C20.4248 58.8657 20.4248 58.2006 20.8838 57.9103L49.0123 41.5839L77.3469 58.6971C77.759 58.9968 77.759 59.6619 77.3 59.9054Z" fill="#35AFE4"/>
<path opacity="0.15" d="M70.7435 54.8474L50.558 66.5372C49.7338 67.0149 48.7034 67.0055 47.8885 66.5091C45.9777 65.3476 42.4183 63.137 39.8331 61.1981C33.0515 55.4188 30.6255 52.2622 30.6255 52.2622L33.4449 50.623L48.7128 41.5746L70.7435 54.8474Z" fill="#1F1D20"/>
<path d="M49.5934 64.1486C49.2656 64.3172 48.8909 64.3172 48.6005 64.1486C45.4627 62.7248 40.6388 58.388 38.3158 55.8309C34.1476 51.8031 31.5998 46.6514 28.9302 41.6683C26.5417 37.0692 24.659 31.7582 23.7129 28.9575C23.4975 28.3112 23.7691 27.5993 24.3686 27.2621L49.9213 12.8934C50.6238 12.4907 51.523 12.8466 51.7665 13.624C52.6751 16.4997 53.8178 19.6844 55.9254 24.7331C57.958 29.0699 60.7024 33.8938 65.7043 39.0268C68.9827 42.3989 74.1157 45.4712 77.188 47.4195C77.647 47.7098 77.6095 48.3374 77.1412 48.6278L49.5934 64.1486Z" fill="#74CFEB"/>
<path d="M39.562 25.5761C39.562 25.5761 40.3769 28.1707 41.3511 30.3344C42.4095 32.6761 43.4773 34.6713 43.4773 34.6713L34.9817 39.4483C34.9817 39.4483 33.9232 37.4532 32.7711 35.3363C31.7126 32.8167 30.8696 30.3813 30.8696 30.3813L39.562 25.5761Z" fill="#F65212"/>
<path d="M40.2271 25.2108L44.236 34.0905L51.8044 29.9317C51.8044 29.9317 50.4743 27.4963 49.5939 25.2857C48.7134 23.0752 48.1795 20.7709 48.1795 20.7709L40.2271 25.2108Z" fill="#7FBE00"/>
<path d="M43.8798 35.4207C43.8798 35.4207 45.0039 37.7249 45.9124 39.0456C46.821 40.3757 48.8349 43.1202 48.8349 43.1202L40.386 48.2532C40.4516 48.4499 38.8967 46.3236 37.6884 44.4877C36.7517 43.0827 35.3467 40.3289 35.3467 40.3289L43.8798 35.4207Z" fill="#00A4F3"/>
<path d="M44.7231 35.0272L52.2447 30.7372C52.2447 30.7372 53.734 33.1258 54.858 34.8024C55.9727 36.4791 57.2653 38.0153 57.2653 38.0153L49.6313 42.4645C49.6313 42.4645 47.3833 39.5889 46.6152 38.3337C45.8472 37.0786 44.7231 35.0272 44.7231 35.0272Z" fill="#FFBB00"/>
<path d="M83.68 62.5375L83.7081 78.0958L72.2244 84.8118L72.1963 69.2535L83.68 62.5375Z" fill="#182A37"/>
<path d="M75.7742 78.0677C75.7742 78.0958 75.7742 78.1333 75.7742 78.1614C75.7742 78.5735 75.4932 79.0419 75.1466 79.2292C74.8 79.4165 74.519 79.2573 74.519 78.8826C74.519 78.4798 74.8 78.0021 75.1466 77.8148C75.4651 77.6556 75.7086 77.7492 75.7742 78.0677Z" fill="white"/>
<path d="M78.6961 76.4004C78.6961 76.4285 78.6961 76.4659 78.6961 76.494C78.6961 76.9062 78.4151 77.3745 78.0685 77.5618C77.7219 77.7492 77.4409 77.5899 77.4409 77.2153C77.4409 77.1872 77.4409 77.1216 77.4409 77.0935C77.469 76.7188 77.7219 76.3442 78.0404 76.1568C78.3495 75.9695 78.6024 76.0912 78.6961 76.4004Z" fill="white"/>
<path d="M80.9256 74.4896C81.2722 74.3022 81.5532 74.4615 81.5813 74.8362C81.5813 75.2483 81.3003 75.7166 80.9537 75.904C80.6072 76.0913 80.3262 75.9321 80.3262 75.5574C80.3262 75.5293 80.3262 75.4637 80.3262 75.4356C80.3543 75.0516 80.6072 74.6769 80.9256 74.4896C80.9537 74.4896 80.9256 74.4896 80.9256 74.4896Z" fill="white"/>
<path d="M78.6314 69.6938C78.6314 69.7219 78.6314 69.7219 78.6314 69.7593C78.6314 70.134 78.3503 70.5743 78.0319 70.7616C77.6853 70.9489 77.4324 70.8272 77.4043 70.4806C77.4043 70.4525 77.4043 70.4525 77.4043 70.415C77.4043 70.0029 77.6853 69.5345 78.0319 69.3472C78.3503 69.1599 78.6314 69.3097 78.6314 69.6938Z" fill="white"/>
<path d="M74.6782 78.6672L74.8 78.6016C74.7438 78.5735 74.6782 78.6016 74.6782 78.6672Z" stroke="white" stroke-width="0.3088" stroke-miterlimit="10"/>
<path d="M80.9257 68.4012L75.1558 71.7264V78.3768L80.9257 75.0516V68.4012Z" stroke="white" stroke-width="0.4" stroke-miterlimit="10"/>
<path d="M81.5156 71.4172C81.5156 71.8293 81.2627 72.2977 80.9161 72.485C80.5696 72.6724 80.2886 72.5131 80.2886 72.1385C80.2886 71.7263 80.5696 71.258 80.9161 71.0706C81.2627 70.8833 81.5531 71.0425 81.5156 71.4172Z" fill="#76CFEB"/>
<path d="M75.7178 71.3517C75.7178 71.3798 75.7178 71.3798 75.7178 71.4173C75.6897 71.792 75.4368 72.2322 75.1183 72.4195C74.7717 72.6069 74.4907 72.4476 74.4907 72.073C74.4907 71.6608 74.7717 71.1925 75.1183 71.0052C75.4649 70.8178 75.7459 70.977 75.7178 71.3517Z" fill="white"/>
<path d="M81.5156 68.0265C81.5156 68.4011 81.2627 68.8695 80.9161 69.0943C80.5696 69.2816 80.3167 69.1599 80.2886 68.8133C80.2886 68.7852 80.2886 68.7852 80.2886 68.7477C80.2886 68.3356 80.5696 67.8672 80.9161 67.6799C81.2346 67.4645 81.5156 67.6237 81.5156 68.0265Z" fill="white"/>
<path d="M78.6595 73.0752C78.6595 73.4873 78.3784 73.9557 78.0319 74.143C77.6853 74.3303 77.4043 74.1711 77.4043 73.7964C77.4043 73.3843 77.6853 72.9159 78.0319 72.7286C78.3784 72.5413 78.6314 72.7005 78.6595 73.0752Z" fill="#76CFEB"/>
<path d="M75.1466 74.424C75.4932 74.1992 75.7461 74.3584 75.7461 74.7705C75.7461 75.1827 75.4932 75.651 75.1466 75.8384C74.8 76.0257 74.519 75.8665 74.519 75.4918C74.519 75.089 74.8 74.6113 75.1466 74.424C75.1466 74.3959 75.1466 74.3959 75.1466 74.424Z" fill="#76CFEB"/>
<path opacity="0.1" d="M72.196 85.6548L69.4702 84.3997L80.9258 77.6837L83.689 78.9388L72.196 85.6548Z" fill="#1F1D20"/>
<path d="M72.2334 84.8118L69.4983 83.5566L69.4702 67.9984L72.196 69.2535L72.2334 84.8118Z" fill="#30404D"/>
<path d="M72.196 69.2535L69.4702 67.9983L80.9258 61.2823L83.689 62.5375L72.196 69.2535Z" fill="#546670"/>
<path d="M71.9521 61.3479C71.9802 61.3479 71.9803 61.3198 71.9803 61.3198C71.9522 61.3479 71.9521 61.3479 71.9521 61.3479Z" fill="#2F78BC"/>
<path d="M80.5136 63.3244C80.7759 63.4461 81.263 63.4649 81.5346 63.3712C81.8062 63.2775 81.8343 63.1839 81.8343 63.1839C81.8343 63.1839 81.9186 59.9148 81.9186 59.7743C81.9186 59.6338 81.6845 58.182 81.6095 58.0321C81.5252 57.8823 80.7478 56.9362 80.7478 56.9362L78.7339 56.318L76.1955 57.4982L73.9381 59.6057L72.4675 63.2869L72.2896 66.5653L72.8141 68.2138C72.8141 68.2138 72.8516 68.1764 72.9171 68.167C72.9827 68.1483 73.1607 67.9516 73.1607 67.9516C73.1607 67.9516 73.0389 65.2446 73.1232 64.4858C73.2075 63.7271 73.4791 62.0036 74.9123 60.0366C76.3454 58.0696 77.638 57.4233 78.7526 57.4045C79.8673 57.3858 80.2326 58.5098 80.2326 59.0437C80.2326 59.5776 80.1951 62.9965 80.1858 63.0153C80.1577 63.034 80.2607 63.2026 80.5136 63.3244Z" fill="#C5CCCD"/>
<path d="M81.7406 63.2869C81.7406 63.2869 81.8061 59.9148 81.7312 59.1936C81.6563 58.463 81.2629 57.4139 80.2325 57.0111C79.2022 56.6083 78.1999 56.9081 77.3382 57.3951C76.4764 57.8822 75.5772 58.463 74.3033 60.3551C73.0294 62.2472 72.8234 64.439 72.8234 64.9635C72.8234 65.4881 72.8234 68.2044 72.8234 68.2044C72.8234 68.2044 72.7672 68.27 72.711 68.27C72.6548 68.27 72.2801 68.4011 71.7836 68.3075C71.2778 68.2138 71.1748 67.8017 71.1748 67.8017C71.1748 67.8017 71.1748 65.7878 71.1748 64.7575C71.1748 63.7365 71.4183 62.6031 71.9241 61.3386C72.43 60.0741 74.0691 57.4888 75.7364 56.5802C77.4037 55.6717 77.8908 55.297 79.8766 55.8122C81.853 56.3273 82.0309 58.8002 82.0309 59.3996C82.0309 59.9991 82.0309 62.9778 82.0309 62.9778C81.9279 63.2775 81.7406 63.2869 81.7406 63.2869Z" fill="#C5CCCD"/>
<defs>
<linearGradient id="paint0_linear" x1="52.9844" y1="-12.9148" x2="49.0017" y2="132.853" gradientUnits="userSpaceOnUse">
<stop stop-color="#00ABDE"/>
<stop offset="1" stop-color="#007ED8"/>
</linearGradient>
<linearGradient id="paint1_linear" x1="52.0868" y1="28.2313" x2="52.0868" y2="71.3378" gradientUnits="userSpaceOnUse">
<stop stop-color="#555559"/>
<stop offset="1" stop-color="#2E2E33"/>
</linearGradient>
</defs>
</svg>
