<?xml version="1.0" encoding="UTF-8"?>
<svg width="102px" height="102px" viewBox="0 0 102 102" version="1.1" xmlns="http://www.w3.org/2000/svg" xmlns:xlink="http://www.w3.org/1999/xlink">
    <title>Information Protection and Governance in Microsoft 365/govern-information-in-microsoft-365</title>
    <defs>
        <rect id="path-1" x="0" y="0" width="94.3396226" height="94.3396226" rx="47.1698113"></rect>
        <filter x="-2.9%" y="-2.9%" width="106.4%" height="106.4%" filterUnits="objectBoundingBox" id="filter-3">
            <feMorphology radius="2.5" operator="dilate" in="SourceAlpha" result="shadowSpreadOuter1"></feMorphology>
            <feOffset dx="0.5" dy="0.5" in="shadowSpreadOuter1" result="shadowOffsetOuter1"></feOffset>
            <feMorphology radius="1" operator="erode" in="SourceAlpha" result="shadowInner"></feMorphology>
            <feOffset dx="0.5" dy="0.5" in="shadowInner" result="shadowInner"></feOffset>
            <feComposite in="shadowOffsetOuter1" in2="shadowInner" operator="out" result="shadowOffsetOuter1"></feComposite>
            <feColorMatrix values="0 0 0 0 0.821822822   0 0 0 0 0.831640661   0 0 0 0 0.835737288  0 0 0 1 0" type="matrix" in="shadowOffsetOuter1"></feColorMatrix>
        </filter>
        <linearGradient x1="77.8299825%" y1="11.1997378%" x2="-99.6885927%" y2="253.807911%" id="linearGradient-4">
            <stop stop-color="#FFFFFF" offset="0%"></stop>
            <stop stop-color="#000000" stop-opacity="0.5" offset="100%"></stop>
        </linearGradient>
        <rect id="path-5" x="0" y="0" width="94.3396226" height="94.3396226"></rect>
        <path d="M48.1132075,0.739331515 C74.2770768,0.739331515 95.4870836,21.9493383 95.4870836,48.1132075 C95.4870836,74.2770768 74.2770768,95.4870836 48.1132075,95.4870836 C21.9493383,95.4870836 0.739331515,74.2770768 0.739331515,48.1132075 C0.739331515,21.9493383 21.9493383,0.739331515 48.1132075,0.739331515 Z M48.1132075,4.71698113 C24.1461335,4.71698113 4.71698113,24.1461335 4.71698113,48.1132075 C4.71698113,72.0802816 24.1461335,91.509434 48.1132075,91.509434 C72.0802816,91.509434 91.509434,72.0802816 91.509434,48.1132075 C91.509434,24.1461335 72.0802816,4.71698113 48.1132075,4.71698113 Z" id="path-6"></path>
        <filter x="-52.2%" y="-30.0%" width="208.7%" height="160.0%" filterUnits="objectBoundingBox" id="filter-8">
            <feOffset dx="0" dy="2" in="SourceAlpha" result="shadowOffsetOuter1"></feOffset>
            <feGaussianBlur stdDeviation="2" in="shadowOffsetOuter1" result="shadowBlurOuter1"></feGaussianBlur>
            <feColorMatrix values="0 0 0 0 0   0 0 0 0 0   0 0 0 0 0  0 0 0 0.102921196 0" type="matrix" in="shadowBlurOuter1" result="shadowMatrixOuter1"></feColorMatrix>
            <feMerge>
                <feMergeNode in="shadowMatrixOuter1"></feMergeNode>
                <feMergeNode in="SourceGraphic"></feMergeNode>
            </feMerge>
        </filter>
        <linearGradient x1="50%" y1="0%" x2="50%" y2="100%" id="linearGradient-9">
            <stop stop-color="#ECD3BA" offset="0%"></stop>
            <stop stop-color="#D4A884" offset="100%"></stop>
        </linearGradient>
        <linearGradient x1="50%" y1="0%" x2="50%" y2="100%" id="linearGradient-10">
            <stop stop-color="#EBC198" offset="0%"></stop>
            <stop stop-color="#BF997B" offset="100%"></stop>
        </linearGradient>
        <linearGradient x1="50%" y1="0%" x2="50%" y2="100%" id="linearGradient-11">
            <stop stop-color="#EBC198" offset="0%"></stop>
            <stop stop-color="#BF997B" offset="100%"></stop>
        </linearGradient>
        <linearGradient x1="50%" y1="0%" x2="50%" y2="100%" id="linearGradient-12">
            <stop stop-color="#F2F3F2" offset="0%"></stop>
            <stop stop-color="#E1E4E1" offset="100%"></stop>
        </linearGradient>
        <linearGradient x1="50%" y1="0%" x2="50%" y2="100%" id="linearGradient-13">
            <stop stop-color="#AEC6D0" offset="0%"></stop>
            <stop stop-color="#7694A3" offset="100%"></stop>
        </linearGradient>
        <linearGradient x1="50%" y1="0.411739865%" x2="50%" y2="100%" id="linearGradient-14">
            <stop stop-color="#CCA47C" offset="0%"></stop>
            <stop stop-color="#A47F61" offset="100%"></stop>
        </linearGradient>
        <filter x="-52.2%" y="-30.0%" width="208.7%" height="160.0%" filterUnits="objectBoundingBox" id="filter-15">
            <feOffset dx="0" dy="2" in="SourceAlpha" result="shadowOffsetOuter1"></feOffset>
            <feGaussianBlur stdDeviation="2" in="shadowOffsetOuter1" result="shadowBlurOuter1"></feGaussianBlur>
            <feColorMatrix values="0 0 0 0 0   0 0 0 0 0   0 0 0 0 0  0 0 0 0.102921196 0" type="matrix" in="shadowBlurOuter1" result="shadowMatrixOuter1"></feColorMatrix>
            <feMerge>
                <feMergeNode in="shadowMatrixOuter1"></feMergeNode>
                <feMergeNode in="SourceGraphic"></feMergeNode>
            </feMerge>
        </filter>
        <linearGradient x1="50%" y1="100%" x2="50%" y2="0%" id="linearGradient-16">
            <stop stop-color="#D2EBFF" offset="0%"></stop>
            <stop stop-color="#F0FFFD" offset="100%"></stop>
        </linearGradient>
    </defs>
    <g id="Badges" stroke="none" stroke-width="1" fill="none" fill-rule="evenodd">
        <g id="Information-Protection-and-Governance-in-Microsoft-365" transform="translate(-159.000000, -509.000000)">
            <g id="Information-Protection-and-Governance-in-Microsoft-365/govern-information-in-microsoft-365" transform="translate(160.000000, 510.000000)">
                <g id="Badge-Plates/Circle">
                    <g id="BG" transform="translate(2.830189, 2.830189)">
                        <mask id="mask-2" fill="white">
                            <use xlink:href="#path-1"></use>
                        </mask>
                        <g>
                            <use fill="black" fill-opacity="1" filter="url(#filter-3)" xlink:href="#path-1"></use>
                            <rect stroke="#F2F1F0" stroke-width="2.5" x="-1.25" y="-1.25" width="96.8396226" height="96.8396226" rx="48.4198113"></rect>
                        </g>
                        <g id="Colors/Microsoft-365/BG-Solid-Badge" mask="url(#mask-2)">
                            <g id="Rectangle">
                                <use fill="#0078D4" xlink:href="#path-5"></use>
                                <use fill-opacity="0.4" fill="url(#linearGradient-4)" xlink:href="#path-5"></use>
                            </g>
                        </g>
                    </g>
                    <g id="Border" transform="translate(1.886792, 1.886792)">
                        <mask id="mask-7" fill="white">
                            <use xlink:href="#path-6"></use>
                        </mask>
                        <use id="Boarder" fill="#0078D4" fill-rule="nonzero" xlink:href="#path-6"></use>
                        <g id="Colors/Microsoft-365/Border" mask="url(#mask-7)" fill="#0076D7">
                            <g transform="translate(-1.886792, -1.886792)" id="Microsoft-365/Border">
                                <rect x="0" y="0" width="100" height="100"></rect>
                            </g>
                        </g>
                    </g>
                </g>
                <g id="Giving" filter="url(#filter-8)" transform="translate(54.000000, 39.000000)">
                    <path d="M5.35775,21.1874282 L13.1576667,13.5750426 C14.58675,12.1792597 16.90225,12.1774702 18.3340833,13.5678848 C18.4385833,12.7545728 18.5,11.9367871 18.5,11.117212 L18.5,2.83646116 C18.5,1.38252058 19.6146667,0.0797898127 21.1024167,0.00373753592 C22.68825,-0.0767884042 24,1.15436375 24,2.68435661 L24,17.9476012 C24,20.3320638 22.9531667,22.6028953 21.1253333,24.1847826 L15.5675833,28.993076 C14.5170833,29.9012296 13.9166667,31.2048551 13.9166667,32.5737961 L13.9166667,34 L2,34 L2,29.1004439 C2,26.1317209 3.20816667,23.2855763 5.35775,21.1874282" id="Fill-121" fill="url(#linearGradient-9)"></path>
                    <path d="M12.0833333,31.6283429 L12.0833333,31.6283429 C12.0833333,30.2294857 12.68375,28.8973714 13.73425,27.9693714 L19.292,23.056 C21.1198333,21.4395429 22.1666667,19.1190857 22.1666667,16.6825143 L22.1666667,2.91428571 C22.1666667,2.4096 22.5773333,2 23.0833333,2 C23.5893333,2 24,2.4096 24,2.91428571 L24,17.5968 C24,20.0333714 22.9531667,22.3538286 21.1253333,23.9702857 L15.5675833,28.8836571 C14.5170833,29.8116571 13.9166667,31.1437714 13.9166667,32.5426286 L13.9166667,34 L2,34 C2.58666667,33.4148571 3.38325,33.0857143 4.21283333,33.0857143 L10.6221667,33.0857143 C11.4288333,33.0857143 12.0833333,32.4329143 12.0833333,31.6283429" id="Fill-122" fill="url(#linearGradient-10)"></path>
                    <path d="M15.5467458,17.7390542 C16.527999,16.8265072 17.0171129,15.3249781 15.8079427,13.9697567 C15.0596488,13.1303636 16.61372,12.5554496 17.2762929,13.4539285 C17.351929,13.5561563 17.4265567,13.6705764 17.5001759,13.7981266 C18.4310051,15.4093864 18.0175273,17.4117377 16.6268303,18.7050597 L11.2859081,23.7901881 C10.9984907,24.0640459 10.5255125,24.070611 10.2290187,23.805194 C9.93050796,23.5360254 9.92244011,23.093351 10.212883,22.8166795 L15.5467458,17.7390542" id="Fill-123" fill="url(#linearGradient-11)"></path>
                    <path d="M14,36 L14,40 L0,40 L0,36 C0,34.895 0.737882353,34 1.64705882,34 L12.3529412,34 C13.2629412,34 14,34.895 14,36" id="Fill-124" fill="url(#linearGradient-12)"></path>
                    <path d="M3,36 C3.552,36 4,36.448 4,37 C4,37.552 3.552,38 3,38 C2.448,38 2,37.552 2,37 C2,36.448 2.448,36 3,36" id="Fill-126" fill="url(#linearGradient-13)"></path>
                    <path d="M12.2290568,17.3334147 L13.3335286,18.7137349 C13.6381566,19.0954217 14.1325913,19.0954217 14.4380004,18.7137349 L15.5424722,17.3334147 C16.1525093,16.5710172 16.1525093,15.3341956 15.5424722,14.5717981 C14.9324351,13.8094006 13.9435657,13.8094006 13.3335286,14.5717981 L12.2290568,15.9530945 C11.9236477,16.3338052 11.9236477,16.9517278 12.2290568,17.3334147" id="Fill-127" fill="url(#linearGradient-14)"></path>
                    <path d="M13.3210252,17.6791372 C13.760016,18.1182326 14.0076318,18.6245206 13.9998206,18.9878292 C13.7592349,19.0284572 13.5061512,18.9690778 13.3210252,18.7839076 L12.216518,17.6791372 C12.0306109,17.493967 11.9720267,17.2400417 12.011864,17.00018 C12.375867,16.9923669 12.8812533,17.2392604 13.3210252,17.6791372" id="Fill-128" fill="#D9B090"></path>
                </g>
                <g id="Giving" filter="url(#filter-15)" transform="translate(34.500000, 59.000000) scale(-1, 1) translate(-34.500000, -59.000000) translate(23.000000, 39.000000)">
                    <path d="M5.35775,21.1874282 L13.1576667,13.5750426 C14.58675,12.1792597 16.90225,12.1774702 18.3340833,13.5678848 C18.4385833,12.7545728 18.5,11.9367871 18.5,11.117212 L18.5,2.83646116 C18.5,1.38252058 19.6146667,0.0797898127 21.1024167,0.00373753592 C22.68825,-0.0767884042 24,1.15436375 24,2.68435661 L24,17.9476012 C24,20.3320638 22.9531667,22.6028953 21.1253333,24.1847826 L15.5675833,28.993076 C14.5170833,29.9012296 13.9166667,31.2048551 13.9166667,32.5737961 L13.9166667,34 L2,34 L2,29.1004439 C2,26.1317209 3.20816667,23.2855763 5.35775,21.1874282" id="Fill-121" fill="url(#linearGradient-9)"></path>
                    <path d="M12.0833333,31.6283429 L12.0833333,31.6283429 C12.0833333,30.2294857 12.68375,28.8973714 13.73425,27.9693714 L19.292,23.056 C21.1198333,21.4395429 22.1666667,19.1190857 22.1666667,16.6825143 L22.1666667,2.91428571 C22.1666667,2.4096 22.5773333,2 23.0833333,2 C23.5893333,2 24,2.4096 24,2.91428571 L24,17.5968 C24,20.0333714 22.9531667,22.3538286 21.1253333,23.9702857 L15.5675833,28.8836571 C14.5170833,29.8116571 13.9166667,31.1437714 13.9166667,32.5426286 L13.9166667,34 L2,34 C2.58666667,33.4148571 3.38325,33.0857143 4.21283333,33.0857143 L10.6221667,33.0857143 C11.4288333,33.0857143 12.0833333,32.4329143 12.0833333,31.6283429" id="Fill-122" fill="url(#linearGradient-10)"></path>
                    <path d="M15.5467458,17.7390542 C16.527999,16.8265072 17.0171129,15.3249781 15.8079427,13.9697567 C15.0596488,13.1303636 16.61372,12.5554496 17.2762929,13.4539285 C17.351929,13.5561563 17.4265567,13.6705764 17.5001759,13.7981266 C18.4310051,15.4093864 18.0175273,17.4117377 16.6268303,18.7050597 L11.2859081,23.7901881 C10.9984907,24.0640459 10.5255125,24.070611 10.2290187,23.805194 C9.93050796,23.5360254 9.92244011,23.093351 10.212883,22.8166795 L15.5467458,17.7390542" id="Fill-123" fill="url(#linearGradient-11)"></path>
                    <path d="M14,36 L14,40 L0,40 L0,36 C0,34.895 0.737882353,34 1.64705882,34 L12.3529412,34 C13.2629412,34 14,34.895 14,36" id="Fill-124" fill="url(#linearGradient-12)"></path>
                    <path d="M3,36 C3.552,36 4,36.448 4,37 C4,37.552 3.552,38 3,38 C2.448,38 2,37.552 2,37 C2,36.448 2.448,36 3,36" id="Fill-126" fill="url(#linearGradient-13)"></path>
                    <path d="M12.2290568,17.3334147 L13.3335286,18.7137349 C13.6381566,19.0954217 14.1325913,19.0954217 14.4380004,18.7137349 L15.5424722,17.3334147 C16.1525093,16.5710172 16.1525093,15.3341956 15.5424722,14.5717981 C14.9324351,13.8094006 13.9435657,13.8094006 13.3335286,14.5717981 L12.2290568,15.9530945 C11.9236477,16.3338052 11.9236477,16.9517278 12.2290568,17.3334147" id="Fill-127" fill="url(#linearGradient-14)"></path>
                    <path d="M13.3210252,17.6791372 C13.760016,18.1182326 14.0076318,18.6245206 13.9998206,18.9878292 C13.7592349,19.0284572 13.5061512,18.9690778 13.3210252,18.7839076 L12.216518,17.6791372 C12.0306109,17.493967 11.9720267,17.2400417 12.011864,17.00018 C12.375867,16.9923669 12.8812533,17.2392604 13.3210252,17.6791372" id="Fill-128" fill="#D9B090"></path>
                </g>
                <g id="Group-18" transform="translate(37.000000, 18.000000)">
                    <g id="Group">
                        <path d="M15.2978104,0.0289115646 L1.28929551,0.0289115646 C0.675955754,0.0289115646 0.178745645,0.506322214 0.178745645,1.0952381 L0.178745645,29.9047619 C0.178745645,30.4936778 0.675955754,30.9710884 1.28929551,30.9710884 L25.4096592,30.9710884 C26.0229989,30.9710884 26.5202091,30.4936778 26.5202091,29.9047619 L26.5202091,10.8418367 C26.5202091,10.2529209 26.0229989,9.7755102 25.4096592,9.7755102 L17.4020102,9.7755102 C16.7994308,9.7755102 16.3109437,9.30647518 16.3109437,8.72789116 L16.3109437,1.0952381 C16.3227943,0.537479381 15.8773463,0.068643707 15.2978104,0.0289115646 Z" id="Path" fill="url(#linearGradient-16)" fill-rule="nonzero"></path>
                        <ellipse id="Oval" fill="#83B9F9" cx="5.76219512" cy="16.9744898" rx="1.15243902" ry="1.10714286"></ellipse>
                        <ellipse id="Oval" fill="#83B9F9" cx="5.76219512" cy="21.0867347" rx="1.15243902" ry="1.10714286"></ellipse>
                        <ellipse id="Oval" fill="#83B9F9" cx="5.76219512" cy="25.5153061" rx="1.15243902" ry="1.10714286"></ellipse>
                        <path d="M26.6707317,10.4387755 L15.804878,0 L15.804878,8.45798319 C15.804878,9.55194458 16.7227664,10.4387755 17.8550391,10.4387755 L26.6707317,10.4387755 Z" id="Path" fill="#92C4FC" fill-rule="nonzero"></path>
                    </g>
                    <path d="M22.0783434,16 L10.8499094,16 C10.4437545,16 10.1145008,16.3214768 10.1145008,16.7180385 C10.1145008,17.1146003 10.4437545,17.4360771 10.8499094,17.4360771 L22.1500906,17.4360771 C22.5562455,17.4360771 22.8854992,17.1146003 22.8854992,16.7180385 C22.8854992,16.3214768 22.5562455,16 22.1500906,16 L22.0783434,16 Z M22.0783434,20.2732049 L10.8499094,20.2732049 C10.563132,20.229071 10.2766012,20.3537964 10.1185434,20.591565 C9.96048554,20.8293335 9.96048554,21.1356402 10.1185434,21.3734088 C10.2766012,21.6111773 10.563132,21.7359028 10.8499094,21.6917688 L22.1500906,21.6917688 C22.436868,21.7359028 22.7233988,21.6111773 22.8814566,21.3734088 C23.0395145,21.1356402 23.0395145,20.8293335 22.8814566,20.591565 C22.7233988,20.3537964 22.436868,20.229071 22.1500906,20.2732049 L22.0783434,20.2732049 Z M22.0783434,24.5639229 L10.8499094,24.5639229 C10.4437545,24.5639229 10.1145008,24.8853997 10.1145008,25.2819615 C10.1145008,25.6785232 10.4437545,26 10.8499094,26 L22.1500906,26 C22.5562455,26 22.8854992,25.6785232 22.8854992,25.2819615 C22.8854992,24.8853997 22.5562455,24.5639229 22.1500906,24.5639229 L22.0783434,24.5639229 Z" id="Shape" fill="#83B9F9" fill-rule="nonzero"></path>
                </g>
            </g>
        </g>
    </g>
</svg>