<svg width="100" height="100" viewBox="0 0 100 100" fill="none" xmlns="https://www.w3.org/2000/svg">
<g clip-path="url(#clip0)">
<path d="M49.6401 96.4501C40.382 96.4501 31.3317 93.7047 23.6339 88.5612C15.936 83.4176 9.93624 76.1069 6.3933 67.5535C2.85036 59.0001 1.92337 49.5882 3.72954 40.5079C5.53571 31.4277 9.99394 23.0869 16.5404 16.5404C23.0869 9.99393 31.4277 5.53571 40.5079 3.72954C49.5882 1.92337 59.0001 2.85036 67.5535 6.3933C76.1069 9.93624 83.4176 15.936 88.5612 23.6339C93.7047 31.3317 96.4501 40.382 96.4501 49.6401C96.4505 55.7874 95.24 61.8746 92.8878 67.554C90.5355 73.2335 87.0875 78.3939 82.7407 82.7407C78.3939 87.0875 73.2335 90.5355 67.554 92.8878C61.8746 95.24 55.7874 96.4505 49.6401 96.4501V96.4501Z" fill="url(#paint0_linear)"/>
<path fill-rule="evenodd" clip-rule="evenodd" d="M95.54 49.64C95.54 58.7182 92.848 67.5925 87.8045 75.1407C82.7609 82.6889 75.5923 88.572 67.2052 92.0461C58.818 95.5201 49.5891 96.4291 40.6854 94.658C31.7816 92.887 23.603 88.5154 17.1838 82.0962C10.7646 75.677 6.39302 67.4984 4.62196 58.5946C2.85089 49.6909 3.75987 40.462 7.23393 32.0748C10.708 23.6877 16.5911 16.5191 24.1393 11.4755C31.6875 6.43199 40.5618 3.74 49.64 3.74C55.6677 3.73998 61.6363 4.9272 67.2052 7.23388C72.774 9.54057 77.834 12.9215 82.0963 17.1837C86.3585 21.446 89.7394 26.5059 92.0461 32.0748C94.3528 37.6437 95.54 43.6123 95.54 49.64V49.64ZM49.64 3.62732e-07C59.4579 3.62732e-07 69.0553 2.91134 77.2185 8.36585C85.3818 13.8204 91.7442 21.5731 95.5014 30.6436C99.2585 39.7141 100.242 49.6951 98.3262 59.3243C96.4108 68.9535 91.6831 77.7985 84.7408 84.7408C77.7985 91.6831 68.9535 96.4108 59.3243 98.3262C49.6951 100.242 39.7141 99.2585 30.6436 95.5014C21.5731 91.7442 13.8204 85.3818 8.36585 77.2185C2.91134 69.0553 3.62732e-07 59.4579 3.62732e-07 49.64C-0.000787738 43.121 1.28265 36.6656 3.77702 30.6427C6.27138 24.6197 9.9278 19.1471 14.5375 14.5375C19.1471 9.9278 24.6197 6.27138 30.6427 3.77702C36.6656 1.28265 43.121 -0.000787738 49.64 3.62732e-07V3.62732e-07Z" fill="#F2F1F0"/>
<path fill-rule="evenodd" clip-rule="evenodd" d="M92.7296 49.6406C92.7296 58.163 90.2024 66.494 85.4676 73.5801C80.7328 80.6662 74.0031 86.1892 66.1294 89.4505C58.2557 92.7119 49.5918 93.5653 41.2331 91.9026C32.8745 90.24 25.1966 86.1361 19.1703 80.1098C13.1441 74.0836 9.04017 66.4057 7.37753 58.047C5.7149 49.6884 6.56822 41.0244 9.8296 33.1507C13.091 25.2771 18.6139 18.5473 25.7 13.8126C32.7862 9.07776 41.1172 6.55058 49.6396 6.55058C55.2983 6.55023 60.9017 7.66455 66.1298 9.82991C71.3579 11.9953 76.1082 15.1692 80.1096 19.1706C84.1109 23.1719 87.2849 27.9223 89.4502 33.1503C91.6156 38.3784 92.7299 43.9818 92.7296 49.6406V49.6406ZM49.6396 2.81058C58.9017 2.81058 67.9558 5.55711 75.6569 10.7029C83.3581 15.8486 89.3604 23.1624 92.9049 31.7195C96.4493 40.2766 97.3767 49.6925 95.5697 58.7767C93.7628 67.8608 89.3027 76.2051 82.7534 82.7544C76.2041 89.3037 67.8598 93.7638 58.7757 95.5708C49.6915 97.3777 40.2756 96.4503 31.7185 92.9059C23.1614 89.3614 15.8476 83.3591 10.7018 75.6579C5.5561 67.9568 2.80957 58.9027 2.80957 49.6406C2.81076 37.2209 7.745 25.3101 16.5271 16.5281C25.3091 7.74599 37.2198 2.81174 49.6396 2.81055V2.81058Z" fill="#0078D4"/>
<path fill-rule="evenodd" clip-rule="evenodd" d="M92.7296 49.6405C92.7296 58.1629 90.2024 66.494 85.4676 73.5801C80.7328 80.6662 74.0031 86.1891 66.1294 89.4505C58.2557 92.7119 49.5918 93.5652 41.2331 91.9026C32.8745 90.24 25.1966 86.136 19.1703 80.1098C13.1441 74.0835 9.04017 66.4056 7.37753 58.047C5.7149 49.6883 6.56822 41.0244 9.8296 33.1507C13.091 25.277 18.6139 18.5473 25.7001 13.8125C32.7862 9.07773 41.1172 6.55055 49.6396 6.55055C55.2983 6.5502 60.9017 7.66452 66.1298 9.82988C71.3579 11.9952 76.1082 15.1692 80.1096 19.1705C84.1109 23.1719 87.2849 27.9222 89.4502 33.1503C91.6156 38.3784 92.7299 43.9818 92.7296 49.6405V49.6405ZM49.6396 2.81055C58.9017 2.81055 67.9558 5.55708 75.6569 10.7028C83.3581 15.8486 89.3604 23.1624 92.9048 31.7195C96.4493 40.2765 97.3767 49.6925 95.5697 58.7766C93.7628 67.8608 89.3027 76.2051 82.7534 82.7544C76.2041 89.3036 67.8598 93.7638 58.7757 95.5707C49.6915 97.3777 40.2756 96.4503 31.7185 92.9058C23.1614 89.3614 15.8476 83.3591 10.7018 75.6579C5.5561 67.9568 2.80957 58.9026 2.80957 49.6405C2.81076 37.2208 7.74501 25.3101 16.5271 16.5281C25.3091 7.74599 37.2198 2.81174 49.6396 2.81055V2.81055Z" fill="#0078D4"/>
<path d="M33.7771 23.9277L37.7031 33.0357L20.4951 46.8507L33.7771 23.9277Z" fill="url(#paint1_linear)"/>
<path d="M33.5669 70.0227L38.3309 60.5977L60.0269 70.0227H33.5669Z" fill="url(#paint2_linear)"/>
<path d="M20.4951 46.8516L33.5671 70.0226L38.3311 60.5976L20.4951 46.8516Z" fill="url(#paint3_linear)"/>
<path d="M20.4951 46.8502L37.7031 33.0352L38.3311 60.5962L20.4951 46.8502Z" fill="url(#paint4_linear)"/>
<path d="M37.7031 33.0357L59.7651 23.9277H33.7771L37.7031 33.0357Z" fill="url(#paint5_linear)"/>
<path d="M37.7029 33.0352L61.5899 46.9742L38.3309 60.5962L37.7029 33.0352Z" fill="url(#paint6_linear)"/>
<path d="M59.7649 23.9277L73.5719 46.9747H61.5899L37.7029 33.0357L59.7649 23.9277Z" fill="url(#paint7_linear)"/>
<path d="M61.5899 46.9747L59.7649 23.9277L73.5719 46.9747H61.5899Z" fill="url(#paint8_linear)"/>
<path d="M61.5901 46.9746L60.0271 70.0216L73.5721 46.9746H61.5901Z" fill="url(#paint9_linear)"/>
<path d="M61.5901 46.9746L60.0271 70.0216L38.3311 60.5966L61.5901 46.9746Z" fill="url(#paint10_linear)"/>
<path d="M74.0165 46.9707C74.0113 46.9364 74.002 46.9027 73.9889 46.8705C73.9843 46.8303 73.974 46.791 73.9583 46.7537L73.9544 46.7497L73.9535 46.7464L60.1449 23.6988C60.1236 23.6723 60.0992 23.6484 60.0722 23.6277C60.0554 23.6077 60.0367 23.5893 60.0164 23.573C59.9936 23.5561 59.9692 23.5417 59.9434 23.5299C59.9316 23.5246 59.9237 23.5156 59.9114 23.5114C59.8934 23.5088 59.8752 23.5073 59.857 23.507C59.8271 23.4953 59.796 23.4871 59.7643 23.4824H33.7776C33.7334 23.4866 33.69 23.4975 33.6491 23.5149C33.5845 23.5333 33.5258 23.5684 33.4788 23.6165C33.4523 23.6357 33.4281 23.6578 33.4067 23.6824L33.4023 23.6951L33.3934 23.7043L20.1109 46.6276C20.1079 46.6328 20.1091 46.6393 20.1064 46.6446C20.0925 46.6755 20.0824 46.708 20.0764 46.7413C20.0702 46.7615 20.0656 46.7822 20.0627 46.8031L20.0611 46.8107C20.0597 46.8248 20.0521 46.8374 20.0521 46.8515L20.0515 46.8542C20.0542 46.8694 20.0578 46.8844 20.0621 46.8992C20.0653 46.9186 20.0699 46.9378 20.0758 46.9565C20.0816 46.9914 20.0917 47.0255 20.1058 47.058L20.1085 47.0682L33.1812 70.2395L33.187 70.2454L33.1897 70.254C33.2188 70.2932 33.2542 70.3272 33.2946 70.3546C33.314 70.3704 33.3267 70.3935 33.3482 70.4059C33.415 70.4447 33.4907 70.4652 33.5679 70.4656H60.0273C60.1044 70.4654 60.1801 70.4452 60.2471 70.407C60.2601 70.3997 60.2669 70.3846 60.2791 70.376C60.2996 70.3593 60.3185 70.3406 60.3354 70.3203C60.3634 70.2987 60.3885 70.2738 60.4104 70.2461L73.9559 47.1992L73.9568 47.196L73.9595 47.1931C73.9749 47.1559 73.985 47.1167 73.9894 47.0767C74.0023 47.044 74.0113 47.01 74.0162 46.9752L74.0165 46.9707ZM38.7014 33.103L59.37 24.5699L61.0803 46.1624L38.7014 33.103ZM37.2796 33.9441L37.3764 38.1959L37.8653 59.6765L21.2131 46.8425L23.2186 45.2325L37.2796 33.9441ZM38.1647 33.8189L60.7095 46.9751L38.7575 59.8319L38.1647 33.8189ZM61.9996 46.53L60.3558 25.7792L72.7888 46.53L61.9996 46.53ZM33.7194 24.9129L37.161 32.9003L22.0726 45.0134L33.6764 24.9873L33.7194 24.9129ZM21.9579 48.5382L37.7683 60.7235L33.5464 69.0789L27.2937 57.9962L21.9579 48.5382ZM61.0908 47.781L59.6274 69.3633L39.3097 60.5372L61.0908 47.781ZM62.0045 47.4186H72.7967L60.5971 68.1744L62.0045 47.4186ZM57.5245 24.371L37.9379 32.4574L34.4529 24.371L57.5245 24.371ZM34.2898 69.577L38.5381 61.1702L57.8914 69.577L34.2898 69.577Z" fill="#50E6FF"/>
<path d="M37.7033 35.7777C39.2173 35.7777 40.4447 34.5503 40.4447 33.0363C40.4447 31.5223 39.2173 30.2949 37.7033 30.2949C36.1893 30.2949 34.9619 31.5223 34.9619 33.0363C34.9619 34.5503 36.1893 35.7777 37.7033 35.7777Z" fill="#50E6FF"/>
<path d="M38.331 63.3382C39.845 63.3382 41.0724 62.1109 41.0724 60.5968C41.0724 59.0828 39.845 57.8555 38.331 57.8555C36.817 57.8555 35.5896 59.0828 35.5896 60.5968C35.5896 62.1109 36.817 63.3382 38.331 63.3382Z" fill="#50E6FF"/>
<path d="M61.5898 49.9984C63.1038 49.9984 64.3312 48.771 64.3312 47.257C64.3312 45.743 63.1038 44.5156 61.5898 44.5156C60.0757 44.5156 58.8484 45.743 58.8484 47.257C58.8484 48.771 60.0757 49.9984 61.5898 49.9984Z" fill="#50E6FF"/>
<path opacity="0.2" fill-rule="evenodd" clip-rule="evenodd" d="M60.2469 70.4669L69.3982 54.9475C67.0685 54.0377 64.5391 53.7619 62.0681 54.1483C59.597 54.5347 57.2726 55.5693 55.3317 57.1468C53.3908 58.7243 51.903 60.7882 51.0197 63.1282C50.1365 65.4681 49.8895 68.0004 50.3039 70.4669H60.2469Z" fill="#003067"/>
<path fill-rule="evenodd" clip-rule="evenodd" d="M64.331 80.4422C61.9137 80.4422 59.5507 79.7254 57.5408 78.3824C55.5309 77.0395 53.9643 75.1306 53.0393 72.8973C52.1142 70.664 51.8721 68.2066 52.3437 65.8357C52.8153 63.4649 53.9794 61.2871 55.6887 59.5778C57.398 57.8685 59.5757 56.7045 61.9466 56.2329C64.3175 55.7613 66.7749 56.0034 69.0082 56.9284C71.2415 57.8535 73.1503 59.4201 74.4933 61.43C75.8363 63.4399 76.5531 65.8029 76.553 68.2202C76.553 71.4617 75.2653 74.5704 72.9732 76.8624C70.6812 79.1545 67.5725 80.4421 64.331 80.4422V80.4422Z" fill="white"/>
<path fill-rule="evenodd" clip-rule="evenodd" d="M69.9459 64.8304C69.6592 64.5438 69.2704 64.3828 68.865 64.3828C68.4596 64.3828 68.0708 64.5438 67.784 64.8304L62.7447 69.866L60.9245 68.0632C60.8819 68 60.8338 67.9407 60.7808 67.886C60.4962 67.6 60.1099 67.4382 59.7063 67.436C59.3028 67.4338 58.9148 67.5914 58.6271 67.8744C58.3393 68.1574 58.1753 68.5427 58.1708 68.9462C58.1662 69.3497 58.3215 69.7386 58.6028 70.028L58.5845 70.0464L61.6683 73.102C61.9553 73.3885 62.3442 73.5494 62.7496 73.5494C63.1551 73.5494 63.544 73.3885 63.8309 73.102L69.9413 66.9944L69.9459 66.9907C70.0879 66.8489 70.2005 66.6805 70.2773 66.4952C70.3541 66.3098 70.3937 66.1112 70.3937 65.9105C70.3937 65.7099 70.3541 65.5112 70.2773 65.3259C70.2005 65.1406 70.0879 64.9722 69.9459 64.8304V64.8304Z" fill="#0078D4"/>
</g>
<defs>
<linearGradient id="paint0_linear" x1="47.8698" y1="-15.153" x2="51.8525" y2="130.615" gradientUnits="userSpaceOnUse">
<stop stop-color="#00ABDE"/>
<stop offset="1" stop-color="#007ED8"/>
</linearGradient>
<linearGradient id="paint1_linear" x1="37.2025" y1="25.9065" x2="23.9573" y2="48.8491" gradientUnits="userSpaceOnUse">
<stop stop-color="#008BF1"/>
<stop offset="0.22" stop-color="#0086EC"/>
<stop offset="0.49" stop-color="#0078DD"/>
<stop offset="0.79" stop-color="#0061C4"/>
<stop offset="1" stop-color="#004DAE"/>
</linearGradient>
<linearGradient id="paint2_linear" x1="59.2571" y1="61.4112" x2="57.3608" y2="73.6956" gradientUnits="userSpaceOnUse">
<stop stop-color="#008BF1"/>
<stop offset="0.22" stop-color="#0086EC"/>
<stop offset="0.49" stop-color="#0078DD"/>
<stop offset="0.79" stop-color="#0061C4"/>
<stop offset="1" stop-color="#004DAE"/>
</linearGradient>
<linearGradient id="paint3_linear" x1="37.8123" y1="48.8517" x2="24.5937" y2="72.3297" gradientUnits="userSpaceOnUse">
<stop stop-color="#008BF1"/>
<stop offset="0.22" stop-color="#0086EC"/>
<stop offset="0.49" stop-color="#0078DD"/>
<stop offset="0.79" stop-color="#0061C4"/>
<stop offset="1" stop-color="#004DAE"/>
</linearGradient>
<linearGradient id="paint4_linear" x1="37.8123" y1="35.4143" x2="20.8082" y2="60.8053" gradientUnits="userSpaceOnUse">
<stop stop-color="#008BF1"/>
<stop offset="0.22" stop-color="#0086EC"/>
<stop offset="0.49" stop-color="#0078DD"/>
<stop offset="0.79" stop-color="#0061C4"/>
<stop offset="1" stop-color="#004DAE"/>
</linearGradient>
<linearGradient id="paint5_linear" x1="59.0091" y1="24.714" x2="57.2047" y2="36.5939" gradientUnits="userSpaceOnUse">
<stop stop-color="#008BF1"/>
<stop offset="0.22" stop-color="#0086EC"/>
<stop offset="0.49" stop-color="#0078DD"/>
<stop offset="0.79" stop-color="#0061C4"/>
<stop offset="1" stop-color="#004DAE"/>
</linearGradient>
<linearGradient id="paint6_linear" x1="60.895" y1="35.4143" x2="46.1829" y2="64.836" gradientUnits="userSpaceOnUse">
<stop stop-color="#008BF1"/>
<stop offset="0.22" stop-color="#0086EC"/>
<stop offset="0.49" stop-color="#0078DD"/>
<stop offset="0.79" stop-color="#0061C4"/>
<stop offset="1" stop-color="#004DAE"/>
</linearGradient>
<linearGradient id="paint7_linear" x1="72.5284" y1="25.9172" x2="64.5806" y2="54.4588" gradientUnits="userSpaceOnUse">
<stop stop-color="#008BF1"/>
<stop offset="0.22" stop-color="#0086EC"/>
<stop offset="0.49" stop-color="#0078DD"/>
<stop offset="0.79" stop-color="#0061C4"/>
<stop offset="1" stop-color="#004DAE"/>
</linearGradient>
<linearGradient id="paint8_linear" x1="73.1702" y1="25.9172" x2="58.5651" y2="46.1063" gradientUnits="userSpaceOnUse">
<stop stop-color="#008BF1"/>
<stop offset="0.22" stop-color="#0086EC"/>
<stop offset="0.49" stop-color="#0078DD"/>
<stop offset="0.79" stop-color="#0061C4"/>
<stop offset="1" stop-color="#004DAE"/>
</linearGradient>
<linearGradient id="paint9_linear" x1="73.1781" y1="48.9641" x2="58.4875" y2="68.8859" gradientUnits="userSpaceOnUse">
<stop stop-color="#008BF1"/>
<stop offset="0.22" stop-color="#0086EC"/>
<stop offset="0.49" stop-color="#0078DD"/>
<stop offset="0.79" stop-color="#0061C4"/>
<stop offset="1" stop-color="#004DAE"/>
</linearGradient>
<linearGradient id="paint10_linear" x1="60.9134" y1="48.9641" x2="49.7626" y2="74.9303" gradientUnits="userSpaceOnUse">
<stop stop-color="#008BF1"/>
<stop offset="0.22" stop-color="#0086EC"/>
<stop offset="0.49" stop-color="#0078DD"/>
<stop offset="0.79" stop-color="#0061C4"/>
<stop offset="1" stop-color="#004DAE"/>
</linearGradient>
<clipPath id="clip0">
<rect width="99.2799" height="99.28" fill="white"/>
</clipPath>
</defs>
</svg>
