<svg width="160" height="188" viewBox="0 0 160 188" fill="none" xmlns="https://www.w3.org/2000/svg">
<g clip-path="url(#clip0)">
<path d="M79.6779 188C82.7592 187.994 85.7796 187.141 88.4083 185.534L150.384 147.874C153.165 146.11 155.449 143.665 157.019 140.771C158.589 137.876 159.394 134.628 159.356 131.336V56.6207C159.392 53.3283 158.587 50.0812 157.017 47.1871C155.447 44.2929 153.163 41.8476 150.384 40.0829L88.4083 2.4228C85.7749 0.837605 82.7592 0 79.6855 0C76.6118 0 73.5961 0.837605 70.9627 2.4228L8.9876 40.098C6.2045 41.8604 3.91796 44.3048 2.34499 47.1991C0.772021 50.0935 -0.0351786 53.3418 4.1431e-06 56.6358V131.336C-0.0185283 134.119 0.556189 136.874 1.68588 139.418C2.81557 141.962 4.4743 144.236 6.5516 146.089V146.115L70.9627 185.549C73.5884 187.149 76.6032 187.996 79.6779 188V188ZM80.3257 6.95218C82.2776 6.95218 84.7548 8.1651 86.4646 9.20912L147.222 46.4034C150.974 48.6881 153.09 55.2842 153.09 60.0352L152.458 131.336C152.458 136.087 149.259 140.355 145.506 142.64L85.1104 179.021C81.6758 181.109 78.8854 181.109 75.4507 179.021L14.2427 142.549C10.4903 140.265 7.47191 136.072 7.47191 131.336V57.688C7.50442 55.3228 8.11341 53.0013 9.24608 50.9247C10.3787 48.8482 12.0009 47.0792 13.9718 45.7714L74.548 9.20912C76.2577 8.1651 78.3739 6.95218 80.3257 6.95218Z" fill="#F2F1F0"/>
<path fill-rule="evenodd" clip-rule="evenodd" d="M87.5765 10.5337C85.2056 9.0602 82.4697 8.2793 79.6783 8.2793C76.8868 8.2793 74.1509 9.0602 71.7801 10.5337L15.6454 44.8651C13.1193 46.4768 11.047 48.7072 9.625 51.3446C8.203 53.9821 7.47851 56.9392 7.52026 59.9352V128.038C7.48034 131.034 8.20562 133.991 9.62745 136.628C11.0493 139.265 13.1206 141.495 15.6454 143.108L71.7801 177.439C74.1508 178.913 76.8867 179.694 79.6783 179.694C82.4698 179.694 85.2057 178.913 87.5765 177.439L143.711 143.108C146.236 141.496 148.307 139.265 149.729 136.628C151.151 133.991 151.877 131.034 151.837 128.038V59.9352C151.875 56.9397 151.149 53.9839 149.727 51.347C148.305 48.7101 146.234 46.4793 143.711 44.8651L87.5765 10.5337Z" fill="url(#paint0_linear)"/>
<path fill-rule="evenodd" clip-rule="evenodd" d="M79.6783 9.7539C81.3615 9.7539 83.2442 10.6196 85.311 11.8777L143.777 47.4201C145.668 48.6335 147.218 50.3104 148.278 52.2914C149.339 54.2725 149.875 56.4918 149.837 58.7386V129.217C149.875 131.464 149.339 133.683 148.278 135.664C147.218 137.645 145.668 139.322 143.777 140.535L85.312 176.077L85.311 176.078C83.6408 177.217 81.6958 177.888 79.6783 178.021C77.6609 177.888 75.7158 177.217 74.0456 176.078L74.0446 176.077L15.5823 140.537L15.5801 140.536C13.7918 139.572 12.2668 138.185 11.1383 136.496C10.1614 134.893 9.52031 132.678 9.52031 129.217V58.7386C9.48157 56.4919 10.018 54.2726 11.0785 52.2916C12.139 50.3106 13.6885 48.6336 15.5797 47.4202L74.0365 11.8831L74.0406 11.8807C76.1244 10.6277 77.9846 9.7539 79.6783 9.7539ZM87.3908 8.4609L145.855 44.0021C148.333 45.5722 150.368 47.751 151.765 50.3307C153.162 52.9104 153.876 55.8051 153.837 58.7386V129.217C153.876 132.151 153.162 135.045 151.765 137.625C150.368 140.205 148.333 142.384 145.855 143.954L87.3898 179.495C85.0956 181.02 82.4302 181.893 79.6783 182.021C76.9264 181.893 74.261 181.02 71.9667 179.495H71.9658L13.502 143.953L13.4995 143.952C11.1642 142.659 9.18097 140.814 7.72281 138.578C6.12823 135.725 5.36521 132.482 5.52031 129.217V58.7386C5.48125 55.805 6.19436 52.9103 7.59165 50.3305C8.98894 47.7508 11.0238 45.572 13.5022 44.002L71.9667 8.46025L71.9749 8.45537C74.0655 7.19796 76.7734 5.75391 79.6783 5.75391C82.5645 5.75391 85.2816 7.17699 87.3908 8.46085V8.4609Z" fill="#0078D4"/>
<path opacity="0.2" d="M139.887 131.926L80.3369 166.533L20.3979 131.927L79.9479 97.3203L139.887 131.926Z" fill="#003067"/>
<path d="M140.532 120.547L79.81 155.835L18.698 120.552L79.42 85.2637L140.532 120.547Z" fill="#1B93EB"/>
<path d="M140.532 120.547L140.52 124.653L79.798 159.941L79.81 155.835L140.532 120.547Z" fill="#1F56A3"/>
<path d="M79.81 155.834L79.798 159.94L18.686 124.657L18.698 120.551L79.81 155.834Z" fill="#0078D4"/>
<path opacity="0.15" d="M95.6502 115.812C95.8111 115.989 95.7146 115.892 95.6181 115.78C94.4762 114.525 86.1938 114.171 85.1002 110.682L83.0899 110.617C82.0285 113.866 73.5048 116.117 73.8104 115.78C68.9213 118.417 69.1786 122.422 74.5823 124.93C80.2272 127.552 89.362 127.552 94.9748 124.93C100.33 122.438 100.539 118.449 95.6502 115.812Z" fill="#1F1D20"/>
<path d="M108.195 75.9608C108.28 75.961 108.362 75.995 108.422 76.0553C108.483 76.1155 108.516 76.1972 108.517 76.2824V80.2548C108.512 83.694 107.143 86.9909 104.71 89.4214C102.276 91.8518 98.9775 93.217 95.5382 93.2172H73.9396C70.5012 93.2143 67.2042 91.8482 64.7713 89.4183C62.3385 86.9885 60.9683 83.6932 60.9612 80.2548V76.2824C60.9615 76.1972 60.9954 76.1155 61.0557 76.0553C61.116 75.995 61.1976 75.961 61.2828 75.9608H108.195ZM108.195 73.291H61.2989C60.5059 73.2923 59.7458 73.6078 59.1851 74.1685C58.6244 74.7293 58.3088 75.4894 58.3076 76.2824V80.2548C58.3071 82.3077 58.7111 84.3407 59.4965 86.2375C60.2819 88.1342 61.4334 89.8577 62.885 91.3094C64.3367 92.761 66.0602 93.9125 67.9569 94.6979C69.8537 95.4833 71.8867 95.8873 73.9396 95.8868H95.5543C97.6073 95.8873 99.6402 95.4833 101.537 94.6979C103.434 93.9125 105.157 92.7611 106.609 91.3094C108.061 89.8577 109.212 88.1343 109.997 86.2375C110.783 84.3407 111.187 82.3077 111.186 80.2548V76.2824C111.185 75.4894 110.87 74.7293 110.309 74.1685C109.748 73.6078 108.988 73.2923 108.195 73.291V73.291Z" fill="#FFD400"/>
<path d="M95.6502 114.204C95.8111 114.381 95.7146 114.285 95.6181 114.172C94.4762 112.918 86.1938 112.564 85.1002 109.074L83.0899 109.01C82.0285 112.258 73.5048 114.51 73.8104 114.172C68.9213 116.81 69.1786 120.814 74.5823 123.323C80.2272 125.945 89.362 125.945 94.9748 123.323C100.33 120.83 100.539 116.842 95.6502 114.204Z" fill="url(#paint1_linear)"/>
<path d="M93.5115 112.58C91.855 110.779 89.7482 106.79 89.1049 98.0575C89.0567 97.3016 88.9763 95.6934 88.9763 95.6934H80.5009C80.5009 95.6934 80.4848 97.4785 80.4526 98.3148C80.0988 106.517 77.8633 110.521 76.0943 112.419C75.9269 112.595 75.7498 112.762 75.5636 112.918C71.7039 115.089 71.9773 118.321 76.3677 120.364C81.0155 122.535 88.542 122.535 93.1738 120.364C97.3391 118.418 97.7251 115.378 94.3799 113.223C94.1709 113.078 93.5919 112.66 93.5115 112.58Z" fill="url(#paint2_linear)"/>
<path d="M85.5024 104.186H83.9746C74.0678 104.186 66.0267 93.0407 66.0267 83.1339V69.898L103.434 69.4316V83.1339C103.45 93.0407 95.4092 104.186 85.5024 104.186Z" fill="url(#paint3_radial)"/>
<path d="M97.9505 63.4477C105.284 66.8572 105.332 72.3895 98.0309 75.799C90.7456 79.2085 78.8768 79.2085 71.5271 75.799C64.1936 72.3895 64.1614 66.8572 71.4467 63.4477C78.7481 60.0383 90.6009 60.0383 97.9505 63.4477Z" fill="url(#paint4_linear)"/>
<path d="M84.6821 62.8849C88.9426 62.7886 93.1748 63.5999 97.0977 65.2651C99.8317 66.5356 101.472 68.176 101.472 69.6556C101.472 71.1191 99.8638 72.7434 97.1781 73.9978C93.2635 75.6513 89.0431 76.457 84.7947 76.3619C80.5289 76.4581 76.2915 75.6468 72.363 73.9817C69.629 72.7112 67.9886 71.0708 67.9886 69.5913C67.9886 68.1278 69.5968 66.5034 72.2826 65.249C76.2033 63.5972 80.4286 62.7916 84.6821 62.8849V62.8849ZM84.6821 60.8907C80.1395 60.8037 75.6296 61.675 71.4463 63.4478C64.161 66.8572 64.1932 72.3896 71.5428 75.7991C75.7379 77.5702 80.2579 78.4414 84.8107 78.3562C89.3533 78.4431 93.8632 77.5718 98.0465 75.7991C105.332 72.3896 105.3 66.8572 97.9661 63.4478C93.7649 61.6782 89.24 60.8072 84.6821 60.8907V60.8907Z" fill="#FFD400"/>
<path d="M76.01 42.1953L78.597 48.1983L67.255 57.3043L76.01 42.1953Z" fill="url(#paint5_linear)"/>
<path d="M75.871 72.5782L79.011 66.3652L93.312 72.5782H75.871Z" fill="url(#paint6_linear)"/>
<path d="M67.255 57.3047L75.871 72.5777L79.011 66.3647L67.255 57.3047Z" fill="url(#paint7_linear)"/>
<path d="M67.255 57.3052L78.597 48.1992L79.011 66.3652L67.255 57.3052Z" fill="url(#paint8_linear)"/>
<path d="M78.597 48.1983L93.139 42.1953H76.01L78.597 48.1983Z" fill="url(#paint9_linear)"/>
<path d="M78.597 48.1992L94.341 57.3872L79.011 66.3652L78.597 48.1992Z" fill="url(#paint10_linear)"/>
<path d="M93.139 42.1953L102.239 57.3863H94.341L78.597 48.1983L93.139 42.1953Z" fill="url(#paint11_linear)"/>
<path d="M94.341 57.3863L93.139 42.1953L102.239 57.3863H94.341Z" fill="url(#paint12_linear)"/>
<path d="M94.341 57.3867L93.312 72.5777L102.239 57.3867H94.341Z" fill="url(#paint13_linear)"/>
<path d="M94.341 57.3867L93.312 72.5777L79.011 66.3647L94.341 57.3867Z" fill="url(#paint14_linear)"/>
<path d="M102.532 57.3838C102.529 57.3612 102.522 57.339 102.514 57.3178C102.511 57.2913 102.504 57.2653 102.494 57.2408L102.491 57.2382L102.491 57.236L93.3891 42.045C93.375 42.0275 93.3589 42.0117 93.3411 41.9981C93.3301 41.9849 93.3178 41.9728 93.3044 41.962C93.2893 41.9509 93.2732 41.9414 93.2562 41.9336C93.2484 41.9301 93.2432 41.9242 93.2352 41.9214C93.2019 41.9209 93.1691 41.9144 93.1382 41.9023H76.0101C75.9809 41.9051 75.9523 41.9123 75.9254 41.9237C75.8827 41.9359 75.8441 41.959 75.8131 41.9907C75.7956 42.0033 75.7797 42.0179 75.7656 42.0342L75.7627 42.0425L75.7568 42.0485L67.0021 57.1577L66.9991 57.1689C66.9899 57.1893 66.9833 57.2107 66.9793 57.2326C66.9752 57.2459 66.9722 57.2596 66.9703 57.2734L66.9692 57.2784C66.9683 57.2877 66.9633 57.296 66.9633 57.3053L66.9629 57.3071C66.9647 57.3171 66.967 57.327 66.9699 57.3367C66.972 57.3495 66.975 57.3621 66.9789 57.3745C66.9828 57.3975 66.9894 57.4199 66.9987 57.4414L67.0005 57.4481L75.6169 72.7206L75.6207 72.7245L75.6225 72.7302C75.6416 72.756 75.665 72.7784 75.6916 72.7964C75.7044 72.8069 75.7128 72.8221 75.7269 72.8303C75.7709 72.8558 75.8209 72.8694 75.8718 72.8696H93.3116C93.3624 72.8695 93.4123 72.8562 93.4564 72.831C93.465 72.8262 93.4695 72.8163 93.4775 72.8106C93.491 72.7996 93.5035 72.7873 93.5146 72.7739C93.533 72.7597 93.5496 72.7432 93.5641 72.725L102.492 57.5344L102.493 57.5322L102.494 57.5304C102.505 57.5059 102.511 57.48 102.514 57.4536C102.523 57.4321 102.529 57.4097 102.532 57.3867L102.532 57.3838ZM79.2554 48.2434L92.8784 42.6191L94.0057 56.851L79.2554 48.2434ZM78.3182 48.7978L78.3821 51.6003L78.7043 65.7584L67.7286 57.2993L69.0504 56.2382L78.3182 48.7978ZM78.9016 48.7153L93.7612 57.3867L79.2923 65.8608L78.9016 48.7153ZM94.6115 57.0933L93.5281 43.4163L101.723 57.0934L94.6115 57.0933ZM75.9717 42.8452L78.2401 48.1098L68.2951 56.0938L75.9433 42.8943L75.9717 42.8452ZM68.2195 58.417L78.6403 66.4484L75.8576 71.9556L71.7364 64.6509L68.2195 58.417ZM94.0125 57.9179L93.0481 72.1431L79.6563 66.3257L94.0125 57.9179ZM94.6147 57.679H101.728L93.6871 71.3595L94.6147 57.679ZM91.6619 42.488L78.7521 47.8179L76.4551 42.488L91.6619 42.488ZM76.3476 72.2839L79.1477 66.7429L91.9037 72.2839H76.3476Z" fill="#50E6FF"/>
<path d="M78.5975 50.0063C79.5954 50.0063 80.4044 49.1974 80.4044 48.1995C80.4044 47.2015 79.5954 46.3926 78.5975 46.3926C77.5996 46.3926 76.7906 47.2015 76.7906 48.1995C76.7906 49.1974 77.5996 50.0063 78.5975 50.0063Z" fill="#50E6FF"/>
<path d="M79.0112 68.1723C80.0091 68.1723 80.8181 67.3634 80.8181 66.3655C80.8181 65.3676 80.0091 64.5586 79.0112 64.5586C78.0133 64.5586 77.2043 65.3676 77.2043 66.3655C77.2043 67.3634 78.0133 68.1723 79.0112 68.1723Z" fill="#50E6FF"/>
<path d="M94.3413 59.3794C95.3392 59.3794 96.1482 58.5704 96.1482 57.5725C96.1482 56.5746 95.3392 55.7656 94.3413 55.7656C93.3434 55.7656 92.5344 56.5746 92.5344 57.5725C92.5344 58.5704 93.3434 59.3794 94.3413 59.3794Z" fill="#50E6FF"/>
<path d="M95.0129 92.016C95.0198 91.9681 95.0335 91.9202 95.0403 91.879C95.1688 91.2011 95.1464 90.5032 94.9748 89.8349C94.8031 89.1666 94.4864 88.5443 94.0471 88.0122C93.6078 87.4801 93.0568 87.0512 92.4331 86.7561C91.8094 86.461 91.1283 86.3068 90.4383 86.3046C90.0854 86.3034 89.7336 86.3448 89.3906 86.4279C88.6911 85.3247 87.6524 84.4785 86.4306 84.0165C85.2088 83.5546 83.87 83.502 82.6157 83.8665C81.3614 84.2311 80.2594 84.9931 79.4755 86.038C78.6916 87.0828 78.2682 88.354 78.2691 89.6602C78.2691 89.7424 78.2691 89.8246 78.2759 89.9068C77.9626 89.8013 77.6341 89.7481 77.3035 89.7492C76.5425 89.7494 75.8107 90.042 75.2595 90.5666C74.7083 91.0912 74.3798 91.8076 74.3419 92.5676C74.3041 93.3276 74.5599 94.0731 75.0563 94.6498C75.5527 95.2265 76.2518 95.5904 77.009 95.6661L90.4315 95.6935C91.2669 95.6925 92.0871 95.4694 92.8079 95.047C93.5288 94.6246 94.1243 94.0181 94.5335 93.2897C94.5541 93.2486 94.5815 93.2076 94.602 93.1665C94.7834 92.8003 94.9213 92.4142 95.0129 92.016V92.016Z" fill="white"/>
<path d="M79.0057 135.113C81.3981 136.495 81.4156 138.735 79.0339 140.119C77.6955 140.801 76.2148 141.156 74.7128 141.156C73.2108 141.156 71.7301 140.801 70.3917 140.119L46.9647 126.594C44.5723 125.212 44.5549 122.972 46.9365 121.588C48.2749 120.906 49.7556 120.551 51.2576 120.551C52.7596 120.551 54.2403 120.906 55.5787 121.588L79.0057 135.113Z" fill="#0078D4"/>
<path d="M46.9364 123.657C48.2748 122.975 49.7555 122.62 51.2574 122.62C52.7594 122.62 54.2401 122.975 55.5785 123.657L79.0056 137.182C79.6464 137.521 80.179 138.033 80.5421 138.661C81.1807 137.447 80.6676 136.073 79.0056 135.113L55.5786 121.588C54.2402 120.906 52.7595 120.551 51.2575 120.551C49.7555 120.551 48.2748 120.906 46.9364 121.588C45.2916 122.544 44.7923 123.908 45.4281 125.116C45.7844 124.498 46.307 123.992 46.9364 123.657Z" fill="#1F56A3"/>
<path d="M68.5825 139.074L68.5912 134.541C68.6401 135.084 68.8332 135.604 69.1505 136.047C69.4677 136.49 69.8976 136.84 70.3956 137.062C71.7344 137.744 73.2159 138.101 74.7188 138.101C76.2216 138.102 77.7033 137.746 79.0426 137.064C79.5318 136.844 79.9539 136.498 80.2658 136.062C80.5777 135.626 80.7684 135.114 80.8182 134.58L80.8095 137.635C80.7597 138.169 80.5691 138.68 80.2571 139.117C79.9452 139.553 79.5231 139.899 79.0339 140.119C77.6946 140.801 76.213 141.156 74.7101 141.156C73.2072 141.155 71.7258 140.799 70.3869 140.116L68.5825 139.074Z" fill="#50E6FF"/>
<path d="M79.0095 132.057C81.4067 133.441 81.4242 135.681 79.0425 137.065C77.7032 137.747 76.2215 138.102 74.7186 138.102C73.2158 138.101 71.7343 137.745 70.3955 137.062C68.003 135.681 67.9857 133.441 70.3673 132.057C71.7057 131.375 73.1864 131.02 74.6884 131.02C76.1904 131.02 77.6711 131.375 79.0095 132.057Z" fill="#9CEBFF"/>
</g>
<defs>
<linearGradient id="paint0_linear" x1="79.6785" y1="8.2793" x2="79.6785" y2="179.694" gradientUnits="userSpaceOnUse">
<stop stop-color="#00ABDE"/>
<stop offset="1" stop-color="#007ED8"/>
</linearGradient>
<linearGradient id="paint1_linear" x1="70.3269" y1="117.149" x2="99.1613" y2="117.149" gradientUnits="userSpaceOnUse">
<stop stop-color="#FFD70F"/>
<stop offset="0.34" stop-color="#EEB309"/>
<stop offset="0.77" stop-color="#DC8C03"/>
<stop offset="1" stop-color="#D57D01"/>
</linearGradient>
<linearGradient id="paint2_linear" x1="72.8586" y1="108.843" x2="96.6249" y2="108.843" gradientUnits="userSpaceOnUse">
<stop stop-color="#FFD70F"/>
<stop offset="0.27" stop-color="#FFD310"/>
<stop offset="0.54" stop-color="#FFC613"/>
<stop offset="0.83" stop-color="#FEB217"/>
<stop offset="1" stop-color="#FEA11B"/>
</linearGradient>
<radialGradient id="paint3_radial" cx="0" cy="0" r="1" gradientUnits="userSpaceOnUse" gradientTransform="translate(71.3584 76.4581) scale(40.2528)">
<stop offset="0.27" stop-color="#FFD70F"/>
<stop offset="0.49" stop-color="#FFCB12"/>
<stop offset="0.88" stop-color="#FEAC19"/>
<stop offset="1" stop-color="#FEA11B"/>
</radialGradient>
<linearGradient id="paint4_linear" x1="2893.5" y1="11899.5" x2="3248.03" y2="11224.6" gradientUnits="userSpaceOnUse">
<stop stop-color="#FFD70F"/>
<stop offset="0.34" stop-color="#EEB309"/>
<stop offset="0.77" stop-color="#DC8C03"/>
<stop offset="1" stop-color="#D57D01"/>
</linearGradient>
<linearGradient id="paint5_linear" x1="78.2682" y1="43.4991" x2="69.5372" y2="58.6217" gradientUnits="userSpaceOnUse">
<stop stop-color="#008BF1"/>
<stop offset="0.22" stop-color="#0086EC"/>
<stop offset="0.49" stop-color="#0078DD"/>
<stop offset="0.79" stop-color="#0061C4"/>
<stop offset="1" stop-color="#004DAE"/>
</linearGradient>
<linearGradient id="paint6_linear" x1="92.8046" y1="66.9016" x2="91.5544" y2="74.9994" gradientUnits="userSpaceOnUse">
<stop stop-color="#008BF1"/>
<stop offset="0.22" stop-color="#0086EC"/>
<stop offset="0.49" stop-color="#0078DD"/>
<stop offset="0.79" stop-color="#0061C4"/>
<stop offset="1" stop-color="#004DAE"/>
</linearGradient>
<linearGradient id="paint7_linear" x1="78.669" y1="58.6231" x2="69.9559" y2="74.0981" gradientUnits="userSpaceOnUse">
<stop stop-color="#008BF1"/>
<stop offset="0.22" stop-color="#0086EC"/>
<stop offset="0.49" stop-color="#0078DD"/>
<stop offset="0.79" stop-color="#0061C4"/>
<stop offset="1" stop-color="#004DAE"/>
</linearGradient>
<linearGradient id="paint8_linear" x1="78.669" y1="49.7673" x2="67.4613" y2="66.503" gradientUnits="userSpaceOnUse">
<stop stop-color="#008BF1"/>
<stop offset="0.22" stop-color="#0086EC"/>
<stop offset="0.49" stop-color="#0078DD"/>
<stop offset="0.79" stop-color="#0061C4"/>
<stop offset="1" stop-color="#004DAE"/>
</linearGradient>
<linearGradient id="paint9_linear" x1="92.6407" y1="42.7135" x2="91.4515" y2="50.5435" gradientUnits="userSpaceOnUse">
<stop stop-color="#008BF1"/>
<stop offset="0.22" stop-color="#0086EC"/>
<stop offset="0.49" stop-color="#0078DD"/>
<stop offset="0.79" stop-color="#0061C4"/>
<stop offset="1" stop-color="#004DAE"/>
</linearGradient>
<linearGradient id="paint10_linear" x1="93.883" y1="49.7673" x2="84.1858" y2="69.1596" gradientUnits="userSpaceOnUse">
<stop stop-color="#008BF1"/>
<stop offset="0.22" stop-color="#0086EC"/>
<stop offset="0.49" stop-color="#0078DD"/>
<stop offset="0.79" stop-color="#0061C4"/>
<stop offset="1" stop-color="#004DAE"/>
</linearGradient>
<linearGradient id="paint11_linear" x1="101.551" y1="43.5066" x2="96.3125" y2="62.3192" gradientUnits="userSpaceOnUse">
<stop stop-color="#008BF1"/>
<stop offset="0.22" stop-color="#0086EC"/>
<stop offset="0.49" stop-color="#0078DD"/>
<stop offset="0.79" stop-color="#0061C4"/>
<stop offset="1" stop-color="#004DAE"/>
</linearGradient>
<linearGradient id="paint12_linear" x1="101.974" y1="43.5066" x2="92.3474" y2="56.8133" gradientUnits="userSpaceOnUse">
<stop stop-color="#008BF1"/>
<stop offset="0.22" stop-color="#0086EC"/>
<stop offset="0.49" stop-color="#0078DD"/>
<stop offset="0.79" stop-color="#0061C4"/>
<stop offset="1" stop-color="#004DAE"/>
</linearGradient>
<linearGradient id="paint13_linear" x1="101.979" y1="58.698" x2="92.296" y2="71.8281" gradientUnits="userSpaceOnUse">
<stop stop-color="#008BF1"/>
<stop offset="0.22" stop-color="#0086EC"/>
<stop offset="0.49" stop-color="#0078DD"/>
<stop offset="0.79" stop-color="#0061C4"/>
<stop offset="1" stop-color="#004DAE"/>
</linearGradient>
<linearGradient id="paint14_linear" x1="93.895" y1="58.698" x2="86.5449" y2="75.8129" gradientUnits="userSpaceOnUse">
<stop stop-color="#008BF1"/>
<stop offset="0.22" stop-color="#0086EC"/>
<stop offset="0.49" stop-color="#0078DD"/>
<stop offset="0.79" stop-color="#0061C4"/>
<stop offset="1" stop-color="#004DAE"/>
</linearGradient>
<clipPath id="clip0">
<rect width="159.356" height="188" fill="white"/>
</clipPath>
</defs>
</svg>
