<svg width="100" height="100" viewBox="0 0 100 100" fill="none" xmlns="http://www.w3.org/2000/svg">
<g clip-path="url(#clip0)">
<path d="M49.6401 96.4501C40.382 96.4501 31.3317 93.7047 23.6339 88.5612C15.936 83.4176 9.93624 76.1069 6.3933 67.5535C2.85036 59.0001 1.92337 49.5882 3.72954 40.5079C5.53571 31.4277 9.99394 23.0869 16.5404 16.5404C23.0869 9.99393 31.4277 5.53571 40.5079 3.72954C49.5882 1.92337 59.0001 2.85036 67.5535 6.3933C76.1069 9.93624 83.4176 15.936 88.5612 23.6339C93.7047 31.3317 96.4501 40.382 96.4501 49.6401C96.4505 55.7874 95.24 61.8746 92.8878 67.554C90.5355 73.2335 87.0875 78.3939 82.7407 82.7407C78.3939 87.0875 73.2335 90.5355 67.554 92.8878C61.8746 95.24 55.7874 96.4505 49.6401 96.4501V96.4501Z" fill="url(#paint0_linear)"/>
<path fill-rule="evenodd" clip-rule="evenodd" d="M95.54 49.64C95.54 58.7182 92.848 67.5925 87.8045 75.1407C82.7609 82.6889 75.5923 88.572 67.2052 92.0461C58.818 95.5201 49.5891 96.4291 40.6854 94.658C31.7816 92.887 23.603 88.5154 17.1838 82.0962C10.7646 75.677 6.39302 67.4984 4.62196 58.5946C2.85089 49.6909 3.75987 40.462 7.23393 32.0748C10.708 23.6877 16.5911 16.5191 24.1393 11.4755C31.6875 6.43199 40.5618 3.74 49.64 3.74C55.6677 3.73998 61.6363 4.9272 67.2052 7.23388C72.774 9.54057 77.834 12.9215 82.0963 17.1837C86.3585 21.446 89.7394 26.5059 92.0461 32.0748C94.3528 37.6437 95.54 43.6123 95.54 49.64V49.64ZM49.64 3.62732e-07C59.4579 3.62732e-07 69.0553 2.91134 77.2185 8.36585C85.3818 13.8204 91.7442 21.5731 95.5014 30.6436C99.2585 39.7141 100.242 49.6951 98.3262 59.3243C96.4108 68.9535 91.6831 77.7985 84.7408 84.7408C77.7985 91.6831 68.9535 96.4108 59.3243 98.3262C49.6951 100.242 39.7141 99.2585 30.6436 95.5014C21.5731 91.7442 13.8204 85.3818 8.36585 77.2185C2.91134 69.0553 3.62732e-07 59.4579 3.62732e-07 49.64C-0.000787738 43.121 1.28265 36.6656 3.77702 30.6427C6.27138 24.6197 9.9278 19.1471 14.5375 14.5375C19.1471 9.9278 24.6197 6.27138 30.6427 3.77702C36.6656 1.28265 43.121 -0.000787738 49.64 3.62732e-07V3.62732e-07Z" fill="#F2F1F0"/>
<path fill-rule="evenodd" clip-rule="evenodd" d="M92.7296 49.6406C92.7296 58.163 90.2024 66.494 85.4676 73.5801C80.7328 80.6662 74.0031 86.1892 66.1294 89.4505C58.2557 92.7119 49.5918 93.5653 41.2331 91.9026C32.8745 90.24 25.1966 86.1361 19.1703 80.1098C13.1441 74.0836 9.04017 66.4057 7.37753 58.047C5.7149 49.6884 6.56822 41.0244 9.8296 33.1507C13.091 25.2771 18.6139 18.5473 25.7 13.8126C32.7862 9.07776 41.1172 6.55058 49.6396 6.55058C55.2983 6.55023 60.9017 7.66455 66.1298 9.82991C71.3579 11.9953 76.1082 15.1692 80.1096 19.1706C84.1109 23.1719 87.2849 27.9223 89.4502 33.1503C91.6156 38.3784 92.7299 43.9818 92.7296 49.6406V49.6406ZM49.6396 2.81058C58.9017 2.81058 67.9558 5.55711 75.6569 10.7029C83.3581 15.8486 89.3604 23.1624 92.9049 31.7195C96.4493 40.2766 97.3767 49.6925 95.5697 58.7767C93.7628 67.8608 89.3027 76.2051 82.7534 82.7544C76.2041 89.3037 67.8598 93.7638 58.7757 95.5708C49.6915 97.3777 40.2756 96.4503 31.7185 92.9059C23.1614 89.3614 15.8476 83.3591 10.7018 75.6579C5.5561 67.9568 2.80957 58.9027 2.80957 49.6406C2.81076 37.2209 7.745 25.3101 16.5271 16.5281C25.3091 7.74599 37.2198 2.81174 49.6396 2.81055V2.81058Z" fill="#0078D4"/>
<path fill-rule="evenodd" clip-rule="evenodd" d="M92.7296 49.6396C92.7296 58.162 90.2024 66.493 85.4676 73.5791C80.7328 80.6652 74.0031 86.1882 66.1294 89.4495C58.2557 92.7109 49.5918 93.5642 41.2331 91.9016C32.8745 90.239 25.1966 86.135 19.1703 80.1088C13.1441 74.0826 9.04017 66.4047 7.37753 58.046C5.7149 49.6874 6.56822 41.0234 9.8296 33.1497C13.091 25.2761 18.6139 18.5463 25.7001 13.8115C32.7862 9.07675 41.1172 6.54957 49.6396 6.54957C55.2983 6.54923 60.9017 7.66355 66.1298 9.8289C71.3579 11.9943 76.1082 15.1682 80.1096 19.1696C84.1109 23.1709 87.2849 27.9213 89.4502 33.1493C91.6156 38.3774 92.7299 43.9808 92.7296 49.6396V49.6396ZM49.6396 2.80957C58.9017 2.80957 67.9558 5.5561 75.6569 10.7018C83.3581 15.8476 89.3604 23.1614 92.9048 31.7185C96.4493 40.2756 97.3767 49.6915 95.5697 58.7757C93.7628 67.8598 89.3027 76.2041 82.7534 82.7534C76.2041 89.3027 67.8598 93.7628 58.7757 95.5697C49.6915 97.3767 40.2756 96.4493 31.7185 92.9049C23.1614 89.3604 15.8476 83.3581 10.7018 75.6569C5.5561 67.9558 2.80957 58.9017 2.80957 49.6396C2.81076 37.2198 7.74501 25.3091 16.5271 16.5271C25.3091 7.74501 37.2198 2.81076 49.6396 2.80957V2.80957Z" fill="#0078D4"/>
<path fill-rule="evenodd" clip-rule="evenodd" d="M45.2791 48.0391H32.3091C31.6545 48.041 31.0272 48.3019 30.5643 48.7648C30.1014 49.2276 29.8405 49.8549 29.8386 50.5095V56.6857H69.3661V54.2152C69.3643 53.5606 69.1035 52.9333 68.6406 52.4703C68.1776 52.0074 67.5503 51.7466 66.8957 51.7448H48.3672L45.2791 48.0391Z" fill="#CC9547"/>
<path fill-rule="evenodd" clip-rule="evenodd" d="M37.6917 26.2979C36.9942 26.2999 36.3258 26.5779 35.8326 27.0711C35.3394 27.5643 35.0614 28.2327 35.0593 28.9302V65.7837C35.0614 66.4813 35.3394 67.1496 35.8326 67.6429C36.3258 68.1361 36.9942 68.4141 37.6917 68.4161H62.6994C63.397 68.4142 64.0654 68.1363 64.5587 67.643C65.0519 67.1497 65.3299 66.4813 65.3318 65.7837V36.8274L54.8023 26.2979H37.6917Z" fill="white"/>
<path fill-rule="evenodd" clip-rule="evenodd" d="M57.4346 36.8274H65.3318L54.8022 26.2979V34.195C54.8043 34.8925 55.0823 35.5609 55.5755 36.0542C56.0687 36.5474 56.7371 36.8254 57.4346 36.8274V36.8274Z" fill="#E8E8E8"/>
<path fill-rule="evenodd" clip-rule="evenodd" d="M58.7508 44.7242H41.6402C41.2918 44.7232 40.9579 44.5841 40.7119 44.3374C40.4658 44.0907 40.3276 43.7564 40.3276 43.408C40.3276 43.0595 40.4658 42.7253 40.7119 42.4786C40.9579 42.2319 41.2918 42.0928 41.6402 42.0918H58.7508C59.0992 42.0928 59.4331 42.2319 59.6791 42.4786C59.9252 42.7253 60.0633 43.0595 60.0633 43.408C60.0633 43.7564 59.9252 44.0907 59.6791 44.3374C59.4331 44.5841 59.0992 44.7232 58.7508 44.7242V44.7242Z" fill="#0078D4"/>
<path fill-rule="evenodd" clip-rule="evenodd" d="M58.7508 50.647H41.6402C41.2918 50.6461 40.9579 50.507 40.7119 50.2603C40.4658 50.0135 40.3276 49.6793 40.3276 49.3308C40.3276 48.9824 40.4658 48.6482 40.7119 48.4014C40.9579 48.1547 41.2918 48.0156 41.6402 48.0146H58.7508C59.0992 48.0156 59.4331 48.1547 59.6791 48.4014C59.9252 48.6482 60.0633 48.9824 60.0633 49.3308C60.0633 49.6793 59.9252 50.0135 59.6791 50.2603C59.4331 50.507 59.0992 50.6461 58.7508 50.647V50.647Z" fill="#50E6FF"/>
<path fill-rule="evenodd" clip-rule="evenodd" d="M58.7508 56.5699H41.6402C41.2918 56.5689 40.9579 56.4298 40.7119 56.1831C40.4658 55.9364 40.3276 55.6021 40.3276 55.2537C40.3276 54.9052 40.4658 54.571 40.7119 54.3243C40.9579 54.0776 41.2918 53.9385 41.6402 53.9375H58.7508C59.0992 53.9385 59.4331 54.0776 59.6791 54.3243C59.9252 54.571 60.0633 54.9052 60.0633 55.2537C60.0633 55.6021 59.9252 55.9364 59.6791 56.1831C59.4331 56.4298 59.0992 56.5689 58.7508 56.5699V56.5699Z" fill="#9CEBFF"/>
<path fill-rule="evenodd" clip-rule="evenodd" d="M58.7508 62.4937H41.6402C41.2918 62.4928 40.9579 62.3537 40.7119 62.1069C40.4658 61.8602 40.3276 61.526 40.3276 61.1775C40.3276 60.8291 40.4658 60.4948 40.7119 60.2481C40.9579 60.0014 41.2918 59.8623 41.6402 59.8613H58.7508C59.0992 59.8623 59.4331 60.0014 59.6791 60.2481C59.9252 60.4948 60.0633 60.8291 60.0633 61.1775C60.0633 61.526 59.9252 61.8602 59.6791 62.1069C59.4331 62.3537 59.0992 62.4928 58.7508 62.4937V62.4937Z" fill="#C3F1FF"/>
<path d="M43.304 30.4795C43.4612 30.4795 43.6119 30.542 43.7231 30.6532C43.8342 30.7643 43.8967 30.9151 43.8967 31.0723V37.9244C43.8967 38.0816 43.8343 38.2324 43.7231 38.3435C43.612 38.4547 43.4612 38.5172 43.304 38.5172C43.1467 38.5172 42.996 38.4547 42.8848 38.3435C42.7736 38.2324 42.7112 38.0816 42.7112 37.9244V31.0723C42.7112 30.9151 42.7737 30.7643 42.8848 30.6532C42.996 30.542 43.1468 30.4795 43.304 30.4795V30.4795Z" fill="#0078D4"/>
<path d="M43.3039 30.4795C43.4211 30.4795 43.5357 30.5143 43.6332 30.5794C43.7306 30.6446 43.8066 30.7371 43.8515 30.8454C43.8963 30.9538 43.9081 31.0729 43.8852 31.1879C43.8623 31.3029 43.8059 31.4085 43.723 31.4914L41.2315 33.9825C41.1202 34.0932 40.9696 34.1553 40.8127 34.1551C40.6557 34.1549 40.5053 34.0925 40.3943 33.9815C40.2833 33.8705 40.2209 33.72 40.2207 33.5631C40.2205 33.4062 40.2826 33.2556 40.3932 33.1443L42.8848 30.6532C42.9397 30.598 43.0051 30.5543 43.077 30.5244C43.1489 30.4946 43.226 30.4794 43.3039 30.4795Z" fill="#0078D4"/>
<path d="M43.3041 30.4795C43.382 30.4794 43.4591 30.4946 43.531 30.5245C43.603 30.5543 43.6683 30.598 43.7232 30.6532L46.2148 33.1443C46.27 33.1993 46.3139 33.2646 46.3439 33.3366C46.3738 33.4086 46.3893 33.4858 46.3894 33.5637C46.3895 33.6417 46.3742 33.7189 46.3444 33.791C46.3147 33.863 46.2709 33.9285 46.2158 33.9836C46.1607 34.0387 46.0952 34.0824 46.0232 34.1122C45.9511 34.142 45.8739 34.1573 45.7959 34.1572C45.718 34.1571 45.6408 34.1416 45.5688 34.1116C45.4969 34.0817 45.4315 34.0378 45.3765 33.9825L42.885 31.4914C42.8021 31.4085 42.7457 31.3029 42.7228 31.1879C42.6999 31.0729 42.7117 30.9537 42.7565 30.8454C42.8014 30.7371 42.8774 30.6446 42.9748 30.5794C43.0723 30.5143 43.1869 30.4795 43.3041 30.4795Z" fill="#0078D4"/>
<path fill-rule="evenodd" clip-rule="evenodd" d="M72.2223 59.1101L69.6713 76.8018C69.5865 77.3898 69.2926 77.9276 68.8435 78.3166C68.3945 78.7056 67.8203 78.9197 67.2261 78.9197H31.9782C31.3841 78.9197 30.8099 78.7056 30.3608 78.3166C29.9117 77.9277 29.6179 77.3899 29.5331 76.8018L26.9821 59.1101C26.9315 58.7595 26.957 58.4022 27.0567 58.0623C27.1564 57.7224 27.328 57.4079 27.5599 57.1401C27.7918 56.8724 28.0786 56.6576 28.4008 56.5105C28.723 56.3633 29.073 56.2871 29.4273 56.2871H69.7771C70.1313 56.2871 70.4813 56.3633 70.8035 56.5104C71.1257 56.6576 71.4125 56.8724 71.6444 57.1401C71.8763 57.4078 72.048 57.7223 72.1477 58.0622C72.2474 58.4021 72.2728 58.7595 72.2223 59.1101V59.1101Z" fill="#EFB252"/>
<path opacity="0.2" d="M69.3661 55.1416H29.8386V56.2871H69.3661V55.1416Z" fill="#767676"/>
<path d="M46.2741 62.0752L47.3691 64.6152L42.5691 68.4682L46.2741 62.0752Z" fill="#CC9547"/>
<path d="M46.2151 74.9317L47.5441 72.3027L53.5951 74.9317H46.2151Z" fill="#CC9547"/>
<path d="M42.5691 68.4678L46.2151 74.9318L47.5441 72.3028L42.5691 68.4678Z" fill="#CC9547"/>
<path d="M42.5691 68.4682L47.3691 64.6152L47.5441 72.3032L42.5691 68.4682Z" fill="#CC9547"/>
<path d="M47.3689 64.6152L53.5219 62.0752H46.2739L47.3689 64.6152Z" fill="#CC9547"/>
<path d="M47.3689 64.6152L54.0309 68.5032L47.5439 72.3032L47.3689 64.6152Z" fill="#CC9547"/>
<path d="M53.5219 62.0752L57.3729 68.5032H54.0309L47.3689 64.6152L53.5219 62.0752Z" fill="#CC9547"/>
<path d="M54.031 68.5032L53.522 62.0752L57.373 68.5032H54.031Z" fill="#CC9547"/>
<path d="M54.031 68.5029L53.595 74.9319L57.373 68.5029H54.031Z" fill="#CC9547"/>
<path d="M54.0309 68.5029L53.5949 74.9319L47.5439 72.3029L54.0309 68.5029Z" fill="#CC9547"/>
<path d="M57.4972 68.5017C57.4957 68.4921 57.4931 68.4827 57.4895 68.4737C57.4882 68.4625 57.4853 68.4515 57.4809 68.4411L57.4799 68.44L57.4796 68.439L53.6281 62.0105C53.6221 62.0031 53.6153 61.9964 53.6078 61.9907C53.6031 61.9851 53.5979 61.98 53.5922 61.9754C53.5858 61.9707 53.579 61.9667 53.5718 61.9634L53.5629 61.9583C53.5489 61.958 53.535 61.9553 53.5219 61.9502H46.2736C46.2613 61.9513 46.2492 61.9544 46.2378 61.9592C46.2197 61.9643 46.2034 61.9741 46.1903 61.9876C46.1829 61.9929 46.1761 61.9991 46.1702 62.0059L46.1689 62.0095L46.1664 62.0121L42.4616 68.4059L42.4604 68.4107C42.4565 68.4193 42.4537 68.4284 42.452 68.4377L42.4482 68.4549L42.4477 68.457L42.4452 68.4684L42.4451 68.4692L42.4481 68.4818L42.4519 68.4978C42.4535 68.5075 42.4563 68.517 42.4602 68.5261L42.461 68.5289L46.1073 74.9919L46.1089 74.9936L46.1097 74.996C46.1178 75.0069 46.1277 75.0163 46.1389 75.024C46.1443 75.0284 46.1479 75.0348 46.1539 75.0383C46.1725 75.0491 46.1937 75.0548 46.2152 75.0549H53.5954C53.6169 75.0549 53.638 75.0492 53.6567 75.0386L53.6656 75.0299C53.6713 75.0253 53.6766 75.0201 53.6813 75.0144C53.6891 75.0084 53.6961 75.0015 53.7022 74.9937L57.4804 68.5654L57.4806 68.5645L57.4814 68.5637C57.4857 68.5533 57.4885 68.5424 57.4897 68.5312C57.4933 68.5221 57.4958 68.5126 57.4972 68.5029L57.4972 68.5017ZM47.6469 64.6336L53.4119 62.2535L53.8889 68.2762L47.6469 64.6336ZM47.2504 64.8682L47.2774 66.0541L47.4137 72.0456L42.769 68.4659L43.3284 68.0168L47.2504 64.8682ZM47.4972 64.8333L53.7855 68.5029L47.6626 72.0889L47.4972 64.8333ZM54.1454 68.3787L53.6869 62.5908L57.1547 68.3787H54.1454ZM46.2574 62.3492L47.2173 64.5771L43.0088 67.9557L46.2453 62.3699L46.2574 62.3492ZM42.9768 68.9389L47.3867 72.3376L46.2091 74.6682L44.4651 71.5769L42.9768 68.9389ZM53.8919 68.7277L53.4837 74.7475L47.8166 72.2857L53.8919 68.7277ZM54.1467 68.6266H57.1569L53.7542 74.4159L54.1467 68.6266ZM52.8972 62.198L47.434 64.4535L46.4619 62.198L52.8972 62.198ZM46.4164 74.8071L47.6014 72.4622L52.9995 74.8071H46.4164Z" fill="#CC9547"/>
<path d="M47.3686 65.3799C47.7909 65.3799 48.1333 65.0375 48.1333 64.6152C48.1333 64.1929 47.7909 63.8506 47.3686 63.8506C46.9463 63.8506 46.604 64.1929 46.604 64.6152C46.604 65.0375 46.9463 65.3799 47.3686 65.3799Z" fill="#CC9547"/>
<path d="M47.5437 73.0674C47.966 73.0674 48.3083 72.725 48.3083 72.3027C48.3083 71.8804 47.966 71.5381 47.5437 71.5381C47.1214 71.5381 46.7791 71.8804 46.7791 72.3027C46.7791 72.725 47.1214 73.0674 47.5437 73.0674Z" fill="#CC9547"/>
<path d="M54.0312 69.3467C54.4535 69.3467 54.7959 69.0043 54.7959 68.582C54.7959 68.1597 54.4535 67.8174 54.0312 67.8174C53.6089 67.8174 53.2666 68.1597 53.2666 68.582C53.2666 69.0043 53.6089 69.3467 54.0312 69.3467Z" fill="#CC9547"/>
<path d="M46.2741 61.3008L47.3691 63.8408L42.5691 67.6948L46.2741 61.3008Z" fill="url(#paint1_linear)"/>
<path d="M46.2151 74.1583L47.5441 71.5293L53.5951 74.1583H46.2151Z" fill="url(#paint2_linear)"/>
<path d="M42.5691 67.6953L46.2151 74.1583L47.5441 71.5293L42.5691 67.6953Z" fill="url(#paint3_linear)"/>
<path d="M42.5691 67.6948L47.3691 63.8408L47.5441 71.5288L42.5691 67.6948Z" fill="url(#paint4_linear)"/>
<path d="M47.3689 63.8408L53.5219 61.3008H46.2739L47.3689 63.8408Z" fill="url(#paint5_linear)"/>
<path d="M47.3689 63.8408L54.0309 67.7288L47.5439 71.5288L47.3689 63.8408Z" fill="url(#paint6_linear)"/>
<path d="M53.5219 61.3008L57.3729 67.7288H54.0309L47.3689 63.8408L53.5219 61.3008Z" fill="url(#paint7_linear)"/>
<path d="M54.031 67.7288L53.522 61.3008L57.373 67.7288H54.031Z" fill="url(#paint8_linear)"/>
<path d="M54.031 67.7285L53.595 74.1575L57.373 67.7285H54.031Z" fill="url(#paint9_linear)"/>
<path d="M54.0309 67.7285L53.5949 74.1575L47.5439 71.5285L54.0309 67.7285Z" fill="url(#paint10_linear)"/>
<path d="M57.4972 67.7282C57.4958 67.7186 57.4932 67.7092 57.4895 67.7002C57.4882 67.689 57.4853 67.678 57.481 67.6676L57.4799 67.6665L57.4796 67.6656L53.6281 61.2371C53.6221 61.2297 53.6153 61.223 53.6078 61.2173C53.6031 61.2117 53.5979 61.2066 53.5922 61.202C53.5859 61.1973 53.5791 61.1933 53.5719 61.19L53.563 61.1848C53.5579 61.1841 53.5529 61.1837 53.5478 61.1836C53.5395 61.1804 53.5308 61.1781 53.5219 61.1768H46.2736C46.2613 61.1779 46.2492 61.1809 46.2378 61.1858C46.2197 61.1909 46.2034 61.2007 46.1903 61.2141C46.1829 61.2195 46.1761 61.2256 46.1701 61.2325L46.1689 61.236L46.1664 61.2386L42.4616 67.6325L42.4604 67.6372C42.4565 67.6459 42.4537 67.6549 42.452 67.6642L42.4482 67.6815L42.4477 67.6836L42.4452 67.695L42.4451 67.6957L42.4481 67.7083L42.4519 67.7243C42.4535 67.734 42.4563 67.7435 42.4602 67.7526L42.461 67.7554L46.1073 74.2184L46.1089 74.2201L46.1097 74.2225C46.1178 74.2334 46.1277 74.2429 46.1389 74.2505C46.1443 74.2549 46.1479 74.2613 46.1539 74.2648C46.1725 74.2756 46.1937 74.2813 46.2152 74.2814H53.5954C53.6169 74.2814 53.638 74.2758 53.6566 74.2651L53.6656 74.2565C53.6713 74.2518 53.6766 74.2466 53.6813 74.2409C53.6891 74.2349 53.6961 74.228 53.7022 74.2202L57.4804 67.7919L57.4806 67.791L57.4814 67.7902C57.4857 67.7798 57.4885 67.7689 57.4897 67.7577C57.4933 67.7486 57.4958 67.7391 57.4972 67.7294L57.4972 67.7282ZM47.647 63.8601L53.412 61.48L53.889 67.5027L47.647 63.8601ZM47.2504 64.0947L47.2774 65.2807L47.4138 71.2721L42.7691 67.6924L43.3284 67.2433L47.2504 64.0947ZM47.4973 64.0598L53.7856 67.7294L47.6626 71.3154L47.4973 64.0598ZM54.1454 67.6052L53.6869 61.8173L57.1548 67.6052H54.1454ZM46.2574 61.5757L47.2173 63.8036L43.0088 67.1822L46.2454 61.5964L46.2574 61.5757ZM42.9768 68.1654L47.3867 71.5641L46.2091 73.8946L44.4651 70.8034L42.9768 68.1654ZM53.8919 67.9542L53.4838 73.974L47.8167 71.5122L53.8919 67.9542ZM54.1468 67.8531H57.157L53.7542 73.6424L54.1468 67.8531ZM52.8972 61.4245L47.434 63.68L46.462 61.4245H52.8972ZM46.4165 74.0336L47.6015 71.6888L52.9996 74.0336H46.4165Z" fill="#50E6FF"/>
<path d="M47.3686 64.6064C47.7909 64.6064 48.1333 64.2641 48.1333 63.8418C48.1333 63.4195 47.7909 63.0771 47.3686 63.0771C46.9463 63.0771 46.604 63.4195 46.604 63.8418C46.604 64.2641 46.9463 64.6064 47.3686 64.6064Z" fill="#50E6FF"/>
<path d="M47.5437 72.2939C47.966 72.2939 48.3083 71.9516 48.3083 71.5293C48.3083 71.107 47.966 70.7646 47.5437 70.7646C47.1214 70.7646 46.7791 71.107 46.7791 71.5293C46.7791 71.9516 47.1214 72.2939 47.5437 72.2939Z" fill="#50E6FF"/>
<path d="M54.0312 68.5722C54.4535 68.5722 54.7959 68.2299 54.7959 67.8076C54.7959 67.3853 54.4535 67.043 54.0312 67.043C53.6089 67.043 53.2666 67.3853 53.2666 67.8076C53.2666 68.2299 53.6089 68.5722 54.0312 68.5722Z" fill="#50E6FF"/>
<path opacity="0.2" d="M65.3318 26.2979H52.4561C52.3072 26.7108 52.1856 27.1331 52.0921 27.5621C50.8548 28.2808 49.889 29.3875 49.3443 30.7107C48.7997 32.0339 48.7066 33.4998 49.0794 34.8813C49.4523 36.2628 50.2703 37.4828 51.4067 38.3523C52.5431 39.2219 53.9346 39.6924 55.3655 39.691H65.3318V26.2979Z" fill="#B3B3B3"/>
<path d="M69.4018 37.6904H55.3658C54.2982 37.6923 53.2647 37.3148 52.4496 36.6254C51.6345 35.936 51.0908 34.9795 50.9154 33.9264C50.7401 32.8733 50.9445 31.7922 51.4922 30.8759C52.04 29.9595 52.8954 29.2676 53.906 28.9234C54.0878 26.9551 54.9909 25.1236 56.4415 23.781C57.8922 22.4384 59.788 21.6795 61.7644 21.6503C63.7408 21.6211 65.6583 22.3236 67.148 23.6227C68.6377 24.9219 69.5945 26.7259 69.8344 28.6879C70.9881 28.7992 72.0547 29.3501 72.8131 30.2266C73.5715 31.103 73.9635 32.2377 73.9079 33.3954C73.8522 34.5531 73.3532 35.6449 72.5142 36.4446C71.6753 37.2443 70.5607 37.6904 69.4017 37.6904H69.4018Z" fill="white"/>
<path fill-rule="evenodd" clip-rule="evenodd" d="M65.6521 35.7606H58.7437C58.5768 35.7599 58.4168 35.6931 58.299 35.5748C58.1812 35.4565 58.115 35.2963 58.115 35.1293C58.115 34.9623 58.1812 34.8021 58.299 34.6838C58.4168 34.5655 58.5768 34.4987 58.7437 34.498H65.6521C65.8191 34.4987 65.979 34.5655 66.0968 34.6838C66.2147 34.8021 66.2808 34.9623 66.2808 35.1293C66.2808 35.2963 66.2147 35.4565 66.0968 35.5748C65.979 35.6931 65.8191 35.7599 65.6521 35.7606Z" fill="#0078D4"/>
<path d="M62.1978 32.6871C62.0406 32.687 61.8898 32.6246 61.7786 32.5134C61.6675 32.4022 61.605 32.2515 61.605 32.0943V25.2422C61.605 25.085 61.6674 24.9342 61.7786 24.823C61.8898 24.7119 62.0405 24.6494 62.1978 24.6494C62.355 24.6494 62.5057 24.7119 62.6169 24.823C62.7281 24.9342 62.7905 25.085 62.7905 25.2422V32.0943C62.7905 32.2515 62.728 32.4022 62.6169 32.5134C62.5057 32.6246 62.355 32.687 62.1978 32.6871V32.6871Z" fill="#0078D4"/>
<path d="M62.1979 32.6873C62.0807 32.6873 61.9661 32.6525 61.8686 32.5874C61.7712 32.5222 61.6952 32.4297 61.6503 32.3214C61.6055 32.2131 61.5937 32.0939 61.6166 31.9789C61.6395 31.8639 61.6959 31.7583 61.7788 31.6754L64.2703 29.1843C64.3816 29.0736 64.5322 29.0115 64.6891 29.0117C64.8461 29.0119 64.9965 29.0743 65.1075 29.1853C65.2185 29.2963 65.2809 29.4468 65.2811 29.6037C65.2813 29.7606 65.2192 29.9112 65.1086 30.0225L62.617 32.5136C62.5621 32.5688 62.4967 32.6125 62.4248 32.6424C62.3529 32.6722 62.2758 32.6874 62.1979 32.6873V32.6873Z" fill="#0078D4"/>
<path d="M62.1977 32.6873C62.1198 32.6874 62.0427 32.6722 61.9708 32.6424C61.8989 32.6125 61.8335 32.5688 61.7786 32.5136L59.2871 30.0225C59.1764 29.9112 59.1143 29.7606 59.1145 29.6037C59.1147 29.4468 59.1771 29.2963 59.2881 29.1853C59.3991 29.0743 59.5495 29.0119 59.7065 29.0117C59.8634 29.0115 60.014 29.0736 60.1253 29.1843L62.6168 31.6754C62.6997 31.7583 62.7561 31.8639 62.779 31.9789C62.8019 32.0939 62.7901 32.2131 62.7453 32.3214C62.7004 32.4297 62.6244 32.5222 62.527 32.5874C62.4295 32.6525 62.3149 32.6873 62.1977 32.6873V32.6873Z" fill="#0078D4"/>
</g>
<defs>
<linearGradient id="paint0_linear" x1="47.8698" y1="-15.153" x2="51.8525" y2="130.615" gradientUnits="userSpaceOnUse">
<stop stop-color="#00ABDE"/>
<stop offset="1" stop-color="#007ED8"/>
</linearGradient>
<linearGradient id="paint1_linear" x1="47.2294" y1="61.8525" x2="43.5346" y2="68.2521" gradientUnits="userSpaceOnUse">
<stop stop-color="#008BF1"/>
<stop offset="0.22" stop-color="#0086EC"/>
<stop offset="0.49" stop-color="#0078DD"/>
<stop offset="0.79" stop-color="#0061C4"/>
<stop offset="1" stop-color="#004DAE"/>
</linearGradient>
<linearGradient id="paint2_linear" x1="53.3804" y1="71.7562" x2="52.8514" y2="75.1828" gradientUnits="userSpaceOnUse">
<stop stop-color="#008BF1"/>
<stop offset="0.22" stop-color="#0086EC"/>
<stop offset="0.49" stop-color="#0078DD"/>
<stop offset="0.79" stop-color="#0061C4"/>
<stop offset="1" stop-color="#004DAE"/>
</linearGradient>
<linearGradient id="paint3_linear" x1="47.3994" y1="68.2532" x2="43.7124" y2="74.8019" gradientUnits="userSpaceOnUse">
<stop stop-color="#008BF1"/>
<stop offset="0.22" stop-color="#0086EC"/>
<stop offset="0.49" stop-color="#0078DD"/>
<stop offset="0.79" stop-color="#0061C4"/>
<stop offset="1" stop-color="#004DAE"/>
</linearGradient>
<linearGradient id="paint4_linear" x1="47.3994" y1="64.5045" x2="42.6561" y2="71.5869" gradientUnits="userSpaceOnUse">
<stop stop-color="#008BF1"/>
<stop offset="0.22" stop-color="#0086EC"/>
<stop offset="0.49" stop-color="#0078DD"/>
<stop offset="0.79" stop-color="#0061C4"/>
<stop offset="1" stop-color="#004DAE"/>
</linearGradient>
<linearGradient id="paint5_linear" x1="53.3111" y1="61.52" x2="52.8079" y2="64.8331" gradientUnits="userSpaceOnUse">
<stop stop-color="#008BF1"/>
<stop offset="0.22" stop-color="#0086EC"/>
<stop offset="0.49" stop-color="#0078DD"/>
<stop offset="0.79" stop-color="#0061C4"/>
<stop offset="1" stop-color="#004DAE"/>
</linearGradient>
<linearGradient id="paint6_linear" x1="53.8371" y1="64.5045" x2="49.7328" y2="72.7109" gradientUnits="userSpaceOnUse">
<stop stop-color="#008BF1"/>
<stop offset="0.22" stop-color="#0086EC"/>
<stop offset="0.49" stop-color="#0078DD"/>
<stop offset="0.79" stop-color="#0061C4"/>
<stop offset="1" stop-color="#004DAE"/>
</linearGradient>
<linearGradient id="paint7_linear" x1="57.0819" y1="61.8557" x2="54.8651" y2="69.8161" gradientUnits="userSpaceOnUse">
<stop stop-color="#008BF1"/>
<stop offset="0.22" stop-color="#0086EC"/>
<stop offset="0.49" stop-color="#0078DD"/>
<stop offset="0.79" stop-color="#0061C4"/>
<stop offset="1" stop-color="#004DAE"/>
</linearGradient>
<linearGradient id="paint8_linear" x1="57.2609" y1="61.8557" x2="53.1875" y2="67.4867" gradientUnits="userSpaceOnUse">
<stop stop-color="#008BF1"/>
<stop offset="0.22" stop-color="#0086EC"/>
<stop offset="0.49" stop-color="#0078DD"/>
<stop offset="0.79" stop-color="#0061C4"/>
<stop offset="1" stop-color="#004DAE"/>
</linearGradient>
<linearGradient id="paint9_linear" x1="57.2631" y1="68.2835" x2="53.165" y2="73.8403" gradientUnits="userSpaceOnUse">
<stop stop-color="#008BF1"/>
<stop offset="0.22" stop-color="#0086EC"/>
<stop offset="0.49" stop-color="#0078DD"/>
<stop offset="0.79" stop-color="#0061C4"/>
<stop offset="1" stop-color="#004DAE"/>
</linearGradient>
<linearGradient id="paint10_linear" x1="53.8422" y1="68.2835" x2="50.7313" y2="75.5264" gradientUnits="userSpaceOnUse">
<stop stop-color="#008BF1"/>
<stop offset="0.22" stop-color="#0086EC"/>
<stop offset="0.49" stop-color="#0078DD"/>
<stop offset="0.79" stop-color="#0061C4"/>
<stop offset="1" stop-color="#004DAE"/>
</linearGradient>
<clipPath id="clip0">
<rect width="99.2799" height="99.28" fill="white"/>
</clipPath>
</defs>
</svg>
