<svg width="100" height="100" viewBox="0 0 100 100" fill="none" xmlns="https://www.w3.org/2000/svg">
<g clip-path="url(#clip0)">
<path d="M49.6401 96.4501C40.382 96.4501 31.3317 93.7047 23.6339 88.5612C15.936 83.4176 9.93624 76.1069 6.3933 67.5535C2.85036 59.0001 1.92337 49.5882 3.72954 40.5079C5.53571 31.4277 9.99394 23.0869 16.5404 16.5404C23.0869 9.99393 31.4277 5.53571 40.5079 3.72954C49.5882 1.92337 59.0001 2.85036 67.5535 6.3933C76.1069 9.93624 83.4176 15.936 88.5612 23.6339C93.7047 31.3317 96.4501 40.382 96.4501 49.6401C96.4505 55.7874 95.24 61.8746 92.8878 67.554C90.5355 73.2335 87.0875 78.3939 82.7407 82.7407C78.3939 87.0875 73.2335 90.5355 67.554 92.8878C61.8746 95.24 55.7874 96.4505 49.6401 96.4501V96.4501Z" fill="url(#paint0_linear)"/>
<path fill-rule="evenodd" clip-rule="evenodd" d="M95.54 49.64C95.54 58.7182 92.848 67.5925 87.8045 75.1407C82.7609 82.6889 75.5923 88.572 67.2052 92.0461C58.818 95.5201 49.5891 96.4291 40.6854 94.658C31.7816 92.887 23.603 88.5154 17.1838 82.0962C10.7646 75.677 6.39302 67.4984 4.62196 58.5946C2.85089 49.6909 3.75987 40.462 7.23393 32.0748C10.708 23.6877 16.5911 16.5191 24.1393 11.4755C31.6875 6.43199 40.5618 3.74 49.64 3.74C55.6677 3.73998 61.6363 4.9272 67.2052 7.23388C72.774 9.54057 77.834 12.9215 82.0963 17.1837C86.3585 21.446 89.7394 26.5059 92.0461 32.0748C94.3528 37.6437 95.54 43.6123 95.54 49.64V49.64ZM49.64 3.62732e-07C59.4579 3.62732e-07 69.0553 2.91134 77.2185 8.36585C85.3818 13.8204 91.7442 21.5731 95.5014 30.6436C99.2585 39.7141 100.242 49.6951 98.3262 59.3243C96.4108 68.9535 91.6831 77.7985 84.7408 84.7408C77.7985 91.6831 68.9535 96.4108 59.3243 98.3262C49.6951 100.242 39.7141 99.2585 30.6436 95.5014C21.5731 91.7442 13.8204 85.3818 8.36585 77.2185C2.91134 69.0553 3.62732e-07 59.4579 3.62732e-07 49.64C-0.000787738 43.121 1.28265 36.6656 3.77702 30.6427C6.27138 24.6197 9.9278 19.1471 14.5375 14.5375C19.1471 9.9278 24.6197 6.27138 30.6427 3.77702C36.6656 1.28265 43.121 -0.000787738 49.64 3.62732e-07V3.62732e-07Z" fill="#F2F1F0"/>
<path fill-rule="evenodd" clip-rule="evenodd" d="M92.7296 49.6406C92.7296 58.163 90.2024 66.494 85.4676 73.5801C80.7328 80.6662 74.0031 86.1892 66.1294 89.4505C58.2557 92.7119 49.5918 93.5653 41.2331 91.9026C32.8745 90.24 25.1966 86.1361 19.1703 80.1098C13.1441 74.0836 9.04017 66.4057 7.37753 58.047C5.7149 49.6884 6.56822 41.0244 9.8296 33.1507C13.091 25.2771 18.6139 18.5473 25.7 13.8126C32.7862 9.07776 41.1172 6.55058 49.6396 6.55058C55.2983 6.55023 60.9017 7.66455 66.1298 9.82991C71.3579 11.9953 76.1082 15.1692 80.1096 19.1706C84.1109 23.1719 87.2849 27.9223 89.4502 33.1503C91.6156 38.3784 92.7299 43.9818 92.7296 49.6406V49.6406ZM49.6396 2.81058C58.9017 2.81058 67.9558 5.55711 75.6569 10.7029C83.3581 15.8486 89.3604 23.1624 92.9049 31.7195C96.4493 40.2766 97.3767 49.6925 95.5697 58.7767C93.7628 67.8608 89.3027 76.2051 82.7534 82.7544C76.2041 89.3037 67.8598 93.7638 58.7757 95.5708C49.6915 97.3777 40.2756 96.4503 31.7185 92.9059C23.1614 89.3614 15.8476 83.3591 10.7018 75.6579C5.5561 67.9568 2.80957 58.9027 2.80957 49.6406C2.81076 37.2209 7.745 25.3101 16.5271 16.5281C25.3091 7.74599 37.2198 2.81174 49.6396 2.81055V2.81058Z" fill="#0078D4"/>
<path fill-rule="evenodd" clip-rule="evenodd" d="M24.7141 35.6436V66.2887C24.7162 66.9948 24.9976 67.6714 25.4969 68.1707C25.9962 68.67 26.6728 68.9514 27.3789 68.9534H59.3564L67.3508 60.9591V35.6436H24.7141Z" fill="white"/>
<path fill-rule="evenodd" clip-rule="evenodd" d="M67.3508 27.6498C67.3497 27.2967 67.209 26.9584 66.9594 26.7088C66.7097 26.4591 66.3714 26.3184 66.0184 26.3174H26.0465C25.6934 26.3184 25.3551 26.4591 25.1055 26.7088C24.8559 26.9584 24.7151 27.2967 24.7141 27.6498V34.3118H67.3508V27.6498Z" fill="#0078D4"/>
<path fill-rule="evenodd" clip-rule="evenodd" d="M24.7141 35.6439H67.3508V34.3115H24.7141V35.6439Z" fill="#F2F2F2"/>
<path fill-rule="evenodd" clip-rule="evenodd" d="M47.3648 30.3138C47.3648 30.5774 47.2866 30.835 47.1402 31.0541C46.9938 31.2732 46.7857 31.444 46.5422 31.5448C46.2988 31.6457 46.0309 31.6721 45.7724 31.6206C45.5139 31.5692 45.2765 31.4423 45.0902 31.256C44.9039 31.0696 44.777 30.8322 44.7256 30.5738C44.6741 30.3153 44.7005 30.0474 44.8014 29.8039C44.9022 29.5605 45.073 29.3524 45.2921 29.206C45.5112 29.0596 45.7688 28.9814 46.0324 28.9814C46.3857 28.9816 46.7245 29.122 46.9744 29.3718C47.2242 29.6217 47.3646 29.9605 47.3648 30.3138V30.3138Z" fill="#1F56A3"/>
<path fill-rule="evenodd" clip-rule="evenodd" d="M58.0239 30.3138C58.0239 30.5774 57.9458 30.835 57.7994 31.0541C57.653 31.2732 57.4449 31.444 57.2014 31.5448C56.958 31.6457 56.6901 31.6721 56.4316 31.6206C56.1731 31.5692 55.9357 31.4423 55.7494 31.256C55.563 31.0697 55.4361 30.8322 55.3847 30.5738C55.3333 30.3153 55.3597 30.0474 55.4606 29.804C55.5614 29.5605 55.7322 29.3524 55.9513 29.206C56.1704 29.0596 56.428 28.9814 56.6915 28.9814C57.0449 28.9816 57.3837 29.122 57.6335 29.3718C57.8834 29.6217 58.0238 29.9605 58.0239 30.3138V30.3138Z" fill="#1F56A3"/>
<path fill-rule="evenodd" clip-rule="evenodd" d="M36.7056 30.3138C36.7056 30.5774 36.6274 30.835 36.481 31.0541C36.3346 31.2732 36.1265 31.444 35.8831 31.5448C35.6396 31.6457 35.3717 31.6721 35.1132 31.6206C34.8548 31.5692 34.6174 31.4423 34.431 31.256C34.2447 31.0697 34.1178 30.8322 34.0664 30.5738C34.015 30.3153 34.0413 30.0474 34.1422 29.804C34.243 29.5605 34.4138 29.3524 34.6329 29.206C34.852 29.0596 35.1097 28.9814 35.3732 28.9814C35.7265 28.9816 36.0653 29.122 36.3152 29.3718C36.565 29.6217 36.7054 29.9605 36.7056 30.3138V30.3138Z" fill="#1F56A3"/>
<path fill-rule="evenodd" clip-rule="evenodd" d="M47.3648 36.976C47.3648 37.2395 47.2866 37.4971 47.1402 37.7162C46.9938 37.9353 46.7857 38.1061 46.5422 38.2069C46.2988 38.3078 46.0309 38.3342 45.7724 38.2828C45.5139 38.2313 45.2765 38.1044 45.0902 37.9181C44.9039 37.7318 44.777 37.4944 44.7256 37.2359C44.6741 36.9774 44.7005 36.7095 44.8014 36.4661C44.9022 36.2226 45.073 36.0145 45.2921 35.8681C45.5112 35.7217 45.7688 35.6436 46.0324 35.6436C46.3857 35.6437 46.7245 35.7841 46.9744 36.034C47.2242 36.2838 47.3646 36.6226 47.3648 36.976V36.976Z" fill="#E8E8E8"/>
<path fill-rule="evenodd" clip-rule="evenodd" d="M58.0239 36.976C58.0239 37.2395 57.9458 37.4971 57.7994 37.7162C57.653 37.9353 57.4449 38.1061 57.2014 38.2069C56.958 38.3078 56.6901 38.3342 56.4316 38.2828C56.1731 38.2313 55.9357 38.1044 55.7494 37.9181C55.563 37.7318 55.4361 37.4944 55.3847 37.2359C55.3333 36.9774 55.3597 36.7095 55.4606 36.4661C55.5614 36.2226 55.7322 36.0145 55.9513 35.8681C56.1704 35.7217 56.428 35.6436 56.6915 35.6436C57.0449 35.6437 57.3837 35.7841 57.6335 36.0339C57.8834 36.2838 58.0238 36.6226 58.0239 36.976Z" fill="#E8E8E8"/>
<path fill-rule="evenodd" clip-rule="evenodd" d="M36.7056 36.976C36.7056 37.2395 36.6274 37.4971 36.481 37.7162C36.3346 37.9353 36.1265 38.1061 35.8831 38.2069C35.6396 38.3078 35.3717 38.3342 35.1132 38.2828C34.8548 38.2313 34.6174 38.1044 34.431 37.9181C34.2447 37.7318 34.1178 37.4944 34.0664 37.2359C34.015 36.9774 34.0413 36.7095 34.1422 36.4661C34.243 36.2226 34.4138 36.0145 34.6329 35.8681C34.852 35.7217 35.1097 35.6436 35.3732 35.6436C35.7265 35.6437 36.0653 35.7841 36.3152 36.0339C36.565 36.2838 36.7054 36.6226 36.7056 36.976V36.976Z" fill="#E8E8E8"/>
<path fill-rule="evenodd" clip-rule="evenodd" d="M56.6916 37.6419C56.6041 37.6419 56.5174 37.6248 56.4366 37.5913C56.3557 37.5579 56.2822 37.5088 56.2203 37.4469C56.1585 37.385 56.1094 37.3116 56.0759 37.2307C56.0425 37.1498 56.0253 37.0632 56.0254 36.9757V30.3137C56.0254 30.137 56.0956 29.9675 56.2205 29.8426C56.3455 29.7176 56.5149 29.6475 56.6916 29.6475C56.8683 29.6475 57.0377 29.7176 57.1627 29.8426C57.2876 29.9675 57.3578 30.137 57.3578 30.3137V36.9757C57.3579 37.0632 57.3407 37.1498 57.3072 37.2307C57.2738 37.3116 57.2247 37.385 57.1628 37.4469C57.101 37.5088 57.0275 37.5579 56.9466 37.5913C56.8658 37.6248 56.7791 37.6419 56.6916 37.6419V37.6419Z" fill="#003067"/>
<path fill-rule="evenodd" clip-rule="evenodd" d="M46.0324 37.6425C45.9449 37.6426 45.8582 37.6254 45.7774 37.5919C45.6965 37.5585 45.623 37.5094 45.5612 37.4475C45.4993 37.3857 45.4502 37.3122 45.4168 37.2313C45.3833 37.1505 45.3661 37.0638 45.3662 36.9763V30.3143C45.3659 30.2266 45.3829 30.1397 45.4162 30.0586C45.4495 29.9774 45.4985 29.9037 45.5604 29.8415C45.6223 29.7794 45.6959 29.7301 45.7769 29.6965C45.8579 29.6628 45.9447 29.6455 46.0324 29.6455C46.1201 29.6455 46.207 29.6628 46.2879 29.6965C46.3689 29.7301 46.4425 29.7794 46.5044 29.8415C46.5663 29.9037 46.6153 29.9774 46.6486 30.0586C46.682 30.1397 46.6989 30.2266 46.6986 30.3143V36.9763C46.6987 37.0638 46.6815 37.1505 46.6481 37.2313C46.6146 37.3122 46.5655 37.3857 46.5037 37.4475C46.4418 37.5094 46.3683 37.5585 46.2875 37.5919C46.2066 37.6254 46.1199 37.6426 46.0324 37.6425Z" fill="#003067"/>
<path fill-rule="evenodd" clip-rule="evenodd" d="M35.3732 37.6419C35.2857 37.6419 35.1991 37.6248 35.1182 37.5913C35.0373 37.5579 34.9639 37.5088 34.902 37.4469C34.8401 37.385 34.791 37.3116 34.7576 37.2307C34.7241 37.1498 34.707 37.0632 34.707 36.9757V30.3137C34.707 30.137 34.7772 29.9675 34.9022 29.8426C35.0271 29.7176 35.1965 29.6475 35.3732 29.6475C35.5499 29.6475 35.7194 29.7176 35.8443 29.8426C35.9692 29.9675 36.0394 30.137 36.0394 30.3137V36.9757C36.0395 37.0632 36.0223 37.1498 35.9889 37.2307C35.9554 37.3116 35.9064 37.385 35.8445 37.4469C35.7826 37.5088 35.7091 37.5579 35.6283 37.5913C35.5474 37.6248 35.4607 37.6419 35.3732 37.6419V37.6419Z" fill="#003067"/>
<path fill-rule="evenodd" clip-rule="evenodd" d="M48.0309 43.6376C48.0304 43.8142 47.96 43.9833 47.8352 44.1081C47.7104 44.233 47.5412 44.3033 47.3647 44.3038H44.6999C44.5234 44.3033 44.3542 44.233 44.2294 44.1081C44.1046 43.9833 44.0342 43.8142 44.0337 43.6376V40.9728C44.0342 40.7963 44.1046 40.6272 44.2294 40.5023C44.3542 40.3775 44.5234 40.3072 44.6999 40.3066H47.3647C47.5412 40.3072 47.7104 40.3775 47.8352 40.5023C47.96 40.6272 48.0304 40.7963 48.0309 40.9728V43.6376Z" fill="#E8E8E8"/>
<path fill-rule="evenodd" clip-rule="evenodd" d="M53.3605 43.6376C53.36 43.8142 53.2896 43.9833 53.1648 44.1081C53.0399 44.233 52.8708 44.3033 52.6943 44.3038H50.0295C49.853 44.3033 49.6838 44.233 49.559 44.1081C49.4342 43.9833 49.3638 43.8142 49.3633 43.6376V40.9728C49.3638 40.7963 49.4342 40.6272 49.559 40.5023C49.6838 40.3775 49.853 40.3072 50.0295 40.3066H52.6943C52.8708 40.3072 53.0399 40.3775 53.1648 40.5023C53.2896 40.6272 53.36 40.7963 53.3605 40.9728V43.6376Z" fill="#E8E8E8"/>
<path fill-rule="evenodd" clip-rule="evenodd" d="M58.69 43.6376C58.6895 43.8142 58.6192 43.9833 58.4944 44.1081C58.3695 44.233 58.2004 44.3033 58.0239 44.3038H55.3591C55.1825 44.3033 55.0134 44.233 54.8886 44.1081C54.7637 43.9833 54.6934 43.8142 54.6929 43.6376V40.9728C54.6934 40.7963 54.7637 40.6272 54.8886 40.5023C55.0134 40.3775 55.1825 40.3072 55.3591 40.3066H58.0239C58.2004 40.3072 58.3695 40.3775 58.4944 40.5023C58.6192 40.6272 58.6895 40.7963 58.69 40.9728V43.6376Z" fill="#9CEBFF"/>
<path fill-rule="evenodd" clip-rule="evenodd" d="M64.0196 43.6376C64.0191 43.8142 63.9488 43.9833 63.8239 44.1081C63.6991 44.233 63.53 44.3033 63.3535 44.3038H60.6887C60.5121 44.3033 60.343 44.233 60.2182 44.1081C60.0933 43.9833 60.023 43.8142 60.0225 43.6376V40.9728C60.023 40.7963 60.0933 40.6272 60.2182 40.5023C60.343 40.3775 60.5121 40.3072 60.6887 40.3066H63.3535C63.53 40.3072 63.6991 40.3775 63.8239 40.5023C63.9488 40.6272 64.0191 40.7963 64.0196 40.9728V43.6376Z" fill="#9CEBFF"/>
<path fill-rule="evenodd" clip-rule="evenodd" d="M48.0309 48.9677C48.0304 49.1442 47.96 49.3134 47.8352 49.4382C47.7104 49.563 47.5412 49.6334 47.3647 49.6339H44.6999C44.5234 49.6334 44.3542 49.563 44.2294 49.4382C44.1046 49.3134 44.0342 49.1442 44.0337 48.9677V46.3029C44.0342 46.1264 44.1046 45.9572 44.2294 45.8324C44.3542 45.7076 44.5234 45.6372 44.6999 45.6367H47.3647C47.5412 45.6372 47.7104 45.7076 47.8352 45.8324C47.96 45.9572 48.0304 46.1264 48.0309 46.3029V48.9677Z" fill="#E8E8E8"/>
<path fill-rule="evenodd" clip-rule="evenodd" d="M53.3605 48.9677C53.36 49.1442 53.2896 49.3134 53.1648 49.4382C53.0399 49.563 52.8708 49.6334 52.6943 49.6339H50.0295C49.853 49.6334 49.6838 49.563 49.559 49.4382C49.4342 49.3134 49.3638 49.1442 49.3633 48.9677V46.3029C49.3638 46.1264 49.4342 45.9572 49.559 45.8324C49.6838 45.7076 49.853 45.6372 50.0295 45.6367H52.6943C52.8708 45.6372 53.0399 45.7076 53.1648 45.8324C53.2896 45.9572 53.36 46.1264 53.3605 46.3029V48.9677Z" fill="#E8E8E8"/>
<path fill-rule="evenodd" clip-rule="evenodd" d="M58.69 48.9677C58.6895 49.1442 58.6192 49.3134 58.4944 49.4382C58.3695 49.563 58.2004 49.6334 58.0239 49.6339H55.3591C55.1825 49.6334 55.0134 49.563 54.8886 49.4382C54.7637 49.3134 54.6934 49.1442 54.6929 48.9677V46.3029C54.6934 46.1264 54.7637 45.9572 54.8886 45.8324C55.0134 45.7076 55.1825 45.6372 55.3591 45.6367H58.0239C58.2004 45.6372 58.3695 45.7076 58.4944 45.8324C58.6192 45.9572 58.6895 46.1264 58.69 46.3029V48.9677Z" fill="#9CEBFF"/>
<path fill-rule="evenodd" clip-rule="evenodd" d="M64.0196 48.9677C64.0191 49.1442 63.9488 49.3134 63.824 49.4382C63.6991 49.563 63.53 49.6334 63.3535 49.6339H60.6887C60.5121 49.6334 60.343 49.563 60.2182 49.4382C60.0933 49.3134 60.023 49.1442 60.0225 48.9677V46.3029C60.023 46.1264 60.0933 45.9572 60.2182 45.8324C60.343 45.7076 60.5121 45.6372 60.6887 45.6367H63.3535C63.53 45.6372 63.6991 45.7076 63.824 45.8324C63.9488 45.9572 64.0191 46.1264 64.0196 46.3029V48.9677Z" fill="#9CEBFF"/>
<path fill-rule="evenodd" clip-rule="evenodd" d="M48.0309 54.2968C48.0304 54.4733 47.96 54.6425 47.8352 54.7673C47.7104 54.8921 47.5412 54.9625 47.3647 54.963H44.6999C44.5234 54.9625 44.3542 54.8921 44.2294 54.7673C44.1046 54.6425 44.0342 54.4733 44.0337 54.2968V51.632C44.0342 51.4555 44.1046 51.2863 44.2294 51.1615C44.3542 51.0367 44.5234 50.9663 44.6999 50.9658H47.3647C47.5412 50.9663 47.7104 51.0367 47.8352 51.1615C47.96 51.2863 48.0304 51.4555 48.0309 51.632V54.2968Z" fill="#E8E8E8"/>
<path fill-rule="evenodd" clip-rule="evenodd" d="M53.3605 54.2968C53.36 54.4733 53.2896 54.6425 53.1648 54.7673C53.0399 54.8921 52.8708 54.9625 52.6943 54.963H50.0295C49.853 54.9625 49.6838 54.8921 49.559 54.7673C49.4342 54.6425 49.3638 54.4733 49.3633 54.2968V51.632C49.3638 51.4555 49.4342 51.2863 49.559 51.1615C49.6838 51.0367 49.853 50.9663 50.0295 50.9658H52.6943C52.8708 50.9663 53.0399 51.0367 53.1648 51.1615C53.2896 51.2863 53.36 51.4555 53.3605 51.632V54.2968Z" fill="#E8E8E8"/>
<path fill-rule="evenodd" clip-rule="evenodd" d="M58.69 54.2968C58.6895 54.4733 58.6192 54.6425 58.4944 54.7673C58.3695 54.8921 58.2004 54.9625 58.0239 54.963H55.3591C55.1825 54.9625 55.0134 54.8921 54.8886 54.7673C54.7637 54.6425 54.6934 54.4733 54.6929 54.2968V51.632C54.6934 51.4555 54.7637 51.2863 54.8886 51.1615C55.0134 51.0367 55.1825 50.9663 55.3591 50.9658H58.0239C58.2004 50.9663 58.3695 51.0367 58.4944 51.1615C58.6192 51.2863 58.6895 51.4555 58.69 51.632V54.2968Z" fill="#9CEBFF"/>
<path fill-rule="evenodd" clip-rule="evenodd" d="M64.0196 54.2968C64.0191 54.4733 63.9488 54.6425 63.824 54.7673C63.6991 54.8921 63.53 54.9625 63.3535 54.963H60.6887C60.5121 54.9625 60.343 54.8921 60.2182 54.7673C60.0933 54.6425 60.023 54.4733 60.0225 54.2968V51.632C60.023 51.4555 60.0933 51.2863 60.2182 51.1615C60.343 51.0367 60.5121 50.9663 60.6887 50.9658H63.3535C63.53 50.9663 63.6991 51.0367 63.824 51.1615C63.9488 51.2863 64.0191 51.4555 64.0196 51.632V54.2968Z" fill="#9CEBFF"/>
<path fill-rule="evenodd" clip-rule="evenodd" d="M48.0309 59.6269C48.0304 59.8034 47.96 59.9726 47.8352 60.0974C47.7104 60.2222 47.5412 60.2926 47.3647 60.2931H44.6999C44.5234 60.2926 44.3542 60.2222 44.2294 60.0974C44.1046 59.9726 44.0342 59.8034 44.0337 59.6269V56.9621C44.0342 56.7856 44.1046 56.6164 44.2294 56.4916C44.3542 56.3668 44.5234 56.2964 44.6999 56.2959H47.3647C47.5412 56.2964 47.7104 56.3668 47.8352 56.4916C47.96 56.6164 48.0304 56.7856 48.0309 56.9621V59.6269Z" fill="#E8E8E8"/>
<path fill-rule="evenodd" clip-rule="evenodd" d="M53.3605 59.6269C53.36 59.8034 53.2896 59.9726 53.1648 60.0974C53.0399 60.2222 52.8708 60.2926 52.6943 60.2931H50.0295C49.853 60.2926 49.6838 60.2222 49.559 60.0974C49.4342 59.9726 49.3638 59.8034 49.3633 59.6269V56.9621C49.3638 56.7856 49.4342 56.6164 49.559 56.4916C49.6838 56.3668 49.853 56.2964 50.0295 56.2959H52.6943C52.8708 56.2964 53.0399 56.3668 53.1648 56.4916C53.2896 56.6164 53.36 56.7856 53.3605 56.9621V59.6269Z" fill="#E8E8E8"/>
<path fill-rule="evenodd" clip-rule="evenodd" d="M58.69 59.6269C58.6895 59.8034 58.6192 59.9726 58.4944 60.0974C58.3695 60.2222 58.2004 60.2926 58.0239 60.2931H55.3591C55.1825 60.2926 55.0134 60.2222 54.8886 60.0974C54.7637 59.9726 54.6934 59.8034 54.6929 59.6269V56.9621C54.6934 56.7856 54.7637 56.6164 54.8886 56.4916C55.0134 56.3668 55.1825 56.2964 55.3591 56.2959H58.0239C58.2004 56.2964 58.3695 56.3668 58.4944 56.4916C58.6192 56.6164 58.6895 56.7856 58.69 56.9621V59.6269Z" fill="#9CEBFF"/>
<path fill-rule="evenodd" clip-rule="evenodd" d="M64.0196 59.6269C64.0191 59.8034 63.9488 59.9726 63.824 60.0974C63.6991 60.2222 63.53 60.2926 63.3535 60.2931H60.6887C60.5121 60.2926 60.343 60.2222 60.2182 60.0974C60.0933 59.9726 60.023 59.8034 60.0225 59.6269V56.9621C60.023 56.7856 60.0933 56.6164 60.2182 56.4916C60.343 56.3668 60.5121 56.2964 60.6887 56.2959H63.3535C63.53 56.2964 63.6991 56.3668 63.824 56.4916C63.9488 56.6164 64.0191 56.7856 64.0196 56.9621V59.6269Z" fill="#9CEBFF"/>
<path fill-rule="evenodd" clip-rule="evenodd" d="M59.3562 63.6238V68.9534L67.3506 60.959H62.021C61.3149 60.9611 60.6383 61.2425 60.139 61.7418C59.6397 62.2411 59.3583 62.9177 59.3562 63.6238V63.6238Z" fill="#E8E8E8"/>
<path fill-rule="evenodd" clip-rule="evenodd" d="M54.0266 68.9536L59.3562 63.624V68.9536H54.0266Z" fill="#F2F2F2"/>
<path d="M39.8603 54.9639H28.8039C28.3847 54.9639 28.0449 55.3037 28.0449 55.7229V59.5344C28.0449 59.9536 28.3847 60.2934 28.8039 60.2934H39.8603C40.2795 60.2934 40.6194 59.9536 40.6194 59.5344V55.7229C40.6194 55.3037 40.2795 54.9639 39.8603 54.9639Z" fill="#E8E8E8"/>
<path opacity="0.2" d="M67.3506 68.954V50.1349C67.1697 50.128 66.9925 50.1075 66.8099 50.1075C64.5475 50.101 62.3169 50.64 60.307 51.6786C58.2972 52.7173 56.5673 54.225 55.2638 56.0742C53.9604 57.9233 53.1218 60.0594 52.8192 62.3015C52.5165 64.5435 52.7587 66.8255 53.5252 68.954H67.3506Z" fill="#767676"/>
<path d="M30.8739 40.4229L31.8979 42.7989L27.4089 46.4029L30.8739 40.4229Z" fill="url(#paint1_linear)"/>
<path d="M30.8191 52.4473L32.0621 49.9883L37.7221 52.4473H30.8191Z" fill="url(#paint2_linear)"/>
<path d="M27.4089 46.4033L30.8189 52.4473L32.0619 49.9883L27.4089 46.4033Z" fill="url(#paint3_linear)"/>
<path d="M27.4089 46.4028L31.8979 42.7988L32.0619 49.9878L27.4089 46.4028Z" fill="url(#paint4_linear)"/>
<path d="M31.898 42.7989L37.653 40.4229H30.874L31.898 42.7989Z" fill="url(#paint5_linear)"/>
<path d="M31.8979 42.7988L38.129 46.4348L32.0619 49.9878L31.8979 42.7988Z" fill="url(#paint6_linear)"/>
<path d="M37.6529 40.4229L41.2549 46.4349H38.129L31.8979 42.7989L37.6529 40.4229Z" fill="url(#paint7_linear)"/>
<path d="M38.1291 46.4349L37.6531 40.4229L41.2551 46.4349H38.1291Z" fill="url(#paint8_linear)"/>
<path d="M38.1289 46.4346L37.7219 52.4466L41.2549 46.4346H38.1289Z" fill="url(#paint9_linear)"/>
<path d="M38.129 46.4346L37.722 52.4466L32.062 49.9876L38.129 46.4346Z" fill="url(#paint10_linear)"/>
<path d="M41.3709 46.4337C41.3695 46.4248 41.3671 46.416 41.3637 46.4076C41.3625 46.3971 41.3598 46.3868 41.3557 46.3771L41.3547 46.3761L41.3544 46.3752L37.7524 40.3631C37.7468 40.3562 37.7404 40.3499 37.7334 40.3445C37.729 40.3393 37.7241 40.3345 37.7188 40.3303L37.6998 40.319L37.6915 40.3142C37.6867 40.3135 37.682 40.3131 37.6772 40.313C37.6695 40.31 37.6613 40.3078 37.6531 40.3066H30.8743C30.8627 40.3077 30.8514 40.3106 30.8407 40.3151C30.8239 40.3199 30.8086 40.3291 30.7963 40.3416C30.7894 40.3466 30.7831 40.3524 30.7775 40.3588L30.7764 40.3621L30.774 40.3645L27.3092 46.3442L27.308 46.3487C27.3044 46.3567 27.3018 46.3652 27.3002 46.3739L27.2966 46.39L27.2962 46.392L27.2939 46.4027L27.2937 46.4034L27.2965 46.4151L27.3 46.4301C27.3016 46.4392 27.3042 46.4481 27.3079 46.4565L27.3086 46.4592L30.7187 52.5035L30.7202 52.5051L30.7209 52.5073C30.7285 52.5175 30.7377 52.5264 30.7483 52.5336C30.7533 52.5377 30.7566 52.5437 30.7623 52.547C30.7797 52.5571 30.7994 52.5624 30.8196 52.5625H37.7217C37.7418 52.5625 37.7615 52.5572 37.779 52.5472L37.7873 52.5392C37.7927 52.5348 37.7976 52.5299 37.8021 52.5246C37.8093 52.519 37.8159 52.5125 37.8216 52.5053L41.3551 46.4933L41.3553 46.4924L41.356 46.4917C41.36 46.482 41.3627 46.4718 41.3638 46.4613C41.3672 46.4528 41.3695 46.4439 41.3708 46.4348L41.3709 46.4337ZM32.1587 42.8162L37.5502 40.5903L37.9964 46.2229L32.1587 42.8162ZM31.7878 43.0356L31.8131 44.1447L31.9406 49.7481L27.5968 46.4003L28.1199 45.9803L31.7878 43.0356ZM32.0187 43.003L37.8997 46.4348L32.1733 49.7886L32.0187 43.003ZM38.2362 46.3188L37.8074 40.9058L41.0506 46.3188H38.2362ZM30.8591 40.6798L31.7568 42.7633L27.8209 45.9231L30.8479 40.6991L30.8591 40.6798ZM27.791 46.8426L31.9153 50.0212L30.814 52.2008L29.1829 49.3098L27.791 46.8426ZM37.9991 46.6451L37.6174 52.275L32.3174 49.9726L37.9991 46.6451ZM38.2374 46.5505H41.0527L37.8703 51.9649L38.2374 46.5505ZM37.0688 40.5384L31.9595 42.6478L31.0504 40.5384H37.0688ZM31.0078 52.3307L32.116 50.1377L37.1645 52.3307H31.0078Z" fill="#50E6FF"/>
<path d="M31.8982 43.5142C32.2932 43.5142 32.6133 43.194 32.6133 42.7991C32.6133 42.4041 32.2932 42.084 31.8982 42.084C31.5033 42.084 31.1831 42.4041 31.1831 42.7991C31.1831 43.194 31.5033 43.5142 31.8982 43.5142Z" fill="#50E6FF"/>
<path d="M32.062 50.7037C32.457 50.7037 32.7771 50.3835 32.7771 49.9885C32.7771 49.5936 32.457 49.2734 32.062 49.2734C31.6671 49.2734 31.3469 49.5936 31.3469 49.9885C31.3469 50.3835 31.6671 50.7037 32.062 50.7037Z" fill="#50E6FF"/>
<path d="M38.1292 47.2232C38.5241 47.2232 38.8443 46.903 38.8443 46.5081C38.8443 46.1131 38.5241 45.793 38.1292 45.793C37.7342 45.793 37.4141 46.1131 37.4141 46.5081C37.4141 46.903 37.7342 47.2232 38.1292 47.2232Z" fill="#50E6FF"/>
<path d="M66.8094 76.3406C73.5013 76.3406 78.926 70.9158 78.926 64.224C78.926 57.5322 73.5013 52.1074 66.8094 52.1074C60.1176 52.1074 54.6929 57.5322 54.6929 64.224C54.6929 70.9158 60.1176 76.3406 66.8094 76.3406Z" fill="white"/>
<path d="M66.8094 65.6724C69.027 65.6724 70.8248 63.8747 70.8248 61.657C70.8248 59.4394 69.027 57.6416 66.8094 57.6416C64.5917 57.6416 62.7939 59.4394 62.7939 61.657C62.7939 63.8747 64.5917 65.6724 66.8094 65.6724Z" fill="#0078D4"/>
<path d="M72.2571 71.536C72.5912 71.2752 72.8116 70.8955 72.8726 70.4762C72.9335 70.0568 72.8301 69.6301 72.5841 69.285C71.9327 68.3586 71.068 67.6025 70.063 67.0806C69.0579 66.5586 67.942 66.2861 66.8096 66.2861C65.6771 66.2861 64.5612 66.5586 63.5562 67.0806C62.5511 67.6025 61.6864 68.3586 61.0351 69.285C60.789 69.6301 60.6857 70.0568 60.7466 70.4762C60.8075 70.8955 61.028 71.2752 61.3621 71.536C62.9354 72.7103 64.8462 73.3448 66.8096 73.3448C68.7729 73.3448 70.6837 72.7103 72.2571 71.536L72.2571 71.536Z" fill="#0078D4"/>
</g>
<defs>
<linearGradient id="paint0_linear" x1="47.8697" y1="-15.153" x2="51.8525" y2="130.615" gradientUnits="userSpaceOnUse">
<stop stop-color="#00ABDE"/>
<stop offset="1" stop-color="#007ED8"/>
</linearGradient>
<linearGradient id="paint1_linear" x1="31.7678" y1="40.9389" x2="28.3124" y2="46.9239" gradientUnits="userSpaceOnUse">
<stop stop-color="#008BF1"/>
<stop offset="0.22" stop-color="#0086EC"/>
<stop offset="0.49" stop-color="#0078DD"/>
<stop offset="0.79" stop-color="#0061C4"/>
<stop offset="1" stop-color="#004DAE"/>
</linearGradient>
<linearGradient id="paint2_linear" x1="37.5213" y1="50.2005" x2="37.0265" y2="53.4055" gradientUnits="userSpaceOnUse">
<stop stop-color="#008BF1"/>
<stop offset="0.22" stop-color="#0086EC"/>
<stop offset="0.49" stop-color="#0078DD"/>
<stop offset="0.79" stop-color="#0061C4"/>
<stop offset="1" stop-color="#004DAE"/>
</linearGradient>
<linearGradient id="paint3_linear" x1="31.9266" y1="46.925" x2="28.4788" y2="53.0495" gradientUnits="userSpaceOnUse">
<stop stop-color="#008BF1"/>
<stop offset="0.22" stop-color="#0086EC"/>
<stop offset="0.49" stop-color="#0078DD"/>
<stop offset="0.79" stop-color="#0061C4"/>
<stop offset="1" stop-color="#004DAE"/>
</linearGradient>
<linearGradient id="paint4_linear" x1="31.9266" y1="43.4194" x2="27.4915" y2="50.043" gradientUnits="userSpaceOnUse">
<stop stop-color="#008BF1"/>
<stop offset="0.22" stop-color="#0086EC"/>
<stop offset="0.49" stop-color="#0078DD"/>
<stop offset="0.79" stop-color="#0061C4"/>
<stop offset="1" stop-color="#004DAE"/>
</linearGradient>
<linearGradient id="paint5_linear" x1="268.892" y1="132.981" x2="266.259" y2="145.988" gradientUnits="userSpaceOnUse">
<stop stop-color="#008BF1"/>
<stop offset="0.22" stop-color="#0086EC"/>
<stop offset="0.49" stop-color="#0078DD"/>
<stop offset="0.79" stop-color="#0061C4"/>
<stop offset="1" stop-color="#004DAE"/>
</linearGradient>
<linearGradient id="paint6_linear" x1="37.9477" y1="43.4194" x2="34.1103" y2="51.0939" gradientUnits="userSpaceOnUse">
<stop stop-color="#008BF1"/>
<stop offset="0.22" stop-color="#0086EC"/>
<stop offset="0.49" stop-color="#0078DD"/>
<stop offset="0.79" stop-color="#0061C4"/>
<stop offset="1" stop-color="#004DAE"/>
</linearGradient>
<linearGradient id="paint7_linear" x1="40.9827" y1="40.9418" x2="38.9095" y2="48.3872" gradientUnits="userSpaceOnUse">
<stop stop-color="#008BF1"/>
<stop offset="0.22" stop-color="#0086EC"/>
<stop offset="0.49" stop-color="#0078DD"/>
<stop offset="0.79" stop-color="#0061C4"/>
<stop offset="1" stop-color="#004DAE"/>
</linearGradient>
<linearGradient id="paint8_linear" x1="182.833" y1="292.652" x2="165.599" y2="310.537" gradientUnits="userSpaceOnUse">
<stop stop-color="#008BF1"/>
<stop offset="0.22" stop-color="#0086EC"/>
<stop offset="0.49" stop-color="#0078DD"/>
<stop offset="0.79" stop-color="#0061C4"/>
<stop offset="1" stop-color="#004DAE"/>
</linearGradient>
<linearGradient id="paint9_linear" x1="41.1521" y1="46.9535" x2="37.3199" y2="52.15" gradientUnits="userSpaceOnUse">
<stop stop-color="#008BF1"/>
<stop offset="0.22" stop-color="#0086EC"/>
<stop offset="0.49" stop-color="#0078DD"/>
<stop offset="0.79" stop-color="#0061C4"/>
<stop offset="1" stop-color="#004DAE"/>
</linearGradient>
<linearGradient id="paint10_linear" x1="37.9525" y1="46.9535" x2="35.0436" y2="53.7269" gradientUnits="userSpaceOnUse">
<stop stop-color="#008BF1"/>
<stop offset="0.22" stop-color="#0086EC"/>
<stop offset="0.49" stop-color="#0078DD"/>
<stop offset="0.79" stop-color="#0061C4"/>
<stop offset="1" stop-color="#004DAE"/>
</linearGradient>
<clipPath id="clip0">
<rect width="99.2799" height="99.28" fill="white"/>
</clipPath>
</defs>
</svg>
