<svg width="100" height="100" viewBox="0 0 100 100" fill="none" xmlns="http://www.w3.org/2000/svg">
<g clip-path="url(#clip0)">
<path d="M49.6401 96.4501C40.382 96.4501 31.3317 93.7047 23.6339 88.5612C15.936 83.4176 9.93624 76.1069 6.3933 67.5535C2.85036 59.0001 1.92337 49.5882 3.72954 40.5079C5.53571 31.4277 9.99394 23.0869 16.5404 16.5404C23.0869 9.99393 31.4277 5.53571 40.5079 3.72954C49.5882 1.92337 59.0001 2.85036 67.5535 6.3933C76.1069 9.93624 83.4176 15.936 88.5612 23.6339C93.7047 31.3317 96.4501 40.382 96.4501 49.6401C96.4505 55.7874 95.24 61.8746 92.8878 67.554C90.5355 73.2335 87.0875 78.3939 82.7407 82.7407C78.3939 87.0875 73.2335 90.5355 67.554 92.8878C61.8746 95.24 55.7874 96.4505 49.6401 96.4501V96.4501Z" fill="url(#paint0_linear)"/>
<path fill-rule="evenodd" clip-rule="evenodd" d="M95.54 49.64C95.54 58.7182 92.848 67.5925 87.8045 75.1407C82.7609 82.6889 75.5923 88.572 67.2052 92.0461C58.818 95.5201 49.5891 96.4291 40.6854 94.658C31.7816 92.887 23.603 88.5154 17.1838 82.0962C10.7646 75.677 6.39302 67.4984 4.62196 58.5946C2.85089 49.6909 3.75987 40.462 7.23393 32.0748C10.708 23.6877 16.5911 16.5191 24.1393 11.4755C31.6875 6.43199 40.5618 3.74 49.64 3.74C55.6677 3.73998 61.6363 4.9272 67.2052 7.23388C72.774 9.54057 77.834 12.9215 82.0963 17.1837C86.3585 21.446 89.7394 26.5059 92.0461 32.0748C94.3528 37.6437 95.54 43.6123 95.54 49.64V49.64ZM49.64 3.62732e-07C59.4579 3.62732e-07 69.0553 2.91134 77.2185 8.36585C85.3818 13.8204 91.7442 21.5731 95.5014 30.6436C99.2585 39.7141 100.242 49.6951 98.3262 59.3243C96.4108 68.9535 91.6831 77.7985 84.7408 84.7408C77.7985 91.6831 68.9535 96.4108 59.3243 98.3262C49.6951 100.242 39.7141 99.2585 30.6436 95.5014C21.5731 91.7442 13.8204 85.3818 8.36585 77.2185C2.91134 69.0553 3.62732e-07 59.4579 3.62732e-07 49.64C-0.000787738 43.121 1.28265 36.6656 3.77702 30.6427C6.27138 24.6197 9.9278 19.1471 14.5375 14.5375C19.1471 9.9278 24.6197 6.27138 30.6427 3.77702C36.6656 1.28265 43.121 -0.000787738 49.64 3.62732e-07V3.62732e-07Z" fill="#F2F1F0"/>
<path fill-rule="evenodd" clip-rule="evenodd" d="M92.7296 49.6406C92.7296 58.163 90.2024 66.494 85.4676 73.5801C80.7328 80.6662 74.0031 86.1892 66.1294 89.4505C58.2557 92.7119 49.5918 93.5653 41.2331 91.9026C32.8745 90.24 25.1966 86.1361 19.1703 80.1098C13.1441 74.0836 9.04017 66.4057 7.37753 58.047C5.7149 49.6884 6.56822 41.0244 9.8296 33.1507C13.091 25.2771 18.6139 18.5473 25.7 13.8126C32.7862 9.07776 41.1172 6.55058 49.6396 6.55058C55.2983 6.55023 60.9017 7.66455 66.1298 9.82991C71.3579 11.9953 76.1082 15.1692 80.1096 19.1706C84.1109 23.1719 87.2849 27.9223 89.4502 33.1503C91.6156 38.3784 92.7299 43.9818 92.7296 49.6406V49.6406ZM49.6396 2.81058C58.9017 2.81058 67.9558 5.55711 75.6569 10.7029C83.3581 15.8486 89.3604 23.1624 92.9049 31.7195C96.4493 40.2766 97.3767 49.6925 95.5697 58.7767C93.7628 67.8608 89.3027 76.2051 82.7534 82.7544C76.2041 89.3037 67.8598 93.7638 58.7757 95.5708C49.6915 97.3777 40.2756 96.4503 31.7185 92.9059C23.1614 89.3614 15.8476 83.3591 10.7018 75.6579C5.5561 67.9568 2.80957 58.9027 2.80957 49.6406C2.81076 37.2209 7.745 25.3101 16.5271 16.5281C25.3091 7.74599 37.2198 2.81174 49.6396 2.81055V2.81058Z" fill="#0078D4"/>
<path fill-rule="evenodd" clip-rule="evenodd" d="M92.7296 49.6396C92.7296 58.162 90.2024 66.493 85.4676 73.5791C80.7328 80.6652 74.0031 86.1882 66.1294 89.4495C58.2557 92.7109 49.5918 93.5642 41.2331 91.9016C32.8745 90.239 25.1966 86.135 19.1703 80.1088C13.1441 74.0826 9.04017 66.4047 7.37753 58.046C5.7149 49.6874 6.56822 41.0234 9.8296 33.1497C13.091 25.2761 18.6139 18.5463 25.7001 13.8115C32.7862 9.07675 41.1172 6.54957 49.6396 6.54957C55.2983 6.54923 60.9017 7.66355 66.1298 9.8289C71.3579 11.9943 76.1082 15.1682 80.1096 19.1696C84.1109 23.1709 87.2849 27.9213 89.4502 33.1493C91.6156 38.3774 92.7299 43.9808 92.7296 49.6396V49.6396ZM49.6396 2.80957C58.9017 2.80957 67.9558 5.5561 75.6569 10.7018C83.3581 15.8476 89.3604 23.1614 92.9048 31.7185C96.4493 40.2756 97.3767 49.6915 95.5697 58.7757C93.7628 67.8598 89.3027 76.2041 82.7534 82.7534C76.2041 89.3027 67.8598 93.7628 58.7757 95.5697C49.6915 97.3767 40.2756 96.4493 31.7185 92.9049C23.1614 89.3604 15.8476 83.3581 10.7018 75.6569C5.5561 67.9558 2.80957 58.9017 2.80957 49.6396C2.81076 37.2198 7.74501 25.3091 16.5271 16.5271C25.3091 7.74501 37.2198 2.81076 49.6396 2.80957V2.80957Z" fill="#0078D4"/>
<path d="M43.3091 14.5469L45.1471 18.8119L37.0901 25.2799L43.3091 14.5469Z" fill="url(#paint1_linear)"/>
<path d="M43.2109 36.1298L45.4409 31.7168L55.5999 36.1298H43.2109Z" fill="url(#paint2_linear)"/>
<path d="M37.0901 25.2803L43.2111 36.1303L45.4411 31.7173L37.0901 25.2803Z" fill="url(#paint3_linear)"/>
<path d="M37.0901 25.2795L45.1471 18.8115L45.4411 31.7165L37.0901 25.2795Z" fill="url(#paint4_linear)"/>
<path d="M45.1471 18.8119L55.4771 14.5469H43.3091L45.1471 18.8119Z" fill="url(#paint5_linear)"/>
<path d="M45.147 18.8115L56.332 25.3385L45.441 31.7165L45.147 18.8115Z" fill="url(#paint6_linear)"/>
<path d="M55.477 14.5469L61.943 25.3389H56.332L45.147 18.8119L55.477 14.5469Z" fill="url(#paint7_linear)"/>
<path d="M56.3321 25.3389L55.4771 14.5469L61.9431 25.3389H56.3321Z" fill="url(#paint8_linear)"/>
<path d="M56.3321 25.3389L55.6001 36.1299L61.9431 25.3389H56.3321Z" fill="url(#paint9_linear)"/>
<path d="M56.3319 25.3389L55.5999 36.1299L45.4409 31.7169L56.3319 25.3389Z" fill="url(#paint10_linear)"/>
<path d="M62.1507 25.337C62.1482 25.3209 62.1439 25.3052 62.1377 25.2901C62.1356 25.2713 62.1307 25.2529 62.1234 25.2354L62.1216 25.2335L62.1211 25.232L55.6554 14.4402C55.6455 14.4277 55.634 14.4166 55.6214 14.4069C55.6135 14.3975 55.6048 14.3889 55.5953 14.3813C55.5846 14.3734 55.5731 14.3666 55.5611 14.3611C55.5555 14.3586 55.5518 14.3544 55.5461 14.3524C55.5225 14.352 55.4991 14.3474 55.4772 14.3389H43.3092C43.2884 14.3408 43.2682 14.3459 43.249 14.354C43.2187 14.3627 43.1912 14.3791 43.1692 14.4017C43.1568 14.4106 43.1455 14.421 43.1355 14.4325L43.1334 14.4384L43.1292 14.4427L36.9099 25.1763L36.9078 25.1843C36.9013 25.1988 36.8966 25.214 36.8937 25.2296C36.8908 25.2391 36.8887 25.2488 36.8873 25.2586L36.8865 25.2621C36.8859 25.2687 36.8824 25.2747 36.8824 25.2813L36.8821 25.2825C36.8834 25.2896 36.885 25.2967 36.8871 25.3036C36.8886 25.3127 36.8907 25.3217 36.8935 25.3304C36.8962 25.3468 36.9009 25.3627 36.9075 25.3779L36.9087 25.3827L43.03 36.2324L43.0327 36.2351L43.034 36.2391C43.0476 36.2575 43.0642 36.2734 43.0831 36.2862C43.0921 36.2936 43.0981 36.3044 43.1082 36.3103C43.1394 36.3284 43.1749 36.338 43.2111 36.3382H55.6004C55.6365 36.3381 55.6719 36.3287 55.7032 36.3108C55.7093 36.3073 55.7125 36.3003 55.7183 36.2962C55.7279 36.2884 55.7367 36.2797 55.7446 36.2702C55.7577 36.2601 55.7695 36.2484 55.7798 36.2354L62.1223 25.4439L62.1227 25.4424L62.124 25.4411C62.1312 25.4237 62.1359 25.4053 62.138 25.3866C62.1441 25.3713 62.1483 25.3553 62.1506 25.339L62.1507 25.337ZM45.6147 18.8436L55.2926 14.848L56.0934 24.9585L45.6147 18.8436ZM44.949 19.2374L44.9943 21.2283L45.2232 31.2864L37.426 25.277L38.365 24.5232L44.949 19.2374ZM45.3634 19.1788L55.9198 25.339L45.641 31.3591L45.3634 19.1788ZM56.5239 25.1306L55.7542 15.4143L61.5758 25.1306H56.5239ZM43.282 15.0086L44.8934 18.7486L37.8284 24.4205L43.2618 15.0434L43.282 15.0086ZM37.7747 26.071L45.1778 31.7766L43.2009 35.6889L40.2732 30.4996L37.7747 26.071ZM56.0983 25.7164L55.4131 35.8221L45.8995 31.6894L56.0983 25.7164ZM56.5261 25.5467H61.5795L55.8671 35.2654L56.5261 25.5467ZM54.4284 14.7549L45.2572 18.5413L43.6254 14.7549H54.4284ZM43.549 35.9222L45.5382 31.9858L54.6002 35.9222H43.549Z" fill="#50E6FF"/>
<path d="M45.1474 20.0956C45.8563 20.0956 46.431 19.5209 46.431 18.8119C46.431 18.103 45.8563 17.5283 45.1474 17.5283C44.4385 17.5283 43.8638 18.103 43.8638 18.8119C43.8638 19.5209 44.4385 20.0956 45.1474 20.0956Z" fill="#50E6FF"/>
<path d="M45.4413 33.0008C46.1503 33.0008 46.725 32.4261 46.725 31.7172C46.725 31.0083 46.1503 30.4336 45.4413 30.4336C44.7324 30.4336 44.1577 31.0083 44.1577 31.7172C44.1577 32.4261 44.7324 33.0008 45.4413 33.0008Z" fill="#50E6FF"/>
<path d="M56.332 26.7538C57.0409 26.7538 57.6156 26.1791 57.6156 25.4701C57.6156 24.7612 57.0409 24.1865 56.332 24.1865C55.623 24.1865 55.0483 24.7612 55.0483 25.4701C55.0483 26.1791 55.623 26.7538 56.332 26.7538Z" fill="#50E6FF"/>
<path fill-rule="evenodd" clip-rule="evenodd" d="M43.9159 56.0678L26.9184 73.0652C26.6419 72.7935 26.4224 72.4694 26.2727 72.1119C26.1229 71.7544 26.046 71.3706 26.0464 70.9829V44.4013C26.0445 43.6873 26.3076 42.998 26.7848 42.4668L43.9159 56.0678Z" fill="#F2F2F2"/>
<path fill-rule="evenodd" clip-rule="evenodd" d="M72.4311 73.0649C72.1594 73.3412 71.8353 73.5606 71.4778 73.7102C71.1202 73.8599 70.7364 73.9367 70.3489 73.9362H28.9997C28.6123 73.9366 28.2286 73.8597 27.8712 73.7101C27.5138 73.5605 27.1898 73.3412 26.9182 73.0649L43.9157 56.0674L48.5109 59.7205C48.8429 59.9844 49.2538 60.1295 49.6779 60.1325C50.102 60.1355 50.5149 59.9962 50.8506 59.737L55.5075 56.1412L72.4311 73.0649Z" fill="#E8E8E8"/>
<path fill-rule="evenodd" clip-rule="evenodd" d="M73.3029 44.4017V70.9833C73.3034 71.3708 73.2266 71.7546 73.077 72.1121C72.9274 72.4697 72.708 72.7938 72.4317 73.0655L55.5081 56.1419L72.8156 42.792C73.1337 43.2685 73.3033 43.8287 73.3029 44.4017V44.4017Z" fill="#F2F2F2"/>
<path fill-rule="evenodd" clip-rule="evenodd" d="M72.8152 42.7921L55.5076 56.142L49.6744 60.6461L43.9158 56.0682L26.7847 42.4673C27.0575 42.1465 27.3971 41.8891 27.7797 41.7131C28.1623 41.5371 28.5787 41.4467 28.9998 41.4483H70.349C70.8398 41.4476 71.3228 41.5704 71.7538 41.8052C72.1847 42.04 72.5497 42.3794 72.8152 42.7921Z" fill="white"/>
<path opacity="0.2" fill-rule="evenodd" clip-rule="evenodd" d="M55.5074 56.1416L50.8505 59.7374C50.5148 59.9966 50.102 60.1359 49.6779 60.1329C49.2537 60.1299 48.8429 59.9848 48.5109 59.7209L43.9156 56.0678L31.5012 46.2119L47.8082 60.4888C48.3253 60.9415 48.9889 61.1918 49.6762 61.1933C50.3636 61.1948 51.0282 60.9474 51.5473 60.4969L65.0185 48.8058L55.5074 56.1416Z" fill="#767676"/>
<path opacity="0.2" d="M61.6732 73.9365C61.6735 73.9138 61.6767 73.8919 61.6767 73.8691C61.6738 70.6791 60.4045 67.6206 58.1478 65.3659C55.891 63.1112 52.8314 61.8447 49.6413 61.8447C46.4513 61.8447 43.3917 63.1112 41.1349 65.3659C38.8782 67.6206 37.6089 70.6791 37.606 73.8691C37.606 73.8919 37.6092 73.9138 37.6094 73.9365H61.6732Z" fill="#767676"/>
<path d="M49.6414 84.0073C55.2407 84.0073 59.7798 79.4682 59.7798 73.8689C59.7798 68.2696 55.2407 63.7305 49.6414 63.7305C44.0421 63.7305 39.5029 68.2696 39.5029 73.8689C39.5029 79.4682 44.0421 84.0073 49.6414 84.0073Z" fill="white"/>
<path d="M49.6414 75.082C51.497 75.082 53.0012 73.5778 53.0012 71.7222C53.0012 69.8666 51.497 68.3623 49.6414 68.3623C47.7858 68.3623 46.2815 69.8666 46.2815 71.7222C46.2815 73.5778 47.7858 75.082 49.6414 75.082Z" fill="#0078D4"/>
<path d="M54.1996 79.9875C54.4791 79.7693 54.6636 79.4516 54.7146 79.1007C54.7655 78.7498 54.679 78.3927 54.4731 78.104C53.9281 77.3289 53.2046 76.6962 52.3636 76.2595C51.5227 75.8227 50.589 75.5947 49.6414 75.5947C48.6938 75.5947 47.7601 75.8227 46.9191 76.2595C46.0782 76.6962 45.3547 77.3289 44.8096 78.104C44.6037 78.3927 44.5173 78.7498 44.5683 79.1007C44.6192 79.4516 44.8037 79.7693 45.0832 79.9875C46.3998 80.9701 47.9986 81.501 49.6414 81.501C51.2842 81.501 52.883 80.9701 54.1996 79.9875V79.9875Z" fill="#0078D4"/>
<path d="M33.8549 25.3389H26.0459V36.6769" stroke="white" stroke-linecap="round" stroke-linejoin="round"/>
<path d="M65.4939 25.3389H73.3029V36.6769" stroke="white" stroke-linecap="round" stroke-linejoin="round"/>
</g>
<defs>
<linearGradient id="paint0_linear" x1="47.8698" y1="-15.153" x2="51.8525" y2="130.615" gradientUnits="userSpaceOnUse">
<stop stop-color="#00ABDE"/>
<stop offset="1" stop-color="#007ED8"/>
</linearGradient>
<linearGradient id="paint1_linear" x1="44.9127" y1="15.4734" x2="38.711" y2="26.2155" gradientUnits="userSpaceOnUse">
<stop stop-color="#008BF1"/>
<stop offset="0.22" stop-color="#0086EC"/>
<stop offset="0.49" stop-color="#0078DD"/>
<stop offset="0.79" stop-color="#0061C4"/>
<stop offset="1" stop-color="#004DAE"/>
</linearGradient>
<linearGradient id="paint2_linear" x1="55.2395" y1="32.0977" x2="54.3516" y2="37.8495" gradientUnits="userSpaceOnUse">
<stop stop-color="#008BF1"/>
<stop offset="0.22" stop-color="#0086EC"/>
<stop offset="0.49" stop-color="#0078DD"/>
<stop offset="0.79" stop-color="#0061C4"/>
<stop offset="1" stop-color="#004DAE"/>
</linearGradient>
<linearGradient id="paint3_linear" x1="45.1982" y1="26.2169" x2="39.0082" y2="37.2101" gradientUnits="userSpaceOnUse">
<stop stop-color="#008BF1"/>
<stop offset="0.22" stop-color="#0086EC"/>
<stop offset="0.49" stop-color="#0078DD"/>
<stop offset="0.79" stop-color="#0061C4"/>
<stop offset="1" stop-color="#004DAE"/>
</linearGradient>
<linearGradient id="paint4_linear" x1="45.1982" y1="19.9255" x2="37.2361" y2="31.8141" gradientUnits="userSpaceOnUse">
<stop stop-color="#008BF1"/>
<stop offset="0.22" stop-color="#0086EC"/>
<stop offset="0.49" stop-color="#0078DD"/>
<stop offset="0.79" stop-color="#0061C4"/>
<stop offset="1" stop-color="#004DAE"/>
</linearGradient>
<linearGradient id="paint5_linear" x1="55.1231" y1="14.915" x2="54.2781" y2="20.478" gradientUnits="userSpaceOnUse">
<stop stop-color="#008BF1"/>
<stop offset="0.22" stop-color="#0086EC"/>
<stop offset="0.49" stop-color="#0078DD"/>
<stop offset="0.79" stop-color="#0061C4"/>
<stop offset="1" stop-color="#004DAE"/>
</linearGradient>
<linearGradient id="paint6_linear" x1="56.0066" y1="19.9255" x2="49.118" y2="33.7019" gradientUnits="userSpaceOnUse">
<stop stop-color="#008BF1"/>
<stop offset="0.22" stop-color="#0086EC"/>
<stop offset="0.49" stop-color="#0078DD"/>
<stop offset="0.79" stop-color="#0061C4"/>
<stop offset="1" stop-color="#004DAE"/>
</linearGradient>
<linearGradient id="paint7_linear" x1="61.4544" y1="15.4785" x2="57.7327" y2="28.8434" gradientUnits="userSpaceOnUse">
<stop stop-color="#008BF1"/>
<stop offset="0.22" stop-color="#0086EC"/>
<stop offset="0.49" stop-color="#0078DD"/>
<stop offset="0.79" stop-color="#0061C4"/>
<stop offset="1" stop-color="#004DAE"/>
</linearGradient>
<linearGradient id="paint8_linear" x1="61.7549" y1="15.4785" x2="54.9162" y2="24.933" gradientUnits="userSpaceOnUse">
<stop stop-color="#008BF1"/>
<stop offset="0.22" stop-color="#0086EC"/>
<stop offset="0.49" stop-color="#0078DD"/>
<stop offset="0.79" stop-color="#0061C4"/>
<stop offset="1" stop-color="#004DAE"/>
</linearGradient>
<linearGradient id="paint9_linear" x1="61.7586" y1="26.2704" x2="54.8805" y2="35.5991" gradientUnits="userSpaceOnUse">
<stop stop-color="#008BF1"/>
<stop offset="0.22" stop-color="#0086EC"/>
<stop offset="0.49" stop-color="#0078DD"/>
<stop offset="0.79" stop-color="#0061C4"/>
<stop offset="1" stop-color="#004DAE"/>
</linearGradient>
<linearGradient id="paint10_linear" x1="56.0151" y1="26.2704" x2="50.7943" y2="38.4285" gradientUnits="userSpaceOnUse">
<stop stop-color="#008BF1"/>
<stop offset="0.22" stop-color="#0086EC"/>
<stop offset="0.49" stop-color="#0078DD"/>
<stop offset="0.79" stop-color="#0061C4"/>
<stop offset="1" stop-color="#004DAE"/>
</linearGradient>
<clipPath id="clip0">
<rect width="99.2799" height="99.28" fill="white"/>
</clipPath>
</defs>
</svg>
