<svg width="160" height="188" viewBox="0 0 160 188" fill="none" xmlns="http://www.w3.org/2000/svg">
<g clip-path="url(#clip0)">
<path d="M79.6779 188C82.7592 187.994 85.7796 187.141 88.4083 185.534L150.384 147.874C153.165 146.11 155.449 143.665 157.019 140.771C158.589 137.876 159.394 134.628 159.356 131.336V56.6207C159.392 53.3283 158.587 50.0812 157.017 47.1871C155.447 44.2929 153.163 41.8476 150.384 40.0829L88.4083 2.4228C85.7749 0.837605 82.7592 0 79.6855 0C76.6118 0 73.5961 0.837605 70.9627 2.4228L8.9876 40.098C6.2045 41.8604 3.91796 44.3048 2.34499 47.1991C0.772021 50.0935 -0.0351786 53.3418 4.1431e-06 56.6358V131.336C-0.0185283 134.119 0.556189 136.874 1.68588 139.418C2.81557 141.962 4.4743 144.236 6.5516 146.089V146.115L70.9627 185.549C73.5884 187.149 76.6032 187.996 79.6779 188V188ZM80.3257 6.95218C82.2776 6.95218 84.7548 8.1651 86.4646 9.20912L147.222 46.4034C150.974 48.6881 153.09 55.2842 153.09 60.0352L152.458 131.336C152.458 136.087 149.259 140.355 145.506 142.64L85.1104 179.021C81.6758 181.109 78.8854 181.109 75.4507 179.021L14.2427 142.549C10.4903 140.265 7.47191 136.072 7.47191 131.336V57.688C7.50442 55.3228 8.11341 53.0013 9.24608 50.9247C10.3787 48.8482 12.0009 47.0792 13.9718 45.7714L74.548 9.20912C76.2577 8.1651 78.3739 6.95218 80.3257 6.95218Z" fill="#F2F1F0"/>
<path fill-rule="evenodd" clip-rule="evenodd" d="M87.5765 10.5337C85.2056 9.0602 82.4697 8.2793 79.6783 8.2793C76.8868 8.2793 74.1509 9.0602 71.7801 10.5337L15.6454 44.8651C13.1193 46.4768 11.047 48.7072 9.625 51.3446C8.203 53.9821 7.47851 56.9392 7.52026 59.9352V128.038C7.48034 131.034 8.20562 133.991 9.62745 136.628C11.0493 139.265 13.1206 141.495 15.6454 143.108L71.7801 177.439C74.1508 178.913 76.8867 179.694 79.6783 179.694C82.4698 179.694 85.2057 178.913 87.5765 177.439L143.711 143.108C146.236 141.496 148.307 139.265 149.729 136.628C151.151 133.991 151.877 131.034 151.837 128.038V59.9352C151.875 56.9397 151.149 53.9839 149.727 51.347C148.305 48.7101 146.234 46.4793 143.711 44.8651L87.5765 10.5337Z" fill="url(#paint0_linear)"/>
<path fill-rule="evenodd" clip-rule="evenodd" d="M79.6783 9.7539C81.3615 9.7539 83.2442 10.6196 85.311 11.8777L143.777 47.4201C145.668 48.6335 147.218 50.3104 148.278 52.2914C149.339 54.2725 149.875 56.4918 149.837 58.7386V129.217C149.875 131.464 149.339 133.683 148.278 135.664C147.218 137.645 145.668 139.322 143.777 140.535L85.312 176.077L85.311 176.078C83.6408 177.217 81.6958 177.888 79.6783 178.021C77.6609 177.888 75.7158 177.217 74.0456 176.078L74.0446 176.077L15.5823 140.537L15.5801 140.536C13.7918 139.572 12.2668 138.185 11.1383 136.496C10.1614 134.893 9.52031 132.678 9.52031 129.217V58.7386C9.48157 56.4919 10.018 54.2726 11.0785 52.2916C12.139 50.3106 13.6885 48.6336 15.5797 47.4202L74.0365 11.8831L74.0406 11.8807C76.1244 10.6277 77.9846 9.7539 79.6783 9.7539ZM87.3908 8.4609L145.855 44.0021C148.333 45.5722 150.368 47.751 151.765 50.3307C153.162 52.9104 153.876 55.8051 153.837 58.7386V129.217C153.876 132.151 153.162 135.045 151.765 137.625C150.368 140.205 148.333 142.384 145.855 143.954L87.3898 179.495C85.0956 181.02 82.4302 181.893 79.6783 182.021C76.9264 181.893 74.261 181.02 71.9667 179.495H71.9658L13.502 143.953L13.4995 143.952C11.1642 142.659 9.18097 140.814 7.72281 138.578C6.12823 135.725 5.36521 132.482 5.52031 129.217V58.7386C5.48125 55.805 6.19436 52.9103 7.59165 50.3305C8.98894 47.7508 11.0238 45.572 13.5022 44.002L71.9667 8.46025L71.9749 8.45537C74.0655 7.19796 76.7734 5.75391 79.6783 5.75391C82.5645 5.75391 85.2816 7.17699 87.3908 8.46085V8.4609Z" fill="#0078D4"/>
<path opacity="0.2" d="M139.887 131.926L80.3369 166.533L20.3979 131.927L79.9479 97.3203L139.887 131.926Z" fill="#003067"/>
<path d="M140.532 120.547L79.81 155.835L18.698 120.552L79.42 85.2637L140.532 120.547Z" fill="#1B93EB"/>
<path d="M140.532 120.547L140.52 124.653L79.798 159.941L79.81 155.835L140.532 120.547Z" fill="#1F56A3"/>
<path d="M79.81 155.834L79.798 159.94L18.686 124.657L18.698 120.551L79.81 155.834Z" fill="#0078D4"/>
<path d="M97.9381 79.0075C98.6696 79.4669 99.2573 80.1227 99.6341 80.8999L101.07 83.7097C101.447 84.487 102.035 85.1427 102.766 85.6021L118.288 94.5638C118.93 94.9823 119.464 95.5463 119.848 96.21C120.231 96.8737 120.452 97.6185 120.494 98.3837L120.429 121.215C120.425 122.615 119.427 123.183 118.209 122.48L87.299 104.634C86.657 104.215 86.1227 103.651 85.7396 102.988C85.3564 102.324 85.1351 101.579 85.0936 100.814L85.1691 74.1819C85.1731 72.7823 86.1709 72.2137 87.389 72.9169L97.9381 79.0075Z" fill="#CC9547"/>
<path d="M120.755 93.1294L105.233 84.1678C104.502 83.7084 103.914 83.0527 103.537 82.2754L102.101 79.4656C101.724 78.6883 101.137 78.0326 100.405 77.5732L89.8561 71.4827C89.6312 71.3195 89.3668 71.2194 89.0902 71.1927C88.8136 71.1661 88.5349 71.2139 88.283 71.3311L85.8159 72.7648C86.0678 72.6476 86.3465 72.5999 86.623 72.6265C86.8996 72.6532 87.164 72.7533 87.3889 72.9164L97.938 79.0069C98.6695 79.4664 99.2571 80.1221 99.634 80.8993L101.07 83.7091C101.447 84.4864 102.034 85.1421 102.766 85.6015L118.288 94.5632C118.93 94.9817 119.464 95.5457 119.848 96.2094C120.231 96.8732 120.452 97.6179 120.493 98.3831L120.429 121.214C120.456 121.487 120.41 121.761 120.297 122.01C120.183 122.259 120.005 122.473 119.782 122.631L122.249 121.197C122.472 121.039 122.65 120.825 122.764 120.576C122.877 120.327 122.923 120.053 122.896 119.781L122.961 96.9494C122.919 96.1841 122.698 95.4394 122.315 94.7757C121.932 94.112 121.397 93.548 120.755 93.1294Z" fill="#D6AA6C"/>
<path d="M118.75 68.2788C118.75 68.2788 99.8944 57.3641 95.5574 54.8516V58.3103L118.072 71.3289C118.251 71.4322 118.454 71.4867 118.66 71.4868C118.867 71.4869 119.069 71.4326 119.248 71.3295C119.427 71.2264 119.575 71.078 119.679 70.8993C119.782 70.7206 119.836 70.5179 119.836 70.3115V70.3115C119.863 69.905 119.776 69.499 119.584 69.1397C119.392 68.7804 119.103 68.4822 118.75 68.2788V68.2788Z" fill="#CDCDD0"/>
<path d="M94.6118 54.373C94.2769 54.2104 93.9035 54.1434 93.5329 54.1794C93.1623 54.2153 92.8088 54.3528 92.5113 54.5768C91.6377 55.1514 90.9119 55.9239 90.3927 56.8316C89.8736 57.7393 89.5758 58.7566 89.5234 59.801V79.4738L89.5185 79.4709V96.4927C89.4417 97.3967 89.1241 98.2637 88.5986 99.0033C88.0731 99.743 87.359 100.328 86.5307 100.698C86.2301 100.859 85.8967 100.948 85.5562 100.96C85.2156 100.972 84.8769 100.906 84.5659 100.766C84.5659 100.766 108.098 114.397 108.646 114.669C108.971 114.838 109.332 114.926 109.698 114.926C110.064 114.926 110.425 114.838 110.751 114.669C111.579 114.299 112.293 113.713 112.818 112.974C113.344 112.234 113.661 111.367 113.738 110.463V73.7715C113.806 72.7308 114.111 71.7193 114.629 70.814C115.146 69.9088 115.864 69.1335 116.726 68.5472C117.014 68.3618 117.339 68.2414 117.679 68.1945C118.018 68.1476 118.363 68.1753 118.691 68.2756C118.691 68.2756 95.1596 54.6447 94.6118 54.373Z" fill="white"/>
<path d="M109.453 100.356C110.095 100.775 110.629 101.339 111.012 102.003C111.395 102.666 111.617 103.411 111.658 104.176L117.969 122.647C117.965 124.046 116.967 124.615 115.749 123.912L84.839 106.066C84.1997 105.647 83.668 105.083 83.2868 104.421C82.9056 103.759 82.6856 103.016 82.6447 102.252L76.334 83.7819C76.338 82.3823 77.3357 81.8136 78.5427 82.5105L109.453 100.356Z" fill="#EFB252"/>
<path d="M111.92 98.9222L81.0098 81.0764C80.7865 80.9149 80.5241 80.816 80.2497 80.7901C79.9753 80.7641 79.6989 80.812 79.4493 80.9289L76.9822 82.3626C77.2318 82.2458 77.5081 82.1979 77.7825 82.2238C78.0569 82.2498 78.3193 82.3486 78.5426 82.5101L109.453 100.356C110.671 101.059 111.113 102.727 111.658 104.176L117.969 122.647C117.996 122.919 117.95 123.193 117.837 123.442C117.723 123.691 117.545 123.905 117.322 124.063L119.789 122.629C120.013 122.471 120.19 122.257 120.304 122.008C120.417 121.759 120.463 121.485 120.436 121.213L114.125 102.742C113.56 101.285 113.138 99.6255 111.92 98.9222Z" fill="#F2C175"/>
<path d="M97.937 73.5801C98.0623 73.7863 98.2252 73.9673 98.4171 74.1138L98.4328 75.059L98.5579 82.6669C98.4861 82.6364 98.4087 82.621 98.3306 82.6217C98.2525 82.6223 98.1754 82.6391 98.1041 82.6709L93.054 75.2604L93.7197 75.0275L97.937 73.5801Z" fill="url(#paint1_linear)"/>
<path d="M93.3011 76.0508L97.9247 82.835C97.8477 82.9646 97.8095 83.1136 97.8148 83.2642C97.8306 83.6472 97.9595 84.0168 98.1853 84.3265L97.1289 86.1162L95.0595 80.6814L93.3011 76.0508Z" fill="url(#paint2_linear)"/>
<path d="M98.544 74.1988C98.5976 74.2299 98.6537 74.2564 98.7119 74.2777L98.8564 82.8336C98.8142 82.802 98.7701 82.7729 98.7244 82.7463C98.6713 82.7155 98.6156 82.6894 98.5579 82.6683L98.4328 75.0605L98.4171 74.1152C98.4578 74.1454 98.5002 74.1733 98.544 74.1988V74.1988Z" fill="#50E6FF"/>
<path d="M98.7244 82.7462C98.7701 82.7728 98.8141 82.8019 98.8564 82.8335C99.0971 83.0208 99.2924 83.26 99.4278 83.5332C99.4884 83.6519 99.5373 83.7762 99.5738 83.9043C99.6129 84.0378 99.6333 84.176 99.6345 84.3151C99.6349 84.3964 99.6254 84.4774 99.606 84.5563C99.5851 84.6453 99.5445 84.7284 99.4871 84.7994C99.3864 84.8998 99.2521 84.9592 99.1101 84.9662C98.9681 84.9732 98.8285 84.9272 98.7185 84.8371C98.6201 84.7793 98.5287 84.7102 98.4462 84.6312C98.3492 84.5388 98.2618 84.4368 98.1853 84.3268C97.9595 84.0171 97.8306 83.6475 97.8148 83.2645C97.8095 83.1139 97.8477 82.9649 97.9247 82.8353C97.9688 82.7659 98.0308 82.7096 98.1041 82.6723C98.1754 82.6405 98.2525 82.6238 98.3306 82.6231C98.4087 82.6224 98.4861 82.6378 98.558 82.6683C98.6156 82.6893 98.6714 82.7154 98.7244 82.7462Z" fill="#50E6FF"/>
<path d="M98.5499 72.1073C98.8995 72.3313 99.1698 72.6595 99.3227 73.0456C99.3743 73.1684 99.4125 73.2964 99.4368 73.4273C99.452 73.5094 99.4597 73.5927 99.46 73.6762C99.4619 73.7933 99.4408 73.9097 99.3977 74.0186C99.3657 74.0987 99.3143 74.1695 99.2479 74.2245C99.1712 74.2799 99.0811 74.3139 98.987 74.3232C98.8928 74.3324 98.7978 74.3165 98.7118 74.2771C98.6536 74.2557 98.5975 74.2293 98.5439 74.1981C98.5001 74.1726 98.4578 74.1448 98.4171 74.1146C98.2252 73.9682 98.0623 73.7872 97.9369 73.5809C97.8633 73.4627 97.8011 73.3377 97.7512 73.2076C97.6768 73.0211 97.6371 72.8226 97.6339 72.6219C97.6349 72.254 97.8049 72.0264 98.0601 71.9879C98.1506 71.9759 98.2427 71.9838 98.3298 72.011C98.4067 72.0343 98.4806 72.0666 98.5499 72.1073V72.1073Z" fill="#50E6FF"/>
<path d="M105.716 83.3242C105.839 83.6038 106.021 83.8532 106.25 84.0553L105.786 91.2167L99.606 84.5553C99.6254 84.4764 99.635 84.3954 99.6345 84.3141C99.6333 84.1751 99.6129 84.0368 99.5739 83.9033L105.716 83.3242Z" fill="url(#paint3_linear)"/>
<path d="M99.2481 74.2246L105.649 82.2303C105.583 82.3541 105.551 82.4928 105.555 82.6329C105.555 82.7375 105.567 82.8417 105.59 82.9437L99.4279 83.5329C99.2925 83.2596 99.0972 83.0204 98.8565 82.8331L98.7119 74.2772C98.798 74.3166 98.8929 74.3325 98.9871 74.3233C99.0813 74.314 99.1713 74.28 99.2481 74.2246V74.2246Z" fill="url(#paint4_linear)"/>
<path d="M106.471 82.1185C106.498 82.1343 106.525 82.1515 106.552 82.1697C106.955 82.4687 107.236 82.9036 107.343 83.394C107.364 83.4892 107.374 83.5863 107.374 83.6838C107.374 83.7059 107.373 83.7274 107.372 83.7486C107.383 83.8501 107.365 83.9526 107.32 84.044C107.275 84.1355 107.204 84.2121 107.117 84.2648C107.03 84.3175 106.929 84.3441 106.827 84.3414C106.725 84.3387 106.626 84.3068 106.541 84.2496C106.516 84.2375 106.491 84.2243 106.465 84.2094C106.389 84.165 106.317 84.1137 106.25 84.0561C106.021 83.8541 105.839 83.6046 105.716 83.3251C105.661 83.2027 105.618 83.075 105.589 82.944C105.567 82.8419 105.555 82.7377 105.555 82.6332C105.551 82.4931 105.583 82.3543 105.649 82.2305C105.69 82.1563 105.751 82.0946 105.824 82.0521C105.891 82.0181 105.963 81.9981 106.038 81.9933C106.112 81.9885 106.187 81.9991 106.257 82.0244C106.332 82.0475 106.403 82.0791 106.471 82.1185V82.1185Z" fill="#50E6FF"/>
<path d="M110.19 85.3748L106.113 90.9575L106.541 84.249C106.626 84.3063 106.725 84.3381 106.827 84.3408C106.929 84.3435 107.03 84.3169 107.117 84.2642C107.204 84.2115 107.275 84.1349 107.32 84.0435C107.365 83.952 107.383 83.8495 107.372 83.748L110.19 85.3748Z" fill="url(#paint5_linear)"/>
<path d="M105.752 74.0758L106.257 82.0245C106.187 81.9992 106.112 81.9886 106.038 81.9933C105.963 81.9981 105.891 82.0181 105.824 82.0521L99.3977 74.019C99.4408 73.9101 99.4619 73.7937 99.46 73.6766C99.4597 73.5931 99.452 73.5098 99.4368 73.4277L105.752 74.0758Z" fill="url(#paint6_linear)"/>
<path d="M110.574 85.3399L106.047 91.7063L105.919 91.7207L97.1338 86.6485L97.0572 86.5822L92.6835 75.136L97.1269 68.7657L97.2101 68.7402L105.887 73.7351L110.574 85.3399ZM106.113 90.9582L110.19 85.3755L107.372 83.7488C107.373 83.7276 107.374 83.7061 107.374 83.684C107.374 83.5866 107.364 83.4894 107.343 83.3942L110.184 85.0344L106.076 74.7261L106.552 82.1699C106.525 82.1517 106.498 82.1345 106.471 82.1187C106.403 82.0792 106.332 82.0476 106.257 82.0246L105.752 74.0759L99.4369 73.4279C99.4126 73.2969 99.3744 73.1689 99.3229 73.0461L105.139 73.6486L97.4773 69.2252L98.3298 72.0116C98.2427 71.9843 98.1507 71.9764 98.0602 71.9884L97.2342 69.2906L93.3433 74.7307L97.7512 73.2082C97.8012 73.3382 97.8634 73.4632 97.937 73.5815L93.7198 75.0288L93.054 75.2617L98.1041 82.6723C98.0308 82.7095 97.9688 82.7658 97.9247 82.8353L93.3011 76.0511L95.0595 80.6817L97.1289 86.1165L98.1853 84.3268C98.2618 84.4368 98.3492 84.5388 98.4462 84.6312L97.371 86.4474L105.211 90.974L99.4872 84.7995C99.5446 84.7284 99.5852 84.6453 99.606 84.5563L105.786 91.2177L106.25 84.0563C106.317 84.1138 106.389 84.1651 106.465 84.2096C106.491 84.2245 106.516 84.2376 106.541 84.2498L106.113 90.9582" fill="#50E6FF"/>
<path d="M99.4871 84.7991L105.211 90.9736L97.371 86.447L98.4462 84.6309C98.5287 84.7098 98.6201 84.7789 98.7185 84.8368C98.8285 84.9268 98.9681 84.9728 99.1101 84.9658C99.2521 84.9589 99.3864 84.8995 99.4871 84.7991V84.7991Z" fill="url(#paint7_linear)"/>
<path d="M97.2342 69.2891L98.0602 71.9869C97.805 72.0254 97.6351 72.253 97.634 72.6209C97.6372 72.8217 97.677 73.0202 97.7513 73.2067L93.3434 74.7292L97.2151 69.3073L97.2342 69.2891Z" fill="url(#paint8_linear)"/>
<path d="M99.4279 83.5325L105.589 82.9434C105.618 83.0744 105.661 83.2021 105.716 83.3245L99.5738 83.9036C99.5373 83.7755 99.4884 83.6512 99.4279 83.5325V83.5325Z" fill="#50E6FF"/>
<path d="M99.248 74.2235C99.3144 74.1684 99.3659 74.0976 99.3978 74.0176L105.824 82.0507C105.751 82.0932 105.69 82.1549 105.649 82.2291L99.248 74.2235Z" fill="#50E6FF"/>
<path d="M105.139 73.648L99.3228 73.0455C99.1699 72.6595 98.8995 72.3312 98.5499 72.1072C98.4806 72.0665 98.4067 72.0342 98.3298 72.011L97.4773 69.2246L105.139 73.648Z" fill="url(#paint9_linear)"/>
<path d="M106.076 74.7246L110.184 85.033L107.343 83.3927C107.236 82.9023 106.955 82.4674 106.552 82.1685L106.076 74.7246Z" fill="url(#paint10_linear)"/>
<path d="M68.3537 108.402L71.2681 122.707L69.1495 112.343L70.3978 122.707L43.9625 122.703C43.9834 122.408 44.0838 122.125 44.2531 121.883C44.4223 121.641 44.654 121.45 44.9235 121.329L66.2097 108.959C66.8696 108.605 67.6048 108.414 68.3537 108.402Z" fill="#F2F2F2"/>
<path d="M80.5525 128.135L73.734 127.623C73.3045 127.591 72.8974 127.419 72.5744 127.134C72.2514 126.849 72.0303 126.467 71.9447 126.045L71.2681 122.708L69.1494 112.344L70.3977 122.708L70.8634 126.573C70.9178 126.832 71.0317 127.076 71.196 127.284C71.3602 127.492 71.5705 127.659 71.8103 127.772C72.4455 128.114 73.1523 128.301 73.8734 128.319L80.555 128.592L93.9977 129.14L80.5525 128.135Z" fill="#E8E8E8"/>
<path d="M104.28 128.201C105.107 128.678 105.414 129.348 105.186 129.976L93.9977 129.139L80.5524 128.134L73.9202 127.636C73.4797 127.612 73.05 127.491 72.6622 127.281C72.3855 127.142 72.171 126.904 72.0606 126.614L71.2681 122.707L68.3536 108.402C69.2545 108.346 70.1535 108.539 70.9521 108.959L104.28 128.201Z" fill="white"/>
<path d="M105.186 129.977C105.015 130.397 104.699 130.742 104.295 130.949L83.0091 143.319C82.2814 143.707 81.4655 143.901 80.6409 143.88L80.5549 128.592L93.9977 129.14L105.186 129.977Z" fill="#F2F2F2"/>
<path d="M104.295 130.948L83.009 143.318C82.2813 143.707 81.4655 143.9 80.6409 143.879L80.6356 145.731C81.4602 145.752 82.2761 145.559 83.0039 145.17L104.29 132.8C104.694 132.593 105.01 132.249 105.181 131.829L105.186 129.977C105.015 130.397 104.699 130.741 104.295 130.948Z" fill="#E8E8E8"/>
<path d="M78.2665 143.318L44.9389 124.077C44.6681 123.956 44.4345 123.765 44.2628 123.524C44.091 123.282 43.9873 122.999 43.9625 122.703L43.9573 124.555C43.982 124.851 44.0857 125.134 44.2575 125.376C44.4292 125.617 44.6628 125.808 44.9337 125.929L78.2613 145.17C78.9914 145.558 79.8091 145.751 80.6356 145.731L80.6409 143.879C79.8144 143.899 78.9966 143.706 78.2665 143.318V143.318Z" fill="#B3B3B3"/>
<path d="M70.3978 122.707L70.8634 126.572C70.9178 126.832 71.0316 127.075 71.1959 127.283C71.3602 127.491 71.5704 127.658 71.8102 127.771C72.4454 128.113 73.1523 128.301 73.8734 128.319L80.555 128.591L80.641 143.879C79.8144 143.899 78.9967 143.706 78.2666 143.318L44.939 124.077C44.6681 123.956 44.4346 123.765 44.2628 123.524C44.091 123.282 43.9873 122.999 43.9625 122.703L70.3978 122.707Z" fill="#E8E8E8"/>
<path opacity="0.2" fill-rule="evenodd" clip-rule="evenodd" d="M62.5081 125.023L67.1901 128.367L68.5281 134.722L71.6651 131.585L75.2171 134.387L83.9121 118.668L62.5081 125.023Z" fill="#B3B3B3"/>
<path opacity="0.2" d="M34.6292 117.347C34.442 117.41 34.2791 117.53 34.1634 117.69C34.0477 117.85 33.9849 118.042 33.9838 118.24C33.9827 118.437 34.0433 118.63 34.1572 118.791C34.2711 118.953 34.4326 119.075 34.6191 119.14C35.0986 119.383 35.6288 119.511 36.1667 119.511C36.7046 119.511 37.2349 119.383 37.7144 119.14L76.1294 96.9607C76.3166 96.8977 76.4795 96.7778 76.5952 96.6177C76.7109 96.4576 76.7737 96.2654 76.7749 96.0679C76.776 95.8703 76.7153 95.6774 76.6014 95.516C76.4875 95.3547 76.326 95.2329 76.1395 95.1678C75.6601 94.924 75.1298 94.7969 74.5919 94.7969C74.054 94.7969 73.5237 94.924 73.0443 95.1678L34.6292 117.347Z" fill="#1F56A3"/>
<path d="M68.6651 86.2908C68.4905 86.4051 68.3453 86.559 68.2414 86.7401C68.1375 86.9211 68.0778 87.1241 68.0673 87.3326L68.0751 90.0896C68.0761 90.4683 68.3473 90.6228 68.6769 90.4325L71.0761 89.0473C71.2501 88.9337 71.3948 88.7808 71.4987 88.6009C71.6025 88.421 71.6626 88.2192 71.674 88.0117L71.6662 85.2547C71.6651 84.8697 71.394 84.7153 71.0644 84.9056L68.6651 86.2908Z" fill="#F2F2F2"/>
<path d="M63.8612 89.0643C63.6865 89.1786 63.5413 89.3325 63.4374 89.5135C63.3335 89.6946 63.2739 89.8976 63.2633 90.106L63.2711 92.8631C63.2722 93.2418 63.5432 93.3963 63.8729 93.206L66.2722 91.8208C66.4474 91.7074 66.5934 91.5542 66.6982 91.3737C66.8031 91.1932 66.8638 90.9905 66.8755 90.7821L66.8677 88.0251C66.8666 87.6401 66.5954 87.4857 66.2604 87.6791L63.8612 89.0643Z" fill="#F2F2F2"/>
<path d="M68.6495 80.7765C68.4751 80.8895 68.3299 81.0423 68.226 81.2223C68.122 81.4023 68.0623 81.6044 68.0516 81.812L68.0594 84.569C68.0605 84.9478 68.3316 85.1022 68.6612 84.9119L71.0605 83.5267C71.2344 83.4132 71.3792 83.2602 71.4831 83.0803C71.5869 82.9004 71.647 82.6986 71.6584 82.4912L71.6506 79.7342C71.6495 79.3492 71.3784 79.2009 71.0488 79.3913L68.6495 80.7765Z" fill="#F2F2F2"/>
<path d="M59.0573 91.8369C58.8827 91.9512 58.7375 92.1052 58.6336 92.2862C58.5297 92.4672 58.47 92.6702 58.4595 92.8787L58.4673 95.6356C58.4684 96.0144 58.7394 96.1689 59.0691 95.9786L61.4738 94.5902C61.6477 94.4766 61.7924 94.3237 61.8963 94.1438C62.0001 93.9639 62.0602 93.7621 62.0716 93.5547L62.0637 90.7977C62.0626 90.4127 61.7916 90.2582 61.462 90.4485L59.0573 91.8369Z" fill="#F2F2F2"/>
<path d="M63.8456 83.55C63.6711 83.663 63.5259 83.8158 63.422 83.9958C63.3181 84.1758 63.2583 84.3779 63.2477 84.5855L63.2555 87.3425C63.2566 87.7213 63.5276 87.8758 63.8573 87.6855L66.2565 86.3003C66.4318 86.1869 66.5778 86.0337 66.6826 85.8532C66.7875 85.6727 66.8482 85.47 66.8598 85.2616L66.852 82.5046C66.8509 82.1196 66.5798 81.9713 66.2448 82.1648L63.8456 83.55Z" fill="#F2F2F2"/>
<path d="M68.6339 75.2558C68.46 75.3694 68.3152 75.5223 68.2113 75.7022C68.1075 75.8821 68.0474 76.084 68.036 76.2914L68.0438 79.0483C68.0449 79.4271 68.316 79.5815 68.6456 79.3912L71.0449 78.006C71.2188 77.8925 71.3636 77.7395 71.4674 77.5596C71.5713 77.3797 71.6313 77.1779 71.6427 76.9705L71.6349 74.2135C71.6339 73.8347 71.3628 73.6803 71.0331 73.8706L68.6339 75.2558Z" fill="#F2F2F2"/>
<path d="M54.2533 94.6123C54.0787 94.7266 53.9335 94.8805 53.8296 95.0615C53.7257 95.2425 53.6661 95.4455 53.6555 95.654L53.6633 98.411C53.6644 98.7897 53.9354 98.9442 54.265 98.754L56.6697 97.3656C56.8437 97.2521 56.9884 97.0991 57.0923 96.9192C57.1961 96.7393 57.2562 96.5375 57.2676 96.3301L57.2598 93.5731C57.2587 93.1881 56.9877 93.0336 56.658 93.224L54.2533 94.6123Z" fill="#F2F2F2"/>
<path d="M59.0416 86.3245C58.8671 86.4375 58.722 86.5903 58.618 86.7703C58.5141 86.9504 58.4544 87.1525 58.4437 87.3601L58.4515 90.1171C58.4526 90.4958 58.7237 90.6503 59.0533 90.46L61.458 89.0716C61.6319 88.958 61.7766 88.8051 61.8805 88.6252C61.9843 88.4453 62.0444 88.2435 62.0558 88.0361L62.048 85.2791C62.0469 84.8941 61.7759 84.7459 61.4463 84.9361L59.0416 86.3245Z" fill="#F2F2F2"/>
<path d="M63.8299 78.0313C63.656 78.1448 63.5112 78.2977 63.4074 78.4776C63.3035 78.6576 63.2434 78.8594 63.2321 79.0668L63.2399 81.8237C63.2409 82.2025 63.512 82.357 63.8417 82.1667L66.2409 80.7815C66.4162 80.6681 66.5621 80.5149 66.667 80.3344C66.7718 80.1539 66.8325 79.9512 66.8442 79.7428L66.8364 76.9858C66.8353 76.6071 66.5642 76.4526 66.2292 76.646L63.8299 78.0313Z" fill="#F2F2F2"/>
<path d="M68.6183 69.7363C68.4443 69.8499 68.2996 70.0028 68.1957 70.1827C68.0919 70.3626 68.0318 70.5644 68.0204 70.7718L68.0282 73.5288C68.0293 73.9076 68.3004 74.062 68.63 73.8717L71.0292 72.4865C71.2032 72.373 71.3479 72.22 71.4518 72.0401C71.5557 71.8602 71.6157 71.6584 71.6271 71.451L71.6193 68.694C71.6182 68.3152 71.3472 68.1607 71.0175 68.3511L68.6183 69.7363Z" fill="#F2F2F2"/>
<path d="M49.4493 97.3858C49.2746 97.5 49.1295 97.654 49.0256 97.835C48.9217 98.016 48.862 98.219 48.8514 98.4275L48.8593 101.184C48.8603 101.563 49.1314 101.718 49.461 101.527L51.8657 100.139C52.0397 100.026 52.1844 99.8726 52.2883 99.6927C52.3921 99.5128 52.4522 99.311 52.4636 99.1035L52.4558 96.3465C52.4547 95.9615 52.1837 95.8071 51.854 95.9974L49.4493 97.3858Z" fill="#F2F2F2"/>
<path d="M54.2377 89.098C54.0632 89.211 53.9181 89.3638 53.8142 89.5438C53.7102 89.7238 53.6505 89.9259 53.6399 90.1335L53.6477 92.8905C53.6488 93.2692 53.9198 93.4237 54.2494 93.2335L56.6541 91.845C56.828 91.7315 56.9728 91.5785 57.0766 91.3986C57.1805 91.2187 57.2405 91.0169 57.2519 90.8095L57.2441 88.0525C57.243 87.6675 56.972 87.5193 56.6423 87.7096L54.2377 89.098Z" fill="#F2F2F2"/>
<path d="M59.026 80.8038C58.852 80.9174 58.7073 81.0703 58.6034 81.2502C58.4996 81.4301 58.4395 81.6319 58.4281 81.8394L58.4359 84.5963C58.437 84.9751 58.708 85.1296 59.0377 84.9392L61.4424 83.5509C61.6163 83.4373 61.761 83.2844 61.8649 83.1045C61.9687 82.9246 62.0288 82.7228 62.0402 82.5154L62.0324 79.7585C62.0313 79.3797 61.7603 79.2252 61.4307 79.4155L59.026 80.8038Z" fill="#F2F2F2"/>
<path d="M63.8143 72.5098C63.6404 72.6233 63.4956 72.7763 63.3917 72.9562C63.2879 73.1361 63.2278 73.3379 63.2164 73.5453L63.2242 76.3023C63.2253 76.6811 63.4964 76.8356 63.826 76.6452L66.2253 75.26C66.4005 75.1466 66.5465 74.9934 66.6514 74.8129C66.7562 74.6324 66.8169 74.4297 66.8286 74.2213L66.8208 71.4643C66.8197 71.0856 66.5486 70.9311 66.2136 71.1246L63.8143 72.5098Z" fill="#F2F2F2"/>
<path d="M44.6453 100.159C44.4707 100.273 44.3255 100.427 44.2216 100.608C44.1177 100.789 44.0581 100.992 44.0475 101.201L44.0553 103.958C44.0564 104.337 44.3275 104.491 44.6571 104.301L47.0618 102.912C47.2357 102.799 47.3804 102.646 47.4843 102.466C47.5882 102.286 47.6482 102.084 47.6596 101.877L47.6518 99.12C47.6507 98.735 47.3796 98.5805 47.05 98.7708L44.6453 100.159Z" fill="#E8E8E8"/>
<path d="M49.4337 91.8713C49.2592 91.9844 49.1141 92.1372 49.0101 92.3172C48.9062 92.4972 48.8465 92.6993 48.8358 92.9069L48.8436 95.6639C48.8447 96.0427 49.1158 96.1971 49.4454 96.0068L51.8501 94.6185C52.024 94.5049 52.1688 94.352 52.2727 94.1721C52.3765 93.9922 52.4366 93.7903 52.448 93.5829L52.4402 90.826C52.4391 90.441 52.168 90.2927 51.8384 90.4831L49.4337 91.8713Z" fill="#F2F2F2"/>
<path d="M54.2219 83.5773C54.048 83.6909 53.9033 83.8438 53.7994 84.0237C53.6956 84.2036 53.6355 84.4054 53.6241 84.6128L53.632 87.3697C53.633 87.7485 53.9041 87.903 54.2337 87.7127L56.6384 86.3244C56.8123 86.2108 56.9571 86.0579 57.0609 85.878C57.1648 85.6981 57.2248 85.4962 57.2362 85.2888L57.2284 82.5319C57.2273 82.1531 56.9563 81.9986 56.6266 82.189L54.2219 83.5773Z" fill="#F2F2F2"/>
<path d="M59.0104 75.2844C58.8364 75.3979 58.6917 75.5509 58.5878 75.7308C58.4839 75.9107 58.4239 76.1125 58.4125 76.3199L58.4203 79.0769C58.4214 79.4556 58.6924 79.6101 59.0221 79.4198L61.4268 78.0314C61.6007 77.9179 61.7454 77.7649 61.8493 77.585C61.9531 77.4052 62.0132 77.2033 62.0246 76.9959L62.0167 74.2389C62.0157 73.8602 61.7446 73.7057 61.415 73.8959L59.0104 75.2844Z" fill="#F2F2F2"/>
<path d="M39.8469 102.929C39.671 103.044 39.5245 103.198 39.4197 103.379C39.3148 103.561 39.2545 103.765 39.2437 103.974L39.2515 106.731C39.2525 107.11 39.5237 107.265 39.8587 107.071L42.2579 105.686C42.4319 105.572 42.5766 105.419 42.6805 105.239C42.7843 105.06 42.8444 104.858 42.8558 104.65L42.848 101.893C42.8469 101.508 42.5758 101.354 42.2462 101.544L39.8469 102.929Z" fill="#E8E8E8"/>
<path d="M44.6297 94.6448C44.4553 94.7578 44.3101 94.9106 44.2062 95.0906C44.1022 95.2706 44.0425 95.4727 44.0319 95.6803L44.0397 98.4373C44.0407 98.8161 44.3119 98.9705 44.6415 98.7802L47.0461 97.3919C47.2201 97.2783 47.3648 97.1254 47.4687 96.9455C47.5726 96.7656 47.6326 96.5638 47.644 96.3563L47.6362 93.5994C47.6351 93.2144 47.364 93.0662 47.0344 93.2565L44.6297 94.6448Z" fill="#E8E8E8"/>
<path d="M49.4181 86.3507C49.2441 86.4643 49.0994 86.6173 48.9955 86.7972C48.8917 86.9771 48.8316 87.1789 48.8202 87.3863L48.828 90.1432C48.8291 90.522 49.1002 90.6765 49.4298 90.4862L51.8345 89.0978C52.0084 88.9842 52.1532 88.8313 52.257 88.6514C52.3609 88.4715 52.421 88.2697 52.4324 88.0623L52.4245 85.3053C52.4235 84.9266 52.1524 84.7721 51.8228 84.9624L49.4181 86.3507Z" fill="#F2F2F2"/>
<path d="M54.2063 78.0577C54.0324 78.1713 53.8877 78.3242 53.7838 78.5041C53.68 78.684 53.6199 78.8858 53.6085 79.0932L53.6163 81.8502C53.6174 82.229 53.8885 82.3835 54.2181 82.1932L56.6227 80.8049C56.7967 80.6913 56.9414 80.5384 57.0453 80.3585C57.1492 80.1786 57.2092 79.9768 57.2206 79.7693L57.2128 77.0123C57.2117 76.6336 56.9407 76.4791 56.611 76.6694L54.2063 78.0577Z" fill="#F2F2F2"/>
<path d="M39.8312 97.4151C39.6554 97.5279 39.509 97.6809 39.4041 97.8615C39.2992 98.0422 39.2388 98.2452 39.2279 98.4537L39.2357 101.211C39.2368 101.59 39.5079 101.744 39.8429 101.551L42.2422 100.165C42.4161 100.052 42.5609 99.8988 42.6647 99.7189C42.7686 99.539 42.8287 99.3372 42.8401 99.1298L42.8323 96.3728C42.8312 95.9878 42.5601 95.8396 42.2305 96.0299L39.8312 97.4151Z" fill="#E8E8E8"/>
<path d="M49.4024 80.8313C49.2285 80.9448 49.0838 81.0978 48.9799 81.2777C48.876 81.4576 48.816 81.6594 48.8046 81.8668L48.8124 84.6238C48.8135 85.0026 49.0846 85.157 49.4142 84.9667L51.8188 83.5783C51.9928 83.4647 52.1375 83.3118 52.2414 83.1319C52.3453 82.952 52.4053 82.7502 52.4167 82.5428L52.4089 79.7858C52.4078 79.407 52.1368 79.2525 51.8071 79.4429L49.4024 80.8313Z" fill="#F2F2F2"/>
<path d="M45.1905 78.6069C44.8266 79.0424 44.6152 79.585 44.5887 80.1519C44.5908 80.9156 45.1329 81.2184 45.7976 80.8346C46.1465 80.6086 46.4368 80.303 46.6447 79.943C46.8526 79.583 46.9721 79.1787 46.9933 78.7635C46.9919 78.2513 46.7498 77.9455 46.3901 77.9151L46.3896 77.7314L54.7925 72.88L54.793 73.0653C54.4322 73.5001 54.2229 74.0405 54.1965 74.6048C54.1987 75.3685 54.7408 75.6713 55.4001 75.2906C55.7498 75.0642 56.041 74.7583 56.2497 74.3978C56.4585 74.0372 56.5789 73.6324 56.6012 73.2164C56.5998 72.7061 56.3571 72.402 55.9981 72.3706L55.9975 72.1842L64.4004 67.3328L64.4009 67.5182C64.0402 67.953 63.8308 68.4933 63.8045 69.0576C63.8066 69.8214 64.3488 70.1241 65.008 69.7435C65.3569 69.5175 65.6472 69.2119 65.8551 68.8519C66.063 68.4918 66.1824 68.0876 66.2037 67.6724C66.2023 67.1602 65.9602 66.8544 65.6005 66.824L65.6 66.6403L74.6081 61.4395L74.6981 93.1754C74.6525 94.006 74.4124 94.8142 73.997 95.5348C73.5816 96.2554 73.0025 96.8682 72.3066 97.3238L38.679 116.739C37.3551 117.503 36.2762 116.888 36.2719 115.361L36.1819 83.6248L45.19 78.424L45.1905 78.6069ZM48.8593 101.184C48.8603 101.562 49.1315 101.717 49.4611 101.526L51.8657 100.138C52.0397 100.025 52.1844 99.8716 52.2883 99.6917C52.3922 99.5118 52.4522 99.31 52.4636 99.1026L52.4558 96.3456C52.4547 95.9606 52.1837 95.8061 51.854 95.9965L49.4493 97.3848C49.2747 97.4991 49.1295 97.653 49.0256 97.8341C48.9217 98.0151 48.862 98.2181 48.8514 98.4266L48.8593 101.184V101.184ZM63.2711 92.8628C63.2722 93.2416 63.5433 93.3961 63.8729 93.2058L66.2722 91.8205C66.4474 91.7072 66.5934 91.554 66.6983 91.3735C66.8031 91.193 66.8638 90.9903 66.8755 90.7818L66.8677 88.0249C66.8666 87.6399 66.5955 87.4855 66.2604 87.6789L63.8612 89.0641C63.6865 89.1784 63.5413 89.3323 63.4374 89.5134C63.3335 89.6944 63.2739 89.8974 63.2633 90.1059L63.2711 92.8629V92.8628ZM44.0553 103.957C44.0564 104.336 44.3275 104.49 44.6571 104.3L47.0618 102.912C47.2357 102.798 47.3805 102.645 47.4843 102.465C47.5882 102.285 47.6483 102.084 47.6597 101.876L47.6519 99.1192C47.6508 98.7342 47.3797 98.5798 47.0501 98.7701L44.6454 100.158C44.4707 100.273 44.3255 100.427 44.2216 100.608C44.1177 100.789 44.0581 100.992 44.0475 101.2L44.0553 103.957V103.957ZM39.2514 106.731C39.2525 107.109 39.5236 107.264 39.8586 107.071L42.2579 105.685C42.4318 105.572 42.5765 105.419 42.6804 105.239C42.7843 105.059 42.8443 104.857 42.8557 104.65L42.8479 101.893C42.8468 101.508 42.5757 101.353 42.2461 101.544L39.8469 102.929C39.6709 103.043 39.5245 103.197 39.4196 103.379C39.3147 103.56 39.2544 103.764 39.2436 103.974L39.2514 106.731V106.731ZM58.4672 95.6364C58.4683 96.0152 58.7393 96.1697 59.069 95.9793L61.4737 94.591C61.6476 94.4774 61.7923 94.3245 61.8962 94.1446C62 93.9647 62.0601 93.7629 62.0715 93.5555L62.0637 90.7985C62.0626 90.4135 61.7915 90.259 61.4619 90.4493L59.0572 91.8377C58.8826 91.952 58.7374 92.1059 58.6335 92.287C58.5296 92.468 58.4699 92.671 58.4594 92.8795L58.4672 95.6365V95.6364ZM53.6633 98.41C53.6643 98.7887 53.9354 98.9432 54.265 98.753L56.6697 97.3646C56.8436 97.251 56.9884 97.0981 57.0922 96.9182C57.1961 96.7383 57.2561 96.5365 57.2675 96.3291L57.2597 93.5721C57.2586 93.1871 56.9876 93.0327 56.6579 93.223L54.2532 94.6113C54.0786 94.7256 53.9334 94.8795 53.8295 95.0606C53.7256 95.2416 53.666 95.4446 53.6554 95.653L53.6633 98.4101V98.41ZM48.8436 95.6636C48.8447 96.0423 49.1158 96.1968 49.4454 96.0065L51.8501 94.6181C52.024 94.5046 52.1688 94.3516 52.2726 94.1717C52.3765 93.9918 52.4366 93.79 52.448 93.5826L52.4402 90.8256C52.4391 90.4406 52.168 90.2923 51.8383 90.4827L49.4337 91.871C49.2592 91.984 49.1141 92.1368 49.0101 92.3168C48.9062 92.4968 48.8464 92.699 48.8358 92.9066L48.8436 95.6635V95.6636ZM63.2555 87.3428C63.2566 87.7216 63.5276 87.8761 63.8573 87.6857L66.2565 86.3005C66.4318 86.1871 66.5778 86.034 66.6826 85.8535C66.7875 85.673 66.8482 85.4703 66.8598 85.2618L66.852 82.5048C66.8509 82.1198 66.5798 81.9716 66.2448 82.165L63.8456 83.5502C63.6711 83.6632 63.5259 83.816 63.422 83.996C63.3181 84.1761 63.2583 84.3782 63.2477 84.5858L63.2555 87.3428V87.3428ZM44.0397 98.437C44.0408 98.8158 44.3119 98.9702 44.6415 98.78L47.0462 97.3916C47.2201 97.278 47.3648 97.1251 47.4687 96.9452C47.5726 96.7653 47.6326 96.5635 47.644 96.356L47.6362 93.599C47.6351 93.214 47.364 93.0658 47.0344 93.2561L44.6297 94.6445C44.4553 94.7575 44.3101 94.9103 44.2062 95.0903C44.1023 95.2703 44.0425 95.4724 44.0319 95.68L44.0397 98.437ZM39.2357 101.211C39.2368 101.589 39.5079 101.744 39.843 101.55L42.2422 100.165C42.4161 100.052 42.5609 99.8986 42.6648 99.7187C42.7686 99.5388 42.8287 99.337 42.8401 99.1296L42.8323 96.3726C42.8312 95.9876 42.5601 95.8394 42.2305 96.0297L39.8312 97.4149C39.6554 97.5277 39.509 97.6807 39.4041 97.8614C39.2992 98.042 39.2388 98.245 39.2279 98.4536L39.2357 101.211V101.211ZM48.828 90.1433C48.829 90.5221 49.1002 90.6766 49.4298 90.4863L51.8344 89.0979C52.0084 88.9844 52.1531 88.8314 52.257 88.6515C52.3609 88.4716 52.4209 88.2698 52.4323 88.0624L52.4245 85.3054C52.4234 84.9267 52.1524 84.7722 51.8227 84.9625L49.418 86.3509C49.2441 86.4644 49.0994 86.6174 48.9955 86.7973C48.8916 86.9772 48.8316 87.179 48.8201 87.3864L48.828 90.1433V90.1433ZM48.8123 84.6233C48.8134 85.002 49.0845 85.1565 49.4141 84.9662L51.8188 83.5778C51.9927 83.4642 52.1375 83.3113 52.2413 83.1314C52.3452 82.9515 52.4053 82.7497 52.4167 82.5423L52.4089 79.7853C52.4078 79.4065 52.1367 79.252 51.807 79.4424L49.4024 80.8308C49.2285 80.9444 49.0837 81.0973 48.9798 81.2772C48.876 81.4571 48.8159 81.6589 48.8045 81.8664L48.8123 84.6234L48.8123 84.6233ZM63.2398 81.8227C63.2409 82.2015 63.512 82.356 63.8416 82.1657L66.2409 80.7805C66.4161 80.6671 66.5621 80.5139 66.667 80.3334C66.7718 80.1529 66.8325 79.9502 66.8442 79.7418L66.8364 76.9848C66.8353 76.6061 66.5642 76.4516 66.2292 76.6451L63.8299 78.0303C63.656 78.1438 63.5112 78.2968 63.4073 78.4767C63.3035 78.6566 63.2434 78.8584 63.232 79.0658L63.2398 81.8227V81.8227ZM63.2242 76.3026C63.2253 76.6814 63.4963 76.8359 63.826 76.6456L66.2252 75.2604C66.4005 75.147 66.5465 74.9938 66.6513 74.8133C66.7562 74.6328 66.8169 74.4301 66.8285 74.2217L66.8207 71.4647C66.8196 71.0859 66.5485 70.9315 66.2135 71.1249L63.8143 72.5101C63.6403 72.6237 63.4956 72.7766 63.3917 72.9565C63.2878 73.1364 63.2278 73.3382 63.2164 73.5456L63.2242 76.3026V76.3026ZM68.0751 90.0893C68.0761 90.4681 68.3472 90.6225 68.6769 90.4322L71.0761 89.047C71.25 88.9334 71.3948 88.7805 71.4987 88.6006C71.6025 88.4207 71.6626 88.2189 71.674 88.0115L71.6662 85.2545C71.6651 84.8695 71.394 84.715 71.0644 84.9053L68.6651 86.2905C68.4905 86.4048 68.3453 86.5588 68.2414 86.7398C68.1375 86.9208 68.0778 87.1238 68.0672 87.3323L68.0751 90.0893V90.0893ZM58.4516 90.1163C58.4526 90.4951 58.7237 90.6496 59.0533 90.4593L61.458 89.0709C61.6319 88.9573 61.7767 88.8044 61.8805 88.6245C61.9844 88.4446 62.0444 88.2428 62.0558 88.0354L62.048 85.2784C62.0469 84.8934 61.7759 84.7452 61.4463 84.9354L59.0416 86.3238C58.8671 86.4368 58.722 86.5896 58.618 86.7696C58.5141 86.9496 58.4544 87.1518 58.4437 87.3594L58.4516 90.1164V90.1163ZM53.6476 92.8899C53.6487 93.2687 53.9197 93.4232 54.2493 93.2329L56.654 91.8446C56.8279 91.731 56.9727 91.5781 57.0766 91.3982C57.1804 91.2183 57.2405 91.0164 57.2519 90.809L57.2441 88.0521C57.243 87.6671 56.972 87.5188 56.6423 87.7091L54.2376 89.0974C54.0631 89.2104 53.918 89.3632 53.8141 89.5432C53.7102 89.7232 53.6504 89.9253 53.6398 90.1329L53.6476 92.8899V92.8899ZM58.4359 84.5962C58.437 84.975 58.708 85.1295 59.0377 84.9392L61.4424 83.5508C61.6163 83.4372 61.761 83.2843 61.8649 83.1044C61.9687 82.9245 62.0288 82.7227 62.0402 82.5153L62.0324 79.7584C62.0313 79.3796 61.7602 79.2251 61.4307 79.4154L59.026 80.8037C58.852 80.9173 58.7073 81.0702 58.6034 81.2501C58.4995 81.43 58.4395 81.6319 58.4281 81.8393L58.4359 84.5962V84.5962ZM53.632 87.3698C53.633 87.7485 53.9041 87.903 54.2337 87.7127L56.6384 86.3244C56.8123 86.2108 56.9571 86.0579 57.0609 85.878C57.1648 85.6981 57.2248 85.4963 57.2362 85.2889L57.2284 82.5319C57.2273 82.1531 56.9563 81.9987 56.6266 82.189L54.222 83.5773C54.048 83.6909 53.9033 83.8438 53.7995 84.0237C53.6956 84.2036 53.6356 84.4054 53.6242 84.6128L53.632 87.3698H53.632ZM58.4203 79.0761C58.4214 79.4549 58.6924 79.6094 59.0221 79.419L61.4267 78.0307C61.6007 77.9171 61.7454 77.7642 61.8493 77.5843C61.9531 77.4044 62.0132 77.2026 62.0245 76.9952L62.0167 74.2382C62.0157 73.8594 61.7446 73.7049 61.415 73.8952L59.0103 75.2835C58.8364 75.3971 58.6916 75.55 58.5878 75.7299C58.4839 75.9098 58.4239 76.1116 58.4125 76.319L58.4203 79.076V79.0761ZM53.6163 81.8496C53.6174 82.2284 53.8884 82.3829 54.218 82.1926L56.6227 80.8043C56.7967 80.6907 56.9414 80.5377 57.0453 80.3578C57.1492 80.1779 57.2092 79.9761 57.2206 79.7687L57.2128 77.0117C57.2117 76.6329 56.9407 76.4785 56.611 76.6688L54.2063 78.0571C54.0324 78.1707 53.8877 78.3236 53.7838 78.5035C53.68 78.6834 53.6199 78.8852 53.6085 79.0926L53.6163 81.8496V81.8496ZM68.0594 84.5692C68.0605 84.9479 68.3316 85.1024 68.6612 84.9121L71.0605 83.5269C71.2344 83.4133 71.3792 83.2604 71.483 83.0805C71.5869 82.9006 71.647 82.6988 71.6584 82.4913L71.6505 79.7343C71.6495 79.3493 71.3784 79.2011 71.0488 79.3914L68.6495 80.7766C68.475 80.8896 68.3299 81.0424 68.2259 81.2224C68.122 81.4025 68.0623 81.6046 68.0516 81.8122L68.0594 84.5692V84.5692ZM68.0438 79.0491C68.0449 79.4278 68.316 79.5823 68.6456 79.392L71.0448 78.0068C71.2188 77.8932 71.3635 77.7403 71.4674 77.5604C71.5712 77.3805 71.6313 77.1787 71.6427 76.9713L71.6349 74.2143C71.6338 73.8356 71.3628 73.6811 71.0331 73.8714L68.6338 75.2566C68.4599 75.3702 68.3152 75.5231 68.2113 75.703C68.1074 75.8829 68.0474 76.0848 68.036 76.2922L68.0438 79.0491L68.0438 79.0491ZM68.0281 73.529C68.0292 73.9078 68.3003 74.0622 68.6299 73.8719L71.0292 72.4867C71.2031 72.3731 71.3479 72.2202 71.4517 72.0403C71.5556 71.8604 71.6156 71.6586 71.627 71.4512L71.6192 68.6942C71.6181 68.3154 71.3471 68.1609 71.0174 68.3513L68.6182 69.7365C68.4443 69.85 68.2995 70.003 68.1956 70.1829C68.0918 70.3628 68.0317 70.5646 68.0203 70.772L68.0281 73.529" fill="white"/>
<path d="M36.272 115.361L36.1819 83.6249L34.989 82.9316L35.0789 114.668C35.0489 114.964 35.098 115.263 35.2213 115.534C35.3446 115.806 35.5376 116.04 35.7806 116.212L36.9736 116.905C36.7306 116.733 36.5376 116.499 36.4144 116.228C36.2911 115.957 36.242 115.657 36.272 115.361V115.361Z" fill="#F2F2F2"/>
<path d="M36.178 82.2467L34.985 81.5527L34.989 82.9317L36.182 83.6247L36.178 82.2467Z" fill="#E8E8E8"/>
<path d="M74.6079 61.4395L74.6039 60.0605L65.5959 65.2615L65.5999 66.6395L74.6079 61.4395Z" fill="#F2F2F2"/>
<path d="M64.4 67.3331L64.397 65.9551L55.994 70.8061L55.998 72.1841L64.4 67.3331Z" fill="#F2F2F2"/>
<path d="M54.792 72.88L54.789 71.502L46.386 76.353L46.39 77.732L54.792 72.88Z" fill="#F2F2F2"/>
<path d="M37.3542 73.2716C37.0056 73.4995 36.7156 73.8063 36.5079 74.1673C36.3001 74.5282 36.1804 74.9331 36.1584 75.3489L36.178 82.2475L45.1861 77.0467L45.1778 74.1007C44.8158 74.0719 44.5706 73.7673 44.5691 73.2545C44.5914 72.8385 44.7119 72.4337 44.9206 72.0732C45.1294 71.7127 45.4205 71.4067 45.7702 71.1803C46.4349 70.7965 46.9716 71.1024 46.9738 71.8661C46.9483 72.4311 46.7388 72.9723 46.3773 73.4073L46.3857 76.3541L54.7886 71.5027L54.7802 68.5543C54.4219 68.5227 54.1784 68.2185 54.177 67.7074C54.199 67.2924 54.3188 66.8884 54.5266 66.5285C54.7344 66.1686 55.0243 65.8629 55.3727 65.6363C56.0374 65.2525 56.5795 65.5553 56.5817 66.319C56.5554 66.883 56.346 67.4231 55.9853 67.8575L55.9936 70.8069L64.3965 65.9555L64.3881 63.0071C64.0298 62.9755 63.7864 62.6713 63.7849 62.1602C63.807 61.7452 63.9267 61.3413 64.1345 60.9814C64.3423 60.6215 64.6322 60.3158 64.9806 60.0892C65.6453 59.7054 66.182 60.0113 66.1842 60.775C66.1586 61.34 65.9492 61.8812 65.5877 62.3161L65.5961 65.263L74.6042 60.0621L74.5846 53.1635C74.5825 52.3998 74.0403 52.0909 73.381 52.4715L37.3542 73.2716Z" fill="#1F56A3"/>
<path d="M64.9826 60.7782C64.8087 60.8918 64.6639 61.0447 64.5601 61.2246C64.4562 61.4045 64.3962 61.6063 64.3848 61.8137L64.3881 63.0069L64.3965 65.9553L64.4004 67.3338L64.4009 67.5192L64.4043 68.7123C64.4054 69.0973 64.6764 69.2456 65.006 69.0553C65.181 68.9429 65.3266 68.7902 65.4306 68.6101C65.5346 68.4299 65.5941 68.2275 65.6039 68.0197L65.6005 66.825L65.6 66.6412L65.5961 65.2628L65.5877 62.3159L65.5844 61.1211C65.5833 60.7424 65.3177 60.5848 64.9826 60.7782Z" fill="#AAB0B1"/>
<path d="M65.6005 66.8242L65.6039 68.019C65.594 68.2267 65.5346 68.4291 65.4306 68.6093C65.3266 68.7894 65.181 68.9421 65.006 69.0545C64.6764 69.2448 64.4054 69.0965 64.4043 68.7115L64.4009 67.5184C64.0402 67.9531 63.8308 68.4935 63.8044 69.0578C63.8066 69.8216 64.3487 70.1243 65.0079 69.7437C65.3569 69.5177 65.6472 69.2121 65.8551 68.8521C66.0629 68.492 66.1824 68.0878 66.2037 67.6726C66.2022 67.1604 65.9602 66.8546 65.6005 66.8242Z" fill="#E8E8E8"/>
<path d="M64.9806 60.0874C64.6322 60.314 64.3423 60.6197 64.1345 60.9796C63.9267 61.3395 63.8069 61.7435 63.7849 62.1585C63.7864 62.6696 64.0298 62.9738 64.3881 63.0054L64.3847 61.8122C64.3961 61.6048 64.4562 61.403 64.56 61.2231C64.6639 61.0432 64.8086 60.8903 64.9825 60.7767C65.3176 60.5832 65.5833 60.7409 65.5843 61.1196L65.5877 62.3144C65.9492 61.8795 66.1586 61.3383 66.1842 60.7733C66.182 60.0095 65.6453 59.7037 64.9806 60.0874Z" fill="#003067"/>
<path d="M54.793 73.0658C54.4323 73.5006 54.2229 74.0409 54.1965 74.6052C54.1987 75.369 54.7408 75.6717 55.4001 75.2911C55.7498 75.0647 56.041 74.7587 56.2497 74.3982C56.4585 74.0377 56.5789 73.6329 56.6012 73.2169C56.5998 72.7066 56.3572 72.4025 55.9981 72.3711L56.0015 73.5632C55.9906 73.7718 55.9302 73.9748 55.8252 74.1554C55.7203 74.336 55.5739 74.4891 55.3981 74.6019C55.0685 74.7922 54.7975 74.6439 54.7964 74.2589L54.793 73.0658Z" fill="#E8E8E8"/>
<path d="M45.1905 78.6078C44.8266 79.0433 44.6152 79.5859 44.5886 80.1528C44.5908 80.9165 45.1329 81.2193 45.7975 80.8355C46.1465 80.6095 46.4368 80.3039 46.6447 79.9439C46.8525 79.5839 46.972 79.1796 46.9933 78.7644C46.9918 78.2522 46.7498 77.9464 46.3901 77.916L46.3935 79.1108C46.3828 79.3184 46.3231 79.5205 46.2192 79.7005C46.1152 79.8805 45.9701 80.0333 45.7956 80.1463C45.4606 80.3397 45.195 80.1883 45.1939 79.8033L45.1905 78.6078Z" fill="#E8E8E8"/>
<path d="M55.3747 66.3238C55.2008 66.4374 55.0561 66.5903 54.9522 66.7702C54.8483 66.9501 54.7883 67.1519 54.7769 67.3593L54.7802 68.5525L54.7886 71.501L54.7925 72.8794L54.793 73.0648L54.7964 74.2579C54.7975 74.6429 55.0686 74.7911 55.3982 74.6008C55.574 74.488 55.7204 74.335 55.8253 74.1543C55.9302 73.9737 55.9906 73.7707 56.0015 73.5621L55.9981 72.37L55.9976 72.1837L55.9937 70.8052L55.9853 67.8557L55.9819 66.6636C55.9809 66.2848 55.7098 66.1303 55.3747 66.3238Z" fill="#AAB0B1"/>
<path d="M55.3728 65.6349C55.0244 65.8615 54.7344 66.1672 54.5266 66.5272C54.3188 66.8871 54.199 67.291 54.177 67.706C54.1785 68.2171 54.4219 68.5213 54.7802 68.5529L54.7768 67.3597C54.7882 67.1523 54.8483 66.9505 54.9522 66.7706C55.056 66.5907 55.2008 66.4378 55.3747 66.3242C55.7097 66.1308 55.9808 66.2852 55.9819 66.664L55.9853 67.8561C56.3461 67.4218 56.5554 66.8817 56.5817 66.3177C56.5795 65.5539 56.0375 65.2512 55.3728 65.6349Z" fill="#003067"/>
<path d="M45.7722 71.8686C45.5978 71.9816 45.4526 72.1344 45.3487 72.3144C45.2448 72.4945 45.1851 72.6966 45.1744 72.9041L45.1778 74.0998L45.1862 77.0458L45.1901 78.4242L45.1906 78.6071L45.194 79.8027C45.1951 80.1877 45.4606 80.3391 45.7957 80.1457C45.9701 80.0327 46.1153 79.8799 46.2192 79.6999C46.3232 79.5199 46.3829 79.3178 46.3935 79.1102L46.3902 77.9154L46.3896 77.7317L46.3857 76.3532L46.3774 73.4064L46.374 72.2116C46.3729 71.8328 46.1019 71.6783 45.7722 71.8686Z" fill="#AAB0B1"/>
<path d="M45.7702 71.1792C45.4205 71.4056 45.1294 71.7116 44.9206 72.0721C44.7118 72.4326 44.5914 72.8374 44.5691 73.2534C44.5705 73.7663 44.8157 74.0708 45.1777 74.0996L45.1744 72.904C45.185 72.6964 45.2447 72.4943 45.3486 72.3143C45.4525 72.1342 45.5977 71.9815 45.7722 71.8685C46.1018 71.6781 46.3729 71.8326 46.3739 72.2114L46.3773 73.4062C46.7388 72.9712 46.9482 72.43 46.9738 71.8651C46.9716 71.1013 46.4349 70.7955 45.7702 71.1792Z" fill="#003067"/>
<path d="M45.186 77.0469L36.178 82.2479L36.182 83.6259L45.19 78.4249L45.186 77.0469Z" fill="#F2F2F2"/>
<path d="M74.2322 52.3895L73.0392 51.6962C72.903 51.6327 72.7522 51.6067 72.6026 51.621C72.4529 51.6353 72.3098 51.6894 72.1881 51.7776L73.3811 52.4709C73.5028 52.3827 73.6459 52.3287 73.7956 52.3143C73.9452 52.3 74.096 52.326 74.2322 52.3895V52.3895Z" fill="#0078D4"/>
<path d="M36.158 75.3473L34.965 74.6543L34.985 81.5523L36.178 82.2463L36.158 75.3473Z" fill="#0078D4"/>
<path d="M73.381 52.4713L72.188 51.7773L36.161 72.5773L37.354 73.2713L73.381 52.4713Z" fill="#0078D4"/>
<path d="M37.3542 73.2714L36.1612 72.5781C35.8126 72.806 35.5227 73.1128 35.3149 73.4738C35.1071 73.8347 34.9874 74.2396 34.9655 74.6554L36.1585 75.3488C36.1804 74.9329 36.3001 74.528 36.5079 74.1671C36.7157 73.8062 37.0056 73.4993 37.3542 73.2714V73.2714Z" fill="#0078D4"/>
<path d="M47.5414 85.925C47.4537 87.5513 46.9832 89.1338 46.1681 90.5438C45.353 91.9538 44.2164 93.1514 42.8508 94.0389C40.2626 95.5332 38.1473 94.3276 38.1388 91.3536C38.2246 89.7272 38.6934 88.1441 39.5069 86.7333C40.3204 85.3224 41.4556 84.1236 42.8201 83.2346C45.4174 81.735 47.533 82.9405 47.5414 85.925Z" fill="#0078D4"/>
<path d="M44.3922 86.2194C44.2354 86.3172 44.1063 86.4536 44.0172 86.6156L42.2943 89.5997L41.6678 89.2531L41.6224 89.2064C41.5622 89.1791 41.4958 89.1682 41.43 89.1746C41.3642 89.1811 41.3012 89.2048 41.2474 89.2433C41.0928 89.3393 40.9662 89.4744 40.8803 89.6349C40.6728 89.9839 40.6739 90.3582 40.8736 90.4824L40.8647 90.498L41.9269 91.093C41.9884 91.1176 42.055 91.1263 42.1207 91.1184C42.1865 91.1105 42.2491 91.0862 42.303 91.0477C42.4585 90.9516 42.5874 90.8181 42.678 90.6594L44.7616 87.0399C44.9691 86.6806 44.9681 86.3062 44.7683 86.182C44.7078 86.1547 44.6413 86.1437 44.5752 86.1503C44.5092 86.1569 44.4461 86.1807 44.3922 86.2194V86.2194Z" fill="white"/>
<path fill-rule="evenodd" clip-rule="evenodd" d="M83.9124 114.754L67.1901 124.453L62.5078 121.108L83.9124 114.754Z" fill="white"/>
<path fill-rule="evenodd" clip-rule="evenodd" d="M83.9124 114.754L75.2168 130.473L71.665 127.671L68.8623 125.456L83.9124 114.754Z" fill="white"/>
<path fill-rule="evenodd" clip-rule="evenodd" d="M71.6651 127.671L68.528 130.808L68.8624 125.457L71.6651 127.671Z" fill="#F2F2F2"/>
<path fill-rule="evenodd" clip-rule="evenodd" d="M83.9124 114.754L68.8623 125.456L68.5279 130.807L67.1901 124.453L83.9124 114.754Z" fill="#E8E8E8"/>
</g>
<defs>
<linearGradient id="paint0_linear" x1="79.6785" y1="8.2793" x2="79.6785" y2="179.694" gradientUnits="userSpaceOnUse">
<stop stop-color="#00ABDE"/>
<stop offset="1" stop-color="#007ED8"/>
</linearGradient>
<linearGradient id="paint1_linear" x1="93.054" y1="78.1255" x2="98.5579" y2="78.1255" gradientUnits="userSpaceOnUse">
<stop stop-color="#008BF1"/>
<stop offset="0.22" stop-color="#0086EC"/>
<stop offset="0.49" stop-color="#0078DD"/>
<stop offset="0.79" stop-color="#0061C4"/>
<stop offset="1" stop-color="#004DAE"/>
</linearGradient>
<linearGradient id="paint2_linear" x1="98.0432" y1="76.9196" x2="91.37" y2="84.3913" gradientUnits="userSpaceOnUse">
<stop stop-color="#008BF1"/>
<stop offset="0.22" stop-color="#0086EC"/>
<stop offset="0.49" stop-color="#0078DD"/>
<stop offset="0.79" stop-color="#0061C4"/>
<stop offset="1" stop-color="#004DAE"/>
</linearGradient>
<linearGradient id="paint3_linear" x1="106.056" y1="84.0055" x2="101.782" y2="92.3479" gradientUnits="userSpaceOnUse">
<stop stop-color="#008BF1"/>
<stop offset="0.22" stop-color="#0086EC"/>
<stop offset="0.49" stop-color="#0078DD"/>
<stop offset="0.79" stop-color="#0061C4"/>
<stop offset="1" stop-color="#004DAE"/>
</linearGradient>
<linearGradient id="paint4_linear" x1="105.447" y1="75.0281" x2="100.049" y2="84.3103" gradientUnits="userSpaceOnUse">
<stop stop-color="#008BF1"/>
<stop offset="0.22" stop-color="#0086EC"/>
<stop offset="0.49" stop-color="#0078DD"/>
<stop offset="0.79" stop-color="#0061C4"/>
<stop offset="1" stop-color="#004DAE"/>
</linearGradient>
<linearGradient id="paint5_linear" x1="110.071" y1="84.3704" x2="105.426" y2="90.4309" gradientUnits="userSpaceOnUse">
<stop stop-color="#008BF1"/>
<stop offset="0.22" stop-color="#0086EC"/>
<stop offset="0.49" stop-color="#0078DD"/>
<stop offset="0.79" stop-color="#0061C4"/>
<stop offset="1" stop-color="#004DAE"/>
</linearGradient>
<linearGradient id="paint6_linear" x1="106.058" y1="74.1722" x2="101.222" y2="83.0462" gradientUnits="userSpaceOnUse">
<stop stop-color="#008BF1"/>
<stop offset="0.22" stop-color="#0086EC"/>
<stop offset="0.49" stop-color="#0078DD"/>
<stop offset="0.79" stop-color="#0061C4"/>
<stop offset="1" stop-color="#004DAE"/>
</linearGradient>
<linearGradient id="paint7_linear" x1="104.983" y1="85.1784" x2="102.341" y2="92.7159" gradientUnits="userSpaceOnUse">
<stop stop-color="#008BF1"/>
<stop offset="0.22" stop-color="#0086EC"/>
<stop offset="0.49" stop-color="#0078DD"/>
<stop offset="0.79" stop-color="#0061C4"/>
<stop offset="1" stop-color="#004DAE"/>
</linearGradient>
<linearGradient id="paint8_linear" x1="97.923" y1="69.7587" x2="95.0198" y2="75.567" gradientUnits="userSpaceOnUse">
<stop stop-color="#008BF1"/>
<stop offset="0.22" stop-color="#0086EC"/>
<stop offset="0.49" stop-color="#0078DD"/>
<stop offset="0.79" stop-color="#0061C4"/>
<stop offset="1" stop-color="#004DAE"/>
</linearGradient>
<linearGradient id="paint9_linear" x1="844.312" y1="385.218" x2="903.012" y2="385.218" gradientUnits="userSpaceOnUse">
<stop stop-color="#008BF1"/>
<stop offset="0.22" stop-color="#0086EC"/>
<stop offset="0.49" stop-color="#0078DD"/>
<stop offset="0.79" stop-color="#0061C4"/>
<stop offset="1" stop-color="#004DAE"/>
</linearGradient>
<linearGradient id="paint10_linear" x1="110.065" y1="75.6144" x2="103.211" y2="81.9174" gradientUnits="userSpaceOnUse">
<stop stop-color="#008BF1"/>
<stop offset="0.22" stop-color="#0086EC"/>
<stop offset="0.49" stop-color="#0078DD"/>
<stop offset="0.79" stop-color="#0061C4"/>
<stop offset="1" stop-color="#004DAE"/>
</linearGradient>
<clipPath id="clip0">
<rect width="159.356" height="188" fill="white"/>
</clipPath>
</defs>
</svg>
