<svg width="100" height="100" viewBox="0 0 100 100" fill="none" xmlns="https://www.w3.org/2000/svg">
<g clip-path="url(#clip0)">
<path d="M49.6401 96.4501C40.382 96.4501 31.3317 93.7047 23.6339 88.5612C15.936 83.4176 9.93624 76.1069 6.3933 67.5535C2.85036 59.0001 1.92337 49.5882 3.72954 40.5079C5.53571 31.4277 9.99394 23.0869 16.5404 16.5404C23.0869 9.99393 31.4277 5.53571 40.5079 3.72954C49.5882 1.92337 59.0001 2.85036 67.5535 6.3933C76.1069 9.93624 83.4176 15.936 88.5612 23.6339C93.7047 31.3317 96.4501 40.382 96.4501 49.6401C96.4505 55.7874 95.24 61.8746 92.8878 67.554C90.5355 73.2335 87.0875 78.3939 82.7407 82.7407C78.3939 87.0875 73.2335 90.5355 67.554 92.8878C61.8746 95.24 55.7874 96.4505 49.6401 96.4501V96.4501Z" fill="url(#paint0_linear)"/>
<path fill-rule="evenodd" clip-rule="evenodd" d="M95.54 49.64C95.54 58.7182 92.848 67.5925 87.8045 75.1407C82.7609 82.6889 75.5923 88.572 67.2052 92.0461C58.818 95.5201 49.5891 96.4291 40.6854 94.658C31.7816 92.887 23.603 88.5154 17.1838 82.0962C10.7646 75.677 6.39302 67.4984 4.62196 58.5946C2.85089 49.6909 3.75987 40.462 7.23393 32.0748C10.708 23.6877 16.5911 16.5191 24.1393 11.4755C31.6875 6.43199 40.5618 3.74 49.64 3.74C55.6677 3.73998 61.6363 4.9272 67.2052 7.23388C72.774 9.54057 77.834 12.9215 82.0963 17.1837C86.3585 21.446 89.7394 26.5059 92.0461 32.0748C94.3528 37.6437 95.54 43.6123 95.54 49.64V49.64ZM49.64 3.62732e-07C59.4579 3.62732e-07 69.0553 2.91134 77.2185 8.36585C85.3818 13.8204 91.7442 21.5731 95.5014 30.6436C99.2585 39.7141 100.242 49.6951 98.3262 59.3243C96.4108 68.9535 91.6831 77.7985 84.7408 84.7408C77.7985 91.6831 68.9535 96.4108 59.3243 98.3262C49.6951 100.242 39.7141 99.2585 30.6436 95.5014C21.5731 91.7442 13.8204 85.3818 8.36585 77.2185C2.91134 69.0553 3.62732e-07 59.4579 3.62732e-07 49.64C-0.000787738 43.121 1.28265 36.6656 3.77702 30.6427C6.27138 24.6197 9.9278 19.1471 14.5375 14.5375C19.1471 9.9278 24.6197 6.27138 30.6427 3.77702C36.6656 1.28265 43.121 -0.000787738 49.64 3.62732e-07V3.62732e-07Z" fill="#F2F1F0"/>
<path fill-rule="evenodd" clip-rule="evenodd" d="M92.7296 49.6406C92.7296 58.163 90.2024 66.494 85.4676 73.5801C80.7328 80.6662 74.0031 86.1892 66.1294 89.4505C58.2557 92.7119 49.5918 93.5653 41.2331 91.9026C32.8745 90.24 25.1966 86.1361 19.1703 80.1098C13.1441 74.0836 9.04017 66.4057 7.37753 58.047C5.7149 49.6884 6.56822 41.0244 9.8296 33.1507C13.091 25.2771 18.6139 18.5473 25.7 13.8126C32.7862 9.07776 41.1172 6.55058 49.6396 6.55058C55.2983 6.55023 60.9017 7.66455 66.1298 9.82991C71.3579 11.9953 76.1082 15.1692 80.1096 19.1706C84.1109 23.1719 87.2849 27.9223 89.4502 33.1503C91.6156 38.3784 92.7299 43.9818 92.7296 49.6406V49.6406ZM49.6396 2.81058C58.9017 2.81058 67.9558 5.55711 75.6569 10.7029C83.3581 15.8486 89.3604 23.1624 92.9049 31.7195C96.4493 40.2766 97.3767 49.6925 95.5697 58.7767C93.7628 67.8608 89.3027 76.2051 82.7534 82.7544C76.2041 89.3037 67.8598 93.7638 58.7757 95.5708C49.6915 97.3777 40.2756 96.4503 31.7185 92.9059C23.1614 89.3614 15.8476 83.3591 10.7018 75.6579C5.5561 67.9568 2.80957 58.9027 2.80957 49.6406C2.81076 37.2209 7.745 25.3101 16.5271 16.5281C25.3091 7.74599 37.2198 2.81174 49.6396 2.81055V2.81058Z" fill="#0078D4"/>
<path opacity="0.2" d="M23.0054 76.4364H76.2748C76.5547 76.4356 76.8229 76.324 77.0208 76.1261C77.2187 75.9282 77.3302 75.6601 77.331 75.3802V33.791H21.9492V75.3802C21.95 75.6601 22.0616 75.9282 22.2595 76.1261C22.4574 76.324 22.7256 76.4356 23.0054 76.4364V76.4364Z" fill="#003067"/>
<path d="M23.0054 74.2626H76.2748C76.5547 74.2618 76.8228 74.1502 77.0207 73.9523C77.2186 73.7544 77.3302 73.4863 77.331 73.2064V31.6172H21.9492V73.2064C21.9501 73.4863 22.0616 73.7544 22.2595 73.9523C22.4574 74.1502 22.7256 74.2618 23.0054 74.2626V74.2626Z" fill="#F2F2F2"/>
<path d="M21.9492 36.2204H77.331V31.2561C77.3313 31.1496 77.3106 31.0442 77.27 30.9458C77.2294 30.8475 77.1697 30.7581 77.0945 30.6828C77.0192 30.6076 76.9298 30.548 76.8315 30.5074C76.7331 30.4668 76.6277 30.446 76.5213 30.4463H22.759C22.6526 30.446 22.5472 30.4668 22.4488 30.5074C22.3504 30.548 22.2611 30.6076 22.1858 30.6828C22.1106 30.7581 22.0509 30.8475 22.0103 30.9458C21.9697 31.0442 21.949 31.1496 21.9492 31.2561L21.9492 36.2204Z" fill="#092E4C"/>
<path d="M26.2096 34.8557C26.4873 34.8548 26.7585 34.7716 26.9889 34.6166C27.2192 34.4617 27.3985 34.2418 27.504 33.985C27.6094 33.7281 27.6363 33.4457 27.5813 33.1736C27.5263 32.9014 27.3918 32.6517 27.1948 32.4559C26.9979 32.2602 26.7473 32.1273 26.4748 32.074C26.2023 32.0207 25.9201 32.0493 25.6639 32.1564C25.4077 32.2635 25.189 32.4441 25.0355 32.6755C24.8819 32.9068 24.8004 33.1785 24.8013 33.4562C24.7998 33.6411 24.8353 33.8245 24.9056 33.9956C24.976 34.1666 25.0798 34.3219 25.211 34.4523C25.3422 34.5826 25.4981 34.6855 25.6696 34.7548C25.8411 34.824 26.0247 34.8584 26.2096 34.8557Z" fill="#50E6FF"/>
<path d="M72.4219 39.7939H26.8478C26.2473 39.7939 25.7605 40.2807 25.7605 40.8812V69.2121C25.7605 69.8126 26.2473 70.2993 26.8478 70.2993H72.4219C73.0224 70.2993 73.5092 69.8126 73.5092 69.2121V40.8812C73.5092 40.2807 73.0224 39.7939 72.4219 39.7939Z" fill="#E8E8E8"/>
<path opacity="0.2" d="M65.1956 31.7113L65.093 31.5214L65.0784 31.4862L65.0276 31.4017L64.8772 31.1244L64.843 31.0936L64.4553 30.4463H34.7588L34.3284 31.1893L34.0305 31.5643L34.0081 31.9061L33.9602 32.0243V32.2738L33.9553 32.3153V32.4329C33.9555 32.5508 33.9659 32.6685 33.9866 32.7845L33.9944 32.8577L34.0295 32.9803L34.0793 33.2015L34.1038 33.2498L34.1379 33.3787L34.2805 33.5916L40.6145 44.8186V44.8968L41.2044 45.782L41.345 45.8645L41.4163 45.9441L41.7014 46.1077C42.0382 46.3009 42.4196 46.4028 42.8079 46.4031H56.2219C56.6088 46.4017 56.9888 46.3008 57.3254 46.1101L57.6643 45.9124L57.799 45.7449L57.966 45.6018L65.2834 33.1523V32.9248L65.3137 32.8359V32.4921C65.3138 32.3124 65.2902 32.1334 65.2434 31.9599L65.1956 31.7113Z" fill="#767676"/>
<path d="M43.3813 59.3971L54.8657 50.5284C55.4101 50.1079 56.0785 49.8799 56.7664 49.8799C57.4542 49.8799 58.1226 50.1079 58.6671 50.5284L73.5091 61.9901V70.2985H43.3813V59.3971Z" fill="#767676"/>
<path d="M25.7605 63.4663L35.3047 56.0957C35.8492 55.6753 36.5176 55.4473 37.2054 55.4473C37.8933 55.4473 38.5617 55.6753 39.1061 56.0957L47.4791 62.5617C47.8288 62.8319 48.2583 62.9784 48.7002 62.9784C49.1421 62.9784 49.5716 62.8319 49.9213 62.5617L54.3081 59.174C54.8526 58.7536 55.521 58.5256 56.2088 58.5256C56.8967 58.5256 57.5651 58.7536 58.1095 59.174L72.5151 70.2987H25.7605V63.4663Z" fill="#B3B3B3"/>
<path d="M36.5441 52.5961C38.4106 52.5961 39.9237 51.083 39.9237 49.2165C39.9237 47.35 38.4106 45.8369 36.5441 45.8369C34.6776 45.8369 33.1646 47.35 33.1646 49.2165C33.1646 51.083 34.6776 52.5961 36.5441 52.5961Z" fill="white"/>
<path opacity="0.2" d="M60.0991 74.2622C60.0991 71.4882 58.9971 68.8278 57.0356 66.8662C55.0741 64.9047 52.4137 63.8027 49.6396 63.8027C46.8656 63.8027 44.2052 64.9047 42.2437 66.8662C40.2822 68.8278 39.1802 71.4882 39.1802 74.2622H60.0991Z" fill="#767676"/>
<path d="M42.9139 20.8086L44.9049 25.4266L36.1809 32.4306L42.9139 20.8086Z" fill="url(#paint1_linear)"/>
<path d="M42.8081 44.1784L45.2231 39.3994L56.2221 44.1784H42.8081Z" fill="url(#paint2_linear)"/>
<path d="M36.1809 32.4307L42.8079 44.1777L45.2229 39.3987L36.1809 32.4307Z" fill="url(#paint3_linear)"/>
<path d="M36.1809 32.4308L44.9049 25.4268L45.2229 39.3988L36.1809 32.4308Z" fill="url(#paint4_linear)"/>
<path d="M44.9051 25.4266L56.0891 20.8086H42.9141L44.9051 25.4266Z" fill="url(#paint5_linear)"/>
<path d="M44.905 25.4268L57.014 32.4938L45.223 39.3988L44.905 25.4268Z" fill="url(#paint6_linear)"/>
<path d="M56.089 20.8086L63.089 32.4936H57.014L44.905 25.4266L56.089 20.8086Z" fill="url(#paint7_linear)"/>
<path d="M57.0141 32.4936L56.0891 20.8086L63.0891 32.4936H57.0141Z" fill="url(#paint8_linear)"/>
<path d="M57.0139 32.4941L56.2219 44.1781L63.0889 32.4941H57.0139Z" fill="url(#paint9_linear)"/>
<path d="M57.0139 32.4941L56.2219 44.1781L45.2229 39.3991L57.0139 32.4941Z" fill="url(#paint10_linear)"/>
<path d="M63.3138 32.4917C63.3111 32.4742 63.3064 32.4572 63.2998 32.4409C63.2974 32.4205 63.2922 32.4005 63.2843 32.3816L63.2823 32.3796L63.2818 32.3779L56.2814 20.6937C56.2706 20.6802 56.2582 20.6681 56.2445 20.6576C56.2361 20.6475 56.2266 20.6382 56.2163 20.6299C56.2047 20.6214 56.1923 20.614 56.1793 20.608C56.1733 20.6053 56.1693 20.6008 56.1631 20.5987C56.1539 20.5973 56.1447 20.5966 56.1355 20.5964C56.1203 20.5905 56.1046 20.5863 56.0885 20.584H42.9142C42.8918 20.5861 42.8698 20.5916 42.8491 20.6004C42.8163 20.6098 42.7865 20.6276 42.7627 20.652C42.7493 20.6617 42.737 20.6729 42.7261 20.6854L42.7239 20.6918L42.7194 20.6965L35.9857 32.3177L35.9834 32.3264C35.9764 32.342 35.9712 32.3585 35.9682 32.3754C35.965 32.3856 35.9627 32.3961 35.9613 32.4067L35.9604 32.4105C35.9597 32.4177 35.9559 32.4241 35.9559 32.4313L35.9556 32.4326C35.9569 32.4403 35.9587 32.4479 35.9609 32.4554C35.9626 32.4653 35.9649 32.475 35.9679 32.4844C35.9708 32.5021 35.976 32.5194 35.9831 32.5359L35.9845 32.5411L42.6118 44.288L42.6148 44.291L42.6161 44.2954C42.6309 44.3152 42.6488 44.3325 42.6693 44.3464C42.6791 44.3544 42.6856 44.3661 42.6965 44.3724C42.7303 44.392 42.7687 44.4025 42.8079 44.4026H56.2218C56.2609 44.4025 56.2993 44.3923 56.3332 44.3729C56.3398 44.3692 56.3433 44.3616 56.3494 44.3572C56.3598 44.3488 56.3694 44.3393 56.378 44.329C56.3921 44.3181 56.4049 44.3054 56.416 44.2914L63.283 32.6074L63.2835 32.6058L63.2849 32.6044C63.2927 32.5855 63.2978 32.5656 63.3 32.5454C63.3066 32.5288 63.3111 32.5115 63.3136 32.4939L63.3138 32.4917ZM45.4104 25.4613L55.8886 21.1353L56.7556 32.0819L45.4104 25.4613ZM44.6896 25.8877L44.7387 28.0432L44.9865 38.933L36.5445 32.4267L37.5612 31.6105L44.6896 25.8877ZM45.1383 25.8242L56.5677 32.4939L45.4388 39.0118L45.1383 25.8242ZM57.2217 32.2682L56.3884 21.7483L62.6914 32.2682H57.2217ZM42.8847 21.3092L44.6294 25.3585L36.9802 31.4994L42.8629 21.3469L42.8847 21.3092ZM36.922 33.2863L44.9373 39.4638L42.797 43.6997L39.6271 38.0812L36.922 33.2863ZM56.7609 32.9025L56.0191 43.8439L45.7187 39.3694L56.7609 32.9025ZM57.2241 32.7187H62.6954L56.5107 43.2412L57.2241 32.7187ZM54.953 21.0345L45.0233 25.134L43.2565 21.0345H54.953ZM43.1739 43.9522L45.3276 39.6903L55.139 43.9522H43.1739Z" fill="#50E6FF"/>
<path d="M44.9044 26.8167C45.672 26.8167 46.2942 26.1944 46.2942 25.4269C46.2942 24.6593 45.672 24.0371 44.9044 24.0371C44.1369 24.0371 43.5146 24.6593 43.5146 25.4269C43.5146 26.1944 44.1369 26.8167 44.9044 26.8167Z" fill="#50E6FF"/>
<path d="M45.2228 40.7893C45.9903 40.7893 46.6126 40.1671 46.6126 39.3995C46.6126 38.632 45.9903 38.0098 45.2228 38.0098C44.4552 38.0098 43.833 38.632 43.833 39.3995C43.833 40.1671 44.4552 40.7893 45.2228 40.7893Z" fill="#50E6FF"/>
<path d="M57.014 34.0257C57.7816 34.0257 58.4038 33.4034 58.4038 32.6359C58.4038 31.8683 57.7816 31.2461 57.014 31.2461C56.2465 31.2461 55.6243 31.8683 55.6243 32.6359C55.6243 33.4034 56.2465 34.0257 57.014 34.0257Z" fill="#50E6FF"/>
<path d="M49.6395 82.7224C54.3117 82.7224 58.0993 78.9348 58.0993 74.2625C58.0993 69.5903 54.3117 65.8027 49.6395 65.8027C44.9673 65.8027 41.1797 69.5903 41.1797 74.2625C41.1797 78.9348 44.9673 82.7224 49.6395 82.7224Z" fill="white"/>
<path d="M49.6395 75.2741C51.1879 75.2741 52.4431 74.0189 52.4431 72.4706C52.4431 70.9222 51.1879 69.667 49.6395 69.667C48.0911 69.667 46.8359 70.9222 46.8359 72.4706C46.8359 74.0189 48.0911 75.2741 49.6395 75.2741Z" fill="#0078D4"/>
<path d="M53.4431 79.3676C53.6764 79.1855 53.8303 78.9205 53.8728 78.6276C53.9154 78.3348 53.8432 78.0369 53.6714 77.796C53.2166 77.1492 52.6129 76.6213 51.9112 76.2568C51.2095 75.8924 50.4304 75.7021 49.6396 75.7021C48.8489 75.7021 48.0698 75.8924 47.3681 76.2568C46.6664 76.6213 46.0627 77.1492 45.6079 77.796C45.4361 78.0369 45.3639 78.3348 45.4065 78.6276C45.449 78.9205 45.6029 79.1855 45.8362 79.3676C46.9347 80.1876 48.2688 80.6305 49.6397 80.6305C51.0105 80.6305 52.3446 80.1876 53.4431 79.3676V79.3676Z" fill="#0078D4"/>
</g>
<defs>
<linearGradient id="paint0_linear" x1="47.8697" y1="-15.153" x2="51.8525" y2="130.615" gradientUnits="userSpaceOnUse">
<stop stop-color="#00ABDE"/>
<stop offset="1" stop-color="#007ED8"/>
</linearGradient>
<linearGradient id="paint1_linear" x1="44.6511" y1="21.8118" x2="37.9356" y2="33.4434" gradientUnits="userSpaceOnUse">
<stop stop-color="#008BF1"/>
<stop offset="0.22" stop-color="#0086EC"/>
<stop offset="0.49" stop-color="#0078DD"/>
<stop offset="0.79" stop-color="#0061C4"/>
<stop offset="1" stop-color="#004DAE"/>
</linearGradient>
<linearGradient id="paint2_linear" x1="55.8319" y1="39.8119" x2="54.8701" y2="46.0407" gradientUnits="userSpaceOnUse">
<stop stop-color="#008BF1"/>
<stop offset="0.22" stop-color="#0086EC"/>
<stop offset="0.49" stop-color="#0078DD"/>
<stop offset="0.79" stop-color="#0061C4"/>
<stop offset="1" stop-color="#004DAE"/>
</linearGradient>
<linearGradient id="paint3_linear" x1="44.9599" y1="33.4447" x2="38.2584" y2="45.3471" gradientUnits="userSpaceOnUse">
<stop stop-color="#008BF1"/>
<stop offset="0.22" stop-color="#0086EC"/>
<stop offset="0.49" stop-color="#0078DD"/>
<stop offset="0.79" stop-color="#0061C4"/>
<stop offset="1" stop-color="#004DAE"/>
</linearGradient>
<linearGradient id="paint4_linear" x1="44.9599" y1="26.6328" x2="36.3397" y2="39.5048" gradientUnits="userSpaceOnUse">
<stop stop-color="#008BF1"/>
<stop offset="0.22" stop-color="#0086EC"/>
<stop offset="0.49" stop-color="#0078DD"/>
<stop offset="0.79" stop-color="#0061C4"/>
<stop offset="1" stop-color="#004DAE"/>
</linearGradient>
<linearGradient id="paint5_linear" x1="55.7058" y1="21.2072" x2="54.7908" y2="27.2307" gradientUnits="userSpaceOnUse">
<stop stop-color="#008BF1"/>
<stop offset="0.22" stop-color="#0086EC"/>
<stop offset="0.49" stop-color="#0078DD"/>
<stop offset="0.79" stop-color="#0061C4"/>
<stop offset="1" stop-color="#004DAE"/>
</linearGradient>
<linearGradient id="paint6_linear" x1="56.6618" y1="26.6328" x2="49.2033" y2="41.5479" gradientUnits="userSpaceOnUse">
<stop stop-color="#008BF1"/>
<stop offset="0.22" stop-color="#0086EC"/>
<stop offset="0.49" stop-color="#0078DD"/>
<stop offset="0.79" stop-color="#0061C4"/>
<stop offset="1" stop-color="#004DAE"/>
</linearGradient>
<linearGradient id="paint7_linear" x1="62.56" y1="21.8173" x2="58.5301" y2="36.2878" gradientUnits="userSpaceOnUse">
<stop stop-color="#008BF1"/>
<stop offset="0.22" stop-color="#0086EC"/>
<stop offset="0.49" stop-color="#0078DD"/>
<stop offset="0.79" stop-color="#0061C4"/>
<stop offset="1" stop-color="#004DAE"/>
</linearGradient>
<linearGradient id="paint8_linear" x1="62.8855" y1="21.8173" x2="55.4805" y2="32.053" gradientUnits="userSpaceOnUse">
<stop stop-color="#008BF1"/>
<stop offset="0.22" stop-color="#0086EC"/>
<stop offset="0.49" stop-color="#0078DD"/>
<stop offset="0.79" stop-color="#0061C4"/>
<stop offset="1" stop-color="#004DAE"/>
</linearGradient>
<linearGradient id="paint9_linear" x1="62.8892" y1="33.5027" x2="55.4416" y2="43.6025" gradientUnits="userSpaceOnUse">
<stop stop-color="#008BF1"/>
<stop offset="0.22" stop-color="#0086EC"/>
<stop offset="0.49" stop-color="#0078DD"/>
<stop offset="0.79" stop-color="#0061C4"/>
<stop offset="1" stop-color="#004DAE"/>
</linearGradient>
<linearGradient id="paint10_linear" x1="56.6709" y1="33.5027" x2="51.0177" y2="46.6665" gradientUnits="userSpaceOnUse">
<stop stop-color="#008BF1"/>
<stop offset="0.22" stop-color="#0086EC"/>
<stop offset="0.49" stop-color="#0078DD"/>
<stop offset="0.79" stop-color="#0061C4"/>
<stop offset="1" stop-color="#004DAE"/>
</linearGradient>
<clipPath id="clip0">
<rect width="99.2799" height="99.28" fill="white"/>
</clipPath>
</defs>
</svg>
