<svg width="100" height="100" viewBox="0 0 100 100" fill="none" xmlns="http://www.w3.org/2000/svg">
<g clip-path="url(#clip0)">
<path d="M49.6401 96.4501C40.382 96.4501 31.3317 93.7047 23.6339 88.5612C15.936 83.4176 9.93624 76.1069 6.3933 67.5535C2.85036 59.0001 1.92337 49.5882 3.72954 40.5079C5.53571 31.4277 9.99394 23.0869 16.5404 16.5404C23.0869 9.99393 31.4277 5.53571 40.5079 3.72954C49.5882 1.92337 59.0001 2.85036 67.5535 6.3933C76.1069 9.93624 83.4176 15.936 88.5612 23.6339C93.7047 31.3317 96.4501 40.382 96.4501 49.6401C96.4505 55.7874 95.24 61.8746 92.8878 67.554C90.5355 73.2335 87.0875 78.3939 82.7407 82.7407C78.3939 87.0875 73.2335 90.5355 67.554 92.8878C61.8746 95.24 55.7874 96.4505 49.6401 96.4501V96.4501Z" fill="url(#paint0_linear)"/>
<path fill-rule="evenodd" clip-rule="evenodd" d="M95.54 49.64C95.54 58.7182 92.848 67.5925 87.8045 75.1407C82.7609 82.6889 75.5923 88.572 67.2052 92.0461C58.818 95.5201 49.5891 96.4291 40.6854 94.658C31.7816 92.887 23.603 88.5154 17.1838 82.0962C10.7646 75.677 6.39302 67.4984 4.62196 58.5946C2.85089 49.6909 3.75987 40.462 7.23393 32.0748C10.708 23.6877 16.5911 16.5191 24.1393 11.4755C31.6875 6.43199 40.5618 3.74 49.64 3.74C55.6677 3.73998 61.6363 4.9272 67.2052 7.23388C72.774 9.54057 77.834 12.9215 82.0963 17.1837C86.3585 21.446 89.7394 26.5059 92.0461 32.0748C94.3528 37.6437 95.54 43.6123 95.54 49.64V49.64ZM49.64 3.62732e-07C59.4579 3.62732e-07 69.0553 2.91134 77.2185 8.36585C85.3818 13.8204 91.7442 21.5731 95.5014 30.6436C99.2585 39.7141 100.242 49.6951 98.3262 59.3243C96.4108 68.9535 91.6831 77.7985 84.7408 84.7408C77.7985 91.6831 68.9535 96.4108 59.3243 98.3262C49.6951 100.242 39.7141 99.2585 30.6436 95.5014C21.5731 91.7442 13.8204 85.3818 8.36585 77.2185C2.91134 69.0553 3.62732e-07 59.4579 3.62732e-07 49.64C-0.000787738 43.121 1.28265 36.6656 3.77702 30.6427C6.27138 24.6197 9.9278 19.1471 14.5375 14.5375C19.1471 9.9278 24.6197 6.27138 30.6427 3.77702C36.6656 1.28265 43.121 -0.000787738 49.64 3.62732e-07V3.62732e-07Z" fill="#F2F1F0"/>
<path fill-rule="evenodd" clip-rule="evenodd" d="M92.7296 49.6406C92.7296 58.163 90.2024 66.494 85.4676 73.5801C80.7328 80.6662 74.0031 86.1892 66.1294 89.4505C58.2557 92.7119 49.5918 93.5653 41.2331 91.9026C32.8745 90.24 25.1966 86.1361 19.1703 80.1098C13.1441 74.0836 9.04017 66.4057 7.37753 58.047C5.7149 49.6884 6.56822 41.0244 9.8296 33.1507C13.091 25.2771 18.6139 18.5473 25.7 13.8126C32.7862 9.07776 41.1172 6.55058 49.6396 6.55058C55.2983 6.55023 60.9017 7.66455 66.1298 9.82991C71.3579 11.9953 76.1082 15.1692 80.1096 19.1706C84.1109 23.1719 87.2849 27.9223 89.4502 33.1503C91.6156 38.3784 92.7299 43.9818 92.7296 49.6406V49.6406ZM49.6396 2.81058C58.9017 2.81058 67.9558 5.55711 75.6569 10.7029C83.3581 15.8486 89.3604 23.1624 92.9049 31.7195C96.4493 40.2766 97.3767 49.6925 95.5697 58.7767C93.7628 67.8608 89.3027 76.2051 82.7534 82.7544C76.2041 89.3037 67.8598 93.7638 58.7757 95.5708C49.6915 97.3777 40.2756 96.4503 31.7185 92.9059C23.1614 89.3614 15.8476 83.3591 10.7018 75.6579C5.5561 67.9568 2.80957 58.9027 2.80957 49.6406C2.81076 37.2209 7.745 25.3101 16.5271 16.5281C25.3091 7.74599 37.2198 2.81174 49.6396 2.81055V2.81058Z" fill="#0078D4"/>
<path opacity="0.2" d="M23.0054 78.4364H76.2748C76.5547 78.4356 76.8229 78.324 77.0208 78.1261C77.2187 77.9282 77.3302 77.6601 77.331 77.3802V35.791H21.9492V77.3802C21.95 77.6601 22.0616 77.9282 22.2595 78.1261C22.4574 78.324 22.7256 78.4356 23.0054 78.4364V78.4364Z" fill="#003067"/>
<path d="M23.0054 76.2626H76.2748C76.5547 76.2618 76.8228 76.1502 77.0207 75.9523C77.2186 75.7544 77.3302 75.4863 77.331 75.2064V33.6172H21.9492V75.2064C21.9501 75.4863 22.0616 75.7544 22.2595 75.9523C22.4574 76.1502 22.7256 76.2618 23.0054 76.2626V76.2626Z" fill="#F2F2F2"/>
<path d="M21.9492 38.2204H77.331V33.2561C77.3313 33.1496 77.3106 33.0442 77.27 32.9458C77.2294 32.8475 77.1697 32.7581 77.0945 32.6828C77.0192 32.6076 76.9298 32.548 76.8315 32.5074C76.7331 32.4668 76.6277 32.446 76.5213 32.4463H22.759C22.6526 32.446 22.5472 32.4668 22.4488 32.5074C22.3504 32.548 22.2611 32.6076 22.1858 32.6828C22.1106 32.7581 22.0509 32.8475 22.0103 32.9458C21.9697 33.0442 21.949 33.1496 21.9492 33.2561L21.9492 38.2204Z" fill="#092E4C"/>
<path d="M26.2096 36.8557C26.4873 36.8548 26.7585 36.7716 26.9889 36.6166C27.2192 36.4617 27.3985 36.2418 27.504 35.985C27.6094 35.7281 27.6363 35.4457 27.5813 35.1736C27.5263 34.9014 27.3918 34.6517 27.1948 34.4559C26.9979 34.2602 26.7473 34.1273 26.4748 34.074C26.2023 34.0207 25.9201 34.0493 25.6639 34.1564C25.4077 34.2635 25.189 34.4441 25.0355 34.6755C24.8819 34.9068 24.8004 35.1785 24.8013 35.4562C24.7998 35.6411 24.8353 35.8245 24.9056 35.9956C24.976 36.1666 25.0798 36.3219 25.211 36.4523C25.3422 36.5826 25.4981 36.6855 25.6696 36.7548C25.8411 36.824 26.0247 36.8584 26.2096 36.8557Z" fill="#50E6FF"/>
<path d="M72.4219 41.7939H26.8478C26.2473 41.7939 25.7605 42.2807 25.7605 42.8812V71.2121C25.7605 71.8126 26.2473 72.2993 26.8478 72.2993H72.4219C73.0224 72.2993 73.5092 71.8126 73.5092 71.2121V42.8812C73.5092 42.2807 73.0224 41.7939 72.4219 41.7939Z" fill="#E8E8E8"/>
<path d="M43.478 47.2754L45.303 51.5094L37.304 57.9314L43.478 47.2754Z" fill="url(#paint1_linear)"/>
<path d="M43.3799 68.7023L45.5949 64.3203L55.6799 68.7023H43.3799Z" fill="url(#paint2_linear)"/>
<path d="M37.304 57.9307L43.38 68.7017L45.595 64.3197L37.304 57.9307Z" fill="url(#paint3_linear)"/>
<path d="M37.304 57.9308L45.303 51.5088L45.595 64.3198L37.304 57.9308Z" fill="url(#paint4_linear)"/>
<path d="M45.303 51.5094L55.558 47.2754H43.478L45.303 51.5094Z" fill="url(#paint5_linear)"/>
<path d="M45.303 51.5088L56.406 57.9878L45.595 64.3198L45.303 51.5088Z" fill="url(#paint6_linear)"/>
<path d="M55.558 47.2754L61.976 57.9884H56.406L45.303 51.5094L55.558 47.2754Z" fill="url(#paint7_linear)"/>
<path d="M56.4061 57.9884L55.5581 47.2754L61.9761 57.9884H56.4061Z" fill="url(#paint8_linear)"/>
<path d="M56.4059 57.9883L55.6799 68.7023L61.9759 57.9883H56.4059Z" fill="url(#paint9_linear)"/>
<path d="M56.406 57.9883L55.68 68.7023L45.595 64.3203L56.406 57.9883Z" fill="url(#paint10_linear)"/>
<path d="M62.1825 57.9865C62.1801 57.9705 62.1758 57.9549 62.1697 57.9399C62.1676 57.9212 62.1628 57.903 62.1555 57.8856L62.1537 57.8838L62.1532 57.8822L55.7345 47.1689C55.7246 47.1566 55.7133 47.1455 55.7007 47.1358C55.6929 47.1265 55.6843 47.118 55.6748 47.1104C55.6642 47.1026 55.6528 47.0959 55.6409 47.0904L55.626 47.0818C55.6026 47.0814 55.5794 47.0769 55.5576 47.0684H43.4781C43.4575 47.0703 43.4374 47.0754 43.4184 47.0834C43.3883 47.092 43.361 47.1083 43.3392 47.1307C43.3269 47.1396 43.3156 47.1499 43.3057 47.1613L43.3037 47.1672L43.2995 47.1715L37.1253 57.827L37.1232 57.8349C37.1168 57.8493 37.1121 57.8644 37.1092 57.8799C37.1063 57.8893 37.1042 57.8989 37.1029 57.9086L37.1021 57.9121C37.1015 57.9187 37.0979 57.9246 37.0979 57.9311L37.0977 57.9324C37.0989 57.9395 37.1006 57.9464 37.1026 57.9533C37.1041 57.9623 37.1062 57.9712 37.1089 57.9799C37.1117 57.9962 37.1164 58.012 37.1229 58.0271L37.1242 58.0318L43.2009 68.8027L43.2035 68.8054L43.2048 68.8094C43.2183 68.8276 43.2348 68.8434 43.2535 68.8561C43.2625 68.8635 43.2685 68.8742 43.2785 68.88C43.3095 68.898 43.3447 68.9076 43.3806 68.9077H55.6799C55.7157 68.9077 55.7509 68.8983 55.782 68.8805C55.7881 68.8771 55.7912 68.8701 55.7969 68.8661C55.8064 68.8583 55.8152 68.8497 55.8231 68.8402C55.8361 68.8302 55.8478 68.8186 55.8579 68.8057L62.1544 58.0927L62.1548 58.0912L62.156 58.0899C62.1632 58.0726 62.1679 58.0543 62.1699 58.0357C62.1759 58.0206 62.1801 58.0047 62.1824 57.9886L62.1825 57.9865ZM45.7668 51.5403L55.3743 47.5738L56.1693 57.6108L45.7668 51.5403ZM45.1059 51.9313L45.1509 53.9077L45.3782 63.8927L37.6377 57.9269L38.5699 57.1785L45.1059 51.9313ZM45.5174 51.8731L55.997 57.9885L45.7929 63.9648L45.5174 51.8731ZM56.5967 57.7817L55.8326 48.136L61.6119 57.7817H56.5967ZM43.451 47.7332L45.0508 51.4461L38.0372 57.0767L43.431 47.7678L43.451 47.7332ZM37.9838 58.7151L45.3331 64.3793L43.3706 68.2632L40.4641 63.1115L37.9838 58.7151ZM56.1742 58.3631L55.494 68.3954L46.0496 64.2927L56.1742 58.3631ZM56.5989 58.1947H61.6155L55.9447 67.8427L56.5989 58.1947ZM54.5165 47.4813L45.4119 51.2402L43.7919 47.4813H54.5165ZM43.7162 68.4947L45.6909 64.5869L54.687 68.4947H43.7162Z" fill="#1F56A3"/>
<path d="M45.3029 52.783C46.0066 52.783 46.5771 52.2124 46.5771 51.5087C46.5771 50.8049 46.0066 50.2344 45.3029 50.2344C44.5991 50.2344 44.0286 50.8049 44.0286 51.5087C44.0286 52.2124 44.5991 52.783 45.3029 52.783Z" fill="#C3F1FF"/>
<path d="M45.5946 65.5945C46.2984 65.5945 46.8689 65.024 46.8689 64.3202C46.8689 63.6164 46.2984 63.0459 45.5946 63.0459C44.8908 63.0459 44.3203 63.6164 44.3203 64.3202C44.3203 65.024 44.8908 65.5945 45.5946 65.5945Z" fill="#C3F1FF"/>
<path d="M56.4061 59.3933C57.1099 59.3933 57.6804 58.8228 57.6804 58.119C57.6804 57.4152 57.1099 56.8447 56.4061 56.8447C55.7024 56.8447 55.1318 57.4152 55.1318 58.119C55.1318 58.8228 55.7024 59.3933 56.4061 59.3933Z" fill="#C3F1FF"/>
<path opacity="0.2" d="M32.6917 32.4463V39.618C32.6935 41.1841 33.3164 42.6855 34.4237 43.7929C35.5311 44.9004 37.0325 45.5234 38.5986 45.5254H60.6243C62.1905 45.5237 63.6922 44.9007 64.7997 43.7933C65.9073 42.6858 66.5304 41.1842 66.5323 39.618V32.4463H32.6917Z" fill="#767676"/>
<path d="M60.6246 18.4961H38.5986C36.6056 18.4961 34.99 20.1117 34.99 22.1047V39.6179C34.99 41.6109 36.6056 43.2265 38.5986 43.2265H60.6246C62.6176 43.2265 64.2332 41.6109 64.2332 39.6179V22.1047C64.2332 20.1117 62.6176 18.4961 60.6246 18.4961Z" fill="white"/>
<path d="M51.6843 23.0312H53.0661L47.5388 39.6132H46.157L51.6843 23.0312Z" fill="#0078D4"/>
<path d="M55.2771 36.7116L54.3101 35.6056L58.7321 31.3226L54.3101 27.0386L55.2771 25.9326L60.6661 31.3226L55.2771 36.7116Z" fill="#0078D4"/>
<path d="M43.9459 36.7116L44.9129 35.6056L40.4919 31.3226L44.9129 27.0386L43.9459 25.9326L38.5569 31.3226L43.9459 36.7116Z" fill="#0078D4"/>
</g>
<defs>
<linearGradient id="paint0_linear" x1="47.8697" y1="-15.153" x2="51.8525" y2="130.615" gradientUnits="userSpaceOnUse">
<stop stop-color="#00ABDE"/>
<stop offset="1" stop-color="#007ED8"/>
</linearGradient>
<linearGradient id="paint1_linear" x1="45.0703" y1="48.1952" x2="38.913" y2="58.8601" gradientUnits="userSpaceOnUse">
<stop stop-color="#008BF1"/>
<stop offset="0.22" stop-color="#0086EC"/>
<stop offset="0.49" stop-color="#0078DD"/>
<stop offset="0.79" stop-color="#0061C4"/>
<stop offset="1" stop-color="#004DAE"/>
</linearGradient>
<linearGradient id="paint2_linear" x1="55.3221" y1="64.6986" x2="54.4402" y2="70.4099" gradientUnits="userSpaceOnUse">
<stop stop-color="#008BF1"/>
<stop offset="0.22" stop-color="#0086EC"/>
<stop offset="0.49" stop-color="#0078DD"/>
<stop offset="0.79" stop-color="#0061C4"/>
<stop offset="1" stop-color="#004DAE"/>
</linearGradient>
<linearGradient id="paint3_linear" x1="45.3538" y1="58.8604" x2="39.2091" y2="69.7741" gradientUnits="userSpaceOnUse">
<stop stop-color="#008BF1"/>
<stop offset="0.22" stop-color="#0086EC"/>
<stop offset="0.49" stop-color="#0078DD"/>
<stop offset="0.79" stop-color="#0061C4"/>
<stop offset="1" stop-color="#004DAE"/>
</linearGradient>
<linearGradient id="paint4_linear" x1="45.3538" y1="52.6147" x2="37.45" y2="64.4174" gradientUnits="userSpaceOnUse">
<stop stop-color="#008BF1"/>
<stop offset="0.22" stop-color="#0086EC"/>
<stop offset="0.49" stop-color="#0078DD"/>
<stop offset="0.79" stop-color="#0061C4"/>
<stop offset="1" stop-color="#004DAE"/>
</linearGradient>
<linearGradient id="paint5_linear" x1="55.2066" y1="47.6409" x2="54.3677" y2="53.1635" gradientUnits="userSpaceOnUse">
<stop stop-color="#008BF1"/>
<stop offset="0.22" stop-color="#0086EC"/>
<stop offset="0.49" stop-color="#0078DD"/>
<stop offset="0.79" stop-color="#0061C4"/>
<stop offset="1" stop-color="#004DAE"/>
</linearGradient>
<linearGradient id="paint6_linear" x1="610.106" y1="752.561" x2="535.374" y2="864.744" gradientUnits="userSpaceOnUse">
<stop stop-color="#008BF1"/>
<stop offset="0.22" stop-color="#0086EC"/>
<stop offset="0.49" stop-color="#0078DD"/>
<stop offset="0.79" stop-color="#0061C4"/>
<stop offset="1" stop-color="#004DAE"/>
</linearGradient>
<linearGradient id="paint7_linear" x1="61.4909" y1="48.2002" x2="57.7965" y2="61.4672" gradientUnits="userSpaceOnUse">
<stop stop-color="#008BF1"/>
<stop offset="0.22" stop-color="#0086EC"/>
<stop offset="0.49" stop-color="#0078DD"/>
<stop offset="0.79" stop-color="#0061C4"/>
<stop offset="1" stop-color="#004DAE"/>
</linearGradient>
<linearGradient id="paint8_linear" x1="442.462" y1="582.966" x2="387.737" y2="639.751" gradientUnits="userSpaceOnUse">
<stop stop-color="#008BF1"/>
<stop offset="0.22" stop-color="#0086EC"/>
<stop offset="0.49" stop-color="#0078DD"/>
<stop offset="0.79" stop-color="#0061C4"/>
<stop offset="1" stop-color="#004DAE"/>
</linearGradient>
<linearGradient id="paint9_linear" x1="61.7928" y1="58.9131" x2="54.9632" y2="68.1735" gradientUnits="userSpaceOnUse">
<stop stop-color="#008BF1"/>
<stop offset="0.22" stop-color="#0086EC"/>
<stop offset="0.49" stop-color="#0078DD"/>
<stop offset="0.79" stop-color="#0061C4"/>
<stop offset="1" stop-color="#004DAE"/>
</linearGradient>
<linearGradient id="paint10_linear" x1="56.0915" y1="58.9131" x2="50.9072" y2="70.9837" gradientUnits="userSpaceOnUse">
<stop stop-color="#008BF1"/>
<stop offset="0.22" stop-color="#0086EC"/>
<stop offset="0.49" stop-color="#0078DD"/>
<stop offset="0.79" stop-color="#0061C4"/>
<stop offset="1" stop-color="#004DAE"/>
</linearGradient>
<clipPath id="clip0">
<rect width="99.2799" height="99.28" fill="white"/>
</clipPath>
</defs>
</svg>
