<svg width="160" height="189" viewBox="0 0 160 189" fill="none" xmlns="http://www.w3.org/2000/svg">
<g clip-path="url(#clip0_944_900)">
<path d="M80.0334 188.986C83.1147 188.981 86.1351 188.128 88.7638 186.52L150.739 148.86C153.52 147.097 155.804 144.652 157.375 141.757C158.945 138.863 159.749 135.615 159.711 132.322V57.6075C159.747 54.3151 158.942 51.068 157.372 48.1739C155.802 45.2797 153.519 42.8345 150.739 41.0697L88.7638 3.40962C86.1303 1.82442 83.1147 0.986816 80.041 0.986816C76.9672 0.986816 73.9516 1.82442 71.3182 3.40962L9.34307 41.0848C6.55997 42.8472 4.27342 45.2916 2.70046 48.1859C1.12749 51.0803 0.32029 54.3287 0.355473 57.6226V132.322C0.33694 135.106 0.911657 137.861 2.04135 140.405C3.17104 142.949 4.82977 145.223 6.90707 147.075V147.101L71.3182 186.535C73.9438 188.135 76.9586 188.983 80.0334 188.986V188.986ZM80.6812 7.939C82.6331 7.939 85.1103 9.15192 86.8201 10.1959L147.577 47.3902C151.329 49.6749 153.445 56.271 153.445 61.022L152.813 132.322C152.813 137.073 149.614 141.341 145.861 143.626L85.4659 180.007C82.0313 182.095 79.2409 182.095 75.8062 180.007L14.5982 143.535C10.8458 141.251 7.82738 137.058 7.82738 132.322V58.6748C7.85989 56.3096 8.46888 53.9881 9.60155 51.9115C10.7342 49.835 12.3563 48.0661 14.3273 46.7582L74.9035 10.1959C76.6132 9.15192 78.7294 7.939 80.6812 7.939Z" fill="#F2F1F0"/>
<path fill-rule="evenodd" clip-rule="evenodd" d="M87.9319 11.5196C85.561 10.0461 82.8252 9.2652 80.0337 9.2652C77.2422 9.2652 74.5064 10.0461 72.1355 11.5196L16.0008 45.851C13.4748 47.4627 11.4025 49.6931 9.98047 52.3305C8.55847 54.968 7.83398 57.9251 7.87573 60.9211V129.024C7.83581 132.02 8.56109 134.976 9.98292 137.614C11.4048 140.251 13.4761 142.481 16.0008 144.094L72.1355 178.425C74.5063 179.899 77.2422 180.68 80.0337 180.68C82.8253 180.68 85.5612 179.899 87.9319 178.425L144.066 144.094C146.591 142.482 148.663 140.251 150.085 137.614C151.507 134.977 152.232 132.02 152.192 129.024V60.9211C152.23 57.9256 151.504 54.9698 150.082 52.3329C148.66 49.696 146.59 47.4652 144.066 45.851L87.9319 11.5196Z" fill="url(#paint0_linear_944_900)"/>
<path fill-rule="evenodd" clip-rule="evenodd" d="M80.0338 10.7411C81.717 10.7411 83.5997 11.6068 85.6665 12.8649L144.132 48.4073C146.024 49.6207 147.573 51.2976 148.634 53.2787C149.694 55.2597 150.231 57.4791 150.192 59.7258V130.204C150.231 132.451 149.694 134.67 148.634 136.651C147.573 138.632 146.024 140.309 144.132 141.522L85.6675 177.064L85.6665 177.065C83.9963 178.205 82.0512 178.876 80.0338 179.008C78.0163 178.876 76.0713 178.205 74.4011 177.065L74.4001 177.064L15.9378 141.524L15.9356 141.523C14.1473 140.56 12.6222 139.173 11.4938 137.483C10.5169 135.88 9.87578 133.665 9.87578 130.204V59.7258C9.83704 57.4791 10.3734 55.2598 11.434 53.2788C12.4945 51.2978 14.044 49.6209 15.9352 48.4074L74.392 12.8703L74.3961 12.8679C76.4799 11.6149 78.3401 10.7411 80.0338 10.7411ZM87.7463 9.44814L146.21 44.9894C148.689 46.5595 150.723 48.7382 152.121 51.318C153.518 53.8977 154.231 56.7923 154.192 59.7259V130.204C154.231 133.138 153.518 136.033 152.121 138.612C150.723 141.192 148.688 143.371 146.21 144.941L87.7453 180.482C85.4511 182.007 82.7857 182.881 80.0338 183.008C77.2819 182.881 74.6164 182.007 72.3222 180.482H72.3213L13.8575 144.94L13.855 144.939C11.5197 143.646 9.53644 141.801 8.07828 139.565C6.4837 136.712 5.72068 133.469 5.87578 130.204V59.7258C5.83672 56.7922 6.54983 53.8975 7.94712 51.3178C9.34441 48.738 11.3793 46.5592 13.8577 44.9892L72.3222 9.44749L72.3304 9.44261C74.421 8.1852 77.1289 6.74115 80.0338 6.74115C82.92 6.74115 85.6371 8.16423 87.7463 9.44809V9.44814Z" fill="#0078D4"/>
<path opacity="0.2" d="M139.965 133.013L80.4154 167.62L20.4764 133.014L80.0264 98.4068L139.965 133.013Z" fill="#003067"/>
<path d="M140.956 121.636L80.2334 156.924L19.1224 121.641L79.8444 86.3528L140.956 121.636Z" fill="#1B93EB"/>
<path d="M140.956 121.636L140.944 125.742L80.2224 161.03L80.2334 156.924L140.956 121.636Z" fill="#1F56A3"/>
<path d="M80.2335 156.924L80.2225 161.03L19.1105 125.747L19.1225 121.641L80.2335 156.924Z" fill="#0078D4"/>
<path d="M125.947 124.118L79.9265 150.863L28.7925 121.341" stroke="white" stroke-width="0.75" stroke-linecap="round" stroke-linejoin="round"/>
<path d="M35.5184 117.433L79.5524 91.8418L130.686 121.364" stroke="white" stroke-width="0.75" stroke-linecap="round" stroke-linejoin="round"/>
<path d="M49.5355 127.543L38.7675 121.327L79.5605 97.6198L114.832 117.984" stroke="white" stroke-width="0.75" stroke-linecap="round" stroke-linejoin="round"/>
<path d="M120.712 121.378L79.9195 145.085L53.4265 129.79" stroke="white" stroke-width="0.75" stroke-linecap="round" stroke-linejoin="round"/>
<path d="M78.8191 96.1167C78.8586 96.1504 78.8984 96.1834 78.9387 96.2152C78.8984 96.1834 78.8586 96.1505 78.8191 96.1167Z" fill="#003067"/>
<path d="M53.709 117.089C53.7128 117.099 53.7132 117.108 53.717 117.118C53.8028 117.217 53.8809 117.322 53.9506 117.432C53.8783 117.312 53.7976 117.197 53.709 117.089Z" fill="#0078D4"/>
<path d="M52.1702 117.984C52.22 118.115 52.2791 118.242 52.347 118.365C52.2868 118.25 52.2355 118.131 52.1936 118.008C52.1861 117.999 52.1776 117.993 52.1702 117.984Z" fill="#0078D4"/>
<path d="M55.6716 120.192C55.6357 120.111 55.6041 120.028 55.577 119.944C55.5692 119.935 55.5602 119.928 55.5525 119.918C55.5869 120.012 55.6266 120.103 55.6716 120.192V120.192Z" fill="#0078D4"/>
<path d="M57.0914 119.032C57.0953 119.042 57.0958 119.051 57.0995 119.062C57.1852 119.16 57.2632 119.265 57.333 119.376C57.2624 119.255 57.1816 119.14 57.0914 119.032V119.032Z" fill="#0078D4"/>
<path d="M83.6568 132.059C83.6627 132.189 83.6637 132.227 83.6636 132.264L83.6451 138.804C83.641 140.251 82.6286 140.837 81.3774 140.115L49.7335 121.845C49.6998 121.826 49.6662 121.805 49.6328 121.784C48.806 121.185 48.1673 120.363 47.7917 119.414L64.429 129.02C65.0587 129.383 65.5608 129.088 65.5629 128.364L65.5814 121.825C65.5835 121.101 66.0937 120.81 66.7153 121.169L83.3525 130.775C83.5187 131.185 83.6214 131.618 83.6568 132.059ZM79.1301 134.228C79.7517 134.586 80.2619 134.296 80.2639 133.572C80.2438 133.18 80.1313 132.798 79.9356 132.457C79.7398 132.116 79.4664 131.827 79.1375 131.612L72.3566 127.697C71.7351 127.338 71.2248 127.629 71.2228 128.352C71.2429 128.745 71.3554 129.127 71.5511 129.467C71.7469 129.808 72.0203 130.098 72.3492 130.313L79.1301 134.228" fill="url(#paint1_linear_944_900)"/>
<path d="M79.1301 134.228C79.7517 134.586 80.2619 134.296 80.2639 133.572C80.2439 133.18 80.1313 132.798 79.9356 132.457C79.7399 132.116 79.4664 131.827 79.1375 131.612L72.3566 127.697C71.7351 127.338 71.2248 127.629 71.2228 128.352C71.2429 128.745 71.3554 129.127 71.5511 129.467C71.7469 129.808 72.0203 130.098 72.3492 130.313L79.1301 134.228" fill="#C3F1FF"/>
<path d="M79.8836 134.227L73.1027 130.313C72.7738 130.098 72.5003 129.808 72.3046 129.467C72.1089 129.127 71.9964 128.745 71.9764 128.352C71.9681 128.22 71.9911 128.088 72.0434 127.967C72.0957 127.846 72.1758 127.739 72.2774 127.654C71.6844 127.362 71.2247 127.665 71.2228 128.352C71.2429 128.745 71.3554 129.127 71.5511 129.467C71.7469 129.808 72.0203 130.098 72.3492 130.313L79.1299 134.227C79.2523 134.318 79.399 134.371 79.5513 134.378C79.7036 134.386 79.8547 134.348 79.9852 134.269C79.9547 134.254 79.9148 134.245 79.8836 134.227Z" fill="#1F56A3"/>
<path d="M81.4108 128.344C82.0398 128.755 82.5682 129.303 82.9569 129.946C83.3457 130.589 83.5849 131.311 83.6569 132.06C83.6214 131.618 83.5188 131.185 83.3525 130.775L66.7153 121.169C66.0938 120.81 65.5835 121.101 65.5815 121.825L65.5629 128.364C65.5609 129.088 65.0588 129.383 64.4291 129.02L47.7918 119.414C48.0915 120.201 48.5757 120.904 49.2038 121.465C48.6948 121.02 48.2802 120.477 47.9842 119.869C47.6883 119.261 47.5171 118.6 47.4807 117.924L47.4993 111.385C47.5034 109.938 48.5238 109.356 49.767 110.074L81.4108 128.344ZM57.3278 121.222C57.4434 121.141 57.5355 121.03 57.5944 120.902C57.6534 120.774 57.6772 120.632 57.6634 120.491C57.6425 120.099 57.5295 119.717 57.3334 119.377C57.1373 119.036 56.8637 118.747 56.5349 118.532C56.4201 118.45 56.2858 118.399 56.1453 118.385C56.0048 118.371 55.8631 118.395 55.7346 118.453C55.31 118.695 55.2957 119.461 55.6717 120.192L55.684 120.216C55.6986 120.244 55.7137 120.271 55.7294 120.299C55.9188 120.644 56.1936 120.935 56.5274 121.143C56.6422 121.225 56.7765 121.276 56.917 121.29C57.0576 121.304 57.1992 121.28 57.3278 121.222V121.222ZM53.9453 119.288C54.0596 119.204 54.1501 119.091 54.2079 118.962C54.2657 118.832 54.2887 118.69 54.2749 118.549C54.2571 118.156 54.1457 117.773 53.95 117.431C53.7542 117.09 53.4798 116.8 53.1495 116.587C53.0355 116.504 52.9015 116.453 52.7614 116.44C52.6212 116.426 52.48 116.45 52.3523 116.51C51.9068 116.763 51.9045 117.598 52.347 118.365C52.5348 118.71 52.8087 119 53.1421 119.207C53.2572 119.29 53.3919 119.341 53.5329 119.355C53.6739 119.369 53.8161 119.346 53.9453 119.288" fill="url(#paint2_linear_944_900)"/>
<path d="M52.9092 118.365C52.4667 117.598 52.4691 116.763 52.9145 116.51L52.9248 116.508C52.8349 116.467 52.7371 116.446 52.6383 116.446C52.5395 116.446 52.4419 116.468 52.3522 116.51C51.9068 116.763 51.9044 117.598 52.347 118.365C52.5347 118.71 52.8087 119 53.1421 119.207C53.2561 119.288 53.3893 119.339 53.5286 119.353C53.6679 119.367 53.8086 119.345 53.9368 119.289C53.8565 119.27 53.7786 119.243 53.7043 119.207C53.3709 119 53.097 118.71 52.9092 118.365V118.365Z" fill="#1F56A3"/>
<path d="M56.2916 120.299C56.2758 120.271 56.2608 120.244 56.2462 120.216L56.2338 120.192C55.8578 119.461 55.8722 118.695 56.2968 118.453L56.3059 118.451C56.216 118.411 56.1185 118.391 56.0201 118.391C55.9216 118.391 55.8243 118.413 55.7346 118.453C55.31 118.695 55.2957 119.461 55.6716 120.192L55.6839 120.216C55.6985 120.244 55.7136 120.271 55.7293 120.299C55.9188 120.644 56.1936 120.935 56.5274 121.143C56.641 121.224 56.7737 121.274 56.9123 121.288C57.051 121.302 57.191 121.28 57.3185 121.224C57.2395 121.205 57.1628 121.178 57.0897 121.143C56.7558 120.935 56.481 120.644 56.2916 120.299V120.299Z" fill="#1F56A3"/>
<path d="M57.6633 120.491C57.6424 120.099 57.5294 119.717 57.3333 119.377C57.1372 119.036 56.8636 118.747 56.5347 118.532C56.4616 118.497 56.3849 118.47 56.3059 118.451L56.2968 118.453C55.8722 118.695 55.8578 119.461 56.2338 120.192L56.2461 120.216C56.2607 120.244 56.2757 120.271 56.2915 120.299C56.4809 120.644 56.7557 120.935 57.0896 121.143C57.1627 121.178 57.2394 121.205 57.3184 121.224L57.3277 121.222C57.4433 121.141 57.5353 121.03 57.5943 120.902C57.6533 120.774 57.6771 120.632 57.6633 120.491V120.491Z" fill="#C3F1FF"/>
<path d="M54.2748 118.549C54.2571 118.156 54.1457 117.773 53.9499 117.431C53.7542 117.09 53.4798 116.8 53.1495 116.587C53.0777 116.552 53.0023 116.526 52.9248 116.508L52.9145 116.51C52.4691 116.763 52.4667 117.598 52.9092 118.365C53.097 118.71 53.3709 119 53.7043 119.207C53.7786 119.243 53.8565 119.27 53.9368 119.289L53.9453 119.288C54.0596 119.204 54.1501 119.091 54.2079 118.962C54.2657 118.832 54.2887 118.69 54.2748 118.549V118.549Z" fill="#50E6FF"/>
<path d="M110.39 116.524C110.332 115.834 110.124 115.166 109.78 114.566C109.398 113.847 108.834 113.24 108.144 112.808L76.5 94.5386C76.2709 94.3724 76.0015 94.2704 75.7197 94.2433C75.4379 94.2162 75.1541 94.265 74.8975 94.3845L48.1644 109.92C48.421 109.801 48.7049 109.752 48.9866 109.779C49.2683 109.806 49.5377 109.908 49.7668 110.074L81.4107 128.344C82.101 128.776 82.6652 129.382 83.0466 130.102C83.3908 130.702 83.5991 131.37 83.6568 132.059C83.6627 132.189 83.6636 132.227 83.6636 132.264L83.6451 138.804C83.6738 139.085 83.6275 139.37 83.5109 139.627C83.3942 139.885 83.2113 140.107 82.9808 140.272L109.714 124.736C109.944 124.572 110.127 124.35 110.244 124.092C110.361 123.834 110.407 123.55 110.378 123.268L110.397 116.729C110.397 116.691 110.396 116.653 110.39 116.524Z" fill="url(#paint3_linear_944_900)"/>
<path d="M53.709 105.318C53.7128 105.328 53.7132 105.337 53.717 105.347C53.8028 105.446 53.8809 105.551 53.9506 105.661C53.8783 105.541 53.7976 105.426 53.709 105.318V105.318Z" fill="#0078D4"/>
<path d="M52.1702 106.213C52.22 106.344 52.2791 106.471 52.347 106.594C52.2868 106.479 52.2355 106.36 52.1936 106.237C52.1861 106.228 52.1776 106.222 52.1702 106.213Z" fill="#0078D4"/>
<path d="M55.6716 108.421C55.6357 108.34 55.6041 108.257 55.577 108.173C55.5692 108.164 55.5602 108.157 55.5525 108.147C55.5869 108.241 55.6266 108.332 55.6716 108.421V108.421Z" fill="#0078D4"/>
<path d="M57.0914 107.261C57.0953 107.271 57.0958 107.281 57.0995 107.291C57.1852 107.389 57.2632 107.494 57.333 107.605C57.2624 107.484 57.1816 107.369 57.0914 107.261Z" fill="#0078D4"/>
<path d="M83.6568 120.288C83.6627 120.418 83.6637 120.456 83.6636 120.493L83.6451 127.033C83.641 128.48 82.6286 129.066 81.3774 128.344L49.7335 110.074C49.6998 110.055 49.6662 110.034 49.6328 110.013C48.806 109.414 48.1673 108.592 47.7917 107.643L64.429 117.249C65.0587 117.612 65.5608 117.317 65.5629 116.593L65.5814 110.054C65.5835 109.33 66.0937 109.04 66.7153 109.398L83.3525 119.004C83.5187 119.414 83.6214 119.847 83.6568 120.288ZM79.1301 122.456C79.7517 122.815 80.2619 122.525 80.2639 121.801C80.2438 121.409 80.1313 121.027 79.9356 120.686C79.7398 120.345 79.4663 120.056 79.1375 119.841L72.3566 115.926C71.7351 115.567 71.2248 115.858 71.2228 116.581C71.2429 116.974 71.3554 117.356 71.5511 117.696C71.7469 118.037 72.0203 118.327 72.3492 118.542L79.1301 122.457" fill="url(#paint4_linear_944_900)"/>
<path d="M79.1301 122.457C79.7517 122.815 80.2619 122.525 80.2639 121.801C80.2438 121.409 80.1313 121.027 79.9356 120.686C79.7398 120.345 79.4664 120.056 79.1375 119.841L72.3566 115.926C71.7351 115.567 71.2248 115.858 71.2228 116.581C71.2429 116.974 71.3554 117.356 71.5511 117.696C71.7469 118.037 72.0203 118.327 72.3492 118.542L79.1301 122.457" fill="#C3F1FF"/>
<path d="M79.8836 122.456L73.1027 118.542C72.7738 118.327 72.5003 118.037 72.3046 117.696C72.1089 117.356 71.9964 116.974 71.9764 116.581C71.9681 116.449 71.9911 116.317 72.0434 116.196C72.0957 116.075 72.1758 115.968 72.2774 115.883C71.6844 115.591 71.2247 115.894 71.2228 116.581C71.2429 116.974 71.3554 117.356 71.5511 117.696C71.7469 118.037 72.0203 118.327 72.3492 118.542L79.1299 122.456C79.2523 122.547 79.399 122.6 79.5513 122.607C79.7036 122.615 79.8547 122.577 79.9852 122.498C79.9547 122.483 79.9148 122.474 79.8836 122.456Z" fill="#1F56A3"/>
<path d="M81.4108 116.573C82.0398 116.984 82.5682 117.532 82.9569 118.175C83.3457 118.818 83.5849 119.54 83.6569 120.289C83.6214 119.847 83.5188 119.414 83.3525 119.004L66.7153 109.398C66.0938 109.039 65.5835 109.33 65.5815 110.054L65.5629 116.593C65.5609 117.317 65.0588 117.612 64.4291 117.249L47.7918 107.643C48.0915 108.43 48.5757 109.133 49.2038 109.694C48.6948 109.249 48.2802 108.706 47.9842 108.098C47.6883 107.49 47.5171 106.829 47.4807 106.153L47.4993 99.614C47.5034 98.167 48.5238 97.5855 49.767 98.3032L81.4108 116.573ZM57.3278 109.451C57.4434 109.37 57.5355 109.259 57.5944 109.131C57.6534 109.003 57.6772 108.861 57.6634 108.72C57.6425 108.328 57.5295 107.946 57.3334 107.606C57.1373 107.265 56.8637 106.976 56.5349 106.761C56.4201 106.679 56.2858 106.628 56.1453 106.614C56.0048 106.6 55.8631 106.624 55.7346 106.682C55.31 106.924 55.2957 107.69 55.6717 108.421L55.684 108.445C55.6986 108.473 55.7137 108.5 55.7294 108.528C55.9188 108.873 56.1936 109.164 56.5274 109.372C56.6422 109.454 56.7765 109.505 56.917 109.519C57.0576 109.533 57.1992 109.509 57.3278 109.451V109.451ZM53.9453 107.517C54.0596 107.433 54.1501 107.32 54.2079 107.191C54.2657 107.061 54.2887 106.919 54.2749 106.778C54.2571 106.385 54.1457 106.002 53.95 105.66C53.7542 105.319 53.4798 105.029 53.1495 104.816C53.0355 104.733 52.9015 104.682 52.7614 104.669C52.6212 104.655 52.48 104.679 52.3523 104.739C51.9068 104.992 51.9045 105.827 52.347 106.594C52.5348 106.939 52.8087 107.229 53.1421 107.436C53.2572 107.519 53.3919 107.57 53.5329 107.584C53.6739 107.598 53.8161 107.575 53.9453 107.517" fill="url(#paint5_linear_944_900)"/>
<path d="M52.9092 106.594C52.4667 105.827 52.4691 104.992 52.9145 104.739L52.9248 104.737C52.8349 104.696 52.7371 104.675 52.6383 104.675C52.5395 104.675 52.4419 104.697 52.3522 104.739C51.9068 104.992 51.9044 105.827 52.347 106.594C52.5347 106.939 52.8087 107.229 53.1421 107.436C53.2561 107.517 53.3893 107.568 53.5286 107.582C53.6679 107.596 53.8086 107.574 53.9368 107.518C53.8565 107.499 53.7786 107.472 53.7043 107.436C53.3709 107.229 53.097 106.939 52.9092 106.594Z" fill="#1F56A3"/>
<path d="M56.2916 108.528C56.2758 108.5 56.2608 108.473 56.2462 108.445L56.2338 108.421C55.8578 107.69 55.8722 106.924 56.2968 106.682L56.3059 106.68C56.216 106.64 56.1185 106.62 56.0201 106.62C55.9216 106.62 55.8243 106.642 55.7346 106.682C55.31 106.924 55.2957 107.69 55.6716 108.421L55.6839 108.445C55.6985 108.473 55.7136 108.5 55.7293 108.528C55.9188 108.873 56.1936 109.164 56.5274 109.372C56.641 109.453 56.7737 109.503 56.9123 109.517C57.051 109.531 57.191 109.509 57.3185 109.453C57.2395 109.434 57.1628 109.407 57.0897 109.372C56.7558 109.164 56.481 108.873 56.2916 108.528V108.528Z" fill="#1F56A3"/>
<path d="M57.6633 108.72C57.6424 108.328 57.5294 107.946 57.3333 107.606C57.1372 107.265 56.8636 106.976 56.5347 106.761C56.4616 106.726 56.3849 106.699 56.3059 106.68L56.2968 106.682C55.8722 106.924 55.8578 107.69 56.2338 108.421L56.2461 108.445C56.2607 108.473 56.2757 108.5 56.2915 108.528C56.4809 108.873 56.7557 109.164 57.0896 109.372C57.1627 109.407 57.2394 109.434 57.3184 109.453L57.3277 109.451C57.4433 109.37 57.5353 109.259 57.5943 109.131C57.6533 109.003 57.6771 108.861 57.6633 108.72V108.72Z" fill="#C3F1FF"/>
<path d="M54.2748 106.778C54.2571 106.385 54.1457 106.002 53.9499 105.66C53.7542 105.319 53.4798 105.029 53.1495 104.816C53.0776 104.781 53.0023 104.755 52.9248 104.737L52.9145 104.739C52.4691 104.992 52.4667 105.827 52.9092 106.594C53.097 106.939 53.3709 107.229 53.7043 107.436C53.7786 107.472 53.8565 107.499 53.9368 107.518L53.9453 107.517C54.0596 107.433 54.1501 107.32 54.2079 107.191C54.2657 107.061 54.2887 106.919 54.2748 106.778V106.778Z" fill="#50E6FF"/>
<path d="M110.39 104.753C110.332 104.063 110.124 103.395 109.78 102.795C109.398 102.076 108.834 101.469 108.144 101.037V101.037L76.5 82.7676C76.2709 82.6014 76.0015 82.4995 75.7197 82.4724C75.4379 82.4453 75.1541 82.494 74.8975 82.6135L48.1644 98.1491C48.421 98.0296 48.7049 97.9809 48.9866 98.008C49.2683 98.0351 49.5377 98.137 49.7668 98.3032L81.4107 116.573C82.101 117.005 82.6652 117.611 83.0466 118.331C83.3908 118.931 83.5991 119.599 83.6568 120.288C83.6627 120.418 83.6636 120.456 83.6636 120.493L83.6451 127.033C83.6738 127.314 83.6275 127.599 83.5109 127.856C83.3942 128.114 83.2113 128.337 82.9808 128.501L109.714 112.965C109.944 112.801 110.127 112.579 110.244 112.321C110.361 112.063 110.407 111.779 110.378 111.497L110.397 104.958C110.397 104.92 110.396 104.882 110.39 104.753Z" fill="url(#paint6_linear_944_900)"/>
<path d="M53.709 93.5466C53.7128 93.5568 53.7132 93.5663 53.717 93.5765C53.8028 93.675 53.8809 93.78 53.9506 93.8905C53.8783 93.7702 53.7976 93.6553 53.709 93.5466V93.5466Z" fill="#0078D4"/>
<path d="M52.1702 94.442C52.22 94.573 52.2791 94.7003 52.347 94.8228C52.2868 94.7081 52.2355 94.589 52.1936 94.4665C52.1861 94.4575 52.1776 94.4511 52.1702 94.442Z" fill="#0078D4"/>
<path d="M55.6716 96.6498C55.6357 96.569 55.6041 96.4863 55.577 96.4022C55.5692 96.3927 55.5602 96.386 55.5525 96.3763C55.5869 96.4697 55.6266 96.561 55.6716 96.6498V96.6498Z" fill="#0078D4"/>
<path d="M57.0914 95.4901C57.0953 95.5002 57.0958 95.5096 57.0995 95.5197C57.1852 95.6184 57.2632 95.7234 57.333 95.834C57.2624 95.7127 57.1816 95.5977 57.0914 95.4901V95.4901Z" fill="#0078D4"/>
<path d="M83.6568 108.518C83.6627 108.647 83.6637 108.685 83.6636 108.723L83.6451 115.262C83.641 116.709 82.6286 117.295 81.3774 116.573L49.7335 98.3032C49.6998 98.2838 49.6662 98.2631 49.6328 98.2421C48.806 97.6435 48.1673 96.8213 47.7917 95.8721L64.429 105.478C65.0587 105.841 65.5608 105.546 65.5629 104.822L65.5814 98.2828C65.5835 97.5593 66.0937 97.2685 66.7153 97.6274L83.3525 107.233C83.5187 107.643 83.6213 108.076 83.6568 108.518V108.518ZM79.1301 110.686C79.7517 111.044 80.2619 110.754 80.2639 110.03C80.2438 109.638 80.1313 109.256 79.9356 108.915C79.7398 108.574 79.4664 108.285 79.1375 108.07L72.3566 104.155C71.7351 103.796 71.2248 104.087 71.2228 104.81C71.2429 105.203 71.3554 105.585 71.5511 105.925C71.7469 106.266 72.0203 106.556 72.3492 106.771L79.1301 110.686" fill="url(#paint7_linear_944_900)"/>
<path d="M79.1301 110.686C79.7517 111.044 80.2619 110.754 80.2639 110.03C80.2438 109.638 80.1313 109.256 79.9356 108.915C79.7398 108.574 79.4664 108.285 79.1375 108.07L72.3566 104.155C71.7351 103.796 71.2248 104.087 71.2228 104.81C71.2429 105.203 71.3554 105.585 71.5511 105.925C71.7469 106.266 72.0203 106.556 72.3492 106.771L79.1301 110.686" fill="#C3F1FF"/>
<path d="M79.8836 110.686L73.1027 106.771C72.7738 106.556 72.5003 106.266 72.3046 105.925C72.1089 105.585 71.9964 105.203 71.9764 104.81C71.9681 104.678 71.9911 104.547 72.0434 104.425C72.0957 104.304 72.1758 104.197 72.2774 104.112C71.6844 103.82 71.2247 104.123 71.2228 104.81C71.2429 105.203 71.3554 105.585 71.5511 105.925C71.7469 106.266 72.0203 106.556 72.3492 106.771L79.1299 110.686C79.2523 110.777 79.399 110.829 79.5513 110.836C79.7036 110.844 79.8547 110.806 79.9852 110.727C79.9547 110.712 79.9148 110.704 79.8836 110.686Z" fill="#1F56A3"/>
<path d="M81.4108 104.802C82.0398 105.213 82.5682 105.761 82.957 106.404C83.3457 107.047 83.585 107.769 83.6569 108.518C83.6214 108.076 83.5188 107.643 83.3525 107.233L66.7153 97.6274C66.0938 97.2685 65.5835 97.5593 65.5815 98.2828L65.5629 104.822C65.5609 105.546 65.0588 105.841 64.4291 105.478L47.7918 95.8721C48.0915 96.659 48.5757 97.3624 49.2038 97.9232C48.6948 97.4779 48.2802 96.9352 47.9842 96.3271C47.6883 95.719 47.5171 95.0578 47.4807 94.3825L47.4993 87.843C47.5034 86.396 48.5238 85.8145 49.767 86.5323L81.4108 104.802ZM57.3278 97.6799C57.4435 97.5987 57.5355 97.4883 57.5944 97.3599C57.6534 97.2315 57.6772 97.0898 57.6634 96.9492C57.6425 96.5569 57.5295 96.175 57.3334 95.8346C57.1373 95.4942 56.8637 95.2048 56.5349 94.9899C56.4202 94.9076 56.2858 94.857 56.1453 94.8432C56.0048 94.8293 55.8632 94.8528 55.7346 94.9111C55.3101 95.1531 55.2957 95.9188 55.6717 96.6498L55.684 96.6738C55.6986 96.7016 55.7137 96.7294 55.7294 96.757C55.9188 97.102 56.1936 97.3926 56.5275 97.601C56.6422 97.6833 56.7765 97.7339 56.9171 97.7478C57.0576 97.7616 57.1993 97.7382 57.3278 97.6798V97.6799ZM53.9453 95.7455C54.0596 95.6615 54.1501 95.5493 54.2079 95.4197C54.2657 95.2902 54.2888 95.1479 54.2749 95.0067C54.2571 94.6137 54.1457 94.2306 53.95 93.8893C53.7542 93.5481 53.4798 93.2585 53.1495 93.0447C53.0356 92.962 52.9015 92.9113 52.7614 92.8977C52.6212 92.8841 52.48 92.9083 52.3523 92.9676C51.9068 93.2215 51.9045 94.0563 52.347 94.8228C52.5348 95.1676 52.8087 95.4578 53.1421 95.6651C53.2572 95.7478 53.392 95.7987 53.5329 95.8128C53.6739 95.827 53.8161 95.8038 53.9453 95.7456" fill="url(#paint8_linear_944_900)"/>
<path d="M52.9092 94.8228C52.4667 94.0563 52.4691 93.2215 52.9145 92.9676L52.9248 92.9656C52.8349 92.9246 52.7371 92.9036 52.6383 92.904C52.5395 92.9043 52.4419 92.926 52.3522 92.9676C51.9068 93.2215 51.9044 94.0563 52.347 94.8228C52.5347 95.1676 52.8087 95.4578 53.1421 95.6651C53.2561 95.7463 53.3893 95.7966 53.5286 95.8109C53.6679 95.8253 53.8086 95.8033 53.9368 95.7471C53.8565 95.7284 53.7786 95.7009 53.7043 95.6651C53.3709 95.4578 53.097 95.1676 52.9092 94.8228V94.8228Z" fill="#1F56A3"/>
<path d="M56.2916 96.757C56.2758 96.7294 56.2608 96.7016 56.2462 96.6739L56.2338 96.6498C55.8578 95.9189 55.8722 95.1532 56.2968 94.9111L56.3059 94.9094C56.216 94.8694 56.1185 94.8489 56.0201 94.8492C55.9216 94.8495 55.8243 94.8706 55.7346 94.9111C55.31 95.1532 55.2957 95.9189 55.6716 96.6498L55.6839 96.6739C55.6985 96.7016 55.7136 96.7294 55.7293 96.757C55.9188 97.102 56.1936 97.3926 56.5274 97.6011C56.641 97.6818 56.7737 97.7316 56.9123 97.7458C57.051 97.7599 57.191 97.7378 57.3185 97.6816C57.2395 97.6632 57.1628 97.6362 57.0897 97.6011C56.7558 97.3926 56.481 97.102 56.2916 96.757V96.757Z" fill="#1F56A3"/>
<path d="M57.6633 96.9492C57.6424 96.5569 57.5294 96.1751 57.3333 95.8346C57.1372 95.4942 56.8636 95.2048 56.5347 94.9899C56.4616 94.9548 56.3849 94.9278 56.3059 94.9094L56.2968 94.9111C55.8722 95.1532 55.8578 95.9189 56.2338 96.6498L56.2461 96.6739C56.2607 96.7016 56.2757 96.7294 56.2915 96.757C56.4809 97.102 56.7557 97.3926 57.0896 97.6011C57.1627 97.6362 57.2394 97.6632 57.3184 97.6816L57.3277 97.6799C57.4433 97.5987 57.5353 97.4883 57.5943 97.3599C57.6533 97.2316 57.6771 97.0898 57.6633 96.9492Z" fill="#C3F1FF"/>
<path d="M54.2748 95.0067C54.2571 94.6137 54.1457 94.2306 53.9499 93.8893C53.7542 93.548 53.4798 93.2585 53.1495 93.0447C53.0776 93.0104 53.0023 92.9838 52.9248 92.9656L52.9145 92.9676C52.4691 93.2215 52.4667 94.0563 52.9092 94.8228C53.097 95.1676 53.3709 95.4578 53.7043 95.6651C53.7786 95.701 53.8565 95.7285 53.9368 95.7471L53.9453 95.7456C54.0596 95.6616 54.1501 95.5493 54.2079 95.4198C54.2657 95.2902 54.2887 95.1479 54.2748 95.0067V95.0067Z" fill="#50E6FF"/>
<path d="M110.39 92.9819C110.332 92.2925 110.124 91.6241 109.78 91.024C109.398 90.3046 108.834 89.6983 108.144 89.2662V89.2662L76.5 70.9966C76.2709 70.8304 76.0015 70.7285 75.7197 70.7014C75.4379 70.6743 75.1541 70.723 74.8975 70.8425L48.1644 86.3781C48.421 86.2586 48.7049 86.2099 48.9866 86.237C49.2683 86.2641 49.5377 86.366 49.7668 86.5322L81.4107 104.802C82.101 105.234 82.6652 105.84 83.0466 106.56C83.3908 107.16 83.5991 107.828 83.6568 108.518C83.6627 108.647 83.6636 108.685 83.6636 108.723L83.6451 115.262C83.6738 115.544 83.6275 115.828 83.5109 116.085C83.3942 116.343 83.2113 116.566 82.9808 116.73L109.714 101.194C109.944 101.03 110.127 100.808 110.244 100.55C110.361 100.292 110.407 100.008 110.378 99.7264L110.397 93.1869C110.397 93.1491 110.396 93.111 110.39 92.9819Z" fill="url(#paint9_linear_944_900)"/>
<path d="M86.2767 88.5105L79.4429 71.0663C79.2819 70.6156 78.9735 70.2325 78.5678 69.9788C78.3934 69.8782 77.9549 69.6832 77.6894 70.0538L70.5793 79.8378C70.4885 80.0196 70.4404 80.2197 70.4389 80.4229C70.4373 80.626 70.4823 80.8269 70.5703 81.01C70.7371 81.4616 71.0463 81.8467 71.4511 82.1072H71.4512L85.5925 90.2718C86.1264 90.5801 86.3863 90.316 86.4765 90.1935C86.5757 90.04 86.6247 89.8593 86.6165 89.6767L86.9823 89.0946L86.2767 88.5105ZM78.0425 74.5661C78.0433 74.2432 78.2746 74.1114 78.5555 74.2736C78.703 74.3701 78.8256 74.5001 78.9132 74.653C79.0008 74.8059 79.051 74.9774 79.0597 75.1534L79.0439 80.7464C79.0429 81.0694 78.8175 81.1979 78.5363 81.0356C78.3883 80.9401 78.2649 80.8109 78.1763 80.6585C78.0877 80.5062 78.0364 80.335 78.0265 80.1591L78.0425 74.5661ZM78.528 83.9936C78.3324 83.866 78.1695 83.694 78.0527 83.4917C77.9359 83.2894 77.8684 83.0625 77.8557 82.8292C77.857 82.403 78.1614 82.2294 78.5324 82.4436C78.728 82.5713 78.8908 82.7432 79.0076 82.9455C79.1244 83.1478 79.1919 83.3748 79.2047 83.608C79.2035 84.0343 78.899 84.2078 78.528 83.9936H78.528Z" fill="#FFCA00"/>
<path d="M78.5324 82.4436C78.728 82.5713 78.8908 82.7432 79.0076 82.9455C79.1244 83.1478 79.1919 83.3748 79.2047 83.6081C79.2035 84.0343 78.8989 84.2078 78.528 83.9937C78.3323 83.866 78.1695 83.6941 78.0527 83.4918C77.9359 83.2895 77.8684 83.0625 77.8557 82.8292C77.8569 82.403 78.1614 82.2294 78.5324 82.4436Z" fill="#FF9300"/>
<path d="M87.3528 88.9334C88.1465 90.9507 87.1629 92.3494 85.5892 91.4408L71.4478 83.2763C69.874 82.3676 68.9016 79.8396 69.7041 78.7439L76.8142 68.9534C77.2098 68.412 77.8909 68.4204 78.571 68.813C79.375 69.3245 79.9897 70.0849 80.3214 70.9783L87.3528 88.9334ZM86.4766 90.1935C86.5761 90.013 86.628 89.8101 86.6276 89.6039C86.6273 89.3978 86.5745 89.1951 86.4743 89.0149L79.4429 71.0662C79.2818 70.6156 78.9735 70.2325 78.5677 69.9788C78.3935 69.8782 77.9549 69.6832 77.6893 70.0538L70.5793 79.8379C70.4885 80.0196 70.4404 80.2197 70.4389 80.4229C70.4373 80.6261 70.4823 80.8269 70.5703 81.0101C70.7371 81.4617 71.0463 81.8468 71.4511 82.1073L85.5925 90.2718C86.1264 90.5801 86.3862 90.3161 86.4765 90.1936" fill="#FF9300"/>
<path d="M78.5556 74.2736C78.7031 74.3701 78.8257 74.5001 78.9133 74.653C79.0009 74.8059 79.0511 74.9774 79.0598 75.1534L79.044 80.7464C79.043 81.0694 78.8175 81.1979 78.5364 81.0356C78.3883 80.9401 78.2649 80.8109 78.1763 80.6585C78.0877 80.5062 78.0364 80.335 78.0266 80.1591L78.0425 74.566C78.0434 74.2432 78.2746 74.1114 78.5556 74.2736Z" fill="#FF9300"/>
<path d="M89.3454 88.232C89.3086 88.1081 89.2648 87.9813 89.214 87.8516L82.1827 69.8965C81.851 69.0032 81.2364 68.2428 80.4324 67.7313C80.2263 67.5818 79.9844 67.4894 79.7311 67.4635C79.4779 67.4375 79.2222 67.4789 78.9901 67.5835L77.1288 68.6651C77.3609 68.5606 77.6165 68.5192 77.8698 68.5452C78.123 68.5712 78.3649 68.6636 78.571 68.813C79.375 69.3245 79.9897 70.0849 80.3214 70.9783L87.3528 88.9334C87.4037 89.0629 87.4474 89.1896 87.4839 89.3137C87.6073 89.6297 87.6606 89.9687 87.6401 90.3073C87.6196 90.646 87.5258 90.9761 87.3653 91.2749L87.3575 91.286L87.3527 91.2928C87.2682 91.4128 87.1591 91.5133 87.0327 91.5877L88.894 90.506C89.0205 90.4316 89.1296 90.3311 89.214 90.2111L89.2189 90.2044L89.219 90.2043L89.2267 90.1932C89.3872 89.8943 89.481 89.5642 89.5015 89.2256C89.522 88.887 89.4687 88.548 89.3454 88.232Z" fill="#D15900"/>
<path d="M80.3725 73.9678L80.2995 99.6938L57.9105 86.7678L57.9835 61.0418L80.3725 73.9678Z" fill="url(#paint10_linear_944_900)"/>
<path d="M80.3724 73.9678L102.616 61.0408L102.544 86.7668L80.2994 99.6938L80.3724 73.9678Z" fill="url(#paint11_linear_944_900)"/>
<path d="M57.9835 61.0418L80.2285 48.1148L102.617 61.0408L80.3725 73.9678L57.9835 61.0418Z" fill="url(#paint12_linear_944_900)"/>
<path d="M130.687 121.364V107.518" stroke="white" stroke-width="0.75" stroke-linejoin="round"/>
<path d="M120.711 121.378V94.9866" stroke="white" stroke-width="0.75" stroke-linejoin="round"/>
<path d="M49.5353 127.543V115.069" stroke="white" stroke-width="0.75" stroke-linejoin="round"/>
<path d="M28.7922 121.341V86.5296" stroke="white" stroke-width="0.75" stroke-linejoin="round"/>
<path d="M28.7922 86.5296C31.0395 86.5296 32.8614 84.7077 32.8614 82.4604C32.8614 80.2131 31.0395 78.3912 28.7922 78.3912C26.5449 78.3912 24.723 80.2131 24.723 82.4604C24.723 84.7077 26.5449 86.5296 28.7922 86.5296Z" fill="#0078D4" stroke="white" stroke-width="0.75" stroke-linejoin="round"/>
<path d="M120.711 94.9866C122.958 94.9866 124.78 93.1647 124.78 90.9174C124.78 88.6701 122.958 86.8482 120.711 86.8482C118.464 86.8482 116.642 88.6701 116.642 90.9174C116.642 93.1647 118.464 94.9866 120.711 94.9866Z" fill="#0078D4" stroke="white" stroke-width="0.75" stroke-linejoin="round"/>
<path d="M130.687 107.518C132.934 107.518 134.756 105.696 134.756 103.449C134.756 101.202 132.934 99.3797 130.687 99.3797C128.439 99.3797 126.618 101.202 126.618 103.449C126.618 105.696 128.439 107.518 130.687 107.518Z" fill="#0078D4" stroke="white" stroke-width="0.75" stroke-linejoin="round"/>
<path d="M49.5352 115.069C51.7826 115.069 53.6044 113.248 53.6044 111C53.6044 108.753 51.7826 106.931 49.5352 106.931C47.2879 106.931 45.4661 108.753 45.4661 111C45.4661 113.248 47.2879 115.069 49.5352 115.069Z" fill="#0078D4" stroke="white" stroke-width="0.75" stroke-linejoin="round"/>
</g>
<defs>
<linearGradient id="paint0_linear_944_900" x1="80.0339" y1="9.2652" x2="80.0339" y2="180.68" gradientUnits="userSpaceOnUse">
<stop stop-color="#00ABDE"/>
<stop offset="1" stop-color="#007ED8"/>
</linearGradient>
<linearGradient id="paint1_linear_944_900" x1="76.4697" y1="144.031" x2="58.6407" y2="113.15" gradientUnits="userSpaceOnUse">
<stop stop-color="#004DAE"/>
<stop offset="0.21" stop-color="#0061C4"/>
<stop offset="0.51" stop-color="#0078DD"/>
<stop offset="0.78" stop-color="#0086EC"/>
<stop offset="1" stop-color="#008BF1"/>
</linearGradient>
<linearGradient id="paint2_linear_944_900" x1="65.5688" y1="132.059" x2="65.5688" y2="109.767" gradientUnits="userSpaceOnUse">
<stop stop-color="#004DAE"/>
<stop offset="0.21" stop-color="#0061C4"/>
<stop offset="0.51" stop-color="#0078DD"/>
<stop offset="0.78" stop-color="#0086EC"/>
<stop offset="1" stop-color="#008BF1"/>
</linearGradient>
<linearGradient id="paint3_linear_944_900" x1="92.1114" y1="135" x2="70.2208" y2="97.0846" gradientUnits="userSpaceOnUse">
<stop stop-color="#003067"/>
<stop offset="0.2" stop-color="#003F7C"/>
<stop offset="0.47" stop-color="#004F90"/>
<stop offset="0.74" stop-color="#00589D"/>
<stop offset="1" stop-color="#005BA1"/>
</linearGradient>
<linearGradient id="paint4_linear_944_900" x1="76.4697" y1="132.26" x2="58.6407" y2="101.379" gradientUnits="userSpaceOnUse">
<stop stop-color="#004DAE"/>
<stop offset="0.21" stop-color="#0061C4"/>
<stop offset="0.51" stop-color="#0078DD"/>
<stop offset="0.78" stop-color="#0086EC"/>
<stop offset="1" stop-color="#008BF1"/>
</linearGradient>
<linearGradient id="paint5_linear_944_900" x1="65.5688" y1="120.288" x2="65.5688" y2="97.996" gradientUnits="userSpaceOnUse">
<stop stop-color="#004DAE"/>
<stop offset="0.21" stop-color="#0061C4"/>
<stop offset="0.51" stop-color="#0078DD"/>
<stop offset="0.78" stop-color="#0086EC"/>
<stop offset="1" stop-color="#008BF1"/>
</linearGradient>
<linearGradient id="paint6_linear_944_900" x1="92.1114" y1="123.229" x2="70.2208" y2="85.3136" gradientUnits="userSpaceOnUse">
<stop stop-color="#003067"/>
<stop offset="0.2" stop-color="#003F7C"/>
<stop offset="0.47" stop-color="#004F90"/>
<stop offset="0.74" stop-color="#00589D"/>
<stop offset="1" stop-color="#005BA1"/>
</linearGradient>
<linearGradient id="paint7_linear_944_900" x1="76.4697" y1="120.489" x2="58.6407" y2="89.6084" gradientUnits="userSpaceOnUse">
<stop stop-color="#004DAE"/>
<stop offset="0.21" stop-color="#0061C4"/>
<stop offset="0.51" stop-color="#0078DD"/>
<stop offset="0.78" stop-color="#0086EC"/>
<stop offset="1" stop-color="#008BF1"/>
</linearGradient>
<linearGradient id="paint8_linear_944_900" x1="65.5688" y1="108.518" x2="65.5688" y2="86.225" gradientUnits="userSpaceOnUse">
<stop stop-color="#004DAE"/>
<stop offset="0.21" stop-color="#0061C4"/>
<stop offset="0.51" stop-color="#0078DD"/>
<stop offset="0.78" stop-color="#0086EC"/>
<stop offset="1" stop-color="#008BF1"/>
</linearGradient>
<linearGradient id="paint9_linear_944_900" x1="92.1114" y1="111.458" x2="70.2208" y2="73.5426" gradientUnits="userSpaceOnUse">
<stop stop-color="#003067"/>
<stop offset="0.2" stop-color="#003F7C"/>
<stop offset="0.47" stop-color="#004F90"/>
<stop offset="0.74" stop-color="#00589D"/>
<stop offset="1" stop-color="#005BA1"/>
</linearGradient>
<linearGradient id="paint10_linear_944_900" x1="80.2992" y1="99.6937" x2="57.9838" y2="61.0423" gradientUnits="userSpaceOnUse">
<stop stop-color="white" stop-opacity="0.7"/>
<stop offset="1" stop-color="white" stop-opacity="0.1"/>
</linearGradient>
<linearGradient id="paint11_linear_944_900" x1="97.0369" y1="90.0302" x2="85.8791" y2="70.7043" gradientUnits="userSpaceOnUse">
<stop stop-color="white" stop-opacity="0.7"/>
<stop offset="1" stop-color="white" stop-opacity="0.1"/>
</linearGradient>
<linearGradient id="paint12_linear_944_900" x1="85.9157" y1="70.7674" x2="74.6852" y2="51.3155" gradientUnits="userSpaceOnUse">
<stop stop-color="white" stop-opacity="0.7"/>
<stop offset="1" stop-color="white" stop-opacity="0.1"/>
</linearGradient>
<clipPath id="clip0_944_900">
<rect width="159.356" height="188" fill="white" transform="translate(0.355469 0.986816)"/>
</clipPath>
</defs>
</svg>
