<svg width="160" height="188" viewBox="0 0 160 188" fill="none" xmlns="http://www.w3.org/2000/svg">
<g clip-path="url(#clip0)">
<path d="M79.6779 188C82.7592 187.994 85.7796 187.141 88.4083 185.534L150.384 147.874C153.165 146.11 155.449 143.665 157.019 140.771C158.589 137.876 159.394 134.628 159.356 131.336V56.6207C159.392 53.3283 158.587 50.0812 157.017 47.1871C155.447 44.2929 153.163 41.8476 150.384 40.0829L88.4083 2.4228C85.7749 0.837605 82.7592 0 79.6855 0C76.6118 0 73.5961 0.837605 70.9627 2.4228L8.9876 40.098C6.2045 41.8604 3.91796 44.3048 2.34499 47.1991C0.772021 50.0935 -0.0351786 53.3418 4.1431e-06 56.6358V131.336C-0.0185283 134.119 0.556189 136.874 1.68588 139.418C2.81557 141.962 4.4743 144.236 6.5516 146.089V146.115L70.9627 185.549C73.5884 187.149 76.6032 187.996 79.6779 188V188ZM80.3257 6.95218C82.2776 6.95218 84.7548 8.1651 86.4646 9.20912L147.222 46.4034C150.974 48.6881 153.09 55.2842 153.09 60.0352L152.458 131.336C152.458 136.087 149.259 140.355 145.506 142.64L85.1104 179.021C81.6758 181.109 78.8854 181.109 75.4507 179.021L14.2427 142.549C10.4903 140.265 7.47191 136.072 7.47191 131.336V57.688C7.50442 55.3228 8.11341 53.0013 9.24608 50.9247C10.3787 48.8482 12.0009 47.0792 13.9718 45.7714L74.548 9.20912C76.2577 8.1651 78.3739 6.95218 80.3257 6.95218Z" fill="#F2F1F0"/>
<path fill-rule="evenodd" clip-rule="evenodd" d="M87.5765 10.5328C85.2056 9.05928 82.4697 8.27838 79.6783 8.27838C76.8868 8.27838 74.1509 9.05928 71.7801 10.5328L15.6454 44.8642C13.1193 46.4759 11.047 48.7062 9.625 51.3437C8.203 53.9812 7.47851 56.9382 7.52026 59.9343V128.038C7.48034 131.033 8.20562 133.99 9.62745 136.627C11.0493 139.264 13.1206 141.495 15.6454 143.108L71.7801 177.439C74.1508 178.912 76.8867 179.694 79.6783 179.694C82.4698 179.694 85.2057 178.912 87.5765 177.439L143.711 143.108C146.236 141.495 148.307 139.264 149.729 136.627C151.151 133.99 151.877 131.033 151.837 128.038V59.9343C151.875 56.9388 151.149 53.983 149.727 51.3461C148.305 48.7092 146.234 46.4784 143.711 44.8642L87.5765 10.5328Z" fill="url(#paint0_linear)"/>
<path fill-rule="evenodd" clip-rule="evenodd" d="M79.6783 9.75432C81.3615 9.75432 83.2442 10.62 85.311 11.8781L143.777 47.4205C145.668 48.6339 147.218 50.3108 148.278 52.2919C149.339 54.2729 149.875 56.4922 149.837 58.739V129.218C149.875 131.464 149.339 133.684 148.278 135.664C147.218 137.645 145.668 139.322 143.777 140.536L85.312 176.078L85.311 176.079C83.6408 177.218 81.6958 177.889 79.6783 178.022C77.6609 177.889 75.7158 177.218 74.0456 176.079L74.0446 176.078L15.5823 140.538L15.5801 140.537C13.7918 139.573 12.2668 138.186 11.1383 136.497C10.1614 134.894 9.52031 132.679 9.52031 129.218V58.739C9.48157 56.4923 10.018 54.273 11.0785 52.292C12.139 50.311 13.6885 48.6341 15.5797 47.4206L74.0365 11.8835L74.0406 11.8811C76.1244 10.6281 77.9846 9.75432 79.6783 9.75432ZM87.3908 8.46132L145.855 44.0026C148.333 45.5727 150.368 47.7514 151.765 50.3311C153.162 52.9109 153.876 55.8055 153.837 58.7391V129.218C153.876 132.151 153.162 135.046 151.765 137.626C150.368 140.205 148.333 142.384 145.855 143.955L87.3898 179.496C85.0956 181.021 82.4302 181.894 79.6783 182.022C76.9264 181.894 74.261 181.021 71.9667 179.496H71.9658L13.502 143.954L13.4995 143.953C11.1642 142.66 9.18097 140.814 7.72281 138.579C6.12823 135.725 5.36521 132.482 5.52031 129.218V58.739C5.48125 55.8054 6.19436 52.9107 7.59165 50.331C8.98894 47.7512 11.0238 45.5724 13.5022 44.0024L71.9667 8.46067L71.9749 8.45579C74.0655 7.19838 76.7734 5.75433 79.6783 5.75433C82.5645 5.75433 85.2816 7.17741 87.3908 8.46127V8.46132Z" fill="#0078D4"/>
<path opacity="0.2" d="M139.959 132.026L80.4091 166.633L20.4701 132.027L80.0201 97.42L139.959 132.026Z" fill="#003067"/>
<path d="M140.532 120.546L79.81 155.834L18.698 120.551L79.42 85.263L140.532 120.546Z" fill="#1B93EB"/>
<path d="M140.532 120.546L140.52 124.652L79.798 159.94L79.81 155.834L140.532 120.546Z" fill="#1F56A3"/>
<path d="M79.81 155.834L79.798 159.94L18.686 124.657L18.698 120.551L79.81 155.834Z" fill="#0078D4"/>
<path d="M94.209 37.1523C94.7309 37.4775 95.1625 37.9289 95.464 38.4648C100.855 47.4707 109.218 54.7171 118.801 60.7033C119.82 61.3952 120.665 62.3122 121.272 63.3833C121.879 64.4544 122.231 65.6508 122.302 66.88L122.255 83.4943C122.195 104.521 114.164 113.542 94.8394 113.794C94.5398 113.786 94.2477 113.698 93.9935 113.539C93.6734 113.348 93.3879 113.104 93.1489 112.818C73.8891 90.2891 65.9352 72.0399 65.9948 51.0126L66.0419 34.3983C66.0483 32.1541 67.6043 31.2391 69.5575 32.2724C79.1517 37.3582 87.5285 39.7767 92.9447 37.0103C93.1503 36.9255 93.3741 36.894 93.5951 36.9188C93.8162 36.9437 94.0274 37.024 94.209 37.1523Z" fill="url(#paint1_linear)"/>
<path d="M124.236 57.5448C114.653 51.5586 106.29 44.3122 100.899 35.3063C100.597 34.7704 100.166 34.319 99.6441 33.9938C99.4624 33.8655 99.2512 33.7851 99.0301 33.7603C98.8091 33.7355 98.5853 33.7669 98.3797 33.8517C92.9636 36.6182 84.5867 34.1997 74.9926 29.1138C74.6312 28.8748 74.2143 28.7328 73.7821 28.7017C73.3499 28.6705 72.917 28.7511 72.525 28.9358L67.09 32.0943C67.482 31.9096 67.9149 31.829 68.3471 31.8602C68.7793 31.8914 69.1961 32.0333 69.5576 32.2724C79.1517 37.3582 87.5286 39.7768 92.9446 37.0103C93.1503 36.9255 93.374 36.894 93.5951 36.9189C93.8161 36.9437 94.0273 37.024 94.209 37.1523C94.7309 37.4775 95.1624 37.9289 95.4639 38.4648C100.855 47.4708 109.218 54.7171 118.801 60.7033C119.82 61.3952 120.665 62.3122 121.272 63.3833C121.879 64.4544 122.231 65.6508 122.302 66.8799L122.255 83.4943C122.216 97.1046 118.838 105.685 111.219 110.112L116.654 106.954C124.273 102.526 127.651 93.9462 127.69 80.3358L127.737 63.7215C127.666 62.4923 127.314 61.2959 126.707 60.2248C126.1 59.1537 125.255 58.2367 124.236 57.5448V57.5448Z" fill="#1F56A3"/>
<path d="M92.3632 71.9989C98.5655 75.5798 103.719 83.9892 104.369 91.2783C104.452 91.7132 104.451 92.16 104.366 92.5945C104.22 94.4721 103.07 95.6726 100.83 95.859C98.4933 96.0853 95.3899 95.0813 92.282 93.2869C89.006 91.3844 86.1004 88.9062 83.7048 85.9715C81.4739 83.2365 80.3057 80.6649 80.1437 78.6099C80.1241 78.1362 80.163 77.6619 80.2598 77.1978C81.0614 70.7794 86.1612 68.4182 92.3632 71.9989Z" fill="white"/>
<path d="M92.4161 53.3473C94.5326 54.7181 96.2946 56.5704 97.5579 58.7529C98.8211 60.9353 99.5497 63.3858 99.6842 65.9039C99.6712 70.4945 96.392 72.3313 92.3689 70.0085C88.3181 67.6698 85.0598 62.0265 85.0727 57.4679C85.0858 52.8451 88.3654 51.0086 92.4161 53.3473Z" fill="white"/>
<path opacity="0.2" d="M103.248 128.768C104.193 129.314 104.204 130.195 103.265 130.74C102.737 131.009 102.153 131.149 101.56 131.149C100.967 131.149 100.383 131.009 99.8544 130.74L82.4818 120.71C82.2761 120.64 82.0975 120.508 81.9709 120.331C81.8443 120.155 81.7759 119.943 81.7754 119.726C81.7749 119.509 81.8422 119.297 81.968 119.119C82.0938 118.942 82.2718 118.809 82.477 118.738C83.0033 118.47 83.5856 118.33 84.1762 118.33C84.7668 118.33 85.349 118.47 85.8753 118.738L103.248 128.768Z" fill="#003067"/>
<path d="M87.4598 121.134L87.4565 122.286C87.4686 122.41 87.4476 122.535 87.3956 122.648C87.3436 122.761 87.2625 122.859 87.1605 122.931L89.9797 121.292C90.0816 121.22 90.1627 121.123 90.2147 121.01C90.2667 120.896 90.2877 120.771 90.2757 120.647L90.2789 119.496C90.2524 119.234 90.2958 118.969 90.4048 118.73C90.5137 118.49 90.6842 118.284 90.8989 118.132L88.0797 119.77C87.865 119.922 87.6945 120.129 87.5856 120.368C87.4767 120.608 87.4333 120.872 87.4598 121.134V121.134Z" fill="#858585"/>
<path d="M92.3521 117.335C92.1374 117.487 91.9669 117.694 91.858 117.933C91.7491 118.173 91.7057 118.437 91.7321 118.699L91.7291 119.756C91.7436 119.905 91.7179 120.056 91.6545 120.193C91.5912 120.329 91.4925 120.447 91.3688 120.532L94.188 118.894C94.3118 118.808 94.4104 118.691 94.4737 118.555C94.5371 118.418 94.5629 118.267 94.5483 118.117L94.5513 117.061C94.5249 116.799 94.5683 116.535 94.6772 116.295C94.7861 116.055 94.9566 115.849 95.1713 115.697L92.3521 117.335Z" fill="#858585"/>
<path d="M107.367 108.132C106.336 107.461 105.478 106.557 104.863 105.492C104.248 104.427 103.893 103.231 103.829 102.003C103.785 101.567 103.858 101.127 104.039 100.729C104.221 100.33 104.505 99.9867 104.863 99.7337L102.044 101.372C101.686 101.625 101.402 101.968 101.22 102.367C101.038 102.766 100.966 103.205 101.009 103.641C101.074 104.869 101.429 106.065 102.044 107.13C102.659 108.195 103.517 109.1 104.548 109.77C104.908 110.031 105.331 110.192 105.774 110.235C106.217 110.278 106.663 110.202 107.066 110.015L109.886 108.376C109.482 108.564 109.036 108.64 108.593 108.597C108.15 108.554 107.727 108.393 107.367 108.132V108.132Z" fill="#858585"/>
<path d="M94.9554 108.313C95.0162 108.348 95.0736 108.39 95.1267 108.436C95.2615 108.555 95.3751 108.696 95.4629 108.853C95.5889 109.063 95.6579 109.303 95.6631 109.548C95.6706 109.636 95.6545 109.723 95.6165 109.802C95.5784 109.881 95.5198 109.949 95.4468 109.997L79.8827 118.471C79.7387 118.148 79.6614 117.798 79.6554 117.444L79.6586 116.321L94.4605 108.26C94.513 108.231 94.5715 108.217 94.631 108.216C94.7458 108.219 94.8579 108.252 94.9554 108.313V108.313Z" fill="#858585"/>
<path d="M103.856 92.2235C100.701 90.4019 97.8428 90.2328 95.7788 91.4323L92.9596 93.0706C95.0237 91.8711 97.8821 92.0402 101.037 93.8618C107.307 97.4817 112.373 106.256 112.352 113.46C112.342 117.039 111.078 119.557 109.041 120.741L111.86 119.103C113.898 117.919 115.161 115.401 115.171 111.822C115.192 104.617 110.126 95.8433 103.856 92.2235Z" fill="#E8E8E8"/>
<path d="M101.037 93.8618C107.307 97.4816 112.372 106.256 112.352 113.46C112.332 120.665 107.233 123.57 100.963 119.95C100.127 119.461 99.3304 118.906 98.5825 118.289C98.4014 118.138 98.2079 118.002 98.0041 117.883C97.7728 117.711 97.5007 117.602 97.2145 117.566C96.9283 117.531 96.6378 117.571 96.3716 117.681L95.9104 117.944C95.6677 118.054 95.4006 118.097 95.1357 118.071C94.8709 118.044 94.6177 117.949 94.4015 117.793L93.8652 117.484C92.6904 116.805 91.736 117.349 91.7322 118.699L91.7292 119.756C91.7437 119.905 91.718 120.056 91.6546 120.193C91.5913 120.329 91.4926 120.447 91.3689 120.532C91.2314 120.595 91.0798 120.621 90.9294 120.606C90.7789 120.591 90.635 120.537 90.5122 120.449L89.5928 119.918C88.418 119.24 87.4636 119.784 87.4598 121.134L87.4566 122.286C87.4686 122.41 87.4476 122.535 87.3956 122.648C87.3436 122.761 87.2625 122.859 87.1606 122.93C86.9991 123.003 86.8212 123.032 86.645 123.015C86.4687 122.997 86.3003 122.933 86.1568 122.829L81.0682 119.891C80.5367 119.551 80.1228 119.055 79.8828 118.471L95.4469 109.997C95.5199 109.949 95.5785 109.881 95.6165 109.802C95.6546 109.723 95.6707 109.636 95.6632 109.548C95.6579 109.303 95.5889 109.063 95.4629 108.853C95.3752 108.696 95.2615 108.555 95.1267 108.436C95.0737 108.39 95.0163 108.348 94.9555 108.313C94.858 108.252 94.7459 108.219 94.6311 108.216C94.5715 108.217 94.513 108.231 94.4606 108.26L79.6586 116.321L79.672 111.597C79.6542 111.421 79.6836 111.244 79.7571 111.084C79.8306 110.923 79.9456 110.785 80.0902 110.684L90.2365 104.895C89.8539 103.411 89.6563 101.885 89.6482 100.352C89.6687 93.1476 94.7674 90.242 101.037 93.8618ZM104.548 109.77C106.501 110.898 108.096 109.989 108.103 107.737C108.037 106.511 107.683 105.318 107.069 104.255C106.456 103.192 105.6 102.289 104.571 101.619C102.611 100.487 101.016 101.396 101.009 103.641C101.074 104.869 101.429 106.065 102.043 107.13C102.658 108.195 103.517 109.1 104.548 109.77Z" fill="white"/>
<path opacity="0.2" d="M72.132 127.322C75.0845 129.026 76.1584 131.404 75.3235 133.605C75.8826 133.801 76.4225 134.048 76.9361 134.343C80.5045 136.403 80.5132 139.748 76.9679 141.808C76.5445 142.054 76.103 142.267 75.6472 142.446C75.5814 142.472 75.4902 142.502 75.4194 142.531C74.7217 142.784 74.0051 142.982 73.2764 143.122C73.1902 143.137 73.0989 143.148 73.0077 143.166C69.9574 143.703 66.8153 143.228 64.0597 141.814L45.5858 131.101C43.7315 129.796 43.8373 127.854 45.9463 126.628C47.209 125.985 48.6058 125.65 50.0229 125.649C51.44 125.649 52.8371 125.983 54.1003 126.625C54.524 126.86 54.9049 127.165 55.2267 127.527C55.3277 127.457 55.444 127.389 55.5553 127.325C60.1222 124.671 67.5404 124.671 72.132 127.322Z" fill="#003067"/>
<path opacity="0.3" d="M75.5968 123.106C75.5939 123.605 75.5006 124.099 75.3214 124.564L75.3177 125.864C75.4969 125.398 75.5902 124.905 75.5932 124.406L75.5968 123.106Z" fill="#32BEDD"/>
<path opacity="0.3" d="M76.9659 132.767C76.5424 133.013 76.1009 133.226 75.6451 133.405C75.5793 133.431 75.4932 133.458 75.4224 133.493C74.7227 133.744 74.0045 133.941 73.2743 134.081C73.1932 134.098 73.0968 134.107 73.0158 134.125C69.9621 134.663 66.8162 134.188 64.0574 132.773L45.5882 122.063C45.2118 121.84 44.8954 121.53 44.6665 121.157C44.4376 120.785 44.3031 120.362 44.2746 119.926L44.271 121.226C44.2994 121.662 44.4339 122.085 44.6628 122.457C44.8917 122.829 45.2081 123.14 45.5845 123.363L64.0537 134.073C66.8125 135.488 69.9584 135.963 73.0121 135.425C73.0931 135.407 73.1895 135.398 73.2706 135.381C74.0008 135.241 74.719 135.044 75.4187 134.793C75.4895 134.758 75.5756 134.731 75.6415 134.705C76.0972 134.526 76.5387 134.313 76.9622 134.067C78.7279 133.041 79.6121 131.698 79.6159 130.355L79.6196 129.055C79.6158 130.399 78.7316 131.741 76.9659 132.767Z" fill="#32BEDD"/>
<path opacity="0.3" d="M72.135 118.277C75.0927 119.985 76.1564 122.362 75.3214 124.564C75.8805 124.76 76.4203 125.007 76.9341 125.302C80.5026 127.362 80.5163 130.704 76.9659 132.767C76.5424 133.013 76.1009 133.226 75.6452 133.405C75.5793 133.431 75.4933 133.458 75.4224 133.493C74.7227 133.744 74.0045 133.941 73.2743 134.081C73.1932 134.098 73.0968 134.107 73.0158 134.125C69.9621 134.663 66.8162 134.188 64.0574 132.773L45.5882 122.063C43.7338 120.752 43.8345 118.812 45.9435 117.587C47.2063 116.943 48.6032 116.608 50.0202 116.607C51.4373 116.607 52.8344 116.941 54.0976 117.584C54.5214 117.818 54.9023 118.124 55.2241 118.486C55.3252 118.415 55.4415 118.348 55.5528 118.283C60.1248 115.626 67.5432 115.626 72.135 118.277Z" fill="url(#paint2_linear)"/>
<path opacity="0.6" d="M75.5968 118.933C75.5939 119.432 75.5006 119.926 75.3214 120.391L75.3177 121.691C75.4969 121.226 75.5902 120.732 75.5932 120.233L75.5968 118.933Z" fill="#32BEDD"/>
<path opacity="0.6" d="M76.9659 128.594C76.5424 128.84 76.1009 129.053 75.6451 129.232C75.5793 129.259 75.4932 129.285 75.4224 129.32C74.7227 129.572 74.0045 129.768 73.2743 129.908C73.1932 129.926 73.0968 129.935 73.0158 129.952C69.9621 130.491 66.8162 130.016 64.0574 128.6L45.5882 117.89C45.2118 117.668 44.8954 117.357 44.6665 116.985C44.4376 116.612 44.3031 116.189 44.2746 115.753L44.271 117.053C44.2994 117.489 44.4339 117.912 44.6628 118.284C44.8917 118.657 45.2081 118.968 45.5845 119.19L64.0537 129.9C66.8125 131.316 69.9584 131.791 73.0121 131.252C73.0931 131.235 73.1895 131.226 73.2706 131.208C74.0008 131.068 74.719 130.872 75.4187 130.62C75.4895 130.585 75.5756 130.559 75.6415 130.532C76.0972 130.353 76.5387 130.14 76.9622 129.894C78.7279 128.868 79.6121 127.526 79.6159 126.182L79.6196 124.882C79.6158 126.226 78.7316 127.568 76.9659 128.594Z" fill="#32BEDD"/>
<path opacity="0.6" d="M72.135 114.105C75.0927 115.812 76.1564 118.19 75.3214 120.391C75.8805 120.587 76.4203 120.834 76.9341 121.129C80.5026 123.189 80.5163 126.531 76.9659 128.594C76.5424 128.84 76.1009 129.053 75.6452 129.232C75.5793 129.259 75.4933 129.285 75.4224 129.32C74.7227 129.572 74.0045 129.768 73.2743 129.908C73.1932 129.926 73.0968 129.935 73.0158 129.952C69.9621 130.491 66.8162 130.016 64.0574 128.6L45.5882 117.89C43.7338 116.579 43.8345 114.64 45.9435 113.414C47.2063 112.771 48.6032 112.435 50.0202 112.435C51.4373 112.434 52.8344 112.769 54.0976 113.411C54.5214 113.646 54.9023 113.951 55.2241 114.313C55.3252 114.243 55.4415 114.175 55.5528 114.111C60.1248 111.454 67.5432 111.454 72.135 114.105Z" fill="url(#paint3_linear)"/>
<path d="M75.5968 114.761C75.5939 115.26 75.5006 115.754 75.3214 116.219L75.3177 117.519C75.4969 117.053 75.5902 116.56 75.5932 116.061L75.5968 114.761Z" fill="#32BEDD"/>
<path d="M76.9659 124.422C76.5424 124.668 76.1009 124.881 75.6451 125.06C75.5793 125.086 75.4932 125.113 75.4224 125.148C74.7227 125.399 74.0045 125.596 73.2743 125.736C73.1932 125.753 73.0968 125.762 73.0158 125.78C69.9621 126.318 66.8162 125.843 64.0574 124.428L45.5882 113.718C45.2118 113.495 44.8954 113.184 44.6665 112.812C44.4376 112.44 44.3031 112.017 44.2746 111.581L44.271 112.881C44.2994 113.317 44.4339 113.74 44.6628 114.112C44.8917 114.484 45.2081 114.795 45.5845 115.018L64.0537 125.728C66.8125 127.143 69.9584 127.618 73.0121 127.08C73.0931 127.062 73.1895 127.053 73.2706 127.036C74.0008 126.896 74.719 126.699 75.4187 126.448C75.4895 126.413 75.5756 126.386 75.6415 126.36C76.0972 126.181 76.5387 125.968 76.9622 125.722C78.7279 124.696 79.6121 123.353 79.6159 122.01L79.6196 120.71C79.6158 122.053 78.7316 123.396 76.9659 124.422Z" fill="#32BEDD"/>
<path d="M72.135 109.932C75.0927 111.64 76.1564 114.017 75.3214 116.219C75.8805 116.415 76.4203 116.662 76.9341 116.957C80.5026 119.017 80.5163 122.359 76.9659 124.422C76.5424 124.668 76.1009 124.881 75.6452 125.06C75.5793 125.086 75.4933 125.113 75.4224 125.148C74.7227 125.399 74.0045 125.596 73.2743 125.736C73.1932 125.753 73.0968 125.762 73.0158 125.78C69.9621 126.318 66.8162 125.843 64.0574 124.428L45.5882 113.718C43.7338 112.407 43.8345 110.467 45.9435 109.242C47.2063 108.598 48.6032 108.263 50.0202 108.262C51.4373 108.262 52.8344 108.596 54.0976 109.239C54.5214 109.473 54.9023 109.779 55.2241 110.141C55.3252 110.07 55.4415 110.003 55.5528 109.938C60.1248 107.281 67.5432 107.281 72.135 109.932Z" fill="url(#paint4_linear)"/>
<path d="M64.833 111.375C65.0409 111.51 65.2139 111.692 65.3379 111.907C65.4618 112.121 65.5332 112.362 65.5461 112.61L65.5252 120C65.5239 120.453 65.2029 120.636 64.8073 120.407L57.3051 116.076C57.0974 115.941 56.9245 115.759 56.8005 115.545C56.6766 115.33 56.6051 115.09 56.5919 114.842L56.6129 107.452C56.6142 106.998 56.9352 106.815 57.3307 107.043L64.833 111.375Z" fill="white"/>
<path d="M68.3828 109.312L60.8806 104.98C60.8078 104.927 60.7223 104.895 60.6328 104.886C60.5432 104.877 60.453 104.892 60.3713 104.93L56.8215 106.993C56.9032 106.955 56.9934 106.94 57.083 106.949C57.1725 106.958 57.2581 106.99 57.3308 107.043L64.833 111.375C65.041 111.51 65.214 111.692 65.3379 111.907C65.4619 112.121 65.5332 112.362 65.5462 112.61L65.5252 120C65.5341 120.088 65.5195 120.176 65.4829 120.257C65.4463 120.337 65.3891 120.406 65.3171 120.457L68.8668 118.394C68.9389 118.343 68.9961 118.274 69.0327 118.194C69.0693 118.114 69.0839 118.025 69.075 117.937L69.096 110.547C69.083 110.299 69.0117 110.058 68.8877 109.844C68.7638 109.629 68.5907 109.447 68.3828 109.312V109.312Z" fill="#E8E8E8"/>
<path d="M60.6271 102.963C60.4002 103.123 60.22 103.341 60.1047 103.594C59.9894 103.847 59.9433 104.126 59.971 104.402L59.9624 107.419L61.1707 106.717L61.1793 103.7C61.1516 103.423 61.1977 103.145 61.313 102.892C61.4283 102.639 61.6085 102.421 61.8354 102.261L60.6271 102.963Z" fill="#B3B3B3"/>
<path d="M63.4352 101.544C63.1296 101.322 62.7701 101.185 62.394 101.149C62.0179 101.112 61.6389 101.177 61.2961 101.336L60.0878 102.038C60.4305 101.879 60.8096 101.814 61.1857 101.851C61.5618 101.887 61.9212 102.024 62.2269 102.246C63.0994 102.814 63.8254 103.58 64.3459 104.481C64.8664 105.383 65.1667 106.394 65.2222 107.434L65.2137 110.451L66.422 109.749L66.4305 106.732C66.375 105.692 66.0747 104.681 65.5542 103.779C65.0337 102.877 64.3077 102.112 63.4352 101.544Z" fill="#E8E8E8"/>
<path d="M62.2269 102.246C63.0994 102.814 63.8254 103.58 64.3459 104.481C64.8664 105.383 65.1667 106.394 65.2222 107.434L65.2137 110.451L64.4531 110.012L64.4617 106.995C64.4204 106.218 64.1962 105.462 63.8074 104.788C63.4186 104.115 62.8763 103.542 62.2245 103.118C60.9864 102.403 59.975 102.98 59.971 104.402L59.9624 107.419L59.2019 106.98L59.2105 103.963C59.2159 102.058 60.5692 101.289 62.2269 102.246Z" fill="white"/>
<path d="M60.8845 112.352C61.1632 112.533 61.3954 112.776 61.5621 113.063C61.7289 113.35 61.8255 113.672 61.8441 114.004C61.8426 114.517 61.5349 114.766 61.1196 114.651L61.117 115.568C61.1166 115.722 61.0076 115.777 60.88 115.703C60.8107 115.659 60.753 115.599 60.712 115.528C60.671 115.457 60.6478 115.377 60.6445 115.295L60.6471 114.378C60.4089 114.174 60.2217 113.917 60.1004 113.627C59.9791 113.338 59.927 113.024 59.9484 112.711C59.9522 112.626 59.9766 112.544 60.0194 112.471C60.0622 112.398 60.1222 112.336 60.1941 112.292C60.2661 112.247 60.3478 112.221 60.4322 112.215C60.5167 112.209 60.6013 112.224 60.6787 112.258C60.7502 112.283 60.8191 112.314 60.8845 112.352V112.352Z" fill="#B3B3B3"/>
</g>
<defs>
<linearGradient id="paint0_linear" x1="79.6785" y1="8.27838" x2="79.6785" y2="179.694" gradientUnits="userSpaceOnUse">
<stop stop-color="#00ABDE"/>
<stop offset="1" stop-color="#007ED8"/>
</linearGradient>
<linearGradient id="paint1_linear" x1="94.1481" y1="31.849" x2="94.1481" y2="113.794" gradientUnits="userSpaceOnUse">
<stop stop-color="#008BF1"/>
<stop offset="1" stop-color="#004DAE"/>
</linearGradient>
<linearGradient id="paint2_linear" x1="69.3545" y1="137.161" x2="55.0255" y2="112.343" gradientUnits="userSpaceOnUse">
<stop stop-color="#50E6FF"/>
<stop offset="1" stop-color="#C3F1FF"/>
</linearGradient>
<linearGradient id="paint3_linear" x1="2495.61" y1="2512.73" x2="2333.56" y2="1963.17" gradientUnits="userSpaceOnUse">
<stop stop-color="#50E6FF"/>
<stop offset="1" stop-color="#C3F1FF"/>
</linearGradient>
<linearGradient id="paint4_linear" x1="2495.61" y1="2433.24" x2="2333.56" y2="1883.68" gradientUnits="userSpaceOnUse">
<stop stop-color="#50E6FF"/>
<stop offset="1" stop-color="#C3F1FF"/>
</linearGradient>
<clipPath id="clip0">
<rect width="159.356" height="188" fill="white"/>
</clipPath>
</defs>
</svg>
