<?xml version="1.0" encoding="UTF-8"?>
<svg width="107px" height="107px" viewBox="0 0 107 107" version="1.1" xmlns="http://www.w3.org/2000/svg" xmlns:xlink="http://www.w3.org/1999/xlink">
    <!-- Generator: Sketch 60.1 (88133) - https://sketch.com -->
    <title>NA/microsoft-identity-permissions-and-consent-framework</title>
    <desc>Created with Sketch.</desc>
    <defs>
        <rect id="path-1" x="0" y="0" width="96" height="96" rx="48"></rect>
        <rect id="path-3" x="0" y="0" width="100" height="100" rx="50"></rect>
        <filter x="-8.0%" y="-9.5%" width="116.0%" height="119.0%" filterUnits="objectBoundingBox" id="filter-5">
            <feOffset dx="0" dy="2" in="SourceAlpha" result="shadowOffsetOuter1"></feOffset>
            <feColorMatrix values="0 0 0 0 0   0 0 0 0 0   0 0 0 0 0  0 0 0 0.101862981 0" type="matrix" in="shadowOffsetOuter1" result="shadowMatrixOuter1"></feColorMatrix>
            <feMerge>
                <feMergeNode in="shadowMatrixOuter1"></feMergeNode>
                <feMergeNode in="SourceGraphic"></feMergeNode>
            </feMerge>
        </filter>
        <linearGradient x1="78.4210223%" y1="-7.24023438%" x2="15.5786468%" y2="110.793945%" id="linearGradient-6">
            <stop stop-color="#FFFFFF" offset="0%"></stop>
            <stop stop-color="#000000" stop-opacity="0.5" offset="100%"></stop>
        </linearGradient>
        <rect id="path-7" x="-3" y="-3" width="106" height="106" rx="53"></rect>
        <filter x="-0.5%" y="-0.5%" width="101.9%" height="101.9%" filterUnits="objectBoundingBox" id="filter-8">
            <feOffset dx="1" dy="1" in="SourceAlpha" result="shadowOffsetOuter1"></feOffset>
            <feMorphology radius="4" operator="erode" in="SourceAlpha" result="shadowInner"></feMorphology>
            <feOffset dx="1" dy="1" in="shadowInner" result="shadowInner"></feOffset>
            <feComposite in="shadowOffsetOuter1" in2="shadowInner" operator="out" result="shadowOffsetOuter1"></feComposite>
            <feColorMatrix values="0 0 0 0 0   0 0 0 0 0   0 0 0 0 0  0 0 0 0.15 0" type="matrix" in="shadowOffsetOuter1"></feColorMatrix>
        </filter>
    </defs>
    <g id="Badges" stroke="none" stroke-width="1" fill="none" fill-rule="evenodd">
        <g id="NA/71" transform="translate(-47.000000, -257.000000)">
            <g id="NA/microsoft-identity-permissions-and-consent-framework" transform="translate(50.000000, 260.000000)">
                <g id="Mask" transform="translate(2.000000, 2.000000)">
                    <mask id="mask-2" fill="white">
                        <use xlink:href="#path-1"></use>
                    </mask>
                    <use id="BG" fill="#55A2FF" xlink:href="#path-1"></use>
                    <g id="Circle-" mask="url(#mask-2)">
                        <g transform="translate(-2.000000, -2.000000)">
                            <mask id="mask-4" fill="white">
                                <use xlink:href="#path-3"></use>
                            </mask>
                            <g id="BG" stroke="none" fill="none"></g>
                            <g id="Color/Blue" stroke="none" fill="none" mask="url(#mask-4)" fill-rule="evenodd">
                                <rect id="Rectangle" fill="#55A2FF" x="0" y="0" width="100" height="100"></rect>
                            </g>
                        </g>
                    </g>
                    <g id="Group" mask="url(#mask-2)" fill-rule="nonzero">
                        <g transform="translate(48.000000, 48.000000) rotate(-180.000000) translate(-48.000000, -48.000000) translate(28.000000, 7.000000)">
                            <path d="M20.504,0.202 L28.035,9.492 L22.591,14.541 L28.035,20.248 L22.635,25.366 L28.035,31.261 L23.26,36.505 L28.035,41.895 L28.035,43.6 C35.0784207,46.7960466 39.5958289,53.822387 39.5800415,61.557 C39.5800415,72.417 30.85,81.221 20.08,81.221 C9.31,81.221 0.579954794,72.417 0.579954794,61.557 C0.563340695,53.7604748 5.15243728,46.689736 12.28,43.53 L12.32,9.476 L20.503,0.202 L20.504,0.202 Z M27.988,66.15 L12.156,66.15 C11.5382919,66.15 10.9552123,66.4352957 10.5762876,66.923127 C10.197363,67.4109584 10.0651172,68.0465101 10.218,68.645 C11.541,73.821 14.817,76.412 20.046,76.4200142 C25.273,76.427 28.566,73.84 29.923,68.657 C30.0801456,68.0573452 29.9503451,67.4187172 29.5715795,66.9279859 C29.192814,66.4372545 28.6079037,66.15 27.988,66.15 Z" id="Combined-Shape" fill="#FACB1B"></path>
                            <path d="M20.502,0.22 L20.579,0.309 L20.579,66.149 L12.365,66.15 C11.7450963,66.149898 11.160186,66.4372545 10.7814205,66.9279859 C10.4026549,67.4187172 10.2728544,68.0573452 10.43,68.657 C11.784,73.825 15.13,76.412 20.468,76.42 L20.578,76.419 L20.579,81.22 L20.502,81.22 C9.5,81.22 0.58,72.418 0.58,61.558 C0.58,53.578 5.396,46.708 12.316,43.626 L12.316,9.492 L20.502,0.22 Z" id="Combined-Shape" fill="#FBE158"></path>
                            <polygon id="Path-215" fill="#FACB1B" points="17.58 8.22 15.58 10.798 15.58 40.45 17.58 40.45"></polygon>
                        </g>
                    </g>
                    <g id="Group-2" filter="url(#filter-5)" mask="url(#mask-2)">
                        <g transform="translate(22.902439, 24.500000)">
                            <g id="Group">
                                <path d="M0,40.1208312 C0,40.969541 0.694399001,41.66394 1.54310889,41.66394 L47.8363756,41.66394 C48.6850855,41.66394 49.3794845,40.969541 49.3794845,40.1208312 L49.3794845,11.5733167 L0,11.5733167 L0,40.1208312" id="Fill-1164" fill="#E1E4E1" fill-rule="nonzero"></path>
                                <path d="M49.3794845,8.4870989 C49.3794845,7.63838901 48.6850855,6.94399001 47.8363756,6.94399001 L1.54310889,6.94399001 C0.694399001,6.94399001 0,7.63838901 0,8.4870989 L0,11.5733167 L49.3794845,11.5733167 L49.3794845,8.4870989" id="Fill-1165" fill="#55B7D9" fill-rule="nonzero"></path>
                                <polygon id="Fill-1166" fill="#FFFFFE" fill-rule="nonzero" points="4.62932667 37.0346134 27.0044056 37.0346134 27.0044056 15.4310889 4.62932667 15.4310889"></polygon>
                                <path d="M29.3190689,10.0302078 L20.0604156,10.0302078 C19.2078479,10.0302078 19.2888611,9.68532295 19.2888611,9.25865334 C19.2888611,8.83198373 19.2078479,8.4870989 20.0604156,8.4870989 L29.3190689,8.4870989 C30.170865,8.4870989 30.0906234,8.83198373 30.0906234,9.25865334 C30.0906234,9.68532295 30.170865,10.0302078 29.3190689,10.0302078" id="Fill-1167" fill="#2D87AC" fill-rule="nonzero"></path>
                                <path d="M30.8621778,34.71995 C30.1994125,34.71995 30.0906234,34.3742936 30.0906234,33.9483956 C30.0906234,33.5224975 30.1994125,33.1768411 30.8621778,33.1768411 L33.9483956,33.1768411 C34.6111609,33.1768411 34.71995,33.5224975 34.71995,33.9483956 C34.71995,34.3742936 34.6111609,34.71995 33.9483956,34.71995 L30.8621778,34.71995 Z" id="Fill-1168" fill="#C5CCCD" fill-rule="nonzero"></path>
                                <path d="M40.1208312,17.7457522 L30.8621778,17.7457522 C30.1994125,17.7457522 30.0906234,17.4000958 30.0906234,16.9741978 C30.0906234,16.5482997 30.1994125,16.2026434 30.8621778,16.2026434 L40.1208312,16.2026434 C40.7835964,16.2026434 40.8923856,16.5482997 40.8923856,16.9741978 C40.8923856,17.4000958 40.7835964,17.7457522 40.1208312,17.7457522" id="Fill-1169" fill="#546670" fill-rule="nonzero"></path>
                                <path d="M30.8621778,30.0906234 C30.1994125,30.0906234 30.0906234,29.744967 30.0906234,29.3190689 C30.0906234,28.8931709 30.1994125,28.5475145 30.8621778,28.5475145 L43.9786034,28.5475145 C44.6413686,28.5475145 44.7501578,28.8931709 44.7501578,29.3190689 C44.7501578,29.744967 44.6413686,30.0906234 43.9786034,30.0906234 L30.8621778,30.0906234 Z" id="Fill-1170" fill="#C5CCCD" fill-rule="nonzero"></path>
                                <path d="M30.8621778,27.0044056 C30.1994125,27.0044056 30.0906234,26.6587492 30.0906234,26.2328511 C30.0906234,25.8069531 30.1994125,25.4612967 30.8621778,25.4612967 L43.9786034,25.4612967 C44.6413686,25.4612967 44.7501578,25.8069531 44.7501578,26.2328511 C44.7501578,26.6587492 44.6413686,27.0044056 43.9786034,27.0044056 L30.8621778,27.0044056 Z" id="Fill-1171" fill="#C5CCCD" fill-rule="nonzero"></path>
                                <path d="M30.8621778,23.9181878 C30.1994125,23.9181878 30.0906234,23.5725314 30.0906234,23.1466334 C30.0906234,22.7207353 30.1994125,22.3750789 30.8621778,22.3750789 L43.9786034,22.3750789 C44.6413686,22.3750789 44.7501578,22.7207353 44.7501578,23.1466334 C44.7501578,23.5725314 44.6413686,23.9181878 43.9786034,23.9181878 L30.8621778,23.9181878 Z" id="Fill-1172" fill="#C5CCCD" fill-rule="nonzero"></path>
                                <path d="M24.6897422,4.62932667 C23.8375067,4.62932667 23.1466334,3.93845329 23.1466334,3.08621778 C23.1466334,2.23398227 23.8375067,1.54310889 24.6897422,1.54310889 C25.5419778,1.54310889 26.2328511,2.23398227 26.2328511,3.08621778 C26.2328511,3.93845329 25.5419778,4.62932667 24.6897422,4.62932667 Z M24.6897422,0 C22.9852712,0 21.6035245,1.38174677 21.6035245,3.08621778 L21.6035245,10.0302078 L27.77596,10.0302078 L27.77596,3.08621778 C27.77596,1.38174677 26.3942133,0 24.6897422,0 Z" id="Fill-1173" fill="#30404D" fill-rule="nonzero"></path>
                                <path d="M26.2328511,3.08621778 C26.2328511,3.93845329 25.5419778,4.62932667 24.6897422,4.62932667 L24.6897422,10.0302078 L27.77596,10.0302078 L27.77596,3.08621778 C27.77596,1.38174677 26.3942133,0 24.6897422,0 L24.6897422,1.54310889 C25.5419778,1.54310889 26.2328511,2.23398227 26.2328511,3.08621778" id="Fill-1174" fill="#182A37" fill-rule="nonzero"></path>
                            </g>
                            <g id="Rectangle-path" transform="translate(9.258653, 19.288861)">
                                <polygon id="Path" fill="#E86C60" fill-rule="nonzero" points="0 0.385777223 6.17243556 0.385777223 6.17243556 6.55821278 0 6.55821278"></polygon>
                                <polygon id="Path" fill="#72C472" fill-rule="nonzero" points="6.94399001 0.385777223 13.1164256 0.385777223 13.1164256 6.55821278 6.94399001 6.55821278"></polygon>
                                <polygon id="Path" fill="#43A6DD" fill-rule="nonzero" points="0 7.32976723 6.17243556 7.32976723 6.17243556 13.5022028 0 13.5022028"></polygon>
                                <polygon id="Path" fill="#EFD358" fill-rule="nonzero" points="6.94399001 7.32976723 13.1164256 7.32976723 13.1164256 13.5022028 6.94399001 13.5022028"></polygon>
                            </g>
                        </g>
                    </g>
                </g>
                <g id="Azure-Border">
                    <path d="M50,0 C74.5263677,-4.50542066e-15 94.9281966,17.6592499 99.1842495,40.9565123 L94.2027317,73.3905473 C85.8096395,89.2186645 69.1638777,100 50,100 C30.9551233,100 14.3971863,89.3521454 5.95457608,73.6848234 L0.0261464987,48.3675131 C0.887696267,21.508872 22.932015,4.97230817e-15 50,0 Z" id="Combined-Shape" fill="url(#linearGradient-6)" fill-rule="evenodd" opacity="0.400000006" style="mix-blend-mode: overlay;"></path>
                    <g>
                        <use fill="black" fill-opacity="1" filter="url(#filter-8)" xlink:href="#path-7"></use>
                        <rect stroke="#F2F1F0" stroke-width="4" stroke-linejoin="square" x="-1" y="-1" width="102" height="102" rx="51"></rect>
                    </g>
                    <rect stroke="#0078D4" stroke-width="4" x="2" y="2" width="96" height="96" rx="48"></rect>
                </g>
            </g>
        </g>
    </g>
</svg>