<?xml version="1.0" encoding="UTF-8"?>
<svg width="101px" height="101px" viewBox="0 0 101 101" version="1.1" xmlns="http://www.w3.org/2000/svg" xmlns:xlink="http://www.w3.org/1999/xlink">
    <!-- Generator: Sketch 63.1 (92452) - https://sketch.com -->
    <title>Extending Microsoft Teams/MS-Identity-Users-Groups-and-Roles</title>
    <desc>Created with Sketch.</desc>
    <defs>
        <rect id="path-1" x="0" y="0" width="94.3396226" height="94.3396226" rx="47.1698113"></rect>
        <linearGradient x1="50%" y1="0%" x2="50%" y2="100%" id="linearGradient-3">
            <stop stop-color="#99D3FF" offset="0%"></stop>
            <stop stop-color="#0FA6FF" offset="100%"></stop>
        </linearGradient>
        <rect id="path-4" x="0" y="0" width="100" height="100" rx="50"></rect>
        <filter x="-0.5%" y="-0.5%" width="102.0%" height="102.0%" filterUnits="objectBoundingBox" id="filter-5">
            <feOffset dx="1" dy="1" in="SourceAlpha" result="shadowOffsetOuter1"></feOffset>
            <feMorphology radius="4" operator="erode" in="SourceAlpha" result="shadowInner"></feMorphology>
            <feOffset dx="1" dy="1" in="shadowInner" result="shadowInner"></feOffset>
            <feComposite in="shadowOffsetOuter1" in2="shadowInner" operator="out" result="shadowOffsetOuter1"></feComposite>
            <feColorMatrix values="0 0 0 0 0   0 0 0 0 0   0 0 0 0 0  0 0 0 0.15 0" type="matrix" in="shadowOffsetOuter1"></feColorMatrix>
        </filter>
        <path d="M50,2.83018868 C76.0511674,2.83018868 97.1698113,23.9488326 97.1698113,50 C97.1698113,76.0511674 76.0511674,97.1698113 50,97.1698113 C23.9488326,97.1698113 2.83018868,76.0511674 2.83018868,50 C2.83018868,23.9488326 23.9488326,2.83018868 50,2.83018868 Z M50,6.60377358 C26.032926,6.60377358 6.60377358,26.032926 6.60377358,50 C6.60377358,73.967074 26.032926,93.3962264 50,93.3962264 C73.967074,93.3962264 93.3962264,73.967074 93.3962264,50 C93.3962264,26.032926 73.967074,6.60377358 50,6.60377358 Z" id="path-6"></path>
        <filter x="-18.8%" y="-20.3%" width="137.5%" height="140.7%" filterUnits="objectBoundingBox" id="filter-8">
            <feOffset dx="0" dy="2" in="SourceAlpha" result="shadowOffsetOuter1"></feOffset>
            <feGaussianBlur stdDeviation="2" in="shadowOffsetOuter1" result="shadowBlurOuter1"></feGaussianBlur>
            <feColorMatrix values="0 0 0 0 0   0 0 0 0 0   0 0 0 0 0  0 0 0 0.1 0" type="matrix" in="shadowBlurOuter1" result="shadowMatrixOuter1"></feColorMatrix>
            <feMerge>
                <feMergeNode in="shadowMatrixOuter1"></feMergeNode>
                <feMergeNode in="SourceGraphic"></feMergeNode>
            </feMerge>
        </filter>
        <linearGradient x1="52.3965486%" y1="90.7132244%" x2="33.4289929%" y2="25.5572065%" id="linearGradient-9">
            <stop stop-color="#1988D9" offset="0%"></stop>
            <stop stop-color="#54AEF0" offset="90%"></stop>
        </linearGradient>
        <linearGradient x1="50%" y1="0%" x2="50%" y2="100%" id="linearGradient-10">
            <stop stop-color="#7B82EA" offset="0%"></stop>
            <stop stop-color="#4B53BB" offset="100%"></stop>
        </linearGradient>
        <linearGradient x1="50%" y1="0%" x2="50%" y2="100%" id="linearGradient-11">
            <stop stop-color="#7B82EA" offset="0%"></stop>
            <stop stop-color="#4B53BB" offset="100%"></stop>
        </linearGradient>
        <linearGradient x1="50%" y1="0%" x2="50%" y2="100%" id="linearGradient-12">
            <stop stop-color="#E2E2F6" offset="0%"></stop>
            <stop stop-color="#7B82EA" offset="100%"></stop>
        </linearGradient>
        <linearGradient x1="50%" y1="0%" x2="50%" y2="100%" id="linearGradient-13">
            <stop stop-color="#E2E2F6" offset="0%"></stop>
            <stop stop-color="#7B82EA" offset="100%"></stop>
        </linearGradient>
    </defs>
    <g id="Badges" stroke="none" stroke-width="1" fill="none" fill-rule="evenodd">
        <g id="Extending-Microsoft-Teams-" transform="translate(-160.000000, -1080.000000)">
            <g id="Extending-Microsoft-Teams/MS-Identity-Users-Groups-and-Roles" transform="translate(160.000000, 1080.000000)">
                <g id="Badge-Plates/Circle">
                    <g id="BG" transform="translate(2.830189, 2.830189)">
                        <mask id="mask-2" fill="white">
                            <use xlink:href="#path-1"></use>
                        </mask>
                        <g></g>
                        <g id="Colors/Microsoft-365/BG-Gradient-1" mask="url(#mask-2)" fill="url(#linearGradient-3)">
                            <rect id="Rectangle" x="0" y="0" width="94.3396226" height="94.3396226"></rect>
                        </g>
                    </g>
                    <g id="Border">
                        <g id="White-Border">
                            <use fill="black" fill-opacity="1" filter="url(#filter-5)" xlink:href="#path-4"></use>
                            <rect stroke="#F2F1F0" stroke-width="4" stroke-linejoin="square" x="2" y="2" width="96" height="96" rx="48"></rect>
                        </g>
                        <mask id="mask-7" fill="white">
                            <use xlink:href="#path-6"></use>
                        </mask>
                        <use id="Boarder" fill="#0078D4" fill-rule="nonzero" xlink:href="#path-6"></use>
                        <g id="Colors/Microsoft-365/Border" mask="url(#mask-7)" fill="#0076D7">
                            <g transform="translate(2.830189, 2.830189)" id="Microsoft-365/Border">
                                <rect x="0" y="0" width="94.3396226" height="94.3396226"></rect>
                            </g>
                        </g>
                    </g>
                </g>
                <g id="Icon-identity-228-Azure-AD-B2C" filter="url(#filter-8)" transform="translate(18.000000, 19.000000)" fill-rule="nonzero">
                    <polygon id="Path" fill="#50E6FF" points="3.47888889 33.0683761 30.7588889 50.6068376 58.5211111 33 62 37 30.7588889 57 0 37.034188"></polygon>
                    <polygon id="Path" fill="#FFFFFF" points="7 30.8350669 31.7464503 1 57 30.8692422 31.7464503 47"></polygon>
                    <polygon id="Path" fill="#50E6FF" points="32 47 7.12658302 30.8300435 32 0"></polygon>
                    <polygon id="Path" fill="url(#linearGradient-9)" points="32 0 32 47 58 30.5185736"></polygon>
                    <polygon id="Path" fill="#53B1E0" points="31.8163176 24.1570853 58.3536024 30.6424785 31.9160712 46.740753 31.862682 24.0671665"></polygon>
                    <polygon id="Path" fill="#9CEBFF" points="6.75777546 30.6122714 31.8486321 24.2076646 31.8106976 47.2296865"></polygon>
                    <polygon id="Path" fill="#5EA0EF" points="63.0774741 36.298813 59.5140783 32.298813 30 50.6068376 30 57"></polygon>
                    <path d="M59.4803419,53.8160535 C60.3196258,53.8160535 61,53.0913238 61,52.1973244 L61,52.1973244 C61.0009403,47.1887594 57.2393532,43.1001712 52.5382679,43 C47.2540027,43 44.5255259,46.4949833 44.0074607,52.1973244 C43.9258936,53.0870393 44.5221638,53.8850393 45.3544302,54 L59.4803419,54 L59.4803419,53.8160535 Z" id="Path" fill="url(#linearGradient-10)"></path>
                    <path d="M52.5510204,42.9119171 C51.6454968,42.9211383 50.7579516,42.6038662 50,42 L52.5170068,50 L55,42.0414508 C54.2652672,42.6015572 53.4176341,42.9028403 52.5510204,42.9119171 L52.5510204,42.9119171 Z" id="Path" fill="#FFFFFF" opacity="0.8"></path>
                    <circle id="Oval" fill="url(#linearGradient-11)" cx="52.5" cy="39.5" r="5.5"></circle>
                    <path d="M50.6631955,58.9997374 C51.2857906,59.0088886 51.8857214,58.7784918 52.3260155,58.3611498 C52.7663097,57.9438078 53.0093774,57.3751509 52.999723,56.7850111 L52.999723,56.5165594 C52.0792728,49.6374852 47.9372466,44 40.0072137,44 C32.0771808,44 27.793547,48.7650173 27.0147045,56.5501159 C26.9453186,57.1292599 27.1233648,57.7106353 27.5091234,58.1645448 C27.8948821,58.6184543 28.4562583,58.9071332 29.0680166,58.966181 L50.6985974,58.966181 L50.6631955,58.9997374 Z" id="Path" fill="url(#linearGradient-12)"></path>
                    <path d="M40.0363636,44.2389078 C38.6020124,44.2459169 37.1976806,43.814876 36,43 L40,54 L44,43.225256 C42.7996616,43.9470019 41.4242269,44.2987526 40.0363636,44.2389078 L40.0363636,44.2389078 Z" id="Path" fill="#FFFFFF" opacity="0.8"></path>
                    <circle id="Oval" fill="url(#linearGradient-13)" cx="40" cy="39" r="7"></circle>
                </g>
            </g>
        </g>
    </g>
</svg>