<?xml version="1.0" encoding="UTF-8"?>
<svg width="107px" height="107px" viewBox="0 0 107 107" version="1.1" xmlns="http://www.w3.org/2000/svg" xmlns:xlink="http://www.w3.org/1999/xlink">
    <!-- Generator: Sketch 60.1 (88133) - https://sketch.com -->
    <title>NA/microsoft-Identity-applicaiton-types </title>
    <desc>Created with Sketch.</desc>
    <defs>
        <rect id="path-1" x="0" y="0" width="96" height="96" rx="48"></rect>
        <rect id="path-3" x="0" y="0" width="100" height="100" rx="50"></rect>
        <filter x="-5.2%" y="-8.7%" width="110.4%" height="117.4%" filterUnits="objectBoundingBox" id="filter-5">
            <feOffset dx="0" dy="2" in="SourceAlpha" result="shadowOffsetOuter1"></feOffset>
            <feColorMatrix values="0 0 0 0 0   0 0 0 0 0   0 0 0 0 0  0 0 0 0.101590806 0" type="matrix" in="shadowOffsetOuter1" result="shadowMatrixOuter1"></feColorMatrix>
            <feMerge>
                <feMergeNode in="shadowMatrixOuter1"></feMergeNode>
                <feMergeNode in="SourceGraphic"></feMergeNode>
            </feMerge>
        </filter>
        <filter x="-9.3%" y="-11.1%" width="118.6%" height="122.2%" filterUnits="objectBoundingBox" id="filter-6">
            <feOffset dx="0" dy="2" in="SourceAlpha" result="shadowOffsetOuter1"></feOffset>
            <feColorMatrix values="0 0 0 0 0   0 0 0 0 0   0 0 0 0 0  0 0 0 0.101862981 0" type="matrix" in="shadowOffsetOuter1" result="shadowMatrixOuter1"></feColorMatrix>
            <feMerge>
                <feMergeNode in="shadowMatrixOuter1"></feMergeNode>
                <feMergeNode in="SourceGraphic"></feMergeNode>
            </feMerge>
        </filter>
        <linearGradient x1="78.4210223%" y1="-7.24023438%" x2="15.5786468%" y2="110.793945%" id="linearGradient-7">
            <stop stop-color="#FFFFFF" offset="0%"></stop>
            <stop stop-color="#000000" stop-opacity="0.5" offset="100%"></stop>
        </linearGradient>
        <rect id="path-8" x="-3" y="-3" width="106" height="106" rx="53"></rect>
        <filter x="-0.5%" y="-0.5%" width="101.9%" height="101.9%" filterUnits="objectBoundingBox" id="filter-9">
            <feOffset dx="1" dy="1" in="SourceAlpha" result="shadowOffsetOuter1"></feOffset>
            <feMorphology radius="4" operator="erode" in="SourceAlpha" result="shadowInner"></feMorphology>
            <feOffset dx="1" dy="1" in="shadowInner" result="shadowInner"></feOffset>
            <feComposite in="shadowOffsetOuter1" in2="shadowInner" operator="out" result="shadowOffsetOuter1"></feComposite>
            <feColorMatrix values="0 0 0 0 0   0 0 0 0 0   0 0 0 0 0  0 0 0 0.15 0" type="matrix" in="shadowOffsetOuter1"></feColorMatrix>
        </filter>
    </defs>
    <g id="Badges" stroke="none" stroke-width="1" fill="none" fill-rule="evenodd">
        <g id="NA/70" transform="translate(-47.000000, -257.000000)">
            <g id="NA/microsoft-Identity-applicaiton-types-" transform="translate(50.000000, 260.000000)">
                <g id="Mask" transform="translate(2.000000, 2.000000)">
                    <mask id="mask-2" fill="white">
                        <use xlink:href="#path-1"></use>
                    </mask>
                    <use id="BG" fill="#55A2FF" xlink:href="#path-1"></use>
                    <g id="Circle-" mask="url(#mask-2)">
                        <g transform="translate(-2.000000, -2.000000)">
                            <mask id="mask-4" fill="white">
                                <use xlink:href="#path-3"></use>
                            </mask>
                            <g id="BG" stroke="none" fill="none"></g>
                            <g id="Color/Blue" stroke="none" fill="none" mask="url(#mask-4)" fill-rule="evenodd">
                                <rect id="Rectangle" fill="#55A2FF" x="0" y="0" width="100" height="100"></rect>
                            </g>
                        </g>
                    </g>
                    <g id="Laptop-Cloud" mask="url(#mask-2)">
                        <g transform="translate(9.000000, 22.395331)">
                            <g id="Computer" filter="url(#filter-5)" transform="translate(0.500000, 2.000000)">
                                <path d="M0,38.3910304 L0,40.7904698 C0,43.4298532 2.15949546,45.5893486 4.7988788,45.5893486 L71.9831821,45.5893486 C74.6225654,45.5893486 76.7820609,43.4298532 76.7820609,40.7904698 L76.7820609,38.3910304 L0,38.3910304" id="Fill-1415" fill="#E1E4E1"></path>
                                <path d="M11.997197,0 C9.35781367,0 7.19831821,2.15949546 7.19831821,4.7988788 L7.19831821,38.3910304 L69.5837427,38.3910304 L69.5837427,4.7988788 C69.5837427,2.15949546 67.4242472,0 64.7848638,0 L11.997197,0 Z M64.7848638,2.3994394 C66.106955,2.3994394 67.1843032,3.47558797 67.1843032,4.7988788 L67.1843032,35.991591 L9.59775761,35.991591 L9.59775761,4.7988788 C9.59775761,3.47558797 10.6739062,2.3994394 11.997197,2.3994394 L64.7848638,2.3994394 L64.7848638,2.3994394 Z" id="Fill-1416" fill="#182A37"></path>
                                <path d="M9.59775761,4.7988788 C9.59775761,3.47558797 10.6739062,2.3994394 11.997197,2.3994394 L64.7848638,2.3994394 C66.106955,2.3994394 67.1843032,3.47558797 67.1843032,4.7988788 L67.1843032,35.991591 L9.59775761,35.991591 L9.59775761,4.7988788" id="Fill-1417" fill="#30404D"></path>
                                <path d="M11.997197,2.3994394 L37.6580017,2.3994394 L25.9271425,35.991591 L9.59775761,35.991591 L9.59775761,4.7988788 C9.59775761,3.47558797 10.6739062,2.3994394 11.997197,2.3994394" id="Fill-1418" fill="#384B58"></path>
                                <path d="M11.997197,0 L38.3910304,0 L37.6580017,2.3994394 L11.997197,2.3994394 C10.6739062,2.3994394 9.59775761,3.47558797 9.59775761,4.7988788 L9.59775761,35.991591 L25.9271425,35.991591 L25.1941137,38.3910304 L7.19831821,38.3910304 L7.19831821,4.7988788 C7.19831821,2.15949546 9.35781367,0 11.997197,0" id="Fill-1419" fill="#30404D"></path>
                                <path d="M35.991591,43.1899092 L0.670643313,43.1899092 C1.5044485,44.6151762 3.03649056,45.5893486 4.7988788,45.5893486 L71.9831821,45.5893486 C74.6225654,45.5893486 76.7820609,43.4298532 76.7820609,40.7904698 L76.7820609,38.3910304 L38.3910304,38.3910304 L38.3910304,40.7904698 C38.3910304,42.1161601 37.3172813,43.1899092 35.991591,43.1899092" id="Fill-1420" fill="#CDD6D8"></path>
                                <path d="M33.5921516,40.7904698 L43.1899092,40.7904698 C44.5143998,40.7904698 45.5893486,39.715521 45.5893486,38.3910304 L31.1927122,38.3910304 C31.1927122,39.715521 32.2664614,40.7904698 33.5921516,40.7904698" id="Fill-1421" fill="#AAB0B1"></path>
                            </g>
                            <g id="Group-2" filter="url(#filter-6)" transform="translate(17.830689, 0.247696)">
                                <g id="Group" fill-rule="nonzero">
                                    <path d="M0,34.3892838 C0,35.1167495 0.595199143,35.7119486 1.32266476,35.7119486 L41.0026077,35.7119486 C41.7300733,35.7119486 42.3252724,35.1167495 42.3252724,34.3892838 L42.3252724,9.91998572 L0,9.91998572 L0,34.3892838" id="Fill-1164" fill="#E1E4E1"></path>
                                    <path d="M42.3252724,7.2746562 C42.3252724,6.54719058 41.7300733,5.95199143 41.0026077,5.95199143 L1.32266476,5.95199143 C0.595199143,5.95199143 0,6.54719058 0,7.2746562 L0,9.91998572 L42.3252724,9.91998572 L42.3252724,7.2746562" id="Fill-1165" fill="#55B7D9"></path>
                                    <polygon id="Fill-1166" fill="#FFFFFE" points="3.96799429 31.7439543 23.1466334 31.7439543 23.1466334 13.2266476 3.96799429 13.2266476"></polygon>
                                    <path d="M25.1306305,8.59732096 L17.1946419,8.59732096 C16.4638696,8.59732096 16.5333095,8.30170539 16.5333095,7.93598858 C16.5333095,7.57027177 16.4638696,7.2746562 17.1946419,7.2746562 L25.1306305,7.2746562 C25.8607415,7.2746562 25.7919629,7.57027177 25.7919629,7.93598858 C25.7919629,8.30170539 25.8607415,8.59732096 25.1306305,8.59732096" id="Fill-1167" fill="#2D87AC"></path>
                                    <path d="M26.4532953,29.7599572 C25.8852108,29.7599572 25.7919629,29.4636803 25.7919629,29.0986248 C25.7919629,28.7335693 25.8852108,28.4372924 26.4532953,28.4372924 L29.0986248,28.4372924 C29.6667093,28.4372924 29.7599572,28.7335693 29.7599572,29.0986248 C29.7599572,29.4636803 29.6667093,29.7599572 29.0986248,29.7599572 L26.4532953,29.7599572 Z" id="Fill-1168" fill="#C5CCCD"></path>
                                    <path d="M34.3892838,15.2106448 L26.4532953,15.2106448 C25.8852108,15.2106448 25.7919629,14.9143679 25.7919629,14.5493124 C25.7919629,14.1842569 25.8852108,13.88798 26.4532953,13.88798 L34.3892838,13.88798 C34.9573684,13.88798 35.0506162,14.1842569 35.0506162,14.5493124 C35.0506162,14.9143679 34.9573684,15.2106448 34.3892838,15.2106448" id="Fill-1169" fill="#546670"></path>
                                    <path d="M26.4532953,25.7919629 C25.8852108,25.7919629 25.7919629,25.495686 25.7919629,25.1306305 C25.7919629,24.765575 25.8852108,24.4692981 26.4532953,24.4692981 L37.6959458,24.4692981 C38.2640303,24.4692981 38.3572781,24.765575 38.3572781,25.1306305 C38.3572781,25.495686 38.2640303,25.7919629 37.6959458,25.7919629 L26.4532953,25.7919629 Z" id="Fill-1170" fill="#C5CCCD"></path>
                                    <path d="M26.4532953,23.1466334 C25.8852108,23.1466334 25.7919629,22.8503565 25.7919629,22.485301 C25.7919629,22.1202455 25.8852108,21.8239686 26.4532953,21.8239686 L37.6959458,21.8239686 C38.2640303,21.8239686 38.3572781,22.1202455 38.3572781,22.485301 C38.3572781,22.8503565 38.2640303,23.1466334 37.6959458,23.1466334 L26.4532953,23.1466334 Z" id="Fill-1171" fill="#C5CCCD"></path>
                                    <path d="M26.4532953,20.5013038 C25.8852108,20.5013038 25.7919629,20.2050269 25.7919629,19.8399714 C25.7919629,19.474916 25.8852108,19.1786391 26.4532953,19.1786391 L37.6959458,19.1786391 C38.2640303,19.1786391 38.3572781,19.474916 38.3572781,19.8399714 C38.3572781,20.2050269 38.2640303,20.5013038 37.6959458,20.5013038 L26.4532953,20.5013038 Z" id="Fill-1172" fill="#C5CCCD"></path>
                                    <path d="M21.1626362,3.96799429 C20.4321486,3.96799429 19.8399714,3.3758171 19.8399714,2.64532953 C19.8399714,1.91484195 20.4321486,1.32266476 21.1626362,1.32266476 C21.8931238,1.32266476 22.485301,1.91484195 22.485301,2.64532953 C22.485301,3.3758171 21.8931238,3.96799429 21.1626362,3.96799429 Z M21.1626362,0 C19.7016611,0 18.5173067,1.18435437 18.5173067,2.64532953 L18.5173067,8.59732096 L23.8079657,8.59732096 L23.8079657,2.64532953 C23.8079657,1.18435437 22.6236114,0 21.1626362,0 Z" id="Fill-1173" fill="#30404D"></path>
                                    <path d="M22.485301,2.64532953 C22.485301,3.3758171 21.8931238,3.96799429 21.1626362,3.96799429 L21.1626362,8.59732096 L23.8079657,8.59732096 L23.8079657,2.64532953 C23.8079657,1.18435437 22.6236114,0 21.1626362,0 L21.1626362,1.32266476 C21.8931238,1.32266476 22.485301,1.91484195 22.485301,2.64532953" id="Fill-1174" fill="#182A37"></path>
                                </g>
                                <g id="Rectangle-path" transform="translate(7.935989, 16.533310)" fill-rule="nonzero">
                                    <polygon id="Path" fill="#E86C60" points="0 0.330666191 5.29065905 0.330666191 5.29065905 5.62132524 0 5.62132524"></polygon>
                                    <polygon id="Path" fill="#72C472" points="5.95199143 0.330666191 11.2426505 0.330666191 11.2426505 5.62132524 5.95199143 5.62132524"></polygon>
                                    <polygon id="Path" fill="#43A6DD" points="0 6.28265763 5.29065905 6.28265763 5.29065905 11.5733167 0 11.5733167"></polygon>
                                    <polygon id="Path" fill="#EFD358" points="5.95199143 6.28265763 11.2426505 6.28265763 11.2426505 11.5733167 5.95199143 11.5733167"></polygon>
                                </g>
                            </g>
                        </g>
                    </g>
                </g>
                <g id="Azure-Border">
                    <path d="M50,0 C74.5263677,-4.50542066e-15 94.9281966,17.6592499 99.1842495,40.9565123 L94.2027317,73.3905473 C85.8096395,89.2186645 69.1638777,100 50,100 C30.9551233,100 14.3971863,89.3521454 5.95457608,73.6848234 L0.0261464987,48.3675131 C0.887696267,21.508872 22.932015,4.97230817e-15 50,0 Z" id="Combined-Shape" fill="url(#linearGradient-7)" fill-rule="evenodd" opacity="0.400000006" style="mix-blend-mode: overlay;"></path>
                    <g>
                        <use fill="black" fill-opacity="1" filter="url(#filter-9)" xlink:href="#path-8"></use>
                        <rect stroke="#F2F1F0" stroke-width="4" stroke-linejoin="square" x="-1" y="-1" width="102" height="102" rx="51"></rect>
                    </g>
                    <rect stroke="#0078D4" stroke-width="4" x="2" y="2" width="96" height="96" rx="48"></rect>
                </g>
            </g>
        </g>
    </g>
</svg>