<svg width="100" height="100" viewBox="0 0 100 100" fill="none" xmlns="http://www.w3.org/2000/svg">
<g clip-path="url(#clip0)">
<path d="M49.6401 96.4481C40.382 96.4481 31.3317 93.7028 23.6339 88.5592C15.936 83.4157 9.93624 76.105 6.3933 67.5516C2.85036 58.9981 1.92337 49.5862 3.72954 40.506C5.53571 31.4257 9.99394 23.085 16.5404 16.5385C23.0869 9.99198 31.4277 5.53376 40.5079 3.72759C49.5882 1.92141 59.0001 2.84841 67.5535 6.39135C76.1069 9.93428 83.4176 15.934 88.5612 23.6319C93.7047 31.3298 96.4501 40.38 96.4501 49.6381C96.4505 55.7854 95.24 61.8726 92.8878 67.5521C90.5355 73.2315 87.0875 78.392 82.7407 82.7388C78.3939 87.0856 73.2335 90.5335 67.554 92.8858C61.8746 95.2381 55.7874 96.4486 49.6401 96.4481Z" fill="url(#paint0_linear)"/>
<path fill-rule="evenodd" clip-rule="evenodd" d="M95.54 49.64C95.54 58.7182 92.848 67.5925 87.8045 75.1407C82.7609 82.6889 75.5923 88.572 67.2052 92.0461C58.818 95.5201 49.5891 96.4291 40.6854 94.658C31.7816 92.887 23.603 88.5154 17.1838 82.0962C10.7646 75.677 6.39302 67.4984 4.62196 58.5946C2.85089 49.6909 3.75987 40.462 7.23393 32.0748C10.708 23.6877 16.5911 16.5191 24.1393 11.4755C31.6875 6.43199 40.5618 3.74 49.64 3.74C55.6677 3.73998 61.6363 4.9272 67.2052 7.23388C72.774 9.54057 77.834 12.9215 82.0963 17.1837C86.3585 21.446 89.7394 26.5059 92.0461 32.0748C94.3528 37.6437 95.54 43.6123 95.54 49.64V49.64ZM49.64 3.62732e-07C59.4579 3.62732e-07 69.0553 2.91134 77.2185 8.36585C85.3818 13.8204 91.7442 21.5731 95.5014 30.6436C99.2585 39.7141 100.242 49.6951 98.3262 59.3243C96.4108 68.9535 91.6831 77.7985 84.7408 84.7408C77.7985 91.6831 68.9535 96.4108 59.3243 98.3262C49.6951 100.242 39.7141 99.2585 30.6436 95.5014C21.5731 91.7442 13.8204 85.3818 8.36585 77.2185C2.91134 69.0553 3.62732e-07 59.4579 3.62732e-07 49.64C-0.000787738 43.121 1.28265 36.6656 3.77702 30.6427C6.27138 24.6197 9.9278 19.1471 14.5375 14.5375C19.1471 9.9278 24.6197 6.27138 30.6427 3.77702C36.6656 1.28265 43.121 -0.000787738 49.64 3.62732e-07V3.62732e-07Z" fill="#F2F1F0"/>
<path fill-rule="evenodd" clip-rule="evenodd" d="M92.7296 49.6386C92.7296 58.161 90.2024 66.492 85.4676 73.5781C80.7328 80.6643 74.0031 86.1872 66.1294 89.4486C58.2557 92.71 49.5918 93.5633 41.2331 91.9007C32.8745 90.238 25.1966 86.1341 19.1703 80.1079C13.1441 74.0816 9.04017 66.4037 7.37753 58.0451C5.7149 49.6864 6.56822 41.0225 9.8296 33.1488C13.091 25.2751 18.6139 18.5454 25.7 13.8106C32.7862 9.07581 41.1172 6.54862 49.6396 6.54862C55.2983 6.54828 60.9017 7.6626 66.1298 9.82795C71.3579 11.9933 76.1082 15.1673 80.1096 19.1686C84.1109 23.17 87.2849 27.9203 89.4502 33.1484C91.6156 38.3765 92.7299 43.9799 92.7296 49.6386V49.6386ZM49.6396 2.80862C58.9017 2.80862 67.9558 5.55515 75.6569 10.7009C83.3581 15.8466 89.3604 23.1605 92.9049 31.7176C96.4493 40.2746 97.3767 49.6906 95.5697 58.7747C93.7628 67.8588 89.3027 76.2031 82.7534 82.7524C76.2041 89.3017 67.8598 93.7619 58.7757 95.5688C49.6915 97.3757 40.2756 96.4484 31.7185 92.9039C23.1614 89.3594 15.8476 83.3571 10.7018 75.656C5.5561 67.9548 2.80957 58.9007 2.80957 49.6386C2.81076 37.2189 7.745 25.3082 16.5271 16.5261C25.3091 7.74403 37.2198 2.80979 49.6396 2.80859V2.80862Z" fill="#0078D4"/>
<path fill-rule="evenodd" clip-rule="evenodd" d="M92.7296 49.6386C92.7296 58.161 90.2024 66.492 85.4676 73.5781C80.7328 80.6642 74.0031 86.1872 66.1294 89.4486C58.2557 92.7099 49.5918 93.5633 41.2331 91.9006C32.8745 90.238 25.1966 86.1341 19.1703 80.1078C13.1441 74.0816 9.04017 66.4037 7.37753 58.045C5.7149 49.6864 6.56822 41.0224 9.8296 33.1488C13.091 25.2751 18.6139 18.5454 25.7001 13.8106C32.7862 9.07578 41.1172 6.54859 49.6396 6.54859C55.2983 6.54825 60.9017 7.66257 66.1298 9.82792C71.3579 11.9933 76.1082 15.1673 80.1096 19.1686C84.1109 23.1699 87.2849 27.9203 89.4502 33.1484C91.6156 38.3764 92.7299 43.9798 92.7296 49.6386V49.6386ZM49.6396 2.80859C58.9017 2.80859 67.9558 5.55513 75.6569 10.7009C83.3581 15.8466 89.3604 23.1605 92.9048 31.7175C96.4493 40.2746 97.3767 49.6905 95.5697 58.7747C93.7628 67.8588 89.3027 76.2031 82.7534 82.7524C76.2041 89.3017 67.8598 93.7618 58.7757 95.5688C49.6915 97.3757 40.2756 96.4483 31.7185 92.9039C23.1614 89.3594 15.8476 83.3571 10.7018 75.656C5.5561 67.9548 2.80957 58.9007 2.80957 49.6386C2.81076 37.2189 7.74501 25.3082 16.5271 16.5261C25.3091 7.74403 37.2198 2.80979 49.6396 2.80859V2.80859Z" fill="#0078D4"/>
<path fill-rule="evenodd" clip-rule="evenodd" d="M23.0923 65.3573C23.0936 65.7936 23.2674 66.2115 23.5759 66.52C23.8843 66.8284 24.3023 67.0023 24.7385 67.0036H74.1251C74.5613 67.0023 74.9793 66.8284 75.2877 66.52C75.5962 66.2115 75.77 65.7936 75.7713 65.3573V34.9023H23.0923L23.0923 65.3573Z" fill="#F2F2F2"/>
<path fill-rule="evenodd" clip-rule="evenodd" d="M75.7713 31.6111C75.77 31.1749 75.5961 30.7569 75.2877 30.4484C74.9792 30.14 74.5613 29.9661 74.125 29.9648H24.7385C24.3023 29.9661 23.8843 30.14 23.5759 30.4484C23.2674 30.7569 23.0936 31.1749 23.0923 31.6111V34.9035H75.7713L75.7713 31.6111Z" fill="#0078D4"/>
<path fill-rule="evenodd" clip-rule="evenodd" d="M27.2539 62.0627H49.4324V39.0156H27.2539V62.0627Z" fill="#FFFFFE"/>
<path fill-rule="evenodd" clip-rule="evenodd" d="M54.3701 33.2556H44.4928C43.5833 33.2556 43.6697 32.8877 43.6697 32.4325C43.6697 31.9773 43.5833 31.6094 44.4928 31.6094H54.3701C55.2788 31.6094 55.1932 31.9773 55.1932 32.4325C55.1932 32.8877 55.2788 33.2556 54.3701 33.2556Z" fill="#1F56A3"/>
<path fill-rule="evenodd" clip-rule="evenodd" d="M49.4316 27.4933C49.106 27.4934 48.7877 27.3968 48.517 27.2159C48.2463 27.035 48.0353 26.7779 47.9107 26.4771C47.7861 26.1763 47.7535 25.8453 47.817 25.526C47.8805 25.2067 48.0373 24.9133 48.2675 24.6831C48.4977 24.4529 48.791 24.2961 49.1104 24.2325C49.4297 24.169 49.7607 24.2016 50.0615 24.3262C50.3623 24.4508 50.6194 24.6618 50.8003 24.9325C50.9812 25.2033 51.0778 25.5215 51.0778 25.8471C51.0778 26.2837 50.9043 26.7024 50.5956 27.0111C50.2869 27.3199 49.8682 27.4933 49.4316 27.4933V27.4933ZM49.4316 22.5547C48.5584 22.5547 47.721 22.9016 47.1035 23.5191C46.4861 24.1365 46.1392 24.9739 46.1392 25.8471V33.2551H52.724V25.8471C52.724 24.9739 52.3771 24.1365 51.7597 23.5191C51.1422 22.9016 50.3048 22.5547 49.4316 22.5547Z" fill="white"/>
<path opacity="0.2" d="M52.724 32.4336H46.1392V33.2567H52.724V32.4336Z" fill="#003067"/>
<path d="M38.3427 52.454C41.1238 52.454 43.3783 50.1995 43.3783 47.4184C43.3783 44.6373 41.1238 42.3828 38.3427 42.3828C35.5616 42.3828 33.3071 44.6373 33.3071 47.4184C33.3071 50.1995 35.5616 52.454 38.3427 52.454Z" fill="#0078D4"/>
<path fill-rule="evenodd" clip-rule="evenodd" d="M29.4907 62.0747C29.4907 60.9123 29.7197 59.7612 30.1645 58.6872C30.6094 57.6132 31.2614 56.6374 32.0834 55.8154C32.9054 54.9934 33.8813 54.3413 34.9553 53.8965C36.0292 53.4516 37.1803 53.2227 38.3428 53.2227C39.5053 53.2227 40.6564 53.4516 41.7304 53.8965C42.8043 54.3413 43.7802 54.9934 44.6022 55.8154C45.4242 56.6374 46.0762 57.6132 46.5211 58.6872C46.9659 59.7612 47.1949 60.9123 47.1949 62.0747H29.4907Z" fill="#0078D4"/>
<path opacity="0.2" d="M62.4483 67.003V61.4334C62.4471 60.259 61.98 59.1331 61.1496 58.3027C60.3192 57.4722 59.1933 57.0052 58.0189 57.0039H40.846C39.6716 57.0052 38.5457 57.4722 37.7153 58.3027C36.8848 59.1331 36.4178 60.259 36.4165 61.4334V67.003H62.4483Z" fill="#767676"/>
<path d="M55.138 52.1127L62.85 57.1237L70.707 52.0938L71.692 53.2437L62.85 58.9367L54.144 53.2437L55.138 52.1127Z" fill="#50E6FF"/>
<path d="M55.7129 51.4697L62.8499 42.9688L70.1319 51.4797L62.8499 56.0807L55.7129 51.4697Z" fill="white"/>
<path d="M62.8499 42.9688V56.0807L55.7129 51.4697L62.8499 42.9688Z" fill="#50E6FF"/>
<path d="M62.8501 42.9688V56.0807L70.1321 51.4797L62.8501 42.9688Z" fill="url(#paint1_linear)"/>
<path d="M62.8501 49.7422L70.1321 51.4782L62.8501 56.0792V49.7422Z" fill="#53B1E0"/>
<path d="M62.8499 56.0792L55.7129 51.4682L62.8499 49.7422V56.0792Z" fill="#9CEBFF"/>
<path d="M62.8501 58.9367L71.6921 53.2437L70.7071 52.0938L62.8501 57.1237V58.9367Z" fill="url(#paint2_linear)"/>
<path d="M58.0192 59.2188H40.8461C39.6229 59.2188 38.6313 60.2103 38.6313 61.4335V78.6066C38.6313 79.8298 39.6229 80.8213 40.8461 80.8213H58.0192C59.2424 80.8213 60.2339 79.8298 60.2339 78.6066V61.4335C60.2339 60.2103 59.2424 59.2188 58.0192 59.2188Z" fill="#FFFFFE"/>
<path d="M42.7989 71.5199L49.3739 75.7869L56.0659 71.5039L56.9039 72.4829L49.3739 77.3319L41.9609 72.4829L42.7989 71.5199Z" fill="#FAA21D"/>
<path d="M43.2979 70.9734L49.3739 63.7344L55.5759 70.9824L49.3739 74.9004L43.2979 70.9734Z" fill="white"/>
<path d="M49.3739 63.7344V74.9004L43.2979 70.9734L49.3739 63.7344Z" fill="#F78D1E"/>
<path d="M49.374 63.7344V74.9004L55.576 70.9824L49.374 63.7344Z" fill="url(#paint3_linear)"/>
<path d="M49.374 69.5039L55.576 70.9819L49.374 74.8999V69.5039Z" fill="#F78D1E"/>
<path d="M49.3739 74.8999L43.2979 70.9729L49.3739 69.5039V74.8999Z" fill="#FAA21D"/>
<path d="M61.9077 71.5039H64.1224" stroke="white" stroke-width="1.10737" stroke-linecap="round" stroke-linejoin="round"/>
<path d="M68 71.5039H74.5" stroke="white" stroke-width="1.10737" stroke-linecap="round" stroke-linejoin="round" stroke-dasharray="4.57 4.57"/>
<path d="M77.8389 71.5041H80.0539V69.2891" stroke="white" stroke-width="1.10737" stroke-linecap="round" stroke-linejoin="round"/>
<path d="M80.0542 65.2376V57.4531" stroke="white" stroke-width="1.10737" stroke-linecap="round" stroke-linejoin="round" stroke-dasharray="5.19 5.19"/>
<path d="M80.0539 53.7189V51.5039H77.8389" stroke="white" stroke-width="1.10737" stroke-linecap="round" stroke-linejoin="round"/>
<path d="M74.6406 51.5039H72.4258" stroke="white" stroke-width="1.10737" stroke-linecap="round" stroke-linejoin="round"/>
</g>
<defs>
<linearGradient id="paint0_linear" x1="47.8698" y1="-15.155" x2="51.8525" y2="130.613" gradientUnits="userSpaceOnUse">
<stop stop-color="#00ABDE"/>
<stop offset="1" stop-color="#007ED8"/>
</linearGradient>
<linearGradient id="paint1_linear" x1="67.068" y1="54.8733" x2="62.5544" y2="46.3237" gradientUnits="userSpaceOnUse">
<stop stop-color="#1988D9"/>
<stop offset="0.9" stop-color="#54AEF0"/>
</linearGradient>
<linearGradient id="paint2_linear" x1="65.1176" y1="52.3879" x2="68.2469" y2="57.7692" gradientUnits="userSpaceOnUse">
<stop offset="0.1" stop-color="#54AEF0"/>
<stop offset="0.29" stop-color="#4FABEE"/>
<stop offset="0.51" stop-color="#41A2E9"/>
<stop offset="0.74" stop-color="#2A93E0"/>
<stop offset="0.88" stop-color="#1988D9"/>
</linearGradient>
<linearGradient id="paint3_linear" x1="48.7815" y1="67.3427" x2="52.2102" y2="72.5396" gradientUnits="userSpaceOnUse">
<stop stop-color="#F9A11F"/>
<stop offset="0.02" stop-color="#F89F1F"/>
<stop offset="0.39" stop-color="#F28721"/>
<stop offset="0.72" stop-color="#ED7823"/>
<stop offset="1" stop-color="#EC7323"/>
</linearGradient>
<clipPath id="clip0">
<rect width="99.2799" height="99.28" fill="white"/>
</clipPath>
</defs>
</svg>
