<svg width="103" height="103" viewBox="0 0 103 103" fill="none" xmlns="http://www.w3.org/2000/svg">
<path d="M51.3088 97.8706C77.1612 97.8706 98.1148 76.9171 98.1148 51.0647C98.1148 25.2123 77.1612 4.25879 51.3088 4.25879C25.4565 4.25879 4.50293 25.2123 4.50293 51.0647C4.50293 76.9171 25.4565 97.8706 51.3088 97.8706Z" fill="url(#paint0_linear)"/>
<path fill-rule="evenodd" clip-rule="evenodd" d="M51.3086 1.0647C23.6953 1.0647 1.30859 23.4514 1.30859 51.0647C1.30859 78.678 23.6953 101.065 51.3086 101.065C78.9219 101.065 101.309 78.678 101.309 51.0647C101.309 23.4514 78.9219 1.0647 51.3086 1.0647ZM51.3086 96.8215C26.037 96.8215 5.55176 76.3363 5.55176 51.0647C5.55176 25.7931 26.037 5.30786 51.3086 5.30786C76.5802 5.30786 97.0654 25.7931 97.0654 51.0647C97.0654 76.3363 76.5802 96.8215 51.3086 96.8215Z" fill="#D9D9D9"/>
<path fill-rule="evenodd" clip-rule="evenodd" d="M5.41078 51.0647C5.41078 76.4113 25.9616 96.9621 51.3081 96.9621C76.6547 96.9621 97.2055 76.4113 97.2055 51.0647C97.2055 25.7181 76.6547 5.16738 51.3081 5.16738C25.9616 5.16738 5.41078 25.7181 5.41078 51.0647ZM51.3081 1.42065C23.8915 1.42065 1.66406 23.6481 1.66406 51.0647C1.66406 78.4814 23.8915 100.709 51.3081 100.709C78.7248 100.709 100.952 78.4814 100.952 51.0647C100.952 23.6481 78.7248 1.42065 51.3081 1.42065Z" fill="#F2F1F0"/>
<path fill-rule="evenodd" clip-rule="evenodd" d="M8.22133 51.0647C8.22133 74.8658 27.5076 94.152 51.3086 94.152C75.1097 94.152 94.3959 74.8658 94.3959 51.0647C94.3959 27.2637 75.1097 7.97743 51.3086 7.97743C27.5076 7.97743 8.22133 27.2637 8.22133 51.0647ZM51.3086 4.23071C25.4469 4.23071 4.47461 25.203 4.47461 51.0647C4.47461 76.9265 25.4469 97.8988 51.3086 97.8988C77.1704 97.8988 98.1426 76.9265 98.1426 51.0647C98.1426 25.203 77.1797 4.23071 51.3086 4.23071Z" fill="#0078D4"/>
<path d="M57.0975 42.1849H47.1406V43.515H57.0975V42.1849Z" fill="#9CEBFF"/>
<path d="M57.0975 52.9381H47.1406V54.2682H57.0975V52.9381Z" fill="#9CEBFF"/>
<path d="M57.0975 63.4288H47.1406V64.7589H57.0975V63.4288Z" fill="#9CEBFF"/>
<path d="M57.0975 31.8346H47.1406V33.1647H57.0975V31.8346Z" fill="#9CEBFF"/>
<path opacity="0.15" d="M82.4348 70.8942H53.8661C52.92 70.8942 52.1426 70.1167 52.1426 69.1707V32.3873C52.1426 31.2539 53.0605 30.3359 54.1939 30.3359H83.0437C84.0927 30.3359 84.9451 31.1883 84.9451 32.2374V68.3558C84.9545 69.7608 83.8211 70.8942 82.4348 70.8942Z" fill="#383838"/>
<path d="M82.4348 69.0021H53.8661C52.92 69.0021 52.1426 68.2247 52.1426 67.2787V30.5046C52.1426 29.3712 53.0605 28.4532 54.1939 28.4532H83.0437C84.0927 28.4532 84.9451 29.3056 84.9451 30.3547V66.4731C84.9545 67.8688 83.8211 69.0021 82.4348 69.0021Z" fill="#9CEBFF"/>
<path d="M79.5685 43.5994C79.5685 43.0186 79.0908 42.5503 78.5194 42.5503H58.259C57.6783 42.5503 57.21 43.028 57.21 43.5994C57.21 44.1707 57.6877 44.6485 58.259 44.6485H78.5101C79.1002 44.6485 79.5685 44.1801 79.5685 43.5994Z" fill="white"/>
<path d="M79.5685 49.3037C79.5685 48.723 79.0908 48.2546 78.5194 48.2546H58.259C57.6783 48.2546 57.21 48.7323 57.21 49.3037C57.21 49.8751 57.6877 50.3528 58.259 50.3528H78.5101C79.1002 50.3528 79.5685 49.8845 79.5685 49.3037Z" fill="white"/>
<path d="M78.5101 36.4525H58.259C57.6783 36.4525 57.21 36.9302 57.21 37.5016C57.21 38.073 57.6877 38.5507 58.259 38.5507H78.5101C79.0908 38.5507 79.5592 38.073 79.5592 37.5016C79.5685 36.9209 79.1002 36.4525 78.5101 36.4525Z" fill="white"/>
<path d="M80.421 64.3001L80.5709 64.2813C81.058 64.2251 81.4046 63.7849 81.3484 63.3072L81.3296 63.1573C81.2266 62.3518 81.5263 61.5462 82.1258 60.9936L82.2382 60.8905C82.5941 60.5627 82.6222 60.0007 82.2944 59.6541L82.1914 59.5417C81.6387 58.9516 81.4046 58.118 81.5732 57.3218L81.6106 57.1719C81.7137 56.6942 81.3952 56.2352 80.9269 56.1416L80.777 56.1135C79.9808 55.9636 79.3064 55.4297 78.9692 54.6897L78.913 54.5492C78.7163 54.0996 78.1824 53.9123 77.7421 54.1183L77.6016 54.1839C76.8617 54.5211 76.0093 54.493 75.3068 54.0902L75.1756 54.0153C74.7541 53.7718 74.2202 53.931 73.9767 54.3525L73.9018 54.4836C73.5083 55.1955 72.7965 55.6732 71.9816 55.7669L71.8317 55.7856C71.3446 55.8418 70.998 56.2821 71.0542 56.7598L71.073 56.9096C71.176 57.7152 70.8763 58.5207 70.2768 59.0734L70.1644 59.1764C69.8085 59.5043 69.7804 60.0663 70.1082 60.4128L70.2112 60.5252C70.7639 61.1153 70.998 61.949 70.8294 62.7452L70.7826 62.8857C70.6796 63.3634 70.998 63.8223 71.4664 63.916L71.6162 63.9441C72.4124 64.094 73.0868 64.6279 73.424 65.3679L73.4802 65.5084C73.677 65.9486 74.2109 66.1453 74.6511 65.9392L74.7916 65.8737C75.5316 65.5365 76.384 65.5646 77.0865 65.9673L77.2176 66.0423C77.6391 66.2858 78.173 66.1266 78.4166 65.7051L78.4915 65.5739C78.8943 64.8621 79.6155 64.3844 80.421 64.3001ZM77.33 64.2532C75.0258 64.8995 72.6372 63.5507 71.9909 61.2558C71.3446 58.9516 72.6934 56.5631 74.9883 55.9168C77.2925 55.2705 79.6811 56.6193 80.3274 58.9141C80.9737 61.2184 79.6342 63.6069 77.33 64.2532Z" fill="url(#paint1_linear)"/>
<path d="M78.4538 60.4128C78.3882 60.263 78.3976 60.0944 78.4725 59.9539L79.531 58.118C79.6059 57.9868 79.4935 57.8276 79.353 57.8463L77.2548 58.118C77.0956 58.1367 76.9364 58.0805 76.824 57.9587L75.4096 56.3851C75.3065 56.2727 75.1192 56.3289 75.0911 56.4694L74.7071 58.5488C74.6696 58.7081 74.5759 58.8392 74.4167 58.9048L72.4871 59.7665C72.3466 59.8227 72.3373 60.0194 72.4778 60.0944L74.3418 61.106C74.4823 61.1903 74.5853 61.3214 74.5947 61.49L74.8101 63.5976C74.8195 63.7474 75.0068 63.813 75.1192 63.7099L76.6554 62.2581C76.7771 62.1457 76.9457 62.0989 77.0956 62.127L79.1657 62.5672C79.3155 62.6047 79.4279 62.4454 79.3624 62.3143L78.4538 60.4128Z" fill="url(#paint2_linear)"/>
<path d="M85.7505 69.7796C85.5538 69.5267 84.8044 68.59 83.9989 67.569C83.6523 67.1288 83.2964 66.6792 82.9592 66.2577C82.6501 65.8643 82.3597 65.499 82.1255 65.1992C81.9944 65.0306 81.882 64.8901 81.7883 64.7683C81.779 64.759 81.7696 64.7402 81.7509 64.7309C81.704 64.6747 81.6666 64.6372 81.601 64.6372C81.5448 64.6372 81.498 64.684 81.4137 64.7215C81.32 64.7683 81.2169 64.7964 81.1139 64.8058L80.9453 64.8245C80.0367 64.9276 79.2312 65.4615 78.7816 66.267L78.7535 66.3139C78.7441 66.342 78.7347 66.3701 78.7441 66.3982L80.7861 71.1284C80.7954 71.1659 80.8423 71.1752 80.8704 71.1471C81.1233 70.8568 82.2286 69.5641 82.2754 69.5454C82.3222 69.536 85.1697 69.7889 85.6943 69.8451C85.7505 69.8451 85.7692 69.8077 85.7505 69.7796Z" fill="url(#paint3_linear)"/>
<path d="M77.3207 66.623C76.5245 66.164 75.541 66.1265 74.7073 66.5199L74.5481 66.5949C74.4263 66.6511 74.2952 66.6792 74.1734 66.6792C74.136 66.6792 74.0985 66.6792 74.0704 66.7166C74.0423 66.7541 74.0329 66.7635 74.0236 66.8197C74.0142 66.8759 73.3117 72.4023 73.1993 73.264C73.1899 73.3015 73.2461 73.3296 73.2836 73.3015L75.8782 71.3157C75.925 71.2783 75.9812 71.2689 76.0374 71.2876L78.1356 72.0276C78.173 72.037 78.2105 72.0089 78.2011 71.9714L77.3488 66.6511C77.3394 66.6511 77.33 66.6417 77.3207 66.623Z" fill="url(#paint4_linear)"/>
<g opacity="0.15">
<path opacity="0.15" d="M48.0394 30.0082H37.5205C36.8742 30.0082 36.3496 30.5327 36.3496 31.179V37.6234C36.3496 38.2697 36.8742 38.7942 37.5205 38.7942H48.0487C48.6951 38.7942 49.2196 38.2697 49.2196 37.6234V31.179C49.2102 30.5234 48.6857 30.0082 48.0394 30.0082Z" fill="#383838"/>
<path opacity="0.15" d="M48.0394 51.4487H37.5205C36.8742 51.4487 36.3496 51.9733 36.3496 52.6196V59.0639C36.3496 59.7102 36.8742 60.2348 37.5205 60.2348H48.0487C48.6951 60.2348 49.2196 59.7102 49.2196 59.0639V52.6196C49.2102 51.9639 48.6857 51.4487 48.0394 51.4487Z" fill="#383838"/>
<path opacity="0.15" d="M48.0394 40.7051H37.5205C36.8742 40.7051 36.3496 41.2296 36.3496 41.8759V48.3203C36.3496 48.9666 36.8742 49.4911 37.5205 49.4911H48.0487C48.6951 49.4911 49.2196 48.9666 49.2196 48.3203V41.8759C49.2102 41.2296 48.6857 40.7051 48.0394 40.7051Z" fill="#383838"/>
<path opacity="0.15" d="M48.0394 62.1458H37.5205C36.8742 62.1458 36.3496 62.6703 36.3496 63.3166V69.761C36.3496 70.4073 36.8742 70.9318 37.5205 70.9318H48.0487C48.6951 70.9318 49.2196 70.4073 49.2196 69.761V63.3166C49.2102 62.6703 48.6857 62.1458 48.0394 62.1458Z" fill="#383838"/>
</g>
<path d="M48.0394 28.0317H37.5205C36.8742 28.0317 36.3496 28.5563 36.3496 29.2026V35.6469C36.3496 36.2933 36.8742 36.8178 37.5205 36.8178H48.0487C48.6951 36.8178 49.2196 36.2933 49.2196 35.6469V29.2026C49.2102 28.5469 48.6857 28.0317 48.0394 28.0317Z" fill="#0078D4"/>
<path d="M48.0394 49.4724H37.5205C36.8742 49.4724 36.3496 49.997 36.3496 50.6433V57.0876C36.3496 57.7339 36.8742 58.2585 37.5205 58.2585H48.0487C48.6951 58.2585 49.2196 57.7339 49.2196 57.0876V50.6433C49.2102 49.997 48.6857 49.4724 48.0394 49.4724Z" fill="#50E6FF"/>
<path d="M48.0394 38.7286H37.5205C36.8742 38.7286 36.3496 39.2532 36.3496 39.8995V46.3439C36.3496 46.9902 36.8742 47.5147 37.5205 47.5147H48.0487C48.6951 47.5147 49.2196 46.9902 49.2196 46.3439V39.8995C49.2102 39.2532 48.6857 38.7286 48.0394 38.7286Z" fill="#3BCAF4"/>
<path d="M48.0394 60.1692H37.5205C36.8742 60.1692 36.3496 60.6937 36.3496 61.34V67.7844C36.3496 68.4307 36.8742 68.9553 37.5205 68.9553H48.0487C48.6951 68.9553 49.2196 68.4307 49.2196 67.7844V61.34C49.2102 60.6937 48.6857 60.1692 48.0394 60.1692Z" fill="#9CEBFF"/>
<path opacity="0.15" d="M39.0473 66.8665C38.3822 60.8811 33.2492 56.179 27.039 56.179C20.885 56.179 15.7988 60.7781 15.0308 66.7072C14.9277 67.1194 14.9277 67.5784 14.9277 67.9811C15.0776 69.6672 16.2578 71.3063 18.4684 72.5802C23.1893 75.2872 30.8888 75.2872 35.5534 72.5802C37.764 71.3063 38.888 69.6672 39.0473 67.9811C39.1503 67.6346 39.0941 67.2224 39.0473 66.8665Z" fill="#383838"/>
<path d="M39.0473 64.9931C38.3822 59.0077 33.2492 54.3055 27.039 54.3055C20.885 54.3055 15.7988 58.9046 15.0308 64.8338C14.9277 65.246 14.9277 65.7049 14.9277 66.1077C15.0776 67.7937 16.2578 69.4329 18.4684 70.7068C23.1893 73.4138 30.8888 73.4138 35.5534 70.7068C37.764 69.4329 38.888 67.7937 39.0473 66.1077C39.1503 65.7611 39.0941 65.349 39.0473 64.9931Z" fill="white"/>
<path d="M27.048 52.5821C31.0663 52.5821 34.3166 49.3412 34.3166 45.3509C34.3166 41.3607 31.0569 38.1198 27.048 38.1198C23.0296 38.1198 19.7793 41.3607 19.7793 45.3509C19.77 49.3505 23.0296 52.5821 27.048 52.5821Z" fill="white"/>
<defs>
<linearGradient id="paint0_linear" x1="53.0792" y1="-13.7281" x2="49.0964" y2="132.04" gradientUnits="userSpaceOnUse">
<stop stop-color="#00ABDE"/>
<stop offset="1" stop-color="#007ED8"/>
</linearGradient>
<linearGradient id="paint1_linear" x1="74.1364" y1="47.9051" x2="82.838" y2="99.2433" gradientUnits="userSpaceOnUse">
<stop stop-color="#007ED8"/>
<stop offset="0.7065" stop-color="#002D4C"/>
</linearGradient>
<linearGradient id="paint2_linear" x1="74.0894" y1="47.9134" x2="82.7909" y2="99.2515" gradientUnits="userSpaceOnUse">
<stop stop-color="#007ED8"/>
<stop offset="0.7065" stop-color="#002D4C"/>
</linearGradient>
<linearGradient id="paint3_linear" x1="78.7054" y1="47.1312" x2="87.407" y2="98.4693" gradientUnits="userSpaceOnUse">
<stop stop-color="#007ED8"/>
<stop offset="0.7065" stop-color="#002D4C"/>
</linearGradient>
<linearGradient id="paint4_linear" x1="71.5655" y1="48.0907" x2="80.3511" y2="99.9247" gradientUnits="userSpaceOnUse">
<stop stop-color="#007ED8"/>
<stop offset="0.7065" stop-color="#002D4C"/>
</linearGradient>
</defs>
</svg>
