<svg width="100" height="100" viewBox="0 0 100 100" fill="none" xmlns="http://www.w3.org/2000/svg">
<g clip-path="url(#clip0_1023_1222)">
<path d="M49.6401 96.45C40.382 96.45 31.3317 93.7047 23.6339 88.5611C15.936 83.4176 9.93624 76.1068 6.3933 67.5534C2.85036 59 1.92337 49.5881 3.72954 40.5078C5.53571 31.4276 9.99394 23.0868 16.5404 16.5403C23.0869 9.99384 31.4277 5.53562 40.5079 3.72945C49.5882 1.92327 59.0001 2.85027 67.5535 6.39321C76.1069 9.93614 83.4176 15.9359 88.5612 23.6338C93.7047 31.3316 96.4501 40.3819 96.4501 49.64C96.4505 55.7873 95.24 61.8745 92.8878 67.5539C90.5355 73.2334 87.0875 78.3938 82.7407 82.7406C78.3939 87.0874 73.2335 90.5354 67.554 92.8877C61.8746 95.2399 55.7874 96.4504 49.6401 96.45V96.45Z" fill="url(#paint0_linear_1023_1222)"/>
<path fill-rule="evenodd" clip-rule="evenodd" d="M95.54 49.64C95.54 58.7182 92.848 67.5925 87.8045 75.1407C82.7609 82.6889 75.5923 88.572 67.2052 92.0461C58.818 95.5201 49.5891 96.4291 40.6854 94.658C31.7816 92.887 23.603 88.5154 17.1838 82.0962C10.7646 75.677 6.39302 67.4984 4.62196 58.5946C2.85089 49.6909 3.75987 40.462 7.23393 32.0748C10.708 23.6877 16.5911 16.5191 24.1393 11.4755C31.6875 6.43199 40.5618 3.74 49.64 3.74C55.6677 3.73998 61.6363 4.9272 67.2052 7.23388C72.774 9.54057 77.834 12.9215 82.0963 17.1837C86.3585 21.446 89.7394 26.5059 92.0461 32.0748C94.3528 37.6437 95.54 43.6123 95.54 49.64V49.64ZM49.64 3.62732e-07C59.4579 3.62732e-07 69.0553 2.91134 77.2185 8.36585C85.3818 13.8204 91.7442 21.5731 95.5014 30.6436C99.2585 39.7141 100.242 49.6951 98.3262 59.3243C96.4108 68.9535 91.6831 77.7985 84.7408 84.7408C77.7985 91.6831 68.9535 96.4108 59.3243 98.3262C49.6951 100.242 39.7141 99.2585 30.6436 95.5014C21.5731 91.7442 13.8204 85.3818 8.36585 77.2185C2.91134 69.0553 3.62732e-07 59.4579 3.62732e-07 49.64C-0.000787738 43.121 1.28265 36.6656 3.77702 30.6427C6.27138 24.6197 9.9278 19.1471 14.5375 14.5375C19.1471 9.9278 24.6197 6.27138 30.6427 3.77702C36.6656 1.28265 43.121 -0.000787738 49.64 3.62732e-07V3.62732e-07Z" fill="#F2F1F0"/>
<path fill-rule="evenodd" clip-rule="evenodd" d="M92.7296 49.6401C92.7296 58.1625 90.2024 66.4935 85.4676 73.5796C80.7328 80.6657 74.0031 86.1887 66.1294 89.4501C58.2557 92.7114 49.5918 93.5648 41.2331 91.9021C32.8745 90.2395 25.1966 86.1356 19.1703 80.1093C13.1441 74.0831 9.04017 66.4052 7.37753 58.0465C5.7149 49.6879 6.56822 41.0239 9.8296 33.1503C13.091 25.2766 18.6139 18.5469 25.7 13.8121C32.7862 9.07727 41.1172 6.55009 49.6396 6.55009C55.2983 6.54974 60.9017 7.66407 66.1298 9.82942C71.3579 11.9948 76.1082 15.1687 80.1096 19.1701C84.1109 23.1714 87.2849 27.9218 89.4502 33.1499C91.6156 38.3779 92.7299 43.9813 92.7296 49.6401V49.6401ZM49.6396 2.81009C58.9017 2.81009 67.9558 5.55662 75.6569 10.7024C83.3581 15.8481 89.3604 23.162 92.9049 31.719C96.4493 40.2761 97.3767 49.692 95.5697 58.7762C93.7628 67.8603 89.3027 76.2046 82.7534 82.7539C76.2041 89.3032 67.8598 93.7633 58.7757 95.5703C49.6915 97.3772 40.2756 96.4498 31.7185 92.9054C23.1614 89.3609 15.8476 83.3586 10.7018 75.6574C5.5561 67.9563 2.80957 58.9022 2.80957 49.6401C2.81076 37.2204 7.745 25.3097 16.5271 16.5276C25.3091 7.7455 37.2198 2.81125 49.6396 2.81006V2.81009Z" fill="#0078D4"/>
<path fill-rule="evenodd" clip-rule="evenodd" d="M92.7637 49.6401C92.7637 58.1625 90.2366 66.4935 85.5018 73.5796C80.767 80.6657 74.0372 86.1887 66.1636 89.4501C58.2899 92.7114 49.6259 93.5648 41.2673 91.9021C32.9087 90.2395 25.2308 86.1356 19.2045 80.1093C13.1783 74.0831 9.07435 66.4052 7.41171 58.0465C5.74908 49.6879 6.6024 41.0239 9.86378 33.1503C13.1252 25.2766 18.6481 18.5469 25.7342 13.8121C32.8203 9.07727 41.1514 6.55009 49.6738 6.55009C55.3325 6.54974 60.9359 7.66407 66.164 9.82942C71.3921 11.9948 76.1424 15.1687 80.1437 19.1701C84.1451 23.1714 87.3191 27.9218 89.4844 33.1499C91.6498 38.3779 92.7641 43.9813 92.7637 49.6401V49.6401ZM49.6738 2.81009C58.9359 2.81009 67.9899 5.55662 75.6911 10.7024C83.3923 15.8481 89.3946 23.162 92.939 31.719C96.4835 40.2761 97.4109 49.692 95.6039 58.7762C93.797 67.8603 89.3369 76.2046 82.7876 82.7539C76.2383 89.3032 67.894 93.7633 58.8098 95.5703C49.7257 97.3772 40.3097 96.4498 31.7527 92.9054C23.1956 89.3609 15.8818 83.3586 10.736 75.6574C5.59028 67.9563 2.84375 58.9022 2.84375 49.6401C2.84494 37.2204 7.77918 25.3097 16.5612 16.5276C25.3433 7.7455 37.254 2.81125 49.6738 2.81006V2.81009Z" fill="#0078D4"/>
<path d="M57.8731 70.0361L53.6913 42.2065L42.0507 33.6073L25.6061 36.0783C24.936 36.181 24.3338 36.5447 23.931 37.0899C23.5282 37.6352 23.3576 38.3177 23.4564 38.9884L28.7785 74.4078C28.8812 75.0779 29.2449 75.6802 29.7902 76.083C30.3354 76.4858 31.0179 76.6565 31.6886 76.5577L55.7233 72.9462C56.3934 72.8436 56.9957 72.4799 57.3985 71.9346C57.8013 71.3893 57.972 70.7067 57.8731 70.0361Z" fill="#0078D4"/>
<path d="M40.8289 70.0361L45.0107 42.2066L56.6513 33.6074L73.0959 36.0784C73.766 36.181 74.3682 36.5447 74.771 37.09C75.1738 37.6353 75.3445 38.3178 75.2457 38.9884L69.9235 74.4078C69.8208 75.0779 69.4571 75.6802 68.9119 76.083C68.3666 76.4858 67.6841 76.6565 67.0134 76.5577L42.9787 72.9462C42.3086 72.8436 41.7063 72.4799 41.3035 71.9346C40.9007 71.3893 40.7301 70.7068 40.8289 70.0361V70.0361Z" fill="#0078D4"/>
<path fill-rule="evenodd" clip-rule="evenodd" d="M32.3564 20.7403C31.4083 20.7431 30.4999 21.1209 29.8295 21.7913C29.1592 22.4617 28.7813 23.3701 28.7786 24.3181V74.4078C28.7813 75.3559 29.1592 76.2643 29.8295 76.9347C30.4999 77.6051 31.4083 77.9829 32.3564 77.9857H66.3458C67.2939 77.983 68.2024 77.6053 68.8728 76.9348C69.5432 76.2644 69.921 75.3559 69.9236 74.4078V35.0517L55.6123 20.7403H32.3564Z" fill="white"/>
<path fill-rule="evenodd" clip-rule="evenodd" d="M59.1901 35.0517H69.9236L55.6123 20.7403V31.4738C55.6151 32.4219 55.9929 33.3303 56.6633 34.0007C57.3337 34.671 58.2421 35.0489 59.1901 35.0517V35.0517Z" fill="#E8E8E8"/>
<path d="M36.2886 29.3654H44.3076" stroke="#E8E8E8" stroke-width="2" stroke-miterlimit="10" stroke-linecap="round"/>
<path d="M36.2886 33.6073H47.5511" stroke="#E8E8E8" stroke-width="2" stroke-miterlimit="10" stroke-linecap="round"/>
<path d="M37.4012 46.298C36.8116 46.2998 36.2466 46.5348 35.8297 46.9517C35.4128 47.3686 35.1778 47.9336 35.176 48.5232V64.0994H64.1032V48.5232C64.1015 47.9336 63.8665 47.3686 63.4496 46.9517C63.0326 46.5348 62.4676 46.2998 61.878 46.298H37.4012ZM61.878 47.4106C62.173 47.411 62.4557 47.5284 62.6643 47.7369C62.8729 47.9455 62.9902 48.2283 62.9906 48.5232V62.9868H36.2886V48.5232C36.2889 48.2282 36.4062 47.9454 36.6148 47.7368C36.8234 47.5282 37.1062 47.4109 37.4012 47.4106H61.878Z" fill="url(#paint1_linear_1023_1222)"/>
<path d="M36.2886 48.5232C36.2889 48.2282 36.4062 47.9454 36.6148 47.7368C36.8234 47.5282 37.1062 47.4109 37.4012 47.4106H61.878C62.1729 47.411 62.4557 47.5284 62.6643 47.7369C62.8728 47.9455 62.9902 48.2283 62.9906 48.5232V62.9868H36.2886L36.2886 48.5232Z" fill="url(#paint2_linear_1023_1222)"/>
<path d="M31.8381 64.0994V64.6557C31.8399 65.2453 32.0749 65.8103 32.4918 66.2272C32.9087 66.6441 33.4737 66.8791 34.0633 66.8809H65.2156C65.8053 66.8791 66.3702 66.6441 66.7872 66.2272C67.2041 65.8103 67.4391 65.2453 67.4408 64.6557V64.0994H31.8381Z" fill="url(#paint3_linear_1023_1222)"/>
<path fill-rule="evenodd" clip-rule="evenodd" d="M47.4143 65.212H51.8647C52.1597 65.2119 52.4426 65.0946 52.6513 64.886C52.8599 64.6774 52.9771 64.3945 52.9773 64.0994H46.3018C46.3018 64.3945 46.419 64.6775 46.6276 64.8861C46.8363 65.0948 47.1193 65.212 47.4143 65.212V65.212Z" fill="#003067"/>
<path fill-rule="evenodd" clip-rule="evenodd" d="M49.6397 60.8166C48.5851 60.8166 47.5542 60.5039 46.6774 59.918C45.8005 59.3322 45.1171 58.4994 44.7135 57.5251C44.3099 56.5508 44.2043 55.4787 44.4101 54.4444C44.6158 53.4101 45.1236 52.46 45.8693 51.7143C46.615 50.9686 47.5651 50.4608 48.5994 50.255C49.6337 50.0493 50.7058 50.1549 51.6801 50.5585C52.6544 50.9621 53.4872 51.6455 54.0731 52.5224C54.6589 53.3992 54.9716 54.4301 54.9716 55.4847C54.9716 56.8988 54.4098 58.255 53.4099 59.2549C52.41 60.2548 51.0538 60.8166 49.6397 60.8166Z" fill="white"/>
<path fill-rule="evenodd" clip-rule="evenodd" d="M52.089 54.0057C51.9639 53.8807 51.7943 53.8104 51.6174 53.8104C51.4406 53.8104 51.271 53.8807 51.1459 54.0057L48.9474 56.2025L48.1534 55.416C48.1348 55.3884 48.1138 55.3626 48.0907 55.3387C47.9664 55.2143 47.798 55.1441 47.6222 55.1433C47.4464 55.1425 47.2774 55.2113 47.152 55.3345C47.0266 55.4578 46.9551 55.6257 46.9529 55.8015C46.9508 55.9773 47.0182 56.1469 47.1405 56.2732L47.1325 56.2812L48.4779 57.6142C48.6031 57.7392 48.7727 57.8094 48.9496 57.8094C49.1265 57.8094 49.2961 57.7392 49.4213 57.6142L52.087 54.9497L52.089 54.9481C52.1509 54.8863 52.2001 54.8128 52.2336 54.7319C52.2671 54.6511 52.2843 54.5644 52.2843 54.4769C52.2843 54.3894 52.2671 54.3027 52.2336 54.2218C52.2001 54.141 52.1509 54.0675 52.089 54.0057V54.0057Z" fill="#0078D4"/>
</g>
<defs>
<linearGradient id="paint0_linear_1023_1222" x1="47.8697" y1="-15.1531" x2="51.8525" y2="130.615" gradientUnits="userSpaceOnUse">
<stop stop-color="#00ABDE"/>
<stop offset="1" stop-color="#007ED8"/>
</linearGradient>
<linearGradient id="paint1_linear_1023_1222" x1="49.6396" y1="64.0994" x2="49.6396" y2="46.2661" gradientUnits="userSpaceOnUse">
<stop stop-color="#003067"/>
<stop offset="0.16493" stop-color="#003F7C"/>
<stop offset="0.36216" stop-color="#004F90"/>
<stop offset="0.68089" stop-color="#00589D"/>
<stop offset="1" stop-color="#005BA1"/>
</linearGradient>
<linearGradient id="paint2_linear_1023_1222" x1="49.6396" y1="62.9868" x2="49.6396" y2="47.3827" gradientUnits="userSpaceOnUse">
<stop stop-color="#005BA1"/>
<stop offset="0.26" stop-color="#00589D"/>
<stop offset="0.53" stop-color="#004F90"/>
<stop offset="0.8" stop-color="#003F7C"/>
<stop offset="1" stop-color="#003067"/>
</linearGradient>
<linearGradient id="paint3_linear_1023_1222" x1="49.6395" y1="66.8809" x2="49.6395" y2="64.0994" gradientUnits="userSpaceOnUse">
<stop stop-color="#004DAE"/>
<stop offset="0.21" stop-color="#0061C4"/>
<stop offset="0.51" stop-color="#0078DD"/>
<stop offset="0.78" stop-color="#0086EC"/>
<stop offset="1" stop-color="#008BF1"/>
</linearGradient>
<clipPath id="clip0_1023_1222">
<rect width="99.2799" height="99.28" fill="white"/>
</clipPath>
</defs>
</svg>
