<svg width="103" height="103" viewBox="0 0 103 103" fill="none" xmlns="http://www.w3.org/2000/svg">
<path d="M51.7499 98.4823C25.8999 98.4823 4.93994 77.5323 4.93994 51.6723C4.93994 25.8123 25.8999 4.8623 51.7499 4.8623C77.5999 4.8623 98.5599 25.8223 98.5599 51.6723C98.5599 77.5223 77.5999 98.4823 51.7499 98.4823Z" fill="url(#paint0_linear)"/>
<path fill-rule="evenodd" clip-rule="evenodd" d="M97.6501 51.6722C97.6501 77.0222 77.1001 97.5722 51.7501 97.5722C26.4001 97.5722 5.85011 77.0222 5.85011 51.6722C5.85011 26.3222 26.4001 5.77223 51.7501 5.77223C77.1001 5.77223 97.6501 26.3222 97.6501 51.6722ZM51.7501 2.03223C79.1701 2.03223 101.39 24.2522 101.39 51.6722C101.39 79.0922 79.1601 101.312 51.7501 101.312C24.3301 101.312 2.11011 79.0822 2.11011 51.6722C2.11011 24.2522 24.3301 2.03223 51.7501 2.03223Z" fill="#F2F1F0"/>
<path fill-rule="evenodd" clip-rule="evenodd" d="M94.8399 51.6718C94.8399 75.4718 75.5499 94.7618 51.7499 94.7618C27.9499 94.7618 8.65992 75.4718 8.65992 51.6718C8.65992 27.8718 27.9499 8.5818 51.7499 8.5818C75.5499 8.5818 94.8399 27.8718 94.8399 51.6718ZM51.7499 4.8418C77.6099 4.8418 98.5799 25.8118 98.5799 51.6718C98.5799 77.5318 77.6099 98.5018 51.7499 98.5018C25.8899 98.5018 4.91992 77.5318 4.91992 51.6718C4.91992 25.8118 25.8799 4.8418 51.7499 4.8418Z" fill="url(#paint1_linear)"/>
<path opacity="0.4" d="M25.8 62.982C20.28 62.982 15.8 58.502 15.8 52.982C15.8 47.942 19.53 43.792 24.39 43.132C24.01 41.572 23.78 39.922 23.78 38.232C23.83 27.202 32.74 18.292 43.78 18.292C51.38 18.292 57.9801 22.582 61.3801 28.852C63.0301 28.052 64.9201 27.582 66.9001 27.582C73.7901 27.582 79.4001 33.192 79.4001 40.072C79.4001 41.112 79.26 42.142 79.02 43.132C79.4 43.082 79.77 43.082 80.15 43.082C85.62 43.032 90.1 47.472 90.1 52.982C90.1 58.502 85.62 62.982 80.1 62.982H25.8Z" fill="url(#paint2_linear)"/>
<path fill-rule="evenodd" clip-rule="evenodd" d="M24.53 38.2337C24.5302 39.8554 24.751 41.445 25.1187 42.9545L25.3157 43.7632L24.491 43.8752C19.9978 44.4853 16.55 48.3222 16.55 52.982C16.55 58.0878 20.6943 62.232 25.8 62.232H80.1C85.2058 62.232 89.35 58.0878 89.35 52.982C89.35 47.8868 85.208 43.7858 80.1569 43.832L80.15 43.832C79.7627 43.832 79.4414 43.833 79.1179 43.8756L78.0335 44.0183L78.2912 42.9553C78.519 42.0155 78.6501 41.0451 78.6501 40.072C78.6501 33.6066 73.3762 28.332 66.9001 28.332C65.0384 28.332 63.2598 28.7741 61.7073 29.5269L61.0624 29.8395L60.7207 29.2095C57.4444 23.1675 51.0895 19.042 43.78 19.042C33.1552 19.042 24.5791 27.6156 24.53 38.2337ZM23.0301 38.2286C23.0819 26.7874 32.3254 17.542 43.78 17.542C51.4218 17.542 58.083 21.72 61.6962 27.886C63.2847 27.217 65.0549 26.832 66.9001 26.832C74.2039 26.832 80.1501 32.7774 80.1501 40.072C80.1501 40.8372 80.0789 41.5941 79.9516 42.3322C80.0124 42.332 80.0721 42.332 80.1308 42.332H80.1466C86.034 42.28 90.85 47.0583 90.85 52.982C90.85 58.9162 86.0343 63.732 80.1 63.732H25.8C19.8658 63.732 15.05 58.9162 15.05 52.982C15.05 47.8432 18.6565 43.5647 23.4852 42.5293C23.1988 41.1512 23.03 39.7085 23.03 38.232L23.0301 38.2286Z" fill="white"/>
<path opacity="0.15" d="M58.4001 61.6426L77.4501 72.7226L58.3401 83.8026L39.3301 72.7226L58.4001 61.6426Z" fill="#1F1D20"/>
<path d="M58.3401 59.7323V81.8723L39.3301 70.7323V48.6523L58.3401 59.7323Z" fill="#32B0E7"/>
<path d="M58.4001 37.5723L77.4501 48.6523L58.3401 59.7323L39.3301 48.6523L58.4001 37.5723Z" fill="#45CAF2"/>
<path d="M77.4501 48.6523V70.7323L58.3401 81.8723V59.7323L77.4501 48.6523Z" fill="#156AB3"/>
<path d="M58.3401 81.8724V59.7324L77.4501 70.7324L58.3401 81.8724Z" fill="#185A97"/>
<path d="M58.3401 81.8724V59.7324L39.3301 70.7324L58.3401 81.8724Z" fill="#0078D4"/>
<path opacity="0.15" d="M49.54 38.1821L22.47 37.9621C21.88 37.9521 21.41 38.4221 21.41 39.0121L21.12 74.3421C21.11 74.9321 21.58 75.4021 22.17 75.4021L49.24 75.6221C49.83 75.6321 50.3 75.1621 50.3 74.5721L50.59 39.2421C50.59 38.6621 50.12 38.1821 49.54 38.1821Z" fill="#1F1D20"/>
<path d="M49.55 37.062L22.48 36.842C21.89 36.832 21.42 37.302 21.42 37.892L21.12 73.222C21.11 73.812 21.58 74.282 22.17 74.282L49.24 74.502C49.83 74.512 50.3 74.042 50.3 73.452L50.59 38.122C50.59 37.542 50.13 37.072 49.55 37.062Z" fill="#F2F2F2"/>
<path fill-rule="evenodd" clip-rule="evenodd" d="M37.27 32.952C38.04 33.362 38.48 34.192 38.48 35.052V35.262C38.48 35.342 38.47 35.412 38.47 35.492L40.13 35.502C40.62 35.512 41.09 35.752 41.34 36.192C42.03 37.422 41.15 38.672 40 38.662L31.61 38.602C31.12 38.592 30.65 38.352 30.4 37.912C29.71 36.682 30.59 35.432 31.74 35.442L33.29 35.452C33.28 35.382 33.28 35.302 33.28 35.222V35.152C33.29 33.282 35.29 31.892 37.27 32.952Z" fill="#243A5E"/>
<path d="M35.8499 36.4019C36.4399 36.4119 36.93 35.9319 36.93 35.3419C36.94 34.7519 36.4599 34.2619 35.8699 34.2619C35.2799 34.2519 34.79 34.7319 34.79 35.3219C34.78 35.9119 35.2499 36.3919 35.8499 36.4019Z" fill="#F2F2F2"/>
<path d="M35.45 45.9922L43.85 60.2822C43.85 60.2822 27.75 60.2222 27.9 60.0222C28.04 59.8222 35.45 45.9922 35.45 45.9922Z" fill="white"/>
<path d="M45.48 59.9617L36.6 45.3817C36.22 44.7617 35.3 44.7617 34.93 45.3917L26.23 59.9717C25.84 60.6217 26.31 61.4417 27.07 61.4417H44.65C45.4 61.4417 45.87 60.6117 45.48 59.9617ZM29.08 59.2817L35.82 47.6617L42.65 59.2817H29.08Z" fill="#E81E25"/>
<path d="M35.8601 58.5013C35.6401 58.5013 35.4601 58.4313 35.3101 58.2913C35.1601 58.1513 35.0801 57.9813 35.0801 57.7813C35.0801 57.5813 35.1601 57.4013 35.3101 57.2513C35.4601 57.1113 35.6501 57.0313 35.8601 57.0313C36.0701 57.0313 36.2501 57.1013 36.4101 57.2513C36.5601 57.3913 36.6401 57.5713 36.6401 57.7813C36.6401 57.9813 36.5601 58.1513 36.4101 58.2913C36.2501 58.4313 36.0701 58.5013 35.8601 58.5013ZM36.4601 50.6113L36.3601 56.1013H35.3301L35.1901 50.6113H36.4601Z" fill="black"/>
<path d="M46.8599 80.8517C52.4899 80.8517 57.0499 76.2817 57.0499 70.6617C57.0499 65.0417 52.4799 60.4717 46.8599 60.4717C41.2299 60.4717 36.6699 65.0417 36.6699 70.6617C36.6699 76.2917 41.2299 80.8517 46.8599 80.8517Z" fill="#002D4C"/>
<path d="M52.3998 65.4717L43.9998 73.9017L41.4898 71.3717L39.8098 73.0617L44.0098 77.2717L54.0998 67.1517L52.3998 65.4717Z" fill="#FAF9F8"/>
<defs>
<linearGradient id="paint0_linear" x1="49.98" y1="-13.1172" x2="53.962" y2="132.653" gradientUnits="userSpaceOnUse">
<stop stop-color="#00ABDE"/>
<stop offset="1" stop-color="#007ED8"/>
</linearGradient>
<linearGradient id="paint1_linear" x1="3.18262" y1="-19.9527" x2="98.7096" y2="120.929" gradientUnits="userSpaceOnUse">
<stop stop-color="#007ED8"/>
<stop offset="0.7065" stop-color="#002D4C"/>
</linearGradient>
<linearGradient id="paint2_linear" x1="51.316" y1="-13.0584" x2="53.2784" y2="66.4997" gradientUnits="userSpaceOnUse">
<stop offset="0.5727" stop-color="white" stop-opacity="0"/>
<stop offset="0.7823" stop-color="white" stop-opacity="0.4301"/>
<stop offset="0.9044" stop-color="white" stop-opacity="0.5"/>
<stop offset="0.9273" stop-color="white"/>
</linearGradient>
</defs>
</svg>
