<svg width="181" height="191" viewBox="0 0 181 191" fill="none" xmlns="https://www.w3.org/2000/svg">
<path d="M90.0306 189.02C93.0906 189.02 96.1006 188.17 98.7606 186.55L160.731 148.89C166.271 145.52 169.701 139.19 169.701 132.35V57.6396C169.701 50.8196 166.271 44.4796 160.731 41.0996L98.7606 3.4396C93.4306 0.199596 86.6106 0.219596 81.3106 3.4396L19.3406 41.1196C13.8006 44.4896 10.3506 50.8196 10.3506 57.6596V132.36C10.3506 138.12 12.8006 143.54 16.9006 147.11V147.14L81.3106 186.57C83.9506 188.17 86.9706 189.02 90.0306 189.02ZM90.6806 7.9696C92.6306 7.9696 95.1106 9.1796 96.8206 10.2296L157.581 47.4196C161.331 49.6996 163.451 56.2996 163.451 61.0496L162.821 132.35C162.821 137.1 159.621 141.37 155.871 143.65L95.4706 180.03C92.0406 182.12 89.2506 182.12 85.8106 180.03L24.6006 143.56C20.8506 141.28 17.8306 137.08 17.8306 132.35V58.7096C17.8306 53.9696 20.5606 49.0796 24.3306 46.7896L84.9106 10.2296C86.6106 9.1896 88.7306 7.9696 90.6806 7.9696Z" fill="#F2F1F0"/>
<path fill-rule="evenodd" clip-rule="evenodd" d="M97.9301 11.5496C95.4801 10.0496 92.7601 9.29956 90.0301 9.29956C87.3001 9.29956 84.5801 10.0596 82.1301 11.5496L26.0001 45.8796C20.9801 48.9496 17.8701 54.6996 17.8701 60.9496V129.05C17.8701 135.28 20.9701 141.05 26.0001 144.12L82.1301 178.45C84.5801 179.95 87.3001 180.7 90.0301 180.7C92.7601 180.7 95.4801 179.96 97.9301 178.45L154.06 144.12C159.08 141.05 162.19 135.28 162.19 129.05V60.9496C162.19 54.7196 159.09 48.9696 154.06 45.8796L97.9301 11.5496Z" fill="url(#paint0_linear)"/>
<path fill-rule="evenodd" clip-rule="evenodd" d="M90.0301 10.7695C91.7101 10.7695 93.6001 11.6395 95.6601 12.8895L154.13 48.4295C157.78 50.6495 160.19 54.9195 160.19 59.7495V130.23C160.19 135.05 157.78 139.33 154.13 141.55L95.6701 177.09C93.7101 178.28 91.7901 179.03 90.0401 179.03C88.2901 179.03 86.3701 178.28 84.4101 177.09L25.9301 141.56C23.9201 140.33 22.4701 139.13 21.4901 137.52C20.5101 135.92 19.8701 133.7 19.8701 130.24V59.7595C19.8701 54.9295 22.2801 50.6595 25.9301 48.4395L84.3901 12.8995C86.4801 11.6495 88.3401 10.7695 90.0301 10.7695ZM97.7401 180.52L156.2 144.98C161.12 141.99 164.18 136.37 164.18 130.24V59.7595C164.18 53.6295 161.12 48.0095 156.2 45.0195L97.7401 9.47953C95.6301 8.19953 92.9201 6.76953 90.0301 6.76953C87.1301 6.76953 84.4201 8.20953 82.3301 9.46953H82.3201L23.8501 45.0195C18.9301 48.0095 15.8701 53.6295 15.8701 59.7595V130.24C15.8701 134.2 16.6101 137.19 18.0701 139.6C19.5301 142 21.5901 143.6 23.8501 144.97L82.3101 180.51C84.5301 181.86 87.2001 183.04 90.0201 183.04C92.8401 183.04 95.5201 181.87 97.7401 180.52Z" fill="url(#paint1_linear)"/>
<path opacity="0.15" d="M149.06 89.6995C149.06 88.3795 147.98 87.3095 146.67 87.3095C145.81 87.3095 140.43 86.8395 137.55 84.5895C137.55 84.5895 137.57 84.5595 137.55 84.5895C136.46 80.6195 134.86 76.8995 132.89 73.3795C132.39 70.0395 135.84 67.6095 137.42 65.0095C137.7 64.5495 137.86 64.2895 137.96 64.1095C138.25 63.2595 138.09 62.2895 137.42 61.6195C137.42 61.6195 134.77 57.8195 132.04 55.1195C129.31 52.4195 125.2 49.3995 125.2 49.3995C124.27 48.4695 122.74 48.4695 121.81 49.3995C121.19 49.9995 117.1 53.3695 113.42 53.9095C113.37 53.9095 113.37 53.9095 113.37 53.9095C109.95 51.9695 106.11 50.3795 102.25 49.2795H102.2C99.4796 47.2795 100.2 43.1195 99.4796 40.1595C99.4796 38.8395 98.3996 37.7695 97.0896 37.7695C97.0896 37.7695 92.5296 36.9695 88.6896 36.9695C84.8496 36.9695 79.8096 37.7695 79.8096 37.7695C78.4896 37.7695 77.4196 38.8495 77.4196 40.1595C77.4196 41.0195 76.9496 46.3995 74.6996 49.2795C70.8896 50.3595 66.8796 52.0495 63.4896 53.9395C60.1496 54.4395 57.7196 50.9895 55.1196 49.4095C54.6596 49.1295 54.3996 48.9695 54.2196 48.8695C53.3696 48.5795 52.3996 48.7395 51.7296 49.4095C51.7296 49.4095 47.9296 52.0595 45.2296 54.7895C42.5296 57.5195 39.5096 61.6295 39.5096 61.6295C38.5796 62.5595 38.5796 64.0895 39.5096 65.0195C40.1096 65.6195 43.5796 69.7795 44.0396 73.3895V73.4195C42.1496 76.8095 40.4896 80.7995 39.4096 84.6095C39.4096 84.6095 39.4596 84.5395 39.4096 84.6095C37.0796 87.4395 33.2496 86.6095 30.2896 87.3295C28.9696 87.3295 27.8996 88.4095 27.8996 89.7195C27.8996 89.7195 27.0996 94.2795 27.0996 98.1195C27.0996 101.959 27.8996 106.999 27.8996 106.999C27.8996 108.319 28.9796 109.389 30.2896 109.389C31.1496 109.389 36.5296 109.859 39.4096 112.109C39.4796 112.079 39.4396 112.159 39.4396 112.159C40.5496 115.989 42.1296 119.819 44.0496 123.199C44.0196 123.249 44.0496 123.199 44.0696 123.309C44.3996 126.799 41.1196 129.079 39.5396 131.679C39.2596 132.139 39.0996 132.399 38.9996 132.579C38.7096 133.429 38.8696 134.399 39.5396 135.069C39.5396 135.069 42.1896 138.869 44.9196 141.569C47.6396 144.289 51.7596 147.289 51.7596 147.289C52.6896 148.219 54.2196 148.219 55.1496 147.289C55.7496 146.689 59.9096 143.219 63.5196 142.759C63.5196 142.759 63.4996 142.779 63.5696 142.789C67.0596 144.729 70.6596 146.259 74.5996 147.329C74.6296 147.349 74.7496 147.379 74.7496 147.379C77.4696 149.379 76.7496 153.539 77.4696 156.499C77.6196 157.839 78.3496 158.679 79.8596 158.889C79.8596 158.889 84.4196 159.689 88.2596 159.689C92.0996 159.689 97.1396 158.909 97.1396 158.909C98.4596 158.679 99.5296 157.839 99.5296 156.519C99.5296 155.659 99.9996 150.279 102.25 147.399C102.25 147.399 102.35 147.319 102.45 147.239C106.46 146.119 109.5 144.879 113.04 142.839C113.22 142.769 113.02 142.789 113.45 142.729C116.79 142.229 119.22 145.679 121.82 147.259C122.28 147.539 122.54 147.699 122.72 147.799C123.57 148.089 124.54 147.929 125.21 147.259C125.21 147.259 129.01 144.609 131.71 141.879C134.43 139.159 137.43 135.039 137.43 135.039C138.36 134.109 138.36 132.579 137.43 131.649C136.83 131.049 133.36 126.889 132.9 123.279C132.85 122.909 132.88 122.859 132.93 122.759C134.95 119.189 136.22 116.589 137.33 112.549C137.33 112.549 137.28 112.419 137.54 112.079C139.54 109.359 143.7 110.079 146.66 109.359C147.98 109.359 149.05 108.279 149.05 106.969C149.05 106.969 149.85 102.409 149.85 98.5695C149.84 94.7295 149.06 89.6995 149.06 89.6995Z" fill="#1F1D20"/>
<path d="M149.06 86.4395C149.06 85.1195 147.98 84.0495 146.67 84.0495C145.81 84.0495 140.43 83.5795 137.55 81.3295C137.55 81.3295 137.57 81.2995 137.55 81.3295C136.46 77.3595 134.86 73.6395 132.89 70.1195C132.39 66.7795 135.84 64.3495 137.42 61.7495C137.7 61.2895 137.86 61.0295 137.96 60.8495C138.25 59.9995 138.09 59.0295 137.42 58.3595C137.42 58.3595 134.77 54.5595 132.04 51.8595C129.32 49.1595 125.2 46.1395 125.2 46.1395C124.27 45.2095 122.74 45.2095 121.81 46.1395C121.19 46.7395 117.1 50.1095 113.42 50.6495C113.37 50.6495 113.37 50.6495 113.37 50.6495C109.95 48.7095 106.11 47.1195 102.25 46.0195H102.2C99.4796 44.0195 100.2 39.8595 99.4796 36.8995C99.4796 35.5795 98.3996 34.5095 97.0896 34.5095C97.0896 34.5095 92.5296 33.7095 88.6896 33.7095C84.8496 33.7095 79.8096 34.5095 79.8096 34.5095C78.4896 34.5095 77.4196 35.5895 77.4196 36.8995C77.4196 37.7595 76.9496 43.1395 74.6996 46.0195C70.8896 47.0995 66.8796 48.7895 63.4896 50.6795C60.1496 51.1795 57.7196 47.7295 55.1196 46.1495C54.6596 45.8695 54.3996 45.7095 54.2196 45.6095C53.3696 45.3195 52.3996 45.4795 51.7296 46.1495C51.7296 46.1495 47.9296 48.7995 45.2296 51.5295C42.5296 54.2495 39.5096 58.3695 39.5096 58.3695C38.5796 59.2995 38.5796 60.8295 39.5096 61.7595C40.1096 62.3595 43.5796 66.5195 44.0396 70.1295V70.1595C42.1496 73.5495 40.4896 77.5395 39.4096 81.3495C39.4096 81.3495 39.4596 81.2795 39.4096 81.3495C37.0796 84.1795 33.2496 83.3495 30.2896 84.0695C28.9696 84.0695 27.8996 85.1495 27.8996 86.4595C27.8996 86.4595 27.0996 91.0195 27.0996 94.8595C27.0996 98.6995 27.8996 103.739 27.8996 103.739C27.8996 105.059 28.9796 106.129 30.2896 106.129C31.1496 106.129 36.5296 106.599 39.4096 108.849C39.4796 108.819 39.4396 108.899 39.4396 108.899C40.5496 112.729 42.1296 116.559 44.0496 119.939C44.0196 119.989 44.0496 119.939 44.0696 120.049C44.3996 123.539 41.1196 125.819 39.5396 128.419C39.2596 128.879 39.0996 129.139 38.9996 129.319C38.7096 130.169 38.8696 131.139 39.5396 131.809C39.5396 131.809 42.1896 135.609 44.9196 138.309C47.6396 141.029 51.7596 144.029 51.7596 144.029C52.6896 144.959 54.2196 144.959 55.1496 144.029C55.7496 143.429 59.9096 139.959 63.5196 139.499C63.5196 139.499 63.4996 139.519 63.5696 139.529C67.0596 141.469 70.6596 142.999 74.5996 144.069C74.6296 144.089 74.7496 144.119 74.7496 144.119C77.4696 146.119 76.7496 150.279 77.4696 153.239C77.6196 154.579 78.3496 155.419 79.8596 155.629C79.8596 155.629 84.4196 156.429 88.2596 156.429C92.0996 156.429 97.1396 155.649 97.1396 155.649C98.4596 155.419 99.5296 154.569 99.5296 153.259C99.5296 152.399 99.9996 147.019 102.25 144.139C102.25 144.139 102.35 144.059 102.45 143.979C106.46 142.859 109.5 141.619 113.04 139.579C113.22 139.509 113.02 139.529 113.45 139.469C116.79 138.969 119.22 142.419 121.82 143.999C122.28 144.279 122.54 144.439 122.72 144.539C123.57 144.829 124.54 144.669 125.21 143.999C125.21 143.999 129.01 141.349 131.71 138.619C134.43 135.899 137.43 131.779 137.43 131.779C138.36 130.849 138.36 129.319 137.43 128.389C136.83 127.789 133.36 123.629 132.9 120.019C132.85 119.649 132.88 119.599 132.93 119.499C134.95 115.929 136.22 113.329 137.33 109.289C137.33 109.289 137.28 109.159 137.54 108.819C139.54 106.099 143.7 106.819 146.66 106.099C147.98 106.099 149.05 105.019 149.05 103.709C149.05 103.709 149.85 99.1495 149.85 95.3095C149.85 91.4695 149.06 86.4395 149.06 86.4395Z" fill="#F2F1F0"/>
<g opacity="0.15">
<path opacity="0.15" d="M110.629 88.9895V86.7695C110.629 86.1695 110.149 85.6895 109.549 85.6895C108.949 85.6895 108.469 86.1695 108.469 86.7695V88.9895C108.469 89.5895 108.949 90.0695 109.549 90.0695C110.149 90.0695 110.629 89.5795 110.629 88.9895Z" fill="#1F1D20"/>
<path opacity="0.15" d="M106.359 88.9895V88.5395C106.359 87.9395 105.879 87.4595 105.279 87.4595C104.679 87.4595 104.199 87.9395 104.199 88.5395V88.9895C104.199 89.5895 104.679 90.0695 105.279 90.0695C105.879 90.0695 106.359 89.5795 106.359 88.9895Z" fill="#1F1D20"/>
<path opacity="0.15" d="M114.999 88.9996V84.6296C114.999 84.0296 114.519 83.5496 113.919 83.5496C113.319 83.5496 112.839 84.0296 112.839 84.6296V88.9896C112.839 89.5896 113.319 90.0696 113.919 90.0696C114.519 90.0696 114.999 89.5796 114.999 88.9996Z" fill="#1F1D20"/>
<path opacity="0.15" d="M123.68 88.9895V74.7995C123.68 74.1995 123.2 73.7195 122.6 73.7195C122 73.7195 121.52 74.1995 121.52 74.7995V88.9895C121.52 89.5895 122 90.0695 122.6 90.0695C123.2 90.0695 123.68 89.5795 123.68 88.9895Z" fill="#1F1D20"/>
<path opacity="0.15" d="M119.309 88.9894V80.2494C119.309 79.6494 118.829 79.1694 118.229 79.1694C117.629 79.1694 117.149 79.6494 117.149 80.2494V88.9894C117.149 89.5894 117.629 90.0694 118.229 90.0694C118.809 90.0694 119.309 89.5794 119.309 88.9894Z" fill="#1F1D20"/>
</g>
<g opacity="0.15">
<path opacity="0.15" d="M105.69 100.489H109.32C109.74 101.199 110.5 101.669 111.37 101.669C112.25 101.669 113.01 101.189 113.42 100.489H124.33C124.99 100.479 125.52 99.9494 125.52 99.2794C125.52 98.6194 124.98 98.0694 124.31 98.0694H113.41C112.99 97.3594 112.23 96.8794 111.35 96.8794C110.47 96.8794 109.7 97.3594 109.29 98.0694H105.67C105.01 98.0694 104.46 98.6094 104.46 99.2794C104.48 99.9394 105.02 100.489 105.69 100.489Z" fill="#1F1D20"/>
<path opacity="0.15" d="M124.33 104.169H120.64C120.22 103.459 119.46 102.979 118.58 102.979C117.7 102.979 116.94 103.459 116.52 104.169H105.68C105.02 104.169 104.47 104.709 104.47 105.379C104.47 106.039 105.01 106.589 105.68 106.589H116.52C116.94 107.299 117.7 107.769 118.57 107.769C119.44 107.769 120.2 107.289 120.62 106.589H124.33C124.99 106.579 125.52 106.049 125.52 105.379C125.52 104.709 125 104.169 124.33 104.169Z" fill="#1F1D20"/>
<path opacity="0.15" d="M124.33 110.599H113.51C113.09 109.889 112.33 109.409 111.45 109.409C110.57 109.409 109.81 109.889 109.39 110.599H105.68C105.02 110.599 104.47 111.139 104.47 111.809C104.47 112.479 105.01 113.019 105.68 113.019H109.39C109.81 113.729 110.57 114.209 111.45 114.209C112.33 114.209 113.09 113.729 113.51 113.019H124.34C125 113.019 125.53 112.489 125.53 111.809C125.53 111.149 125 110.599 124.33 110.599Z" fill="#1F1D20"/>
</g>
<path opacity="0.15" d="M98.7396 120.529H50.6096C50.1896 120.529 49.8496 120.189 49.8496 119.769V71.6494C49.8496 71.2294 50.1896 70.8894 50.6096 70.8894H98.7396C99.1596 70.8894 99.4996 71.2294 99.4996 71.6494V119.779C99.4896 120.189 99.1496 120.529 98.7396 120.529Z" fill="#1F1D20"/>
<path d="M98.7396 118.829H50.6096C50.1896 118.829 49.8496 118.489 49.8496 118.069V69.9495C49.8496 69.5295 50.1896 69.1895 50.6096 69.1895H98.7396C99.1596 69.1895 99.4996 69.5295 99.4996 69.9495V118.079C99.4896 118.489 99.1496 118.829 98.7396 118.829Z" fill="white"/>
<path opacity="0.15" d="M72.4203 112.469C72.4203 111.609 71.7303 110.919 70.8703 110.919C70.0103 110.919 69.3203 111.609 69.3203 112.469C69.3203 113.329 70.0103 114.019 70.8703 114.019C71.7203 114.009 72.4203 113.329 72.4203 112.469Z" fill="#1F1D20"/>
<path opacity="0.15" d="M79.4203 112.469C79.4203 111.609 78.7303 110.919 77.8703 110.919C77.0103 110.919 76.3203 111.609 76.3203 112.469C76.3203 113.329 77.0103 114.019 77.8703 114.019C78.7303 114.009 79.4203 113.329 79.4203 112.469Z" fill="#1F1D20"/>
<path opacity="0.15" d="M58.4096 112.469C58.4096 111.609 57.7196 110.919 56.8596 110.919C55.9996 110.919 55.3096 111.619 55.3096 112.469C55.3096 113.329 55.9996 114.019 56.8596 114.019C57.7196 114.019 58.4096 113.329 58.4096 112.469Z" fill="#1F1D20"/>
<path opacity="0.15" d="M65.4096 112.469C65.4096 111.609 64.7196 110.919 63.8596 110.919C62.9996 110.919 62.3096 111.609 62.3096 112.469C62.3096 113.329 62.9996 114.019 63.8596 114.019C64.7196 114.009 65.4096 113.329 65.4096 112.469Z" fill="#1F1D20"/>
<path opacity="0.15" d="M86.4301 112.469C86.4301 111.609 85.7401 110.919 84.8801 110.919C84.0201 110.919 83.3301 111.609 83.3301 112.469C83.3301 113.329 84.0201 114.019 84.8801 114.019C85.7401 114.009 86.4301 113.329 86.4301 112.469Z" fill="#1F1D20"/>
<path opacity="0.15" d="M90.3398 112.469C90.3398 113.329 91.0298 114.019 91.8898 114.019C92.7498 114.019 93.4398 113.329 93.4398 112.469C93.4398 111.609 92.7498 110.919 91.8898 110.919C91.0298 110.919 90.3398 111.619 90.3398 112.469Z" fill="#1F1D20"/>
<path opacity="0.15" d="M72.4203 105.399C72.4203 104.539 71.7303 103.849 70.8703 103.849C70.0103 103.849 69.3203 104.539 69.3203 105.399C69.3203 106.259 70.0103 106.949 70.8703 106.949C71.7203 106.939 72.4203 106.239 72.4203 105.399Z" fill="#1F1D20"/>
<path opacity="0.15" d="M79.4203 105.399C79.4203 104.539 78.7303 103.849 77.8703 103.849C77.0103 103.849 76.3203 104.539 76.3203 105.399C76.3203 106.259 77.0103 106.949 77.8703 106.949C78.7303 106.939 79.4203 106.239 79.4203 105.399Z" fill="#1F1D20"/>
<path opacity="0.15" d="M58.4096 105.399C58.4096 104.539 57.7196 103.849 56.8596 103.849C55.9996 103.849 55.3096 104.539 55.3096 105.399C55.3096 106.259 55.9996 106.949 56.8596 106.949C57.7196 106.949 58.4096 106.239 58.4096 105.399Z" fill="#1F1D20"/>
<path opacity="0.15" d="M65.4096 105.399C65.4096 104.539 64.7196 103.849 63.8596 103.849C62.9996 103.849 62.3096 104.539 62.3096 105.399C62.3096 106.259 62.9996 106.949 63.8596 106.949C64.7196 106.939 65.4096 106.239 65.4096 105.399Z" fill="#1F1D20"/>
<path opacity="0.15" d="M86.4301 105.399C86.4301 104.539 85.7401 103.849 84.8801 103.849C84.0201 103.849 83.3301 104.539 83.3301 105.399C83.3301 106.259 84.0201 106.949 84.8801 106.949C85.7401 106.939 86.4301 106.239 86.4301 105.399Z" fill="#1F1D20"/>
<path opacity="0.15" d="M93.4301 105.399C93.4301 104.539 92.7401 103.849 91.8801 103.849C91.0201 103.849 90.3301 104.539 90.3301 105.399C90.3301 106.259 91.0201 106.949 91.8801 106.949C92.7301 106.939 93.4301 106.239 93.4301 105.399Z" fill="#1F1D20"/>
<path opacity="0.15" d="M72.4203 98.3195C72.4203 97.4595 71.7303 96.7695 70.8703 96.7695C70.0103 96.7695 69.3203 97.4595 69.3203 98.3195C69.3203 99.1795 70.0103 99.8695 70.8703 99.8695C71.7203 99.8695 72.4203 99.1695 72.4203 98.3195Z" fill="#1F1D20"/>
<path opacity="0.15" d="M77.8703 99.8695C78.7203 99.8695 79.4203 99.1795 79.4203 98.3195C79.4203 97.4695 78.7303 96.7695 77.8703 96.7695C77.0103 96.7695 76.3203 97.4595 76.3203 98.3195C76.3303 99.1795 77.0203 99.8695 77.8703 99.8695Z" fill="#1F1D20"/>
<path opacity="0.15" d="M58.4096 98.3195C58.4096 97.4595 57.7196 96.7695 56.8596 96.7695C55.9996 96.7695 55.3096 97.4595 55.3096 98.3195C55.3096 99.1795 55.9996 99.8695 56.8596 99.8695C57.7196 99.8695 58.4096 99.1695 58.4096 98.3195Z" fill="#1F1D20"/>
<path opacity="0.15" d="M63.8596 99.8695C64.7096 99.8695 65.4096 99.1795 65.4096 98.3195C65.4096 97.4695 64.7196 96.7695 63.8596 96.7695C63.0096 96.7695 62.3096 97.4595 62.3096 98.3195C62.3096 99.1795 63.0096 99.8695 63.8596 99.8695Z" fill="#1F1D20"/>
<path opacity="0.15" d="M86.4301 98.3195C86.4301 97.4595 85.7401 96.7695 84.8801 96.7695C84.0201 96.7695 83.3301 97.4595 83.3301 98.3195C83.3301 99.1795 84.0201 99.8695 84.8801 99.8695C85.7401 99.8695 86.4301 99.1695 86.4301 98.3195Z" fill="#1F1D20"/>
<path opacity="0.15" d="M91.8801 99.8695C92.7301 99.8695 93.4301 99.1795 93.4301 98.3195C93.4301 97.4695 92.7401 96.7695 91.8801 96.7695C91.0301 96.7695 90.3301 97.4595 90.3301 98.3195C90.3401 99.1795 91.0301 99.8695 91.8801 99.8695Z" fill="#1F1D20"/>
<path opacity="0.15" d="M72.4203 91.2495C72.4203 90.3895 71.7303 89.6995 70.8703 89.6995C70.0103 89.6995 69.3203 90.3895 69.3203 91.2495C69.3203 92.1095 70.0103 92.7995 70.8703 92.7995C71.7203 92.7995 72.4203 92.1095 72.4203 91.2495Z" fill="#1F1D20"/>
<path opacity="0.15" d="M79.4203 91.2495C79.4203 90.3895 78.7303 89.6995 77.8703 89.6995C77.0103 89.6995 76.3203 90.3895 76.3203 91.2495C76.3203 92.1095 77.0103 92.7995 77.8703 92.7995C78.7303 92.7995 79.4203 92.1095 79.4203 91.2495Z" fill="#1F1D20"/>
<path opacity="0.15" d="M58.4096 91.2495C58.4096 90.3895 57.7196 89.6995 56.8596 89.6995C55.9996 89.6995 55.3096 90.3995 55.3096 91.2495C55.3096 92.0895 55.9996 92.7995 56.8596 92.7995C57.7196 92.7995 58.4096 92.1095 58.4096 91.2495Z" fill="#1F1D20"/>
<path opacity="0.15" d="M65.4096 91.2495C65.4096 90.3895 64.7196 89.6995 63.8596 89.6995C62.9996 89.6995 62.3096 90.3895 62.3096 91.2495C62.3096 92.1095 62.9996 92.7995 63.8596 92.7995C64.7196 92.7995 65.4096 92.1095 65.4096 91.2495Z" fill="#1F1D20"/>
<path opacity="0.15" d="M86.4301 91.2495C86.4301 90.3895 85.7401 89.6995 84.8801 89.6995C84.0201 89.6995 83.3301 90.3895 83.3301 91.2495C83.3301 92.1095 84.0201 92.7995 84.8801 92.7995C85.7401 92.7995 86.4301 92.1095 86.4301 91.2495Z" fill="#1F1D20"/>
<path opacity="0.15" d="M93.4301 91.2495C93.4301 90.3895 92.7401 89.6995 91.8801 89.6995C91.0201 89.6995 90.3301 90.3895 90.3301 91.2495C90.3301 92.1095 91.0201 92.7995 91.8801 92.7995C92.7301 92.7995 93.4301 92.1095 93.4301 91.2495Z" fill="#1F1D20"/>
<path opacity="0.15" d="M72.4203 84.1794C72.4203 83.3194 71.7303 82.6294 70.8703 82.6294C70.0103 82.6294 69.3203 83.3194 69.3203 84.1794C69.3203 85.0394 70.0103 85.7294 70.8703 85.7294C71.7203 85.7194 72.4203 85.0194 72.4203 84.1794Z" fill="#1F1D20"/>
<path opacity="0.15" d="M79.4203 84.1794C79.4203 83.3194 78.7303 82.6294 77.8703 82.6294C77.0103 82.6294 76.3203 83.3194 76.3203 84.1794C76.3203 85.0394 77.0103 85.7294 77.8703 85.7294C78.7303 85.7194 79.4203 85.0194 79.4203 84.1794Z" fill="#1F1D20"/>
<path opacity="0.15" d="M58.4096 84.1794C58.4096 83.3194 57.7196 82.6294 56.8596 82.6294C55.9996 82.6294 55.3096 83.3194 55.3096 84.1794C55.3096 85.0394 55.9996 85.7294 56.8596 85.7294C57.7196 85.7294 58.4096 85.0194 58.4096 84.1794Z" fill="#1F1D20"/>
<path opacity="0.15" d="M65.4103 84.1794C65.4103 83.3194 64.7203 82.6294 63.8603 82.6294C63.0003 82.6294 62.3203 83.3194 62.3203 84.1794C62.3203 85.0394 63.0103 85.7294 63.8603 85.7294C64.7003 85.7194 65.4103 85.0194 65.4103 84.1794Z" fill="#1F1D20"/>
<path opacity="0.15" d="M86.4301 84.1794C86.4301 83.3194 85.7401 82.6294 84.8801 82.6294C84.0201 82.6294 83.3301 83.3194 83.3301 84.1794C83.3301 85.0394 84.0201 85.7294 84.8801 85.7294C85.7401 85.7194 86.4301 85.0194 86.4301 84.1794Z" fill="#1F1D20"/>
<path opacity="0.15" d="M93.4301 84.1794C93.4301 83.3194 92.7401 82.6294 91.8801 82.6294C91.0201 82.6294 90.3301 83.3194 90.3301 84.1794C90.3301 85.0394 91.0201 85.7294 91.8801 85.7294C92.7301 85.7194 93.4301 85.0194 93.4301 84.1794Z" fill="#1F1D20"/>
<path opacity="0.15" d="M72.4203 77.1093C72.4203 76.2493 71.7303 75.5593 70.8703 75.5593C70.0103 75.5593 69.3203 76.2493 69.3203 77.1093C69.3203 77.9693 70.0103 78.6593 70.8703 78.6593C71.7203 78.6493 72.4203 77.9493 72.4203 77.1093Z" fill="#1F1D20"/>
<path opacity="0.15" d="M79.4203 77.1093C79.4203 76.2493 78.7303 75.5593 77.8703 75.5593C77.0103 75.5593 76.3203 76.2493 76.3203 77.1093C76.3203 77.9693 77.0103 78.6593 77.8703 78.6593C78.7303 78.6493 79.4203 77.9493 79.4203 77.1093Z" fill="#1F1D20"/>
<path opacity="0.15" d="M58.4096 77.1093C58.4096 76.2493 57.7196 75.5593 56.8596 75.5593C55.9996 75.5593 55.3096 76.2493 55.3096 77.1093C55.3096 77.9693 55.9996 78.6593 56.8596 78.6593C57.7196 78.6593 58.4096 77.9493 58.4096 77.1093Z" fill="#1F1D20"/>
<path opacity="0.15" d="M65.4103 77.1093C65.4103 76.2493 64.7203 75.5593 63.8603 75.5593C63.0003 75.5593 62.3203 76.2493 62.3203 77.1093C62.3203 77.9693 63.0103 78.6593 63.8603 78.6593C64.7003 78.6493 65.4103 77.9493 65.4103 77.1093Z" fill="#1F1D20"/>
<path opacity="0.15" d="M86.4301 77.1093C86.4301 76.2493 85.7401 75.5593 84.8801 75.5593C84.0201 75.5593 83.3301 76.2493 83.3301 77.1093C83.3301 77.9693 84.0201 78.6593 84.8801 78.6593C85.7401 78.6493 86.4301 77.9493 86.4301 77.1093Z" fill="#1F1D20"/>
<path opacity="0.15" d="M93.4301 77.1093C93.4301 76.2493 92.7401 75.5593 91.8801 75.5593C91.0201 75.5593 90.3301 76.2493 90.3301 77.1093C90.3301 77.9693 91.0201 78.6593 91.8801 78.6593C92.7301 78.6493 93.4301 77.9493 93.4301 77.1093Z" fill="#1F1D20"/>
<path d="M72.4203 111.689C72.4203 110.829 71.7303 110.139 70.8703 110.139C70.0103 110.139 69.3203 110.829 69.3203 111.689C69.3203 112.549 70.0103 113.239 70.8703 113.239C71.7203 113.229 72.4203 112.549 72.4203 111.689Z" fill="#0078D4"/>
<path fill-rule="evenodd" clip-rule="evenodd" d="M69.2197 111.69C69.2197 110.774 69.9545 110.04 70.8697 110.04C71.7849 110.04 72.5197 110.774 72.5197 111.69C72.5197 112.606 71.7737 113.329 70.8709 113.34L70.8697 113.34C69.9545 113.34 69.2197 112.605 69.2197 111.69ZM70.8697 110.24C70.065 110.24 69.4197 110.885 69.4197 111.69C69.4197 112.494 70.0646 113.139 70.8691 113.14C71.6661 113.13 72.3197 112.493 72.3197 111.69C72.3197 110.885 71.6745 110.24 70.8697 110.24Z" fill="white"/>
<path d="M79.4203 111.689C79.4203 110.829 78.7303 110.139 77.8703 110.139C77.0103 110.139 76.3203 110.829 76.3203 111.689C76.3203 112.549 77.0103 113.239 77.8703 113.239C78.7303 113.229 79.4203 112.549 79.4203 111.689Z" fill="#0078D4"/>
<path fill-rule="evenodd" clip-rule="evenodd" d="M76.2197 111.69C76.2197 110.774 76.9545 110.04 77.8697 110.04C78.7849 110.04 79.5197 110.774 79.5197 111.69C79.5197 112.606 78.7841 113.329 77.8709 113.34L77.8697 113.34C76.9545 113.34 76.2197 112.605 76.2197 111.69ZM77.8697 110.24C77.065 110.24 76.4197 110.885 76.4197 111.69C76.4197 112.494 77.0646 113.139 77.8691 113.14C78.6756 113.13 79.3197 112.493 79.3197 111.69C79.3197 110.885 78.6745 110.24 77.8697 110.24Z" fill="white"/>
<path d="M58.4096 111.689C58.4096 110.829 57.7196 110.139 56.8596 110.139C55.9996 110.139 55.3096 110.839 55.3096 111.689C55.3096 112.549 55.9996 113.239 56.8596 113.239C57.7196 113.239 58.4096 112.549 58.4096 111.689Z" fill="#3BCAF4"/>
<path fill-rule="evenodd" clip-rule="evenodd" d="M55.21 111.69C55.21 110.785 55.9443 110.04 56.86 110.04C57.7752 110.04 58.51 110.774 58.51 111.69C58.51 112.605 57.7752 113.34 56.86 113.34C55.9447 113.34 55.21 112.605 55.21 111.69ZM56.86 110.24C56.0556 110.24 55.41 110.894 55.41 111.69C55.41 112.494 56.0552 113.14 56.86 113.14C57.6647 113.14 58.31 112.494 58.31 111.69C58.31 110.885 57.6647 110.24 56.86 110.24Z" fill="white"/>
<path d="M65.4096 111.689C65.4096 110.829 64.7196 110.139 63.8596 110.139C62.9996 110.139 62.3096 110.829 62.3096 111.689C62.3096 112.549 62.9996 113.239 63.8596 113.239C64.7196 113.229 65.4096 112.549 65.4096 111.689Z" fill="#3BCAF4"/>
<path fill-rule="evenodd" clip-rule="evenodd" d="M62.21 111.69C62.21 110.774 62.9447 110.04 63.86 110.04C64.7752 110.04 65.51 110.774 65.51 111.69C65.51 112.606 64.7744 113.329 63.8611 113.34L63.86 113.34C62.9447 113.34 62.21 112.605 62.21 111.69ZM63.86 110.24C63.0552 110.24 62.41 110.885 62.41 111.69C62.41 112.494 63.0549 113.139 63.8594 113.14C64.6659 113.13 65.31 112.493 65.31 111.69C65.31 110.885 64.6647 110.24 63.86 110.24Z" fill="white"/>
<path d="M86.4301 111.689C86.4301 110.829 85.7401 110.139 84.8801 110.139C84.0201 110.139 83.3301 110.829 83.3301 111.689C83.3301 112.549 84.0201 113.239 84.8801 113.239C85.7401 113.229 86.4301 112.549 86.4301 111.689Z" fill="#0078D4"/>
<path fill-rule="evenodd" clip-rule="evenodd" d="M83.2295 111.69C83.2295 110.774 83.9643 110.04 84.8795 110.04C85.7947 110.04 86.5295 110.774 86.5295 111.69C86.5295 112.606 85.7939 113.329 84.8807 113.34L84.8795 113.34C83.9643 113.34 83.2295 112.605 83.2295 111.69ZM84.8795 110.24C84.0747 110.24 83.4295 110.885 83.4295 111.69C83.4295 112.494 84.0744 113.139 84.8789 113.14C85.6854 113.13 86.3295 112.493 86.3295 111.69C86.3295 110.885 85.6843 110.24 84.8795 110.24Z" fill="white"/>
<path d="M90.3398 111.689C90.3398 112.549 91.0298 113.239 91.8898 113.239C92.7498 113.239 93.4398 112.549 93.4398 111.689C93.4398 110.829 92.7498 110.139 91.8898 110.139C91.0298 110.139 90.3398 110.839 90.3398 111.689Z" fill="#0078D4"/>
<path fill-rule="evenodd" clip-rule="evenodd" d="M90.2402 111.69C90.2402 110.785 90.9746 110.04 91.8902 110.04C92.8055 110.04 93.5402 110.774 93.5402 111.69C93.5402 112.605 92.8055 113.34 91.8902 113.34C90.975 113.34 90.2402 112.605 90.2402 111.69ZM91.8902 110.24C91.0859 110.24 90.4402 110.894 90.4402 111.69C90.4402 112.494 91.0855 113.14 91.8902 113.14C92.695 113.14 93.3402 112.494 93.3402 111.69C93.3402 110.885 92.695 110.24 91.8902 110.24Z" fill="white"/>
<path d="M72.4203 104.619C72.4203 103.759 71.7303 103.069 70.8703 103.069C70.0103 103.069 69.3203 103.759 69.3203 104.619C69.3203 105.479 70.0103 106.169 70.8703 106.169C71.7203 106.159 72.4203 105.459 72.4203 104.619Z" fill="#3BCAF4"/>
<path fill-rule="evenodd" clip-rule="evenodd" d="M69.2197 104.619C69.2197 103.704 69.9545 102.969 70.8697 102.969C71.7849 102.969 72.5197 103.704 72.5197 104.619C72.5197 105.515 71.7746 106.259 70.8709 106.269L70.8697 106.269C69.9545 106.269 69.2197 105.535 69.2197 104.619ZM70.8697 103.169C70.065 103.169 69.4197 103.815 69.4197 104.619C69.4197 105.424 70.0646 106.069 70.8691 106.069C71.6652 106.06 72.3197 105.403 72.3197 104.619C72.3197 103.815 71.6745 103.169 70.8697 103.169Z" fill="white"/>
<path d="M79.4203 104.619C79.4203 103.759 78.7303 103.069 77.8703 103.069C77.0103 103.069 76.3203 103.759 76.3203 104.619C76.3203 105.479 77.0103 106.169 77.8703 106.169C78.7303 106.159 79.4203 105.459 79.4203 104.619Z" fill="#0078D4"/>
<path fill-rule="evenodd" clip-rule="evenodd" d="M76.2197 104.619C76.2197 103.704 76.9545 102.969 77.8697 102.969C78.7849 102.969 79.5197 103.704 79.5197 104.619C79.5197 105.515 78.785 106.259 77.8709 106.269L77.8697 106.269C76.9545 106.269 76.2197 105.535 76.2197 104.619ZM77.8697 103.169C77.065 103.169 76.4197 103.815 76.4197 104.619C76.4197 105.424 77.0646 106.069 77.8691 106.069C78.6748 106.06 79.3197 105.404 79.3197 104.619C79.3197 103.815 78.6745 103.169 77.8697 103.169Z" fill="white"/>
<path d="M58.4096 104.619C58.4096 103.759 57.7196 103.069 56.8596 103.069C55.9996 103.069 55.3096 103.759 55.3096 104.619C55.3096 105.479 55.9996 106.169 56.8596 106.169C57.7196 106.169 58.4096 105.459 58.4096 104.619Z" fill="#3BCAF4"/>
<path fill-rule="evenodd" clip-rule="evenodd" d="M55.21 104.619C55.21 103.704 55.9447 102.969 56.86 102.969C57.7752 102.969 58.51 103.704 58.51 104.619C58.51 105.514 57.776 106.269 56.86 106.269C55.9447 106.269 55.21 105.535 55.21 104.619ZM56.86 103.169C56.0552 103.169 55.41 103.815 55.41 104.619C55.41 105.424 56.0552 106.069 56.86 106.069C57.6639 106.069 58.31 105.405 58.31 104.619C58.31 103.815 57.6647 103.169 56.86 103.169Z" fill="white"/>
<path d="M65.4096 104.619C65.4096 103.759 64.7196 103.069 63.8596 103.069C62.9996 103.069 62.3096 103.759 62.3096 104.619C62.3096 105.479 62.9996 106.169 63.8596 106.169C64.7196 106.159 65.4096 105.459 65.4096 104.619Z" fill="#3BCAF4"/>
<path fill-rule="evenodd" clip-rule="evenodd" d="M62.21 104.619C62.21 103.704 62.9447 102.969 63.86 102.969C64.7752 102.969 65.51 103.704 65.51 104.619C65.51 105.515 64.7752 106.259 63.8611 106.269L63.86 106.269C62.9447 106.269 62.21 105.535 62.21 104.619ZM63.86 103.169C63.0552 103.169 62.41 103.815 62.41 104.619C62.41 105.424 63.0549 106.069 63.8594 106.069C64.665 106.06 65.31 105.404 65.31 104.619C65.31 103.815 64.6647 103.169 63.86 103.169Z" fill="white"/>
<path d="M86.4301 104.619C86.4301 103.759 85.7401 103.069 84.8801 103.069C84.0201 103.069 83.3301 103.759 83.3301 104.619C83.3301 105.479 84.0201 106.169 84.8801 106.169C85.7401 106.159 86.4301 105.459 86.4301 104.619Z" fill="#0078D4"/>
<path fill-rule="evenodd" clip-rule="evenodd" d="M83.2295 104.619C83.2295 103.704 83.9643 102.969 84.8795 102.969C85.7947 102.969 86.5295 103.704 86.5295 104.619C86.5295 105.515 85.7947 106.259 84.8807 106.269L84.8795 106.269C83.9643 106.269 83.2295 105.535 83.2295 104.619ZM84.8795 103.169C84.0747 103.169 83.4295 103.815 83.4295 104.619C83.4295 105.424 84.0744 106.069 84.8789 106.069C85.6845 106.06 86.3295 105.404 86.3295 104.619C86.3295 103.815 85.6843 103.169 84.8795 103.169Z" fill="white"/>
<path d="M93.4301 104.619C93.4301 103.759 92.7401 103.069 91.8801 103.069C91.0201 103.069 90.3301 103.759 90.3301 104.619C90.3301 105.479 91.0201 106.169 91.8801 106.169C92.7301 106.159 93.4301 105.459 93.4301 104.619Z" fill="#0078D4"/>
<path fill-rule="evenodd" clip-rule="evenodd" d="M90.2295 104.619C90.2295 103.704 90.9643 102.969 91.8795 102.969C92.7947 102.969 93.5295 103.704 93.5295 104.619C93.5295 105.515 92.7843 106.259 91.8807 106.269L91.8795 106.269C90.9643 106.269 90.2295 105.535 90.2295 104.619ZM91.8795 103.169C91.0747 103.169 90.4295 103.815 90.4295 104.619C90.4295 105.424 91.0744 106.069 91.8789 106.069C92.675 106.06 93.3295 105.403 93.3295 104.619C93.3295 103.815 92.6843 103.169 91.8795 103.169Z" fill="white"/>
<path d="M72.4203 97.5395C72.4203 96.6795 71.7303 95.9895 70.8703 95.9895C70.0103 95.9895 69.3203 96.6795 69.3203 97.5395C69.3203 98.3995 70.0103 99.0895 70.8703 99.0895C71.7203 99.0895 72.4203 98.3895 72.4203 97.5395Z" fill="#3BCAF4"/>
<path fill-rule="evenodd" clip-rule="evenodd" d="M69.2197 97.5394C69.2197 96.6242 69.9545 95.8894 70.8697 95.8894C71.7849 95.8894 72.5197 96.6242 72.5197 97.5394C72.5197 98.4446 71.775 99.1894 70.8697 99.1894C69.9545 99.1894 69.2197 98.4546 69.2197 97.5394ZM70.8697 96.0894C70.065 96.0894 69.4197 96.7346 69.4197 97.5394C69.4197 98.3442 70.065 98.9894 70.8697 98.9894C71.6645 98.9894 72.3197 98.3342 72.3197 97.5394C72.3197 96.7346 71.6745 96.0894 70.8697 96.0894Z" fill="white"/>
<path d="M77.8703 99.0895C78.7203 99.0895 79.4203 98.3995 79.4203 97.5395C79.4203 96.6895 78.7303 95.9895 77.8703 95.9895C77.0103 95.9895 76.3203 96.6795 76.3203 97.5395C76.3303 98.3995 77.0203 99.0895 77.8703 99.0895Z" fill="#3BCAF4"/>
<path fill-rule="evenodd" clip-rule="evenodd" d="M76.2197 97.5394C76.2197 96.6242 76.9545 95.8894 77.8697 95.8894C78.7854 95.8894 79.5197 96.6346 79.5197 97.5394C79.5197 98.455 78.7745 99.1894 77.8697 99.1894C76.9639 99.1894 76.2304 98.4542 76.2197 97.5406L76.2197 97.5394ZM76.4197 97.5388C76.4294 98.3449 77.0758 98.9894 77.8697 98.9894C78.6649 98.9894 79.3197 98.3438 79.3197 97.5394C79.3197 96.7442 78.6741 96.0894 77.8697 96.0894C77.0651 96.0894 76.42 96.7343 76.4197 97.5388Z" fill="white"/>
<path d="M58.4096 97.5395C58.4096 96.6795 57.7196 95.9895 56.8596 95.9895C55.9996 95.9895 55.3096 96.6795 55.3096 97.5395C55.3096 98.3995 55.9996 99.0895 56.8596 99.0895C57.7196 99.0895 58.4096 98.3895 58.4096 97.5395Z" fill="#50E6FF"/>
<path fill-rule="evenodd" clip-rule="evenodd" d="M55.21 97.5394C55.21 96.6242 55.9447 95.8894 56.86 95.8894C57.7752 95.8894 58.51 96.6242 58.51 97.5394C58.51 98.4442 57.7756 99.1894 56.86 99.1894C55.9447 99.1894 55.21 98.4546 55.21 97.5394ZM56.86 96.0894C56.0552 96.0894 55.41 96.7346 55.41 97.5394C55.41 98.3442 56.0552 98.9894 56.86 98.9894C57.6643 98.9894 58.31 98.3346 58.31 97.5394C58.31 96.7346 57.6647 96.0894 56.86 96.0894Z" fill="white"/>
<path d="M63.8596 99.0895C64.7096 99.0895 65.4096 98.3995 65.4096 97.5395C65.4096 96.6895 64.7196 95.9895 63.8596 95.9895C63.0096 95.9895 62.3096 96.6795 62.3096 97.5395C62.3096 98.3995 63.0096 99.0895 63.8596 99.0895Z" fill="#3BCAF4"/>
<path fill-rule="evenodd" clip-rule="evenodd" d="M62.21 97.5394C62.21 96.6238 62.9552 95.8894 63.86 95.8894C64.7756 95.8894 65.51 96.6346 65.51 97.5394C65.51 98.455 64.7648 99.1894 63.86 99.1894C62.9552 99.1894 62.21 98.455 62.21 97.5394ZM63.86 96.0894C63.0648 96.0894 62.41 96.735 62.41 97.5394C62.41 98.3438 63.0648 98.9894 63.86 98.9894C64.6552 98.9894 65.31 98.3438 65.31 97.5394C65.31 96.7442 64.6643 96.0894 63.86 96.0894Z" fill="white"/>
<path d="M86.4301 97.5395C86.4301 96.6795 85.7401 95.9895 84.8801 95.9895C84.0201 95.9895 83.3301 96.6795 83.3301 97.5395C83.3301 98.3995 84.0201 99.0895 84.8801 99.0895C85.7401 99.0895 86.4301 98.3895 86.4301 97.5395Z" fill="#3BCAF4"/>
<path fill-rule="evenodd" clip-rule="evenodd" d="M83.2295 97.5394C83.2295 96.6242 83.9643 95.8894 84.8795 95.8894C85.7947 95.8894 86.5295 96.6242 86.5295 97.5394C86.5295 98.4442 85.7951 99.1894 84.8795 99.1894C83.9643 99.1894 83.2295 98.4546 83.2295 97.5394ZM84.8795 96.0894C84.0747 96.0894 83.4295 96.7346 83.4295 97.5394C83.4295 98.3442 84.0747 98.9894 84.8795 98.9894C85.6838 98.9894 86.3295 98.3346 86.3295 97.5394C86.3295 96.7346 85.6843 96.0894 84.8795 96.0894Z" fill="white"/>
<path d="M91.8801 99.0895C92.7301 99.0895 93.4301 98.3995 93.4301 97.5395C93.4301 96.6895 92.7401 95.9895 91.8801 95.9895C91.0301 95.9895 90.3301 96.6795 90.3301 97.5395C90.3401 98.3995 91.0301 99.0895 91.8801 99.0895Z" fill="#0078D4"/>
<path fill-rule="evenodd" clip-rule="evenodd" d="M90.2295 97.5394C90.2295 96.6238 90.9747 95.8894 91.8795 95.8894C92.7951 95.8894 93.5295 96.6346 93.5295 97.5394C93.5295 98.455 92.7843 99.1894 91.8795 99.1894C90.9736 99.1894 90.2401 98.4542 90.2295 97.5406L90.2295 97.5394ZM90.4295 97.5388C90.4392 98.3449 91.0855 98.9894 91.8795 98.9894C92.6747 98.9894 93.3295 98.3438 93.3295 97.5394C93.3295 96.7442 92.6838 96.0894 91.8795 96.0894C91.0845 96.0894 90.4298 96.7347 90.4295 97.5388Z" fill="white"/>
<path d="M72.4203 90.4694C72.4203 89.6094 71.7303 88.9194 70.8703 88.9194C70.0103 88.9194 69.3203 89.6094 69.3203 90.4694C69.3203 91.3294 70.0103 92.0194 70.8703 92.0194C71.7203 92.0194 72.4203 91.3294 72.4203 90.4694Z" fill="#50E6FF"/>
<path fill-rule="evenodd" clip-rule="evenodd" d="M69.2197 90.4693C69.2197 89.5541 69.9545 88.8193 70.8697 88.8193C71.7849 88.8193 72.5197 89.5541 72.5197 90.4693C72.5197 91.385 71.7745 92.1193 70.8697 92.1193C69.9545 92.1193 69.2197 91.3846 69.2197 90.4693ZM70.8697 89.0193C70.065 89.0193 69.4197 89.6646 69.4197 90.4693C69.4197 91.2741 70.065 91.9193 70.8697 91.9193C71.6649 91.9193 72.3197 91.2737 72.3197 90.4693C72.3197 89.6646 71.6745 89.0193 70.8697 89.0193Z" fill="white"/>
<path d="M79.4203 90.4694C79.4203 89.6094 78.7303 88.9194 77.8703 88.9194C77.0103 88.9194 76.3203 89.6094 76.3203 90.4694C76.3203 91.3294 77.0203 92.0194 77.8703 92.0194C78.7303 92.0194 79.4203 91.3294 79.4203 90.4694Z" fill="#50E6FF"/>
<path fill-rule="evenodd" clip-rule="evenodd" d="M76.2197 90.4693C76.2197 89.5541 76.9545 88.8193 77.8697 88.8193C78.7849 88.8193 79.5197 89.5541 79.5197 90.4693C79.5197 91.3846 78.785 92.1193 77.8697 92.1193C76.9649 92.1193 76.2197 91.385 76.2197 90.4693ZM77.8697 89.0193C77.065 89.0193 76.4197 89.6646 76.4197 90.4693C76.4197 91.2737 77.0745 91.9193 77.8697 91.9193C78.6745 91.9193 79.3197 91.2741 79.3197 90.4693C79.3197 89.6646 78.6745 89.0193 77.8697 89.0193Z" fill="white"/>
<path d="M58.4096 90.4694C58.4096 89.6094 57.7196 88.9194 56.8596 88.9194C55.9996 88.9194 55.3096 89.6194 55.3096 90.4694C55.3096 91.3094 55.9996 92.0194 56.8596 92.0194C57.7196 92.0194 58.4096 91.3294 58.4096 90.4694Z" fill="#50E6FF"/>
<path fill-rule="evenodd" clip-rule="evenodd" d="M55.21 90.4693C55.21 89.5645 55.9443 88.8193 56.86 88.8193C57.7752 88.8193 58.51 89.5541 58.51 90.4693C58.51 91.3846 57.7752 92.1193 56.86 92.1193C55.9439 92.1193 55.21 91.3637 55.21 90.4693ZM56.86 89.0193C56.0556 89.0193 55.41 89.6741 55.41 90.4693C55.41 91.2549 56.056 91.9193 56.86 91.9193C57.6647 91.9193 58.31 91.2741 58.31 90.4693C58.31 89.6646 57.6647 89.0193 56.86 89.0193Z" fill="white"/>
<path d="M65.4096 90.4694C65.4096 89.6094 64.7196 88.9194 63.8596 88.9194C62.9996 88.9194 62.3096 89.6094 62.3096 90.4694C62.3096 91.3294 62.9996 92.0194 63.8596 92.0194C64.7196 92.0194 65.4096 91.3294 65.4096 90.4694Z" fill="#50E6FF"/>
<path fill-rule="evenodd" clip-rule="evenodd" d="M62.21 90.4693C62.21 89.5541 62.9447 88.8193 63.86 88.8193C64.7752 88.8193 65.51 89.5541 65.51 90.4693C65.51 91.3846 64.7752 92.1193 63.86 92.1193C62.9447 92.1193 62.21 91.3846 62.21 90.4693ZM63.86 89.0193C63.0552 89.0193 62.41 89.6646 62.41 90.4693C62.41 91.2741 63.0552 91.9193 63.86 91.9193C64.6647 91.9193 65.31 91.2741 65.31 90.4693C65.31 89.6646 64.6647 89.0193 63.86 89.0193Z" fill="white"/>
<path d="M86.4301 90.4694C86.4301 89.6094 85.7401 88.9194 84.8801 88.9194C84.0201 88.9194 83.3301 89.6094 83.3301 90.4694C83.3301 91.3294 84.0201 92.0194 84.8801 92.0194C85.7401 92.0194 86.4301 91.3294 86.4301 90.4694Z" fill="#50E6FF"/>
<path fill-rule="evenodd" clip-rule="evenodd" d="M83.2295 90.4693C83.2295 89.5541 83.9643 88.8193 84.8795 88.8193C85.7947 88.8193 86.5295 89.5541 86.5295 90.4693C86.5295 91.3846 85.7947 92.1193 84.8795 92.1193C83.9643 92.1193 83.2295 91.3846 83.2295 90.4693ZM84.8795 89.0193C84.0747 89.0193 83.4295 89.6646 83.4295 90.4693C83.4295 91.2741 84.0747 91.9193 84.8795 91.9193C85.6843 91.9193 86.3295 91.2741 86.3295 90.4693C86.3295 89.6646 85.6843 89.0193 84.8795 89.0193Z" fill="white"/>
<path d="M93.4301 90.4694C93.4301 89.6094 92.7401 88.9194 91.8801 88.9194C91.0201 88.9194 90.3301 89.6094 90.3301 90.4694C90.3301 91.3294 91.0301 92.0194 91.8801 92.0194C92.7301 92.0194 93.4301 91.3294 93.4301 90.4694Z" fill="#50E6FF"/>
<path fill-rule="evenodd" clip-rule="evenodd" d="M90.2295 90.4693C90.2295 89.5541 90.9643 88.8193 91.8795 88.8193C92.7947 88.8193 93.5295 89.5541 93.5295 90.4693C93.5295 91.385 92.7843 92.1193 91.8795 92.1193C90.9747 92.1193 90.2295 91.385 90.2295 90.4693ZM91.8795 89.0193C91.0747 89.0193 90.4295 89.6646 90.4295 90.4693C90.4295 91.2737 91.0843 91.9193 91.8795 91.9193C92.6747 91.9193 93.3295 91.2737 93.3295 90.4693C93.3295 89.6646 92.6843 89.0193 91.8795 89.0193Z" fill="white"/>
<path d="M72.4203 83.3994C72.4203 82.5394 71.7303 81.8494 70.8703 81.8494C70.0103 81.8494 69.3203 82.5394 69.3203 83.3994C69.3203 84.2594 70.0103 84.9494 70.8703 84.9494C71.7203 84.9394 72.4203 84.2394 72.4203 83.3994Z" fill="#50E6FF"/>
<path fill-rule="evenodd" clip-rule="evenodd" d="M69.2197 83.3995C69.2197 82.4843 69.9545 81.7495 70.8697 81.7495C71.7849 81.7495 72.5197 82.4843 72.5197 83.3995C72.5197 84.2954 71.7746 85.0389 70.8709 85.0495L70.8697 85.0495C69.9545 85.0495 69.2197 84.3147 69.2197 83.3995ZM70.8697 81.9495C70.065 81.9495 69.4197 82.5947 69.4197 83.3995C69.4197 84.2041 70.0646 84.8492 70.8691 84.8495C71.6652 84.8398 72.3197 84.1834 72.3197 83.3995C72.3197 82.5947 71.6745 81.9495 70.8697 81.9495Z" fill="white"/>
<path d="M79.4203 83.3994C79.4203 82.5394 78.7303 81.8494 77.8703 81.8494C77.0103 81.8494 76.3203 82.5394 76.3203 83.3994C76.3203 84.2594 77.0103 84.9494 77.8703 84.9494C78.7303 84.9394 79.4203 84.2394 79.4203 83.3994Z" fill="#50E6FF"/>
<path fill-rule="evenodd" clip-rule="evenodd" d="M76.2197 83.3995C76.2197 82.4843 76.9545 81.7495 77.8697 81.7495C78.7849 81.7495 79.5197 82.4843 79.5197 83.3995C79.5197 84.295 78.785 85.0389 77.8709 85.0495L77.8697 85.0495C76.9545 85.0495 76.2197 84.3147 76.2197 83.3995ZM77.8697 81.9495C77.065 81.9495 76.4197 82.5947 76.4197 83.3995C76.4197 84.2041 77.0646 84.8492 77.8691 84.8495C78.6748 84.8398 79.3197 84.1839 79.3197 83.3995C79.3197 82.5947 78.6745 81.9495 77.8697 81.9495Z" fill="white"/>
<path d="M58.4096 83.3994C58.4096 82.5394 57.7196 81.8494 56.8596 81.8494C55.9996 81.8494 55.3096 82.5394 55.3096 83.3994C55.3096 84.2594 55.9996 84.9494 56.8596 84.9494C57.7196 84.9494 58.4096 84.2394 58.4096 83.3994Z" fill="#9CEBFF"/>
<path fill-rule="evenodd" clip-rule="evenodd" d="M55.21 83.3995C55.21 82.4843 55.9447 81.7495 56.86 81.7495C57.7752 81.7495 58.51 82.4843 58.51 83.3995C58.51 84.2939 57.776 85.0495 56.86 85.0495C55.9447 85.0495 55.21 84.3147 55.21 83.3995ZM56.86 81.9495C56.0552 81.9495 55.41 82.5947 55.41 83.3995C55.41 84.2043 56.0552 84.8495 56.86 84.8495C57.6639 84.8495 58.31 84.1851 58.31 83.3995C58.31 82.5947 57.6647 81.9495 56.86 81.9495Z" fill="white"/>
<path d="M65.4103 83.3994C65.4103 82.5394 64.7203 81.8494 63.8603 81.8494C63.0003 81.8494 62.3203 82.5394 62.3203 83.3994C62.3203 84.2594 63.0103 84.9494 63.8603 84.9494C64.7003 84.9394 65.4103 84.2394 65.4103 83.3994Z" fill="#9CEBFF"/>
<path fill-rule="evenodd" clip-rule="evenodd" d="M62.2197 83.3995C62.2197 82.4851 62.9437 81.7495 63.8597 81.7495C64.775 81.7495 65.5097 82.4843 65.5097 83.3995C65.5097 84.2958 64.7541 85.0389 63.8609 85.0495L63.8597 85.0495C62.9541 85.0495 62.2197 84.3143 62.2197 83.3995ZM63.8597 81.9495C63.0558 81.9495 62.4197 82.5939 62.4197 83.3995C62.4197 84.2045 63.065 84.8492 63.8591 84.8495C64.6456 84.8398 65.3097 84.183 65.3097 83.3995C65.3097 82.5947 64.6645 81.9495 63.8597 81.9495Z" fill="white"/>
<path d="M86.4301 83.3994C86.4301 82.5394 85.7401 81.8494 84.8801 81.8494C84.0201 81.8494 83.3301 82.5394 83.3301 83.3994C83.3301 84.2594 84.0201 84.9494 84.8801 84.9494C85.7401 84.9394 86.4301 84.2394 86.4301 83.3994Z" fill="#50E6FF"/>
<path fill-rule="evenodd" clip-rule="evenodd" d="M83.2295 83.3995C83.2295 82.4843 83.9643 81.7495 84.8795 81.7495C85.7947 81.7495 86.5295 82.4843 86.5295 83.3995C86.5295 84.295 85.7947 85.0389 84.8807 85.0495L84.8795 85.0495C83.9643 85.0495 83.2295 84.3147 83.2295 83.3995ZM84.8795 81.9495C84.0747 81.9495 83.4295 82.5947 83.4295 83.3995C83.4295 84.2041 84.0744 84.8492 84.8789 84.8495C85.6845 84.8398 86.3295 84.1839 86.3295 83.3995C86.3295 82.5947 85.6843 81.9495 84.8795 81.9495Z" fill="white"/>
<path d="M93.4301 83.3994C93.4301 82.5394 92.7401 81.8494 91.8801 81.8494C91.0201 81.8494 90.3301 82.5394 90.3301 83.3994C90.3301 84.2594 91.0201 84.9494 91.8801 84.9494C92.7301 84.9394 93.4301 84.2394 93.4301 83.3994Z" fill="#50E6FF"/>
<path fill-rule="evenodd" clip-rule="evenodd" d="M90.2295 83.3995C90.2295 82.4843 90.9643 81.7495 91.8795 81.7495C92.7947 81.7495 93.5295 82.4843 93.5295 83.3995C93.5295 84.2954 92.7843 85.0389 91.8807 85.0495L91.8795 85.0495C90.9643 85.0495 90.2295 84.3147 90.2295 83.3995ZM91.8795 81.9495C91.0747 81.9495 90.4295 82.5947 90.4295 83.3995C90.4295 84.2041 91.0744 84.8492 91.8789 84.8495C92.675 84.8398 93.3295 84.1834 93.3295 83.3995C93.3295 82.5947 92.6843 81.9495 91.8795 81.9495Z" fill="white"/>
<path d="M72.4203 76.3295C72.4203 75.4695 71.7303 74.7795 70.8703 74.7795C70.0103 74.7795 69.3203 75.4695 69.3203 76.3295C69.3203 77.1895 70.0103 77.8795 70.8703 77.8795C71.7203 77.8695 72.4203 77.1695 72.4203 76.3295Z" fill="#9CEBFF"/>
<path fill-rule="evenodd" clip-rule="evenodd" d="M69.2197 76.3294C69.2197 75.4142 69.9545 74.6794 70.8697 74.6794C71.7849 74.6794 72.5197 75.4142 72.5197 76.3294C72.5197 77.2253 71.7746 77.9688 70.8709 77.9794L70.8697 77.9794C69.9545 77.9794 69.2197 77.2447 69.2197 76.3294ZM70.8697 74.8794C70.065 74.8794 69.4197 75.5247 69.4197 76.3294C69.4197 77.134 70.0646 77.7791 70.8691 77.7794C71.6652 77.7698 72.3197 77.1134 72.3197 76.3294C72.3197 75.5247 71.6745 74.8794 70.8697 74.8794Z" fill="white"/>
<path d="M79.4203 76.3295C79.4203 75.4695 78.7303 74.7795 77.8703 74.7795C77.0103 74.7795 76.3203 75.4695 76.3203 76.3295C76.3203 77.1895 77.0103 77.8795 77.8703 77.8795C78.7303 77.8695 79.4203 77.1695 79.4203 76.3295Z" fill="#9CEBFF"/>
<path fill-rule="evenodd" clip-rule="evenodd" d="M76.2197 76.3294C76.2197 75.4142 76.9545 74.6794 77.8697 74.6794C78.7849 74.6794 79.5197 75.4142 79.5197 76.3294C79.5197 77.2249 78.785 77.9688 77.8709 77.9794L77.8697 77.9794C76.9545 77.9794 76.2197 77.2447 76.2197 76.3294ZM77.8697 74.8794C77.065 74.8794 76.4197 75.5247 76.4197 76.3294C76.4197 77.134 77.0646 77.7791 77.8691 77.7794C78.6748 77.7698 79.3197 77.1138 79.3197 76.3294C79.3197 75.5247 78.6745 74.8794 77.8697 74.8794Z" fill="white"/>
<path d="M58.4096 76.3295C58.4096 75.4695 57.7196 74.7795 56.8596 74.7795C55.9996 74.7795 55.3096 75.4695 55.3096 76.3295C55.3096 77.1895 55.9996 77.8795 56.8596 77.8795C57.7196 77.8795 58.4096 77.1695 58.4096 76.3295Z" fill="#9CEBFF"/>
<path fill-rule="evenodd" clip-rule="evenodd" d="M55.21 76.3294C55.21 75.4142 55.9447 74.6794 56.86 74.6794C57.7752 74.6794 58.51 75.4142 58.51 76.3294C58.51 77.2238 57.776 77.9794 56.86 77.9794C55.9447 77.9794 55.21 77.2447 55.21 76.3294ZM56.86 74.8794C56.0552 74.8794 55.41 75.5247 55.41 76.3294C55.41 77.1342 56.0552 77.7794 56.86 77.7794C57.6639 77.7794 58.31 77.1151 58.31 76.3294C58.31 75.5247 57.6647 74.8794 56.86 74.8794Z" fill="white"/>
<path d="M65.4103 76.3295C65.4103 75.4695 64.7203 74.7795 63.8603 74.7795C63.0003 74.7795 62.3203 75.4695 62.3203 76.3295C62.3203 77.1895 63.0103 77.8795 63.8603 77.8795C64.7003 77.8695 65.4103 77.1695 65.4103 76.3295Z" fill="#9CEBFF"/>
<path fill-rule="evenodd" clip-rule="evenodd" d="M62.2197 76.3294C62.2197 75.4151 62.9437 74.6794 63.8597 74.6794C64.775 74.6794 65.5097 75.4142 65.5097 76.3294C65.5097 77.2257 64.7541 77.9688 63.8609 77.9794L63.8597 77.9794C62.9541 77.9794 62.2197 77.2442 62.2197 76.3294ZM63.8597 74.8794C63.0558 74.8794 62.4197 75.5238 62.4197 76.3294C62.4197 77.1344 63.065 77.7791 63.8591 77.7794C64.6456 77.7698 65.3097 77.113 65.3097 76.3294C65.3097 75.5247 64.6645 74.8794 63.8597 74.8794Z" fill="white"/>
<path d="M86.4301 76.3295C86.4301 75.4695 85.7401 74.7795 84.8801 74.7795C84.0201 74.7795 83.3301 75.4695 83.3301 76.3295C83.3301 77.1895 84.0201 77.8795 84.8801 77.8795C85.7401 77.8695 86.4301 77.1695 86.4301 76.3295Z" fill="#9CEBFF"/>
<path fill-rule="evenodd" clip-rule="evenodd" d="M83.2295 76.3294C83.2295 75.4142 83.9643 74.6794 84.8795 74.6794C85.7947 74.6794 86.5295 75.4142 86.5295 76.3294C86.5295 77.2249 85.7947 77.9688 84.8807 77.9794L84.8795 77.9794C83.9643 77.9794 83.2295 77.2447 83.2295 76.3294ZM84.8795 74.8794C84.0747 74.8794 83.4295 75.5247 83.4295 76.3294C83.4295 77.134 84.0744 77.7791 84.8789 77.7794C85.6845 77.7698 86.3295 77.1138 86.3295 76.3294C86.3295 75.5247 85.6843 74.8794 84.8795 74.8794Z" fill="white"/>
<path d="M93.4301 76.3295C93.4301 75.4695 92.7401 74.7795 91.8801 74.7795C91.0201 74.7795 90.3301 75.4695 90.3301 76.3295C90.3301 77.1895 91.0201 77.8795 91.8801 77.8795C92.7301 77.8695 93.4301 77.1695 93.4301 76.3295Z" fill="#50E6FF"/>
<path fill-rule="evenodd" clip-rule="evenodd" d="M90.2295 76.3294C90.2295 75.4142 90.9643 74.6794 91.8795 74.6794C92.7947 74.6794 93.5295 75.4142 93.5295 76.3294C93.5295 77.2253 92.7843 77.9688 91.8807 77.9794L91.8795 77.9794C90.9643 77.9794 90.2295 77.2447 90.2295 76.3294ZM91.8795 74.8794C91.0747 74.8794 90.4295 75.5247 90.4295 76.3294C90.4295 77.134 91.0744 77.7791 91.8789 77.7794C92.675 77.7698 93.3295 77.1134 93.3295 76.3294C93.3295 75.5247 92.6843 74.8794 91.8795 74.8794Z" fill="white"/>
<path d="M125.459 98.6394C125.459 97.9794 124.919 97.4294 124.249 97.4294H105.609C104.949 97.4294 104.399 97.9694 104.399 98.6394C104.399 99.2994 104.939 99.8494 105.609 99.8494H124.259C124.929 99.8394 125.459 99.3094 125.459 98.6394Z" fill="#50E6FF"/>
<path d="M108.909 98.6395C108.909 99.9595 109.989 101.03 111.299 101.03C112.619 101.03 113.689 99.9495 113.689 98.6395C113.689 97.3195 112.609 96.2495 111.299 96.2495C109.979 96.2495 108.909 97.3195 108.909 98.6395Z" fill="#0D3868"/>
<path d="M125.459 104.73C125.459 104.07 124.919 103.52 124.249 103.52H105.609C104.949 103.52 104.399 104.06 104.399 104.73C104.399 105.39 104.939 105.94 105.609 105.94H124.259C124.929 105.93 125.459 105.4 125.459 104.73Z" fill="#32B0E7"/>
<path d="M116.119 104.729C116.119 106.049 117.199 107.119 118.509 107.119C119.829 107.119 120.899 106.039 120.899 104.729C120.899 103.409 119.819 102.339 118.509 102.339C117.189 102.329 116.119 103.399 116.119 104.729Z" fill="#0D3868"/>
<path d="M125.459 111.169C125.459 110.509 124.919 109.959 124.249 109.959H105.609C104.949 109.959 104.399 110.499 104.399 111.169C104.399 111.839 104.939 112.379 105.609 112.379H124.259C124.929 112.379 125.459 111.839 125.459 111.169Z" fill="#185A97"/>
<path d="M108.989 111.17C108.989 112.49 110.069 113.56 111.379 113.56C112.699 113.56 113.769 112.48 113.769 111.17C113.769 109.85 112.689 108.78 111.379 108.78C110.059 108.77 108.989 109.85 108.989 111.17Z" fill="#0D3868"/>
<path d="M110.629 88.3693V86.1493C110.629 85.5493 110.149 85.0693 109.549 85.0693C108.949 85.0693 108.469 85.5493 108.469 86.1493V88.3693C108.469 88.9693 108.949 89.4493 109.549 89.4493C110.149 89.4493 110.629 88.9693 110.629 88.3693Z" fill="#50E6FF"/>
<path d="M106.359 88.3694V87.9194C106.359 87.3194 105.879 86.8394 105.279 86.8394C104.679 86.8394 104.199 87.3194 104.199 87.9194V88.3694C104.199 88.9694 104.679 89.4494 105.279 89.4494C105.879 89.4494 106.359 88.9694 106.359 88.3694Z" fill="#9CEBFF"/>
<path d="M114.999 88.3895V84.0195C114.999 83.4195 114.519 82.9395 113.919 82.9395C113.319 82.9395 112.839 83.4195 112.839 84.0195V88.3795C112.839 88.9795 113.319 89.4595 113.919 89.4595C114.519 89.4495 114.999 88.9695 114.999 88.3895Z" fill="#32B0E7"/>
<path d="M123.68 88.3694V74.1794C123.68 73.5794 123.2 73.0994 122.6 73.0994C122 73.0994 121.52 73.5794 121.52 74.1794V88.3694C121.52 88.9694 122 89.4494 122.6 89.4494C123.2 89.4494 123.68 88.9694 123.68 88.3694Z" fill="#185A97"/>
<path d="M119.309 88.3693V79.6293C119.309 79.0293 118.829 78.5493 118.229 78.5493C117.629 78.5493 117.149 79.0293 117.149 79.6293V88.3693C117.149 88.9693 117.629 89.4493 118.229 89.4493C118.809 89.4493 119.309 88.9693 119.309 88.3693Z" fill="#0078D4"/>
<path opacity="0.15" d="M139.51 140.53C148.67 140.53 156.08 133.11 156.08 123.96C156.08 114.81 148.66 107.39 139.51 107.39C130.35 107.39 122.94 114.81 122.94 123.96C122.94 133.11 130.37 140.53 139.51 140.53Z" fill="#1F1D20"/>
<path d="M139.51 139.21C148.67 139.21 156.08 131.79 156.08 122.64C156.08 113.49 148.66 106.07 139.51 106.07C130.35 106.07 122.94 113.49 122.94 122.64C122.94 131.79 130.37 139.21 139.51 139.21Z" fill="#002D4C"/>
<path d="M148.52 114.199L134.86 127.909L130.77 123.799L128.04 126.549L134.87 133.389L151.27 116.939L148.52 114.199Z" fill="#FAF9F8"/>
<defs>
<linearGradient id="paint0_linear" x1="90.0301" y1="9.29926" x2="90.0301" y2="180.7" gradientUnits="userSpaceOnUse">
<stop stop-color="#00ABDE"/>
<stop offset="1" stop-color="#007ED8"/>
</linearGradient>
<linearGradient id="paint1_linear" x1="86.7123" y1="-2.95727" x2="95.2163" y2="248.76" gradientUnits="userSpaceOnUse">
<stop stop-color="#007ED8"/>
<stop offset="0.7065" stop-color="#002D4C"/>
</linearGradient>
</defs>
</svg>
