<svg width="102" height="102" viewBox="0 0 102 102" fill="none" xmlns="https://www.w3.org/2000/svg">
<path d="M50.9999 97.8104C25.1499 97.8104 4.18994 76.8604 4.18994 51.0004C4.18994 25.1404 25.1499 4.19043 50.9999 4.19043C76.8499 4.19043 97.8099 25.1504 97.8099 51.0004C97.8099 76.8504 76.8499 97.8104 50.9999 97.8104Z" fill="url(#paint0_linear)"/>
<path fill-rule="evenodd" clip-rule="evenodd" d="M96.9001 51.0004C96.9001 76.3504 76.3501 96.9004 51.0001 96.9004C25.6501 96.9004 5.10011 76.3504 5.10011 51.0004C5.10011 25.6504 25.6501 5.10035 51.0001 5.10035C76.3501 5.10035 96.9001 25.6504 96.9001 51.0004ZM51.0001 1.36035C78.4201 1.36035 100.64 23.5804 100.64 51.0004C100.64 78.4204 78.4101 100.64 51.0001 100.64C23.5801 100.64 1.36011 78.4104 1.36011 51.0004C1.36011 23.5804 23.5801 1.36035 51.0001 1.36035Z" fill="#F2F1F0"/>
<path fill-rule="evenodd" clip-rule="evenodd" d="M94.0899 50.9999C94.0899 74.7999 74.7999 94.0899 50.9999 94.0899C27.1999 94.0899 7.90992 74.7999 7.90992 50.9999C7.90992 27.1999 27.1999 7.90992 50.9999 7.90992C74.7999 7.90992 94.0899 27.1999 94.0899 50.9999ZM50.9999 4.16992C76.8599 4.16992 97.8299 25.1399 97.8299 50.9999C97.8299 76.8599 76.8599 97.8299 50.9999 97.8299C25.1399 97.8299 4.16992 76.8599 4.16992 50.9999C4.16992 25.1399 25.1299 4.16992 50.9999 4.16992Z" fill="url(#paint1_linear)"/>
<path opacity="0.15" d="M88.48 54.0698L76 41.5898L75.77 47.2098H47.01V59.5698H75.71L76 66.5598L88.48 54.0698Z" fill="#1F1D20"/>
<path d="M88.48 51.1499L76 38.6699L75.77 44.2899H47.01V56.6499H75.71L76 63.6299L88.48 51.1499Z" fill="white"/>
<path opacity="0.2" d="M70.8401 71.7199L44.7901 56.6699L18.5701 71.7199L44.8801 87.0299L70.8401 71.7199Z" fill="#1F1D21"/>
<path d="M70.84 35.8301V66.1001L44.79 81.3801V51.1001L70.84 35.8301Z" fill="#75CFEB"/>
<path d="M70.8401 35.8297L44.7101 51.0996L18.5701 35.8297L44.7001 20.6396L70.8401 35.8297Z" fill="#C6E9F7"/>
<path d="M44.7902 51.1001V81.3701L18.6602 66.1101V35.8301L44.7902 51.1001Z" fill="#A6DEF3"/>
<path d="M18.6602 66.0199L44.7902 50.9199V81.1899L18.6602 66.0199Z" fill="#C6E9F7"/>
<path d="M70.84 66.0199L44.71 50.9199V81.1899L70.84 66.0199Z" fill="#A6DEF3"/>
<path d="M48.21 74.0497V70.8997L61.64 63.1396V66.2896L48.21 74.0497Z" fill="white"/>
<path d="M48.21 61.6796V58.6096L61.64 50.8496V53.9196L48.21 61.6796Z" fill="white"/>
<path d="M48.21 67.8193V64.7493L61.64 56.9893V60.1393L48.21 67.8193Z" fill="white"/>
<path d="M28.1699 38.2401C27.3899 38.4101 24.5999 40.5601 23.9399 42.4301C23.2799 44.3001 23.1699 48.6801 24.1399 52.5801C25.1099 56.4701 26.1999 57.8001 26.9399 59.3201C27.6799 60.8501 29.8199 64.8501 34.6799 68.0101C39.5399 71.1701 43.1799 68.9201 43.7299 68.3401C44.2799 67.7601 45.2299 66.2201 45.2499 65.6701C45.2699 65.1201 45.3599 65.1001 44.5299 64.3101C43.7099 63.5201 41.6499 61.1101 41.0299 60.4301C40.4099 59.7401 39.6599 59.5801 39.2099 59.8701C38.7499 60.1601 36.7799 61.5201 36.2599 61.7501C35.7399 61.9801 35.7199 62.3001 34.9099 61.5901C34.0999 60.8801 31.9499 58.4901 30.6899 55.8601C29.4199 53.2401 28.7699 49.9701 28.6399 49.2801C28.4999 48.5901 28.8799 48.4301 30.0299 47.8501C31.1899 47.2701 32.6199 46.8101 33.1099 46.5301C33.5999 46.2501 33.2499 45.7301 33.1899 44.9501C33.1299 44.1701 32.2399 40.0201 31.9999 39.1801C31.7599 38.3401 31.4199 38.3901 30.8499 38.2801C30.2799 38.1701 28.9099 38.0801 28.1699 38.2401Z" fill="#243A5E"/>
<defs>
<linearGradient id="paint0_linear" x1="49.23" y1="-13.7891" x2="53.212" y2="131.981" gradientUnits="userSpaceOnUse">
<stop stop-color="#00ABDE"/>
<stop offset="1" stop-color="#007ED8"/>
</linearGradient>
<linearGradient id="paint1_linear" x1="2.43262" y1="-20.6246" x2="97.9596" y2="120.257" gradientUnits="userSpaceOnUse">
<stop stop-color="#007ED8"/>
<stop offset="0.7065" stop-color="#002D4C"/>
</linearGradient>
</defs>
</svg>
