<svg width="103" height="103" viewBox="0 0 103 103" fill="none" xmlns="http://www.w3.org/2000/svg">
<path d="M51.0307 97.8558C25.1807 97.8558 4.2207 76.9058 4.2207 51.0458C4.2207 25.1858 25.1807 4.23584 51.0307 4.23584C76.8807 4.23584 97.8407 25.1958 97.8407 51.0458C97.8407 76.8958 76.8807 97.8558 51.0307 97.8558Z" fill="url(#paint0_linear)"/>
<path fill-rule="evenodd" clip-rule="evenodd" d="M96.9306 51.0459C96.9306 76.3959 76.3806 96.9459 51.0306 96.9459C25.6806 96.9459 5.13062 76.3959 5.13062 51.0459C5.13062 25.6959 25.6806 5.14588 51.0306 5.14588C76.3806 5.14588 96.9306 25.6959 96.9306 51.0459ZM51.0306 1.40588C78.4506 1.40588 100.671 23.6259 100.671 51.0459C100.671 78.4659 78.4406 100.686 51.0306 100.686C23.6106 100.686 1.39062 78.4559 1.39062 51.0459C1.39062 23.6259 23.6106 1.40588 51.0306 1.40588Z" fill="#F2F1F0"/>
<path fill-rule="evenodd" clip-rule="evenodd" d="M94.1202 51.0459C94.1202 74.8459 74.8302 94.1359 51.0302 94.1359C27.2302 94.1359 7.9402 74.8459 7.9402 51.0459C7.9402 27.2459 27.2302 7.95594 51.0302 7.95594C74.8302 7.95594 94.1202 27.2459 94.1202 51.0459ZM51.0302 4.21594C76.8902 4.21594 97.8602 25.1859 97.8602 51.0459C97.8602 76.9059 76.8902 97.8759 51.0302 97.8759C25.1702 97.8759 4.2002 76.9059 4.2002 51.0459C4.2002 25.1859 25.1602 4.21594 51.0302 4.21594Z" fill="url(#paint1_linear)"/>
<path opacity="0.2" d="M51.1005 69.7259C60.9477 69.7259 68.9305 61.7432 68.9305 51.8959C68.9305 42.0487 60.9477 34.0659 51.1005 34.0659C41.2533 34.0659 33.2705 42.0487 33.2705 51.8959C33.2705 61.7432 41.2533 69.7259 51.1005 69.7259Z" fill="#1F1D20"/>
<path d="M51.2206 68.4259C61.0679 68.4259 69.0506 60.4431 69.0506 50.5959C69.0506 40.7486 61.0679 32.7659 51.2206 32.7659C41.3734 32.7659 33.3906 40.7486 33.3906 50.5959C33.3906 60.4431 41.3734 68.4259 51.2206 68.4259Z" fill="#002D4C"/>
<g opacity="0.15">
<path opacity="0.15" d="M88.3605 47.016C88.3605 46.206 87.7005 45.546 86.8905 45.546C86.3605 45.546 83.0605 45.256 81.2905 43.876C81.2905 43.876 81.3005 43.856 81.2905 43.876C80.6205 41.436 79.6405 39.156 78.4305 36.996C78.1205 34.946 80.2405 33.456 81.2105 31.856C81.3805 31.576 81.4805 31.416 81.5405 31.306C81.7205 30.786 81.6205 30.186 81.2105 29.776C81.2105 29.776 79.5805 27.446 77.9105 25.786C76.2405 24.126 73.7105 22.276 73.7105 22.276C73.1405 21.706 72.2005 21.706 71.6305 22.276C71.2505 22.646 68.7405 24.716 66.4805 25.046C66.4505 25.046 66.4505 25.046 66.4505 25.046C64.3505 23.856 61.9905 22.876 59.6205 22.206H59.5905C57.9205 20.976 58.3605 18.426 57.9205 16.606C57.9205 15.796 57.2605 15.136 56.4505 15.136C56.4505 15.136 53.6505 14.646 51.2905 14.646C48.9305 14.646 45.8405 15.136 45.8405 15.136C45.0305 15.136 44.3705 15.796 44.3705 16.606C44.3705 17.136 44.0805 20.436 42.7005 22.206C40.3605 22.866 37.9005 23.906 35.8205 25.066C33.7705 25.376 32.2805 23.256 30.6805 22.286C30.4005 22.116 30.2405 22.016 30.1305 21.956C29.6105 21.776 29.0105 21.876 28.6005 22.286C28.6005 22.286 26.2705 23.916 24.6105 25.586C22.9505 27.256 21.1005 29.786 21.1005 29.786C20.5305 30.356 20.5305 31.296 21.1005 31.866C21.4705 32.236 23.6005 34.786 23.8805 37.006V37.026C22.7205 39.106 21.7005 41.556 21.0405 43.896C21.0405 43.896 21.0705 43.856 21.0405 43.896C19.6105 45.636 17.2605 45.126 15.4405 45.566C14.6305 45.566 13.9705 46.226 13.9705 47.036C13.9705 47.036 13.4805 49.836 13.4805 52.196C13.4805 54.556 13.9705 57.646 13.9705 57.646C13.9705 58.456 14.6305 59.116 15.4405 59.116C15.9705 59.116 19.2705 59.406 21.0405 60.786C21.0805 60.766 21.0605 60.816 21.0605 60.816C21.7405 63.166 22.7105 65.516 23.8905 67.596C23.8705 67.626 23.8905 67.596 23.9005 67.666C24.1005 69.806 22.0905 71.206 21.1205 72.806C20.9505 73.086 20.8505 73.246 20.7905 73.356C20.6105 73.876 20.7105 74.476 21.1205 74.886C21.1205 74.886 22.7505 77.216 24.4205 78.876C26.0905 80.546 28.6205 82.386 28.6205 82.386C29.1905 82.956 30.1305 82.956 30.7005 82.386C31.0705 82.016 33.6205 79.886 35.8405 79.606C35.8405 79.606 35.8305 79.616 35.8705 79.626C38.0105 80.816 40.2205 81.756 42.6405 82.416C42.6605 82.426 42.7305 82.446 42.7305 82.446C44.4005 83.676 43.9605 86.226 44.4005 88.046C44.4905 88.866 44.9405 89.386 45.8705 89.516C45.8705 89.516 48.6705 90.006 51.0305 90.006C53.3905 90.006 56.4805 89.526 56.4805 89.526C57.2905 89.386 57.9505 88.866 57.9505 88.056C57.9505 87.526 58.2405 84.226 59.6205 82.456C59.6205 82.456 59.6805 82.406 59.7405 82.356C62.2005 81.666 64.0705 80.906 66.2405 79.656C66.3505 79.616 66.2305 79.626 66.4905 79.586C68.5405 79.276 70.0305 81.396 71.6305 82.366C71.9105 82.536 72.0705 82.636 72.1805 82.696C72.7005 82.876 73.3005 82.776 73.7105 82.366C73.7105 82.366 76.0405 80.736 77.7005 79.066C79.3705 77.396 81.2105 74.866 81.2105 74.866C81.7805 74.296 81.7805 73.356 81.2105 72.786C80.8405 72.416 78.7105 69.866 78.4305 67.646C78.4005 67.416 78.4205 67.386 78.4505 67.326C79.6905 65.136 80.4705 63.536 81.1505 61.056C81.1505 61.056 81.1205 60.976 81.2805 60.766C82.5105 59.096 85.0605 59.536 86.8805 59.096C87.6905 59.096 88.3505 58.436 88.3505 57.626C88.3505 57.626 88.8405 54.826 88.8405 52.466C88.8405 50.106 88.3605 47.016 88.3605 47.016ZM72.9505 52.256C72.9505 64.346 63.1505 74.156 51.0505 74.156C38.9505 74.156 29.1505 64.356 29.1505 52.256C29.1505 40.166 38.9505 30.356 51.0505 30.356C63.1505 30.356 72.9505 40.166 72.9505 52.256Z" fill="#1F1D20"/>
<path opacity="0.15" d="M72.2104 82.716C72.2004 82.716 72.2004 82.7061 72.1904 82.7061C72.2004 82.7061 72.2104 82.716 72.2104 82.716Z" fill="#1F1D20"/>
<path opacity="0.15" d="M72.1906 82.706C71.9806 82.576 71.6406 82.376 71.6406 82.376C71.8006 82.526 71.9906 82.636 72.1906 82.706Z" fill="#1F1D20"/>
<path opacity="0.15" d="M72.2109 82.7159C72.4009 82.8259 72.3609 82.8059 72.2109 82.7159V82.7159Z" fill="#1F1D20"/>
<path opacity="0.15" d="M30.1406 21.9561C30.3506 22.0861 30.6906 22.2861 30.6906 22.2861C30.5306 22.1361 30.3406 22.0261 30.1406 21.9561Z" fill="#1F1D20"/>
<path opacity="0.15" d="M30.1201 21.946C30.1301 21.946 30.1301 21.956 30.1401 21.956C30.1301 21.956 30.1201 21.946 30.1201 21.946Z" fill="#1F1D20"/>
<path opacity="0.15" d="M30.1201 21.946C29.9301 21.836 29.9701 21.856 30.1201 21.946V21.946Z" fill="#1F1D20"/>
<path opacity="0.15" d="M20.7803 73.376C20.6703 73.566 20.6903 73.526 20.7803 73.376V73.376Z" fill="#1F1D20"/>
<path opacity="0.15" d="M20.7803 73.376C20.7803 73.366 20.7903 73.366 20.7903 73.356C20.7903 73.366 20.7803 73.376 20.7803 73.376Z" fill="#1F1D20"/>
<path opacity="0.15" d="M20.79 73.356C20.92 73.146 21.12 72.806 21.12 72.806C20.97 72.966 20.86 73.156 20.79 73.356Z" fill="#1F1D20"/>
<path opacity="0.15" d="M81.5409 31.306C81.4109 31.516 81.2109 31.856 81.2109 31.856C81.3609 31.696 81.4709 31.506 81.5409 31.306Z" fill="#1F1D20"/>
<path opacity="0.15" d="M81.55 31.286C81.55 31.296 81.54 31.296 81.54 31.306C81.54 31.296 81.55 31.286 81.55 31.286Z" fill="#1F1D20"/>
<path opacity="0.15" d="M81.5508 31.286C81.6608 31.096 81.6408 31.136 81.5508 31.286V31.286Z" fill="#1F1D20"/>
</g>
<path d="M60.9106 42.5759H41.4306C40.5806 42.5759 39.8906 43.2659 39.8906 44.1159C39.8906 44.9659 40.5806 45.6559 41.4306 45.6559H60.8906C61.7406 45.6559 62.4306 44.9659 62.4306 44.1159C62.4306 43.2459 61.7406 42.5759 60.9106 42.5759Z" fill="#50E6FF"/>
<path d="M60.9106 49.226H41.4306C40.5806 49.226 39.8906 49.916 39.8906 50.766C39.8906 51.616 40.5806 52.306 41.4306 52.306H60.8906C61.7406 52.306 62.4306 51.616 62.4306 50.766C62.4306 49.916 61.7406 49.226 60.9106 49.226Z" fill="#3BCAF4"/>
<path fill-rule="evenodd" clip-rule="evenodd" d="M41.4306 56.3959H51.1706C52.0206 56.3959 52.7106 57.0859 52.7106 57.9359C52.7106 58.7859 52.0206 59.4759 51.1706 59.4759H41.4306C40.5806 59.4759 39.8906 58.7859 39.8906 57.9359C39.9006 57.0959 40.5706 56.3959 41.4306 56.3959Z" fill="#0078D4"/>
<path d="M88.3605 45.306C88.3605 44.496 87.7005 43.836 86.8905 43.836C86.3605 43.836 83.0605 43.546 81.2905 42.166C81.2905 42.166 81.3005 42.146 81.2905 42.166C80.6205 39.726 79.6405 37.446 78.4305 35.286C78.1205 33.236 80.2405 31.746 81.2105 30.146C81.3805 29.866 81.4805 29.706 81.5405 29.596C81.7205 29.076 81.6205 28.476 81.2105 28.066C81.2105 28.066 79.5805 25.736 77.9105 24.076C76.2405 22.416 73.7105 20.566 73.7105 20.566C73.1405 19.996 72.2005 19.996 71.6305 20.566C71.2505 20.936 68.7405 23.006 66.4805 23.336C66.4505 23.336 66.4505 23.336 66.4505 23.336C64.3505 22.146 61.9905 21.166 59.6205 20.496H59.5905C57.9205 19.266 58.3605 16.716 57.9205 14.896C57.9205 14.086 57.2605 13.426 56.4505 13.426C56.4505 13.426 53.6505 12.936 51.2905 12.936C48.9305 12.936 45.8405 13.426 45.8405 13.426C45.0305 13.426 44.3705 14.086 44.3705 14.896C44.3705 15.426 44.0805 18.726 42.7005 20.496C40.3605 21.156 37.9005 22.196 35.8205 23.356C33.7705 23.666 32.2805 21.546 30.6805 20.576C30.4005 20.406 30.2405 20.306 30.1305 20.246C29.6105 20.066 29.0105 20.166 28.6005 20.576C28.6005 20.576 26.2705 22.206 24.6105 23.876C22.9505 25.546 21.1005 28.076 21.1005 28.076C20.5305 28.646 20.5305 29.586 21.1005 30.156C21.4705 30.526 23.6005 33.076 23.8805 35.296V35.316C22.7205 37.396 21.7005 39.846 21.0405 42.186C21.0405 42.186 21.0705 42.146 21.0405 42.186C19.6105 43.926 17.2605 43.416 15.4405 43.856C14.6305 43.856 13.9705 44.516 13.9705 45.326C13.9705 45.326 13.4805 48.126 13.4805 50.486C13.4805 52.846 13.9705 55.936 13.9705 55.936C13.9705 56.746 14.6305 57.406 15.4405 57.406C15.9705 57.406 19.2705 57.696 21.0405 59.076C21.0805 59.056 21.0605 59.106 21.0605 59.106C21.7405 61.456 22.7105 63.806 23.8905 65.886C23.8705 65.916 23.8905 65.886 23.9005 65.956C24.1005 68.096 22.0905 69.496 21.1205 71.096C20.9505 71.376 20.8505 71.536 20.7905 71.646C20.6105 72.166 20.7105 72.766 21.1205 73.176C21.1205 73.176 22.7505 75.506 24.4205 77.166C26.0905 78.836 28.6205 80.676 28.6205 80.676C29.1905 81.246 30.1305 81.246 30.7005 80.676C31.0705 80.306 33.6205 78.176 35.8405 77.896C35.8405 77.896 35.8305 77.906 35.8705 77.916C38.0105 79.106 40.2205 80.046 42.6405 80.706C42.6605 80.716 42.7305 80.736 42.7305 80.736C44.4005 81.966 43.9605 84.516 44.4005 86.336C44.4905 87.156 44.9405 87.676 45.8705 87.806C45.8705 87.806 48.6705 88.296 51.0305 88.296C53.3905 88.296 56.4805 87.816 56.4805 87.816C57.2905 87.676 57.9505 87.156 57.9505 86.346C57.9505 85.816 58.2405 82.516 59.6205 80.746C59.6205 80.746 59.6805 80.696 59.7405 80.646C62.2005 79.956 64.0705 79.196 66.2405 77.946C66.3505 77.906 66.2305 77.916 66.4905 77.876C68.5405 77.566 70.0305 79.686 71.6305 80.656C71.9105 80.826 72.0705 80.926 72.1805 80.986C72.7005 81.166 73.3005 81.066 73.7105 80.656C73.7105 80.656 76.0405 79.026 77.7005 77.356C79.3705 75.686 81.2105 73.156 81.2105 73.156C81.7805 72.586 81.7805 71.646 81.2105 71.076C80.8405 70.706 78.7105 68.156 78.4305 65.936C78.4005 65.706 78.4205 65.676 78.4505 65.616C79.6905 63.426 80.4705 61.826 81.1505 59.346C81.1505 59.346 81.1205 59.266 81.2805 59.056C82.5105 57.386 85.0605 57.826 86.8805 57.386C87.6905 57.386 88.3505 56.726 88.3505 55.916C88.3505 55.916 88.8405 53.116 88.8405 50.756C88.8405 48.396 88.3605 45.306 88.3605 45.306ZM72.9505 50.546C72.9505 62.636 63.1505 72.446 51.0505 72.446C38.9505 72.446 29.1505 62.646 29.1505 50.546C29.1505 38.456 38.9505 28.646 51.0505 28.646C63.1505 28.646 72.9505 38.456 72.9505 50.546Z" fill="#F2F1F0"/>
<path d="M72.2104 81.0061C72.2004 81.0061 72.2004 80.9961 72.1904 80.9961C72.2004 80.9961 72.2104 81.0061 72.2104 81.0061Z" fill="#F2F1F0"/>
<path d="M72.1906 80.996C71.9806 80.866 71.6406 80.666 71.6406 80.666C71.8006 80.816 71.9906 80.926 72.1906 80.996Z" fill="#F2F1F0"/>
<path d="M72.2109 81.006C72.4009 81.116 72.3609 81.096 72.2109 81.006V81.006Z" fill="#F2F1F0"/>
<path d="M30.1406 20.2461C30.3506 20.3761 30.6906 20.5761 30.6906 20.5761C30.5306 20.4261 30.3406 20.3161 30.1406 20.2461Z" fill="#F2F1F0"/>
<path d="M30.1201 20.2361C30.1301 20.2361 30.1301 20.2461 30.1401 20.2461C30.1301 20.2461 30.1201 20.2361 30.1201 20.2361Z" fill="#F2F1F0"/>
<path d="M30.1201 20.2361C29.9301 20.1261 29.9701 20.1461 30.1201 20.2361V20.2361Z" fill="#F2F1F0"/>
<path d="M20.7803 71.666C20.6703 71.856 20.6903 71.816 20.7803 71.666V71.666Z" fill="#F2F1F0"/>
<path d="M20.7803 71.666C20.7803 71.656 20.7903 71.656 20.7903 71.646C20.7903 71.656 20.7803 71.666 20.7803 71.666Z" fill="#F2F1F0"/>
<path d="M20.79 71.6461C20.92 71.4361 21.12 71.0961 21.12 71.0961C20.97 71.2561 20.86 71.4461 20.79 71.6461Z" fill="#F2F1F0"/>
<path d="M81.5409 29.5961C81.4109 29.8061 81.2109 30.1461 81.2109 30.1461C81.3609 29.9861 81.4709 29.7961 81.5409 29.5961Z" fill="#F2F1F0"/>
<path d="M81.55 29.576C81.55 29.586 81.54 29.586 81.54 29.596C81.54 29.586 81.55 29.576 81.55 29.576Z" fill="#F2F1F0"/>
<path d="M81.5508 29.5761C81.6608 29.3861 81.6408 29.4261 81.5508 29.5761V29.5761Z" fill="#F2F1F0"/>
<path d="M75.1801 81.2659C80.3501 81.2659 84.5301 77.0759 84.5301 71.9159C84.5301 66.7559 80.3401 62.5659 75.1801 62.5659C70.0101 62.5659 65.8301 66.7559 65.8301 71.9159C65.8301 77.0759 70.0201 81.2659 75.1801 81.2659Z" fill="#002D4C"/>
<path d="M80.27 67.1559L72.56 74.8959L70.25 72.5759L68.71 74.1259L72.56 77.9859L81.81 68.7059L80.27 67.1559Z" fill="#FAF9F8"/>
<defs>
<linearGradient id="paint0_linear" x1="49.2602" y1="-13.7482" x2="53.2432" y2="132.021" gradientUnits="userSpaceOnUse">
<stop stop-color="#00ABDE"/>
<stop offset="1" stop-color="#007ED8"/>
</linearGradient>
<linearGradient id="paint1_linear" x1="51.0302" y1="-2.44606" x2="51.0302" y2="99.3176" gradientUnits="userSpaceOnUse">
<stop stop-color="#007ED8"/>
<stop offset="0.7065" stop-color="#002D4C"/>
</linearGradient>
</defs>
</svg>
