<svg width="100" height="100" viewBox="0 0 100 100" fill="none" xmlns="http://www.w3.org/2000/svg">
<g clip-path="url(#clip0_1152_423)">
<path d="M49.6401 97.09C40.382 97.09 31.3317 94.3446 23.6339 89.2011C15.936 84.0575 9.93624 76.7468 6.3933 68.1934C2.85036 59.64 1.92337 50.2281 3.72954 41.1478C5.53571 32.0676 9.99394 23.7268 16.5404 17.1803C23.0869 10.6338 31.4277 6.17561 40.5079 4.36943C49.5882 2.56326 59.0001 3.49025 67.5535 7.03319C76.1069 10.5761 83.4176 16.5759 88.5612 24.2737C93.7047 31.9716 96.4501 41.0218 96.4501 50.28C96.4505 56.4273 95.24 62.5145 92.8878 68.1939C90.5355 73.8734 87.0875 79.0338 82.7407 83.3806C78.3939 87.7274 73.2335 91.1754 67.554 93.5277C61.8746 95.8799 55.7874 97.0904 49.6401 97.09V97.09Z" fill="url(#paint0_linear_1152_423)"/>
<path fill-rule="evenodd" clip-rule="evenodd" d="M95.54 50.28C95.54 59.3581 92.848 68.2324 87.8045 75.7807C82.7609 83.3289 75.5923 89.212 67.2052 92.6861C58.818 96.1601 49.5891 97.0691 40.6854 95.298C31.7816 93.527 23.603 89.1554 17.1838 82.7362C10.7646 76.317 6.39302 68.1384 4.62196 59.2346C2.85089 50.3309 3.75987 41.1019 7.23393 32.7148C10.708 24.3277 16.5911 17.1591 24.1393 12.1155C31.6875 7.07197 40.5618 4.37998 49.64 4.37998C55.6677 4.37996 61.6363 5.56719 67.2052 7.87387C72.774 10.1806 77.834 13.5615 82.0963 17.8237C86.3585 22.0859 89.7394 27.1459 92.0461 32.7148C94.3528 38.2836 95.54 44.2523 95.54 50.28V50.28ZM49.64 0.639984C59.4579 0.639984 69.0553 3.55132 77.2185 9.00583C85.3818 14.4603 91.7442 22.2131 95.5014 31.2836C99.2585 40.3541 100.242 50.3351 98.3262 59.9643C96.4108 69.5935 91.6831 78.4385 84.7408 85.3808C77.7985 92.323 68.9535 97.0508 59.3243 98.9662C49.6951 100.882 39.7141 99.8985 30.6436 96.1414C21.5731 92.3842 13.8204 86.0217 8.36585 77.8585C2.91134 69.6952 3.62732e-07 60.0978 3.62732e-07 50.28C-0.000787738 43.7609 1.28265 37.3056 3.77702 31.2826C6.27138 25.2597 9.9278 19.7871 14.5375 15.1774C19.1471 10.5678 24.6197 6.91136 30.6427 4.417C36.6656 1.92264 43.121 0.639196 49.64 0.639984V0.639984Z" fill="#F2F1F0"/>
<path fill-rule="evenodd" clip-rule="evenodd" d="M92.7296 50.2801C92.7296 58.8025 90.2024 67.1335 85.4676 74.2196C80.7328 81.3057 74.0031 86.8287 66.1294 90.09C58.2557 93.3514 49.5918 94.2048 41.2331 92.5421C32.8745 90.8795 25.1966 86.7756 19.1703 80.7493C13.1441 74.7231 9.04017 67.0452 7.37753 58.6865C5.7149 50.3279 6.56822 41.6639 9.8296 33.7902C13.091 25.9166 18.6139 19.1868 25.7 14.452C32.7862 9.71726 41.1172 7.19007 49.6396 7.19007C55.2983 7.18973 60.9017 8.30405 66.1298 10.4694C71.3579 12.6348 76.1082 15.8087 80.1096 19.8101C84.1109 23.8114 87.2849 28.5618 89.4502 33.7898C91.6156 39.0179 92.7299 44.6213 92.7296 50.2801V50.2801ZM49.6396 3.45007C58.9017 3.45007 67.9558 6.1966 75.6569 11.3424C83.3581 16.4881 89.3604 23.8019 92.9049 32.359C96.4493 40.9161 97.3767 50.332 95.5697 59.4162C93.7628 68.5003 89.3027 76.8446 82.7534 83.3939C76.2041 89.9432 67.8598 94.4033 58.7757 96.2103C49.6915 98.0172 40.2756 97.0898 31.7185 93.5453C23.1614 90.0009 15.8476 83.9986 10.7018 76.2974C5.5561 68.5963 2.80957 59.5422 2.80957 50.2801C2.81076 37.8603 7.745 25.9496 16.5271 17.1676C25.3091 8.38548 37.2198 3.45124 49.6396 3.45004V3.45007Z" fill="#0078D4"/>
<path fill-rule="evenodd" clip-rule="evenodd" d="M92.7637 50.2801C92.7637 58.8025 90.2366 67.1335 85.5018 74.2196C80.767 81.3057 74.0372 86.8287 66.1636 90.09C58.2899 93.3514 49.6259 94.2048 41.2673 92.5421C32.9087 90.8795 25.2308 86.7756 19.2045 80.7493C13.1783 74.7231 9.07435 67.0452 7.41171 58.6865C5.74908 50.3279 6.6024 41.6639 9.86378 33.7902C13.1252 25.9166 18.6481 19.1868 25.7342 14.452C32.8203 9.71726 41.1514 7.19007 49.6738 7.19007C55.3325 7.18973 60.9359 8.30405 66.164 10.4694C71.3921 12.6348 76.1424 15.8087 80.1437 19.8101C84.1451 23.8114 87.3191 28.5618 89.4844 33.7898C91.6498 39.0179 92.7641 44.6213 92.7637 50.2801V50.2801ZM49.6738 3.45007C58.9359 3.45007 67.9899 6.1966 75.6911 11.3424C83.3923 16.4881 89.3946 23.8019 92.939 32.359C96.4835 40.9161 97.4109 50.332 95.6039 59.4162C93.797 68.5003 89.3369 76.8446 82.7876 83.3939C76.2383 89.9432 67.894 94.4033 58.8098 96.2103C49.7257 98.0172 40.3097 97.0898 31.7527 93.5453C23.1956 90.0009 15.8818 83.9986 10.736 76.2974C5.59028 68.5963 2.84375 59.5422 2.84375 50.2801C2.84494 37.8603 7.77918 25.9496 16.5612 17.1676C25.3433 8.38548 37.254 3.45124 49.6738 3.45004V3.45007Z" fill="#0078D4"/>
<path opacity="0.3" d="M49.64 85.3038C48.5064 85.3012 47.388 85.0429 46.368 84.548C27.9532 75.2924 19.772 63.2754 19.772 45.5484V31.1892C19.7743 29.2172 20.5588 27.3267 21.9532 25.9323C23.3477 24.5379 25.2383 23.7536 27.2103 23.7514C35.6955 23.7514 41.3559 22.1935 44.0346 19.1208C44.7368 18.3303 45.5982 17.6972 46.5624 17.2632C47.5265 16.8291 48.5716 16.6039 49.6289 16.6024C50.6863 16.6008 51.732 16.8229 52.6974 17.2541C53.6628 17.6853 54.5261 18.3158 55.2306 19.1043C57.9231 22.1935 63.5836 23.7514 72.0687 23.7514C74.0407 23.7536 75.9313 24.5379 77.3258 25.9323C78.7202 27.3267 79.5047 29.2172 79.507 31.1892V45.5484C79.507 63.2704 71.3258 75.2851 52.9798 84.5063C51.9447 85.031 50.8005 85.3042 49.64 85.3038Z" fill="#0078D4"/>
<path d="M73.4921 28.0256C62.5053 28.0256 55.1757 25.7448 51.0776 21.0439C50.8928 20.848 50.6699 20.6919 50.4226 20.5852C50.1754 20.4785 49.9089 20.4235 49.6396 20.4235C49.3702 20.4235 49.1038 20.4785 48.8565 20.5852C48.6092 20.6919 48.3863 20.848 48.2016 21.0439C44.1037 25.7448 36.7741 28.0256 25.7873 28.0256C25.5365 28.0255 25.2881 28.0748 25.0563 28.1707C24.8246 28.2667 24.614 28.4073 24.4367 28.5847C24.2593 28.7621 24.1187 28.9726 24.0228 29.2044C23.9268 29.4361 23.8775 29.6845 23.8777 29.9353V45.2055C23.8777 61.7128 31.323 72.5062 48.7812 81.2817C49.0485 81.4127 49.342 81.4815 49.6396 81.4827C49.9382 81.4825 50.2325 81.4109 50.4978 81.274C67.9561 72.4985 75.4016 61.7128 75.4016 45.2055V29.9353C75.4005 29.4292 75.199 28.9441 74.8411 28.5862C74.4833 28.2283 73.9982 28.0267 73.4921 28.0256V28.0256Z" fill="url(#paint1_linear_1152_423)"/>
<path d="M49.6394 22.3899L49.6426 22.3903C54.1337 27.4972 61.9178 29.9839 73.4352 29.9921V45.2055C73.4352 60.8572 66.3153 71.1174 49.6318 79.5084C32.9595 71.1189 25.8441 60.8579 25.8441 45.2055V29.9921C37.3657 29.9839 45.1515 27.4952 49.6366 22.39H49.6394M49.6539 79.5196L49.6722 79.5207L49.6643 79.5248L49.6539 79.5196M49.6395 20.4235C49.3695 20.4192 49.1017 20.4723 48.8538 20.5792C48.6059 20.6862 48.3835 20.8446 48.2014 21.044C44.1036 25.7449 36.7739 28.0257 25.7872 28.0257C25.5364 28.0256 25.288 28.0749 25.0563 28.1708C24.8246 28.2667 24.614 28.4074 24.4367 28.5848C24.2593 28.7621 24.1187 28.9727 24.0228 29.2044C23.9268 29.4362 23.8775 29.6846 23.8777 29.9354V45.2055C23.8777 61.7128 31.323 72.5062 48.7811 81.2817C49.0484 81.4127 49.342 81.4814 49.6396 81.4827C49.9382 81.4825 50.2325 81.4109 50.4978 81.274C67.9559 72.4985 75.4016 61.7127 75.4016 45.2055V29.9353C75.4005 29.4292 75.199 28.9441 74.8411 28.5862C74.4832 28.2283 73.9981 28.0267 73.492 28.0256C62.5053 28.0256 55.1755 25.7448 51.0775 21.044C50.8954 20.8446 50.6731 20.6862 50.4252 20.5792C50.1773 20.4722 49.9095 20.4191 49.6395 20.4235L49.6395 20.4235Z" fill="url(#paint2_linear_1152_423)"/>
<path d="M49.6394 57.7849C47.6204 57.7849 45.684 56.9828 44.2564 55.5552C42.8287 54.1275 42.0266 52.1912 42.0266 50.1721C42.0266 48.1531 42.8287 46.2167 44.2564 44.789C45.684 43.3614 47.6204 42.5593 49.6394 42.5593H49.6397V35.3997C47.2103 35.3997 44.8185 35.9988 42.6759 37.1439C40.5334 38.2891 38.7064 39.945 37.3567 41.9649C36.007 43.9848 35.1762 46.3065 34.9381 48.7241C34.7 51.1418 35.0617 53.5809 35.9914 55.8253C36.921 58.0698 38.3899 60.0503 40.2678 61.5915C42.1457 63.1327 44.3747 64.187 46.7574 64.6609C49.1401 65.1349 51.6029 65.0139 53.9277 64.3087C56.2524 63.6035 58.3674 62.3359 60.0852 60.6181L55.0199 55.5525C54.3143 56.2606 53.4758 56.8224 52.5524 57.2055C51.629 57.5886 50.6391 57.7855 49.6394 57.7849V57.7849Z" fill="white"/>
<path d="M64.4123 50.1722C64.4123 46.2543 62.8559 42.4968 60.0854 39.7265C57.315 36.9561 53.5576 35.3997 49.6396 35.3997V42.5593C50.7592 42.5502 51.8668 42.7903 52.8822 43.262C53.8976 43.7338 54.7954 44.4254 55.5106 45.2869C56.2257 46.1483 56.7404 47.158 57.0173 48.2429C57.2941 49.3277 57.3263 50.4606 57.1115 51.5594L64.155 52.8671C64.3229 51.9786 64.409 51.0765 64.4123 50.1722V50.1722Z" fill="#50E6FF"/>
<path d="M57.1115 51.5594C56.8342 53.0713 56.105 54.4635 55.02 55.5523V55.5524L60.0852 60.6181C62.1957 58.5064 63.615 55.8034 64.1551 52.8671L57.1115 51.5594Z" fill="#0078D4"/>
<path fill-rule="evenodd" clip-rule="evenodd" d="M53.3101 47.5996C53.1242 47.4139 52.8722 47.3096 52.6095 47.3096C52.3467 47.3096 52.0947 47.4139 51.9089 47.5996L48.6429 50.8633L47.4632 49.6949C47.4356 49.6539 47.4044 49.6155 47.37 49.5801C47.1855 49.3951 46.9353 49.2907 46.674 49.2895C46.4127 49.2882 46.1615 49.3904 45.9752 49.5736C45.789 49.7568 45.6827 50.0062 45.6795 50.2675C45.6764 50.5288 45.7767 50.7807 45.9585 50.9683L45.9466 50.9802L47.9453 52.9606C48.1312 53.1463 48.3833 53.2505 48.6461 53.2505C48.9089 53.2505 49.1609 53.1463 49.3469 52.9606L53.3071 49.0022L53.3101 48.9998C53.4021 48.9079 53.475 48.7987 53.5248 48.6786C53.5746 48.5585 53.6002 48.4297 53.6002 48.2997C53.6002 48.1697 53.5746 48.0409 53.5248 47.9208C53.475 47.8007 53.4021 47.6915 53.3101 47.5996V47.5996Z" fill="white"/>
<path d="M49.64 85.3038C48.5064 85.3012 47.388 85.0429 46.368 84.548C27.9532 75.2924 19.772 63.2754 19.772 45.5484V31.1892C19.7743 29.2172 20.5588 27.3267 21.9532 25.9323C23.3477 24.5379 25.2383 23.7536 27.2103 23.7514C35.6955 23.7514 41.3559 22.1935 44.0346 19.1208C44.7368 18.3303 45.5982 17.6972 46.5624 17.2632C47.5265 16.8291 48.5716 16.6039 49.6289 16.6024C50.6863 16.6008 51.732 16.8229 52.6974 17.2541C53.6628 17.6853 54.5261 18.3158 55.2306 19.1043C57.9231 22.1935 63.5836 23.7514 72.0687 23.7514C74.0407 23.7536 75.9313 24.5379 77.3258 25.9323C78.7202 27.3267 79.5047 29.2172 79.507 31.1892V45.5484C79.507 63.2704 71.3258 75.2851 52.9798 84.5063C51.9447 85.031 50.8005 85.3042 49.64 85.3038Z" stroke="#50E6FF" stroke-width="0.94035" stroke-miterlimit="10"/>
</g>
<defs>
<linearGradient id="paint0_linear_1152_423" x1="47.8697" y1="-14.5131" x2="51.8525" y2="131.255" gradientUnits="userSpaceOnUse">
<stop stop-color="#00ABDE"/>
<stop offset="1" stop-color="#007ED8"/>
</linearGradient>
<linearGradient id="paint1_linear_1152_423" x1="49.6396" y1="81.4828" x2="49.6396" y2="20.4235" gradientUnits="userSpaceOnUse">
<stop stop-color="#008BF1"/>
<stop offset="0.99498" stop-color="#0078D4"/>
</linearGradient>
<linearGradient id="paint2_linear_1152_423" x1="49.6396" y1="20.4235" x2="49.6396" y2="81.4828" gradientUnits="userSpaceOnUse">
<stop stop-color="#008BF1"/>
<stop offset="0.22" stop-color="#0086EC"/>
<stop offset="0.49" stop-color="#0078DD"/>
<stop offset="0.79" stop-color="#0061C4"/>
<stop offset="1" stop-color="#004DAE"/>
</linearGradient>
<clipPath id="clip0_1152_423">
<rect width="99.2799" height="99.28" fill="white" transform="translate(0 0.639984)"/>
</clipPath>
</defs>
</svg>
