<svg width="103" height="103" viewBox="0 0 103 103" fill="none" xmlns="http://www.w3.org/2000/svg">
<path d="M51.8007 98.0276C25.9507 98.0276 4.99072 77.0777 4.99072 51.2177C4.99072 25.3577 25.9507 4.40765 51.8007 4.40765C77.6507 4.40765 98.6107 25.3677 98.6107 51.2177C98.6107 77.0677 77.6507 98.0276 51.8007 98.0276Z" fill="url(#paint0_linear_908_27612)"/>
<path fill-rule="evenodd" clip-rule="evenodd" d="M97.7006 51.2178C97.7006 76.5678 77.1506 97.1178 51.8006 97.1178C26.4506 97.1178 5.90064 76.5678 5.90064 51.2178C5.90064 25.8678 26.4506 5.31776 51.8006 5.31776C77.1506 5.31776 97.7006 25.8678 97.7006 51.2178ZM51.8006 1.57776C79.2206 1.57776 101.441 23.7978 101.441 51.2178C101.441 78.6378 79.2106 100.858 51.8006 100.858C24.3806 100.858 2.16064 78.6278 2.16064 51.2178C2.16064 23.7978 24.3806 1.57776 51.8006 1.57776Z" fill="#F2F1F0"/>
<path fill-rule="evenodd" clip-rule="evenodd" d="M94.8907 51.2176C94.8907 75.0176 75.6007 94.3076 51.8007 94.3076C28.0007 94.3076 8.7107 75.0176 8.7107 51.2176C8.7107 27.4176 28.0007 8.12764 51.8007 8.12764C75.6007 8.12764 94.8907 27.4176 94.8907 51.2176ZM51.8007 4.38763C77.6607 4.38763 98.6307 25.3576 98.6307 51.2176C98.6307 77.0776 77.6607 98.0477 51.8007 98.0477C25.9407 98.0477 4.9707 77.0776 4.9707 51.2176C4.9707 25.3576 25.9307 4.38763 51.8007 4.38763Z" fill="url(#paint1_linear_908_27612)"/>
<g filter="url(#filter0_d_908_27612)">
<path d="M84.4459 31.2483H33.0127C31.9563 31.2483 31.1035 32.0629 31.1035 33.0557V68.49C31.1035 69.4827 31.9563 70.2973 33.0127 70.2973H84.4459C85.5023 70.2973 86.355 69.4827 86.355 68.49V33.0684C86.355 32.0629 85.4896 31.2483 84.4459 31.2483Z" fill="url(#paint2_linear_908_27612)"/>
</g>
<path d="M86.6598 36.4952L85.3497 35.2337L64.3763 57.0805C63.1147 58.4027 61.4407 59.1427 59.6575 59.1669C57.935 59.1912 56.2004 58.5119 54.8903 57.2382L33.371 36.2284L32.1094 37.5263L47.8668 52.9198L30.8843 67.0031L32.0488 68.3981L49.1769 54.1935L53.6409 58.5483C55.2542 60.1252 57.3649 60.9865 59.5726 60.9865C59.6212 60.9865 59.6697 60.9865 59.7061 60.9865C61.9744 60.9501 64.0973 60.0039 65.6985 58.3421L69.6894 54.1813L83.9183 66.1298L85.0828 64.7348L70.9509 52.8591L86.6598 36.4952Z" fill="url(#paint3_linear_908_27612)"/>
<path d="M85.1676 29.0837H32.2913C31.2117 29.0837 30.3262 29.9693 30.3262 31.0489V69.9631C30.3262 71.0427 31.2117 71.9282 32.2913 71.9282H85.1676C86.2472 71.9282 87.1328 71.0427 87.1328 69.9631V31.0489C87.1206 29.9693 86.2472 29.0837 85.1676 29.0837ZM83.6392 66.7486C83.6392 67.6462 82.8629 68.3862 81.9167 68.3862H35.5422C34.5961 68.3862 33.8197 67.6462 33.8197 66.7486V34.8093C33.8197 33.9116 34.5961 33.1717 35.5422 33.1717H81.9167C82.8629 33.1717 83.6392 33.8995 83.6392 34.8093V66.7486V66.7486Z" fill="url(#paint4_linear_908_27612)"/>
<path opacity="0.15" d="M85.1676 71.9282H32.2913C31.2117 71.9282 30.3262 71.0427 30.3262 69.9631V71.4308C30.3262 72.4983 31.2117 73.3838 32.2913 73.396H85.1676C86.2472 73.396 87.1328 72.5105 87.1328 71.4308V69.9631C87.1206 71.0427 86.2472 71.9282 85.1676 71.9282Z" fill="#1F1D20"/>
<path opacity="0.15" d="M81.9168 68.3862H35.5423C34.5962 68.3862 33.8198 67.6462 33.8198 66.7486V67.2945C33.8198 68.1921 34.5962 68.9321 35.5423 68.9321H81.9168C82.863 68.9321 83.6393 68.1921 83.6393 67.2945V66.7486C83.6393 67.6584 82.863 68.3862 81.9168 68.3862Z" fill="#1F1D20"/>
<circle opacity="0.15" cx="25.4187" cy="52.781" r="14.9983" fill="#1F1D20"/>
<g filter="url(#filter1_d_908_27612)">
<circle cx="25.4187" cy="51.7367" r="14.9983" fill="white"/>
</g>
<g filter="url(#filter2_d_908_27612)">
<path d="M33.1389 45.981C32.1939 45.9731 31.2585 45.79 30.3804 45.4408C29.2846 45.0577 28.3076 44.05 27.6333 43.6784C26.9968 43.2849 26.2589 43.0864 25.5108 43.1075C24.7264 43.0858 23.9515 43.2835 23.2733 43.6784C22.599 44.0615 21.5569 44.9772 20.4612 45.3642C19.5814 45.712 18.6448 45.8938 17.6988 45.9005C17.4689 45.9005 17.2773 45.9005 17.1202 45.9005C16.9837 45.9005 16.8528 45.9545 16.7559 46.0507C16.659 46.1469 16.604 46.2774 16.603 46.414V51.069C16.61 51.7217 16.7239 52.3688 16.9402 52.9846C17.1512 53.7691 17.4876 54.5143 17.9363 55.1914C18.4059 56.0124 18.9775 56.7706 19.6374 57.4481C20.5364 58.4049 21.5157 59.2829 22.5645 60.0725C23.2235 60.5629 25.5299 61.9614 25.5108 61.9077C25.5108 61.9614 27.7176 60.5629 28.3766 60.0725C29.3929 59.309 30.3392 58.4563 31.2041 57.5247C31.8646 56.8478 32.4363 56.0894 32.9052 55.2681C33.3518 54.5916 33.6869 53.8478 33.8975 53.0651C34.1135 52.4492 34.2274 51.8021 34.2347 51.1494V46.4791C34.2352 46.4115 34.2223 46.3445 34.1966 46.282C34.171 46.2195 34.1332 46.1627 34.0854 46.1149C34.0376 46.0671 33.9808 46.0293 33.9183 46.0037C33.8558 45.9781 33.7888 45.9652 33.7213 45.9657C33.5642 45.9657 33.3688 45.9695 33.1389 45.981Z" fill="white"/>
</g>
<g opacity="0.15" filter="url(#filter3_d_908_27612)">
<path d="M33.0683 45.8715C32.1319 45.8637 31.2051 45.6822 30.335 45.3362C29.2492 44.9566 28.2812 43.9582 27.6131 43.5899C26.9823 43.2 26.2512 43.0034 25.5099 43.0243C24.7327 43.0027 23.9648 43.1986 23.2929 43.5899C22.6248 43.9695 21.5922 44.8769 20.5065 45.2603C19.6347 45.6049 18.7067 45.7851 17.7693 45.7917C17.5415 45.7917 17.3517 45.7917 17.1961 45.7917C17.0608 45.7917 16.931 45.8452 16.835 45.9405C16.739 46.0358 16.6846 46.1652 16.6836 46.3005V50.9129C16.6905 51.5597 16.8033 52.2009 17.0177 52.8111C17.2268 53.5883 17.5601 54.3267 18.0047 54.9977C18.47 55.8112 19.0363 56.5625 19.6903 57.2337C20.581 58.1818 21.5513 59.0518 22.5906 59.8342C23.2436 60.3201 25.5289 61.7057 25.5099 61.6526C25.5099 61.7057 27.6966 60.3201 28.3495 59.8342C29.3566 59.0776 30.2942 58.2327 31.1512 57.3096C31.8057 56.6389 32.3721 55.8875 32.8367 55.0736C33.2793 54.4034 33.6113 53.6664 33.82 52.8908C34.034 52.2805 34.1469 51.6393 34.154 50.9926V46.365C34.1545 46.298 34.1418 46.2317 34.1164 46.1697C34.091 46.1078 34.0535 46.0515 34.0062 46.0042C33.9588 45.9568 33.9025 45.9194 33.8406 45.894C33.7786 45.8686 33.7123 45.8558 33.6454 45.8563C33.4897 45.8563 33.2961 45.8601 33.0683 45.8715Z" fill="#1F1D20"/>
</g>
<path d="M34.3209 52.3938C34.4608 51.9218 34.5296 51.4316 34.525 50.9393V46.1154C34.525 46.0454 34.5111 45.9761 34.4842 45.9115C34.4573 45.8468 34.418 45.7882 34.3683 45.7389C34.3186 45.6895 34.2597 45.6505 34.1948 45.6241C34.13 45.5976 34.0606 45.5843 33.9906 45.5848C33.8274 45.5848 33.6196 45.5848 33.3932 45.5848C32.4157 45.5783 31.448 45.3895 30.5397 45.0282C29.408 44.6311 28.4024 43.5921 27.7048 43.2099C27.0465 42.8042 26.2848 42.598 25.5118 42.6162L23.3818 53.6629L34.3209 52.3938Z" fill="#0883D9"/>
<path d="M20.2943 44.9799C19.3862 45.3377 18.4204 45.5263 17.4445 45.5365C17.207 45.5365 17.0066 45.5365 16.8433 45.5365C16.7026 45.5365 16.5676 45.5924 16.4681 45.6919C16.3686 45.7915 16.3127 45.9264 16.3127 46.0672V50.891C16.3083 51.4117 16.3847 51.93 16.539 52.4273H25.5115V42.6459C24.7012 42.6297 23.9019 42.835 23.1997 43.2396C22.4984 43.6218 21.426 44.5792 20.2943 44.9799Z" fill="#33BFF0"/>
<path d="M25.5117 62.0602C25.5117 62.1121 27.7938 60.6687 28.4803 60.164C29.5306 59.3736 30.509 58.492 31.4043 57.5295C32.0855 56.83 32.6752 56.047 33.1594 55.1992C33.624 54.5008 33.9712 53.7312 34.1873 52.9208C34.2429 52.7204 34.2912 52.5497 34.332 52.3939H25.5229L25.5117 62.0602Z" fill="#0F5094"/>
<path d="M16.5391 52.3939C16.5725 52.5275 16.6133 52.6722 16.6615 52.8392C16.8782 53.6488 17.224 54.4181 17.6857 55.1175C18.1708 55.9668 18.7618 56.7511 19.4446 57.4515C20.3731 58.4406 21.3849 59.3481 22.4688 60.164C23.1478 60.6687 25.5301 62.1121 25.5115 62.0602V52.4124L16.5391 52.3939Z" fill="#0370C8"/>
<path d="M63.7796 46.5615C63.5309 44.1793 61.6233 42.3067 59.3124 42.3067C57.0196 42.3067 55.1302 44.1404 54.8451 46.4998C54.8057 46.6621 54.8057 46.8471 54.8057 47.0094C54.8633 47.6812 55.303 48.3335 56.1219 48.843C57.8779 49.9205 60.7438 49.9205 62.4816 48.843C63.3035 48.3335 63.722 47.6812 63.7796 47.0094C63.816 46.8666 63.7978 46.7043 63.7796 46.5615Z" fill="url(#paint5_linear_908_27612)"/>
<path d="M59.3156 41.8167C60.8107 41.8167 62.0208 40.5283 62.0208 38.9381C62.0208 37.3478 60.8107 36.0594 59.3156 36.0594C57.8204 36.0594 56.6104 37.3478 56.6104 38.9381C56.6104 40.5283 57.8204 41.8167 59.3156 41.8167Z" fill="url(#paint6_linear_908_27612)"/>
<path d="M56.2158 46.7887C56.0156 44.8641 54.472 43.3485 52.6038 43.3485C50.7508 43.3485 49.2253 44.8284 48.9918 46.7367C48.9614 46.8698 48.9614 47.0158 48.9614 47.1489C49.0069 47.6909 49.3618 48.2199 50.0259 48.6288C51.4453 49.5018 53.7593 49.5018 55.1634 48.6288C55.8276 48.2167 56.1673 47.6909 56.2128 47.1489C56.2461 47.0353 56.231 46.9055 56.2158 46.7887Z" fill="url(#paint7_linear_908_27612)"/>
<path d="M52.607 42.9558C53.8141 42.9558 54.7937 41.914 54.7937 40.6289C54.7937 39.3437 53.8141 38.3019 52.607 38.3019C51.4 38.3019 50.4204 39.3437 50.4204 40.6289C50.4204 41.914 51.4 42.9558 52.607 42.9558Z" fill="url(#paint8_linear_908_27612)"/>
<path d="M69.6269 46.7887C69.4268 44.8642 67.8831 43.3485 66.0149 43.3485C64.1619 43.3485 62.6364 44.8285 62.4029 46.7368C62.3726 46.8698 62.3726 47.0159 62.3726 47.1489C62.4181 47.6909 62.7729 48.2199 63.4371 48.6289C64.8564 49.5019 67.1704 49.5019 68.5746 48.6289C69.2388 48.2167 69.5784 47.6909 69.6239 47.1489C69.6573 47.0353 69.6421 46.9055 69.6269 46.7887Z" fill="url(#paint9_linear_908_27612)"/>
<path d="M66.0182 42.9559C67.2252 42.9559 68.2048 41.9141 68.2048 40.6289C68.2048 39.3437 67.2252 38.3019 66.0182 38.3019C64.8111 38.3019 63.8315 39.3437 63.8315 40.6289C63.8315 41.9141 64.8111 42.9559 66.0182 42.9559Z" fill="url(#paint10_linear_908_27612)"/>
<defs>
<filter id="filter0_d_908_27612" x="27.1035" y="31.2483" width="63.2515" height="47.049" filterUnits="userSpaceOnUse" color-interpolation-filters="sRGB">
<feFlood flood-opacity="0" result="BackgroundImageFix"/>
<feColorMatrix in="SourceAlpha" type="matrix" values="0 0 0 0 0 0 0 0 0 0 0 0 0 0 0 0 0 0 127 0" result="hardAlpha"/>
<feOffset dy="4"/>
<feGaussianBlur stdDeviation="2"/>
<feComposite in2="hardAlpha" operator="out"/>
<feColorMatrix type="matrix" values="0 0 0 0 0 0 0 0 0 0 0 0 0 0 0 0 0 0 0.25 0"/>
<feBlend mode="normal" in2="BackgroundImageFix" result="effect1_dropShadow_908_27612"/>
<feBlend mode="normal" in="SourceGraphic" in2="effect1_dropShadow_908_27612" result="shape"/>
</filter>
<filter id="filter1_d_908_27612" x="6.42041" y="34.7384" width="37.9966" height="37.9966" filterUnits="userSpaceOnUse" color-interpolation-filters="sRGB">
<feFlood flood-opacity="0" result="BackgroundImageFix"/>
<feColorMatrix in="SourceAlpha" type="matrix" values="0 0 0 0 0 0 0 0 0 0 0 0 0 0 0 0 0 0 127 0" result="hardAlpha"/>
<feOffset dy="2"/>
<feGaussianBlur stdDeviation="2"/>
<feComposite in2="hardAlpha" operator="out"/>
<feColorMatrix type="matrix" values="0 0 0 0 0 0 0 0 0 0 0 0 0 0 0 0 0 0 0.25 0"/>
<feBlend mode="normal" in2="BackgroundImageFix" result="effect1_dropShadow_908_27612"/>
<feBlend mode="normal" in="SourceGraphic" in2="effect1_dropShadow_908_27612" result="shape"/>
</filter>
<filter id="filter2_d_908_27612" x="12.603" y="41.1059" width="25.6318" height="26.8033" filterUnits="userSpaceOnUse" color-interpolation-filters="sRGB">
<feFlood flood-opacity="0" result="BackgroundImageFix"/>
<feColorMatrix in="SourceAlpha" type="matrix" values="0 0 0 0 0 0 0 0 0 0 0 0 0 0 0 0 0 0 127 0" result="hardAlpha"/>
<feOffset dy="2"/>
<feGaussianBlur stdDeviation="2"/>
<feComposite in2="hardAlpha" operator="out"/>
<feColorMatrix type="matrix" values="0 0 0 0 0 0 0 0 0 0 0 0 0 0 0 0 0 0 0.25 0"/>
<feBlend mode="normal" in2="BackgroundImageFix" result="effect1_dropShadow_908_27612"/>
<feBlend mode="normal" in="SourceGraphic" in2="effect1_dropShadow_908_27612" result="shape"/>
</filter>
<filter id="filter3_d_908_27612" x="12.6836" y="43.0227" width="25.4707" height="26.6314" filterUnits="userSpaceOnUse" color-interpolation-filters="sRGB">
<feFlood flood-opacity="0" result="BackgroundImageFix"/>
<feColorMatrix in="SourceAlpha" type="matrix" values="0 0 0 0 0 0 0 0 0 0 0 0 0 0 0 0 0 0 127 0" result="hardAlpha"/>
<feOffset dy="4"/>
<feGaussianBlur stdDeviation="2"/>
<feComposite in2="hardAlpha" operator="out"/>
<feColorMatrix type="matrix" values="0 0 0 0 0 0 0 0 0 0 0 0 0 0 0 0 0 0 0.25 0"/>
<feBlend mode="normal" in2="BackgroundImageFix" result="effect1_dropShadow_908_27612"/>
<feBlend mode="normal" in="SourceGraphic" in2="effect1_dropShadow_908_27612" result="shape"/>
</filter>
<linearGradient id="paint0_linear_908_27612" x1="50.0268" y1="-13.5718" x2="54.0088" y2="132.198" gradientUnits="userSpaceOnUse">
<stop stop-color="#00ABDE"/>
<stop offset="1" stop-color="#007ED8"/>
</linearGradient>
<linearGradient id="paint1_linear_908_27612" x1="3.2311" y1="-20.405" x2="98.7586" y2="120.476" gradientUnits="userSpaceOnUse">
<stop stop-color="#007ED8"/>
<stop offset="0.7065" stop-color="#002D4C"/>
</linearGradient>
<linearGradient id="paint2_linear_908_27612" x1="30.1779" y1="15.0024" x2="189.413" y2="214.553" gradientUnits="userSpaceOnUse">
<stop offset="0.0435" stop-color="white"/>
<stop offset="0.4857" stop-color="#4DC1EA"/>
<stop offset="0.8452" stop-color="#0078D4"/>
</linearGradient>
<linearGradient id="paint3_linear_908_27612" x1="29.8483" y1="26.4548" x2="55.1034" y2="89.0938" gradientUnits="userSpaceOnUse">
<stop stop-color="#007ED8"/>
<stop offset="0.7065" stop-color="#002D4C"/>
</linearGradient>
<linearGradient id="paint4_linear_908_27612" x1="29.2711" y1="17.7424" x2="67.4085" y2="92.3151" gradientUnits="userSpaceOnUse">
<stop stop-color="#007ED8"/>
<stop offset="0.7065" stop-color="#002D4C"/>
</linearGradient>
<linearGradient id="paint5_linear_908_27612" x1="54.6386" y1="40.3626" x2="61.4723" y2="52.7058" gradientUnits="userSpaceOnUse">
<stop stop-color="#007ED8"/>
<stop offset="0.7065" stop-color="#002D4C"/>
</linearGradient>
<linearGradient id="paint6_linear_908_27612" x1="56.5099" y1="34.5353" x2="62.5085" y2="42.8489" gradientUnits="userSpaceOnUse">
<stop stop-color="#007ED8"/>
<stop offset="0.7065" stop-color="#002D4C"/>
</linearGradient>
<linearGradient id="paint7_linear_908_27612" x1="48.8264" y1="41.7774" x2="54.3478" y2="51.7536" gradientUnits="userSpaceOnUse">
<stop stop-color="#007ED8"/>
<stop offset="0.7065" stop-color="#002D4C"/>
</linearGradient>
<linearGradient id="paint8_linear_908_27612" x1="50.3392" y1="37.0699" x2="55.1882" y2="43.7899" gradientUnits="userSpaceOnUse">
<stop stop-color="#007ED8"/>
<stop offset="0.7065" stop-color="#002D4C"/>
</linearGradient>
<linearGradient id="paint9_linear_908_27612" x1="62.2375" y1="41.7775" x2="67.7589" y2="51.7537" gradientUnits="userSpaceOnUse">
<stop stop-color="#007ED8"/>
<stop offset="0.7065" stop-color="#002D4C"/>
</linearGradient>
<linearGradient id="paint10_linear_908_27612" x1="63.7503" y1="37.07" x2="68.5994" y2="43.79" gradientUnits="userSpaceOnUse">
<stop stop-color="#007ED8"/>
<stop offset="0.7065" stop-color="#002D4C"/>
</linearGradient>
</defs>
</svg>
