<svg width="103" height="103" viewBox="0 0 103 103" fill="none" xmlns="http://www.w3.org/2000/svg">
<path d="M51.2578 98.441C25.4078 98.441 4.44775 77.491 4.44775 51.631C4.44775 25.771 25.4078 4.82104 51.2578 4.82104C77.1078 4.82104 98.0677 25.781 98.0677 51.631C98.0677 77.481 77.1078 98.441 51.2578 98.441Z" fill="url(#paint0_linear_951_62)"/>
<path fill-rule="evenodd" clip-rule="evenodd" d="M97.1577 51.6312C97.1577 76.9812 76.6077 97.5312 51.2577 97.5312C25.9077 97.5312 5.35768 76.9812 5.35768 51.6312C5.35768 26.2812 25.9077 5.73122 51.2577 5.73122C76.6077 5.73122 97.1577 26.2812 97.1577 51.6312ZM51.2577 1.99121C78.6777 1.99121 100.898 24.2112 100.898 51.6312C100.898 79.0512 78.6677 101.271 51.2577 101.271C23.8377 101.271 1.61768 79.0412 1.61768 51.6312C1.61768 24.2112 23.8377 1.99121 51.2577 1.99121Z" fill="#F2F1F0"/>
<path fill-rule="evenodd" clip-rule="evenodd" d="M94.3477 51.631C94.3477 75.431 75.0577 94.721 51.2577 94.721C27.4577 94.721 8.16773 75.431 8.16773 51.631C8.16773 27.831 27.4577 8.54103 51.2577 8.54103C75.0577 8.54103 94.3477 27.831 94.3477 51.631ZM51.2577 4.80103C77.1177 4.80103 98.0877 25.771 98.0877 51.631C98.0877 77.491 77.1177 98.461 51.2577 98.461C25.3977 98.461 4.42773 77.491 4.42773 51.631C4.42773 25.771 25.3877 4.80103 51.2577 4.80103Z" fill="url(#paint1_linear_951_62)"/>
<g filter="url(#filter0_d_951_62)">
<path d="M38.8516 77.6491C44.6557 76.7301 44.9362 72.5221 44.9362 65.7119H56.5445C56.5445 72.4834 56.7379 76.7301 62.6001 77.6491C63.4043 77.747 64.1462 78.1317 64.6896 78.7325C65.2322 79.3421 65.5287 80.1317 65.5216 80.9478H35.9108C35.9036 80.1317 36.2001 79.3421 36.7427 78.7325C37.2886 78.1296 38.0343 77.7448 38.8419 77.6491H38.8516Z" fill="url(#paint2_linear_951_62)"/>
</g>
<g opacity="0.15">
<path d="M56.554 65.7119H44.9457C45.0587 68.1607 44.867 70.614 44.375 73.0155H57.1151C56.6324 70.6128 56.4439 68.1602 56.554 65.7119V65.7119Z" fill="#1F1D20"/>
</g>
<g filter="url(#filter1_d_951_62)">
<path d="M21.1391 27.9075H81.3765C81.9486 27.9075 82.4972 28.1347 82.9018 28.5392C83.3063 28.9438 83.5337 29.4925 83.5337 30.0647V68.7589C83.5337 69.0418 83.4778 69.3218 83.3693 69.5829C83.2608 69.8441 83.1017 70.0813 82.9013 70.2808C82.7009 70.4804 82.463 70.6384 82.2013 70.7457C81.9396 70.8531 81.6593 70.9077 81.3765 70.9064H21.1391C20.8563 70.9077 20.576 70.8531 20.3143 70.7457C20.0526 70.6384 19.8147 70.4804 19.6143 70.2808C19.4138 70.0813 19.2548 69.8441 19.1463 69.5829C19.0378 69.3218 18.9819 69.0418 18.9819 68.7589V30.0647C18.9819 29.4925 19.2093 28.9438 19.6138 28.5392C20.0184 28.1347 20.567 27.9075 21.1391 27.9075V27.9075Z" fill="url(#paint3_linear_951_62)"/>
</g>
<circle opacity="0.15" cx="51.2579" cy="44.1861" r="20.8634" fill="#1F1D20"/>
<circle cx="51.2579" cy="42.7335" r="20.8634" fill="white"/>
<g filter="url(#filter2_d_951_62)">
<path d="M61.9968 34.7272C60.6823 34.7162 59.3811 34.4614 58.1595 33.9757C56.6353 33.4428 55.2763 32.0411 54.3383 31.5241C53.4528 30.9767 52.4264 30.7007 51.3858 30.73C50.2946 30.6998 49.2166 30.9748 48.2733 31.5241C47.3353 32.0571 45.8857 33.3308 44.3615 33.8691C43.1377 34.3529 41.8348 34.6059 40.5189 34.6152C40.1991 34.6152 39.9326 34.6152 39.7141 34.6152C39.5242 34.6152 39.342 34.6903 39.2072 34.8241C39.0725 34.9579 38.996 35.1395 38.9946 35.3294V41.8048C39.0043 42.7127 39.1627 43.6129 39.4636 44.4695C39.7572 45.5607 40.2251 46.5973 40.8493 47.5393C41.5025 48.6813 42.2976 49.736 43.2156 50.6784C44.4661 52.0093 45.8284 53.2307 47.2874 54.3291C48.2041 55.0113 51.4124 56.9566 51.3858 56.882C51.3858 56.9566 54.4555 55.0113 55.3722 54.3291C56.786 53.267 58.1023 52.0809 59.3054 50.785C60.2242 49.8433 61.0194 48.7885 61.6717 47.6459C62.293 46.7049 62.7591 45.6703 63.0521 44.5814C63.3526 43.7247 63.511 42.8246 63.5211 41.9167V35.42C63.5218 35.326 63.5038 35.2328 63.4682 35.1459C63.4325 35.0589 63.3799 34.9799 63.3135 34.9134C63.247 34.847 63.168 34.7944 63.081 34.7588C62.9941 34.7231 62.9009 34.7052 62.8069 34.7059C62.5884 34.7059 62.3166 34.7112 61.9968 34.7272Z" fill="white"/>
</g>
<g opacity="0.15" filter="url(#filter3_d_951_62)">
<path d="M61.8989 34.5746C60.5963 34.5637 59.3071 34.3113 58.0966 33.8301C56.5863 33.302 55.2398 31.9131 54.3104 31.4009C53.4329 30.8585 52.4159 30.585 51.3848 30.614C50.3036 30.5841 49.2355 30.8566 48.3008 31.4009C47.3714 31.929 45.935 33.1911 44.4247 33.7244C43.2121 34.2038 41.9211 34.4544 40.6172 34.4637C40.3004 34.4637 40.0363 34.4637 39.8198 34.4637C39.6317 34.4637 39.4511 34.5381 39.3176 34.6707C39.1841 34.8032 39.1083 34.9832 39.1069 35.1714V41.5875C39.1165 42.4872 39.2735 43.3791 39.5716 44.2279C39.8626 45.3092 40.3262 46.3363 40.9446 47.2697C41.5919 48.4012 42.3797 49.4463 43.2893 50.38C44.5284 51.6988 45.8782 52.9091 47.3239 53.9974C48.2322 54.6734 51.4112 56.6008 51.3848 56.5269C51.3848 56.6008 54.4265 54.6734 55.3348 53.9974C56.7357 52.945 58.0399 51.7697 59.232 50.4857C60.1424 49.5526 60.9304 48.5074 61.5767 47.3753C62.1923 46.4429 62.6541 45.4177 62.9444 44.3388C63.2422 43.4899 63.3992 42.598 63.4092 41.6984V35.2611C63.4099 35.168 63.3921 35.0757 63.3567 34.9895C63.3214 34.9034 63.2693 34.825 63.2035 34.7592C63.1376 34.6933 63.0593 34.6412 62.9731 34.6059C62.887 34.5706 62.7947 34.5528 62.7015 34.5535C62.485 34.5535 62.2157 34.5588 61.8989 34.5746Z" fill="#1F1D20"/>
</g>
<path d="M63.6411 43.6476C63.8357 42.991 63.9314 42.309 63.925 41.6242V34.914C63.925 34.8166 63.9057 34.7202 63.8683 34.6303C63.8309 34.5404 63.7761 34.4588 63.707 34.3902C63.6379 34.3216 63.5559 34.2673 63.4657 34.2305C63.3756 34.1938 63.279 34.1752 63.1817 34.1758C62.9546 34.1758 62.6655 34.1758 62.3506 34.1758C60.9909 34.1669 59.6448 33.9043 58.3813 33.4016C56.807 32.8493 55.4081 31.404 54.4377 30.8723C53.5221 30.308 52.4625 30.0211 51.3871 30.0465L48.4243 45.4129L63.6411 43.6476Z" fill="#0883D9"/>
<path d="M44.1297 33.3344C42.8665 33.832 41.523 34.0944 40.1654 34.1087C39.8351 34.1087 39.5563 34.1087 39.3292 34.1087C39.1335 34.1087 38.9457 34.1864 38.8073 34.3248C38.6688 34.4633 38.5911 34.651 38.5911 34.8468V41.557C38.585 42.2813 38.6912 43.0022 38.9059 43.694H51.387V30.0877C50.2599 30.0652 49.1481 30.3508 48.1713 30.9136C47.1957 31.4452 45.704 32.7769 44.1297 33.3344Z" fill="#33BFF0"/>
<path d="M51.3872 57.094C51.3872 57.1663 54.5617 55.1584 55.5166 54.4564C56.9776 53.3568 58.3387 52.1305 59.584 50.7916C60.5316 49.8186 61.352 48.7294 62.0255 47.55C62.6717 46.5786 63.1547 45.508 63.4553 44.3807C63.5328 44.1019 63.5999 43.8645 63.6566 43.6477H51.4027L51.3872 57.094Z" fill="#0F5094"/>
<path d="M38.9058 43.6477C38.9522 43.8335 39.009 44.0348 39.0761 44.2671C39.3775 45.3933 39.8586 46.4635 40.5008 47.4364C41.1756 48.6179 41.9978 49.7088 42.9474 50.6831C44.2391 52.059 45.6466 53.3213 47.1543 54.4564C48.0989 55.1584 51.4127 57.1663 51.3868 57.094V43.6735L38.9058 43.6477Z" fill="#0370C8"/>
<defs>
<filter id="filter0_d_951_62" x="31.9106" y="63.7119" width="37.6108" height="23.2358" filterUnits="userSpaceOnUse" color-interpolation-filters="sRGB">
<feFlood flood-opacity="0" result="BackgroundImageFix"/>
<feColorMatrix in="SourceAlpha" type="matrix" values="0 0 0 0 0 0 0 0 0 0 0 0 0 0 0 0 0 0 127 0" result="hardAlpha"/>
<feOffset dy="2"/>
<feGaussianBlur stdDeviation="2"/>
<feComposite in2="hardAlpha" operator="out"/>
<feColorMatrix type="matrix" values="0 0 0 0 0 0 0 0 0 0 0 0 0 0 0 0 0 0 0.25 0"/>
<feBlend mode="normal" in2="BackgroundImageFix" result="effect1_dropShadow_951_62"/>
<feBlend mode="normal" in="SourceGraphic" in2="effect1_dropShadow_951_62" result="shape"/>
</filter>
<filter id="filter1_d_951_62" x="14.9819" y="25.9075" width="72.5518" height="50.999" filterUnits="userSpaceOnUse" color-interpolation-filters="sRGB">
<feFlood flood-opacity="0" result="BackgroundImageFix"/>
<feColorMatrix in="SourceAlpha" type="matrix" values="0 0 0 0 0 0 0 0 0 0 0 0 0 0 0 0 0 0 127 0" result="hardAlpha"/>
<feOffset dy="2"/>
<feGaussianBlur stdDeviation="2"/>
<feComposite in2="hardAlpha" operator="out"/>
<feColorMatrix type="matrix" values="0 0 0 0 0 0 0 0 0 0 0 0 0 0 0 0 0 0 0.25 0"/>
<feBlend mode="normal" in2="BackgroundImageFix" result="effect1_dropShadow_951_62"/>
<feBlend mode="normal" in="SourceGraphic" in2="effect1_dropShadow_951_62" result="shape"/>
</filter>
<filter id="filter2_d_951_62" x="34.9946" y="30.7278" width="32.5264" height="34.1562" filterUnits="userSpaceOnUse" color-interpolation-filters="sRGB">
<feFlood flood-opacity="0" result="BackgroundImageFix"/>
<feColorMatrix in="SourceAlpha" type="matrix" values="0 0 0 0 0 0 0 0 0 0 0 0 0 0 0 0 0 0 127 0" result="hardAlpha"/>
<feOffset dy="4"/>
<feGaussianBlur stdDeviation="2"/>
<feComposite in2="hardAlpha" operator="out"/>
<feColorMatrix type="matrix" values="0 0 0 0 0 0 0 0 0 0 0 0 0 0 0 0 0 0 0.25 0"/>
<feBlend mode="normal" in2="BackgroundImageFix" result="effect1_dropShadow_951_62"/>
<feBlend mode="normal" in="SourceGraphic" in2="effect1_dropShadow_951_62" result="shape"/>
</filter>
<filter id="filter3_d_951_62" x="35.1069" y="30.6118" width="32.3022" height="33.9172" filterUnits="userSpaceOnUse" color-interpolation-filters="sRGB">
<feFlood flood-opacity="0" result="BackgroundImageFix"/>
<feColorMatrix in="SourceAlpha" type="matrix" values="0 0 0 0 0 0 0 0 0 0 0 0 0 0 0 0 0 0 127 0" result="hardAlpha"/>
<feOffset dy="4"/>
<feGaussianBlur stdDeviation="2"/>
<feComposite in2="hardAlpha" operator="out"/>
<feColorMatrix type="matrix" values="0 0 0 0 0 0 0 0 0 0 0 0 0 0 0 0 0 0 0.25 0"/>
<feBlend mode="normal" in2="BackgroundImageFix" result="effect1_dropShadow_951_62"/>
<feBlend mode="normal" in="SourceGraphic" in2="effect1_dropShadow_951_62" result="shape"/>
</filter>
<linearGradient id="paint0_linear_951_62" x1="49.4838" y1="-13.1585" x2="53.4658" y2="132.612" gradientUnits="userSpaceOnUse">
<stop stop-color="#00ABDE"/>
<stop offset="1" stop-color="#007ED8"/>
</linearGradient>
<linearGradient id="paint1_linear_951_62" x1="2.68813" y1="-19.9916" x2="98.2157" y2="120.89" gradientUnits="userSpaceOnUse">
<stop stop-color="#007ED8"/>
<stop offset="0.7065" stop-color="#002D4C"/>
</linearGradient>
<linearGradient id="paint2_linear_951_62" x1="50.7307" y1="80.9478" x2="50.7307" y2="65.7119" gradientUnits="userSpaceOnUse">
<stop offset="0.15" stop-color="#CCCCCC"/>
<stop offset="1" stop-color="#707070"/>
</linearGradient>
<linearGradient id="paint3_linear_951_62" x1="51.2626" y1="27.9075" x2="51.2626" y2="71.0129" gradientUnits="userSpaceOnUse">
<stop stop-color="#005BA1"/>
<stop offset="0.26" stop-color="#00589D"/>
<stop offset="0.53" stop-color="#004F90"/>
<stop offset="0.8" stop-color="#003F7C"/>
<stop offset="1" stop-color="#003067"/>
</linearGradient>
</defs>
</svg>
