<svg width="100" height="100" viewBox="0 0 100 100" fill="none" xmlns="http://www.w3.org/2000/svg">
<g clip-path="url(#clip0_1144_435)">
<path d="M49.6401 96.45C40.382 96.45 31.3317 93.7047 23.6339 88.5611C15.936 83.4176 9.93624 76.1068 6.3933 67.5534C2.85036 59 1.92337 49.5881 3.72954 40.5078C5.53571 31.4276 9.99394 23.0868 16.5404 16.5403C23.0869 9.99384 31.4277 5.53562 40.5079 3.72945C49.5882 1.92327 59.0001 2.85027 67.5535 6.39321C76.1069 9.93614 83.4176 15.9359 88.5612 23.6338C93.7047 31.3316 96.4501 40.3819 96.4501 49.64C96.4505 55.7873 95.24 61.8745 92.8878 67.5539C90.5355 73.2334 87.0875 78.3938 82.7407 82.7406C78.3939 87.0874 73.2335 90.5354 67.554 92.8877C61.8746 95.2399 55.7874 96.4504 49.6401 96.45V96.45Z" fill="url(#paint0_linear_1144_435)"/>
<path fill-rule="evenodd" clip-rule="evenodd" d="M95.54 49.64C95.54 58.7182 92.848 67.5925 87.8045 75.1407C82.7609 82.6889 75.5923 88.572 67.2052 92.0461C58.818 95.5201 49.5891 96.4291 40.6854 94.658C31.7816 92.887 23.603 88.5154 17.1838 82.0962C10.7646 75.677 6.39302 67.4984 4.62196 58.5946C2.85089 49.6909 3.75987 40.462 7.23393 32.0748C10.708 23.6877 16.5911 16.5191 24.1393 11.4755C31.6875 6.43199 40.5618 3.74 49.64 3.74C55.6677 3.73998 61.6363 4.9272 67.2052 7.23388C72.774 9.54057 77.834 12.9215 82.0963 17.1837C86.3585 21.446 89.7394 26.5059 92.0461 32.0748C94.3528 37.6437 95.54 43.6123 95.54 49.64V49.64ZM49.64 3.62732e-07C59.4579 3.62732e-07 69.0553 2.91134 77.2185 8.36585C85.3818 13.8204 91.7442 21.5731 95.5014 30.6436C99.2585 39.7141 100.242 49.6951 98.3262 59.3243C96.4108 68.9535 91.6831 77.7985 84.7408 84.7408C77.7985 91.6831 68.9535 96.4108 59.3243 98.3262C49.6951 100.242 39.7141 99.2585 30.6436 95.5014C21.5731 91.7442 13.8204 85.3818 8.36585 77.2185C2.91134 69.0553 3.62732e-07 59.4579 3.62732e-07 49.64C-0.000787738 43.121 1.28265 36.6656 3.77702 30.6427C6.27138 24.6197 9.9278 19.1471 14.5375 14.5375C19.1471 9.9278 24.6197 6.27138 30.6427 3.77702C36.6656 1.28265 43.121 -0.000787738 49.64 3.62732e-07V3.62732e-07Z" fill="#F2F1F0"/>
<path fill-rule="evenodd" clip-rule="evenodd" d="M92.7296 49.6401C92.7296 58.1625 90.2024 66.4935 85.4676 73.5796C80.7328 80.6657 74.0031 86.1887 66.1294 89.4501C58.2557 92.7114 49.5918 93.5648 41.2331 91.9021C32.8745 90.2395 25.1966 86.1356 19.1703 80.1093C13.1441 74.0831 9.04017 66.4052 7.37753 58.0465C5.7149 49.6879 6.56822 41.0239 9.8296 33.1503C13.091 25.2766 18.6139 18.5469 25.7 13.8121C32.7862 9.07727 41.1172 6.55009 49.6396 6.55009C55.2983 6.54974 60.9017 7.66407 66.1298 9.82942C71.3579 11.9948 76.1082 15.1687 80.1096 19.1701C84.1109 23.1714 87.2849 27.9218 89.4502 33.1499C91.6156 38.3779 92.7299 43.9813 92.7296 49.6401V49.6401ZM49.6396 2.81009C58.9017 2.81009 67.9558 5.55662 75.6569 10.7024C83.3581 15.8481 89.3604 23.162 92.9049 31.719C96.4493 40.2761 97.3767 49.692 95.5697 58.7762C93.7628 67.8603 89.3027 76.2046 82.7534 82.7539C76.2041 89.3032 67.8598 93.7633 58.7757 95.5703C49.6915 97.3772 40.2756 96.4498 31.7185 92.9054C23.1614 89.3609 15.8476 83.3586 10.7018 75.6574C5.5561 67.9563 2.80957 58.9022 2.80957 49.6401C2.81076 37.2204 7.745 25.3097 16.5271 16.5276C25.3091 7.7455 37.2198 2.81125 49.6396 2.81006V2.81009Z" fill="#0078D4"/>
<path fill-rule="evenodd" clip-rule="evenodd" d="M92.7637 49.6401C92.7637 58.1625 90.2366 66.4935 85.5018 73.5796C80.767 80.6657 74.0372 86.1887 66.1636 89.4501C58.2899 92.7114 49.6259 93.5648 41.2673 91.9021C32.9087 90.2395 25.2308 86.1356 19.2045 80.1093C13.1783 74.0831 9.07435 66.4052 7.41171 58.0465C5.74908 49.6879 6.6024 41.0239 9.86378 33.1503C13.1252 25.2766 18.6481 18.5469 25.7342 13.8121C32.8203 9.07727 41.1514 6.55009 49.6738 6.55009C55.3325 6.54974 60.9359 7.66407 66.164 9.82942C71.3921 11.9948 76.1424 15.1687 80.1437 19.1701C84.1451 23.1714 87.3191 27.9218 89.4844 33.1499C91.6498 38.3779 92.7641 43.9813 92.7637 49.6401V49.6401ZM49.6738 2.81009C58.9359 2.81009 67.9899 5.55662 75.6911 10.7024C83.3923 15.8481 89.3946 23.162 92.939 31.719C96.4835 40.2761 97.4109 49.692 95.6039 58.7762C93.797 67.8603 89.3369 76.2046 82.7876 82.7539C76.2383 89.3032 67.894 93.7633 58.8098 95.5703C49.7257 97.3772 40.3097 96.4498 31.7527 92.9054C23.1956 89.3609 15.8818 83.3586 10.736 75.6574C5.59028 67.9563 2.84375 58.9022 2.84375 49.6401C2.84494 37.2204 7.77918 25.3097 16.5612 16.5276C25.3433 7.7455 37.254 2.81125 49.6738 2.81006V2.81009Z" fill="#0078D4"/>
<path d="M50.5181 28.7951C50.5181 29.5521 50.2937 30.2921 49.8731 30.9215C49.4526 31.5509 48.8548 32.0415 48.1554 32.3311C47.4561 32.6208 46.6865 32.6966 45.9441 32.5489C45.2017 32.4013 44.5197 32.0367 43.9845 31.5015C43.4492 30.9662 43.0847 30.2842 42.937 29.5418C42.7893 28.7994 42.8651 28.0298 43.1548 27.3305C43.4445 26.6311 43.935 26.0334 44.5644 25.6128C45.1938 25.1923 45.9338 24.9678 46.6908 24.9678C47.7055 24.969 48.6783 25.3726 49.3958 26.0901C50.1133 26.8076 50.5169 27.7804 50.5181 28.7951V28.7951ZM57.5914 26.7337L55.8117 26.338C55.6275 26.271 55.4772 26.134 55.3934 25.9568C55.3875 25.9373 55.3805 25.9181 55.3723 25.8994L54.8813 24.706C54.8729 24.6853 54.8633 24.6647 54.853 24.6448C54.7864 24.4618 54.7952 24.2598 54.8775 24.0833L55.8565 22.5447C56.0567 22.2116 56.1422 21.822 56.0998 21.4356C56.0575 21.0492 55.8896 20.6874 55.6219 20.4056L55.0803 19.864C54.7959 19.6009 54.4346 19.4361 54.0494 19.3939C53.6643 19.3517 53.2758 19.4342 52.9412 19.6294L51.4022 20.6081C51.3041 20.6572 51.1953 20.6809 51.0857 20.677C51.0019 20.68 50.9185 20.665 50.8411 20.633C50.8211 20.6223 50.8006 20.6128 50.7795 20.6046L49.5865 20.1132C49.5677 20.1054 49.5485 20.0985 49.5291 20.0926C49.3519 20.0086 49.2149 19.8581 49.1479 19.6738L48.7525 17.8945C48.6585 17.5172 48.4434 17.1812 48.1401 16.938C47.8368 16.6947 47.4621 16.5576 47.0734 16.5477H46.3081C45.9195 16.5575 45.5448 16.6945 45.2416 16.9377C44.9384 17.1809 44.7233 17.5169 44.6294 17.8941L44.2337 19.6746C44.1663 19.8585 44.0294 20.0086 43.8525 20.0926C43.8329 20.0983 43.8138 20.1056 43.7947 20.1133L42.6017 20.6047C42.5806 20.613 42.5601 20.6224 42.5401 20.633C42.4627 20.6652 42.3793 20.6802 42.2955 20.677C42.1858 20.6806 42.0769 20.657 41.9786 20.6081L40.4404 19.6299C40.1057 19.4347 39.7173 19.3522 39.3322 19.3944C38.9471 19.4367 38.5857 19.6014 38.3013 19.8645L37.7597 20.4056C37.492 20.6875 37.324 21.0494 37.2816 21.4358C37.2392 21.8223 37.3248 22.212 37.5251 22.5451L38.5041 24.0833C38.586 24.2598 38.5948 24.4615 38.5286 24.6444C38.5183 24.6647 38.5083 24.6854 38.4999 24.706L38.0089 25.8994C38.0013 25.9182 37.994 25.9373 37.9879 25.9568C37.9041 26.1341 37.7537 26.2712 37.5695 26.3384L35.7902 26.7334C35.4129 26.8274 35.0769 27.0425 34.8336 27.3458C34.5903 27.6491 34.4532 28.0238 34.4434 28.4125V29.1779C34.4532 29.5665 34.5903 29.9411 34.8335 30.2444C35.0767 30.5476 35.4126 30.7626 35.7898 30.8566L37.5699 31.252C37.754 31.3193 37.9041 31.4564 37.9879 31.6335C37.994 31.6531 38.0013 31.6722 38.0089 31.691L38.4999 32.8843C38.5083 32.905 38.5179 32.9253 38.5286 32.9456C38.5949 33.1286 38.5859 33.3305 38.5037 33.507L37.5251 35.0452C37.3246 35.3783 37.239 35.768 37.2814 36.1545C37.3238 36.541 37.4918 36.9029 37.7597 37.1847L38.3013 37.7262C38.5858 37.9892 38.9472 38.1539 39.3323 38.1961C39.7175 38.2383 40.106 38.1559 40.4407 37.9609L41.9782 36.9822C42.0766 36.9332 42.1856 36.9096 42.2955 36.9133C42.3792 36.91 42.4627 36.925 42.54 36.9573C42.5603 36.9673 42.5806 36.9772 42.6017 36.9856L43.7947 37.4771C43.8138 37.4847 43.8329 37.4916 43.8525 37.4977C44.0295 37.5818 44.1664 37.732 44.2337 37.9161L44.6294 39.6958C44.7232 40.0731 44.9382 40.4092 45.2415 40.6525C45.5447 40.8958 45.9194 41.0328 46.3081 41.0426H47.0736C47.4622 41.0327 47.8368 40.8956 48.14 40.6523C48.4433 40.409 48.6583 40.073 48.7522 39.6958L49.148 37.9161C49.2151 37.732 49.3521 37.5817 49.5292 37.4977C49.5487 37.4916 49.5678 37.4847 49.5866 37.4771L50.7796 36.9856C50.8006 36.9772 50.8213 36.9673 50.8412 36.9573C50.9184 36.9251 51.0018 36.9101 51.0854 36.9133C51.1951 36.9094 51.3041 36.9331 51.4023 36.9822L52.9409 37.9605C53.2756 38.1558 53.6641 38.2384 54.0493 38.1962C54.4344 38.154 54.7959 37.9893 55.0804 37.7262L55.6216 37.1851C55.8894 36.9032 56.0574 36.5413 56.0999 36.1548C56.1423 35.7682 56.0569 35.3785 55.8566 35.0452L54.8776 33.507C54.8368 33.4197 54.8137 33.3252 54.8095 33.2289C54.8053 33.1326 54.8201 33.0365 54.8531 32.9459C54.8634 32.9256 54.873 32.9053 54.8814 32.8847L55.3724 31.6909C55.3806 31.6722 55.3876 31.653 55.3935 31.6335C55.4774 31.4562 55.6279 31.3191 55.8122 31.2519L57.5911 30.8566C57.9685 30.7628 58.3046 30.5478 58.548 30.2445C58.7914 29.9413 58.9285 29.5666 58.9384 29.1779V28.4124C58.9285 28.0237 58.7915 27.649 58.5481 27.3458C58.3048 27.0426 57.9687 26.8275 57.5914 26.7337V26.7337Z" fill="url(#paint1_linear_1144_435)"/>
<path opacity="0.2" d="M50.518 28.7951C50.518 29.5521 50.2935 30.2921 49.8729 30.9215C49.4524 31.5509 48.8546 32.0414 48.1553 32.3311C47.4559 32.6208 46.6864 32.6966 45.9439 32.5489C45.2015 32.4012 44.5195 32.0367 43.9843 31.5015C43.449 30.9662 43.0845 30.2842 42.9368 29.5418C42.7891 28.7994 42.8649 28.0298 43.1546 27.3305C43.4443 26.6311 43.9349 26.0334 44.5643 25.6128C45.1937 25.1923 45.9336 24.9678 46.6906 24.9678C47.7053 24.969 48.6781 25.3726 49.3956 26.0901C50.1131 26.8076 50.5167 27.7804 50.518 28.7951V28.7951Z" fill="url(#paint2_linear_1144_435)"/>
<path d="M46.6912 31.5041C48.1873 31.5041 49.4002 30.2913 49.4002 28.7951C49.4002 27.299 48.1873 26.0861 46.6912 26.0861C45.195 26.0861 43.9822 27.299 43.9822 28.7951C43.9822 30.2913 45.195 31.5041 46.6912 31.5041Z" fill="white"/>
<path d="M46.6912 32.5925V38.3408C46.6912 39.0393 46.5536 39.731 46.2863 40.3763C46.019 41.0217 45.6272 41.608 45.1333 42.102C44.6393 42.5959 44.053 42.9877 43.4076 43.255C42.7623 43.5223 42.0706 43.6599 41.3721 43.6599H30.8716C30.173 43.6599 29.4814 43.7975 28.836 44.0648C28.1907 44.3321 27.6043 44.7239 27.1104 45.2178C26.6165 45.7117 26.2247 46.2981 25.9574 46.9435C25.6901 47.5888 25.5525 48.2805 25.5525 48.979V55.7839" stroke="white" stroke-miterlimit="10"/>
<path d="M46.6912 28.7951V52.0746C46.6912 53.9753 47.4462 55.7982 48.7902 57.1422C50.1343 58.4862 51.9571 59.2413 53.8579 59.2413H60.6631C62.5638 59.2413 64.3867 59.9963 65.7307 61.3404C67.0748 62.6844 67.8298 64.5072 67.8298 66.408" stroke="white" stroke-miterlimit="10"/>
<path d="M46.6907 36.3208V41.3998C46.6907 42.9396 47.3024 44.4164 48.3912 45.5052C49.48 46.5941 50.9568 47.2058 52.4967 47.2058H66.7917" stroke="white" stroke-miterlimit="10"/>
<path d="M19.5949 60.419L25.5569 56.978L31.5179 60.419V67.304L25.5569 70.744L19.5869 67.304V60.443L19.5949 60.419Z" fill="url(#paint3_linear_1144_435)"/>
<path d="M19.603 60.431L25.551 63.851L25.552 70.734L19.595 67.3V60.455L19.603 60.431Z" fill="#0078D4"/>
<path opacity="0.9" d="M22.6172 64.496C22.6113 64.4916 22.6042 64.4888 22.5967 64.4882C22.5893 64.4875 22.5819 64.4889 22.5752 64.4922L21.2804 65.2256C21.2422 65.247 21.2682 65.3365 21.3217 65.3671L22.01 65.6952L22.0528 65.7196C22.0703 65.7311 22.0847 65.7464 22.0951 65.7645C22.1055 65.7826 22.1114 65.8028 22.1125 65.8236L22.1056 67.3792C22.1088 67.4372 22.1255 67.4937 22.1543 67.5441C22.1831 67.5946 22.2233 67.6376 22.2716 67.6698L22.7848 67.9758C22.8796 68.0301 22.9553 67.988 22.9561 67.8809L22.9614 66.3185C22.9614 66.2802 22.9874 66.2649 23.0211 66.284L23.0639 66.3085L23.8654 66.7995C23.9189 66.8301 23.9457 66.7712 23.9082 66.7062L22.6593 64.5404C22.6492 64.5223 22.6348 64.507 22.6172 64.496V64.496Z" fill="white"/>
<path opacity="0.5" d="M21.7522 61.6686L27.5645 58.1368L29.387 59.1868L23.5747 62.7209V63.8398C23.5748 63.857 23.5695 63.8738 23.5597 63.8879C23.5499 63.902 23.5359 63.9127 23.5197 63.9185C23.5036 63.9244 23.486 63.9251 23.4694 63.9206C23.4528 63.9161 23.438 63.9066 23.4271 63.8933L22.6562 62.9756C22.6458 62.9633 22.6322 62.9542 22.6169 62.9493C22.6016 62.9444 22.5853 62.944 22.5697 62.948L21.8531 63.101C21.8315 63.1057 21.809 63.1016 21.7904 63.0896C21.7718 63.0776 21.7587 63.0587 21.7541 63.0371L21.7522 63.02V61.6686Z" fill="white"/>
<path d="M61.872 70.246L67.834 66.806L73.795 70.246V77.131L67.834 80.572L61.864 77.131V70.27L61.872 70.246Z" fill="url(#paint4_linear_1144_435)"/>
<path d="M61.8801 70.259L67.8281 73.679L67.8291 80.561L61.8721 77.128V70.282L61.8801 70.259Z" fill="#0078D4"/>
<path opacity="0.9" d="M64.8946 74.3235C64.8886 74.3191 64.8815 74.3164 64.8741 74.3157C64.8667 74.315 64.8592 74.3164 64.8525 74.3197L63.5577 75.0531C63.5195 75.0745 63.5455 75.164 63.599 75.1946L64.2873 75.5227L64.3302 75.5472C64.3476 75.5586 64.3621 75.574 64.3725 75.592C64.3828 75.6101 64.3888 75.6304 64.3898 75.6512L64.383 77.2068C64.3861 77.2648 64.4028 77.3212 64.4316 77.3717C64.4604 77.4221 64.5006 77.4652 64.5489 77.4974L65.0621 77.8033C65.157 77.8576 65.2327 77.8155 65.2334 77.7085L65.2388 76.146C65.2388 76.1078 65.2648 76.0925 65.2984 76.1116L65.3413 76.1361L66.1428 76.6271C66.1963 76.6576 66.2231 76.5988 66.1856 76.5338L64.9367 74.3679C64.9266 74.3498 64.9121 74.3346 64.8946 74.3235V74.3235Z" fill="white"/>
<path opacity="0.5" d="M64.0295 71.4961L69.8419 67.9644L71.6644 69.0144L65.852 72.5485V73.6674C65.8521 73.6845 65.8469 73.7013 65.837 73.7154C65.8272 73.7296 65.8132 73.7403 65.7971 73.7461C65.7809 73.752 65.7633 73.7527 65.7467 73.7482C65.7302 73.7437 65.7154 73.7341 65.7044 73.7209L64.9335 72.8031C64.9232 72.7908 64.9096 72.7817 64.8943 72.7769C64.879 72.772 64.8626 72.7716 64.8471 72.7756L64.1305 72.9286C64.1089 72.9333 64.0863 72.9292 64.0677 72.9172C64.0491 72.9052 64.0361 72.8863 64.0314 72.8647L64.0295 72.8475L64.0295 71.4961Z" fill="white"/>
<path d="M67.8371 43.304L73.8001 39.863L79.7601 43.304V50.189L73.8001 53.63L67.8301 50.189V43.328L67.8371 43.304Z" fill="url(#paint5_linear_1144_435)"/>
<path d="M67.8459 43.316L73.7939 46.737V53.619L67.8369 50.186V43.34L67.8459 43.316Z" fill="#0078D4"/>
<path opacity="0.9" d="M70.8599 47.3812C70.8539 47.3768 70.8468 47.3741 70.8394 47.3734C70.832 47.3727 70.8245 47.3741 70.8178 47.3774L69.5231 48.1108C69.4848 48.1323 69.5108 48.2217 69.5644 48.2523L70.2527 48.5804L70.2955 48.6049C70.3129 48.6163 70.3274 48.6317 70.3378 48.6497C70.3482 48.6678 70.3541 48.6881 70.3552 48.7089L70.3483 50.2645C70.3515 50.3225 70.3681 50.3789 70.397 50.4294C70.4258 50.4798 70.4659 50.5229 70.5143 50.5551L71.0274 50.861C71.1223 50.9153 71.198 50.8732 71.1988 50.7662L71.2041 49.2037C71.2041 49.1655 71.2301 49.1502 71.2637 49.1693L71.3066 49.1938L72.1081 49.6848C72.1616 49.7154 72.1884 49.6565 72.1509 49.5915L70.902 47.4256C70.8919 47.4075 70.8774 47.3923 70.8599 47.3812V47.3812Z" fill="white"/>
<path opacity="0.5" d="M69.9949 44.5538L75.8072 41.0221L77.6297 42.0721L71.8174 45.6061V46.725C71.8174 46.7422 71.8122 46.759 71.8024 46.7731C71.7925 46.7872 71.7786 46.7979 71.7624 46.8038C71.7463 46.8097 71.7287 46.8104 71.7121 46.8059C71.6955 46.8013 71.6807 46.7918 71.6697 46.7785L70.8988 45.8608C70.8885 45.8485 70.8749 45.8394 70.8596 45.8345C70.8443 45.8297 70.828 45.8292 70.8124 45.8333L70.0958 45.9862C70.0742 45.9909 70.0516 45.9868 70.0331 45.9748C70.0145 45.9628 70.0014 45.9439 69.9967 45.9223L69.9949 45.9052V44.5538Z" fill="white"/>
<path d="M40.7341 70.309L46.6961 66.868L52.6571 70.309V77.193L46.6961 80.634L40.7261 77.193V70.333L40.7341 70.309Z" fill="url(#paint6_linear_1144_435)"/>
<path d="M40.7419 70.321L46.6899 73.741V80.623L40.7339 77.19V70.345L40.7419 70.321Z" fill="#0078D4"/>
<path opacity="0.9" d="M43.7559 74.3859C43.7499 74.3814 43.7428 74.3787 43.7354 74.3781C43.728 74.3774 43.7205 74.3788 43.7138 74.3821L42.4191 75.1155C42.3808 75.1369 42.4068 75.2264 42.4604 75.257L43.1487 75.5851L43.1915 75.6095C43.2089 75.621 43.2234 75.6363 43.2338 75.6544C43.2441 75.6725 43.2501 75.6927 43.2512 75.7135L43.2443 77.2691C43.2475 77.3271 43.2641 77.3836 43.2929 77.434C43.3217 77.4845 43.3619 77.5275 43.4102 77.5597L43.9234 77.8656C44.0182 77.9199 44.0939 77.8779 44.0947 77.7708L44.1001 76.2084C44.1001 76.1701 44.1261 76.1548 44.1597 76.1739L44.2025 76.1984L45.004 76.6894C45.0576 76.72 45.0843 76.6611 45.0469 76.5961L43.7979 74.4302C43.7878 74.4122 43.7734 74.3969 43.7559 74.3859Z" fill="white"/>
<path opacity="0.5" d="M42.8911 71.5585L48.7035 68.0267L50.5259 69.0767L44.7136 72.6108V73.7297C44.7137 73.7469 44.7084 73.7637 44.6986 73.7778C44.6888 73.7919 44.6748 73.8026 44.6587 73.8084C44.6425 73.8143 44.6249 73.815 44.6083 73.8105C44.5917 73.806 44.5769 73.7964 44.566 73.7832L43.7951 72.8654C43.7848 72.8532 43.7712 72.8441 43.7559 72.8392C43.7406 72.8343 43.7242 72.8339 43.7087 72.8379L42.9921 72.9909C42.9705 72.9956 42.9479 72.9915 42.9293 72.9795C42.9107 72.9675 42.8977 72.9486 42.893 72.927L42.8911 72.9099V71.5585Z" fill="white"/>
<path d="M25.5526 58.6611C26.482 58.6611 27.2355 57.9076 27.2355 56.9782C27.2355 56.0487 26.482 55.2952 25.5526 55.2952C24.6231 55.2952 23.8696 56.0487 23.8696 56.9782C23.8696 57.9076 24.6231 58.6611 25.5526 58.6611Z" fill="white"/>
<path d="M67.8289 68.4886C68.7584 68.4886 69.5119 67.7352 69.5119 66.8057C69.5119 65.8762 68.7584 65.1228 67.8289 65.1228C66.8995 65.1228 66.146 65.8762 66.146 66.8057C66.146 67.7352 66.8995 68.4886 67.8289 68.4886Z" fill="white"/>
<path d="M46.6856 67.5824C47.6151 67.5824 48.3686 66.8289 48.3686 65.8995C48.3686 64.97 47.6151 64.2165 46.6856 64.2165C45.7562 64.2165 45.0027 64.97 45.0027 65.8995C45.0027 66.8289 45.7562 67.5824 46.6856 67.5824Z" fill="white"/>
<path d="M66.7916 48.8887C67.721 48.8887 68.4745 48.1353 68.4745 47.2058C68.4745 46.2763 67.721 45.5229 66.7916 45.5229C65.8621 45.5229 65.1086 46.2763 65.1086 47.2058C65.1086 48.1353 65.8621 48.8887 66.7916 48.8887Z" fill="white"/>
<path d="M46.6907 45.5229V65.5824" stroke="white" stroke-miterlimit="10"/>
</g>
<defs>
<linearGradient id="paint0_linear_1144_435" x1="47.8697" y1="-15.1531" x2="51.8525" y2="130.615" gradientUnits="userSpaceOnUse">
<stop stop-color="#00ABDE"/>
<stop offset="1" stop-color="#007ED8"/>
</linearGradient>
<linearGradient id="paint1_linear_1144_435" x1="46.6908" y1="41.0426" x2="46.6908" y2="16.5477" gradientUnits="userSpaceOnUse">
<stop stop-color="#CCCCCC"/>
<stop offset="0.32" stop-color="#DFDFDF"/>
<stop offset="0.67" stop-color="#ECECEC"/>
<stop offset="1" stop-color="#F0F0F0"/>
</linearGradient>
<linearGradient id="paint2_linear_1144_435" x1="46.6906" y1="32.6225" x2="46.6906" y2="24.9678" gradientUnits="userSpaceOnUse">
<stop stop-color="#CCCCCC"/>
<stop offset="1" stop-color="white"/>
</linearGradient>
<linearGradient id="paint3_linear_1144_435" x1="25.5524" y1="72.4972" x2="25.5524" y2="54.4269" gradientUnits="userSpaceOnUse">
<stop stop-color="#0078D4"/>
<stop offset="1" stop-color="#83B9F9"/>
</linearGradient>
<linearGradient id="paint4_linear_1144_435" x1="67.8298" y1="82.3247" x2="67.8298" y2="64.2544" gradientUnits="userSpaceOnUse">
<stop stop-color="#0078D4"/>
<stop offset="1" stop-color="#83B9F9"/>
</linearGradient>
<linearGradient id="paint5_linear_1144_435" x1="73.7951" y1="55.3824" x2="73.7951" y2="37.3121" gradientUnits="userSpaceOnUse">
<stop stop-color="#0078D4"/>
<stop offset="1" stop-color="#83B9F9"/>
</linearGradient>
<linearGradient id="paint6_linear_1144_435" x1="46.6913" y1="82.3871" x2="46.6913" y2="64.3167" gradientUnits="userSpaceOnUse">
<stop stop-color="#0078D4"/>
<stop offset="1" stop-color="#83B9F9"/>
</linearGradient>
<clipPath id="clip0_1144_435">
<rect width="99.2799" height="99.28" fill="white"/>
</clipPath>
</defs>
</svg>
