<?xml version="1.0" encoding="UTF-8"?>
<svg width="107px" height="107px" viewBox="0 0 107 107" version="1.1" xmlns="http://www.w3.org/2000/svg" xmlns:xlink="http://www.w3.org/1999/xlink">
    <!-- Generator: Sketch 63.1 (92452) - https://sketch.com -->
    <title>Protect your enterprise information with Microsoft 365/Information-protection-and-the-growing-digital-estate</title>
    <desc>Created with Sketch.</desc>
    <defs>
        <rect id="path-1" x="0" y="0" width="100" height="100" rx="50"></rect>
        <filter x="-5.0%" y="-8.0%" width="110.0%" height="116.0%" filterUnits="objectBoundingBox" id="filter-3">
            <feOffset dx="0" dy="2" in="SourceAlpha" result="shadowOffsetOuter1"></feOffset>
            <feColorMatrix values="0 0 0 0 0   0 0 0 0 0   0 0 0 0 0  0 0 0 0.0964956975 0" type="matrix" in="shadowOffsetOuter1" result="shadowMatrixOuter1"></feColorMatrix>
            <feMerge>
                <feMergeNode in="shadowMatrixOuter1"></feMergeNode>
                <feMergeNode in="SourceGraphic"></feMergeNode>
            </feMerge>
        </filter>
        <filter x="-8.3%" y="-7.3%" width="116.7%" height="114.8%" filterUnits="objectBoundingBox" id="filter-4">
            <feOffset dx="0" dy="2" in="SourceAlpha" result="shadowOffsetOuter1"></feOffset>
            <feColorMatrix values="0 0 0 0 0   0 0 0 0 0   0 0 0 0 0  0 0 0 0.102128623 0" type="matrix" in="shadowOffsetOuter1" result="shadowMatrixOuter1"></feColorMatrix>
            <feMerge>
                <feMergeNode in="shadowMatrixOuter1"></feMergeNode>
                <feMergeNode in="SourceGraphic"></feMergeNode>
            </feMerge>
        </filter>
        <linearGradient x1="76.7275556%" y1="-4.05946744%" x2="15.5786468%" y2="110.793945%" id="linearGradient-5">
            <stop stop-color="#FFFFFF" offset="0%"></stop>
            <stop stop-color="#000000" stop-opacity="0.5" offset="100%"></stop>
        </linearGradient>
        <rect id="path-6" x="-3" y="-3" width="106" height="106" rx="53"></rect>
        <filter x="-0.5%" y="-0.5%" width="101.9%" height="101.9%" filterUnits="objectBoundingBox" id="filter-7">
            <feOffset dx="1" dy="1" in="SourceAlpha" result="shadowOffsetOuter1"></feOffset>
            <feMorphology radius="4" operator="erode" in="SourceAlpha" result="shadowInner"></feMorphology>
            <feOffset dx="1" dy="1" in="shadowInner" result="shadowInner"></feOffset>
            <feComposite in="shadowOffsetOuter1" in2="shadowInner" operator="out" result="shadowOffsetOuter1"></feComposite>
            <feColorMatrix values="0 0 0 0 0   0 0 0 0 0   0 0 0 0 0  0 0 0 0.15 0" type="matrix" in="shadowOffsetOuter1"></feColorMatrix>
        </filter>
    </defs>
    <g id="Badges" stroke="none" stroke-width="1" fill="none" fill-rule="evenodd">
        <g id="Protect-your-enterprise-information-with-Microsoft-365" transform="translate(-47.000000, -457.000000)">
            <g id="Protect-your-enterprise-information-with-Microsoft-365/Information-protection-and-the-growing-digital-estate" transform="translate(50.000000, 460.000000)">
                <g id="Mask" transform="translate(2.000000, 2.000000)">
                    <g id="Circle-" transform="translate(-2.000000, -0.000000)">
                        <mask id="mask-2" fill="white">
                            <use xlink:href="#path-1"></use>
                        </mask>
                        <g id="BG"></g>
                        <g id="Color-/-Microsoft-365" mask="url(#mask-2)" fill="#0078D4" fill-rule="evenodd">
                            <rect id="Rectangle" x="0" y="0" width="100" height="100"></rect>
                        </g>
                    </g>
                    <g id="One-Cloud" filter="url(#filter-3)" transform="translate(10.000000, 16.000000)">
                        <path d="M17.5,15 C17.62625,15 17.74875,15.01625 17.87375,15.01875 C19.60375,6.45125 27.1725,0 36.25,0 C44.365,0 51.255,5.16375 53.865,12.3775 C55.345,11.6625 56.9975,11.25 58.75,11.25 C64.96375,11.25 70,16.28625 70,22.5 C70,22.6775 69.98125,22.84875 69.97375,23.02375 C75.75625,24.65 80,29.94875 80,36.25 C80,43.84375 73.84375,50 66.25,50 L17.5,50 C7.835,50 0,42.165 0,32.5 C0,22.835 7.835,15 17.5,15" id="Fill-11" fill="#FFFFFF"></path>
                        <path d="M67.19875,22.5475 C68.155,22.61375 69.08125,22.77375 69.97375,23.02375 C69.98125,22.84875 70,22.6775 70,22.5 C70,18.755 68.1625,15.44625 65.34875,13.40125 C66.69625,15.25625 67.5,17.53125 67.5,20 C67.5,20.8775 67.38875,21.7275 67.19875,22.5475" id="Fill-12" fill="#C4CBCD"></path>
                        <path d="M65.815,50 C74.2521369,50 79.72625,44.22 79.99125,36.75 C80.1675,31.79 77.71375,27.39 73.915,24.835 C75.80625,27.645 76.6875,31.18875 76.0375,34.95125 C75.12875,40.21 71.09375,44.535 65.915,45.825 C63.02125,46.54625 60.25125,46.31 57.7975,45.415 C59.17625,43.54875 60,41.24875 60,38.75 C60,35.005 58.1625,31.69625 55.34875,29.65125 C57.045,31.98625 57.88,34.9875 57.33375,38.2 C56.54875,42.8225 52.825,46.5475 48.20375,47.33375 C47.24375,47.49625 46.3025,47.53625 45.3925,47.4675 C41.82625,47.195 38.885,44.57625 37.8925,41.14 C37.66,40.3325 37.5,39.505 37.5,38.75 C37.5,38.29625 37.5325,37.85125 37.5875,37.4125 C37.8075,35.555 38.47625,33.83625 39.48875,32.37 C38.05125,32.9475 36.5325,33.365 34.94625,33.5725 C34.9675,33.21625 35,32.8625 35,32.5 C35,26.71 32.17625,21.5925 27.84375,18.40625 C30.465,21.97375 31.79125,26.5525 31.0425,31.4675 C29.90875,38.9125 23.9125,44.90875 16.4675,46.0425 C11.5525,46.79125 6.97375,45.465 3.40625,42.84375 C6.5925,47.17625 11.71,50 17.5,50 L48.75,50 L65.815,50 Z" id="Fill-13" fill="#E6E6E6"></path>
                        <path d="M48.75,27.5 C50.0525,27.5 51.29875,27.7325 52.4625,28.14 C54.06625,25.37625 55,22.175 55,18.75 C55,12.615 52.04,7.185 47.485,3.765 C49.83875,6.8975 51.25,10.78 51.25,15 C51.25,19.965 49.30625,24.46375 46.15375,27.8125 C46.98875,27.615 47.855,27.5 48.75,27.5" id="Fill-14" fill="#E6E6E6"></path>
                    </g>
                    <g id="Group-3" transform="translate(20.000000, 9.000000)">
                        <g id="Govt" filter="url(#filter-4)" transform="translate(6.000000, 0.000000)">
                            <polyline id="Fill-1264" fill="#C5CCCD" points="0.857142857 18 0.857142857 17.5842857 24 1.05257143 47.1428571 17.5842857 47.1428571 18 0.857142857 18"></polyline>
                            <polygon id="Fill-1265" fill="#546670" points="31.7142857 46.2857143 40.2857143 46.2857143 40.2857143 22.2857143 31.7142857 22.2857143"></polygon>
                            <polygon id="Fill-1266" fill="#546670" points="19.7142857 46.2857143 28.2857143 46.2857143 28.2857143 22.2857143 19.7142857 22.2857143"></polygon>
                            <polygon id="Fill-1267" fill="#546670" points="7.71428571 46.2857143 16.2857143 46.2857143 16.2857143 22.2857143 7.71428571 22.2857143"></polygon>
                            <path d="M7.71428571,22.2857143 L7.71428571,46.2857143 L10.2857143,46.2857143 L10.2857143,25.7142857 C10.2857143,24.7671429 11.0528571,24 12,24 L16.2857143,24 L16.2857143,22.2857143 L7.71428571,22.2857143" id="Fill-1268" fill="#30404D"></path>
                            <path d="M19.7142857,22.2857143 L19.7142857,46.2857143 L22.2857143,46.2857143 L22.2857143,25.7142857 C22.2857143,24.7671429 23.0528571,24 24,24 L28.2857143,24 L28.2857143,22.2857143 L19.7142857,22.2857143" id="Fill-1269" fill="#30404D"></path>
                            <path d="M31.7142857,22.2857143 L31.7142857,46.2857143 L34.2857143,46.2857143 L34.2857143,25.7142857 C34.2857143,24.7671429 35.0528571,24 36,24 L40.2857143,24 L40.2857143,22.2857143 L31.7142857,22.2857143" id="Fill-1270" fill="#30404D"></path>
                            <path d="M2.57142857,49.7142857 C2.57142857,50.1857143 2.95714286,50.5714286 3.42857143,50.5714286 L44.5714286,50.5714286 C45.0428571,50.5714286 45.4285714,50.1857143 45.4285714,49.7142857 L45.4285714,47.1428571 C45.4285714,46.6714286 45.0428571,46.2857143 44.5714286,46.2857143 L3.42857143,46.2857143 C2.95714286,46.2857143 2.57142857,46.6714286 2.57142857,47.1428571 L2.57142857,49.7142857" id="Fill-1271" fill="#E1E4E1"></path>
                            <path d="M2.57142857,21.4285714 C2.57142857,21.9 2.95714286,22.2857143 3.42857143,22.2857143 L44.5714286,22.2857143 C45.0428571,22.2857143 45.4285714,21.9 45.4285714,21.4285714 L45.4285714,18.8571429 C45.4285714,18.3857143 45.0428571,18 44.5714286,18 L3.42857143,18 C2.95714286,18 2.57142857,18.3857143 2.57142857,18.8571429 L2.57142857,21.4285714" id="Fill-1272" fill="#E1E4E1"></path>
                            <path d="M0,54 C0,54.4714286 0.385714286,54.8571429 0.857142857,54.8571429 L47.1428571,54.8571429 C47.6142857,54.8571429 48,54.4714286 48,54 L48,50.5714286 C48,50.1 47.6142857,49.7142857 47.1428571,49.7142857 L0.857142857,49.7142857 C0.385714286,49.7142857 0,50.1 0,50.5714286 L0,54" id="Fill-1273" fill="#E1E4E1"></path>
                            <polygon id="Fill-1274" fill="#E1E4E1" points="4.28571429 46.2857143 7.71428571 46.2857143 7.71428571 24 4.28571429 24"></polygon>
                            <polygon id="Fill-1275" fill="#E1E4E1" points="16.2857143 46.2857143 19.7142857 46.2857143 19.7142857 24 16.2857143 24"></polygon>
                            <polygon id="Fill-1276" fill="#E1E4E1" points="28.2857143 46.2857143 31.7142857 46.2857143 31.7142857 24 28.2857143 24"></polygon>
                            <polygon id="Fill-1277" fill="#E1E4E1" points="40.2857143 46.2857143 43.7142857 46.2857143 43.7142857 24 40.2857143 24"></polygon>
                            <path d="M24,0 L0,17.1428571 L0,18.8571429 L48,18.8571429 L48,17.1428571 L24,0 Z M24,2.10685714 L45.0505714,17.1428571 L2.94942857,17.1428571 L24,2.10685714 L24,2.10685714 Z" id="Fill-1278" fill="#E1E4E1"></path>
                            <path d="M47.1428571,54.8571429 C47.6142857,54.8571429 48,54.4714286 48,54 L48,50.5714286 L25.7142857,50.5714286 C25.2411429,50.5714286 24.8571429,50.9554286 24.8571429,51.4285714 L24.8571429,53.1428571 C24.8571429,53.616 24.4731429,54 24,54 L0,54 C0,54.4714286 0.385714286,54.8571429 0.857142857,54.8571429 L47.1428571,54.8571429" id="Fill-1281" fill="#C5CCCD"></path>
                            <path d="M45.4285714,49.7142857 L45.4285714,47.1428571 L25.7142857,47.1428571 C25.2411429,47.1428571 24.8571429,47.5268571 24.8571429,48 C24.8571429,48.4731429 24.4731429,48.8571429 24,48.8571429 L2.57142857,48.8571429 L2.57142857,49.7142857 L45.4285714,49.7142857" id="Fill-1282" fill="#C5CCCD"></path>
                            <path d="M27.4285714,22.2857143 L28.2857143,24 L29.1428571,24 C29.616,24 30,24.384 30,24.8571429 L30,46.2857143 L31.7142857,46.2857143 L31.7142857,24 L32.5714286,22.2857143 L27.4285714,22.2857143" id="Fill-1283" fill="#C5CCCD"></path>
                            <path d="M39.4285714,22.2857143 L40.2857143,24 L41.1428571,24 C41.616,24 42,24.384 42,24.8571429 L42,46.2857143 L43.7142857,46.2857143 L43.7142857,24 L44.5714286,22.2857143 L39.4285714,22.2857143" id="Fill-1284" fill="#C5CCCD"></path>
                            <path d="M15.4285714,22.2857143 L16.2857143,24 L17.1428571,24 C17.616,24 18,24.384 18,24.8571429 L18,46.2857143 L19.7142857,46.2857143 L19.7142857,24 L20.5714286,22.2857143 L15.4285714,22.2857143" id="Fill-1285" fill="#C5CCCD"></path>
                            <path d="M3.42857143,22.2857143 L4.28571429,24 L5.14285714,24 C5.616,24 6,24.384 6,24.8571429 L6,46.2857143 L7.71428571,46.2857143 L7.71428571,24 L8.57142857,22.2857143 L3.42857143,22.2857143" id="Fill-1286" fill="#C5CCCD"></path>
                            <path d="M2.57142857,18.8571429 L2.57142857,19.7142857 L22.2857143,19.7142857 C23.2328571,19.7142857 24,20.4814286 24,21.4285714 L24,22.2857143 L44.5714286,22.2857143 C45.0428571,22.2857143 45.4285714,21.9 45.4285714,21.4285714 L45.4285714,18.8571429 L2.57142857,18.8571429" id="Fill-1287" fill="#C5CCCD"></path>
                            <polyline id="Fill-1288" fill="#AAB0B1" points="42.8571429 17.1428571 24 3.42857143 24 2.10685714 45.0505714 17.1428571 42.8571429 17.1428571"></polyline>
                            <polyline id="Fill-1289" fill="#AAB0B1" points="5.14285714 17.1428571 24 3.42857143 24 2.10685714 2.94942857 17.1428571 5.14285714 17.1428571"></polyline>
                        </g>
                        <g id="Group-2" transform="translate(0.000000, 49.285714)">
                            <path d="M5.68956969,6.69940294e-14 C5.36526422,6.69940294e-14 5.04759658,0.0341374181 4.74130808,0.0976709464 L4.74130808,7.58609292 L9.57649405,7.58609292 C10.1141584,6.80282883 10.4308778,5.85361895 10.4308778,4.82854814 C10.4308778,2.16108822 8.30772001,6.69940294e-14 5.68956969,6.69940294e-14" id="Fill-685" fill="#C5CCCD"></path>
                            <path d="M8.62823244,7.58609292 C9.16494851,6.80282883 9.48261615,5.85361895 9.48261615,4.82854814 C9.48261615,2.16108822 7.35945839,6.69940294e-14 4.74130808,6.69940294e-14 C2.12315776,6.69940294e-14 6.69940294e-14,2.16108822 6.69940294e-14,4.82854814 C6.69940294e-14,5.85361895 0.317667641,6.80282883 0.853435454,7.58609292 L8.62823244,7.58609292" id="Fill-686" fill="#87BF5F"></path>
                            <g id="Group-7" transform="translate(48.257754, 0.642912)">
                                <path d="M6.66683214,6.94318055 C7.06130897,6.39508534 7.2926848,5.73035394 7.2926848,5.0125199 C7.2926848,3.14539278 5.73563923,1.6329155 3.81635772,1.6329155 C1.89612795,1.6329155 0.339082378,3.14539278 0.339082378,5.0125199 C0.339082378,5.73035394 0.571406474,6.39508534 0.964935044,6.94318055 L6.66683214,6.94318055" id="Fill-499" fill="#6AA143"></path>
                                <path d="M10.0189369,6.94318055 C10.4911712,6.2575874 10.7699601,5.42691023 10.7699601,4.52985474 C10.7699601,2.1961829 8.90188476,0.305349244 6.59760904,0.305349244 C4.29333331,0.305349244 2.42525793,2.1961829 2.42525793,4.52985474 C2.42525793,5.42691023 2.70404685,6.2575874 3.17628113,6.94318055 L10.0189369,6.94318055" id="Fill-500" fill="#87BF5F"></path>
                                <path d="M2.69551249,1.8282574 C1.32811924,2.28342297 0.339082378,3.52849047 0.339082378,5.0125199 C0.339082378,5.73035394 0.571406474,6.39508534 0.964935044,6.94318055 L2.48025711,6.94318055 C2.00897108,6.2575874 1.73018217,5.42691023 1.73018217,4.52985474 C1.73018217,3.50193915 2.09336637,2.56031536 2.69551249,1.8282574" id="Fill-501" fill="#6EA846"></path>
                                <path d="M9.09058882,1.14550903 C9.61402924,1.83868828 9.93548992,2.69022721 9.93548992,3.6242649 C9.93548992,4.9878651 9.26506896,6.18646778 8.2437912,6.94318055 L10.0189369,6.94318055 C10.5471187,6.24810479 10.7699601,5.39277281 10.7699601,4.45399381 C10.7699601,3.09608318 10.1042805,1.9022218 9.09058882,1.14550903" id="Fill-503" fill="#6EA846"></path>
                            </g>
                        </g>
                    </g>
                    <g id="Group" transform="translate(7.000000, 30.000000)" fill-rule="nonzero">
                        <ellipse id="Shadow" fill="#000000" opacity="0.1" cx="22.5656979" cy="48.2557735" rx="18.1035294" ry="3.1545098"></ellipse>
                        <g id="Cape" transform="translate(33.135110, 5.007146)">
                            <path d="M0.103529412,13.2862745 C0.103529412,16.4235294 2.45647059,19.5607843 4.02509804,19.5607843 C5.59372549,19.5607843 7.16235294,18.7764706 8.73098039,17.9921569 C10.2996078,17.2078431 14.2211765,19.5607843 17.3584314,18.7764706 C20.4956863,17.9921569 19.7113725,10.9333333 23.6329412,10.1490196 C27.5545098,9.36470588 29.907451,13.2862745 33.8290196,13.2862745 C37.7505882,13.2862745 43.2407843,10.1490196 45.5937255,5.44313725 C45.5937255,5.44313725 40.1035294,10.1490196 36.9662745,9.36470588 C33.8290196,8.58039216 30.6917647,0.737254902 27.5545098,2.30588235 C24.4172549,3.8745098 20.4956863,9.36470588 13.4368627,9.36470588 C8.73098039,9.36470588 4.54823529,7.53490196 0.887843137,3.8745098 C0.364705882,8.05803922 0.103529412,11.1952941 0.103529412,13.2862745 Z" id="Path-3" fill="#DF5142"></path>
                            <path d="M29.707451,11.5152941 L29.707451,11.9490196 C26.5858824,10.3254902 23.5160784,9.98745098 20.4956863,10.9341176 C15.4901961,12.5027451 14.2211765,14.8556863 8.73098039,14.8556863 C3.24078431,14.8556863 0.887843137,10.1498039 0.103529412,0.738039216 C4.80941176,7.79686275 7.16235294,7.79686275 8.73098039,7.79686275 C10.2996078,7.79686275 11.8682353,7.79686275 14.2211765,4.26745098 C16.5741176,0.738039216 21.28,2.30666667 22.8486275,4.26745098 C23.8094118,5.46823529 26.0956863,7.88470588 29.707451,11.5152941 Z" id="Path-2" fill="#C2423D"></path>
                        </g>
                        <g id="Legs" transform="translate(20.910655, 38.543951) rotate(-4.000000) translate(-20.910655, -38.543951) translate(10.322420, 27.171402)" fill="#30404D">
                            <path d="M3.70199544,18.3530885 L3.43768171,14.7828924 C3.23121906,11.9959689 3.32324508,9.1949598 3.71219151,6.42759827 L4.30591701,2.20563749 C4.36016519,1.69265188 4.68988302,1.25009407 5.16590141,1.05133895 C5.64191979,0.85258383 6.18844447,0.929278283 6.59137086,1.25137676 C6.99429725,1.57347524 7.18946919,2.08969145 7.10042681,2.59779435 L6.55925034,6.45504925 C6.17785132,9.16852793 6.08190234,11.9145086 6.27297583,14.6479904 L6.6196425,19.6150493 C6.64081897,19.9123042 6.56787779,20.1938728 6.42670132,20.4323042 C6.18083643,20.8682554 5.72242398,21.1413331 5.22199544,21.1499512 L2.61572093,21.1954414 C1.85166465,21.1871431 1.23288191,20.57246 1.21950476,19.8084758 C1.2061276,19.0444916 1.80301176,18.4085225 2.56630916,18.3734806 L3.70199544,18.3530885 L3.70199544,18.3530885 Z" id="Combined-Shape" transform="translate(4.170468, 11.068882) rotate(4.000000) translate(-4.170468, -11.068882) "></path>
                            <path d="M16.939905,19.5122021 L16.6748069,15.942006 C16.4683443,13.1550826 16.5603703,10.3540734 16.9493167,7.58671189 L17.5430422,3.36475111 C17.6017106,2.85543003 17.931888,2.41794707 18.4055998,2.22186779 C18.8793116,2.02578851 19.4220915,2.10193608 19.8235615,2.4207962 C20.2250315,2.73965631 20.4220816,3.25110497 20.3383363,3.75690797 L19.7963756,7.61337856 C19.4149217,10.3271156 19.3189726,13.073362 19.510101,15.8071041 L19.857552,20.7741629 C19.8779442,21.0714178 19.805003,21.3529864 19.6638265,21.5914178 C19.417903,22.0268282 18.9598893,22.2995477 18.459905,22.3082805 L15.8528461,22.3537707 C15.0887899,22.3454724 14.4700071,21.7307893 14.45663,20.9668051 C14.4432528,20.2028209 15.040137,19.5668518 15.8034344,19.5318099 L16.939905,19.5122021 L16.939905,19.5122021 Z" id="Combined-Shape-Copy" transform="translate(17.406870, 12.234147) scale(-1, 1) rotate(-4.000000) translate(-17.406870, -12.234147) "></path>
                        </g>
                        <g id="Arm" transform="translate(37.056691, 18.340839) rotate(8.000000) translate(-37.056691, -18.340839) translate(32.350808, 9.713388)" fill="#30404D">
                            <path d="M1.57647059,13.6494118 L5.15372549,9.53411765 C5.70128019,8.90436603 5.65991861,7.95615174 5.05960784,7.37647059 L0.738039216,3.20392157 C0.177369803,2.66222239 0.161920133,1.7685994 0.703529412,1.20784314 C1.24470588,0.647058824 1.31529412,0.0337254902 1.87607843,0.574901961 L8.27764706,7.44941176 C8.79558944,8.00542095 8.84053153,8.85271145 8.38431373,9.46039216 L4.73098039,14.3223529 C5.20073422,14.7892934 5.28271308,15.5200276 4.9281039,16.0794509 C4.57349473,16.6388741 3.87765089,16.8765593 3.25490196,16.6509804 L2.1254902,16.24 C1.4603357,15.9975217 1.07764021,15.2998822 1.23058824,14.6086275 C1.2227451,14.2698039 1.33568627,13.9262745 1.57568627,13.6494118 L1.57647059,13.6494118 Z" id="Combined-Shape"></path>
                        </g>
                        <g id="Arm-Copy" transform="translate(5.490196, 18.340915) scale(-1, 1) rotate(4.000000) translate(-5.490196, -18.340915) translate(0.784314, 9.713464)" fill="#30404D">
                            <path d="M1.57647059,13.6494118 L5.15372549,9.53411765 C5.70128019,8.90436603 5.65991861,7.95615174 5.05960784,7.37647059 L0.738039216,3.20392157 C0.177369803,2.66222239 0.161920133,1.7685994 0.703529412,1.20784314 C1.24470588,0.647058824 1.31529412,0.0337254902 1.87607843,0.574901961 L8.27764706,7.44941176 C8.79558944,8.00542095 8.84053153,8.85271145 8.38431373,9.46039216 L4.73098039,14.3223529 C5.20073422,14.7892934 5.28271308,15.5200276 4.9281039,16.0794509 C4.57349473,16.6388741 3.87765089,16.8765593 3.25490196,16.6509804 L2.1254902,16.24 C1.4603357,15.9975217 1.07764021,15.2998822 1.23058824,14.6086275 C1.2227451,14.2698039 1.33568627,13.9262745 1.57568627,13.6494118 L1.57647059,13.6494118 Z" id="Combined-Shape"></path>
                        </g>
                        <g id="Shield" transform="translate(21.142632, 17.254902) rotate(2.000000) translate(-21.142632, -17.254902) translate(7.024985, 0.784314)">
                            <path d="M13.9513725,1.0172549 C11.2431373,4.07294118 6.47215686,5.08627451 1.03372549,5.08627451 L1.03372549,13.225098 C1.03372549,21.6156863 4.81176471,27.0156863 13.9513725,31.5364706 C23.0909804,27.0156863 26.8690196,21.614902 26.8690196,13.225098 L26.8690196,5.08627451 C21.4313725,5.08627451 16.6603922,4.07294118 13.9513725,1.0172549" id="Fill-22" fill="#2D4A5E"></path>
                            <path d="M13.9513725,31.5364706 C23.0909804,27.0156863 26.8690196,21.614902 26.8690196,13.225098 L26.8690196,5.08627451 C21.4313725,5.08627451 16.6603922,4.07294118 13.9513725,1.0172549 L13.9513725,31.5364706 Z" id="Fill-23" fill="#000000" opacity="0.100000001"></path>
                            <path d="M2.06666667,6.07843137 L2.06666667,13.2156863 C2.06666667,21.0980392 5.51843137,26.105098 13.9513725,30.3937255 C22.3843137,26.105098 25.8360784,21.0980392 25.8360784,13.214902 L25.8360784,6.07764706 C20.4039216,5.94666667 16.4956863,4.75607843 13.9513725,2.45647059 C11.4070588,4.75607843 7.49960784,5.94666667 2.06666667,6.07764706 L2.06666667,6.07843137 Z M13.9513725,32.5537259 C13.7921569,32.5537259 13.6337255,32.5176471 13.4878431,32.4454902 C4.03372549,27.7670588 0,22.0156863 0,13.214902 L0,5.07294118 C0,4.50980392 0.462745098,4.05490196 1.03372549,4.05490196 C6.9827451,4.05490196 10.9537255,2.83686275 13.172549,0.331764706 C13.5654902,-0.110588235 14.3372549,-0.110588235 14.7301961,0.331764706 C16.9498039,2.83686275 20.92,4.05490196 26.8698039,4.05490196 C27.44,4.05490196 27.9027451,4.51058824 27.9027451,5.07294118 L27.9027451,13.214902 C27.9027451,22.014902 23.8690196,27.7670588 14.4156863,32.4454902 C14.271307,32.5168205 14.1124109,32.5537259 13.9513725,32.5537259 Z" id="Fill-24" fill="#182A37"></path>
                        </g>
                    </g>
                </g>
                <g id="Azure-Border">
                    <path d="M50,0 C74.5263677,-4.50542066e-15 94.9281966,17.6592499 99.1842495,40.9565123 L94.2027317,73.3905473 C85.8096395,89.2186645 69.1638777,100 50,100 C30.9551233,100 14.3971863,89.3521454 5.95457608,73.6848234 L0.0261464987,48.3675131 C0.887696267,21.508872 22.932015,4.97230817e-15 50,0 Z" id="Combined-Shape" fill="url(#linearGradient-5)" fill-rule="evenodd" opacity="0.400000006" style="mix-blend-mode: overlay;"></path>
                    <g>
                        <use fill="black" fill-opacity="1" filter="url(#filter-7)" xlink:href="#path-6"></use>
                        <rect stroke="#F2F1F0" stroke-width="4" stroke-linejoin="square" x="-1" y="-1" width="102" height="102" rx="51"></rect>
                    </g>
                    <rect stroke="#0078D4" stroke-width="4" x="2" y="2" width="96" height="96" rx="48"></rect>
                </g>
            </g>
        </g>
    </g>
</svg>