<?xml version="1.0" encoding="UTF-8"?>
<svg width="107px" height="107px" viewBox="0 0 107 107" version="1.1" xmlns="http://www.w3.org/2000/svg" xmlns:xlink="http://www.w3.org/1999/xlink">
    <!-- Generator: Sketch 63.1 (92452) - https://sketch.com -->
    <title>Protect your enterprise information with Microsoft 365/Information-Protection-Overview</title>
    <desc>Created with Sketch.</desc>
    <defs>
        <rect id="path-1" x="0" y="0" width="100" height="100" rx="50"></rect>
        <filter x="-8.5%" y="-6.0%" width="117.0%" height="111.9%" filterUnits="objectBoundingBox" id="filter-3">
            <feOffset dx="0" dy="2" in="SourceAlpha" result="shadowOffsetOuter1"></feOffset>
            <feColorMatrix values="0 0 0 0 0   0 0 0 0 0   0 0 0 0 0  0 0 0 0.0964956975 0" type="matrix" in="shadowOffsetOuter1" result="shadowMatrixOuter1"></feColorMatrix>
            <feMerge>
                <feMergeNode in="shadowMatrixOuter1"></feMergeNode>
                <feMergeNode in="SourceGraphic"></feMergeNode>
            </feMerge>
        </filter>
        <linearGradient x1="76.7275556%" y1="-4.05946744%" x2="15.5786468%" y2="110.793945%" id="linearGradient-4">
            <stop stop-color="#FFFFFF" offset="0%"></stop>
            <stop stop-color="#000000" stop-opacity="0.5" offset="100%"></stop>
        </linearGradient>
        <rect id="path-5" x="-3" y="-3" width="106" height="106" rx="53"></rect>
        <filter x="-0.5%" y="-0.5%" width="101.9%" height="101.9%" filterUnits="objectBoundingBox" id="filter-6">
            <feOffset dx="1" dy="1" in="SourceAlpha" result="shadowOffsetOuter1"></feOffset>
            <feMorphology radius="4" operator="erode" in="SourceAlpha" result="shadowInner"></feMorphology>
            <feOffset dx="1" dy="1" in="shadowInner" result="shadowInner"></feOffset>
            <feComposite in="shadowOffsetOuter1" in2="shadowInner" operator="out" result="shadowOffsetOuter1"></feComposite>
            <feColorMatrix values="0 0 0 0 0   0 0 0 0 0   0 0 0 0 0  0 0 0 0.15 0" type="matrix" in="shadowOffsetOuter1"></feColorMatrix>
        </filter>
    </defs>
    <g id="Badges" stroke="none" stroke-width="1" fill="none" fill-rule="evenodd">
        <g id="Protect-your-enterprise-information-with-Microsoft-365" transform="translate(-47.000000, -257.000000)">
            <g id="Protect-your-enterprise-information-with-Microsoft-365/Information-Protection-Overview" transform="translate(50.000000, 260.000000)">
                <g id="Mask" transform="translate(2.000000, 2.000000)">
                    <g id="Circle-" transform="translate(-2.000000, 0.000000)">
                        <mask id="mask-2" fill="white">
                            <use xlink:href="#path-1"></use>
                        </mask>
                        <g id="BG"></g>
                        <g id="Color-/-Microsoft-365" mask="url(#mask-2)" fill="#0078D4" fill-rule="evenodd">
                            <rect id="Rectangle" x="0" y="0" width="100" height="100"></rect>
                        </g>
                    </g>
                    <g id="Book" filter="url(#filter-3)" transform="translate(25.000000, 15.000000)">
                        <path d="M0.832518557,55.6124645 L0.832518557,61.6124645 C0.839673316,62.8067453 1.6709668,63.6146507 2.83251856,63.6124645 L46.8325186,63.6124645 L46.8325186,55.6124645 L0.832518557,55.6124645 Z" id="Shape" fill="#BE9556" fill-rule="nonzero"></path>
                        <path d="M2.83251856,56.6124645 L2.83251856,60.6124645 C2.86672747,61.717521 3.75260508,62.6147293 4.78807411,62.6124645 L46.8325186,62.6124645 L46.8325186,56.6124645 L2.83251856,56.6124645 Z" id="Shape" fill="#FFFFFF" fill-rule="nonzero"></path>
                        <polygon id="Shape" fill="#4F4D52" fill-rule="nonzero" opacity="0.2" points="2.83251856 56.6124645 2.83251856 57.6124645 46.8325186 57.6124645 46.8325186 56.6124645"></polygon>
                        <polygon id="Shape" fill="#4F4D52" fill-rule="nonzero" opacity="0.2" points="20.8325186 56.6124645 26.8325186 62.6124645 20.8325186 62.6124645"></polygon>
                        <polygon id="Shape" fill="#EF6F59" fill-rule="nonzero" points="21.8325186 66.6124645 17.8325186 64.6124645 14.8325186 66.6124645 14.8325186 56.6124645 21.8325186 56.6124645"></polygon>
                        <polygon id="Shape" fill="#F7CB64" fill-rule="nonzero" points="46.8325186 55.6124645 0.832518557 55.6124645 0.832518557 0.612464493 46.8325186 0.612464493"></polygon>
                        <path d="M23.8325186,51.6124645 C23.8325186,52.7164645 22.9384486,53.6124645 21.8325186,53.6124645 L0.832518557,53.6124645 L0.832518557,55.6124645 L46.8325186,55.6124645 L46.8325186,3.61246449 L25.8325186,3.61246449 C24.7265885,3.61246449 23.8325186,4.50746449 23.8325186,5.61246449 L23.8325186,51.6124645 Z" id="Fill-361" fill-opacity="0.126868207" fill="#000000"></path>
                    </g>
                    <g id="Group" transform="translate(26.000000, 28.000000)" fill-rule="nonzero">
                        <ellipse id="Shadow" fill="#000000" opacity="0.1" cx="13.2573475" cy="28.3502669" rx="10.6358235" ry="1.85327451"></ellipse>
                        <g id="Cape" transform="translate(19.466877, 2.941698)">
                            <path d="M0.0608235294,7.80568627 C0.0608235294,9.64882353 1.44317647,11.4919608 2.3647451,11.4919608 C3.28631373,11.4919608 4.20788235,11.0311765 5.12945098,10.5703922 C6.05101961,10.1096078 8.35494118,11.4919608 10.1980784,11.0311765 C12.0412157,10.5703922 11.5804314,6.42333333 13.8843529,5.96254902 C16.1882745,5.50176471 17.5706275,7.80568627 19.874549,7.80568627 C22.1784706,7.80568627 25.4039608,5.96254902 26.7863137,3.19784314 C26.7863137,3.19784314 23.5608235,5.96254902 21.7176863,5.50176471 C19.874549,5.04098039 18.0314118,0.433137255 16.1882745,1.35470588 C14.3451373,2.27627451 12.0412157,5.50176471 7.89415686,5.50176471 C5.12945098,5.50176471 2.67208824,4.4267549 0.521607843,2.27627451 C0.214264706,4.73409804 0.0608235294,6.57723529 0.0608235294,7.80568627 Z" id="Path-3" fill="#DF5142"></path>
                            <path d="M17.4531275,6.76523529 L17.4531275,7.02004902 C15.6192059,6.06622549 13.8156961,5.86762745 12.0412157,6.42379412 C9.1004902,7.34536275 8.35494118,8.72771569 5.12945098,8.72771569 C1.90396078,8.72771569 0.521607843,5.9630098 0.0608235294,0.433598039 C2.82552941,4.58065686 4.20788235,4.58065686 5.12945098,4.58065686 C6.05101961,4.58065686 6.97258824,4.58065686 8.35494118,2.50712745 C9.73729412,0.433598039 12.502,1.35516667 13.4235686,2.50712745 C13.9880294,3.21258824 15.3312157,4.63226471 17.4531275,6.76523529 Z" id="Path-2" fill="#C2423D"></path>
                        </g>
                        <g id="Legs" transform="translate(12.285010, 22.644571) rotate(-4.000000) translate(-12.285010, -22.644571) translate(6.064422, 15.963199)" fill="#30404D">
                            <path d="M2.17492232,10.7824395 L2.01963801,8.68494928 C1.8983412,7.04763176 1.95240648,5.40203888 2.18091252,3.77621399 L2.52972624,1.29581203 C2.56159705,0.994432978 2.75530627,0.734430266 3.03496708,0.617661633 C3.31462788,0.500893 3.63571113,0.545950991 3.87243038,0.735183848 C4.10914963,0.924416704 4.22381315,1.22769373 4.17150075,1.52620418 L3.85355957,3.79234144 C3.62948765,5.38651016 3.57311763,6.99977383 3.6853733,8.60569438 L3.88903997,11.5238414 C3.90148114,11.6984787 3.8586282,11.8639003 3.77568702,12.0039787 C3.6312414,12.2601 3.36192409,12.4205332 3.06792232,12.4255963 L1.53673604,12.4523218 C1.08785298,12.4474465 0.724318124,12.0863203 0.716459045,11.6374795 C0.708599966,11.1886388 1.05926941,10.815007 1.50770663,10.7944199 L2.17492232,10.7824395 L2.17492232,10.7824395 Z" id="Combined-Shape" transform="translate(2.450150, 6.502968) rotate(4.000000) translate(-2.450150, -6.502968) "></path>
                            <path d="M9.95219417,11.4634187 L9.79644907,9.36592853 C9.67515226,7.72861101 9.72921755,6.08301813 9.95772358,4.45719324 L10.3065373,1.97679128 C10.341005,1.67756514 10.5349842,1.4205439 10.8132899,1.30534733 C11.0915956,1.19015075 11.4104787,1.23488745 11.6463424,1.42221776 C11.882206,1.60954808 11.9979729,1.91002417 11.9487726,2.20718343 L11.6303706,4.4728599 C11.4062665,6.06718039 11.3498964,7.68060019 11.4621844,9.28667363 L11.6663118,12.2048207 C11.6782922,12.3794579 11.6354393,12.5448795 11.5524981,12.6849579 C11.408018,12.9407616 11.138935,13.1009843 10.8451942,13.1061148 L9.31354711,13.1328403 C8.86466405,13.127965 8.50112919,12.7668387 8.49327011,12.317998 C8.48541103,11.8691573 8.83608047,11.4955255 9.2845177,11.4749383 L9.95219417,11.4634187 L9.95219417,11.4634187 Z" id="Combined-Shape-Copy" transform="translate(10.226536, 7.187561) scale(-1, 1) rotate(-4.000000) translate(-10.226536, -7.187561) "></path>
                        </g>
                        <g id="Arm" transform="translate(21.770806, 10.775243) rotate(8.000000) translate(-21.770806, -10.775243) translate(19.006100, 5.706616)" fill="#30404D">
                            <path d="M0.926176471,8.01902941 L3.02781373,5.60129412 C3.34950211,5.23131504 3.32520218,4.67423915 2.97251961,4.33367647 L0.433598039,1.88230392 C0.104204759,1.56405565 0.0951280779,1.03905215 0.413323529,0.709607843 C0.731264706,0.380147059 0.772735294,0.0198137255 1.10219608,0.337754902 L4.86311765,4.37652941 C5.1674088,4.70318481 5.19381227,5.20096797 4.92578431,5.55798039 L2.77945098,8.41438235 C3.05543135,8.68870989 3.10359393,9.11801619 2.89526104,9.44667738 C2.68692815,9.77533856 2.2781199,9.9149786 1.9122549,9.78245098 L1.24872549,9.541 C0.857947225,9.39854398 0.633113624,8.9886808 0.722970588,8.58256863 C0.718362745,8.3835098 0.784715686,8.18168627 0.925715686,8.01902941 L0.926176471,8.01902941 Z" id="Combined-Shape"></path>
                        </g>
                        <g id="Arm-Copy" transform="translate(3.225490, 10.775288) scale(-1, 1) rotate(4.000000) translate(-3.225490, -10.775288) translate(0.460784, 5.706660)" fill="#30404D">
                            <path d="M0.926176471,8.01902941 L3.02781373,5.60129412 C3.34950211,5.23131504 3.32520218,4.67423915 2.97251961,4.33367647 L0.433598039,1.88230392 C0.104204759,1.56405565 0.0951280779,1.03905215 0.413323529,0.709607843 C0.731264706,0.380147059 0.772735294,0.0198137255 1.10219608,0.337754902 L4.86311765,4.37652941 C5.1674088,4.70318481 5.19381227,5.20096797 4.92578431,5.55798039 L2.77945098,8.41438235 C3.05543135,8.68870989 3.10359393,9.11801619 2.89526104,9.44667738 C2.68692815,9.77533856 2.2781199,9.9149786 1.9122549,9.78245098 L1.24872549,9.541 C0.857947225,9.39854398 0.633113624,8.9886808 0.722970588,8.58256863 C0.718362745,8.3835098 0.784715686,8.18168627 0.925715686,8.01902941 L0.926176471,8.01902941 Z" id="Combined-Shape"></path>
                        </g>
                        <g id="Shield" transform="translate(12.421296, 10.137255) rotate(2.000000) translate(-12.421296, -10.137255) translate(4.127178, 0.460784)">
                            <path d="M8.19643137,0.597637255 C6.60534314,2.39285294 3.80239216,2.98818627 0.607313725,2.98818627 L0.607313725,7.7697451 C0.607313725,12.6992157 2.82691176,15.8717157 8.19643137,18.5276765 C13.565951,15.8717157 15.785549,12.6987549 15.785549,7.7697451 L15.785549,2.98818627 C12.5909314,2.98818627 9.78798039,2.39285294 8.19643137,0.597637255" id="Fill-22" fill="#2D4A5E"></path>
                            <path d="M8.19643137,18.5276765 C13.565951,15.8717157 15.785549,12.6987549 15.785549,7.7697451 L15.785549,2.98818627 C12.5909314,2.98818627 9.78798039,2.39285294 8.19643137,0.597637255 L8.19643137,18.5276765 Z" id="Fill-23" fill="#000000" opacity="0.100000001"></path>
                            <path d="M1.21416667,3.57107843 L1.21416667,7.76421569 C1.21416667,12.395098 3.24207843,15.3367451 8.19643137,17.8563137 C13.1507843,15.3367451 15.1786961,12.395098 15.1786961,7.7637549 L15.1786961,3.57061765 C11.9873039,3.49366667 9.69121569,2.79419608 8.19643137,1.44317647 C6.70164706,2.79419608 4.40601961,3.49366667 1.21416667,3.57061765 L1.21416667,3.57107843 Z M8.19643137,19.1253139 C8.10289216,19.1253139 8.00981373,19.1041176 7.92410784,19.0617255 C2.36981373,16.3131471 0,12.9342157 0,7.7637549 L0,2.98035294 C0,2.6495098 0.271862745,2.3822549 0.607313725,2.3822549 C4.10236275,2.3822549 6.43531373,1.66665686 7.73887255,0.194911765 C7.96972549,-0.0649705882 8.42313725,-0.0649705882 8.6539902,0.194911765 C9.9580098,1.66665686 12.2905,2.3822549 15.7860098,2.3822549 C16.121,2.3822549 16.3928627,2.64997059 16.3928627,2.98035294 L16.3928627,7.7637549 C16.3928627,12.9337549 14.023049,16.3131471 8.46921569,19.0617255 C8.38439289,19.1036321 8.29104142,19.1253139 8.19643137,19.1253139 Z" id="Fill-24" fill="#182A37"></path>
                        </g>
                    </g>
                </g>
                <g id="Azure-Border">
                    <path d="M50,0 C74.5263677,-4.50542066e-15 94.9281966,17.6592499 99.1842495,40.9565123 L94.2027317,73.3905473 C85.8096395,89.2186645 69.1638777,100 50,100 C30.9551233,100 14.3971863,89.3521454 5.95457608,73.6848234 L0.0261464987,48.3675131 C0.887696267,21.508872 22.932015,4.97230817e-15 50,0 Z" id="Combined-Shape" fill="url(#linearGradient-4)" fill-rule="evenodd" opacity="0.400000006" style="mix-blend-mode: overlay;"></path>
                    <g>
                        <use fill="black" fill-opacity="1" filter="url(#filter-6)" xlink:href="#path-5"></use>
                        <rect stroke="#F2F1F0" stroke-width="4" stroke-linejoin="square" x="-1" y="-1" width="102" height="102" rx="51"></rect>
                    </g>
                    <rect stroke="#0078D4" stroke-width="4" x="2" y="2" width="96" height="96" rx="48"></rect>
                </g>
            </g>
        </g>
    </g>
</svg>