<svg width="103" height="102" viewBox="0 0 103 102" fill="none" xmlns="http://www.w3.org/2000/svg">
<path d="M51.7143 97.8099C25.8643 97.8099 4.9043 76.8599 4.9043 50.9999C4.9043 25.1399 25.8643 4.18994 51.7143 4.18994C77.5643 4.18994 98.5243 25.1499 98.5243 50.9999C98.5243 76.8499 77.5643 97.8099 51.7143 97.8099Z" fill="url(#paint0_linear)"/>
<path fill-rule="evenodd" clip-rule="evenodd" d="M97.6145 50.9999C97.6145 76.3499 77.0645 96.8999 51.7145 96.8999C26.3645 96.8999 5.81446 76.3499 5.81446 50.9999C5.81446 25.6499 26.3645 5.09986 51.7145 5.09986C77.0645 5.09986 97.6145 25.6499 97.6145 50.9999ZM51.7145 1.35986C79.1345 1.35986 101.354 23.5799 101.354 50.9999C101.354 78.4199 79.1245 100.64 51.7145 100.64C24.2945 100.64 2.07446 78.4099 2.07446 50.9999C2.07446 23.5799 24.2945 1.35986 51.7145 1.35986Z" fill="#F2F1F0"/>
<path fill-rule="evenodd" clip-rule="evenodd" d="M94.8043 50.9999C94.8043 74.7999 75.5143 94.0899 51.7143 94.0899C27.9143 94.0899 8.62428 74.7999 8.62428 50.9999C8.62428 27.1999 27.9143 7.90992 51.7143 7.90992C75.5143 7.90992 94.8043 27.1999 94.8043 50.9999ZM51.7143 4.16992C77.5743 4.16992 98.5443 25.1399 98.5443 50.9999C98.5443 76.8599 77.5743 97.8299 51.7143 97.8299C25.8543 97.8299 4.88428 76.8599 4.88428 50.9999C4.88428 25.1399 25.8443 4.16992 51.7143 4.16992Z" fill="url(#paint1_linear)"/>
<g opacity="0.15">
<path opacity="0.15" d="M30.3445 63.4099C30.3445 66.2599 32.6645 68.5799 35.5145 68.5799C38.3645 68.5799 40.6845 66.2599 40.6845 63.4099C40.6845 62.1799 40.2345 61.0899 39.5345 60.1799L48.8145 42.5399C47.6645 42.1099 46.6945 41.4799 45.8145 40.6299C44.1245 39.0099 43.0545 36.7199 43.0545 34.1899C43.0545 29.2799 47.0545 25.2599 51.9845 25.2599C56.9145 25.2599 60.9145 29.2599 60.9145 34.1899C60.9145 34.9399 60.7945 35.6799 60.6045 36.3799L63.9745 37.7199C64.2945 36.5799 64.5645 35.4299 64.5645 34.1899C64.5645 27.2599 58.9145 21.6099 51.9845 21.6099C45.0545 21.6099 39.4045 27.2599 39.4045 34.1899C39.4045 38.0699 41.2245 41.4999 43.9645 43.8299L36.3445 58.3499C36.0645 58.2999 35.7945 58.2699 35.4845 58.2699C32.6745 58.2699 30.3445 60.5599 30.3445 63.4099Z" fill="#1F1D20"/>
<path opacity="0.15" d="M68.0646 68.5896C70.9146 68.5896 73.2346 66.2696 73.2346 63.4196C73.2346 60.5696 70.9146 58.2496 68.0646 58.2496C65.8746 58.2496 63.9846 59.6396 63.2446 61.5796H44.2346C44.3546 62.1696 44.4346 62.7696 44.4346 63.3996C44.4346 64.0296 44.3546 64.6296 44.2346 65.2196C43.3846 69.2796 39.8046 72.3296 35.4846 72.3296C30.5746 72.3296 26.5546 68.3296 26.5546 63.3996C26.5546 59.5996 28.9746 56.3296 32.3546 55.0496L31.2946 51.6196C26.4346 53.3396 22.9246 57.9596 22.9246 63.3996C22.9246 70.3296 28.5746 75.9796 35.5046 75.9796C41.8046 75.9796 47.0046 71.2796 47.9146 65.2196H63.2546C63.9846 67.1996 65.8546 68.5896 68.0646 68.5896Z" fill="#1F1D20"/>
<path opacity="0.15" d="M68.0745 50.8298C66.8545 50.8298 65.7345 51.0598 64.6245 51.3798C64.5945 51.3798 64.5945 51.3798 64.5745 51.3798V51.4098V51.3798L56.1045 37.3098C56.7645 36.4498 57.1845 35.3698 57.1845 34.1798C57.1845 31.3298 54.8645 29.0098 52.0145 29.0098C49.1645 29.0098 46.8445 31.3298 46.8445 34.1798C46.8445 37.0298 49.1645 39.3498 52.0145 39.3498C52.3345 39.3498 52.6745 39.3198 53.0045 39.2398L63.0545 56.0798C64.0845 55.3998 65.3745 54.8198 66.6445 54.5898C67.1245 54.5098 67.5945 54.4698 68.0745 54.4698C72.9845 54.4698 77.0045 58.4698 77.0045 63.3998C77.0045 68.3098 73.0045 72.3298 68.0745 72.3298C65.8245 72.3298 63.7945 71.4998 62.2245 70.1098L59.6545 72.6798C61.8745 74.7298 64.8245 75.9898 68.0745 75.9898C75.0045 75.9898 80.6545 70.3398 80.6545 63.4098C80.6445 56.4798 74.9945 50.8298 68.0745 50.8298Z" fill="#1F1D20"/>
</g>
<path d="M30.3445 61.5896C30.3445 64.4395 32.6645 66.7596 35.5145 66.7596C38.3645 66.7596 40.6845 64.4395 40.6845 61.5896C40.6845 60.3595 40.2345 59.2696 39.5345 58.3596L48.8145 40.7196C47.6645 40.2896 46.6945 39.6596 45.8145 38.8096C44.1245 37.1896 43.0545 34.8995 43.0545 32.3695C43.0545 27.4595 47.0545 23.4396 51.9845 23.4396C56.9145 23.4396 60.9145 27.4395 60.9145 32.3695C60.9145 33.1195 60.7945 33.8596 60.6045 34.5596L63.9745 35.8996C64.2945 34.7596 64.5645 33.6095 64.5645 32.3695C64.5645 25.4395 58.9145 19.7896 51.9845 19.7896C45.0545 19.7896 39.4145 25.4396 39.4145 32.3596C39.4145 36.2396 41.2345 39.6695 43.9745 41.9995L36.3545 56.5196C36.0745 56.4696 35.8045 56.4395 35.4945 56.4395C32.6745 56.4395 30.3445 58.7396 30.3445 61.5896Z" fill="white"/>
<path d="M68.0645 66.7596C70.9145 66.7596 73.2345 64.4395 73.2345 61.5896C73.2345 58.7396 70.9145 56.4195 68.0645 56.4195C65.8745 56.4195 63.9845 57.8095 63.2445 59.7495H44.2346C44.3546 60.3395 44.4346 60.9395 44.4346 61.5695C44.4346 62.1995 44.3546 62.7995 44.2346 63.3895C43.3846 67.4495 39.8046 70.4995 35.4846 70.4995C30.5746 70.4995 26.5546 66.4995 26.5546 61.5695C26.5546 57.7695 28.9745 54.4996 32.3545 53.2196L31.2945 49.7896C26.4246 51.5296 22.9146 56.1496 22.9146 61.5796C22.9146 68.5096 28.5645 74.1596 35.4945 74.1596C41.7945 74.1596 46.9945 69.4596 47.9045 63.3996H63.2445C63.9845 65.3696 65.8545 66.7596 68.0645 66.7596Z" fill="white"/>
<path d="M68.0745 49.0099C66.8545 49.0099 65.7345 49.2399 64.6245 49.5599C64.5945 49.5599 64.5945 49.5599 64.5745 49.5599V49.5899V49.5599L56.1045 35.4899C56.7645 34.6299 57.1845 33.5499 57.1845 32.3599C57.1845 29.5099 54.8645 27.1899 52.0145 27.1899C49.1645 27.1899 46.8445 29.5099 46.8445 32.3599C46.8445 35.2099 49.1645 37.5299 52.0145 37.5299C52.3345 37.5299 52.6745 37.4999 53.0045 37.4199L63.0545 54.2599C64.0845 53.5799 65.3745 52.9999 66.6445 52.7699C67.1245 52.6899 67.5945 52.6499 68.0745 52.6499C72.9845 52.6499 77.0045 56.6499 77.0045 61.5799C77.0045 66.4899 73.0045 70.5099 68.0745 70.5099C65.8245 70.5099 63.7945 69.6799 62.2245 68.2899L59.6545 70.8599C61.8745 72.9099 64.8245 74.1699 68.0745 74.1699C75.0045 74.1699 80.6545 68.5199 80.6545 61.5899C80.6445 54.6599 74.9945 49.0099 68.0745 49.0099Z" fill="white"/>
<path opacity="0.15" d="M51.7844 45.7998C60.7544 45.7998 68.0244 38.5298 68.0244 29.5598C68.0244 20.5898 60.7544 13.3198 51.7844 13.3198C42.8144 13.3198 35.5444 20.5898 35.5444 29.5598C35.5444 38.5298 42.8144 45.7998 51.7844 45.7998Z" fill="#1F1D20"/>
<path d="M51.7844 44.4898C60.7544 44.4898 68.0244 37.2198 68.0244 28.2498C68.0244 19.2798 60.7544 12.0098 51.7844 12.0098C42.8144 12.0098 35.5444 19.2798 35.5444 28.2498C35.5444 37.2198 42.8144 44.4898 51.7844 44.4898Z" fill="white"/>
<path opacity="0.15" d="M31.8045 80.3697C40.7745 80.3697 48.0445 73.0996 48.0445 64.1296C48.0445 55.1596 40.7745 47.8896 31.8045 47.8896C22.8345 47.8896 15.5645 55.1596 15.5645 64.1296C15.5645 73.0996 22.8345 80.3697 31.8045 80.3697Z" fill="#1F1D20"/>
<path d="M31.8045 78.3697C40.7745 78.3697 48.0445 71.0997 48.0445 62.1297C48.0445 53.1596 40.7745 45.8896 31.8045 45.8896C22.8345 45.8896 15.5645 53.1596 15.5645 62.1297C15.5645 71.0997 22.8345 78.3697 31.8045 78.3697Z" fill="white"/>
<path opacity="0.15" d="M71.7744 80.0298C80.7444 80.0298 88.0144 72.7598 88.0144 63.7898C88.0144 54.8198 80.7444 47.5498 71.7744 47.5498C62.8044 47.5498 55.5344 54.8198 55.5344 63.7898C55.5344 72.7598 62.8044 80.0298 71.7744 80.0298Z" fill="#1F1D20"/>
<path d="M71.7744 78.3697C80.7444 78.3697 88.0144 71.0997 88.0144 62.1297C88.0144 53.1596 80.7444 45.8896 71.7744 45.8896C62.8044 45.8896 55.5344 53.1596 55.5344 62.1297C55.5344 71.0997 62.8044 78.3697 71.7744 78.3697Z" fill="white"/>
<path d="M59.8942 35.2997C59.4542 31.3097 56.0342 28.1797 51.9042 28.1797C47.7842 28.1797 44.4142 31.2497 43.9142 35.1897C43.8442 35.4697 43.8442 35.7797 43.8442 36.0397C43.9542 37.1697 44.7142 38.2597 46.1942 39.1097C49.3342 40.9197 54.4742 40.9197 57.5842 39.1097C59.0642 38.2597 59.8042 37.1697 59.9142 36.0397C59.9642 35.7997 59.9142 35.5397 59.8942 35.2997Z" fill="url(#paint2_radial)"/>
<path d="M51.9042 27.0199C54.5842 27.0199 56.7642 24.8599 56.7642 22.2099C56.7642 19.5499 54.6042 17.3999 51.9042 17.3999C49.2042 17.3999 47.0442 19.5299 47.0442 22.2099C47.0442 24.8899 49.2242 27.0199 51.9042 27.0199Z" fill="url(#paint3_radial)"/>
<path d="M39.2944 69.4999C38.8544 65.5099 35.4344 62.3799 31.3044 62.3799C27.1844 62.3799 23.8144 65.4499 23.3144 69.3899C23.2444 69.6699 23.2444 69.9799 23.2444 70.2399C23.3544 71.3699 24.1144 72.4599 25.5944 73.3099C28.7344 75.1199 33.8744 75.1199 36.9844 73.3099C38.4644 72.4599 39.2044 71.3699 39.3144 70.2399C39.3644 69.9999 39.3244 69.7399 39.2944 69.4999Z" fill="url(#paint4_radial)"/>
<path d="M31.3043 61.2201C33.9843 61.2201 36.1643 59.0601 36.1643 56.4101C36.1643 53.7501 34.0043 51.6001 31.3043 51.6001C28.6043 51.6001 26.4443 53.7301 26.4443 56.4101C26.4443 59.0901 28.6243 61.2201 31.3043 61.2201Z" fill="url(#paint5_radial)"/>
<path d="M80.1145 69.4999C79.6745 65.5099 76.2545 62.3799 72.1245 62.3799C68.0045 62.3799 64.6345 65.4499 64.1345 69.3899C64.0645 69.6699 64.0645 69.9799 64.0645 70.2399C64.1745 71.3699 64.9345 72.4599 66.4145 73.3099C69.5545 75.1199 74.6945 75.1199 77.8045 73.3099C79.2845 72.4599 80.0245 71.3699 80.1345 70.2399C80.1845 69.9999 80.1345 69.7399 80.1145 69.4999Z" fill="url(#paint6_radial)"/>
<path d="M72.1244 61.2201C74.8044 61.2201 76.9844 59.0601 76.9844 56.4101C76.9844 53.7501 74.8244 51.6001 72.1244 51.6001C69.4244 51.6001 67.2644 53.7301 67.2644 56.4101C67.2644 59.0901 69.4444 61.2201 72.1244 61.2201Z" fill="url(#paint7_radial)"/>
<defs>
<linearGradient id="paint0_linear" x1="49.9444" y1="-13.7897" x2="53.9264" y2="131.98" gradientUnits="userSpaceOnUse">
<stop stop-color="#00ABDE"/>
<stop offset="1" stop-color="#007ED8"/>
</linearGradient>
<linearGradient id="paint1_linear" x1="3.14698" y1="-20.6246" x2="98.674" y2="120.257" gradientUnits="userSpaceOnUse">
<stop stop-color="#007ED8"/>
<stop offset="0.7065" stop-color="#002D4C"/>
</linearGradient>
<radialGradient id="paint2_radial" cx="0" cy="0" r="1" gradientUnits="userSpaceOnUse" gradientTransform="translate(47.2386 20.9279) scale(33.8313)">
<stop stop-color="#4FC2EB"/>
<stop offset="0.585" stop-color="#2E76BC"/>
</radialGradient>
<radialGradient id="paint3_radial" cx="0" cy="0" r="1" gradientUnits="userSpaceOnUse" gradientTransform="translate(47.2366 20.9278) scale(33.8313)">
<stop stop-color="#4FC2EB"/>
<stop offset="0.585" stop-color="#2E76BC"/>
</radialGradient>
<radialGradient id="paint4_radial" cx="0" cy="0" r="1" gradientUnits="userSpaceOnUse" gradientTransform="translate(26.6413 55.134) scale(33.8313)">
<stop stop-color="#4FC2EB"/>
<stop offset="0.585" stop-color="#2E76BC"/>
</radialGradient>
<radialGradient id="paint5_radial" cx="0" cy="0" r="1" gradientUnits="userSpaceOnUse" gradientTransform="translate(26.6393 55.1339) scale(33.8313)">
<stop stop-color="#4FC2EB"/>
<stop offset="0.585" stop-color="#2E76BC"/>
</radialGradient>
<radialGradient id="paint6_radial" cx="0" cy="0" r="1" gradientUnits="userSpaceOnUse" gradientTransform="translate(67.4591 55.134) scale(33.8313)">
<stop stop-color="#4FC2EB"/>
<stop offset="0.585" stop-color="#2E76BC"/>
</radialGradient>
<radialGradient id="paint7_radial" cx="0" cy="0" r="1" gradientUnits="userSpaceOnUse" gradientTransform="translate(67.4571 55.1339) scale(33.8313)">
<stop stop-color="#4FC2EB"/>
<stop offset="0.585" stop-color="#2E76BC"/>
</radialGradient>
</defs>
</svg>
