<svg width="102" height="102" viewBox="0 0 102 102" fill="none" xmlns="http://www.w3.org/2000/svg">
<path d="M50.9995 97.8202C44.8523 97.8202 38.7652 96.6094 33.0859 94.257C27.4067 91.9045 22.2461 88.4566 17.8994 84.1099C13.5527 79.7632 10.1049 74.6028 7.75244 68.9236C5.40002 63.2443 4.18945 57.1573 4.18945 51.0101C4.18945 44.863 5.40002 38.7761 7.75244 33.0968C10.1049 27.4176 13.5527 22.2572 17.8994 17.9105C22.2461 13.5638 27.4067 10.1159 33.0859 7.76343C38.7652 5.41101 44.8523 4.2002 50.9995 4.2002C63.4143 4.2002 75.3205 9.13194 84.0991 17.9105C92.8777 26.6891 97.8091 38.5953 97.8091 51.0101C97.8091 63.4249 92.8777 75.3313 84.0991 84.1099C75.3205 92.8884 63.4143 97.8202 50.9995 97.8202V97.8202Z" fill="url(#paint0_linear)"/>
<path fill-rule="evenodd" clip-rule="evenodd" d="M96.8994 50.9999C96.8994 63.1733 92.0635 74.8481 83.4556 83.4561C74.8476 92.064 63.1729 96.8998 50.9995 96.8998C38.8261 96.8998 27.1509 92.064 18.543 83.4561C9.93505 74.8481 5.09912 63.1733 5.09912 50.9999C5.09912 38.8264 9.93505 27.1515 18.543 18.5436C27.1509 9.93566 38.8261 5.09985 50.9995 5.09985C63.1729 5.09985 74.8476 9.93566 83.4556 18.5436C92.0635 27.1515 96.8994 38.8264 96.8994 50.9999V50.9999ZM50.9995 1.35986C57.5187 1.35855 63.9739 2.64156 69.9971 5.13574C76.0203 7.62992 81.4933 11.2864 86.103 15.8961C90.7128 20.5059 94.3691 25.9786 96.8633 32.0018C99.3575 38.025 100.64 44.4807 100.639 50.9999C100.639 64.1652 95.4094 76.7913 86.1001 86.1006C76.7908 95.4099 64.1649 100.64 50.9995 100.64C37.8342 100.64 25.2077 95.4099 15.8984 86.1006C6.58913 76.7913 1.35938 64.1652 1.35938 50.9999C1.35806 44.4807 2.64108 38.025 5.13525 32.0018C7.62943 25.9786 11.2857 20.5059 15.8955 15.8961C20.5053 11.2864 25.9783 7.62992 32.0015 5.13574C38.0247 2.64156 44.4803 1.35855 50.9995 1.35986V1.35986Z" fill="#F2F1F0"/>
<path fill-rule="evenodd" clip-rule="evenodd" d="M94.0898 51C94.0898 56.6587 92.975 62.2618 90.8096 67.4897C88.6441 72.7177 85.4705 77.468 81.4692 81.4692C77.468 85.4705 72.7177 88.6445 67.4897 90.8099C62.2618 92.9754 56.6587 94.09 51 94.09C39.5718 94.09 28.6117 89.5502 20.5308 81.4692C12.4498 73.3883 7.90967 62.4282 7.90967 51C7.90967 39.5718 12.4498 28.6117 20.5308 20.5308C28.6117 12.4498 39.5718 7.90991 51 7.90991C56.6587 7.90991 62.2618 9.02447 67.4897 11.1899C72.7177 13.3554 77.468 16.5295 81.4692 20.5308C85.4705 24.532 88.6441 29.2822 90.8096 34.5101C92.975 39.7381 94.0898 45.3413 94.0898 51V51ZM51 4.16992C63.4201 4.16992 75.3314 9.10378 84.1138 17.8861C92.8961 26.6684 97.8296 38.5799 97.8296 51C97.8269 63.4184 92.8919 75.3271 84.1099 84.1073C75.3278 92.8875 63.4184 97.8199 51 97.8199C38.5799 97.8199 26.6686 92.8861 17.8862 84.1038C9.1039 75.3214 4.16992 63.4101 4.16992 50.99C4.17257 38.5716 9.10761 26.6627 17.8896 17.8826C26.6717 9.1024 38.5816 4.16992 51 4.16992V4.16992Z" fill="url(#paint1_linear)"/>
<path d="M51.6094 30.6698C50.277 30.6566 49.0039 30.1173 48.0674 29.1696C47.1308 28.2218 46.6067 26.9423 46.6094 25.6099C46.6067 24.2774 47.1308 22.9978 48.0674 22.05C49.0039 21.1023 50.277 20.563 51.6094 20.5498C52.9418 20.563 54.2148 21.1023 55.1514 22.05C56.0879 22.9978 56.6121 24.2774 56.6094 25.6099C56.6121 26.9423 56.0879 28.2218 55.1514 29.1696C54.2148 30.1173 52.9418 30.6566 51.6094 30.6698V30.6698ZM51.6094 22.5498C51.2103 22.5497 50.8152 22.6293 50.4473 22.7838C50.0793 22.9383 49.7457 23.1646 49.4663 23.4496C49.1869 23.7345 48.9675 24.0724 48.8203 24.4434C48.6731 24.8143 48.6014 25.2109 48.6094 25.6099C48.6014 26.0088 48.6731 26.4054 48.8203 26.7764C48.9675 27.1473 49.1869 27.4851 49.4663 27.77C49.7457 28.055 50.0793 28.2814 50.4473 28.4359C50.8152 28.5904 51.2103 28.6699 51.6094 28.6698C52.0085 28.6699 52.4036 28.5904 52.7715 28.4359C53.1394 28.2814 53.4726 28.055 53.752 27.77C54.0313 27.4851 54.2513 27.1473 54.3984 26.7764C54.5456 26.4054 54.6174 26.0088 54.6094 25.6099C54.6174 25.2109 54.5456 24.8143 54.3984 24.4434C54.2513 24.0724 54.0313 23.7345 53.752 23.4496C53.4726 23.1646 53.1394 22.9383 52.7715 22.7838C52.4036 22.6293 52.0085 22.5497 51.6094 22.5498V22.5498Z" fill="url(#paint2_linear)"/>
<path d="M64.5 78.6399H39.3999L36.7598 83.5599L35 82.61L42.3101 69L44.0601 70L40.4697 76.6799H63.4697L59.8799 70L61.6396 69L68.9497 82.61L67.1899 83.5599L64.5 78.6399Z" fill="url(#paint3_linear)"/>
<path d="M79.1396 31.0195H24.75V67.5796H79.1396V31.0195Z" fill="url(#paint4_linear)"/>
<path d="M24.04 25.5996H79.8296C80.36 25.5996 80.8691 25.8104 81.2441 26.1854C81.6192 26.5605 81.8296 27.0692 81.8296 27.5996V29.6896C81.8296 30.22 81.6192 30.7287 81.2441 31.1038C80.8691 31.4788 80.36 31.6896 79.8296 31.6896H24.04C23.5096 31.6896 23.0006 31.4788 22.6255 31.1038C22.2504 30.7287 22.04 30.22 22.04 29.6896V27.5996C22.04 27.0692 22.2504 26.5605 22.6255 26.1854C23.0006 25.8104 23.5096 25.5996 24.04 25.5996Z" fill="url(#paint5_linear)"/>
<path d="M23.73 66.8198H80.1299C80.5781 66.8198 81.0078 66.9979 81.3247 67.3148C81.6416 67.6318 81.8198 68.0615 81.8198 68.5098C81.8198 68.958 81.6416 69.3879 81.3247 69.7048C81.0078 70.0218 80.5781 70.1998 80.1299 70.1998H23.73C23.5085 70.2011 23.289 70.1587 23.084 70.0748C22.879 69.991 22.6922 69.8674 22.5352 69.7113C22.3781 69.5552 22.2535 69.3695 22.1685 69.165C22.0834 68.9606 22.04 68.7412 22.04 68.5198C22.04 68.0706 22.2175 67.6398 22.5342 67.3213C22.8508 67.0028 23.2808 66.8225 23.73 66.8198Z" fill="url(#paint6_linear)"/>
<path d="M79.1396 31.0195H24.75V67.5796H79.1396V31.0195Z" fill="white"/>
<path d="M24.04 25.5996H79.8296C80.36 25.5996 80.8691 25.8104 81.2441 26.1854C81.6192 26.5605 81.8296 27.0692 81.8296 27.5996V29.6896C81.8296 30.22 81.6192 30.7287 81.2441 31.1038C80.8691 31.4788 80.36 31.6896 79.8296 31.6896H24.04C23.5096 31.6896 23.0006 31.4788 22.6255 31.1038C22.2504 30.7287 22.04 30.22 22.04 29.6896V27.5996C22.04 27.0692 22.2504 26.5605 22.6255 26.1854C23.0006 25.8104 23.5096 25.5996 24.04 25.5996Z" fill="url(#paint7_linear)"/>
<path d="M23.73 66.8198H80.1299C80.5781 66.8198 81.0078 66.9979 81.3247 67.3148C81.6416 67.6318 81.8198 68.0615 81.8198 68.5098C81.8198 68.958 81.6416 69.3879 81.3247 69.7048C81.0078 70.0218 80.5781 70.1998 80.1299 70.1998H23.73C23.5085 70.2011 23.289 70.1587 23.084 70.0748C22.879 69.991 22.6922 69.8674 22.5352 69.7113C22.3781 69.5552 22.2535 69.3695 22.1685 69.165C22.0834 68.9606 22.04 68.7412 22.04 68.5198C22.04 68.0706 22.2175 67.6398 22.5342 67.3213C22.8508 67.0028 23.2808 66.8225 23.73 66.8198Z" fill="url(#paint8_linear)"/>
<path d="M40.2998 50.8196C41.1705 50.8196 42.0325 50.6481 42.8369 50.3149C43.6413 49.9818 44.3721 49.4933 44.9878 48.8777C45.6034 48.262 46.0921 47.5312 46.4253 46.7268C46.7585 45.9224 46.9297 45.0602 46.9297 44.1896C46.9297 42.4312 46.2312 40.7448 44.9878 39.5015C43.7444 38.2581 42.0582 37.5596 40.2998 37.5596C38.5414 37.5596 36.8552 38.2581 35.6118 39.5015C34.3685 40.7448 33.6699 42.4312 33.6699 44.1896C33.6699 45.0602 33.8411 45.9224 34.1743 46.7268C34.5075 47.5312 34.9962 48.262 35.6118 48.8777C36.2275 49.4933 36.9583 49.9818 37.7627 50.3149C38.5671 50.6481 39.4291 50.8196 40.2998 50.8196V50.8196Z" fill="#036C70"/>
<path d="M45.7695 56.3199C47.382 56.3199 48.9281 55.6794 50.0684 54.5392C51.2086 53.399 51.8491 51.8525 51.8491 50.24C51.8465 48.6292 51.2049 47.0852 50.0649 45.9471C48.925 44.8091 47.3803 44.1699 45.7695 44.1699C44.1597 44.1699 42.6154 44.8094 41.4771 45.9478C40.3387 47.0861 39.6992 48.6301 39.6992 50.24C39.6992 51.8508 40.3385 53.3957 41.4766 54.5356C42.6146 55.6756 44.1587 56.3173 45.7695 56.3199V56.3199Z" fill="#179BA1"/>
<path d="M41.0796 60.7396C42.3235 60.7396 43.5165 60.2455 44.396 59.366C45.2756 58.4864 45.77 57.2934 45.77 56.0496C45.7713 55.4328 45.6506 54.8219 45.4155 54.2517C45.1804 53.6815 44.8356 53.1634 44.3999 52.7268C43.9643 52.2903 43.4466 51.9438 42.877 51.7075C42.3073 51.4712 41.6963 51.3496 41.0796 51.3496C40.462 51.3483 39.8506 51.469 39.2798 51.7047C38.709 51.9405 38.1901 52.2866 37.7534 52.7233C37.3167 53.16 36.9706 53.6786 36.7349 54.2494C36.4991 54.8202 36.3786 55.432 36.3799 56.0496C36.3799 56.6663 36.5015 57.277 36.7378 57.8467C36.9741 58.4164 37.3203 58.9339 37.7568 59.3695C38.1934 59.8052 38.7116 60.1504 39.2817 60.3855C39.8519 60.6206 40.4629 60.7409 41.0796 60.7396V60.7396Z" fill="#41C2CD"/>
<path opacity="0.1" d="M41.35 43.5196V55.3097C41.3502 55.5099 41.2904 55.7056 41.1781 55.8714C41.0658 56.0372 40.9062 56.1656 40.7201 56.2397C40.5999 56.291 40.4709 56.3181 40.3402 56.3197H36.39C36.3849 56.2264 36.3849 56.1329 36.39 56.0396C36.385 55.9497 36.385 55.8596 36.39 55.7696C36.4443 54.9087 36.7355 54.0795 37.2313 53.3736C37.7272 52.6677 38.4086 52.1126 39.2001 51.7696V50.7696C37.4673 50.4942 35.915 49.5423 34.8837 48.1229C33.8524 46.7035 33.4266 44.9327 33.7001 43.1997V43.1197C33.7295 42.9342 33.7697 42.7505 33.8202 42.5697H40.3002C40.4315 42.5629 40.563 42.5822 40.6869 42.6263C40.8108 42.6704 40.9248 42.7386 41.0224 42.8269C41.1199 42.9151 41.199 43.0217 41.2553 43.1406C41.3115 43.2595 41.3436 43.3882 41.35 43.5196Z" fill="black"/>
<path opacity="0.2" d="M39.7895 43.0596H33.7094C33.5632 43.9172 33.5874 44.7953 33.7807 45.6435C33.974 46.4917 34.3325 47.2934 34.8359 48.003C35.3393 48.7125 35.9776 49.3159 36.7143 49.7786C37.451 50.2413 38.2716 50.5543 39.1294 50.6997H39.4594C38.5822 51.2234 37.8446 51.9518 37.31 52.8225C36.7754 53.6932 36.4593 54.6803 36.3891 55.6997C36.384 55.7929 36.384 55.8864 36.3891 55.9797C36.3841 56.0696 36.3841 56.1598 36.3891 56.2497C36.397 56.4347 36.4208 56.6186 36.4594 56.7996H39.7895C39.9898 56.7998 40.1852 56.7398 40.351 56.6275C40.5169 56.5152 40.6451 56.3557 40.7192 56.1696C40.7704 56.0494 40.7977 55.9203 40.7993 55.7896V43.9997C40.7839 43.7433 40.6704 43.5026 40.4824 43.3276C40.2944 43.1526 40.0464 43.0566 39.7895 43.0596Z" fill="black"/>
<path opacity="0.2" d="M39.7895 43.0596H33.7094C33.5632 43.9172 33.5874 44.7952 33.7807 45.6434C33.974 46.4917 34.3325 47.2934 34.8359 48.0029C35.3393 48.7125 35.9776 49.3159 36.7143 49.7786C37.451 50.2413 38.2716 50.5543 39.1294 50.6996H39.3491C38.4953 51.243 37.7799 51.9777 37.2592 52.8456C36.7385 53.7134 36.4268 54.6905 36.3491 55.6996H39.7495C40.0147 55.6996 40.269 55.5943 40.4565 55.4067C40.644 55.2192 40.7495 54.9648 40.7495 54.6996V44.0095C40.7372 43.7598 40.6318 43.5239 40.4541 43.348C40.2764 43.1722 40.0393 43.0693 39.7895 43.0596V43.0596Z" fill="black"/>
<path opacity="0.2" d="M39.2392 43.0596H33.7095C33.4296 44.7009 33.7784 46.3874 34.6865 47.783C35.5946 49.1785 36.9953 50.1807 38.6094 50.5896C37.3463 52.0419 36.5697 53.8533 36.3891 55.7695H39.2392C39.5045 55.7695 39.7587 55.6642 39.9463 55.4767C40.1338 55.2891 40.2392 55.0347 40.2392 54.7695V44.0796C40.2419 43.9466 40.218 43.8144 40.1689 43.6908C40.1199 43.5672 40.0467 43.4545 39.9536 43.3595C39.8605 43.2645 39.7491 43.1891 39.6265 43.1376C39.5038 43.0861 39.3723 43.0595 39.2392 43.0596Z" fill="black"/>
<path d="M29.1094 43.0596H39.2393C39.5045 43.0596 39.7588 43.1649 39.9463 43.3524C40.1338 43.54 40.2393 43.7944 40.2393 44.0596V54.1896C40.2393 54.4548 40.1338 54.7092 39.9463 54.8967C39.7588 55.0843 39.5045 55.1896 39.2393 55.1896H29.1094C28.8442 55.1896 28.5899 55.0843 28.4023 54.8967C28.2148 54.7092 28.1094 54.4548 28.1094 54.1896V44.0596C28.1094 43.7944 28.2148 43.54 28.4023 43.3524C28.5899 43.1649 28.8442 43.0596 29.1094 43.0596Z" fill="url(#paint9_linear)"/>
<path d="M32.6191 49.0197C32.3794 48.8619 32.181 48.6494 32.0396 48.3997C31.8976 48.1431 31.8283 47.8527 31.8394 47.5597C31.8238 47.1662 31.9558 46.781 32.2095 46.4797C32.4748 46.1731 32.8215 45.9477 33.2095 45.8297C33.6473 45.6817 34.1073 45.6107 34.5693 45.6197C35.1796 45.5924 35.7894 45.6772 36.3691 45.8697V47.1396C36.1188 46.9865 35.8452 46.8751 35.5591 46.8097C35.2486 46.7305 34.9298 46.6902 34.6094 46.6897C34.2637 46.6746 33.9198 46.7468 33.6094 46.8997C33.4928 46.9477 33.3933 47.0296 33.3237 47.1348C33.2542 47.2399 33.2177 47.3637 33.2192 47.4897C33.2193 47.6435 33.2804 47.7909 33.3892 47.8997C33.514 48.0335 33.6633 48.1422 33.8291 48.2197C34.0091 48.3097 34.2892 48.4297 34.6592 48.5797H34.7793C35.1266 48.7248 35.4611 48.8987 35.7793 49.0997C36.0329 49.2534 36.2457 49.4661 36.3994 49.7197C36.5565 50.0074 36.6323 50.3322 36.6191 50.6597C36.6347 51.0652 36.5116 51.4639 36.2695 51.7897C36.0275 52.0903 35.6991 52.31 35.3291 52.4197C34.8958 52.5566 34.4437 52.6241 33.9893 52.6197C33.584 52.6167 33.1796 52.5831 32.7793 52.5197C32.4366 52.4588 32.1014 52.3617 31.7793 52.2297V50.8896C32.0837 51.1017 32.4218 51.2607 32.7793 51.3597C33.1326 51.4699 33.4992 51.5304 33.8691 51.5397C34.2153 51.5613 34.5609 51.4888 34.8691 51.3297C34.9735 51.2683 35.06 51.1805 35.1196 51.0752C35.1793 50.9699 35.2104 50.8508 35.2095 50.7297C35.2086 50.5575 35.1405 50.3923 35.0195 50.2697C34.8654 50.1241 34.69 50.0027 34.4995 49.9097C34.2795 49.7997 33.9495 49.6597 33.4995 49.4797C33.194 49.351 32.8993 49.197 32.6191 49.0197Z" fill="white"/>
<path opacity="0.15" d="M74.6499 48.9498V46.3699C74.6513 46.0255 74.5797 45.6847 74.4399 45.3699C74.3149 45.0617 74.1274 44.7825 73.8896 44.5498C73.6563 44.313 73.3775 44.1259 73.0698 43.9999C72.753 43.8676 72.4131 43.7996 72.0698 43.7998H66.0698V40.9899C66.3312 40.8385 66.5483 40.6213 66.6997 40.3599C66.8501 40.0982 66.9294 39.8017 66.9297 39.4999C66.9329 39.27 66.8888 39.0419 66.7998 38.8298C66.712 38.6279 66.5863 38.4446 66.4297 38.2898C66.2721 38.132 66.0855 38.0063 65.8799 37.9198C65.6689 37.8265 65.4407 37.7788 65.21 37.7798C64.9794 37.7797 64.7513 37.8274 64.54 37.9198C64.3362 38.0041 64.1522 38.1301 64 38.2898C63.8403 38.442 63.7142 38.626 63.6299 38.8298C63.5375 39.0411 63.4897 39.2693 63.4897 39.4999C63.4887 39.8032 63.572 40.1009 63.73 40.3599C63.8747 40.623 64.0889 40.841 64.3496 40.9899V43.7998H58.3496C58.0063 43.7998 57.6665 43.8679 57.3496 43.9999C57.0433 44.1285 56.765 44.3152 56.5298 44.5498C56.2952 44.785 56.1086 45.0636 55.98 45.3699C55.8433 45.6853 55.775 46.0262 55.7798 46.3699V48.9498H54.0596V52.3799H55.7798V56.6798C55.7759 57.0235 55.8442 57.3641 55.98 57.6798C56.1112 57.9848 56.2974 58.2628 56.5298 58.4999C56.7677 58.7312 57.0453 58.9175 57.3496 59.0498C57.6665 59.1818 58.0063 59.2499 58.3496 59.2499H72.0996C72.4429 59.2502 72.7828 59.1821 73.0996 59.0498C73.4053 58.9201 73.6839 58.7335 73.9199 58.4999C74.1555 58.2655 74.3423 57.9868 74.4697 57.6798C74.6087 57.3648 74.6802 57.0242 74.6797 56.6798V52.3799H76.3896V48.9498H74.6499Z" fill="#1F1D20"/>
<path d="M76.3599 51.2498V47.8198H74.6499V45.2398C74.6519 44.8953 74.5803 44.5544 74.4399 44.2398C74.3176 43.9302 74.1297 43.6504 73.8896 43.4197C73.6589 43.1797 73.3795 42.9922 73.0698 42.8698C72.7552 42.7294 72.4143 42.6578 72.0698 42.6597H66.0698V39.8598C66.3312 39.7084 66.5483 39.4912 66.6997 39.2298C66.8488 38.9676 66.928 38.6714 66.9297 38.3698C66.9341 38.1398 66.8899 37.9114 66.7998 37.6998C66.7097 37.4962 66.5843 37.31 66.4297 37.1497C66.2695 36.9951 66.0835 36.8699 65.8799 36.7797C65.6682 36.6896 65.44 36.6453 65.21 36.6497C64.9801 36.6465 64.752 36.6907 64.54 36.7797C64.3381 36.8676 64.1548 36.9931 64 37.1497C63.8422 37.3073 63.7164 37.4942 63.6299 37.6998C63.5366 37.9108 63.4888 38.1391 63.4897 38.3698C63.4902 38.6729 63.5734 38.9702 63.73 39.2298C63.8747 39.4929 64.0889 39.7109 64.3496 39.8598V42.6597H58.3496C58.0052 42.6584 57.6644 42.73 57.3496 42.8698C57.0414 42.9948 56.7624 43.182 56.5298 43.4197C56.2929 43.6531 56.106 43.9321 55.98 44.2398C55.843 44.5551 55.7747 44.896 55.7798 45.2398V47.8198H54.0596V51.2597H55.7798V55.5598C55.7747 55.9035 55.843 56.2444 55.98 56.5598C56.106 56.8674 56.2929 57.1465 56.5298 57.3798C56.7624 57.6176 57.0414 57.8047 57.3496 57.9297C57.665 58.0664 58.0059 58.1346 58.3496 58.1298H72.0996C72.4434 58.1349 72.7843 58.0667 73.0996 57.9297C73.4092 57.8074 73.6892 57.6199 73.9199 57.3798C74.16 57.1491 74.3474 56.8694 74.4697 56.5598C74.6101 56.2452 74.6817 55.9042 74.6797 55.5598V51.2597L76.3599 51.2498Z" fill="#C2C2C2"/>
<path d="M62.4697 49.47H60.7598V47.75H62.4697V49.47Z" fill="#036C70"/>
<path d="M69.3496 49.47H67.6299V47.75H69.3496V49.47Z" fill="#036C70"/>
<path d="M61.3604 51.3799C61.8433 51.8647 62.4177 52.2487 63.0503 52.5098C63.683 52.7772 64.3634 52.9133 65.0503 52.9098C65.7374 52.9153 66.4182 52.7791 67.0503 52.5098C67.6859 52.2489 68.2639 51.865 68.7505 51.3799L69.9502 52.5999C69.3077 53.2448 68.5427 53.7548 67.7002 54.0999C66.8608 54.4507 65.9601 54.6309 65.0503 54.6299C64.1406 54.6299 63.2401 54.4497 62.4004 54.0999C61.5579 53.7548 60.7929 53.2448 60.1504 52.5999L61.3604 51.3799Z" fill="#036C70"/>
<defs>
<linearGradient id="paint0_linear" x1="49.2393" y1="-13.7898" x2="53.2193" y2="131.98" gradientUnits="userSpaceOnUse">
<stop stop-color="#00ABDE"/>
<stop offset="1" stop-color="#2E7BBF"/>
</linearGradient>
<linearGradient id="paint1_linear" x1="2.43993" y1="-20.6201" x2="97.9601" y2="120.26" gradientUnits="userSpaceOnUse">
<stop stop-color="#2E7BBF"/>
<stop offset="0.71" stop-color="#092D4C"/>
</linearGradient>
<linearGradient id="paint2_linear" x1="52117.4" y1="73498.8" x2="52392" y2="72939.1" gradientUnits="userSpaceOnUse">
<stop stop-color="#2E7BBF"/>
<stop offset="0.71" stop-color="#092D4C"/>
</linearGradient>
<linearGradient id="paint3_linear" x1="177070" y1="105567" x2="177070" y2="105478" gradientUnits="userSpaceOnUse">
<stop stop-color="#2E7BBF"/>
<stop offset="0.71" stop-color="#092D4C"/>
</linearGradient>
<linearGradient id="paint4_linear" x1="51.9498" y1="67.5796" x2="51.9498" y2="31.0195" gradientUnits="userSpaceOnUse">
<stop stop-color="#D3E9F9"/>
<stop offset="1" stop-color="#F1F9F9"/>
</linearGradient>
<linearGradient id="paint5_linear" x1="51.9398" y1="25.6096" x2="51.9398" y2="31.6996" gradientUnits="userSpaceOnUse">
<stop stop-color="#0799BE"/>
<stop offset="1" stop-color="#016E97"/>
</linearGradient>
<linearGradient id="paint6_linear" x1="311751" y1="24418.5" x2="311751" y2="24407.1" gradientUnits="userSpaceOnUse">
<stop stop-color="#0799BE"/>
<stop offset="1" stop-color="#016E97"/>
</linearGradient>
<linearGradient id="paint7_linear" x1="311803" y1="44152.1" x2="311803" y2="44115" gradientUnits="userSpaceOnUse">
<stop stop-color="#2E7BBF"/>
<stop offset="0.71" stop-color="#092D4C"/>
</linearGradient>
<linearGradient id="paint8_linear" x1="311751" y1="24418.5" x2="311751" y2="24407.1" gradientUnits="userSpaceOnUse">
<stop stop-color="#2E7BBF"/>
<stop offset="0.71" stop-color="#092D4C"/>
</linearGradient>
<linearGradient id="paint9_linear" x1="30.2094" y1="42.2696" x2="38.1394" y2="56.0095" gradientUnits="userSpaceOnUse">
<stop stop-color="#038F92"/>
<stop offset="0.5" stop-color="#018489"/>
<stop offset="1" stop-color="#026D71"/>
</linearGradient>
</defs>
</svg>
