<?xml version="1.0" encoding="UTF-8"?>
<svg width="101px" height="101px" viewBox="0 0 101 101" version="1.1" xmlns="http://www.w3.org/2000/svg" xmlns:xlink="http://www.w3.org/1999/xlink">
    <!-- Generator: Sketch 63.1 (92452) - https://sketch.com -->
    <title>NA/Introduction-to-building-apps-for-Microsoft-Teams</title>
    <desc>Created with Sketch.</desc>
    <defs>
        <rect id="path-1" x="0" y="0" width="94.3396226" height="94.3396226" rx="47.1698113"></rect>
        <linearGradient x1="77.8299825%" y1="11.1997378%" x2="-99.6885927%" y2="253.807911%" id="linearGradient-3">
            <stop stop-color="#FFFFFF" offset="0%"></stop>
            <stop stop-color="#000000" stop-opacity="0.5" offset="100%"></stop>
        </linearGradient>
        <rect id="path-4" x="0" y="0" width="94.3396226" height="94.3396226"></rect>
        <rect id="path-5" x="0" y="0" width="100" height="100" rx="50"></rect>
        <filter x="-0.5%" y="-0.5%" width="102.0%" height="102.0%" filterUnits="objectBoundingBox" id="filter-6">
            <feOffset dx="1" dy="1" in="SourceAlpha" result="shadowOffsetOuter1"></feOffset>
            <feMorphology radius="4" operator="erode" in="SourceAlpha" result="shadowInner"></feMorphology>
            <feOffset dx="1" dy="1" in="shadowInner" result="shadowInner"></feOffset>
            <feComposite in="shadowOffsetOuter1" in2="shadowInner" operator="out" result="shadowOffsetOuter1"></feComposite>
            <feColorMatrix values="0 0 0 0 0   0 0 0 0 0   0 0 0 0 0  0 0 0 0.15 0" type="matrix" in="shadowOffsetOuter1"></feColorMatrix>
        </filter>
        <path d="M50,2.83018868 C76.0511674,2.83018868 97.1698113,23.9488326 97.1698113,50 C97.1698113,76.0511674 76.0511674,97.1698113 50,97.1698113 C23.9488326,97.1698113 2.83018868,76.0511674 2.83018868,50 C2.83018868,23.9488326 23.9488326,2.83018868 50,2.83018868 Z M50,6.60377358 C26.032926,6.60377358 6.60377358,26.032926 6.60377358,50 C6.60377358,73.967074 26.032926,93.3962264 50,93.3962264 C73.967074,93.3962264 93.3962264,73.967074 93.3962264,50 C93.3962264,26.032926 73.967074,6.60377358 50,6.60377358 Z" id="path-7"></path>
        <filter x="-66.7%" y="-66.7%" width="233.3%" height="233.3%" filterUnits="objectBoundingBox" id="filter-9">
            <feOffset dx="0" dy="2" in="SourceAlpha" result="shadowOffsetOuter1"></feOffset>
            <feGaussianBlur stdDeviation="2" in="shadowOffsetOuter1" result="shadowBlurOuter1"></feGaussianBlur>
            <feColorMatrix values="0 0 0 0 0   0 0 0 0 0   0 0 0 0 0  0 0 0 0.1 0" type="matrix" in="shadowBlurOuter1" result="shadowMatrixOuter1"></feColorMatrix>
            <feMerge>
                <feMergeNode in="shadowMatrixOuter1"></feMergeNode>
                <feMergeNode in="SourceGraphic"></feMergeNode>
            </feMerge>
        </filter>
        <linearGradient x1="50%" y1="0.424581364%" x2="50%" y2="98.6043287%" id="linearGradient-10">
            <stop stop-color="#7B83EB" offset="0%"></stop>
            <stop stop-color="#727BE8" offset="9%"></stop>
            <stop stop-color="#5C64D3" offset="49%"></stop>
            <stop stop-color="#4B53BC" offset="81%"></stop>
            <stop stop-color="#2F37A2" offset="100%"></stop>
        </linearGradient>
        <linearGradient x1="50%" y1="100%" x2="50%" y2="0%" id="linearGradient-11">
            <stop stop-color="#CCCCCC" offset="15%"></stop>
            <stop stop-color="#707070" offset="100%"></stop>
        </linearGradient>
        <linearGradient x1="50%" y1="0.424581364%" x2="50%" y2="98.6043287%" id="linearGradient-12">
            <stop stop-color="#2F37A2" offset="0%"></stop>
            <stop stop-color="#4B53BC" offset="19%"></stop>
            <stop stop-color="#5C64D3" offset="51%"></stop>
            <stop stop-color="#727BE8" offset="91%"></stop>
            <stop stop-color="#7B83EB" offset="100%"></stop>
        </linearGradient>
        <filter x="-36.4%" y="-22.2%" width="172.7%" height="144.4%" filterUnits="objectBoundingBox" id="filter-13">
            <feOffset dx="0" dy="2" in="SourceAlpha" result="shadowOffsetOuter1"></feOffset>
            <feColorMatrix values="0 0 0 0 0   0 0 0 0 0   0 0 0 0 0  0 0 0 0.0964956975 0" type="matrix" in="shadowOffsetOuter1" result="shadowMatrixOuter1"></feColorMatrix>
            <feMerge>
                <feMergeNode in="shadowMatrixOuter1"></feMergeNode>
                <feMergeNode in="SourceGraphic"></feMergeNode>
            </feMerge>
        </filter>
        <radialGradient cx="50.5408087%" cy="42.6617935%" fx="50.5408087%" fy="42.6617935%" r="48.6102576%" id="radialGradient-14">
            <stop stop-color="#5EA0EF" offset="0%"></stop>
            <stop stop-color="#5B9FEE" offset="28%"></stop>
            <stop stop-color="#529BEC" offset="47%"></stop>
            <stop stop-color="#4394E7" offset="64%"></stop>
            <stop stop-color="#2D8BE1" offset="79%"></stop>
            <stop stop-color="#117FD9" offset="93%"></stop>
            <stop stop-color="#0078D4" offset="100%"></stop>
        </radialGradient>
    </defs>
    <g id="Badges" stroke="none" stroke-width="1" fill="none" fill-rule="evenodd">
        <g id="N/A-2" transform="translate(-160.000000, -510.000000)">
            <g id="NA/Introduction-to-building-apps-for-Microsoft-Teams" transform="translate(160.000000, 510.000000)">
                <g id="Badge-Plates/Circle">
                    <g id="BG" transform="translate(2.830189, 2.830189)">
                        <mask id="mask-2" fill="white">
                            <use xlink:href="#path-1"></use>
                        </mask>
                        <g></g>
                        <g id="Colors/Microsoft-365/BG-Solid-Badge" mask="url(#mask-2)">
                            <g id="Rectangle">
                                <use fill="#0078D4" xlink:href="#path-4"></use>
                                <use fill-opacity="0.4" fill="url(#linearGradient-3)" xlink:href="#path-4"></use>
                            </g>
                        </g>
                    </g>
                    <g id="Border">
                        <g id="White-Border">
                            <use fill="black" fill-opacity="1" filter="url(#filter-6)" xlink:href="#path-5"></use>
                            <rect stroke="#F2F1F0" stroke-width="4" stroke-linejoin="square" x="2" y="2" width="96" height="96" rx="48"></rect>
                        </g>
                        <mask id="mask-8" fill="white">
                            <use xlink:href="#path-7"></use>
                        </mask>
                        <use id="Boarder" fill="#0078D4" fill-rule="nonzero" xlink:href="#path-7"></use>
                        <g id="Colors/Microsoft-365/Border" mask="url(#mask-8)" fill="#0076D7">
                            <g transform="translate(2.830189, 2.830189)" id="Microsoft-365/Border">
                                <rect x="0" y="0" width="94.3396226" height="94.3396226"></rect>
                            </g>
                        </g>
                    </g>
                </g>
                <g id="Mask" transform="translate(19.000000, 22.000000)">
                    <g id="Group-4" transform="translate(45.000000, 38.000000)">
                        <g id="Computer-w/-power-button" filter="url(#filter-9)" fill-rule="nonzero">
                            <g id="Icon-compute-21-Virtual-Machine">
                                <rect id="Combined-Shape" fill="url(#linearGradient-10)" x="1.61497934e-13" y="3.36946845e-14" width="17.962963" height="12.8571429" rx="0.6"></rect>
                                <path d="M12.7082646,16.8892317 C10.8706818,16.5782166 10.7984173,15.1564332 10.7984173,12.8571429 L7.15422215,12.8571429 C7.15422215,15.1564332 7.09228116,16.5782166 5.25469833,16.8892317 C4.7292994,16.9517848 4.3327002,17.4312514 4.33588761,18 L13.6270754,18 C13.6302628,17.4312514 13.2336636,16.9517848 12.7082646,16.8892317 Z" id="Path" fill="url(#linearGradient-11)"></path>
                            </g>
                        </g>
                        <g id="Group-21" transform="translate(2.000000, 0.000000)">
                            <polygon id="Fill-1525" fill="url(#linearGradient-12)" points="1.875 13 2.1875 13 2.1875 0 1.875 0"></polygon>
                            <g id="Group-24" transform="translate(0.000000, 5.707317)" fill="#FFFFFF">
                                <path d="M1.04231798,0.412195122 C1.04231798,0.639726829 0.834653644,0.824390244 0.578781516,0.824390244 C0.32267762,0.824390244 0.115245053,0.639726829 0.115245053,0.412195122 C0.115245053,0.184457317 0.32267762,0 0.578781516,0 C0.834653644,0 1.04231798,0.184457317 1.04231798,0.412195122" id="Fill-1526"></path>
                                <path d="M1.04231798,2.40743605 C1.04231798,2.63496776 0.834653644,2.81963117 0.578781516,2.81963117 C0.32267762,2.81963117 0.115245053,2.63496776 0.115245053,2.40743605 C0.115245053,2.17969825 0.32267762,1.99524093 0.578781516,1.99524093 C0.834653644,1.99524093 1.04231798,2.17969825 1.04231798,2.40743605" id="Fill-1528"></path>
                                <path d="M1.04231798,4.35151695 C1.04231798,4.57904866 0.834653644,4.76371208 0.578781516,4.76371208 C0.32267762,4.76371208 0.115245053,4.57904866 0.115245053,4.35151695 C0.115245053,4.12377915 0.32267762,3.93932183 0.578781516,3.93932183 C0.834653644,3.93932183 1.04231798,4.12377915 1.04231798,4.35151695" id="Fill-1530"></path>
                            </g>
                            <path d="M7.83653846,10.4634146 L4.66346154,10.4634146 C4.50394231,10.4634146 4.375,10.3216829 4.375,10.1463415 C4.375,9.971 4.50394231,9.82926829 4.66346154,9.82926829 L7.83653846,9.82926829 C7.99605769,9.82926829 8.125,9.971 8.125,10.1463415 C8.125,10.3216829 7.99605769,10.4634146 7.83653846,10.4634146" id="Fill-1531" fill="#FFFFFE"></path>
                            <path d="M11.4453125,10.4634146 L8.8671875,10.4634146 C8.62957031,10.4634146 8.4375,10.3216829 8.4375,10.1463415 C8.4375,9.971 8.62957031,9.82926829 8.8671875,9.82926829 L11.4453125,9.82926829 C11.6829297,9.82926829 11.875,9.971 11.875,10.1463415 C11.875,10.3216829 11.6829297,10.4634146 11.4453125,10.4634146" id="Fill-1532" fill="#FFFFFF"></path>
                            <path d="M7.0703125,4.43902439 L4.4921875,4.43902439 C4.25457031,4.43902439 4.0625,4.29729268 4.0625,4.12195122 C4.0625,3.94660976 4.25457031,3.80487805 4.4921875,3.80487805 L7.0703125,3.80487805 C7.30792969,3.80487805 7.5,3.94660976 7.5,4.12195122 C7.5,4.29729268 7.30792969,4.43902439 7.0703125,4.43902439" id="Fill-1532" fill="#FFFFFF"></path>
                            <path d="M8.125,8.56097561 L4.6875,8.56097561 C4.5146875,8.56097561 4.375,8.4192439 4.375,8.24390244 C4.375,8.06856098 4.5146875,7.92682927 4.6875,7.92682927 L8.125,7.92682927 C8.2978125,7.92682927 8.4375,8.06856098 8.4375,8.24390244 C8.4375,8.4192439 8.2978125,8.56097561 8.125,8.56097561" id="Fill-1534" fill="#FFFFFE"></path>
                            <path d="M12.5,8.56097561 L9.0625,8.56097561 C8.8896875,8.56097561 8.75,8.4192439 8.75,8.24390244 C8.75,8.06856098 8.8896875,7.92682927 9.0625,7.92682927 L12.5,7.92682927 C12.6728125,7.92682927 12.8125,8.06856098 12.8125,8.24390244 C12.8125,8.4192439 12.6728125,8.56097561 12.5,8.56097561" id="Fill-1534" fill="#FFFFFE"></path>
                            <path d="M14.6875,8.56097561 L11.25,8.56097561 C11.0771875,8.56097561 10.9375,8.4192439 10.9375,8.24390244 C10.9375,8.06856098 11.0771875,7.92682927 11.25,7.92682927 L14.6875,7.92682927 C14.8603125,7.92682927 15,8.06856098 15,8.24390244 C15,8.4192439 14.8603125,8.56097561 14.6875,8.56097561" id="Fill-1534" fill="#FFFFFE"></path>
                            <path d="M4.73557692,6.34146341 C4.53617788,6.34146341 4.375,6.19973171 4.375,6.02439024 C4.375,5.84904878 4.53617788,5.70731707 4.73557692,5.70731707 L8.70192308,5.70731707 C8.90132212,5.70731707 9.0625,5.84904878 9.0625,6.02439024 C9.0625,6.19973171 8.90132212,6.34146341 8.70192308,6.34146341 L4.73557692,6.34146341 Z" id="Fill-1540" fill="#FFFFFE"></path>
                        </g>
                    </g>
                    <g id="Group-5" transform="translate(16.000000, 0.000000)" fill-rule="nonzero">
                        <g id="Microsoft_Office_Teams_(2018–present)">
                            <ellipse id="Head" fill="#7B83EB" cx="13.28125" cy="3.83333333" rx="3.64609375" ry="3.57803333"></ellipse>
                            <ellipse id="Head-2" fill="#5059C9" cx="21.484375" cy="4.98333333" rx="2.734375" ry="2.68333333"></ellipse>
                            <path d="M23.828125,8.43333333 L17.6867187,8.43333333 C17.4105764,8.43333333 17.1867187,8.65301228 17.1867187,8.924 L17.1867187,15.1416667 C17.1518324,16.9962298 18.4443185,18.6217252 20.2859375,19.0394 C21.4385336,19.2767298 22.6387456,18.9917257 23.5532627,18.263536 C24.4677798,17.5353464 24.999221,16.4415115 25,15.2858 L25,9.58333333 C25,8.94820587 24.4753337,8.43333333 23.828125,8.43333333 L23.828125,8.43333333 Z" id="Path" fill="#5059C9"></path>
                            <path d="M19.531249,9.58333333 L19.531249,16.8666667 C19.5328257,19.6418692 17.6341245,22.0718623 14.9025945,22.7905061 C12.1710645,23.5091499 9.28830467,22.3371212 7.875,19.9333323 C7.72466389,19.6881403 7.59405893,19.4318063 7.484375,19.1666667 C7.3821189,18.9166768 7.2960109,18.6606143 7.2265625,18.4 C7.0977638,17.8986579 7.03216903,17.3836953 7.03124895,16.8666667 L7.03124895,9.58333333 C7.0308346,9.27820958 7.15416624,8.98546567 7.37402555,8.76971041 C7.59388486,8.55395514 7.89219727,8.43292569 8.203125,8.43333231 L18.359375,8.43333231 C18.6703027,8.43292569 18.9686151,8.55395514 19.1884744,8.76971041 C19.4083338,8.98546567 19.5316654,9.27820958 19.531249,9.58333333 L19.531249,9.58333333 Z" id="Path" fill="#7B83EB"></path>
                            <g id="Back_Plate" transform="translate(0.000000, 5.366667)">
                                <g id="path-4-link" fill="#000000">
                                    <path d="M1.04140625,0 L11.4585938,0 C12.0335937,0 12.5,0.4577 12.5,1.02196667 L12.5,11.2447 C12.5,11.8089667 12.0335937,12.2666667 11.4585938,12.2666667 L1.04140625,12.2666667 C0.46625346,12.2666667 0,11.8091166 0,11.2447 L0,1.02196667 C0,0.4577 0.46640625,0 1.04140625,0 Z" id="path-4"></path>
                                </g>
                                <g id="path-4-link" fill="#4B53BC">
                                    <path d="M1.04140625,0 L11.4585938,0 C12.0335937,0 12.5,0.4577 12.5,1.02196667 L12.5,11.2447 C12.5,11.8089667 12.0335937,12.2666667 11.4585938,12.2666667 L1.04140625,12.2666667 C0.46625346,12.2666667 0,11.8091166 0,11.2447 L0,1.02196667 C0,0.4577 0.46640625,0 1.04140625,0 Z" id="path-4"></path>
                                </g>
                            </g>
                            <polygon id="Path" fill="#FFFFFF" points="9.359375 9.18083333 7.0234375 9.18083333 7.0234375 15.3295 5.490625 15.3295 5.490625 9.18083333 3.140625 9.18083333 3.140625 7.6705 9.359375 7.6705"></polygon>
                        </g>
                    </g>
                    <g id="mobile-" transform="translate(0.000000, 38.000000)">
                        <g id="Mobile" filter="url(#filter-13)">
                            <path d="M11,16.875 C11,17.49375 10.4789474,18 9.84210526,18 L1.15789474,18 C0.521052632,18 0,17.49375 0,16.875 L0,1.125 C0,0.50625 0.521052632,0 1.15789474,0 L9.84210526,0 C10.4789474,0 11,0.50625 11,1.125 L11,16.875" id="Fill-1355" fill-opacity="0.781987544" fill="#2A2D2F"></path>
                            <polygon id="Fill-1356" fill="#252A2C" points="0.733333333 15.12 10.2666667 15.12 10.2666667 2.16 0.733333333 2.16"></polygon>
                            <path d="M6.6,16.56 C6.6,16.95768 6.27171111,17.28 5.86666667,17.28 C5.46162222,17.28 5.13333333,16.95768 5.13333333,16.56 C5.13333333,16.16232 5.46162222,15.84 5.86666667,15.84 C6.27171111,15.84 6.6,16.16232 6.6,16.56" id="Fill-1357" fill="#252A2C"></path>
                            <path d="M7.04,1.44 L4.69333333,1.44 C4.53141333,1.44 4.4,1.27908 4.4,1.08 C4.4,0.88092 4.53141333,0.72 4.69333333,0.72 L7.04,0.72 C7.20192,0.72 7.33333333,0.88092 7.33333333,1.08 C7.33333333,1.27908 7.20192,1.44 7.04,1.44" id="Fill-1358" fill="#252A2C"></path>
                        </g>
                        <g id="Group-24-Copy" transform="translate(1.000000, 5.902439)" fill="#FFFFFF">
                            <path d="M1.04231798,0.412195122 C1.04231798,0.639726829 0.834653644,0.824390244 0.578781516,0.824390244 C0.32267762,0.824390244 0.115245053,0.639726829 0.115245053,0.412195122 C0.115245053,0.184457317 0.32267762,0 0.578781516,0 C0.834653644,0 1.04231798,0.184457317 1.04231798,0.412195122" id="Fill-1526"></path>
                            <path d="M1.04231798,2.40743605 C1.04231798,2.63496776 0.834653644,2.81963117 0.578781516,2.81963117 C0.32267762,2.81963117 0.115245053,2.63496776 0.115245053,2.40743605 C0.115245053,2.17969825 0.32267762,1.99524093 0.578781516,1.99524093 C0.834653644,1.99524093 1.04231798,2.17969825 1.04231798,2.40743605" id="Fill-1528"></path>
                            <path d="M1.04231798,4.35151695 C1.04231798,4.57904866 0.834653644,4.76371208 0.578781516,4.76371208 C0.32267762,4.76371208 0.115245053,4.57904866 0.115245053,4.35151695 C0.115245053,4.12377915 0.32267762,3.93932183 0.578781516,3.93932183 C0.834653644,3.93932183 1.04231798,4.12377915 1.04231798,4.35151695" id="Fill-1530"></path>
                        </g>
                        <path d="M8.0703125,4.63414634 L5.4921875,4.63414634 C5.25457031,4.63414634 5.0625,4.49241463 5.0625,4.31707317 C5.0625,4.14173171 5.25457031,4 5.4921875,4 L8.0703125,4 C8.30792969,4 8.5,4.14173171 8.5,4.31707317 C8.5,4.49241463 8.30792969,4.63414634 8.0703125,4.63414634" id="Fill-1532-Copy" fill="#FFFFFF"></path>
                        <path d="M8.0078125,10.6341463 L5.4296875,10.6341463 C5.19207031,10.6341463 5,10.4924146 5,10.3170732 C5,10.1417317 5.19207031,10 5.4296875,10 L8.0078125,10 C8.24542969,10 8.4375,10.1417317 8.4375,10.3170732 C8.4375,10.4924146 8.24542969,10.6341463 8.0078125,10.6341463" id="Fill-1532-Copy-2" fill="#FFFFFF"></path>
                        <path d="M3.36057692,6.63414634 C3.16117788,6.63414634 3,6.49241463 3,6.31707317 C3,6.14173171 3.16117788,6 3.36057692,6 L7.32692308,6 C7.52632212,6 7.6875,6.14173171 7.6875,6.31707317 C7.6875,6.49241463 7.52632212,6.63414634 7.32692308,6.63414634 L3.36057692,6.63414634 Z" id="Fill-1540-Copy" fill="#FFFFFE"></path>
                        <path d="M3.30769231,8.63414634 C3.13753846,8.63414634 3,8.49241463 3,8.31707317 C3,8.14173171 3.13753846,8 3.30769231,8 L6.69230769,8 C6.86246154,8 7,8.14173171 7,8.31707317 C7,8.49241463 6.86246154,8.63414634 6.69230769,8.63414634 L3.30769231,8.63414634 Z" id="Fill-1540-Copy-2" fill="#FFFFFE"></path>
                    </g>
                    <g id="Internet" transform="translate(19.000000, 38.000000)" fill="url(#radialGradient-14)" fill-rule="nonzero">
                        <path d="M17.3916647,5.61591669 C17.1081332,4.91670193 16.7418932,4.25430988 16.3008428,3.64302514 C14.8547986,1.70830566 12.702815,0.430328913 10.318672,0.0904537683 C7.93452896,-0.249421376 5.51369179,0.376669949 3.58913111,1.83088771 L3.50186536,1.90395777 C1.9235766,3.12362097 0.793000016,4.83532546 0.28757671,6.7704236 C0.28757671,7.09193185 0.142133785,7.41344011 0.0985009079,7.73494836 C-0.337185883,10.6861737 0.689092215,13.6651891 2.84737219,15.7141986 L2.84737219,15.7141986 C2.94698949,15.8191344 3.05391813,15.9168082 3.16734663,16.0064789 L3.16734663,16.0064789 L3.48732106,16.2695311 L3.48732106,16.2695311 C3.91374474,16.6055542 4.3716112,16.8992104 4.85448456,17.1463718 L4.99992748,17.2340558 L5.24718046,17.3363539 L5.45080055,17.438652 L5.66896494,17.5263361 L5.90167362,17.6140201 L6.10529371,17.6870902 L6.39617956,17.7747743 L6.55616678,17.7747743 L6.97795126,17.8916864 L6.97795126,17.8916864 L7.44336863,17.9939844 L7.55972297,17.9939844 C7.68079397,18.0020052 7.80225927,18.0020052 7.92333028,17.9939844 L8.0687732,17.9939844 L9.6250125,17.9939844 L9.95953123,17.9939844 L9.95953123,17.9939844 L10.1340627,17.9939844 C10.5075163,17.949178 10.8770374,17.8758966 11.239429,17.7747743 L11.239429,17.7747743 C12.4072688,17.4608366 13.5003622,16.9141549 14.4537176,16.167233 C15.068474,15.6883929 15.6206669,15.1335529 16.0972227,14.5158497 C18.0450833,11.9795554 18.5357129,8.60623226 17.3916647,5.61591669 Z M15.2827423,4.25681362 L13.5083386,4.25681362 C13.2129475,3.38486897 12.7808747,2.56591559 12.2284409,1.83088771 C13.450883,2.35948288 14.5176379,3.19483575 15.3263752,4.25681362 L15.2827423,4.25681362 Z M9.59592392,1.33401132 C10.8455601,1.88567257 11.7990777,2.9502152 12.2138966,4.25681362 L9.59592392,4.25681362 L9.59592392,1.33401132 Z M9.59592392,5.48439059 L12.6065925,5.48439059 C12.884785,6.49011984 13.0458501,7.52489696 13.0865541,8.56794701 L9.59592392,8.56794701 L9.59592392,5.48439059 Z M9.59592392,9.73706793 L13.0865541,9.73706793 C13.0469736,10.7850274 12.8858985,11.8247736 12.6065925,12.8352384 L9.63955679,12.8352384 L9.63955679,9.67861189 L9.59592392,9.73706793 Z M5.05810465,7.64726429 C5.12822413,6.8961795 5.26450481,6.1528238 5.46534484,5.42593454 L8.47601339,5.42593454 L8.47601339,8.50949097 L4.99992748,8.50949097 C5.01447178,8.21721074 5.02901607,7.92493051 5.05810465,7.64726429 Z M8.47601339,1.27555528 L8.47601339,4.19835758 L5.87258503,4.19835758 C6.2773763,2.89076935 7.22735034,1.82425785 8.47601339,1.27555528 Z M4.21453569,2.8246405 L4.21453569,2.8246405 C4.71226175,2.45514853 5.24874801,2.14151482 5.81440786,1.88934376 C5.26472863,2.63145233 4.83296123,3.45475683 4.53451012,4.32988368 L2.84737219,4.32988368 C3.23983467,3.77361859 3.69901531,3.26806198 4.21453569,2.8246405 L4.21453569,2.8246405 Z M2.0474361,5.42593454 L4.30180144,5.42593454 C4.13700323,6.06903276 4.0203232,6.72361904 3.95273842,7.38421208 C3.95273842,7.74956237 3.88001696,8.12952667 3.88001696,8.50949097 L1.17477855,8.50949097 C1.22589206,8.14013186 1.29874117,7.77414025 1.39294294,7.41344011 C1.53133236,6.72705311 1.75106242,6.05979676 2.0474361,5.42593454 L2.0474361,5.42593454 Z M1.17477855,9.67861189 L3.83638408,9.67861189 C3.87277997,10.7258506 4.02894553,11.7654068 4.30180144,12.7767823 L2.0474361,12.7767823 C1.54616762,11.8159218 1.24900465,10.7609128 1.17477855,9.67861189 L1.17477855,9.67861189 Z M2.84737219,13.9751313 L2.84737219,13.9751313 L4.60723159,13.9751313 C4.90262272,14.8470759 5.33469551,15.6660293 5.88712933,16.4010572 C4.68484515,15.8656492 3.63854087,15.0306297 2.84737219,13.9751313 L2.84737219,13.9751313 Z M8.50510198,16.8979336 C7.25643892,16.349231 6.30646489,15.2827195 5.90167362,13.9751313 L8.50510198,13.9751313 L8.50510198,16.8979336 Z M8.50510198,12.7475543 L5.46534484,12.7475543 C5.19108429,11.7364761 5.03489399,10.6967551 4.99992748,9.64938387 L8.47601339,9.64938387 L8.47601339,12.7767823 L8.50510198,12.7475543 Z M10.7303787,16.2841451 C10.4238375,16.5621439 10.0619029,16.7713785 9.66864538,16.8979336 L9.66864538,13.9751313 L12.286618,13.9751313 C11.9357832,14.8622282 11.394474,15.6606194 10.7012901,16.3133731 L10.7303787,16.2841451 Z M13.9010345,15.3342343 L13.9010345,15.3342343 C13.3884405,15.7365064 12.8262526,16.0705241 12.2284409,16.3279871 C12.7808747,15.5929592 13.2129475,14.7740059 13.5083386,13.9020612 L15.3263752,13.9020612 C14.9150712,14.4395291 14.4359383,14.9209587 13.9010345,15.3342343 L13.9010345,15.3342343 Z M16.0535898,12.7329403 L13.8719459,12.7329403 C14.115793,11.7170814 14.2571021,10.6791106 14.2937304,9.63476985 L16.9262473,9.63476985 C16.8619766,10.7327019 16.564417,11.8040681 16.0535898,12.7767823 L16.0535898,12.7329403 Z M14.2937304,8.50949097 C14.2561302,7.47005121 14.1148277,6.43702499 13.8719459,5.42593454 L16.0681341,5.42593454 C16.5606629,6.38506716 16.8573643,7.43346852 16.9407916,8.50949097 L14.2937304,8.50949097 Z" id="Shape"></path>
                    </g>
                    <polyline id="Path-31" stroke="#FFFFFF" points="5.86666667 31.4672624 5.86666667 27.8959918 29.28125 27.8959918 29.28125 31.4672624"></polyline>
                    <polyline id="Path-33" stroke="#FFFFFF" points="29.6294949 27.8959918 49.3358876 27.8959918 49.3358876 31.4672624"></polyline>
                    <line x1="29.28125" y1="27.4992705" x2="29.28125" y2="25.1580196" id="Path-34" stroke="#FFFFFF"></line>
                </g>
            </g>
        </g>
    </g>
</svg>