<svg width="103" height="102" viewBox="0 0 103 102" fill="none" xmlns="http://www.w3.org/2000/svg">
<path d="M51.0924 97.8094C41.8342 97.8094 32.7839 95.064 25.086 89.9204C17.3882 84.7769 11.3882 77.4663 7.84531 68.9129C4.30237 60.3595 3.37556 50.9475 5.18174 41.8672C6.98791 32.787 11.4458 24.4462 17.9923 17.8997C24.5388 11.3532 32.8798 6.89507 41.9601 5.0889C51.0403 3.28273 60.4521 4.20978 69.0055 7.75272C77.5589 11.2957 84.8697 17.2953 90.0133 24.9932C95.1568 32.6911 97.902 41.7412 97.902 50.9993C97.902 63.4141 92.9706 75.3206 84.192 84.0992C75.4134 92.8777 63.5072 97.8094 51.0924 97.8094V97.8094Z" fill="url(#paint0_linear)"/>
<path fill-rule="evenodd" clip-rule="evenodd" d="M51.0918 1C60.9809 1 70.6477 3.93244 78.8701 9.42651C87.0926 14.9206 93.5013 22.7297 97.2856 31.866C101.07 41.0023 102.06 51.0556 100.131 60.7546C98.2016 70.4537 93.4394 79.3628 86.4468 86.3555C79.4542 93.3481 70.5452 98.11 60.8462 100.039C51.1471 101.969 41.0938 100.978 31.9575 97.1941C22.8212 93.4097 15.0121 87.001 9.51807 78.7786C4.024 70.5561 1.0918 60.8891 1.0918 51C1.0918 37.7392 6.35951 25.0216 15.7363 15.6448C25.1131 6.26796 37.831 1 51.0918 1ZM51.0918 96.76C60.1423 96.76 68.9895 94.0763 76.5146 89.0481C84.0398 84.0199 89.9047 76.8733 93.3682 68.5117C96.8316 60.1502 97.7378 50.9493 95.9722 42.0728C94.2065 33.1962 89.8484 25.0425 83.4487 18.6428C77.0491 12.2432 68.8956 7.88504 60.019 6.11938C51.1425 4.35373 41.9416 5.25992 33.5801 8.72339C25.2185 12.1869 18.0716 18.052 13.0435 25.5771C8.01528 33.1023 5.33154 41.9495 5.33154 51C5.33154 63.1363 10.1527 74.7758 18.7344 83.3574C27.316 91.9391 38.9555 96.76 51.0918 96.76V96.76Z" fill="#DAD9D9"/>
<path fill-rule="evenodd" clip-rule="evenodd" d="M96.9922 50.9993C96.9922 60.0774 94.2999 68.9518 89.2563 76.5C84.2128 84.0482 77.0444 89.9315 68.6572 93.4055C60.2701 96.8796 51.0409 97.7884 42.1372 96.0173C33.2335 94.2463 25.055 89.8748 18.6357 83.4556C12.2165 77.0363 7.84528 68.8578 6.07422 59.9541C4.30316 51.0504 5.21197 41.8215 8.68604 33.4343C12.1601 25.0472 18.0431 17.8785 25.5913 12.835C33.1395 7.79141 42.0141 5.09937 51.0923 5.09937C63.2657 5.09937 74.9404 9.9353 83.5483 18.5432C92.1563 27.1511 96.9922 38.8258 96.9922 50.9993V50.9993ZM51.0923 1.35938C60.9101 1.35938 70.5072 4.27083 78.6704 9.72534C86.8337 15.1799 93.1965 22.9324 96.9536 32.0029C100.711 41.0735 101.694 51.0544 99.7783 60.6836C97.8629 70.3128 93.1351 79.1578 86.1929 86.1001C79.2506 93.0424 70.4056 97.7702 60.7764 99.6855C51.1472 101.601 41.1662 100.618 32.0957 96.8608C23.0252 93.1037 15.2724 86.7411 9.81787 78.5779C4.36336 70.4146 1.45215 60.8171 1.45215 50.9993C1.45084 44.4801 2.73385 38.0247 5.22803 32.0015C7.72221 25.9783 11.3785 20.5055 15.9883 15.8958C20.598 11.286 26.071 7.62943 32.0942 5.13525C38.1174 2.64108 44.5731 1.35806 51.0923 1.35938V1.35938Z" fill="#F2F1F0"/>
<path fill-rule="evenodd" clip-rule="evenodd" d="M51.0918 94.0898C42.5694 94.0898 34.238 91.5627 27.1519 86.8279C20.0658 82.0931 14.5432 75.3634 11.2818 67.4897C8.02039 59.6161 7.16699 50.9521 8.82962 42.5935C10.4923 34.2349 14.5963 26.5568 20.6226 20.5305C26.6488 14.5043 34.3265 10.4004 42.6851 8.73779C51.0437 7.07516 59.7079 7.92856 67.5816 11.1899C75.4552 14.4513 82.1847 19.9742 86.9195 27.0603C91.6543 34.1464 94.1817 42.4774 94.1817 50.9998C94.1817 62.4279 89.642 73.3881 81.5611 81.469C73.4801 89.5499 62.52 94.0898 51.0918 94.0898ZM97.9214 50.9998C97.9214 60.2619 95.1751 69.3162 90.0293 77.0173C84.8836 84.7185 77.5698 90.7207 69.0127 94.2651C60.4557 97.8096 51.0397 98.7369 41.9556 96.9299C32.8715 95.123 24.5269 90.6631 17.9776 84.1138C11.4283 77.5645 6.9686 69.2201 5.16165 60.136C3.35471 51.0519 4.28175 41.6359 7.82621 33.0789C11.3707 24.5218 17.3731 17.208 25.0743 12.0623C32.7754 6.91651 41.8297 4.16992 51.0918 4.16992C63.5119 4.16992 75.4233 9.10366 84.2056 17.886C92.9879 26.6683 97.9214 38.5797 97.9214 50.9998Z" fill="url(#paint1_linear)"/>
<path d="M50.7519 30.1603C49.6778 30.1682 48.6257 29.8567 47.7289 29.2655C46.8321 28.6743 46.1313 27.8302 45.7152 26.84C45.2992 25.8497 45.1866 24.7582 45.392 23.704C45.5974 22.6497 46.1117 21.6802 46.8691 20.9186C47.6264 20.157 48.5928 19.6374 49.6459 19.4261C50.699 19.2149 51.7911 19.3215 52.7836 19.732C53.7761 20.1426 54.6245 20.8388 55.2206 21.7323C55.8168 22.6258 56.1337 23.676 56.1317 24.7501C56.1318 26.1797 55.5661 27.5513 54.558 28.5651C53.5499 29.5788 52.1815 30.1523 50.7519 30.1603V30.1603ZM50.7519 21.4703C50.1015 21.4624 49.4635 21.648 48.9189 22.0035C48.3742 22.3591 47.9477 22.8686 47.6933 23.4672C47.4389 24.0658 47.3681 24.7265 47.4901 25.3653C47.6122 26.0042 47.9212 26.5923 48.3783 27.055C48.8354 27.5178 49.4197 27.8341 50.057 27.964C50.6944 28.0938 51.3562 28.0313 51.9579 27.7843C52.5596 27.5373 53.0742 27.1168 53.4364 26.5765C53.7986 26.0363 53.992 25.4005 53.9921 24.7501C53.9947 24.322 53.9128 23.8976 53.7514 23.5011C53.59 23.1046 53.352 22.7437 53.0512 22.4391C52.7503 22.1345 52.3925 21.8922 51.998 21.7259C51.6034 21.5597 51.18 21.4729 50.7519 21.4703V21.4703Z" fill="url(#paint2_linear)"/>
<path d="M64.5322 81.6106H37.6221L34.792 86.8806L32.9121 85.8806L40.7319 71.3105L42.6021 72.3105L38.7622 79.4607H63.3423L59.502 72.3105L61.3818 71.3105L69.2021 85.8806L67.3223 86.8806L64.5322 81.6106Z" fill="url(#paint3_linear)"/>
<path d="M80.2222 30.5391H22.002V69.6692H80.2222V30.5391Z" fill="url(#paint4_linear)"/>
<path d="M21.2417 24.7402H80.9517C81.5192 24.7402 82.0635 24.9659 82.4648 25.3672C82.8662 25.7685 83.0918 26.3128 83.0918 26.8804V29.1204C83.0918 29.6879 82.8662 30.2322 82.4648 30.6335C82.0635 31.0349 81.5192 31.2603 80.9517 31.2603H21.2417C20.674 31.255 20.131 31.0266 19.7305 30.6243C19.33 30.2219 19.1042 29.678 19.1016 29.1104V26.8804C19.1016 26.5993 19.1571 26.3212 19.2646 26.0615C19.3722 25.8019 19.5298 25.5659 19.7285 25.3672C19.9272 25.1685 20.1632 25.0109 20.4229 24.9033C20.6825 24.7958 20.9607 24.7402 21.2417 24.7402V24.7402Z" fill="url(#paint5_linear)"/>
<path d="M20.9116 68.8398H81.2818C81.7618 68.8398 82.2221 69.0307 82.5616 69.3701C82.901 69.7096 83.0918 70.1699 83.0918 70.6499C83.0918 71.1299 82.901 71.5902 82.5616 71.9297C82.2221 72.2691 81.7618 72.46 81.2818 72.46H20.9116C20.6741 72.4626 20.4384 72.4178 20.2183 72.3284C19.9981 72.239 19.7979 72.1068 19.6294 71.9392C19.4609 71.7717 19.3275 71.5722 19.2368 71.3525C19.1462 71.1329 19.1002 70.8975 19.1016 70.6599C19.1016 70.1789 19.2922 69.7175 19.6314 69.3765C19.9705 69.0354 20.4307 68.8425 20.9116 68.8398V68.8398Z" fill="url(#paint6_linear)"/>
<path d="M80.2222 30.5391H22.002V69.6692H80.2222V30.5391Z" fill="url(#paint7_linear)"/>
<path d="M21.2417 24.7402H80.9517C81.5192 24.7402 82.0635 24.9659 82.4648 25.3672C82.8662 25.7685 83.0918 26.3128 83.0918 26.8804V29.1204C83.0918 29.6879 82.8662 30.2322 82.4648 30.6335C82.0635 31.0349 81.5192 31.2603 80.9517 31.2603H21.2417C20.674 31.255 20.131 31.0266 19.7305 30.6243C19.33 30.2219 19.1042 29.678 19.1016 29.1104V26.8804C19.1016 26.5993 19.1571 26.3212 19.2646 26.0615C19.3722 25.8019 19.5298 25.5659 19.7285 25.3672C19.9272 25.1685 20.1632 25.0109 20.4229 24.9033C20.6825 24.7958 20.9607 24.7402 21.2417 24.7402V24.7402Z" fill="url(#paint8_linear)"/>
<path d="M20.9116 68.8398H81.2818C81.7618 68.8398 82.2221 69.0307 82.5616 69.3701C82.901 69.7096 83.0918 70.1699 83.0918 70.6499C83.0918 71.1299 82.901 71.5902 82.5616 71.9297C82.2221 72.2691 81.7618 72.46 81.2818 72.46H20.9116C20.6741 72.4626 20.4384 72.4178 20.2183 72.3284C19.9981 72.239 19.7979 72.1068 19.6294 71.9392C19.4609 71.7717 19.3275 71.5722 19.2368 71.3525C19.1462 71.1329 19.1002 70.8975 19.1016 70.6599C19.1016 70.1789 19.2922 69.7175 19.6314 69.3765C19.9705 69.0354 20.4307 68.8425 20.9116 68.8398V68.8398Z" fill="url(#paint9_linear)"/>
<path d="M56.9019 45.1602H64.5122C64.857 45.1602 65.1874 45.297 65.4312 45.5408C65.6749 45.7846 65.812 46.1154 65.812 46.4602V53.3901C65.812 54.0179 65.6885 54.6393 65.4482 55.2192C65.208 55.7992 64.856 56.3262 64.4121 56.77C63.9682 57.2139 63.4413 57.5659 62.8613 57.8062C62.2814 58.0464 61.6599 58.1702 61.0322 58.1702V58.1702C59.7653 58.1675 58.5506 57.6629 57.6548 56.7671C56.7589 55.8712 56.2546 54.6571 56.252 53.3901V45.8401C56.2518 45.6648 56.3193 45.4963 56.4404 45.3696C56.5615 45.2429 56.7268 45.1679 56.9019 45.1602V45.1602Z" fill="#555DAA"/>
<path d="M62.042 43.7889C62.6512 43.7889 63.2469 43.6083 63.7534 43.2699C64.2599 42.9314 64.6546 42.4503 64.8877 41.8875C65.1208 41.3247 65.1818 40.7055 65.063 40.108C64.9441 39.5105 64.6505 38.9618 64.2197 38.5311C63.789 38.1004 63.2405 37.8069 62.6431 37.6881C62.0456 37.5692 61.4261 37.6303 60.8633 37.8634C60.3005 38.0965 59.8194 38.4914 59.481 38.9979C59.1425 39.5044 58.9619 40.0999 58.9619 40.7091C58.9619 41.5259 59.2866 42.3092 59.8643 42.8868C60.4419 43.4644 61.2251 43.7889 62.042 43.7889Z" fill="#555DAA"/>
<path d="M52.4614 43.7906C53.3416 43.7906 54.2023 43.5296 54.9341 43.0406C55.6659 42.5516 56.2359 41.8567 56.5728 41.0435C56.9096 40.2304 56.9979 39.3357 56.8262 38.4725C56.6545 37.6093 56.2307 36.8165 55.6084 36.1942C54.9861 35.5718 54.1928 35.1479 53.3296 34.9761C52.4664 34.8044 51.5719 34.8925 50.7588 35.2293C49.9457 35.5661 49.2507 36.1367 48.7617 36.8685C48.2727 37.6003 48.0117 38.4605 48.0117 39.3406C48.0117 40.5209 48.4804 41.6528 49.3149 42.4874C50.1495 43.3219 51.2812 43.7906 52.4614 43.7906V43.7906Z" fill="#7980BE"/>
<path d="M58.3918 45.1602H45.842C45.5016 45.1706 45.1787 45.3152 44.9446 45.5625C44.7104 45.8098 44.584 46.1398 44.592 46.4802V54.3701C44.5394 55.3916 44.6949 56.4132 45.0496 57.3726C45.4042 58.332 45.9501 59.2093 46.6545 59.9509C47.3589 60.6926 48.2069 61.283 49.1467 61.6865C50.0866 62.0901 51.099 62.2983 52.1218 62.2983C53.1447 62.2983 54.157 62.0901 55.0969 61.6865C56.0368 61.283 56.8847 60.6926 57.5891 59.9509C58.2935 59.2093 58.8395 58.332 59.1941 57.3726C59.5487 56.4132 59.7043 55.3916 59.6516 54.3701V46.4802C59.657 46.1388 59.528 45.8088 59.2922 45.5618C59.0565 45.3148 58.7331 45.1706 58.3918 45.1602V45.1602Z" fill="#7980BE"/>
<path opacity="0.1" d="M52.8021 45.1602V56.2302C52.8005 56.4776 52.7251 56.7189 52.5863 56.9236C52.4475 57.1283 52.2511 57.2871 52.0218 57.3801C51.8745 57.4477 51.7142 57.4819 51.5521 57.4802H45.1918C45.1018 57.2502 45.022 57.03 44.952 56.8C44.713 56.0122 44.5919 55.1934 44.5922 54.3701V46.4702C44.5882 46.3021 44.6169 46.1349 44.6776 45.978C44.7383 45.8212 44.8296 45.6778 44.9457 45.5562C45.0618 45.4345 45.2006 45.337 45.3544 45.269C45.5082 45.2011 45.6741 45.1641 45.8422 45.1602H52.8021Z" fill="black"/>
<path opacity="0.2" d="M52.1219 45.1602V56.9102C52.1237 57.0723 52.0894 57.2327 52.0218 57.3801C51.9282 57.6097 51.7697 57.8069 51.5653 57.9473C51.361 58.0876 51.1198 58.1651 50.8719 58.1702H45.5121C45.4021 57.9402 45.2918 57.7102 45.1918 57.4802C45.0985 57.2585 45.0186 57.0312 44.952 56.8C44.7123 56.0124 44.5911 55.1935 44.5922 54.3701V46.4702C44.5882 46.3021 44.6169 46.1349 44.6776 45.978C44.7383 45.8212 44.8296 45.6778 44.9457 45.5562C45.0618 45.4345 45.2006 45.337 45.3544 45.269C45.5082 45.2011 45.6741 45.1641 45.8422 45.1602H52.1219Z" fill="black"/>
<path opacity="0.2" d="M52.1219 45.1602V55.54C52.1194 55.8717 51.9874 56.1894 51.7538 56.4248C51.5202 56.6603 51.2036 56.7948 50.8719 56.8H44.952C44.713 56.0122 44.5919 55.1934 44.5922 54.3701V46.4702C44.5882 46.3021 44.6169 46.1349 44.6776 45.978C44.7383 45.8212 44.8296 45.6778 44.9457 45.5562C45.0618 45.4345 45.2006 45.337 45.3544 45.269C45.5082 45.2011 45.6741 45.1641 45.8422 45.1602H52.1219Z" fill="black"/>
<path opacity="0.2" d="M51.432 45.1602V55.54C51.4294 55.8717 51.2969 56.1894 51.0634 56.4248C50.8298 56.6603 50.5136 56.7948 50.182 56.8H44.952C44.713 56.0122 44.5919 55.1934 44.5922 54.3701V46.4702C44.5882 46.3021 44.6169 46.1349 44.6776 45.978C44.7383 45.8212 44.8296 45.6778 44.9457 45.5562C45.0618 45.4345 45.2006 45.337 45.3544 45.269C45.5082 45.2011 45.6741 45.1641 45.8422 45.1602H51.432Z" fill="black"/>
<path opacity="0.1" d="M52.8022 41.6094V43.7693H52.1221C51.89 43.7473 51.6596 43.7107 51.4321 43.6594C50.7486 43.4962 50.1134 43.1738 49.5781 42.7185C49.0429 42.2632 48.6227 41.6878 48.3521 41.0393C48.2638 40.8178 48.19 40.5907 48.1318 40.3594H51.5522C51.8838 40.3594 52.2016 40.4912 52.436 40.7256C52.6705 40.96 52.8022 41.2779 52.8022 41.6094V41.6094Z" fill="black"/>
<path opacity="0.2" d="M52.1216 42.3108V43.7808C51.8895 43.7588 51.6591 43.7222 51.4316 43.6709C50.7482 43.5077 50.1129 43.1853 49.5776 42.73C49.0424 42.2747 48.6223 41.6993 48.3516 41.0508H50.8716C51.2032 41.056 51.5198 41.1908 51.7534 41.4263C51.987 41.6617 52.119 41.9791 52.1216 42.3108V42.3108Z" fill="black"/>
<path opacity="0.2" d="M52.1216 42.3108V43.7808C51.8895 43.7588 51.6591 43.7222 51.4316 43.6709C50.7482 43.5077 50.1129 43.1853 49.5776 42.73C49.0424 42.2747 48.6223 41.6993 48.3516 41.0508H50.8716C51.2032 41.056 51.5198 41.1908 51.7534 41.4263C51.987 41.6617 52.119 41.9791 52.1216 42.3108V42.3108Z" fill="black"/>
<path opacity="0.2" d="M51.4316 42.3108V43.6709C50.7482 43.5077 50.1129 43.1853 49.5776 42.73C49.0424 42.2747 48.6223 41.6993 48.3516 41.0508H50.1816C50.5133 41.056 50.8294 41.1908 51.063 41.4263C51.2966 41.6617 51.4291 41.9791 51.4316 42.3108V42.3108Z" fill="black"/>
<path d="M37.6221 41.0508H50.1719C50.5043 41.0534 50.8225 41.1873 51.0566 41.4233C51.2908 41.6594 51.4219 41.9783 51.4219 42.3108V54.8608C51.4219 55.1924 51.2906 55.5102 51.0562 55.7446C50.8217 55.979 50.5034 56.1108 50.1719 56.1108H37.6221C37.2905 56.1108 36.9727 55.979 36.7383 55.7446C36.5039 55.5102 36.3721 55.1924 36.3721 54.8608V42.3108C36.3721 41.9783 36.5037 41.6594 36.7378 41.4233C36.9719 41.1873 37.2896 41.0534 37.6221 41.0508V41.0508Z" fill="url(#paint10_linear)"/>
<path d="M47.2119 45.8301H44.7021V52.6602H43.1021V45.8301H40.6221V44.5H47.2319L47.2119 45.8301Z" fill="white"/>
<path opacity="0.25" d="M62.9323 72.8806L79.0822 56.7207C80.3813 57.3208 81.8329 57.5081 83.2418 57.2578C84.6507 57.0075 85.9491 56.3314 86.962 55.3205C87.9309 54.3519 88.5942 53.1201 88.8698 51.7781C89.1453 50.436 89.0212 49.0426 88.5123 47.7705L83.3624 52.9206L79.442 48.9905L84.5924 43.8406C83.2899 43.3071 81.8567 43.1787 80.4801 43.4722C79.1035 43.7656 77.8469 44.4671 76.8751 45.4853C75.9033 46.5036 75.2613 47.7911 75.0324 49.1799C74.8034 50.5687 74.9988 51.9943 75.5924 53.2705L59.4523 69.3806C58.5285 69.0689 57.538 69.0099 56.5836 69.2095C55.6293 69.4091 54.7455 69.8601 54.024 70.5159C53.3026 71.1717 52.7696 72.0084 52.4801 72.9394C52.1906 73.8705 52.1552 74.8617 52.3776 75.811C52.5999 76.7603 53.0719 77.633 53.7448 78.3386C54.4176 79.0442 55.267 79.5571 56.2047 79.8242C57.1424 80.0913 58.1346 80.1029 59.0782 79.8579C60.0219 79.6129 60.8831 79.1202 61.5724 78.4307C62.3098 77.735 62.8301 76.8411 63.0714 75.8564C63.3127 74.8718 63.2645 73.8384 62.9323 72.8806V72.8806ZM56.422 75.9507C56.1052 75.5942 55.9368 75.13 55.9508 74.6533C55.9648 74.1766 56.1605 73.7232 56.4977 73.386C56.8349 73.0488 57.2881 72.8531 57.7648 72.8391C58.2415 72.8251 58.7057 72.9937 59.0621 73.3105C59.2526 73.4798 59.4065 73.6863 59.5143 73.9172C59.6221 74.1481 59.6816 74.3986 59.6891 74.6533C59.6966 74.908 59.6518 75.1616 59.5577 75.3984C59.4637 75.6353 59.3224 75.8506 59.1422 76.0308C58.962 76.211 58.7467 76.3522 58.5099 76.4463C58.273 76.5403 58.0195 76.5851 57.7648 76.5776C57.51 76.5701 57.2598 76.5106 57.0289 76.4028C56.798 76.295 56.5913 76.1412 56.422 75.9507V75.9507Z" fill="#1F1D20"/>
<path d="M62.9323 71.6101L79.0822 55.4502C80.3813 56.0502 81.8329 56.2376 83.2418 55.9873C84.6507 55.737 85.9491 55.0609 86.962 54.05C87.9309 53.0814 88.5942 51.8496 88.8698 50.5076C89.1453 49.1655 89.0212 47.7721 88.5123 46.5L83.3624 51.6501L79.442 47.7202L84.6222 42.6101C83.3197 42.0766 81.8865 41.9483 80.5099 42.2417C79.1333 42.5351 77.8772 43.2366 76.9054 44.2549C75.9336 45.2731 75.291 46.5607 75.0621 47.9495C74.8332 49.3383 75.0286 50.7638 75.6222 52.04L59.4923 68.1501C58.5685 67.8384 57.578 67.7794 56.6237 67.979C55.6693 68.1786 54.7856 68.6296 54.0641 69.2854C53.3426 69.9412 52.8096 70.778 52.5201 71.709C52.2306 72.64 52.1952 73.6313 52.4176 74.5806C52.64 75.5298 53.1119 76.4026 53.7848 77.1081C54.4577 77.8137 55.3071 78.3266 56.2448 78.5937C57.1824 78.8609 58.1746 78.8725 59.1183 78.6274C60.062 78.3824 60.9232 77.8898 61.6124 77.2002C62.3506 76.4967 62.8683 75.5935 63.1027 74.6011C63.337 73.6086 63.2778 72.5695 62.9323 71.6101V71.6101ZM56.422 74.6802C56.1052 74.3237 55.9368 73.8595 55.9508 73.3828C55.9648 72.9061 56.1605 72.4527 56.4977 72.1155C56.8349 71.7782 57.2881 71.5826 57.7648 71.5686C58.2415 71.5546 58.7057 71.7232 59.0621 72.04C59.409 72.3918 59.6036 72.8661 59.6036 73.3601C59.6036 73.8541 59.409 74.3284 59.0621 74.6802C58.7081 75.0205 58.2373 75.2121 57.7462 75.2158C57.2552 75.2195 56.7811 75.0351 56.422 74.7002V74.6802Z" fill="#243A5E"/>
<defs>
<linearGradient id="paint0_linear" x1="36.0346" y1="0.560956" x2="66.271" y2="101.853" gradientUnits="userSpaceOnUse">
<stop stop-color="#A9B1FF"/>
<stop offset="1" stop-color="#7B83EB"/>
</linearGradient>
<linearGradient id="paint1_linear" x1="51.0915" y1="4.16982" x2="51.0915" y2="97.8299" gradientUnits="userSpaceOnUse">
<stop stop-color="#5A62C3"/>
<stop offset="0.5" stop-color="#4D55BD"/>
<stop offset="1" stop-color="#3940AB"/>
</linearGradient>
<linearGradient id="paint2_linear" x1="56567.9" y1="33725.5" x2="56880.4" y2="33081" gradientUnits="userSpaceOnUse">
<stop stop-color="#5C63AD"/>
<stop offset="0.5" stop-color="#515AA8"/>
<stop offset="1" stop-color="#3F489E"/>
</linearGradient>
<linearGradient id="paint3_linear" x1="189557" y1="47558.1" x2="189557" y2="47511" gradientUnits="userSpaceOnUse">
<stop stop-color="#5C63AD"/>
<stop offset="0.5" stop-color="#515AA8"/>
<stop offset="1" stop-color="#3F489E"/>
</linearGradient>
<linearGradient id="paint4_linear" x1="51.1121" y1="69.6792" x2="51.1121" y2="30.5491" gradientUnits="userSpaceOnUse">
<stop stop-color="#D3E9F9"/>
<stop offset="1" stop-color="#F1F9F9"/>
</linearGradient>
<linearGradient id="paint5_linear" x1="51.0917" y1="24.7602" x2="51.0917" y2="31.2603" gradientUnits="userSpaceOnUse">
<stop stop-color="#0799BE"/>
<stop offset="1" stop-color="#016E97"/>
</linearGradient>
<linearGradient id="paint6_linear" x1="334206" y1="11108" x2="334206" y2="11094.9" gradientUnits="userSpaceOnUse">
<stop stop-color="#0799BE"/>
<stop offset="1" stop-color="#016E97"/>
</linearGradient>
<linearGradient id="paint7_linear" x1="51.1121" y1="69.6792" x2="51.1121" y2="30.5491" gradientUnits="userSpaceOnUse">
<stop stop-color="#D4DAEE"/>
<stop offset="1" stop-color="#F1F9F9"/>
</linearGradient>
<linearGradient id="paint8_linear" x1="334206" y1="20193.4" x2="334206" y2="20166.3" gradientUnits="userSpaceOnUse">
<stop stop-color="#5C63AD"/>
<stop offset="0.5" stop-color="#515AA8"/>
<stop offset="1" stop-color="#3F489E"/>
</linearGradient>
<linearGradient id="paint9_linear" x1="334206" y1="11110.1" x2="334206" y2="11099.1" gradientUnits="userSpaceOnUse">
<stop stop-color="#5C63AD"/>
<stop offset="0.5" stop-color="#515AA8"/>
<stop offset="1" stop-color="#3F489E"/>
</linearGradient>
<linearGradient id="paint10_linear" x1="78451.4" y1="46397.4" x2="78599.5" y2="46141.2" gradientUnits="userSpaceOnUse">
<stop stop-color="#5C63AD"/>
<stop offset="0.5" stop-color="#515AA8"/>
<stop offset="1" stop-color="#3F489E"/>
</linearGradient>
</defs>
</svg>
