<?xml version="1.0" encoding="UTF-8"?>
<svg width="100px" height="100px" viewBox="0 0 100 100" version="1.1" xmlns="http://www.w3.org/2000/svg" xmlns:xlink="http://www.w3.org/1999/xlink">
    <!-- Generator: Sketch 55.2 (78181) - https://sketchapp.com -->
    <title>Modern your enterprise deployment with Microsoft 365/introduction-to-modern-management</title>
    <desc>Created with Sketch.</desc>
    <defs>
        <rect id="path-1" x="0" y="0" width="96" height="96" rx="48"></rect>
        <filter x="-10.2%" y="-10.7%" width="120.3%" height="121.4%" filterUnits="objectBoundingBox" id="filter-3">
            <feOffset dx="0" dy="2" in="SourceAlpha" result="shadowOffsetOuter1"></feOffset>
            <feColorMatrix values="0 0 0 0 0   0 0 0 0 0   0 0 0 0 0  0 0 0 0.1 0" type="matrix" in="shadowOffsetOuter1" result="shadowMatrixOuter1"></feColorMatrix>
            <feMerge>
                <feMergeNode in="shadowMatrixOuter1"></feMergeNode>
                <feMergeNode in="SourceGraphic"></feMergeNode>
            </feMerge>
        </filter>
        <filter x="-4.2%" y="-4.5%" width="108.5%" height="108.9%" filterUnits="objectBoundingBox" id="filter-4">
            <feOffset dx="0" dy="1" in="SourceAlpha" result="shadowOffsetOuter1"></feOffset>
            <feColorMatrix values="0 0 0 0 0   0 0 0 0 0   0 0 0 0 0  0 0 0 0.102043705 0" type="matrix" in="shadowOffsetOuter1" result="shadowMatrixOuter1"></feColorMatrix>
            <feMerge>
                <feMergeNode in="shadowMatrixOuter1"></feMergeNode>
                <feMergeNode in="SourceGraphic"></feMergeNode>
            </feMerge>
        </filter>
        <path d="M0.243899535,11.0206134 C1.61951325,13.2845984 4.10991814,14.798058 6.95305711,14.798058 C9.79619608,14.798058 12.2867507,13.2845556 13.6622147,11.0206134 C13.6538579,10.9579334 13.629622,10.8969265 13.5869995,10.8442741 C12.7078066,9.74529364 11.3163822,9.09258476 9.44926851,9.09258476 L4.45660608,9.09258476 C2.58957797,9.09258476 1.19819638,9.74529364 0.31887505,10.8442741 C0.276252569,10.8969243 0.252016676,10.9579334 0.243659914,11.0206134 L0.243899535,11.0206134 Z" id="path-5"></path>
        <filter x="-3.7%" y="-8.8%" width="107.5%" height="117.5%" filterUnits="objectBoundingBox" id="filter-6">
            <feOffset dx="0" dy="-1" in="SourceAlpha" result="shadowOffsetInner1"></feOffset>
            <feComposite in="shadowOffsetInner1" in2="SourceAlpha" operator="arithmetic" k2="-1" k3="1" result="shadowInnerInner1"></feComposite>
            <feColorMatrix values="0 0 0 0 0   0 0 0 0 0   0 0 0 0 0  0 0 0 0.1 0" type="matrix" in="shadowInnerInner1"></feColorMatrix>
        </filter>
        <path d="M0.243899535,11.0206134 C1.61951325,13.2845984 4.10991814,14.798058 6.95305711,14.798058 C9.79619608,14.798058 12.2867507,13.2845556 13.6622147,11.0206134 C13.6538579,10.9579334 13.629622,10.8969265 13.5869995,10.8442741 C12.7078066,9.74529364 11.3163822,9.09258476 9.44926851,9.09258476 L4.45660608,9.09258476 C2.58957797,9.09258476 1.19819638,9.74529364 0.31887505,10.8442741 C0.276252569,10.8969243 0.252016676,10.9579334 0.243659914,11.0206134 L0.243899535,11.0206134 Z" id="path-7"></path>
        <filter x="-3.7%" y="-8.8%" width="107.5%" height="117.5%" filterUnits="objectBoundingBox" id="filter-8">
            <feOffset dx="0" dy="-1" in="SourceAlpha" result="shadowOffsetInner1"></feOffset>
            <feComposite in="shadowOffsetInner1" in2="SourceAlpha" operator="arithmetic" k2="-1" k3="1" result="shadowInnerInner1"></feComposite>
            <feColorMatrix values="0 0 0 0 0   0 0 0 0 0   0 0 0 0 0  0 0 0 0.1 0" type="matrix" in="shadowInnerInner1"></feColorMatrix>
        </filter>
        <path d="M0.372267711,16.8209362 C2.47188864,20.2764923 6.27303295,22.5865096 10.6125608,22.5865096 C14.9520888,22.5865096 18.7534616,20.2764269 20.852854,16.8209362 C20.8400989,16.7252667 20.8031073,16.6321509 20.7380519,16.5517869 C19.3961258,14.8743956 17.2723728,13.8781557 14.4225677,13.8781557 L6.80218823,13.8781557 C3.95251375,13.8781557 1.82882606,14.8743956 0.486704023,16.5517869 C0.421648658,16.6321476 0.384657032,16.7252667 0.371901974,16.8209362 L0.372267711,16.8209362 Z" id="path-9"></path>
        <filter x="-2.4%" y="-5.7%" width="104.9%" height="111.5%" filterUnits="objectBoundingBox" id="filter-10">
            <feOffset dx="0" dy="-1" in="SourceAlpha" result="shadowOffsetInner1"></feOffset>
            <feComposite in="shadowOffsetInner1" in2="SourceAlpha" operator="arithmetic" k2="-1" k3="1" result="shadowInnerInner1"></feComposite>
            <feColorMatrix values="0 0 0 0 0   0 0 0 0 0   0 0 0 0 0  0 0 0 0.1 0" type="matrix" in="shadowInnerInner1"></feColorMatrix>
        </filter>
        <path d="M9.40129527,43 L13.0153197,43 C14.4925833,43 15.7499783,41.924565 15.9790368,40.4651679 L17.6408869,29.8770468 L21.3684722,17.0511345 L28,17.0511345 C29.1045695,17.0511345 30,16.155704 30,15.0511345 L30,14 C30,12.8954305 29.1045695,12 28,12 L15,12 L11.0640756,17.0511345 L7.4855957,12 L3.98549749,12 C2.32864324,12 0.985497491,13.3431458 0.985497491,15 C0.985497491,15.0594575 0.987265086,15.1189018 0.990797934,15.1782542 L1.68768297,26.8860352 C1.7876751,28.5659191 3.17916604,29.8770468 4.86202321,29.8770468 L4.86202321,29.8770468 L6.43396369,40.4415239 C6.65271384,41.9116691 7.91496462,43 9.40129527,43 Z" id="path-11"></path>
        <filter x="-3.4%" y="-3.2%" width="106.9%" height="112.9%" filterUnits="objectBoundingBox" id="filter-12">
            <feOffset dx="0" dy="2" in="SourceAlpha" result="shadowOffsetOuter1"></feOffset>
            <feColorMatrix values="0 0 0 0 0   0 0 0 0 0   0 0 0 0 0  0 0 0 0.1 0" type="matrix" in="shadowOffsetOuter1"></feColorMatrix>
        </filter>
    </defs>
    <g id="Badges" stroke="none" stroke-width="1" fill="none" fill-rule="evenodd">
        <g id="Modern-your-enterprise-deployment-with-Microsoft-365-1" transform="translate(-50.000000, -260.000000)">
            <g id="Modern-your-enterprise-deployment-with-Microsoft-365/introduction-to-modern-management" transform="translate(50.000000, 260.000000)">
                <g id="Mask" transform="translate(2.000000, 2.000000)">
                    <mask id="mask-2" fill="white">
                        <use xlink:href="#path-1"></use>
                    </mask>
                    <use id="BG" fill="#55A2FF" xlink:href="#path-1"></use>
                    <g id="Projector" filter="url(#filter-3)" mask="url(#mask-2)">
                        <g transform="translate(22.000000, 19.000000)" id="Group-23">
                            <g filter="url(#filter-4)">
                                <path d="M37.7740229,52.6845261 L30.9728862,45.9749349 L30.9728862,43.1043086 C30.9728862,42.1042953 30.1509522,41.2943298 29.1382122,41.2943298 C28.1254721,41.2943298 27.3035381,42.1042953 27.3035381,43.1043086 L27.3035381,45.9749349 L20.5024015,52.6845261 C19.7859612,53.3913228 19.7859612,54.5370393 20.5024015,55.243836 C20.8610802,55.5976869 21.3298395,55.7741598 21.799516,55.7741598 C22.2691926,55.7741598 22.7379518,55.5976869 23.0966306,55.243836 L27.3035381,51.0935548 L27.3035381,53.0591917 C27.3035381,54.0582999 28.1254721,54.8691704 29.1382122,54.8691704 C30.1509522,54.8691704 30.9728862,54.0582999 30.9728862,53.0591917 L30.9728862,51.0935548 L35.1797938,55.243836 C35.5384726,55.5976869 36.0072318,55.7741598 36.4769083,55.7741598 C36.9465849,55.7741598 37.4153441,55.5976869 37.7740229,55.243836 C38.4904631,54.5370393 38.4904631,53.3913228 37.7740229,52.6845261" id="Fill-1016" fill="#546670"></path>
                                <path d="M56.1180383,9.11692997 L56.1180383,41.6330393 C56.1180383,42.6265871 55.3005495,43.4394898 54.3013966,43.4394898 L3.43543119,43.4394898 C2.4362783,43.4394898 1.61878956,42.6265871 1.61878956,41.6330393 L1.61878956,9.11692997 L56.1180383,9.11692997" id="Fill-1017" fill="#E1E4E1"></path>
                                <path d="M29.1921718,5.36289998 C28.1496713,5.36289998 27.303584,4.56204025 27.303584,3.57526665 L27.303584,1.78763333 C27.303584,0.799965914 28.1496713,-6.66133815e-15 29.1921718,-6.66133815e-15 C30.2346723,-6.66133815e-15 31.0807596,0.799965914 31.0807596,1.78763333 L31.0807596,3.57526665 C31.0807596,4.56204025 30.2346723,5.36289998 29.1921718,5.36289998" id="Fill-1018" fill="#546670"></path>
                                <path d="M58.2764243,8.2231133 C58.2764243,8.71471247 57.8666682,9.11692997 57.3658552,9.11692997 L0.91056913,9.11692997 C0.409756109,9.11692997 0,8.71471247 0,8.2231133 L0,4.64784665 C0,4.15624748 0.409756109,3.75402999 0.91056913,3.75402999 L57.3658552,3.75402999 C57.8666682,3.75402999 58.2764243,4.15624748 58.2764243,4.64784665 L58.2764243,8.2231133" id="Fill-1019" fill="#30404D"></path>
                                <polygon id="Fill-1020" fill="#C5CCCD" points="1.61878956 10.7258 56.1180383 10.7258 56.1180383 9.11692997 1.61878956 9.11692997"></polygon>
                                <path d="M21.9032012,53.8441057 C21.4626576,54.2808067 20.7082266,54.1686684 20.4301335,53.6143591 C20.3356002,53.4265503 20.2612584,53.2369182 20.2089439,53.0491094 C19.8078656,53.7456429 19.8996456,54.6454839 20.4980506,55.2399077 C20.8569101,55.5963797 21.3259055,55.7741598 21.7958187,55.7741598 C22.2657319,55.7741598 22.7347272,55.5963797 23.0935867,55.2399077 L29.1382122,49.3923088 L29.1382122,46.6572298 L21.9032012,53.8441057" id="Fill-1022" fill="#30404D"></path>
                                <path d="M36.3732232,53.8441057 C36.812849,54.2808067 37.5681977,54.1686684 37.8462909,53.6143591 C37.9408242,53.4265503 38.0151659,53.2369182 38.0674805,53.0491094 C38.4685587,53.7456429 38.3767788,54.6454839 37.7783737,55.2399077 C37.4195142,55.5963797 36.9505188,55.7741598 36.4806057,55.7741598 C36.0106925,55.7741598 35.5416971,55.5963797 35.1828376,55.2399077 L29.1382122,49.3923088 L29.1382122,46.6572298 L36.3732232,53.8441057" id="Fill-1023" fill="#30404D"></path>
                                <path d="M29.3704505,48.8023898 L29.3704505,53.2501524 C29.3704505,53.8890931 28.7059296,54.3248598 28.0731901,54.1161698 C27.8747969,54.0508967 27.6889236,53.9718336 27.5194226,53.880819 C27.7573018,54.7119016 28.58073,55.31223 29.54573,55.2304088 C30.5588837,55.1449103 31.2965983,54.2614254 31.2965983,53.2906033 L31.2965983,48.8023898 L29.3704505,48.8023898" id="Fill-1024" fill="#30404D"></path>
                                <path d="M27.5194226,43.4394898 L27.5194226,44.2848398 L28.3825072,44.2848398 C28.9490836,44.2848398 29.4080104,44.6956798 29.4080104,45.2028898 C29.4080104,45.7100998 29.8669373,46.1209398 30.4335136,46.1209398 L31.2965983,46.1209398 L31.2965983,43.4394898 L27.5194226,43.4394898" id="Fill-1025" fill="#30404D"></path>
                                <path d="M0.91056913,9.11692997 L57.3658552,9.11692997 C57.8666682,9.11692997 58.2764243,8.71471247 58.2764243,8.2231133 L58.2764243,4.64784665 C58.2764243,4.15624748 57.8666682,3.75402999 57.3658552,3.75402999 L29.1382122,3.75402999 L29.1382122,5.54166331 C29.1382122,6.03505011 28.7302772,6.43547998 28.227643,6.43547998 L0,6.43547998 L0,8.2231133 C0,8.71471247 0.409756109,9.11692997 0.91056913,9.11692997" id="Fill-1026" fill="#182A37"></path>
                                <path d="M29.1382122,1.9429216 L29.1382122,3.75402999 L30.7570017,3.75402999 L30.7570017,2.02669724 C30.7570017,1.9273756 30.7489078,1.83064497 30.7343387,1.73650533 C30.5748879,0.730334006 29.1382122,0.922931608 29.1382122,1.9429216" id="Fill-1027" fill="#30404D"></path>
                            </g>
                        </g>
                    </g>
                    <g id="Group-10" mask="url(#mask-2)">
                        <g transform="translate(30.000000, 34.000000)">
                            <g id="Group-6" transform="translate(26.083630, -0.000000)">
                                <circle id="Oval" fill="#E1E4E1" cx="8.21724918" cy="8.21724918" r="8.21724918"></circle>
                                <g id="User" transform="translate(1.264192, 0.632096)">
                                    <path d="M6.95305711,7.66592762 C8.92203087,7.66592762 10.5191223,6.06969197 10.5191223,4.10071821 C10.5191223,2.13091006 8.92205226,0.534653016 6.95305711,0.534653016 C4.98406196,0.534653016 3.38699191,2.13088867 3.38699191,4.10071821 C3.38699191,6.06969197 4.98406196,7.66592762 6.95305711,7.66592762 Z" id="Path" fill="#7CB65A"></path>
                                    <g id="Path">
                                        <use fill="#7CB65A" fill-rule="evenodd" xlink:href="#path-5"></use>
                                        <use fill="black" fill-opacity="1" filter="url(#filter-6)" xlink:href="#path-5"></use>
                                    </g>
                                </g>
                            </g>
                            <g id="Group-5">
                                <circle id="Oval" fill="#E1E4E1" cx="8.21724918" cy="8.21724918" r="8.21724918"></circle>
                                <g id="User" transform="translate(1.264192, 0.632096)">
                                    <path d="M6.95305711,7.66592762 C8.92203087,7.66592762 10.5191223,6.06969197 10.5191223,4.10071821 C10.5191223,2.13091006 8.92205226,0.534653016 6.95305711,0.534653016 C4.98406196,0.534653016 3.38699191,2.13088867 3.38699191,4.10071821 C3.38699191,6.06969197 4.98406196,7.66592762 6.95305711,7.66592762 Z" id="Path" fill="#DF5142"></path>
                                    <g id="Path">
                                        <use fill="#DF5142" fill-rule="evenodd" xlink:href="#path-7"></use>
                                        <use fill="black" fill-opacity="1" filter="url(#filter-8)" xlink:href="#path-7"></use>
                                    </g>
                                </g>
                            </g>
                            <g id="Group-2" transform="translate(8.217249, 0.000000)">
                                <g id="User" transform="translate(1.929556, 0.964778)">
                                    <path d="M10.6125608,11.7006264 C13.6178366,11.7006264 16.0555025,9.26426669 16.0555025,6.25899095 C16.0555025,3.25244167 13.6178692,0.816049341 10.6125608,0.816049341 C7.60725246,0.816049341 5.16961924,3.25240902 5.16961924,6.25899095 C5.16961924,9.26426669 7.60725246,11.7006264 10.6125608,11.7006264 Z" id="Path" fill="#F7CB64"></path>
                                    <g id="Path">
                                        <use fill="#F7CB64" fill-rule="evenodd" xlink:href="#path-9"></use>
                                        <use fill="black" fill-opacity="1" filter="url(#filter-10)" xlink:href="#path-9"></use>
                                    </g>
                                </g>
                            </g>
                        </g>
                    </g>
                    <g id="Person" mask="url(#mask-2)">
                        <g transform="translate(11.000000, 33.000000)">
                            <circle id="Oval" stroke="#55A2FF" stroke-width="1.5" fill="none" fill-rule="nonzero" cx="11" cy="6" r="6.75"></circle>
                            <path d="M4.16120255,30.5718961 C2.40634374,30.2735672 1.04088473,28.7983188 0.933015747,26.9647663 L0.242077938,15.2202339 C0.237763769,15.1469019 0.235605287,15.0734589 0.235605287,15 C0.235605287,12.9289322 1.91453748,11.25 3.98560529,11.25 L7.09876832,11.25 L10.9643527,15.8989768 L15.0734426,11.25 L28,11.25 C29.5187831,11.25 30.75,12.4812169 30.75,14 L30.75,15.0511345 C30.75,16.5699176 29.5187831,17.8011345 28,17.8011345 L21.6960835,17.8011345 L18.1883799,29.9920176 L16.5466878,40.5748535 C16.2632294,42.4021107 14.6901233,43.75 12.8410106,43.75 L9.33806705,43.75 C7.47774294,43.75 5.8986471,42.3861467 5.62797277,40.5456193 L4.16120255,30.5718961 Z" id="Path-13" stroke="#55A2FF" stroke-width="1.5" fill="none" fill-rule="nonzero"></path>
                            <g id="Path-13" stroke="none" fill="none" fill-rule="nonzero">
                                <use fill="black" fill-opacity="1" filter="url(#filter-12)" xlink:href="#path-11"></use>
                                <use fill="#30404D" xlink:href="#path-11"></use>
                            </g>
                            <path d="M7,40.3061956 L10.4401688,40.3061956 C10.9924535,40.3061956 11.4401688,39.8584803 11.4401688,39.3061956 L11.4401688,21.3156922 C11.4401688,20.3916897 11.7600646,19.496183 12.3455075,18.7813143 L15.6605302,14.7334284 C16.0403762,14.2696086 16.6082547,14.0006463 17.2077643,14.0006174 L30,14 C30,15.6524234 28.6604462,16.9919772 27.0080228,16.9919772 L21.2472129,16.9919772 L18.8816715,25.4064589 C18.1467901,28.0205102 17.5691452,30.6762327 17.1518401,33.3593599 L16.0473192,40.4610453 C15.8200477,41.9223216 14.5618023,43 13.082958,43 L10.2486477,43 C8.65891244,43 7.29429966,41.8684523 7,40.3061956 L7,40.3061956 Z" id="Path-14" stroke="none" fill="#182A37" fill-rule="nonzero"></path>
                            <path d="M17,6 C17,9.312 14.31,12 11,12 C7.684,12 5,9.312 5,6 C5,2.688 7.684,0 11,0 C14.31,0 17,2.688 17,6" id="Fill-305" stroke="none" fill="#30404D" fill-rule="evenodd"></path>
                            <path d="M15.0881335,4.07778178 C15.0881335,7.35758012 12.4045903,10.0194454 9.10253516,10.0194454 C7.96128107,10.0194454 6.90781575,9.68671228 6,9.13611811 C7.05147012,10.8473172 8.93094801,12 11.0977346,12 C14.3997897,12 17.083333,9.33813468 17.083333,6.05833633 C17.083333,3.90943464 15.9201317,2.04375225 14.1982746,1 C14.7509448,1.89917177 15.0881335,2.94688513 15.0881335,4.07778178 Z" id="Fill-306" stroke="none" fill="#182A37" fill-rule="evenodd"></path>
                        </g>
                    </g>
                </g>
                <g id="Azure-Border" stroke="#0078D4" stroke-width="4">
                    <rect x="2" y="2" width="96" height="96" rx="48"></rect>
                </g>
            </g>
        </g>
    </g>
</svg>