<svg width="100" height="100" viewBox="0 0 100 100" fill="none" xmlns="http://www.w3.org/2000/svg">
<g clip-path="url(#clip0)">
<path d="M49.6401 96.4481C40.382 96.4481 31.3317 93.7028 23.6339 88.5592C15.936 83.4157 9.93624 76.105 6.3933 67.5516C2.85036 58.9981 1.92337 49.5862 3.72954 40.506C5.53571 31.4257 9.99394 23.085 16.5404 16.5385C23.0869 9.99198 31.4277 5.53376 40.5079 3.72759C49.5882 1.92141 59.0001 2.84841 67.5535 6.39135C76.1069 9.93428 83.4176 15.934 88.5612 23.6319C93.7047 31.3298 96.4501 40.38 96.4501 49.6381C96.4505 55.7854 95.24 61.8726 92.8878 67.5521C90.5355 73.2315 87.0875 78.392 82.7407 82.7388C78.3939 87.0856 73.2335 90.5335 67.554 92.8858C61.8746 95.2381 55.7874 96.4486 49.6401 96.4481V96.4481Z" fill="url(#paint0_linear)"/>
<path fill-rule="evenodd" clip-rule="evenodd" d="M95.54 49.64C95.54 58.7182 92.848 67.5925 87.8045 75.1407C82.7609 82.6889 75.5923 88.572 67.2052 92.0461C58.818 95.5201 49.5891 96.4291 40.6854 94.658C31.7816 92.887 23.603 88.5154 17.1838 82.0962C10.7646 75.677 6.39302 67.4984 4.62196 58.5946C2.85089 49.6909 3.75987 40.462 7.23393 32.0748C10.708 23.6877 16.5911 16.5191 24.1393 11.4755C31.6875 6.43199 40.5618 3.74 49.64 3.74C55.6677 3.73998 61.6363 4.9272 67.2052 7.23388C72.774 9.54057 77.834 12.9215 82.0963 17.1837C86.3585 21.446 89.7394 26.5059 92.0461 32.0748C94.3528 37.6437 95.54 43.6123 95.54 49.64V49.64ZM49.64 3.62732e-07C59.4579 3.62732e-07 69.0553 2.91134 77.2185 8.36585C85.3818 13.8204 91.7442 21.5731 95.5014 30.6436C99.2585 39.7141 100.242 49.6951 98.3262 59.3243C96.4108 68.9535 91.6831 77.7985 84.7408 84.7408C77.7985 91.6831 68.9535 96.4108 59.3243 98.3262C49.6951 100.242 39.7141 99.2585 30.6436 95.5014C21.5731 91.7442 13.8204 85.3818 8.36585 77.2185C2.91134 69.0553 3.62732e-07 59.4579 3.62732e-07 49.64C-0.000787738 43.121 1.28265 36.6656 3.77702 30.6427C6.27138 24.6197 9.9278 19.1471 14.5375 14.5375C19.1471 9.9278 24.6197 6.27138 30.6427 3.77702C36.6656 1.28265 43.121 -0.000787738 49.64 3.62732e-07V3.62732e-07Z" fill="#F2F1F0"/>
<path fill-rule="evenodd" clip-rule="evenodd" d="M92.7296 49.6386C92.7296 58.161 90.2024 66.492 85.4676 73.5781C80.7328 80.6643 74.0031 86.1872 66.1294 89.4486C58.2557 92.71 49.5918 93.5633 41.2331 91.9007C32.8745 90.238 25.1966 86.1341 19.1703 80.1079C13.1441 74.0816 9.04017 66.4037 7.37753 58.0451C5.7149 49.6864 6.56822 41.0225 9.8296 33.1488C13.091 25.2751 18.6139 18.5454 25.7 13.8106C32.7862 9.07581 41.1172 6.54862 49.6396 6.54862C55.2983 6.54828 60.9017 7.6626 66.1298 9.82795C71.3579 11.9933 76.1082 15.1673 80.1096 19.1686C84.1109 23.17 87.2849 27.9203 89.4502 33.1484C91.6156 38.3765 92.7299 43.9799 92.7296 49.6386V49.6386ZM49.6396 2.80862C58.9017 2.80862 67.9558 5.55515 75.6569 10.7009C83.3581 15.8466 89.3604 23.1605 92.9049 31.7176C96.4493 40.2746 97.3767 49.6906 95.5697 58.7747C93.7628 67.8588 89.3027 76.2031 82.7534 82.7524C76.2041 89.3017 67.8598 93.7619 58.7757 95.5688C49.6915 97.3757 40.2756 96.4484 31.7185 92.9039C23.1614 89.3594 15.8476 83.3571 10.7018 75.656C5.5561 67.9548 2.80957 58.9007 2.80957 49.6386C2.81076 37.2189 7.745 25.3082 16.5271 16.5261C25.3091 7.74403 37.2198 2.80979 49.6396 2.80859V2.80862Z" fill="#0078D4"/>
<path d="M47.7545 35.1069C47.765 35.0335 47.786 34.9601 47.7964 34.8971C47.9932 33.8591 47.9589 32.7905 47.6961 31.7672C47.4332 30.7439 46.9483 29.791 46.2757 28.9763C45.6031 28.1615 44.7593 27.5049 43.8043 27.053C42.8493 26.6011 41.8065 26.3651 40.75 26.3616C40.2096 26.3598 39.6709 26.4232 39.1456 26.5504C38.0747 24.8612 36.4842 23.5655 34.6134 22.8582C32.7425 22.151 30.6926 22.0704 28.7721 22.6286C26.8515 23.1868 25.1641 24.3536 23.9639 25.9534C22.7636 27.5533 22.1153 29.4997 22.1166 31.4997C22.1166 31.6256 22.1166 31.7514 22.1271 31.8772C21.6474 31.7157 21.1443 31.6343 20.6381 31.636C19.4729 31.6362 18.3524 32.0843 17.5083 32.8875C16.6642 33.6907 16.1612 34.7877 16.1033 35.9514C16.0454 37.1152 16.437 38.2567 17.1971 39.1398C17.9573 40.0228 19.0278 40.5799 20.1872 40.6958L40.7395 40.7378C42.0187 40.7362 43.2746 40.3946 44.3783 39.7478C45.482 39.1011 46.3939 38.1725 47.0205 37.0572C47.052 36.9943 47.0939 36.9314 47.1254 36.8684C47.403 36.3078 47.6142 35.7166 47.7545 35.1069V35.1069Z" fill="white"/>
<path d="M30.0568 66.0508V71.1553C30.0466 71.3814 30.0837 71.6072 30.1656 71.8183C30.2475 72.0293 30.3725 72.221 30.5325 72.3811C30.6926 72.5411 30.8843 72.6661 31.0953 72.748C31.3064 72.8299 31.5322 72.867 31.7583 72.8568H69.1911V66.0508L30.0568 66.0508Z" fill="#1F56A3"/>
<path d="M31.7583 66.9023V70.3053C31.7643 70.7483 31.9404 71.1719 32.2501 71.4886C32.5597 71.8053 32.9793 71.9909 33.422 72.0068H69.1911V66.9023H31.7583Z" fill="white"/>
<path opacity="0.2" d="M31.7583 66.9023V67.7531H69.1911V66.9023H31.7583Z" fill="#4F4D52"/>
<path opacity="0.2" d="M47.0718 66.9023L52.1763 72.0068H47.0718V66.9023Z" fill="#4F4D52"/>
<path d="M47.9225 75.4098L44.5195 73.7083L41.9673 75.4098V66.9023H47.9225L47.9225 75.4098Z" fill="#50E6FF"/>
<path d="M69.1909 66.0528H30.0566V27.7679C30.0566 27.3166 30.2359 26.8838 30.555 26.5648C30.8741 26.2457 31.3069 26.0664 31.7581 26.0664H67.4894C67.7128 26.0664 67.9341 26.1104 68.1405 26.1959C68.347 26.2814 68.5345 26.4068 68.6925 26.5648C68.8505 26.7228 68.9759 26.9103 69.0614 27.1168C69.1469 27.3232 69.1909 27.5445 69.1909 27.7679V66.0528Z" fill="#0078D4"/>
<path fill-rule="evenodd" clip-rule="evenodd" d="M49.6237 62.6484C49.6238 62.8718 49.5798 63.0931 49.4944 63.2996C49.4089 63.506 49.2835 63.6936 49.1255 63.8516C48.9675 64.0096 48.7799 64.135 48.5735 64.2205C48.367 64.3059 48.1457 64.3499 47.9223 64.3498H30.0566V66.0513H69.1909V28.6172H51.3252C51.1018 28.6171 50.8804 28.661 50.674 28.7464C50.4675 28.8319 50.2798 28.9572 50.1218 29.1153C49.9638 29.2733 49.8385 29.4609 49.753 29.6674C49.6675 29.8739 49.6236 30.0952 49.6237 30.3187V62.6484Z" fill="#53B1E0" fill-opacity="0.12687"/>
<path d="M49.6239 55.6149C54.9023 55.6149 59.1813 51.3359 59.1813 46.0575C59.1813 40.779 54.9023 36.5 49.6239 36.5C44.3454 36.5 40.0664 40.779 40.0664 46.0575C40.0664 51.3359 44.3454 55.6149 49.6239 55.6149Z" fill="white"/>
<path d="M49.6237 43.1497C50.5797 43.1497 51.3548 42.3747 51.3548 41.4186C51.3548 40.4625 50.5797 39.6875 49.6237 39.6875C48.6676 39.6875 47.8926 40.4625 47.8926 41.4186C47.8926 42.3747 48.6676 43.1497 49.6237 43.1497Z" fill="#0078D4"/>
<path d="M50.9379 53.2104V44.8477H48.3227L48.3096 53.2104H50.9379Z" fill="#0078D4"/>
<path opacity="0.2" d="M69.1912 41.0391C66.9137 41.4534 64.8193 42.5595 63.1931 44.2069C61.5669 45.8543 60.4879 47.9628 60.1031 50.2454C58.4592 50.3383 56.9109 51.0477 55.7672 52.232C54.6234 53.4163 53.9683 54.9884 53.9327 56.6345C53.8971 58.2805 54.4835 59.8795 55.575 61.1121C56.6664 62.3448 58.1826 63.1205 59.8208 63.2845L59.9185 63.2947L69.1912 63.3136L69.1912 41.0391Z" fill="#003067"/>
<path d="M87.5884 55.7045C87.5989 55.6311 87.6198 55.5577 87.6303 55.4948C87.8271 54.4568 87.7928 53.3881 87.53 52.3648C87.2671 51.3415 86.7822 50.3887 86.1096 49.5739C85.4369 48.7592 84.5932 48.1025 83.6382 47.6507C82.6832 47.1988 81.6404 46.9627 80.5839 46.9593C80.0434 46.9575 79.5048 47.0208 78.9795 47.148C77.9086 45.4589 76.3181 44.1632 74.4472 43.4559C72.5764 42.7486 70.5265 42.668 68.6059 43.2262C66.6854 43.7844 64.998 44.9512 63.7977 46.5511C62.5975 48.1509 61.9492 50.0973 61.9505 52.0974C61.9505 52.2232 61.9505 52.3491 61.961 52.4749C61.4812 52.3134 60.9782 52.2319 60.472 52.2337C59.3068 52.2339 58.1863 52.682 57.3423 53.4852C56.4982 54.2884 55.9952 55.3854 55.9373 56.5491C55.8793 57.7128 56.271 58.8543 57.0311 59.7374C57.7912 60.6205 58.8617 61.1776 60.0211 61.2935L80.5734 61.3354C81.8526 61.3339 83.1085 60.9922 84.2122 60.3455C85.3159 59.6987 86.2278 58.7701 86.8544 57.6549C86.8858 57.5919 86.9278 57.529 86.9592 57.4661C87.2369 56.9054 87.448 56.3142 87.5884 55.7045Z" fill="white"/>
</g>
<defs>
<linearGradient id="paint0_linear" x1="47.8697" y1="-15.155" x2="51.8525" y2="130.613" gradientUnits="userSpaceOnUse">
<stop stop-color="#00ABDE"/>
<stop offset="1" stop-color="#007ED8"/>
</linearGradient>
<clipPath id="clip0">
<rect width="99.2799" height="99.28" fill="white"/>
</clipPath>
</defs>
</svg>
