<?xml version="1.0" encoding="UTF-8"?>
<svg width="100px" height="100px" viewBox="0 0 100 100" version="1.1" xmlns="http://www.w3.org/2000/svg" xmlns:xlink="http://www.w3.org/1999/xlink">
    <!-- Generator: Sketch 58 (84663) - https://sketch.com -->
    <title>Drive adoption of Microsoft cloud services to enable business outcomes/introduction-to-the-microsoft-service-adoption-framework</title>
    <desc>Created with Sketch.</desc>
    <defs>
        <rect id="path-1" x="0" y="0" width="96" height="96" rx="48"></rect>
        <filter x="-5.3%" y="-8.5%" width="110.7%" height="117.0%" filterUnits="objectBoundingBox" id="filter-3">
            <feOffset dx="0" dy="2" in="SourceAlpha" result="shadowOffsetOuter1"></feOffset>
            <feColorMatrix values="0 0 0 0 0   0 0 0 0 0   0 0 0 0 0  0 0 0 0.0964956975 0" type="matrix" in="shadowOffsetOuter1" result="shadowMatrixOuter1"></feColorMatrix>
            <feMerge>
                <feMergeNode in="shadowMatrixOuter1"></feMergeNode>
                <feMergeNode in="SourceGraphic"></feMergeNode>
            </feMerge>
        </filter>
        <path d="M0.426723589,20.5605089 L15.0034687,0.911485647 C15.8494558,-0.303828549 17.6445375,-0.303828549 18.4884646,0.911485647 L33.0682205,20.5605089 C34.2814218,22.1451502 32.8556673,24.3632359 30.901699,23.9938983 L23.2964774,22.4629236 L23.2964774,48.3992751 C23.2964774,49.4020361 22.5041568,50.1943567 21.5013958,50.1943567 L11.9935483,50.1943567 C10.9907873,50.1943567 10.1984667,49.4020361 10.1984667,48.3992751 L10.1984667,22.4629236 L2.59324511,23.9938983 C0.637185075,24.3632254 -0.734924091,22.1451502 0.426723589,20.5605089 Z" id="path-4"></path>
        <filter x="-1.5%" y="-1.0%" width="103.0%" height="104.0%" filterUnits="objectBoundingBox" id="filter-5">
            <feOffset dx="0" dy="1" in="SourceAlpha" result="shadowOffsetOuter1"></feOffset>
            <feColorMatrix values="0 0 0 0 0   0 0 0 0 0   0 0 0 0 0  0 0 0 0.102072011 0" type="matrix" in="shadowOffsetOuter1"></feColorMatrix>
        </filter>
    </defs>
    <g id="Badges" stroke="none" stroke-width="1" fill="none" fill-rule="evenodd">
        <g id="Drive-adoption-of-Microsoft-cloud-services-to-enable-business-outcomes" transform="translate(-50.000000, -260.000000)">
            <g id="Drive-adoption-of-Microsoft-cloud-services-to-enable-business-outcomes/introduction-to-the-microsoft-service-adoption-framework" transform="translate(50.000000, 260.000000)">
                <g id="Mask" transform="translate(2.000000, 2.000000)">
                    <mask id="mask-2" fill="white">
                        <use xlink:href="#path-1"></use>
                    </mask>
                    <use id="BG" fill="#55A2FF" xlink:href="#path-1"></use>
                    <g id="Group-3" mask="url(#mask-2)">
                        <g transform="translate(10.526316, 12.000000)">
                            <g id="One-Cloud" filter="url(#filter-3)">
                                <path d="M16.3947368,14.0526316 C16.5130132,14.0526316 16.6277763,14.0678553 16.7448816,14.0701974 C18.3656184,6.04380263 25.4563421,0 33.9605263,0 C41.563,0 48.0178421,4.83761842 50.463,11.5957632 C51.8495263,10.9259211 53.3976579,10.5394737 55.0394737,10.5394737 C60.8607763,10.5394737 65.5789474,15.2576447 65.5789474,21.0789474 C65.5789474,21.2452368 65.5613816,21.4056711 65.5543553,21.5696184 C70.9716447,23.0931579 74.9473684,28.05725 74.9473684,33.9605263 C74.9473684,41.0746711 69.1799342,46.8421053 62.0657895,46.8421053 L16.3947368,46.8421053 C7.34015789,46.8421053 0,39.5019474 0,30.4473684 C0,21.3927895 7.34015789,14.0526316 16.3947368,14.0526316" id="Fill-11" fill="#FFFFFF"></path>
                                <path d="M62.9546184,21.1234474 C63.8504737,21.1855132 64.7182237,21.3354079 65.5543553,21.5696184 C65.5613816,21.4056711 65.5789474,21.2452368 65.5789474,21.0789474 C65.5789474,17.5704737 63.8575,14.4706974 61.2214605,12.5548553 C62.4838553,14.2926974 63.2368421,16.4240132 63.2368421,18.7368421 C63.2368421,19.5589211 63.1326184,20.3552368 62.9546184,21.1234474" id="Fill-12" fill="#C4CBCD"></path>
                                <path d="M61.6582632,46.8421053 C69.5625282,46.8421053 74.6909079,41.4271579 74.9391711,34.4289474 C75.1042895,29.7822105 72.8055132,25.6601053 69.2466842,23.2664737 C71.0184868,25.899 71.8440789,29.2189342 71.2351316,32.7438026 C70.3837763,37.6704211 66.6036184,41.7222632 61.7519474,42.9307895 C59.0409605,43.6064868 56.4459079,43.3851579 54.1471316,42.5466842 C55.4388026,40.7983026 56.2105263,38.6435658 56.2105263,36.3026316 C56.2105263,32.7941579 54.4890789,29.6943816 51.8530395,27.7785395 C53.4421579,29.9660658 54.2244211,32.7777632 53.7126711,35.7873684 C52.97725,40.1179211 49.4886842,43.6076579 45.1593026,44.34425 C44.2599342,44.4964868 43.3781316,44.5339605 42.5256053,44.4695526 C39.1845921,44.2142632 36.4291053,41.7609079 35.4992895,38.5416842 C35.2814737,37.7851842 35.1315789,37.0099474 35.1315789,36.3026316 C35.1315789,35.8775395 35.1620263,35.4606447 35.2135526,35.0496053 C35.4196579,33.3094211 36.0461711,31.6992237 36.9947237,30.3255789 C35.6480132,30.8666053 34.2251842,31.2577368 32.7391184,31.4521316 C32.7590263,31.1183816 32.7894737,30.7869737 32.7894737,30.4473684 C32.7894737,25.0230526 30.1440658,20.2287632 26.0851974,17.24375 C28.5408947,20.5859342 29.7833816,24.8755 29.0819211,29.4800789 C28.0197763,36.4548684 22.4022368,42.0724079 15.4274474,43.1345526 C10.8228684,43.8360132 6.53330263,42.5935263 3.19111842,40.1378289 C6.17613158,44.1966974 10.9704211,46.8421053 16.3947368,46.8421053 L45.6710526,46.8421053 L61.6582632,46.8421053 Z" id="Fill-13" fill="#E6E6E6"></path>
                                <path d="M45.6710526,25.7631579 C46.8912895,25.7631579 48.0588289,25.9809737 49.1490789,26.3627368 C50.6515395,23.7735395 51.5263158,20.7744737 51.5263158,17.5657895 C51.5263158,11.8182632 48.7532632,6.73121053 44.4859474,3.52721053 C46.6910395,6.46186842 48.0131579,10.0991579 48.0131579,14.0526316 C48.0131579,18.7040526 46.1921711,22.9186711 43.2387763,26.0559211 C44.0210395,25.8708947 44.8325789,25.7631579 45.6710526,25.7631579" id="Fill-14" fill="#E6E6E6"></path>
                            </g>
                            <g id="Group" transform="translate(20.298246, 38.059211)">
                                <g id="Fill-1-Copy">
                                    <use fill="black" fill-opacity="1" filter="url(#filter-5)" xlink:href="#path-4"></use>
                                    <use fill="#EEC360" fill-rule="evenodd" xlink:href="#path-4"></use>
                                </g>
                                <path d="M16.5568449,0.00840153624 C17.2778749,-0.0555390293 18.0259894,0.245489008 18.4884646,0.911485647 L33.0682205,20.5605089 C34.2814218,22.1451502 32.8556673,24.3632359 30.901699,23.9938983 L23.2964774,22.4629236 L23.2964774,47.2980176 L22.2360516,47.2980176 C19.0992364,47.2980176 16.5568449,45.4695205 16.5568449,43.2135118 L16.5568449,0.00840153624 Z" id="Combined-Shape" fill="#DBB357"></path>
                            </g>
                        </g>
                    </g>
                    <g id="Group-2" mask="url(#mask-2)">
                        <g transform="translate(33.000000, 23.000000)">
                            <path d="M15,30.4210526 C23.270625,30.4210526 30,23.6916776 30,15.4210526 C30,7.14995888 23.270625,0.421052632 15,0.421052632 C6.72890625,0.421052632 0,7.14995888 0,15.4210526 C0,23.6916776 6.72890625,30.4210526 15,30.4210526" id="Fill-115" fill="#FFFFFF" fill-rule="evenodd"></path>
                            <text id="123" fill="none" opacity="0.800000012" font-family="SegoeUI-Bold, Segoe UI" font-size="15" font-weight="bold">
                                <tspan x="2.08442126" y="21" fill="#000000">123</tspan>
                            </text>
                        </g>
                    </g>
                </g>
                <g id="Azure-Border" stroke="#0078D4" stroke-width="4">
                    <rect x="2" y="2" width="96" height="96" rx="48"></rect>
                </g>
            </g>
        </g>
    </g>
</svg>