<?xml version="1.0" encoding="UTF-8"?>
<svg width="100px" height="100px" viewBox="0 0 100 100" version="1.1" xmlns="http://www.w3.org/2000/svg" xmlns:xlink="http://www.w3.org/1999/xlink">
    <!-- Generator: Sketch 53.2 (72643) - https://sketchapp.com -->
    <title>M365 Fundamentals/introduction-to-simplified-management-in-microsoft-365</title>
    <desc>Created with Sketch.</desc>
    <defs>
        <rect id="path-1" x="0" y="0" width="96" height="96" rx="48"></rect>
        <path d="M24.5581395,8.97560976 C24.5581395,13.9301463 20.7212403,17.9512195 16,17.9512195 C11.2702016,17.9512195 7.44186047,13.9301463 7.44186047,8.97560976 C7.44186047,4.02107317 11.2702016,0 16,0 C20.7212403,0 24.5581395,4.02107317 24.5581395,8.97560976" id="path-3"></path>
        <filter x="-5.8%" y="-5.6%" width="111.7%" height="122.3%" filterUnits="objectBoundingBox" id="filter-4">
            <feOffset dx="0" dy="2" in="SourceAlpha" result="shadowOffsetOuter1"></feOffset>
            <feColorMatrix values="0 0 0 0 0   0 0 0 0 0   0 0 0 0 0  0 0 0 0.1 0" type="matrix" in="shadowOffsetOuter1"></feColorMatrix>
        </filter>
        <path d="M32,32 C29.6582603,25.1892683 23.3805858,20.2926829 16.0014158,20.2926829 C8.61941421,20.2926829 2.34457128,25.1892683 0,32 L32,32" id="path-5"></path>
        <filter x="-3.1%" y="-8.5%" width="106.3%" height="134.2%" filterUnits="objectBoundingBox" id="filter-6">
            <feOffset dx="0" dy="2" in="SourceAlpha" result="shadowOffsetOuter1"></feOffset>
            <feColorMatrix values="0 0 0 0 0   0 0 0 0 0   0 0 0 0 0  0 0 0 0.1 0" type="matrix" in="shadowOffsetOuter1"></feColorMatrix>
        </filter>
    </defs>
    <g id="Badges" stroke="none" stroke-width="1" fill="none" fill-rule="evenodd">
        <g id="M365-Fundamentals-1" transform="translate(-50.000000, -660.000000)">
            <g id="M365-Fundamentals/introduction-to-simplified-management-in-microsoft-365" transform="translate(50.000000, 660.000000)">
                <g id="Mask" transform="translate(2.000000, 2.000000)">
                    <mask id="mask-2" fill="white">
                        <use xlink:href="#path-1"></use>
                    </mask>
                    <use id="BG" fill="#55A2FF" xlink:href="#path-1"></use>
                    <g id="Person" mask="url(#mask-2)">
                        <g transform="translate(32.000000, 34.666368)">
                            <path d="M16.372093,26.5365854 C14.7259535,26.5365854 13.3953488,24.9299512 13.3953488,22.9433496 L13.3953488,12.1726179 C13.3953488,10.192 14.7259535,8.58536585 16.372093,8.58536585 C18.0152558,8.58536585 19.3488372,10.192 19.3488372,12.1726179 L19.3488372,22.9433496 C19.3488372,24.9299512 18.0152558,26.5365854 16.372093,26.5365854" id="Fill-304" fill="#30404D" fill-rule="evenodd"></path>
                            <g id="Fill-305" fill="none">
                                <use fill="black" fill-opacity="1" filter="url(#filter-4)" xlink:href="#path-3"></use>
                                <use fill="#546670" fill-rule="evenodd" xlink:href="#path-3"></use>
                            </g>
                            <path d="M20.4901011,1.56097561 C21.2693865,2.90076148 21.7448349,4.46187762 21.7448349,6.1469387 C21.7448349,11.033911 17.9609403,15.0001493 13.3049212,15.0001493 C11.695711,15.0001493 10.2102861,14.5043695 8.93023256,13.683972 C10.4128441,16.2336967 13.062977,17.9512195 16.1182258,17.9512195 C20.7742449,17.9512195 24.5581395,13.9849812 24.5581395,9.09800891 C24.5581395,5.89609774 22.917983,3.11618961 20.4901011,1.56097561" id="Fill-306" fill="#30404D" fill-rule="evenodd"></path>
                            <g id="Fill-307" fill="none">
                                <use fill="black" fill-opacity="1" filter="url(#filter-6)" xlink:href="#path-5"></use>
                                <use fill="#546670" fill-rule="evenodd" xlink:href="#path-5"></use>
                            </g>
                            <path d="M17.1384587,20.2926829 L10.4186047,32 L32,32 C29.7826174,25.4798796 24.0134732,20.7527186 17.1384587,20.2926829" id="Fill-321" fill="#30404D" fill-rule="evenodd"></path>
                        </g>
                    </g>
                    <g id="Gear" mask="url(#mask-2)">
                        <g transform="translate(5.000000, 13.000000)">
                            <g id="Gear-Shape" stroke="none" stroke-width="1" fill-rule="evenodd">
                                <path d="M67.2064289,43.0608768 L64.0519888,35.2905358 L67.1588849,31.4611778 C68.512855,29.7919704 68.3619545,27.36516 66.8136742,25.875793 L64.1491439,23.3146191 C62.6484076,21.8707289 60.3084167,21.7694396 58.6888204,23.0758656 L54.8553282,26.1682918 L47.0891214,22.7616619 L46.6653598,17.8542957 C46.4793181,15.7158498 44.6912508,14.0755823 42.5466036,14.0755823 L40.3360141,14.0755823 L40.3360141,27.7496462 C51.7527722,27.7496462 61.3461158,37.0041864 61.3461158,48.4209445 C61.3461158,59.8377025 51.7527722,69.0922428 40.3360141,69.0922428 L40.3360141,72.6642431 L53.9902343,72.6642431 L59.0371318,76.4067817 C60.6908357,77.6346568 62.9977526,77.4568837 64.4437099,75.9892215 L66.9800782,73.4146113 C68.4487739,71.9252442 68.5728017,69.5749176 67.2715435,67.9377508 L64.0519888,63.8934113 L67.2064289,56.0279823 L72.3732199,55.5752808 C74.508565,55.387172 76.1457319,53.6001383 76.1457319,51.4554911 L76.1457319,47.7460266 C76.1457319,45.6365206 74.5581761,43.8649903 72.4610729,43.6355389 L67.2064289,43.0608768 Z" id="Fill-3" fill="#30404D" transform="translate(58.240873, 45.648359) rotate(-315.000000) translate(-58.240873, -45.648359) "></path>
                                <path d="M32.926078,42.2563768 C31.24767,45.1495715 30.2867212,48.5106975 30.2867212,52.0962651 C30.2867212,57.845353 32.7572068,63.0174281 36.6944787,66.6087911 L36.5097554,66.790577 C36.4569622,66.737533 25.1165848,78.1536518 25.150555,78.190156 L23.8441319,76.9461542 C22.7522692,75.8105248 22.356032,73.373959 23.7244719,71.7553964 L26.7891321,67.7828243 L23.435214,60.055893 L18.5123443,59.5680504 C16.3976704,59.3572031 14.7873763,57.5794715 14.7873763,55.4534284 L14.7873763,51.3243366 C14.7873763,49.221032 16.3666635,47.4526024 18.4565318,47.215916 L23.435214,46.6526232 L26.7891321,38.8822821 L23.618155,35.0394878 C22.2476479,33.3806161 22.2778371,30.8434301 23.8219831,29.3426938 C27.1920225,34.1226694 30.2267208,38.4272304 32.926078,42.2563768 Z" id="Combined-Shape" fill="#546670" transform="translate(25.712731, 53.766425) rotate(-45.000000) translate(-25.712731, -53.766425) "></path>
                                <path d="M42.7064889,55.0165571 C31.2897308,55.0165571 22.0351906,45.7620169 22.0351906,34.3452588 C22.0351906,22.9285007 31.2897308,13.6739605 42.7064889,13.6739605 C54.123247,13.6739605 63.3777872,22.9285007 63.3777872,34.3452588 C63.3777872,45.7620169 54.123247,55.0165571 42.7064889,55.0165571 M69.2381003,28.9851911 L66.0836602,21.2148501 L69.1905563,17.3854921 C70.5445263,15.7173183 70.3936259,13.2894743 68.8453456,11.8001073 L66.1808153,9.23893343 C64.680079,7.79504324 62.340088,7.69375388 60.7204918,9.0012135 L56.8869995,12.0926062 L49.1207928,8.6859762 L48.6970311,3.77860998 C48.5109895,1.64016416 46.7229222,0.000930208424 44.578275,0.000930208424 L40.9070524,0.000930208424 C38.7903114,0.000930208424 37.0146469,1.59882157 36.7944976,3.7041933 L36.2746144,8.6859762 L28.3171981,12.0926062 L24.4258262,8.98674359 C22.7958944,7.68755249 20.456937,7.80227819 18.9634356,9.25547046 L16.3722884,11.7773689 C14.8281424,13.2781051 14.6958461,15.7131841 16.0663532,17.3720557 L19.2373304,21.2148501 L15.8834122,28.9851911 L10.90473,29.548484 C8.81486174,29.7851704 7.23557455,31.5536 7.23557455,33.6569046 L7.23557455,37.7859964 C7.23557455,39.9120394 8.84586869,41.6897711 10.9605425,41.9006183 L15.8834122,42.388461 L19.2373304,50.1153923 L16.0508497,53.8806693 C14.6824098,55.4992319 14.7588936,57.8898676 16.2286229,59.4185101 L18.8848847,62.1801955 C20.3980238,63.7512142 22.8723782,63.8773091 24.5364177,62.4675266 L29.1171774,58.5885575 L56.0219057,58.5885575 L61.0688032,62.331096 C62.7225071,63.5589711 65.0294239,63.381198 66.4753813,61.9135358 L69.0117496,59.3389256 C70.4804453,57.8495585 70.6044731,55.4992319 69.3021813,53.8620651 L66.0836602,49.8177256 L69.2381003,41.9522966 L74.4048913,41.4995951 C76.5402364,41.3114863 78.1774032,39.5244526 78.1774032,37.380839 L78.1774032,33.6703409 C78.1774032,31.5608349 76.5898475,29.7893046 74.4927443,29.5598532 L69.2381003,28.9851911 Z" id="Fill-1" fill="#546670"></path>
                                <path d="M69.2379969,28.9852945 L66.0835568,21.2149535 L69.1904529,17.3855954 C70.544423,15.7163881 70.3935225,13.2895777 68.8452423,11.8002106 L66.1807119,9.23903678 C64.6799757,7.7951466 62.3399847,7.69385723 60.7203885,9.00028329 L56.8868962,12.0927095 L49.1206894,8.68607955 L48.6969278,3.77871333 C48.5108861,1.64026752 46.7228188,-4.01456646e-13 44.5781716,-4.01456646e-13 L42.3675822,-4.01456646e-13 L42.3675822,13.6740638 C53.7843402,13.6740638 63.3776839,22.9286041 63.3776839,34.3453622 C63.3776839,45.7621202 53.7843402,55.0166605 42.3675822,55.0166605 L42.3675822,58.5886608 L56.0218024,58.5886608 L61.0686998,62.3311994 C62.7224037,63.5590745 65.0293206,63.3813013 66.4752779,61.9136392 L69.0116462,59.3390289 C70.480342,57.8496619 70.6043697,55.4993353 69.3031115,53.8621685 L66.0835568,49.8178289 L69.2379969,41.9523999 L74.4047879,41.4996985 C76.5401331,41.3115897 78.1772999,39.5245559 78.1772999,37.3799087 L78.1772999,33.6704443 C78.1772999,31.5609383 76.5897442,29.789408 74.492641,29.5599566 L69.2379969,28.9852945 Z" id="Fill-3" fill="#30404D"></path>
                            </g>
                            <ellipse id="Inside-Stroke-Left" stroke="#30404D" stroke-width="2" fill-rule="nonzero" cx="42.892944" cy="34.6244247" rx="20.6712983" ry="20.1545159"></ellipse>
                            <path d="M42.3675822,54.7789405 C53.7843402,54.7789405 63.5642423,45.7557638 63.5642423,34.6244247 C63.5642423,24.5991875 55.6313969,16.2839599 45.7144958,14.73041 C44.6203468,14.5590041 43.5020457,14.4699088 42.3675822,14.4699088" id="Inside-Stroke-Right" stroke="#546670" stroke-width="2"></path>
                            <path d="M42.8683295,52.7946589 C52.8125939,52.7946589 61.1071701,45.041748 61.1071701,35.1057672 C61.1071701,25.1697863 52.4670261,17.4713783 42.5227617,17.4713783 C32.5784973,17.4713783 24.6817525,25.2097361 24.6817525,35.1457169 C24.6817525,45.0816978 32.9240651,52.7946589 42.8683295,52.7946589 Z" id="Oval" stroke="#55A2FF" stroke-width="2.5" fill-rule="nonzero"></path>
                        </g>
                    </g>
                </g>
                <g id="Azure-Border" stroke="#0078D4" stroke-width="4">
                    <rect x="2" y="2" width="96" height="96" rx="48"></rect>
                </g>
            </g>
        </g>
    </g>
</svg>