<?xml version="1.0" encoding="UTF-8"?>
<svg width="100px" height="100px" viewBox="0 0 100 100" version="1.1" xmlns="http://www.w3.org/2000/svg" xmlns:xlink="http://www.w3.org/1999/xlink">
    <!-- Generator: Sketch 55.2 (78181) - https://sketchapp.com -->
    <title>Protect identity and access with Microsoft 365/introduction-to-identity-and-access-management-in-microsoft-365</title>
    <desc>Created with Sketch.</desc>
    <defs>
        <rect id="path-1" x="0" y="0" width="96" height="96" rx="48"></rect>
        <filter x="-10.2%" y="-10.7%" width="120.3%" height="121.4%" filterUnits="objectBoundingBox" id="filter-3">
            <feOffset dx="0" dy="2" in="SourceAlpha" result="shadowOffsetOuter1"></feOffset>
            <feColorMatrix values="0 0 0 0 0   0 0 0 0 0   0 0 0 0 0  0 0 0 0.1 0" type="matrix" in="shadowOffsetOuter1" result="shadowMatrixOuter1"></feColorMatrix>
            <feMerge>
                <feMergeNode in="shadowMatrixOuter1"></feMergeNode>
                <feMergeNode in="SourceGraphic"></feMergeNode>
            </feMerge>
        </filter>
        <filter x="-4.2%" y="-4.5%" width="108.5%" height="108.9%" filterUnits="objectBoundingBox" id="filter-4">
            <feOffset dx="0" dy="1" in="SourceAlpha" result="shadowOffsetOuter1"></feOffset>
            <feColorMatrix values="0 0 0 0 0   0 0 0 0 0   0 0 0 0 0  0 0 0 0.102043705 0" type="matrix" in="shadowOffsetOuter1" result="shadowMatrixOuter1"></feColorMatrix>
            <feMerge>
                <feMergeNode in="shadowMatrixOuter1"></feMergeNode>
                <feMergeNode in="SourceGraphic"></feMergeNode>
            </feMerge>
        </filter>
        <filter x="-15.4%" y="-18.2%" width="130.8%" height="136.4%" filterUnits="objectBoundingBox" id="filter-5">
            <feOffset dx="0" dy="2" in="SourceAlpha" result="shadowOffsetOuter1"></feOffset>
            <feColorMatrix values="0 0 0 0 0   0 0 0 0 0   0 0 0 0 0  0 0 0 0.104676178 0" type="matrix" in="shadowOffsetOuter1" result="shadowMatrixOuter1"></feColorMatrix>
            <feMerge>
                <feMergeNode in="shadowMatrixOuter1"></feMergeNode>
                <feMergeNode in="SourceGraphic"></feMergeNode>
            </feMerge>
        </filter>
        <path d="M9.40129527,43 L13.0153197,43 C14.4925833,43 15.7499783,41.924565 15.9790368,40.4651679 L17.6408869,29.8770468 L21.3684722,17.0511345 L28,17.0511345 C29.1045695,17.0511345 30,16.155704 30,15.0511345 L30,14 C30,12.8954305 29.1045695,12 28,12 L15,12 L11.0640756,17.0511345 L7.4855957,12 L3.98549749,12 C2.32864324,12 0.985497491,13.3431458 0.985497491,15 C0.985497491,15.0594575 0.987265086,15.1189018 0.990797934,15.1782542 L1.68768297,26.8860352 C1.7876751,28.5659191 3.17916604,29.8770468 4.86202321,29.8770468 L4.86202321,29.8770468 L6.43396369,40.4415239 C6.65271384,41.9116691 7.91496462,43 9.40129527,43 Z" id="path-6"></path>
        <filter x="-3.4%" y="-3.2%" width="106.9%" height="112.9%" filterUnits="objectBoundingBox" id="filter-7">
            <feOffset dx="0" dy="2" in="SourceAlpha" result="shadowOffsetOuter1"></feOffset>
            <feColorMatrix values="0 0 0 0 0   0 0 0 0 0   0 0 0 0 0  0 0 0 0.1 0" type="matrix" in="shadowOffsetOuter1"></feColorMatrix>
        </filter>
    </defs>
    <g id="Badges" stroke="none" stroke-width="1" fill="none" fill-rule="evenodd">
        <g id="Protect-identity-and-access-with-Microsoft-365" transform="translate(-50.000000, -260.000000)">
            <g id="Protect-identity-and-access-with-Microsoft-365/introduction-to-identity-and-access-management-in-microsoft-365" transform="translate(50.000000, 260.000000)">
                <g id="Mask" transform="translate(2.000000, 2.000000)">
                    <mask id="mask-2" fill="white">
                        <use xlink:href="#path-1"></use>
                    </mask>
                    <use id="BG" fill="#55A2FF" xlink:href="#path-1"></use>
                    <g mask="url(#mask-2)">
                        <g transform="translate(11.000000, 19.000000)">
                            <g id="Projector" filter="url(#filter-3)" transform="translate(11.000000, 0.000000)">
                                <g id="Group-23" filter="url(#filter-4)">
                                    <path d="M37.7740229,52.6845261 L30.9728862,45.9749349 L30.9728862,43.1043086 C30.9728862,42.1042953 30.1509522,41.2943298 29.1382122,41.2943298 C28.1254721,41.2943298 27.3035381,42.1042953 27.3035381,43.1043086 L27.3035381,45.9749349 L20.5024015,52.6845261 C19.7859612,53.3913228 19.7859612,54.5370393 20.5024015,55.243836 C20.8610802,55.5976869 21.3298395,55.7741598 21.799516,55.7741598 C22.2691926,55.7741598 22.7379518,55.5976869 23.0966306,55.243836 L27.3035381,51.0935548 L27.3035381,53.0591917 C27.3035381,54.0582999 28.1254721,54.8691704 29.1382122,54.8691704 C30.1509522,54.8691704 30.9728862,54.0582999 30.9728862,53.0591917 L30.9728862,51.0935548 L35.1797938,55.243836 C35.5384726,55.5976869 36.0072318,55.7741598 36.4769083,55.7741598 C36.9465849,55.7741598 37.4153441,55.5976869 37.7740229,55.243836 C38.4904631,54.5370393 38.4904631,53.3913228 37.7740229,52.6845261" id="Fill-1016" fill="#546670"></path>
                                    <path d="M56.1180383,9.11692997 L56.1180383,41.6330393 C56.1180383,42.6265871 55.3005495,43.4394898 54.3013966,43.4394898 L3.43543119,43.4394898 C2.4362783,43.4394898 1.61878956,42.6265871 1.61878956,41.6330393 L1.61878956,9.11692997 L56.1180383,9.11692997" id="Fill-1017" fill="#E1E4E1"></path>
                                    <path d="M29.1921718,5.36289998 C28.1496713,5.36289998 27.303584,4.56204025 27.303584,3.57526665 L27.303584,1.78763333 C27.303584,0.799965914 28.1496713,-6.66133815e-15 29.1921718,-6.66133815e-15 C30.2346723,-6.66133815e-15 31.0807596,0.799965914 31.0807596,1.78763333 L31.0807596,3.57526665 C31.0807596,4.56204025 30.2346723,5.36289998 29.1921718,5.36289998" id="Fill-1018" fill="#546670"></path>
                                    <path d="M58.2764243,8.2231133 C58.2764243,8.71471247 57.8666682,9.11692997 57.3658552,9.11692997 L0.91056913,9.11692997 C0.409756109,9.11692997 0,8.71471247 0,8.2231133 L0,4.64784665 C0,4.15624748 0.409756109,3.75402999 0.91056913,3.75402999 L57.3658552,3.75402999 C57.8666682,3.75402999 58.2764243,4.15624748 58.2764243,4.64784665 L58.2764243,8.2231133" id="Fill-1019" fill="#30404D"></path>
                                    <polygon id="Fill-1020" fill="#C5CCCD" points="1.61878956 10.7258 56.1180383 10.7258 56.1180383 9.11692997 1.61878956 9.11692997"></polygon>
                                    <path d="M21.9032012,53.8441057 C21.4626576,54.2808067 20.7082266,54.1686684 20.4301335,53.6143591 C20.3356002,53.4265503 20.2612584,53.2369182 20.2089439,53.0491094 C19.8078656,53.7456429 19.8996456,54.6454839 20.4980506,55.2399077 C20.8569101,55.5963797 21.3259055,55.7741598 21.7958187,55.7741598 C22.2657319,55.7741598 22.7347272,55.5963797 23.0935867,55.2399077 L29.1382122,49.3923088 L29.1382122,46.6572298 L21.9032012,53.8441057" id="Fill-1022" fill="#30404D"></path>
                                    <path d="M36.3732232,53.8441057 C36.812849,54.2808067 37.5681977,54.1686684 37.8462909,53.6143591 C37.9408242,53.4265503 38.0151659,53.2369182 38.0674805,53.0491094 C38.4685587,53.7456429 38.3767788,54.6454839 37.7783737,55.2399077 C37.4195142,55.5963797 36.9505188,55.7741598 36.4806057,55.7741598 C36.0106925,55.7741598 35.5416971,55.5963797 35.1828376,55.2399077 L29.1382122,49.3923088 L29.1382122,46.6572298 L36.3732232,53.8441057" id="Fill-1023" fill="#30404D"></path>
                                    <path d="M29.3704505,48.8023898 L29.3704505,53.2501524 C29.3704505,53.8890931 28.7059296,54.3248598 28.0731901,54.1161698 C27.8747969,54.0508967 27.6889236,53.9718336 27.5194226,53.880819 C27.7573018,54.7119016 28.58073,55.31223 29.54573,55.2304088 C30.5588837,55.1449103 31.2965983,54.2614254 31.2965983,53.2906033 L31.2965983,48.8023898 L29.3704505,48.8023898" id="Fill-1024" fill="#30404D"></path>
                                    <path d="M27.5194226,43.4394898 L27.5194226,44.2848398 L28.3825072,44.2848398 C28.9490836,44.2848398 29.4080104,44.6956798 29.4080104,45.2028898 C29.4080104,45.7100998 29.8669373,46.1209398 30.4335136,46.1209398 L31.2965983,46.1209398 L31.2965983,43.4394898 L27.5194226,43.4394898" id="Fill-1025" fill="#30404D"></path>
                                    <path d="M0.91056913,9.11692997 L57.3658552,9.11692997 C57.8666682,9.11692997 58.2764243,8.71471247 58.2764243,8.2231133 L58.2764243,4.64784665 C58.2764243,4.15624748 57.8666682,3.75402999 57.3658552,3.75402999 L29.1382122,3.75402999 L29.1382122,5.54166331 C29.1382122,6.03505011 28.7302772,6.43547998 28.227643,6.43547998 L0,6.43547998 L0,8.2231133 C0,8.71471247 0.409756109,9.11692997 0.91056913,9.11692997" id="Fill-1026" fill="#182A37"></path>
                                    <path d="M29.1382122,1.9429216 L29.1382122,3.75402999 L30.7570017,3.75402999 L30.7570017,2.02669724 C30.7570017,1.9273756 30.7489078,1.83064497 30.7343387,1.73650533 C30.5748879,0.730334006 29.1382122,0.922931608 29.1382122,1.9429216" id="Fill-1027" fill="#30404D"></path>
                                </g>
                            </g>
                            <g id="Nametag" filter="url(#filter-5)" transform="translate(27.000000, 13.000000)">
                                <path d="M0,21.1794872 C0,21.6307692 0.365625,22 0.8125,22 L25.1875,22 C25.634375,22 26,21.6307692 26,21.1794872 L26,6 L0,6 L0,21.1794872" id="Fill-1164" fill="#FFFFFF"></path>
                                <path d="M26,4.66666667 C26,4.3 25.634375,4 25.1875,4 L0.8125,4 C0.365625,4 0,4.3 0,4.66666667 L0,6 L26,6 L26,4.66666667" id="Fill-1165" fill="#ADBDC4"></path>
                                <polygon id="Fill-1166" fill="#E1E4E1" points="2 20 12 20 12 8 2 8"></polygon>
                                <g id="microsoft" transform="translate(4.000000, 11.000000)" fill-rule="nonzero">
                                    <rect id="Rectangle-path" fill="#E86C60" x="0" y="0" width="3" height="3"></rect>
                                    <polygon id="Rectangle-path" fill="#72C472" points="3 0 6 0 6 3 3 3"></polygon>
                                    <polygon id="Rectangle-path" fill="#43A6DD" points="0 3 3 3 3 6 0 6"></polygon>
                                    <polygon id="Rectangle-path" fill="#EFD358" points="3 3 6 3 6 6 3 6"></polygon>
                                </g>
                                <path d="M15.6420589,5 L11.3579639,5 C10.9634702,5 11.000956,4.7765 11.000956,4.5 C11.000956,4.2235 10.9634702,4 11.3579639,4 L15.6420589,4 C16.0361956,4 15.9990668,4.2235 15.9990668,4.5 C15.9990668,4.7765 16.0361956,5 15.6420589,5" id="Fill-1167" fill="#69994E"></path>
                                <path d="M14.3571429,18 C14.0503571,18 14,17.776 14,17.5 C14,17.224 14.0503571,17 14.3571429,17 L18.6428571,17 C18.9496429,17 19,17.224 19,17.5 C19,17.776 18.9496429,18 18.6428571,18 L14.3571429,18 Z" id="Fill-1168" fill="#C5CCCD"></path>
                                <path d="M18.6428571,9 L14.3571429,9 C14.0503571,9 14,8.776 14,8.5 C14,8.224 14.0503571,8 14.3571429,8 L18.6428571,8 C18.9496429,8 19,8.224 19,8.5 C19,8.776 18.9496429,9 18.6428571,9" id="Fill-1169" fill="#546670"></path>
                                <path d="M23.6296296,16 L14.3703704,16 C14.0522222,16 14,15.776 14,15.5 C14,15.224 14.0522222,15 14.3703704,15 L23.6296296,15 C23.9477778,15 24,15.224 24,15.5 C24,15.776 23.9477778,16 23.6296296,16" id="Fill-1170" fill="#C5CCCD"></path>
                                <path d="M23.6296296,14 L14.3703704,14 C14.0522222,14 14,13.776 14,13.5 C14,13.224 14.0522222,13 14.3703704,13 L23.6296296,13 C23.9477778,13 24,13.224 24,13.5 C24,13.776 23.9477778,14 23.6296296,14" id="Fill-1171" fill="#C5CCCD"></path>
                                <path d="M23.6296296,12 L14.3703704,12 C14.0522222,12 14,11.776 14,11.5 C14,11.224 14.0522222,11 14.3703704,11 L23.6296296,11 C23.9477778,11 24,11.224 24,11.5 C24,11.776 23.9477778,12 23.6296296,12" id="Fill-1172" fill="#C5CCCD"></path>
                                <path d="M13.5,2.30769231 C13.085625,2.30769231 12.75,1.96307692 12.75,1.53846154 C12.75,1.11346154 13.085625,0.769230769 13.5,0.769230769 C13.914,0.769230769 14.25,1.11346154 14.25,1.53846154 C14.25,1.96307692 13.914,2.30769231 13.5,2.30769231 Z M13.5,0 C12.671625,0 12,0.688846154 12,1.53846154 L12,5 L15,5 L15,1.53846154 C15,0.688846154 14.328375,0 13.5,0 L13.5,0 Z" id="Fill-1173" fill="#30404D"></path>
                                <path d="M14,1.53846154 C14,1.96307692 13.552,2.30769231 13,2.30769231 L13,5 L15,5 L15,1.53846154 C15,0.688846154 14.1045,0 13,0 L13,0.769230769 C13.552,0.769230769 14,1.11384615 14,1.53846154" id="Fill-1174" fill="#182A37"></path>
                            </g>
                            <g id="Person" transform="translate(0.000000, 14.000000)">
                                <circle id="Oval" stroke="#55A2FF" stroke-width="1.5" fill-rule="nonzero" cx="11" cy="6" r="6.75"></circle>
                                <path d="M4.16120255,30.5718961 C2.40634374,30.2735672 1.04088473,28.7983188 0.933015747,26.9647663 L0.242077938,15.2202339 C0.237763769,15.1469019 0.235605287,15.0734589 0.235605287,15 C0.235605287,12.9289322 1.91453748,11.25 3.98560529,11.25 L7.09876832,11.25 L10.9643527,15.8989768 L15.0734426,11.25 L28,11.25 C29.5187831,11.25 30.75,12.4812169 30.75,14 L30.75,15.0511345 C30.75,16.5699176 29.5187831,17.8011345 28,17.8011345 L21.6960835,17.8011345 L18.1883799,29.9920176 L16.5466878,40.5748535 C16.2632294,42.4021107 14.6901233,43.75 12.8410106,43.75 L9.33806705,43.75 C7.47774294,43.75 5.8986471,42.3861467 5.62797277,40.5456193 L4.16120255,30.5718961 Z" id="Path-13" stroke="#55A2FF" stroke-width="1.5" fill-rule="nonzero"></path>
                                <g id="Path-13" fill-rule="nonzero">
                                    <use fill="black" fill-opacity="1" filter="url(#filter-7)" xlink:href="#path-6"></use>
                                    <use fill="#30404D" xlink:href="#path-6"></use>
                                </g>
                                <path d="M7,40.3061956 L10.4401688,40.3061956 C10.9924535,40.3061956 11.4401688,39.8584803 11.4401688,39.3061956 L11.4401688,21.3156922 C11.4401688,20.3916897 11.7600646,19.496183 12.3455075,18.7813143 L15.6605302,14.7334284 C16.0403762,14.2696086 16.6082547,14.0006463 17.2077643,14.0006174 L30,14 C30,15.6524234 28.6604462,16.9919772 27.0080228,16.9919772 L21.2472129,16.9919772 L18.8816715,25.4064589 C18.1467901,28.0205102 17.5691452,30.6762327 17.1518401,33.3593599 L16.0473192,40.4610453 C15.8200477,41.9223216 14.5618023,43 13.082958,43 L10.2486477,43 C8.65891244,43 7.29429966,41.8684523 7,40.3061956 L7,40.3061956 Z" id="Path-14" fill="#182A37" fill-rule="nonzero"></path>
                                <path d="M17,6 C17,9.312 14.31,12 11,12 C7.684,12 5,9.312 5,6 C5,2.688 7.684,0 11,0 C14.31,0 17,2.688 17,6" id="Fill-305" fill="#30404D"></path>
                                <path d="M15.0881335,4.07778178 C15.0881335,7.35758012 12.4045903,10.0194454 9.10253516,10.0194454 C7.96128107,10.0194454 6.90781575,9.68671228 6,9.13611811 C7.05147012,10.8473172 8.93094801,12 11.0977346,12 C14.3997897,12 17.083333,9.33813468 17.083333,6.05833633 C17.083333,3.90943464 15.9201317,2.04375225 14.1982746,1 C14.7509448,1.89917177 15.0881335,2.94688513 15.0881335,4.07778178 Z" id="Fill-306" fill="#182A37"></path>
                            </g>
                        </g>
                    </g>
                </g>
                <g id="Azure-Border" stroke="#0078D4" stroke-width="4">
                    <rect x="2" y="2" width="96" height="96" rx="48"></rect>
                </g>
            </g>
        </g>
    </g>
</svg>