<?xml version="1.0" encoding="UTF-8"?>
<svg width="100px" height="100px" viewBox="0 0 100 100" version="1.1" xmlns="http://www.w3.org/2000/svg" xmlns:xlink="http://www.w3.org/1999/xlink">
    <!-- Generator: Sketch 53.2 (72643) - https://sketchapp.com -->
    <title>M365 Fundamentals/collaboration-in-microsoft-365</title>
    <desc>Created with Sketch.</desc>
    <defs>
        <rect id="path-1" x="0" y="0" width="96" height="96" rx="48"></rect>
        <filter x="-9.1%" y="-15.7%" width="118.1%" height="131.4%" filterUnits="objectBoundingBox" id="filter-3">
            <feOffset dx="0" dy="2" in="SourceAlpha" result="shadowOffsetOuter1"></feOffset>
            <feColorMatrix values="0 0 0 0 0   0 0 0 0 0   0 0 0 0 0  0 0 0 0.100175498 0" type="matrix" in="shadowOffsetOuter1" result="shadowMatrixOuter1"></feColorMatrix>
            <feMerge>
                <feMergeNode in="shadowMatrixOuter1"></feMergeNode>
                <feMergeNode in="SourceGraphic"></feMergeNode>
            </feMerge>
        </filter>
        <filter x="-6.3%" y="-10.0%" width="113.1%" height="120.3%" filterUnits="objectBoundingBox" id="filter-4">
            <feOffset dx="0" dy="2" in="SourceAlpha" result="shadowOffsetOuter1"></feOffset>
            <feColorMatrix values="0 0 0 0 0   0 0 0 0 0   0 0 0 0 0  0 0 0 0.0964956975 0" type="matrix" in="shadowOffsetOuter1" result="shadowMatrixOuter1"></feColorMatrix>
            <feMerge>
                <feMergeNode in="shadowMatrixOuter1"></feMergeNode>
                <feMergeNode in="SourceGraphic"></feMergeNode>
            </feMerge>
        </filter>
        <path d="M18.34448,29.2095333 L18.34448,26.8788838 C19.1580926,27.472143 20.1072931,27.7687682 21.1921099,27.7687682 C21.8757705,27.7687682 22.4082832,27.6218681 22.7896641,27.3280635 C23.171045,27.034259 23.3617326,26.6246338 23.3617326,26.0991757 C23.3617326,25.5567673 23.125845,25.1386671 22.6540627,24.8448625 C22.1822804,24.551058 21.5339426,24.4041579 20.7090298,24.4041579 L19.581843,24.4041579 L19.581843,22.3531864 L20.6242789,22.3531864 C22.2063034,22.3531864 22.9973038,21.8277361 22.9973038,20.7768199 C22.9973038,19.7880546 22.3899285,19.2936793 21.1751597,19.2936793 C20.3615471,19.2936793 19.5705467,19.5564044 18.8021348,20.0818626 L18.8021348,17.8952897 C19.655298,17.465883 20.6496985,17.2511829 21.7853661,17.2511829 C23.0283854,17.2511829 23.9959483,17.530858 24.688084,18.0902167 C25.3802198,18.6495754 25.7262824,19.3756007 25.7262824,20.2683145 C25.7262824,21.8559891 24.921157,22.8503896 23.3108821,23.2515458 L23.3108821,23.2939213 C24.1696954,23.4012729 24.8476957,23.7134356 25.3449034,24.2304186 C25.8421111,24.7474016 26.0907112,25.3816144 26.0907112,26.133076 C26.0907112,27.2687436 25.675436,28.167094 24.8448732,28.8281543 C24.0143103,29.4892145 22.8673598,29.8197397 21.4039871,29.8197397 C20.1496677,29.8197397 19.1298422,29.6163396 18.34448,29.2095333 Z M36.7438979,25.5652451 C36.7438979,26.1641543 36.6393729,26.7235046 36.4303196,27.2433127 C36.2212664,27.7631207 35.9302913,28.2137084 35.5573855,28.5950893 C35.1844797,28.9764702 34.7409545,29.2759204 34.2267965,29.4934488 C33.7126386,29.7109771 33.1504633,29.8197397 32.5402539,29.8197397 C31.8565933,29.8197397 31.2449805,29.6926146 30.7053971,29.4383607 C30.1658138,29.1841067 29.709576,28.8154441 29.3366703,28.3323616 C28.9637645,27.8492791 28.6784394,27.2574413 28.4806863,26.5568305 C28.2829332,25.8562196 28.1840582,25.0623942 28.1840582,24.1753305 C28.1840582,23.1300643 28.3125958,22.1822764 28.5696747,21.3319382 C28.8267537,20.4816 29.1940039,19.7541622 29.6714363,19.1496028 C30.1488687,18.5450434 30.7265815,18.0775057 31.404592,17.7469756 C32.0826025,17.4164455 32.8453528,17.2511829 33.6928659,17.2511829 C34.6307805,17.2511829 35.3596308,17.361358 35.8794389,17.5817114 L35.8794389,19.8191348 C35.2635793,19.4688294 34.591229,19.2936793 33.8623677,19.2936793 C33.4103607,19.2936793 33.0007355,19.3812544 32.6334798,19.5564071 C32.2662242,19.7315598 31.9512365,19.9801599 31.6885074,20.3022149 C31.4257784,20.6242699 31.2195533,21.0127076 31.0698259,21.4675396 C30.9200986,21.9223716 30.8395861,22.4294594 30.8282859,22.9888181 L30.8791364,22.9888181 C31.4554454,22.1921557 32.3057708,21.7938305 33.4301382,21.7938305 C33.932996,21.7938305 34.3878212,21.8842306 34.7946275,22.0650334 C35.2014338,22.2458362 35.548909,22.5014988 35.8370634,22.8320289 C36.1252179,23.162559 36.348393,23.5594717 36.5065954,24.0227789 C36.6647979,24.4860861 36.7438979,25.0002363 36.7438979,25.5652451 Z M34.1250955,25.7347468 C34.1250955,24.4295766 33.5911702,23.7770013 32.5233037,23.7770013 C32.2803499,23.7770013 32.0599998,23.8222013 31.8622468,23.9126027 C31.6644937,24.0030041 31.4949936,24.1301292 31.3537414,24.2939817 C31.2124892,24.4578343 31.1037267,24.6513469 31.0274505,24.8745253 C30.9511743,25.0977038 30.9130368,25.3448914 30.9130368,25.6160956 C30.9130368,25.9155502 30.9525868,26.1952254 31.031688,26.4551294 C31.1107893,26.7150334 31.2223768,26.942446 31.3664541,27.1373741 C31.5105313,27.3323021 31.6814439,27.4862646 31.8791969,27.5992664 C32.07695,27.7122681 32.2973001,27.7687682 32.5402539,27.7687682 C32.7832076,27.7687682 33.0021452,27.7193306 33.1970732,27.6204541 C33.3920013,27.5215776 33.5586763,27.3831525 33.6971035,27.2051748 C33.8355306,27.027197 33.9414682,26.8124969 34.0149193,26.561068 C34.0883705,26.3096391 34.1250955,26.0342015 34.1250955,25.7347468 Z M38.5236666,29.2942842 L38.5236666,27.0060102 C39.3542295,27.514518 40.2384549,27.7687682 41.1763694,27.7687682 C41.8826303,27.7687682 42.4349181,27.6006806 42.8332493,27.2645004 C43.2315804,26.9283202 43.430743,26.4720825 43.430743,25.8957735 C43.430743,24.6923049 42.5804176,24.0905796 40.8797413,24.0905796 C40.2525816,24.0905796 39.5293812,24.1386046 38.7101185,24.2346561 L39.1677733,17.454585 L45.6003658,17.454585 L45.6003658,19.641158 L41.2102698,19.641158 L41.040768,22.0735085 C41.4758247,22.0396079 41.8515499,22.0226579 42.1679548,22.0226579 C43.4166241,22.0226579 44.3940746,22.3503581 45.1003355,23.0057682 C45.8065965,23.6611784 46.1597217,24.5425788 46.1597217,25.649996 C46.1597217,26.8760649 45.7387964,27.8775279 44.8969334,28.654415 C44.0550704,29.431302 42.9137698,29.8197397 41.4729975,29.8197397 C40.3034294,29.8197397 39.3203289,29.6445896 38.5236666,29.2942842 Z" id="path-5"></path>
        <filter x="-1.8%" y="-4.0%" width="103.6%" height="115.9%" filterUnits="objectBoundingBox" id="filter-6">
            <feOffset dx="0" dy="1" in="SourceAlpha" result="shadowOffsetOuter1"></feOffset>
            <feColorMatrix values="0 0 0 0 0   0 0 0 0 0   0 0 0 0 0  0 0 0 0.0977411685 0" type="matrix" in="shadowOffsetOuter1"></feColorMatrix>
        </filter>
        <filter x="-9.1%" y="-15.7%" width="118.1%" height="131.4%" filterUnits="objectBoundingBox" id="filter-7">
            <feOffset dx="0" dy="2" in="SourceAlpha" result="shadowOffsetOuter1"></feOffset>
            <feColorMatrix values="0 0 0 0 0   0 0 0 0 0   0 0 0 0 0  0 0 0 0.100175498 0" type="matrix" in="shadowOffsetOuter1" result="shadowMatrixOuter1"></feColorMatrix>
            <feMerge>
                <feMergeNode in="shadowMatrixOuter1"></feMergeNode>
                <feMergeNode in="SourceGraphic"></feMergeNode>
            </feMerge>
        </filter>
    </defs>
    <g id="Badges" stroke="none" stroke-width="1" fill="none" fill-rule="evenodd">
        <g id="M365-Fundamentals-1" transform="translate(-50.000000, -1260.000000)">
            <g id="M365-Fundamentals/collaboration-in-microsoft-365" transform="translate(50.000000, 1260.000000)">
                <g id="Mask" transform="translate(2.000000, 2.000000)">
                    <mask id="mask-2" fill="white">
                        <use xlink:href="#path-1"></use>
                    </mask>
                    <use id="BG" fill="#55A2FF" xlink:href="#path-1"></use>
                    <g id="Chat" filter="url(#filter-3)" mask="url(#mask-2)">
                        <g transform="translate(10.000000, 59.647059)">
                            <path d="M42.4369748,0.529731736 L1.69747899,0.529731736 C0.947872269,0.529731736 0.339495798,1.13810821 0.339495798,1.88771493 L0.339495798,15.4675469 C0.339495798,16.2171536 0.947872269,16.8255301 1.69747899,16.8255301 L7.12941176,16.8255301 L7.12941176,23.615446 C7.12941176,24.1457385 7.43903193,24.6271435 7.92043697,24.8491738 C8.10172773,24.9326897 8.29524034,24.9734292 8.48739496,24.9734292 C8.80584202,24.9734292 9.12021513,24.8613956 9.37144202,24.6468343 L18.4964101,16.8255301 L42.4369748,16.8255301 C43.1872605,16.8255301 43.794958,16.2171536 43.794958,15.4675469 L43.794958,1.88771493 C43.794958,1.13810821 43.1872605,0.529731736 42.4369748,0.529731736" id="Fill-142" fill="#F7CB64"></path>
                            <path d="M24.1042017,8.6776309 C24.1042017,9.80204098 23.192316,10.7146057 22.0672269,10.7146057 C20.9428168,10.7146057 20.0302521,9.80204098 20.0302521,8.6776309 C20.0302521,7.55186283 20.9428168,6.64065611 22.0672269,6.64065611 C23.192316,6.64065611 24.1042017,7.55186283 24.1042017,8.6776309" id="Fill-144" fill="#EFB252"></path>
                            <path d="M30.8941176,8.6776309 C30.8941176,9.80204098 29.9822319,10.7146057 28.8571429,10.7146057 C27.7327328,10.7146057 26.8201681,9.80204098 26.8201681,8.6776309 C26.8201681,7.55186283 27.7327328,6.64065611 28.8571429,6.64065611 C29.9822319,6.64065611 30.8941176,7.55186283 30.8941176,8.6776309" id="Fill-145" fill="#EFB252"></path>
                            <path d="M17.3142857,8.6776309 C17.3142857,9.80204098 16.4024,10.7146057 15.2773109,10.7146057 C14.1529008,10.7146057 13.2403361,9.80204098 13.2403361,8.6776309 C13.2403361,7.55186283 14.1529008,6.64065611 15.2773109,6.64065611 C16.4024,6.64065611 17.3142857,7.55186283 17.3142857,8.6776309" id="Fill-146" fill="#EFB252"></path>
                        </g>
                    </g>
                    <g id="Group-7" mask="url(#mask-2)">
                        <g transform="translate(16.000000, 22.000000)">
                            <g id="Cloud" filter="url(#filter-4)" stroke-width="1" fill="none" fill-rule="evenodd" transform="translate(0.424370, 0.576422)">
                                <path d="M14.2220227,11.9821859 C15.5985721,5.14690483 21.6209756,0 28.8438813,0 C35.3009322,0 40.7832589,4.11971786 42.8600184,9.87495672 C44.0376444,9.30451891 45.3525276,8.97542017 46.74698,8.97542017 C51.6912191,8.97542017 55.6985294,12.9934166 55.6985294,17.9508403 C55.6985294,18.0924525 55.6836102,18.2290784 55.6776425,18.368696 C60.2787388,19.6661429 63.6554622,23.8935658 63.6554622,28.9207983 C63.6554622,34.9792069 58.7569754,39.8907563 52.7146796,39.8907563 L13.9246324,39.8907563 C6.23425683,39.8907563 0,33.6398748 0,25.9289916 C0,18.2181084 6.23425683,11.9672269 13.9246324,11.9672269 C14.0250886,11.9672269 14.1225611,11.9801914 14.2220227,11.9821859 Z" id="Fill-11" fill="#FFFFFF"></path>
                                <path d="M55.7615957,18.3987852 C55.7670699,18.2598644 55.6719757,17.8454288 55.6719757,17.7045235 C55.6719757,14.7316199 54.1889335,12.4399313 52.135171,10.8165433 C53.1187143,12.289103 54.192051,14.3121426 54.192051,16.2719172 C54.192051,16.9685054 54.1290143,17.3692082 54.0952012,17.8819551 C54.7484422,18.0370434 55.1101579,18.200327 55.7615957,18.3987852 Z" id="Fill-12" fill="#C4CBCD" opacity="0.5"></path>
                                <path d="M52.3380575,39.8907563 C59.0694944,39.8907563 63.4369294,35.2325113 63.6483555,29.2122534 C63.7889737,25.2148667 61.8545778,21.9595803 58.8238049,19.9004426 C60.332709,22.1650911 61.0125105,24.7303045 60.4939182,27.7625963 C59.7688864,32.0007531 56.5496251,35.4863776 52.4178409,36.5260205 C50.109108,37.1072937 47.8991071,36.916894 45.9414213,36.1955914 C47.0414353,34.6915343 47.6986513,32.8379074 47.6986513,30.8241029 C47.6986513,27.8059148 46.2326308,25.1393113 43.9877247,23.4911952 C45.341051,25.3730294 46.0072426,27.7918111 45.5714257,30.3808443 C44.9451258,34.1062315 41.9741904,37.1083011 38.2871988,37.7419595 C37.521278,37.8729222 36.7703165,37.9051592 36.0442873,37.8497519 C33.1990108,37.6301374 30.8523808,35.519622 30.0605303,32.7502631 C29.8750338,32.0994788 29.7473804,31.4325761 29.7473804,30.8241029 C29.7473804,30.4584146 29.77331,30.0997781 29.8171909,29.7461786 C29.9927144,28.2491734 30.5262661,26.8639902 31.3340733,25.6823031 C30.1871865,26.1477246 28.9754757,26.4841982 27.7099111,26.6514276 C27.7268651,26.3643169 27.7527947,26.079221 27.7527947,25.7870733 C27.7527947,21.120769 25.4999102,16.9964491 22.0432933,14.4285714 C24.1346163,17.303708 25.192744,20.9938359 24.5953656,24.954956 C23.690821,30.9550657 18.9068073,35.787592 12.9669312,36.7013091 C9.04557585,37.3047453 5.39249222,36.2358876 2.54621849,34.1233574 C5.08831791,37.6150263 9.17123474,39.8907563 13.7906951,39.8907563 L38.7230158,39.8907563 L52.3380575,39.8907563 Z" id="Fill-13" fill="#E6E6E6" opacity="0.5"></path>
                                <path d="M41.3380628,22.0672269 C42.5690169,19.8538449 43.0087896,17.1785785 43.2857143,14.5471338 C43.8048823,9.61379957 41.2693741,5.7434395 37.7731958,3.00449186 C39.5798105,5.51319171 40.4074116,8.1642646 40.4074116,11.5439017 C40.4074116,15.520181 38.9154914,19.1230584 36.4957983,21.8049446 C37.1367004,21.6467744 37.8015883,21.5546753 38.4885432,21.5546753 C39.4882736,21.5546753 40.4448296,21.7408757 41.3380628,22.0672269 Z" id="Fill-14" fill="#E6E6E6" opacity="0.5"></path>
                            </g>
                            <circle id="Oval" fill="#FFFFFF" fill-rule="nonzero" cx="32.2521008" cy="24.7654972" r="15.7016807"></circle>
                            <g id="365" fill="none">
                                <use fill="black" fill-opacity="1" filter="url(#filter-6)" xlink:href="#path-5"></use>
                                <use fill="#182A37" fill-rule="evenodd" xlink:href="#path-5"></use>
                            </g>
                        </g>
                    </g>
                    <g id="Chat" filter="url(#filter-7)" mask="url(#mask-2)">
                        <g transform="translate(46.000000, 20.000000)">
                            <path d="M42.4369748,0.190235937 L1.69747899,0.190235937 C0.947872269,0.190235937 0.339495798,0.798612408 0.339495798,1.54821913 L0.339495798,15.1280511 C0.339495798,15.8776578 0.947872269,16.4860343 1.69747899,16.4860343 L25.6387227,16.4860343 L34.7636908,24.3073385 C35.0149176,24.5218998 35.3292908,24.6339334 35.6470588,24.6339334 C35.8398924,24.6339334 36.033405,24.5925149 36.2146958,24.509678 C36.6961008,24.2876477 37.005042,23.8062427 37.005042,23.2759502 L37.005042,16.4860343 L42.4369748,16.4860343 C43.1872605,16.4860343 43.794958,15.8776578 43.794958,15.1280511 L43.794958,1.54821913 C43.794958,0.798612408 43.1872605,0.190235937 42.4369748,0.190235937" id="Fill-143" fill="#EFB252"></path>
                            <path d="M24.1042017,8.3381351 C24.1042017,9.46254518 23.192316,10.3751099 22.0672269,10.3751099 C20.9428168,10.3751099 20.0302521,9.46254518 20.0302521,8.3381351 C20.0302521,7.21236703 20.9428168,6.30116031 22.0672269,6.30116031 C23.192316,6.30116031 24.1042017,7.21236703 24.1042017,8.3381351" id="Fill-147" fill="#CC9547"></path>
                            <path d="M30.8941176,8.3381351 C30.8941176,9.46254518 29.9822319,10.3751099 28.8571429,10.3751099 C27.7327328,10.3751099 26.8201681,9.46254518 26.8201681,8.3381351 C26.8201681,7.21236703 27.7327328,6.30116031 28.8571429,6.30116031 C29.9822319,6.30116031 30.8941176,7.21236703 30.8941176,8.3381351" id="Fill-148" fill="#CC9547"></path>
                            <path d="M17.3142857,8.3381351 C17.3142857,9.46254518 16.4024,10.3751099 15.2773109,10.3751099 C14.1529008,10.3751099 13.2403361,9.46254518 13.2403361,8.3381351 C13.2403361,7.21236703 14.1529008,6.30116031 15.2773109,6.30116031 C16.4024,6.30116031 17.3142857,7.21236703 17.3142857,8.3381351" id="Fill-149" fill="#CC9547"></path>
                        </g>
                    </g>
                </g>
                <g id="Azure-Border" stroke="#0078D4" stroke-width="4">
                    <rect x="2" y="2" width="96" height="96" rx="48"></rect>
                </g>
            </g>
        </g>
    </g>
</svg>