<svg width="100" height="100" viewBox="0 0 100 100" fill="none" xmlns="http://www.w3.org/2000/svg">
<g clip-path="url(#clip0_1028_431)">
<path d="M49.6401 96.45C40.382 96.45 31.3317 93.7047 23.6339 88.5611C15.936 83.4176 9.93624 76.1068 6.3933 67.5534C2.85036 59 1.92337 49.5881 3.72954 40.5078C5.53571 31.4276 9.99394 23.0868 16.5404 16.5403C23.0869 9.99384 31.4277 5.53562 40.5079 3.72945C49.5882 1.92327 59.0001 2.85027 67.5535 6.39321C76.1069 9.93614 83.4176 15.9359 88.5612 23.6338C93.7047 31.3316 96.4501 40.3819 96.4501 49.64C96.4505 55.7873 95.24 61.8745 92.8878 67.5539C90.5355 73.2334 87.0875 78.3938 82.7407 82.7406C78.3939 87.0874 73.2335 90.5354 67.554 92.8877C61.8746 95.2399 55.7874 96.4504 49.6401 96.45V96.45Z" fill="url(#paint0_linear_1028_431)"/>
<path fill-rule="evenodd" clip-rule="evenodd" d="M95.54 49.64C95.54 58.7182 92.848 67.5925 87.8045 75.1407C82.7609 82.6889 75.5923 88.572 67.2052 92.0461C58.818 95.5201 49.5891 96.4291 40.6854 94.658C31.7816 92.887 23.603 88.5154 17.1838 82.0962C10.7646 75.677 6.39302 67.4984 4.62196 58.5946C2.85089 49.6909 3.75987 40.462 7.23393 32.0748C10.708 23.6877 16.5911 16.5191 24.1393 11.4755C31.6875 6.43199 40.5618 3.74 49.64 3.74C55.6677 3.73998 61.6363 4.9272 67.2052 7.23388C72.774 9.54057 77.834 12.9215 82.0963 17.1837C86.3585 21.446 89.7394 26.5059 92.0461 32.0748C94.3528 37.6437 95.54 43.6123 95.54 49.64V49.64ZM49.64 3.62732e-07C59.4579 3.62732e-07 69.0553 2.91134 77.2185 8.36585C85.3818 13.8204 91.7442 21.5731 95.5014 30.6436C99.2585 39.7141 100.242 49.6951 98.3262 59.3243C96.4108 68.9535 91.6831 77.7985 84.7408 84.7408C77.7985 91.6831 68.9535 96.4108 59.3243 98.3262C49.6951 100.242 39.7141 99.2585 30.6436 95.5014C21.5731 91.7442 13.8204 85.3818 8.36585 77.2185C2.91134 69.0553 3.62732e-07 59.4579 3.62732e-07 49.64C-0.000787738 43.121 1.28265 36.6656 3.77702 30.6427C6.27138 24.6197 9.9278 19.1471 14.5375 14.5375C19.1471 9.9278 24.6197 6.27138 30.6427 3.77702C36.6656 1.28265 43.121 -0.000787738 49.64 3.62732e-07V3.62732e-07Z" fill="#F2F1F0"/>
<path fill-rule="evenodd" clip-rule="evenodd" d="M92.7296 49.6401C92.7296 58.1625 90.2024 66.4935 85.4676 73.5796C80.7328 80.6657 74.0031 86.1887 66.1294 89.4501C58.2557 92.7114 49.5918 93.5648 41.2331 91.9021C32.8745 90.2395 25.1966 86.1356 19.1703 80.1093C13.1441 74.0831 9.04017 66.4052 7.37753 58.0465C5.7149 49.6879 6.56822 41.0239 9.8296 33.1503C13.091 25.2766 18.6139 18.5469 25.7 13.8121C32.7862 9.07727 41.1172 6.55009 49.6396 6.55009C55.2983 6.54974 60.9017 7.66407 66.1298 9.82942C71.3579 11.9948 76.1082 15.1687 80.1096 19.1701C84.1109 23.1714 87.2849 27.9218 89.4502 33.1499C91.6156 38.3779 92.7299 43.9813 92.7296 49.6401V49.6401ZM49.6396 2.81009C58.9017 2.81009 67.9558 5.55662 75.6569 10.7024C83.3581 15.8481 89.3604 23.162 92.9049 31.719C96.4493 40.2761 97.3767 49.692 95.5697 58.7762C93.7628 67.8603 89.3027 76.2046 82.7534 82.7539C76.2041 89.3032 67.8598 93.7633 58.7757 95.5703C49.6915 97.3772 40.2756 96.4498 31.7185 92.9054C23.1614 89.3609 15.8476 83.3586 10.7018 75.6574C5.5561 67.9563 2.80957 58.9022 2.80957 49.6401C2.81076 37.2204 7.745 25.3097 16.5271 16.5276C25.3091 7.7455 37.2198 2.81125 49.6396 2.81006V2.81009Z" fill="#0078D4"/>
<path fill-rule="evenodd" clip-rule="evenodd" d="M92.7637 49.6401C92.7637 58.1625 90.2366 66.4935 85.5018 73.5796C80.767 80.6657 74.0372 86.1887 66.1636 89.4501C58.2899 92.7114 49.6259 93.5648 41.2673 91.9021C32.9087 90.2395 25.2308 86.1356 19.2045 80.1093C13.1783 74.0831 9.07435 66.4052 7.41171 58.0465C5.74908 49.6879 6.6024 41.0239 9.86378 33.1503C13.1252 25.2766 18.6481 18.5469 25.7342 13.8121C32.8203 9.07727 41.1514 6.55009 49.6738 6.55009C55.3325 6.54974 60.9359 7.66407 66.164 9.82942C71.3921 11.9948 76.1424 15.1687 80.1437 19.1701C84.1451 23.1714 87.3191 27.9218 89.4844 33.1499C91.6498 38.3779 92.7641 43.9813 92.7637 49.6401V49.6401ZM49.6738 2.81009C58.9359 2.81009 67.9899 5.55662 75.6911 10.7024C83.3923 15.8481 89.3946 23.162 92.939 31.719C96.4835 40.2761 97.4109 49.692 95.6039 58.7762C93.797 67.8603 89.3369 76.2046 82.7876 82.7539C76.2383 89.3032 67.894 93.7633 58.8098 95.5703C49.7257 97.3772 40.3097 96.4498 31.7527 92.9054C23.1956 89.3609 15.8818 83.3586 10.736 75.6574C5.59028 67.9563 2.84375 58.9022 2.84375 49.6401C2.84494 37.2204 7.77918 25.3097 16.5612 16.5276C25.3433 7.7455 37.254 2.81125 49.6738 2.81006V2.81009Z" fill="#0078D4"/>
<path d="M73.7034 28.8407H25.6439C24.696 28.8407 23.9275 29.6092 23.9275 30.5571V61.4525C23.9275 62.4005 24.696 63.1689 25.6439 63.1689H73.7034C74.6514 63.1689 75.4198 62.4005 75.4198 61.4525V30.5571C75.4198 29.6092 74.6514 28.8407 73.7034 28.8407Z" fill="url(#paint1_linear_1028_431)"/>
<path d="M60.0007 73.5532C54.9087 72.7522 54.7085 69.0906 54.7085 63.1689H44.6103C44.6103 69.0906 44.4386 72.7522 39.3466 73.5532C38.6437 73.631 37.9945 73.9664 37.5243 74.4947C37.0541 75.023 36.7963 75.7067 36.8006 76.4139H62.5468C62.5511 75.7067 62.2932 75.023 61.8231 74.4947C61.3529 73.9664 60.7037 73.631 60.0007 73.5532Z" fill="url(#paint2_linear_1028_431)"/>
<path opacity="0.1" d="M69.5659 30.6982H68.1353V28.8407H31.144V43.4257C31.145 44.2457 31.4711 45.0318 32.0509 45.6116C32.6307 46.1914 33.4168 46.5175 34.2368 46.5185H44.3618C44.2261 48.9125 43.7622 48.9687 42.7212 49.0951C41.8129 49.231 40.9818 49.6835 40.3747 50.3727C39.7677 51.0619 39.4238 51.9435 39.4038 52.8617L39.356 54.9081H54.0854V55.6391C54.0862 56.3605 54.3731 57.0521 54.8832 57.5622C55.3932 58.0724 56.0847 58.3594 56.8061 58.3603H69.5434C70.265 58.3596 70.9568 58.0727 71.467 57.5625C71.9773 57.0524 72.2643 56.3606 72.2651 55.6391V33.4194C72.2646 32.7016 71.9808 32.0131 71.4753 31.5035C70.9698 30.9939 70.2836 30.7045 69.5659 30.6982V30.6982Z" fill="#0078D4"/>
<path d="M65.0427 22.5389H34.2365C33.6331 22.5389 33.144 23.028 33.144 23.6313V43.426C33.144 44.0293 33.6331 44.5184 34.2365 44.5184H65.0427C65.6461 44.5184 66.1351 44.0293 66.1351 43.426V23.6313C66.1351 23.028 65.6461 22.5389 65.0427 22.5389Z" fill="url(#paint3_linear_1028_431)"/>
<path d="M35.591 24.3742H63.6881C63.8503 24.3742 64.0059 24.4386 64.1206 24.5533C64.2354 24.6681 64.2998 24.8237 64.2998 24.9859V42.0932C64.2998 42.2555 64.2354 42.4111 64.1206 42.5258C64.0059 42.6405 63.8503 42.705 63.6881 42.705H35.591C35.4288 42.705 35.2732 42.6405 35.1584 42.5258C35.0437 42.4111 34.9792 42.2554 34.9792 42.0932V24.9859C34.9793 24.8237 35.0437 24.6681 35.1584 24.5533C35.2732 24.4386 35.4288 24.3742 35.591 24.3742Z" fill="white"/>
<path d="M56.3472 51.0729C53.0699 50.5704 52.9388 48.2108 52.9607 44.5184H46.4061C46.4061 48.32 46.275 50.6796 43.0196 51.0729C42.5772 51.1396 42.1726 51.3603 41.8768 51.696C41.5811 52.0317 41.4133 52.4609 41.4028 52.9082H57.8765C57.866 52.4746 57.7091 52.0574 57.4315 51.7242C57.1538 51.391 56.7717 51.1615 56.3472 51.0729V51.0729Z" fill="url(#paint4_linear_1028_431)"/>
<path d="M69.5654 32.6984H54.5337C54.2846 31.4723 53.5889 30.3825 52.5817 29.6404C51.5745 28.8982 50.3276 28.5566 49.0827 28.6818C47.8379 28.807 46.6839 29.3901 45.8447 30.3179C45.0055 31.2458 44.5408 32.4523 44.5408 33.7034C44.5408 34.9545 45.0055 36.1611 45.8447 37.0889C46.6839 38.0168 47.8379 38.5999 49.0827 38.7251C50.3276 38.8503 51.5745 38.5087 52.5817 37.7665C53.5889 37.0243 54.2846 35.9345 54.5337 34.7085H56.0849V55.6392C56.0849 55.8304 56.1609 56.0138 56.2961 56.1491C56.4313 56.2843 56.6147 56.3602 56.8059 56.3602H69.5436C69.7348 56.3602 69.9182 56.2843 70.0534 56.1491C70.1886 56.0138 70.2646 55.8304 70.2646 55.6392V33.4194C70.2646 33.2319 70.1917 33.0518 70.0612 32.9171C69.9306 32.7825 69.7528 32.7041 69.5654 32.6984V32.6984Z" fill="#32BEDD"/>
<path d="M68.6914 34.6866H57.7016C57.5568 34.6866 57.4395 34.804 57.4395 34.9488V53.4326C57.4395 53.5774 57.5568 53.6947 57.7016 53.6947H68.6914C68.8362 53.6947 68.9536 53.5774 68.9536 53.4326V34.9488C68.9536 34.804 68.8362 34.6866 68.6914 34.6866Z" fill="white"/>
<path opacity="0.9" d="M49.6396 36.9807C51.4013 36.9807 52.8294 35.5525 52.8294 33.7908C52.8294 32.0291 51.4013 30.601 49.6396 30.601C47.8779 30.601 46.4497 32.0291 46.4497 33.7908C46.4497 35.5525 47.8779 36.9807 49.6396 36.9807Z" fill="url(#paint5_linear_1028_431)"/>
<path d="M64.5621 43.426L62.1151 40.979C62.0956 40.9613 62.0711 40.9499 62.045 40.9463C62.0188 40.9427 61.9922 40.9471 61.9686 40.959C61.945 40.9708 61.9255 40.9894 61.9126 41.0125C61.8998 41.0356 61.8942 41.062 61.8967 41.0882V42.5739C61.8967 42.6087 61.8829 42.642 61.8583 42.6666C61.8337 42.6912 61.8003 42.705 61.7656 42.705H56.085V44.5184H61.7656C61.8003 44.5184 61.8337 44.5323 61.8582 44.5568C61.8828 44.5814 61.8966 44.6148 61.8966 44.6495V46.157C61.9086 46.175 61.9248 46.1898 61.9439 46.2C61.963 46.2103 61.9843 46.2156 62.0059 46.2156C62.0275 46.2156 62.0488 46.2103 62.0679 46.2C62.0869 46.1898 62.1032 46.175 62.1151 46.157L64.5621 43.8192C64.59 43.7946 64.6124 43.7644 64.6277 43.7305C64.643 43.6966 64.6509 43.6598 64.6509 43.6226C64.6509 43.5854 64.643 43.5486 64.6277 43.5147C64.6124 43.4808 64.59 43.4506 64.5621 43.426L64.5621 43.426Z" fill="#0078D4"/>
<path d="M48.0081 77.8649V53.6557C48.0081 52.0483 46.705 50.7453 45.0977 50.7453H33.5194C31.912 50.7453 30.609 52.0483 30.609 53.6557V77.8649C30.609 79.4723 31.912 80.7753 33.5194 80.7753H45.0977C46.705 80.7753 48.0081 79.4723 48.0081 77.8649Z" fill="#1F56A3"/>
<path d="M45.1549 52.2234H33.4628C32.6393 52.2234 31.9717 52.891 31.9717 53.7145V77.8057C31.9717 78.6292 32.6393 79.2968 33.4628 79.2968H45.1549C45.9784 79.2968 46.646 78.6292 46.646 77.8057V53.7145C46.646 52.891 45.9784 52.2234 45.1549 52.2234Z" fill="#0078D4"/>
<path d="M31.2625 55.2632H30.5687C30.4368 55.2632 30.3298 55.3702 30.3298 55.5021V59.5253C30.3298 59.6572 30.4368 59.7642 30.5687 59.7642H31.2625C31.3944 59.7642 31.5013 59.6572 31.5013 59.5253V55.5021C31.5013 55.3702 31.3944 55.2632 31.2625 55.2632Z" fill="#1F56A3"/>
<path d="M48.0586 55.2632H47.3648C47.2329 55.2632 47.126 55.3702 47.126 55.5021V59.5253C47.126 59.6572 47.2329 59.7642 47.3648 59.7642H48.0586C48.1905 59.7642 48.2975 59.6572 48.2975 59.5253V55.5021C48.2975 55.3702 48.1905 55.2632 48.0586 55.2632Z" fill="#1F56A3"/>
<path d="M31.2625 60.4484H30.5687C30.4368 60.4484 30.3298 60.5553 30.3298 60.6872V64.7105C30.3298 64.8424 30.4368 64.9493 30.5687 64.9493H31.2625C31.3944 64.9493 31.5013 64.8424 31.5013 64.7105V60.6872C31.5013 60.5553 31.3944 60.4484 31.2625 60.4484Z" fill="#1F56A3"/>
<path d="M40.619 65.7603C40.619 66.0195 40.5421 66.2728 40.3982 66.4883C40.2542 66.7038 40.0495 66.8718 39.8101 66.971C39.5706 67.0702 39.3071 67.0961 39.0529 67.0455C38.7987 66.995 38.5652 66.8702 38.382 66.6869C38.1987 66.5036 38.0739 66.2701 38.0233 66.0159C37.9728 65.7617 37.9987 65.4983 38.0979 65.2588C38.1971 65.0194 38.365 64.8147 38.5805 64.6707C38.796 64.5267 39.0494 64.4499 39.3086 64.4499C39.656 64.4503 39.9891 64.5885 40.2347 64.8341C40.4804 65.0798 40.6186 65.4129 40.619 65.7603V65.7603ZM43.0408 65.0545L42.4314 64.919C42.3684 64.896 42.3169 64.8491 42.2882 64.7885L42.281 64.7688L42.1129 64.3602L42.1032 64.3392C42.0804 64.2766 42.0834 64.2074 42.1116 64.147L42.4468 63.6202C42.5153 63.5061 42.5446 63.3728 42.5301 63.2405C42.5156 63.1082 42.4581 62.9843 42.3665 62.8878L42.181 62.7024C42.0837 62.6123 41.9599 62.5559 41.8281 62.5414C41.6962 62.5269 41.5632 62.5552 41.4486 62.6221L40.9217 62.9571C40.8881 62.9739 40.8509 62.9821 40.8133 62.9807C40.7847 62.9818 40.7561 62.9766 40.7296 62.9656L40.7085 62.956L40.3 62.7877L40.2804 62.7806C40.2197 62.7519 40.1728 62.7004 40.1499 62.6373L40.0145 62.028C39.9823 61.8989 39.9087 61.7838 39.8048 61.7005C39.701 61.6172 39.5727 61.5703 39.4396 61.5669H39.1775C39.0445 61.5703 38.9162 61.6172 38.8124 61.7005C38.7086 61.7837 38.6349 61.8988 38.6028 62.0279L38.4673 62.6375C38.4442 62.7005 38.3973 62.7519 38.3368 62.7806L38.317 62.7877L37.9085 62.956L37.8874 62.9656C37.8609 62.9767 37.8324 62.9818 37.8037 62.9807C37.7661 62.982 37.7288 62.9739 37.6952 62.9571L37.1685 62.6222C37.0539 62.5554 36.9209 62.5271 36.7891 62.5416C36.6572 62.556 36.5335 62.6125 36.4361 62.7025L36.2507 62.8878C36.159 62.9843 36.1015 63.1082 36.087 63.2405C36.0725 63.3728 36.1018 63.5063 36.1704 63.6203L36.5056 64.147C36.5336 64.2074 36.5366 64.2765 36.514 64.3391L36.5041 64.3602L36.336 64.7688L36.3288 64.7885C36.3001 64.8491 36.2487 64.8961 36.1856 64.9191L35.5764 65.0543C35.4472 65.0865 35.3321 65.1602 35.2488 65.264C35.1655 65.3678 35.1186 65.4961 35.1152 65.6292V65.8913C35.1186 66.0243 35.1655 66.1526 35.2488 66.2564C35.3321 66.3602 35.4471 66.4339 35.5762 66.466L36.1857 66.6014C36.2487 66.6245 36.3001 66.6714 36.3288 66.7321L36.336 66.7517L36.5041 67.1603L36.514 67.1813C36.5367 67.244 36.5336 67.3131 36.5054 67.3736L36.1704 67.9002C36.1017 68.0143 36.0724 68.1477 36.0869 68.28C36.1015 68.4123 36.159 68.5363 36.2507 68.6327L36.4361 68.8182C36.5336 68.9082 36.6573 68.9646 36.7892 68.979C36.921 68.9935 37.054 68.9653 37.1687 68.8985L37.695 68.5634C37.7287 68.5466 37.7661 68.5385 37.8037 68.5398C37.8324 68.5387 37.8609 68.5438 37.8874 68.5549L37.9085 68.5646L38.317 68.7328L38.3368 68.7399C38.3974 68.7687 38.4442 68.8201 38.4673 68.8831L38.6028 69.4925C38.6349 69.6217 38.7085 69.7367 38.8123 69.82C38.9162 69.9033 39.0445 69.9503 39.1775 69.9536H39.4396C39.5727 69.9502 39.7009 69.9033 39.8048 69.82C39.9086 69.7367 39.9822 69.6217 40.0144 69.4925L40.1499 68.8831C40.1729 68.8201 40.2198 68.7687 40.2804 68.7399L40.3 68.7328L40.7085 68.5646L40.7296 68.5549C40.756 68.5439 40.7846 68.5387 40.8132 68.5398C40.8508 68.5385 40.8881 68.5466 40.9217 68.5634L41.4485 68.8984C41.5631 68.9652 41.6961 68.9935 41.828 68.9791C41.9599 68.9646 42.0836 68.9082 42.181 68.8182L42.3663 68.6329C42.458 68.5364 42.5156 68.4124 42.5301 68.2801C42.5446 68.1478 42.5154 68.0143 42.4468 67.9002L42.1116 67.3736C42.0976 67.3436 42.0897 67.3113 42.0883 67.2783C42.0868 67.2454 42.0919 67.2124 42.1032 67.1814L42.1129 67.1604L42.281 66.7517L42.2882 66.7321C42.317 66.6714 42.3685 66.6244 42.4316 66.6014L43.0407 66.466C43.1698 66.4339 43.2849 66.3603 43.3683 66.2565C43.4516 66.1527 43.4985 66.0244 43.5019 65.8913V65.6292C43.4986 65.4961 43.4516 65.3679 43.3683 65.264C43.285 65.1602 43.17 65.0866 43.0408 65.0545V65.0545Z" fill="white"/>
<path opacity="0.2" d="M40.6189 65.7603C40.6189 66.0195 40.5421 66.2728 40.3981 66.4883C40.2541 66.7038 40.0494 66.8718 39.81 66.971C39.5705 67.0702 39.307 67.0961 39.0528 67.0455C38.7986 66.995 38.5651 66.8702 38.3819 66.6869C38.1986 66.5036 38.0738 66.2701 38.0232 66.0159C37.9727 65.7617 37.9986 65.4983 38.0978 65.2588C38.197 65.0194 38.3649 64.8147 38.5804 64.6707C38.7959 64.5267 39.0493 64.4499 39.3085 64.4499C39.6559 64.4503 39.989 64.5885 40.2346 64.8341C40.4803 65.0798 40.6185 65.4129 40.6189 65.7603V65.7603Z" fill="white"/>
<path d="M27.7171 65.7601H20.7527C20.0893 65.7601 19.4531 65.4966 18.9841 65.0275C18.515 64.5584 18.2515 63.9222 18.2515 63.2589V37.1879C18.2515 36.8594 18.3162 36.5341 18.4419 36.2307C18.5676 35.9272 18.7518 35.6515 18.9841 35.4192C19.2163 35.187 19.4921 35.0027 19.7955 34.877C20.099 34.7513 20.4242 34.6866 20.7527 34.6866H28.2848" stroke="white" stroke-width="0.75" stroke-miterlimit="10"/>
</g>
<defs>
<linearGradient id="paint0_linear_1028_431" x1="47.8697" y1="-15.1531" x2="51.8525" y2="130.615" gradientUnits="userSpaceOnUse">
<stop stop-color="#00ABDE"/>
<stop offset="1" stop-color="#007ED8"/>
</linearGradient>
<linearGradient id="paint1_linear_1028_431" x1="49.6737" y1="63.1689" x2="49.6737" y2="28.8407" gradientUnits="userSpaceOnUse">
<stop stop-color="#53B1E0"/>
<stop offset="0.82" stop-color="#9CEBFF"/>
</linearGradient>
<linearGradient id="paint2_linear_1028_431" x1="49.6737" y1="76.4139" x2="49.6737" y2="63.1689" gradientUnits="userSpaceOnUse">
<stop offset="0.15" stop-color="#CCCCCC"/>
<stop offset="1" stop-color="#707070"/>
</linearGradient>
<linearGradient id="paint3_linear_1028_431" x1="49.6396" y1="44.5184" x2="49.6396" y2="22.5389" gradientUnits="userSpaceOnUse">
<stop stop-color="#0078D4"/>
<stop offset="0.82" stop-color="#5EA0EF"/>
</linearGradient>
<linearGradient id="paint4_linear_1028_431" x1="49.6397" y1="52.9082" x2="49.6397" y2="44.4091" gradientUnits="userSpaceOnUse">
<stop stop-color="#1490DF"/>
<stop offset="0.98" stop-color="#1F56A3"/>
</linearGradient>
<linearGradient id="paint5_linear_1028_431" x1="49.6396" y1="36.9807" x2="49.6396" y2="30.5791" gradientUnits="userSpaceOnUse">
<stop stop-color="#D2EBFF"/>
<stop offset="1" stop-color="#F0FFFD"/>
</linearGradient>
<clipPath id="clip0_1028_431">
<rect width="99.2799" height="99.28" fill="white"/>
</clipPath>
</defs>
</svg>
