<svg width="100" height="100" viewBox="0 0 100 100" fill="none" xmlns="http://www.w3.org/2000/svg">
<g clip-path="url(#clip0_926_289)">
<path d="M49.6401 96.45C40.382 96.45 31.3317 93.7047 23.6339 88.5611C15.936 83.4176 9.93624 76.1068 6.3933 67.5534C2.85036 59 1.92337 49.5881 3.72954 40.5078C5.53571 31.4276 9.99394 23.0868 16.5404 16.5403C23.0869 9.99384 31.4277 5.53562 40.5079 3.72945C49.5882 1.92327 59.0001 2.85027 67.5535 6.39321C76.1069 9.93614 83.4176 15.9359 88.5612 23.6338C93.7047 31.3316 96.4501 40.3819 96.4501 49.64C96.4505 55.7873 95.24 61.8745 92.8878 67.5539C90.5355 73.2334 87.0875 78.3938 82.7407 82.7406C78.3939 87.0874 73.2335 90.5354 67.554 92.8877C61.8746 95.2399 55.7874 96.4504 49.6401 96.45V96.45Z" fill="url(#paint0_linear_926_289)"/>
<path fill-rule="evenodd" clip-rule="evenodd" d="M95.54 49.64C95.54 58.7182 92.848 67.5925 87.8045 75.1407C82.7609 82.6889 75.5923 88.572 67.2052 92.0461C58.818 95.5201 49.5891 96.4291 40.6854 94.658C31.7816 92.887 23.603 88.5154 17.1838 82.0962C10.7646 75.677 6.39302 67.4984 4.62196 58.5946C2.85089 49.6909 3.75987 40.462 7.23393 32.0748C10.708 23.6877 16.5911 16.5191 24.1393 11.4755C31.6875 6.43199 40.5618 3.74 49.64 3.74C55.6677 3.73998 61.6363 4.9272 67.2052 7.23388C72.774 9.54057 77.834 12.9215 82.0963 17.1837C86.3585 21.446 89.7394 26.5059 92.0461 32.0748C94.3528 37.6437 95.54 43.6123 95.54 49.64V49.64ZM49.64 3.62732e-07C59.4579 3.62732e-07 69.0553 2.91134 77.2185 8.36585C85.3818 13.8204 91.7442 21.5731 95.5014 30.6436C99.2585 39.7141 100.242 49.6951 98.3262 59.3243C96.4108 68.9535 91.6831 77.7985 84.7408 84.7408C77.7985 91.6831 68.9535 96.4108 59.3243 98.3262C49.6951 100.242 39.7141 99.2585 30.6436 95.5014C21.5731 91.7442 13.8204 85.3818 8.36585 77.2185C2.91134 69.0553 3.62732e-07 59.4579 3.62732e-07 49.64C-0.000787738 43.121 1.28265 36.6656 3.77702 30.6427C6.27138 24.6197 9.9278 19.1471 14.5375 14.5375C19.1471 9.9278 24.6197 6.27138 30.6427 3.77702C36.6656 1.28265 43.121 -0.000787738 49.64 3.62732e-07V3.62732e-07Z" fill="#F2F1F0"/>
<path fill-rule="evenodd" clip-rule="evenodd" d="M92.7296 49.6401C92.7296 58.1625 90.2024 66.4935 85.4676 73.5796C80.7328 80.6657 74.0031 86.1887 66.1294 89.4501C58.2557 92.7114 49.5918 93.5648 41.2331 91.9021C32.8745 90.2395 25.1966 86.1356 19.1703 80.1093C13.1441 74.0831 9.04017 66.4052 7.37753 58.0465C5.7149 49.6879 6.56822 41.0239 9.8296 33.1503C13.091 25.2766 18.6139 18.5469 25.7 13.8121C32.7862 9.07727 41.1172 6.55009 49.6396 6.55009C55.2983 6.54974 60.9017 7.66407 66.1298 9.82942C71.3579 11.9948 76.1082 15.1687 80.1096 19.1701C84.1109 23.1714 87.2849 27.9218 89.4502 33.1499C91.6156 38.3779 92.7299 43.9813 92.7296 49.6401V49.6401ZM49.6396 2.81009C58.9017 2.81009 67.9558 5.55662 75.6569 10.7024C83.3581 15.8481 89.3604 23.162 92.9049 31.719C96.4493 40.2761 97.3767 49.692 95.5697 58.7762C93.7628 67.8603 89.3027 76.2046 82.7534 82.7539C76.2041 89.3032 67.8598 93.7633 58.7757 95.5703C49.6915 97.3772 40.2756 96.4498 31.7185 92.9054C23.1614 89.3609 15.8476 83.3586 10.7018 75.6574C5.5561 67.9563 2.80957 58.9022 2.80957 49.6401C2.81076 37.2204 7.745 25.3097 16.5271 16.5276C25.3091 7.7455 37.2198 2.81125 49.6396 2.81006V2.81009Z" fill="#0078D4"/>
<path fill-rule="evenodd" clip-rule="evenodd" d="M92.7637 49.6401C92.7637 58.1625 90.2366 66.4935 85.5018 73.5796C80.767 80.6657 74.0372 86.1887 66.1636 89.4501C58.2899 92.7114 49.6259 93.5648 41.2673 91.9021C32.9087 90.2395 25.2308 86.1356 19.2045 80.1093C13.1783 74.0831 9.07435 66.4052 7.41171 58.0465C5.74908 49.6879 6.6024 41.0239 9.86378 33.1503C13.1252 25.2766 18.6481 18.5469 25.7342 13.8121C32.8203 9.07727 41.1514 6.55009 49.6738 6.55009C55.3325 6.54974 60.9359 7.66407 66.164 9.82942C71.3921 11.9948 76.1424 15.1687 80.1437 19.1701C84.1451 23.1714 87.3191 27.9218 89.4844 33.1499C91.6498 38.3779 92.7641 43.9813 92.7637 49.6401V49.6401ZM49.6738 2.81009C58.9359 2.81009 67.9899 5.55662 75.6911 10.7024C83.3923 15.8481 89.3946 23.162 92.939 31.719C96.4835 40.2761 97.4109 49.692 95.6039 58.7762C93.797 67.8603 89.3369 76.2046 82.7876 82.7539C76.2383 89.3032 67.894 93.7633 58.8098 95.5703C49.7257 97.3772 40.3097 96.4498 31.7527 92.9054C23.1956 89.3609 15.8818 83.3586 10.736 75.6574C5.59028 67.9563 2.84375 58.9022 2.84375 49.6401C2.84494 37.2204 7.77918 25.3097 16.5612 16.5276C25.3433 7.7455 37.254 2.81125 49.6738 2.81006V2.81009Z" fill="#0078D4"/>
<path opacity="0.2" d="M34.1203 81.0862H65.1588C65.3218 81.0858 65.4781 81.0208 65.5934 80.9055C65.7087 80.7901 65.7737 80.6339 65.7742 80.4708V56.2381H33.5049V80.4708C33.5054 80.6339 33.5703 80.7901 33.6857 80.9055C33.801 81.0208 33.9572 81.0858 34.1203 81.0862Z" fill="#003067"/>
<path d="M34.1203 79.8192H65.1588C65.3218 79.8188 65.4781 79.7538 65.5934 79.6384C65.7087 79.5231 65.7737 79.3669 65.7742 79.2038V54.9711H33.5049V79.2038C33.5054 79.3669 33.5703 79.5231 33.6857 79.6384C33.801 79.7538 33.9572 79.8188 34.1203 79.8192V79.8192Z" fill="#F2F2F2"/>
<path d="M33.5049 57.6533H65.7742V54.7607C65.7743 54.6987 65.7623 54.6373 65.7386 54.58C65.7149 54.5227 65.6802 54.4706 65.6363 54.4267C65.5925 54.3829 65.5404 54.3481 65.4831 54.3245C65.4258 54.3008 65.3644 54.2887 65.3024 54.2889H33.9767C33.9147 54.2887 33.8533 54.3008 33.796 54.3245C33.7386 54.3481 33.6866 54.3829 33.6427 54.4267C33.5989 54.4706 33.5641 54.5227 33.5405 54.58C33.5168 54.6373 33.5047 54.6987 33.5049 54.7607V57.6533Z" fill="url(#paint1_linear_926_289)"/>
<path d="M35.9874 56.8582C36.1491 56.8577 36.3071 56.8093 36.4414 56.7189C36.5756 56.6286 36.68 56.5006 36.7415 56.3509C36.8029 56.2012 36.8186 56.0367 36.7865 55.8781C36.7545 55.7196 36.6761 55.5741 36.5614 55.46C36.4466 55.346 36.3006 55.2685 36.1418 55.2375C35.9831 55.2064 35.8187 55.2231 35.6694 55.2855C35.5201 55.3479 35.3927 55.4531 35.3032 55.5879C35.2138 55.7227 35.1663 55.881 35.1668 56.0428C35.1659 56.1506 35.1866 56.2574 35.2276 56.3571C35.2685 56.4567 35.329 56.5472 35.4055 56.6232C35.4819 56.6991 35.5728 56.7591 35.6727 56.7994C35.7726 56.8398 35.8796 56.8598 35.9874 56.8582V56.8582Z" fill="#50E6FF"/>
<path d="M62.9138 59.7354H36.3591C36.0092 59.7354 35.7256 60.019 35.7256 60.3689V76.8765C35.7256 77.2263 36.0092 77.51 36.3591 77.51H62.9138C63.2637 77.51 63.5473 77.2263 63.5473 76.8765V60.3689C63.5473 60.019 63.2637 59.7354 62.9138 59.7354Z" fill="#E8E8E8"/>
<path d="M54.2248 67.6191C54.7031 68.1032 55.1035 68.6585 55.4119 69.2651C55.5072 69.4515 55.5246 69.6682 55.4602 69.8674C55.3959 70.0666 55.255 70.2321 55.0685 70.3275C54.8821 70.4229 54.6655 70.4402 54.4662 70.3759C54.267 70.3115 54.1015 70.1706 54.0061 69.9842C53.7728 69.5243 53.4699 69.1032 53.1083 68.7357C52.5677 68.1954 51.9068 67.7908 51.1798 67.5551C50.4528 67.3194 49.6803 67.2592 48.9255 67.3796C48.1708 67.4999 47.4553 67.7973 46.8376 68.2473C46.2199 68.6974 45.7176 69.2874 45.3718 69.969C45.325 70.0615 45.2605 70.1439 45.1818 70.2115C45.1032 70.279 45.012 70.3305 44.9135 70.3628C44.815 70.3951 44.7111 70.4077 44.6077 70.3999C44.5043 70.3921 44.4035 70.364 44.311 70.3172C44.2185 70.2704 44.1361 70.2058 44.0685 70.1272C44.0009 70.0485 43.9495 69.9574 43.9172 69.8589C43.8849 69.7604 43.8723 69.6564 43.8801 69.5531C43.8879 69.4497 43.916 69.3489 43.9628 69.2563C44.4212 68.352 45.0873 67.5692 45.9066 66.9719C46.7259 66.3746 47.675 65.98 48.6762 65.8202C49.6774 65.6605 50.7022 65.7403 51.6667 66.0529C52.6311 66.3656 53.5078 66.9023 54.2248 67.6191L54.2248 67.6191ZM52.6072 69.9809C52.9735 70.3512 53.2683 70.786 53.4766 71.2634C53.5601 71.4551 53.5641 71.6721 53.4878 71.8667C53.4115 72.0614 53.2611 72.2178 53.0696 72.3017C52.8781 72.3856 52.6612 72.3901 52.4664 72.3143C52.2715 72.2384 52.1147 72.0884 52.0304 71.8971C51.9009 71.5998 51.718 71.3287 51.4907 71.0974C51.1978 70.8014 50.8366 70.582 50.439 70.4586C50.0413 70.3351 49.6194 70.3113 49.2104 70.3893C48.8014 70.4674 48.4179 70.6448 48.0936 70.9059C47.7693 71.1671 47.5142 71.504 47.3509 71.887C47.3094 71.9822 47.2496 72.0682 47.1749 72.1403C47.1002 72.2123 47.012 72.2689 46.9153 72.3068C46.8187 72.3447 46.7156 72.3631 46.6118 72.3611C46.508 72.3591 46.4057 72.3367 46.3106 72.2951C46.2155 72.2535 46.1295 72.1935 46.0576 72.1187C45.9857 72.0438 45.9293 71.9555 45.8916 71.8588C45.8538 71.7621 45.8356 71.659 45.8377 71.5552C45.8399 71.4514 45.8625 71.3491 45.9043 71.2541C46.1707 70.6356 46.5847 70.0919 47.1101 69.6707C47.6355 69.2494 48.2561 68.9634 48.9177 68.8377C49.5793 68.7121 50.2616 68.7506 50.9048 68.9499C51.548 69.1492 52.1326 69.5032 52.6072 69.9809V69.9809ZM56.3052 65.7168C56.7138 66.1279 57.0847 66.5748 57.4135 67.0522C57.4726 67.1375 57.5143 67.2337 57.5362 67.3351C57.5582 67.4366 57.5599 67.5414 57.5413 67.6435C57.5226 67.7456 57.4841 67.8431 57.4278 67.9303C57.3714 68.0175 57.2985 68.0927 57.213 68.1517C57.1276 68.2106 57.0314 68.2522 56.9299 68.2739C56.8284 68.2956 56.7236 68.2971 56.6215 68.2783C56.5194 68.2595 56.422 68.2207 56.335 68.1642C56.2479 68.1078 56.1728 68.0346 56.114 67.9491C55.8394 67.5503 55.5298 67.1769 55.1887 66.8333C53.7206 65.3652 51.7295 64.5404 49.6533 64.5404C47.5771 64.5404 45.586 65.3652 44.1179 66.8333C43.7805 67.1767 43.474 67.549 43.2018 67.9461C43.082 68.1171 42.8994 68.2337 42.6939 68.2704C42.4883 68.3071 42.2766 68.2609 42.1051 68.1419C41.9336 68.0229 41.8161 67.8408 41.7785 67.6354C41.7409 67.4301 41.7862 67.2182 41.9044 67.0461C42.2303 66.5716 42.5973 66.1267 43.0014 65.7168C44.7656 63.9526 47.1584 62.9615 49.6533 62.9615C52.1482 62.9615 54.541 63.9526 56.3052 65.7168H56.3052ZM50.4964 72.1452C50.6621 72.3109 50.7749 72.5221 50.8207 72.7519C50.8664 72.9818 50.8429 73.22 50.7532 73.4366C50.6635 73.6531 50.5116 73.8382 50.3168 73.9684C50.1219 74.0986 49.8928 74.1681 49.6584 74.1681C49.424 74.1681 49.1949 74.0986 49.0001 73.9684C48.8052 73.8382 48.6533 73.6531 48.5636 73.4366C48.4739 73.22 48.4505 72.9818 48.4962 72.7519C48.5419 72.5221 48.6547 72.3109 48.8205 72.1452C48.9305 72.0351 49.0611 71.9478 49.2049 71.8883C49.3487 71.8287 49.5028 71.7981 49.6584 71.7981C49.814 71.7981 49.9681 71.8287 50.1119 71.8883C50.2557 71.9478 50.3863 72.0351 50.4964 72.1452H50.4964Z" fill="#767676"/>
<path d="M62.1863 28.4284L62.3028 27.4085C62.3582 26.9203 62.3861 26.4293 62.3861 25.9379C62.3837 23.2701 61.5435 20.6705 59.9842 18.5059C58.4249 16.3412 56.2252 14.721 53.6955 13.8737C51.1659 13.0265 48.434 12.9951 45.8855 13.7839C43.3371 14.5727 41.1006 16.1419 39.4919 18.2701C37.8832 20.3982 36.9835 22.9778 36.9197 25.6449C36.8558 28.3119 37.6312 30.9316 39.1363 33.1342C40.6413 35.3369 42.8001 37.0113 45.308 37.9211C47.8158 38.8309 50.5461 38.9302 53.1133 38.2049L53.4601 38.1068C53.9289 38.5202 54.4261 38.935 54.9839 39.3534C55.3642 39.6385 55.8267 39.7926 56.3019 39.7926C56.7772 39.7926 57.2397 39.6385 57.6199 39.3534C61.2 36.6685 62.9399 34.0958 62.9399 31.4891C62.9399 30.4229 62.6813 29.3727 62.1863 28.4284V28.4284Z" fill="#C3F1FF"/>
<path d="M49.6395 14.8326C51.206 14.8338 52.7545 15.1662 54.1835 15.8079C55.6125 16.4496 56.8897 17.3861 57.9314 18.556C58.9731 19.726 59.7557 21.1029 60.2278 22.5965C60.7 24.0901 60.8512 25.6667 60.6713 27.2228C60.2076 26.7477 59.6697 26.3511 59.0787 26.0486C59.079 26.0117 59.0792 25.9748 59.0793 25.9379C59.0798 25.1893 58.9915 24.4433 58.8163 23.7155L55.0877 23.7165C55.1431 24.2912 55.1773 24.8815 55.1887 25.4833C54.6104 25.5897 54.0508 25.7797 53.5272 26.0472L53.5275 25.9379C53.5279 25.1959 53.4891 24.4544 53.4113 23.7165H45.8677C45.7899 24.4544 45.7511 25.1959 45.7515 25.9379C45.7496 27.0537 45.8386 28.1677 46.0177 29.2691H50.6107C50.4024 29.8028 50.2707 30.3634 50.2196 30.9342H46.3763C47.1003 33.6148 48.3587 35.3776 49.6395 35.3776C49.9249 35.3571 50.2029 35.2781 50.4564 35.1455C50.7099 35.013 50.9334 34.8297 51.113 34.607C51.5521 35.3369 52.0732 36.0142 52.6662 36.6258C51.1387 37.0582 49.5362 37.1581 47.9669 36.9189C46.3975 36.6796 44.8976 36.1067 43.5684 35.2388C42.2392 34.3708 41.1115 33.228 40.2613 31.8874C39.4111 30.5467 38.8581 29.0394 38.6398 27.467C38.4214 25.8946 38.5426 24.2936 38.9953 22.772C39.448 21.2504 40.2216 19.8435 41.2641 18.6462C42.3065 17.4489 43.5934 16.489 45.0382 15.8311C46.483 15.1732 48.052 14.8327 49.6395 14.8326V14.8326ZM44.6521 30.9348L41.6292 30.9347C42.7014 32.65 44.2944 33.9771 46.1752 34.7217C45.5409 33.6821 45.0655 32.5535 44.7647 31.3734L44.6521 30.9348ZM44.1914 23.7164H40.4633L40.458 23.7356C40.0203 25.5735 40.1409 27.5003 40.8044 29.2693L44.3278 29.2688C44.1649 28.166 44.0841 27.0526 44.086 25.9378C44.086 25.1784 44.122 24.4353 44.1914 23.7164V23.7164ZM46.1764 17.154L46.1509 17.1637C43.8781 18.0709 42.0446 19.8224 41.0344 22.0514L44.4189 22.0518C44.687 20.322 45.2835 18.6596 46.1764 17.154V17.154ZM49.6395 16.4981L49.5111 16.504C48.1061 16.6325 46.7486 18.8554 46.1182 22.0513H53.1608C52.5321 18.8644 51.1806 16.645 49.7798 16.5051L49.6395 16.4981ZM53.1039 17.1541L53.2224 17.3474C54.0444 18.8054 54.599 20.3986 54.8601 22.0518L58.2446 22.0514C57.2806 19.9245 55.565 18.2284 53.4272 17.2888L53.1039 17.1541ZM61.2983 31.4892C61.2983 30.164 60.7719 28.8931 59.8348 27.9561C58.8978 27.019 57.6269 26.4926 56.3017 26.4926C54.9765 26.4926 53.7056 27.019 52.7685 27.9561C51.8315 28.8931 51.3051 30.164 51.3051 31.4892C51.3051 33.5573 52.8816 35.725 55.9686 38.0403C56.0647 38.1124 56.1816 38.1513 56.3017 38.1513C56.4218 38.1513 56.5387 38.1124 56.6348 38.0403C59.7218 35.7249 61.2983 33.5573 61.2983 31.4891V31.4892ZM54.6362 31.4892C54.6362 31.1598 54.7338 30.8378 54.9168 30.5639C55.0999 30.29 55.36 30.0765 55.6643 29.9504C55.9687 29.8244 56.3035 29.7914 56.6266 29.8557C56.9497 29.9199 57.2465 30.0786 57.4794 30.3115C57.7123 30.5444 57.871 30.8412 57.9352 31.1643C57.9995 31.4873 57.9665 31.8222 57.8404 32.1266C57.7144 32.4309 57.5009 32.691 57.227 32.874C56.9531 33.0571 56.6311 33.1547 56.3017 33.1547C56.083 33.1547 55.8664 33.1117 55.6643 33.028C55.4622 32.9443 55.2786 32.8216 55.1239 32.6669C54.9693 32.5122 54.8466 32.3286 54.7629 32.1265C54.6792 31.9244 54.6361 31.7079 54.6362 31.4891V31.4892Z" fill="url(#paint2_linear_926_289)"/>
<path d="M49.6365 41.2993C49.9845 41.2993 50.2665 41.0173 50.2665 40.6694C50.2665 40.3215 49.9845 40.0394 49.6365 40.0394C49.2886 40.0394 49.0066 40.3215 49.0066 40.6694C49.0066 41.0173 49.2886 41.2993 49.6365 41.2993Z" fill="#C3F1FF"/>
<path d="M49.6365 43.6395C49.9845 43.6395 50.2665 43.3575 50.2665 43.0096C50.2665 42.6616 49.9845 42.3796 49.6365 42.3796C49.2886 42.3796 49.0066 42.6616 49.0066 43.0096C49.0066 43.3575 49.2886 43.6395 49.6365 43.6395Z" fill="#C3F1FF"/>
<path d="M49.6365 45.9797C49.9845 45.9797 50.2665 45.6977 50.2665 45.3498C50.2665 45.0018 49.9845 44.7198 49.6365 44.7198C49.2886 44.7198 49.0066 45.0018 49.0066 45.3498C49.0066 45.6977 49.2886 45.9797 49.6365 45.9797Z" fill="#C3F1FF"/>
<path d="M49.6365 48.3199C49.9845 48.3199 50.2665 48.0379 50.2665 47.69C50.2665 47.3421 49.9845 47.06 49.6365 47.06C49.2886 47.06 49.0066 47.3421 49.0066 47.69C49.0066 48.0379 49.2886 48.3199 49.6365 48.3199Z" fill="#C3F1FF"/>
<path d="M49.6365 50.6601C49.9845 50.6601 50.2665 50.3781 50.2665 50.0302C50.2665 49.6822 49.9845 49.4002 49.6365 49.4002C49.2886 49.4002 49.0066 49.6822 49.0066 50.0302C49.0066 50.3781 49.2886 50.6601 49.6365 50.6601Z" fill="#C3F1FF"/>
<path d="M49.6365 53.0003C49.9845 53.0003 50.2665 52.7183 50.2665 52.3704C50.2665 52.0224 49.9845 51.7404 49.6365 51.7404C49.2886 51.7404 49.0066 52.0224 49.0066 52.3704C49.0066 52.7183 49.2886 53.0003 49.6365 53.0003Z" fill="#C3F1FF"/>
</g>
<defs>
<linearGradient id="paint0_linear_926_289" x1="47.8697" y1="-15.1531" x2="51.8525" y2="130.615" gradientUnits="userSpaceOnUse">
<stop stop-color="#00ABDE"/>
<stop offset="1" stop-color="#007ED8"/>
</linearGradient>
<linearGradient id="paint1_linear_926_289" x1="33.5049" y1="55.9711" x2="65.832" y2="55.9711" gradientUnits="userSpaceOnUse">
<stop stop-color="#005BA1"/>
<stop offset="0.26" stop-color="#00589D"/>
<stop offset="0.53" stop-color="#004F90"/>
<stop offset="0.8" stop-color="#003F7C"/>
<stop offset="1" stop-color="#003067"/>
</linearGradient>
<linearGradient id="paint2_linear_926_289" x1="49.9163" y1="38.1513" x2="49.9163" y2="14.8326" gradientUnits="userSpaceOnUse">
<stop stop-color="#004DAE"/>
<stop offset="0.21" stop-color="#0061C4"/>
<stop offset="0.51" stop-color="#0078DD"/>
<stop offset="0.78" stop-color="#0086EC"/>
<stop offset="1" stop-color="#008BF1"/>
</linearGradient>
<clipPath id="clip0_926_289">
<rect width="99.2799" height="99.28" fill="white"/>
</clipPath>
</defs>
</svg>
