<?xml version="1.0" encoding="UTF-8"?>
<svg width="102px" height="102px" viewBox="0 0 102 102" version="1.1" xmlns="http://www.w3.org/2000/svg" xmlns:xlink="http://www.w3.org/1999/xlink">
    <title>Information Protection and Governance in Microsoft 365/manage-records-in-microsoft-365</title>
    <defs>
        <rect id="path-1" x="0" y="0" width="94.3396226" height="94.3396226" rx="47.1698113"></rect>
        <filter x="-2.9%" y="-2.9%" width="106.4%" height="106.4%" filterUnits="objectBoundingBox" id="filter-3">
            <feMorphology radius="2.5" operator="dilate" in="SourceAlpha" result="shadowSpreadOuter1"></feMorphology>
            <feOffset dx="0.5" dy="0.5" in="shadowSpreadOuter1" result="shadowOffsetOuter1"></feOffset>
            <feMorphology radius="1" operator="erode" in="SourceAlpha" result="shadowInner"></feMorphology>
            <feOffset dx="0.5" dy="0.5" in="shadowInner" result="shadowInner"></feOffset>
            <feComposite in="shadowOffsetOuter1" in2="shadowInner" operator="out" result="shadowOffsetOuter1"></feComposite>
            <feColorMatrix values="0 0 0 0 0.821822822   0 0 0 0 0.831640661   0 0 0 0 0.835737288  0 0 0 1 0" type="matrix" in="shadowOffsetOuter1"></feColorMatrix>
        </filter>
        <linearGradient x1="77.8299825%" y1="11.1997378%" x2="-99.6885927%" y2="253.807911%" id="linearGradient-4">
            <stop stop-color="#FFFFFF" offset="0%"></stop>
            <stop stop-color="#000000" stop-opacity="0.5" offset="100%"></stop>
        </linearGradient>
        <rect id="path-5" x="0" y="0" width="94.3396226" height="94.3396226"></rect>
        <path d="M48.1132075,0.739331515 C74.2770768,0.739331515 95.4870836,21.9493383 95.4870836,48.1132075 C95.4870836,74.2770768 74.2770768,95.4870836 48.1132075,95.4870836 C21.9493383,95.4870836 0.739331515,74.2770768 0.739331515,48.1132075 C0.739331515,21.9493383 21.9493383,0.739331515 48.1132075,0.739331515 Z M48.1132075,4.71698113 C24.1461335,4.71698113 4.71698113,24.1461335 4.71698113,48.1132075 C4.71698113,72.0802816 24.1461335,91.509434 48.1132075,91.509434 C72.0802816,91.509434 91.509434,72.0802816 91.509434,48.1132075 C91.509434,24.1461335 72.0802816,4.71698113 48.1132075,4.71698113 Z" id="path-6"></path>
        <filter x="-35.3%" y="-48.0%" width="170.6%" height="196.0%" filterUnits="objectBoundingBox" id="filter-8">
            <feOffset dx="0" dy="2" in="SourceAlpha" result="shadowOffsetOuter1"></feOffset>
            <feGaussianBlur stdDeviation="2" in="shadowOffsetOuter1" result="shadowBlurOuter1"></feGaussianBlur>
            <feColorMatrix values="0 0 0 0 0   0 0 0 0 0   0 0 0 0 0  0 0 0 0.0964956975 0" type="matrix" in="shadowBlurOuter1" result="shadowMatrixOuter1"></feColorMatrix>
            <feMerge>
                <feMergeNode in="shadowMatrixOuter1"></feMergeNode>
                <feMergeNode in="SourceGraphic"></feMergeNode>
            </feMerge>
        </filter>
        <linearGradient x1="50%" y1="0%" x2="50%" y2="100%" id="linearGradient-9">
            <stop stop-color="#D48E15" offset="0%"></stop>
            <stop stop-color="#996A20" offset="100%"></stop>
        </linearGradient>
        <linearGradient x1="50%" y1="0%" x2="50%" y2="100%" id="linearGradient-10">
            <stop stop-color="#FFBB00" offset="0%"></stop>
            <stop stop-color="#D48E15" offset="100%"></stop>
        </linearGradient>
        <filter x="-26.1%" y="-34.3%" width="152.2%" height="168.6%" filterUnits="objectBoundingBox" id="filter-11">
            <feOffset dx="0" dy="2" in="SourceAlpha" result="shadowOffsetOuter1"></feOffset>
            <feGaussianBlur stdDeviation="2" in="shadowOffsetOuter1" result="shadowBlurOuter1"></feGaussianBlur>
            <feColorMatrix values="0 0 0 0 0   0 0 0 0 0   0 0 0 0 0  0 0 0 0.0964956975 0" type="matrix" in="shadowBlurOuter1" result="shadowMatrixOuter1"></feColorMatrix>
            <feMerge>
                <feMergeNode in="shadowMatrixOuter1"></feMergeNode>
                <feMergeNode in="SourceGraphic"></feMergeNode>
            </feMerge>
        </filter>
        <linearGradient x1="50%" y1="0%" x2="50%" y2="100%" id="linearGradient-12">
            <stop stop-color="#D48E15" offset="0%"></stop>
            <stop stop-color="#996A20" offset="100%"></stop>
        </linearGradient>
        <linearGradient x1="50%" y1="0%" x2="50%" y2="100%" id="linearGradient-13">
            <stop stop-color="#FFBB00" offset="0%"></stop>
            <stop stop-color="#D48E15" offset="100%"></stop>
        </linearGradient>
        <filter x="-22.2%" y="-28.6%" width="144.4%" height="157.1%" filterUnits="objectBoundingBox" id="filter-14">
            <feOffset dx="0" dy="2" in="SourceAlpha" result="shadowOffsetOuter1"></feOffset>
            <feGaussianBlur stdDeviation="2" in="shadowOffsetOuter1" result="shadowBlurOuter1"></feGaussianBlur>
            <feColorMatrix values="0 0 0 0 0   0 0 0 0 0   0 0 0 0 0  0 0 0 0.0964956975 0" type="matrix" in="shadowBlurOuter1" result="shadowMatrixOuter1"></feColorMatrix>
            <feMerge>
                <feMergeNode in="shadowMatrixOuter1"></feMergeNode>
                <feMergeNode in="SourceGraphic"></feMergeNode>
            </feMerge>
        </filter>
        <linearGradient x1="50%" y1="0%" x2="50%" y2="100%" id="linearGradient-15">
            <stop stop-color="#D48E15" offset="0%"></stop>
            <stop stop-color="#996A20" offset="100%"></stop>
        </linearGradient>
        <linearGradient x1="50%" y1="0%" x2="50%" y2="100%" id="linearGradient-16">
            <stop stop-color="#FFBB00" offset="0%"></stop>
            <stop stop-color="#D48E15" offset="100%"></stop>
        </linearGradient>
        <linearGradient x1="50%" y1="-9.93901477%" x2="50%" y2="100%" id="linearGradient-17">
            <stop stop-color="#FFFFFF" offset="0%"></stop>
            <stop stop-color="#CBCBCB" offset="100%"></stop>
        </linearGradient>
        <path d="M26,13.0864198 L26,10.3209877 L22.9380165,9.33333333 L22.1859504,7.45679012 L23.6900826,4.54320988 L23.6900826,4.24691358 L22.7231405,3.35802469 L21.5950413,2.17283951 L21.1652893,2.17283951 L18.1570248,3.65432099 L16.1157025,3.11111111 L14.7727273,0 L11.8181818,0 L10.7975207,2.81481481 L8.54132231,3.65432099 L5.04958678,2.12345679 L2.95454545,4.04938272 L2.95454545,4.39506173 L4.51239669,7.16049383 L3.59917355,9.2345679 L0,10.4691358 L0,13.2345679 L0.429752066,13.2345679 L3.59917355,14.2222222 L4.45867769,16.0987654 L2.84710744,19.308642 L4.94214876,21.2839506 L5.37190083,21.2839506 L8.32644628,19.9012346 L10.4214876,20.691358 L11.7107438,24 L14.7190083,24 L14.7190083,23.6049383 L15.7396694,20.6419753 L17.7809917,19.8518519 L21.3264463,21.382716 L23.4214876,19.4567901 L23.4214876,19.0617284 L21.9173554,16.2962963 L22.5082645,14.3703704 L26,13.0864198 Z M13.2154577,15.4282519 C10.9771534,15.2064071 9.28571429,13.5463533 9.28571429,11.5714265 C9.28571429,9.59649969 10.9771534,7.93644587 13.2154577,7.7146011 C14.3843969,7.70146073 15.5106277,8.09940708 16.3425088,8.81952434 C17.1743899,9.5396416 17.6425888,10.5219122 17.6424927,11.5468607 C17.6577039,12.5803004 17.1961717,13.5753151 16.3626214,14.3061281 C15.529071,15.0369412 14.3941777,15.4415883 13.2154577,15.4282519 Z" id="path-18"></path>
        <filter x="-26.9%" y="-20.8%" width="153.8%" height="158.3%" filterUnits="objectBoundingBox" id="filter-19">
            <feOffset dx="0" dy="2" in="SourceAlpha" result="shadowOffsetOuter1"></feOffset>
            <feGaussianBlur stdDeviation="2" in="shadowOffsetOuter1" result="shadowBlurOuter1"></feGaussianBlur>
            <feColorMatrix values="0 0 0 0 0   0 0 0 0 0   0 0 0 0 0  0 0 0 0.1 0" type="matrix" in="shadowBlurOuter1"></feColorMatrix>
        </filter>
    </defs>
    <g id="Badges" stroke="none" stroke-width="1" fill="none" fill-rule="evenodd">
        <g id="Information-Protection-and-Governance-in-Microsoft-365" transform="translate(-159.000000, -889.000000)">
            <g id="Information-Protection-and-Governance-in-Microsoft-365/manage-records-in-microsoft-365" transform="translate(160.000000, 890.000000)">
                <g id="Badge-Plates/Circle">
                    <g id="BG" transform="translate(2.830189, 2.830189)">
                        <mask id="mask-2" fill="white">
                            <use xlink:href="#path-1"></use>
                        </mask>
                        <g>
                            <use fill="black" fill-opacity="1" filter="url(#filter-3)" xlink:href="#path-1"></use>
                            <rect stroke="#F2F1F0" stroke-width="2.5" x="-1.25" y="-1.25" width="96.8396226" height="96.8396226" rx="48.4198113"></rect>
                        </g>
                        <g id="Colors/Microsoft-365/BG-Solid-Badge" mask="url(#mask-2)">
                            <g id="Rectangle">
                                <use fill="#0078D4" xlink:href="#path-5"></use>
                                <use fill-opacity="0.4" fill="url(#linearGradient-4)" xlink:href="#path-5"></use>
                            </g>
                        </g>
                    </g>
                    <g id="Border" transform="translate(1.886792, 1.886792)">
                        <mask id="mask-7" fill="white">
                            <use xlink:href="#path-6"></use>
                        </mask>
                        <use id="Boarder" fill="#0078D4" fill-rule="nonzero" xlink:href="#path-6"></use>
                        <g id="Colors/Microsoft-365/Border" mask="url(#mask-7)" fill="#0076D7">
                            <g transform="translate(-1.886792, -1.886792)" id="Microsoft-365/Border">
                                <rect x="0" y="0" width="100" height="100"></rect>
                            </g>
                        </g>
                    </g>
                </g>
                <g id="Group-4" transform="translate(33.950000, 19.000000)">
                    <g id="Folder" filter="url(#filter-8)" transform="translate(0.050000, 0.000000)">
                        <path d="M13.28125,0.023269818 L2.125,0.023269818 C0.95625,0.023269818 0,0.933297291 0,2.04555309 L0,7.10126127 L34,7.10126127 L34,5.078978 C34,3.9667222 33.0442813,3.05669473 31.875,3.05669473 L15.9375,3.05669473 L13.28125,0.023269818" id="Fill-213" fill="url(#linearGradient-9)"></path>
                        <path d="M34,22.7436224 C34,23.872562 33.0442813,24.7962399 31.875,24.7962399 L2.125,24.7962399 C0.95625,24.7962399 0,23.872562 0,22.7436224 L0,6.32268221 C0,5.19374257 0.95625,4.27006469 2.125,4.27006469 L31.875,4.27006469 C33.0442813,4.27006469 34,5.19374257 34,6.32268221 L34,22.7436224" id="Fill-214" fill="url(#linearGradient-10)"></path>
                    </g>
                </g>
                <g id="Group-4" transform="translate(26.950000, 25.000000)">
                    <g id="Folder" filter="url(#filter-11)" transform="translate(0.050000, 0.000000)">
                        <path d="M17.96875,0.0325777452 L2.875,0.0325777452 C1.29375,0.0325777452 0,1.30661621 0,2.86377433 L0,9.94176578 L46,9.94176578 L46,7.1105692 C46,5.55341108 44.7069688,4.27937262 43.125,4.27937262 L21.5625,4.27937262 L17.96875,0.0325777452" id="Fill-213" fill="url(#linearGradient-12)"></path>
                        <path d="M46,31.8410713 C46,33.4215868 44.7069688,34.7147359 43.125,34.7147359 L2.875,34.7147359 C1.29375,34.7147359 0,33.4215868 0,31.8410713 L0,8.8517551 C0,7.2712396 1.29375,5.97809057 2.875,5.97809057 L43.125,5.97809057 C44.7069688,5.97809057 46,7.2712396 46,8.8517551 L46,31.8410713" id="Fill-214" fill="url(#linearGradient-13)"></path>
                    </g>
                </g>
                <g id="Group-4" transform="translate(22.950000, 33.000000)">
                    <g id="Folder" filter="url(#filter-14)" transform="translate(0.050000, 0.000000)">
                        <path d="M21.09375,0.0390932943 L3.375,0.0390932943 C1.51875,0.0390932943 0,1.56793945 0,3.43652919 L0,11.9301189 L54,11.9301189 L54,8.53268304 C54,6.66409329 52.4820938,5.13524714 50.625,5.13524714 L25.3125,5.13524714 L21.09375,0.0390932943" id="Fill-213" fill="url(#linearGradient-15)"></path>
                        <path d="M54,38.2092856 C54,40.1059042 52.4820938,41.657683 50.625,41.657683 L3.375,41.657683 C1.51875,41.657683 0,40.1059042 0,38.2092856 L0,10.6221061 C0,8.72548753 1.51875,7.17370868 3.375,7.17370868 L50.625,7.17370868 C52.4820938,7.17370868 54,8.72548753 54,10.6221061 L54,38.2092856" id="Fill-214" fill="url(#linearGradient-16)"></path>
                    </g>
                </g>
                <g id="Group-22" transform="translate(36.950000, 46.000000)">
                    <g id="a30ee4c9-49d5-4d00-a305-a6a3597e53b7" transform="translate(0.050000, 0.000000)" fill-rule="nonzero">
                        <g id="Shape">
                            <use fill="black" fill-opacity="1" filter="url(#filter-19)" xlink:href="#path-18"></use>
                            <use fill="url(#linearGradient-17)" xlink:href="#path-18"></use>
                        </g>
                    </g>
                    <circle id="Oval" fill="#FFFFFF" cx="13.05" cy="12" r="5"></circle>
                </g>
            </g>
        </g>
    </g>
</svg>