<svg width="100" height="100" viewBox="0 0 100 100" fill="none" xmlns="http://www.w3.org/2000/svg">
<g clip-path="url(#clip0)">
<path d="M49.6401 96.4481C40.382 96.4481 31.3317 93.7028 23.6339 88.5592C15.936 83.4157 9.93624 76.105 6.3933 67.5516C2.85036 58.9981 1.92337 49.5862 3.72954 40.506C5.53571 31.4257 9.99394 23.085 16.5404 16.5385C23.0869 9.99198 31.4277 5.53376 40.5079 3.72759C49.5882 1.92141 59.0001 2.84841 67.5535 6.39135C76.1069 9.93428 83.4176 15.934 88.5612 23.6319C93.7047 31.3298 96.4501 40.38 96.4501 49.6381C96.4505 55.7854 95.24 61.8726 92.8878 67.5521C90.5355 73.2315 87.0875 78.392 82.7407 82.7388C78.3939 87.0856 73.2335 90.5335 67.554 92.8858C61.8746 95.2381 55.7874 96.4486 49.6401 96.4481V96.4481Z" fill="url(#paint0_linear)"/>
<path fill-rule="evenodd" clip-rule="evenodd" d="M95.54 49.64C95.54 58.7182 92.848 67.5925 87.8045 75.1407C82.7609 82.6889 75.5923 88.572 67.2052 92.0461C58.818 95.5201 49.5891 96.4291 40.6854 94.658C31.7816 92.887 23.603 88.5154 17.1838 82.0962C10.7646 75.677 6.39302 67.4984 4.62196 58.5946C2.85089 49.6909 3.75987 40.462 7.23393 32.0748C10.708 23.6877 16.5911 16.5191 24.1393 11.4755C31.6875 6.43199 40.5618 3.74 49.64 3.74C55.6677 3.73998 61.6363 4.9272 67.2052 7.23388C72.774 9.54057 77.834 12.9215 82.0963 17.1837C86.3585 21.446 89.7394 26.5059 92.0461 32.0748C94.3528 37.6437 95.54 43.6123 95.54 49.64V49.64ZM49.64 3.62732e-07C59.4579 3.62732e-07 69.0553 2.91134 77.2185 8.36585C85.3818 13.8204 91.7442 21.5731 95.5014 30.6436C99.2585 39.7141 100.242 49.6951 98.3262 59.3243C96.4108 68.9535 91.6831 77.7985 84.7408 84.7408C77.7985 91.6831 68.9535 96.4108 59.3243 98.3262C49.6951 100.242 39.7141 99.2585 30.6436 95.5014C21.5731 91.7442 13.8204 85.3818 8.36585 77.2185C2.91134 69.0553 3.62732e-07 59.4579 3.62732e-07 49.64C-0.000787738 43.121 1.28265 36.6656 3.77702 30.6427C6.27138 24.6197 9.9278 19.1471 14.5375 14.5375C19.1471 9.9278 24.6197 6.27138 30.6427 3.77702C36.6656 1.28265 43.121 -0.000787738 49.64 3.62732e-07V3.62732e-07Z" fill="#F2F1F0"/>
<path fill-rule="evenodd" clip-rule="evenodd" d="M92.7296 49.6386C92.7296 58.161 90.2024 66.492 85.4676 73.5781C80.7328 80.6643 74.0031 86.1872 66.1294 89.4486C58.2557 92.71 49.5918 93.5633 41.2331 91.9007C32.8745 90.238 25.1966 86.1341 19.1703 80.1079C13.1441 74.0816 9.04017 66.4037 7.37753 58.0451C5.7149 49.6864 6.56822 41.0225 9.8296 33.1488C13.091 25.2751 18.6139 18.5454 25.7 13.8106C32.7862 9.07581 41.1172 6.54862 49.6396 6.54862C55.2983 6.54828 60.9017 7.6626 66.1298 9.82795C71.3579 11.9933 76.1082 15.1673 80.1096 19.1686C84.1109 23.17 87.2849 27.9203 89.4502 33.1484C91.6156 38.3765 92.7299 43.9799 92.7296 49.6386V49.6386ZM49.6396 2.80862C58.9017 2.80862 67.9558 5.55515 75.6569 10.7009C83.3581 15.8466 89.3604 23.1605 92.9049 31.7176C96.4493 40.2746 97.3767 49.6906 95.5697 58.7747C93.7628 67.8588 89.3027 76.2031 82.7534 82.7524C76.2041 89.3017 67.8598 93.7619 58.7757 95.5688C49.6915 97.3757 40.2756 96.4484 31.7185 92.9039C23.1614 89.3594 15.8476 83.3571 10.7018 75.656C5.5561 67.9548 2.80957 58.9007 2.80957 49.6386C2.81076 37.2189 7.745 25.3082 16.5271 16.5261C25.3091 7.74403 37.2198 2.80979 49.6396 2.80859V2.80862Z" fill="#0078D4"/>
<path fill-rule="evenodd" clip-rule="evenodd" d="M64.0174 69.1444C64.0147 70.0929 63.6366 71.0018 62.9659 71.6725C62.2952 72.3432 61.3863 72.7212 60.4378 72.724H28.2208C27.2722 72.7212 26.3633 72.3432 25.6926 71.6725C25.0219 71.0018 24.6439 70.0929 24.6411 69.1443V42.2969H64.0174V69.1444Z" fill="#1F56A3"/>
<path fill-rule="evenodd" clip-rule="evenodd" d="M64.0174 42.296C64.0147 43.2445 63.6366 44.1534 62.9659 44.8241C62.2952 45.4948 61.3863 45.8729 60.4378 45.8757H28.2208C27.2722 45.8729 26.3634 45.4948 25.6926 44.8241C25.0219 44.1534 24.6439 43.2445 24.6411 42.296V38.7163C24.6439 37.7678 25.0219 36.8589 25.6926 36.1882C26.3634 35.5175 27.2722 35.1395 28.2208 35.1367H60.4378C61.3863 35.1395 62.2952 35.5175 62.9659 36.1882C63.6366 36.8589 64.0147 37.7678 64.0174 38.7163V42.296Z" fill="#0078D4"/>
<path opacity="0.2" fill-rule="evenodd" clip-rule="evenodd" d="M60.4377 46.7711H46.119C45.884 46.771 45.6512 46.8173 45.434 46.9072C45.2169 46.9971 45.0195 47.1289 44.8533 47.2951C44.6871 47.4614 44.5553 47.6587 44.4653 47.8759C44.3754 48.093 44.3292 48.3258 44.3292 48.5609V69.1439C44.3293 69.3789 44.2831 69.6117 44.1931 69.8289C44.1032 70.0461 43.9714 70.2434 43.8052 70.4096C43.639 70.5759 43.4416 70.7077 43.2245 70.7976C43.0073 70.8876 42.7745 70.9338 42.5394 70.9337H28.2208C27.2722 70.931 26.3634 70.5529 25.6926 69.8822C25.0219 69.2115 24.6439 68.3026 24.6411 67.3541V69.1439C24.6439 70.0924 25.0219 71.0013 25.6926 71.672C26.3633 72.3427 27.2722 72.7208 28.2208 72.7235H60.4378C61.3863 72.7208 62.2952 72.3427 62.9659 71.672C63.6366 71.0013 64.0147 70.0924 64.0174 69.1439V43.1914C64.0147 44.1399 63.6366 45.0488 62.9659 45.7196C62.2952 46.3903 61.3863 46.7683 60.4377 46.7711V46.7711Z" fill="#003067"/>
<path fill-rule="evenodd" clip-rule="evenodd" d="M36.2751 40.5089C36.2751 41.9909 34.6723 43.1937 32.6954 43.1937C30.7185 43.1937 29.1157 41.9909 29.1157 40.5089C29.1157 39.0269 30.7185 37.8242 32.6954 37.8242C34.6723 37.8242 36.2751 39.027 36.2751 40.5089Z" fill="#1F56A3"/>
<path fill-rule="evenodd" clip-rule="evenodd" d="M59.5431 40.5089C59.5431 41.9909 57.9403 43.1937 55.9635 43.1937C53.9866 43.1937 52.3838 41.9909 52.3838 40.5089C52.3838 39.0269 53.9866 37.8242 55.9635 37.8242C57.9403 37.8242 59.5431 39.027 59.5431 40.5089Z" fill="#1F56A3"/>
<path fill-rule="evenodd" clip-rule="evenodd" d="M44.3294 15.4492C40.5332 15.4536 36.8938 16.9636 34.2095 19.6479C31.5252 22.3322 30.0152 25.9717 30.0107 29.7678V42.2653C30.777 42.8655 31.7222 43.1916 32.6955 43.1916C33.6688 43.1916 34.614 42.8655 35.3803 42.2653V29.7678C35.3803 27.3944 36.3231 25.1181 38.0014 23.4398C39.6797 21.7616 41.9559 20.8187 44.3294 20.8187C46.7029 20.8187 48.9791 21.7616 50.6574 23.4398C52.3357 25.1181 53.2785 27.3944 53.2785 29.7678V35.6134C53.4007 36.2357 53.7353 36.7962 54.225 37.1991C54.7147 37.602 55.3291 37.8223 55.9633 37.8223C56.5974 37.8223 57.2119 37.602 57.7016 37.1991C58.1913 36.7962 58.5258 36.2357 58.648 35.6134V29.7678C58.6436 25.9717 57.1336 22.3322 54.4493 19.6479C51.765 16.9636 48.1256 15.4536 44.3294 15.4492Z" fill="white"/>
<path fill-rule="evenodd" clip-rule="evenodd" d="M39.1962 21.5002C37.5125 22.2375 36.0832 23.454 35.0863 24.9982C34.0894 26.5423 33.5692 28.3458 33.5904 30.1836V39.3439C33.5916 39.6176 33.5298 39.888 33.4098 40.134C33.2898 40.38 33.1148 40.5952 32.8983 40.7627C32.6819 40.9303 32.4297 41.0459 32.1615 41.1004C31.8932 41.155 31.616 41.1471 31.3513 41.0774C30.8689 40.969 30.4131 40.7651 30.0107 40.4778V42.2676C30.7681 42.8838 31.7193 43.212 32.6955 43.1938C32.9962 43.1915 33.2959 43.1597 33.5904 43.099C33.7675 43.0644 33.9424 43.019 34.114 42.9629C34.2007 42.9343 34.2813 42.8985 34.3636 42.8654C34.4871 42.8153 34.607 42.7616 34.7216 42.7016C34.7834 42.6685 34.8451 42.6372 34.9042 42.6014C35.0722 42.5041 35.2315 42.3924 35.3803 42.2676V29.7701C35.3831 27.5525 36.2081 25.4147 37.6958 23.7701C39.1835 22.1256 41.2282 21.091 43.4345 20.8666C41.9908 20.716 40.5326 20.934 39.1962 21.5002Z" fill="#E8E8E8"/>
<path fill-rule="evenodd" clip-rule="evenodd" d="M44.3297 15.4492C44.0281 15.4492 43.7328 15.4752 43.4348 15.4949C47.0667 15.7238 50.4753 17.3265 52.9685 19.9774C55.4617 22.6283 56.8525 26.1287 56.8585 29.7679V33.9723C56.8594 34.2465 56.7971 34.5172 56.6766 34.7634C56.556 35.0097 56.3804 35.2249 56.1633 35.3923C55.9462 35.5598 55.6934 35.675 55.4246 35.729C55.1558 35.7831 54.8782 35.7745 54.6132 35.704C54.133 35.5956 53.6793 35.3924 53.2788 35.1061V35.7241C53.277 36.1578 53.4163 36.5803 53.6757 36.9279C53.9351 37.2754 54.3005 37.5292 54.7168 37.6508C55.5323 37.8793 56.395 37.8793 57.2105 37.6509C57.6268 37.5292 57.9922 37.2755 58.2516 36.9279C58.5109 36.5804 58.6502 36.1579 58.6484 35.7242V29.7678C58.644 25.9716 57.134 22.3322 54.4496 19.6479C51.7653 16.9636 48.1259 15.4536 44.3297 15.4492V15.4492Z" fill="#E8E8E8"/>
<path d="M50.6833 66.3961C51.0439 66.3961 51.3896 66.2528 51.6446 65.9979C51.8995 65.743 52.0427 65.3972 52.0427 65.0367V65.0367C52.0524 64.984 52.0524 64.93 52.0427 64.8773C51.499 60.593 49.0708 57.1055 44.3833 57.1055C39.6959 57.1055 37.2021 60.0586 36.724 64.8867C36.685 65.2476 36.791 65.6092 37.0186 65.892C37.2462 66.1748 37.5768 66.3556 37.9377 66.3946L37.9521 66.3961H50.6833Z" fill="url(#paint1_linear)"/>
<path opacity="0.8" d="M44.3834 58.118C43.5588 58.1173 42.7518 57.8798 42.0583 57.4336L44.3834 63.4523L46.6708 57.4711C45.9855 57.9001 45.1919 58.1245 44.3834 58.118V58.118Z" fill="white"/>
<path d="M44.3929 58.107C46.7642 58.107 48.6866 56.1846 48.6866 53.8133C48.6866 51.4419 46.7642 49.5195 44.3929 49.5195C42.0215 49.5195 40.0991 51.4419 40.0991 53.8133C40.0991 56.1846 42.0215 58.107 44.3929 58.107Z" fill="url(#paint2_linear)"/>
<path opacity="0.2" fill-rule="evenodd" clip-rule="evenodd" d="M64.0175 72.7244V57.4297H48.5298C47.5068 57.4308 46.5261 57.8377 45.8027 58.561C45.0794 59.2844 44.6725 60.2651 44.6714 61.2881V72.7244H64.0175Z" fill="#003067"/>
<path d="M77.1578 59.4297H48.5294C47.503 59.4297 46.6709 60.2618 46.6709 61.2882V74.3052C46.6709 75.3316 47.503 76.1637 48.5294 76.1637H77.1578C78.1842 76.1637 79.0163 75.3316 79.0163 74.3052V61.2882C79.0163 60.2618 78.1842 59.4297 77.1578 59.4297Z" fill="white"/>
<path d="M60.624 65.8438H73.7304" stroke="#0078D4" stroke-width="1.74005" stroke-miterlimit="10" stroke-linecap="round"/>
<path d="M60.624 69.7461H69.6291" stroke="#0078D4" stroke-width="1.74005" stroke-miterlimit="10" stroke-linecap="round"/>
<path d="M54.0799 71.2364C55.9789 71.2364 57.5184 69.6969 57.5184 67.7979C57.5184 65.8988 55.9789 64.3594 54.0799 64.3594C52.1808 64.3594 50.6414 65.8988 50.6414 67.7979C50.6414 69.6969 52.1808 71.2364 54.0799 71.2364Z" fill="#0078D4"/>
</g>
<defs>
<linearGradient id="paint0_linear" x1="47.8697" y1="-15.155" x2="51.8525" y2="130.613" gradientUnits="userSpaceOnUse">
<stop stop-color="#00ABDE"/>
<stop offset="1" stop-color="#007ED8"/>
</linearGradient>
<linearGradient id="paint1_linear" x1="46.991" y1="68.2262" x2="41.5011" y2="58.3471" gradientUnits="userSpaceOnUse">
<stop offset="0.0012" stop-color="#0078D4"/>
<stop offset="0.98836" stop-color="#00C5E6"/>
</linearGradient>
<linearGradient id="paint2_linear" x1="45.8534" y1="59.7986" x2="39.9" y2="53.3077" gradientUnits="userSpaceOnUse">
<stop offset="0.0012" stop-color="#0078D4"/>
<stop offset="0.98836" stop-color="#00C5E6"/>
</linearGradient>
<clipPath id="clip0">
<rect width="99.2799" height="99.28" fill="white"/>
</clipPath>
</defs>
</svg>
