<svg width="100" height="100" viewBox="0 0 100 100" fill="none" xmlns="http://www.w3.org/2000/svg">
<g clip-path="url(#clip0)">
<path d="M49.6401 96.4482C40.382 96.4482 31.3317 93.7028 23.6339 88.5592C15.936 83.4157 9.93624 76.105 6.3933 67.5516C2.85036 58.9981 1.92337 49.5862 3.72954 40.506C5.53571 31.4257 9.99394 23.085 16.5404 16.5385C23.0869 9.99198 31.4277 5.53376 40.5079 3.72759C49.5882 1.92141 59.0001 2.84841 67.5535 6.39135C76.1069 9.93428 83.4176 15.934 88.5612 23.6319C93.7047 31.3298 96.4501 40.38 96.4501 49.6381C96.4505 55.7854 95.24 61.8726 92.8878 67.5521C90.5355 73.2315 87.0875 78.392 82.7407 82.7388C78.3939 87.0856 73.2335 90.5335 67.554 92.8858C61.8746 95.2381 55.7874 96.4486 49.6401 96.4482V96.4482Z" fill="url(#paint0_linear)"/>
<path fill-rule="evenodd" clip-rule="evenodd" d="M95.54 49.64C95.54 58.7182 92.848 67.5924 87.8045 75.1407C82.7609 82.6889 75.5923 88.572 67.2052 92.0461C58.818 95.5201 49.5891 96.4291 40.6854 94.658C31.7816 92.887 23.603 88.5154 17.1838 82.0962C10.7646 75.677 6.39302 67.4984 4.62196 58.5946C2.85089 49.6909 3.75987 40.462 7.23393 32.0748C10.708 23.6877 16.5911 16.5191 24.1393 11.4755C31.6875 6.43198 40.5618 3.73999 49.64 3.73999C55.6677 3.73997 61.6363 4.92719 67.2052 7.23387C72.774 9.54056 77.834 12.9215 82.0963 17.1837C86.3585 21.446 89.7394 26.5059 92.0461 32.0748C94.3528 37.6436 95.54 43.6123 95.54 49.64V49.64ZM49.64 3.62732e-07C59.4579 3.62732e-07 69.0552 2.91134 77.2185 8.36585C85.3818 13.8204 91.7442 21.5731 95.5014 30.6436C99.2585 39.7141 100.242 49.6951 98.3262 59.3243C96.4108 68.9535 91.6831 77.7985 84.7408 84.7408C77.7985 91.6831 68.9535 96.4108 59.3243 98.3262C49.6951 100.242 39.7141 99.2585 30.6436 95.5014C21.5731 91.7442 13.8204 85.3818 8.36584 77.2185C2.91133 69.0552 -1.61629e-06 59.4579 3.61524e-07 49.64C-0.000786426 43.121 1.28265 36.6656 3.77702 30.6427C6.27138 24.6197 9.92781 19.1471 14.5375 14.5375C19.1471 9.9278 24.6197 6.27138 30.6427 3.77701C36.6656 1.28265 43.121 -0.000787738 49.64 3.62732e-07V3.62732e-07Z" fill="#F2F1F0"/>
<path fill-rule="evenodd" clip-rule="evenodd" d="M92.7296 49.6386C92.7296 58.161 90.2024 66.492 85.4676 73.5781C80.7328 80.6643 74.0031 86.1872 66.1294 89.4486C58.2557 92.71 49.5918 93.5633 41.2331 91.9007C32.8745 90.238 25.1966 86.1341 19.1703 80.1079C13.1441 74.0816 9.04017 66.4037 7.37753 58.0451C5.7149 49.6864 6.56822 41.0225 9.8296 33.1488C13.091 25.2751 18.6139 18.5454 25.7 13.8106C32.7862 9.07581 41.1172 6.54862 49.6396 6.54862C55.2983 6.54828 60.9017 7.6626 66.1298 9.82795C71.3579 11.9933 76.1082 15.1673 80.1096 19.1686C84.1109 23.17 87.2849 27.9203 89.4502 33.1484C91.6156 38.3765 92.7299 43.9799 92.7296 49.6386V49.6386ZM49.6396 2.80862C58.9017 2.80862 67.9558 5.55516 75.6569 10.7009C83.3581 15.8466 89.3604 23.1605 92.9049 31.7176C96.4493 40.2746 97.3767 49.6906 95.5697 58.7747C93.7628 67.8588 89.3027 76.2031 82.7534 82.7524C76.2041 89.3017 67.8598 93.7619 58.7757 95.5688C49.6915 97.3757 40.2756 96.4484 31.7185 92.9039C23.1614 89.3595 15.8476 83.3571 10.7018 75.656C5.5561 67.9548 2.80957 58.9007 2.80957 49.6386C2.81076 37.2189 7.745 25.3082 16.5271 16.5261C25.3091 7.74403 37.2198 2.80979 49.6396 2.80859V2.80862Z" fill="#0078D4"/>
<path opacity="0.2" d="M21.6266 73.0299H77.6793C77.9738 73.0291 78.256 72.9117 78.4643 72.7035C78.6725 72.4952 78.7899 72.213 78.7907 71.9185V28.1562H20.5151V71.9185C20.516 72.213 20.6334 72.4952 20.8416 72.7035C21.0499 72.9117 21.3321 73.0291 21.6266 73.0299V73.0299Z" fill="#003067"/>
<path d="M21.6266 70.7409H77.6793C77.9738 70.74 78.256 70.6226 78.4643 70.4144C78.6725 70.2061 78.7899 69.9239 78.7907 69.6294V25.8672H20.5151V69.6294C20.516 69.9239 20.6334 70.2061 20.8416 70.4144C21.0499 70.6226 21.3321 70.74 21.6266 70.7409Z" fill="#F2F2F2"/>
<path d="M20.5151 30.7125H78.7907V25.4888C78.791 25.3768 78.7692 25.2659 78.7265 25.1624C78.6838 25.0589 78.621 24.9648 78.5418 24.8856C78.4626 24.8065 78.3686 24.7437 78.2651 24.701C78.1616 24.6583 78.0506 24.6364 77.9387 24.6367H21.3672C21.2552 24.6364 21.1443 24.6583 21.0408 24.701C20.9373 24.7437 20.8432 24.8065 20.7641 24.8856C20.6849 24.9648 20.6221 25.0589 20.5794 25.1624C20.5367 25.2659 20.5148 25.3768 20.5151 25.4888V30.7125Z" fill="#092E4C"/>
<path d="M24.9981 29.2748C25.2902 29.2739 25.5756 29.1864 25.818 29.0233C26.0604 28.8602 26.249 28.6289 26.36 28.3586C26.471 28.0883 26.4993 27.7912 26.4414 27.5048C26.3835 27.2185 26.242 26.9557 26.0347 26.7497C25.8275 26.5438 25.5638 26.4039 25.2771 26.3478C24.9903 26.2917 24.6934 26.3219 24.4238 26.4345C24.1542 26.5472 23.9241 26.7373 23.7626 26.9807C23.601 27.2242 23.5152 27.51 23.5162 27.8022C23.5146 27.9968 23.5519 28.1898 23.6259 28.3698C23.6999 28.5498 23.8092 28.7132 23.9472 28.8504C24.0853 28.9875 24.2494 29.0958 24.4298 29.1686C24.6103 29.2415 24.8035 29.2777 24.9981 29.2748V29.2748Z" fill="#50E6FF"/>
<path d="M73.6249 34.4727H25.6695C25.0376 34.4727 24.5254 34.9849 24.5254 35.6167V65.4279C24.5254 66.0598 25.0376 66.572 25.6695 66.572H73.6249C74.2568 66.572 74.769 66.0598 74.769 65.4279V35.6167C74.769 34.9849 74.2568 34.4727 73.6249 34.4727Z" fill="#E8E8E8"/>
<path fill-rule="evenodd" clip-rule="evenodd" d="M49.6527 39.4844C47.4145 39.4844 45.2265 40.1481 43.3655 41.3916C41.5044 42.6351 40.0539 44.4025 39.1974 46.4704C38.3408 48.5383 38.1167 50.8137 38.5534 53.009C38.9901 55.2042 40.0679 57.2207 41.6506 58.8034C43.2332 60.386 45.2497 61.4639 47.4449 61.9005C49.6402 62.3372 51.9156 62.1131 53.9835 61.2565C56.0514 60.4 57.8188 58.9495 59.0623 57.0884C60.3058 55.2274 60.9695 53.0394 60.9695 50.8012C60.9662 47.8008 59.7729 44.9242 57.6513 42.8026C55.5297 40.681 52.6531 39.4877 49.6527 39.4844V39.4844Z" fill="white"/>
<path fill-rule="evenodd" clip-rule="evenodd" d="M60.8972 49.5092C60.5671 46.6385 59.1515 44.0028 56.9405 42.1423C54.7294 40.2818 51.8905 39.3375 49.0057 39.503C46.1208 39.6684 43.4084 40.931 41.4246 43.0321C39.4408 45.1331 38.3357 47.9133 38.3359 50.803C38.3359 50.9383 38.3416 51.0725 38.346 51.2071C38.4455 48.5146 39.5009 45.9455 41.323 43.9606C43.1451 41.9758 45.6148 40.705 48.289 40.3761C48.4598 40.3555 48.6331 40.3712 48.7974 40.4224C48.9616 40.4735 49.1132 40.5589 49.242 40.6729C49.3709 40.7869 49.4741 40.9269 49.5449 41.0837C49.6157 41.2406 49.6525 41.4106 49.6528 41.5826V52.8178C49.1539 52.8171 48.673 52.6313 48.3032 52.2964C47.9334 51.9616 47.701 51.5014 47.6509 51.0051C47.6386 51.0962 47.6327 51.188 47.6331 51.2799C47.649 51.6998 47.7956 52.1043 48.0525 52.4369C48.3094 52.7694 48.6636 53.0135 49.0659 53.135C49.2341 53.1837 49.382 53.2854 49.4877 53.4249C49.5935 53.5645 49.6514 53.7344 49.6528 53.9094V62.1198C51.2476 62.118 52.8241 61.7795 54.2791 61.1265C55.7342 60.4734 57.0349 59.5206 58.0963 58.3302C59.1578 57.1398 59.9559 55.7388 60.4385 54.2187C60.9212 52.6987 61.0775 51.0938 60.8972 49.5092V49.5092Z" fill="#F2F2F2"/>
<path fill-rule="evenodd" clip-rule="evenodd" d="M49.6525 63.7342C51.9834 63.7366 54.271 63.105 56.2704 61.907L53.7015 57.5593C53.5659 57.3568 53.3851 57.1885 53.1735 57.0678C52.9618 56.947 52.725 56.877 52.4817 56.8633H46.4191C46.1775 56.8767 45.9426 56.9482 45.7345 57.0718C45.5263 57.1953 45.3511 57.3673 45.2236 57.573L42.9028 61.8281C44.9326 63.0767 47.2694 63.7367 49.6525 63.7342V63.7342Z" fill="#1F56A3"/>
<path fill-rule="evenodd" clip-rule="evenodd" d="M59.3527 50.804C59.354 52.0778 59.1033 53.3392 58.615 54.5157C58.1266 55.6921 57.4103 56.7603 56.5073 57.6587L53.9368 55.0882C54.5005 54.5262 54.9477 53.8585 55.2529 53.1233C55.558 52.3881 55.7151 51.6 55.7151 50.804C55.7151 50.008 55.558 49.2198 55.2529 48.4846C54.9477 47.7495 54.5005 47.0818 53.9368 46.5197L56.5073 43.9492C57.4103 44.8476 58.1266 45.9158 58.615 47.0923C59.1033 48.2687 59.354 49.5302 59.3527 50.804V50.804Z" fill="#7CB65A"/>
<path fill-rule="evenodd" clip-rule="evenodd" d="M56.5074 43.9469L53.9368 46.5175C53.3748 45.9538 52.7071 45.5065 51.9719 45.2014C51.2368 44.8962 50.4486 44.7391 49.6526 44.7391C48.8566 44.7391 48.0685 44.8962 47.3333 45.2014C46.5981 45.5065 45.9304 45.9538 45.3684 46.5175L42.7979 43.9469C43.6971 43.045 44.7654 42.3294 45.9417 41.8412C47.118 41.3529 48.379 41.1016 49.6526 41.1016C50.9262 41.1016 52.1873 41.3529 53.3635 41.8412C54.5398 42.3294 55.6082 43.045 56.5074 43.9469V43.9469Z" fill="#F7CB64"/>
<path fill-rule="evenodd" clip-rule="evenodd" d="M43.5902 50.804C43.5894 51.6001 43.7461 52.3885 44.0513 53.1238C44.3565 53.859 44.8042 54.5267 45.3686 55.0882L42.798 57.6587C41.8961 56.7595 41.1805 55.6912 40.6922 54.5149C40.204 53.3386 39.9526 52.0776 39.9526 50.804C39.9526 49.5304 40.204 48.2693 40.6922 47.093C41.1805 45.9168 41.8961 44.8484 42.798 43.9492L45.3686 46.5197C44.8042 47.0813 44.3565 47.7489 44.0513 48.4842C43.7461 49.2195 43.5894 50.0079 43.5902 50.804V50.804Z" fill="#DF5142"/>
<path fill-rule="evenodd" clip-rule="evenodd" d="M52.4818 56.8633H49.6526V63.7342C51.9835 63.7366 54.2711 63.105 56.2705 61.9069L53.7016 57.5593C53.566 57.3568 53.3852 57.1885 53.1736 57.0678C52.9619 56.947 52.7251 56.877 52.4818 56.8633V56.8633Z" fill="#003067"/>
<path fill-rule="evenodd" clip-rule="evenodd" d="M49.6527 62.1175C47.4145 62.1175 45.2265 61.4538 43.3655 60.2103C41.5044 58.9667 40.0539 57.1993 39.1974 55.1314C38.3408 53.0636 38.1167 50.7881 38.5534 48.5929C38.99 46.3976 40.0679 44.3812 41.6505 42.7985C43.2332 41.2158 45.2497 40.138 47.4449 39.7013C49.6402 39.2647 51.9156 39.4888 53.9835 40.3453C56.0514 41.2019 57.8188 42.6524 59.0623 44.5134C60.3058 46.3744 60.9695 48.5624 60.9695 50.8007C60.9662 53.8011 59.7729 56.6776 57.6513 58.7992C55.5297 60.9208 52.6531 62.1142 49.6527 62.1175V62.1175ZM49.6527 37.8672C47.0947 37.8672 44.5942 38.6257 42.4673 40.0469C40.3404 41.468 38.6827 43.488 37.7037 45.8512C36.7248 48.2145 36.4687 50.815 36.9678 53.3239C37.4668 55.8327 38.6986 58.1373 40.5074 59.946C42.3162 61.7548 44.6207 62.9866 47.1295 63.4857C49.6384 63.9847 52.2389 63.7286 54.6022 62.7497C56.9655 61.7708 58.9854 60.113 60.4065 57.9861C61.8277 55.8592 62.5862 53.3587 62.5862 50.8007C62.5824 47.3717 61.2185 44.0842 58.7938 41.6596C56.3692 39.2349 53.0817 37.871 49.6527 37.8672V37.8672Z" fill="#003067"/>
<path fill-rule="evenodd" clip-rule="evenodd" d="M51.0056 49.3271C51.271 49.5757 51.4642 49.8916 51.5645 50.2411C51.6648 50.5906 51.6686 50.9608 51.5755 51.3124C53.5996 50.15 56.7998 48.2576 56.6762 47.9776C56.5448 47.6821 52.7294 48.5556 50.6362 49.0591C50.7692 49.1341 50.8931 49.224 51.0056 49.3271V49.3271Z" fill="#182A37"/>
<path fill-rule="evenodd" clip-rule="evenodd" d="M51.0287 49.3223C50.736 49.0501 50.3691 48.8708 49.9745 48.8071C49.5799 48.7434 49.1753 48.7981 48.8118 48.9644C48.4483 49.1307 48.1423 49.401 47.9325 49.7412C47.7226 50.0814 47.6184 50.4761 47.6329 50.8756C47.6475 51.275 47.7801 51.6612 48.0141 51.9852C48.2481 52.3093 48.573 52.5567 48.9476 52.6961C49.3222 52.8355 49.7297 52.8607 50.1186 52.7685C50.5075 52.6763 50.8604 52.4709 51.1325 52.1781C51.4968 51.7853 51.6904 51.2641 51.6709 50.7287C51.6515 50.1934 51.4205 49.6876 51.0287 49.3223V49.3223Z" fill="#546670"/>
<path fill-rule="evenodd" clip-rule="evenodd" d="M51.0772 49.3789L48.2278 52.2287C48.2452 52.2461 48.2577 52.2667 48.2763 52.2837C48.6634 52.6448 49.1769 52.8392 49.7061 52.8252C50.2352 52.8111 50.7377 52.5897 51.1051 52.2087C51.4726 51.8276 51.6756 51.3174 51.6703 50.7881C51.6651 50.2587 51.4521 49.7527 51.0772 49.3789V49.3789Z" fill="#30404D"/>
<path fill-rule="evenodd" clip-rule="evenodd" d="M49.6234 49.9927C49.4635 49.9984 49.309 50.0515 49.1793 50.1451C49.0496 50.2387 48.9506 50.3686 48.8948 50.5185C48.839 50.6684 48.8289 50.8315 48.8658 50.9871C48.9027 51.1427 48.9849 51.2839 49.102 51.3928C49.2192 51.5017 49.366 51.5734 49.5239 51.5988C49.6818 51.6243 49.8437 51.6023 49.9891 51.5357C50.1345 51.4691 50.2569 51.3609 50.3408 51.2247C50.4247 51.0885 50.4663 50.9305 50.4604 50.7707C50.4523 50.5566 50.3596 50.3545 50.2027 50.2087C50.0458 50.0628 49.8375 49.9851 49.6234 49.9927V49.9927Z" fill="#182A37"/>
<path fill-rule="evenodd" clip-rule="evenodd" d="M53.9368 46.5175L56.5073 43.9469C55.6089 43.0439 54.5407 42.3276 53.3643 41.8393C52.1878 41.3509 50.9264 41.1002 49.6526 41.1016V44.7391C50.4487 44.7383 51.2371 44.8951 51.9724 45.2003C52.7076 45.5055 53.3753 45.9531 53.9368 46.5175V46.5175Z" fill="#EFB252"/>
<path fill-rule="evenodd" clip-rule="evenodd" d="M52.482 60.099C52.4814 60.3132 52.396 60.5184 52.2446 60.6699C52.0931 60.8213 51.8879 60.9067 51.6737 60.9073H47.2278C47.0136 60.9067 46.8083 60.8213 46.6569 60.6699C46.5054 60.5184 46.4201 60.3132 46.4194 60.099V58.8865C46.4201 58.6723 46.5054 58.467 46.6569 58.3156C46.8083 58.1641 47.0136 58.0788 47.2278 58.0781H51.6737C51.8879 58.0788 52.0931 58.1641 52.2446 58.3156C52.396 58.467 52.4814 58.6723 52.482 58.8865V60.099Z" fill="#1F56A3"/>
<path fill-rule="evenodd" clip-rule="evenodd" d="M51.6737 58.0781H47.2278C47.0136 58.0788 46.8083 58.1641 46.6569 58.3156C46.5054 58.467 46.4201 58.6723 46.4194 58.8865V59.2907C46.4201 59.0765 46.5054 58.8712 46.6569 58.7198C46.8083 58.5683 47.0136 58.4829 47.2278 58.4823H51.6737C51.8879 58.4829 52.0931 58.5683 52.2446 58.7198C52.396 58.8712 52.4814 59.0765 52.482 59.2907V58.8865C52.4814 58.6723 52.396 58.467 52.2446 58.3156C52.0931 58.1641 51.8879 58.0788 51.6737 58.0781V58.0781Z" fill="#003067"/>
<path opacity="0.2" d="M47.2803 32.3008H20.5151V49.1229H47.2803C48.4311 49.1217 49.5343 48.664 50.3481 47.8503C51.1618 47.0366 51.6195 45.9333 51.6207 44.7826V36.6412C51.6195 35.4904 51.1618 34.3871 50.3481 33.5734C49.5344 32.7597 48.4311 32.302 47.2803 32.3008V32.3008Z" fill="#003067"/>
<path opacity="0.2" d="M78.7906 51.8906H51.823C50.6723 51.8919 49.569 52.3495 48.7553 53.1632C47.9416 53.977 47.4839 55.0802 47.4827 56.231V64.3724C47.4839 65.5231 47.9416 66.6264 48.7553 67.4401C49.569 68.2538 50.6723 68.7115 51.823 68.7127H78.7906V51.8906Z" fill="#003067"/>
<path d="M47.2805 34.4727H14.96C13.7614 34.4727 12.7898 35.4443 12.7898 36.6428V44.7843C12.7898 45.9829 13.7614 46.9545 14.96 46.9545H47.2805C48.4791 46.9545 49.4507 45.9829 49.4507 44.7843V36.6428C49.4507 35.4443 48.4791 34.4727 47.2805 34.4727Z" fill="white"/>
<path d="M18.7967 36.7461C18.4801 36.7557 18.1685 36.8276 17.8798 36.9577C17.591 37.0877 17.3306 37.2734 17.1136 37.5041C16.8965 37.7348 16.727 38.0059 16.6148 38.3021C16.5025 38.5983 16.4497 38.9137 16.4594 39.2302L16.4606 39.263C16.4606 40.3609 17.8545 42.9335 18.4887 44.4746C18.5134 44.5358 18.5559 44.5882 18.6106 44.6251C18.6653 44.662 18.7298 44.6817 18.7958 44.6817C18.8618 44.6817 18.9263 44.662 18.981 44.6251C19.0357 44.5882 19.0782 44.5358 19.1029 44.4746C19.7366 42.9214 21.1328 40.3269 21.1328 39.2639C21.1536 38.6211 20.9199 37.9961 20.4825 37.5246C20.0451 37.0532 19.4393 36.7734 18.7967 36.7461V36.7461ZM18.7967 40.156C18.5913 40.156 18.3906 40.0951 18.2198 39.981C18.049 39.8669 17.9159 39.7047 17.8373 39.5149C17.7587 39.3252 17.7382 39.1164 17.7782 38.9149C17.8183 38.7135 17.9172 38.5285 18.0624 38.3832C18.2076 38.238 18.3927 38.1391 18.5941 38.099C18.7956 38.059 19.0044 38.0795 19.1941 38.1581C19.3839 38.2367 19.546 38.3698 19.6601 38.5406C19.7742 38.7114 19.8351 38.9121 19.8351 39.1175V39.1175C19.8352 39.2539 19.8083 39.3889 19.7561 39.5149C19.7039 39.6409 19.6274 39.7554 19.531 39.8518C19.4346 39.9482 19.3201 40.0247 19.1941 40.0769C19.0681 40.1291 18.9331 40.156 18.7967 40.156V40.156Z" fill="#0078D4"/>
<path d="M25.6692 39.3672H38.259" stroke="#0078D4" stroke-width="1.62764" stroke-miterlimit="10" stroke-linecap="round"/>
<path d="M25.6692 42.0586H41.4924" stroke="#0078D4" stroke-width="1.62764" stroke-miterlimit="10" stroke-linecap="round"/>
<path d="M84.1436 54.0586H51.823C50.6245 54.0586 49.6528 55.0302 49.6528 56.2288V64.3702C49.6528 65.5688 50.6245 66.5404 51.823 66.5404H84.1436C85.3421 66.5404 86.3137 65.5688 86.3137 64.3702V56.2288C86.3137 55.0302 85.3421 54.0586 84.1436 54.0586Z" fill="white"/>
<path d="M55.66 56.332C55.0206 56.3515 54.4152 56.6242 53.9768 57.09C53.5385 57.5559 53.3032 58.1768 53.3227 58.8162L53.3239 58.8489C53.3239 59.9468 54.7177 62.5194 55.352 64.0606C55.3767 64.1218 55.4191 64.1742 55.4739 64.2111C55.5286 64.2479 55.5931 64.2677 55.6591 64.2677C55.7251 64.2677 55.7896 64.2479 55.8443 64.2111C55.899 64.1742 55.9414 64.1218 55.9662 64.0606C56.5999 62.5073 57.9961 59.9129 57.9961 58.8498C58.0169 58.207 57.7832 57.582 57.3458 57.1106C56.9083 56.6391 56.3025 56.3594 55.66 56.332V56.332ZM55.66 59.7419C55.4546 59.7419 55.2538 59.681 55.0831 59.5669C54.9123 59.4528 54.7792 59.2906 54.7006 59.1009C54.622 58.9111 54.6014 58.7023 54.6415 58.5009C54.6815 58.2994 54.7804 58.1144 54.9257 57.9692C55.0709 57.8239 55.2559 57.725 55.4574 57.685C55.6588 57.6449 55.8676 57.6655 56.0574 57.7441C56.2471 57.8227 56.4093 57.9558 56.5234 58.1265C56.6375 58.2973 56.6984 58.4981 56.6984 58.7035V58.7035C56.6984 58.9789 56.589 59.243 56.3943 59.4377C56.1995 59.6325 55.9354 59.7419 55.66 59.7419V59.7419Z" fill="#50E6FF"/>
<path d="M62.5322 58.9531H75.122" stroke="#50E6FF" stroke-width="1.62764" stroke-miterlimit="10" stroke-linecap="round"/>
<path d="M62.5322 61.6484H78.3554" stroke="#50E6FF" stroke-width="1.62764" stroke-miterlimit="10" stroke-linecap="round"/>
</g>
<defs>
<linearGradient id="paint0_linear" x1="47.8698" y1="-15.1549" x2="51.8525" y2="130.613" gradientUnits="userSpaceOnUse">
<stop stop-color="#00ABDE"/>
<stop offset="1" stop-color="#007ED8"/>
</linearGradient>
<clipPath id="clip0">
<rect width="99.2799" height="99.28" fill="white"/>
</clipPath>
</defs>
</svg>
