<?xml version="1.0" encoding="UTF-8"?>
<svg width="202px" height="192px" viewBox="0 0 202 192" version="1.1" xmlns="http://www.w3.org/2000/svg" xmlns:xlink="http://www.w3.org/1999/xlink">
    <title>Learn how Microsoft safeguards customer data/learn-how-microsoft-safeguards-customer-data</title>
    <defs>
        <path d="M94.999168,180 C72.0096814,159.695484 51.1433507,133.810825 34.5507866,104.990719 C17.9586386,76.1718636 6.03918083,45.1087705 4.54747351e-13,14.9921785 C29.0261716,5.17926791 61.81196,0 94.9975041,0 C128.18596,0 160.972164,5.17968506 190,14.9930128 C183.961235,45.1062676 172.040945,76.1689436 155.447133,104.990719 C138.852906,133.814579 117.986575,159.698822 94.999168,180 Z" id="path-1"></path>
        <linearGradient x1="50%" y1="0%" x2="50%" y2="100%" id="linearGradient-3">
            <stop stop-color="#153A66" stop-opacity="0.996585446" offset="0%"></stop>
            <stop stop-color="#051D32" offset="100%"></stop>
        </linearGradient>
        <path d="M94.9975041,0 C128.18596,0 160.972164,5.17968506 190,14.9930128 C183.961235,45.1062676 172.040945,76.1689436 155.447133,104.990719 C138.852906,133.814579 117.986575,159.698822 94.999168,180 C72.0096814,159.695484 51.1433507,133.810825 34.5507866,104.990719 C17.9586386,76.1718636 6.03918083,45.1087705 4.54747351e-13,14.9921785 C29.0261716,5.17926791 61.81196,0 94.9975041,0 Z M94.9975041,5 C64.3667313,5 34.081813,9.48312148 6.90641106,18.001207 L5.813,18.348 L6.06325034,19.4813964 C12.193882,46.8903924 23.199643,74.9577434 38.1339673,101.186116 L38.8839529,102.49599 C54.2305801,129.151992 73.2912882,153.256779 94.2869583,172.621724 L94.999,173.275 L95.7112509,172.622085 C116.372365,153.566865 135.160604,129.918825 150.380339,103.763487 L151.113986,102.495958 C166.431818,75.8904307 177.704348,47.3442791 183.936835,19.4815472 L184.187,18.349 L183.093193,18.0019322 C156.361298,9.62293214 126.6224,5.14807734 96.5037414,5.00361261 L94.9975041,5 Z" id="path-4"></path>
        <linearGradient x1="50%" y1="100%" x2="50%" y2="0%" id="linearGradient-6">
            <stop stop-color="#D2EBFF" offset="0%"></stop>
            <stop stop-color="#F0FFFD" offset="100%"></stop>
        </linearGradient>
        <linearGradient x1="50%" y1="100%" x2="50%" y2="0%" id="linearGradient-7">
            <stop stop-color="#CCCCCC" offset="15%"></stop>
            <stop stop-color="#707070" offset="100%"></stop>
        </linearGradient>
        <linearGradient x1="49.9774416%" y1="17.9912184%" x2="49.9774416%" y2="124.588364%" id="linearGradient-8">
            <stop stop-color="#32D4F5" offset="0%"></stop>
            <stop stop-color="#31D1F3" offset="47%"></stop>
            <stop stop-color="#2EC9EB" offset="63%"></stop>
            <stop stop-color="#29BADE" offset="77%"></stop>
            <stop stop-color="#22A5CB" offset="89%"></stop>
            <stop stop-color="#198AB3" offset="100%"></stop>
            <stop stop-color="#198AB3" offset="100%"></stop>
        </linearGradient>
        <linearGradient x1="45.6057007%" y1="-4.39429929%" x2="56.4133017%" y2="129.928741%" id="linearGradient-9">
            <stop stop-color="#32D4F5" offset="22%"></stop>
            <stop stop-color="#31D1F3" offset="47%"></stop>
            <stop stop-color="#2EC9EB" offset="63%"></stop>
            <stop stop-color="#29BADE" offset="77%"></stop>
            <stop stop-color="#22A5CB" offset="89%"></stop>
            <stop stop-color="#198AB3" offset="100%"></stop>
            <stop stop-color="#198AB3" offset="100%"></stop>
        </linearGradient>
        <linearGradient x1="50.0231672%" y1="100.00283%" x2="50.0231672%" y2="0%" id="linearGradient-10">
            <stop stop-color="#0078D4" offset="0%"></stop>
            <stop stop-color="#0A7CD7" offset="6%"></stop>
            <stop stop-color="#2E8CE1" offset="34%"></stop>
            <stop stop-color="#4897E9" offset="59%"></stop>
            <stop stop-color="#589EED" offset="82%"></stop>
            <stop stop-color="#5EA0EF" offset="100%"></stop>
        </linearGradient>
    </defs>
    <g id="Badges" stroke="none" stroke-width="1" fill="none" fill-rule="evenodd">
        <g id="Learn-how-Microsoft-safeguards-customer-data" transform="translate(-109.000000, -35.000000)">
            <g id="Learn-how-Microsoft-safeguards-customer-data/learn-how-microsoft-safeguards-customer-data" transform="translate(155.000000, 59.000000)">
                <g id="Trophy-Plates/Triangle" transform="translate(5.000000, 21.000000)">
                    <g id="BG" transform="translate(-45.000000, -40.000000)">
                        <mask id="mask-2" fill="white">
                            <use xlink:href="#path-1"></use>
                        </mask>
                        <path stroke="#FFFFFF" stroke-width="5" d="M94.9975041,-2.5 C61.531668,-2.5 28.4701501,2.72824188 -0.800660806,12.623858 C-1.49026853,12.8569944 -2.17997671,13.0934668 -2.86974568,13.3332541 C-2.73531616,14.0510077 -2.59467441,14.7682379 -2.4512031,15.4837102 C3.63852218,45.8523606 15.652907,77.1775413 32.3842134,106.2381 C49.1162293,135.300424 70.1619115,161.398988 93.3442125,181.873799 C93.8917925,182.357426 94.4423388,182.839483 94.9958132,183.319945 C95.5531796,182.841878 96.1051089,182.358658 96.6540549,181.87386 C119.834288,161.402388 140.880007,135.30422 157.613733,106.238055 C174.346688,77.1746013 186.361895,45.8498424 192.451199,15.4845643 C192.594289,14.7710248 192.734564,14.0557347 192.872022,13.3387388 C192.183618,13.095542 191.492084,12.8584389 190.80065,12.6246887 C161.528177,2.72865736 128.466258,-2.5 94.9975041,-2.5 Z"></path>
                        <g id="Colors/Microsoft-365/BG-Gradient-5" mask="url(#mask-2)" fill="url(#linearGradient-3)">
                            <rect id="Rectangle" x="0" y="0" width="190" height="180"></rect>
                        </g>
                    </g>
                    <g id="Border" transform="translate(-45.000000, -40.000000)">
                        <mask id="mask-5" fill="white">
                            <use xlink:href="#path-4"></use>
                        </mask>
                        <use fill="#000000" fill-rule="nonzero" xlink:href="#path-4"></use>
                        <g id="Colors/Microsoft-365/Border" mask="url(#mask-5)" fill="#0076D7">
                            <rect id="Microsoft-365/Border" x="0" y="0" width="190" height="180"></rect>
                        </g>
                    </g>
                </g>
                <g id="Group-2">
                    <g id="Group">
                        <g id="Computer" transform="translate(0.000000, 0.000000)" fill-rule="nonzero">
                            <rect id="Rectangle" fill="url(#linearGradient-6)" x="0" y="0" width="96.3809524" height="66.976594" rx="0.6"></rect>
                            <path d="M68.6645403,87.4686163 C58.9720328,85.8879644 58.5908668,78.6621274 58.5908668,66.976594 L39.3692087,66.976594 C39.3692087,78.6621274 39.042495,85.8879644 29.3499875,87.4686163 C26.5787203,87.7865255 24.4868196,90.2232874 24.503632,93.1138015 L73.5108959,93.1138015 C73.5277082,90.2232874 71.4358075,87.7865255 68.6645403,87.4686163 Z" id="Path" fill="url(#linearGradient-7)"></path>
                        </g>
                        <g id="Person" transform="translate(5.238095, 3.914925)" fill-rule="nonzero">
                            <path d="M38.1504946,45.7848325 C40.2069493,45.7848325 41.8783524,44.1155128 41.8936991,42.0461651 C41.9084495,41.896611 41.9084495,41.7459547 41.8936991,41.5964006 C40.4131779,29.7900828 33.7368655,20.1763668 20.9708623,20.1763668 C8.20485906,20.1763668 1.30507176,28.3283482 0.0200911311,41.6245109 C-0.191666609,43.6880573 1.29450113,45.535473 3.34428015,45.7567222 L38.1504946,45.7567222 L38.1504946,45.7848325 Z" id="Path" fill="url(#linearGradient-8)"></path>
                            <path d="M21.0215136,23.5821334 C18.7922288,23.5967063 16.6083566,22.9517853 14.7442681,21.7283951 L20.9662075,38.0246914 L27.1604938,21.839066 C25.3187916,22.9863145 23.1909793,23.5904735 21.0215136,23.5821334 Z" id="Path" fill="#FFFFFF" opacity="0.8"></path>
                            <circle id="Oval" fill="url(#linearGradient-9)" cx="20.952381" cy="11.6402116" r="11.6402116"></circle>
                        </g>
                        <g id="Group-21" transform="translate(49.238095, 6.747377)" fill="#103055">
                            <path d="M11.7729566,22.5604047 L1.49017268,22.5604047 C0.973229095,22.5604047 0.55537415,22.0692758 0.55537415,21.4616823 C0.55537415,20.8540888 0.973229095,20.3629599 1.49017268,20.3629599 L11.7729566,20.3629599 C12.2899002,20.3629599 12.7077551,20.8540888 12.7077551,21.4616823 C12.7077551,22.0692758 12.2899002,22.5604047 11.7729566,22.5604047" id="Fill-1531"></path>
                            <path d="M24.552381,22.5604047 L16.2666667,22.5604047 C15.503,22.5604047 14.8857143,22.0692758 14.8857143,21.4616823 C14.8857143,20.8540888 15.503,20.3629599 16.2666667,20.3629599 L24.552381,20.3629599 C25.3160476,20.3629599 25.9333333,20.8540888 25.9333333,21.4616823 C25.9333333,22.0692758 25.3160476,22.5604047 24.552381,22.5604047" id="Fill-1532"></path>
                            <path d="M10.1904762,2.78340125 L1.9047619,2.78340125 C1.14109524,2.78340125 0.523809524,2.29227233 0.523809524,1.68467883 C0.523809524,1.07708534 1.14109524,0.585956416 1.9047619,0.585956416 L10.1904762,0.585956416 C10.9541429,0.585956416 11.5714286,1.07708534 11.5714286,1.68467883 C11.5714286,2.29227233 10.9541429,2.78340125 10.1904762,2.78340125" id="Fill-1532"></path>
                            <path d="M12.7927368,15.9680702 L1.57515437,15.9680702 C1.01121591,15.9680702 0.55537415,15.4769413 0.55537415,14.8693478 C0.55537415,14.2617543 1.01121591,13.7706254 1.57515437,13.7706254 L12.7927368,13.7706254 C13.3566752,13.7706254 13.812517,14.2617543 13.812517,14.8693478 C13.812517,15.4769413 13.3566752,15.9680702 12.7927368,15.9680702" id="Fill-1534"></path>
                            <path d="M28.2594035,15.9680702 L17.041821,15.9680702 C16.4778826,15.9680702 16.0220408,15.4769413 16.0220408,14.8693478 C16.0220408,14.2617543 16.4778826,13.7706254 17.041821,13.7706254 L28.2594035,13.7706254 C28.8233419,13.7706254 29.2791837,14.2617543 29.2791837,14.8693478 C29.2791837,15.4769413 28.8233419,15.9680702 28.2594035,15.9680702" id="Fill-1534"></path>
                            <path d="M34.8879749,15.9680702 L23.6703925,15.9680702 C23.106454,15.9680702 22.6506122,15.4769413 22.6506122,14.8693478 C22.6506122,14.2617543 23.106454,13.7706254 23.6703925,13.7706254 L34.8879749,13.7706254 C35.4519133,13.7706254 35.9077551,14.2617543 35.9077551,14.8693478 C35.9077551,15.4769413 35.4519133,15.9680702 34.8879749,15.9680702" id="Fill-1534"></path>
                            <path d="M1.71355311,9.37573574 C1.05562491,9.37573574 0.523809524,8.88460682 0.523809524,8.27701333 C0.523809524,7.66941983 1.05562491,7.17829091 1.71355311,7.17829091 L14.8007326,7.17829091 C15.4586608,7.17829091 15.9904762,7.66941983 15.9904762,8.27701333 C15.9904762,8.88460682 15.4586608,9.37573574 14.8007326,9.37573574 L1.71355311,9.37573574 Z" id="Fill-1540"></path>
                        </g>
                        <g id="Group-21" transform="translate(49.238095, 33.985472)" fill="#103055">
                            <path d="M11.7729566,22.5604047 L1.49017268,22.5604047 C0.973229095,22.5604047 0.55537415,22.0692758 0.55537415,21.4616823 C0.55537415,20.8540888 0.973229095,20.3629599 1.49017268,20.3629599 L11.7729566,20.3629599 C12.2899002,20.3629599 12.7077551,20.8540888 12.7077551,21.4616823 C12.7077551,22.0692758 12.2899002,22.5604047 11.7729566,22.5604047" id="Fill-1531"></path>
                            <path d="M24.552381,22.5604047 L16.2666667,22.5604047 C15.503,22.5604047 14.8857143,22.0692758 14.8857143,21.4616823 C14.8857143,20.8540888 15.503,20.3629599 16.2666667,20.3629599 L24.552381,20.3629599 C25.3160476,20.3629599 25.9333333,20.8540888 25.9333333,21.4616823 C25.9333333,22.0692758 25.3160476,22.5604047 24.552381,22.5604047" id="Fill-1532"></path>
                            <path d="M10.1904762,2.78340125 L1.9047619,2.78340125 C1.14109524,2.78340125 0.523809524,2.29227233 0.523809524,1.68467883 C0.523809524,1.07708534 1.14109524,0.585956416 1.9047619,0.585956416 L10.1904762,0.585956416 C10.9541429,0.585956416 11.5714286,1.07708534 11.5714286,1.68467883 C11.5714286,2.29227233 10.9541429,2.78340125 10.1904762,2.78340125" id="Fill-1532"></path>
                            <path d="M12.7927368,15.9680702 L1.57515437,15.9680702 C1.01121591,15.9680702 0.55537415,15.4769413 0.55537415,14.8693478 C0.55537415,14.2617543 1.01121591,13.7706254 1.57515437,13.7706254 L12.7927368,13.7706254 C13.3566752,13.7706254 13.812517,14.2617543 13.812517,14.8693478 C13.812517,15.4769413 13.3566752,15.9680702 12.7927368,15.9680702" id="Fill-1534"></path>
                            <path d="M28.2594035,15.9680702 L17.041821,15.9680702 C16.4778826,15.9680702 16.0220408,15.4769413 16.0220408,14.8693478 C16.0220408,14.2617543 16.4778826,13.7706254 17.041821,13.7706254 L28.2594035,13.7706254 C28.8233419,13.7706254 29.2791837,14.2617543 29.2791837,14.8693478 C29.2791837,15.4769413 28.8233419,15.9680702 28.2594035,15.9680702" id="Fill-1534"></path>
                            <path d="M34.8879749,15.9680702 L23.6703925,15.9680702 C23.106454,15.9680702 22.6506122,15.4769413 22.6506122,14.8693478 C22.6506122,14.2617543 23.106454,13.7706254 23.6703925,13.7706254 L34.8879749,13.7706254 C35.4519133,13.7706254 35.9077551,14.2617543 35.9077551,14.8693478 C35.9077551,15.4769413 35.4519133,15.9680702 34.8879749,15.9680702" id="Fill-1534"></path>
                            <path d="M1.71355311,9.37573574 C1.05562491,9.37573574 0.523809524,8.88460682 0.523809524,8.27701333 C0.523809524,7.66941983 1.05562491,7.17829091 1.71355311,7.17829091 L14.8007326,7.17829091 C15.4586608,7.17829091 15.9904762,7.66941983 15.9904762,8.27701333 C15.9904762,8.88460682 15.4586608,9.37573574 14.8007326,9.37573574 L1.71355311,9.37573574 Z" id="Fill-1540"></path>
                        </g>
                    </g>
                    <g id="Shield-w/-lock" transform="translate(52.380952, 38.761905)" fill-rule="nonzero">
                        <path d="M56.8194181,31.7919858 C56.8194181,50.0903957 34.3666336,64.8252203 29.45259,67.8282416 C28.8914902,68.1842369 28.1759174,68.1842369 27.6148176,67.8282416 C22.700774,64.8652606 0.247989518,50.130436 0.247989518,31.7919858 L0.247989518,9.76982937 C0.247989518,8.8122539 1.01070008,8.02981991 1.96590725,8.00805686 C19.4646966,7.56761374 15.4295876,0 28.5337038,0 C41.63782,0 37.602711,7.56761374 55.1015004,8.00805686 C56.0567075,8.02981991 56.8194181,8.8122539 56.8194181,9.76982937 L56.8194181,31.7919858 Z" id="Path" fill="#0078D4"></path>
                        <path d="M54.72418,31.4966151 C54.72418,47.8770529 33.9426047,61.0204043 29.3916008,63.6724752 C28.8731135,63.9821908 28.2185645,63.9821908 27.7000772,63.6724752 C23.1490733,61.0204043 2.36749798,47.8770529 2.36749798,31.4966151 L2.36749798,11.9960938 C2.28476301,11.5338455 2.41582273,11.0597326 2.72596457,10.6993291 C3.03610642,10.3389255 3.49403855,10.1285943 3.97847281,10.1240438 C20.1687699,9.85103646 16.4635278,3.14285714 28.545839,3.14285714 C40.6281502,3.14285714 36.9229081,9.85103646 53.1132052,10.1240438 C53.9939773,10.1446051 54.7029474,10.8311601 54.72418,11.6840855 L54.72418,31.4966151 Z" id="Path" fill="url(#linearGradient-10)"></path>
                        <path d="M39.7983096,28.0848028 L38.2173359,28.0848028 L38.2173359,22.1922 C38.2448111,19.4090132 37.2545802,16.7207537 35.4506319,14.6812064 C33.6776155,12.6682934 31.1847754,11.5238095 28.5733963,11.5238095 C25.9620173,11.5238095 23.4691772,12.6682934 21.6961608,14.6812064 C19.8887149,16.718456 18.8979216,19.4082422 18.9294568,22.1922 L18.9294568,28.0848028 L17.3484831,28.0848028 C16.9788173,28.0473686 16.6121622,28.1824069 16.3457781,28.4540967 C16.079394,28.7257865 15.9402043,29.1066682 15.9651311,29.4957077 L15.9651311,44.7666783 C15.9649639,45.1261712 16.1036288,45.4703747 16.3494393,45.7206343 C16.5952498,45.9708938 16.9271997,46.1058229 17.2694344,46.0945887 L39.7983096,46.0945887 C40.1405443,46.1058229 40.4724941,45.9708938 40.7183046,45.7206343 C40.9641152,45.4703747 41.1027801,45.1261712 41.1026129,44.7666783 L41.1026129,29.4957077 C41.1250976,29.1220491 40.9962972,28.7557873 40.7479315,28.4871225 C40.4995658,28.2184578 40.1547162,28.0723577 39.7983096,28.0848028 Z M33.6720365,28.0848028 L23.3957075,28.0848028 L23.3957075,22.1092056 C23.3980334,20.5566572 23.9797964,19.066897 25.0162055,17.9594854 C25.9088191,16.9036034 27.1891945,16.2993346 28.533872,16.2993346 C29.8785495,16.2993346 31.1589249,16.9036034 32.0515385,17.9594854 C32.2836459,18.2174667 32.4951551,18.49505 32.6839279,18.7894294 L32.6839279,18.7894294 C33.3208178,19.7524742 33.6652782,20.8953014 33.6720365,22.0677084 L33.6720365,28.0848028 Z" id="Shape" fill="#FFBD02"></path>
                        <path d="M17.294378,28.2864581 L40.259065,28.2864581 C40.5707783,28.288149 40.8713484,28.40752 41.1051324,28.6224728 L16.4483106,46.0952381 C16.1574761,45.8457778 15.9817723,45.4794298 15.9648435,45.0871939 L15.9648435,29.7145206 C15.9419238,29.3363181 16.0732158,28.9656023 16.326386,28.6936703 C16.5795562,28.4217384 16.9310768,28.2738616 17.294378,28.2864581 Z" id="Path" fill="#FFE452"></path>
                        <path d="M39.7730296,28.2864581 L16.8083426,28.2864581 C16.4966293,28.288149 16.1960592,28.40752 15.9622752,28.6224728 L40.619097,46.0952381 C40.9234466,45.8572712 41.1025641,45.4838055 41.1025641,45.0871939 L41.1025641,29.7145206 C41.1254839,29.3363181 40.9941918,28.9656023 40.7410216,28.6936703 C40.4878514,28.4217384 40.1363308,28.2738616 39.7730296,28.2864581 Z" id="Path" fill="#FFD400" opacity="0.5"></path>
                    </g>
                </g>
            </g>
        </g>
    </g>
</svg>