<svg width="103" height="103" viewBox="0 0 103 103" fill="none" xmlns="http://www.w3.org/2000/svg">
<path d="M51.8723 98.0858C26.0223 98.0858 5.06226 77.1358 5.06226 51.2758C5.06226 25.4158 26.0223 4.46582 51.8723 4.46582C77.7223 4.46582 98.6823 25.4258 98.6823 51.2758C98.6823 77.1258 77.7223 98.0858 51.8723 98.0858Z" fill="url(#paint0_linear)"/>
<path fill-rule="evenodd" clip-rule="evenodd" d="M97.7723 51.2757C97.7723 76.6257 77.2223 97.1757 51.8723 97.1757C26.5223 97.1757 5.9723 76.6257 5.9723 51.2757C5.9723 25.9257 26.5223 5.37574 51.8723 5.37574C77.2223 5.37574 97.7723 25.9257 97.7723 51.2757ZM51.8723 1.63574C79.2923 1.63574 101.512 23.8557 101.512 51.2757C101.512 78.6957 79.2823 100.916 51.8723 100.916C24.4523 100.916 2.2323 78.6857 2.2323 51.2757C2.2323 23.8557 24.4523 1.63574 51.8723 1.63574Z" fill="#F2F1F0"/>
<path fill-rule="evenodd" clip-rule="evenodd" d="M94.9624 51.2753C94.9624 75.0753 75.6724 94.3653 51.8724 94.3653C28.0724 94.3653 8.78236 75.0753 8.78236 51.2753C8.78236 27.4753 28.0724 8.18531 51.8724 8.18531C75.6724 8.18531 94.9624 27.4753 94.9624 51.2753ZM51.8724 4.44531C77.7324 4.44531 98.7024 25.4153 98.7024 51.2753C98.7024 77.1353 77.7324 98.1053 51.8724 98.1053C26.0124 98.1053 5.04236 77.1353 5.04236 51.2753C5.04236 25.4153 26.0024 4.44531 51.8724 4.44531Z" fill="url(#paint1_linear)"/>
<path d="M52.0224 89.7854C73.2024 89.7854 90.3824 72.6154 90.3824 51.4254C90.3824 30.2454 73.2124 13.0654 52.0224 13.0654C30.8424 13.0654 13.6624 30.2354 13.6624 51.4254C13.6624 72.6054 30.8324 89.7854 52.0224 89.7854Z" fill="url(#paint2_radial)"/>
<path d="M51.8723 90.0152C30.5123 90.0152 13.1323 72.6352 13.1323 51.2752C13.1323 29.9152 30.5123 12.5352 51.8723 12.5352C73.2323 12.5352 90.6023 29.9152 90.6023 51.2752C90.6023 72.6352 73.2323 90.0152 51.8723 90.0152ZM51.8723 13.2952C30.9323 13.2952 13.8923 30.3352 13.8923 51.2752C13.8923 72.2152 30.9223 89.2552 51.8723 89.2552C72.8223 89.2552 89.8523 72.2152 89.8523 51.2752C89.8523 30.3352 72.8123 13.2952 51.8723 13.2952Z" fill="#50E6FF"/>
<path d="M51.8723 67.7954C30.5123 67.7954 13.1323 60.3854 13.1323 51.2754H13.8923C13.8923 59.9654 30.9323 67.0454 51.8823 67.0454C72.8223 67.0454 89.8623 59.9754 89.8623 51.2754H90.6223C90.6123 60.3854 73.2323 67.7954 51.8723 67.7954Z" fill="#50E6FF"/>
<path d="M51.8723 90.0152C42.7623 90.0152 35.3523 72.6352 35.3523 51.2752C35.3523 29.9152 42.7523 12.5352 51.8723 12.5352C60.9823 12.5352 68.3923 29.9152 68.3923 51.2752C68.3923 72.6352 60.9823 90.0152 51.8723 90.0152ZM51.8723 13.2952C43.1823 13.2952 36.1023 30.3352 36.1023 51.2752C36.1023 72.2152 43.1723 89.2552 51.8723 89.2552C60.5723 89.2552 67.6323 72.2152 67.6323 51.2752C67.6323 30.3352 60.5623 13.2952 51.8723 13.2952Z" fill="#50E6FF"/>
<path d="M51.8723 42.3253C34.0623 42.3253 20.1223 37.2153 20.1223 30.6953H20.8723C20.8723 36.6953 34.7723 41.5753 51.8723 41.5753C68.9723 41.5753 82.8723 36.6953 82.8723 30.6953H83.6323C83.6323 37.2153 69.6823 42.3253 51.8723 42.3253Z" fill="#50E6FF"/>
<path d="M51.8723 82.9454C34.0623 82.9454 20.1223 78.0254 20.1223 71.7354H20.8723C20.8723 77.4954 34.7723 82.1854 51.8723 82.1854C68.9723 82.1854 82.8723 77.4954 82.8723 71.7354H83.6323C83.6323 78.0254 69.6823 82.9454 51.8723 82.9454Z" fill="#50E6FF"/>
<path d="M90.4424 51.275H90.0124C90.0124 42.495 72.9024 35.345 51.8724 35.345C30.8424 35.345 13.7324 42.485 13.7324 51.275H13.3024C13.3024 42.255 30.6024 34.915 51.8724 34.915C73.1424 34.915 90.4424 42.255 90.4424 51.275Z" fill="#50E6FF"/>
<path d="M83.6323 30.7054H82.8723C82.8723 24.6154 69.0623 19.6654 51.8723 19.6654C34.6923 19.6654 20.8723 24.6254 20.8723 30.7154L20.1223 30.7254C20.1223 24.4054 34.4523 19.2354 51.8823 19.2354C69.3023 19.2254 83.6323 24.3754 83.6323 30.7054Z" fill="#50E6FF"/>
<path d="M83.6323 71.7453H82.8823C82.8823 65.8953 69.0623 61.1253 51.8823 61.1253C34.7023 61.1253 20.8623 65.9153 20.8623 71.7653H20.1123C20.1123 65.6753 34.4523 60.6953 51.8823 60.6953C69.3023 60.6953 83.6323 65.6553 83.6323 71.7453Z" fill="#50E6FF"/>
<path opacity="0.15" d="M38.7123 61.9359C38.7123 63.6859 40.1423 65.1059 41.8823 65.1059C43.6323 65.1059 45.0523 63.6759 45.0523 61.9359C45.0523 61.1859 44.7723 60.5059 44.3423 59.9559L50.0323 49.1459C49.3223 48.8859 48.7323 48.4959 48.1923 47.9759C47.1523 46.9859 46.5023 45.5859 46.5023 44.0359C46.5023 41.0259 48.9523 38.5659 51.9723 38.5659C54.9923 38.5659 57.4423 41.0159 57.4423 44.0359C57.4423 44.4959 57.3623 44.9559 57.2523 45.3759L59.3223 46.1959C59.5223 45.4959 59.6823 44.7859 59.6823 44.0359C59.6823 39.7959 56.2223 36.3359 51.9823 36.3359C47.7423 36.3359 44.2923 39.7959 44.2923 44.0359C44.2923 46.4059 45.4023 48.5159 47.0823 49.9359L42.4123 58.8259C42.2423 58.7959 42.0723 58.7759 41.8823 58.7759C40.1423 58.7759 38.7123 60.1859 38.7123 61.9359Z" fill="#1F1D20"/>
<path opacity="0.15" d="M61.8223 65.0955C63.5723 65.0955 64.9923 63.6655 64.9923 61.9255C64.9923 60.1755 63.5623 58.7555 61.8223 58.7555C60.4823 58.7555 59.3222 59.6055 58.8722 60.7955H47.2222C47.3022 61.1555 47.3522 61.5255 47.3522 61.9055C47.3522 62.2855 47.3022 62.6555 47.2222 63.0155C46.7022 65.5055 44.5122 67.3655 41.8722 67.3655C38.8622 67.3655 36.4022 64.9155 36.4022 61.8955C36.4022 59.5655 37.8822 57.5655 39.9622 56.7855L39.3122 54.6855C36.3322 55.7555 34.1823 58.5855 34.1823 61.9055C34.1823 66.1455 37.6422 69.6055 41.8822 69.6055C45.7422 69.6055 48.9223 66.7255 49.4823 63.0155H58.8722C59.3122 64.2455 60.4523 65.0955 61.8223 65.0955Z" fill="#1F1D20"/>
<path opacity="0.15" d="M61.8223 54.2252C61.0723 54.2252 60.3923 54.3652 59.7123 54.5652C59.6923 54.5652 59.6923 54.5652 59.6823 54.5652V54.5852V54.5652L54.5023 45.9552C54.9123 45.4252 55.1623 44.7652 55.1623 44.0352C55.1623 42.2852 53.7323 40.8652 51.9923 40.8652C50.2523 40.8652 48.8223 42.2952 48.8223 44.0352C48.8223 45.7852 50.2523 47.2052 51.9923 47.2052C52.1923 47.2052 52.4023 47.1852 52.5923 47.1352L58.7523 57.4552C59.3823 57.0452 60.1823 56.6852 60.9523 56.5352C61.2523 56.4852 61.5323 56.4552 61.8323 56.4552C64.8423 56.4552 67.3023 58.9052 67.3023 61.9252C67.3023 64.9352 64.8523 67.3952 61.8323 67.3952C60.4523 67.3952 59.2123 66.8852 58.2523 66.0352L56.6723 67.6152C58.0323 68.8752 59.8423 69.6452 61.8323 69.6452C66.0723 69.6452 69.5323 66.1852 69.5323 61.9452C69.5123 57.6852 66.0623 54.2252 61.8223 54.2252Z" fill="#1F1D20"/>
<path d="M38.7123 60.8158C38.7123 62.5658 40.1423 63.9858 41.8823 63.9858C43.6323 63.9858 45.0523 62.5558 45.0523 60.8158C45.0523 60.0658 44.7723 59.3858 44.3423 58.8358L50.0323 48.0258C49.3223 47.7658 48.7323 47.3758 48.1923 46.8558C47.1523 45.8658 46.5023 44.4658 46.5023 42.9158C46.5023 39.9058 48.9523 37.4458 51.9723 37.4458C54.9923 37.4458 57.4423 39.8958 57.4423 42.9158C57.4423 43.3758 57.3623 43.8358 57.2523 44.2558L59.3223 45.0758C59.5223 44.3758 59.6823 43.6658 59.6823 42.9158C59.6823 38.6758 56.2223 35.2158 51.9823 35.2158C47.7423 35.2158 44.2923 38.6758 44.2923 42.9158C44.2923 45.2858 45.4023 47.3958 47.0823 48.8158L42.4123 57.7058C42.2423 57.6758 42.0723 57.6558 41.8823 57.6558C40.1423 57.6558 38.7123 59.0658 38.7123 60.8158Z" fill="white"/>
<path d="M61.8223 63.9754C63.5723 63.9754 64.9923 62.5454 64.9923 60.8054C64.9923 59.0554 63.5623 57.6354 61.8223 57.6354C60.4823 57.6354 59.3222 58.4854 58.8722 59.6754H47.2222C47.3022 60.0354 47.3522 60.4054 47.3522 60.7854C47.3522 61.1754 47.3022 61.5354 47.2222 61.8954C46.7022 64.3854 44.5122 66.2454 41.8722 66.2454C38.8622 66.2454 36.4022 63.7954 36.4022 60.7754C36.4022 58.4454 37.8822 56.4454 39.9622 55.6654L39.3122 53.5654C36.3322 54.6354 34.1823 57.4654 34.1823 60.7854C34.1823 65.0254 37.6422 68.4854 41.8822 68.4854C45.7422 68.4854 48.9223 65.6054 49.4823 61.8954H58.8722C59.3122 63.1354 60.4523 63.9754 61.8223 63.9754Z" fill="white"/>
<path d="M61.8223 53.1051C61.0723 53.1051 60.3923 53.2451 59.7123 53.4451C59.6923 53.4451 59.6923 53.4451 59.6823 53.4451V53.4651V53.4451L54.5023 44.8351C54.9123 44.3051 55.1623 43.6451 55.1623 42.9151C55.1623 41.1651 53.7323 39.7451 51.9923 39.7451C50.2523 39.7451 48.8223 41.1751 48.8223 42.9151C48.8223 44.6651 50.2523 46.0851 51.9923 46.0851C52.1923 46.0851 52.4023 46.0651 52.5923 46.0151L58.7523 56.3351C59.3823 55.9251 60.1823 55.5651 60.9523 55.4151C61.2523 55.3651 61.5323 55.3351 61.8323 55.3351C64.8423 55.3351 67.3023 57.7851 67.3023 60.8051C67.3023 63.8151 64.8523 66.2751 61.8323 66.2751C60.4523 66.2751 59.2123 65.7651 58.2523 64.9151L56.6723 66.4951C58.0323 67.7551 59.8423 68.5251 61.8323 68.5251C66.0723 68.5251 69.5323 65.0651 69.5323 60.8251C69.5123 56.5651 66.0623 53.1051 61.8223 53.1051Z" fill="white"/>
<path opacity="0.15" d="M51.8423 51.1451C57.3323 51.1451 61.7923 46.6951 61.7923 41.1951C61.7923 35.7051 57.3423 31.2451 51.8423 31.2451C46.3423 31.2451 41.8923 35.6951 41.8923 41.1951C41.9023 46.6951 46.3523 51.1451 51.8423 51.1451Z" fill="#1F1D20"/>
<path d="M51.8423 50.3355C57.3323 50.3355 61.7923 45.8855 61.7923 40.3855C61.7923 34.8855 57.3423 30.4355 51.8423 30.4355C46.3423 30.4355 41.8923 34.8855 41.8923 40.3855C41.8923 45.8855 46.3523 50.3355 51.8423 50.3355Z" fill="#F2F1F0"/>
<path opacity="0.15" d="M64.0823 72.1051C69.5723 72.1051 74.0323 67.6551 74.0323 62.1551C74.0323 56.6551 69.5823 52.2051 64.0823 52.2051C58.5923 52.2051 54.1323 56.6551 54.1323 62.1551C54.1323 67.6551 58.5923 72.1051 64.0823 72.1051Z" fill="#1F1D20"/>
<path d="M64.0823 71.0855C69.5723 71.0855 74.0323 66.6355 74.0323 61.1355C74.0323 55.6355 69.5823 51.1855 64.0823 51.1855C58.5923 51.1855 54.1323 55.6355 54.1323 61.1355C54.1323 66.6355 58.5923 71.0855 64.0823 71.0855Z" fill="#F2F1F0"/>
<path opacity="0.15" d="M39.6623 72.0055C45.1523 72.0055 49.6123 67.5555 49.6123 62.0555C49.6123 56.5555 45.1623 52.1055 39.6623 52.1055C34.1623 52.1055 29.7123 56.5555 29.7123 62.0555C29.7123 67.5555 34.1723 72.0055 39.6623 72.0055Z" fill="#1F1D20"/>
<path d="M39.6623 71.1959C45.1523 71.1959 49.6123 66.7459 49.6123 61.2459C49.6123 55.7559 45.1623 51.2959 39.6623 51.2959C34.1623 51.2959 29.7123 55.7459 29.7123 61.2459C29.7223 66.7459 34.1723 71.1959 39.6623 71.1959Z" fill="#F2F1F0"/>
<path d="M57.2023 44.986C56.9023 42.266 54.5623 40.126 51.7423 40.126C48.9423 40.126 46.6323 42.216 46.2823 44.916C46.2423 45.106 46.2423 45.316 46.2423 45.496C46.3123 46.266 46.8423 47.006 47.8523 47.586C50.0023 48.816 53.5023 48.816 55.6223 47.586C56.6323 47.006 57.1423 46.266 57.2123 45.496C57.2523 45.336 57.2323 45.156 57.2023 44.986Z" fill="#002D4C"/>
<path d="M51.7523 39.3456C53.5823 39.3456 55.0623 37.8756 55.0623 36.0556C55.0623 34.2356 53.5823 32.7656 51.7523 32.7656C49.9223 32.7656 48.4423 34.2356 48.4423 36.0556C48.4423 37.8756 49.9223 39.3456 51.7523 39.3456Z" fill="#002D4C"/>
<path d="M45.1523 65.8258C44.8523 63.1058 42.5123 60.9658 39.6923 60.9658C36.8923 60.9658 34.5823 63.0558 34.2323 65.7558C34.1923 65.9458 34.1923 66.1558 34.1923 66.3358C34.2623 67.1058 34.7923 67.8458 35.8023 68.4258C37.9523 69.6558 41.4523 69.6558 43.5723 68.4258C44.5823 67.8458 45.0923 67.1058 45.1623 66.3358C45.2023 66.1758 45.1823 65.9858 45.1523 65.8258Z" fill="#002D4C"/>
<path d="M39.7022 60.1757C41.5322 60.1757 43.0122 58.7057 43.0122 56.8857C43.0122 55.0657 41.5322 53.5957 39.7022 53.5957C37.8722 53.5957 36.3922 55.0657 36.3922 56.8857C36.3922 58.7057 37.8722 60.1757 39.7022 60.1757Z" fill="#002D4C"/>
<path d="M69.5323 65.8258C69.2323 63.1058 66.8923 60.9658 64.0723 60.9658C61.2723 60.9658 58.9623 63.0558 58.6123 65.7558C58.5723 65.9458 58.5723 66.1558 58.5723 66.3358C58.6423 67.1058 59.1723 67.8458 60.1823 68.4258C62.3323 69.6558 65.8323 69.6558 67.9523 68.4258C68.9623 67.8458 69.4723 67.1058 69.5423 66.3358C69.5823 66.1758 69.5623 65.9858 69.5323 65.8258Z" fill="#002D4C"/>
<path d="M64.0822 60.1757C65.9122 60.1757 67.3922 58.7057 67.3922 56.8857C67.3922 55.0657 65.9122 53.5957 64.0822 53.5957C62.2522 53.5957 60.7722 55.0657 60.7722 56.8857C60.7722 58.7057 62.2522 60.1757 64.0822 60.1757Z" fill="#002D4C"/>
<defs>
<linearGradient id="paint0_linear" x1="50.1024" y1="-13.5142" x2="54.0844" y2="132.256" gradientUnits="userSpaceOnUse">
<stop stop-color="#00ABDE"/>
<stop offset="1" stop-color="#007ED8"/>
</linearGradient>
<linearGradient id="paint1_linear" x1="3.30556" y1="-20.3497" x2="98.8336" y2="120.531" gradientUnits="userSpaceOnUse">
<stop stop-color="#007ED8"/>
<stop offset="0.7065" stop-color="#002D4C"/>
</linearGradient>
<radialGradient id="paint2_radial" cx="0" cy="0" r="1" gradientUnits="userSpaceOnUse" gradientTransform="translate(40.1655 24.0645) scale(118.527)">
<stop stop-color="#15548F"/>
<stop offset="0.4179" stop-color="#243A5E"/>
<stop offset="0.9677" stop-color="#1A2C45"/>
</radialGradient>
</defs>
</svg>
