<svg width="100" height="100" viewBox="0 0 100 100" fill="none" xmlns="http://www.w3.org/2000/svg">
<g clip-path="url(#clip0)">
<path d="M49.6401 96.4481C40.382 96.4481 31.3317 93.7028 23.6339 88.5592C15.936 83.4157 9.93624 76.105 6.3933 67.5516C2.85036 58.9981 1.92337 49.5862 3.72954 40.506C5.53571 31.4257 9.99394 23.085 16.5404 16.5385C23.0869 9.99198 31.4277 5.53376 40.5079 3.72759C49.5882 1.92141 59.0001 2.84841 67.5535 6.39135C76.1069 9.93428 83.4176 15.934 88.5612 23.6319C93.7047 31.3298 96.4501 40.38 96.4501 49.6381C96.4505 55.7854 95.24 61.8726 92.8878 67.5521C90.5355 73.2315 87.0875 78.392 82.7407 82.7388C78.3939 87.0856 73.2335 90.5335 67.554 92.8858C61.8746 95.2381 55.7874 96.4486 49.6401 96.4481V96.4481Z" fill="url(#paint0_linear)"/>
<path fill-rule="evenodd" clip-rule="evenodd" d="M95.54 49.64C95.54 58.7182 92.848 67.5925 87.8045 75.1407C82.7609 82.6889 75.5923 88.572 67.2052 92.0461C58.818 95.5201 49.5891 96.4291 40.6854 94.658C31.7816 92.887 23.603 88.5154 17.1838 82.0962C10.7646 75.677 6.39302 67.4984 4.62196 58.5946C2.85089 49.6909 3.75987 40.462 7.23393 32.0748C10.708 23.6877 16.5911 16.5191 24.1393 11.4755C31.6875 6.43199 40.5618 3.74 49.64 3.74C55.6677 3.73998 61.6363 4.9272 67.2052 7.23388C72.774 9.54057 77.834 12.9215 82.0963 17.1837C86.3585 21.446 89.7394 26.5059 92.0461 32.0748C94.3528 37.6437 95.54 43.6123 95.54 49.64V49.64ZM49.64 3.62732e-07C59.4579 3.62732e-07 69.0553 2.91134 77.2185 8.36585C85.3818 13.8204 91.7442 21.5731 95.5014 30.6436C99.2585 39.7141 100.242 49.6951 98.3262 59.3243C96.4108 68.9535 91.6831 77.7985 84.7408 84.7408C77.7985 91.6831 68.9535 96.4108 59.3243 98.3262C49.6951 100.242 39.7141 99.2585 30.6436 95.5014C21.5731 91.7442 13.8204 85.3818 8.36585 77.2185C2.91134 69.0553 3.62732e-07 59.4579 3.62732e-07 49.64C-0.000787738 43.121 1.28265 36.6656 3.77702 30.6427C6.27138 24.6197 9.9278 19.1471 14.5375 14.5375C19.1471 9.9278 24.6197 6.27138 30.6427 3.77702C36.6656 1.28265 43.121 -0.000787738 49.64 3.62732e-07V3.62732e-07Z" fill="#F2F1F0"/>
<path fill-rule="evenodd" clip-rule="evenodd" d="M92.7296 49.6386C92.7296 58.161 90.2024 66.492 85.4676 73.5781C80.7328 80.6643 74.0031 86.1872 66.1294 89.4486C58.2557 92.71 49.5918 93.5633 41.2331 91.9007C32.8745 90.238 25.1966 86.1341 19.1703 80.1079C13.1441 74.0816 9.04017 66.4037 7.37753 58.0451C5.7149 49.6864 6.56822 41.0225 9.8296 33.1488C13.091 25.2751 18.6139 18.5454 25.7 13.8106C32.7862 9.07581 41.1172 6.54862 49.6396 6.54862C55.2983 6.54828 60.9017 7.6626 66.1298 9.82795C71.3579 11.9933 76.1082 15.1673 80.1096 19.1686C84.1109 23.17 87.2849 27.9203 89.4502 33.1484C91.6156 38.3765 92.7299 43.9799 92.7296 49.6386V49.6386ZM49.6396 2.80862C58.9017 2.80862 67.9558 5.55515 75.6569 10.7009C83.3581 15.8466 89.3604 23.1605 92.9049 31.7176C96.4493 40.2746 97.3767 49.6906 95.5697 58.7747C93.7628 67.8588 89.3027 76.2031 82.7534 82.7524C76.2041 89.3017 67.8598 93.7619 58.7757 95.5688C49.6915 97.3757 40.2756 96.4484 31.7185 92.9039C23.1614 89.3594 15.8476 83.3571 10.7018 75.656C5.5561 67.9548 2.80957 58.9007 2.80957 49.6386C2.81076 37.2189 7.745 25.3082 16.5271 16.5261C25.3091 7.74403 37.2198 2.80979 49.6396 2.80859V2.80862Z" fill="#0078D4"/>
<path fill-rule="evenodd" clip-rule="evenodd" d="M92.7296 49.6386C92.7296 58.161 90.2024 66.492 85.4676 73.5781C80.7328 80.6642 74.0031 86.1872 66.1294 89.4486C58.2557 92.7099 49.5918 93.5633 41.2331 91.9006C32.8745 90.238 25.1966 86.1341 19.1703 80.1078C13.1441 74.0816 9.04017 66.4037 7.37753 58.045C5.7149 49.6864 6.56822 41.0224 9.8296 33.1488C13.091 25.2751 18.6139 18.5454 25.7001 13.8106C32.7862 9.07578 41.1172 6.54859 49.6396 6.54859C55.2983 6.54825 60.9017 7.66257 66.1298 9.82792C71.3579 11.9933 76.1082 15.1673 80.1096 19.1686C84.1109 23.1699 87.2849 27.9203 89.4502 33.1484C91.6156 38.3764 92.7299 43.9798 92.7296 49.6386V49.6386ZM49.6396 2.80859C58.9017 2.80859 67.9558 5.55513 75.6569 10.7009C83.3581 15.8466 89.3604 23.1605 92.9048 31.7175C96.4493 40.2746 97.3767 49.6905 95.5697 58.7747C93.7628 67.8588 89.3027 76.2031 82.7534 82.7524C76.2041 89.3017 67.8598 93.7618 58.7757 95.5688C49.6915 97.3757 40.2756 96.4483 31.7185 92.9039C23.1614 89.3594 15.8476 83.3571 10.7018 75.656C5.5561 67.9548 2.80957 58.9007 2.80957 49.6386C2.81076 37.2189 7.74501 25.3082 16.5271 16.5261C25.3091 7.74403 37.2198 2.80979 49.6396 2.80859V2.80859Z" fill="#0078D4"/>
<path d="M65.7323 26.1719H33.5469C31.3377 26.1719 29.5469 27.9627 29.5469 30.1719V62.3573C29.5469 64.5665 31.3377 66.3573 33.5469 66.3573H65.7323C67.9415 66.3573 69.7323 64.5665 69.7323 62.3573V30.1719C69.7323 27.9627 67.9415 26.1719 65.7323 26.1719Z" fill="white"/>
<path d="M61.2896 42.2711L54.5017 42.2676L53.6396 43.3635V50.6262C53.6396 52.6373 55.6544 54.2676 58.1396 54.2676C60.6248 54.2676 62.6396 52.6373 62.6396 50.6262V43.3635C62.602 43.0411 62.4397 42.7463 62.1873 42.5421C61.935 42.3379 61.6128 42.2407 61.2896 42.2711Z" fill="#5059C9"/>
<path d="M58.6396 41.2656C59.233 41.2656 59.813 41.0897 60.3064 40.76C60.7997 40.4304 61.1842 39.9619 61.4113 39.4137C61.6383 38.8655 61.6978 38.2623 61.582 37.6804C61.4662 37.0984 61.1805 36.5639 60.761 36.1443C60.3414 35.7247 59.8069 35.439 59.2249 35.3233C58.643 35.2075 58.0398 35.2669 57.4916 35.494C56.9434 35.7211 56.4749 36.1056 56.1452 36.5989C55.8156 37.0923 55.6396 37.6723 55.6396 38.2656C55.6396 39.0613 55.9557 39.8243 56.5183 40.3869C57.0809 40.9496 57.844 41.2656 58.6396 41.2656Z" fill="#5059C9"/>
<path d="M42.6396 53.0206V43.4036C42.6396 43.1018 42.7595 42.8124 42.973 42.5989C43.1864 42.3855 43.4758 42.2656 43.7776 42.2656H54.5016C54.8034 42.2656 55.0929 42.3855 55.3063 42.5989C55.5197 42.8123 55.6396 43.1017 55.6396 43.4035V53.0206C55.6396 54.6769 54.9817 56.2653 53.8105 57.4365C52.6393 58.6076 51.0509 59.2656 49.3946 59.2656H48.8846C47.2284 59.2656 45.64 58.6076 44.4688 57.4365C43.2976 56.2653 42.6397 54.6769 42.6396 53.0206V53.0206Z" fill="#7B83EB"/>
<path d="M49.6396 41.2656C50.4308 41.2656 51.2041 41.031 51.8619 40.5915C52.5197 40.152 53.0324 39.5273 53.3352 38.7964C53.6379 38.0655 53.7171 37.2612 53.5628 36.4853C53.4084 35.7093 53.0275 34.9966 52.4681 34.4372C51.9087 33.8778 51.1959 33.4968 50.42 33.3425C49.6441 33.1881 48.8398 33.2674 48.1089 33.5701C47.378 33.8729 46.7533 34.3856 46.3138 35.0433C45.8742 35.7011 45.6396 36.4745 45.6396 37.2656C45.6396 38.3265 46.0611 39.3439 46.8112 40.0941C47.5614 40.8442 48.5788 41.2656 49.6396 41.2656Z" fill="#7B83EB"/>
<path opacity="0.5" d="M42.7645 54.2656H46.8623C48.396 54.2656 49.6396 53.6591 49.6396 52.1118V42.2656H43.7934C43.1562 42.2656 42.6396 44.7822 42.6396 45.4194V53.0205C42.6396 53.4387 42.6815 53.8558 42.7645 54.2656Z" fill="black"/>
<path opacity="0.5" d="M49.5718 41.2588C49.4849 40.9727 49.3087 40.722 49.069 40.5433C48.8293 40.3645 48.5386 40.2673 48.2396 40.2656H47.019C47.725 40.8894 48.63 41.2415 49.5718 41.2588Z" fill="black"/>
<path d="M47.2396 39.2656H36.0396C35.6683 39.2656 35.3122 39.4131 35.0497 39.6757C34.7871 39.9382 34.6396 40.2943 34.6396 40.6656V51.8656C34.6396 52.2369 34.7871 52.593 35.0497 52.8556C35.3122 53.1181 35.6683 53.2656 36.0396 53.2656H47.2396C47.6109 53.2656 47.967 53.1181 48.2296 52.8556C48.4921 52.593 48.6396 52.2369 48.6396 51.8656V40.6656C48.6396 40.4818 48.6034 40.2997 48.5331 40.1299C48.4627 39.96 48.3596 39.8057 48.2296 39.6757C48.0996 39.5457 47.9453 39.4426 47.7754 39.3722C47.6056 39.3018 47.4235 39.2656 47.2396 39.2656Z" fill="#4B53BC"/>
<path d="M46.1293 43.4188H43.0182V51.1966H41.4627V43.4188H38.3516V41.8633H46.1293V43.4188Z" fill="white"/>
<path opacity="0.2" fill-rule="evenodd" clip-rule="evenodd" d="M69.7322 66.3592V48.2789C69.3173 47.9931 68.9371 47.6601 68.5992 47.2866C68.3098 46.9649 67.956 46.7077 67.5606 46.5318C67.1653 46.3559 66.7374 46.2652 66.3047 46.2656C65.872 46.266 65.4443 46.3576 65.0493 46.5342C64.6543 46.7109 64.301 46.9687 64.0122 47.291C62.1724 49.4023 58.6509 50.4287 53.2466 50.4287C52.4391 50.4295 51.6649 50.7506 51.0939 51.3215C50.5229 51.8925 50.2017 52.6666 50.2007 53.4741V61.8364C50.1983 63.3521 50.3252 64.8652 50.5801 66.3592H69.7322Z" fill="#003067"/>
<path fill-rule="evenodd" clip-rule="evenodd" d="M66.3082 49.3086V49.3088L66.308 49.3086C63.5685 52.446 58.746 53.4876 53.2461 53.4876V61.8454C53.2461 70.4658 57.0651 76.0123 66.308 80.657L66.3082 80.6569V80.657C75.5509 76.0123 79.37 70.4658 79.37 61.8454V53.4875C73.87 53.4875 69.0475 52.446 66.3082 49.3086Z" fill="white"/>
<path d="M54.2918 54.5075V61.8408C54.2918 69.9361 57.7806 75.0804 66.3078 79.488C74.835 75.0762 78.3238 69.9361 78.3238 61.8365V54.5075C72.8323 54.3721 68.8778 53.1484 66.3078 50.7859C63.7335 53.1484 59.7832 54.372 54.2918 54.5075ZM66.3078 81.7024C66.1448 81.7017 65.9841 81.664 65.8378 81.5923C56.2775 76.7867 52.2002 70.8761 52.2002 61.8365V53.4744C52.2001 53.3371 52.2271 53.2011 52.2797 53.0742C52.3322 52.9472 52.4092 52.8319 52.5064 52.7348C52.6035 52.6377 52.7188 52.5607 52.8457 52.5081C52.9726 52.4556 53.1086 52.4286 53.246 52.4286C59.2625 52.4286 63.2763 51.1796 65.5203 48.6054C65.6215 48.4981 65.7435 48.4126 65.8789 48.3542C66.0144 48.2958 66.1603 48.2656 66.3078 48.2656C66.4553 48.2656 66.6012 48.2958 66.7366 48.3542C66.872 48.4126 66.9941 48.4981 67.0953 48.6054C69.3393 51.1796 73.3531 52.4286 79.3696 52.4286C79.6468 52.4292 79.9124 52.5396 80.1084 52.7356C80.3044 52.9316 80.4148 53.1973 80.4154 53.4744V61.8365C80.4154 70.8761 76.338 76.7825 66.7777 81.588C66.6324 81.663 66.4713 81.7022 66.3078 81.7024H66.3078Z" fill="url(#paint1_linear)"/>
<path fill-rule="evenodd" clip-rule="evenodd" d="M66.3078 70.467C65.1468 70.4671 64.0118 70.1228 63.0464 69.4778C62.0811 68.8327 61.3287 67.9159 60.8844 66.8433C60.44 65.7706 60.3238 64.5903 60.5503 63.4516C60.7768 62.3129 61.3359 61.2669 62.1569 60.4459C62.9778 59.6249 64.0238 59.0659 65.1625 58.8394C66.3013 58.6129 67.4816 58.7291 68.5542 59.1734C69.6269 59.6177 70.5437 60.3701 71.1887 61.3355C71.8337 62.3009 72.178 63.4358 72.178 64.5969C72.178 66.1537 71.5595 67.6468 70.4586 68.7477C69.3577 69.8485 67.8647 70.467 66.3078 70.467Z" fill="#72C472"/>
<path fill-rule="evenodd" clip-rule="evenodd" d="M69.0048 62.9689C68.8671 62.8312 68.6803 62.7539 68.4856 62.7539C68.2909 62.7539 68.1042 62.8312 67.9664 62.9689L65.5461 65.3875L64.6718 64.5216C64.6514 64.4912 64.6283 64.4628 64.6028 64.4365C64.4662 64.2984 64.2805 64.2202 64.0863 64.2188C63.8921 64.2175 63.7053 64.2932 63.5669 64.4294C63.4284 64.5656 63.3496 64.7511 63.3477 64.9453C63.3458 65.1395 63.421 65.3265 63.5567 65.4653L63.5479 65.4741L65.0291 66.9417C65.1669 67.0793 65.3537 67.1566 65.5485 67.1566C65.7432 67.1566 65.93 67.0793 66.0678 66.9417L69.0026 64.0082L69.0048 64.0065C69.073 63.9384 69.1271 63.8575 69.164 63.7685C69.2009 63.6794 69.2199 63.584 69.2199 63.4877C69.2199 63.3913 69.2009 63.2959 69.164 63.2069C69.127 63.1178 69.073 63.037 69.0048 62.9689V62.9689Z" fill="white"/>
</g>
<defs>
<linearGradient id="paint0_linear" x1="47.8698" y1="-15.155" x2="51.8525" y2="130.613" gradientUnits="userSpaceOnUse">
<stop stop-color="#00ABDE"/>
<stop offset="1" stop-color="#007ED8"/>
</linearGradient>
<linearGradient id="paint1_linear" x1="75.593" y1="76.5875" x2="59.4749" y2="48.6701" gradientUnits="userSpaceOnUse">
<stop stop-color="#007ED8"/>
<stop offset="1" stop-color="#00ABDE"/>
</linearGradient>
<clipPath id="clip0">
<rect width="99.2799" height="99.28" fill="white"/>
</clipPath>
</defs>
</svg>
