<svg width="160" height="188" viewBox="0 0 160 188" fill="none" xmlns="http://www.w3.org/2000/svg">
<g clip-path="url(#clip0)">
<path d="M79.6779 188C82.7592 187.994 85.7796 187.141 88.4083 185.534L150.384 147.874C153.165 146.11 155.449 143.665 157.019 140.771C158.589 137.876 159.394 134.628 159.356 131.336V56.6207C159.392 53.3283 158.587 50.0812 157.017 47.1871C155.447 44.2929 153.163 41.8476 150.384 40.0829L88.4083 2.4228C85.7749 0.837605 82.7592 0 79.6855 0C76.6118 0 73.5961 0.837605 70.9627 2.4228L8.9876 40.098C6.2045 41.8604 3.91796 44.3048 2.34499 47.1991C0.772021 50.0935 -0.0351786 53.3418 4.1431e-06 56.6358V131.336C-0.0185283 134.119 0.556189 136.874 1.68588 139.418C2.81557 141.962 4.4743 144.236 6.5516 146.089V146.115L70.9627 185.549C73.5884 187.149 76.6032 187.996 79.6779 188V188ZM80.3257 6.95218C82.2776 6.95218 84.7548 8.1651 86.4646 9.20912L147.222 46.4034C150.974 48.6881 153.09 55.2842 153.09 60.0352L152.458 131.336C152.458 136.087 149.259 140.355 145.506 142.64L85.1104 179.021C81.6758 181.109 78.8854 181.109 75.4507 179.021L14.2427 142.549C10.4903 140.265 7.47191 136.072 7.47191 131.336V57.688C7.50442 55.3228 8.11341 53.0013 9.24608 50.9247C10.3787 48.8482 12.0009 47.0792 13.9718 45.7714L74.548 9.20912C76.2577 8.1651 78.3739 6.95218 80.3257 6.95218Z" fill="#F2F1F0"/>
<path fill-rule="evenodd" clip-rule="evenodd" d="M87.5765 10.5318C85.2056 9.05825 82.4697 8.27734 79.6783 8.27734C76.8868 8.27734 74.1509 9.05825 71.7801 10.5318L15.6454 44.8632C13.1193 46.4748 11.047 48.7052 9.625 51.3427C8.203 53.9801 7.47851 56.9372 7.52026 59.9333V128.036C7.48034 131.032 8.20562 133.989 9.62745 136.626C11.0493 139.263 13.1206 141.493 15.6454 143.106L71.7801 177.437C74.1508 178.911 76.8867 179.692 79.6783 179.692C82.4698 179.692 85.2057 178.911 87.5765 177.437L143.711 143.106C146.236 141.494 148.307 139.263 149.729 136.626C151.151 133.989 151.877 131.032 151.837 128.036V59.9333C151.875 56.9377 151.149 53.9819 149.727 51.3451C148.305 48.7082 146.234 46.4773 143.711 44.8632L87.5765 10.5318Z" fill="url(#paint0_linear)"/>
<path fill-rule="evenodd" clip-rule="evenodd" d="M79.6783 9.7539C81.3615 9.7539 83.2442 10.6196 85.311 11.8777L143.777 47.4201C145.668 48.6335 147.218 50.3104 148.278 52.2914C149.339 54.2725 149.875 56.4918 149.837 58.7386V129.217C149.875 131.464 149.339 133.683 148.278 135.664C147.218 137.645 145.668 139.322 143.777 140.535L85.312 176.077L85.311 176.078C83.6408 177.217 81.6958 177.888 79.6783 178.021C77.6609 177.888 75.7158 177.217 74.0456 176.078L74.0446 176.077L15.5823 140.537L15.5801 140.536C13.7918 139.572 12.2668 138.185 11.1383 136.496C10.1614 134.893 9.52031 132.678 9.52031 129.217V58.7386C9.48157 56.4919 10.018 54.2726 11.0785 52.2916C12.139 50.3106 13.6885 48.6336 15.5797 47.4202L74.0365 11.8831L74.0406 11.8807C76.1244 10.6277 77.9846 9.7539 79.6783 9.7539ZM87.3908 8.4609L145.855 44.0021C148.333 45.5722 150.368 47.751 151.765 50.3307C153.162 52.9104 153.876 55.8051 153.837 58.7386V129.217C153.876 132.151 153.162 135.045 151.765 137.625C150.368 140.205 148.333 142.384 145.855 143.954L87.3898 179.495C85.0956 181.02 82.4302 181.893 79.6783 182.021C76.9264 181.893 74.261 181.02 71.9667 179.495H71.9658L13.502 143.953L13.4995 143.952C11.1642 142.659 9.18097 140.814 7.72281 138.578C6.12823 135.725 5.36521 132.482 5.52031 129.217V58.7386C5.48125 55.805 6.19436 52.9103 7.59165 50.3305C8.98894 47.7508 11.0238 45.572 13.5022 44.002L71.9667 8.46025L71.9749 8.45537C74.0655 7.19796 76.7734 5.75391 79.6783 5.75391C82.5645 5.75391 85.2816 7.17699 87.3908 8.46085V8.4609Z" fill="#0078D4"/>
<path opacity="0.2" d="M139.96 132.028L80.41 166.634L20.464 132.025L80.014 97.418L139.96 132.028Z" fill="#003067"/>
<path d="M140.601 120.65L79.878 155.938L18.767 120.655L79.489 85.3672L140.601 120.65Z" fill="#1B93EB"/>
<path d="M140.601 120.648L140.589 124.754L79.8669 160.042L79.8779 155.936L140.601 120.648Z" fill="#1F56A3"/>
<path d="M79.878 155.939L79.867 160.045L18.755 124.762L18.767 120.656L79.878 155.939Z" fill="#0078D4"/>
<path d="M28.421 120.116L79.182 90.6172L130.316 120.139L79.556 149.638L28.421 120.116Z" stroke="url(#paint1_radial)" stroke-width="0.75" stroke-miterlimit="10"/>
<path d="M38.397 120.104L79.19 96.3984L120.34 120.156L79.548 143.862L38.397 120.104Z" stroke="url(#paint2_radial)" stroke-width="0.75" stroke-miterlimit="10"/>
<path d="M48.3719 120.09L79.1979 102.176L110.365 120.17L79.5399 138.084L48.3719 120.09Z" stroke="url(#paint3_radial)" stroke-width="0.75" stroke-miterlimit="10"/>
<path opacity="0.2" d="M96.3274 109.474C99.1787 111.121 100.216 113.417 99.4094 115.543C99.9494 115.731 100.471 115.97 100.967 116.255C104.413 118.245 104.421 121.475 100.997 123.464C100.589 123.702 100.162 123.908 99.722 124.08C99.6585 124.106 99.5705 124.134 99.502 124.162C98.8283 124.407 98.1363 124.597 97.4325 124.733C97.3493 124.747 97.2611 124.758 97.1731 124.776C94.2274 125.294 91.193 124.835 88.5319 123.47L70.6915 113.125C68.9008 111.864 69.0029 109.988 71.0396 108.805C72.259 108.184 73.6079 107.86 74.9764 107.859C76.3448 107.859 77.694 108.182 78.9139 108.802C79.3232 109.029 79.691 109.323 80.0017 109.673C80.0993 109.605 80.2116 109.54 80.3191 109.477C84.7294 106.914 91.8932 106.914 96.3274 109.474Z" fill="#003067"/>
<path d="M99.6743 105.496L99.6707 106.751C99.6679 107.231 99.5781 107.706 99.4059 108.154L99.4094 106.898C99.5817 106.451 99.6714 105.976 99.6743 105.496V105.496Z" fill="#F2F2F2"/>
<path d="M100.997 114.819C100.589 115.056 100.162 115.262 99.722 115.435C99.6585 115.46 99.5704 115.489 99.502 115.517C98.8282 115.761 98.1363 115.952 97.4325 116.088C97.3493 116.102 97.2612 116.113 97.173 116.13C94.2273 116.648 91.1931 116.19 88.5319 114.825L70.6914 104.479C70.3285 104.266 70.0233 103.966 69.8027 103.608C69.582 103.249 69.4524 102.842 69.4253 102.422L69.4218 103.677C69.4489 104.097 69.5784 104.505 69.7991 104.863C70.0198 105.222 70.3249 105.521 70.6878 105.734L88.5283 116.08C91.1895 117.445 94.2237 117.903 97.1694 117.385C97.2576 117.368 97.3457 117.357 97.4289 117.343C98.1327 117.207 98.8247 117.017 99.4985 116.772C99.5668 116.744 99.6549 116.716 99.7184 116.69C100.159 116.517 100.585 116.312 100.994 116.074C102.697 115.084 103.551 113.787 103.555 112.489L103.558 111.234C103.555 112.532 102.701 113.829 100.997 114.819Z" fill="#F2F2F2"/>
<path d="M96.3274 100.83C99.1787 102.476 100.216 104.772 99.4094 106.898C99.9494 107.087 100.471 107.325 100.967 107.61C104.413 109.6 104.421 112.83 100.997 114.82C100.589 115.057 100.162 115.263 99.722 115.436C99.6585 115.461 99.5705 115.49 99.502 115.518C98.8283 115.762 98.1363 115.953 97.4325 116.088C97.3493 116.103 97.2611 116.114 97.1731 116.131C94.2274 116.649 91.193 116.191 88.5319 114.825L70.6915 104.48C68.9008 103.22 69.0029 101.344 71.0396 100.16C72.259 99.5391 73.6079 99.2151 74.9764 99.2146C76.3448 99.2141 77.694 99.5371 78.9139 100.157C79.3232 100.384 79.691 100.679 80.0017 101.029C80.0993 100.96 80.2116 100.895 80.3191 100.833C84.7294 98.2698 91.8932 98.2698 96.3274 100.83Z" fill="white"/>
<path d="M95.708 69.9336L87.464 74.7246L113.162 89.5616L121.406 84.7706L95.708 69.9336Z" fill="#003067"/>
<path d="M109.294 97.8865C107.623 100.115 105.565 102.025 103.218 103.525C102.891 103.734 102.559 103.937 102.224 104.132L110.468 99.3409C110.804 99.1458 111.135 98.9434 111.463 98.7338C116.476 95.5603 120.046 90.5485 121.406 84.7734L113.162 89.5644C112.436 92.5671 111.121 95.3958 109.294 97.8865V97.8865Z" fill="url(#paint4_linear)"/>
<path d="M120.129 57.6639C119.308 57.1553 118.501 56.6381 117.702 56.1082C116.118 55.0519 114.588 53.9162 113.119 52.7055C111.571 51.4354 110.101 50.0729 108.717 48.6254C107.216 47.0527 105.817 45.3863 104.527 43.6362C103.282 41.9254 101.887 40.329 100.359 38.866C98.9386 37.5194 97.4165 36.2843 95.8064 35.1716L91.9851 37.3923L91.9976 32.9726C90.5423 32.2795 89.0129 31.7541 87.4389 31.4066C86.0761 31.1052 84.6663 31.0837 83.2949 31.3434C81.8984 31.5998 80.4723 31.6536 79.0604 31.5032C77.5577 31.3298 76.0787 30.9918 74.6498 30.4953C73.0708 29.9596 71.5284 29.3217 70.0322 28.5858C69.2329 28.1931 68.4336 27.7832 67.627 27.3518C67.3876 27.1931 67.1113 27.099 66.8248 27.0785C66.5384 27.058 66.2515 27.1118 65.9919 27.2347L57.7477 32.0257C58.0072 31.9028 58.2942 31.849 58.5806 31.8695C58.8671 31.89 59.1434 31.9841 59.3828 32.1428C60.1895 32.5742 60.9888 32.984 61.788 33.3768C63.2842 34.1127 64.8266 34.7506 66.4056 35.2863C67.8345 35.7828 69.3136 36.1208 70.8163 36.2942C72.2281 36.4446 73.6542 36.3908 75.0507 36.1344C76.422 35.8747 77.8319 35.8962 79.1947 36.1976C80.7687 36.5451 82.2981 37.0705 83.7534 37.7636L83.6672 68.1426L91.9114 63.3516L91.9676 43.5278C92.0154 43.5725 92.0673 43.612 92.1148 43.6569C93.6433 45.1199 95.0382 46.7163 96.2829 48.4272C97.5725 50.1773 98.972 51.8437 100.473 53.4163C101.857 54.8639 103.327 56.2264 104.875 57.4965C106.344 58.7072 107.874 59.8429 109.458 60.8992C110.257 61.4292 111.064 61.9463 111.885 62.4549C112.564 62.9184 113.128 63.532 113.532 64.2482C113.936 64.9644 114.169 65.764 114.215 66.585L114.173 81.3712C114.171 82.1006 114.146 82.8172 114.107 83.525C114.06 84.2286 113.991 84.9192 113.891 85.5926L122.136 80.8016C122.235 80.1282 122.304 79.4376 122.351 78.734C122.39 78.0261 122.415 77.3096 122.417 76.5802L122.459 61.794C122.414 60.973 122.18 60.1734 121.776 59.4572C121.372 58.741 120.808 58.1274 120.129 57.6639V57.6639Z" fill="url(#paint5_linear)"/>
<path d="M66.201 52.8984L57.9561 57.6894L83.6551 72.5264L91.8991 67.7354L66.201 52.8984Z" fill="#003067"/>
<path d="M83.6548 72.5279L91.899 67.7369L91.8842 72.9519L87.4636 74.7269L91.8035 101.403L83.5593 106.194L83.6548 72.5279ZM91.9975 32.9727L83.7533 37.7637L83.6673 68.1427L91.9114 63.3517L87.5621 39.9627L91.9849 37.3924L91.9975 32.9727Z" fill="url(#paint6_linear)"/>
<path d="M57.9565 57.688L83.6549 72.525L83.5595 106.191C80.7642 102.703 78.0118 99.0109 75.3023 95.1143C72.5947 91.2285 70.0869 87.2072 67.7887 83.066C65.5217 78.9894 63.5124 74.7748 61.7728 70.4468C60.1002 66.3241 58.8223 62.052 57.9565 57.688V57.688ZM87.3682 108.39C90.175 108.135 92.9531 107.628 95.6685 106.873C98.339 106.141 100.884 105.011 103.218 103.521C108.232 100.348 111.802 95.3361 113.162 89.561L87.4637 74.724L87.3682 108.39ZM75.0507 36.1315C73.6542 36.3879 72.2281 36.4417 70.8164 36.2913C69.3137 36.1179 67.8345 35.7799 66.4056 35.2834C64.8267 34.7477 63.2842 34.1098 61.7881 33.3739C60.9888 32.9812 60.1895 32.5713 59.3829 32.14C58.0832 31.4498 57.0491 32.0734 57.0448 33.5665L57.0031 48.3613C57.0158 49.0993 57.0436 49.846 57.0864 50.6013C57.1216 51.3523 57.1793 52.1162 57.2594 52.8931L83.6674 68.1397L83.7535 37.7607C82.2982 37.0676 80.7689 36.5422 79.1949 36.1947C77.832 35.8933 76.4221 35.8718 75.0507 36.1315V36.1315ZM111.885 62.4521C111.064 61.9435 110.257 61.4263 109.458 60.8963C107.874 59.8401 106.344 58.7044 104.875 57.4936C103.327 56.2236 101.857 54.861 100.473 53.4136C98.9721 51.8409 97.5726 50.1744 96.2831 48.4243C95.0383 46.7135 93.6434 45.117 92.1149 43.654C90.6945 42.3075 89.1724 41.0724 87.5623 39.9597L87.4761 70.3387L113.892 85.5897C113.991 84.9163 114.06 84.2257 114.107 83.5221C114.146 82.8142 114.171 82.0977 114.173 81.3682L114.215 66.5822C114.169 65.7611 113.936 64.9615 113.532 64.2453C113.128 63.5291 112.564 62.9155 111.885 62.4521V62.4521Z" fill="url(#paint7_linear)"/>
<path opacity="0.2" d="M100.24 133.51C100.504 133.6 100.733 133.769 100.896 133.995C101.059 134.22 101.148 134.491 101.149 134.77C101.151 135.048 101.065 135.32 100.905 135.548C100.744 135.775 100.517 135.947 100.254 136.039C99.5778 136.383 98.8299 136.562 98.0713 136.562C97.3128 136.562 96.5649 136.383 95.8885 136.039L69.3603 120.723C69.0965 120.634 68.8671 120.465 68.7041 120.239C68.5411 120.013 68.4526 119.742 68.4511 119.464C68.4495 119.185 68.5349 118.913 68.6953 118.686C68.8558 118.458 69.0832 118.286 69.346 118.194C70.0224 117.851 70.7702 117.672 71.5288 117.672C72.2874 117.672 73.0353 117.851 73.7117 118.194L100.24 133.51Z" fill="#003067"/>
<path d="M87.99 119.43L91.358 117.473L93.008 120.334L89.64 122.292L87.99 119.43Z" fill="#0078D4"/>
<path d="M91.3701 113.332C90.3599 113.89 90.3546 115.749 91.3584 117.47C90.797 117.796 90.2355 118.122 89.674 118.448C89.2438 118.698 88.8135 118.949 88.3832 119.199L87.9898 119.427C86.986 117.706 86.9912 115.848 88.0015 115.29C89.0121 114.702 90.3595 113.919 91.3701 113.332Z" fill="#0078D4"/>
<path d="M82.6002 112.451C75.7797 108.513 70.244 98.9252 70.2662 91.0882C70.2773 87.1948 71.658 84.4519 73.8812 83.1602L70.5124 85.1178C68.2895 86.4095 66.9087 89.1524 66.8976 93.0458C66.8755 100.883 72.4115 110.471 79.2314 114.409C82.6638 116.39 85.78 116.571 88.0315 115.262L91.4003 113.305C89.1485 114.613 86.0326 114.433 82.6002 112.451Z" fill="#1F56A3"/>
<path d="M88.0016 115.289L91.3702 113.331C91.6589 113.201 91.9768 113.149 92.292 113.181C92.6071 113.213 92.9083 113.327 93.1655 113.512L89.7968 115.469C89.5397 115.284 89.2385 115.17 88.9234 115.139C88.6082 115.107 88.2903 115.159 88.0016 115.289V115.289Z" fill="#0078D4"/>
<path d="M91.587 117.36L94.956 115.402L96.614 118.274L93.245 120.232L91.587 117.36Z" fill="#0078D4"/>
<path d="M79.3026 85.974C86.1354 89.919 91.6469 99.4798 91.6246 107.331C91.6023 115.183 86.0548 118.344 79.222 114.399C72.3892 110.454 66.865 100.901 66.8873 93.0492C66.9095 85.1977 72.4698 82.0291 79.3026 85.974Z" fill="url(#paint8_linear)"/>
<path d="M89.7968 115.469L93.1654 113.512C93.914 113.978 94.5305 114.629 94.9558 115.402L91.5871 117.359C91.1619 116.586 90.5454 115.936 89.7968 115.469V115.469Z" fill="#0078D4"/>
<path d="M103.579 130.34L96.614 118.276C98.7885 116.185 100.083 112.787 100.096 108.309C100.127 97.2458 92.3251 83.7324 82.6973 78.1738C77.8524 75.3766 73.457 75.1201 70.2816 76.9656L66.9131 78.9232C70.0882 77.0778 74.4839 77.3342 79.3288 80.1314C88.9568 85.69 96.7584 99.2034 96.7272 110.266C96.7143 114.745 95.42 118.143 93.2452 120.233L100.21 132.297C101.199 134.01 101.193 135.868 100.199 136.435L103.567 134.477C104.562 133.91 104.568 132.052 103.579 130.34Z" fill="#1F56A3"/>
<path d="M100.21 132.297L93.2452 120.233C95.42 118.142 96.7144 114.744 96.7272 110.266C96.7584 99.2028 88.9569 85.6894 79.3289 80.1308C69.7008 74.5722 61.8482 79.0472 61.8167 90.1103C61.7852 101.173 69.5874 114.687 79.2151 120.245C83.1151 122.497 86.724 123.102 89.6398 122.29L96.5977 134.356C97.0252 135.13 97.6443 135.783 98.3959 136.25C98.6539 136.436 98.9562 136.551 99.2726 136.583C99.589 136.616 99.9084 136.564 100.199 136.434C101.193 135.867 101.199 134.009 100.21 132.297ZM79.2314 114.407C72.4115 110.469 66.8755 100.881 66.8977 93.0439C66.9201 85.2068 72.492 82.0314 79.3122 85.969C86.1327 89.9069 91.6684 99.4953 91.6462 107.332C91.6241 115.169 86.0519 118.345 79.2314 114.407Z" fill="#0078D4"/>
<path opacity="0.2" d="M68.2074 138.492C68.4334 138.568 68.63 138.712 68.7697 138.905C68.9094 139.098 68.9853 139.33 68.9866 139.568C68.988 139.806 68.9147 140.039 68.7772 140.233C68.6396 140.428 68.4446 140.574 68.2196 140.652L67.5853 141.021C67.0078 141.315 66.3688 141.469 65.7206 141.469C65.0725 141.469 64.4335 141.315 63.856 141.021L45.0788 130.18C44.8528 130.104 44.6562 129.96 44.5164 129.767C44.3767 129.574 44.3008 129.342 44.2995 129.104C44.2981 128.866 44.3714 128.633 44.5089 128.439C44.6465 128.244 44.8415 128.098 45.0665 128.02L45.7009 127.651C46.2783 127.357 46.9173 127.203 47.5655 127.203C48.2137 127.203 48.8527 127.357 49.4302 127.651L68.2074 138.492Z" fill="#003067"/>
<path d="M63.3242 110.263C65.5199 111.631 67.328 113.539 68.5755 115.805C71.4661 120.812 71.447 126.199 68.5413 127.868L57.59 134.1C57.4724 134.154 57.3426 134.176 57.2139 134.163C57.0852 134.15 56.9621 134.104 56.8573 134.028C56.5513 133.838 56.2997 133.571 56.1266 133.255L45.2539 114.427C42.3633 109.421 42.3786 104.018 45.2881 102.356C46.7428 101.529 48.6456 101.794 50.546 102.891C52.7376 104.255 54.543 106.158 55.7897 108.419L56.9224 110.385L58.0587 109.733C59.5173 108.902 61.422 109.165 63.3242 110.263Z" fill="url(#paint9_linear)"/>
<path d="M72.7711 113.368C71.5237 111.102 69.7156 109.194 67.52 107.826C65.6177 106.728 63.713 106.465 62.2545 107.296L61.1181 107.948L59.9854 105.981C58.7388 103.721 56.9334 101.818 54.7417 100.454C52.8413 99.3566 50.9385 99.0914 49.4839 99.9183L45.2882 102.357C46.743 101.53 48.6457 101.795 50.5461 102.892C52.7377 104.256 54.5431 106.159 55.7897 108.42L56.9225 110.386L58.0588 109.734C59.5173 108.903 61.422 109.166 63.3243 110.264C65.52 111.632 67.328 113.54 68.5756 115.806C71.4662 120.813 71.447 126.2 68.5414 127.869L72.737 125.43C75.6427 123.761 75.6617 118.374 72.7711 113.368Z" fill="url(#paint10_linear)"/>
<path d="M52.864 115.336L51.718 117.437L52.864 115.336Z" fill="url(#paint11_linear)"/>
<path d="M69.8405 126.607L65.5354 124.122L63.4376 120.137C63.2512 119.77 62.9643 119.463 62.6102 119.253C62.5089 119.187 62.3926 119.149 62.2724 119.141C62.1522 119.133 62.0319 119.156 61.923 119.208L61.084 119.696C61.0938 119.69 61.1054 119.688 61.1154 119.684C61.065 119.707 61.0189 119.739 60.9792 119.777L58.2215 122.56L54.6129 112.116C54.4474 111.62 54.1166 111.196 53.6759 110.914C53.5715 110.841 53.4495 110.796 53.3223 110.784C53.195 110.773 53.067 110.795 52.9511 110.849L52.1121 111.336C52.1644 111.307 52.2216 111.287 52.2808 111.278C52.2022 111.291 52.1278 111.322 52.0637 111.37C51.9995 111.417 51.9473 111.479 51.9114 111.55L49.9606 115.13L45.38 112.485C45.2745 112.408 45.1504 112.361 45.0205 112.348C44.8906 112.335 44.7597 112.357 44.6412 112.412L44.3303 112.593C44.6028 113.222 44.9112 113.835 45.2539 114.429L46.4144 116.439L50.2086 118.629C50.3173 118.709 50.4464 118.756 50.5808 118.765C50.7153 118.774 50.8496 118.745 50.9681 118.681C50.9599 118.687 50.953 118.695 50.9443 118.7L51.7835 118.212C51.8689 118.162 51.9385 118.088 51.9846 118L53.086 115.98L56.3754 125.505C56.5319 125.964 56.8259 126.363 57.2173 126.648C57.2461 126.667 57.2747 126.685 57.3032 126.701C57.4231 126.796 57.5718 126.847 57.7245 126.845C57.8772 126.843 58.0247 126.789 58.1424 126.692L61.8877 122.914L58.1424 126.692C58.1113 126.724 58.0761 126.751 58.0376 126.774L58.8768 126.286C58.9152 126.264 58.9504 126.236 58.9814 126.204L62.0112 123.148L63.444 125.864C63.6201 126.215 63.8893 126.511 64.2221 126.72L67.3691 128.537L68.5414 127.87C69.0703 127.56 69.5161 127.127 69.8405 126.607V126.607ZM52.8637 115.337L51.7182 117.437L52.8637 115.337V115.337Z" fill="url(#paint12_linear)"/>
<path opacity="0.2" d="M69.8405 126.607L65.5354 124.122L63.4376 120.137C63.2512 119.77 62.9643 119.463 62.6102 119.253C62.5089 119.187 62.3926 119.149 62.2724 119.141C62.1522 119.133 62.0319 119.156 61.923 119.208L61.084 119.696C61.0938 119.69 61.1054 119.688 61.1154 119.684C61.065 119.707 61.0189 119.739 60.9792 119.777L58.2215 122.56L54.6129 112.116C54.4474 111.62 54.1166 111.196 53.6759 110.914C53.5715 110.841 53.4495 110.796 53.3223 110.784C53.195 110.773 53.067 110.795 52.9511 110.849L52.1121 111.336C52.1644 111.307 52.2216 111.287 52.2808 111.278C52.2022 111.291 52.1278 111.322 52.0637 111.37C51.9995 111.417 51.9473 111.479 51.9114 111.55L49.9606 115.13L45.38 112.485C45.2745 112.408 45.1504 112.361 45.0205 112.348C44.8906 112.335 44.7597 112.357 44.6412 112.412L44.3303 112.593C44.6028 113.222 44.9112 113.835 45.2539 114.429L46.4144 116.439L50.2086 118.629C50.3173 118.709 50.4464 118.756 50.5808 118.765C50.7153 118.774 50.8496 118.745 50.9681 118.681C50.9599 118.687 50.953 118.695 50.9443 118.7L51.7835 118.212C51.8689 118.162 51.9385 118.088 51.9846 118L53.086 115.98L56.3754 125.505C56.5319 125.964 56.8259 126.363 57.2173 126.648C57.2461 126.667 57.2747 126.685 57.3032 126.701C57.4231 126.796 57.5718 126.847 57.7245 126.845C57.8772 126.843 58.0247 126.789 58.1424 126.692L61.8877 122.914L58.1424 126.692C58.1113 126.724 58.0761 126.751 58.0376 126.774L58.8768 126.286C58.9152 126.264 58.9504 126.236 58.9814 126.204L62.0112 123.148L63.444 125.864C63.6201 126.215 63.8893 126.511 64.2221 126.72L67.3691 128.537L68.5414 127.87C69.0703 127.56 69.5161 127.127 69.8405 126.607V126.607ZM52.8637 115.337L51.7182 117.437L52.8637 115.337V115.337Z" fill="#003067"/>
<path d="M44.1414 113.86L49.1585 116.757L48.3194 117.244L43.3024 114.348C43.1969 114.271 43.0728 114.224 42.943 114.211C42.8131 114.198 42.6822 114.22 42.5637 114.275L43.4028 113.787C43.5213 113.732 43.6522 113.71 43.7821 113.723C43.9119 113.736 44.036 113.783 44.1414 113.86V113.86ZM49.907 119.863C49.8609 119.951 49.7913 120.024 49.7059 120.075L50.5451 119.587C50.6305 119.537 50.7001 119.463 50.7461 119.375L52.4644 116.224L51.6254 116.712L49.907 119.863ZM53.3745 113.491C53.209 112.995 52.8782 112.571 52.4375 112.289C52.3331 112.216 52.2111 112.171 52.0839 112.159C51.9566 112.148 51.8286 112.17 51.7127 112.224L50.8737 112.711C50.9896 112.658 51.1176 112.635 51.2448 112.647C51.372 112.658 51.494 112.703 51.5984 112.777C52.0391 113.058 52.3698 113.482 52.5353 113.978L56.2358 124.689L57.0749 124.201L53.3745 113.491ZM56.9039 128.067C56.8729 128.099 56.8377 128.126 56.7992 128.149L57.6383 127.661C57.6768 127.639 57.712 127.611 57.743 127.579L61.4884 123.801L60.6493 124.289L56.9039 128.067ZM69.7017 128.617L64.297 125.497L62.1992 121.512C62.0128 121.145 61.7259 120.838 61.3718 120.628C61.2705 120.562 61.1542 120.524 61.034 120.516C60.9138 120.508 60.7935 120.531 60.6846 120.583L59.8456 121.071C59.9545 121.019 60.0747 120.996 60.1949 121.004C60.3151 121.012 60.4313 121.05 60.5326 121.115C60.8868 121.326 61.1737 121.632 61.3601 122L63.4578 125.984L68.8626 129.105C69.1633 129.301 69.4134 129.565 69.5924 129.876C69.7715 130.187 69.8745 130.536 69.893 130.894C69.9058 131.021 69.8845 131.15 69.8315 131.266C69.7785 131.382 69.6955 131.483 69.5912 131.557L70.4302 131.069C70.5346 130.995 70.6176 130.895 70.6706 130.778C70.7236 130.662 70.7449 130.534 70.7321 130.406C70.7136 130.048 70.6106 129.699 70.4315 129.388C70.2524 129.077 70.0023 128.813 69.7017 128.617Z" fill="url(#paint13_linear)"/>
<path d="M51.5983 112.776C52.039 113.057 52.3698 113.481 52.5352 113.977L56.2357 124.688L59.7406 121.151C59.8498 121.058 59.9869 121.004 60.1302 120.997C60.2736 120.991 60.4151 121.032 60.5326 121.114C60.8867 121.325 61.1736 121.631 61.36 121.999L63.4578 125.983L68.8625 129.104C69.1631 129.3 69.4132 129.564 69.5923 129.875C69.7714 130.186 69.8744 130.535 69.8929 130.893C69.891 131.548 69.4258 131.813 68.8557 131.484L62.9835 128.094C62.6507 127.885 62.3816 127.589 62.2055 127.238L60.6492 124.287L56.9038 128.066C56.7862 128.163 56.6387 128.217 56.486 128.219C56.3333 128.221 56.1846 128.17 56.0647 128.075C56.0361 128.059 56.0075 128.041 55.9788 128.022C55.5874 127.737 55.2934 127.338 55.1369 126.879L51.6252 116.711L49.907 119.861C49.7348 120.178 49.3692 120.233 48.9701 120.003L43.2955 116.727C42.9944 116.532 42.7437 116.268 42.564 115.957C42.3842 115.647 42.2805 115.298 42.2612 114.94C42.2631 114.28 42.7283 114.015 43.3022 114.347L48.3192 117.243L50.6728 112.924C50.8412 112.61 51.203 112.552 51.5983 112.776Z" fill="url(#paint14_linear)"/>
</g>
<defs>
<linearGradient id="paint0_linear" x1="79.6785" y1="8.27734" x2="79.6785" y2="179.692" gradientUnits="userSpaceOnUse">
<stop stop-color="#00ABDE"/>
<stop offset="1" stop-color="#007ED8"/>
</linearGradient>
<radialGradient id="paint1_radial" cx="0" cy="0" r="1" gradientUnits="userSpaceOnUse" gradientTransform="translate(79.3685 120.128) scale(42.2436)">
<stop offset="0.00898" stop-color="#50E6FF"/>
<stop offset="1" stop-color="#1490DF"/>
</radialGradient>
<radialGradient id="paint2_radial" cx="0" cy="0" r="1" gradientUnits="userSpaceOnUse" gradientTransform="translate(6542.09 5798.2) scale(2793.59 1618.14)">
<stop offset="0.00898" stop-color="#50E6FF"/>
<stop offset="1" stop-color="#1490DF"/>
</radialGradient>
<radialGradient id="paint3_radial" cx="0" cy="0" r="1" gradientUnits="userSpaceOnUse" gradientTransform="translate(4968.66 4415.76) scale(1608.11 931.46)">
<stop offset="0.00898" stop-color="#50E6FF"/>
<stop offset="1" stop-color="#1490DF"/>
</radialGradient>
<linearGradient id="paint4_linear" x1="111.815" y1="84.7734" x2="111.815" y2="104.132" gradientUnits="userSpaceOnUse">
<stop stop-color="#005BA1"/>
<stop offset="0.26" stop-color="#00589D"/>
<stop offset="0.53" stop-color="#004F90"/>
<stop offset="0.8" stop-color="#003F7C"/>
<stop offset="1" stop-color="#003067"/>
</linearGradient>
<linearGradient id="paint5_linear" x1="5888.43" y1="1611.17" x2="5888.43" y2="5041.88" gradientUnits="userSpaceOnUse">
<stop stop-color="#005BA1"/>
<stop offset="0.26" stop-color="#00589D"/>
<stop offset="0.53" stop-color="#004F90"/>
<stop offset="0.8" stop-color="#003F7C"/>
<stop offset="1" stop-color="#003067"/>
</linearGradient>
<linearGradient id="paint6_linear" x1="824.249" y1="2447.17" x2="824.249" y2="7808.49" gradientUnits="userSpaceOnUse">
<stop stop-color="#005BA1"/>
<stop offset="0.26" stop-color="#00589D"/>
<stop offset="0.53" stop-color="#004F90"/>
<stop offset="0.8" stop-color="#003F7C"/>
<stop offset="1" stop-color="#003067"/>
</linearGradient>
<linearGradient id="paint7_linear" x1="85.6088" y1="31.8594" x2="85.6088" y2="108.39" gradientUnits="userSpaceOnUse">
<stop stop-color="#008BF1"/>
<stop offset="1" stop-color="#004DAE"/>
</linearGradient>
<linearGradient id="paint8_linear" x1="79.2559" y1="116.097" x2="79.2559" y2="84.2773" gradientUnits="userSpaceOnUse">
<stop stop-color="white" stop-opacity="0.6"/>
<stop offset="1" stop-color="white" stop-opacity="0.3"/>
</linearGradient>
<linearGradient id="paint9_linear" x1="69.9281" y1="104.659" x2="52.5574" y2="138.958" gradientUnits="userSpaceOnUse">
<stop stop-color="#008BF1"/>
<stop offset="0.22" stop-color="#0086EC"/>
<stop offset="0.49" stop-color="#0078DD"/>
<stop offset="0.79" stop-color="#0061C4"/>
<stop offset="1" stop-color="#004DAE"/>
</linearGradient>
<linearGradient id="paint10_linear" x1="1387.61" y1="3331.08" x2="2266.11" y2="3331.08" gradientUnits="userSpaceOnUse">
<stop stop-color="#005BA1"/>
<stop offset="0.26" stop-color="#00589D"/>
<stop offset="0.53" stop-color="#004F90"/>
<stop offset="0.8" stop-color="#003F7C"/>
<stop offset="1" stop-color="#003067"/>
</linearGradient>
<linearGradient id="paint11_linear" x1="111.644" y1="329.367" x2="111.644" y2="397.226" gradientUnits="userSpaceOnUse">
<stop stop-color="#008BF1"/>
<stop offset="1" stop-color="#004DAE"/>
</linearGradient>
<linearGradient id="paint12_linear" x1="1500.59" y1="1919.55" x2="1500.59" y2="2493.02" gradientUnits="userSpaceOnUse">
<stop stop-color="#008BF1"/>
<stop offset="1" stop-color="#004DAE"/>
</linearGradient>
<linearGradient id="paint13_linear" x1="56.6479" y1="112.117" x2="56.6479" y2="131.557" gradientUnits="userSpaceOnUse">
<stop stop-color="#198AB3"/>
<stop offset="0.16" stop-color="#1F9AC2"/>
<stop offset="0.5" stop-color="#29BADE"/>
<stop offset="0.8" stop-color="#30CDEF"/>
<stop offset="1" stop-color="#32D4F5"/>
</linearGradient>
<linearGradient id="paint14_linear" x1="56.0771" y1="131.625" x2="56.0771" y2="112.641" gradientUnits="userSpaceOnUse">
<stop stop-color="#32BEDD"/>
<stop offset="1" stop-color="#32D4F5"/>
</linearGradient>
<clipPath id="clip0">
<rect width="159.356" height="188" fill="white"/>
</clipPath>
</defs>
</svg>
