<svg width="100" height="100" viewBox="0 0 100 100" fill="none" xmlns="http://www.w3.org/2000/svg">
<g clip-path="url(#clip0)">
<path d="M49.6401 96.4481C40.382 96.4481 31.3317 93.7028 23.6339 88.5592C15.936 83.4157 9.93624 76.105 6.3933 67.5516C2.85036 58.9981 1.92337 49.5862 3.72954 40.506C5.53571 31.4257 9.99394 23.085 16.5404 16.5385C23.0869 9.99198 31.4277 5.53376 40.5079 3.72759C49.5882 1.92141 59.0001 2.84841 67.5535 6.39135C76.1069 9.93428 83.4176 15.934 88.5612 23.6319C93.7047 31.3298 96.4501 40.38 96.4501 49.6381C96.4505 55.7854 95.24 61.8726 92.8878 67.5521C90.5355 73.2315 87.0875 78.392 82.7407 82.7388C78.3939 87.0856 73.2335 90.5335 67.554 92.8858C61.8746 95.2381 55.7874 96.4486 49.6401 96.4481V96.4481Z" fill="url(#paint0_linear)"/>
<path fill-rule="evenodd" clip-rule="evenodd" d="M95.54 49.64C95.54 58.7182 92.848 67.5925 87.8045 75.1407C82.7609 82.6889 75.5923 88.572 67.2052 92.0461C58.818 95.5201 49.5891 96.4291 40.6854 94.658C31.7816 92.887 23.603 88.5154 17.1838 82.0962C10.7646 75.677 6.39302 67.4984 4.62196 58.5946C2.85089 49.6909 3.75987 40.462 7.23393 32.0748C10.708 23.6877 16.5911 16.5191 24.1393 11.4755C31.6875 6.43199 40.5618 3.74 49.64 3.74C55.6677 3.73998 61.6363 4.9272 67.2052 7.23388C72.774 9.54057 77.834 12.9215 82.0963 17.1837C86.3585 21.446 89.7394 26.5059 92.0461 32.0748C94.3528 37.6437 95.54 43.6123 95.54 49.64V49.64ZM49.64 3.62732e-07C59.4579 3.62732e-07 69.0553 2.91134 77.2185 8.36585C85.3818 13.8204 91.7442 21.5731 95.5014 30.6436C99.2585 39.7141 100.242 49.6951 98.3262 59.3243C96.4108 68.9535 91.6831 77.7985 84.7408 84.7408C77.7985 91.6831 68.9535 96.4108 59.3243 98.3262C49.6951 100.242 39.7141 99.2585 30.6436 95.5014C21.5731 91.7442 13.8204 85.3818 8.36585 77.2185C2.91134 69.0553 3.62732e-07 59.4579 3.62732e-07 49.64C-0.000787738 43.121 1.28265 36.6656 3.77702 30.6427C6.27138 24.6197 9.9278 19.1471 14.5375 14.5375C19.1471 9.9278 24.6197 6.27138 30.6427 3.77702C36.6656 1.28265 43.121 -0.000787738 49.64 3.62732e-07V3.62732e-07Z" fill="#F2F1F0"/>
<path fill-rule="evenodd" clip-rule="evenodd" d="M92.7296 49.6386C92.7296 58.161 90.2024 66.492 85.4676 73.5781C80.7328 80.6643 74.0031 86.1872 66.1294 89.4486C58.2557 92.71 49.5918 93.5633 41.2331 91.9007C32.8745 90.238 25.1966 86.1341 19.1703 80.1079C13.1441 74.0816 9.04017 66.4037 7.37753 58.0451C5.7149 49.6864 6.56822 41.0225 9.8296 33.1488C13.091 25.2751 18.6139 18.5454 25.7 13.8106C32.7862 9.07581 41.1172 6.54862 49.6396 6.54862C55.2983 6.54828 60.9017 7.6626 66.1298 9.82795C71.3579 11.9933 76.1082 15.1673 80.1096 19.1686C84.1109 23.17 87.2849 27.9203 89.4502 33.1484C91.6156 38.3765 92.7299 43.9799 92.7296 49.6386V49.6386ZM49.6396 2.80862C58.9017 2.80862 67.9558 5.55515 75.6569 10.7009C83.3581 15.8466 89.3604 23.1605 92.9049 31.7176C96.4493 40.2746 97.3767 49.6906 95.5697 58.7747C93.7628 67.8588 89.3027 76.2031 82.7534 82.7524C76.2041 89.3017 67.8598 93.7619 58.7757 95.5688C49.6915 97.3757 40.2756 96.4484 31.7185 92.9039C23.1614 89.3594 15.8476 83.3571 10.7018 75.656C5.5561 67.9548 2.80957 58.9007 2.80957 49.6386C2.81076 37.2189 7.745 25.3082 16.5271 16.5261C25.3091 7.74403 37.2198 2.80979 49.6396 2.80859V2.80862Z" fill="#0078D4"/>
<path d="M49.64 26.0313C44.9704 26.0313 40.4057 27.4159 36.5231 30.0102C32.6405 32.6045 29.6144 36.2918 27.8275 40.6059C26.0405 44.92 25.573 49.6671 26.4839 54.247C27.3949 58.8268 29.6435 63.0336 32.9454 66.3355C36.2473 69.6374 40.4541 71.886 45.0339 72.797C49.6138 73.708 54.3609 73.2404 58.675 71.4535C62.9891 69.6665 66.6765 66.6404 69.2707 62.7578C71.865 58.8752 73.2497 54.3105 73.2497 49.641C73.2497 46.5405 72.639 43.4704 71.4525 40.6059C70.266 37.7415 68.5269 35.1387 66.3346 32.9464C64.1422 30.754 61.5395 29.0149 58.675 27.8284C55.8106 26.6419 52.7405 26.0312 49.64 26.0313V26.0313ZM28.6845 50.7033H36.2118C36.3341 50.7036 36.4516 50.7515 36.5393 50.8368C36.6271 50.9221 36.6782 51.0382 36.6819 51.1605C36.768 53.8323 37.1215 56.4887 37.7374 59.09C37.7545 59.1594 37.7556 59.2319 37.7407 59.3018C37.7257 59.3718 37.695 59.4375 37.6509 59.4938C37.6068 59.5502 37.5505 59.5958 37.4862 59.6271C37.4219 59.6585 37.3514 59.6749 37.2798 59.675H30.9356C30.8486 59.6752 30.7633 59.6515 30.6889 59.6064C30.6145 59.5613 30.5539 59.4966 30.5139 59.4194C29.2012 56.8644 28.4182 54.0705 28.212 51.2054C28.2079 51.1409 28.2171 51.0763 28.239 51.0155C28.2609 50.9546 28.295 50.899 28.3393 50.8519C28.3836 50.8048 28.4371 50.7673 28.4965 50.7418C28.5558 50.7162 28.6198 50.7031 28.6845 50.7033V50.7033ZM50.7025 37.0097V28.8848C50.7028 28.8096 50.7209 28.7355 50.7555 28.6686C50.7901 28.6018 50.8401 28.5441 50.9014 28.5004C50.9627 28.4567 51.0335 28.4282 51.1079 28.4173C51.1824 28.4063 51.2584 28.4133 51.3296 28.4375C53.3836 29.1168 55.3382 31.0214 56.9602 33.9704C57.4651 34.895 57.9082 35.8521 58.2866 36.8354C58.3147 36.9071 58.3249 36.9846 58.3162 37.0611C58.3076 37.1377 58.2804 37.2109 58.2371 37.2746C58.1938 37.3383 58.1356 37.3904 58.0675 37.4266C57.9995 37.4627 57.9237 37.4816 57.8467 37.4819H51.1747C51.1127 37.4819 51.0513 37.4697 50.994 37.4459C50.9367 37.4222 50.8846 37.3874 50.8408 37.3436C50.7969 37.2997 50.7621 37.2477 50.7384 37.1904C50.7146 37.1331 50.7024 37.0717 50.7024 37.0097H50.7025ZM59.2951 39.9565C59.9853 42.6158 60.3797 45.3432 60.4712 48.0891C60.4732 48.1526 60.4625 48.2159 60.4397 48.2752C60.4168 48.3344 60.3822 48.3885 60.338 48.4342C60.2938 48.4798 60.2409 48.5161 60.1824 48.5409C60.1239 48.5657 60.061 48.5785 59.9975 48.5785H51.1746C51.0494 48.5785 50.9293 48.5287 50.8407 48.4401C50.7522 48.3516 50.7024 48.2315 50.7024 48.1063V40.079C50.7024 39.9537 50.7522 39.8336 50.8407 39.7451C50.9293 39.6565 51.0494 39.6068 51.1746 39.6068H58.8369C58.9411 39.6064 59.0426 39.6405 59.1254 39.7038C59.2083 39.767 59.2679 39.8559 59.295 39.9565H59.2951ZM48.5776 28.8848V37.0097C48.5776 37.1349 48.5278 37.255 48.4392 37.3436C48.3507 37.4321 48.2306 37.4819 48.1054 37.4819H41.4334C41.3563 37.4817 41.2805 37.4627 41.2125 37.4266C41.1445 37.3905 41.0863 37.3383 41.0429 37.2747C40.9996 37.211 40.9724 37.1377 40.9638 37.0612C40.9552 36.9846 40.9653 36.9071 40.9934 36.8354C41.3718 35.8522 41.8149 34.8951 42.3198 33.9704C43.9418 31.0214 45.8964 29.1168 47.9504 28.4375C48.0217 28.4133 48.0977 28.4064 48.1721 28.4173C48.2466 28.4283 48.3173 28.4568 48.3786 28.5005C48.4399 28.5442 48.4899 28.6018 48.5245 28.6687C48.5591 28.7355 48.5773 28.8096 48.5776 28.8848ZM48.5776 40.079V48.1063C48.5776 48.2315 48.5278 48.3516 48.4392 48.4401C48.3507 48.5287 48.2306 48.5785 48.1054 48.5785H39.2825C39.219 48.5785 39.1561 48.5657 39.0976 48.5409C39.0391 48.5161 38.9862 48.4798 38.942 48.4342C38.8978 48.3885 38.8632 48.3344 38.8404 48.2752C38.8175 48.2159 38.8068 48.1526 38.8088 48.0891C38.9003 45.3432 39.2948 42.6158 39.985 39.9565C40.0121 39.8559 40.0717 39.767 40.1546 39.7038C40.2374 39.6405 40.3388 39.6064 40.4431 39.6068H48.1054C48.1674 39.6068 48.2288 39.619 48.2861 39.6427C48.3434 39.6664 48.3954 39.7012 48.4393 39.7451C48.4831 39.7889 48.5179 39.841 48.5416 39.8983C48.5653 39.9556 48.5776 40.017 48.5776 40.079V40.079ZM36.2118 48.5785H28.6845C28.6198 48.5786 28.5558 48.5656 28.4964 48.54C28.4371 48.5144 28.3836 48.4769 28.3393 48.4299C28.295 48.3828 28.2608 48.3271 28.2389 48.2663C28.2171 48.2054 28.2079 48.1408 28.212 48.0763C28.4183 45.2112 29.2012 42.4173 30.5139 39.8623C30.554 39.7851 30.6145 39.7204 30.6889 39.6753C30.7633 39.6302 30.8487 39.6065 30.9356 39.6067H37.2799C37.3514 39.6068 37.422 39.6232 37.4863 39.6546C37.5506 39.6859 37.6069 39.7315 37.651 39.7879C37.6951 39.8443 37.7258 39.9099 37.7408 39.9799C37.7557 40.0498 37.7546 40.1223 37.7374 40.1917C37.1216 42.793 36.768 45.4494 36.6819 48.1212C36.6782 48.2435 36.627 48.3596 36.5393 48.4449C36.4516 48.5302 36.3341 48.5781 36.2118 48.5785V48.5785ZM39.2825 50.7033H48.1054C48.2306 50.7033 48.3507 50.7531 48.4392 50.8416C48.5278 50.9302 48.5776 51.0503 48.5776 51.1755V59.2028C48.5776 59.328 48.5278 59.4482 48.4392 59.5367C48.3507 59.6253 48.2306 59.675 48.1054 59.675H40.4431C40.3388 59.6754 40.2374 59.6413 40.1546 59.578C40.0717 59.5148 40.0121 59.4259 39.985 59.3253C39.2948 56.666 38.9004 53.9386 38.8089 51.1927C38.8068 51.1292 38.8175 51.0659 38.8404 51.0066C38.8633 50.9474 38.8978 50.8933 38.942 50.8476C38.9862 50.802 39.0391 50.7657 39.0976 50.7409C39.1561 50.7161 39.219 50.7033 39.2825 50.7033V50.7033ZM48.5775 62.2721V70.3971C48.5772 70.4723 48.559 70.5464 48.5244 70.6133C48.4899 70.6801 48.4399 70.7378 48.3786 70.7815C48.3173 70.8252 48.2465 70.8537 48.1721 70.8646C48.0976 70.8756 48.0216 70.8686 47.9504 70.8444C45.8964 70.1651 43.9418 68.2605 42.3198 65.3115C41.8149 64.3868 41.3717 63.4297 40.9933 62.4464C40.9653 62.3747 40.9551 62.2972 40.9637 62.2206C40.9723 62.1441 40.9995 62.0708 41.0428 62.0071C41.0862 61.9435 41.1444 61.8913 41.2124 61.8552C41.2804 61.8191 41.3562 61.8001 41.4333 61.7999H48.1053C48.1673 61.7999 48.2287 61.8121 48.286 61.8358C48.3433 61.8596 48.3954 61.8943 48.4392 61.9382C48.4831 61.982 48.5179 62.0341 48.5416 62.0914C48.5653 62.1487 48.5775 62.2101 48.5776 62.2721H48.5775ZM50.7024 70.3971V62.2721C50.7024 62.1468 50.7521 62.0267 50.8407 61.9382C50.9292 61.8496 51.0494 61.7999 51.1746 61.7999H57.8467C57.9237 61.8001 57.9995 61.8191 58.0675 61.8552C58.1355 61.8913 58.1938 61.9434 58.2371 62.0071C58.2804 62.0708 58.3076 62.1441 58.3162 62.2206C58.3248 62.2971 58.3147 62.3746 58.2866 62.4464C57.9082 63.4296 57.465 64.3868 56.9601 65.3115C55.3381 68.2605 53.3836 70.1651 51.3296 70.8444C51.2583 70.8686 51.1823 70.8755 51.1079 70.8646C51.0334 70.8536 50.9626 70.8251 50.9013 70.7814C50.8401 70.7377 50.7901 70.6801 50.7555 70.6133C50.7209 70.5464 50.7027 70.4723 50.7024 70.3971L50.7024 70.3971ZM50.7024 59.2028V51.1755C50.7024 51.0503 50.7521 50.9302 50.8407 50.8416C50.9292 50.7531 51.0493 50.7033 51.1746 50.7033H59.9974C60.061 50.7033 60.1239 50.7161 60.1824 50.7409C60.2409 50.7657 60.2938 50.802 60.338 50.8476C60.3822 50.8933 60.4167 50.9473 60.4396 51.0066C60.4625 51.0659 60.4732 51.1292 60.4711 51.1927C60.3796 53.9386 59.9852 56.666 59.295 59.3253C59.2679 59.4259 59.2082 59.5148 59.1254 59.578C59.0425 59.6413 58.9411 59.6754 58.8369 59.675H51.1746C51.0494 59.675 50.9293 59.6252 50.8407 59.5367C50.7522 59.4481 50.7024 59.328 50.7024 59.2028L50.7024 59.2028ZM63.0682 50.7033H70.5955C70.6601 50.7032 70.7241 50.7162 70.7835 50.7418C70.8429 50.7674 70.8964 50.8048 70.9407 50.8519C70.985 50.899 71.0191 50.9547 71.041 51.0155C71.0629 51.0763 71.072 51.141 71.0679 51.2055C70.8617 54.0706 70.0788 56.8645 68.7661 59.4195C68.726 59.4967 68.6655 59.5614 68.5911 59.6065C68.5167 59.6516 68.4313 59.6753 68.3444 59.6751H62.0002C61.9286 59.675 61.858 59.6586 61.7937 59.6272C61.7294 59.5958 61.6731 59.5503 61.629 59.4939C61.585 59.4375 61.5543 59.3719 61.5393 59.3019C61.5243 59.232 61.5255 59.1595 61.5426 59.0901C62.1584 56.4888 62.512 53.8324 62.5981 51.1606C62.6018 51.0383 62.6529 50.9222 62.7406 50.8369C62.8284 50.7515 62.9458 50.7036 63.0682 50.7033L63.0682 50.7033ZM62.598 48.1213C62.512 45.4495 62.1584 42.7931 61.5425 40.1918C61.5254 40.1224 61.5243 40.0499 61.5392 39.9799C61.5542 39.91 61.5849 39.8443 61.629 39.788C61.673 39.7316 61.7294 39.686 61.7937 39.6546C61.858 39.6233 61.9285 39.6069 62.0001 39.6068H68.3443C68.4313 39.6066 68.5166 39.6303 68.591 39.6754C68.6654 39.7205 68.7259 39.7852 68.766 39.8624C70.0787 42.4174 70.8617 45.2113 71.0679 48.0763C71.072 48.1409 71.0629 48.2055 71.041 48.2664C71.0191 48.3272 70.985 48.3829 70.9407 48.43C70.8964 48.477 70.8429 48.5145 70.7835 48.5401C70.7241 48.5656 70.6601 48.5787 70.5955 48.5785H63.0682C62.9458 48.5782 62.8283 48.5303 62.7406 48.445C62.6529 48.3597 62.6018 48.2436 62.598 48.1212L62.598 48.1213ZM66.4179 37.4819H61.1101C61.0117 37.4815 60.9158 37.4504 60.8358 37.3929C60.7559 37.3354 60.696 37.2544 60.6644 37.1611C59.8806 34.7673 58.7215 32.5132 57.2304 30.4831C57.1671 30.4014 57.1324 30.3011 57.1318 30.1978C57.1311 30.0945 57.1644 29.9938 57.2266 29.9112C57.2888 29.8287 57.3764 29.7689 57.476 29.7411C57.5755 29.7133 57.6814 29.719 57.7774 29.7573C61.3534 31.2305 64.4683 33.6368 66.7969 36.7248C66.8495 36.7952 66.8815 36.8788 66.8893 36.9663C66.8971 37.0538 66.8804 37.1418 66.8411 37.2203C66.8017 37.2989 66.7413 37.365 66.6666 37.4112C66.5919 37.4574 66.5058 37.4818 66.4179 37.4819V37.4819ZM42.0496 30.4832C40.5585 32.5132 39.3994 34.7673 38.6156 37.1611C38.584 37.2544 38.524 37.3355 38.4441 37.393C38.3642 37.4505 38.2683 37.4816 38.1698 37.4819H32.8621C32.7743 37.4819 32.6882 37.4574 32.6134 37.4112C32.5387 37.365 32.4783 37.2989 32.4389 37.2204C32.3996 37.1418 32.3829 37.0539 32.3907 36.9664C32.3985 36.8788 32.4305 36.7952 32.4831 36.7249C34.8117 33.6368 37.9266 31.2306 41.5026 29.7574C41.5986 29.7191 41.7045 29.7135 41.804 29.7413C41.9035 29.7691 41.9911 29.8289 42.0533 29.9114C42.1154 29.9939 42.1488 30.0946 42.1481 30.1979C42.1474 30.3012 42.1128 30.4014 42.0496 30.4832V30.4832ZM32.8621 61.7999H38.1698C38.2683 61.8002 38.3642 61.8313 38.4441 61.8888C38.524 61.9464 38.5839 62.0274 38.6155 62.1207C39.3993 64.5145 40.5585 66.7686 42.0495 68.7987C42.1128 68.8804 42.1475 68.9807 42.1481 69.084C42.1488 69.1874 42.1155 69.2881 42.0533 69.3706C41.9911 69.4531 41.9035 69.5129 41.804 69.5407C41.7044 69.5686 41.5985 69.5629 41.5025 69.5246C37.9265 68.0514 34.8116 65.6451 32.483 62.557C32.4304 62.4866 32.3984 62.403 32.3906 62.3155C32.3828 62.2279 32.3995 62.14 32.4388 62.0614C32.4782 61.9829 32.5386 61.9168 32.6133 61.8706C32.6881 61.8244 32.7742 61.7999 32.8621 61.7999ZM57.2304 68.7987C58.7215 66.7686 59.8806 64.5145 60.6644 62.1207C60.696 62.0274 60.756 61.9464 60.8359 61.8888C60.9158 61.8313 61.0117 61.8002 61.1102 61.7999H66.4179C66.5058 61.7999 66.5919 61.8244 66.6666 61.8706C66.7414 61.9168 66.8018 61.9829 66.8411 62.0614C66.8805 62.14 66.8971 62.2279 66.8894 62.3155C66.8816 62.403 66.8496 62.4866 66.797 62.557C64.4684 65.6451 61.3534 68.0514 57.7774 69.5246C57.6814 69.5629 57.5755 69.5685 57.476 69.5407C57.3765 69.5129 57.2888 69.4531 57.2267 69.3706C57.1645 69.288 57.1312 69.1874 57.1318 69.084C57.1325 68.9807 57.1671 68.8804 57.2304 68.7987V68.7987Z" fill="url(#paint1_linear)"/>
<path opacity="0.1" d="M66.7967 62.5554C64.4682 65.6435 61.3532 68.0498 57.7771 69.523C57.6811 69.5613 57.5752 69.5669 57.4757 69.5391C57.3762 69.5112 57.2887 69.4515 57.2265 69.3689C57.1643 69.2864 57.131 69.1858 57.1316 69.0824C57.1323 68.9791 57.1669 68.8789 57.2301 68.7972C58.7212 66.767 59.8804 64.5129 60.6642 62.1191C60.6958 62.0258 60.7558 61.9448 60.8357 61.8873C60.9156 61.8297 61.0115 61.7986 61.11 61.7983H66.1603C64.7189 61.0906 63.1345 60.7227 61.5287 60.7227C59.9229 60.7227 58.3385 61.0906 56.8971 61.7983H57.8464C57.9235 61.7985 57.9993 61.8175 58.0673 61.8536C58.1353 61.8897 58.1935 61.9419 58.2369 62.0055C58.2802 62.0692 58.3073 62.1425 58.316 62.219C58.3246 62.2955 58.3144 62.373 58.2864 62.4448C57.9079 63.4281 57.4648 64.3852 56.9598 65.3099C55.338 68.2589 53.3833 70.1635 51.3294 70.8428C51.2608 70.8653 51.188 70.8719 51.1166 70.8621C51.0451 70.8522 50.9768 70.8262 50.9169 70.7861C50.9066 70.9784 50.8877 71.1685 50.8877 71.3633C50.8909 71.9803 50.9479 72.5958 51.058 73.2029C54.5323 72.996 57.9178 72.0224 60.9712 70.352C64.0246 68.6815 66.6703 66.3557 68.7183 63.5415C68.1513 63.0192 67.5295 62.5597 66.8637 62.1712C66.8824 62.2361 66.8861 62.3044 66.8745 62.371C66.8629 62.4376 66.8363 62.5006 66.7967 62.5554V62.5554Z" fill="#003067"/>
<path opacity="0.1" d="M28.2115 51.2034C28.2074 51.1389 28.2166 51.0742 28.2385 51.0134C28.2603 50.9526 28.2945 50.8969 28.3388 50.8498C28.3831 50.8027 28.4366 50.7652 28.4959 50.7397C28.5553 50.7141 28.6193 50.701 28.684 50.7012H36.2113C36.3337 50.7015 36.4511 50.7494 36.5389 50.8347C36.6266 50.9201 36.6777 51.0362 36.6814 51.1585C36.7534 53.2644 36.9884 55.3615 37.3843 57.4311L38.3611 57.4331C38.7506 57.4299 39.1392 57.3953 39.5232 57.3297C39.1207 55.3058 38.8817 53.2528 38.8084 51.1906C38.8063 51.1271 38.817 51.0638 38.8399 51.0045C38.8628 50.9452 38.8973 50.8912 38.9415 50.8455C38.9857 50.7999 39.0387 50.7636 39.0972 50.7388C39.1557 50.714 39.2186 50.7012 39.2821 50.7012H45.6641C45.6805 50.4995 45.6922 50.297 45.6922 50.0942C45.6918 49.5841 45.6382 49.0754 45.5323 48.5764H39.2821C39.2186 48.5764 39.1557 48.5636 39.0972 48.5388C39.0387 48.514 38.9857 48.4777 38.9415 48.4321C38.8973 48.3864 38.8628 48.3323 38.8399 48.2731C38.817 48.2138 38.8063 48.1505 38.8084 48.087C38.8758 46.327 39.063 44.5737 39.3685 42.8392C39.0375 42.7908 38.7035 42.7652 38.3689 42.7626C38.2712 42.7626 38.1736 42.7646 38.0769 42.7685C37.8482 42.5065 37.6042 42.2581 37.3463 42.0247C36.9726 44.0367 36.7503 46.0739 36.6815 48.1191C36.6778 48.2414 36.6266 48.3575 36.5389 48.4428C36.4511 48.5281 36.3337 48.576 36.2113 48.5764H28.684C28.6193 48.5766 28.5553 48.5635 28.4959 48.5379C28.4366 48.5123 28.3831 48.4749 28.3388 48.4278C28.2945 48.3807 28.2603 48.325 28.2385 48.2642C28.2166 48.2034 28.2074 48.1387 28.2115 48.0742C28.4177 45.2091 29.2007 42.4152 30.5134 39.8602C30.5406 39.8196 30.5742 39.7837 30.6129 39.7539C29.6717 39.8377 28.7502 40.0732 27.8842 40.4514C25.6134 45.8433 25.4214 51.8855 27.3453 57.4106L29.6163 57.4152C28.8396 55.4267 28.3661 53.3327 28.2115 51.2034V51.2034Z" fill="#003067"/>
<path opacity="0.1" d="M48.702 28.6174V36.1828C48.6329 39.3941 49.3179 42.5768 50.702 45.4753V40.0795C50.702 40.0174 50.7142 39.956 50.738 39.8987C50.7617 39.8414 50.7965 39.7894 50.8404 39.7455C50.8842 39.7017 50.9363 39.6669 50.9936 39.6432C51.0509 39.6194 51.1123 39.6072 51.1743 39.6072H58.8365C58.9408 39.6069 59.0422 39.641 59.1251 39.7043C59.2079 39.7675 59.2675 39.8564 59.2947 39.957C59.9848 42.6163 60.3792 45.3437 60.4707 48.0896C60.4728 48.1531 60.4621 48.2164 60.4392 48.2757C60.4163 48.335 60.3818 48.389 60.3376 48.4347C60.2934 48.4803 60.2405 48.5167 60.182 48.5414C60.1235 48.5662 60.0606 48.579 59.997 48.579H52.662C53.2569 49.3321 53.9045 50.0422 54.5998 50.7038H59.997C60.0605 50.7038 60.1234 50.7165 60.182 50.7413C60.2405 50.7661 60.2934 50.8024 60.3376 50.8481C60.3818 50.8937 60.4163 50.9478 60.4392 51.0071C60.462 51.0664 60.4727 51.1297 60.4706 51.1932C60.4254 52.4127 60.3154 53.605 60.1651 54.7738C60.8044 55.1403 61.4628 55.5012 62.1595 55.8516C62.3945 54.2977 62.5408 52.7316 62.5976 51.1611C62.6013 51.0387 62.6525 50.9227 62.7402 50.8373C62.8279 50.752 62.9454 50.7041 63.0678 50.7038H70.5952C70.6598 50.7036 70.7238 50.7167 70.7832 50.7423C70.8425 50.7678 70.896 50.8053 70.9403 50.8524C70.9846 50.8995 71.0187 50.9552 71.0406 51.016C71.0625 51.0768 71.0717 51.1415 71.0676 51.206C71.0505 51.4424 71.0057 51.6705 70.9809 51.9048C71.7838 51.2502 72.5405 50.541 73.2458 49.7822C73.246 49.735 73.2492 49.6887 73.2492 49.6414C73.2485 43.4842 70.842 37.571 66.543 33.1632C62.244 28.7553 56.3928 26.2016 50.2376 26.0469C49.7746 26.2982 49.3878 26.6694 49.1176 27.1217C48.8474 27.5739 48.7039 28.0906 48.702 28.6174V28.6174ZM68.7656 39.8628C70.0784 42.4179 70.8614 45.2117 71.0676 48.0768C71.0717 48.1414 71.0626 48.206 71.0407 48.2668C71.0188 48.3277 70.9847 48.3833 70.9404 48.4304C70.8961 48.4775 70.8426 48.515 70.7832 48.5406C70.7238 48.5661 70.6599 48.5792 70.5952 48.579H63.0679C62.9455 48.5787 62.828 48.5308 62.7403 48.4455C62.6526 48.3602 62.6014 48.2441 62.5977 48.1218C62.5116 45.45 62.1581 42.7936 61.5423 40.1924C61.5251 40.1229 61.5239 40.0504 61.5389 39.9804C61.5539 39.9105 61.5845 39.8448 61.6286 39.7884C61.6727 39.7321 61.729 39.6865 61.7933 39.6551C61.8576 39.6237 61.9282 39.6073 61.9998 39.6073H68.344C68.431 39.6071 68.5163 39.6308 68.5907 39.6759C68.6651 39.7209 68.7256 39.7856 68.7657 39.8628L68.7656 39.8628ZM57.777 29.7578C61.3531 31.231 64.468 33.6373 66.7965 36.7254C66.8491 36.7957 66.8811 36.8793 66.8889 36.9668C66.8967 37.0544 66.88 37.1423 66.8407 37.2209C66.8014 37.2994 66.741 37.3655 66.6662 37.4117C66.5915 37.4579 66.5054 37.4824 66.4175 37.4824H61.1098C61.0113 37.4821 60.9154 37.451 60.8355 37.3935C60.7556 37.3359 60.6957 37.2549 60.6641 37.1616C59.8802 34.7678 58.7211 32.5137 57.23 30.4836C57.1668 30.4019 57.1322 30.3017 57.1315 30.1984C57.1309 30.095 57.1642 29.9944 57.2264 29.9119C57.2886 29.8294 57.3762 29.7696 57.4757 29.7417C57.5752 29.7139 57.6811 29.7196 57.777 29.7578V29.7578ZM50.702 28.8853C50.7023 28.8101 50.7205 28.7359 50.7551 28.6691C50.7897 28.6023 50.8397 28.5446 50.901 28.5009C50.9623 28.4572 51.033 28.4287 51.1075 28.4178C51.182 28.4068 51.258 28.4138 51.3292 28.438C53.3832 29.1173 55.3379 31.0218 56.9597 33.9709C57.4647 34.8955 57.9078 35.8527 58.2861 36.8359C58.3142 36.9077 58.3244 36.9852 58.3158 37.0617C58.3072 37.1382 58.28 37.2115 58.2367 37.2752C58.1933 37.3389 58.1351 37.391 58.0671 37.4272C57.999 37.4633 57.9232 37.4822 57.8462 37.4824H51.1743C51.1123 37.4824 51.0509 37.4702 50.9936 37.4465C50.9363 37.4228 50.8843 37.388 50.8404 37.3441C50.7965 37.3003 50.7617 37.2482 50.738 37.1909C50.7143 37.1336 50.7021 37.0722 50.7021 37.0102L50.702 28.8853Z" fill="#003067"/>
<path d="M43.5688 51.2563C43.5766 51.2019 43.5922 51.1473 43.6 51.1007C43.746 50.3302 43.7205 49.5371 43.5255 48.7776C43.3304 48.0181 42.9705 47.3109 42.4713 46.7062C41.972 46.1015 41.3458 45.6141 40.637 45.2787C39.9282 44.9434 39.1542 44.7682 38.3701 44.7656C37.969 44.7643 37.5692 44.8113 37.1793 44.9057C36.3845 43.652 35.204 42.6903 33.8155 42.1654C32.427 41.6405 30.9055 41.5806 29.4801 41.9949C28.0546 42.4092 26.8022 43.2752 25.9114 44.4627C25.0206 45.6501 24.5394 47.0947 24.5404 48.5791C24.5404 48.6725 24.5404 48.7659 24.5482 48.8593C24.1921 48.7395 23.8187 48.679 23.443 48.6803C22.5783 48.6805 21.7466 49.013 21.1202 49.6092C20.4937 50.2053 20.1204 51.0195 20.0774 51.8832C20.0344 52.7469 20.3251 53.5941 20.8892 54.2495C21.4534 54.9049 22.2479 55.3184 23.1084 55.4045L38.3623 55.4356C39.3118 55.4345 40.2438 55.1809 41.063 54.7009C41.8822 54.2209 42.559 53.5316 43.0241 52.7039C43.0474 52.6572 43.0786 52.6105 43.1019 52.5638C43.308 52.1477 43.4647 51.7089 43.5688 51.2563V51.2563Z" fill="white"/>
<path fill-rule="evenodd" clip-rule="evenodd" d="M34.4681 53.7501H28.4186C28.2726 53.7492 28.1328 53.6906 28.0299 53.587C27.9269 53.4835 27.8691 53.3434 27.8691 53.1973C27.8691 53.0513 27.9269 52.9112 28.0299 52.8076C28.1328 52.704 28.2726 52.6454 28.4186 52.6445H34.4681C34.6141 52.6454 34.7539 52.704 34.8568 52.8076C34.9598 52.9112 35.0176 53.0513 35.0176 53.1973C35.0176 53.3434 34.9598 53.4835 34.8568 53.587C34.7539 53.6906 34.6141 53.7492 34.4681 53.7501V53.7501Z" fill="#0078D4"/>
<path d="M31.4434 51.0619C31.3057 51.0619 31.1737 51.0072 31.0764 50.9098C30.9791 50.8125 30.9244 50.6805 30.9243 50.5428V44.5425C30.9243 44.4049 30.979 44.2728 31.0764 44.1755C31.1737 44.0781 31.3057 44.0234 31.4434 44.0234C31.5811 44.0234 31.7131 44.0781 31.8105 44.1755C31.9078 44.2728 31.9625 44.4049 31.9625 44.5425V50.5428C31.9625 50.6805 31.9078 50.8125 31.8104 50.9098C31.7131 51.0072 31.5811 51.0619 31.4434 51.0619V51.0619Z" fill="#0078D4"/>
<path d="M31.4433 51.0594C31.3407 51.0594 31.2403 51.0289 31.155 50.9719C31.0696 50.9149 31.0031 50.8338 30.9638 50.739C30.9245 50.6441 30.9143 50.5398 30.9343 50.4391C30.9543 50.3384 31.0037 50.2459 31.0763 50.1733L33.2581 47.9919C33.3554 47.8945 33.4875 47.8398 33.6251 47.8398C33.7628 47.8398 33.8948 47.8945 33.9921 47.9919C34.0894 48.0892 34.1441 48.2212 34.1441 48.3589C34.1441 48.4965 34.0894 48.6285 33.9921 48.7259L31.8103 50.9073C31.7622 50.9556 31.705 50.9939 31.642 51.02C31.579 51.0461 31.5115 51.0595 31.4433 51.0594V51.0594Z" fill="#0078D4"/>
<path d="M31.4435 51.0594C31.3753 51.0595 31.3078 51.0461 31.2448 51.02C31.1818 50.9939 31.1246 50.9556 31.0765 50.9073L28.8947 48.7259C28.8465 48.6777 28.8083 48.6204 28.7822 48.5575C28.7561 48.4945 28.7427 48.427 28.7427 48.3589C28.7427 48.2212 28.7974 48.0892 28.8947 47.9919C28.992 47.8945 29.124 47.8398 29.2617 47.8398C29.3993 47.8398 29.5314 47.8945 29.6287 47.9919L31.8105 50.1733C31.8831 50.2459 31.9325 50.3384 31.9525 50.4391C31.9725 50.5398 31.9623 50.6441 31.923 50.739C31.8837 50.8338 31.8172 50.9149 31.7318 50.9719C31.6465 51.0289 31.5461 51.0594 31.4435 51.0594V51.0594Z" fill="#0078D4"/>
<path fill-rule="evenodd" clip-rule="evenodd" d="M63.4657 24.8477C60.9873 27.6861 56.6243 28.6284 51.6484 28.6284V36.1899C51.6484 43.9889 55.1036 49.007 63.4657 53.2092C71.8279 49.007 75.283 43.989 75.283 36.1899V28.6284C70.3071 28.6284 65.9441 27.6861 63.4657 24.8477Z" fill="#C3F1FF"/>
<path fill-rule="evenodd" clip-rule="evenodd" d="M63.4663 24.8477V53.2092C71.8284 49.007 75.2836 43.989 75.2836 36.1899V28.6284C70.3077 28.6284 65.9447 27.6861 63.4663 24.8477Z" fill="#50E6FF"/>
<path fill-rule="evenodd" clip-rule="evenodd" d="M52.5949 29.5496V36.1841C52.5949 43.5081 55.7513 48.1623 63.4661 52.1499C71.1808 48.1585 74.3372 43.5082 74.3372 36.1803V29.5496C69.369 29.427 65.7912 28.3199 63.4661 26.1826C61.1371 28.32 57.5632 29.427 52.5949 29.5496ZM63.4661 54.1533C63.3187 54.1527 63.1733 54.1186 63.0409 54.0537C54.3915 49.706 50.7026 44.3585 50.7026 36.1803V28.6149C50.7026 28.4906 50.727 28.3676 50.7745 28.2528C50.8221 28.138 50.8918 28.0336 50.9796 27.9458C51.0675 27.8579 51.1718 27.7882 51.2866 27.7407C51.4015 27.6931 51.5245 27.6687 51.6488 27.6688C57.092 27.6688 60.7234 26.5388 62.7536 24.2098C62.8452 24.1127 62.9556 24.0353 63.0781 23.9825C63.2006 23.9296 63.3327 23.9023 63.4661 23.9023C63.5995 23.9023 63.7316 23.9296 63.8541 23.9825C63.9766 24.0353 64.087 24.1127 64.1786 24.2098C66.2088 26.5388 69.8402 27.6688 75.2834 27.6688C75.5342 27.6693 75.7745 27.7692 75.9519 27.9465C76.1292 28.1238 76.229 28.3641 76.2296 28.6149V36.1803C76.2296 44.3585 72.5407 49.7022 63.8913 54.0499C63.7598 54.1177 63.6141 54.1532 63.4661 54.1533Z" fill="white"/>
<path fill-rule="evenodd" clip-rule="evenodd" d="M61.5293 80.0047C59.8203 80.0047 58.1496 79.4979 56.7286 78.5484C55.3076 77.599 54.2 76.2494 53.546 74.6705C52.8919 73.0915 52.7208 71.3541 53.0542 69.6779C53.3876 68.0017 54.2106 66.462 55.4191 65.2536C56.6275 64.0451 58.1672 63.2221 59.8434 62.8887C61.5196 62.5553 63.2571 62.7264 64.836 63.3804C66.415 64.0345 67.7645 65.142 68.714 66.5631C69.6634 67.9841 70.1702 69.6548 70.1702 71.3638C70.1702 73.6555 69.2598 75.8533 67.6393 77.4738C66.0188 79.0942 63.821 80.0046 61.5293 80.0047V80.0047Z" fill="white"/>
<path fill-rule="evenodd" clip-rule="evenodd" d="M65.499 68.9688C65.2962 68.7662 65.0214 68.6523 64.7347 68.6523C64.4481 68.6523 64.1732 68.7662 63.9705 68.9688L60.4077 72.5289L59.1208 71.2543C59.0908 71.2097 59.0568 71.1678 59.0193 71.1291C58.8179 70.9273 58.545 70.8132 58.2599 70.8118C57.9748 70.8105 57.7007 70.9219 57.4975 71.1218C57.2942 71.3217 57.1783 71.5939 57.1749 71.8789C57.1715 72.164 57.281 72.4388 57.4794 72.6435L57.4664 72.6565L59.6467 74.8168C59.8496 75.0194 60.1245 75.1331 60.4112 75.1331C60.6979 75.1331 60.9728 75.0194 61.1757 74.8168L65.4957 70.4987L65.4989 70.4961C65.5993 70.3959 65.6789 70.2768 65.7332 70.1458C65.7876 70.0148 65.8155 69.8743 65.8155 69.7325C65.8155 69.5906 65.7876 69.4501 65.7332 69.3191C65.6789 69.1881 65.5993 69.069 65.499 68.9688V68.9688Z" fill="#0078D4"/>
</g>
<defs>
<linearGradient id="paint0_linear" x1="47.8697" y1="-15.155" x2="51.8525" y2="130.613" gradientUnits="userSpaceOnUse">
<stop stop-color="#00ABDE"/>
<stop offset="1" stop-color="#007ED8"/>
</linearGradient>
<linearGradient id="paint1_linear" x1="61.4468" y1="70.0909" x2="37.8332" y2="29.1909" gradientUnits="userSpaceOnUse">
<stop stop-color="#32BEDD"/>
<stop offset="0.18" stop-color="#32CAEA"/>
<stop offset="0.41" stop-color="#32D2F2"/>
<stop offset="0.78" stop-color="#32D4F5"/>
</linearGradient>
<clipPath id="clip0">
<rect width="99.2799" height="99.28" fill="white"/>
</clipPath>
</defs>
</svg>
