<svg width="160" height="189" viewBox="0 0 160 189" fill="none" xmlns="http://www.w3.org/2000/svg">
<g clip-path="url(#clip0_377_582)">
<path d="M79.6779 188.997C82.7592 188.991 85.7796 188.138 88.4083 186.531L150.384 148.871C153.165 147.107 155.449 144.662 157.019 141.768C158.589 138.873 159.394 135.625 159.356 132.333V57.6178C159.392 54.3254 158.587 51.0783 157.017 48.1841C155.447 45.29 153.163 42.8447 150.384 41.08L88.4083 3.41987C85.7749 1.83468 82.7592 0.99707 79.6855 0.99707C76.6118 0.99707 73.5961 1.83468 70.9627 3.41987L8.9876 41.0951C6.2045 42.8574 3.91796 45.3018 2.34499 48.1962C0.772021 51.0906 -0.0351786 54.3389 4.1431e-06 57.6329V132.333C-0.0185283 135.116 0.556189 137.871 1.68588 140.415C2.81557 142.959 4.4743 145.233 6.5516 147.086V147.112L70.9627 186.546C73.5884 188.146 76.6032 188.993 79.6779 188.997V188.997ZM80.3257 7.94925C82.2776 7.94925 84.7548 9.16217 86.4646 10.2062L147.222 47.4005C150.974 49.6852 153.09 56.2813 153.09 61.0323L152.458 132.333C152.458 137.084 149.259 141.352 145.506 143.637L85.1104 180.018C81.6758 182.106 78.8854 182.106 75.4507 180.018L14.2427 143.546C10.4903 141.262 7.47191 137.069 7.47191 132.333V58.6851C7.50442 56.3199 8.11341 53.9984 9.24608 51.9218C10.3787 49.8452 12.0009 48.0763 13.9718 46.7685L74.548 10.2062C76.2577 9.16217 78.3739 7.94925 80.3257 7.94925Z" fill="#F2F1F0"/>
<path fill-rule="evenodd" clip-rule="evenodd" d="M87.5765 11.5299C85.2056 10.0564 82.4697 9.27545 79.6783 9.27545C76.8868 9.27545 74.1509 10.0564 71.7801 11.5299L15.6454 45.8613C13.1193 47.4729 11.047 49.7033 9.625 52.3408C8.203 54.9782 7.47851 57.9353 7.52026 60.9314V129.035C7.48034 132.03 8.20562 134.987 9.62745 137.624C11.0493 140.261 13.1206 142.492 15.6454 144.105L71.7801 178.436C74.1508 179.909 76.8867 180.691 79.6783 180.691C82.4698 180.691 85.2057 179.909 87.5765 178.436L143.711 144.105C146.236 142.492 148.307 140.261 149.729 137.624C151.151 134.987 151.877 132.03 151.837 129.035V60.9314C151.875 57.9359 151.149 54.98 149.727 52.3432C148.305 49.7063 146.234 47.4754 143.711 45.8613L87.5765 11.5299Z" fill="url(#paint0_linear_377_582)"/>
<path fill-rule="evenodd" clip-rule="evenodd" d="M79.6783 10.7514C81.3615 10.7514 83.2442 11.6171 85.311 12.8752L143.777 48.4176C145.668 49.631 147.218 51.3079 148.278 53.2889C149.339 55.27 149.875 57.4893 149.837 59.7361V130.215C149.875 132.461 149.339 134.681 148.278 136.662C147.218 138.642 145.668 140.319 143.777 141.533L85.312 177.075L85.311 177.076C83.6408 178.215 81.6958 178.886 79.6783 179.019C77.6609 178.886 75.7158 178.215 74.0456 177.076L74.0446 177.075L15.5823 141.535L15.5801 141.534C13.7918 140.57 12.2668 139.183 11.1383 137.494C10.1614 135.891 9.52031 133.676 9.52031 130.215V59.7361C9.48157 57.4894 10.018 55.2701 11.0785 53.2891C12.139 51.3081 13.6885 49.6311 15.5797 48.4177L74.0365 12.8806L74.0406 12.8782C76.1244 11.6252 77.9846 10.7514 79.6783 10.7514ZM87.3908 9.45839L145.855 44.9996C148.333 46.5697 150.368 48.7485 151.765 51.3282C153.162 53.9079 153.876 56.8026 153.837 59.7361V130.215C153.876 133.148 153.162 136.043 151.765 138.623C150.368 141.203 148.333 143.381 145.855 144.952L87.3898 180.493C85.0956 182.018 82.4302 182.891 79.6783 183.019C76.9264 182.891 74.261 182.018 71.9667 180.493H71.9658L13.502 144.951L13.4995 144.95C11.1642 143.657 9.18097 141.812 7.72281 139.576C6.12823 136.722 5.36521 133.479 5.52031 130.215V59.7361C5.48125 56.8025 6.19436 53.9078 7.59165 51.328C8.98894 48.7483 11.0238 46.5695 13.5022 44.9995L71.9667 9.45774L71.9749 9.45286C74.0655 8.19545 76.7734 6.7514 79.6783 6.7514C82.5645 6.7514 85.2816 8.17448 87.3908 9.45834V9.45839Z" fill="#0078D4"/>
<path opacity="0.2" d="M139.959 133.023L80.409 167.63L20.47 133.024L80.02 98.4171L139.959 133.023Z" fill="#003067"/>
<path d="M140.532 121.543L79.81 156.831L18.698 121.548L79.42 86.2601L140.532 121.543Z" fill="#1B93EB"/>
<path d="M140.532 121.543L140.52 125.649L79.798 160.937L79.81 156.831L140.532 121.543Z" fill="#1F56A3"/>
<path d="M79.81 156.831L79.798 160.937L18.686 125.654L18.698 121.548L79.81 156.831Z" fill="#0078D4"/>
<path opacity="0.2" d="M107.351 129.607L69.8426 107.952C68.9438 107.479 67.932 107.262 66.9181 107.325C66.0752 107.338 65.2477 107.553 64.505 107.952L40.5485 121.874C40.2452 122.01 39.9845 122.225 39.794 122.497C39.6036 122.769 39.4906 123.088 39.467 123.42C39.4949 123.752 39.6117 124.071 39.805 124.343C39.9983 124.615 40.2612 124.83 40.566 124.966L78.0746 146.621C78.9029 147.036 79.8167 147.253 80.7433 147.253C81.6699 147.253 82.5837 147.036 83.412 146.621L107.369 132.699C107.823 132.466 108.179 132.078 108.371 131.606C108.628 130.899 108.282 130.145 107.351 129.607ZM80.5512 129.525L72.9734 128.956C72.7943 128.94 72.6177 128.903 72.4477 128.844C72.6881 128.91 72.9344 128.953 73.183 128.971L80.5512 129.525ZM72.3263 128.804C72.292 128.79 72.258 128.777 72.2244 128.762C72.2601 128.774 72.2892 128.792 72.3263 128.804H72.3263ZM70.9601 127.181L70.9596 127.18L70.1982 123.424L67.8139 111.761L67.8138 111.76L70.1982 123.424L70.9601 127.181ZM69.7427 127.774C69.8146 128.2 70.0483 128.582 70.3949 128.839C70.0483 128.582 69.8145 128.2 69.7427 127.774H69.7427ZM80.6501 130.046L73.1303 129.74C72.9093 129.73 72.6891 129.709 72.4704 129.675C72.6891 129.709 72.9093 129.73 73.1303 129.74L80.6501 130.047L95.7775 130.664L95.7792 130.664L80.6501 130.046Z" fill="#003067"/>
<path d="M107.368 126.365L83.412 140.288C82.593 140.725 81.6748 140.942 80.7468 140.919L80.7408 143.003C81.6689 143.026 82.5871 142.809 83.4062 142.372L107.363 128.45L107.378 128.441C107.687 128.247 107.94 127.977 108.114 127.656C108.287 127.336 108.375 126.976 108.368 126.611L108.371 125.272C108.179 125.745 107.823 126.133 107.368 126.365V126.365Z" fill="#E8E8E8"/>
<path d="M78.0746 140.288L40.566 118.632C40.2611 118.496 39.9983 118.281 39.805 118.009C39.6117 117.737 39.495 117.419 39.4671 117.086L39.4612 119.17C39.489 119.503 39.6057 119.822 39.799 120.094C39.9924 120.366 40.2552 120.581 40.5601 120.716L78.0687 142.372C78.8904 142.808 79.8107 143.026 80.7409 143.003L80.7468 140.919C79.8167 140.942 78.8963 140.724 78.0746 140.288V140.288Z" fill="#B3B3B3"/>
<path d="M66.9181 100.991L70.1982 117.091L67.8137 105.426L69.2187 117.091L39.467 117.086C39.4906 116.755 39.6036 116.436 39.794 116.164C39.9845 115.891 40.2453 115.676 40.5486 115.54L64.5051 101.618C65.2478 101.219 66.0752 101.005 66.9181 100.991Z" fill="#F2F2F2"/>
<path d="M80.6473 123.199L72.9734 122.622C72.4901 122.586 72.0319 122.393 71.6684 122.072C71.3049 121.752 71.0561 121.321 70.9597 120.846L70.1982 117.091L67.8137 105.426L69.2187 117.091L69.7427 121.441C69.804 121.733 69.9321 122.006 70.117 122.241C70.3019 122.475 70.5386 122.663 70.8084 122.79C71.5233 123.175 72.3188 123.386 73.1304 123.406L80.6501 123.713L95.7793 124.33L80.6473 123.199L80.6473 123.199Z" fill="#E8E8E8"/>
<path d="M107.351 123.274C108.282 123.811 108.628 124.565 108.371 125.272L95.7793 124.33L80.6471 123.199L73.1829 122.638C72.6872 122.611 72.2036 122.475 71.7671 122.238C71.4558 122.082 71.2143 121.814 71.0901 121.489L70.1982 117.091L66.9181 100.991C67.932 100.928 68.9437 101.145 69.8426 101.618L107.351 123.274Z" fill="white"/>
<path d="M108.371 125.272C108.179 125.745 107.823 126.133 107.369 126.365L83.4121 140.287C82.5931 140.725 81.6749 140.942 80.7469 140.919L80.6501 123.713L95.7793 124.33L108.371 125.272Z" fill="#F2F2F2"/>
<path d="M69.2187 117.091L69.7427 121.441C69.804 121.733 69.932 122.006 70.1169 122.241C70.3018 122.475 70.5385 122.663 70.8083 122.79C71.5232 123.175 72.3187 123.386 73.1304 123.406L80.6501 123.713L80.7469 140.919C79.8167 140.942 78.8963 140.724 78.0746 140.287L40.566 118.632C40.2612 118.496 39.9983 118.281 39.805 118.009C39.6117 117.737 39.4949 117.419 39.467 117.086L69.2187 117.091Z" fill="#E8E8E8"/>
<path d="M91.4601 82.1931L91.3858 108.428L81.5458 102.747C80.9526 102.36 80.459 101.838 80.1048 101.225C79.7506 100.611 79.5458 99.923 79.507 99.2157L79.568 77.6813C79.5716 76.3897 80.4959 75.8629 81.6201 76.5119L91.4601 82.1931Z" fill="#C3F1FF"/>
<path d="M85.6886 74.1477C85.4807 73.9971 85.2363 73.9048 84.9807 73.8803C84.7251 73.8559 84.4677 73.9002 84.235 74.0087L80.1667 76.3729C80.3994 76.2644 80.6568 76.2201 80.9123 76.2446C81.1679 76.269 81.4122 76.3613 81.6201 76.5119L91.4603 82.1931L95.5285 79.8288L85.6886 74.1477Z" fill="#9CEBFF"/>
<path d="M101.376 61.0675C101.97 61.4548 102.463 61.9763 102.817 62.5898C103.172 63.2033 103.376 63.8915 103.415 64.5989L103.383 75.9907L103.272 115.29L91.3859 108.428L91.5296 57.7366C91.5332 56.445 92.4578 55.9183 93.5817 56.5672L101.376 61.0675Z" fill="#0078D4"/>
<path d="M105.445 58.7033L97.6499 54.2029C97.442 54.0523 97.1976 53.96 96.9421 53.9356C96.6866 53.9112 96.4292 53.9556 96.1965 54.0641L92.1283 56.4284C92.3609 56.3198 92.6183 56.2754 92.8739 56.2998C93.1294 56.3242 93.3738 56.4165 93.5816 56.5672L101.377 61.0675C101.97 61.4548 102.463 61.9763 102.817 62.5898C103.172 63.2033 103.376 63.8915 103.415 64.5988L103.383 75.9906L107.451 73.6264L107.484 62.2346C107.445 61.5273 107.24 60.839 106.886 60.2256C106.532 59.6121 106.038 59.0906 105.445 58.7033V58.7033Z" fill="#1F56A3"/>
<path d="M113.223 81.672C113.816 82.0593 114.31 82.5808 114.664 83.1943C115.018 83.8077 115.223 84.496 115.262 85.2033L115.164 119.802C115.16 121.094 114.236 121.621 113.112 120.972L103.271 115.29L103.383 75.9907L113.223 81.672Z" fill="#1F56A3"/>
<path d="M117.292 79.3077L107.451 73.6264L103.383 75.9907L113.223 81.672C113.816 82.0592 114.31 82.5807 114.664 83.1942C115.018 83.8076 115.223 84.4959 115.262 85.2032L115.164 119.802C115.189 120.054 115.146 120.307 115.041 120.537C114.936 120.767 114.772 120.965 114.565 121.11L118.633 118.746C118.84 118.601 119.005 118.403 119.11 118.173C119.215 117.943 119.257 117.69 119.232 117.438L119.33 82.839C119.292 82.1317 119.087 81.4434 118.732 80.83C118.378 80.2165 117.885 79.695 117.292 79.3077Z" fill="#003067"/>
<path d="M54.0685 55.398C55.6801 56.4455 57.0216 57.8589 57.9836 59.523C58.9457 61.1871 59.501 63.055 59.6045 64.9744C59.5945 68.4968 57.0978 69.9196 54.0323 68.1498C52.4218 67.1005 51.0819 65.6856 50.1217 64.0204C49.1616 62.3552 48.6083 60.4867 48.507 58.5672C48.5169 55.0571 51.0137 53.6343 54.0685 55.398ZM54.0362 66.7875C56.4394 68.175 58.4111 67.0514 58.4189 64.2899C58.3364 62.7808 57.8992 61.3124 57.1426 60.0041C56.386 58.6958 55.3314 57.5844 54.0646 56.7603C51.6614 55.3728 49.7003 56.4902 49.6925 59.2517C49.7728 60.7609 50.208 62.2299 50.9627 63.5393C51.7175 64.8486 52.7705 65.9615 54.0362 66.7875" fill="white"/>
<path d="M55.8967 61.0481C56.0792 61.1615 56.2286 61.3209 56.33 61.5103C56.5749 61.9222 56.5736 62.3763 56.3271 62.5168L53.841 63.9335C53.7707 63.964 53.6936 63.9756 53.6174 63.9672C53.5412 63.9588 53.4685 63.9306 53.4065 63.8855C53.2236 63.7721 53.0718 63.6147 52.9651 63.4278L51.7195 61.2826L51.7303 61.2765C51.4961 60.8586 51.4974 60.4167 51.7438 60.2886C51.8129 60.2548 51.8899 60.2406 51.9665 60.2474C52.043 60.2542 52.1163 60.2819 52.1783 60.3274C52.3629 60.4427 52.5148 60.6034 52.6196 60.7942L52.6728 60.8987L53.4074 62.171L55.4541 61.0047C55.5252 60.9724 55.6035 60.9595 55.6812 60.9671C55.7589 60.9747 55.8332 61.0027 55.8967 61.0481V61.0481Z" fill="white"/>
<path d="M98.8633 85.4155C99.0372 85.5282 99.182 85.6806 99.2856 85.8601C99.3892 86.0396 99.4489 86.2411 99.4595 86.4481C99.4585 86.8162 99.1906 86.9689 98.8595 86.7777L63.5055 66.3662C63.3331 66.2548 63.1893 66.1044 63.0857 65.9272C62.9821 65.7499 62.9218 65.5508 62.9094 65.3459C62.9105 64.9654 63.1784 64.8127 63.5094 65.0039L98.8633 85.4155Z" fill="white"/>
<path d="M103.906 91.511C104.079 91.623 104.222 91.7746 104.324 91.9532C104.426 92.1317 104.483 92.3321 104.492 92.5374C104.491 92.9056 104.234 93.0645 103.903 92.8733L63.4965 69.5449C63.3241 69.4336 63.1802 69.2832 63.0767 69.1059C62.9731 68.9287 62.9127 68.7295 62.9004 68.5246C62.9015 68.1442 63.1694 67.9915 63.5004 68.1826L103.906 91.511Z" fill="white"/>
<path d="M55.8966 79.6079C56.0775 79.7193 56.2267 79.8753 56.3299 80.0609C56.5748 80.4851 56.5735 80.9392 56.3271 81.0673L53.841 82.4841C53.7719 82.5178 53.6949 82.5321 53.6184 82.5252C53.5418 82.5184 53.4685 82.4908 53.4065 82.4453C53.2219 82.3299 53.07 82.1692 52.9651 81.9784L51.7195 79.8332C51.4961 79.4215 51.4973 78.9796 51.7438 78.8392C51.8141 78.8087 51.8912 78.7971 51.9674 78.8055C52.0436 78.8139 52.1163 78.8421 52.1783 78.8872C52.3612 79.0006 52.5129 79.1579 52.6195 79.3448L52.6728 79.4616L53.4073 80.7217L55.454 79.5553C55.5263 79.5263 55.6047 79.5159 55.682 79.5251C55.7594 79.5343 55.8331 79.5628 55.8966 79.6079V79.6079Z" fill="#50E6FF"/>
<path d="M54.0684 73.9608C55.6801 75.0083 57.0216 76.4217 57.9836 78.0859C58.9456 79.75 59.501 81.6178 59.6044 83.5373C59.5944 87.0474 57.0978 88.4702 54.0323 86.7004C52.4232 85.6525 51.0842 84.2396 50.1241 82.5766C49.164 80.9136 48.6099 79.0475 48.507 77.1301C48.5169 73.62 51.0137 72.1971 54.0684 73.9608Z" fill="#50E6FF"/>
<path d="M103.906 110.025C104.077 110.135 104.22 110.285 104.321 110.461C104.423 110.638 104.482 110.836 104.492 111.039C104.491 111.419 104.234 111.578 103.903 111.387L63.4966 88.0587C63.3227 87.9459 63.178 87.7936 63.0744 87.6141C62.9708 87.4346 62.9112 87.2331 62.9005 87.0261C62.9015 86.6579 63.1694 86.5052 63.5005 86.6964L103.906 110.025Z" fill="#50E6FF"/>
<path d="M98.8634 103.929C99.0359 104.041 99.1797 104.191 99.2833 104.368C99.3869 104.545 99.4473 104.745 99.4597 104.95C99.4586 105.33 99.1907 105.483 98.8596 105.292L63.5056 84.8799C63.3317 84.7672 63.187 84.6148 63.0834 84.4353C62.9798 84.2558 62.9202 84.0543 62.9095 83.8474C62.9106 83.4792 63.1785 83.3265 63.5095 83.5176L98.8634 103.929Z" fill="#50E6FF"/>
<path d="M54.0685 92.5114C55.6801 93.5589 57.0216 94.9723 57.9836 96.6364C58.9457 98.3005 59.501 100.168 59.6045 102.088C59.5945 105.61 57.0978 107.033 54.0323 105.263C52.4218 104.214 51.0819 102.799 50.1217 101.134C49.1615 99.4686 48.6083 97.6001 48.507 95.6806C48.5169 92.1705 51.0137 90.7477 54.0685 92.5114Z" fill="#0078D4"/>
<path d="M55.8966 98.1616C56.0791 98.2749 56.2286 98.4344 56.3299 98.6238C56.5749 99.0357 56.5736 99.4898 56.3271 99.6302L53.841 101.047C53.7707 101.077 53.6936 101.089 53.6174 101.081C53.5412 101.072 53.4685 101.044 53.4065 100.999C53.2235 100.886 53.0718 100.728 52.9651 100.541L51.7195 98.3961L51.7303 98.39C51.4961 97.972 51.4974 97.5302 51.7438 97.402C51.8129 97.3683 51.8899 97.354 51.9665 97.3609C52.043 97.3677 52.1163 97.3954 52.1783 97.4408C52.3629 97.5562 52.5148 97.7169 52.6196 97.9076L52.6728 98.0244L53.4074 99.2845L55.4541 98.1181C55.5252 98.0859 55.6035 98.0729 55.6812 98.0806C55.7589 98.0882 55.8332 98.1161 55.8966 98.1616V98.1616Z" fill="#0078D4"/>
<path d="M103.906 128.575C104.079 128.687 104.222 128.839 104.324 129.018C104.426 129.196 104.483 129.396 104.492 129.602C104.491 129.982 104.234 130.129 103.903 129.938L63.4966 106.609C63.3231 106.499 63.1785 106.349 63.0748 106.171C62.9711 105.994 62.9113 105.794 62.9005 105.589C62.9016 105.208 63.1695 105.056 63.5005 105.247L103.906 128.575Z" fill="#0078D4"/>
<path d="M98.8634 122.48C99.0374 122.593 99.1821 122.745 99.2857 122.924C99.3894 123.104 99.449 123.305 99.4597 123.512C99.4586 123.893 99.1907 124.046 98.8595 123.854L63.5056 103.443C63.3317 103.33 63.187 103.178 63.0834 102.998C62.9798 102.819 62.9202 102.617 62.9095 102.41C62.9106 102.03 63.1785 101.877 63.5095 102.068L98.8634 122.48Z" fill="#0078D4"/>
</g>
<defs>
<linearGradient id="paint0_linear_377_582" x1="79.6785" y1="9.27545" x2="79.6785" y2="180.691" gradientUnits="userSpaceOnUse">
<stop stop-color="#00ABDE"/>
<stop offset="1" stop-color="#007ED8"/>
</linearGradient>
<clipPath id="clip0_377_582">
<rect width="159.356" height="188" fill="white" transform="translate(0 0.99707)"/>
</clipPath>
</defs>
</svg>
