<svg width="160" height="188" viewBox="0 0 160 188" fill="none" xmlns="http://www.w3.org/2000/svg">
<g clip-path="url(#clip0)">
<path d="M79.6779 188C82.7592 187.994 85.7796 187.141 88.4083 185.534L150.384 147.874C153.165 146.11 155.449 143.665 157.019 140.771C158.589 137.876 159.394 134.628 159.356 131.336V56.6207C159.392 53.3283 158.587 50.0812 157.017 47.1871C155.447 44.2929 153.163 41.8476 150.384 40.0829L88.4083 2.4228C85.7749 0.837605 82.7592 0 79.6855 0C76.6118 0 73.5961 0.837605 70.9627 2.4228L8.9876 40.098C6.2045 41.8604 3.91796 44.3048 2.34499 47.1991C0.772021 50.0935 -0.0351786 53.3418 4.1431e-06 56.6358V131.336C-0.0185283 134.119 0.556189 136.874 1.68588 139.418C2.81557 141.962 4.4743 144.236 6.5516 146.089V146.115L70.9627 185.549C73.5884 187.149 76.6032 187.996 79.6779 188V188ZM80.3257 6.95218C82.2776 6.95218 84.7548 8.1651 86.4646 9.20912L147.222 46.4034C150.974 48.6881 153.09 55.2842 153.09 60.0352L152.458 131.336C152.458 136.087 149.259 140.355 145.506 142.64L85.1104 179.021C81.6758 181.109 78.8854 181.109 75.4507 179.021L14.2427 142.549C10.4903 140.265 7.47191 136.072 7.47191 131.336V57.688C7.50442 55.3228 8.11341 53.0013 9.24608 50.9247C10.3787 48.8482 12.0009 47.0792 13.9718 45.7714L74.548 9.20912C76.2577 8.1651 78.3739 6.95218 80.3257 6.95218Z" fill="#F2F1F0"/>
<path fill-rule="evenodd" clip-rule="evenodd" d="M87.5765 10.5328C85.2056 9.05922 82.4697 8.27832 79.6783 8.27832C76.8868 8.27832 74.1509 9.05922 71.7801 10.5328L15.6454 44.8642C13.1193 46.4758 11.047 48.7062 9.625 51.3436C8.203 53.9811 7.47851 56.9382 7.52026 59.9343V128.037C7.48034 131.033 8.20562 133.99 9.62745 136.627C11.0493 139.264 13.1206 141.494 15.6454 143.107L71.7801 177.438C74.1508 178.912 76.8867 179.693 79.6783 179.693C82.4698 179.693 85.2057 178.912 87.5765 177.438L143.711 143.107C146.236 141.495 148.307 139.264 149.729 136.627C151.151 133.99 151.877 131.033 151.837 128.037V59.9343C151.875 56.9387 151.149 53.9829 149.727 51.346C148.305 48.7092 146.234 46.4783 143.711 44.8642L87.5765 10.5328Z" fill="url(#paint0_linear)"/>
<path fill-rule="evenodd" clip-rule="evenodd" d="M79.6783 9.7539C81.3615 9.7539 83.2442 10.6196 85.311 11.8777L143.777 47.4201C145.668 48.6335 147.218 50.3104 148.278 52.2914C149.339 54.2725 149.875 56.4918 149.837 58.7386V129.217C149.875 131.464 149.339 133.683 148.278 135.664C147.218 137.645 145.668 139.322 143.777 140.535L85.312 176.077L85.311 176.078C83.6408 177.217 81.6958 177.888 79.6783 178.021C77.6609 177.888 75.7158 177.217 74.0456 176.078L74.0446 176.077L15.5823 140.537L15.5801 140.536C13.7918 139.572 12.2668 138.185 11.1383 136.496C10.1614 134.893 9.52031 132.678 9.52031 129.217V58.7386C9.48157 56.4919 10.018 54.2726 11.0785 52.2916C12.139 50.3106 13.6885 48.6336 15.5797 47.4202L74.0365 11.8831L74.0406 11.8807C76.1244 10.6277 77.9846 9.7539 79.6783 9.7539ZM87.3908 8.4609L145.855 44.0021C148.333 45.5722 150.368 47.751 151.765 50.3307C153.162 52.9104 153.876 55.8051 153.837 58.7386V129.217C153.876 132.151 153.162 135.045 151.765 137.625C150.368 140.205 148.333 142.384 145.855 143.954L87.3898 179.495C85.0956 181.02 82.4302 181.893 79.6783 182.021C76.9264 181.893 74.261 181.02 71.9667 179.495H71.9658L13.502 143.953L13.4995 143.952C11.1642 142.659 9.18097 140.814 7.72281 138.578C6.12823 135.725 5.36521 132.482 5.52031 129.217V58.7386C5.48125 55.805 6.19436 52.9103 7.59165 50.3305C8.98894 47.7508 11.0238 45.572 13.5022 44.002L71.9667 8.46025L71.9749 8.45537C74.0655 7.19796 76.7734 5.75391 79.6783 5.75391C82.5645 5.75391 85.2816 7.17699 87.3908 8.46085V8.4609Z" fill="#0078D4"/>
<path opacity="0.2" d="M139.959 132.026L80.409 166.633L20.47 132.027L80.02 97.4199L139.959 132.026Z" fill="#003067"/>
<path d="M140.601 120.649L79.878 155.937L18.767 120.654L79.489 85.3662L140.601 120.649Z" fill="#1B93EB"/>
<path d="M140.601 120.649L140.589 124.755L79.8669 160.043L79.8779 155.937L140.601 120.649Z" fill="#1F56A3"/>
<path d="M79.878 155.937L79.867 160.043L18.755 124.76L18.767 120.654L79.878 155.937Z" fill="#0078D4"/>
<path d="M102.917 105.085L57.3989 131.538C50.777 119.617 53.3604 111.658 66.199 104.197L77.8323 97.4365C86.8142 102.372 95.0632 104.886 102.917 105.085Z" fill="#C3F1FF"/>
<path d="M116.198 119.586L116.191 122.032C107.64 116.845 103.267 112.072 102.911 107.53L102.917 105.085C103.274 109.626 107.647 114.4 116.198 119.586Z" fill="white"/>
<path d="M116.198 119.587L116.191 122.032L104.564 128.789L104.571 126.344L116.198 119.587Z" fill="#50E6FF"/>
<path d="M104.571 126.344L104.564 128.789C91.719 136.254 78.0006 137.776 57.392 133.983L57.3989 131.538C78.0075 135.331 91.7259 133.808 104.571 126.344Z" fill="#50E6FF"/>
<path d="M121.174 120.564L107.91 128.272C93.5744 136.603 77.6995 138.284 54.8156 133.905C54.4912 133.848 54.1786 133.737 53.8911 133.577C53.6551 133.45 53.4549 133.266 53.3089 133.042C50.5672 128.287 49.1793 124.053 49.1901 120.194L49.1833 122.639C49.1723 126.499 50.5603 130.733 53.3019 135.487C53.448 135.712 53.6482 135.896 53.8842 136.022C54.1717 136.183 54.4843 136.294 54.8088 136.35C77.6926 140.729 93.5675 139.048 107.903 130.717L121.167 123.009C121.354 122.925 121.516 122.792 121.635 122.624C121.754 122.457 121.827 122.261 121.845 122.056L121.852 119.61C121.834 119.815 121.761 120.011 121.642 120.179C121.523 120.346 121.361 120.479 121.174 120.564V120.564Z" fill="#E8E8E8"/>
<path d="M102.917 105.085C103.274 109.626 107.647 114.4 116.198 119.586L104.571 126.343C91.7259 133.808 78.0075 135.33 57.3989 131.537L102.917 105.085Z" fill="#50E6FF"/>
<path d="M121.156 118.636C121.358 118.703 121.533 118.832 121.657 119.004C121.782 119.175 121.85 119.382 121.852 119.594C121.854 119.806 121.79 120.014 121.668 120.188C121.546 120.361 121.374 120.493 121.174 120.564L107.91 128.272C93.5745 136.603 77.6996 138.284 54.8157 133.905C54.4913 133.848 54.1787 133.737 53.8912 133.577C53.6552 133.45 53.455 133.266 53.309 133.042C45.6741 119.801 48.537 110.6 62.8726 102.27L76.1361 94.5616C76.6504 94.299 77.2196 94.1621 77.7971 94.1621C78.3745 94.1621 78.9438 94.299 79.4581 94.5616C89.0606 100.106 97.4562 102.653 105.117 102.35C105.742 102.319 106.364 102.461 106.914 102.76C107.122 102.846 107.3 102.991 107.427 103.176C107.554 103.361 107.626 103.578 107.632 103.803C107.135 108.241 111.554 113.092 121.156 118.636ZM104.571 126.344L116.198 119.587C107.647 114.401 103.274 109.627 102.917 105.086C95.0632 104.887 86.8142 102.373 77.8324 97.4369L66.199 104.197C53.3605 111.658 50.777 119.617 57.3989 131.538C78.0075 135.331 91.7259 133.809 104.571 126.344" fill="white"/>
<path opacity="0.1" d="M102.917 105.085C95.0632 104.886 86.8142 102.372 77.8323 97.4365L66.199 104.197C57.3291 109.352 53.3568 114.745 53.9306 121.517C54.4166 115.864 58.4238 111.161 66.199 106.643L77.8324 99.882C85.4097 104.046 92.4613 106.466 99.1984 107.247C100.447 107.391 101.689 107.5 102.918 107.531C103.245 111.698 106.965 116.062 114.18 120.76L116.198 119.587C107.647 114.4 103.274 109.627 102.917 105.085Z" fill="#003067"/>
<path opacity="0.1" d="M93.5531 111.658C92.5522 111.136 91.4082 110.956 90.2952 111.144L67.7308 114.562C65.2 114.946 64.3483 116.782 66.2043 117.854L82.9412 127.517C84.8039 128.592 87.9705 128.093 88.6186 126.622L94.4462 113.54C94.7703 112.817 94.3587 112.123 93.5531 111.658Z" fill="#003067"/>
<path d="M86.9796 118.54C86.8471 118.741 86.6704 118.909 86.463 119.03C86.2557 119.152 86.0232 119.225 85.7834 119.243C85.2218 119.341 84.6437 119.252 84.1376 118.99L67.4006 109.327C66.7686 108.962 66.8857 108.539 66.9576 108.374C67.0854 108.167 67.2629 107.994 67.4741 107.873C67.6854 107.752 67.9236 107.685 68.1671 107.679L90.7251 104.264C91.2823 104.163 91.8574 104.252 92.3576 104.518C92.5638 104.637 93.0232 104.971 92.8006 105.463L86.9796 118.54ZM86.7692 107.072L81.0392 110.402C80.7088 110.594 80.7105 110.901 81.0431 111.093C81.2286 111.188 81.4341 111.238 81.6427 111.239C81.8512 111.24 82.057 111.191 82.2432 111.097L87.9732 107.767C88.3036 107.575 88.2953 107.264 87.9627 107.072C87.778 106.977 87.5734 106.928 87.3659 106.928C87.1584 106.928 86.9539 106.977 86.7692 107.072L86.7692 107.072ZM78.0162 112.852C78.2628 112.977 78.5354 113.042 78.8119 113.042C79.0884 113.042 79.361 112.977 79.6076 112.852C79.7032 112.818 79.786 112.756 79.8443 112.673C79.9027 112.59 79.9338 112.491 79.9332 112.389C79.9326 112.288 79.9004 112.189 79.8411 112.107C79.7818 112.025 79.6984 111.963 79.6024 111.93C79.3558 111.805 79.0832 111.74 78.8067 111.74C78.5302 111.74 78.2576 111.805 78.011 111.93C77.9154 111.964 77.8326 112.027 77.7743 112.11C77.7159 112.193 77.6849 112.292 77.6854 112.393C77.686 112.495 77.7182 112.593 77.7774 112.676C77.8367 112.758 77.9202 112.82 78.0162 112.852" fill="#FFE452"/>
<path d="M87.9627 107.073C88.2953 107.265 88.3037 107.576 87.9732 107.768L82.2432 111.098C82.057 111.192 81.8512 111.241 81.6426 111.24C81.4341 111.239 81.2286 111.189 81.043 111.094C80.7105 110.902 80.7087 110.595 81.0392 110.403L86.7692 107.073C86.9539 106.978 87.1584 106.929 87.3659 106.929C87.5734 106.929 87.778 106.978 87.9627 107.073V107.073Z" fill="#FF9300"/>
<path d="M88.6187 118.79C87.9706 120.261 84.8039 120.76 82.9413 119.685L66.2043 110.022C64.3483 108.95 65.2 107.114 67.7307 106.73L90.2953 103.312C91.4082 103.123 92.5522 103.304 93.553 103.826C94.3587 104.291 94.7704 104.984 94.4462 105.708L88.6187 118.79ZM85.7833 119.243C86.0231 119.225 86.2556 119.152 86.463 119.03C86.6703 118.909 86.847 118.741 86.9796 118.54L92.8005 105.463C93.0232 104.971 92.5638 104.637 92.3575 104.518C91.8574 104.252 91.2822 104.163 90.725 104.264L68.1671 107.679C67.9235 107.685 67.6853 107.751 67.4741 107.873C67.2629 107.994 67.0853 108.167 66.9576 108.374C66.8856 108.539 66.7686 108.962 67.4006 109.326L84.1376 118.99C84.6436 119.252 85.2218 119.341 85.7833 119.243" fill="#FFBD02"/>
<path d="M79.6022 111.93C79.6983 111.963 79.7817 112.025 79.841 112.107C79.9003 112.189 79.9325 112.288 79.9331 112.389C79.9337 112.491 79.9026 112.59 79.8442 112.673C79.7859 112.756 79.7031 112.818 79.6075 112.852C79.3609 112.977 79.0883 113.042 78.8118 113.042C78.5353 113.042 78.2627 112.977 78.0161 112.852C77.9201 112.819 77.8366 112.758 77.7773 112.675C77.718 112.593 77.6859 112.494 77.6853 112.393C77.6847 112.292 77.7158 112.193 77.7742 112.11C77.8325 112.027 77.9153 111.964 78.0109 111.93C78.2575 111.805 78.5301 111.74 78.8066 111.74C79.0831 111.74 79.3556 111.805 79.6022 111.93Z" fill="#FF9300"/>
<path d="M94.4463 105.709L88.6187 118.79C88.3712 119.268 87.959 119.639 87.4586 119.836V119.836C87.0794 120.005 86.6793 120.123 86.2689 120.187V120.187L86.2565 120.189L86.2159 120.196C85.098 120.387 83.9481 120.208 82.9415 119.685L82.9414 119.685L66.2044 110.022C65.9284 109.902 65.6899 109.709 65.5139 109.465C65.3379 109.221 65.2309 108.934 65.2042 108.634L65.1993 110.332C65.2261 110.632 65.3331 110.919 65.5091 111.164C65.6851 111.408 65.9236 111.6 66.1995 111.721L82.9365 121.384C83.9432 121.907 85.0932 122.086 86.2112 121.894L86.2516 121.888V121.888L86.2641 121.886C86.6745 121.822 87.0745 121.704 87.4538 121.534C87.9542 121.338 88.3664 120.966 88.614 120.489L94.4415 107.408C94.5129 107.252 94.5507 107.083 94.5525 106.912L94.5573 105.214C94.5556 105.385 94.5178 105.554 94.4463 105.709V105.709Z" fill="#FF9300"/>
<path d="M84.244 51.9228L81.0618 53.7721C82.4667 52.9557 84.4117 53.0709 86.5558 54.3088C87.4739 54.8468 88.3235 55.4942 89.0858 56.2367L92.2679 54.3875C91.5055 53.645 90.656 52.9977 89.738 52.4595C87.5939 51.2217 85.6487 51.1065 84.244 51.9228Z" fill="#E8E8E8"/>
<path d="M123.964 61.8942C123.104 61.3872 122.187 60.9839 121.233 60.6928C118.453 54.0123 113.575 47.8702 107.995 44.6485C103.637 42.1323 99.6891 41.898 96.8375 43.5553L93.6553 45.4046C96.5071 43.7473 100.455 43.9815 104.813 46.4978C110.393 49.7195 115.271 55.8616 118.051 62.5421C119.005 62.8332 119.922 63.2364 120.782 63.7434C127.524 67.6361 132.959 77.0772 132.937 84.8154C132.94 85.6603 132.865 86.5036 132.715 87.3349C132.698 87.4536 132.658 87.568 132.642 87.7051C132.425 88.6945 132.063 89.646 131.566 90.5285C131.509 90.6243 131.438 90.7019 131.381 90.7978C130.865 91.5605 130.186 92.1985 129.392 92.6654L132.574 90.8162C133.368 90.3492 134.047 89.7112 134.564 88.9486C134.62 88.8526 134.691 88.7751 134.748 88.6793C135.245 87.7968 135.608 86.8452 135.824 85.8559C135.84 85.7187 135.881 85.6044 135.897 85.4856C136.048 84.6543 136.122 83.811 136.119 82.9662C136.141 75.228 130.706 65.7868 123.964 61.8942Z" fill="#E8E8E8"/>
<path d="M104.813 46.4981C110.393 49.7198 115.271 55.8619 118.05 62.5424C119.005 62.8335 119.922 63.2367 120.782 63.7437C127.524 67.6364 132.959 77.0775 132.937 84.8157C132.94 85.6606 132.865 86.5039 132.715 87.3351C132.698 87.454 132.658 87.5682 132.642 87.7054C132.425 88.6948 132.063 89.6464 131.566 90.5288C131.509 90.6246 131.437 90.7022 131.381 90.7981C129.268 93.8655 125.263 94.4671 120.686 91.8245L85.7414 71.5666C81.8501 68.871 78.7961 63.3331 78.8091 58.7231C78.823 53.8204 82.297 51.8498 86.5557 54.3086C87.4739 54.8467 88.3234 55.4941 89.0857 56.2366C89.0706 55.9804 89.0712 55.7426 89.0719 55.4956C89.1003 45.5165 96.144 41.4933 104.813 46.4981Z" fill="white"/>
<path opacity="0.2" d="M134.174 120.452C134.178 119.004 132.155 117.825 129.656 117.818C127.157 117.811 125.127 118.979 125.123 120.427C125.119 121.874 127.142 123.054 129.641 123.061C132.14 123.068 134.17 121.9 134.174 120.452Z" fill="#003067"/>
<path d="M133.944 108.532C133.821 107.485 133.32 106.519 132.534 105.816C131.749 105.113 130.733 104.721 129.679 104.715C128.625 104.708 127.605 105.088 126.811 105.781C126.017 106.474 125.503 107.434 125.368 108.48C125.337 108.631 125.325 108.785 125.331 108.94C125.393 109.295 125.541 109.63 125.761 109.917C125.981 110.203 126.267 110.432 126.594 110.584C127.541 111.061 128.586 111.31 129.645 111.31C130.705 111.31 131.75 111.061 132.696 110.584C133.022 110.432 133.306 110.203 133.524 109.916C133.741 109.63 133.885 109.294 133.944 108.94C133.971 108.805 133.97 108.667 133.944 108.532V108.532Z" fill="url(#paint1_linear)"/>
<path d="M129.656 104.102C130.166 104.099 130.663 103.945 131.085 103.66C131.507 103.374 131.836 102.97 132.029 102.498C132.221 102.027 132.27 101.508 132.169 101.009C132.068 100.509 131.821 100.051 131.459 99.6916C131.098 99.3323 130.638 99.0881 130.138 98.9898C129.638 98.8916 129.12 98.9436 128.649 99.1393C128.178 99.3351 127.776 99.6659 127.493 100.09C127.211 100.514 127.06 101.012 127.06 101.522C127.06 101.862 127.128 102.198 127.259 102.512C127.389 102.826 127.581 103.111 127.822 103.351C128.063 103.591 128.349 103.78 128.664 103.909C128.979 104.038 129.316 104.104 129.656 104.102Z" fill="url(#paint2_linear)"/>
<path d="M56.915 91.2818L64.338 83.8578L69.735 89.2548L79.23 79.7598" stroke="#C3F1FF" stroke-miterlimit="10"/>
<path d="M79.2296 81.592C80.2415 81.592 81.0618 80.7718 81.0618 79.7599C81.0618 78.748 80.2415 77.9277 79.2296 77.9277C78.2177 77.9277 77.3975 78.748 77.3975 79.7599C77.3975 80.7718 78.2177 81.592 79.2296 81.592Z" fill="white" stroke="#50E6FF" stroke-miterlimit="10"/>
<path d="M69.5099 90.9719C70.5218 90.9719 71.342 90.1516 71.342 89.1398C71.342 88.1279 70.5218 87.3076 69.5099 87.3076C68.498 87.3076 67.6777 88.1279 67.6777 89.1398C67.6777 90.1516 68.498 90.9719 69.5099 90.9719Z" fill="white" stroke="#50E6FF" stroke-miterlimit="10"/>
<path d="M64.2581 85.7571C65.2699 85.7571 66.0902 84.9368 66.0902 83.9249C66.0902 82.9131 65.2699 82.0928 64.2581 82.0928C63.2462 82.0928 62.4259 82.9131 62.4259 83.9249C62.4259 84.9368 63.2462 85.7571 64.2581 85.7571Z" fill="white" stroke="#50E6FF" stroke-miterlimit="10"/>
<path d="M56.9149 92.8039C57.9268 92.8039 58.7471 91.9837 58.7471 90.9718C58.7471 89.9599 57.9268 89.1396 56.9149 89.1396C55.903 89.1396 55.0828 89.9599 55.0828 90.9718C55.0828 91.9837 55.903 92.8039 56.9149 92.8039Z" fill="white" stroke="#50E6FF" stroke-miterlimit="10"/>
<path d="M82.9795 122.944C83.4653 123.224 83.4756 123.672 82.9929 123.952L69.1757 131.982C68.9056 132.118 68.607 132.189 68.3044 132.188C68.0018 132.188 67.7036 132.115 67.4342 131.978L65.2716 130.729C65.1671 130.693 65.0762 130.626 65.0117 130.536C64.9471 130.447 64.9121 130.339 64.9115 130.229C64.9109 130.118 64.9447 130.011 65.0082 129.92C65.0717 129.83 65.1618 129.761 65.266 129.725L79.0832 121.695C79.3516 121.558 79.6487 121.486 79.9501 121.486C80.2515 121.486 80.5486 121.558 80.817 121.695L82.9795 122.944Z" fill="#0078D4"/>
<path d="M64.9114 130.224C64.921 130.332 64.9594 130.437 65.0227 130.525C65.086 130.614 65.1719 130.685 65.2716 130.729L67.4342 131.978C67.7036 132.116 68.0018 132.188 68.3044 132.189C68.6071 132.189 68.9057 132.119 69.1758 131.982L82.9929 123.953C83.091 123.909 83.1756 123.84 83.2383 123.752C83.3009 123.665 83.3393 123.563 83.3495 123.456L83.3438 125.457C83.3336 125.564 83.2953 125.666 83.2326 125.753C83.17 125.84 83.0853 125.91 82.9872 125.953L69.1701 133.983C68.9 134.119 68.6014 134.19 68.2988 134.189C67.9961 134.189 67.6979 134.116 67.4285 133.979L65.266 132.73C65.1664 132.685 65.0805 132.615 65.0171 132.526C64.9538 132.437 64.9154 132.333 64.9059 132.224L64.9114 130.224Z" fill="#1F56A3"/>
<path opacity="0.2" d="M82.9794 134.056L80.817 132.807C80.5486 132.67 80.2515 132.599 79.9501 132.599C79.6487 132.599 79.3516 132.67 79.0832 132.807L65.266 140.837C65.1618 140.874 65.0717 140.942 65.0082 141.032C64.9447 141.123 64.9109 141.231 64.9115 141.341C64.9121 141.452 64.9472 141.559 65.0117 141.649C65.0763 141.738 65.1671 141.806 65.2717 141.841L67.4342 143.09C67.7036 143.228 68.0018 143.3 68.3044 143.301C68.6071 143.301 68.9056 143.231 69.1757 143.094L82.9929 135.065C83.4755 134.784 83.4653 134.336 82.9794 134.056Z" fill="#003067"/>
<path opacity="0.2" d="M93.1863 135.331L91.0238 134.083C90.7551 133.947 90.4581 133.876 90.1569 133.876C89.8557 133.876 89.5587 133.947 89.29 134.083L71.4872 144.429C71.383 144.466 71.2929 144.534 71.2294 144.624C71.1659 144.715 71.1321 144.823 71.1327 144.933C71.1333 145.043 71.1684 145.151 71.2329 145.241C71.2975 145.33 71.3883 145.398 71.4929 145.433L73.6554 146.682C73.9248 146.819 74.223 146.892 74.5256 146.893C74.8283 146.893 75.1268 146.823 75.3969 146.686L93.1997 136.34C93.6745 136.064 93.6721 135.612 93.1863 135.331Z" fill="#003067"/>
<path opacity="0.2" d="M89.6227 144.619L87.4603 143.37C87.1908 143.232 86.8926 143.16 86.5899 143.159C86.2873 143.158 85.9887 143.229 85.7186 143.366L77.7086 148.021C77.2337 148.297 77.2361 148.749 77.722 149.029L79.8846 150.278C80.1533 150.414 80.4502 150.485 80.7514 150.485C81.0526 150.485 81.3495 150.414 81.6182 150.278L89.6282 145.623C89.7324 145.586 89.8225 145.518 89.8861 145.428C89.9496 145.337 89.9834 145.229 89.9828 145.119C89.9822 145.008 89.9472 144.901 89.8827 144.811C89.8182 144.722 89.7273 144.654 89.6227 144.619Z" fill="#003067"/>
<path d="M93.1863 124.219C93.6721 124.5 93.6746 124.952 93.1998 125.228L75.397 135.574C75.1269 135.71 74.8283 135.781 74.5257 135.78C74.2231 135.779 73.9249 135.707 73.6555 135.569L71.4929 134.321C71.3884 134.285 71.2975 134.218 71.233 134.128C71.1685 134.039 71.1334 133.931 71.1328 133.821C71.1322 133.71 71.166 133.602 71.2295 133.512C71.293 133.422 71.3831 133.353 71.4873 133.316L89.29 122.971C89.5587 122.835 89.8557 122.764 90.1569 122.764C90.4581 122.764 90.7551 122.835 91.0238 122.971L93.1863 124.219Z" fill="#50E6FF"/>
<path d="M71.1327 133.816C71.1423 133.924 71.1807 134.029 71.244 134.117C71.3074 134.206 71.3933 134.277 71.493 134.321L73.6555 135.57C73.9249 135.708 74.223 135.78 74.5257 135.781C74.8283 135.781 75.1268 135.711 75.3969 135.574L93.1998 125.228C93.2974 125.184 93.3816 125.115 93.4437 125.028C93.5058 124.94 93.5436 124.838 93.5533 124.731L93.5476 126.732C93.5379 126.839 93.5001 126.941 93.438 127.028C93.3759 127.116 93.2917 127.185 93.1941 127.229L75.3912 137.575C75.1211 137.711 74.8226 137.782 74.52 137.781C74.2173 137.781 73.9192 137.708 73.6498 137.57L71.4873 136.322C71.3876 136.277 71.3017 136.207 71.2384 136.118C71.175 136.029 71.1367 135.925 71.1272 135.816L71.1327 133.816Z" fill="#32BEDD"/>
<path d="M89.6226 133.506C89.7272 133.542 89.818 133.609 89.8826 133.699C89.9471 133.789 89.9821 133.896 89.9827 134.006C89.9833 134.117 89.9495 134.225 89.886 134.315C89.8224 134.405 89.7323 134.474 89.6282 134.511L81.6181 139.166C81.3494 139.302 81.0525 139.373 80.7513 139.373C80.4501 139.373 80.1531 139.302 79.8844 139.166L77.7219 137.917C77.2361 137.637 77.2335 137.184 77.7084 136.908L85.7184 132.253C85.9886 132.117 86.2872 132.046 86.5898 132.047C86.8925 132.048 87.1907 132.12 87.4601 132.258L89.6226 133.506Z" fill="#C3F1FF"/>
<path d="M77.3548 137.405C77.3649 137.515 77.4042 137.621 77.4687 137.711C77.5333 137.801 77.6206 137.872 77.7218 137.917L79.8844 139.165C80.1531 139.301 80.4501 139.372 80.7513 139.372C81.0524 139.372 81.3494 139.301 81.6181 139.165L89.6282 134.51C89.7261 134.466 89.8105 134.397 89.8728 134.309C89.9351 134.221 89.973 134.119 89.9828 134.012L89.9771 136.013C89.9673 136.12 89.9294 136.222 89.8671 136.31C89.8048 136.397 89.7204 136.467 89.6225 136.511L81.6124 141.166C81.3437 141.302 81.0467 141.373 80.7456 141.373C80.4444 141.373 80.1474 141.302 79.8787 141.166L77.7161 139.918C77.6149 139.873 77.5276 139.802 77.4631 139.712C77.3985 139.622 77.3592 139.516 77.3491 139.406L77.3548 137.405Z" fill="#9CEBFF"/>
<path opacity="0.3" d="M53.0577 115.414C48.2399 112.633 40.4561 112.633 35.6696 115.414C30.883 118.196 30.9084 122.705 35.7262 125.486C38.4016 126.912 41.3972 127.63 44.4284 127.572C47.4546 127.632 50.4455 126.914 53.1144 125.486C57.901 122.705 57.8756 118.196 53.0577 115.414ZM47.9945 122.53C46.8826 123.098 45.652 123.394 44.4036 123.394C43.1553 123.394 41.9247 123.098 40.8128 122.53C38.821 121.38 38.8069 119.518 40.7858 118.368C41.8992 117.801 43.1308 117.506 44.3802 117.506C45.6296 117.506 46.8613 117.801 47.9747 118.368C49.9667 119.518 49.9734 121.38 47.9945 122.53V122.53Z" fill="#003067"/>
<path d="M53.058 109.396L53.051 111.691L47.968 114.645L47.975 112.35L53.058 109.396Z" fill="#50E6FF"/>
<path d="M39.3037 116.71L39.3102 114.414C39.3516 113.97 39.51 113.546 39.7693 113.183C40.0285 112.82 40.3792 112.533 40.7858 112.35C41.8992 111.783 43.1308 111.487 44.3803 111.487C45.6297 111.487 46.8614 111.783 47.9747 112.35L47.9682 114.645C46.8549 114.078 45.6232 113.783 44.3737 113.783C43.1243 113.783 41.8926 114.078 40.7793 114.645C40.3727 114.828 40.022 115.115 39.7628 115.478C39.5035 115.841 39.3451 116.266 39.3037 116.71V116.71Z" fill="#32BEDD"/>
<path d="M49.4736 114.443L49.4671 116.738C49.4265 116.287 49.2661 115.856 49.0025 115.488C48.739 115.12 48.3819 114.829 47.9681 114.645L47.9746 112.35C48.3884 112.533 48.7455 112.824 49.009 113.192C49.2726 113.56 49.433 113.992 49.4736 114.443Z" fill="#1F56A3"/>
<path d="M56.6877 114.467L56.6812 116.762C56.6761 118.573 55.4858 120.381 53.1079 121.763C50.439 123.191 47.4481 123.909 44.4219 123.849L44.4284 121.554C47.4546 121.614 50.4455 120.895 53.1144 119.468C55.4923 118.086 56.6826 116.278 56.6877 114.467Z" fill="#1F56A3"/>
<path d="M53.0577 109.396C57.8755 112.177 57.9009 116.686 53.1144 119.467C50.4455 120.895 47.4546 121.614 44.4284 121.554L44.4084 117.375C45.658 117.398 46.8926 117.101 47.9944 116.511C49.9734 115.361 49.9664 113.499 47.9746 112.349L53.0577 109.396Z" fill="#0078D4"/>
<path d="M44.428 121.554L44.422 123.849L44.402 119.671L44.409 117.375L44.428 121.554Z" fill="#0078D4"/>
<path d="M32.0896 116.692L32.0961 114.396C32.0909 116.231 33.3018 118.068 35.7261 119.468C38.4015 120.894 41.3972 121.612 44.4284 121.554L44.4219 123.849C41.3907 123.907 38.395 123.189 35.7196 121.763C33.2952 120.363 32.0844 118.526 32.0896 116.692Z" fill="#32BEDD"/>
<path d="M53.0577 109.396L47.9747 112.35C46.8613 111.783 45.6296 111.487 44.3802 111.487C43.1308 111.487 41.8991 111.783 40.7857 112.35C38.8068 113.5 38.8209 115.362 40.8127 116.512C41.9184 117.101 43.156 117.398 44.4085 117.375L44.4284 121.554C41.3972 121.612 38.4016 120.894 35.7261 119.468C30.9083 116.686 30.8829 112.177 35.6695 109.396C40.456 106.614 48.2398 106.614 53.0577 109.396Z" fill="#50E6FF"/>
</g>
<defs>
<linearGradient id="paint0_linear" x1="79.6785" y1="8.27832" x2="79.6785" y2="179.693" gradientUnits="userSpaceOnUse">
<stop stop-color="#00ABDE"/>
<stop offset="1" stop-color="#007ED8"/>
</linearGradient>
<linearGradient id="paint1_linear" x1="131.294" y1="111.394" x2="127.702" y2="105.173" gradientUnits="userSpaceOnUse">
<stop stop-color="#50E6FF"/>
<stop offset="1" stop-color="#C3F1FF"/>
</linearGradient>
<linearGradient id="paint2_linear" x1="130.625" y1="104.168" x2="127.502" y2="100.038" gradientUnits="userSpaceOnUse">
<stop stop-color="#50E6FF"/>
<stop offset="1" stop-color="#C3F1FF"/>
</linearGradient>
<clipPath id="clip0">
<rect width="159.356" height="188" fill="white"/>
</clipPath>
</defs>
</svg>
