<svg width="100" height="100" viewBox="0 0 100 100" fill="none" xmlns="http://www.w3.org/2000/svg">
<g clip-path="url(#clip0)">
<path d="M49.1926 96.4481C39.9344 96.4481 30.8842 93.7028 23.1863 88.5592C15.4885 83.4157 9.48873 76.105 5.94579 67.5516C2.40285 58.9981 1.47586 49.5862 3.28203 40.506C5.0882 31.4257 9.54643 23.085 16.0929 16.5385C22.6394 9.99198 30.9802 5.53376 40.0604 3.72759C49.1407 1.92141 58.5526 2.84841 67.106 6.39135C75.6594 9.93428 82.9701 15.934 88.1137 23.6319C93.2572 31.3298 96.0026 40.38 96.0026 49.6381C96.003 55.7854 94.7925 61.8726 92.4403 67.5521C90.088 73.2315 86.64 78.392 82.2932 82.7388C77.9464 87.0856 72.7859 90.5335 67.1065 92.8858C61.4271 95.2381 55.3399 96.4486 49.1926 96.4481V96.4481Z" fill="url(#paint0_linear)"/>
<path fill-rule="evenodd" clip-rule="evenodd" d="M95.5402 49.7103C95.5402 58.7885 92.8483 67.6628 87.8047 75.211C82.7611 82.7592 75.5925 88.6423 67.2054 92.1164C58.8183 95.5904 49.5893 96.4994 40.6856 94.7284C31.7819 92.9573 23.6033 88.5857 17.184 82.1665C10.7648 75.7473 6.39326 67.5687 4.6222 58.665C2.85114 49.7612 3.76011 40.5323 7.23417 32.1451C10.7082 23.758 16.5914 16.5894 24.1396 11.5459C31.6878 6.5023 40.5621 3.81031 49.6402 3.81031C55.6679 3.81029 61.6366 4.99751 67.2054 7.3042C72.7743 9.61088 77.8343 12.9918 82.0965 17.2541C86.3587 21.5163 89.7397 26.5763 92.0464 32.1451C94.353 37.714 95.5403 43.6826 95.5402 49.7103V49.7103ZM49.6402 0.0703125C59.4581 0.0703125 69.0555 2.98165 77.2188 8.43616C85.382 13.8907 91.7445 21.6434 95.5016 30.7139C99.2588 39.7844 100.242 49.7654 98.3264 59.3946C96.4111 69.0238 91.6833 77.8688 84.741 84.8111C77.7987 91.7534 68.9537 96.4811 59.3245 98.3965C49.6953 100.312 39.7144 99.3288 30.6438 95.5717C21.5733 91.8146 13.8206 85.4521 8.36609 77.2888C2.91158 69.1256 0.000244502 59.5282 0.000244502 49.7103C-0.000542285 43.1913 1.2829 36.7359 3.77726 30.713C6.27163 24.69 9.92805 19.2174 14.5377 14.6078C19.1474 9.99812 24.62 6.3417 30.6429 3.84734C36.6659 1.35297 43.1212 0.0695344 49.6402 0.0703225V0.0703125Z" fill="#F2F1F0"/>
<path fill-rule="evenodd" clip-rule="evenodd" d="M92.2821 49.6386C92.2821 58.161 89.7549 66.492 85.0201 73.5781C80.2853 80.6643 73.5556 86.1872 65.6819 89.4486C57.8082 92.71 49.1443 93.5633 40.7856 91.9007C32.427 90.238 24.7491 86.1341 18.7228 80.1079C12.6966 74.0816 8.59266 66.4037 6.93002 58.0451C5.26739 49.6864 6.12071 41.0225 9.38209 33.1488C12.6435 25.2751 18.1664 18.5454 25.2525 13.8106C32.3387 9.07581 40.6697 6.54862 49.1921 6.54862C54.8508 6.54828 60.4542 7.6626 65.6823 9.82795C70.9104 11.9933 75.6607 15.1673 79.6621 19.1686C83.6634 23.17 86.8374 27.9203 89.0027 33.1484C91.1681 38.3765 92.2824 43.9799 92.2821 49.6386V49.6386ZM49.1921 2.80862C58.4542 2.80862 67.5083 5.55515 75.2094 10.7009C82.9106 15.8466 88.9129 23.1605 92.4573 31.7176C96.0018 40.2746 96.9292 49.6906 95.1222 58.7747C93.3153 67.8588 88.8552 76.2031 82.3059 82.7524C75.7566 89.3017 67.4123 93.7619 58.3281 95.5688C49.244 97.3757 39.8281 96.4484 31.271 92.9039C22.7139 89.3594 15.4001 83.3571 10.2543 75.656C5.10859 67.9548 2.36206 58.9007 2.36206 49.6386C2.36325 37.2189 7.29749 25.3082 16.0796 16.5261C24.8616 7.74404 36.7723 2.80979 49.1921 2.80859V2.80862Z" fill="#0078D4"/>
<path opacity="0.15" d="M65.3436 22.8984H26.7795C26.5819 22.8981 26.3862 22.9368 26.2036 23.0123C26.021 23.0877 25.8551 23.1985 25.7154 23.3382C25.5757 23.4779 25.4649 23.6438 25.3895 23.8264C25.314 24.009 25.2753 24.2047 25.2756 24.4023V74.729C25.2753 74.9266 25.314 75.1223 25.3895 75.3049C25.4649 75.4875 25.5757 75.6534 25.7154 75.7932C25.8551 75.9329 26.021 76.0436 26.2036 76.1191C26.3862 76.1946 26.5819 76.2332 26.7795 76.2329H65.3436C65.5412 76.2332 65.7369 76.1946 65.9195 76.1191C66.1021 76.0436 66.268 75.9329 66.4078 75.7932C66.5475 75.6534 66.6582 75.4875 66.7337 75.3049C66.8092 75.1223 66.8478 74.9266 66.8475 74.729V24.4023C66.8451 24.0042 66.6859 23.6231 66.4044 23.3416C66.1229 23.06 65.7417 22.9008 65.3436 22.8984V22.8984Z" fill="#1F1D20"/>
<path d="M65.3438 21.0352H26.7798C26.5822 21.0348 26.3865 21.0735 26.2039 21.149C26.0213 21.2244 25.8553 21.3352 25.7156 21.4749C25.5759 21.6146 25.4651 21.7806 25.3897 21.9632C25.3142 22.1458 25.2756 22.3415 25.2759 22.5391V72.8658C25.2756 73.0634 25.3142 73.2591 25.3897 73.4417C25.4652 73.6243 25.5759 73.7902 25.7156 73.9299C25.8553 74.0696 26.0213 74.1804 26.2039 74.2559C26.3865 74.3313 26.5822 74.37 26.7798 74.3697H65.3438C65.5414 74.37 65.7371 74.3313 65.9198 74.2559C66.1024 74.1804 66.2683 74.0696 66.408 73.9299C66.5477 73.7902 66.6585 73.6243 66.7339 73.4417C66.8094 73.2591 66.8481 73.0634 66.8477 72.8658V22.5391C66.8454 22.141 66.6862 21.7598 66.4046 21.4783C66.1231 21.1968 65.742 21.0375 65.3438 21.0352Z" fill="white"/>
<path fill-rule="evenodd" clip-rule="evenodd" d="M48.6492 14.1074C49.3533 14.4943 49.9391 15.065 50.3443 15.7586C50.7495 16.4523 50.9587 17.2429 50.9498 18.0462V18.449C50.9498 18.5923 50.9408 18.7355 50.9319 18.8787H54.074C54.5331 18.8741 54.9855 18.9899 55.386 19.2145C55.7865 19.4391 56.1211 19.7647 56.3566 20.1588C56.6539 20.6122 56.8235 21.1372 56.8478 21.6787C56.872 22.2202 56.75 22.7583 56.4945 23.2364C56.2389 23.7145 55.8594 24.1149 55.3956 24.3956C54.9319 24.6763 54.4011 24.827 53.8591 24.8317H38.0503C37.5911 24.8363 37.1388 24.7205 36.7383 24.4959C36.3378 24.2714 36.0031 23.9458 35.7676 23.5516C35.4704 23.0983 35.3007 22.5733 35.2765 22.0317C35.2522 21.4902 35.3743 20.9521 35.6298 20.4741C35.8853 19.996 36.2649 19.5956 36.7286 19.3149C37.1923 19.0341 37.7231 18.8835 38.2651 18.8788H41.1834C41.1744 18.7355 41.1655 18.5923 41.1655 18.4491V18.3238C41.1704 17.4516 41.4059 16.5962 41.8481 15.8444C42.2903 15.0926 42.9234 14.4711 43.6833 14.043C44.4432 13.6149 45.3028 13.3953 46.1749 13.4067C47.047 13.418 47.9007 13.6598 48.6492 14.1074V14.1074Z" fill="#1F56A3"/>
<path d="M46.0615 19.4883C46.4439 19.4883 46.8178 19.3749 47.1357 19.1624C47.4537 18.9499 47.7016 18.6479 47.8479 18.2946C47.9943 17.9413 48.0325 17.5525 47.9579 17.1774C47.8833 16.8024 47.6992 16.4578 47.4288 16.1874C47.1583 15.917 46.8138 15.7329 46.4387 15.6582C46.0636 15.5836 45.6749 15.6219 45.3216 15.7683C44.9682 15.9146 44.6663 16.1625 44.4538 16.4804C44.2413 16.7984 44.1279 17.1723 44.1279 17.5547C44.1279 18.0675 44.3317 18.5593 44.6943 18.9219C45.0569 19.2845 45.5487 19.4882 46.0615 19.4883Z" fill="#F9F9F9"/>
<path fill-rule="evenodd" clip-rule="evenodd" d="M35.7113 65.2311C34.7645 65.2311 33.8388 64.9504 33.0515 64.4243C32.2642 63.8983 31.6506 63.1506 31.2883 62.2758C30.9259 61.401 30.8311 60.4384 31.0158 59.5097C31.2005 58.581 31.6565 57.728 32.326 57.0585C32.9956 56.3889 33.8486 55.933 34.7773 55.7482C35.706 55.5635 36.6686 55.6583 37.5434 56.0207C38.4182 56.383 39.1658 56.9967 39.6919 57.784C40.2179 58.5713 40.4987 59.4969 40.4987 60.4437C40.4987 61.7134 39.9943 62.9311 39.0965 63.8289C38.1987 64.7267 36.981 65.2311 35.7113 65.2311V65.2311Z" fill="#E8E8E8"/>
<path fill-rule="evenodd" clip-rule="evenodd" d="M35.7113 52.6647C34.7645 52.6647 33.8388 52.384 33.0515 51.8579C32.2642 51.3319 31.6506 50.5842 31.2883 49.7094C30.9259 48.8346 30.8311 47.872 31.0158 46.9433C31.2005 46.0146 31.6565 45.1616 32.326 44.4921C32.9956 43.8225 33.8486 43.3666 34.7773 43.1818C35.706 42.9971 36.6686 43.0919 37.5434 43.4543C38.4182 43.8166 39.1659 44.4303 39.6919 45.2176C40.2179 46.0049 40.4987 46.9305 40.4987 47.8773C40.4987 49.147 39.9943 50.3647 39.0965 51.2625C38.1987 52.1603 36.981 52.6647 35.7113 52.6647V52.6647Z" fill="#72C472"/>
<path fill-rule="evenodd" clip-rule="evenodd" d="M37.9107 46.5503C37.7983 46.4381 37.646 46.375 37.4872 46.375C37.3284 46.375 37.1761 46.4381 37.0638 46.5503L35.0899 48.5228L34.3769 47.8166C34.3602 47.7919 34.3414 47.7686 34.3206 47.7472C34.209 47.6358 34.0579 47.5729 33.9002 47.5723C33.7424 47.5717 33.5908 47.6334 33.4783 47.744C33.3659 47.8546 33.3016 48.0051 33.2996 48.1629C33.2976 48.3206 33.3579 48.4728 33.4675 48.5862L33.4603 48.5934L34.6683 49.7903C34.7807 49.9025 34.9331 49.9656 35.0919 49.9656C35.2507 49.9656 35.403 49.9025 35.5154 49.7903L37.9089 47.3979L37.9107 47.3965C37.9663 47.3409 38.0104 47.275 38.0405 47.2024C38.0706 47.1298 38.086 47.052 38.086 46.9734C38.086 46.8948 38.0705 46.817 38.0405 46.7444C38.0104 46.6718 37.9663 46.6058 37.9107 46.5503V46.5503Z" fill="white"/>
<path d="M46.1864 45.9805H57.6094C58.0855 45.9805 58.5422 46.1696 58.8789 46.5063C59.2155 46.843 59.4047 47.2996 59.4047 47.7757V47.7757C59.4047 48.2519 59.2155 48.7085 58.8789 49.0452C58.5422 49.3819 58.0855 49.571 57.6094 49.571H46.1864C45.9506 49.571 45.7172 49.5246 45.4994 49.4344C45.2816 49.3442 45.0837 49.2119 44.9169 49.0452C44.7502 48.8785 44.618 48.6806 44.5278 48.4628C44.4375 48.245 44.3911 48.0115 44.3911 47.7757V47.7757C44.3911 47.54 44.4375 47.3065 44.5278 47.0887C44.618 46.8709 44.7502 46.673 44.9169 46.5063C45.0837 46.3396 45.2816 46.2073 45.4994 46.1171C45.7172 46.0269 45.9506 45.9805 46.1864 45.9805Z" fill="#E8E8E8"/>
<path d="M46.1864 53.1602H59.4047C59.6405 53.1602 59.8739 53.2066 60.0917 53.2968C60.3096 53.387 60.5075 53.5193 60.6742 53.686C60.8409 53.8527 60.9731 54.0506 61.0634 54.2684C61.1536 54.4862 61.2 54.7197 61.2 54.9554V54.9554C61.2 55.1912 61.1536 55.4246 61.0634 55.6425C60.9731 55.8603 60.8409 56.0582 60.6742 56.2249C60.5075 56.3916 60.3096 56.5238 60.0918 56.6141C59.874 56.7043 59.6405 56.7507 59.4047 56.7507H46.1864C45.9506 56.7507 45.7172 56.7043 45.4994 56.6141C45.2816 56.5238 45.0837 56.3916 44.9169 56.2249C44.7502 56.0582 44.618 55.8603 44.5278 55.6425C44.4375 55.4246 44.3911 55.1912 44.3911 54.9554V54.9554C44.3911 54.4793 44.5803 54.0227 44.9169 53.686C45.2536 53.3493 45.7103 53.1602 46.1864 53.1602V53.1602Z" fill="#E8E8E8"/>
<path d="M46.1864 60.3398H54.9165C55.1523 60.3398 55.3857 60.3863 55.6035 60.4765C55.8213 60.5667 56.0193 60.699 56.186 60.8657C56.3527 61.0324 56.4849 61.2303 56.5751 61.4481C56.6653 61.6659 56.7118 61.8994 56.7118 62.1351V62.1351C56.7118 62.6113 56.5226 63.0679 56.186 63.4046C55.8493 63.7413 55.3926 63.9304 54.9165 63.9304H46.1864C45.7103 63.9304 45.2536 63.7413 44.9169 63.4046C44.5803 63.0679 44.3911 62.6113 44.3911 62.1351V62.1351C44.3911 61.8994 44.4375 61.6659 44.5278 61.4481C44.618 61.2303 44.7502 61.0324 44.9169 60.8657C45.0837 60.699 45.2816 60.5667 45.4994 60.4765C45.7172 60.3863 45.9506 60.3398 46.1864 60.3398V60.3398Z" fill="#E8E8E8"/>
<path d="M46.5243 27.2148C46.8995 27.2504 47.2699 27.3254 47.6293 27.4387C47.9885 27.5556 48.329 27.7234 48.6405 27.9371C48.9605 28.1521 49.3017 28.3336 49.6589 28.4788C50.005 28.6182 50.3626 28.727 50.7278 28.8038C51.0947 28.881 51.4662 28.934 51.8401 28.9627C52.2156 28.9916 52.6009 29.006 52.9957 29.006V32.704C52.9957 32.858 52.9909 33.0121 52.9812 33.1662C52.9716 33.3203 52.9548 33.4744 52.9307 33.6285H46.5243V27.2148ZM39.1284 29.006C39.5184 29.006 39.9012 28.9916 40.2768 28.9627C40.653 28.9337 41.0269 28.8806 41.3963 28.8038C41.7618 28.7284 42.1196 28.6196 42.4652 28.4788C42.8243 28.33 43.1679 28.1461 43.4908 27.9299C43.8006 27.7195 44.1386 27.5541 44.4948 27.4388C44.8542 27.3254 45.2246 27.2504 45.5998 27.2149V33.6285H39.1934C39.1742 33.4744 39.1597 33.3203 39.1501 33.1662C39.1405 33.0122 39.1332 32.8581 39.1284 32.704V29.006ZM45.5998 41.6599C44.906 41.2552 44.2356 40.8115 43.592 40.331C42.9366 39.8437 42.3252 39.2999 41.7646 38.7059C41.2087 38.1171 40.7172 37.4706 40.2985 36.7775C39.8803 36.0858 39.5663 35.3362 39.3668 34.5529H45.5998V41.6599ZM46.5243 34.5529H52.7574C52.5578 35.3362 52.2439 36.0858 51.8257 36.7775C51.4069 37.4706 50.9154 38.1171 50.3595 38.7059C49.799 39.2999 49.1876 39.8437 48.5322 40.331C47.8885 40.8115 47.2182 41.2552 46.5243 41.6599V34.5529Z" fill="#0078D4"/>
<path opacity="0.2" d="M53.3003 59.6637V74.3714H66.8457V36.2305C65.171 36.238 63.5385 36.7565 62.1664 37.7167C60.7943 38.6769 59.7479 40.033 59.1671 41.6037C58.5864 43.1745 58.4989 44.8852 58.9164 46.507C59.3339 48.1288 60.2364 49.5846 61.5034 50.6798V54.9112L53.3003 59.6637Z" fill="#767676"/>
<path d="M78.6879 60.8409L70.4512 56.0305V49.5656C71.5486 48.8026 72.3718 47.7071 72.7994 46.4407C73.227 45.1743 73.2363 43.8041 72.826 42.532C72.4156 41.2599 71.6074 40.1534 70.5204 39.3755C69.4334 38.5977 68.1253 38.1897 66.7889 38.2118C65.4524 38.2339 64.1584 38.6848 63.0978 39.4981C62.0371 40.3115 61.2658 41.4441 60.8977 42.729C60.5296 44.014 60.5842 45.3832 61.0534 46.6348C61.5225 47.8863 62.3815 48.954 63.5035 49.6804V56.0626L55.2998 60.8154V74.3691L67.0007 81.1536L78.7027 74.368L78.6879 60.8409Z" fill="white"/>
<path d="M71.5634 64.9681C72.0198 65.7741 72.2587 66.685 72.2565 67.6112C72.2542 68.5375 72.011 69.4473 71.5507 70.2511C71.0904 71.0549 70.4289 71.7251 69.6311 72.1958C68.8334 72.6665 67.9269 72.9215 67.0007 72.9358V78.6391L76.5255 73.1163V62.0898L71.5634 64.9681Z" fill="#32BEDD"/>
<path d="M69.5837 58.043V62.9285C69.9712 63.1522 70.3282 63.4249 70.6458 63.74C71.0073 64.1041 71.3136 64.5192 71.5549 64.972L76.5127 62.0895L69.5837 58.043Z" fill="#9CEBFF"/>
<path d="M63.0604 63.8073C63.4436 63.4166 63.8868 63.0896 64.3731 62.8387V58.0742L57.4761 62.0697L62.2703 64.8609C62.49 64.479 62.7553 64.1252 63.0604 63.8073V63.8073Z" fill="#9CEBFF"/>
<path d="M66.8924 72.946C65.9469 72.95 65.0172 72.7031 64.1982 72.2306C63.3792 71.7581 62.7002 71.0769 62.2303 70.2564C61.7605 69.4358 61.5166 68.5054 61.5236 67.5599C61.5306 66.6144 61.7883 65.6877 62.2702 64.8742L57.4761 62.0703V73.1159L67.0008 78.6387V72.9354C66.9689 72.9354 66.9328 72.946 66.8924 72.946Z" fill="#50E6FF"/>
<path d="M64.0482 70.4688C64.8164 71.2234 65.8528 71.642 66.9296 71.6325C68.0063 71.6229 69.0352 71.186 69.7898 70.4178C70.5445 69.6497 70.963 68.6132 70.9535 67.5365C70.9439 66.4597 70.507 65.4309 69.7388 64.6762C69.3224 64.2715 68.8231 63.9621 68.2753 63.7692V46.332H65.6796V63.7204C65.0087 63.9249 64.4027 64.3008 63.9213 64.811C63.4399 65.3211 63.0998 65.9479 62.9345 66.6296C62.7692 67.3112 62.7844 68.0242 62.9785 68.6981C63.1727 69.3721 63.5392 69.9839 64.0419 70.4731L64.0482 70.4688Z" fill="url(#paint1_linear)"/>
<path d="M66.8925 48.5209C69.1344 48.5209 70.9518 46.7035 70.9518 44.4616C70.9518 42.2197 69.1344 40.4023 66.8925 40.4023C64.6506 40.4023 62.8333 42.2197 62.8333 44.4616C62.8333 46.7035 64.6506 48.5209 66.8925 48.5209Z" fill="url(#paint2_linear)"/>
</g>
<defs>
<linearGradient id="paint0_linear" x1="47.4222" y1="-15.155" x2="51.405" y2="130.613" gradientUnits="userSpaceOnUse">
<stop stop-color="#00ABDE"/>
<stop offset="1" stop-color="#007ED8"/>
</linearGradient>
<linearGradient id="paint1_linear" x1="66.8867" y1="45.818" x2="66.8867" y2="71.7306" gradientUnits="userSpaceOnUse">
<stop stop-color="#E6E6E6"/>
<stop offset="1" stop-color="#999999"/>
</linearGradient>
<linearGradient id="paint2_linear" x1="66.8925" y1="40.5829" x2="66.8925" y2="48.7014" gradientUnits="userSpaceOnUse">
<stop stop-color="#50E6FF"/>
<stop offset="1" stop-color="#32BEDD"/>
</linearGradient>
<clipPath id="clip0">
<rect width="99.2799" height="99.28" fill="white"/>
</clipPath>
</defs>
</svg>
