<svg width="100" height="100" viewBox="0 0 100 100" fill="none" xmlns="http://www.w3.org/2000/svg">
<g clip-path="url(#clip0)">
<path d="M49.6401 96.4481C40.382 96.4481 31.3317 93.7028 23.6339 88.5592C15.936 83.4157 9.93624 76.105 6.3933 67.5516C2.85036 58.9981 1.92337 49.5862 3.72954 40.506C5.53571 31.4257 9.99394 23.085 16.5404 16.5385C23.0869 9.99198 31.4277 5.53376 40.5079 3.72759C49.5882 1.92141 59.0001 2.84841 67.5535 6.39135C76.1069 9.93428 83.4176 15.934 88.5612 23.6319C93.7047 31.3298 96.4501 40.38 96.4501 49.6381C96.4505 55.7854 95.24 61.8726 92.8878 67.5521C90.5355 73.2315 87.0875 78.392 82.7407 82.7388C78.3939 87.0856 73.2335 90.5335 67.554 92.8858C61.8746 95.2381 55.7874 96.4486 49.6401 96.4481V96.4481Z" fill="url(#paint0_linear)"/>
<path fill-rule="evenodd" clip-rule="evenodd" d="M95.54 49.64C95.54 58.7182 92.848 67.5925 87.8045 75.1407C82.7609 82.6889 75.5923 88.572 67.2052 92.0461C58.818 95.5201 49.5891 96.4291 40.6854 94.658C31.7816 92.887 23.603 88.5154 17.1838 82.0962C10.7646 75.677 6.39302 67.4984 4.62196 58.5946C2.85089 49.6909 3.75987 40.462 7.23393 32.0748C10.708 23.6877 16.5911 16.5191 24.1393 11.4755C31.6875 6.43199 40.5618 3.74 49.64 3.74C55.6677 3.73998 61.6363 4.9272 67.2052 7.23388C72.774 9.54057 77.834 12.9215 82.0963 17.1837C86.3585 21.446 89.7394 26.5059 92.0461 32.0748C94.3528 37.6437 95.54 43.6123 95.54 49.64V49.64ZM49.64 3.62732e-07C59.4579 3.62732e-07 69.0553 2.91134 77.2185 8.36585C85.3818 13.8204 91.7442 21.5731 95.5014 30.6436C99.2585 39.7141 100.242 49.6951 98.3262 59.3243C96.4108 68.9535 91.6831 77.7985 84.7408 84.7408C77.7985 91.6831 68.9535 96.4108 59.3243 98.3262C49.6951 100.242 39.7141 99.2585 30.6436 95.5014C21.5731 91.7442 13.8204 85.3818 8.36585 77.2185C2.91134 69.0553 3.62732e-07 59.4579 3.62732e-07 49.64C-0.000787738 43.121 1.28265 36.6656 3.77702 30.6427C6.27138 24.6197 9.9278 19.1471 14.5375 14.5375C19.1471 9.9278 24.6197 6.27138 30.6427 3.77702C36.6656 1.28265 43.121 -0.000787738 49.64 3.62732e-07V3.62732e-07Z" fill="#F2F1F0"/>
<path fill-rule="evenodd" clip-rule="evenodd" d="M92.7296 49.6386C92.7296 58.161 90.2024 66.492 85.4676 73.5781C80.7328 80.6643 74.0031 86.1872 66.1294 89.4486C58.2558 92.71 49.5918 93.5633 41.2332 91.9007C32.8745 90.238 25.1966 86.1341 19.1704 80.1079C13.1441 74.0816 9.0402 66.4037 7.37756 58.0451C5.71493 49.6864 6.56825 41.0225 9.82963 33.1488C13.091 25.2751 18.614 18.5454 25.7001 13.8106C32.7862 9.07581 41.1172 6.54862 49.6396 6.54862C55.2984 6.54828 60.9018 7.6626 66.1298 9.82795C71.3579 11.9933 76.1083 15.1673 80.1096 19.1686C84.1109 23.17 87.2849 27.9203 89.4503 33.1484C91.6156 38.3765 92.7299 43.9799 92.7296 49.6386V49.6386ZM49.6396 2.80862C58.9017 2.80862 67.9558 5.55515 75.657 10.7009C83.3581 15.8466 89.3604 23.1605 92.9049 31.7176C96.4493 40.2746 97.3767 49.6906 95.5698 58.7747C93.7628 67.8588 89.3027 76.2031 82.7534 82.7524C76.2041 89.3017 67.8598 93.7619 58.7757 95.5688C49.6916 97.3757 40.2756 96.4484 31.7185 92.9039C23.1615 89.3594 15.8476 83.3571 10.7019 75.656C5.55613 67.9548 2.8096 58.9007 2.8096 49.6386C2.81079 37.2189 7.74503 25.3082 16.5271 16.5261C25.3092 7.74403 37.2199 2.80979 49.6396 2.80859V2.80862Z" fill="#0078D4"/>
<path fill-rule="evenodd" clip-rule="evenodd" d="M31.1258 39.4297C30.2338 39.4323 29.3791 39.7878 28.7484 40.4185C28.1177 41.0492 27.7622 41.9039 27.7596 42.7959V66.3594H71.5203V42.7959C71.5177 41.9039 71.1622 41.0492 70.5315 40.4185C69.9008 39.7878 69.0461 39.4323 68.1541 39.4297H31.1258ZM68.1541 41.1128C68.6003 41.1134 69.0281 41.2909 69.3436 41.6064C69.6591 41.9219 69.8366 42.3497 69.8372 42.7959V64.6763H29.4427V42.7959C29.4431 42.3496 29.6206 41.9218 29.9361 41.6063C30.2517 41.2907 30.6795 41.1132 31.1258 41.1128H68.1541Z" fill="#1F56A3"/>
<path fill-rule="evenodd" clip-rule="evenodd" d="M29.4427 42.7964C29.4431 42.3501 29.6206 41.9223 29.9361 41.6067C30.2517 41.2912 30.6795 41.1137 31.1258 41.1133H68.1541C68.6003 41.1139 69.0281 41.2914 69.3436 41.6069C69.6591 41.9224 69.8366 42.3502 69.8372 42.7964V64.6768H29.4427V42.7964Z" fill="#0078D4"/>
<path fill-rule="evenodd" clip-rule="evenodd" d="M22.7102 66.3594V67.201C22.7129 68.0929 23.0684 68.9476 23.6991 69.5783C24.3298 70.209 25.1845 70.5645 26.0765 70.5671H73.2035C74.0954 70.5645 74.9501 70.209 75.5808 69.5783C76.2116 68.9476 76.5671 68.0929 76.5697 67.2009V66.3594L22.7102 66.3594Z" fill="#0078D4"/>
<path fill-rule="evenodd" clip-rule="evenodd" d="M47.9565 68.8841H23.1803C23.4737 69.3933 23.8955 69.8167 24.4036 70.112C24.9117 70.4074 25.4884 70.5643 26.0761 70.5671H73.2031C74.0951 70.5645 74.9498 70.209 75.5805 69.5783C76.2112 68.9476 76.5667 68.0929 76.5693 67.2009V66.3594H49.6396V67.2009C49.6397 67.422 49.5962 67.6409 49.5116 67.8451C49.4271 68.0493 49.3031 68.2349 49.1468 68.3912C48.9905 68.5475 48.8049 68.6715 48.6007 68.7561C48.3965 68.8406 48.1776 68.8841 47.9565 68.8841Z" fill="#1F56A3"/>
<path fill-rule="evenodd" clip-rule="evenodd" d="M46.2737 68.0425H53.0062C53.4525 68.0423 53.8805 67.8649 54.1961 67.5493C54.5117 67.2337 54.6891 66.8057 54.6893 66.3594H44.5906C44.5907 66.8058 44.768 67.2338 45.0836 67.5495C45.3993 67.8651 45.8274 68.0425 46.2737 68.0425V68.0425Z" fill="#003067"/>
<path fill-rule="evenodd" clip-rule="evenodd" d="M40.0817 29.75C39.2791 29.75 38.5093 30.0688 37.9418 30.6364C37.3743 31.2039 37.0554 31.9737 37.0554 32.7763V58.8804C37.0554 59.21 36.9905 59.5365 36.8643 59.841C36.7382 60.1456 36.5533 60.4223 36.3202 60.6554C36.0871 60.8885 35.8103 61.0734 35.5058 61.1995C35.2012 61.3257 34.8748 61.3906 34.5451 61.3906H57.0771C57.8798 61.3906 58.6495 61.0717 59.217 60.5042C59.7846 59.9367 60.1034 59.1669 60.1034 58.3643V32.2602C60.1034 31.5945 60.3679 30.956 60.8386 30.4852C61.3094 30.0145 61.9479 29.75 62.6136 29.75H40.0817Z" fill="white"/>
<path fill-rule="evenodd" clip-rule="evenodd" d="M55.1566 59.4852C55.1199 59.3158 55.027 59.1638 54.8931 59.0537C54.7591 58.9437 54.592 58.8821 54.4186 58.8789H32.968C32.8388 58.8794 32.7118 58.9128 32.5991 58.9759C32.4863 59.039 32.3914 59.1297 32.3234 59.2396C32.2553 59.3494 32.2163 59.4748 32.21 59.6038C32.2037 59.7329 32.2303 59.8614 32.2874 59.9774C32.4935 60.4007 32.8144 60.7576 33.2137 61.0073C33.6129 61.2569 34.0743 61.3892 34.5451 61.3891H57.5931C57.0328 61.3891 56.4886 61.2016 56.0471 60.8566C55.6056 60.5116 55.2922 60.0289 55.1566 59.4852V59.4852Z" fill="#E8E8E8"/>
<path fill-rule="evenodd" clip-rule="evenodd" d="M42.9815 56.2408C42.4694 56.2408 41.9688 56.089 41.543 55.8045C41.1172 55.52 40.7854 55.1156 40.5894 54.6425C40.3934 54.1694 40.3422 53.6488 40.4421 53.1465C40.542 52.6443 40.7886 52.1829 41.1507 51.8208C41.5128 51.4587 41.9741 51.2121 42.4764 51.1122C42.9786 51.0123 43.4992 51.0636 43.9723 51.2596C44.4455 51.4556 44.8498 51.7875 45.1343 52.2133C45.4188 52.6391 45.5707 53.1396 45.5706 53.6517C45.5706 54.3384 45.2978 54.997 44.8123 55.4825C44.3267 55.968 43.6682 56.2408 42.9815 56.2408V56.2408Z" fill="#E8E8E8"/>
<path fill-rule="evenodd" clip-rule="evenodd" d="M42.9815 49.444C42.4694 49.444 41.9688 49.2921 41.543 49.0076C41.1172 48.7231 40.7853 48.3188 40.5894 47.8456C40.3934 47.3725 40.3421 46.8519 40.442 46.3497C40.5419 45.8474 40.7885 45.3861 41.1506 45.024C41.5127 44.6619 41.9741 44.4153 42.4763 44.3154C42.9786 44.2155 43.4992 44.2667 43.9723 44.4627C44.4454 44.6587 44.8498 44.9906 45.1343 45.4163C45.4188 45.8421 45.5706 46.3427 45.5706 46.8548C45.5706 47.5415 45.2978 48.2001 44.8123 48.6856C44.3267 49.1712 43.6682 49.444 42.9815 49.444V49.444Z" fill="#72C472"/>
<path fill-rule="evenodd" clip-rule="evenodd" d="M44.1709 46.1378C44.1102 46.0771 44.0278 46.043 43.9419 46.043C43.8561 46.043 43.7737 46.0771 43.7129 46.1378L42.6454 47.2046L42.2598 46.8227C42.2508 46.8093 42.2406 46.7967 42.2294 46.7851C42.169 46.7248 42.0872 46.6907 42.0019 46.6903C41.9165 46.69 41.8345 46.7233 41.7736 46.7832C41.7128 46.843 41.678 46.9245 41.677 47.0099C41.6759 47.0952 41.7086 47.1775 41.768 47.2389L41.7641 47.2428L42.4174 47.8901C42.4782 47.9508 42.5606 47.9849 42.6464 47.9849C42.7323 47.9849 42.8147 47.9508 42.8755 47.8901L44.17 46.5962L44.171 46.5954C44.2011 46.5654 44.2249 46.5297 44.2412 46.4905C44.2574 46.4512 44.2658 46.4091 44.2658 46.3666C44.2658 46.3241 44.2574 46.282 44.2411 46.2428C44.2249 46.2035 44.201 46.1678 44.1709 46.1378V46.1378Z" fill="white"/>
<path d="M48.6467 48.1484H54.8245C55.0821 48.1484 55.329 48.2507 55.5111 48.4328C55.6932 48.6149 55.7955 48.8619 55.7955 49.1194V49.1194C55.7955 49.2469 55.7704 49.3731 55.7216 49.4909C55.6728 49.6087 55.6013 49.7158 55.5111 49.8059C55.4209 49.8961 55.3139 49.9676 55.1961 50.0164C55.0783 50.0652 54.952 50.0903 54.8245 50.0903H48.6467C48.5192 50.0903 48.3929 50.0652 48.2751 50.0164C48.1573 49.9676 48.0503 49.8961 47.9601 49.8059C47.87 49.7158 47.7985 49.6087 47.7497 49.4909C47.7009 49.3731 47.6758 49.2469 47.6758 49.1194V49.1194C47.6758 48.8619 47.778 48.6149 47.9601 48.4328C48.1422 48.2507 48.3892 48.1484 48.6467 48.1484V48.1484Z" fill="#E8E8E8"/>
<path d="M48.6467 44.2656H55.7955C56.053 44.2656 56.2999 44.3679 56.482 44.55C56.6641 44.7321 56.7664 44.979 56.7664 45.2366V45.2366C56.7664 45.4941 56.6641 45.741 56.482 45.9231C56.2999 46.1052 56.053 46.2075 55.7955 46.2075H48.6467C48.5192 46.2075 48.3929 46.1824 48.2751 46.1336C48.1573 46.0848 48.0503 46.0133 47.9601 45.9231C47.87 45.833 47.7985 45.7259 47.7497 45.6081C47.7009 45.4903 47.6757 45.3641 47.6758 45.2366V45.2366C47.6758 45.1091 47.7009 44.9828 47.7497 44.865C47.7985 44.7472 47.87 44.6402 47.9601 44.55C48.0503 44.4598 48.1573 44.3883 48.2751 44.3395C48.3929 44.2907 48.5192 44.2656 48.6467 44.2656V44.2656Z" fill="#E8E8E8"/>
<path d="M48.6467 52.0313H55.7955C56.053 52.0313 56.2999 52.1335 56.482 52.3156C56.6641 52.4977 56.7664 52.7447 56.7664 53.0022V53.0022C56.7664 53.2597 56.6641 53.5066 56.482 53.6887C56.2999 53.8708 56.053 53.9731 55.7955 53.9731H48.6467C48.5192 53.9731 48.3929 53.948 48.2751 53.8992C48.1573 53.8504 48.0503 53.7789 47.9601 53.6887C47.87 53.5986 47.7985 53.4915 47.7497 53.3737C47.7009 53.2559 47.6758 53.1297 47.6758 53.0022V53.0022C47.6758 52.8747 47.7009 52.7484 47.7497 52.6306C47.7985 52.5128 47.87 52.4058 47.9601 52.3156C48.0503 52.2255 48.1573 52.1539 48.2751 52.1052C48.3929 52.0564 48.5192 52.0312 48.6467 52.0313V52.0313Z" fill="#E8E8E8"/>
<path d="M48.6467 55.918H53.3681C53.4956 55.918 53.6219 55.9431 53.7397 55.9919C53.8575 56.0407 53.9645 56.1122 54.0547 56.2023C54.1449 56.2925 54.2164 56.3995 54.2652 56.5173C54.314 56.6351 54.3391 56.7614 54.3391 56.8889V56.8889C54.3391 57.1464 54.2368 57.3934 54.0547 57.5755C53.8726 57.7575 53.6256 57.8598 53.3681 57.8598H48.6467C48.3892 57.8598 48.1422 57.7575 47.9601 57.5755C47.778 57.3934 47.6758 57.1464 47.6758 56.8889C47.6758 56.7614 47.7009 56.6351 47.7497 56.5173C47.7985 56.3995 47.87 56.2925 47.9601 56.2023C48.0503 56.1122 48.1573 56.0407 48.2751 55.9919C48.3929 55.9431 48.5192 55.918 48.6467 55.918V55.918Z" fill="#E8E8E8"/>
<path fill-rule="evenodd" clip-rule="evenodd" d="M62.6136 29.75C62.284 29.75 61.9576 29.8149 61.653 29.9411C61.3485 30.0672 61.0718 30.2521 60.8387 30.4852C60.6056 30.7183 60.4207 30.995 60.2946 31.2996C60.1684 31.6041 60.1035 31.9306 60.1035 32.2602V39.4322H65.1238V32.2602C65.1238 31.9305 65.0589 31.6041 64.9327 31.2996C64.8066 30.995 64.6217 30.7183 64.3886 30.4852C64.1555 30.2521 63.8788 30.0672 63.5742 29.9411C63.2697 29.8149 62.9433 29.75 62.6136 29.75V29.75Z" fill="#E8E8E8"/>
<path d="M48.5794 37.6539C49.8397 37.6539 50.8614 36.6322 50.8614 35.3719C50.8614 34.1115 49.8397 33.0898 48.5794 33.0898C47.319 33.0898 46.2973 34.1115 46.2973 35.3719C46.2973 36.6322 47.319 37.6539 48.5794 37.6539Z" fill="#0078D4"/>
<path fill-rule="evenodd" clip-rule="evenodd" d="M44.5677 42.0155C44.5677 40.9516 44.9904 39.9312 45.7427 39.1789C46.495 38.4266 47.5154 38.0039 48.5794 38.0039C49.6433 38.0039 50.6637 38.4266 51.416 39.1789C52.1683 39.9312 52.591 40.9516 52.591 42.0155H44.5677Z" fill="#0078D4"/>
<path fill-rule="evenodd" clip-rule="evenodd" d="M43.5575 53.652C43.5575 53.766 43.5237 53.8773 43.4604 53.9721C43.3971 54.0668 43.3072 54.1406 43.2019 54.1842C43.0967 54.2278 42.9808 54.2393 42.8691 54.217C42.7573 54.1948 42.6547 54.1399 42.5741 54.0594C42.4936 53.9788 42.4387 53.8762 42.4165 53.7644C42.3942 53.6527 42.4057 53.5368 42.4493 53.4316C42.4929 53.3263 42.5667 53.2364 42.6614 53.1731C42.7562 53.1098 42.8675 53.076 42.9815 53.076C43.1342 53.0762 43.2806 53.1369 43.3886 53.2449C43.4966 53.3529 43.5573 53.4993 43.5575 53.652V53.652ZM44.6222 53.3418L44.3543 53.2822C44.3265 53.2721 44.3039 53.2515 44.2913 53.2248L44.2881 53.2162L44.2142 53.0366L44.21 53.0274C44.2 52.9998 44.2013 52.9694 44.2137 52.9428L44.361 52.7113C44.3912 52.6611 44.4041 52.6025 44.3977 52.5443C44.3913 52.4861 44.366 52.4317 44.3257 52.3893L44.2442 52.3078C44.2014 52.2681 44.147 52.2433 44.089 52.237C44.0311 52.2306 43.9726 52.2431 43.9222 52.2724L43.6906 52.4197C43.6758 52.4271 43.6594 52.4307 43.6429 52.4301C43.6303 52.4306 43.6178 52.4283 43.6061 52.4235L43.5968 52.4192L43.4173 52.3452L43.4086 52.3421C43.382 52.3295 43.3614 52.3068 43.3513 52.2791L43.2918 52.0113C43.2776 51.9545 43.2452 51.904 43.1996 51.8673C43.1539 51.8307 43.0975 51.8101 43.039 51.8086H42.9238C42.8654 51.8101 42.809 51.8307 42.7633 51.8673C42.7177 51.9039 42.6853 51.9545 42.6712 52.0113L42.6116 52.2793C42.6015 52.3069 42.5809 52.3295 42.5542 52.3422L42.5455 52.3453L42.366 52.4193L42.3567 52.4235C42.3451 52.4284 42.3325 52.4306 42.3199 52.4302C42.3034 52.4307 42.287 52.4271 42.2722 52.4198L42.0407 52.2725C41.9903 52.2432 41.9318 52.2307 41.8739 52.2371C41.8159 52.2435 41.7615 52.2683 41.7187 52.3079L41.6372 52.3893C41.5969 52.4317 41.5716 52.4862 41.5652 52.5443C41.5588 52.6025 41.5717 52.6612 41.6018 52.7113L41.7492 52.9428C41.7615 52.9694 41.7629 52.9997 41.7529 53.0273L41.7486 53.0366L41.6747 53.2162L41.6715 53.2248C41.6589 53.2515 41.6362 53.2721 41.6085 53.2822L41.3407 53.3417C41.2839 53.3558 41.2333 53.3882 41.1967 53.4339C41.1601 53.4795 41.1395 53.5359 41.138 53.5944V53.7096C41.1395 53.7681 41.1601 53.8245 41.1967 53.8701C41.2333 53.9158 41.2839 53.9481 41.3406 53.9623L41.6085 54.0218C41.6362 54.0319 41.6588 54.0526 41.6715 54.0792L41.6746 54.0879L41.7485 54.2675L41.7529 54.2767C41.7628 54.3042 41.7615 54.3346 41.7491 54.3612L41.6018 54.5927C41.5716 54.6429 41.5588 54.7015 41.5651 54.7597C41.5715 54.8178 41.5968 54.8723 41.6371 54.9147L41.7186 54.9962C41.7615 55.0358 41.8159 55.0606 41.8738 55.0669C41.9318 55.0733 41.9903 55.0609 42.0406 55.0315L42.272 54.8842C42.2868 54.8769 42.3033 54.8733 42.3198 54.8739C42.3324 54.8734 42.345 54.8756 42.3566 54.8805L42.3659 54.8848L42.5454 54.9588L42.5541 54.9619C42.5808 54.9745 42.6014 54.9972 42.6115 55.0249L42.6711 55.2927C42.6852 55.3495 42.7176 55.4001 42.7632 55.4367C42.8088 55.4733 42.8652 55.494 42.9237 55.4955H43.0389C43.0974 55.494 43.1538 55.4733 43.1995 55.4367C43.2451 55.4001 43.2775 55.3495 43.2916 55.2927L43.3512 55.0249C43.3613 54.9972 43.3819 54.9745 43.4086 54.9619L43.4172 54.9588L43.5967 54.8848L43.606 54.8805C43.6176 54.8756 43.6302 54.8734 43.6428 54.8739C43.6593 54.8733 43.6757 54.8769 43.6905 54.8842L43.922 55.0315C43.9724 55.0609 44.0309 55.0733 44.0889 55.067C44.1468 55.0606 44.2012 55.0358 44.244 54.9962L44.3255 54.9148C44.3658 54.8724 44.3911 54.8179 44.3975 54.7597C44.4039 54.7015 44.391 54.6429 44.3609 54.5927L44.2135 54.3612C44.2074 54.348 44.2039 54.3338 44.2033 54.3193C44.2026 54.3048 44.2049 54.2904 44.2098 54.2767L44.2141 54.2675L44.288 54.0878L44.2912 54.0792C44.3038 54.0525 44.3264 54.0319 44.3542 54.0218L44.6219 53.9623C44.6787 53.9481 44.7293 53.9158 44.7659 53.8701C44.8026 53.8245 44.8232 53.7681 44.8247 53.7096V53.5944C44.8232 53.5359 44.8026 53.4795 44.766 53.4339C44.7294 53.3883 44.6789 53.3559 44.6222 53.3418V53.3418Z" fill="white"/>
<path d="M77.3113 54.0335H65.7293C64.8484 54.035 63.9956 53.7235 63.323 53.1546C62.6504 52.5858 62.2018 51.7965 62.0571 50.9275C61.9124 50.0585 62.0811 49.1664 62.533 48.4103C62.985 47.6542 63.6909 47.0832 64.5248 46.7992C64.6748 45.175 65.42 43.6637 66.617 42.5558C67.8141 41.4479 69.3785 40.8217 71.0094 40.7976C72.6402 40.7735 74.2224 41.3532 75.4517 42.4252C76.681 43.4972 77.4705 44.9859 77.6685 46.6049C78.6205 46.6967 79.5006 47.1513 80.1264 47.8745C80.7523 48.5977 81.0758 49.534 81.0298 50.4893C80.9839 51.4446 80.5721 52.3456 79.8798 53.0055C79.1875 53.6653 78.2678 54.0334 77.3114 54.0335H77.3113Z" fill="white"/>
</g>
<defs>
<linearGradient id="paint0_linear" x1="47.8697" y1="-15.155" x2="51.8525" y2="130.613" gradientUnits="userSpaceOnUse">
<stop stop-color="#00ABDE"/>
<stop offset="1" stop-color="#007ED8"/>
</linearGradient>
<clipPath id="clip0">
<rect width="99.2799" height="99.28" fill="white"/>
</clipPath>
</defs>
</svg>
