<svg width="160" height="188" viewBox="0 0 160 188" fill="none" xmlns="http://www.w3.org/2000/svg">
<g clip-path="url(#clip0_378_1264)">
<path d="M80.0334 188C83.1147 187.994 86.1351 187.141 88.7638 185.534L150.739 147.874C153.52 146.11 155.804 143.665 157.375 140.771C158.945 137.876 159.749 134.628 159.711 131.336V56.6207C159.747 53.3283 158.942 50.0812 157.372 47.1871C155.802 44.2929 153.519 41.8476 150.739 40.0829L88.7638 2.4228C86.1303 0.837605 83.1147 0 80.041 0C76.9672 0 73.9516 0.837605 71.3182 2.4228L9.34307 40.098C6.55997 41.8604 4.27342 44.3048 2.70046 47.1991C1.12749 50.0935 0.32029 53.3418 0.355473 56.6358V131.336C0.33694 134.119 0.911657 136.874 2.04135 139.418C3.17104 141.962 4.82977 144.236 6.90707 146.089V146.115L71.3182 185.549C73.9438 187.149 76.9586 187.996 80.0334 188V188ZM80.6812 6.95218C82.6331 6.95218 85.1103 8.1651 86.8201 9.20912L147.577 46.4034C151.329 48.6881 153.445 55.2842 153.445 60.0352L152.813 131.336C152.813 136.087 149.614 140.355 145.861 142.64L85.4659 179.021C82.0313 181.109 79.2409 181.109 75.8062 179.021L14.5982 142.549C10.8458 140.265 7.82738 136.072 7.82738 131.336V57.688C7.85989 55.3228 8.46888 53.0013 9.60155 50.9247C10.7342 48.8482 12.3563 47.0792 14.3273 45.7714L74.9035 9.20912C76.6132 8.1651 78.7294 6.95218 80.6812 6.95218Z" fill="#F2F1F0"/>
<path fill-rule="evenodd" clip-rule="evenodd" d="M87.9319 10.5328C85.561 9.05928 82.8252 8.27838 80.0337 8.27838C77.2422 8.27838 74.5064 9.05928 72.1355 10.5328L16.0008 44.8642C13.4748 46.4759 11.4025 48.7062 9.98047 51.3437C8.55847 53.9812 7.83398 56.9382 7.87573 59.9343V128.038C7.83581 131.033 8.56109 133.99 9.98292 136.627C11.4048 139.264 13.4761 141.495 16.0008 143.108L72.1355 177.439C74.5063 178.912 77.2422 179.694 80.0337 179.694C82.8253 179.694 85.5612 178.912 87.9319 177.439L144.066 143.108C146.591 141.495 148.663 139.264 150.085 136.627C151.507 133.99 152.232 131.033 152.192 128.038V59.9343C152.23 56.9388 151.504 53.983 150.082 51.3461C148.66 48.7092 146.59 46.4784 144.066 44.8642L87.9319 10.5328Z" fill="url(#paint0_linear_378_1264)"/>
<path fill-rule="evenodd" clip-rule="evenodd" d="M80.0338 9.75432C81.717 9.75432 83.5997 10.62 85.6665 11.8781L144.132 47.4205C146.024 48.6339 147.573 50.3108 148.634 52.2919C149.694 54.2729 150.231 56.4922 150.192 58.739V129.218C150.231 131.464 149.694 133.684 148.634 135.664C147.573 137.645 146.024 139.322 144.132 140.536L85.6675 176.078L85.6665 176.079C83.9963 177.218 82.0512 177.889 80.0338 178.022C78.0163 177.889 76.0713 177.218 74.4011 176.079L74.4001 176.078L15.9378 140.538L15.9356 140.537C14.1473 139.573 12.6222 138.186 11.4938 136.497C10.5169 134.894 9.87578 132.679 9.87578 129.218V58.739C9.83704 56.4923 10.3734 54.273 11.434 52.292C12.4945 50.311 14.044 48.6341 15.9352 47.4206L74.392 11.8835L74.3961 11.8811C76.4799 10.6281 78.3401 9.75432 80.0338 9.75432ZM87.7463 8.46132L146.21 44.0026C148.689 45.5727 150.723 47.7514 152.121 50.3311C153.518 52.9109 154.231 55.8055 154.192 58.7391V129.218C154.231 132.151 153.518 135.046 152.121 137.626C150.723 140.205 148.688 142.384 146.21 143.955L87.7453 179.496C85.4511 181.021 82.7857 181.894 80.0338 182.022C77.2819 181.894 74.6164 181.021 72.3222 179.496H72.3213L13.8575 143.954L13.855 143.953C11.5197 142.66 9.53644 140.814 8.07828 138.579C6.4837 135.725 5.72068 132.482 5.87578 129.218V58.739C5.83672 55.8054 6.54983 52.9107 7.94712 50.331C9.34441 47.7512 11.3793 45.5724 13.8577 44.0024L72.3222 8.46067L72.3304 8.45579C74.421 7.19838 77.1289 5.75433 80.0338 5.75433C82.92 5.75433 85.6371 7.17741 87.7463 8.46127V8.46132Z" fill="#0078D4"/>
<path opacity="0.2" d="M139.965 132.026L80.4154 166.633L20.4764 132.027L80.0264 97.42L139.965 132.026Z" fill="#003067"/>
<path d="M140.956 120.649L80.2334 155.937L19.1224 120.654L79.8444 85.366L140.956 120.649Z" fill="#1B93EB"/>
<path d="M140.956 120.649L140.944 124.755L80.2224 160.043L80.2334 155.937L140.956 120.649Z" fill="#1F56A3"/>
<path d="M80.2335 155.937L80.2225 160.043L19.1105 124.76L19.1225 120.654L80.2335 155.937Z" fill="#0078D4"/>
<path opacity="0.3" d="M62.1464 119.225C65.5187 119.225 68.2524 117.9 68.2524 116.267C68.2524 114.633 65.5187 113.308 62.1464 113.308C58.7742 113.308 56.0404 114.633 56.0404 116.267C56.0404 117.9 58.7742 119.225 62.1464 119.225Z" fill="#003067"/>
<path fill-rule="evenodd" clip-rule="evenodd" d="M64.288 112.498C64.288 113.645 63.9479 114.766 63.3107 115.72C62.6735 116.673 61.7679 117.417 60.7083 117.856C59.6487 118.294 58.4827 118.409 57.3578 118.186C56.233 117.962 55.1997 117.409 54.3888 116.598C53.5778 115.788 53.0255 114.754 52.8017 113.629C52.578 112.505 52.6928 111.339 53.1317 110.279C53.5706 109.219 54.3139 108.314 55.2675 107.677C56.2211 107.039 57.3422 106.699 58.4891 106.699C60.0271 106.699 61.502 107.31 62.5895 108.398C63.677 109.485 64.288 110.96 64.288 112.498V112.498Z" fill="#C3F1FF"/>
<path fill-rule="evenodd" clip-rule="evenodd" d="M62.527 108.851L62.5685 108.85C62.5485 108.829 62.534 108.828 62.527 108.851Z" fill="#7CB65A"/>
<path opacity="0.3" d="M77.7084 127.725C81.0807 127.725 83.8144 126.4 83.8144 124.766C83.8144 123.132 81.0807 121.808 77.7084 121.808C74.3362 121.808 71.6024 123.132 71.6024 124.766C71.6024 126.4 74.3362 127.725 77.7084 127.725Z" fill="#003067"/>
<path fill-rule="evenodd" clip-rule="evenodd" d="M79.85 120.998C79.85 122.145 79.5099 123.266 78.8727 124.219C78.2355 125.173 77.3299 125.916 76.2703 126.355C75.2107 126.794 74.0447 126.909 72.9199 126.685C71.795 126.461 70.7617 125.909 69.9508 125.098C69.1398 124.287 68.5875 123.254 68.3637 122.129C68.14 121.004 68.2548 119.838 68.6937 118.779C69.1326 117.719 69.8759 116.813 70.8295 116.176C71.7831 115.539 72.9043 115.199 74.0512 115.199C75.5891 115.199 77.0641 115.81 78.1515 116.897C79.239 117.985 79.85 119.46 79.85 120.998V120.998Z" fill="#50E6FF"/>
<path fill-rule="evenodd" clip-rule="evenodd" d="M78.089 117.351L78.1305 117.349C78.1106 117.329 78.0961 117.327 78.089 117.351Z" fill="#7CB65A"/>
<path opacity="0.3" d="M93.2706 136.224C96.6428 136.224 99.3766 134.9 99.3766 133.266C99.3766 131.632 96.6428 130.308 93.2706 130.308C89.8983 130.308 87.1646 131.632 87.1646 133.266C87.1646 134.9 89.8983 136.224 93.2706 136.224Z" fill="#003067"/>
<path fill-rule="evenodd" clip-rule="evenodd" d="M95.4121 129.497C95.4121 130.644 95.072 131.766 94.4348 132.719C93.7977 133.673 92.892 134.416 91.8324 134.855C90.7728 135.294 89.6069 135.409 88.482 135.185C87.3571 134.961 86.3239 134.409 85.5129 133.598C84.7019 132.787 84.1496 131.754 83.9259 130.629C83.7021 129.504 83.817 128.338 84.2559 127.278C84.6948 126.219 85.438 125.313 86.3916 124.676C87.3452 124.039 88.4664 123.699 89.6133 123.699C91.1512 123.699 92.6262 124.31 93.7137 125.397C94.8012 126.485 95.4121 127.96 95.4121 129.497Z" fill="#1F56A3"/>
<path fill-rule="evenodd" clip-rule="evenodd" d="M93.6511 125.851L93.6926 125.849C93.6727 125.829 93.6582 125.827 93.6511 125.851Z" fill="#7CB65A"/>
<path d="M86.3175 141.062L83.1955 142.876L37.9835 116.786L41.1055 114.972L86.3175 141.062Z" fill="#1B93EB"/>
<path d="M86.3175 141.062L86.3095 143.829L83.1875 145.643L83.1955 142.876L86.3175 141.062Z" fill="#1F56A3"/>
<path d="M83.1955 142.876L83.1875 145.643L37.9755 119.553L37.9835 116.786L83.1955 142.876Z" fill="#0078D4"/>
<path d="M67.5125 133.826L70.6625 132.028L41.1055 114.972L37.9835 116.786L67.5125 133.826Z" fill="#50E6FF"/>
<path d="M67.5125 133.826V136.597L37.9755 119.553L37.9835 116.786L67.5125 133.826Z" fill="#53B1E0"/>
<path d="M60.5999 47.4777C58.7392 46.3964 56.1647 46.5464 53.3231 48.1871C52.5091 48.6585 51.7423 49.207 51.0331 49.825L52.814 50.86C53.5232 50.242 54.2902 49.6935 55.1042 49.2221C57.9458 47.5815 60.5203 47.4315 62.3808 48.5127L60.5999 47.4777Z" fill="#E8E8E8"/>
<path d="M39.8807 49.2166C32.6044 53.4176 26.7267 63.5982 26.7504 71.9686C26.7511 72.1818 26.7517 72.3857 26.7683 72.5804C26.0158 72.7385 25.2954 73.0226 24.6374 73.4206C22.7564 74.6443 21.1911 76.2951 20.0691 78.2386C18.947 80.182 18.3001 82.363 18.1809 84.6039C18.1868 86.6494 18.9092 88.0819 20.0707 88.7569L21.8517 89.7919C20.6901 89.1169 19.9677 87.6844 19.962 85.6389C20.0812 83.398 20.7281 81.217 21.8501 79.2736C22.9721 77.3302 24.5375 75.6794 26.4185 74.4557C27.0764 74.0576 27.7968 73.7736 28.5493 73.6155C28.5326 73.4208 28.532 73.2169 28.5314 73.0036C28.5078 64.6333 34.3853 54.4527 41.6618 50.2516C45.3239 48.1373 48.6313 47.9283 51.0281 49.3211L49.2471 48.2861C46.8504 46.8933 43.5428 47.1023 39.8807 49.2166Z" fill="#E8E8E8"/>
<path d="M41.6617 50.2516C34.3853 54.4526 28.5077 64.6332 28.5314 73.0036C28.532 73.2168 28.5326 73.4208 28.5492 73.6154C27.7967 73.7735 27.0764 74.0576 26.4185 74.4556C24.5374 75.6793 22.9721 77.3301 21.8501 79.2736C20.7281 81.217 20.0811 83.398 19.9619 85.6389C19.9729 89.5136 22.5552 91.1888 25.8234 89.6825L55.1548 72.813C59.0027 70.5914 62.3517 66.216 64.1081 61.5995C64.1482 61.4742 64.2124 61.335 64.2524 61.2098C64.638 60.0965 64.9373 58.9552 65.1478 57.796C65.1555 57.6708 65.1875 57.5317 65.2032 57.4204C65.3193 56.6502 65.3765 55.8722 65.3744 55.0933C65.356 48.5954 60.7591 45.9571 55.1041 49.222C54.2901 49.6935 53.5232 50.242 52.8139 50.86C50.4545 47.9605 46.3486 47.5457 41.6617 50.2516Z" fill="white"/>
<path d="M118.296 85.9153L99.6005 75.1217C98.7194 74.5684 98.0116 73.7787 97.5578 72.8425L95.8282 69.4583C95.3743 68.5222 94.6665 67.7324 93.7855 67.1791L81.0799 59.8435C80.8091 59.647 80.4906 59.5264 80.1575 59.4943C79.8243 59.4622 79.4887 59.5197 79.1853 59.661L76.2139 61.3878C76.5173 61.2466 76.8529 61.1891 77.186 61.2212C77.5191 61.2533 77.8375 61.3739 78.1084 61.5704L90.814 68.9059C91.695 69.4593 92.4028 70.249 92.8567 71.1851L94.5862 74.5693C95.04 75.5055 95.7479 76.2953 96.6289 76.8485L115.324 87.6423C116.097 88.1463 116.741 88.8256 117.202 89.625C117.664 90.4244 117.93 91.3213 117.98 92.243L117.902 119.741C117.935 120.069 117.88 120.4 117.743 120.7C117.606 120.999 117.392 121.257 117.123 121.448L120.095 119.721C120.364 119.531 120.578 119.272 120.715 118.973C120.852 118.673 120.906 118.342 120.874 118.014L120.952 90.5161C120.902 89.5944 120.635 88.6975 120.174 87.8981C119.712 87.0987 119.069 86.4194 118.296 85.9153V85.9153Z" fill="url(#paint1_linear_378_1264)"/>
<path d="M90.8141 68.906C91.6951 69.4593 92.4029 70.2491 92.8568 71.1852L94.5863 74.5694C95.0402 75.5055 95.748 76.2953 96.629 76.8486L115.324 87.6422C116.097 88.1463 116.741 88.8256 117.202 89.625C117.664 90.4244 117.93 91.3214 117.98 92.2431L117.902 119.741C117.898 121.427 116.696 122.112 115.229 121.265L78.0001 99.771C77.2269 99.2669 76.5834 98.5876 76.1218 97.7882C75.6603 96.9888 75.3938 96.0919 75.3439 95.1702L75.4348 63.094C75.4396 61.4082 76.6414 60.7234 78.1084 61.5704L90.8141 68.906Z" fill="url(#paint2_linear_378_1264)"/>
<path opacity="0.3" d="M118.537 122.632C118.761 122.707 118.957 122.851 119.095 123.042C119.234 123.234 119.31 123.464 119.311 123.701C119.312 123.937 119.24 124.169 119.103 124.362C118.966 124.555 118.772 124.7 118.549 124.778L114.768 126.975C114.194 127.268 113.558 127.421 112.914 127.422C112.269 127.422 111.633 127.27 111.058 126.978L73.3821 105.226C73.1578 105.15 72.9628 105.006 72.8245 104.814C72.6862 104.621 72.6115 104.391 72.6108 104.154C72.6102 103.917 72.6837 103.686 72.8209 103.493C72.9582 103.3 73.1524 103.154 73.3764 103.077L77.1569 100.88C77.7304 100.588 78.365 100.435 79.0088 100.435C79.6526 100.435 80.2873 100.588 80.8607 100.88L118.537 122.632Z" fill="#003067"/>
<path d="M119.502 47.0371C119.502 47.0371 92.6362 31.4856 86.4568 27.9057V32.8337L118.537 51.383C118.791 51.5302 119.08 51.6077 119.374 51.6079C119.668 51.608 119.957 51.5307 120.212 51.3838C120.467 51.2368 120.678 51.0254 120.825 50.7708C120.972 50.5162 121.05 50.2273 121.05 49.9333V49.9333C120.953 48.3917 120.372 47.4241 119.502 47.0371Z" fill="#CDCDD0"/>
<path d="M85.1096 27.222C84.6324 26.9903 84.1004 26.8948 83.5724 26.9461C83.0443 26.9973 82.5406 27.1932 82.1168 27.5123C80.872 28.331 79.8378 29.4317 79.0982 30.725C78.3585 32.0183 77.9342 33.4678 77.8596 34.9558V62.9861L77.8526 62.982V87.235C77.7432 88.5231 77.2906 89.7583 76.5419 90.8122C75.7932 91.8661 74.7758 92.7 73.5955 93.2273C72.5376 93.7111 72.8545 93.9893 72.0869 93.6022C72.0869 93.6022 104.325 112.746 105.105 113.133C105.569 113.373 106.083 113.499 106.605 113.499C107.127 113.499 107.641 113.373 108.105 113.133C109.285 112.605 110.302 111.771 111.05 110.717C111.799 109.663 112.252 108.428 112.362 107.14V54.8613C112.458 53.3785 112.892 51.9374 113.63 50.6475C114.368 49.3576 115.39 48.253 116.619 47.4177C117.029 47.1535 117.492 46.982 117.976 46.9151C118.459 46.8483 118.951 46.8877 119.418 47.0307C119.418 47.0307 85.8902 27.6091 85.1096 27.222Z" fill="white"/>
<path d="M85.9498 61.2665C87.1822 62.0681 88.2076 63.1496 88.9427 64.4227C89.6777 65.6958 90.1015 67.1246 90.1795 68.5927C90.1719 71.2829 88.2634 72.3599 85.9222 71.0082C84.6902 70.2088 83.6648 69.1293 82.9297 67.8579C82.1946 66.5865 81.7707 65.1592 81.6925 63.6927C81.7001 61.0024 83.6085 59.9148 85.9498 61.2665Z" fill="#F2F2F2"/>
<path d="M88.9054 84.1038C90.5599 83.1423 90.5555 80.0473 88.8955 77.191C87.2356 74.3347 84.5487 72.7986 82.8942 73.7601C81.2398 74.7216 81.2442 77.8165 82.9042 80.6728C84.5641 83.5292 87.251 85.0652 88.9054 84.1038Z" fill="#F2F2F2"/>
<path d="M85.9861 48.4773C87.2193 49.2779 88.2455 50.3591 88.9806 51.6325C89.7158 52.9058 90.1391 54.3351 90.2158 55.8034C90.2082 58.4936 88.2997 59.5707 85.9585 58.219C84.7265 57.4195 83.7011 56.34 82.966 55.0686C82.2308 53.7972 81.8069 52.3699 81.7288 50.9034C81.7364 48.2026 83.6448 47.1255 85.9861 48.4773Z" fill="#0078D4"/>
<path d="M105.339 75.4082C105.801 75.7088 106.186 76.1143 106.461 76.5918C106.737 77.0692 106.896 77.605 106.925 78.1555C106.922 79.1644 106.207 79.5722 105.329 79.0653L95.2047 73.2202C94.7439 72.9202 94.3607 72.5153 94.0866 72.0387C93.8125 71.5621 93.6552 71.0273 93.6277 70.4782C93.6305 69.4693 94.3371 69.0562 95.215 69.5631L105.339 75.4082Z" fill="#F2F2F2"/>
<path d="M106.951 69.0128C107.413 69.3134 107.798 69.719 108.073 70.1964C108.349 70.6738 108.508 71.2096 108.537 71.76C108.534 72.7689 107.819 73.1767 106.941 72.6699L95.2254 65.906C94.7647 65.606 94.3815 65.2012 94.1074 64.7245C93.8333 64.2479 93.676 63.7131 93.6484 63.164C93.6513 62.1552 94.3578 61.742 95.2358 62.2489L106.951 69.0128Z" fill="#F2F2F2"/>
<path d="M106.972 61.7092C107.434 62.0098 107.819 62.4153 108.094 62.8927C108.37 63.3702 108.529 63.9059 108.558 64.4564C108.555 65.4653 107.839 65.8731 106.962 65.3663L95.2462 58.6024C94.7854 58.3024 94.4022 57.8975 94.1281 57.4209C93.854 56.9443 93.6967 56.4095 93.6692 55.8604C93.672 54.8515 94.3786 54.4384 95.2565 54.9453L106.972 61.7092Z" fill="#F2F2F2"/>
<path d="M106.91 83.6306C107.372 83.9312 107.756 84.3367 108.032 84.8142C108.308 85.2916 108.466 85.8274 108.496 86.3779C108.493 87.3867 107.777 87.7945 106.899 87.2877L95.1839 80.5238C94.7231 80.2238 94.34 79.819 94.0659 79.3423C93.7917 78.8657 93.6345 78.3309 93.6069 77.7818C93.6098 76.7729 94.3163 76.3598 95.1943 76.8667L106.91 83.6306Z" fill="#F2F2F2"/>
<path d="M102.911 88.6479C103.373 88.9485 103.757 89.354 104.033 89.8314C104.309 90.3089 104.468 90.8447 104.497 91.3952C104.494 92.404 103.778 92.8119 102.9 92.305L95.1632 87.838C94.7024 87.538 94.3192 87.1331 94.0451 86.6565C93.771 86.1799 93.6137 85.6451 93.5862 85.096C93.589 84.0871 94.2956 83.674 95.1735 84.1809L102.911 88.6479Z" fill="#F2F2F2"/>
<path d="M87.2269 56.1981C87.901 55.849 87.7869 54.2901 86.972 52.7162C86.157 51.1422 84.9498 50.1493 84.2757 50.4984C83.6015 50.8475 83.7156 52.4064 84.5305 53.9803C85.3455 55.5542 86.5527 56.5472 87.2269 56.1981Z" fill="#1490DF"/>
<path d="M87.2269 68.9883C87.901 68.6392 87.7869 67.0803 86.972 65.5064C86.157 63.9325 84.9498 62.9395 84.2757 63.2886C83.6015 63.6377 83.7156 65.1966 84.5305 66.7705C85.3455 68.3445 86.5527 69.3374 87.2269 68.9883Z" fill="#E8E8E8"/>
<path d="M87.2269 81.7818C87.901 81.4327 87.7869 79.8738 86.972 78.2998C86.157 76.7259 84.9498 75.733 84.2757 76.0821C83.6015 76.4311 83.7156 77.9901 84.5305 79.564C85.3455 81.1379 86.5527 82.1309 87.2269 81.7818Z" fill="#E8E8E8"/>
<path d="M104.682 94.62C105.456 95.1241 106.099 95.8034 106.561 96.6028C107.022 97.4022 107.289 98.2991 107.339 99.2208L114.939 121.467C114.935 123.153 113.733 123.838 112.266 122.991L75.0372 101.497C74.2672 100.992 73.6268 100.313 73.1677 99.5156C72.7086 98.7177 72.4437 97.8229 72.3944 96.9037L64.7936 74.6574C64.7984 72.9717 66.0001 72.2868 67.4538 73.1261L104.682 94.62Z" fill="url(#paint3_linear_378_1264)"/>
<path d="M107.654 92.8932L70.4253 71.3992C70.1564 71.2047 69.8403 71.0856 69.5098 71.0544C69.1793 71.0231 68.8465 71.0808 68.5458 71.2215L65.5743 72.9484C65.875 72.8077 66.2078 72.75 66.5383 72.7812C66.8687 72.8124 67.1848 72.9315 67.4538 73.1261L104.682 94.62C106.149 95.467 106.682 97.4757 107.339 99.2209L114.939 121.467C114.972 121.795 114.917 122.126 114.78 122.425C114.643 122.725 114.429 122.983 114.16 123.173L117.132 121.446C117.401 121.256 117.615 120.998 117.752 120.698C117.889 120.399 117.944 120.068 117.911 119.74L110.31 97.494C109.63 95.739 109.121 93.7402 107.654 92.8932Z" fill="url(#paint4_linear_378_1264)"/>
</g>
<defs>
<linearGradient id="paint0_linear_378_1264" x1="80.0339" y1="8.27838" x2="80.0339" y2="179.694" gradientUnits="userSpaceOnUse">
<stop stop-color="#00ABDE"/>
<stop offset="1" stop-color="#007ED8"/>
</linearGradient>
<linearGradient id="paint1_linear_378_1264" x1="76.2139" y1="90.4639" x2="120.952" y2="90.4639" gradientUnits="userSpaceOnUse">
<stop stop-color="#005BA1"/>
<stop offset="0.26" stop-color="#00589D"/>
<stop offset="0.53" stop-color="#004F90"/>
<stop offset="0.8" stop-color="#003F7C"/>
<stop offset="1" stop-color="#003067"/>
</linearGradient>
<linearGradient id="paint2_linear_378_1264" x1="96.6621" y1="121.628" x2="96.6621" y2="61.0987" gradientUnits="userSpaceOnUse">
<stop stop-color="#003067"/>
<stop offset="0.2" stop-color="#003F7C"/>
<stop offset="0.47" stop-color="#004F90"/>
<stop offset="0.74" stop-color="#00589D"/>
<stop offset="1" stop-color="#005BA1"/>
</linearGradient>
<linearGradient id="paint3_linear_378_1264" x1="89.8665" y1="123.354" x2="89.8665" y2="72.7677" gradientUnits="userSpaceOnUse">
<stop stop-color="#004DAE"/>
<stop offset="0.21" stop-color="#0061C4"/>
<stop offset="0.51" stop-color="#0078DD"/>
<stop offset="0.78" stop-color="#0086EC"/>
<stop offset="1" stop-color="#008BF1"/>
</linearGradient>
<linearGradient id="paint4_linear_378_1264" x1="65.5743" y1="97.1071" x2="117.911" y2="97.1071" gradientUnits="userSpaceOnUse">
<stop stop-color="#008BF1"/>
<stop offset="0.22" stop-color="#0086EC"/>
<stop offset="0.49" stop-color="#0078DD"/>
<stop offset="0.79" stop-color="#0061C4"/>
<stop offset="1" stop-color="#004DAE"/>
</linearGradient>
<clipPath id="clip0_378_1264">
<rect width="159.356" height="188" fill="white" transform="translate(0.355469)"/>
</clipPath>
</defs>
</svg>
