<?xml version="1.0" encoding="UTF-8"?>
<svg width="107px" height="107px" viewBox="0 0 107 107" version="1.1" xmlns="http://www.w3.org/2000/svg" xmlns:xlink="http://www.w3.org/1999/xlink">
    <!-- Generator: Sketch 61 (89581) - https://sketch.com -->
    <title>Upgrade to Microsoft Teams/Getting-started-with-your-Teams-upgrade</title>
    <desc>Created with Sketch.</desc>
    <defs>
        <rect id="path-1" x="0" y="0" width="100" height="100" rx="50"></rect>
        <filter x="-5.1%" y="-5.6%" width="110.3%" height="111.5%" filterUnits="objectBoundingBox" id="filter-3">
            <feOffset dx="0" dy="2" in="SourceAlpha" result="shadowOffsetOuter1"></feOffset>
            <feColorMatrix values="0 0 0 0 0   0 0 0 0 0   0 0 0 0 0  0 0 0 0.1 0" type="matrix" in="shadowOffsetOuter1" result="shadowMatrixOuter1"></feColorMatrix>
            <feMerge>
                <feMergeNode in="shadowMatrixOuter1"></feMergeNode>
                <feMergeNode in="SourceGraphic"></feMergeNode>
            </feMerge>
        </filter>
        <filter x="-11.3%" y="-12.1%" width="124.2%" height="124.1%" filterUnits="objectBoundingBox" id="filter-4">
            <feOffset dx="0" dy="2" in="SourceAlpha" result="shadowOffsetOuter1"></feOffset>
            <feColorMatrix values="0 0 0 0 0   0 0 0 0 0   0 0 0 0 0  0 0 0 0.102764423 0" type="matrix" in="shadowOffsetOuter1" result="shadowMatrixOuter1"></feColorMatrix>
            <feMerge>
                <feMergeNode in="shadowMatrixOuter1"></feMergeNode>
                <feMergeNode in="SourceGraphic"></feMergeNode>
            </feMerge>
        </filter>
        <path d="M1.47619786,7.47321429 L16.2381321,7.47321429 C17.0533946,7.47321429 17.7142857,8.13413859 17.7142857,8.94940107 L17.7142857,23.7113021 C17.7142857,24.5265689 17.0533989,25.1875 16.2381321,25.1875 L1.47619786,25.1875 C0.660916293,25.1875 0,24.5265837 0,23.7113021 L0,8.94941214 C0,8.13413058 0.660916293,7.47321429 1.47619786,7.47321429 Z" id="path-5"></path>
        <filter x="-5.6%" y="-5.6%" width="111.3%" height="122.6%" filterUnits="objectBoundingBox" id="filter-6">
            <feOffset dx="0" dy="2" in="SourceAlpha" result="shadowOffsetOuter1"></feOffset>
            <feColorMatrix values="0 0 0 0 0   0 0 0 0 0   0 0 0 0 0  0 0 0 0.0950065559 0" type="matrix" in="shadowOffsetOuter1"></feColorMatrix>
        </filter>
        <rect id="path-7" x="-3" y="-3" width="106" height="106" rx="53"></rect>
        <filter x="-0.5%" y="-0.5%" width="101.9%" height="101.9%" filterUnits="objectBoundingBox" id="filter-8">
            <feOffset dx="1" dy="1" in="SourceAlpha" result="shadowOffsetOuter1"></feOffset>
            <feMorphology radius="4" operator="erode" in="SourceAlpha" result="shadowInner"></feMorphology>
            <feOffset dx="1" dy="1" in="shadowInner" result="shadowInner"></feOffset>
            <feComposite in="shadowOffsetOuter1" in2="shadowInner" operator="out" result="shadowOffsetOuter1"></feComposite>
            <feColorMatrix values="0 0 0 0 0   0 0 0 0 0   0 0 0 0 0  0 0 0 0.15 0" type="matrix" in="shadowOffsetOuter1"></feColorMatrix>
        </filter>
    </defs>
    <g id="Badges" stroke="none" stroke-width="1" fill="none" fill-rule="evenodd">
        <g id="Upgrade-to-Microsoft-Teams" transform="translate(-47.000000, -257.000000)">
            <g id="Upgrade-to-Microsoft-Teams/Getting-started-with-your-Teams-upgrade" transform="translate(50.000000, 260.000000)">
                <g id="Mask" transform="translate(2.000000, 2.000000)">
                    <g id="Circle-" transform="translate(-2.000000, 0.000000)">
                        <mask id="mask-2" fill="white">
                            <use xlink:href="#path-1"></use>
                        </mask>
                        <g id="BG"></g>
                        <g id="Color/DE" mask="url(#mask-2)" fill="#DEDEDE" fill-rule="evenodd">
                            <rect id="Rectangle" x="0" y="0" width="100" height="100"></rect>
                        </g>
                    </g>
                    <g id="Gear-Lightbulb" transform="translate(8.000000, 9.000000)">
                        <g id="Group-74" filter="url(#filter-3)" transform="translate(0.571429, 0.000000)">
                            <g id="Group-5">
                                <path d="M39.2224,60.8341714 C26.5984,60.8341714 16.3652571,50.6010286 16.3652571,37.9770286 C16.3652571,25.3530286 26.5984,15.1198857 39.2224,15.1198857 C51.8464,15.1198857 62.0795429,25.3530286 62.0795429,37.9770286 C62.0795429,50.6010286 51.8464,60.8341714 39.2224,60.8341714 M68.5595429,32.0501714 L65.0715429,23.4581714 L68.5069714,19.2238857 C70.0041143,17.3793143 69.8372571,14.6947429 68.1252571,13.0478857 L65.1789714,10.2158857 C63.5195429,8.61931429 60.9321143,8.50731429 59.1412571,9.95302857 L54.9024,13.3713143 L46.3149714,9.60445714 L45.8464,4.17817143 C45.6406857,1.8136 43.6635429,0.00102857143 41.2921143,0.00102857143 L37.2326857,0.00102857143 C34.8921143,0.00102857143 32.9286857,1.76788571 32.6852571,4.09588571 L32.1104,9.60445714 L23.3115429,13.3713143 L19.0086857,9.93702857 C17.2064,8.50045714 14.6201143,8.62731429 12.9686857,10.2341714 L10.1035429,13.0227429 C8.39611429,14.6821714 8.24982857,17.3747429 9.76525714,19.2090286 L13.2715429,23.4581714 L9.56297143,32.0501714 L4.05782857,32.6730286 C1.74697143,32.9347429 0.000685714286,34.8901714 0.000685714286,37.2158857 L0.000685714286,41.7816 C0.000685714286,44.1324571 1.78125714,46.0981714 4.11954286,46.3313143 L9.56297143,46.8707429 L13.2715429,55.4147429 L9.74811429,59.5781714 C8.23497143,61.3678857 8.31954286,64.0113143 9.94468571,65.7016 L12.8818286,68.7553143 C14.5549714,70.4924571 17.2909714,70.6318857 19.1309714,69.0730286 L24.1961143,64.7838857 L53.9458286,64.7838857 L59.5264,68.9221714 C61.3549714,70.2798857 63.9058286,70.0833143 65.5046857,68.4604571 L68.3092571,65.6136 C69.9332571,63.9667429 70.0704,61.3678857 68.6304,59.5576 L65.0715429,55.0856 L68.5595429,46.3884571 L74.2726857,45.8878857 C76.6338286,45.6798857 78.4441143,43.7038857 78.4441143,41.3336 L78.4441143,37.2307429 C78.4441143,34.8981714 76.6886857,32.9393143 74.3698286,32.6856 L68.5595429,32.0501714 Z" id="Fill-1" fill="#546670"></path>
                                <path d="M68.5594286,32.0502857 L65.0714286,23.4582857 L68.5068571,19.224 C70.004,17.3782857 69.8371429,14.6948571 68.1251429,13.048 L65.1788571,10.216 C63.5194286,8.61942857 60.932,8.50742857 59.1411429,9.952 L54.9022857,13.3714286 L46.3148571,9.60457143 L45.8462857,4.17828571 C45.6405714,1.81371429 43.6634286,-4.70988328e-13 41.292,-4.70988328e-13 L38.8476563,-4.70988328e-13 L38.8476563,15.12 C51.4716563,15.12 62.0794286,25.3531429 62.0794286,37.9771429 C62.0794286,50.6011429 51.4716563,60.8342857 38.8476563,60.8342857 L38.8476563,64.784 L53.9457143,64.784 L59.5262857,68.9222857 C61.3548571,70.28 63.9057143,70.0834286 65.5045714,68.4605714 L68.3091429,65.6137143 C69.9331429,63.9668571 70.0702857,61.368 68.6314286,59.5577143 L65.0714286,55.0857143 L68.5594286,46.3885714 L74.2725714,45.888 C76.6337143,45.68 78.444,43.704 78.444,41.3325714 L78.444,37.2308571 C78.444,34.8982857 76.6885714,32.9394286 74.3697143,32.6857143 L68.5594286,32.0502857 Z" id="Fill-3" fill="#30404D"></path>
                            </g>
                            <g id="Group-67" transform="translate(16.000000, 16.000000)" stroke-width="2">
                                <ellipse id="Oval" stroke="#30404D" fill-rule="nonzero" cx="23.4285714" cy="22.2857143" rx="22.8571429" ry="22.2857143"></ellipse>
                                <path d="M22.8476563,44.5714286 C35.4716563,44.5714286 46.2857143,34.5941143 46.2857143,22.2857143 C46.2857143,11.2003787 37.5140262,2.00587419 26.5484824,0.288047363 C25.3386349,0.0985165315 24.1020813,0 22.8476563,0" id="Stroke-1" stroke="#546670"></path>
                            </g>
                        </g>
                    </g>
                    <g id="Group" transform="translate(30.000000, 32.000000)">
                        <g id="Microsoft_Office_Teams_(2018–present)" filter="url(#filter-4)" fill-rule="nonzero">
                            <circle id="Head" fill="#7B83EB" cx="18.8571429" cy="5.1875" r="5.14285714"></circle>
                            <circle id="Head-2" fill="#5059C9" cx="30.2857143" cy="6.90178571" r="4"></circle>
                            <path d="M33.8001821,11.4732143 L25.2661742,11.4732143 C24.8830115,11.4732143 24.5723967,11.7898683 24.5723967,12.1804809 L24.5723967,21.1563457 C24.5236668,23.8334612 26.3192966,26.180152 28.8782334,26.7836009 C30.4799255,27.1263192 32.1478303,26.7148792 33.418635,25.6635713 C34.6894396,24.6122633 35.4277846,23.0330673 35.4285714,21.3646543 L35.4285714,13.1333087 C35.4285714,12.2164812 34.6995237,11.4732143 33.8001821,11.4732143 L33.8001821,11.4732143 Z" id="Path" fill="#5059C9"></path>
                            <path d="M27.4285714,13.1423223 L27.4285714,23.7133305 C27.4311962,27.7414699 24.7404555,31.268727 20.8692775,32.3118212 C16.9980995,33.3549154 12.9126234,31.6535192 10.9100013,28.1642813 C10.6969526,27.8084095 10.5118668,27.436367 10.3564299,27.0515436 C10.2115183,26.6887092 10.089491,26.3170608 9.99107286,25.9388059 C9.80854915,25.2111591 9.71559206,24.4637442 9.71428571,23.7133305 L9.71428571,13.1423223 C9.71369851,12.6994666 9.88847704,12.274579 10.200049,11.9614325 C10.511621,11.6482859 10.9343722,11.4726241 11.3750012,11.4732143 L25.7678555,11.4732143 C26.2084845,11.4726241 26.6312357,11.6482859 26.9428077,11.9614325 C27.2543797,12.274579 27.4291582,12.6994666 27.4285714,13.1423223 Z" id="Path" fill="#7B83EB"></path>
                            <g id="Back_Plate">
                                <use fill="black" fill-opacity="1" filter="url(#filter-6)" xlink:href="#path-5"></use>
                                <use fill="#4B53BC" xlink:href="#path-5"></use>
                            </g>
                            <polygon id="Path" fill="#FFFFFF" points="13.7142857 13.0430162 10.2810002 13.0430162 10.2810002 21.7589286 8.02460983 21.7589286 8.02460983 13.0430162 4.57142857 13.0430162 4.57142857 10.9017857 13.7142857 10.9017857"></polygon>
                        </g>
                        <g id="Cloud" transform="translate(1.000000, 25.000000)">
                            <path d="M28.9621081,9.51067126 C28.9652124,9.4383821 28.972973,9.367642 28.972973,9.29432014 C28.972973,6.72753873 26.888471,4.64716007 24.3166023,4.64716007 C23.5912432,4.64716007 22.9072741,4.81755594 22.2947027,5.11290878 C21.2144247,2.13304647 18.3626564,0 15.003861,0 C11.2466873,0 8.11398456,2.66488812 7.39793822,6.20395869 C7.34620077,6.20292599 7.29549807,6.19621343 7.24324324,6.19621343 C3.24290347,6.19621343 0,9.43270224 0,13.4251291 C0,17.4175559 3.24290347,20.6540448 7.24324324,20.6540448 L8.303861,20.6540448 C8.29403089,20.4820998 8.27799228,20.3122203 8.27799228,20.1376936 C8.27799228,15.2901893 12.2157297,11.3597246 17.0733591,11.3597246 C21.9309884,11.3597246 25.8687259,15.2901893 25.8687259,20.1376936 C25.8687259,20.3122203 25.8526873,20.4820998 25.8428571,20.6540448 L27.4208494,20.6540448 C30.5638996,20.6540448 33.1119691,18.1110155 33.1119691,14.9741824 C33.1119691,12.3712565 31.3554826,10.1824441 28.9621081,9.51067126" id="Fill-354" fill="#FFFFFF"></path>
                            <path d="M27.8135367,9.31394148 C28.2093282,9.34130809 28.5927027,9.40740103 28.9621081,9.51067126 C28.9652124,9.4383821 28.972973,9.367642 28.972973,9.29432014 C28.972973,7.74733219 28.2124324,6.38055077 27.0478224,5.53580034 C27.6055521,6.3020654 27.9382239,7.24182444 27.9382239,8.2616179 C27.9382239,8.62409639 27.8921776,8.97521515 27.8135367,9.31394148" id="Fill-355" fill="#C5CCCD"></path>
                            <path d="M20.1776062,11.3597246 C20.7167104,11.3597246 21.2325328,11.4557659 21.7142085,11.6240964 C22.378,10.4824441 22.7644788,9.16006885 22.7644788,7.74526678 C22.7644788,5.21101549 21.5393359,2.96798623 19.6540232,1.55524957 C20.6282394,2.84922547 21.2123552,4.45301205 21.2123552,6.19621343 C21.2123552,8.24716007 20.4078378,10.1055077 19.1030193,11.4888124 C19.4486255,11.4072289 19.807166,11.3597246 20.1776062,11.3597246" id="Fill-356" fill="#C5CCCD"></path>
                            <path d="M12.9084942,12.405852 C13.3498147,12.1688468 13.8159691,11.9731497 14.2981622,11.8125645 C13.9039228,10.0967298 12.901251,8.61376936 11.5245174,7.60327022 C12.5028726,8.93184165 13.0388726,10.6017212 12.9084942,12.405852" id="Fill-357" fill="#C5CCCD"></path>
                            <path d="M24.8339768,16.0094664 C24.8339768,16.0084337 24.8339768,16.0079174 24.8339768,16.0068847 C24.8339768,14.4598967 24.0734363,13.0931153 22.9088263,12.2483649 C23.3692896,12.8814114 23.6719537,13.6332186 23.7650811,14.4495697 C24.1743243,14.9287435 24.534417,15.4497418 24.8339768,16.0094664" id="Fill-358" fill="#C5CCCD"></path>
                            <path d="M8.27799228,20.1376936 C8.27799228,19.6027539 8.33386873,19.0812392 8.42544402,18.572117 C7.91427799,18.7812392 7.37569112,18.9340792 6.81589189,19.0192771 C4.78157529,19.3285714 2.88643243,18.7807229 1.40984556,17.6979346 C2.7286332,19.4876076 4.84676448,20.6540448 7.24324324,20.6540448 L8.303861,20.6540448 C8.29403089,20.4820998 8.27799228,20.3122203 8.27799228,20.1376936" id="Fill-359" fill="#C5CCCD"></path>
                            <path d="M30.59339,10.258864 C31.3761776,11.4196213 31.7409266,12.8834768 31.4718919,14.4376936 C31.0957606,16.6099828 29.4256757,18.3965577 27.2821931,18.929432 C26.7772355,19.0549053 26.2826255,19.1065404 25.8019846,19.1008606 C25.8423398,19.4416523 25.8687259,19.7860585 25.8687259,20.1376936 C25.8687259,20.3122203 25.8526873,20.4820998 25.8428571,20.6540448 L27.2408031,20.6540448 C30.3347027,20.6540448 32.9986641,18.2664372 33.1083475,15.1807229 C33.1812973,13.1318417 32.1656911,11.3142857 30.59339,10.258864" id="Fill-360" fill="#C5CCCD"></path>
                        </g>
                        <g id="Arrow" transform="translate(11.000000, 38.000000)">
                            <path d="M6.72586873,14.7251291 C2.29388835,14.7251291 -1.3,11.1381591 -1.3,6.71256454 C-1.3,2.28697 2.29388835,-1.3 6.72586873,-1.3 C11.1578491,-1.3 14.7517375,2.28697 14.7517375,6.71256454 C14.7517375,11.1381591 11.1578491,14.7251291 6.72586873,14.7251291 Z" id="Fill-352" stroke="#DEDEDE" stroke-width="2.6" fill="#4B53BC"></path>
                            <path d="M10.1074286,6.04234079 L7.52055598,2.94423408 C7.12735135,2.47332186 6.3243861,2.47332186 5.93118147,2.94423408 L3.34430888,6.04234079 C2.9785251,6.48072289 3.03750579,7.1313253 3.47675676,7.49690189 C3.91600772,7.86196213 4.56789961,7.80258176 4.9336834,7.36471601 L5.69111969,6.45748709 L5.69111969,9.80137694 C5.69111969,10.3719449 6.15416988,10.8340792 6.72586873,10.8340792 C7.29705019,10.8340792 7.76061776,10.3719449 7.76061776,9.80137694 L7.76061776,6.45748709 L8.51805405,7.36471601 C8.72241699,7.60946644 9.01680309,7.73597246 9.31325869,7.73597246 C9.54659459,7.73597246 9.78148263,7.65748709 9.97498069,7.49690189 C10.4142317,7.1313253 10.4732124,6.48072289 10.1074286,6.04234079" id="Fill-353" fill="#FFFFFE"></path>
                        </g>
                    </g>
                </g>
                <g id="Teams-Border">
                    <g id="Azure-Border">
                        <use fill="black" fill-opacity="1" filter="url(#filter-8)" xlink:href="#path-7"></use>
                        <rect stroke="#F2F1F0" stroke-width="4" stroke-linejoin="square" x="-1" y="-1" width="102" height="102" rx="51"></rect>
                    </g>
                    <rect id="Azure-Border" stroke="#4B53BC" stroke-width="4" x="2" y="2" width="96" height="96" rx="48"></rect>
                </g>
            </g>
        </g>
    </g>
</svg>