<svg width="160" height="188" viewBox="0 0 160 188" fill="none" xmlns="http://www.w3.org/2000/svg">
<g clip-path="url(#clip0)">
<path d="M80.0336 188C83.1149 187.994 86.1353 187.141 88.764 185.534L150.739 147.874C153.52 146.11 155.805 143.665 157.375 140.771C158.945 137.876 159.749 134.628 159.711 131.336V56.6207C159.748 53.3283 158.942 50.0812 157.372 47.1871C155.802 44.2929 153.519 41.8476 150.739 40.0829L88.764 2.4228C86.1306 0.837605 83.115 0 80.0412 0C76.9675 0 73.9519 0.837605 71.3184 2.4228L9.34332 40.098C6.56021 41.8604 4.27367 44.3048 2.7007 47.1991C1.12773 50.0935 0.320534 53.3418 0.355717 56.6358V131.336C0.337185 134.119 0.911901 136.874 2.04159 139.418C3.17128 141.962 4.83001 144.236 6.90732 146.089V146.115L71.3184 185.549C73.9441 187.149 76.9589 187.996 80.0336 188V188ZM80.6814 6.95218C82.6333 6.95218 85.1105 8.1651 86.8203 9.20912L147.577 46.4034C151.329 48.6881 153.445 55.2842 153.445 60.0352L152.813 131.336C152.813 136.087 149.614 140.355 145.861 142.64L85.4661 179.021C82.0315 181.109 79.2411 181.109 75.8064 179.021L14.5984 142.549C10.846 140.265 7.82763 136.072 7.82763 131.336V57.688C7.86014 55.3228 8.46913 53.0013 9.60179 50.9247C10.7345 48.8482 12.3566 47.0792 14.3275 45.7714L74.9037 9.20912C76.6134 8.1651 78.7296 6.95218 80.6814 6.95218Z" fill="#F2F1F0"/>
<path fill-rule="evenodd" clip-rule="evenodd" d="M87.9322 10.5328C85.5613 9.05928 82.8255 8.27838 80.034 8.27838C77.2425 8.27838 74.5067 9.05928 72.1358 10.5328L16.0011 44.8642C13.475 46.4759 11.4027 48.7062 9.98071 51.3437C8.55871 53.9812 7.83422 56.9382 7.87598 59.9343V128.038C7.83605 131.033 8.56134 133.99 9.98317 136.627C11.405 139.264 13.4763 141.495 16.0011 143.108L72.1358 177.439C74.5065 178.912 77.2424 179.694 80.034 179.694C82.8255 179.694 85.5614 178.912 87.9322 177.439L144.066 143.108C146.591 141.495 148.663 139.264 150.085 136.627C151.507 133.99 152.232 131.033 152.192 128.038V59.9343C152.231 56.9388 151.504 53.983 150.083 51.3461C148.661 48.7092 146.59 46.4784 144.066 44.8642L87.9322 10.5328Z" fill="url(#paint0_linear)"/>
<path fill-rule="evenodd" clip-rule="evenodd" d="M80.034 9.75432C81.7172 9.75432 83.5999 10.62 85.6667 11.8781L144.132 47.4205C146.024 48.6339 147.573 50.3108 148.634 52.2919C149.695 54.2729 150.231 56.4922 150.192 58.739V129.218C150.231 131.464 149.695 133.684 148.634 135.664C147.573 137.645 146.024 139.322 144.132 140.536L85.6677 176.078L85.6667 176.079C83.9965 177.218 82.0515 177.889 80.034 178.022C78.0166 177.889 76.0716 177.218 74.4013 176.079L74.4003 176.078L15.938 140.538L15.9358 140.537C14.1475 139.573 12.6225 138.186 11.494 136.497C10.5171 134.894 9.87603 132.679 9.87603 129.218V58.739C9.83728 56.4923 10.3737 54.273 11.4342 52.292C12.4948 50.311 14.0442 48.6341 15.9354 47.4206L74.3922 11.8835L74.3963 11.8811C76.4801 10.6281 78.3403 9.75432 80.034 9.75432ZM87.7465 8.46132L146.21 44.0026C148.689 45.5727 150.724 47.7514 152.121 50.3311C153.518 52.9109 154.231 55.8055 154.192 58.7391V129.218C154.231 132.151 153.518 135.046 152.121 137.626C150.724 140.205 148.689 142.384 146.21 143.955L87.7455 179.496C85.4513 181.021 82.7859 181.894 80.034 182.022C77.2821 181.894 74.6167 181.021 72.3224 179.496H72.3215L13.8577 143.954L13.8552 143.953C11.52 142.66 9.53668 140.814 8.07853 138.579C6.48395 135.725 5.72092 132.482 5.87603 129.218V58.739C5.83696 55.8054 6.55007 52.9107 7.94736 50.331C9.34465 47.7512 11.3795 45.5724 13.8579 44.0024L72.3224 8.46067L72.3306 8.45579C74.4212 7.19838 77.1291 5.75433 80.034 5.75433C82.9202 5.75433 85.6373 7.17741 87.7465 8.46127V8.46132Z" fill="#0078D4"/>
<path opacity="0.2" d="M139.966 132.026L80.4157 166.633L20.4767 132.027L80.0267 97.42L139.966 132.026Z" fill="#003067"/>
<path d="M140.957 120.649L80.2337 155.937L19.1227 120.654L79.8447 85.366L140.957 120.649Z" fill="#1B93EB"/>
<path d="M140.957 120.649L140.945 124.755L80.2227 160.043L80.2337 155.937L140.957 120.649Z" fill="#1F56A3"/>
<path d="M80.2337 155.937L80.2227 160.043L19.1107 124.76L19.1227 120.654L80.2337 155.937Z" fill="#0078D4"/>
<path opacity="0.3" d="M69.0666 116.54C62.6367 112.828 52.2488 112.828 45.8608 116.541C39.4729 120.253 39.5067 126.27 45.9365 129.982C48.7568 131.518 51.8738 132.431 55.0771 132.658C60.0631 133.096 65.3191 132.204 69.1423 129.982C75.5302 126.27 75.4964 120.253 69.0666 116.54Z" fill="#003067"/>
<path d="M66.5817 110.4L66.5727 113.463L59.7837 117.408L59.7927 114.345L66.5817 110.4Z" fill="#0078D4"/>
<path d="M61.7939 117.14L61.7852 120.203C61.7309 119.601 61.5168 119.025 61.165 118.533C60.8132 118.042 60.3365 117.653 59.7842 117.408L59.7929 114.345C60.3452 114.59 60.8219 114.979 61.1737 115.47C61.5255 115.962 61.7396 116.538 61.7939 117.14V117.14Z" fill="#0078D4"/>
<path d="M48.2233 120.165L48.2319 117.102C48.2873 116.508 48.4989 115.941 48.8453 115.456C49.1916 114.971 49.6603 114.587 50.2036 114.342C51.689 113.587 53.332 113.193 54.9986 113.194C56.6651 113.194 58.3079 113.589 59.7929 114.345L59.7842 117.408C58.2992 116.652 56.6564 116.257 54.9899 116.257C53.3233 116.256 51.6803 116.65 50.1949 117.405C49.6516 117.65 49.1829 118.034 48.8366 118.519C48.4902 119.004 48.2786 119.572 48.2233 120.165V120.165Z" fill="#1F56A3"/>
<path d="M71.4257 117.168L71.4171 120.231C71.4102 122.648 69.8216 125.061 66.6482 126.905L66.6569 123.842C69.8303 121.997 71.4189 119.584 71.4257 117.168Z" fill="#0078D4"/>
<path d="M66.5812 110.4C73.0109 114.112 73.0449 120.129 66.6569 123.842L59.8241 119.897C62.4603 118.365 62.4511 115.88 59.7928 114.345L66.5812 110.4Z" fill="#1490DF"/>
<path d="M66.6567 123.842L66.6487 126.905L59.8157 122.96L59.8237 119.897L66.6567 123.842Z" fill="#1490DF"/>
<path d="M38.5979 120.137L38.6066 117.074C38.5997 119.522 40.2156 121.974 43.4512 123.842C46.2714 125.378 49.3884 126.29 52.5916 126.518L52.583 129.581C49.3797 129.353 46.2627 128.441 43.4425 126.905C40.2069 125.037 38.591 122.585 38.5979 120.137Z" fill="#1F56A3"/>
<path d="M66.5812 110.4L59.7928 114.345C58.3078 113.589 56.665 113.194 54.9985 113.194C53.3319 113.193 51.6889 113.587 50.2035 114.342C47.5625 115.877 47.5765 118.365 50.2348 119.9C51.4018 120.532 52.6906 120.907 54.0145 120.999L52.5916 126.518C49.3884 126.29 46.2714 125.378 43.4511 123.842C37.0214 120.13 36.9875 114.112 43.3755 110.4C49.7634 106.688 60.1515 106.688 66.5812 110.4Z" fill="#0078D4"/>
<path d="M54.0148 120.999L54.0058 124.063L52.5828 129.581L52.5918 126.518L54.0148 120.999Z" fill="#0078D4"/>
<path d="M59.8241 119.897L66.6569 123.842C62.8337 126.064 57.5777 126.956 52.5917 126.518L54.0146 120.999C56.0175 121.215 58.0395 120.832 59.8241 119.897V119.897Z" fill="#50E6FF"/>
<path d="M66.6569 123.842L66.6482 126.905C62.825 129.127 57.5691 130.019 52.583 129.581L52.5917 126.518C57.5778 126.956 62.8337 126.064 66.6569 123.842Z" fill="#32BEDD"/>
<path d="M76.5648 76.3658C77.1545 76.7478 77.6451 77.2642 77.9964 77.8727C78.3477 78.4812 78.5496 79.1643 78.5855 79.866L78.5044 108.473C78.5008 109.764 77.5937 110.281 76.4705 109.632L67.5661 104.491C66.975 104.109 66.483 103.591 66.1302 102.982C65.7774 102.373 65.5738 101.689 65.5361 100.986L65.6172 72.3787C65.6209 71.0879 66.5371 70.5763 67.6604 71.2248L76.5648 76.3658Z" fill="#0078D4"/>
<path d="M88.6625 69.3353L79.7581 64.1944C79.5506 64.0433 79.3065 63.9503 79.0511 63.9251C78.7956 63.8998 78.5381 63.9432 78.305 64.0507L66.2073 71.0811C66.4404 70.9736 66.6979 70.9302 66.9534 70.9555C67.2088 70.9808 67.4529 71.0737 67.6604 71.2248L76.5646 76.3658C77.1543 76.7478 77.645 77.2642 77.9963 77.8727C78.3476 78.4812 78.5495 79.1643 78.5854 79.866L78.5044 108.473C78.53 108.723 78.4888 108.975 78.3851 109.204C78.2815 109.433 78.119 109.63 77.9142 109.776L90.0119 102.745C90.2167 102.6 90.3792 102.402 90.4828 102.174C90.5865 101.945 90.6277 101.693 90.6021 101.443L90.6831 72.8356C90.6472 72.1339 90.4453 71.4507 90.0941 70.8423C89.7428 70.2338 89.2522 69.7173 88.6625 69.3353V69.3353Z" fill="#1F56A3"/>
<path d="M93.5481 51.8727C94.1378 52.2547 94.6284 52.7712 94.9798 53.3797C95.3311 53.9882 95.533 54.6713 95.569 55.373L95.3908 118.222C95.3871 119.513 94.4799 120.03 93.3567 119.381L84.4523 114.24C83.8613 113.858 83.3692 113.341 83.0164 112.731C82.6636 112.122 82.46 111.438 82.4224 110.735L82.6005 47.8857C82.6042 46.5949 83.5205 46.0832 84.6437 46.7318L93.5481 51.8727Z" fill="#50E6FF"/>
<path d="M105.646 44.8423L96.7415 39.7013C96.534 39.5502 96.2899 39.4572 96.0344 39.432C95.779 39.4067 95.5214 39.4501 95.2884 39.5577L83.1907 46.5881C83.4238 46.4806 83.6813 46.4372 83.9368 46.4625C84.1922 46.4877 84.4363 46.5807 84.6438 46.7318L93.5482 51.8727C94.1379 52.2547 94.6285 52.7712 94.9798 53.3797C95.3311 53.9882 95.5331 54.6713 95.5692 55.373L95.3909 118.222C95.4164 118.472 95.3752 118.724 95.2716 118.953C95.1679 119.182 95.0054 119.379 94.8007 119.525L106.899 112.495C107.103 112.349 107.266 112.152 107.369 111.923C107.473 111.694 107.514 111.442 107.489 111.192L107.667 48.3426C107.631 47.6409 107.429 46.9578 107.078 46.3493C106.726 45.7408 106.236 45.2243 105.646 44.8423V44.8423Z" fill="#32BEDD"/>
<path d="M110.379 81.2251C110.969 81.6092 111.459 82.1276 111.811 82.7378C112.162 83.348 112.364 84.0327 112.4 84.7358L112.277 127.972C112.273 129.262 111.366 129.779 110.243 129.131L101.329 123.985C100.741 123.602 100.251 123.085 99.8995 122.477C99.5483 121.868 99.3458 121.186 99.3086 120.484L99.4312 77.2485C99.4348 75.9577 100.351 75.4356 101.465 76.0788L110.379 81.2251Z" fill="#C3F1FF"/>
<path d="M122.476 74.1946L113.563 69.0484C113.357 68.8993 113.115 68.8079 112.862 68.7837C112.61 68.7595 112.355 68.8034 112.125 68.9108L100.027 75.9412C100.257 75.8338 100.512 75.79 100.765 75.8142C101.018 75.8384 101.26 75.9297 101.465 76.0788L110.379 81.225C110.969 81.6092 111.46 82.1276 111.811 82.7378C112.162 83.348 112.364 84.0327 112.4 84.7358L112.277 127.972C112.303 128.222 112.262 128.474 112.158 128.703C112.054 128.931 111.892 129.129 111.687 129.274L123.785 122.244C123.989 122.098 124.152 121.901 124.256 121.672C124.359 121.443 124.4 121.191 124.375 120.941L124.497 77.7055C124.462 77.0023 124.26 76.3176 123.909 75.7074C123.557 75.0972 123.067 74.5788 122.476 74.1946V74.1946Z" fill="#9CEBFF"/>
<path d="M87.7009 127.416C88.2119 127.711 88.2227 128.183 87.715 128.478L73.1799 136.924C72.8958 137.068 72.5817 137.142 72.2634 137.142C71.945 137.141 71.6314 137.065 71.3479 136.92L69.0731 135.606C68.9631 135.569 68.8675 135.498 68.7996 135.404C68.7317 135.31 68.6949 135.196 68.6942 135.08C68.6936 134.964 68.7291 134.851 68.7959 134.756C68.8627 134.661 68.9575 134.589 69.0671 134.55L83.6021 126.103C83.8845 125.959 84.197 125.884 84.5141 125.884C84.8311 125.884 85.1437 125.959 85.426 126.103L87.7009 127.416Z" fill="#0078D4"/>
<path d="M68.6941 135.074C68.7041 135.189 68.7445 135.298 68.8111 135.392C68.8777 135.485 68.9681 135.559 69.0729 135.606L71.3479 136.92C71.6313 137.065 71.945 137.141 72.2633 137.142C72.5817 137.142 72.8958 137.068 73.18 136.925L87.715 128.478C87.8181 128.432 87.9072 128.359 87.9731 128.267C88.039 128.175 88.0793 128.068 88.09 127.955L88.084 130.06C88.0734 130.172 88.033 130.28 87.9671 130.372C87.9012 130.464 87.8121 130.536 87.709 130.582L73.174 139.029C72.8898 139.173 72.5757 139.247 72.2573 139.246C71.939 139.245 71.6253 139.169 71.3419 139.024L69.0671 137.711C68.9623 137.664 68.8719 137.59 68.8053 137.497C68.7387 137.403 68.6983 137.293 68.6882 137.179L68.6941 135.074Z" fill="#1F56A3"/>
<path d="M98.4379 128.758C98.9489 129.053 98.9515 129.529 98.452 129.82L79.7243 140.703C79.4401 140.846 79.1261 140.921 78.8077 140.92C78.4893 140.919 78.1757 140.843 77.8923 140.698L75.6174 139.385C75.5074 139.347 75.4118 139.277 75.3439 139.182C75.276 139.088 75.2392 138.975 75.2385 138.859C75.2379 138.743 75.2734 138.629 75.3402 138.534C75.4071 138.439 75.5018 138.367 75.6114 138.328L94.3391 127.445C94.6218 127.302 94.9342 127.227 95.251 127.227C95.5679 127.227 95.8803 127.302 96.163 127.445L98.4379 128.758Z" fill="#50E6FF"/>
<path d="M75.2385 138.853C75.2486 138.967 75.289 139.077 75.3556 139.17C75.4223 139.264 75.5127 139.338 75.6175 139.385L77.8923 140.698C78.1757 140.843 78.4894 140.919 78.8077 140.92C79.1261 140.921 79.4401 140.846 79.7243 140.703L98.452 129.819C98.5547 129.773 98.6433 129.7 98.7086 129.608C98.7739 129.517 98.8137 129.409 98.8239 129.297L98.8179 131.401C98.8078 131.514 98.768 131.621 98.7026 131.713C98.6373 131.805 98.5488 131.878 98.446 131.924L79.7183 142.808C79.4341 142.951 79.1201 143.026 78.8017 143.025C78.4834 143.024 78.1697 142.948 77.8863 142.803L75.6115 141.489C75.5066 141.443 75.4162 141.369 75.3496 141.275C75.283 141.182 75.2426 141.072 75.2327 140.958L75.2385 138.853Z" fill="#32BEDD"/>
<path d="M94.6891 138.528C94.799 138.566 94.8946 138.636 94.9625 138.731C95.0304 138.825 95.0672 138.938 95.0678 139.054C95.0685 139.17 95.0329 139.284 94.9661 139.379C94.8993 139.474 94.8045 139.546 94.6949 139.585L86.2687 144.481C85.986 144.624 85.6736 144.699 85.3568 144.699C85.04 144.699 84.7276 144.625 84.4449 144.481L82.17 143.168C81.659 142.873 81.6563 142.397 82.1558 142.107L90.582 137.21C90.8662 137.066 91.1803 136.992 91.4987 136.993C91.8171 136.994 92.1308 137.07 92.4142 137.215L94.6891 138.528Z" fill="#C3F1FF"/>
<path d="M81.784 142.63C81.7946 142.746 81.8359 142.857 81.9038 142.951C81.9717 143.046 82.0636 143.121 82.1701 143.168L84.445 144.481C84.7277 144.625 85.0401 144.699 85.3569 144.699C85.6737 144.699 85.9861 144.624 86.2688 144.481L94.695 139.585C94.798 139.538 94.8868 139.465 94.9523 139.373C95.0179 139.28 95.0578 139.173 95.068 139.06L95.062 141.165C95.0518 141.277 95.0118 141.385 94.9463 141.477C94.8808 141.569 94.792 141.643 94.689 141.689L86.2627 146.586C85.9801 146.729 85.6677 146.804 85.3509 146.804C85.034 146.804 84.7217 146.729 84.439 146.586L82.164 145.273C82.0576 145.225 81.9657 145.151 81.8978 145.056C81.8299 144.961 81.7886 144.85 81.778 144.734L81.784 142.63Z" fill="#9CEBFF"/>
<path d="M25.9247 61.139L25.3817 61.452L25.4947 101.588L26.0387 101.274L25.9247 61.139Z" fill="white"/>
<path d="M30.7411 77.9414C30.5072 78.093 30.3125 78.2978 30.1732 78.5392C30.0338 78.7806 29.9537 79.0517 29.9395 79.33L29.9529 84.068C29.9543 84.576 30.3105 84.7874 30.7598 84.528L62.381 66.748C62.6143 66.5957 62.8084 66.3907 62.9476 66.1494C63.0869 65.9082 63.1674 65.6376 63.1827 65.3594L63.1693 60.6214C63.1678 60.1135 62.8044 59.9063 62.3624 60.1615L30.7411 77.9414Z" fill="#50E6FF"/>
<path d="M30.7117 67.5411C30.4778 67.6926 30.2831 67.8975 30.1437 68.1389C30.0044 68.3803 29.9243 68.6513 29.91 68.9297L29.9235 73.6677C29.9249 74.1757 30.2811 74.387 30.7304 74.1276L57.134 59.3601C57.3672 59.2078 57.5613 59.0027 57.7006 58.7615C57.8399 58.5202 57.9205 58.2496 57.9358 57.9714L57.9223 53.2334C57.9209 52.7255 57.5574 52.5183 57.1153 52.7736L30.7117 67.5411Z" fill="#C3F1FF"/>
<path d="M30.7707 88.3417C30.5367 88.4933 30.3421 88.6982 30.2027 88.9396C30.0633 89.181 29.9832 89.452 29.969 89.7304L29.9824 94.4684C29.9839 94.9763 30.3401 95.1877 30.7893 94.9283L50.4681 84.0433C50.7014 83.891 50.8955 83.6859 51.0348 83.4446C51.1741 83.2034 51.2546 82.9328 51.2699 82.6546L51.2565 77.9166C51.255 77.4087 50.8915 77.2015 50.4495 77.4567L30.7707 88.3417Z" fill="#0078D4"/>
<path d="M25.7066 59.9476C25.4056 60.1434 25.1552 60.4076 24.9756 60.7185C24.7961 61.0295 24.6926 61.3785 24.6735 61.737C24.6753 62.3939 25.1417 62.6596 25.7133 62.3295C26.0143 62.1337 26.2647 61.8696 26.4442 61.5586C26.6237 61.2477 26.7272 60.8987 26.7463 60.5402C26.7445 59.8833 26.2782 59.6176 25.7066 59.9476Z" fill="white"/>
<path d="M25.7066 100.083C25.4056 100.279 25.1552 100.543 24.9756 100.854C24.7961 101.165 24.6926 101.514 24.6735 101.873C24.6753 102.53 25.1417 102.795 25.7133 102.465C26.0143 102.269 26.2647 102.005 26.4442 101.694C26.6237 101.383 26.7272 101.034 26.7463 100.676C26.7445 100.019 26.2782 99.7533 25.7066 100.083Z" fill="white"/>
</g>
<defs>
<linearGradient id="paint0_linear" x1="80.0342" y1="8.27838" x2="80.0342" y2="179.694" gradientUnits="userSpaceOnUse">
<stop stop-color="#00ABDE"/>
<stop offset="1" stop-color="#007ED8"/>
</linearGradient>
<clipPath id="clip0">
<rect width="159.356" height="188" fill="white" transform="translate(0.355713)"/>
</clipPath>
</defs>
</svg>
