<svg width="100" height="100" viewBox="0 0 100 100" fill="none" xmlns="http://www.w3.org/2000/svg">
<g clip-path="url(#clip0)">
<path d="M49.1926 96.4482C39.9344 96.4482 30.8842 93.7028 23.1863 88.5592C15.4885 83.4157 9.48873 76.105 5.94579 67.5516C2.40285 58.9981 1.47586 49.5862 3.28203 40.506C5.0882 31.4257 9.54643 23.085 16.0929 16.5385C22.6394 9.99198 30.9802 5.53376 40.0604 3.72759C49.1407 1.92141 58.5526 2.84841 67.106 6.39135C75.6594 9.93428 82.9701 15.934 88.1137 23.6319C93.2572 31.3298 96.0026 40.38 96.0026 49.6381C96.003 55.7854 94.7925 61.8726 92.4403 67.5521C90.088 73.2315 86.64 78.392 82.2932 82.7388C77.9464 87.0856 72.7859 90.5335 67.1065 92.8858C61.4271 95.2381 55.3399 96.4486 49.1926 96.4482V96.4482Z" fill="url(#paint0_linear)"/>
<path fill-rule="evenodd" clip-rule="evenodd" d="M95.5402 49.7103C95.5402 58.7885 92.8483 67.6628 87.8047 75.211C82.7611 82.7592 75.5925 88.6423 67.2054 92.1164C58.8183 95.5904 49.5893 96.4994 40.6856 94.7284C31.7819 92.9573 23.6033 88.5857 17.184 82.1665C10.7648 75.7473 6.39326 67.5687 4.6222 58.665C2.85114 49.7612 3.76011 40.5323 7.23417 32.1451C10.7082 23.758 16.5914 16.5894 24.1396 11.5459C31.6878 6.5023 40.5621 3.81031 49.6402 3.81031C55.6679 3.81029 61.6366 4.99751 67.2054 7.3042C72.7743 9.61088 77.8343 12.9918 82.0965 17.2541C86.3587 21.5163 89.7397 26.5763 92.0464 32.1451C94.353 37.714 95.5403 43.6826 95.5402 49.7103V49.7103ZM49.6402 0.0703129C59.4581 0.0703129 69.0555 2.98165 77.2188 8.43616C85.382 13.8907 91.7445 21.6434 95.5016 30.7139C99.2588 39.7844 100.242 49.7654 98.3264 59.3946C96.4111 69.0238 91.6833 77.8688 84.741 84.8111C77.7987 91.7534 68.9537 96.4811 59.3245 98.3965C49.6953 100.312 39.7144 99.3288 30.6438 95.5717C21.5733 91.8146 13.8206 85.4521 8.36609 77.2888C2.91158 69.1256 0.000244503 59.5282 0.000244503 49.7103C-0.000543598 43.1913 1.2829 36.7359 3.77726 30.713C6.27162 24.69 9.92805 19.2174 14.5377 14.6078C19.1474 9.99812 24.62 6.34169 30.6429 3.84733C36.6659 1.35296 43.1212 0.0695248 49.6402 0.0703129V0.0703129Z" fill="#F2F1F0"/>
<path fill-rule="evenodd" clip-rule="evenodd" d="M92.2821 49.6386C92.2821 58.161 89.7549 66.492 85.0201 73.5781C80.2853 80.6643 73.5556 86.1872 65.6819 89.4486C57.8082 92.71 49.1443 93.5633 40.7856 91.9007C32.427 90.238 24.7491 86.1341 18.7228 80.1079C12.6966 74.0816 8.59266 66.4037 6.93002 58.0451C5.26739 49.6864 6.12071 41.0225 9.38209 33.1488C12.6435 25.2751 18.1664 18.5454 25.2525 13.8106C32.3387 9.07581 40.6697 6.54862 49.1921 6.54862C54.8508 6.54828 60.4542 7.6626 65.6823 9.82795C70.9104 11.9933 75.6607 15.1673 79.6621 19.1686C83.6634 23.17 86.8374 27.9203 89.0027 33.1484C91.1681 38.3765 92.2824 43.9799 92.2821 49.6386V49.6386ZM49.1921 2.80862C58.4542 2.80862 67.5083 5.55516 75.2094 10.7009C82.9106 15.8466 88.9129 23.1605 92.4573 31.7176C96.0018 40.2746 96.9292 49.6906 95.1222 58.7747C93.3153 67.8588 88.8552 76.2031 82.3059 82.7524C75.7566 89.3017 67.4123 93.7619 58.3281 95.5688C49.244 97.3757 39.8281 96.4484 31.271 92.9039C22.7139 89.3595 15.4001 83.3571 10.2543 75.656C5.10859 67.9548 2.36206 58.9007 2.36206 49.6386C2.36325 37.2189 7.29749 25.3082 16.0796 16.5261C24.8616 7.74404 36.7723 2.80979 49.1921 2.80859V2.80862Z" fill="#0078D4"/>
<path d="M18.8271 67.6665V66.1328L80.1625 66.1329V67.6665C80.1625 68.0225 80.0671 68.372 79.8861 68.6786C79.7051 68.9851 79.4452 69.2375 79.1335 69.4095L49.4948 85.7599L19.8562 69.4095C19.5445 69.2375 19.2846 68.9851 19.1036 68.6786C18.9226 68.372 18.8271 68.0225 18.8271 67.6665V67.6665Z" fill="#0078D4"/>
<path d="M18.8271 67.6665V66.1328H49.4241L49.4948 85.7599L19.8562 69.4095C19.5445 69.2375 19.2846 68.9851 19.1036 68.6786C18.9226 68.372 18.8271 68.0225 18.8271 67.6665V67.6665Z" fill="#1F56A3"/>
<path d="M18.8274 66.1281L49.4951 47.7188L80.1627 66.1281L49.4951 83.0463L18.8274 66.1281Z" fill="#9CEBFF"/>
<path d="M46.674 49.4141L39.0865 77.2038L36.2446 75.6737L43.1232 51.5482L46.674 49.4141Z" fill="#C3F1FF"/>
<path d="M59.1531 53.5066L46.0568 81.1612L43.2153 79.5881L56.547 51.9531L59.1531 53.5066Z" fill="#C3F1FF"/>
<path d="M58.0601 78.3291L48.814 72.6158L50.5555 70.2148L61.1887 76.5871L58.0601 78.3291Z" fill="#C3F1FF"/>
<path d="M40.1641 67.9002L28.1658 60.5279L31.0427 58.7969L41.9599 65.4582L40.1641 67.9002Z" fill="#C3F1FF"/>
<path d="M71.2491 71.0518L67.8851 72.9213C66.6763 72.0557 65.695 70.9102 65.0253 69.5828C64.3555 68.2554 64.0173 66.7855 64.0393 65.2988C64.0393 62.5747 65.3437 60.641 67.8633 58.7383L70.8549 60.5478C69.1441 61.8398 67.5999 63.7173 67.5999 65.2988C67.5999 67.1834 69.3938 69.6178 71.2491 71.0518Z" fill="#C3F1FF"/>
<path opacity="0.2" d="M49.4946 71.108C56.1805 71.108 61.6004 68.3197 61.6004 64.8802C61.6004 61.4406 56.1805 58.6523 49.4946 58.6523C42.8088 58.6523 37.3889 61.4406 37.3889 64.8802C37.3889 68.3197 42.8088 71.108 49.4946 71.108Z" fill="#003067"/>
<path d="M49.4952 18.0391C46.8037 18.0391 44.1585 18.7388 41.8191 20.0697C39.4796 21.4005 37.5264 23.3167 36.1511 25.6303C34.7757 27.9438 34.0255 30.5752 33.974 33.2661C33.9226 35.9571 34.5716 38.6153 35.8574 40.9797L48.5493 64.3172C48.6418 64.4873 48.7785 64.6294 48.945 64.7283C49.1115 64.8273 49.3016 64.8795 49.4952 64.8795C49.6889 64.8795 49.879 64.8273 50.0455 64.7283C50.2119 64.6294 50.3487 64.4873 50.4412 64.3172L63.1329 40.9797C64.4188 38.6153 65.0678 35.9571 65.0163 33.2661C64.9649 30.5752 64.2146 27.9438 62.8393 25.6303C61.4639 23.3167 59.5107 21.4005 57.1713 20.0697C54.8319 18.7388 52.1866 18.0391 49.4952 18.0391ZM49.4952 40.1093C48.1862 40.1093 46.9067 39.7211 45.8183 38.9939C44.7299 38.2667 43.8816 37.2331 43.3807 36.0238C42.8798 34.8145 42.7487 33.4838 43.0041 32.2C43.2594 30.9162 43.8897 29.7369 44.8153 28.8113C45.7409 27.8857 46.9201 27.2554 48.2039 27C49.4877 26.7447 50.8184 26.8757 52.0277 27.3766C53.2371 27.8775 54.2707 28.7258 54.9979 29.8141C55.7251 30.9025 56.1133 32.182 56.1133 33.491C56.1133 34.3601 55.9422 35.2207 55.6096 36.0237C55.277 36.8266 54.7895 37.5562 54.175 38.1708C53.5604 38.7854 52.8308 39.2729 52.0279 39.6055C51.2249 39.9381 50.3643 40.1093 49.4952 40.1093Z" fill="white"/>
<path d="M58.7493 26.3339C58.2788 26.3339 57.8192 26.3167 57.3741 26.2827C56.9634 26.251 56.5552 26.1927 56.1521 26.1082C55.7789 26.0297 55.4133 25.9185 55.0597 25.7759C54.7121 25.6343 54.3799 25.4578 54.0679 25.2492C53.512 24.869 52.9045 24.5704 52.2639 24.3626C51.6673 24.1742 51.0526 24.0492 50.4299 23.9895C50.3682 23.9836 50.3075 23.9805 50.2468 23.9805H49.0328C48.9721 23.9805 48.9113 23.9836 48.8497 23.9895C48.2266 24.0492 47.6116 24.1744 47.0148 24.363C46.3842 24.5667 45.7854 24.8584 45.2362 25.2292C44.9137 25.4454 44.5709 25.6296 44.2127 25.7791C43.8635 25.921 43.5021 26.0307 43.1329 26.1068C42.7252 26.1916 42.3125 26.2503 41.8973 26.2827C41.4504 26.3167 40.9947 26.3337 40.5302 26.3339C40.0378 26.3339 39.5656 26.5295 39.2174 26.8777C38.8692 27.2259 38.6736 27.6981 38.6736 28.1905L38.6745 33.1068C38.6817 33.3289 38.6926 33.551 38.7053 33.764C38.7198 34.0075 38.7425 34.2509 38.7733 34.4943C38.805 34.7481 38.9827 35.6923 39.0453 35.9384C39.353 37.1432 39.8359 38.2962 40.4786 39.3607C41.0973 40.3839 41.823 41.3384 42.6434 42.2082C43.4545 43.0668 44.3387 43.8534 45.2861 44.5589C46.188 45.2317 47.1271 45.8531 48.0991 46.42C48.3825 46.5853 48.7047 46.6722 49.0328 46.672H50.2467C50.5748 46.6722 50.897 46.5853 51.1805 46.42C52.1525 45.8531 53.0917 45.2315 53.9935 44.5584C54.9408 43.8532 55.825 43.067 56.6361 42.2086C57.4565 41.3386 58.1821 40.3839 58.8009 39.3607C59.4437 38.2962 59.9266 37.1432 60.2342 35.9384C60.2977 35.6923 60.4618 34.7839 60.498 34.5509C60.5388 34.2912 60.5672 34.0318 60.5832 33.7727C60.5987 33.5315 60.6062 33.2902 60.6059 33.0488V28.1906C60.6059 27.6982 60.4103 27.2259 60.0621 26.8777C59.7139 26.5296 59.2417 26.3339 58.7493 26.3339V26.3339Z" fill="white"/>
<path d="M50.247 25.8359C50.7399 25.8826 51.2266 25.9812 51.6988 26.1301C52.1707 26.2836 52.6181 26.5041 53.0273 26.7848C53.4477 27.0673 53.896 27.3058 54.3652 27.4965C54.8199 27.6797 55.2898 27.8226 55.7696 27.9235C56.2516 28.0249 56.7397 28.0946 57.2309 28.1323C57.7243 28.1702 58.2304 28.1892 58.7491 28.1892V33.0476C58.7491 33.25 58.7428 33.4524 58.7301 33.6548C58.7174 33.8573 58.6953 34.0597 58.6637 34.2621H50.247V25.8359ZM40.5303 28.1892C41.0427 28.1892 41.5456 28.1702 42.039 28.1323C42.5332 28.0942 43.0245 28.0245 43.5098 27.9235C43.99 27.8244 44.4601 27.6815 44.9142 27.4965C45.3859 27.301 45.8373 27.0594 46.2616 26.7753C46.6685 26.4989 47.1126 26.2817 47.5806 26.1301C48.0529 25.9812 48.5395 25.8826 49.0324 25.8359V34.2621H40.6157C40.5904 34.0597 40.5714 33.8573 40.5587 33.6548C40.5461 33.4524 40.5366 33.25 40.5303 33.0476V28.1892ZM49.0324 44.8139C48.1208 44.2822 47.2401 43.6992 46.3945 43.0679C45.5334 42.4277 44.7301 41.7133 43.9938 40.9329C43.2634 40.1593 42.6176 39.31 42.0675 38.3993C41.518 37.4906 41.1056 36.5058 40.8434 35.4767H49.0324L49.0324 44.8139ZM50.247 35.4767H58.436C58.1738 36.5058 57.7613 37.4906 57.2119 38.3993C56.6618 39.31 56.016 40.1593 55.2856 40.9329C54.5493 41.7133 53.746 42.4277 52.8849 43.0679C52.0393 43.6992 51.1586 44.2822 50.247 44.8139L50.247 35.4767Z" fill="#0078D4"/>
</g>
<defs>
<linearGradient id="paint0_linear" x1="47.4222" y1="-15.1549" x2="51.405" y2="130.613" gradientUnits="userSpaceOnUse">
<stop stop-color="#00ABDE"/>
<stop offset="1" stop-color="#007ED8"/>
</linearGradient>
<clipPath id="clip0">
<rect width="99.2799" height="99.28" fill="white"/>
</clipPath>
</defs>
</svg>
