<svg width="100" height="100" viewBox="0 0 100 100" fill="none" xmlns="http://www.w3.org/2000/svg">
<g clip-path="url(#clip0)">
<path d="M49.6401 96.4481C40.382 96.4481 31.3317 93.7028 23.6339 88.5592C15.936 83.4157 9.93624 76.105 6.3933 67.5516C2.85036 58.9981 1.92337 49.5862 3.72954 40.506C5.53571 31.4257 9.99394 23.085 16.5404 16.5385C23.0869 9.99198 31.4277 5.53376 40.5079 3.72759C49.5882 1.92141 59.0001 2.84841 67.5535 6.39135C76.1069 9.93428 83.4176 15.934 88.5612 23.6319C93.7047 31.3298 96.4501 40.38 96.4501 49.6381C96.4505 55.7854 95.24 61.8726 92.8878 67.5521C90.5355 73.2315 87.0875 78.392 82.7407 82.7388C78.3939 87.0856 73.2335 90.5335 67.554 92.8858C61.8746 95.2381 55.7874 96.4486 49.6401 96.4481V96.4481Z" fill="url(#paint0_linear)"/>
<path fill-rule="evenodd" clip-rule="evenodd" d="M95.54 49.64C95.54 58.7182 92.848 67.5925 87.8045 75.1407C82.7609 82.6889 75.5923 88.572 67.2052 92.0461C58.818 95.5201 49.5891 96.4291 40.6854 94.658C31.7816 92.887 23.603 88.5154 17.1838 82.0962C10.7646 75.677 6.39302 67.4984 4.62196 58.5946C2.85089 49.6909 3.75987 40.462 7.23393 32.0748C10.708 23.6877 16.5911 16.5191 24.1393 11.4755C31.6875 6.43199 40.5618 3.74 49.64 3.74C55.6677 3.73998 61.6363 4.9272 67.2052 7.23388C72.774 9.54057 77.834 12.9215 82.0963 17.1837C86.3585 21.446 89.7394 26.5059 92.0461 32.0748C94.3528 37.6437 95.54 43.6123 95.54 49.64V49.64ZM49.64 3.62732e-07C59.4579 3.62732e-07 69.0553 2.91134 77.2185 8.36585C85.3818 13.8204 91.7442 21.5731 95.5014 30.6436C99.2585 39.7141 100.242 49.6951 98.3262 59.3243C96.4108 68.9535 91.6831 77.7985 84.7408 84.7408C77.7985 91.6831 68.9535 96.4108 59.3243 98.3262C49.6951 100.242 39.7141 99.2585 30.6436 95.5014C21.5731 91.7442 13.8204 85.3818 8.36585 77.2185C2.91134 69.0553 3.62732e-07 59.4579 3.62732e-07 49.64C-0.000787738 43.121 1.28265 36.6656 3.77702 30.6427C6.27138 24.6197 9.9278 19.1471 14.5375 14.5375C19.1471 9.9278 24.6197 6.27138 30.6427 3.77702C36.6656 1.28265 43.121 -0.000787738 49.64 3.62732e-07V3.62732e-07Z" fill="#F2F1F0"/>
<path fill-rule="evenodd" clip-rule="evenodd" d="M92.7296 49.6386C92.7296 58.161 90.2024 66.492 85.4676 73.5781C80.7328 80.6643 74.0031 86.1872 66.1294 89.4486C58.2557 92.71 49.5918 93.5633 41.2331 91.9007C32.8745 90.238 25.1966 86.1341 19.1703 80.1079C13.1441 74.0816 9.04017 66.4037 7.37753 58.0451C5.7149 49.6864 6.56822 41.0225 9.8296 33.1488C13.091 25.2751 18.6139 18.5454 25.7 13.8106C32.7862 9.07581 41.1172 6.54862 49.6396 6.54862C55.2983 6.54828 60.9017 7.6626 66.1298 9.82795C71.3579 11.9933 76.1082 15.1673 80.1096 19.1686C84.1109 23.17 87.2849 27.9203 89.4502 33.1484C91.6156 38.3765 92.7299 43.9799 92.7296 49.6386V49.6386ZM49.6396 2.80862C58.9017 2.80862 67.9558 5.55515 75.6569 10.7009C83.3581 15.8466 89.3604 23.1605 92.9049 31.7176C96.4493 40.2746 97.3767 49.6906 95.5697 58.7747C93.7628 67.8588 89.3027 76.2031 82.7534 82.7524C76.2041 89.3017 67.8598 93.7619 58.7757 95.5688C49.6915 97.3757 40.2756 96.4484 31.7185 92.9039C23.1614 89.3594 15.8476 83.3571 10.7018 75.656C5.5561 67.9548 2.80957 58.9007 2.80957 49.6386C2.81076 37.2189 7.745 25.3082 16.5271 16.5261C25.3091 7.74403 37.2198 2.80979 49.6396 2.80859V2.80862Z" fill="#0078D4"/>
<path fill-rule="evenodd" clip-rule="evenodd" d="M92.7296 49.6386C92.7296 58.161 90.2024 66.492 85.4676 73.5781C80.7328 80.6642 74.0031 86.1872 66.1294 89.4486C58.2557 92.7099 49.5918 93.5633 41.2331 91.9006C32.8745 90.238 25.1966 86.1341 19.1703 80.1078C13.1441 74.0816 9.04017 66.4037 7.37753 58.045C5.7149 49.6864 6.56822 41.0224 9.8296 33.1488C13.091 25.2751 18.6139 18.5454 25.7001 13.8106C32.7862 9.07578 41.1172 6.54859 49.6396 6.54859C55.2983 6.54825 60.9017 7.66257 66.1298 9.82792C71.3579 11.9933 76.1082 15.1673 80.1096 19.1686C84.1109 23.1699 87.2849 27.9203 89.4502 33.1484C91.6156 38.3764 92.7299 43.9798 92.7296 49.6386V49.6386ZM49.6396 2.80859C58.9017 2.80859 67.9558 5.55513 75.6569 10.7009C83.3581 15.8466 89.3604 23.1605 92.9048 31.7175C96.4493 40.2746 97.3767 49.6905 95.5697 58.7747C93.7628 67.8588 89.3027 76.2031 82.7534 82.7524C76.2041 89.3017 67.8598 93.7618 58.7757 95.5688C49.6915 97.3757 40.2756 96.4483 31.7185 92.9039C23.1614 89.3594 15.8476 83.3571 10.7018 75.656C5.5561 67.9548 2.80957 58.9007 2.80957 49.6386C2.81076 37.2189 7.74501 25.3082 16.5271 16.5261C25.3091 7.74403 37.2198 2.80979 49.6396 2.80859V2.80859Z" fill="#0078D4"/>
<path d="M64.2731 20.1124C63.5173 20.1124 62.779 20.0847 62.064 20.0301C61.4043 19.9792 60.7486 19.8856 60.101 19.7498C59.5015 19.6238 58.9144 19.4452 58.3462 19.2161C57.788 18.9886 57.2543 18.7051 56.7531 18.37C55.8602 17.7593 54.8843 17.2797 53.8552 16.9458C52.897 16.6433 51.9095 16.4424 50.9092 16.3466C50.8102 16.3371 50.7126 16.332 50.6151 16.332H48.6653C48.5677 16.332 48.4701 16.3371 48.3711 16.3466C47.3703 16.4425 46.3823 16.6436 45.4237 16.9466C44.4106 17.2738 43.4488 17.7422 42.5666 18.338C42.0486 18.6853 41.498 18.9811 40.9225 19.2212C40.3616 19.4492 39.7811 19.6254 39.1881 19.7477C38.5332 19.8838 37.8702 19.9782 37.2033 20.0302C36.4853 20.0848 35.7533 20.1122 35.0073 20.1125C34.2163 20.1125 33.4578 20.4267 32.8985 20.986C32.3392 21.5453 32.0249 22.3038 32.0249 23.0948L32.0264 30.9919C32.038 31.3487 32.0555 31.7055 32.0759 32.0477C32.0992 32.4387 32.1356 32.8297 32.1851 33.2207C32.2361 33.6284 32.5215 35.1451 32.622 35.5405C33.1161 37.4757 33.8919 39.3279 34.9243 41.0377C35.9181 42.6813 37.0838 44.2146 38.4017 45.6117C39.7046 46.991 41.1249 48.2545 42.6466 49.3877C44.0954 50.4685 45.6041 51.4666 47.1653 52.3774C47.6206 52.6428 48.1382 52.7825 48.6652 52.7822H50.6151C51.1421 52.7825 51.6597 52.6428 52.115 52.3774C53.6765 51.4666 55.1851 50.4682 56.6337 49.387C58.1554 48.2542 59.5757 46.9913 60.8787 45.6124C62.1964 44.2148 63.3621 42.6813 64.3561 41.0377C65.3885 39.3278 66.1642 37.4757 66.6584 35.5404C66.7604 35.145 67.0239 33.6859 67.0822 33.3117C67.1477 32.8944 67.1933 32.4777 67.2191 32.0615C67.2438 31.6741 67.256 31.2865 67.2555 30.8987V23.0947C67.2554 22.3038 66.9412 21.5452 66.3819 20.9859C65.8226 20.4267 65.0641 20.1124 64.2731 20.1124V20.1124Z" fill="white"/>
<path d="M50.6156 19.3125C51.4074 19.3874 52.1891 19.5458 52.9476 19.785C53.7056 20.0317 54.4243 20.3858 55.0816 20.8367C55.7569 21.2905 56.4771 21.6735 57.2308 21.9799C57.9612 22.2742 58.716 22.5037 59.4866 22.6658C60.2609 22.8287 61.045 22.9407 61.834 23.0012C62.6266 23.0621 63.4395 23.0926 64.2727 23.0926V30.8967C64.2727 31.2219 64.2626 31.5471 64.2423 31.8722C64.2219 32.1974 64.1864 32.5226 64.1356 32.8477H50.6156L50.6156 19.3125ZM35.0073 23.0926C35.8304 23.0926 36.6383 23.0621 37.4309 23.0012C38.2248 22.94 39.0139 22.828 39.7934 22.6658C40.5648 22.5066 41.3199 22.277 42.0493 21.9799C42.8071 21.6659 43.5321 21.2778 44.2137 20.8215C44.8674 20.3775 45.5807 20.0285 46.3324 19.785C47.091 19.5458 47.8727 19.3874 48.6645 19.3125V32.8477H35.1445C35.1039 32.5226 35.0734 32.1974 35.0531 31.8722C35.0328 31.5471 35.0175 31.2219 35.0073 30.8967L35.0073 23.0926ZM48.6645 49.7973C47.2002 48.9432 45.7855 48.0069 44.4271 46.9927C43.0441 45.9643 41.7537 44.8167 40.5708 43.5632C39.3976 42.3206 38.3603 40.9563 37.4766 39.4935C36.594 38.0337 35.9315 36.4518 35.5103 34.7988H48.6645V49.7973ZM50.6155 34.7988H63.7697C63.3486 36.4518 62.6861 38.0337 61.8035 39.4934C60.9198 40.9562 59.8825 42.3205 58.7093 43.5632C57.5264 44.8167 56.236 45.9643 54.8529 46.9927C53.4946 48.0069 52.0798 48.9432 50.6156 49.7973L50.6155 34.7988Z" fill="#0078D4"/>
<path d="M15.5449 57.0781H83.7353" stroke="white" stroke-miterlimit="10"/>
<path d="M24.2639 74.5015L33.2889 65.4766" stroke="white" stroke-width="1.25" stroke-linecap="round" stroke-linejoin="round"/>
<path d="M33.9751 72.0205L32.7251 71.9765L32.9511 65.8175L26.7911 66.0425L26.7461 64.7915L34.2481 64.5195L33.9751 72.0205Z" fill="white"/>
<path d="M75.0161 74.5015L65.9912 65.4766" stroke="white" stroke-width="1.25" stroke-linecap="round" stroke-linejoin="round"/>
<path d="M72.5349 64.7935L72.4899 66.0435L66.3309 65.8175L66.5559 71.9775L65.3059 72.0225L65.0339 64.5195L72.5349 64.7935Z" fill="white"/>
<path d="M39.4066 76.8301L48.1876 61.84C48.336 61.5867 48.548 61.3766 48.8028 61.2306C49.0575 61.0846 49.3459 61.0078 49.6395 61.0078C49.9331 61.0078 50.2216 61.0846 50.4763 61.2306C50.731 61.3766 50.9431 61.5867 51.0915 61.84L59.8725 76.8301C60.0222 77.0857 60.1018 77.3764 60.1032 77.6727C60.1046 77.9689 60.0278 78.2603 59.8805 78.5174C59.7331 78.7744 59.5205 78.988 59.2642 79.1366C59.0078 79.2851 58.7168 79.3633 58.4205 79.3633H40.8585C40.5622 79.3633 40.2712 79.2851 40.0149 79.1366C39.7585 78.988 39.5459 78.7744 39.3986 78.5174C39.2513 78.2603 39.1744 77.9689 39.1758 77.6726C39.1772 77.3764 39.2568 77.0857 39.4066 76.8301Z" fill="#FF9300"/>
<path d="M40.8587 78.2409C40.7599 78.2409 40.6629 78.2149 40.5775 78.1654C40.492 78.116 40.4211 78.0448 40.372 77.9591C40.3228 77.8735 40.2972 77.7764 40.2976 77.6776C40.2981 77.5789 40.3246 77.482 40.3745 77.3968L49.1551 62.4063C49.2047 62.3219 49.2754 62.2518 49.3604 62.2031C49.4453 62.1545 49.5415 62.1289 49.6394 62.1289C49.7374 62.1289 49.8336 62.1546 49.9185 62.2033C50.0034 62.252 50.0741 62.3221 50.1236 62.4066L58.9043 77.3965C58.9542 77.4817 58.9807 77.5785 58.9812 77.6772C58.9817 77.776 58.9561 77.8731 58.907 77.9588C58.8579 78.0444 58.7871 78.1156 58.7017 78.1652C58.6163 78.2147 58.5193 78.2408 58.4206 78.2409H40.8587Z" fill="#FFCA00"/>
<path d="M49.6394 67.3633V72.7366" stroke="#FF9300" stroke-width="1.12182" stroke-miterlimit="10" stroke-linecap="round"/>
<path d="M49.6393 76.136C50.0501 76.136 50.383 75.803 50.383 75.3922C50.383 74.9814 50.0501 74.6484 49.6393 74.6484C49.2285 74.6484 48.8955 74.9814 48.8955 75.3922C48.8955 75.803 49.2285 76.136 49.6393 76.136Z" fill="#FF9300"/>
</g>
<defs>
<linearGradient id="paint0_linear" x1="47.8698" y1="-15.155" x2="51.8525" y2="130.613" gradientUnits="userSpaceOnUse">
<stop stop-color="#00ABDE"/>
<stop offset="1" stop-color="#007ED8"/>
</linearGradient>
<clipPath id="clip0">
<rect width="99.2799" height="99.28" fill="white"/>
</clipPath>
</defs>
</svg>
