<svg width="160" height="189" viewBox="0 0 160 189" fill="none" xmlns="http://www.w3.org/2000/svg">
<g clip-path="url(#clip0_422_1181)">
<path d="M79.6779 188.998C82.7592 188.992 85.7796 188.139 88.4083 186.532L150.384 148.872C153.165 147.108 155.449 144.663 157.019 141.769C158.589 138.874 159.394 135.626 159.356 132.334V57.6188C159.392 54.3264 158.587 51.0792 157.017 48.1851C155.447 45.291 153.163 42.8457 150.384 41.081L88.4083 3.42085C85.7749 1.83565 82.7592 0.998047 79.6855 0.998047C76.6118 0.998047 73.5961 1.83565 70.9627 3.42085L8.9876 41.096C6.2045 42.8584 3.91796 45.3028 2.34499 48.1972C0.772021 51.0915 -0.0351786 54.3399 4.1431e-06 57.6339V132.334C-0.0185283 135.117 0.556189 137.872 1.68588 140.416C2.81557 142.96 4.4743 145.234 6.5516 147.087V147.113L70.9627 186.547C73.5884 188.147 76.6032 188.994 79.6779 188.998V188.998ZM80.3257 7.95023C82.2776 7.95023 84.7548 9.16315 86.4646 10.2072L147.222 47.4015C150.974 49.6862 153.09 56.2823 153.09 61.0333L152.458 132.334C152.458 137.085 149.259 141.353 145.506 143.638L85.1104 180.019C81.6758 182.107 78.8854 182.107 75.4507 180.019L14.2427 143.547C10.4903 141.263 7.47191 137.07 7.47191 132.334V58.686C7.50442 56.3209 8.11341 53.9993 9.24608 51.9228C10.3787 49.8462 12.0009 48.0773 13.9718 46.7694L74.548 10.2072C76.2577 9.16315 78.3739 7.95023 80.3257 7.95023Z" fill="#F2F1F0"/>
<path fill-rule="evenodd" clip-rule="evenodd" d="M87.5765 11.5309C85.2056 10.0573 82.4697 9.27643 79.6783 9.27643C76.8868 9.27643 74.1509 10.0573 71.7801 11.5309L15.6454 45.8623C13.1193 47.4739 11.047 49.7043 9.625 52.3418C8.203 54.9792 7.47851 57.9363 7.52026 60.9324V129.036C7.48034 132.031 8.20562 134.988 9.62745 137.625C11.0493 140.262 13.1206 142.493 15.6454 144.106L71.7801 178.437C74.1508 179.91 76.8867 180.692 79.6783 180.692C82.4698 180.692 85.2057 179.91 87.5765 178.437L143.711 144.106C146.236 142.493 148.307 140.262 149.729 137.625C151.151 134.988 151.877 132.031 151.837 129.036V60.9324C151.875 57.9368 151.149 54.981 149.727 52.3442C148.305 49.7073 146.234 47.4764 143.711 45.8623L87.5765 11.5309Z" fill="url(#paint0_linear_422_1181)"/>
<path fill-rule="evenodd" clip-rule="evenodd" d="M79.6783 10.7524C81.3615 10.7524 83.2442 11.6181 85.311 12.8762L143.777 48.4186C145.668 49.632 147.218 51.3089 148.278 53.2899C149.339 55.2709 149.875 57.4903 149.837 59.7371V130.216C149.875 132.462 149.339 134.682 148.278 136.663C147.218 138.643 145.668 140.32 143.777 141.534L85.312 177.076L85.311 177.077C83.6408 178.216 81.6958 178.887 79.6783 179.02C77.6609 178.887 75.7158 178.216 74.0456 177.077L74.0446 177.076L15.5823 141.536L15.5801 141.535C13.7918 140.571 12.2668 139.184 11.1383 137.495C10.1614 135.892 9.52031 133.677 9.52031 130.216V59.737C9.48157 57.4903 10.018 55.2711 11.0785 53.29C12.139 51.309 13.6885 49.6321 15.5797 48.4186L74.0365 12.8816L74.0406 12.8792C76.1244 11.6262 77.9846 10.7524 79.6783 10.7524ZM87.3908 9.45937L145.855 45.0006C148.333 46.5707 150.368 48.7495 151.765 51.3292C153.162 53.9089 153.876 56.8035 153.837 59.7371V130.216C153.876 133.149 153.162 136.044 151.765 138.624C150.368 141.203 148.333 143.382 145.855 144.953L87.3898 180.494C85.0956 182.019 82.4302 182.892 79.6783 183.02C76.9264 182.892 74.261 182.019 71.9667 180.494H71.9658L13.502 144.952L13.4995 144.951C11.1642 143.658 9.18097 141.813 7.72281 139.577C6.12823 136.723 5.36521 133.48 5.52031 130.216V59.737C5.48125 56.8034 6.19436 53.9087 7.59165 51.329C8.98894 48.7493 11.0238 46.5705 13.5022 45.0004L71.9667 9.45872L71.9749 9.45384C74.0655 8.19643 76.7734 6.75238 79.6783 6.75238C82.5645 6.75238 85.2816 8.17546 87.3908 9.45932V9.45937Z" fill="#0078D4"/>
<path opacity="0.2" d="M139.959 133.024L80.4091 167.631L20.4701 133.025L80.0201 98.418L139.959 133.024Z" fill="#003067"/>
<path d="M140.532 121.544L79.81 156.832L18.698 121.549L79.42 86.261L140.532 121.544Z" fill="#1B93EB"/>
<path d="M140.532 121.544L140.52 125.65L79.798 160.938L79.81 156.832L140.532 121.544Z" fill="#1F56A3"/>
<path d="M79.81 156.832L79.798 160.938L18.686 125.655L18.698 121.549L79.81 156.832Z" fill="#0078D4"/>
<path opacity="0.2" d="M110.95 122.302C112.814 123.378 112.818 125.122 110.972 126.194C109.931 126.725 108.78 127.002 107.612 127.002C106.444 127.002 105.292 126.725 104.252 126.194L68.2167 105.389C66.3588 104.317 66.3426 102.573 68.1948 101.497C69.2359 100.968 70.3872 100.692 71.5549 100.692C72.7227 100.692 73.874 100.968 74.9151 101.497L110.95 122.302Z" fill="#003067"/>
<path d="M100.032 49.8736C92.4208 45.4791 85.5205 45.07 80.5373 47.966L75.0581 51.1498C80.0413 48.254 86.942 48.6631 94.5531 53.0575C109.691 61.7974 121.91 82.962 121.861 100.356C121.836 108.986 118.791 115.059 113.876 117.915L119.355 114.731C124.269 111.875 127.316 105.802 127.34 97.1725C127.389 79.778 115.17 58.6134 100.032 49.8736Z" fill="#1F56A3"/>
<path d="M94.5534 53.0575C109.691 61.7974 121.91 82.962 121.861 100.357C121.812 117.732 109.513 124.741 94.375 116.001C89.5411 113.112 85.2408 109.412 81.6626 105.063L69.9063 101.798C69.6951 101.738 69.4925 101.652 69.3033 101.54C68.7323 101.167 68.2408 100.685 67.8568 100.121C67.4729 99.5566 67.2042 98.9224 67.0661 98.2543C66.9673 97.8097 66.9686 97.3486 67.0699 96.9045L70.1687 85.174C68.1952 79.9093 67.1458 74.3431 67.0669 68.7211C67.1163 51.3266 79.4319 44.3271 94.5534 53.0575ZM103.655 86.6654C104.665 87.0959 105.429 86.5468 105.432 85.3492C105.399 84.6948 105.224 84.0555 104.919 83.4753C104.615 82.8952 104.188 82.388 103.668 81.9888L103.387 81.8074L85.5856 71.5297L85.3044 71.3864C84.2946 70.9557 83.5309 71.505 83.5275 72.7026C83.5608 73.357 83.7357 73.9963 84.0402 74.5765C84.3447 75.1567 84.7715 75.6638 85.2911 76.063L85.5723 76.2443L103.374 86.5219L103.655 86.6654ZM98.1478 94.5108C99.1573 94.9414 99.9213 94.3923 99.9247 93.1946C99.8892 92.5407 99.7133 91.9021 99.409 91.3223C99.1047 90.7424 98.679 90.2349 98.161 89.8343L97.8797 89.6527L85.5544 82.5367L85.2732 82.3935C84.2634 81.9818 83.4997 82.512 83.4963 83.7097C83.5296 84.3641 83.7045 85.0034 84.009 85.5836C84.3135 86.1637 84.7403 86.6709 85.2599 87.07L85.541 87.2514L97.8663 94.3674L98.1478 94.5108" fill="url(#paint1_linear_422_1181)"/>
<path d="M103.655 86.6654C104.665 87.0959 105.429 86.5468 105.432 85.3492C105.399 84.6948 105.224 84.0555 104.919 83.4753C104.615 82.8952 104.188 82.388 103.668 81.9888L103.387 81.8074L85.5855 71.5297L85.3043 71.3864C84.2946 70.9557 83.5308 71.505 83.5274 72.7026C83.5607 73.357 83.7357 73.9963 84.0402 74.5765C84.3446 75.1567 84.7714 75.6638 85.2911 76.063L85.5722 76.2443L103.374 86.5219L103.655 86.6654ZM98.1477 94.5108C99.1572 94.9414 99.9212 94.3923 99.9246 93.1946C99.8891 92.5407 99.7133 91.9021 99.4089 91.3223C99.1046 90.7424 98.679 90.2349 98.161 89.8343L97.8796 89.6527L85.5543 82.5367L85.2731 82.3935C84.2633 81.9818 83.4996 82.512 83.4962 83.7097C83.5295 84.3641 83.7044 85.0034 84.0089 85.5836C84.3134 86.1637 84.7402 86.6709 85.2599 87.07L85.541 87.2514L97.8663 94.3674L98.1477 94.5108" fill="white"/>
<path opacity="0.2" d="M103.826 135.594C104.004 135.654 104.159 135.767 104.27 135.919C104.38 136.072 104.44 136.254 104.441 136.442C104.442 136.63 104.384 136.814 104.276 136.967C104.167 137.121 104.013 137.236 103.835 137.297C103.38 137.53 102.876 137.651 102.365 137.651C101.854 137.651 101.35 137.53 100.895 137.297L81.9453 126.357C81.7669 126.298 81.6115 126.184 81.5011 126.032C81.3906 125.88 81.3307 125.697 81.3296 125.509C81.3285 125.321 81.3865 125.137 81.4952 124.984C81.6039 124.83 81.758 124.715 81.9357 124.654C82.3908 124.421 82.8946 124.3 83.4058 124.3C83.9169 124.3 84.4207 124.421 84.8758 124.654L103.826 135.594Z" fill="#003067"/>
<path d="M102.945 128.384L104.479 136.145C104.534 136.372 104.534 136.609 104.477 136.835C104.343 137.366 103.864 137.495 103.336 137.19C103.228 137.127 103.126 137.053 103.032 136.969L97.0637 131.736C94.7705 131.702 92.5304 131.041 90.5856 129.826C82.9014 125.39 76.6801 114.614 76.7052 105.784C76.7302 96.9438 82.9922 93.3752 90.6764 97.8117C98.3698 102.253 104.591 113.029 104.566 121.87C104.643 124.15 104.082 126.406 102.945 128.384Z" fill="url(#paint2_linear_422_1181)"/>
<path d="M91.9067 117.306C92.1704 117.511 92.3873 117.77 92.543 118.065C92.6987 118.36 92.7895 118.686 92.8095 119.019C92.8078 119.625 92.4088 119.905 91.9 119.686L91.7612 119.616L85.4918 115.997L85.3531 115.906C85.0875 115.703 84.8692 115.444 84.7133 115.149C84.5575 114.853 84.4677 114.527 84.4503 114.193C84.452 113.587 84.8419 113.312 85.3598 113.526L85.4986 113.595L91.768 117.215L91.9067 117.306Z" fill="#0078D4"/>
<path d="M94.7059 113.313C94.9705 113.517 95.188 113.776 95.3438 114.071C95.4995 114.367 95.5899 114.693 95.6087 115.026C95.607 115.632 95.208 115.902 94.6992 115.693L94.5604 115.624L85.5077 110.397L85.369 110.306C85.1043 110.102 84.8866 109.844 84.7308 109.548C84.5751 109.253 84.4848 108.927 84.4662 108.593C84.4679 107.988 84.8578 107.702 85.3757 107.926L85.5145 107.996L94.5672 113.222L94.7059 113.313Z" fill="#0078D4"/>
<path d="M104.987 127.197C106.123 125.219 106.685 122.963 106.608 120.683C106.633 111.843 100.411 101.067 92.7179 96.6253C88.8522 94.3935 85.3466 94.1875 82.8137 95.6594L80.7722 96.8458C83.3051 95.3739 86.8107 95.5799 90.6764 97.8117C98.3698 102.254 104.591 113.029 104.566 121.87C104.643 124.15 104.082 126.406 102.945 128.384L104.479 136.145C104.534 136.372 104.534 136.609 104.477 136.835C104.46 136.925 104.424 137.01 104.372 137.085C104.32 137.161 104.254 137.225 104.177 137.273L106.218 136.087C106.295 136.038 106.362 135.974 106.414 135.899C106.465 135.824 106.501 135.739 106.519 135.649C106.575 135.422 106.576 135.185 106.521 134.958L104.987 127.197Z" fill="#E8E8E8"/>
<path opacity="0.2" d="M68.8167 129.821C69.2757 130.237 69.1658 130.836 68.566 131.184L67.9697 131.531C67.2354 131.888 66.39 131.942 65.6163 131.681L63.9242 131.055C63.7203 131.004 63.5075 130.998 63.3011 131.039L61.9294 131.371C61.7381 131.4 61.5646 131.5 61.4425 131.65L61.017 132.786C60.813 133.079 60.535 133.313 60.2112 133.463C59.8874 133.614 59.5294 133.676 59.1739 133.643H58.3313C57.8621 133.645 57.4 133.527 56.9886 133.302C56.7665 133.19 56.5873 133.009 56.4786 132.786L56.0332 131.65C55.9861 131.576 55.9197 131.516 55.8411 131.478C55.7714 131.436 55.6961 131.405 55.6176 131.385L54.2316 131.055C54.0084 131 53.775 131 53.5519 131.055L51.8633 131.679C51.089 131.94 50.2432 131.886 49.5083 131.529L48.9116 131.184C48.3078 130.836 48.1912 130.237 48.6455 129.821L49.7162 128.841C49.7594 128.792 49.7854 128.73 49.7902 128.665C49.7949 128.599 49.7782 128.534 49.7425 128.48L49.1609 127.686C49.1178 127.613 49.0548 127.554 48.9795 127.516C48.8861 127.462 48.7841 127.423 48.6779 127.403L46.7189 127.151C46.4046 127.112 46.1011 127.012 45.8251 126.856C45.6686 126.788 45.5322 126.681 45.4286 126.545C45.325 126.409 45.2577 126.25 45.2331 126.081L45.2304 125.593C45.2276 125.101 45.8728 124.631 46.7041 124.522L48.6603 124.27C48.8347 124.244 48.9952 124.159 49.1156 124.03L49.6846 123.23C49.73 123.174 49.7546 123.104 49.7542 123.031C49.7538 122.959 49.7284 122.889 49.6824 122.833L48.5972 121.855C48.1382 121.438 48.2481 120.84 48.8479 120.491L49.4442 120.144C50.1785 119.787 51.0239 119.733 51.7975 119.995L53.4896 120.62C53.6936 120.672 53.9064 120.677 54.1128 120.636L55.4844 120.304C55.6757 120.275 55.8493 120.176 55.9714 120.025L56.3969 118.889C56.6009 118.596 56.8789 118.362 57.2027 118.212C57.5265 118.061 57.8844 117.999 58.24 118.032H59.0825C59.5517 118.03 60.0138 118.148 60.4252 118.374C60.6472 118.485 60.8265 118.666 60.9352 118.889L61.377 120.023C61.4255 120.098 61.4931 120.158 61.5727 120.198C61.6429 120.24 61.7196 120.27 61.7997 120.288L63.1786 120.618C63.4027 120.675 63.6375 120.676 63.8619 120.62L65.554 119.995C66.3275 119.735 67.1718 119.79 67.9055 120.146L68.5022 120.491C69.1059 120.839 69.2226 121.438 68.7683 121.854L67.6976 122.835C67.6543 122.884 67.6283 122.945 67.6236 123.011C67.6188 123.076 67.6356 123.141 67.6713 123.195L68.2528 123.989C68.296 124.062 68.3589 124.121 68.4343 124.159C68.5263 124.213 68.6272 124.251 68.7323 124.27L70.6949 124.524C71.0092 124.563 71.3129 124.663 71.5888 124.819C71.7451 124.887 71.8817 124.994 71.9857 125.129C72.0898 125.265 72.1581 125.424 72.1842 125.592L72.1834 126.083C72.1862 126.575 71.541 127.044 70.7097 127.153L68.75 127.403C68.5769 127.432 68.4181 127.517 68.2982 127.645L67.7292 128.445C67.6834 128.501 67.6588 128.571 67.6599 128.644C67.6609 128.716 67.6875 128.786 67.7349 128.841L68.8167 129.821ZM55.7377 127.563C56.6608 128.032 57.6816 128.276 58.7169 128.276C59.7522 128.275 60.7728 128.03 61.6956 127.561C63.3293 126.612 63.3241 125.063 61.6762 124.112C60.7537 123.643 59.7337 123.399 58.699 123.399C57.6643 123.399 56.6443 123.643 55.7218 124.112C54.0846 125.063 54.0897 126.612 55.7377 127.563" fill="#003067"/>
<path d="M54.4884 118.915L54.4979 115.584C54.532 115.216 54.6633 114.863 54.8783 114.561C55.0933 114.26 55.3844 114.021 55.7219 113.869C56.6443 113.4 57.6644 113.156 58.699 113.156C59.7337 113.156 60.7537 113.4 61.6762 113.869C62.0189 114.021 62.3146 114.263 62.5327 114.568C62.7508 114.873 62.8833 115.231 62.9165 115.605L62.9072 118.915L54.4884 118.915Z" fill="url(#paint3_linear_422_1181)"/>
<path d="M68.8168 119.577C69.2758 119.993 69.1659 120.592 68.5661 120.941L67.9698 121.287C67.2355 121.645 66.3901 121.698 65.6164 121.437L63.9243 120.812C63.7204 120.76 63.5076 120.755 63.3012 120.795L61.9295 121.127C61.7383 121.157 61.5647 121.256 61.4426 121.406L61.0171 122.542C60.8131 122.835 60.5351 123.069 60.2113 123.22C59.8875 123.37 59.5296 123.432 59.174 123.399H58.3314C57.8622 123.401 57.4001 123.284 56.9887 123.058C56.7666 122.947 56.5874 122.766 56.4787 122.542L56.0333 121.406C55.9863 121.332 55.9198 121.273 55.8412 121.234C55.7715 121.193 55.6962 121.162 55.6177 121.142L54.2317 120.812C54.0085 120.756 53.7751 120.756 53.552 120.812L51.8634 121.435C51.0892 121.696 50.2433 121.642 49.5084 121.285L48.9117 120.941C48.3079 120.592 48.1913 119.994 48.6456 119.577L49.7163 118.597C49.7595 118.548 49.7855 118.486 49.7903 118.421C49.795 118.356 49.7783 118.291 49.7426 118.236L49.161 117.443C49.1179 117.37 49.055 117.311 48.9796 117.273C48.8862 117.218 48.7842 117.18 48.678 117.16L46.719 116.908C46.4048 116.868 46.1012 116.768 45.8252 116.613C45.6687 116.545 45.5323 116.437 45.4287 116.302C45.3251 116.166 45.2579 116.006 45.2332 115.837L45.2305 115.349C45.2277 114.857 45.8729 114.387 46.7042 114.279L48.6604 114.027C48.8349 114 48.9953 113.916 49.1157 113.787L49.6847 112.987C49.7301 112.931 49.7547 112.86 49.7543 112.788C49.7539 112.715 49.7285 112.645 49.6825 112.589L48.5973 111.611C48.1383 111.195 48.2482 110.596 48.848 110.247L49.4443 109.901C50.1786 109.544 51.024 109.49 51.7976 109.751L53.4897 110.377C53.6937 110.428 53.9065 110.434 54.1129 110.393L55.4845 110.061C55.6759 110.032 55.8495 109.932 55.9715 109.782L56.397 108.646C56.601 108.353 56.879 108.119 57.2028 107.968C57.5266 107.818 57.8846 107.756 58.2401 107.789H59.0826C59.5519 107.787 60.014 107.904 60.4254 108.13C60.6474 108.241 60.8267 108.423 60.9354 108.646L61.3772 109.78C61.4257 109.854 61.4932 109.915 61.5729 109.954C61.643 109.997 61.7197 110.027 61.7999 110.044L63.1788 110.375C63.4029 110.432 63.6376 110.433 63.862 110.377L65.5542 109.751C66.3277 109.492 67.172 109.546 67.9057 109.903L68.5023 110.247C69.1061 110.596 69.2228 111.195 68.7684 111.611L67.6978 112.591C67.6545 112.64 67.6285 112.702 67.6237 112.767C67.619 112.832 67.6358 112.897 67.6715 112.952L68.253 113.746C68.2961 113.818 68.3591 113.877 68.4345 113.916C68.5265 113.97 68.6274 114.007 68.7325 114.026L70.6951 114.281C71.0094 114.32 71.3131 114.42 71.589 114.575C71.7453 114.644 71.8818 114.751 71.9859 114.886C72.09 115.021 72.1582 115.18 72.1844 115.349L72.1836 115.839C72.1864 116.331 71.5412 116.801 70.7099 116.91L68.7501 117.16C68.577 117.189 68.4182 117.274 68.2984 117.402L67.7294 118.201C67.6836 118.258 67.659 118.328 67.6601 118.4C67.6611 118.473 67.6877 118.542 67.7351 118.597L68.8168 119.577ZM55.7378 117.32C56.6609 117.788 57.6817 118.033 58.717 118.032C59.7523 118.032 60.7729 117.787 61.6957 117.318C63.3294 116.368 63.3242 114.82 61.6763 113.869C60.7538 113.4 59.7338 113.156 58.6991 113.156C57.6644 113.156 56.6444 113.4 55.7219 113.869C54.0847 114.82 54.0898 116.368 55.7378 117.32" fill="url(#paint4_linear_422_1181)"/>
<path d="M69.0351 111.126C69.0301 111.164 69.0219 111.201 69.0107 111.238C69.0046 111.258 68.9979 111.278 68.9898 111.298C68.9735 111.336 68.9542 111.373 68.932 111.409C68.9215 111.426 68.9129 111.443 68.901 111.46C68.8624 111.514 68.8183 111.565 68.7693 111.61L68.7685 111.611L67.6978 112.591C67.6737 112.615 67.6554 112.644 67.6445 112.676C67.6413 112.688 67.6387 112.699 67.6367 112.711C67.6302 112.734 67.6262 112.758 67.6246 112.783C67.619 112.843 67.6357 112.903 67.6715 112.952L68.253 113.745C68.2962 113.818 68.3592 113.877 68.4345 113.916C68.5266 113.97 68.6275 114.007 68.7325 114.026L69.0365 114.066L69.0452 111.038C69.0451 111.048 69.0423 111.057 69.0419 111.067C69.0409 111.086 69.0376 111.106 69.0351 111.126Z" fill="url(#paint5_linear_422_1181)"/>
<path d="M72.1551 116.022C72.0387 116.303 71.8194 116.528 71.5421 116.653C71.4334 116.708 71.3205 116.755 71.2043 116.793C71.0437 116.848 70.878 116.887 70.7098 116.91L69.0638 117.12L69.0278 117.124L68.75 117.16C68.5769 117.188 68.4182 117.273 68.2983 117.402L67.7293 118.201C67.6835 118.257 67.6589 118.328 67.66 118.4C67.661 118.473 67.6876 118.542 67.735 118.597L68.8167 119.577C69.2757 119.994 69.1658 120.592 68.566 120.941L67.9697 121.287C67.3969 121.57 66.7496 121.666 66.1197 121.56C66.0967 121.556 66.0751 121.552 66.0524 121.548C65.9041 121.524 65.7582 121.487 65.6163 121.437L63.9242 120.812C63.889 120.801 63.8531 120.794 63.8167 120.789C63.7496 120.777 63.6818 120.771 63.6138 120.769C63.5088 120.763 63.4036 120.772 63.3011 120.795L61.9295 121.127C61.9125 121.131 61.8966 121.138 61.8797 121.142C61.7075 121.176 61.5527 121.27 61.4425 121.406L61.017 122.542C60.9246 122.746 60.7705 122.915 60.5765 123.025C60.4217 123.122 60.2554 123.199 60.0816 123.255C59.7886 123.351 59.4822 123.4 59.1739 123.399H58.3314C58.1118 123.398 57.893 123.372 57.6795 123.32C57.5438 123.29 57.4106 123.249 57.281 123.199C57.1803 123.159 57.0826 123.112 56.9887 123.058C56.7666 122.947 56.5874 122.766 56.4787 122.542L56.0333 121.406C55.9862 121.332 55.9198 121.273 55.8412 121.234C55.7714 121.193 55.6962 121.162 55.6176 121.142L54.9246 120.977L54.2317 120.812C54.1753 120.796 54.1178 120.785 54.0596 120.779C53.9958 120.773 53.9318 120.77 53.8677 120.77C53.8076 120.77 53.7475 120.774 53.6879 120.782C53.6416 120.787 53.596 120.797 53.5519 120.812L51.8633 121.435C51.7144 121.487 51.561 121.526 51.4051 121.55C51.3814 121.554 51.3592 121.559 51.3352 121.562C51.1761 121.584 51.0157 121.595 50.855 121.594C50.83 121.594 50.8062 121.593 50.7812 121.593C50.6154 121.589 50.45 121.574 50.2865 121.547L50.2631 121.542C49.9989 121.5 49.7436 121.413 49.5083 121.285L48.9116 120.941C48.3078 120.592 48.1912 119.994 48.6456 119.577L49.7163 118.597C49.7463 118.563 49.7681 118.522 49.7799 118.478C49.7918 118.434 49.7933 118.388 49.7845 118.343C49.7829 118.333 49.7829 118.322 49.7804 118.313C49.7737 118.285 49.761 118.259 49.743 118.237L49.7426 118.236L49.7386 118.231L49.161 117.443C49.1179 117.37 49.055 117.311 48.9796 117.273C48.8862 117.218 48.7842 117.18 48.678 117.16L46.7189 116.908C46.4523 116.871 46.1936 116.791 45.9531 116.67C45.9119 116.65 45.8636 116.635 45.8252 116.613C45.6601 116.522 45.5139 116.4 45.3944 116.254C45.2954 116.137 45.2387 115.99 45.2332 115.837L45.2075 120.372C45.2322 120.541 45.2994 120.7 45.403 120.836C45.5066 120.972 45.6431 121.079 45.7995 121.147C46.0755 121.303 46.3791 121.403 46.6933 121.442L48.3519 121.656L48.3432 124.684C48.3553 124.853 48.412 125.014 48.5074 125.153C48.6028 125.292 48.7335 125.404 48.886 125.475L49.4826 125.82C50.2176 126.177 51.0634 126.231 51.8376 125.97L53.5263 125.346C53.7494 125.291 53.9828 125.291 54.206 125.346L55.5919 125.676C55.6704 125.696 55.7457 125.727 55.8154 125.769C55.894 125.807 55.9605 125.867 56.0076 125.941L56.4529 127.077C56.5616 127.3 56.7409 127.481 56.963 127.593C57.3744 127.818 57.8365 127.936 58.3058 127.934H59.1483C59.5039 127.967 59.8618 127.905 60.1856 127.754C60.5093 127.604 60.7874 127.37 60.9913 127.077L61.4168 125.941C61.539 125.791 61.7125 125.691 61.9037 125.662L63.2755 125.33C63.4818 125.289 63.6947 125.295 63.8986 125.346L65.5907 125.972C66.3643 126.233 67.2098 126.179 67.944 125.822L68.5404 125.475C68.6901 125.404 68.8184 125.294 68.9121 125.157C69.0059 125.02 69.0618 124.861 69.0742 124.696L69.0828 121.648L70.6841 121.444C71.5154 121.335 72.1606 120.866 72.1579 120.374L72.1835 115.839C72.1836 115.901 72.174 115.963 72.1551 116.022V116.022Z" fill="url(#paint6_linear_422_1181)"/>
<path d="M48.6603 114.027C48.8347 114 48.9951 113.916 49.1156 113.787L49.6846 112.987C49.7314 112.928 49.7556 112.855 49.7529 112.78C49.7516 112.756 49.7475 112.731 49.7407 112.707C49.739 112.695 49.7367 112.684 49.7337 112.672C49.723 112.641 49.7054 112.613 49.6823 112.589L48.5972 111.611C48.547 111.565 48.5017 111.514 48.462 111.459C48.4498 111.442 48.4411 111.425 48.4304 111.407C48.4078 111.372 48.3881 111.335 48.3715 111.296C48.3629 111.276 48.3564 111.255 48.3499 111.234C48.3386 111.199 48.3302 111.162 48.3249 111.125C48.3219 111.104 48.3189 111.083 48.3179 111.062C48.3172 111.05 48.3139 111.039 48.314 111.027L48.3053 114.072L48.6603 114.027Z" fill="url(#paint7_linear_422_1181)"/>
<path d="M73.7923 135.772C74.0721 136.025 74.0051 136.39 73.6395 136.603L73.2761 136.814C72.8286 137.032 72.3133 137.064 71.8418 136.905L70.8105 136.524C70.6863 136.492 70.5565 136.489 70.4308 136.514L69.5948 136.716C69.4782 136.734 69.3725 136.795 69.298 136.886L69.0387 137.579C68.9144 137.757 68.745 137.9 68.5476 137.992C68.3503 138.083 68.1321 138.121 67.9154 138.101H67.4019C67.1159 138.102 66.8343 138.031 66.5836 137.893C66.4482 137.825 66.339 137.715 66.2728 137.579L66.0013 136.886C65.9726 136.841 65.9321 136.805 65.8842 136.781C65.8417 136.756 65.7959 136.737 65.748 136.725L64.9033 136.524C64.7673 136.49 64.625 136.49 64.489 136.524L63.4599 136.904C62.9881 137.063 62.4725 137.03 62.0246 136.813L61.661 136.603C61.293 136.39 61.2219 136.025 61.4988 135.772L62.1513 135.174C62.1777 135.144 62.1936 135.107 62.1964 135.067C62.1993 135.027 62.1891 134.988 62.1673 134.954L61.8129 134.471C61.7866 134.426 61.7483 134.39 61.7023 134.367C61.6454 134.334 61.5833 134.311 61.5186 134.298L60.3246 134.144C60.1331 134.12 59.9481 134.059 59.7798 133.965C59.6845 133.923 59.6013 133.858 59.5382 133.775C59.4751 133.693 59.4341 133.595 59.419 133.492L59.4174 133.195C59.4157 132.895 59.8089 132.609 60.3155 132.542L61.5078 132.389C61.6141 132.372 61.7118 132.321 61.7853 132.242L62.132 131.755C62.1597 131.721 62.1747 131.678 62.1744 131.634C62.1742 131.589 62.1587 131.547 62.1307 131.513L61.4693 130.916C61.1895 130.663 61.2565 130.298 61.6221 130.085L61.9855 129.874C62.433 129.656 62.9483 129.624 63.4198 129.783L64.451 130.164C64.5753 130.196 64.705 130.199 64.8308 130.174L65.6668 129.972C65.7834 129.954 65.8892 129.893 65.9636 129.802L66.2229 129.109C66.3472 128.931 66.5167 128.788 66.714 128.696C66.9113 128.605 67.1295 128.567 67.3462 128.587H67.8597C68.1457 128.586 68.4273 128.657 68.678 128.795C68.8133 128.863 68.9226 128.973 68.9888 129.109L69.2581 129.8C69.2877 129.846 69.3288 129.882 69.3774 129.907C69.4201 129.932 69.4669 129.951 69.5157 129.962L70.3561 130.163C70.4927 130.198 70.6358 130.198 70.7726 130.164L71.8039 129.783C72.2752 129.625 72.7898 129.658 73.237 129.875L73.6006 130.085C73.9686 130.298 74.0397 130.663 73.7628 130.916L73.1103 131.514C73.0839 131.544 73.0681 131.581 73.0652 131.621C73.0623 131.661 73.0725 131.7 73.0943 131.734L73.4487 132.217C73.475 132.262 73.5133 132.298 73.5593 132.321C73.6154 132.354 73.6769 132.377 73.7409 132.389L74.937 132.544C75.1286 132.567 75.3136 132.628 75.4818 132.723C75.5771 132.765 75.6603 132.83 75.7237 132.912C75.7871 132.995 75.8287 133.092 75.8447 133.195L75.8442 133.493C75.8459 133.793 75.4527 134.079 74.9461 134.146L73.7517 134.298C73.6462 134.316 73.5494 134.368 73.4763 134.446L73.1295 134.933C73.1016 134.967 73.0867 135.01 73.0873 135.054C73.088 135.098 73.1042 135.141 73.133 135.174L73.7923 135.772ZM65.8212 134.396C66.3838 134.681 67.0059 134.83 67.6369 134.83C68.2679 134.83 68.8899 134.681 69.4523 134.394C69.6707 134.318 69.8599 134.175 69.9933 133.986C70.1266 133.797 70.1976 133.571 70.1963 133.339C70.195 133.108 70.1215 132.882 69.986 132.695C69.8505 132.507 69.6598 132.366 69.4405 132.292C68.8782 132.007 68.2566 131.858 67.626 131.858C66.9954 131.858 66.3737 132.007 65.8115 132.292C65.5928 132.369 65.4033 132.511 65.2696 132.7C65.1358 132.89 65.0645 133.116 65.0656 133.348C65.0666 133.579 65.14 133.805 65.2755 133.993C65.411 134.181 65.6018 134.321 65.8212 134.396" fill="url(#paint8_linear_422_1181)"/>
<path d="M73.9252 130.621C73.9222 130.644 73.9172 130.667 73.9104 130.689C73.9067 130.701 73.9026 130.713 73.8977 130.725C73.8877 130.749 73.876 130.772 73.8624 130.793C73.856 130.804 73.8508 130.814 73.8435 130.824C73.82 130.858 73.7931 130.888 73.7632 130.916L73.7627 130.916L73.1102 131.514C73.0955 131.528 73.0844 131.546 73.0778 131.566C73.0758 131.573 73.0742 131.58 73.073 131.587C73.069 131.601 73.0665 131.616 73.0656 131.631C73.0622 131.667 73.0724 131.704 73.0942 131.734L73.4486 132.217C73.4749 132.262 73.5133 132.298 73.5592 132.321C73.6153 132.354 73.6768 132.377 73.7408 132.389L73.9261 132.413L73.9313 130.567L73.9293 130.585C73.9288 130.597 73.9268 130.609 73.9252 130.621Z" fill="url(#paint9_linear_422_1181)"/>
<path d="M75.8268 133.605C75.7559 133.776 75.6223 133.913 75.4533 133.989C75.387 134.023 75.3182 134.052 75.2474 134.074C75.1495 134.108 75.0485 134.132 74.946 134.146L73.9428 134.274L73.9208 134.277L73.7516 134.298C73.6461 134.316 73.5493 134.368 73.4763 134.446L73.1295 134.933C73.1016 134.967 73.0866 135.01 73.0873 135.054C73.0879 135.098 73.1041 135.141 73.133 135.174L73.7922 135.772C74.072 136.025 74.005 136.39 73.6394 136.603L73.276 136.814C72.9269 136.986 72.5324 137.044 72.1485 136.98L72.1075 136.972C72.0171 136.958 71.9282 136.935 71.8417 136.905L70.8104 136.524C70.789 136.518 70.7671 136.513 70.745 136.51C70.704 136.503 70.6627 136.499 70.6212 136.498C70.5573 136.494 70.4931 136.5 70.4307 136.514L69.5947 136.716C69.5843 136.718 69.5747 136.723 69.5644 136.725C69.4594 136.746 69.365 136.803 69.2979 136.886L69.0386 137.579C68.9823 137.703 68.8883 137.806 68.7701 137.873C68.6758 137.932 68.5745 137.979 68.4685 138.013C68.2899 138.071 68.1032 138.101 67.9153 138.101H67.4018C67.2679 138.1 67.1346 138.084 67.0045 138.053C66.9218 138.034 66.8406 138.01 66.7616 137.979C66.7003 137.955 66.6407 137.926 66.5835 137.893C66.4481 137.825 66.3389 137.715 66.2726 137.579L66.0012 136.886C65.9725 136.841 65.932 136.805 65.8841 136.781C65.8416 136.756 65.7957 136.737 65.7479 136.725L65.3255 136.624L64.9032 136.524C64.8689 136.514 64.8338 136.508 64.7983 136.504C64.7594 136.5 64.7204 136.498 64.6813 136.499C64.6447 136.499 64.6081 136.501 64.5717 136.506C64.5435 136.509 64.5158 136.515 64.4889 136.524L63.4597 136.904C63.369 136.936 63.2755 136.959 63.1805 136.974C63.166 136.976 63.1525 136.979 63.1379 136.981C63.0409 136.995 62.9431 137.001 62.8452 137.001L62.8002 137C62.6992 136.998 62.5984 136.988 62.4988 136.972L62.4845 136.969C62.3235 136.943 62.1679 136.89 62.0245 136.813L61.6609 136.603C61.2929 136.39 61.2218 136.025 61.4987 135.772L62.1512 135.174C62.1696 135.153 62.1828 135.128 62.19 135.102C62.1972 135.075 62.1982 135.047 62.1928 135.019L62.1903 135.001C62.1863 134.984 62.1785 134.968 62.1675 134.955L62.1673 134.954L62.1649 134.951L61.8129 134.471C61.7866 134.426 61.7482 134.39 61.7023 134.367C61.6453 134.334 61.5832 134.311 61.5185 134.298L60.3245 134.145C60.162 134.122 60.0043 134.073 59.8577 134C59.8326 133.987 59.8032 133.978 59.7798 133.965C59.6791 133.909 59.59 133.835 59.5172 133.746C59.4569 133.675 59.4223 133.585 59.419 133.492L59.4033 136.256C59.4183 136.359 59.4593 136.456 59.5225 136.539C59.5856 136.622 59.6688 136.687 59.7641 136.729C59.9323 136.823 60.1173 136.884 60.3088 136.908L61.3197 137.038L61.3144 138.884C61.3218 138.987 61.3563 139.085 61.4145 139.17C61.4726 139.255 61.5522 139.322 61.6452 139.366L62.0088 139.576C62.4567 139.794 62.9722 139.827 63.4441 139.667L64.4733 139.287C64.6093 139.254 64.7515 139.254 64.8875 139.287L65.7322 139.489C65.78 139.501 65.8259 139.52 65.8684 139.545C65.9163 139.569 65.9568 139.605 65.9855 139.65L66.2569 140.342C66.3232 140.478 66.4325 140.589 66.5678 140.657C66.8185 140.794 67.1002 140.866 67.3862 140.865H67.8997C68.1164 140.885 68.3345 140.847 68.5318 140.755C68.7292 140.663 68.8986 140.521 69.0229 140.342L69.2822 139.65C69.3567 139.558 69.4624 139.498 69.579 139.48L70.415 139.277C70.5408 139.253 70.6705 139.256 70.7948 139.287L71.8261 139.669C72.2975 139.828 72.8128 139.795 73.2603 139.577L73.6237 139.366C73.715 139.323 73.7932 139.256 73.8503 139.172C73.9074 139.089 73.9415 138.992 73.9491 138.891L73.9543 137.034L74.9302 136.909C75.4369 136.843 75.8301 136.557 75.8284 136.257L75.8441 133.493C75.8442 133.531 75.8383 133.569 75.8268 133.605Z" fill="url(#paint10_linear_422_1181)"/>
<path d="M61.5078 132.389C61.6141 132.373 61.7119 132.321 61.7853 132.242L62.1321 131.755C62.1606 131.719 62.1754 131.675 62.1737 131.629C62.1729 131.614 62.1705 131.599 62.1663 131.585C62.1652 131.577 62.1638 131.57 62.1621 131.563C62.1555 131.544 62.1448 131.527 62.1307 131.513L61.4694 130.916C61.4388 130.889 61.4112 130.858 61.387 130.824C61.3796 130.814 61.3743 130.803 61.3677 130.792C61.354 130.771 61.342 130.748 61.3318 130.725C61.3266 130.712 61.3226 130.7 61.3187 130.687C61.3118 130.665 61.3067 130.643 61.3034 130.62C61.3016 130.607 61.2998 130.595 61.2992 130.582C61.2988 130.575 61.2968 130.568 61.2968 130.56L61.2915 132.416L61.5078 132.389Z" fill="url(#paint11_linear_422_1181)"/>
</g>
<defs>
<linearGradient id="paint0_linear_422_1181" x1="79.6785" y1="9.27643" x2="79.6785" y2="180.692" gradientUnits="userSpaceOnUse">
<stop stop-color="#00ABDE"/>
<stop offset="1" stop-color="#007ED8"/>
</linearGradient>
<linearGradient id="paint1_linear_422_1181" x1="94.4274" y1="119.763" x2="94.4274" y2="49.3005" gradientUnits="userSpaceOnUse">
<stop stop-color="#004DAE"/>
<stop offset="0.21" stop-color="#0061C4"/>
<stop offset="0.51" stop-color="#0078DD"/>
<stop offset="0.78" stop-color="#0086EC"/>
<stop offset="1" stop-color="#008BF1"/>
</linearGradient>
<linearGradient id="paint2_linear_422_1181" x1="90.6356" y1="137.352" x2="90.6356" y2="95.9049" gradientUnits="userSpaceOnUse">
<stop stop-color="#F2F2F2"/>
<stop offset="0.44" stop-color="#FBFBFB"/>
<stop offset="1" stop-color="white"/>
</linearGradient>
<linearGradient id="paint3_linear_422_1181" x1="58.7025" y1="118.915" x2="58.7025" y2="113.156" gradientUnits="userSpaceOnUse">
<stop stop-color="#F0F0F0" stop-opacity="0"/>
<stop offset="1" stop-color="#F0F0F0" stop-opacity="0.5"/>
</linearGradient>
<linearGradient id="paint4_linear_422_1181" x1="58.7074" y1="122.839" x2="58.7074" y2="108.129" gradientUnits="userSpaceOnUse">
<stop stop-color="white"/>
<stop offset="0.56" stop-color="#FBFBFB"/>
<stop offset="1" stop-color="#F2F2F2"/>
</linearGradient>
<linearGradient id="paint5_linear_422_1181" x1="164.77" y1="444.182" x2="164.77" y2="453.348" gradientUnits="userSpaceOnUse">
<stop stop-color="#F0F0F0" stop-opacity="0"/>
<stop offset="1" stop-color="#F0F0F0" stop-opacity="0.5"/>
</linearGradient>
<linearGradient id="paint6_linear_422_1181" x1="58.8031" y1="128.101" x2="58.7833" y2="116.988" gradientUnits="userSpaceOnUse">
<stop stop-color="white" stop-opacity="0.5"/>
<stop offset="1" stop-color="#FCFCFC" stop-opacity="0"/>
</linearGradient>
<linearGradient id="paint7_linear_422_1181" x1="119.29" y1="446.108" x2="119.29" y2="455.383" gradientUnits="userSpaceOnUse">
<stop stop-color="#F0F0F0" stop-opacity="0"/>
<stop offset="1" stop-color="#F0F0F0" stop-opacity="0.5"/>
</linearGradient>
<linearGradient id="paint8_linear_422_1181" x1="58.7074" y1="122.839" x2="58.7074" y2="108.129" gradientUnits="userSpaceOnUse">
<stop stop-color="white"/>
<stop offset="0.56" stop-color="#FBFBFB"/>
<stop offset="1" stop-color="#F2F2F2"/>
</linearGradient>
<linearGradient id="paint9_linear_422_1181" x1="136.744" y1="369.637" x2="136.744" y2="373.042" gradientUnits="userSpaceOnUse">
<stop stop-color="#F0F0F0" stop-opacity="0"/>
<stop offset="1" stop-color="#F0F0F0" stop-opacity="0.5"/>
</linearGradient>
<linearGradient id="paint10_linear_422_1181" x1="67.6893" y1="140.966" x2="67.6772" y2="134.194" gradientUnits="userSpaceOnUse">
<stop stop-color="white" stop-opacity="0.5"/>
<stop offset="1" stop-color="#FCFCFC" stop-opacity="0"/>
</linearGradient>
<linearGradient id="paint11_linear_422_1181" x1="115.762" y1="371.029" x2="115.762" y2="374.474" gradientUnits="userSpaceOnUse">
<stop stop-color="#F0F0F0" stop-opacity="0"/>
<stop offset="1" stop-color="#F0F0F0" stop-opacity="0.5"/>
</linearGradient>
<clipPath id="clip0_422_1181">
<rect width="159.356" height="188" fill="white" transform="translate(0 0.998047)"/>
</clipPath>
</defs>
</svg>
