<svg width="100" height="100" viewBox="0 0 100 100" fill="none" xmlns="http://www.w3.org/2000/svg">
<g clip-path="url(#clip0)">
<path d="M49.6401 96.4481C40.382 96.4481 31.3317 93.7028 23.6339 88.5592C15.936 83.4157 9.93624 76.105 6.3933 67.5516C2.85036 58.9981 1.92337 49.5862 3.72954 40.506C5.53571 31.4257 9.99394 23.085 16.5404 16.5385C23.0869 9.99198 31.4277 5.53376 40.5079 3.72759C49.5882 1.92141 59.0001 2.84841 67.5535 6.39135C76.1069 9.93428 83.4176 15.934 88.5612 23.6319C93.7047 31.3298 96.4501 40.38 96.4501 49.6381C96.4505 55.7854 95.24 61.8726 92.8878 67.5521C90.5355 73.2315 87.0875 78.392 82.7407 82.7388C78.3939 87.0856 73.2335 90.5335 67.554 92.8858C61.8746 95.2381 55.7874 96.4486 49.6401 96.4481V96.4481Z" fill="url(#paint0_linear)"/>
<path fill-rule="evenodd" clip-rule="evenodd" d="M95.54 49.64C95.54 58.7182 92.848 67.5925 87.8045 75.1407C82.7609 82.6889 75.5923 88.572 67.2052 92.0461C58.818 95.5201 49.5891 96.4291 40.6854 94.658C31.7816 92.887 23.603 88.5154 17.1838 82.0962C10.7646 75.677 6.39302 67.4984 4.62196 58.5946C2.85089 49.6909 3.75987 40.462 7.23393 32.0748C10.708 23.6877 16.5911 16.5191 24.1393 11.4755C31.6875 6.43199 40.5618 3.74 49.64 3.74C55.6677 3.73998 61.6363 4.9272 67.2052 7.23388C72.774 9.54057 77.834 12.9215 82.0963 17.1837C86.3585 21.446 89.7394 26.5059 92.0461 32.0748C94.3528 37.6437 95.54 43.6123 95.54 49.64V49.64ZM49.64 3.62732e-07C59.4579 3.62732e-07 69.0553 2.91134 77.2185 8.36585C85.3818 13.8204 91.7442 21.5731 95.5014 30.6436C99.2585 39.7141 100.242 49.6951 98.3262 59.3243C96.4108 68.9535 91.6831 77.7985 84.7408 84.7408C77.7985 91.6831 68.9535 96.4108 59.3243 98.3262C49.6951 100.242 39.7141 99.2585 30.6436 95.5014C21.5731 91.7442 13.8204 85.3818 8.36585 77.2185C2.91134 69.0553 3.62732e-07 59.4579 3.62732e-07 49.64C-0.000787738 43.121 1.28265 36.6656 3.77702 30.6427C6.27138 24.6197 9.9278 19.1471 14.5375 14.5375C19.1471 9.9278 24.6197 6.27138 30.6427 3.77702C36.6656 1.28265 43.121 -0.000787738 49.64 3.62732e-07V3.62732e-07Z" fill="#F2F1F0"/>
<path fill-rule="evenodd" clip-rule="evenodd" d="M92.7296 49.6386C92.7296 58.161 90.2024 66.492 85.4676 73.5781C80.7328 80.6643 74.0031 86.1872 66.1294 89.4486C58.2557 92.71 49.5918 93.5633 41.2331 91.9007C32.8745 90.238 25.1966 86.1341 19.1703 80.1079C13.1441 74.0816 9.04017 66.4037 7.37753 58.0451C5.7149 49.6864 6.56822 41.0225 9.8296 33.1488C13.091 25.2751 18.6139 18.5454 25.7 13.8106C32.7862 9.07581 41.1172 6.54862 49.6396 6.54862C55.2983 6.54828 60.9017 7.6626 66.1298 9.82795C71.3579 11.9933 76.1082 15.1673 80.1096 19.1686C84.1109 23.17 87.2849 27.9203 89.4502 33.1484C91.6156 38.3765 92.7299 43.9799 92.7296 49.6386V49.6386ZM49.6396 2.80862C58.9017 2.80862 67.9558 5.55515 75.6569 10.7009C83.3581 15.8466 89.3604 23.1605 92.9049 31.7176C96.4493 40.2746 97.3767 49.6906 95.5697 58.7747C93.7628 67.8588 89.3027 76.2031 82.7534 82.7524C76.2041 89.3017 67.8598 93.7619 58.7757 95.5688C49.6915 97.3757 40.2756 96.4484 31.7185 92.9039C23.1614 89.3594 15.8476 83.3571 10.7018 75.656C5.5561 67.9548 2.80957 58.9007 2.80957 49.6386C2.81076 37.2189 7.745 25.3082 16.5271 16.5261C25.3091 7.74403 37.2198 2.80979 49.6396 2.80859V2.80862Z" fill="#0078D4"/>
<path fill-rule="evenodd" clip-rule="evenodd" d="M92.7296 49.6386C92.7296 58.161 90.2024 66.492 85.4676 73.5781C80.7328 80.6642 74.0031 86.1872 66.1294 89.4486C58.2557 92.7099 49.5918 93.5633 41.2331 91.9006C32.8745 90.238 25.1966 86.1341 19.1703 80.1078C13.1441 74.0816 9.04017 66.4037 7.37753 58.045C5.7149 49.6864 6.56822 41.0224 9.8296 33.1488C13.091 25.2751 18.6139 18.5454 25.7001 13.8106C32.7862 9.07578 41.1172 6.54859 49.6396 6.54859C55.2983 6.54825 60.9017 7.66257 66.1298 9.82792C71.3579 11.9933 76.1082 15.1673 80.1096 19.1686C84.1109 23.1699 87.2849 27.9203 89.4502 33.1484C91.6156 38.3764 92.7299 43.9798 92.7296 49.6386V49.6386ZM49.6396 2.80859C58.9017 2.80859 67.9558 5.55513 75.6569 10.7009C83.3581 15.8466 89.3604 23.1605 92.9048 31.7175C96.4493 40.2746 97.3767 49.6905 95.5697 58.7747C93.7628 67.8588 89.3027 76.2031 82.7534 82.7524C76.2041 89.3017 67.8598 93.7618 58.7757 95.5688C49.6915 97.3757 40.2756 96.4483 31.7185 92.9039C23.1614 89.3594 15.8476 83.3571 10.7018 75.656C5.5561 67.9548 2.80957 58.9007 2.80957 49.6386C2.81076 37.2189 7.74501 25.3082 16.5271 16.5261C25.3091 7.74403 37.2198 2.80979 49.6396 2.80859V2.80859Z" fill="#0078D4"/>
<path fill-rule="evenodd" clip-rule="evenodd" d="M25.4041 30.457C24.2365 30.4604 23.1177 30.9258 22.292 31.7515C21.4663 32.5771 21.001 33.6959 20.9976 34.8636V65.7095H78.2828V34.8636C78.2794 33.6959 77.814 32.5771 76.9884 31.7515C76.1627 30.9258 75.0439 30.4605 73.8762 30.457H25.4041ZM73.8762 32.6603C74.4604 32.6611 75.0203 32.8935 75.4333 33.3065C75.8464 33.7195 76.0788 34.2795 76.0795 34.8636V63.5062H23.2008V34.8636C23.2014 34.2794 23.4337 33.7193 23.8468 33.3063C24.2599 32.8932 24.82 32.6609 25.4041 32.6603H73.8762Z" fill="#1F56A3"/>
<path fill-rule="evenodd" clip-rule="evenodd" d="M23.2007 34.8673C23.2013 34.2832 23.4336 33.7231 23.8467 33.31C24.2597 32.897 24.8198 32.6646 25.404 32.6641H73.8761C74.4602 32.6648 75.0202 32.8972 75.4332 33.3102C75.8462 33.7233 76.0786 34.2832 76.0794 34.8673V63.51H23.2007V34.8673Z" fill="#0078D4"/>
<path d="M73.4608 35.2812H25.8184V60.8909H73.4608V35.2812Z" fill="#1B93EB"/>
<path fill-rule="evenodd" clip-rule="evenodd" d="M14.3877 65.7109V66.8126C14.3911 67.9802 14.8565 69.0991 15.6821 69.9247C16.5078 70.7504 17.6266 71.2157 18.7943 71.2191H80.4861C81.6537 71.2157 82.7725 70.7504 83.5982 69.9247C84.4238 69.0991 84.8892 67.9802 84.8926 66.8126V65.7109H14.3877Z" fill="#0078D4"/>
<path fill-rule="evenodd" clip-rule="evenodd" d="M47.4363 69.0159H15.0029C15.387 69.6825 15.9391 70.2367 16.6043 70.6233C17.2694 71.0099 18.0243 71.2154 18.7937 71.2191H80.4855C81.6531 71.2157 82.772 70.7504 83.5976 69.9247C84.4233 69.0991 84.8886 67.9802 84.892 66.8126V65.7109H49.6396V66.8126C49.6397 67.102 49.5827 67.3885 49.472 67.6558C49.3613 67.9232 49.1991 68.1661 48.9944 68.3707C48.7898 68.5753 48.5469 68.7376 48.2796 68.8483C48.0122 68.959 47.7257 69.0159 47.4363 69.0159Z" fill="#1F56A3"/>
<path fill-rule="evenodd" clip-rule="evenodd" d="M45.2336 67.9142H54.0467C54.6309 67.914 55.1912 67.6818 55.6044 67.2687C56.0175 66.8555 56.2497 66.2952 56.2499 65.7109H43.0303C43.0303 66.2953 43.2624 66.8557 43.6756 67.2689C44.0888 67.6821 44.6492 67.9142 45.2336 67.9142V67.9142Z" fill="#003067"/>
<path d="M39.7051 59.0981C45.3618 59.0981 49.9475 54.5124 49.9475 48.8557C49.9475 43.199 45.3618 38.6133 39.7051 38.6133C34.0483 38.6133 29.4626 43.199 29.4626 48.8557C29.4626 54.5124 34.0483 59.0981 39.7051 59.0981Z" fill="#0078D4"/>
<path fill-rule="evenodd" clip-rule="evenodd" d="M44.8992 47.8654L44.0512 47.6768C43.9634 47.6449 43.8918 47.5796 43.8518 47.4952L43.8418 47.4678L43.6078 46.8992L43.5943 46.87C43.5626 46.7828 43.5668 46.6866 43.606 46.6025L44.0725 45.8693C44.1679 45.7106 44.2087 45.525 44.1885 45.3409C44.1683 45.1567 44.0883 44.9843 43.9607 44.8501L43.7027 44.5921C43.5672 44.4667 43.395 44.3882 43.2115 44.368C43.028 44.3479 42.8428 44.3873 42.6834 44.4803L41.9501 44.9466C41.9033 44.97 41.8515 44.9813 41.7993 44.9794C41.7594 44.9809 41.7196 44.9737 41.6827 44.9584C41.6732 44.9533 41.6634 44.9488 41.6534 44.9449L41.0849 44.7108L41.0576 44.7009C40.9731 44.6609 40.9078 44.5892 40.8759 44.5013L40.6875 43.6535C40.6427 43.4737 40.5402 43.3136 40.3957 43.1977C40.2512 43.0818 40.0726 43.0164 39.8875 43.0117H39.5227C39.3375 43.0164 39.159 43.0817 39.0145 43.1976C38.87 43.3135 38.7676 43.4736 38.7228 43.6533L38.5342 44.5017C38.5021 44.5893 38.4369 44.6608 38.3526 44.7009L38.3251 44.7107L37.7566 44.9449C37.7466 44.9488 37.7368 44.9533 37.7272 44.9584C37.6904 44.9737 37.6506 44.9809 37.6107 44.9794C37.5584 44.9811 37.5065 44.9698 37.4597 44.9465L36.7267 44.4804C36.5672 44.3874 36.3821 44.3481 36.1986 44.3682C36.0151 44.3883 35.843 44.4669 35.7074 44.5922L35.4494 44.8501C35.3218 44.9844 35.2418 45.1568 35.2216 45.3409C35.2014 45.5251 35.2421 45.7108 35.3376 45.8695L35.8041 46.6025C35.8431 46.6866 35.8473 46.7827 35.8158 46.8699L35.8021 46.8992L35.5681 47.4679L35.5581 47.4952C35.5182 47.5797 35.4465 47.645 35.3587 47.677L34.5109 47.8653C34.3311 47.91 34.171 48.0125 34.0551 48.157C33.9392 48.3016 33.8738 48.4801 33.8691 48.6653V49.0301C33.8738 49.2152 33.9391 49.3937 34.055 49.5382C34.1709 49.6827 34.331 49.7852 34.5107 49.83L35.3589 50.0183C35.4466 50.0504 35.5182 50.1158 35.5581 50.2002L35.5681 50.2275L35.8021 50.7962L35.8158 50.8253C35.8473 50.9126 35.8431 51.0088 35.8039 51.0929L35.3376 51.8259C35.2421 51.9846 35.2013 52.1703 35.2215 52.3545C35.2417 52.5386 35.3217 52.7111 35.4494 52.8453L35.7074 53.1034C35.843 53.2287 36.0152 53.3071 36.1987 53.3273C36.3823 53.3474 36.5674 53.3081 36.7269 53.2152L37.4595 52.7489C37.5064 52.7255 37.5583 52.7142 37.6107 52.716C37.6506 52.7144 37.6904 52.7216 37.7272 52.737L37.7566 52.7505L38.325 52.9847L38.3526 52.9945C38.4369 53.0346 38.5021 53.1062 38.5342 53.1939L38.7228 54.0419C38.7675 54.2217 38.8699 54.3818 39.0144 54.4977C39.1589 54.6137 39.3375 54.679 39.5227 54.6836H39.8874C40.0726 54.6789 40.2511 54.6136 40.3956 54.4977C40.5401 54.3817 40.6425 54.2216 40.6873 54.0419L40.8759 53.1939C40.9079 53.1061 40.9731 53.0345 41.0575 52.9945L41.0849 52.9847L41.6533 52.7505L41.6827 52.737C41.7195 52.7217 41.7592 52.7145 41.799 52.716C41.8513 52.7142 41.9032 52.7255 41.95 52.7489L42.6832 53.215C42.8426 53.3081 43.0278 53.3474 43.2113 53.3273C43.3948 53.3072 43.5671 53.2287 43.7026 53.1034L43.9605 52.8455C44.0881 52.7112 44.1682 52.5388 44.1884 52.3546C44.2087 52.1704 44.1679 51.9847 44.0725 51.8259L43.606 51.0929C43.5866 51.0513 43.5756 51.0062 43.5736 50.9604C43.5716 50.9145 43.5786 50.8687 43.5943 50.8255L43.6078 50.7963L43.8418 50.2275L43.8518 50.2002C43.8918 50.1157 43.9635 50.0504 44.0513 50.0183L44.899 49.83C45.0788 49.7853 45.239 49.6828 45.355 49.5383C45.4709 49.3938 45.5363 49.2153 45.541 49.0301V48.6653C45.5363 48.4801 45.471 48.3016 45.3551 48.1571C45.2391 48.0126 45.079 47.9101 44.8992 47.8654Z" fill="#1B93EB"/>
<path d="M39.705 50.7211C40.7369 50.7211 41.5734 49.8846 41.5734 48.8527C41.5734 47.8209 40.7369 46.9844 39.705 46.9844C38.6732 46.9844 37.8367 47.8209 37.8367 48.8527C37.8367 49.8846 38.6732 50.7211 39.705 50.7211Z" fill="#0078D4"/>
<path d="M65.1372 48.1426H54.4712C54.3342 48.1426 54.2028 48.0881 54.1059 47.9913C54.009 47.8944 53.9546 47.763 53.9546 47.626C53.9546 47.489 54.009 47.3576 54.1059 47.2607C54.2028 47.1638 54.3342 47.1094 54.4712 47.1094H65.1372C65.2742 47.1094 65.4056 47.1638 65.5025 47.2607C65.5994 47.3576 65.6538 47.489 65.6538 47.626C65.6538 47.763 65.5994 47.8944 65.5025 47.9913C65.4056 48.0881 65.2742 48.1426 65.1372 48.1426V48.1426Z" fill="#0078D4"/>
<path d="M67.6968 50.6934H54.4712C54.3342 50.6934 54.2028 50.6389 54.1059 50.542C54.009 50.4452 53.9546 50.3138 53.9546 50.1768C53.9546 50.0397 54.009 49.9083 54.1059 49.8115C54.2028 49.7146 54.3342 49.6602 54.4712 49.6602H67.6968C67.8338 49.6602 67.9652 49.7146 68.0621 49.8115C68.1589 49.9083 68.2134 50.0397 68.2134 50.1768C68.2134 50.3138 68.1589 50.4452 68.0621 50.542C67.9652 50.6389 67.8338 50.6934 67.6968 50.6934V50.6934Z" fill="#0078D4"/>
<path d="M67.6968 53.2402H54.4712C54.3342 53.2402 54.2028 53.1858 54.1059 53.0889C54.009 52.992 53.9546 52.8606 53.9546 52.7236C53.9546 52.5866 54.009 52.4552 54.1059 52.3583C54.2028 52.2615 54.3342 52.207 54.4712 52.207H67.6968C67.8338 52.207 67.9652 52.2615 68.0621 52.3583C68.1589 52.4552 68.2134 52.5866 68.2134 52.7236C68.2134 52.8606 68.1589 52.992 68.0621 53.0889C67.9652 53.1858 67.8338 53.2402 67.6968 53.2402V53.2402Z" fill="#0078D4"/>
<path d="M67.6968 55.7871H54.4712C54.3342 55.7871 54.2028 55.7327 54.1059 55.6358C54.009 55.5389 53.9546 55.4075 53.9546 55.2705C53.9546 55.1335 54.009 55.0021 54.1059 54.9052C54.2028 54.8083 54.3342 54.7539 54.4712 54.7539H67.6968C67.8338 54.7539 67.9652 54.8083 68.0621 54.9052C68.1589 55.0021 68.2134 55.1335 68.2134 55.2705C68.2134 55.4075 68.1589 55.5389 68.0621 55.6358C67.9652 55.7327 67.8338 55.7871 67.6968 55.7871V55.7871Z" fill="#0078D4"/>
<path d="M62.0678 42.4375H55.2001C54.4168 42.4375 53.7817 43.0725 53.7817 43.8559V43.8559C53.7817 44.6393 54.4168 45.2743 55.2001 45.2743H62.0678C62.8512 45.2743 63.4862 44.6393 63.4862 43.8559V43.8559C63.4862 43.0725 62.8512 42.4375 62.0678 42.4375Z" fill="#0078D4"/>
<path opacity="0.2" d="M35.6902 30.4571C35.6985 30.6671 35.7075 30.8785 35.72 31.0742C35.7376 31.3857 35.7668 31.6972 35.805 31.998C35.8499 32.3618 36.0589 33.4697 36.1487 33.8232C36.5325 35.3269 37.1353 36.766 37.9378 38.0942C38.6857 39.3315 39.563 40.4858 40.555 41.5376C41.5194 42.5589 42.5709 43.4944 43.6976 44.3335C44.7417 45.1117 45.8287 45.8308 46.9534 46.4873C47.5682 46.8448 48.2666 47.0333 48.9778 47.0337H50.302C51.0129 47.0337 51.711 46.8453 52.3254 46.4878C53.451 45.8316 54.5384 45.112 55.5823 44.3325C56.7086 43.4944 57.7598 42.5597 58.7239 41.539C59.7166 40.4869 60.5945 39.3321 61.343 38.0942C62.1453 36.765 62.7484 35.3254 63.133 33.8212C63.2268 33.4511 63.4182 32.3774 63.4572 32.1284C63.5119 31.7817 63.549 31.436 63.5705 31.0922C63.5841 30.8805 63.5863 30.6688 63.5902 30.457L35.6902 30.4571Z" fill="#003067"/>
<path d="M59.574 22.8556C59.0609 22.8556 58.5597 22.8368 58.0742 22.7997C57.6264 22.7651 57.1812 22.7015 56.7415 22.6094C56.3346 22.5238 55.9359 22.4026 55.5502 22.2471C55.1712 22.0926 54.8089 21.9002 54.4686 21.6727C53.8624 21.258 53.1999 20.9324 52.5012 20.7058C51.8507 20.5004 51.1803 20.364 50.5012 20.299C50.434 20.2925 50.3677 20.2891 50.3015 20.2891H48.9777C48.9115 20.2891 48.8452 20.2925 48.778 20.299C48.0985 20.364 47.4278 20.5006 46.777 20.7063C46.0892 20.9284 45.4362 21.2464 44.8373 21.6509C44.4856 21.8867 44.1118 22.0875 43.7211 22.2505C43.3403 22.4053 42.9462 22.5249 42.5436 22.6079C42.0989 22.7004 41.6489 22.7645 41.1961 22.7997C40.7087 22.8368 40.2117 22.8554 39.7052 22.8556C39.1682 22.8556 38.6532 23.069 38.2735 23.4487C37.8938 23.8284 37.6804 24.3434 37.6804 24.8804L37.6814 30.2418C37.6893 30.484 37.7012 30.7263 37.715 30.9586C37.7309 31.224 37.7556 31.4895 37.7892 31.7549C37.8238 32.0318 38.0176 33.0614 38.0858 33.3299C38.4213 34.6437 38.9479 35.9012 39.6488 37.062C40.3236 38.1779 41.115 39.2188 42.0097 40.1674C42.8943 41.1038 43.8585 41.9615 44.8916 42.7309C45.8752 43.4647 46.8995 44.1423 47.9594 44.7606C48.2685 44.9408 48.62 45.0357 48.9777 45.0355H50.3015C50.6593 45.0357 51.0108 44.9408 51.3199 44.7606C52.3799 44.1423 53.4042 43.4645 54.3876 42.7305C55.4207 41.9614 56.385 41.104 57.2696 40.1679C58.1642 39.219 58.9556 38.1779 59.6305 37.062C60.3314 35.9012 60.858 34.6437 61.1935 33.3299C61.2627 33.0614 61.4417 32.0708 61.4812 31.8167C61.5257 31.5335 61.5567 31.2506 61.5742 30.968C61.591 30.705 61.5992 30.4418 61.5989 30.1785V24.8803C61.5988 24.3433 61.3855 23.8283 61.0058 23.4486C60.626 23.0689 60.111 22.8556 59.574 22.8556V22.8556Z" fill="white"/>
<path d="M50.3017 22.3125C50.8393 22.3634 51.37 22.4709 51.885 22.6333C52.3996 22.8007 52.8875 23.0412 53.3337 23.3473C53.7922 23.6553 54.2811 23.9154 54.7928 24.1234C55.2887 24.3232 55.8012 24.4791 56.3244 24.5891C56.85 24.6997 57.3824 24.7757 57.918 24.8168C58.4561 24.8581 59.008 24.8788 59.5737 24.8788V30.1771C59.5737 30.3979 59.5668 30.6187 59.553 30.8394C59.5392 31.0602 59.5151 31.281 59.4806 31.5017H50.3017V22.3125ZM39.7051 24.8789C40.2639 24.8789 40.8123 24.8582 41.3504 24.8168C41.8894 24.7753 42.4252 24.6992 42.9544 24.5891C43.4781 24.481 43.9908 24.3252 44.486 24.1235C45.0005 23.9102 45.4927 23.6468 45.9554 23.337C46.3992 23.0355 46.8835 22.7986 47.3938 22.6333C47.9088 22.4709 48.4395 22.3634 48.9771 22.3125V31.5018H39.7982C39.7706 31.281 39.7499 31.0602 39.7361 30.8395C39.7223 30.6187 39.712 30.3979 39.7051 30.1772L39.7051 24.8789ZM48.9771 43.009C47.983 42.4291 47.0225 41.7934 46.1003 41.1049C45.1613 40.4067 44.2852 39.6276 43.4822 38.7766C42.6856 37.9329 41.9814 37.0067 41.3815 36.0136C40.7823 35.0225 40.3325 33.9486 40.0466 32.8263H48.9771V43.009ZM50.3017 32.8263H59.2322C58.9463 33.9486 58.4965 35.0225 57.8973 36.0136C57.2973 37.0067 56.5931 37.9329 55.7966 38.7766C54.9935 39.6276 54.1175 40.4067 53.1785 41.1049C52.2563 41.7935 51.2958 42.4292 50.3017 43.009L50.3017 32.8263Z" fill="#0078D4"/>
</g>
<defs>
<linearGradient id="paint0_linear" x1="47.8698" y1="-15.155" x2="51.8525" y2="130.613" gradientUnits="userSpaceOnUse">
<stop stop-color="#00ABDE"/>
<stop offset="1" stop-color="#007ED8"/>
</linearGradient>
<clipPath id="clip0">
<rect width="99.2799" height="99.28" fill="white"/>
</clipPath>
</defs>
</svg>
