<svg width="100" height="100" viewBox="0 0 100 100" fill="none" xmlns="https://www.w3.org/2000/svg">
<g clip-path="url(#clip0)">
<path d="M49.6401 96.4481C40.382 96.4481 31.3317 93.7028 23.6339 88.5592C15.936 83.4157 9.93624 76.105 6.3933 67.5516C2.85036 58.9981 1.92337 49.5862 3.72954 40.506C5.53571 31.4257 9.99394 23.085 16.5404 16.5385C23.0869 9.99198 31.4277 5.53376 40.5079 3.72759C49.5882 1.92141 59.0001 2.84841 67.5535 6.39135C76.1069 9.93428 83.4176 15.934 88.5612 23.6319C93.7047 31.3298 96.4501 40.38 96.4501 49.6381C96.4505 55.7854 95.24 61.8726 92.8878 67.5521C90.5355 73.2315 87.0875 78.392 82.7407 82.7388C78.3939 87.0856 73.2335 90.5335 67.554 92.8858C61.8746 95.2381 55.7874 96.4486 49.6401 96.4481V96.4481Z" fill="url(#paint0_linear)"/>
<path fill-rule="evenodd" clip-rule="evenodd" d="M95.54 49.64C95.54 58.7182 92.848 67.5925 87.8045 75.1407C82.7609 82.6889 75.5923 88.572 67.2052 92.0461C58.818 95.5201 49.5891 96.4291 40.6854 94.658C31.7816 92.887 23.603 88.5154 17.1838 82.0962C10.7646 75.677 6.39302 67.4984 4.62196 58.5946C2.85089 49.6909 3.75987 40.462 7.23393 32.0748C10.708 23.6877 16.5911 16.5191 24.1393 11.4755C31.6875 6.43199 40.5618 3.74 49.64 3.74C55.6677 3.73998 61.6363 4.9272 67.2052 7.23388C72.774 9.54057 77.834 12.9215 82.0963 17.1837C86.3585 21.446 89.7394 26.5059 92.0461 32.0748C94.3528 37.6437 95.54 43.6123 95.54 49.64V49.64ZM49.64 3.62732e-07C59.4579 3.62732e-07 69.0553 2.91134 77.2185 8.36585C85.3818 13.8204 91.7442 21.5731 95.5014 30.6436C99.2585 39.7141 100.242 49.6951 98.3262 59.3243C96.4108 68.9535 91.6831 77.7985 84.7408 84.7408C77.7985 91.6831 68.9535 96.4108 59.3243 98.3262C49.6951 100.242 39.7141 99.2585 30.6436 95.5014C21.5731 91.7442 13.8204 85.3818 8.36585 77.2185C2.91134 69.0553 3.62732e-07 59.4579 3.62732e-07 49.64C-0.000787738 43.121 1.28265 36.6656 3.77702 30.6427C6.27138 24.6197 9.9278 19.1471 14.5375 14.5375C19.1471 9.9278 24.6197 6.27138 30.6427 3.77702C36.6656 1.28265 43.121 -0.000787738 49.64 3.62732e-07V3.62732e-07Z" fill="#F2F1F0"/>
<path opacity="0.2" d="M26.0112 69.913H73.2668C73.5151 69.9123 73.753 69.8134 73.9286 69.6378C74.1042 69.4622 74.2031 69.2243 74.2038 68.976V32.082H25.0742V68.976C25.0749 69.2243 25.1739 69.4622 25.3495 69.6378C25.525 69.8134 25.7629 69.9123 26.0112 69.913V69.913Z" fill="#003067"/>
<path d="M26.0112 67.9873H73.2668C73.5151 67.9866 73.753 67.8876 73.9286 67.7121C74.1042 67.5365 74.2031 67.2986 74.2038 67.0503V30.1562H25.0742V67.0503C25.0749 67.2986 25.1739 67.5365 25.3495 67.7121C25.525 67.8876 25.7629 67.9866 26.0112 67.9873V67.9873Z" fill="#F2F2F2"/>
<path d="M25.0742 34.2394H74.2038V29.8355C74.2041 29.7411 74.1857 29.6476 74.1497 29.5604C74.1137 29.4731 74.0608 29.3938 73.994 29.327C73.9272 29.2603 73.8479 29.2074 73.7607 29.1714C73.6734 29.1354 73.5799 29.1169 73.4855 29.1172H25.7926C25.6982 29.1169 25.6047 29.1354 25.5174 29.1714C25.4301 29.2074 25.3508 29.2603 25.2841 29.327C25.2173 29.3938 25.1644 29.4731 25.1284 29.5604C25.0924 29.6476 25.074 29.7411 25.0742 29.8355V34.2394Z" fill="#092E4C"/>
<path d="M28.8539 33.026C29.1002 33.0252 29.3407 32.9514 29.5451 32.814C29.7495 32.6765 29.9085 32.4815 30.0021 32.2536C30.0956 32.0257 30.1195 31.7752 30.0707 31.5338C30.0219 31.2924 29.9026 31.0708 29.7278 30.8972C29.5531 30.7236 29.3308 30.6056 29.0891 30.5583C28.8474 30.511 28.597 30.5365 28.3697 30.6315C28.1425 30.7264 27.9485 30.8867 27.8123 31.0919C27.676 31.2972 27.6038 31.5382 27.6045 31.7845C27.6032 31.9486 27.6347 32.1112 27.6971 32.263C27.7595 32.4147 27.8516 32.5525 27.968 32.6681C28.0843 32.7838 28.2227 32.875 28.3748 32.9365C28.5269 32.9979 28.6898 33.0284 28.8539 33.026Z" fill="#50E6FF"/>
<path d="M69.8488 37.4062H29.4196C28.8869 37.4062 28.4551 37.8381 28.4551 38.3708V63.5033C28.4551 64.036 28.8869 64.4678 29.4196 64.4678H69.8488C70.3815 64.4678 70.8133 64.036 70.8133 63.5033V38.3708C70.8133 37.8381 70.3815 37.4062 69.8488 37.4062Z" fill="#E8E8E8"/>
<path d="M49.6397 60.8556C54.7516 60.8556 58.8956 56.7116 58.8956 51.5997C58.8956 46.4878 54.7516 42.3438 49.6397 42.3438C44.5278 42.3438 40.3838 46.4878 40.3838 51.5997C40.3838 56.7116 44.5278 60.8556 49.6397 60.8556Z" fill="white"/>
<path d="M49.6397 52.709C51.3337 52.709 52.7071 51.3357 52.7071 49.6416C52.7071 47.9475 51.3337 46.5742 49.6397 46.5742C47.9456 46.5742 46.5723 47.9475 46.5723 49.6416C46.5723 51.3357 47.9456 52.709 49.6397 52.709Z" fill="#0078D4"/>
<path d="M53.8011 57.1862C54.0563 56.987 54.2247 56.6969 54.2713 56.3766C54.3178 56.0562 54.2389 55.7302 54.0509 55.4667C53.5533 54.759 52.8927 54.1814 52.125 53.7827C51.3572 53.3839 50.5048 53.1758 49.6397 53.1758C48.7746 53.1758 47.9222 53.3839 47.1544 53.7827C46.3867 54.1814 45.7261 54.759 45.2285 55.4667C45.0406 55.7302 44.9616 56.0562 45.0082 56.3766C45.0547 56.6969 45.2231 56.987 45.4783 57.1861C46.6803 58.0833 48.1399 58.568 49.6397 58.568C51.1395 58.568 52.5992 58.0833 53.8011 57.1861V57.1862Z" fill="#0078D4"/>
<path d="M58.773 52.0235C58.5376 52.0236 58.3069 51.9578 58.107 51.8335C57.0445 51.1744 53.5738 48.7715 53.5738 45.5518V42.2339C53.5719 41.9033 53.7004 41.5853 53.9315 41.3489C54.1626 41.1125 54.4776 40.9768 54.8081 40.9712C55.429 41.0249 56.0476 40.8464 56.5445 40.4702C57.1961 40.0093 57.9747 39.7617 58.773 39.7617C59.5712 39.7617 60.3498 40.0093 61.0015 40.4702C61.4992 40.8468 62.1189 41.0253 62.7407 40.9712C63.0708 40.9774 63.3851 41.1135 63.6156 41.3498C63.8461 41.5862 63.9742 41.9038 63.9721 42.2339V45.5518C63.9721 48.7686 60.5024 51.1734 59.4389 51.834C59.2389 51.9579 59.0083 52.0235 58.773 52.0235V52.0235Z" fill="white"/>
<path fill-rule="evenodd" clip-rule="evenodd" d="M58.773 41.2344C57.949 42.178 56.4985 42.4913 54.8442 42.4913V45.0052C54.8442 47.5981 55.9929 49.2664 58.773 50.6634C61.553 49.2664 62.7017 47.5981 62.7017 45.0052V42.4913C61.0474 42.4913 59.5969 42.178 58.773 41.2344Z" fill="#C3F1FF"/>
<path fill-rule="evenodd" clip-rule="evenodd" d="M58.7729 41.2344V50.6634C61.553 49.2664 62.7017 47.598 62.7017 45.0052V42.4913C61.0474 42.4913 59.5969 42.178 58.7729 41.2344Z" fill="#50E6FF"/>
<path d="M62.9721 45.552C62.9721 48.3121 59.6366 50.5339 58.9107 50.9844C58.8693 51.0101 58.8215 51.0237 58.7727 51.0237C58.7239 51.0237 58.6761 51.0101 58.6347 50.9844C57.9087 50.5339 54.5732 48.3121 54.5732 45.552V42.2342C54.5734 42.1653 54.6004 42.0992 54.6485 42.05C54.6967 42.0008 54.7622 41.9723 54.831 41.9707C57.4257 41.9023 56.8281 40.7617 58.7727 40.7617C60.7173 40.7617 60.1197 41.9023 62.7144 41.9707C62.7832 41.9723 62.8487 42.0008 62.8969 42.05C62.945 42.0992 62.972 42.1653 62.9722 42.2342L62.9721 45.552Z" fill="#50E6FF"/>
<path d="M62.6241 45.5826C62.6241 48.1134 59.5646 50.151 58.8991 50.5644C58.8612 50.5882 58.8173 50.6008 58.7725 50.6008C58.7277 50.6008 58.6838 50.5882 58.6459 50.5644C57.9804 50.151 54.9209 48.1123 54.9209 45.5826V42.5373C54.9212 42.4742 54.9461 42.4137 54.9903 42.3687C55.0345 42.3236 55.0945 42.2976 55.1576 42.2961C57.5373 42.2317 56.9893 41.1875 58.7725 41.1875C60.5557 41.1875 60.0077 42.2317 62.3874 42.2961C62.4505 42.2976 62.5105 42.3236 62.5547 42.3687C62.5989 42.4137 62.6238 42.4742 62.6241 42.5373L62.6241 45.5826Z" fill="url(#paint1_linear)"/>
<path d="M59.2598 46.0743C59.6633 46.0743 59.9903 45.7472 59.9903 45.3438C59.9903 44.9403 59.6633 44.6133 59.2598 44.6133C58.8564 44.6133 58.5293 44.9403 58.5293 45.3438C58.5293 45.7472 58.8564 46.0743 59.2598 46.0743Z" fill="white"/>
<path d="M58.2106 47.6194C58.483 47.6194 58.7038 47.3985 58.7038 47.1261C58.7038 46.8537 58.483 46.6328 58.2106 46.6328C57.9381 46.6328 57.7173 46.8537 57.7173 47.1261C57.7173 47.3985 57.9381 47.6194 58.2106 47.6194Z" fill="white"/>
<path d="M57.8546 43.9816C58.1925 43.9816 58.4665 43.7077 58.4665 43.3697C58.4665 43.0318 58.1925 42.7578 57.8546 42.7578C57.5166 42.7578 57.2427 43.0318 57.2427 43.3697C57.2427 43.7077 57.5166 43.9816 57.8546 43.9816Z" fill="white"/>
<path d="M60.6167 47.403L59.3827 45.241L59.2597 45.312L59.3597 45.238L57.9617 43.25L57.7067 43.436L58.9447 45.197L56.1997 45.423L56.2267 45.742L58.9447 45.516L58.0437 47.014L58.3137 47.177L59.2417 45.635L60.3427 47.559L60.6167 47.403Z" fill="#E6E6E6"/>
<path d="M59.2595 44.622C59.4062 44.622 59.5495 44.6655 59.6714 44.7469C59.7933 44.8284 59.8884 44.9442 59.9445 45.0796C60.0006 45.2151 60.0153 45.3642 59.9867 45.508C59.958 45.6518 59.8874 45.7839 59.7838 45.8876C59.6801 45.9912 59.548 46.0618 59.4042 46.0904C59.2604 46.1191 59.1113 46.1044 58.9758 46.0483C58.8404 45.9921 58.7246 45.8971 58.6431 45.7752C58.5617 45.6533 58.5182 45.51 58.5182 45.3633V45.3451C58.523 45.1517 58.6032 44.9678 58.7417 44.8326C58.8802 44.6975 59.066 44.6219 59.2595 44.622V44.622ZM57.2573 43.3674C57.2561 43.4892 57.291 43.6086 57.3576 43.7106C57.4243 43.8126 57.5197 43.8925 57.6317 43.9403C57.7438 43.988 57.8675 44.0015 57.9872 43.9789C58.1069 43.9564 58.2172 43.8988 58.3042 43.8136C58.3912 43.7283 58.451 43.6192 58.476 43.5C58.501 43.3807 58.49 43.2568 58.4446 43.1438C58.3991 43.0308 58.3211 42.9338 58.2206 42.8651C58.12 42.7964 58.0013 42.7591 57.8795 42.7578H57.8761H57.8601C57.6995 42.7599 57.5462 42.8252 57.4333 42.9395C57.3205 43.0538 57.2573 43.208 57.2573 43.3686L57.2573 43.3674ZM55.7222 45.62C55.7222 45.7175 55.7511 45.8129 55.8053 45.894C55.8595 45.9751 55.9365 46.0384 56.0267 46.0757C56.1168 46.113 56.216 46.1228 56.3117 46.1038C56.4074 46.0847 56.4953 46.0378 56.5643 45.9688C56.6333 45.8998 56.6802 45.8119 56.6993 45.7162C56.7183 45.6205 56.7085 45.5213 56.6712 45.4312C56.6339 45.3411 56.5706 45.264 56.4895 45.2098C56.4084 45.1556 56.313 45.1267 56.2155 45.1267H56.2149C56.0842 45.1268 55.9588 45.1789 55.8664 45.2714C55.7741 45.3639 55.7222 45.4892 55.7222 45.62V45.62ZM57.7181 47.1215C57.7173 47.2198 57.7457 47.3162 57.7997 47.3984C57.8537 47.4806 57.9308 47.545 58.0214 47.5834C58.112 47.6217 58.2119 47.6324 58.3085 47.614C58.4051 47.5955 58.4941 47.5489 58.5642 47.4799C58.6343 47.4109 58.6823 47.3227 58.7023 47.2264C58.7223 47.1301 58.7132 47.03 58.6763 46.9388C58.6394 46.8477 58.5763 46.7695 58.4949 46.7142C58.4136 46.6589 58.3177 46.629 58.2193 46.6282H58.2188H58.2137C58.0829 46.6274 57.9571 46.6786 57.864 46.7704C57.7709 46.8623 57.718 46.9873 57.717 47.1181L57.7181 47.1215ZM59.9136 47.5207C59.9127 47.6343 59.9456 47.7458 60.008 47.8408C60.0704 47.9358 60.1596 48.0102 60.2643 48.0545C60.369 48.0989 60.4844 48.1112 60.5961 48.0899C60.7078 48.0686 60.8107 48.0146 60.8917 47.9349C60.9727 47.8551 61.0283 47.7531 61.0513 47.6418C61.0744 47.5305 61.0639 47.4148 61.0213 47.3095C60.9786 47.2041 60.9056 47.1137 60.8116 47.0498C60.7176 46.9859 60.6067 46.9513 60.493 46.9504H60.4885C60.3384 46.9481 60.1936 47.0054 60.0857 47.1098C59.9779 47.2141 59.9158 47.3569 59.9131 47.507L59.9136 47.5207Z" fill="white"/>
<path d="M59.0888 70.439H76.4048C76.6861 70.4382 76.9556 70.3261 77.1545 70.1272C77.3534 69.9283 77.4654 69.6588 77.4663 69.3776V53.1763L71.8294 49.9923L65.3892 49.6406L58.4089 52.708L55.7227 60.8568L58.0274 69.3775C58.0282 69.6588 58.1403 69.9283 58.3391 70.1272C58.538 70.326 58.8075 70.4382 59.0888 70.439V70.439Z" fill="#F2F2F2"/>
<path d="M61.6883 50.0547H72.5328C72.8226 50.0547 73.1005 50.1698 73.3054 50.3747C73.5103 50.5796 73.6254 50.8575 73.6254 51.1473V65.364C73.6254 65.6538 73.5103 65.9317 73.3054 66.1366C73.1005 66.3415 72.8226 66.4566 72.5328 66.4566H58.2635C58.1201 66.4566 57.978 66.4284 57.8454 66.3735C57.7128 66.3186 57.5924 66.2381 57.4909 66.1366C57.3895 66.0352 57.309 65.9147 57.2541 65.7822C57.1992 65.6496 57.1709 65.5075 57.1709 65.364V54.572C57.1709 53.9788 57.2878 53.3914 57.5148 52.8433C57.7418 52.2952 58.0745 51.7972 58.494 51.3778C58.9135 50.9583 59.4115 50.6255 59.9596 50.3985C60.5077 50.1715 61.0951 50.0547 61.6883 50.0547Z" fill="#E8E8E8"/>
<path fill-rule="evenodd" clip-rule="evenodd" d="M56.7993 61.3194C56.7993 59.1542 57.4413 57.0377 58.6442 55.2374C59.8471 53.4372 61.5569 52.0341 63.5572 51.2055C65.5575 50.3769 67.7586 50.1601 69.8822 50.5825C72.0057 51.0049 73.9563 52.0475 75.4873 53.5785C77.0183 55.1095 78.0609 57.0601 78.4833 59.1837C78.9057 61.3072 78.6889 63.5084 77.8604 65.5087C77.0318 67.509 75.6287 69.2187 73.8284 70.4216C72.0282 71.6245 69.9116 72.2666 67.7465 72.2666C64.844 72.2637 62.0611 71.1095 60.0088 69.0571C57.9564 67.0047 56.8021 64.2219 56.7993 61.3194V61.3194ZM83.2003 75.0557L78.0247 69.8758C80.2346 67.2249 81.3373 63.8241 81.1036 60.3808C80.8698 56.9376 79.3176 53.717 76.7697 51.3891C74.2219 49.0611 70.8747 47.8051 67.4244 47.8823C63.9741 47.9594 60.6863 49.3638 58.2451 51.8033C55.8039 54.2428 54.3971 57.5295 54.3175 60.9798C54.2379 64.4301 55.4916 67.7782 57.8177 70.3277C60.1438 72.8771 63.3633 74.4317 66.8064 74.6678C70.2495 74.904 73.6511 73.8037 76.3036 71.5957L81.4852 76.7756L83.2003 75.0557Z" fill="#30404D"/>
<path fill-rule="evenodd" clip-rule="evenodd" d="M65.8493 74.5678C69.249 75.0553 72.7059 74.2136 75.501 72.2178C75.734 72.0518 76.0184 71.9738 76.3035 71.9978C76.5886 72.0217 76.8559 72.146 77.058 72.3486L80.6219 75.9162H82.343L75.4828 69.0572C74.4667 70.0731 73.2605 70.8789 71.933 71.4286C70.6055 71.9784 69.1827 72.2613 67.7459 72.2611C66.3091 72.261 64.8863 71.9779 63.5589 71.428C62.2315 70.878 61.0254 70.072 60.0095 69.0559C58.9936 68.0398 58.1878 66.8336 57.638 65.5061C57.0883 64.1786 56.8054 62.7558 56.8055 61.319C56.8056 59.8822 57.0887 58.4594 57.6387 57.132C58.1887 55.8046 58.9947 54.5985 60.0108 53.5826L58.2896 51.8633C56.5307 53.6187 55.2957 55.8295 54.7231 58.2476C54.1505 60.6657 54.2631 63.1956 55.0481 65.5533C55.8331 67.9111 57.2596 70.0035 59.1675 71.5957C61.0753 73.188 63.3891 74.2172 65.8493 74.5678V74.5678Z" fill="#182A37"/>
<path fill-rule="evenodd" clip-rule="evenodd" d="M82.0471 80.6231L79.0583 77.6334C78.8246 77.3984 78.6934 77.0805 78.6934 76.7491C78.6934 76.4177 78.8246 76.0998 79.0583 75.8648L82.2938 72.6305C82.529 72.3968 82.8471 72.2656 83.1787 72.2656C83.5103 72.2656 83.8284 72.3968 84.0636 72.6305L86.9383 75.5061L82.0471 80.6231Z" fill="#0078D4"/>
<path fill-rule="evenodd" clip-rule="evenodd" d="M84.4921 78.063L82.2879 75.8601C82.1754 75.7472 82.0418 75.6576 81.8946 75.5965C81.7475 75.5354 81.5897 75.5039 81.4303 75.5039C81.271 75.5039 81.1132 75.5354 80.966 75.5965C80.8189 75.6576 80.6853 75.7472 80.5728 75.8601L78.9429 77.4888V77.515L82.0474 80.6206L84.4921 78.063Z" fill="#1F56A3"/>
<path fill-rule="evenodd" clip-rule="evenodd" d="M78.6937 61.3183C78.6937 63.4834 78.0517 65.5999 76.8488 67.4002C75.6459 69.2005 73.9362 70.6036 71.9358 71.4322C69.9355 72.2607 67.7344 72.4775 65.6108 72.0551C63.4873 71.6327 61.5367 70.5901 60.0057 69.0591C58.4747 67.5281 57.4321 65.5775 57.0097 63.454C56.5873 61.3304 56.8041 59.1293 57.6326 57.129C58.4612 55.1287 59.8643 53.4189 61.6646 52.216C63.4648 51.0131 65.5813 50.3711 67.7465 50.3711C70.6498 50.3712 73.4342 51.5246 75.4872 53.5776C77.5402 55.6306 78.6936 58.4149 78.6937 61.3183V61.3183Z" fill="url(#paint2_linear)"/>
<path opacity="0.2" fill-rule="evenodd" clip-rule="evenodd" d="M74.1695 52.4648C75.702 54.5714 76.4321 57.1558 76.2284 59.7529C76.0247 62.3499 74.9005 64.7889 73.0583 66.6308C71.216 68.4726 68.7767 69.5962 66.1797 69.7993C63.5826 70.0024 60.9983 69.2717 58.8921 67.7386C59.82 69.0212 61.0153 70.087 62.3953 70.8626C63.7753 71.6382 65.3072 72.1051 66.8852 72.231C68.4632 72.3568 70.0498 72.1387 71.5353 71.5917C73.0208 71.0446 74.3699 70.1817 75.4894 69.0624C76.6089 67.9432 77.4721 66.5943 78.0195 65.1089C78.5669 63.6236 78.7854 62.0371 78.6599 60.459C78.5344 58.881 78.0679 57.349 77.2927 55.9688C76.5174 54.5886 75.4518 53.3931 74.1695 52.4648V52.4648Z" fill="#ABDCEC"/>
<path fill-rule="evenodd" clip-rule="evenodd" d="M92.7296 49.6386C92.7296 58.161 90.2024 66.492 85.4676 73.5781C80.7328 80.6643 74.0031 86.1872 66.1294 89.4486C58.2557 92.71 49.5918 93.5633 41.2331 91.9007C32.8745 90.238 25.1966 86.1341 19.1703 80.1079C13.1441 74.0816 9.04017 66.4037 7.37753 58.0451C5.7149 49.6864 6.56822 41.0225 9.8296 33.1488C13.091 25.2751 18.6139 18.5454 25.7 13.8106C32.7862 9.07581 41.1172 6.54862 49.6396 6.54862C55.2983 6.54828 60.9017 7.6626 66.1298 9.82795C71.3579 11.9933 76.1082 15.1673 80.1096 19.1686C84.1109 23.17 87.2849 27.9203 89.4502 33.1484C91.6156 38.3765 92.7299 43.9799 92.7296 49.6386V49.6386ZM49.6396 2.80862C58.9017 2.80862 67.9558 5.55515 75.6569 10.7009C83.3581 15.8466 89.3604 23.1605 92.9049 31.7176C96.4493 40.2746 97.3767 49.6906 95.5697 58.7747C93.7628 67.8588 89.3027 76.2031 82.7534 82.7524C76.2041 89.3017 67.8598 93.7619 58.7757 95.5688C49.6915 97.3757 40.2756 96.4484 31.7185 92.9039C23.1614 89.3594 15.8476 83.3571 10.7018 75.656C5.5561 67.9548 2.80957 58.9007 2.80957 49.6386C2.81076 37.2189 7.745 25.3082 16.5271 16.5261C25.3091 7.74403 37.2198 2.80979 49.6396 2.80859V2.80862Z" fill="#0078D4"/>
</g>
<defs>
<linearGradient id="paint0_linear" x1="47.8697" y1="-15.155" x2="51.8525" y2="130.613" gradientUnits="userSpaceOnUse">
<stop stop-color="#00ABDE"/>
<stop offset="1" stop-color="#007ED8"/>
</linearGradient>
<linearGradient id="paint1_linear" x1="58.7725" y1="50.6008" x2="58.7725" y2="41.1875" gradientUnits="userSpaceOnUse">
<stop stop-color="#50E6FF"/>
<stop offset="1" stop-color="#9CEBFF"/>
</linearGradient>
<linearGradient id="paint2_linear" x1="67.7465" y1="72.2655" x2="67.7465" y2="50.3711" gradientUnits="userSpaceOnUse">
<stop stop-color="white"/>
<stop offset="1" stop-color="white" stop-opacity="0"/>
</linearGradient>
<clipPath id="clip0">
<rect width="99.2799" height="99.28" fill="white"/>
</clipPath>
</defs>
</svg>
