<svg width="100" height="100" viewBox="0 0 100 100" fill="none" xmlns="http://www.w3.org/2000/svg">
<g clip-path="url(#clip0)">
<path d="M49.6401 96.4481C40.382 96.4481 31.3317 93.7028 23.6339 88.5592C15.936 83.4157 9.93624 76.105 6.3933 67.5516C2.85036 58.9981 1.92337 49.5862 3.72954 40.506C5.53571 31.4257 9.99394 23.085 16.5404 16.5385C23.0869 9.99198 31.4277 5.53376 40.5079 3.72759C49.5882 1.92141 59.0001 2.84841 67.5535 6.39135C76.1069 9.93428 83.4176 15.934 88.5612 23.6319C93.7047 31.3298 96.4501 40.38 96.4501 49.6381C96.4505 55.7854 95.24 61.8726 92.8878 67.5521C90.5355 73.2315 87.0875 78.392 82.7407 82.7388C78.3939 87.0856 73.2335 90.5335 67.554 92.8858C61.8746 95.2381 55.7874 96.4486 49.6401 96.4481V96.4481Z" fill="url(#paint0_linear)"/>
<path fill-rule="evenodd" clip-rule="evenodd" d="M95.54 49.64C95.54 58.7182 92.848 67.5925 87.8045 75.1407C82.7609 82.6889 75.5923 88.572 67.2052 92.0461C58.818 95.5201 49.5891 96.4291 40.6854 94.658C31.7816 92.887 23.603 88.5154 17.1838 82.0962C10.7646 75.677 6.39302 67.4984 4.62196 58.5946C2.85089 49.6909 3.75987 40.462 7.23393 32.0748C10.708 23.6877 16.5911 16.5191 24.1393 11.4755C31.6875 6.43199 40.5618 3.74 49.64 3.74C55.6677 3.73998 61.6363 4.9272 67.2052 7.23388C72.774 9.54057 77.834 12.9215 82.0963 17.1837C86.3585 21.446 89.7394 26.5059 92.0461 32.0748C94.3528 37.6437 95.54 43.6123 95.54 49.64V49.64ZM49.64 3.62732e-07C59.4579 3.62732e-07 69.0553 2.91134 77.2185 8.36585C85.3818 13.8204 91.7442 21.5731 95.5014 30.6436C99.2585 39.7141 100.242 49.6951 98.3262 59.3243C96.4108 68.9535 91.6831 77.7985 84.7408 84.7408C77.7985 91.6831 68.9535 96.4108 59.3243 98.3262C49.6951 100.242 39.7141 99.2585 30.6436 95.5014C21.5731 91.7442 13.8204 85.3818 8.36585 77.2185C2.91134 69.0553 3.62732e-07 59.4579 3.62732e-07 49.64C-0.000787738 43.121 1.28265 36.6656 3.77702 30.6427C6.27138 24.6197 9.9278 19.1471 14.5375 14.5375C19.1471 9.9278 24.6197 6.27138 30.6427 3.77702C36.6656 1.28265 43.121 -0.000787738 49.64 3.62732e-07V3.62732e-07Z" fill="#F2F1F0"/>
<path fill-rule="evenodd" clip-rule="evenodd" d="M92.7296 49.6386C92.7296 58.161 90.2024 66.492 85.4676 73.5781C80.7328 80.6643 74.0031 86.1872 66.1294 89.4486C58.2557 92.71 49.5918 93.5633 41.2331 91.9007C32.8745 90.238 25.1966 86.1341 19.1703 80.1079C13.1441 74.0816 9.04017 66.4037 7.37753 58.0451C5.7149 49.6864 6.56822 41.0225 9.8296 33.1488C13.091 25.2751 18.6139 18.5454 25.7 13.8106C32.7862 9.07581 41.1172 6.54862 49.6396 6.54862C55.2983 6.54828 60.9017 7.6626 66.1298 9.82795C71.3579 11.9933 76.1082 15.1673 80.1096 19.1686C84.1109 23.17 87.2849 27.9203 89.4502 33.1484C91.6156 38.3765 92.7299 43.9799 92.7296 49.6386V49.6386ZM49.6396 2.80862C58.9017 2.80862 67.9558 5.55515 75.6569 10.7009C83.3581 15.8466 89.3604 23.1605 92.9049 31.7176C96.4493 40.2746 97.3767 49.6906 95.5697 58.7747C93.7628 67.8588 89.3027 76.2031 82.7534 82.7524C76.2041 89.3017 67.8598 93.7619 58.7757 95.5688C49.6915 97.3757 40.2756 96.4484 31.7185 92.9039C23.1614 89.3594 15.8476 83.3571 10.7018 75.656C5.5561 67.9548 2.80957 58.9007 2.80957 49.6386C2.81076 37.2189 7.745 25.3082 16.5271 16.5261C25.3091 7.74403 37.2198 2.80979 49.6396 2.80859V2.80862Z" fill="#0078D4"/>
<path fill-rule="evenodd" clip-rule="evenodd" d="M92.7296 49.6386C92.7296 58.161 90.2024 66.492 85.4676 73.5781C80.7328 80.6642 74.0031 86.1872 66.1294 89.4486C58.2557 92.7099 49.5918 93.5633 41.2331 91.9006C32.8745 90.238 25.1966 86.1341 19.1703 80.1078C13.1441 74.0816 9.04017 66.4037 7.37753 58.045C5.7149 49.6864 6.56822 41.0224 9.8296 33.1488C13.091 25.2751 18.6139 18.5454 25.7001 13.8106C32.7862 9.07578 41.1172 6.54859 49.6396 6.54859C55.2983 6.54825 60.9017 7.66257 66.1298 9.82792C71.3579 11.9933 76.1082 15.1673 80.1096 19.1686C84.1109 23.1699 87.2849 27.9203 89.4502 33.1484C91.6156 38.3764 92.7299 43.9798 92.7296 49.6386V49.6386ZM49.6396 2.80859C58.9017 2.80859 67.9558 5.55513 75.6569 10.7009C83.3581 15.8466 89.3604 23.1605 92.9048 31.7175C96.4493 40.2746 97.3767 49.6905 95.5697 58.7747C93.7628 67.8588 89.3027 76.2031 82.7534 82.7524C76.2041 89.3017 67.8598 93.7618 58.7757 95.5688C49.6915 97.3757 40.2756 96.4483 31.7185 92.9039C23.1614 89.3594 15.8476 83.3571 10.7018 75.656C5.5561 67.9548 2.80957 58.9007 2.80957 49.6386C2.81076 37.2189 7.74501 25.3082 16.5271 16.5261C25.3091 7.74403 37.2198 2.80979 49.6396 2.80859V2.80859Z" fill="#0078D4"/>
<path fill-rule="evenodd" clip-rule="evenodd" d="M71.4192 72.2856C71.4161 73.335 70.9979 74.3404 70.2559 75.0824C69.514 75.8244 68.5085 76.2426 67.4592 76.2456H31.8196C30.7703 76.2426 29.7648 75.8244 29.0229 75.0824C28.2809 74.3404 27.8627 73.335 27.8596 72.2856V42.5859H71.4192V72.2856Z" fill="#1F56A3"/>
<path fill-rule="evenodd" clip-rule="evenodd" d="M71.4192 42.5839C71.4161 43.6333 70.9979 44.6387 70.2559 45.3807C69.514 46.1227 68.5085 46.5409 67.4592 46.5439H31.8196C30.7703 46.5409 29.7648 46.1227 29.0229 45.3807C28.2809 44.6387 27.8627 43.6333 27.8596 42.5839V38.6239C27.8627 37.5746 28.2809 36.5692 29.0229 35.8272C29.7649 35.0853 30.7703 34.6671 31.8196 34.6641H67.4592C68.5085 34.6671 69.514 35.0853 70.2559 35.8272C70.9979 36.5692 71.4161 37.5746 71.4192 38.6239L71.4192 42.5839Z" fill="#0078D4"/>
<path opacity="0.2" fill-rule="evenodd" clip-rule="evenodd" d="M67.4592 47.5342H51.6193C51.3593 47.5341 51.1018 47.5853 50.8616 47.6847C50.6213 47.7842 50.403 47.9301 50.2192 48.1139C50.0353 48.2978 49.8894 48.5161 49.79 48.7563C49.6905 48.9966 49.6393 49.2541 49.6394 49.5141V72.2838C49.6395 72.5439 49.5883 72.8014 49.4888 73.0416C49.3894 73.2819 49.2435 73.5002 49.0597 73.684C48.8758 73.8679 48.6575 74.0138 48.4172 74.1132C48.177 74.2127 47.9195 74.2639 47.6595 74.2638H31.8196C30.7703 74.2608 29.7648 73.8426 29.0229 73.1006C28.2809 72.3586 27.8627 71.3531 27.8596 70.3038V72.2838C27.8627 73.3331 28.2809 74.3386 29.0228 75.0806C29.7648 75.8226 30.7703 76.2408 31.8196 76.2438H67.4592C68.5085 76.2408 69.514 75.8226 70.256 75.0806C70.998 74.3386 71.4162 73.3331 71.4192 72.2838V43.5742C71.4161 44.6235 70.9979 45.629 70.256 46.3709C69.514 47.1129 68.5085 47.5311 67.4592 47.5342V47.5342Z" fill="#003067"/>
<path fill-rule="evenodd" clip-rule="evenodd" d="M40.7293 40.6066C40.7293 42.2461 38.9562 43.5766 36.7693 43.5766C34.5824 43.5766 32.8093 42.2461 32.8093 40.6066C32.8093 38.9672 34.5824 37.6367 36.7693 37.6367C38.9562 37.6367 40.7293 38.9672 40.7293 40.6066Z" fill="#182A37"/>
<path fill-rule="evenodd" clip-rule="evenodd" d="M66.4693 40.6067C66.4693 42.2461 64.6962 43.5767 62.5093 43.5767C60.3224 43.5767 58.5493 42.2461 58.5493 40.6067C58.5493 38.9672 60.3224 37.6367 62.5093 37.6367C64.6962 37.6367 66.4693 38.9672 66.4693 40.6067Z" fill="#182A37"/>
<path fill-rule="evenodd" clip-rule="evenodd" d="M49.6394 12.8867C45.4399 12.8916 41.4138 14.562 38.4443 17.5315C35.4748 20.501 33.8044 24.5271 33.7996 28.7266V42.5517C34.6472 43.2156 35.6928 43.5764 36.7695 43.5764C37.8462 43.5764 38.8919 43.2156 39.7395 42.5517V28.7266C39.7421 26.1027 40.7863 23.5872 42.6426 21.7327C44.4989 19.8783 47.0155 18.8366 49.6394 18.8366C52.2633 18.8366 54.7798 19.8783 56.6361 21.7327C58.4924 23.5872 59.5366 26.1027 59.5393 28.7266V42.5517C59.9416 42.9109 60.4114 43.1864 60.9213 43.3623C61.4312 43.5383 61.971 43.611 62.5092 43.5764C63.0485 43.6249 63.592 43.5586 64.1039 43.382C64.6158 43.2054 65.0845 42.9224 65.4792 42.5517V28.7266C65.4743 24.5271 63.8039 20.501 60.8344 17.5315C57.865 14.562 53.8389 12.8916 49.6394 12.8867V12.8867Z" fill="white"/>
<path opacity="0.2" fill-rule="evenodd" clip-rule="evenodd" d="M43.9608 19.5764C42.0983 20.3919 40.5171 21.7377 39.4143 23.4459C38.3116 25.1541 37.736 27.1491 37.7595 29.1822V39.3157C37.7608 39.6186 37.6924 39.9176 37.5597 40.1898C37.4269 40.462 37.2333 40.7 36.9939 40.8853C36.7544 41.0707 36.4756 41.1985 36.1788 41.2589C35.8821 41.3192 35.5754 41.3105 35.2826 41.2334C34.7489 41.1135 34.2447 40.8879 33.7996 40.5701V42.55C34.6374 43.2318 35.6896 43.5948 36.7696 43.5747C37.1022 43.5721 37.4337 43.5369 37.7595 43.4697C37.9555 43.4315 38.1489 43.3813 38.3387 43.3193C38.4347 43.2876 38.5238 43.248 38.6149 43.2114C38.7515 43.1559 38.8841 43.0965 39.0108 43.0302C39.0792 42.9935 39.1475 42.9589 39.2128 42.9193C39.3987 42.8116 39.5749 42.6881 39.7395 42.55V28.7248C39.7427 26.2716 40.6554 23.9067 42.3011 22.0874C43.9469 20.2681 46.2087 19.1237 48.6494 18.8755C47.0524 18.7089 45.4393 18.95 43.9608 19.5764V19.5764Z" fill="#B3B3B3"/>
<path opacity="0.2" fill-rule="evenodd" clip-rule="evenodd" d="M49.6398 12.8867C49.3062 12.8867 48.9795 12.9154 48.6499 12.9372C52.6677 13.1905 56.4384 14.9635 59.1964 17.896C61.9544 20.8285 63.493 24.7008 63.4997 28.7266V39.3176C63.501 39.6204 63.4326 39.9194 63.2999 40.1916C63.1671 40.4638 62.9735 40.7017 62.7341 40.8871C62.4946 41.0725 62.2157 41.2003 61.919 41.2606C61.6223 41.321 61.3156 41.3123 61.0228 41.2351C60.4891 41.1152 59.9848 40.8897 59.5397 40.5718V42.5518C60.3873 43.2157 61.433 43.5765 62.5097 43.5765C63.5864 43.5765 64.6321 43.2157 65.4797 42.5518V28.7266C65.4748 24.5271 63.8044 20.501 60.8349 17.5315C57.8654 14.562 53.8393 12.8916 49.6398 12.8867Z" fill="#B3B3B3"/>
<path fill-rule="evenodd" clip-rule="evenodd" d="M49.6392 50.9414C47.6655 50.9414 45.7362 51.5267 44.0951 52.6232C42.4541 53.7197 41.1751 55.2782 40.4198 57.1016C39.6645 58.9251 39.4669 60.9315 39.8519 62.8673C40.237 64.803 41.1874 66.5811 42.583 67.9767C43.9786 69.3723 45.7567 70.3227 47.6924 70.7078C49.6281 71.0928 51.6346 70.8952 53.458 70.1399C55.2815 69.3846 56.84 68.1056 57.9365 66.4645C59.033 64.8235 59.6183 62.8941 59.6183 60.9205C59.6154 58.2747 58.5631 55.7382 56.6923 53.8674C54.8214 51.9966 52.2849 50.9443 49.6392 50.9414V50.9414Z" fill="white"/>
<path fill-rule="evenodd" clip-rule="evenodd" d="M59.5545 59.7772C59.2634 57.2459 58.0151 54.9217 56.0654 53.2812C54.1158 51.6407 51.6125 50.808 49.0686 50.9539C46.5248 51.0998 44.1331 52.2131 42.3837 54.0658C40.6344 55.9184 39.66 58.37 39.6602 60.9181C39.6602 61.0374 39.6652 61.1558 39.6691 61.2745C39.7567 58.9002 40.6874 56.6348 42.2941 54.8845C43.9009 53.1343 46.0786 52.0137 48.4367 51.7238C48.5873 51.7055 48.7401 51.7194 48.885 51.7646C49.0298 51.8097 49.1634 51.885 49.2771 51.9855C49.3907 52.086 49.4817 52.2095 49.5441 52.3477C49.6066 52.486 49.639 52.6359 49.6392 52.7876V62.6947C49.1993 62.6941 48.7753 62.5303 48.4492 62.235C48.1231 61.9397 47.9181 61.534 47.874 61.0963C47.8632 61.1766 47.858 61.2576 47.8583 61.3386C47.8723 61.7089 48.0016 62.0656 48.2281 62.3588C48.4546 62.6521 48.767 62.8673 49.1217 62.9745C49.27 63.0174 49.4005 63.1071 49.4937 63.2301C49.5869 63.3531 49.638 63.503 49.6392 63.6573V70.8971C51.0455 70.8955 52.4357 70.5971 53.7187 70.0212C55.0017 69.4454 56.1488 68.6052 57.0847 67.5555C58.0206 66.5058 58.7244 65.2704 59.15 63.93C59.5756 62.5897 59.7134 61.1745 59.5545 59.7772V59.7772Z" fill="#F2F2F2"/>
<path fill-rule="evenodd" clip-rule="evenodd" d="M49.6393 72.3243C51.6946 72.3265 53.7118 71.7695 55.4749 70.7131L53.2097 66.8793C53.0901 66.7008 52.9307 66.5524 52.7441 66.4459C52.5574 66.3394 52.3486 66.2777 52.1341 66.2656H46.7881C46.575 66.2774 46.3679 66.3405 46.1844 66.4495C46.0009 66.5584 45.8463 66.71 45.7339 66.8914L43.6875 70.6435C45.4773 71.7446 47.5379 72.3265 49.6393 72.3243V72.3243Z" fill="#1F56A3"/>
<path fill-rule="evenodd" clip-rule="evenodd" d="M58.1926 60.9194C58.1938 62.0426 57.9727 63.155 57.5421 64.1924C57.1115 65.2298 56.4799 66.1717 55.6836 66.9639L53.417 64.6972C53.9141 64.2017 54.3084 63.6129 54.5775 62.9646C54.8466 62.3163 54.9851 61.6213 54.9851 60.9194C54.9851 60.2176 54.8466 59.5226 54.5775 58.8743C54.3084 58.226 53.9141 57.6372 53.417 57.1417L55.6837 54.875C56.4799 55.6672 57.1115 56.6091 57.5421 57.6465C57.9727 58.6839 58.1938 59.7962 58.1926 60.9194V60.9194Z" fill="#7CB65A"/>
<path fill-rule="evenodd" clip-rule="evenodd" d="M55.6839 54.8762L53.4172 57.1429C52.9216 56.6458 52.3329 56.2514 51.6846 55.9823C51.0363 55.7133 50.3413 55.5747 49.6394 55.5747C48.9375 55.5747 48.2425 55.7133 47.5943 55.9823C46.946 56.2514 46.3572 56.6458 45.8616 57.1429L43.595 54.8762C44.3879 54.0809 45.3299 53.4499 46.3672 53.0194C47.4044 52.5888 48.5164 52.3672 49.6394 52.3672C50.7625 52.3672 51.8745 52.5888 52.9117 53.0194C53.9489 53.4499 54.891 54.0809 55.6839 54.8762V54.8762Z" fill="#F7CB64"/>
<path fill-rule="evenodd" clip-rule="evenodd" d="M44.2935 60.9194C44.2928 61.6214 44.431 62.3166 44.7001 62.965C44.9692 63.6134 45.364 64.2021 45.8616 64.6972L43.595 66.9639C42.7997 66.171 42.1687 65.2289 41.7381 64.1917C41.3076 63.1545 41.0859 62.0425 41.0859 60.9195C41.0859 59.7964 41.3076 58.6844 41.7381 57.6472C42.1687 56.61 42.7997 55.6679 43.595 54.875L45.8616 57.1417C45.364 57.6368 44.9693 58.2255 44.7001 58.8739C44.431 59.5222 44.2928 60.2174 44.2935 60.9194V60.9194Z" fill="#DF5142"/>
<path d="M52.7679 57.8315C52.6063 57.8315 52.4485 57.8256 52.2956 57.8139C52.1546 57.8031 52.0145 57.783 51.876 57.754C51.7479 57.7271 51.6224 57.6889 51.5009 57.6399C51.3816 57.5913 51.2675 57.5307 51.1604 57.4591C50.9695 57.3285 50.7609 57.226 50.5409 57.1546C50.3361 57.09 50.125 57.047 49.9112 57.0266C49.89 57.0246 49.8692 57.0234 49.8483 57.0234H49.4315C49.4107 57.0234 49.3898 57.0245 49.3686 57.0266C49.1547 57.047 48.9436 57.09 48.7386 57.1548C48.5221 57.2248 48.3165 57.3249 48.1279 57.4522C48.0172 57.5265 47.8995 57.5897 47.7765 57.641C47.6566 57.6897 47.5325 57.7274 47.4057 57.7536C47.2657 57.7827 47.124 57.8028 46.9814 57.8139C46.828 57.8256 46.6715 57.8315 46.512 57.8315C46.3429 57.8315 46.1808 57.8987 46.0612 58.0183C45.9417 58.1378 45.8745 58.3 45.8745 58.469L45.8748 60.1571C45.8773 60.2334 45.8811 60.3097 45.8854 60.3828C45.8904 60.4664 45.8982 60.55 45.9088 60.6336C45.9197 60.7207 45.9807 61.0449 46.0021 61.1294C46.1078 61.5431 46.2736 61.939 46.4943 62.3045C46.7067 62.6559 46.9559 62.9836 47.2376 63.2823C47.5161 63.5771 47.8197 63.8472 48.145 64.0894C48.4547 64.3205 48.7772 64.5338 49.1109 64.7285C49.2083 64.7852 49.3189 64.8151 49.4316 64.815H49.8484C49.961 64.8151 50.0717 64.7852 50.169 64.7285C50.5028 64.5338 50.8252 64.3204 51.1349 64.0893C51.4602 63.8471 51.7638 63.5772 52.0423 63.2824C52.324 62.9837 52.5732 62.6559 52.7856 62.3045C53.0063 61.939 53.1721 61.5431 53.2778 61.1294C53.2996 61.0449 53.3559 60.733 53.3684 60.653C53.3824 60.5638 53.3921 60.4747 53.3976 60.3858C53.4029 60.303 53.4055 60.2201 53.4054 60.1372V58.469C53.4054 58.3 53.3382 58.1378 53.2187 58.0183C53.0991 57.8987 52.9369 57.8315 52.7679 57.8315Z" fill="white"/>
<path d="M49.8484 57.6602C50.0176 57.6762 50.1847 57.7101 50.3469 57.7612C50.5089 57.8139 50.6625 57.8896 50.803 57.986C50.9474 58.083 51.1013 58.1649 51.2624 58.2304C51.4186 58.2933 51.5799 58.3423 51.7447 58.377C51.9102 58.4118 52.0778 58.4358 52.2464 58.4487C52.4159 58.4617 52.5896 58.4682 52.7677 58.4682V60.1364C52.7677 60.2059 52.7656 60.2754 52.7612 60.345C52.7569 60.4145 52.7493 60.484 52.7384 60.5535H49.8484L49.8484 57.6602ZM46.512 58.4682C46.6879 58.4682 46.8606 58.4617 47.03 58.4486C47.1997 58.4356 47.3684 58.4116 47.535 58.377C47.6999 58.3429 47.8613 58.2939 48.0172 58.2303C48.1792 58.1632 48.3342 58.0803 48.4799 57.9827C48.6196 57.8878 48.7721 57.8132 48.9328 57.7612C49.0949 57.71 49.262 57.6762 49.4313 57.6602V60.5535H46.5413C46.5326 60.4839 46.5261 60.4144 46.5218 60.3449C46.5174 60.2754 46.5141 60.2059 46.512 60.1364L46.512 58.4682ZM49.4313 64.1766C49.1183 63.994 48.8159 63.7939 48.5255 63.5771C48.2299 63.3572 47.9541 63.1119 47.7012 62.844C47.4504 62.5784 47.2287 62.2867 47.0398 61.974C46.8511 61.662 46.7095 61.3239 46.6195 60.9705H49.4313V64.1766ZM49.8484 60.9705H52.6602C52.5702 61.3239 52.4286 61.662 52.2399 61.9741C52.051 62.2867 51.8293 62.5784 51.5785 62.844C51.3256 63.112 51.0498 63.3573 50.7542 63.5771C50.4638 63.7939 50.1614 63.994 49.8484 64.1766L49.8484 60.9705Z" fill="#0078D4"/>
<path fill-rule="evenodd" clip-rule="evenodd" d="M52.1342 66.2656H49.6394V72.3243C51.6947 72.3265 53.712 71.7695 55.475 70.7131L53.2098 66.8793C53.0902 66.7008 52.9308 66.5524 52.7442 66.4459C52.5575 66.3394 52.3487 66.2777 52.1342 66.2656V66.2656Z" fill="#003067"/>
<path fill-rule="evenodd" clip-rule="evenodd" d="M49.6393 70.8993C47.6656 70.8993 45.7362 70.314 44.0952 69.2175C42.4541 68.121 41.1751 66.5625 40.4198 64.7391C39.6645 62.9156 39.4669 60.9092 39.852 58.9734C40.237 57.0377 41.1874 55.2596 42.583 53.864C43.9786 52.4684 45.7567 51.518 47.6925 51.1329C49.6282 50.7479 51.6347 50.9455 53.4581 51.7008C55.2816 52.4561 56.8401 53.7352 57.9366 55.3762C59.0331 57.0173 59.6183 58.9466 59.6183 60.9203C59.6154 63.566 58.5631 66.1025 56.6923 67.9733C54.8215 69.8441 52.285 70.8964 49.6393 70.8993V70.8993ZM49.6393 49.5156C47.3836 49.5156 45.1787 50.1845 43.3032 51.4376C41.4277 52.6908 39.9659 54.472 39.1028 56.5559C38.2396 58.6398 38.0137 60.9329 38.4538 63.1452C38.8938 65.3575 39.98 67.3896 41.575 68.9845C43.1699 70.5795 45.202 71.6657 47.4143 72.1057C49.6266 72.5458 51.9197 72.3199 54.0036 71.4568C56.0875 70.5936 57.8687 69.1318 59.1219 67.2563C60.375 65.3808 61.0439 63.1759 61.0439 60.9203C61.0405 57.8966 59.8378 54.9978 57.6998 52.8597C55.5617 50.7217 52.6629 49.519 49.6393 49.5156V49.5156Z" fill="#1F56A3"/>
<path fill-rule="evenodd" clip-rule="evenodd" d="M50.8016 59.6175C51.0356 59.8368 51.2059 60.1153 51.2944 60.4235C51.3829 60.7317 51.3862 61.0582 51.3041 61.3682C53.089 60.3432 55.9109 58.6745 55.8018 58.4275C55.686 58.167 52.3216 58.9372 50.4758 59.3813C50.5931 59.4473 50.7024 59.5266 50.8016 59.6175V59.6175Z" fill="#1F56A3"/>
<path fill-rule="evenodd" clip-rule="evenodd" d="M50.8217 59.6138C50.5636 59.3738 50.2401 59.2157 49.8922 59.1595C49.5442 59.1033 49.1874 59.1516 48.8669 59.2982C48.5464 59.4448 48.2765 59.6832 48.0915 59.9832C47.9065 60.2832 47.8145 60.6313 47.8273 60.9835C47.8402 61.3357 47.9571 61.6762 48.1635 61.962C48.3698 62.2477 48.6563 62.4658 48.9866 62.5888C49.3169 62.7117 49.6763 62.734 50.0192 62.6527C50.3622 62.5714 50.6733 62.3902 50.9133 62.1321C51.2345 61.7857 51.4052 61.3261 51.3881 60.854C51.3709 60.3819 51.1672 59.9359 50.8217 59.6138V59.6138Z" fill="#F2F2F2"/>
<path fill-rule="evenodd" clip-rule="evenodd" d="M49.5825 60.2075C49.4415 60.2126 49.3053 60.2593 49.1909 60.3419C49.0766 60.4244 48.9893 60.539 48.9401 60.6712C48.8909 60.8033 48.882 60.9471 48.9145 61.0843C48.947 61.2216 49.0195 61.3461 49.1228 61.4421C49.2261 61.5381 49.3556 61.6013 49.4948 61.6237C49.634 61.6462 49.7768 61.6268 49.905 61.5681C50.0332 61.5094 50.1411 61.4139 50.2151 61.2939C50.2891 61.1738 50.3258 61.0345 50.3206 60.8935C50.3134 60.7048 50.2317 60.5265 50.0934 60.3979C49.955 60.2693 49.7713 60.2008 49.5825 60.2075V60.2075Z" fill="#0078D4"/>
<path fill-rule="evenodd" clip-rule="evenodd" d="M53.4172 57.1429L55.6839 54.8762C54.8917 54.0799 53.9497 53.4483 52.9124 53.0177C51.875 52.5871 50.7626 52.366 49.6394 52.3672V55.5747C50.3414 55.5741 51.0366 55.7123 51.685 55.9814C52.3333 56.2505 52.922 56.6453 53.4172 57.1429V57.1429Z" fill="#EFB252"/>
<path fill-rule="evenodd" clip-rule="evenodd" d="M52.1342 69.1179C52.1336 69.3068 52.0584 69.4878 51.9248 69.6213C51.7913 69.7549 51.6103 69.8302 51.4214 69.8307H47.5011C47.3122 69.8302 47.1313 69.7549 46.9977 69.6213C46.8642 69.4878 46.7889 69.3068 46.7883 69.1179V68.0487C46.7889 67.8599 46.8642 67.6789 46.9977 67.5453C47.1313 67.4118 47.3122 67.3365 47.5011 67.3359H51.4215C51.6103 67.3365 51.7913 67.4118 51.9249 67.5453C52.0584 67.6789 52.1337 67.8599 52.1342 68.0487L52.1342 69.1179Z" fill="#1F56A3"/>
<path fill-rule="evenodd" clip-rule="evenodd" d="M51.4214 67.3359H47.5011C47.3122 67.3365 47.1313 67.4118 46.9977 67.5453C46.8642 67.6789 46.7889 67.8599 46.7883 68.0487V68.4051C46.7889 68.2162 46.8642 68.0353 46.9977 67.9017C47.1313 67.7682 47.3122 67.6929 47.5011 67.6923H51.4215C51.6103 67.6929 51.7913 67.7682 51.9249 67.9017C52.0584 68.0353 52.1337 68.2162 52.1342 68.4051V68.0487C52.1337 67.8598 52.0584 67.6789 51.9249 67.5453C51.7913 67.4117 51.6103 67.3365 51.4214 67.3359Z" fill="#003067"/>
<path opacity="0.2" d="M59.8071 67.1439V76.2446H71.419V50.3524C70.0438 50.0551 68.609 50.2166 67.3343 50.8122C66.0596 51.4078 65.0151 52.4047 64.3608 53.6503C63.7065 54.8959 63.4784 56.3216 63.7114 57.7092C63.9444 59.0967 64.6256 60.3698 65.6508 61.3334V63.7582L59.8071 67.1439Z" fill="#003067"/>
<path d="M78.4669 68.3154L72.5997 64.8888V60.2836C73.3814 59.7401 73.9679 58.9598 74.2724 58.0577C74.577 57.1556 74.5837 56.1795 74.2914 55.2734C73.9991 54.3672 73.4233 53.579 72.6491 53.0249C71.8748 52.4708 70.9429 52.1802 69.9909 52.1959C69.0389 52.2116 68.1172 52.5329 67.3616 53.1122C66.6061 53.6916 66.0567 54.4984 65.7945 55.4137C65.5323 56.329 65.5711 57.3044 65.9053 58.1959C66.2396 59.0875 66.8514 59.848 67.6507 60.3654V64.9117L61.8069 68.2973V77.952L70.1419 82.7849L78.4776 77.9513L78.4669 68.3154Z" fill="white"/>
<path d="M73.392 71.2534C73.7171 71.8275 73.8873 72.4764 73.8857 73.1362C73.8841 73.796 73.7108 74.4441 73.3829 75.0166C73.0551 75.5892 72.5838 76.0666 72.0156 76.4019C71.4473 76.7372 70.8016 76.9189 70.1418 76.929V80.9917L76.9266 77.0577V69.2031L73.392 71.2534Z" fill="#32BEDD"/>
<path d="M71.9819 66.3242V69.8044C72.2579 69.9637 72.5122 70.158 72.7385 70.3824C72.996 70.6418 73.2142 70.9374 73.3861 71.26L76.9177 69.2067L71.9819 66.3242Z" fill="#9CEBFF"/>
<path d="M67.3351 70.4277C67.6081 70.1493 67.9238 69.9164 68.2702 69.7376V66.3438L63.3572 69.1899L66.7723 71.1781C66.9288 70.9061 67.1178 70.6541 67.3351 70.4277Z" fill="#9CEBFF"/>
<path d="M70.0648 76.9385C69.3913 76.9413 68.729 76.7655 68.1456 76.4289C67.5622 76.0923 67.0785 75.6071 66.7438 75.0226C66.4091 74.4381 66.2354 73.7753 66.2404 73.1018C66.2454 72.4283 66.4289 71.7682 66.7723 71.1887L63.3572 69.1914V77.0596L70.1419 80.9936V76.9309C70.1192 76.931 70.0935 76.9385 70.0648 76.9385Z" fill="#50E6FF"/>
<path d="M68.0386 75.1739C68.3096 75.4401 68.6303 75.6503 68.9824 75.7925C69.3346 75.9347 69.7113 76.0062 70.0911 76.0028C70.4709 75.9994 70.8463 75.9213 71.1959 75.7728C71.5455 75.6244 71.8624 75.4085 72.1286 75.1376C72.3947 74.8667 72.6049 74.546 72.7471 74.1938C72.8894 73.8416 72.9608 73.4649 72.9575 73.0851C72.9541 72.7053 72.8759 72.3299 72.7275 71.9803C72.579 71.6307 72.3632 71.3138 72.0923 71.0477C71.7956 70.7594 71.4399 70.5389 71.0497 70.4016V57.9805H69.2007V70.3668C68.7228 70.5125 68.2911 70.7802 67.9482 71.1436C67.6053 71.507 67.3631 71.9535 67.2453 72.4391C67.1275 72.9246 67.1384 73.4325 67.2767 73.9126C67.415 74.3927 67.6761 74.8285 68.0341 75.1769L68.0386 75.1739Z" fill="url(#paint1_linear)"/>
<path d="M70.0646 59.5409C71.6616 59.5409 72.9562 58.2463 72.9562 56.6494C72.9562 55.0524 71.6616 53.7578 70.0646 53.7578C68.4677 53.7578 67.1731 55.0524 67.1731 56.6494C67.1731 58.2463 68.4677 59.5409 70.0646 59.5409Z" fill="url(#paint2_linear)"/>
</g>
<defs>
<linearGradient id="paint0_linear" x1="47.8698" y1="-15.155" x2="51.8525" y2="130.613" gradientUnits="userSpaceOnUse">
<stop stop-color="#00ABDE"/>
<stop offset="1" stop-color="#007ED8"/>
</linearGradient>
<linearGradient id="paint1_linear" x1="70.0605" y1="57.6143" x2="70.0605" y2="76.0727" gradientUnits="userSpaceOnUse">
<stop stop-color="#E6E6E6"/>
<stop offset="1" stop-color="#999999"/>
</linearGradient>
<linearGradient id="paint2_linear" x1="70.0646" y1="53.8864" x2="70.0646" y2="59.6695" gradientUnits="userSpaceOnUse">
<stop stop-color="#50E6FF"/>
<stop offset="1" stop-color="#32BEDD"/>
</linearGradient>
<clipPath id="clip0">
<rect width="99.2799" height="99.28" fill="white"/>
</clipPath>
</defs>
</svg>
