<svg width="160" height="188" viewBox="0 0 160 188" fill="none" xmlns="http://www.w3.org/2000/svg">
<g clip-path="url(#clip0)">
<path d="M79.6779 188C82.7592 187.994 85.7796 187.141 88.4083 185.534L150.384 147.874C153.165 146.11 155.449 143.665 157.019 140.771C158.589 137.876 159.394 134.628 159.356 131.336V56.6207C159.392 53.3283 158.587 50.0812 157.017 47.1871C155.447 44.2929 153.163 41.8476 150.384 40.0829L88.4083 2.4228C85.7749 0.837605 82.7592 0 79.6855 0C76.6118 0 73.5961 0.837605 70.9627 2.4228L8.9876 40.098C6.2045 41.8604 3.91796 44.3048 2.34499 47.1991C0.772021 50.0935 -0.0351786 53.3418 4.1431e-06 56.6358V131.336C-0.0185283 134.119 0.556189 136.874 1.68588 139.418C2.81557 141.962 4.4743 144.236 6.5516 146.089V146.115L70.9627 185.549C73.5884 187.149 76.6032 187.996 79.6779 188V188ZM80.3257 6.95218C82.2776 6.95218 84.7548 8.1651 86.4646 9.20912L147.222 46.4034C150.974 48.6881 153.09 55.2842 153.09 60.0352L152.458 131.336C152.458 136.087 149.259 140.355 145.506 142.64L85.1104 179.021C81.6758 181.109 78.8854 181.109 75.4507 179.021L14.2427 142.549C10.4903 140.265 7.47191 136.072 7.47191 131.336V57.688C7.50442 55.3228 8.11341 53.0013 9.24608 50.9247C10.3787 48.8482 12.0009 47.0792 13.9718 45.7714L74.548 9.20912C76.2577 8.1651 78.3739 6.95218 80.3257 6.95218Z" fill="#F2F1F0"/>
<path fill-rule="evenodd" clip-rule="evenodd" d="M87.5765 10.5318C85.2056 9.05825 82.4697 8.27734 79.6783 8.27734C76.8868 8.27734 74.1509 9.05825 71.7801 10.5318L15.6454 44.8632C13.1193 46.4748 11.047 48.7052 9.625 51.3427C8.203 53.9801 7.47851 56.9372 7.52026 59.9333V128.036C7.48034 131.032 8.20562 133.989 9.62745 136.626C11.0493 139.263 13.1206 141.493 15.6454 143.106L71.7801 177.437C74.1508 178.911 76.8867 179.692 79.6783 179.692C82.4698 179.692 85.2057 178.911 87.5765 177.437L143.711 143.106C146.236 141.494 148.307 139.263 149.729 136.626C151.151 133.989 151.877 131.032 151.837 128.036V59.9333C151.875 56.9377 151.149 53.9819 149.727 51.3451C148.305 48.7082 146.234 46.4773 143.711 44.8632L87.5765 10.5318Z" fill="url(#paint0_linear)"/>
<path fill-rule="evenodd" clip-rule="evenodd" d="M79.6783 9.7539C81.3615 9.7539 83.2442 10.6196 85.311 11.8777L143.777 47.4201C145.668 48.6335 147.218 50.3104 148.278 52.2914C149.339 54.2725 149.875 56.4918 149.837 58.7386V129.217C149.875 131.464 149.339 133.683 148.278 135.664C147.218 137.645 145.668 139.322 143.777 140.535L85.312 176.077L85.311 176.078C83.6408 177.217 81.6958 177.888 79.6783 178.021C77.6609 177.888 75.7158 177.217 74.0456 176.078L74.0446 176.077L15.5823 140.537L15.5801 140.536C13.7918 139.572 12.2668 138.185 11.1383 136.496C10.1614 134.893 9.52031 132.678 9.52031 129.217V58.7386C9.48157 56.4919 10.018 54.2726 11.0785 52.2916C12.139 50.3106 13.6885 48.6336 15.5797 47.4202L74.0365 11.8831L74.0406 11.8807C76.1244 10.6277 77.9846 9.7539 79.6783 9.7539ZM87.3908 8.4609L145.855 44.0021C148.333 45.5722 150.368 47.751 151.765 50.3307C153.162 52.9104 153.876 55.8051 153.837 58.7386V129.217C153.876 132.151 153.162 135.045 151.765 137.625C150.368 140.205 148.333 142.384 145.855 143.954L87.3898 179.495C85.0956 181.02 82.4302 181.893 79.6783 182.021C76.9264 181.893 74.261 181.02 71.9667 179.495H71.9658L13.502 143.953L13.4995 143.952C11.1642 142.659 9.18097 140.814 7.72281 138.578C6.12823 135.725 5.36521 132.482 5.52031 129.217V58.7386C5.48125 55.805 6.19436 52.9103 7.59165 50.3305C8.98894 47.7508 11.0238 45.572 13.5022 44.002L71.9667 8.46025L71.9749 8.45537C74.0655 7.19796 76.7734 5.75391 79.6783 5.75391C82.5645 5.75391 85.2816 7.17699 87.3908 8.46085V8.4609Z" fill="#0078D4"/>
<path opacity="0.2" d="M139.61 132.028L80.06 166.635L20.121 132.029L79.671 97.4219L139.61 132.028Z" fill="#003067"/>
<path d="M140.601 120.65L79.878 155.938L18.767 120.655L79.489 85.3672L140.601 120.65Z" fill="#1B93EB"/>
<path d="M140.601 120.648L140.589 124.754L79.8669 160.042L79.8779 155.936L140.601 120.648Z" fill="#1F56A3"/>
<path d="M79.878 155.939L79.867 160.045L18.755 124.762L18.767 120.656L79.878 155.939Z" fill="#0078D4"/>
<path d="M50.0796 38.9319L45.1793 41.7795C47.3427 40.5224 50.3378 40.6998 53.6395 42.606C55.0534 43.4346 56.3616 44.4314 57.5355 45.5748L62.4355 42.7272C61.2616 41.5839 59.9535 40.587 58.5397 39.7584C55.2381 37.8522 52.2427 37.6748 50.0796 38.9319Z" fill="#E8E8E8"/>
<path d="M111.244 54.2874C109.92 53.5067 108.508 52.8857 107.038 52.4374C102.758 42.1502 95.2461 32.6919 86.6533 27.7309C79.9423 23.8563 73.8635 23.4955 69.4723 26.0476L64.572 28.8952C68.9635 26.3432 75.0421 26.7039 81.753 30.5786C90.3461 35.5397 97.8578 44.9979 102.138 55.285C103.608 55.7333 105.02 56.3543 106.344 57.135C116.727 63.1293 125.096 77.6676 125.062 89.5837C125.066 90.8846 124.951 92.1832 124.719 93.4633C124.694 93.6462 124.633 93.8222 124.607 94.0334C124.274 95.5569 123.715 97.0222 122.95 98.3811C122.863 98.5286 122.753 98.6482 122.666 98.7958C121.871 99.9703 120.825 100.953 119.602 101.672L124.503 98.8242C125.725 98.1051 126.771 97.1226 127.566 95.9482C127.653 95.8004 127.763 95.681 127.85 95.5335C128.615 94.1747 129.174 92.7093 129.507 91.1858C129.533 90.9746 129.595 90.7986 129.619 90.6156C129.852 89.3355 129.966 88.037 129.962 86.7361C129.996 74.82 121.627 60.2817 111.244 54.2874Z" fill="#E8E8E8"/>
<path d="M81.7531 30.5786C90.346 35.5397 97.8578 44.9979 102.138 55.285C103.608 55.7333 105.02 56.3543 106.344 57.135C116.727 63.1293 125.096 77.6677 125.062 89.5837C125.066 90.8846 124.952 92.1832 124.719 93.4633C124.694 93.6463 124.632 93.8223 124.607 94.0334C124.274 95.557 123.715 97.0223 122.95 98.3811C122.863 98.5287 122.753 98.6481 122.666 98.7958C119.411 103.519 113.245 104.446 106.197 100.376L52.3857 69.1815C46.3936 65.0306 41.6907 56.5028 41.7108 49.4039C41.7322 41.8542 47.0817 38.8198 53.6398 42.6061C55.0535 43.4347 56.3617 44.4315 57.5356 45.5749C57.5123 45.1805 57.5133 44.8143 57.5144 44.434C57.5579 29.067 68.4045 22.8717 81.7531 30.5786Z" fill="white"/>
<path opacity="0.2" d="M69.9041 115.938L68.9046 116.538C68.657 116.682 68.4515 116.889 68.3089 117.137C68.1662 117.385 68.0913 117.667 68.0917 117.953C68.0921 118.24 68.1678 118.521 68.3112 118.769C68.4545 119.017 68.6606 119.223 68.9087 119.366L86.2341 129.369C86.7234 129.651 87.2785 129.8 87.8435 129.799C88.4084 129.798 88.9632 129.648 89.4516 129.364L90.4511 128.765C90.6988 128.621 90.9042 128.414 91.0469 128.166C91.1896 127.917 91.2645 127.636 91.2641 127.35C91.2637 127.063 91.188 126.782 91.0446 126.534C90.9012 126.286 90.6952 126.08 90.4471 125.937L73.1217 115.934C72.6324 115.651 72.0772 115.503 71.5123 115.504C70.9473 115.505 70.3926 115.655 69.9041 115.938V115.938Z" fill="#003067"/>
<path d="M80.385 92.4684L80.3199 115.498C80.3379 115.664 80.3112 115.832 80.2427 115.984C80.1742 116.137 80.0662 116.268 79.9299 116.365L76.5839 118.31C76.7202 118.213 76.8282 118.081 76.8967 117.929C76.9652 117.776 76.9918 117.609 76.9737 117.442L77.039 94.4129C77.0151 93.9471 76.8811 93.4936 76.6479 93.0896C76.4147 92.6857 76.089 92.3429 75.6975 92.0894L57.99 81.8658C57.8528 81.7655 57.6912 81.7038 57.5221 81.6873C57.3529 81.6707 57.1825 81.6999 57.0284 81.7717L60.3744 79.8272C60.5285 79.7554 60.6989 79.7262 60.8681 79.7428C61.0372 79.7593 61.1988 79.821 61.336 79.9213L79.0437 90.1449C79.4351 90.3984 79.7608 90.7413 79.994 91.1452C80.2272 91.5491 80.3612 92.0026 80.385 92.4684ZM102.541 103.711L84.8331 93.4874C84.6963 93.3876 84.5354 93.3261 84.3668 93.3094C84.1983 93.2926 84.0284 93.3212 83.8746 93.3921L80.5286 95.3366C80.6824 95.2657 80.8523 95.2371 81.0208 95.2539C81.1893 95.2706 81.3502 95.3321 81.487 95.4319L99.1949 105.655C99.657 105.941 100.025 106.356 100.254 106.849C100.482 107.342 100.561 107.891 100.48 108.428C99.8765 110.231 98.9904 111.926 97.855 113.45C96.4988 115.258 94.8309 116.809 92.9297 118.03C92.6676 118.198 92.4021 118.36 92.1332 118.517L95.4792 116.572C95.7481 116.416 96.0136 116.254 96.2757 116.086C98.1769 114.864 99.8449 113.313 101.201 111.506C102.336 109.981 103.223 108.286 103.826 106.484C103.907 105.946 103.828 105.397 103.6 104.904C103.371 104.412 103.003 103.997 102.541 103.711H102.541Z" fill="url(#paint1_linear)"/>
<path d="M79.129 62.1618C79.0517 62.1168 78.9706 62.0785 78.8867 62.0474C78.1964 61.7919 77.4887 61.5862 76.7691 61.432C75.6628 61.1874 74.5185 61.17 73.4054 61.3808C72.2722 61.5925 71.114 61.6362 69.9681 61.5103C68.7481 61.3707 67.5474 61.0963 66.3878 60.6923C65.1062 60.2574 63.8541 59.7397 62.6397 59.1423C61.8028 58.7359 60.9539 58.2946 60.093 57.8185C59.9614 57.7287 59.8085 57.675 59.6496 57.6628C59.4907 57.6506 59.3313 57.6804 59.1875 57.7491L55.8416 59.6936C55.9853 59.6249 56.1447 59.5951 56.3036 59.6073C56.4624 59.6195 56.6154 59.6732 56.747 59.763C57.608 60.2391 58.4568 60.6804 59.2936 61.0868C60.5081 61.6842 61.7601 62.2019 63.0418 62.6368C64.2013 63.0408 65.402 63.3151 66.6219 63.4548C67.7679 63.5807 68.9261 63.537 70.0592 63.3252C71.1724 63.1145 72.3168 63.1319 73.4231 63.3765C74.1427 63.5307 74.8503 63.7364 75.5405 63.9919C75.6245 64.023 75.7056 64.0613 75.783 64.1063C76.1732 64.3626 76.4975 64.7073 76.7295 65.1125C76.9615 65.5176 77.0947 65.9717 77.1184 66.4379L77.058 87.7608C77.0749 87.9277 77.0473 88.0962 76.978 88.249C76.9086 88.4018 76.8001 88.5335 76.6634 88.6307L80.0094 86.6862C80.1461 86.589 80.2547 86.4573 80.3241 86.3045C80.3934 86.1517 80.421 85.9832 80.4041 85.8163L80.4645 64.4935C80.4408 64.0272 80.3076 63.5731 80.0755 63.168C79.8435 62.7629 79.5192 62.4182 79.129 62.1618V62.1618Z" fill="url(#paint2_linear)"/>
<path d="M75.6977 92.0885C76.0891 92.342 76.4148 92.6848 76.6481 93.0888C76.8813 93.4927 77.0153 93.9461 77.0392 94.4119L76.9739 117.441C76.9713 118.351 76.3212 118.623 75.6194 118.218C75.3426 118.049 75.1013 117.829 74.9089 117.568C73.3421 115.526 71.7936 113.406 70.2635 111.209C68.0686 108.05 66.033 104.784 64.1645 101.422C62.3243 98.1129 60.6933 94.6917 59.2812 91.1786C58.228 88.5664 57.363 85.8822 56.693 83.1465C56.4169 81.9893 57.0745 81.3364 57.99 81.8649L75.6977 92.0885ZM81.4872 95.431C80.7415 95.0005 80.1394 95.3436 80.137 96.2005L80.0717 119.23C80.0965 119.699 80.2318 120.155 80.4665 120.561C80.7013 120.967 81.0288 121.312 81.4224 121.568C81.634 121.703 81.885 121.764 82.1351 121.74C83.7071 121.506 85.2634 121.177 86.7953 120.753C88.9641 120.155 91.0316 119.237 92.9298 118.03C94.831 116.808 96.4989 115.257 97.8552 113.449C98.9905 111.925 99.8766 110.23 100.48 108.427C100.561 107.89 100.482 107.341 100.254 106.848C100.025 106.355 99.657 105.94 99.1949 105.655L81.4872 95.431ZM75.5406 63.9906C74.8504 63.7351 74.1427 63.5294 73.4231 63.3751C72.3169 63.1305 71.1725 63.1131 70.0593 63.3239C68.9261 63.5357 67.7679 63.5793 66.622 63.4535C65.4021 63.3138 64.2014 63.0395 63.0418 62.6354C61.7601 62.2006 60.5081 61.6828 59.2936 61.0854C58.4568 60.6791 57.608 60.2378 56.747 59.7617C56.0256 59.3661 55.4478 59.7302 55.4454 60.5592L55.4094 73.2512C55.4259 73.8538 55.4485 74.4599 55.4771 75.0694C55.4828 75.1914 55.4886 75.3133 55.5003 75.4387C55.545 75.8832 55.6887 76.3119 55.9209 76.6935C56.1531 77.0751 56.4679 77.3998 56.8421 77.6438L75.7077 88.5358C76.4534 88.9663 77.0556 88.6162 77.058 87.7594L77.1185 66.4366C77.0948 65.9704 76.9616 65.5162 76.7295 65.1111C76.4975 64.706 76.1732 64.3613 75.783 64.105C75.7057 64.0599 75.6245 64.0217 75.5406 63.9906V63.9906ZM97.9889 83.4261C96.7032 82.5684 95.4615 81.6466 94.2684 80.6641C93.0122 79.6326 91.8189 78.5266 90.6952 77.3522C89.4778 76.0748 88.3418 74.7222 87.2941 73.3023C86.2848 71.9156 85.1547 70.6209 83.9168 69.4337C83.2385 68.7909 82.5298 68.1794 81.8028 67.6062C81.7261 67.5452 81.6451 67.4899 81.5604 67.4406C80.8357 67.0222 80.2187 67.3529 80.2163 68.2251L80.1558 89.5479C80.1796 90.0147 80.3135 90.4692 80.5467 90.8743C80.7798 91.2793 81.1056 91.6234 81.4972 91.8784L100.387 102.784C101.09 103.19 101.68 102.91 101.737 102.14C101.749 102.029 101.756 101.914 101.762 101.792C101.794 101.218 101.814 100.636 101.816 100.044L101.852 87.3728C101.829 86.9109 101.699 86.4606 101.473 86.0574C101.246 85.6543 100.929 85.3092 100.547 85.0494C99.6799 84.528 98.8273 83.9869 97.9889 83.4261Z" fill="url(#paint3_linear)"/>
<path d="M103.893 83.1065C103.026 82.5851 102.173 82.044 101.335 81.4832C100.049 80.6255 98.8074 79.7037 97.6144 78.7212C96.3582 77.6897 95.1649 76.5837 94.0412 75.4093C92.8238 74.1319 91.6879 72.7793 90.6402 71.3595C89.6309 69.9727 88.5007 68.6781 87.2629 67.4908C86.5845 66.848 85.8758 66.2365 85.1488 65.6633C85.0721 65.6023 84.9911 65.547 84.9064 65.4977C84.7706 65.3998 84.6111 65.34 84.4444 65.3244C84.2777 65.3088 84.1098 65.338 83.9582 65.409L80.6122 67.3535C80.7638 67.2825 80.9316 67.2533 81.0983 67.2689C81.265 67.2845 81.4245 67.3443 81.5603 67.4422C81.645 67.4915 81.7261 67.5468 81.8028 67.6078C82.5298 68.181 83.2385 68.7925 83.9168 69.4353C85.1546 70.6226 86.2847 71.9172 87.294 73.304C88.3418 74.7238 89.4777 76.0764 90.695 77.3538C91.8188 78.5282 93.0121 79.6342 94.2683 80.6657C95.4614 81.6482 96.7031 82.57 97.9887 83.4277C98.8251 83.9873 99.6777 84.5284 100.547 85.051C100.929 85.3107 101.246 85.6558 101.473 86.059C101.699 86.4622 101.829 86.9124 101.852 87.3743L101.816 100.045C101.814 100.638 101.794 101.219 101.762 101.794C101.756 101.916 101.749 102.031 101.737 102.142C101.739 102.287 101.704 102.431 101.637 102.56C101.569 102.689 101.471 102.799 101.351 102.88L104.697 100.936C104.817 100.854 104.915 100.744 104.983 100.615C105.05 100.486 105.085 100.343 105.083 100.198C105.095 100.086 105.102 99.9712 105.108 99.8493C105.14 99.2746 105.16 98.6931 105.162 98.101L105.198 85.4298C105.175 84.9679 105.045 84.5177 104.819 84.1145C104.592 83.7113 104.275 83.3663 103.893 83.1065V83.1065Z" fill="url(#paint4_linear)"/>
<path opacity="0.2" d="M77.0581 87.7628L77.0879 77.2662C72.8691 76.157 69.7551 78.7859 69.7402 84.0495C69.7392 84.4015 69.7569 84.759 69.7832 85.1185L75.7077 88.5391C76.4534 88.9697 77.0556 88.6196 77.0581 87.7628Z" fill="#003067"/>
<path opacity="0.2" d="M80.1867 78.6641L80.1558 89.5486C80.1795 90.0153 80.3135 90.4698 80.5466 90.8749C80.7798 91.2799 81.1055 91.624 81.4972 91.879L89.5668 96.538C89.5949 96.2098 89.6146 95.8739 89.6156 95.5219C89.6329 89.3964 85.4491 81.989 80.1867 78.6641Z" fill="#003067"/>
<path opacity="0.2" d="M75.6976 92.0919L70.5724 89.1328C71.8007 93.0187 74.0255 96.5151 77.0253 99.2738L77.039 94.4154C77.0152 93.9496 76.8811 93.4962 76.6479 93.0922C76.4148 92.6883 76.0891 92.3455 75.6976 92.0919V92.0919Z" fill="#003067"/>
<path opacity="0.2" d="M80.1368 96.2013L80.1219 101.448C83.9788 103.464 87.2669 102.631 88.7574 99.6293L81.4872 95.4318C80.7413 95.0013 80.1393 95.3444 80.1368 96.2013Z" fill="#003067"/>
<path d="M78.5189 79.1295C75.756 77.5343 73.2528 77.386 71.4452 78.4364L68.6261 80.0747C70.4335 79.0243 72.9366 79.1726 75.6997 80.7677C81.1842 83.9342 85.6198 91.617 85.6019 97.9264C85.593 101.057 84.4867 103.26 82.7031 104.297L85.5223 102.659C87.3059 101.622 88.4122 99.4187 88.421 96.288C88.439 89.9787 84.0034 82.2959 78.5189 79.1295Z" fill="url(#paint5_linear)"/>
<path d="M75.6998 80.7701C81.1842 83.9366 85.6198 91.6193 85.6019 97.9287C85.5841 104.231 81.1195 106.775 75.635 103.609C70.1442 100.438 65.7086 92.7556 65.7265 86.4536C65.7444 80.1443 70.209 77.6 75.6998 80.7701Z" fill="url(#paint6_linear)"/>
<path d="M75.1786 85.5959C75.8771 86.0476 76.4587 86.6583 76.8757 87.3781C77.2927 88.0978 77.5333 88.9061 77.5778 89.7368C77.5734 91.2554 76.4974 91.8687 75.163 91.0983C74.4651 90.6459 73.884 90.035 73.467 89.3154C73.0501 88.5958 72.8091 87.7879 72.7638 86.9574C72.7681 85.4314 73.8442 84.8255 75.1786 85.5959Z" fill="white"/>
<path d="M75.1611 91.7493C76.246 92.458 77.163 93.3951 77.8481 94.495C78.5331 95.595 78.9697 96.8313 79.1272 98.1175C79.1524 98.2608 79.152 98.4073 79.126 98.5504C79.1112 98.8466 78.9819 99.1255 78.7654 99.3282C78.5488 99.5309 78.262 99.6414 77.9654 99.6366C76.9603 99.6259 75.9793 99.3273 75.1388 98.7762C74.0573 98.1484 73.0967 97.3325 72.3022 96.3669C71.6887 95.6865 71.2847 94.8434 71.1388 93.9389C71.1331 93.7805 71.1442 93.6219 71.1721 93.4658C71.4339 91.3537 73.118 90.5697 75.1611 91.7493Z" fill="white"/>
<path d="M42.6581 113.521C42.8792 113.664 43.0631 113.858 43.1948 114.086C43.3265 114.314 43.4022 114.57 43.4157 114.833L43.3852 125.557C43.3839 126.041 43.0438 126.235 42.6228 125.992L39.2847 124.064C39.0631 123.921 38.8787 123.727 38.7464 123.499C38.6141 123.27 38.5378 123.014 38.5237 122.75L38.5541 112.026C38.5555 111.542 38.8989 111.35 39.32 111.594L42.6581 113.521Z" fill="#0078D4"/>
<path d="M47.1934 110.886L43.8553 108.959C43.7775 108.902 43.686 108.868 43.5903 108.858C43.4945 108.849 43.3979 108.865 43.3106 108.905L38.7754 111.541C38.8628 111.5 38.9593 111.484 39.0551 111.494C39.1508 111.503 39.2423 111.538 39.3201 111.595L42.6581 113.522C42.8792 113.665 43.0631 113.859 43.1948 114.087C43.3265 114.315 43.4022 114.571 43.4157 114.834L43.3853 125.558C43.3949 125.652 43.3795 125.746 43.3406 125.832C43.3017 125.918 43.2408 125.992 43.1641 126.047L47.6992 123.411C47.776 123.356 47.8369 123.282 47.8758 123.197C47.9146 123.111 47.9301 123.016 47.9205 122.923L47.9508 112.198C47.9374 111.935 47.8617 111.679 47.73 111.451C47.5984 111.223 47.4144 111.029 47.1934 110.886V110.886Z" fill="#1F56A3"/>
<path d="M45.9964 110.902C45.9226 110.274 45.6215 109.693 45.1497 109.271C44.6779 108.849 44.0679 108.613 43.4347 108.609C42.8015 108.606 42.1887 108.833 41.7118 109.25C41.2348 109.666 40.9265 110.243 40.845 110.871C40.8266 110.962 40.8191 111.054 40.8228 111.147C40.8605 111.361 40.9491 111.562 41.0813 111.734C41.2134 111.906 41.3851 112.043 41.5818 112.135C42.1501 112.421 42.7778 112.571 43.4143 112.571C44.0508 112.571 44.6785 112.421 45.2468 112.135C45.4426 112.043 45.6132 111.906 45.7438 111.734C45.8743 111.561 45.961 111.36 45.9963 111.147C46.0122 111.066 46.0122 110.983 45.9964 110.902Z" fill="#0078D4"/>
<path d="M43.4207 108.24C43.7268 108.238 44.0256 108.146 44.2792 107.975C44.5328 107.803 44.73 107.56 44.8458 107.277C44.9617 106.994 44.991 106.682 44.9301 106.382C44.8693 106.082 44.7209 105.807 44.5038 105.591C44.2866 105.375 44.0105 105.229 43.7101 105.17C43.4097 105.111 43.0986 105.142 42.8159 105.26C42.5333 105.377 42.2918 105.576 42.1219 105.83C41.952 106.085 41.8613 106.384 41.8613 106.691C41.8616 106.895 41.9022 107.097 41.9808 107.285C42.0594 107.474 42.1744 107.645 42.3193 107.789C42.4641 107.933 42.636 108.047 42.825 108.125C43.014 108.202 43.2165 108.241 43.4207 108.24V108.24Z" fill="#0078D4"/>
<path d="M49.0248 104.341C49.2459 104.484 49.4298 104.678 49.5615 104.906C49.6932 105.134 49.7689 105.39 49.7824 105.653L49.7156 129.214C49.7142 129.698 49.3741 129.892 48.9531 129.649L45.615 127.721C45.3934 127.578 45.209 127.384 45.0767 127.156C44.9444 126.927 44.8681 126.671 44.854 126.407L44.9208 102.846C44.9222 102.363 45.2657 102.171 45.6867 102.414L49.0248 104.341Z" fill="#50E6FF"/>
<path d="M53.5601 101.707L50.222 99.7794C50.1442 99.7227 50.0527 99.6879 49.957 99.6784C49.8612 99.6689 49.7646 99.6852 49.6773 99.7255L45.1421 102.361C45.2295 102.321 45.326 102.305 45.4218 102.314C45.5175 102.323 45.609 102.358 45.6868 102.415L49.0249 104.342C49.246 104.485 49.4299 104.679 49.5616 104.907C49.6933 105.135 49.769 105.391 49.7825 105.654L49.7157 129.215C49.7253 129.309 49.7098 129.403 49.671 129.489C49.6321 129.575 49.5712 129.649 49.4944 129.704L54.0297 127.068C54.1064 127.013 54.1673 126.939 54.2062 126.854C54.245 126.768 54.2604 126.673 54.2509 126.58L54.3177 103.019C54.3042 102.756 54.2285 102.5 54.0968 102.272C53.9651 102.043 53.7811 101.85 53.5601 101.707Z" fill="#32BEDD"/>
<path d="M55.3344 115.345C55.5556 115.489 55.7395 115.683 55.8712 115.912C56.0029 116.141 56.0785 116.397 56.092 116.661L56.0461 132.869C56.0447 133.353 55.7046 133.547 55.2835 133.304L51.942 131.375C51.7213 131.231 51.5376 131.037 51.406 130.809C51.2743 130.581 51.1984 130.325 51.1844 130.062L51.2304 113.854C51.2318 113.37 51.5753 113.175 51.993 113.416L55.3344 115.345Z" fill="#C3F1FF"/>
<path d="M59.8695 112.707L56.528 110.777C56.4509 110.722 56.3602 110.687 56.2654 110.678C56.1706 110.669 56.0751 110.686 55.9888 110.726L51.4536 113.361C51.5399 113.321 51.6354 113.305 51.7303 113.314C51.8251 113.323 51.9157 113.357 51.9929 113.413L55.3343 115.342C55.5555 115.486 55.7395 115.68 55.8712 115.909C56.0028 116.138 56.0785 116.395 56.0919 116.658L56.0459 132.866C56.0555 132.96 56.0401 133.055 56.0012 133.141C55.9623 133.226 55.9014 133.3 55.8247 133.355L60.36 130.719C60.4367 130.665 60.4976 130.591 60.5365 130.505C60.5754 130.419 60.5908 130.325 60.5812 130.231L60.6272 114.023C60.6137 113.759 60.5381 113.502 60.4064 113.274C60.2747 113.045 60.0907 112.851 59.8695 112.707Z" fill="#9CEBFF"/>
<path d="M52.3672 101.59C52.2935 100.961 51.9923 100.381 51.5205 99.9584C51.0487 99.5361 50.4388 99.3008 49.8056 99.2969C49.1724 99.293 48.5596 99.5207 48.0826 99.9372C47.6057 100.354 47.2974 100.93 47.2159 101.558C47.1975 101.649 47.19 101.742 47.1937 101.834C47.2313 102.048 47.32 102.249 47.4521 102.421C47.5843 102.593 47.756 102.731 47.9527 102.822C48.521 103.109 49.1486 103.258 49.7852 103.258C50.4217 103.258 51.0493 103.109 51.6177 102.822C51.8134 102.731 51.984 102.593 52.1146 102.421C52.2452 102.249 52.3319 102.048 52.3672 101.834C52.3831 101.754 52.3831 101.671 52.3672 101.59V101.59Z" fill="#50E6FF"/>
<path d="M49.7916 98.9279C50.0977 98.926 50.3964 98.8335 50.65 98.662C50.9036 98.4906 51.1008 98.2479 51.2167 97.9645C51.3325 97.6812 51.3619 97.3698 51.301 97.0698C51.2401 96.7698 51.0918 96.4945 50.8746 96.2787C50.6575 96.0629 50.3813 95.9162 50.0809 95.8572C49.7805 95.7982 49.4694 95.8294 49.1868 95.947C48.9041 96.0646 48.6626 96.2633 48.4927 96.5179C48.3228 96.7726 48.2322 97.0719 48.2322 97.378C48.2325 97.5823 48.2731 97.7844 48.3516 97.973C48.4302 98.1615 48.5452 98.3327 48.6901 98.4767C48.835 98.6206 49.0069 98.7346 49.1959 98.812C49.3849 98.8895 49.5873 98.9288 49.7916 98.9279Z" fill="#50E6FF"/>
<path d="M58.6725 112.434C58.5988 111.805 58.2976 111.225 57.8258 110.802C57.354 110.38 56.7441 110.145 56.1109 110.141C55.4777 110.137 54.8649 110.365 54.3879 110.781C53.9109 111.197 53.6027 111.774 53.5212 112.402C53.5028 112.493 53.4953 112.586 53.499 112.678C53.5366 112.892 53.6253 113.093 53.7574 113.265C53.8896 113.437 54.0613 113.575 54.258 113.666C54.8263 113.953 55.4539 114.102 56.0905 114.102C56.727 114.102 57.3546 113.953 57.923 113.666C58.1187 113.575 58.2893 113.437 58.4199 113.265C58.5505 113.093 58.6372 112.891 58.6725 112.678C58.6884 112.597 58.6884 112.514 58.6725 112.434V112.434Z" fill="#C3F1FF"/>
<path d="M56.0969 109.772C56.403 109.77 56.7017 109.677 56.9553 109.506C57.2089 109.334 57.4061 109.092 57.522 108.808C57.6378 108.525 57.6672 108.214 57.6063 107.914C57.5454 107.614 57.3971 107.338 57.1799 107.122C56.9628 106.907 56.6866 106.76 56.3862 106.701C56.0858 106.642 55.7747 106.673 55.4921 106.791C55.2094 106.908 54.9679 107.107 54.798 107.362C54.6281 107.616 54.5375 107.916 54.5375 108.222C54.5378 108.426 54.5784 108.628 54.6569 108.817C54.7355 109.005 54.8505 109.176 54.9954 109.32C55.1403 109.464 55.3122 109.578 55.5012 109.656C55.6902 109.733 55.8926 109.773 56.0969 109.772V109.772Z" fill="#C3F1FF"/>
<path d="M61.9584 124.685C62.1795 124.828 62.3634 125.022 62.4951 125.25C62.6268 125.478 62.7025 125.734 62.7159 125.997L62.6855 136.721C62.6842 137.205 62.3441 137.399 61.923 137.156L58.585 135.228C58.3634 135.085 58.1789 134.891 58.0467 134.663C57.9144 134.434 57.8381 134.178 57.824 133.914L57.8544 123.19C57.8558 122.706 58.1992 122.515 58.6203 122.758L61.9584 124.685Z" fill="#0078D4"/>
<path d="M66.4936 122.05L63.1555 120.123C63.0777 120.066 62.9862 120.032 62.8904 120.022C62.7947 120.013 62.6981 120.029 62.6107 120.069L58.0756 122.705C58.1629 122.665 58.2595 122.648 58.3552 122.658C58.451 122.667 58.5425 122.702 58.6203 122.759L61.9583 124.686C62.1794 124.829 62.3633 125.023 62.495 125.251C62.6267 125.479 62.7024 125.735 62.7158 125.998L62.6855 136.722C62.695 136.816 62.6796 136.91 62.6408 136.996C62.6019 137.082 62.541 137.156 62.4642 137.211L66.9994 134.575C67.0761 134.52 67.1371 134.447 67.1759 134.361C67.2148 134.275 67.2302 134.18 67.2206 134.087L67.251 123.363C67.2376 123.099 67.1619 122.843 67.0302 122.615C66.8985 122.387 66.7146 122.194 66.4936 122.05V122.05Z" fill="#1F56A3"/>
<path d="M65.2965 122.063C65.2228 121.434 64.9217 120.853 64.4499 120.431C63.9781 120.009 63.3681 119.773 62.7349 119.77C62.1017 119.766 61.4889 119.993 61.0119 120.41C60.535 120.826 60.2267 121.403 60.1452 122.031C60.1268 122.122 60.1193 122.214 60.123 122.307C60.1606 122.521 60.2493 122.722 60.3814 122.894C60.5136 123.066 60.6853 123.203 60.882 123.295C61.4503 123.581 62.078 123.731 62.7145 123.731C63.351 123.731 63.9786 123.581 64.547 123.295C64.7428 123.203 64.9133 123.066 65.0439 122.894C65.1745 122.722 65.2612 122.52 65.2965 122.307C65.3124 122.226 65.3124 122.143 65.2965 122.063Z" fill="#0078D4"/>
<path d="M62.7209 119.404C63.027 119.403 63.3257 119.31 63.5793 119.139C63.833 118.967 64.0301 118.724 64.146 118.441C64.2618 118.158 64.2912 117.846 64.2303 117.546C64.1694 117.246 64.0211 116.971 63.8039 116.755C63.5868 116.539 63.3106 116.393 63.0103 116.334C62.7099 116.275 62.3987 116.306 62.1161 116.424C61.8334 116.541 61.5919 116.74 61.422 116.994C61.2522 117.249 61.1615 117.548 61.1615 117.855C61.1618 118.059 61.2024 118.261 61.281 118.45C61.3595 118.638 61.4746 118.809 61.6194 118.953C61.7643 119.097 61.9362 119.211 62.1252 119.289C62.3142 119.366 62.5166 119.405 62.7209 119.404V119.404Z" fill="#0078D4"/>
<path d="M68.3251 115.505C68.5462 115.648 68.7301 115.842 68.8618 116.07C68.9935 116.298 69.0692 116.554 69.0827 116.817L69.0159 140.378C69.0145 140.862 68.6744 141.056 68.2534 140.813L64.9153 138.886C64.6937 138.742 64.5093 138.548 64.377 138.32C64.2447 138.091 64.1684 137.835 64.1543 137.571L64.2211 114.011C64.2225 113.527 64.566 113.335 64.987 113.578L68.3251 115.505Z" fill="#50E6FF"/>
<path d="M72.8603 112.867L69.5222 110.94C69.4444 110.883 69.3529 110.848 69.2571 110.839C69.1614 110.829 69.0648 110.845 68.9774 110.886L64.4423 113.521C64.5296 113.481 64.6262 113.465 64.722 113.474C64.8177 113.484 64.9092 113.518 64.987 113.575L68.3251 115.502C68.5461 115.646 68.7301 115.839 68.8618 116.067C68.9935 116.295 69.0692 116.551 69.0827 116.814L69.0159 140.375C69.0254 140.469 69.01 140.564 68.9711 140.649C68.9323 140.735 68.8714 140.809 68.7946 140.864L73.3298 138.228C73.4066 138.174 73.4675 138.1 73.5063 138.014C73.5452 137.928 73.5606 137.834 73.551 137.74L73.6179 114.179C73.6044 113.916 73.5286 113.66 73.3969 113.432C73.2652 113.204 73.0813 113.01 72.8603 112.867V112.867Z" fill="#32BEDD"/>
<path d="M74.6346 126.509C74.8558 126.653 75.0397 126.847 75.1714 127.076C75.3031 127.305 75.3787 127.561 75.3922 127.825L75.3462 144.033C75.3448 144.517 75.0048 144.711 74.5837 144.468L71.2422 142.539C71.0214 142.395 70.8378 142.201 70.7061 141.973C70.5745 141.745 70.4986 141.489 70.4846 141.226L70.5306 125.018C70.532 124.534 70.8755 124.339 71.2931 124.58L74.6346 126.509Z" fill="#C3F1FF"/>
<path d="M79.1698 123.871L75.8283 121.941C75.7512 121.886 75.6605 121.851 75.5657 121.842C75.4709 121.833 75.3754 121.85 75.2891 121.89L70.7539 124.525C70.8402 124.485 70.9357 124.469 71.0305 124.478C71.1254 124.487 71.216 124.521 71.2932 124.577L74.6346 126.506C74.8558 126.65 75.0398 126.845 75.1715 127.073C75.3031 127.302 75.3788 127.559 75.3922 127.822L75.3463 144.031C75.3559 144.124 75.3404 144.219 75.3016 144.305C75.2627 144.39 75.2018 144.464 75.125 144.519L79.6602 141.883C79.737 141.829 79.7979 141.755 79.8367 141.669C79.8756 141.583 79.891 141.489 79.8815 141.395L79.9275 125.187C79.914 124.923 79.8384 124.667 79.7067 124.438C79.575 124.209 79.391 124.015 79.1698 123.871V123.871Z" fill="#9CEBFF"/>
<path d="M71.6674 112.754C71.5936 112.125 71.2925 111.545 70.8207 111.122C70.3489 110.7 69.739 110.465 69.1058 110.461C68.4726 110.457 67.8598 110.685 67.3828 111.101C66.9058 111.518 66.5976 112.094 66.5161 112.722C66.4976 112.813 66.4902 112.906 66.4938 112.998C66.5315 113.212 66.6201 113.413 66.7523 113.585C66.8844 113.757 67.0561 113.895 67.2528 113.986C67.8212 114.273 68.4488 114.422 69.0853 114.422C69.7218 114.422 70.3495 114.273 70.9178 113.986C71.1136 113.895 71.2842 113.757 71.4148 113.585C71.5454 113.413 71.6321 113.212 71.6673 112.998C71.6832 112.918 71.6832 112.835 71.6674 112.754V112.754Z" fill="#50E6FF"/>
<path d="M69.0919 110.092C69.398 110.09 69.6967 109.998 69.9503 109.826C70.2039 109.655 70.4011 109.412 70.517 109.129C70.6328 108.845 70.6622 108.534 70.6013 108.234C70.5404 107.934 70.3921 107.659 70.1749 107.443C69.9578 107.227 69.6816 107.08 69.3812 107.021C69.0808 106.962 68.7697 106.993 68.487 107.111C68.2044 107.229 67.9629 107.427 67.793 107.682C67.6231 107.937 67.5325 108.236 67.5325 108.542C67.5328 108.746 67.5733 108.949 67.6519 109.137C67.7305 109.326 67.8455 109.497 67.9904 109.641C68.1353 109.785 68.3071 109.899 68.4962 109.976C68.6852 110.054 68.8876 110.093 69.0919 110.092V110.092Z" fill="#50E6FF"/>
<path d="M77.9727 123.598C77.8989 122.969 77.5978 122.389 77.126 121.966C76.6542 121.544 76.0443 121.309 75.4111 121.305C74.7778 121.301 74.1651 121.529 73.6881 121.945C73.2111 122.362 72.9028 122.938 72.8214 123.566C72.8029 123.657 72.7955 123.75 72.7991 123.842C72.8368 124.056 72.9255 124.257 73.0576 124.429C73.1898 124.601 73.3615 124.739 73.5582 124.83C74.1265 125.117 74.7542 125.266 75.3907 125.266C76.0272 125.266 76.6548 125.117 77.2232 124.83C77.419 124.739 77.5895 124.601 77.7201 124.429C77.8507 124.257 77.9374 124.055 77.9727 123.842C77.9886 123.762 77.9886 123.678 77.9727 123.598V123.598Z" fill="#C3F1FF"/>
<path d="M75.397 120.936C75.7032 120.934 76.0019 120.841 76.2555 120.67C76.5091 120.498 76.7063 120.256 76.8221 119.972C76.938 119.689 76.9673 119.378 76.9065 119.078C76.8456 118.778 76.6972 118.502 76.4801 118.287C76.2629 118.071 75.9868 117.924 75.6864 117.865C75.386 117.806 75.0748 117.837 74.7922 117.955C74.5095 118.072 74.2681 118.271 74.0982 118.526C73.9283 118.78 73.8376 119.08 73.8376 119.386C73.8379 119.59 73.8785 119.792 73.9571 119.981C74.0357 120.169 74.1507 120.341 74.2956 120.484C74.4405 120.628 74.6123 120.742 74.8013 120.82C74.9903 120.897 75.1928 120.937 75.397 120.936Z" fill="#C3F1FF"/>
</g>
<defs>
<linearGradient id="paint0_linear" x1="79.6785" y1="8.27734" x2="79.6785" y2="179.692" gradientUnits="userSpaceOnUse">
<stop stop-color="#00ABDE"/>
<stop offset="1" stop-color="#007ED8"/>
</linearGradient>
<linearGradient id="paint1_linear" x1="57.0284" y1="99.1261" x2="103.895" y2="99.1261" gradientUnits="userSpaceOnUse">
<stop stop-color="#005BA1"/>
<stop offset="1" stop-color="#003067"/>
</linearGradient>
<linearGradient id="paint2_linear" x1="1733.97" y1="1843.38" x2="1733.97" y2="2804.33" gradientUnits="userSpaceOnUse">
<stop stop-color="#005BA1"/>
<stop offset="1" stop-color="#003067"/>
</linearGradient>
<linearGradient id="paint3_linear" x1="78.6306" y1="59.6015" x2="78.6306" y2="121.748" gradientUnits="userSpaceOnUse">
<stop stop-color="#008BF1"/>
<stop offset="1" stop-color="#004DAE"/>
</linearGradient>
<linearGradient id="paint4_linear" x1="2364.72" y1="2518.65" x2="2364.72" y2="3932.04" gradientUnits="userSpaceOnUse">
<stop stop-color="#005BA1"/>
<stop offset="1" stop-color="#003067"/>
</linearGradient>
<linearGradient id="paint5_linear" x1="78.5236" y1="77.7656" x2="78.5236" y2="104.345" gradientUnits="userSpaceOnUse">
<stop stop-color="#005BA1"/>
<stop offset="0.26" stop-color="#00589D"/>
<stop offset="0.53" stop-color="#004F90"/>
<stop offset="0.8" stop-color="#003F7C"/>
<stop offset="1" stop-color="#003067"/>
</linearGradient>
<linearGradient id="paint6_linear" x1="1668.04" y1="2216.78" x2="1388.13" y2="2593.71" gradientUnits="userSpaceOnUse">
<stop stop-color="#008BF1"/>
<stop offset="1" stop-color="#004DAE"/>
</linearGradient>
<clipPath id="clip0">
<rect width="159.356" height="188" fill="white"/>
</clipPath>
</defs>
</svg>
