<svg width="100" height="100" viewBox="0 0 100 100" fill="none" xmlns="http://www.w3.org/2000/svg">
<g clip-path="url(#clip0)">
<path d="M49.1926 96.4501C39.9344 96.4501 30.8842 93.7047 23.1863 88.5612C15.4885 83.4176 9.48873 76.1069 5.94579 67.5535C2.40285 59.0001 1.47586 49.5882 3.28203 40.5079C5.0882 31.4277 9.54643 23.0869 16.0929 16.5404C22.6394 9.99393 30.9802 5.53571 40.0604 3.72954C49.1407 1.92337 58.5526 2.85036 67.106 6.3933C75.6594 9.93624 82.9701 15.936 88.1137 23.6339C93.2572 31.3317 96.0026 40.382 96.0026 49.6401C96.003 55.7874 94.7925 61.8746 92.4403 67.554C90.088 73.2335 86.64 78.3939 82.2932 82.7407C77.9464 87.0875 72.7859 90.5355 67.1065 92.8878C61.4271 95.24 55.3399 96.4505 49.1926 96.4501V96.4501Z" fill="url(#paint0_linear)"/>
<path fill-rule="evenodd" clip-rule="evenodd" d="M95.5402 49.7103C95.5402 58.7885 92.8483 67.6628 87.8047 75.211C82.7611 82.7592 75.5925 88.6423 67.2054 92.1164C58.8183 95.5904 49.5893 96.4994 40.6856 94.7284C31.7819 92.9573 23.6033 88.5857 17.184 82.1665C10.7648 75.7473 6.39326 67.5687 4.6222 58.665C2.85114 49.7612 3.76011 40.5323 7.23417 32.1451C10.7082 23.758 16.5914 16.5894 24.1396 11.5459C31.6878 6.5023 40.5621 3.81031 49.6402 3.81031C55.6679 3.81029 61.6366 4.99751 67.2054 7.3042C72.7743 9.61088 77.8343 12.9918 82.0965 17.2541C86.3587 21.5163 89.7397 26.5763 92.0464 32.1451C94.353 37.714 95.5403 43.6826 95.5402 49.7103V49.7103ZM49.6402 0.0703125C59.4581 0.0703125 69.0555 2.98165 77.2188 8.43616C85.382 13.8907 91.7445 21.6434 95.5016 30.7139C99.2588 39.7844 100.242 49.7654 98.3264 59.3946C96.4111 69.0238 91.6833 77.8688 84.741 84.8111C77.7987 91.7534 68.9537 96.4811 59.3245 98.3965C49.6953 100.312 39.7144 99.3288 30.6438 95.5717C21.5733 91.8146 13.8206 85.4521 8.36609 77.2888C2.91158 69.1256 0.000244502 59.5282 0.000244502 49.7103C-0.000542285 43.1913 1.2829 36.7359 3.77726 30.713C6.27163 24.69 9.92805 19.2174 14.5377 14.6078C19.1474 9.99812 24.62 6.3417 30.6429 3.84734C36.6659 1.35297 43.1212 0.0695344 49.6402 0.0703225V0.0703125Z" fill="#F2F1F0"/>
<path fill-rule="evenodd" clip-rule="evenodd" d="M92.2821 49.6386C92.2821 58.161 89.7549 66.492 85.0201 73.5781C80.2853 80.6643 73.5556 86.1872 65.6819 89.4486C57.8082 92.71 49.1443 93.5633 40.7856 91.9007C32.427 90.238 24.7491 86.1341 18.7228 80.1079C12.6966 74.0816 8.59266 66.4037 6.93002 58.0451C5.26739 49.6864 6.12071 41.0225 9.38209 33.1488C12.6435 25.2751 18.1664 18.5454 25.2525 13.8106C32.3387 9.07581 40.6697 6.54862 49.1921 6.54862C54.8508 6.54828 60.4542 7.6626 65.6823 9.82795C70.9104 11.9933 75.6607 15.1673 79.6621 19.1686C83.6634 23.17 86.8374 27.9203 89.0027 33.1484C91.1681 38.3765 92.2824 43.9799 92.2821 49.6386V49.6386ZM49.1921 2.80862C58.4542 2.80862 67.5083 5.55515 75.2094 10.7009C82.9106 15.8466 88.9129 23.1605 92.4573 31.7176C96.0018 40.2746 96.9292 49.6906 95.1222 58.7747C93.3153 67.8588 88.8552 76.2031 82.3059 82.7524C75.7566 89.3017 67.4123 93.7619 58.3281 95.5688C49.244 97.3757 39.8281 96.4484 31.271 92.9039C22.7139 89.3594 15.4001 83.3571 10.2543 75.656C5.10859 67.9548 2.36206 58.9007 2.36206 49.6386C2.36325 37.2189 7.29749 25.3082 16.0796 16.5261C24.8616 7.74404 36.7723 2.80979 49.1921 2.80859V2.80862Z" fill="#0078D4"/>
<path fill-rule="evenodd" clip-rule="evenodd" d="M70.1492 69.9815C70.1463 70.9696 69.7525 71.9164 69.0538 72.6151C68.3551 73.3138 67.4083 73.7076 66.4202 73.7105H32.8589C31.8708 73.7076 30.924 73.3138 30.2253 72.6151C29.5266 71.9164 29.1328 70.9696 29.1299 69.9815V42.0137H70.1492V69.9815Z" fill="#1F56A3"/>
<path fill-rule="evenodd" clip-rule="evenodd" d="M70.1492 42.0146C70.1463 43.0027 69.7525 43.9496 69.0538 44.6483C68.3551 45.347 67.4083 45.7408 66.4202 45.7436H32.8589C31.8708 45.7407 30.924 45.3469 30.2253 44.6482C29.5266 43.9495 29.1328 43.0027 29.1299 42.0146V38.2856C29.1328 37.2975 29.5266 36.3507 30.2253 35.652C30.924 34.9533 31.8708 34.5595 32.8589 34.5566H66.4202C67.4083 34.5595 68.3551 34.9533 69.0538 35.652C69.7525 36.3507 70.1463 37.2975 70.1492 38.2856V42.0146Z" fill="#0078D4"/>
<path opacity="0.2" fill-rule="evenodd" clip-rule="evenodd" d="M66.4202 46.6763H51.504C51.2591 46.6762 51.0167 46.7244 50.7904 46.8181C50.5642 46.9118 50.3586 47.0491 50.1855 47.2223C50.0123 47.3954 49.875 47.601 49.7813 47.8272C49.6876 48.0534 49.6395 48.2959 49.6395 48.5408V69.9827C49.6396 70.2276 49.5914 70.47 49.4977 70.6963C49.4041 70.9225 49.2667 71.1281 49.0936 71.3013C48.9205 71.4744 48.7149 71.6118 48.4887 71.7054C48.2624 71.7991 48.0199 71.8473 47.7751 71.8472H32.8589C31.8708 71.8443 30.924 71.4505 30.2253 70.7518C29.5266 70.0531 29.1328 69.1063 29.1299 68.1182V69.9827C29.1328 70.9708 29.5266 71.9176 30.2253 72.6163C30.924 73.315 31.8708 73.7088 32.8589 73.7117H66.4202C67.4083 73.7088 68.3551 73.315 69.0538 72.6163C69.7525 71.9176 70.1463 70.9708 70.1492 69.9827V42.9473C70.1463 43.9354 69.7525 44.8822 69.0538 45.5809C68.3551 46.2796 67.4083 46.6734 66.4202 46.6763V46.6763Z" fill="#003067"/>
<path fill-rule="evenodd" clip-rule="evenodd" d="M41.2491 40.1503C41.2491 41.6941 39.5794 42.947 37.52 42.947C35.4606 42.947 33.791 41.6941 33.791 40.1503C33.791 38.6064 35.4607 37.3535 37.52 37.3535C39.5793 37.3535 41.2491 38.6064 41.2491 40.1503Z" fill="#182A37"/>
<path fill-rule="evenodd" clip-rule="evenodd" d="M65.4883 40.1503C65.4883 41.6941 63.8186 42.947 61.7593 42.947C59.7 42.947 58.0303 41.6941 58.0303 40.1503C58.0303 38.6064 59.7 37.3535 61.7593 37.3535C63.8186 37.3535 65.4883 38.6064 65.4883 40.1503Z" fill="#182A37"/>
<path fill-rule="evenodd" clip-rule="evenodd" d="M49.6398 14.0469C45.6852 14.0515 41.8939 15.6245 39.0976 18.4208C36.3012 21.2171 34.7282 25.0084 34.7236 28.963V41.982C35.5218 42.6072 36.5065 42.9469 37.5204 42.9469C38.5343 42.9469 39.519 42.6072 40.3172 41.982V28.963C40.3172 26.4905 41.2994 24.1193 43.0477 22.3709C44.796 20.6226 47.1673 19.6404 49.6398 19.6404C52.1123 19.6404 54.4835 20.6226 56.2318 22.3709C57.9801 24.1193 58.9623 26.4905 58.9623 28.963V41.982C59.3413 42.3202 59.7837 42.5797 60.2638 42.7454C60.7439 42.911 61.2522 42.9796 61.7591 42.947C62.267 42.9926 62.7787 42.9302 63.2608 42.7639C63.7428 42.5975 64.1842 42.3311 64.5559 41.982V28.963C64.5513 25.0084 62.9783 21.2171 60.182 18.4208C57.3856 15.6245 53.5943 14.0515 49.6398 14.0469V14.0469Z" fill="white"/>
<path opacity="0.2" fill-rule="evenodd" clip-rule="evenodd" d="M44.2923 20.3489C42.5384 21.1169 41.0494 22.3842 40.011 23.9928C38.9725 25.6014 38.4305 27.4801 38.4526 29.3946V38.9372C38.4539 39.2223 38.3895 39.504 38.2645 39.7603C38.1395 40.0166 37.9572 40.2407 37.7317 40.4153C37.5062 40.5898 37.2436 40.7102 36.9641 40.767C36.6847 40.8239 36.3959 40.8157 36.1201 40.743C35.6176 40.6301 35.1428 40.4177 34.7236 40.1184V41.9829C35.5126 42.6249 36.5034 42.9667 37.5204 42.9478C37.8336 42.9453 38.1459 42.9122 38.4526 42.8489C38.6372 42.813 38.8193 42.7657 38.9981 42.7073C39.0884 42.6775 39.1724 42.6401 39.2582 42.6057C39.3868 42.5534 39.5117 42.4975 39.631 42.435C39.6954 42.4005 39.7597 42.3679 39.8212 42.3307C39.9963 42.2292 40.1622 42.1129 40.3172 41.9829V28.9639C40.3202 26.6537 41.1797 24.4267 42.7294 22.7135C44.2792 21.0003 46.4092 19.9226 48.7075 19.6889C47.2037 19.532 45.6846 19.7591 44.2923 20.3489V20.3489Z" fill="#B3B3B3"/>
<path opacity="0.2" fill-rule="evenodd" clip-rule="evenodd" d="M49.64 14.0469C49.3258 14.0469 49.0182 14.0739 48.7078 14.0944C52.4912 14.333 56.0421 16.0025 58.6393 18.764C61.2365 21.5256 62.6853 25.172 62.6916 28.963V38.9363C62.6928 39.2215 62.6284 39.5031 62.5034 39.7594C62.3784 40.0157 62.1961 40.2398 61.9706 40.4144C61.7451 40.5889 61.4825 40.7093 61.2031 40.7661C60.9236 40.8229 60.6349 40.8147 60.3591 40.7421C59.8566 40.6292 59.3817 40.4168 58.9625 40.1175V41.982C59.7608 42.6072 60.7454 42.9469 61.7593 42.9469C62.7733 42.9469 63.7579 42.6072 64.5561 41.982V28.963C64.5515 25.0084 62.9785 21.2171 60.1822 18.4208C57.3859 15.6245 53.5946 14.0515 49.64 14.0469V14.0469Z" fill="#B3B3B3"/>
<path d="M57.8795 51.4139C57.4539 51.4139 57.0382 51.3984 56.6356 51.3676C56.2641 51.3389 55.8949 51.2862 55.5302 51.2098C55.1926 51.1388 54.862 51.0382 54.5421 50.9092C54.2277 50.7811 53.9272 50.6215 53.645 50.4328C53.1422 50.0889 52.5926 49.8188 52.0132 49.6308C51.4736 49.4604 50.9176 49.3473 50.3543 49.2934C50.2985 49.288 50.2436 49.2852 50.1887 49.2852H49.0907C49.0357 49.2852 48.9808 49.288 48.925 49.2934C48.3615 49.3473 47.8051 49.4606 47.2653 49.6312C46.6949 49.8155 46.1533 50.0792 45.6565 50.4147C45.3648 50.6102 45.0547 50.7768 44.7307 50.9121C44.4149 51.0404 44.0879 51.1396 43.7541 51.2085C43.3853 51.2852 43.0119 51.3383 42.6364 51.3676C42.2321 51.3983 41.8199 51.4138 41.3998 51.4139C40.9544 51.4139 40.5273 51.5909 40.2124 51.9058C39.8974 52.2207 39.7205 52.6479 39.7205 53.0933L39.7213 57.5402C39.7278 57.7411 39.7377 57.942 39.7492 58.1347C39.7623 58.3548 39.7828 58.575 39.8107 58.7952C39.8394 59.0248 40.0001 59.8788 40.0567 60.1015C40.3349 61.1912 40.7717 62.2342 41.3531 63.197C41.9127 64.1225 42.5691 64.9859 43.3113 65.7726C44.0449 66.5493 44.8447 67.2608 45.7016 67.8989C46.5174 68.5075 47.3669 69.0695 48.2461 69.5824C48.5024 69.7319 48.7939 69.8105 49.0907 69.8104H50.1887C50.4854 69.8105 50.7769 69.7319 51.0333 69.5824C51.9125 69.0695 52.7621 68.5074 53.5778 67.8985C54.4346 67.2606 55.2344 66.5495 55.9681 65.773C56.7101 64.9861 57.3665 64.1226 57.9263 63.197C58.5076 62.2342 58.9444 61.1913 59.2227 60.1015C59.2801 59.8789 59.4285 59.0572 59.4613 58.8465C59.4982 58.6116 59.5239 58.3769 59.5384 58.1425C59.5523 57.9244 59.5592 57.7061 59.5589 57.4877V53.0933C59.5589 52.6479 59.3819 52.2208 59.067 51.9058C58.752 51.5909 58.3249 51.414 57.8795 51.4139V51.4139Z" fill="#1F56A3"/>
<path d="M50.1889 50.9648C50.6348 51.007 51.075 51.0962 51.5021 51.2309C51.929 51.3698 52.3336 51.5692 52.7038 51.8231C53.084 52.0786 53.4896 52.2944 53.914 52.4669C54.3253 52.6326 54.7503 52.7618 55.1843 52.8531C55.6203 52.9448 56.0618 53.0079 56.5061 53.0419C56.9524 53.0763 57.4101 53.0934 57.8794 53.0934V57.488C57.8794 57.6711 57.8736 57.8542 57.8622 58.0373C57.8507 58.2204 57.8307 58.4035 57.8021 58.5866H50.1889V50.9648ZM41.3999 53.0934C41.8634 53.0934 42.3183 53.0763 42.7646 53.0419C43.2117 53.0075 43.6561 52.9444 44.095 52.8531C44.5294 52.7635 44.9546 52.6342 45.3653 52.4669C45.792 52.29 46.2003 52.0715 46.5841 51.8146C46.9522 51.5646 47.3538 51.368 47.7771 51.2309C48.2042 51.0962 48.6444 51.007 49.0903 50.9648V58.5866H41.4772C41.4543 58.4035 41.4371 58.2204 41.4257 58.0373C41.4142 57.8542 41.4056 57.6711 41.3999 57.488L41.3999 53.0934ZM49.0904 68.1309C48.2658 67.65 47.4692 67.1227 46.7043 66.5517C45.9254 65.9725 45.1988 65.3263 44.5328 64.6205C43.8721 63.9207 43.288 63.1525 42.7904 62.3288C42.2934 61.5068 41.9203 60.616 41.6832 59.6852H49.0903L49.0904 68.1309ZM50.189 59.6852H57.5962C57.359 60.616 56.9859 61.5068 56.4889 62.3288C55.9913 63.1525 55.4072 63.9207 54.7466 64.6205C54.0805 65.3263 53.3539 65.9725 52.5751 66.5517C51.8102 67.1227 51.0135 67.65 50.189 68.1309V59.6852Z" fill="#50E6FF"/>
<path opacity="0.2" d="M70.0637 47.2852C68.7286 47.285 67.4244 47.687 66.321 48.4389C65.2177 49.1907 64.3665 50.2576 63.8784 51.5003C63.3903 52.743 63.2879 54.1039 63.5845 55.4057C63.8812 56.7074 64.5632 57.8896 65.5415 58.7982V61.4319L59.4233 64.9759V73.7474H70.0637V73.7189L70.1493 73.7474V47.2852H70.0637Z" fill="#003067"/>
<path d="M78.8635 66.1479L72.7217 62.5609V57.7402C73.54 57.1713 74.1539 56.3544 74.4727 55.4101C74.7915 54.4658 74.7985 53.4441 74.4925 52.4955C74.1865 51.547 73.5839 50.7218 72.7733 50.1418C71.9628 49.5618 70.9874 49.2576 69.9908 49.2741C68.9943 49.2905 68.0294 49.6268 67.2385 50.2333C66.4476 50.8397 65.8725 51.6843 65.598 52.6424C65.3236 53.6006 65.3642 54.6215 65.7141 55.5548C66.0639 56.4881 66.7044 57.2842 67.5411 57.8258V62.5848L61.4238 66.1288V76.2354L70.1488 81.2944L78.8746 76.2346L78.8635 66.1479Z" fill="white"/>
<path d="M73.5512 69.2243C73.8915 69.8253 74.0696 70.5045 74.0679 71.1952C74.0663 71.8859 73.8849 72.5643 73.5417 73.1637C73.1985 73.763 72.7052 74.2628 72.1103 74.6138C71.5155 74.9647 70.8395 75.1549 70.1489 75.1656V79.4184L77.2512 75.3002V67.0781L73.5512 69.2243Z" fill="#32BEDD"/>
<path d="M72.075 64.0625V67.7055C72.3639 67.8723 72.6301 68.0756 72.867 68.3105C73.1365 68.582 73.3649 68.8915 73.5449 69.2292L77.2417 67.0798L72.075 64.0625Z" fill="#9CEBFF"/>
<path d="M67.2108 68.359C67.4965 68.0676 67.827 67.8238 68.1896 67.6367V64.084L63.0466 67.0633L66.6215 69.1446C66.7854 68.8598 66.9833 68.596 67.2108 68.359V68.359Z" fill="#9CEBFF"/>
<path d="M70.0681 75.1741C69.3631 75.1771 68.6699 74.993 68.0592 74.6407C67.4485 74.2883 66.9421 73.7804 66.5918 73.1685C66.2414 72.5567 66.0596 71.8629 66.0648 71.1579C66.07 70.4528 66.2621 69.7618 66.6215 69.1552L63.0466 67.0645V75.3008L70.1489 79.419V75.1662C70.1251 75.1662 70.0982 75.1741 70.0681 75.1741Z" fill="#50E6FF"/>
<path d="M67.9473 73.3262C68.2307 73.6055 68.5665 73.8262 68.9353 73.9757C69.3041 74.1252 69.6988 74.2004 70.0968 74.1972C70.4948 74.194 70.8882 74.1123 71.2546 73.9569C71.6209 73.8015 71.9531 73.5754 72.232 73.2915C72.5109 73.0076 72.7311 72.6715 72.88 72.3024C73.0288 71.9333 73.1035 71.5385 73.0996 71.1406C73.0958 70.7426 73.0135 70.3493 72.8575 69.9832C72.7015 69.6171 72.4749 69.2853 72.1905 69.0068C71.88 68.705 71.5077 68.4743 71.0992 68.3305V55.3281H69.1637V68.2941C68.6634 68.4466 68.2115 68.7269 67.8526 69.1073C67.4937 69.4877 67.24 69.9551 67.1168 70.4633C66.9935 70.9716 67.0048 71.5032 67.1496 72.0058C67.2944 72.5084 67.5677 72.9646 67.9425 73.3293L67.9473 73.3262Z" fill="url(#paint1_linear)"/>
<path d="M70.0681 56.9619C71.7398 56.9619 73.095 55.6068 73.095 53.9351C73.095 52.2634 71.7398 50.9082 70.0681 50.9082C68.3964 50.9082 67.0413 52.2634 67.0413 53.9351C67.0413 55.6068 68.3964 56.9619 70.0681 56.9619Z" fill="url(#paint2_linear)"/>
</g>
<defs>
<linearGradient id="paint0_linear" x1="47.4222" y1="-15.153" x2="51.405" y2="130.615" gradientUnits="userSpaceOnUse">
<stop stop-color="#00ABDE"/>
<stop offset="1" stop-color="#007ED8"/>
</linearGradient>
<linearGradient id="paint1_linear" x1="70.0638" y1="54.9448" x2="70.0638" y2="74.267" gradientUnits="userSpaceOnUse">
<stop stop-color="#E6E6E6"/>
<stop offset="1" stop-color="#999999"/>
</linearGradient>
<linearGradient id="paint2_linear" x1="70.0681" y1="51.0428" x2="70.0681" y2="57.0966" gradientUnits="userSpaceOnUse">
<stop stop-color="#50E6FF"/>
<stop offset="1" stop-color="#32BEDD"/>
</linearGradient>
<clipPath id="clip0">
<rect width="99.2799" height="99.28" fill="white"/>
</clipPath>
</defs>
</svg>
