<?xml version="1.0" encoding="UTF-8"?>
<svg width="100px" height="118px" viewBox="0 0 100 118" version="1.1" xmlns="http://www.w3.org/2000/svg" xmlns:xlink="http://www.w3.org/1999/xlink">
    <!-- Generator: Sketch 52.6 (67491) - http://www.bohemiancoding.com/sketch -->
    <title>M365 SFA Generalist/m365-sfa-generalist</title>
    <desc>Created with Sketch.</desc>
    <defs>
        <path d="M42.7425,1.49663266 C44.3745,0.498877554 46.1865,0 48,0 C49.8135,0 51.627,0.498877554 53.256,1.49663266 L90.591,24.3316189 C93.933,26.3773408 96,30.2031485 96,34.3529027 L96,79.6470973 C96,83.7952317 93.933,87.6242789 90.591,89.6683811 L53.256,112.504987 C51.627,113.501122 49.8135,114 48,114 C46.1865,114 44.3745,113.501122 42.7425,112.504987 L5.409,89.6683811 C2.0655,87.6242789 0,83.7952317 0,79.6470973 L0,34.3529027 C0,30.2031485 2.0655,26.3773408 5.409,24.3316189 L42.7425,1.49663266 Z" id="path-1"></path>
        <filter x="-6.8%" y="-5.7%" width="113.6%" height="111.4%" filterUnits="objectBoundingBox" id="filter-3">
            <feOffset dx="0" dy="2" in="SourceAlpha" result="shadowOffsetOuter1"></feOffset>
            <feColorMatrix values="0 0 0 0 0   0 0 0 0 0   0 0 0 0 0  0 0 0 0.102043705 0" type="matrix" in="shadowOffsetOuter1" result="shadowMatrixOuter1"></feColorMatrix>
            <feMerge>
                <feMergeNode in="shadowMatrixOuter1"></feMergeNode>
                <feMergeNode in="SourceGraphic"></feMergeNode>
            </feMerge>
        </filter>
        <text id="text-4" font-family="SegoeUI-Bold, Segoe UI" font-size="16.8" font-weight="bold" fill="#FFFFFF">
            <tspan x="33.4050781" y="53.7">365</tspan>
        </text>
        <filter x="-1.7%" y="-2.3%" width="103.4%" height="109.1%" filterUnits="objectBoundingBox" id="filter-5">
            <feOffset dx="0" dy="1" in="SourceAlpha" result="shadowOffsetOuter1"></feOffset>
            <feColorMatrix values="0 0 0 0 0   0 0 0 0 0   0 0 0 0 0  0 0 0 0.0977411685 0" type="matrix" in="shadowOffsetOuter1"></feColorMatrix>
        </filter>
    </defs>
    <g id="Badges" stroke="none" stroke-width="1" fill="none" fill-rule="evenodd">
        <g id="M365-SFA-Generalist-1" transform="translate(-50.000000, -50.000000)">
            <g id="M365-SFA-Generalist/m365-sfa-generalist" transform="translate(50.000000, 50.000000)">
                <g id="Mask" transform="translate(2.000000, 2.000000)">
                    <mask id="mask-2" fill="white">
                        <use xlink:href="#path-1"></use>
                    </mask>
                    <use id="Trophy-1" fill="#55A2FF" xlink:href="#path-1"></use>
                    <g id="Trophey" filter="url(#filter-3)" mask="url(#mask-2)">
                        <g transform="translate(18.500000, 24.000000)">
                            <polyline id="Fill-1" fill="#EFB252" points="36.0525 56.81 22.9425 56.81 24.035 44.7925 34.96 44.7925 36.0525 56.81"></polyline>
                            <path d="M36.0525,56.81 L35.158835,47.185075 L35.1599275,47.185075 L34.96,44.7925 L24.035,44.7925 L23.8350725,47.185075 C25.016065,47.5619875 26.2473125,47.827465 27.5167975,47.9640275 C28.6377025,48.0842025 29.4975,49.00518 29.4975,50.1315475 L29.4975,56.81 L36.0525,56.81" id="Fill-2" fill="#CC9547"></path>
                            <path d="M40.4225,55.7175 C41.62425,55.7175 42.6075,56.70075 42.6075,57.9025 L42.6075,65.55 C42.6075,66.75175 41.62425,67.735 40.4225,67.735 L18.5725,67.735 C17.37075,67.735 16.3875,66.75175 16.3875,65.55 L16.3875,57.9025 C16.3875,56.70075 17.37075,55.7175 18.5725,55.7175 L40.4225,55.7175" id="Fill-3" fill="#546670"></path>
                            <path d="M40.4225,55.7175 L29.4975,55.7175 L29.4975,67.735 L40.4225,67.735 C41.62425,67.735 42.6075,66.75175 42.6075,65.55 L42.6075,57.9025 C42.6075,56.70075 41.62425,55.7175 40.4225,55.7175" id="Fill-4" fill="#30404D"></path>
                            <path d="M10.925,26.2210925 C7.3033625,26.2210925 4.3710925,23.2866375 4.37,19.6660925 L4.37,8.74 L10.925,8.74 L10.925,4.37 L2.185,4.37 C0.9777875,4.37 -4.9733267e-13,5.3477875 -4.9733267e-13,6.555 L-4.9733267e-13,19.6660925 C-0.002185,25.69997 4.8889375,30.59 10.9239075,30.59 C10.925,30.59 10.925,30.59 10.925,30.59 L12.0175,30.59 L12.0175,26.22 L10.925,26.22 L10.925,26.2210925" id="Fill-5" fill="#F7CB64"></path>
                            <path d="M10.9239075,30.59 C10.175545,30.59 9.445755,30.5146175 8.74,30.3715 L8.74,25.83981 C9.423905,26.082345 10.1569725,26.2210925 10.925,26.2210925 L10.925,26.22 L12.0175,26.22 L12.0175,30.59 L10.925,30.59 C10.925,30.59 10.925,30.59 10.9239075,30.59" id="Fill-6" fill="#EFB252"></path>
                            <polygon id="Fill-7" fill="#EFB252" points="8.74 8.74 10.925 8.74 10.925 4.37 8.74 4.37"></polygon>
                            <path d="M56.81,4.37 L48.07,4.37 L48.07,8.74 L54.625,8.74 L54.625,19.6660925 C54.6239075,23.2866375 51.690545,26.2210925 48.07,26.2210925 L48.07,26.22 L46.9775,26.22 L46.9775,30.59 L48.07,30.59 C48.07,30.59 48.07,30.59 48.0710925,30.59 C54.1060625,30.59 58.997185,25.69997 58.995,19.6660925 L58.995,6.555 C58.995,5.3477875 58.01612,4.37 56.81,4.37" id="Fill-8" fill="#EFB252"></path>
                            <path d="M48.0710925,30.59 C48.8183625,30.59 49.5481525,30.5146175 50.255,30.3715 L50.255,25.83981 C49.5700025,26.082345 48.8380275,26.2210925 48.07,26.2210925 L48.07,26.22 L46.9775,26.22 L46.9775,30.59 L48.07,30.59 C48.07,30.59 48.07,30.59 48.0710925,30.59" id="Fill-9" fill="#CC9547"></path>
                            <polygon id="Fill-10" fill="#CC9547" points="48.07 8.74 50.255 8.74 50.255 4.37 48.07 4.37"></polygon>
                            <path d="M43.7,65.55 C44.300875,65.55 44.7925,66.041625 44.7925,66.6425 L44.7925,68.8275 C44.7925,69.428375 44.300875,69.92 43.7,69.92 L15.295,69.92 C14.694125,69.92 14.2025,69.428375 14.2025,68.8275 L14.2025,66.6425 C14.2025,66.041625 14.694125,65.55 15.295,65.55 L43.7,65.55" id="Fill-11" fill="#30404D"></path>
                            <path d="M45.885,0 L13.11,0 C11.90825,0 10.925,0.98325 10.925,2.185 L10.925,27.3125 C10.925,37.571075 19.2400175,45.885 29.4975,45.885 C39.7549825,45.885 48.07,37.571075 48.07,27.3125 L48.07,2.185 C48.07,0.98325 47.08675,0 45.885,0" id="Fill-12" fill="#F7CB64"></path>
                            <g id="Group-3" stroke-width="1" fill="none" transform="translate(22.000000, 58.000000)">
                                <path d="M11.8675,5.365 L3.1275,5.365 C1.9202875,5.365 0.9425,4.3872125 0.9425,3.18 C0.9425,1.9727875 1.9202875,0.995 3.1275,0.995 L11.8675,0.995 C13.0747125,0.995 14.0525,1.9727875 14.0525,3.18 C14.0525,4.3872125 13.0747125,5.365 11.8675,5.365" id="Fill-13" fill="#ADBDC4"></path>
                                <polyline id="Fill-14" fill="#8BA6B1" points="8.59 5.365 6.405 5.365 8.59 0.995 10.775 0.995 8.59 5.365"></polyline>
                                <path d="M14.0525,3.18 C14.0525,1.9727875 13.0747125,0.995 11.8675,0.995 L9.6825,5.365 L11.8675,5.365 C13.0747125,5.365 14.0525,4.3872125 14.0525,3.18" id="Fill-15" fill="#8BA6B1"></path>
                            </g>
                            <path d="M43.7,65.55 L29.4975,65.55 L29.4975,66.6425 C29.4975,67.8497125 28.5197125,68.8275 27.3125,68.8275 L14.2025,68.8275 C14.2025,69.428375 14.694125,69.92 15.295,69.92 L43.7,69.92 C44.300875,69.92 44.7925,69.428375 44.7925,68.8275 L44.7925,66.6425 C44.7925,66.041625 44.300875,65.55 43.7,65.55" id="Fill-16" fill="#182A37"></path>
                            <path d="M29.4975,2.185 L29.4975,37.549225 C29.4975,40.4651075 26.67448,42.6260725 23.8940675,41.74661 C16.8802175,39.5277425 11.6711775,33.2524225 11.00803,25.67375 C10.95996,26.2145375 10.925,26.759695 10.925,27.3125 C10.925,37.5699825 19.2400175,45.885 29.4975,45.885 C30.23603,45.885 30.96145,45.830375 31.67813,45.7462525 C40.905385,44.6646775 48.07,36.8314525 48.07,27.3125 L48.07,2.185 L29.4975,2.185" id="Fill-17" fill="#EFB252"></path>
                            <path d="M16.3875,19.665 C15.78444,19.665 15.295,19.17556 15.295,18.5725 L15.295,5.4625 C15.295,4.85944 15.78444,4.37 16.3875,4.37 C16.99056,4.37 17.48,4.85944 17.48,5.4625 L17.48,18.5725 C17.48,19.17556 16.99056,19.665 16.3875,19.665" id="Fill-18" fill="#FDE1A2"></path>
                        </g>
                    </g>
                    <g id="365" mask="url(#mask-2)" fill="#FFFFFF" fill-opacity="1">
                        <use filter="url(#filter-5)" xlink:href="#text-4"></use>
                        <use xlink:href="#text-4"></use>
                    </g>
                </g>
                <g id="Azure-Hex-Border" stroke="#0078D4" stroke-width="4">
                    <path d="M45.5620146,3.25834407 L6.67338401,26.8942953 C3.79673288,28.6432593 2,31.9508238 2,35.5582677 L2,82.4417323 C2,86.0486597 3.79764663,89.3586805 6.67318764,91.1055853 L45.560618,114.742485 C46.9289662,115.572418 48.4546283,116 50,116 C51.5458817,116 53.0723633,115.572188 54.4362178,114.743457 L93.3268764,91.1055464 C96.2016145,89.3583456 98,86.0476286 98,82.4417323 L98,35.5582677 C98,31.9518547 96.202529,28.6435953 93.3268966,26.8944659 L54.4351916,3.25759524 C53.0721095,2.42798656 51.5462432,2 50,2 C48.4543284,2 46.9293388,2.42772325 45.5620146,3.25834407 Z M45.5620146,3.25834407 C45.5619597,3.25837737 45.5619049,3.25841067 45.5618501,3.25844398 L45.5621963,3.25823359 L45.5620146,3.25834407 Z"></path>
                </g>
            </g>
        </g>
    </g>
</svg>