<svg width="160" height="188" viewBox="0 0 160 188" fill="none" xmlns="https://www.w3.org/2000/svg">
<g clip-path="url(#clip0)">
<path d="M79.6779 188C82.7592 187.994 85.7796 187.141 88.4083 185.534L150.384 147.874C153.165 146.11 155.449 143.665 157.019 140.771C158.589 137.876 159.394 134.628 159.356 131.336V56.6207C159.392 53.3283 158.587 50.0812 157.017 47.1871C155.447 44.2929 153.163 41.8476 150.384 40.0829L88.4083 2.4228C85.7749 0.837605 82.7592 0 79.6855 0C76.6118 0 73.5961 0.837605 70.9627 2.4228L8.9876 40.098C6.2045 41.8604 3.91796 44.3048 2.34499 47.1991C0.772021 50.0935 -0.0351786 53.3418 4.1431e-06 56.6358V131.336C-0.0185283 134.119 0.556189 136.874 1.68588 139.418C2.81557 141.962 4.4743 144.236 6.5516 146.089V146.115L70.9627 185.549C73.5884 187.149 76.6032 187.996 79.6779 188V188ZM80.3257 6.95218C82.2776 6.95218 84.7548 8.1651 86.4646 9.20912L147.222 46.4034C150.974 48.6881 153.09 55.2842 153.09 60.0352L152.458 131.336C152.458 136.087 149.259 140.355 145.506 142.64L85.1104 179.021C81.6758 181.109 78.8854 181.109 75.4507 179.021L14.2427 142.549C10.4903 140.265 7.47191 136.072 7.47191 131.336V57.688C7.50442 55.3228 8.11341 53.0013 9.24608 50.9247C10.3787 48.8482 12.0009 47.0792 13.9718 45.7714L74.548 9.20912C76.2577 8.1651 78.3739 6.95218 80.3257 6.95218Z" fill="#F2F1F0"/>
<path fill-rule="evenodd" clip-rule="evenodd" d="M87.5765 10.5337C85.2056 9.0602 82.4697 8.2793 79.6783 8.2793C76.8868 8.2793 74.1509 9.0602 71.7801 10.5337L15.6454 44.8651C13.1193 46.4768 11.047 48.7072 9.625 51.3446C8.203 53.9821 7.47851 56.9392 7.52026 59.9352V128.038C7.48034 131.034 8.20562 133.991 9.62745 136.628C11.0493 139.265 13.1206 141.495 15.6454 143.108L71.7801 177.439C74.1508 178.913 76.8867 179.694 79.6783 179.694C82.4698 179.694 85.2057 178.913 87.5765 177.439L143.711 143.108C146.236 141.496 148.307 139.265 149.729 136.628C151.151 133.991 151.877 131.034 151.837 128.038V59.9352C151.875 56.9397 151.149 53.9839 149.727 51.347C148.305 48.7101 146.234 46.4793 143.711 44.8651L87.5765 10.5337Z" fill="url(#paint0_linear)"/>
<path fill-rule="evenodd" clip-rule="evenodd" d="M79.6783 9.7539C81.3615 9.7539 83.2442 10.6196 85.311 11.8777L143.777 47.4201C145.668 48.6335 147.218 50.3104 148.278 52.2914C149.339 54.2725 149.875 56.4918 149.837 58.7386V129.217C149.875 131.464 149.339 133.683 148.278 135.664C147.218 137.645 145.668 139.322 143.777 140.535L85.312 176.077L85.311 176.078C83.6408 177.217 81.6958 177.888 79.6783 178.021C77.6609 177.888 75.7158 177.217 74.0456 176.078L74.0446 176.077L15.5823 140.537L15.5801 140.536C13.7918 139.572 12.2668 138.185 11.1383 136.496C10.1614 134.893 9.52031 132.678 9.52031 129.217V58.7386C9.48157 56.4919 10.018 54.2726 11.0785 52.2916C12.139 50.3106 13.6885 48.6336 15.5797 47.4202L74.0365 11.8831L74.0406 11.8807C76.1244 10.6277 77.9846 9.7539 79.6783 9.7539ZM87.3908 8.4609L145.855 44.0021C148.333 45.5722 150.368 47.751 151.765 50.3307C153.162 52.9104 153.876 55.8051 153.837 58.7386V129.217C153.876 132.151 153.162 135.045 151.765 137.625C150.368 140.205 148.333 142.384 145.855 143.954L87.3898 179.495C85.0956 181.02 82.4302 181.893 79.6783 182.021C76.9264 181.893 74.261 181.02 71.9667 179.495H71.9658L13.502 143.953L13.4995 143.952C11.1642 142.659 9.18097 140.814 7.72281 138.578C6.12823 135.725 5.36521 132.482 5.52031 129.217V58.7386C5.48125 55.805 6.19436 52.9103 7.59165 50.3305C8.98894 47.7508 11.0238 45.572 13.5022 44.002L71.9667 8.46025L71.9749 8.45537C74.0655 7.19796 76.7734 5.75391 79.6783 5.75391C82.5645 5.75391 85.2816 7.17699 87.3908 8.46085V8.4609Z" fill="#0078D4"/>
<path opacity="0.2" d="M139.887 131.926L80.3369 166.533L20.3979 131.927L79.9479 97.3203L139.887 131.926Z" fill="#003067"/>
<path d="M140.532 120.547L79.81 155.835L18.698 120.552L79.42 85.2637L140.532 120.547Z" fill="#1B93EB"/>
<path d="M140.532 120.547L140.52 124.653L79.798 159.941L79.81 155.835L140.532 120.547Z" fill="#1F56A3"/>
<path d="M79.81 155.834L79.798 159.94L18.686 124.657L18.698 120.551L79.81 155.834Z" fill="#0078D4"/>
<path d="M81.495 92L84.7751 108.099L82.3906 96.4349L83.7956 108.099L54.0439 108.095C54.0675 107.763 54.1805 107.444 54.3709 107.172C54.5614 106.9 54.8222 106.685 55.1255 106.549L79.082 92.6268C79.8247 92.2281 80.6521 92.0131 81.495 92V92Z" fill="#F2F2F2"/>
<path d="M95.2242 114.206L87.5504 113.63C87.067 113.593 86.6088 113.4 86.2453 113.08C85.8818 112.759 85.633 112.328 85.5366 111.853L84.7751 108.098L82.3906 96.4336L83.7956 108.098L84.3196 112.448C84.3809 112.74 84.509 113.014 84.6939 113.248C84.8788 113.482 85.1155 113.67 85.3853 113.797C86.1002 114.182 86.8957 114.393 87.7073 114.413L95.227 114.72L110.356 115.338L95.2242 114.206L95.2242 114.206Z" fill="#E8E8E8"/>
<path d="M121.928 114.281C122.859 114.819 123.205 115.573 122.948 116.28L110.356 115.338L95.2242 114.206L87.76 113.645C87.2643 113.619 86.7806 113.483 86.3442 113.246C86.0328 113.089 85.7914 112.822 85.6672 112.496L84.7752 108.098L81.4951 91.9991C82.509 91.9357 83.5207 92.1526 84.4196 92.6258L121.928 114.281Z" fill="white"/>
<path d="M122.948 116.28C122.756 116.753 122.4 117.141 121.946 117.373L97.989 131.295C97.17 131.732 96.2518 131.95 95.3238 131.927L95.2271 114.721L110.356 115.338L122.948 116.28Z" fill="#F2F2F2"/>
<path d="M121.945 117.373L97.989 131.295C97.17 131.732 96.2518 131.949 95.3238 131.926L95.3179 134.011C96.2459 134.034 97.1642 133.816 97.9832 133.379L121.94 119.457L121.955 119.448C122.264 119.254 122.517 118.984 122.691 118.663C122.864 118.343 122.952 117.983 122.945 117.618L122.948 116.279C122.756 116.752 122.4 117.14 121.945 117.373V117.373Z" fill="#E8E8E8"/>
<path d="M92.6516 131.295L55.143 109.64C54.8382 109.504 54.5753 109.289 54.382 109.017C54.1887 108.745 54.072 108.426 54.0441 108.094L54.0382 110.178C54.0661 110.511 54.1828 110.83 54.3761 111.101C54.5694 111.373 54.8322 111.588 55.1371 111.724L92.6457 133.38C93.4674 133.816 94.3877 134.034 95.3179 134.011L95.3239 131.927C94.3936 131.949 93.4733 131.732 92.6516 131.295Z" fill="#B3B3B3"/>
<path d="M83.7956 108.098L84.3196 112.448C84.3808 112.74 84.5089 113.014 84.6938 113.248C84.8787 113.482 85.1153 113.67 85.3851 113.798C86.1001 114.182 86.8956 114.393 87.7072 114.414L95.227 114.721L95.3237 131.927C94.3935 131.949 93.4732 131.732 92.6515 131.295L55.1429 109.64C54.8381 109.504 54.5752 109.289 54.3819 109.017C54.1886 108.745 54.0718 108.426 54.0439 108.094L83.7956 108.098Z" fill="#E8E8E8"/>
<path opacity="0.2" d="M120.01 111.42C123.169 113.244 123.186 116.199 120.047 118.023C118.282 118.92 116.331 119.388 114.351 119.387C112.371 119.386 110.42 118.917 108.656 118.018C105.506 116.199 105.489 113.244 108.619 111.425C110.383 110.527 112.334 110.058 114.314 110.057C116.293 110.056 118.245 110.523 120.01 111.42V111.42Z" fill="#767676"/>
<path d="M118.241 106.849C118.323 106.885 118.393 106.943 118.445 107.017C118.496 107.09 118.527 107.176 118.533 107.265C118.535 107.585 118.09 107.844 117.537 107.844H111.829C111.582 107.849 111.337 107.79 111.12 107.674C111.038 107.636 110.967 107.579 110.914 107.506C110.862 107.434 110.828 107.349 110.817 107.26L110.799 105.601C110.824 105.286 111.269 105.028 111.822 105.028C112.07 105.023 112.315 105.082 112.534 105.199C112.615 105.236 112.686 105.293 112.738 105.365C112.791 105.438 112.823 105.523 112.833 105.611L112.816 105.704L112.83 106.681L117.522 106.681C117.772 106.673 118.02 106.731 118.241 106.849V106.849Z" fill="white"/>
<path d="M122.39 106.683L122.384 108.968C122.318 109.673 122.066 110.348 121.655 110.924C121.243 111.5 120.686 111.956 120.041 112.247C118.276 113.144 116.324 113.611 114.344 113.61C112.365 113.609 110.413 113.14 108.649 112.241C107.064 111.326 106.272 110.123 106.276 108.922L106.282 106.637C106.279 107.838 107.071 109.041 108.656 109.956C110.42 110.855 112.371 111.324 114.351 111.325C116.331 111.326 118.282 110.859 120.047 109.961C120.693 109.671 121.25 109.214 121.661 108.638C122.073 108.062 122.324 107.388 122.39 106.683V106.683Z" fill="#37C2B1"/>
<path d="M120.01 103.358C123.169 105.181 123.186 108.137 120.047 109.961C118.282 110.858 116.331 111.325 114.351 111.324C112.371 111.323 110.42 110.854 108.656 109.956C105.506 108.137 105.489 105.182 108.619 103.363C110.383 102.464 112.334 101.995 114.314 101.994C116.293 101.993 118.245 102.46 120.01 103.358V103.358ZM117.529 107.848C118.09 107.842 118.535 107.584 118.533 107.264C118.527 107.174 118.496 107.089 118.445 107.015C118.393 106.942 118.323 106.884 118.241 106.848C118.02 106.73 117.772 106.672 117.522 106.68H112.83L112.816 105.703L112.833 105.61C112.823 105.521 112.791 105.437 112.738 105.364C112.686 105.292 112.615 105.235 112.534 105.198C112.315 105.081 112.07 105.022 111.822 105.026C111.269 105.026 110.824 105.285 110.817 105.6L110.817 107.259C110.828 107.348 110.862 107.432 110.915 107.505C110.967 107.577 111.038 107.635 111.12 107.673C111.337 107.789 111.582 107.847 111.829 107.842L117.529 107.848" fill="#42E8CA"/>
<path opacity="0.2" d="M91.0734 105.677L67.6072 92.1289L47.9413 103.557L71.4076 117.106C71.98 117.398 72.6137 117.551 73.2565 117.551C73.8993 117.551 74.5329 117.398 75.1053 117.106L91.0854 107.819C91.3083 107.741 91.5013 107.596 91.6374 107.403C91.7735 107.21 91.846 106.98 91.8446 106.744C91.8433 106.508 91.7682 106.278 91.6299 106.087C91.4917 105.896 91.2971 105.752 91.0734 105.677V105.677Z" fill="#767676"/>
<path d="M91.0734 97.3175C91.2971 97.3927 91.4917 97.536 91.6299 97.7272C91.7682 97.9185 91.8432 98.1481 91.8446 98.3841C91.8459 98.6201 91.7734 98.8506 91.6373 99.0434C91.5012 99.2362 91.3082 99.3816 91.0854 99.4594L75.1053 108.746C74.5329 109.038 73.8992 109.191 73.2564 109.191C72.6136 109.191 71.98 109.038 71.4075 108.746L35.9126 88.253C34.885 87.6597 34.8712 86.6997 35.8923 86.1063L51.8724 76.8197C52.447 76.5291 53.0821 76.3781 53.726 76.3789C54.37 76.3797 55.0047 76.5324 55.5785 76.8245L91.0734 97.3175ZM75.0257 100.516C75.3123 100.661 75.629 100.737 75.9502 100.737C76.2715 100.737 76.5882 100.661 76.8747 100.516C76.9865 100.477 77.0834 100.405 77.1518 100.308C77.2201 100.212 77.2565 100.097 77.2559 99.9783C77.2552 99.8601 77.2175 99.745 77.148 99.6494C77.0786 99.5537 76.9809 99.4822 76.8687 99.445L51.1332 84.5867C50.847 84.4404 50.5302 84.3641 50.2087 84.3641C49.8873 84.3641 49.5705 84.4404 49.2842 84.5867C49.1732 84.6259 49.0771 84.6987 49.0093 84.7951C48.9416 84.8915 48.9055 85.0065 48.9062 85.1243C48.9069 85.2421 48.9442 85.3568 49.0131 85.4524C49.0819 85.5479 49.1788 85.6197 49.2903 85.6577L75.0257 100.516L75.0257 100.516ZM55.9895 81.7645C55.703 81.6194 55.3863 81.5438 55.0651 81.5438C54.7438 81.5438 54.4272 81.6194 54.1406 81.7645C54.0288 81.803 53.9319 81.8756 53.8635 81.972C53.7952 82.0685 53.7588 82.1839 53.7594 82.3022C53.7601 82.4204 53.7978 82.5354 53.8673 82.6311C53.9367 82.7268 54.0344 82.7982 54.1466 82.8355L77.6009 96.3768C77.8868 96.5242 78.2038 96.6011 78.5254 96.6011C78.8471 96.6011 79.164 96.5242 79.4499 96.3768C79.5617 96.3383 79.6586 96.2657 79.727 96.1692C79.7953 96.0728 79.8317 95.9573 79.8311 95.8391C79.8304 95.7209 79.7927 95.6058 79.7232 95.5102C79.6538 95.4145 79.5561 95.343 79.4438 95.3058L55.9895 81.7645ZM65.9999 100.921C66.2861 101.067 66.603 101.144 66.9244 101.144C67.2458 101.144 67.5627 101.067 67.8489 100.921C67.96 100.882 68.056 100.809 68.1238 100.713C68.1915 100.616 68.2276 100.501 68.2269 100.384C68.2263 100.266 68.1889 100.151 68.1201 100.056C68.0512 99.96 67.9543 99.8882 67.8428 99.8502L46.2852 87.404C45.9987 87.2589 45.682 87.1833 45.3607 87.1833C45.0395 87.1833 44.7228 87.2589 44.4362 87.404C44.3245 87.4425 44.2276 87.5151 44.1592 87.6116C44.0908 87.708 44.0544 87.8235 44.0551 87.9417C44.0558 88.0599 44.0935 88.1749 44.1629 88.2706C44.2324 88.3663 44.3301 88.4378 44.4423 88.475L65.9999 100.921Z" fill="white"/>
<path d="M79.4438 95.307C79.556 95.3442 79.6537 95.4157 79.7231 95.5114C79.7926 95.6071 79.8303 95.7221 79.831 95.8403C79.8317 95.9585 79.7952 96.074 79.7269 96.1704C79.6585 96.2669 79.5616 96.3395 79.4498 96.378C79.164 96.5254 78.847 96.6023 78.5253 96.6023C78.2037 96.6023 77.8867 96.5254 77.6008 96.378L54.1466 82.8366C54.0344 82.7994 53.9367 82.7279 53.8672 82.6322C53.7978 82.5366 53.7601 82.4215 53.7594 82.3033C53.7587 82.1851 53.7952 82.0696 53.8635 81.9732C53.9319 81.8767 54.0288 81.8041 54.1406 81.7656C54.4272 81.6205 54.7439 81.5449 55.0651 81.5449C55.3863 81.5449 55.703 81.6205 55.9895 81.7656L79.4438 95.307Z" fill="#C3F1FF"/>
<path d="M76.8686 99.4461C76.9808 99.4834 77.0785 99.5549 77.148 99.6505C77.2174 99.7462 77.2551 99.8613 77.2558 99.9795C77.2564 100.098 77.22 100.213 77.1517 100.31C77.0833 100.406 76.9864 100.479 76.8746 100.517C76.5881 100.662 76.2714 100.738 75.9501 100.738C75.6289 100.738 75.3122 100.662 75.0257 100.517L49.2903 85.6588C49.1788 85.6208 49.0819 85.549 49.0131 85.4534C48.9443 85.3578 48.9069 85.2432 48.9063 85.1254C48.9056 85.0076 48.9417 84.8925 49.0094 84.7962C49.0772 84.6998 49.1733 84.627 49.2843 84.5878C49.5705 84.4415 49.8874 84.3652 50.2088 84.3652C50.5302 84.3652 50.8471 84.4415 51.1333 84.5878L76.8686 99.4461Z" fill="#C3F1FF"/>
<path d="M67.8427 99.8506C67.9542 99.8886 68.0511 99.9604 68.12 100.056C68.1888 100.152 68.2261 100.266 68.2268 100.384C68.2275 100.502 68.1914 100.617 68.1237 100.713C68.0559 100.81 67.9599 100.882 67.8488 100.922C67.5626 101.068 67.2457 101.144 66.9243 101.144C66.6029 101.144 66.286 101.068 65.9998 100.922L44.4423 88.4753C44.3301 88.4381 44.2324 88.3666 44.1629 88.2709C44.0934 88.1753 44.0557 88.0602 44.0551 87.942C44.0544 87.8238 44.0908 87.7083 44.1592 87.6119C44.2276 87.5154 44.3245 87.4428 44.4362 87.4043C44.7228 87.2592 45.0395 87.1836 45.3607 87.1836C45.682 87.1836 45.9987 87.2592 46.2852 87.4043L67.8427 99.8506Z" fill="#C3F1FF"/>
<path d="M91.0856 99.4598L75.1053 108.746C74.533 109.039 73.8993 109.191 73.2565 109.191C72.6137 109.192 71.9801 109.039 71.4077 108.746L35.9128 88.2535C35.6981 88.1583 35.5128 88.0074 35.3759 87.8166C35.239 87.6257 35.1556 87.4018 35.1342 87.168L35.1281 89.3016C35.1495 89.5354 35.233 89.7593 35.3699 89.9502C35.5068 90.141 35.6921 90.2918 35.9067 90.3871L71.4016 110.88C71.974 111.173 72.6076 111.325 73.2504 111.325C73.8932 111.325 74.5268 111.173 75.0992 110.88L91.0795 101.593C91.2887 101.499 91.4692 101.351 91.6025 101.164C91.7359 100.977 91.8173 100.758 91.8386 100.529L91.8447 98.3958C91.8234 98.6244 91.742 98.8433 91.6086 99.0302C91.4753 99.2171 91.2948 99.3653 91.0856 99.4598V99.4598Z" fill="#E8E8E8"/>
<path d="M107.7 51.3881C107.972 51.558 108.198 51.7938 108.355 52.0738C111.172 56.7793 115.542 60.5654 120.549 63.6931C121.081 64.0546 121.523 64.5337 121.84 65.0934C122.157 65.653 122.341 66.2781 122.378 66.9203L122.353 75.6011C122.322 86.5875 118.126 91.3004 108.029 91.4322C107.872 91.4281 107.72 91.3821 107.587 91.2992C107.42 91.1993 107.271 91.0719 107.146 90.9223C97.0827 79.1513 92.9269 69.6163 92.9581 58.6299L92.9827 49.9491C92.986 48.7766 93.799 48.2985 94.8195 48.8384C99.8323 51.4956 104.209 52.7593 107.039 51.3139C107.146 51.2695 107.263 51.2531 107.379 51.2661C107.494 51.279 107.605 51.321 107.7 51.3881V51.3881Z" fill="#0078D4"/>
<path d="M123.389 62.0423C118.382 58.9146 114.012 55.1285 111.195 50.423C111.038 50.143 110.812 49.9071 110.539 49.7372C110.444 49.6702 110.334 49.6282 110.219 49.6152C110.103 49.6023 109.986 49.6187 109.879 49.663C107.049 51.1085 102.672 49.8448 97.6593 47.1875C97.4705 47.0626 97.2527 46.9885 97.0268 46.9722C96.801 46.9559 96.5748 46.998 96.37 47.0945L93.5303 48.7448C93.7351 48.6483 93.9613 48.6062 94.1871 48.6224C94.4129 48.6387 94.6307 48.7129 94.8196 48.8378C99.8323 51.495 104.209 52.7587 107.039 51.3133C107.146 51.2689 107.263 51.2525 107.379 51.2655C107.494 51.2785 107.605 51.3204 107.7 51.3875C107.972 51.5574 108.198 51.7932 108.355 52.0732C111.172 56.7787 115.542 60.5648 120.549 63.6926C121.081 64.0541 121.523 64.5332 121.84 65.0928C122.157 65.6524 122.341 66.2775 122.378 66.9197L122.353 75.6005C122.333 82.7118 120.568 87.1946 116.587 89.5081L119.427 87.8578C123.407 85.5444 125.173 81.0615 125.193 73.9502L125.217 65.2695C125.181 64.6273 124.997 64.0022 124.679 63.4425C124.362 62.8829 123.921 62.4038 123.389 62.0423V62.0423Z" fill="#1F56A3"/>
<path d="M99.4927 66.0625L98.3723 66.7136C98.6823 66.5699 99.0251 66.5117 99.3652 66.5449C99.7052 66.5781 100.03 66.7016 100.307 66.9026C100.63 67.092 100.929 67.3199 101.197 67.5813L102.318 66.9303C102.049 66.6689 101.75 66.441 101.427 66.2516C101.151 66.0506 100.826 65.9271 100.486 65.8939C100.145 65.8606 99.8027 65.9188 99.4927 66.0625V66.0625Z" fill="#E8E8E8"/>
<path d="M113.477 69.5732C113.174 69.3946 112.851 69.2527 112.515 69.1502C111.593 66.8248 109.963 64.8486 107.855 63.5014C107.294 63.0931 106.634 62.8421 105.943 62.7744C105.252 62.7068 104.556 62.8249 103.927 63.1166L102.806 63.7676C103.436 63.4759 104.132 63.3578 104.823 63.4255C105.513 63.4932 106.173 63.7442 106.734 64.1525C108.842 65.4996 110.473 67.4759 111.395 69.8012C111.731 69.9037 112.054 70.0457 112.357 70.2242C113.604 71.0358 114.643 72.131 115.386 73.4203C116.13 74.7097 116.558 76.1566 116.636 77.6431C116.637 77.9405 116.611 78.2374 116.558 78.5301C116.552 78.5719 116.538 78.6121 116.532 78.6604C116.456 79.0087 116.328 79.3438 116.153 79.6544C116.133 79.6882 116.108 79.7154 116.088 79.7492C115.907 80.0177 115.667 80.2424 115.388 80.4068L116.508 79.7557C116.788 79.5913 117.027 79.3667 117.209 79.0982C117.228 79.0644 117.254 79.0371 117.274 79.0034C117.449 78.6927 117.576 78.3577 117.653 78.0094C117.658 77.9611 117.672 77.9208 117.678 77.879C117.731 77.5863 117.757 77.2894 117.757 76.992C117.679 75.5056 117.25 74.0586 116.507 72.7693C115.763 71.4799 114.725 70.3848 113.477 69.5732V69.5732Z" fill="#E8E8E8"/>
<path d="M106.734 64.1539C108.842 65.5011 110.473 67.4773 111.395 69.8027C111.731 69.9052 112.054 70.0472 112.357 70.2257C113.604 71.0373 114.642 72.1325 115.386 73.4218C116.13 74.7111 116.558 76.1581 116.636 77.6445C116.637 77.9419 116.611 78.2388 116.558 78.5315C116.552 78.5733 116.538 78.6136 116.532 78.6619C116.456 79.0102 116.328 79.3452 116.153 79.6559C116.133 79.6896 116.108 79.7169 116.088 79.7507C115.344 80.8306 113.934 81.0424 112.323 80.1121L100.02 72.9798C99.3056 72.4519 98.7165 71.773 98.2947 70.9914C97.8728 70.2098 97.6285 69.3448 97.5792 68.458C97.5841 66.7319 98.8072 66.0381 100.307 66.9038C100.63 67.0932 100.929 67.3212 101.197 67.5826C101.192 67.4924 101.192 67.4087 101.192 67.3217C101.202 63.8083 103.682 62.3919 106.734 64.1539Z" fill="white"/>
<path opacity="0.2" d="M59.2932 114.123C53.9167 114.292 48.6539 115.714 43.9236 118.275C37.8711 121.792 35.6344 126.688 37.201 131.233L56.8212 142.561C64.6815 143.458 73.1261 142.148 79.1793 138.63C83.4652 136.139 85.8236 132.965 86.2947 129.712L59.2932 114.123Z" fill="#0078D4"/>
<path opacity="0.5" d="M67.2941 118.743C61.0778 117.506 53.9195 118.311 48.9718 121.186C42.0802 125.191 42.1168 131.699 49.0535 135.704C56.01 139.72 67.2454 139.72 74.137 135.715C79.0847 132.84 80.4515 128.691 78.2878 125.09L67.2941 118.743Z" fill="#0078D4"/>
<path opacity="0.3" d="M70.0282 125.196C65.3212 122.479 57.7165 122.479 53.04 125.196C48.3636 127.914 48.3883 132.319 53.0953 135.037C55.7092 136.43 58.6359 137.132 61.5973 137.075C64.554 137.133 67.4761 136.432 70.0836 135.037C74.7601 132.319 74.7353 127.914 70.0282 125.196ZM65.0814 132.149C63.9951 132.703 62.7929 132.992 61.5732 132.992C60.3535 132.992 59.1513 132.703 58.065 132.149C56.119 131.025 56.1052 129.206 58.0386 128.082C59.1263 127.528 60.3297 127.24 61.5504 127.24C62.771 127.24 63.9744 127.528 65.0621 128.082C67.0083 129.206 67.0149 131.025 65.0814 132.149Z" fill="#003067"/>
<path d="M70.028 121.855L70.022 124.097L65.056 126.983L65.062 124.741L70.028 121.855Z" fill="#50E6FF"/>
<path d="M56.5906 129.001L56.5969 126.758C56.6374 126.324 56.7922 125.909 57.0454 125.555C57.2987 125.201 57.6414 124.92 58.0386 124.741C59.1263 124.187 60.3297 123.898 61.5504 123.898C62.771 123.898 63.9744 124.187 65.0622 124.741L65.0558 126.984C63.968 126.43 62.7647 126.141 61.544 126.141C60.3233 126.141 59.12 126.43 58.0322 126.984C57.635 127.162 57.2923 127.443 57.0391 127.797C56.7858 128.152 56.6311 128.567 56.5906 129.001Z" fill="#32BEDD"/>
<path d="M66.5266 126.786L66.5203 129.028C66.4805 128.587 66.3238 128.166 66.0664 127.806C65.8089 127.446 65.46 127.162 65.0558 126.983L65.0621 124.74C65.4663 124.92 65.8152 125.204 66.0727 125.564C66.3302 125.923 66.4869 126.345 66.5266 126.786V126.786Z" fill="#1F56A3"/>
<path d="M73.5748 126.809L73.5684 129.051C73.5634 130.82 72.4005 132.587 70.0773 133.937C67.4698 135.332 64.5477 136.034 61.5911 135.975L61.5974 133.733C64.554 133.791 67.4761 133.089 70.0836 131.694C72.4068 130.344 73.5698 128.578 73.5748 126.809Z" fill="#1F56A3"/>
<path d="M70.0282 121.855C74.7352 124.573 74.76 128.978 70.0835 131.696C67.476 133.091 64.554 133.793 61.5973 133.734L61.5779 129.651C62.7987 129.674 64.0049 129.384 65.0814 128.808C67.0148 127.684 67.0081 125.865 65.0621 124.741L70.0282 121.855Z" fill="#0078D4"/>
<path d="M61.597 133.732L61.591 135.975L61.572 131.892L61.578 129.65L61.597 133.732Z" fill="#0078D4"/>
<path d="M49.5424 128.983L49.5487 126.74C49.5437 128.532 50.7266 130.327 53.0953 131.695C55.7092 133.088 58.6359 133.79 61.5974 133.733L61.591 135.975C58.6296 136.032 55.7028 135.33 53.0889 133.937C50.7203 132.57 49.5373 130.775 49.5424 128.983Z" fill="#32BEDD"/>
<path d="M70.0282 121.855L65.0621 124.741C63.9744 124.187 62.771 123.898 61.5503 123.898C60.3297 123.898 59.1263 124.187 58.0385 124.741C56.1051 125.864 56.1189 127.683 58.0649 128.807C59.1451 129.382 60.3542 129.673 61.5779 129.651L61.5974 133.733C58.6359 133.79 55.7092 133.088 53.0953 131.695C48.3882 128.977 48.3634 124.572 53.0399 121.855C57.7163 119.137 65.3212 119.137 70.0282 121.855Z" fill="#50E6FF"/>
<path d="M85.1383 137.583C85.0011 137.514 84.8494 137.478 84.6956 137.479C84.5418 137.479 84.3904 137.516 84.2538 137.587L82.9154 138.365L83.8029 138.877L85.1412 138.099C85.1948 138.08 85.2411 138.045 85.2738 137.999C85.3065 137.952 85.3238 137.897 85.3235 137.84C85.3232 137.783 85.3052 137.728 85.272 137.682C85.2388 137.636 85.1921 137.601 85.1383 137.583V137.583Z" fill="#0078D4"/>
<path d="M85.1499 139.655L83.8029 138.877L83.68 138.516L82.9155 138.365L81.5617 137.583C81.4245 137.514 81.2728 137.478 81.119 137.479C80.9653 137.479 80.8138 137.516 80.6772 137.587C80.6244 137.605 80.5786 137.64 80.5464 137.686C80.5142 137.731 80.497 137.786 80.4973 137.842C80.4976 137.898 80.5154 137.953 80.5482 137.998C80.581 138.043 80.6271 138.078 80.6801 138.095L82.0337 138.877L80.6889 139.658C80.6361 139.677 80.5904 139.712 80.5581 139.757C80.5259 139.803 80.5087 139.858 80.509 139.914C80.5093 139.97 80.5271 140.024 80.5599 140.07C80.5927 140.115 80.6388 140.149 80.6919 140.167C80.8288 140.237 80.9801 140.273 81.1337 140.274C81.2873 140.275 81.4389 140.239 81.5764 140.171L82.9211 139.389L84.2683 140.167C84.4052 140.237 84.5565 140.273 84.7101 140.274C84.8637 140.275 85.0153 140.239 85.1528 140.171C85.2064 140.152 85.2527 140.117 85.2854 140.07C85.3181 140.024 85.3355 139.969 85.3352 139.912C85.3349 139.855 85.3168 139.8 85.2836 139.754C85.2505 139.708 85.2037 139.673 85.1499 139.655V139.655Z" fill="#0078D4"/>
<path d="M88.6632 138.892L88.6585 140.523C88.6116 141.025 88.4321 141.507 88.1385 141.918C87.8448 142.329 87.4475 142.654 86.9869 142.862C85.728 143.502 84.3355 143.835 82.9231 143.834C81.5108 143.834 80.1186 143.499 78.8602 142.858C78.3925 142.65 77.989 142.321 77.6913 141.904C77.3935 141.488 77.2125 141 77.1669 140.49L77.1715 138.859C77.2171 139.369 77.3982 139.858 77.6959 140.274C77.9936 140.69 78.3972 141.02 78.8648 141.228C80.1232 141.869 81.5154 142.203 82.9278 142.204C84.3401 142.205 85.7326 141.871 86.9916 141.231C87.4521 141.024 87.8495 140.698 88.1431 140.287C88.4368 139.877 88.6162 139.395 88.6632 138.892Z" fill="#E8E8E8"/>
<path d="M86.9651 136.522C89.2189 137.823 89.2307 139.931 86.9916 141.233C85.7326 141.873 84.3401 142.206 82.9278 142.205C81.5154 142.205 80.1233 141.87 78.8649 141.229C76.6175 139.931 76.6056 137.823 78.8384 136.525C80.0968 135.884 81.4889 135.549 82.9013 135.549C84.3136 135.548 85.7061 135.881 86.9651 136.522ZM84.2682 140.167C84.4051 140.237 84.5564 140.273 84.71 140.274C84.8636 140.275 85.0153 140.239 85.1528 140.171C85.2063 140.152 85.2526 140.117 85.2853 140.07C85.318 140.024 85.3354 139.969 85.3351 139.912C85.3348 139.855 85.3167 139.8 85.2835 139.754C85.2503 139.708 85.2036 139.673 85.1499 139.655L83.8027 138.877L85.1412 138.099C85.1947 138.08 85.2411 138.045 85.2737 137.999C85.3064 137.952 85.3238 137.897 85.3235 137.84C85.3232 137.783 85.3051 137.728 85.2719 137.682C85.2388 137.636 85.192 137.601 85.1383 137.583C85.001 137.514 84.8493 137.478 84.6955 137.479C84.5418 137.479 84.3903 137.516 84.2537 137.587L82.9153 138.365L81.5617 137.583C81.4245 137.514 81.2727 137.478 81.119 137.479C80.9652 137.479 80.8138 137.516 80.6771 137.587C80.6243 137.605 80.5785 137.64 80.5463 137.686C80.514 137.731 80.4968 137.786 80.4971 137.842C80.4974 137.898 80.5152 137.953 80.548 137.998C80.5808 138.044 80.627 138.078 80.68 138.096L82.0336 138.877L80.6888 139.659C80.636 139.677 80.5902 139.712 80.558 139.757C80.5257 139.803 80.5085 139.858 80.5088 139.914C80.5091 139.97 80.5269 140.024 80.5597 140.07C80.5925 140.115 80.6386 140.149 80.6917 140.167C80.8286 140.237 80.98 140.273 81.1336 140.274C81.2872 140.275 81.4388 140.239 81.5763 140.171L82.9211 139.389L84.2682 140.167" fill="white"/>
<path d="M46.6329 116.749L46.6283 118.38C46.5809 118.883 46.4009 119.365 46.1067 119.776C45.8125 120.187 45.4146 120.513 44.9535 120.72C43.6959 121.361 42.3046 121.695 40.8933 121.695C39.482 121.695 38.0907 121.361 36.8332 120.72C36.3642 120.512 35.9594 120.182 35.6607 119.765C35.362 119.348 35.1802 118.858 35.1342 118.347L35.1388 116.717C35.1849 117.228 35.3666 117.717 35.6654 118.135C35.9641 118.552 36.3688 118.882 36.8378 119.09C38.0953 119.731 39.4866 120.065 40.8979 120.065C42.3092 120.065 43.7005 119.731 44.9581 119.09C45.4192 118.883 45.8172 118.557 46.1114 118.146C46.4056 117.734 46.5855 117.253 46.6329 116.749V116.749Z" fill="#E8E8E8"/>
<path d="M44.938 114.382C47.1918 115.683 47.1972 117.788 44.9581 119.089C43.7005 119.73 42.3092 120.064 40.8979 120.064C39.4866 120.064 38.0953 119.73 36.8378 119.09C34.584 117.788 34.572 115.68 36.8048 114.382C38.0644 113.741 39.4579 113.406 40.8714 113.406C42.2849 113.406 43.6784 113.741 44.938 114.382ZM41.5229 118.201L41.5144 117.099H43.4196C43.7632 117.099 44.0423 116.937 44.0412 116.738C44.0354 116.683 44.0153 116.63 43.9828 116.585C43.9503 116.54 43.9065 116.505 43.856 116.482C43.7185 116.409 43.5648 116.371 43.4091 116.373H41.5087L41.5 115.27C41.4944 115.216 41.4744 115.163 41.442 115.118C41.4097 115.073 41.3661 115.038 41.3157 115.015C41.1801 114.943 41.0281 114.906 40.8744 114.909C40.5307 114.909 40.2516 115.071 40.2528 115.27L40.2566 116.373H38.3561C38.0125 116.373 37.7334 116.535 37.7282 116.738C37.7353 116.792 37.7561 116.844 37.7886 116.889C37.8211 116.933 37.8643 116.969 37.9142 116.992C38.0493 117.064 38.2006 117.101 38.3538 117.099L40.2591 117.099L40.2629 118.201C40.2713 118.257 40.2933 118.309 40.3268 118.354C40.3604 118.399 40.4045 118.435 40.4553 118.459C40.5912 118.53 40.742 118.566 40.895 118.566C41.245 118.562 41.5241 118.4 41.5229 118.201" fill="white"/>
<path d="M43.8558 116.482C43.7184 116.409 43.5648 116.371 43.4091 116.373L41.5087 116.373L41.5143 117.099H43.4196C43.7631 117.099 44.0422 116.937 44.0411 116.738C44.0354 116.683 44.0152 116.63 43.9827 116.585C43.9502 116.54 43.9064 116.505 43.8558 116.482V116.482Z" fill="#FF9300"/>
<path d="M41.3157 115.014C41.1801 114.942 41.0281 114.905 40.8744 114.908C40.5306 114.908 40.2516 115.071 40.2527 115.27L40.2565 116.372H38.3561C38.0123 116.372 37.7333 116.534 37.7281 116.737C37.7353 116.791 37.7561 116.843 37.7886 116.888C37.8211 116.932 37.8643 116.968 37.9142 116.991C38.0493 117.063 38.2006 117.1 38.3539 117.098L40.259 117.098L40.2628 118.2C40.2712 118.256 40.2932 118.308 40.3267 118.353C40.3603 118.398 40.4044 118.434 40.4552 118.458C40.591 118.529 40.7418 118.565 40.8949 118.565C41.245 118.561 41.524 118.399 41.5228 118.2L41.5143 117.098L41.5086 116.372L41.5 115.27C41.4943 115.215 41.4743 115.162 41.4419 115.117C41.4096 115.073 41.3661 115.037 41.3157 115.014V115.014Z" fill="#FF9300"/>
</g>
<defs>
<linearGradient id="paint0_linear" x1="79.6785" y1="8.2793" x2="79.6785" y2="179.694" gradientUnits="userSpaceOnUse">
<stop stop-color="#00ABDE"/>
<stop offset="1" stop-color="#007ED8"/>
</linearGradient>
<clipPath id="clip0">
<rect width="159.356" height="188" fill="white"/>
</clipPath>
</defs>
</svg>
