<svg width="100" height="100" viewBox="0 0 100 100" fill="none" xmlns="http://www.w3.org/2000/svg">
<g clip-path="url(#clip0_378_1192)">
<path d="M49.6401 96.4499C40.382 96.4499 31.3317 93.7045 23.6339 88.561C15.936 83.4174 9.93624 76.1067 6.3933 67.5533C2.85036 58.9999 1.92337 49.588 3.72954 40.5077C5.53571 31.4275 9.99394 23.0867 16.5404 16.5402C23.0869 9.99372 31.4277 5.5355 40.5079 3.72933C49.5882 1.92315 59.0001 2.85015 67.5535 6.39308C76.1069 9.93602 83.4176 15.9358 88.5612 23.6336C93.7047 31.3315 96.4501 40.3817 96.4501 49.6399C96.4505 55.7872 95.24 61.8744 92.8878 67.5538C90.5355 73.2332 87.0875 78.3937 82.7407 82.7405C78.3939 87.0873 73.2335 90.5353 67.554 92.8876C61.8746 95.2398 55.7874 96.4503 49.6401 96.4499V96.4499Z" fill="url(#paint0_linear_378_1192)"/>
<path fill-rule="evenodd" clip-rule="evenodd" d="M95.54 49.6399C95.54 58.718 92.848 67.5923 87.8045 75.1406C82.7609 82.6888 75.5923 88.5719 67.2052 92.046C58.818 95.52 49.5891 96.429 40.6854 94.6579C31.7816 92.8869 23.603 88.5153 17.1838 82.0961C10.7646 75.6769 6.39302 67.4983 4.62196 58.5945C2.85089 49.6908 3.75987 40.4618 7.23393 32.0747C10.708 23.6876 16.5911 16.519 24.1393 11.4754C31.6875 6.43187 40.5618 3.73988 49.64 3.73988C55.6677 3.73986 61.6363 4.92708 67.2052 7.23377C72.774 9.54045 77.834 12.9214 82.0963 17.1836C86.3585 21.4458 89.7394 26.5058 92.0461 32.0747C94.3528 37.6435 95.54 43.6122 95.54 49.6399V49.6399ZM49.64 -0.000106449C59.4579 -0.000106449 69.0552 2.91123 77.2185 8.36574C85.3818 13.8203 91.7442 21.573 95.5014 30.6435C99.2585 39.714 100.242 49.695 98.3262 59.3242C96.4108 68.9534 91.6831 77.7984 84.7408 84.7407C77.7985 91.683 68.9535 96.4107 59.3243 98.3261C49.6951 100.241 39.7141 99.2584 30.6436 95.5013C21.5731 91.7441 13.8204 85.3816 8.36584 77.2184C2.91133 69.0551 -1.61629e-06 59.4577 3.61524e-07 49.6399C-0.000786426 43.1208 1.28265 36.6655 3.77702 30.6425C6.27138 24.6196 9.92781 19.147 14.5375 14.5374C19.1471 9.9277 24.6197 6.27127 30.6427 3.77691C36.6656 1.28254 43.121 -0.000894549 49.64 -0.000106449V-0.000106449Z" fill="#F2F1F0"/>
<path fill-rule="evenodd" clip-rule="evenodd" d="M92.7296 49.64C92.7296 58.1624 90.2024 66.4934 85.4676 73.5795C80.7328 80.6656 74.0031 86.1886 66.1294 89.45C58.2557 92.7113 49.5918 93.5647 41.2331 91.902C32.8745 90.2394 25.1966 86.1355 19.1703 80.1092C13.1441 74.083 9.04017 66.4051 7.37753 58.0464C5.7149 49.6878 6.56822 41.0238 9.8296 33.1502C13.091 25.2765 18.6139 18.5468 25.7 13.812C32.7862 9.07718 41.1172 6.55 49.6396 6.55C55.2983 6.54965 60.9017 7.66397 66.1298 9.82933C71.3579 11.9947 76.1082 15.1687 80.1096 19.17C84.1109 23.1713 87.2849 27.9217 89.4502 33.1498C91.6156 38.3778 92.7299 43.9812 92.7296 49.64ZM49.6396 2.81C58.9017 2.81 67.9558 5.55653 75.6569 10.7023C83.3581 15.848 89.3604 23.1619 92.9049 31.7189C96.4493 40.276 97.3767 49.6919 95.5697 58.7761C93.7628 67.8602 89.3027 76.2045 82.7534 82.7538C76.2041 89.3031 67.8598 93.7632 58.7757 95.5702C49.6915 97.3771 40.2756 96.4497 31.7185 92.9053C23.1614 89.3608 15.8476 83.3585 10.7018 75.6574C5.5561 67.9562 2.80957 58.9021 2.80957 49.64C2.81076 37.2203 7.74501 25.3096 16.5271 16.5275C25.3091 7.74544 37.2198 2.81119 49.6396 2.81V2.81Z" fill="#0078D4"/>
<path fill-rule="evenodd" clip-rule="evenodd" d="M92.7296 49.6399C92.7296 58.1623 90.2024 66.4933 85.4676 73.5794C80.7328 80.6655 74.0031 86.1885 66.1294 89.4499C58.2557 92.7112 49.5918 93.5646 41.2331 91.9019C32.8745 90.2393 25.1966 86.1354 19.1703 80.1091C13.1441 74.0829 9.04017 66.405 7.37753 58.0463C5.7149 49.6877 6.56822 41.0237 9.8296 33.1501C13.091 25.2764 18.6139 18.5467 25.7001 13.8119C32.7862 9.07708 41.1172 6.5499 49.6396 6.5499C55.2983 6.54956 60.9017 7.66388 66.1298 9.82923C71.3579 11.9946 76.1082 15.1686 80.1096 19.1699C84.1109 23.1712 87.2849 27.9216 89.4502 33.1497C91.6156 38.3777 92.7299 43.9811 92.7296 49.6399V49.6399ZM49.6396 2.8099C58.9017 2.8099 67.9558 5.55643 75.6569 10.7022C83.3581 15.8479 89.3604 23.1618 92.9048 31.7188C96.4493 40.2759 97.3767 49.6918 95.5697 58.776C93.7628 67.8601 89.3027 76.2044 82.7534 82.7537C76.2041 89.303 67.8598 93.7631 58.7757 95.5701C49.6915 97.377 40.2756 96.4496 31.7185 92.9052C23.1614 89.3607 15.8476 83.3584 10.7018 75.6573C5.5561 67.9561 2.80957 58.902 2.80957 49.6399C2.81075 37.2202 7.74499 25.3095 16.5271 16.5274C25.3091 7.7453 37.2198 2.81105 49.6396 2.80986V2.8099Z" fill="#0078D4"/>
<path opacity="0.2" d="M23.2283 73.2421H76.0509C76.3284 73.2413 76.5943 73.1307 76.7906 72.9344C76.9868 72.7382 77.0974 72.4723 77.0982 72.1947V30.9544H22.1809V72.1947C22.1817 72.4723 22.2923 72.7382 22.4886 72.9344C22.6848 73.1307 22.9507 73.2413 23.2283 73.2421V73.2421Z" fill="#003067"/>
<path d="M23.2283 71.0858H76.0509C76.3284 71.085 76.5943 70.9744 76.7906 70.7782C76.9868 70.5819 77.0974 70.316 77.0982 70.0384V28.7981H22.1809V70.0384C22.1817 70.316 22.2923 70.5819 22.4886 70.7782C22.6848 70.9744 22.9507 71.085 23.2283 71.0858Z" fill="#F2F2F2"/>
<path d="M22.1807 33.3628H77.098V28.4402C77.0983 28.3346 77.0777 28.2301 77.0375 28.1326C76.9972 28.035 76.9381 27.9464 76.8634 27.8717C76.7888 27.7971 76.7002 27.738 76.6026 27.6977C76.5051 27.6575 76.4005 27.6369 76.295 27.6372H22.9837C22.8781 27.6369 22.7736 27.6575 22.676 27.6977C22.5785 27.738 22.4899 27.7971 22.4152 27.8717C22.3406 27.9464 22.2815 28.035 22.2412 28.1326C22.201 28.2301 22.1804 28.3346 22.1807 28.4402L22.1807 33.3628Z" fill="url(#paint1_linear_378_1192)"/>
<path d="M26.4053 32.0098C26.6807 32.0089 26.9496 31.9265 27.178 31.7728C27.4065 31.6191 27.5842 31.4011 27.6888 31.1464C27.7934 30.8917 27.8201 30.6117 27.7655 30.3418C27.7109 30.0719 27.5776 29.8243 27.3823 29.6302C27.187 29.4361 26.9385 29.3043 26.6683 29.2514C26.3981 29.1986 26.1182 29.227 25.8642 29.3332C25.6101 29.4394 25.3933 29.6185 25.241 29.8479C25.0888 30.0773 25.008 30.3467 25.0088 30.622C25.0073 30.8054 25.0425 30.9873 25.1123 31.1569C25.182 31.3265 25.285 31.4805 25.4151 31.6098C25.5452 31.7391 25.6998 31.841 25.8698 31.9097C26.0399 31.9784 26.2219 32.0125 26.4053 32.0098Z" fill="#50E6FF"/>
<path d="M72.23 36.9062H27.0381C26.4427 36.9062 25.96 37.3889 25.96 37.9843V66.0776C25.96 66.673 26.4427 67.1557 27.0381 67.1557H72.23C72.8255 67.1557 73.3082 66.673 73.3082 66.0776V37.9843C73.3082 37.3889 72.8255 36.9062 72.23 36.9062Z" fill="#E8E8E8"/>
<path d="M38.5901 59.7916L48.0671 43.6134C48.2273 43.34 48.4562 43.1132 48.7311 42.9557C49.006 42.7981 49.3173 42.7152 49.6342 42.7152C49.951 42.7152 50.2624 42.7981 50.5373 42.9557C50.8122 43.1132 51.0411 43.34 51.2012 43.6134L60.6782 59.7916C60.8399 60.0675 60.9258 60.3812 60.9273 60.701C60.9288 61.0208 60.8459 61.3353 60.6868 61.6127C60.5278 61.8901 60.2984 62.1206 60.0217 62.281C59.7451 62.4413 59.431 62.5257 59.1112 62.5257H40.1572C39.8374 62.5257 39.5233 62.4413 39.2466 62.281C38.97 62.1206 38.7405 61.8901 38.5815 61.6127C38.4225 61.3353 38.3396 61.0208 38.3411 60.701C38.3426 60.3812 38.4285 60.0675 38.5901 59.7916V59.7916Z" fill="#FF9300"/>
<path d="M40.1576 61.3149C40.051 61.315 39.9463 61.2869 39.854 61.2335C39.7618 61.1801 39.6853 61.1033 39.6322 61.0109C39.5792 60.9184 39.5515 60.8136 39.552 60.7071C39.5525 60.6005 39.5811 60.4959 39.635 60.4039L49.1116 44.2253C49.1651 44.1341 49.2414 44.0585 49.3331 44.006C49.4248 43.9534 49.5287 43.9258 49.6343 43.9259C49.74 43.9259 49.8438 43.9536 49.9355 44.0061C50.0272 44.0587 50.1035 44.1344 50.1568 44.2256L59.6335 60.4036C59.6874 60.4955 59.716 60.6001 59.7165 60.7066C59.7171 60.8132 59.6895 60.918 59.6365 61.0104C59.5835 61.1029 59.5071 61.1797 59.4149 61.2332C59.3227 61.2867 59.2181 61.3148 59.1115 61.3149L40.1576 61.3149Z" fill="#FFCA00"/>
<path d="M49.634 49.5733V55.3725" stroke="#FF9300" stroke-width="1.21074" stroke-miterlimit="10" stroke-linecap="round"/>
<path d="M49.634 59.0414C50.0773 59.0414 50.4367 58.682 50.4367 58.2387C50.4367 57.7954 50.0773 57.436 49.634 57.436C49.1907 57.436 48.8313 57.7954 48.8313 58.2387C48.8313 58.682 49.1907 59.0414 49.634 59.0414Z" fill="#FF9300"/>
<path opacity="0.2" d="M36.1274 37.1854C36.9979 38.6248 38.0185 39.9678 39.1724 41.1918C40.2976 42.3822 41.5238 43.4729 42.8374 44.4515C44.0589 45.3624 45.3307 46.2038 46.6469 46.9715C47.3179 47.3631 48.081 47.5694 48.8579 47.5692H50.4223C51.1978 47.5696 51.9594 47.3641 52.6293 46.9735C53.9471 46.2052 55.2203 45.3629 56.4428 44.4505C57.7567 43.4726 58.983 42.3823 60.1078 41.1917C61.2619 39.9681 62.2826 38.6253 63.1528 37.1859C63.8776 35.9823 64.4616 34.6995 64.8936 33.3626H34.387C34.8187 34.6994 35.4027 35.9821 36.1274 37.1854V37.1854Z" fill="#767676"/>
<path opacity="0.3" d="M65.603 30.2671C65.6655 29.8696 65.7085 29.4727 65.7329 29.0786C65.7554 28.7261 65.7665 28.3734 65.7661 28.0205V27.6371H33.5159L33.5161 28.1636C33.5269 28.4673 33.5415 28.771 33.5591 29.0601C33.5796 29.4165 33.6128 29.7729 33.6577 30.1318C33.7085 30.5386 33.9527 31.8345 34.0552 32.2388C34.1524 32.6182 34.2666 32.9917 34.387 33.3628H64.8936C65.0136 32.9931 65.1274 32.6211 65.2241 32.2436C65.3374 31.8061 65.56 30.5405 65.603 30.2671Z" fill="#003067"/>
<path d="M61.3745 19.3708C60.7684 19.3708 60.1764 19.3486 59.603 19.3048C59.0739 19.264 58.5481 19.1889 58.0288 19.08C57.5481 18.9789 57.0772 18.8357 56.6216 18.652C56.174 18.4695 55.7459 18.2422 55.3441 17.9735C54.628 17.4838 53.8454 17.0991 53.0202 16.8314C52.2517 16.5888 51.4599 16.4277 50.6577 16.3509C50.5783 16.3433 50.5001 16.3392 50.4218 16.3392H48.8582C48.7799 16.3392 48.7017 16.3433 48.6223 16.3509C47.8197 16.4278 47.0275 16.589 46.2587 16.832C45.4463 17.0944 44.675 17.4701 43.9675 17.9478C43.5521 18.2263 43.1105 18.4635 42.6491 18.6561C42.1993 18.8389 41.7337 18.9802 41.2582 19.0783C40.733 19.1875 40.2014 19.2631 39.6665 19.3048C39.0908 19.3486 38.5038 19.3706 37.9055 19.3708C37.2712 19.3708 36.6629 19.6228 36.2144 20.0713C35.7659 20.5198 35.5139 21.1281 35.5139 21.7624L35.5151 28.0953C35.5244 28.3814 35.5384 28.6676 35.5548 28.942C35.5735 29.2555 35.6027 29.5691 35.6424 29.8826C35.6832 30.2096 35.9121 31.4259 35.9927 31.7429C36.389 33.2948 37.011 34.7802 37.8389 36.1513C38.6359 37.4693 39.5707 38.6989 40.6276 39.8193C41.6724 40.9254 42.8114 41.9386 44.0317 42.8474C45.1935 43.7141 46.4033 44.5145 47.6554 45.2449C48.0205 45.4577 48.4356 45.5698 48.8582 45.5695H50.4218C50.8445 45.5698 51.2596 45.4577 51.6247 45.2449C52.8768 44.5145 54.0866 43.7139 55.2483 42.8469C56.4686 41.9385 57.6076 40.9257 58.6524 39.8199C59.7092 38.6992 60.6439 37.4695 61.4411 36.1514C62.269 34.7802 62.891 33.2949 63.2873 31.743C63.3691 31.4259 63.5805 30.2558 63.6272 29.9557C63.6797 29.6211 63.7163 29.2869 63.7369 28.9531C63.7568 28.6425 63.7665 28.3316 63.7661 28.0206V21.7624C63.7661 21.1282 63.5141 20.5199 63.0656 20.0713C62.6171 19.6228 62.0088 19.3708 61.3745 19.3708V19.3708Z" fill="url(#paint2_linear_378_1192)"/>
<path d="M50.469 18.0004C51.142 18.064 51.8064 18.1986 52.451 18.4019C53.0952 18.6115 53.706 18.9126 54.2646 19.2958C54.8385 19.6814 55.4506 20.0069 56.0911 20.2673C56.7119 20.5174 57.3534 20.7125 58.0083 20.8502C58.6664 20.9887 59.3328 21.0839 60.0032 21.1352C60.6768 21.1871 61.3677 21.213 62.0759 21.213V27.8454C62.0759 28.1218 62.0672 28.3981 62.05 28.6745C62.0327 28.9508 62.0025 29.2272 61.9593 29.5035H50.469V18.0004ZM37.2041 21.213C37.9036 21.213 38.5902 21.1871 39.2638 21.1353C39.9385 21.0833 40.6092 20.9881 41.2717 20.8503C41.9272 20.715 42.569 20.5198 43.1889 20.2673C43.8329 20.0004 44.449 19.6707 45.0283 19.2828C45.5838 18.9055 46.1901 18.6089 46.829 18.402C47.4736 18.1987 48.138 18.0641 48.811 18.0004V29.5035H37.3207C37.2861 29.2272 37.2602 28.9508 37.243 28.6745C37.2257 28.3981 37.2127 28.1218 37.2041 27.8454V21.213ZM48.8109 43.9084C47.5664 43.1826 46.3641 42.3868 45.2097 41.5249C44.0342 40.6508 42.9376 39.6756 41.9323 38.6102C40.9352 37.5541 40.0536 36.3947 39.3026 35.1515C38.5525 33.9109 37.9895 32.5665 37.6316 31.1616H48.8109V43.9084ZM50.469 31.1616H61.6484C61.2905 32.5665 60.7274 33.9109 59.9773 35.1515C59.2263 36.3947 58.3447 37.5541 57.3476 38.6102C56.3423 39.6756 55.2457 40.6509 54.0703 41.5249C52.9158 42.3868 51.7135 43.1826 50.469 43.9084L50.469 31.1616Z" fill="url(#paint3_linear_378_1192)"/>
</g>
<defs>
<linearGradient id="paint0_linear_378_1192" x1="47.8698" y1="-15.1532" x2="51.8525" y2="130.615" gradientUnits="userSpaceOnUse">
<stop stop-color="#00ABDE"/>
<stop offset="1" stop-color="#007ED8"/>
</linearGradient>
<linearGradient id="paint1_linear_378_1192" x1="22.1807" y1="30.5" x2="77.098" y2="30.5" gradientUnits="userSpaceOnUse">
<stop stop-color="#005BA1"/>
<stop offset="0.26" stop-color="#00589D"/>
<stop offset="0.53" stop-color="#004F90"/>
<stop offset="0.8" stop-color="#003F7C"/>
<stop offset="1" stop-color="#003067"/>
</linearGradient>
<linearGradient id="paint2_linear_378_1192" x1="49.64" y1="45.5695" x2="49.64" y2="16.2869" gradientUnits="userSpaceOnUse">
<stop stop-color="#003067"/>
<stop offset="0.2" stop-color="#003F7C"/>
<stop offset="0.47" stop-color="#004F90"/>
<stop offset="0.74" stop-color="#00589D"/>
<stop offset="1" stop-color="#005BA1"/>
</linearGradient>
<linearGradient id="paint3_linear_378_1192" x1="49.64" y1="43.9084" x2="49.64" y2="18.0004" gradientUnits="userSpaceOnUse">
<stop stop-color="#004DAE"/>
<stop offset="0.21" stop-color="#0061C4"/>
<stop offset="0.51" stop-color="#0078DD"/>
<stop offset="0.78" stop-color="#0086EC"/>
<stop offset="1" stop-color="#008BF1"/>
</linearGradient>
<clipPath id="clip0_378_1192">
<rect width="99.2799" height="99.28" fill="white"/>
</clipPath>
</defs>
</svg>
