<svg width="100" height="100" viewBox="0 0 100 100" fill="none" xmlns="http://www.w3.org/2000/svg">
<g clip-path="url(#clip0)">
<path d="M49.1926 96.4501C39.9344 96.4501 30.8842 93.7047 23.1863 88.5612C15.4885 83.4176 9.48873 76.1069 5.94579 67.5535C2.40285 59.0001 1.47586 49.5882 3.28203 40.5079C5.0882 31.4277 9.54643 23.0869 16.0929 16.5404C22.6394 9.99393 30.9802 5.53571 40.0604 3.72954C49.1407 1.92337 58.5526 2.85036 67.106 6.3933C75.6594 9.93624 82.9701 15.936 88.1137 23.6339C93.2572 31.3317 96.0026 40.382 96.0026 49.6401C96.003 55.7874 94.7925 61.8746 92.4403 67.554C90.088 73.2335 86.64 78.3939 82.2932 82.7407C77.9464 87.0875 72.7859 90.5355 67.1065 92.8878C61.4271 95.24 55.3399 96.4505 49.1926 96.4501V96.4501Z" fill="url(#paint0_linear)"/>
<path fill-rule="evenodd" clip-rule="evenodd" d="M95.5402 49.7103C95.5402 58.7885 92.8483 67.6628 87.8047 75.211C82.7611 82.7592 75.5925 88.6423 67.2054 92.1164C58.8183 95.5904 49.5893 96.4994 40.6856 94.7284C31.7819 92.9573 23.6033 88.5857 17.184 82.1665C10.7648 75.7473 6.39326 67.5687 4.6222 58.665C2.85114 49.7612 3.76011 40.5323 7.23417 32.1451C10.7082 23.758 16.5914 16.5894 24.1396 11.5459C31.6878 6.5023 40.5621 3.81031 49.6402 3.81031C55.6679 3.81029 61.6366 4.99751 67.2054 7.3042C72.7743 9.61088 77.8343 12.9918 82.0965 17.2541C86.3587 21.5163 89.7397 26.5763 92.0464 32.1451C94.353 37.714 95.5403 43.6826 95.5402 49.7103V49.7103ZM49.6402 0.0703125C59.4581 0.0703125 69.0555 2.98165 77.2188 8.43616C85.382 13.8907 91.7445 21.6434 95.5016 30.7139C99.2588 39.7844 100.242 49.7654 98.3264 59.3946C96.4111 69.0238 91.6833 77.8688 84.741 84.8111C77.7987 91.7534 68.9537 96.4811 59.3245 98.3965C49.6953 100.312 39.7144 99.3288 30.6438 95.5717C21.5733 91.8146 13.8206 85.4521 8.36609 77.2888C2.91158 69.1256 0.000244502 59.5282 0.000244502 49.7103C-0.000542285 43.1913 1.2829 36.7359 3.77726 30.713C6.27163 24.69 9.92805 19.2174 14.5377 14.6078C19.1474 9.99812 24.62 6.3417 30.6429 3.84734C36.6659 1.35297 43.1212 0.0695344 49.6402 0.0703225V0.0703125Z" fill="#F2F1F0"/>
<path d="M42.0496 79.5343C42.0585 80.1922 42.3238 80.8207 42.7891 81.2859C43.2543 81.7512 43.8827 82.0166 44.5407 82.0256H54.7393C55.3972 82.0166 56.0257 81.7513 56.491 81.286C56.9563 80.8207 57.2217 80.1923 57.2307 79.5343V72.0605H42.0496V79.5343Z" fill="#1F56A3"/>
<path d="M70.3097 30.9543C69.1812 28.2875 67.5414 25.8675 65.4829 23.8308C63.4284 21.8038 61.0122 20.1798 58.3595 19.0429C55.6037 17.8634 52.6376 17.2543 49.6401 17.2524C46.6443 17.2337 43.6766 17.8299 40.9205 19.004C38.2537 20.1325 35.8337 21.7723 33.7971 23.8308C31.77 25.8853 30.1461 28.3015 29.0094 30.9543C27.8297 33.71 27.2205 36.6761 27.2187 39.6737C27.184 42.5915 27.7677 45.4836 28.9313 48.1596C30.1432 50.8299 31.8317 53.257 33.9139 55.3219C36.1579 57.5575 38.0363 60.1322 39.4803 62.9515C40.8918 65.803 41.7629 68.8913 42.0495 72.0601H57.2307C57.5172 68.8913 58.3882 65.803 59.7997 62.9515C61.2437 60.1322 63.1221 57.5576 65.3661 55.3219C67.4332 53.2677 69.1085 50.8537 70.3097 48.1985C71.4768 45.5086 72.0733 42.6059 72.0614 39.6737C72.08 36.678 71.4838 33.7104 70.3097 30.9543V30.9543Z" fill="white"/>
<path d="M50.4603 29.0137C51.1259 29.0767 51.783 29.2098 52.4206 29.4109C53.0577 29.6182 53.6618 29.9159 54.2143 30.2949C54.7819 30.6763 55.3873 30.9983 56.0208 31.2558C56.6348 31.5032 57.2693 31.6961 57.917 31.8324C58.5679 31.9693 59.227 32.0634 59.8901 32.1142C60.5563 32.1655 61.2397 32.1911 61.9401 32.1911V38.751C61.9401 39.0243 61.9316 39.2976 61.9145 39.571C61.8974 39.8443 61.8675 40.1176 61.8248 40.391H50.4603V29.0137ZM37.3406 32.1911C38.0324 32.1911 38.7115 32.1655 39.3777 32.1142C40.045 32.0628 40.7084 31.9687 41.3636 31.8324C42.012 31.6985 42.6467 31.5056 43.2598 31.2558C43.8968 30.9918 44.5062 30.6657 45.0792 30.2821C45.6286 29.9089 46.2282 29.6155 46.8601 29.4109C47.4977 29.2098 48.1547 29.0767 48.8203 29.0137V40.3909H37.4559C37.4217 40.1176 37.3961 39.8443 37.379 39.5709C37.3619 39.2976 37.3491 39.0243 37.3406 38.7509V32.1911ZM48.8203 54.6381C47.5895 53.9202 46.4003 53.1331 45.2585 52.2807C44.096 51.4162 43.0113 50.4516 42.017 49.3979C41.0309 48.3534 40.159 47.2066 39.4162 45.9771C38.6743 44.7501 38.1174 43.4204 37.7634 42.0309H48.8204L48.8203 54.6381ZM50.4603 42.0309H61.5173C61.1633 43.4203 60.6064 44.75 59.8646 45.977C59.1218 47.2066 58.2499 48.3534 57.2637 49.3979C56.2694 50.4516 55.1847 51.4162 54.0222 52.2807C52.8804 53.1331 51.6912 53.9202 50.4604 54.6381L50.4603 42.0309Z" fill="#0078D4"/>
<path fill-rule="evenodd" clip-rule="evenodd" d="M73.9672 59.9148C73.9672 62.6541 73.1549 65.3319 71.633 67.6096C70.1111 69.8873 67.948 71.6625 65.4172 72.7108C62.8864 73.7591 60.1015 74.0334 57.4149 73.4989C54.7282 72.9645 52.2603 71.6454 50.3233 69.7084C48.3863 67.7714 47.0672 65.3035 46.5327 62.6168C45.9983 59.9301 46.2726 57.1453 47.3209 54.6145C48.3692 52.0837 50.1444 49.9206 52.4221 48.3987C54.6998 46.8768 57.3776 46.0645 60.1169 46.0645C63.7902 46.0646 67.313 47.5239 69.9104 50.1213C72.5078 52.7187 73.9671 56.2415 73.9672 59.9148V59.9148Z" fill="#C7E7F1"/>
<path fill-rule="evenodd" clip-rule="evenodd" d="M46.2666 59.915C46.2666 57.1756 47.0789 54.4978 48.6008 52.2202C50.1227 49.9425 52.2858 48.1673 54.8167 47.119C57.3475 46.0707 60.1323 45.7964 62.819 46.3308C65.5057 46.8652 67.9736 48.1843 69.9106 50.1214C71.8476 52.0584 73.1667 54.5262 73.7011 57.2129C74.2355 59.8996 73.9612 62.6845 72.9129 65.2153C71.8646 67.7461 70.0894 69.9092 67.8117 71.4311C65.5341 72.953 62.8562 73.7653 60.1169 73.7653C56.4447 73.7617 52.9239 72.3014 50.3272 69.7047C47.7305 67.108 46.2702 63.5872 46.2666 59.915V59.915ZM79.6689 77.2941L73.1208 70.7405C75.9167 67.3867 77.3119 63.084 77.0163 58.7276C76.7206 54.3713 74.7567 50.2966 71.5333 47.3513C68.3098 44.406 64.0749 42.8168 59.7096 42.9144C55.3443 43.012 51.1847 44.7888 48.096 47.8752C45.0074 50.9616 43.2276 55.1199 43.1268 59.4851C43.0261 63.8504 44.6122 68.0864 47.5551 71.312C50.4981 74.5376 54.5713 76.5044 58.9275 76.8033C63.2837 77.1021 67.5874 75.71 70.9433 72.9165L77.4991 79.4701L79.6689 77.2941Z" fill="#30404D"/>
<path fill-rule="evenodd" clip-rule="evenodd" d="M57.7168 76.6748C62.0182 77.2916 66.3918 76.2267 69.9282 73.7016C70.223 73.4916 70.5827 73.3929 70.9434 73.4232C71.3041 73.4535 71.6424 73.6108 71.898 73.867L76.4071 78.3807H78.5846L69.9051 69.7027C68.6201 70.9906 67.0939 72.0126 65.4137 72.7102C63.7335 73.4078 61.9322 73.7674 60.1129 73.7684C58.2937 73.7693 56.492 73.4117 54.8111 72.7158C53.1301 72.02 51.6028 70.9996 50.3165 69.7131C49.0301 68.4266 48.01 66.8991 47.3145 65.218C46.6189 63.537 46.2615 61.7353 46.2628 59.916C46.264 58.0967 46.6239 56.2955 47.3218 54.6154C48.0197 52.9353 49.0419 51.4092 50.33 50.1245L48.1524 47.9492C45.927 50.1701 44.3644 52.9672 43.64 56.0266C42.9156 59.086 43.058 62.2868 44.0512 65.2698C45.0445 68.2528 46.8492 70.9001 49.263 72.9146C51.6769 74.9291 54.6043 76.2312 57.7168 76.6748V76.6748Z" fill="#182A37"/>
<path fill-rule="evenodd" clip-rule="evenodd" d="M78.2104 84.3375L74.429 80.5549C74.1333 80.2577 73.9673 79.8554 73.9673 79.4361C73.9673 79.0169 74.1333 78.6146 74.429 78.3173L78.5225 74.2253C78.8201 73.9296 79.2226 73.7637 79.6421 73.7637C80.0616 73.7637 80.4641 73.9296 80.7616 74.2253L84.3988 77.8635L78.2104 84.3375Z" fill="#0078D4"/>
<path fill-rule="evenodd" clip-rule="evenodd" d="M81.3039 81.101L78.515 78.314C78.3727 78.1711 78.2037 78.0578 78.0175 77.9804C77.8313 77.9031 77.6317 77.8633 77.4301 77.8633C77.2285 77.8633 77.0288 77.9031 76.8426 77.9804C76.6565 78.0578 76.4874 78.1711 76.3451 78.314L74.283 80.3746V80.4077L78.2108 84.3369L81.3039 81.101Z" fill="#1F56A3"/>
<path opacity="0.8" fill-rule="evenodd" clip-rule="evenodd" d="M68.2434 48.7129C70.1824 51.3781 71.1061 54.6479 70.8484 57.9337C70.5906 61.2195 69.1683 64.3053 66.8375 66.6355C64.5067 68.9658 61.4206 70.3874 58.1347 70.6443C54.8489 70.9013 51.5793 69.9768 48.9146 68.0372C50.0886 69.6599 51.6008 71.0084 53.3468 71.9897C55.0927 72.9709 57.0309 73.5616 59.0274 73.7208C61.0239 73.8801 63.0312 73.6041 64.9106 72.912C66.7901 72.2198 68.4969 71.1281 69.9133 69.712C71.3297 68.296 72.4219 66.5894 73.1144 64.7101C73.807 62.8308 74.0834 60.8236 73.9246 58.8271C73.7659 56.8305 73.1757 54.8923 72.1948 53.146C71.214 51.3998 69.8658 49.8873 68.2434 48.7129V48.7129Z" fill="#ABDCEC"/>
<path fill-rule="evenodd" clip-rule="evenodd" d="M63.0747 59.9142C63.0747 60.4993 62.9012 61.0713 62.5762 61.5578C62.2511 62.0443 61.789 62.4235 61.2485 62.6474C60.7079 62.8713 60.113 62.9299 59.5392 62.8158C58.9653 62.7016 58.4381 62.4198 58.0244 62.0061C57.6107 61.5923 57.3289 61.0652 57.2147 60.4913C57.1006 59.9175 57.1592 59.3226 57.3831 58.782C57.607 58.2415 57.9862 57.7794 58.4727 57.4543C58.9592 57.1293 59.5312 56.9558 60.1163 56.9558C60.9006 56.9567 61.6526 57.2687 62.2072 57.8233C62.7618 58.3779 63.0738 59.1298 63.0747 59.9142V59.9142ZM68.5422 58.3208L67.1665 58.0149C67.0241 57.963 66.9079 57.8572 66.8432 57.7202C66.8386 57.7051 66.8332 57.6903 66.8269 57.6758L66.4473 56.7534C66.4408 56.7374 66.4334 56.7215 66.4254 56.7061C66.3739 56.5646 66.3808 56.4085 66.4444 56.2721L67.2011 55.0828C67.3559 54.8253 67.422 54.5241 67.3892 54.2255C67.3565 53.9268 67.2267 53.6472 67.0198 53.4293L66.6011 53.0107C66.3813 52.8073 66.102 52.68 65.8043 52.6473C65.5066 52.6147 65.2064 52.6785 64.9477 52.8294L63.7581 53.5858C63.6823 53.6238 63.5982 53.6421 63.5134 53.6391C63.4487 53.6415 63.3843 53.6299 63.3244 53.6051C63.309 53.5968 63.2931 53.5895 63.2768 53.5832L62.3547 53.2033C62.3402 53.1973 62.3254 53.1919 62.3103 53.1873C62.1733 53.1224 62.0675 53.0061 62.0156 52.8637L61.71 51.4883C61.6374 51.1967 61.4711 50.937 61.2367 50.7489C61.0022 50.5609 60.7126 50.4549 60.4122 50.4473H59.8205C59.5201 50.4548 59.2305 50.5607 58.9961 50.7487C58.7618 50.9368 58.5955 51.1965 58.5229 51.488L58.217 52.8643C58.1649 53.0064 58.0591 53.1224 57.9224 53.1873C57.9073 53.1918 57.8925 53.1974 57.8777 53.2033L56.9556 53.5832C56.9393 53.5896 56.9234 53.5969 56.9079 53.6051C56.8481 53.6299 56.7837 53.6415 56.7189 53.6391C56.6341 53.6419 56.5499 53.6236 56.4739 53.5858L55.2849 52.8297C55.0263 52.6788 54.726 52.615 54.4283 52.6477C54.1307 52.6803 53.8513 52.8077 53.6315 53.011L53.2129 53.4293C53.0059 53.6472 52.8761 53.9269 52.8433 54.2256C52.8106 54.5243 52.8767 54.8256 53.0315 55.0831L53.7883 56.2721C53.8516 56.4085 53.8584 56.5644 53.8072 56.7058C53.7992 56.7215 53.7915 56.7374 53.785 56.7534L53.4055 57.6759C53.3996 57.6904 53.3939 57.7051 53.3892 57.7202C53.3244 57.8573 53.2082 57.9633 53.0658 58.0152L51.6905 58.3205C51.3989 58.3932 51.1391 58.5594 50.951 58.7939C50.763 59.0283 50.657 59.318 50.6494 59.6184V60.2101C50.657 60.5104 50.763 60.8 50.951 61.0344C51.139 61.2687 51.3986 61.435 51.6902 61.5076L53.0662 61.8132C53.2084 61.8652 53.3245 61.9712 53.3892 62.1082C53.394 62.1233 53.3996 62.1381 53.4055 62.1526L53.7851 63.075C53.7916 63.091 53.799 63.1067 53.8073 63.1223C53.8585 63.2639 53.8516 63.4199 53.788 63.5563L53.0316 64.7453C52.8766 65.0028 52.8105 65.3041 52.8432 65.6028C52.876 65.9015 53.0059 66.1813 53.2129 66.3991L53.6315 66.8177C53.8515 67.0209 54.1308 67.1482 54.4285 67.1809C54.7262 67.2135 55.0265 67.1498 55.2853 66.9991L56.4737 66.2426C56.5497 66.2047 56.634 66.1864 56.7189 66.1893C56.7836 66.1867 56.8482 66.1983 56.9079 66.2233C56.9236 66.231 56.9393 66.2387 56.9556 66.2452L57.8777 66.6251C57.8925 66.631 57.9073 66.6363 57.9224 66.6411C58.0592 66.7061 58.165 66.8222 58.217 66.9645L58.5229 68.3401C58.5954 68.6317 58.7616 68.8915 58.996 69.0796C59.2304 69.2676 59.5201 69.3736 59.8205 69.3812H60.4122C60.7126 69.3735 61.0021 69.2675 61.2365 69.0795C61.4709 68.8914 61.6371 68.6317 61.7097 68.3401L62.0156 66.9645C62.0675 66.8221 62.1734 66.706 62.3103 66.6411C62.3254 66.6364 62.3402 66.631 62.3547 66.6251L63.2768 66.2452C63.2931 66.2387 63.309 66.231 63.3244 66.2233C63.3841 66.1984 63.4485 66.1868 63.5132 66.1893C63.598 66.1863 63.6822 66.2046 63.7582 66.2426L64.9475 66.9988C65.2061 67.1497 65.5065 67.2136 65.8042 67.181C66.1019 67.1484 66.3813 67.021 66.6012 66.8177L67.0195 66.3994C67.2266 66.1815 67.3564 65.9018 67.3892 65.603C67.4221 65.3043 67.356 65.003 67.2012 64.7454L66.4444 63.5564C66.4129 63.4889 66.395 63.4158 66.3918 63.3414C66.3885 63.267 66.4 63.1927 66.4255 63.1227C66.4335 63.107 66.4409 63.0913 66.4474 63.0753L66.8269 62.1526C66.8332 62.1382 66.8387 62.1233 66.8432 62.1082C66.9081 61.9712 67.0244 61.8652 67.1669 61.8132L68.5419 61.5076C68.8336 61.4351 69.0934 61.2689 69.2815 61.0346C69.4696 60.8002 69.5757 60.5105 69.5833 60.2101V59.6184C69.5757 59.318 69.4698 59.0283 69.2817 58.7939C69.0936 58.5595 68.8338 58.3933 68.5422 58.3208V58.3208Z" fill="white"/>
<path fill-rule="evenodd" clip-rule="evenodd" d="M92.2821 49.6386C92.2821 58.161 89.7549 66.492 85.0201 73.5781C80.2853 80.6643 73.5556 86.1872 65.6819 89.4486C57.8082 92.71 49.1443 93.5633 40.7856 91.9007C32.427 90.238 24.7491 86.1341 18.7228 80.1079C12.6966 74.0816 8.59266 66.4037 6.93002 58.0451C5.26739 49.6864 6.12071 41.0225 9.38209 33.1488C12.6435 25.2751 18.1664 18.5454 25.2525 13.8106C32.3387 9.07581 40.6697 6.54862 49.1921 6.54862C54.8508 6.54828 60.4542 7.6626 65.6823 9.82795C70.9104 11.9933 75.6607 15.1673 79.6621 19.1686C83.6634 23.17 86.8374 27.9203 89.0027 33.1484C91.1681 38.3765 92.2824 43.9799 92.2821 49.6386V49.6386ZM49.1921 2.80862C58.4542 2.80862 67.5083 5.55515 75.2094 10.7009C82.9106 15.8466 88.9129 23.1605 92.4573 31.7176C96.0018 40.2746 96.9292 49.6906 95.1222 58.7747C93.3153 67.8588 88.8552 76.2031 82.3059 82.7524C75.7566 89.3017 67.4123 93.7619 58.3281 95.5688C49.244 97.3757 39.8281 96.4484 31.271 92.9039C22.7139 89.3594 15.4001 83.3571 10.2543 75.656C5.10859 67.9548 2.36206 58.9007 2.36206 49.6386C2.36325 37.2189 7.29749 25.3082 16.0796 16.5261C24.8616 7.74404 36.7723 2.80979 49.1921 2.80859V2.80862Z" fill="#0078D4"/>
</g>
<defs>
<linearGradient id="paint0_linear" x1="47.4222" y1="-15.153" x2="51.405" y2="130.615" gradientUnits="userSpaceOnUse">
<stop stop-color="#00ABDE"/>
<stop offset="1" stop-color="#007ED8"/>
</linearGradient>
<clipPath id="clip0">
<rect width="99.2799" height="99.28" fill="white"/>
</clipPath>
</defs>
</svg>
