<?xml version="1.0" encoding="UTF-8"?>
<svg width="107px" height="107px" viewBox="0 0 107 107" version="1.1" xmlns="http://www.w3.org/2000/svg" xmlns:xlink="http://www.w3.org/1999/xlink">
    <!-- Generator: Sketch 61.2 (89653) - https://sketch.com -->
    <title>Upgrade to Microsoft Teams/Plan-your-Teams-upgrade</title>
    <desc>Created with Sketch.</desc>
    <defs>
        <rect id="path-1" x="0" y="0" width="100" height="100" rx="50"></rect>
        <filter x="-8.0%" y="-8.0%" width="118.0%" height="118.0%" filterUnits="objectBoundingBox" id="filter-3">
            <feOffset dx="0" dy="2" in="SourceAlpha" result="shadowOffsetOuter1"></feOffset>
            <feColorMatrix values="0 0 0 0 0   0 0 0 0 0   0 0 0 0 0  0 0 0 0.0983072917 0" type="matrix" in="shadowOffsetOuter1" result="shadowMatrixOuter1"></feColorMatrix>
            <feMerge>
                <feMergeNode in="shadowMatrixOuter1"></feMergeNode>
                <feMergeNode in="SourceGraphic"></feMergeNode>
            </feMerge>
        </filter>
        <rect id="path-4" x="-3" y="-3" width="106" height="106" rx="53"></rect>
        <filter x="-0.5%" y="-0.5%" width="101.9%" height="101.9%" filterUnits="objectBoundingBox" id="filter-5">
            <feOffset dx="1" dy="1" in="SourceAlpha" result="shadowOffsetOuter1"></feOffset>
            <feMorphology radius="4" operator="erode" in="SourceAlpha" result="shadowInner"></feMorphology>
            <feOffset dx="1" dy="1" in="shadowInner" result="shadowInner"></feOffset>
            <feComposite in="shadowOffsetOuter1" in2="shadowInner" operator="out" result="shadowOffsetOuter1"></feComposite>
            <feColorMatrix values="0 0 0 0 0   0 0 0 0 0   0 0 0 0 0  0 0 0 0.15 0" type="matrix" in="shadowOffsetOuter1"></feColorMatrix>
        </filter>
    </defs>
    <g id="Badges" stroke="none" stroke-width="1" fill="none" fill-rule="evenodd">
        <g id="Upgrade-to-Microsoft-Teams" transform="translate(-47.000000, -457.000000)">
            <g id="Upgrade-to-Microsoft-Teams/Plan-your-Teams-upgrade" transform="translate(50.000000, 460.000000)">
                <g id="Mask" transform="translate(2.000000, 2.000000)">
                    <g id="Circle-" transform="translate(-2.000000, -0.000000)">
                        <mask id="mask-2" fill="white">
                            <use xlink:href="#path-1"></use>
                        </mask>
                        <g id="BG"></g>
                        <g id="Color/DE" mask="url(#mask-2)" fill="#DEDEDE" fill-rule="evenodd">
                            <rect id="Rectangle" x="0" y="0" width="100" height="100"></rect>
                        </g>
                    </g>
                    <g id="Calendar" filter="url(#filter-3)" transform="translate(21.000000, 24.000000)">
                        <path d="M0,10.9375 L0,46.875 C0,48.59375 1.40625,50 3.125,50 L40.625,50 L50,40.625 L50,10.9375 L0,10.9375" id="Fill-1315" fill="#FFFFFF"></path>
                        <path d="M50,1.5625 C50,0.703125 49.296875,0 48.4375,0 L1.5625,0 C0.703125,0 0,0.703125 0,1.5625 L0,9.375 L50,9.375 L50,1.5625" id="Fill-1316" fill="#6670D3"></path>
                        <polygon id="Fill-1317" fill="#CAD2D4" points="0 10.9375 50 10.9375 50 9.375 0 9.375"></polygon>
                        <path d="M26.5625,4.6875 C26.5625,5.55 25.8625,6.25 25,6.25 C24.1367188,6.25 23.4375,5.55 23.4375,4.6875 C23.4375,3.82421875 24.1367188,3.125 25,3.125 C25.8625,3.125 26.5625,3.82421875 26.5625,4.6875" id="Fill-1318" fill="#49509B"></path>
                        <path d="M39.0625,4.6875 C39.0625,5.55 38.3625,6.25 37.5,6.25 C36.6367187,6.25 35.9375,5.55 35.9375,4.6875 C35.9375,3.82421875 36.6367187,3.125 37.5,3.125 C38.3625,3.125 39.0625,3.82421875 39.0625,4.6875" id="Fill-1319" fill="#49509B"></path>
                        <path d="M14.0625,4.6875 C14.0625,5.55 13.3625,6.25 12.5,6.25 C11.6367188,6.25 10.9375,5.55 10.9375,4.6875 C10.9375,3.82421875 11.6367188,3.125 12.5,3.125 C13.3625,3.125 14.0625,3.82421875 14.0625,4.6875" id="Fill-1320" fill="#49509B"></path>
                        <path d="M26.5625,12.5 C26.5625,13.3625 25.8625,14.0625 25,14.0625 C24.1367188,14.0625 23.4375,13.3625 23.4375,12.5 C23.4375,11.6367187 24.1367188,10.9375 25,10.9375 C25.8625,10.9375 26.5625,11.6367187 26.5625,12.5" id="Fill-1321" fill="#546670"></path>
                        <path d="M39.0625,12.5 C39.0625,13.3625 38.3625,14.0625 37.5,14.0625 C36.6367187,14.0625 35.9375,13.3625 35.9375,12.5 C35.9375,11.6367187 36.6367187,10.9375 37.5,10.9375 C38.3625,10.9375 39.0625,11.6367187 39.0625,12.5" id="Fill-1322" fill="#546670"></path>
                        <path d="M14.0625,12.5 C14.0625,13.3625 13.3625,14.0625 12.5,14.0625 C11.6367188,14.0625 10.9375,13.3625 10.9375,12.5 C10.9375,11.6367187 11.6367188,10.9375 12.5,10.9375 C13.3625,10.9375 14.0625,11.6367187 14.0625,12.5" id="Fill-1323" fill="#546670"></path>
                        <path d="M37.5,13.28125 C37.0679688,13.28125 36.71875,12.9320312 36.71875,12.5 L36.71875,4.6875 C36.71875,4.25546875 37.0679688,3.90625 37.5,3.90625 C37.9320312,3.90625 38.28125,4.25546875 38.28125,4.6875 L38.28125,12.5 C38.28125,12.9320312 37.9320312,13.28125 37.5,13.28125" id="Fill-1324" fill="#AAB0B1"></path>
                        <path d="M25,13.28125 C24.5679688,13.28125 24.21875,12.9320312 24.21875,12.5 L24.21875,4.6875 C24.21875,4.25546875 24.5679688,3.90625 25,3.90625 C25.4320312,3.90625 25.78125,4.25546875 25.78125,4.6875 L25.78125,12.5 C25.78125,12.9320312 25.4320312,13.28125 25,13.28125" id="Fill-1325" fill="#AAB0B1"></path>
                        <path d="M12.5,13.28125 C12.0679688,13.28125 11.71875,12.9320312 11.71875,12.5 L11.71875,4.6875 C11.71875,4.25546875 12.0679688,3.90625 12.5,3.90625 C12.9320312,3.90625 13.28125,4.25546875 13.28125,4.6875 L13.28125,12.5 C13.28125,12.9320312 12.9320312,13.28125 12.5,13.28125" id="Fill-1326" fill="#AAB0B1"></path>
                        <path d="M8.59375,20.3125 C8.59375,20.7421875 8.2421875,21.09375 7.8125,21.09375 L4.6875,21.09375 C4.2578125,21.09375 3.90625,20.7421875 3.90625,20.3125 L3.90625,17.1875 C3.90625,16.7578125 4.2578125,16.40625 4.6875,16.40625 L7.8125,16.40625 C8.2421875,16.40625 8.59375,16.7578125 8.59375,17.1875 L8.59375,20.3125" id="Fill-1327" fill="#C5CCCD"></path>
                        <path d="M14.84375,20.3125 C14.84375,20.7421875 14.4921875,21.09375 14.0625,21.09375 L10.9375,21.09375 C10.5078125,21.09375 10.15625,20.7421875 10.15625,20.3125 L10.15625,17.1875 C10.15625,16.7578125 10.5078125,16.40625 10.9375,16.40625 L14.0625,16.40625 C14.4921875,16.40625 14.84375,16.7578125 14.84375,17.1875 L14.84375,20.3125" id="Fill-1328" fill="#C5CCCD"></path>
                        <path d="M21.09375,20.3125 C21.09375,20.7421875 20.7421875,21.09375 20.3125,21.09375 L17.1875,21.09375 C16.7578125,21.09375 16.40625,20.7421875 16.40625,20.3125 L16.40625,17.1875 C16.40625,16.7578125 16.7578125,16.40625 17.1875,16.40625 L20.3125,16.40625 C20.7421875,16.40625 21.09375,16.7578125 21.09375,17.1875 L21.09375,20.3125" id="Fill-1329" fill="#C5CCCD"></path>
                        <path d="M27.34375,20.3125 C27.34375,20.7421875 26.9921875,21.09375 26.5625,21.09375 L23.4375,21.09375 C23.0078125,21.09375 22.65625,20.7421875 22.65625,20.3125 L22.65625,17.1875 C22.65625,16.7578125 23.0078125,16.40625 23.4375,16.40625 L26.5625,16.40625 C26.9921875,16.40625 27.34375,16.7578125 27.34375,17.1875 L27.34375,20.3125" id="Fill-1330" fill="#C5CCCD"></path>
                        <path d="M33.59375,20.3125 C33.59375,20.7421875 33.2421875,21.09375 32.8125,21.09375 L29.6875,21.09375 C29.2578125,21.09375 28.90625,20.7421875 28.90625,20.3125 L28.90625,17.1875 C28.90625,16.7578125 29.2578125,16.40625 29.6875,16.40625 L32.8125,16.40625 C33.2421875,16.40625 33.59375,16.7578125 33.59375,17.1875 L33.59375,20.3125" id="Fill-1331" fill="#C5CCCD"></path>
                        <path d="M39.84375,20.3125 C39.84375,20.7421875 39.4921875,21.09375 39.0625,21.09375 L35.9375,21.09375 C35.5078125,21.09375 35.15625,20.7421875 35.15625,20.3125 L35.15625,17.1875 C35.15625,16.7578125 35.5078125,16.40625 35.9375,16.40625 L39.0625,16.40625 C39.4921875,16.40625 39.84375,16.7578125 39.84375,17.1875 L39.84375,20.3125" id="Fill-1332" fill="#6670D3"></path>
                        <path d="M46.09375,20.3125 C46.09375,20.7421875 45.7421875,21.09375 45.3125,21.09375 L42.1875,21.09375 C41.7578125,21.09375 41.40625,20.7421875 41.40625,20.3125 L41.40625,17.1875 C41.40625,16.7578125 41.7578125,16.40625 42.1875,16.40625 L45.3125,16.40625 C45.7421875,16.40625 46.09375,16.7578125 46.09375,17.1875 L46.09375,20.3125" id="Fill-1333" fill="#6670D3"></path>
                        <path d="M8.59375,26.5625 C8.59375,26.9921875 8.2421875,27.34375 7.8125,27.34375 L4.6875,27.34375 C4.2578125,27.34375 3.90625,26.9921875 3.90625,26.5625 L3.90625,23.4375 C3.90625,23.0078125 4.2578125,22.65625 4.6875,22.65625 L7.8125,22.65625 C8.2421875,22.65625 8.59375,23.0078125 8.59375,23.4375 L8.59375,26.5625" id="Fill-1334" fill="#C5CCCD"></path>
                        <path d="M14.84375,26.5625 C14.84375,26.9921875 14.4921875,27.34375 14.0625,27.34375 L10.9375,27.34375 C10.5078125,27.34375 10.15625,26.9921875 10.15625,26.5625 L10.15625,23.4375 C10.15625,23.0078125 10.5078125,22.65625 10.9375,22.65625 L14.0625,22.65625 C14.4921875,22.65625 14.84375,23.0078125 14.84375,23.4375 L14.84375,26.5625" id="Fill-1335" fill="#C5CCCD"></path>
                        <path d="M21.09375,26.5625 C21.09375,26.9921875 20.7421875,27.34375 20.3125,27.34375 L17.1875,27.34375 C16.7578125,27.34375 16.40625,26.9921875 16.40625,26.5625 L16.40625,23.4375 C16.40625,23.0078125 16.7578125,22.65625 17.1875,22.65625 L20.3125,22.65625 C20.7421875,22.65625 21.09375,23.0078125 21.09375,23.4375 L21.09375,26.5625" id="Fill-1336" fill="#C5CCCD"></path>
                        <path d="M27.34375,26.5625 C27.34375,26.9921875 26.9921875,27.34375 26.5625,27.34375 L23.4375,27.34375 C23.0078125,27.34375 22.65625,26.9921875 22.65625,26.5625 L22.65625,23.4375 C22.65625,23.0078125 23.0078125,22.65625 23.4375,22.65625 L26.5625,22.65625 C26.9921875,22.65625 27.34375,23.0078125 27.34375,23.4375 L27.34375,26.5625" id="Fill-1337" fill="#C5CCCD"></path>
                        <path d="M33.59375,26.5625 C33.59375,26.9921875 33.2421875,27.34375 32.8125,27.34375 L29.6875,27.34375 C29.2578125,27.34375 28.90625,26.9921875 28.90625,26.5625 L28.90625,23.4375 C28.90625,23.0078125 29.2578125,22.65625 29.6875,22.65625 L32.8125,22.65625 C33.2421875,22.65625 33.59375,23.0078125 33.59375,23.4375 L33.59375,26.5625" id="Fill-1338" fill="#C5CCCD"></path>
                        <path d="M39.84375,26.5625 C39.84375,26.9921875 39.4921875,27.34375 39.0625,27.34375 L35.9375,27.34375 C35.5078125,27.34375 35.15625,26.9921875 35.15625,26.5625 L35.15625,23.4375 C35.15625,23.0078125 35.5078125,22.65625 35.9375,22.65625 L39.0625,22.65625 C39.4921875,22.65625 39.84375,23.0078125 39.84375,23.4375 L39.84375,26.5625" id="Fill-1339" fill="#6670D3"></path>
                        <path d="M46.09375,26.5625 C46.09375,26.9921875 45.7421875,27.34375 45.3125,27.34375 L42.1875,27.34375 C41.7578125,27.34375 41.40625,26.9921875 41.40625,26.5625 L41.40625,23.4375 C41.40625,23.0078125 41.7578125,22.65625 42.1875,22.65625 L45.3125,22.65625 C45.7421875,22.65625 46.09375,23.0078125 46.09375,23.4375 L46.09375,26.5625" id="Fill-1340" fill="#6670D3"></path>
                        <path d="M8.59375,32.8125 C8.59375,33.2421875 8.2421875,33.59375 7.8125,33.59375 L4.6875,33.59375 C4.2578125,33.59375 3.90625,33.2421875 3.90625,32.8125 L3.90625,29.6875 C3.90625,29.2578125 4.2578125,28.90625 4.6875,28.90625 L7.8125,28.90625 C8.2421875,28.90625 8.59375,29.2578125 8.59375,29.6875 L8.59375,32.8125" id="Fill-1341" fill="#C5CCCD"></path>
                        <path d="M14.84375,32.8125 C14.84375,33.2421875 14.4921875,33.59375 14.0625,33.59375 L10.9375,33.59375 C10.5078125,33.59375 10.15625,33.2421875 10.15625,32.8125 L10.15625,29.6875 C10.15625,29.2578125 10.5078125,28.90625 10.9375,28.90625 L14.0625,28.90625 C14.4921875,28.90625 14.84375,29.2578125 14.84375,29.6875 L14.84375,32.8125" id="Fill-1342" fill="#C5CCCD"></path>
                        <path d="M21.09375,32.8125 C21.09375,33.2421875 20.7421875,33.59375 20.3125,33.59375 L17.1875,33.59375 C16.7578125,33.59375 16.40625,33.2421875 16.40625,32.8125 L16.40625,29.6875 C16.40625,29.2578125 16.7578125,28.90625 17.1875,28.90625 L20.3125,28.90625 C20.7421875,28.90625 21.09375,29.2578125 21.09375,29.6875 L21.09375,32.8125" id="Fill-1343" fill="#C5CCCD"></path>
                        <path d="M27.34375,32.8125 C27.34375,33.2421875 26.9921875,33.59375 26.5625,33.59375 L23.4375,33.59375 C23.0078125,33.59375 22.65625,33.2421875 22.65625,32.8125 L22.65625,29.6875 C22.65625,29.2578125 23.0078125,28.90625 23.4375,28.90625 L26.5625,28.90625 C26.9921875,28.90625 27.34375,29.2578125 27.34375,29.6875 L27.34375,32.8125" id="Fill-1344" fill="#C5CCCD"></path>
                        <path d="M33.59375,32.8125 C33.59375,33.2421875 33.2421875,33.59375 32.8125,33.59375 L29.6875,33.59375 C29.2578125,33.59375 28.90625,33.2421875 28.90625,32.8125 L28.90625,29.6875 C28.90625,29.2578125 29.2578125,28.90625 29.6875,28.90625 L32.8125,28.90625 C33.2421875,28.90625 33.59375,29.2578125 33.59375,29.6875 L33.59375,32.8125" id="Fill-1345" fill="#C5CCCD"></path>
                        <path d="M39.84375,32.8125 C39.84375,33.2421875 39.4921875,33.59375 39.0625,33.59375 L35.9375,33.59375 C35.5078125,33.59375 35.15625,33.2421875 35.15625,32.8125 L35.15625,29.6875 C35.15625,29.2578125 35.5078125,28.90625 35.9375,28.90625 L39.0625,28.90625 C39.4921875,28.90625 39.84375,29.2578125 39.84375,29.6875 L39.84375,32.8125" id="Fill-1346" fill="#6670D3"></path>
                        <path d="M46.09375,32.8125 C46.09375,33.2421875 45.7421875,33.59375 45.3125,33.59375 L42.1875,33.59375 C41.7578125,33.59375 41.40625,33.2421875 41.40625,32.8125 L41.40625,29.6875 C41.40625,29.2578125 41.7578125,28.90625 42.1875,28.90625 L45.3125,28.90625 C45.7421875,28.90625 46.09375,29.2578125 46.09375,29.6875 L46.09375,32.8125" id="Fill-1347" fill="#6670D3"></path>
                        <path d="M8.59375,39.0625 C8.59375,39.4921875 8.2421875,39.84375 7.8125,39.84375 L4.6875,39.84375 C4.2578125,39.84375 3.90625,39.4921875 3.90625,39.0625 L3.90625,35.9375 C3.90625,35.5078125 4.2578125,35.15625 4.6875,35.15625 L7.8125,35.15625 C8.2421875,35.15625 8.59375,35.5078125 8.59375,35.9375 L8.59375,39.0625" id="Fill-1348" fill="#C5CCCD"></path>
                        <path d="M14.84375,39.0625 C14.84375,39.4921875 14.4921875,39.84375 14.0625,39.84375 L10.9375,39.84375 C10.5078125,39.84375 10.15625,39.4921875 10.15625,39.0625 L10.15625,35.9375 C10.15625,35.5078125 10.5078125,35.15625 10.9375,35.15625 L14.0625,35.15625 C14.4921875,35.15625 14.84375,35.5078125 14.84375,35.9375 L14.84375,39.0625" id="Fill-1349" fill="#C5CCCD"></path>
                        <path d="M21.09375,39.0625 C21.09375,39.4921875 20.7421875,39.84375 20.3125,39.84375 L17.1875,39.84375 C16.7578125,39.84375 16.40625,39.4921875 16.40625,39.0625 L16.40625,35.9375 C16.40625,35.5078125 16.7578125,35.15625 17.1875,35.15625 L20.3125,35.15625 C20.7421875,35.15625 21.09375,35.5078125 21.09375,35.9375 L21.09375,39.0625" id="Fill-1350" fill="#C5CCCD"></path>
                        <path d="M27.34375,39.0625 C27.34375,39.4921875 26.9921875,39.84375 26.5625,39.84375 L23.4375,39.84375 C23.0078125,39.84375 22.65625,39.4921875 22.65625,39.0625 L22.65625,35.9375 C22.65625,35.5078125 23.0078125,35.15625 23.4375,35.15625 L26.5625,35.15625 C26.9921875,35.15625 27.34375,35.5078125 27.34375,35.9375 L27.34375,39.0625" id="Fill-1351" fill="#C5CCCD"></path>
                        <path d="M33.59375,39.0625 C33.59375,39.4921875 33.2421875,39.84375 32.8125,39.84375 L29.6875,39.84375 C29.2578125,39.84375 28.90625,39.4921875 28.90625,39.0625 L28.90625,35.9375 C28.90625,35.5078125 29.2578125,35.15625 29.6875,35.15625 L32.8125,35.15625 C33.2421875,35.15625 33.59375,35.5078125 33.59375,35.9375 L33.59375,39.0625" id="Fill-1352" fill="#C5CCCD"></path>
                        <path d="M39.84375,39.0625 C39.84375,39.4921875 39.4921875,39.84375 39.0625,39.84375 L35.9375,39.84375 C35.5078125,39.84375 35.15625,39.4921875 35.15625,39.0625 L35.15625,35.9375 C35.15625,35.5078125 35.5078125,35.15625 35.9375,35.15625 L39.0625,35.15625 C39.4921875,35.15625 39.84375,35.5078125 39.84375,35.9375 L39.84375,39.0625" id="Fill-1353" fill="#6670D3"></path>
                        <path d="M46.09375,39.0625 C46.09375,39.4921875 45.7421875,39.84375 45.3125,39.84375 L42.1875,39.84375 C41.7578125,39.84375 41.40625,39.4921875 41.40625,39.0625 L41.40625,35.9375 C41.40625,35.5078125 41.7578125,35.15625 42.1875,35.15625 L45.3125,35.15625 C45.7421875,35.15625 46.09375,35.5078125 46.09375,35.9375 L46.09375,39.0625" id="Fill-1354" fill="#6670D3"></path>
                        <path d="M40.625,43.75 L40.625,50 L50,40.625 L43.75,40.625 C42.03125,40.625 40.625,42.03125 40.625,43.75" id="Fill-1355" fill="#AAB0B1"></path>
                        <polyline id="Fill-1356" fill="#CAD2D4" points="34.375 50 40.625 43.75 40.625 50 34.375 50"></polyline>
                    </g>
                    <g id="Arrow" transform="translate(58.000000, 61.000000)">
                        <path d="M9,19.2643949 C3.31205984,19.2643949 -1.3,14.6612134 -1.3,8.98219745 C-1.3,3.30318148 3.31205984,-1.3 9,-1.3 C14.6879402,-1.3 19.3,3.30318148 19.3,8.98219745 C19.3,14.6612134 14.6879402,19.2643949 9,19.2643949 Z" id="Fill-352" stroke="#DEDEDE" stroke-width="2.6" fill="#4B53BC"></path>
                        <path d="M13.5249231,8.08535958 L10.0633846,3.93972999 C9.53723077,3.30959429 8.46276923,3.30959429 7.93661538,3.93972999 L4.47507692,8.08535958 C3.98561538,8.67196617 4.06453846,9.54254838 4.65230769,10.0317327 C5.24007692,10.520226 6.11238462,10.4407681 6.60184615,9.85485248 L7.61538462,8.64087394 L7.61538462,13.1153901 C7.61538462,13.8788769 8.235,14.4972667 9,14.4972667 C9.76430769,14.4972667 10.3846154,13.8788769 10.3846154,13.1153901 L10.3846154,8.64087394 L11.3981538,9.85485248 C11.6716154,10.1823572 12.0655385,10.3516371 12.4622308,10.3516371 C12.7744615,10.3516371 13.0887692,10.2466145 13.3476923,10.0317327 C13.9354615,9.54254838 14.0143846,8.67196617 13.5249231,8.08535958" id="Fill-353" fill="#FFFFFE"></path>
                    </g>
                </g>
                <g id="Teams-Border">
                    <g id="Azure-Border">
                        <use fill="black" fill-opacity="1" filter="url(#filter-5)" xlink:href="#path-4"></use>
                        <rect stroke="#F2F1F0" stroke-width="4" stroke-linejoin="square" x="-1" y="-1" width="102" height="102" rx="51"></rect>
                    </g>
                    <rect id="Azure-Border" stroke="#4B53BC" stroke-width="4" x="2" y="2" width="96" height="96" rx="48"></rect>
                </g>
            </g>
        </g>
    </g>
</svg>