<svg width="160" height="188" viewBox="0 0 160 188" fill="none" xmlns="http://www.w3.org/2000/svg">
<g clip-path="url(#clip0)">
<path d="M79.6779 188C82.7592 187.994 85.7796 187.141 88.4083 185.534L150.384 147.874C153.165 146.11 155.449 143.665 157.019 140.771C158.589 137.876 159.394 134.628 159.356 131.336V56.6207C159.392 53.3283 158.587 50.0812 157.017 47.1871C155.447 44.2929 153.163 41.8476 150.384 40.0829L88.4083 2.4228C85.7749 0.837605 82.7592 0 79.6855 0C76.6118 0 73.5961 0.837605 70.9627 2.4228L8.9876 40.098C6.2045 41.8604 3.91796 44.3048 2.34499 47.1991C0.772021 50.0935 -0.0351786 53.3418 4.1431e-06 56.6358V131.336C-0.0185283 134.119 0.556189 136.874 1.68588 139.418C2.81557 141.962 4.4743 144.236 6.5516 146.089V146.115L70.9627 185.549C73.5884 187.149 76.6032 187.996 79.6779 188V188ZM80.3257 6.95218C82.2776 6.95218 84.7548 8.1651 86.4646 9.20912L147.222 46.4034C150.974 48.6881 153.09 55.2842 153.09 60.0352L152.458 131.336C152.458 136.087 149.259 140.355 145.506 142.64L85.1104 179.021C81.6758 181.109 78.8854 181.109 75.4507 179.021L14.2427 142.549C10.4903 140.265 7.47191 136.072 7.47191 131.336V57.688C7.50442 55.3228 8.11341 53.0013 9.24608 50.9247C10.3787 48.8482 12.0009 47.0792 13.9718 45.7714L74.548 9.20912C76.2577 8.1651 78.3739 6.95218 80.3257 6.95218Z" fill="#F2F1F0"/>
<path fill-rule="evenodd" clip-rule="evenodd" d="M87.5765 10.5337C85.2056 9.0602 82.4697 8.2793 79.6783 8.2793C76.8868 8.2793 74.1509 9.0602 71.7801 10.5337L15.6454 44.8651C13.1193 46.4768 11.047 48.7072 9.625 51.3446C8.203 53.9821 7.47851 56.9392 7.52026 59.9352V128.038C7.48034 131.034 8.20562 133.991 9.62745 136.628C11.0493 139.265 13.1206 141.495 15.6454 143.108L71.7801 177.439C74.1508 178.913 76.8867 179.694 79.6783 179.694C82.4698 179.694 85.2057 178.913 87.5765 177.439L143.711 143.108C146.236 141.496 148.307 139.265 149.729 136.628C151.151 133.991 151.877 131.034 151.837 128.038V59.9352C151.875 56.9397 151.149 53.9839 149.727 51.347C148.305 48.7101 146.234 46.4793 143.711 44.8651L87.5765 10.5337Z" fill="url(#paint0_linear)"/>
<path fill-rule="evenodd" clip-rule="evenodd" d="M79.6783 9.7539C81.3615 9.7539 83.2442 10.6196 85.311 11.8777L143.777 47.4201C145.668 48.6335 147.218 50.3104 148.278 52.2914C149.339 54.2725 149.875 56.4918 149.837 58.7386V129.217C149.875 131.464 149.339 133.683 148.278 135.664C147.218 137.645 145.668 139.322 143.777 140.535L85.312 176.077L85.311 176.078C83.6408 177.217 81.6958 177.888 79.6783 178.021C77.6609 177.888 75.7158 177.217 74.0456 176.078L74.0446 176.077L15.5823 140.537L15.5801 140.536C13.7918 139.572 12.2668 138.185 11.1383 136.496C10.1614 134.893 9.52031 132.678 9.52031 129.217V58.7386C9.48157 56.4919 10.018 54.2726 11.0785 52.2916C12.139 50.3106 13.6885 48.6336 15.5797 47.4202L74.0365 11.8831L74.0406 11.8807C76.1244 10.6277 77.9846 9.7539 79.6783 9.7539ZM87.3908 8.4609L145.855 44.0021C148.333 45.5722 150.368 47.751 151.765 50.3307C153.162 52.9104 153.876 55.8051 153.837 58.7386V129.217C153.876 132.151 153.162 135.045 151.765 137.625C150.368 140.205 148.333 142.384 145.855 143.954L87.3898 179.495C85.0956 181.02 82.4302 181.893 79.6783 182.021C76.9264 181.893 74.261 181.02 71.9667 179.495H71.9658L13.502 143.953L13.4995 143.952C11.1642 142.659 9.18097 140.814 7.72281 138.578C6.12823 135.725 5.36521 132.482 5.52031 129.217V58.7386C5.48125 55.805 6.19436 52.9103 7.59165 50.3305C8.98894 47.7508 11.0238 45.572 13.5022 44.002L71.9667 8.46025L71.9749 8.45537C74.0655 7.19796 76.7734 5.75391 79.6783 5.75391C82.5645 5.75391 85.2816 7.17699 87.3908 8.46085V8.4609Z" fill="#0078D4"/>
<path opacity="0.2" d="M139.96 132.028L80.41 166.634L20.464 132.025L80.014 97.418L139.96 132.028Z" fill="#003067"/>
<path d="M140.601 120.648L79.878 155.936L18.767 120.653L79.489 85.3652L140.601 120.648Z" fill="#1B93EB"/>
<path d="M140.601 120.648L140.589 124.754L79.8669 160.042L79.8779 155.936L140.601 120.648Z" fill="#1F56A3"/>
<path d="M79.878 155.935L79.867 160.041L18.755 124.758L18.767 120.652L79.878 155.935Z" fill="#0078D4"/>
<path d="M94.9112 67.004C95.8638 67.6022 96.6291 68.4561 97.1198 69.4683L98.9898 73.1274C99.4805 74.1395 100.246 74.9935 101.198 75.5917L121.412 87.262C122.248 87.807 122.944 88.5415 123.443 89.4058C123.942 90.2702 124.23 91.24 124.284 92.2365L124.2 121.968C124.194 123.791 122.895 124.531 121.309 123.616L81.0564 100.376C80.2204 99.8308 79.5246 99.0963 79.0256 98.232C78.5266 97.3677 78.2384 96.3979 78.1844 95.4013L78.2828 60.7199C78.2879 58.8972 79.5874 58.1568 81.1735 59.0725L94.9112 67.004Z" fill="#CC9547"/>
<path d="M124.625 85.3947L104.411 73.7244C103.459 73.1262 102.693 72.2723 102.203 71.2601L100.333 67.601C99.8419 66.5888 99.0766 65.7349 98.1241 65.1367L84.3865 57.2053C84.0937 56.9928 83.7493 56.8624 83.3891 56.8277C83.029 56.793 82.6661 56.8552 82.338 57.0079L79.1252 58.875C79.4533 58.7223 79.8161 58.6602 80.1763 58.6949C80.5364 58.7296 80.8808 58.8599 81.1736 59.0724L94.9112 67.0038C95.8637 67.602 96.629 68.4559 97.1198 69.4681L98.9898 73.1271C99.4805 74.1394 100.246 74.9933 101.198 75.5915L121.412 87.2619C122.248 87.8069 122.944 88.5414 123.443 89.4057C123.942 90.27 124.23 91.2398 124.284 92.2363L124.2 121.968C124.235 122.323 124.176 122.68 124.028 123.004C123.88 123.328 123.648 123.607 123.357 123.813L126.57 121.946C126.861 121.74 127.092 121.461 127.24 121.137C127.388 120.813 127.448 120.455 127.413 120.101L127.497 90.3692C127.443 89.3726 127.155 88.4028 126.656 87.5385C126.157 86.6742 125.461 85.9397 124.625 85.3947V85.3947Z" fill="#D6AA6C"/>
<path d="M122.013 53.0344C122.013 53.0344 97.4588 38.8207 91.8109 35.5488V40.0528L121.131 57.0063C121.364 57.1409 121.628 57.2117 121.896 57.2119C122.165 57.212 122.429 57.1414 122.662 57.0071C122.895 56.8728 123.088 56.6795 123.222 56.4468C123.357 56.2141 123.428 55.9501 123.428 55.6813V55.6813C123.463 55.152 123.349 54.6233 123.099 54.1555C122.849 53.6876 122.473 53.2992 122.013 53.0344V53.0344Z" fill="#CDCDD0"/>
<path d="M90.5797 34.9247C90.1435 34.7129 89.6573 34.6257 89.1747 34.6725C88.692 34.7193 88.2317 34.8984 87.8443 35.19C86.7066 35.9383 85.7614 36.9443 85.0854 38.1263C84.4093 39.3084 84.0215 40.6332 83.9534 41.9932V67.612L83.9469 67.6082V89.7748C83.8469 90.9521 83.4333 92.081 82.749 93.0442C82.0647 94.0074 81.1348 94.7697 80.056 95.2516C79.6646 95.4606 79.2305 95.5772 78.787 95.5925C78.3435 95.6079 77.9024 95.5215 77.4974 95.34C77.4974 95.34 108.142 113.091 108.855 113.445C109.278 113.664 109.749 113.779 110.226 113.779C110.703 113.779 111.173 113.664 111.596 113.445C112.675 112.962 113.605 112.2 114.289 111.237C114.973 110.274 115.387 109.145 115.487 107.968V60.1862C115.576 58.831 115.972 57.5138 116.646 56.3349C117.321 55.156 118.255 54.1464 119.378 53.3829C119.753 53.1414 120.176 52.9847 120.618 52.9236C121.06 52.8625 121.51 52.8986 121.937 53.0292C121.937 53.0292 91.2931 35.2784 90.5797 34.9247Z" fill="white"/>
<path d="M77.6245 101.795C76.7196 101.265 76.0356 100.428 75.6978 99.4351L66.7773 73.2229C66.7825 71.4002 68.0819 70.6597 69.6536 71.5672L109.906 94.8069C110.742 95.3519 111.438 96.0864 111.937 96.9507C112.436 97.815 112.724 98.7848 112.778 99.7814L120.996 123.834C120.991 125.657 119.692 126.398 118.105 125.482L77.6245 101.795Z" fill="#EFB252"/>
<path d="M113.119 92.9399L72.8666 69.7002C72.5758 69.4898 72.234 69.3611 71.8766 69.3273C71.5193 69.2935 71.1595 69.3559 70.8344 69.508L67.6216 71.3751C67.9467 71.223 68.3065 71.1606 68.6638 71.1944C69.0211 71.2282 69.3629 71.3569 69.6537 71.5672L109.906 94.8069C111.492 95.7228 112.069 97.8946 112.778 99.7815L120.996 123.835C121.031 124.189 120.972 124.547 120.824 124.871C120.676 125.195 120.445 125.474 120.154 125.679L123.367 123.812C123.658 123.607 123.889 123.328 124.037 123.004C124.185 122.679 124.244 122.322 124.209 121.967L115.991 97.9144C115.255 96.0168 114.705 93.8557 113.119 92.9399Z" fill="#F2C175"/>
<path d="M97.9866 55.9096C98.1597 56.0175 98.3028 56.1672 98.4028 56.345C100.366 59.3798 103.019 61.9075 106.145 63.7222C106.482 63.9517 106.763 64.2559 106.964 64.6112C107.166 64.9665 107.282 65.3634 107.306 65.7712L107.29 71.2826C107.27 78.258 104.606 81.2503 98.1957 81.3339C98.0963 81.3313 97.9994 81.3021 97.9151 81.2494C97.8089 81.186 97.7142 81.1051 97.6349 81.0101C91.2459 73.5367 88.6073 67.4829 88.6271 60.5075L88.6427 54.9961C88.6448 54.2516 89.161 53.9481 89.8089 54.2908C92.9916 55.9779 95.7704 56.7802 97.5671 55.8625C97.6353 55.8344 97.7096 55.8239 97.7829 55.8322C97.8562 55.8404 97.9263 55.867 97.9866 55.9096Z" fill="#0078D4"/>
<path d="M107.947 62.6757C104.822 60.8611 102.169 58.3333 100.206 55.2986C100.106 55.1208 99.9625 54.971 99.7894 54.8632C99.7292 54.8206 99.6591 54.794 99.5858 54.7857C99.5124 54.7775 99.4382 54.7879 99.37 54.8161C97.5733 55.7338 94.7944 54.9315 91.6118 53.2443C91.4919 53.165 91.3536 53.118 91.2103 53.1076C91.0669 53.0973 90.9233 53.1241 90.7932 53.1853L88.9902 54.2331C89.1203 54.1718 89.2639 54.1451 89.4072 54.1554C89.5506 54.1658 89.6889 54.2129 89.8088 54.2922C92.9914 55.9793 95.7703 56.7816 97.567 55.8639C97.6352 55.8357 97.7094 55.8253 97.7828 55.8335C97.8561 55.8418 97.9262 55.8684 97.9864 55.911C98.1595 56.0189 98.3027 56.1686 98.4027 56.3464C100.366 59.3811 103.019 61.9089 106.144 63.7236C106.482 63.9531 106.763 64.2573 106.964 64.6126C107.165 64.9679 107.282 65.3648 107.306 65.7726L107.29 71.284C107.277 75.799 106.156 78.6452 103.629 80.114L105.432 79.0662C107.959 77.5975 109.08 74.7512 109.093 70.2362L109.109 64.7248C109.085 64.317 108.968 63.9201 108.767 63.5648C108.566 63.2095 108.285 62.9053 107.947 62.6757V62.6757Z" fill="#1F56A3"/>
<path d="M92.7758 65.2281L92.0645 65.6414C92.2613 65.5502 92.4789 65.5133 92.6948 65.5343C92.9107 65.5554 93.1171 65.6338 93.2925 65.7614C93.4978 65.8817 93.6877 66.0264 93.8581 66.1924L94.5694 65.7791C94.399 65.6131 94.2091 65.4684 94.0039 65.3481C93.8284 65.2205 93.6221 65.1421 93.4062 65.121C93.1902 65.0999 92.9726 65.1369 92.7758 65.2281V65.2281Z" fill="#E8E8E8"/>
<path d="M101.655 67.4572C101.462 67.3439 101.257 67.2538 101.044 67.1887C100.458 65.7123 99.4231 64.4576 98.0848 63.6023C97.7286 63.343 97.3096 63.1836 96.8711 63.1407C96.4326 63.0977 95.9906 63.1727 95.5909 63.3579L94.8795 63.7713C95.2793 63.5861 95.7213 63.5111 96.1598 63.5541C96.5983 63.597 97.0173 63.7564 97.3735 64.0156C98.7118 64.8709 99.7471 66.1257 100.333 67.602C100.546 67.6671 100.751 67.7573 100.943 67.8706C101.735 68.3859 102.394 69.0812 102.867 69.8998C103.339 70.7184 103.611 71.6371 103.66 72.5809C103.661 72.7697 103.644 72.9582 103.611 73.144C103.607 73.1706 103.598 73.1961 103.594 73.2268C103.546 73.4479 103.465 73.6606 103.354 73.8579C103.341 73.8793 103.325 73.8967 103.312 73.9181C103.197 74.0886 103.045 74.2312 102.868 74.3356L103.579 73.9222C103.756 73.8178 103.908 73.6752 104.024 73.5047C104.036 73.4833 104.052 73.466 104.065 73.4445C104.176 73.2473 104.257 73.0346 104.306 72.8134C104.309 72.7828 104.318 72.7572 104.322 72.7307C104.356 72.5448 104.372 72.3563 104.372 72.1675C104.322 71.2238 104.05 70.3051 103.578 69.4865C103.106 68.6679 102.447 67.9725 101.655 67.4572V67.4572Z" fill="#E8E8E8"/>
<path d="M97.3736 64.0161C98.7119 64.8714 99.7471 66.1261 100.333 67.6025C100.546 67.6675 100.751 67.7577 100.943 67.871C101.735 68.3863 102.395 69.0816 102.867 69.9003C103.339 70.7189 103.611 71.6375 103.66 72.5813C103.661 72.7701 103.644 72.9586 103.611 73.1445C103.607 73.171 103.598 73.1966 103.594 73.2272C103.546 73.4484 103.465 73.6611 103.354 73.8583C103.341 73.8798 103.325 73.8971 103.313 73.9185C102.84 74.6042 101.945 74.7387 100.922 74.148L93.1106 69.6197C92.6571 69.2845 92.2831 68.8535 92.0153 68.3572C91.7474 67.861 91.5923 67.3118 91.561 66.7487C91.5641 65.6528 92.3407 65.2124 93.2926 65.762C93.4979 65.8823 93.6878 66.027 93.8582 66.193C93.8548 66.1357 93.8549 66.0826 93.8551 66.0274C93.8614 63.7966 95.4359 62.8973 97.3736 64.0161Z" fill="white"/>
<g opacity="0.2">
<path opacity="0.2" d="M104.153 123.651C104.321 123.708 104.468 123.816 104.573 123.96C104.677 124.104 104.734 124.278 104.735 124.456C104.736 124.634 104.681 124.807 104.578 124.953C104.476 125.098 104.33 125.208 104.162 125.266C103.73 125.487 103.251 125.603 102.765 125.604C102.28 125.604 101.801 125.49 101.368 125.27L84.3848 115.464C84.2157 115.407 84.0686 115.299 83.9644 115.154C83.8601 115.009 83.8039 114.835 83.8036 114.656C83.8033 114.478 83.8589 114.304 83.9627 114.158C84.0665 114.013 84.2132 113.904 84.3821 113.846C84.8138 113.626 85.2914 113.512 85.7758 113.512C86.2603 113.512 86.7378 113.626 87.1695 113.846L104.153 123.651Z" fill="#003067"/>
</g>
<path d="M96.312 114.636L98.468 113.383L99.524 115.214L97.368 116.467L96.312 114.636Z" fill="#0078D4"/>
<path d="M98.4755 110.734C97.8289 111.092 97.8255 112.281 98.468 113.383C98.1087 113.592 97.7493 113.8 97.39 114.009C97.1146 114.169 96.8392 114.329 96.5638 114.489L96.3119 114.636C95.6695 113.534 95.6728 112.345 96.3195 111.987C96.9663 111.611 97.8287 111.11 98.4755 110.734Z" fill="#0078D4"/>
<path d="M92.8624 110.17C88.4969 107.649 84.9538 101.512 84.968 96.4962C84.9751 94.0043 85.8588 92.2487 87.2818 91.4219L85.1255 92.6749C83.7028 93.5016 82.819 95.2572 82.8119 97.7492C82.7977 102.765 86.3411 108.902 90.7061 111.423C92.9031 112.691 94.8976 112.806 96.3387 111.969L98.4949 110.716C97.0536 111.553 95.0593 111.438 92.8624 110.17Z" fill="#1F56A3"/>
<path d="M96.3195 111.988L98.4755 110.735C98.6604 110.652 98.8638 110.618 99.0655 110.639C99.2672 110.659 99.46 110.732 99.6246 110.85L97.4685 112.103C97.3039 111.985 97.1111 111.912 96.9094 111.892C96.7077 111.871 96.5043 111.905 96.3195 111.988V111.988Z" fill="#0078D4"/>
<path d="M98.614 113.312L100.77 112.059L101.832 113.898L99.676 115.151L98.614 113.312Z" fill="#0078D4"/>
<path d="M90.7516 93.2246C95.125 95.7496 98.6526 101.869 98.6383 106.894C98.6241 111.92 95.0734 113.943 90.7001 111.418C86.3267 108.893 82.791 102.778 82.8052 97.7531C82.8195 92.7277 86.3783 90.6997 90.7516 93.2246Z" fill="url(#paint1_linear)"/>
<path d="M97.4685 112.103L99.6246 110.85C100.104 111.148 100.498 111.565 100.771 112.059L98.6144 113.312C98.3422 112.818 97.9477 112.401 97.4685 112.103V112.103Z" fill="#0078D4"/>
<path d="M106.29 121.619L101.832 113.897C103.224 112.559 104.052 110.384 104.06 107.518C104.08 100.437 99.0867 91.7878 92.9245 88.23C89.8235 86.4397 87.0102 86.2755 84.9778 87.4567L82.8218 88.7097C84.854 87.5285 87.6675 87.6927 90.7685 89.483C96.9309 93.0408 101.924 101.69 101.904 108.771C101.896 111.637 101.068 113.812 99.6756 115.15L104.134 122.872C104.766 123.968 104.763 125.157 104.126 125.52L106.282 124.267C106.919 123.904 106.922 122.715 106.29 121.619Z" fill="#1F56A3"/>
<path d="M104.134 122.873L99.6757 115.151C101.068 113.813 101.896 111.638 101.904 108.772C101.924 101.691 96.9309 93.0417 90.7685 89.4839C84.6061 85.9261 79.58 88.7904 79.5599 95.8713C79.5397 102.952 84.5335 111.602 90.6957 115.159C93.1919 116.601 95.5018 116.988 97.368 116.468L101.821 124.19C102.095 124.686 102.491 125.104 102.972 125.403C103.137 125.522 103.331 125.595 103.534 125.616C103.736 125.637 103.94 125.604 104.126 125.521C104.763 125.158 104.766 123.969 104.134 122.873ZM90.7061 111.422C86.3411 108.902 82.7977 102.765 82.8119 97.749C82.8263 92.7328 86.3926 90.7004 90.7579 93.2207C95.1233 95.7411 98.6665 101.878 98.6523 106.894C98.638 111.91 95.0716 113.943 90.7061 111.422Z" fill="#0078D4"/>
<path d="M76.5599 114.649C76.7064 114.698 76.8337 114.792 76.9242 114.917C77.0148 115.042 77.0639 115.193 77.0648 115.347C77.0656 115.502 77.0182 115.653 76.9291 115.779C76.84 115.905 76.7137 116 76.5679 116.051L66.1082 122.13C65.7336 122.321 65.3188 122.421 64.898 122.421C64.4773 122.421 64.0625 122.321 63.6878 122.13L46.6516 112.294C45.9789 111.905 45.9699 111.277 46.6382 110.888L57.0978 104.81C57.4739 104.62 57.8896 104.521 58.3111 104.521C58.7326 104.522 59.148 104.622 59.5237 104.813L76.5599 114.649ZM64.8823 119.326L71.7177 115.353L58.3238 107.62L51.4884 111.593L64.8823 119.326Z" fill="white"/>
<path d="M71.718 115.354L64.882 119.326L51.488 111.593L58.324 107.621L71.718 115.354Z" fill="#50E6FF"/>
<path d="M76.5678 116.052L66.1082 122.13C65.7335 122.322 65.3187 122.422 64.898 122.422C64.4772 122.422 64.0624 122.322 63.6877 122.13L46.6515 112.295C46.511 112.232 46.3897 112.133 46.3001 112.008C46.2105 111.884 46.1559 111.737 46.1418 111.584L46.1378 112.981C46.1519 113.134 46.2065 113.28 46.2961 113.405C46.3857 113.53 46.507 113.629 46.6475 113.691L63.6837 123.527C64.0584 123.718 64.4732 123.818 64.8939 123.818C65.3147 123.818 65.7295 123.718 66.1042 123.527L76.5638 117.448C76.7008 117.387 76.8189 117.29 76.9062 117.167C76.9935 117.045 77.0468 116.902 77.0607 116.752L77.0647 115.356C77.0508 115.505 76.9975 115.648 76.9102 115.771C76.8229 115.893 76.7048 115.99 76.5678 116.052V116.052Z" fill="#E8E8E8"/>
<path d="M105.12 131.139C105.266 131.188 105.393 131.282 105.484 131.407C105.574 131.532 105.624 131.682 105.624 131.837C105.625 131.991 105.578 132.142 105.489 132.268C105.4 132.395 105.273 132.49 105.127 132.541L94.6679 138.619C94.2932 138.811 93.8784 138.91 93.4577 138.91C93.0369 138.91 92.6222 138.811 92.2475 138.619L69.0147 125.206C68.342 124.817 68.333 124.189 69.0014 123.801L79.461 117.722C79.8371 117.532 80.2528 117.433 80.6743 117.434C81.0958 117.434 81.5112 117.534 81.8868 117.725L105.12 131.139ZM94.6158 133.232C94.8033 133.327 95.0106 133.377 95.2209 133.377C95.4311 133.377 95.6384 133.327 95.826 133.232C95.8991 133.207 95.9626 133.16 96.0073 133.096C96.0521 133.033 96.0759 132.958 96.0755 132.88C96.075 132.803 96.0503 132.728 96.0049 132.665C95.9594 132.602 95.8954 132.556 95.822 132.531L78.9771 122.806C78.7898 122.71 78.5824 122.66 78.372 122.66C78.1617 122.66 77.9543 122.71 77.7669 122.806C77.6942 122.832 77.6314 122.879 77.587 122.942C77.5427 123.005 77.5191 123.081 77.5195 123.158C77.52 123.235 77.5444 123.31 77.5895 123.373C77.6345 123.435 77.698 123.482 77.7709 123.507L94.6158 133.232ZM82.1558 120.959C81.9682 120.864 81.7609 120.814 81.5507 120.814C81.3404 120.814 81.1331 120.864 80.9456 120.959C80.8724 120.984 80.809 121.031 80.7642 121.095C80.7195 121.158 80.6956 121.233 80.6961 121.311C80.6965 121.388 80.7212 121.463 80.7667 121.526C80.8122 121.589 80.8761 121.635 80.9496 121.66L96.3013 130.523C96.4884 130.619 96.6959 130.67 96.9064 130.67C97.1169 130.67 97.3244 130.619 97.5115 130.523C97.5847 130.498 97.6481 130.45 97.6929 130.387C97.7376 130.324 97.7614 130.248 97.761 130.171C97.7606 130.094 97.7359 130.018 97.6904 129.956C97.6449 129.893 97.581 129.846 97.5075 129.822L82.1558 120.959V120.959ZM88.708 133.498C88.8954 133.593 89.1027 133.643 89.3131 133.643C89.5235 133.643 89.7309 133.593 89.9182 133.498C89.9909 133.472 90.0538 133.424 90.0981 133.361C90.1425 133.298 90.1661 133.223 90.1656 133.146C90.1652 133.069 90.1407 132.993 90.0957 132.931C90.0506 132.868 89.9872 132.821 89.9142 132.797L75.804 124.65C75.6164 124.555 75.4091 124.505 75.1989 124.505C74.9886 124.505 74.7813 124.555 74.5938 124.65C74.5206 124.675 74.4572 124.723 74.4124 124.786C74.3677 124.849 74.3438 124.925 74.3443 125.002C74.3447 125.079 74.3694 125.155 74.4149 125.217C74.4604 125.28 74.5243 125.327 74.5978 125.351L88.708 133.498Z" fill="white"/>
<path d="M97.5076 129.822C97.581 129.847 97.645 129.893 97.6905 129.956C97.7359 130.019 97.7606 130.094 97.7611 130.171C97.7615 130.249 97.7377 130.324 97.6929 130.387C97.6482 130.451 97.5848 130.498 97.5116 130.523C97.3245 130.62 97.117 130.67 96.9065 130.67C96.696 130.67 96.4885 130.62 96.3014 130.523L80.9496 121.66C80.8762 121.636 80.8122 121.589 80.7668 121.526C80.7213 121.464 80.6966 121.388 80.6962 121.311C80.6957 121.233 80.7196 121.158 80.7643 121.095C80.8091 121.032 80.8725 120.984 80.9457 120.959C81.1332 120.864 81.3405 120.814 81.5508 120.814C81.761 120.814 81.9683 120.864 82.1559 120.959L97.5076 129.822Z" fill="#C3F1FF"/>
<path d="M95.822 132.531C95.8955 132.556 95.9594 132.602 96.0049 132.665C96.0504 132.728 96.0751 132.803 96.0755 132.88C96.0759 132.958 96.0521 133.033 96.0074 133.096C95.9626 133.159 95.8992 133.207 95.826 133.232C95.6385 133.327 95.4312 133.377 95.2209 133.377C95.0107 133.377 94.8034 133.327 94.6158 133.232L77.7709 123.507C77.6979 123.482 77.6345 123.435 77.5895 123.372C77.5444 123.31 77.52 123.235 77.5195 123.158C77.5191 123.081 77.5427 123.005 77.587 122.942C77.6314 122.879 77.6942 122.831 77.7669 122.806C77.9543 122.71 78.1616 122.66 78.372 122.66C78.5824 122.66 78.7898 122.71 78.9771 122.806L95.822 132.531Z" fill="#C3F1FF"/>
<path d="M89.9143 132.797C89.9872 132.822 90.0507 132.869 90.0957 132.931C90.1408 132.994 90.1652 133.069 90.1657 133.146C90.1661 133.223 90.1425 133.298 90.0982 133.361C90.0538 133.425 89.9909 133.472 89.9183 133.498C89.7309 133.594 89.5235 133.644 89.3132 133.644C89.1028 133.644 88.8954 133.594 88.7081 133.498L74.5977 125.351C74.5243 125.327 74.4603 125.28 74.4149 125.218C74.3694 125.155 74.3447 125.08 74.3442 125.002C74.3438 124.925 74.3676 124.849 74.4124 124.786C74.4571 124.723 74.5206 124.676 74.5937 124.65C74.7813 124.555 74.9886 124.506 75.1988 124.506C75.4091 124.506 75.6164 124.555 75.8039 124.65L89.9143 132.797Z" fill="#C3F1FF"/>
<path d="M105.128 132.542L94.6678 138.62C94.2932 138.811 93.8784 138.911 93.4577 138.911C93.0369 138.911 92.6222 138.812 92.2476 138.62L69.0147 125.207C68.8742 125.144 68.7529 125.046 68.6633 124.921C68.5737 124.796 68.5191 124.649 68.5051 124.496L68.5011 125.893C68.5152 126.046 68.5698 126.192 68.6594 126.317C68.749 126.442 68.8703 126.541 69.0107 126.603L92.2435 140.017C92.6182 140.208 93.0329 140.308 93.4537 140.308C93.8744 140.308 94.2892 140.208 94.6638 140.017L105.124 133.938C105.26 133.876 105.379 133.779 105.466 133.657C105.553 133.535 105.606 133.391 105.62 133.242L105.624 131.845C105.61 131.995 105.557 132.138 105.47 132.26C105.383 132.383 105.264 132.48 105.128 132.542V132.542Z" fill="#E8E8E8"/>
<path d="M59.9196 125.759C59.9929 125.785 60.0565 125.832 60.1014 125.895C60.1463 125.959 60.1704 126.034 60.1703 126.112C60.1701 126.19 60.1457 126.265 60.1005 126.328C60.0553 126.391 59.9915 126.438 59.9181 126.464C59.7305 126.558 59.5232 126.608 59.313 126.608C59.1027 126.608 58.8954 126.558 58.7079 126.464L43.3561 117.6C43.2832 117.575 43.2197 117.528 43.1747 117.466C43.1296 117.403 43.1052 117.328 43.1047 117.251C43.1043 117.174 43.1279 117.099 43.1722 117.036C43.2166 116.973 43.2794 116.925 43.3521 116.899C43.5402 116.803 43.7483 116.753 43.9596 116.752C44.1708 116.751 44.3792 116.801 44.5678 116.896L59.9196 125.759Z" fill="#1F56A3"/>
<path d="M58.234 128.467C58.307 128.492 58.3704 128.539 58.4154 128.602C58.4605 128.664 58.4849 128.739 58.4854 128.817C58.4858 128.894 58.4622 128.969 58.4179 129.032C58.3736 129.095 58.3107 129.143 58.238 129.168C58.0506 129.264 57.8433 129.314 57.6329 129.314C57.4225 129.314 57.2151 129.264 57.0278 129.168L40.1829 119.443C40.1095 119.419 40.0455 119.372 40.0001 119.309C39.9546 119.247 39.9299 119.171 39.9294 119.094C39.929 119.017 39.9528 118.941 39.9976 118.878C40.0423 118.815 40.1058 118.767 40.1789 118.742C40.3665 118.647 40.5738 118.598 40.784 118.598C40.9943 118.598 41.2016 118.647 41.3891 118.742L58.234 128.467Z" fill="#1F56A3"/>
<path d="M67.5262 127.077C67.673 127.126 67.8009 127.22 67.8918 127.345C67.9827 127.47 68.0321 127.621 68.033 127.776C68.0338 127.93 67.9862 128.081 67.8967 128.208C67.8072 128.334 67.6804 128.429 67.5341 128.479L57.0799 134.555C56.7045 134.747 56.289 134.847 55.8674 134.848C55.4457 134.848 55.03 134.749 54.6541 134.558L31.4213 121.144C31.2743 121.095 31.1464 121.001 31.0555 120.875C30.9646 120.749 30.9153 120.598 30.9144 120.443C30.9136 120.288 30.9612 120.136 31.0506 120.01C31.1401 119.883 31.2669 119.787 31.4134 119.736L41.8675 113.661C42.2434 113.47 42.6592 113.371 43.0808 113.371C43.5025 113.372 43.918 113.472 44.2934 113.664L67.5262 127.077ZM57.0277 129.168C57.2151 129.264 57.4225 129.313 57.6329 129.313C57.8433 129.313 58.0506 129.264 58.238 129.168C58.3107 129.142 58.3736 129.094 58.4179 129.031C58.4622 128.968 58.4858 128.893 58.4854 128.816C58.4849 128.739 58.4605 128.664 58.4154 128.601C58.3704 128.539 58.307 128.492 58.234 128.467L41.3892 118.741C41.2016 118.646 40.9943 118.597 40.7841 118.597C40.5738 118.597 40.3665 118.646 40.1789 118.741C40.1058 118.767 40.0424 118.814 39.9976 118.877C39.9528 118.94 39.929 119.016 39.9294 119.093C39.9299 119.171 39.9546 119.246 40 119.309C40.0455 119.371 40.1094 119.418 40.1829 119.442L57.0277 129.168H57.0277ZM44.5678 116.894C44.3793 116.799 44.1709 116.75 43.9596 116.75C43.7483 116.751 43.5402 116.801 43.3521 116.897C43.2795 116.923 43.2166 116.971 43.1722 117.034C43.1279 117.097 43.1043 117.172 43.1047 117.249C43.1052 117.326 43.1296 117.401 43.1747 117.464C43.2197 117.527 43.2832 117.574 43.3561 117.598L58.7079 126.462C58.8955 126.557 59.1027 126.606 59.313 126.606C59.5232 126.606 59.7305 126.557 59.9181 126.462C59.9915 126.437 60.0553 126.389 60.1005 126.326C60.1457 126.263 60.1701 126.188 60.1703 126.11C60.1705 126.033 60.1464 125.957 60.1014 125.894C60.0565 125.83 59.9929 125.783 59.9196 125.758L44.5678 116.894L44.5678 116.894ZM51.1146 129.436C51.3022 129.531 51.5095 129.581 51.7197 129.581C51.9299 129.581 52.1372 129.531 52.3248 129.436C52.398 129.411 52.4614 129.363 52.5061 129.3C52.5509 129.237 52.5747 129.162 52.5743 129.084C52.5738 129.007 52.5492 128.932 52.5037 128.869C52.4582 128.806 52.3943 128.76 52.3208 128.735L38.2105 120.589C38.0232 120.493 37.8158 120.443 37.6054 120.443C37.395 120.443 37.1876 120.493 37.0003 120.589C36.9276 120.614 36.8647 120.662 36.8204 120.725C36.7761 120.788 36.7525 120.863 36.7529 120.941C36.7533 121.018 36.7778 121.093 36.8229 121.155C36.8679 121.218 36.9313 121.265 37.0043 121.29L51.1146 129.436" fill="white"/>
<path d="M52.3207 128.736C52.3942 128.76 52.4581 128.807 52.5036 128.869C52.5491 128.932 52.5738 129.007 52.5742 129.085C52.5747 129.162 52.5508 129.238 52.5061 129.301C52.4613 129.364 52.3979 129.411 52.3247 129.437C52.1372 129.532 51.9299 129.581 51.7196 129.581C51.5094 129.581 51.3021 129.532 51.1145 129.437L37.0042 121.29C36.9312 121.265 36.8678 121.218 36.8228 121.156C36.7777 121.093 36.7533 121.018 36.7528 120.941C36.7524 120.864 36.776 120.789 36.8203 120.725C36.8646 120.662 36.9275 120.615 37.0002 120.589C37.1875 120.493 37.3949 120.443 37.6053 120.443C37.8157 120.443 38.0231 120.493 38.2104 120.589L52.3207 128.736Z" fill="#1F56A3"/>
<path d="M67.5341 128.48L57.0799 134.555C56.7045 134.747 56.2889 134.847 55.8673 134.848C55.4457 134.848 55.0299 134.749 54.654 134.558L31.4212 121.145C31.2812 121.082 31.1604 120.984 31.0713 120.859C30.9822 120.734 30.928 120.588 30.9144 120.436L30.9104 121.832C30.924 121.985 30.9782 122.131 31.0673 122.256C31.1564 122.38 31.2772 122.479 31.4172 122.541L54.65 135.955C55.0259 136.146 55.4417 136.245 55.8633 136.244C56.2849 136.244 56.7004 136.143 57.0758 135.951L67.5301 129.876C67.6674 129.815 67.7858 129.718 67.8735 129.595C67.9611 129.473 68.0148 129.33 68.029 129.18L68.033 127.783C68.0187 127.933 67.9651 128.077 67.8774 128.199C67.7898 128.321 67.6713 128.418 67.5341 128.48V128.48Z" fill="#E8E8E8"/>
<path d="M89.8893 139.99C90.0362 140.039 90.1641 140.132 90.255 140.258C90.3459 140.383 90.3953 140.534 90.3962 140.688C90.397 140.843 90.3493 140.994 90.2598 141.12C90.1703 141.247 90.0435 141.342 89.8971 141.392L79.443 147.467C79.0676 147.659 78.6521 147.76 78.2304 147.76C77.8088 147.761 77.393 147.662 77.0172 147.471L59.9809 137.635C59.8338 137.585 59.7059 137.491 59.6151 137.365C59.5242 137.239 59.4749 137.088 59.474 136.933C59.4731 136.778 59.5208 136.627 59.6102 136.5C59.6997 136.373 59.8265 136.278 59.973 136.226L70.4271 130.151C70.803 129.96 71.2188 129.861 71.6404 129.861C72.062 129.862 72.4776 129.962 72.853 130.154L89.8893 139.99ZM78.217 144.663L85.0523 140.691L71.6585 132.958L64.8231 136.93L78.217 144.663Z" fill="white"/>
<path d="M85.052 140.69L78.217 144.662L64.823 136.929L71.659 132.957L85.052 140.69Z" fill="#0078D4"/>
<path d="M89.8971 141.392L79.4431 147.467C79.0677 147.659 78.6522 147.76 78.2305 147.76C77.8089 147.761 77.3931 147.662 77.0172 147.471L59.9809 137.635C59.8409 137.572 59.7201 137.474 59.631 137.349C59.5419 137.225 59.4877 137.078 59.4741 136.926L59.4701 138.322C59.4837 138.475 59.5379 138.621 59.627 138.746C59.7161 138.87 59.8369 138.969 59.9769 139.031L77.0132 148.867C77.3891 149.058 77.8049 149.157 78.2265 149.157C78.6482 149.156 79.0637 149.056 79.4391 148.864L89.8931 142.789C90.0304 142.727 90.1489 142.63 90.2366 142.508C90.3243 142.386 90.3779 142.242 90.3921 142.093L90.3961 140.696C90.3819 140.846 90.3283 140.989 90.2406 141.111C90.1529 141.234 90.0344 141.331 89.8971 141.392V141.392Z" fill="#E8E8E8"/>
</g>
<defs>
<linearGradient id="paint0_linear" x1="79.6785" y1="8.2793" x2="79.6785" y2="179.694" gradientUnits="userSpaceOnUse">
<stop stop-color="#00ABDE"/>
<stop offset="1" stop-color="#007ED8"/>
</linearGradient>
<linearGradient id="paint1_linear" x1="90.7218" y1="112.505" x2="90.7218" y2="92.1387" gradientUnits="userSpaceOnUse">
<stop stop-color="white" stop-opacity="0.2"/>
<stop offset="1" stop-color="white" stop-opacity="0"/>
</linearGradient>
<clipPath id="clip0">
<rect width="159.356" height="188" fill="white"/>
</clipPath>
</defs>
</svg>
