<svg width="160" height="188" viewBox="0 0 160 188" fill="none" xmlns="http://www.w3.org/2000/svg">
<g clip-path="url(#clip0)">
<path d="M79.6779 188C82.7592 187.994 85.7796 187.141 88.4083 185.534L150.384 147.874C153.165 146.11 155.449 143.665 157.019 140.771C158.589 137.876 159.394 134.628 159.356 131.336V56.6207C159.392 53.3283 158.587 50.0812 157.017 47.1871C155.447 44.2929 153.163 41.8476 150.384 40.0829L88.4083 2.4228C85.7749 0.837605 82.7592 0 79.6855 0C76.6118 0 73.5961 0.837605 70.9627 2.4228L8.9876 40.098C6.2045 41.8604 3.91796 44.3048 2.34499 47.1991C0.772021 50.0935 -0.0351786 53.3418 4.1431e-06 56.6358V131.336C-0.0185283 134.119 0.556189 136.874 1.68588 139.418C2.81557 141.962 4.4743 144.236 6.5516 146.089V146.115L70.9627 185.549C73.5884 187.149 76.6032 187.996 79.6779 188V188ZM80.3257 6.95218C82.2776 6.95218 84.7548 8.1651 86.4646 9.20912L147.222 46.4034C150.974 48.6881 153.09 55.2842 153.09 60.0352L152.458 131.336C152.458 136.087 149.259 140.355 145.506 142.64L85.1104 179.021C81.6758 181.109 78.8854 181.109 75.4507 179.021L14.2427 142.549C10.4903 140.265 7.47191 136.072 7.47191 131.336V57.688C7.50442 55.3228 8.11341 53.0013 9.24608 50.9247C10.3787 48.8482 12.0009 47.0792 13.9718 45.7714L74.548 9.20912C76.2577 8.1651 78.3739 6.95218 80.3257 6.95218Z" fill="#F2F1F0"/>
<path fill-rule="evenodd" clip-rule="evenodd" d="M87.5765 10.5337C85.2056 9.0602 82.4697 8.2793 79.6783 8.2793C76.8868 8.2793 74.1509 9.0602 71.7801 10.5337L15.6454 44.8651C13.1193 46.4768 11.047 48.7072 9.625 51.3446C8.203 53.9821 7.47851 56.9392 7.52026 59.9352V128.038C7.48034 131.034 8.20562 133.991 9.62745 136.628C11.0493 139.265 13.1206 141.495 15.6454 143.108L71.7801 177.439C74.1508 178.913 76.8867 179.694 79.6783 179.694C82.4698 179.694 85.2057 178.913 87.5765 177.439L143.711 143.108C146.236 141.496 148.307 139.265 149.729 136.628C151.151 133.991 151.877 131.034 151.837 128.038V59.9352C151.875 56.9397 151.149 53.9839 149.727 51.347C148.305 48.7101 146.234 46.4793 143.711 44.8651L87.5765 10.5337Z" fill="url(#paint0_linear)"/>
<path fill-rule="evenodd" clip-rule="evenodd" d="M79.6783 9.7539C81.3615 9.7539 83.2442 10.6196 85.311 11.8777L143.777 47.4201C145.668 48.6335 147.218 50.3104 148.278 52.2914C149.339 54.2725 149.875 56.4918 149.837 58.7386V129.217C149.875 131.464 149.339 133.683 148.278 135.664C147.218 137.645 145.668 139.322 143.777 140.535L85.312 176.077L85.311 176.078C83.6408 177.217 81.6958 177.888 79.6783 178.021C77.6609 177.888 75.7158 177.217 74.0456 176.078L74.0446 176.077L15.5823 140.537L15.5801 140.536C13.7918 139.572 12.2668 138.185 11.1383 136.496C10.1614 134.893 9.52031 132.678 9.52031 129.217V58.7386C9.48157 56.4919 10.018 54.2726 11.0785 52.2916C12.139 50.3106 13.6885 48.6336 15.5797 47.4202L74.0365 11.8831L74.0406 11.8807C76.1244 10.6277 77.9846 9.7539 79.6783 9.7539ZM87.3908 8.4609L145.855 44.0021C148.333 45.5722 150.368 47.751 151.765 50.3307C153.162 52.9104 153.876 55.8051 153.837 58.7386V129.217C153.876 132.151 153.162 135.045 151.765 137.625C150.368 140.205 148.333 142.384 145.855 143.954L87.3898 179.495C85.0956 181.02 82.4302 181.893 79.6783 182.021C76.9264 181.893 74.261 181.02 71.9667 179.495H71.9658L13.502 143.953L13.4995 143.952C11.1642 142.659 9.18097 140.814 7.72281 138.578C6.12823 135.725 5.36521 132.482 5.52031 129.217V58.7386C5.48125 55.805 6.19436 52.9103 7.59165 50.3305C8.98894 47.7508 11.0238 45.572 13.5022 44.002L71.9667 8.46025L71.9749 8.45537C74.0655 7.19796 76.7734 5.75391 79.6783 5.75391C82.5645 5.75391 85.2816 7.17699 87.3908 8.46085V8.4609Z" fill="#0078D4"/>
<path opacity="0.2" d="M139.887 131.926L80.3369 166.533L20.3979 131.927L79.9479 97.3203L139.887 131.926Z" fill="#003067"/>
<path d="M140.532 120.547L79.81 155.835L18.698 120.552L79.42 85.2637L140.532 120.547Z" fill="#1B93EB"/>
<path d="M140.532 120.547L140.52 124.653L79.798 159.941L79.81 155.835L140.532 120.547Z" fill="#1F56A3"/>
<path d="M79.81 155.834L79.798 159.94L18.686 124.657L18.698 120.551L79.81 155.834Z" fill="#0078D4"/>
<path d="M81.1872 92.343C81.3381 92.3941 81.4694 92.4909 81.5626 92.6201C81.6559 92.7493 81.7065 92.9044 81.7074 93.0638C81.7083 93.2231 81.6594 93.3788 81.5676 93.509C81.4758 93.6392 81.3457 93.7376 81.1953 93.7903C80.8079 93.9895 80.3786 94.0937 79.943 94.0944C79.5073 94.0951 79.0777 93.9923 78.6896 93.7944C77.9815 93.3856 77.978 92.7478 78.6745 92.3431C79.0635 92.1445 79.494 92.041 79.9308 92.041C80.3676 92.041 80.7981 92.1445 81.1872 92.343V92.343Z" fill="#50E6FF"/>
<path d="M81.5312 92.4875C81.6821 92.5386 81.8134 92.6355 81.9066 92.7647C81.9999 92.8939 82.0505 93.049 82.0514 93.2083C82.0523 93.3676 82.0034 93.5233 81.9116 93.6535C81.8198 93.7838 81.6897 93.8821 81.5393 93.9349C81.1519 94.134 80.7226 94.2383 80.287 94.239C79.8513 94.2397 79.4217 94.1369 79.0336 93.939C78.3255 93.5301 78.322 92.8924 79.0185 92.4876C79.4075 92.2891 79.838 92.1856 80.2748 92.1855C80.7116 92.1855 81.1421 92.289 81.5312 92.4875V92.4875Z" fill="#50E6FF"/>
<path d="M127.926 117.626C128.013 117.656 128.088 117.712 128.142 117.786C128.195 117.861 128.224 117.95 128.225 118.042C128.225 118.133 128.197 118.223 128.145 118.298C128.092 118.373 128.017 118.43 127.931 118.46L123.52 121.024L74.0138 92.4418L78.1013 90.0664L78.4249 89.8783C78.6478 89.7645 78.8946 89.7051 79.1449 89.7051C79.3952 89.7051 79.6419 89.7645 79.8648 89.8783L127.926 117.626ZM79.0336 93.9381C79.4217 94.136 79.8513 94.2388 80.2869 94.2381C80.7226 94.2374 81.1518 94.1332 81.5393 93.934C81.6896 93.8813 81.8198 93.7829 81.9116 93.6527C82.0034 93.5225 82.0522 93.3668 82.0513 93.2075C82.0504 93.0481 81.9998 92.893 81.9066 92.7638C81.8133 92.6346 81.682 92.5378 81.5311 92.4867C81.1421 92.2882 80.7115 92.1847 80.2747 92.1847C79.838 92.1847 79.4074 92.2882 79.0184 92.4867C78.3219 92.8915 78.3254 93.5292 79.0336 93.9381" fill="#0078D4"/>
<path d="M127.931 118.461L123.519 121.024L123.512 123.737L127.923 121.173C128.004 121.136 128.074 121.079 128.126 121.006C128.178 120.933 128.209 120.848 128.217 120.759L128.225 118.047C128.217 118.136 128.185 118.221 128.134 118.294C128.082 118.366 128.012 118.424 127.931 118.461Z" fill="#1F56A3"/>
<path d="M90.6715 140.114C90.3804 140.262 90.0588 140.338 89.7327 140.338C89.4065 140.338 89.085 140.262 88.7939 140.114L41.1719 112.62C41.064 112.572 40.9711 112.495 40.9026 112.399C40.8341 112.303 40.7927 112.19 40.7825 112.072L40.7747 114.785C40.7849 114.902 40.8264 115.015 40.8949 115.111C40.9634 115.208 41.0564 115.284 41.1642 115.332L88.7863 142.827C89.0774 142.974 89.399 143.051 89.7252 143.051C90.0513 143.051 90.3729 142.974 90.6639 142.827L123.512 123.738L123.519 121.025L90.6715 140.114Z" fill="#E8E8E8"/>
<path d="M74.0138 92.4434L123.52 121.025L90.6716 140.115C90.3805 140.262 90.059 140.338 89.7328 140.338C89.4067 140.338 89.0851 140.262 88.794 140.115L41.1719 112.62C41.0588 112.581 40.9606 112.508 40.8908 112.411C40.821 112.314 40.7831 112.198 40.7825 112.078C40.7818 111.959 40.8184 111.842 40.8871 111.744C40.9558 111.646 41.0533 111.572 41.1659 111.532L74.0138 92.4434Z" fill="#F2F2F2"/>
<path d="M47.0813 112.566C46.977 112.53 46.8865 112.462 46.8224 112.373C46.7583 112.283 46.7238 112.175 46.7236 112.065C46.7235 111.955 46.7577 111.847 46.8216 111.757C46.8854 111.667 46.9757 111.6 47.0799 111.563L73.1544 96.4111C73.4224 96.2748 73.7187 96.2036 74.0194 96.2031C74.32 96.2027 74.6166 96.2731 74.885 96.4087L116.668 120.532C116.772 120.568 116.862 120.636 116.926 120.725C116.991 120.815 117.025 120.923 117.025 121.033C117.025 121.143 116.991 121.251 116.927 121.341C116.863 121.431 116.773 121.498 116.669 121.535L90.5955 136.687C90.3275 136.823 90.0311 136.895 89.7305 136.895C89.4298 136.895 89.1332 136.825 88.8648 136.689L47.0813 112.566Z" fill="#E8E8E8"/>
<path d="M76.398 106.724L76.3927 108.564C76.3965 107.242 75.5253 105.917 73.7809 104.91C71.8401 103.924 69.6939 103.41 67.5168 103.41C65.3398 103.41 63.1935 103.924 61.2527 104.91C59.544 105.903 58.689 107.206 58.6853 108.511L58.6905 106.671C58.6942 105.366 59.5492 104.064 61.2579 103.071C63.1987 102.084 65.345 101.57 67.522 101.57C69.6991 101.57 71.8454 102.084 73.7862 103.071C75.5305 104.078 76.4017 105.402 76.398 106.724Z" fill="#1F56A3"/>
<path d="M80.0122 106.735L80.007 108.575C80.0018 110.411 78.7951 112.245 76.3834 113.646C71.5311 116.466 63.6356 116.465 58.7514 113.645C56.2937 112.226 55.0662 110.363 55.0714 108.504L55.0766 106.664C55.0714 108.524 56.2989 110.386 58.7566 111.805C63.6407 114.625 71.5362 114.627 76.3886 111.807C78.8003 110.405 80.007 108.572 80.0122 106.735Z" fill="#1F56A3"/>
<path opacity="0.2" d="M76.3312 106.591C71.447 103.771 63.5545 103.771 58.6992 106.593C53.8468 109.413 53.8725 113.985 58.7567 116.804C60.9022 117.969 63.2728 118.66 65.7082 118.83L65.719 121.252C64.7761 121.6 64.1448 122.21 64.1516 122.907L64.1668 125.629C64.1971 125.927 64.3053 126.212 64.4806 126.456C64.6559 126.699 64.8921 126.892 65.1655 127.015C65.9027 127.409 66.7286 127.607 67.5642 127.59C69.431 127.59 70.9426 126.712 70.9365 125.631L70.9211 122.909C70.8908 122.611 70.7826 122.326 70.6076 122.083C70.4325 121.84 70.1966 121.648 69.9236 121.525C69.7347 121.417 69.5368 121.326 69.3321 121.252L69.3186 118.842C71.7958 118.688 74.2091 117.993 76.3886 116.806C81.2439 113.984 81.2153 109.411 76.3312 106.591Z" fill="#003067"/>
<path d="M76.3312 101.591C81.2153 104.411 81.2439 108.984 76.3887 111.806C71.5363 114.626 63.6408 114.624 58.7567 111.804C53.8725 108.985 53.8468 104.413 58.6992 101.593C63.5545 98.7714 71.4471 98.7714 76.3312 101.591ZM61.3017 110.325C63.2419 111.312 65.3876 111.826 67.5642 111.827C69.7408 111.827 71.8866 111.313 73.827 110.327C77.2709 108.326 77.2526 105.072 73.7862 103.07C71.8454 102.084 69.6991 101.57 67.5221 101.57C65.3451 101.57 63.1988 102.084 61.258 103.07C57.817 105.07 57.8381 108.326 61.3017 110.325Z" fill="#1B93EB"/>
<path d="M73.7862 103.07C77.2526 105.071 77.271 108.325 73.8299 110.325C71.8893 111.312 69.7429 111.826 67.5658 111.826C65.3887 111.826 63.2424 111.312 61.3017 110.325C57.8381 108.326 57.8198 105.071 61.2637 103.07C63.2036 102.084 65.3489 101.57 67.525 101.57C69.701 101.57 71.8463 102.084 73.7862 103.07V103.07Z" fill="url(#paint1_linear)"/>
<path d="M64.167 120.629L64.162 122.469L64.146 119.747L64.152 117.908L64.167 120.629Z" fill="#A3A3A3"/>
<path d="M68.7841 113.084C68.9298 113.15 69.0559 113.252 69.1496 113.382C69.2434 113.512 69.3016 113.664 69.3185 113.823L69.3322 116.252C69.5369 116.325 69.7348 116.417 69.9236 116.525C70.1966 116.648 70.4325 116.84 70.6076 117.083C70.7827 117.326 70.8908 117.611 70.9212 117.909L70.9365 120.63C70.9426 121.712 69.431 122.59 67.5641 122.59C66.7285 122.606 65.9027 122.408 65.1656 122.014C64.8922 121.891 64.656 121.698 64.4807 121.455C64.3054 121.212 64.1971 120.927 64.1669 120.629L64.1515 117.907C64.1448 117.21 64.7761 116.599 65.719 116.252L65.7082 113.824C65.705 113.245 66.5094 112.778 67.5089 112.778C67.9531 112.769 68.3922 112.874 68.7841 113.084Z" fill="#1B93EB"/>
<path d="M70.9364 120.631L70.9312 122.47C70.9373 123.551 69.4258 124.43 67.5589 124.43C66.7233 124.446 65.8975 124.248 65.1603 123.854C64.8869 123.731 64.6507 123.538 64.4754 123.295C64.3001 123.052 64.1919 122.767 64.1616 122.468L64.1668 120.629C64.1971 120.927 64.3053 121.212 64.4806 121.456C64.6559 121.699 64.8921 121.892 65.1655 122.015C65.9027 122.409 66.7285 122.607 67.5641 122.59C69.431 122.59 70.9425 121.712 70.9364 120.631Z" fill="#1F56A3"/>
<path d="M101.145 114.115L101.139 116.523L95.8051 119.622L95.812 117.214L101.145 114.115Z" fill="#50E6FF"/>
<path d="M86.7142 121.788L86.7211 119.38C86.7645 118.914 86.9307 118.468 87.2027 118.088C87.4747 117.707 87.8427 117.405 88.2693 117.214C89.4375 116.619 90.7298 116.309 92.0407 116.309C93.3516 116.309 94.644 116.619 95.8121 117.214L95.8053 119.622C94.6371 119.027 93.3448 118.717 92.0339 118.717C90.7229 118.717 89.4306 119.027 88.2624 119.622C87.8359 119.814 87.4679 120.115 87.1959 120.496C86.9239 120.876 86.7577 121.322 86.7142 121.788V121.788Z" fill="#32BEDD"/>
<path d="M97.3849 119.411L97.378 121.82C97.3354 121.347 97.1671 120.893 96.8906 120.507C96.6141 120.121 96.2394 119.816 95.8053 119.623L95.8121 117.215C96.2462 117.408 96.6209 117.713 96.8974 118.099C97.1739 118.485 97.3422 118.938 97.3849 119.411V119.411Z" fill="#1F56A3"/>
<path d="M104.954 119.436L104.947 121.844C104.942 123.744 103.693 125.641 101.198 127.091C98.3978 128.589 95.2597 129.343 92.0845 129.28L92.0913 126.871C95.2665 126.934 98.4046 126.181 101.205 124.683C103.7 123.233 104.949 121.336 104.954 119.436Z" fill="#1F56A3"/>
<path d="M101.145 114.115C106.2 117.034 106.227 121.764 101.205 124.683C98.4047 126.181 95.2665 126.935 92.0913 126.872L92.0704 122.488C93.3815 122.512 94.6769 122.2 95.833 121.582C97.9093 120.375 97.9021 118.421 95.8122 117.215L101.145 114.115Z" fill="#0078D4"/>
<path d="M92.0911 126.87L92.0841 129.279L92.0641 124.894L92.0701 122.486L92.0911 126.87Z" fill="#0078D4"/>
<path d="M79.145 121.77L79.1519 119.361C79.1464 121.286 80.4169 123.213 82.9606 124.682C85.7678 126.178 88.9109 126.932 92.0913 126.871L92.0845 129.279C88.9041 129.34 85.7609 128.586 82.9538 127.09C80.41 125.622 79.1396 123.694 79.145 121.77Z" fill="#32BEDD"/>
<path d="M101.145 114.115L95.8122 117.214C94.644 116.619 93.3517 116.309 92.0407 116.309C90.7298 116.309 89.4375 116.619 88.2693 117.214C86.193 118.421 86.2077 120.374 88.2976 121.581C89.4577 122.199 90.7562 122.511 92.0704 122.487L92.0913 126.871C88.9109 126.932 85.7678 126.179 82.9606 124.682C77.9056 121.764 77.879 117.033 82.9012 114.115C87.9233 111.196 96.0904 111.196 101.145 114.115Z" fill="#50E6FF"/>
<path d="M72.4036 101.345C70.9111 102.105 69.26 102.501 67.5852 102.501C65.9104 102.501 64.2594 102.104 62.767 101.344C62.7401 101.329 62.7179 101.312 62.6916 101.296C62.0232 101.091 61.3733 100.83 60.7485 100.516L60.7322 106.272C60.7868 106.878 61.0021 107.458 61.356 107.952C61.7099 108.446 62.1895 108.837 62.745 109.084C64.2374 109.844 65.8884 110.241 67.5632 110.241C69.238 110.241 70.8892 109.845 72.3818 109.085C72.9275 108.84 73.3982 108.454 73.7461 107.967C74.094 107.48 74.3065 106.909 74.362 106.313L74.3784 100.536C73.7669 100.842 73.1312 101.097 72.4778 101.298C72.452 101.313 72.43 101.33 72.4036 101.345Z" fill="#003067"/>
<path d="M73.8048 100.523C71.8751 101.505 69.7404 102.017 67.5751 102.017C65.4098 102.017 63.2753 101.504 61.3458 100.521C60.5809 100.104 59.9158 99.5258 59.3964 98.8262L59.3842 103.146C59.3808 104.361 60.1833 105.578 61.7893 106.505C63.5724 107.413 65.5451 107.887 67.5462 107.887C69.5474 107.888 71.5202 107.415 73.3036 106.507C73.9556 106.213 74.5181 105.752 74.9338 105.17C75.3494 104.588 75.6034 103.907 75.6697 103.195L75.6818 98.8937C75.1776 99.5627 74.538 100.118 73.8048 100.523Z" fill="#0078D4"/>
<path d="M76.8446 96.1328C76.8406 97.5055 75.9389 98.8761 74.1371 99.9231C72.0964 100.962 69.8389 101.503 67.549 101.503C65.2591 101.503 63.0017 100.961 60.9613 99.9213C59.1559 98.8789 58.243 97.5163 58.215 96.1501L58.2091 98.221C58.2053 99.6116 59.1236 101.004 60.9613 102.065C63.0017 103.105 65.2591 103.647 67.549 103.647C69.8389 103.647 72.0964 103.106 74.1371 102.067C75.9389 101.02 76.8407 99.6497 76.8446 98.277V96.1328Z" fill="#1F56A3"/>
<path d="M86.9856 73.0504C86.9868 69.9952 86.2682 66.9827 84.8878 64.2571C83.5075 61.5315 81.5043 59.1695 79.0407 57.3627C76.5771 55.5558 73.7224 54.3549 70.708 53.8573C67.6936 53.3597 64.6044 53.5794 61.6907 54.4986C58.7771 55.4179 56.1211 57.0107 53.938 59.1481C51.7549 61.2854 50.1062 63.9071 49.1255 66.8006C48.1448 69.6942 47.8598 72.778 48.2935 75.8023C48.7271 78.8265 49.8674 81.706 51.6217 84.2074C52.5553 85.7429 56.0282 88.722 56.6762 95.6417H56.6783C56.6913 96.502 56.9726 97.3368 57.4829 98.0295C58.1244 98.8936 58.9459 99.608 59.8907 100.123C60.0717 100.228 60.2636 100.322 60.4538 100.417C61.1061 100.745 61.7847 101.018 62.4825 101.232C65.8174 102.214 69.3647 102.215 72.6999 101.234C73.3822 101.024 74.0459 100.758 74.6843 100.438C74.886 100.337 75.0883 100.237 75.2798 100.126C76.1854 99.625 76.9753 98.9392 77.5981 98.1128C78.1404 97.3996 78.4355 96.5291 78.4389 95.6331H78.442C78.7307 91.5412 80.3325 87.6518 83.0092 84.5434C84.2274 83.2418 85.1826 81.7171 85.8225 80.0532C86.6204 77.8059 87.0141 75.435 86.9856 73.0504V73.0504Z" fill="url(#paint2_linear)"/>
<path d="M107.136 46.9952C107.462 47.1982 107.731 47.4799 107.919 47.8143C111.284 53.4348 116.503 57.9571 122.484 61.693C123.119 62.1248 123.647 62.697 124.026 63.3655C124.405 64.0339 124.624 64.7806 124.668 65.5477L124.639 75.9164C124.602 89.0391 119.59 94.6684 107.53 94.8258C107.343 94.8208 107.16 94.766 107.002 94.6669C106.802 94.5475 106.624 94.3953 106.475 94.2167C94.4549 80.1569 89.491 68.7679 89.5282 55.6452L89.5576 45.2765C89.5616 43.876 90.5325 43.3049 91.7515 43.9497C97.7391 47.1237 102.967 48.6331 106.347 46.9066C106.475 46.8536 106.615 46.834 106.753 46.8495C106.891 46.865 107.023 46.9151 107.136 46.9952V46.9952Z" fill="#0078D4"/>
<path d="M125.876 59.7213C119.895 55.9854 114.676 51.4631 111.311 45.8427C111.123 45.5082 110.854 45.2265 110.528 45.0236C110.415 44.9435 110.283 44.8934 110.145 44.8779C110.007 44.8624 109.867 44.882 109.739 44.9349C106.359 46.6615 101.131 45.1521 95.1436 41.9781C94.918 41.8289 94.6578 41.7403 94.3881 41.7209C94.1184 41.7014 93.8482 41.7518 93.6036 41.867L90.2117 43.8382C90.4563 43.7229 90.7265 43.6726 90.9962 43.6921C91.2659 43.7115 91.5261 43.8001 91.7517 43.9493C97.7392 47.1233 102.967 48.6327 106.347 46.9061C106.475 46.8532 106.615 46.8336 106.753 46.8491C106.891 46.8646 107.023 46.9147 107.136 46.9948C107.462 47.1977 107.731 47.4794 107.919 47.8138C111.284 53.4343 116.503 57.9566 122.484 61.6925C123.119 62.1243 123.647 62.6966 124.026 63.365C124.405 64.0335 124.624 64.7801 124.668 65.5472L124.639 75.916C124.615 84.41 122.506 89.7645 117.752 92.5277L121.144 90.5566C125.898 87.7933 128.007 82.4388 128.031 73.9448L128.06 63.5761C128.016 62.809 127.797 62.0623 127.418 61.3939C127.039 60.7254 126.511 60.1531 125.876 59.7213V59.7213Z" fill="#1F56A3"/>
<path d="M97.3333 64.5249L95.9951 65.3025C96.3654 65.1309 96.7748 65.0613 97.181 65.101C97.5872 65.1407 97.9754 65.2882 98.3055 65.5282C98.6916 65.7545 99.0489 66.0267 99.3695 66.3389L100.708 65.5613C100.387 65.2491 100.03 64.9768 99.6438 64.7506C99.3137 64.5105 98.9255 64.363 98.5193 64.3234C98.1131 64.2837 97.7036 64.3532 97.3333 64.5249V64.5249Z" fill="#E8E8E8"/>
<path d="M114.037 68.7176C113.675 68.5044 113.29 68.3348 112.888 68.2124C111.787 65.4349 109.839 63.0744 107.321 61.4653C105.489 60.4072 103.828 60.3086 102.629 61.0056L101.291 61.7832C102.49 61.0863 104.15 61.1848 105.983 62.243C108.501 63.852 110.448 66.2125 111.55 68.9901C111.951 69.1125 112.337 69.2821 112.699 69.4952C114.189 70.4647 115.429 71.7728 116.317 73.3128C117.206 74.8529 117.717 76.5812 117.81 78.3567C117.811 78.7119 117.78 79.0666 117.717 79.4161C117.71 79.4661 117.693 79.5142 117.686 79.5718C117.595 79.9879 117.443 80.3881 117.233 80.7592C117.21 80.7995 117.18 80.8321 117.156 80.8724C116.939 81.1932 116.653 81.4615 116.319 81.6578L117.658 80.8802C117.991 80.6838 118.277 80.4155 118.494 80.0948C118.518 80.0544 118.548 80.0218 118.572 79.9815C118.781 79.6104 118.933 79.2103 119.024 78.7942C119.031 78.7365 119.048 78.6885 119.055 78.6385C119.118 78.2889 119.15 77.9343 119.148 77.579C119.055 75.8036 118.544 74.0752 117.655 72.5352C116.767 70.9951 115.527 69.687 114.037 68.7176Z" fill="#E8E8E8"/>
<path d="M105.983 62.2445C108.501 63.8536 110.448 66.2141 111.55 68.9916C111.951 69.1141 112.337 69.2836 112.699 69.4969C114.189 70.4663 115.429 71.7744 116.317 73.3145C117.206 74.8545 117.717 76.5828 117.81 78.3583C117.811 78.7135 117.78 79.0682 117.717 79.4178C117.71 79.4678 117.693 79.5158 117.686 79.5734C117.595 79.9895 117.443 80.3897 117.233 80.7608C117.21 80.8011 117.18 80.8337 117.156 80.874C116.267 82.164 114.583 82.4169 112.658 81.3057L97.9631 72.7866C97.1099 72.1561 96.4063 71.3451 95.9024 70.4116C95.3985 69.478 95.1067 68.4448 95.0479 67.3855C95.0537 65.3238 96.5146 64.4951 98.3055 65.5291C98.6916 65.7554 99.0489 66.0276 99.3695 66.3399C99.3631 66.2322 99.3634 66.1322 99.3636 66.0283C99.3755 61.8317 102.338 60.1399 105.983 62.2445Z" fill="white"/>
<path opacity="0.3" d="M35.5623 123.263C37.4486 123.263 38.9777 122.522 38.9777 121.608C38.9777 120.694 37.4486 119.953 35.5623 119.953C33.6761 119.953 32.147 120.694 32.147 121.608C32.147 122.522 33.6761 123.263 35.5623 123.263Z" fill="#003067"/>
<path fill-rule="evenodd" clip-rule="evenodd" d="M36.7602 119.499C36.7602 120.141 36.5699 120.768 36.2135 121.301C35.8571 121.835 35.3505 122.251 34.7579 122.496C34.1652 122.742 33.513 122.806 32.8838 122.681C32.2546 122.555 31.6767 122.247 31.2231 121.793C30.7695 121.339 30.4605 120.761 30.3354 120.132C30.2102 119.503 30.2745 118.851 30.52 118.258C30.7655 117.665 31.1812 117.159 31.7146 116.802C32.248 116.446 32.8751 116.256 33.5166 116.256C34.3769 116.256 35.2019 116.598 35.8101 117.206C36.4184 117.814 36.7602 118.639 36.7602 119.499V119.499Z" fill="#C3F1FF"/>
<path fill-rule="evenodd" clip-rule="evenodd" d="M35.7751 117.461L35.7984 117.46C35.7872 117.449 35.7791 117.448 35.7751 117.461Z" fill="#7CB65A"/>
<path opacity="0.3" d="M44.2668 128.017C46.153 128.017 47.6821 127.276 47.6821 126.362C47.6821 125.448 46.153 124.707 44.2668 124.707C42.3805 124.707 40.8514 125.448 40.8514 126.362C40.8514 127.276 42.3805 128.017 44.2668 128.017Z" fill="#003067"/>
<path fill-rule="evenodd" clip-rule="evenodd" d="M45.4647 124.255C45.4647 124.897 45.2745 125.524 44.9181 126.057C44.5617 126.591 44.0551 127.006 43.4625 127.252C42.8698 127.497 42.2176 127.562 41.5884 127.436C40.9592 127.311 40.3813 127.002 39.9277 126.549C39.4741 126.095 39.1651 125.517 39.04 124.888C38.9148 124.259 38.9791 123.607 39.2246 123.014C39.4701 122.421 39.8858 121.915 40.4192 121.558C40.9526 121.202 41.5797 121.012 42.2212 121.012C43.0814 121.012 43.9064 121.353 44.5147 121.962C45.123 122.57 45.4647 123.395 45.4647 124.255V124.255Z" fill="#50E6FF"/>
<path fill-rule="evenodd" clip-rule="evenodd" d="M44.4797 122.215L44.5029 122.214C44.4918 122.203 44.4837 122.202 44.4797 122.215Z" fill="#7CB65A"/>
<path opacity="0.3" d="M52.9714 132.772C54.8576 132.772 56.3867 132.032 56.3867 131.118C56.3867 130.204 54.8576 129.463 52.9714 129.463C51.0851 129.463 49.556 130.204 49.556 131.118C49.556 132.032 51.0851 132.772 52.9714 132.772Z" fill="#003067"/>
<path fill-rule="evenodd" clip-rule="evenodd" d="M54.1692 129.009C54.1692 129.651 53.979 130.278 53.6226 130.811C53.2662 131.345 52.7596 131.76 52.1669 132.006C51.5742 132.251 50.9221 132.316 50.2929 132.19C49.6637 132.065 49.0858 131.756 48.6321 131.303C48.1785 130.849 47.8696 130.271 47.7445 129.642C47.6193 129.013 47.6835 128.361 47.929 127.768C48.1745 127.175 48.5903 126.669 49.1237 126.312C49.6571 125.956 50.2842 125.766 50.9257 125.766C51.7859 125.766 52.6109 126.107 53.2192 126.716C53.8275 127.324 54.1692 128.149 54.1692 129.009V129.009Z" fill="#1F56A3"/>
<path fill-rule="evenodd" clip-rule="evenodd" d="M53.1843 126.969L53.2075 126.968C53.1964 126.956 53.1883 126.955 53.1843 126.969Z" fill="#7CB65A"/>
<path d="M83.427 146.73L81.68 147.745L56.391 133.151L58.137 132.137L83.427 146.73Z" fill="#1B93EB"/>
<path d="M83.427 146.73L83.422 148.278L81.676 149.292L81.68 147.745L83.427 146.73Z" fill="#1F56A3"/>
<path d="M81.68 147.744L81.676 149.291L56.387 134.698L56.391 133.15L81.68 147.744Z" fill="#0078D4"/>
<path d="M72.908 142.682L74.67 141.677L58.137 132.137L56.391 133.151L72.908 142.682Z" fill="#50E6FF"/>
<path d="M72.908 142.681V144.232L56.387 134.698L56.391 133.15L72.908 142.681Z" fill="#53B1E0"/>
</g>
<defs>
<linearGradient id="paint0_linear" x1="79.6785" y1="8.2793" x2="79.6785" y2="179.694" gradientUnits="userSpaceOnUse">
<stop stop-color="#00ABDE"/>
<stop offset="1" stop-color="#007ED8"/>
</linearGradient>
<linearGradient id="paint1_linear" x1="67.5454" y1="111.826" x2="67.5454" y2="101.57" gradientUnits="userSpaceOnUse">
<stop stop-color="white" stop-opacity="0.1"/>
<stop offset="1" stop-color="white"/>
</linearGradient>
<linearGradient id="paint2_linear" x1="80.432" y1="97.1509" x2="57.0534" y2="56.6578" gradientUnits="userSpaceOnUse">
<stop stop-color="#50E6FF"/>
<stop offset="1" stop-color="white" stop-opacity="0.6"/>
</linearGradient>
<clipPath id="clip0">
<rect width="159.356" height="188" fill="white"/>
</clipPath>
</defs>
</svg>
