<svg width="100" height="100" viewBox="0 0 100 100" fill="none" xmlns="http://www.w3.org/2000/svg">
<g clip-path="url(#clip0_455_587)">
<path d="M49.6401 96.45C40.382 96.45 31.3317 93.7047 23.6339 88.5611C15.936 83.4176 9.93624 76.1068 6.3933 67.5534C2.85036 59 1.92337 49.5881 3.72954 40.5078C5.53571 31.4276 9.99394 23.0868 16.5404 16.5403C23.0869 9.99384 31.4277 5.53562 40.5079 3.72945C49.5882 1.92327 59.0001 2.85027 67.5535 6.39321C76.1069 9.93614 83.4176 15.9359 88.5612 23.6338C93.7047 31.3316 96.4501 40.3819 96.4501 49.64C96.4505 55.7873 95.24 61.8745 92.8878 67.5539C90.5355 73.2334 87.0875 78.3938 82.7407 82.7406C78.3939 87.0874 73.2335 90.5354 67.554 92.8877C61.8746 95.2399 55.7874 96.4504 49.6401 96.45V96.45Z" fill="url(#paint0_linear_455_587)"/>
<path fill-rule="evenodd" clip-rule="evenodd" d="M95.54 49.64C95.54 58.7182 92.848 67.5925 87.8045 75.1407C82.7609 82.6889 75.5923 88.572 67.2052 92.0461C58.818 95.5201 49.5891 96.4291 40.6854 94.658C31.7816 92.887 23.603 88.5154 17.1838 82.0962C10.7646 75.677 6.39302 67.4984 4.62196 58.5946C2.85089 49.6909 3.75987 40.462 7.23393 32.0748C10.708 23.6877 16.5911 16.5191 24.1393 11.4755C31.6875 6.43199 40.5618 3.74 49.64 3.74C55.6677 3.73998 61.6363 4.9272 67.2052 7.23388C72.774 9.54057 77.834 12.9215 82.0963 17.1837C86.3585 21.446 89.7394 26.5059 92.0461 32.0748C94.3528 37.6437 95.54 43.6123 95.54 49.64V49.64ZM49.64 3.62732e-07C59.4579 3.62732e-07 69.0553 2.91134 77.2185 8.36585C85.3818 13.8204 91.7442 21.5731 95.5014 30.6436C99.2585 39.7141 100.242 49.6951 98.3262 59.3243C96.4108 68.9535 91.6831 77.7985 84.7408 84.7408C77.7985 91.6831 68.9535 96.4108 59.3243 98.3262C49.6951 100.242 39.7141 99.2585 30.6436 95.5014C21.5731 91.7442 13.8204 85.3818 8.36585 77.2185C2.91134 69.0553 3.62732e-07 59.4579 3.62732e-07 49.64C-0.000787738 43.121 1.28265 36.6656 3.77702 30.6427C6.27138 24.6197 9.9278 19.1471 14.5375 14.5375C19.1471 9.9278 24.6197 6.27138 30.6427 3.77702C36.6656 1.28265 43.121 -0.000787738 49.64 3.62732e-07V3.62732e-07Z" fill="#F2F1F0"/>
<path fill-rule="evenodd" clip-rule="evenodd" d="M92.7296 49.6401C92.7296 58.1625 90.2024 66.4935 85.4676 73.5796C80.7328 80.6657 74.0031 86.1887 66.1294 89.4501C58.2557 92.7114 49.5918 93.5648 41.2331 91.9021C32.8745 90.2395 25.1966 86.1356 19.1703 80.1093C13.1441 74.0831 9.04017 66.4052 7.37753 58.0465C5.7149 49.6879 6.56822 41.0239 9.8296 33.1503C13.091 25.2766 18.6139 18.5469 25.7 13.8121C32.7862 9.07727 41.1172 6.55009 49.6396 6.55009C55.2983 6.54974 60.9017 7.66407 66.1298 9.82942C71.3579 11.9948 76.1082 15.1687 80.1096 19.1701C84.1109 23.1714 87.2849 27.9218 89.4502 33.1499C91.6156 38.3779 92.7299 43.9813 92.7296 49.6401V49.6401ZM49.6396 2.81009C58.9017 2.81009 67.9558 5.55662 75.6569 10.7024C83.3581 15.8481 89.3604 23.162 92.9049 31.719C96.4493 40.2761 97.3767 49.692 95.5697 58.7762C93.7628 67.8603 89.3027 76.2046 82.7534 82.7539C76.2041 89.3032 67.8598 93.7633 58.7757 95.5703C49.6915 97.3772 40.2756 96.4498 31.7185 92.9054C23.1614 89.3609 15.8476 83.3586 10.7018 75.6574C5.5561 67.9563 2.80957 58.9022 2.80957 49.6401C2.81076 37.2204 7.745 25.3097 16.5271 16.5276C25.3091 7.7455 37.2198 2.81125 49.6396 2.81006V2.81009Z" fill="#0078D4"/>
<path fill-rule="evenodd" clip-rule="evenodd" d="M92.7637 49.6401C92.7637 58.1625 90.2366 66.4935 85.5018 73.5796C80.767 80.6657 74.0372 86.1887 66.1636 89.4501C58.2899 92.7114 49.6259 93.5648 41.2673 91.9021C32.9087 90.2395 25.2308 86.1356 19.2045 80.1093C13.1783 74.0831 9.07435 66.4052 7.41171 58.0465C5.74908 49.6879 6.6024 41.0239 9.86378 33.1503C13.1252 25.2766 18.6481 18.5469 25.7342 13.8121C32.8203 9.07727 41.1514 6.55009 49.6738 6.55009C55.3325 6.54974 60.9359 7.66407 66.164 9.82942C71.3921 11.9948 76.1424 15.1687 80.1437 19.1701C84.1451 23.1714 87.3191 27.9218 89.4844 33.1499C91.6498 38.3779 92.7641 43.9813 92.7637 49.6401V49.6401ZM49.6738 2.81009C58.9359 2.81009 67.9899 5.55662 75.6911 10.7024C83.3923 15.8481 89.3946 23.162 92.939 31.719C96.4835 40.2761 97.4109 49.692 95.6039 58.7762C93.797 67.8603 89.3369 76.2046 82.7876 82.7539C76.2383 89.3032 67.894 93.7633 58.8098 95.5703C49.7257 97.3772 40.3097 96.4498 31.7527 92.9054C23.1956 89.3609 15.8818 83.3586 10.736 75.6574C5.59028 67.9563 2.84375 58.9022 2.84375 49.6401C2.84494 37.2204 7.77918 25.3097 16.5612 16.5276C25.3433 7.7455 37.254 2.81125 49.6738 2.81006V2.81009Z" fill="#0078D4"/>
<path d="M79.2448 61.5339C79.2646 61.3959 79.304 61.2579 79.3237 61.1396C79.6936 59.1877 79.6292 57.1784 79.135 55.2542C78.6408 53.3301 77.7289 51.5384 76.4642 50.0064C75.1994 48.4744 73.6129 47.2397 71.8172 46.39C70.0215 45.5404 68.0607 45.0965 66.0741 45.0901C65.0579 45.0867 64.045 45.2058 63.0574 45.445C61.0437 42.2688 58.053 39.8325 54.5353 38.5025C51.0175 37.1726 47.163 37.0211 43.5517 38.0707C39.9404 39.1202 36.7676 41.3142 34.5108 44.3225C32.2539 47.3308 31.035 50.9906 31.0374 54.7513C31.0374 54.9879 31.0374 55.2245 31.0571 55.4612C30.155 55.1575 29.2092 55.0043 28.2574 55.0077C26.0665 55.008 23.9595 55.8505 22.3724 57.3609C20.7853 58.8712 19.8394 60.9338 19.7305 63.122C19.6216 65.3102 20.358 67.4565 21.7873 69.117C23.2166 70.7775 25.2295 71.825 27.4095 72.0429L66.0544 72.1218C68.4598 72.1189 70.8212 71.4765 72.8965 70.2604C74.9718 69.0443 76.6865 67.2982 77.8647 65.2012C77.9239 65.0829 78.0027 64.9645 78.0619 64.8462C78.584 63.792 78.981 62.6804 79.2448 61.5339V61.5339Z" fill="white"/>
<path d="M48.9368 44.0039C46.9698 44.0045 45.0362 44.5126 43.3231 45.4792C41.61 46.4459 40.1753 47.8382 39.1579 49.5216C38.1404 51.205 37.5745 53.1224 37.515 55.0885C37.4555 57.0546 37.9044 59.0028 38.8182 60.7446L37.5424 65.645C37.4998 65.8089 37.5007 65.9811 37.5451 66.1445C37.5895 66.3079 37.6759 66.4569 37.7956 66.5766C37.9154 66.6963 38.0644 66.7827 38.2278 66.8271C38.3912 66.8714 38.5634 66.8723 38.7273 66.8296L43.63 65.5533C45.1651 66.358 46.8631 66.803 48.5955 66.8546C50.3279 66.9063 52.0494 66.5632 53.6297 65.8513C55.2099 65.1394 56.6076 64.0774 57.7168 62.7457C58.8261 61.414 59.6179 59.8473 60.0323 58.1644C60.4468 56.4815 60.473 54.7264 60.109 53.0318C59.745 51.3373 59.0004 49.7477 57.9314 48.3834C56.8624 47.0191 55.4971 45.9159 53.9388 45.1571C52.3805 44.3984 50.6701 44.004 48.9369 44.0039H48.9368ZM50.4835 58.2799L50.3672 58.2876H45.2232L45.1067 58.2799C44.9015 58.2517 44.7134 58.1501 44.5773 57.994C44.4411 57.8379 44.3661 57.6377 44.3661 57.4306C44.3661 57.2234 44.4411 57.0233 44.5773 56.8672C44.7134 56.711 44.9015 56.6095 45.1067 56.5813L45.2232 56.5736H50.3672L50.4835 56.5813C50.6888 56.6095 50.8769 56.711 51.013 56.8671C51.1492 57.0233 51.2243 57.2234 51.2243 57.4306C51.2243 57.6378 51.1492 57.8379 51.013 57.9941C50.8769 58.1502 50.6888 58.2517 50.4835 58.2799V58.2799ZM52.7669 54.2804L52.6507 54.2881H45.2232L45.1067 54.2804C44.9015 54.2522 44.7134 54.1507 44.5773 53.9945C44.4411 53.8384 44.3661 53.6383 44.3661 53.4312C44.3661 53.224 44.4411 53.0239 44.5773 52.8678C44.7134 52.7117 44.9015 52.6101 45.1067 52.582L45.2232 52.5741H52.6507L52.7669 52.582C52.9721 52.6101 53.1603 52.7116 53.2964 52.8677C53.4326 53.0238 53.5077 53.224 53.5077 53.4312C53.5077 53.6383 53.4326 53.8385 53.2964 53.9946C53.1603 54.1507 52.9721 54.2522 52.7669 54.2804V54.2804Z" fill="#E8E8E8"/>
<path d="M60.1419 68.6433L59.791 68.5622L58.8878 68.3272C57.6233 68.7573 56.2504 68.7468 54.9927 68.2973C53.7349 67.8478 52.6663 66.9859 51.9608 65.8517C51.2553 64.7176 50.9544 63.3781 51.1072 62.0512C51.2599 60.7243 51.8572 59.4881 52.8019 58.544C53.7467 57.5998 54.9831 57.0031 56.3101 56.8512C57.6371 56.6992 58.9765 57.0008 60.1102 57.707C61.2439 58.4132 62.1053 59.4822 62.554 60.7403C63.0028 61.9983 63.0125 63.3711 62.5817 64.6354L62.8178 65.5402C62.9131 65.9066 62.9233 66.2899 62.8475 66.6609C62.7717 67.0318 62.6119 67.3805 62.3804 67.6801C62.149 67.9797 61.8519 68.2223 61.5121 68.3893C61.1723 68.5562 60.7988 68.6432 60.4202 68.6433L60.1419 68.6433Z" fill="white"/>
<path d="M52.1411 62.726C52.1414 63.5589 52.3565 64.3777 52.7657 65.1031C53.1749 65.8286 53.7643 66.4362 54.4769 66.8673C55.1896 67.2984 56.0014 67.5384 56.8339 67.564C57.6665 67.5897 58.4915 67.4001 59.2293 67.0137L61.3061 67.5544C61.3755 67.5724 61.4484 67.5721 61.5176 67.5533C61.5869 67.5345 61.65 67.4979 61.7007 67.4472C61.7514 67.3965 61.788 67.3334 61.8068 67.2641C61.8256 67.1949 61.826 67.122 61.8079 67.0526L61.2675 64.9768C61.6089 64.3267 61.7979 63.6074 61.8203 62.8735C61.8426 62.1395 61.6976 61.4101 61.3964 60.7404C61.0951 60.0708 60.6455 59.4784 60.0815 59.0082C59.5175 58.538 58.8539 58.2023 58.1409 58.0265C57.428 57.8506 56.6844 57.8393 55.9664 57.9933C55.2485 58.1474 54.5749 58.4627 53.9969 58.9155C53.4188 59.3683 52.9513 59.9467 52.6298 60.6069C52.3083 61.267 52.1412 61.9917 52.1411 62.726V62.726ZM57.6366 63.9328L57.5873 63.9361H55.4083L55.359 63.9328C55.2721 63.9208 55.1924 63.8778 55.1348 63.8117C55.0771 63.7456 55.0453 63.6608 55.0453 63.5731C55.0453 63.4853 55.0771 63.4005 55.1348 63.3344C55.1924 63.2683 55.2721 63.2253 55.359 63.2133L55.4083 63.21H57.5873L57.6366 63.2133C57.7235 63.2252 57.8032 63.2682 57.8609 63.3344C57.9185 63.4005 57.9503 63.4853 57.9503 63.5731C57.9503 63.6608 57.9185 63.7456 57.8609 63.8117C57.8032 63.8779 57.7235 63.9209 57.6366 63.9328V63.9328ZM58.6038 62.2387L58.5545 62.242H55.4083L55.359 62.2387C55.2721 62.2267 55.1924 62.1837 55.1347 62.1176C55.0771 62.0515 55.0453 61.9667 55.0453 61.879C55.0453 61.7912 55.0771 61.7064 55.1347 61.6403C55.1924 61.5742 55.2721 61.5312 55.359 61.5192L55.4083 61.5159H58.5545L58.6038 61.5192C58.6907 61.5312 58.7704 61.5742 58.8281 61.6403C58.8858 61.7064 58.9175 61.7912 58.9175 61.879C58.9175 61.9667 58.8858 62.0515 58.8281 62.1176C58.7704 62.1838 58.6907 62.2268 58.6038 62.2387V62.2387Z" fill="url(#paint1_linear_455_587)"/>
<path opacity="0.2" d="M49.6768 47.3585C51.7483 47.3572 53.7964 46.9216 55.6891 46.0797C57.5817 45.2379 59.2768 44.0085 60.6649 42.471C57.6572 39.4552 53.6438 37.6532 49.3915 37.4093C45.1392 37.1654 40.9461 38.4966 37.6133 41.1488C38.986 43.068 40.7963 44.6323 42.8942 45.7122C44.9922 46.7922 47.3173 47.3565 49.6768 47.3585V47.3585Z" fill="#767676"/>
<path d="M49.6766 45.2004C47.1628 45.2004 44.7054 44.455 42.6152 43.0584C40.525 41.6618 38.8959 39.6767 37.9338 37.3543C36.9718 35.0318 36.7201 32.4762 37.2105 30.0106C37.7009 27.5451 38.9115 25.2804 40.689 23.5028C42.4666 21.7252 44.7313 20.5147 47.1969 20.0243C49.6624 19.5339 52.218 19.7856 54.5405 20.7476C56.863 21.7096 58.848 23.3387 60.2446 25.4289C61.6412 27.5191 62.3866 29.9765 62.3866 32.4904C62.3865 35.8613 61.0474 39.0941 58.6639 41.4776C56.2803 43.8612 53.0475 45.2003 49.6766 45.2004V45.2004Z" fill="url(#paint2_linear_455_587)"/>
<path d="M49.6766 21.2897C51.8918 21.2897 54.0573 21.9466 55.8992 23.1773C57.7412 24.408 59.1768 26.1573 60.0245 28.2039C60.8723 30.2505 61.0941 32.5026 60.6619 34.6753C60.2298 36.848 59.163 38.8437 57.5966 40.4102C56.0302 41.9766 54.0345 43.0434 51.8618 43.4756C49.6891 43.9077 47.437 43.686 45.3904 42.8382C43.3438 41.9905 41.5945 40.5549 40.3637 38.713C39.133 36.8711 38.4761 34.7056 38.476 32.4903C38.4794 29.5208 39.6605 26.6738 41.7602 24.574C43.86 22.4742 46.707 21.293 49.6766 21.2897ZM49.6766 19.7801C47.1627 19.7801 44.7053 20.5255 42.6152 21.9221C40.525 23.3187 38.8959 25.3037 37.9339 27.6262C36.9718 29.9487 36.7201 32.5042 37.2105 34.9698C37.7009 37.4353 38.9114 39.7 40.689 41.4776C42.4665 43.2552 44.7312 44.4657 47.1967 44.9562C49.6623 45.4466 52.2179 45.1949 54.5403 44.2329C56.8628 43.2709 58.8479 41.6419 60.2445 39.5517C61.6412 37.4615 62.3866 35.0042 62.3866 32.4903C62.3866 29.1194 61.0475 25.8866 58.6639 23.5029C56.2803 21.1193 53.0475 19.7802 49.6766 19.7801Z" fill="url(#paint3_linear_455_587)"/>
<path d="M54.5003 28.9405C54.2542 28.6946 53.9205 28.5564 53.5725 28.5564C53.2245 28.5564 52.8908 28.6946 52.6447 28.9405L48.3195 33.2626L46.7571 31.7152C46.7206 31.661 46.6793 31.6102 46.6338 31.5632C46.3893 31.3186 46.058 31.1805 45.7122 31.179C45.3663 31.1775 45.0338 31.3127 44.7872 31.5553C44.5406 31.7978 44.3999 32.128 44.3956 32.4738C44.3913 32.8197 44.5239 33.1532 44.7645 33.4017L44.7487 33.4175L47.3956 36.0401C47.6419 36.286 47.9757 36.4241 48.3237 36.4241C48.6717 36.4241 49.0055 36.286 49.2518 36.0401L54.4963 30.7979L54.5003 30.7948C54.6221 30.6731 54.7188 30.5285 54.7847 30.3695C54.8506 30.2104 54.8846 30.0399 54.8846 29.8676C54.8846 29.6954 54.8506 29.5249 54.7847 29.3658C54.7188 29.2068 54.6221 29.0622 54.5003 28.9405V28.9405Z" fill="white"/>
</g>
<defs>
<linearGradient id="paint0_linear_455_587" x1="47.8697" y1="-15.1531" x2="51.8525" y2="130.615" gradientUnits="userSpaceOnUse">
<stop stop-color="#00ABDE"/>
<stop offset="1" stop-color="#007ED8"/>
</linearGradient>
<linearGradient id="paint1_linear_455_587" x1="56.9814" y1="67.5677" x2="56.9814" y2="57.8856" gradientUnits="userSpaceOnUse">
<stop stop-color="#004DAE"/>
<stop offset="0.21" stop-color="#0061C4"/>
<stop offset="0.51" stop-color="#0078DD"/>
<stop offset="0.78" stop-color="#0086EC"/>
<stop offset="1" stop-color="#008BF1"/>
</linearGradient>
<linearGradient id="paint2_linear_455_587" x1="49.6766" y1="45.2004" x2="49.6766" y2="19.7801" gradientUnits="userSpaceOnUse">
<stop stop-color="#008BF1"/>
<stop offset="0.22" stop-color="#0086EC"/>
<stop offset="0.49" stop-color="#0078DD"/>
<stop offset="0.79" stop-color="#0061C4"/>
<stop offset="1" stop-color="#004DAE"/>
</linearGradient>
<linearGradient id="paint3_linear_455_587" x1="49.6765" y1="19.7801" x2="49.6765" y2="45.2005" gradientUnits="userSpaceOnUse">
<stop stop-color="#008BF1"/>
<stop offset="0.22" stop-color="#0086EC"/>
<stop offset="0.49" stop-color="#0078DD"/>
<stop offset="0.79" stop-color="#0061C4"/>
<stop offset="1" stop-color="#004DAE"/>
</linearGradient>
<clipPath id="clip0_455_587">
<rect width="99.2799" height="99.28" fill="white"/>
</clipPath>
</defs>
</svg>
