<svg width="160" height="188" viewBox="0 0 160 188" fill="none" xmlns="http://www.w3.org/2000/svg">
<g clip-path="url(#clip0)">
<path d="M79.6779 188C82.7592 187.994 85.7796 187.141 88.4083 185.534L150.384 147.874C153.165 146.11 155.449 143.665 157.019 140.771C158.589 137.876 159.394 134.628 159.356 131.336V56.6207C159.392 53.3283 158.587 50.0812 157.017 47.1871C155.447 44.2929 153.163 41.8476 150.384 40.0829L88.4083 2.4228C85.7749 0.837605 82.7592 0 79.6855 0C76.6118 0 73.5961 0.837605 70.9627 2.4228L8.9876 40.098C6.2045 41.8604 3.91796 44.3048 2.34499 47.1991C0.772021 50.0935 -0.0351786 53.3418 4.1431e-06 56.6358V131.336C-0.0185283 134.119 0.556189 136.874 1.68588 139.418C2.81557 141.962 4.4743 144.236 6.5516 146.089V146.115L70.9627 185.549C73.5884 187.149 76.6032 187.996 79.6779 188V188ZM80.3257 6.95218C82.2776 6.95218 84.7548 8.1651 86.4646 9.20912L147.222 46.4034C150.974 48.6881 153.09 55.2842 153.09 60.0352L152.458 131.336C152.458 136.087 149.259 140.355 145.506 142.64L85.1104 179.021C81.6758 181.109 78.8854 181.109 75.4507 179.021L14.2427 142.549C10.4903 140.265 7.47191 136.072 7.47191 131.336V57.688C7.50442 55.3228 8.11341 53.0013 9.24608 50.9247C10.3787 48.8482 12.0009 47.0792 13.9718 45.7714L74.548 9.20912C76.2577 8.1651 78.3739 6.95218 80.3257 6.95218Z" fill="#F2F1F0"/>
<path fill-rule="evenodd" clip-rule="evenodd" d="M87.5765 10.5337C85.2056 9.0602 82.4697 8.2793 79.6783 8.2793C76.8868 8.2793 74.1509 9.0602 71.7801 10.5337L15.6454 44.8651C13.1193 46.4768 11.047 48.7072 9.625 51.3446C8.203 53.9821 7.47851 56.9392 7.52026 59.9352V128.038C7.48034 131.034 8.20562 133.991 9.62745 136.628C11.0493 139.265 13.1206 141.495 15.6454 143.108L71.7801 177.439C74.1508 178.913 76.8867 179.694 79.6783 179.694C82.4698 179.694 85.2057 178.913 87.5765 177.439L143.711 143.108C146.236 141.496 148.307 139.265 149.729 136.628C151.151 133.991 151.877 131.034 151.837 128.038V59.9352C151.875 56.9397 151.149 53.9839 149.727 51.347C148.305 48.7101 146.234 46.4793 143.711 44.8651L87.5765 10.5337Z" fill="url(#paint0_linear)"/>
<path fill-rule="evenodd" clip-rule="evenodd" d="M79.6783 9.7539C81.3615 9.7539 83.2442 10.6196 85.311 11.8777L143.777 47.4201C145.668 48.6335 147.218 50.3104 148.278 52.2914C149.339 54.2725 149.875 56.4918 149.837 58.7386V129.217C149.875 131.464 149.339 133.683 148.278 135.664C147.218 137.645 145.668 139.322 143.777 140.535L85.312 176.077L85.311 176.078C83.6408 177.217 81.6958 177.888 79.6783 178.021C77.6609 177.888 75.7158 177.217 74.0456 176.078L74.0446 176.077L15.5823 140.537L15.5801 140.536C13.7918 139.572 12.2668 138.185 11.1383 136.496C10.1614 134.893 9.52031 132.678 9.52031 129.217V58.7386C9.48157 56.4919 10.018 54.2726 11.0785 52.2916C12.139 50.3106 13.6885 48.6336 15.5797 47.4202L74.0365 11.8831L74.0406 11.8807C76.1244 10.6277 77.9846 9.7539 79.6783 9.7539ZM87.3908 8.4609L145.855 44.0021C148.333 45.5722 150.368 47.751 151.765 50.3307C153.162 52.9104 153.876 55.8051 153.837 58.7386V129.217C153.876 132.151 153.162 135.045 151.765 137.625C150.368 140.205 148.333 142.384 145.855 143.954L87.3898 179.495C85.0956 181.02 82.4302 181.893 79.6783 182.021C76.9264 181.893 74.261 181.02 71.9667 179.495H71.9658L13.502 143.953L13.4995 143.952C11.1642 142.659 9.18097 140.814 7.72281 138.578C6.12823 135.725 5.36521 132.482 5.52031 129.217V58.7386C5.48125 55.805 6.19436 52.9103 7.59165 50.3305C8.98894 47.7508 11.0238 45.572 13.5022 44.002L71.9667 8.46025L71.9749 8.45537C74.0655 7.19796 76.7734 5.75391 79.6783 5.75391C82.5645 5.75391 85.2816 7.17699 87.3908 8.46085V8.4609Z" fill="#0078D4"/>
<path opacity="0.2" d="M139.96 132.028L80.41 166.634L20.464 132.025L80.014 97.418L139.96 132.028Z" fill="#003067"/>
<path d="M140.601 120.648L79.878 155.936L18.767 120.653L79.489 85.3652L140.601 120.648Z" fill="#1B93EB"/>
<path d="M140.601 120.648L140.589 124.754L79.8669 160.042L79.8779 155.936L140.601 120.648Z" fill="#1F56A3"/>
<path d="M79.878 155.935L79.867 160.041L18.755 124.758L18.767 120.652L79.878 155.935Z" fill="#0078D4"/>
<path d="M74.6912 114.736C74.8278 114.62 74.9386 114.478 75.0164 114.317C75.0941 114.156 75.137 113.981 75.1422 113.802L75.1485 111.584C75.1433 111.763 75.1004 111.938 75.0227 112.099C74.945 112.26 74.8342 112.402 74.6975 112.518L72.9518 114.116C72.867 114.207 72.8218 114.327 72.8259 114.452L72.8196 116.67C72.8155 116.545 72.8608 116.425 72.9456 116.334L74.6912 114.736Z" fill="#1F56A3"/>
<path d="M43.5672 116.333C43.6079 116.375 43.6396 116.425 43.6604 116.479C43.6812 116.534 43.6907 116.592 43.6882 116.651L43.6945 114.433C43.697 114.374 43.6876 114.316 43.6667 114.261C43.6459 114.207 43.6142 114.157 43.5734 114.115L41.8099 112.517C41.6695 112.4 41.5556 112.255 41.4759 112.091C41.3963 111.926 41.3527 111.747 41.3481 111.564L41.3419 113.782C41.3465 113.965 41.3901 114.144 41.4697 114.309C41.5493 114.473 41.6632 114.618 41.8036 114.735L43.5672 116.333Z" fill="#1F56A3"/>
<path d="M36.315 118.615L36.308 120.833L36.313 121.629L36.319 119.411L36.315 118.615Z" fill="#1F56A3"/>
<path d="M77.857 121.153L74.6676 121.565C74.3812 121.609 74.1178 121.748 73.9194 121.959L73.0034 123.263C72.9246 123.356 72.8819 123.473 72.8832 123.595L72.877 125.813C72.8755 125.691 72.9181 125.573 72.997 125.481L73.9132 124.177C74.1116 123.966 74.3749 123.827 74.6613 123.783L77.8508 123.371C79.2004 123.198 80.2639 122.432 80.2535 121.626L80.2598 119.408C80.2701 120.214 79.2067 120.98 77.857 121.153Z" fill="#1F56A3"/>
<path d="M42.4211 123.964C42.5459 124.027 42.6504 124.125 42.7229 124.244L43.6652 125.542C43.7197 125.613 43.747 125.701 43.7424 125.79L43.7488 123.572C43.7534 123.483 43.726 123.395 43.6715 123.324L42.7291 122.026C42.6566 121.907 42.5521 121.809 42.4274 121.746C42.2771 121.658 42.1127 121.597 41.9416 121.565L38.7475 121.154C38.234 121.091 37.7378 120.928 37.2869 120.675C37.0323 120.563 36.8101 120.389 36.6409 120.168C36.4718 119.947 36.3611 119.687 36.3193 119.412L36.3131 121.63C36.3549 121.905 36.4655 122.165 36.6347 122.386C36.8038 122.607 37.0261 122.781 37.2807 122.893C37.7316 123.146 38.2278 123.309 38.7413 123.372L41.9353 123.783C42.1064 123.815 42.2708 123.876 42.4211 123.964V123.964Z" fill="#1F56A3"/>
<path d="M74.3559 127.729L73.3894 128.291C72.1923 128.873 70.8139 128.961 69.5526 128.535L66.7879 127.518C66.4559 127.431 66.1081 127.422 65.7719 127.492L63.5413 128.037C63.2294 128.077 62.9462 128.24 62.7532 128.488L62.0479 130.34C61.7522 131.122 60.4338 131.741 59.0429 131.738L57.6692 131.738C56.9061 131.739 56.155 131.548 55.4858 131.181C55.1229 130.999 54.8304 130.702 54.6542 130.337L53.934 128.488C53.8556 128.366 53.7452 128.268 53.6149 128.204C53.5024 128.136 53.3792 128.087 53.2504 128.06L50.9964 127.518C50.6304 127.429 50.2479 127.43 49.8824 127.522L47.1292 128.538C45.8669 128.964 44.4879 128.876 43.2896 128.294L42.311 127.729C42.0623 127.612 41.8493 127.431 41.6937 127.204C41.5382 126.978 41.4458 126.714 41.4261 126.439L41.4198 128.657C41.4396 128.932 41.5319 129.195 41.6874 129.422C41.843 129.649 42.056 129.83 42.3047 129.947L43.2833 130.512C44.4816 131.094 45.8607 131.182 47.123 130.756L49.8761 129.74C50.2416 129.648 50.6241 129.646 50.9901 129.736L53.2441 130.278C53.3728 130.305 53.4961 130.354 53.6086 130.422C53.7389 130.485 53.8493 130.584 53.9276 130.706L54.6479 132.555C54.8241 132.92 55.1166 133.217 55.4795 133.399C56.1487 133.766 56.8999 133.957 57.663 133.955H59.0366C60.4276 133.959 61.7459 133.34 62.0416 132.558L62.747 130.706C62.94 130.457 63.2232 130.295 63.5351 130.254L65.7657 129.71C66.1019 129.64 66.4497 129.649 66.7817 129.736L69.5463 130.753C70.8076 131.179 72.186 131.091 73.3832 130.509L74.3497 129.947C74.5939 129.831 74.803 129.652 74.9559 129.429C75.1088 129.205 75.2 128.946 75.2202 128.676L75.2265 126.458C75.2063 126.728 75.1151 126.987 74.9622 127.211C74.8093 127.434 74.6001 127.613 74.3559 127.729V127.729Z" fill="#1F56A3"/>
<path d="M74.7648 125.505C75.5131 126.184 75.3339 127.16 74.3559 127.728L73.3895 128.29C72.1923 128.873 70.8139 128.96 69.5526 128.534L66.788 127.518C66.456 127.43 66.1082 127.421 65.772 127.491L63.5413 128.036C63.2295 128.077 62.9463 128.239 62.7532 128.487L62.0479 130.34C61.7522 131.122 60.4339 131.74 59.0429 131.737H57.6693C56.9062 131.739 56.155 131.547 55.4858 131.181C55.1229 130.999 54.8305 130.702 54.6543 130.336L53.934 128.487C53.8556 128.365 53.7453 128.267 53.615 128.203C53.5025 128.135 53.3792 128.087 53.2505 128.06L50.9965 127.518C50.6305 127.428 50.248 127.429 49.8825 127.521L47.1293 128.538C45.867 128.963 44.488 128.876 43.2897 128.294L42.3111 127.729C41.3267 127.16 41.1365 126.184 41.8773 125.505L43.6229 123.907C43.6941 123.829 43.7375 123.729 43.7463 123.623C43.7551 123.517 43.7288 123.412 43.6716 123.322L42.7293 122.025C42.6567 121.905 42.5522 121.808 42.4275 121.744C42.2771 121.657 42.1128 121.596 41.9417 121.564L38.7476 121.153C38.2341 121.09 37.7379 120.927 37.2871 120.674C37.0324 120.562 36.8102 120.387 36.641 120.166C36.4718 119.946 36.3612 119.686 36.3194 119.411L36.3149 118.615C36.3046 117.809 37.3681 117.044 38.7177 116.87L41.9129 116.455C42.197 116.414 42.4576 116.274 42.6494 116.061L43.5771 114.757C43.6538 114.667 43.6956 114.553 43.6949 114.435C43.6943 114.317 43.6512 114.204 43.5735 114.115L41.8099 112.517C41.0615 111.838 41.2407 110.862 42.2187 110.294L43.1852 109.732C44.3824 109.15 45.7608 109.062 47.0221 109.488L49.7867 110.504C50.119 110.59 50.4664 110.599 50.8027 110.531L53.0334 109.986C53.3472 109.944 53.6321 109.781 53.8274 109.531L54.5268 107.683C54.8226 106.9 56.1408 106.282 57.5318 106.285H58.9055C59.6708 106.284 60.424 106.476 61.095 106.844C61.4563 107.025 61.7482 107.32 61.9263 107.683L62.6466 109.531C62.7174 109.656 62.8248 109.755 62.9541 109.816C63.0694 109.883 63.1942 109.932 63.3243 109.963L65.5783 110.504C65.9443 110.594 66.3268 110.593 66.6923 110.501L69.4455 109.485C70.7078 109.059 72.0868 109.146 73.2851 109.729L74.2637 110.294C75.2481 110.862 75.4383 111.838 74.6975 112.517L72.9519 114.115C72.8806 114.194 72.8372 114.293 72.8284 114.399C72.8197 114.505 72.846 114.611 72.9033 114.7L73.8456 115.997C73.9192 116.113 74.021 116.209 74.1415 116.275C74.2945 116.366 74.4632 116.427 74.6389 116.455L77.833 116.866C78.3453 116.931 78.8402 117.094 79.2902 117.347C79.5453 117.458 79.7677 117.633 79.9366 117.854C80.1055 118.075 80.2152 118.336 80.2554 118.612L80.2599 119.407C80.2702 120.213 79.2068 120.979 77.8571 121.152L74.6677 121.564C74.3813 121.608 74.1179 121.747 73.9195 121.958L73.0034 123.262C72.926 123.352 72.8833 123.466 72.8829 123.584C72.8825 123.703 72.9245 123.817 73.0013 123.907L74.7648 125.505ZM53.452 121.824C54.956 122.588 56.6191 122.987 58.3061 122.987C59.993 122.987 61.6561 122.588 63.1601 121.824C65.8295 120.273 65.8095 117.749 63.1285 116.201C61.6239 115.436 59.9599 115.037 58.2719 115.036C56.5839 115.035 54.9196 115.433 53.4145 116.198C50.7452 117.749 50.7651 120.273 53.452 121.824" fill="#0078D4"/>
<path d="M53.4521 121.826C54.9561 122.59 56.6192 122.988 58.3061 122.988C59.993 122.988 61.6562 122.59 63.1602 121.826C65.8295 120.274 65.8096 117.75 63.1285 116.202C61.624 115.437 59.96 115.038 58.272 115.037C56.584 115.037 54.9197 115.435 53.4146 116.199C50.7452 117.75 50.7652 120.274 53.4521 121.826" fill="#1F56A3"/>
<path d="M95.0997 102.015C95.7174 102.417 96.231 102.96 96.5983 103.599C96.9655 104.238 97.1759 104.955 97.2122 105.691C97.2083 107.037 96.2566 107.579 95.0858 106.903C94.47 106.503 93.9576 105.963 93.5904 105.327C93.2233 104.691 93.0118 103.977 92.9733 103.244C92.9771 101.881 93.9287 101.339 95.0997 102.015Z" fill="#003067"/>
<path d="M98.081 50.5652C98.2891 50.698 98.4621 50.8789 98.5856 51.0927C98.709 51.3065 98.7791 51.5469 98.7901 51.7935C98.7888 52.2363 98.4764 52.4312 98.0763 52.2002L92.4146 48.9314C92.2094 48.7955 92.0385 48.6138 91.9155 48.4007C91.7924 48.1876 91.7205 47.9488 91.7054 47.7031C91.7067 47.2433 92.0338 47.0739 92.4192 47.2964L98.081 50.5652Z" fill="#003067"/>
<path opacity="0.2" d="M109.938 117.847L88.284 105.264C87.5149 104.872 86.664 104.668 85.8008 104.668C84.9377 104.668 84.0867 104.872 83.3177 105.264C81.9498 106.059 81.9505 107.35 83.3273 108.145L104.981 120.728C105.752 121.118 106.604 121.321 107.468 121.32C108.332 121.32 109.184 121.115 109.954 120.724C111.322 119.929 111.308 118.638 109.938 117.847Z" fill="#003067"/>
<path d="M106.579 58.7287L106.443 106.944L83.766 93.8517L83.902 45.6367L106.579 58.7287Z" fill="#003067"/>
<path d="M109.158 49.9119L87.9046 37.6409C87.6168 37.4324 87.2785 37.3046 86.9248 37.2708C86.571 37.2369 86.2147 37.2982 85.8926 37.4484L82.6207 39.35C82.9427 39.1999 83.299 39.1385 83.6526 39.1724C84.0063 39.2063 84.3445 39.334 84.6321 39.5425L105.886 51.8135C106.707 52.3495 107.39 53.0712 107.881 53.9203C108.371 54.7694 108.654 55.7219 108.708 56.7009L108.546 113.857C108.58 114.205 108.522 114.556 108.376 114.874C108.231 115.192 108.003 115.466 107.718 115.668L110.99 113.766C111.276 113.565 111.503 113.291 111.649 112.973C111.794 112.654 111.853 112.303 111.818 111.955L111.98 54.7992C111.926 53.8203 111.643 52.8677 111.153 52.0186C110.663 51.1695 109.979 50.4478 109.158 49.9119V49.9119Z" fill="#003067"/>
<path d="M105.886 51.8123C106.707 52.3482 107.391 53.0699 107.881 53.919C108.371 54.7681 108.654 55.7206 108.708 56.6996L108.546 113.856C108.541 115.644 107.262 116.373 105.706 115.474L84.4519 103.203C83.6309 102.667 82.9477 101.945 82.4575 101.096C81.9672 100.247 81.6839 99.2947 81.6302 98.3157L81.7922 41.1598C81.7973 39.3715 83.076 38.6427 84.6324 39.5413L105.886 51.8123ZM106.443 106.944L106.579 58.7288L83.9025 45.6363L83.7658 93.8509L106.443 106.943V106.944ZM95.0858 106.903C96.2566 107.579 97.2083 107.037 97.2121 105.691C97.1759 104.955 96.9655 104.238 96.5983 103.599C96.231 102.96 95.7174 102.417 95.0997 102.015C93.9287 101.339 92.9771 101.881 92.9732 103.244C93.0118 103.977 93.2232 104.691 93.5904 105.327C93.9576 105.963 94.47 106.503 95.0858 106.903V106.903ZM92.4193 47.2953C92.0339 47.0728 91.7068 47.2422 91.7055 47.702C91.7206 47.9476 91.7925 48.1864 91.9156 48.3996C92.0386 48.6127 92.2095 48.7943 92.4146 48.9302L98.0764 52.199C98.4764 52.43 98.7889 52.2351 98.7902 51.7923C98.7792 51.5457 98.7091 51.3054 98.5856 51.0916C98.4622 50.8778 98.2891 50.6969 98.081 50.5641L92.4193 47.2953Z" fill="#1F56A3"/>
<path d="M87.664 62.8987L86.3002 63.6913C86.5835 63.56 86.8968 63.5068 87.2076 63.5372C87.5183 63.5676 87.8153 63.6805 88.0679 63.8643C88.3632 64.037 88.6359 64.2458 88.8797 64.4858L90.2436 63.6933C89.9997 63.4533 89.727 63.2445 89.4317 63.0717C89.1792 62.888 88.8822 62.7751 88.5714 62.7447C88.2606 62.7142 87.9473 62.7674 87.664 62.8987V62.8987Z" fill="#E8E8E8"/>
<path d="M100.434 66.1075C100.157 65.9441 99.8626 65.8134 99.556 65.7182H99.5559H99.556C98.7116 63.5961 97.2223 61.7925 95.2982 60.5618C94.7858 60.1889 94.1831 59.9597 93.5524 59.8978C92.9216 59.836 92.2858 59.9438 91.7107 60.2101L90.3469 61.0027C90.922 60.7364 91.5578 60.6285 92.1886 60.6904C92.8193 60.7522 93.4221 60.9814 93.9345 61.3544C95.8585 62.5851 97.3477 64.3886 98.1922 66.5108C98.4988 66.6059 98.7933 66.7366 99.0697 66.9001C100.209 67.641 101.157 68.641 101.836 69.8182C102.515 70.9955 102.906 72.3167 102.976 73.6739C102.977 73.9446 102.952 74.2148 102.903 74.4811C102.9 74.5183 102.887 74.5573 102.881 74.5999C102.81 74.9182 102.694 75.2246 102.535 75.5092V75.5092C102.516 75.5376 102.495 75.5642 102.476 75.5925C102.309 75.8385 102.09 76.0443 101.834 76.195L103.198 75.4025C103.454 75.2518 103.673 75.046 103.84 74.7999C103.858 74.7716 103.88 74.745 103.899 74.7167C104.058 74.432 104.174 74.1256 104.245 73.8073C104.251 73.7647 104.264 73.7257 104.267 73.6885C104.316 73.4222 104.34 73.152 104.34 72.8813C104.269 71.5241 103.879 70.2029 103.2 69.0257C102.521 67.8484 101.573 66.8485 100.434 66.1075V66.1075Z" fill="#E8E8E8"/>
<path d="M93.9345 61.354C95.8586 62.5846 97.3478 64.3882 98.1923 66.5103C98.4989 66.6055 98.7934 66.7362 99.0698 66.8996C100.209 67.6406 101.157 68.6406 101.836 69.8178C102.515 70.9951 102.906 72.3163 102.976 73.6734C102.977 73.9442 102.952 74.2144 102.903 74.4806C102.9 74.5179 102.887 74.5569 102.881 74.5995C102.811 74.9178 102.694 75.2242 102.535 75.5088C102.516 75.5372 102.495 75.5638 102.476 75.5921C101.796 76.5786 100.511 76.7755 99.038 75.9249L87.8048 69.4109C87.153 68.9282 86.6154 68.3079 86.2304 67.5941C85.8453 66.8803 85.6221 66.0904 85.5767 65.2806C85.5811 63.7084 86.6967 63.0727 88.068 63.8644C88.3633 64.0372 88.636 64.246 88.8798 64.486C88.8739 64.4008 88.8741 64.3227 88.8744 64.2446C88.8834 61.0363 91.1485 59.7455 93.9345 61.354Z" fill="white"/>
<path d="M103.827 84.5166C104.059 84.6673 104.252 84.8706 104.391 85.1101C104.529 85.3496 104.609 85.6185 104.624 85.8948C104.623 86.4041 104.262 86.6065 103.822 86.3523L94.314 80.8631C94.7544 81.1173 95.1125 80.9133 95.114 80.4039C95.0994 80.128 95.0199 79.8595 94.8817 79.6203C94.7436 79.381 94.5509 79.1779 94.3192 79.0273L103.827 84.5166Z" fill="white"/>
<path d="M94.3191 79.0255C94.5508 79.176 94.7435 79.3792 94.8816 79.6184C95.0198 79.8576 95.0993 80.1262 95.1139 80.402C95.1124 80.9114 94.7543 81.1155 94.3139 80.8612L86.3894 76.286C86.1567 76.1352 85.963 75.9314 85.8244 75.6912C85.6857 75.4511 85.606 75.1814 85.5918 74.9045C85.5932 74.3984 85.9514 74.1944 86.3946 74.4503L94.3191 79.0255Z" fill="#C3F1FF"/>
<path d="M103.816 88.1478C104.049 88.2989 104.242 88.5028 104.381 88.7429C104.52 88.983 104.599 89.2524 104.614 89.5293C104.613 90.0353 104.252 90.2411 103.811 89.9868L97.4728 86.3273C97.9132 86.5816 98.2713 86.3742 98.2727 85.8681C98.2587 85.5917 98.1793 85.3226 98.0412 85.0827C97.903 84.8429 97.71 84.6392 97.478 84.4883L103.816 88.1478Z" fill="white"/>
<path d="M101.59 90.5C101.822 90.6514 102.015 90.8554 102.154 91.0954C102.292 91.3354 102.372 91.6047 102.387 91.8815C102.386 92.3876 102.025 92.5933 101.585 92.339L86.3689 83.5543C86.1365 83.4032 85.943 83.1993 85.8044 82.9592C85.6658 82.7191 85.5859 82.4496 85.5713 82.1727C85.5727 81.6667 85.9309 81.4593 86.3741 81.7153L101.59 90.5Z" fill="#0078D4"/>
<path d="M103.806 91.7797C104.038 91.9311 104.232 92.135 104.37 92.3751C104.509 92.6151 104.589 92.8844 104.604 93.1612C104.602 93.6672 104.241 93.8729 103.801 93.6187L101.584 92.339C102.025 92.5933 102.386 92.3876 102.387 91.8815C102.372 91.6048 102.292 91.3354 102.154 91.0954C102.015 90.8554 101.822 90.6514 101.59 90.5L103.806 91.7797Z" fill="white"/>
<path d="M95.4023 90.5671C95.6339 90.7176 95.8267 90.9208 95.9648 91.16C96.1029 91.3992 96.1825 91.6677 96.197 91.9436C96.1956 92.453 95.8375 92.6571 95.3971 92.4028L86.3587 87.1845C86.1259 87.0337 85.9323 86.8298 85.7936 86.5897C85.655 86.3495 85.5753 86.0799 85.561 85.8029C85.5625 85.2969 85.9206 85.0928 86.3639 85.3488L95.4023 90.5671Z" fill="#1F56A3"/>
<path d="M103.796 95.4144C104.028 95.5651 104.221 95.7685 104.36 96.008C104.498 96.2475 104.578 96.5163 104.593 96.7926C104.592 97.302 104.231 97.5044 103.791 97.2501L95.397 92.4041C95.8374 92.6583 96.1954 92.4543 96.1969 91.9449C96.1824 91.669 96.1028 91.4005 95.9647 91.1613C95.8266 90.922 95.6338 90.7189 95.4022 90.5684L103.796 95.4144Z" fill="white"/>
<path d="M97.478 84.4879C97.71 84.6388 97.903 84.8425 98.0411 85.0823C98.1793 85.3222 98.2586 85.5913 98.2727 85.8678C98.2713 86.3738 97.9132 86.5812 97.4728 86.3269L86.3792 79.9221C86.1467 79.771 85.9533 79.5671 85.8147 79.327C85.676 79.0869 85.5962 78.8174 85.5815 78.5405C85.583 78.0312 85.9411 77.8271 86.3844 78.083L97.478 84.4879Z" fill="#50E6FF"/>
<path d="M68.5361 118.344C68.5454 115.066 63.9653 112.395 58.3062 112.379C52.647 112.363 48.0518 115.007 48.0425 118.285C48.0332 121.563 52.6133 124.234 58.2725 124.25C63.9316 124.266 68.5268 121.622 68.5361 118.344Z" fill="#1F56A3"/>
<path d="M66.1985 117.104C65.9724 115.176 65.0493 113.397 63.6029 112.102C62.1565 110.808 60.2867 110.086 58.3455 110.074C56.4043 110.062 54.5257 110.761 53.0635 112.037C51.6012 113.314 50.6562 115.081 50.4064 117.006C50.3499 117.285 50.327 117.569 50.3382 117.853C50.4537 118.508 50.7255 119.125 51.1307 119.653C51.5358 120.18 52.0622 120.601 52.6652 120.881C54.4076 121.76 56.3317 122.218 58.283 122.218C60.2344 122.218 62.1585 121.76 63.9008 120.881C64.501 120.601 65.0239 120.179 65.4243 119.652C65.8247 119.124 66.0904 118.507 66.1986 117.853C66.2472 117.606 66.2472 117.351 66.1985 117.104V117.104Z" fill="url(#paint1_linear)"/>
<path d="M58.3025 108.944C59.2409 108.938 60.1567 108.655 60.9342 108.129C61.7117 107.604 62.3162 106.86 62.6713 105.991C63.0265 105.122 63.1164 104.168 62.9298 103.248C62.7432 102.328 62.2884 101.484 61.6228 100.823C60.9571 100.161 60.1105 99.7116 59.1896 99.5306C58.2687 99.3496 57.3149 99.4454 56.4483 99.8059C55.5818 100.166 54.8415 100.775 54.3207 101.556C53.7999 102.337 53.522 103.254 53.522 104.193C53.5228 104.819 53.6473 105.439 53.8882 106.017C54.1291 106.595 54.4817 107.119 54.9258 107.561C55.3699 108.002 55.8968 108.352 56.4763 108.589C57.0557 108.826 57.6763 108.947 58.3025 108.944V108.944Z" fill="url(#paint2_linear)"/>
<path d="M82.622 148.595L81.367 149.324L63.189 138.834L64.444 138.105L82.622 148.595Z" fill="#1B93EB"/>
<path d="M82.622 148.596L82.619 149.708L81.364 150.438L81.367 149.325L82.622 148.596Z" fill="#1F56A3"/>
<path d="M81.367 149.324L81.364 150.437L63.186 139.947L63.189 138.834L81.367 149.324Z" fill="#0078D4"/>
<path d="M75.061 145.685L76.328 144.963L64.444 138.105L63.189 138.834L75.061 145.685Z" fill="#50E6FF"/>
<path d="M75.061 145.685V146.8L63.186 139.947L63.189 138.834L75.061 145.685Z" fill="#53B1E0"/>
<path d="M88.011 145.482L86.756 146.212L68.578 135.722L69.833 134.992L88.011 145.482Z" fill="#1B93EB"/>
<path d="M88.0111 145.482L88.0081 146.595L86.7531 147.324L86.7561 146.212L88.0111 145.482Z" fill="#1F56A3"/>
<path d="M86.756 146.213L86.753 147.325L68.575 136.835L68.578 135.723L86.756 146.213Z" fill="#0078D4"/>
<path d="M77.449 140.839L78.716 140.116L69.833 134.992L68.578 135.722L77.449 140.839Z" fill="#50E6FF"/>
<path d="M77.449 140.84V141.955L68.575 136.835L68.578 135.723L77.449 140.84Z" fill="#53B1E0"/>
<path d="M93.4 142.371L92.145 143.1L73.967 132.611L75.222 131.881L93.4 142.371Z" fill="#1B93EB"/>
<path d="M93.4 142.369L93.397 143.481L92.142 144.211L92.145 143.098L93.4 142.369Z" fill="#1F56A3"/>
<path d="M92.145 143.098L92.142 144.211L73.963 133.721L73.967 132.609L92.145 143.098Z" fill="#0078D4"/>
<path d="M89.569 141.613L90.835 140.891L75.222 131.881L73.967 132.611L89.569 141.613Z" fill="#50E6FF"/>
<path d="M89.569 141.611V142.726L73.963 133.721L73.967 132.609L89.569 141.611Z" fill="#53B1E0"/>
<path opacity="0.3" d="M94.9304 127.279C96.953 127.279 98.5927 126.485 98.5927 125.505C98.5927 124.525 96.953 123.73 94.9304 123.73C92.9078 123.73 91.2682 124.525 91.2682 125.505C91.2682 126.485 92.9078 127.279 94.9304 127.279Z" fill="#003067"/>
<path fill-rule="evenodd" clip-rule="evenodd" d="M96.2148 123.246C96.2148 123.933 96.0108 124.606 95.6286 125.178C95.2465 125.75 94.7033 126.196 94.0678 126.459C93.4322 126.722 92.7329 126.791 92.0583 126.657C91.3836 126.523 90.7639 126.191 90.2775 125.705C89.7911 125.218 89.4598 124.599 89.3256 123.924C89.1914 123.249 89.2603 122.55 89.5235 121.915C89.7868 121.279 90.2326 120.736 90.8045 120.354C91.3765 119.972 92.0489 119.768 92.7368 119.768C93.6592 119.768 94.5439 120.134 95.1961 120.786C95.8484 121.439 96.2148 122.323 96.2148 123.246V123.246Z" fill="#C3F1FF"/>
<path fill-rule="evenodd" clip-rule="evenodd" d="M95.1587 121.057L95.1836 121.056C95.1716 121.044 95.1629 121.043 95.1587 121.057Z" fill="#7CB65A"/>
<path opacity="0.3" d="M104.264 132.377C106.287 132.377 107.926 131.582 107.926 130.602C107.926 129.623 106.287 128.828 104.264 128.828C102.242 128.828 100.602 129.623 100.602 130.602C100.602 131.582 102.242 132.377 104.264 132.377Z" fill="#003067"/>
<path fill-rule="evenodd" clip-rule="evenodd" d="M105.549 128.343C105.549 129.031 105.345 129.704 104.962 130.276C104.58 130.847 104.037 131.293 103.402 131.556C102.766 131.82 102.067 131.889 101.392 131.754C100.717 131.62 100.098 131.289 99.6112 130.803C99.1248 130.316 98.7936 129.696 98.6594 129.022C98.5252 128.347 98.594 127.648 98.8573 127.012C99.1205 126.377 99.5663 125.834 100.138 125.451C100.71 125.069 101.383 124.865 102.071 124.865C102.993 124.865 103.878 125.232 104.53 125.884C105.182 126.536 105.549 127.421 105.549 128.343V128.343Z" fill="#50E6FF"/>
<path fill-rule="evenodd" clip-rule="evenodd" d="M104.492 126.155L104.517 126.154C104.505 126.142 104.497 126.141 104.492 126.155Z" fill="#7CB65A"/>
<path opacity="0.3" d="M94.2908 135.314C96.3134 135.314 97.953 134.52 97.953 133.54C97.953 132.56 96.3134 131.766 94.2908 131.766C92.2682 131.766 90.6285 132.56 90.6285 133.54C90.6285 134.52 92.2682 135.314 94.2908 135.314Z" fill="#003067"/>
<path fill-rule="evenodd" clip-rule="evenodd" d="M95.5751 131.281C95.5751 131.969 95.3712 132.641 94.989 133.213C94.6068 133.785 94.0636 134.231 93.4281 134.494C92.7926 134.757 92.0933 134.826 91.4186 134.692C90.7439 134.558 90.1242 134.226 89.6378 133.74C89.1514 133.254 88.8202 132.634 88.686 131.959C88.5518 131.285 88.6206 130.585 88.8839 129.95C89.1471 129.314 89.5929 128.771 90.1649 128.389C90.7368 128.007 91.4093 127.803 92.0971 127.803C93.0196 127.803 93.9042 128.169 94.5565 128.821C95.2087 129.474 95.5751 130.358 95.5751 131.281Z" fill="#1F56A3"/>
<path fill-rule="evenodd" clip-rule="evenodd" d="M94.519 129.092L94.5439 129.091C94.532 129.079 94.5233 129.078 94.519 129.092Z" fill="#7CB65A"/>
</g>
<defs>
<linearGradient id="paint0_linear" x1="79.6785" y1="8.2793" x2="79.6785" y2="179.694" gradientUnits="userSpaceOnUse">
<stop stop-color="#00ABDE"/>
<stop offset="1" stop-color="#007ED8"/>
</linearGradient>
<linearGradient id="paint1_linear" x1="61.3182" y1="122.373" x2="54.7049" y2="110.919" gradientUnits="userSpaceOnUse">
<stop stop-color="#50E6FF"/>
<stop offset="1" stop-color="#C3F1FF"/>
</linearGradient>
<linearGradient id="paint2_linear" x1="60.086" y1="109.065" x2="54.3369" y2="101.46" gradientUnits="userSpaceOnUse">
<stop stop-color="#50E6FF"/>
<stop offset="1" stop-color="#C3F1FF"/>
</linearGradient>
<clipPath id="clip0">
<rect width="159.356" height="188" fill="white"/>
</clipPath>
</defs>
</svg>
