<svg width="181" height="191" viewBox="0 0 181 191" fill="none" xmlns="http://www.w3.org/2000/svg">
<path d="M90.6356 189.818C93.6956 189.818 96.7056 188.968 99.3656 187.348L161.336 149.688C166.876 146.318 170.306 139.988 170.306 133.148V58.4379C170.306 51.6179 166.876 45.2779 161.336 41.8979L99.3656 4.23794C94.0356 0.997936 87.2156 1.01794 81.9156 4.23794L19.9456 41.9179C14.4056 45.2879 10.9556 51.6179 10.9556 58.4579V133.158C10.9556 138.918 13.4056 144.338 17.5056 147.908V147.938L81.9156 187.368C84.5556 188.968 87.5756 189.818 90.6356 189.818ZM91.2856 8.76794C93.2356 8.76794 95.7156 9.97794 97.4256 11.0279L158.186 48.2179C161.936 50.4979 164.056 57.0979 164.056 61.8479L163.426 133.148C163.426 137.898 160.226 142.168 156.476 144.448L96.0756 180.828C92.6456 182.918 89.8556 182.918 86.4156 180.828L25.2056 144.358C21.4556 142.078 18.4356 137.878 18.4356 133.148V59.5079C18.4356 54.7679 21.1656 49.8779 24.9356 47.5879L85.5156 11.0279C87.2156 9.98794 89.3356 8.76794 91.2856 8.76794Z" fill="#F2F1F0"/>
<path fill-rule="evenodd" clip-rule="evenodd" d="M98.5356 12.3479C96.0856 10.8479 93.3656 10.0979 90.6356 10.0979C87.9056 10.0979 85.1856 10.8579 82.7356 12.3479L26.6056 46.6779C21.5856 49.7479 18.4756 55.4979 18.4756 61.7479V129.848C18.4756 136.078 21.5756 141.848 26.6056 144.918L82.7356 179.248C85.1856 180.748 87.9056 181.498 90.6356 181.498C93.3656 181.498 96.0856 180.758 98.5356 179.248L154.666 144.918C159.686 141.848 162.796 136.078 162.796 129.848V61.7479C162.796 55.5179 159.696 49.7679 154.666 46.6779L98.5356 12.3479Z" fill="url(#paint0_linear)"/>
<path opacity="0.4" d="M147.836 131.958L92.6155 164.218L37.3955 131.958L92.6055 99.8579L147.836 131.958Z" fill="#1F1D20"/>
<path d="M147.835 61.5776V125.558L92.7454 157.818V93.6876L147.835 61.5776Z" fill="#32B0E7"/>
<path d="M147.836 61.578L92.7455 93.698L37.4055 61.578L92.6155 29.478L147.836 61.578Z" fill="#45CAF2"/>
<path d="M92.7455 93.6876V157.818L37.3955 125.548V61.5776L92.7455 93.6876Z" fill="#0078D4"/>
<path d="M37.4055 125.558L92.7555 93.6978V157.828L37.4055 125.558Z" fill="#185A97"/>
<path d="M147.835 125.568L92.7454 93.688V157.818L147.835 125.568Z" fill="#156AB3"/>
<path d="M77.5954 71.8177C76.5454 70.7677 74.6154 68.5677 71.2754 64.1777C67.9354 59.7877 66.7154 58.7377 64.6954 57.7677C62.6754 56.7977 58.0254 56.8877 55.3054 58.3777C52.5854 59.8677 48.8954 62.5877 48.8954 62.5877L45.9154 59.6077C44.8654 58.7277 40.2954 54.6077 37.4854 58.2077C34.6754 61.8077 38.4554 64.5277 40.6454 65.6677C42.8354 66.8077 47.7554 67.0677 47.7554 67.0677C47.7554 67.0677 48.3654 68.9077 48.9854 70.3177C49.5954 71.7177 50.9154 73.4777 50.9154 73.4777C50.9154 73.4777 49.8654 78.0377 49.1554 89.4577C48.4454 100.878 47.4854 119.308 46.8754 128.698C46.5654 133.388 45.5154 144.058 44.3454 155.098L56.2154 161.868C56.2654 157.698 56.3354 154.148 56.4454 151.878C56.8854 142.398 58.0254 115.268 58.2054 105.968C58.3854 96.6577 58.5554 83.5777 58.8154 80.5077C59.0754 77.4377 60.4854 77.5277 61.8854 78.6677C63.2854 79.8077 63.2854 79.5477 66.8854 82.3577C70.4854 85.1677 71.0954 82.2677 71.0954 82.2677L80.5754 74.9777C80.5854 74.9777 78.6554 72.8777 77.5954 71.8177Z" fill="#F9D697"/>
<path d="M64.2556 59.6181C64.2556 59.6181 64.3456 52.5081 64.6056 49.2581C64.8656 46.0081 66.7156 44.0781 68.1156 45.1281C69.5156 46.1781 70.8356 48.2881 69.9556 51.7081C69.0756 55.1281 64.9556 59.9581 64.9556 59.9581L64.2556 59.6181Z" fill="#F9D697"/>
<path d="M48.0154 50.138C48.0154 50.138 49.4154 54.178 50.2054 56.808C50.9954 59.438 52.3954 62.248 52.3954 62.248L53.4454 61.548C53.4454 61.548 51.8654 58.568 50.8954 55.228C49.9254 51.888 49.1354 48.208 49.1354 48.208L48.0154 50.138Z" fill="#F9D697"/>
<path d="M55.3855 47.8581C55.3855 48.1181 55.9155 50.3181 56.9655 52.7781C58.0155 55.2381 59.6855 58.7481 59.6855 58.7481L61.1755 58.5681C61.1755 58.5681 59.2455 55.5881 58.1955 52.5981C57.1455 49.6181 56.2655 46.8081 56.2655 46.8081L55.3855 47.8581Z" fill="#F9D697"/>
<path d="M78.3856 72.478C78.3856 72.478 73.7756 76.298 71.6656 77.918C69.5556 79.538 66.4456 82.218 66.4456 82.218C66.4456 82.218 72.1556 85.558 75.3956 86.778C78.6356 87.998 82.7256 87.308 84.7056 84.538C86.6856 81.768 85.0556 78.828 83.9156 77.338C82.7756 75.858 78.3856 72.478 78.3856 72.478Z" fill="#AC6348"/>
<path d="M80.7355 83.0077C81.1855 83.0077 81.5455 82.6477 81.5455 82.1977C81.5455 81.7477 81.1855 81.3877 80.7355 81.3877C80.2855 81.3877 79.9255 81.7477 79.9255 82.1977C79.9255 82.6477 80.2855 83.0077 80.7355 83.0077Z" fill="#C08B76"/>
<path d="M77.6254 84.288C78.0754 84.288 78.4354 83.928 78.4354 83.478C78.4354 83.028 78.0754 82.668 77.6254 82.668C77.1754 82.668 76.8154 83.028 76.8154 83.478C76.8154 83.928 77.1754 84.288 77.6254 84.288Z" fill="#C08B76"/>
<path d="M68.0456 67.3178C68.8556 66.8478 68.8856 65.3878 68.1056 64.0478C67.3356 62.7078 66.0456 61.9978 65.2456 62.4678C64.4356 62.9378 64.4056 64.3978 65.1856 65.7378C65.9556 67.0778 67.2356 67.7878 68.0456 67.3178Z" fill="#101010"/>
<path d="M67.7354 67.088C68.1754 66.828 68.1954 66.028 67.7754 65.288C67.3454 64.548 66.6454 64.158 66.1954 64.418C65.7554 64.678 65.7354 65.478 66.1554 66.218C66.5854 66.958 67.2954 67.348 67.7354 67.088Z" fill="#ECECEC"/>
<path d="M60.7854 72.1479C61.5954 71.6779 61.6254 70.2179 60.8454 68.8779C60.0754 67.5379 58.7854 66.8279 57.9854 67.2979C57.1754 67.7679 57.1454 69.2279 57.9254 70.5679C58.6954 71.9079 59.9754 72.6079 60.7854 72.1479Z" fill="#101010"/>
<path d="M60.4854 71.9078C60.9254 71.6478 60.9454 70.8478 60.5254 70.1078C60.0954 69.3678 59.3954 68.9778 58.9454 69.2378C58.5054 69.4978 58.4854 70.2978 58.9054 71.0378C59.3354 71.7778 60.0354 72.1678 60.4854 71.9078Z" fill="#ECECEC"/>
<path d="M56.6254 94.4678L49.7954 103.828L48.7454 102.078L55.2054 93.2979L56.6254 94.4678Z" fill="#E2A570"/>
<path d="M55.8656 122.498L49.0356 131.868L47.9856 130.108L54.4456 121.328L55.8656 122.498Z" fill="#E2A56F"/>
<path d="M57.5256 126.138C57.5256 126.128 57.5256 126.118 57.5256 126.118C57.5256 126.128 57.5256 126.128 57.5256 126.138Z" stroke="#1F1D20" stroke-width="0.2" stroke-miterlimit="10"/>
<path d="M56.2354 150.768H53.8954L48.5154 137.658H50.8554L56.2354 150.768Z" fill="#E2A56F"/>
<path d="M56.7054 115.768H54.2454L48.7454 109.688L50.5054 108.398L56.7054 115.768Z" fill="#E2A56F"/>
<path d="M49.3555 51.2181C50.8555 50.4781 51.3155 48.3481 50.3755 46.4681C49.4455 44.5881 47.4755 43.6681 45.9755 44.4081C44.4755 45.1481 44.0155 47.2781 44.9555 49.1581C45.8855 51.0481 47.8555 51.9681 49.3555 51.2181Z" fill="#AB6448"/>
<path d="M56.9055 49.1078C58.4055 48.3678 58.8655 46.2378 57.9255 44.3578C56.9955 42.4778 55.0255 41.5578 53.5255 42.2978C52.0255 43.0378 51.5655 45.1678 52.5055 47.0478C53.4355 48.9378 55.4055 49.8578 56.9055 49.1078Z" fill="#AB6448"/>
<path d="M56.2255 160.978C56.2255 160.808 56.2255 160.648 56.2355 160.478C56.2355 160.118 56.2455 159.758 56.2555 159.408C56.2555 159.248 56.2555 159.088 56.2655 158.938C56.2755 158.608 56.2755 158.288 56.2855 157.978C56.2855 157.858 56.2855 157.728 56.2955 157.608C56.3055 157.248 56.3055 156.908 56.3155 156.568C56.3155 156.468 56.3155 156.368 56.3255 156.268C56.3355 155.908 56.3455 155.558 56.3555 155.208C56.3555 155.128 56.3555 155.058 56.3655 154.978C56.3755 154.628 56.3855 154.288 56.3955 153.968C56.3955 153.908 56.3955 153.858 56.4055 153.798C56.4155 153.468 56.4255 153.148 56.4355 152.848C56.4355 152.818 56.4355 152.778 56.4355 152.748C56.4455 152.438 56.4555 152.138 56.4755 151.858C56.5255 150.818 56.5855 149.548 56.6455 148.118C53.1655 149.048 50.5955 152.218 50.5955 155.998C50.5955 157.048 50.8155 158.038 51.1755 158.958L56.2555 161.848C56.2155 161.568 56.2255 161.278 56.2255 160.978Z" fill="#AB6448"/>
<path d="M53.0154 91.1979C53.0154 94.1479 55.4054 96.5279 58.3454 96.5279H58.3554C58.3854 95.1079 58.4054 93.6979 58.4354 92.3279C58.4354 92.2779 58.4354 92.2279 58.4354 92.1779C58.4554 91.3079 58.4654 90.4579 58.4854 89.6379C58.4854 89.5779 58.4854 89.5179 58.4854 89.4579C58.5054 88.6579 58.5254 87.8779 58.5354 87.1379C58.5354 87.0679 58.5354 87.0079 58.5354 86.9379C58.5454 86.5679 58.5554 86.2079 58.5654 85.8679C58.4854 85.8679 58.4054 85.8579 58.3254 85.8579C55.4054 85.8679 53.0154 88.2579 53.0154 91.1979Z" fill="#AB6448"/>
<path d="M51.6255 106.528C51.6255 104.348 50.3155 102.478 48.4455 101.648C48.4055 102.368 48.3655 103.108 48.3255 103.838C48.3155 104.028 48.3055 104.218 48.2955 104.408C48.2555 105.028 48.2255 105.658 48.1855 106.278C48.1755 106.538 48.1555 106.798 48.1455 107.058C48.1455 107.098 48.1455 107.128 48.1355 107.168C48.0555 108.658 47.9655 110.148 47.8855 111.618C50.0555 110.948 51.6255 108.928 51.6255 106.528Z" fill="#AB6448"/>
<path d="M52.4355 119.148C52.4355 122.418 54.5755 125.188 57.5255 126.138C57.5255 126.128 57.5255 126.118 57.5255 126.118C57.6755 122.298 57.8155 118.568 57.9255 115.238C57.9255 115.208 57.9255 115.188 57.9255 115.158C57.9455 114.638 57.9655 114.118 57.9755 113.618C57.9755 113.588 57.9755 113.558 57.9755 113.528C57.9955 113.028 58.0055 112.538 58.0255 112.058C58.0255 112.048 58.0255 112.028 58.0255 112.018C54.8255 112.808 52.4355 115.698 52.4355 119.148Z" fill="#AB6448"/>
<path d="M47.6456 139.418C50.7156 139.418 53.1956 136.928 53.1956 133.868C53.1956 130.798 50.7056 128.318 47.6456 128.318C47.3956 128.318 47.1456 128.338 46.8956 128.378C46.8856 128.488 46.8856 128.608 46.8756 128.718C46.8756 128.728 46.8756 128.728 46.8756 128.738C46.8556 129.008 46.8356 129.298 46.8156 129.598C46.8156 129.618 46.8156 129.638 46.8156 129.648C46.7956 129.948 46.7656 130.278 46.7456 130.618C46.7456 130.648 46.7456 130.678 46.7356 130.708C46.7056 131.058 46.6756 131.428 46.6456 131.808C46.6456 131.828 46.6456 131.848 46.6456 131.858C46.6156 132.238 46.5756 132.648 46.5456 133.058C46.5456 133.088 46.5456 133.118 46.5356 133.148C46.4956 133.558 46.4656 133.988 46.4256 134.428C46.4256 134.468 46.4156 134.508 46.4156 134.548C46.3756 134.988 46.3356 135.438 46.2956 135.898C46.2956 135.938 46.2856 135.988 46.2856 136.028C46.2456 136.508 46.1956 136.988 46.1456 137.488C46.1456 137.508 46.1456 137.538 46.1356 137.558C46.0856 138.058 46.0356 138.568 45.9856 139.098C45.9856 139.118 45.9856 139.148 45.9756 139.168C46.4956 139.328 47.0556 139.418 47.6456 139.418Z" fill="#AB6448"/>
<path fill-rule="evenodd" clip-rule="evenodd" d="M90.6356 11.5679C92.3156 11.5679 94.2056 12.4379 96.2656 13.6879L154.736 49.2279C158.386 51.4479 160.796 55.7179 160.796 60.5479V131.028C160.796 135.848 158.386 140.128 154.736 142.348L96.2756 177.888C94.3156 179.078 92.3956 179.828 90.6456 179.828C88.8956 179.828 86.9756 179.078 85.0156 177.888L26.5356 142.358C24.5256 141.128 23.0756 139.928 22.0956 138.318C21.1156 136.718 20.4756 134.498 20.4756 131.038V60.5579C20.4756 55.7279 22.8856 51.4579 26.5356 49.2379L84.9956 13.6979C87.0856 12.4479 88.9456 11.5679 90.6356 11.5679ZM98.3456 181.318L156.806 145.778C161.726 142.788 164.786 137.168 164.786 131.038V60.5579C164.786 54.4279 161.726 48.8079 156.806 45.8179L98.3456 10.2779C96.2356 8.99787 93.5256 7.56787 90.6356 7.56787C87.7356 7.56787 85.0256 9.00787 82.9356 10.2679H82.9256L24.4556 45.8179C19.5356 48.8079 16.4756 54.4279 16.4756 60.5579V131.038C16.4756 134.998 17.2156 137.988 18.6756 140.398C20.1356 142.798 22.1956 144.398 24.4556 145.768L82.9156 181.308C85.1356 182.658 87.8056 183.838 90.6256 183.838C93.4456 183.838 96.1256 182.668 98.3456 181.318Z" fill="url(#paint1_linear)"/>
<path opacity="0.15" d="M93.0155 109.398H150.615C152.225 109.398 153.535 108.088 153.535 106.478V60.5381H90.0955V106.478C90.0955 108.088 91.4055 109.398 93.0155 109.398Z" fill="#1F1D20"/>
<path d="M91.3055 106.728H152.335C153.005 106.728 153.545 106.188 153.545 105.518V57.8682H90.0955V105.518C90.0955 106.188 90.6355 106.728 91.3055 106.728Z" fill="#EBEBEB"/>
<path d="M90.0955 63.1481H153.545V57.4581C153.545 56.9481 153.135 56.5381 152.625 56.5381H91.0155C90.5055 56.5381 90.0955 56.9481 90.0955 57.4581V63.1481Z" fill="url(#paint2_linear)"/>
<path d="M94.9755 61.5782C95.8655 61.5782 96.5855 60.8582 96.5855 59.9682C96.5855 59.0682 95.8455 58.3682 94.9755 58.3682C94.0855 58.3682 93.3655 59.0882 93.3655 59.9782C93.3655 60.8782 94.0655 61.5782 94.9755 61.5782Z" fill="#45CAF2"/>
<path opacity="0.15" d="M121.715 86.6179L135.165 94.4379L121.675 102.258L108.255 94.4379L121.715 86.6179Z" fill="#1F1D20"/>
<path d="M121.675 84.808V100.428L108.255 92.568V76.978L121.675 84.808Z" fill="#32B0E7"/>
<path d="M121.715 69.168L135.165 76.988L121.665 84.818L108.245 76.998L121.715 69.168Z" fill="#45CAF2"/>
<path d="M135.155 76.978V92.558L121.675 100.418V84.808L135.155 76.978Z" fill="#156AB3"/>
<path d="M121.675 100.428V84.8079L135.165 92.5779L121.675 100.428Z" fill="#185A97"/>
<path d="M121.675 100.428V84.8079L108.255 92.5779L121.675 100.428Z" fill="#0078D4"/>
<path opacity="0.15" d="M133.725 98.3079C136.745 98.3079 139.205 95.8579 139.205 92.8279C139.195 89.8079 136.735 87.3579 133.725 87.3579C130.705 87.3579 128.245 89.8079 128.245 92.8379C128.245 95.8679 130.695 98.3079 133.725 98.3079Z" fill="#1F1D20"/>
<path d="M133.725 97.378C136.745 97.378 139.205 94.928 139.205 91.898C139.195 88.878 136.735 86.428 133.725 86.428C130.705 86.428 128.245 88.878 128.245 91.908C128.245 94.938 130.695 97.378 133.725 97.378Z" fill="#002D4C"/>
<path d="M134.145 88.688H133.245V95.108H134.145V88.688Z" fill="#F2F2F2"/>
<path d="M136.905 91.498H130.495V92.398H136.915L136.905 91.498Z" fill="#F2F2F2"/>
<defs>
<linearGradient id="paint0_linear" x1="90.6358" y1="10.098" x2="90.6358" y2="181.498" gradientUnits="userSpaceOnUse">
<stop stop-color="#00ABDE"/>
<stop offset="1" stop-color="#007ED8"/>
</linearGradient>
<linearGradient id="paint1_linear" x1="36.7554" y1="4.88917" x2="203.432" y2="287.219" gradientUnits="userSpaceOnUse">
<stop stop-color="#007ED8"/>
<stop offset="0.7065" stop-color="#002D4C"/>
</linearGradient>
<linearGradient id="paint2_linear" x1="115.866" y1="51.6155" x2="151.016" y2="102.072" gradientUnits="userSpaceOnUse">
<stop stop-color="#007ED8"/>
<stop offset="0.7065" stop-color="#002D4C"/>
</linearGradient>
</defs>
</svg>
