<svg width="100" height="100" viewBox="0 0 100 100" fill="none" xmlns="http://www.w3.org/2000/svg">
<g clip-path="url(#clip0)">
<path d="M49.6401 96.4501C40.382 96.4501 31.3317 93.7047 23.6339 88.5612C15.936 83.4176 9.93624 76.1069 6.3933 67.5535C2.85036 59.0001 1.92337 49.5882 3.72954 40.5079C5.53571 31.4277 9.99394 23.0869 16.5404 16.5404C23.0869 9.99393 31.4277 5.53571 40.5079 3.72954C49.5882 1.92337 59.0001 2.85036 67.5535 6.3933C76.1069 9.93624 83.4176 15.936 88.5612 23.6339C93.7047 31.3317 96.4501 40.382 96.4501 49.6401C96.4505 55.7874 95.24 61.8746 92.8878 67.554C90.5355 73.2335 87.0875 78.3939 82.7407 82.7407C78.3939 87.0875 73.2335 90.5355 67.554 92.8878C61.8746 95.24 55.7874 96.4505 49.6401 96.4501V96.4501Z" fill="url(#paint0_linear)"/>
<path fill-rule="evenodd" clip-rule="evenodd" d="M95.54 49.64C95.54 58.7182 92.848 67.5925 87.8045 75.1407C82.7609 82.6889 75.5923 88.572 67.2052 92.0461C58.818 95.5201 49.5891 96.4291 40.6854 94.658C31.7816 92.887 23.603 88.5154 17.1838 82.0962C10.7646 75.677 6.39302 67.4984 4.62196 58.5946C2.85089 49.6909 3.75987 40.462 7.23393 32.0748C10.708 23.6877 16.5911 16.5191 24.1393 11.4755C31.6875 6.43199 40.5618 3.74 49.64 3.74C55.6677 3.73998 61.6363 4.9272 67.2052 7.23388C72.774 9.54057 77.834 12.9215 82.0963 17.1837C86.3585 21.446 89.7394 26.5059 92.0461 32.0748C94.3528 37.6437 95.54 43.6123 95.54 49.64V49.64ZM49.64 3.62732e-07C59.4579 3.62732e-07 69.0553 2.91134 77.2185 8.36585C85.3818 13.8204 91.7442 21.5731 95.5014 30.6436C99.2585 39.7141 100.242 49.6951 98.3262 59.3243C96.4108 68.9535 91.6831 77.7985 84.7408 84.7408C77.7985 91.6831 68.9535 96.4108 59.3243 98.3262C49.6951 100.242 39.7141 99.2585 30.6436 95.5014C21.5731 91.7442 13.8204 85.3818 8.36585 77.2185C2.91134 69.0553 3.62732e-07 59.4579 3.62732e-07 49.64C-0.000787738 43.121 1.28265 36.6656 3.77702 30.6427C6.27138 24.6197 9.9278 19.1471 14.5375 14.5375C19.1471 9.9278 24.6197 6.27138 30.6427 3.77702C36.6656 1.28265 43.121 -0.000787738 49.64 3.62732e-07V3.62732e-07Z" fill="#F2F1F0"/>
<path fill-rule="evenodd" clip-rule="evenodd" d="M92.7296 49.6406C92.7296 58.163 90.2024 66.494 85.4676 73.5801C80.7328 80.6662 74.0031 86.1892 66.1294 89.4505C58.2557 92.7119 49.5918 93.5653 41.2331 91.9026C32.8745 90.24 25.1966 86.1361 19.1703 80.1098C13.1441 74.0836 9.04017 66.4057 7.37753 58.047C5.7149 49.6884 6.56822 41.0244 9.8296 33.1507C13.091 25.2771 18.6139 18.5473 25.7 13.8126C32.7862 9.07776 41.1172 6.55058 49.6396 6.55058C55.2983 6.55023 60.9017 7.66455 66.1298 9.82991C71.3579 11.9953 76.1082 15.1692 80.1096 19.1706C84.1109 23.1719 87.2849 27.9223 89.4502 33.1503C91.6156 38.3784 92.7299 43.9818 92.7296 49.6406V49.6406ZM49.6396 2.81058C58.9017 2.81058 67.9558 5.55711 75.6569 10.7029C83.3581 15.8486 89.3604 23.1624 92.9049 31.7195C96.4493 40.2766 97.3767 49.6925 95.5697 58.7767C93.7628 67.8608 89.3027 76.2051 82.7534 82.7544C76.2041 89.3037 67.8598 93.7638 58.7757 95.5708C49.6915 97.3777 40.2756 96.4503 31.7185 92.9059C23.1614 89.3614 15.8476 83.3591 10.7018 75.6579C5.5561 67.9568 2.80957 58.9027 2.80957 49.6406C2.81076 37.2209 7.745 25.3101 16.5271 16.5281C25.3091 7.74599 37.2198 2.81174 49.6396 2.81055V2.81058Z" fill="#0078D4"/>
<path fill-rule="evenodd" clip-rule="evenodd" d="M26.9094 31.4512C25.8142 31.4544 24.7648 31.8908 23.9904 32.6652C23.216 33.4396 22.7796 34.489 22.7764 35.5841V64.5146H76.5045V35.5841C76.5013 34.489 76.0649 33.4396 75.2905 32.6652C74.5161 31.8908 73.4667 31.4544 72.3716 31.4512H26.9094ZM72.3716 33.5176C72.9194 33.5184 73.4446 33.7363 73.832 34.1237C74.2194 34.5111 74.4374 35.0363 74.4381 35.5841V62.4482H24.8429V35.5841C24.8434 35.0362 25.0613 34.5109 25.4487 34.1235C25.8362 33.7361 26.3615 33.5182 26.9094 33.5176H72.3716Z" fill="#1F56A3"/>
<path fill-rule="evenodd" clip-rule="evenodd" d="M24.8428 35.584C24.8433 35.0361 25.0612 34.5108 25.4486 34.1234C25.8361 33.736 26.3614 33.5181 26.9093 33.5176H72.3715C72.9194 33.5183 73.4446 33.7362 73.8319 34.1236C74.2193 34.511 74.4373 35.0362 74.438 35.584V62.4481H24.8428V35.584Z" fill="#0078D4"/>
<path d="M71.9819 35.9746H27.2979V59.994H71.9819V35.9746Z" fill="#1B93EB"/>
<path fill-rule="evenodd" clip-rule="evenodd" d="M16.5769 64.5156V65.5489C16.5801 66.644 17.0166 67.6934 17.791 68.4678C18.5653 69.2421 19.6147 69.6786 20.7098 69.6818H78.5709C79.666 69.6786 80.7154 69.2421 81.4898 68.4678C82.2642 67.6934 82.7006 66.644 82.7038 65.5489V64.5156H16.5769Z" fill="#0078D4"/>
<path fill-rule="evenodd" clip-rule="evenodd" d="M47.5735 67.6153H17.1541C17.5143 68.2406 18.0321 68.7604 18.656 69.123C19.2798 69.4856 19.9878 69.6783 20.7094 69.6818H78.5705C79.6656 69.6786 80.715 69.2421 81.4893 68.4678C82.2637 67.6934 82.7002 66.644 82.7034 65.5489V64.5156H49.64V65.5489C49.6401 65.8203 49.5867 66.089 49.4828 66.3398C49.379 66.5905 49.2268 66.8184 49.0349 67.0103C48.843 67.2022 48.6151 67.3544 48.3644 67.4582C48.1136 67.562 47.8449 67.6154 47.5735 67.6153V67.6153Z" fill="#1F56A3"/>
<path fill-rule="evenodd" clip-rule="evenodd" d="M45.5074 66.5821H53.7732C54.3212 66.5819 54.8467 66.3641 55.2342 65.9766C55.6217 65.5891 55.8395 65.0636 55.8397 64.5156H43.4409C43.4409 65.0637 43.6587 65.5893 44.0462 65.9768C44.4337 66.3643 44.9593 66.5821 45.5074 66.5821Z" fill="#003067"/>
<path d="M66.4626 38.7793H32.8324C31.609 38.7793 30.6172 39.7711 30.6172 40.9945V54.9715C30.6172 56.1949 31.609 57.1867 32.8324 57.1867H66.4626C67.686 57.1867 68.6778 56.1949 68.6778 54.9715V40.9945C68.6778 39.7711 67.686 38.7793 66.4626 38.7793Z" fill="white"/>
<path d="M36.0042 43.0508H63.2747" stroke="#E8E8E8" stroke-width="2.15428" stroke-miterlimit="10" stroke-linecap="round"/>
<path d="M36.0042 43.0508H56.9311" stroke="#50E6FF" stroke-width="2.15428" stroke-miterlimit="10" stroke-linecap="round"/>
<path d="M36.0042 47.9844H63.2747" stroke="#E8E8E8" stroke-width="2.15428" stroke-miterlimit="10" stroke-linecap="round"/>
<path d="M36.0042 47.9844H59.5771" stroke="#0078D4" stroke-width="2.15428" stroke-miterlimit="10" stroke-linecap="round"/>
<path d="M36.0042 52.918H63.2747" stroke="#E8E8E8" stroke-width="2.15428" stroke-miterlimit="10" stroke-linecap="round"/>
<path d="M36.0042 52.918H53.6162" stroke="#1F56A3" stroke-width="2.15428" stroke-miterlimit="10" stroke-linecap="round"/>
<path opacity="0.2" d="M36.3921 31.4512V31.4512C36.3921 34.9647 37.7878 38.3343 40.2722 40.8187C42.7566 43.3031 46.1262 44.6988 49.6397 44.6988C53.1531 44.6988 56.5227 43.3031 59.0071 40.8187C61.4915 38.3343 62.8872 34.9647 62.8872 31.4512V31.4512H36.3921Z" fill="#003067"/>
<path d="M49.6397 20.2051C51.8643 20.2051 54.0389 20.8648 55.8885 22.1007C57.7382 23.3366 59.1798 25.0932 60.0311 27.1484C60.8824 29.2037 61.1051 31.4652 60.6712 33.647C60.2372 35.8288 59.1659 37.8329 57.5929 39.4059C56.0199 40.9789 54.0158 42.0501 51.834 42.4841C49.6522 42.9181 47.3907 42.6954 45.3354 41.8441C43.2802 40.9928 41.5236 39.5512 40.2877 37.7015C39.0518 35.8519 38.3921 33.6773 38.3921 31.4527C38.3921 29.9756 38.683 28.513 39.2483 27.1484C39.8135 25.7838 40.642 24.5439 41.6864 23.4994C42.7309 22.455 43.9708 21.6265 45.3354 21.0612C46.7001 20.496 48.1627 20.2051 49.6397 20.2051V20.2051ZM52.9447 36.513H46.3346C47.0679 39.2279 48.3425 41.0134 49.6397 41.0134C50.9369 41.0134 52.2114 39.2279 52.9448 36.513H52.9447ZM44.5884 36.5137L41.5267 36.5135C42.6126 38.2508 44.226 39.5949 46.1309 40.3491C45.4886 39.2961 45.0071 38.1531 44.7024 36.9579L44.5884 36.5137ZM57.7526 36.5135L54.691 36.5137C54.3875 37.8673 53.8661 39.1627 53.1472 40.3491C54.9317 39.6432 56.4635 38.4182 57.5443 36.8324L57.7526 36.5135ZM44.1218 29.2028H40.3459L40.3406 29.2221C39.8973 31.0836 40.0194 33.0351 40.6914 34.8268L44.2599 34.8264C44.0949 33.7094 44.0131 32.5818 44.015 31.4527C44.015 30.6835 44.0515 29.9309 44.1218 29.2028ZM53.4598 29.2029H45.8196C45.7407 29.9502 45.7015 30.7012 45.7019 31.4527C45.7 32.5828 45.7901 33.7111 45.9715 34.8266H53.3079C53.4893 33.7111 53.5794 32.5828 53.5775 31.4527C53.5779 30.7012 53.5386 29.9502 53.4598 29.2029H53.4598ZM58.934 29.2019L55.1575 29.2028C55.2279 29.9309 55.2643 30.6835 55.2643 31.4527C55.2663 32.5818 55.1844 33.7094 55.0195 34.8264L58.5879 34.8268C59.2624 33.0284 59.3829 31.0693 58.9339 29.2018L58.934 29.2019ZM46.1322 22.5563L46.1064 22.5661C43.8045 23.4849 41.9474 25.2588 40.9243 27.5164L44.3522 27.5168C44.6237 25.7649 45.2279 24.0811 46.1322 22.5563V22.5563ZM49.6397 21.892L49.5096 21.898C48.0866 22.0281 46.7118 24.2795 46.0733 27.5163H53.2061C52.5694 24.2886 51.2005 22.0408 49.7817 21.8991L49.6397 21.892ZM53.1484 22.5563L53.2685 22.7521C54.101 24.2288 54.6627 25.8424 54.9272 27.5168L58.355 27.5164C57.3787 25.3622 55.6412 23.6444 53.4759 22.6927L53.1484 22.5563Z" fill="white"/>
<path d="M52.9447 36.5117H46.3345C47.0678 39.2265 48.3424 41.012 49.6396 41.012C50.9368 41.012 52.2113 39.2265 52.9447 36.5117ZM44.5883 36.5124L41.5266 36.5121C42.6125 38.2495 44.226 39.5936 46.1309 40.3478C45.4885 39.2948 45.007 38.1518 44.7023 36.9566L44.5883 36.5124ZM57.7525 36.5121L54.6909 36.5124C54.3874 37.866 53.866 39.1613 53.1471 40.3478C54.9317 39.6419 56.4634 38.4169 57.5442 36.8311L57.7525 36.5121ZM44.1217 29.2014H40.3458L40.3404 29.2208C39.8972 31.0823 40.0193 33.0338 40.6913 34.8255L44.2598 34.825C44.0948 33.7081 44.013 32.5804 44.0149 31.4514C44.0149 30.6822 44.0514 29.9296 44.1217 29.2014ZM53.4597 29.2015H45.8195C45.7406 29.9489 45.7013 30.6999 45.7018 31.4514C45.6999 32.5815 45.79 33.7098 45.9714 34.8252H53.3078C53.4892 33.7098 53.5793 32.5815 53.5774 31.4514C53.5778 30.6999 53.5385 29.9489 53.4597 29.2015H53.4597ZM58.9339 29.2005L55.1574 29.2015C55.2278 29.9296 55.2642 30.6822 55.2642 31.4514C55.2662 32.5804 55.1843 33.7081 55.0194 34.825L58.5878 34.8255C59.2623 33.0271 59.3828 31.068 58.9338 29.2005L58.9339 29.2005ZM46.1321 22.5549L46.1063 22.5647C43.8044 23.4835 41.9473 25.2575 40.9242 27.515L44.3521 27.5154C44.6236 25.7635 45.2278 24.0798 46.1321 22.5549V22.5549ZM49.6396 21.8906L49.5095 21.8966C48.0865 22.0268 46.7116 24.2782 46.0732 27.515H53.206C52.5692 24.2873 51.2004 22.0394 49.7816 21.8978L49.6396 21.8906ZM53.1483 22.555L53.2684 22.7508C54.1009 24.2274 54.6626 25.841 54.9271 27.5154L58.3549 27.515C57.3786 25.3608 55.641 23.6431 53.4758 22.6914L53.1483 22.555Z" fill="#50E6FF"/>
<path d="M51.4248 29.0127C51.0066 29.0126 50.5959 28.9022 50.2341 28.6926C49.8722 28.4831 49.5721 28.1817 49.364 27.819C49.156 27.4562 49.0473 27.045 49.0491 26.6269C49.0508 26.2087 49.1629 25.7984 49.374 25.4375L54.1572 17.2725C54.3668 16.9148 54.6663 16.6183 55.026 16.4122C55.3857 16.2061 55.793 16.0977 56.2075 16.0977C56.622 16.0977 57.0294 16.2061 57.389 16.4122C57.7487 16.6183 58.0482 16.9148 58.2578 17.2725L63.04 25.437C63.2513 25.7979 63.3636 26.2082 63.3655 26.6264C63.3674 27.0445 63.2589 27.4558 63.0509 27.8186C62.8429 28.1814 62.5428 28.4829 62.181 28.6926C61.8192 28.9022 61.4084 29.0127 60.9902 29.0127L51.4248 29.0127Z" fill="white"/>
<path d="M50.2379 25.9426L55.0208 17.7778C55.1421 17.5708 55.3154 17.3991 55.5236 17.2798C55.7318 17.1604 55.9675 17.0977 56.2075 17.0977C56.4475 17.0977 56.6832 17.1604 56.8914 17.2798C57.0996 17.3991 57.2729 17.5708 57.3942 17.7778L62.1771 25.9426C62.2995 26.1516 62.3645 26.3891 62.3657 26.6313C62.3668 26.8735 62.304 27.1116 62.1836 27.3217C62.0632 27.5318 61.8894 27.7064 61.6799 27.8278C61.4703 27.9492 61.2325 28.0132 60.9903 28.0132H51.4247C51.1825 28.0132 50.9446 27.9492 50.7351 27.8278C50.5256 27.7064 50.3518 27.5318 50.2314 27.3217C50.111 27.1116 50.0482 26.8735 50.0493 26.6313C50.0505 26.3891 50.1155 26.1516 50.2379 25.9426V25.9426Z" fill="#FF9300"/>
<path d="M51.4245 27.3252C51.3035 27.3251 51.1846 27.2931 51.0799 27.2324C50.9752 27.1717 50.8883 27.0844 50.8281 26.9794C50.7679 26.8743 50.7365 26.7553 50.7371 26.6342C50.7376 26.5132 50.7701 26.3944 50.8312 26.29L55.614 18.1251C55.6747 18.0216 55.7614 17.9358 55.8656 17.8762C55.9697 17.8165 56.0876 17.7851 56.2076 17.7852C56.3276 17.7852 56.4455 17.8166 56.5496 17.8762C56.6537 17.9359 56.7404 18.0218 56.801 18.1253L61.5835 26.29C61.6448 26.3944 61.6773 26.5132 61.6779 26.6343C61.6785 26.7554 61.6471 26.8745 61.5869 26.9795C61.5267 27.0846 61.4398 27.1719 61.335 27.2325C61.2303 27.2932 61.1113 27.3252 60.9902 27.3252H51.4245Z" fill="#FFCA00"/>
<path d="M56.2075 20.6562V23.9501" stroke="#FF9300" stroke-width="0.68768" stroke-miterlimit="10" stroke-linecap="round"/>
<path d="M56.2074 26.0349C56.4592 26.0349 56.6633 25.8308 56.6633 25.579C56.6633 25.3272 56.4592 25.123 56.2074 25.123C55.9556 25.123 55.7515 25.3272 55.7515 25.579C55.7515 25.8308 55.9556 26.0349 56.2074 26.0349Z" fill="#FF9300"/>
</g>
<defs>
<linearGradient id="paint0_linear" x1="47.8697" y1="-15.153" x2="51.8525" y2="130.615" gradientUnits="userSpaceOnUse">
<stop stop-color="#00ABDE"/>
<stop offset="1" stop-color="#007ED8"/>
</linearGradient>
<clipPath id="clip0">
<rect width="99.2799" height="99.28" fill="white"/>
</clipPath>
</defs>
</svg>
