<svg width="100" height="100" viewBox="0 0 100 100" fill="none" xmlns="http://www.w3.org/2000/svg">
<g clip-path="url(#clip0)">
<path d="M49.6401 96.4501C40.382 96.4501 31.3317 93.7047 23.6339 88.5612C15.936 83.4176 9.93624 76.1069 6.3933 67.5535C2.85036 59.0001 1.92337 49.5882 3.72954 40.5079C5.53571 31.4277 9.99394 23.0869 16.5404 16.5404C23.0869 9.99393 31.4277 5.53571 40.5079 3.72954C49.5882 1.92337 59.0001 2.85036 67.5535 6.3933C76.1069 9.93624 83.4176 15.936 88.5612 23.6339C93.7047 31.3317 96.4501 40.382 96.4501 49.6401C96.4505 55.7874 95.24 61.8746 92.8878 67.554C90.5355 73.2335 87.0875 78.3939 82.7407 82.7407C78.3939 87.0875 73.2335 90.5355 67.554 92.8878C61.8746 95.24 55.7874 96.4505 49.6401 96.4501V96.4501Z" fill="url(#paint0_linear)"/>
<path fill-rule="evenodd" clip-rule="evenodd" d="M95.54 49.64C95.54 58.7182 92.848 67.5925 87.8045 75.1407C82.7609 82.6889 75.5923 88.572 67.2052 92.0461C58.818 95.5201 49.5891 96.4291 40.6854 94.658C31.7816 92.887 23.603 88.5154 17.1838 82.0962C10.7646 75.677 6.39302 67.4984 4.62196 58.5946C2.85089 49.6909 3.75987 40.462 7.23393 32.0748C10.708 23.6877 16.5911 16.5191 24.1393 11.4755C31.6875 6.43199 40.5618 3.74 49.64 3.74C55.6677 3.73998 61.6363 4.9272 67.2052 7.23388C72.774 9.54057 77.834 12.9215 82.0963 17.1837C86.3585 21.446 89.7394 26.5059 92.0461 32.0748C94.3528 37.6437 95.54 43.6123 95.54 49.64V49.64ZM49.64 3.62732e-07C59.4579 3.62732e-07 69.0553 2.91134 77.2185 8.36585C85.3818 13.8204 91.7442 21.5731 95.5014 30.6436C99.2585 39.7141 100.242 49.6951 98.3262 59.3243C96.4108 68.9535 91.6831 77.7985 84.7408 84.7408C77.7985 91.6831 68.9535 96.4108 59.3243 98.3262C49.6951 100.242 39.7141 99.2585 30.6436 95.5014C21.5731 91.7442 13.8204 85.3818 8.36585 77.2185C2.91134 69.0553 3.62732e-07 59.4579 3.62732e-07 49.64C-0.000787738 43.121 1.28265 36.6656 3.77702 30.6427C6.27138 24.6197 9.9278 19.1471 14.5375 14.5375C19.1471 9.9278 24.6197 6.27138 30.6427 3.77702C36.6656 1.28265 43.121 -0.000787738 49.64 3.62732e-07V3.62732e-07Z" fill="#F2F1F0"/>
<path fill-rule="evenodd" clip-rule="evenodd" d="M92.7296 49.6406C92.7296 58.163 90.2024 66.494 85.4676 73.5801C80.7328 80.6662 74.0031 86.1892 66.1294 89.4505C58.2557 92.7119 49.5918 93.5653 41.2331 91.9026C32.8745 90.24 25.1966 86.1361 19.1703 80.1098C13.1441 74.0836 9.04017 66.4057 7.37753 58.047C5.7149 49.6884 6.56822 41.0244 9.8296 33.1507C13.091 25.2771 18.6139 18.5473 25.7 13.8126C32.7862 9.07776 41.1172 6.55058 49.6396 6.55058C55.2983 6.55023 60.9017 7.66455 66.1298 9.82991C71.3579 11.9953 76.1082 15.1692 80.1096 19.1706C84.1109 23.1719 87.2849 27.9223 89.4502 33.1503C91.6156 38.3784 92.7299 43.9818 92.7296 49.6406V49.6406ZM49.6396 2.81058C58.9017 2.81058 67.9558 5.55711 75.6569 10.7029C83.3581 15.8486 89.3604 23.1624 92.9049 31.7195C96.4493 40.2766 97.3767 49.6925 95.5697 58.7767C93.7628 67.8608 89.3027 76.2051 82.7534 82.7544C76.2041 89.3037 67.8598 93.7638 58.7757 95.5708C49.6915 97.3777 40.2756 96.4503 31.7185 92.9059C23.1614 89.3614 15.8476 83.3591 10.7018 75.6579C5.5561 67.9568 2.80957 58.9027 2.80957 49.6406C2.81076 37.2209 7.745 25.3101 16.5271 16.5281C25.3091 7.74599 37.2198 2.81174 49.6396 2.81055V2.81058Z" fill="#0078D4"/>
<path fill-rule="evenodd" clip-rule="evenodd" d="M92.7296 49.6405C92.7296 58.1629 90.2024 66.494 85.4676 73.5801C80.7328 80.6662 74.0031 86.1891 66.1294 89.4505C58.2557 92.7119 49.5918 93.5652 41.2331 91.9026C32.8745 90.24 25.1966 86.136 19.1703 80.1098C13.1441 74.0835 9.04017 66.4056 7.37753 58.047C5.7149 49.6883 6.56822 41.0244 9.8296 33.1507C13.091 25.277 18.6139 18.5473 25.7001 13.8125C32.7862 9.07773 41.1172 6.55055 49.6396 6.55055C55.2983 6.5502 60.9017 7.66452 66.1298 9.82988C71.3579 11.9952 76.1082 15.1692 80.1096 19.1705C84.1109 23.1719 87.2849 27.9222 89.4502 33.1503C91.6156 38.3784 92.7299 43.9818 92.7296 49.6405V49.6405ZM49.6396 2.81055C58.9017 2.81055 67.9558 5.55708 75.6569 10.7028C83.3581 15.8486 89.3604 23.1624 92.9048 31.7195C96.4493 40.2765 97.3767 49.6925 95.5697 58.7766C93.7628 67.8608 89.3027 76.2051 82.7534 82.7544C76.2041 89.3036 67.8598 93.7638 58.7757 95.5707C49.6915 97.3777 40.2756 96.4503 31.7185 92.9058C23.1614 89.3614 15.8476 83.3591 10.7018 75.6579C5.5561 67.9568 2.80957 58.9026 2.80957 49.6405C2.81076 37.2208 7.74501 25.3101 16.5271 16.5281C25.3091 7.74599 37.2198 2.81174 49.6396 2.81055V2.81055Z" fill="#0078D4"/>
<path d="M71.2362 23.9209C70.12 23.9209 69.0296 23.8801 67.9737 23.7994C66.9994 23.7242 66.0311 23.5859 65.0747 23.3854C64.1894 23.1993 63.3222 22.9355 62.4832 22.5972C61.6588 22.2612 60.8705 21.8425 60.1304 21.3477C58.8116 20.4457 57.3704 19.7374 55.8506 19.2444C54.4355 18.7975 52.9772 18.5009 51.4999 18.3594C51.3537 18.3454 51.2096 18.3379 51.0655 18.3379H48.1858C48.0417 18.3379 47.8976 18.3454 47.7513 18.3594C46.2733 18.5009 44.8143 18.7979 43.3985 19.2455C41.9024 19.7287 40.4819 20.4205 39.1789 21.3004C38.414 21.8132 37.6008 22.25 36.7509 22.6048C35.9226 22.9414 35.0652 23.2016 34.1895 23.3822C33.2223 23.5833 32.2432 23.7227 31.2582 23.7994C30.198 23.8801 29.1169 23.9206 28.0151 23.9209C26.847 23.921 25.7267 24.3851 24.9007 25.211C24.0747 26.037 23.6107 27.1573 23.6106 28.3254L23.6127 39.9883C23.63 40.5152 23.6557 41.0421 23.6859 41.5475C23.7203 42.1249 23.774 42.7024 23.8472 43.2798C23.9224 43.882 24.344 46.1218 24.4924 46.7058C25.2222 49.5639 26.3678 52.2992 27.8925 54.8244C29.3602 57.2517 31.0818 59.5161 33.0282 61.5795C34.9523 63.6165 37.0499 65.4824 39.2972 67.1561C41.4369 68.7522 43.6649 70.2263 45.9706 71.5713C46.643 71.9633 47.4075 72.1697 48.1858 72.1692H51.0655C51.8438 72.1697 52.6082 71.9633 53.2806 71.5713C55.5866 70.2263 57.8146 68.7518 59.954 67.155C62.2013 65.4821 64.2989 63.6169 66.2231 61.5806C68.1692 59.5166 69.8908 57.2519 71.3588 54.8244C72.8835 52.2992 74.0291 49.5638 74.7589 46.7057C74.9095 46.1218 75.2987 43.9669 75.3848 43.4142C75.4815 42.798 75.5489 42.1826 75.5869 41.5679C75.6235 40.9958 75.6414 40.4234 75.6407 39.8506V28.3254C75.6406 27.1573 75.1766 26.037 74.3506 25.211C73.5246 24.385 72.4043 23.921 71.2362 23.9209V23.9209Z" fill="white"/>
<path d="M51.0664 22.7422C52.2358 22.8529 53.3902 23.0868 54.5105 23.44C55.6299 23.8043 56.6912 24.3274 57.662 24.9933C58.6593 25.6634 59.7229 26.2291 60.836 26.6816C61.9147 27.1162 63.0295 27.4552 64.1676 27.6946C65.3111 27.9351 66.4691 28.1006 67.6342 28.1898C68.8048 28.2799 70.0053 28.3249 71.2359 28.3249V39.8503C71.2359 40.3306 71.2209 40.8108 71.1909 41.291C71.1609 41.7712 71.1084 42.2515 71.0333 42.7317H51.0664V22.7422ZM28.0154 28.3249C29.231 28.3249 30.4241 28.2798 31.5946 28.1898C32.7671 28.0995 33.9325 27.9341 35.0838 27.6946C36.2229 27.4594 37.3381 27.1203 38.4153 26.6816C39.5345 26.2177 40.6052 25.6447 41.6119 24.9707C42.5772 24.315 43.6307 23.7996 44.7409 23.44C45.8611 23.0868 47.0156 22.8529 48.185 22.7422V42.7317H28.218C28.158 42.2515 28.113 41.7712 28.0829 41.291C28.0529 40.8108 28.0304 40.3305 28.0154 39.8503L28.0154 28.3249ZM48.185 67.7636C46.0224 66.5022 43.9331 65.1193 41.927 63.6216C39.8844 62.1027 37.9787 60.408 36.2318 58.5567C34.4991 56.7215 32.9672 54.7066 31.6621 52.5463C30.3587 50.3905 29.3802 48.0543 28.7582 45.613H48.185V67.7636ZM51.0663 45.6131H70.4931C69.8711 48.0543 68.8926 50.3905 67.5892 52.5463C66.2841 54.7067 64.7522 56.7215 63.0195 58.5567C61.2726 60.408 59.3669 62.1028 57.3243 63.6216C55.3182 65.1194 53.2289 66.5022 51.0663 67.7636L51.0663 45.6131Z" fill="#0078D4"/>
<path d="M73.1192 51.4052C73.7941 49.8868 74.3426 48.3153 74.7589 46.7067C74.8301 46.4307 74.9546 45.8029 75.0751 45.1602C74.596 46.1491 73.9321 47.0372 73.1191 47.7765L73.1192 51.4052Z" fill="white"/>
<path opacity="0.2" d="M59.9541 67.1547C62.2013 65.4817 64.2989 63.6166 66.2231 61.5803C68.1693 59.5163 69.8908 57.2515 71.3589 54.8241C72.0181 53.7229 72.606 52.5805 73.1191 51.4041V47.7754C73.9321 47.0361 74.596 46.148 75.0751 45.159C75.2097 44.4417 75.3394 43.7055 75.3848 43.4139C75.4816 42.7978 75.549 42.1824 75.5869 41.5676C75.6235 40.9956 75.6414 40.4231 75.6406 39.8503V39.161C75.2889 37.8625 74.6371 36.6648 73.7378 35.6644C72.8386 34.6639 71.7169 33.8886 70.4632 33.4009C69.2095 32.9132 67.8587 32.7267 66.5198 32.8565C65.1808 32.9863 63.891 33.4287 62.7543 34.1481C61.6176 34.8675 60.6658 35.8438 59.9754 36.9984C59.285 38.153 58.8754 39.4536 58.7796 40.7954C58.6838 42.1372 58.9044 43.4828 59.4238 44.7237C59.9431 45.9647 60.7466 47.0663 61.7695 47.94V52.5366L53.0908 57.5645V71.6653C53.1537 71.6326 53.219 71.607 53.2806 71.5711C55.5866 70.226 57.8147 68.7515 59.9541 67.1547V67.1547Z" fill="#003067"/>
<path d="M79.8336 58.7436L71.1199 53.6545V46.8151C72.2809 46.0079 73.1518 44.849 73.6041 43.5093C74.0564 42.1695 74.0663 40.7199 73.6322 39.3741C73.1981 38.0283 72.343 36.8577 71.1931 36.0348C70.0432 35.2119 68.6593 34.7803 67.2454 34.8036C65.8315 34.827 64.4626 35.3041 63.3405 36.1645C62.2184 37.0249 61.4024 38.2232 61.013 39.5826C60.6236 40.9419 60.6813 42.3904 61.1777 43.7145C61.674 45.0386 62.5827 46.1681 63.7698 46.9365V53.6885L55.0908 58.7166V73.0554L67.4695 80.233L79.8494 73.0543L79.8336 58.7436Z" fill="white"/>
<path d="M72.2965 63.1094C72.7793 63.9621 73.032 64.9258 73.0297 65.9057C73.0273 66.8856 72.77 67.8481 72.283 68.6984C71.7961 69.5488 71.0962 70.2578 70.2523 70.7558C69.4083 71.2537 68.4493 71.5235 67.4695 71.5386V77.5724L77.5459 71.7297V60.0645L72.2965 63.1094Z" fill="#32BEDD"/>
<path d="M70.2021 55.7852V60.9537C70.612 61.1904 70.9897 61.4789 71.3258 61.8121C71.7082 62.1974 72.0322 62.6365 72.2876 63.1155L77.5325 60.0661L70.2021 55.7852Z" fill="#9CEBFF"/>
<path d="M63.301 61.8835C63.7064 61.4702 64.1752 61.1243 64.6897 60.8588V55.8184L57.3931 60.0453L62.465 62.9982C62.6975 62.5941 62.9782 62.2199 63.301 61.8835V61.8835Z" fill="#9CEBFF"/>
<path d="M67.3549 71.5506C66.3546 71.5548 65.3711 71.2936 64.5047 70.7938C63.6382 70.2939 62.9199 69.5732 62.4228 68.7051C61.9257 67.8371 61.6677 66.8527 61.6751 65.8525C61.6826 64.8522 61.9551 63.8718 62.465 63.0112L57.3931 60.0449V71.7304L67.4695 77.5731V71.5393C67.4358 71.5393 67.3976 71.5506 67.3549 71.5506Z" fill="#50E6FF"/>
<path d="M64.3459 68.9295C65.1586 69.7278 66.255 70.1706 67.3942 70.1605C67.9582 70.1555 68.5157 70.0394 69.0349 69.8189C69.5541 69.5985 70.0248 69.2779 70.4201 68.8755C70.8154 68.4731 71.1276 67.9968 71.3388 67.4738C71.55 66.9508 71.6561 66.3913 71.6511 65.8273C71.6461 65.2632 71.5301 64.7057 71.3096 64.1865C71.0891 63.6673 70.7685 63.1966 70.3662 62.8013C69.9256 62.3732 69.3973 62.0458 68.8178 61.8418V43.3945H66.0718V61.7901C65.362 62.0065 64.7209 62.4042 64.2116 62.9439C63.7024 63.4836 63.3425 64.1467 63.1677 64.8678C62.9928 65.5889 63.0088 66.3432 63.2143 67.0562C63.4197 67.7692 63.8074 68.4164 64.3392 68.9339L64.3459 68.9295Z" fill="url(#paint1_linear)"/>
<path d="M67.3549 45.7118C69.7267 45.7118 71.6493 43.7892 71.6493 41.4174C71.6493 39.0457 69.7267 37.123 67.3549 37.123C64.9832 37.123 63.0605 39.0457 63.0605 41.4174C63.0605 43.7892 64.9832 45.7118 67.3549 45.7118Z" fill="url(#paint2_linear)"/>
</g>
<defs>
<linearGradient id="paint0_linear" x1="47.8698" y1="-15.153" x2="51.8525" y2="130.615" gradientUnits="userSpaceOnUse">
<stop stop-color="#00ABDE"/>
<stop offset="1" stop-color="#007ED8"/>
</linearGradient>
<linearGradient id="paint1_linear" x1="67.3488" y1="42.8507" x2="67.3488" y2="70.2643" gradientUnits="userSpaceOnUse">
<stop stop-color="#E6E6E6"/>
<stop offset="1" stop-color="#999999"/>
</linearGradient>
<linearGradient id="paint2_linear" x1="67.3549" y1="37.3141" x2="67.3549" y2="45.9029" gradientUnits="userSpaceOnUse">
<stop stop-color="#50E6FF"/>
<stop offset="1" stop-color="#32BEDD"/>
</linearGradient>
<clipPath id="clip0">
<rect width="99.2799" height="99.28" fill="white"/>
</clipPath>
</defs>
</svg>
