<svg width="100" height="100" viewBox="0 0 100 100" fill="none" xmlns="http://www.w3.org/2000/svg">
<g clip-path="url(#clip0)">
<path d="M49.6401 96.4501C40.382 96.4501 31.3317 93.7047 23.6339 88.5612C15.936 83.4176 9.93624 76.1069 6.3933 67.5535C2.85036 59.0001 1.92337 49.5882 3.72954 40.5079C5.53571 31.4277 9.99394 23.0869 16.5404 16.5404C23.0869 9.99393 31.4277 5.53571 40.5079 3.72954C49.5882 1.92337 59.0001 2.85036 67.5535 6.3933C76.1069 9.93624 83.4176 15.936 88.5612 23.6339C93.7047 31.3317 96.4501 40.382 96.4501 49.6401C96.4505 55.7874 95.24 61.8746 92.8878 67.554C90.5355 73.2335 87.0875 78.3939 82.7407 82.7407C78.3939 87.0875 73.2335 90.5355 67.554 92.8878C61.8746 95.24 55.7874 96.4505 49.6401 96.4501V96.4501Z" fill="url(#paint0_linear)"/>
<path fill-rule="evenodd" clip-rule="evenodd" d="M95.54 49.64C95.54 58.7182 92.848 67.5925 87.8045 75.1407C82.7609 82.6889 75.5923 88.572 67.2052 92.0461C58.818 95.5201 49.5891 96.4291 40.6854 94.658C31.7816 92.887 23.603 88.5154 17.1838 82.0962C10.7646 75.677 6.39302 67.4984 4.62196 58.5946C2.85089 49.6909 3.75987 40.462 7.23393 32.0748C10.708 23.6877 16.5911 16.5191 24.1393 11.4755C31.6875 6.43199 40.5618 3.74 49.64 3.74C55.6677 3.73998 61.6363 4.9272 67.2052 7.23388C72.774 9.54057 77.834 12.9215 82.0963 17.1837C86.3585 21.446 89.7394 26.5059 92.0461 32.0748C94.3528 37.6437 95.54 43.6123 95.54 49.64V49.64ZM49.64 3.62732e-07C59.4579 3.62732e-07 69.0553 2.91134 77.2185 8.36585C85.3818 13.8204 91.7442 21.5731 95.5014 30.6436C99.2585 39.7141 100.242 49.6951 98.3262 59.3243C96.4108 68.9535 91.6831 77.7985 84.7408 84.7408C77.7985 91.6831 68.9535 96.4108 59.3243 98.3262C49.6951 100.242 39.7141 99.2585 30.6436 95.5014C21.5731 91.7442 13.8204 85.3818 8.36585 77.2185C2.91134 69.0553 3.62732e-07 59.4579 3.62732e-07 49.64C-0.000787738 43.121 1.28265 36.6656 3.77702 30.6427C6.27138 24.6197 9.9278 19.1471 14.5375 14.5375C19.1471 9.9278 24.6197 6.27138 30.6427 3.77702C36.6656 1.28265 43.121 -0.000787738 49.64 3.62732e-07V3.62732e-07Z" fill="#F2F1F0"/>
<path fill-rule="evenodd" clip-rule="evenodd" d="M92.7296 49.6406C92.7296 58.163 90.2024 66.494 85.4676 73.5801C80.7328 80.6662 74.0031 86.1892 66.1294 89.4505C58.2557 92.7119 49.5918 93.5653 41.2331 91.9026C32.8745 90.24 25.1966 86.1361 19.1703 80.1098C13.1441 74.0836 9.04017 66.4057 7.37753 58.047C5.7149 49.6884 6.56822 41.0244 9.8296 33.1507C13.091 25.2771 18.6139 18.5473 25.7 13.8126C32.7862 9.07776 41.1172 6.55058 49.6396 6.55058C55.2983 6.55023 60.9017 7.66455 66.1298 9.82991C71.3579 11.9953 76.1082 15.1692 80.1096 19.1706C84.1109 23.1719 87.2849 27.9223 89.4502 33.1503C91.6156 38.3784 92.7299 43.9818 92.7296 49.6406V49.6406ZM49.6396 2.81058C58.9017 2.81058 67.9558 5.55711 75.6569 10.7029C83.3581 15.8486 89.3604 23.1624 92.9049 31.7195C96.4493 40.2766 97.3767 49.6925 95.5697 58.7767C93.7628 67.8608 89.3027 76.2051 82.7534 82.7544C76.2041 89.3037 67.8598 93.7638 58.7757 95.5708C49.6915 97.3777 40.2756 96.4503 31.7185 92.9059C23.1614 89.3614 15.8476 83.3591 10.7018 75.6579C5.5561 67.9568 2.80957 58.9027 2.80957 49.6406C2.81076 37.2209 7.745 25.3101 16.5271 16.5281C25.3091 7.74599 37.2198 2.81174 49.6396 2.81055V2.81058Z" fill="#0078D4"/>
<path fill-rule="evenodd" clip-rule="evenodd" d="M92.7296 49.6405C92.7296 58.1629 90.2024 66.494 85.4676 73.5801C80.7328 80.6662 74.0031 86.1891 66.1294 89.4505C58.2557 92.7119 49.5918 93.5652 41.2331 91.9026C32.8745 90.24 25.1966 86.136 19.1703 80.1098C13.1441 74.0835 9.04017 66.4056 7.37753 58.047C5.7149 49.6883 6.56822 41.0244 9.8296 33.1507C13.091 25.277 18.6139 18.5473 25.7001 13.8125C32.7862 9.07773 41.1172 6.55055 49.6396 6.55055C55.2983 6.5502 60.9017 7.66452 66.1298 9.82988C71.3579 11.9952 76.1082 15.1692 80.1096 19.1705C84.1109 23.1719 87.2849 27.9222 89.4502 33.1503C91.6156 38.3784 92.7299 43.9818 92.7296 49.6405V49.6405ZM49.6396 2.81055C58.9017 2.81055 67.9558 5.55708 75.6569 10.7028C83.3581 15.8486 89.3604 23.1624 92.9048 31.7195C96.4493 40.2765 97.3767 49.6925 95.5697 58.7766C93.7628 67.8608 89.3027 76.2051 82.7534 82.7544C76.2041 89.3036 67.8598 93.7638 58.7757 95.5707C49.6915 97.3777 40.2756 96.4503 31.7185 92.9058C23.1614 89.3614 15.8476 83.3591 10.7018 75.6579C5.5561 67.9568 2.80957 58.9026 2.80957 49.6405C2.81076 37.2208 7.74501 25.3101 16.5271 16.5281C25.3091 7.74599 37.2198 2.81174 49.6396 2.81055V2.81055Z" fill="#0078D4"/>
<path d="M60.782 35.9415L52.919 31.3492V25.1775C53.9667 24.4491 54.7526 23.4034 55.1607 22.1944C55.5689 20.9855 55.5778 19.6773 55.1861 18.463C54.7944 17.2486 54.0228 16.1922 52.9851 15.4497C51.9475 14.7071 50.6986 14.3176 49.4228 14.3387C48.147 14.3598 46.9117 14.7903 45.8991 15.5667C44.8866 16.3431 44.1503 17.4244 43.7989 18.6511C43.4475 19.8777 43.4996 21.1848 43.9475 22.3796C44.3954 23.5744 45.2154 24.5937 46.2865 25.2871V31.3799L38.4548 35.9171V48.856L49.625 55.3328L60.7963 48.855L60.782 35.9415Z" fill="white"/>
<path d="M53.9807 39.8805C54.4164 40.65 54.6444 41.5195 54.6423 42.4038C54.6402 43.288 54.408 44.1565 53.9686 44.9239C53.5292 45.6912 52.8976 46.331 52.1361 46.7804C51.3745 47.2297 50.5091 47.4732 49.625 47.4868V52.9315L58.7177 47.6592V37.1328L53.9807 39.8805Z" fill="#32BEDD"/>
<path d="M52.0908 33.2715V37.9355C52.4607 38.149 52.8015 38.4094 53.1047 38.7101C53.4498 39.0577 53.7422 39.454 53.9726 39.8862L58.7055 37.1344L52.0908 33.2715Z" fill="#9CEBFF"/>
<path d="M45.8633 38.7738C46.2292 38.4009 46.6522 38.0887 47.1165 37.8492V33.3008L40.5322 37.1151L45.109 39.7796C45.3188 39.4151 45.5721 39.0773 45.8633 38.7738V38.7738Z" fill="#9CEBFF"/>
<path d="M49.5215 47.4976C48.6189 47.5014 47.7314 47.2658 46.9495 46.8147C46.1677 46.3636 45.5194 45.7133 45.0709 44.93C44.6223 44.1467 44.3895 43.2584 44.3962 42.3558C44.4029 41.4532 44.6489 40.5685 45.109 39.7919L40.5322 37.1152V47.6598L49.6249 52.9322V47.4875C49.5945 47.4875 49.56 47.4976 49.5215 47.4976Z" fill="#50E6FF"/>
<path d="M46.8063 45.1318C47.1694 45.4885 47.5992 45.7702 48.0712 45.9608C48.5431 46.1514 49.048 46.2472 49.557 46.2427C50.0659 46.2382 50.569 46.1335 51.0375 45.9345C51.506 45.7356 51.9308 45.4463 52.2875 45.0832C52.6442 44.7201 52.9259 44.2903 53.1165 43.8183C53.3071 43.3464 53.4028 42.8415 53.3983 42.3325C53.3938 41.8235 53.2891 41.3204 53.0901 40.8519C52.8912 40.3834 52.6019 39.9587 52.2388 39.602C51.8413 39.2156 51.3646 38.9202 50.8417 38.7361V22.0898H48.3637V38.6895C47.7232 38.8848 47.1447 39.2436 46.6851 39.7306C46.2256 40.2176 45.9009 40.816 45.7431 41.4667C45.5852 42.1174 45.5997 42.7981 45.7851 43.4415C45.9705 44.0849 46.3204 44.6689 46.8002 45.1359L46.8063 45.1318Z" fill="url(#paint1_linear)"/>
<path d="M49.5216 24.1819C51.6618 24.1819 53.3968 22.447 53.3968 20.3068C53.3968 18.1666 51.6618 16.4316 49.5216 16.4316C47.3814 16.4316 45.6465 18.1666 45.6465 20.3068C45.6465 22.447 47.3814 24.1819 49.5216 24.1819Z" fill="url(#paint2_linear)"/>
<path d="M33.5659 43.2852H31.5659C31.4333 43.2852 31.3061 43.2325 31.2124 43.1387C31.1186 43.0449 31.0659 42.9178 31.0659 42.7852C31.0659 42.6525 31.1186 42.5254 31.2124 42.4316C31.3061 42.3378 31.4333 42.2852 31.5659 42.2852H33.5659C33.6985 42.2852 33.8257 42.3378 33.9195 42.4316C34.0132 42.5254 34.0659 42.6525 34.0659 42.7852C34.0659 42.9178 34.0132 43.0449 33.9195 43.1387C33.8257 43.2325 33.6985 43.2852 33.5659 43.2852Z" fill="white"/>
<path d="M71.7622 75.4116H67.7398C67.6071 75.4116 67.48 75.3589 67.3862 75.2652C67.2924 75.1714 67.2398 75.0442 67.2398 74.9116C67.2398 74.779 67.2924 74.6518 67.3862 74.5581C67.48 74.4643 67.6071 74.4116 67.7398 74.4116H71.7622C71.8948 74.4116 72.022 74.4643 72.1158 74.5581C72.2095 74.6518 72.2622 74.779 72.2622 74.9116C72.2622 75.0442 72.2095 75.1714 72.1158 75.2652C72.022 75.3589 71.8948 75.4116 71.7622 75.4116ZM63.7173 75.4116H59.6948C59.5622 75.4116 59.435 75.3589 59.3413 75.2652C59.2475 75.1714 59.1948 75.0442 59.1948 74.9116C59.1948 74.779 59.2475 74.6518 59.3413 74.5581C59.435 74.4643 59.5622 74.4116 59.6948 74.4116H63.7173C63.8499 74.4116 63.9771 74.4643 64.0708 74.5581C64.1646 74.6518 64.2173 74.779 64.2173 74.9116C64.2173 75.0442 64.1646 75.1714 64.0708 75.2652C63.9771 75.3589 63.8499 75.4116 63.7173 75.4116ZM55.6724 75.4116H51.6499C51.5173 75.4116 51.3901 75.3589 51.2964 75.2652C51.2026 75.1714 51.1499 75.0442 51.1499 74.9116C51.1499 74.779 51.2026 74.6518 51.2964 74.5581C51.3901 74.4643 51.5173 74.4116 51.6499 74.4116H55.6724C55.805 74.4116 55.9322 74.4643 56.0259 74.5581C56.1197 74.6518 56.1724 74.779 56.1724 74.9116C56.1724 75.0442 56.1197 75.1714 56.0259 75.2652C55.9322 75.3589 55.805 75.4116 55.6724 75.4116ZM47.6275 75.4116H43.605C43.4724 75.4116 43.3452 75.3589 43.2515 75.2652C43.1577 75.1714 43.105 75.0442 43.105 74.9116C43.105 74.779 43.1577 74.6518 43.2515 74.5581C43.3452 74.4643 43.4724 74.4116 43.605 74.4116H47.6275C47.7601 74.4116 47.8873 74.4643 47.9811 74.5581C48.0748 74.6518 48.1275 74.779 48.1275 74.9116C48.1275 75.0442 48.0748 75.1714 47.9811 75.2652C47.8873 75.3589 47.7601 75.4116 47.6275 75.4116H47.6275ZM39.5825 75.4116H35.56C35.4274 75.4116 35.3002 75.3589 35.2065 75.2652C35.1127 75.1714 35.06 75.0442 35.06 74.9116C35.06 74.779 35.1127 74.6518 35.2065 74.5581C35.3002 74.4643 35.4274 74.4116 35.56 74.4116H39.5825C39.7151 74.4116 39.8423 74.4643 39.936 74.5581C40.0298 74.6518 40.0825 74.779 40.0825 74.9116C40.0825 75.0442 40.0298 75.1714 39.936 75.2652C39.8423 75.3589 39.7151 75.4116 39.5825 75.4116H39.5825ZM31.5376 75.4116H27.5151C27.3825 75.4116 27.2554 75.3589 27.1616 75.2652C27.0678 75.1714 27.0151 75.0442 27.0151 74.9116C27.0151 74.779 27.0678 74.6518 27.1616 74.5581C27.2554 74.4643 27.3825 74.4116 27.5151 74.4116H31.5376C31.6702 74.4116 31.7974 74.4643 31.8912 74.5581C31.9849 74.6518 32.0376 74.779 32.0376 74.9116C32.0376 75.0442 31.9849 75.1714 31.8912 75.2652C31.7974 75.3589 31.6702 75.4116 31.5376 75.4116V75.4116ZM23.5972 74.8735C23.5017 74.8736 23.4081 74.8463 23.3276 74.7949C22.7688 74.44 22.3088 73.9494 21.9905 73.3688C21.6723 72.7883 21.506 72.1367 21.5073 71.4746V70.9019C21.5073 70.7693 21.56 70.6421 21.6538 70.5483C21.7475 70.4545 21.8747 70.4019 22.0073 70.4019C22.1399 70.4019 22.2671 70.4545 22.3609 70.5483C22.4547 70.6421 22.5073 70.7693 22.5073 70.9019V71.4746C22.5063 71.9688 22.6304 72.4551 22.8681 72.8883C23.1058 73.3216 23.4494 73.6875 23.8667 73.9521C23.9576 74.0105 24.0272 74.0968 24.0651 74.198C24.1029 74.2992 24.107 74.41 24.0767 74.5137C24.0463 74.6174 23.9832 74.7085 23.8968 74.7734C23.8103 74.8382 23.7052 74.8734 23.5972 74.8735V74.8735ZM75.6372 74.7334C75.5321 74.7334 75.4297 74.7003 75.3445 74.6388C75.2593 74.5773 75.1957 74.4905 75.1626 74.3908C75.1295 74.2911 75.1287 74.1835 75.1602 74.0833C75.1918 73.983 75.2541 73.8953 75.3383 73.8325C75.7075 73.5603 76.0074 73.2049 76.2135 72.7952C76.4197 72.3854 76.5263 71.9328 76.5249 71.4741V70.6558C76.5249 70.5232 76.5775 70.396 76.6713 70.3022C76.7651 70.2084 76.8923 70.1558 77.0249 70.1558C77.1575 70.1558 77.2847 70.2084 77.3784 70.3022C77.4722 70.396 77.5249 70.5232 77.5249 70.6558V71.4746C77.5231 72.0884 77.3786 72.6934 77.1029 73.2417C76.8272 73.7901 76.4277 74.2668 75.936 74.6343C75.8498 74.6988 75.7449 74.7336 75.6372 74.7334H75.6372ZM22.0073 67.3794C21.9417 67.3794 21.8766 67.3665 21.8159 67.3414C21.7553 67.3163 21.7001 67.2795 21.6537 67.233C21.6073 67.1866 21.5704 67.1315 21.5453 67.0708C21.5202 67.0101 21.5073 66.9451 21.5073 66.8794V62.8569C21.5073 62.7243 21.56 62.5971 21.6538 62.5034C21.7475 62.4096 21.8747 62.3569 22.0073 62.3569C22.1399 62.3569 22.2671 62.4096 22.3609 62.5034C22.4547 62.5971 22.5073 62.7243 22.5073 62.8569V66.8794C22.5074 66.9451 22.4945 67.0101 22.4693 67.0708C22.4442 67.1315 22.4074 67.1866 22.361 67.233C22.3145 67.2795 22.2594 67.3163 22.1987 67.3414C22.138 67.3665 22.073 67.3794 22.0073 67.3794ZM77.0249 67.1333C76.9592 67.1333 76.8942 67.1204 76.8335 67.0953C76.7728 67.0702 76.7177 67.0334 76.6713 66.9869C76.6248 66.9405 76.588 66.8854 76.5629 66.8247C76.5378 66.764 76.5249 66.699 76.5249 66.6333V62.6108C76.5249 62.4782 76.5776 62.3511 76.6714 62.2573C76.7651 62.1635 76.8923 62.1108 77.0249 62.1108C77.1575 62.1108 77.2847 62.1635 77.3785 62.2573C77.4722 62.3511 77.5249 62.4782 77.5249 62.6108V66.6333C77.5249 66.699 77.512 66.764 77.4869 66.8247C77.4618 66.8854 77.425 66.9405 77.3785 66.9869C77.3321 67.0334 77.277 67.0702 77.2163 67.0953C77.1556 67.1204 77.0906 67.1333 77.0249 67.1333V67.1333ZM22.0073 59.3345C21.9417 59.3345 21.8766 59.3216 21.8159 59.2965C21.7553 59.2714 21.7001 59.2345 21.6537 59.1881C21.6073 59.1417 21.5704 59.0865 21.5453 59.0259C21.5202 58.9652 21.5073 58.9001 21.5073 58.8345V54.812C21.5073 54.6794 21.56 54.5522 21.6538 54.4584C21.7475 54.3647 21.8747 54.312 22.0073 54.312C22.1399 54.312 22.2671 54.3647 22.3609 54.4584C22.4547 54.5522 22.5073 54.6794 22.5073 54.812V58.8345C22.5074 58.9001 22.4945 58.9652 22.4694 59.0258C22.4442 59.0865 22.4074 59.1417 22.361 59.1881C22.3145 59.2345 22.2594 59.2714 22.1987 59.2965C22.138 59.3216 22.073 59.3345 22.0073 59.3345V59.3345ZM77.0249 59.0884C76.9592 59.0884 76.8942 59.0755 76.8335 59.0504C76.7728 59.0253 76.7177 58.9885 76.6713 58.942C76.6248 58.8956 76.588 58.8404 76.5629 58.7798C76.5378 58.7191 76.5249 58.6541 76.5249 58.5884V54.5664C76.5249 54.4338 76.5776 54.3066 76.6714 54.2128C76.7651 54.1191 76.8923 54.0664 77.0249 54.0664C77.1575 54.0664 77.2847 54.1191 77.3785 54.2128C77.4722 54.3066 77.5249 54.4338 77.5249 54.5664V58.5884C77.5249 58.6541 77.512 58.7191 77.4869 58.7798C77.4618 58.8404 77.425 58.8956 77.3785 58.942C77.3321 58.9885 77.277 59.0253 77.2163 59.0504C77.1556 59.0755 77.0906 59.0884 77.0249 59.0884ZM22.0073 51.2895C21.9417 51.2896 21.8766 51.2767 21.8159 51.2516C21.7553 51.2265 21.7001 51.1896 21.6537 51.1432C21.6073 51.0968 21.5704 51.0416 21.5453 50.9809C21.5202 50.9203 21.5073 50.8552 21.5073 50.7895V46.7671C21.5073 46.6345 21.56 46.5073 21.6538 46.4135C21.7475 46.3198 21.8747 46.2671 22.0073 46.2671C22.1399 46.2671 22.2671 46.3198 22.3609 46.4135C22.4547 46.5073 22.5073 46.6345 22.5073 46.7671V50.7895C22.5074 50.8552 22.4945 50.9203 22.4693 50.9809C22.4442 51.0416 22.4074 51.0968 22.361 51.1432C22.3145 51.1896 22.2594 51.2265 22.1987 51.2516C22.138 51.2767 22.073 51.2896 22.0073 51.2895V51.2895ZM77.0249 51.0439C76.9592 51.044 76.8942 51.0311 76.8335 51.006C76.7728 50.9809 76.7177 50.944 76.6713 50.8976C76.6248 50.8511 76.588 50.796 76.5629 50.7353C76.5378 50.6747 76.5249 50.6096 76.5249 50.5439V46.5215C76.5249 46.3889 76.5776 46.2617 76.6714 46.1679C76.7651 46.0742 76.8923 46.0215 77.0249 46.0215C77.1575 46.0215 77.2847 46.0742 77.3785 46.1679C77.4722 46.2617 77.5249 46.3889 77.5249 46.5215V50.544C77.5249 50.6097 77.512 50.6747 77.4869 50.7354C77.4618 50.7961 77.425 50.8512 77.3785 50.8976C77.3321 50.9441 77.277 50.9809 77.2163 51.006C77.1556 51.0311 77.0906 51.044 77.0249 51.044V51.0439ZM23.6206 43.8091C23.5121 43.8092 23.4064 43.774 23.3196 43.7088C23.2329 43.6436 23.1697 43.5519 23.1397 43.4476C23.1097 43.3432 23.1145 43.232 23.1533 43.1306C23.1921 43.0292 23.2629 42.9433 23.355 42.8857C23.981 42.4925 24.7055 42.2843 25.4448 42.2852H27.5435C27.6761 42.2852 27.8032 42.3378 27.897 42.4316C27.9908 42.5254 28.0435 42.6526 28.0435 42.7852C28.0435 42.9178 27.9908 43.0449 27.897 43.1387C27.8032 43.2325 27.6761 43.2852 27.5435 43.2852H25.4448C24.8935 43.2845 24.3533 43.4395 23.8862 43.7324C23.8068 43.7827 23.7146 43.8092 23.6206 43.8091ZM75.1987 43.6861C75.1167 43.686 75.0359 43.6659 74.9634 43.6275C74.5396 43.4025 74.0671 43.2849 73.5874 43.2852H71.2427C71.1101 43.2852 70.9829 43.2325 70.8891 43.1388C70.7954 43.045 70.7427 42.9178 70.7427 42.7852C70.7427 42.6526 70.7954 42.5254 70.8891 42.4316C70.9829 42.3379 71.1101 42.2852 71.2427 42.2852H73.5874C74.2313 42.2852 74.8653 42.4429 75.4341 42.7447C75.5325 42.7972 75.6105 42.8811 75.6558 42.983C75.701 43.0849 75.7109 43.199 75.6839 43.3072C75.6568 43.4154 75.5944 43.5115 75.5065 43.5801C75.4186 43.6488 75.3103 43.6861 75.1987 43.6861V43.6861Z" fill="white"/>
<path d="M67.1802 43.2852H65.1802C65.0476 43.2852 64.9204 43.2325 64.8266 43.1387C64.7329 43.0449 64.6802 42.9178 64.6802 42.7852C64.6802 42.6525 64.7329 42.5254 64.8266 42.4316C64.9204 42.3378 65.0476 42.2852 65.1802 42.2852H67.1802C67.3128 42.2852 67.44 42.3378 67.5337 42.4316C67.6275 42.5254 67.6802 42.6525 67.6802 42.7852C67.6802 42.9178 67.6275 43.0449 67.5337 43.1387C67.44 43.2325 67.3128 43.2852 67.1802 43.2852Z" fill="white"/>
<path d="M26.6635 63.2762L32.514 53.2888C32.6129 53.1201 32.7542 52.9801 32.9239 52.8828C33.0936 52.7855 33.2858 52.7344 33.4814 52.7344C33.677 52.7344 33.8692 52.7855 34.0389 52.8828C34.2086 52.9801 34.3499 53.1201 34.4488 53.2888L40.2993 63.2762C40.3991 63.4466 40.4521 63.6402 40.453 63.8376C40.4539 64.035 40.4027 64.2292 40.3046 64.4004C40.2064 64.5717 40.0648 64.714 39.894 64.813C39.7232 64.912 39.5293 64.9641 39.3319 64.9641H27.6309C27.4335 64.9641 27.2396 64.912 27.0688 64.813C26.898 64.714 26.7564 64.5717 26.6582 64.4004C26.56 64.2292 26.5088 64.035 26.5098 63.8376C26.5107 63.6402 26.5637 63.4466 26.6635 63.2762V63.2762Z" fill="#FF9300"/>
<path d="M27.6312 64.2153C27.5654 64.2154 27.5007 64.1981 27.4438 64.1651C27.3868 64.1321 27.3396 64.0847 27.3069 64.0276C27.2741 63.9706 27.257 63.9059 27.2573 63.8401C27.2576 63.7743 27.2753 63.7097 27.3085 63.6529L33.1588 53.6653C33.1918 53.609 33.2389 53.5624 33.2955 53.5299C33.3522 53.4975 33.4163 53.4805 33.4815 53.4805C33.5467 53.4805 33.6108 53.4976 33.6674 53.53C33.724 53.5625 33.7711 53.6092 33.8041 53.6655L39.6543 63.6528C39.6876 63.7095 39.7053 63.7741 39.7056 63.8398C39.7059 63.9056 39.6889 63.9703 39.6562 64.0274C39.6235 64.0845 39.5763 64.1319 39.5194 64.1649C39.4625 64.1979 39.3979 64.2153 39.3321 64.2153H27.6312Z" fill="#FFCA00"/>
<path d="M33.4814 56.9668V60.5468" stroke="#FF9300" stroke-width="0.74743" stroke-miterlimit="10" stroke-linecap="round"/>
<path d="M33.4814 62.8114C33.7551 62.8114 33.9769 62.5895 33.9769 62.3159C33.9769 62.0422 33.7551 61.8203 33.4814 61.8203C33.2077 61.8203 32.9858 62.0422 32.9858 62.3159C32.9858 62.5895 33.2077 62.8114 33.4814 62.8114Z" fill="#FF9300"/>
<path d="M42.8222 68.0907L48.6727 58.1033C48.7716 57.9345 48.9129 57.7945 49.0826 57.6973C49.2523 57.6 49.4445 57.5488 49.6401 57.5488C49.8357 57.5488 50.0279 57.6 50.1976 57.6973C50.3673 57.7945 50.5086 57.9345 50.6075 58.1033L56.458 68.0907C56.5577 68.261 56.6108 68.4547 56.6117 68.6521C56.6126 68.8495 56.5614 69.0436 56.4633 69.2149C56.3651 69.3861 56.2235 69.5285 56.0527 69.6274C55.8819 69.7264 55.688 69.7785 55.4906 69.7785H43.7896C43.5922 69.7785 43.3983 69.7264 43.2275 69.6274C43.0567 69.5284 42.915 69.3861 42.8169 69.2149C42.7187 69.0436 42.6675 68.8495 42.6685 68.6521C42.6694 68.4547 42.7224 68.261 42.8222 68.0907Z" fill="#FF9300"/>
<path d="M43.7896 69.0298C43.7238 69.0298 43.6592 69.0125 43.6022 68.9795C43.5453 68.9466 43.4981 68.8992 43.4653 68.8421C43.4326 68.785 43.4155 68.7203 43.4158 68.6545C43.4161 68.5887 43.4337 68.5242 43.467 68.4674L49.3173 58.4798C49.3502 58.4235 49.3974 58.3768 49.454 58.3444C49.5106 58.312 49.5747 58.2949 49.6399 58.2949C49.7052 58.2949 49.7693 58.312 49.8259 58.3445C49.8824 58.3769 49.9296 58.4236 49.9625 58.4799L55.8128 68.4672C55.846 68.524 55.8637 68.5885 55.864 68.6543C55.8644 68.7201 55.8473 68.7848 55.8146 68.8418C55.7819 68.8989 55.7347 68.9464 55.6778 68.9794C55.6209 69.0124 55.5563 69.0298 55.4905 69.0298H43.7896Z" fill="#FFCA00"/>
<path d="M49.6399 61.7812V65.3613" stroke="#FF9300" stroke-width="0.74743" stroke-miterlimit="10" stroke-linecap="round"/>
<path d="M49.6401 67.6278C49.9138 67.6278 50.1356 67.406 50.1356 67.1323C50.1356 66.8586 49.9138 66.6367 49.6401 66.6367C49.3664 66.6367 49.1445 66.8586 49.1445 67.1323C49.1445 67.406 49.3664 67.6278 49.6401 67.6278Z" fill="#FF9300"/>
<path d="M58.8732 63.2762L64.7237 53.2888C64.8226 53.1201 64.9639 52.9801 65.1336 52.8828C65.3033 52.7856 65.4955 52.7344 65.6911 52.7344C65.8867 52.7344 66.0789 52.7856 66.2486 52.8828C66.4183 52.9801 66.5596 53.1201 66.6585 53.2888L72.509 63.2762C72.6088 63.4466 72.6618 63.6402 72.6627 63.8376C72.6637 64.035 72.6125 64.2292 72.5143 64.4004C72.4161 64.5717 72.2745 64.714 72.1037 64.813C71.9329 64.912 71.739 64.9641 71.5416 64.9641H59.8406C59.6432 64.9641 59.4493 64.912 59.2785 64.813C59.1077 64.714 58.9661 64.5717 58.8679 64.4004C58.7698 64.2292 58.7186 64.035 58.7195 63.8376C58.7204 63.6402 58.7735 63.4466 58.8732 63.2762V63.2762Z" fill="#FF9300"/>
<path d="M59.8406 64.2153C59.7748 64.2154 59.7102 64.1981 59.6533 64.1651C59.5963 64.1321 59.5491 64.0847 59.5163 64.0276C59.4836 63.9706 59.4665 63.9059 59.4668 63.8401C59.4671 63.7743 59.4848 63.7097 59.518 63.6529L65.3683 53.6653C65.4013 53.609 65.4484 53.5624 65.505 53.5299C65.5616 53.4975 65.6257 53.4805 65.691 53.4805C65.7562 53.4805 65.8203 53.4976 65.8769 53.53C65.9335 53.5625 65.9806 53.6092 66.0135 53.6655L71.8638 63.6528C71.8971 63.7095 71.9147 63.7741 71.9151 63.8398C71.9154 63.9056 71.8983 63.9703 71.8656 64.0274C71.8329 64.0845 71.7858 64.1319 71.7289 64.1649C71.672 64.1979 71.6073 64.2153 71.5416 64.2153H59.8406Z" fill="#FFCA00"/>
<path d="M65.6909 56.9668V60.5468" stroke="#FF9300" stroke-width="0.74743" stroke-miterlimit="10" stroke-linecap="round"/>
<path d="M65.6911 62.8114C65.9648 62.8114 66.1867 62.5895 66.1867 62.3159C66.1867 62.0422 65.9648 61.8203 65.6911 61.8203C65.4174 61.8203 65.1956 62.0422 65.1956 62.3159C65.1956 62.5895 65.4174 62.8114 65.6911 62.8114Z" fill="#FF9300"/>
</g>
<defs>
<linearGradient id="paint0_linear" x1="47.8698" y1="-15.153" x2="51.8525" y2="130.615" gradientUnits="userSpaceOnUse">
<stop stop-color="#00ABDE"/>
<stop offset="1" stop-color="#007ED8"/>
</linearGradient>
<linearGradient id="paint1_linear" x1="49.516" y1="21.5991" x2="49.516" y2="46.3364" gradientUnits="userSpaceOnUse">
<stop stop-color="#E6E6E6"/>
<stop offset="1" stop-color="#999999"/>
</linearGradient>
<linearGradient id="paint2_linear" x1="49.5216" y1="16.604" x2="49.5216" y2="24.3543" gradientUnits="userSpaceOnUse">
<stop stop-color="#50E6FF"/>
<stop offset="1" stop-color="#32BEDD"/>
</linearGradient>
<clipPath id="clip0">
<rect width="99.2799" height="99.28" fill="white"/>
</clipPath>
</defs>
</svg>
