<svg width="160" height="188" viewBox="0 0 160 188" fill="none" xmlns="http://www.w3.org/2000/svg">
<g clip-path="url(#clip0)">
<path d="M79.6779 188C82.7592 187.994 85.7796 187.141 88.4083 185.534L150.384 147.874C153.165 146.11 155.449 143.665 157.019 140.771C158.589 137.876 159.394 134.628 159.356 131.336V56.6207C159.392 53.3283 158.587 50.0812 157.017 47.1871C155.447 44.2929 153.163 41.8476 150.384 40.0829L88.4083 2.4228C85.7749 0.837605 82.7592 0 79.6855 0C76.6118 0 73.5961 0.837605 70.9627 2.4228L8.9876 40.098C6.2045 41.8604 3.91796 44.3048 2.34499 47.1991C0.772021 50.0935 -0.0351786 53.3418 4.1431e-06 56.6358V131.336C-0.0185283 134.119 0.556189 136.874 1.68588 139.418C2.81557 141.962 4.4743 144.236 6.5516 146.089V146.115L70.9627 185.549C73.5884 187.149 76.6032 187.996 79.6779 188V188ZM80.3257 6.95218C82.2776 6.95218 84.7548 8.1651 86.4646 9.20912L147.222 46.4034C150.974 48.6881 153.09 55.2842 153.09 60.0352L152.458 131.336C152.458 136.087 149.259 140.355 145.506 142.64L85.1104 179.021C81.6758 181.109 78.8854 181.109 75.4507 179.021L14.2427 142.549C10.4903 140.265 7.47191 136.072 7.47191 131.336V57.688C7.50442 55.3228 8.11341 53.0013 9.24608 50.9247C10.3787 48.8482 12.0009 47.0792 13.9718 45.7714L74.548 9.20912C76.2577 8.1651 78.3739 6.95218 80.3257 6.95218Z" fill="#F2F1F0"/>
<path fill-rule="evenodd" clip-rule="evenodd" d="M87.5765 10.5318C85.2056 9.05825 82.4697 8.27734 79.6783 8.27734C76.8868 8.27734 74.1509 9.05825 71.7801 10.5318L15.6454 44.8632C13.1193 46.4748 11.047 48.7052 9.625 51.3427C8.203 53.9801 7.47851 56.9372 7.52026 59.9333V128.036C7.48034 131.032 8.20562 133.989 9.62745 136.626C11.0493 139.263 13.1206 141.493 15.6454 143.106L71.7801 177.437C74.1508 178.911 76.8867 179.692 79.6783 179.692C82.4698 179.692 85.2057 178.911 87.5765 177.437L143.711 143.106C146.236 141.494 148.307 139.263 149.729 136.626C151.151 133.989 151.877 131.032 151.837 128.036V59.9333C151.875 56.9377 151.149 53.9819 149.727 51.3451C148.305 48.7082 146.234 46.4773 143.711 44.8632L87.5765 10.5318Z" fill="url(#paint0_linear)"/>
<path fill-rule="evenodd" clip-rule="evenodd" d="M79.6783 9.7539C81.3615 9.7539 83.2442 10.6196 85.311 11.8777L143.777 47.4201C145.668 48.6335 147.218 50.3104 148.278 52.2914C149.339 54.2725 149.875 56.4918 149.837 58.7386V129.217C149.875 131.464 149.339 133.683 148.278 135.664C147.218 137.645 145.668 139.322 143.777 140.535L85.312 176.077L85.311 176.078C83.6408 177.217 81.6958 177.888 79.6783 178.021C77.6609 177.888 75.7158 177.217 74.0456 176.078L74.0446 176.077L15.5823 140.537L15.5801 140.536C13.7918 139.572 12.2668 138.185 11.1383 136.496C10.1614 134.893 9.52031 132.678 9.52031 129.217V58.7386C9.48157 56.4919 10.018 54.2726 11.0785 52.2916C12.139 50.3106 13.6885 48.6336 15.5797 47.4202L74.0365 11.8831L74.0406 11.8807C76.1244 10.6277 77.9846 9.7539 79.6783 9.7539ZM87.3908 8.4609L145.855 44.0021C148.333 45.5722 150.368 47.751 151.765 50.3307C153.162 52.9104 153.876 55.8051 153.837 58.7386V129.217C153.876 132.151 153.162 135.045 151.765 137.625C150.368 140.205 148.333 142.384 145.855 143.954L87.3898 179.495C85.0956 181.02 82.4302 181.893 79.6783 182.021C76.9264 181.893 74.261 181.02 71.9667 179.495H71.9658L13.502 143.953L13.4995 143.952C11.1642 142.659 9.18097 140.814 7.72281 138.578C6.12823 135.725 5.36521 132.482 5.52031 129.217V58.7386C5.48125 55.805 6.19436 52.9103 7.59165 50.3305C8.98894 47.7508 11.0238 45.572 13.5022 44.002L71.9667 8.46025L71.9749 8.45537C74.0655 7.19796 76.7734 5.75391 79.6783 5.75391C82.5645 5.75391 85.2816 7.17699 87.3908 8.46085V8.4609Z" fill="#0078D4"/>
<path opacity="0.2" d="M139.959 132.028L80.409 166.635L20.47 132.029L80.02 97.4219L139.959 132.028Z" fill="#003067"/>
<path d="M140.532 120.545L79.81 155.833L18.698 120.55L79.42 85.2617L140.532 120.545Z" fill="#1B93EB"/>
<path d="M140.532 120.547L140.52 124.653L79.798 159.941L79.81 155.835L140.532 120.547Z" fill="#1F56A3"/>
<path d="M79.81 155.834L79.798 159.94L18.686 124.657L18.698 120.551L79.81 155.834Z" fill="#0078D4"/>
<path opacity="0.2" d="M94.2996 125.594L69.3425 111C68.9176 110.752 68.4357 110.617 67.9436 110.61C67.4515 110.602 66.9658 110.722 66.5336 110.957L64.9175 111.837C64.7731 111.916 64.6523 112.032 64.5674 112.172C64.4826 112.313 64.4367 112.474 64.4346 112.638C64.4325 112.803 64.4743 112.965 64.5555 113.107C64.6368 113.25 64.7546 113.369 64.8969 113.451L90.136 128.041C90.6607 128.305 91.2405 128.441 91.8281 128.439C92.4156 128.436 92.9942 128.295 93.5166 128.026L94.307 127.562C94.5105 127.489 94.6865 127.355 94.8107 127.179C94.9349 127.002 95.0011 126.791 95.0003 126.575C94.9995 126.359 94.9316 126.149 94.8061 125.973C94.6806 125.797 94.5036 125.665 94.2996 125.594V125.594Z" fill="#1F56A3"/>
<path d="M63.7273 96.6647L61.4587 97.9829C62.0865 97.692 62.7805 97.5741 63.4691 97.6414C64.1577 97.7086 64.8158 97.9587 65.3754 98.3656C66.0299 98.7491 66.6356 99.2106 67.1791 99.7399L69.4475 98.4217C68.904 97.8924 68.2984 97.4309 67.6439 97.0473C67.0844 96.6404 66.4263 96.3904 65.7377 96.3231C65.0491 96.2558 64.355 96.3737 63.7273 96.6647V96.6647Z" fill="#E8E8E8"/>
<path d="M92.0434 103.773C91.4304 103.412 90.7768 103.124 90.0962 102.917C88.1146 98.1544 84.637 93.7757 80.659 91.479C77.5522 89.6853 74.738 89.5183 72.7051 90.6997L70.4365 92.018C72.4695 90.8366 75.2836 91.0036 78.3904 92.7974C82.3686 95.0941 85.8461 99.4727 87.8277 104.235C88.5083 104.443 89.1619 104.73 89.7748 105.092C94.5815 107.867 98.4559 114.597 98.4403 120.114C98.4422 120.716 98.3891 121.317 98.2816 121.91C98.27 121.994 98.2415 122.076 98.2298 122.174C98.0754 122.879 97.8168 123.557 97.4625 124.186C97.4224 124.255 97.3711 124.31 97.3311 124.378C96.9631 124.922 96.4786 125.377 95.9127 125.71L98.1813 124.392C98.7471 124.059 99.2316 123.604 99.5997 123.06C99.6396 122.992 99.6908 122.936 99.7309 122.868C100.085 122.239 100.344 121.561 100.498 120.855C100.51 120.758 100.539 120.676 100.55 120.591C100.658 119.999 100.711 119.398 100.709 118.795C100.724 113.279 96.8499 106.548 92.0434 103.773Z" fill="#E8E8E8"/>
<path d="M78.3905 92.7954C82.3685 95.0922 85.8461 99.4708 87.8276 104.233C88.5083 104.441 89.1619 104.728 89.7749 105.09C94.5814 107.865 98.4558 114.595 98.4402 120.112C98.4421 120.714 98.3891 121.315 98.2817 121.908C98.27 121.992 98.2414 122.074 98.2297 122.172C98.0754 122.877 97.8168 123.555 97.4624 124.184C97.4224 124.253 97.3711 124.308 97.3311 124.376C95.8243 126.563 92.9697 126.992 89.7068 125.108L64.7948 110.667C63.3486 109.598 62.1558 108.223 61.3016 106.64C60.4474 105.058 59.9527 103.306 59.8529 101.511C59.8628 98.0155 62.3394 96.6107 65.3754 98.3636C66.0299 98.7471 66.6355 99.2086 67.179 99.738C67.1682 99.5554 67.1686 99.3858 67.1691 99.2098C67.1893 92.0957 72.2107 89.2276 78.3905 92.7954Z" fill="white"/>
<path opacity="0.2" d="M86.4224 106.69C85.7467 106.3 85.0699 106.292 84.6768 106.83L77.6123 116.557C77.3539 116.971 77.2612 117.466 77.3528 117.945L89.7067 125.107C90.4652 125.615 91.3178 125.967 92.2144 126.14C93.1109 126.313 94.0331 126.305 94.9265 126.116L88.1615 108.842C87.832 107.954 87.2212 107.198 86.4224 106.69V106.69Z" fill="#767676"/>
<path d="M89.9088 128.218L83.1188 110.886C82.9588 110.438 82.6524 110.057 82.2492 109.805C82.076 109.705 81.6403 109.511 81.3765 109.88L74.3119 119.601C74.2217 119.782 74.174 119.98 74.1724 120.182C74.1708 120.384 74.2155 120.584 74.3029 120.766C74.4687 121.214 74.7759 121.597 75.1781 121.856H75.1782L89.2289 129.968C89.7594 130.274 90.0176 130.012 90.1073 129.89C90.2058 129.738 90.2545 129.558 90.2464 129.377L90.6099 128.798L89.9088 128.218ZM81.7273 114.363C81.7281 114.042 81.9579 113.911 82.237 114.072C82.3836 114.168 82.5054 114.297 82.5925 114.449C82.6795 114.601 82.7294 114.772 82.738 114.947L82.7223 120.504C82.7213 120.825 82.4973 120.952 82.218 120.791C82.0709 120.696 81.9483 120.568 81.8603 120.416C81.7722 120.265 81.7213 120.095 81.7115 119.92L81.7273 114.363ZM82.2097 123.73C82.0153 123.603 81.8535 123.432 81.7375 123.231C81.6214 123.03 81.5543 122.805 81.5417 122.573C81.543 122.15 81.8455 121.977 82.214 122.19C82.4084 122.317 82.5702 122.488 82.6862 122.689C82.8023 122.89 82.8694 123.115 82.882 123.347C82.8809 123.77 82.5783 123.943 82.2097 123.73V123.73Z" fill="#FFCA00"/>
<path d="M82.2141 122.189C82.4085 122.316 82.5702 122.487 82.6863 122.688C82.8023 122.889 82.8694 123.114 82.8821 123.346C82.8809 123.769 82.5783 123.942 82.2097 123.729C82.0153 123.602 81.8535 123.431 81.7375 123.23C81.6214 123.029 81.5544 122.804 81.5417 122.572C81.543 122.149 81.8455 121.976 82.2141 122.189Z" fill="#FF9300"/>
<path d="M90.9779 128.639C91.7666 130.643 90.7893 132.033 89.2257 131.13L75.1749 123.018C73.6112 122.115 72.645 119.603 73.4424 118.514L80.5069 108.787C80.9 108.249 81.5768 108.257 82.2525 108.647C83.0513 109.155 83.662 109.911 83.9916 110.799L90.9779 128.639ZM90.1073 129.891C90.2062 129.711 90.2578 129.51 90.2575 129.305C90.2571 129.1 90.2047 128.899 90.1051 128.72L83.1188 110.886C82.9587 110.438 82.6524 110.058 82.2492 109.805C82.0761 109.706 81.6403 109.512 81.3764 109.88L74.3119 119.601C74.2217 119.782 74.174 119.981 74.1724 120.183C74.1709 120.385 74.2156 120.584 74.303 120.766C74.4688 121.215 74.776 121.597 75.1782 121.856L89.2289 129.968C89.7595 130.275 90.0176 130.012 90.1073 129.891" fill="#FF9300"/>
<path d="M82.237 114.073C82.3836 114.169 82.5053 114.298 82.5924 114.45C82.6795 114.602 82.7294 114.772 82.738 114.947L82.7223 120.504C82.7213 120.825 82.4973 120.953 82.218 120.792C82.0708 120.697 81.9482 120.568 81.8602 120.417C81.7722 120.266 81.7212 120.096 81.7114 119.921L81.7272 114.363C81.7281 114.043 81.9578 113.912 82.237 114.073Z" fill="#FF9300"/>
<path d="M92.9577 127.94C92.9212 127.817 92.8777 127.691 92.8273 127.562L85.841 109.722C85.5114 108.834 84.9007 108.079 84.1019 107.57C83.8971 107.422 83.6568 107.33 83.4051 107.304C83.1535 107.279 82.8995 107.32 82.6689 107.424L80.8195 108.498C81.0501 108.394 81.3041 108.353 81.5557 108.379C81.8073 108.405 82.0477 108.497 82.2525 108.645C83.0513 109.153 83.662 109.909 83.9916 110.797L90.978 128.637C91.0286 128.765 91.072 128.891 91.1082 129.015C91.2308 129.329 91.2838 129.665 91.2634 130.002C91.2431 130.338 91.1499 130.666 90.9903 130.963L90.9827 130.974L90.9779 130.981C90.8939 131.1 90.7855 131.2 90.6599 131.274L92.5093 130.199C92.6349 130.125 92.7433 130.025 92.8273 129.906L92.8321 129.899L92.8322 129.899L92.8399 129.888C92.9994 129.591 93.0925 129.263 93.1128 128.927C93.1332 128.591 93.0803 128.254 92.9577 127.94V127.94Z" fill="#D15900"/>
<path d="M45.1634 102.083C45.1304 102.026 45.1089 101.963 45.1002 101.898C45.0915 101.833 45.0957 101.767 45.1126 101.703C45.1294 101.64 45.1586 101.58 45.1985 101.528C45.2384 101.476 45.2882 101.432 45.3451 101.399L49.348 99.0723C49.4626 99.0057 49.5989 98.9874 49.7271 99.0214C49.8552 99.0553 49.9645 99.1388 50.0311 99.2534C50.0977 99.368 50.116 99.5044 50.082 99.6325C50.0481 99.7606 49.9646 99.87 49.85 99.9365L45.847 102.263C45.7902 102.296 45.7275 102.318 45.6625 102.327C45.5974 102.335 45.5312 102.331 45.4678 102.314C45.4043 102.298 45.3447 102.269 45.2925 102.229C45.2403 102.189 45.1964 102.139 45.1634 102.083H45.1634ZM41.846 120.377L40.5335 119.619L41.8431 118.857C41.9577 118.791 42.0412 118.682 42.0752 118.553C42.1091 118.425 42.0908 118.289 42.0242 118.174C41.9577 118.06 41.8483 117.976 41.7202 117.942C41.5921 117.908 41.4557 117.927 41.3411 117.993L39.2845 119.189C39.2086 119.233 39.1457 119.296 39.102 119.372C39.0583 119.448 39.0354 119.534 39.0355 119.621C39.0356 119.709 39.0587 119.795 39.1026 119.871C39.1465 119.947 39.2095 120.01 39.2855 120.054L41.346 121.243C41.4609 121.309 41.5973 121.327 41.7254 121.293C41.8534 121.258 41.9626 121.174 42.0289 121.06C42.0952 120.945 42.1131 120.808 42.0789 120.68C42.0446 120.552 41.9608 120.443 41.846 120.377L41.846 120.377ZM45.596 88.0625C45.6842 88.0625 45.7709 88.0391 45.847 87.9946L49.8509 85.668C49.9077 85.635 49.9574 85.5912 49.9972 85.539C50.037 85.4869 50.0662 85.4274 50.083 85.3639C50.0998 85.3005 50.104 85.2344 50.0952 85.1693C50.0865 85.1043 50.065 85.0416 50.0321 84.9849C49.9991 84.9281 49.9553 84.8784 49.9031 84.8386C49.851 84.7988 49.7915 84.7696 49.728 84.7528C49.6646 84.736 49.5985 84.7318 49.5334 84.7406C49.4684 84.7493 49.4057 84.7708 49.3489 84.8037L45.345 87.1304C45.2499 87.1855 45.1756 87.2705 45.1337 87.3722C45.0918 87.4739 45.0845 87.5865 45.1131 87.6927C45.1417 87.7989 45.2045 87.8927 45.2918 87.9595C45.3791 88.0264 45.4861 88.0626 45.596 88.0625V88.0625ZM41.846 91.8404L40.5335 91.083L41.8431 90.3213C41.8999 90.2883 41.9496 90.2445 41.9894 90.1924C42.0292 90.1402 42.0583 90.0807 42.0752 90.0173C42.092 89.9538 42.0961 89.8877 42.0874 89.8227C42.0787 89.7576 42.0572 89.6949 42.0242 89.6382C41.9913 89.5814 41.9475 89.5317 41.8953 89.4919C41.8431 89.4521 41.7836 89.423 41.7202 89.4061C41.6568 89.3893 41.5906 89.3852 41.5256 89.3939C41.4605 89.4026 41.3979 89.4241 41.3411 89.4571L39.2845 90.6524C39.2086 90.6963 39.1457 90.7595 39.102 90.8355C39.0583 90.9115 39.0354 90.9976 39.0355 91.0853C39.0356 91.1729 39.0587 91.259 39.1026 91.3349C39.1465 91.4108 39.2095 91.4738 39.2855 91.5176L41.346 92.7066C41.4609 92.7728 41.5973 92.7907 41.7254 92.7564C41.8534 92.722 41.9626 92.6382 42.0289 92.5234C42.0952 92.4085 42.1131 92.2721 42.0789 92.144C42.0446 92.0159 41.9608 91.9067 41.846 91.8404L41.846 91.8404ZM41.846 106.108L40.5335 105.351L41.8431 104.589C41.8999 104.556 41.9496 104.513 41.9894 104.46C42.0292 104.408 42.0583 104.349 42.0752 104.285C42.092 104.222 42.0961 104.156 42.0874 104.091C42.0787 104.026 42.0572 103.963 42.0242 103.906C41.9913 103.85 41.9475 103.8 41.8953 103.76C41.8431 103.72 41.7836 103.691 41.7202 103.674C41.6568 103.657 41.5906 103.653 41.5256 103.662C41.4605 103.671 41.3979 103.692 41.3411 103.725L39.2845 104.92C39.2086 104.964 39.1457 105.028 39.102 105.104C39.0583 105.18 39.0354 105.266 39.0355 105.353C39.0356 105.441 39.0587 105.527 39.1026 105.603C39.1465 105.679 39.2095 105.742 39.2855 105.786L41.346 106.975C41.4609 107.041 41.5973 107.059 41.7254 107.024C41.8534 106.99 41.9626 106.906 42.0289 106.791C42.0952 106.677 42.1131 106.54 42.0789 106.412C42.0446 106.284 41.9608 106.175 41.846 106.108L41.846 106.108ZM53.6029 83.4097C53.6911 83.4097 53.7777 83.3863 53.8539 83.3418L57.8578 81.0151C57.9145 80.9821 57.9642 80.9383 58.004 80.8862C58.0438 80.834 58.073 80.7745 58.0898 80.711C58.1066 80.6476 58.1108 80.5815 58.1021 80.5164C58.0933 80.4514 58.0719 80.3887 58.0389 80.332C58.0059 80.2752 57.9621 80.2255 57.9099 80.1857C57.8578 80.1459 57.7983 80.1167 57.7348 80.0999C57.6714 80.0831 57.6053 80.0789 57.5402 80.0877C57.4752 80.0964 57.4125 80.1179 57.3558 80.1508L53.3519 82.4775C53.2567 82.5327 53.1824 82.6177 53.1405 82.7193C53.0986 82.821 53.0913 82.9336 53.1199 83.0398C53.1485 83.146 53.2113 83.2398 53.2987 83.3066C53.386 83.3735 53.4929 83.4097 53.6029 83.4096L53.6029 83.4097ZM45.596 73.7944C45.6842 73.7945 45.7709 73.771 45.847 73.7266L49.8509 71.3999C49.9077 71.3669 49.9574 71.3231 49.9972 71.271C50.037 71.2188 50.0662 71.1593 50.083 71.0959C50.0998 71.0324 50.104 70.9663 50.0952 70.9012C50.0865 70.8362 50.065 70.7735 50.0321 70.7168C49.9991 70.66 49.9553 70.6103 49.9031 70.5705C49.851 70.5307 49.7915 70.5016 49.728 70.4847C49.6646 70.4679 49.5985 70.4638 49.5334 70.4725C49.4684 70.4812 49.4057 70.5027 49.3489 70.5356L45.345 72.8623C45.2499 72.9175 45.1756 73.0025 45.1337 73.1041C45.0918 73.2058 45.0845 73.3184 45.1131 73.4246C45.1417 73.5308 45.2045 73.6246 45.2918 73.6914C45.3792 73.7583 45.4861 73.7945 45.596 73.7944V73.7944ZM53.6029 54.8735C53.6911 54.8736 53.7777 54.8501 53.8539 54.8057L57.8578 52.479C57.9145 52.446 57.9642 52.4022 58.0041 52.3501C58.0439 52.2979 58.073 52.2384 58.0898 52.175C58.1067 52.1115 58.1108 52.0454 58.1021 51.9803C58.0933 51.9153 58.0719 51.8526 58.0389 51.7959C58.006 51.7391 57.9621 51.6894 57.91 51.6496C57.8578 51.6098 57.7983 51.5806 57.7349 51.5638C57.6714 51.547 57.6053 51.5428 57.5403 51.5516C57.4752 51.5603 57.4125 51.5818 57.3558 51.6147L53.3519 53.9414C53.2568 53.9966 53.1825 54.0816 53.1406 54.1832C53.0986 54.2849 53.0914 54.3975 53.12 54.5037C53.1486 54.6099 53.2114 54.7037 53.2987 54.7705C53.386 54.8374 53.4929 54.8736 53.6029 54.8735H53.6029ZM53.6029 69.1416C53.6911 69.1416 53.7777 69.1182 53.8539 69.0737L57.8578 66.7471C57.9145 66.7141 57.9642 66.6703 58.004 66.6182C58.0438 66.566 58.073 66.5065 58.0898 66.4431C58.1066 66.3796 58.1108 66.3135 58.102 66.2485C58.0933 66.1834 58.0718 66.1207 58.0389 66.064C58.0059 66.0072 57.9621 65.9575 57.9099 65.9177C57.8578 65.8779 57.7983 65.8488 57.7348 65.8319C57.6714 65.8151 57.6053 65.811 57.5402 65.8197C57.4752 65.8284 57.4125 65.8499 57.3558 65.8829L53.3519 68.2095C53.2567 68.2647 53.1824 68.3497 53.1405 68.4513C53.0986 68.553 53.0913 68.6656 53.1199 68.7718C53.1485 68.878 53.2113 68.9718 53.2987 69.0387C53.386 69.1055 53.4929 69.1417 53.6029 69.1416L53.6029 69.1416ZM53.6029 97.6777C53.6911 97.6778 53.7777 97.6543 53.8539 97.6099L57.8578 95.2832C57.9145 95.2502 57.9642 95.2064 58.0041 95.1543C58.0439 95.1021 58.073 95.0426 58.0898 94.9792C58.1067 94.9157 58.1108 94.8496 58.1021 94.7845C58.0933 94.7195 58.0719 94.6568 58.0389 94.6001C58.006 94.5433 57.9621 94.4936 57.91 94.4538C57.8578 94.414 57.7983 94.3849 57.7349 94.368C57.6714 94.3512 57.6053 94.347 57.5403 94.3558C57.4752 94.3645 57.4125 94.386 57.3558 94.4189L53.3519 96.7456C53.2568 96.8008 53.1825 96.8858 53.1406 96.9874C53.0986 97.0891 53.0914 97.2017 53.12 97.3079C53.1486 97.4141 53.2114 97.5079 53.2987 97.5747C53.386 97.6416 53.4929 97.6778 53.6029 97.6777H53.6029ZM45.596 59.5264C45.6842 59.5264 45.7709 59.503 45.847 59.4585L49.8509 57.1318C49.9077 57.0989 49.9574 57.0551 49.9972 57.0029C50.037 56.9507 50.0662 56.8912 50.083 56.8278C50.0998 56.7643 50.104 56.6982 50.0952 56.6332C50.0865 56.5681 50.065 56.5055 50.0321 56.4487C49.9991 56.392 49.9553 56.3423 49.9031 56.3024C49.851 56.2626 49.7915 56.2335 49.728 56.2167C49.6646 56.1998 49.5985 56.1957 49.5334 56.2044C49.4684 56.2132 49.4057 56.2346 49.3489 56.2676L45.345 58.5942C45.2499 58.6494 45.1756 58.7344 45.1337 58.836C45.0918 58.9377 45.0845 59.0504 45.1131 59.1565C45.1417 59.2627 45.2045 59.3565 45.2918 59.4234C45.3792 59.4902 45.4861 59.5264 45.596 59.5264V59.5264ZM41.846 77.5723L40.5335 76.8149L41.8431 76.0532C41.8999 76.0203 41.9496 75.9764 41.9894 75.9243C42.0292 75.8721 42.0583 75.8126 42.0752 75.7492C42.092 75.6857 42.0961 75.6196 42.0874 75.5546C42.0787 75.4895 42.0572 75.4268 42.0242 75.3701C41.9913 75.3133 41.9475 75.2636 41.8953 75.2238C41.8431 75.184 41.7836 75.1549 41.7202 75.1381C41.6568 75.1212 41.5906 75.1171 41.5256 75.1258C41.4605 75.1345 41.3979 75.156 41.3411 75.189L39.2845 76.3843C39.2086 76.4283 39.1457 76.4914 39.102 76.5674C39.0583 76.6434 39.0354 76.7295 39.0355 76.8172C39.0356 76.9048 39.0587 76.9909 39.1026 77.0668C39.1465 77.1427 39.2095 77.2057 39.2855 77.2495L41.346 78.4385C41.4609 78.5047 41.5973 78.5226 41.7254 78.4883C41.8534 78.4539 41.9626 78.3701 42.0289 78.2553C42.0952 78.1405 42.1131 78.004 42.0789 77.8759C42.0446 77.7479 41.9608 77.6386 41.846 77.5723L41.846 77.5723ZM53.8539 111.878L57.8578 109.551C57.9724 109.485 58.0558 109.375 58.0898 109.247C58.1238 109.119 58.1055 108.983 58.0389 108.868C57.9723 108.754 57.8629 108.67 57.7348 108.636C57.6067 108.602 57.4704 108.62 57.3558 108.687L53.3519 111.014C53.2372 111.08 53.1538 111.19 53.1198 111.318C53.0858 111.446 53.1042 111.582 53.1707 111.697C53.2373 111.811 53.3467 111.895 53.4748 111.929C53.6029 111.963 53.7392 111.944 53.8539 111.878V111.878ZM57.972 129.687L53.9407 127.359C53.8259 127.293 53.6894 127.275 53.5614 127.31C53.4333 127.344 53.3241 127.428 53.2578 127.543C53.1916 127.657 53.1736 127.794 53.2079 127.922C53.2422 128.05 53.3259 128.159 53.4407 128.226L57.472 130.553C57.5868 130.619 57.7233 130.637 57.8514 130.603C57.9794 130.569 58.0886 130.485 58.1549 130.37C58.2211 130.255 58.2391 130.119 58.2048 129.991C58.1705 129.863 58.0868 129.753 57.972 129.687V129.687ZM57.972 115.419L53.9398 113.091C53.8249 113.025 53.6884 113.007 53.5604 113.042C53.4323 113.076 53.3231 113.16 53.2569 113.275C53.1906 113.389 53.1726 113.526 53.2069 113.654C53.2412 113.782 53.325 113.891 53.4398 113.958L57.472 116.285C57.5868 116.351 57.7233 116.369 57.8514 116.335C57.9794 116.301 58.0886 116.217 58.1549 116.102C58.2211 115.987 58.2391 115.851 58.2048 115.723C58.1705 115.594 58.0868 115.485 57.972 115.419V115.419ZM41.846 63.3042L40.5335 62.5464L41.8431 61.7852C41.8998 61.7522 41.9495 61.7084 41.9893 61.6562C42.0291 61.604 42.0583 61.5445 42.0751 61.4811C42.0919 61.4177 42.0961 61.3515 42.0873 61.2865C42.0786 61.2215 42.0571 61.1588 42.0242 61.102C41.9912 61.0453 41.9474 60.9956 41.8952 60.9558C41.8431 60.9159 41.7836 60.8868 41.7201 60.87C41.6567 60.8532 41.5906 60.849 41.5255 60.8577C41.4605 60.8665 41.3978 60.8879 41.341 60.9209L39.2844 62.1157C39.2086 62.1597 39.1457 62.2229 39.102 62.2988C39.0583 62.3748 39.0353 62.461 39.0354 62.5486C39.0355 62.6363 39.0587 62.7224 39.1025 62.7983C39.1464 62.8741 39.2095 62.9371 39.2854 62.981L41.346 64.1704C41.4608 64.2366 41.5973 64.2545 41.7253 64.2202C41.8534 64.1858 41.9626 64.102 42.0288 63.9872C42.0951 63.8723 42.1131 63.7359 42.0788 63.6078C42.0445 63.4797 41.9607 63.3705 41.846 63.3042H41.846ZM57.972 101.151L53.9398 98.8232C53.8249 98.757 53.6884 98.7391 53.5604 98.7735C53.4323 98.8078 53.3231 98.8916 53.2569 99.0065C53.1906 99.1213 53.1726 99.2578 53.2069 99.3858C53.2412 99.5139 53.325 99.6231 53.4398 99.6894L57.472 102.017C57.5868 102.083 57.7233 102.101 57.8514 102.067C57.9794 102.033 58.0886 101.949 58.1549 101.834C58.2211 101.719 58.2391 101.583 58.2048 101.455C58.1705 101.326 58.0868 101.217 57.972 101.151V101.151ZM49.9085 67.9595L45.8773 65.6318C45.7624 65.5656 45.6259 65.5477 45.4979 65.5821C45.3698 65.6164 45.2606 65.7002 45.1944 65.8151C45.1281 65.9299 45.1101 66.0663 45.1444 66.1944C45.1787 66.3225 45.2625 66.4317 45.3773 66.498L49.4085 68.8257C49.5234 68.8919 49.6598 68.9098 49.7879 68.8754C49.9159 68.8411 50.0251 68.7573 50.0914 68.6425C50.1577 68.5276 50.1756 68.3912 50.1413 68.2631C50.107 68.135 50.0233 68.0258 49.9085 67.9595ZM45.596 116.599C45.6842 116.599 45.7709 116.576 45.847 116.531L49.8509 114.205C49.9655 114.138 50.049 114.029 50.083 113.901C50.117 113.772 50.0986 113.636 50.0321 113.521C49.9655 113.407 49.8561 113.323 49.728 113.289C49.5999 113.255 49.4635 113.274 49.3489 113.34L45.345 115.667C45.2499 115.722 45.1756 115.807 45.1337 115.909C45.0918 116.01 45.0845 116.123 45.1131 116.229C45.1417 116.335 45.2045 116.429 45.2918 116.496C45.3792 116.563 45.4861 116.599 45.596 116.599V116.599ZM49.9085 125.032L45.8773 122.704C45.7624 122.638 45.626 122.62 45.4979 122.654C45.3699 122.689 45.2607 122.773 45.1944 122.887C45.1281 123.002 45.1102 123.139 45.1445 123.267C45.1787 123.395 45.2625 123.504 45.3773 123.57L49.4085 125.898C49.5234 125.964 49.6599 125.982 49.7879 125.948C49.916 125.913 50.0251 125.83 50.0914 125.715C50.1577 125.6 50.1757 125.463 50.1414 125.335C50.1071 125.207 50.0233 125.098 49.9085 125.032V125.032ZM49.9085 110.764L45.8773 108.436C45.7624 108.37 45.626 108.352 45.4979 108.386C45.3699 108.421 45.2607 108.504 45.1944 108.619C45.1281 108.734 45.1102 108.871 45.1445 108.999C45.1787 109.127 45.2625 109.236 45.3773 109.302L49.4085 111.63C49.5234 111.696 49.6599 111.714 49.7879 111.68C49.916 111.645 50.0251 111.561 50.0914 111.447C50.1577 111.332 50.1757 111.195 50.1414 111.067C50.1071 110.939 50.0233 110.83 49.9085 110.764V110.764ZM49.9085 82.2275L45.8773 79.8999C45.7624 79.8337 45.626 79.8158 45.4979 79.8501C45.3699 79.8845 45.2607 79.9683 45.1944 80.0831C45.1281 80.198 45.1102 80.3344 45.1445 80.4625C45.1787 80.5906 45.2625 80.6998 45.3773 80.7661L49.4085 83.0937C49.5234 83.16 49.6599 83.1779 49.7879 83.1435C49.916 83.1091 50.0251 83.0253 50.0914 82.9105C50.1577 82.7957 50.1757 82.6592 50.1414 82.5312C50.1071 82.4031 50.0233 82.2939 49.9085 82.2275V82.2275ZM49.9085 96.4956L45.8773 94.1679C45.7624 94.1017 45.626 94.0838 45.4979 94.1182C45.3699 94.1525 45.2607 94.2363 45.1944 94.3512C45.1281 94.466 45.1102 94.6025 45.1445 94.7305C45.1787 94.8586 45.2625 94.9678 45.3773 95.0342L49.4085 97.3618C49.5234 97.428 49.6599 97.4459 49.7879 97.4116C49.916 97.3772 50.0251 97.2934 50.0914 97.1786C50.1577 97.0637 50.1757 96.9273 50.1414 96.7992C50.1071 96.6711 50.0233 96.5619 49.9085 96.4956ZM85.5208 43.1689L89.5531 45.4966C89.6679 45.5628 89.8044 45.5807 89.9324 45.5463C90.0605 45.512 90.1697 45.4282 90.236 45.3134C90.3022 45.1985 90.3202 45.0621 90.2859 44.934C90.2516 44.8059 90.1679 44.6967 90.0531 44.6304L86.0208 42.3027C85.906 42.2365 85.7695 42.2186 85.6415 42.253C85.5134 42.2873 85.4043 42.3711 85.338 42.486C85.2717 42.6008 85.2537 42.7372 85.288 42.8653C85.3223 42.9934 85.4061 43.1026 85.5208 43.1689V43.1689ZM101.647 66.7471L105.679 69.0747C105.794 69.1409 105.93 69.1588 106.058 69.1245C106.187 69.0901 106.296 69.0063 106.362 68.8915C106.428 68.7766 106.446 68.6402 106.412 68.5121C106.378 68.384 106.294 68.2748 106.179 68.2085L102.147 65.8809C102.032 65.8146 101.896 65.7967 101.767 65.8311C101.639 65.8655 101.53 65.9493 101.464 66.0641C101.398 66.1789 101.38 66.3154 101.414 66.4434C101.448 66.5715 101.532 66.6807 101.647 66.7471V66.7471ZM101.647 81.0151L105.679 83.3428C105.794 83.409 105.93 83.4269 106.058 83.3925C106.187 83.3582 106.296 83.2744 106.362 83.1595C106.428 83.0447 106.446 82.9083 106.412 82.7802C106.378 82.6521 106.294 82.5429 106.179 82.4766L102.147 80.1489C102.032 80.0827 101.896 80.0648 101.767 80.0992C101.639 80.1335 101.53 80.2173 101.464 80.3322C101.398 80.447 101.38 80.5834 101.414 80.7115C101.448 80.8396 101.532 80.9488 101.647 81.0151V81.0151ZM93.5844 62.0918L97.6156 64.4194C97.7305 64.4857 97.8669 64.5036 97.995 64.4692C98.123 64.4348 98.2322 64.351 98.2985 64.2362C98.3648 64.1214 98.3827 63.9849 98.3484 63.8569C98.3141 63.7288 98.2304 63.6196 98.1156 63.5532L94.0844 61.2256C93.9695 61.1594 93.833 61.1415 93.705 61.1758C93.5769 61.2102 93.4678 61.294 93.4015 61.4088C93.3352 61.5236 93.3172 61.6601 93.3515 61.7882C93.3858 61.9162 93.4696 62.0255 93.5844 62.0918ZM101.647 52.479L105.679 54.8066C105.794 54.8729 105.93 54.8908 106.058 54.8564C106.187 54.822 106.296 54.7382 106.362 54.6234C106.428 54.5086 106.446 54.3721 106.412 54.2441C106.378 54.116 106.294 54.0068 106.179 53.9404L102.147 51.6128C102.032 51.5466 101.896 51.5287 101.767 51.563C101.639 51.5974 101.53 51.6812 101.464 51.796C101.398 51.9109 101.38 52.0473 101.414 52.1754C101.448 52.3035 101.532 52.4127 101.647 52.479V52.479ZM93.5844 47.8237L97.6156 50.1514C97.7305 50.2176 97.8669 50.2355 97.995 50.2011C98.123 50.1668 98.2322 50.083 98.2985 49.9681C98.3648 49.8533 98.3827 49.7169 98.3484 49.5888C98.3141 49.4607 98.2304 49.3515 98.1156 49.2852L94.0844 46.9575C93.9695 46.8913 93.833 46.8734 93.705 46.9078C93.5769 46.9421 93.4678 47.0259 93.4015 47.1407C93.3352 47.2556 93.3172 47.392 93.3515 47.5201C93.3858 47.6482 93.4696 47.7574 93.5844 47.8237V47.8237ZM109.71 71.4023L113.742 73.73C113.856 73.7962 113.993 73.8141 114.121 73.7797C114.249 73.7454 114.358 73.6616 114.424 73.5467C114.491 73.4319 114.509 73.2955 114.474 73.1674C114.44 73.0393 114.356 72.9301 114.242 72.8638L110.21 70.5361C110.095 70.4699 109.959 70.452 109.831 70.4863C109.703 70.5207 109.594 70.6045 109.527 70.7193C109.461 70.8342 109.443 70.9706 109.477 71.0987C109.512 71.2268 109.596 71.336 109.71 71.4023L109.71 71.4023ZM117.774 61.7895L119.085 62.5469L117.776 63.3081C117.719 63.3409 117.669 63.3846 117.629 63.4368C117.588 63.489 117.559 63.5486 117.542 63.6122C117.525 63.6758 117.521 63.7421 117.529 63.8073C117.538 63.8726 117.56 63.9355 117.593 63.9924C117.626 64.0493 117.67 64.0991 117.722 64.139C117.774 64.1789 117.834 64.208 117.898 64.2247C117.961 64.2414 118.028 64.2454 118.093 64.2364C118.158 64.2275 118.221 64.2057 118.278 64.1724L120.334 62.9775C120.41 62.9335 120.473 62.8704 120.517 62.7944C120.561 62.7184 120.583 62.6323 120.583 62.5446C120.583 62.457 120.56 62.3709 120.516 62.295C120.472 62.2191 120.409 62.1561 120.333 62.1123L118.274 60.9233C118.159 60.8571 118.022 60.8392 117.894 60.8735C117.766 60.9079 117.657 60.9917 117.591 61.1065C117.525 61.2214 117.507 61.3578 117.541 61.4859C117.575 61.614 117.659 61.7232 117.774 61.7895L117.774 61.7895ZM109.71 57.1343L113.742 59.4619C113.856 59.5281 113.993 59.546 114.121 59.5117C114.249 59.4773 114.358 59.3935 114.424 59.2787C114.491 59.1639 114.509 59.0274 114.474 58.8993C114.44 58.7713 114.356 58.662 114.242 58.5957L110.21 56.2681C110.095 56.2019 109.959 56.184 109.831 56.2183C109.703 56.2527 109.594 56.3365 109.527 56.4513C109.461 56.5662 109.443 56.7026 109.477 56.8307C109.512 56.9588 109.596 57.068 109.71 57.1343L109.71 57.1343ZM57.972 86.8823L53.9407 84.5552C53.8259 84.4889 53.6894 84.4711 53.5614 84.5054C53.4333 84.5398 53.3241 84.6236 53.2578 84.7384C53.1916 84.8532 53.1736 84.9897 53.2079 85.1178C53.2422 85.2458 53.3259 85.355 53.4407 85.4214L57.472 87.7485C57.5868 87.8148 57.7233 87.8327 57.8514 87.7983C57.9794 87.7639 58.0886 87.6801 58.1549 87.5653C58.2211 87.4505 58.2391 87.314 58.2048 87.1859C58.1705 87.0579 58.0868 86.9487 57.972 86.8823V86.8823ZM109.71 99.9385L113.742 102.266C113.856 102.332 113.993 102.35 114.121 102.316C114.249 102.282 114.358 102.198 114.424 102.083C114.491 101.968 114.509 101.832 114.474 101.704C114.44 101.575 114.356 101.466 114.242 101.4L110.21 99.0723C110.095 99.006 109.959 98.9881 109.831 99.0225C109.703 99.0569 109.594 99.1407 109.527 99.2555C109.461 99.3703 109.443 99.5068 109.477 99.6348C109.512 99.7629 109.595 99.8721 109.71 99.9385ZM109.71 85.6704L113.742 87.998C113.856 88.0643 113.993 88.0822 114.121 88.0478C114.249 88.0134 114.358 87.9296 114.424 87.8148C114.491 87.7 114.509 87.5635 114.474 87.4355C114.44 87.3074 114.356 87.1982 114.242 87.1318L110.21 84.8042C110.095 84.738 109.959 84.7201 109.831 84.7544C109.703 84.7888 109.594 84.8726 109.527 84.9874C109.461 85.1023 109.443 85.2387 109.477 85.3668C109.512 85.4949 109.595 85.6041 109.71 85.6704ZM69.6166 59.835C69.7048 59.835 69.7914 59.8116 69.8675 59.7671L73.8714 57.4404C73.9282 57.4075 73.9779 57.3637 74.0177 57.3115C74.0575 57.2593 74.0867 57.1998 74.1035 57.1364C74.1203 57.073 74.1245 57.0068 74.1157 56.9418C74.107 56.8768 74.0856 56.8141 74.0526 56.7573C74.0196 56.7006 73.9758 56.6509 73.9237 56.6111C73.8715 56.5712 73.812 56.5421 73.7486 56.5253C73.6851 56.5085 73.619 56.5043 73.554 56.513C73.4889 56.5218 73.4263 56.5432 73.3695 56.5762L69.3656 58.9028C69.2705 58.958 69.1962 59.043 69.1543 59.1446C69.1123 59.2463 69.1051 59.3589 69.1337 59.4651C69.1623 59.5713 69.2251 59.6651 69.3124 59.732C69.3997 59.7988 69.5066 59.835 69.6166 59.835H69.6166ZM69.6166 45.5669C69.7048 45.5669 69.7914 45.5435 69.8675 45.499L73.8714 43.1724C73.9282 43.1394 73.9779 43.0956 74.0177 43.0434C74.0575 42.9913 74.0867 42.9318 74.1035 42.8683C74.1203 42.8049 74.1245 42.7388 74.1158 42.6737C74.107 42.6087 74.0856 42.546 74.0526 42.4893C74.0196 42.4325 73.9758 42.3828 73.9237 42.343C73.8715 42.3032 73.812 42.274 73.7486 42.2572C73.6851 42.2404 73.619 42.2362 73.554 42.245C73.4889 42.2537 73.4263 42.2751 73.3695 42.3081L69.3656 44.6348C69.2705 44.6899 69.1962 44.7749 69.1542 44.8766C69.1123 44.9782 69.1051 45.0909 69.1337 45.1971C69.1623 45.3033 69.2251 45.397 69.3124 45.4639C69.3997 45.5308 69.5066 45.567 69.6166 45.5669H69.6166ZM77.6244 83.7183C77.7126 83.7183 77.7992 83.6949 77.8754 83.6504L79.681 82.6011L81.4896 83.6455C81.6044 83.7118 81.7409 83.7297 81.869 83.6953C81.997 83.6609 82.1062 83.5771 82.1725 83.4623C82.2387 83.3475 82.2567 83.211 82.2224 83.083C82.1881 82.9549 82.1044 82.8457 81.9896 82.7793L79.93 81.5899C79.8538 81.5459 79.7674 81.5228 79.6794 81.523C79.5914 81.5232 79.505 81.5466 79.429 81.5909L77.3734 82.7861C77.2782 82.8412 77.2038 82.9262 77.1619 83.0279C77.1199 83.1296 77.1126 83.2423 77.1412 83.3485C77.1698 83.4547 77.2327 83.5485 77.32 83.6154C77.4074 83.6822 77.5144 83.7184 77.6244 83.7182L77.6244 83.7183ZM85.5208 57.437L89.5531 59.7646C89.6679 59.8309 89.8044 59.8488 89.9324 59.8144C90.0605 59.78 90.1697 59.6962 90.236 59.5814C90.3022 59.4666 90.3202 59.3301 90.2859 59.2021C90.2516 59.074 90.1679 58.9648 90.0531 58.8984L86.0208 56.5708C85.906 56.5045 85.7695 56.4865 85.6414 56.5209C85.5133 56.5552 85.404 56.639 85.3377 56.7539C85.2714 56.8688 85.2535 57.0053 85.2878 57.1334C85.3222 57.2615 85.406 57.3707 85.5208 57.437V57.437ZM69.6166 74.103C69.7048 74.103 69.7914 74.0796 69.8675 74.0351L73.8714 71.7085C73.9282 71.6755 73.9779 71.6317 74.0177 71.5795C74.0575 71.5274 74.0867 71.4679 74.1035 71.4044C74.1203 71.341 74.1245 71.2749 74.1158 71.2099C74.107 71.1448 74.0856 71.0821 74.0526 71.0254C74.0196 70.9686 73.9758 70.9189 73.9237 70.8791C73.8715 70.8393 73.812 70.8101 73.7486 70.7933C73.6851 70.7765 73.619 70.7723 73.554 70.7811C73.4889 70.7898 73.4263 70.8113 73.3695 70.8442L69.3656 73.1709C69.2705 73.226 69.1962 73.311 69.1542 73.4127C69.1123 73.5144 69.1051 73.627 69.1337 73.7332C69.1623 73.8394 69.2251 73.9332 69.3124 74C69.3997 74.0669 69.5066 74.1031 69.6166 74.103H69.6166ZM69.6166 88.3716C69.7048 88.3716 69.7914 88.3482 69.8675 88.3037L73.8714 85.977C73.9861 85.9105 74.0695 85.8011 74.1035 85.673C74.1375 85.5449 74.1192 85.4085 74.0526 85.2939C73.986 85.1793 73.8767 85.0959 73.7486 85.0619C73.6205 85.0279 73.4841 85.0462 73.3695 85.1128L69.3656 87.4394C69.2705 87.4946 69.1962 87.5796 69.1542 87.6813C69.1123 87.7829 69.1051 87.8956 69.1337 88.0018C69.1623 88.1079 69.2251 88.2017 69.3124 88.2686C69.3997 88.3354 69.5066 88.3716 69.6166 88.3716H69.6166ZM61.6097 50.2202C61.6979 50.2202 61.7845 50.1968 61.8607 50.1523L65.8646 47.8257C65.9792 47.7591 66.0627 47.6497 66.0967 47.5216C66.1306 47.3935 66.1123 47.2572 66.0457 47.1426C65.9792 47.0279 65.8698 46.9445 65.7417 46.9105C65.6136 46.8765 65.4772 46.8949 65.3626 46.9614L61.3587 49.2881C61.2636 49.3433 61.1893 49.4283 61.1474 49.5299C61.1055 49.6316 61.0982 49.7442 61.1268 49.8504C61.1554 49.9566 61.2182 50.0504 61.3055 50.1172C61.3929 50.1841 61.4998 50.2203 61.6097 50.2202L61.6097 50.2202ZM77.6244 69.4502C77.7126 69.4502 77.7992 69.4268 77.8754 69.3823L79.681 68.333L81.4896 69.3774C81.6044 69.4438 81.741 69.4617 81.8691 69.4274C81.9972 69.393 82.1064 69.3092 82.1727 69.1943C82.239 69.0795 82.257 68.943 82.2226 68.8149C82.1883 68.6867 82.1044 68.5775 81.9896 68.5112L79.93 67.3218C79.8538 67.2778 79.7674 67.2547 79.6794 67.2549C79.5914 67.2551 79.505 67.2785 79.429 67.3228L77.3734 68.5181C77.2782 68.5732 77.2038 68.6582 77.1619 68.7599C77.1199 68.8616 77.1126 68.9743 77.1412 69.0805C77.1698 69.1867 77.2327 69.2805 77.32 69.3474C77.4074 69.4142 77.5144 69.4504 77.6244 69.4502L77.6244 69.4502ZM77.6244 40.9136C77.7126 40.9136 77.7992 40.8902 77.8754 40.8457L79.681 39.7964L81.4896 40.8413C81.6044 40.9075 81.7409 40.9254 81.869 40.8911C81.997 40.8567 82.1062 40.7729 82.1725 40.6581C82.2387 40.5432 82.2567 40.4068 82.2224 40.2787C82.1881 40.1506 82.1044 40.0414 81.9896 39.9751L79.93 38.7856C79.8538 38.7417 79.7674 38.7186 79.6794 38.7188C79.5914 38.7189 79.505 38.7423 79.429 38.7866L77.3733 39.9815C77.2781 40.0366 77.2038 40.1216 77.1618 40.2232C77.1198 40.3249 77.1126 40.4376 77.1412 40.5438C77.1698 40.6501 77.2327 40.7439 77.32 40.8107C77.4074 40.8776 77.5143 40.9137 77.6243 40.9136H77.6244ZM85.5208 71.7051L89.5531 74.0327C89.6679 74.099 89.8044 74.1169 89.9324 74.0825C90.0605 74.0481 90.1697 73.9643 90.236 73.8495C90.3022 73.7347 90.3202 73.5982 90.2859 73.4702C90.2516 73.3421 90.1679 73.2329 90.0531 73.1665L86.0208 70.8389C85.906 70.7727 85.7695 70.7548 85.6415 70.7891C85.5134 70.8235 85.4043 70.9073 85.338 71.0221C85.2717 71.137 85.2537 71.2734 85.288 71.4015C85.3223 71.5296 85.4061 71.6388 85.5208 71.7051V71.7051ZM77.6244 55.1821C77.7126 55.1821 77.7992 55.1587 77.8754 55.1142L79.681 54.0649L81.4896 55.1094C81.6044 55.1756 81.7409 55.1935 81.869 55.1591C81.997 55.1248 82.1062 55.041 82.1725 54.9261C82.2387 54.8113 82.2567 54.6749 82.2224 54.5468C82.1881 54.4187 82.1044 54.3095 81.9896 54.2432L79.93 53.0537C79.8538 53.0097 79.7674 52.9866 79.6794 52.9868C79.5914 52.987 79.505 53.0104 79.429 53.0547L77.3734 54.25C77.2782 54.3051 77.2038 54.3901 77.1618 54.4918C77.1199 54.5935 77.1126 54.7062 77.1412 54.8124C77.1698 54.9186 77.2327 55.0124 77.32 55.0793C77.4074 55.1461 77.5144 55.1823 77.6244 55.1821L77.6244 55.1821ZM61.6097 64.4883C61.6979 64.4883 61.7845 64.4649 61.8607 64.4204L65.8646 62.0937C65.9214 62.0608 65.9711 62.017 66.0109 61.9648C66.0507 61.9126 66.0798 61.8531 66.0967 61.7897C66.1135 61.7263 66.1176 61.6601 66.1089 61.5951C66.1002 61.5301 66.0787 61.4674 66.0457 61.4106C66.0128 61.3539 65.969 61.3042 65.9168 61.2644C65.8646 61.2245 65.8051 61.1954 65.7417 61.1786C65.6783 61.1618 65.6121 61.1576 65.5471 61.1663C65.4821 61.1751 65.4194 61.1965 65.3626 61.2295L61.3587 63.5562C61.2636 63.6113 61.1893 63.6963 61.1474 63.798C61.1054 63.8996 61.0982 64.0123 61.1268 64.1185C61.1554 64.2246 61.2182 64.3184 61.3055 64.3853C61.3928 64.4522 61.4998 64.4884 61.6097 64.4883H61.6097ZM105.679 111.879C105.794 111.946 105.93 111.964 106.058 111.929C106.186 111.895 106.296 111.811 106.362 111.696C106.428 111.581 106.446 111.445 106.412 111.317C106.378 111.189 106.294 111.08 106.179 111.013L102.148 108.686C102.033 108.619 101.896 108.601 101.768 108.636C101.64 108.67 101.531 108.754 101.465 108.869C101.399 108.984 101.381 109.12 101.415 109.248C101.449 109.376 101.533 109.485 101.648 109.552L105.679 111.879ZM105.765 127.36L101.761 129.687C101.704 129.72 101.655 129.764 101.615 129.816C101.575 129.868 101.546 129.928 101.529 129.991C101.512 130.055 101.508 130.121 101.517 130.186C101.526 130.251 101.547 130.313 101.58 130.37C101.613 130.427 101.657 130.477 101.709 130.516C101.761 130.556 101.821 130.585 101.884 130.602C101.947 130.619 102.014 130.623 102.079 130.614C102.144 130.606 102.206 130.584 102.263 130.551L106.267 128.225C106.324 128.192 106.373 128.148 106.413 128.096C106.453 128.044 106.482 127.984 106.499 127.921C106.516 127.857 106.52 127.791 106.511 127.726C106.503 127.661 106.481 127.598 106.448 127.542C106.415 127.485 106.371 127.435 106.319 127.395C106.267 127.355 106.208 127.326 106.144 127.309C106.081 127.293 106.015 127.289 105.95 127.297C105.884 127.306 105.822 127.327 105.765 127.36H105.765ZM105.765 113.092L101.761 115.419C101.646 115.486 101.563 115.595 101.529 115.723C101.495 115.851 101.513 115.988 101.58 116.102C101.647 116.217 101.756 116.3 101.884 116.334C102.012 116.368 102.148 116.35 102.263 116.283L106.267 113.957C106.324 113.924 106.373 113.88 106.413 113.828C106.453 113.775 106.482 113.716 106.499 113.653C106.516 113.589 106.52 113.523 106.511 113.458C106.503 113.393 106.481 113.33 106.448 113.273C106.415 113.217 106.371 113.167 106.319 113.127C106.267 113.087 106.208 113.058 106.144 113.041C106.081 113.025 106.015 113.02 105.95 113.029C105.884 113.038 105.822 113.059 105.765 113.092H105.765ZM105.765 98.8243L101.761 101.151C101.646 101.217 101.563 101.327 101.529 101.455C101.495 101.583 101.513 101.719 101.58 101.834C101.647 101.949 101.756 102.032 101.884 102.066C102.012 102.1 102.148 102.082 102.263 102.015L106.267 99.6885C106.324 99.6556 106.373 99.6117 106.413 99.5596C106.453 99.5074 106.482 99.4479 106.499 99.3845C106.516 99.321 106.52 99.2549 106.511 99.1899C106.503 99.1248 106.481 99.0622 106.448 99.0054C106.415 98.9487 106.371 98.899 106.319 98.8591C106.267 98.8193 106.208 98.7902 106.144 98.7734C106.081 98.7565 106.015 98.7524 105.95 98.7611C105.884 98.7698 105.822 98.7913 105.765 98.8243H105.765ZM101.647 95.2833L105.679 97.6109C105.794 97.6771 105.93 97.695 106.058 97.6606C106.186 97.6263 106.296 97.5425 106.362 97.4276C106.428 97.3128 106.446 97.1764 106.412 97.0483C106.378 96.9202 106.294 96.811 106.179 96.7447L102.147 94.417C102.032 94.3508 101.896 94.3329 101.767 94.3673C101.639 94.4016 101.53 94.4854 101.464 94.6003C101.398 94.7151 101.38 94.8516 101.414 94.9796C101.448 95.1077 101.532 95.2169 101.647 95.2833V95.2833ZM105.765 84.5562L101.761 86.8828C101.646 86.9494 101.563 87.0588 101.529 87.1869C101.495 87.315 101.513 87.4513 101.58 87.5659C101.647 87.6805 101.756 87.764 101.884 87.798C102.012 87.8319 102.148 87.8136 102.263 87.7471L106.267 85.4204C106.382 85.3538 106.465 85.2445 106.499 85.1164C106.533 84.9883 106.515 84.8519 106.448 84.7373C106.382 84.6227 106.272 84.5392 106.144 84.5053C106.016 84.4713 105.88 84.4896 105.765 84.5562H105.765ZM97.7581 132.014L93.7542 134.34C93.6975 134.373 93.6478 134.417 93.608 134.469C93.5682 134.521 93.539 134.581 93.5222 134.644C93.5054 134.708 93.5012 134.774 93.5099 134.839C93.5187 134.904 93.5401 134.967 93.5731 135.023C93.6061 135.08 93.6499 135.13 93.702 135.17C93.7542 135.21 93.8137 135.239 93.8771 135.255C93.9406 135.272 94.0067 135.276 94.0717 135.268C94.1368 135.259 94.1994 135.238 94.2562 135.205L98.2601 132.878C98.3747 132.811 98.4582 132.702 98.4921 132.574C98.5261 132.446 98.5078 132.309 98.4412 132.195C98.3747 132.08 98.2653 131.997 98.1372 131.963C98.0091 131.929 97.8728 131.947 97.7581 132.014V132.014ZM97.7581 74.9414L95.4501 76.2823L94.0843 75.4937C93.9694 75.4274 93.833 75.4095 93.7049 75.4439C93.5769 75.4782 93.4677 75.5621 93.4014 75.6769C93.3351 75.7917 93.3172 75.9282 93.3515 76.0562C93.3857 76.1843 93.4695 76.2935 93.5843 76.3599L94.4532 76.8615L93.7542 77.2676C93.6971 77.3004 93.6471 77.3441 93.607 77.3963C93.5669 77.4485 93.5375 77.5081 93.5204 77.5717C93.5034 77.6352 93.4991 77.7015 93.5078 77.7668C93.5165 77.832 93.538 77.8949 93.571 77.9518C93.6041 78.0087 93.6481 78.0586 93.7004 78.0985C93.7528 78.1383 93.8125 78.1675 93.8762 78.1842C93.9399 78.2009 94.0062 78.2049 94.0714 78.1959C94.1366 78.1869 94.1994 78.1651 94.2561 78.1318L95.451 77.4377L97.6155 78.6875C97.7304 78.7537 97.8668 78.7716 97.9949 78.7373C98.1229 78.7029 98.2321 78.6191 98.2984 78.5043C98.3647 78.3894 98.3826 78.253 98.3484 78.1249C98.3141 77.9968 98.2303 77.8876 98.1155 77.8213L96.448 76.8585L98.26 75.8057C98.3168 75.7727 98.3665 75.7289 98.4063 75.6767C98.4461 75.6246 98.4753 75.5651 98.4921 75.5016C98.5089 75.4382 98.5131 75.3721 98.5043 75.307C98.4956 75.242 98.4741 75.1793 98.4412 75.1226C98.4082 75.0658 98.3644 75.0161 98.3122 74.9763C98.2601 74.9365 98.2006 74.9073 98.1371 74.8905C98.0737 74.8737 98.0076 74.8695 97.9426 74.8783C97.8775 74.887 97.8148 74.9084 97.7581 74.9414H97.7581ZM89.7513 79.5942L85.7474 81.9209C85.6907 81.9539 85.641 81.9977 85.6011 82.0498C85.5613 82.102 85.5322 82.1615 85.5154 82.2249C85.4985 82.2884 85.4944 82.3545 85.5031 82.4195C85.5118 82.4846 85.5333 82.5473 85.5663 82.604C85.5992 82.6608 85.643 82.7105 85.6952 82.7503C85.7474 82.7901 85.8069 82.8193 85.8703 82.8361C85.9338 82.8529 85.9999 82.8571 86.0649 82.8483C86.13 82.8396 86.1927 82.8181 86.2494 82.7852L90.2533 80.4585C90.3679 80.3919 90.4514 80.2825 90.4854 80.1544C90.5193 80.0263 90.501 79.89 90.4344 79.7754C90.3679 79.6608 90.2585 79.5773 90.1304 79.5433C90.0023 79.5093 89.8659 79.5277 89.7513 79.5942V79.5942ZM97.7581 103.478L95.4499 104.819L94.0843 104.03C93.9694 103.964 93.833 103.946 93.7049 103.981C93.5769 104.015 93.4677 104.099 93.4014 104.214C93.3351 104.328 93.3172 104.465 93.3515 104.593C93.3858 104.721 93.4695 104.83 93.5843 104.896L94.4528 105.398L93.7542 105.804C93.6972 105.836 93.6471 105.88 93.607 105.932C93.5669 105.985 93.5375 106.044 93.5205 106.108C93.5035 106.171 93.4992 106.238 93.5079 106.303C93.5166 106.368 93.538 106.431 93.5711 106.488C93.6042 106.545 93.6481 106.595 93.7005 106.635C93.7529 106.674 93.8126 106.704 93.8762 106.72C93.9399 106.737 94.0062 106.741 94.0714 106.732C94.1366 106.723 94.1994 106.701 94.2562 106.668L95.4508 105.974L97.6165 107.224C97.7314 107.29 97.8679 107.308 97.996 107.274C98.1241 107.24 98.2333 107.156 98.2996 107.041C98.366 106.926 98.3839 106.79 98.3496 106.662C98.3152 106.533 98.2314 106.424 98.1165 106.358L96.4478 105.395L98.2601 104.342C98.3168 104.309 98.3665 104.265 98.4064 104.213C98.4462 104.161 98.4753 104.101 98.4921 104.038C98.509 103.974 98.5131 103.908 98.5044 103.843C98.4957 103.778 98.4742 103.715 98.4412 103.659C98.4083 103.602 98.3645 103.552 98.3123 103.512C98.2601 103.473 98.2006 103.443 98.1372 103.427C98.0738 103.41 98.0077 103.406 97.9426 103.414C97.8776 103.423 97.8149 103.445 97.7581 103.478V103.478ZM97.7581 89.2095L95.4501 90.5504L94.0843 89.7617C93.9694 89.6955 93.833 89.6776 93.7049 89.7119C93.5769 89.7463 93.4677 89.8301 93.4014 89.9449C93.3351 90.0598 93.3172 90.1962 93.3515 90.3243C93.3857 90.4524 93.4695 90.5616 93.5843 90.6279L94.4532 91.1296L93.7542 91.5356C93.6971 91.5684 93.6471 91.6122 93.607 91.6644C93.5669 91.7165 93.5375 91.7761 93.5204 91.8397C93.5034 91.9033 93.4991 91.9696 93.5078 92.0349C93.5165 92.1001 93.538 92.163 93.571 92.2199C93.6041 92.2768 93.6481 92.3266 93.7004 92.3665C93.7528 92.4064 93.8125 92.4355 93.8762 92.4523C93.9399 92.469 94.0062 92.473 94.0714 92.464C94.1366 92.455 94.1994 92.4332 94.2561 92.3999L95.451 91.7057L97.6155 92.9556C97.7304 93.0218 97.8668 93.0397 97.9949 93.0053C98.1229 92.971 98.2321 92.8872 98.2984 92.7723C98.3647 92.6575 98.3826 92.5211 98.3484 92.393C98.3141 92.2649 98.2303 92.1557 98.1155 92.0894L96.448 91.1265L98.26 90.0737C98.3168 90.0408 98.3665 89.9969 98.4063 89.9448C98.4461 89.8926 98.4753 89.8331 98.4921 89.7697C98.5089 89.7063 98.5131 89.6401 98.5043 89.5751C98.4956 89.5101 98.4741 89.4474 98.4412 89.3906C98.4082 89.3339 98.3644 89.2842 98.3122 89.2444C98.2601 89.2045 98.2006 89.1754 98.1371 89.1586C98.0737 89.1418 98.0076 89.1376 97.9426 89.1463C97.8775 89.1551 97.8148 89.1765 97.7581 89.2095H97.7581ZM97.7581 117.746L93.7542 120.072C93.6972 120.105 93.6471 120.148 93.607 120.201C93.5669 120.253 93.5375 120.312 93.5205 120.376C93.5035 120.439 93.4992 120.506 93.5079 120.571C93.5166 120.636 93.538 120.699 93.5711 120.756C93.6042 120.813 93.6481 120.863 93.7005 120.903C93.7529 120.943 93.8126 120.972 93.8762 120.988C93.9399 121.005 94.0062 121.009 94.0714 121C94.1366 120.991 94.1994 120.969 94.2562 120.936L98.2601 118.61C98.3168 118.577 98.3665 118.533 98.4064 118.481C98.4462 118.429 98.4753 118.369 98.4921 118.306C98.509 118.242 98.5131 118.176 98.5044 118.111C98.4957 118.046 98.4742 117.984 98.4412 117.927C98.4083 117.87 98.3645 117.82 98.3123 117.78C98.2601 117.741 98.2006 117.712 98.1372 117.695C98.0738 117.678 98.0077 117.674 97.9426 117.682C97.8776 117.691 97.8149 117.713 97.7581 117.746V117.746ZM120.333 119.185L118.274 117.996C118.159 117.929 118.022 117.911 117.894 117.946C117.766 117.98 117.657 118.064 117.591 118.179C117.525 118.294 117.507 118.43 117.541 118.558C117.575 118.686 117.659 118.795 117.774 118.862L119.085 119.619L117.776 120.38C117.661 120.447 117.578 120.556 117.544 120.684C117.51 120.813 117.528 120.949 117.595 121.063C117.661 121.178 117.77 121.262 117.899 121.296C118.027 121.329 118.163 121.311 118.278 121.245L120.334 120.05C120.41 120.006 120.473 119.943 120.517 119.867C120.56 119.791 120.583 119.705 120.583 119.617C120.583 119.529 120.56 119.443 120.516 119.367C120.472 119.291 120.409 119.228 120.333 119.185L120.333 119.185ZM120.333 104.917L118.274 103.728C118.159 103.661 118.022 103.643 117.894 103.678C117.766 103.712 117.657 103.796 117.591 103.911C117.525 104.026 117.507 104.162 117.541 104.29C117.575 104.418 117.659 104.527 117.774 104.594L119.085 105.351L117.776 106.112C117.719 106.145 117.669 106.189 117.629 106.241C117.588 106.293 117.559 106.353 117.542 106.416C117.525 106.48 117.521 106.546 117.529 106.612C117.538 106.677 117.56 106.74 117.593 106.797C117.626 106.853 117.67 106.903 117.722 106.943C117.774 106.983 117.834 107.012 117.898 107.029C117.961 107.046 118.028 107.05 118.093 107.041C118.158 107.032 118.221 107.01 118.278 106.977L120.334 105.782C120.41 105.738 120.473 105.675 120.517 105.599C120.56 105.523 120.583 105.437 120.583 105.349C120.583 105.261 120.56 105.175 120.516 105.099C120.472 105.023 120.409 104.96 120.333 104.917L120.333 104.917ZM120.333 90.6485L118.274 89.4595C118.159 89.3933 118.022 89.3753 117.894 89.4097C117.766 89.4441 117.657 89.5279 117.591 89.6427C117.525 89.7575 117.507 89.894 117.541 90.0221C117.575 90.1501 117.659 90.2593 117.774 90.3257L119.085 91.083L117.776 91.8442C117.719 91.877 117.669 91.9208 117.629 91.9729C117.588 92.0251 117.559 92.0847 117.542 92.1483C117.525 92.2119 117.521 92.2782 117.529 92.3434C117.538 92.4087 117.56 92.4716 117.593 92.5285C117.626 92.5854 117.67 92.6352 117.722 92.6751C117.774 92.715 117.834 92.7441 117.898 92.7608C117.961 92.7776 118.028 92.7816 118.093 92.7726C118.158 92.7636 118.221 92.7418 118.278 92.7085L120.334 91.5137C120.41 91.4697 120.473 91.4065 120.517 91.3305C120.56 91.2546 120.583 91.1684 120.583 91.0808C120.583 90.9931 120.56 90.907 120.516 90.8311C120.472 90.7553 120.409 90.6922 120.333 90.6484L120.333 90.6485ZM113.772 65.6348L109.769 67.9615C109.712 67.9944 109.662 68.0382 109.623 68.0904C109.583 68.1426 109.554 68.2021 109.537 68.2655C109.52 68.329 109.516 68.3951 109.525 68.4601C109.533 68.5252 109.555 68.5878 109.588 68.6446C109.621 68.7013 109.665 68.751 109.717 68.7909C109.769 68.8307 109.828 68.8598 109.892 68.8766C109.955 68.8935 110.021 68.8976 110.086 68.8889C110.151 68.8801 110.214 68.8587 110.271 68.8257L114.274 66.4991C114.388 66.4325 114.472 66.3231 114.506 66.195C114.54 66.0669 114.522 65.9305 114.455 65.8159C114.388 65.7013 114.279 65.6179 114.151 65.5839C114.023 65.5499 113.886 65.5682 113.772 65.6348ZM120.333 76.3804L118.274 75.1914C118.159 75.1252 118.022 75.1073 117.894 75.1417C117.766 75.176 117.657 75.2598 117.591 75.3746C117.525 75.4895 117.507 75.6259 117.541 75.754C117.575 75.8821 117.659 75.9913 117.774 76.0576L119.085 76.815L117.776 77.5762C117.719 77.6091 117.669 77.653 117.629 77.7051C117.59 77.7573 117.56 77.8168 117.544 77.8802C117.527 77.9436 117.523 78.0098 117.531 78.0748C117.54 78.1399 117.562 78.2025 117.595 78.2593C117.628 78.316 117.671 78.3657 117.724 78.4055C117.776 78.4454 117.835 78.4745 117.899 78.4913C117.962 78.5082 118.028 78.5123 118.093 78.5036C118.158 78.4948 118.221 78.4734 118.278 78.4404L120.334 77.2456C120.41 77.2016 120.473 77.1385 120.517 77.0625C120.56 76.9865 120.583 76.9004 120.583 76.8127C120.583 76.7251 120.56 76.639 120.516 76.5631C120.472 76.4872 120.409 76.4242 120.333 76.3804L120.333 76.3804ZM105.765 70.2881L101.761 72.6148C101.646 72.6813 101.563 72.7907 101.529 72.9188C101.495 73.0469 101.513 73.1833 101.58 73.2979C101.647 73.4125 101.756 73.496 101.884 73.5299C102.012 73.5639 102.148 73.5456 102.263 73.479L106.267 71.1524C106.324 71.1194 106.373 71.0756 106.413 71.0234C106.453 70.9713 106.482 70.9118 106.499 70.8483C106.516 70.7849 106.52 70.7188 106.511 70.6537C106.503 70.5887 106.481 70.526 106.448 70.4693C106.415 70.4125 106.371 70.3628 106.319 70.323C106.267 70.2832 106.208 70.254 106.144 70.2372C106.081 70.2204 106.015 70.2162 105.95 70.225C105.884 70.2337 105.822 70.2551 105.765 70.2881H105.765ZM109.71 114.207L113.743 116.534C113.857 116.6 113.994 116.618 114.122 116.584C114.25 116.55 114.359 116.466 114.425 116.351C114.492 116.236 114.51 116.1 114.475 115.972C114.441 115.844 114.357 115.734 114.243 115.668L110.21 113.341C110.153 113.308 110.091 113.287 110.026 113.278C109.96 113.27 109.894 113.274 109.831 113.291C109.767 113.308 109.708 113.337 109.656 113.377C109.604 113.417 109.56 113.467 109.527 113.524C109.494 113.581 109.473 113.644 109.464 113.709C109.456 113.774 109.46 113.84 109.477 113.903C109.494 113.967 109.524 114.026 109.564 114.078C109.604 114.131 109.653 114.174 109.71 114.207V114.207ZM113.772 122.707L109.768 125.034C109.711 125.067 109.661 125.11 109.622 125.163C109.582 125.215 109.553 125.274 109.536 125.338C109.519 125.401 109.515 125.467 109.524 125.532C109.532 125.597 109.554 125.66 109.587 125.717C109.62 125.774 109.664 125.823 109.716 125.863C109.768 125.903 109.827 125.932 109.891 125.949C109.954 125.966 110.02 125.97 110.085 125.961C110.15 125.952 110.213 125.931 110.27 125.898L114.274 123.571C114.331 123.538 114.38 123.495 114.42 123.442C114.46 123.39 114.489 123.331 114.506 123.267C114.523 123.204 114.527 123.138 114.518 123.073C114.509 123.008 114.488 122.945 114.455 122.888C114.422 122.831 114.378 122.782 114.326 122.742C114.274 122.702 114.214 122.673 114.151 122.656C114.087 122.639 114.021 122.635 113.956 122.644C113.891 122.653 113.829 122.674 113.772 122.707H113.772ZM113.772 108.439L109.769 110.766C109.712 110.799 109.662 110.842 109.623 110.895C109.583 110.947 109.554 111.006 109.537 111.07C109.52 111.133 109.516 111.199 109.525 111.264C109.533 111.329 109.555 111.392 109.588 111.449C109.621 111.506 109.665 111.555 109.717 111.595C109.769 111.635 109.828 111.664 109.892 111.681C109.955 111.698 110.021 111.702 110.086 111.693C110.151 111.684 110.214 111.663 110.271 111.63L114.274 109.303C114.388 109.237 114.472 109.127 114.506 108.999C114.54 108.871 114.522 108.735 114.455 108.62C114.388 108.506 114.279 108.422 114.151 108.388C114.023 108.354 113.886 108.372 113.772 108.439ZM113.772 94.1709L109.769 96.4976C109.712 96.5305 109.662 96.5744 109.623 96.6265C109.583 96.6787 109.554 96.7382 109.537 96.8016C109.52 96.8651 109.516 96.9312 109.525 96.9962C109.533 97.0613 109.555 97.124 109.588 97.1807C109.621 97.2375 109.665 97.2872 109.717 97.327C109.769 97.3668 109.828 97.3959 109.892 97.4127C109.955 97.4296 110.021 97.4337 110.086 97.425C110.151 97.4163 110.214 97.3948 110.271 97.3618L114.274 95.0352C114.388 94.9686 114.472 94.8592 114.506 94.7311C114.54 94.603 114.522 94.4666 114.455 94.352C114.388 94.2374 114.279 94.154 114.151 94.12C114.023 94.086 113.886 94.1043 113.772 94.1709ZM113.772 79.9029L109.769 82.2295C109.654 82.2961 109.571 82.4055 109.537 82.5336C109.503 82.6617 109.521 82.798 109.588 82.9126C109.654 83.0272 109.764 83.1107 109.892 83.1447C110.02 83.1786 110.156 83.1603 110.271 83.0938L114.274 80.7671C114.331 80.7341 114.38 80.6903 114.42 80.6382C114.46 80.586 114.489 80.5265 114.506 80.4631C114.523 80.3996 114.527 80.3335 114.518 80.2685C114.509 80.2034 114.488 80.1407 114.455 80.084C114.422 80.0272 114.378 79.9775 114.326 79.9377C114.274 79.8979 114.214 79.8688 114.151 79.8519C114.087 79.8351 114.021 79.831 113.956 79.8397C113.891 79.8484 113.829 79.8699 113.772 79.9029H113.772ZM89.7513 122.398L85.7474 124.725C85.6907 124.758 85.641 124.802 85.6011 124.854C85.5613 124.906 85.5322 124.966 85.5154 125.029C85.4985 125.093 85.4944 125.159 85.5031 125.224C85.5119 125.289 85.5333 125.351 85.5663 125.408C85.5992 125.465 85.6431 125.515 85.6952 125.554C85.7474 125.594 85.8069 125.623 85.8703 125.64C85.9338 125.657 85.9999 125.661 86.0649 125.653C86.13 125.644 86.1927 125.622 86.2494 125.589L90.2533 123.263C90.3101 123.23 90.3598 123.186 90.3996 123.134C90.4394 123.082 90.4685 123.022 90.4854 122.959C90.5022 122.895 90.5063 122.829 90.4976 122.764C90.4889 122.699 90.4674 122.636 90.4345 122.58C90.4015 122.523 90.3577 122.473 90.3055 122.433C90.2533 122.393 90.1938 122.364 90.1304 122.348C90.067 122.331 90.0008 122.327 89.9358 122.335C89.8708 122.344 89.8081 122.365 89.7513 122.398L89.7513 122.398ZM74.098 124.729L70.0658 122.401C69.9509 122.335 69.8144 122.317 69.6864 122.352C69.5583 122.386 69.4492 122.47 69.3829 122.585C69.3166 122.699 69.2986 122.836 69.3329 122.964C69.3672 123.092 69.451 123.201 69.5658 123.268L73.598 125.595C73.7128 125.661 73.8493 125.679 73.9774 125.645C74.1054 125.611 74.2146 125.527 74.2809 125.412C74.3471 125.297 74.3651 125.161 74.3308 125.033C74.2965 124.905 74.2128 124.795 74.098 124.729V124.729ZM74.098 138.997L70.0667 136.669C69.9519 136.603 69.8154 136.585 69.6874 136.62C69.5593 136.654 69.4501 136.738 69.3838 136.853C69.3176 136.968 69.2996 137.104 69.3339 137.232C69.3682 137.36 69.4519 137.469 69.5667 137.536L73.598 139.863C73.7128 139.93 73.8494 139.948 73.9775 139.913C74.1056 139.879 74.2148 139.795 74.2811 139.68C74.3474 139.565 74.3654 139.429 74.331 139.301C74.2967 139.173 74.2128 139.063 74.098 138.997V138.997ZM74.098 96.1929L70.0667 93.8652C69.9519 93.799 69.8154 93.7811 69.6874 93.8155C69.5593 93.8498 69.4501 93.9336 69.3838 94.0485C69.3176 94.1633 69.2996 94.2997 69.3339 94.4278C69.3682 94.5559 69.4519 94.6651 69.5667 94.7314L73.598 97.0591C73.7128 97.1253 73.8493 97.1432 73.9774 97.1089C74.1054 97.0745 74.2146 96.9907 74.2809 96.8759C74.3471 96.761 74.3651 96.6246 74.3308 96.4965C74.2965 96.3684 74.2128 96.2592 74.098 96.1929V96.1929ZM74.098 110.461L70.0658 108.133C69.9509 108.067 69.8144 108.049 69.6863 108.083C69.5582 108.118 69.4489 108.202 69.3826 108.316C69.3163 108.431 69.2984 108.568 69.3327 108.696C69.3671 108.824 69.4509 108.933 69.5658 109L73.598 111.327C73.7128 111.393 73.8493 111.411 73.9774 111.377C74.1054 111.343 74.2146 111.259 74.2809 111.144C74.3471 111.029 74.3651 110.893 74.3308 110.765C74.2965 110.636 74.2128 110.527 74.098 110.461V110.461ZM69.8675 102.572L73.8714 100.245C73.9282 100.212 73.9779 100.168 74.0177 100.116C74.0575 100.064 74.0866 100.005 74.1035 99.9411C74.1203 99.8776 74.1245 99.8115 74.1157 99.7465C74.107 99.6814 74.0855 99.6188 74.0526 99.562C74.0196 99.5053 73.9758 99.4556 73.9236 99.4157C73.8715 99.3759 73.812 99.3468 73.7485 99.33C73.6851 99.3131 73.619 99.309 73.5539 99.3177C73.4889 99.3264 73.4262 99.3479 73.3695 99.3809L69.3656 101.708C69.2509 101.774 69.1675 101.883 69.1335 102.012C69.0995 102.14 69.1179 102.276 69.1844 102.391C69.251 102.505 69.3604 102.589 69.4885 102.623C69.6166 102.657 69.7529 102.638 69.8675 102.572H69.8675ZM74.098 81.9248L70.0667 79.5972C69.9519 79.5309 69.8154 79.513 69.6874 79.5474C69.5593 79.5818 69.4501 79.6656 69.3838 79.7804C69.3176 79.8952 69.2996 80.0317 69.3339 80.1597C69.3682 80.2878 69.4519 80.397 69.5667 80.4634L73.598 82.791C73.7128 82.8572 73.8493 82.8751 73.9774 82.8408C74.1054 82.8064 74.2146 82.7226 74.2809 82.6078C74.3471 82.4929 74.3651 82.3565 74.3308 82.2284C74.2965 82.1004 74.2128 81.9911 74.098 81.9248V81.9248ZM66.0345 120.074L62.0033 117.747C61.8884 117.68 61.7519 117.662 61.6239 117.697C61.4958 117.731 61.3866 117.815 61.3204 117.93C61.2541 118.045 61.2361 118.181 61.2704 118.309C61.3047 118.437 61.3885 118.546 61.5033 118.613L65.5345 120.94C65.6494 121.007 65.7858 121.025 65.9139 120.99C66.0419 120.956 66.1511 120.872 66.2174 120.757C66.2837 120.642 66.3016 120.506 66.2673 120.378C66.233 120.25 66.1493 120.141 66.0345 120.074ZM66.0345 77.2695L65.1657 76.7679L65.8646 76.3618C65.9213 76.3289 65.971 76.285 66.0108 76.2329C66.0507 76.1807 66.0798 76.1212 66.0966 76.0578C66.1134 75.9943 66.1176 75.9282 66.1089 75.8632C66.1001 75.7981 66.0787 75.7354 66.0457 75.6787C66.0127 75.6219 65.9689 75.5722 65.9168 75.5324C65.8646 75.4926 65.8051 75.4635 65.7417 75.4466C65.6782 75.4298 65.6121 75.4257 65.5471 75.4344C65.482 75.4431 65.4193 75.4646 65.3626 75.4976L64.1679 76.1918L62.0032 74.9419C61.8883 74.8757 61.7519 74.8578 61.6238 74.8921C61.4958 74.9265 61.3866 75.0103 61.3203 75.1251C61.254 75.24 61.2361 75.3764 61.2704 75.5045C61.3047 75.6325 61.3884 75.7418 61.5032 75.8081L63.171 76.7711L61.3587 77.8243C61.302 77.8572 61.2523 77.901 61.2125 77.9532C61.1727 78.0054 61.1435 78.0649 61.1267 78.1283C61.1099 78.1917 61.1057 78.2579 61.1144 78.3229C61.1232 78.388 61.1446 78.4506 61.1776 78.5074C61.2106 78.5641 61.2544 78.6138 61.3065 78.6537C61.3587 78.6935 61.4182 78.7226 61.4817 78.7394C61.5451 78.7563 61.6112 78.7604 61.6763 78.7517C61.7413 78.7429 61.804 78.7215 61.8607 78.6885L64.1688 77.3473L65.5346 78.1358C65.6494 78.202 65.7859 78.2199 65.9139 78.1856C66.042 78.1512 66.1512 78.0674 66.2174 77.9526C66.2837 77.8377 66.3017 77.7013 66.2674 77.5732C66.2331 77.4451 66.1494 77.3359 66.0346 77.2696L66.0345 77.2695ZM66.0345 134.342L62.0033 132.015C61.8884 131.948 61.7519 131.931 61.6239 131.965C61.4958 131.999 61.3866 132.083 61.3204 132.198C61.2541 132.313 61.2361 132.449 61.2704 132.577C61.3047 132.705 61.3885 132.815 61.5033 132.881L65.5345 135.208C65.6494 135.274 65.7858 135.292 65.9139 135.258C66.0419 135.223 66.1511 135.14 66.2174 135.025C66.2837 134.91 66.3016 134.773 66.2673 134.645C66.233 134.517 66.1493 134.408 66.0345 134.342V134.342ZM66.0345 91.5376L65.1661 91.0362L65.8646 90.6304C65.9213 90.5974 65.971 90.5536 66.0108 90.5014C66.0507 90.4493 66.0798 90.3898 66.0966 90.3263C66.1134 90.2629 66.1176 90.1968 66.1089 90.1317C66.1001 90.0667 66.0787 90.004 66.0457 89.9472C66.0127 89.8905 65.9689 89.8408 65.9168 89.801C65.8646 89.7612 65.8051 89.732 65.7417 89.7152C65.6782 89.6984 65.6121 89.6942 65.5471 89.703C65.482 89.7117 65.4193 89.7331 65.3626 89.7661L64.1682 90.46L62.0033 89.2099C61.8884 89.1436 61.7519 89.1257 61.6238 89.16C61.4957 89.1944 61.3864 89.2782 61.3201 89.3931C61.2538 89.5079 61.2359 89.6444 61.2702 89.7725C61.3046 89.9006 61.3884 90.0099 61.5033 90.0762L63.1712 91.0392L61.3587 92.0922C61.302 92.1252 61.2523 92.169 61.2125 92.2212C61.1727 92.2734 61.1435 92.3329 61.1267 92.3963C61.1099 92.4597 61.1057 92.5259 61.1145 92.5909C61.1232 92.6559 61.1447 92.7186 61.1776 92.7754C61.2106 92.8321 61.2544 92.8818 61.3066 92.9216C61.3587 92.9614 61.4182 92.9906 61.4817 93.0074C61.5451 93.0242 61.6112 93.0284 61.6763 93.0197C61.7413 93.0109 61.804 92.9895 61.8608 92.9565L64.1691 91.6154L65.5346 92.4038C65.6494 92.47 65.7859 92.4879 65.914 92.4535C66.042 92.4192 66.1512 92.3354 66.2175 92.2205C66.2837 92.1057 66.3017 91.9692 66.2674 91.8412C66.2331 91.7131 66.1494 91.6039 66.0346 91.5376L66.0345 91.5376ZM66.0345 105.806L65.1654 105.304L65.8646 104.898C65.9213 104.865 65.971 104.821 66.0108 104.769C66.0507 104.717 66.0798 104.657 66.0966 104.594C66.1134 104.53 66.1176 104.464 66.1089 104.399C66.1001 104.334 66.0787 104.272 66.0457 104.215C66.0127 104.158 65.9689 104.108 65.9168 104.069C65.8646 104.029 65.8051 104 65.7417 103.983C65.6782 103.966 65.6121 103.962 65.5471 103.971C65.482 103.979 65.4193 104.001 65.3626 104.034L64.1675 104.728L62.0032 103.479C61.8883 103.412 61.7519 103.394 61.6238 103.429C61.4958 103.463 61.3866 103.547 61.3203 103.662C61.254 103.777 61.2361 103.913 61.2704 104.041C61.3047 104.169 61.3884 104.278 61.5032 104.345L63.1706 105.307L61.3587 106.36C61.3019 106.393 61.2522 106.437 61.2124 106.489C61.1726 106.541 61.1435 106.601 61.1266 106.664C61.1098 106.728 61.1057 106.794 61.1144 106.859C61.1231 106.924 61.1446 106.987 61.1776 107.043C61.2105 107.1 61.2543 107.15 61.3065 107.19C61.3587 107.23 61.4182 107.259 61.4816 107.276C61.545 107.292 61.6112 107.297 61.6762 107.288C61.7413 107.279 61.8039 107.258 61.8607 107.225L64.1684 105.884L65.5345 106.672C65.6494 106.739 65.7858 106.756 65.9139 106.722C66.0419 106.688 66.1511 106.604 66.2174 106.489C66.2837 106.374 66.3016 106.238 66.2674 106.11C66.2331 105.982 66.1493 105.873 66.0345 105.806H66.0345ZM89.5531 102.569C89.6679 102.635 89.8044 102.653 89.9324 102.619C90.0605 102.584 90.1697 102.5 90.2359 102.386C90.3022 102.271 90.3202 102.134 90.2859 102.006C90.2516 101.878 90.1678 101.769 90.0531 101.703L86.0218 99.375C85.9069 99.3088 85.7705 99.2909 85.6424 99.3252C85.5144 99.3596 85.4052 99.4434 85.3389 99.5582C85.2726 99.6731 85.2547 99.8095 85.289 99.9376C85.3233 100.066 85.407 100.175 85.5218 100.241L89.5531 102.569ZM89.7513 136.667L85.7474 138.993C85.6328 139.06 85.5493 139.169 85.5153 139.297C85.4814 139.425 85.4997 139.562 85.5663 139.676C85.6328 139.791 85.7422 139.874 85.8703 139.908C85.9984 139.942 86.1348 139.924 86.2494 139.857L90.2533 137.531C90.31 137.498 90.3597 137.454 90.3996 137.402C90.4394 137.35 90.4685 137.29 90.4853 137.227C90.5022 137.163 90.5063 137.097 90.4976 137.032C90.4889 136.967 90.4674 136.904 90.4344 136.848C90.4015 136.791 90.3577 136.741 90.3055 136.701C90.2533 136.662 90.1938 136.632 90.1304 136.616C90.0669 136.599 90.0008 136.595 89.9358 136.603C89.8707 136.612 89.808 136.634 89.7513 136.667V136.667ZM89.7513 93.8623L85.7474 96.189C85.6906 96.2219 85.6409 96.2657 85.6011 96.3179C85.5613 96.3701 85.5322 96.4296 85.5153 96.493C85.4985 96.5564 85.4944 96.6226 85.5031 96.6876C85.5118 96.7527 85.5333 96.8153 85.5663 96.8721C85.5992 96.9288 85.643 96.9785 85.6952 97.0184C85.7474 97.0582 85.8069 97.0873 85.8703 97.1041C85.9337 97.121 85.9999 97.1251 86.0649 97.1164C86.13 97.1076 86.1926 97.0862 86.2494 97.0532L90.2533 94.7266C90.3679 94.66 90.4514 94.5506 90.4853 94.4225C90.5193 94.2944 90.501 94.158 90.4344 94.0434C90.3679 93.9288 90.2585 93.8454 90.1304 93.8114C90.0023 93.7774 89.8659 93.7957 89.7513 93.8623V93.8623ZM57.972 72.6143L53.9408 70.2871C53.8259 70.2209 53.6894 70.203 53.5614 70.2373C53.4333 70.2717 53.3242 70.3555 53.2579 70.4703C53.1916 70.5852 53.1736 70.7216 53.2079 70.8497C53.2422 70.9778 53.326 71.087 53.4408 71.1533L57.472 73.4805C57.5868 73.5467 57.7233 73.5646 57.8514 73.5302C57.9794 73.4959 58.0886 73.4121 58.1549 73.2972C58.2211 73.1824 58.2391 73.046 58.2048 72.9179C58.1705 72.7898 58.0868 72.6806 57.972 72.6143V72.6143ZM89.7513 108.13L85.7474 110.457C85.6328 110.524 85.5493 110.633 85.5153 110.761C85.4814 110.889 85.4997 111.026 85.5662 111.14C85.6328 111.255 85.7422 111.338 85.8703 111.372C85.9984 111.406 86.1348 111.388 86.2494 111.321L90.2533 108.995C90.31 108.962 90.3597 108.918 90.3995 108.866C90.4394 108.814 90.4685 108.754 90.4853 108.691C90.5021 108.627 90.5063 108.561 90.4976 108.496C90.4888 108.431 90.4674 108.368 90.4344 108.312C90.4014 108.255 90.3576 108.205 90.3055 108.165C90.2533 108.125 90.1938 108.096 90.1304 108.079C90.0669 108.063 90.0008 108.058 89.9358 108.067C89.8707 108.076 89.808 108.097 89.7513 108.13V108.13ZM85.5208 85.9731L89.5531 88.3007C89.6679 88.367 89.8044 88.385 89.9326 88.3507C90.0607 88.3163 90.1699 88.2325 90.2362 88.1176C90.3025 88.0028 90.3204 87.8663 90.2861 87.7382C90.2518 87.61 90.1679 87.5008 90.0531 87.4345L86.0208 85.1069C85.906 85.0407 85.7695 85.0228 85.6415 85.0571C85.5134 85.0915 85.4043 85.1753 85.338 85.2901C85.2717 85.405 85.2537 85.5414 85.288 85.6695C85.3223 85.7975 85.4061 85.9068 85.5208 85.9731V85.9731ZM81.7445 127.052L79.9378 128.101L78.1293 127.057C78.0724 127.024 78.0096 127.003 77.9445 126.994C77.8794 126.985 77.8132 126.99 77.7498 127.007C77.6863 127.024 77.6269 127.053 77.5748 127.093C77.5227 127.133 77.479 127.183 77.4461 127.24C77.4133 127.297 77.392 127.359 77.3834 127.425C77.3749 127.49 77.3792 127.556 77.3962 127.619C77.4132 127.683 77.4426 127.742 77.4825 127.794C77.5225 127.846 77.5724 127.89 77.6293 127.923L79.6888 129.112C79.7649 129.156 79.8511 129.179 79.9388 129.179C80.027 129.179 80.1137 129.156 80.1898 129.111L82.2465 127.916C82.3032 127.883 82.3529 127.839 82.3927 127.787C82.4325 127.735 82.4617 127.675 82.4785 127.612C82.4953 127.549 82.4995 127.482 82.4908 127.417C82.482 127.352 82.4606 127.29 82.4276 127.233C82.3947 127.176 82.3508 127.127 82.2987 127.087C82.2465 127.047 82.187 127.018 82.1236 127.001C82.0602 126.984 81.994 126.98 81.929 126.989C81.8639 126.997 81.8013 127.019 81.7445 127.052L81.7445 127.052ZM77.8753 97.9185L79.681 96.8691L81.4896 97.9135C81.6044 97.9798 81.7409 97.9977 81.869 97.9633C81.997 97.9289 82.1062 97.8451 82.1725 97.7303C82.2387 97.6155 82.2567 97.479 82.2224 97.351C82.1881 97.2229 82.1044 97.1137 81.9896 97.0473L79.93 95.8579C79.8538 95.8139 79.7674 95.7908 79.6794 95.791C79.5914 95.7912 79.505 95.8146 79.429 95.8589L77.3734 97.0542C77.3163 97.087 77.2663 97.1308 77.2262 97.1829C77.186 97.2351 77.1566 97.2947 77.1396 97.3583C77.1226 97.4219 77.1183 97.4882 77.127 97.5534C77.1357 97.6187 77.1572 97.6816 77.1902 97.7385C77.2233 97.7954 77.2673 97.8452 77.3196 97.8851C77.372 97.925 77.4317 97.9541 77.4954 97.9708C77.559 97.9875 77.6254 97.9915 77.6906 97.9825C77.7558 97.9736 77.8186 97.9518 77.8753 97.9185L77.8753 97.9185ZM81.7445 141.32L79.9378 142.369L78.1293 141.325C78.0144 141.258 77.8779 141.241 77.7499 141.275C77.6218 141.309 77.5127 141.393 77.4464 141.508C77.3801 141.623 77.3621 141.759 77.3964 141.887C77.4307 142.015 77.5145 142.125 77.6293 142.191L79.6888 143.38C79.7649 143.424 79.8511 143.447 79.9388 143.447C80.027 143.447 80.1137 143.424 80.1898 143.379L82.2465 142.184C82.3032 142.151 82.3529 142.107 82.3927 142.055C82.4325 142.003 82.4617 141.943 82.4785 141.88C82.4953 141.817 82.4995 141.75 82.4908 141.685C82.482 141.62 82.4606 141.558 82.4276 141.501C82.3947 141.444 82.3508 141.395 82.2987 141.355C82.2465 141.315 82.187 141.286 82.1236 141.269C82.0602 141.252 81.994 141.248 81.929 141.257C81.8639 141.265 81.8013 141.287 81.7445 141.32H81.7445ZM81.7445 98.5156L79.9378 99.5649L78.1293 98.5205C78.0144 98.4543 77.8779 98.4364 77.7499 98.4707C77.6218 98.5051 77.5127 98.5889 77.4464 98.7037C77.3801 98.8186 77.3621 98.955 77.3964 99.0831C77.4307 99.2112 77.5145 99.3204 77.6293 99.3867L79.6888 100.576C79.7649 100.619 79.8511 100.643 79.9388 100.643C80.027 100.643 80.1137 100.619 80.1898 100.575L82.2465 99.3799C82.3032 99.347 82.3529 99.3031 82.3927 99.251C82.4325 99.1988 82.4617 99.1393 82.4785 99.0759C82.4953 99.0124 82.4995 98.9463 82.4908 98.8813C82.482 98.8162 82.4606 98.7536 82.4276 98.6968C82.3947 98.6401 82.3508 98.5904 82.2987 98.5505C82.2465 98.5107 82.187 98.4816 82.1236 98.4648C82.0602 98.4479 81.994 98.4438 81.929 98.4525C81.8639 98.4612 81.8013 98.4827 81.7445 98.5157L81.7445 98.5156ZM81.7445 84.2476L79.9378 85.2969L78.1293 84.2524C78.0144 84.1862 77.8779 84.1683 77.7499 84.2027C77.6218 84.237 77.5127 84.3208 77.4464 84.4357C77.3801 84.5505 77.3621 84.687 77.3964 84.815C77.4307 84.9431 77.5145 85.0523 77.6293 85.1187L79.6888 86.3077C79.7649 86.3514 79.8511 86.3745 79.9388 86.3746C80.027 86.3747 80.1137 86.3513 80.1898 86.3067L82.2465 85.1119C82.3032 85.0789 82.3529 85.0351 82.3927 84.9829C82.4325 84.9307 82.4617 84.8713 82.4785 84.8078C82.4953 84.7444 82.4995 84.6783 82.4908 84.6132C82.482 84.5482 82.4606 84.4855 82.4276 84.4287C82.3947 84.372 82.3508 84.3223 82.2987 84.2825C82.2465 84.2427 82.187 84.2135 82.1236 84.1967C82.0602 84.1799 81.994 84.1757 81.929 84.1844C81.8639 84.1932 81.8013 84.2146 81.7445 84.2476L81.7445 84.2476ZM81.7445 112.784L79.9378 113.833L78.1293 112.789C78.0144 112.722 77.8779 112.704 77.7499 112.739C77.6218 112.773 77.5127 112.857 77.4464 112.972C77.3801 113.087 77.3621 113.223 77.3964 113.351C77.4307 113.479 77.5145 113.588 77.6293 113.655L79.6888 114.844C79.7649 114.888 79.8511 114.911 79.9388 114.911C80.027 114.911 80.1137 114.887 80.1898 114.843L82.2465 113.648C82.3611 113.581 82.4445 113.472 82.4785 113.344C82.5125 113.216 82.4942 113.079 82.4276 112.965C82.361 112.85 82.2517 112.767 82.1236 112.733C81.9955 112.699 81.8591 112.717 81.7445 112.784L81.7445 112.784Z" fill="url(#paint1_linear)"/>
<g opacity="0.3">
<path opacity="0.3" d="M79.939 85.8747L120.083 62.5447L79.68 39.2188L39.536 62.5477L79.939 85.8747Z" fill="url(#paint2_linear)"/>
</g>
<path d="M79.6952 58.1806L79.6882 60.6739L65.8776 52.7004L65.8846 50.207L79.6952 58.1806ZM81.6871 59.3306L81.6801 61.8239L95.4946 69.7997L95.5017 67.3064L81.6871 59.3306Z" fill="url(#paint3_linear)"/>
<path d="M93.4356 50.1953L93.4284 52.6886L79.6882 60.6736L79.6953 58.1803L93.4356 50.1953ZM62.4867 70.67L77.7093 61.8237L77.7163 59.3303L62.4938 68.1767L62.4867 70.67Z" fill="url(#paint4_linear)"/>
<path d="M79.6952 58.18L65.8846 50.2065C66.1754 49.9877 66.4739 49.778 66.7842 49.5751C67.0906 49.3699 67.4048 49.1692 67.7268 48.973L74.6105 44.9726C74.9313 44.8092 75.2856 44.7224 75.6456 44.7189C76.0055 44.7153 76.3615 44.7953 76.6854 44.9523C77.1892 45.2251 77.6993 45.4897 78.2159 45.7461C79.0865 46.1767 80.0049 46.5751 80.9711 46.9412C81.9505 47.3122 82.9521 47.6217 83.9701 47.868C85.0858 48.1339 86.2167 48.3319 87.3564 48.461C88.445 48.5781 89.521 48.7916 90.5718 49.0992C91.5529 49.3911 92.5102 49.7574 93.4355 50.1951L79.6952 58.18ZM104.537 61.0325C104.057 60.7371 103.592 60.4372 103.146 60.1395C102.426 59.658 101.739 59.1292 101.09 58.5565C100.493 58.0372 99.9532 57.4559 99.4797 56.8224C99.0382 56.2315 98.6893 55.5768 98.445 54.8809C98.205 54.1845 97.8251 53.5445 97.3287 53.0002C96.7601 52.3779 96.1222 51.8226 95.4274 51.3451L81.6871 59.3301L95.5017 67.3059C95.8861 67.1413 96.2511 66.9699 96.6044 66.7918C96.9538 66.6114 97.2954 66.4265 97.6251 66.2348L104.509 62.2344C104.633 62.1923 104.741 62.113 104.819 62.0073C104.897 61.9016 104.94 61.7745 104.943 61.6433C104.946 61.5121 104.909 61.3832 104.836 61.2739C104.764 61.1647 104.659 61.0804 104.537 61.0325ZM64.2767 51.5708C63.1059 52.6841 62.1696 54.0205 61.5231 55.5012C60.9514 56.8402 60.6232 58.2705 60.5541 59.7248C60.4911 61.1724 60.6462 62.6213 61.0143 64.0228C61.3811 65.4492 61.8763 66.8394 62.4937 68.1765L77.7162 59.3301L64.2767 51.5708ZM64.4856 69.3265C66.7962 69.6805 69.1893 69.9624 71.6652 70.1721C74.1332 70.3813 76.6102 70.4655 79.0868 70.4246C81.5259 70.3854 83.9601 70.1933 86.3752 69.8496C88.6786 69.5283 90.9462 68.9892 93.1477 68.2395L79.7082 60.4801L64.4856 69.3265Z" fill="url(#paint5_linear)"/>
<path d="M104.944 61.6243L104.936 64.1176C104.924 64.2485 104.878 64.3738 104.801 64.4808C104.725 64.5878 104.622 64.6727 104.502 64.7268L97.618 68.7271C97.2882 68.9188 96.9466 69.1038 96.5972 69.2841C96.244 69.4623 95.879 69.6336 95.4946 69.7983L95.5016 67.305C95.886 67.1403 96.251 66.969 96.6043 66.7908C96.9537 66.6104 97.2953 66.4255 97.625 66.2338L104.509 62.2335C104.629 62.1794 104.732 62.0945 104.808 61.9875C104.885 61.8805 104.931 61.7552 104.944 61.6243V61.6243ZM60.5395 60.3242L60.5324 62.8175C60.5317 64.0653 60.6913 65.308 61.0072 66.5152C61.3741 67.9415 61.8692 69.3317 62.4866 70.6689L62.4937 68.1755C61.8763 66.8384 61.3811 65.4482 61.0143 64.0218C60.6983 62.8147 60.5387 61.572 60.5395 60.3242V60.3242ZM79.0868 70.4237C76.6102 70.4646 74.1332 70.3803 71.6652 70.1712C69.1919 69.9614 66.7988 69.6796 64.4856 69.3256L64.4785 71.8189C66.789 72.1729 69.1823 72.4548 71.6581 72.6645C74.1261 72.8736 76.6031 72.9579 79.0796 72.917C81.5187 72.8778 83.9529 72.6858 86.368 72.342C88.6714 72.0208 90.9391 71.4816 93.1406 70.7319L93.1477 68.2385C90.9462 68.9883 88.6785 69.5274 86.3752 69.8486C83.9601 70.1924 81.5259 70.3845 79.0868 70.4237V70.4237Z" fill="url(#paint6_linear)"/>
</g>
<defs>
<linearGradient id="paint0_linear" x1="79.6785" y1="8.27734" x2="79.6785" y2="179.692" gradientUnits="userSpaceOnUse">
<stop stop-color="#00ABDE"/>
<stop offset="1" stop-color="#007ED8"/>
</linearGradient>
<linearGradient id="paint1_linear" x1="79.8094" y1="143.447" x2="79.8094" y2="38.7187" gradientUnits="userSpaceOnUse">
<stop stop-color="white"/>
<stop offset="1" stop-color="white" stop-opacity="0"/>
</linearGradient>
<linearGradient id="paint2_linear" x1="6467.95" y1="4045.78" x2="6467.95" y2="1869.01" gradientUnits="userSpaceOnUse">
<stop stop-color="white"/>
<stop offset="1" stop-color="white" stop-opacity="0"/>
</linearGradient>
<linearGradient id="paint3_linear" x1="65.8776" y1="60.0034" x2="95.5017" y2="60.0034" gradientUnits="userSpaceOnUse">
<stop stop-color="#005BA1"/>
<stop offset="0.26" stop-color="#00589D"/>
<stop offset="0.53" stop-color="#004F90"/>
<stop offset="0.8" stop-color="#003F7C"/>
<stop offset="1" stop-color="#003067"/>
</linearGradient>
<linearGradient id="paint4_linear" x1="1996.38" y1="1287.54" x2="2954.22" y2="1287.54" gradientUnits="userSpaceOnUse">
<stop stop-color="#005BA1"/>
<stop offset="0.26" stop-color="#00589D"/>
<stop offset="0.53" stop-color="#004F90"/>
<stop offset="0.8" stop-color="#003F7C"/>
<stop offset="1" stop-color="#003067"/>
</linearGradient>
<linearGradient id="paint5_linear" x1="82.7415" y1="44.7188" x2="82.7415" y2="70.4346" gradientUnits="userSpaceOnUse">
<stop stop-color="#008BF1"/>
<stop offset="0.22" stop-color="#0086EC"/>
<stop offset="0.49" stop-color="#0078DD"/>
<stop offset="0.79" stop-color="#0061C4"/>
<stop offset="1" stop-color="#004DAE"/>
</linearGradient>
<linearGradient id="paint6_linear" x1="3735.03" y1="820.599" x2="3735.03" y2="979.714" gradientUnits="userSpaceOnUse">
<stop stop-color="#005BA1"/>
<stop offset="0.26" stop-color="#00589D"/>
<stop offset="0.53" stop-color="#004F90"/>
<stop offset="0.8" stop-color="#003F7C"/>
<stop offset="1" stop-color="#003067"/>
</linearGradient>
<clipPath id="clip0">
<rect width="159.356" height="188" fill="white"/>
</clipPath>
</defs>
</svg>
