<svg width="100" height="100" viewBox="0 0 100 100" fill="none" xmlns="http://www.w3.org/2000/svg">
<g clip-path="url(#clip0)">
<path d="M49.6401 96.4501C40.382 96.4501 31.3317 93.7047 23.6339 88.5612C15.936 83.4176 9.93624 76.1069 6.3933 67.5535C2.85036 59.0001 1.92337 49.5882 3.72954 40.5079C5.53571 31.4277 9.99394 23.0869 16.5404 16.5404C23.0869 9.99393 31.4277 5.53571 40.5079 3.72954C49.5882 1.92337 59.0001 2.85036 67.5535 6.3933C76.1069 9.93624 83.4176 15.936 88.5612 23.6339C93.7047 31.3317 96.4501 40.382 96.4501 49.6401C96.4505 55.7874 95.24 61.8746 92.8878 67.554C90.5355 73.2335 87.0875 78.3939 82.7407 82.7407C78.3939 87.0875 73.2335 90.5355 67.554 92.8878C61.8746 95.24 55.7874 96.4505 49.6401 96.4501V96.4501Z" fill="url(#paint0_linear)"/>
<path fill-rule="evenodd" clip-rule="evenodd" d="M95.54 49.64C95.54 58.7182 92.848 67.5925 87.8045 75.1407C82.7609 82.6889 75.5923 88.572 67.2052 92.0461C58.818 95.5201 49.5891 96.4291 40.6854 94.658C31.7816 92.887 23.603 88.5154 17.1838 82.0962C10.7646 75.677 6.39302 67.4984 4.62196 58.5946C2.85089 49.6909 3.75987 40.462 7.23393 32.0748C10.708 23.6877 16.5911 16.5191 24.1393 11.4755C31.6875 6.43199 40.5618 3.74 49.64 3.74C55.6677 3.73998 61.6363 4.9272 67.2052 7.23388C72.774 9.54057 77.834 12.9215 82.0963 17.1837C86.3585 21.446 89.7394 26.5059 92.0461 32.0748C94.3528 37.6437 95.54 43.6123 95.54 49.64V49.64ZM49.64 3.62732e-07C59.4579 3.62732e-07 69.0553 2.91134 77.2185 8.36585C85.3818 13.8204 91.7442 21.5731 95.5014 30.6436C99.2585 39.7141 100.242 49.6951 98.3262 59.3243C96.4108 68.9535 91.6831 77.7985 84.7408 84.7408C77.7985 91.6831 68.9535 96.4108 59.3243 98.3262C49.6951 100.242 39.7141 99.2585 30.6436 95.5014C21.5731 91.7442 13.8204 85.3818 8.36585 77.2185C2.91134 69.0553 3.62732e-07 59.4579 3.62732e-07 49.64C-0.000787738 43.121 1.28265 36.6656 3.77702 30.6427C6.27138 24.6197 9.9278 19.1471 14.5375 14.5375C19.1471 9.9278 24.6197 6.27138 30.6427 3.77702C36.6656 1.28265 43.121 -0.000787738 49.64 3.62732e-07V3.62732e-07Z" fill="#F2F1F0"/>
<path fill-rule="evenodd" clip-rule="evenodd" d="M92.7296 49.6406C92.7296 58.163 90.2024 66.494 85.4676 73.5801C80.7328 80.6662 74.0031 86.1892 66.1294 89.4505C58.2557 92.7119 49.5918 93.5653 41.2331 91.9026C32.8745 90.24 25.1966 86.1361 19.1703 80.1098C13.1441 74.0836 9.04017 66.4057 7.37753 58.047C5.7149 49.6884 6.56822 41.0244 9.8296 33.1507C13.091 25.2771 18.6139 18.5473 25.7 13.8126C32.7862 9.07776 41.1172 6.55058 49.6396 6.55058C55.2983 6.55023 60.9017 7.66455 66.1298 9.82991C71.3579 11.9953 76.1082 15.1692 80.1096 19.1706C84.1109 23.1719 87.2849 27.9223 89.4502 33.1503C91.6156 38.3784 92.7299 43.9818 92.7296 49.6406V49.6406ZM49.6396 2.81058C58.9017 2.81058 67.9558 5.55711 75.6569 10.7029C83.3581 15.8486 89.3604 23.1624 92.9049 31.7195C96.4493 40.2766 97.3767 49.6925 95.5697 58.7767C93.7628 67.8608 89.3027 76.2051 82.7534 82.7544C76.2041 89.3037 67.8598 93.7638 58.7757 95.5708C49.6915 97.3777 40.2756 96.4503 31.7185 92.9059C23.1614 89.3614 15.8476 83.3591 10.7018 75.6579C5.5561 67.9568 2.80957 58.9027 2.80957 49.6406C2.81076 37.2209 7.745 25.3101 16.5271 16.5281C25.3091 7.74599 37.2198 2.81174 49.6396 2.81055V2.81058Z" fill="#0078D4"/>
<path d="M43.071 72.0315C43.0788 72.6007 43.3084 73.1445 43.7109 73.5471C44.1135 73.9498 44.6573 74.1794 45.2266 74.1871H54.0515C54.6208 74.1794 55.1646 73.9498 55.5672 73.5472C55.9699 73.1446 56.1995 72.6008 56.2073 72.0315V65.5645H43.071V72.0315Z" fill="#1F56A3"/>
<path d="M67.5246 29.9954C66.5481 27.6878 65.1292 25.5937 63.348 23.8314C61.5703 22.0774 59.4796 20.6721 57.1841 19.6884C54.7996 18.6677 52.233 18.1407 49.6392 18.139C47.047 18.1229 44.4791 18.6388 42.0942 19.6548C39.7866 20.6312 37.6926 22.0501 35.9303 23.8314C34.1763 25.6091 32.7711 27.6999 31.7875 29.9954C30.7667 32.3799 30.2396 34.9465 30.2381 37.5403C30.208 40.0651 30.7131 42.5676 31.72 44.8831C32.7686 47.1937 34.2296 49.2939 36.0314 51.0807C37.9731 53.0152 39.5985 55.243 40.848 57.6825C42.0694 60.1499 42.8232 62.8223 43.0711 65.5643H56.2074C56.4553 62.8223 57.209 60.15 58.4303 57.6825C59.6798 55.243 61.3052 53.0152 63.247 51.0807C65.0356 49.3031 66.4852 47.2144 67.5246 44.9168C68.5345 42.5893 69.0506 40.0775 69.0404 37.5403C69.0565 34.9481 68.5406 32.3802 67.5246 29.9954Z" fill="url(#paint1_linear)"/>
<path d="M38.6867 43.6123L47.4627 28.6308C47.6852 28.2509 48.0033 27.9359 48.3853 27.7169C48.7673 27.498 49.1999 27.3828 49.6402 27.3828C50.0805 27.3828 50.5131 27.498 50.8951 27.7169C51.2771 27.9359 51.5951 28.2509 51.8177 28.6308L60.5937 43.6123C60.8183 43.9957 60.9376 44.4316 60.9397 44.876C60.9418 45.3203 60.8266 45.7573 60.6056 46.1428C60.3847 46.5283 60.0659 46.8487 59.6814 47.0714C59.297 47.2942 58.8605 47.4115 58.4162 47.4115H40.8642C40.4199 47.4115 39.9834 47.2942 39.5989 47.0714C39.2145 46.8487 38.8957 46.5283 38.6747 46.1428C38.4538 45.7573 38.3385 45.3203 38.3406 44.876C38.3427 44.4316 38.4621 43.9957 38.6867 43.6123Z" fill="#FF9300"/>
<path d="M40.864 46.1494C40.6419 46.1493 40.4237 46.0905 40.2316 45.9791C40.0394 45.8677 39.8801 45.7076 39.7696 45.5149C39.6592 45.3222 39.6016 45.1037 39.6026 44.8816C39.6035 44.6595 39.6631 44.4416 39.7753 44.2499L48.5513 29.2684C48.6627 29.0784 48.8218 28.9209 49.0128 28.8115C49.2039 28.7021 49.4202 28.6445 49.6404 28.6445C49.8606 28.6446 50.0769 28.7022 50.2679 28.8117C50.4589 28.9212 50.618 29.0787 50.7293 29.2687L59.5047 44.2499C59.617 44.4416 59.6767 44.6595 59.6778 44.8817C59.6789 45.1039 59.6213 45.3224 59.5108 45.5151C59.4003 45.7079 59.2409 45.8681 59.0486 45.9794C58.8564 46.0908 58.6381 46.1494 58.416 46.1494H40.864Z" fill="#FFCA00"/>
<path d="M49.6401 33.9121V39.9559" stroke="#FF9300" stroke-width="1.26181" stroke-miterlimit="10" stroke-linecap="round"/>
<path d="M49.64 43.7786C50.1021 43.7786 50.4766 43.4041 50.4766 42.942C50.4766 42.48 50.1021 42.1055 49.64 42.1055C49.178 42.1055 48.8035 42.48 48.8035 42.942C48.8035 43.4041 49.178 43.7786 49.64 43.7786Z" fill="#FF9300"/>
<path opacity="0.2" d="M55.567 73.5465C55.7716 73.351 55.934 73.1157 56.0441 72.855C56.1542 72.5943 56.2097 72.3138 56.2072 72.0308V65.5638C56.4551 62.8219 57.2088 60.1495 58.4301 57.6821C58.6371 57.2721 58.873 56.8731 59.1051 56.4727H51.8538C50.7363 56.474 49.6649 56.9185 48.8747 57.7088C48.0846 58.499 47.6401 59.5704 47.6389 60.688V74.1865H54.0513C54.3342 74.189 54.6147 74.1335 54.8754 74.0235C55.1361 73.9134 55.3715 73.7511 55.567 73.5465V73.5465Z" fill="#003067"/>
<path d="M72.0258 58.4727H51.8544C50.6309 58.4727 49.6392 59.4644 49.6392 60.6879V74.6649C49.6392 75.8883 50.6309 76.8801 51.8544 76.8801H72.0258C73.2492 76.8801 74.241 75.8883 74.241 74.6649V60.6879C74.241 59.4644 73.2492 58.4727 72.0258 58.4727Z" fill="white"/>
<path d="M53.3257 62.7441H70.5556" stroke="#E8E8E8" stroke-width="2.15428" stroke-miterlimit="10" stroke-linecap="round"/>
<path d="M53.3257 62.7441H64.2119" stroke="#50E6FF" stroke-width="2.15428" stroke-miterlimit="10" stroke-linecap="round"/>
<path d="M53.3257 67.6777H70.5556" stroke="#E8E8E8" stroke-width="2.15428" stroke-miterlimit="10" stroke-linecap="round"/>
<path d="M53.3257 67.6777H66.8579" stroke="#0078D4" stroke-width="2.15428" stroke-miterlimit="10" stroke-linecap="round"/>
<path d="M53.3257 72.6113H70.5556" stroke="#E8E8E8" stroke-width="2.15428" stroke-miterlimit="10" stroke-linecap="round"/>
<path d="M53.3257 72.6113H60.897" stroke="#1F56A3" stroke-width="2.15428" stroke-miterlimit="10" stroke-linecap="round"/>
</g>
<defs>
<linearGradient id="paint0_linear" x1="47.8697" y1="-15.153" x2="51.8525" y2="130.615" gradientUnits="userSpaceOnUse">
<stop stop-color="#00ABDE"/>
<stop offset="1" stop-color="#007ED8"/>
</linearGradient>
<linearGradient id="paint1_linear" x1="49.6392" y1="65.5643" x2="49.6392" y2="18.1391" gradientUnits="userSpaceOnUse">
<stop stop-color="white"/>
<stop offset="1" stop-color="white" stop-opacity="0.5"/>
</linearGradient>
<clipPath id="clip0">
<rect width="99.2799" height="99.28" fill="white"/>
</clipPath>
</defs>
</svg>
