<svg width="100" height="100" viewBox="0 0 100 100" fill="none" xmlns="https://www.w3.org/2000/svg">
<g clip-path="url(#clip0)">
<path d="M49.6401 96.4481C40.382 96.4481 31.3317 93.7028 23.6339 88.5592C15.936 83.4157 9.93624 76.105 6.3933 67.5516C2.85036 58.9981 1.92337 49.5862 3.72954 40.506C5.53571 31.4257 9.99394 23.085 16.5404 16.5385C23.0869 9.99198 31.4277 5.53376 40.5079 3.72759C49.5882 1.92141 59.0001 2.84841 67.5535 6.39135C76.1069 9.93428 83.4176 15.934 88.5612 23.6319C93.7047 31.3298 96.4501 40.38 96.4501 49.6381C96.4505 55.7854 95.24 61.8726 92.8878 67.5521C90.5355 73.2315 87.0875 78.392 82.7407 82.7388C78.3939 87.0856 73.2335 90.5335 67.554 92.8858C61.8746 95.2381 55.7874 96.4486 49.6401 96.4481V96.4481Z" fill="url(#paint0_linear)"/>
<path fill-rule="evenodd" clip-rule="evenodd" d="M95.54 49.64C95.54 58.7182 92.848 67.5925 87.8045 75.1407C82.7609 82.6889 75.5923 88.572 67.2052 92.0461C58.818 95.5201 49.5891 96.4291 40.6854 94.658C31.7816 92.887 23.603 88.5154 17.1838 82.0962C10.7646 75.677 6.39302 67.4984 4.62196 58.5946C2.85089 49.6909 3.75987 40.462 7.23393 32.0748C10.708 23.6877 16.5911 16.5191 24.1393 11.4755C31.6875 6.43199 40.5618 3.74 49.64 3.74C55.6677 3.73998 61.6363 4.9272 67.2052 7.23388C72.774 9.54057 77.834 12.9215 82.0963 17.1837C86.3585 21.446 89.7394 26.5059 92.0461 32.0748C94.3528 37.6437 95.54 43.6123 95.54 49.64V49.64ZM49.64 3.62732e-07C59.4579 3.62732e-07 69.0553 2.91134 77.2185 8.36585C85.3818 13.8204 91.7442 21.5731 95.5014 30.6436C99.2585 39.7141 100.242 49.6951 98.3262 59.3243C96.4108 68.9535 91.6831 77.7985 84.7408 84.7408C77.7985 91.6831 68.9535 96.4108 59.3243 98.3262C49.6951 100.242 39.7141 99.2585 30.6436 95.5014C21.5731 91.7442 13.8204 85.3818 8.36585 77.2185C2.91134 69.0553 3.62732e-07 59.4579 3.62732e-07 49.64C-0.000787738 43.121 1.28265 36.6656 3.77702 30.6427C6.27138 24.6197 9.9278 19.1471 14.5375 14.5375C19.1471 9.9278 24.6197 6.27138 30.6427 3.77702C36.6656 1.28265 43.121 -0.000787738 49.64 3.62732e-07V3.62732e-07Z" fill="#F2F1F0"/>
<path opacity="0.2" d="M22.1089 77.0684H77.1704C77.4597 77.0676 77.7369 76.9523 77.9414 76.7477C78.146 76.5431 78.2613 76.2659 78.2622 75.9767V32.9883H21.0171V75.9767C21.0179 76.2659 21.1332 76.5431 21.3378 76.7477C21.5424 76.9523 21.8196 77.0676 22.1089 77.0684V77.0684Z" fill="#003067"/>
<path d="M22.1089 74.8223H77.1704C77.4597 74.8215 77.7369 74.7062 77.9414 74.5016C78.146 74.297 78.2613 74.0198 78.2622 73.7305V30.7422H21.0171V73.7305C21.0179 74.0198 21.1332 74.297 21.3378 74.5016C21.5424 74.7062 21.8196 74.8215 22.1089 74.8223V74.8223Z" fill="#F2F2F2"/>
<path d="M21.0171 35.4996H78.2622V30.3683C78.2624 30.2583 78.241 30.1493 78.199 30.0476C78.1571 29.9459 78.0954 29.8535 78.0176 29.7758C77.9399 29.698 77.8475 29.6363 77.7458 29.5944C77.6441 29.5524 77.5351 29.531 77.4251 29.5313H21.8542C21.7442 29.531 21.6352 29.5524 21.5335 29.5944C21.4318 29.6363 21.3394 29.698 21.2617 29.7758C21.1839 29.8535 21.1222 29.9459 21.0803 30.0476C21.0383 30.1493 21.0169 30.2583 21.0172 30.3683L21.0171 35.4996Z" fill="#092E4C"/>
<path d="M25.4208 34.0898C25.7078 34.0889 25.9881 34.0029 26.2263 33.8427C26.4644 33.6825 26.6497 33.4553 26.7587 33.1898C26.8677 32.9243 26.8955 32.6324 26.8387 32.3511C26.7818 32.0698 26.6428 31.8116 26.4392 31.6093C26.2356 31.407 25.9766 31.2696 25.6949 31.2145C25.4133 31.1594 25.1216 31.189 24.8568 31.2997C24.5919 31.4104 24.3659 31.5971 24.2072 31.8362C24.0485 32.0754 23.9642 32.3562 23.9651 32.6432C23.9636 32.8344 24.0002 33.0239 24.0729 33.2007C24.1457 33.3776 24.253 33.5381 24.3886 33.6728C24.5242 33.8076 24.6853 33.9139 24.8626 33.9855C25.0399 34.0571 25.2297 34.0926 25.4208 34.0898Z" fill="#50E6FF"/>
<path d="M73.1878 39.1953H26.0804C25.4597 39.1953 24.9565 39.6985 24.9565 40.3192V69.6032C24.9565 70.2239 25.4597 70.727 26.0804 70.727H73.1878C73.8085 70.727 74.3117 70.2239 74.3117 69.6032V40.3192C74.3117 39.6985 73.8085 39.1953 73.1878 39.1953Z" fill="#E8E8E8"/>
<path opacity="0.2" d="M78.2621 41.8359H21.0171V64.5952H78.2621V41.8359Z" fill="#767676"/>
<path d="M88.3218 47.3887V59.042C88.3218 59.5086 88.2299 59.9707 88.0513 60.4018C87.8727 60.8329 87.611 61.2246 87.2811 61.5545C86.9511 61.8845 86.5594 62.1462 86.1283 62.3247C85.6972 62.5033 85.2352 62.5952 84.7686 62.5952H14.5112C13.5689 62.5952 12.6653 62.2209 11.999 61.5546C11.3328 60.8884 10.9585 59.9847 10.9585 59.0425V47.3892C10.9585 46.4468 11.3328 45.543 11.9992 44.8767C12.6655 44.2103 13.5693 43.8359 14.5117 43.8359L84.769 43.8359C85.2356 43.8359 85.6976 43.9278 86.1286 44.1064C86.5596 44.2849 86.9513 44.5466 87.2812 44.8765C87.6111 45.2064 87.8728 45.5981 88.0513 46.0291C88.2299 46.4601 88.3218 46.9221 88.3218 47.3887V47.3887Z" fill="#E8E8E8"/>
<path d="M84.7688 45.8359H14.5112C13.6534 45.8359 12.958 46.5313 12.958 47.3891V59.042C12.958 59.8998 13.6534 60.5952 14.5112 60.5952H84.7688C85.6266 60.5952 86.322 59.8998 86.322 59.042V47.3891C86.322 46.5313 85.6266 45.8359 84.7688 45.8359Z" fill="white"/>
<path d="M20.8116 55.9124C22.6525 55.9124 24.1448 54.4201 24.1448 52.5792C24.1448 50.7384 22.6525 49.2461 20.8116 49.2461C18.9708 49.2461 17.4785 50.7384 17.4785 52.5792C17.4785 54.4201 18.9708 55.9124 20.8116 55.9124Z" stroke="#767676" stroke-width="1.25648" stroke-miterlimit="10"/>
<path d="M23.1687 54.9336L25.4208 57.1857" stroke="#767676" stroke-width="1.25648" stroke-miterlimit="10" stroke-linecap="round"/>
<path d="M34.4026 50.1289H30.4895C30.104 50.1289 29.7915 50.4414 29.7915 50.8269V54.74C29.7915 55.1254 30.104 55.4379 30.4895 55.4379H34.4026C34.788 55.4379 35.1005 55.1254 35.1005 54.74V50.8269C35.1005 50.4414 34.788 50.1289 34.4026 50.1289Z" fill="#F2F2F2"/>
<path d="M55.7868 55.1073L52.8151 50.0343C52.7755 49.9668 52.719 49.9108 52.6511 49.8719C52.5833 49.833 52.5064 49.8125 52.4282 49.8125C52.3499 49.8125 52.273 49.833 52.2052 49.8719C52.1373 49.9108 52.0808 49.9668 52.0412 50.0343L49.0695 55.1073C49.0296 55.1754 49.0084 55.2528 49.0081 55.3318C49.0077 55.4107 49.0282 55.4883 49.0674 55.5568C49.1067 55.6253 49.1633 55.6822 49.2316 55.7218C49.2999 55.7614 49.3775 55.7823 49.4564 55.7823H55.3999C55.4788 55.7823 55.5564 55.7614 55.6247 55.7218C55.693 55.6822 55.7496 55.6253 55.7889 55.5568C55.8281 55.4884 55.8486 55.4107 55.8482 55.3318C55.8479 55.2528 55.8267 55.1754 55.7868 55.1073V55.1073Z" fill="#F2F2F2"/>
<path d="M42.5705 55.9002C44.2915 55.9002 45.6866 54.5051 45.6866 52.7841C45.6866 51.0631 44.2915 49.668 42.5705 49.668C40.8495 49.668 39.4543 51.0631 39.4543 52.7841C39.4543 54.5051 40.8495 55.9002 42.5705 55.9002Z" fill="#F2F2F2"/>
<path d="M62.1315 55.9002C63.8525 55.9002 65.2477 54.5051 65.2477 52.7841C65.2477 51.0631 63.8525 49.668 62.1315 49.668C60.4105 49.668 59.0154 51.0631 59.0154 52.7841C59.0154 54.5051 60.4105 55.9002 62.1315 55.9002Z" fill="#F2F2F2"/>
<path d="M71.1955 55.9002C72.9165 55.9002 74.3116 54.5051 74.3116 52.7841C74.3116 51.0631 72.9165 49.668 71.1955 49.668C69.4745 49.668 68.0793 51.0631 68.0793 52.7841C68.0793 54.5051 69.4745 55.9002 71.1955 55.9002Z" fill="#F2F2F2"/>
<path opacity="0.2" d="M34.7651 29.5312C35.5659 38.1686 45.146 44.6779 48.1751 46.5269C48.6175 46.7962 49.1256 46.9383 49.6435 46.9376C50.1613 46.9369 50.669 46.7934 51.1107 46.523C54.1357 44.6696 63.7117 38.1424 64.5145 29.5312H34.7651Z" fill="#767676"/>
<path fill-rule="evenodd" clip-rule="evenodd" d="M92.7296 49.6386C92.7296 58.161 90.2024 66.492 85.4676 73.5781C80.7328 80.6643 74.0031 86.1872 66.1294 89.4486C58.2557 92.71 49.5918 93.5633 41.2331 91.9007C32.8745 90.238 25.1966 86.1341 19.1703 80.1079C13.1441 74.0816 9.04017 66.4037 7.37753 58.0451C5.7149 49.6864 6.56822 41.0225 9.8296 33.1488C13.091 25.2751 18.6139 18.5454 25.7 13.8106C32.7862 9.07581 41.1172 6.54862 49.6396 6.54862C55.2983 6.54828 60.9017 7.6626 66.1298 9.82795C71.3579 11.9933 76.1082 15.1673 80.1096 19.1686C84.1109 23.17 87.2849 27.9203 89.4502 33.1484C91.6156 38.3765 92.7299 43.9799 92.7296 49.6386V49.6386ZM49.6396 2.80862C58.9017 2.80862 67.9558 5.55515 75.6569 10.7009C83.3581 15.8466 89.3604 23.1605 92.9049 31.7176C96.4493 40.2746 97.3767 49.6906 95.5697 58.7747C93.7628 67.8588 89.3027 76.2031 82.7534 82.7524C76.2041 89.3017 67.8598 93.7619 58.7757 95.5688C49.6915 97.3757 40.2756 96.4484 31.7185 92.9039C23.1614 89.3594 15.8476 83.3571 10.7018 75.656C5.5561 67.9548 2.80957 58.9007 2.80957 49.6386C2.81076 37.2189 7.745 25.3082 16.5271 16.5261C25.3091 7.74403 37.2198 2.80979 49.6396 2.80859V2.80862Z" fill="#0078D4"/>
<path d="M62.5746 28.3824C62.5746 36.7296 52.3008 43.4478 50.0657 44.8174C49.9374 44.8953 49.7902 44.9364 49.6402 44.9364C49.4901 44.9364 49.3429 44.8953 49.2147 44.8174C46.9795 43.4533 36.7058 36.735 36.7058 28.3824V18.3388C36.7067 18.1282 36.7903 17.9264 36.9385 17.7768C37.0868 17.6272 37.2878 17.5418 37.4983 17.5389C45.4912 17.3308 43.6505 13.8867 49.6402 13.8867C55.6298 13.8867 53.7891 17.3308 61.782 17.5389C61.9916 17.5418 62.1918 17.6265 62.3399 17.7749C62.488 17.9233 62.5722 18.1237 62.5745 18.3333L62.5746 28.3824Z" fill="#76BC2D"/>
<path d="M61.5097 28.4698C61.5097 36.1231 52.087 42.2862 50.0381 43.5353C49.9203 43.6069 49.7851 43.6447 49.6473 43.6447C49.5095 43.6447 49.3743 43.6069 49.2565 43.5353C47.2003 42.2862 37.7703 36.1231 37.7703 28.4698V19.259C37.7703 19.0652 37.8472 18.8795 37.9842 18.7425C38.1212 18.6055 38.307 18.5285 38.5007 18.5285C45.8344 18.335 44.1471 15.1758 49.64 15.1758C55.1329 15.1758 53.4456 18.335 60.7793 18.5304C60.973 18.5304 61.1588 18.6073 61.2958 18.7443C61.4328 18.8813 61.5097 19.0671 61.5097 19.2608V28.4698Z" fill="url(#paint1_linear)"/>
<path d="M54.8501 26.9619H54.1051V24.3743C54.1114 23.1512 53.6548 21.9711 52.8268 21.0709C52.0569 20.2274 50.9834 19.7244 49.8426 19.6724C48.7018 19.6205 47.587 20.0238 46.7436 20.7938C46.6471 20.8819 46.5547 20.9742 46.4665 21.0709C45.6316 21.966 45.1738 23.1485 45.1881 24.3725V26.9619H44.4303C44.2746 26.9628 44.1253 27.0243 44.0142 27.1334C43.903 27.2425 43.8388 27.3906 43.835 27.5462V34.27C43.8392 34.4255 43.9036 34.5733 44.0147 34.6823C44.1257 34.7913 44.2747 34.853 44.4303 34.8543H54.8501C55.0057 34.853 55.1547 34.7913 55.2657 34.6823C55.3768 34.5733 55.4412 34.4255 55.4454 34.27V27.5462C55.4416 27.3906 55.3773 27.2425 55.2662 27.1334C55.1551 27.0243 55.0058 26.9628 54.8501 26.9619V26.9619ZM52.0215 26.9619H47.2663V24.3305C47.2728 23.6537 47.5412 23.0058 48.015 22.5226C48.2205 22.2931 48.4721 22.1094 48.7534 21.9837C49.0347 21.858 49.3394 21.793 49.6475 21.793C49.9556 21.793 50.2603 21.858 50.5416 21.9837C50.8229 22.1094 51.0745 22.2931 51.2801 22.5226C51.384 22.6357 51.4775 22.7579 51.5595 22.8878V22.8878C51.8547 23.3127 52.0186 23.815 52.0306 24.3323L52.0215 26.9619Z" fill="white"/>
<path opacity="0.15" d="M44.432 26.9609H54.85C54.991 26.963 55.1268 27.0147 55.2334 27.107L44.0485 34.7073C43.9829 34.6542 43.9298 34.5871 43.8932 34.511C43.8566 34.4349 43.8373 34.3517 43.8367 34.2672V27.5471C43.84 27.3911 43.9041 27.2426 44.0153 27.1331C44.1264 27.0236 44.2759 26.9619 44.432 26.9609V26.9609Z" fill="#B3B3B3"/>
<path opacity="0.09" d="M54.85 26.9609H44.4302C44.2898 26.9634 44.1547 27.0151 44.0486 27.107L55.2317 34.7073C55.2976 34.6543 55.3509 34.5873 55.3878 34.5112C55.4248 34.4351 55.4444 34.3518 55.4453 34.2672V27.5471C55.4416 27.3913 55.3773 27.243 55.2663 27.1336C55.1552 27.0242 55.0059 26.9623 54.85 26.9609V26.9609Z" fill="#A3A3A3"/>
</g>
<defs>
<linearGradient id="paint0_linear" x1="47.8697" y1="-15.155" x2="51.8525" y2="130.613" gradientUnits="userSpaceOnUse">
<stop stop-color="#00ABDE"/>
<stop offset="1" stop-color="#007ED8"/>
</linearGradient>
<linearGradient id="paint1_linear" x1="49.64" y1="43.6448" x2="49.64" y2="15.1758" gradientUnits="userSpaceOnUse">
<stop stop-color="#5E9624"/>
<stop offset="0.321" stop-color="#639D26"/>
<stop offset="0.794" stop-color="#6FB12A"/>
<stop offset="0.999" stop-color="#76BC2D"/>
</linearGradient>
<clipPath id="clip0">
<rect width="99.2799" height="99.28" fill="white"/>
</clipPath>
</defs>
</svg>
