<svg width="103" height="103" viewBox="0 0 103 103" fill="none" xmlns="http://www.w3.org/2000/svg">
<path d="M51.069 97.8378C25.219 97.8378 4.25903 76.8878 4.25903 51.0278C4.25903 25.1678 25.219 4.21777 51.069 4.21777C76.919 4.21777 97.879 25.1778 97.879 51.0278C97.879 76.8778 76.919 97.8378 51.069 97.8378Z" fill="url(#paint0_linear)"/>
<path fill-rule="evenodd" clip-rule="evenodd" d="M96.9691 51.0277C96.9691 76.3777 76.4191 96.9277 51.0691 96.9277C25.7191 96.9277 5.16908 76.3777 5.16908 51.0277C5.16908 25.6777 25.7191 5.1277 51.0691 5.1277C76.4191 5.1277 96.9691 25.6777 96.9691 51.0277ZM51.0691 1.3877C78.4891 1.3877 100.709 23.6077 100.709 51.0277C100.709 78.4477 78.4791 100.668 51.0691 100.668C23.6491 100.668 1.42908 78.4377 1.42908 51.0277C1.42908 23.6077 23.6491 1.3877 51.0691 1.3877Z" fill="#F2F1F0"/>
<path fill-rule="evenodd" clip-rule="evenodd" d="M94.1591 51.0273C94.1591 74.8273 74.8691 94.1173 51.0691 94.1173C27.2691 94.1173 7.97914 74.8273 7.97914 51.0273C7.97914 27.2273 27.2691 7.93727 51.0691 7.93727C74.8691 7.93727 94.1591 27.2273 94.1591 51.0273ZM51.0691 4.19727C76.9291 4.19727 97.8991 25.1673 97.8991 51.0273C97.8991 76.8873 76.9291 97.8573 51.0691 97.8573C25.2091 97.8573 4.23914 76.8873 4.23914 51.0273C4.23914 25.1673 25.1991 4.19727 51.0691 4.19727Z" fill="url(#paint1_linear)"/>
<path d="M43.589 59.3575C43.709 59.9475 43.789 60.5475 43.789 61.1775C43.789 61.8075 43.709 62.4075 43.589 62.9975C42.739 67.0575 39.159 70.1075 34.839 70.1075C29.929 70.1075 25.909 66.1075 25.909 61.1775C25.909 57.3775 28.329 54.1075 31.709 52.8275L30.649 49.3975C25.779 51.1375 22.269 55.7575 22.269 61.1875C22.269 68.1175 27.919 73.7675 34.849 73.7675C41.149 73.7675 46.349 69.0675 47.259 63.0075H70.069V59.3575H43.589Z" fill="white"/>
<path d="M29.6991 61.1975C29.6991 64.0475 32.0191 66.3675 34.8691 66.3675C37.7191 66.3675 40.0391 64.0475 40.0391 61.1975C40.0391 59.9675 39.5891 58.8775 38.8891 57.9675L48.1691 40.3275C47.0191 39.8975 46.0491 39.2675 45.1691 38.4175C43.4791 36.7975 42.4091 34.5075 42.4091 31.9775C42.4091 27.0675 46.4091 23.0475 51.3391 23.0475C56.2691 23.0475 60.2691 27.0475 60.2691 31.9775C60.2691 32.7275 60.1491 33.4675 59.9591 34.1675L63.3291 35.5075C63.6491 34.3675 63.9191 33.2175 63.9191 31.9775C63.9191 25.0475 58.2691 19.3975 51.3391 19.3975C44.4091 19.3975 38.7691 25.0475 38.7691 31.9675C38.7691 35.8475 40.5891 39.2775 43.3291 41.6075L35.7091 56.1275C35.4291 56.0775 35.1591 56.0475 34.8491 56.0475C32.0291 56.0475 29.6991 58.3475 29.6991 61.1975Z" fill="white"/>
<path d="M66.7591 53.7076L55.4591 35.1076C56.1191 34.2476 56.5391 33.1676 56.5391 31.9776C56.5391 29.1276 54.2191 26.8076 51.3691 26.8076C48.5191 26.8076 46.1991 29.1276 46.1991 31.9776C46.1991 34.8276 48.5191 37.1476 51.3691 37.1476C51.6891 37.1476 52.0291 37.1176 52.3591 37.0376L62.4091 53.8776C63.4391 53.1976 64.7291 52.6176 65.9991 52.3876C66.4791 52.2976 66.7591 53.7076 66.7591 53.7076Z" fill="white"/>
<path opacity="0.15" d="M51.139 45.4068C60.109 45.4068 67.379 38.1368 67.379 29.1668C67.379 20.1968 60.109 12.9268 51.139 12.9268C42.169 12.9268 34.899 20.1968 34.899 29.1668C34.899 38.1368 42.169 45.4068 51.139 45.4068Z" fill="#1F1D20"/>
<path d="M51.139 44.0972C60.109 44.0972 67.379 36.8272 67.379 27.8572C67.379 18.8872 60.109 11.6172 51.139 11.6172C42.169 11.6172 34.899 18.8872 34.899 27.8572C34.899 36.8272 42.169 44.0972 51.139 44.0972Z" fill="#F2F1F0"/>
<path opacity="0.15" d="M31.1591 79.9771C40.1291 79.9771 47.3991 72.7071 47.3991 63.7371C47.3991 54.7671 40.1291 47.4971 31.1591 47.4971C22.1891 47.4971 14.9191 54.7671 14.9191 63.7371C14.9191 72.7071 22.1891 79.9771 31.1591 79.9771Z" fill="#1F1D20"/>
<path d="M31.1591 77.9771C40.1291 77.9771 47.3991 70.7071 47.3991 61.7371C47.3991 52.7671 40.1291 45.4971 31.1591 45.4971C22.1891 45.4971 14.9191 52.7671 14.9191 61.7371C14.9191 70.7071 22.1891 77.9771 31.1591 77.9771Z" fill="#F2F1F0"/>
<path d="M51.2391 41.7477C58.9191 41.7477 65.1491 35.5177 65.1491 27.8377C65.1491 20.1577 58.9191 13.9277 51.2391 13.9277C43.5591 13.9277 37.3291 20.1577 37.3291 27.8377C37.3291 35.5177 43.5591 41.7477 51.2391 41.7477Z" fill="#002D4C"/>
<path d="M58.0191 33.4881C57.6391 30.0381 54.6791 27.3281 51.0991 27.3281C47.5491 27.3281 44.6191 29.9781 44.1791 33.3981C44.1191 33.6381 44.1191 33.8981 44.1191 34.1381C44.2091 35.1081 44.8891 36.0481 46.1591 36.7881C48.8791 38.3481 53.3191 38.3481 56.0091 36.7881C57.2791 36.0481 57.9291 35.1081 58.0191 34.1381C58.0791 33.9381 58.0491 33.6981 58.0191 33.4881Z" fill="white"/>
<path d="M51.0991 26.338C53.4191 26.338 55.2891 24.468 55.2891 22.168C55.2891 19.868 53.4091 17.998 51.0991 17.998C48.7791 17.998 46.9091 19.868 46.9091 22.168C46.9091 24.468 48.7791 26.338 51.0991 26.338Z" fill="white"/>
<path d="M31.0191 75.5778C38.6991 75.5778 44.9291 69.3478 44.9291 61.6678C44.9291 53.9878 38.6991 47.7578 31.0191 47.7578C23.3391 47.7578 17.1091 53.9878 17.1091 61.6678C17.1091 69.3478 23.3391 75.5778 31.0191 75.5778Z" fill="#002D4C"/>
<path d="M37.7992 67.3182C37.4192 63.8682 34.4592 61.1582 30.8792 61.1582C27.3292 61.1582 24.3992 63.8082 23.9592 67.2282C23.8992 67.4682 23.8992 67.7282 23.8992 67.9682C23.9892 68.9382 24.6692 69.8782 25.9392 70.6182C28.6592 72.1782 33.0992 72.1782 35.7892 70.6182C37.0592 69.8782 37.7092 68.9382 37.7992 67.9682C37.8592 67.7582 37.8292 67.5282 37.7992 67.3182Z" fill="white"/>
<path d="M30.8791 60.1681C33.1991 60.1681 35.0691 58.2981 35.0691 55.9981C35.0691 53.6981 33.1891 51.8281 30.8791 51.8281C28.5591 51.8281 26.6891 53.6981 26.6891 55.9981C26.6891 58.2981 28.5591 60.1681 30.8791 60.1681Z" fill="white"/>
<path opacity="0.15" d="M55.3392 73.7379H83.4692C84.2592 73.7379 84.8992 73.0979 84.8992 72.3079V49.8779H53.9092V72.3079C53.9092 73.0979 54.5492 73.7379 55.3392 73.7379Z" fill="#1F1D20"/>
<path d="M54.4992 72.4381H84.2992C84.6292 72.4381 84.8892 72.1781 84.8892 71.8481V48.5781H53.9092V71.8481C53.9092 72.1681 54.1692 72.4381 54.4992 72.4381Z" fill="white"/>
<path d="M53.9092 51.148H84.8992V48.368C84.8992 48.118 84.6992 47.918 84.4492 47.918H54.3592C54.1092 47.918 53.9092 48.118 53.9092 48.368V51.148V51.148Z" fill="#092E4C"/>
<path d="M56.2891 50.3876C56.7291 50.3876 57.0791 50.0376 57.0791 49.5976C57.0791 49.1576 56.7191 48.8076 56.2891 48.8076C55.8491 48.8076 55.4991 49.1576 55.4991 49.5976C55.4991 50.0376 55.8491 50.3876 56.2891 50.3876Z" fill="#32B0E7"/>
<path d="M76.9492 56.9784C76.9492 56.4984 76.5592 56.1084 76.0792 56.1084H62.7092C62.2292 56.1084 61.8392 56.4984 61.8392 56.9784C61.8392 57.4584 62.2292 57.8484 62.7092 57.8484H76.0792C76.5692 57.8384 76.9492 57.4584 76.9492 56.9784Z" fill="#50E6FF"/>
<path d="M65.0792 56.9678C65.0792 57.9178 65.8492 58.6778 66.7892 58.6778C67.7292 58.6778 68.4992 57.9078 68.4992 56.9678C68.4992 56.0178 67.7292 55.2578 66.7892 55.2578C65.8492 55.2578 65.0792 56.0278 65.0792 56.9678Z" fill="#0D3868"/>
<path d="M76.9492 61.3475C76.9492 60.8675 76.5592 60.4775 76.0792 60.4775H62.7092C62.2292 60.4775 61.8392 60.8675 61.8392 61.3475C61.8392 61.8275 62.2292 62.2175 62.7092 62.2175H76.0792C76.5692 62.1975 76.9492 61.8175 76.9492 61.3475Z" fill="#32B0E7"/>
<path d="M70.2491 61.3478C70.2491 62.2978 71.0191 63.0578 71.9591 63.0578C72.9091 63.0578 73.6691 62.2878 73.6691 61.3478C73.6691 60.4078 72.8991 59.6378 71.9591 59.6378C71.0191 59.6278 70.2491 60.3878 70.2491 61.3478Z" fill="#0D3868"/>
<path d="M76.9492 65.9579C76.9492 65.4779 76.5592 65.0879 76.0792 65.0879H62.7092C62.2292 65.0879 61.8392 65.4779 61.8392 65.9579C61.8392 66.4379 62.2292 66.8279 62.7092 66.8279H76.0792C76.5692 66.8179 76.9492 66.4379 76.9492 65.9579Z" fill="#185A97"/>
<path d="M65.1292 65.9581C65.1292 66.9081 65.8991 67.6681 66.8391 67.6681C67.7891 67.6681 68.5492 66.8981 68.5492 65.9581C68.5492 65.0181 67.7791 64.2481 66.8391 64.2481C65.9091 64.2381 65.1292 65.0181 65.1292 65.9581Z" fill="#0D3868"/>
<defs>
<linearGradient id="paint0_linear" x1="49.2991" y1="-13.7623" x2="53.2811" y2="132.008" gradientUnits="userSpaceOnUse">
<stop stop-color="#00ABDE"/>
<stop offset="1" stop-color="#007ED8"/>
</linearGradient>
<linearGradient id="paint1_linear" x1="2.50234" y1="-20.5977" x2="98.0303" y2="120.284" gradientUnits="userSpaceOnUse">
<stop stop-color="#007ED8"/>
<stop offset="0.7065" stop-color="#002D4C"/>
</linearGradient>
</defs>
</svg>
