<svg width="103" height="102" viewBox="0 0 103 102" fill="none" xmlns="http://www.w3.org/2000/svg">
<path d="M51.9585 97.8099C41.1288 97.8097 30.6346 94.0543 22.2632 87.1839C13.8918 80.3135 8.16102 70.7533 6.04838 60.1316C3.93574 49.51 5.57109 38.4843 10.6763 28.9334C15.7815 19.3825 24.041 11.897 34.0464 7.75274C44.0518 3.6085 55.185 3.06204 65.5484 6.20586C75.9117 9.34969 84.8638 15.9893 90.8804 24.9939C96.897 33.9986 99.6051 44.8111 98.5435 55.5887C97.4819 66.3662 92.716 76.4422 85.0581 84.0999C76.2776 92.8757 64.3727 97.8068 51.9585 97.8099V97.8099Z" fill="url(#paint0_linear)"/>
<path fill-rule="evenodd" clip-rule="evenodd" d="M97.8779 51C97.8752 61.6164 94.192 71.9038 87.4551 80.1089C80.7182 88.314 71.3445 93.9294 60.9317 95.9985C50.5188 98.0676 39.7107 96.4622 30.3486 91.4561C20.9866 86.4499 13.6502 78.3524 9.58888 68.5435C5.52753 58.7346 4.99228 47.8211 8.07521 37.6621C11.1581 27.5032 17.6684 18.7275 26.4961 12.8301C35.3239 6.93264 45.923 4.27816 56.4883 5.31934C67.0536 6.36052 76.9317 11.0329 84.4385 18.54C93.0422 27.152 97.8756 38.8267 97.8779 51ZM51.9776 1.35987C64.2925 1.3674 76.1652 5.95499 85.2852 14.2305C94.4052 22.506 100.121 33.878 101.321 46.1343C102.522 58.3906 99.1203 70.6552 91.7793 80.543C84.4383 90.4307 73.683 97.2345 61.6035 99.6314C49.5241 102.028 36.9849 99.8465 26.4248 93.5107C15.8647 87.175 8.03788 77.1382 4.46779 65.3521C0.897699 53.5659 1.839 40.8733 7.10841 29.7427C12.3778 18.612 21.5985 9.83882 32.9776 5.12989C39.002 2.63824 45.4582 1.35718 51.9776 1.35987V1.35987Z" fill="#F2F1F0"/>
<path fill-rule="evenodd" clip-rule="evenodd" d="M95.0686 51C95.0683 60.9691 91.611 70.6295 85.2864 78.3354C78.9618 86.0414 70.1607 91.3162 60.3831 93.2607C50.6055 95.2053 40.4561 93.6997 31.6643 89C22.8725 84.3003 15.983 76.6976 12.1682 67.4873C8.35352 58.277 7.85027 48.0285 10.7444 38.4888C13.6386 28.949 19.7502 20.7082 28.0393 15.1699C36.3285 9.63163 46.2823 7.13881 56.2034 8.11621C66.1244 9.09361 75.3995 13.4809 82.4485 20.5303C86.4511 24.5307 89.6259 29.2805 91.7913 34.5088C93.9567 39.7371 95.0705 45.341 95.0686 51ZM51.9778 4.16992C62.8125 4.17047 73.312 7.92777 81.6868 14.8018C90.0616 21.6757 95.7937 31.241 97.9065 41.8677C100.019 52.4943 98.3821 63.5248 93.2737 73.0796C88.1653 82.6344 79.9023 90.1225 69.8919 94.2676C59.8815 98.4126 48.7439 98.9581 38.3763 95.8115C28.0086 92.665 19.0525 86.0208 13.0345 77.0112C7.01643 68.0016 4.30853 57.1841 5.37234 46.4019C6.43616 35.6196 11.2058 25.5397 18.8684 17.8799C23.213 13.5331 28.3714 10.0853 34.0491 7.73291C39.7268 5.38049 45.8125 4.16952 51.9583 4.16992H51.9778Z" fill="url(#paint1_linear)"/>
<path opacity="0.15" d="M80.5483 63.7001H25.3989C23.1168 63.6974 20.9014 62.9261 19.1108 61.5111C17.3203 60.0961 16.0589 58.1195 15.5288 55.8998C15.3488 56.6598 15.2388 55.2797 15.2388 56.0897C15.2546 58.7749 16.3315 61.3452 18.2349 63.2392C20.1382 65.1332 22.7138 66.1975 25.3989 66.2001H80.5181C83.2092 66.1975 85.79 65.1269 87.6929 63.224C89.5958 61.3211 90.6658 58.7413 90.6685 56.0502C90.6685 55.2402 90.5584 56.62 90.3784 55.87C89.8606 58.0912 88.6087 60.0726 86.8247 61.4936C85.0407 62.9146 82.8291 63.6921 80.5483 63.7001V63.7001Z" fill="#1F1D20"/>
<path d="M25.3993 63.7003C22.8236 63.725 20.3349 62.7664 18.4413 61.0202C16.5477 59.2739 15.3915 56.8712 15.2079 54.3019C15.0243 51.7326 15.827 49.1903 17.453 47.1925C19.079 45.1948 21.4058 43.8923 23.9589 43.5504C23.5584 41.9136 23.3502 40.2356 23.3388 38.5504C23.3457 34.0311 24.8624 29.6434 27.6474 26.0841C30.4323 22.5249 34.3258 19.9976 38.7108 18.904C43.0958 17.8103 47.7212 18.213 51.8515 20.0475C55.9817 21.882 59.3802 25.0437 61.5087 29.0304C63.8881 27.8686 66.5707 27.4781 69.1825 27.9137C71.7943 28.3493 74.2055 29.589 76.079 31.4601C77.2634 32.6398 78.2022 34.0427 78.8407 35.5876C79.4793 37.1324 79.8046 38.7885 79.7987 40.4601C79.7968 41.5082 79.6694 42.5522 79.4188 43.57C79.8007 43.5286 80.1852 43.5121 80.5692 43.5202C81.8961 43.5059 83.212 43.7559 84.4413 44.2555C85.6706 44.7551 86.7877 45.4945 87.7284 46.4303C89.6208 48.3307 90.6835 50.9032 90.6835 53.5851C90.6835 56.267 89.6208 58.84 87.7284 60.7404C85.8231 62.6462 83.2436 63.7241 80.5487 63.7404L25.3993 63.7003Z" fill="url(#paint2_linear)"/>
<path d="M25.2985 64.0598C22.667 64.0604 20.1315 63.0746 18.1911 61.2971C16.2506 59.5197 15.0468 57.0797 14.8171 54.4583C14.5873 51.8369 15.3482 49.2244 16.9499 47.1365C18.5515 45.0486 20.877 43.6372 23.4684 43.18C23.1271 41.6464 22.9501 40.0811 22.9391 38.51C22.9516 33.9346 24.4807 29.4924 27.2878 25.8792C30.0948 22.266 34.0206 19.6856 38.4508 18.5423C42.8811 17.399 47.5653 17.7572 51.7702 19.5608C55.9751 21.3645 59.4641 24.5121 61.6891 28.51C64.1148 27.4093 66.8181 27.0739 69.4391 27.5491C72.0601 28.0244 74.4742 29.2874 76.359 31.1697C77.5789 32.381 78.5456 33.8227 79.2048 35.4104C79.8639 36.9982 80.2022 38.7006 80.1989 40.4197C80.1987 41.3165 80.1078 42.2109 79.9284 43.0896C80.1484 43.0896 80.3688 43.0896 80.5788 43.0896C81.9504 43.0631 83.3125 43.3221 84.5788 43.8499C85.8582 44.3685 87.0209 45.137 87.9997 46.1106C88.9784 47.0842 89.7537 48.2432 90.279 49.5198C90.8041 50.7875 91.0686 52.1477 91.0583 53.5198C91.053 56.3162 89.9399 58.9965 87.9626 60.9739C85.9852 62.9513 83.3049 64.0643 80.5085 64.0696H25.3991L25.2985 64.0598ZM43.609 18.6599C38.3443 18.6652 33.2956 20.7574 29.571 24.4783C25.8463 28.1992 23.7495 33.2453 23.7389 38.51C23.7514 40.1615 23.9555 41.8058 24.3483 43.4099L24.4587 43.8396L24.0182 43.8997C21.5553 44.2155 19.3071 45.4623 17.734 47.3836C16.161 49.3049 15.3827 51.7554 15.5592 54.2322C15.7358 56.709 16.8536 59.0241 18.6833 60.7029C20.5129 62.3817 22.9163 63.2968 25.3991 63.26H80.5182C83.1033 63.2574 85.5819 62.2291 87.4098 60.4012C89.2377 58.5732 90.2656 56.0951 90.2682 53.51C90.2756 51.5898 89.7086 49.711 88.6393 48.116C87.57 46.521 86.0474 45.2824 84.2682 44.5598C83.094 44.07 81.8302 43.8314 80.5583 43.8596C80.1887 43.8343 79.8185 43.8343 79.4489 43.8596L78.8786 43.93L79.0085 43.3699C79.2506 42.3882 79.3749 41.3811 79.3786 40.3699C79.3706 37.1138 78.0726 33.9932 75.7692 31.6917C73.4658 29.3902 70.3447 28.0949 67.0885 28.0896C65.2107 28.0919 63.3578 28.5192 61.6686 29.3396L61.319 29.4998L61.1383 29.1697C59.4423 25.9893 56.9134 23.3305 53.8219 21.4773C50.7304 19.6242 47.1929 18.6465 43.5885 18.6497L43.609 18.6599Z" fill="white"/>
<path opacity="0.25" d="M23.5181 40.9199C23.4279 41.6901 23.3785 42.4648 23.3687 43.2402V43.6201L23.978 43.5103C23.7803 42.6554 23.6268 41.7906 23.5181 40.9199V40.9199Z" fill="url(#paint3_linear)"/>
<path opacity="0.25" d="M79.7085 43.4902C79.693 43.2238 79.6528 42.9592 79.5884 42.7002C79.5719 42.9745 79.5253 43.2463 79.4487 43.5103L79.7085 43.4902Z" fill="url(#paint4_linear)"/>
<path opacity="0.25" d="M25.3993 63.7003C22.8236 63.725 20.3349 62.7664 18.4413 61.0202C16.5477 59.2739 15.3915 56.8712 15.2079 54.3019C15.0243 51.7326 15.827 49.1903 17.453 47.1925C19.079 45.1948 21.4058 43.8923 23.9589 43.5504C23.5584 41.9136 23.3502 40.2356 23.3388 38.5504C23.3457 34.0311 24.8624 29.6434 27.6474 26.0841C30.4323 22.5249 34.3258 19.9976 38.7108 18.904C43.0958 17.8103 47.7212 18.213 51.8515 20.0475C55.9817 21.882 59.3802 25.0437 61.5087 29.0304C63.8881 27.8686 66.5707 27.4781 69.1825 27.9137C71.7943 28.3493 74.2055 29.589 76.079 31.4601C77.2634 32.6398 78.2022 34.0427 78.8407 35.5876C79.4793 37.1324 79.8046 38.7885 79.7987 40.4601C79.7968 41.5082 79.6694 42.5522 79.4188 43.57C79.8007 43.5286 80.1852 43.5121 80.5692 43.5202C81.8961 43.5059 83.212 43.7559 84.4413 44.2555C85.6706 44.7551 86.7877 45.4945 87.7284 46.4303C89.6208 48.3307 90.6835 50.9032 90.6835 53.5851C90.6835 56.267 89.6208 58.84 87.7284 60.7404C85.8231 62.6462 83.2436 63.7241 80.5487 63.7404L25.3993 63.7003Z" fill="url(#paint5_linear)"/>
<path d="M71.2788 79.6602L28.478 73.8501V44.52L71.2788 38.52V79.6602Z" fill="url(#paint6_linear)"/>
<g opacity="0.5">
<path opacity="0.5" d="M28.7085 44.7002V58.2603L46.3481 58.3701V42.3701L28.7085 44.7002Z" fill="url(#paint7_linear)"/>
<path opacity="0.5" d="M28.7085 59.8599V73.7002L46.2388 76.1802V60.0601L28.7085 59.8599Z" fill="url(#paint8_linear)"/>
<path opacity="0.5" d="M48.0688 60.0601V76.3003L71.6187 79.5303V60.0601H48.0688Z" fill="url(#paint9_linear)"/>
<path opacity="0.5" d="M48.0688 41.8999V58.25L71.6187 58.1401V38.7002L48.0688 41.8999Z" fill="url(#paint10_linear)"/>
</g>
<path fill-rule="evenodd" clip-rule="evenodd" d="M46.7485 41.9102V58.77L28.3081 58.6499V44.3501L46.7485 41.9102ZM29.1089 45.0503V57.8599L45.9487 57.96V42.8198L29.1089 45.0503Z" fill="white"/>
<path fill-rule="evenodd" clip-rule="evenodd" d="M28.3081 59.4502L46.6382 59.6401V76.6401L28.3081 74.04V59.4502ZM29.1089 60.2603V73.3501L45.8384 75.7202V60.4302L29.1089 60.2603Z" fill="white"/>
<path fill-rule="evenodd" clip-rule="evenodd" d="M47.6685 59.6802H72.0181V80.0601L47.6685 76.7202V59.6802ZM48.4683 60.48V75.9702L71.2183 79.0898V60.48H48.4683Z" fill="white"/>
<path fill-rule="evenodd" clip-rule="evenodd" d="M72.0181 38.2402V58.54L47.6685 58.6499V41.5503L72.0181 38.2402ZM48.4683 42.2402V57.8301L71.2183 57.73V39.1602L48.4683 42.2402Z" fill="white"/>
<path d="M67.8882 69.36C69.2212 69.36 70.5249 68.9649 71.6333 68.2243C72.7417 67.4837 73.6056 66.431 74.1157 65.1994C74.6259 63.9678 74.7586 62.6128 74.4985 61.3054C74.2385 59.9979 73.5974 58.7968 72.6548 57.8542C71.7122 56.9116 70.5111 56.27 69.2036 56.0099C67.8962 55.7499 66.5407 55.8831 65.3091 56.3932C64.0775 56.9034 63.0253 57.7673 62.2847 58.8757C61.5441 59.9841 61.1489 61.2872 61.1489 62.6203C61.1476 63.5058 61.3204 64.3825 61.6587 65.2009C61.9969 66.0192 62.4935 66.7627 63.1196 67.3889C63.7458 68.015 64.4898 68.5115 65.3081 68.8498C66.1264 69.188 67.0027 69.3614 67.8882 69.36V69.36Z" fill="#0B2D4C"/>
<path d="M71.5688 59.1899L66.0288 64.77L64.3589 63.1099L63.2485 64.23L66.0288 67.0103L72.689 60.3301L71.5688 59.1899Z" fill="#FAF9F8"/>
<defs>
<linearGradient id="paint0_linear" x1="50.2083" y1="-13.79" x2="54.1883" y2="131.98" gradientUnits="userSpaceOnUse">
<stop stop-color="#00ABDE"/>
<stop offset="1" stop-color="#2E7BBF"/>
</linearGradient>
<linearGradient id="paint1_linear" x1="3.41846" y1="-20.6201" x2="98.9387" y2="120.259" gradientUnits="userSpaceOnUse">
<stop stop-color="#2E7BBF"/>
<stop offset="0.71" stop-color="#0B2D4C"/>
</linearGradient>
<linearGradient id="paint2_linear" x1="15.1821" y1="41.0219" x2="90.6872" y2="41.0219" gradientUnits="userSpaceOnUse">
<stop offset="0.1608" stop-color="#ACF3FD"/>
<stop offset="0.9598" stop-color="#45CAF2"/>
</linearGradient>
<linearGradient id="paint3_linear" x1="22.4096" y1="-8.09362" x2="24.3919" y2="72.6621" gradientUnits="userSpaceOnUse">
<stop offset="0.57" stop-color="white" stop-opacity="0"/>
<stop offset="0.78" stop-color="white" stop-opacity="0.43"/>
<stop offset="0.9" stop-color="white" stop-opacity="0.5"/>
<stop offset="1" stop-color="white"/>
</linearGradient>
<linearGradient id="paint4_linear" x1="2828.45" y1="2442.9" x2="2828.59" y2="2443.54" gradientUnits="userSpaceOnUse">
<stop offset="0.57" stop-color="white" stop-opacity="0"/>
<stop offset="0.78" stop-color="white" stop-opacity="0.43"/>
<stop offset="0.9" stop-color="white" stop-opacity="0.5"/>
<stop offset="1" stop-color="white"/>
</linearGradient>
<linearGradient id="paint5_linear" x1="652795" y1="253463" x2="652849" y2="249792" gradientUnits="userSpaceOnUse">
<stop offset="0.57" stop-color="white" stop-opacity="0"/>
<stop offset="0.78" stop-color="white" stop-opacity="0.43"/>
<stop offset="0.9" stop-color="white" stop-opacity="0.5"/>
<stop offset="1" stop-color="white"/>
</linearGradient>
<linearGradient id="paint6_linear" x1="498749" y1="63417.8" x2="638821" y2="-123475" gradientUnits="userSpaceOnUse">
<stop stop-color="#00ABDE"/>
<stop offset="1" stop-color="#2E7BBF"/>
</linearGradient>
<linearGradient id="paint7_linear" x1="19.2587" y1="22.3901" x2="69.7091" y2="99.4892" gradientUnits="userSpaceOnUse">
<stop stop-color="white"/>
<stop offset="0.23" stop-color="white" stop-opacity="0.5"/>
<stop offset="0.42" stop-color="white" stop-opacity="0.43"/>
<stop offset="0.61" stop-color="white" stop-opacity="0"/>
</linearGradient>
<linearGradient id="paint8_linear" x1="184711" y1="48182.9" x2="184900" y2="47849.4" gradientUnits="userSpaceOnUse">
<stop stop-color="white"/>
<stop offset="0.23" stop-color="white" stop-opacity="0.5"/>
<stop offset="0.42" stop-color="white" stop-opacity="0.43"/>
<stop offset="0.61" stop-color="white" stop-opacity="0"/>
</linearGradient>
<linearGradient id="paint9_linear" x1="248659" y1="57488.1" x2="248893" y2="56965.4" gradientUnits="userSpaceOnUse">
<stop stop-color="white"/>
<stop offset="0.23" stop-color="white" stop-opacity="0.5"/>
<stop offset="0.42" stop-color="white" stop-opacity="0.43"/>
<stop offset="0.61" stop-color="white" stop-opacity="0"/>
</linearGradient>
<linearGradient id="paint10_linear" x1="248674" y1="58063.7" x2="248886" y2="57592" gradientUnits="userSpaceOnUse">
<stop stop-color="white"/>
<stop offset="0.23" stop-color="white" stop-opacity="0.5"/>
<stop offset="0.42" stop-color="white" stop-opacity="0.43"/>
<stop offset="0.61" stop-color="white" stop-opacity="0"/>
</linearGradient>
</defs>
</svg>
