<svg width="103" height="103" viewBox="0 0 103 103" fill="none" xmlns="http://www.w3.org/2000/svg">
<path d="M51.6845 98.5614C25.8345 98.5614 4.87451 77.6114 4.87451 51.7514C4.87451 25.8914 25.8345 4.94141 51.6845 4.94141C77.5345 4.94141 98.4945 25.9014 98.4945 51.7514C98.4945 77.6014 77.5345 98.5614 51.6845 98.5614Z" fill="url(#paint0_linear)"/>
<path fill-rule="evenodd" clip-rule="evenodd" d="M97.5847 51.7513C97.5847 77.1013 77.0347 97.6513 51.6847 97.6513C26.3347 97.6513 5.78468 77.1013 5.78468 51.7513C5.78468 26.4013 26.3347 5.85133 51.6847 5.85133C77.0347 5.85133 97.5847 26.4013 97.5847 51.7513ZM51.6847 2.11133C79.1047 2.11133 101.325 24.3313 101.325 51.7513C101.325 79.1713 79.0947 101.391 51.6847 101.391C24.2647 101.391 2.04468 79.1613 2.04468 51.7513C2.04468 24.3313 24.2647 2.11133 51.6847 2.11133Z" fill="#F2F1F0"/>
<path fill-rule="evenodd" clip-rule="evenodd" d="M51.6845 94.8409C27.8845 94.8409 8.59449 75.5509 8.59449 51.7509C8.59449 27.9509 27.8845 8.6609 51.6845 8.6609C75.4845 8.6609 94.7745 27.9509 94.7745 51.7509C94.7745 75.5509 75.4845 94.8409 51.6845 94.8409ZM98.5145 51.7509C98.5145 77.6109 77.5445 98.5809 51.6845 98.5809C25.8245 98.5809 4.85449 77.6109 4.85449 51.7509C4.85449 25.8909 25.8245 4.9209 51.6845 4.9209C77.5445 4.9209 98.5145 25.8809 98.5145 51.7509Z" fill="url(#paint1_linear)"/>
<path d="M75.8847 21.1016H39.5247V47.9516H75.8847V21.1016Z" fill="#0078D4"/>
<path d="M63.3646 27.6416H49.4246V41.5816H63.3646V27.6416Z" fill="#FEFEFE"/>
<path d="M68.8446 39.432L59.1946 36.032V33.192L68.8446 29.792V39.432Z" fill="#FEFEFE"/>
<path d="M75.8847 21.1016H39.5247V47.9516H75.8847V21.1016Z" fill="url(#paint2_linear)"/>
<path d="M63.3646 27.6416H49.4246V41.5816H63.3646V27.6416Z" fill="#FEFEFE"/>
<path d="M68.8446 39.432L59.1946 36.032V33.192L68.8446 29.792V39.432Z" fill="#FEFEFE"/>
<path d="M74.9045 57.5105C74.9045 56.4105 74.0045 55.5205 72.9145 55.5205H42.1145C41.0145 55.5205 40.1245 56.4205 40.1245 57.5105C40.1245 58.6105 41.0245 59.5005 42.1145 59.5005H72.9445C74.0245 59.5005 74.9045 58.6105 74.9045 57.5105Z" fill="url(#paint3_linear)"/>
<path d="M47.5444 57.5008C47.5444 59.6908 49.3244 61.4508 51.4944 61.4508C53.6944 61.4608 55.4544 59.6908 55.4544 57.5008C55.4544 55.3108 53.6844 53.5508 51.5044 53.5508C49.3244 53.5508 47.5444 55.3108 47.5444 57.5008Z" fill="#50E6FF"/>
<path d="M74.9045 67.5808C74.9045 66.4808 74.0045 65.5908 72.9145 65.5908H42.1145C41.0145 65.5908 40.1245 66.4908 40.1245 67.5808C40.1245 68.6708 41.0245 69.5708 42.1145 69.5708H72.9445C74.0245 69.5608 74.9045 68.6808 74.9045 67.5808Z" fill="url(#paint4_linear)"/>
<path d="M59.4646 67.5711C59.4646 69.7611 61.2446 71.5211 63.4146 71.5211C65.5846 71.5211 67.3646 69.7411 67.3646 67.5711C67.3646 65.3811 65.5846 63.6211 63.4146 63.6211C61.2446 63.6211 59.4646 65.3811 59.4646 67.5711Z" fill="#32B0E7"/>
<path d="M74.9045 78.2205C74.9045 77.1205 74.0045 76.2305 72.9145 76.2305H42.1145C41.0145 76.2305 40.1245 77.1305 40.1245 78.2205C40.1245 79.3105 41.0245 80.2105 42.1145 80.2105H72.9445C74.0245 80.2105 74.9045 79.3305 74.9045 78.2205Z" fill="url(#paint5_linear)"/>
<path d="M47.6746 78.2207C47.6746 80.4107 49.4546 82.1707 51.6246 82.1707C53.8146 82.1707 55.5746 80.3907 55.5746 78.2207C55.5746 76.0307 53.7946 74.2707 51.6246 74.2707C49.4646 74.2507 47.6746 76.0307 47.6746 78.2207Z" fill="#185A97"/>
<path fill-rule="evenodd" clip-rule="evenodd" d="M35.7245 62.9309C35.7245 63.9609 34.8745 64.8009 33.8545 64.8009H16.9945C15.9645 64.8009 15.1245 63.9609 15.1245 62.9309V48.8809H35.7245V62.9309Z" fill="#30404D"/>
<path fill-rule="evenodd" clip-rule="evenodd" d="M35.7245 48.8806C35.7245 49.9106 34.8745 50.7506 33.8545 50.7506H16.9945C15.9645 50.7606 15.1245 49.9106 15.1245 48.8806V47.0106C15.1245 45.9806 15.9745 45.1406 16.9945 45.1406H33.8545C34.8845 45.1406 35.7245 45.9906 35.7245 47.0106V48.8806Z" fill="#546670"/>
<path fill-rule="evenodd" clip-rule="evenodd" d="M33.8545 51.2206H26.3545C25.8345 51.2206 25.4145 51.6406 25.4145 52.1606V62.9306C25.4145 63.4506 24.9945 63.8706 24.4745 63.8706H16.9845C15.9545 63.8706 15.1145 63.0206 15.1145 61.9906V62.9306C15.1145 63.9606 15.9645 64.8006 16.9845 64.8006H33.8445C34.8745 64.8006 35.7145 63.9506 35.7145 62.9306V49.3506C35.7245 50.3806 34.8845 51.2206 33.8545 51.2206Z" fill="#182A37"/>
<path fill-rule="evenodd" clip-rule="evenodd" d="M25.4245 53.5713C23.1845 53.5713 21.3545 55.3913 21.3545 57.6413C21.3545 59.8813 23.1745 61.7113 25.4245 61.7113C27.6745 61.7113 29.4945 59.8813 29.4945 57.6413C29.4845 55.4013 27.6645 53.5713 25.4245 53.5713Z" fill="#ADBDC4"/>
<path fill-rule="evenodd" clip-rule="evenodd" d="M21.2146 47.941C21.2146 48.721 20.3746 49.341 19.3446 49.341C18.3146 49.341 17.4746 48.711 17.4746 47.941C17.4746 47.171 18.3146 46.541 19.3446 46.541C20.3746 46.541 21.2146 47.171 21.2146 47.941Z" fill="#182A37"/>
<path fill-rule="evenodd" clip-rule="evenodd" d="M33.3845 47.941C33.3845 48.721 32.5445 49.341 31.5145 49.341C30.4845 49.341 29.6445 48.711 29.6445 47.941C29.6445 47.171 30.4845 46.541 31.5145 46.541C32.5445 46.541 33.3845 47.171 33.3845 47.941Z" fill="#182A37"/>
<path fill-rule="evenodd" clip-rule="evenodd" d="M25.4246 34.8311C21.2946 34.8311 17.9246 38.1911 17.9246 42.3311V48.8711C18.2646 49.1611 18.7646 49.3511 19.3246 49.3511C19.8946 49.3511 20.3846 49.1611 20.7246 48.8711V42.3311C20.7246 39.7511 22.8246 37.6511 25.4046 37.6511C27.9846 37.6511 30.0846 39.7511 30.0846 42.3311V47.9511C30.0846 48.4711 30.7146 48.8911 31.4846 48.8911C32.2646 48.8911 32.8846 48.4711 32.8846 47.9511V42.3311C32.9146 38.1911 29.5546 34.8311 25.4246 34.8311Z" fill="#F5F8F5"/>
<path fill-rule="evenodd" clip-rule="evenodd" d="M22.7346 37.991C20.9346 38.751 19.8046 40.581 19.8046 42.531V47.321C19.8046 47.941 19.2246 48.391 18.6346 48.231C18.3446 48.151 18.0846 48.041 17.9346 47.921V48.861C18.2746 49.151 18.7746 49.341 19.3346 49.341C19.4946 49.341 19.6546 49.321 19.8046 49.291C19.8946 49.271 19.9946 49.251 20.0746 49.221C20.1146 49.211 20.1646 49.191 20.2046 49.171C20.2646 49.151 20.3246 49.111 20.3946 49.081C20.4246 49.061 20.4546 49.051 20.4846 49.031C20.5746 48.971 20.6546 48.921 20.7346 48.861V42.321C20.7346 39.901 22.5846 37.891 24.9446 37.661C24.2446 37.591 23.5046 37.681 22.7346 37.991Z" fill="#C5CCCD"/>
<path fill-rule="evenodd" clip-rule="evenodd" d="M25.4246 34.8311C25.2646 34.8311 25.1146 34.8411 24.9546 34.8511C28.8746 35.0911 31.9746 38.3411 31.9746 42.3211V47.3311C31.9746 47.9511 31.3946 48.4011 30.8046 48.2411C30.5146 48.1611 30.2546 48.0511 30.1046 47.9311V48.8711C30.4446 49.1611 30.9546 49.3511 31.5046 49.3511C32.0746 49.3511 32.5646 49.1611 32.9046 48.8711V42.3311C32.9146 38.1911 29.5546 34.8311 25.4246 34.8311Z" fill="#C5CCCD"/>
<defs>
<linearGradient id="paint0_linear" x1="36.6271" y1="1.31241" x2="66.8634" y2="102.604" gradientUnits="userSpaceOnUse">
<stop stop-color="#C1C7FF"/>
<stop offset="1" stop-color="#9DA4FF"/>
</linearGradient>
<linearGradient id="paint1_linear" x1="51.6845" y1="4.921" x2="51.6845" y2="98.581" gradientUnits="userSpaceOnUse">
<stop stop-color="#5A62C3"/>
<stop offset="0.5" stop-color="#4D55BD"/>
<stop offset="1" stop-color="#3940AB"/>
</linearGradient>
<linearGradient id="paint2_linear" x1="48.4002" y1="13.2" x2="66.7721" y2="55.3208" gradientUnits="userSpaceOnUse">
<stop stop-color="#5A62C3"/>
<stop offset="0.5" stop-color="#4D55BD"/>
<stop offset="1" stop-color="#3940AB"/>
</linearGradient>
<linearGradient id="paint3_linear" x1="58.4215" y1="83.1617" x2="57.5022" y2="57.2877" gradientUnits="userSpaceOnUse">
<stop stop-color="#D2EBFF"/>
<stop offset="1" stop-color="#F0FFFD"/>
</linearGradient>
<linearGradient id="paint4_linear" x1="58.0644" y1="83.1747" x2="57.1451" y2="57.3006" gradientUnits="userSpaceOnUse">
<stop stop-color="#D2EBFF"/>
<stop offset="1" stop-color="#F0FFFD"/>
</linearGradient>
<linearGradient id="paint5_linear" x1="57.6869" y1="83.188" x2="56.7675" y2="57.314" gradientUnits="userSpaceOnUse">
<stop stop-color="#D2EBFF"/>
<stop offset="1" stop-color="#F0FFFD"/>
</linearGradient>
</defs>
</svg>
