<?xml version="1.0" encoding="UTF-8"?>
<svg width="100px" height="100px" viewBox="0 0 100 100" version="1.1" xmlns="http://www.w3.org/2000/svg" xmlns:xlink="http://www.w3.org/1999/xlink">
    <!-- Generator: Sketch 55.2 (78181) - https://sketchapp.com -->
    <title>Manage team collaboration with Microsoft Teams/manage-microsoft-teams</title>
    <desc>Created with Sketch.</desc>
    <defs>
        <rect id="path-1" x="0" y="0" width="96" height="96" rx="48"></rect>
        <path d="M46.1511628,35.9171246 C46.1511628,41.976113 41.2206802,46.9054967 35.1627907,46.9054967 C29.1038023,46.9054967 24.1744186,41.976113 24.1744186,35.9171246 C24.1744186,29.8581363 29.1038023,24.9287525 35.1627907,24.9287525 C41.2206802,24.9287525 46.1511628,29.8581363 46.1511628,35.9171246 Z M61.3491802,28.8625898 C60.9305233,28.7702874 60.2789128,28.1769153 60.1481512,27.7681479 C60.1316686,27.7121072 60.1107907,27.6571653 60.0877151,27.6033223 L58.677907,24.1771479 C58.6537326,24.1178107 58.6262616,24.0584735 58.596593,24.0013339 C58.3988023,23.6222351 58.4372616,22.7486595 58.6669186,22.3893398 L61.4777442,17.9720142 C62.6699826,16.0984967 62.3732965,13.4008514 60.804157,11.830613 L59.2493023,10.2757584 C57.7164244,8.74178162 54.9418605,8.43520603 53.1079012,9.60217115 L48.6894767,12.4118979 C48.5422326,12.5074967 48.1939012,12.6096886 47.7807384,12.6096886 C47.4422965,12.6096886 47.1906628,12.5415607 47.0785814,12.4833223 C47.0225407,12.4525549 46.9621047,12.4261828 46.9016686,12.4020084 L43.476593,10.9911014 C43.42275,10.9691246 43.3678081,10.9482467 43.3117674,10.9317642 C42.9040988,10.8010025 42.3096279,10.1493921 42.2173256,9.72963627 L41.0822267,4.62114208 C40.5998372,2.45313627 38.4823779,0.754333941 36.2616279,0.754333941 L34.0639535,0.754333941 C31.8421047,0.754333941 29.7257442,2.45313627 29.2444535,4.62004324 L28.1082558,9.73183394 C28.0148547,10.1493921 27.4214826,10.8010025 27.013814,10.9317642 C26.9577733,10.9482467 26.9028314,10.9691246 26.8478895,10.9911014 L23.422814,12.4020084 C23.3623779,12.4261828 23.3030407,12.4525549 23.2459012,12.4833223 C23.1349186,12.5415607 22.8832849,12.6096886 22.5437442,12.6096886 C22.1305814,12.6096886 21.78225,12.5063979 21.633907,12.4118979 L17.2176802,9.60326999 C15.3837209,8.43630487 12.6080581,8.74397929 11.0762791,10.2768572 L9.52142442,11.830613 C7.95118605,13.4019502 7.65559884,16.0995956 8.84783721,17.973113 L11.6586628,22.3893398 C11.8872209,22.7497584 11.9256802,23.6211363 11.7289884,24.0002351 C11.6993198,24.0584735 11.67075,24.1178107 11.6465756,24.1771479 L10.2367674,27.6033223 C10.2147907,27.6571653 10.1939128,27.7121072 10.1763314,27.7681479 C10.0455698,28.1769153 9.39505814,28.7702874 8.97530233,28.8636886 L3.86680814,29.9976886 C1.69880233,30.4800781 0,32.5964386 0,34.8182874 L0,37.0159618 C0,39.2367118 1.69880233,41.3541712 3.8657093,41.8354618 L8.97640116,42.9705607 C9.39505814,43.0639618 10.0455698,43.6573339 10.1763314,44.0661014 C10.1939128,44.1221421 10.2147907,44.1770839 10.2367674,44.230927 L11.6465756,47.6571014 C11.67075,47.7164386 11.6982209,47.774677 11.7289884,47.8329153 C11.9256802,48.2109153 11.8872209,49.0844909 11.657564,49.4449095 L8.84783721,53.8611363 C7.6545,55.7346537 7.95118605,58.4333979 9.52142442,60.0036363 L11.0762791,61.5584909 C12.6069593,63.0880723 15.3793256,63.4001421 17.2187791,62.2320781 L21.6328081,59.4223514 C21.78225,59.3267525 22.1305814,59.2245607 22.5437442,59.2245607 C22.8832849,59.2245607 23.1349186,59.2915898 23.2459012,59.350927 C23.3041395,59.3794967 23.3623779,59.4080665 23.422814,59.4322409 L26.8478895,60.8431479 C26.9028314,60.8651246 26.9577733,60.8849037 27.013814,60.9024851 C27.4214826,61.0332467 28.0148547,61.6848572 28.1082558,62.1035142 L29.2444535,67.2131072 C29.7257442,69.381113 31.8421047,71.0799153 34.0639535,71.0799153 L36.2616279,71.0799153 C38.4823779,71.0799153 40.5987384,69.381113 41.0811279,67.2131072 L42.2173256,62.1035142 C42.3096279,61.6848572 42.9040988,61.0332467 43.3117674,60.9024851 C43.3678081,60.8849037 43.42275,60.8651246 43.476593,60.8431479 L46.9016686,59.4322409 C46.9621047,59.4080665 47.0214419,59.3794967 47.0785814,59.350927 C47.1906628,59.2915898 47.4422965,59.2245607 47.7796395,59.2245607 C48.1928023,59.2245607 48.5422326,59.3267525 48.6894767,59.4223514 L53.1068023,62.2309793 C54.9396628,63.4001421 57.7164244,63.09027 59.2493023,61.5584909 L60.8030581,60.0047351 C62.3732965,58.4344967 62.6699826,55.7357525 61.4777442,53.8611363 L58.6669186,49.4449095 C58.4372616,49.0844909 58.3988023,48.2120142 58.596593,47.8340142 C58.6262616,47.7757758 58.6537326,47.7175374 58.677907,47.6582002 L60.0877151,44.230927 C60.1107907,44.1770839 60.1316686,44.1221421 60.1481512,44.0661014 C60.2789128,43.6573339 60.9305233,43.0639618 61.3502791,42.9705607 L66.4576744,41.8354618 C68.6267791,41.3541712 70.3255814,39.2367118 70.3255814,37.0159618 L70.3255814,34.8182874 C70.3255814,32.5964386 68.6267791,30.4800781 66.4587733,29.9987874 L61.3491802,28.8625898 Z" id="path-3"></path>
        <filter x="-4.3%" y="-4.3%" width="108.5%" height="111.4%" filterUnits="objectBoundingBox" id="filter-4">
            <feMorphology radius="2" operator="dilate" in="SourceAlpha" result="shadowSpreadOuter1"></feMorphology>
            <feOffset dx="0" dy="2" in="shadowSpreadOuter1" result="shadowOffsetOuter1"></feOffset>
            <feComposite in="shadowOffsetOuter1" in2="SourceAlpha" operator="out" result="shadowOffsetOuter1"></feComposite>
            <feColorMatrix values="0 0 0 0 0   0 0 0 0 0   0 0 0 0 0  0 0 0 0.1 0" type="matrix" in="shadowOffsetOuter1"></feColorMatrix>
        </filter>
        <path d="M1.02651429,26.5090909 C6.7104,26.5090909 11.3142857,20.8588675 11.3142857,13.8857143 L11.3142857,13.8857143 C11.3142857,6.91256104 6.7104,1.26233766 1.02651429,1.26233766 L1.02651429,1.26233766 L1.02651429,26.5090909 Z" id="path-5"></path>
        <filter x="-17.1%" y="-18.2%" width="136.8%" height="136.8%" filterUnits="objectBoundingBox" id="filter-7">
            <feOffset dx="0" dy="2" in="SourceAlpha" result="shadowOffsetOuter1"></feOffset>
            <feColorMatrix values="0 0 0 0 0   0 0 0 0 0   0 0 0 0 0  0 0 0 0.102764423 0" type="matrix" in="shadowOffsetOuter1" result="shadowMatrixOuter1"></feColorMatrix>
            <feMerge>
                <feMergeNode in="shadowMatrixOuter1"></feMergeNode>
                <feMergeNode in="SourceGraphic"></feMergeNode>
            </feMerge>
        </filter>
        <path d="M0.975004875,5.11875 L10.7250244,5.11875 C11.2634921,5.11875 11.7,5.55527984 11.7,6.09374756 L11.7,15.8437451 C11.7,16.3822157 11.2634949,16.81875 10.7250244,16.81875 L0.975004875,16.81875 C0.436524552,16.81875 0,16.3822254 0,15.8437451 L0,6.09375488 C0,5.55527455 0.436524552,5.11875 0.975004875,5.11875 Z" id="path-8"></path>
        <filter x="-8.5%" y="-8.5%" width="117.1%" height="134.2%" filterUnits="objectBoundingBox" id="filter-9">
            <feOffset dx="0" dy="2" in="SourceAlpha" result="shadowOffsetOuter1"></feOffset>
            <feColorMatrix values="0 0 0 0 0   0 0 0 0 0   0 0 0 0 0  0 0 0 0.0950065559 0" type="matrix" in="shadowOffsetOuter1"></feColorMatrix>
        </filter>
    </defs>
    <g id="Badges" stroke="none" stroke-width="1" fill="none" fill-rule="evenodd">
        <g id="Manage-team-collaboration-with-Microsoft-Teams" transform="translate(-50.000000, -660.000000)">
            <g id="Manage-team-collaboration-with-Microsoft-Teams/manage-microsoft-teams" transform="translate(50.000000, 660.000000)">
                <g id="Mask" transform="translate(2.000000, 2.000000)">
                    <mask id="mask-2" fill="white">
                        <use xlink:href="#path-1"></use>
                    </mask>
                    <use id="BG" fill="#DEDEDE" xlink:href="#path-1"></use>
                    <g id="Gear" mask="url(#mask-2)">
                        <g transform="translate(-2.000000, -3.000000)">
                            <g id="Group-10" stroke-width="1" fill="none" fill-rule="evenodd" transform="translate(50.761557, 50.974946) rotate(-45.000000) translate(-50.761557, -50.974946) translate(15.261557, 14.974946)">
                                <path d="M44.9011628,35.9171246 C44.9011628,30.5488908 40.5307229,26.1787525 35.1627907,26.1787525 C29.7941583,26.1787525 25.4244186,30.5484922 25.4244186,35.9171246 C25.4244186,41.2857571 29.7941583,45.6554967 35.1627907,45.6554967 C40.5307229,45.6554967 44.9011628,41.2853585 44.9011628,35.9171246 Z M61.3472791,44.4190775 C61.3167151,44.5229512 61.2800054,44.6221548 61.2437315,44.7064541 L59.8355224,48.1298213 C59.7984496,48.2208184 59.7573465,48.3092523 59.7041344,48.4135416 C59.7142118,48.3942826 59.731527,48.789558 59.7214414,48.7737303 L62.5324992,53.190322 C64.038974,55.5590279 63.6715076,58.9040526 61.6869416,60.8886186 L60.1328688,62.4426913 C58.183452,64.3907106 54.7594224,64.7678305 52.4361155,63.2858154 L48.0087914,60.4707633 C48.0638922,60.5065377 47.9296592,60.4745607 47.7796395,60.4745607 C47.6708241,60.4745607 47.6009509,60.4887449 47.6375984,60.468961 C47.5381815,60.5186694 47.4574404,60.5562234 47.3777737,60.5880194 L43.9489643,62.0004574 C43.8628218,62.0356176 43.7751241,62.0671891 43.6935692,62.0927488 C43.7087652,62.0880369 43.4344058,62.3889891 43.4375223,62.3748439 L42.3012889,67.4845977 C41.6916385,70.224553 39.0679372,72.3299153 36.2616279,72.3299153 L34.0639535,72.3299153 C31.2564448,72.3299153 28.632513,70.224368 28.0242567,67.484437 L26.8882484,62.3756943 C26.8913203,62.3894635 26.6167016,62.0880313 26.6396075,62.0951583 C26.5535527,62.0681599 26.4687266,62.0377739 26.3717844,61.9989264 L22.9585756,60.5928368 C22.8692486,60.557106 22.8109608,60.5298687 22.6565332,60.4532633 C22.7226188,60.4885962 22.6533982,60.4745607 22.5437442,60.4745607 C22.3922594,60.4745607 22.2573838,60.5066907 22.3040384,60.4768418 L17.8888534,63.2873034 C15.5588522,64.7668681 12.1403238,64.3889043 10.1923956,62.4423744 L8.63754094,60.8875197 C6.65266651,58.9026453 6.2855203,55.5571658 7.79319552,53.1901438 L10.6033843,48.7731914 C10.5931051,48.7893233 10.6106582,48.3921613 10.6237264,48.4167781 C10.5735434,48.3217863 10.5287071,48.2262832 10.4906128,48.1327589 L9.07945789,44.7032982 C9.04239715,44.6124994 9.01138016,44.5286702 8.9857682,44.4469681 C8.99029796,44.4615303 8.68993123,44.18738 8.70537699,44.1908254 L3.59467727,43.0557248 C0.855586779,42.4473467 -1.25,39.8224317 -1.25,37.0159618 L-1.25,34.8182874 C-1.25,32.0110872 0.855159417,29.3872232 3.595923,28.777393 L8.70380106,27.64353 C8.69006714,27.6465859 8.99025122,27.3727646 8.9836559,27.3939486 C9.01138248,27.3055728 9.04239866,27.2217462 9.08080468,27.1276648 L10.4889601,23.7055268 C10.5260239,23.6145521 10.5664246,23.5285505 10.6194413,23.424557 C10.6109305,23.4409604 10.5935243,23.0437822 10.60414,23.060519 L7.79326035,18.6442074 C6.28648817,16.2764225 6.6530854,12.9325737 8.63785343,10.9464172 L10.1920787,9.39329069 C12.1393176,7.44465498 15.561822,7.06803188 17.8884859,8.54850946 L22.3055066,11.3576427 C22.2578454,11.3272808 22.3932722,11.3596886 22.5437442,11.3596886 C22.6518267,11.3596886 22.7222197,11.3457031 22.6567383,11.3808936 C22.7542048,11.3285725 22.8522268,11.2839528 22.9467089,11.2462299 L26.3836512,9.83050552 C26.4845592,9.7901423 26.5664451,9.76040171 26.6319784,9.74150977 C26.617077,9.74580311 26.8916017,9.44466186 26.8880343,9.46061532 L28.0241906,4.34901121 C28.6326427,1.6095873 31.2567263,-0.495666059 34.0639535,-0.495666059 L36.2616279,-0.495666059 C39.0680708,-0.495666059 41.6927664,1.609827 42.3024667,4.3500068 L43.438158,9.46118097 C43.4346918,9.44541805 43.7079482,9.74532004 43.6647206,9.73263157 C43.7618126,9.76119813 43.8498291,9.79332851 43.9526981,9.83532289 L47.365907,11.2414125 C47.4769449,11.2858277 47.5744663,11.3299545 47.6503226,11.3715832 C47.6036591,11.3459842 47.6743001,11.3596886 47.7807384,11.3596886 C47.9304961,11.3596886 48.0635419,11.327939 48.0187219,11.3571051 L52.4368477,8.54756827 C54.7641629,7.06667626 58.1855032,7.442796 60.1331858,9.39187488 L61.6883498,10.947039 C63.6717553,12.9318334 64.0388213,16.275751 62.5323426,18.6430746 L59.7201671,23.0625169 C59.7315119,23.044767 59.7141685,23.4410366 59.7059631,23.4253149 C59.7533243,23.5165291 59.7968885,23.610698 59.8338697,23.7014904 L61.2366464,27.1109232 C61.2800274,27.2121454 61.3167626,27.3114264 61.3387045,27.3872458 C61.3343811,27.3722968 61.6341386,27.6453956 61.62051,27.642393 L66.730103,28.7785907 L66.7296744,28.7784954 C69.4700341,29.3868469 71.5755814,32.0107788 71.5755814,34.8182874 L71.5755814,37.0159618 C71.5755814,39.8229946 69.4694067,42.4476059 66.7288653,43.0556895 L61.6217803,44.1907193 C61.6350063,44.1877764 61.3349178,44.4611986 61.3472892,44.4190368 Z M43.6935692,62.0927488 C43.6935635,62.0927506 43.6935577,62.0927524 43.6935519,62.0927542 C43.6935578,62.0927524 43.6935636,62.0927505 43.6935694,62.0927487 Z" id="Fill-376" stroke="#DEDEDE" stroke-width="2.5"></path>
                                <g id="Fill-376">
                                    <use fill="black" fill-opacity="1" filter="url(#filter-4)" xlink:href="#path-3"></use>
                                    <path stroke="#DEDEDE" stroke-width="2" d="M45.1511628,35.9171246 C45.1511628,30.4108157 40.6687902,25.9287525 35.1627907,25.9287525 C29.6560871,25.9287525 25.1744186,30.410421 25.1744186,35.9171246 C25.1744186,41.4238283 29.6560871,45.9054967 35.1627907,45.9054967 C40.6687902,45.9054967 45.1511628,41.4234336 45.1511628,35.9171246 Z M22.7722076,11.6026325 C22.8616451,11.5544965 22.9523238,11.5131716 23.0419299,11.4773856 L26.4764989,10.0626247 C26.5707442,10.0249266 26.6460825,9.99756489 26.7083864,9.97954886 C26.7773678,9.95742274 27.1162355,9.58568317 27.1320786,9.51485905 L28.2682431,4.40321762 C28.851287,1.77818931 31.3739124,-0.245666059 34.0639535,-0.245666059 L36.2616279,-0.245666059 C38.9509064,-0.245666059 41.4741749,1.77846367 42.0584187,4.40423386 L43.1939915,9.51487203 C43.2096484,9.58607379 43.5478819,9.95731634 43.5939338,9.97239867 C43.6817111,9.99821553 43.7624234,10.0276755 43.8574771,10.0664786 L47.2730593,11.4735317 C47.3775731,11.5153372 47.4680696,11.556387 47.5393247,11.5957776 C47.5242862,11.587456 47.6343953,11.6096886 47.7807384,11.6096886 C47.975187,11.6096886 48.1546365,11.5668654 48.1528729,11.5680636 L52.5710584,8.75848885 C54.7994936,7.34051508 58.0915125,7.70241807 59.9564091,9.56865158 L61.5115112,11.1237538 C63.4121267,13.0257002 63.7650056,16.2403755 62.321423,18.5088625 L59.5095174,22.9278815 C59.4726376,22.9855835 59.4511161,23.4773163 59.4840891,23.5405187 C59.5279306,23.6249542 59.5682724,23.7121577 59.6026772,23.7966219 L61.0068601,27.209403 C61.0465895,27.3021047 61.0799693,27.3923205 61.100605,27.4634651 C61.1227558,27.5327096 61.4933888,27.8703681 61.5644821,27.8860422 L61.5662441,27.8864323 L66.6754941,29.0225538 C69.3014501,29.605508 71.3255814,32.1279793 71.3255814,34.8182874 L71.3255814,37.0159618 C71.3255814,39.7057876 69.3008328,42.2289297 66.6746271,42.811644 L61.5674801,43.9466876 C61.4940849,43.963019 61.12285,44.3012455 61.1075167,44.3482677 C61.0799693,44.4419287 61.0465895,44.5321446 61.0125283,44.6113487 L59.6039993,48.0354971 C59.5697919,48.1194609 59.5315887,48.2016557 59.4826261,48.2976361 C59.4511521,48.3577865 59.4726481,48.8485041 59.5105369,48.9079661 L62.3215482,53.3244848 C63.7651572,55.5943438 63.4118897,58.8101171 61.5101649,60.7118419 L59.9561555,62.2658512 C58.089592,64.1310767 54.7949302,64.4939482 52.5702529,63.0748482 L48.1449285,60.2610809 C48.1549498,60.2675873 47.9743327,60.2245607 47.7796395,60.2245607 C47.6329747,60.2245607 47.5237791,60.2467273 47.525795,60.2453542 C47.4320498,60.2922267 47.3568819,60.3271885 47.2825527,60.3568637 L43.85449,61.7689955 C43.7748026,61.801521 43.6936509,61.8307356 43.617195,61.8547004 C43.5479362,61.8769155 43.209435,62.2482316 43.193483,62.320578 L42.0572567,67.4302996 C41.4730435,70.055932 38.9507567,72.0799153 36.2616279,72.0799153 L34.0639535,72.0799153 C31.3736454,72.0799153 28.8511741,70.055784 28.2682961,67.430171 L27.1322499,62.3212583 C27.1160197,62.2485086 26.7774209,61.8768436 26.7144739,61.8566316 C26.6346344,61.8315839 26.5557924,61.803342 26.4670055,61.7677707 L23.0514233,60.3607176 C22.969889,60.3281039 22.9154204,60.3026513 22.7744068,60.232796 C22.8002559,60.2466163 22.6914814,60.2245607 22.5437442,60.2245607 C22.3479888,60.2245607 22.1671423,60.2676419 22.1697923,60.2659437 L17.7548385,63.0762583 C15.523691,64.4930504 12.2342751,64.1293617 10.3691723,62.2655977 L8.81431764,60.710743 C6.91231255,58.808738 6.55936018,55.5925944 8.00412386,53.3243423 L10.8142202,48.907535 C10.8519068,48.8483905 10.8736919,48.3556122 10.844795,48.3000364 C10.7983727,48.2121656 10.7570351,48.1241166 10.7218054,48.0376274 L9.3109198,44.608824 C9.27628665,44.5239727 9.24757772,44.446381 9.22387752,44.3707842 C9.20151373,44.3008739 8.83100435,43.9627071 8.75958183,43.9467724 L3.64888368,42.8116722 C1.02419664,42.2287042 -1,39.7052537 -1,37.0159618 L-1,34.8182874 C-1,32.1282597 1.02378824,29.6058164 3.65010003,29.0214521 L8.75810131,27.8875617 C8.83106156,27.8713271 9.20149669,27.5334287 9.22218491,27.4688078 C9.24757772,27.3878682 9.27628665,27.3102765 9.31199723,27.2227963 L10.7204832,23.799851 C10.754515,23.7163185 10.792111,23.6362874 10.8413507,23.5396927 C10.8738554,23.4770438 10.8522928,22.9850234 10.8150445,22.9262832 L8.00417572,18.5099885 C6.56029626,16.2410351 6.91272401,13.0264305 8.81456763,11.1232563 L10.3689188,9.570004 C12.2333163,7.70426909 15.5265008,7.34187675 17.7543248,8.75946156 L22.1711867,11.5684938 C22.1677383,11.566297 22.3490644,11.6096886 22.5437442,11.6096886 C22.6906368,11.6096886 22.8003712,11.5874553 22.7722174,11.6026295 Z" fill="#546670" fill-rule="evenodd"></path>
                                </g>
                                <path d="M21.7323777,59.6781641 C21.8824491,59.5821642 22.232248,59.4795437 22.6471515,59.4795437 C22.9881227,59.4795437 23.2408165,59.546854 23.3522666,59.6064401 C23.4107504,59.6351297 23.4692341,59.6638193 23.5299248,59.6880951 L26.9694301,61.1049203 C27.0246035,61.1269892 27.0797768,61.1468512 27.1360536,61.1645064 C27.5454397,61.2958165 28.1413117,61.9501602 28.2351063,62.3705733 L29.3760908,67.501599 C29.8594091,69.6786988 31.9846858,71.3846269 34.2158953,71.3846269 L36.4228285,71.3846269 C38.6529345,71.3846269 40.7782111,69.6786988 41.262633,67.501599 L42.4036174,62.3705733 C42.4963086,61.9501602 43.093284,61.2958165 43.5026701,61.1645064 C43.5589469,61.1468512 43.6141203,61.1269892 43.6681901,61.1049203 L47.1076955,59.6880951 C47.1683862,59.6638193 47.2279734,59.6351297 47.2853536,59.6064401 C47.3979072,59.546854 47.6506011,59.4795437 47.9893653,59.4795437 C48.4042688,59.4795437 48.7551711,59.5821642 48.9030357,59.6781641 L53.3389714,62.4985731 C55.1795537,63.67264 57.9680138,63.3614681 59.5073497,61.8232639 L61.0676514,60.2629907 C62.6445052,58.6861658 62.9424412,55.9761014 61.7451799,54.0936219 L58.9225124,49.6588708 C58.6918878,49.2969404 58.6532665,48.4208039 58.8518905,48.0412184 C58.8816841,47.9827357 58.9092708,47.9242531 58.933547,47.8646669 L60.3492947,44.4230176 C60.3724675,44.3689488 60.3934333,44.3137764 60.4099853,44.2575007 C60.5412979,43.8470186 61.1956536,43.2511576 61.6171778,43.1573646 L66.7460905,42.0175045 C68.9243336,41.534195 70.630293,39.4078538 70.630293,37.1777886 L70.630293,34.9708958 C70.630293,32.7397272 68.9243336,30.6144894 66.747194,30.1311799 L61.6160743,28.9902163 C61.1956536,28.8975268 60.5412979,28.3016658 60.4099853,27.8911837 C60.3934333,27.834908 60.3724675,27.7797356 60.3492947,27.7256668 L58.933547,24.2851209 C58.9092708,24.2255348 58.8816841,24.1659487 58.8518905,24.1085695 C58.6532665,23.7278805 58.6918878,22.8506406 58.9225124,22.4898136 L61.7451799,18.0539591 C62.9424412,16.172583 62.5240466,13.5840807 60.9482963,12.0072558 L59.4902956,10.5492694 L42.6345666,27.4049984 C44.6329446,29.4033398 46.3540278,33.0321405 46.3540278,36.0743422 C46.3540278,42.1587456 41.4027732,47.1088062 35.3193619,47.1088062 C32.2771045,47.1088062 28.9704171,45.0647639 26.9720391,43.0675259 L9.6738376,60.3657274 L11.1313741,61.8232639 C12.668503,63.3592613 15.4525493,63.67264 17.2997523,62.4996765 L21.7323777,59.6781641 Z" id="Fill-377" fill="#30404D"></path>
                            </g>
                            <circle id="Oval" fill="#55A2FF" fill-rule="nonzero" cx="49.4571429" cy="51.4571429" r="12.3428571"></circle>
                            <g id="Group-11" stroke-width="1" fill="none" fill-rule="evenodd" transform="translate(37.114286, 39.114286)">
                                <path d="M12.3428571,25.2467532 C19.1610514,25.2467532 24.6857143,19.5965299 24.6857143,12.6233766 C24.6857143,5.65022338 19.1610514,0 12.3428571,0 C5.52713143,0 0,5.65022338 0,12.6233766 C0,19.5965299 5.52713143,25.2467532 12.3428571,25.2467532 Z" id="Stroke-4" stroke="#30404D"></path>
                                <g id="Group-8" transform="translate(12.342857, 0.000000)">
                                    <mask id="mask-6" fill="white">
                                        <use xlink:href="#path-5"></use>
                                    </mask>
                                    <g id="Clip-7"></g>
                                    <polygon id="Stroke-6" stroke="#C4C4C4" mask="url(#mask-6)" points="-19.5428571 39.1324675 21.6 39.1324675 21.6 -11.361039 -19.5428571 -11.361039"></polygon>
                                </g>
                                <path d="M12.3428571,25.2467532 C19.1610514,25.2467532 24.6857143,19.5965299 24.6857143,12.6233766 C24.6857143,5.65022338 19.1610514,0 12.3428571,0" id="Stroke-9" stroke="#546670"></path>
                            </g>
                        </g>
                    </g>
                    <g id="Group-3" mask="url(#mask-2)">
                        <g transform="translate(31.000000, 30.000000)">
                            <circle id="Oval" fill="#FFFFFF" cx="18" cy="18" r="18"></circle>
                            <g id="Microsoft_Office_Teams_(2018–present)" filter="url(#filter-7)" stroke-width="1" fill="none" transform="translate(6.300000, 7.200000)">
                                <circle id="Head" fill="#7B83EB" fill-rule="nonzero" cx="12.4312573" cy="3.65625731" r="3.41249513"></circle>
                                <circle id="Head-2" fill="#5059C9" fill-rule="nonzero" cx="20.109375" cy="4.75313231" r="2.559375"></circle>
                                <path d="M22.3029495,8.04375 L16.5546371,8.04375 C16.2965475,8.04375 16.0873245,8.25297299 16.0873245,8.51106263 L16.0873245,14.4416903 C16.0545011,16.2105421 17.2639963,17.7610723 18.9876375,18.1597894 C20.0665006,18.3862338 21.1899631,18.1143829 22.0459481,17.4197516 C22.901933,16.7251204 23.3992653,15.6816974 23.3997952,14.5793261 L23.3997952,9.140625 C23.3997952,8.53484909 22.9087254,8.04375 22.3029495,8.04375 L22.3029495,8.04375 Z" id="Path" fill="#5059C9" fill-rule="nonzero"></path>
                                <path d="M18.2812513,9.140625 L18.2812513,16.0875 C18.2829849,18.734644 16.5057937,21.0526267 13.9489426,21.7381096 C11.3920915,22.4235925 8.69369991,21.3054979 7.371,19.0125 C7.2302848,18.7786342 7.10803853,18.5341417 7.005375,18.28125 C6.90966318,18.0428087 6.82906609,17.7985751 6.7640625,17.55 C6.64350851,17.0718175 6.58211184,16.5806441 6.58124902,16.0875 L6.58124902,9.140625 C6.58086118,8.84959664 6.69629961,8.57037623 6.90208792,8.36458792 C7.10787623,8.15879961 7.38709664,8.04336118 7.678125,8.04374902 L17.184375,8.04374902 C17.4754034,8.04336118 17.7546238,8.15879961 17.9604121,8.36458792 C18.1662004,8.57037623 18.2816388,8.84959664 18.2812513,9.140625 Z" id="Path" fill="#7B83EB" fill-rule="nonzero"></path>
                                <g id="Back_Plate" fill-rule="nonzero">
                                    <use fill="black" fill-opacity="1" filter="url(#filter-9)" xlink:href="#path-8"></use>
                                    <use fill="#4B53BC" xlink:href="#path-8"></use>
                                </g>
                                <polygon id="Path" fill="#FFFFFF" fill-rule="nonzero" points="8.76008981 8.75671875 6.57452981 8.75671875 6.57452981 14.6215631 5.13815738 14.6215631 5.13815738 8.75671875 2.93993213 8.75671875 2.93993213 7.31590763 8.76008981 7.31590763"></polygon>
                            </g>
                        </g>
                    </g>
                </g>
                <g id="Teams-Border" stroke="#4B53BC" stroke-width="4">
                    <rect id="Azure-Border" x="2" y="2" width="96" height="96" rx="48"></rect>
                </g>
            </g>
        </g>
    </g>
</svg>