<svg width="103" height="102" viewBox="0 0 103 102" fill="none" xmlns="http://www.w3.org/2000/svg">
<path d="M51.2441 97.8501C41.986 97.8501 32.9351 95.1049 25.2373 89.9614C17.5394 84.8178 11.54 77.507 7.99704 68.9536C4.4541 60.4002 3.5268 50.9879 5.33298 41.9077C7.13915 32.8274 11.598 24.4869 18.1445 17.9404C24.691 11.3939 33.031 6.93554 42.1113 5.12936C51.1915 3.32319 60.6038 4.25049 69.1572 7.79343C77.7106 11.3364 85.0215 17.3358 90.165 25.0337C95.3086 32.7315 98.0537 41.7819 98.0537 51.04C98.0537 63.4548 93.1223 75.361 84.3437 84.1396C75.5651 92.9182 63.6589 97.8501 51.2441 97.8501V97.8501Z" fill="url(#paint0_linear)"/>
<path fill-rule="evenodd" clip-rule="evenodd" d="M97.1436 51C97.1436 60.0782 94.4518 68.9528 89.4082 76.501C84.3646 84.0492 77.1967 89.9322 68.8096 93.4062C60.4224 96.8803 51.1928 97.7891 42.2891 96.0181C33.3853 94.247 25.2073 89.8758 18.7881 83.4565C12.3689 77.0373 7.99665 68.8583 6.22559 59.9546C4.45453 51.0509 5.36383 41.8222 8.83789 33.4351C12.312 25.0479 18.1949 17.879 25.7432 12.8355C33.2914 7.79189 42.166 5.1001 51.2441 5.1001C63.4176 5.1001 75.0923 9.93603 83.7002 18.5439C92.3081 27.1519 97.1436 38.8266 97.1436 51V51ZM51.2441 1.35986C61.062 1.35986 70.659 4.27156 78.8223 9.72608C86.9855 15.1806 93.3483 22.9334 97.1055 32.0039C100.863 41.0744 101.845 51.0554 99.9297 60.6846C98.0143 70.3138 93.287 79.1588 86.3447 86.1011C79.4024 93.0434 70.5579 97.7707 60.9287 99.686C51.2995 101.601 41.3186 100.618 32.248 96.8613C23.1775 93.1042 15.4242 86.7419 9.96973 78.5786C4.51521 70.4154 1.60352 60.8179 1.60352 51C1.6022 44.4808 2.88571 38.0252 5.37988 32.002C7.87406 25.9788 11.5309 20.5062 16.1406 15.8965C20.7504 11.2867 26.2229 7.63041 32.2461 5.13623C38.2693 2.64205 44.725 1.35855 51.2441 1.35986V1.35986Z" fill="#F2F1F0"/>
<path fill-rule="evenodd" clip-rule="evenodd" d="M94.334 51C94.334 59.5224 91.8071 67.8533 87.0723 74.9395C82.3375 82.0256 75.6071 87.5487 67.7334 90.8101C59.8597 94.0714 51.1965 94.9248 42.8379 93.2622C34.4792 91.5996 26.8007 87.4955 20.7744 81.4692C14.7482 75.443 10.6451 67.7654 8.98242 59.4067C7.31978 51.0481 8.17221 42.3839 11.4336 34.5103C14.695 26.6366 20.2186 19.9067 27.3047 15.1719C34.3908 10.4371 42.7217 7.91016 51.2441 7.91016C56.9028 7.91016 62.5055 9.02447 67.7334 11.1899C72.9613 13.3554 77.7116 16.5295 81.7129 20.5308C85.7142 24.532 88.8882 29.2823 91.0537 34.5103C93.2192 39.7382 94.334 45.3413 94.334 51V51ZM51.2441 4.16992C60.5062 4.16992 69.5606 6.91675 77.2617 12.0625C84.9629 17.2082 90.9643 24.522 94.5088 33.0791C98.0532 41.6362 98.9808 51.0521 97.1738 60.1362C95.3669 69.2204 90.9067 77.5645 84.3574 84.1138C77.8081 90.6631 69.464 95.1232 60.3799 96.9302C51.2958 98.7371 41.8803 97.8096 33.3232 94.2651C24.7662 90.7207 17.4524 84.7187 12.3066 77.0176C7.16089 69.3164 4.41406 60.2621 4.41406 51C4.41406 38.5799 9.34755 26.6686 18.1299 17.8862C26.9122 9.1039 38.8241 4.16992 51.2441 4.16992V4.16992Z" fill="url(#paint1_linear)"/>
<path d="M69.4023 55.3301H58.9326" stroke="white" stroke-width="0.8" stroke-linejoin="round"/>
<path d="M69.4023 43.4502H58.9326" stroke="white" stroke-width="0.8" stroke-linejoin="round"/>
<path d="M69.4023 31.5601H58.9326V67.1802H69.3926" stroke="white" stroke-width="0.8" stroke-linejoin="round"/>
<path d="M58.9629 49.7202H51.0527" stroke="white" stroke-linejoin="round"/>
<path fill-rule="evenodd" clip-rule="evenodd" d="M83.2227 43.8302H72.7432V43.0302H83.2227V43.8302Z" fill="white"/>
<path fill-rule="evenodd" clip-rule="evenodd" d="M83.2227 55.7003H72.7432V54.9003H83.2227V55.7003Z" fill="white"/>
<path fill-rule="evenodd" clip-rule="evenodd" d="M72.7432 31.16H83.2227C83.4436 31.16 83.6227 31.3391 83.6227 31.56V67.1802C83.6227 67.4011 83.4436 67.5802 83.2227 67.5802H72.7432V66.7802H82.8227V31.96H72.7432V31.16Z" fill="white"/>
<path opacity="0.15" d="M76.7725 27.2002H64.9727C64.8011 27.1989 64.6315 27.2317 64.4727 27.2964C64.3138 27.3612 64.1687 27.4563 64.0469 27.5772C63.9251 27.698 63.8287 27.8421 63.7627 28.0005C63.6967 28.1589 63.6631 28.3285 63.6631 28.5V35.73C63.6631 35.9016 63.6967 36.0716 63.7627 36.23C63.8287 36.3884 63.9251 36.532 64.0469 36.6529C64.1687 36.7737 64.3138 36.8694 64.4727 36.9341C64.6315 36.9989 64.8011 37.0316 64.9727 37.0303H76.7832C76.9547 37.033 77.1243 37.0009 77.2832 36.9366C77.4421 36.8722 77.5867 36.7766 77.708 36.6553C77.8293 36.5341 77.9249 36.3899 77.9893 36.231C78.0536 36.0721 78.0857 35.9015 78.083 35.73V28.5103C78.0843 28.3379 78.0507 28.1669 77.9854 28.0074C77.92 27.8478 77.8241 27.703 77.7021 27.5811C77.5802 27.4592 77.4349 27.3623 77.2754 27.2969C77.1159 27.2316 76.9449 27.1989 76.7725 27.2002V27.2002Z" fill="#1F1D20"/>
<path opacity="0.15" d="M76.7725 51.2603H64.9727C64.8011 51.259 64.6315 51.2913 64.4727 51.356C64.3138 51.4207 64.1687 51.5164 64.0469 51.6372C63.9251 51.7581 63.8287 51.9017 63.7627 52.0601C63.6967 52.2185 63.6631 52.3885 63.6631 52.5601V59.8501C63.6631 60.0217 63.6967 60.1918 63.7627 60.3501C63.8287 60.5085 63.9251 60.6521 64.0469 60.773C64.1687 60.8938 64.3138 60.9895 64.4727 61.0542C64.6315 61.119 64.8011 61.1513 64.9727 61.1499H76.7832C77.128 61.1499 77.4584 61.0134 77.7021 60.7696C77.9459 60.5258 78.083 60.1949 78.083 59.8501V52.6299C78.0911 52.4529 78.0632 52.2763 78.001 52.1104C77.9388 51.9445 77.8432 51.7927 77.7207 51.6646C77.5982 51.5365 77.4511 51.4348 77.2881 51.3653C77.1251 51.2957 76.9497 51.2601 76.7725 51.2603V51.2603Z" fill="#1F1D20"/>
<path opacity="0.15" d="M76.7725 39.2002H64.9727C64.8011 39.1989 64.6315 39.2317 64.4727 39.2964C64.3138 39.3612 64.1687 39.4563 64.0469 39.5772C63.9251 39.698 63.8287 39.8421 63.7627 40.0005C63.6967 40.1589 63.6631 40.3285 63.6631 40.5V47.73C63.6631 47.9016 63.6967 48.0716 63.7627 48.23C63.8287 48.3884 63.9251 48.532 64.0469 48.6529C64.1687 48.7737 64.3138 48.8694 64.4727 48.9341C64.6315 48.9989 64.8011 49.0316 64.9727 49.0303H76.7832C76.9547 49.033 77.1243 49.0009 77.2832 48.9366C77.4421 48.8722 77.5867 48.7766 77.708 48.6553C77.8293 48.5341 77.9249 48.3899 77.9893 48.231C78.0536 48.0721 78.0857 47.9015 78.083 47.73V40.5C78.0804 40.1543 77.9407 39.8236 77.6953 39.5801C77.4499 39.3366 77.1182 39.2002 76.7725 39.2002V39.2002Z" fill="#1F1D20"/>
<path opacity="0.15" d="M76.7725 63.2603H64.9727C64.8011 63.259 64.6315 63.2913 64.4727 63.356C64.3138 63.4207 64.1687 63.5164 64.0469 63.6372C63.9251 63.7581 63.8287 63.9017 63.7627 64.0601C63.6967 64.2185 63.6631 64.3885 63.6631 64.5601V71.8501C63.6631 72.0217 63.6967 72.1918 63.7627 72.3501C63.8287 72.5085 63.9251 72.6521 64.0469 72.773C64.1687 72.8938 64.3138 72.9895 64.4727 73.0542C64.6315 73.119 64.8011 73.1513 64.9727 73.1499H76.7832C77.128 73.1499 77.4584 73.0134 77.7021 72.7696C77.9459 72.5258 78.083 72.1949 78.083 71.8501V64.6202C78.0883 64.4443 78.0584 64.2692 77.9951 64.105C77.9318 63.9409 77.8359 63.7913 77.7139 63.6646C77.5918 63.5379 77.4458 63.4366 77.2842 63.3672C77.1225 63.2978 76.9484 63.2615 76.7725 63.2603Z" fill="#1F1D20"/>
<path d="M76.7725 26.3405H64.9727C64.8008 26.3378 64.6302 26.3695 64.4707 26.4337C64.3113 26.498 64.166 26.5934 64.044 26.7145C63.9219 26.8356 63.8253 26.9798 63.7598 27.1388C63.6943 27.2978 63.6618 27.4684 63.6631 27.6403V34.8503C63.6631 35.0218 63.6968 35.1919 63.7627 35.3503C63.8287 35.5086 63.9251 35.6523 64.0469 35.7731C64.1687 35.894 64.3138 35.9896 64.4727 36.0544C64.6316 36.1191 64.8011 36.1514 64.9727 36.1501H76.7832C76.9547 36.1528 77.1243 36.1212 77.2832 36.0568C77.4422 35.9924 77.5868 35.8968 77.708 35.7755C77.8293 35.6543 77.9249 35.5097 77.9893 35.3507C78.0537 35.1918 78.0857 35.0217 78.083 34.8503V27.63C78.0817 27.4593 78.0461 27.2907 77.9795 27.1335C77.913 26.9762 77.817 26.8338 77.6954 26.714C77.5737 26.5942 77.4288 26.4993 77.2705 26.4352C77.1123 26.3711 76.9432 26.3392 76.7725 26.3405Z" fill="#96D8EC"/>
<path d="M76.7725 50.3999H64.9727C64.8011 50.3986 64.6315 50.4314 64.4727 50.4961C64.3138 50.5609 64.1687 50.6565 64.0469 50.7774C63.9251 50.8982 63.8287 51.0419 63.7627 51.2002C63.6967 51.3586 63.6631 51.5287 63.6631 51.7002V58.94C63.6631 59.1115 63.6967 59.2816 63.7627 59.44C63.8287 59.5984 63.9251 59.742 64.0469 59.8628C64.1687 59.9837 64.3138 60.0793 64.4727 60.1441C64.6315 60.2088 64.8011 60.2416 64.9727 60.2403H76.7832C77.128 60.2403 77.4584 60.1032 77.7021 59.8594C77.9459 59.6156 78.083 59.2848 78.083 58.94V51.7203C78.0843 51.5474 78.0516 51.376 77.9863 51.2159C77.9211 51.0558 77.8239 50.9099 77.7021 50.7871C77.5804 50.6644 77.436 50.5675 77.2764 50.501C77.1168 50.4346 76.9453 50.3999 76.7725 50.3999V50.3999Z" fill="#35AFE4"/>
<path d="M76.7725 38.36H64.9727C64.8008 38.3573 64.6302 38.3895 64.4707 38.4538C64.3113 38.518 64.166 38.6134 64.044 38.7345C63.9219 38.8556 63.8253 38.9999 63.7598 39.1588C63.6943 39.3178 63.6618 39.4884 63.6631 39.6603V46.8503C63.6631 47.0218 63.6968 47.1919 63.7627 47.3503C63.8287 47.5086 63.9251 47.6523 64.0469 47.7731C64.1687 47.894 64.3138 47.9896 64.4727 48.0544C64.6316 48.1191 64.8011 48.1514 64.9727 48.1501H76.7832C76.9547 48.1528 77.1243 48.1212 77.2832 48.0568C77.4422 47.9924 77.5868 47.8968 77.708 47.7755C77.8293 47.6543 77.9249 47.5097 77.9893 47.3507C78.0537 47.1918 78.0857 47.0217 78.083 46.8503V39.6203C78.0726 39.2807 77.9294 38.9588 77.6846 38.7233C77.4398 38.4878 77.1122 38.3572 76.7725 38.36V38.36Z" fill="#74CFEB"/>
<path d="M76.7725 62.4102H64.9727C64.8011 62.4089 64.6315 62.4416 64.4727 62.5064C64.3138 62.5711 64.1687 62.6663 64.0469 62.7871C63.9251 62.908 63.8287 63.0521 63.7627 63.2105C63.6967 63.3689 63.6631 63.5384 63.6631 63.71V70.9502C63.6631 71.1218 63.6967 71.2914 63.7627 71.4497C63.8287 71.6081 63.9251 71.7522 64.0469 71.8731C64.1687 71.9939 64.3138 72.0891 64.4727 72.1538C64.6315 72.2186 64.8011 72.2514 64.9727 72.25H76.7832C77.128 72.25 77.4584 72.113 77.7021 71.8692C77.9459 71.6254 78.083 71.295 78.083 70.9502V63.7203C78.0804 63.3736 77.9414 63.042 77.6963 62.7969C77.4512 62.5518 77.1191 62.4128 76.7725 62.4102Z" fill="#175A98"/>
<path opacity="0.15" d="M70.9024 77.4102C71.0919 77.4115 71.2798 77.3751 71.4551 77.3032C71.6304 77.2313 71.7899 77.1252 71.9239 76.9912C72.0578 76.8572 72.1635 76.6983 72.2354 76.5229C72.3073 76.3476 72.3441 76.1597 72.3428 75.9702V28.4702H22.1631V75.98C22.1618 76.1695 22.1977 76.3574 22.2696 76.5327C22.3415 76.708 22.4471 76.8675 22.5811 77.0015C22.7151 77.1354 22.8745 77.2411 23.0498 77.313C23.2251 77.3849 23.4131 77.4213 23.6026 77.4199H70.9024V77.4102Z" fill="#1F1D20"/>
<path d="M72.3428 28.8501V28.0703C72.3428 27.841 72.2971 27.6136 72.209 27.4019C72.1209 27.1901 71.9918 26.9982 71.8291 26.8365C71.6665 26.6747 71.474 26.5464 71.2617 26.4595C71.0495 26.3726 70.8221 26.3288 70.5928 26.3301H23.9024C23.4409 26.3301 22.9992 26.5136 22.6729 26.8399C22.3466 27.1662 22.1631 27.6089 22.1631 28.0703V74.4102C22.1618 74.6391 22.206 74.866 22.293 75.0777C22.38 75.2894 22.5071 75.4817 22.669 75.6436C22.8308 75.8054 23.0237 75.9336 23.2354 76.0205C23.4471 76.1075 23.6735 76.1513 23.9024 76.1499H70.6123C70.8412 76.1513 71.0686 76.1075 71.2803 76.0205C71.492 75.9336 71.6839 75.8054 71.8457 75.6436C72.0076 75.4817 72.1357 75.2894 72.2227 75.0777C72.3097 74.866 72.3539 74.6391 72.3526 74.4102V28.94C72.3526 28.94 72.3428 28.9201 72.3428 28.8501Z" fill="#F2F2F3"/>
<path opacity="0.15" d="M80.0527 78.2402H59.7227C59.4574 78.2402 59.2032 78.1348 59.0156 77.9473C58.8281 77.7597 58.7227 77.5055 58.7227 77.2402V58.4199C58.7227 58.1547 58.8281 57.9004 59.0156 57.7129C59.2032 57.5254 59.4574 57.4199 59.7227 57.4199H80.0527C80.318 57.4199 80.5722 57.5254 80.7598 57.7129C80.9473 57.9004 81.0527 58.1547 81.0527 58.4199V77.23C81.0541 77.3621 81.0292 77.4932 80.9795 77.6157C80.9298 77.7382 80.8567 77.8499 80.7637 77.9438C80.6707 78.0378 80.5595 78.1122 80.4375 78.1631C80.3155 78.214 80.1849 78.2402 80.0527 78.2402Z" fill="#1F1D20"/>
<path opacity="0.15" d="M69.4235 62.7859H25.9424V62.8962C25.9424 63.9405 26.7857 64.7838 27.83 64.7838H67.5423C68.5867 64.7838 69.43 63.9405 69.43 62.8962V62.7859H69.4235V62.7859Z" fill="#1F1D20"/>
<path d="M65.3302 38.5706H30.0679V60.7295H65.3302V38.5706Z" fill="url(#paint2_linear)"/>
<path d="M65.6158 37.5846H29.7502C29.2637 37.5846 28.8745 37.9803 28.8745 38.4668V61.2615C28.8745 61.748 29.2702 62.1437 29.7567 62.1437H65.6223C66.1088 62.1437 66.5045 61.748 66.5045 61.2615V38.4668C66.498 37.9803 66.1023 37.5846 65.6158 37.5846ZM64.2731 60.0679H31.0995V39.5566H64.2731V60.0679Z" fill="#282828"/>
<path d="M69.4235 62.1437H25.9424V62.254C25.9424 63.2983 26.7857 64.1416 27.83 64.1416H67.5423C68.5867 64.1416 69.43 63.2983 69.43 62.254V62.1437H69.4235Z" fill="#F3F3F3"/>
<path opacity="0.15" d="M47.3663 57.6893C51.7779 57.6893 55.3541 55.8837 55.3541 53.6564C55.3541 51.4291 51.7779 49.6235 47.3663 49.6235C42.9547 49.6235 39.3784 51.4291 39.3784 53.6564C39.3784 55.8837 42.9547 57.6893 47.3663 57.6893Z" fill="#1F1D20"/>
<path d="M55.4903 47.8115L55.4514 53.5004C55.4514 54.7083 54.6526 55.0785 53.1134 55.9747C49.9767 57.7865 44.8528 57.7865 41.6772 55.9747C40.0991 55.02 39.3003 54.6304 39.3003 53.4224L39.3393 47.8115C39.3393 49.0194 40.138 46.9153 41.7161 47.8115C44.8918 49.6233 50.0157 49.6233 53.1524 47.8115C54.7305 46.9347 55.4903 48.9804 55.4903 47.8115Z" fill="url(#paint3_linear)"/>
<path d="M47.4643 54.2019L33.1836 48.2402V47.8701L47.4643 42.2786L61.7256 47.8701V48.2402L47.4643 54.2019Z" fill="url(#paint4_linear)"/>
<path d="M47.4643 53.8322L33.1836 47.8705L47.4643 41.9088L61.7256 47.8705L47.4643 53.8322Z" fill="url(#paint5_linear)"/>
<path d="M37.7034 49.7597L36.0474 49.0778L44.8145 45.415L46.49 46.0774L37.7034 49.7597Z" fill="url(#paint6_linear)"/>
<path d="M37.7034 49.7599L36.0474 49.0975L36.0668 53.072L36.8656 52.7992L37.7229 53.7344L37.7034 49.7599Z" fill="url(#paint7_linear)"/>
<path d="M80.0527 78.2402H59.7227C59.4574 78.2402 59.2032 78.1348 59.0156 77.9473C58.8281 77.7597 58.7227 77.5055 58.7227 77.2402V58.4302C58.7227 58.165 58.8281 57.9107 59.0156 57.7231C59.2032 57.5356 59.4574 57.4302 59.7227 57.4302H80.0527C80.318 57.4302 80.5722 57.5356 80.7598 57.7231C80.9473 57.9107 81.0527 58.165 81.0527 58.4302V77.25C81.0501 77.5135 80.9431 77.7653 80.7559 77.9507C80.5686 78.1361 80.3162 78.2402 80.0527 78.2402V78.2402Z" fill="white"/>
<path d="M74.3428 63.46C74.3428 63.3497 74.3205 63.2406 74.2783 63.1387C74.2361 63.0368 74.1747 62.9442 74.0967 62.8662C74.0187 62.7882 73.9261 62.7263 73.8242 62.6841C73.7223 62.6419 73.6132 62.6201 73.5029 62.6201H63.4131C63.1903 62.6201 62.9759 62.7087 62.8184 62.8662C62.6608 63.0237 62.5723 63.2372 62.5723 63.46C62.5723 63.6827 62.6608 63.8967 62.8184 64.0542C62.9759 64.2117 63.1903 64.3003 63.4131 64.3003H73.5127C73.7337 64.2977 73.9452 64.208 74.1006 64.0508C74.256 63.8935 74.3428 63.681 74.3428 63.46V63.46Z" fill="url(#paint8_linear)"/>
<path d="M77.2031 63.46C77.2031 63.2372 77.1145 63.0237 76.957 62.8662C76.7994 62.7087 76.585 62.6201 76.3622 62.6201H73.6122C73.1522 62.6201 73.4531 62.99 73.4531 63.46C73.4531 63.93 73.1522 64.3003 73.6122 64.3003H76.3622C76.5834 64.2952 76.7947 64.2048 76.9511 64.0483C77.1075 63.8919 77.198 63.6811 77.2031 63.46V63.46Z" fill="#9A9AA0"/>
<path d="M72.253 63.46C72.251 63.7931 72.3474 64.1192 72.5313 64.397C72.7151 64.6748 72.9778 64.8921 73.2852 65.0205C73.5926 65.1489 73.931 65.1827 74.2578 65.1182C74.5847 65.0537 74.8856 64.8938 75.1211 64.6582C75.3567 64.4227 75.5166 64.1223 75.5811 63.7954C75.6456 63.4686 75.6108 63.1302 75.4825 62.8228C75.3541 62.5154 75.1372 62.2527 74.8594 62.0689C74.5816 61.885 74.256 61.7881 73.9229 61.7901C73.4808 61.7927 73.0578 61.9696 72.7451 62.2823C72.4325 62.5949 72.2556 63.0179 72.253 63.46Z" fill="#74CFEB"/>
<path d="M71.2432 67.6802C71.2445 67.5696 71.2234 67.4595 71.1816 67.357C71.1399 67.2545 71.0783 67.1613 71 67.0831C70.9217 67.0048 70.8281 66.9432 70.7256 66.9014C70.6231 66.8597 70.513 66.8391 70.4023 66.8404H63.4023C63.1796 66.8404 62.9661 66.9285 62.8086 67.086C62.6511 67.2435 62.5625 67.4575 62.5625 67.6802C62.5625 67.903 62.6511 68.1165 62.8086 68.274C62.9661 68.4315 63.1796 68.5201 63.4023 68.5201H70.4023C70.513 68.5214 70.6231 68.5008 70.7256 68.459C70.8281 68.4173 70.9217 68.3552 71 68.2769C71.0783 68.1986 71.1399 68.1055 71.1816 68.003C71.2234 67.9005 71.2445 67.7909 71.2432 67.6802V67.6802Z" fill="url(#paint9_linear)"/>
<path d="M77.2031 67.6802C77.2031 67.4574 77.1146 67.2435 76.957 67.0859C76.7995 66.9284 76.5851 66.8403 76.3623 66.8403H70.9131C70.6903 66.8403 70.4759 66.9284 70.3184 67.0859C70.1608 67.2435 70.0723 67.4574 70.0723 67.6802C70.0723 67.903 70.1608 68.1164 70.3184 68.2739C70.4759 68.4315 70.6903 68.52 70.9131 68.52H76.3623C76.5835 68.5149 76.7947 68.425 76.9512 68.2686C77.1076 68.1121 77.198 67.9014 77.2031 67.6802Z" fill="#9A9AA0"/>
<path d="M68.6026 67.6802C68.6006 68.0129 68.6975 68.3386 68.8809 68.6162C69.0643 68.8938 69.326 69.1106 69.6328 69.2393C69.9396 69.3679 70.278 69.4026 70.6045 69.3389C70.9311 69.2752 71.2309 69.1159 71.4668 68.8813C71.7028 68.6468 71.8641 68.3476 71.9297 68.0215C71.9954 67.6953 71.9628 67.3569 71.836 67.0493C71.7091 66.7418 71.4933 66.479 71.2168 66.2939C70.9403 66.1089 70.6159 66.0103 70.2832 66.0103C69.8394 66.0102 69.4134 66.1856 69.0987 66.4985C68.7839 66.8114 68.6052 67.2363 68.6026 67.6802Z" fill="#34AEE4"/>
<path d="M67.3525 72.1602C67.3539 72.0495 67.3337 71.9395 67.292 71.837C67.2503 71.7345 67.1876 71.6413 67.1094 71.563C67.0311 71.4848 66.9385 71.4231 66.8359 71.3814C66.7334 71.3397 66.6234 71.319 66.5127 71.3204H63.4131C63.1903 71.3204 62.9759 71.4084 62.8184 71.566C62.6608 71.7235 62.5723 71.9374 62.5723 72.1602C62.5723 72.383 62.6608 72.5964 62.8184 72.754C62.9759 72.9115 63.1903 73.0001 63.4131 73.0001H66.5127C66.7339 72.995 66.9441 72.905 67.1006 72.7486C67.257 72.5922 67.3475 72.3814 67.3525 72.1602Z" fill="url(#paint10_linear)"/>
<path d="M77.2031 72.1602C77.2031 71.9374 77.1146 71.7234 76.957 71.5659C76.7995 71.4084 76.5851 71.3203 76.3623 71.3203H67.3623C67.1395 71.3203 66.9261 71.4084 66.7686 71.5659C66.611 71.7234 66.5225 71.9374 66.5225 72.1602C66.5225 72.3829 66.611 72.5964 66.7686 72.7539C66.9261 72.9114 67.1395 73 67.3623 73H76.3623C76.5827 72.9925 76.7923 72.9015 76.9482 72.7456C77.1042 72.5897 77.1956 72.3806 77.2031 72.1602V72.1602Z" fill="#9A9AA0"/>
<path d="M65.1631 72.1602C65.1631 72.4929 65.2613 72.8183 65.4463 73.0948C65.6314 73.3712 65.8946 73.5866 66.2022 73.7134C66.5097 73.8403 66.8477 73.8728 67.1739 73.8072C67.5 73.7415 67.7997 73.5802 68.0342 73.3443C68.2688 73.1083 68.4276 72.808 68.4912 72.4815C68.5549 72.1549 68.5203 71.8171 68.3916 71.5103C68.2629 71.2035 68.0462 70.9417 67.7686 70.7583C67.491 70.5749 67.1657 70.478 66.833 70.48C66.6129 70.48 66.3947 70.5239 66.1914 70.6084C65.9882 70.693 65.8037 70.8166 65.6485 70.9727C65.4933 71.1288 65.3705 71.3143 65.2871 71.5181C65.2038 71.7219 65.1618 71.94 65.1631 72.1602Z" fill="#2E77BC"/>
<defs>
<linearGradient id="paint0_linear" x1="49.4736" y1="-13.79" x2="53.4536" y2="131.98" gradientUnits="userSpaceOnUse">
<stop stop-color="#00ABDE"/>
<stop offset="1" stop-color="#2E7BBF"/>
</linearGradient>
<linearGradient id="paint1_linear" x1="2.67407" y1="-20.6201" x2="98.2043" y2="120.26" gradientUnits="userSpaceOnUse">
<stop stop-color="#2E7BBF"/>
<stop offset="0.71" stop-color="#092D4C"/>
</linearGradient>
<linearGradient id="paint2_linear" x1="37.1888" y1="39.3889" x2="63.6567" y2="65.2288" gradientUnits="userSpaceOnUse">
<stop stop-color="#007ED8"/>
<stop offset="0.7065" stop-color="#002D4C"/>
</linearGradient>
<linearGradient id="paint3_linear" x1="39.3067" y1="52.4514" x2="55.5061" y2="52.4514" gradientUnits="userSpaceOnUse">
<stop stop-color="#4DC2EB"/>
<stop offset="0.585" stop-color="#0078D4"/>
</linearGradient>
<linearGradient id="paint4_linear" x1="34.8157" y1="46.1727" x2="57.0106" y2="49.7936" gradientUnits="userSpaceOnUse">
<stop offset="0.0435" stop-color="white"/>
<stop offset="0.4857" stop-color="#4DC1EA"/>
<stop offset="0.8452" stop-color="#0078D4"/>
</linearGradient>
<linearGradient id="paint5_linear" x1="47.0919" y1="35.8162" x2="48.0656" y2="69.8943" gradientUnits="userSpaceOnUse">
<stop offset="0.0435" stop-color="white"/>
<stop offset="0.4857" stop-color="#4DC1EA"/>
<stop offset="0.8452" stop-color="#0078D4"/>
</linearGradient>
<linearGradient id="paint6_linear" x1="41.2531" y1="46.8977" x2="41.3603" y2="58.5321" gradientUnits="userSpaceOnUse">
<stop stop-color="#007ED8"/>
<stop offset="0.7065" stop-color="#002D4C"/>
</linearGradient>
<linearGradient id="paint7_linear" x1="36.8409" y1="46.9385" x2="36.9478" y2="58.5731" gradientUnits="userSpaceOnUse">
<stop stop-color="#007ED8"/>
<stop offset="0.7065" stop-color="#002D4C"/>
</linearGradient>
<linearGradient id="paint8_linear" x1="68.1225" y1="62.5101" x2="75.0236" y2="81.9619" gradientUnits="userSpaceOnUse">
<stop stop-color="#145490"/>
<stop offset="0.42" stop-color="#243A5E"/>
<stop offset="0.97" stop-color="#1A2C45"/>
</linearGradient>
<linearGradient id="paint9_linear" x1="75226.3" y1="8608.49" x2="75228.3" y2="8579.4" gradientUnits="userSpaceOnUse">
<stop stop-color="#145490"/>
<stop offset="0.42" stop-color="#243A5E"/>
<stop offset="0.97" stop-color="#1A2C45"/>
</linearGradient>
<linearGradient id="paint10_linear" x1="41443.5" y1="8606.38" x2="41445.9" y2="8586.93" gradientUnits="userSpaceOnUse">
<stop stop-color="#145490"/>
<stop offset="0.42" stop-color="#243A5E"/>
<stop offset="0.97" stop-color="#1A2C45"/>
</linearGradient>
</defs>
</svg>
