<svg width="103" height="103" viewBox="0 0 103 103" fill="none" xmlns="http://www.w3.org/2000/svg">
<path d="M51.6918 98.4765C25.8418 98.4765 4.88184 77.5265 4.88184 51.6665C4.88184 25.8065 25.8418 4.85651 51.6918 4.85651C77.5418 4.85651 98.5018 25.8165 98.5018 51.6665C98.5018 77.5165 77.5418 98.4765 51.6918 98.4765Z" fill="url(#paint0_linear)"/>
<path fill-rule="evenodd" clip-rule="evenodd" d="M97.5918 51.6665C97.5918 77.0165 77.0418 97.5665 51.6918 97.5665C26.3418 97.5665 5.79176 77.0165 5.79176 51.6665C5.79176 26.3165 26.3418 5.76649 51.6918 5.76649C77.0418 5.76649 97.5918 26.3165 97.5918 51.6665ZM51.6918 2.02649C79.1118 2.02649 101.332 24.2465 101.332 51.6665C101.332 79.0865 79.1018 101.306 51.6918 101.306C24.2718 101.306 2.05176 79.0765 2.05176 51.6665C2.05176 24.2465 24.2718 2.02649 51.6918 2.02649Z" fill="#F2F1F0"/>
<path fill-rule="evenodd" clip-rule="evenodd" d="M51.6918 94.7565C27.8918 94.7565 8.60182 75.4665 8.60182 51.6665C8.60182 27.8665 27.8918 8.57649 51.6918 8.57649C75.4918 8.57649 94.7818 27.8665 94.7818 51.6665C94.7818 75.4665 75.4918 94.7565 51.6918 94.7565ZM98.5218 51.6665C98.5218 77.5265 77.5518 98.4965 51.6918 98.4965C25.8318 98.4965 4.86182 77.5265 4.86182 51.6665C4.86182 25.8065 25.8318 4.83649 51.6918 4.83649C77.5518 4.83649 98.5218 25.7965 98.5218 51.6665Z" fill="url(#paint1_linear)"/>
<path d="M61.8921 40.4665H70.8921" stroke="white" stroke-width="0.8" stroke-miterlimit="10"/>
<path d="M61.8921 47.0065H70.8921" stroke="white" stroke-width="0.8" stroke-miterlimit="10"/>
<path d="M61.8921 53.5465H70.8921" stroke="white" stroke-width="0.8" stroke-miterlimit="10"/>
<path d="M61.8921 60.0865H70.8921" stroke="white" stroke-width="0.8" stroke-miterlimit="10"/>
<path d="M75.1722 62.2465V58.2665C75.1722 57.8665 74.8522 57.5465 74.4522 57.5565H67.9422C67.5422 57.5565 67.2222 57.8765 67.2222 58.2765V62.2565C67.2222 62.6565 67.5422 62.9765 67.9422 62.9765H74.4422C74.8422 62.9665 75.1722 62.6465 75.1722 62.2465Z" fill="#2195DC"/>
<path d="M75.1722 48.9965V45.0165C75.1722 44.6165 74.8522 44.2965 74.4522 44.2965H67.9422C67.5422 44.2965 67.2222 44.6165 67.2222 45.0165V48.9965C67.2222 49.3965 67.5422 49.7165 67.9422 49.7165H74.4422C74.8422 49.7165 75.1722 49.3965 75.1722 48.9965Z" fill="#50E6FF"/>
<path d="M75.1722 55.6365V51.6565C75.1722 51.2565 74.8522 50.9365 74.4522 50.9365H67.9422C67.5422 50.9365 67.2222 51.2565 67.2222 51.6565V55.6365C67.2222 56.0365 67.5422 56.3565 67.9422 56.3565H74.4422C74.8422 56.3565 75.1722 56.0365 75.1722 55.6365Z" fill="#3BCAF4"/>
<path d="M75.1722 42.3765V38.3965C75.1722 37.9965 74.8522 37.6765 74.4522 37.6765H67.9422C67.5422 37.6765 67.2222 37.9965 67.2222 38.3965V42.3765C67.2222 42.7765 67.5422 43.0965 67.9422 43.0965H74.4422C74.8422 43.1065 75.1722 42.7765 75.1722 42.3765Z" fill="#84ECFD"/>
<path d="M50.5118 70.4864C50.5018 70.4764 50.5118 70.4764 50.5118 70.4764C50.5118 70.4864 50.5118 70.4864 50.5118 70.4864Z" fill="#F2F1F0"/>
<path d="M50.5119 70.4664C50.4719 70.3364 50.4019 70.1564 50.4019 70.1564C50.4019 70.2764 50.4419 70.3864 50.5119 70.4664Z" fill="#F2F1F0"/>
<path d="M50.5117 70.4865C50.5517 70.5965 50.5417 70.5665 50.5117 70.4865V70.4865Z" fill="#F2F1F0"/>
<path d="M52.8018 31.3765C52.8418 31.5065 52.9118 31.6865 52.9118 31.6865C52.9118 31.5665 52.8618 31.4665 52.8018 31.3765Z" fill="#F2F1F0"/>
<path d="M52.8122 31.3564C52.8222 31.3664 52.8122 31.3664 52.8122 31.3664C52.8022 31.3664 52.8022 31.3664 52.8122 31.3564Z" fill="#F2F1F0"/>
<path d="M52.8122 31.3565C52.7622 31.2565 52.7722 31.2765 52.8122 31.3565V31.3565Z" fill="#F2F1F0"/>
<path d="M73.1418 53.6664C73.1318 53.6764 73.1318 53.6664 73.1318 53.6664C73.1418 53.6664 73.1418 53.6664 73.1418 53.6664Z" fill="#F2F1F0"/>
<g opacity="0.15">
<path opacity="0.15" d="M41.4018 81.1865C53.4218 85.1465 66.8118 81.1965 74.7418 71.3365C82.3518 61.8665 83.6218 48.7865 77.9718 38.0265C77.8518 37.7965 77.9218 37.5865 77.9718 37.4865C78.0118 37.4065 78.1418 37.1865 78.4318 37.1265L80.0518 36.8365C81.3318 36.6165 82.6518 37.3265 83.1718 38.5565C88.1918 50.4365 86.3118 64.0765 78.2218 74.1365C69.1018 85.4865 53.6818 89.9865 39.8518 85.3465L38.5218 84.8965L36.7418 89.8765C36.6218 90.2165 36.1618 90.3065 35.9418 90.0265L26.7118 79.3165C26.3318 78.8665 26.5818 78.1865 27.1518 78.0965L41.0918 75.6465C41.4518 75.5865 41.7518 75.9365 41.6218 76.2865L40.0018 80.7565L41.4018 81.1865Z" fill="#1F1D20"/>
<path opacity="0.15" d="M62.422 30.1665C62.062 30.2265 61.772 29.8765 61.902 29.5365L63.682 24.4665L62.412 23.9565C50.032 18.9265 35.522 22.6865 27.162 33.0965C18.772 43.5365 18.242 58.5165 25.852 69.5265C26.032 69.7865 25.972 70.0165 25.922 70.1265C25.892 70.1765 25.872 70.2265 25.832 70.2865C25.762 70.3765 25.632 70.4765 25.442 70.5065L23.492 70.8565C22.312 71.0665 21.112 70.4865 20.512 69.4065C13.352 56.7265 14.702 41.1765 23.982 29.9365C33.752 18.0965 50.302 14.3265 64.572 19.9765L65.172 20.2065L66.702 15.8265C66.822 15.4865 67.282 15.3965 67.522 15.6865L76.832 26.6065C77.212 27.0565 76.962 27.7365 76.382 27.8365L62.422 30.1665Z" fill="#1F1D20"/>
</g>
<path d="M42.2419 80.1465C54.2619 84.1065 67.6519 80.1564 75.5819 70.2964C83.1919 60.8264 84.4619 47.7465 78.8119 36.9865C78.6919 36.7565 78.7619 36.5465 78.8119 36.4465C78.8519 36.3665 78.9819 36.1464 79.2719 36.0864L80.8919 35.7965C82.1719 35.5765 83.4919 36.2865 84.0119 37.5165C89.0419 49.3864 87.1519 63.0264 79.0719 73.0864C69.9419 84.4364 54.5219 88.9365 40.6919 84.2865L39.3619 83.8364L37.5819 88.8165C37.4619 89.1565 37.0019 89.2465 36.7819 88.9665L27.5619 78.2664C27.1819 77.8164 27.4319 77.1364 28.0019 77.0464L41.9419 74.5965C42.3019 74.5365 42.6019 74.8865 42.4719 75.2365L40.8519 79.7065L42.2419 80.1465Z" fill="#FEFEFE"/>
<path d="M63.252 29.1264C62.892 29.1864 62.602 28.8364 62.732 28.4964L64.512 23.4264L63.242 22.9164C50.862 17.8864 36.352 21.6464 27.992 32.0564C19.602 42.4964 19.072 57.4764 26.682 68.4864C26.862 68.7464 26.802 68.9764 26.752 69.0864C26.722 69.1364 26.702 69.1864 26.662 69.2464C26.592 69.3364 26.462 69.4364 26.272 69.4664L24.322 69.8164C23.142 70.0264 21.942 69.4464 21.342 68.3664C14.182 55.6864 15.532 40.1364 24.812 28.8964C34.572 17.0764 51.122 13.3064 65.392 18.9464L65.992 19.1764L67.522 14.7964C67.642 14.4564 68.102 14.3664 68.342 14.6564L77.662 25.5764C78.042 26.0264 77.792 26.7064 77.212 26.8064L63.252 29.1264Z" fill="#FEFEFE"/>
<path d="M63.332 37.6365H29.062V62.9465H63.332V37.6365Z" fill="#0078D4"/>
<path d="M51.5319 43.8065H38.4019V56.9365H51.5319V43.8065Z" fill="#FEFEFE"/>
<path d="M56.7018 54.9165L47.6118 51.7065V49.0265L56.7018 45.8265V54.9165Z" fill="#FEFEFE"/>
<path d="M63.332 37.6365H29.062V62.9465H63.332V37.6365Z" fill="url(#paint2_linear)"/>
<path d="M51.5319 43.8065H38.4019V56.9365H51.5319V43.8065Z" fill="#FEFEFE"/>
<path d="M56.7018 54.9165L47.6118 51.7065V49.0265L56.7018 45.8265V54.9165Z" fill="#FEFEFE"/>
<defs>
<linearGradient id="paint0_linear" x1="36.6344" y1="1.22751" x2="66.8707" y2="102.519" gradientUnits="userSpaceOnUse">
<stop stop-color="#C1C7FF"/>
<stop offset="1" stop-color="#9DA4FF"/>
</linearGradient>
<linearGradient id="paint1_linear" x1="51.6918" y1="4.83639" x2="51.6918" y2="98.4963" gradientUnits="userSpaceOnUse">
<stop stop-color="#5A62C3"/>
<stop offset="0.5" stop-color="#4D55BD"/>
<stop offset="1" stop-color="#3940AB"/>
</linearGradient>
<linearGradient id="paint2_linear" x1="37.433" y1="30.1895" x2="54.7475" y2="69.8861" gradientUnits="userSpaceOnUse">
<stop stop-color="#5A62C3"/>
<stop offset="0.5" stop-color="#4D55BD"/>
<stop offset="1" stop-color="#3940AB"/>
</linearGradient>
</defs>
</svg>
