<svg width="181" height="191" viewBox="0 0 181 191" fill="none" xmlns="http://www.w3.org/2000/svg">
<path d="M90.7756 189.351C93.8356 189.351 96.8456 188.501 99.5056 186.881L161.476 149.221C167.016 145.851 170.446 139.521 170.446 132.681V57.9706C170.446 51.1506 167.016 44.8107 161.476 41.4307L99.5056 3.77065C94.1756 0.53065 87.3556 0.55065 82.0556 3.77065L20.0856 41.4506C14.5456 44.8206 11.0956 51.1507 11.0956 57.9907V132.691C11.0956 138.451 13.5456 143.871 17.6456 147.441V147.471L82.0556 186.901C84.6956 188.501 87.7156 189.351 90.7756 189.351ZM91.4256 8.30065C93.3756 8.30065 95.8556 9.51065 97.5656 10.5606L158.326 47.7507C162.076 50.0307 164.196 56.6306 164.196 61.3806L163.566 132.681C163.566 137.431 160.366 141.701 156.616 143.981L96.2156 180.361C92.7856 182.451 89.9956 182.451 86.5556 180.361L25.3456 143.891C21.5956 141.611 18.5756 137.411 18.5756 132.681V59.0406C18.5756 54.3006 21.3056 49.4107 25.0756 47.1207L85.6556 10.5606C87.3556 9.52065 89.4756 8.30065 91.4256 8.30065Z" fill="#F2F1F0"/>
<path fill-rule="evenodd" clip-rule="evenodd" d="M98.6756 11.8804C96.2256 10.3804 93.5056 9.63037 90.7756 9.63037C88.0456 9.63037 85.3256 10.3904 82.8756 11.8804L26.7456 46.2104C21.7256 49.2804 18.6156 55.0304 18.6156 61.2804V129.38C18.6156 135.61 21.7156 141.38 26.7456 144.45L82.8756 178.78C85.3256 180.28 88.0456 181.03 90.7756 181.03C93.5056 181.03 96.2256 180.29 98.6756 178.78L154.806 144.45C159.826 141.38 162.936 135.61 162.936 129.38V61.2804C162.936 55.0504 159.836 49.3004 154.806 46.2104L98.6756 11.8804Z" fill="url(#paint0_linear_660_8895)"/>
<path fill-rule="evenodd" clip-rule="evenodd" d="M90.7756 11.1006C92.4556 11.1006 94.3456 11.9706 96.4056 13.2206L154.876 48.7606C158.526 50.9806 160.936 55.2506 160.936 60.0806V130.561C160.936 135.381 158.526 139.661 154.876 141.881L96.4156 177.421C94.4556 178.611 92.5356 179.361 90.7856 179.361C89.0356 179.361 87.1156 178.611 85.1556 177.421L26.6756 141.891C24.6656 140.661 23.2156 139.461 22.2356 137.851C21.2556 136.251 20.6156 134.031 20.6156 130.571V60.0906C20.6156 55.2606 23.0256 50.9906 26.6756 48.7706L85.1356 13.2306C87.2256 11.9806 89.0856 11.1006 90.7756 11.1006ZM98.4856 180.851L156.946 145.311C161.866 142.321 164.926 136.701 164.926 130.571V60.0906C164.926 53.9606 161.866 48.3406 156.946 45.3506L98.4856 9.81059C96.3756 8.53059 93.6656 7.10059 90.7756 7.10059C87.8756 7.10059 85.1656 8.54059 83.0756 9.80059H83.0656L24.5956 45.3506C19.6756 48.3406 16.6156 53.9606 16.6156 60.0906V130.571C16.6156 134.531 17.3556 137.521 18.8156 139.931C20.2756 142.331 22.3356 143.931 24.5956 145.301L83.0556 180.841C85.2756 182.191 87.9456 183.371 90.7656 183.371C93.5856 183.371 96.2656 182.201 98.4856 180.851Z" fill="url(#paint1_linear_660_8895)"/>
<path d="M92.8745 21.3178C93.1304 21.4862 93.3427 21.7127 93.4944 21.9788C93.646 22.2449 93.7326 22.5431 93.7471 22.849C93.7471 23.4089 93.352 23.6394 92.858 23.3595C92.6009 23.191 92.3867 22.9648 92.2323 22.699C92.078 22.4332 91.9877 22.135 91.9688 21.8282C91.9688 21.3178 92.3147 21.1038 92.8745 21.3178Z" fill="#E6F6FC"/>
<path d="M98.9007 24.8416C99.1605 25.0071 99.3769 25.2325 99.5316 25.499C99.6863 25.7654 99.7748 26.0651 99.7898 26.3728C99.7898 26.9162 99.3782 27.1467 98.9007 26.8668C98.6427 26.6992 98.4278 26.4733 98.2733 26.2073C98.1188 25.9413 98.0292 25.6426 98.0116 25.3355C97.9787 24.7922 98.3738 24.6111 98.9007 24.8416Z" fill="#DAF2FB"/>
<path d="M104.877 28.3155C105.136 28.4809 105.351 28.7067 105.503 28.9734C105.655 29.2402 105.74 29.5399 105.75 29.8467C105.75 30.4065 105.371 30.6535 104.877 30.3571C104.618 30.1916 104.401 29.9662 104.247 29.6997C104.092 29.4333 104.003 29.1336 103.988 28.8259C103.988 28.2496 104.384 28.0356 104.877 28.3155Z" fill="#CEEEF9"/>
<path d="M110.887 31.7895C111.144 31.9533 111.357 32.1765 111.509 32.4402C111.661 32.7039 111.747 33.0003 111.76 33.3043C111.76 33.8806 111.365 34.111 110.871 33.8311C110.615 33.6583 110.404 33.4286 110.252 33.16C110.101 32.8915 110.014 32.5913 109.998 32.2834C109.998 31.7236 110.426 31.4931 110.887 31.7895Z" fill="#C1E9F8"/>
<path d="M116.88 35.2474C117.138 35.4159 117.352 35.642 117.506 35.9078C117.661 36.1737 117.751 36.4718 117.77 36.7786C117.77 37.3549 117.374 37.5854 116.88 37.289C116.622 37.1225 116.406 36.8968 116.251 36.6306C116.097 36.3644 116.008 36.0652 115.991 35.7578C115.991 35.1815 116.387 34.9675 116.88 35.2474Z" fill="#B5E5F6"/>
<path d="M122.874 38.7046C123.131 38.8731 123.345 39.0992 123.499 39.3651C123.654 39.6309 123.744 39.929 123.763 40.2358C123.763 40.8121 123.368 41.0426 122.874 40.7463C122.615 40.5797 122.399 40.354 122.245 40.0878C122.09 39.8216 122.001 39.5224 121.985 39.215C121.952 38.6552 122.38 38.4247 122.874 38.7046Z" fill="#A9E1F5"/>
<path d="M92.8251 35.1813C93.084 35.3479 93.2996 35.5735 93.4542 35.8398C93.6088 36.106 93.6979 36.4051 93.7142 36.7126C93.7346 36.8232 93.7203 36.9375 93.6731 37.0397C93.6258 37.1418 93.548 37.2267 93.4505 37.2828C93.3529 37.3388 93.2403 37.3631 93.1283 37.3524C93.0163 37.3417 92.9103 37.2965 92.8251 37.223C92.5611 37.058 92.3418 36.8305 92.1867 36.5605C92.0317 36.2906 91.9455 35.9865 91.936 35.6753C91.936 35.1319 92.3147 34.9014 92.8251 35.1813Z" fill="#C6EBF8"/>
<path d="M98.9007 38.6389C99.1594 38.8042 99.3741 39.0299 99.5261 39.2967C99.6781 39.5635 99.763 39.8632 99.7734 40.1701C99.7734 40.7134 99.3617 40.9604 98.9007 40.6805C98.6377 40.5144 98.4192 40.2866 98.2643 40.0168C98.1093 39.7471 98.0226 39.4437 98.0116 39.1328C97.9458 38.5565 98.3409 38.359 98.9007 38.6389Z" fill="#BAE7F7"/>
<path d="M104.845 42.1127C105.101 42.2801 105.315 42.5064 105.466 42.7727C105.618 43.039 105.704 43.3377 105.717 43.644C105.717 44.2038 105.322 44.4343 104.828 44.1544C104.568 43.9852 104.352 43.7568 104.197 43.4877C104.042 43.2186 103.954 42.9166 103.939 42.6067C103.939 42.0633 104.351 41.8328 104.845 42.1127Z" fill="#AFE3F6"/>
<path d="M110.838 45.5868C111.096 45.7497 111.312 45.9723 111.467 46.2358C111.622 46.4994 111.711 46.7963 111.727 47.1015C111.727 47.6778 111.332 47.9083 110.838 47.6284C110.579 47.4583 110.363 47.2296 110.209 46.9607C110.054 46.6918 109.965 46.3903 109.949 46.0807C109.949 45.5373 110.426 45.2904 110.838 45.5868Z" fill="#A2DFF4"/>
<path d="M116.848 49.0449C117.107 49.2115 117.322 49.4372 117.477 49.7034C117.631 49.9696 117.72 50.2688 117.737 50.5762C117.737 51.1525 117.325 51.3665 116.831 51.0866C116.574 50.9192 116.361 50.6929 116.209 50.4265C116.058 50.1602 115.972 49.8616 115.958 49.5554C115.958 48.9955 116.354 48.765 116.848 49.0449Z" fill="#96DAF3"/>
<path d="M122.841 52.5032C123.098 52.6717 123.312 52.8978 123.466 53.1636C123.621 53.4295 123.711 53.7276 123.73 54.0344C123.73 54.6107 123.318 54.8412 122.824 54.5448C122.568 54.3774 122.354 54.1512 122.203 53.8849C122.051 53.6186 121.965 53.3199 121.952 53.0136C121.952 52.4538 122.347 52.2233 122.841 52.5032Z" fill="#8AD6F1"/>
<path d="M92.858 28.2822C93.1121 28.4525 93.3231 28.6795 93.4746 28.9452C93.626 29.2109 93.7136 29.5081 93.7306 29.8135C93.7306 30.3733 93.3355 30.6038 92.8416 30.3239C92.5826 30.1574 92.3669 29.9317 92.2124 29.6655C92.0578 29.3992 91.9688 29.1001 91.9525 28.7927C91.9525 28.2328 92.3147 28.0023 92.858 28.2822Z" fill="#D5F0FA"/>
<path d="M98.7689 31.5421C99.0297 31.7066 99.2468 31.9318 99.4016 32.1985C99.5565 32.4651 99.6445 32.7653 99.6581 33.0734C99.6581 33.6167 99.2629 33.8637 98.7689 33.5838C98.51 33.4172 98.2944 33.1916 98.1398 32.9253C97.9852 32.6591 97.8961 32.36 97.8798 32.0525C97.8798 31.4927 98.275 31.1964 98.7689 31.5421Z" fill="#CBEDF9"/>
<path d="M104.861 35.2149C105.116 35.3842 105.328 35.6109 105.479 35.8768C105.631 36.1427 105.718 36.4404 105.734 36.7461C105.734 37.3059 105.338 37.5529 104.845 37.2565C104.586 37.09 104.37 36.8643 104.215 36.5981C104.061 36.3318 103.972 36.0327 103.955 35.7253C103.955 35.1655 104.367 34.935 104.861 35.2149Z" fill="#BEE8F7"/>
<path d="M110.854 38.6881C111.111 38.853 111.325 39.0761 111.48 39.3393C111.634 39.6024 111.725 39.8983 111.743 40.2028C111.743 40.7791 111.348 41.0096 110.854 40.7297C110.594 40.5618 110.379 40.3332 110.227 40.0635C110.075 39.7939 109.991 39.4914 109.982 39.182C109.982 38.6387 110.426 38.3917 110.854 38.6881Z" fill="#B2E4F6"/>
<path d="M116.864 42.1463C117.121 42.3147 117.335 42.5409 117.49 42.8067C117.644 43.0725 117.734 43.3707 117.753 43.6775C117.753 44.2538 117.358 44.4843 116.864 44.1879C116.605 44.0214 116.389 43.7957 116.235 43.5295C116.08 43.2632 115.991 42.9641 115.975 42.6567C115.975 42.0969 116.37 41.8664 116.864 42.1463Z" fill="#A6E0F4"/>
<path d="M122.857 45.6033C123.113 45.7727 123.327 45.9991 123.481 46.2647C123.636 46.5304 123.726 46.828 123.746 47.1345C123.746 47.7108 123.335 47.9413 122.841 47.6449C122.584 47.4775 122.371 47.2513 122.219 46.985C122.067 46.7187 121.981 46.42 121.968 46.1137C121.952 45.5539 122.363 45.3234 122.857 45.6033Z" fill="#99DCF3"/>
<path d="M92.8086 42.08C93.0675 42.2466 93.2832 42.4722 93.4378 42.7385C93.5924 43.0047 93.6815 43.3038 93.6978 43.6112C93.7183 43.7219 93.7038 43.8362 93.6566 43.9384C93.6093 44.0405 93.5316 44.1254 93.434 44.1815C93.3364 44.2375 93.2238 44.2618 93.1118 44.2511C92.9998 44.2404 92.8938 44.1952 92.8086 44.1217C92.5446 43.9567 92.3253 43.7292 92.1703 43.4592C92.0152 43.1892 91.9291 42.8851 91.9195 42.5739C91.9195 42.0306 92.3147 41.8001 92.8086 42.08Z" fill="#B7E6F6"/>
<path d="M98.9007 45.5208C99.1547 45.6911 99.3658 45.918 99.5172 46.1837C99.6686 46.4494 99.7563 46.7467 99.7734 47.0521C99.7938 47.1627 99.7794 47.2769 99.7321 47.3791C99.6849 47.4812 99.6071 47.5663 99.5096 47.6223C99.412 47.6783 99.2994 47.7026 99.1874 47.6919C99.0753 47.6812 98.9694 47.636 98.8842 47.5625C98.6258 47.3914 98.4109 47.1625 98.2566 46.8938C98.1022 46.6251 98.0127 46.3241 97.9951 46.0148C97.9128 45.4714 98.3079 45.2245 98.9007 45.5208Z" fill="#AAE2F5"/>
<path d="M104.812 49.0119C105.071 49.1784 105.286 49.4041 105.441 49.6703C105.595 49.9366 105.684 50.2357 105.701 50.5431C105.701 51.1029 105.306 51.3335 104.812 51.0535C104.552 50.8844 104.335 50.6559 104.181 50.3869C104.026 50.1178 103.938 49.8158 103.923 49.5058C103.923 48.9625 104.318 48.732 104.812 49.0119Z" fill="#9FDDF4"/>
<path d="M110.821 52.486C111.08 52.6477 111.294 52.8704 111.447 53.1345C111.599 53.3986 111.684 53.6961 111.694 54.0008C111.694 54.5771 111.315 54.8076 110.821 54.5277C110.562 54.3576 110.347 54.1289 110.192 53.86C110.038 53.5911 109.949 53.2896 109.932 52.98C109.932 52.4201 110.327 52.1897 110.821 52.486Z" fill="#93D9F2"/>
<path d="M116.831 55.8942C117.09 56.0607 117.306 56.2864 117.46 56.5526C117.615 56.8189 117.704 57.118 117.72 57.4254C117.72 57.9852 117.309 58.2157 116.815 57.9358C116.558 57.7684 116.345 57.5422 116.193 57.2759C116.041 57.0096 115.955 56.7109 115.942 56.4046C115.942 55.8942 116.337 55.6637 116.831 55.8942Z" fill="#86D5F1"/>
<path d="M122.808 59.4009C123.069 59.5666 123.287 59.7917 123.444 60.0578C123.602 60.324 123.694 60.6236 123.713 60.9322C123.713 61.5084 123.302 61.7225 122.808 61.4426C122.551 61.2752 122.338 61.0489 122.186 60.7826C122.034 60.5163 121.948 60.2176 121.935 59.9113C121.952 59.3515 122.314 59.1869 122.808 59.4009Z" fill="#7AD1EF"/>
<path d="M92.7921 48.9795C93.0483 49.1489 93.262 49.3753 93.4162 49.641C93.5704 49.9066 93.6612 50.2042 93.6813 50.5107C93.6813 51.0706 93.2696 51.3011 92.7921 51.0212C92.5313 50.8567 92.3142 50.6315 92.1594 50.3648C92.0046 50.0982 91.9166 49.798 91.903 49.4899C91.903 48.9301 92.3146 48.6996 92.7921 48.9795Z" fill="#A7E0F5"/>
<path d="M98.8019 52.4207C99.0559 52.591 99.267 52.8179 99.4184 53.0836C99.5698 53.3493 99.6574 53.6466 99.6745 53.952C99.695 54.0626 99.6806 54.1768 99.6334 54.279C99.5861 54.3811 99.5084 54.4661 99.4108 54.5221C99.3132 54.5781 99.2006 54.6025 99.0886 54.5918C98.9766 54.5811 98.8706 54.5359 98.7854 54.4624C98.527 54.2913 98.3121 54.0624 98.1578 53.7937C98.0035 53.525 97.914 53.224 97.8963 52.9147C97.8963 52.3713 98.2915 52.1244 98.8019 52.4207Z" fill="#9ADCF3"/>
<path d="M104.795 55.8947C105.054 56.0612 105.27 56.2869 105.424 56.5531C105.579 56.8194 105.668 57.1185 105.684 57.4259C105.684 57.9857 105.289 58.2162 104.795 57.9363C104.536 57.7698 104.321 57.5441 104.166 57.2779C104.011 57.0117 103.922 56.7125 103.906 56.4051C103.84 55.8947 104.301 55.6312 104.795 55.8947Z" fill="#8FD8F2"/>
<path d="M110.805 59.368C111.062 59.539 111.275 59.7684 111.427 60.0373C111.578 60.3063 111.664 60.6073 111.678 60.9157C111.678 61.4756 111.282 61.706 110.788 61.4097C110.532 61.2459 110.319 61.0228 110.167 60.7591C110.015 60.4954 109.929 60.199 109.916 59.8949C109.916 59.3186 110.311 59.0881 110.805 59.368Z" fill="#82D4F0"/>
<path d="M116.798 62.8428C117.061 63.0088 117.28 63.2367 117.435 63.5064C117.59 63.7762 117.676 64.0796 117.687 64.3905C117.687 64.9338 117.292 65.1644 116.798 64.8845C116.539 64.7192 116.325 64.4933 116.173 64.2266C116.021 63.9598 115.936 63.6601 115.926 63.3533C115.926 62.7935 116.304 62.5629 116.798 62.8428Z" fill="#77D0EF"/>
<path d="M122.791 66.3006C123.052 66.4697 123.268 66.6982 123.422 66.9672C123.577 67.2363 123.665 67.5383 123.681 67.8483C123.681 68.3916 123.285 68.6221 122.791 68.3422C122.533 68.1757 122.317 67.95 122.162 67.6838C122.008 67.4175 121.919 67.1184 121.902 66.811C121.952 66.2512 122.298 66.0207 122.791 66.3006Z" fill="#6BCBED"/>
<path d="M92.7757 55.8946C93.0319 56.0665 93.2442 56.296 93.3958 56.5648C93.5473 56.8335 93.6338 57.1341 93.6483 57.4423C93.6483 57.9856 93.2532 58.2161 92.7757 57.9362C92.5137 57.7715 92.2949 57.5467 92.1374 57.2804C91.9799 57.0141 91.8882 56.7139 91.8701 56.405C91.8865 55.8946 92.3147 55.5817 92.7757 55.8946Z" fill="#97DBF3"/>
<path d="M98.7689 59.3194C99.0269 59.4869 99.2418 59.7128 99.3963 59.9789C99.5508 60.2449 99.6405 60.5435 99.6581 60.8507C99.6786 60.9613 99.6641 61.0755 99.6169 61.1777C99.5696 61.2798 99.4919 61.3647 99.3943 61.4208C99.2967 61.4768 99.1841 61.5012 99.0721 61.4905C98.9601 61.4798 98.8541 61.4346 98.7689 61.3611C98.5106 61.19 98.2957 60.9611 98.1413 60.6924C97.987 60.4237 97.8975 60.1227 97.8798 59.8133C97.8798 59.27 98.275 59.023 98.7689 59.3194Z" fill="#8BD7F1"/>
<path d="M104.779 62.7938C105.037 62.9591 105.252 63.1849 105.404 63.4517C105.556 63.7185 105.641 64.0181 105.651 64.325C105.651 64.8848 105.273 65.1153 104.779 64.8354C104.518 64.6709 104.301 64.4457 104.146 64.1791C103.991 63.9124 103.903 63.6122 103.89 63.3042C103.84 62.7444 104.285 62.4809 104.779 62.7938Z" fill="#7FD3F0"/>
<path d="M110.788 66.2677C111.046 66.4341 111.26 66.6601 111.412 66.9267C111.564 67.1932 111.649 67.4924 111.661 67.799C111.661 68.3588 111.266 68.5893 110.772 68.3094C110.517 68.14 110.305 67.9133 110.154 67.6474C110.002 67.3815 109.915 67.0838 109.899 66.7781C109.899 66.2183 110.294 65.9714 110.788 66.2677Z" fill="#73CEEE"/>
<path d="M116.782 69.725C117.042 69.8941 117.258 70.1226 117.413 70.3917C117.567 70.6607 117.656 70.9627 117.671 71.2727C117.671 71.8325 117.276 72.0465 116.782 71.7666C116.525 71.6017 116.311 71.3786 116.156 71.1154C116.002 70.8523 115.911 70.5563 115.893 70.2518C115.893 69.6755 116.288 69.4451 116.782 69.725Z" fill="#67CAED"/>
<path d="M122.775 73.1827C123.034 73.3528 123.25 73.5815 123.404 73.8504C123.559 74.1193 123.648 74.4208 123.664 74.7304C123.664 75.2903 123.269 75.5207 122.775 75.2244C122.518 75.0594 122.304 74.8363 122.149 74.5732C121.995 74.31 121.905 74.0142 121.886 73.7096C121.952 73.1333 122.281 72.9028 122.775 73.1827Z" fill="#5AC6EC"/>
<path d="M128.884 42.1788C129.143 42.3443 129.36 42.5698 129.514 42.8362C129.669 43.1027 129.758 43.4023 129.773 43.71C129.773 44.2698 129.361 44.5003 128.867 44.2204C128.615 44.0483 128.405 43.821 128.254 43.5557C128.103 43.2903 128.014 42.994 127.994 42.6892C127.994 42.1129 128.39 41.8989 128.884 42.1788Z" fill="#9CDDF3"/>
<path d="M134.893 45.6536C135.153 45.8191 135.369 46.0445 135.524 46.3109C135.679 46.5773 135.767 46.8771 135.782 47.1848C135.782 47.7446 135.371 47.9751 134.877 47.6952C134.619 47.5252 134.405 47.2961 134.253 47.0269C134.101 46.7578 134.016 46.4563 134.004 46.1475C134.004 45.5877 134.399 45.3737 134.893 45.6536Z" fill="#91D9F2"/>
<path d="M140.903 49.1273C141.159 49.2911 141.373 49.5142 141.525 49.7779C141.676 50.0416 141.763 50.3381 141.776 50.6421C141.776 51.2184 141.38 51.4489 140.903 51.169C140.644 50.9989 140.428 50.7701 140.274 50.5012C140.119 50.2323 140.03 49.9309 140.014 49.6213C140.063 49.045 140.409 48.831 140.903 49.1273Z" fill="#85D4F1"/>
<path d="M146.896 52.6015C147.15 52.7682 147.361 52.9921 147.513 53.2552C147.664 53.5182 147.752 53.8131 147.769 54.1162C147.769 54.6925 147.374 54.923 146.896 54.6431C146.636 54.4729 146.418 54.2445 146.261 53.9759C146.104 53.7073 146.011 53.4059 145.991 53.0954C146.007 52.6015 146.402 52.2886 146.896 52.6015Z" fill="#79D0EF"/>
<path d="M152.89 56.042C153.149 56.2075 153.366 56.4329 153.52 56.6993C153.675 56.9658 153.764 57.2655 153.779 57.5732C153.799 57.6839 153.785 57.7981 153.738 57.9002C153.69 58.0024 153.612 58.0873 153.515 58.1433C153.417 58.1994 153.305 58.2238 153.193 58.2131C153.081 58.2024 152.975 58.1571 152.89 58.0837C152.627 57.9165 152.41 57.6885 152.255 57.419C152.1 57.1495 152.013 56.8465 152 56.5359C152 55.9761 152.396 55.7621 152.89 56.042Z" fill="#6CCCEE"/>
<path d="M128.834 55.9767C129.093 56.1433 129.309 56.369 129.463 56.6352C129.618 56.9014 129.707 57.2006 129.723 57.508C129.723 58.0678 129.328 58.2983 128.834 58.0184C128.574 57.8493 128.358 57.6208 128.203 57.3517C128.049 57.0826 127.96 56.7806 127.945 56.4707C127.945 55.8944 128.357 55.6968 128.834 55.9767Z" fill="#7DD2F0"/>
<path d="M134.844 59.451C135.105 59.6155 135.322 59.8408 135.477 60.1074C135.631 60.3741 135.719 60.6743 135.733 60.9823C135.733 61.5421 135.338 61.7727 134.844 61.4927C134.586 61.3228 134.372 61.0936 134.22 60.8245C134.068 60.5553 133.983 60.2538 133.971 59.945C133.971 59.3852 134.366 59.1876 134.844 59.451Z" fill="#71CEEE"/>
<path d="M140.87 62.9082C141.124 63.0785 141.335 63.3055 141.487 63.5712C141.638 63.8369 141.726 64.1341 141.743 64.4395C141.743 64.9993 141.348 65.2298 140.854 64.9499C140.593 64.7854 140.376 64.5602 140.221 64.2935C140.066 64.0269 139.978 63.7267 139.965 63.4186C139.965 62.8588 140.376 62.6283 140.87 62.9082Z" fill="#65C9ED"/>
<path d="M146.863 66.3828C147.118 66.5485 147.33 66.7722 147.481 67.0355C147.633 67.2987 147.72 67.5941 147.736 67.8975C147.736 68.4738 147.341 68.6878 146.847 68.4244C146.587 68.2553 146.37 68.0268 146.216 67.7577C146.061 67.4886 145.973 67.1866 145.958 66.8767C145.958 66.3169 146.369 66.0864 146.863 66.3828Z" fill="#59C5EB"/>
<path d="M152.857 69.84C153.113 70.0094 153.326 70.2358 153.481 70.5015C153.635 70.7671 153.726 71.0648 153.746 71.3713C153.746 71.9312 153.334 72.1617 152.857 71.8818C152.595 71.7146 152.377 71.4866 152.222 71.2171C152.067 70.9476 151.98 70.6446 151.967 70.334C151.967 69.7907 152.363 69.5601 152.857 69.84Z" fill="#4DC1EA"/>
<path d="M128.851 49.0773C129.111 49.2418 129.328 49.4671 129.483 49.7338C129.638 50.0004 129.726 50.3005 129.74 50.6086C129.74 51.1684 129.345 51.3989 128.851 51.119C128.593 50.949 128.379 50.72 128.227 50.4508C128.075 50.1816 127.99 49.88 127.978 49.5713C127.978 49.0279 128.373 48.7974 128.851 49.0773Z" fill="#8DD7F2"/>
<path d="M134.877 52.6014C135.136 52.768 135.351 52.9936 135.506 53.2599C135.661 53.5261 135.75 53.8252 135.766 54.1327C135.766 54.6925 135.354 54.923 134.86 54.6431C134.603 54.4721 134.39 54.2429 134.238 53.9739C134.087 53.7049 134.001 53.4039 133.988 53.0954C133.988 52.5026 134.383 52.2721 134.877 52.6014Z" fill="#81D3F0"/>
<path d="M140.887 56.026C141.141 56.1918 141.353 56.4155 141.505 56.6787C141.656 56.942 141.744 57.2374 141.759 57.5408C141.759 58.1171 141.364 58.3311 140.87 58.0512C140.611 57.8811 140.395 57.6524 140.241 57.3835C140.086 57.1146 139.997 56.8131 139.981 56.5035C140.063 55.8943 140.393 55.7297 140.887 56.026Z" fill="#75CFEF"/>
<path d="M146.88 59.4843C147.134 59.6511 147.345 59.875 147.496 60.138C147.648 60.4011 147.735 60.696 147.752 60.9991C147.752 61.5753 147.357 61.8059 146.863 61.526C146.606 61.354 146.392 61.1247 146.237 60.8563C146.083 60.5878 145.993 60.2873 145.974 59.9782C145.974 59.4184 146.386 59.1879 146.88 59.4843Z" fill="#69CBED"/>
<path d="M152.873 62.9409C153.132 63.1074 153.348 63.3331 153.502 63.5993C153.657 63.8655 153.746 64.1647 153.762 64.4721C153.783 64.5827 153.768 64.697 153.721 64.7991C153.674 64.9012 153.596 64.9862 153.498 65.0422C153.401 65.0982 153.288 65.1225 153.176 65.1118C153.064 65.1011 152.958 65.056 152.873 64.9825C152.613 64.8134 152.397 64.5848 152.242 64.3157C152.087 64.0466 151.999 63.7447 151.984 63.4348C151.984 62.8914 152.379 62.6609 152.873 62.9409Z" fill="#5CC6EC"/>
<path d="M128.818 62.8754C129.077 63.042 129.292 63.2676 129.447 63.5339C129.601 63.8001 129.691 64.0992 129.707 64.4067C129.707 64.9665 129.312 65.197 128.818 64.9171C128.557 64.7479 128.341 64.5195 128.187 64.2504C128.032 63.9813 127.944 63.6793 127.929 63.3694C127.929 62.826 128.34 62.5955 128.818 62.8754Z" fill="#6ECDEE"/>
<path d="M134.827 66.3336C135.084 66.503 135.297 66.7294 135.451 66.995C135.606 67.2606 135.696 67.5584 135.717 67.8649C135.717 68.4411 135.321 68.6716 134.827 68.3753C134.569 68.2087 134.353 67.9831 134.198 67.7168C134.044 67.4506 133.955 67.1515 133.938 66.844C133.955 66.2842 134.35 66.0702 134.827 66.3336Z" fill="#62C8EC"/>
<path d="M140.837 69.8071C141.096 69.9737 141.312 70.1994 141.466 70.4656C141.621 70.7318 141.71 71.031 141.726 71.3384C141.747 71.449 141.732 71.5633 141.685 71.6654C141.638 71.7675 141.56 71.8526 141.462 71.9086C141.365 71.9646 141.252 71.9889 141.14 71.9782C141.028 71.9675 140.922 71.9223 140.837 71.8488C140.576 71.6843 140.359 71.4591 140.204 71.1925C140.05 70.9258 139.962 70.6256 139.948 70.3176C139.948 69.7577 140.343 69.5272 140.837 69.8071Z" fill="#56C4EB"/>
<path d="M146.83 73.2652C147.089 73.4317 147.305 73.6574 147.46 73.9236C147.614 74.1898 147.703 74.489 147.72 74.7964C147.72 75.3727 147.308 75.5867 146.83 75.3068C146.567 75.1455 146.347 74.9211 146.192 74.6538C146.037 74.3864 145.951 74.0846 145.941 73.7756C145.941 73.2158 146.336 72.9852 146.83 73.2652Z" fill="#4BBFE9"/>
<path d="M152.84 76.7392C153.094 76.9095 153.305 77.1365 153.457 77.4022C153.608 77.6679 153.696 77.9652 153.713 78.2706C153.713 78.8304 153.318 79.0609 152.84 78.781C152.579 78.6117 152.361 78.3835 152.203 78.1147C152.046 77.8459 151.954 77.5441 151.935 77.2333C151.951 76.6735 152.346 76.4593 152.84 76.7392Z" fill="#45B9E8"/>
<path d="M128.801 69.7742C129.06 69.9408 129.276 70.1665 129.43 70.4327C129.585 70.6989 129.674 70.9981 129.69 71.3055C129.69 71.8653 129.279 72.0958 128.785 71.8159C128.531 71.6456 128.32 71.4187 128.168 71.153C128.017 70.8873 127.929 70.59 127.912 70.2847C127.912 69.7084 128.307 69.4943 128.801 69.7742Z" fill="#5EC7EC"/>
<path d="M134.811 73.2316C135.068 73.4036 135.283 73.6327 135.437 73.9012C135.591 74.1697 135.681 74.4701 135.7 74.7792C135.7 75.339 135.305 75.5696 134.811 75.2732C134.551 75.1113 134.335 74.8889 134.18 74.6251C134.025 74.3613 133.937 74.0639 133.922 73.7584C133.922 73.1821 134.333 72.9517 134.811 73.2316Z" fill="#52C3EB"/>
<path d="M140.821 76.7063C141.081 76.8755 141.297 77.1039 141.452 77.373C141.606 77.6421 141.695 77.9441 141.71 78.254C141.71 78.7974 141.298 79.0279 140.821 78.748C140.56 78.5835 140.343 78.3583 140.188 78.0916C140.033 77.825 139.945 77.5248 139.932 77.2167C139.932 76.6569 140.327 76.4264 140.821 76.7063Z" fill="#49BEE9"/>
<path d="M146.814 80.1641C147.074 80.3332 147.29 80.5618 147.445 80.8309C147.6 81.0999 147.688 81.4018 147.703 81.7118C147.703 82.2551 147.291 82.4856 146.814 82.2057C146.55 82.0445 146.331 81.8201 146.176 81.5527C146.02 81.2854 145.934 80.9835 145.925 80.6745C145.925 80.1147 146.32 79.8842 146.814 80.1641Z" fill="#43B7E7"/>
<path d="M152.824 83.6375C153.078 83.8078 153.289 84.0348 153.44 84.3005C153.592 84.5662 153.679 84.8635 153.696 85.1689C153.696 85.7287 153.301 85.9592 152.807 85.6793C152.551 85.5098 152.337 85.2834 152.183 85.0178C152.029 84.7522 151.938 84.4544 151.918 84.1479C151.918 83.5717 152.33 83.3576 152.824 83.6375Z" fill="#3CB1E5"/>
<path d="M128.785 76.657C129.044 76.8235 129.259 77.0492 129.414 77.3154C129.568 77.5817 129.658 77.8808 129.674 78.1882C129.674 78.748 129.262 78.9786 128.768 78.6986C128.514 78.5284 128.303 78.3015 128.152 78.0358C128 77.7701 127.913 77.4728 127.896 77.1674C127.896 76.6076 128.291 76.3771 128.785 76.657Z" fill="#5DC7EC"/>
<path d="M134.794 80.1307C135.053 80.2972 135.269 80.523 135.424 80.7892C135.578 81.0554 135.667 81.3546 135.684 81.662C135.684 82.2218 135.272 82.4523 134.778 82.1724C134.522 82.004 134.31 81.7775 134.158 81.5114C134.006 81.2452 133.92 80.9471 133.905 80.6412C133.905 80.0649 134.3 79.8508 134.794 80.1307Z" fill="#47BBE8"/>
<path d="M140.804 83.5889C141.062 83.7589 141.276 83.988 141.428 84.2572C141.58 84.5264 141.665 84.8278 141.677 85.1366C141.677 85.6799 141.282 85.9104 140.804 85.6305C140.543 85.466 140.326 85.2409 140.171 84.9742C140.017 84.7075 139.929 84.4073 139.915 84.0993C139.915 83.5395 140.31 83.309 140.804 83.5889Z" fill="#40B5E6"/>
<path d="M146.798 87.0622C147.057 87.2265 147.273 87.4521 147.425 87.7191C147.577 87.9861 147.661 88.2863 147.67 88.5935C147.67 89.1533 147.275 89.3673 146.798 89.1039C146.537 88.9394 146.32 88.7142 146.165 88.4476C146.01 88.1809 145.922 87.8807 145.908 87.5727C145.908 86.9964 146.304 86.7659 146.798 87.0622Z" fill="#3AAFE5"/>
<path d="M152.807 90.4709C153.061 90.6411 153.272 90.8681 153.424 91.1338C153.575 91.3995 153.663 91.6967 153.68 92.0021C153.68 92.5619 153.285 92.7924 152.791 92.5125C152.531 92.347 152.315 92.1215 152.16 91.8551C152.005 91.5886 151.917 91.289 151.902 90.9813C151.902 90.4708 152.313 90.2403 152.807 90.4709Z" fill="#34A9E3"/>
<path d="M92.7592 62.7595C93.0133 62.9298 93.2243 63.1568 93.3758 63.4225C93.5272 63.6882 93.6148 63.9854 93.6318 64.2908C93.6318 64.8506 93.2367 65.0811 92.7428 64.8012C92.4857 64.6327 92.2714 64.4066 92.1171 64.1407C91.9627 63.8749 91.8725 63.5768 91.8536 63.27C91.8536 62.7101 92.3147 62.4796 92.7592 62.7595Z" fill="#88D6F1"/>
<path d="M98.7524 66.2343C99.0132 66.3988 99.2304 66.624 99.3853 66.8906C99.5401 67.1573 99.628 67.4575 99.6416 67.7655C99.6621 67.8762 99.6478 67.9904 99.6005 68.0925C99.5533 68.1947 99.4754 68.2796 99.3778 68.3356C99.2802 68.3917 99.1677 68.416 99.0556 68.4053C98.9436 68.3946 98.8377 68.3494 98.7524 68.2759C98.498 68.1047 98.2857 67.8778 98.1317 67.6126C97.9777 67.3473 97.8859 67.0506 97.8634 66.7447C97.8634 66.1849 98.2585 65.9379 98.7524 66.2343Z" fill="#7CD2F0"/>
<path d="M104.762 69.6922C105.019 69.8596 105.232 70.0858 105.384 70.3521C105.536 70.6184 105.622 70.9171 105.635 71.2234C105.635 71.7832 105.24 72.0137 104.746 71.7338C104.487 71.5673 104.271 71.3416 104.117 71.0754C103.962 70.8091 103.873 70.51 103.857 70.2026C103.84 69.6428 104.268 69.4123 104.762 69.6922Z" fill="#70CDEE"/>
<path d="M110.756 73.1663C111.015 73.3318 111.232 73.5572 111.386 73.8237C111.541 74.0901 111.63 74.3898 111.645 74.6975C111.645 75.2573 111.249 75.4878 110.756 75.2079C110.498 75.0415 110.284 74.8155 110.132 74.549C109.98 74.2824 109.895 73.9832 109.883 73.6767C109.883 73.1004 110.262 72.8699 110.756 73.1663Z" fill="#63C9ED"/>
<path d="M116.765 76.6243C117.025 76.7934 117.242 77.0219 117.396 77.291C117.551 77.56 117.639 77.862 117.654 78.172C117.654 78.7154 117.259 78.9458 116.765 78.6659C116.506 78.4994 116.291 78.2737 116.136 78.0075C115.982 77.7413 115.892 77.4421 115.876 77.1347C115.876 76.5749 116.271 76.3444 116.765 76.6243Z" fill="#57C5EB"/>
<path d="M122.758 80.0811C123.019 80.2502 123.235 80.4787 123.389 80.7478C123.544 81.0168 123.633 81.3188 123.648 81.6288C123.648 82.1886 123.252 82.4026 122.758 82.1227C122.515 81.9472 122.315 81.7176 122.175 81.4519C122.035 81.1862 121.959 80.8917 121.952 80.5915C121.952 80.0317 122.265 79.8012 122.758 80.0811Z" fill="#4CC0EA"/>
<path d="M92.7098 76.5745C92.9687 76.7411 93.1844 76.9667 93.339 77.233C93.4936 77.4992 93.5827 77.7983 93.599 78.1058C93.6195 78.2164 93.605 78.3307 93.5578 78.4329C93.5105 78.535 93.4328 78.62 93.3352 78.676C93.2376 78.732 93.125 78.7563 93.013 78.7456C92.901 78.7349 92.795 78.6897 92.7098 78.6162C92.448 78.4527 92.2303 78.2278 92.0753 77.961C91.9203 77.6941 91.8329 77.3933 91.8207 77.0849C91.8207 76.5087 92.2159 76.2946 92.7098 76.5745Z" fill="#69CBED"/>
<path d="M98.7196 80.0163C98.9783 80.1816 99.1928 80.4074 99.3448 80.6741C99.4969 80.9409 99.5818 81.2406 99.5922 81.5475C99.6089 81.6553 99.5928 81.7656 99.5459 81.8641C99.4991 81.9625 99.4237 82.0446 99.3296 82.0996C99.2354 82.1547 99.1269 82.1802 99.0181 82.1728C98.9093 82.1653 98.8053 82.1253 98.7196 82.0579C98.4603 81.8903 98.2435 81.6647 98.0864 81.399C97.9292 81.1332 97.836 80.8346 97.814 80.5267C97.8305 79.9669 98.2092 79.7199 98.7196 80.0163Z" fill="#5DC6EC"/>
<path d="M104.713 83.5067C104.972 83.6732 105.187 83.8989 105.342 84.1651C105.497 84.4313 105.586 84.7305 105.602 85.0379C105.602 85.5977 105.207 85.8282 104.713 85.5483C104.456 85.3798 104.241 85.1537 104.087 84.8879C103.933 84.622 103.843 84.3239 103.824 84.0171C103.84 83.4408 104.219 83.2268 104.713 83.5067Z" fill="#50C2EA"/>
<path d="M110.723 86.9805C110.981 87.1422 111.196 87.3649 111.348 87.629C111.5 87.8932 111.585 88.1906 111.595 88.4953C111.595 89.0716 111.217 89.2856 110.723 89.0057C110.464 88.8428 110.248 88.6202 110.094 88.3566C109.939 88.093 109.85 87.7962 109.833 87.491C109.833 86.9147 110.229 86.7006 110.723 86.9805Z" fill="#49BDE9"/>
<path d="M116.732 90.4707C116.989 90.6392 117.204 90.8654 117.358 91.1312C117.512 91.397 117.603 91.6952 117.621 92.002C117.621 92.5783 117.21 92.7923 116.716 92.5124C116.461 92.3431 116.249 92.1164 116.098 91.8504C115.946 91.5845 115.859 91.2868 115.843 90.9812C115.843 90.4707 116.238 90.1579 116.732 90.4707Z" fill="#42B6E7"/>
<path d="M122.726 93.8953C122.983 94.0638 123.197 94.2899 123.351 94.5557C123.506 94.8216 123.596 95.1197 123.615 95.4265C123.615 96.0028 123.203 96.2168 122.709 95.9369C122.452 95.7695 122.239 95.5433 122.087 95.277C121.936 95.0107 121.85 94.7119 121.836 94.4057C121.836 93.8459 122.232 93.6154 122.726 93.8953Z" fill="#3BB0E5"/>
<path d="M92.7428 69.6758C92.9968 69.8461 93.2079 70.073 93.3593 70.3387C93.5107 70.6045 93.5983 70.9016 93.6154 71.207C93.6154 71.7833 93.2202 71.9973 92.7263 71.7174C92.4692 71.5489 92.255 71.3228 92.1006 71.057C91.9463 70.7911 91.8561 70.493 91.8372 70.1862C91.8372 69.6099 92.3147 69.3794 92.7428 69.6758Z" fill="#77D0EF"/>
<path d="M98.7361 73.133C98.9969 73.2975 99.2139 73.5227 99.3688 73.7894C99.5236 74.056 99.6116 74.3562 99.6251 74.6643C99.6414 74.7736 99.6239 74.8853 99.575 74.9844C99.5261 75.0835 99.4482 75.1652 99.3516 75.2189C99.255 75.2726 99.1443 75.2956 99.0343 75.2847C98.9244 75.2739 98.8203 75.2297 98.7361 75.1582C98.4775 74.9953 98.2617 74.7727 98.107 74.5091C97.9523 74.2455 97.8631 73.9487 97.8469 73.6435C97.8469 73.0837 98.2256 72.8366 98.7361 73.133Z" fill="#6CCCEE"/>
<path d="M104.746 76.6079C105.003 76.7753 105.216 77.0015 105.368 77.2678C105.519 77.5342 105.605 77.8329 105.618 78.1391C105.618 78.7154 105.223 78.9295 104.729 78.6496C104.473 78.4801 104.26 78.2537 104.105 77.9881C103.951 77.7225 103.86 77.4248 103.84 77.1183C103.84 76.542 104.252 76.3115 104.746 76.6079Z" fill="#61C8EC"/>
<path d="M110.739 80.0648C110.998 80.2349 111.214 80.4637 111.368 80.7326C111.523 81.0015 111.612 81.3029 111.628 81.6125C111.628 82.1723 111.233 82.4028 110.739 82.1065C110.482 81.9415 110.268 81.7185 110.114 81.4554C109.959 81.1922 109.869 80.8963 109.85 80.5917C109.85 80.0154 110.245 79.7849 110.739 80.0648Z" fill="#55C4EB"/>
<path d="M116.749 83.5387C117.008 83.7053 117.223 83.9309 117.378 84.1972C117.533 84.4634 117.622 84.7625 117.638 85.07C117.638 85.6462 117.226 85.8604 116.732 85.5805C116.478 85.4102 116.267 85.1832 116.116 84.9175C115.964 84.6518 115.877 84.3545 115.86 84.0491C115.86 83.4893 116.255 83.2424 116.749 83.5387Z" fill="#4ABEE9"/>
<path d="M122.742 86.9965C123.001 87.163 123.217 87.3887 123.371 87.6549C123.526 87.9212 123.615 88.2203 123.631 88.5277C123.631 89.104 123.219 89.3181 122.726 89.0381C122.471 88.8679 122.261 88.6409 122.109 88.3752C121.958 88.1095 121.87 87.8123 121.853 87.5069C121.853 86.9471 122.248 86.7001 122.742 86.9965Z" fill="#44B9E7"/>
<path d="M92.6933 83.473C92.9519 83.636 93.1677 83.8585 93.3224 84.1221C93.4771 84.3857 93.5663 84.6826 93.5825 84.9878C93.5825 85.5641 93.1708 85.7781 92.6933 85.4982C92.4325 85.3337 92.2155 85.1085 92.0606 84.8419C91.9058 84.5752 91.8179 84.275 91.8043 83.967C91.8043 83.3907 92.1994 83.1767 92.6933 83.473Z" fill="#59C5EB"/>
<path d="M98.7031 86.915C98.9599 87.0823 99.173 87.3086 99.3247 87.5749C99.4765 87.8412 99.5625 88.1399 99.5757 88.4462C99.5962 88.5568 99.5818 88.6711 99.5346 88.7732C99.4873 88.8753 99.4096 88.9603 99.312 89.0163C99.2144 89.0723 99.1018 89.0967 98.9898 89.086C98.8778 89.0753 98.7718 89.0301 98.6866 88.9566C98.4321 88.7854 98.2199 88.5585 98.0658 88.2932C97.9118 88.028 97.8201 87.7313 97.7975 87.4254C97.7975 86.8656 98.1927 86.6186 98.7031 86.915Z" fill="#4DC1EA"/>
<path d="M104.696 90.4706C104.955 90.6335 105.171 90.8561 105.325 91.1197C105.48 91.3833 105.569 91.6801 105.585 91.9854C105.585 92.5616 105.19 92.7757 104.696 92.4958C104.439 92.3273 104.225 92.1011 104.071 91.8353C103.916 91.5695 103.826 91.2713 103.807 90.9645C103.84 90.3224 104.202 90.1084 104.696 90.4706Z" fill="#46BBE8"/>
<path d="M110.706 93.8633C110.964 94.0296 111.178 94.2557 111.33 94.5222C111.482 94.7887 111.567 95.0879 111.579 95.3945C111.579 95.9543 111.184 96.1848 110.69 95.8884C110.435 95.7226 110.223 95.499 110.072 95.2357C109.92 94.9725 109.833 94.6771 109.817 94.3737C109.817 93.7645 110.212 93.5834 110.706 93.8633Z" fill="#40B5E6"/>
<path d="M116.699 97.3364C116.96 97.4973 117.177 97.7194 117.332 97.9834C117.487 98.2474 117.575 98.5454 117.588 98.8513C117.588 99.4276 117.193 99.6416 116.699 99.3617C116.442 99.1953 116.228 98.9693 116.076 98.7028C115.924 98.4362 115.839 98.1369 115.827 97.8304C115.827 97.2706 116.205 97.0565 116.699 97.3364Z" fill="#3AAFE4"/>
<path d="M122.693 100.795C122.955 100.957 123.174 101.182 123.329 101.449C123.484 101.716 123.571 102.017 123.582 102.326C123.582 102.886 123.187 103.1 122.693 102.82C122.434 102.654 122.219 102.429 122.067 102.162C121.915 101.895 121.83 101.595 121.82 101.289C121.82 100.729 122.199 100.498 122.693 100.795Z" fill="#34A9E3"/>
<path d="M92.6769 90.3553C92.9336 90.5227 93.1468 90.7489 93.2986 91.0152C93.4504 91.2816 93.5364 91.5803 93.5496 91.8865C93.5496 92.4628 93.1543 92.6768 92.6769 92.3969C92.4131 92.2357 92.1937 92.0113 92.0385 91.7439C91.8833 91.4766 91.7971 91.1747 91.7878 90.8657C91.7878 90.2894 92.1829 90.0754 92.6769 90.3553Z" fill="#4BBFE9"/>
<path d="M98.6866 93.7638C98.9415 93.9332 99.1533 94.1599 99.3048 94.4258C99.4564 94.6917 99.5435 94.9894 99.5593 95.2951C99.5593 95.8549 99.1476 96.0689 98.6701 95.789C98.4143 95.6231 98.2007 95.3999 98.0464 95.1369C97.892 94.8739 97.8012 94.5785 97.781 94.2742C97.781 93.7638 98.1762 93.5333 98.6866 93.7638Z" fill="#44B9E8"/>
<path d="M104.68 97.2872C104.937 97.4557 105.151 97.6818 105.306 97.9477C105.46 98.2135 105.55 98.5116 105.569 98.8184C105.569 99.3947 105.174 99.6252 104.68 99.3289C104.421 99.1623 104.205 98.9366 104.051 98.6704C103.896 98.4042 103.807 98.105 103.791 97.7976C103.84 97.2213 104.186 97.0567 104.68 97.2872Z" fill="#3EB3E6"/>
<path d="M110.69 100.762C110.947 100.928 111.161 101.154 111.313 101.421C111.465 101.687 111.551 101.986 111.562 102.293C111.562 102.853 111.167 103.083 110.673 102.803C110.416 102.636 110.203 102.41 110.051 102.143C109.9 101.877 109.814 101.578 109.801 101.272C109.801 100.696 110.196 100.482 110.69 100.762Z" fill="#38ADE4"/>
<path d="M116.683 104.219C116.94 104.387 117.154 104.613 117.309 104.879C117.463 105.145 117.553 105.443 117.572 105.75C117.572 106.326 117.177 106.557 116.683 106.261C116.423 106.095 116.207 105.87 116.052 105.603C115.897 105.337 115.809 105.037 115.794 104.729C115.81 104.169 116.189 103.939 116.683 104.219Z" fill="#31A6E2"/>
<path d="M122.676 107.693C122.935 107.856 123.15 108.079 123.305 108.342C123.46 108.606 123.549 108.903 123.565 109.208C123.565 109.784 123.17 110.015 122.676 109.735C122.417 109.565 122.201 109.336 122.047 109.067C121.892 108.798 121.803 108.497 121.787 108.187C121.787 107.627 122.182 107.397 122.676 107.693Z" fill="#2BA0E0"/>
<path d="M128.752 83.5554C129.013 83.7211 129.231 83.9462 129.388 84.2124C129.546 84.4785 129.638 84.7781 129.657 85.0867C129.657 85.6465 129.246 85.877 128.752 85.5971C128.498 85.4268 128.287 85.1999 128.135 84.9342C127.984 84.6685 127.896 84.3712 127.879 84.0659C127.879 83.506 128.274 83.2755 128.752 83.5554Z" fill="#5CC2EB"/>
<path d="M134.778 87.0132C135.035 87.1852 135.25 87.4143 135.404 87.6828C135.558 87.9513 135.648 88.2519 135.667 88.5609C135.667 89.1207 135.256 89.3512 134.762 89.0548C134.504 88.8921 134.29 88.6691 134.138 88.4052C133.986 88.1413 133.901 87.8443 133.889 87.54C133.889 86.9637 134.284 86.7497 134.778 87.0132Z" fill="#3FB4E6"/>
<path d="M140.788 90.4716C141.044 90.6435 141.256 90.873 141.408 91.1418C141.559 91.4106 141.646 91.7111 141.66 92.0193C141.66 92.5627 141.265 92.7931 140.788 92.5132C140.525 92.3496 140.305 92.125 140.148 91.8584C139.99 91.5919 139.899 91.2912 139.882 90.982C139.899 90.4716 140.294 90.2081 140.788 90.4716Z" fill="#39AEE4"/>
<path d="M146.781 93.9451C147.037 94.117 147.25 94.3466 147.401 94.6154C147.553 94.8842 147.639 95.1846 147.654 95.4928C147.654 96.0526 147.259 96.2666 146.765 95.9867C146.506 95.8202 146.29 95.5945 146.135 95.3283C145.981 95.0621 145.892 94.7629 145.875 94.4555C145.875 93.8957 146.287 93.6652 146.781 93.9451Z" fill="#32A8E2"/>
<path d="M152.774 97.419C153.033 97.5855 153.249 97.8113 153.403 98.0775C153.558 98.3438 153.647 98.6429 153.663 98.9503C153.684 99.061 153.67 99.1752 153.622 99.2773C153.575 99.3795 153.497 99.4644 153.4 99.5204C153.302 99.5765 153.189 99.6008 153.077 99.5901C152.965 99.5794 152.859 99.5342 152.774 99.4607C152.514 99.2952 152.298 99.0697 152.143 98.8033C151.989 98.5369 151.9 98.2372 151.885 97.9295C151.885 97.3532 152.28 97.1391 152.774 97.419Z" fill="#2BA1E0"/>
<path d="M128.719 97.3698C128.979 97.5353 129.195 97.7608 129.35 98.0272C129.504 98.2937 129.593 98.5933 129.608 98.901C129.608 99.4608 129.213 99.6749 128.719 99.395C128.46 99.232 128.245 99.0094 128.09 98.7459C127.935 98.4823 127.846 98.1854 127.83 97.8802C127.83 97.3039 128.241 97.057 128.719 97.3698Z" fill="#35AAE3"/>
<path d="M134.729 100.844C134.988 101.009 135.205 101.235 135.36 101.501C135.514 101.767 135.603 102.067 135.618 102.375C135.618 102.935 135.223 103.149 134.729 102.869C134.469 102.703 134.252 102.478 134.098 102.211C133.943 101.945 133.854 101.645 133.839 101.337C133.856 100.778 134.251 100.564 134.729 100.844Z" fill="#2FA4E1"/>
<path d="M140.738 104.318C140.997 104.481 141.213 104.704 141.367 104.967C141.522 105.231 141.611 105.528 141.627 105.833C141.627 106.409 141.216 106.623 140.738 106.343C140.478 106.179 140.26 105.953 140.106 105.687C139.951 105.42 139.863 105.12 139.849 104.812C139.849 104.236 140.244 104.022 140.738 104.318Z" fill="#289EDF"/>
<path d="M146.732 107.776C146.99 107.939 147.206 108.162 147.361 108.425C147.515 108.689 147.605 108.986 147.621 109.291C147.621 109.867 147.209 110.081 146.732 109.801C146.47 109.638 146.252 109.413 146.097 109.146C145.942 108.879 145.855 108.578 145.843 108.27C145.843 107.71 146.238 107.48 146.732 107.776Z" fill="#2197DD"/>
<path d="M152.741 111.233C152.999 111.4 153.213 111.626 153.365 111.892C153.517 112.159 153.602 112.458 153.614 112.765C153.614 113.325 153.219 113.539 152.741 113.259C152.481 113.098 152.264 112.876 152.109 112.612C151.954 112.348 151.866 112.05 151.852 111.744C151.852 111.168 152.247 110.954 152.741 111.233Z" fill="#1B92DC"/>
<path d="M128.735 90.4706C128.995 90.6407 129.21 90.8694 129.365 91.1383C129.519 91.4072 129.608 91.7087 129.624 92.0183C129.624 92.5781 129.229 92.8086 128.735 92.5122C128.481 92.3445 128.269 92.1207 128.115 91.8581C127.961 91.5955 127.869 91.3011 127.846 90.9975C127.863 90.4706 128.258 90.1742 128.735 90.4706Z" fill="#3DB2E6"/>
<path d="M134.745 93.9288C135.007 94.0971 135.226 94.3251 135.384 94.5941C135.541 94.8631 135.632 95.1654 135.651 95.4765C135.651 96.0363 135.239 96.2505 134.745 95.9706C134.49 95.8058 134.277 95.5823 134.125 95.3189C133.973 95.0554 133.887 94.7594 133.872 94.4557C133.872 93.8794 134.268 93.6489 134.745 93.9288Z" fill="#37ACE4"/>
<path d="M140.771 97.4022C141.025 97.5725 141.236 97.7994 141.388 98.0651C141.539 98.3308 141.627 98.6281 141.644 98.9335C141.644 99.5097 141.249 99.7238 140.755 99.4439C140.495 99.2783 140.279 99.0529 140.124 98.7864C139.969 98.52 139.881 98.2204 139.866 97.9126C139.866 97.3528 140.277 97.0565 140.771 97.4022Z" fill="#30A6E2"/>
<path d="M146.765 100.86C147.019 101.03 147.23 101.257 147.381 101.523C147.533 101.789 147.62 102.086 147.637 102.391C147.637 102.968 147.242 103.182 146.748 102.902C146.49 102.734 146.275 102.508 146.121 102.242C145.966 101.976 145.877 101.678 145.859 101.371C145.859 100.811 146.271 100.58 146.765 100.86Z" fill="#2AA0E0"/>
<path d="M152.758 104.335C153.018 104.5 153.234 104.726 153.389 104.992C153.543 105.259 153.632 105.558 153.647 105.866C153.667 105.977 153.653 106.091 153.606 106.193C153.559 106.295 153.481 106.38 153.383 106.436C153.286 106.492 153.173 106.516 153.061 106.506C152.949 106.495 152.843 106.45 152.758 106.376C152.501 106.208 152.287 105.982 152.132 105.716C151.978 105.45 151.888 105.152 151.869 104.845C151.869 104.269 152.264 104.038 152.758 104.335Z" fill="#2399DE"/>
<path d="M128.702 104.252C128.961 104.418 129.177 104.644 129.332 104.91C129.486 105.176 129.575 105.475 129.592 105.783C129.592 106.359 129.196 106.573 128.702 106.277C128.444 106.114 128.228 105.891 128.073 105.628C127.919 105.364 127.829 105.067 127.813 104.762C127.813 104.186 128.225 103.972 128.702 104.252Z" fill="#2CA2E1"/>
<path d="M134.712 107.726C134.972 107.892 135.188 108.117 135.343 108.384C135.498 108.65 135.586 108.95 135.601 109.258C135.601 109.817 135.206 110.048 134.712 109.752C134.455 109.587 134.241 109.364 134.087 109.1C133.932 108.837 133.842 108.541 133.823 108.237C133.823 107.661 134.235 107.446 134.712 107.726Z" fill="#269CDF"/>
<path d="M140.722 111.2C140.981 111.363 141.196 111.585 141.351 111.849C141.506 112.113 141.595 112.409 141.611 112.715C141.611 113.291 141.199 113.505 140.722 113.225C140.462 113.06 140.246 112.834 140.091 112.568C139.936 112.301 139.848 112.002 139.833 111.694C139.833 111.134 140.228 110.904 140.722 111.2Z" fill="#1F96DD"/>
<path d="M146.649 114.658C146.909 114.823 147.126 115.049 147.28 115.315C147.435 115.582 147.523 115.881 147.538 116.189C147.538 116.749 147.127 116.963 146.649 116.683C146.388 116.519 146.17 116.295 146.015 116.028C145.86 115.761 145.772 115.46 145.76 115.152C145.826 114.592 146.221 114.378 146.649 114.658Z" fill="#1990DB"/>
<path d="M152.725 118.116C152.979 118.286 153.19 118.513 153.341 118.779C153.493 119.045 153.58 119.342 153.597 119.647C153.597 120.207 153.202 120.438 152.708 120.158C152.452 119.988 152.239 119.762 152.084 119.496C151.93 119.231 151.839 118.933 151.819 118.626C151.819 118.05 152.231 117.836 152.725 118.116Z" fill="#1289D9"/>
<path d="M128.686 111.151C128.946 111.317 129.162 111.542 129.317 111.809C129.472 112.075 129.56 112.375 129.575 112.683C129.575 113.242 129.163 113.473 128.67 113.193C128.415 113.023 128.204 112.796 128.053 112.53C127.902 112.265 127.814 111.967 127.797 111.662C127.797 111.086 128.192 110.872 128.686 111.151Z" fill="#249ADE"/>
<path d="M134.696 114.625C134.956 114.791 135.172 115.016 135.327 115.283C135.481 115.549 135.57 115.849 135.585 116.156C135.585 116.716 135.19 116.947 134.696 116.667C134.435 116.502 134.218 116.277 134.063 116.01C133.908 115.744 133.82 115.444 133.807 115.135C133.807 114.559 134.218 114.345 134.696 114.625Z" fill="#1E94DD"/>
<path d="M140.705 118.1C140.961 118.266 141.175 118.489 141.329 118.752C141.484 119.015 141.574 119.31 141.595 119.615C141.595 120.191 141.183 120.421 140.705 120.141C140.445 119.972 140.229 119.744 140.074 119.475C139.92 119.206 139.831 118.904 139.816 118.594C139.816 118.034 140.212 117.803 140.705 118.1Z" fill="#178EDB"/>
<path d="M146.649 121.556C146.906 121.72 147.119 121.943 147.271 122.207C147.423 122.47 147.509 122.767 147.522 123.071C147.522 123.647 147.127 123.878 146.649 123.598C146.386 123.432 146.168 123.204 146.013 122.934C145.858 122.665 145.771 122.361 145.76 122.05C145.81 121.49 146.205 121.276 146.649 121.556Z" fill="#1088D9"/>
<path d="M152.708 125.048C152.964 125.216 153.177 125.443 153.328 125.709C153.48 125.975 153.567 126.273 153.581 126.579C153.581 127.139 153.186 127.37 152.692 127.09C152.431 126.925 152.214 126.7 152.059 126.433C151.904 126.167 151.816 125.866 151.803 125.558C151.803 124.949 152.214 124.735 152.708 125.048Z" fill="#0A81D7"/>
<path opacity="0.2" d="M150.171 139.545L90.6212 174.152L30.6822 139.546L90.2322 104.939L150.171 139.545Z" fill="#003067"/>
<path d="M151.162 128.168L90.439 163.456L29.328 128.173L90.05 92.885L151.162 128.168Z" fill="#1B93EB"/>
<path d="M151.162 128.168L151.15 132.274L90.428 167.562L90.439 163.456L151.162 128.168Z" fill="#1F56A3"/>
<path d="M90.439 163.456L90.428 167.562L29.316 132.279L29.328 128.173L90.439 163.456Z" fill="#0078D4"/>
<path opacity="0.75" d="M68.6626 127.25L92.4072 113.126L116.807 127.208L93.0415 141.289L68.6626 127.25Z" stroke="url(#paint2_linear_660_8895)" stroke-width="0.4" stroke-miterlimit="10" stroke-linejoin="round"/>
<path opacity="0.75" d="M70.9461 127.208L92.4495 114.458L114.524 127.208L92.9992 139.978L70.9461 127.208Z" stroke="url(#paint3_linear_660_8895)" stroke-width="0.4" stroke-miterlimit="10" stroke-linejoin="round"/>
<path opacity="0.75" d="M73.2085 127.208L92.4917 115.769L112.282 127.208L93.0203 138.626L73.2085 127.208Z" stroke="url(#paint4_linear_660_8895)" stroke-width="0.4" stroke-miterlimit="10" stroke-linejoin="round"/>
<path opacity="0.75" d="M75.4921 127.208L92.534 117.122L109.999 127.208L92.9569 137.336L75.4921 127.208Z" stroke="url(#paint5_linear_660_8895)" stroke-width="0.4" stroke-miterlimit="10" stroke-linejoin="round"/>
<path opacity="0.75" d="M77.7756 127.208L92.5763 118.433L107.736 127.208L92.9358 135.983L77.7756 127.208Z" stroke="url(#paint6_linear_660_8895)" stroke-width="0.4" stroke-miterlimit="10" stroke-linejoin="round"/>
<path opacity="0.75" d="M80.0168 127.208L92.5763 119.765L105.474 127.208L92.8935 134.629L80.0168 127.208Z" stroke="url(#paint7_linear_660_8895)" stroke-width="0.4" stroke-miterlimit="10" stroke-linejoin="round"/>
<path opacity="0.75" d="M37.7788 127.304L91.9867 95.0593L147.691 127.208L93.4348 159.356L37.7788 127.304Z" stroke="url(#paint8_linear_660_8895)" stroke-width="0.4" stroke-miterlimit="10" stroke-linejoin="round"/>
<path opacity="0.75" d="M42.992 127.208L92.0832 98.1003L142.478 127.208L93.3382 156.363L42.992 127.208Z" stroke="url(#paint9_linear_660_8895)" stroke-width="0.4" stroke-miterlimit="10" stroke-linejoin="round"/>
<path opacity="0.75" d="M48.1569 127.209L92.1797 101.094L137.361 127.209L93.3865 153.275L48.1569 127.209Z" stroke="url(#paint10_linear_660_8895)" stroke-width="0.4" stroke-miterlimit="10" stroke-linejoin="round"/>
<path opacity="0.75" d="M53.3701 127.207L92.2762 104.182L132.148 127.207L93.2417 150.329L53.3701 127.207Z" stroke="url(#paint11_linear_660_8895)" stroke-width="0.4" stroke-miterlimit="10" stroke-linejoin="round"/>
<path opacity="0.75" d="M58.5834 127.208L92.3728 107.175L126.983 127.208L93.1934 147.24L58.5834 127.208Z" stroke="url(#paint12_linear_660_8895)" stroke-width="0.4" stroke-miterlimit="10" stroke-linejoin="round"/>
<path opacity="0.75" d="M63.7001 127.208L92.3728 110.216L121.818 127.208L93.0969 144.151L63.7001 127.208Z" stroke="url(#paint13_linear_660_8895)" stroke-width="0.4" stroke-miterlimit="10" stroke-linejoin="round"/>
<path d="M119.254 81.2627C119.891 81.6769 120.425 82.2308 120.816 82.8823C121.207 83.5339 121.444 84.2659 121.51 85.0229V133.905C121.51 135.258 120.495 135.823 119.216 135.108L57.2865 99.3114C56.6366 98.9078 56.0905 98.3573 55.6922 97.7042C55.2938 97.0511 55.0543 96.3138 54.9929 95.5513V46.6693C54.9929 45.2781 56.0081 44.714 57.2865 45.4661L119.254 81.2627Z" fill="url(#paint14_linear_660_8895)"/>
<path d="M125.27 75.6221L60.7083 38.3589C60.4523 38.2066 60.16 38.1262 59.8622 38.1262C59.5644 38.1262 59.2722 38.2066 59.0163 38.3589L53.7144 41.4423C53.9704 41.29 54.2626 41.2096 54.5604 41.2096C54.8582 41.2096 55.1505 41.29 55.4064 41.4423L118.239 80.3223C119.517 81.0743 119.931 85.0224 119.931 86.5264L122.187 137.401C122.222 137.699 122.174 138.001 122.048 138.273C121.922 138.546 121.723 138.778 121.472 138.943L126.774 135.86C127.024 135.694 127.224 135.462 127.35 135.19C127.476 134.918 127.524 134.616 127.489 134.318V79.7582C127.455 78.9459 127.239 78.1516 126.854 77.4352C126.47 76.7188 125.928 76.099 125.27 75.6221V75.6221Z" fill="url(#paint15_linear_660_8895)"/>
<path d="M100.979 102.996L106.281 99.9128L101.393 102.921L96.0912 106.004L100.979 102.996Z" fill="#0078D4"/>
<path d="M101.28 102.996L95.9784 106.079L101.28 102.996Z" fill="#0078D4"/>
<path d="M118.051 92.43L123.352 89.3467L107.823 98.9351L102.521 102.018L118.051 92.43Z" fill="#0078D4"/>
<path d="M119.968 78.5926C120.654 79.0535 121.225 79.6665 121.636 80.3838C122.047 81.1012 122.287 81.9035 122.337 82.7287V137.288C122.337 138.83 121.247 139.432 119.931 138.68L55.4064 101.417C54.7049 100.969 54.1206 100.36 53.702 99.6401C53.2835 98.9207 53.0428 98.1117 53 97.2804V42.6832C53 41.1792 54.0904 40.5776 55.4064 41.3296L119.968 78.5926ZM118.05 88.6321V85.5488C117.943 84.8843 117.687 84.2525 117.303 83.6995C116.92 83.1464 116.417 82.6862 115.832 82.3527L59.4298 49.4514C58.2642 48.8122 57.3241 49.4514 57.3241 50.5418V53.1363L82.9684 96.8292C84.2993 99.2767 86.2427 101.337 88.6086 102.808H88.7966C89.6223 103.391 90.5929 103.734 91.6014 103.8C92.6099 103.867 93.617 103.653 94.5119 103.184L118.126 88.6321H118.05ZM118.126 130.332V129.129L101.167 102.808L96.2792 105.816C95.1274 106.406 93.8369 106.673 92.5455 106.587C91.254 106.501 90.0103 106.065 88.947 105.327H88.7589C85.7682 103.455 83.2879 100.872 81.5395 97.8069L76.1249 88.5571L57.3241 95.5885C57.4125 96.2463 57.639 96.8777 57.989 97.4415C58.339 98.0054 58.8044 98.4888 59.3547 98.8598L115.832 131.536C116.96 132.212 117.938 131.535 117.938 130.445L118.126 130.332ZM57.249 56.7085V92.2796L74.4328 85.8496L57.3618 56.7085H57.249ZM118.05 125.933V92.4299L102.521 102.056L117.938 125.933" fill="url(#paint16_linear_660_8895)"/>
<path opacity="0.2" d="M98.5713 146.973L80.1284 144.152L85.7171 140.879L47.1014 118.471C46.3563 118.045 46.3563 116.954 47.1014 116.528C47.7401 116.182 48.4853 116.182 49.124 116.528L88.4051 139.309L93.568 136.275L98.5713 146.973Z" fill="#1F1D21"/>
<path d="M98.0657 144.365L79.6228 141.544L85.2116 138.271L46.5959 115.863C45.8507 115.437 45.8507 114.346 46.5959 113.92C47.2346 113.574 47.9798 113.574 48.6185 113.92L87.8995 136.674L93.0625 133.667L98.0657 144.365Z" fill="white"/>
<defs>
<linearGradient id="paint0_linear_660_8895" x1="90.7755" y1="9.63037" x2="90.7755" y2="181.03" gradientUnits="userSpaceOnUse">
<stop stop-color="#00ABDE"/>
<stop offset="1" stop-color="#007ED8"/>
</linearGradient>
<linearGradient id="paint1_linear_660_8895" x1="36.8953" y1="4.42169" x2="203.573" y2="286.752" gradientUnits="userSpaceOnUse">
<stop stop-color="#007ED8"/>
<stop offset="0.7065" stop-color="#002D4C"/>
</linearGradient>
<linearGradient id="paint2_linear_660_8895" x1="86.5074" y1="116.44" x2="98.9414" y2="137.976" gradientUnits="userSpaceOnUse">
<stop stop-color="#50E6FF"/>
<stop offset="1" stop-color="#0078D4"/>
</linearGradient>
<linearGradient id="paint3_linear_660_8895" x1="87.1071" y1="117.46" x2="98.3741" y2="136.975" gradientUnits="userSpaceOnUse">
<stop stop-color="#50E6FF"/>
<stop offset="1" stop-color="#0078D4"/>
</linearGradient>
<linearGradient id="paint4_linear_660_8895" x1="87.6966" y1="118.449" x2="97.8058" y2="135.959" gradientUnits="userSpaceOnUse">
<stop stop-color="#50E6FF"/>
<stop offset="1" stop-color="#0078D4"/>
</linearGradient>
<linearGradient id="paint5_linear_660_8895" x1="88.2882" y1="119.473" x2="97.2303" y2="134.961" gradientUnits="userSpaceOnUse">
<stop stop-color="#50E6FF"/>
<stop offset="1" stop-color="#0078D4"/>
</linearGradient>
<linearGradient id="paint6_linear_660_8895" x1="88.8636" y1="120.47" x2="96.6386" y2="133.937" gradientUnits="userSpaceOnUse">
<stop stop-color="#50E6FF"/>
<stop offset="1" stop-color="#0078D4"/>
</linearGradient>
<linearGradient id="paint7_linear_660_8895" x1="89.4319" y1="121.486" x2="96.0413" y2="132.934" gradientUnits="userSpaceOnUse">
<stop stop-color="#50E6FF"/>
<stop offset="1" stop-color="#0078D4"/>
</linearGradient>
<linearGradient id="paint8_linear_660_8895" x1="78.5176" y1="102.625" x2="106.904" y2="151.792" gradientUnits="userSpaceOnUse">
<stop stop-color="#50E6FF"/>
<stop offset="1" stop-color="#0078D4"/>
</linearGradient>
<linearGradient id="paint9_linear_660_8895" x1="79.8869" y1="104.954" x2="105.609" y2="149.505" gradientUnits="userSpaceOnUse">
<stop stop-color="#50E6FF"/>
<stop offset="1" stop-color="#0078D4"/>
</linearGradient>
<linearGradient id="paint10_linear_660_8895" x1="81.2326" y1="107.212" x2="104.311" y2="147.186" gradientUnits="userSpaceOnUse">
<stop stop-color="#50E6FF"/>
<stop offset="1" stop-color="#0078D4"/>
</linearGradient>
<linearGradient id="paint11_linear_660_8895" x1="82.5831" y1="109.55" x2="102.997" y2="144.909" gradientUnits="userSpaceOnUse">
<stop stop-color="#50E6FF"/>
<stop offset="1" stop-color="#0078D4"/>
</linearGradient>
<linearGradient id="paint12_linear_660_8895" x1="83.8969" y1="111.826" x2="101.647" y2="142.569" gradientUnits="userSpaceOnUse">
<stop stop-color="#50E6FF"/>
<stop offset="1" stop-color="#0078D4"/>
</linearGradient>
<linearGradient id="paint13_linear_660_8895" x1="85.1943" y1="114.147" x2="100.283" y2="140.282" gradientUnits="userSpaceOnUse">
<stop stop-color="#50E6FF"/>
<stop offset="1" stop-color="#0078D4"/>
</linearGradient>
<linearGradient id="paint14_linear_660_8895" x1="71.6503" y1="-4.28072" x2="283.503" y2="326.79" gradientUnits="userSpaceOnUse">
<stop offset="0.0435" stop-color="white"/>
<stop offset="0.4857" stop-color="#4DC1EA"/>
<stop offset="0.8452" stop-color="#0078D4"/>
</linearGradient>
<linearGradient id="paint15_linear_660_8895" x1="90.6072" y1="38.1262" x2="90.6072" y2="138.943" gradientUnits="userSpaceOnUse">
<stop stop-color="#008BF1"/>
<stop offset="0.22" stop-color="#0086EC"/>
<stop offset="0.49" stop-color="#0078DD"/>
<stop offset="0.79" stop-color="#0061C4"/>
<stop offset="1" stop-color="#004DAE"/>
</linearGradient>
<linearGradient id="paint16_linear_660_8895" x1="87.6686" y1="41.0059" x2="87.6686" y2="139.003" gradientUnits="userSpaceOnUse">
<stop stop-color="#008BF1"/>
<stop offset="0.22" stop-color="#0086EC"/>
<stop offset="0.49" stop-color="#0078DD"/>
<stop offset="0.79" stop-color="#0061C4"/>
<stop offset="1" stop-color="#004DAE"/>
</linearGradient>
</defs>
</svg>
