<?xml version="1.0" encoding="UTF-8"?>
<svg width="100px" height="100px" viewBox="0 0 100 100" version="1.1" xmlns="http://www.w3.org/2000/svg" xmlns:xlink="http://www.w3.org/1999/xlink">
    <!-- Generator: Sketch 55.2 (78181) - https://sketchapp.com -->
    <title>Modern your enterprise deployment with Microsoft 365/troubleshoot-modern-management-in-microsoft-365</title>
    <desc>Created with Sketch.</desc>
    <defs>
        <rect id="path-1" x="0" y="0" width="96" height="96" rx="48"></rect>
        <filter x="-6.7%" y="-7.8%" width="113.3%" height="115.7%" filterUnits="objectBoundingBox" id="filter-3">
            <feOffset dx="0" dy="2" in="SourceAlpha" result="shadowOffsetOuter1"></feOffset>
            <feColorMatrix values="0 0 0 0 0   0 0 0 0 0   0 0 0 0 0  0 0 0 0.0964956975 0" type="matrix" in="shadowOffsetOuter1" result="shadowMatrixOuter1"></feColorMatrix>
            <feMerge>
                <feMergeNode in="shadowMatrixOuter1"></feMergeNode>
                <feMergeNode in="SourceGraphic"></feMergeNode>
            </feMerge>
        </filter>
    </defs>
    <g id="Badges" stroke="none" stroke-width="1" fill="none" fill-rule="evenodd">
        <g id="Modern-your-enterprise-deployment-with-Microsoft-365-1" transform="translate(-50.000000, -1060.000000)">
            <g id="Modern-your-enterprise-deployment-with-Microsoft-365/troubleshoot-modern-management-in-microsoft-365" transform="translate(50.000000, 1060.000000)">
                <g id="Mask" transform="translate(2.000000, 2.000000)">
                    <mask id="mask-2" fill="white">
                        <use xlink:href="#path-1"></use>
                    </mask>
                    <use id="BG" fill="#55A2FF" xlink:href="#path-1"></use>
                    <g id="Monitor" filter="url(#filter-3)" mask="url(#mask-2)">
                        <g transform="translate(17.000000, 23.000000)">
                            <path d="M0.714285714,33 L0.714285714,38.4 C0.714285714,40.38 2.37366071,42 4.40178571,42 L56.0267857,42 C58.0549107,42 59.7142857,40.38 59.7142857,38.4 L59.7142857,33 L0.714285714,33" id="Fill-1285" fill="#E1E4E1"></path>
                            <path d="M5.625,0 C3.63125,0 2,1.65 2,3.66666667 L2,33 L60,33 L60,3.66666667 C60,1.65 58.36875,0 56.375,0 L5.625,0 Z M56.2,2 C57.1927,2 58,2.81290625 58,3.8125 L58,31 L4,31 L4,3.8125 C4,2.81290625 4.8073,2 5.8,2 L56.2,2 L56.2,2 Z" id="Fill-1287" fill="#182A37"></path>
                            <path d="M3,3.875 C3,2.8409375 3.82225,2 4.83333333,2 L56.1666667,2 C57.17775,2 58,2.8409375 58,3.875 L58,32 L3,32 L3,3.875" id="Fill-1288" fill="#30404D"></path>
                            <path d="M4.83742216,2 L30,2 L21.016843,32 L3,32 L3,3.875 C3,2.8409375 3.82408384,2 4.83742216,2" id="Fill-1289" fill="#384B58"></path>
                            <path d="M30,0 L29.4462813,1.83333333 L4.625,1.83333333 C3.62540625,1.83333333 2.8125,2.65558333 2.8125,3.66666667 L2.8125,32.0547802 L20.5849688,32.0547802 L20.03125,33 L1,33 L1,3.66666667 C1,1.65 2.63125,0 4.625,0 L30,0 Z" id="Fill-1290" fill="#30404D"></path>
                            <polyline id="Fill-1291" fill="#E1E4E1" points="37.7142857 50 22.7142857 50 24.5892857 42 35.8392857 42 37.7142857 50"></polyline>
                            <path d="M37.6678617,50 L35.867931,42 L24.4004846,42 L24,43.7777778 L28.0003461,43.7777778 C28.9948079,43.7777778 29.8002769,44.5733333 29.8002769,45.5555556 L29.8002769,50 L37,50" id="Fill-1292" fill="#CDD6D8"></path>
                            <path d="M40.7142857,50 C40.7142857,50.55 40.3017857,51 39.797619,51 L19.6309524,51 C19.1267857,51 18.7142857,50.55 18.7142857,50 C18.7142857,49.45 19.1267857,49 19.6309524,49 L39.797619,49 C40.3017857,49 40.7142857,49.45 40.7142857,50" id="Fill-1293" fill="#E1E4E1"></path>
                            <path d="M19.6309524,51 L39.797619,51 C40.3017857,51 40.7142857,50.55 40.7142857,50 L18.7142857,50 C18.7142857,50.55 19.1267857,51 19.6309524,51" id="Fill-1294" fill="#CDD6D8"></path>
                        </g>
                    </g>
                    <g id="Group-3" mask="url(#mask-2)">
                        <g transform="translate(52.000000, 42.000000)">
                            <circle id="Oval" fill="#EAECEE" cx="10.5" cy="10.5" r="9.5"></circle>
                            <g id="Mag" stroke-width="1" fill="none">
                                <path d="M1.85952331,10.2265154 C1.85952331,5.61296242 5.61111158,1.85936643 10.2273782,1.85936643 C14.838996,1.85936643 18.5952331,5.61296242 18.5952331,10.2265154 C18.5952331,14.8400683 14.838996,18.5936643 10.2273782,18.5936643 C5.61111158,18.5936643 1.85952331,14.8400683 1.85952331,10.2265154 Z M22.04,20.7254279 L18.0838642,16.766372 C19.5621852,14.9925364 20.4547564,12.7120235 20.4547564,10.2265154 C20.4547564,4.58752183 15.8663826,0 10.2273782,0 C4.58837376,0 0,4.58752183 0,10.2265154 C0,15.8655089 4.58837376,20.4530308 10.2273782,20.4530308 C12.7144906,20.4530308 14.9924067,19.5609997 16.7682514,18.080944 L20.7290361,22.04 L22.04,20.7254279 L22.04,20.7254279 Z" id="Fill-1292" fill="#30404D"></path>
                                <path d="M28.71,24.7341 C29.0966667,25.1202833 29.0966667,25.7529667 28.71,26.1396333 L26.1386667,28.71 C25.752,29.0966667 25.1188333,29.0966667 24.7321667,28.71 L17.69,21.6659 C17.3033333,21.2797167 17.3033333,20.6470333 17.69,20.2603667 L20.2613333,17.69 C20.648,17.3033333 21.2811667,17.3033333 21.6678333,17.69 L28.71,24.7341" id="Fill-1296" fill="#DF5142"></path>
                                <path d="M28.7992799,24.7297115 L27.4813304,26.0606976 C27.0977481,26.4488604 26.4781151,26.4488604 26.0945328,26.0606976 L20.1047472,20.0111221 C19.7211649,19.6229593 19.1015319,19.6229593 18.7179495,20.0111221 L17.4,21.3421083 C17.4,21.3505574 17.4,21.3550305 17.4,21.3634796 L24.6585579,28.7017955 C25.0519757,29.0994015 25.6961973,29.0994015 26.089615,28.7017955 L28.7058432,26.0587095 C29.0648369,25.6973851 29.0943433,25.1288085 28.7992799,24.7297115" id="Fill-1297" fill="#C2423D"></path>
                            </g>
                        </g>
                    </g>
                    <g id="imperative" mask="url(#mask-2)">
                        <g transform="translate(57.000000, 46.000000)">
                            <path d="M4.62574361,1.57441843 L0.824861289,8.41929742 C0.556746657,8.90213589 0.730814721,9.51090366 1.21365319,9.77901829 C1.36216759,9.86148662 1.52924257,9.9047619 1.69911768,9.9047619 L9.30088232,9.9047619 C9.85316707,9.9047619 10.3008823,9.45704665 10.3008823,8.9047619 C10.3008823,8.7348868 10.257607,8.56781181 10.1751387,8.41929742 L6.37425639,1.57441843 C6.10614176,1.09157996 5.49737399,0.917511897 5.01453551,1.18562653 C4.85115564,1.27634949 4.71646657,1.41103855 4.62574361,1.57441843 Z" id="Path-112" fill="#DF5142"></path>
                            <path d="M5.44767129,1.06606593 C5.79883214,1.06638482 6.13935722,1.25199851 6.32192768,1.5807834 L10.12281,8.42566239 C10.2052783,8.57417678 10.2485536,8.74125177 10.2485536,8.91112687 C10.2485536,9.46341162 9.80083836,9.91112687 9.24855361,9.91112687 L5.44767129,9.91112687 L5.44767129,1.06606593 Z" id="Combined-Shape" fill="#C2423D"></path>
                            <g id="exclamation" stroke-width="1" fill="none" transform="translate(4.897671, 3.376046)">
                                <path d="M1.1699375,5.34292208 C1.1699375,5.61965571 0.953875,5.84414273 0.68726875,5.84414273 C0.4206625,5.84414273 0.20484375,5.61991545 0.20484375,5.34292208 C0.20484375,5.06592857 0.4206625,4.84144805 0.68726875,4.84144805 C0.95386875,4.8417013 1.1699375,5.06592857 1.1699375,5.34292208 Z" id="Fill-1" fill="#FFFFFF"></path>
                                <path d="M1.3503125,0.666623377 C1.33834937,0.524071429 1.2856125,0.38988961 1.20505,0.280058442 C1.082,0.11162987 0.8940125,-0.000227272727 0.687475,2.55157578e-05 C0.4870375,-0.000227922078 0.304175,0.105038961 0.181125,0.264837662 C0.0942125,0.377461039 0.03708125,0.517474026 0.02463125,0.66637013 C0.021213125,0.705686364 0.02170125,0.748298701 0.02463125,0.786603896 L0.29904375,4.05238312 C0.307344375,4.15105195 0.3490925,4.23805844 0.41135,4.30274026 C0.4826375,4.37680519 0.58078125,4.42195455 0.687475,4.42170261 C0.783425,4.42195519 0.872775,4.38542922 0.94138125,4.32404545 C1.01584375,4.25759091 1.066625,4.16196104 1.0759,4.05212987 L1.3503125,0.786350649 C1.3532425,0.748556494 1.35348625,0.705941558 1.3503125,0.666623377 Z" id="Fill-2" fill="#FFFFFF"></path>
                            </g>
                        </g>
                    </g>
                    <path d="M20,47.0614627 L27.1846661,47.0614627 L31.5685268,40.6729921 C31.8810144,40.2176131 32.5034932,40.1017768 32.9588721,40.4142644 C33.0911728,40.5050511 33.1996847,40.6263407 33.2752445,40.7678907 L38.7221497,50.9718703 C38.9822262,51.4590855 39.5880258,51.6432178 40.0752411,51.3831413 C40.2785082,51.2746369 40.4380694,51.0992668 40.5269455,50.8866832 L43.6846503,43.3337399 C43.8976792,42.824194 44.483442,42.5838194 44.9929879,42.7968484 C45.2084327,42.8869207 45.3855622,43.0495505 45.4936623,43.256538 L47.2939791,46.7037401 C47.5496456,47.1932839 48.1537578,47.3828789 48.6433016,47.1272125 C48.7648919,47.0637114 48.8721176,46.9758735 48.9583101,46.8691616 L52.0583888,43.031064 C53.1974859,41.6207881 54.9131416,40.8011431 56.7259902,40.8011431 L60.3955799,40.8011431 C61.5113989,40.8011431 62.6051124,41.1122928 63.5538393,41.6996338 L65.5674533,42.9462286 C67.1243381,43.9100701 68.9159776,44.4279372 70.7469999,44.4433584 L74.9858012,44.4790585" id="Path-207" stroke="#FFFFFF" stroke-width="2" mask="url(#mask-2)"></path>
                    <g id="microsoft" mask="url(#mask-2)" fill-rule="nonzero">
                        <g transform="translate(22.764706, 28.764706)" id="Rectangle-path">
                            <rect fill="#E86C60" x="0" y="0" width="3.70588235" height="3.70588235"></rect>
                            <polygon fill="#72C472" points="4.76470588 0 8.47058824 0 8.47058824 3.70588235 4.76470588 3.70588235"></polygon>
                            <polygon fill="#43A6DD" points="0 4.76470588 3.70588235 4.76470588 3.70588235 8.47058824 0 8.47058824"></polygon>
                            <polygon fill="#EFD358" points="4.76470588 4.76470588 8.47058824 4.76470588 8.47058824 8.47058824 4.76470588 8.47058824"></polygon>
                        </g>
                    </g>
                </g>
                <g id="Azure-Border" stroke="#0078D4" stroke-width="4">
                    <rect x="2" y="2" width="96" height="96" rx="48"></rect>
                </g>
            </g>
        </g>
    </g>
</svg>