<?xml version="1.0" encoding="UTF-8"?>
<svg width="150px" height="150px" viewBox="0 0 150 150" version="1.1" xmlns="http://www.w3.org/2000/svg" xmlns:xlink="http://www.w3.org/1999/xlink">
    <title>Manage insider risk management in Microsoft 365/manage-insider-risk-management-in-microsoft-365</title>
    <defs>
        <path d="M20,0 L120,0 C131.045695,-2.02906125e-15 140,8.954305 140,20 L140,120 C140,131.045695 131.045695,140 120,140 L20,140 C8.954305,140 1.3527075e-15,131.045695 0,120 L0,20 C-1.3527075e-15,8.954305 8.954305,2.02906125e-15 20,0 Z" id="path-1"></path>
        <linearGradient x1="50%" y1="0%" x2="50%" y2="100%" id="linearGradient-3">
            <stop stop-color="#153A66" stop-opacity="0.996585446" offset="0%"></stop>
            <stop stop-color="#051D32" offset="100%"></stop>
        </linearGradient>
        <path d="M120,0 C131.045695,0 140,8.954305 140,20 L140,120 C140,131.045695 131.045695,140 120,140 L20,140 C8.954305,140 0,131.045695 0,120 L0,20 C0,8.954305 8.954305,0 20,0 L120,0 Z M120,5 L20,5 C11.8205929,5 5.17026978,11.5467864 5.00321776,19.6861718 L5,20 L5,120 C5,128.179407 11.5467864,134.82973 19.6861718,134.996782 L20,135 L120,135 C128.179407,135 134.82973,128.453214 134.996782,120.313828 L135,120 L135,20 C135,11.8205929 128.453214,5.17026978 120.313828,5.00321776 L120,5 Z" id="path-4"></path>
        <linearGradient x1="48.0833333%" y1="41.2879852%" x2="56.495098%" y2="78.1449205%" id="linearGradient-6">
            <stop stop-color="#32D4F5" offset="0%"></stop>
            <stop stop-color="#31D1F3" offset="47%"></stop>
            <stop stop-color="#2EC9EB" offset="63%"></stop>
            <stop stop-color="#29BADE" offset="77%"></stop>
            <stop stop-color="#22A5CB" offset="89%"></stop>
            <stop stop-color="#198AB3" offset="100%"></stop>
            <stop stop-color="#198AB3" offset="100%"></stop>
        </linearGradient>
        <linearGradient x1="48.0833333%" y1="25.1911765%" x2="56.495098%" y2="130.147059%" id="linearGradient-7">
            <stop stop-color="#32D4F5" offset="0%"></stop>
            <stop stop-color="#31D1F3" offset="47%"></stop>
            <stop stop-color="#2EC9EB" offset="63%"></stop>
            <stop stop-color="#29BADE" offset="77%"></stop>
            <stop stop-color="#22A5CB" offset="89%"></stop>
            <stop stop-color="#198AB3" offset="100%"></stop>
            <stop stop-color="#198AB3" offset="100%"></stop>
        </linearGradient>
        <linearGradient x1="50%" y1="100%" x2="50%" y2="0%" id="linearGradient-8">
            <stop stop-color="#D2EBFF" offset="0%"></stop>
            <stop stop-color="#F0FFFD" offset="100%"></stop>
        </linearGradient>
        <path d="M55.6818182,0 L60.7438017,12.7037037 L68.4380165,14.9218107 L79.7768595,8.87242798 L81.3966942,8.87242798 L85.6487603,13.7119342 L89.2933884,17.3415638 L89.2933884,18.5514403 L83.6239669,30.4485597 L86.4586777,38.1111111 L98,42.1440329 L98,53.436214 L84.838843,58.6790123 L82.6115702,66.5432099 L88.2809917,77.8353909 L88.2809917,79.4485597 L80.3842975,87.3127572 L67.0206612,81.0617284 L59.3264463,84.2880658 L55.4793388,96.3868313 L55.4793388,98 L44.1404959,98 L39.2809917,84.4897119 L31.3842975,81.2633745 L20.2479339,86.909465 L18.6280992,86.909465 L10.731405,78.8436214 L16.8057851,65.7366255 L13.5661157,58.0740741 L1.61983471,54.0411523 L0,54.0411523 L0,42.7489712 L13.5661157,37.7078189 L17.0082645,29.2386831 L11.1363636,17.9465021 L11.1363636,16.5349794 L19.0330579,8.67078189 L32.1942149,14.9218107 L40.6983471,11.4938272 L44.5454545,0 L55.6818182,0 Z M49.7101449,25.5652174 C37.1596741,25.5652174 26.9855072,35.7393842 26.9855072,48.2898551 C26.9855072,60.8403259 37.1596741,71.0144928 49.7101449,71.0144928 C62.2606158,71.0144928 72.4347826,60.8403259 72.4347826,48.2898551 C72.4347826,35.7393842 62.2606158,25.5652174 49.7101449,25.5652174 Z" id="path-9"></path>
        <filter x="0.0%" y="0.0%" width="100.0%" height="100.0%" filterUnits="objectBoundingBox" id="filter-10">
            <feOffset dx="0" dy="0" in="SourceAlpha" result="shadowOffsetOuter1"></feOffset>
            <feColorMatrix values="0 0 0 0 0   0 0 0 0 0   0 0 0 0 0  0 0 0 0.1 0" type="matrix" in="shadowOffsetOuter1"></feColorMatrix>
        </filter>
        <filter x="-8.0%" y="-6.8%" width="116.0%" height="115.1%" filterUnits="objectBoundingBox" id="filter-11">
            <feOffset dx="0" dy="2" in="SourceAlpha" result="shadowOffsetOuter1"></feOffset>
            <feColorMatrix values="0 0 0 0 0   0 0 0 0 0   0 0 0 0 0  0 0 0 0.1 0" type="matrix" in="shadowOffsetOuter1" result="shadowMatrixOuter1"></feColorMatrix>
            <feMerge>
                <feMergeNode in="shadowMatrixOuter1"></feMergeNode>
                <feMergeNode in="SourceGraphic"></feMergeNode>
            </feMerge>
        </filter>
        <linearGradient x1="50.0231672%" y1="100.00283%" x2="50.0231672%" y2="0%" id="linearGradient-12">
            <stop stop-color="#0078D4" offset="0%"></stop>
            <stop stop-color="#0A7CD7" offset="6%"></stop>
            <stop stop-color="#2E8CE1" offset="34%"></stop>
            <stop stop-color="#4897E9" offset="59%"></stop>
            <stop stop-color="#589EED" offset="82%"></stop>
            <stop stop-color="#5EA0EF" offset="100%"></stop>
        </linearGradient>
    </defs>
    <g id="Badges" stroke="none" stroke-width="1" fill="none" fill-rule="evenodd">
        <g id="Manage-insider-risk-management-in-Microsoft-365" transform="translate(-135.000000, -55.000000)">
            <g id="Manage-insider-risk-management-in-Microsoft-365/manage-insider-risk-management-in-microsoft-365" transform="translate(160.000000, 80.000000)">
                <g id="Trophy-Plates/Square">
                    <g id="BG" transform="translate(-20.000000, -20.000000)">
                        <mask id="mask-2" fill="white">
                            <use xlink:href="#path-1"></use>
                        </mask>
                        <path stroke="#FFFFFF" stroke-width="5" d="M120,-2.5 L20,-2.5 C13.7867966,-2.5 8.16179656,0.0183982822 4.09009742,4.09009742 C0.0183982822,8.16179656 -2.5,13.7867966 -2.5,20 L-2.5,120 C-2.5,126.213203 0.0183982822,131.838203 4.09009742,135.909903 C8.16179656,139.981602 13.7867966,142.5 20,142.5 L120,142.5 C126.213203,142.5 131.838203,139.981602 135.909903,135.909903 C139.981602,131.838203 142.5,126.213203 142.5,120 L142.5,20 C142.5,13.7867966 139.981602,8.16179656 135.909903,4.09009742 C131.838203,0.0183982822 126.213203,-2.5 120,-2.5 Z"></path>
                        <g id="Colors/Microsoft-365/BG-Gradient-5" mask="url(#mask-2)" fill="url(#linearGradient-3)">
                            <rect id="Rectangle" x="0" y="0" width="140" height="140"></rect>
                        </g>
                    </g>
                    <g id="Border" transform="translate(-20.000000, -20.000000)">
                        <mask id="mask-5" fill="white">
                            <use xlink:href="#path-4"></use>
                        </mask>
                        <use fill="#000000" fill-rule="nonzero" xlink:href="#path-4"></use>
                        <g id="Colors/Microsoft-365/Border" mask="url(#mask-5)" fill="#0076D7">
                            <rect id="Microsoft-365/Border" x="0" y="0" width="140" height="140"></rect>
                        </g>
                    </g>
                </g>
                <g id="gear-w/-Person" transform="translate(1.000000, 2.000000)" fill-rule="nonzero">
                    <g id="Group-7" transform="translate(30.366197, 34.507042)">
                        <path d="M35.3142247,40.0279127 C36.1934164,40.0387293 37.0404363,39.7068595 37.6660664,39.1064406 C38.2916965,38.5060216 38.6438056,37.687084 38.6437351,36.8325724 C38.6593429,36.6533637 38.6308098,36.4731192 38.5604974,36.3067569 C37.2703121,26.1949205 31.3188123,17.943662 19.998477,17.943662 C8.67814165,17.943662 2.56016632,25.0623948 1.39483768,36.3067569 C1.2250702,38.0896662 2.5595572,39.6747935 4.39139703,39.8661233 L35.3142247,39.8661233 L35.3142247,40.0279127 Z" id="Path" fill="url(#linearGradient-6)"></path>
                        <path d="M19.4063485,19.5121639 C17.416562,19.5286206 15.4663966,18.9827438 13.8028169,17.943662 L19.3651461,31.7464789 L24.8450704,18.0612996 C23.2061514,19.0101795 21.3247146,19.5120822 19.4063485,19.5121639 L19.4063485,19.5121639 Z" id="Path" fill="#FFFFFF" opacity="0.8"></path>
                        <circle id="Oval" fill="url(#linearGradient-7)" cx="20.0140845" cy="10.3521127" r="10.3521127"></circle>
                    </g>
                    <g id="Group-4">
                        <g id="Combined-Shape">
                            <use fill="black" fill-opacity="1" filter="url(#filter-10)" xlink:href="#path-9"></use>
                            <use fill="url(#linearGradient-8)" xlink:href="#path-9"></use>
                        </g>
                    </g>
                </g>
                <g id="Shield" filter="url(#filter-11)" transform="translate(25.000000, 21.454545)" fill-rule="nonzero">
                    <path d="M50,27.5880868 C50,43.4668723 30.1553672,56.2532904 25.8121469,58.859218 C25.3162254,59.1681395 24.6837746,59.1681395 24.1878531,58.859218 C19.8446328,56.2880361 0,43.501618 0,27.5880868 L0,8.47795111 C0,7.64699719 0.674112867,6.96802554 1.51836163,6.94914025 C16.9844633,6.56693754 13.4180791,0 25,0 C36.5819209,0 33.0155367,6.56693754 48.4816384,6.94914025 C49.3258871,6.96802554 50,7.64699719 50,8.47795111 L50,27.5880868 Z" id="Path" fill="#0078D4"></path>
                    <path d="M47.0227273,26.9075579 C47.0227273,40.8769111 29.5481704,52.085654 25.7213779,54.3473588 C25.2853987,54.6114865 24.7350095,54.6114865 24.2990303,54.3473588 C20.4722378,52.085654 2.9976809,40.8769111 2.9976809,26.9075579 L2.9976809,10.2773755 C2.92811173,9.88316687 3.03831562,9.47884008 3.2991039,9.17148538 C3.55989218,8.86413069 3.94495255,8.68475871 4.35229771,8.68087801 C17.9661967,8.44805546 14.850578,2.72727273 25.0102041,2.72727273 C35.1698302,2.72727273 32.0542115,8.44805546 45.6681105,8.68087801 C46.4087233,8.69841284 47.0048735,9.28391187 47.0227273,10.0112926 L47.0227273,26.9075579 Z" id="Path" fill="url(#linearGradient-12)"></path>
                </g>
                <g id="Group-3" transform="translate(46.000000, 34.500000)" fill="#FFFFFF" fill-rule="nonzero">
                    <path d="M6.80666667,27.6186667 C6.80666667,29.0493333 5.54933333,30.2093333 3.99866667,30.2093333 C2.448,30.2093333 1.192,29.0506667 1.192,27.6186667 C1.192,26.1866667 2.448,25.0266667 3.99866667,25.0266667 C5.54933333,25.0266667 6.80666667,26.1866667 6.80666667,27.6186667 Z" id="Fill-1"></path>
                    <path d="M7.856,3.44533333 C7.77998079,2.71008313 7.48556057,2.01443408 7.01066667,1.448 C6.27331003,0.54045268 5.1692935,0.0094686481 4,0 C2.86586261,0.00835469195 1.79101371,0.507843302 1.05333333,1.36933333 C0.548,1.95066667 0.216,2.676 0.142666667,3.444 C0.124131994,3.65114177 0.124131994,3.8595249 0.142666667,4.06666667 L1.74,20.9466667 C1.788,21.4573333 2.03066667,21.9066667 2.39333333,22.2413333 C2.808,22.6253333 3.38,22.8586667 4,22.857339 C4.55866667,22.857339 5.07733333,22.6693333 5.47733333,22.352 C5.91066667,22.008 6.20533333,21.5146667 6.26,20.9466667 L7.856,4.06533333 C7.87382278,3.85905092 7.87382278,3.65161574 7.856,3.44533333 Z" id="Fill-2"></path>
                </g>
            </g>
        </g>
    </g>
</svg>