<?xml version="1.0" encoding="UTF-8"?>
<svg width="102px" height="102px" viewBox="0 0 102 102" version="1.1" xmlns="http://www.w3.org/2000/svg" xmlns:xlink="http://www.w3.org/1999/xlink">
    <title>Manage insider risk management in Microsoft 365/manage-insider-risk-in-microsoft-365</title>
    <defs>
        <rect id="path-1" x="0" y="0" width="94.3396226" height="94.3396226" rx="47.1698113"></rect>
        <filter x="-2.9%" y="-2.9%" width="106.4%" height="106.4%" filterUnits="objectBoundingBox" id="filter-3">
            <feMorphology radius="2.5" operator="dilate" in="SourceAlpha" result="shadowSpreadOuter1"></feMorphology>
            <feOffset dx="0.5" dy="0.5" in="shadowSpreadOuter1" result="shadowOffsetOuter1"></feOffset>
            <feMorphology radius="1" operator="erode" in="SourceAlpha" result="shadowInner"></feMorphology>
            <feOffset dx="0.5" dy="0.5" in="shadowInner" result="shadowInner"></feOffset>
            <feComposite in="shadowOffsetOuter1" in2="shadowInner" operator="out" result="shadowOffsetOuter1"></feComposite>
            <feColorMatrix values="0 0 0 0 0.821822822   0 0 0 0 0.831640661   0 0 0 0 0.835737288  0 0 0 1 0" type="matrix" in="shadowOffsetOuter1"></feColorMatrix>
        </filter>
        <linearGradient x1="77.8299825%" y1="11.1997378%" x2="-99.6885927%" y2="253.807911%" id="linearGradient-4">
            <stop stop-color="#FFFFFF" offset="0%"></stop>
            <stop stop-color="#000000" stop-opacity="0.5" offset="100%"></stop>
        </linearGradient>
        <rect id="path-5" x="0" y="0" width="94.3396226" height="94.3396226"></rect>
        <path d="M48.1132075,0.739331515 C74.2770768,0.739331515 95.4870836,21.9493383 95.4870836,48.1132075 C95.4870836,74.2770768 74.2770768,95.4870836 48.1132075,95.4870836 C21.9493383,95.4870836 0.739331515,74.2770768 0.739331515,48.1132075 C0.739331515,21.9493383 21.9493383,0.739331515 48.1132075,0.739331515 Z M48.1132075,4.71698113 C24.1461335,4.71698113 4.71698113,24.1461335 4.71698113,48.1132075 C4.71698113,72.0802816 24.1461335,91.509434 48.1132075,91.509434 C72.0802816,91.509434 91.509434,72.0802816 91.509434,48.1132075 C91.509434,24.1461335 72.0802816,4.71698113 48.1132075,4.71698113 Z" id="path-6"></path>
        <filter x="-6.2%" y="-6.5%" width="112.5%" height="112.9%" filterUnits="objectBoundingBox" id="filter-8">
            <feOffset dx="0" dy="2" in="SourceAlpha" result="shadowOffsetOuter1"></feOffset>
            <feColorMatrix values="0 0 0 0 0   0 0 0 0 0   0 0 0 0 0  0 0 0 0.1 0" type="matrix" in="shadowOffsetOuter1" result="shadowMatrixOuter1"></feColorMatrix>
            <feMerge>
                <feMergeNode in="shadowMatrixOuter1"></feMergeNode>
                <feMergeNode in="SourceGraphic"></feMergeNode>
            </feMerge>
        </filter>
        <linearGradient x1="50%" y1="100%" x2="50%" y2="0%" id="linearGradient-9">
            <stop stop-color="#D2EBFF" offset="0%"></stop>
            <stop stop-color="#F0FFFD" offset="100%"></stop>
        </linearGradient>
        <linearGradient x1="50%" y1="100%" x2="50%" y2="0%" id="linearGradient-10">
            <stop stop-color="#CCCCCC" offset="15%"></stop>
            <stop stop-color="#707070" offset="100%"></stop>
        </linearGradient>
        <linearGradient x1="48.0833333%" y1="41.2879852%" x2="56.495098%" y2="78.1449205%" id="linearGradient-11">
            <stop stop-color="#32D4F5" offset="0%"></stop>
            <stop stop-color="#31D1F3" offset="47%"></stop>
            <stop stop-color="#2EC9EB" offset="63%"></stop>
            <stop stop-color="#29BADE" offset="77%"></stop>
            <stop stop-color="#22A5CB" offset="89%"></stop>
            <stop stop-color="#198AB3" offset="100%"></stop>
            <stop stop-color="#198AB3" offset="100%"></stop>
        </linearGradient>
        <linearGradient x1="48.0833333%" y1="25.1911765%" x2="56.495098%" y2="130.147059%" id="linearGradient-12">
            <stop stop-color="#32D4F5" offset="0%"></stop>
            <stop stop-color="#31D1F3" offset="47%"></stop>
            <stop stop-color="#2EC9EB" offset="63%"></stop>
            <stop stop-color="#29BADE" offset="77%"></stop>
            <stop stop-color="#22A5CB" offset="89%"></stop>
            <stop stop-color="#198AB3" offset="100%"></stop>
            <stop stop-color="#198AB3" offset="100%"></stop>
        </linearGradient>
        <linearGradient x1="50%" y1="0.670396959%" x2="50%" y2="100%" id="linearGradient-13">
            <stop stop-color="#6A6A6A" offset="0%"></stop>
            <stop stop-color="#343333" offset="100%"></stop>
        </linearGradient>
        <path d="M19.3181818,0 L21.0743802,4.40740741 L23.7438017,5.17695473 L27.677686,3.0781893 L28.2396694,3.0781893 L29.714876,4.75720165 L30.9793388,6.01646091 L30.9793388,6.43621399 L29.0123967,10.563786 L29.9958678,13.2222222 L34,14.6213992 L34,18.5390947 L29.4338843,20.3580247 L28.661157,23.0864198 L30.6280992,27.0041152 L30.6280992,27.563786 L27.8884298,30.2921811 L23.2520661,28.1234568 L20.5826446,29.2427984 L19.2479339,33.4403292 L19.2479339,34 L15.3140496,34 L13.6280992,29.3127572 L10.8884298,28.1934156 L7.02479339,30.1522634 L6.46280992,30.1522634 L3.7231405,27.3539095 L5.83057851,22.8065844 L4.70661157,20.1481481 L0.561983471,18.7489712 L0,18.7489712 L0,14.8312757 L4.70661157,13.0823045 L5.90082645,10.1440329 L3.86363636,6.22633745 L3.86363636,5.73662551 L6.60330579,3.00823045 L11.1694215,5.17695473 L14.1198347,3.98765432 L15.4545455,0 L19.3181818,0 Z M17.2463768,8.86956522 C12.8921318,8.86956522 9.36231884,12.3993782 9.36231884,16.7536232 C9.36231884,21.1078682 12.8921318,24.6376812 17.2463768,24.6376812 C21.6006218,24.6376812 25.1304348,21.1078682 25.1304348,16.7536232 C25.1304348,12.3993782 21.6006218,8.86956522 17.2463768,8.86956522 Z" id="path-14"></path>
        <filter x="0.0%" y="0.0%" width="100.0%" height="100.0%" filterUnits="objectBoundingBox" id="filter-15">
            <feOffset dx="0" dy="0" in="SourceAlpha" result="shadowOffsetOuter1"></feOffset>
            <feColorMatrix values="0 0 0 0 0   0 0 0 0 0   0 0 0 0 0  0 0 0 0.1 0" type="matrix" in="shadowOffsetOuter1"></feColorMatrix>
        </filter>
        <filter x="-23.1%" y="-19.5%" width="149.9%" height="141.5%" filterUnits="objectBoundingBox" id="filter-16">
            <feOffset dx="0" dy="2" in="SourceAlpha" result="shadowOffsetOuter1"></feOffset>
            <feColorMatrix values="0 0 0 0 0   0 0 0 0 0   0 0 0 0 0  0 0 0 0.1 0" type="matrix" in="shadowOffsetOuter1" result="shadowMatrixOuter1"></feColorMatrix>
            <feMerge>
                <feMergeNode in="shadowMatrixOuter1"></feMergeNode>
                <feMergeNode in="SourceGraphic"></feMergeNode>
            </feMerge>
        </filter>
        <linearGradient x1="50.0231672%" y1="100.00283%" x2="50.0231672%" y2="0%" id="linearGradient-17">
            <stop stop-color="#0078D4" offset="0%"></stop>
            <stop stop-color="#0A7CD7" offset="6%"></stop>
            <stop stop-color="#2E8CE1" offset="34%"></stop>
            <stop stop-color="#4897E9" offset="59%"></stop>
            <stop stop-color="#589EED" offset="82%"></stop>
            <stop stop-color="#5EA0EF" offset="100%"></stop>
        </linearGradient>
    </defs>
    <g id="Badges" stroke="none" stroke-width="1" fill="none" fill-rule="evenodd">
        <g id="Manage-insider-risk-management-in-Microsoft-365" transform="translate(-159.000000, -889.000000)">
            <g id="Manage-insider-risk-management-in-Microsoft-365/manage-insider-risk-in-microsoft-365" transform="translate(160.000000, 890.000000)">
                <g id="Badge-Plates/Circle">
                    <g id="BG" transform="translate(2.830189, 2.830189)">
                        <mask id="mask-2" fill="white">
                            <use xlink:href="#path-1"></use>
                        </mask>
                        <g>
                            <use fill="black" fill-opacity="1" filter="url(#filter-3)" xlink:href="#path-1"></use>
                            <rect stroke="#F2F1F0" stroke-width="2.5" x="-1.25" y="-1.25" width="96.8396226" height="96.8396226" rx="48.4198113"></rect>
                        </g>
                        <g id="Colors/Microsoft-365/BG-Solid-Badge" mask="url(#mask-2)">
                            <g id="Rectangle">
                                <use fill="#0078D4" xlink:href="#path-5"></use>
                                <use fill-opacity="0.4" fill="url(#linearGradient-4)" xlink:href="#path-5"></use>
                            </g>
                        </g>
                    </g>
                    <g id="Border" transform="translate(1.886792, 1.886792)">
                        <mask id="mask-7" fill="white">
                            <use xlink:href="#path-6"></use>
                        </mask>
                        <use id="Boarder" fill="#0078D4" fill-rule="nonzero" xlink:href="#path-6"></use>
                        <g id="Colors/Microsoft-365/Border" mask="url(#mask-7)" fill="#0076D7">
                            <g transform="translate(-1.886792, -1.886792)" id="Microsoft-365/Border">
                                <rect x="0" y="0" width="100" height="100"></rect>
                            </g>
                        </g>
                    </g>
                </g>
                <g id="Computer-" filter="url(#filter-8)" transform="translate(18.000000, 24.000000)" fill-rule="nonzero">
                    <rect id="Rectangle" fill="url(#linearGradient-9)" x="0" y="0" width="64" height="44.4745763" rx="0.6"></rect>
                    <path d="M45.595426,58.081927 C39.1592945,57.0323242 38.9061882,52.2341399 38.9061882,44.4745763 L26.1423995,44.4745763 C26.1423995,52.2341399 25.9254512,57.0323242 19.4893198,58.081927 C17.6491107,58.2930288 16.2600225,59.9111157 16.2711864,61.8305085 L48.8135593,61.8305085 C48.8247232,59.9111157 47.435635,58.2930288 45.595426,58.081927 Z" id="Path" fill="url(#linearGradient-10)"></path>
                </g>
                <g id="Group-5" transform="translate(33.000000, 28.500000)" fill-rule="nonzero">
                    <g id="gear-w/-Person">
                        <g id="Group-7" transform="translate(10.535211, 11.971831)">
                            <path d="M12.2518739,13.887235 C12.5568996,13.8909877 12.8507636,13.7758492 13.0678189,13.5675406 C13.2848743,13.359232 13.4070346,13.0751108 13.4070101,12.7786476 C13.4124251,12.7164731 13.4025258,12.6539393 13.3781317,12.5962218 C12.9305164,9.08803363 10.8657104,6.22535211 6.93824711,6.22535211 C3.01078384,6.22535211 0.888220968,8.69511656 0.483923278,12.5962218 C0.425024356,13.2147821 0.88800964,13.7647243 1.52354591,13.831104 L12.2518739,13.831104 L12.2518739,13.887235 Z" id="Path" fill="url(#linearGradient-11)"></path>
                            <path d="M6.7328148,6.76952625 C6.0424807,6.77523573 5.3658927,6.58584989 4.78873239,6.22535211 L6.71852008,11.0140845 L8.61971831,6.26616517 C8.05111375,6.59536838 7.39837036,6.76949791 6.7328148,6.76952625 L6.7328148,6.76952625 Z" id="Path" fill="#FFFFFF" opacity="0.8"></path>
                            <circle id="Oval" fill="url(#linearGradient-12)" cx="6.94366197" cy="3.5915493" r="3.5915493"></circle>
                        </g>
                        <g id="Group-4">
                            <g id="Combined-Shape">
                                <use fill="black" fill-opacity="1" filter="url(#filter-15)" xlink:href="#path-14"></use>
                                <use fill="url(#linearGradient-13)" xlink:href="#path-14"></use>
                            </g>
                        </g>
                    </g>
                    <g id="Shield" filter="url(#filter-16)" transform="translate(8.326531, 6.749536)">
                        <path d="M17.3469388,9.57137706 C17.3469388,15.0803434 10.4620662,19.5164477 8.95523464,20.420545 C8.78318023,20.5277219 8.56375855,20.5277219 8.39170414,20.420545 C6.8848726,19.5285023 0,15.0923981 0,9.57137706 L0,2.94132998 C0,2.65303984 0.233875892,2.41747825 0.526778525,2.41092621 C5.8925689,2.27832527 4.65525194,0 8.67346939,0 C12.6916868,0 11.4543699,2.27832527 16.8201603,2.41092621 C17.1130629,2.41747825 17.3469388,2.65303984 17.3469388,2.94132998 L17.3469388,9.57137706 Z" id="Path" fill="#0078D4"></path>
                        <path d="M16.3140074,9.33527518 C16.3140074,14.1817855 10.2514061,18.070533 8.92374336,18.8552061 C8.77248525,18.9468422 8.58153391,18.9468422 8.4302758,18.8552061 C7.1026131,18.070533 1.04001174,14.1817855 1.04001174,9.33527518 L1.04001174,3.56562008 C1.0158755,3.42885381 1.0541095,3.28857717 1.14458707,3.18194391 C1.23506463,3.07531065 1.36865701,3.01307955 1.50998084,3.01173319 C6.23317027,2.93095802 5.15224135,0.94619666 8.67700958,0.94619666 C12.2017778,0.94619666 11.1208489,2.93095802 15.8440383,3.01173319 C16.1009856,3.0178167 16.3078132,3.22094901 16.3140074,3.4733056 L16.3140074,9.33527518 Z" id="Path" fill="url(#linearGradient-17)"></path>
                    </g>
                    <g id="Group-3" transform="translate(15.612245, 11.275510)" fill="#FFFFFF">
                        <path d="M2.3614966,9.58198639 C2.3614966,10.0783401 1.92527891,10.4807891 1.38729252,10.4807891 C0.849306122,10.4807891 0.41355102,10.0788027 0.41355102,9.58198639 C0.41355102,9.08517007 0.849306122,8.68272109 1.38729252,8.68272109 C1.92527891,8.68272109 2.3614966,9.08517007 2.3614966,9.58198639 Z" id="Fill-1"></path>
                        <path d="M2.72555102,1.19531973 C2.69917701,0.940232922 2.59703122,0.698885293 2.43227211,0.502367347 C2.1764545,0.187503991 1.79342836,0.00328504118 1.3877551,0 C0.994278866,0.0028985666 0.621372103,0.176190533 0.365442177,0.47507483 C0.190122449,0.676761905 0.0749387755,0.928408163 0.0494965986,1.19485714 C0.0430662022,1.26672265 0.0430662022,1.33901884 0.0494965986,1.41088435 L0.603673469,7.26721088 C0.620326531,7.44438095 0.704517007,7.60027211 0.830340136,7.71638095 C0.974204082,7.84960544 1.17265306,7.93055782 1.3877551,7.93009721 C1.58157823,7.93009721 1.76152381,7.86487075 1.90029932,7.75477551 C2.05063946,7.63542857 2.15287075,7.46427211 2.17183673,7.26721088 L2.72555102,1.41042177 C2.73173444,1.3388544 2.73173444,1.26688709 2.72555102,1.19531973 Z" id="Fill-2"></path>
                    </g>
                </g>
            </g>
        </g>
    </g>
</svg>