<svg width="103" height="103" viewBox="0 0 103 103" fill="none" xmlns="http://www.w3.org/2000/svg">
<path d="M51.0912 98.184C25.2412 98.184 4.28125 77.234 4.28125 51.374C4.28125 25.514 25.2412 4.56403 51.0912 4.56403C76.9412 4.56403 97.9012 25.524 97.9012 51.374C97.9012 77.224 76.9412 98.184 51.0912 98.184Z" fill="url(#paint0_linear_1044_2636)"/>
<path fill-rule="evenodd" clip-rule="evenodd" d="M96.9912 51.3741C96.9912 76.7241 76.4412 97.2741 51.0912 97.2741C25.7412 97.2741 5.19117 76.7241 5.19117 51.3741C5.19117 26.0241 25.7412 5.47414 51.0912 5.47414C76.4412 5.47414 96.9912 26.0241 96.9912 51.3741ZM51.0912 1.73413C78.5112 1.73413 100.731 23.9541 100.731 51.3741C100.731 78.7941 78.5012 101.014 51.0912 101.014C23.6712 101.014 1.45117 78.7841 1.45117 51.3741C1.45117 23.9541 23.6712 1.73413 51.0912 1.73413Z" fill="#F2F1F0"/>
<path fill-rule="evenodd" clip-rule="evenodd" d="M94.1812 51.374C94.1812 75.174 74.8912 94.464 51.0912 94.464C27.2912 94.464 8.00123 75.174 8.00123 51.374C8.00123 27.574 27.2912 8.28401 51.0912 8.28401C74.8912 8.28401 94.1812 27.574 94.1812 51.374ZM51.0912 4.54401C76.9512 4.54401 97.9212 25.514 97.9212 51.374C97.9212 77.234 76.9512 98.204 51.0912 98.204C25.2312 98.204 4.26123 77.234 4.26123 51.374C4.26123 25.514 25.2212 4.54401 51.0912 4.54401Z" fill="url(#paint1_linear_1044_2636)"/>
<circle cx="67.4634" cy="27.3887" r="5.46875" fill="#141E2F"/>
<circle cx="38.2134" cy="31.9512" r="5.46875" fill="#141E2F"/>
<circle cx="30.0884" cy="61.9512" r="5.46875" fill="#141E2F"/>
<circle cx="61.0884" cy="74.9512" r="5.46875" fill="#141E2F"/>
<circle cx="76.9009" cy="56.6387" r="5.46875" fill="#141E2F"/>
<circle cx="52.6196" cy="51.8574" r="9.6875" fill="#141E2F"/>
<path d="M53.6239 57.4271C54.7844 57.4271 55.919 57.083 56.8839 56.4382C57.8489 55.7934 58.6011 54.877 59.0452 53.8047C59.4893 52.7325 59.6055 51.5526 59.3791 50.4143C59.1527 49.2761 58.5938 48.2305 57.7732 47.4098C56.9525 46.5892 55.9069 46.0303 54.7687 45.8039C53.6304 45.5775 52.4505 45.6937 51.3783 46.1378C50.306 46.5819 49.3896 47.3341 48.7448 48.299C48.1 49.264 47.7559 50.3986 47.7559 51.5591C47.7559 53.1154 48.3741 54.608 49.4746 55.7084C50.575 56.8089 52.0676 57.4271 53.6239 57.4271V57.4271Z" fill="white"/>
<path d="M75.4956 27.8981C75.4946 29.0675 75.2331 30.2219 74.7301 31.2775C74.2271 32.3332 73.4953 33.2635 72.5878 34.001C71.6803 34.7384 70.6199 35.2645 69.4837 35.5409C68.3475 35.8173 67.164 35.8371 66.0192 35.5989L61.9928 42.2608C63.2755 43.4383 64.2992 44.8698 64.9988 46.4643C65.6984 48.0587 66.0587 49.7813 66.0566 51.5226C66.0566 51.5836 66.0562 51.6446 66.0553 51.7057L70.1343 52.5262C71.0217 50.8693 72.4731 49.5849 74.2257 48.9055C75.9782 48.2261 77.9161 48.1966 79.6885 48.8224C81.4609 49.4482 82.9506 50.6879 83.8881 52.317C84.8255 53.9462 85.1487 55.8572 84.7991 57.704C84.4495 59.5508 83.4503 61.2114 81.9822 62.3853C80.5142 63.5591 78.6744 64.1685 76.7959 64.1032C74.9174 64.0379 73.1244 63.3022 71.7414 62.0292C70.3584 60.7563 69.4769 59.0303 69.2564 57.1636L65.1064 56.3286C64.0219 58.9444 62.0898 61.1199 59.6204 62.5059L61.1782 67.2625C61.2311 67.2615 61.2839 67.2609 61.3371 67.2609C63.2092 67.2612 65.0199 67.9293 66.4435 69.1451C67.8671 70.3609 68.8104 72.0447 69.1036 73.8937C69.3968 75.7428 69.0209 77.6358 68.0433 79.2324C67.0657 80.8291 65.5505 82.0246 63.7703 82.6041C61.9901 83.1836 60.0616 83.109 58.3314 82.3938C56.6013 81.6786 55.183 80.3697 54.3316 78.7023C53.4802 77.035 53.2515 75.1186 53.6866 73.2977C54.1217 71.4768 55.1921 69.8709 56.7054 68.7686L55.1429 63.9978C52.9068 64.2953 50.6319 63.9874 48.5554 63.106C46.4789 62.2247 44.6769 60.8023 43.3375 58.9873L37.6908 61.6547C37.7233 61.9469 37.7395 62.2407 37.7395 62.5347C37.7395 64.3761 37.0935 66.1591 35.914 67.5731C34.7346 68.9871 33.0964 69.9425 31.285 70.2729C29.4735 70.6033 27.6036 70.2877 26.0009 69.3811C24.3982 68.4745 23.1643 67.0344 22.5143 65.3116C21.8642 63.5888 21.8392 61.6925 22.4435 59.9532C23.0478 58.2138 24.2432 56.7416 25.8214 55.793C27.3996 54.8444 29.2605 54.4795 31.0801 54.7619C32.8997 55.0444 34.5625 55.9562 35.7789 57.3385L41.2984 54.7308C40.7917 52.7987 40.7511 50.7738 41.1801 48.8229C41.6091 46.872 42.4954 45.0509 43.7659 43.5096L40.6455 39.9561C38.899 40.6508 36.9614 40.6973 35.1836 40.0871C33.4057 39.4769 31.9051 38.2504 30.9533 36.6296C30.0014 35.0088 29.6613 33.1008 29.9945 31.2509C30.3277 29.401 31.3121 27.7315 32.7697 26.5447C34.2272 25.3578 36.0615 24.7319 37.9405 24.7804C39.8195 24.8288 41.6191 25.5484 43.0135 26.8088C44.4079 28.0692 45.305 29.7872 45.5424 31.6518C45.7798 33.5164 45.3418 35.4044 44.3077 36.974L47.4 40.4957C49.0057 39.6137 50.7841 39.092 52.6118 38.9667C54.4394 38.8415 56.2724 39.1157 57.9834 39.7703L61.9012 33.2883C61.0217 32.3536 60.3843 31.2179 60.0445 29.9802C59.7048 28.7426 59.6731 27.4406 59.9521 26.1879C60.2311 24.9352 60.8125 23.7698 61.6454 22.7933C62.4783 21.8169 63.5375 21.0591 64.7306 20.586C65.9236 20.113 67.2143 19.939 68.49 20.0794C69.7658 20.2198 70.9878 20.6702 72.0494 21.3913C73.1111 22.1124 73.9802 23.0824 74.5809 24.2166C75.1816 25.3507 75.4956 26.6147 75.4956 27.8981H75.4956ZM70.7761 27.8981C70.7761 27.2758 70.5916 26.6675 70.2459 26.1501C69.9001 25.6327 69.4087 25.2294 68.8338 24.9913C68.2589 24.7531 67.6263 24.6908 67.0159 24.8122C66.4056 24.9336 65.845 25.2333 65.405 25.6733C64.9649 26.1133 64.6653 26.6739 64.5439 27.2843C64.4225 27.8946 64.4848 28.5272 64.7229 29.1021C64.9611 29.6771 65.3643 30.1685 65.8817 30.5142C66.3992 30.8599 67.0075 31.0444 67.6298 31.0444C68.0429 31.0445 68.4521 30.9631 68.8338 30.805C69.2156 30.6468 69.5624 30.4151 69.8546 30.1229C70.1467 29.8308 70.3785 29.4839 70.5366 29.1022C70.6947 28.7204 70.7761 28.3113 70.7761 27.8981V27.8981ZM37.7395 35.7908C38.3618 35.7908 38.9701 35.6063 39.4875 35.2606C40.005 34.9149 40.4082 34.4235 40.6464 33.8486C40.8845 33.2737 40.9469 32.641 40.8255 32.0307C40.7041 31.4204 40.4044 30.8597 39.9644 30.4197C39.5244 29.9797 38.9637 29.68 38.3534 29.5586C37.7431 29.4372 37.1104 29.4995 36.5355 29.7376C35.9606 29.9758 35.4692 30.379 35.1235 30.8965C34.7777 31.4139 34.5932 32.0222 34.5932 32.6445C34.5932 33.4789 34.9247 34.2792 35.5147 34.8693C36.1048 35.4593 36.905 35.7908 37.7395 35.7908V35.7908ZM53.4712 59.3884C55.0269 59.3884 56.5477 58.9271 57.8412 58.0628C59.1348 57.1985 60.143 55.97 60.7383 54.5327C61.3337 53.0954 61.4894 51.5138 61.1859 49.988C60.8824 48.4622 60.1333 47.0606 59.0332 45.9606C57.9331 44.8605 56.5316 44.1113 55.0058 43.8078C53.4799 43.5043 51.8984 43.6601 50.4611 44.2554C49.0238 44.8508 47.7953 45.859 46.931 47.1525C46.0667 48.4461 45.6053 49.9668 45.6053 51.5226C45.6054 53.6087 46.4341 55.6094 47.9092 57.0845C49.3843 58.5597 51.3851 59.3884 53.4712 59.3884ZM33.02 62.5348C33.02 61.9125 32.8354 61.3042 32.4897 60.7867C32.144 60.2693 31.6526 59.8661 31.0777 59.6279C30.5028 59.3898 29.8701 59.3275 29.2598 59.4489C28.6495 59.5703 28.0889 59.8699 27.6488 60.31C27.2088 60.75 26.9091 61.3106 26.7877 61.9209C26.6663 62.5313 26.7287 63.1639 26.9668 63.7388C27.2049 64.3137 27.6082 64.8051 28.1256 65.1509C28.643 65.4966 29.2513 65.6811 29.8736 65.6811C30.2868 65.6811 30.696 65.5997 31.0777 65.4416C31.4594 65.2835 31.8063 65.0517 32.0984 64.7596C32.3906 64.4674 32.6224 64.1205 32.7805 63.7388C32.9386 63.3571 33.02 62.9479 33.02 62.5348V62.5348ZM64.4834 75.1268C64.4834 74.5045 64.2989 73.8962 63.9532 73.3787C63.6074 72.8613 63.1161 72.458 62.5411 72.2199C61.9662 71.9818 61.3336 71.9195 60.7233 72.0409C60.1129 72.1623 59.5523 72.4619 59.1123 72.9019C58.6722 73.342 58.3726 73.9026 58.2512 74.5129C58.1298 75.1233 58.1921 75.7559 58.4302 76.3308C58.6684 76.9057 59.0716 77.3971 59.5891 77.7428C60.1065 78.0886 60.7148 78.2731 61.3371 78.2731C62.1715 78.2731 62.9718 77.9416 63.5618 77.3515C64.1519 76.7615 64.4834 75.9612 64.4834 75.1267V75.1268ZM77.0688 59.3884C77.6911 59.3884 78.2994 59.2039 78.8168 58.8582C79.3342 58.5124 79.7375 58.021 79.9757 57.4461C80.2138 56.8712 80.2761 56.2386 80.1547 55.6282C80.0333 55.0179 79.7336 54.4573 79.2936 54.0173C78.8536 53.5772 78.293 53.2776 77.6826 53.1562C77.0723 53.0348 76.4397 53.0971 75.8647 53.3352C75.2898 53.5734 74.7984 53.9766 74.4527 54.494C74.107 55.0115 73.9225 55.6198 73.9225 56.2421C73.9224 56.6553 74.0038 57.0644 74.1619 57.4461C74.3201 57.8279 74.5518 58.1747 74.844 58.4669C75.1361 58.7591 75.483 58.9908 75.8647 59.1489C76.2465 59.307 76.6556 59.3884 77.0688 59.3884Z" fill="url(#paint2_linear_1044_2636)"/>
<path fill-rule="evenodd" clip-rule="evenodd" d="M56.5508 49.4224C56.4026 49.2743 56.2018 49.1911 55.9923 49.1911C55.7829 49.1911 55.582 49.2743 55.4339 49.4224L52.8304 52.0239L51.89 51.0925C51.8681 51.0599 51.8432 51.0292 51.8158 51.001C51.6687 50.8536 51.4692 50.7704 51.261 50.7694C51.0527 50.7685 50.8525 50.8499 50.7041 50.9959C50.5556 51.1419 50.4708 51.3407 50.4683 51.549C50.4658 51.7572 50.5457 51.958 50.6906 52.1076L50.6812 52.1171L52.2743 53.6957C52.4226 53.8437 52.6235 53.9268 52.833 53.9268C53.0425 53.9268 53.2434 53.8437 53.3916 53.6957L56.5484 50.5403L56.5508 50.5384C56.6241 50.4652 56.6823 50.3782 56.7219 50.2824C56.7616 50.1867 56.7821 50.084 56.7821 49.9804C56.7821 49.8767 56.7616 49.7741 56.7219 49.6784C56.6823 49.5826 56.6241 49.4956 56.5508 49.4224V49.4224Z" fill="#0078D4"/>
<path d="M67.6298 27.8981L56.521 46.8294" stroke="white" stroke-width="1.1244" stroke-miterlimit="10"/>
<path d="M67.6296 30.1366C68.8659 30.1366 69.8682 29.1344 69.8682 27.8981C69.8682 26.6618 68.8659 25.6596 67.6296 25.6596C66.3933 25.6596 65.3911 26.6618 65.3911 27.8981C65.3911 29.1344 66.3933 30.1366 67.6296 30.1366Z" fill="white"/>
<path d="M37.7341 34.8719C38.9704 34.8719 39.9726 33.8697 39.9726 32.6334C39.9726 31.3971 38.9704 30.3948 37.7341 30.3948C36.4978 30.3948 35.4956 31.3971 35.4956 32.6334C35.4956 33.8697 36.4978 34.8719 37.7341 34.8719Z" fill="white"/>
<path d="M61.4206 77.3153C62.6569 77.3153 63.6592 76.3131 63.6592 75.0768C63.6592 73.8405 62.6569 72.8383 61.4206 72.8383C60.1843 72.8383 59.1821 73.8405 59.1821 75.0768C59.1821 76.3131 60.1843 77.3153 61.4206 77.3153Z" fill="white"/>
<path d="M77.0686 58.4805C78.3049 58.4805 79.3071 57.4783 79.3071 56.242C79.3071 55.0057 78.3049 54.0034 77.0686 54.0034C75.8323 54.0034 74.8301 55.0057 74.8301 56.242C74.8301 57.4783 75.8323 58.4805 77.0686 58.4805Z" fill="white"/>
<path d="M29.8738 64.7732C31.1101 64.7732 32.1123 63.771 32.1123 62.5347C32.1123 61.2984 31.1101 60.2961 29.8738 60.2961C28.6375 60.2961 27.6353 61.2984 27.6353 62.5347C27.6353 63.771 28.6375 64.7732 29.8738 64.7732Z" fill="white"/>
<path d="M77.0688 56.242L58.7041 52.7497" stroke="white" stroke-width="1.1244" stroke-miterlimit="10"/>
<path d="M29.8735 62.5347L48.3914 54.1539" stroke="white" stroke-width="1.1244" stroke-miterlimit="10"/>
<path fill-rule="evenodd" clip-rule="evenodd" d="M15.7253 53.089V59.7349C15.7253 67.0767 18.8877 71.7379 26.6195 75.73C34.3475 71.7379 37.5137 67.0767 37.5137 59.7387V53.089C32.535 52.9666 28.952 51.8577 26.6195 49.7164C24.2869 51.8615 20.704 52.9666 15.7253 53.089ZM26.6195 77.7452C26.4742 77.7452 26.3289 77.7108 26.195 77.6458C17.5302 73.2904 13.8325 67.9332 13.8325 59.7387V52.156C13.8325 51.6321 14.257 51.2077 14.7808 51.2077C20.2337 51.2077 23.874 50.072 25.9083 47.7394C26.2677 47.3264 26.9751 47.3264 27.3345 47.7394C29.3688 50.072 33.0091 51.2077 38.462 51.2077C38.9858 51.2077 39.4103 51.6321 39.4103 52.156V59.7387C39.4103 67.9332 35.7126 73.2904 27.0478 77.6458C26.9101 77.7108 26.7648 77.7452 26.6195 77.7452Z" fill="#FBFBFC"/>
<path fill-rule="evenodd" clip-rule="evenodd" d="M26.6195 48.6211C24.1803 51.4173 19.8808 52.3456 14.98 52.3456V59.7946C14.98 67.4729 18.385 72.415 26.6195 76.553C34.854 72.415 38.259 67.4729 38.259 59.7946V52.3456C33.3582 52.3456 29.0586 51.4173 26.6195 48.6211Z" fill="#243A5E"/>
<path fill-rule="evenodd" clip-rule="evenodd" d="M26.6196 48.6211V76.553C34.8541 72.415 38.2591 67.4729 38.2591 59.7946V52.3456C33.3583 52.3456 29.0588 51.4173 26.6196 48.6211Z" fill="#002D4C"/>
<path d="M30.8221 58.7204C30.8221 56.4146 28.9331 54.5218 26.6273 54.5218C24.551 54.5218 22.8187 56.0475 22.4899 58.0321H24.2068C24.3215 57.6268 24.5395 57.2521 24.8492 56.9423C25.3272 56.4643 25.9581 56.2043 26.6235 56.2043C27.2927 56.2043 27.9198 56.4643 28.3977 56.9423C28.8757 57.4203 29.1358 58.0512 29.1358 58.7166C29.1358 58.8504 29.1358 59.229 29.1319 59.7299H22.4287V68.1539H30.8182V60.2844C30.8221 59.5234 30.8221 58.904 30.8221 58.7204Z" fill="white"/>
<path d="M26.6275 64.8615C27.2278 64.8615 27.7135 64.3759 27.7135 63.7755C27.7135 63.1752 27.2278 62.6895 26.6275 62.6895C26.0271 62.6895 25.5415 63.1752 25.5415 63.7755C25.5415 64.3759 26.0271 64.8615 26.6275 64.8615Z" fill="#002D4C"/>
<defs>
<linearGradient id="paint0_linear_1044_2636" x1="21.0758" y1="-27.9379" x2="281.011" y2="362.792" gradientUnits="userSpaceOnUse">
<stop offset="0.0435" stop-color="white"/>
<stop offset="0.4857" stop-color="#4DC1EA"/>
<stop offset="0.8452" stop-color="#0078D4"/>
</linearGradient>
<linearGradient id="paint1_linear_1044_2636" x1="56.2829" y1="-9.54411" x2="54.9025" y2="106.31" gradientUnits="userSpaceOnUse">
<stop offset="0.135417" stop-color="#2E77BC"/>
<stop offset="0.484375" stop-color="#1D4A79"/>
<stop offset="0.932292" stop-color="#092E4C"/>
</linearGradient>
<linearGradient id="paint2_linear_1044_2636" x1="35.3697" y1="8.42001" x2="98.0338" y2="124.377" gradientUnits="userSpaceOnUse">
<stop offset="0.135417" stop-color="#2E77BC"/>
<stop offset="0.484375" stop-color="#1D4A79"/>
<stop offset="0.932292" stop-color="#092E4C"/>
</linearGradient>
</defs>
</svg>
