<svg width="102" height="102" viewBox="0 0 102 102" fill="none" xmlns="http://www.w3.org/2000/svg">
<path d="M50.9995 97.8102C44.8523 97.8102 38.7652 96.5994 33.0859 94.247C27.4067 91.8946 22.2461 88.4466 17.8994 84.0999C13.5527 79.7531 10.1049 74.5929 7.75244 68.9136C5.40002 63.2344 4.18945 57.1474 4.18945 51.0002C4.1921 38.5871 9.12503 26.6834 17.9033 17.907C26.6816 9.13057 38.5865 4.2002 50.9995 4.2002C63.4143 4.2002 75.3205 9.13194 84.0991 17.9105C92.8777 26.6891 97.8091 38.5954 97.8091 51.0102C97.8064 63.4232 92.8735 75.327 84.0952 84.1034C75.3169 92.8798 63.4126 97.8102 50.9995 97.8102V97.8102Z" fill="url(#paint0_linear)"/>
<path fill-rule="evenodd" clip-rule="evenodd" d="M96.8994 51.0101C96.8994 63.1835 92.0635 74.8584 83.4556 83.4663C74.8476 92.0742 63.1729 96.9101 50.9995 96.9101C38.8261 96.9101 27.1509 92.0742 18.543 83.4663C9.93505 74.8584 5.09912 63.1835 5.09912 51.0101C5.09912 38.8367 9.93505 27.1618 18.543 18.5539C27.1509 9.94598 38.8261 5.11011 50.9995 5.11011C63.1729 5.11011 74.8476 9.94598 83.4556 18.5539C92.0635 27.1618 96.8994 38.8367 96.8994 51.0101V51.0101ZM50.9995 1.37012C57.5187 1.3688 63.9739 2.65188 69.9971 5.14606C76.0203 7.64024 81.4933 11.2966 86.103 15.9064C90.7128 20.5162 94.3691 25.989 96.8633 32.0121C99.3575 38.0353 100.64 44.4909 100.639 51.0101C100.639 64.1754 95.4094 76.8016 86.1001 86.1109C76.7908 95.4202 64.1649 100.65 50.9995 100.65C37.8342 100.65 25.2077 95.4202 15.8984 86.1109C6.58913 76.8016 1.35938 64.1754 1.35938 51.0101C1.35806 44.4909 2.64108 38.0353 5.13525 32.0121C7.62943 25.989 11.2857 20.5162 15.8955 15.9064C20.5053 11.2966 25.9783 7.64024 32.0015 5.14606C38.0247 2.65188 44.4803 1.3688 50.9995 1.37012V1.37012Z" fill="#F2F1F0"/>
<path fill-rule="evenodd" clip-rule="evenodd" d="M94.0898 51.0002C94.0898 56.6588 92.975 62.2621 90.8096 67.49C88.6441 72.7179 85.4705 77.4681 81.4692 81.4694C77.468 85.4707 72.7177 88.6447 67.4897 90.8102C62.2618 92.9756 56.6587 94.0902 51 94.0902C39.5718 94.0902 28.6117 89.5504 20.5308 81.4694C12.4498 73.3885 7.90967 62.4284 7.90967 51.0002C7.90967 39.572 12.4498 28.6119 20.5308 20.531C28.6117 12.45 39.5718 7.91019 51 7.91019C56.6587 7.91019 62.2618 9.02474 67.4897 11.1902C72.7177 13.3557 77.468 16.5297 81.4692 20.531C85.4705 24.5323 88.6441 29.2825 90.8096 34.5104C92.975 39.7383 94.0898 45.3415 94.0898 51.0002V51.0002ZM51 4.2002C63.4201 4.2002 75.3314 9.13405 84.1138 17.9164C92.8961 26.6987 97.8296 38.6101 97.8296 51.0302C97.8296 63.4503 92.8961 75.3617 84.1138 84.144C75.3314 92.9263 63.4201 97.8602 51 97.8602C38.5799 97.8602 26.6686 92.9263 17.8862 84.144C9.1039 75.3617 4.16992 63.4503 4.16992 51.0302C4.16992 38.6101 9.1039 26.6987 17.8862 17.9164C26.6686 9.13405 38.5799 4.2002 51 4.2002Z" fill="url(#paint1_linear)"/>
<path d="M79.6607 66.25H65.4307V67.05H79.6607V66.25Z" fill="white"/>
<path d="M79.6607 55.9399H65.4307V56.7399H79.6607V55.9399Z" fill="white"/>
<path d="M79.6607 45.6001H65.4307V46.4001H79.6607V45.6001Z" fill="white"/>
<path d="M79.6607 35.27H65.4307V36.07H79.6607V35.27Z" fill="white"/>
<path d="M85.3008 31.1201H75.021C74.7221 31.1227 74.436 31.2426 74.2246 31.4539C74.0133 31.6653 73.8932 31.9512 73.8906 32.2501V38.5401C73.8933 38.8381 74.0135 39.1229 74.2251 39.3327C74.4367 39.5424 74.723 39.6601 75.021 39.6601H85.3008C85.5978 39.6601 85.8827 39.5421 86.0928 39.3321C86.3028 39.122 86.4209 38.8371 86.4209 38.5401V32.2701C86.4185 31.971 86.3005 31.6844 86.0918 31.4701C85.8831 31.2558 85.5997 31.1304 85.3008 31.1201V31.1201Z" fill="#74CFEB"/>
<path d="M85.3008 52.0601H75.021C74.7221 52.0627 74.436 52.1826 74.2246 52.3939C74.0133 52.6053 73.8932 52.8912 73.8906 53.1901V59.5001C73.8933 59.798 74.0135 60.0829 74.2251 60.2926C74.4367 60.5024 74.723 60.6201 75.021 60.6201H85.3008C85.5978 60.6201 85.8827 60.5021 86.0928 60.292C86.3028 60.082 86.4209 59.7971 86.4209 59.5001V53.2001C86.4209 52.9012 86.3032 52.6142 86.0938 52.401C85.8843 52.1877 85.5996 52.0653 85.3008 52.0601V52.0601Z" fill="#44C7F0"/>
<path d="M85.3008 41.5703H75.021C74.7221 41.5729 74.436 41.6928 74.2246 41.9042C74.0133 42.1155 73.8932 42.4014 73.8906 42.7003V48.9903C73.8932 49.2892 74.0133 49.5751 74.2246 49.7865C74.436 49.9978 74.7221 50.1177 75.021 50.1203H85.3008C85.5987 50.1177 85.8835 49.9975 86.0933 49.7858C86.303 49.5742 86.4209 49.2883 86.4209 48.9903V42.7203C86.4236 42.4197 86.3074 42.1301 86.0977 41.9148C85.8879 41.6994 85.6014 41.5756 85.3008 41.5703V41.5703Z" fill="#74CFEB"/>
<path d="M85.3008 62.4902H75.021C74.7221 62.4928 74.436 62.6127 74.2246 62.8241C74.0133 63.0354 73.8932 63.3214 73.8906 63.6202V69.9302C73.8933 70.2282 74.0135 70.5131 74.2251 70.7228C74.4367 70.9326 74.723 71.0502 75.021 71.0502H85.3008C85.5978 71.0502 85.8827 70.9322 86.0928 70.7222C86.3028 70.5122 86.4209 70.2273 86.4209 69.9302V63.6402C86.4185 63.3411 86.3005 63.0545 86.0918 62.8402C85.8831 62.6259 85.5997 62.5005 85.3008 62.4902Z" fill="#2E76BC"/>
<path opacity="0.2" d="M68.1201 79.6403C68.8123 79.6403 69.4764 79.3653 69.9658 78.8758C70.4553 78.3863 70.7305 77.7225 70.7305 77.0302V29.7603H19.6104V77.0302C19.6104 77.7225 19.885 78.3863 20.3745 78.8758C20.864 79.3653 21.528 79.6403 22.2202 79.6403H68.1201Z" fill="#1F1D20"/>
<path d="M70.7505 28.9802V28.2002C70.7505 27.7254 70.5618 27.2701 70.2261 26.9344C69.8904 26.5988 69.4352 26.4102 68.9605 26.4102H21.4004C20.9257 26.4102 20.4705 26.5988 20.1348 26.9344C19.7991 27.2701 19.6104 27.7254 19.6104 28.2002V75.4102C19.6091 75.6461 19.6543 75.8799 19.7437 76.0982C19.833 76.3166 19.9645 76.5151 20.1309 76.6823C20.2972 76.8496 20.4951 76.9824 20.7129 77.073C20.9307 77.1635 21.1645 77.2102 21.4004 77.2102H69.0005C69.2364 77.2102 69.4697 77.1635 69.6875 77.073C69.9054 76.9824 70.1032 76.8496 70.2696 76.6823C70.4359 76.5151 70.5674 76.3166 70.6568 76.0982C70.7461 75.8799 70.7919 75.6461 70.7906 75.4102V29.0802C70.7906 29.0802 70.7505 29.0002 70.7505 28.9802Z" fill="white"/>
<path d="M52.9101 54.0703L47.3701 59.6003L54.4501 66.6903L57.7601 63.3803H52.9101V54.0703Z" fill="#3075BB"/>
<path d="M40.2929 37.4849L32.7695 45.0083L39.8548 52.0935L47.3781 44.5702L40.2929 37.4849Z" fill="#3274B7"/>
<path d="M32.8799 59.3601L40.2799 66.6901L47.3699 59.6001L39.8499 52.0801L32.8799 59.3601Z" fill="#8F79B4"/>
<path d="M52.9101 40.8401H57.8101L54.7601 37.5801L47.3701 44.5601L52.9101 50.1001V40.8401Z" fill="#9176B5"/>
<path d="M52.9106 50.1001L47.3706 44.5601L39.8506 52.0801L47.3706 59.6001L52.9106 54.0701V50.1001Z" fill="#6E6AAC"/>
<path d="M63.4106 41.5203L57.8106 40.8403L61.9706 45.0003L54.8906 52.0803L61.8306 59.3303L57.7606 63.3803H63.4106V41.5203Z" fill="#89D4EE"/>
<path opacity="0.5" d="M54.8902 52.0801L52.9102 54.0701V63.3801H57.7602L61.8002 59.3601L54.8902 52.0801Z" fill="#2F75BC"/>
<path d="M54.8902 52.0801L52.9102 54.0701V63.3801H57.7602L61.9702 59.3901L54.8902 52.0801Z" fill="#3075BB"/>
<path d="M52.9102 50.1003L54.8902 52.0803L61.9702 45.0003L57.8102 40.8403H52.9102V50.1003Z" fill="#8E79B7"/>
<path d="M52.9102 50.1003L54.8902 52.0803L61.9702 45.0003L57.8102 40.8403L53.0502 40.9503L52.9102 50.1003Z" fill="#78C3E3"/>
<path d="M52.9102 54.0701L54.8902 52.0801L52.9102 50.1001V54.0701Z" fill="#8E79B7"/>
<path d="M52.9102 54.0701L54.8902 52.0801L52.9102 50.1001V54.0701Z" fill="#76BDD9"/>
<path d="M36.7302 46.6703C39.6463 46.6703 42.0102 44.3064 42.0102 41.3904C42.0102 38.4743 39.6463 36.1104 36.7302 36.1104C33.8141 36.1104 31.4502 38.4743 31.4502 41.3904C31.4502 44.3064 33.8141 46.6703 36.7302 46.6703Z" fill="#2F75BC"/>
<path d="M58.1404 68.1801C61.0564 68.1801 63.4203 65.8162 63.4203 62.9001C63.4203 59.9841 61.0564 57.6201 58.1404 57.6201C55.2243 57.6201 52.8604 59.9841 52.8604 62.9001C52.8604 65.8162 55.2243 68.1801 58.1404 68.1801Z" fill="#6DC1E6"/>
<path d="M29.0305 57.4203C31.9576 57.4203 34.3305 55.0474 34.3305 52.1203C34.3305 49.1932 31.9576 46.8203 29.0305 46.8203C26.1034 46.8203 23.7305 49.1932 23.7305 52.1203C23.7305 55.0474 26.1034 57.4203 29.0305 57.4203Z" fill="#8367AD"/>
<path d="M29.0298 56.3102C31.3439 56.3102 33.2198 54.4342 33.2198 52.1202C33.2198 49.8061 31.3439 47.9302 29.0298 47.9302C26.7158 47.9302 24.8398 49.8061 24.8398 52.1202C24.8398 54.4342 26.7158 56.3102 29.0298 56.3102Z" fill="#FFFFFA"/>
<path d="M47.4905 57.4904C50.4895 57.4904 52.9205 55.0593 52.9205 52.0604C52.9205 49.0615 50.4895 46.6304 47.4905 46.6304C44.4916 46.6304 42.0605 49.0615 42.0605 52.0604C42.0605 55.0593 44.4916 57.4904 47.4905 57.4904Z" fill="#FFFFFA"/>
<path d="M47.4903 56.0201C49.6773 56.0201 51.4503 54.2471 51.4503 52.0601C51.4503 49.8731 49.6773 48.1001 47.4903 48.1001C45.3032 48.1001 43.5303 49.8731 43.5303 52.0601C43.5303 54.2471 45.3032 56.0201 47.4903 56.0201Z" fill="#7465AD"/>
<path d="M63.4209 41.4001C63.4315 42.088 63.3051 42.7712 63.0498 43.41C62.7945 44.0488 62.4149 44.6307 61.9331 45.1218C61.4513 45.6129 60.877 46.0035 60.2432 46.271C59.6093 46.5385 58.9287 46.6776 58.2407 46.6801C56.8421 46.6775 55.5017 46.12 54.5137 45.1301C53.5256 44.1402 52.9707 42.7987 52.9707 41.4001C52.9707 40.0015 53.5256 38.66 54.5137 37.6701C55.5017 36.6802 56.8421 36.1228 58.2407 36.1201C58.9287 36.1227 59.6093 36.2617 60.2432 36.5292C60.877 36.7967 61.4513 37.1873 61.9331 37.6784C62.4149 38.1695 62.7945 38.7514 63.0498 39.3902C63.3051 40.029 63.4315 40.7122 63.4209 41.4001Z" fill="#354F74"/>
<path d="M36.7302 68.0302C39.6463 68.0302 42.0102 65.6663 42.0102 62.7502C42.0102 59.8342 39.6463 57.4702 36.7302 57.4702C33.8141 57.4702 31.4502 59.8342 31.4502 62.7502C31.4502 65.6663 33.8141 68.0302 36.7302 68.0302Z" fill="#473B67"/>
<path d="M36.7302 46.6703C39.6463 46.6703 42.0102 44.3064 42.0102 41.3904C42.0102 38.4743 39.6463 36.1104 36.7302 36.1104C33.8141 36.1104 31.4502 38.4743 31.4502 41.3904C31.4502 44.3064 33.8141 46.6703 36.7302 46.6703Z" fill="#2F75BC"/>
<path d="M58.1404 68.1801C61.0564 68.1801 63.4203 65.8162 63.4203 62.9001C63.4203 59.9841 61.0564 57.6201 58.1404 57.6201C55.2243 57.6201 52.8604 59.9841 52.8604 62.9001C52.8604 65.8162 55.2243 68.1801 58.1404 68.1801Z" fill="#6DC1E6"/>
<defs>
<linearGradient id="paint0_linear" x1="49.2393" y1="-13.7798" x2="53.2193" y2="131.99" gradientUnits="userSpaceOnUse">
<stop stop-color="#00ABDE"/>
<stop offset="1" stop-color="#2E7BBF"/>
</linearGradient>
<linearGradient id="paint1_linear" x1="2.43993" y1="-20.6198" x2="97.9601" y2="120.26" gradientUnits="userSpaceOnUse">
<stop stop-color="#2E7BBF"/>
<stop offset="0.71" stop-color="#092D4C"/>
</linearGradient>
</defs>
</svg>
