<?xml version="1.0" encoding="UTF-8"?>
<svg width="151px" height="181px" viewBox="0 0 151 181" version="1.1" xmlns="http://www.w3.org/2000/svg" xmlns:xlink="http://www.w3.org/1999/xlink">
    <!-- Generator: Sketch 59.1 (86144) - https://sketch.com -->
    <title>Ignite - Trophies/manage-security-with-microsoft-365</title>
    <desc>Created with Sketch.</desc>
    <defs>
        <path d="M0,33.2969808 L0,100 L0,100 C0,138.66 31.33998,170 70.0002438,170 C108.66002,170 140,138.66 140,100 L140,33.2969808 C140,31.2968402 138.808016,29.4891496 136.969596,28.7012556 L71.9695965,0.844112783 C70.7118525,0.305079649 69.2881475,0.305079649 68.0304035,0.844112783 L3.03040351,28.7012556 C1.19198427,29.4891496 1.53141027e-15,31.2968402 0,33.2969808 Z" id="path-1"></path>
        <path d="M50.0001741,100 C22.3857,100 0,77.6142857 0,50 C0,22.3857143 22.3857,0 50.0001741,0 C77.6143,0 100,22.3857143 100,50 C100,77.6142857 77.6143,100 50.0001741,100 Z" id="path-3"></path>
        <filter x="-19.7%" y="-17.6%" width="139.3%" height="135.3%" filterUnits="objectBoundingBox" id="filter-5">
            <feOffset dx="0" dy="2" in="SourceAlpha" result="shadowOffsetOuter1"></feOffset>
            <feGaussianBlur stdDeviation="2" in="shadowOffsetOuter1" result="shadowBlurOuter1"></feGaussianBlur>
            <feColorMatrix values="0 0 0 0 0   0 0 0 0 0   0 0 0 0 0  0 0 0 0.1 0" type="matrix" in="shadowBlurOuter1" result="shadowMatrixOuter1"></feColorMatrix>
            <feMerge>
                <feMergeNode in="shadowMatrixOuter1"></feMergeNode>
                <feMergeNode in="SourceGraphic"></feMergeNode>
            </feMerge>
        </filter>
        <linearGradient x1="50.0231672%" y1="100.00283%" x2="50.0231672%" y2="0%" id="linearGradient-6">
            <stop stop-color="#0078D4" offset="0%"></stop>
            <stop stop-color="#0A7CD7" offset="6%"></stop>
            <stop stop-color="#2E8CE1" offset="34%"></stop>
            <stop stop-color="#4897E9" offset="59%"></stop>
            <stop stop-color="#589EED" offset="82%"></stop>
            <stop stop-color="#5EA0EF" offset="100%"></stop>
        </linearGradient>
        <linearGradient x1="50%" y1="0%" x2="50%" y2="100%" id="linearGradient-7">
            <stop stop-color="#1E5CA5" offset="0%"></stop>
            <stop stop-color="#225496" offset="100%"></stop>
        </linearGradient>
        <path d="M30,16.3580247 L30,12.9012346 L26.4669421,11.6666667 L25.5991736,9.32098765 L27.3347107,5.67901235 L27.3347107,5.30864198 L26.2190083,4.19753086 L24.9173554,2.71604938 L24.4214876,2.71604938 L20.9504132,4.56790123 L18.5950413,3.88888889 L17.0454545,0 L13.6363636,0 L12.4586777,3.51851852 L9.8553719,4.56790123 L5.82644628,2.65432099 L3.40909091,5.0617284 L3.40909091,5.49382716 L5.20661157,8.95061728 L4.15289256,11.5432099 L0,13.0864198 L0,16.5432099 L0.495867769,16.5432099 L4.15289256,17.7777778 L5.1446281,20.1234568 L3.28512397,24.1358025 L5.70247934,26.6049383 L6.19834711,26.6049383 L9.60743802,24.8765432 L12.0247934,25.8641975 L13.5123967,30 L16.9834711,30 L16.9834711,29.5061728 L18.161157,25.8024691 L20.5165289,24.8148148 L24.607438,26.7283951 L27.0247934,24.3209877 L27.0247934,23.8271605 L25.2892562,20.3703704 L25.9710744,17.962963 L30,16.3580247 Z M15.248605,19.2853149 C12.6659463,19.0080089 10.7142857,16.9329417 10.7142857,14.4642831 C10.7142857,11.9956246 12.6659463,9.92055734 15.248605,9.64325138 C16.5973811,9.62682591 17.8968781,10.1242588 18.8567409,11.0244054 C19.8166037,11.924552 20.3568332,13.1523902 20.3567224,14.4335759 L20.3567224,14.4335759 C20.3742737,15.7253755 19.8417366,16.9691439 18.8799477,17.8826601 C17.9181589,18.7961764 16.6086666,19.3019854 15.248605,19.2853149 Z" id="path-8"></path>
        <filter x="0.0%" y="0.0%" width="100.0%" height="100.0%" filterUnits="objectBoundingBox" id="filter-9">
            <feOffset dx="0" dy="0" in="SourceAlpha" result="shadowOffsetOuter1"></feOffset>
            <feColorMatrix values="0 0 0 0 0   0 0 0 0 0   0 0 0 0 0  0 0 0 0.1 0" type="matrix" in="shadowOffsetOuter1"></feColorMatrix>
        </filter>
    </defs>
    <g id="Badges-2.0" stroke="none" stroke-width="1" fill="none" fill-rule="evenodd">
        <g id="Ignite---Trophies-2" transform="translate(-89.000000, -1121.000000)">
            <g id="Ignite---Trophies/manage-security-with-microsoft-365" transform="translate(114.000000, 1171.000000)">
                <g id="Manage-security-with-Microsoft-365">
                    <g id="Plate/Badge" transform="translate(-0.000000, 0.000000)">
                        <g id="BG" stroke-width="1" fill-rule="evenodd" transform="translate(-20.000000, -45.000000)">
                            <mask id="mask-2" fill="white">
                                <use xlink:href="#path-1"></use>
                            </mask>
                            <path stroke="#FFFFFF" stroke-width="5" d="M-2.5,33.2969808 C-2.5,30.29677 -0.712023598,27.585234 2.04560526,26.4033931 L67.0456053,-1.45374979 C68.9322212,-2.26229949 71.0677788,-2.26229949 72.9543947,-1.45374979 L137.954395,26.4033931 C140.712024,27.585234 142.5,30.29677 142.5,33.2969808 L142.5,100 C142.5,140.04068 110.040764,172.5 70.0002438,172.5 C29.959314,172.5 -2.5,140.040758 -2.5,100 L-2.5,33.2969808 Z"></path>
                            <g id="Color-/-Azure" mask="url(#mask-2)" fill="#0078D4">
                                <rect id="Rectangle" x="0" y="0" width="140" height="170"></rect>
                            </g>
                        </g>
                        <path d="M-17.5,-11.7030192 L-17.5,55 C-17.5,92.2793315 12.7207352,122.5 50.0002438,122.5 C87.2793374,122.5 117.5,92.2792588 117.5,55 L117.5,-11.7030192 C117.5,-12.7030895 116.904008,-13.6069348 115.984798,-14.0008818 L50.9847982,-41.8580246 C50.3559263,-42.1275412 49.6440737,-42.1275412 49.0152018,-41.8580246 L-15.9847982,-14.0008818 C-16.9040079,-13.6069348 -17.5,-12.7030895 -17.5,-11.7030192 Z" id="Inner-Rim" stroke="#000000" stroke-width="5" opacity="0.200000003"></path>
                        <path d="M50.0001741,100 C22.3857,100 0,77.6142857 0,50 C0,22.3857143 22.3857,0 50.0001741,0 C77.6143,0 100,22.3857143 100,50 C100,77.6142857 77.6143,100 50.0001741,100 Z" id="White" fill="#FFFFFF" fill-rule="evenodd" opacity="0.800000012"></path>
                    </g>
                    <g id="Icon" transform="translate(-0.000000, 0.000000)">
                        <mask id="mask-4" fill="white">
                            <use xlink:href="#path-3"></use>
                        </mask>
                        <g id="BG-Mask" opacity="0.800000012"></g>
                    </g>
                    <g id="Group-19" filter="url(#filter-5)" transform="translate(19.000000, 17.000000)">
                        <g id="Icon-security-241-Security-Center" fill-rule="nonzero">
                            <path d="M56,31.7475214 C56,50.0203392 33.7740113,64.7345557 28.9096045,67.733377 C28.3541724,68.0888743 27.6458276,68.0888743 27.0903955,67.733377 C22.2259887,64.77454 0,50.0603235 0,31.7475214 L0,9.75616528 C0,8.79992907 0.755006411,8.01858939 1.70056503,7.99685678 C19.0225989,7.55702966 15.0282486,0 28,0 C40.9717514,0 36.9774011,7.55702966 54.299435,7.99685678 C55.2449936,8.01858939 56,8.79992907 56,9.75616528 L56,31.7475214 Z" id="Path" fill="#0078D4"></path>
                            <path d="M56,31.7475214 C56,50.0203392 33.7740113,64.7345557 28.9096045,67.733377 C28.3541724,68.0888743 27.6458276,68.0888743 27.0903955,67.733377 C22.2259887,64.77454 0,50.0603235 0,31.7475214 L0,9.75616528 C0,8.79992907 0.755006411,8.01858939 1.70056503,7.99685678 C19.0225989,7.55702966 15.0282486,0 28,0 C40.9717514,0 36.9774011,7.55702966 54.299435,7.99685678 C55.2449936,8.01858939 56,8.79992907 56,9.75616528 L56,31.7475214 Z" id="Path" fill="#0078D4"></path>
                            <path d="M54,31.9314991 C54,48.6457076 33.3695634,62.0568702 28.8516577,64.7629801 C28.3369412,65.0790066 27.6871526,65.0790066 27.1724361,64.7629801 C22.6545304,62.0568702 2.02409386,48.6457076 2.02409386,31.9314991 L2.02409386,12.0336318 C1.9419606,11.5619646 2.07206715,11.0781911 2.37995342,10.7104439 C2.68783969,10.3426967 3.14244141,10.1280797 3.62335251,10.1234365 C19.6959019,9.84486636 16.017607,3 28.0120469,3 C40.0064868,3 36.3281919,9.84486636 52.4007413,10.1234365 C53.2751078,10.1444168 53.9789218,10.8449612 54,11.7152659 L54,31.9314991 Z" id="Path" fill="url(#linearGradient-6)"></path>
                            <path d="M39.7006023,28.8082209 L38.1286114,28.8082209 L38.1286114,23.1834637 C38.1559306,20.5267853 37.171326,17.9607194 35.3776274,16.0138788 C33.6146849,14.0924619 31.1360086,13 28.539467,13 C25.9429253,13 23.4642491,14.0924619 21.7013066,16.0138788 C19.9041303,17.9585262 18.9189665,20.5260494 18.9503226,23.1834637 L18.9503226,28.8082209 L17.3783317,28.8082209 C17.0107663,28.7724882 16.6461944,28.9013884 16.3813239,29.1607286 C16.1164533,29.4200689 15.9780545,29.7836378 16.0028397,30.1549937 L16.0028397,44.7318292 C16.0026734,45.0749816 16.1405504,45.4035395 16.3849643,45.6424236 C16.6293781,45.8813077 16.9594419,46.0101037 17.2997321,45.9993802 L39.7006023,45.9993802 C40.0408925,46.0101037 40.3709563,45.8813077 40.6153702,45.6424236 C40.859784,45.4035395 40.9976611,45.0749816 40.9974948,44.7318292 L40.9974948,30.1549937 C41.0198518,29.7983196 40.8917832,29.4487061 40.6448287,29.1922533 C40.3978742,28.9358006 40.0549839,28.7963414 39.7006023,28.8082209 Z M33.6091376,28.8082209 L23.3911968,28.8082209 L23.3911968,23.1042417 C23.3935096,21.6222637 23.971967,20.2002198 25.0024875,19.1431451 C25.8900294,18.1352578 27.1631299,17.5584558 28.5001672,17.5584558 C29.8372045,17.5584558 31.1103051,18.1352578 31.997847,19.1431451 C32.2286356,19.3894 32.438943,19.6543659 32.6266433,19.9353644 L32.6266433,19.9353644 C33.2599145,20.8546345 33.6024177,21.945515 33.6091376,23.0646308 L33.6091376,28.8082209 Z" id="Shape" fill="#FFBD02"></path>
                            <path d="M16.324534,29.00071 L39.1587398,29.00071 C39.4686821,29.002324 39.7675443,29.1162691 40,29.3214513 L15.4832738,46 C15.1940918,45.7618788 15.0193863,45.412183 15.0025537,45.037776 L15.0025537,30.3638606 C14.9797642,30.0028491 15.1103102,29.648984 15.362042,29.3894126 C15.6137737,29.1298412 15.9632971,28.9886861 16.324534,29.00071 Z" id="Path" fill="#FFE452"></path>
                            <path d="M39.675466,29.00071 L16.8412602,29.00071 C16.5313179,29.002324 16.2324557,29.1162691 16,29.3214513 L40.5167262,46 C40.8193465,45.7728497 40.9974463,45.4163598 40.9974463,45.037776 L40.9974463,30.3638606 C41.0202358,30.0028491 40.8896898,29.648984 40.637958,29.3894126 C40.3862263,29.1298412 40.0367029,28.9886861 39.675466,29.00071 Z" id="Path" fill="#FFD400" opacity="0.5"></path>
                        </g>
                        <g id="a30ee4c9-49d5-4d00-a305-a6a3597e53b7" transform="translate(31.000000, 36.000000)" fill-rule="nonzero">
                            <g id="Shape">
                                <use fill="black" fill-opacity="1" filter="url(#filter-9)" xlink:href="#path-8"></use>
                                <use fill="url(#linearGradient-7)" xlink:href="#path-8"></use>
                            </g>
                        </g>
                        <circle id="Oval" fill="#FFFFFF" cx="46.5" cy="50.5" r="4.5"></circle>
                    </g>
                </g>
            </g>
        </g>
    </g>
</svg>