<svg width="181" height="191" viewBox="0 0 181 191" fill="none" xmlns="http://www.w3.org/2000/svg">
<path d="M90.8591 189.508C93.9409 189.503 96.9617 188.648 99.5892 187.038L161.589 149.378C164.376 147.619 166.667 145.175 168.242 142.28C169.817 139.384 170.625 136.134 170.589 132.838V58.1283C170.623 54.8329 169.813 51.5837 168.238 48.689C166.663 45.7942 164.374 43.35 161.589 41.5883L99.5892 3.92822C96.9551 2.34284 93.9386 1.50513 90.8641 1.50513C87.7897 1.50513 84.7733 2.34284 82.1392 3.92822L20.1392 41.6083C17.3528 43.3686 15.0631 45.8125 13.4878 48.7075C11.9125 51.6026 11.1039 54.8525 11.1392 58.1482V132.848C11.1207 135.631 11.6953 138.386 12.8247 140.929C13.9541 143.472 15.6124 145.746 17.6892 147.598V147.598L82.0993 187.028C84.7362 188.643 87.7668 189.502 90.8591 189.508V189.508ZM91.5092 8.5083C93.5092 8.5083 95.9392 9.71819 97.6492 10.7682L158.409 47.9583C162.159 50.2383 164.279 56.8383 164.279 61.5883L163.649 132.888C163.649 137.638 160.449 141.888 156.649 144.188L96.2492 180.568C92.8192 182.658 90.0292 182.658 86.5892 180.568L25.3792 144.098C21.6292 141.818 18.6091 137.618 18.6091 132.888V59.1982C18.641 56.8325 19.2497 54.5102 20.3825 52.433C21.5152 50.3558 23.1376 48.5863 25.1091 47.2782L85.6892 10.7183C87.4392 9.67826 89.5592 8.45825 91.5092 8.45825V8.5083Z" fill="url(#paint0_linear_735_29007)"/>
<path fill-rule="evenodd" clip-rule="evenodd" d="M98.7592 12.0392C96.3864 10.5691 93.6505 9.79028 90.8592 9.79028C88.0679 9.79028 85.3321 10.5691 82.9593 12.0392L26.8293 46.3693C24.3026 47.9806 22.2295 50.2107 20.8067 52.8481C19.3838 55.4856 18.6585 58.4428 18.6993 61.4392V129.539C18.6594 132.535 19.3853 135.492 20.808 138.13C22.2308 140.767 24.3033 142.997 26.8293 144.609L82.9593 178.939C85.3321 180.409 88.0679 181.188 90.8592 181.188C93.6505 181.188 96.3864 180.409 98.7592 178.939L154.889 144.609C157.414 142.996 159.485 140.765 160.908 138.128C162.33 135.491 163.057 132.535 163.019 129.539V61.4392C163.057 58.4433 162.33 55.4871 160.908 52.8502C159.485 50.2133 157.414 47.9827 154.889 46.3693L98.7592 12.0392Z" fill="url(#paint1_linear_735_29007)"/>
<path d="M23.1692 120.689L32.3992 125.979L23.2491 131.239L18.6492 128.599V129.129L22.8092 131.519L19.1292 133.639L19.2692 134.069L23.2692 131.779L32.4592 137.059L23.3392 142.299L21.6892 141.349L21.8992 141.979L90.4092 181.579L90.8392 181.289L81.5092 175.909L90.7792 170.579L99.9792 175.859L100.389 175.579L91.2391 170.309L100.469 164.999L109.829 170.369L110.059 169.959L100.939 164.739L110.059 159.499L119.299 164.809L119.629 164.449L110.529 159.219L119.729 153.939L128.919 159.219L129.459 159.009L120.169 153.679L129.399 148.379L138.539 153.629L139.079 153.419L129.849 148.119L138.989 142.859L148.139 148.119L148.669 147.909L139.439 142.609L148.669 137.299L157.759 142.529L158.289 142.319L149.109 137.049L158.289 131.769L162.979 134.459V133.969L158.709 131.509L163.249 128.899V128.369L158.249 131.259L149.079 125.989L158.339 120.659L163.519 123.659V123.149L120.219 98.1489L100.959 87.0289L100.769 86.959L91.3792 81.5389L90.9492 81.259L19.1692 122.479V123.019L23.1692 120.689ZM23.6992 131.499L32.8392 126.229L42.0592 131.519L32.8892 136.789L23.6992 131.499ZM81.5292 131.499L90.7592 126.199L99.8992 131.439L90.6692 136.749L81.5292 131.499ZM90.2292 137.009L81.0192 142.299L71.8792 137.049L81.0892 131.759L90.2292 137.009ZM91.2292 125.939L100.379 120.679L109.509 125.929L100.359 131.189L91.2292 125.939ZM90.7792 125.679L81.5492 120.379L90.7092 115.119L99.9392 120.419L90.7792 125.679ZM90.3392 125.939L81.1091 131.239L71.8792 125.939L81.1091 120.639L90.3392 125.939ZM80.6592 131.499L71.4492 136.789L62.2192 131.489L71.4292 126.199L80.6592 131.499ZM70.9891 137.059L61.8392 142.319L52.5992 137.019L61.7592 131.749L70.9891 137.059ZM71.4392 137.309L80.5792 142.559L71.4392 147.819L62.2792 142.569L71.4392 137.309ZM81.0192 142.819L90.2491 148.119L81.1191 153.369L71.8792 148.079L81.0192 142.819ZM81.4891 142.549L90.6892 137.259L99.9192 142.559L90.7192 147.859L81.4891 142.549ZM91.1392 137.009L100.359 131.699L109.589 136.999L100.369 142.309L91.1392 137.009ZM100.809 131.439L109.959 126.179L119.189 131.489L110.039 136.749L100.809 131.439ZM110.399 125.929L119.629 120.619L128.859 125.929L119.629 131.229L110.399 125.929ZM109.959 125.669L100.829 120.419L110.059 115.119L119.179 120.369L109.959 125.669ZM100.379 120.169L91.1492 114.859L100.379 109.559L109.609 114.859L100.379 120.169ZM90.7092 114.609L81.5492 109.339L90.7792 104.039L99.9392 109.299L90.7092 114.609ZM90.2592 114.859L81.1091 120.129L71.9392 114.859L81.0992 109.599L90.2592 114.859ZM80.6592 120.379L71.4292 125.679L62.2692 120.419L71.4991 115.119L80.6592 120.379ZM70.9891 125.939L61.7692 131.239L52.6091 125.969L61.8192 120.679L70.9891 125.939ZM61.3192 131.499L52.1492 136.759L42.9792 131.499L52.1692 126.199L61.3192 131.499ZM51.6892 137.029L42.5192 142.299L33.3591 137.029L42.5192 131.769L51.6892 137.029ZM52.1392 137.279L61.3792 142.579L52.1892 147.859L42.9592 142.559L52.1392 137.279ZM61.8192 142.839L70.9692 148.089L61.7692 153.379L52.6292 148.119L61.8192 142.839ZM71.4192 148.339L80.6492 153.639L71.4392 158.939L62.2192 153.629L71.4192 148.339ZM81.0992 153.899L90.3792 159.219L81.1592 164.519L71.8892 159.189L81.0992 153.899ZM81.5692 153.629L90.6992 148.379L99.9692 153.709L90.8492 158.949L81.5692 153.629ZM91.1592 148.109L100.369 142.819L109.639 148.149L100.439 153.439L91.1592 148.109ZM100.809 142.559L110.039 137.259L119.309 142.589L110.079 147.889L100.809 142.559ZM110.479 136.999L119.629 131.739L128.899 137.069L119.759 142.329L110.479 136.999ZM120.079 131.489L129.299 126.179L138.579 131.509L129.349 136.809L120.079 131.489ZM129.749 125.929L138.919 120.649L148.199 125.979L139.019 131.249L129.749 125.929ZM129.299 125.669L120.079 120.369L129.249 115.089L138.479 120.399L129.299 125.669ZM119.629 120.109L110.499 114.859L119.669 109.589L128.799 114.839L119.629 120.109ZM110.059 114.609L100.829 109.299L109.999 104.039L119.229 109.339L110.059 114.609ZM100.379 109.049L91.2192 103.779L100.389 98.5189L109.549 103.779L100.379 109.049ZM90.7792 103.529L81.5092 98.199L90.6592 92.929L99.9392 98.259L90.7792 103.529ZM90.3292 103.779L81.0992 109.089L71.8492 103.769L81.0692 98.459L90.3292 103.779ZM80.6592 109.339L71.4991 114.609L62.2592 109.299L71.4092 104.029L80.6592 109.339ZM71.0492 114.859L61.8192 120.159L52.5892 114.859L61.8092 109.549L71.0492 114.859ZM61.3792 120.419L52.1592 125.719L42.9392 120.419L52.1492 115.119L61.3792 120.419ZM51.7092 125.979L42.5392 131.249L33.3192 125.959L42.4891 120.679L51.7092 125.979ZM23.7092 142.549L32.8292 137.309L41.9891 142.569L32.8492 147.829L23.7092 142.549ZM33.2892 148.089L42.4392 142.829L51.6592 148.129L42.4891 153.399L33.2892 148.089ZM42.9392 153.659L52.1091 148.389L61.2592 153.639L52.0592 158.929L42.9392 153.659ZM52.5092 159.189L61.6992 153.899L70.9292 159.199L61.7092 164.499L52.5092 159.189ZM62.1592 164.759L71.3792 159.459L80.6492 164.789L71.4092 170.099L62.1592 164.759ZM80.9891 175.639L71.8492 170.359L81.0992 165.039L90.2592 170.309L80.9891 175.639ZM90.7092 170.049L81.5492 164.779L90.7792 159.479L99.9492 164.739L90.7092 170.049ZM100.419 164.469L91.2391 159.209L100.369 153.959L109.529 159.229L100.419 164.469ZM109.999 158.959L100.839 153.689L110.029 148.399L119.199 153.669L109.999 158.959ZM119.649 153.409L110.479 148.149L119.709 142.839L128.869 148.109L119.649 153.409ZM129.319 147.849L120.149 142.589L129.299 137.329L138.469 142.599L129.319 147.849ZM138.909 142.339L129.749 137.069L138.969 131.769L148.139 137.039L138.909 142.339ZM157.759 131.499L148.589 136.779L139.419 131.509L148.589 126.229L157.759 131.499ZM157.849 120.399L148.589 125.719L139.319 120.389L148.599 115.049L157.849 120.399ZM148.159 114.799L138.869 120.139L129.639 114.839L138.949 109.479L148.159 114.799ZM138.509 109.229L129.199 114.579L120.069 109.339L129.409 103.969L138.509 109.229ZM128.959 103.709L119.619 109.079L110.389 103.779L119.759 98.3989L128.959 103.709ZM119.309 98.1389L109.949 103.519L100.779 98.259L110.169 92.869L119.309 98.1389ZM109.729 92.609L100.339 97.999L91.0592 92.679L100.459 87.259L109.729 92.609ZM90.9192 81.749L100.019 86.999L90.6091 92.4189L81.4692 87.1689L90.9192 81.749ZM81.0292 87.429L90.1692 92.679L81.0192 97.949L71.8691 92.689L81.0292 87.429ZM71.4192 92.939L80.5692 98.199L71.3492 103.509L62.1892 98.249L71.4192 92.939ZM61.7391 98.499L70.9092 103.769L61.7592 109.039L52.5792 103.769L61.7391 98.499ZM52.1392 104.019L61.3092 109.299L52.0992 114.599L42.8992 109.319L52.1392 104.019ZM42.4592 109.579L51.6492 114.859L42.4392 120.159L33.2391 114.879L42.4592 109.579ZM32.7892 115.129L41.9891 120.419L32.8192 125.709L23.5892 120.409L32.7892 115.129Z" fill="url(#paint2_linear_735_29007)"/>
<path fill-rule="evenodd" clip-rule="evenodd" d="M91.2892 11.259C92.9692 11.259 94.8592 12.129 96.9192 13.379L155.399 48.9189C157.291 50.1319 158.842 51.809 159.902 53.7904C160.963 55.7718 161.499 57.9919 161.459 60.239V130.719C161.498 132.966 160.962 135.186 159.901 137.167C158.84 139.148 157.291 140.825 155.399 142.039L96.9292 177.579C95.3217 178.836 93.3398 179.519 91.2992 179.519C89.2586 179.519 87.2767 178.836 85.6692 177.579L27.1692 142.049C25.3867 141.096 23.8629 139.723 22.7293 138.049C21.7293 136.449 21.1092 134.229 21.1092 130.769V60.2889C21.0694 58.0418 21.6056 55.8219 22.6663 53.8405C23.727 51.859 25.2772 50.182 27.1692 48.969L85.6292 13.429C87.7392 12.139 89.5992 11.259 91.2892 11.259ZM98.9992 181.009L157.469 145.469C159.952 143.901 161.991 141.723 163.391 139.142C164.792 136.562 165.507 133.665 165.469 130.729V60.249C165.507 57.3131 164.792 54.4164 163.391 51.8358C161.991 49.2552 159.952 47.0769 157.469 45.509L98.9992 9.96899C96.8892 8.68899 94.1792 7.25903 91.2892 7.25903C88.3992 7.25903 85.6793 8.69898 83.5893 9.95898L25.1192 45.509C22.6367 47.0769 20.5978 49.2552 19.1972 51.8358C17.7966 54.4164 17.0811 57.3131 17.1192 60.249V130.729C16.9669 133.993 17.7289 137.235 19.3192 140.089C20.7743 142.328 22.7598 144.172 25.0993 145.459L83.5592 180.999C85.794 182.647 88.4976 183.536 91.2742 183.536C94.0508 183.536 96.7544 182.647 98.9892 180.999L98.9992 181.009Z" fill="url(#paint3_linear_735_29007)"/>
<path opacity="0.15" d="M88.345 128.99C89.3567 128.99 90.1591 128.188 90.1591 127.176V65.739H26.9602V127.194C26.9602 128.205 27.7626 129.008 28.7744 129.008L88.345 128.99Z" fill="#1F1D20"/>
<path d="M90.1417 66.2629V65.2861C90.1417 64.065 89.1648 63.0881 87.9438 63.0881H29.1581C27.9371 63.0881 26.9602 64.065 26.9602 65.2861V66.3676V67.3619V125.258C26.9602 126.479 27.9371 127.456 29.1581 127.456H87.9612C89.1823 127.456 90.1591 126.479 90.1591 125.258V66.385C90.1591 66.3327 90.1417 66.3152 90.1417 66.2629Z" fill="white"/>
<path d="M116.586 104.549H98.3926V105.962H116.586V104.549Z" fill="white"/>
<path d="M116.586 83.9138H98.3926V85.3268H116.586V83.9138Z" fill="white"/>
<path d="M116.604 126.6H98.3925C98.0087 126.6 97.6773 126.286 97.6773 125.885V63.9422C97.6773 63.5585 97.9913 63.2271 98.3925 63.2271H116.586V64.64H99.1077V125.17H116.604V126.6Z" fill="white"/>
<path d="M98.445 94.6406H84.7516V96.4024H98.445V94.6406Z" fill="white"/>
<path d="M140.641 83.8616H122.43V85.2745H140.641V83.8616Z" fill="white"/>
<path d="M140.641 104.516H122.43V105.929H140.641V104.516Z" fill="white"/>
<path d="M140.624 126.599H122.43V125.186H139.926V64.6559H122.43V63.2429H140.641C141.025 63.2429 141.356 63.5569 141.356 63.9581V125.901C141.339 126.285 141.025 126.599 140.624 126.599Z" fill="white"/>
<path d="M154.681 93.4211H140.572V95.183H154.681V93.4211Z" fill="white"/>
<path opacity="0.15" d="M129.425 55.7585H108.894C107.638 55.7585 106.626 56.7703 106.626 58.0262V70.6032C106.626 71.8592 107.638 72.8709 108.894 72.8709H129.442C130.698 72.8884 131.71 71.8766 131.71 70.6032V58.0437C131.71 56.7528 130.681 55.7585 129.425 55.7585Z" fill="#1F1D20"/>
<path opacity="0.15" d="M129.425 97.5894H108.894C107.638 97.5894 106.626 98.6011 106.626 99.8571V112.434C106.626 113.69 107.638 114.702 108.894 114.702H129.442C130.698 114.702 131.71 113.69 131.71 112.434V99.8745C131.71 98.6011 130.681 97.5894 129.425 97.5894Z" fill="#1F1D20"/>
<path opacity="0.15" d="M129.425 76.623H108.894C107.638 76.623 106.626 77.6348 106.626 78.8907V91.4677C106.626 92.7237 107.638 93.7354 108.894 93.7354H129.442C130.698 93.7529 131.71 92.7411 131.71 91.4677V78.8907C131.71 77.6522 130.681 76.623 129.425 76.623Z" fill="#1F1D20"/>
<path opacity="0.15" d="M129.425 118.47H108.894C107.638 118.47 106.626 119.482 106.626 120.738V133.315C106.626 134.571 107.638 135.582 108.894 135.582H129.442C130.698 135.582 131.71 134.571 131.71 133.315V120.738C131.71 119.499 130.681 118.47 129.425 118.47Z" fill="#1F1D20"/>
<path d="M129.425 54.259H108.894C107.638 54.259 106.626 55.2708 106.626 56.5267V69.1037C106.626 70.3597 107.638 71.3714 108.894 71.3714H129.442C130.698 71.3889 131.71 70.3771 131.71 69.1037V56.5442C131.71 55.2708 130.681 54.259 129.425 54.259Z" fill="#45CAF2"/>
<path d="M129.425 96.0896H108.894C107.638 96.0896 106.626 97.1013 106.626 98.3573V110.934C106.626 112.19 107.638 113.202 108.894 113.202H129.442C130.698 113.202 131.71 112.19 131.71 110.934V98.3747C131.71 97.1013 130.681 96.0896 129.425 96.0896Z" fill="#0159BB"/>
<path d="M129.425 75.158H108.894C107.638 75.158 106.626 76.1697 106.626 77.4257V90.0026C106.626 91.2586 107.638 92.2703 108.894 92.2703H129.442C130.698 92.2878 131.71 91.276 131.71 90.0026V77.4257C131.71 76.1697 130.681 75.158 129.425 75.158Z" fill="#0078D4"/>
<path d="M129.425 116.989H108.894C107.638 116.989 106.626 118.001 106.626 119.256V131.833C106.626 133.089 107.638 134.101 108.894 134.101H129.442C130.698 134.101 131.71 133.089 131.71 131.833V119.256C131.71 118.018 130.681 116.989 129.425 116.989Z" fill="#014B80"/>
<path d="M151.568 89.759L159.369 94.2585L151.568 98.758V89.759Z" fill="white"/>
<path d="M42.2862 89.0864L55.0407 79.2485L58.0004 76.9631C58.3825 76.6681 58.8524 76.5096 59.3352 76.513C59.8179 76.5164 60.2856 76.6815 60.6635 76.9819L63.583 79.3029L76.2074 89.3258L59.1539 102.483L42.2862 89.0864Z" fill="url(#paint4_linear_735_29007)"/>
<path opacity="0.15" d="M69.1911 102.516H51.4764C50.7761 102.516 50.204 101.949 50.204 101.244V77.1625C50.204 76.3241 50.8846 75.6436 51.723 75.6436H69.6596C70.4389 75.6436 71.0652 76.2748 71.0652 77.0491V100.647C71.0652 101.678 70.2268 102.516 69.1911 102.516Z" fill="#1F1D20"/>
<path d="M69.1912 101.738H51.4765C50.7762 101.738 50.2041 101.171 50.2041 100.466V76.384C50.2041 75.5456 50.8847 74.865 51.7231 74.865H69.6597C70.4389 74.865 71.0652 75.4962 71.0652 76.2705V99.8688C71.0652 100.9 70.2269 101.738 69.1912 101.738Z" fill="#ECECEC"/>
<path d="M65.4543 79.5957H54.5738C54.0963 79.5957 53.7194 79.9978 53.7194 80.4501C53.7194 80.9275 54.1215 81.3044 54.5738 81.3044H65.4543C65.9317 81.3044 66.3086 80.9024 66.3086 80.4501C66.3086 79.9726 65.9317 79.5957 65.4543 79.5957Z" fill="#45CAF2"/>
<path d="M65.4543 83.3162H54.5738C54.0963 83.3162 53.7194 83.7182 53.7194 84.1705C53.7194 84.648 54.1215 85.0249 54.5738 85.0249H65.4543C65.9317 85.0249 66.3086 84.6228 66.3086 84.1705C66.3086 83.7182 65.9317 83.3162 65.4543 83.3162Z" fill="#0078D4"/>
<path fill-rule="evenodd" clip-rule="evenodd" d="M54.5738 87.3364H60.0015C60.4789 87.3364 60.8558 87.7385 60.8558 88.1908C60.8558 88.6682 60.4538 89.0451 60.0015 89.0451H54.5738C54.0963 89.0451 53.7194 88.6431 53.7194 88.1908C53.7194 87.7133 54.0963 87.3364 54.5738 87.3364Z" fill="#185A97"/>
<path opacity="0.15" d="M66.3535 104.95H48.6388C47.9385 104.95 47.3665 104.383 47.3665 103.677V79.5959C47.3665 78.7575 48.047 78.0769 48.8854 78.0769H66.8221C67.6013 78.0769 68.2276 78.7082 68.2276 79.4824V103.081C68.2276 104.111 67.3892 104.95 66.3535 104.95Z" fill="#1F1D20"/>
<path d="M66.3535 104.171H48.6388C47.9385 104.171 47.3665 103.604 47.3665 102.899V78.8176C47.3665 77.9792 48.047 77.2986 48.8854 77.2986H66.8221C67.6013 77.2986 68.2276 77.9298 68.2276 78.7041V102.302C68.2276 103.333 67.3892 104.171 66.3535 104.171Z" fill="white"/>
<path d="M62.6165 82.0283H51.736C51.2586 82.0283 50.8817 82.4304 50.8817 82.8827C50.8817 83.3601 51.2837 83.737 51.736 83.737H62.6165C63.0939 83.737 63.4709 83.335 63.4709 82.8827C63.4709 82.4052 63.0939 82.0283 62.6165 82.0283Z" fill="#45CAF2"/>
<path d="M62.6164 85.749H51.7359C51.2585 85.749 50.8816 86.1511 50.8816 86.6034C50.8816 87.0808 51.2836 87.4577 51.7359 87.4577H62.6164C63.0939 87.4577 63.4708 87.0557 63.4708 86.6034C63.4708 86.1511 63.0939 85.749 62.6164 85.749Z" fill="#0078D4"/>
<path fill-rule="evenodd" clip-rule="evenodd" d="M51.7359 89.769H57.1636C57.6411 89.769 58.018 90.1711 58.018 90.6234C58.018 91.1008 57.6159 91.4778 57.1636 91.4778H51.7359C51.2585 91.4778 50.8816 91.0757 50.8816 90.6234C50.8816 90.146 51.2585 89.769 51.7359 89.769Z" fill="#185A97"/>
<path d="M54.9102 99.1092L42.3842 111.635C42.1805 111.435 42.0187 111.196 41.9083 110.933C41.798 110.669 41.7413 110.386 41.7416 110.101V90.5118C41.7402 89.9856 41.9341 89.4776 42.2857 89.0862L54.9102 99.1092Z" fill="url(#paint5_linear_735_29007)"/>
<path fill-rule="evenodd" clip-rule="evenodd" d="M75.9239 111.634C75.7237 111.837 75.4849 111.999 75.2214 112.109C74.9579 112.219 74.6751 112.276 74.3895 112.276H43.9181C43.6325 112.276 43.3498 112.219 43.0864 112.109C42.8231 111.999 42.5843 111.837 42.3842 111.634L54.9101 99.1077L57.4601 96.6061C57.9123 96.1625 58.5204 95.914 59.1537 95.9141C59.7871 95.9141 60.3952 96.1626 60.8473 96.6062L63.4524 99.1621L75.9239 111.634Z" fill="url(#paint6_linear_735_29007)"/>
<path d="M76.5666 90.5107V110.099C76.567 110.385 76.5104 110.668 76.4002 110.931C76.2899 111.195 76.1282 111.434 75.9246 111.634L63.4531 99.1624L76.2075 89.3245C76.442 89.6756 76.5669 90.0884 76.5666 90.5107V90.5107Z" fill="url(#paint7_linear_735_29007)"/>
<defs>
<linearGradient id="paint0_linear_735_29007" x1="89.5192" y1="188.078" x2="93.4292" y2="-83.6418" gradientUnits="userSpaceOnUse">
<stop offset="0.2" stop-color="white"/>
<stop offset="0.63" stop-color="#F4F3F5"/>
<stop offset="1" stop-color="#E8E6DF"/>
</linearGradient>
<linearGradient id="paint1_linear_735_29007" x1="90.859" y1="9.79028" x2="90.859" y2="181.188" gradientUnits="userSpaceOnUse">
<stop stop-color="#00ABDE"/>
<stop offset="1" stop-color="#007ED8"/>
</linearGradient>
<linearGradient id="paint2_linear_735_29007" x1="-1818.25" y1="-4731.8" x2="-98.303" y2="4401.09" gradientUnits="userSpaceOnUse">
<stop offset="0.0435" stop-color="white"/>
<stop offset="0.4857" stop-color="#4DC1EA"/>
<stop offset="0.8452" stop-color="#0078D4"/>
</linearGradient>
<linearGradient id="paint3_linear_735_29007" x1="37.3881" y1="4.58003" x2="204.042" y2="286.976" gradientUnits="userSpaceOnUse">
<stop stop-color="#007ED8"/>
<stop offset="0.7065" stop-color="#002D4C"/>
</linearGradient>
<linearGradient id="paint4_linear_735_29007" x1="59.2468" y1="102.483" x2="59.2468" y2="76.4664" gradientUnits="userSpaceOnUse">
<stop stop-color="#005BA1"/>
<stop offset="0.26" stop-color="#00589D"/>
<stop offset="0.53" stop-color="#004F90"/>
<stop offset="0.8" stop-color="#003F7C"/>
<stop offset="1" stop-color="#003067"/>
</linearGradient>
<linearGradient id="paint5_linear_735_29007" x1="39.971" y1="90.4226" x2="49.7596" y2="107.377" gradientUnits="userSpaceOnUse">
<stop stop-color="#008BF1"/>
<stop offset="0.22" stop-color="#0086EC"/>
<stop offset="0.49" stop-color="#0078DD"/>
<stop offset="0.79" stop-color="#0061C4"/>
<stop offset="1" stop-color="#004DAE"/>
</linearGradient>
<linearGradient id="paint6_linear_735_29007" x1="59.154" y1="112.276" x2="59.154" y2="95.914" gradientUnits="userSpaceOnUse">
<stop stop-color="#004DAE"/>
<stop offset="0.21" stop-color="#0061C4"/>
<stop offset="0.51" stop-color="#0078DD"/>
<stop offset="0.78" stop-color="#0086EC"/>
<stop offset="1" stop-color="#008BF1"/>
</linearGradient>
<linearGradient id="paint7_linear_735_29007" x1="70.0099" y1="89.3245" x2="70.0099" y2="111.634" gradientUnits="userSpaceOnUse">
<stop stop-color="#008BF1"/>
<stop offset="0.22" stop-color="#0086EC"/>
<stop offset="0.49" stop-color="#0078DD"/>
<stop offset="0.79" stop-color="#0061C4"/>
<stop offset="1" stop-color="#004DAE"/>
</linearGradient>
</defs>
</svg>
