<?xml version="1.0" encoding="UTF-8"?>
<svg width="100px" height="118px" viewBox="0 0 100 118" version="1.1" xmlns="http://www.w3.org/2000/svg" xmlns:xlink="http://www.w3.org/1999/xlink">
    <!-- Generator: Sketch 59.1 (86144) - https://sketch.com -->
    <title>Manage your security with Microsoft 365/manage-your-security-with-microsoft-365</title>
    <desc>Created with Sketch.</desc>
    <defs>
        <filter x="-5.8%" y="-6.5%" width="111.6%" height="112.9%" filterUnits="objectBoundingBox" id="filter-1">
            <feOffset dx="0" dy="2" in="SourceAlpha" result="shadowOffsetOuter1"></feOffset>
            <feColorMatrix values="0 0 0 0 0   0 0 0 0 0   0 0 0 0 0  0 0 0 0.1 0" type="matrix" in="shadowOffsetOuter1" result="shadowMatrixOuter1"></feColorMatrix>
            <feMerge>
                <feMergeNode in="shadowMatrixOuter1"></feMergeNode>
                <feMergeNode in="SourceGraphic"></feMergeNode>
            </feMerge>
        </filter>
        <filter x="-10.8%" y="-7.5%" width="121.5%" height="115.7%" filterUnits="objectBoundingBox" id="filter-2">
            <feOffset dx="0" dy="2" in="SourceAlpha" result="shadowOffsetOuter1"></feOffset>
            <feColorMatrix values="0 0 0 0 0   0 0 0 0 0   0 0 0 0 0  0 0 0 0.101760643 0" type="matrix" in="shadowOffsetOuter1" result="shadowMatrixOuter1"></feColorMatrix>
            <feMerge>
                <feMergeNode in="shadowMatrixOuter1"></feMergeNode>
                <feMergeNode in="SourceGraphic"></feMergeNode>
            </feMerge>
        </filter>
    </defs>
    <g id="Badges" stroke="none" stroke-width="1" fill="none" fill-rule="evenodd">
        <g id="Manage-your-security-with-Microsoft-365" transform="translate(-50.000000, -50.000000)">
            <g id="Manage-your-security-with-Microsoft-365/manage-your-security-with-microsoft-365" transform="translate(50.000000, 50.000000)">
                <g id="Mask" transform="translate(2.000000, 2.000000)">
                    <g id="Color-/-Microsoft-365" transform="translate(-2.000000, 0.000000)" fill="#0078D4">
                        <rect id="Rectangle" x="0" y="0" width="100" height="118"></rect>
                    </g>
                    <g id="Gear-Lightbulb" transform="translate(13.000000, 20.000000)">
                        <g id="Group-74" filter="url(#filter-1)" transform="translate(0.500000, 0.000000)">
                            <g id="Group-5">
                                <path d="M34.3196,53.2299 C23.2736,53.2299 14.3196,44.2759 14.3196,33.2299 C14.3196,22.1839 23.2736,13.2299 34.3196,13.2299 C45.3656,13.2299 54.3196,22.1839 54.3196,33.2299 C54.3196,44.2759 45.3656,53.2299 34.3196,53.2299 M59.9896,28.0439 L56.9376,20.5259 L59.9436,16.8209 C61.2536,15.2069 61.1076,12.8579 59.6096,11.4169 L57.0316,8.9389 C55.5796,7.5419 53.3156,7.4439 51.7486,8.7089 L48.0396,11.6999 L40.5256,8.4039 L40.1156,3.6559 C39.9356,1.5869 38.2056,0.0009 36.1306,0.0009 L32.5786,0.0009 C30.5306,0.0009 28.8126,1.5469 28.5996,3.5839 L28.0966,8.4039 L20.3976,11.6999 L16.6326,8.6949 C15.0556,7.4379 12.7926,7.5489 11.3476,8.9549 L8.8406,11.3949 C7.3466,12.8469 7.2186,15.2029 8.5446,16.8079 L11.6126,20.5259 L8.3676,28.0439 L3.5506,28.5889 C1.5286,28.8179 0.0006,30.5289 0.0006,32.5639 L0.0006,36.5589 C0.0006,38.6159 1.5586,40.3359 3.6046,40.5399 L8.3676,41.0119 L11.6126,48.4879 L8.5296,52.1309 C7.2056,53.6969 7.2796,56.0099 8.7016,57.4889 L11.2716,60.1609 C12.7356,61.6809 15.1296,61.8029 16.7396,60.4389 L21.1716,56.6859 L47.2026,56.6859 L52.0856,60.3069 C53.6856,61.4949 55.9176,61.3229 57.3166,59.9029 L59.7706,57.4119 C61.1916,55.9709 61.3116,53.6969 60.0516,52.1129 L56.9376,48.1999 L59.9896,40.5899 L64.9886,40.1519 C67.0546,39.9699 68.6386,38.2409 68.6386,36.1669 L68.6386,32.5769 C68.6386,30.5359 67.1026,28.8219 65.0736,28.5999 L59.9896,28.0439 Z" id="Fill-1" fill="#546670"></path>
                                <path d="M59.9895,28.044 L56.9375,20.526 L59.9435,16.821 C61.2535,15.206 61.1075,12.858 59.6095,11.417 L57.0315,8.939 C55.5795,7.542 53.3155,7.444 51.7485,8.708 L48.0395,11.7 L40.5255,8.404 L40.1155,3.656 C39.9355,1.587 38.2055,-4.12114787e-13 36.1305,-4.12114787e-13 L33.9916992,-4.12114787e-13 L33.9916992,13.23 C45.0376992,13.23 54.3195,22.184 54.3195,33.23 C54.3195,44.276 45.0376992,53.23 33.9916992,53.23 L33.9916992,56.686 L47.2025,56.686 L52.0855,60.307 C53.6855,61.495 55.9175,61.323 57.3165,59.903 L59.7705,57.412 C61.1915,55.971 61.3115,53.697 60.0525,52.113 L56.9375,48.2 L59.9895,40.59 L64.9885,40.152 C67.0545,39.97 68.6385,38.241 68.6385,36.166 L68.6385,32.577 C68.6385,30.536 67.1025,28.822 65.0735,28.6 L59.9895,28.044 Z" id="Fill-3" fill="#30404D"></path>
                            </g>
                            <g id="Group-67" transform="translate(14.000000, 14.000000)" stroke-width="2">
                                <ellipse id="Oval" stroke="#30404D" fill-rule="nonzero" cx="20.5" cy="19.5" rx="20" ry="19.5"></ellipse>
                                <path d="M19.9916992,39 C31.0376992,39 40.5,30.26985 40.5,19.5 C40.5,9.80033137 32.8247729,1.75513992 23.2299221,0.252041443 C22.1713055,0.0862019651 21.0893211,0 19.9916992,0" id="Stroke-1" stroke="#546670"></path>
                            </g>
                        </g>
                    </g>
                    <g id="Round-Lock" transform="translate(18.000000, 44.000000)">
                        <path d="M10.6031835,33.8676532 L4.24335048,33.8676532 C2.10028815,33.8676532 0.356785858,32.1241509 0.356785858,29.9810885 C0.356785858,27.8380262 2.10028815,26.0945239 4.24335048,26.0945239 C4.44002478,26.0945239 4.63773432,26.1122926 4.84993721,26.1497308 C5.60143982,23.6038296 7.91978268,21.8546353 10.6031835,21.8546353 C13.9152503,21.8546353 16.6096924,24.5490774 16.6096924,27.8611442 C16.6096924,31.173211 13.9152503,33.8676532 10.6031835,33.8676532 Z" id="Cloud" fill="#FFFFFF" fill-rule="nonzero"></path>
                        <g id="Lock" filter="url(#filter-2)" transform="translate(11.592680, 0.368574)">
                            <path d="M18.40732,0 C11.0259847,0 5.02017818,6.0058065 5.02017818,13.3871418 L5.02017818,23.4274982 C5.02017818,24.351211 6.1446981,25.1008909 7.53026727,25.1008909 C8.91583645,25.1008909 10.0403564,24.351211 10.0403564,23.4274982 L10.0403564,13.3871418 C10.0403564,8.77359807 13.7937763,5.02017818 18.40732,5.02017818 C23.0208638,5.02017818 26.7742836,8.77359807 26.7742836,13.3871418 L26.7742836,23.4274982 C26.7742836,24.351211 27.8988036,25.1008909 29.2843727,25.1008909 C30.6699419,25.1008909 31.7944618,24.351211 31.7944618,23.4274982 L31.7944618,13.3871418 C31.7944618,6.0058065 25.7886553,0 18.40732,0" id="Fill-84" fill="#F3F3F3"></path>
                            <path d="M18.40732,0 C18.1245166,0 17.8484068,0.0242641945 17.5706236,0.0426715146 C24.5612218,0.477753624 30.1210691,6.28860987 30.1210691,13.3871418 L30.1210691,17.5312989 C30.1210691,18.5035401 29.0618115,19.1093083 28.2301353,18.6064537 C27.7582386,18.3211403 27.2729547,18.0559075 26.7742836,17.8141023 L26.7742836,23.4274982 C26.7742836,24.351211 27.8988036,25.1008909 29.2843727,25.1008909 C30.6699419,25.1008909 31.7944618,24.351211 31.7944618,23.4274982 L31.7944618,13.3871418 C31.7944618,6.0058065 25.7886553,0 18.40732,0" id="Fill-85" fill="#C5CCCD"></path>
                            <path d="M15.252138,5.15572299 C11.2100579,5.89619928 8.36696364,9.57598988 8.36696364,13.6858424 L8.36696364,17.3999376 C8.36696364,18.2014927 7.99045027,18.9637231 7.33531702,19.4239061 C6.51368119,20.0012266 5.73890036,20.6387892 5.02017818,21.3357573 L5.02017818,23.4274982 C5.02017818,24.351211 6.1446981,25.1008909 7.53026727,25.1008909 C8.91583645,25.1008909 10.0403564,24.351211 10.0403564,23.4274982 L10.0403564,13.3871418 C10.0403564,9.05556475 13.3478171,5.48454466 17.5706236,5.0628497 C16.8268006,4.98754702 16.05955,5.00762774 15.252138,5.15572299" id="Fill-87" fill="#C5CCCD"></path>
                            <path d="M18.40732,18.40732 C9.1802325,18.40732 1.67339273,25.9141598 1.67339273,35.1412473 C1.67339273,44.3683348 9.1802325,51.8751746 18.40732,51.8751746 C27.6344075,51.8751746 35.1412473,44.3683348 35.1412473,35.1412473 C35.1412473,25.9141598 27.6344075,18.40732 18.40732,18.40732" id="Fill-88" fill="#30404D"></path>
                            <path d="M18.40732,18.40732 L18.40732,22.5908018 C17.9446269,22.5908018 17.5706236,22.2167985 17.5706236,21.7541055 L17.5706236,22.5908018 C17.5706236,22.8543612 17.6927813,23.0894729 17.8827114,23.2425883 C18.2525312,23.5404522 18.40732,24.034103 18.40732,24.5085099 L18.40732,40.9972851 C16.9079601,40.9972851 15.4086002,40.4258215 14.265673,39.2820576 C13.2281695,38.2462275 12.6675829,36.9158803 12.5705262,35.5595955 C12.4542254,37.1953369 13.0164853,38.870403 14.265673,40.1204273 C14.9760282,40.8307826 15.8244383,41.3210866 16.7255603,41.5896662 C17.7480033,41.8950603 18.40732,42.8915657 18.40732,43.9583536 L18.40732,51.8751746 C27.6344075,51.8751746 35.1412473,44.3683348 35.1412473,35.1412473 C35.1412473,25.9141598 27.6344075,18.40732 18.40732,18.40732" id="Fill-89" fill="#182A37"></path>
                            <path d="M9.53331837,26.2672456 C9.36932588,26.4304014 9.15513161,26.511561 8.94093734,26.511561 C8.72757977,26.511561 8.5133855,26.4304014 8.34939301,26.2672456 L7.19893551,25.1167881 C4.98754702,27.5867158 3.58357053,30.7828959 3.38945697,34.3045509 L3.47145321,34.3045509 C3.82704917,31.1167378 5.16492665,28.2251151 7.19893551,25.9534845 L8.34939301,27.103942 C8.5133855,27.2670978 8.72757977,27.3482573 8.94093734,27.3482573 C9.15513161,27.3482573 9.36932588,27.2670978 9.53331837,27.103942 C9.80859147,26.8278322 9.83787585,26.4145042 9.64794577,26.0932128 C9.61280452,26.1534549 9.58435685,26.2153705 9.53331837,26.2672456" id="Fill-90" fill="#182A37"></path>
                            <path d="M17.5706236,20.9600806 L17.5706236,20.1233842 C14.0489686,20.3174978 10.8527885,21.7214743 8.38286087,23.9328628 L8.84053378,24.3913724 C11.2451991,22.4042185 14.2598161,21.1424804 17.5706236,20.9600806" id="Fill-91" fill="#182A37"></path>
                            <path d="M5.02017818,35.9779436 L3.38945697,35.9779436 C3.4045175,36.260747 3.44133214,36.5368568 3.47145321,36.81464 L5.02017818,36.81464 C5.48287127,36.81464 5.85687455,36.4406367 5.85687455,35.9779436 C5.85687455,35.8231548 5.80248928,35.6842632 5.72886,35.5595955 C5.58243814,35.8047475 5.32640905,35.9779436 5.02017818,35.9779436" id="Fill-92" fill="#182A37"></path>
                            <path d="M9.53331837,45.1991743 L8.38286087,46.3496318 C8.53011943,46.4818298 8.68909174,46.6006407 8.84053378,46.7278185 L9.53331837,46.0358706 C9.80859147,45.7597608 9.83787585,45.3464328 9.64794577,45.0251414 C9.61280452,45.0853836 9.58435685,45.1472991 9.53331837,45.1991743" id="Fill-93" fill="#182A37"></path>
                            <path d="M29.6148678,45.1657064 L28.4644103,44.0152489 C28.1380987,43.6889373 27.6084699,43.6889373 27.2813216,44.0152489 C26.9550101,44.3423972 26.9550101,44.872026 27.2813216,45.1991743 L28.4317791,46.3496318 C25.9618515,48.5610203 22.7656714,49.9649968 19.2440164,50.1591103 L19.2440164,48.5283891 C19.2440164,48.065696 18.8700131,47.6916927 18.40732,47.6916927 C17.9446269,47.6916927 17.5706236,48.065696 17.5706236,48.5283891 L17.5706236,50.1591103 C14.0489686,49.9649968 10.8527885,48.5610203 8.38286087,46.3496318 L9.53331837,45.1991743 C9.85962995,44.872026 9.85962995,44.3423972 9.53331837,44.0152489 C9.20617009,43.6889373 8.67654129,43.6889373 8.34939301,44.0152489 L7.19893551,45.1657064 C4.98754702,42.6957787 3.58357053,39.4995986 3.38945697,35.9779436 L5.02017818,35.9779436 C5.48287127,35.9779436 5.85687455,35.6039404 5.85687455,35.1412473 C5.85687455,34.6785542 5.48287127,34.3045509 5.02017818,34.3045509 L3.38945697,34.3045509 C3.58357053,30.7828959 4.98754702,27.5867158 7.19893551,25.1167881 L8.34939301,26.2672456 C8.5133855,26.4304014 8.72757977,26.511561 8.94093734,26.511561 C9.15513161,26.511561 9.36932588,26.4304014 9.53331837,26.2672456 C9.85962995,25.9400974 9.85962995,25.4104686 9.53331837,25.0833203 L8.38286087,23.9328628 C10.8527885,21.7214743 14.0489686,20.3174978 17.5706236,20.1233842 L17.5706236,21.7541055 C17.5706236,22.2167985 17.9446269,22.5908018 18.40732,22.5908018 C18.8700131,22.5908018 19.2440164,22.2167985 19.2440164,21.7541055 L19.2440164,20.1233842 C22.7656714,20.3174978 25.9618515,21.7214743 28.4317791,23.9328628 L27.2813216,25.0833203 C26.9550101,25.4104686 26.9550101,25.9400974 27.2813216,26.2672456 C27.4453141,26.4304014 27.6595084,26.511561 27.872866,26.511561 C28.0870602,26.511561 28.3012545,26.4304014 28.4644103,26.2672456 L29.6148678,25.1167881 C31.827093,27.5867158 33.2310695,30.7828959 33.425183,34.3045509 L31.7944618,34.3045509 C31.3317687,34.3045509 30.9577655,34.6785542 30.9577655,35.1412473 C30.9577655,35.6039404 31.3317687,35.9779436 31.7944618,35.9779436 L33.425183,35.9779436 C33.2310695,39.4995986 31.827093,42.6957787 29.6148678,45.1657064 Z M18.40732,16.7339273 C8.25735641,16.7339273 0,24.9912837 0,35.1412473 C0,45.2912109 8.25735641,53.5485673 18.40732,53.5485673 C28.5572836,53.5485673 36.81464,45.2912109 36.81464,35.1412473 C36.81464,24.9912837 28.5572836,16.7339273 18.40732,16.7339273 L18.40732,16.7339273 Z" id="Fill-94" fill="#546670"></path>
                            <polyline id="Fill-95" fill="#DF5142" points="23.7320557 33.3666143 19.6205297 33.8677954 20.2120741 29.7872272 25.4774043 28.0117576 23.7320557 33.3666143"></polyline>
                            <path d="M22.548967,39.2820576 C24.8356582,36.9962031 24.8348215,33.2854547 22.548967,31.000437 C20.2614391,28.7120724 16.5532009,28.7120724 14.265673,31.000437 L22.548967,39.2820576" id="Fill-96" fill="#ADBDC4"></path>
                            <path d="M14.265673,31.000437 C11.9789818,33.2862914 11.9798185,36.9970398 14.265673,39.2820576 C16.5532009,41.5704221 20.2614391,41.5704221 22.548967,39.2820576 L14.265673,31.000437" id="Fill-97" fill="#A0AEB3"></path>
                        </g>
                        <path d="M56.0923781,28.7507298 L44.0242126,28.7507298 C41.8853889,28.7507298 40.1451594,27.0105004 40.1451594,24.8716766 C40.1451594,23.2074206 41.2092052,21.7449917 42.769076,21.2127554 C43.0946449,17.68158 46.0498154,14.9585407 49.6272894,14.9585407 C53.1138514,14.9585407 56.0450278,17.5866682 56.4644569,21.0103033 C58.4294473,21.1982348 59.9714313,22.8582799 59.9714313,24.8716766 C59.9714313,27.0105004 58.2312018,28.7507298 56.0923781,28.7507298 Z" id="Cloud" fill="#FFFFFF" fill-rule="nonzero" opacity="0.900000036"></path>
                    </g>
                </g>
                <g id="Azure-Hex-Border" stroke="#0064B0" stroke-width="4">
                    <path d="M45.5618501,3.25844398 L45.5621963,3.25823359 L6.67338401,26.8942953 C3.79673288,28.6432593 2,31.9508238 2,35.5582677 L2,82.4417323 C2,86.0486597 3.79764663,89.3586805 6.67318764,91.1055853 L45.560618,114.742485 C46.9289662,115.572418 48.4546283,116 50,116 C51.5458817,116 53.0723633,115.572188 54.4362178,114.743457 L93.3268764,91.1055464 C96.2016145,89.3583456 98,86.0476286 98,82.4417323 L98,35.5582677 C98,31.9518547 96.202529,28.6435953 93.3268966,26.8944659 L54.4351916,3.25759524 C53.0721095,2.42798656 51.5462432,2 50,2 C48.4542664,2 46.9292165,2.42775755 45.5618501,3.25844398 Z"></path>
                </g>
            </g>
        </g>
    </g>
</svg>