<?xml version="1.0" encoding="UTF-8"?>
<svg width="166px" height="190px" viewBox="0 0 166 190" version="1.1" xmlns="http://www.w3.org/2000/svg" xmlns:xlink="http://www.w3.org/1999/xlink">
    <!-- Generator: Sketch 64 (93537) - https://sketch.com -->
    <title>Manage Microsoft 365 Messaging Organizational Settings and Architecture/manage-microsoft-365-messaging-organizational-settings-and-architecture</title>
    <desc>Created with Sketch.</desc>
    <defs>
        <path d="M100.206168,6.55621559 L158.148455,40.9384601 C164.220022,44.5412538 167.942286,51.0782575 167.942286,58.1382893 L167.942286,127.861711 C167.942286,134.921743 164.220022,141.458746 158.148455,145.06154 L100.206168,179.443784 C93.9142272,183.177345 86.0857728,183.177345 79.7938316,179.443784 L21.8515452,145.06154 C15.7799781,141.458746 12.0577137,134.921743 12.0577137,127.861711 L12.0577137,58.1382893 C12.0577137,51.0782575 15.7799781,44.5412538 21.8515452,40.9384601 L79.7938316,6.55621559 C86.0857728,2.82265458 93.9142272,2.82265458 100.206168,6.55621559 Z" id="path-1"></path>
        <linearGradient x1="50%" y1="0%" x2="50%" y2="100%" id="linearGradient-3">
            <stop stop-color="#0062B3" offset="0%"></stop>
            <stop stop-color="#00549B" offset="100%"></stop>
        </linearGradient>
        <path d="M88.2061684,3.05621559 L146.148455,37.4384601 C152.220022,41.0412538 155.942286,47.5782575 155.942286,54.6382893 L155.942286,124.361711 C155.942286,131.421743 152.220022,137.958746 146.148455,141.56154 L88.2061684,175.943784 C81.9142272,179.677345 74.0857728,179.677345 67.7938316,175.943784 L9.85154523,141.56154 C3.77997814,137.958746 0.0577136594,131.421743 0.0577136594,124.361711 L0.0577136594,54.6382893 C0.0577136594,47.5782575 3.77997814,41.0412538 9.85154523,37.4384601 L67.7938316,3.05621559 C74.0857728,-0.677345417 81.9142272,-0.677345417 88.2061684,3.05621559 Z M85.6546263,7.3561729 C81.0429194,4.61964239 75.3306135,4.55744852 70.6688793,7.16959128 L70.3453737,7.3561729 L12.4030873,41.7384174 C7.95060481,44.3804661 5.18265925,49.1264521 5.06183821,54.2858887 L5.05771366,54.6382893 L5.05771366,124.361711 C5.05771366,129.539067 7.72671515,134.341394 12.1021306,137.078203 L12.4030873,137.261583 L70.3453737,171.643827 C74.9570806,174.380358 80.6693865,174.442551 85.3311207,171.830409 L85.6546263,171.643827 L143.596913,137.261583 C148.049395,134.619534 150.817341,129.873548 150.938162,124.714111 L150.942286,124.361711 L150.942286,54.6382893 C150.942286,49.4609326 148.273285,44.6586065 143.897869,41.9217974 L143.596913,41.7384174 L85.6546263,7.3561729 Z" id="path-4"></path>
        <filter x="-10.2%" y="-10.2%" width="120.3%" height="120.3%" filterUnits="objectBoundingBox" id="filter-6">
            <feOffset dx="0" dy="2" in="SourceAlpha" result="shadowOffsetOuter1"></feOffset>
            <feGaussianBlur stdDeviation="2" in="shadowOffsetOuter1" result="shadowBlurOuter1"></feGaussianBlur>
            <feColorMatrix values="0 0 0 0 0   0 0 0 0 0   0 0 0 0 0  0 0 0 0.1 0" type="matrix" in="shadowBlurOuter1" result="shadowMatrixOuter1"></feColorMatrix>
            <feMerge>
                <feMergeNode in="shadowMatrixOuter1"></feMergeNode>
                <feMergeNode in="SourceGraphic"></feMergeNode>
            </feMerge>
        </filter>
        <linearGradient x1="50%" y1="-9.93901477%" x2="50%" y2="100%" id="linearGradient-7">
            <stop stop-color="#FFFFFF" offset="0%"></stop>
            <stop stop-color="#CBCBCB" offset="100%"></stop>
        </linearGradient>
        <path d="M118,64.3415638 L118,50.744856 L104.103306,45.8888889 L100.690083,36.6625514 L107.516529,22.3374486 L107.516529,20.8806584 L103.128099,16.5102881 L98.0082645,10.6831276 L96.0578512,10.6831276 L82.4049587,17.9670782 L73.1404959,15.2962963 L67.0454545,0 L53.6363636,0 L49.0041322,13.8395062 L38.7644628,17.9670782 L22.9173554,10.4403292 L13.4090909,19.909465 L13.4090909,21.6090535 L20.4793388,35.2057613 L16.3347107,45.4032922 L0,51.473251 L0,65.0699588 L1.95041322,65.0699588 L16.3347107,69.9259259 L20.2355372,79.1522634 L12.9214876,94.9341564 L22.4297521,104.646091 L24.3801653,104.646091 L37.7892562,97.8477366 L47.2975207,101.73251 L53.1487603,118 L66.8016529,118 L66.8016529,116.057613 L71.4338843,101.489712 L80.6983471,97.6049383 L96.7892562,105.131687 L106.297521,95.6625514 L106.297521,93.7201646 L99.4710744,80.1234568 L102.152893,70.654321 L118,64.3415638 Z M59.9778464,75.8555719 C49.8193887,74.7648351 42.1428571,66.6029039 42.1428571,56.892847 C42.1428571,47.1827901 49.8193887,39.0208589 59.9778464,37.9301221 C65.2830321,37.8655153 70.3943872,39.8220848 74.1698476,43.3626613 C77.9453079,46.9032379 80.0702107,51.7327348 80.0697746,56.7720653 L80.0697746,56.7720653 C80.1388101,61.8531437 78.0441639,66.7452991 74.2611277,70.3384632 C70.4780916,73.9316274 65.327422,75.9211425 59.9778464,75.8555719 Z" id="path-8"></path>
        <filter x="0.0%" y="0.0%" width="100.0%" height="100.0%" filterUnits="objectBoundingBox" id="filter-9">
            <feOffset dx="0" dy="0" in="SourceAlpha" result="shadowOffsetOuter1"></feOffset>
            <feColorMatrix values="0 0 0 0 0   0 0 0 0 0   0 0 0 0 0  0 0 0 0.1 0" type="matrix" in="shadowOffsetOuter1"></feColorMatrix>
        </filter>
    </defs>
    <g id="Badges" stroke="none" stroke-width="1" fill="none" fill-rule="evenodd">
        <g id="Manage-Microsoft-365-Messaging-Organizational-Settings-and-Architecture" transform="translate(-127.000000, -35.000000)">
            <g id="Manage-Microsoft-365-Messaging-Organizational-Settings-and-Architecture/manage-microsoft-365-messaging-organizational-settings-and-architecture" transform="translate(151.000000, 71.000000)">
                <g id="Trophy-Plates/Hex" transform="translate(9.000000, 9.000000)">
                    <g id="BG" transform="translate(-40.000000, -43.000000)">
                        <mask id="mask-2" fill="white">
                            <use xlink:href="#path-1"></use>
                        </mask>
                        <path stroke="#FFFFFF" stroke-width="5" d="M101.481939,4.40623694 C97.9427226,2.30610887 93.9713613,1.25604484 90,1.25604484 C86.0286387,1.25604484 82.0572774,2.30610887 78.5180605,4.40623694 L20.5757742,38.7884814 C13.7452612,42.8416243 9.55771366,50.1957535 9.55771366,58.1382893 L9.55771366,127.861711 C9.55771366,135.804246 13.7452612,143.158376 20.5757742,147.211519 L78.5180605,181.593763 C82.0572774,183.693891 86.0286387,184.743955 90,184.743955 C93.9713613,184.743955 97.9427226,183.693891 101.481939,181.593763 L159.424226,147.211519 C166.254739,143.158376 170.442286,135.804246 170.442286,127.861711 L170.442286,58.1382893 C170.442286,50.1957535 166.254739,42.8416243 159.424226,38.7884814 L101.481939,4.40623694 Z"></path>
                        <g id="Colors/Microsoft-365/BG-Gradient-3" mask="url(#mask-2)" fill="url(#linearGradient-3)">
                            <g transform="translate(0.000000, 0.500000)" id="Rectangle">
                                <rect x="0" y="0" width="180" height="185"></rect>
                            </g>
                        </g>
                    </g>
                    <g id="Border" transform="translate(-28.000000, -39.500000)">
                        <mask id="mask-5" fill="white">
                            <use xlink:href="#path-4"></use>
                        </mask>
                        <use fill="#000000" fill-rule="nonzero" xlink:href="#path-4"></use>
                        <g id="Colors/Microsoft-365/Border" mask="url(#mask-5)" fill="#0076D7">
                            <g transform="translate(-12.000000, -3.000000)" id="Microsoft-365/Border">
                                <rect x="0" y="0" width="180" height="185"></rect>
                            </g>
                        </g>
                    </g>
                </g>
                <g id="Gear" filter="url(#filter-6)">
                    <g id="a30ee4c9-49d5-4d00-a305-a6a3597e53b7" fill-rule="nonzero">
                        <g id="Shape">
                            <use fill="black" fill-opacity="1" filter="url(#filter-9)" xlink:href="#path-8"></use>
                            <use fill="url(#linearGradient-7)" xlink:href="#path-8"></use>
                        </g>
                    </g>
                    <circle id="Oval" fill="#005AA4" cx="60.7878788" cy="57.2121212" r="21.4545455"></circle>
                </g>
                <g id="Group-3" transform="translate(31.000000, 38.000000)">
                    <rect id="Rectangle" fill="#0090E6" x="3" y="1" width="51" height="36" rx="1.5"></rect>
                    <path d="M3.64286801,2.8231435 L28.5428084,20 L28.5428084,20 L53.4046461,2.82273034 C53.8590275,2.50879408 53.9728808,1.88594955 53.6589446,1.43156813 C53.4722264,1.16131816 53.1646936,1 52.8362142,1 L4.21070141,1 C3.65841667,1 3.21070141,1.44771525 3.21070141,2 C3.21070141,2.32873654 3.37227067,2.63647592 3.64286801,2.8231435 Z" id="Path-69" fill="#18A8E4"></path>
                    <path d="M53,38 L29,20 L3.39142377,35.2070662 C2.91655518,35.489056 2.76019605,36.102611 3.04218589,36.5774796 C3.21890927,36.8750803 3.53695853,37.0601358 3.88301362,37.0667114 L53,38 L53,38 Z" id="Path-70" fill="#18A8E4"></path>
                    <path d="M54,2.06059282 L54,36.9641099 C54,37.5163947 53.5522847,37.9641099 53,37.9641099 C52.7787852,37.9641099 52.5638141,37.8907586 52.3887384,37.7555385 L29,19.6911948 L29,19.6911948 L52.3812397,1.27501294 C52.8151035,0.933281091 53.443848,1.00796878 53.7855799,1.44183256 C53.924475,1.61817427 54,1.83611953 54,2.06059282 Z" id="Path-71" fill="#0090E6"></path>
                </g>
            </g>
        </g>
    </g>
</svg>