<svg width="181" height="191" viewBox="0 0 181 191" fill="none" xmlns="http://www.w3.org/2000/svg">
<path d="M90.6414 189.282C93.7014 189.282 96.7114 188.432 99.3714 186.812L161.341 149.152C166.881 145.782 170.311 139.452 170.311 132.612V57.9023C170.311 51.0823 166.881 44.7423 161.341 41.3623L99.3714 3.70229C94.0414 0.462291 87.2214 0.482291 81.9214 3.70229L19.9514 41.3823C14.4114 44.7523 10.9614 51.0823 10.9614 57.9223V132.622C10.9614 138.382 13.4114 143.802 17.5114 147.372V147.402L81.9214 186.832C84.5614 188.432 87.5814 189.282 90.6414 189.282ZM91.2914 8.23229C93.2414 8.23229 95.7214 9.44229 97.4314 10.4923L158.191 47.6823C161.941 49.9623 164.061 56.5623 164.061 61.3123L163.431 132.612C163.431 137.362 160.231 141.632 156.481 143.912L96.0814 180.292C92.6514 182.382 89.8614 182.382 86.4214 180.292L25.2114 143.822C21.4614 141.542 18.4414 137.342 18.4414 132.612V58.9723C18.4414 54.2323 21.1714 49.3423 24.9414 47.0523L85.5214 10.4923C87.2214 9.45229 89.3414 8.23229 91.2914 8.23229Z" fill="#F2F1F0"/>
<path fill-rule="evenodd" clip-rule="evenodd" d="M98.5414 11.8123C96.0914 10.3123 93.3714 9.56226 90.6414 9.56226C87.9114 9.56226 85.1914 10.3223 82.7414 11.8123L26.6114 46.1423C21.5914 49.2123 18.4814 54.9623 18.4814 61.2123V129.312C18.4814 135.542 21.5814 141.312 26.6114 144.382L82.7414 178.712C85.1914 180.212 87.9114 180.962 90.6414 180.962C93.3714 180.962 96.0914 180.222 98.5414 178.712L154.671 144.382C159.691 141.312 162.801 135.542 162.801 129.312V61.2123C162.801 54.9823 159.701 49.2323 154.671 46.1423L98.5414 11.8123Z" fill="url(#paint0_linear)"/>
<path fill-rule="evenodd" clip-rule="evenodd" d="M90.6414 11.0322C92.3214 11.0322 94.2114 11.9022 96.2714 13.1522L154.741 48.6922C158.391 50.9122 160.801 55.1822 160.801 60.0122V130.492C160.801 135.312 158.391 139.592 154.741 141.812L96.2814 177.352C94.3214 178.542 92.4014 179.292 90.6514 179.292C88.9014 179.292 86.9814 178.542 85.0214 177.352L26.5414 141.822C24.5314 140.592 23.0814 139.392 22.1014 137.782C21.1214 136.182 20.4814 133.962 20.4814 130.502V60.0222C20.4814 55.1922 22.8914 50.9222 26.5414 48.7022L85.0014 13.1622C87.0914 11.9122 88.9514 11.0322 90.6414 11.0322ZM98.3514 180.782L156.811 145.242C161.731 142.252 164.791 136.632 164.791 130.502V60.0222C164.791 53.8922 161.731 48.2722 156.811 45.2822L98.3514 9.74223C96.2414 8.46223 93.5314 7.03223 90.6414 7.03223C87.7414 7.03223 85.0315 8.47223 82.9415 9.73223H82.9314L24.4614 45.2822C19.5414 48.2722 16.4814 53.8922 16.4814 60.0222V130.502C16.4814 134.462 17.2214 137.452 18.6814 139.862C20.1414 142.262 22.2014 143.862 24.4614 145.232L82.9214 180.772C85.1414 182.122 87.8114 183.302 90.6314 183.302C93.4514 183.302 96.1314 182.132 98.3514 180.782Z" fill="url(#paint1_linear)"/>
<path opacity="0.15" d="M91.0317 168.732L142.092 139.712L146.482 142.242L92.7017 173.142C91.8717 173.622 90.8417 173.622 90.0017 173.142L36.7817 142.242L41.0117 139.952L91.0317 168.732Z" fill="#1F1D20"/>
<path fill-rule="evenodd" clip-rule="evenodd" d="M91.2714 20.5223C91.4414 20.4323 91.6314 20.4323 91.8014 20.5223L154.581 57.5423C154.741 57.6323 154.841 57.8023 154.841 57.9923V131.452C154.841 131.642 154.751 131.802 154.581 131.902L91.3714 168.682C91.2014 168.772 91.0114 168.772 90.8514 168.682L27.2214 131.642C27.0614 131.552 26.9614 131.372 26.9614 131.192L27.1714 58.0423C27.1714 57.8523 27.2714 57.6923 27.4314 57.5923L91.2714 20.5223ZM28.1914 58.3423L27.9814 130.892L91.0914 167.632L153.791 131.152V58.2923L91.5314 21.5723L28.1914 58.3423Z" fill="white"/>
<path opacity="0.15" d="M146.292 126.532C149.182 128.172 149.182 130.812 146.292 132.452L96.2216 161.592C93.4516 163.232 88.7816 163.232 85.8916 161.592L34.1616 131.702C31.2716 130.062 31.2716 127.422 34.1616 125.782L84.2316 96.6421C87.0016 95.0021 91.6716 95.0021 94.5616 96.6421L146.292 126.532Z" fill="#1F1D20"/>
<path d="M146.292 123.142C149.182 124.782 149.182 127.422 146.292 129.062L96.2217 158.202C93.4517 159.842 88.7817 159.842 85.8917 158.202L34.1617 128.302C32.6617 127.452 31.9317 126.342 31.9917 125.242C32.0317 124.202 32.7617 123.172 34.1617 122.372L84.2317 93.2322C87.0017 91.5922 91.6717 91.5922 94.5617 93.2322L146.292 123.142Z" fill="#CDCDD0"/>
<path opacity="0.4" d="M49.7114 125.872L93.4814 101.692L137.681 125.422L93.3914 150.202L49.7114 125.872Z" fill="#201D21"/>
<path d="M93.4512 146.162L139.201 119.912L139.141 121.892L93.3613 148.142L93.2812 147.172L93.4512 146.162Z" fill="#243A5E"/>
<path d="M93.4116 146.122L93.4316 148.102L47.5616 122.452L47.4316 120.342L93.4116 146.122Z" fill="#2F76BC"/>
<path d="M47.4414 120.382L93.4514 94.7322L139.201 119.872L93.4514 146.122L47.4414 120.382Z" fill="#141D2F"/>
<path opacity="0.5" d="M50.5815 120.222L93.3415 95.9722L136.982 119.772L93.6215 144.432L50.5815 120.222Z" stroke="url(#paint2_linear)" stroke-width="0.4675" stroke-miterlimit="10" stroke-linejoin="round"/>
<path opacity="0.5" d="M55.3818 119.972L93.3518 98.2622L132.932 119.652L93.6118 142.042L55.3818 119.972Z" stroke="url(#paint3_linear)" stroke-width="0.4675" stroke-miterlimit="10"/>
<path opacity="0.5" d="M59.3618 119.802L93.3718 100.632L128.932 119.562L93.6118 139.712L59.3618 119.802Z" stroke="url(#paint4_linear)" stroke-width="0.4675" stroke-miterlimit="10"/>
<path opacity="0.5" d="M63.1816 119.442L93.3116 102.942L124.992 119.492L93.5916 137.452L63.1816 119.442Z" stroke="url(#paint5_linear)" stroke-width="0.4675" stroke-miterlimit="10"/>
<path opacity="0.5" d="M67.1216 119.532L93.3216 105.302L120.982 119.372L93.6616 135.072L67.1216 119.532Z" stroke="url(#paint6_linear)" stroke-width="0.4675" stroke-miterlimit="10"/>
<path opacity="0.5" d="M71.1318 119.622L93.3418 107.622L117.012 119.302L93.6118 132.762L71.1318 119.622Z" stroke="url(#paint7_linear)" stroke-width="0.4675" stroke-miterlimit="10"/>
<path d="M104.012 56.9622L104.002 61.9922L105.082 62.6122V63.1822L102.372 61.6222L102.382 61.0522L103.462 61.6722L103.472 57.4522L102.362 57.7122L102.092 57.1122L103.632 56.7322L104.012 56.9622Z" fill="#50E6FF"/>
<path d="M108.191 59.3821L108.181 64.4121L109.261 65.0321V65.6021L106.561 64.0421V63.4721L107.641 64.0921L107.651 59.8721L106.541 60.1321L106.271 59.5121L107.811 59.1421L108.191 59.3821Z" fill="#50E6FF"/>
<path d="M112.381 61.7822L112.351 66.8222L113.431 67.4422V68.0122L110.731 66.4522V65.8822L111.811 66.5022L111.821 62.2822L110.711 62.5422L110.441 61.9222L111.981 61.5522L112.381 61.7822Z" fill="#50E6FF"/>
<path d="M116.572 64.2022L116.562 69.2422L117.622 69.8622V70.4322L114.922 68.8722V68.2822L116.022 68.9222V64.7022L114.912 64.9622L114.642 64.3422L116.182 63.9722L116.572 64.2022Z" fill="#50E6FF"/>
<path d="M126.122 71.3022C126.172 71.7022 126.212 72.1322 126.212 72.5922C126.212 73.0522 126.172 73.4322 126.112 73.7522C126.052 74.0722 125.932 74.3122 125.792 74.4822C125.652 74.6422 125.472 74.7422 125.252 74.7522C125.032 74.7622 124.792 74.6722 124.492 74.5122C124.192 74.3322 123.922 74.1122 123.702 73.8322C123.482 73.5722 123.302 73.2722 123.182 72.9422C123.042 72.6122 122.952 72.2422 122.882 71.8622C122.822 71.4622 122.792 71.0722 122.792 70.6322C122.792 70.1722 122.832 69.7922 122.892 69.4722C122.952 69.1522 123.072 68.9122 123.212 68.7422C123.352 68.5822 123.532 68.4822 123.732 68.4722C123.952 68.4622 124.202 68.5522 124.502 68.7122C124.822 68.8922 125.072 69.1122 125.292 69.3622C125.512 69.6222 125.692 69.9122 125.812 70.2322C125.962 70.5522 126.062 70.9122 126.122 71.3022ZM125.352 73.8822C125.532 73.5822 125.622 73.0522 125.622 72.2622C125.622 71.9822 125.612 71.7022 125.582 71.4322L123.502 72.4122C123.582 72.7622 123.692 73.0822 123.862 73.3522C124.022 73.6222 124.232 73.8422 124.482 73.9722C124.892 74.2022 125.192 74.1722 125.352 73.8822ZM123.402 71.7122L125.482 70.7522C125.402 70.4222 125.292 70.1322 125.132 69.8622C124.972 69.6022 124.762 69.4022 124.512 69.2422C124.102 69.0022 123.812 69.0222 123.642 69.3322C123.482 69.6322 123.382 70.1622 123.382 70.9522C123.382 71.0822 123.382 71.2222 123.392 71.3522C123.382 71.4722 123.382 71.5822 123.402 71.7122Z" fill="#50E6FF"/>
<path d="M121.932 68.9023C121.982 69.3023 122.022 69.7323 122.022 70.1923C122.022 70.6523 121.982 71.0323 121.922 71.3523C121.862 71.6723 121.742 71.9123 121.602 72.0823C121.462 72.2423 121.282 72.3423 121.062 72.3523C120.842 72.3623 120.602 72.2723 120.302 72.1123C120.002 71.9323 119.732 71.7123 119.512 71.4323C119.292 71.1723 119.112 70.8723 118.992 70.5423C118.852 70.2123 118.762 69.8423 118.692 69.4623C118.632 69.0623 118.602 68.6723 118.602 68.2323C118.602 67.7723 118.642 67.3923 118.702 67.0723C118.762 66.7523 118.882 66.5123 119.022 66.3423C119.162 66.1823 119.342 66.0823 119.542 66.0723C119.762 66.0623 120.012 66.1523 120.312 66.3123C120.632 66.4923 120.882 66.7123 121.102 66.9623C121.322 67.2123 121.502 67.5123 121.622 67.8323C121.772 68.1423 121.862 68.5023 121.932 68.9023ZM121.172 71.4823C121.352 71.1823 121.442 70.6523 121.442 69.8623C121.442 69.5823 121.432 69.3023 121.402 69.0323L119.322 70.0123C119.402 70.3623 119.512 70.6823 119.682 70.9523C119.842 71.2223 120.052 71.4423 120.302 71.5723C120.702 71.7923 120.992 71.7723 121.172 71.4823ZM119.212 69.3123L121.292 68.3523C121.212 68.0223 121.102 67.7323 120.942 67.4623C120.782 67.2023 120.572 67.0023 120.322 66.8423C119.912 66.6023 119.622 66.6223 119.452 66.9323C119.292 67.2323 119.192 67.7623 119.192 68.5523C119.192 68.6823 119.192 68.8223 119.202 68.9523C119.192 69.0723 119.202 69.1823 119.212 69.3123Z" fill="#50E6FF"/>
<path d="M113.552 73.6921C113.602 74.0921 113.642 74.5221 113.642 74.9821C113.642 75.4421 113.602 75.8221 113.542 76.1421C113.482 76.4621 113.362 76.7021 113.222 76.8721C113.082 77.0321 112.902 77.1321 112.682 77.1421C112.462 77.1521 112.222 77.0621 111.922 76.9021C111.622 76.7221 111.352 76.5021 111.132 76.2221C110.912 75.9621 110.732 75.6621 110.612 75.3321C110.472 75.0021 110.382 74.6321 110.312 74.2521C110.252 73.8521 110.222 73.4621 110.222 73.0221C110.222 72.5621 110.262 72.1821 110.322 71.8621C110.382 71.5421 110.502 71.3021 110.642 71.1321C110.782 70.9721 110.962 70.8721 111.162 70.8621C111.382 70.8521 111.632 70.9421 111.932 71.1021C112.252 71.2821 112.502 71.5021 112.722 71.7521C112.942 72.0021 113.122 72.3021 113.242 72.6221C113.382 72.9421 113.482 73.3021 113.552 73.6921ZM112.782 76.2821C112.962 75.9821 113.052 75.4521 113.052 74.6621C113.052 74.3821 113.042 74.1021 113.012 73.8321L110.932 74.8121C111.012 75.1621 111.122 75.4821 111.292 75.7521C111.452 76.0221 111.662 76.2421 111.912 76.3721C112.322 76.6021 112.612 76.5821 112.782 76.2821ZM110.822 74.1221L112.902 73.1621C112.822 72.8321 112.712 72.5421 112.552 72.2721C112.392 72.0121 112.182 71.8121 111.932 71.6521C111.522 71.4121 111.232 71.4321 111.062 71.7421C110.902 72.0421 110.802 72.5721 110.802 73.3621C110.802 73.4921 110.802 73.6321 110.812 73.7621C110.812 73.8621 110.812 73.9921 110.822 74.1221Z" fill="#50E6FF"/>
<path d="M117.722 76.0722C117.772 76.4722 117.812 76.9022 117.812 77.3622C117.812 77.8222 117.772 78.2022 117.712 78.5222C117.652 78.8422 117.532 79.0822 117.392 79.2522C117.252 79.4122 117.072 79.5122 116.852 79.5222C116.632 79.5322 116.392 79.4422 116.092 79.2822C115.792 79.1022 115.522 78.8822 115.302 78.6022C115.082 78.3422 114.902 78.0422 114.782 77.7122C114.642 77.3822 114.552 77.0122 114.482 76.6322C114.422 76.2322 114.392 75.8422 114.392 75.4022C114.392 74.9422 114.432 74.5622 114.492 74.2422C114.552 73.9222 114.672 73.6822 114.812 73.5122C114.952 73.3422 115.132 73.2522 115.332 73.2422C115.552 73.2322 115.802 73.3222 116.102 73.4822C116.422 73.6622 116.672 73.8822 116.892 74.1322C117.112 74.3922 117.292 74.6822 117.412 75.0022C117.552 75.3222 117.652 75.6822 117.722 76.0722ZM116.952 78.6622C117.132 78.3622 117.222 77.8322 117.222 77.0422C117.222 76.7622 117.212 76.4822 117.182 76.2122L115.102 77.1922C115.182 77.5422 115.292 77.8622 115.462 78.1322C115.622 78.4022 115.832 78.6222 116.082 78.7522C116.492 78.9822 116.782 78.9522 116.952 78.6622ZM114.992 76.5022L117.072 75.5422C116.992 75.2122 116.882 74.9222 116.722 74.6522C116.562 74.3922 116.352 74.1922 116.102 74.0322C115.692 73.7922 115.402 73.8122 115.232 74.1222C115.072 74.4222 114.972 74.9522 114.972 75.7422C114.972 75.8722 114.972 76.0122 114.982 76.1422C114.982 76.2422 114.982 76.3722 114.992 76.5022Z" fill="#50E6FF"/>
<path d="M105.121 68.9023C105.171 69.3023 105.211 69.7323 105.211 70.1923C105.211 70.6523 105.171 71.0323 105.111 71.3523C105.021 71.6523 104.921 71.9123 104.781 72.0823C104.641 72.2423 104.461 72.3423 104.241 72.3523C104.021 72.3623 103.781 72.2723 103.481 72.1123C103.181 71.9323 102.911 71.7123 102.691 71.4323C102.471 71.1723 102.291 70.8723 102.171 70.5423C102.031 70.2123 101.941 69.8423 101.871 69.4623C101.811 69.0623 101.781 68.6523 101.781 68.2223C101.781 67.7623 101.821 67.3823 101.881 67.0623C101.961 66.7623 102.061 66.5023 102.201 66.3423C102.341 66.1823 102.521 66.0823 102.721 66.0723C102.931 66.0623 103.191 66.1523 103.491 66.3123C103.811 66.4923 104.061 66.7123 104.281 66.9623C104.501 67.2123 104.681 67.5123 104.801 67.8323C104.951 68.1423 105.051 68.5023 105.121 68.9023ZM104.341 71.4823C104.521 71.1823 104.611 70.6523 104.611 69.8623C104.611 69.5823 104.601 69.3023 104.571 69.0323L102.491 70.0023C102.571 70.3523 102.681 70.6723 102.851 70.9423C103.011 71.2123 103.221 71.4323 103.471 71.5623C103.881 71.7923 104.171 71.7723 104.341 71.4823ZM102.391 69.3123L104.471 68.3523C104.391 68.0223 104.281 67.7323 104.121 67.4623C103.961 67.2023 103.751 67.0023 103.481 66.8423C103.071 66.6023 102.781 66.6223 102.611 66.9223C102.451 67.2223 102.351 67.7523 102.351 68.5423C102.351 68.6723 102.351 68.8123 102.361 68.9423C102.381 69.0723 102.381 69.1823 102.391 69.3123Z" fill="#50E6FF"/>
<path d="M113.512 83.2822C113.562 83.6822 113.602 84.1122 113.602 84.5722C113.602 85.0322 113.562 85.4122 113.502 85.7322C113.442 86.0522 113.322 86.2922 113.182 86.4622C113.042 86.6222 112.862 86.7222 112.642 86.7322C112.422 86.7422 112.182 86.6522 111.882 86.4922C111.582 86.3122 111.312 86.0922 111.092 85.8122C110.872 85.5522 110.692 85.2522 110.572 84.9222C110.432 84.5922 110.342 84.2222 110.272 83.8422C110.212 83.4422 110.182 83.0522 110.182 82.6122C110.182 82.1522 110.222 81.7722 110.282 81.4522C110.342 81.1322 110.462 80.8922 110.602 80.7222C110.742 80.5622 110.922 80.4622 111.122 80.4522C111.342 80.4422 111.592 80.5322 111.892 80.6922C112.212 80.8722 112.462 81.0922 112.682 81.3422C112.902 81.6022 113.082 81.8922 113.202 82.2122C113.352 82.5222 113.442 82.8822 113.512 83.2822ZM112.762 85.8622C112.942 85.5622 113.032 85.0322 113.032 84.2422C113.032 83.9622 113.022 83.6822 112.992 83.4122L110.912 84.3922C110.992 84.7422 111.102 85.0622 111.272 85.3322C111.432 85.6022 111.642 85.8222 111.892 85.9522C112.282 86.1822 112.572 86.1622 112.762 85.8622ZM110.792 83.7022L112.872 82.7422C112.792 82.4122 112.682 82.1222 112.522 81.8522C112.362 81.5922 112.152 81.3922 111.902 81.2322C111.492 80.9922 111.202 81.0122 111.032 81.3222C110.872 81.6222 110.772 82.1522 110.772 82.9422C110.772 83.0722 110.772 83.2122 110.782 83.3422C110.772 83.4422 110.782 83.5722 110.792 83.7022Z" fill="#50E6FF"/>
<path d="M126.042 90.5922C126.092 90.9922 126.132 91.4222 126.132 91.8822C126.132 92.3422 126.092 92.7222 126.032 93.0422C125.972 93.3622 125.852 93.6022 125.712 93.7722C125.572 93.9322 125.392 94.0322 125.172 94.0422C124.952 94.0522 124.712 93.9622 124.412 93.8022C124.112 93.6222 123.842 93.4022 123.622 93.1222C123.402 92.8622 123.222 92.5622 123.102 92.2322C122.962 91.9022 122.872 91.5322 122.802 91.1522C122.742 90.7522 122.712 90.3622 122.712 89.9222C122.712 89.4622 122.752 89.0822 122.812 88.7622C122.872 88.4422 122.992 88.2022 123.132 88.0322C123.272 87.8722 123.452 87.7722 123.652 87.7622C123.872 87.7522 124.122 87.8422 124.422 88.0022C124.742 88.1822 124.992 88.4022 125.212 88.6522C125.432 88.9122 125.612 89.2022 125.732 89.5222C125.862 89.8322 125.972 90.1922 126.042 90.5922ZM125.262 93.1622C125.442 92.8622 125.532 92.3322 125.532 91.5422C125.532 91.2622 125.522 90.9822 125.492 90.7122L123.412 91.6922C123.492 92.0422 123.602 92.3622 123.772 92.6322C123.932 92.9022 124.142 93.1222 124.392 93.2522C124.802 93.4922 125.102 93.4622 125.262 93.1622ZM123.312 91.0022L125.392 90.0422C125.312 89.7122 125.202 89.4222 125.042 89.1522C124.882 88.8922 124.672 88.6922 124.422 88.5322C124.012 88.2922 123.722 88.3122 123.552 88.6222C123.392 88.9222 123.292 89.4522 123.292 90.2422C123.292 90.3722 123.292 90.5122 123.302 90.6422C123.292 90.7522 123.312 90.8822 123.312 91.0022Z" fill="#50E6FF"/>
<path d="M105.122 88.0922C105.172 88.4922 105.212 88.9222 105.212 89.3822C105.212 89.8422 105.172 90.2222 105.112 90.5422C105.052 90.8622 104.932 91.1022 104.792 91.2722C104.652 91.4322 104.472 91.5322 104.252 91.5422C104.032 91.5522 103.792 91.4622 103.492 91.3022C103.192 91.1222 102.922 90.9022 102.702 90.6222C102.482 90.3622 102.302 90.0622 102.182 89.7322C102.042 89.4022 101.952 89.0322 101.882 88.6522C101.822 88.2522 101.792 87.8622 101.792 87.4222C101.792 86.9622 101.832 86.5822 101.892 86.2622C101.952 85.9422 102.072 85.7022 102.212 85.5322C102.352 85.3722 102.532 85.2722 102.732 85.2622C102.952 85.2522 103.202 85.3422 103.502 85.5022C103.822 85.6822 104.072 85.9022 104.292 86.1522C104.512 86.4122 104.692 86.7022 104.812 87.0222C104.962 87.3322 105.062 87.6922 105.122 88.0922ZM104.362 90.6722C104.542 90.3722 104.632 89.8422 104.632 89.0522C104.632 88.7722 104.622 88.4922 104.592 88.2222L102.512 89.2022C102.592 89.5522 102.702 89.8722 102.872 90.1422C103.032 90.4122 103.242 90.6322 103.492 90.7622C103.902 90.9822 104.202 90.9522 104.362 90.6722ZM102.402 88.5022L104.482 87.5422C104.402 87.2122 104.292 86.9222 104.132 86.6522C103.972 86.3922 103.762 86.1922 103.512 86.0322C103.102 85.7922 102.812 85.8122 102.642 86.1222C102.482 86.4222 102.382 86.9522 102.382 87.7422C102.382 87.8722 102.382 88.0122 102.392 88.1422C102.392 88.2522 102.392 88.3722 102.402 88.5022Z" fill="#50E6FF"/>
<path d="M121.851 97.7421C121.901 98.1421 121.941 98.5721 121.941 99.0321C121.941 99.4921 121.901 99.8721 121.841 100.192C121.781 100.512 121.661 100.752 121.521 100.922C121.381 101.082 121.201 101.182 120.981 101.192C120.761 101.202 120.521 101.112 120.221 100.952C119.921 100.772 119.651 100.552 119.431 100.272C119.211 100.012 119.031 99.7121 118.911 99.3821C118.771 99.0521 118.681 98.6821 118.611 98.3021C118.551 97.9021 118.521 97.5121 118.521 97.0721C118.521 96.6121 118.561 96.2321 118.621 95.9121C118.681 95.5921 118.801 95.3521 118.941 95.1821C119.081 95.0121 119.261 94.9221 119.461 94.9121C119.681 94.9021 119.931 94.9921 120.231 95.1521C120.551 95.3321 120.801 95.5521 121.021 95.8021C121.241 96.0621 121.421 96.3521 121.541 96.6721C121.701 96.9821 121.781 97.3421 121.851 97.7421ZM121.101 100.322C121.281 100.022 121.371 99.4921 121.371 98.7021C121.371 98.4221 121.361 98.1421 121.331 97.8721L119.251 98.8521C119.331 99.2021 119.441 99.5221 119.611 99.7921C119.771 100.062 119.981 100.282 120.231 100.412C120.621 100.642 120.921 100.612 121.101 100.322ZM119.131 98.1621L121.211 97.2021C121.131 96.8721 121.021 96.5821 120.861 96.3121C120.701 96.0521 120.491 95.8521 120.241 95.6921C119.831 95.4521 119.541 95.4721 119.371 95.7821C119.211 96.0821 119.111 96.6121 119.111 97.4021C119.111 97.5321 119.111 97.6721 119.121 97.8021C119.111 97.9021 119.131 98.0321 119.131 98.1621Z" fill="#50E6FF"/>
<path d="M126.021 100.142C126.071 100.542 126.111 100.972 126.111 101.432C126.111 101.892 126.071 102.272 126.011 102.592C125.951 102.912 125.831 103.152 125.691 103.322C125.551 103.482 125.371 103.582 125.151 103.592C124.931 103.602 124.691 103.512 124.391 103.352C124.091 103.172 123.821 102.952 123.601 102.672C123.381 102.412 123.201 102.112 123.081 101.782C122.941 101.452 122.851 101.082 122.781 100.702C122.721 100.302 122.691 99.9123 122.691 99.4723C122.691 99.0123 122.731 98.6323 122.791 98.3123C122.851 97.9923 122.971 97.7523 123.111 97.5823C123.251 97.4223 123.431 97.3223 123.631 97.3123C123.841 97.3023 124.101 97.3923 124.401 97.5523C124.721 97.7323 124.971 97.9523 125.191 98.2023C125.411 98.4623 125.591 98.7523 125.711 99.0723C125.861 99.3923 125.961 99.7523 126.021 100.142ZM125.261 102.722C125.441 102.422 125.531 101.892 125.531 101.102C125.531 100.822 125.521 100.542 125.491 100.272L123.411 101.252C123.491 101.602 123.601 101.922 123.771 102.192C123.931 102.462 124.141 102.682 124.391 102.812C124.791 103.042 125.091 103.022 125.261 102.722ZM123.291 100.562L125.371 99.6023C125.291 99.2723 125.181 98.9823 125.021 98.7123C124.861 98.4523 124.651 98.2523 124.401 98.0923C123.991 97.8523 123.701 97.8723 123.531 98.1823C123.371 98.4823 123.271 99.0123 123.271 99.8023C123.271 99.9323 123.271 100.072 123.281 100.202C123.291 100.312 123.291 100.432 123.291 100.562Z" fill="#50E6FF"/>
<path d="M130.222 102.552C130.272 102.952 130.312 103.382 130.312 103.842C130.312 104.302 130.272 104.682 130.212 105.002C130.152 105.322 130.032 105.562 129.892 105.732C129.752 105.892 129.572 105.992 129.352 106.002C129.132 106.012 128.892 105.922 128.592 105.762C128.292 105.582 128.022 105.362 127.802 105.082C127.582 104.822 127.402 104.522 127.282 104.192C127.142 103.862 127.052 103.492 126.982 103.112C126.922 102.712 126.892 102.322 126.892 101.882C126.892 101.422 126.932 101.042 126.992 100.722C127.052 100.402 127.172 100.162 127.312 99.9922C127.452 99.8322 127.632 99.7322 127.832 99.7222C128.042 99.7122 128.302 99.8022 128.602 99.9622C128.922 100.142 129.172 100.362 129.392 100.612C129.612 100.872 129.792 101.162 129.912 101.482C130.052 101.792 130.152 102.152 130.222 102.552ZM129.452 105.132C129.632 104.832 129.722 104.302 129.722 103.512C129.722 103.232 129.712 102.952 129.682 102.682L127.602 103.662C127.682 104.012 127.792 104.332 127.962 104.602C128.122 104.872 128.332 105.092 128.582 105.222C128.992 105.442 129.282 105.422 129.452 105.132ZM127.492 102.962L129.572 102.002C129.492 101.672 129.382 101.382 129.222 101.112C129.062 100.852 128.852 100.652 128.602 100.492C128.192 100.252 127.902 100.272 127.732 100.582C127.572 100.882 127.472 101.412 127.472 102.202C127.472 102.332 127.472 102.472 127.482 102.602C127.482 102.712 127.482 102.842 127.492 102.962Z" fill="#50E6FF"/>
<path d="M104.012 56.9622L104.002 61.9922L105.082 62.6122V63.1822L102.372 61.6222L102.382 61.0522L103.462 61.6722L103.472 57.4522L102.362 57.7122L102.092 57.1122L103.632 56.7322L104.012 56.9622Z" fill="#50E6FF"/>
<path d="M128.961 71.2422L128.951 76.2722L130.011 76.8922V77.4622L127.311 75.9022V75.3322L128.411 75.9522V71.7322L127.301 71.9922L127.031 71.3722L128.571 71.0022L128.961 71.2422Z" fill="#50E6FF"/>
<path d="M108.022 68.8721L108.012 73.9121L109.072 74.5321V75.1021L106.372 73.5421V72.9821L107.472 73.6021V69.3821L106.362 69.6421L106.092 69.0221L107.632 68.6521L108.022 68.8721Z" fill="#50E6FF"/>
<path d="M120.642 76.2322L120.632 81.2722L121.712 81.8922V82.4622L119.002 80.9022V80.3322L120.102 80.9522L120.112 76.7322L118.982 77.0022L118.712 76.3822L120.252 76.0022L120.642 76.2322Z" fill="#50E6FF"/>
<path d="M124.911 78.6321L124.901 83.6721L125.981 84.2921V84.8621L123.271 83.3021V82.7121L124.371 83.3521L124.381 79.1321L123.251 79.3921L122.981 78.7721L124.521 78.4021L124.911 78.6321Z" fill="#50E6FF"/>
<path d="M129.052 81.0623L129.042 86.1023L130.122 86.7223V87.2923L127.412 85.7323V85.1623L128.512 85.7823L128.522 81.5623L127.392 81.8323L127.122 81.2123L128.662 80.8323L129.052 81.0623Z" fill="#50E6FF"/>
<path d="M133.312 83.4221L133.302 88.4622L134.382 89.0822V89.6522L131.672 88.0921V87.5221L132.772 88.1621L132.782 83.9422L131.672 84.2021L131.392 83.5822L132.932 83.2021L133.312 83.4221Z" fill="#50E6FF"/>
<path d="M133.172 93.0823L133.162 98.1223L134.242 98.7423V99.3123L131.542 97.7523V97.1823L132.622 97.8023L132.632 93.5823L131.522 93.8523L131.252 93.2323L132.792 92.8523L133.172 93.0823Z" fill="#50E6FF"/>
<path d="M129.052 90.7322L129.042 95.7622L130.122 96.3822V96.9522L127.412 95.3922V94.8222L128.512 95.4422L128.522 91.2222L127.392 91.4822L127.122 90.8622L128.662 90.4922L129.052 90.7322Z" fill="#50E6FF"/>
<path d="M120.692 85.9021L120.662 90.9321L121.742 91.5521V92.1221L119.042 90.5621V89.9921L120.122 90.6121L120.132 86.3921L119.022 86.6521L118.752 86.0321L120.292 85.6621L120.692 85.9021Z" fill="#50E6FF"/>
<path d="M116.461 83.4922L116.451 88.5322L117.531 89.1522V89.7222L114.821 88.1622L114.831 87.5922L115.911 88.2122L115.921 83.9922L114.811 84.2522L114.531 83.6322L116.071 83.2622L116.461 83.4922Z" fill="#50E6FF"/>
<path d="M108.121 78.6521L108.111 83.6821L109.191 84.3021V84.8721L106.481 83.3121V82.7421L107.581 83.3621L107.591 79.1421L106.461 79.4021L106.191 78.8021L107.731 78.4221L108.121 78.6521Z" fill="#50E6FF"/>
<path d="M103.952 76.2422L103.932 81.2822L105.012 81.9022V82.4722L102.302 80.9122V80.3322L103.402 80.9522L103.412 76.7422L102.282 77.0022L102.012 76.3822L103.552 76.0022L103.952 76.2422Z" fill="#50E6FF"/>
<path d="M108.112 88.2322L108.102 93.2622L109.182 93.8822V94.4522L106.472 92.8922V92.3222L107.572 92.9422L107.582 88.7222L106.452 88.9822L106.182 88.3622L107.722 87.9922L108.112 88.2322Z" fill="#50E6FF"/>
<path d="M112.252 90.5621L112.242 95.6021L113.322 96.2221V96.8121L110.622 95.2421V94.6721L111.702 95.3121L111.712 91.0921L110.602 91.3521L110.332 90.7321L111.872 90.3621L112.252 90.5621Z" fill="#50E6FF"/>
<path d="M116.432 92.9722L116.422 98.0122L117.502 98.6322V99.2022L114.802 97.6422V97.0622L115.882 97.7022L115.892 93.4822L114.782 93.7422L114.512 93.1222L116.052 92.7422L116.432 92.9722Z" fill="#50E6FF"/>
<path d="M133.211 102.672L133.201 107.712L134.281 108.332L134.271 108.902L131.571 107.342V106.772L132.671 107.392L132.681 103.172L131.551 103.442L131.281 102.822L132.821 102.442L133.211 102.672Z" fill="#50E6FF"/>
<path d="M133.282 73.8223L133.272 78.8623L134.332 79.4823V80.0523L131.632 78.4923V77.9223L132.712 78.5423L132.722 74.3223L131.612 74.6023L131.342 73.9823L132.882 73.6023L133.282 73.8223Z" fill="#50E6FF"/>
<path opacity="0.2" d="M70.2915 111.372L72.6615 110.452L110.212 132.212L108.451 133.132L70.2915 111.372Z" fill="#1F1D21"/>
<path opacity="0.2" d="M78.3418 106.622L80.7118 105.702L118.262 127.462L116.502 128.382L78.3418 106.622Z" fill="#1F1D21"/>
<path opacity="0.2" d="M86.3018 102.482L88.6718 101.562L126.222 123.322L124.462 124.242L86.3018 102.482Z" fill="#1F1D21"/>
<path opacity="0.75" d="M126.312 102.562L126.082 101.412L111.142 81.5621L86.9317 78.1921L86.4717 99.0421L126.322 122.102L126.312 102.562Z" fill="white" stroke="#9B9BA0" stroke-miterlimit="10" stroke-linejoin="round"/>
<path opacity="0.8" d="M118.261 109.762L106.771 92.1423L94.3612 82.3323L80.4912 84.7023L80.6412 104.322L118.271 126.082L118.261 109.762Z" fill="#0078D4" stroke="#32B0E7" stroke-width="0.5" stroke-miterlimit="10"/>
<path d="M118.261 109.762L106.771 92.1423L94.3612 82.3323L80.4912 84.7023L80.6412 104.322L118.271 126.082L118.261 109.762Z" stroke="#185A97" stroke-miterlimit="10" stroke-linejoin="round"/>
<path d="M117.421 107.852C117.651 107.772 117.881 107.852 118.191 108.012C118.271 108.092 118.351 108.092 118.421 108.172C118.721 108.472 119.041 108.862 119.261 109.322C119.491 109.782 119.561 110.242 119.491 110.552C119.411 110.932 119.261 111.172 118.951 111.172C118.721 111.252 118.491 111.172 118.181 111.012C118.101 110.932 118.021 110.932 117.951 110.852C117.571 110.552 117.331 110.162 117.111 109.702C116.881 109.242 116.811 108.782 116.881 108.472C116.961 108.152 117.191 107.922 117.421 107.852ZM117.571 109.682C117.731 109.912 117.871 110.142 118.031 110.372C118.111 110.372 118.111 110.452 118.191 110.452C118.351 110.532 118.491 110.612 118.651 110.532C118.811 110.532 118.951 110.372 118.951 110.152C118.951 109.932 118.951 109.692 118.791 109.382C118.631 109.152 118.491 108.922 118.331 108.762L118.171 108.682C118.011 108.602 117.871 108.522 117.711 108.602C117.551 108.682 117.411 108.762 117.411 108.982C117.421 109.152 117.421 109.382 117.571 109.682Z" fill="#185A97"/>
<path d="M118.182 108.612C118.022 108.532 117.882 108.452 117.722 108.532C117.562 108.612 117.422 108.692 117.422 108.912C117.342 109.142 117.422 109.372 117.582 109.682C117.742 109.912 117.882 110.142 118.042 110.372C118.122 110.372 118.122 110.452 118.202 110.452C118.362 110.532 118.502 110.612 118.662 110.532C118.822 110.532 118.962 110.372 118.962 110.152C118.962 109.922 118.962 109.692 118.802 109.382C118.642 109.152 118.502 108.922 118.342 108.762L118.182 108.612Z" fill="#2195DC"/>
<path d="M106.001 90.5321C106.231 90.4521 106.461 90.5321 106.771 90.6921C106.851 90.7721 106.931 90.7721 107.001 90.8521C107.301 91.1521 107.621 91.5421 107.841 92.0021C108.071 92.4621 108.141 92.9221 108.071 93.2321C107.991 93.6121 107.841 93.8521 107.531 93.8521C107.301 93.9321 107.071 93.8521 106.761 93.6921C106.681 93.6121 106.601 93.6121 106.531 93.5321C106.151 93.2321 105.911 92.8421 105.691 92.3821C105.461 91.9221 105.391 91.4621 105.461 91.1521C105.541 90.7621 105.701 90.5321 106.001 90.5321ZM106.081 92.2921C106.241 92.5221 106.381 92.7521 106.541 92.9821C106.621 92.9821 106.621 93.0621 106.701 93.0621C106.861 93.1421 107.001 93.2221 107.161 93.1421C107.321 93.1421 107.461 92.9821 107.461 92.7621C107.461 92.5321 107.461 92.3021 107.301 91.9921C107.141 91.7621 107.001 91.5321 106.841 91.3721L106.681 91.2921C106.521 91.2121 106.381 91.1321 106.221 91.2121C106.061 91.2921 105.921 91.3721 105.921 91.5921C105.931 91.7521 106.001 92.0621 106.081 92.2921Z" fill="#185A97"/>
<path d="M106.772 91.2921C106.612 91.2121 106.472 91.1321 106.312 91.2121C106.152 91.2921 106.012 91.3721 106.012 91.5921C105.932 91.8221 106.012 92.0521 106.172 92.3621C106.332 92.5921 106.472 92.8221 106.632 93.0521C106.712 93.0521 106.712 93.1321 106.792 93.1321C106.952 93.2121 107.092 93.2921 107.252 93.2121C107.412 93.2121 107.552 93.0521 107.552 92.8321C107.552 92.6021 107.552 92.3721 107.392 92.0621C107.232 91.8321 107.092 91.6021 106.932 91.4421L106.772 91.2921Z" fill="#2195DC"/>
<path d="M93.7417 80.7921C93.9717 80.7121 94.2017 80.7921 94.5117 80.9521C94.5917 81.0321 94.6717 81.0321 94.7417 81.1121C95.0417 81.4121 95.3617 81.8021 95.5817 82.2621C95.8117 82.7221 95.8817 83.1821 95.8117 83.4921C95.7317 83.8721 95.5817 84.1121 95.2717 84.1121C95.0417 84.1921 94.8117 84.1121 94.5017 83.9521C94.4217 83.8721 94.3417 83.8721 94.2717 83.7921C93.8917 83.4921 93.6517 83.1021 93.4317 82.6421C93.2017 82.1821 93.1317 81.7221 93.2017 81.4121C93.2817 81.1021 93.4317 80.8721 93.7417 80.7921ZM93.8217 82.5621C93.9817 82.7921 94.1217 83.0221 94.2817 83.2521C94.3617 83.2521 94.3617 83.3321 94.4417 83.3321C94.6717 83.4121 94.8217 83.4921 94.9017 83.4121C95.0617 83.4121 95.2017 83.2521 95.2017 83.0321C95.2017 82.8021 95.2017 82.5721 95.0417 82.2621C94.8817 82.0321 94.7417 81.8021 94.5817 81.6421L94.4217 81.5621C94.2617 81.4821 94.1217 81.4021 93.9617 81.4821C93.8017 81.5621 93.6617 81.6421 93.6617 81.8621C93.6617 82.0921 93.7417 82.3321 93.8217 82.5621Z" fill="#185A97"/>
<path d="M94.5121 81.5621C94.3521 81.4821 94.2121 81.4021 94.0521 81.4821C93.8921 81.5621 93.7521 81.6421 93.7521 81.8621C93.6721 82.0921 93.7521 82.3221 93.9121 82.6321C94.0721 82.8621 94.2121 83.0921 94.3721 83.3221C94.4521 83.3221 94.4521 83.4021 94.5321 83.4021C94.6921 83.4021 94.8321 83.4821 94.9121 83.4021C95.0721 83.4021 95.2121 83.2421 95.2121 83.0221C95.2121 82.7921 95.2121 82.5621 95.0521 82.2521C94.8921 82.0221 94.7521 81.7921 94.5921 81.6321L94.5121 81.5621Z" fill="#2195DC"/>
<path d="M79.8716 83.1723C80.1016 83.0923 80.3316 83.1723 80.6416 83.3323C80.7216 83.4123 80.8016 83.4123 80.8716 83.4923C81.1716 83.7923 81.4916 84.1823 81.7116 84.6423C81.9316 85.1023 82.0116 85.5622 81.9416 85.8722C81.8616 86.2522 81.7116 86.4923 81.4016 86.4923C81.1716 86.5723 80.9416 86.4923 80.6316 86.3323C80.5516 86.2523 80.4716 86.2523 80.4016 86.1723C80.0216 85.8723 79.7816 85.4823 79.5616 85.0223C79.3316 84.5623 79.2616 84.1023 79.3316 83.7923C79.4116 83.4023 79.5716 83.1723 79.8716 83.1723ZM80.0316 84.9323C80.1916 85.1623 80.3316 85.3922 80.4916 85.6222C80.5716 85.6222 80.5716 85.7023 80.6516 85.7023C80.8116 85.7823 80.9516 85.8623 81.1116 85.7823C81.2716 85.7823 81.4116 85.6223 81.4116 85.4023C81.4116 85.1823 81.4116 84.9423 81.2516 84.6323C81.0916 84.4023 80.9516 84.1723 80.7916 84.0123L80.6416 83.9323C80.4816 83.8523 80.3416 83.7723 80.1816 83.8523C80.0216 83.9323 79.8816 84.0123 79.8816 84.2323C79.7916 84.4023 79.8716 84.7023 80.0316 84.9323Z" fill="#185A97"/>
<path d="M80.642 83.9422C80.482 83.8622 80.342 83.7822 80.182 83.8622C80.022 83.9422 79.882 84.0222 79.882 84.2422C79.802 84.4722 79.882 84.7022 80.042 85.0122C80.202 85.2422 80.342 85.4722 80.502 85.7022C80.582 85.7022 80.582 85.7822 80.662 85.7822C80.822 85.8622 80.962 85.9422 81.122 85.8622C81.282 85.8622 81.422 85.7022 81.422 85.4822C81.422 85.2522 81.422 85.0222 81.262 84.7122C81.102 84.4822 80.962 84.2522 80.802 84.0922L80.642 83.9422Z" fill="#2195DC"/>
<path opacity="0.65" d="M110.521 112.912L104.541 100.342L94.9715 102.032L83.3914 91.3722L72.3615 81.0322L71.9814 108.852L110.531 131.072V112.912H110.521Z" fill="#50E6FF"/>
<path d="M110.522 112.912L104.542 100.342L94.9718 102.032L83.4018 91.3723L72.5918 81.5623L72.1318 109.382L110.522 131.072V112.912V112.912Z" stroke="#32B0E7" stroke-miterlimit="10" stroke-linejoin="round"/>
<path d="M111.212 80.7922C111.052 80.7122 110.982 80.7122 110.832 80.7122C110.682 80.7122 110.602 80.8722 110.602 81.0122C110.602 81.1722 110.602 81.3922 110.682 81.6322C110.762 81.8622 110.912 82.0122 111.062 82.1722C111.142 82.1722 111.142 82.2522 111.222 82.2522C111.382 82.3322 111.452 82.3322 111.602 82.3322C111.752 82.3322 111.832 82.1722 111.832 82.0322C111.832 81.8822 111.832 81.6522 111.752 81.4122C111.592 81.1022 111.372 80.9522 111.212 80.7922Z" fill="white"/>
<path d="M110.371 79.6422C110.601 79.5622 110.911 79.6422 111.211 79.8022C111.671 80.0322 112.131 80.5722 112.441 81.1822C112.901 82.1822 112.741 83.1722 112.061 83.2522C111.831 83.3322 111.521 83.2522 111.221 83.0922C111.141 83.0122 111.061 83.0122 110.991 82.9322C110.611 82.6322 110.301 82.1622 110.071 81.7022C109.841 81.2422 109.771 80.7022 109.841 80.3222C109.841 80.0322 110.061 79.7222 110.371 79.6422ZM110.681 81.6422C110.761 81.8722 110.911 82.0222 111.061 82.1822C111.141 82.1822 111.141 82.2622 111.221 82.2622C111.381 82.3422 111.451 82.3422 111.601 82.3422C111.751 82.3422 111.831 82.1822 111.831 82.0422C111.831 81.8822 111.831 81.6622 111.751 81.4222C111.591 81.1222 111.451 80.9622 111.211 80.8022C111.051 80.7222 110.981 80.7222 110.831 80.7222C110.671 80.7222 110.601 80.8822 110.601 81.0222C110.521 81.1822 110.601 81.4122 110.681 81.6422Z" fill="#B2B2B2"/>
<path d="M126.011 100.722C125.851 100.642 125.781 100.642 125.631 100.642C125.471 100.642 125.401 100.802 125.401 100.942C125.401 101.082 125.401 101.322 125.481 101.562C125.561 101.792 125.711 101.942 125.861 102.102C125.941 102.102 125.941 102.182 126.021 102.182C126.181 102.262 126.251 102.262 126.401 102.262C126.551 102.262 126.631 102.102 126.631 101.962C126.631 101.822 126.631 101.582 126.551 101.342C126.391 101.022 126.161 100.802 126.011 100.722Z" fill="white"/>
<path d="M125.161 99.5722C125.391 99.4922 125.701 99.5722 126.001 99.7322C126.461 99.9622 126.921 100.502 127.231 101.112C127.691 102.112 127.531 103.102 126.851 103.182C126.621 103.262 126.311 103.182 126.011 103.022C125.931 102.942 125.851 102.942 125.781 102.862C125.401 102.562 125.091 102.092 124.861 101.632C124.631 101.172 124.561 100.632 124.631 100.252C124.621 99.8822 124.851 99.6522 125.161 99.5722ZM125.471 101.482C125.551 101.712 125.701 101.862 125.851 102.022C125.931 102.022 125.931 102.102 126.011 102.102C126.171 102.182 126.241 102.182 126.391 102.182C126.541 102.182 126.621 102.022 126.621 101.882C126.621 101.742 126.621 101.502 126.541 101.262C126.381 100.962 126.241 100.802 126.001 100.642C125.841 100.562 125.771 100.562 125.621 100.562C125.471 100.562 125.391 100.722 125.391 100.862C125.311 101.102 125.391 101.332 125.471 101.482Z" fill="#B2B2B2"/>
<path d="M87.0016 77.6523C86.8416 77.5723 86.7716 77.5723 86.6216 77.5723C86.4716 77.5723 86.3916 77.7323 86.3916 77.8723C86.3916 78.0123 86.3916 78.2523 86.4716 78.4923C86.5516 78.7223 86.7016 78.8723 86.8516 79.0323C86.9316 79.0323 86.9316 79.1123 87.0116 79.1123C87.1716 79.1923 87.2416 79.1923 87.3916 79.1923C87.5416 79.1923 87.6216 79.0323 87.6216 78.8923C87.6216 78.7523 87.6216 78.5123 87.5416 78.2723C87.3816 77.9623 87.2316 77.7323 87.0016 77.6523Z" fill="white"/>
<path d="M86.2317 76.5121C86.4617 76.4321 86.7717 76.5121 87.0717 76.6721C87.5317 76.9021 87.9917 77.4421 88.3017 78.0521C88.7617 79.0521 88.6017 80.0421 87.9217 80.1221C87.6917 80.2021 87.3817 80.1221 87.0817 79.9621C87.0017 79.8821 86.9217 79.8821 86.8517 79.8021C86.4717 79.5021 86.1617 79.0321 85.9317 78.5721C85.6317 78.1121 85.5517 77.6521 85.6317 77.2721C85.7017 76.8121 85.8517 76.5821 86.2317 76.5121ZM86.4617 78.5021C86.5417 78.7321 86.6917 78.8821 86.8417 79.0421C86.9217 79.0421 86.9217 79.1221 87.0017 79.1221C87.1617 79.2021 87.2317 79.2021 87.3817 79.2021C87.5317 79.2021 87.6117 79.0421 87.6117 78.9021C87.6117 78.7621 87.6117 78.5221 87.5317 78.2821C87.3717 77.9821 87.2317 77.8221 86.9917 77.6621C86.8317 77.5821 86.7617 77.5821 86.6117 77.5821C86.4617 77.5821 86.3817 77.7421 86.3817 77.8821C86.3817 78.0221 86.3817 78.2621 86.4617 78.5021Z" fill="#B2B2B2"/>
<path d="M72.5916 79.8023C72.9716 80.0323 73.4316 80.4923 73.6616 81.1023C73.8916 81.5623 73.9616 82.0223 73.8916 82.3323C73.8116 82.6323 73.5916 82.8723 73.3516 82.9523C73.1216 83.0323 72.8916 82.9523 72.5816 82.7923C72.5016 82.7123 72.4216 82.7123 72.3516 82.6323C71.9716 82.3323 71.6616 81.9423 71.5116 81.4823C71.0516 80.5623 71.2116 79.7223 71.8116 79.5723C72.0516 79.5723 72.3616 79.6423 72.5916 79.8023ZM71.9816 81.4123C72.0616 81.6423 72.2116 81.8723 72.4416 82.1023C72.5216 82.1023 72.5216 82.1023 72.6016 82.1823C72.7616 82.2623 72.9016 82.3423 73.0616 82.2623C73.2216 82.2623 73.2916 82.1023 73.3616 81.8823C73.4416 81.6523 73.3616 81.4223 73.2016 81.1123C73.0416 80.8023 72.8216 80.4923 72.5816 80.4223C72.4316 80.3323 72.2816 80.2623 72.1316 80.2623C71.8216 80.3323 71.7516 80.8723 71.9816 81.4123Z" fill="#32B0E7"/>
<path d="M72.5915 80.4122C72.4315 80.3322 72.2815 80.2622 72.1315 80.2622C71.8315 80.3422 71.7515 80.8822 71.9715 81.4122C72.0515 81.6422 72.2015 81.8722 72.4315 82.1022C72.5115 82.1022 72.5115 82.1022 72.5915 82.1822C72.7515 82.2622 72.8915 82.3422 73.0515 82.2622C73.2115 82.2622 73.2815 82.1022 73.3515 81.8822C73.4315 81.6522 73.3515 81.4222 73.1915 81.1122C73.0515 80.7922 72.8215 80.4922 72.5915 80.4122Z" fill="#50E6FF"/>
<path d="M83.8514 90.2222C84.2314 90.4522 84.6914 90.9122 84.9214 91.5222C85.1514 91.9822 85.2214 92.4422 85.1514 92.7522C85.0714 93.1322 84.9214 93.3723 84.6114 93.4423C84.3814 93.5223 84.1514 93.4422 83.8414 93.2822C83.7614 93.2022 83.6814 93.2022 83.6114 93.1222C83.2314 92.8222 82.9914 92.4322 82.7714 91.9722C82.3914 91.0522 82.5414 90.2122 83.0714 90.0622C83.3914 89.9922 83.6314 90.0722 83.8514 90.2222ZM83.2414 91.8322C83.4014 92.0622 83.5414 92.2922 83.7014 92.4522C83.7814 92.5322 83.7814 92.5322 83.8614 92.5322C84.0214 92.6122 84.1614 92.6922 84.3214 92.6122C84.4814 92.5322 84.6214 92.4522 84.6214 92.2322C84.7014 92.0022 84.6214 91.7722 84.4614 91.4622C84.3014 91.1522 84.0814 90.8423 83.8414 90.6923C83.6814 90.6123 83.5414 90.5322 83.3814 90.6122C83.0914 90.8322 83.0114 91.2922 83.2414 91.8322Z" fill="#32B0E7"/>
<path d="M83.8517 90.8321C83.6917 90.7521 83.5517 90.6721 83.3917 90.7521C83.0117 90.8321 82.9317 91.3721 83.1617 91.9021C83.3217 92.1321 83.4617 92.3621 83.6217 92.5221C83.7017 92.6021 83.7017 92.6021 83.7817 92.6021C83.9417 92.6821 84.0817 92.7621 84.2417 92.6821C84.4017 92.6021 84.5417 92.5221 84.5417 92.3021C84.6217 92.0721 84.5417 91.8421 84.3817 91.5321C84.3917 91.2921 84.1617 90.9921 83.8517 90.8321Z" fill="#50E6FF"/>
<path d="M94.9715 100.262C95.3515 100.492 95.8115 100.952 96.0415 101.562C96.2715 102.022 96.3415 102.482 96.2715 102.792C96.1915 103.172 96.0415 103.412 95.7315 103.482C95.5015 103.562 95.2715 103.482 94.9615 103.322C94.8815 103.242 94.8015 103.242 94.7315 103.162C94.3515 102.862 94.1115 102.472 93.8915 102.012C93.5115 101.092 93.6615 100.252 94.1915 100.102C94.4315 100.032 94.6615 100.112 94.9715 100.262ZM94.2815 101.872C94.4415 102.102 94.5815 102.332 94.7415 102.492C94.8215 102.572 94.8215 102.572 94.9015 102.572C95.0615 102.652 95.2015 102.732 95.3615 102.652C95.5215 102.572 95.6615 102.492 95.6615 102.272C95.7415 102.042 95.6615 101.812 95.5015 101.502C95.3415 101.192 95.1215 100.882 94.8815 100.732C94.7215 100.652 94.5815 100.572 94.4215 100.652C94.1315 100.872 94.0515 101.332 94.2815 101.872Z" fill="#32B0E7"/>
<path d="M94.9718 100.872C94.8118 100.792 94.6718 100.712 94.5118 100.792C94.1318 100.872 94.0518 101.412 94.2818 101.942C94.4418 102.172 94.5818 102.402 94.7418 102.562C94.8218 102.642 94.8218 102.642 94.9018 102.642C95.0618 102.722 95.2018 102.802 95.3618 102.722C95.5218 102.642 95.6618 102.562 95.6618 102.342C95.7418 102.112 95.6618 101.882 95.5018 101.572C95.4218 101.262 95.2018 101.022 94.9718 100.872Z" fill="#50E6FF"/>
<path d="M104.622 98.8822C105.002 99.1122 105.462 99.5722 105.692 100.182C105.922 100.642 105.992 101.102 105.922 101.412C105.842 101.792 105.692 102.032 105.382 102.102C105.152 102.182 104.922 102.102 104.612 101.942C104.532 101.862 104.452 101.862 104.382 101.782C104.002 101.482 103.762 101.092 103.542 100.632C103.162 99.7122 103.312 98.8722 103.842 98.7222C104.082 98.6522 104.392 98.7322 104.622 98.8822ZM104.012 100.572C104.172 100.802 104.312 101.032 104.472 101.192C104.552 101.272 104.552 101.272 104.632 101.272C104.792 101.352 104.932 101.432 105.092 101.352C105.252 101.272 105.392 101.192 105.392 100.972C105.472 100.742 105.392 100.512 105.232 100.202C105.072 99.9022 104.852 99.5822 104.612 99.4322C104.452 99.3522 104.312 99.2722 104.152 99.3522C103.862 99.4922 103.782 99.9522 104.012 100.572Z" fill="#32B0E7"/>
<path d="M104.621 99.4923C104.461 99.4123 104.321 99.3323 104.161 99.4123C103.781 99.4923 103.701 100.032 103.931 100.562C104.091 100.792 104.231 101.022 104.391 101.182C104.471 101.262 104.471 101.262 104.551 101.262C104.711 101.342 104.851 101.422 105.011 101.342C105.171 101.262 105.311 101.182 105.311 100.962C105.391 100.732 105.311 100.502 105.151 100.192C105.081 99.9523 104.861 99.6523 104.621 99.4923Z" fill="#50E6FF"/>
<path d="M110.372 111.142C110.752 111.372 111.212 111.832 111.442 112.442C111.672 112.902 111.742 113.362 111.672 113.672C111.592 114.052 111.442 114.292 111.132 114.362C110.902 114.442 110.672 114.362 110.362 114.202C110.282 114.122 110.132 114.042 110.062 114.042C109.682 113.742 109.442 113.352 109.222 112.892C108.842 111.972 108.992 111.132 109.522 110.982C109.842 110.992 110.062 110.992 110.372 111.142ZM109.682 112.832C109.842 113.062 109.982 113.292 110.142 113.452C110.222 113.532 110.222 113.532 110.302 113.532C110.462 113.612 110.602 113.692 110.762 113.612C110.922 113.532 111.062 113.452 111.062 113.232C111.142 113.002 111.062 112.772 110.902 112.462C110.742 112.162 110.522 111.842 110.282 111.692C110.122 111.612 109.982 111.532 109.822 111.612C109.522 111.752 109.452 112.292 109.682 112.832Z" fill="#32B0E7"/>
<path d="M110.371 111.752C110.211 111.672 110.071 111.592 109.911 111.672C109.531 111.752 109.451 112.292 109.681 112.822C109.841 113.052 109.981 113.282 110.141 113.442C110.221 113.522 110.221 113.522 110.301 113.522C110.461 113.602 110.601 113.682 110.761 113.602C110.921 113.522 111.061 113.442 111.061 113.222C111.141 112.992 111.061 112.762 110.901 112.452C110.831 112.212 110.601 111.912 110.371 111.752Z" fill="#50E6FF"/>
<path d="M85.0615 97.8922C85.5215 98.1622 85.9115 98.8322 85.9115 99.3922L85.7815 126.542L84.0615 125.542L84.1915 98.3922C84.1915 97.8522 84.5915 97.6222 85.0615 97.8922Z" fill="#50E6FF"/>
<path d="M88.5013 93.1423C88.9713 93.4223 89.3813 94.0923 89.3613 94.6423L89.2712 128.552L87.5312 127.542L87.6213 93.6523C87.6213 93.0723 88.0113 92.8523 88.5013 93.1423Z" fill="#50E6FF"/>
<path d="M91.7017 93.3321C92.1617 93.6021 92.5517 94.2721 92.5517 94.8021L92.4417 130.392L90.7217 129.392L90.8317 93.8021C90.8317 93.2721 91.2217 93.0421 91.7017 93.3321Z" fill="#50E6FF"/>
<path d="M98.0116 119.302C98.4716 119.572 98.8616 120.242 98.8616 120.802L98.8216 134.072L97.1016 133.072L97.1416 119.802C97.1316 119.242 97.5416 119.022 98.0116 119.302Z" fill="#50E6FF"/>
<path d="M69.0116 111.902C69.4816 112.182 69.8916 112.852 69.8916 113.392L69.8816 117.362L68.1616 116.362L68.1716 112.392C68.1616 111.862 68.5516 111.632 69.0116 111.902Z" fill="#50E6FF"/>
<path d="M65.8016 112.052C66.2716 112.332 66.6816 113.002 66.6816 113.542V115.502L64.9616 114.502V112.542C64.9516 112.012 65.3416 111.782 65.8016 112.052Z" fill="#50E6FF"/>
<path d="M101.222 132.502C101.692 132.782 102.102 133.452 102.102 133.992V135.952L100.362 134.942V132.982C100.342 132.452 100.752 132.232 101.222 132.502Z" fill="#50E6FF"/>
<path d="M94.8316 110.482C95.3016 110.762 95.7116 111.432 95.7116 111.972L95.6516 132.242L93.9316 131.242L93.9916 110.972C93.9716 110.432 94.3716 110.212 94.8316 110.482Z" fill="#50E6FF"/>
<path d="M81.7813 102.942C82.2513 103.222 82.6613 103.892 82.6413 104.432L82.5813 124.702L80.8613 123.702L80.9213 103.432C80.9213 102.892 81.3213 102.672 81.7813 102.942Z" fill="#50E6FF"/>
<path d="M78.6216 96.4521C79.0816 96.7221 79.4716 97.3921 79.4716 97.9221L79.4016 122.862L77.6816 121.862L77.7516 96.9221C77.7616 96.4021 78.1416 96.1821 78.6216 96.4521Z" fill="#50E6FF"/>
<path d="M75.4117 105.932C75.8817 106.212 76.2917 106.882 76.2917 107.432L76.2517 121.032L74.5317 120.032L74.5717 106.432C74.5517 105.882 74.9517 105.662 75.4117 105.932Z" fill="#50E6FF"/>
<path d="M72.2318 100.742C72.6918 101.012 73.0818 101.682 73.0818 102.242L73.0418 119.182L71.3218 118.192L71.3618 101.252C71.3518 100.702 71.7618 100.482 72.2318 100.742Z" fill="#50E6FF"/>
<path d="M104.402 135.322C104.872 135.602 105.282 136.272 105.282 136.822V137.782L103.562 136.792V135.832C103.552 135.282 103.942 135.052 104.402 135.322Z" fill="#50E6FF"/>
<path d="M79.6119 114.292L79.5719 130.672L56.1719 118.042L56.2119 101.662L79.6119 114.292Z" fill="#185A97"/>
<path d="M79.6115 114.292L80.6215 113.722V130.102L79.5615 130.672L79.6115 114.292Z" fill="#1A2C45"/>
<path d="M56.2114 101.652L57.2214 101.082L80.6214 113.712L79.6114 114.282L56.2114 101.652Z" fill="#175A98"/>
<path d="M58.7114 107.632V108.422L63.9514 111.352V110.532L58.7114 107.632Z" fill="white"/>
<path d="M58.7119 115.122L58.6719 115.952L63.9519 118.862V118.052L58.7119 115.122Z" fill="#2E76BC"/>
<path d="M58.7114 111.212V112.002L63.9514 114.932V114.122L58.7114 111.212Z" fill="#2E76BC"/>
<path d="M58.7114 109.512V110.342L63.9514 113.252V112.452L58.7114 109.512Z" fill="white"/>
<path d="M58.7114 105.742V106.532L63.9514 109.442V108.652L58.7114 105.742Z" fill="white"/>
<path d="M58.7114 113.162V113.992L63.9514 116.902V116.112L58.7114 113.162Z" fill="#2E76BC"/>
<path opacity="0.3" d="M75.0916 124.942C77.0316 123.852 77.0316 120.352 75.0816 117.112C73.1316 113.882 69.9716 112.142 68.0216 113.232C66.0816 114.322 66.0816 117.822 68.0316 121.062C69.9916 124.302 73.1516 126.042 75.0916 124.942Z" fill="#1F1D20"/>
<path d="M74.9017 124.392C76.8417 123.302 76.8417 119.802 74.8917 116.562C72.9417 113.332 69.7817 111.592 67.8317 112.682C65.8917 113.772 65.8917 117.272 67.8417 120.512C69.7917 123.752 72.9517 125.482 74.9017 124.392Z" fill="white"/>
<path d="M71.5516 114.422C72.4716 114.932 73.2216 116.172 73.2116 117.182C73.2116 118.192 72.4616 118.602 71.5416 118.092C70.6216 117.582 69.8716 116.342 69.8716 115.332C69.8916 114.322 70.6316 113.912 71.5516 114.422Z" fill="url(#paint8_radial)"/>
<path d="M71.5415 118.402C72.9615 119.192 74.1315 121.042 74.2815 122.642C74.2915 122.742 74.3015 122.852 74.2815 122.922C74.2415 123.332 73.9815 123.602 73.4815 123.642C72.9415 123.692 72.2315 123.462 71.5215 123.072C70.8115 122.672 70.1015 122.112 69.5615 121.462C69.0615 120.862 68.7915 120.292 68.7515 119.842C68.7515 119.732 68.7515 119.622 68.7715 119.532C68.9615 118.142 70.1315 117.612 71.5415 118.402Z" fill="url(#paint9_radial)"/>
<path d="M101.571 117.342L102.561 116.772L102.671 116.892L101.691 117.462L101.571 117.342Z" fill="#F2F1F0"/>
<path d="M101.692 117.462L102.672 116.892L102.542 129.232L101.552 129.802L101.692 117.462Z" fill="#185A97"/>
<path d="M103.471 110.742L98.9115 108.102C98.5515 107.892 98.2615 107.382 98.2615 106.972C98.2615 106.762 98.3315 106.622 98.4515 106.552L97.4615 107.122C97.3515 107.192 97.2715 107.332 97.2715 107.542C97.2715 107.952 97.5615 108.452 97.9215 108.672L102.481 111.312C102.661 111.422 102.831 111.422 102.941 111.352L103.931 110.782C103.811 110.852 103.641 110.842 103.471 110.742Z" fill="#185A97"/>
<path d="M102.161 108.352C103.321 109.022 104.251 110.632 104.241 111.962L104.231 116.482C104.221 117.812 103.291 118.342 102.131 117.672L101.571 117.342L101.681 117.452L101.551 129.792L100.371 130.112L98.4112 127.262L99.6412 126.402L98.3612 124.182L99.6112 123.412L98.4312 121.482L98.4912 115.542L98.2012 115.382C97.0412 114.712 96.1112 113.102 96.1212 111.772L96.1312 107.252C96.1412 105.922 97.0712 105.392 98.2312 106.062L102.161 108.352ZM102.471 111.322C102.831 111.532 103.121 111.362 103.121 110.952C103.121 110.542 102.831 110.042 102.481 109.832L97.9112 107.192C97.5512 106.982 97.2612 107.152 97.2612 107.562C97.2612 107.972 97.5512 108.472 97.9112 108.692L102.471 111.322Z" fill="url(#paint10_linear)"/>
<path d="M103.151 107.782L99.2212 105.512C98.6412 105.182 98.1112 105.142 97.7312 105.362L96.7412 105.932C97.1212 105.712 97.6512 105.742 98.2312 106.082L102.161 108.352C103.321 109.022 104.251 110.632 104.241 111.962L104.231 116.482C104.231 117.142 104.001 117.602 103.621 117.822L104.611 117.252C104.991 117.032 105.221 116.572 105.221 115.912L105.231 111.392C105.241 110.062 104.311 108.442 103.151 107.782Z" fill="#185A97"/>
<g opacity="0.2">
<path opacity="0.2" d="M43.8017 92.4321C42.2017 92.4521 40.9217 93.7621 40.9317 95.3521C40.9417 96.3721 41.4917 97.3021 42.3717 97.8221L52.5917 103.612C53.4417 104.092 54.3817 104.342 55.3517 104.342C55.8717 104.342 56.3917 104.272 56.8917 104.122L72.2617 99.7421C74.6217 99.0721 76.2417 96.9121 76.2417 94.4621V92.4321H43.8017V92.4321Z" fill="white"/>
</g>
<g opacity="0.12">
<path opacity="0.12" d="M43.8017 92.4321C42.2017 92.4521 40.9217 93.7621 40.9317 95.3521C40.9417 96.3721 41.4917 97.3021 42.3717 97.8221L52.5917 103.612C53.4417 104.092 54.3817 104.342 55.3517 104.342C55.8717 104.342 56.3917 104.272 56.8917 104.122L72.2617 99.7421C74.6217 99.0721 76.2417 96.9121 76.2417 94.4621V92.4321H43.8017V92.4321Z" fill="white"/>
</g>
<path d="M56.8315 50.1621L60.9615 59.6021V92.4321L56.8915 104.122L72.2615 99.7421C74.6215 99.0721 76.2415 96.9121 76.2415 94.4621V59.8221C76.2415 57.3621 74.6115 55.2121 72.2515 54.5321L56.8315 50.1621Z" fill="url(#paint11_linear)"/>
<path d="M37.3415 92.0822L41.8415 89.6522C43.1015 88.9622 43.8715 87.6422 43.8715 86.2122V68.5422C43.8715 66.8922 44.9015 65.4221 46.4515 64.8521L60.9615 59.6122V55.6321C60.9615 53.0921 59.2715 50.8621 56.8315 50.1721C56.3315 50.0321 55.8015 49.9521 55.2715 49.9521C54.2815 49.9521 53.3115 50.2121 52.4515 50.7021L35.8515 60.1721C34.1415 61.1521 33.0815 62.9722 33.0815 64.9422V89.5521C33.0815 91.1421 34.3715 92.4421 35.9615 92.4521C36.4415 92.4321 36.9115 92.3222 37.3415 92.0822Z" fill="url(#paint12_linear)"/>
<path d="M60.9517 92.4321H43.8017C42.2017 92.4521 40.9217 93.7621 40.9317 95.3521C40.9417 96.3721 41.4917 97.3021 42.3717 97.8221L52.5917 103.612C53.4417 104.092 54.3817 104.342 55.3517 104.342C55.8717 104.342 56.3917 104.272 56.8917 104.122C59.3017 103.442 60.9617 101.232 60.9617 98.7221V92.4321H60.9517Z" fill="url(#paint13_linear)"/>
<path d="M37.3415 92.0822L41.8415 89.6522C43.1015 88.9622 43.8715 87.6422 43.8715 86.2122V68.5422C43.8715 66.8922 44.9015 65.4221 46.4515 64.8521L60.9615 59.6122V55.6321C60.9615 53.0921 59.2715 50.8621 56.8315 50.1721C56.3315 50.0321 55.8015 49.9521 55.2715 49.9521C54.2815 49.9521 53.3115 50.2121 52.4515 50.7021L35.8515 60.1721C34.1415 61.1521 33.0815 62.9722 33.0815 64.9422V89.5521C33.0815 91.1421 34.3715 92.4421 35.9615 92.4521C36.4415 92.4321 36.9115 92.3222 37.3415 92.0822Z" fill="url(#paint14_linear)"/>
<path d="M60.9517 92.4321H43.8017C42.2017 92.4521 40.9217 93.7621 40.9317 95.3521C40.9417 96.3721 41.4917 97.3021 42.3717 97.8221L52.5917 103.612C53.4417 104.092 54.3817 104.342 55.3517 104.342C55.8717 104.342 56.3917 104.272 56.8917 104.122C59.3017 103.442 60.9617 101.232 60.9617 98.7221V92.4321H60.9517Z" fill="url(#paint15_linear)"/>
<defs>
<linearGradient id="paint0_linear" x1="90.6411" y1="9.56236" x2="90.6411" y2="180.962" gradientUnits="userSpaceOnUse">
<stop stop-color="#00ABDE"/>
<stop offset="1" stop-color="#007ED8"/>
</linearGradient>
<linearGradient id="paint1_linear" x1="36.7609" y1="4.35333" x2="203.438" y2="286.684" gradientUnits="userSpaceOnUse">
<stop stop-color="#007ED8"/>
<stop offset="0.7065" stop-color="#002D4C"/>
</linearGradient>
<linearGradient id="paint2_linear" x1="83.4561" y1="101.113" x2="104.148" y2="138.944" gradientUnits="userSpaceOnUse">
<stop stop-color="#75D0EB"/>
<stop offset="1" stop-color="#2F76BC"/>
</linearGradient>
<linearGradient id="paint3_linear" x1="84.7957" y1="102.674" x2="103.513" y2="136.895" gradientUnits="userSpaceOnUse">
<stop stop-color="#75D0EB"/>
<stop offset="1" stop-color="#2F76BC"/>
</linearGradient>
<linearGradient id="paint4_linear" x1="85.8376" y1="104.48" x2="102.573" y2="135.077" gradientUnits="userSpaceOnUse">
<stop stop-color="#75D0EB"/>
<stop offset="1" stop-color="#2F76BC"/>
</linearGradient>
<linearGradient id="paint5_linear" x1="86.8438" y1="106.213" x2="101.633" y2="133.254" gradientUnits="userSpaceOnUse">
<stop stop-color="#75D0EB"/>
<stop offset="1" stop-color="#2F76BC"/>
</linearGradient>
<linearGradient id="paint6_linear" x1="87.7804" y1="107.964" x2="100.658" y2="131.508" gradientUnits="userSpaceOnUse">
<stop stop-color="#75D0EB"/>
<stop offset="1" stop-color="#2F76BC"/>
</linearGradient>
<linearGradient id="paint7_linear" x1="88.7513" y1="109.718" x2="99.6682" y2="129.678" gradientUnits="userSpaceOnUse">
<stop stop-color="#75D0EB"/>
<stop offset="1" stop-color="#2F76BC"/>
</linearGradient>
<radialGradient id="paint8_radial" cx="0" cy="0" r="1" gradientUnits="userSpaceOnUse" gradientTransform="translate(69.4179 115.476) scale(11.8639 11.4269)">
<stop stop-color="#4FC2EB"/>
<stop offset="0.585" stop-color="#2E76BC"/>
</radialGradient>
<radialGradient id="paint9_radial" cx="0" cy="0" r="1" gradientUnits="userSpaceOnUse" gradientTransform="translate(69.4178 115.477) scale(11.8639 11.4269)">
<stop stop-color="#4FC2EB"/>
<stop offset="0.585" stop-color="#2E76BC"/>
</radialGradient>
<linearGradient id="paint10_linear" x1="90.2587" y1="111.879" x2="136.552" y2="142.811" gradientUnits="userSpaceOnUse">
<stop offset="0.103" stop-color="white"/>
<stop offset="1" stop-color="#96D8EC"/>
</linearGradient>
<linearGradient id="paint11_linear" x1="66.5369" y1="47.0883" x2="66.5369" y2="100.35" gradientUnits="userSpaceOnUse">
<stop stop-color="#FFB900"/>
<stop offset="0.17" stop-color="#EF8400"/>
<stop offset="0.31" stop-color="#E25C01"/>
<stop offset="0.43" stop-color="#DB4401"/>
<stop offset="0.5" stop-color="#D83B01"/>
</linearGradient>
<linearGradient id="paint12_linear" x1="56.931" y1="48.9713" x2="28.7265" y2="89.2455" gradientUnits="userSpaceOnUse">
<stop stop-color="#800600"/>
<stop offset="0.6" stop-color="#C72127"/>
<stop offset="0.73" stop-color="#C13959"/>
<stop offset="0.85" stop-color="#BC4B81"/>
<stop offset="0.94" stop-color="#B95799"/>
<stop offset="1" stop-color="#B85BA2"/>
</linearGradient>
<linearGradient id="paint13_linear" x1="42.5185" y1="98.3944" x2="79.3392" y2="98.3944" gradientUnits="userSpaceOnUse">
<stop stop-color="#F32B44"/>
<stop offset="0.6" stop-color="#A4070A"/>
</linearGradient>
<linearGradient id="paint14_linear" x1="57.507" y1="48.153" x2="51.5351" y2="56.6791" gradientUnits="userSpaceOnUse">
<stop stop-opacity="0.4"/>
<stop offset="1" stop-opacity="0"/>
</linearGradient>
<linearGradient id="paint15_linear" x1="67.5394" y1="99.2243" x2="51.0538" y2="97.7853" gradientUnits="userSpaceOnUse">
<stop stop-opacity="0.4"/>
<stop offset="1" stop-opacity="0"/>
</linearGradient>
</defs>
</svg>
