<?xml version="1.0" encoding="UTF-8"?>
<svg width="102px" height="102px" viewBox="0 0 102 102" version="1.1" xmlns="http://www.w3.org/2000/svg" xmlns:xlink="http://www.w3.org/1999/xlink">
    <title>Manage document collaboration with Microsoft OneDrive/plan-for-onedrive-deployment</title>
    <defs>
        <rect id="path-1" x="0" y="0" width="94.3396226" height="94.3396226" rx="47.1698113"></rect>
        <filter x="-2.9%" y="-2.9%" width="106.4%" height="106.4%" filterUnits="objectBoundingBox" id="filter-3">
            <feMorphology radius="2.5" operator="dilate" in="SourceAlpha" result="shadowSpreadOuter1"></feMorphology>
            <feOffset dx="0.5" dy="0.5" in="shadowSpreadOuter1" result="shadowOffsetOuter1"></feOffset>
            <feMorphology radius="1" operator="erode" in="SourceAlpha" result="shadowInner"></feMorphology>
            <feOffset dx="0.5" dy="0.5" in="shadowInner" result="shadowInner"></feOffset>
            <feComposite in="shadowOffsetOuter1" in2="shadowInner" operator="out" result="shadowOffsetOuter1"></feComposite>
            <feColorMatrix values="0 0 0 0 0.821822822   0 0 0 0 0.831640661   0 0 0 0 0.835737288  0 0 0 1 0" type="matrix" in="shadowOffsetOuter1"></feColorMatrix>
        </filter>
        <linearGradient x1="77.8299825%" y1="11.1997378%" x2="-99.6885927%" y2="253.807911%" id="linearGradient-4">
            <stop stop-color="#FFFFFF" offset="0%"></stop>
            <stop stop-color="#000000" stop-opacity="0.5" offset="100%"></stop>
        </linearGradient>
        <rect id="path-5" x="0" y="0" width="94.3396226" height="94.3396226"></rect>
        <path d="M48.1132075,0.739331515 C74.2770768,0.739331515 95.4870836,21.9493383 95.4870836,48.1132075 C95.4870836,74.2770768 74.2770768,95.4870836 48.1132075,95.4870836 C21.9493383,95.4870836 0.739331515,74.2770768 0.739331515,48.1132075 C0.739331515,21.9493383 21.9493383,0.739331515 48.1132075,0.739331515 Z M48.1132075,4.71698113 C24.1461335,4.71698113 4.71698113,24.1461335 4.71698113,48.1132075 C4.71698113,72.0802816 24.1461335,91.509434 48.1132075,91.509434 C72.0802816,91.509434 91.509434,72.0802816 91.509434,48.1132075 C91.509434,24.1461335 72.0802816,4.71698113 48.1132075,4.71698113 Z" id="path-6"></path>
        <filter x="-6.2%" y="-10.0%" width="112.5%" height="120.0%" filterUnits="objectBoundingBox" id="filter-8">
            <feOffset dx="0" dy="2" in="SourceAlpha" result="shadowOffsetOuter1"></feOffset>
            <feColorMatrix values="0 0 0 0 0   0 0 0 0 0   0 0 0 0 0  0 0 0 0.0964956975 0" type="matrix" in="shadowOffsetOuter1" result="shadowMatrixOuter1"></feColorMatrix>
            <feMerge>
                <feMergeNode in="shadowMatrixOuter1"></feMergeNode>
                <feMergeNode in="SourceGraphic"></feMergeNode>
            </feMerge>
        </filter>
        <filter x="-9.3%" y="-6.2%" width="118.6%" height="112.5%" filterUnits="objectBoundingBox" id="filter-9">
            <feOffset dx="0" dy="2" in="SourceAlpha" result="shadowOffsetOuter1"></feOffset>
            <feColorMatrix values="0 0 0 0 0   0 0 0 0 0   0 0 0 0 0  0 0 0 0.0964956975 0" type="matrix" in="shadowOffsetOuter1" result="shadowMatrixOuter1"></feColorMatrix>
            <feMerge>
                <feMergeNode in="shadowMatrixOuter1"></feMergeNode>
                <feMergeNode in="SourceGraphic"></feMergeNode>
            </feMerge>
        </filter>
    </defs>
    <g id="Badges" stroke="none" stroke-width="1" fill="none" fill-rule="evenodd">
        <g id="Manage-document-collaboration-with-Microsoft-OneDrive" transform="translate(-159.000000, -319.000000)">
            <g id="Manage-document-collaboration-with-Microsoft-OneDrive/plan-for-onedrive-deployment" transform="translate(160.000000, 320.000000)">
                <g id="Badge-Plates/Circle">
                    <g id="BG" transform="translate(2.830189, 2.830189)">
                        <mask id="mask-2" fill="white">
                            <use xlink:href="#path-1"></use>
                        </mask>
                        <g>
                            <use fill="black" fill-opacity="1" filter="url(#filter-3)" xlink:href="#path-1"></use>
                            <rect stroke="#F2F1F0" stroke-width="2.5" x="-1.25" y="-1.25" width="96.8396226" height="96.8396226" rx="48.4198113"></rect>
                        </g>
                        <g id="Colors/Microsoft-365/BG-Solid-Badge" mask="url(#mask-2)">
                            <g id="Rectangle">
                                <use fill="#0078D4" xlink:href="#path-5"></use>
                                <use fill-opacity="0.4" fill="url(#linearGradient-4)" xlink:href="#path-5"></use>
                            </g>
                        </g>
                    </g>
                    <g id="Border" transform="translate(1.886792, 1.886792)">
                        <mask id="mask-7" fill="white">
                            <use xlink:href="#path-6"></use>
                        </mask>
                        <use id="Boarder" fill="#0078D4" fill-rule="nonzero" xlink:href="#path-6"></use>
                        <g id="Colors/Microsoft-365/Border" mask="url(#mask-7)" fill="#0076D7">
                            <g transform="translate(-1.886792, -1.886792)" id="Microsoft-365/Border">
                                <rect x="0" y="0" width="100" height="100"></rect>
                            </g>
                        </g>
                    </g>
                </g>
                <g id="Mask" transform="translate(19.000000, 18.000000)">
                    <g id="One-Cloud" filter="url(#filter-8)" transform="translate(0.000000, 9.000000)">
                        <path d="M14,12 C14.101,12 14.199,12.013 14.299,12.015 C15.683,5.161 21.738,0 29,0 C35.492,0 41.004,4.131 43.092,9.902 C44.276,9.33 45.598,9 47,9 C51.971,9 56,13.029 56,18 C56,18.142 55.985,18.279 55.979,18.419 C60.605,19.72 64,23.959 64,29 C64,35.075 59.075,40 53,40 L14,40 C6.268,40 0,33.732 0,26 C0,18.268 6.268,12 14,12" id="Fill-11" fill="#FFFFFF"></path>
                        <path d="M53.759,18.038 C54.524,18.091 55.265,18.219 55.979,18.419 C55.985,18.279 56,18.142 56,18 C56,15.004 54.53,12.357 52.279,10.721 C53.357,12.205 54,14.025 54,16 C54,16.702 53.911,17.382 53.759,18.038" id="Fill-12" fill="#C4CBCD"></path>
                        <path d="M52.652,40 C59.4017095,40 63.781,35.376 63.993,29.4 C64.134,25.432 62.171,21.912 59.132,19.868 C60.645,22.116 61.35,24.951 60.83,27.961 C60.103,32.168 56.875,35.628 52.732,36.66 C50.417,37.237 48.201,37.048 46.238,36.332 C47.341,34.839 48,32.999 48,31 C48,28.004 46.53,25.357 44.279,23.721 C45.636,25.589 46.304,27.99 45.867,30.56 C45.239,34.258 42.26,37.238 38.563,37.867 C37.795,37.997 37.042,38.029 36.314,37.974 C33.461,37.756 31.108,35.661 30.314,32.912 C30.128,32.266 30,31.604 30,31 C30,30.637 30.026,30.281 30.07,29.93 C30.246,28.444 30.781,27.069 31.591,25.896 C30.441,26.358 29.226,26.692 27.957,26.858 C27.974,26.573 28,26.29 28,26 C28,21.368 25.741,17.274 22.275,14.725 C24.372,17.579 25.433,21.242 24.834,25.174 C23.927,31.13 19.13,35.927 13.174,36.834 C9.242,37.433 5.579,36.372 2.725,34.275 C5.274,37.741 9.368,40 14,40 L39,40 L52.652,40 Z" id="Fill-13" fill="#E6E6E6"></path>
                        <path d="M39,22 C40.042,22 41.039,22.186 41.97,22.512 C43.253,20.301 44,17.74 44,15 C44,10.092 41.632,5.748 37.988,3.012 C39.871,5.518 41,8.624 41,12 C41,15.972 39.445,19.571 36.923,22.25 C37.591,22.092 38.284,22 39,22" id="Fill-14" fill="#E6E6E6"></path>
                    </g>
                    <g id="Rocket" filter="url(#filter-9)" transform="translate(10.000000, 0.000000)">
                        <path d="M21.001,64 C20.329,64 19.702,63.662 19.332,63.102 C18.775,62.259 16.001,57.917 16.001,55.182 C16.001,52.324 18.244,50 21.001,50 C23.758,50 26.001,52.324 26.001,55.182 C26.001,57.917 23.226,62.259 22.67,63.102 C22.3,63.662 21.673,64 21.001,64" id="Fill-411" fill="#DF5142"></path>
                        <path d="M21.001,60 C20.463,60 19.962,59.662 19.666,59.102 C19.22,58.259 17.001,53.917 17.001,51.182 C17.001,48.324 18.795,46 21.001,46 C23.206,46 25.001,48.324 25.001,51.182 C25.001,53.917 22.781,58.259 22.336,59.102 C22.04,59.662 21.538,60 21.001,60" id="Fill-412" fill="#C2423D"></path>
                        <path d="M32.269,35.277 C32.703,31.88 33.001,28.332 33.001,24.984 C33.001,12.35 22.91,1.099 22.48,0.626 C21.723,-0.209 20.279,-0.209 19.521,0.626 C19.092,1.099 9.001,12.35 9.001,24.984 C9.001,28.332 9.299,31.88 9.732,35.277 C4.349,36.63 0.001,42.925 0.001,50 C0.001,50.727 0.39,51.396 1.019,51.749 C1.317,51.917 1.649,52 1.978,52 C2.341,52 2.704,51.898 3.023,51.697 C3.059,51.675 6.641,49.449 9.761,49.449 C10.925,49.449 11.802,49.765 12.444,50.414 C12.483,50.453 12.527,50.482 12.567,50.517 C12.845,51.67 13.034,52.388 13.068,52.515 C13.302,53.39 14.095,54 15.001,54 L27.001,54 C27.907,54 28.7,53.39 28.933,52.515 C28.967,52.388 29.156,51.67 29.434,50.517 C29.475,50.482 29.519,50.453 29.557,50.414 C30.2,49.765 31.077,49.449 32.241,49.449 C35.36,49.449 38.942,51.675 38.978,51.697 C39.298,51.898 39.661,52 40.023,52 C40.352,52 40.684,51.917 40.982,51.749 C41.611,51.396 42.001,50.727 42.001,50 C42.001,42.925 37.652,36.63 32.269,35.277" id="Fill-413" fill="#546670"></path>
                        <path d="M41.986,49.661 C41.94,49.688 41.904,49.725 41.855,49.749 C41.52,49.917 41.146,50 40.776,50 C40.368,50 39.96,49.898 39.6,49.697 C39.571,49.681 37.482,48.53 35.006,47.884 C33.564,47.507 32.602,46.153 32.762,44.671 C33.048,42.024 33.145,38.734 33.018,35.508 C32.77,35.422 32.521,35.341 32.267,35.277 C31.448,41.692 30.146,47.562 29.434,50.519 C29.455,50.527 29.431,50.518 29.452,50.526 C30.103,49.801 31.012,49.449 32.241,49.449 C35.36,49.449 38.942,51.675 38.978,51.697 C39.298,51.898 39.661,52 40.023,52 C40.352,52 40.684,51.917 40.982,51.749 C41.611,51.396 42.001,50.727 42.001,50 C42.001,49.886 41.988,49.775 41.986,49.661" id="Fill-414" fill="#30404D"></path>
                        <path d="M0.038,49.661 C0.084,49.688 0.121,49.725 0.169,49.749 C0.504,49.917 0.878,50 1.248,50 C1.655,50 2.064,49.898 2.424,49.697 C2.453,49.681 4.542,48.53 7.018,47.884 C8.46,47.507 9.422,46.153 9.262,44.671 C8.976,42.024 8.879,38.734 9.006,35.508 C9.254,35.422 9.504,35.341 9.757,35.277 C10.576,41.692 11.878,47.562 12.59,50.519 C12.569,50.527 12.593,50.518 12.572,50.526 C11.921,49.801 11.012,49.449 9.783,49.449 C6.664,49.449 3.082,51.675 3.046,51.697 C2.726,51.898 2.363,52 2.001,52 C1.672,52 1.34,51.917 1.042,51.749 C0.413,51.396 0.023,50.727 0.023,50 C0.023,49.886 0.036,49.775 0.038,49.661" id="Fill-415" fill="#30404D"></path>
                        <path d="M22.48,0.626 C22.101,0.208 21.551,0 21.001,0 L21.001,50 C21.001,51.105 20.105,52 19.001,52 L12.934,52 C13.006,52.28 13.053,52.458 13.068,52.515 C13.302,53.39 14.095,54 15.001,54 L27.001,54 C27.907,54 28.7,53.39 28.933,52.515 C29.099,51.892 33.001,37.114 33.001,24.984 C33.001,12.35 22.91,1.099 22.48,0.626" id="Fill-416" fill="#30404D"></path>
                        <path d="M21.001,14 C24.266,14 27.383,13.595 30.242,12.866 C27.221,5.907 22.763,0.936 22.48,0.626 C21.723,-0.209 20.279,-0.209 19.521,0.626 C19.239,0.936 14.78,5.907 11.76,12.866 C14.619,13.595 17.735,14 21.001,14" id="Fill-417" fill="#ADBDC4"></path>
                        <path d="M30.242,12.866 C27.221,5.907 22.763,0.936 22.48,0.626 C22.101,0.208 21.001,1 21.001,3 L21.001,14 C24.266,14 27.383,13.595 30.242,12.866" id="Fill-418" fill="#8BA6B1"></path>
                        <path d="M27.001,27 C27.001,30.313 24.314,33 21.001,33 C17.687,33 15.001,30.313 15.001,27 C15.001,23.686 17.687,21 21.001,21 C24.314,21 27.001,23.686 27.001,27" id="Fill-419" fill="#ADBDC4"></path>
                        <path d="M27.001,27 C27.001,23.686 24.314,21 21.001,21 L21.001,33 C24.314,33 27.001,30.313 27.001,27" id="Fill-420" fill="#8BA6B1"></path>
                        <path d="M25.001,27 C25.001,29.209 23.21,31 21.001,31 C18.792,31 17.001,29.209 17.001,27 C17.001,24.791 18.792,23 21.001,23 C23.21,23 25.001,24.791 25.001,27" id="Fill-421" fill="#F7CB64"></path>
                        <path d="M21.001,24 C23.039,24 24.702,25.529 24.95,27.5 C24.971,27.334 25.001,27.171 25.001,27 C25.001,24.791 23.21,23 21.001,23 C18.792,23 17.001,24.791 17.001,27 C17.001,27.171 17.03,27.334 17.052,27.5 C17.3,25.529 18.963,24 21.001,24" id="Fill-422" fill="#CC9547"></path>
                    </g>
                </g>
            </g>
        </g>
    </g>
</svg>