<svg width="181" height="191" viewBox="0 0 181 191" fill="none" xmlns="http://www.w3.org/2000/svg">
<path d="M90.1783 189.867C93.2383 189.867 96.2483 189.017 98.9083 187.397L160.878 149.737C166.418 146.367 169.848 140.037 169.848 133.197V58.4868C169.848 51.6668 166.418 45.3268 160.878 41.9468L98.9083 4.28676C93.5783 1.04676 86.7583 1.06676 81.4583 4.28676L19.4883 41.9668C13.9483 45.3368 10.4983 51.6668 10.4983 58.5068V133.207C10.4983 138.967 12.9483 144.387 17.0483 147.957V147.987L81.4583 187.417C84.0983 189.017 87.1183 189.867 90.1783 189.867ZM90.8283 8.81676C92.7783 8.81676 95.2583 10.0268 96.9683 11.0768L157.728 48.2668C161.478 50.5468 163.598 57.1468 163.598 61.8968L162.968 133.197C162.968 137.947 159.768 142.217 156.018 144.497L95.6183 180.877C92.1883 182.967 89.3983 182.967 85.9583 180.877L24.7483 144.407C20.9983 142.127 17.9783 137.927 17.9783 133.197V59.5568C17.9783 54.8168 20.7083 49.9268 24.4783 47.6368L85.0583 11.0768C86.7583 10.0368 88.8783 8.81676 90.8283 8.81676Z" fill="#F2F1F0"/>
<path fill-rule="evenodd" clip-rule="evenodd" d="M98.0783 12.3975C95.6283 10.8975 92.9083 10.1475 90.1783 10.1475C87.4483 10.1475 84.7283 10.9075 82.2783 12.3975L26.1483 46.7275C21.1283 49.7975 18.0183 55.5475 18.0183 61.7975V129.897C18.0183 136.127 21.1183 141.897 26.1483 144.967L82.2783 179.297C84.7283 180.797 87.4483 181.547 90.1783 181.547C92.9083 181.547 95.6283 180.807 98.0783 179.297L154.208 144.967C159.228 141.897 162.338 136.127 162.338 129.897V61.7975C162.338 55.5675 159.238 49.8175 154.208 46.7275L98.0783 12.3975Z" fill="url(#paint0_linear_150_136347)"/>
<path fill-rule="evenodd" clip-rule="evenodd" d="M90.1783 11.6172C91.8583 11.6172 93.7483 12.4872 95.8083 13.7372L154.278 49.2772C157.928 51.4972 160.338 55.7672 160.338 60.5972V131.077C160.338 135.897 157.928 140.177 154.278 142.397L95.8183 177.937C93.8583 179.127 91.9383 179.877 90.1883 179.877C88.4383 179.877 86.5183 179.127 84.5583 177.937L26.0783 142.407C24.0683 141.177 22.6183 139.977 21.6383 138.367C20.6583 136.767 20.0183 134.547 20.0183 131.087V60.6072C20.0183 55.7772 22.4283 51.5072 26.0783 49.2872L84.5383 13.7472C86.6283 12.4972 88.4883 11.6172 90.1783 11.6172ZM97.8883 181.367L156.348 145.827C161.268 142.837 164.328 137.217 164.328 131.087V60.6072C164.328 54.4772 161.268 48.8572 156.348 45.8672L97.8883 10.3272C95.7783 9.04719 93.0683 7.61719 90.1783 7.61719C87.2783 7.61719 84.5683 9.05719 82.4783 10.3172H82.4683L23.9983 45.8672C19.0783 48.8572 16.0183 54.4772 16.0183 60.6072V131.087C16.0183 135.047 16.7583 138.037 18.2183 140.447C19.6783 142.847 21.7383 144.447 23.9983 145.817L82.4583 181.357C84.6783 182.707 87.3483 183.887 90.1683 183.887C92.9883 183.887 95.6683 182.717 97.8883 181.367Z" fill="url(#paint1_linear_150_136347)"/>
<path fill-rule="evenodd" clip-rule="evenodd" d="M120.238 105.166H150.692V106.366H120.238V105.166Z" fill="white"/>
<path fill-rule="evenodd" clip-rule="evenodd" d="M120.238 83.042H150.692V84.242H120.238V83.042Z" fill="white"/>
<path fill-rule="evenodd" clip-rule="evenodd" d="M119.637 61.4838C119.637 61.1524 119.906 60.8838 120.237 60.8838H150.692V62.0838H120.837V127.271H150.692V128.471H120.237C119.906 128.471 119.637 128.202 119.637 127.871V61.4838Z" fill="white"/>
<path fill-rule="evenodd" clip-rule="evenodd" d="M97.4185 94.7285H120.327V95.9285H97.4185V94.7285Z" fill="white"/>
<path opacity="0.15" d="M150.598 53.3477H128.6C127.262 53.3477 126.174 54.436 126.174 55.7741V69.2442C126.174 70.5823 127.262 71.6706 128.6 71.6706H150.616C151.954 71.6884 153.043 70.6001 153.043 69.2442V55.7919C153.043 54.4181 151.954 53.3477 150.598 53.3477Z" fill="#1F1D20"/>
<path opacity="0.15" d="M150.598 98.1826H128.6C127.262 98.1826 126.174 99.2709 126.174 100.609V114.097C126.174 115.435 127.262 116.523 128.6 116.523H150.616C151.954 116.523 153.043 115.435 153.043 114.097V100.645C153.043 99.2709 151.954 98.1826 150.598 98.1826Z" fill="#1F1D20"/>
<path opacity="0.15" d="M150.598 75.7207H128.6C127.262 75.7207 126.174 76.809 126.174 78.1471V91.6172C126.174 92.9553 127.262 94.0436 128.6 94.0436H150.616C151.954 94.0615 153.043 92.9731 153.043 91.6172V78.1471C153.043 76.809 151.954 75.7207 150.598 75.7207Z" fill="#1F1D20"/>
<path opacity="0.15" d="M150.598 120.556H128.6C127.262 120.556 126.174 121.644 126.174 122.982V136.47C126.174 137.808 127.262 138.896 128.6 138.896H150.616C151.954 138.896 153.043 137.808 153.043 136.47V123C153.043 121.662 151.954 120.556 150.598 120.556Z" fill="#1F1D20"/>
<path d="M150.598 51.7422H128.6C127.262 51.7422 126.174 52.8305 126.174 54.1686V67.6387C126.174 68.9768 127.262 70.0651 128.6 70.0651H150.616C151.954 70.0829 153.042 68.9946 153.042 67.6387V54.1864C153.042 52.8305 151.954 51.7422 150.598 51.7422Z" fill="#5B67F1"/>
<path d="M150.598 96.5771H128.6C127.262 96.5771 126.174 97.6655 126.174 99.0036V112.491C126.174 113.83 127.262 114.918 128.6 114.918H150.616C151.954 114.918 153.043 113.83 153.043 112.491V99.0392C153.043 97.6655 151.954 96.5771 150.598 96.5771Z" fill="#4852CB"/>
<path d="M150.598 74.1328H128.6C127.262 74.1328 126.174 75.2211 126.174 76.5592V90.0293C126.174 91.3674 127.262 92.4557 128.6 92.4557H150.616C151.954 92.4736 153.043 91.3852 153.043 90.0293V76.5592C153.043 75.2211 151.954 74.1328 150.598 74.1328Z" fill="#5661E3"/>
<path d="M150.598 118.968H128.6C127.262 118.968 126.174 120.056 126.174 121.394V134.882C126.174 136.22 127.262 137.309 128.6 137.309H150.616C151.954 137.309 153.043 136.22 153.043 134.882V121.412C153.043 120.074 151.954 118.968 150.598 118.968Z" fill="url(#paint2_linear_150_136347)"/>
<path opacity="0.15" d="M139.608 68.8576C143.557 68.8576 146.761 65.6535 146.761 61.7047C146.761 57.7559 143.557 54.5518 139.608 54.5518C135.659 54.5518 132.455 57.7559 132.455 61.7047C132.455 65.6535 135.659 68.8576 139.608 68.8576Z" fill="#1F1D20"/>
<path d="M139.608 68.4006C143.557 68.4006 146.761 65.1964 146.761 61.2477C146.761 57.2989 143.557 54.0947 139.608 54.0947C135.659 54.0947 132.455 57.2989 132.455 61.2477C132.455 65.1964 135.659 68.4006 139.608 68.4006Z" fill="white"/>
<path d="M143.091 63.8861C142.894 62.114 141.373 60.7178 139.533 60.7178C137.707 60.7178 136.2 62.0818 135.974 63.8396C135.946 63.9613 135.946 64.0973 135.946 64.2191C135.992 64.7203 136.339 65.2036 136.995 65.5831C138.394 66.385 140.675 66.385 142.06 65.5831C142.715 65.2036 143.048 64.7203 143.095 64.2191C143.124 64.1152 143.109 63.9935 143.091 63.8861Z" fill="#5B67F1"/>
<path d="M139.537 60.2098C140.729 60.2098 141.692 59.2503 141.692 58.0653C141.692 56.8804 140.725 55.9209 139.537 55.9209C138.344 55.9209 137.381 56.8804 137.381 58.0653C137.381 59.2503 138.344 60.2098 139.537 60.2098Z" fill="#5B67F1"/>
<path opacity="0.15" d="M139.608 91.1799C143.557 91.1799 146.761 87.9757 146.761 84.027C146.761 80.0782 143.557 76.874 139.608 76.874C135.659 76.874 132.455 80.0782 132.455 84.027C132.455 87.9757 135.659 91.1799 139.608 91.1799Z" fill="#1F1D20"/>
<path d="M139.608 90.7219C143.557 90.7219 146.761 87.5177 146.761 83.5689C146.761 79.6202 143.557 76.416 139.608 76.416C135.659 76.416 132.455 79.6202 132.455 83.5689C132.455 87.5177 135.659 90.7219 139.608 90.7219Z" fill="white"/>
<path d="M143.091 86.2074C142.894 84.4353 141.373 83.0391 139.533 83.0391C137.707 83.0391 136.2 84.4031 135.974 86.1609C135.946 86.2826 135.946 86.4186 135.946 86.5403C135.992 87.0416 136.339 87.5249 136.995 87.9043C138.394 88.7063 140.675 88.7063 142.06 87.9043C142.715 87.5249 143.048 87.0416 143.095 86.5403C143.124 86.4365 143.109 86.3148 143.091 86.2074Z" fill="#5059C9"/>
<path d="M139.537 82.5311C140.729 82.5311 141.692 81.5716 141.692 80.3866C141.692 79.2016 140.725 78.2422 139.537 78.2422C138.344 78.2422 137.381 79.2016 137.381 80.3866C137.381 81.5716 138.344 82.5311 139.537 82.5311Z" fill="#5059C9"/>
<path opacity="0.15" d="M139.608 113.734C143.557 113.734 146.761 110.529 146.761 106.581C146.761 102.632 143.557 99.4277 139.608 99.4277C135.659 99.4277 132.455 102.632 132.455 106.581C132.455 110.529 135.659 113.734 139.608 113.734Z" fill="#1F1D20"/>
<path d="M139.608 113.277C143.557 113.277 146.761 110.072 146.761 106.124C146.761 102.175 143.557 98.9707 139.608 98.9707C135.659 98.9707 132.455 102.175 132.455 106.124C132.455 110.072 135.659 113.277 139.608 113.277Z" fill="white"/>
<path d="M143.091 108.762C142.894 106.99 141.373 105.594 139.533 105.594C137.707 105.594 136.2 106.958 135.974 108.716C135.946 108.837 135.946 108.973 135.946 109.095C135.992 109.596 136.339 110.08 136.995 110.459C138.394 111.261 140.675 111.261 142.06 110.459C142.715 110.08 143.048 109.596 143.095 109.095C143.124 108.991 143.109 108.869 143.091 108.762Z" fill="#4852CB"/>
<path d="M139.537 105.086C140.729 105.086 141.692 104.126 141.692 102.941C141.692 101.756 140.725 100.797 139.537 100.797C138.344 100.797 137.381 101.756 137.381 102.941C137.381 104.126 138.344 105.086 139.537 105.086Z" fill="#4852CB"/>
<path opacity="0.15" d="M139.608 135.821C143.557 135.821 146.761 132.617 146.761 128.669C146.761 124.72 143.557 121.516 139.608 121.516C135.659 121.516 132.455 124.72 132.455 128.669C132.455 132.617 135.659 135.821 139.608 135.821Z" fill="#1F1D20"/>
<path d="M139.608 135.364C143.557 135.364 146.761 132.16 146.761 128.212C146.761 124.263 143.557 121.059 139.608 121.059C135.659 121.059 132.455 124.263 132.455 128.212C132.455 132.16 135.659 135.364 139.608 135.364Z" fill="white"/>
<path d="M143.091 130.85C142.894 129.078 141.373 127.682 139.533 127.682C137.707 127.682 136.2 129.046 135.974 130.803C135.946 130.925 135.946 131.061 135.946 131.183C135.992 131.684 136.339 132.167 136.995 132.547C138.394 133.349 140.675 133.349 142.06 132.547C142.715 132.167 143.048 131.684 143.095 131.183C143.124 131.079 143.109 130.957 143.091 130.85Z" fill="url(#paint3_linear_150_136347)"/>
<path d="M139.537 127.174C140.729 127.174 141.692 126.214 141.692 125.029C141.692 123.844 140.725 122.885 139.537 122.885C138.344 122.885 137.381 123.844 137.381 125.029C137.381 126.214 138.344 127.174 139.537 127.174Z" fill="url(#paint4_linear_150_136347)"/>
<path opacity="0.15" d="M66.7083 116.697C67.3794 116.697 67.9204 116.156 67.9204 115.485V75.4951H25.6782V115.49C25.6782 116.161 26.2193 116.702 26.8903 116.702H66.7083V116.697Z" fill="#1F1D20"/>
<path d="M67.9152 75.854V75.1985C67.9152 74.3869 67.2597 73.7314 66.4482 73.7314H27.1453C26.3337 73.7314 25.6782 74.3869 25.6782 75.1985V75.9268V76.5927V114.205C25.6782 115.016 26.3337 115.672 27.1453 115.672H66.4586C67.2701 115.672 67.9256 115.016 67.9256 114.205V75.9268C67.9256 75.9008 67.9152 75.88 67.9152 75.854Z" fill="white"/>
<path d="M41.8096 91.1533H34.7591C34.093 91.1533 33.5531 91.6928 33.5531 92.3582V98.7739C33.5531 101.22 35.5376 103.202 37.9857 103.202H38.0067C40.4547 103.202 42.4396 101.22 42.4399 98.7745C42.4399 98.7743 42.4399 98.7741 42.4399 98.7738V91.783C42.4399 91.4352 42.1577 91.1533 41.8096 91.1533Z" fill="#5059C9"/>
<path d="M37.0441 89.8841C35.4665 89.8841 34.1876 88.6065 34.1876 87.0304C34.1876 85.4544 35.4665 84.1768 37.0441 84.1768C38.6217 84.1768 39.9006 85.4544 39.9006 87.0304C39.9006 88.6065 38.6217 89.8841 37.0441 89.8841Z" fill="#5059C9"/>
<path d="M45.9308 89.8845C43.6521 89.8845 41.8048 88.0391 41.8048 85.7626C41.8048 83.4861 43.6521 81.6406 45.9308 81.6406C48.2096 81.6406 50.0569 83.4861 50.0569 85.7626C50.0569 88.0391 48.2096 89.8845 45.9308 89.8845Z" fill="#7B83EB"/>
<path d="M40.4294 91.1533H52.0674C52.7256 91.1696 53.2462 91.7153 53.2309 92.3728V99.6902C53.3228 103.636 50.198 106.91 46.2484 107.007C42.2988 106.91 39.1739 103.636 39.2658 99.6902V92.3728C39.2506 91.7153 39.7712 91.1696 40.4294 91.1533Z" fill="#7B83EB"/>
<path opacity="0.1" d="M45.614 91.1533V101.407C45.6172 101.878 45.9024 102.3 46.3377 102.479C46.4763 102.538 46.6252 102.568 46.7757 102.568H52.6728C52.7553 102.359 52.8314 102.149 52.8949 101.934C53.1171 101.206 53.2305 100.45 53.2314 99.6889V92.3709C53.2466 91.7144 52.7268 91.1696 52.0697 91.1533H45.614Z" fill="black"/>
<path opacity="0.2" d="M46.2488 91.1533V102.042C46.2488 102.192 46.279 102.341 46.3377 102.479C46.5169 102.914 46.9397 103.199 47.4104 103.202H52.3744C52.4823 102.993 52.5839 102.784 52.6728 102.568C52.7616 102.352 52.8314 102.149 52.8949 101.934C53.1171 101.206 53.2305 100.45 53.2314 99.6889V92.3709C53.2466 91.7144 52.7268 91.1696 52.0697 91.1533H46.2488Z" fill="black"/>
<path opacity="0.2" d="M46.2488 91.1533V100.773C46.2536 101.412 46.7709 101.929 47.4105 101.934H52.8949C53.1171 101.206 53.2305 100.45 53.2314 99.6889V92.3709C53.2466 91.7144 52.7268 91.1696 52.0697 91.1533H46.2488Z" fill="black"/>
<path opacity="0.2" d="M46.8836 91.1533V100.773C46.8884 101.412 47.4057 101.929 48.0452 101.934H52.8949C53.1171 101.206 53.2305 100.45 53.2314 99.6889V92.3709C53.2466 91.7144 52.7268 91.1696 52.0697 91.1533H46.8836Z" fill="black"/>
<path opacity="0.1" d="M45.6134 87.8743V89.8719C45.7214 89.8782 45.8229 89.8846 45.9308 89.8846C46.0387 89.8846 46.1403 89.8783 46.2482 89.8719C46.4625 89.8577 46.675 89.8237 46.883 89.7704C48.1684 89.4663 49.2304 88.5657 49.7395 87.348C49.8271 87.1435 49.8951 86.9312 49.9426 86.7139H46.7751C46.1345 86.7163 45.6159 87.2344 45.6134 87.8743Z" fill="black"/>
<path opacity="0.2" d="M46.2482 88.5081V89.8716C46.4625 89.8573 46.675 89.8234 46.883 89.7701C48.1684 89.466 49.2304 88.5654 49.7395 87.3477H47.4099C46.7693 87.3501 46.2507 87.8682 46.2482 88.5081Z" fill="black"/>
<path opacity="0.2" d="M46.2482 88.5081V89.8716C46.4625 89.8573 46.675 89.8234 46.883 89.7701C48.1684 89.466 49.2304 88.5654 49.7395 87.3477H47.4099C46.7693 87.3501 46.2507 87.8682 46.2482 88.5081Z" fill="black"/>
<path opacity="0.2" d="M46.883 88.5081V89.7701C48.1684 89.466 49.2304 88.5654 49.7395 87.3477H48.0446C47.4041 87.3501 46.8854 87.8682 46.883 88.5081Z" fill="black"/>
<path d="M59.6846 87.3477H48.0466C47.404 87.3477 46.8831 87.8681 46.8831 88.51V100.136C46.8831 100.778 47.404 101.299 48.0466 101.299H59.6846C60.3272 101.299 60.8481 100.778 60.8481 100.136V88.51C60.8481 87.8681 60.3272 87.3477 59.6846 87.3477Z" fill="url(#paint5_linear_150_136347)"/>
<path d="M50.8032 91.7736H53.1296V98.1024H54.6118V91.7736H56.9275V90.5459H50.8032V91.7736Z" fill="white"/>
<path opacity="0.15" d="M112.624 116.697C113.295 116.697 113.836 116.156 113.836 115.485V75.4951H71.594V115.49C71.594 116.161 72.135 116.702 72.8061 116.702H112.624V116.697Z" fill="#1F1D20"/>
<path d="M113.831 75.854V75.1985C113.831 74.3869 113.176 73.7314 112.364 73.7314H73.061C72.2495 73.7314 71.594 74.3869 71.594 75.1985V75.9268V76.5927V114.205C71.594 115.016 72.2495 115.672 73.061 115.672H112.374C113.186 115.672 113.841 115.016 113.841 114.205V75.9268C113.841 75.9008 113.831 75.88 113.831 75.854Z" fill="white"/>
<path fill-rule="evenodd" clip-rule="evenodd" d="M92.4999 100.873C93.2173 100.875 93.9279 100.734 94.5909 100.46C95.254 100.186 95.8564 99.7842 96.3637 99.277C96.871 98.7697 97.2731 98.1673 97.547 97.5043C97.8209 96.8412 97.9613 96.1306 97.96 95.4132V87.5833C97.9915 86.8472 97.8737 86.1125 97.6138 85.4232C97.3538 84.7339 96.9571 84.1043 96.4474 83.5724C95.9378 83.0404 95.3258 82.6171 94.6482 82.3279C93.9707 82.0387 93.2416 81.8896 92.5049 81.8896C91.7683 81.8896 91.0392 82.0387 90.3616 82.3279C89.6841 82.6171 89.072 83.0404 88.5624 83.5724C88.0527 84.1043 87.656 84.7339 87.3961 85.4232C87.1362 86.1125 87.0184 86.8472 87.0499 87.5833V95.4532C87.0578 96.8935 87.6356 98.272 88.6568 99.2876C89.678 100.303 91.0597 100.873 92.4999 100.873V100.873Z" fill="url(#paint6_linear_150_136347)"/>
<path fill-rule="evenodd" clip-rule="evenodd" d="M99.4999 92.5029V95.2129C99.3386 96.9499 98.5345 98.5641 97.2452 99.7391C95.956 100.914 94.2744 101.566 92.53 101.566C90.7855 101.566 89.1039 100.914 87.8146 99.7391C86.5254 98.5641 85.7213 96.9499 85.5599 95.2129V92.5029H83.4099V95.2129C83.4107 97.4892 84.2627 99.6829 85.7985 101.363C87.3343 103.043 89.4429 104.088 91.71 104.293V105.423H87.7999V107.583H97.9799V105.423H93.8599V104.223C96.0219 103.906 97.998 102.823 99.428 101.171C100.858 99.5189 101.647 97.4079 101.65 95.2229V92.5129L99.4999 92.5029Z" fill="url(#paint7_linear_150_136347)"/>
<defs>
<linearGradient id="paint0_linear_150_136347" x1="66.967" y1="3.50347" x2="130.575" y2="182.923" gradientUnits="userSpaceOnUse">
<stop stop-color="#A9B1FF"/>
<stop offset="1" stop-color="#7B83EB"/>
</linearGradient>
<linearGradient id="paint1_linear_150_136347" x1="76.6464" y1="20.6694" x2="113.358" y2="170.533" gradientUnits="userSpaceOnUse">
<stop stop-color="#5A62C3"/>
<stop offset="0.5" stop-color="#4D55BD"/>
<stop offset="1" stop-color="#3940AB"/>
</linearGradient>
<linearGradient id="paint2_linear_150_136347" x1="130.841" y1="117.774" x2="140.27" y2="141.697" gradientUnits="userSpaceOnUse">
<stop stop-color="#4049B5"/>
<stop offset="0.5" stop-color="#363EA5"/>
<stop offset="1" stop-color="#3940AB"/>
</linearGradient>
<linearGradient id="paint3_linear_150_136347" x1="137.19" y1="127.326" x2="140.23" y2="134.225" gradientUnits="userSpaceOnUse">
<stop stop-color="#4049B5"/>
<stop offset="0.5" stop-color="#363EA5"/>
<stop offset="1" stop-color="#3940AB"/>
</linearGradient>
<linearGradient id="paint4_linear_150_136347" x1="138.13" y1="122.606" x2="140.922" y2="127.465" gradientUnits="userSpaceOnUse">
<stop stop-color="#4049B5"/>
<stop offset="0.5" stop-color="#363EA5"/>
<stop offset="1" stop-color="#3940AB"/>
</linearGradient>
<linearGradient id="paint5_linear_150_136347" x1="58.4221" y1="86.4394" x2="49.3226" y2="102.215" gradientUnits="userSpaceOnUse">
<stop stop-color="#5A62C3"/>
<stop offset="0.5" stop-color="#4D55BD"/>
<stop offset="1" stop-color="#3940AB"/>
</linearGradient>
<linearGradient id="paint6_linear_150_136347" x1="92.7579" y1="82.356" x2="92.1644" y2="106.812" gradientUnits="userSpaceOnUse">
<stop stop-color="#5A62C3"/>
<stop offset="0.5" stop-color="#4D55BD"/>
<stop offset="1" stop-color="#3940AB"/>
</linearGradient>
<linearGradient id="paint7_linear_150_136347" x1="91.8082" y1="82.5932" x2="93.2352" y2="109.724" gradientUnits="userSpaceOnUse">
<stop stop-color="#5A62C3"/>
<stop offset="0.5" stop-color="#4D55BD"/>
<stop offset="1" stop-color="#3940AB"/>
</linearGradient>
</defs>
</svg>
