<svg width="181" height="191" viewBox="0 0 181 191" fill="none" xmlns="http://www.w3.org/2000/svg">
<path d="M90.4764 189.194C93.5364 189.194 96.5464 188.344 99.2064 186.724L161.176 149.064C166.716 145.694 170.146 139.364 170.146 132.524V57.8139C170.146 50.9939 166.716 44.6539 161.176 41.2739L99.2064 3.61391C93.8764 0.373912 87.0564 0.393912 81.7564 3.61391L19.7864 41.2939C14.2464 44.6639 10.7964 50.9939 10.7964 57.8339V132.534C10.7964 138.294 13.2464 143.714 17.3464 147.284V147.314L81.7564 186.744C84.3964 188.344 87.4164 189.194 90.4764 189.194ZM91.1264 8.14391C93.0764 8.14391 95.5564 9.35391 97.2664 10.4039L158.026 47.5939C161.776 49.8739 163.896 56.4739 163.896 61.2239L163.266 132.524C163.266 137.274 160.066 141.544 156.316 143.824L95.9164 180.204C92.4864 182.294 89.6964 182.294 86.2564 180.204L25.0464 143.734C21.2964 141.454 18.2764 137.254 18.2764 132.524V58.8839C18.2764 54.1439 21.0064 49.2539 24.7764 46.9639L85.3564 10.4039C87.0564 9.36391 89.1764 8.14391 91.1264 8.14391Z" fill="#F2F1F0"/>
<path fill-rule="evenodd" clip-rule="evenodd" d="M98.3764 11.7236C95.9264 10.2236 93.2064 9.47363 90.4764 9.47363C87.7464 9.47363 85.0264 10.2336 82.5764 11.7236L26.4464 46.0536C21.4264 49.1236 18.3164 54.8736 18.3164 61.1236V129.224C18.3164 135.454 21.4164 141.224 26.4464 144.294L82.5764 178.624C85.0264 180.124 87.7464 180.874 90.4764 180.874C93.2064 180.874 95.9264 180.134 98.3764 178.624L154.506 144.294C159.526 141.224 162.636 135.454 162.636 129.224V61.1236C162.636 54.8936 159.536 49.1436 154.506 46.0536L98.3764 11.7236Z" fill="url(#paint0_linear_46_22293)"/>
<path fill-rule="evenodd" clip-rule="evenodd" d="M90.4764 10.9438C92.1564 10.9438 94.0464 11.8138 96.1064 13.0638L154.576 48.6038C158.226 50.8238 160.636 55.0938 160.636 59.9238V130.404C160.636 135.224 158.226 139.504 154.576 141.724L96.1164 177.264C94.1564 178.454 92.2364 179.204 90.4864 179.204C88.7364 179.204 86.8164 178.454 84.8564 177.264L26.3764 141.734C24.3664 140.504 22.9164 139.304 21.9364 137.694C20.9564 136.094 20.3164 133.874 20.3164 130.414V59.9338C20.3164 55.1039 22.7264 50.8338 26.3764 48.6138L84.8364 13.0738C86.9264 11.8238 88.7864 10.9438 90.4764 10.9438ZM98.1864 180.694L156.646 145.154C161.566 142.164 164.626 136.544 164.626 130.414V59.9338C164.626 53.8038 161.566 48.1838 156.646 45.1938L98.1864 9.65385C96.0764 8.37385 93.3664 6.94385 90.4764 6.94385C87.5764 6.94385 84.8664 8.38385 82.7764 9.64385H82.7664L24.2964 45.1938C19.3764 48.1838 16.3164 53.8038 16.3164 59.9338V130.414C16.3164 134.374 17.0564 137.364 18.5164 139.774C19.9764 142.174 22.0364 143.774 24.2964 145.144L82.7564 180.684C84.9764 182.034 87.6464 183.214 90.4664 183.214C93.2864 183.214 95.9664 182.044 98.1864 180.694Z" fill="url(#paint1_linear_46_22293)"/>
<path opacity="0.2" d="M156.367 95.4444L142.532 105.927V100.02H119.595V90.8691H142.532V84.9502L156.367 95.4444Z" fill="#1F1D21"/>
<path d="M156.367 93.7258L142.532 104.184V98.3011H119.595V89.1383H142.532V83.2437L156.367 93.7258Z" fill="white"/>
<path opacity="0.15" d="M132.159 144.008C132.516 144.008 132.869 143.938 133.199 143.801C133.528 143.664 133.828 143.462 134.079 143.208C134.331 142.955 134.529 142.656 134.664 142.326C134.799 141.995 134.867 141.641 134.864 141.284V51.8682H40.4453V141.265C40.4453 141.622 40.5157 141.976 40.6528 142.305C40.7899 142.634 40.9901 142.933 41.2433 143.184C41.4964 143.435 41.7976 143.634 42.128 143.769C42.4583 143.903 42.8125 143.971 43.1692 143.969L132.159 144.008Z" fill="#1F1D20"/>
<path d="M134.787 52.7176V51.25C134.787 50.3791 134.441 49.5437 133.825 48.9279C133.209 48.312 132.374 47.9658 131.503 47.9658H43.6523C42.7814 47.9658 41.946 48.312 41.3302 48.9279C40.7144 49.5437 40.3682 50.3791 40.3682 51.25V138.424C40.3682 139.295 40.7144 140.131 41.3302 140.746C41.946 141.362 42.7814 141.708 43.6523 141.708H131.522C131.953 141.708 132.382 141.624 132.78 141.459C133.178 141.294 133.539 141.051 133.844 140.746C134.149 140.441 134.392 140.081 134.557 139.682C134.722 139.284 134.806 138.855 134.806 138.424V52.8723C134.806 52.8723 134.787 52.7756 134.787 52.7176Z" fill="white"/>
<g opacity="0.2">
<path opacity="0.2" d="M72.9052 115.869C70.7357 115.894 69.005 117.673 69.0172 119.83C69.0293 121.208 69.7728 122.475 70.9673 123.182L84.8131 131.031C85.9588 131.677 87.2385 132.019 88.5548 132.019C89.2618 132.019 89.9687 131.921 90.639 131.714L111.469 125.778C114.662 124.864 116.856 121.939 116.868 118.624V115.869H72.9052Z" fill="white"/>
</g>
<g opacity="0.12">
<path opacity="0.12" d="M72.9052 115.869C70.7357 115.894 69.005 117.673 69.0172 119.83C69.0293 121.208 69.7728 122.475 70.9673 123.182L84.8131 131.031C85.9588 131.677 87.2385 132.019 88.5548 132.019C89.2618 132.019 89.9687 131.921 90.639 131.714L111.469 125.778C114.662 124.864 116.856 121.939 116.868 118.624V115.869H72.9052Z" fill="white"/>
</g>
<path d="M90.5537 58.5845L96.1481 71.3821V115.869L90.639 131.714L111.469 125.778C114.662 124.864 116.856 121.939 116.868 118.624V71.6746C116.868 68.3472 114.662 65.4221 111.456 64.5079L90.5537 58.5845Z" fill="url(#paint2_linear_46_22293)"/>
<path d="M64.142 115.394L70.2361 112.103C71.9424 111.164 72.9906 109.373 72.9906 107.435V83.485C72.9906 81.2546 74.3922 79.2557 76.4886 78.4878L96.1482 71.3821V65.9827C96.1482 62.5457 93.8568 59.523 90.5538 58.5845C89.8713 58.3895 89.1643 58.292 88.4452 58.292C87.1045 58.292 85.7882 58.6455 84.6181 59.3036L62.1187 72.1378C59.803 73.4663 58.3647 75.9283 58.3647 78.5975V111.944C58.3647 114.102 60.1077 115.857 62.265 115.869C62.9231 115.869 63.5691 115.711 64.142 115.394Z" fill="url(#paint3_linear_46_22293)"/>
<path d="M96.1481 115.869H72.9052C70.7357 115.894 69.005 117.673 69.0172 119.83C69.0293 121.208 69.7728 122.475 70.9673 123.182L84.8131 131.031C85.9588 131.677 87.2385 132.019 88.5548 132.019C89.2618 132.019 89.9687 131.921 90.639 131.714C93.9055 130.788 96.1603 127.801 96.1481 124.401V115.869Z" fill="url(#paint4_linear_46_22293)"/>
<path d="M64.142 115.394L70.2361 112.103C71.9424 111.164 72.9906 109.373 72.9906 107.435V83.485C72.9906 81.2546 74.3922 79.2557 76.4886 78.4878L96.1482 71.3821V65.9827C96.1482 62.5457 93.8568 59.523 90.5538 58.5845C89.8713 58.3895 89.1643 58.292 88.4452 58.292C87.1045 58.292 85.7882 58.6455 84.6181 59.3036L62.1187 72.1378C59.803 73.4663 58.3647 75.9283 58.3647 78.5975V111.944C58.3647 114.102 60.1077 115.857 62.265 115.869C62.9231 115.869 63.5691 115.711 64.142 115.394Z" fill="url(#paint5_linear_46_22293)"/>
<path d="M96.1481 115.869H72.9052C70.7357 115.894 69.005 117.673 69.0172 119.83C69.0293 121.208 69.7728 122.475 70.9673 123.182L84.8131 131.031C85.9588 131.677 87.2385 132.019 88.5548 132.019C89.2618 132.019 89.9687 131.921 90.639 131.714C93.9055 130.788 96.1603 127.801 96.1481 124.401V115.869Z" fill="url(#paint6_linear_46_22293)"/>
<defs>
<linearGradient id="paint0_linear_46_22293" x1="90.4763" y1="9.47363" x2="90.4763" y2="180.873" gradientUnits="userSpaceOnUse">
<stop stop-color="#00ABDE"/>
<stop offset="1" stop-color="#007ED8"/>
</linearGradient>
<linearGradient id="paint1_linear_46_22293" x1="36.5961" y1="4.26495" x2="203.273" y2="286.596" gradientUnits="userSpaceOnUse">
<stop stop-color="#007ED8"/>
<stop offset="0.7065" stop-color="#002D4C"/>
</linearGradient>
<linearGradient id="paint2_linear_46_22293" x1="103.711" y1="54.4161" x2="103.711" y2="126.595" gradientUnits="userSpaceOnUse">
<stop stop-color="#FFB900"/>
<stop offset="0.17" stop-color="#EF8400"/>
<stop offset="0.31" stop-color="#E25C01"/>
<stop offset="0.43" stop-color="#DB4401"/>
<stop offset="0.5" stop-color="#D83B01"/>
</linearGradient>
<linearGradient id="paint3_linear_46_22293" x1="90.694" y1="56.9679" x2="52.4717" y2="111.547" gradientUnits="userSpaceOnUse">
<stop stop-color="#800600"/>
<stop offset="0.6" stop-color="#C72127"/>
<stop offset="0.73" stop-color="#C13959"/>
<stop offset="0.85" stop-color="#BC4B81"/>
<stop offset="0.94" stop-color="#B95799"/>
<stop offset="1" stop-color="#B85BA2"/>
</linearGradient>
<linearGradient id="paint4_linear_46_22293" x1="71.1626" y1="123.944" x2="121.061" y2="123.944" gradientUnits="userSpaceOnUse">
<stop stop-color="#F32B44"/>
<stop offset="0.6" stop-color="#A4070A"/>
</linearGradient>
<linearGradient id="paint5_linear_46_22293" x1="91.4745" y1="55.8587" x2="83.3815" y2="67.4132" gradientUnits="userSpaceOnUse">
<stop stop-opacity="0.4"/>
<stop offset="1" stop-opacity="0"/>
</linearGradient>
<linearGradient id="paint6_linear_46_22293" x1="105.07" y1="125.069" x2="82.7295" y2="123.118" gradientUnits="userSpaceOnUse">
<stop stop-opacity="0.4"/>
<stop offset="1" stop-opacity="0"/>
</linearGradient>
</defs>
</svg>
