<svg width="181" height="191" viewBox="0 0 181 191" fill="none" xmlns="http://www.w3.org/2000/svg">
<path d="M90.7554 189.698C93.8154 189.698 96.8254 188.848 99.4854 187.228L161.455 149.568C166.995 146.198 170.425 139.868 170.425 133.028V58.3178C170.425 51.4978 166.995 45.1578 161.455 41.7778L99.4854 4.11782C94.1554 0.877818 87.3354 0.897818 82.0354 4.11782L20.0654 41.7978C14.5254 45.1678 11.0754 51.4978 11.0754 58.3378V133.038C11.0754 138.798 13.5254 144.218 17.6254 147.788V147.818L82.0354 187.248C84.6754 188.848 87.6954 189.698 90.7554 189.698ZM91.4054 8.64782C93.3554 8.64782 95.8354 9.85782 97.5454 10.9078L158.305 48.0978C162.055 50.3778 164.175 56.9778 164.175 61.7278L163.545 133.028C163.545 137.778 160.345 142.048 156.595 144.328L96.1954 180.708C92.7654 182.798 89.9754 182.798 86.5354 180.708L25.3254 144.238C21.5754 141.958 18.5554 137.758 18.5554 133.028V59.3878C18.5554 54.6478 21.2854 49.7578 25.0554 47.4678L85.6354 10.9078C87.3354 9.86782 89.4554 8.64782 91.4054 8.64782Z" fill="#F2F1F0"/>
<path fill-rule="evenodd" clip-rule="evenodd" d="M98.6555 12.2266C96.2055 10.7266 93.4855 9.97656 90.7555 9.97656C88.0255 9.97656 85.3055 10.7366 82.8555 12.2266L26.7255 46.5566C21.7055 49.6266 18.5955 55.3766 18.5955 61.6266V129.727C18.5955 135.957 21.6955 141.727 26.7255 144.797L82.8555 179.127C85.3055 180.627 88.0255 181.377 90.7555 181.377C93.4855 181.377 96.2055 180.637 98.6555 179.127L154.785 144.797C159.805 141.727 162.915 135.957 162.915 129.727V61.6266C162.915 55.3966 159.815 49.6466 154.785 46.5566L98.6555 12.2266Z" fill="url(#paint0_linear_342_57272)"/>
<path fill-rule="evenodd" clip-rule="evenodd" d="M90.7555 11.4473C92.4355 11.4473 94.3255 12.3173 96.3855 13.5673L154.855 49.1073C158.505 51.3273 160.915 55.5973 160.915 60.4273V130.907C160.915 135.727 158.505 140.007 154.855 142.227L96.3955 177.767C94.4355 178.957 92.5155 179.707 90.7655 179.707C89.0155 179.707 87.0955 178.957 85.1355 177.767L26.6555 142.237C24.6455 141.007 23.1955 139.807 22.2155 138.197C21.2355 136.597 20.5955 134.377 20.5955 130.917V60.4373C20.5955 55.6073 23.0055 51.3373 26.6555 49.1173L85.1155 13.5773C87.2055 12.3273 89.0655 11.4473 90.7555 11.4473ZM98.4655 181.197L156.925 145.657C161.845 142.667 164.905 137.047 164.905 130.917V60.4373C164.905 54.3073 161.845 48.6873 156.925 45.6973L98.4655 10.1573C96.3555 8.87727 93.6455 7.44727 90.7555 7.44727C87.8555 7.44727 85.1455 8.88727 83.0555 10.1473H83.0455L24.5755 45.6973C19.6555 48.6873 16.5955 54.3073 16.5955 60.4373V130.917C16.5955 134.877 17.3355 137.867 18.7955 140.277C20.2555 142.677 22.3155 144.277 24.5755 145.647L83.0355 181.187C85.2555 182.537 87.9255 183.717 90.7455 183.717C93.5655 183.717 96.2455 182.547 98.4655 181.197Z" fill="url(#paint1_linear_342_57272)"/>
<path d="M90.1355 62.4756C109.397 62.4756 124.991 78.087 124.991 97.3313C124.991 116.593 109.38 132.187 90.1355 132.187C70.8912 132.187 55.2798 116.593 55.2798 97.3484C55.2798 78.087 70.8912 62.4756 90.1355 62.4756Z" fill="white"/>
<path fill-rule="evenodd" clip-rule="evenodd" d="M89.6745 43.143C75.6318 43.143 62.1642 48.7214 52.2345 58.6512C42.3048 68.5809 36.7264 82.0484 36.7264 96.0911L36.7263 96.093C36.7102 104.546 38.7222 112.88 42.5936 120.394C46.4651 127.909 52.0828 134.385 58.9753 139.279C59.4011 139.581 59.5012 140.172 59.1988 140.597C58.8965 141.023 58.3063 141.123 57.8805 140.821C50.7413 135.752 44.9225 129.044 40.9126 121.26C36.9027 113.477 34.8187 104.846 34.8353 96.0902C34.8355 81.5463 40.6132 67.5981 50.8973 57.314C61.1817 47.0296 75.1302 41.252 89.6745 41.252C90.1967 41.252 90.62 41.6753 90.62 42.1975C90.62 42.7197 90.1967 43.143 89.6745 43.143Z" fill="white"/>
<path fill-rule="evenodd" clip-rule="evenodd" d="M124.863 55.3493C125.21 54.9596 125.808 54.9255 126.198 55.2731C131.949 60.4037 136.55 66.6932 139.697 73.7285C142.845 80.7638 144.468 88.3856 144.46 96.0929C144.46 110.651 138.677 124.613 128.383 134.907C118.088 145.201 104.126 150.985 89.5678 150.985C89.0456 150.985 88.6223 150.561 88.6223 150.039C88.6223 149.517 89.0456 149.094 89.5678 149.094C103.625 149.094 117.106 143.509 127.046 133.57C136.985 123.63 142.569 110.149 142.569 96.0919L142.569 96.091C142.577 88.6505 141.01 81.2925 137.971 74.5008C134.933 67.7091 130.491 61.6373 124.939 56.6843C124.549 56.3367 124.515 55.739 124.863 55.3493Z" fill="white"/>
<path d="M89.385 36.2461L100.06 42.4134L89.385 48.569V36.2461Z" fill="white"/>
<path d="M91.6973 143.769L81.0221 149.936L91.6973 156.091V143.769Z" fill="white"/>
<path fill-rule="evenodd" clip-rule="evenodd" d="M142.673 96.1957C142.673 82.153 137.095 68.6855 127.165 58.7557C117.235 48.826 103.768 43.2476 89.725 43.2476L89.7232 43.2476C81.27 43.2314 72.9364 45.2435 65.4218 49.1149C57.9072 52.9863 51.431 58.6041 46.537 65.4965C46.2347 65.9223 45.6444 66.0224 45.2187 65.7201C44.7929 65.4177 44.6928 64.8275 44.9951 64.4017C50.0642 57.2626 56.7722 51.4438 64.5557 47.4338C72.339 43.424 80.9705 41.3399 89.7259 41.3565C104.27 41.3568 118.218 47.1344 128.502 57.4186C138.787 67.7029 144.564 81.6515 144.564 96.1957C144.564 96.7179 144.141 97.1413 143.619 97.1413C143.096 97.1413 142.673 96.7179 142.673 96.1957Z" fill="white"/>
<path fill-rule="evenodd" clip-rule="evenodd" d="M130.467 131.384C130.857 131.731 130.891 132.329 130.543 132.719C125.412 138.47 119.123 143.071 112.088 146.219C105.052 149.366 97.4306 150.99 89.7233 150.982C75.1652 150.981 61.2034 145.198 50.9092 134.904C40.6149 124.61 34.8316 110.648 34.8316 96.0891C34.8316 95.5669 35.2549 95.1436 35.7771 95.1436C36.2993 95.1436 36.7226 95.5669 36.7226 96.0891C36.7226 110.146 42.3067 123.627 52.2464 133.567C62.1861 143.507 75.6673 149.091 89.7242 149.091L89.7252 149.091C97.1657 149.098 104.524 147.531 111.315 144.493C118.107 141.454 124.179 137.012 129.132 131.46C129.479 131.07 130.077 131.036 130.467 131.384Z" fill="white"/>
<path d="M149.57 95.9062L143.403 106.581L137.247 95.9062L149.57 95.9062Z" fill="white"/>
<path d="M42.0474 98.2188L35.88 87.5436L29.7245 98.2187L42.0474 98.2188Z" fill="white"/>
<path opacity="0.2" d="M118.56 100.425C118.589 100.291 118.61 100.172 118.645 100.038C118.8 99.2488 118.878 98.4247 118.878 97.5794C118.878 90.3665 113.027 84.5341 105.829 84.5341C104.821 84.5341 103.834 84.6468 102.91 84.8722C99.9353 80.181 94.6904 77.0605 88.7123 77.0605C79.4349 77.0605 71.92 84.5905 71.92 93.8391C71.92 94.0716 71.92 94.297 71.927 94.5224C71.0811 94.2406 70.1787 94.0786 69.2341 94.0786C64.6588 94.0786 60.9578 97.7767 60.9578 102.348C60.9578 106.638 64.2218 110.16 68.4092 110.568L105.822 110.639C110.742 110.639 115.007 107.927 117.235 103.933C117.299 103.82 117.355 103.708 117.418 103.588C117.757 102.891 118.257 101.813 118.56 100.425Z" fill="#003067"/>
<path d="M118.158 99.0033C118.186 98.8695 118.207 98.7497 118.243 98.6159C118.398 97.827 118.475 97.0028 118.475 96.1576C118.475 88.9446 112.624 83.1122 105.426 83.1122C104.418 83.1122 103.431 83.225 102.508 83.4504C99.5327 78.7591 94.2878 75.6387 88.3097 75.6387C79.0323 75.6387 71.5174 83.1686 71.5174 92.4172C71.5174 92.6497 71.5174 92.8751 71.5244 93.1005C70.6785 92.8187 69.7761 92.6567 68.8315 92.6567C64.2562 92.6567 60.5552 96.3548 60.5552 100.926C60.5552 105.216 63.8192 108.738 68.0067 109.147L105.419 109.217C110.34 109.217 114.605 106.505 116.833 102.511C116.896 102.398 116.952 102.286 117.016 102.166C117.354 101.469 117.855 100.391 118.158 99.0033Z" fill="url(#paint2_linear_342_57272)"/>
<path opacity="0.15" d="M100.853 110.332L89.4191 103.674L78.8564 109.742L90.29 116.259L100.853 110.332Z" fill="url(#paint3_linear_342_57272)"/>
<path d="M89.7845 92.6902L89.7283 115.642L79.0251 109.826L79.0532 86.7627L89.7845 92.6902Z" fill="#EBEBEB"/>
<path d="M89.7002 92.5767L89.7283 115.64L100.46 109.657L100.431 86.6211L89.7002 92.5767Z" fill="#CDCDD0"/>
<path d="M100.431 86.6217L89.7 92.6335L79.053 86.7622L89.7842 80.8066L100.431 86.6217Z" fill="#CDCDD0"/>
<path d="M88.8573 93.5604V95.5268L79.7554 90.3297V88.3633L88.8573 93.5604Z" fill="#0187EE"/>
<path d="M88.8573 95.8924V97.8869L79.7554 92.6618V90.6953L88.8573 95.8924Z" fill="#0180E6"/>
<path d="M88.8573 98.2801V100.247L79.7554 95.0214V93.083L88.8573 98.2801Z" fill="#017BE0"/>
<path d="M88.8573 100.668V102.634L79.7554 97.4091V95.4707L88.8573 100.668Z" fill="#0175DA"/>
<path d="M88.8573 103.028V105.023L79.7554 99.7975V97.8311L88.8573 103.028Z" fill="#016ED2"/>
<path d="M88.8573 105.416V107.382L79.7554 102.185V100.219L88.8573 105.416Z" fill="#016DD1"/>
<path d="M88.8573 107.804V109.77L79.7554 104.545V102.606L88.8573 107.804Z" fill="#0161C4"/>
<path d="M88.8573 110.163V112.158L79.7554 106.933V104.994L88.8573 110.163Z" fill="#014EAF"/>
<path d="M90.543 93.4481V95.4145L99.6168 90.1893V88.251L90.543 93.4481Z" fill="#0187EE"/>
<path d="M90.543 95.8084V97.7749L99.6168 92.5497V90.6113L90.543 95.8084Z" fill="#0180E6"/>
<path d="M90.543 98.1678V100.134L99.6168 94.9372V92.9707L90.543 98.1678Z" fill="#017BE0"/>
<path d="M90.543 100.555V102.522L99.6168 97.2968V95.3584L90.543 100.555Z" fill="#0175DA"/>
<path d="M90.543 102.943V104.91L99.6168 99.6845V97.7461L90.543 102.943Z" fill="#016ED2"/>
<path d="M90.543 105.303V107.297L99.6168 102.072V100.134L90.543 105.303Z" fill="#016DD1"/>
<path d="M90.543 107.69V109.657L99.6168 104.46V102.493L90.543 107.69Z" fill="#0161C4"/>
<path d="M90.543 110.079V112.045L99.6168 106.82V104.882L90.543 110.079Z" fill="#014EAF"/>
<mask id="mask0_342_57272" style="mask-type:alpha" maskUnits="userSpaceOnUse" x="81" y="81" width="18" height="11">
<path d="M98.3009 86.0655L89.7293 91.0515L81.1343 86.0869L89.7094 81.0889L98.3009 86.0655Z" fill="#CDCDD0"/>
</mask>
<g mask="url(#mask0_342_57272)">
<path d="M100.063 85.499C100.072 82.1955 95.4592 79.5044 89.7591 79.4883C84.059 79.4721 79.4306 82.137 79.4213 85.4404C79.4119 88.7439 84.0251 91.435 89.7252 91.4511C95.4253 91.4673 100.054 88.8024 100.063 85.499Z" fill="#F4F4F4"/>
</g>
<path d="M89.7002 80.8633C92.7903 82.6612 95.9086 84.4591 99.0268 86.257C98.8864 86.1727 98.6616 86.1165 98.2964 86.0884L89.7002 81.1161C89.7002 80.9195 89.7002 80.8633 89.7002 80.8633Z" fill="#CDCDD0"/>
<path d="M80.4016 86.257C83.1827 84.6276 85.992 83.0264 88.7731 81.397C89.054 81.2285 89.4192 81.0318 89.7002 80.8633C89.7002 80.8633 89.7002 80.9195 89.7002 81.1161L81.132 86.0884C80.7668 86.1165 80.5421 86.1727 80.4016 86.257Z" fill="#CDCDD0"/>
<path d="M89.7561 92.1277C88.5201 91.3973 87.2559 90.695 86.0199 89.9646C84.1377 88.869 82.2836 87.8015 80.4014 86.7059C80.3171 86.6497 80.2609 86.5936 80.2328 86.5374C80.1767 86.425 80.3171 86.1441 81.1318 86.0879L89.728 91.0602C89.728 91.594 89.728 91.9592 89.728 92.0435C89.7561 92.0996 89.7561 92.1277 89.7561 92.1277Z" fill="#EBEBEB"/>
<path d="M99.0549 86.7338L98.1278 87.2675C97.5098 87.6327 96.8918 87.9979 96.2738 88.335L95.3467 88.8688L94.4197 89.4026C92.8746 90.3015 91.3295 91.2005 89.7563 92.0994C89.7563 92.0994 89.7563 92.0713 89.7563 92.0151C89.7563 91.9028 89.7563 91.5657 89.7563 91.0319L98.2964 86.0596C99.1111 86.1158 99.2515 86.3967 99.2234 86.509C99.1954 86.6214 99.1111 86.6776 99.0549 86.7338Z" fill="#9B9BA0"/>
<path opacity="0.15" d="M113.064 114.671L102.582 108.566L92.8972 114.13L103.38 120.105L113.064 114.671Z" fill="url(#paint4_linear_342_57272)"/>
<path d="M100.495 109.108L100.469 118.277L92.9744 113.873L93.0001 104.601L100.495 109.108Z" fill="#EBEBEB"/>
<path d="M100.444 109.004L100.47 118.277L107.836 113.924L107.81 104.497L100.444 109.004Z" fill="#CDCDD0"/>
<path d="M107.81 104.497L100.444 109.056L93.0002 104.6L100.367 100.041L107.81 104.497Z" fill="#F4F4F4"/>
<path d="M96.2197 108.387V111.04L96.9409 111.477V108.799L96.2197 108.387Z" fill="#58B5FC"/>
<path d="M93.7728 106.944L93.7471 109.597L94.4167 109.984V107.331L93.7728 106.944Z" fill="url(#paint5_linear_342_57272)"/>
<path d="M97.9198 109.365L97.894 112.018L98.641 112.456V109.777L97.9198 109.365Z" fill="#40A9F8"/>
<path d="M94.5455 107.382L94.5198 110.061L95.2667 110.498V107.82L94.5455 107.382Z" fill="#71C2FF"/>
<path d="M95.3956 107.896L95.3699 110.549L96.0911 110.987L96.1168 108.309L95.3956 107.896Z" fill="#71C2FF"/>
<path d="M100.341 113.435V110.756L99.594 110.344V113.022L100.341 113.435Z" fill="url(#paint6_linear_342_57272)"/>
<path d="M98.7697 109.854L98.7439 112.533L99.4651 112.945L99.4908 110.267L98.7697 109.854Z" fill="#30A0F5"/>
<path d="M97.0698 108.876V111.529L97.791 111.967V109.288L97.0698 108.876Z" fill="#56B4FB"/>
<path d="M96.2197 111.709V114.207L96.9409 114.645V112.121L96.2197 111.709Z" fill="#58B5FC"/>
<path d="M93.7728 110.267L93.7471 112.791L94.4167 113.177V110.653L93.7728 110.267Z" fill="#71C2FF"/>
<path d="M93.7728 106.944L93.7471 109.597L94.4167 109.984V107.331L93.7728 106.944Z" fill="#71C2FF"/>
<path d="M97.9198 112.688L97.894 115.212L98.641 115.624V113.1L97.9198 112.688Z" fill="#40A9F8"/>
<path d="M94.5455 110.73L94.5198 113.229L95.2667 113.667V111.143L94.5455 110.73Z" fill="#71C2FF"/>
<path d="M95.3956 111.22L95.3699 113.718L96.0911 114.156L96.1168 111.632L95.3956 111.22Z" fill="#71C2FF"/>
<path d="M100.341 116.602V114.078L99.594 113.666V116.19L100.341 116.602Z" fill="url(#paint7_linear_342_57272)"/>
<path d="M98.7697 113.177L98.7439 115.701L99.4651 116.113L99.4908 113.589L98.7697 113.177Z" fill="#30A0F5"/>
<path d="M97.0698 112.198V114.697L97.791 115.134V112.61L97.0698 112.198Z" fill="#56B4FB"/>
<path d="M104.694 108.387V111.04L103.973 111.477L103.947 108.799L104.694 108.387Z" fill="#2199F3"/>
<path d="M107.14 106.944L107.166 109.597L106.497 109.984V107.331L107.14 106.944Z" fill="#71C2FF"/>
<path d="M102.994 109.365V112.018L102.272 112.456V109.777L102.994 109.365Z" fill="url(#paint8_linear_342_57272)"/>
<path d="M106.368 107.382V110.061L105.647 110.498V107.82L106.368 107.382Z" fill="#58B5FC"/>
<path d="M105.518 107.896L105.544 110.549L104.822 110.987L104.797 108.309L105.518 107.896Z" fill="#36A4F6"/>
<path d="M100.547 113.486V110.782L101.32 110.344V113.022L100.547 113.486Z" fill="url(#paint9_linear_342_57272)"/>
<path d="M102.144 109.854L102.17 112.533L101.423 112.945V110.267L102.144 109.854Z" fill="url(#paint10_linear_342_57272)"/>
<path d="M103.844 108.876V111.529L103.123 111.967V109.288L103.844 108.876Z" fill="#0F8FF1"/>
<path d="M104.694 111.709V114.207L103.973 114.645L103.947 112.121L104.694 111.709Z" fill="url(#paint11_linear_342_57272)"/>
<path d="M107.14 110.267L107.166 112.791L106.497 113.177V110.653L107.14 110.267Z" fill="#2199F3"/>
<path d="M102.994 112.688V115.212L102.272 115.624V113.1L102.994 112.688Z" fill="url(#paint12_linear_342_57272)"/>
<path d="M106.368 110.73V113.229L105.647 113.667V111.143L106.368 110.73Z" fill="#0F8FF1"/>
<path d="M105.518 111.22L105.544 113.718L104.822 114.156L104.797 111.632L105.518 111.22Z" fill="url(#paint13_linear_342_57272)"/>
<path d="M100.547 116.654V114.104L101.32 113.666V116.19L100.547 116.654Z" fill="url(#paint14_linear_342_57272)"/>
<path d="M102.144 113.177L102.17 115.701L101.423 116.113V113.589L102.144 113.177Z" fill="url(#paint15_linear_342_57272)"/>
<path d="M103.844 112.198V114.697L103.123 115.134V112.61L103.844 112.198Z" fill="url(#paint16_linear_342_57272)"/>
<path d="M100.392 100.118C102.582 101.38 104.9 102.823 107.089 104.11C107.012 104.059 106.883 104.033 106.703 104.007L100.392 100.221C100.392 100.144 100.392 100.118 100.392 100.118Z" fill="#CDCDD0"/>
<path d="M93.6956 104.24C95.8849 102.977 98.2287 101.381 100.418 100.093C100.418 100.093 100.418 100.119 100.418 100.222L94.0819 104.137C93.9016 104.162 93.7728 104.188 93.6956 104.24Z" fill="#CDCDD0"/>
<path d="M106.703 103.981C104.745 105.114 102.298 106.634 100.341 107.767C98.3577 106.634 96.0396 105.269 94.0564 104.136C96.0139 103.002 98.435 101.354 100.392 100.221C102.376 101.354 104.745 102.848 106.703 103.981Z" fill="#F4F4F4"/>
<path d="M100.341 108.541C98.1515 107.279 95.8592 105.965 93.6699 104.678C93.5926 104.626 93.5411 104.575 93.5154 104.497C93.4896 104.394 93.5926 104.188 94.0563 104.137L100.341 107.768C100.341 108.103 100.341 108.361 100.341 108.464C100.341 108.515 100.341 108.541 100.341 108.541Z" fill="#EBEBEB"/>
<path d="M107.115 104.523C107.115 104.523 101.011 108.155 100.367 108.541C100.367 108.541 100.367 108.103 100.367 107.769L106.729 103.982C107.218 104.034 107.295 104.24 107.269 104.343C107.218 104.446 107.166 104.498 107.115 104.523Z" fill="#CDCDD0"/>
<path d="M100.367 101.071L100.392 100.736L105.93 103.982L105.595 104.188L100.367 101.071Z" fill="#CDCDD0"/>
<path d="M100.366 101.072L100.392 100.711L95.0864 103.956L95.3955 104.137L100.366 101.072Z" fill="#9B9BA0"/>
<defs>
<linearGradient id="paint0_linear_342_57272" x1="90.7554" y1="9.97656" x2="90.7554" y2="181.376" gradientUnits="userSpaceOnUse">
<stop stop-color="#00ABDE"/>
<stop offset="1" stop-color="#007ED8"/>
</linearGradient>
<linearGradient id="paint1_linear_342_57272" x1="36.8752" y1="4.76837" x2="203.552" y2="287.099" gradientUnits="userSpaceOnUse">
<stop stop-color="#007ED8"/>
<stop offset="0.7065" stop-color="#002D4C"/>
</linearGradient>
<linearGradient id="paint2_linear_342_57272" x1="102.777" y1="75.6155" x2="112.182" y2="107.391" gradientUnits="userSpaceOnUse">
<stop stop-color="#008BF1"/>
<stop offset="0.22" stop-color="#0086EC"/>
<stop offset="0.49" stop-color="#0078DD"/>
<stop offset="0.79" stop-color="#0061C4"/>
<stop offset="1" stop-color="#004DAE"/>
</linearGradient>
<linearGradient id="paint3_linear_342_57272" x1="84.7488" y1="104.16" x2="95.7201" y2="116.59" gradientUnits="userSpaceOnUse">
<stop/>
<stop offset="0.8221" stop-opacity="0"/>
</linearGradient>
<linearGradient id="paint4_linear_342_57272" x1="98.2945" y1="109.002" x2="108.354" y2="120.398" gradientUnits="userSpaceOnUse">
<stop/>
<stop offset="0.8221" stop-opacity="0"/>
</linearGradient>
<linearGradient id="paint5_linear_342_57272" x1="102.828" y1="117.209" x2="95.5434" y2="109.924" gradientUnits="userSpaceOnUse">
<stop stop-color="#0078D4"/>
<stop offset="0.848" stop-color="#4DC2EB"/>
</linearGradient>
<linearGradient id="paint6_linear_342_57272" x1="102.779" y1="114.7" x2="96.0756" y2="107.997" gradientUnits="userSpaceOnUse">
<stop stop-color="#0078D4"/>
<stop offset="0.848" stop-color="#4DC2EB"/>
</linearGradient>
<linearGradient id="paint7_linear_342_57272" x1="101.018" y1="116.189" x2="94.5913" y2="109.762" gradientUnits="userSpaceOnUse">
<stop stop-color="#0078D4"/>
<stop offset="0.848" stop-color="#4DC2EB"/>
</linearGradient>
<linearGradient id="paint8_linear_342_57272" x1="102.968" y1="112.838" x2="101.508" y2="104.317" gradientUnits="userSpaceOnUse">
<stop stop-color="#0078D4"/>
<stop offset="0.848" stop-color="#4DC2EB"/>
</linearGradient>
<linearGradient id="paint9_linear_342_57272" x1="101.101" y1="112.92" x2="99.6696" y2="104.567" gradientUnits="userSpaceOnUse">
<stop stop-color="#0078D4"/>
<stop offset="0.848" stop-color="#4DC2EB"/>
</linearGradient>
<linearGradient id="paint10_linear_342_57272" x1="102.051" y1="112.901" x2="100.591" y2="104.382" gradientUnits="userSpaceOnUse">
<stop stop-color="#0078D4"/>
<stop offset="0.848" stop-color="#4DC2EB"/>
</linearGradient>
<linearGradient id="paint11_linear_342_57272" x1="104.159" y1="112.201" x2="102.776" y2="104.132" gradientUnits="userSpaceOnUse">
<stop stop-color="#0078D4"/>
<stop offset="0.848" stop-color="#4DC2EB"/>
</linearGradient>
<linearGradient id="paint12_linear_342_57272" x1="102.332" y1="112.374" x2="100.949" y2="104.306" gradientUnits="userSpaceOnUse">
<stop stop-color="#0078D4"/>
<stop offset="0.848" stop-color="#4DC2EB"/>
</linearGradient>
<linearGradient id="paint13_linear_342_57272" x1="105.072" y1="112.114" x2="103.688" y2="104.045" gradientUnits="userSpaceOnUse">
<stop stop-color="#0078D4"/>
<stop offset="0.848" stop-color="#4DC2EB"/>
</linearGradient>
<linearGradient id="paint14_linear_342_57272" x1="100.485" y1="112.574" x2="99.1286" y2="104.66" gradientUnits="userSpaceOnUse">
<stop stop-color="#0078D4"/>
<stop offset="0.848" stop-color="#4DC2EB"/>
</linearGradient>
<linearGradient id="paint15_linear_342_57272" x1="101.419" y1="112.46" x2="100.036" y2="104.393" gradientUnits="userSpaceOnUse">
<stop stop-color="#0078D4"/>
<stop offset="0.848" stop-color="#4DC2EB"/>
</linearGradient>
<linearGradient id="paint16_linear_342_57272" x1="103.245" y1="112.287" x2="101.862" y2="104.219" gradientUnits="userSpaceOnUse">
<stop stop-color="#0078D4"/>
<stop offset="0.848" stop-color="#4DC2EB"/>
</linearGradient>
</defs>
</svg>
