<svg width="200" height="200" viewBox="0 0 200 200" fill="none" xmlns="http://www.w3.org/2000/svg">
<path d="M100 190.58C81.9267 190.58 64.2593 185.221 49.232 175.18C34.2046 165.139 22.4922 150.867 15.5759 134.17C8.65954 117.472 6.84991 99.0986 10.3758 81.3726C13.9017 63.6467 22.6048 47.3643 35.3846 34.5846C48.1643 21.8048 64.4466 13.1017 82.1726 9.57583C99.8986 6.04991 118.272 7.85954 134.97 14.7759C151.667 21.6922 165.939 33.4046 175.98 48.432C186.021 63.4593 191.38 81.1267 191.38 99.2C191.383 111.201 189.021 123.085 184.429 134.173C179.838 145.261 173.107 155.335 164.621 163.821C156.135 172.307 146.061 179.038 134.973 183.629C123.885 188.221 112.001 190.583 100 190.58V190.58Z" fill="url(#paint0_linear)"/>
<path fill-rule="evenodd" clip-rule="evenodd" d="M189.6 99.2C189.6 116.921 184.345 134.244 174.5 148.979C164.654 163.714 150.661 175.198 134.288 181.98C117.916 188.761 99.9006 190.536 82.5199 187.078C65.1392 183.621 49.174 175.088 36.6432 162.557C24.1124 150.026 15.5789 134.061 12.1216 116.68C8.66439 99.2994 10.4388 81.2838 17.2204 64.9116C24.002 48.5393 35.4862 34.5457 50.2209 24.7003C64.9555 14.8549 82.2788 9.59999 100 9.59999C123.762 9.60529 146.549 19.047 163.351 35.8491C180.153 52.6512 189.595 75.4382 189.6 99.2V99.2ZM100 2.29999C119.171 2.29603 137.912 7.97744 153.853 18.6256C169.795 29.2738 182.22 44.4104 189.559 62.1211C196.897 79.8317 198.818 99.3207 195.079 118.123C191.34 136.926 182.108 154.197 168.553 167.753C154.997 181.308 137.726 190.54 118.923 194.279C100.121 198.018 80.6317 196.097 62.9211 188.759C45.2104 181.42 30.0738 168.995 19.4256 153.053C8.77743 137.112 3.09603 118.371 3.09999 99.2C3.09999 73.5005 13.3091 48.8536 31.4813 30.6813C49.6536 12.5091 74.3005 2.29999 100 2.29999V2.29999Z" fill="#F2F1F0"/>
<path fill-rule="evenodd" clip-rule="evenodd" d="M184.12 99.2C184.12 115.837 179.186 132.101 169.943 145.935C160.7 159.768 147.562 170.55 132.191 176.917C116.82 183.284 99.9067 184.949 83.589 181.704C67.2713 178.458 52.2826 170.446 40.5182 158.682C28.7538 146.917 20.7421 131.929 17.4964 115.611C14.2506 99.2933 15.9164 82.3796 22.2833 67.0087C28.6501 51.6378 39.432 38.5 53.2654 29.2568C67.0989 20.0136 83.3626 15.08 100 15.08C122.31 15.08 143.706 23.9426 159.482 39.7182C175.257 55.4938 184.12 76.89 184.12 99.2V99.2ZM100 7.78003C118.081 7.78003 135.756 13.1417 150.79 23.1871C165.824 33.2324 177.542 47.5103 184.461 64.2151C191.38 80.9199 193.191 99.3014 189.663 117.035C186.136 134.769 177.429 151.058 164.644 163.844C151.858 176.629 135.569 185.336 117.835 188.863C100.101 192.391 81.7199 190.58 65.0151 183.661C48.3103 176.742 34.0324 165.024 23.9871 149.99C13.9417 134.956 8.58001 117.281 8.58001 99.2C8.58531 74.9556 18.2187 51.7056 35.3622 34.5622C52.5056 17.4188 75.7555 7.78533 100 7.78003V7.78003Z" fill="#0078D4"/>
<path fill-rule="evenodd" clip-rule="evenodd" d="M184.12 99.2C184.12 115.837 179.186 132.101 169.943 145.935C160.7 159.768 147.562 170.55 132.191 176.917C116.82 183.284 99.9067 184.949 83.589 181.704C67.2713 178.458 52.2826 170.446 40.5182 158.682C28.7538 146.917 20.7421 131.929 17.4964 115.611C14.2506 99.2933 15.9164 82.3796 22.2833 67.0087C28.6501 51.6378 39.432 38.5 53.2654 29.2568C67.0989 20.0136 83.3626 15.08 100 15.08C122.31 15.08 143.706 23.9426 159.482 39.7182C175.257 55.4938 184.12 76.89 184.12 99.2V99.2ZM100 7.78003C118.081 7.78003 135.756 13.1417 150.79 23.1871C165.824 33.2324 177.542 47.5103 184.461 64.2151C191.38 80.9199 193.191 99.3014 189.663 117.035C186.136 134.769 177.429 151.058 164.644 163.844C151.858 176.629 135.569 185.336 117.835 188.863C100.101 192.391 81.7199 190.58 65.0151 183.661C48.3103 176.742 34.0324 165.024 23.9871 149.99C13.9417 134.956 8.58001 117.281 8.58001 99.2C8.58531 74.9556 18.2187 51.7056 35.3622 34.5622C52.5056 17.4188 75.7555 7.78533 100 7.78003V7.78003Z" fill="#0078D4"/>
<circle cx="102" cy="102" r="29" fill="#B1F4FF"/>
<circle cx="101.5" cy="101.5" r="52.25" stroke="#B1F4FF" stroke-width="6.5"/>
<circle cx="49" cy="107" r="10" fill="#0078D4"/>
<circle cx="146.5" cy="128.5" r="8.5" fill="#4DC2EB"/>
<circle cx="110" cy="153" r="5" fill="#DBFAFF"/>
<circle cx="146.5" cy="75.5" r="10.5" fill="#1F56A3"/>
<circle cx="101.5" cy="45.5" r="12.5" fill="#0078D4"/>
<circle cx="87.5" cy="152.5" r="12.5" fill="#50E6FF"/>
<circle cx="56.5" cy="74.5" r="7.5" fill="#50E6FF"/>
<path d="M97.8727 108.312H112.054C118.144 108.312 123.083 104.025 123.083 98.7396C123.083 93.454 118.144 89.1667 112.054 89.1667H97.8727C91.7828 89.1667 86.8431 93.454 86.8431 98.7396C86.8431 104.025 91.7828 108.312 97.8727 108.312Z" fill="#0081DF"/>
<path d="M92.4909 107.065L95.5478 110.106L98.6047 107.065H92.4909Z" fill="#0078D4"/>
<path d="M91.9462 113.555H106.127C112.217 113.555 117.157 109.268 117.157 103.982C117.157 98.6963 112.217 94.4091 106.127 94.4091H91.9462C85.8563 94.4091 80.9166 98.6963 80.9166 103.982C80.9166 109.268 85.8563 113.555 91.9462 113.555Z" fill="white"/>
<path d="M86.5644 112.307L89.6213 115.349L92.6782 112.307H86.5644Z" fill="white"/>
<path d="M107.242 106.489C105.92 106.489 104.849 105.418 104.849 104.096C104.849 102.774 105.92 101.703 107.242 101.703C108.564 101.703 109.635 102.774 109.635 104.096C109.635 105.418 108.564 106.489 107.242 106.489Z" fill="#0078D4"/>
<path d="M99.2651 106.489C97.9433 106.489 96.8718 105.418 96.8718 104.096C96.8718 102.774 97.9433 101.703 99.2651 101.703C100.587 101.703 101.658 102.774 101.658 104.096C101.658 105.418 100.587 106.489 99.2651 106.489Z" fill="#0078D4"/>
<path d="M91.0592 106.489C89.7374 106.489 88.6659 105.418 88.6659 104.096C88.6659 102.774 89.7374 101.703 91.0592 101.703C92.3809 101.703 93.4524 102.774 93.4524 104.096C93.4524 105.418 92.3809 106.489 91.0592 106.489Z" fill="#0078D4"/>
<defs>
<linearGradient id="paint0_linear" x1="96.54" y1="-27.28" x2="104.32" y2="257.28" gradientUnits="userSpaceOnUse">
<stop stop-color="#00ABDE"/>
<stop offset="1" stop-color="#007ED8"/>
</linearGradient>
</defs>
</svg>
