<svg width="100" height="100" viewBox="0 0 100 100" fill="none" xmlns="https://www.w3.org/2000/svg">
<g clip-path="url(#clip0)">
<path d="M49.6401 96.4501C40.382 96.4501 31.3317 93.7047 23.6339 88.5612C15.936 83.4176 9.93624 76.1069 6.3933 67.5535C2.85036 59.0001 1.92337 49.5882 3.72954 40.5079C5.53571 31.4277 9.99394 23.0869 16.5404 16.5404C23.0869 9.99393 31.4277 5.53571 40.5079 3.72954C49.5882 1.92337 59.0001 2.85036 67.5535 6.3933C76.1069 9.93624 83.4176 15.936 88.5612 23.6339C93.7047 31.3317 96.4501 40.382 96.4501 49.6401C96.4505 55.7874 95.24 61.8746 92.8878 67.554C90.5355 73.2335 87.0875 78.3939 82.7407 82.7407C78.3939 87.0875 73.2335 90.5355 67.554 92.8878C61.8746 95.24 55.7874 96.4505 49.6401 96.4501V96.4501Z" fill="url(#paint0_linear)"/>
<path fill-rule="evenodd" clip-rule="evenodd" d="M95.54 49.64C95.54 58.7182 92.848 67.5925 87.8045 75.1407C82.7609 82.6889 75.5923 88.572 67.2052 92.0461C58.818 95.5201 49.5891 96.4291 40.6854 94.658C31.7816 92.887 23.603 88.5154 17.1838 82.0962C10.7646 75.677 6.39302 67.4984 4.62196 58.5946C2.85089 49.6909 3.75987 40.462 7.23393 32.0748C10.708 23.6877 16.5911 16.5191 24.1393 11.4755C31.6875 6.43199 40.5618 3.74 49.64 3.74C55.6677 3.73998 61.6363 4.9272 67.2052 7.23388C72.774 9.54057 77.834 12.9215 82.0963 17.1837C86.3585 21.446 89.7394 26.5059 92.0461 32.0748C94.3528 37.6437 95.54 43.6123 95.54 49.64V49.64ZM49.64 3.62732e-07C59.4579 3.62732e-07 69.0553 2.91134 77.2185 8.36585C85.3818 13.8204 91.7442 21.5731 95.5014 30.6436C99.2585 39.7141 100.242 49.6951 98.3262 59.3243C96.4108 68.9535 91.6831 77.7985 84.7408 84.7408C77.7985 91.6831 68.9535 96.4108 59.3243 98.3262C49.6951 100.242 39.7141 99.2585 30.6436 95.5014C21.5731 91.7442 13.8204 85.3818 8.36585 77.2185C2.91134 69.0553 3.62732e-07 59.4579 3.62732e-07 49.64C-0.000787738 43.121 1.28265 36.6656 3.77702 30.6427C6.27138 24.6197 9.9278 19.1471 14.5375 14.5375C19.1471 9.9278 24.6197 6.27138 30.6427 3.77702C36.6656 1.28265 43.121 -0.000787738 49.64 3.62732e-07V3.62732e-07Z" fill="#F2F1F0"/>
<path fill-rule="evenodd" clip-rule="evenodd" d="M92.7296 49.6401C92.7296 58.1625 90.2024 66.4935 85.4676 73.5796C80.7328 80.6657 74.0031 86.1887 66.1294 89.4501C58.2557 92.7114 49.5918 93.5648 41.2331 91.9021C32.8745 90.2395 25.1966 86.1356 19.1703 80.1093C13.1441 74.0831 9.04017 66.4052 7.37753 58.0465C5.7149 49.6879 6.56822 41.0239 9.8296 33.1503C13.091 25.2766 18.6139 18.5469 25.7 13.8121C32.7862 9.07727 41.1172 6.55009 49.6396 6.55009C55.2983 6.54974 60.9017 7.66407 66.1298 9.82942C71.3579 11.9948 76.1082 15.1687 80.1096 19.1701C84.1109 23.1714 87.2849 27.9218 89.4502 33.1499C91.6156 38.3779 92.7299 43.9813 92.7296 49.6401V49.6401ZM49.6396 2.81009C58.9017 2.81009 67.9558 5.55662 75.6569 10.7024C83.3581 15.8481 89.3604 23.162 92.9049 31.719C96.4493 40.2761 97.3767 49.692 95.5697 58.7762C93.7628 67.8603 89.3027 76.2046 82.7534 82.7539C76.2041 89.3032 67.8598 93.7633 58.7757 95.5703C49.6915 97.3772 40.2756 96.4498 31.7185 92.9054C23.1614 89.3609 15.8476 83.3586 10.7018 75.6574C5.5561 67.9563 2.80957 58.9022 2.80957 49.6401C2.81076 37.2204 7.745 25.3097 16.5271 16.5276C25.3091 7.7455 37.2198 2.81125 49.6396 2.81006V2.81009Z" fill="#0078D4"/>
<path fill-rule="evenodd" clip-rule="evenodd" d="M32.6045 28.1731C31.7611 28.1756 30.953 28.5117 30.3566 29.1081C29.7602 29.7044 29.4241 30.5126 29.4216 31.356V75.916C29.4241 76.7593 29.7602 77.5675 30.3566 78.1638C30.953 78.7602 31.7611 79.0963 32.6045 79.0988H62.8416C63.685 79.0965 64.4932 78.7604 65.0896 78.164C65.686 77.5676 66.0221 76.7594 66.0244 75.916V28.1731H32.6045Z" fill="white"/>
<path fill-rule="evenodd" clip-rule="evenodd" d="M58.0672 50.4531H37.3787C36.9573 50.4521 36.5536 50.2839 36.256 49.9856C35.9584 49.6873 35.7913 49.2831 35.7913 48.8617C35.7913 48.4403 35.9584 48.0361 36.256 47.7378C36.5536 47.4395 36.9573 47.2713 37.3787 47.2703H58.0672C58.2766 47.2697 58.4839 47.3105 58.6775 47.3903C58.871 47.47 59.0469 47.5871 59.1951 47.735C59.3433 47.8828 59.4609 48.0584 59.5411 48.2518C59.6214 48.4451 59.6627 48.6524 59.6627 48.8617C59.6627 49.071 59.6214 49.2783 59.5411 49.4716C59.4609 49.665 59.3433 49.8406 59.1951 49.9884C59.0469 50.1362 58.871 50.2534 58.6775 50.3331C58.4839 50.4129 58.2766 50.4536 58.0672 50.4531V50.4531Z" fill="#0078D4"/>
<path fill-rule="evenodd" clip-rule="evenodd" d="M58.0672 57.6145H37.3787C36.9573 57.6134 36.5536 57.4453 36.256 57.147C35.9584 56.8486 35.7913 56.4445 35.7913 56.0231C35.7913 55.6017 35.9584 55.1975 36.256 54.8992C36.5536 54.6008 36.9573 54.4327 37.3787 54.4316H58.0672C58.2766 54.4311 58.4839 54.4719 58.6775 54.5516C58.871 54.6314 59.0469 54.7485 59.1951 54.8963C59.3433 55.0442 59.4609 55.2198 59.5411 55.4131C59.6214 55.6065 59.6627 55.8137 59.6627 56.0231C59.6627 56.2324 59.6214 56.4397 59.5411 56.633C59.4609 56.8263 59.3433 57.002 59.1951 57.1498C59.0469 57.2976 58.871 57.4148 58.6775 57.4945C58.4839 57.5742 58.2766 57.615 58.0672 57.6145Z" fill="#50E6FF"/>
<path fill-rule="evenodd" clip-rule="evenodd" d="M58.0672 64.7759H37.3787C36.9573 64.7748 36.5536 64.6067 36.256 64.3083C35.9584 64.01 35.7913 63.6058 35.7913 63.1844C35.7913 62.7631 35.9584 62.3589 36.256 62.0605C36.5536 61.7622 36.9573 61.5941 37.3787 61.593H58.0672C58.2766 61.5925 58.4839 61.6333 58.6775 61.713C58.871 61.7928 59.0469 61.9099 59.1951 62.0577C59.3433 62.2056 59.4609 62.3812 59.5411 62.5745C59.6214 62.7679 59.6627 62.9751 59.6627 63.1844C59.6627 63.3938 59.6214 63.601 59.5411 63.7944C59.4609 63.9877 59.3433 64.1633 59.1951 64.3112C59.0469 64.459 58.871 64.5761 58.6775 64.6559C58.4839 64.7356 58.2766 64.7764 58.0672 64.7759Z" fill="#9CEBFF"/>
<path fill-rule="evenodd" clip-rule="evenodd" d="M58.0672 71.9372H37.3787C36.9573 71.9362 36.5536 71.7681 36.256 71.4697C35.9584 71.1714 35.7913 70.7672 35.7913 70.3458C35.7913 69.9244 35.9584 69.5203 36.256 69.2219C36.5536 68.9236 36.9573 68.7555 37.3787 68.7544H58.0672C58.2766 68.7539 58.4839 68.7946 58.6775 68.8744C58.871 68.9541 59.0469 69.0713 59.1951 69.2191C59.3433 69.3669 59.4609 69.5425 59.5411 69.7359C59.6214 69.9292 59.6627 70.1365 59.6627 70.3458C59.6627 70.5551 59.6214 70.7624 59.5411 70.9558C59.4609 71.1491 59.3433 71.3247 59.1951 71.4725C59.0469 71.6204 58.871 71.7375 58.6775 71.8173C58.4839 71.897 58.2766 71.9378 58.0672 71.9372Z" fill="#C3F1FF"/>
<path d="M40.3878 41.5888H38.8178C37.9986 41.5888 37.2129 41.2634 36.6337 40.6841C36.0544 40.1048 35.729 39.3192 35.729 38.5C35.729 37.6808 36.0544 36.8951 36.6337 36.3158C37.213 35.7366 37.9986 35.4111 38.8178 35.4111H40.3879" stroke="#B3B3B3" stroke-width="1.4071" stroke-miterlimit="10" stroke-linecap="round"/>
<path d="M45.1853 35.4111H46.7554C47.5746 35.4111 48.3602 35.7366 48.9395 36.3158C49.5188 36.8951 49.8442 37.6807 49.8442 38.4999C49.8442 39.3192 49.5188 40.1048 48.9395 40.6841C48.3602 41.2633 47.5746 41.5888 46.7554 41.5888H45.1853" stroke="#B3B3B3" stroke-width="1.4071" stroke-miterlimit="10" stroke-linecap="round"/>
<path d="M40.3879 38.5H45.1854" stroke="#B3B3B3" stroke-width="1.4071" stroke-miterlimit="10" stroke-linecap="round"/>
<path opacity="0.2" fill-rule="evenodd" clip-rule="evenodd" d="M66.0247 28.1731H52.1753V29.7502C52.1753 38.0964 56.0483 43.7653 64.7524 48.1403C65.1488 48.3334 65.5838 48.4342 66.0247 48.4353V28.1731Z" fill="#767676"/>
<path fill-rule="evenodd" clip-rule="evenodd" d="M66.0243 19.2273C63.7235 21.8624 59.6731 22.7372 55.0537 22.7372V29.7569C55.0537 36.9972 58.2613 41.6557 66.0243 45.5568C73.7874 41.6557 76.995 36.9972 76.995 29.7569V22.7372C72.3756 22.7372 68.3251 21.8624 66.0243 19.2273Z" fill="#C3F1FF"/>
<path fill-rule="evenodd" clip-rule="evenodd" d="M66.0247 19.2273V45.5568C73.7877 41.6557 76.9953 36.9972 76.9953 29.757V22.7372C72.3759 22.7372 68.3255 21.8624 66.0247 19.2273Z" fill="#9CEBFF"/>
<path fill-rule="evenodd" clip-rule="evenodd" d="M55.9323 23.5944V29.7536C55.9323 36.5529 58.8625 40.8736 66.0245 44.5755C73.1865 40.87 76.1168 36.5529 76.1168 29.75V23.5944C71.5045 23.4806 68.1831 22.4529 66.0245 20.4686C63.8624 22.4529 60.5445 23.4806 55.9323 23.5944ZM66.0245 46.4354C65.8877 46.4348 65.7527 46.4032 65.6298 46.3429C57.6 42.3067 54.1755 37.3424 54.1755 29.7501V22.7267C54.1755 22.6113 54.1982 22.4971 54.2423 22.3905C54.2864 22.2839 54.3511 22.1871 54.4327 22.1055C54.5143 22.0239 54.6111 21.9592 54.7177 21.9151C54.8243 21.871 54.9385 21.8483 55.0539 21.8483C60.1071 21.8483 63.4784 20.7993 65.3631 18.6372C65.4481 18.5471 65.5506 18.4753 65.6643 18.4262C65.7781 18.3771 65.9007 18.3518 66.0245 18.3518C66.1484 18.3518 66.271 18.3771 66.3847 18.4262C66.4985 18.4753 66.601 18.5471 66.686 18.6372C68.5707 20.7993 71.9419 21.8483 76.9952 21.8483C77.228 21.8488 77.4511 21.9415 77.6157 22.1062C77.7803 22.2708 77.873 22.4939 77.8735 22.7267V29.7501C77.8735 37.3424 74.449 42.3032 66.4193 46.3394C66.2972 46.4024 66.1619 46.4353 66.0245 46.4354V46.4354Z" fill="#1F56A3"/>
</g>
<defs>
<linearGradient id="paint0_linear" x1="47.8697" y1="-15.153" x2="51.8525" y2="130.615" gradientUnits="userSpaceOnUse">
<stop stop-color="#00ABDE"/>
<stop offset="1" stop-color="#007ED8"/>
</linearGradient>
<clipPath id="clip0">
<rect width="99.2799" height="99.28" fill="white"/>
</clipPath>
</defs>
</svg>
