<?xml version="1.0" encoding="UTF-8"?>
<svg width="100px" height="100px" viewBox="0 0 100 100" version="1.1" xmlns="http://www.w3.org/2000/svg" xmlns:xlink="http://www.w3.org/1999/xlink">
    <!-- Generator: Sketch 55.2 (78181) - https://sketchapp.com -->
    <title>Modern your enterprise deployment with Microsoft 365/manage-applications-with-microsoft-365</title>
    <desc>Created with Sketch.</desc>
    <defs>
        <rect id="path-1" x="0" y="0" width="96" height="96" rx="48"></rect>
    </defs>
    <g id="Badges" stroke="none" stroke-width="1" fill="none" fill-rule="evenodd">
        <g id="Modern-your-enterprise-deployment-with-Microsoft-365-1" transform="translate(-50.000000, -660.000000)">
            <g id="Modern-your-enterprise-deployment-with-Microsoft-365/manage-applications-with-microsoft-365" transform="translate(50.000000, 660.000000)">
                <g id="Mask" transform="translate(2.000000, 2.000000)">
                    <mask id="mask-2" fill="white">
                        <use xlink:href="#path-1"></use>
                    </mask>
                    <use id="BG" fill="#55A2FF" xlink:href="#path-1"></use>
                    <g id="Gear" mask="url(#mask-2)">
                        <g transform="translate(5.000000, 13.000000)">
                            <g id="Gear-Shape" stroke="none" stroke-width="1" fill-rule="evenodd">
                                <path d="M67.913865,43.5141492 L64.7262202,35.6620151 L67.8658205,31.7923481 C69.2340429,30.1055701 69.081554,27.6532143 67.5169761,26.1481697 L64.824398,23.5600361 C63.3078645,22.1009471 60.9432421,21.9985916 59.3065975,23.3187695 L55.4327527,26.4437475 L47.5847963,23.0012583 L47.1565741,18.0422356 C46.9685741,15.8812798 45.161685,14.2237463 42.9944626,14.2237463 L40.7606037,14.2237463 L40.7606037,28.0417477 C52.2975382,28.0417477 61.9918644,37.3937042 61.9918644,48.9306386 C61.9918644,60.4675731 52.2975382,69.8195296 40.7606037,69.8195296 L40.7606037,73.4291299 L54.5585526,73.4291299 L59.6585753,77.2110636 C61.3296866,78.4518637 63.6608868,78.2722193 65.1220647,76.789108 L67.6851316,74.1873967 C69.1692873,72.6823521 69.2946207,70.3072852 67.979665,68.652885 L64.7262202,64.5659735 L67.913865,56.6177505 L73.1350433,56.1602838 C75.2928657,55.9701949 76.9472659,54.1643502 76.9472659,51.9971278 L76.9472659,48.2486163 C76.9472659,46.116905 75.3429991,44.3267271 73.2238211,44.0948604 L67.913865,43.5141492 Z" id="Fill-3" fill="#30404D" transform="translate(58.853935, 46.128868) rotate(-315.000000) translate(-58.853935, -46.128868) "></path>
                                <path d="M33.2726683,42.7011807 C31.5765929,45.6248301 30.6055288,49.0213364 30.6055288,52.6446468 C30.6055288,58.4542515 33.1020195,63.6807695 37.0807364,67.3099363 L36.8940686,67.4936357 C36.8407197,67.4400334 25.3809699,78.9763218 25.4152977,79.0132103 L24.0951228,77.7561137 C22.9917668,76.6085303 22.5913586,74.1463165 23.9742032,72.5107163 L27.071123,68.4963277 L23.6819004,60.6880603 L18.707211,60.1950825 C16.5702775,59.9820158 14.9430329,58.1855712 14.9430329,56.0371487 L14.9430329,51.8645928 C14.9430329,49.7391481 16.5389442,47.9521035 18.650811,47.7129257 L23.6819004,47.1437034 L27.071123,39.2915693 L23.8667671,35.4083245 C22.4818336,33.731991 22.5123407,31.1680978 24.0727408,29.6515643 C27.4782543,34.4818554 30.5448968,38.8317276 33.2726683,42.7011807 Z" id="Combined-Shape" fill="#546670" transform="translate(25.983391, 54.332387) rotate(-45.000000) translate(-25.983391, -54.332387) "></path>
                                <path d="M43.1560309,55.5956788 C31.6190964,55.5956788 22.26714,46.2437223 22.26714,34.7067878 C22.26714,23.1698534 31.6190964,13.8178969 43.1560309,13.8178969 C54.6929653,13.8178969 64.0449218,23.1698534 64.0449218,34.7067878 C64.0449218,46.2437223 54.6929653,55.5956788 43.1560309,55.5956788 M69.9669224,29.2902984 L66.7792776,21.4381643 L69.9188779,17.5684973 C71.2871003,15.8827638 71.1346114,13.4293635 69.5700335,11.9243189 L66.8774554,9.33618536 C65.3609219,7.87709633 62.9962995,7.77474076 61.3596549,9.09596311 L57.4858101,12.2198967 L49.6378537,8.77740752 L49.2096315,3.81838482 C49.0216315,1.65742905 47.2147424,0.000940000092 45.04752,0.000940000092 L41.3376529,0.000940000092 C39.1986305,0.000940000092 37.4042748,1.61565127 37.1818081,3.74318481 L36.6564525,8.77740752 L28.6152739,12.2198967 L24.6829402,9.08134089 C23.0358511,7.76847409 20.6722731,7.88440744 19.1630508,9.35289647 L16.5446283,11.9013412 C14.9842281,13.4178746 14.8505392,15.878586 16.2354727,17.5549195 L19.4398286,21.4381643 L16.050606,29.2902984 L11.0195166,29.8595207 C8.90764976,30.0986985 7.31173849,31.8857431 7.31173849,34.0111878 L7.31173849,38.1837437 C7.31173849,40.3321662 8.9389831,42.1286108 11.0759166,42.3416775 L16.050606,42.8346553 L19.4398286,50.6429227 L16.219806,54.4478342 C14.8369615,56.0834344 14.9142503,58.4992346 16.3994505,60.0439681 L19.083673,62.8347239 C20.6127398,64.4222796 23.11314,64.5497019 24.7946958,63.1250795 L29.423674,59.2052791 L56.61161,59.2052791 L61.7116327,62.9872128 C63.382744,64.2280129 65.7139442,64.0483685 67.1751221,62.5652572 L69.738189,59.9635459 C71.2223447,58.4585013 71.3476781,56.0834344 70.031678,54.4290342 L66.7792776,50.3421227 L69.9669224,42.3938997 L75.1881007,41.936433 C77.3459231,41.7463441 79.0003233,39.9404995 79.0003233,37.7743215 L79.0003233,34.0247655 C79.0003233,31.8930542 77.3960565,30.1028763 75.2768785,29.8710096 L69.9669224,29.2902984 Z" id="Fill-1" fill="#546670"></path>
                                <path d="M69.9668179,29.2904029 L66.7791732,21.4382688 L69.9187735,17.5686017 C71.2869959,15.8818238 71.134507,13.429468 69.569929,11.9244234 L66.877351,9.3362898 C65.3608175,7.87720077 62.996195,7.7748452 61.3595504,9.09502311 L57.4857056,12.2200012 L49.6377493,8.77751197 L49.209527,3.81848926 C49.021527,1.6575335 47.2146379,-4.01456646e-13 45.0474155,-4.01456646e-13 L42.8135567,-4.01456646e-13 L42.8135567,13.8180014 C54.3504912,13.8180014 64.0448174,23.1699578 64.0448174,34.7068923 C64.0448174,46.2438267 54.3504912,55.5957832 42.8135567,55.5957832 L42.8135567,59.2053836 L56.6115055,59.2053836 L61.7115283,62.9873173 C63.3826395,64.2281174 65.7138398,64.0484729 67.1750177,62.5653617 L69.7380846,59.9636503 C71.2222403,58.4586057 71.3475736,56.0835388 70.032618,54.4291387 L66.7791732,50.3422271 L69.9668179,42.3940041 L75.1879962,41.9365374 C77.3458187,41.7464485 79.0002188,39.9406039 79.0002188,37.7733815 L79.0002188,34.02487 C79.0002188,31.8931587 77.395952,30.1029807 75.276774,29.871114 L69.9668179,29.2904029 Z" id="Fill-3" fill="#30404D"></path>
                            </g>
                            <ellipse id="Inside-Stroke-Left" stroke="#30404D" stroke-width="2" fill-rule="nonzero" cx="43.3444487" cy="34.9888923" rx="20.8888909" ry="20.3666687"></ellipse>
                            <path d="M42.8135567,55.355561 C54.3504912,55.355561 64.2333396,46.2374034 64.2333396,34.9888923 C64.2333396,24.8581263 56.2169905,16.45537 46.195701,14.885467 C45.0900346,14.7122568 43.9599619,14.6222237 42.8135567,14.6222237" id="Inside-Stroke-Right" stroke="#546670" stroke-width="2"></path>
                            <path d="M43.3195751,53.3503922 C53.368516,53.3503922 61.7504035,45.5158717 61.7504035,35.4753016 C61.7504035,25.4347315 53.0193106,17.6552876 42.9703697,17.6552876 C32.9214288,17.6552876 24.9415604,25.4751017 24.9415604,35.5156718 C24.9415604,45.5562419 33.2706342,53.3503922 43.3195751,53.3503922 Z" id="Oval" stroke="#55A2FF" stroke-width="2.5" fill-rule="nonzero"></path>
                        </g>
                    </g>
                    <circle id="Oval" fill="#FFFFFF" mask="url(#mask-2)" cx="48" cy="48" r="17"></circle>
                    <g id="microsoft" mask="url(#mask-2)" fill-rule="nonzero">
                        <g transform="translate(39.000000, 39.000000)" id="Rectangle-path">
                            <rect fill="#E86C60" x="0" y="0" width="7.875" height="7.875"></rect>
                            <polygon fill="#72C472" points="10.125 0 18 0 18 7.875 10.125 7.875"></polygon>
                            <polygon fill="#43A6DD" points="0 10.125 7.875 10.125 7.875 18 0 18"></polygon>
                            <polygon fill="#EFD358" points="10.125 10.125 18 10.125 18 18 10.125 18"></polygon>
                        </g>
                    </g>
                </g>
                <g id="Azure-Border" stroke="#0078D4" stroke-width="4">
                    <rect x="2" y="2" width="96" height="96" rx="48"></rect>
                </g>
            </g>
        </g>
    </g>
</svg>