<svg width="103" height="103" viewBox="0 0 103 103" fill="none" xmlns="http://www.w3.org/2000/svg">
<path d="M51.1044 97.8558C25.2544 97.8558 4.29443 76.9058 4.29443 51.0458C4.29443 25.1858 25.2544 4.23584 51.1044 4.23584C76.9544 4.23584 97.9144 25.1958 97.9144 51.0458C97.9144 76.8958 76.9544 97.8558 51.1044 97.8558Z" fill="url(#paint0_linear)"/>
<path fill-rule="evenodd" clip-rule="evenodd" d="M97.0044 51.046C97.0044 76.396 76.4544 96.946 51.1044 96.946C25.7544 96.946 5.20436 76.396 5.20436 51.046C5.20436 25.696 25.7544 5.14601 51.1044 5.14601C76.4544 5.14601 97.0044 25.696 97.0044 51.046ZM51.1044 1.40601C78.5244 1.40601 100.744 23.626 100.744 51.046C100.744 78.466 78.5144 100.686 51.1044 100.686C23.6844 100.686 1.46436 78.456 1.46436 51.046C1.46436 23.626 23.6844 1.40601 51.1044 1.40601Z" fill="#F2F1F0"/>
<path fill-rule="evenodd" clip-rule="evenodd" d="M94.1944 51.0458C94.1944 74.8458 74.9044 94.1358 51.1044 94.1358C27.3044 94.1358 8.01441 74.8458 8.01441 51.0458C8.01441 27.2458 27.3044 7.95582 51.1044 7.95582C74.9044 7.95582 94.1944 27.2458 94.1944 51.0458ZM51.1044 4.21582C76.9644 4.21582 97.9344 25.1858 97.9344 51.0458C97.9344 76.9058 76.9644 97.8758 51.1044 97.8758C25.2444 97.8758 4.27441 76.9058 4.27441 51.0458C4.27441 25.1858 25.2344 4.21582 51.1044 4.21582Z" fill="url(#paint1_linear)"/>
<path opacity="0.2" d="M32.8939 27.9058H20.8739C20.1439 27.9058 19.5439 28.4958 19.5439 29.2358V36.5958C19.5439 37.3258 20.1339 37.9258 20.8739 37.9258H32.9039C33.6339 37.9358 34.2339 37.3358 34.2339 36.6058V29.2458C34.2239 28.5058 33.6339 27.9058 32.8939 27.9058Z" fill="#1F1D21"/>
<path opacity="0.2" d="M32.8939 52.3958H20.8739C20.1439 52.3958 19.5439 52.9858 19.5439 53.7258V61.0858C19.5439 61.8158 20.1339 62.4158 20.8739 62.4158H32.9039C33.6339 62.4158 34.2339 61.8258 34.2339 61.0858V53.7458C34.2239 53.0058 33.6339 52.3958 32.8939 52.3958Z" fill="#1F1D21"/>
<path opacity="0.2" d="M32.8939 40.1357H20.8739C20.1439 40.1357 19.5439 40.7257 19.5439 41.4657V48.8257C19.5439 49.5557 20.1339 50.1557 20.8739 50.1557H32.9039C33.6339 50.1657 34.2339 49.5657 34.2339 48.8257V41.4657C34.2239 40.7357 33.6339 40.1357 32.8939 40.1357Z" fill="#1F1D21"/>
<path opacity="0.2" d="M32.8939 64.6257H20.8739C20.1439 64.6257 19.5439 65.2157 19.5439 65.9557V73.3157C19.5439 74.0457 20.1339 74.6457 20.8739 74.6457H32.9039C33.6339 74.6457 34.2339 74.0557 34.2339 73.3157V65.9557C34.2239 65.2257 33.6339 64.6257 32.8939 64.6257Z" fill="#1F1D21"/>
<path d="M41.5743 68.1357H24.9443V68.9357H41.5743V68.1357Z" fill="white"/>
<path d="M41.5743 56.0559H24.9443V56.8559H41.5743V56.0559Z" fill="white"/>
<path d="M41.5743 43.9758H24.9443V44.7758H41.5743V43.9758Z" fill="white"/>
<path d="M41.5743 31.8757H24.9443V32.6757H41.5743V31.8757Z" fill="white"/>
<path d="M32.8439 26.9558H20.8339C20.1039 26.9558 19.5039 27.5458 19.5039 28.2858V35.6458C19.5039 36.3758 20.0939 36.9758 20.8339 36.9758H32.8639C33.5939 36.9858 34.1939 36.3858 34.1939 35.6558V28.2858C34.1739 27.5458 33.5839 26.9558 32.8439 26.9558Z" fill="url(#paint2_linear)"/>
<path d="M32.8439 51.4458H20.8339C20.1039 51.4458 19.5039 52.0358 19.5039 52.7758V60.1358C19.5039 60.8658 20.0939 61.4658 20.8339 61.4658H32.8639C33.5939 61.4658 34.1939 60.8758 34.1939 60.1358V52.7758C34.1739 52.0358 33.5839 51.4458 32.8439 51.4458Z" fill="url(#paint3_linear)"/>
<path d="M32.8439 39.1758H20.8339C20.1039 39.1758 19.5039 39.7658 19.5039 40.5058V47.8658C19.5039 48.5958 20.0939 49.1958 20.8339 49.1958H32.8639C33.5939 49.2058 34.1939 48.6058 34.1939 47.8658V40.5058C34.1739 39.7658 33.5839 39.1758 32.8439 39.1758Z" fill="url(#paint4_linear)"/>
<path d="M32.8439 63.6758H20.8339C20.1039 63.6758 19.5039 64.2658 19.5039 65.0058V72.3658C19.5039 73.0958 20.0939 73.6958 20.8339 73.6958H32.8639C33.5939 73.6958 34.1939 73.1058 34.1939 72.3658V65.0058C34.1739 64.2758 33.5839 63.6758 32.8439 63.6758Z" fill="url(#paint5_linear)"/>
<path d="M29.6541 69.6057H28.3241C28.1341 69.6057 27.9941 69.7557 27.9941 69.9357C27.9941 70.1257 28.1441 70.2657 28.3241 70.2657H29.6541C29.8441 70.2657 29.9841 70.1257 29.9841 69.9357C29.9841 69.7657 29.8441 69.6057 29.6541 69.6057Z" fill="white"/>
<path d="M29.6544 66.9558H25.3144C25.1244 66.9558 24.9844 67.1058 24.9844 67.2858C24.9844 67.4758 25.1344 67.6158 25.3144 67.6158H29.6544C29.8444 67.6158 29.9844 67.4658 29.9844 67.2858C29.9844 67.1058 29.8444 66.9558 29.6544 66.9558Z" fill="white"/>
<path d="M29.654 68.2959H26.544C26.354 68.2959 26.644 68.4459 26.644 68.6259C26.644 68.8159 26.364 68.9359 26.544 68.9359H29.654C29.844 68.9359 29.984 68.8159 29.984 68.6259C29.984 68.4559 29.844 68.2959 29.654 68.2959Z" fill="white"/>
<path d="M29.6541 65.6157H23.9941C23.8041 65.6157 23.6641 65.7657 23.6641 65.9457V65.9557C23.6641 66.1457 23.8141 66.2857 23.9941 66.2857H29.6541C29.8441 66.2857 29.9841 66.1357 29.9841 65.9457C29.9841 65.7657 29.8441 65.6157 29.6541 65.6157Z" fill="white"/>
<path d="M23.9941 66.2757H24.6741C24.8641 66.2757 25.0041 66.1257 25.0041 65.9457C25.0041 65.7757 24.8541 65.6157 24.6741 65.6157H23.9941C23.8041 65.6157 23.6641 65.7657 23.6641 65.9457C23.6641 66.1257 23.8041 66.2757 23.9941 66.2757Z" fill="#50E6FF"/>
<path d="M23.9941 67.6158H25.3241C25.5141 67.6158 25.6541 67.4658 25.6541 67.2858C25.6541 67.0958 25.5041 66.9558 25.3241 66.9558H23.9941C23.8041 66.9558 23.6641 67.1058 23.6641 67.2858C23.6641 67.4658 23.8041 67.6158 23.9941 67.6158Z" fill="#45CAF2"/>
<path d="M23.9943 70.2757H28.3443C28.5343 70.2757 28.6743 70.1257 28.6743 69.9457C28.6743 69.7557 28.5243 69.6157 28.3443 69.6157H24.0043C23.8143 69.6157 23.6743 69.7657 23.6743 69.9457C23.6643 70.1257 23.8043 70.2757 23.9943 70.2757Z" fill="#0078D1"/>
<path d="M23.9941 68.9359H26.6741C26.8641 68.9359 27.0041 68.7859 27.0041 68.6059C27.0041 68.4159 26.8541 68.2759 26.6741 68.2759H23.9941C23.8041 68.2759 23.6641 68.4259 23.6641 68.6059C23.6641 68.7759 23.8041 68.9359 23.9941 68.9359Z" fill="#32B0E7"/>
<path d="M23.9941 71.6258H29.6541C29.8441 71.6258 29.9841 71.4758 29.9841 71.2858V71.2758C29.9841 71.0858 29.8341 70.9458 29.6541 70.9458H23.9941C23.8041 70.9458 23.6641 71.0958 23.6641 71.2758C23.6641 71.4658 23.8041 71.6258 23.9941 71.6258Z" fill="#185A97"/>
<path opacity="0.15" d="M26.8242 56.9358L30.1042 58.8558L26.8142 60.7658L23.5342 58.8558L26.8242 56.9358Z" fill="#1F1D20"/>
<path d="M26.8142 56.4957V60.3157L23.5342 58.3957V54.5857L26.8142 56.4957Z" fill="#ACF3FD"/>
<path d="M26.8242 52.6758L30.1042 54.5858L26.8142 56.4958L23.5342 54.5858L26.8242 52.6758Z" fill="white"/>
<path d="M30.1035 54.5857V58.3957L26.8135 60.3157V56.4957L30.1035 54.5857Z" fill="#45CAF2"/>
<path d="M26.8135 60.3058V56.4858L30.1035 58.3858L26.8135 60.3058Z" fill="#50E6FF"/>
<path d="M26.8142 60.3058V56.4858L23.5342 58.3758L26.8142 60.3058Z" fill="#84ECFD"/>
<g opacity="0.4">
<path opacity="0.4" d="M30.3341 46.1758C30.1841 46.0858 29.9741 46.0858 29.7841 46.1358L27.2941 44.7558C27.3341 44.6658 27.2941 44.5558 27.1741 44.4958C26.9841 44.3858 26.6841 44.3858 26.5141 44.4958C26.3641 44.5858 26.3241 44.7258 26.4441 44.8358L23.9041 46.1658C23.7141 46.0758 23.4441 46.0758 23.2841 46.1758C23.0941 46.2858 23.0941 46.4458 23.2841 46.5558C23.4041 46.6358 23.5641 46.6458 23.7241 46.6358L26.4141 48.1158C26.3241 48.2258 26.3341 48.3458 26.4941 48.4358C26.6841 48.5458 26.9841 48.5458 27.1541 48.4358C27.3041 48.3458 27.3441 48.2058 27.2241 48.0958L29.7641 46.5958C29.9541 46.6758 30.1941 46.6658 30.3541 46.5658C30.5341 46.4558 30.5341 46.2758 30.3341 46.1758Z" fill="#1F1D21"/>
</g>
<g opacity="0.25">
<path opacity="0.25" d="M23.7842 42.4258L26.8242 40.6458L29.8642 42.3958L26.8242 44.1758L23.7842 42.4258Z" fill="#1E9FE0"/>
</g>
<g opacity="0.25">
<path opacity="0.25" d="M23.7539 45.9458L26.8239 44.1658L29.8339 45.9158L26.7939 47.6958L23.7539 45.9458Z" fill="#1E9FE0"/>
</g>
<g opacity="0.05">
<path opacity="0.05" d="M26.8239 44.1758L26.7939 47.6958L29.8339 45.9158L29.8639 42.3958L26.8239 44.1758Z" fill="#1E9FE0"/>
</g>
<g opacity="0.05">
<path opacity="0.05" d="M23.7839 42.4258L23.7539 45.9458L26.8239 44.1658V40.6458L23.7839 42.4258Z" fill="#1E9FE0"/>
</g>
<path d="M26.8442 44.1857C26.8442 44.1857 26.8342 44.1857 26.8442 44.1857L23.7942 42.4357C23.7842 42.4357 23.7842 42.4257 23.7842 42.4257C23.7842 42.4157 23.7842 42.4157 23.7942 42.4157L26.8342 40.6357C26.8442 40.6357 26.8442 40.6357 26.8542 40.6357L29.8942 42.3857C29.9042 42.3857 29.9042 42.3957 29.9042 42.3957C29.9042 42.4057 29.9042 42.4057 29.8942 42.4057L26.8442 44.1857C26.8442 44.1857 26.8542 44.1857 26.8442 44.1857ZM23.8442 42.4257L26.8442 44.1557L29.8442 42.3957L26.8442 40.6657L23.8442 42.4257Z" fill="#50E6FF"/>
<path d="M26.8139 47.7058L23.7639 45.9558C23.7539 45.9558 23.7539 45.9458 23.7539 45.9458C23.7539 45.9358 23.7539 45.9358 23.7639 45.9358L26.8339 44.1558C26.8439 44.1558 26.8439 44.1558 26.8539 44.1558L29.8639 45.9058C29.8739 45.9058 29.8739 45.9158 29.8739 45.9158C29.8739 45.9158 29.8739 45.9258 29.8639 45.9258L26.8139 47.7058C26.8239 47.7058 26.8239 47.7058 26.8139 47.7058ZM23.8139 45.9458L26.8139 47.6758L29.8139 45.9158L26.8439 44.1858L23.8139 45.9458Z" fill="#50E6FF"/>
<path d="M26.8139 47.7057C26.8139 47.7057 26.8039 47.7057 26.8139 47.7057C26.8039 47.6957 26.7939 47.6957 26.7939 47.6857L26.8239 44.1657C26.8239 44.1557 26.8239 44.1557 26.8339 44.1557L29.8739 42.3757C29.8839 42.3757 29.8839 42.3757 29.8939 42.3757C29.9039 42.3757 29.9039 42.3857 29.9039 42.3957L29.8739 45.9157C29.8739 45.9257 29.8739 45.9257 29.8639 45.9257L26.8139 47.7057C26.8139 47.7057 26.8239 47.7057 26.8139 47.7057ZM26.8639 44.1857L26.8339 47.6657L29.8339 45.9157L29.8639 42.4357L26.8639 44.1857Z" fill="white"/>
<path d="M23.7739 45.9657C23.7639 45.9557 23.7539 45.9557 23.7539 45.9457L23.7839 42.4257C23.7839 42.4157 23.7839 42.4157 23.7939 42.4157L26.8339 40.6357C26.8439 40.6357 26.8439 40.6357 26.8539 40.6357C26.8639 40.6357 26.8639 40.6457 26.8639 40.6457V44.1657C26.8639 44.1757 26.8639 44.1757 26.8539 44.1757L23.7739 45.9657C23.7839 45.9657 23.7839 45.9657 23.7739 45.9657ZM23.8239 42.4357L23.7939 45.9157L26.8239 44.1557V40.6757L23.8239 42.4357Z" fill="white"/>
<path d="M26.8442 44.1857C26.8442 44.1857 26.8342 44.1857 26.8442 44.1857L23.7942 42.4357C23.7842 42.4357 23.7842 42.4257 23.7842 42.4257C23.7842 42.4157 23.7842 42.4157 23.7942 42.4157L26.8342 40.6357C26.8442 40.6357 26.8442 40.6357 26.8542 40.6357L29.8942 42.3857C29.9042 42.3857 29.9042 42.3957 29.9042 42.3957C29.9042 42.4057 29.9042 42.4057 29.8942 42.4057L26.8442 44.1857C26.8442 44.1857 26.8542 44.1857 26.8442 44.1857ZM23.8442 42.4257L26.8442 44.1557L29.8442 42.3957L26.8442 40.6657L23.8442 42.4257Z" fill="white"/>
<path d="M26.8139 47.7058L23.7639 45.9558C23.7539 45.9558 23.7539 45.9458 23.7539 45.9458C23.7539 45.9358 23.7539 45.9358 23.7639 45.9358L26.8339 44.1558C26.8439 44.1558 26.8439 44.1558 26.8539 44.1558L29.8639 45.9058C29.8739 45.9058 29.8739 45.9158 29.8739 45.9158C29.8739 45.9158 29.8739 45.9258 29.8639 45.9258L26.8139 47.7058C26.8239 47.7058 26.8239 47.7058 26.8139 47.7058ZM23.8139 45.9458L26.8139 47.6758L29.8139 45.9158L26.8439 44.1858L23.8139 45.9458Z" fill="white"/>
<path d="M29.8337 42.7358C29.6837 42.7358 29.5537 42.6058 29.5537 42.4558C29.5537 42.3058 29.6837 42.1758 29.8337 42.1758C29.9837 42.1758 30.1037 42.3058 30.1037 42.4558C30.1037 42.5958 29.9837 42.7358 29.8337 42.7358Z" fill="#50E6FF"/>
<path d="M29.8137 42.3158C29.8837 42.3158 29.9337 42.3658 29.9337 42.4358C29.9337 42.5058 29.8837 42.5658 29.8137 42.5658C29.7437 42.5658 29.6937 42.5158 29.6937 42.4458C29.6937 42.3758 29.7537 42.3158 29.8137 42.3158ZM29.8137 42.1458C29.6637 42.1458 29.5137 42.2758 29.5137 42.4458C29.5137 42.5958 29.6437 42.7458 29.8137 42.7458C29.9737 42.7458 30.1137 42.6158 30.1137 42.4458C30.1137 42.2858 29.9837 42.1458 29.8137 42.1458Z" fill="white"/>
<path d="M26.8435 44.4758C26.6935 44.4758 26.5635 44.3458 26.5635 44.1958C26.5635 44.0458 26.6935 43.9158 26.8435 43.9158C26.9935 43.9158 27.1135 44.0458 27.1135 44.1958C27.1135 44.3258 26.9935 44.4758 26.8435 44.4758Z" fill="#50E6FF"/>
<path d="M26.8439 44.0558C26.9139 44.0558 26.9639 44.1058 26.9639 44.1758C26.9639 44.2458 26.9139 44.2958 26.8439 44.2958C26.7739 44.2958 26.7239 44.2458 26.7239 44.1758C26.7139 44.1158 26.7639 44.0558 26.8439 44.0558ZM26.8439 43.8958C26.6939 43.8958 26.5439 44.0258 26.5439 44.1958C26.5439 44.3458 26.6739 44.4958 26.8439 44.4958C26.9939 44.4958 27.1439 44.3658 27.1439 44.1958C27.1239 44.0258 26.9939 43.8958 26.8439 43.8958Z" fill="white"/>
<path d="M26.8435 40.9558C26.6935 40.9558 26.5635 40.8258 26.5635 40.6758C26.5635 40.5258 26.6935 40.3958 26.8435 40.3958C26.9935 40.3958 27.1135 40.5258 27.1135 40.6758C27.1135 40.8158 26.9935 40.9558 26.8435 40.9558Z" fill="#50E6FF"/>
<path d="M26.8439 40.5457C26.9139 40.5457 26.9639 40.5957 26.9639 40.6657C26.9639 40.7357 26.9139 40.7857 26.8439 40.7857C26.7739 40.7857 26.7239 40.7357 26.7239 40.6657C26.7139 40.6057 26.7639 40.5457 26.8439 40.5457ZM26.8439 40.3857C26.6939 40.3857 26.5439 40.5157 26.5439 40.6857C26.5439 40.8557 26.6739 40.9857 26.8439 40.9857C26.9939 40.9857 27.1439 40.8557 27.1439 40.6857C27.1439 40.5157 26.9939 40.3857 26.8439 40.3857Z" fill="white"/>
<path d="M23.7839 42.7358C23.6339 42.7358 23.5039 42.6058 23.5039 42.4558C23.5039 42.3058 23.6339 42.1758 23.7839 42.1758C23.9339 42.1758 24.0539 42.3058 24.0539 42.4558C24.0539 42.5958 23.9339 42.7358 23.7839 42.7358Z" fill="#50E6FF"/>
<path d="M23.7736 42.3158C23.8436 42.3158 23.8936 42.3658 23.8936 42.4358C23.8936 42.5058 23.8436 42.5658 23.7736 42.5658C23.7036 42.5658 23.6536 42.5158 23.6536 42.4458C23.6536 42.3758 23.7036 42.3158 23.7736 42.3158ZM23.7736 42.1458C23.6236 42.1458 23.4736 42.2758 23.4736 42.4458C23.4736 42.5958 23.6036 42.7458 23.7736 42.7458C23.9236 42.7458 24.0736 42.6158 24.0736 42.4458C24.0636 42.2858 23.9336 42.1458 23.7736 42.1458Z" fill="white"/>
<path d="M23.7839 46.2358C23.6339 46.2358 23.5039 46.1058 23.5039 45.9558C23.5039 45.8058 23.6339 45.6758 23.7839 45.6758C23.9339 45.6758 24.0539 45.8058 24.0539 45.9558C24.0539 46.1058 23.9339 46.2358 23.7839 46.2358Z" fill="#50E6FF"/>
<path d="M23.7736 45.8258C23.8436 45.8258 23.8936 45.8758 23.8936 45.9458C23.8936 46.0158 23.8436 46.0658 23.7736 46.0658C23.7036 46.0658 23.6536 46.0158 23.6536 45.9458C23.6536 45.8858 23.7036 45.8258 23.7736 45.8258ZM23.7736 45.6558C23.6236 45.6558 23.4736 45.7858 23.4736 45.9558C23.4736 46.1058 23.6036 46.2558 23.7736 46.2558C23.9236 46.2558 24.0736 46.1258 24.0736 45.9558C24.0636 45.7958 23.9336 45.6558 23.7736 45.6558Z" fill="white"/>
<path d="M26.8435 47.9858C26.6935 47.9858 26.5635 47.8558 26.5635 47.7058C26.5635 47.5558 26.6935 47.4258 26.8435 47.4258C26.9935 47.4258 27.1135 47.5558 27.1135 47.7058C27.1135 47.8358 26.9935 47.9858 26.8435 47.9858Z" fill="#50E6FF"/>
<path d="M26.8439 47.5658C26.9139 47.5658 26.9639 47.6158 26.9639 47.6858C26.9639 47.7558 26.9139 47.8058 26.8439 47.8058C26.7739 47.8058 26.7239 47.7558 26.7239 47.6858C26.7139 47.6258 26.7639 47.5658 26.8439 47.5658ZM26.8439 47.3958C26.6939 47.3958 26.5439 47.5258 26.5439 47.6958C26.5439 47.8458 26.6739 47.9958 26.8439 47.9958C26.9939 47.9958 27.1439 47.8658 27.1439 47.6958C27.1239 47.5358 26.9939 47.3958 26.8439 47.3958Z" fill="white"/>
<path d="M29.8337 46.2358C29.6837 46.2358 29.5537 46.1058 29.5537 45.9558C29.5537 45.8058 29.6837 45.6758 29.8337 45.6758C29.9837 45.6758 30.1037 45.8058 30.1037 45.9558C30.1037 46.1058 29.9837 46.2358 29.8337 46.2358Z" fill="#50E6FF"/>
<path d="M29.8137 45.8258C29.8837 45.8258 29.9337 45.8758 29.9337 45.9458C29.9337 46.0158 29.8837 46.0658 29.8137 46.0658C29.7437 46.0658 29.6937 46.0158 29.6937 45.9458C29.6937 45.8858 29.7537 45.8258 29.8137 45.8258ZM29.8137 45.6558C29.6637 45.6558 29.5137 45.7858 29.5137 45.9558C29.5137 46.1058 29.6437 46.2558 29.8137 46.2558C29.9737 46.2558 30.1137 46.1258 30.1137 45.9558C30.1137 45.7958 29.9837 45.6558 29.8137 45.6558Z" fill="white"/>
<path opacity="0.2" d="M26.8243 28.9058C24.8143 28.9058 23.1943 30.5358 23.1943 32.5358C23.1943 34.5458 24.8243 36.1658 26.8243 36.1658C28.8343 36.1658 30.4543 34.5358 30.4543 32.5358C30.4543 30.5358 28.8243 28.9058 26.8243 28.9058ZM26.8243 34.2358C25.8943 34.2358 25.1343 33.4658 25.1343 32.5458C25.1343 31.6158 25.9043 30.8558 26.8243 30.8558C27.7443 30.8558 28.5143 31.6258 28.5143 32.5458C28.5143 33.4758 27.7543 34.2358 26.8243 34.2358Z" fill="#1F1D21"/>
<path d="M26.8243 28.4358C24.8143 28.4358 23.1943 30.0658 23.1943 32.0658C23.1943 34.0758 24.8243 35.6958 26.8243 35.6958C28.8343 35.6958 30.4543 34.0658 30.4543 32.0658C30.4543 30.0458 28.8243 28.4358 26.8243 28.4358ZM26.8243 33.7558C25.8943 33.7558 25.1343 32.9858 25.1343 32.0658C25.1343 31.1358 25.9043 30.3758 26.8243 30.3758C27.7443 30.3758 28.5143 31.1458 28.5143 32.0658C28.5143 32.9958 27.7543 33.7558 26.8243 33.7558Z" fill="white"/>
<path d="M26.8237 30.3658L26.8137 28.4258C25.5337 28.4258 24.4237 29.0958 23.7637 30.0958L25.3637 31.2158C25.6437 30.7058 26.1837 30.3658 26.8237 30.3658Z" fill="#3BCAF4"/>
<path d="M25.1236 32.0657C25.1236 31.7557 25.2136 31.4657 25.3536 31.2257L23.7636 30.1057L23.7536 30.1157C23.3936 30.6757 23.1836 31.3357 23.1836 32.0657C23.1836 32.6057 23.3036 33.1057 23.5136 33.5657L25.2836 32.7757C25.1836 32.5657 25.1236 32.3157 25.1236 32.0657Z" fill="#50E6FF"/>
<path opacity="0.15" d="M78.7141 26.7158H40.0041C39.1641 26.7158 38.4941 27.3958 38.4941 28.2258V78.7258C38.4941 79.5658 39.1741 80.2358 40.0041 80.2358H78.7141C79.5541 80.2358 80.2241 79.5558 80.2241 78.7258V28.2258C80.2041 27.3958 79.5341 26.7158 78.7141 26.7158Z" fill="#1F1D20"/>
<path d="M78.7141 24.856H40.0041C39.1641 24.856 38.4941 25.536 38.4941 26.366V76.866C38.4941 77.706 39.1741 78.376 40.0041 78.376H78.7141C79.5541 78.376 80.2241 77.696 80.2241 76.866V26.366C80.2041 25.526 79.5341 24.856 78.7141 24.856Z" fill="#F2F2F2"/>
<path fill-rule="evenodd" clip-rule="evenodd" d="M61.9646 17.8959C63.4246 18.6659 64.2746 20.2159 64.2746 21.8559V22.2559C64.2746 22.4059 64.2646 22.5459 64.2546 22.6959H67.4046C68.3446 22.6959 69.2246 23.1659 69.6946 23.9759C71.0246 26.2959 69.3946 28.6659 67.1846 28.6659H51.3146C50.3746 28.6659 49.4946 28.1959 49.0246 27.3859C47.6946 25.0659 49.3246 22.6959 51.5346 22.6959H54.4646C54.4546 22.5659 54.4546 22.4059 54.4546 22.2559V22.1359C54.4546 18.5859 58.2246 15.9159 61.9646 17.8959Z" fill="url(#paint6_linear)"/>
<path d="M59.364 24.436C60.484 24.436 61.394 23.536 61.394 22.406C61.394 21.286 60.494 20.376 59.364 20.376C58.244 20.376 57.334 21.276 57.334 22.406C57.334 23.536 58.244 24.436 59.364 24.436Z" fill="#F2F2F2"/>
<g opacity="0.2">
<path opacity="0.2" d="M52.2442 60.8059C51.2242 60.8159 50.4042 61.6559 50.4142 62.6759C50.4242 63.3259 50.7742 63.9259 51.3342 64.2559L57.8642 67.9559C58.4042 68.2559 59.0042 68.4259 59.6242 68.4259C59.9542 68.4259 60.2942 68.3759 60.6042 68.2859L70.4242 65.4859C71.9342 65.0559 72.9642 63.6759 72.9742 62.1159V60.8159H52.2442V60.8059Z" fill="white"/>
</g>
<g opacity="0.12">
<path opacity="0.12" d="M52.2442 60.8059C51.2242 60.8159 50.4042 61.6559 50.4142 62.6759C50.4242 63.3259 50.7742 63.9259 51.3342 64.2559L57.8642 67.9559C58.4042 68.2559 59.0042 68.4259 59.6242 68.4259C59.9542 68.4259 60.2942 68.3759 60.6042 68.2859L70.4242 65.4859C71.9342 65.0559 72.9642 63.6759 72.9742 62.1159V60.8159H52.2442V60.8059Z" fill="white"/>
</g>
<path d="M60.5645 33.7859L63.2045 39.8259V60.8059L60.6045 68.2759L70.4245 65.4759C71.9345 65.0459 72.9645 63.6659 72.9745 62.1059V39.9659C72.9745 38.3959 71.9345 37.0159 70.4245 36.5859L60.5645 33.7859Z" fill="url(#paint7_linear)"/>
<path d="M48.1145 60.586L50.9845 59.036C51.7845 58.596 52.2845 57.746 52.2845 56.836V45.536C52.2845 44.486 52.9445 43.546 53.9345 43.176L63.2045 39.826V37.276C63.2045 35.656 62.1245 34.226 60.5645 33.786C60.2445 33.696 59.9045 33.646 59.5745 33.646C58.9445 33.646 58.3245 33.816 57.7745 34.126L47.1645 40.176C46.0745 40.806 45.3945 41.966 45.3945 43.226V58.956C45.3945 59.976 46.2145 60.806 47.2345 60.806C47.5345 60.806 47.8445 60.726 48.1145 60.586Z" fill="url(#paint8_linear)"/>
<path d="M63.2042 60.8059H52.2442C51.2242 60.8159 50.4042 61.6559 50.4142 62.6759C50.4242 63.3259 50.7742 63.9259 51.3342 64.2559L57.8642 67.9559C58.4042 68.2559 59.0042 68.4259 59.6242 68.4259C59.9542 68.4259 60.2942 68.3759 60.6042 68.2859C62.1442 67.8459 63.2042 66.4359 63.2042 64.8359V60.8059Z" fill="url(#paint9_linear)"/>
<path d="M48.1145 60.586L50.9845 59.036C51.7845 58.596 52.2845 57.746 52.2845 56.836V45.536C52.2845 44.486 52.9445 43.546 53.9345 43.176L63.2045 39.826V37.276C63.2045 35.656 62.1245 34.226 60.5645 33.786C60.2445 33.696 59.9045 33.646 59.5745 33.646C58.9445 33.646 58.3245 33.816 57.7745 34.126L47.1645 40.176C46.0745 40.806 45.3945 41.966 45.3945 43.226V58.956C45.3945 59.976 46.2145 60.806 47.2345 60.806C47.5345 60.806 47.8445 60.726 48.1145 60.586Z" fill="url(#paint10_linear)"/>
<path d="M63.2042 60.8059H52.2442C51.2242 60.8159 50.4042 61.6559 50.4142 62.6759C50.4242 63.3259 50.7742 63.9259 51.3342 64.2559L57.8642 67.9559C58.4042 68.2559 59.0042 68.4259 59.6242 68.4259C59.9542 68.4259 60.2942 68.3759 60.6042 68.2859C62.1442 67.8459 63.2042 66.4359 63.2042 64.8359V60.8059Z" fill="url(#paint11_linear)"/>
<path d="M70.5541 69.7159C73.6241 69.7159 76.1141 67.2259 76.1141 64.1559C76.1141 61.0859 73.6241 58.5959 70.5541 58.5959C67.4841 58.5959 64.9941 61.0859 64.9941 64.1559C64.9941 67.2259 67.4841 69.7159 70.5541 69.7159Z" fill="#002D4C"/>
<path d="M73.5841 61.3159L68.9941 65.9159L67.6241 64.5359L66.7041 65.4559L68.9941 67.7559L74.5041 62.2359L73.5841 61.3159Z" fill="#FAF9F8"/>
<defs>
<linearGradient id="paint0_linear" x1="49.3349" y1="-13.7437" x2="53.3169" y2="132.026" gradientUnits="userSpaceOnUse">
<stop stop-color="#00ABDE"/>
<stop offset="1" stop-color="#007ED8"/>
</linearGradient>
<linearGradient id="paint1_linear" x1="2.53761" y1="-20.5787" x2="98.0652" y2="120.302" gradientUnits="userSpaceOnUse">
<stop stop-color="#007ED8"/>
<stop offset="0.7065" stop-color="#002D4C"/>
</linearGradient>
<linearGradient id="paint2_linear" x1="12.1136" y1="9.39691" x2="52.5283" y2="71.3515" gradientUnits="userSpaceOnUse">
<stop stop-color="#007ED8"/>
<stop offset="0.7065" stop-color="#002D4C"/>
</linearGradient>
<linearGradient id="paint3_linear" x1="0.905406" y1="16.7079" x2="41.3201" y2="78.6625" gradientUnits="userSpaceOnUse">
<stop stop-color="#007ED8"/>
<stop offset="0.7065" stop-color="#002D4C"/>
</linearGradient>
<linearGradient id="paint4_linear" x1="6.51951" y1="13.0463" x2="46.9343" y2="75.0009" gradientUnits="userSpaceOnUse">
<stop stop-color="#007ED8"/>
<stop offset="0.7065" stop-color="#002D4C"/>
</linearGradient>
<linearGradient id="paint5_linear" x1="-4.68989" y1="20.3583" x2="35.725" y2="82.3129" gradientUnits="userSpaceOnUse">
<stop stop-color="#007ED8"/>
<stop offset="0.7065" stop-color="#002D4C"/>
</linearGradient>
<linearGradient id="paint6_linear" x1="40.1906" y1="1.99207" x2="85.4439" y2="57.8871" gradientUnits="userSpaceOnUse">
<stop stop-color="#007ED8"/>
<stop offset="0.7065" stop-color="#002D4C"/>
</linearGradient>
<linearGradient id="paint7_linear" x1="66.7736" y1="31.8238" x2="66.7736" y2="65.8628" gradientUnits="userSpaceOnUse">
<stop stop-color="#FFB900"/>
<stop offset="0.17" stop-color="#EF8400"/>
<stop offset="0.31" stop-color="#E25C01"/>
<stop offset="0.43" stop-color="#DB4401"/>
<stop offset="0.5" stop-color="#D83B01"/>
</linearGradient>
<linearGradient id="paint8_linear" x1="60.6345" y1="33.0275" x2="42.6091" y2="58.7667" gradientUnits="userSpaceOnUse">
<stop stop-color="#800600"/>
<stop offset="0.6" stop-color="#C72127"/>
<stop offset="0.73" stop-color="#C13959"/>
<stop offset="0.85" stop-color="#BC4B81"/>
<stop offset="0.94" stop-color="#B95799"/>
<stop offset="1" stop-color="#B85BA2"/>
</linearGradient>
<linearGradient id="paint9_linear" x1="51.4231" y1="64.6138" x2="74.9549" y2="64.6138" gradientUnits="userSpaceOnUse">
<stop stop-color="#F32B44"/>
<stop offset="0.6" stop-color="#A4070A"/>
</linearGradient>
<linearGradient id="paint10_linear" x1="61.0026" y1="32.5045" x2="57.186" y2="37.9537" gradientUnits="userSpaceOnUse">
<stop stop-opacity="0.4"/>
<stop offset="1" stop-opacity="0"/>
</linearGradient>
<linearGradient id="paint11_linear" x1="67.4137" y1="65.1441" x2="56.878" y2="64.2242" gradientUnits="userSpaceOnUse">
<stop stop-opacity="0.4"/>
<stop offset="1" stop-opacity="0"/>
</linearGradient>
</defs>
</svg>
