<svg width="103" height="103" viewBox="0 0 103 103" fill="none" xmlns="https://www.w3.org/2000/svg">
<path d="M51.9333 97.9292C26.0833 97.9292 5.12329 76.9792 5.12329 51.1192C5.12329 25.2592 26.0833 4.3092 51.9333 4.3092C77.7833 4.3092 98.7433 25.2692 98.7433 51.1192C98.7433 76.9692 77.7833 97.9292 51.9333 97.9292Z" fill="url(#paint0_linear)"/>
<path fill-rule="evenodd" clip-rule="evenodd" d="M97.8335 51.1192C97.8335 76.4692 77.2835 97.0192 51.9335 97.0192C26.5835 97.0192 6.03346 76.4692 6.03346 51.1192C6.03346 25.7692 26.5835 5.21919 51.9335 5.21919C77.2835 5.21919 97.8335 25.7692 97.8335 51.1192ZM51.9335 1.47919C79.3535 1.47919 101.573 23.6992 101.573 51.1192C101.573 78.5392 79.3435 100.759 51.9335 100.759C24.5135 100.759 2.29346 78.5292 2.29346 51.1192C2.29346 23.6992 24.5135 1.47919 51.9335 1.47919Z" fill="#F2F1F0"/>
<path fill-rule="evenodd" clip-rule="evenodd" d="M95.0233 51.1192C95.0233 74.9192 75.7333 94.2092 51.9333 94.2092C28.1333 94.2092 8.84327 74.9192 8.84327 51.1192C8.84327 27.3192 28.1333 8.02918 51.9333 8.02918C75.7333 8.02918 95.0233 27.3192 95.0233 51.1192ZM51.9333 4.28918C77.7933 4.28918 98.7633 25.2592 98.7633 51.1192C98.7633 76.9792 77.7933 97.9492 51.9333 97.9492C26.0733 97.9492 5.10327 76.9792 5.10327 51.1192C5.10327 25.2592 26.0633 4.28918 51.9333 4.28918Z" fill="#0078D4"/>
<path d="M52.0732 51.2091C51.9632 51.1391 51.7932 51.0391 51.7932 51.0391C51.8732 51.1191 51.9732 51.1791 52.0732 51.2091Z" fill="#F2F1F0"/>
<path d="M51.9031 51.0992C52.0031 51.1592 51.9831 51.1392 51.9031 51.0992V51.0992Z" fill="#F2F1F0"/>
<path d="M51.7932 51.0291C51.9032 51.0991 52.0832 51.2091 52.0832 51.2091C52.0032 51.1191 51.9032 51.0591 51.7932 51.0291Z" fill="#F2F1F0"/>
<path d="M51.9734 51.1392C51.8634 51.0792 51.8834 51.0992 51.9734 51.1392V51.1392Z" fill="#F2F1F0"/>
<g opacity="0.15">
<path opacity="0.15" d="M62.6032 80.2292C74.4132 75.7992 82.3532 64.3692 82.3532 51.7592C82.3532 39.6492 75.1732 28.6892 64.0632 23.8692C63.8232 23.7692 63.7432 23.5592 63.7232 23.4492C63.7032 23.3592 63.6732 23.1092 63.8632 22.8792L64.9332 21.6492C65.7932 20.6692 67.2632 20.4092 68.4232 21.0392C79.7432 27.1292 86.7932 38.9092 86.7932 51.7692C86.7932 66.2792 77.6232 79.4092 63.9832 84.4292L62.6732 84.9092L64.3932 89.8892C64.5132 90.2292 64.2132 90.5792 63.8632 90.5092L50.0132 87.9492C49.4432 87.8392 49.2132 87.1592 49.5932 86.7292L58.9032 76.1192C59.1432 75.8492 59.5932 75.9292 59.7132 76.2792L61.2432 80.7592L62.6032 80.2292Z" fill="#1F1D20"/>
<path opacity="0.15" d="M47.0731 27.4792C46.8331 27.7492 46.3931 27.6592 46.2731 27.3192L44.4931 22.2692L43.1931 22.6592C30.4331 26.4792 21.5131 38.4592 21.5131 51.7692C21.5131 65.1092 30.4531 77.0892 43.2431 80.8892C43.5431 80.9792 43.6431 81.1992 43.6731 81.3192C43.6831 81.3692 43.7031 81.4292 43.7031 81.4992C43.7031 81.6192 43.6631 81.7692 43.5431 81.9092L42.2431 83.3992C41.4631 84.2992 40.1631 84.5892 39.0231 84.1292C25.5331 78.7492 16.8831 65.8192 17.0731 51.2892C17.2731 35.9892 27.7831 22.7292 42.3931 18.2092L43.0031 18.0192L41.4631 13.6592C41.3431 13.3192 41.6431 12.9692 42.0131 13.0392L56.0631 15.7092C56.6331 15.8192 56.8631 16.4992 56.4831 16.9492L47.0731 27.4792Z" fill="#1F1D20"/>
</g>
<path d="M62.6032 78.8992C74.4132 74.4692 82.3532 63.0392 82.3532 50.4292C82.3532 38.3192 75.1732 27.3592 64.0632 22.5392C63.8232 22.4392 63.7432 22.2292 63.7232 22.1192C63.7032 22.0292 63.6732 21.7792 63.8632 21.5492L64.9332 20.3192C65.7932 19.3392 67.2632 19.0792 68.4232 19.7092C79.7432 25.7892 86.7932 37.5692 86.7932 50.4292C86.7932 64.9392 77.6232 78.0692 63.9832 83.0892L62.6732 83.5692L64.3932 88.5492C64.5132 88.8892 64.2132 89.2392 63.8632 89.1692L50.0132 86.6092C49.4432 86.4992 49.2132 85.8192 49.5932 85.3892L58.8932 74.7792C59.1332 74.5092 59.5832 74.5892 59.7032 74.9392L61.2332 79.4192L62.6032 78.8992Z" fill="#F2F1F0"/>
<path d="M47.0731 26.1492C46.8331 26.4192 46.3931 26.3292 46.2731 25.9892L44.4931 20.9392L43.1931 21.3292C30.4331 25.1392 21.5131 37.1192 21.5131 50.4392C21.5131 63.7792 30.4531 75.7592 43.2431 79.5592C43.5431 79.6492 43.6431 79.8692 43.6731 79.9892C43.6831 80.0392 43.7031 80.0992 43.7031 80.1692C43.7031 80.2892 43.6631 80.4392 43.5431 80.5792L42.2431 82.0692C41.4631 82.9692 40.1631 83.2592 39.0231 82.7992C25.5331 77.4092 16.8831 64.4892 17.0731 49.9592C17.2731 34.6792 27.7831 21.4192 42.3931 16.8992L43.0031 16.7092L41.4631 12.3492C41.3431 12.0092 41.6431 11.6592 42.0131 11.7292L56.0631 14.3892C56.6331 14.4992 56.8631 15.1792 56.4831 15.6292L47.0731 26.1492Z" fill="#F2F1F0"/>
<path opacity="0.15" d="M73.6833 48.3092C73.6833 47.8392 73.2933 47.4492 72.8233 47.4492C72.5133 47.4492 70.5833 47.2792 69.5533 46.4692C69.5533 46.4692 69.5633 46.4592 69.5533 46.4692C69.1633 45.0392 68.5933 43.7092 67.8833 42.4492C67.7033 41.2492 68.9433 40.3792 69.5133 39.4492C69.6133 39.2892 69.6733 39.1892 69.7033 39.1292C69.8133 38.8292 69.7533 38.4792 69.5133 38.2392C69.5133 38.2392 68.5633 36.8792 67.5833 35.9092C66.6033 34.9392 65.1233 33.8592 65.1233 33.8592C64.7933 33.5292 64.2433 33.5292 63.9033 33.8592C63.6833 34.0792 62.2133 35.2892 60.8933 35.4792C60.8733 35.4792 60.8733 35.4792 60.8733 35.4792C59.6433 34.7792 58.2633 34.2092 56.8833 33.8192H56.8633C55.8833 33.0992 56.1433 31.6092 55.8833 30.5492C55.8833 30.0792 55.4933 29.6892 55.0233 29.6892C55.0233 29.6892 53.3833 29.3992 52.0033 29.3992C50.6233 29.3992 48.8133 29.6892 48.8133 29.6892C48.3433 29.6892 47.9533 30.0792 47.9533 30.5492C47.9533 30.8592 47.7833 32.7892 46.9733 33.8192C45.6033 34.2092 44.1633 34.8092 42.9533 35.4892C41.7533 35.6692 40.8833 34.4292 39.9533 33.8592C39.7933 33.7592 39.6933 33.6992 39.6333 33.6692C39.3333 33.5592 38.9833 33.6192 38.7433 33.8592C38.7433 33.8592 37.3833 34.8092 36.4133 35.7892C35.4433 36.7692 34.3633 38.2492 34.3633 38.2492C34.0333 38.5792 34.0333 39.1292 34.3633 39.4692C34.5833 39.6892 35.8233 41.1792 35.9933 42.4692V42.4792C35.3133 43.6992 34.7233 45.1292 34.3333 46.4992C34.3333 46.4992 34.3533 46.4792 34.3333 46.4992C33.4933 47.5192 32.1233 47.2192 31.0633 47.4792C30.5933 47.4792 30.2033 47.8692 30.2033 48.3392C30.2033 48.3392 29.9133 49.9792 29.9133 51.3592C29.9133 52.7392 30.2033 54.5492 30.2033 54.5492C30.2033 55.0192 30.5933 55.4092 31.0633 55.4092C31.3733 55.4092 33.3033 55.5792 34.3333 56.3892C34.3533 56.3792 34.3433 56.4092 34.3433 56.4092C34.7433 57.7792 35.3033 59.1592 35.9933 60.3692C35.9833 60.3892 35.9933 60.3692 36.0033 60.4092C36.1233 61.6592 34.9433 62.4792 34.3733 63.4092C34.2733 63.5692 34.2133 63.6692 34.1833 63.7292C34.0733 64.0292 34.1333 64.3792 34.3733 64.6192C34.3733 64.6192 35.3233 65.9792 36.3033 66.9492C37.2833 67.9292 38.7633 68.9992 38.7633 68.9992C39.0933 69.3292 39.6433 69.3292 39.9833 68.9992C40.2033 68.7792 41.6933 67.5392 42.9833 67.3692C42.9833 67.3692 42.9733 67.3792 43.0033 67.3792C44.2533 68.0792 45.5433 68.6292 46.9633 69.0092C46.9733 69.0192 47.0133 69.0292 47.0133 69.0292C47.9933 69.7492 47.7333 71.2392 47.9933 72.2992C48.0433 72.7792 48.3133 73.0792 48.8533 73.1592C48.8533 73.1592 50.4933 73.4492 51.8733 73.4492C53.2533 73.4492 55.0633 73.1692 55.0633 73.1692C55.5333 73.0892 55.9233 72.7792 55.9233 72.3092C55.9233 71.9992 56.0933 70.0692 56.9033 69.0392C56.9033 69.0392 56.9433 69.0092 56.9733 68.9792C58.4133 68.5792 59.5033 68.1292 60.7733 67.3992C60.8333 67.3792 60.7633 67.3792 60.9233 67.3592C62.1233 67.1792 62.9933 68.4192 63.9233 68.9892C64.0833 69.0892 64.1833 69.1492 64.2433 69.1792C64.5433 69.2892 64.8933 69.2292 65.1333 68.9892C65.1333 68.9892 66.4933 68.0392 67.4633 67.0592C68.4433 66.0792 69.5133 64.5992 69.5133 64.5992C69.8433 64.2692 69.8433 63.7192 69.5133 63.3792C69.2933 63.1592 68.0533 61.6692 67.8833 60.3792C67.8633 60.2492 67.8733 60.2292 67.8933 60.1892C68.6133 58.9092 69.0733 57.9692 69.4733 56.5192C69.4733 56.5192 69.4533 56.4692 69.5533 56.3492C70.2733 55.3692 71.7633 55.6292 72.8233 55.3692C73.2933 55.3692 73.6833 54.9792 73.6833 54.5092C73.6833 54.5092 73.9733 52.8692 73.9733 51.4892C73.9733 50.1092 73.6833 48.3092 73.6833 48.3092Z" fill="#1F1D20"/>
<path d="M73.6833 47.7191C73.6833 47.2491 73.2933 46.8591 72.8233 46.8591C72.5133 46.8591 70.5833 46.6891 69.5533 45.8791C69.5533 45.8791 69.5633 45.8691 69.5533 45.8791C69.1633 44.4491 68.5933 43.1191 67.8833 41.8591C67.7033 40.6591 68.9433 39.7891 69.5133 38.8591C69.6133 38.6991 69.6733 38.5991 69.7033 38.5391C69.8133 38.2391 69.7533 37.8891 69.5133 37.6491C69.5133 37.6491 68.5633 36.2891 67.5833 35.3191C66.6033 34.3491 65.1233 33.2691 65.1233 33.2691C64.7933 32.9391 64.2433 32.9391 63.9033 33.2691C63.6833 33.4891 62.2133 34.6991 60.8933 34.8891C60.8733 34.8891 60.8733 34.8891 60.8733 34.8891C59.6433 34.1891 58.2633 33.6191 56.8833 33.2291H56.8633C55.8833 32.5091 56.1433 31.0191 55.8833 29.9591C55.8833 29.4891 55.4933 29.0991 55.0233 29.0991C55.0233 29.0991 53.3833 28.8091 52.0033 28.8091C50.6233 28.8091 48.8133 29.0991 48.8133 29.0991C48.3433 29.0991 47.9533 29.4891 47.9533 29.9591C47.9533 30.2691 47.7833 32.1991 46.9733 33.2291C45.6033 33.6191 44.1633 34.2191 42.9533 34.8991C41.7533 35.0791 40.8833 33.8391 39.9533 33.2691C39.7933 33.1691 39.6933 33.1091 39.6333 33.0791C39.3333 32.9691 38.9833 33.0291 38.7433 33.2691C38.7433 33.2691 37.3833 34.2191 36.4133 35.1991C35.4433 36.1791 34.3633 37.6591 34.3633 37.6591C34.0333 37.9891 34.0333 38.5391 34.3633 38.8791C34.5833 39.0991 35.8233 40.5891 35.9933 41.8791V41.8891C35.3133 43.1091 34.7233 44.5391 34.3333 45.9091C34.3333 45.9091 34.3533 45.8891 34.3333 45.9091C33.4933 46.9291 32.1233 46.6291 31.0633 46.8891C30.5933 46.8891 30.2033 47.2791 30.2033 47.7491C30.2033 47.7491 29.9133 49.3891 29.9133 50.7691C29.9133 52.1491 30.2033 53.9591 30.2033 53.9591C30.2033 54.4291 30.5933 54.8191 31.0633 54.8191C31.3733 54.8191 33.3033 54.9891 34.3333 55.7991C34.3533 55.7891 34.3433 55.8191 34.3433 55.8191C34.7433 57.1891 35.3033 58.5691 35.9933 59.7791C35.9833 59.7991 35.9933 59.7791 36.0033 59.8191C36.1233 61.0691 34.9433 61.8891 34.3733 62.8191C34.2733 62.9791 34.2133 63.0791 34.1833 63.1391C34.0733 63.4391 34.1333 63.7891 34.3733 64.0291C34.3733 64.0291 35.3233 65.3891 36.3033 66.3591C37.2833 67.3391 38.7633 68.4091 38.7633 68.4091C39.0933 68.7391 39.6433 68.7391 39.9833 68.4091C40.2033 68.1891 41.6933 66.9491 42.9833 66.7791C42.9833 66.7791 42.9733 66.7891 43.0033 66.7891C44.2533 67.4891 45.5433 68.0391 46.9633 68.4191C46.9733 68.4291 47.0133 68.4391 47.0133 68.4391C47.9933 69.1591 47.7333 70.6491 47.9933 71.7091C48.0433 72.1891 48.3133 72.4891 48.8533 72.5691C48.8533 72.5691 50.4933 72.8591 51.8733 72.8591C53.2533 72.8591 55.0633 72.5791 55.0633 72.5791C55.5333 72.4991 55.9233 72.1891 55.9233 71.7191C55.9233 71.4091 56.0933 69.4791 56.9033 68.4491C56.9033 68.4491 56.9433 68.4191 56.9733 68.3891C58.4133 67.9891 59.5033 67.5391 60.7733 66.8091C60.8333 66.7891 60.7633 66.7891 60.9233 66.7691C62.1233 66.5891 62.9933 67.8291 63.9233 68.3991C64.0833 68.4991 64.1833 68.5591 64.2433 68.5891C64.5433 68.6991 64.8933 68.6391 65.1333 68.3991C65.1333 68.3991 66.4933 67.4491 67.4633 66.4691C68.4433 65.4891 69.5133 64.0091 69.5133 64.0091C69.8433 63.6791 69.8433 63.1291 69.5133 62.7891C69.2933 62.5691 68.0533 61.0791 67.8833 59.7891C67.8633 59.6591 67.8733 59.6391 67.8933 59.5991C68.6133 58.3191 69.0733 57.3791 69.4733 55.9291C69.4733 55.9291 69.4533 55.8791 69.5533 55.7591C70.2733 54.7791 71.7633 55.0391 72.8233 54.7791C73.2933 54.7791 73.6833 54.3891 73.6833 53.9191C73.6833 53.9191 73.9733 52.2791 73.9733 50.8991C73.9733 49.5191 73.6833 47.7191 73.6833 47.7191Z" fill="#F2F1F0"/>
<path d="M61.4237 56.8792C61.1137 57.0392 60.7837 57.1892 60.4537 57.3092C59.3937 57.7092 58.2737 57.9092 57.1437 57.8992C52.7837 57.8992 48.9937 54.8992 48.9937 51.0592C49.0037 50.0092 49.5837 49.0492 50.5037 48.5492C46.5637 48.7192 45.5537 52.8192 45.5537 55.2292C45.5537 62.0292 51.8237 62.7192 53.1737 62.7192C53.9037 62.7192 55.0037 62.5092 55.6637 62.2992L55.7837 62.2592C58.3237 61.3792 60.4837 59.6692 61.9137 57.3992C62.0237 57.2292 61.9737 56.9992 61.8037 56.8892C61.6837 56.8092 61.5437 56.8092 61.4237 56.8792Z" fill="url(#paint1_linear)"/>
<path opacity="0.35" d="M61.4237 56.8792C61.1137 57.0392 60.7837 57.1892 60.4537 57.3092C59.3937 57.7092 58.2737 57.9092 57.1437 57.8992C52.7837 57.8992 48.9937 54.8992 48.9937 51.0592C49.0037 50.0092 49.5837 49.0492 50.5037 48.5492C46.5637 48.7192 45.5537 52.8192 45.5537 55.2292C45.5537 62.0292 51.8237 62.7192 53.1737 62.7192C53.9037 62.7192 55.0037 62.5092 55.6637 62.2992L55.7837 62.2592C58.3237 61.3792 60.4837 59.6692 61.9137 57.3992C62.0237 57.2292 61.9737 56.9992 61.8037 56.8892C61.6837 56.8092 61.5437 56.8092 61.4237 56.8792Z" fill="url(#paint2_radial)"/>
<path d="M49.8836 61.5592C49.0636 61.0492 48.3536 60.3792 47.7936 59.5992C45.3736 56.2792 46.1036 51.6392 49.4136 49.2192C49.7636 48.9692 50.1236 48.7392 50.5136 48.5592C50.8036 48.4192 51.2936 48.1792 51.9436 48.1892C52.8736 48.1992 53.7536 48.6392 54.3136 49.3892C54.6836 49.8892 54.8936 50.4892 54.9036 51.1092C54.9036 51.0892 57.1536 43.7792 47.5336 43.7792C43.4936 43.7792 40.1636 47.6192 40.1636 50.9792C40.1436 52.7592 40.5236 54.5192 41.2736 56.1392C43.8136 61.5492 50.0036 64.2092 55.6736 62.3192C53.7336 62.9092 51.6136 62.6392 49.8836 61.5592Z" fill="url(#paint3_linear)"/>
<path opacity="0.41" d="M49.8836 61.5592C49.0636 61.0492 48.3536 60.3792 47.7936 59.5992C45.3736 56.2792 46.1036 51.6392 49.4136 49.2192C49.7636 48.9692 50.1236 48.7392 50.5136 48.5592C50.8036 48.4192 51.2936 48.1792 51.9436 48.1892C52.8736 48.1992 53.7536 48.6392 54.3136 49.3892C54.6836 49.8892 54.8936 50.4892 54.9036 51.1092C54.9036 51.0892 57.1536 43.7792 47.5336 43.7792C43.4936 43.7792 40.1636 47.6192 40.1636 50.9792C40.1436 52.7592 40.5236 54.5192 41.2736 56.1392C43.8136 61.5492 50.0036 64.2092 55.6736 62.3192C53.7336 62.9092 51.6136 62.6392 49.8836 61.5592Z" fill="url(#paint4_radial)"/>
<path d="M54.1736 53.0392C54.1036 53.1392 53.8736 53.2692 53.8736 53.5592C53.8736 53.7992 54.0336 54.0292 54.3036 54.2292C55.6236 55.1492 58.1236 55.0292 58.1336 55.0292C59.1136 55.0292 60.0736 54.7592 60.9236 54.2592C62.6536 53.2492 63.7236 51.3992 63.7236 49.3892C63.7436 47.3292 62.9836 45.9592 62.6836 45.3492C60.7336 41.5292 56.5236 39.3392 51.9436 39.3392C45.5036 39.3392 40.2536 44.5092 40.1636 50.9592C40.2036 47.5992 43.5536 44.8792 47.5336 44.8792C47.8536 44.8792 49.6936 44.9092 51.4036 45.8092C52.9036 46.5992 53.6936 47.5492 54.2436 48.4992C54.8136 49.4792 54.9136 50.7192 54.9136 51.2192C54.8936 51.6992 54.6436 52.4292 54.1736 53.0392Z" fill="url(#paint5_radial)"/>
<path d="M54.1736 53.0392C54.1036 53.1392 53.8736 53.2692 53.8736 53.5592C53.8736 53.7992 54.0336 54.0292 54.3036 54.2292C55.6236 55.1492 58.1236 55.0292 58.1336 55.0292C59.1136 55.0292 60.0736 54.7592 60.9236 54.2592C62.6536 53.2492 63.7236 51.3992 63.7236 49.3892C63.7436 47.3292 62.9836 45.9592 62.6836 45.3492C60.7336 41.5292 56.5236 39.3392 51.9436 39.3392C45.5036 39.3392 40.2536 44.5092 40.1636 50.9592C40.2036 47.5992 43.5536 44.8792 47.5336 44.8792C47.8536 44.8792 49.6936 44.9092 51.4036 45.8092C52.9036 46.5992 53.6936 47.5492 54.2436 48.4992C54.8136 49.4792 54.9136 50.7192 54.9136 51.2192C54.8936 51.6992 54.6436 52.4292 54.1736 53.0392Z" fill="url(#paint6_radial)"/>
<defs>
<linearGradient id="paint0_linear" x1="50.1629" y1="-13.6737" x2="54.1457" y2="132.094" gradientUnits="userSpaceOnUse">
<stop stop-color="#00ABDE"/>
<stop offset="1" stop-color="#007ED8"/>
</linearGradient>
<linearGradient id="paint1_linear" x1="45.5548" y1="55.631" x2="61.9692" y2="55.631" gradientUnits="userSpaceOnUse">
<stop stop-color="#0C59A4"/>
<stop offset="1" stop-color="#114A8B"/>
</linearGradient>
<radialGradient id="paint2_radial" cx="0" cy="0" r="1" gradientUnits="userSpaceOnUse" gradientTransform="translate(54.6262 55.76) scale(8.78042 8.34141)">
<stop offset="0.72" stop-opacity="0"/>
<stop offset="0.95" stop-opacity="0.53"/>
<stop offset="1"/>
</radialGradient>
<linearGradient id="paint3_linear" x1="54.216" y1="48.5152" x2="43.9608" y2="59.6857" gradientUnits="userSpaceOnUse">
<stop stop-color="#1B9DE2"/>
<stop offset="0.16" stop-color="#1595DF"/>
<stop offset="0.67" stop-color="#0680D7"/>
<stop offset="1" stop-color="#0078D4"/>
</linearGradient>
<radialGradient id="paint4_radial" cx="0" cy="0" r="1" gradientUnits="userSpaceOnUse" gradientTransform="translate(46.7143 57.732) rotate(-81.3844) scale(13.2034 10.6671)">
<stop offset="0.76" stop-opacity="0"/>
<stop offset="0.95" stop-opacity="0.5"/>
<stop offset="1"/>
</radialGradient>
<radialGradient id="paint5_radial" cx="0" cy="0" r="1" gradientUnits="userSpaceOnUse" gradientTransform="translate(42.6538 43.8262) rotate(92.2906) scale(18.65 39.7207)">
<stop stop-color="#35C1F1"/>
<stop offset="0.11" stop-color="#34C1ED"/>
<stop offset="0.23" stop-color="#2FC2DF"/>
<stop offset="0.31" stop-color="#2BC3D2"/>
<stop offset="0.67" stop-color="#36C752"/>
</radialGradient>
<radialGradient id="paint6_radial" cx="0" cy="0" r="1" gradientUnits="userSpaceOnUse" gradientTransform="translate(62.1409 46.4952) rotate(73.7398) scale(8.96086 7.28697)">
<stop stop-color="#66EB6E"/>
<stop offset="1" stop-color="#66EB6E" stop-opacity="0"/>
</radialGradient>
</defs>
</svg>
