<svg width="103" height="103" viewBox="0 0 103 103" fill="none" xmlns="http://www.w3.org/2000/svg">
<path d="M51.3613 97.8534C25.5113 97.8534 4.55127 76.9034 4.55127 51.0434C4.55127 25.1834 25.5113 4.2334 51.3613 4.2334C77.2113 4.2334 98.1713 25.1934 98.1713 51.0434C98.1713 76.8934 77.2113 97.8534 51.3613 97.8534Z" fill="url(#paint0_linear)"/>
<path fill-rule="evenodd" clip-rule="evenodd" d="M97.2613 51.0433C97.2613 76.3933 76.7113 96.9433 51.3613 96.9433C26.0113 96.9433 5.46131 76.3933 5.46131 51.0433C5.46131 25.6933 26.0113 5.14332 51.3613 5.14332C76.7113 5.14332 97.2613 25.6933 97.2613 51.0433ZM51.3613 1.40332C78.7813 1.40332 101.001 23.6233 101.001 51.0433C101.001 78.4633 78.7713 100.683 51.3613 100.683C23.9413 100.683 1.72131 78.4533 1.72131 51.0433C1.72131 23.6233 23.9413 1.40332 51.3613 1.40332Z" fill="#F2F1F0"/>
<path fill-rule="evenodd" clip-rule="evenodd" d="M94.4514 51.0429C94.4514 74.8429 75.1614 94.1329 51.3614 94.1329C27.5614 94.1329 8.27137 74.8429 8.27137 51.0429C8.27137 27.2429 27.5614 7.95289 51.3614 7.95289C75.1614 7.95289 94.4514 27.2429 94.4514 51.0429ZM51.3614 4.21289C77.2214 4.21289 98.1914 25.1829 98.1914 51.0429C98.1914 76.9029 77.2214 97.8729 51.3614 97.8729C25.5014 97.8729 4.53137 76.9029 4.53137 51.0429C4.53137 25.1829 25.4914 4.21289 51.3614 4.21289Z" fill="url(#paint1_linear)"/>
<path opacity="0.15" d="M78.8813 29.623H19.4013C18.6013 29.623 17.9513 30.273 17.9513 31.073V66.883C17.9513 67.683 18.6013 68.333 19.4013 68.333H78.8813C79.6813 68.333 80.3313 67.683 80.3313 66.883V31.073C80.3513 30.273 79.7013 29.623 78.8813 29.623Z" fill="#1F1D20"/>
<path d="M78.8813 28.333H19.4013C18.6013 28.333 17.9513 28.983 17.9513 29.783V65.593C17.9513 66.393 18.6013 67.043 19.4013 67.043H78.8813C79.6813 67.043 80.3313 66.393 80.3313 65.593V29.783C80.3513 28.983 79.7013 28.333 78.8813 28.333Z" fill="url(#paint2_linear)"/>
<path opacity="0.15" d="M36.4813 61.5634C43.4213 61.5634 49.0413 55.9534 49.0413 49.0034C49.0413 42.0634 43.4313 36.4434 36.4813 36.4434C29.5413 36.4434 23.9213 42.0534 23.9213 49.0034C23.9313 55.9434 29.5613 61.5634 36.4813 61.5634Z" fill="#1F1D20"/>
<path d="M36.4813 60.4432C43.4213 60.4432 49.0413 54.8332 49.0413 47.8832C49.0413 40.9432 43.4313 35.3232 36.4813 35.3232C29.5413 35.3232 23.9213 40.9332 23.9213 47.8832C23.9313 54.8232 29.5613 60.4432 36.4813 60.4432Z" fill="white"/>
<path d="M42.6113 52.9828C42.2713 49.8728 39.6013 47.4229 36.3713 47.4229C33.1513 47.4229 30.5213 49.8229 30.1313 52.9029C30.0813 53.1229 30.0813 53.3629 30.0813 53.5629C30.1713 54.4429 30.7613 55.3028 31.9213 55.9628C34.3713 57.3728 38.3913 57.3728 40.8213 55.9628C41.9813 55.3028 42.5613 54.4529 42.6413 53.5629C42.6613 53.3829 42.6313 53.1728 42.6113 52.9828Z" fill="url(#paint3_radial)"/>
<path d="M36.3613 46.5229C38.4513 46.5229 40.1513 44.8429 40.1513 42.7629C40.1513 40.6829 38.4713 39.0029 36.3613 39.0029C34.2513 39.0029 32.5713 40.6729 32.5713 42.7629C32.5713 44.8529 34.2713 46.5229 36.3613 46.5229Z" fill="url(#paint4_radial)"/>
<g opacity="0.15">
<path opacity="0.15" d="M72.2414 36.6826H56.1914C55.5014 36.6826 54.9314 37.2526 54.9314 37.9426C54.9314 38.6326 55.5014 39.2026 56.1914 39.2026H72.2214C72.9114 39.2026 73.4814 38.6326 73.4814 37.9426C73.5014 37.2526 72.9314 36.6826 72.2414 36.6826Z" fill="#1F1D20"/>
<path opacity="0.15" d="M72.2414 42.1631H56.1914C55.5014 42.1631 54.9314 42.7331 54.9314 43.4231C54.9314 44.1131 55.5014 44.6831 56.1914 44.6831H72.2214C72.9114 44.6831 73.4814 44.1131 73.4814 43.4231C73.5014 42.7331 72.9314 42.1631 72.2414 42.1631Z" fill="#1F1D20"/>
</g>
<path d="M72.2414 35.8223H56.1914C55.5014 35.8223 54.9314 36.3923 54.9314 37.0823C54.9314 37.7723 55.5014 38.3423 56.1914 38.3423H72.2214C72.9114 38.3423 73.4814 37.7723 73.4814 37.0823C73.5014 36.3923 72.9314 35.8223 72.2414 35.8223Z" fill="#50E6FF"/>
<path d="M72.2414 41.3125H56.1914C55.5014 41.3125 54.9314 41.8825 54.9314 42.5725C54.9314 43.2625 55.5014 43.8325 56.1914 43.8325H72.2214C72.9114 43.8325 73.4814 43.2625 73.4814 42.5725C73.5014 41.8825 72.9314 41.3125 72.2414 41.3125Z" fill="#32B0E7"/>
<path opacity="0.15" d="M56.1614 73.6823H85.1314C85.9414 73.6823 86.6014 73.0223 86.6014 72.2123V49.1123H54.6914V72.2123C54.6914 73.0223 55.3514 73.6823 56.1614 73.6823Z" fill="#1F1D20"/>
<path d="M55.3014 72.3425H85.9914C86.3314 72.3425 86.6014 72.0725 86.6014 71.7325L86.6114 47.7725H54.6914V71.7325C54.6914 72.0725 54.9614 72.3425 55.3014 72.3425Z" fill="white"/>
<path d="M54.6914 50.4228H86.6114V47.5628C86.6114 47.3028 86.3914 47.0928 86.1414 47.0928H55.1614C54.9014 47.0928 54.6914 47.3028 54.6914 47.5628V50.4228Z" fill="#092E4C"/>
<path d="M57.1414 49.6327C57.5914 49.6327 57.9514 49.2727 57.9514 48.8227C57.9514 48.3727 57.5814 48.0127 57.1414 48.0127C56.6914 48.0127 56.3314 48.3727 56.3314 48.8227C56.3314 49.2727 56.6914 49.6327 57.1414 49.6327Z" fill="#32B0E7"/>
<path opacity="0.15" d="M60.7213 58.0735C58.7113 60.0935 58.7113 63.3635 60.7313 65.3735C62.7513 67.3835 66.0213 67.3835 68.0313 65.3635C68.5413 64.8535 68.9313 64.2535 69.1813 63.6135H72.1613L72.2013 63.6535L73.5113 62.3335L74.8613 63.6935L76.1813 62.3735L77.4813 63.6735L78.8513 62.3035H78.8713L78.8313 62.3435L80.1413 63.6435L80.7613 63.0135L82.0813 61.6935L80.7613 60.3735L69.3813 60.4035C69.1613 59.5435 68.7113 58.7235 68.0313 58.0535C66.0113 56.0335 62.7413 56.0335 60.7213 58.0735ZM62.7313 60.7435C63.2813 61.2935 63.2813 62.1735 62.7313 62.7135C62.1813 63.2635 61.3013 63.2635 60.7613 62.7135C60.2113 62.1635 60.2113 61.2835 60.7613 60.7435C61.3013 60.2035 62.1813 60.2035 62.7313 60.7435Z" fill="#1F1D20"/>
<path d="M60.7213 57.3131C58.7113 59.3331 58.7113 62.6031 60.7313 64.6131C62.7513 66.6231 66.0213 66.6231 68.0313 64.6031C68.5413 64.0931 68.9313 63.4931 69.1813 62.8531H72.1613L72.2013 62.8931L73.5113 61.5731L74.8613 62.9331L76.1813 61.6131L77.4813 62.9131L78.8513 61.5431H78.8713L78.8313 61.5831L80.1413 62.8831L80.7613 62.2531L82.0813 60.9331L80.7613 59.6131L69.3813 59.6431C69.1613 58.7831 68.7113 57.9631 68.0313 57.2931C66.0113 55.2831 62.7413 55.2831 60.7213 57.3131ZM62.7313 59.9831C63.2813 60.5331 63.2813 61.4131 62.7313 61.9531C62.1813 62.5031 61.3013 62.5031 60.7613 61.9531C60.2113 61.4031 60.2113 60.5231 60.7613 59.9831C61.3013 59.4431 62.1813 59.4431 62.7313 59.9831Z" fill="url(#paint5_radial)"/>
<defs>
<linearGradient id="paint0_linear" x1="49.5914" y1="-13.7466" x2="53.5734" y2="132.024" gradientUnits="userSpaceOnUse">
<stop stop-color="#00ABDE"/>
<stop offset="1" stop-color="#007ED8"/>
</linearGradient>
<linearGradient id="paint1_linear" x1="2.79457" y1="-20.5821" x2="98.3226" y2="120.3" gradientUnits="userSpaceOnUse">
<stop stop-color="#007ED8"/>
<stop offset="0.7065" stop-color="#002D4C"/>
</linearGradient>
<linearGradient id="paint2_linear" x1="0.644893" y1="13.3654" x2="97.5897" y2="81.9638" gradientUnits="userSpaceOnUse">
<stop stop-color="#007ED8"/>
<stop offset="0.7065" stop-color="#002D4C"/>
</linearGradient>
<radialGradient id="paint3_radial" cx="0" cy="0" r="1" gradientUnits="userSpaceOnUse" gradientTransform="translate(32.7259 41.7707) scale(26.4241)">
<stop stop-color="#4FC2EB"/>
<stop offset="0.585" stop-color="#2E76BC"/>
</radialGradient>
<radialGradient id="paint4_radial" cx="0" cy="0" r="1" gradientUnits="userSpaceOnUse" gradientTransform="translate(32.7239 41.7708) scale(26.4242)">
<stop stop-color="#4FC2EB"/>
<stop offset="0.585" stop-color="#2E76BC"/>
</radialGradient>
<radialGradient id="paint5_radial" cx="0" cy="0" r="1" gradientUnits="userSpaceOnUse" gradientTransform="translate(53.0659 44.6356) scale(57.874)">
<stop stop-color="#4FC2EB"/>
<stop offset="0.585" stop-color="#2E76BC"/>
</radialGradient>
</defs>
</svg>
