<svg width="100" height="100" viewBox="0 0 100 100" fill="none" xmlns="http://www.w3.org/2000/svg">
<g clip-path="url(#clip0_1324_613)">
<path d="M49.6401 96.4499C40.382 96.4499 31.3317 93.7045 23.6339 88.561C15.936 83.4174 9.93624 76.1067 6.3933 67.5533C2.85036 58.9999 1.92337 49.588 3.72954 40.5077C5.53571 31.4275 9.99394 23.0867 16.5404 16.5402C23.0869 9.99372 31.4277 5.5355 40.5079 3.72933C49.5882 1.92315 59.0001 2.85015 67.5535 6.39308C76.1069 9.93602 83.4176 15.9358 88.5612 23.6336C93.7047 31.3315 96.4501 40.3817 96.4501 49.6399C96.4505 55.7872 95.24 61.8744 92.8878 67.5538C90.5355 73.2332 87.0875 78.3937 82.7407 82.7405C78.3939 87.0873 73.2335 90.5353 67.554 92.8876C61.8746 95.2398 55.7874 96.4503 49.6401 96.4499V96.4499Z" fill="url(#paint0_linear_1324_613)"/>
<path fill-rule="evenodd" clip-rule="evenodd" d="M95.54 49.6399C95.54 58.718 92.848 67.5923 87.8045 75.1406C82.7609 82.6888 75.5923 88.5719 67.2052 92.046C58.818 95.52 49.5891 96.429 40.6854 94.6579C31.7816 92.8869 23.603 88.5153 17.1838 82.0961C10.7646 75.6769 6.39302 67.4983 4.62196 58.5945C2.85089 49.6908 3.75987 40.4618 7.23393 32.0747C10.708 23.6876 16.5911 16.519 24.1393 11.4754C31.6875 6.43187 40.5618 3.73988 49.64 3.73988C55.6677 3.73986 61.6363 4.92708 67.2052 7.23377C72.774 9.54045 77.834 12.9214 82.0963 17.1836C86.3585 21.4458 89.7394 26.5058 92.0461 32.0747C94.3528 37.6435 95.54 43.6122 95.54 49.6399V49.6399ZM49.64 -0.000106449C59.4579 -0.000106449 69.0552 2.91123 77.2185 8.36574C85.3818 13.8203 91.7442 21.573 95.5014 30.6435C99.2585 39.714 100.242 49.695 98.3262 59.3242C96.4108 68.9534 91.6831 77.7984 84.7408 84.7407C77.7985 91.683 68.9535 96.4107 59.3243 98.3261C49.6951 100.241 39.7141 99.2584 30.6436 95.5013C21.5731 91.7441 13.8204 85.3816 8.36584 77.2184C2.91133 69.0551 -1.61629e-06 59.4577 3.61524e-07 49.6399C-0.000786426 43.1208 1.28265 36.6655 3.77702 30.6425C6.27138 24.6196 9.92781 19.147 14.5375 14.5374C19.1471 9.9277 24.6197 6.27127 30.6427 3.77691C36.6656 1.28254 43.121 -0.000894549 49.64 -0.000106449V-0.000106449Z" fill="#F2F1F0"/>
<path fill-rule="evenodd" clip-rule="evenodd" d="M92.7296 49.64C92.7296 58.1624 90.2024 66.4934 85.4676 73.5795C80.7328 80.6656 74.0031 86.1886 66.1294 89.45C58.2557 92.7113 49.5918 93.5647 41.2331 91.902C32.8745 90.2394 25.1966 86.1355 19.1703 80.1092C13.1441 74.083 9.04017 66.4051 7.37753 58.0464C5.7149 49.6878 6.56822 41.0238 9.8296 33.1502C13.091 25.2765 18.6139 18.5468 25.7 13.812C32.7862 9.07718 41.1172 6.55 49.6396 6.55C55.2983 6.54965 60.9017 7.66397 66.1298 9.82933C71.3579 11.9947 76.1082 15.1687 80.1096 19.17C84.1109 23.1713 87.2849 27.9217 89.4502 33.1498C91.6156 38.3778 92.7299 43.9812 92.7296 49.64ZM49.6396 2.81C58.9017 2.81 67.9558 5.55653 75.6569 10.7023C83.3581 15.848 89.3604 23.1619 92.9049 31.7189C96.4493 40.276 97.3767 49.6919 95.5697 58.7761C93.7628 67.8602 89.3027 76.2045 82.7534 82.7538C76.2041 89.3031 67.8598 93.7632 58.7757 95.5702C49.6915 97.3771 40.2756 96.4497 31.7185 92.9053C23.1614 89.3608 15.8476 83.3585 10.7018 75.6574C5.5561 67.9562 2.80957 58.9021 2.80957 49.64C2.81076 37.2203 7.74501 25.3096 16.5271 16.5275C25.3091 7.74544 37.2198 2.81119 49.6396 2.81V2.81Z" fill="#0078D4"/>
<path fill-rule="evenodd" clip-rule="evenodd" d="M92.7301 49.7835C92.7301 58.3059 90.2029 66.6369 85.4681 73.723C80.7333 80.8091 74.0036 86.3321 66.1299 89.5935C58.2562 92.8549 49.5923 93.7082 41.2336 92.0455C32.875 90.3829 25.1971 86.279 19.1708 80.2527C13.1446 74.2265 9.04066 66.5486 7.37802 58.1899C5.71538 49.8313 6.56871 41.1673 9.83009 33.2937C13.0915 25.42 18.6144 18.6903 25.7005 13.9555C32.7867 9.22069 41.1177 6.69351 49.6401 6.69351C55.2988 6.69316 60.9022 7.80748 66.1303 9.97284C71.3584 12.1382 76.1087 15.3122 80.1101 19.3135C84.1114 23.3149 87.2854 28.0652 89.4507 33.2933C91.6161 38.5213 92.7304 44.1248 92.7301 49.7835V49.7835ZM49.6401 2.95351C58.9022 2.95351 67.9563 5.70004 75.6574 10.8458C83.3586 15.9915 89.3609 23.3054 92.9053 31.8624C96.4498 40.4195 97.3772 49.8355 95.5702 58.9196C93.7633 68.0037 89.3032 76.348 82.7539 82.8973C76.2046 89.4466 67.8603 93.9067 58.7761 95.7137C49.692 97.5206 40.2761 96.5932 31.719 93.0488C23.1619 89.5043 15.8481 83.502 10.7023 75.8009C5.55659 68.0997 2.81006 59.0456 2.81006 49.7835C2.81124 37.3638 7.74548 25.4531 16.5276 16.671C25.3096 7.88892 37.2203 2.95467 49.64 2.95348L49.6401 2.95351Z" fill="#0078D4"/>
<path d="M42.6092 35.4562H28.4586C27.6567 35.4586 26.8884 35.7781 26.3215 36.3451C25.7545 36.9121 25.435 37.6804 25.4326 38.4822V52.2692H73.8478V43.0211C73.8454 42.2193 73.5259 41.451 72.9589 40.884C72.3919 40.3171 71.6236 39.9975 70.8218 39.9952H48.1272L45.4559 36.7895C45.1081 36.3722 44.6728 36.0365 44.1809 35.8061C43.689 35.5757 43.1524 35.4562 42.6092 35.4562V35.4562Z" fill="url(#paint1_linear_1324_613)"/>
<path fill-rule="evenodd" clip-rule="evenodd" d="M52.9084 22.3201C52.4061 22.1586 51.8602 22.2024 51.3901 22.4421C50.92 22.6817 50.5638 23.0976 50.3994 23.599L41.7885 50.1136C41.627 50.6159 41.6708 51.1618 41.9104 51.6319C42.15 52.102 42.566 52.4582 43.0673 52.6226L61.0594 58.4658C61.5617 58.6274 62.1076 58.5836 62.5777 58.3439C63.0479 58.1043 63.404 57.6883 63.5684 57.1869L70.3341 36.354L65.2188 26.3181L52.9084 22.3201Z" fill="white"/>
<path fill-rule="evenodd" clip-rule="evenodd" d="M64.6525 34.5087L70.3342 36.3539L65.2189 26.3181L63.3737 31.9998C63.2122 32.5021 63.256 33.0479 63.4956 33.518C63.7353 33.9881 64.1512 34.3443 64.6525 34.5087V34.5087Z" fill="#E8E8E8"/>
<path fill-rule="evenodd" clip-rule="evenodd" d="M63.7543 40.498L51.4439 36.5001C51.1934 36.418 50.9857 36.2399 50.8663 36.0049C50.7469 35.7699 50.7256 35.4971 50.807 35.2464C50.8884 34.9957 51.0659 34.7875 51.3006 34.6675C51.5353 34.5474 51.808 34.5254 52.059 34.6062L64.3693 38.6041C64.494 38.6442 64.6095 38.7085 64.7093 38.7934C64.8091 38.8782 64.8911 38.9819 64.9508 39.0985C65.0104 39.2152 65.0464 39.3424 65.0568 39.4729C65.0672 39.6035 65.0517 39.7348 65.0113 39.8594C64.9708 39.984 64.9062 40.0993 64.8211 40.1989C64.736 40.2984 64.632 40.3802 64.5153 40.4395C64.3985 40.4988 64.2712 40.5345 64.1406 40.5446C64.01 40.5546 63.8787 40.5388 63.7543 40.498V40.498Z" fill="#E8E8E8"/>
<path fill-rule="evenodd" clip-rule="evenodd" d="M62.3704 44.7593L50.0601 40.7613C49.8096 40.6793 49.6019 40.5012 49.4825 40.2662C49.3631 40.0312 49.3418 39.7584 49.4232 39.5077C49.5046 39.257 49.6821 39.0488 49.9168 38.9287C50.1515 38.8087 50.4243 38.7867 50.6752 38.8674L62.9856 42.8654C63.1102 42.9055 63.2258 42.9698 63.3255 43.0547C63.4253 43.1395 63.5074 43.2432 63.567 43.3598C63.6266 43.4764 63.6627 43.6037 63.673 43.7342C63.6834 43.8648 63.6679 43.9961 63.6275 44.1207C63.587 44.2452 63.5224 44.3606 63.4373 44.4601C63.3522 44.5597 63.2483 44.6415 63.1315 44.7008C63.0147 44.7601 62.8874 44.7958 62.7568 44.8059C62.6262 44.8159 62.4949 44.8001 62.3705 44.7593H62.3704Z" fill="#E8E8E8"/>
<path fill-rule="evenodd" clip-rule="evenodd" d="M60.9863 49.0206L48.6759 45.0226C48.5515 44.9822 48.4364 44.9178 48.3369 44.8329C48.2375 44.748 48.1558 44.6443 48.0964 44.5278C48.037 44.4113 48.0012 44.2843 47.9909 44.1539C47.9806 44.0236 47.9961 43.8925 48.0365 43.7681C48.0769 43.6438 48.1414 43.5286 48.2263 43.4292C48.3112 43.3297 48.4148 43.248 48.5313 43.1886C48.6478 43.1292 48.7748 43.0934 48.9052 43.0831C49.0355 43.0728 49.1666 43.0883 49.291 43.1287L61.6013 47.1266C61.7257 47.167 61.8409 47.2315 61.9403 47.3164C62.0397 47.4013 62.1215 47.505 62.1809 47.6215C62.2402 47.738 62.2761 47.865 62.2864 47.9953C62.2966 48.1257 62.2811 48.2568 62.2408 48.3811C62.2004 48.5055 62.1359 48.6207 62.051 48.7201C61.9661 48.8195 61.8624 48.9013 61.7459 48.9607C61.6295 49.02 61.5024 49.0559 61.3721 49.0662C61.2417 49.0764 61.1106 49.0609 60.9863 49.0206H60.9863Z" fill="#E8E8E8"/>
<path fill-rule="evenodd" clip-rule="evenodd" d="M59.6024 53.2818L47.292 49.2839C47.0415 49.2018 46.8338 49.0237 46.7144 48.7887C46.595 48.5537 46.5737 48.2809 46.6551 48.0302C46.7366 47.7795 46.9141 47.5713 47.1488 47.4513C47.3835 47.3313 47.6562 47.3093 47.9071 47.39L60.2175 51.3879C60.3422 51.4281 60.4577 51.4924 60.5575 51.5772C60.6572 51.6621 60.7393 51.7658 60.7989 51.8824C60.8585 51.999 60.8946 52.1262 60.905 52.2568C60.9153 52.3873 60.8999 52.5187 60.8594 52.6432C60.819 52.7678 60.7543 52.8832 60.6692 52.9827C60.5841 53.0823 60.4802 53.164 60.3634 53.2234C60.2467 53.2827 60.1193 53.3184 59.9887 53.3284C59.8582 53.3385 59.7269 53.3226 59.6024 53.2818V53.2818Z" fill="#E8E8E8"/>
<path fill-rule="evenodd" clip-rule="evenodd" d="M54.6733 32.8801C54.1151 32.6988 53.6231 32.3561 53.2597 31.8952C52.8962 31.4343 52.6776 30.876 52.6315 30.2909C52.5854 29.7058 52.7138 29.1201 53.0005 28.608C53.2872 28.0959 53.7193 27.6803 54.2422 27.4137C54.7652 27.1472 55.3554 27.0417 55.9382 27.1106C56.5211 27.1795 57.0705 27.4197 57.5168 27.8008C57.9632 28.1819 58.2865 28.6869 58.4459 29.2517C58.6053 29.8166 58.5936 30.4161 58.4123 30.9743C58.1692 31.7228 57.6387 32.3441 56.9375 32.7015C56.2363 33.0589 55.4218 33.1232 54.6733 32.8801V32.8801Z" fill="#72C472"/>
<path fill-rule="evenodd" clip-rule="evenodd" d="M57.1407 29.6958C57.096 29.6082 57.0183 29.5418 56.9246 29.5114C56.831 29.481 56.7292 29.489 56.6415 29.5337L55.1 30.3187L54.8149 29.7658C54.8098 29.748 54.8031 29.7307 54.795 29.7141C54.7507 29.6267 54.6737 29.5603 54.5806 29.5296C54.4876 29.4988 54.3861 29.5061 54.2985 29.5498C54.2108 29.5936 54.144 29.6703 54.1127 29.7632C54.0814 29.856 54.0881 29.9575 54.1314 30.0454L54.1258 30.0483L54.6088 30.9852C54.6536 31.0729 54.7313 31.1392 54.8249 31.1696C54.9186 31.2 55.0205 31.192 55.1082 31.1474L56.9773 30.1952L56.9787 30.1947C57.0221 30.1726 57.0607 30.1422 57.0924 30.1052C57.124 30.0681 57.148 30.0252 57.1631 29.9789C57.1781 29.9325 57.1839 29.8837 57.1801 29.8351C57.1762 29.7866 57.1628 29.7392 57.1407 29.6958V29.6958Z" fill="white"/>
<path fill-rule="evenodd" clip-rule="evenodd" d="M27.7527 30.4953C27.2833 30.7363 26.9284 31.1533 26.7654 31.6551C26.6024 32.157 26.6446 32.7029 26.8829 33.1737L39.5427 58.0113C39.7837 58.4807 40.2007 58.8356 40.7025 58.9986C41.2044 59.1616 41.7503 59.1193 42.2211 58.8811L59.0751 50.2905C59.5446 50.0496 59.8996 49.6326 60.0626 49.1308C60.2256 48.6289 60.1833 48.0829 59.9449 47.6121L49.9979 28.0969L39.2844 24.6176L27.7527 30.4953Z" fill="white"/>
<path fill-rule="evenodd" clip-rule="evenodd" d="M44.6756 30.8097L49.998 28.0969L39.2844 24.6176L41.9973 29.9399C42.2382 30.4093 42.6552 30.7643 43.157 30.9272C43.6589 31.0902 44.2048 31.048 44.6756 30.8097V30.8097Z" fill="#E8E8E8"/>
<path fill-rule="evenodd" clip-rule="evenodd" d="M48.2754 35.6799L36.7437 41.5577C36.5085 41.6772 36.2355 41.6984 35.9846 41.6168C35.7337 41.5351 35.5255 41.3572 35.4057 41.1222C35.2859 40.8871 35.2643 40.6141 35.3456 40.3632C35.4269 40.1122 35.6045 39.9037 35.8394 39.7836L47.3711 33.9058C47.6064 33.7859 47.8796 33.7644 48.1308 33.8459C48.3819 33.9275 48.5904 34.1055 48.7103 34.3407C48.8302 34.576 48.8518 34.8493 48.7702 35.1004C48.6886 35.3516 48.5107 35.56 48.2754 35.6799V35.6799Z" fill="#F2F2F2"/>
<path fill-rule="evenodd" clip-rule="evenodd" d="M50.31 39.6717L38.7783 45.5495C38.5431 45.6686 38.2703 45.6896 38.0197 45.6078C37.769 45.5261 37.5611 45.3483 37.4413 45.1134C37.3216 44.8785 37.3 44.6058 37.3811 44.3549C37.4622 44.1041 37.6395 43.8957 37.874 43.7753L49.4057 37.8976C49.6409 37.7785 49.9137 37.7575 50.1644 37.8392C50.415 37.921 50.623 38.0988 50.7427 38.3336C50.8624 38.5685 50.8841 38.8413 50.803 39.0921C50.7218 39.3429 50.5446 39.5514 50.31 39.6717V39.6717Z" fill="#F2F2F2"/>
<path fill-rule="evenodd" clip-rule="evenodd" d="M52.3447 43.6634L40.813 49.5412C40.5778 49.6603 40.305 49.6813 40.0543 49.5996C39.8037 49.5178 39.5957 49.34 39.476 49.1051C39.3563 48.8703 39.3346 48.5975 39.4157 48.3467C39.4968 48.0958 39.6741 47.8874 39.9087 47.7671L51.4404 41.8893C51.5569 41.8299 51.6839 41.7941 51.8143 41.7838C51.9446 41.7735 52.0757 41.789 52.2001 41.8294C52.3244 41.8698 52.4396 41.9343 52.539 42.0192C52.6385 42.1041 52.7202 42.2077 52.7796 42.3242C52.839 42.4407 52.8748 42.5678 52.8851 42.6981C52.8954 42.8285 52.8799 42.9595 52.8395 43.0839C52.7991 43.2082 52.7346 43.3234 52.6497 43.4229C52.5648 43.5223 52.4612 43.604 52.3447 43.6634H52.3447Z" fill="#F2F2F2"/>
<path fill-rule="evenodd" clip-rule="evenodd" d="M54.3794 47.6552L42.8477 53.533C42.6125 53.6525 42.3395 53.6737 42.0886 53.5921C41.8377 53.5104 41.6295 53.3325 41.5097 53.0975C41.3899 52.8624 41.3683 52.5894 41.4496 52.3384C41.5309 52.0875 41.7085 51.879 41.9434 51.7589L53.4751 45.8811C53.5916 45.8215 53.7187 45.7855 53.8492 45.7751C53.9796 45.7646 54.1109 45.78 54.2354 45.8204C54.3599 45.8607 54.4752 45.9252 54.5747 46.0101C54.6743 46.0951 54.7561 46.1988 54.8155 46.3154C54.875 46.432 54.9108 46.5592 54.9211 46.6896C54.9313 46.8201 54.9157 46.9513 54.8752 47.0757C54.8347 47.2002 54.7701 47.3154 54.685 47.4148C54.5999 47.5143 54.4961 47.596 54.3794 47.6552V47.6552Z" fill="#F2F2F2"/>
<path fill-rule="evenodd" clip-rule="evenodd" d="M36.4675 36.7145C35.9446 36.9811 35.3544 37.0865 34.7715 37.0176C34.1887 36.9487 33.6393 36.7086 33.193 36.3274C32.7466 35.9463 32.4233 35.4414 32.2639 34.8765C32.1045 34.3117 32.1162 33.7122 32.2975 33.154C32.4787 32.5958 32.8215 32.1038 33.2824 31.7404C33.7432 31.377 34.3015 31.1584 34.8866 31.1122C35.4718 31.0661 36.0574 31.1945 36.5695 31.4812C37.0817 31.7679 37.4973 32.2001 37.7638 32.723C38.1212 33.4242 38.1854 34.2387 37.9423 34.9872C37.6992 35.7358 37.1687 36.3571 36.4675 36.7145V36.7145Z" fill="#E8E8E8"/>
<path fill-rule="evenodd" clip-rule="evenodd" d="M35.9607 32.7181C35.8671 32.6878 35.7652 32.6958 35.6775 32.7405C35.5898 32.7852 35.5235 32.8629 35.493 32.9565L34.9582 34.6015L34.3656 34.4122C34.3495 34.4033 34.3325 34.3957 34.315 34.3898C34.2219 34.3594 34.1206 34.3671 34.0332 34.4111C33.9457 34.4551 33.8792 34.532 33.8482 34.6248C33.8172 34.7177 33.8241 34.8191 33.8676 34.9068C33.911 34.9946 33.9874 35.0616 34.08 35.0933L34.0781 35.0993L35.0821 35.4203C35.1757 35.4506 35.2776 35.4425 35.3653 35.3978C35.453 35.3531 35.5194 35.2754 35.5499 35.1818L36.1983 33.1868L36.1989 33.1855C36.2139 33.1392 36.2197 33.0904 36.2159 33.0418C36.2121 32.9932 36.1988 32.9459 36.1767 32.9025C36.1545 32.8591 36.1241 32.8205 36.087 32.7888C36.05 32.7572 36.0071 32.7332 35.9607 32.7181Z" fill="white"/>
<path opacity="0.2" fill-rule="evenodd" clip-rule="evenodd" d="M35.2959 46.297H36.7889V25.889L35.2959 26.612V46.297Z" fill="#767676"/>
<path opacity="0.2" d="M64.273 54.2272V28.7122L60.2726 24.7118L52.9084 22.3201C52.406 22.1586 51.8602 22.2025 51.3901 22.4421C50.92 22.6817 50.5639 23.0976 50.3994 23.599L41.7885 50.1136C41.627 50.616 41.6708 51.1618 41.9104 51.6319C42.15 52.1021 42.566 52.4582 43.0674 52.6226L59.3802 57.9204H60.5802C61.5593 57.9192 62.4979 57.5297 63.1902 56.8373C63.8825 56.145 64.2719 55.2063 64.273 54.2272V54.2272Z" fill="#767676"/>
<path fill-rule="evenodd" clip-rule="evenodd" d="M39.0551 20.2406C38.4547 20.2424 37.8794 20.4817 37.4549 20.9062C37.0303 21.3307 36.7911 21.906 36.7893 22.5064V54.2271C36.7911 54.8275 37.0303 55.4028 37.4549 55.8273C37.8794 56.2519 38.4547 56.4911 39.0551 56.4929H60.5798C61.1802 56.4912 61.7556 56.252 62.1801 55.8274C62.6047 55.4029 62.8439 54.8275 62.8456 54.2271V29.3037L53.7825 20.2406H39.0551Z" fill="white"/>
<path fill-rule="evenodd" clip-rule="evenodd" d="M56.0485 29.3037H62.8458L53.7827 20.2406V27.0379C53.7845 27.6383 54.0237 28.2136 54.4483 28.6381C54.8728 29.0627 55.4481 29.302 56.0485 29.3037V29.3037Z" fill="#E8E8E8"/>
<path d="M55.6233 33.8702H53.3221V32.0293C53.3221 31.0528 52.9342 30.1163 52.2437 29.4258C51.5532 28.7353 50.6167 28.3474 49.6402 28.3474C48.6637 28.3474 47.7272 28.7353 47.0367 29.4258C46.3462 30.1163 45.9583 31.0528 45.9583 32.0293V33.8702H43.6571C43.2909 33.8702 42.9397 34.0157 42.6808 34.2746C42.4218 34.5336 42.2764 34.8847 42.2764 35.2509V45.3761C42.2764 45.7423 42.4219 46.0935 42.6808 46.3524C42.9397 46.6114 43.2909 46.7568 43.6571 46.7568H55.6233C55.9894 46.7568 56.3406 46.6114 56.5996 46.3524C56.8585 46.0935 57.004 45.7423 57.004 45.3761V35.2509C57.004 34.8847 56.8585 34.5336 56.5996 34.2746C56.3406 34.0157 55.9895 33.8702 55.6233 33.8702V33.8702ZM49.6402 42.2202C49.2788 42.2202 48.9255 42.1131 48.625 41.9123C48.3245 41.7115 48.0903 41.4261 47.952 41.0922C47.8137 40.7584 47.7776 40.391 47.8481 40.0365C47.9186 39.6821 48.0926 39.3565 48.3481 39.1009C48.6037 38.8454 48.9293 38.6714 49.2837 38.6008C49.6382 38.5303 50.0056 38.5665 50.3394 38.7048C50.6733 38.8431 50.9587 39.0773 51.1595 39.3778C51.3603 39.6783 51.4674 40.0316 51.4674 40.393C51.4674 40.6329 51.4202 40.8706 51.3283 41.0922C51.2365 41.3139 51.1019 41.5154 50.9322 41.685C50.7626 41.8547 50.5611 41.9893 50.3394 42.0811C50.1177 42.1729 49.8801 42.2202 49.6402 42.2202V42.2202ZM51.4811 33.8702H47.7992V32.0293C47.7992 31.541 47.9932 31.0728 48.3384 30.7275C48.6837 30.3823 49.1519 30.1883 49.6402 30.1883C50.1284 30.1883 50.5967 30.3823 50.9419 30.7275C51.2872 31.0728 51.4811 31.541 51.4811 32.0293V33.8702Z" fill="url(#paint2_linear_1324_613)"/>
<path opacity="0.3" d="M29.9293 43.3132H69.351C70.5436 43.3132 71.6874 43.787 72.5307 44.6303C73.374 45.4736 73.8478 46.6173 73.8478 47.8099V49.5083H25.4326V47.8099C25.4326 46.6173 25.9064 45.4736 26.7497 44.6303C27.593 43.787 28.7367 43.3132 29.9293 43.3132V43.3132Z" fill="#003067"/>
<path d="M73.8478 49.316V69.5236C73.8478 70.52 73.4519 71.4756 72.7474 72.1802C72.0428 72.8848 71.0872 73.2806 70.0908 73.2806H29.1896C28.1932 73.2806 27.2376 72.8848 26.533 72.1802C25.8284 71.4756 25.4326 70.52 25.4326 69.5236V49.316C25.4326 48.3196 25.8284 47.364 26.533 46.6594C27.2376 45.9548 28.1932 45.559 29.1896 45.559H70.0908C71.0872 45.559 72.0428 45.9548 72.7474 46.6594C73.452 47.364 73.8478 48.3196 73.8478 49.316V49.316Z" fill="url(#paint3_linear_1324_613)"/>
<path opacity="0.2" d="M62.2224 73.2806C63.7836 70.2484 64.5595 66.873 64.4791 63.4634V55.853C64.4781 55.0704 64.1667 54.3202 63.6133 53.7669C63.0598 53.2137 62.3095 52.9025 61.5269 52.9018C56.731 52.9018 53.4801 51.9619 51.8589 50.1015C51.5785 49.7899 51.2357 49.5408 50.8526 49.3706C50.4696 49.2003 50.0549 49.1126 49.6357 49.1133C49.2165 49.1139 48.8022 49.2028 48.4196 49.3743C48.0371 49.5458 47.695 49.7959 47.4156 50.1084C45.8003 51.9619 42.5494 52.9018 37.7535 52.9018C36.9709 52.9025 36.2206 53.2137 35.6671 53.7669C35.1137 54.3202 34.8023 55.0704 34.8013 55.853V63.4633C34.7208 66.8729 35.4966 70.2483 37.0578 73.2805L62.2224 73.2806Z" fill="#003067"/>
<path d="M61.5269 54.9016C56.0517 54.9016 52.399 53.765 50.3567 51.4223C50.2646 51.3246 50.1536 51.2468 50.0303 51.1937C49.9071 51.1405 49.7743 51.1131 49.6401 51.1131C49.5059 51.1131 49.3731 51.1405 49.2498 51.1937C49.1266 51.2468 49.0155 51.3246 48.9235 51.4223C46.8813 53.765 43.2286 54.9016 37.7534 54.9016C37.6284 54.9015 37.5046 54.9261 37.3891 54.9739C37.2736 55.0217 37.1687 55.0918 37.0803 55.1802C36.9919 55.2686 36.9219 55.3735 36.8741 55.489C36.8263 55.6045 36.8017 55.7283 36.8018 55.8533V63.4631C36.8018 71.6895 40.5121 77.0683 49.2124 81.4416C49.3456 81.5069 49.4918 81.5411 49.6401 81.5418C49.789 81.5417 49.9356 81.506 50.0678 81.4378C58.768 77.0645 62.4785 71.6895 62.4785 63.4631V55.8533C62.478 55.6011 62.3776 55.3593 62.1992 55.1809C62.0209 55.0026 61.7791 54.9021 61.5269 54.9016Z" fill="url(#paint4_linear_1324_613)"/>
<path d="M49.618 52.0663C51.8313 54.6053 55.665 55.8537 61.3081 55.8537C61.3711 55.8537 61.435 55.8536 61.4985 55.8533V63.4631C61.4985 71.266 57.9483 76.3797 49.6524 80.566C41.3317 76.3836 37.7817 71.2687 37.7817 63.4631L37.7534 55.8816C43.5286 55.8816 47.424 54.6336 49.6269 52.0946L49.6401 52.093L49.618 52.0663M49.6401 51.1131C49.5055 51.1109 49.3721 51.1374 49.2485 51.1907C49.125 51.244 49.0142 51.3229 48.9234 51.4223C46.8812 53.7649 43.2286 54.9016 37.7534 54.9016C37.6284 54.9015 37.5046 54.9261 37.3891 54.9739C37.2737 55.0217 37.1687 55.0918 37.0803 55.1802C36.992 55.2686 36.9219 55.3735 36.8741 55.489C36.8263 55.6045 36.8017 55.7283 36.8018 55.8533V63.4631C36.8018 71.6895 40.5121 77.0683 49.2123 81.4416C49.3455 81.5069 49.4918 81.5411 49.6401 81.5418C49.7889 81.5417 49.9355 81.506 50.0677 81.4378C58.7681 77.0645 62.4785 71.6895 62.4785 63.4631V55.8533C62.478 55.6011 62.3775 55.3593 62.1992 55.181C62.0208 55.0026 61.7791 54.9022 61.5269 54.9016C56.0516 54.9016 52.3989 53.765 50.3567 51.4223C50.266 51.3229 50.1552 51.244 50.0316 51.1907C49.9081 51.1374 49.7747 51.1109 49.6401 51.1131L49.6401 51.1131Z" fill="url(#paint5_linear_1324_613)"/>
<path fill-rule="evenodd" clip-rule="evenodd" d="M44.3396 70.4417C43.8547 70.4417 43.3807 70.2979 42.9775 70.0286C42.5744 69.7592 42.2601 69.3763 42.0746 68.9283C41.889 68.4803 41.8405 67.9874 41.935 67.5118C42.0296 67.0362 42.2631 66.5994 42.606 66.2565C42.9489 65.9136 43.3857 65.6801 43.8613 65.5856C44.3369 65.491 44.8298 65.5395 45.2778 65.7251C45.7258 65.9106 46.1087 66.2249 46.3781 66.628C46.6474 67.0312 46.7912 67.5052 46.7912 67.9901C46.7912 68.6403 46.5329 69.2639 46.0731 69.7236C45.6134 70.1834 44.9898 70.4417 44.3396 70.4417V70.4417Z" fill="#1490DF"/>
<path fill-rule="evenodd" clip-rule="evenodd" d="M44.3396 64.0062C43.8547 64.0062 43.3807 63.8624 42.9775 63.593C42.5744 63.3236 42.2601 62.9407 42.0746 62.4927C41.889 62.0448 41.8405 61.5518 41.935 61.0762C42.0296 60.6007 42.2631 60.1638 42.606 59.8209C42.9489 59.4781 43.3857 59.2446 43.8613 59.15C44.3369 59.0554 44.8298 59.1039 45.2778 59.2895C45.7258 59.4751 46.1087 59.7893 46.3781 60.1925C46.6475 60.5957 46.7912 61.0697 46.7912 61.5546C46.7912 62.2048 46.5329 62.8283 46.0732 63.2881C45.6134 63.7479 44.9898 64.0062 44.3396 64.0062V64.0062Z" fill="#1F56A3"/>
<path fill-rule="evenodd" clip-rule="evenodd" d="M45.4659 60.8745C45.4084 60.817 45.3304 60.7847 45.2491 60.7847C45.1678 60.7847 45.0898 60.817 45.0323 60.8745L44.0214 61.8846L43.6563 61.523C43.6478 61.5103 43.6381 61.4984 43.6275 61.4874C43.5703 61.4303 43.4929 61.3981 43.4121 61.3978C43.3313 61.3974 43.2537 61.429 43.196 61.4857C43.1384 61.5424 43.1055 61.6195 43.1045 61.7003C43.1035 61.7811 43.1344 61.859 43.1906 61.9171L43.1869 61.9208L43.8055 62.5337C43.8631 62.5912 43.9411 62.6235 44.0224 62.6235C44.1038 62.6235 44.1818 62.5912 44.2393 62.5337L45.465 61.3086L45.4659 61.3078C45.4944 61.2794 45.517 61.2456 45.5324 61.2085C45.5478 61.1713 45.5557 61.1314 45.5557 61.0912C45.5557 61.0509 45.5478 61.0111 45.5324 60.9739C45.517 60.9367 45.4944 60.903 45.4659 60.8745V60.8745Z" fill="#E8E8E8"/>
<path fill-rule="evenodd" clip-rule="evenodd" d="M45.4659 67.1605C45.4084 67.103 45.3304 67.0707 45.2491 67.0707C45.1678 67.0707 45.0898 67.103 45.0323 67.1605L44.0214 68.1706L43.6563 67.809C43.6478 67.7963 43.6381 67.7844 43.6275 67.7734C43.5703 67.7163 43.4929 67.6841 43.4121 67.6837C43.3313 67.6834 43.2537 67.715 43.196 67.7717C43.1384 67.8283 43.1055 67.9055 43.1045 67.9863C43.1035 68.0671 43.1344 68.145 43.1906 68.2031L43.1869 68.2068L43.8055 68.8197C43.8631 68.8772 43.9411 68.9094 44.0224 68.9094C44.1038 68.9094 44.1818 68.8772 44.2393 68.8197L45.465 67.5946L45.4659 67.5938C45.4944 67.5654 45.517 67.5316 45.5324 67.4944C45.5478 67.4573 45.5557 67.4174 45.5557 67.3772C45.5557 67.3369 45.5478 67.2971 45.5324 67.2599C45.517 67.2227 45.4944 67.1889 45.4659 67.1605Z" fill="white"/>
<path d="M49.7038 62.7803H55.5535C55.7973 62.7803 56.0312 62.8772 56.2036 63.0496C56.376 63.222 56.4729 63.4559 56.4729 63.6997V63.6997C56.4729 63.9435 56.376 64.1774 56.2036 64.3498C56.0312 64.5222 55.7973 64.6191 55.5535 64.6191H49.7038C49.46 64.6191 49.2261 64.5222 49.0537 64.3498C48.8813 64.1774 48.7844 63.9435 48.7844 63.6997C48.7844 63.4559 48.8813 63.222 49.0537 63.0496C49.2261 62.8772 49.46 62.7803 49.7038 62.7803Z" fill="white"/>
<path d="M49.7038 59.1029H56.4729C56.7167 59.1029 56.9506 59.1998 57.123 59.3722C57.2954 59.5446 57.3922 59.7784 57.3922 60.0223V60.0223C57.3922 60.2661 57.2954 60.4999 57.123 60.6723C56.9505 60.8448 56.7167 60.9416 56.4729 60.9416H49.7038C49.46 60.9416 49.2261 60.8448 49.0537 60.6723C48.8813 60.4999 48.7844 60.2661 48.7844 60.0223C48.7844 59.7784 48.8813 59.5446 49.0537 59.3722C49.2261 59.1998 49.46 59.1029 49.7038 59.1029V59.1029Z" fill="white"/>
<path d="M49.7038 66.4578H56.4729C56.7167 66.4578 56.9505 66.5547 57.123 66.7271C57.2954 66.8995 57.3922 67.1333 57.3922 67.3772C57.3922 67.621 57.2954 67.8548 57.123 68.0273C56.9506 68.1997 56.7167 68.2965 56.4729 68.2965H49.7038C49.46 68.2965 49.2261 68.1997 49.0537 68.0273C48.8813 67.8548 48.7844 67.621 48.7844 67.3772V67.3772C48.7844 67.1333 48.8813 66.8995 49.0537 66.7271C49.2261 66.5547 49.46 66.4578 49.7038 66.4578Z" fill="white"/>
<path d="M49.7038 70.1352H54.1745C54.4183 70.1352 54.6521 70.2321 54.8246 70.4045C54.997 70.5769 55.0938 70.8108 55.0938 71.0546V71.0546C55.0938 71.2984 54.997 71.5323 54.8246 71.7047C54.6521 71.8771 54.4183 71.974 54.1745 71.974H49.7038C49.46 71.974 49.2261 71.8771 49.0537 71.7047C48.8813 71.5323 48.7844 71.2984 48.7844 71.0546C48.7844 70.8108 48.8813 70.5769 49.0537 70.4045C49.2261 70.2321 49.46 70.1352 49.7038 70.1352V70.1352Z" fill="white"/>
</g>
<defs>
<linearGradient id="paint0_linear_1324_613" x1="47.8698" y1="-15.1532" x2="51.8525" y2="130.615" gradientUnits="userSpaceOnUse">
<stop stop-color="#00ABDE"/>
<stop offset="1" stop-color="#007ED8"/>
</linearGradient>
<linearGradient id="paint1_linear_1324_613" x1="49.6402" y1="35.4562" x2="49.6402" y2="52.2994" gradientUnits="userSpaceOnUse">
<stop stop-color="#005BA1"/>
<stop offset="0.26" stop-color="#00589D"/>
<stop offset="0.53" stop-color="#004F90"/>
<stop offset="0.8" stop-color="#003F7C"/>
<stop offset="1" stop-color="#003067"/>
</linearGradient>
<linearGradient id="paint2_linear_1324_613" x1="49.6402" y1="46.7568" x2="49.6402" y2="28.3474" gradientUnits="userSpaceOnUse">
<stop stop-color="#004DAE"/>
<stop offset="0.21" stop-color="#0061C4"/>
<stop offset="0.51" stop-color="#0078DD"/>
<stop offset="0.78" stop-color="#0086EC"/>
<stop offset="1" stop-color="#008BF1"/>
</linearGradient>
<linearGradient id="paint3_linear_1324_613" x1="49.6402" y1="45.5591" x2="49.6402" y2="73.2806" gradientUnits="userSpaceOnUse">
<stop stop-color="#008BF1"/>
<stop offset="0.22" stop-color="#0086EC"/>
<stop offset="0.49" stop-color="#0078DD"/>
<stop offset="0.79" stop-color="#0061C4"/>
<stop offset="1" stop-color="#004DAE"/>
</linearGradient>
<linearGradient id="paint4_linear_1324_613" x1="49.6401" y1="81.5418" x2="49.6401" y2="51.1131" gradientUnits="userSpaceOnUse">
<stop stop-color="#008BF1"/>
<stop offset="0.99498" stop-color="#0078D4"/>
</linearGradient>
<linearGradient id="paint5_linear_1324_613" x1="49.6401" y1="51.1131" x2="49.6401" y2="81.5418" gradientUnits="userSpaceOnUse">
<stop stop-color="#008BF1"/>
<stop offset="0.22" stop-color="#0086EC"/>
<stop offset="0.49" stop-color="#0078DD"/>
<stop offset="0.79" stop-color="#0061C4"/>
<stop offset="1" stop-color="#004DAE"/>
</linearGradient>
<clipPath id="clip0_1324_613">
<rect width="99.2799" height="99.28" fill="white"/>
</clipPath>
</defs>
</svg>
