<svg width="103" height="103" viewBox="0 0 103 103" fill="none" xmlns="http://www.w3.org/2000/svg">
<path d="M51.4224 98.7997C25.5724 98.7997 4.61237 77.8497 4.61237 51.9897C4.61237 26.1297 25.5724 5.17969 51.4224 5.17969C77.2724 5.17969 98.2324 26.1397 98.2324 51.9897C98.2324 77.8397 77.2724 98.7997 51.4224 98.7997Z" fill="url(#paint0_linear)"/>
<path fill-rule="evenodd" clip-rule="evenodd" d="M97.3223 51.9896C97.3223 77.3396 76.7723 97.8896 51.4223 97.8896C26.0723 97.8896 5.52235 77.3396 5.52235 51.9896C5.52235 26.6396 26.0723 6.08961 51.4223 6.08961C76.7723 6.08961 97.3223 26.6396 97.3223 51.9896ZM51.4223 2.34961C78.8423 2.34961 101.062 24.5696 101.062 51.9896C101.062 79.4096 78.8323 101.63 51.4223 101.63C24.0023 101.63 1.78235 79.3996 1.78235 51.9896C1.78235 24.5696 24.0023 2.34961 51.4223 2.34961Z" fill="#F2F1F0"/>
<path fill-rule="evenodd" clip-rule="evenodd" d="M94.5123 51.9897C94.5123 75.7897 75.2223 95.0797 51.4223 95.0797C27.6223 95.0797 8.33235 75.7897 8.33235 51.9897C8.33235 28.1897 27.6223 8.89967 51.4223 8.89967C75.2223 8.89967 94.5123 28.1897 94.5123 51.9897ZM51.4223 5.15967C77.2823 5.15967 98.2523 26.1297 98.2523 51.9897C98.2523 77.8497 77.2823 98.8197 51.4223 98.8197C25.5623 98.8197 4.59235 77.8497 4.59235 51.9897C4.59235 26.1297 25.5523 5.15967 51.4223 5.15967Z" fill="#0078D4"/>
<path opacity="0.15" d="M21.0223 74.4298H81.9423V31.0898H21.0223V74.4298Z" fill="#1F1D20"/>
<path d="M21.0223 71.7299H81.9423V28.3799H21.0223V71.7299Z" fill="#D5F9FD"/>
<path d="M21.0223 33.0297H81.9223V27.1997H21.0223V33.0297Z" fill="#50E6FF"/>
<path d="M25.3223 31.6596C26.1123 31.6596 26.7423 31.0296 26.7423 30.2396C26.7423 29.4496 26.1123 28.8096 25.3223 28.8096C24.5323 28.8096 23.9023 29.4396 23.9023 30.2296C23.9023 31.0196 24.5323 31.6596 25.3223 31.6596Z" fill="#45CAF2"/>
<path d="M28.5024 38.3301H26.7924V65.7701H28.5024V38.3301Z" fill="url(#paint1_linear)"/>
<path d="M55.7424 65.7803V64.0703H26.8024V65.7803H55.7424Z" fill="url(#paint2_linear)"/>
<path d="M46.4924 48.2798H51.7024C52.1924 48.2798 52.5924 48.6798 52.5924 49.1698V53.9198C52.5924 55.7298 51.1224 57.1998 49.3124 57.1998H49.2924C47.4824 57.1998 46.0124 55.7298 46.0124 53.9298V48.7598C46.0224 48.4898 46.2324 48.2798 46.4924 48.2798Z" fill="#5059C9"/>
<path d="M50.0124 47.3396C51.1824 47.3396 52.1224 46.3896 52.1224 45.2296C52.1224 44.0596 51.1724 43.1196 50.0124 43.1196C48.8424 43.1196 47.9024 44.0596 47.9024 45.2296C47.9024 46.3996 48.8424 47.3396 50.0124 47.3396Z" fill="#5059C9"/>
<path d="M43.4424 47.3397C45.1224 47.3397 46.4924 45.9697 46.4924 44.2897C46.4924 42.6097 45.1324 41.2397 43.4424 41.2397C41.7624 41.2397 40.3924 42.6097 40.3924 44.2897C40.3924 45.9797 41.7624 47.3397 43.4424 47.3397Z" fill="#7B83EB"/>
<path d="M47.5124 48.2798H38.9124C38.4224 48.2898 38.0424 48.6998 38.0524 49.1798V54.5898C37.9824 57.5098 40.2924 59.9298 43.2124 59.9998C46.1324 59.9298 48.4424 57.5098 48.3724 54.5898V49.1798C48.3824 48.6998 48.0024 48.2898 47.5124 48.2798Z" fill="#7B83EB"/>
<path opacity="0.1" d="M43.6824 48.2798V55.8598C43.6824 56.2098 43.4724 56.5198 43.1524 56.6498C43.0524 56.6898 42.9424 56.7198 42.8324 56.7198H38.4724C38.4124 56.5698 38.3524 56.4098 38.3124 56.2498C38.1524 55.7098 38.0624 55.1498 38.0624 54.5898V49.1798C38.0524 48.6898 38.4324 48.2898 38.9224 48.2798H43.6824Z" fill="black"/>
<path opacity="0.2" d="M43.2124 48.2795V56.3295C43.2124 56.4395 43.1924 56.5495 43.1424 56.6495C43.0124 56.9695 42.7024 57.1795 42.3524 57.1795H38.6824C38.6024 57.0295 38.5324 56.8695 38.4624 56.7095C38.3924 56.5495 38.3424 56.3995 38.3024 56.2395C38.1424 55.6995 38.0524 55.1395 38.0524 54.5795V49.1695C38.0424 48.6795 38.4224 48.2795 38.9124 48.2695H43.2124V48.2795Z" fill="black"/>
<path opacity="0.2" d="M43.2124 48.2798V55.3998C43.2124 55.8698 42.8224 56.2498 42.3524 56.2598H38.3024C38.1424 55.7198 38.0524 55.1598 38.0524 54.5998V49.1898C38.0424 48.6998 38.4224 48.2998 38.9124 48.2898H43.2124V48.2798Z" fill="black"/>
<path opacity="0.2" d="M42.7424 48.2798V55.3998C42.7424 55.8698 42.3524 56.2498 41.8824 56.2598H38.3024C38.1424 55.7198 38.0524 55.1598 38.0524 54.5998V49.1898C38.0424 48.6998 38.4224 48.2998 38.9124 48.2898H42.7424V48.2798Z" fill="black"/>
<path opacity="0.1" d="M43.6824 45.8595V47.3395C43.6024 47.3395 43.5324 47.3495 43.4524 47.3495C43.3724 47.3495 43.3024 47.3495 43.2224 47.3395C43.0624 47.3295 42.9024 47.2995 42.7524 47.2595C41.8024 47.0395 41.0224 46.3695 40.6424 45.4695C40.5824 45.3195 40.5224 45.1595 40.4924 44.9995H42.8324C43.2924 44.9995 43.6824 45.3795 43.6824 45.8595Z" fill="black"/>
<path opacity="0.2" d="M43.2124 46.3297V47.3397C43.0524 47.3297 42.8924 47.2997 42.7424 47.2597C41.7924 47.0397 41.0124 46.3697 40.6324 45.4697H42.3524C42.8224 45.4697 43.2124 45.8497 43.2124 46.3297Z" fill="black"/>
<path opacity="0.2" d="M43.2124 46.3297V47.3397C43.0524 47.3297 42.8924 47.2997 42.7424 47.2597C41.7924 47.0397 41.0124 46.3697 40.6324 45.4697H42.3524C42.8224 45.4697 43.2124 45.8497 43.2124 46.3297Z" fill="black"/>
<path opacity="0.2" d="M42.7424 46.3297V47.2597C41.7924 47.0397 41.0124 46.3697 40.6324 45.4697H41.8824C42.3624 45.4697 42.7424 45.8497 42.7424 46.3297Z" fill="black"/>
<path d="M33.3124 45.46H41.9124C42.3824 45.46 42.7724 45.84 42.7724 46.32V54.92C42.7724 55.39 42.3924 55.78 41.9124 55.78H33.3124C32.8424 55.78 32.4524 55.4 32.4524 54.92V46.32C32.4524 45.84 32.8324 45.46 33.3124 45.46Z" fill="url(#paint3_linear)"/>
<path d="M39.8424 48.7396H38.1224V53.4196H37.0224V48.7396H35.3224V47.8296H39.8524V48.7396H39.8424Z" fill="white"/>
<path d="M75.2724 42.1699C75.9793 42.1699 76.5524 41.5968 76.5524 40.8899C76.5524 40.1829 75.9793 39.6099 75.2724 39.6099C74.5654 39.6099 73.9924 40.1829 73.9924 40.8899C73.9924 41.5968 74.5654 42.1699 75.2724 42.1699Z" fill="white"/>
<path d="M71.7223 45.3295C72.4293 45.3295 73.0023 44.7565 73.0023 44.0495C73.0023 43.3426 72.4293 42.7695 71.7223 42.7695C71.0154 42.7695 70.4423 43.3426 70.4423 44.0495C70.4423 44.7565 71.0154 45.3295 71.7223 45.3295Z" fill="white"/>
<path d="M68.5124 40.2299C69.2193 40.2299 69.7924 39.6568 69.7924 38.9499C69.7924 38.243 69.2193 37.6699 68.5124 37.6699C67.8054 37.6699 67.2324 38.243 67.2324 38.9499C67.2324 39.6568 67.8054 40.2299 68.5124 40.2299Z" fill="white"/>
<path d="M62.5124 44.4799C63.2193 44.4799 63.7924 43.9068 63.7924 43.1999C63.7924 42.493 63.2193 41.9199 62.5124 41.9199C61.8054 41.9199 61.2324 42.493 61.2324 43.1999C61.2324 43.9068 61.8054 44.4799 62.5124 44.4799Z" fill="white"/>
<path fill-rule="evenodd" clip-rule="evenodd" d="M75.2623 39.0797C76.2123 39.0797 76.9724 39.8497 76.9724 40.7897C76.9724 41.7297 76.2023 42.4997 75.2623 42.4997C74.9323 42.4997 74.6324 42.3997 74.3624 42.2497L73.2123 43.0997C73.3523 43.3497 73.4324 43.6297 73.4324 43.9297C73.4324 44.8797 72.6624 45.6497 71.7224 45.6497C70.7724 45.6497 70.0123 44.8797 70.0123 43.9297C70.0123 43.4097 70.2424 42.9497 70.6124 42.6297L69.1923 40.4797C68.9723 40.5897 68.7223 40.6497 68.4523 40.6497C68.0723 40.6497 67.7124 40.5197 67.4324 40.3097C66.2824 41.2997 65.1223 42.2697 64.2523 42.9797C64.2523 43.0297 64.2623 43.0897 64.2623 43.1397C64.2623 44.0897 63.4923 44.8497 62.5523 44.8497C61.6023 44.8497 60.8423 44.0797 60.8423 43.1397C60.8423 42.1997 61.6123 41.4297 62.5523 41.4297C63.1423 41.4297 63.6623 41.7297 63.9723 42.1797C64.8223 41.4797 65.9123 40.5597 66.9223 39.6997C66.8123 39.4697 66.7423 39.2197 66.7423 38.9497C66.7423 37.9997 67.5123 37.2397 68.4523 37.2397C69.3923 37.2397 70.1623 38.0097 70.1623 38.9497C70.1623 39.3397 70.0323 39.6997 69.8123 39.9797L71.3324 42.2697C71.4624 42.2397 71.5923 42.2197 71.7323 42.2197C72.0823 42.2197 72.4024 42.3197 72.6824 42.5097L73.8123 41.6697C73.6523 41.4097 73.5623 41.1097 73.5623 40.7897C73.5423 39.8497 74.3123 39.0797 75.2623 39.0797ZM75.2623 41.7097C75.7623 41.7097 76.1723 41.2997 76.1723 40.7997C76.1723 40.2997 75.7623 39.8897 75.2623 39.8897C74.7623 39.8897 74.3523 40.2997 74.3523 40.7997C74.3423 41.2997 74.7523 41.7097 75.2623 41.7097ZM71.7123 44.8597C72.2123 44.8597 72.6223 44.4497 72.6223 43.9497C72.6223 43.4497 72.2123 43.0397 71.7123 43.0397C71.2123 43.0397 70.8023 43.4497 70.8023 43.9497C70.8023 44.4497 71.2123 44.8597 71.7123 44.8597ZM68.4324 39.8697C68.9324 39.8697 69.3423 39.4597 69.3423 38.9597C69.3423 38.4597 68.9324 38.0497 68.4324 38.0497C67.9324 38.0497 67.5223 38.4597 67.5223 38.9597C67.5223 39.4597 67.9324 39.8697 68.4324 39.8697ZM62.5223 44.0697C63.0223 44.0697 63.4323 43.6597 63.4323 43.1597C63.4323 42.6597 63.0223 42.2497 62.5223 42.2497C62.0223 42.2497 61.6123 42.6597 61.6123 43.1597C61.6123 43.6697 62.0223 44.0697 62.5223 44.0697Z" fill="url(#paint4_linear)"/>
<path fill-rule="evenodd" clip-rule="evenodd" d="M65.4824 52.1699H77.3324V50.1099H65.4824V52.1699Z" fill="#50E6FF"/>
<path fill-rule="evenodd" clip-rule="evenodd" d="M65.4824 52.1699H70.4724V50.1099H65.4824V52.1699Z" fill="url(#paint5_linear)"/>
<path fill-rule="evenodd" clip-rule="evenodd" d="M65.4824 58.0297H77.3324V55.9697H65.4824V58.0297Z" fill="#50E6FF"/>
<path fill-rule="evenodd" clip-rule="evenodd" d="M65.4824 58.0297H73.3824V55.9697H65.4824V58.0297Z" fill="url(#paint6_linear)"/>
<path fill-rule="evenodd" clip-rule="evenodd" d="M65.4824 63.8901H77.3324V61.8301H65.4824V63.8901Z" fill="#50E6FF"/>
<path fill-rule="evenodd" clip-rule="evenodd" d="M65.4824 63.8901H75.3524V61.8301H65.4824V63.8901Z" fill="url(#paint7_linear)"/>
<path opacity="0.2" fill-rule="evenodd" clip-rule="evenodd" d="M64.5824 51.4298C64.5824 52.7298 63.5324 53.7898 62.2224 53.7898C60.9224 53.7898 59.8624 52.7398 59.8624 51.4298C59.8624 50.1298 60.9124 49.0698 62.2124 49.0698C63.5224 49.0698 64.5824 50.1298 64.5824 51.4298Z" fill="#1F1D21"/>
<path fill-rule="evenodd" clip-rule="evenodd" d="M64.5824 50.9899C64.5824 52.2899 63.5324 53.3499 62.2224 53.3499C60.9224 53.3499 59.8624 52.2999 59.8624 50.9899C59.8624 49.6899 60.9124 48.6299 62.2124 48.6299C63.5224 48.6299 64.5824 49.6899 64.5824 50.9899Z" fill="white"/>
<path d="M63.5123 52.1099C63.4323 51.4299 62.8523 50.8999 62.1523 50.8999C61.4523 50.8999 60.8723 51.4199 60.7923 52.0999C60.7823 52.1499 60.7823 52.1999 60.7823 52.2499C60.8023 52.4399 60.9323 52.6299 61.1823 52.7699C61.7223 53.0799 62.5923 53.0799 63.1223 52.7699C63.3723 52.6199 63.5023 52.4399 63.5223 52.2499C63.5223 52.1999 63.5123 52.1499 63.5123 52.1099Z" fill="#002D4C"/>
<path d="M62.1524 50.7098C62.6124 50.7098 62.9824 50.3398 62.9824 49.8898C62.9824 49.4398 62.6124 49.0698 62.1524 49.0698C61.6924 49.0698 61.3224 49.4398 61.3224 49.8898C61.3224 50.3398 61.6924 50.7098 62.1524 50.7098Z" fill="#002D4C"/>
<path opacity="0.2" fill-rule="evenodd" clip-rule="evenodd" d="M64.5824 57.1896C64.5824 58.4896 63.5324 59.5496 62.2224 59.5496C60.9224 59.5496 59.8624 58.4996 59.8624 57.1896C59.8624 55.8896 60.9124 54.8296 62.2124 54.8296C63.5224 54.8296 64.5824 55.8896 64.5824 57.1896Z" fill="#1F1D21"/>
<path fill-rule="evenodd" clip-rule="evenodd" d="M64.5824 56.7496C64.5824 58.0496 63.5324 59.1096 62.2224 59.1096C60.9224 59.1096 59.8624 58.0596 59.8624 56.7496C59.8624 55.4496 60.9124 54.3896 62.2124 54.3896C63.5224 54.3896 64.5824 55.4496 64.5824 56.7496Z" fill="white"/>
<path d="M63.5123 57.8794C63.4323 57.1994 62.8523 56.6694 62.1523 56.6694C61.4523 56.6694 60.8723 57.1894 60.7923 57.8694C60.7823 57.9194 60.7823 57.9694 60.7823 58.0194C60.8023 58.2094 60.9323 58.3994 61.1823 58.5394C61.7223 58.8494 62.5923 58.8494 63.1223 58.5394C63.3723 58.3894 63.5023 58.2094 63.5223 58.0194C63.5223 57.9594 63.5123 57.9194 63.5123 57.8794Z" fill="#002D4C"/>
<path d="M62.1524 56.4696C62.6124 56.4696 62.9824 56.0996 62.9824 55.6496C62.9824 55.1996 62.6124 54.8296 62.1524 54.8296C61.6924 54.8296 61.3224 55.1996 61.3224 55.6496C61.3224 56.0996 61.6924 56.4696 62.1524 56.4696Z" fill="#002D4C"/>
<path opacity="0.2" fill-rule="evenodd" clip-rule="evenodd" d="M64.5824 62.9601C64.5824 64.2601 63.5324 65.3201 62.2224 65.3201C60.9224 65.3201 59.8624 64.2701 59.8624 62.9601C59.8624 61.6601 60.9124 60.6001 62.2124 60.6001C63.5224 60.6001 64.5824 61.6501 64.5824 62.9601Z" fill="#1F1D21"/>
<path fill-rule="evenodd" clip-rule="evenodd" d="M64.5824 62.5099C64.5824 63.8099 63.5324 64.8699 62.2224 64.8699C60.9224 64.8699 59.8624 63.8199 59.8624 62.5099C59.8624 61.2099 60.9124 60.1499 62.2124 60.1499C63.5224 60.1599 64.5824 61.2099 64.5824 62.5099Z" fill="white"/>
<path d="M63.5123 63.6397C63.4323 62.9597 62.8523 62.4297 62.1523 62.4297C61.4523 62.4297 60.8723 62.9497 60.7923 63.6297C60.7823 63.6797 60.7823 63.7297 60.7823 63.7797C60.8023 63.9697 60.9323 64.1597 61.1823 64.2997C61.7223 64.6097 62.5923 64.6097 63.1223 64.2997C63.3723 64.1497 63.5023 63.9697 63.5223 63.7797C63.5223 63.7297 63.5123 63.6797 63.5123 63.6397Z" fill="#002D4C"/>
<path d="M62.1524 62.2298C62.6124 62.2298 62.9824 61.8598 62.9824 61.4098C62.9824 60.9598 62.6124 60.5898 62.1524 60.5898C61.6924 60.5898 61.3224 60.9598 61.3224 61.4098C61.3224 61.8598 61.6924 62.2298 62.1524 62.2298Z" fill="#002D4C"/>
<defs>
<linearGradient id="paint0_linear" x1="49.6524" y1="-12.8032" x2="53.6352" y2="132.965" gradientUnits="userSpaceOnUse">
<stop stop-color="#00ABDE"/>
<stop offset="1" stop-color="#007ED8"/>
</linearGradient>
<linearGradient id="paint1_linear" x1="26.7949" y1="52.0518" x2="28.5059" y2="52.0518" gradientUnits="userSpaceOnUse">
<stop stop-color="#5A62C3"/>
<stop offset="0.5" stop-color="#4D55BD"/>
<stop offset="1" stop-color="#3940AB"/>
</linearGradient>
<linearGradient id="paint2_linear" x1="26.8007" y1="64.926" x2="55.7451" y2="64.926" gradientUnits="userSpaceOnUse">
<stop stop-color="#5A62C3"/>
<stop offset="0.5" stop-color="#4D55BD"/>
<stop offset="1" stop-color="#3940AB"/>
</linearGradient>
<linearGradient id="paint3_linear" x1="34.2432" y1="44.7864" x2="40.977" y2="56.449" gradientUnits="userSpaceOnUse">
<stop stop-color="#5A62C3"/>
<stop offset="0.5" stop-color="#4D55BD"/>
<stop offset="1" stop-color="#3940AB"/>
</linearGradient>
<linearGradient id="paint4_linear" x1="61.7192" y1="38.3719" x2="77.6832" y2="46.3904" gradientUnits="userSpaceOnUse">
<stop stop-color="#5A62C3"/>
<stop offset="0.5" stop-color="#4D55BD"/>
<stop offset="1" stop-color="#3940AB"/>
</linearGradient>
<linearGradient id="paint5_linear" x1="57.3267" y1="47.2043" x2="84.5635" y2="57.2758" gradientUnits="userSpaceOnUse">
<stop stop-color="#5A62C3"/>
<stop offset="0.5" stop-color="#4D55BD"/>
<stop offset="1" stop-color="#3940AB"/>
</linearGradient>
<linearGradient id="paint6_linear" x1="56.3346" y1="52.155" x2="83.5713" y2="62.2265" gradientUnits="userSpaceOnUse">
<stop stop-color="#5A62C3"/>
<stop offset="0.5" stop-color="#4D55BD"/>
<stop offset="1" stop-color="#3940AB"/>
</linearGradient>
<linearGradient id="paint7_linear" x1="54.3447" y1="56.9142" x2="87.7639" y2="69.2718" gradientUnits="userSpaceOnUse">
<stop stop-color="#5A62C3"/>
<stop offset="0.5" stop-color="#4D55BD"/>
<stop offset="1" stop-color="#3940AB"/>
</linearGradient>
</defs>
</svg>
