<svg width="100" height="100" viewBox="0 0 100 100" fill="none" xmlns="http://www.w3.org/2000/svg">
<g clip-path="url(#clip0_459_5781)">
<path d="M49.6401 96.4499C40.382 96.4499 31.3317 93.7045 23.6339 88.561C15.936 83.4174 9.93624 76.1067 6.3933 67.5533C2.85036 58.9999 1.92337 49.588 3.72954 40.5077C5.53571 31.4275 9.99394 23.0867 16.5404 16.5402C23.0869 9.99372 31.4277 5.5355 40.5079 3.72933C49.5882 1.92315 59.0001 2.85015 67.5535 6.39308C76.1069 9.93602 83.4176 15.9358 88.5612 23.6336C93.7047 31.3315 96.4501 40.3817 96.4501 49.6399C96.4505 55.7872 95.24 61.8744 92.8878 67.5538C90.5355 73.2332 87.0875 78.3937 82.7407 82.7405C78.3939 87.0873 73.2335 90.5353 67.554 92.8876C61.8746 95.2398 55.7874 96.4503 49.6401 96.4499V96.4499Z" fill="url(#paint0_linear_459_5781)"/>
<path fill-rule="evenodd" clip-rule="evenodd" d="M95.54 49.6399C95.54 58.718 92.848 67.5923 87.8045 75.1406C82.7609 82.6888 75.5923 88.5719 67.2052 92.046C58.818 95.52 49.5891 96.429 40.6854 94.6579C31.7816 92.8869 23.603 88.5153 17.1838 82.0961C10.7646 75.6769 6.39302 67.4983 4.62196 58.5945C2.85089 49.6908 3.75987 40.4618 7.23393 32.0747C10.708 23.6876 16.5911 16.519 24.1393 11.4754C31.6875 6.43187 40.5618 3.73988 49.64 3.73988C55.6677 3.73986 61.6363 4.92708 67.2052 7.23377C72.774 9.54045 77.834 12.9214 82.0963 17.1836C86.3585 21.4458 89.7394 26.5058 92.0461 32.0747C94.3528 37.6435 95.54 43.6122 95.54 49.6399V49.6399ZM49.64 -0.000106449C59.4579 -0.000106449 69.0552 2.91123 77.2185 8.36574C85.3818 13.8203 91.7442 21.573 95.5014 30.6435C99.2585 39.714 100.242 49.695 98.3262 59.3242C96.4108 68.9534 91.6831 77.7984 84.7408 84.7407C77.7985 91.683 68.9535 96.4107 59.3243 98.3261C49.6951 100.241 39.7141 99.2584 30.6436 95.5013C21.5731 91.7441 13.8204 85.3816 8.36584 77.2184C2.91133 69.0551 -1.61629e-06 59.4577 3.61524e-07 49.6399C-0.000786426 43.1208 1.28265 36.6655 3.77702 30.6425C6.27138 24.6196 9.92781 19.147 14.5375 14.5374C19.1471 9.9277 24.6197 6.27127 30.6427 3.77691C36.6656 1.28254 43.121 -0.000894549 49.64 -0.000106449V-0.000106449Z" fill="#F2F1F0"/>
<path fill-rule="evenodd" clip-rule="evenodd" d="M92.7296 49.64C92.7296 58.1624 90.2024 66.4934 85.4676 73.5795C80.7328 80.6656 74.0031 86.1886 66.1294 89.45C58.2557 92.7113 49.5918 93.5647 41.2331 91.902C32.8745 90.2394 25.1966 86.1355 19.1703 80.1092C13.1441 74.083 9.04017 66.4051 7.37753 58.0464C5.7149 49.6878 6.56822 41.0238 9.8296 33.1502C13.091 25.2765 18.6139 18.5468 25.7 13.812C32.7862 9.07718 41.1172 6.55 49.6396 6.55C55.2983 6.54965 60.9017 7.66397 66.1298 9.82933C71.3579 11.9947 76.1082 15.1687 80.1096 19.17C84.1109 23.1713 87.2849 27.9217 89.4502 33.1498C91.6156 38.3778 92.7299 43.9812 92.7296 49.64ZM49.6396 2.81C58.9017 2.81 67.9558 5.55653 75.6569 10.7023C83.3581 15.848 89.3604 23.1619 92.9049 31.7189C96.4493 40.276 97.3767 49.6919 95.5697 58.7761C93.7628 67.8602 89.3027 76.2045 82.7534 82.7538C76.2041 89.3031 67.8598 93.7632 58.7757 95.5702C49.6915 97.3771 40.2756 96.4497 31.7185 92.9053C23.1614 89.3608 15.8476 83.3585 10.7018 75.6574C5.5561 67.9562 2.80957 58.9021 2.80957 49.64C2.81076 37.2203 7.74501 25.3096 16.5271 16.5275C25.3091 7.74544 37.2198 2.81119 49.6396 2.81V2.81Z" fill="#0078D4"/>
<path fill-rule="evenodd" clip-rule="evenodd" d="M92.7296 49.6399C92.7296 58.1623 90.2024 66.4933 85.4676 73.5794C80.7328 80.6655 74.0031 86.1885 66.1294 89.4499C58.2557 92.7112 49.5918 93.5646 41.2331 91.9019C32.8745 90.2393 25.1966 86.1354 19.1703 80.1091C13.1441 74.0829 9.04017 66.405 7.37753 58.0463C5.7149 49.6877 6.56822 41.0237 9.8296 33.1501C13.091 25.2764 18.6139 18.5467 25.7001 13.8119C32.7862 9.07708 41.1172 6.5499 49.6396 6.5499C55.2983 6.54956 60.9017 7.66388 66.1298 9.82923C71.3579 11.9946 76.1082 15.1686 80.1096 19.1699C84.1109 23.1712 87.2849 27.9216 89.4502 33.1497C91.6156 38.3777 92.7299 43.9811 92.7296 49.6399V49.6399ZM49.6396 2.8099C58.9017 2.8099 67.9558 5.55643 75.6569 10.7022C83.3581 15.8479 89.3604 23.1618 92.9048 31.7188C96.4493 40.2759 97.3767 49.6918 95.5697 58.776C93.7628 67.8601 89.3027 76.2044 82.7534 82.7537C76.2041 89.303 67.8598 93.7631 58.7757 95.5701C49.6915 97.377 40.2756 96.4496 31.7185 92.9052C23.1614 89.3607 15.8476 83.3584 10.7018 75.6573C5.5561 67.9561 2.80957 58.902 2.80957 49.6399C2.81075 37.2202 7.74499 25.3095 16.5271 16.5274C25.3091 7.7453 37.2198 2.81105 49.6396 2.80986V2.8099Z" fill="#0078D4"/>
<path d="M46.4465 21.6329C50.0323 21.6344 53.5708 22.4513 56.7944 24.0219C60.018 25.5925 62.8422 27.8756 65.0533 30.6986C67.2645 33.5215 68.8047 36.8103 69.5574 40.3163C70.3102 43.8222 70.2558 47.4534 69.3983 50.9352C68.5409 54.417 66.9028 57.6582 64.6081 60.4137C62.3134 63.1691 59.422 65.3666 56.1529 66.8399C52.8837 68.3132 49.3222 69.0238 45.738 68.9178C42.1537 68.8118 38.6405 67.8921 35.464 66.2283L25.3182 68.8697C24.9791 68.9581 24.6228 68.9562 24.2846 68.8643C23.9464 68.7725 23.6381 68.5938 23.3903 68.346C23.1425 68.0982 22.9638 67.79 22.8719 67.4518C22.78 67.1136 22.7781 66.7573 22.8664 66.4182L25.5063 56.2772C23.6153 52.6725 22.6865 48.6408 22.8097 44.5721C22.9329 40.5034 24.1039 36.5353 26.2096 33.0516C28.3152 29.568 31.2842 26.6866 34.8294 24.6863C38.3745 22.6859 42.3759 21.6342 46.4465 21.6329V21.6329Z" fill="url(#paint1_linear_459_5781)"/>
<path d="M46.4466 23.7025C49.7184 23.704 52.9471 24.4495 55.8884 25.8827C58.8297 27.3158 61.4066 29.3991 63.4241 31.9749C65.4416 34.5507 66.847 37.5515 67.5339 40.7505C68.2208 43.9494 68.1712 47.2627 67.3889 50.4397C66.6066 53.6166 65.1121 56.5741 63.0184 59.0884C60.9248 61.6027 58.2867 63.6079 55.3039 64.9524C52.321 66.2969 49.0715 66.9455 45.8011 66.8492C42.5306 66.7528 39.3249 65.9139 36.4264 64.396L35.7176 64.0237L34.9425 64.2254L24.8943 66.8436L27.5093 56.7985L27.7112 56.0227L27.3379 55.3133C25.6128 52.024 24.7657 48.3453 24.8784 44.6328C24.9911 40.9203 26.0598 37.2998 27.9812 34.1212C29.9027 30.9427 32.6118 28.3137 35.8466 26.4885C39.0814 24.6633 42.7324 23.7037 46.4466 23.7025V23.7025ZM46.4466 21.6329C42.376 21.6342 38.3746 22.6858 34.8294 24.6862C31.2842 26.6865 28.3152 29.5679 26.2096 33.0515C24.1039 36.5352 22.9329 40.5033 22.8097 44.572C22.6865 48.6408 23.6153 52.6724 25.5064 56.2771L22.8665 66.4181C22.7777 66.7573 22.7793 67.1138 22.8711 67.4522C22.9628 67.7905 23.1415 68.099 23.3895 68.3469C23.6374 68.5948 23.9458 68.7735 24.2842 68.8652C24.6226 68.9569 24.9791 68.9584 25.3183 68.8697L35.464 66.2282C38.6407 67.8936 42.1547 68.8146 45.7399 68.9215C49.325 69.0284 52.8876 68.3184 56.1579 66.8452C59.4282 65.3721 62.3206 63.1744 64.6162 60.4184C66.9117 57.6624 68.5504 54.4204 69.4081 50.9377C70.2658 47.4549 70.3201 43.8227 69.5668 40.3159C68.8136 36.8091 67.2726 33.5196 65.0604 30.6963C62.8482 27.8729 60.0227 25.5898 56.7979 24.0195C53.5731 22.4493 50.0333 21.6332 46.4466 21.6329V21.6329Z" fill="url(#paint2_linear_459_5781)"/>
<path d="M52.3027 47.874C52.6034 47.8739 52.9013 47.9332 53.1791 48.0483C53.457 48.1634 53.7094 48.332 53.9221 48.5447C54.1348 48.7574 54.3035 49.0098 54.4186 49.2877C54.5337 49.5656 54.5929 49.8634 54.5929 50.1641V51.0994C54.5929 51.6832 54.4103 52.2525 54.0709 52.7276C52.4966 54.9306 49.926 56.0219 46.443 56.0219C42.9592 56.0219 40.39 54.9301 38.8195 52.726C38.4815 52.2515 38.2998 51.6835 38.2998 51.1009V50.1641C38.2998 49.8634 38.359 49.5656 38.4741 49.2877C38.5892 49.0099 38.7579 48.7574 38.9705 48.5447C39.1832 48.3321 39.4356 48.1634 39.7135 48.0483C39.9913 47.9332 40.2891 47.874 40.5899 47.874H52.3027ZM46.4429 35.6586C47.4499 35.6586 48.4344 35.9572 49.2717 36.5167C50.109 37.0762 50.7617 37.8714 51.1471 38.8018C51.5324 39.7322 51.6333 40.7559 51.4368 41.7436C51.2403 42.7313 50.7554 43.6386 50.0433 44.3507C49.3312 45.0628 48.424 45.5477 47.4363 45.7442C46.4486 45.9407 45.4248 45.8398 44.4944 45.4545C43.564 45.0691 42.7688 44.4165 42.2093 43.5791C41.6498 42.7418 41.3512 41.7573 41.3512 40.7503C41.3512 39.3999 41.8876 38.1048 42.8425 37.1499C43.7974 36.195 45.0925 35.6586 46.4429 35.6586V35.6586Z" fill="#1F56A3"/>
<path opacity="0.2" d="M69.8127 48.7409C68.6286 48.4378 67.5527 47.8102 66.706 46.9288C66.3974 46.5849 66.0198 46.3101 65.5978 46.1222C65.1757 45.9343 64.7188 45.8376 64.2568 45.8384C63.7948 45.8392 63.3382 45.9375 62.9168 46.1269C62.4954 46.3162 62.1188 46.5924 61.8114 46.9374C60.3618 48.6008 57.3799 49.4442 52.9495 49.4442C52.0871 49.4451 51.2603 49.788 50.6504 50.3977C50.0405 51.0074 49.6973 51.8341 49.6961 52.6965V59.9392C49.6407 62.8488 50.206 65.7368 51.3543 68.4109C56.0694 67.4051 60.3644 64.9819 63.6635 61.4662C66.9627 57.9506 69.1082 53.5104 69.8127 48.7409V48.7409Z" fill="#003067"/>
<path d="M75.5756 51.7909C70.3646 51.7909 66.8881 50.7091 64.9444 48.4795C64.8567 48.3865 64.751 48.3125 64.6337 48.2619C64.5164 48.2113 64.3901 48.1852 64.2623 48.1852C64.1346 48.1852 64.0082 48.2113 63.8909 48.2619C63.7736 48.3125 63.6679 48.3865 63.5803 48.4795C61.6366 50.7091 58.1602 51.7909 52.9492 51.7909C52.8302 51.7908 52.7124 51.8142 52.6025 51.8597C52.4926 51.9052 52.3927 51.9719 52.3086 52.0561C52.2245 52.1402 52.1578 52.2401 52.1123 52.35C52.0668 52.4599 52.0434 52.5777 52.0435 52.6967V59.9393C52.0435 67.7687 55.5748 72.888 63.8552 77.0503C63.982 77.1125 64.1212 77.1451 64.2624 77.1457C64.404 77.1456 64.5435 77.1116 64.6694 77.0467C72.9498 72.8844 76.4812 67.7688 76.4812 59.9394V52.6967C76.4808 52.4566 76.3852 52.2266 76.2154 52.0568C76.0457 51.887 75.8156 51.7914 75.5756 51.7909V51.7909Z" fill="url(#paint3_linear_459_5781)"/>
<path d="M64.2624 55.5644C64.8989 55.5644 65.5094 55.8173 65.9595 56.2674C66.4095 56.7175 66.6624 57.3279 66.6624 57.9644V59.1644H68.1624C68.4011 59.1644 68.63 59.2592 68.7988 59.428C68.9676 59.5968 69.0624 59.8257 69.0624 60.0644V66.6644C69.0624 66.9031 68.9676 67.132 68.7988 67.3008C68.63 67.4696 68.4011 67.5644 68.1624 67.5644H60.3624C60.1237 67.5644 59.8948 67.4696 59.726 67.3008C59.5572 67.132 59.4624 66.9031 59.4624 66.6644V60.0644C59.4624 59.8257 59.5572 59.5968 59.726 59.428C59.8948 59.2592 60.1237 59.1644 60.3624 59.1644H61.8624V57.9644C61.8624 57.3279 62.1153 56.7175 62.5653 56.2674C63.0154 55.8173 63.6259 55.5644 64.2624 55.5644V55.5644ZM64.2625 62.4644C64.0845 62.4644 63.9105 62.5172 63.7625 62.6161C63.6144 62.715 63.4991 62.8556 63.431 63.02C63.3629 63.1845 63.345 63.3654 63.3798 63.54C63.4145 63.7146 63.5002 63.8749 63.6261 64.0008C63.7519 64.1267 63.9123 64.2124 64.0869 64.2471C64.2615 64.2819 64.4424 64.264 64.6069 64.1959C64.7713 64.1278 64.9119 64.0124 65.0108 63.8644C65.1097 63.7164 65.1625 63.5424 65.1625 63.3644C65.1625 63.1257 65.0676 62.8968 64.8989 62.728C64.7301 62.5592 64.5012 62.4644 64.2625 62.4644V62.4644ZM64.2624 56.7644C63.9441 56.7644 63.6389 56.8909 63.4139 57.1159C63.1888 57.3409 63.0624 57.6462 63.0624 57.9644V59.1644H65.4624V57.9644C65.4624 57.6462 65.336 57.3409 65.1109 57.1159C64.8859 56.8909 64.5807 56.7644 64.2624 56.7644V56.7644Z" fill="#0078D4"/>
</g>
<defs>
<linearGradient id="paint0_linear_459_5781" x1="47.8698" y1="-15.1532" x2="51.8525" y2="130.615" gradientUnits="userSpaceOnUse">
<stop stop-color="#00ABDE"/>
<stop offset="1" stop-color="#007ED8"/>
</linearGradient>
<linearGradient id="paint1_linear_459_5781" x1="46.4465" y1="68.9352" x2="46.4465" y2="21.6329" gradientUnits="userSpaceOnUse">
<stop stop-color="#008BF1"/>
<stop offset="0.22" stop-color="#0086EC"/>
<stop offset="0.49" stop-color="#0078DD"/>
<stop offset="0.79" stop-color="#0061C4"/>
<stop offset="1" stop-color="#004DAE"/>
</linearGradient>
<linearGradient id="paint2_linear_459_5781" x1="46.4465" y1="68.9352" x2="46.4465" y2="21.6329" gradientUnits="userSpaceOnUse">
<stop stop-color="#004DAE"/>
<stop offset="0.21" stop-color="#0061C4"/>
<stop offset="0.51" stop-color="#0078DD"/>
<stop offset="0.78" stop-color="#0086EC"/>
<stop offset="1" stop-color="#008BF1"/>
</linearGradient>
<linearGradient id="paint3_linear_459_5781" x1="64.2624" y1="76.1063" x2="64.2624" y2="48.8161" gradientUnits="userSpaceOnUse">
<stop stop-color="#F2F2F2"/>
<stop offset="0.44" stop-color="#FBFBFB"/>
<stop offset="1" stop-color="white"/>
</linearGradient>
<clipPath id="clip0_459_5781">
<rect width="99.2799" height="99.28" fill="white"/>
</clipPath>
</defs>
</svg>
