<svg width="100" height="100" viewBox="0 0 100 100" fill="none" xmlns="http://www.w3.org/2000/svg">
<g clip-path="url(#clip0_378_767)">
<path d="M49.6401 96.45C40.382 96.45 31.3317 93.7047 23.6339 88.5611C15.936 83.4176 9.93624 76.1068 6.3933 67.5534C2.85036 59 1.92337 49.5881 3.72954 40.5078C5.53571 31.4276 9.99394 23.0868 16.5404 16.5403C23.0869 9.99384 31.4277 5.53562 40.5079 3.72945C49.5882 1.92327 59.0001 2.85027 67.5535 6.39321C76.1069 9.93614 83.4176 15.9359 88.5612 23.6338C93.7047 31.3316 96.4501 40.3819 96.4501 49.64C96.4505 55.7873 95.24 61.8745 92.8878 67.5539C90.5355 73.2334 87.0875 78.3938 82.7407 82.7406C78.3939 87.0874 73.2335 90.5354 67.554 92.8877C61.8746 95.2399 55.7874 96.4504 49.6401 96.45V96.45Z" fill="url(#paint0_linear_378_767)"/>
<path fill-rule="evenodd" clip-rule="evenodd" d="M95.54 49.64C95.54 58.7182 92.848 67.5925 87.8045 75.1407C82.7609 82.6889 75.5923 88.572 67.2052 92.0461C58.818 95.5201 49.5891 96.4291 40.6854 94.658C31.7816 92.887 23.603 88.5154 17.1838 82.0962C10.7646 75.677 6.39302 67.4984 4.62196 58.5946C2.85089 49.6909 3.75987 40.462 7.23393 32.0748C10.708 23.6877 16.5911 16.5191 24.1393 11.4755C31.6875 6.43199 40.5618 3.74 49.64 3.74C55.6677 3.73998 61.6363 4.9272 67.2052 7.23388C72.774 9.54057 77.834 12.9215 82.0963 17.1837C86.3585 21.446 89.7394 26.5059 92.0461 32.0748C94.3528 37.6437 95.54 43.6123 95.54 49.64V49.64ZM49.64 3.62732e-07C59.4579 3.62732e-07 69.0553 2.91134 77.2185 8.36585C85.3818 13.8204 91.7442 21.5731 95.5014 30.6436C99.2585 39.7141 100.242 49.6951 98.3262 59.3243C96.4108 68.9535 91.6831 77.7985 84.7408 84.7408C77.7985 91.6831 68.9535 96.4108 59.3243 98.3262C49.6951 100.242 39.7141 99.2585 30.6436 95.5014C21.5731 91.7442 13.8204 85.3818 8.36585 77.2185C2.91134 69.0553 3.62732e-07 59.4579 3.62732e-07 49.64C-0.000787738 43.121 1.28265 36.6656 3.77702 30.6427C6.27138 24.6197 9.9278 19.1471 14.5375 14.5375C19.1471 9.9278 24.6197 6.27138 30.6427 3.77702C36.6656 1.28265 43.121 -0.000787738 49.64 3.62732e-07V3.62732e-07Z" fill="#F2F1F0"/>
<path fill-rule="evenodd" clip-rule="evenodd" d="M92.7296 49.6401C92.7296 58.1625 90.2024 66.4935 85.4676 73.5796C80.7328 80.6657 74.0031 86.1887 66.1294 89.4501C58.2557 92.7114 49.5918 93.5648 41.2331 91.9021C32.8745 90.2395 25.1966 86.1356 19.1703 80.1093C13.1441 74.0831 9.04017 66.4052 7.37753 58.0465C5.7149 49.6879 6.56822 41.0239 9.8296 33.1503C13.091 25.2766 18.6139 18.5469 25.7 13.8121C32.7862 9.07727 41.1172 6.55009 49.6396 6.55009C55.2983 6.54974 60.9017 7.66407 66.1298 9.82942C71.3579 11.9948 76.1082 15.1687 80.1096 19.1701C84.1109 23.1714 87.2849 27.9218 89.4502 33.1499C91.6156 38.3779 92.7299 43.9813 92.7296 49.6401V49.6401ZM49.6396 2.81009C58.9017 2.81009 67.9558 5.55662 75.6569 10.7024C83.3581 15.8481 89.3604 23.162 92.9049 31.719C96.4493 40.2761 97.3767 49.692 95.5697 58.7762C93.7628 67.8603 89.3027 76.2046 82.7534 82.7539C76.2041 89.3032 67.8598 93.7633 58.7757 95.5703C49.6915 97.3772 40.2756 96.4498 31.7185 92.9054C23.1614 89.3609 15.8476 83.3586 10.7018 75.6574C5.5561 67.9563 2.80957 58.9022 2.80957 49.6401C2.81076 37.2204 7.745 25.3097 16.5271 16.5276C25.3091 7.7455 37.2198 2.81125 49.6396 2.81006V2.81009Z" fill="#0078D4"/>
<path fill-rule="evenodd" clip-rule="evenodd" d="M92.7637 49.6401C92.7637 58.1625 90.2366 66.4935 85.5018 73.5796C80.767 80.6657 74.0372 86.1887 66.1636 89.4501C58.2899 92.7114 49.6259 93.5648 41.2673 91.9021C32.9087 90.2395 25.2308 86.1356 19.2045 80.1093C13.1783 74.0831 9.07435 66.4052 7.41171 58.0465C5.74908 49.6879 6.6024 41.0239 9.86378 33.1503C13.1252 25.2766 18.6481 18.5469 25.7342 13.8121C32.8203 9.07727 41.1514 6.55009 49.6738 6.55009C55.3325 6.54974 60.9359 7.66407 66.164 9.82942C71.3921 11.9948 76.1424 15.1687 80.1437 19.1701C84.1451 23.1714 87.3191 27.9218 89.4844 33.1499C91.6498 38.3779 92.7641 43.9813 92.7637 49.6401V49.6401ZM49.6738 2.81009C58.9359 2.81009 67.9899 5.55662 75.6911 10.7024C83.3923 15.8481 89.3946 23.162 92.939 31.719C96.4835 40.2761 97.4109 49.692 95.6039 58.7762C93.797 67.8603 89.3369 76.2046 82.7876 82.7539C76.2383 89.3032 67.894 93.7633 58.8098 95.5703C49.7257 97.3772 40.3097 96.4498 31.7527 92.9054C23.1956 89.3609 15.8818 83.3586 10.736 75.6574C5.59028 67.9563 2.84375 58.9022 2.84375 49.6401C2.84494 37.2204 7.77918 25.3097 16.5612 16.5276C25.3433 7.7455 37.254 2.81125 49.6738 2.81006V2.81009Z" fill="#0078D4"/>
<path fill-rule="evenodd" clip-rule="evenodd" d="M27.0662 65.184C26.2494 65.1816 25.4668 64.8561 24.8893 64.2786C24.3118 63.7011 23.9863 62.9185 23.9839 62.1018V23.5735C23.9863 22.7568 24.3118 21.9741 24.8893 21.3966C25.4668 20.8191 26.2494 20.4936 27.0661 20.4912H57.8888C58.7056 20.4936 59.4882 20.8191 60.0657 21.3966C60.6432 21.9741 60.9687 22.7568 60.9711 23.5735V62.1018C60.9687 62.9185 60.6432 63.7011 60.0657 64.2786C59.4881 64.8561 58.7055 65.1816 57.8888 65.184H27.0662Z" fill="#1F56A3"/>
<path fill-rule="evenodd" clip-rule="evenodd" d="M26.2957 61.3312V24.344C26.2967 23.9356 26.4594 23.5442 26.7482 23.2554C27.037 22.9666 27.4284 22.8039 27.8368 22.8029H57.1183C57.5267 22.8039 57.9181 22.9666 58.2069 23.2554C58.4957 23.5442 58.6584 23.9356 58.6594 24.344V61.3312C58.6584 61.7396 58.4957 62.131 58.2069 62.4198C57.9181 62.7085 57.5267 62.8713 57.1183 62.8723H27.8368C27.4284 62.8713 27.037 62.7086 26.7482 62.4198C26.4594 62.131 26.2967 61.7396 26.2957 61.3312V61.3312Z" fill="white"/>
<path opacity="0.2" fill-rule="evenodd" clip-rule="evenodd" d="M34.0015 22.8029H34.7721V20.4912H34.0015V22.8029Z" fill="#003067"/>
<path opacity="0.2" fill-rule="evenodd" clip-rule="evenodd" d="M49.4127 24.344H35.5425C35.3384 24.3434 35.1427 24.262 34.9983 24.1177C34.8539 23.9733 34.7726 23.7776 34.772 23.5734V24.344C34.7726 24.5482 34.8539 24.7438 34.9983 24.8882C35.1427 25.0326 35.3384 25.114 35.5425 25.1146H49.4127C49.6169 25.114 49.8126 25.0326 49.9569 24.8882C50.1013 24.7438 50.1827 24.5482 50.1833 24.344V23.5734C50.1827 23.7776 50.1013 23.9733 49.9569 24.1176C49.8126 24.262 49.6169 24.3434 49.4127 24.344V24.344Z" fill="#546670"/>
<path fill-rule="evenodd" clip-rule="evenodd" d="M42.4776 17.4089C42.8862 17.4093 43.278 17.5718 43.5669 17.8608C43.8558 18.1497 44.0183 18.5415 44.0188 18.9501H40.9365C40.9368 18.5414 41.0992 18.1496 41.3882 17.8606C41.6772 17.5717 42.069 17.4092 42.4776 17.4089V17.4089ZM49.4127 18.9501H45.5599C45.5599 18.1326 45.2352 17.3486 44.6571 16.7706C44.0791 16.1925 43.2951 15.8678 42.4776 15.8678C41.6602 15.8678 40.8762 16.1925 40.2981 16.7706C39.7201 17.3486 39.3954 18.1326 39.3954 18.9501H35.5425C35.3384 18.9507 35.1427 19.032 34.9983 19.1764C34.8539 19.3208 34.7726 19.5164 34.772 19.7206V23.5735C34.7726 23.7777 34.8539 23.9733 34.9983 24.1177C35.1427 24.2621 35.3384 24.3434 35.5425 24.344H49.4127C49.6169 24.3434 49.8126 24.2621 49.9569 24.1177C50.1013 23.9733 50.1827 23.7777 50.1833 23.5735V19.7206C50.1827 19.5164 50.1013 19.3208 49.9569 19.1764C49.8126 19.032 49.6169 18.9507 49.4127 18.9501V18.9501Z" fill="#B3B3B3"/>
<path opacity="0.2" fill-rule="evenodd" clip-rule="evenodd" d="M50.1833 23.5735V19.7206C50.1827 19.5164 50.1013 19.3208 49.957 19.1764C49.8126 19.032 49.6169 18.9507 49.4128 18.9501H46.3305L44.0188 24.3441H49.4128C49.617 24.3435 49.8126 24.2621 49.957 24.1177C50.1014 23.9733 50.1827 23.7777 50.1833 23.5735V23.5735Z" fill="#E8E8E8"/>
<path opacity="0.2" fill-rule="evenodd" clip-rule="evenodd" d="M43.0054 15.9209L42.3627 17.4204C42.4012 17.4173 42.4382 17.4088 42.4775 17.4088C42.8861 17.4092 43.2779 17.5717 43.5668 17.8607C43.8558 18.1496 44.0183 18.5414 44.0187 18.95H41.707L39.3953 24.3439H42.4775L45.3094 17.7356C45.1063 17.2655 44.7894 16.8534 44.3871 16.5366C43.9848 16.2197 43.5099 16.0081 43.0054 15.9209V15.9209Z" fill="#E8E8E8"/>
<path d="M48.4063 37.6908C48.0998 37.3844 47.6842 37.2124 47.2508 37.2124C46.8174 37.2124 46.4018 37.3844 46.0953 37.6908L40.7083 43.0738L38.7625 41.1466C38.717 41.0791 38.6656 41.0157 38.6089 40.9572C38.3046 40.6516 37.8917 40.4788 37.4604 40.4765C37.0291 40.4743 36.6145 40.6427 36.307 40.9452C35.9995 41.2476 35.8241 41.6594 35.8192 42.0907C35.8143 42.5219 35.9802 42.9376 36.2807 43.247L36.2611 43.2666L39.5577 46.533C39.8644 46.8392 40.2802 47.0112 40.7136 47.0112C41.147 47.0112 41.5628 46.8392 41.8695 46.533L48.4014 40.004L48.4063 40.0001C48.5581 39.8485 48.6784 39.6685 48.7605 39.4704C48.8426 39.2723 48.8849 39.0599 48.8849 38.8454C48.8849 38.631 48.8426 38.4186 48.7605 38.2205C48.6784 38.0224 48.5581 37.8424 48.4063 37.6908V37.6908Z" fill="url(#paint1_linear_378_767)"/>
<path opacity="0.2" d="M60.9709 47.4679C60.1977 47.4734 59.4256 47.5286 58.6594 47.6331V62.8723H43.1272C43.0072 63.6375 42.9366 64.4097 42.9158 65.184H60.9711V47.4679H60.9709Z" fill="#003067"/>
<path opacity="0.2" d="M58.6594 47.6331C54.7669 48.1423 51.1459 49.9047 48.3437 52.654C45.5415 55.4034 43.7104 58.9902 43.1272 62.8723H58.6594V47.6331Z" fill="#767676"/>
<path d="M60.9712 49.468C63.4085 49.469 65.8137 50.0243 68.0047 51.0918C70.1958 52.1593 72.1154 53.7112 73.6183 55.6299C75.1212 57.5487 76.1681 59.7841 76.6797 62.1671C77.1914 64.5501 77.1544 67.0182 76.5716 69.3848C75.9888 71.7514 74.8754 73.9544 73.3157 75.8273C71.7559 77.7002 69.7907 79.1938 67.5686 80.1952C65.3466 81.1966 62.9259 81.6796 60.4896 81.6075C58.0534 81.5355 55.6655 80.9104 53.5064 79.7795L46.6104 81.5749C46.3799 81.6349 46.1377 81.6336 45.9078 81.5712C45.678 81.5087 45.4684 81.3873 45.3 81.2189C45.1316 81.0505 45.0101 80.8409 44.9476 80.6111C44.8851 80.3812 44.8838 80.139 44.9438 79.9085L46.7382 73.0157C45.4529 70.5656 44.8216 67.8253 44.9053 65.0597C44.9891 62.2942 45.785 59.5972 47.2162 57.2293C48.6474 54.8615 50.6655 52.903 53.0751 51.5434C55.4847 50.1837 58.2045 49.4689 60.9712 49.468V49.468Z" fill="url(#paint2_linear_378_767)"/>
<path d="M60.9712 50.8747C63.195 50.8757 65.3896 51.3824 67.3888 52.3565C69.388 53.3306 71.1395 54.7466 72.5108 56.4974C73.8821 58.2481 74.8374 60.2878 75.3042 62.4621C75.7711 64.6365 75.7375 66.8885 75.2057 69.0479C74.674 71.2073 73.6582 73.2175 72.2352 74.9264C70.8121 76.6354 69.019 77.9983 66.9916 78.9122C64.9642 79.8261 62.7555 80.267 60.5325 80.2015C58.3096 80.136 56.1307 79.5658 54.1606 78.5341L53.6788 78.281L53.1521 78.4181L46.3221 80.1977L48.0994 73.37L48.2367 72.8427L47.983 72.3606C46.8105 70.1248 46.2347 67.6244 46.3114 65.1011C46.388 62.5777 47.1144 60.1168 48.4204 57.9564C49.7264 55.796 51.5678 54.0091 53.7664 52.7685C55.9651 51.5279 58.4467 50.8756 60.9712 50.8747ZM60.9712 49.468C58.2044 49.4689 55.4847 50.1837 53.0751 51.5434C50.6654 52.9031 48.6474 54.8615 47.2162 57.2293C45.785 59.5972 44.9891 62.2943 44.9053 65.0598C44.8216 67.8253 45.4529 70.5656 46.7382 73.0157L44.9438 79.9085C44.8835 80.1391 44.8846 80.3814 44.947 80.6114C45.0093 80.8414 45.1308 81.051 45.2993 81.2195C45.4678 81.388 45.6775 81.5095 45.9075 81.5718C46.1375 81.6341 46.3798 81.6352 46.6104 81.5748L53.5065 79.7795C55.6657 80.9114 58.0541 81.5374 60.491 81.61C62.9278 81.6826 65.3493 81.2 67.5721 80.1987C69.7949 79.1974 71.7608 77.7036 73.3211 75.8304C74.8814 73.9572 75.9952 71.7536 76.5781 69.3863C77.1611 67.0191 77.198 64.5503 76.686 62.1668C76.174 59.7832 75.1266 57.5473 73.6229 55.6283C72.1193 53.7093 70.1989 52.1574 68.007 51.0902C65.815 50.0229 63.4091 49.4682 60.9712 49.468V49.468Z" fill="url(#paint3_linear_378_767)"/>
<path opacity="0.2" d="M62.983 67.6519H55.7473L55.5837 67.6629C55.295 67.7024 55.0304 67.8453 54.8388 68.0649C54.6473 68.2845 54.5417 68.566 54.5417 68.8574C54.5417 69.1488 54.6473 69.4304 54.8388 69.65C55.0304 69.8696 55.295 70.0124 55.5837 70.052L55.7473 70.0629H62.983L63.1466 70.052C63.4353 70.0124 63.6999 69.8696 63.8914 69.65C64.0829 69.4304 64.1885 69.1488 64.1885 68.8574C64.1885 68.566 64.0829 68.2845 63.8914 68.0649C63.6999 67.8453 63.4353 67.7025 63.1466 67.6629L62.983 67.6519ZM66.1949 62.0263H55.7473L55.5837 62.0373C55.295 62.0769 55.0305 62.2197 54.839 62.4393C54.6474 62.6589 54.5419 62.9404 54.5419 63.2318C54.5419 63.5232 54.6474 63.8047 54.839 64.0243C55.0305 64.2439 55.295 64.3867 55.5837 64.4263L55.7473 64.4372H66.1949L66.3585 64.4263C66.6472 64.3867 66.9117 64.2438 67.1032 64.0242C67.2947 63.8047 67.4002 63.5231 67.4002 63.2318C67.4002 62.9404 67.2947 62.6589 67.1032 62.4393C66.9117 62.2197 66.6472 62.0769 66.3585 62.0373L66.1949 62.0263Z" fill="#003067"/>
<path d="M62.983 67.1486H55.7473L55.5837 67.1595C55.295 67.1991 55.0304 67.3419 54.8388 67.5615C54.6473 67.7811 54.5417 68.0627 54.5417 68.3541C54.5417 68.6455 54.6473 68.927 54.8388 69.1467C55.0304 69.3663 55.295 69.5091 55.5837 69.5487L55.7473 69.5596H62.983L63.1466 69.5487C63.4353 69.5091 63.6999 69.3662 63.8914 69.1466C64.0829 68.927 64.1885 68.6455 64.1885 68.3541C64.1885 68.0627 64.0829 67.7812 63.8914 67.5616C63.6999 67.342 63.4353 67.1991 63.1466 67.1595L62.983 67.1486ZM66.1949 61.523H55.7473L55.5837 61.534C55.295 61.5736 55.0304 61.7164 54.8388 61.936C54.6473 62.1556 54.5418 62.4371 54.5418 62.7285C54.5418 63.0199 54.6473 63.3015 54.8388 63.5211C55.0304 63.7407 55.295 63.8835 55.5837 63.923L55.7473 63.934H66.1949L66.3585 63.923C66.6472 63.8834 66.9118 63.7406 67.1033 63.521C67.2948 63.3014 67.4004 63.0199 67.4004 62.7285C67.4004 62.4371 67.2948 62.1556 67.1033 61.936C66.9118 61.7164 66.6472 61.5736 66.3585 61.534L66.1949 61.523Z" fill="white"/>
</g>
<defs>
<linearGradient id="paint0_linear_378_767" x1="47.8697" y1="-15.1531" x2="51.8525" y2="130.615" gradientUnits="userSpaceOnUse">
<stop stop-color="#00ABDE"/>
<stop offset="1" stop-color="#007ED8"/>
</linearGradient>
<linearGradient id="paint1_linear_378_767" x1="42.3524" y1="47.0113" x2="42.3524" y2="37.2124" gradientUnits="userSpaceOnUse">
<stop stop-color="#004DAE"/>
<stop offset="0.21" stop-color="#0061C4"/>
<stop offset="0.51" stop-color="#0078DD"/>
<stop offset="0.78" stop-color="#0086EC"/>
<stop offset="1" stop-color="#008BF1"/>
</linearGradient>
<linearGradient id="paint2_linear_378_767" x1="60.9712" y1="81.6193" x2="60.9712" y2="49.468" gradientUnits="userSpaceOnUse">
<stop stop-color="#008BF1"/>
<stop offset="0.22" stop-color="#0086EC"/>
<stop offset="0.49" stop-color="#0078DD"/>
<stop offset="0.79" stop-color="#0061C4"/>
<stop offset="1" stop-color="#004DAE"/>
</linearGradient>
<linearGradient id="paint3_linear_378_767" x1="60.9712" y1="49.468" x2="60.9712" y2="81.6194" gradientUnits="userSpaceOnUse">
<stop stop-color="#008BF1"/>
<stop offset="0.22" stop-color="#0086EC"/>
<stop offset="0.49" stop-color="#0078DD"/>
<stop offset="0.79" stop-color="#0061C4"/>
<stop offset="1" stop-color="#004DAE"/>
</linearGradient>
<clipPath id="clip0_378_767">
<rect width="99.2799" height="99.28" fill="white"/>
</clipPath>
</defs>
</svg>
