<svg width="100" height="100" viewBox="0 0 100 100" fill="none" xmlns="http://www.w3.org/2000/svg">
<g clip-path="url(#clip0)">
<path d="M49.6401 96.4501C40.382 96.4501 31.3317 93.7047 23.6339 88.5612C15.936 83.4176 9.93624 76.1069 6.3933 67.5535C2.85036 59.0001 1.92337 49.5882 3.72954 40.5079C5.53571 31.4277 9.99394 23.0869 16.5404 16.5404C23.0869 9.99393 31.4277 5.53571 40.5079 3.72954C49.5882 1.92337 59.0001 2.85036 67.5535 6.3933C76.1069 9.93624 83.4176 15.936 88.5612 23.6339C93.7047 31.3317 96.4501 40.382 96.4501 49.6401C96.4505 55.7874 95.24 61.8746 92.8878 67.554C90.5355 73.2335 87.0875 78.3939 82.7407 82.7407C78.3939 87.0875 73.2335 90.5355 67.554 92.8878C61.8746 95.24 55.7874 96.4505 49.6401 96.4501V96.4501Z" fill="url(#paint0_linear)"/>
<path fill-rule="evenodd" clip-rule="evenodd" d="M95.54 49.64C95.54 58.7182 92.848 67.5925 87.8045 75.1407C82.7609 82.6889 75.5923 88.572 67.2052 92.0461C58.818 95.5201 49.5891 96.4291 40.6854 94.658C31.7816 92.887 23.603 88.5154 17.1838 82.0962C10.7646 75.677 6.39302 67.4984 4.62196 58.5946C2.85089 49.6909 3.75987 40.462 7.23393 32.0748C10.708 23.6877 16.5911 16.5191 24.1393 11.4755C31.6875 6.43199 40.5618 3.74 49.64 3.74C55.6677 3.73998 61.6363 4.9272 67.2052 7.23388C72.774 9.54057 77.834 12.9215 82.0963 17.1837C86.3585 21.446 89.7394 26.5059 92.0461 32.0748C94.3528 37.6437 95.54 43.6123 95.54 49.64V49.64ZM49.64 3.62732e-07C59.4579 3.62732e-07 69.0553 2.91134 77.2185 8.36585C85.3818 13.8204 91.7442 21.5731 95.5014 30.6436C99.2585 39.7141 100.242 49.6951 98.3262 59.3243C96.4108 68.9535 91.6831 77.7985 84.7408 84.7408C77.7985 91.6831 68.9535 96.4108 59.3243 98.3262C49.6951 100.242 39.7141 99.2585 30.6436 95.5014C21.5731 91.7442 13.8204 85.3818 8.36585 77.2185C2.91134 69.0553 3.62732e-07 59.4579 3.62732e-07 49.64C-0.000787738 43.121 1.28265 36.6656 3.77702 30.6427C6.27138 24.6197 9.9278 19.1471 14.5375 14.5375C19.1471 9.9278 24.6197 6.27138 30.6427 3.77702C36.6656 1.28265 43.121 -0.000787738 49.64 3.62732e-07V3.62732e-07Z" fill="#F2F1F0"/>
<path fill-rule="evenodd" clip-rule="evenodd" d="M92.7296 49.6406C92.7296 58.163 90.2024 66.494 85.4676 73.5801C80.7328 80.6662 74.0031 86.1892 66.1294 89.4505C58.2557 92.7119 49.5918 93.5653 41.2331 91.9026C32.8745 90.24 25.1966 86.1361 19.1703 80.1098C13.1441 74.0836 9.04017 66.4057 7.37753 58.047C5.7149 49.6884 6.56822 41.0244 9.8296 33.1507C13.091 25.2771 18.6139 18.5473 25.7 13.8126C32.7862 9.07776 41.1172 6.55058 49.6396 6.55058C55.2983 6.55023 60.9017 7.66455 66.1298 9.82991C71.3579 11.9953 76.1082 15.1692 80.1096 19.1706C84.1109 23.1719 87.2849 27.9223 89.4502 33.1503C91.6156 38.3784 92.7299 43.9818 92.7296 49.6406V49.6406ZM49.6396 2.81058C58.9017 2.81058 67.9558 5.55711 75.6569 10.7029C83.3581 15.8486 89.3604 23.1624 92.9049 31.7195C96.4493 40.2766 97.3767 49.6925 95.5697 58.7767C93.7628 67.8608 89.3027 76.2051 82.7534 82.7544C76.2041 89.3037 67.8598 93.7638 58.7757 95.5708C49.6915 97.3777 40.2756 96.4503 31.7185 92.9059C23.1614 89.3614 15.8476 83.3591 10.7018 75.6579C5.5561 67.9568 2.80957 58.9027 2.80957 49.6406C2.81076 37.2209 7.745 25.3101 16.5271 16.5281C25.3091 7.74599 37.2198 2.81174 49.6396 2.81055V2.81058Z" fill="#0078D4"/>
<path fill-rule="evenodd" clip-rule="evenodd" d="M92.7296 49.6405C92.7296 58.1629 90.2024 66.494 85.4676 73.5801C80.7328 80.6662 74.0031 86.1891 66.1294 89.4505C58.2557 92.7119 49.5918 93.5652 41.2331 91.9026C32.8745 90.24 25.1966 86.136 19.1703 80.1098C13.1441 74.0835 9.04017 66.4056 7.37753 58.047C5.7149 49.6883 6.56822 41.0244 9.8296 33.1507C13.091 25.277 18.6139 18.5473 25.7001 13.8125C32.7862 9.07773 41.1172 6.55055 49.6396 6.55055C55.2983 6.5502 60.9017 7.66452 66.1298 9.82988C71.3579 11.9952 76.1082 15.1692 80.1096 19.1705C84.1109 23.1719 87.2849 27.9222 89.4502 33.1503C91.6156 38.3784 92.7299 43.9818 92.7296 49.6405V49.6405ZM49.6396 2.81055C58.9017 2.81055 67.9558 5.55708 75.6569 10.7028C83.3581 15.8486 89.3604 23.1624 92.9048 31.7195C96.4493 40.2765 97.3767 49.6925 95.5697 58.7766C93.7628 67.8608 89.3027 76.2051 82.7534 82.7544C76.2041 89.3036 67.8598 93.7638 58.7757 95.5707C49.6915 97.3777 40.2756 96.4503 31.7185 92.9058C23.1614 89.3614 15.8476 83.3591 10.7018 75.6579C5.5561 67.9568 2.80957 58.9026 2.80957 49.6405C2.81076 37.2208 7.74501 25.3101 16.5271 16.5281C25.3091 7.74599 37.2198 2.81174 49.6396 2.81055V2.81055Z" fill="#0078D4"/>
<path opacity="0.2" d="M20.732 75.1291H78.5482C78.852 75.1282 79.143 75.0072 79.3578 74.7924C79.5726 74.5776 79.6937 74.2865 79.6946 73.9827V28.8438H19.5857V73.9827C19.5866 74.2865 19.7076 74.5776 19.9224 74.7924C20.1372 75.0072 20.4283 75.1282 20.732 75.1291V75.1291Z" fill="#003067"/>
<path d="M20.732 72.7678H78.5482C78.852 72.7669 79.143 72.6458 79.3578 72.4311C79.5726 72.2163 79.6937 71.9252 79.6946 71.6214V26.4824H19.5857V71.6214C19.5866 71.9252 19.7076 72.2162 19.9224 72.431C20.1372 72.6458 20.4283 72.7669 20.732 72.7678V72.7678Z" fill="#F2F2F2"/>
<path d="M19.5857 31.4798H79.6946V26.0918C79.6949 25.9763 79.6724 25.8619 79.6283 25.7551C79.5842 25.6483 79.5195 25.5513 79.4378 25.4696C79.3562 25.388 79.2592 25.3232 79.1524 25.2792C79.0456 25.2351 78.9312 25.2126 78.8157 25.2129H20.4646C20.3491 25.2126 20.2347 25.2351 20.1279 25.2792C20.0211 25.3232 19.9241 25.388 19.8424 25.4696C19.7608 25.5513 19.696 25.6483 19.652 25.7551C19.6079 25.8619 19.5854 25.9763 19.5857 26.0918V31.4798Z" fill="#092E4C"/>
<path d="M24.2097 29.9987C24.5111 29.9977 24.8054 29.9074 25.0555 29.7392C25.3055 29.571 25.5001 29.3324 25.6145 29.0536C25.729 28.7748 25.7582 28.4684 25.6985 28.173C25.6388 27.8776 25.4928 27.6065 25.279 27.3941C25.0653 27.1817 24.7933 27.0374 24.4975 26.9795C24.2018 26.9217 23.8955 26.9528 23.6174 27.069C23.3394 27.1852 23.102 27.3812 22.9354 27.6323C22.7687 27.8834 22.6803 28.1783 22.6812 28.4797C22.6796 28.6804 22.718 28.8794 22.7944 29.0651C22.8708 29.2508 22.9834 29.4193 23.1258 29.5608C23.2682 29.7023 23.4375 29.8139 23.6236 29.8891C23.8097 29.9643 24.009 30.0016 24.2097 29.9987Z" fill="#50E6FF"/>
<path d="M74.3663 35.3574H24.9022C24.2505 35.3574 23.7222 35.8858 23.7222 36.5375V67.2865C23.7222 67.9383 24.2505 68.4666 24.9022 68.4666H74.3663C75.0181 68.4666 75.5464 67.9383 75.5464 67.2865V36.5375C75.5464 35.8858 75.0181 35.3574 74.3663 35.3574Z" fill="#E8E8E8"/>
<path opacity="0.2" d="M30.4624 25.2129V56.0994C30.4633 56.9914 30.818 57.8467 31.4487 58.4775C32.0794 59.1083 32.9346 59.4631 33.8267 59.4641H65.2993C66.1914 59.4631 67.0466 59.1083 67.6773 58.4775C68.308 57.8467 68.6627 56.9914 68.6636 56.0994V25.2129H30.4624Z" fill="#767676"/>
<path d="M27.6493 52.798C28.8464 52.798 29.8168 51.8276 29.8168 50.6305C29.8168 49.4333 28.8464 48.4629 27.6493 48.4629C26.4521 48.4629 25.4817 49.4333 25.4817 50.6305C25.4817 51.8276 26.4521 52.798 27.6493 52.798Z" fill="#E8E8E8"/>
<path d="M65.299 17.3633H33.8272C33.0734 17.3633 32.4624 17.9743 32.4624 18.7281V56.0995C32.4624 56.8533 33.0734 57.4643 33.8272 57.4643H65.299C66.0528 57.4643 66.6638 56.8533 66.6638 56.0995V18.7281C66.6638 17.9743 66.0528 17.3633 65.299 17.3633Z" fill="white"/>
<path d="M42.9808 51.8078C44.1779 51.8078 45.1484 50.8373 45.1484 49.6402C45.1484 48.4431 44.1779 47.4727 42.9808 47.4727C41.7837 47.4727 40.8132 48.4431 40.8132 49.6402C40.8132 50.8373 41.7837 51.8078 42.9808 51.8078Z" fill="#E8E8E8"/>
<path d="M49.5628 51.8078C50.76 51.8078 51.7304 50.8373 51.7304 49.6402C51.7304 48.4431 50.76 47.4727 49.5628 47.4727C48.3657 47.4727 47.3953 48.4431 47.3953 49.6402C47.3953 50.8373 48.3657 51.8078 49.5628 51.8078Z" fill="#E8E8E8"/>
<path d="M56.1449 51.8078C57.342 51.8078 58.3124 50.8373 58.3124 49.6402C58.3124 48.4431 57.342 47.4727 56.1449 47.4727C54.9478 47.4727 53.9773 48.4431 53.9773 49.6402C53.9773 50.8373 54.9478 51.8078 56.1449 51.8078Z" fill="#E8E8E8"/>
<path d="M49.4833 40.2082C53.3863 40.2082 56.5503 37.0442 56.5503 33.1412C56.5503 29.2382 53.3863 26.0742 49.4833 26.0742C45.5803 26.0742 42.4163 29.2382 42.4163 33.1412C42.4163 37.0442 45.5803 40.2082 49.4833 40.2082Z" stroke="#0078D4" stroke-width="3" stroke-miterlimit="10"/>
<path d="M54.4805 38.1387L59.2569 42.9151" stroke="#0078D4" stroke-width="3" stroke-miterlimit="10" stroke-linecap="round"/>
</g>
<defs>
<linearGradient id="paint0_linear" x1="47.8698" y1="-15.153" x2="51.8525" y2="130.615" gradientUnits="userSpaceOnUse">
<stop stop-color="#00ABDE"/>
<stop offset="1" stop-color="#007ED8"/>
</linearGradient>
<clipPath id="clip0">
<rect width="99.2799" height="99.28" fill="white"/>
</clipPath>
</defs>
</svg>
