<svg width="100" height="100" viewBox="0 0 100 100" fill="none" xmlns="http://www.w3.org/2000/svg">
<g clip-path="url(#clip0_1114_1307)">
<path d="M49.6401 96.4499C40.382 96.4499 31.3317 93.7045 23.6339 88.561C15.936 83.4174 9.93624 76.1067 6.3933 67.5533C2.85036 58.9999 1.92337 49.588 3.72954 40.5077C5.53571 31.4275 9.99394 23.0867 16.5404 16.5402C23.0869 9.99372 31.4277 5.5355 40.5079 3.72933C49.5882 1.92315 59.0001 2.85015 67.5535 6.39308C76.1069 9.93602 83.4176 15.9358 88.5612 23.6336C93.7047 31.3315 96.4501 40.3817 96.4501 49.6399C96.4505 55.7872 95.24 61.8744 92.8878 67.5538C90.5355 73.2332 87.0875 78.3937 82.7407 82.7405C78.3939 87.0873 73.2335 90.5353 67.554 92.8876C61.8746 95.2398 55.7874 96.4503 49.6401 96.4499V96.4499Z" fill="url(#paint0_linear_1114_1307)"/>
<path fill-rule="evenodd" clip-rule="evenodd" d="M95.54 49.6399C95.54 58.718 92.848 67.5923 87.8045 75.1406C82.7609 82.6888 75.5923 88.5719 67.2052 92.046C58.818 95.52 49.5891 96.429 40.6854 94.6579C31.7816 92.8869 23.603 88.5153 17.1838 82.0961C10.7646 75.6769 6.39302 67.4983 4.62196 58.5945C2.85089 49.6908 3.75987 40.4618 7.23393 32.0747C10.708 23.6876 16.5911 16.519 24.1393 11.4754C31.6875 6.43187 40.5618 3.73988 49.64 3.73988C55.6677 3.73986 61.6363 4.92708 67.2052 7.23377C72.774 9.54045 77.834 12.9214 82.0963 17.1836C86.3585 21.4458 89.7394 26.5058 92.0461 32.0747C94.3528 37.6435 95.54 43.6122 95.54 49.6399V49.6399ZM49.64 -0.000106449C59.4579 -0.000106449 69.0552 2.91123 77.2185 8.36574C85.3818 13.8203 91.7442 21.573 95.5014 30.6435C99.2585 39.714 100.242 49.695 98.3262 59.3242C96.4108 68.9534 91.6831 77.7984 84.7408 84.7407C77.7985 91.683 68.9535 96.4107 59.3243 98.3261C49.6951 100.241 39.7141 99.2584 30.6436 95.5013C21.5731 91.7441 13.8204 85.3816 8.36584 77.2184C2.91133 69.0551 -1.61629e-06 59.4577 3.61524e-07 49.6399C-0.000786426 43.1208 1.28265 36.6655 3.77702 30.6425C6.27138 24.6196 9.92781 19.147 14.5375 14.5374C19.1471 9.9277 24.6197 6.27127 30.6427 3.77691C36.6656 1.28254 43.121 -0.000894549 49.64 -0.000106449V-0.000106449Z" fill="#F2F1F0"/>
<path fill-rule="evenodd" clip-rule="evenodd" d="M92.7296 49.64C92.7296 58.1624 90.2024 66.4934 85.4676 73.5795C80.7328 80.6656 74.0031 86.1886 66.1294 89.45C58.2557 92.7113 49.5918 93.5647 41.2331 91.902C32.8745 90.2394 25.1966 86.1355 19.1703 80.1092C13.1441 74.083 9.04017 66.4051 7.37753 58.0464C5.7149 49.6878 6.56822 41.0238 9.8296 33.1502C13.091 25.2765 18.6139 18.5468 25.7 13.812C32.7862 9.07718 41.1172 6.55 49.6396 6.55C55.2983 6.54965 60.9017 7.66397 66.1298 9.82933C71.3579 11.9947 76.1082 15.1687 80.1096 19.17C84.1109 23.1713 87.2849 27.9217 89.4502 33.1498C91.6156 38.3778 92.7299 43.9812 92.7296 49.64ZM49.6396 2.81C58.9017 2.81 67.9558 5.55653 75.6569 10.7023C83.3581 15.848 89.3604 23.1619 92.9049 31.7189C96.4493 40.276 97.3767 49.6919 95.5697 58.7761C93.7628 67.8602 89.3027 76.2045 82.7534 82.7538C76.2041 89.3031 67.8598 93.7632 58.7757 95.5702C49.6915 97.3771 40.2756 96.4497 31.7185 92.9053C23.1614 89.3608 15.8476 83.3585 10.7018 75.6574C5.5561 67.9562 2.80957 58.9021 2.80957 49.64C2.81076 37.2203 7.74501 25.3096 16.5271 16.5275C25.3091 7.74544 37.2198 2.81119 49.6396 2.81V2.81Z" fill="#0078D4"/>
<path fill-rule="evenodd" clip-rule="evenodd" d="M92.7301 49.7835C92.7301 58.3059 90.2029 66.6369 85.4681 73.723C80.7333 80.8091 74.0036 86.3321 66.1299 89.5935C58.2562 92.8549 49.5923 93.7082 41.2336 92.0455C32.875 90.3829 25.1971 86.279 19.1708 80.2527C13.1446 74.2265 9.04066 66.5486 7.37802 58.1899C5.71538 49.8313 6.56871 41.1673 9.83009 33.2937C13.0915 25.42 18.6144 18.6903 25.7005 13.9555C32.7867 9.22069 41.1177 6.69351 49.6401 6.69351C55.2988 6.69316 60.9022 7.80748 66.1303 9.97284C71.3584 12.1382 76.1087 15.3122 80.1101 19.3135C84.1114 23.3149 87.2854 28.0652 89.4507 33.2933C91.6161 38.5213 92.7304 44.1248 92.7301 49.7835V49.7835ZM49.6401 2.95351C58.9022 2.95351 67.9563 5.70004 75.6574 10.8458C83.3586 15.9915 89.3609 23.3054 92.9053 31.8624C96.4498 40.4195 97.3772 49.8355 95.5702 58.9196C93.7633 68.0037 89.3032 76.348 82.7539 82.8973C76.2046 89.4466 67.8603 93.9067 58.7761 95.7137C49.692 97.5206 40.2761 96.5932 31.719 93.0488C23.1619 89.5043 15.8481 83.502 10.7023 75.8009C5.55659 68.0997 2.81006 59.0456 2.81006 49.7835C2.81124 37.3638 7.74548 25.4531 16.5276 16.671C25.3096 7.88892 37.2203 2.95467 49.64 2.95348L49.6401 2.95351Z" fill="#0078D4"/>
<path opacity="0.2" d="M68.1811 23.7469H31.0989C29.1682 23.7469 27.603 25.3121 27.603 27.2428V74.5762C27.603 76.507 29.1682 78.0721 31.0989 78.0721H68.1811C70.1118 78.0721 71.6769 76.507 71.6769 74.5762V27.2428C71.6769 25.3121 70.1118 23.7469 68.1811 23.7469Z" fill="#1F56A3"/>
<path d="M68.1811 21.9913H31.0989C29.1682 21.9913 27.603 23.5565 27.603 25.4872V72.8206C27.603 74.7513 29.1682 76.3165 31.0989 76.3165H68.1811C70.1118 76.3165 71.6769 74.7513 71.6769 72.8206V25.4872C71.6769 23.5565 70.1118 21.9913 68.1811 21.9913Z" fill="#0078D4"/>
<path d="M38.218 66.741V46.436H36.2271V66.741V68.731H38.218H63.052V66.741H38.218Z" fill="#C3F1FF"/>
<path d="M45.7285 53.9576H41.4753V64.4791H45.7285V53.9576Z" fill="white"/>
<path d="M52.9841 46.4358H48.731V64.4791H52.9841V46.4358Z" fill="#9CEBFF"/>
<path d="M60.2397 50.2887H55.9866V64.4791H60.2397V50.2887Z" fill="#1F56A3"/>
<path d="M48.8665 38.335C47.9219 38.335 46.9985 38.0549 46.2131 37.5301C45.4277 37.0053 44.8156 36.2594 44.4541 35.3868C44.0926 34.5141 43.9981 33.5538 44.1823 32.6274C44.3666 31.7009 44.8215 30.85 45.4894 30.182C46.1573 29.5141 47.0083 29.0593 47.9347 28.875C48.8612 28.6907 49.8214 28.7853 50.6941 29.1468C51.5668 29.5082 52.3127 30.1204 52.8375 30.9058C53.3623 31.6912 53.6424 32.6145 53.6424 33.5591C53.6409 34.8253 53.1373 36.0393 52.242 36.9346C51.3466 37.8299 50.1327 38.3336 48.8665 38.335V38.335ZM48.8665 30.2565C48.2133 30.2565 47.5747 30.4502 47.0316 30.8131C46.4885 31.176 46.0652 31.6918 45.8153 32.2953C45.5653 32.8987 45.4999 33.5628 45.6273 34.2034C45.7547 34.8441 46.0693 35.4325 46.5312 35.8944C46.9931 36.3563 47.5815 36.6708 48.2222 36.7983C48.8628 36.9257 49.5269 36.8603 50.1303 36.6103C50.7338 36.3604 51.2496 35.9371 51.6125 35.3939C51.9754 34.8508 52.1691 34.2123 52.1691 33.5591C52.168 32.6835 51.8197 31.8441 51.2006 31.225C50.5815 30.6059 49.7421 30.2576 48.8665 30.2565V30.2565Z" fill="white"/>
<path d="M54.4528 39.8823C54.356 39.8824 54.2602 39.8634 54.1708 39.8264C54.0814 39.7893 54.0003 39.7349 53.932 39.6664L51.202 36.9364C51.0647 36.7981 50.9877 36.611 50.988 36.4161C50.9884 36.2212 51.0659 36.0344 51.2037 35.8966C51.3416 35.7588 51.5284 35.6812 51.7233 35.6809C51.9182 35.6806 52.1052 35.7575 52.2435 35.8949L54.9735 38.6249C55.0765 38.7279 55.1466 38.8591 55.175 39.002C55.2034 39.1448 55.1888 39.2929 55.1331 39.4275C55.0774 39.5621 54.983 39.6771 54.8619 39.758C54.7408 39.839 54.5984 39.8822 54.4528 39.8823V39.8823Z" fill="white"/>
<path opacity="0.2" d="M48.8666 36.8618C50.6906 36.8618 52.1692 35.3831 52.1692 33.5591C52.1692 31.7352 50.6906 30.2565 48.8666 30.2565C47.0426 30.2565 45.564 31.7352 45.564 33.5591C45.564 35.3831 47.0426 36.8618 48.8666 36.8618Z" fill="white"/>
<path d="M42.9749 41.9669H56.3042" stroke="#1F56A3" stroke-width="0.68662" stroke-miterlimit="10"/>
<path d="M56.9788 33.9617H61.7427C62.3884 33.9617 63.0076 34.2182 63.4642 34.6748C63.9208 35.1314 64.1773 35.7506 64.1773 36.3964V54.9493C64.1773 55.5951 63.9208 56.2143 63.4642 56.6709C63.0076 57.1275 62.3884 57.384 61.7427 57.384H58.113" stroke="white" stroke-width="0.45775" stroke-miterlimit="10"/>
</g>
<defs>
<linearGradient id="paint0_linear_1114_1307" x1="47.8698" y1="-15.1532" x2="51.8525" y2="130.615" gradientUnits="userSpaceOnUse">
<stop stop-color="#00ABDE"/>
<stop offset="1" stop-color="#007ED8"/>
</linearGradient>
<clipPath id="clip0_1114_1307">
<rect width="99.2799" height="99.28" fill="white"/>
</clipPath>
</defs>
</svg>
