<svg width="100" height="100" viewBox="0 0 100 100" fill="none" xmlns="https://www.w3.org/2000/svg">
<g clip-path="url(#clip0)">
<path d="M49.6401 96.4481C40.382 96.4481 31.3317 93.7028 23.6339 88.5592C15.936 83.4157 9.93624 76.105 6.3933 67.5516C2.85036 58.9981 1.92337 49.5862 3.72954 40.506C5.53571 31.4257 9.99394 23.085 16.5404 16.5385C23.0869 9.99198 31.4277 5.53376 40.5079 3.72759C49.5882 1.92141 59.0001 2.84841 67.5535 6.39135C76.1069 9.93428 83.4176 15.934 88.5612 23.6319C93.7047 31.3298 96.4501 40.38 96.4501 49.6381C96.4505 55.7854 95.24 61.8726 92.8878 67.5521C90.5355 73.2315 87.0875 78.392 82.7407 82.7388C78.3939 87.0856 73.2335 90.5335 67.554 92.8858C61.8746 95.2381 55.7874 96.4486 49.6401 96.4481V96.4481Z" fill="url(#paint0_linear)"/>
<path fill-rule="evenodd" clip-rule="evenodd" d="M95.54 49.64C95.54 58.7182 92.848 67.5925 87.8045 75.1407C82.7609 82.6889 75.5923 88.572 67.2052 92.0461C58.818 95.5201 49.5891 96.4291 40.6854 94.658C31.7816 92.887 23.603 88.5154 17.1838 82.0962C10.7646 75.677 6.39302 67.4984 4.62196 58.5946C2.85089 49.6909 3.75987 40.462 7.23393 32.0748C10.708 23.6877 16.5911 16.5191 24.1393 11.4755C31.6875 6.43199 40.5618 3.74 49.64 3.74C55.6677 3.73998 61.6363 4.9272 67.2052 7.23388C72.774 9.54057 77.834 12.9215 82.0963 17.1837C86.3585 21.446 89.7394 26.5059 92.0461 32.0748C94.3528 37.6437 95.54 43.6123 95.54 49.64V49.64ZM49.64 3.62732e-07C59.4579 3.62732e-07 69.0553 2.91134 77.2185 8.36585C85.3818 13.8204 91.7442 21.5731 95.5014 30.6436C99.2585 39.7141 100.242 49.6951 98.3262 59.3243C96.4108 68.9535 91.6831 77.7985 84.7408 84.7408C77.7985 91.6831 68.9535 96.4108 59.3243 98.3262C49.6951 100.242 39.7141 99.2585 30.6436 95.5014C21.5731 91.7442 13.8204 85.3818 8.36585 77.2185C2.91134 69.0553 3.62732e-07 59.4579 3.62732e-07 49.64C-0.000787738 43.121 1.28265 36.6656 3.77702 30.6427C6.27138 24.6197 9.9278 19.1471 14.5375 14.5375C19.1471 9.9278 24.6197 6.27138 30.6427 3.77702C36.6656 1.28265 43.121 -0.000787738 49.64 3.62732e-07V3.62732e-07Z" fill="#F2F1F0"/>
<path fill-rule="evenodd" clip-rule="evenodd" d="M92.7296 49.6386C92.7296 58.161 90.2024 66.492 85.4676 73.5781C80.7328 80.6643 74.0031 86.1872 66.1294 89.4486C58.2557 92.71 49.5918 93.5633 41.2331 91.9007C32.8745 90.238 25.1966 86.1341 19.1703 80.1079C13.1441 74.0816 9.04017 66.4037 7.37753 58.0451C5.7149 49.6864 6.56822 41.0225 9.8296 33.1488C13.091 25.2751 18.6139 18.5454 25.7 13.8106C32.7862 9.07581 41.1172 6.54862 49.6396 6.54862C55.2983 6.54828 60.9017 7.6626 66.1298 9.82795C71.3579 11.9933 76.1082 15.1673 80.1096 19.1686C84.1109 23.17 87.2849 27.9203 89.4502 33.1484C91.6156 38.3765 92.7299 43.9799 92.7296 49.6386V49.6386ZM49.6396 2.80862C58.9017 2.80862 67.9558 5.55515 75.6569 10.7009C83.3581 15.8466 89.3604 23.1605 92.9049 31.7176C96.4493 40.2746 97.3767 49.6906 95.5697 58.7747C93.7628 67.8588 89.3027 76.2031 82.7534 82.7524C76.2041 89.3017 67.8598 93.7619 58.7757 95.5688C49.6915 97.3757 40.2756 96.4484 31.7185 92.9039C23.1614 89.3594 15.8476 83.3571 10.7018 75.656C5.5561 67.9548 2.80957 58.9007 2.80957 49.6386C2.81076 37.2189 7.745 25.3082 16.5271 16.5261C25.3091 7.74403 37.2198 2.80979 49.6396 2.80859V2.80862Z" fill="#0078D4"/>
<path fill-rule="evenodd" clip-rule="evenodd" d="M92.7296 49.6386C92.7296 58.161 90.2024 66.492 85.4676 73.5781C80.7328 80.6642 74.0031 86.1872 66.1294 89.4486C58.2557 92.7099 49.5918 93.5633 41.2331 91.9006C32.8745 90.238 25.1966 86.1341 19.1703 80.1078C13.1441 74.0816 9.04017 66.4037 7.37753 58.045C5.7149 49.6864 6.56822 41.0224 9.8296 33.1488C13.091 25.2751 18.6139 18.5454 25.7001 13.8106C32.7862 9.07578 41.1172 6.54859 49.6396 6.54859C55.2983 6.54825 60.9017 7.66257 66.1298 9.82792C71.3579 11.9933 76.1082 15.1673 80.1096 19.1686C84.1109 23.1699 87.2849 27.9203 89.4502 33.1484C91.6156 38.3764 92.7299 43.9798 92.7296 49.6386V49.6386ZM49.6396 2.80859C58.9017 2.80859 67.9558 5.55513 75.6569 10.7009C83.3581 15.8466 89.3604 23.1605 92.9048 31.7175C96.4493 40.2746 97.3767 49.6905 95.5697 58.7747C93.7628 67.8588 89.3027 76.2031 82.7534 82.7524C76.2041 89.3017 67.8598 93.7618 58.7757 95.5688C49.6915 97.3757 40.2756 96.4483 31.7185 92.9039C23.1614 89.3594 15.8476 83.3571 10.7018 75.656C5.5561 67.9548 2.80957 58.9007 2.80957 49.6386C2.81076 37.2189 7.74501 25.3082 16.5271 16.5261C25.3091 7.74403 37.2198 2.80979 49.6396 2.80859V2.80859Z" fill="#0078D4"/>
<path d="M35.2236 24.6421V30.3494H21.9066C21.402 30.3494 20.9181 30.5498 20.5614 30.9066C20.2046 31.2634 20.0042 31.7473 20.0042 32.2518V61.4223C20.0041 62.3384 20.1846 63.2454 20.5351 64.0918C20.8857 64.9381 21.3995 65.7071 22.0472 66.3548C22.695 67.0025 23.464 67.5164 24.3103 67.8669C25.1566 68.2175 26.0637 68.3979 26.9797 68.3979H63.76C64.676 68.3979 65.5831 68.2175 66.4294 67.8669C67.2757 67.5164 68.0447 67.0026 68.6924 66.3548C69.3402 65.7071 69.854 64.9381 70.2045 64.0918C70.5551 63.2455 70.7355 62.3384 70.7355 61.4223V32.2518C70.7355 31.7473 70.5351 31.2634 70.1783 30.9066C69.8215 30.5498 69.3376 30.3494 68.8331 30.3494H55.5161V24.6421C55.5161 23.4648 55.0484 22.3358 54.2159 21.5033C53.3834 20.6708 52.2544 20.2031 51.0771 20.2031H39.6626C38.4853 20.2031 37.3562 20.6708 36.5237 21.5033C35.6913 22.3358 35.2236 23.4648 35.2236 24.6421V24.6421ZM39.6626 24.008H51.0771C51.1604 24.008 51.2429 24.0244 51.3198 24.0562C51.3967 24.0881 51.4667 24.1348 51.5255 24.1937C51.5844 24.2526 51.6311 24.3225 51.663 24.3994C51.6949 24.4764 51.7113 24.5588 51.7113 24.6421V30.3494H39.0284V24.6421C39.0284 24.4739 39.0952 24.3126 39.2142 24.1937C39.3331 24.0748 39.4944 24.008 39.6626 24.008H39.6626ZM35.2236 48.1054V39.2274H44.1016V48.1054H35.2236ZM35.2236 59.5199V50.6419H44.1016V59.5199H35.2236ZM55.5161 48.1054H46.6381V39.2274H55.5161V48.1054ZM46.6381 59.5199V50.6419H55.5161V59.5199H46.6381Z" fill="url(#paint1_linear)"/>
<path d="M35.2236 48.1046V39.2266H44.1016V48.1046H35.2236ZM35.2236 59.5191V50.6411H44.1016V59.5191H35.2236ZM55.5161 48.1046H46.6381V39.2266H55.5161V48.1046ZM46.6381 59.5191V50.6411H55.5161V59.5191H46.6381Z" fill="white"/>
<path opacity="0.2" fill-rule="evenodd" clip-rule="evenodd" d="M70.7355 68.3957V48.6397H68.644C68.5502 47.6679 68.0978 46.766 67.3751 46.1097C66.6523 45.4534 65.7111 45.0898 64.7348 45.0898C63.7586 45.0898 62.8174 45.4534 62.0946 46.1097C61.3719 46.766 60.9195 47.6679 60.8257 48.6397H55.5161C54.5582 48.6407 53.6398 49.0216 52.9625 49.6989C52.2851 50.3762 51.904 51.2945 51.9028 52.2524V68.3957H70.7355Z" fill="#003067"/>
<path d="M73.9529 50.6406H55.516C54.6254 50.6406 53.9033 51.3627 53.9033 52.2533V77.4482C53.9033 78.3388 54.6254 79.0609 55.516 79.0609H73.9529C74.8436 79.0609 75.5656 78.3388 75.5656 77.4482V52.2533C75.5656 51.3627 74.8436 50.6406 73.9529 50.6406Z" fill="#FFFFFE"/>
<path fill-rule="evenodd" clip-rule="evenodd" d="M53.9033 77.4486C53.9046 77.876 54.0749 78.2854 54.377 78.5876C54.6792 78.8898 55.0887 79.0601 55.516 79.0613H73.953C74.3803 79.0601 74.7898 78.8898 75.092 78.5876C75.3941 78.2854 75.5644 77.876 75.5657 77.4486V70H53.9033V77.4486Z" fill="#0078D4"/>
<path fill-rule="evenodd" clip-rule="evenodd" d="M67.6244 53.354H61.8443C61.312 53.354 61.3626 53.1387 61.3626 52.8723C61.3626 52.6059 61.312 52.3906 61.8443 52.3906H67.6244C68.1561 52.3906 68.106 52.6059 68.106 52.8723C68.106 53.1387 68.1561 53.354 67.6244 53.354Z" fill="#F2F2F2"/>
<path opacity="0.75" fill-rule="evenodd" clip-rule="evenodd" d="M64.7346 49.9799C64.544 49.9799 64.3578 49.9234 64.1993 49.8176C64.0409 49.7117 63.9174 49.5612 63.8445 49.3852C63.7716 49.2092 63.7525 49.0155 63.7897 48.8286C63.8269 48.6417 63.9186 48.4701 64.0534 48.3354C64.1881 48.2006 64.3597 48.1089 64.5466 48.0717C64.7335 48.0346 64.9272 48.0536 65.1032 48.1265C65.2792 48.1995 65.4297 48.3229 65.5355 48.4814C65.6414 48.6398 65.6979 48.826 65.6979 49.0166C65.6979 49.2721 65.5964 49.5171 65.4157 49.6977C65.2351 49.8784 64.99 49.9799 64.7346 49.9799V49.9799ZM64.7346 47.0899C64.2236 47.0899 63.7335 47.2929 63.3722 47.6542C63.0109 48.0155 62.8079 48.5056 62.8079 49.0166V53.3516H66.6613V49.0165C66.6612 48.5056 66.4582 48.0155 66.0969 47.6542C65.7356 47.2929 65.2455 47.0899 64.7346 47.0898V47.0899Z" fill="#E8E8E8"/>
<path opacity="0.75" fill-rule="evenodd" clip-rule="evenodd" d="M65.698 49.0165C65.6979 49.272 65.5964 49.517 65.4157 49.6976C65.2351 49.8783 64.9901 49.9798 64.7346 49.9799V53.3516H66.6613V49.0165C66.6613 48.5056 66.4583 48.0155 66.097 47.6542C65.7357 47.2929 65.2456 47.0899 64.7346 47.0898V48.0532C64.9901 48.0533 65.2351 48.1548 65.4157 48.3355C65.5964 48.5161 65.6979 48.7611 65.698 49.0165V49.0165Z" fill="#F2F2F2"/>
<path d="M64.7345 65.0115C67.3481 65.0115 69.4668 62.8928 69.4668 60.2792C69.4668 57.6656 67.3481 55.5469 64.7345 55.5469C62.1209 55.5469 60.0022 57.6656 60.0022 60.2792C60.0022 62.8928 62.1209 65.0115 64.7345 65.0115Z" fill="#B3B3B3"/>
<path fill-rule="evenodd" clip-rule="evenodd" d="M71.9949 69.9982C71.2738 68.7055 70.2208 67.6287 68.9444 66.8791C67.668 66.1296 66.2147 65.7344 64.7345 65.7344C63.2543 65.7344 61.801 66.1296 60.5246 66.8791C59.2482 67.6287 58.1951 68.7055 57.4741 69.9982H71.9949Z" fill="#B3B3B3"/>
<path d="M59.7899 76.3723C60.8064 76.3723 61.6304 75.5483 61.6304 74.5319C61.6304 73.5154 60.8064 72.6914 59.7899 72.6914C58.7735 72.6914 57.9495 73.5154 57.9495 74.5319C57.9495 75.5483 58.7735 76.3723 59.7899 76.3723Z" fill="#1B93EB"/>
<path d="M63.2327 74.0547H70.1526" stroke="#1B93EB" stroke-width="0.53757" stroke-miterlimit="10" stroke-linecap="round"/>
<path d="M63.2327 75.3203H71.5195" stroke="#1B93EB" stroke-width="0.53757" stroke-miterlimit="10" stroke-linecap="round"/>
</g>
<defs>
<linearGradient id="paint0_linear" x1="47.8698" y1="-15.155" x2="51.8525" y2="130.613" gradientUnits="userSpaceOnUse">
<stop stop-color="#00ABDE"/>
<stop offset="1" stop-color="#007ED8"/>
</linearGradient>
<linearGradient id="paint1_linear" x1="45.3698" y1="68.3979" x2="45.3698" y2="20.2031" gradientUnits="userSpaceOnUse">
<stop stop-color="#32BEDD"/>
<stop offset="0.18" stop-color="#32CAEA"/>
<stop offset="0.41" stop-color="#32D2F2"/>
<stop offset="0.78" stop-color="#32D4F5"/>
</linearGradient>
<clipPath id="clip0">
<rect width="99.2799" height="99.28" fill="white"/>
</clipPath>
</defs>
</svg>
