<svg width="100" height="100" viewBox="0 0 100 100" fill="none" xmlns="http://www.w3.org/2000/svg">
<g clip-path="url(#clip0_1114_1162)">
<path d="M49.6401 96.45C40.382 96.45 31.3317 93.7047 23.6339 88.5611C15.936 83.4176 9.93624 76.1068 6.3933 67.5534C2.85036 59 1.92337 49.5881 3.72954 40.5078C5.53571 31.4276 9.99394 23.0868 16.5404 16.5403C23.0869 9.99384 31.4277 5.53562 40.5079 3.72945C49.5882 1.92327 59.0001 2.85027 67.5535 6.39321C76.1069 9.93614 83.4176 15.9359 88.5612 23.6338C93.7047 31.3316 96.4501 40.3819 96.4501 49.64C96.4505 55.7873 95.24 61.8745 92.8878 67.5539C90.5355 73.2334 87.0875 78.3938 82.7407 82.7406C78.3939 87.0874 73.2335 90.5354 67.554 92.8877C61.8746 95.2399 55.7874 96.4504 49.6401 96.45V96.45Z" fill="url(#paint0_linear_1114_1162)"/>
<path fill-rule="evenodd" clip-rule="evenodd" d="M95.54 49.64C95.54 58.7182 92.848 67.5925 87.8045 75.1407C82.7609 82.6889 75.5923 88.572 67.2052 92.0461C58.818 95.5201 49.5891 96.4291 40.6854 94.658C31.7816 92.887 23.603 88.5154 17.1838 82.0962C10.7646 75.677 6.39302 67.4984 4.62196 58.5946C2.85089 49.6909 3.75987 40.462 7.23393 32.0748C10.708 23.6877 16.5911 16.5191 24.1393 11.4755C31.6875 6.43199 40.5618 3.74 49.64 3.74C55.6677 3.73998 61.6363 4.9272 67.2052 7.23388C72.774 9.54057 77.834 12.9215 82.0963 17.1837C86.3585 21.446 89.7394 26.5059 92.0461 32.0748C94.3528 37.6437 95.54 43.6123 95.54 49.64V49.64ZM49.64 3.62732e-07C59.4579 3.62732e-07 69.0553 2.91134 77.2185 8.36585C85.3818 13.8204 91.7442 21.5731 95.5014 30.6436C99.2585 39.7141 100.242 49.6951 98.3262 59.3243C96.4108 68.9535 91.6831 77.7985 84.7408 84.7408C77.7985 91.6831 68.9535 96.4108 59.3243 98.3262C49.6951 100.242 39.7141 99.2585 30.6436 95.5014C21.5731 91.7442 13.8204 85.3818 8.36585 77.2185C2.91134 69.0553 3.62732e-07 59.4579 3.62732e-07 49.64C-0.000787738 43.121 1.28265 36.6656 3.77702 30.6427C6.27138 24.6197 9.9278 19.1471 14.5375 14.5375C19.1471 9.9278 24.6197 6.27138 30.6427 3.77702C36.6656 1.28265 43.121 -0.000787738 49.64 3.62732e-07V3.62732e-07Z" fill="#F2F1F0"/>
<path fill-rule="evenodd" clip-rule="evenodd" d="M92.7296 49.6401C92.7296 58.1625 90.2024 66.4935 85.4676 73.5796C80.7328 80.6657 74.0031 86.1887 66.1294 89.4501C58.2557 92.7114 49.5918 93.5648 41.2331 91.9021C32.8745 90.2395 25.1966 86.1356 19.1703 80.1093C13.1441 74.0831 9.04017 66.4052 7.37753 58.0465C5.7149 49.6879 6.56822 41.0239 9.8296 33.1503C13.091 25.2766 18.6139 18.5469 25.7 13.8121C32.7862 9.07727 41.1172 6.55009 49.6396 6.55009C55.2983 6.54974 60.9017 7.66407 66.1298 9.82942C71.3579 11.9948 76.1082 15.1687 80.1096 19.1701C84.1109 23.1714 87.2849 27.9218 89.4502 33.1499C91.6156 38.3779 92.7299 43.9813 92.7296 49.6401V49.6401ZM49.6396 2.81009C58.9017 2.81009 67.9558 5.55662 75.6569 10.7024C83.3581 15.8481 89.3604 23.162 92.9049 31.719C96.4493 40.2761 97.3767 49.692 95.5697 58.7762C93.7628 67.8603 89.3027 76.2046 82.7534 82.7539C76.2041 89.3032 67.8598 93.7633 58.7757 95.5703C49.6915 97.3772 40.2756 96.4498 31.7185 92.9054C23.1614 89.3609 15.8476 83.3586 10.7018 75.6574C5.5561 67.9563 2.80957 58.9022 2.80957 49.6401C2.81076 37.2204 7.745 25.3097 16.5271 16.5276C25.3091 7.7455 37.2198 2.81125 49.6396 2.81006V2.81009Z" fill="#0078D4"/>
<path fill-rule="evenodd" clip-rule="evenodd" d="M92.7637 49.6401C92.7637 58.1625 90.2366 66.4935 85.5018 73.5796C80.767 80.6657 74.0372 86.1887 66.1636 89.4501C58.2899 92.7114 49.6259 93.5648 41.2673 91.9021C32.9087 90.2395 25.2308 86.1356 19.2045 80.1093C13.1783 74.0831 9.07435 66.4052 7.41171 58.0465C5.74908 49.6879 6.6024 41.0239 9.86378 33.1503C13.1252 25.2766 18.6481 18.5469 25.7342 13.8121C32.8203 9.07727 41.1514 6.55009 49.6738 6.55009C55.3325 6.54974 60.9359 7.66407 66.164 9.82942C71.3921 11.9948 76.1424 15.1687 80.1437 19.1701C84.1451 23.1714 87.3191 27.9218 89.4844 33.1499C91.6498 38.3779 92.7641 43.9813 92.7637 49.6401V49.6401ZM49.6738 2.81009C58.9359 2.81009 67.9899 5.55662 75.6911 10.7024C83.3923 15.8481 89.3946 23.162 92.939 31.719C96.4835 40.2761 97.4109 49.692 95.6039 58.7762C93.797 67.8603 89.3369 76.2046 82.7876 82.7539C76.2383 89.3032 67.894 93.7633 58.8098 95.5703C49.7257 97.3772 40.3097 96.4498 31.7527 92.9054C23.1956 89.3609 15.8818 83.3586 10.736 75.6574C5.59028 67.9563 2.84375 58.9022 2.84375 49.6401C2.84494 37.2204 7.77918 25.3097 16.5612 16.5276C25.3433 7.7455 37.254 2.81125 49.6738 2.81006V2.81009Z" fill="#0078D4"/>
<path d="M42.5149 32.6948H28.1744C27.3619 32.6972 26.5833 33.021 26.0087 33.5956C25.4341 34.1702 25.1103 34.9488 25.1079 35.7613V49.7333H74.1724V40.3611C74.17 39.5486 73.8462 38.77 73.2716 38.1954C72.697 37.6208 71.9184 37.297 71.1059 37.2946H48.1069L45.3997 34.046C45.0473 33.6231 44.6062 33.2828 44.1077 33.0493C43.6091 32.8158 43.0654 32.6948 42.5149 32.6948Z" fill="url(#paint1_linear_1114_1162)"/>
<path d="M66.5627 23.6635H32.7178C30.687 23.6635 29.0408 25.3098 29.0408 27.3405V41.0375C29.0408 43.0683 30.687 44.7145 32.7178 44.7145H66.5627C68.5934 44.7145 70.2397 43.0683 70.2397 41.0375V27.3405C70.2397 25.3098 68.5934 23.6635 66.5627 23.6635Z" fill="white"/>
<path d="M40.8806 38.5607C39.8488 38.5607 38.8402 38.2548 37.9823 37.6816C37.1244 37.1083 36.4558 36.2936 36.0609 35.3404C35.6661 34.3871 35.5628 33.3382 35.7641 32.3263C35.9653 31.3143 36.4622 30.3848 37.1918 29.6552C37.9213 28.9256 38.8509 28.4288 39.8628 28.2275C40.8748 28.0262 41.9237 28.1295 42.8769 28.5243C43.8302 28.9192 44.6449 29.5878 45.2181 30.4457C45.7914 31.3036 46.0973 32.3122 46.0973 33.344C46.0958 34.7271 45.5456 36.0531 44.5676 37.0311C43.5896 38.0091 42.2637 38.5592 40.8806 38.5607ZM40.8806 29.7365C40.1671 29.7365 39.4696 29.9481 38.8764 30.3445C38.2831 30.7409 37.8207 31.3043 37.5477 31.9635C37.2746 32.6226 37.2032 33.348 37.3424 34.0478C37.4816 34.7476 37.8252 35.3904 38.3297 35.8949C38.8342 36.3994 39.477 36.743 40.1768 36.8822C40.8766 37.0214 41.6019 36.9499 42.2611 36.6769C42.9203 36.4038 43.4837 35.9415 43.8801 35.3482C44.2765 34.755 44.488 34.0575 44.488 33.344C44.4869 32.3876 44.1065 31.4707 43.4302 30.7944C42.7539 30.1181 41.837 29.7377 40.8806 29.7365V29.7365Z" fill="#1F56A3"/>
<path d="M46.9821 40.2508C46.8764 40.251 46.7718 40.2302 46.6741 40.1898C46.5765 40.1493 46.4878 40.0899 46.4133 40.015L43.4313 37.033C43.281 36.882 43.1968 36.6776 43.197 36.4646C43.1973 36.2515 43.282 36.0473 43.4326 35.8967C43.5833 35.746 43.7875 35.6613 44.0005 35.6611C44.2135 35.6608 44.418 35.7451 44.569 35.8953L47.551 38.8773C47.6634 38.9899 47.74 39.1332 47.771 39.2893C47.8021 39.4453 47.7861 39.6071 47.7253 39.754C47.6644 39.901 47.5613 40.0267 47.429 40.1151C47.2967 40.2035 47.1412 40.2508 46.9821 40.2508H46.9821Z" fill="#1F56A3"/>
<path opacity="0.2" d="M40.8804 36.9515C42.8728 36.9515 44.4879 35.3363 44.4879 33.344C44.4879 31.3516 42.8728 29.7365 40.8804 29.7365C38.8881 29.7365 37.2729 31.3516 37.2729 33.344C37.2729 35.3363 38.8881 36.9515 40.8804 36.9515Z" fill="#1F56A3"/>
<path d="M64.7524 30.1045H58.4391L57.696 29.2128C57.5993 29.0967 57.4782 29.0033 57.3414 28.9392C57.2045 28.8751 57.0553 28.8419 56.9042 28.8419H52.9678C52.7447 28.8425 52.531 28.9314 52.3733 29.0891C52.2155 29.2469 52.1266 29.4606 52.126 29.6836V32.2784C52.126 31.9467 52.2578 31.6285 52.4923 31.3939C52.7269 31.1594 53.0451 31.0276 53.3768 31.0275H64.3432C64.5075 31.0275 64.6702 31.0599 64.8219 31.1227C64.9737 31.1856 65.1116 31.2777 65.2278 31.3939C65.344 31.51 65.4361 31.6479 65.499 31.7997C65.5619 31.9515 65.5942 32.1142 65.5942 32.2784V30.9463C65.5936 30.7232 65.5047 30.5095 65.347 30.3518C65.1892 30.1941 64.9755 30.1052 64.7524 30.1045V30.1045Z" fill="#0078D4"/>
<path d="M65.5942 32.8696V38.491C65.5942 38.6283 65.5672 38.7642 65.5147 38.891C65.4621 39.0178 65.3851 39.133 65.2881 39.23C65.1911 39.3271 65.0758 39.4041 64.949 39.4566C64.8222 39.5091 64.6863 39.5361 64.5491 39.5361H53.1711C52.8939 39.5361 52.6281 39.426 52.4321 39.23C52.2361 39.034 52.126 38.7682 52.126 38.491V32.8696C52.126 32.5925 52.2361 32.3266 52.4321 32.1306C52.6281 31.9346 52.8939 31.8245 53.1711 31.8245H64.5491C64.8263 31.8245 65.0921 31.9346 65.2881 32.1306C65.4841 32.3266 65.5942 32.5925 65.5942 32.8696V32.8696Z" fill="#0078D4"/>
<path opacity="0.3" d="M29.665 40.6572H69.6154C70.824 40.6572 71.983 41.1373 72.8376 41.9919C73.6922 42.8465 74.1724 44.0056 74.1724 45.2141V46.9353H25.1079V45.2142C25.1079 44.6158 25.2258 44.0232 25.4548 43.4703C25.6838 42.9174 26.0195 42.415 26.4426 41.9919C26.8658 41.5687 27.3682 41.233 27.921 41.004C28.4739 40.775 29.0665 40.6571 29.665 40.6572V40.6572Z" fill="#003067"/>
<path d="M74.1724 46.7405V67.2191C74.1724 68.2288 73.7713 69.1973 73.0573 69.9113C72.3432 70.6253 71.3748 71.0264 70.3651 71.0265H28.9153C27.9055 71.0264 26.9371 70.6253 26.2231 69.9113C25.509 69.1973 25.1079 68.2288 25.1079 67.2191V46.7405C25.1079 45.7307 25.509 44.7623 26.2231 44.0483C26.9371 43.3343 27.9055 42.9331 28.9153 42.9331H70.3651C71.3748 42.9331 72.3432 43.3343 73.0573 44.0483C73.7713 44.7623 74.1724 45.7307 74.1724 46.7405V46.7405Z" fill="url(#paint2_linear_1114_1162)"/>
<path opacity="0.2" d="M60.8596 71.0264V67.2241C60.8581 66.0482 60.4489 64.9093 59.7017 64.0014C58.9545 63.0935 57.9155 62.4728 56.762 62.2451V62.102C56.762 61.1667 56.5777 60.2406 56.2198 59.3765C55.8619 58.5124 55.3373 57.7273 54.676 57.0659C54.0146 56.4046 53.2295 55.88 52.3654 55.5221C51.5013 55.1642 50.5752 54.9799 49.6399 54.9799C48.7046 54.9799 47.7785 55.1642 46.9144 55.5221C46.0503 55.88 45.2652 56.4046 44.6038 57.0659C43.9425 57.7273 43.4179 58.5124 43.06 59.3765C42.702 60.2406 42.5178 61.1667 42.5178 62.102V62.2451C41.3642 62.4728 40.3253 63.0935 39.5781 64.0014C38.8309 64.9093 38.4217 66.0482 38.4202 67.2241V71.0264L60.8596 71.0264ZM49.5911 62.102C49.591 62.0956 49.5923 62.0892 49.5947 62.0833C49.5972 62.0774 49.6008 62.072 49.6053 62.0674C49.6099 62.0629 49.6153 62.0593 49.6212 62.0568C49.6271 62.0544 49.6335 62.0532 49.6399 62.0532L49.6887 62.102V62.1508H49.5911V62.102Z" fill="#1F56A3"/>
<path d="M55.7869 64.151H54.7625V62.102C54.7625 60.7435 54.2228 59.4407 53.2622 58.48C52.3016 57.5194 50.9988 56.9798 49.6403 56.9798C48.2818 56.9798 46.9789 57.5194 46.0183 58.48C45.0577 59.4407 44.5181 60.7435 44.5181 62.102V64.151H43.4935C42.6784 64.151 41.8967 64.4748 41.3203 65.0512C40.744 65.6275 40.4202 66.4093 40.4202 67.2244V77.4687C40.4202 77.8723 40.4996 78.272 40.6541 78.6449C40.8085 79.0178 41.0349 79.3566 41.3203 79.642C41.6057 79.9274 41.9445 80.1537 42.3174 80.3082C42.6903 80.4626 43.0899 80.5421 43.4935 80.5421H55.7869C56.1905 80.5421 56.5902 80.4626 56.963 80.3082C57.3359 80.1537 57.6747 79.9274 57.9601 79.642C58.2455 79.3566 58.4719 79.0178 58.6263 78.6449C58.7808 78.272 58.8603 77.8723 58.8603 77.4687V67.2243C58.8602 66.4092 58.5364 65.6275 57.9601 65.0512C57.3837 64.4748 56.602 64.151 55.7869 64.151ZM49.6402 74.3954C49.235 74.3954 48.8388 74.2752 48.5019 74.0501C48.165 73.825 47.9024 73.505 47.7473 73.1306C47.5922 72.7562 47.5517 72.3442 47.6307 71.9468C47.7098 71.5493 47.9049 71.1843 48.1915 70.8977C48.478 70.6112 48.8431 70.4161 49.2405 70.337C49.638 70.258 50.0499 70.2985 50.4243 70.4536C50.7987 70.6087 51.1187 70.8713 51.3438 71.2082C51.569 71.5452 51.6891 71.9413 51.6891 72.3465C51.6891 72.6156 51.6361 72.882 51.5332 73.1306C51.4302 73.3792 51.2793 73.6051 51.089 73.7953C50.8987 73.9856 50.6729 74.1365 50.4243 74.2395C50.1757 74.3424 49.9093 74.3954 49.6402 74.3954V74.3954ZM51.6891 64.151H47.5914V62.102C47.5908 61.8326 47.6434 61.5656 47.7461 61.3165C47.8488 61.0674 47.9996 60.841 48.1899 60.6503C48.3802 60.4596 48.6063 60.3082 48.8552 60.205C49.104 60.1017 49.3708 60.0486 49.6403 60.0486C49.9097 60.0486 50.1765 60.1017 50.4254 60.205C50.6743 60.3082 50.9003 60.4596 51.0907 60.6503C51.281 60.841 51.4318 61.0674 51.5345 61.3165C51.6372 61.5656 51.6898 61.8326 51.6892 62.102L51.6891 64.151Z" fill="#C3F1FF"/>
</g>
<defs>
<linearGradient id="paint0_linear_1114_1162" x1="47.8697" y1="-15.1531" x2="51.8525" y2="130.615" gradientUnits="userSpaceOnUse">
<stop stop-color="#00ABDE"/>
<stop offset="1" stop-color="#007ED8"/>
</linearGradient>
<linearGradient id="paint1_linear_1114_1162" x1="49.6401" y1="32.6948" x2="49.6401" y2="49.7638" gradientUnits="userSpaceOnUse">
<stop stop-color="#005BA1"/>
<stop offset="0.26" stop-color="#00589D"/>
<stop offset="0.53" stop-color="#004F90"/>
<stop offset="0.8" stop-color="#003F7C"/>
<stop offset="1" stop-color="#003067"/>
</linearGradient>
<linearGradient id="paint2_linear_1114_1162" x1="49.6402" y1="42.9331" x2="49.6402" y2="71.0265" gradientUnits="userSpaceOnUse">
<stop stop-color="#008BF1"/>
<stop offset="0.22" stop-color="#0086EC"/>
<stop offset="0.49" stop-color="#0078DD"/>
<stop offset="0.79" stop-color="#0061C4"/>
<stop offset="1" stop-color="#004DAE"/>
</linearGradient>
<clipPath id="clip0_1114_1162">
<rect width="99.2799" height="99.28" fill="white"/>
</clipPath>
</defs>
</svg>
