<svg width="100" height="100" viewBox="0 0 100 100" fill="none" xmlns="http://www.w3.org/2000/svg">
<g clip-path="url(#clip0_930_814)">
<path d="M49.6401 96.45C40.382 96.45 31.3317 93.7047 23.6339 88.5611C15.936 83.4176 9.93624 76.1068 6.3933 67.5534C2.85036 59 1.92337 49.5881 3.72954 40.5078C5.53571 31.4276 9.99394 23.0868 16.5404 16.5403C23.0869 9.99384 31.4277 5.53562 40.5079 3.72945C49.5882 1.92327 59.0001 2.85027 67.5535 6.39321C76.1069 9.93614 83.4176 15.9359 88.5612 23.6338C93.7047 31.3316 96.4501 40.3819 96.4501 49.64C96.4505 55.7873 95.24 61.8745 92.8878 67.5539C90.5355 73.2334 87.0875 78.3938 82.7407 82.7406C78.3939 87.0874 73.2335 90.5354 67.554 92.8877C61.8746 95.2399 55.7874 96.4504 49.6401 96.45V96.45Z" fill="url(#paint0_linear_930_814)"/>
<path fill-rule="evenodd" clip-rule="evenodd" d="M95.54 49.64C95.54 58.7182 92.848 67.5925 87.8045 75.1407C82.7609 82.6889 75.5923 88.572 67.2052 92.0461C58.818 95.5201 49.5891 96.4291 40.6854 94.658C31.7816 92.887 23.603 88.5154 17.1838 82.0962C10.7646 75.677 6.39302 67.4984 4.62196 58.5946C2.85089 49.6909 3.75987 40.462 7.23393 32.0748C10.708 23.6877 16.5911 16.5191 24.1393 11.4755C31.6875 6.43199 40.5618 3.74 49.64 3.74C55.6677 3.73998 61.6363 4.9272 67.2052 7.23388C72.774 9.54057 77.834 12.9215 82.0963 17.1837C86.3585 21.446 89.7394 26.5059 92.0461 32.0748C94.3528 37.6437 95.54 43.6123 95.54 49.64V49.64ZM49.64 3.62732e-07C59.4579 3.62732e-07 69.0553 2.91134 77.2185 8.36585C85.3818 13.8204 91.7442 21.5731 95.5014 30.6436C99.2585 39.7141 100.242 49.6951 98.3262 59.3243C96.4108 68.9535 91.6831 77.7985 84.7408 84.7408C77.7985 91.6831 68.9535 96.4108 59.3243 98.3262C49.6951 100.242 39.7141 99.2585 30.6436 95.5014C21.5731 91.7442 13.8204 85.3818 8.36585 77.2185C2.91134 69.0553 3.62732e-07 59.4579 3.62732e-07 49.64C-0.000787738 43.121 1.28265 36.6656 3.77702 30.6427C6.27138 24.6197 9.9278 19.1471 14.5375 14.5375C19.1471 9.9278 24.6197 6.27138 30.6427 3.77702C36.6656 1.28265 43.121 -0.000787738 49.64 3.62732e-07V3.62732e-07Z" fill="#F2F1F0"/>
<path fill-rule="evenodd" clip-rule="evenodd" d="M92.7296 49.6401C92.7296 58.1625 90.2024 66.4935 85.4676 73.5796C80.7328 80.6657 74.0031 86.1887 66.1294 89.4501C58.2557 92.7114 49.5918 93.5648 41.2331 91.9021C32.8745 90.2395 25.1966 86.1356 19.1703 80.1093C13.1441 74.0831 9.04017 66.4052 7.37753 58.0465C5.7149 49.6879 6.56822 41.0239 9.8296 33.1503C13.091 25.2766 18.6139 18.5469 25.7 13.8121C32.7862 9.07727 41.1172 6.55009 49.6396 6.55009C55.2983 6.54974 60.9017 7.66407 66.1298 9.82942C71.3579 11.9948 76.1082 15.1687 80.1096 19.1701C84.1109 23.1714 87.2849 27.9218 89.4502 33.1499C91.6156 38.3779 92.7299 43.9813 92.7296 49.6401V49.6401ZM49.6396 2.81009C58.9017 2.81009 67.9558 5.55662 75.6569 10.7024C83.3581 15.8481 89.3604 23.162 92.9049 31.719C96.4493 40.2761 97.3767 49.692 95.5697 58.7762C93.7628 67.8603 89.3027 76.2046 82.7534 82.7539C76.2041 89.3032 67.8598 93.7633 58.7757 95.5703C49.6915 97.3772 40.2756 96.4498 31.7185 92.9054C23.1614 89.3609 15.8476 83.3586 10.7018 75.6574C5.5561 67.9563 2.80957 58.9022 2.80957 49.6401C2.81076 37.2204 7.745 25.3097 16.5271 16.5276C25.3091 7.7455 37.2198 2.81125 49.6396 2.81006V2.81009Z" fill="#0078D4"/>
<path fill-rule="evenodd" clip-rule="evenodd" d="M92.7637 49.6401C92.7637 58.1625 90.2366 66.4935 85.5018 73.5796C80.767 80.6657 74.0372 86.1887 66.1636 89.4501C58.2899 92.7114 49.6259 93.5648 41.2673 91.9021C32.9087 90.2395 25.2308 86.1356 19.2045 80.1093C13.1783 74.0831 9.07435 66.4052 7.41171 58.0465C5.74908 49.6879 6.6024 41.0239 9.86378 33.1503C13.1252 25.2766 18.6481 18.5469 25.7342 13.8121C32.8203 9.07727 41.1514 6.55009 49.6738 6.55009C55.3325 6.54974 60.9359 7.66407 66.164 9.82942C71.3921 11.9948 76.1424 15.1687 80.1437 19.1701C84.1451 23.1714 87.3191 27.9218 89.4844 33.1499C91.6498 38.3779 92.7641 43.9813 92.7637 49.6401V49.6401ZM49.6738 2.81009C58.9359 2.81009 67.9899 5.55662 75.6911 10.7024C83.3923 15.8481 89.3946 23.162 92.939 31.719C96.4835 40.2761 97.4109 49.692 95.6039 58.7762C93.797 67.8603 89.3369 76.2046 82.7876 82.7539C76.2383 89.3032 67.894 93.7633 58.8098 95.5703C49.7257 97.3772 40.3097 96.4498 31.7527 92.9054C23.1956 89.3609 15.8818 83.3586 10.736 75.6574C5.59028 67.9563 2.84375 58.9022 2.84375 49.6401C2.84494 37.2204 7.77918 25.3097 16.5612 16.5276C25.3433 7.7455 37.254 2.81125 49.6738 2.81006V2.81009Z" fill="#0078D4"/>
<path opacity="0.2" d="M23.1949 74.1518H76.1525C76.4307 74.151 76.6973 74.0401 76.8941 73.8433C77.0908 73.6466 77.2017 73.38 77.2025 73.1018V31.7559H22.1448V73.1018C22.1456 73.38 22.2565 73.6466 22.4532 73.8434C22.65 74.0401 22.9166 74.151 23.1949 74.1518V74.1518Z" fill="#003067"/>
<path d="M23.1949 71.99H76.1525C76.4307 71.9892 76.6973 71.8783 76.8941 71.6816C77.0908 71.4848 77.2017 71.2182 77.2025 70.94V29.5941H22.1448V70.94C22.1456 71.2183 22.2565 71.4849 22.4533 71.6816C22.65 71.8783 22.9166 71.9892 23.1949 71.99Z" fill="#F2F2F2"/>
<path d="M22.1448 34.1706H77.2026V29.2353C77.2028 29.1295 77.1822 29.0247 77.1418 28.9269C77.1015 28.8291 77.0422 28.7403 76.9674 28.6655C76.8926 28.5907 76.8037 28.5314 76.7059 28.491C76.6081 28.4507 76.5033 28.43 76.3976 28.4303H22.9498C22.844 28.43 22.7392 28.4507 22.6414 28.491C22.5436 28.5314 22.4548 28.5907 22.38 28.6655C22.3052 28.7403 22.2459 28.8291 22.2055 28.9269C22.1652 29.0247 22.1445 29.1295 22.1448 29.2353L22.1448 34.1706Z" fill="url(#paint1_linear_930_814)"/>
<path d="M26.3803 32.8141C26.6564 32.8132 26.926 32.7305 27.155 32.5764C27.384 32.4224 27.5623 32.2038 27.6671 31.9485C27.7719 31.6931 27.7987 31.4124 27.744 31.1418C27.6893 30.8712 27.5556 30.623 27.3598 30.4284C27.164 30.2338 26.9149 30.1017 26.644 30.0487C26.3731 29.9957 26.0925 30.0242 25.8378 30.1306C25.5831 30.237 25.3657 30.4166 25.2131 30.6466C25.0604 30.8766 24.9794 31.1467 24.9803 31.4228C24.9788 31.6066 25.014 31.7889 25.084 31.959C25.1539 32.1291 25.2571 32.2834 25.3875 32.413C25.518 32.5426 25.673 32.6449 25.8435 32.7138C26.014 32.7826 26.1965 32.8167 26.3803 32.8141V32.8141Z" fill="#50E6FF"/>
<path d="M72.3222 37.7231H27.0147C26.4178 37.7231 25.9338 38.207 25.9338 38.804V66.9691C25.9338 67.566 26.4178 68.05 27.0147 68.05H72.3222C72.9192 68.05 73.4031 67.566 73.4031 66.9691V38.804C73.4031 38.207 72.9192 37.7231 72.3222 37.7231Z" fill="#E8E8E8"/>
<path d="M55.7331 48.8371H53.4026V46.9726C53.401 45.9848 53.0074 45.0379 52.3083 44.3399C51.6091 43.6419 50.6616 43.2499 49.6737 43.2499C48.6858 43.2499 47.7383 43.6419 47.0392 44.3399C46.3401 45.0379 45.9465 45.9848 45.9449 46.9726V48.8371H43.6144C43.2435 48.8371 42.8879 48.9844 42.6256 49.2466C42.3634 49.5089 42.2161 49.8645 42.2161 50.2354V60.4897C42.2161 60.8605 42.3634 61.2162 42.6256 61.4784C42.8879 61.7407 43.2435 61.888 43.6144 61.888H55.7331C56.1039 61.888 56.4596 61.7407 56.7218 61.4784C56.9841 61.2162 57.1314 60.8605 57.1314 60.4897V50.2354C57.1314 49.8645 56.9841 49.5089 56.7218 49.2466C56.4596 48.9844 56.1039 48.8371 55.7331 48.8371V48.8371ZM47.8093 46.9726C47.8088 46.7274 47.8566 46.4845 47.95 46.2578C48.0434 46.0311 48.1807 45.8251 48.3539 45.6515C48.5271 45.4779 48.7328 45.3402 48.9593 45.2462C49.1857 45.1523 49.4285 45.1039 49.6737 45.1039C49.9189 45.1039 50.1617 45.1523 50.3882 45.2462C50.6147 45.3402 50.8204 45.4779 50.9936 45.6515C51.1668 45.8251 51.304 46.0311 51.3975 46.2578C51.4909 46.4845 51.5387 46.7274 51.5382 46.9726V48.8371H47.8093V46.9726Z" fill="url(#paint2_linear_930_814)"/>
<path opacity="0.2" d="M69.3782 31.7811C69.4065 31.347 69.4192 30.9129 69.4192 30.4779V28.4303H29.8611L29.8616 30.637C29.8743 31.015 29.8938 31.3934 29.9153 31.7562C29.9407 32.1947 29.981 32.633 30.0364 33.0711C30.0636 33.2866 30.1372 33.7165 30.2212 34.1706H69.0549C69.1306 33.7573 69.1956 33.384 69.2199 33.2249C69.2961 32.743 69.3489 32.2542 69.3782 31.7811Z" fill="#003067"/>
<g opacity="0.2">
<path opacity="0.2" d="M30.2212 34.1705C30.3298 34.7598 30.4563 35.391 30.5247 35.6585C31.0717 37.8017 31.9308 39.8527 33.0745 41.7459C34.1509 43.5264 35.4135 45.1875 36.8411 46.701C38.2362 48.1777 39.7569 49.5304 41.386 50.744C41.6594 50.9475 41.9401 51.1298 42.2161 51.327V50.2354C42.2161 50.0517 42.2522 49.8699 42.3225 49.7003C42.3927 49.5306 42.4957 49.3765 42.6256 49.2466C42.7554 49.1168 42.9095 49.0138 43.0792 48.9435C43.2488 48.8732 43.4306 48.8371 43.6143 48.837H45.9448V46.9726C45.9464 45.9847 46.34 45.0378 47.0391 44.3398C47.7383 43.6419 48.6858 43.2498 49.6737 43.2498C50.6616 43.2498 51.6091 43.6419 52.3083 44.3398C53.0074 45.0378 53.401 45.9847 53.4026 46.9726V48.837H55.733C56.1039 48.8371 56.4595 48.9844 56.7218 49.2466C56.984 49.5088 57.1313 49.8645 57.1314 50.2354V51.278C57.3843 51.0966 57.6421 50.9296 57.8928 50.743C59.5223 49.5302 61.043 48.1777 62.4377 46.701C63.8652 45.1869 65.1281 43.5258 66.2053 41.7454C67.3479 39.8528 68.2066 37.8029 68.7542 35.661C68.8289 35.368 68.9522 34.7315 69.0549 34.1706L30.2212 34.1705Z" fill="#767676"/>
<path opacity="0.2" d="M49.6736 45.1082C49.4288 45.1082 49.1863 45.1565 48.9601 45.2501C48.7339 45.3438 48.5284 45.4812 48.3553 45.6543C48.1822 45.8274 48.0449 46.033 47.9512 46.2592C47.8575 46.4853 47.8093 46.7278 47.8093 46.9726V48.8371H51.5381V46.9726C51.5381 46.7278 51.4899 46.4853 51.3962 46.2591C51.3025 46.0329 51.1651 45.8274 50.992 45.6542C50.8188 45.4811 50.6133 45.3438 50.3871 45.2501C50.1609 45.1564 49.9184 45.1082 49.6736 45.1082V45.1082Z" fill="#767676"/>
</g>
<path opacity="0.2" d="M55.733 48.8371H53.4026V46.9726C53.401 45.9847 53.0074 45.0378 52.3083 44.3398C51.6091 43.6419 50.6616 43.2498 49.6737 43.2498C48.6858 43.2498 47.7383 43.6419 47.0391 44.3398C46.34 45.0378 45.9464 45.9847 45.9448 46.9726V48.8371H43.6143C43.4306 48.8371 43.2488 48.8732 43.0792 48.9435C42.9095 49.0138 42.7554 49.1168 42.6256 49.2466C42.4957 49.3765 42.3927 49.5306 42.3225 49.7003C42.2522 49.8699 42.2161 50.0518 42.2161 50.2354V51.327C43.5081 52.2503 44.8189 53.1208 46.1321 53.8836C46.8979 54.3306 47.7688 54.566 48.6555 54.5658H50.6233C51.5085 54.5661 52.3779 54.3316 53.1428 53.8861C54.4848 53.1062 55.8188 52.2196 57.1313 51.2781V50.2354C57.1313 49.8645 56.984 49.5089 56.7218 49.2466C56.4595 48.9844 56.1039 48.8371 55.733 48.8371V48.8371ZM51.5381 48.8371H47.8093V46.9726C47.8093 46.4781 48.0057 46.0039 48.3554 45.6543C48.705 45.3047 49.1792 45.1082 49.6737 45.1082C50.1682 45.1082 50.6424 45.3047 50.992 45.6543C51.3417 46.0039 51.5381 46.4781 51.5381 46.9726V48.8371Z" fill="#003067"/>
<path d="M64.4091 19.5909C63.6463 19.5909 62.9011 19.563 62.1794 19.5079C61.5135 19.4565 60.8517 19.362 60.198 19.225C59.593 19.0977 59.0003 18.9175 58.4269 18.6863C57.8635 18.4566 57.3247 18.1705 56.8189 17.8323C55.9176 17.2158 54.9326 16.7317 53.8939 16.3948C52.9267 16.0894 51.9301 15.8866 50.9204 15.7899C50.8205 15.7804 50.722 15.7752 50.6235 15.7752H48.6554C48.5569 15.7752 48.4584 15.7804 48.3585 15.7899C47.3483 15.8867 46.3512 16.0897 45.3836 16.3955C44.3611 16.7258 43.3902 17.1986 42.4997 17.7999C41.9769 18.1504 41.4212 18.449 40.8403 18.6914C40.2742 18.9214 39.6882 19.0993 39.0897 19.2227C38.4287 19.3602 37.7595 19.4554 37.0863 19.5079C36.3617 19.563 35.6229 19.5907 34.8698 19.5909C34.0715 19.5909 33.3059 19.9081 32.7413 20.4726C32.1768 21.0371 31.8597 21.8028 31.8596 22.6011L31.8611 30.572C31.8728 30.9321 31.8905 31.2922 31.9111 31.6376C31.9346 32.0323 31.9713 32.427 32.0213 32.8216C32.0728 33.2332 32.3609 34.764 32.4623 35.163C32.9611 37.1164 33.7441 38.9859 34.7861 40.7117C35.7893 42.3706 36.9659 43.9182 38.2961 45.3284C39.6112 46.7206 41.0448 47.9958 42.5807 49.1397C44.043 50.2306 45.5657 51.238 47.1416 52.1573C47.6011 52.4252 48.1236 52.5662 48.6555 52.5659H50.6236C51.1555 52.5662 51.678 52.4252 52.1376 52.1573C53.7136 51.238 55.2363 50.2303 56.6984 49.139C58.2343 47.9956 59.6679 46.7209 60.9829 45.3292C62.313 43.9186 63.4896 42.3707 64.4929 40.7117C65.535 38.9859 66.3179 37.1164 66.8167 35.1631C66.9196 34.764 67.1856 33.2912 67.2444 32.9135C67.3106 32.4924 67.3566 32.0718 67.3826 31.6516C67.4076 31.2607 67.4198 30.8694 67.4193 30.478V22.6011C67.4193 21.8028 67.1021 21.0371 66.5376 20.4726C65.9731 19.9081 65.2075 19.5909 64.4091 19.5909V19.5909Z" fill="white"/>
<path d="M50.6242 18.7858C51.4234 18.8614 52.2124 19.0213 52.978 19.2627C53.7431 19.5116 54.4685 19.8691 55.1319 20.3242C55.8136 20.7822 56.5405 21.1689 57.3012 21.4781C58.0384 21.7752 58.8003 22.0068 59.5781 22.1704C60.3597 22.3348 61.1511 22.4479 61.9474 22.5089C62.7474 22.5704 63.5679 22.6012 64.409 22.6012V30.4782C64.409 30.8064 64.3987 31.1346 64.3782 31.4628C64.3577 31.791 64.3218 32.1192 64.2705 32.4475H50.6242V18.7858ZM34.8702 22.6012C35.7009 22.6012 36.5163 22.5704 37.3163 22.5089C38.1176 22.4472 38.9142 22.3341 39.701 22.1704C40.4796 22.0097 41.2417 21.778 41.978 21.4781C42.7429 21.1611 43.4746 20.7695 44.1626 20.3089C44.8224 19.8607 45.5424 19.5085 46.3011 19.2627C47.0668 19.0213 47.8558 18.8614 48.655 18.7858V32.4475H35.0086C34.9676 32.1193 34.9368 31.7911 34.9163 31.4628C34.8958 31.1346 34.8804 30.8064 34.8701 30.4782L34.8702 22.6012ZM48.6549 49.5554C47.177 48.6933 45.749 47.7482 44.3779 46.7246C42.9819 45.6865 41.6795 44.5283 40.4856 43.263C39.3014 42.0088 38.2544 40.6317 37.3625 39.1553C36.4716 37.6819 35.8029 36.0852 35.3778 34.4167H48.6549V49.5554ZM50.6242 34.4167H63.9012C63.4762 36.0852 62.8074 37.6819 61.9166 39.1552C61.0247 40.6317 59.9777 42.0087 58.7935 43.263C57.5996 44.5283 56.2971 45.6865 54.9011 46.7246C53.5301 47.7482 52.1021 48.6933 50.6241 49.5554L50.6242 34.4167Z" fill="#0078D4"/>
<path d="M49.6395 81.6836C47.8619 81.6836 46.1242 81.1565 44.6462 80.1689C43.1682 79.1813 42.0163 77.7777 41.336 76.1354C40.6557 74.4931 40.4778 72.686 40.8246 70.9426C41.1713 69.1991 42.0273 67.5977 43.2843 66.3407C44.5412 65.0838 46.1427 64.2278 47.8861 63.881C49.6296 63.5342 51.4367 63.7122 53.079 64.3925C54.7212 65.0727 56.1249 66.2247 57.1125 67.7027C58.1001 69.1807 58.6272 70.9184 58.6272 72.696C58.6245 75.0788 57.6767 77.3633 55.9918 79.0482C54.3068 80.7332 52.0224 81.6809 49.6395 81.6836V81.6836ZM49.6395 66.4809C48.4103 66.4809 47.2086 66.8454 46.1866 67.5283C45.1645 68.2112 44.3679 69.1819 43.8975 70.3175C43.4271 71.4532 43.304 72.7029 43.5438 73.9085C43.7836 75.1141 44.3755 76.2215 45.2447 77.0907C46.1139 77.9599 47.2214 78.5519 48.427 78.7917C49.6326 79.0315 50.8822 78.9084 52.0179 78.438C53.1536 77.9676 54.1242 77.171 54.8072 76.1489C55.4901 75.1269 55.8546 73.9252 55.8546 72.696C55.8527 71.0482 55.1972 69.4685 54.0321 68.3034C52.867 67.1382 51.2873 66.4828 49.6395 66.4809V66.4809Z" fill="#003067"/>
<path d="M60.152 84.5953C59.97 84.5956 59.7896 84.5599 59.6214 84.4901C59.4532 84.4204 59.3005 84.3181 59.172 84.1891L54.0346 79.0516C53.9037 78.9233 53.7996 78.7705 53.7282 78.6017C53.6568 78.433 53.6196 78.2518 53.6187 78.0687C53.6177 77.8855 53.6531 77.7039 53.7228 77.5345C53.7925 77.3651 53.8951 77.2111 54.0246 77.0816C54.1541 76.9521 54.3081 76.8495 54.4775 76.7798C54.6469 76.7102 54.8285 76.6748 55.0117 76.6757C55.1948 76.6766 55.376 76.7138 55.5447 76.7852C55.7134 76.8566 55.8663 76.9607 55.9946 77.0916L61.132 82.229C61.3258 82.4229 61.4578 82.6698 61.5112 82.9387C61.5647 83.2075 61.5372 83.4862 61.4323 83.7395C61.3275 83.9927 61.1498 84.2092 60.922 84.3615C60.6941 84.5138 60.4262 84.5952 60.152 84.5953V84.5953Z" fill="#003067"/>
<path opacity="0.4" d="M49.6382 78.9111C53.0707 78.9111 55.8533 76.1285 55.8533 72.696C55.8533 69.2635 53.0707 66.4809 49.6382 66.4809C46.2057 66.4809 43.4231 69.2635 43.4231 72.696C43.4231 76.1285 46.2057 78.9111 49.6382 78.9111Z" fill="white"/>
</g>
<defs>
<linearGradient id="paint0_linear_930_814" x1="47.8697" y1="-15.1531" x2="51.8525" y2="130.615" gradientUnits="userSpaceOnUse">
<stop stop-color="#00ABDE"/>
<stop offset="1" stop-color="#007ED8"/>
</linearGradient>
<linearGradient id="paint1_linear_930_814" x1="22.1448" y1="31.3004" x2="77.3012" y2="31.3004" gradientUnits="userSpaceOnUse">
<stop stop-color="#005BA1"/>
<stop offset="0.26" stop-color="#00589D"/>
<stop offset="0.53" stop-color="#004F90"/>
<stop offset="0.8" stop-color="#003F7C"/>
<stop offset="1" stop-color="#003067"/>
</linearGradient>
<linearGradient id="paint2_linear_930_814" x1="54.108" y1="63.0428" x2="44.1761" y2="45.8403" gradientUnits="userSpaceOnUse">
<stop stop-color="#007ED8"/>
<stop offset="1" stop-color="#00ABDE"/>
</linearGradient>
<clipPath id="clip0_930_814">
<rect width="99.2799" height="99.28" fill="white"/>
</clipPath>
</defs>
</svg>
