<svg width="100" height="100" viewBox="0 0 100 100" fill="none" xmlns="http://www.w3.org/2000/svg">
<g clip-path="url(#clip0_1115_1549)">
<path d="M49.6401 96.4499C40.382 96.4499 31.3317 93.7045 23.6339 88.561C15.936 83.4174 9.93624 76.1067 6.3933 67.5533C2.85036 58.9999 1.92337 49.588 3.72954 40.5077C5.53571 31.4275 9.99394 23.0867 16.5404 16.5402C23.0869 9.99372 31.4277 5.5355 40.5079 3.72933C49.5882 1.92315 59.0001 2.85015 67.5535 6.39308C76.1069 9.93602 83.4176 15.9358 88.5612 23.6336C93.7047 31.3315 96.4501 40.3817 96.4501 49.6399C96.4505 55.7872 95.24 61.8744 92.8878 67.5538C90.5355 73.2332 87.0875 78.3937 82.7407 82.7405C78.3939 87.0873 73.2335 90.5353 67.554 92.8876C61.8746 95.2398 55.7874 96.4503 49.6401 96.4499V96.4499Z" fill="url(#paint0_linear_1115_1549)"/>
<path fill-rule="evenodd" clip-rule="evenodd" d="M95.54 49.6399C95.54 58.718 92.848 67.5923 87.8045 75.1406C82.7609 82.6888 75.5923 88.5719 67.2052 92.046C58.818 95.52 49.5891 96.429 40.6854 94.6579C31.7816 92.8869 23.603 88.5153 17.1838 82.0961C10.7646 75.6769 6.39302 67.4983 4.62196 58.5945C2.85089 49.6908 3.75987 40.4618 7.23393 32.0747C10.708 23.6876 16.5911 16.519 24.1393 11.4754C31.6875 6.43187 40.5618 3.73988 49.64 3.73988C55.6677 3.73986 61.6363 4.92708 67.2052 7.23377C72.774 9.54045 77.834 12.9214 82.0963 17.1836C86.3585 21.4458 89.7394 26.5058 92.0461 32.0747C94.3528 37.6435 95.54 43.6122 95.54 49.6399V49.6399ZM49.64 -0.000106449C59.4579 -0.000106449 69.0552 2.91123 77.2185 8.36574C85.3818 13.8203 91.7442 21.573 95.5014 30.6435C99.2585 39.714 100.242 49.695 98.3262 59.3242C96.4108 68.9534 91.6831 77.7984 84.7408 84.7407C77.7985 91.683 68.9535 96.4107 59.3243 98.3261C49.6951 100.241 39.7141 99.2584 30.6436 95.5013C21.5731 91.7441 13.8204 85.3816 8.36584 77.2184C2.91133 69.0551 -1.61629e-06 59.4577 3.61524e-07 49.6399C-0.000786426 43.1208 1.28265 36.6655 3.77702 30.6425C6.27138 24.6196 9.92781 19.147 14.5375 14.5374C19.1471 9.9277 24.6197 6.27127 30.6427 3.77691C36.6656 1.28254 43.121 -0.000894549 49.64 -0.000106449V-0.000106449Z" fill="#F2F1F0"/>
<path fill-rule="evenodd" clip-rule="evenodd" d="M92.7296 49.64C92.7296 58.1624 90.2024 66.4934 85.4676 73.5795C80.7328 80.6656 74.0031 86.1886 66.1294 89.45C58.2557 92.7113 49.5918 93.5647 41.2331 91.902C32.8745 90.2394 25.1966 86.1355 19.1703 80.1092C13.1441 74.083 9.04017 66.4051 7.37753 58.0464C5.7149 49.6878 6.56822 41.0238 9.8296 33.1502C13.091 25.2765 18.6139 18.5468 25.7 13.812C32.7862 9.07718 41.1172 6.55 49.6396 6.55C55.2983 6.54965 60.9017 7.66397 66.1298 9.82933C71.3579 11.9947 76.1082 15.1687 80.1096 19.17C84.1109 23.1713 87.2849 27.9217 89.4502 33.1498C91.6156 38.3778 92.7299 43.9812 92.7296 49.64ZM49.6396 2.81C58.9017 2.81 67.9558 5.55653 75.6569 10.7023C83.3581 15.848 89.3604 23.1619 92.9049 31.7189C96.4493 40.276 97.3767 49.6919 95.5697 58.7761C93.7628 67.8602 89.3027 76.2045 82.7534 82.7538C76.2041 89.3031 67.8598 93.7632 58.7757 95.5702C49.6915 97.3771 40.2756 96.4497 31.7185 92.9053C23.1614 89.3608 15.8476 83.3585 10.7018 75.6574C5.5561 67.9562 2.80957 58.9021 2.80957 49.64C2.81076 37.2203 7.74501 25.3096 16.5271 16.5275C25.3091 7.74544 37.2198 2.81119 49.6396 2.81V2.81Z" fill="#0078D4"/>
<path fill-rule="evenodd" clip-rule="evenodd" d="M92.7301 49.7835C92.7301 58.3059 90.2029 66.6369 85.4681 73.723C80.7333 80.8091 74.0036 86.3321 66.1299 89.5935C58.2562 92.8549 49.5923 93.7082 41.2336 92.0455C32.875 90.3829 25.1971 86.279 19.1708 80.2527C13.1446 74.2265 9.04066 66.5486 7.37802 58.1899C5.71538 49.8313 6.56871 41.1673 9.83009 33.2937C13.0915 25.42 18.6144 18.6903 25.7005 13.9555C32.7867 9.22069 41.1177 6.69351 49.6401 6.69351C55.2988 6.69316 60.9022 7.80748 66.1303 9.97284C71.3584 12.1382 76.1087 15.3122 80.1101 19.3135C84.1114 23.3149 87.2854 28.0652 89.4507 33.2933C91.6161 38.5213 92.7304 44.1248 92.7301 49.7835V49.7835ZM49.6401 2.95351C58.9022 2.95351 67.9563 5.70004 75.6574 10.8458C83.3586 15.9915 89.3609 23.3054 92.9053 31.8624C96.4498 40.4195 97.3772 49.8355 95.5702 58.9196C93.7633 68.0037 89.3032 76.348 82.7539 82.8973C76.2046 89.4466 67.8603 93.9067 58.7761 95.7137C49.692 97.5206 40.2761 96.5932 31.719 93.0488C23.1619 89.5043 15.8481 83.502 10.7023 75.8009C5.55659 68.0997 2.81006 59.0456 2.81006 49.7835C2.81124 37.3638 7.74548 25.4531 16.5276 16.671C25.3096 7.88892 37.2203 2.95467 49.64 2.95348L49.6401 2.95351Z" fill="#0078D4"/>
<path d="M64.9039 52H35.0961C33.9384 52 33 52.9384 33 54.0961V61.9039C33 63.0616 33.9384 64 35.0961 64H64.9039C66.0616 64 67 63.0616 67 61.9039V54.0961C67 52.9384 66.0616 52 64.9039 52Z" fill="white"/>
<path d="M39.7492 60.4921C39.161 60.4921 38.5861 60.3177 38.097 59.9909C37.608 59.6641 37.2268 59.1997 37.0018 58.6563C36.7767 58.1129 36.7178 57.515 36.8325 56.9381C36.9473 56.3613 37.2305 55.8314 37.6464 55.4155C38.0623 54.9996 38.5922 54.7164 39.169 54.6016C39.7459 54.4869 40.3438 54.5458 40.8872 54.7709C41.4306 54.996 41.895 55.3771 42.2218 55.8661C42.5486 56.3552 42.723 56.9301 42.723 57.5183C42.7221 58.3067 42.4085 59.0626 41.851 59.6201C41.2935 60.1776 40.5376 60.4912 39.7492 60.4921V60.4921ZM39.7492 55.4619C39.3425 55.4619 38.9449 55.5825 38.6067 55.8084C38.2685 56.0344 38.0049 56.3556 37.8493 56.7313C37.6937 57.1071 37.6529 57.5206 37.7323 57.9195C37.8116 58.3184 38.0075 58.6848 38.2951 58.9724C38.5827 59.26 38.9491 59.4559 39.348 59.5352C39.7469 59.6145 40.1604 59.5738 40.5361 59.4182C40.9119 59.2625 41.2331 58.999 41.459 58.6608C41.685 58.3226 41.8056 57.925 41.8056 57.5183C41.805 56.9731 41.5881 56.4504 41.2026 56.0649C40.8171 55.6794 40.2944 55.4625 39.7492 55.4619V55.4619Z" fill="#1F56A3"/>
<path d="M43.2277 61.4555C43.1675 61.4556 43.1078 61.4438 43.0521 61.4207C42.9965 61.3976 42.946 61.3638 42.9034 61.3211L41.2036 59.6212C41.118 59.5351 41.0701 59.4186 41.0703 59.2972C41.0705 59.1759 41.1188 59.0595 41.2046 58.9737C41.2904 58.8879 41.4068 58.8396 41.5281 58.8394C41.6495 58.8392 41.766 58.8871 41.8521 58.9727L43.552 60.6725C43.6161 60.7367 43.6597 60.8184 43.6774 60.9074C43.6951 60.9963 43.686 61.0885 43.6513 61.1723C43.6166 61.2561 43.5579 61.3277 43.4825 61.3781C43.4071 61.4285 43.3184 61.4554 43.2277 61.4555V61.4555Z" fill="#1F56A3"/>
<path opacity="0.2" d="M39.7493 59.5747C40.885 59.5747 41.8057 58.654 41.8057 57.5183C41.8057 56.3826 40.885 55.4619 39.7493 55.4619C38.6136 55.4619 37.6929 56.3826 37.6929 57.5183C37.6929 58.654 38.6136 59.5747 39.7493 59.5747Z" fill="#1F56A3"/>
<path d="M46.6028 58H61.5" stroke="#1490DF" stroke-width="1.66134" stroke-miterlimit="10" stroke-linecap="round"/>
<g opacity="0.6">
<path d="M64.9039 64H35.0961C33.9384 64 33 64.9384 33 66.0961V73.9039C33 75.0616 33.9384 76 35.0961 76H64.9039C66.0616 76 67 75.0616 67 73.9039V66.0961C67 64.9384 66.0616 64 64.9039 64Z" fill="#0078D4"/>
<path d="M39.7492 72.4921C39.161 72.4921 38.5861 72.3177 38.097 71.9909C37.608 71.6641 37.2268 71.1997 37.0018 70.6563C36.7767 70.1129 36.7178 69.515 36.8325 68.9381C36.9473 68.3613 37.2305 67.8314 37.6464 67.4155C38.0623 66.9996 38.5922 66.7164 39.169 66.6016C39.7459 66.4869 40.3438 66.5458 40.8872 66.7709C41.4306 66.996 41.895 67.3771 42.2218 67.8661C42.5486 68.3552 42.723 68.9301 42.723 69.5183C42.7221 70.3067 42.4085 71.0626 41.851 71.6201C41.2935 72.1776 40.5376 72.4912 39.7492 72.4921V72.4921ZM39.7492 67.4619C39.3425 67.4619 38.9449 67.5825 38.6067 67.8084C38.2685 68.0344 38.0049 68.3556 37.8493 68.7313C37.6937 69.1071 37.6529 69.5206 37.7323 69.9195C37.8116 70.3184 38.0075 70.6848 38.2951 70.9724C38.5827 71.26 38.9491 71.4559 39.348 71.5352C39.7469 71.6145 40.1604 71.5738 40.5361 71.4182C40.9119 71.2625 41.2331 70.999 41.459 70.6608C41.685 70.3226 41.8056 69.925 41.8056 69.5183C41.805 68.9731 41.5881 68.4504 41.2026 68.0649C40.8171 67.6794 40.2944 67.4625 39.7492 67.4619V67.4619Z" fill="#1F56A3"/>
<path d="M43.2277 73.4555C43.1675 73.4556 43.1078 73.4438 43.0521 73.4207C42.9965 73.3976 42.946 73.3638 42.9034 73.3211L41.2036 71.6212C41.118 71.5351 41.0701 71.4186 41.0703 71.2972C41.0705 71.1759 41.1188 71.0595 41.2046 70.9737C41.2904 70.8879 41.4068 70.8396 41.5281 70.8394C41.6495 70.8392 41.766 70.8871 41.8521 70.9727L43.552 72.6725C43.6161 72.7367 43.6597 72.8184 43.6774 72.9074C43.6951 72.9963 43.686 73.0885 43.6513 73.1723C43.6166 73.2561 43.5579 73.3277 43.4825 73.3781C43.4071 73.4285 43.3184 73.4554 43.2277 73.4555V73.4555Z" fill="#1F56A3"/>
<path opacity="0.2" d="M39.7493 71.5747C40.885 71.5747 41.8057 70.654 41.8057 69.5183C41.8057 68.3826 40.885 67.4619 39.7493 67.4619C38.6136 67.4619 37.6929 68.3826 37.6929 69.5183C37.6929 70.654 38.6136 71.5747 39.7493 71.5747Z" fill="#1F56A3"/>
<path d="M46.6028 70H61.5" stroke="#1490DF" stroke-width="1.66134" stroke-miterlimit="10" stroke-linecap="round"/>
</g>
<g opacity="0.2">
<path d="M64.9039 76H35.0961C33.9384 76 33 76.9384 33 78.0961V85.9039C33 87.0616 33.9384 88 35.0961 88H64.9039C66.0616 88 67 87.0616 67 85.9039V78.0961C67 76.9384 66.0616 76 64.9039 76Z" fill="#0078D4"/>
<path d="M39.7492 84.4921C39.161 84.4921 38.5861 84.3177 38.097 83.9909C37.608 83.6641 37.2268 83.1997 37.0018 82.6563C36.7767 82.1129 36.7178 81.515 36.8325 80.9381C36.9473 80.3613 37.2305 79.8314 37.6464 79.4155C38.0623 78.9996 38.5922 78.7164 39.169 78.6016C39.7459 78.4869 40.3438 78.5458 40.8872 78.7709C41.4306 78.996 41.895 79.3771 42.2218 79.8661C42.5486 80.3552 42.723 80.9301 42.723 81.5183C42.7221 82.3067 42.4085 83.0626 41.851 83.6201C41.2935 84.1776 40.5376 84.4912 39.7492 84.4921V84.4921ZM39.7492 79.4619C39.3425 79.4619 38.9449 79.5825 38.6067 79.8084C38.2685 80.0344 38.0049 80.3556 37.8493 80.7313C37.6937 81.1071 37.6529 81.5206 37.7323 81.9195C37.8116 82.3184 38.0075 82.6848 38.2951 82.9724C38.5827 83.26 38.9491 83.4559 39.348 83.5352C39.7469 83.6145 40.1604 83.5738 40.5361 83.4182C40.9119 83.2625 41.2331 82.999 41.459 82.6608C41.685 82.3226 41.8056 81.925 41.8056 81.5183C41.805 80.9731 41.5881 80.4504 41.2026 80.0649C40.8171 79.6794 40.2944 79.4625 39.7492 79.4619V79.4619Z" fill="#1F56A3"/>
<path d="M43.2277 85.4555C43.1675 85.4556 43.1078 85.4438 43.0521 85.4207C42.9965 85.3976 42.946 85.3638 42.9034 85.3211L41.2036 83.6212C41.118 83.5351 41.0701 83.4186 41.0703 83.2972C41.0705 83.1759 41.1188 83.0595 41.2046 82.9737C41.2904 82.8879 41.4068 82.8396 41.5281 82.8394C41.6495 82.8392 41.766 82.8871 41.8521 82.9727L43.552 84.6725C43.6161 84.7367 43.6597 84.8184 43.6774 84.9074C43.6951 84.9963 43.686 85.0885 43.6513 85.1723C43.6166 85.2561 43.5579 85.3277 43.4825 85.3781C43.4071 85.4285 43.3184 85.4554 43.2277 85.4555V85.4555Z" fill="#1F56A3"/>
<path opacity="0.2" d="M39.7493 83.5747C40.885 83.5747 41.8057 82.654 41.8057 81.5183C41.8057 80.3826 40.885 79.4619 39.7493 79.4619C38.6136 79.4619 37.6929 80.3826 37.6929 81.5183C37.6929 82.654 38.6136 83.5747 39.7493 83.5747Z" fill="#1F56A3"/>
<path d="M46.6028 82H61.5" stroke="#1490DF" stroke-width="1.66134" stroke-miterlimit="10" stroke-linecap="round"/>
</g>
<path d="M31.6193 19.9719C30.7326 19.9745 29.8828 20.328 29.2558 20.955C28.6287 21.5821 28.2753 22.4318 28.2727 23.3186V46.7449H71.7788V23.3186C71.7762 22.4318 71.4227 21.5821 70.7957 20.955C70.1686 20.328 69.3189 19.9745 68.4321 19.9719H31.6193ZM68.4321 21.6453C68.8758 21.6458 69.301 21.8223 69.6147 22.136C69.9284 22.4497 70.1049 22.875 70.1055 23.3186V45.0716H29.946V23.3186C29.9464 22.8749 30.1229 22.4495 30.4366 22.1358C30.7503 21.8221 31.1757 21.6457 31.6193 21.6453H68.4321Z" fill="url(#paint1_linear_1115_1549)"/>
<path d="M29.946 23.3186C29.9465 22.8749 30.1229 22.4495 30.4366 22.1358C30.7504 21.8221 31.1757 21.6457 31.6194 21.6452H68.4322C68.8758 21.6458 69.3011 21.8223 69.6147 22.136C69.9284 22.4497 70.1049 22.8749 70.1055 23.3186V45.0716H29.946V23.3186Z" fill="url(#paint2_linear_1115_1549)"/>
<path d="M23.2527 46.7449V47.5816C23.2553 48.4683 23.6087 49.3181 24.2358 49.9451C24.8628 50.5722 25.7125 50.9256 26.5993 50.9282H73.452C74.3388 50.9256 75.1885 50.5722 75.8155 49.9451C76.4426 49.3181 76.796 48.4683 76.7986 47.5816V46.7449H23.2527Z" fill="url(#paint3_linear_1115_1549)"/>
<path fill-rule="evenodd" clip-rule="evenodd" d="M46.6792 48.4182H53.3724C53.8161 48.4181 54.2417 48.2417 54.5554 47.9279C54.8692 47.6142 55.0456 47.1887 55.0457 46.7449H45.0059C45.0059 47.1887 45.1822 47.6143 45.496 47.9281C45.8098 48.2419 46.2354 48.4182 46.6792 48.4182Z" fill="#003067"/>
<path d="M42.6401 39.065V33.3821L46.7003 36.0347C47.5744 36.6058 48.596 36.91 49.6401 36.91C50.6843 36.91 51.7058 36.6058 52.5799 36.0347L56.6401 33.3821V39.065C56.6402 39.2273 56.5875 39.3852 56.4901 39.515L56.489 39.5164L56.4878 39.5181L56.4847 39.5221L56.4765 39.5328L56.4644 39.5481L56.4512 39.5646C56.4305 39.5902 56.402 39.6245 56.3654 39.6663C56.2923 39.7498 56.187 39.8634 56.0482 39.9967C55.6668 40.359 55.248 40.6798 54.7988 40.9537C53.2259 41.846 51.4485 42.315 49.6401 42.315C47.8318 42.315 46.0543 41.846 44.4814 40.9537C44.0323 40.6798 43.6135 40.359 43.2321 39.9967C43.0932 39.8634 42.9879 39.7498 42.9148 39.6663C42.8783 39.6245 42.8497 39.5902 42.829 39.5646L42.8038 39.5328L42.7955 39.5221L42.7925 39.5181L42.7912 39.5164C42.6935 39.3862 42.6405 39.2278 42.6401 39.065V39.065Z" fill="#0078D4"/>
<path d="M59.8003 31.4429L51.7595 36.6962C51.1294 37.1079 50.3929 37.3271 49.6401 37.3271C48.8874 37.3271 48.1509 37.1079 47.5207 36.6962L40.6401 32.2009V37.565C40.6401 37.7639 40.5611 37.9547 40.4205 38.0953C40.2798 38.236 40.0891 38.315 39.8901 38.315C39.6912 38.315 39.5005 38.236 39.3598 38.0953C39.2192 37.9547 39.1401 37.7639 39.1401 37.565V31.315C39.14 31.2297 39.1545 31.1451 39.1829 31.0647C39.1266 30.9052 39.1259 30.7314 39.1808 30.5715C39.2357 30.4116 39.343 30.2749 39.4854 30.1836L47.5489 25.0146C48.173 24.6145 48.8988 24.4019 49.6401 24.4019C50.3815 24.4019 51.1072 24.6145 51.7313 25.0146L59.7949 30.1836C59.8936 30.2469 59.9761 30.3324 60.0357 30.4332C60.0954 30.5341 60.1305 30.6476 60.1384 30.7645C60.1463 30.8814 60.1267 30.9986 60.0812 31.1066C60.0356 31.2145 59.9654 31.3103 59.8761 31.3863C59.8521 31.4067 59.8268 31.4256 59.8003 31.4429V31.4429Z" fill="#9CEBFF"/>
</g>
<defs>
<linearGradient id="paint0_linear_1115_1549" x1="47.8698" y1="-15.1532" x2="51.8525" y2="130.615" gradientUnits="userSpaceOnUse">
<stop stop-color="#00ABDE"/>
<stop offset="1" stop-color="#007ED8"/>
</linearGradient>
<linearGradient id="paint1_linear_1115_1549" x1="50.0257" y1="46.7449" x2="50.0257" y2="19.924" gradientUnits="userSpaceOnUse">
<stop stop-color="#003067"/>
<stop offset="0.16493" stop-color="#003F7C"/>
<stop offset="0.36216" stop-color="#004F90"/>
<stop offset="0.68089" stop-color="#00589D"/>
<stop offset="1" stop-color="#005BA1"/>
</linearGradient>
<linearGradient id="paint2_linear_1115_1549" x1="50.0258" y1="45.0716" x2="50.0258" y2="21.6033" gradientUnits="userSpaceOnUse">
<stop stop-color="#005BA1"/>
<stop offset="0.26" stop-color="#00589D"/>
<stop offset="0.53" stop-color="#004F90"/>
<stop offset="0.8" stop-color="#003F7C"/>
<stop offset="1" stop-color="#003067"/>
</linearGradient>
<linearGradient id="paint3_linear_1115_1549" x1="50.0256" y1="50.9282" x2="50.0256" y2="46.7449" gradientUnits="userSpaceOnUse">
<stop stop-color="#004DAE"/>
<stop offset="0.21" stop-color="#0061C4"/>
<stop offset="0.51" stop-color="#0078DD"/>
<stop offset="0.78" stop-color="#0086EC"/>
<stop offset="1" stop-color="#008BF1"/>
</linearGradient>
<clipPath id="clip0_1115_1549">
<rect width="99.2799" height="99.28" fill="white"/>
</clipPath>
</defs>
</svg>
