<svg width="103" height="103" viewBox="0 0 103 103" fill="none" xmlns="https://www.w3.org/2000/svg">
<path d="M51.4999 98.3104C25.6499 98.3104 4.68994 77.3604 4.68994 51.5004C4.68994 25.6404 25.6499 4.69043 51.4999 4.69043C77.3499 4.69043 98.3099 25.6504 98.3099 51.5004C98.3099 77.3504 77.3499 98.3104 51.4999 98.3104Z" fill="url(#paint0_linear)"/>
<path fill-rule="evenodd" clip-rule="evenodd" d="M97.4001 51.5004C97.4001 76.8504 76.8501 97.4004 51.5001 97.4004C26.1501 97.4004 5.60011 76.8504 5.60011 51.5004C5.60011 26.1504 26.1501 5.60035 51.5001 5.60035C76.8501 5.60035 97.4001 26.1504 97.4001 51.5004ZM51.5001 1.86035C78.9201 1.86035 101.14 24.0804 101.14 51.5004C101.14 78.9204 78.9101 101.14 51.5001 101.14C24.0801 101.14 1.86011 78.9104 1.86011 51.5004C1.86011 24.0804 24.0801 1.86035 51.5001 1.86035Z" fill="#F2F1F0"/>
<path fill-rule="evenodd" clip-rule="evenodd" d="M94.5899 51.4999C94.5899 75.2999 75.2999 94.5899 51.4999 94.5899C27.6999 94.5899 8.40992 75.2999 8.40992 51.4999C8.40992 27.6999 27.6999 8.40992 51.4999 8.40992C75.2999 8.40992 94.5899 27.6999 94.5899 51.4999ZM51.4999 4.66992C77.3599 4.66992 98.3299 25.6399 98.3299 51.4999C98.3299 77.3599 77.3599 98.3299 51.4999 98.3299C25.6399 98.3299 4.66992 77.3599 4.66992 51.4999C4.66992 25.6399 25.6299 4.66992 51.4999 4.66992Z" fill="url(#paint1_linear)"/>
<path opacity="0.15" fill-rule="evenodd" clip-rule="evenodd" d="M51.94 91.9106C51.59 91.9106 51.23 91.8306 50.91 91.6706C29.97 81.1406 21.03 68.1906 21.03 48.3906V30.0606C21.03 28.8006 22.05 27.7706 23.32 27.7706C36.5 27.7706 45.3 25.0306 50.21 19.3906C51.08 18.3906 52.79 18.3906 53.66 19.3906C58.58 25.0306 67.37 27.7706 80.55 27.7706C81.81 27.7706 82.84 28.8006 82.84 30.0606V48.3906C82.84 68.2006 73.9 81.1406 52.96 91.6706C52.65 91.8306 52.29 91.9106 51.94 91.9106Z" fill="#1F1D20"/>
<path fill-rule="evenodd" clip-rule="evenodd" d="M25.61 30.3402V46.4002C25.61 64.1402 33.26 75.4102 51.94 85.0602C70.62 75.4102 78.27 64.1402 78.27 46.4002V30.3402C66.24 30.0402 57.58 27.3702 51.94 22.1902C46.3 27.3702 37.65 30.0502 25.61 30.3402ZM51.94 89.9302C51.59 89.9302 51.23 89.8502 50.91 89.6902C29.97 79.1602 21.03 66.2102 21.03 46.4102V28.0802C21.03 26.8202 22.05 25.7902 23.32 25.7902C36.5 25.7902 45.3 23.0502 50.21 17.4102C51.08 16.4102 52.79 16.4102 53.66 17.4102C58.58 23.0502 67.37 25.7902 80.55 25.7902C81.81 25.7902 82.84 26.8202 82.84 28.0802V46.4102C82.84 66.2202 73.9 79.1602 52.96 89.6902C52.65 89.8502 52.29 89.9302 51.94 89.9302Z" fill="#546670"/>
<path fill-rule="evenodd" clip-rule="evenodd" d="M51.9301 20.54C46.2101 27.1 36.1201 29.28 24.6301 29.28V46.75C24.6301 64.76 32.6101 76.36 51.9301 86.06C71.2501 76.36 79.2301 64.76 79.2301 46.75V29.27C67.7401 29.27 57.6601 27.1 51.9301 20.54Z" fill="#243A5E"/>
<path fill-rule="evenodd" clip-rule="evenodd" d="M51.9399 20.54V86.07C71.2599 76.36 79.2399 64.76 79.2399 46.75V29.27C67.7399 29.27 57.6599 27.1 51.9399 20.54Z" fill="#002D4C"/>
<path d="M51.66 36.6699L66.25 61.4999C66.25 61.4999 38.29 61.3999 38.54 61.0399C38.79 60.6799 51.66 36.6699 51.66 36.6699Z" fill="white"/>
<path d="M69.0699 60.9302L53.6499 35.6102C52.9899 34.5202 51.3999 34.5202 50.7499 35.6202L35.6499 60.9402C34.9699 62.0702 35.7799 63.5002 37.0899 63.5002H67.6199C68.9499 63.5002 69.7599 62.0602 69.0699 60.9302ZM40.5899 59.7402L52.2899 39.5502L64.1599 59.7402H40.5899V59.7402Z" fill="#50E6FF"/>
<path d="M52.37 58.3802C51.99 58.3802 51.67 58.2502 51.41 58.0102C51.15 57.7702 51.01 57.4702 51.01 57.1302C51.01 56.7802 51.15 56.4702 51.41 56.2202C51.67 55.9702 51.99 55.8402 52.37 55.8402C52.74 55.8402 53.04 55.9702 53.32 56.2202C53.58 56.4702 53.72 56.7802 53.72 57.1302C53.72 57.4702 53.58 57.7702 53.32 58.0102C53.04 58.2702 52.74 58.3802 52.37 58.3802ZM53.41 44.7002L53.24 54.2302H51.45L51.2 44.7002H53.41Z" fill="black"/>
<path fill-rule="evenodd" clip-rule="evenodd" d="M81.2699 73.4306C81.2699 74.2706 80.5699 74.9606 79.7399 74.9606H65.8899C65.0599 74.9606 64.3599 74.2706 64.3599 73.4306V61.8906H81.2699V73.4306Z" fill="white"/>
<path fill-rule="evenodd" clip-rule="evenodd" d="M81.2699 61.8901C81.2699 62.7301 80.5699 63.4201 79.7399 63.4201H65.8899C65.0599 63.4301 64.3599 62.7301 64.3599 61.8901V60.3601C64.3599 59.5201 65.0599 58.8301 65.8899 58.8301H79.7299C80.5699 58.8301 81.2599 59.5301 81.2599 60.3601V61.8901H81.2699Z" fill="#939393"/>
<path fill-rule="evenodd" clip-rule="evenodd" d="M79.7399 63.8105H73.5799C73.1599 63.8105 72.8099 64.1505 72.8099 64.5805V73.4205C72.8099 73.8405 72.4699 74.1905 72.0399 74.1905H65.8999C65.0699 74.1905 64.3699 73.4905 64.3699 72.6505V73.4205C64.3699 74.2605 65.0699 74.9505 65.8999 74.9505H79.7399C80.5799 74.9505 81.2699 74.2505 81.2699 73.4205V62.2705C81.2699 63.1205 80.5799 63.8105 79.7399 63.8105Z" fill="#EBEBEB"/>
<path fill-rule="evenodd" clip-rule="evenodd" d="M72.8199 66.6201C71.4499 66.6201 70.3499 67.7301 70.3499 69.0901C70.3499 70.4601 71.4599 71.5601 72.8199 71.5601C74.1899 71.5601 75.2799 70.4401 75.2799 69.0901C75.2899 67.7201 74.1799 66.6201 72.8199 66.6201Z" fill="#243A5E"/>
<path fill-rule="evenodd" clip-rule="evenodd" d="M69.3498 61.12C69.3498 61.76 68.6598 62.28 67.8198 62.28C66.9798 62.28 66.2898 61.76 66.2898 61.12C66.2898 60.48 66.9798 59.96 67.8198 59.96C68.6698 59.97 69.3498 60.48 69.3498 61.12Z" fill="#182A37"/>
<path fill-rule="evenodd" clip-rule="evenodd" d="M79.3498 61.12C79.3498 61.76 78.6598 62.28 77.8198 62.28C76.9798 62.28 76.2898 61.77 76.2898 61.12C76.2898 60.48 76.9798 59.96 77.8198 59.96C78.6598 59.96 79.3498 60.48 79.3498 61.12Z" fill="#182A37"/>
<path fill-rule="evenodd" clip-rule="evenodd" d="M72.8199 50.3604C69.4199 50.3604 66.6599 53.1104 66.6599 56.5204V61.8904C66.9399 62.1304 67.3499 62.2904 67.8199 62.2904C68.2899 62.2904 68.6899 62.1304 68.9799 61.8904V56.5204C68.9799 54.4004 70.7099 52.6804 72.8199 52.6804C74.9399 52.6804 76.6599 54.4104 76.6599 56.5204V61.1304C76.6599 61.5504 77.1699 61.9004 77.8199 61.9004C78.4599 61.9004 78.9799 61.5604 78.9799 61.1304V56.5204C78.9699 53.1104 76.1999 50.3604 72.8199 50.3604Z" fill="white"/>
<path fill-rule="evenodd" clip-rule="evenodd" d="M70.5999 52.9502C69.1199 53.5802 68.1899 55.0802 68.1899 56.6802V60.6202C68.1899 61.1202 67.7099 61.5002 67.2199 61.3602C66.9799 61.3002 66.7699 61.2102 66.6399 61.1002V61.8702C66.9199 62.1102 67.3299 62.2702 67.7999 62.2702C67.9299 62.2702 68.0599 62.2602 68.1899 62.2302C68.2599 62.2202 68.3399 62.2002 68.4199 62.1802C68.4499 62.1702 68.4899 62.1602 68.5199 62.1402C68.5699 62.1202 68.6199 62.1002 68.6699 62.0702C68.6899 62.0602 68.7199 62.0502 68.7399 62.0302C68.8099 61.9902 68.8799 61.9402 68.9499 61.8902V56.5302C68.9499 54.5402 70.4699 52.8902 72.4099 52.7002C71.8599 52.6202 71.2399 52.6902 70.5999 52.9502Z" fill="#BCBCBC"/>
<path fill-rule="evenodd" clip-rule="evenodd" d="M72.8199 50.3604C72.6899 50.3604 72.5599 50.3704 72.4299 50.3804C75.6499 50.5904 78.1899 53.2503 78.1899 56.5103V60.6203C78.1899 61.1203 77.7099 61.5004 77.2199 61.3604C76.9799 61.3004 76.7699 61.2103 76.6399 61.1003V61.8703C76.9199 62.1103 77.3399 62.2704 77.7999 62.2704C78.2599 62.2704 78.6699 62.1103 78.9599 61.8703V56.5103C78.9699 53.1103 76.1999 50.3604 72.8199 50.3604Z" fill="#BCBCBC"/>
<defs>
<linearGradient id="paint0_linear" x1="49.73" y1="-13.2891" x2="53.712" y2="132.481" gradientUnits="userSpaceOnUse">
<stop stop-color="#00ABDE"/>
<stop offset="1" stop-color="#007ED8"/>
</linearGradient>
<linearGradient id="paint1_linear" x1="2.93262" y1="-20.1246" x2="98.4596" y2="120.757" gradientUnits="userSpaceOnUse">
<stop stop-color="#007ED8"/>
<stop offset="0.7065" stop-color="#002D4C"/>
</linearGradient>
</defs>
</svg>
