<svg width="181" height="191" viewBox="0 0 181 191" fill="none" xmlns="http://www.w3.org/2000/svg">
<path fill-rule="evenodd" clip-rule="evenodd" d="M7.74902 59.7526L27.1118 153.762C28.2785 159.43 33.3107 163.472 39.1089 163.39L147.166 161.764L176.251 40.7434L161.107 28.2749L14.8789 47.2959L7.74902 59.7526Z" fill="url(#paint0_linear)"/>
<path fill-rule="evenodd" clip-rule="evenodd" d="M158.173 27.9921C156.264 27.6385 154.308 27.6032 152.375 27.886L21.0192 47.5905L20.7246 47.6377C11.3673 49.2051 4.96806 57.9849 6.38226 67.4011C6.45297 67.8489 6.53546 68.2968 6.64153 68.7328L25.415 150.108L25.4857 150.415C27.4185 158.157 34.3834 163.602 42.3854 163.602H136.005H136.324C144.573 163.461 151.609 157.533 153.129 149.401L172.079 48.3212L172.126 48.0266C173.729 38.6811 167.53 29.748 158.173 27.9921ZM153.412 31.504C154.708 31.3508 156.028 31.3979 157.313 31.6454C164.396 32.9771 169.051 39.836 167.731 46.9541L148.816 148.388L148.757 148.67C147.496 154.728 142.181 159.077 135.994 159.077H42.5504H42.2558C36.3044 158.947 31.1897 154.775 29.8462 148.918L11.108 67.2597L11.0373 66.9297C10.9902 66.7058 10.9548 66.4819 10.9195 66.258C9.84705 59.0927 14.7614 52.4224 21.8795 51.3499L152.988 31.5629L153.412 31.504Z" fill="#0076D7"/>
<path d="M42.5274 165.594H135.876C145.281 165.594 153.354 158.9 155.086 149.66L173.977 48.875C176.452 35.664 165.162 23.9615 151.869 25.9532L20.902 45.587C9.63549 47.2723 2.19916 58.2087 4.75651 69.2984L23.4829 150.438C25.5335 159.312 33.4294 165.594 42.5274 165.594Z" stroke="white" stroke-width="5"/>
<g opacity="0.3">
<path opacity="0.15" d="M35.6799 67.4482H132.635C135.723 67.4482 138.233 69.9467 138.233 73.0461V128.978C138.233 132.065 135.723 134.576 132.635 134.576H35.6799C32.5922 134.576 30.082 132.077 30.082 128.978V73.0343C30.082 69.9467 32.5922 67.4482 35.6799 67.4482Z" fill="#1F1D20"/>
</g>
<path d="M35.6799 63.9127H132.635C135.723 63.9127 138.233 66.4111 138.233 69.5106V125.442C138.233 128.53 135.723 131.04 132.635 131.04H35.6799C32.5922 131.04 30.082 128.542 30.082 125.442V69.4988C30.082 66.4111 32.5922 63.9127 35.6799 63.9127Z" fill="url(#paint1_linear)" stroke="#A3A3A3" stroke-width="2"/>
<path opacity="0.15" d="M124.032 58.6448L81.3936 75.2028V123.144L96.7494 116.686V78.9975L124.338 72.5276V128.825L81.3936 123.144L124.032 138.606L147.861 130.875V66.694L124.032 58.6448Z" fill="#1F1D20"/>
<path d="M124.032 55.9697L81.3936 72.5276V120.469L96.7494 114.011V76.3224L124.338 69.8524V126.149L81.3936 120.469L124.032 135.931L147.861 128.2V64.0188L124.032 55.9697Z" fill="white"/>
<path opacity="0.15" d="M69.1726 118.76H41.5132C39.8397 118.76 38.4727 117.393 38.4727 115.72V78.915C38.4727 76.9115 40.099 75.2852 42.1024 75.2852H70.2804C72.1424 75.2852 73.6391 76.7937 73.6391 78.6439V114.27C73.6509 116.757 71.6474 118.76 69.1726 118.76Z" fill="#1F1D20"/>
<path d="M69.1726 117.004H41.5132C39.8397 117.004 38.4727 115.637 38.4727 113.964V77.159C38.4727 75.1556 40.099 73.5292 42.1024 73.5292H70.2804C72.1424 73.5292 73.6391 75.0377 73.6391 76.888V112.514C73.6509 115.001 71.6474 117.004 69.1726 117.004Z" fill="white"/>
<path d="M67.8642 89.769C67.8642 89.1444 67.3575 88.6376 66.7329 88.6376H45.0249C44.4003 88.6376 43.8936 89.1444 43.8936 89.769C43.8936 90.3936 44.4003 90.9004 45.0249 90.9004H66.7329C67.3575 90.9004 67.8642 90.3936 67.8642 89.769Z" fill="#9D9E9D"/>
<path d="M67.8642 95.8854C67.8642 95.2608 67.3575 94.754 66.7329 94.754H45.0249C44.4003 94.754 43.8936 95.2608 43.8936 95.8854C43.8936 96.51 44.4003 97.0168 45.0249 97.0168H66.7329C67.3575 97.0168 67.8642 96.51 67.8642 95.8854Z" fill="#9D9E9D"/>
<path d="M66.7329 82.1087H45.0249C44.4003 82.1087 43.8936 82.6155 43.8936 83.2401C43.8936 83.8647 44.4003 84.3714 45.0249 84.3714H66.7329C67.3575 84.3714 67.8642 83.8647 67.8642 83.2401C67.8642 82.6155 67.3575 82.1087 66.7329 82.1087Z" fill="#9D9E9D"/>
<path d="M67.7813 121.718C72.6839 121.718 76.6554 117.747 76.6554 112.844C76.6554 107.941 72.6839 103.97 67.7813 103.97C62.8788 103.97 58.9072 107.941 58.9072 112.844C58.919 117.747 62.8906 121.718 67.7813 121.718Z" fill="#002D4C"/>
<path d="M72.6134 108.342L65.3067 115.684L63.1147 113.48L61.6533 114.953L65.3067 118.619L74.0865 109.815L72.6134 108.342Z" fill="#FAF9F8"/>
<defs>
<linearGradient id="paint0_linear" x1="91.9798" y1="48.8298" x2="93.316" y2="156.62" gradientUnits="userSpaceOnUse">
<stop stop-color="#00ABDE"/>
<stop offset="1" stop-color="#007ED8"/>
</linearGradient>
<linearGradient id="paint1_linear" x1="84.1632" y1="63.9132" x2="84.1632" y2="131.041" gradientUnits="userSpaceOnUse">
<stop stop-color="#555559"/>
<stop offset="1" stop-color="#2E2E33"/>
</linearGradient>
</defs>
</svg>
