<svg width="160" height="188" viewBox="0 0 160 188" fill="none" xmlns="http://www.w3.org/2000/svg">
<g clip-path="url(#clip0)">
<path d="M79.6779 188C82.7592 187.994 85.7796 187.141 88.4083 185.534L150.384 147.874C153.165 146.11 155.449 143.665 157.019 140.771C158.589 137.876 159.394 134.628 159.356 131.336V56.6207C159.392 53.3283 158.587 50.0812 157.017 47.1871C155.447 44.2929 153.163 41.8476 150.384 40.0829L88.4083 2.4228C85.7749 0.837605 82.7592 0 79.6855 0C76.6118 0 73.5961 0.837605 70.9627 2.4228L8.9876 40.098C6.2045 41.8604 3.91796 44.3048 2.34499 47.1991C0.772021 50.0935 -0.0351786 53.3418 4.1431e-06 56.6358V131.336C-0.0185283 134.119 0.556189 136.874 1.68588 139.418C2.81557 141.962 4.4743 144.236 6.5516 146.089V146.115L70.9627 185.549C73.5884 187.149 76.6032 187.996 79.6779 188V188ZM80.3257 6.95218C82.2776 6.95218 84.7548 8.1651 86.4646 9.20912L147.222 46.4034C150.974 48.6881 153.09 55.2842 153.09 60.0352L152.458 131.336C152.458 136.087 149.259 140.355 145.506 142.64L85.1104 179.021C81.6758 181.109 78.8854 181.109 75.4507 179.021L14.2427 142.549C10.4903 140.265 7.47191 136.072 7.47191 131.336V57.688C7.50442 55.3228 8.11341 53.0013 9.24608 50.9247C10.3787 48.8482 12.0009 47.0792 13.9718 45.7714L74.548 9.20912C76.2577 8.1651 78.3739 6.95218 80.3257 6.95218Z" fill="#F2F1F0"/>
<path fill-rule="evenodd" clip-rule="evenodd" d="M87.5765 10.5328C85.2056 9.05922 82.4697 8.27832 79.6783 8.27832C76.8868 8.27832 74.1509 9.05922 71.7801 10.5328L15.6454 44.8642C13.1193 46.4758 11.047 48.7062 9.625 51.3436C8.203 53.9811 7.47851 56.9382 7.52026 59.9343V128.037C7.48034 131.033 8.20562 133.99 9.62745 136.627C11.0493 139.264 13.1206 141.494 15.6454 143.107L71.7801 177.438C74.1508 178.912 76.8867 179.693 79.6783 179.693C82.4698 179.693 85.2057 178.912 87.5765 177.438L143.711 143.107C146.236 141.495 148.307 139.264 149.729 136.627C151.151 133.99 151.877 131.033 151.837 128.037V59.9343C151.875 56.9387 151.149 53.9829 149.727 51.346C148.305 48.7092 146.234 46.4783 143.711 44.8642L87.5765 10.5328Z" fill="url(#paint0_linear)"/>
<path fill-rule="evenodd" clip-rule="evenodd" d="M79.6783 9.75438C81.3615 9.75438 83.2442 10.6201 85.311 11.8782L143.777 47.4206C145.668 48.634 147.218 50.3109 148.278 52.2919C149.339 54.273 149.875 56.4923 149.837 58.7391V129.218C149.875 131.464 149.339 133.684 148.278 135.665C147.218 137.645 145.668 139.322 143.777 140.536L85.312 176.078L85.311 176.079C83.6408 177.218 81.6958 177.889 79.6783 178.022C77.6609 177.889 75.7158 177.218 74.0456 176.079L74.0446 176.078L15.5823 140.538L15.5801 140.537C13.7918 139.573 12.2668 138.186 11.1383 136.497C10.1614 134.894 9.52031 132.679 9.52031 129.218V58.7391C9.48157 56.4924 10.018 54.2731 11.0785 52.2921C12.139 50.3111 13.6885 48.6341 15.5797 47.4206L74.0365 11.8836L74.0406 11.8812C76.1244 10.6282 77.9846 9.75438 79.6783 9.75438ZM87.3908 8.46138L145.855 44.0026C148.333 45.5727 150.368 47.7515 151.765 50.3312C153.162 52.9109 153.876 55.8056 153.837 58.7391V129.218C153.876 132.151 153.162 135.046 151.765 137.626C150.368 140.206 148.333 142.384 145.855 143.955L87.3898 179.496C85.0956 181.021 82.4302 181.894 79.6783 182.022C76.9264 181.894 74.261 181.021 71.9667 179.496H71.9658L13.502 143.954L13.4995 143.953C11.1642 142.66 9.18097 140.815 7.72281 138.579C6.12823 135.725 5.36521 132.482 5.52031 129.218V58.7391C5.48125 55.8055 6.19436 52.9108 7.59165 50.331C8.98894 47.7513 11.0238 45.5725 13.5022 44.0025L71.9667 8.46073L71.9749 8.45585C74.0655 7.19844 76.7734 5.75439 79.6783 5.75439C82.5645 5.75439 85.2816 7.17747 87.3908 8.46133V8.46138Z" fill="#0078D4"/>
<path opacity="0.2" d="M139.959 132.026L80.409 166.633L20.47 132.027L80.02 97.4199L139.959 132.026Z" fill="#003067"/>
<path d="M140.601 120.649L79.878 155.937L18.767 120.654L79.489 85.3662L140.601 120.649Z" fill="#1B93EB"/>
<path d="M140.601 120.649L140.589 124.755L79.8669 160.043L79.8779 155.937L140.601 120.649Z" fill="#1F56A3"/>
<path d="M79.878 155.937L79.867 160.043L18.755 124.76L18.767 120.654L79.878 155.937Z" fill="#0078D4"/>
<path d="M57.454 75.1376C57.2787 75.2523 57.1329 75.4068 57.0287 75.5885C56.9244 75.7702 56.8645 75.974 56.8539 76.1832L56.8617 78.9504C56.8628 79.3305 57.1349 79.4856 57.4657 79.2946L59.874 77.9042C60.0485 77.7902 60.1938 77.6367 60.2981 77.4562C60.4023 77.2756 60.4626 77.073 60.4741 76.8648L60.4662 74.0976C60.4651 73.7112 60.1931 73.5562 59.8622 73.7472L57.454 75.1376Z" fill="#F2F2F2"/>
<path d="M52.6323 77.9213C52.457 78.036 52.3113 78.1905 52.207 78.3722C52.1027 78.5539 52.0428 78.7577 52.0322 78.9669L52.0401 81.7341C52.0411 82.1143 52.3132 82.2694 52.6441 82.0783L55.0523 80.688C55.2282 80.5741 55.3747 80.4204 55.4799 80.2392C55.5851 80.0581 55.6461 79.8546 55.6578 79.6454L55.6499 76.8782C55.6489 76.4918 55.3767 76.3368 55.0405 76.531L52.6323 77.9213Z" fill="#F2F2F2"/>
<path d="M57.4384 69.6032C57.2632 69.7166 57.1175 69.87 57.0132 70.0507C56.9089 70.2314 56.8489 70.4342 56.8383 70.6426L56.8461 73.4098C56.8472 73.7899 57.1193 73.945 57.4501 73.754L59.8583 72.3636C60.0329 72.2496 60.1781 72.0961 60.2824 71.9156C60.3866 71.735 60.4469 71.5324 60.4584 71.3242L60.4505 68.557C60.4494 68.1706 60.1774 68.0218 59.8465 68.2128L57.4384 69.6032Z" fill="#F2F2F2"/>
<path d="M47.8105 80.7051C47.6352 80.8198 47.4895 80.9743 47.3852 81.156C47.2809 81.3377 47.221 81.5415 47.2104 81.7508L47.2183 84.5179C47.2194 84.8981 47.4914 85.0532 47.8223 84.8621L50.2359 83.4686C50.4105 83.3546 50.5557 83.2011 50.66 83.0206C50.7642 82.84 50.8245 82.6375 50.8359 82.4293L50.828 79.6621C50.827 79.2757 50.5549 79.1206 50.224 79.3116L47.8105 80.7051Z" fill="#F2F2F2"/>
<path d="M52.6166 72.387C52.4415 72.5004 52.2958 72.6537 52.1914 72.8344C52.0871 73.0151 52.0272 73.218 52.0165 73.4263L52.0243 76.1935C52.0254 76.5737 52.2975 76.7288 52.6283 76.5377L55.0365 75.1474C55.2124 75.0336 55.3589 74.8798 55.4642 74.6986C55.5694 74.5175 55.6303 74.314 55.642 74.1048L55.6342 71.3377C55.6331 70.9512 55.361 70.8024 55.0247 70.9966L52.6166 72.387Z" fill="#F2F2F2"/>
<path d="M57.4226 64.0625C57.248 64.1765 57.1027 64.33 56.9985 64.5106C56.8942 64.6911 56.834 64.8937 56.8225 65.1019L56.8304 67.8691C56.8314 68.2493 57.1035 68.4043 57.4344 68.2133L59.8425 66.8229C60.0171 66.7089 60.1624 66.5555 60.2667 66.3749C60.3709 66.1943 60.4312 65.9917 60.4426 65.7835L60.4348 63.0164C60.4337 62.6362 60.1617 62.4811 59.8308 62.6722L57.4226 64.0625Z" fill="#F2F2F2"/>
<path d="M42.9887 83.4889C42.8134 83.6036 42.6677 83.7581 42.5634 83.9398C42.4591 84.1215 42.3993 84.3252 42.3887 84.5345L42.3965 87.3017C42.3976 87.6818 42.6696 87.8369 43.0005 87.6459L45.4141 86.2524C45.5887 86.1384 45.734 85.9849 45.8382 85.8043C45.9425 85.6238 46.0028 85.4212 46.0142 85.213L46.0063 82.4458C46.0052 82.0594 45.7332 81.9043 45.4023 82.0954L42.9887 83.4889Z" fill="#F2F2F2"/>
<path d="M47.7948 75.1708C47.6197 75.2842 47.474 75.4376 47.3697 75.6182C47.2653 75.7989 47.2054 76.0018 47.1947 76.2102L47.2025 78.9773C47.2036 79.3575 47.4757 79.5126 47.8065 79.3215L50.2202 77.9281C50.3947 77.8141 50.54 77.6606 50.6442 77.48C50.7485 77.2994 50.8087 77.0969 50.8202 76.8887L50.8123 74.1215C50.8112 73.7351 50.5392 73.5863 50.2083 73.7773L47.7948 75.1708Z" fill="#F2F2F2"/>
<path d="M52.6008 66.8463C52.4262 66.9603 52.2809 67.1137 52.1767 67.2943C52.0724 67.4749 52.0122 67.6775 52.0007 67.8857L52.0086 70.6528C52.0097 71.033 52.2817 71.1881 52.6126 70.997L55.0207 69.6067C55.1966 69.4929 55.3432 69.3391 55.4484 69.158C55.5536 68.9768 55.6146 68.7733 55.6263 68.5641L55.6184 65.797C55.6174 65.4168 55.3452 65.2618 55.009 65.4559L52.6008 66.8463Z" fill="#F2F2F2"/>
<path d="M57.4069 58.522C57.2323 58.636 57.087 58.7895 56.9828 58.9701C56.8785 59.1506 56.8182 59.3532 56.8068 59.5614L56.8146 62.3286C56.8157 62.7087 57.0878 62.8638 57.4186 62.6728L59.8268 61.2824C60.0014 61.1684 60.1467 61.0149 60.2509 60.8343C60.3552 60.6538 60.4154 60.4512 60.4269 60.243L60.419 57.4758C60.418 57.0957 60.1459 56.9406 59.815 57.1316L57.4069 58.522Z" fill="#F2F2F2"/>
<path d="M38.1669 86.273C37.9916 86.3877 37.8458 86.5423 37.7415 86.724C37.6373 86.9057 37.5774 87.1094 37.5668 87.3187L37.5746 90.0858C37.5757 90.466 37.8478 90.621 38.1786 90.43L40.5922 89.0365C40.7668 88.9225 40.9121 88.769 41.0164 88.5885C41.1206 88.4079 41.1809 88.2053 41.1923 87.9971L41.1845 85.23C41.1834 84.8435 40.9113 84.6885 40.5805 84.8795L38.1669 86.273Z" fill="#F2F2F2"/>
<path d="M42.973 77.9545C42.798 78.0679 42.6523 78.2213 42.548 78.402C42.4437 78.5827 42.3837 78.7855 42.373 78.9939L42.3809 81.761C42.382 82.1412 42.654 82.2963 42.9848 82.1053L45.3984 80.7118C45.573 80.5978 45.7182 80.4443 45.8225 80.2637C45.9268 80.0831 45.987 79.8806 45.9985 79.6724L45.9906 76.9052C45.9895 76.5188 45.7175 76.37 45.3866 76.561L42.973 77.9545Z" fill="#F2F2F2"/>
<path d="M47.7791 69.6301C47.6045 69.7441 47.4592 69.8976 47.3549 70.0781C47.2507 70.2587 47.1904 70.4613 47.179 70.6695L47.1868 73.4367C47.1879 73.8168 47.4599 73.9719 47.7908 73.7809L50.2044 72.3874C50.379 72.2734 50.5242 72.1199 50.6285 71.9393C50.7327 71.7587 50.793 71.5562 50.8044 71.348L50.7966 68.5808C50.7955 68.2007 50.5235 68.0456 50.1927 68.2366L47.7791 69.6301Z" fill="#F2F2F2"/>
<path d="M52.5852 61.3057C52.4106 61.4197 52.2653 61.5732 52.1611 61.7538C52.0568 61.9344 51.9965 62.1369 51.9851 62.3451L51.9929 65.1123C51.994 65.4925 52.2661 65.6475 52.5969 65.4565L55.0051 64.0661C55.181 63.9523 55.3275 63.7986 55.4328 63.6174C55.538 63.4363 55.599 63.2328 55.6107 63.0236L55.6028 60.2564C55.6017 59.8763 55.3296 59.7212 54.9933 59.9154L52.5852 61.3057Z" fill="#F2F2F2"/>
<path d="M33.3451 89.0567C33.1698 89.1714 33.0241 89.3259 32.9198 89.5076C32.8155 89.6893 32.7556 89.8931 32.745 90.1023L32.7528 92.8695C32.7539 93.2497 33.026 93.4047 33.3568 93.2137L35.7704 91.8202C35.945 91.7062 36.0903 91.5527 36.1946 91.3721C36.2988 91.1916 36.3591 90.989 36.3705 90.7808L36.3627 88.0136C36.3616 87.6272 36.0895 87.4722 35.7587 87.6632L33.3451 89.0567Z" fill="#E8E8E8"/>
<path d="M38.1512 80.7387C37.9761 80.8521 37.8304 81.0055 37.7261 81.1861C37.6218 81.3668 37.5618 81.5697 37.5511 81.7781L37.559 84.5452C37.5601 84.9254 37.8322 85.0804 38.163 84.8894L40.5766 83.4959C40.7512 83.3819 40.8965 83.2285 41.0007 83.0479C41.105 82.8673 41.1653 82.6647 41.1767 82.4565L41.1688 79.6894C41.1678 79.303 40.8957 79.1541 40.5648 79.3452L38.1512 80.7387Z" fill="#F2F2F2"/>
<path d="M42.9573 72.4143C42.7827 72.5283 42.6375 72.6818 42.5332 72.8623C42.429 73.0429 42.3687 73.2455 42.3573 73.4536L42.3652 76.2208C42.3662 76.601 42.6383 76.7561 42.9691 76.5651L45.3827 75.1716C45.5573 75.0576 45.7026 74.9041 45.8068 74.7235C45.9111 74.5429 45.9714 74.3404 45.9828 74.1322L45.9749 71.365C45.9739 70.9848 45.7018 70.8298 45.3709 71.0208L42.9573 72.4143Z" fill="#F2F2F2"/>
<path d="M47.7634 64.0896C47.5888 64.2036 47.4436 64.357 47.3393 64.5376C47.235 64.7182 47.1748 64.9208 47.1633 65.1289L47.1712 67.8961C47.1723 68.2763 47.4443 68.4314 47.7752 68.2403L50.1888 66.8468C50.3633 66.7328 50.5086 66.5793 50.6128 66.3988C50.7171 66.2182 50.7773 66.0157 50.7888 65.8075L50.7809 63.0403C50.7798 62.6601 50.5078 62.5051 50.177 62.6961L47.7634 64.0896Z" fill="#F2F2F2"/>
<path d="M28.5287 91.8377C28.3521 91.9523 28.2051 92.107 28.0999 92.2893C27.9946 92.4716 27.9341 92.6763 27.9232 92.8865L27.9311 95.6537C27.9321 96.0339 28.2043 96.1889 28.5405 95.9947L30.9487 94.6044C31.1233 94.4904 31.2685 94.3369 31.3728 94.1563C31.4771 93.9758 31.5373 93.7732 31.5488 93.565L31.5409 90.7978C31.5398 90.4114 31.2677 90.2564 30.9369 90.4474L28.5287 91.8377Z" fill="#E8E8E8"/>
<path d="M33.3295 83.5223C33.1544 83.6358 33.0087 83.7891 32.9043 83.9698C32.8 84.1505 32.7401 84.3534 32.7294 84.5617L32.7372 87.3289C32.7383 87.7091 33.0104 87.8641 33.3412 87.6731L35.7548 86.2796C35.9294 86.1656 36.0747 86.0121 36.1789 85.8316C36.2832 85.651 36.3435 85.4484 36.3549 85.2402L36.3471 82.473C36.346 82.0866 36.0739 81.9378 35.7431 82.1288L33.3295 83.5223Z" fill="#E8E8E8"/>
<path d="M38.1355 75.198C37.9609 75.312 37.8156 75.4655 37.7114 75.6461C37.6071 75.8266 37.5468 76.0292 37.5354 76.2374L37.5432 79.0046C37.5443 79.3847 37.8164 79.5398 38.1472 79.3488L40.5608 77.9553C40.7354 77.8413 40.8807 77.6878 40.985 77.5072C41.0892 77.3266 41.1495 77.1241 41.1609 76.9159L41.1531 74.1487C41.152 73.7685 40.88 73.6134 40.5491 73.8045L38.1355 75.198Z" fill="#F2F2F2"/>
<path d="M42.9416 66.8738C42.767 66.9878 42.6217 67.1413 42.5175 67.3218C42.4133 67.5024 42.353 67.7049 42.3416 67.9131L42.3494 70.6803C42.3505 71.0605 42.6225 71.2155 42.9534 71.0245L45.367 69.631C45.5416 69.517 45.6869 69.3635 45.7911 69.183C45.8954 69.0024 45.9557 68.7998 45.9671 68.5916L45.9593 65.8245C45.9582 65.4443 45.6861 65.2892 45.3553 65.4803L42.9416 66.8738Z" fill="#F2F2F2"/>
<path d="M33.298 72.4411C33.1234 72.5551 32.9781 72.7086 32.8739 72.8891C32.7696 73.0697 32.7093 73.2723 32.6979 73.4805L32.7057 76.2476C32.7068 76.6278 32.9789 76.7828 33.3097 76.5918L35.7233 75.1983C35.8979 75.0843 36.0432 74.9309 36.1474 74.7503C36.2517 74.5697 36.312 74.3671 36.3234 74.159L36.3156 71.3918C36.3145 71.0116 36.0424 70.8566 35.7116 71.0476L33.298 72.4411Z" fill="#E8E8E8"/>
<path d="M28.5131 86.3034C28.3367 86.4166 28.1897 86.5702 28.0845 86.7515C27.9792 86.9328 27.9185 87.1365 27.9076 87.3459L27.9154 90.1131C27.9165 90.4932 28.1886 90.6483 28.5249 90.4541L30.933 89.0638C31.1076 88.9498 31.2529 88.7963 31.3571 88.6157C31.4614 88.4351 31.5217 88.2326 31.5331 88.0244L31.5253 85.2572C31.5242 84.8708 31.2521 84.722 30.9213 84.913L28.5131 86.3034Z" fill="#E8E8E8"/>
<path d="M33.3137 77.9817C33.1391 78.0957 32.9939 78.2492 32.8896 78.4297C32.7854 78.6103 32.7251 78.8129 32.7136 79.0211L32.7215 81.7882C32.7225 82.1684 32.9947 82.3234 33.3255 82.1324L35.7391 80.7389C35.9136 80.6249 36.0589 80.4714 36.1632 80.2909C36.2674 80.1103 36.3277 79.9077 36.3392 79.6995L36.3313 76.9324C36.3302 76.5522 36.0581 76.3972 35.7273 76.5882L33.3137 77.9817Z" fill="#E8E8E8"/>
<path d="M38.1197 69.6575C37.9452 69.7715 37.7999 69.925 37.6956 70.1055C37.5914 70.2861 37.5311 70.4887 37.5197 70.6969L37.5275 73.464C37.5286 73.8442 37.8007 73.9992 38.1315 73.8082L40.5451 72.4147C40.7197 72.3007 40.865 72.1472 40.9692 71.9667C41.0735 71.7861 41.1338 71.5835 41.1452 71.3753L41.1374 68.6082C41.1363 68.228 40.8643 68.0729 40.5334 68.264L38.1197 69.6575Z" fill="#F2F2F2"/>
<path d="M28.4974 80.7627C28.3215 80.8765 28.175 81.0302 28.0697 81.2114C27.9645 81.3926 27.9035 81.596 27.8918 81.8052L27.8997 84.5724C27.9008 84.9526 28.1729 85.1076 28.5092 84.9134L30.9173 83.5231C31.0919 83.4091 31.2372 83.2556 31.3414 83.0751C31.4457 82.8945 31.506 82.6919 31.5174 82.4837L31.5096 79.7166C31.5085 79.3364 31.2364 79.1813 30.9056 79.3723L28.4974 80.7627Z" fill="#E8E8E8"/>
<path d="M28.4816 75.2222C28.3057 75.336 28.1592 75.4898 28.054 75.671C27.9487 75.8521 27.8878 76.0556 27.8761 76.2648L27.8839 79.0319C27.885 79.4121 28.1571 79.5671 28.4934 79.3729L30.9016 77.9826C31.0761 77.8686 31.2214 77.7151 31.3257 77.5345C31.4299 77.354 31.4902 77.1514 31.5017 76.9432L31.4938 74.176C31.4927 73.7958 31.2206 73.6408 30.8898 73.8318L28.4816 75.2222Z" fill="#E8E8E8"/>
<path d="M33.8923 67.425C33.527 67.8622 33.3148 68.4068 33.2881 68.9758C33.2903 69.7424 33.8345 70.0463 34.5016 69.6611C34.8518 69.4342 35.1432 69.1275 35.3519 68.7661C35.5605 68.4048 35.6804 67.999 35.7018 67.5823C35.7003 67.0682 35.4574 66.7612 35.0963 66.7307L35.0958 66.5463L43.5298 61.6769L43.5304 61.863C43.1683 62.2993 42.9581 62.8417 42.9317 63.4081C42.9339 64.1747 43.478 64.4785 44.1397 64.0965C44.4907 63.8693 44.783 63.5622 44.9925 63.2003C45.202 62.8385 45.3229 62.4322 45.3453 62.0146C45.3438 61.5024 45.1003 61.1972 44.7399 61.1656L44.7394 60.9785L53.1734 56.1091L53.1739 56.2952C52.8118 56.7316 52.6017 57.2739 52.5753 57.8403C52.5774 58.6069 53.1216 58.9108 53.7833 58.5288C54.1335 58.3019 54.4249 57.9952 54.6335 57.6338C54.8422 57.2724 54.9621 56.8667 54.9835 56.45C54.982 55.9358 54.7391 55.6289 54.378 55.5984L54.3775 55.414L63.419 50.1938L63.5093 82.0476C63.4637 82.8812 63.2226 83.6924 62.8057 84.4157C62.3887 85.139 61.8075 85.7541 61.109 86.2114L27.3565 105.698C26.0277 106.466 24.9449 105.848 24.9405 104.315L24.8502 72.4616L33.8918 67.2415L33.8923 67.425ZM37.5746 90.0855C37.5757 90.4657 37.8478 90.6207 38.1786 90.4297L40.5922 89.0362C40.7668 88.9222 40.9121 88.7687 41.0163 88.5882C41.1206 88.4076 41.1809 88.205 41.1923 87.9968L41.1845 85.2296C41.1834 84.8432 40.9113 84.6882 40.5804 84.8792L38.1669 86.2728C37.9916 86.3875 37.8458 86.542 37.7415 86.7237C37.6373 86.9054 37.5774 87.1092 37.5668 87.3184L37.5746 90.0856V90.0855ZM52.04 81.7339C52.041 82.1141 52.3131 82.2692 52.644 82.0781L55.0522 80.6878C55.2281 80.574 55.3746 80.4202 55.4798 80.239C55.5851 80.0579 55.646 79.8544 55.6577 79.6452L55.6499 76.878C55.6488 76.4916 55.3767 76.3366 55.0404 76.5308L52.6322 77.9211C52.4569 78.0358 52.3112 78.1903 52.2069 78.372C52.1026 78.5537 52.0428 78.7575 52.0321 78.9667L52.04 81.7339ZM32.7529 92.8694C32.7539 93.2495 33.026 93.4046 33.3569 93.2136L35.7705 91.8201C35.945 91.7061 36.0903 91.5526 36.1946 91.372C36.2988 91.1914 36.3591 90.9889 36.3706 90.7807L36.3627 88.0135C36.3616 87.6271 36.0895 87.4721 35.7587 87.6631L33.3451 89.0566C33.1698 89.1713 33.0241 89.3258 32.9198 89.5075C32.8155 89.6892 32.7556 89.893 32.745 90.1022L32.7529 92.8694H32.7529ZM27.9311 95.6532C27.9322 96.0334 28.2043 96.1884 28.5406 95.9943L30.9487 94.6039C31.1233 94.4899 31.2686 94.3364 31.3728 94.1559C31.4771 93.9753 31.5374 93.7727 31.5488 93.5645L31.541 90.7974C31.5399 90.4109 31.2678 90.2559 30.937 90.4469L28.5288 91.8373C28.3522 91.9518 28.2052 92.1065 28.0999 92.2889C27.9947 92.4712 27.9341 92.6758 27.9233 92.886L27.9311 95.6532H27.9311ZM47.2182 84.5178C47.2193 84.8979 47.4913 85.053 47.8222 84.862L50.2358 83.4685C50.4104 83.3545 50.5557 83.201 50.6599 83.0204C50.7641 82.8399 50.8244 82.6373 50.8359 82.4291L50.828 79.6619C50.8269 79.2755 50.5549 79.1205 50.224 79.3115L47.8104 80.705C47.6351 80.8197 47.4894 80.9742 47.3851 81.1559C47.2808 81.3376 47.2209 81.5414 47.2103 81.7506L47.2182 84.5178H47.2182ZM42.3964 87.3016C42.3975 87.6818 42.6695 87.8369 43.0003 87.6459L45.4139 86.2524C45.5885 86.1384 45.7338 85.9849 45.8381 85.8043C45.9423 85.6237 46.0026 85.4212 46.014 85.213L46.0063 82.4458C46.0052 82.0594 45.7331 81.9043 45.4023 82.0953L42.9886 83.4888C42.8134 83.6036 42.6676 83.7581 42.5634 83.9397C42.4591 84.1214 42.3992 84.3252 42.3886 84.5344L42.3965 87.3016L42.3964 87.3016ZM37.5589 84.5449C37.56 84.9251 37.8322 85.0801 38.1629 84.8891L40.5765 83.4956C40.7511 83.3816 40.8964 83.2281 41.0007 83.0476C41.1049 82.867 41.1652 82.6644 41.1766 82.4562L41.1688 79.689C41.1677 79.3026 40.8957 79.1538 40.5648 79.3448L38.1512 80.7383C37.9761 80.8518 37.8304 81.0051 37.7261 81.1858C37.6217 81.3665 37.5618 81.5694 37.5511 81.7777L37.5589 84.5449H37.5589ZM52.0243 76.1933C52.0254 76.5735 52.2974 76.7286 52.6283 76.5375L55.0365 75.1472C55.2124 75.0334 55.3589 74.8796 55.4642 74.6984C55.5694 74.5173 55.6303 74.3138 55.642 74.1046L55.6342 71.3374C55.6331 70.951 55.361 70.8022 55.0247 70.9964L52.6165 72.3868C52.4414 72.5002 52.2957 72.6535 52.1914 72.8342C52.0871 73.0149 52.0271 73.2178 52.0165 73.4262L52.0243 76.1933L52.0243 76.1933ZM32.7372 87.3288C32.7382 87.7089 33.0103 87.864 33.3412 87.673L35.7548 86.2795C35.9293 86.1655 36.0746 86.012 36.1789 85.8314C36.2831 85.6508 36.3434 85.4483 36.3549 85.2401L36.347 82.4729C36.3459 82.0865 36.0738 81.9377 35.743 82.1287L33.3294 83.5222C33.1543 83.6356 33.0086 83.789 32.9043 83.9697C32.7999 84.1504 32.74 84.3532 32.7293 84.5616L32.7372 87.3288ZM27.9154 90.1126C27.9164 90.4928 28.1886 90.6478 28.5249 90.4537L30.933 89.0634C31.1075 88.9493 31.2528 88.7958 31.3571 88.6153C31.4613 88.4347 31.5216 88.2321 31.5331 88.0239L31.5252 85.2568C31.5241 84.8704 31.2521 84.7216 30.9212 84.9126L28.5131 86.3029C28.3366 86.4161 28.1897 86.5698 28.0844 86.751C27.9791 86.9323 27.9185 87.1361 27.9075 87.3455L27.9154 90.1126L27.9154 90.1126ZM37.5432 79.0043C37.5443 79.3845 37.8164 79.5395 38.1472 79.3485L40.5608 77.955C40.7354 77.841 40.8807 77.6875 40.9849 77.507C41.0892 77.3264 41.1495 77.1238 41.1609 76.9156L41.1531 74.1485C41.152 73.7683 40.8799 73.6132 40.5491 73.8043L38.1355 75.1978C37.9609 75.3118 37.8156 75.4653 37.7113 75.6458C37.6071 75.8264 37.5468 76.029 37.5353 76.2372L37.5432 79.0043H37.5432ZM37.5275 73.4638C37.5286 73.844 37.8007 73.999 38.1315 73.808L40.5451 72.4145C40.7197 72.3005 40.865 72.147 40.9692 71.9664C41.0735 71.7858 41.1338 71.5833 41.1452 71.3751L41.1373 68.6079C41.1363 68.2277 40.8642 68.0727 40.5333 68.2637L38.1197 69.6572C37.9452 69.7712 37.7999 69.9247 37.6956 70.1053C37.5914 70.2858 37.5311 70.4884 37.5196 70.6966L37.5275 73.4638H37.5275ZM52.0086 70.6528C52.0096 71.033 52.2817 71.188 52.6126 70.997L55.0207 69.6066C55.1966 69.4928 55.3432 69.3391 55.4484 69.1579C55.5536 68.9767 55.6146 68.7733 55.6263 68.5641L55.6184 65.7969C55.6173 65.4167 55.3452 65.2617 55.009 65.4559L52.6008 66.8462C52.4262 66.9602 52.2809 67.1137 52.1767 67.2943C52.0724 67.4748 52.0121 67.6774 52.0007 67.8856L52.0086 70.6528H52.0086ZM51.9928 65.1122C51.9939 65.4924 52.266 65.6474 52.5968 65.4564L55.005 64.066C55.1809 63.9522 55.3274 63.7985 55.4327 63.6173C55.5379 63.4361 55.5989 63.2327 55.6106 63.0235L55.6027 60.2563C55.6016 59.8761 55.3295 59.7211 54.9932 59.9153L52.5851 61.3057C52.4105 61.4197 52.2652 61.5731 52.161 61.7537C52.0567 61.9343 51.9964 62.1368 51.985 62.345L51.9928 65.1122L51.9928 65.1122ZM32.7214 81.7882C32.7225 82.1684 32.9946 82.3234 33.3254 82.1324L35.739 80.7389C35.9136 80.6249 36.0589 80.4714 36.1631 80.2908C36.2674 80.1103 36.3277 79.9077 36.3391 79.6995L36.3313 76.9324C36.3302 76.5522 36.0581 76.3971 35.7273 76.5881L33.3137 77.9816C33.1391 78.0957 32.9938 78.2491 32.8895 78.4297C32.7853 78.6103 32.725 78.8129 32.7136 79.021L32.7214 81.7882H32.7214ZM27.8996 84.5721C27.9007 84.9522 28.1728 85.1073 28.5091 84.9131L30.9173 83.5228C31.0919 83.4088 31.2372 83.2553 31.3414 83.0747C31.4457 82.8941 31.5059 82.6916 31.5174 82.4834L31.5095 79.7162C31.5085 79.336 31.2364 79.181 30.9055 79.372L28.4974 80.7624C28.3215 80.8762 28.1749 81.0299 28.0697 81.2111C27.9645 81.3923 27.9035 81.5957 27.8918 81.8049L27.8997 84.5721L27.8996 84.5721ZM32.7057 76.2476C32.7068 76.6278 32.9789 76.7828 33.3097 76.5918L35.7233 75.1983C35.8979 75.0843 36.0432 74.9308 36.1475 74.7503C36.2517 74.5697 36.312 74.3671 36.3234 74.1589L36.3156 71.3918C36.3145 71.0116 36.0424 70.8566 35.7116 71.0476L33.298 72.441C33.1234 72.555 32.9781 72.7085 32.8738 72.8891C32.7696 73.0697 32.7093 73.2722 32.6979 73.4804L32.7057 76.2476L32.7057 76.2476ZM27.884 79.0314C27.885 79.4116 28.1571 79.5666 28.4934 79.3725L30.9016 77.9822C31.0762 77.8681 31.2215 77.7146 31.3257 77.5341C31.43 77.3535 31.4902 77.1509 31.5017 76.9427L31.4938 74.1756C31.4928 73.7954 31.2206 73.6404 30.8898 73.8314L28.4817 75.2218C28.3058 75.3356 28.1592 75.4893 28.054 75.6705C27.9488 75.8516 27.8878 76.0551 27.8761 76.2643L27.884 79.0315V79.0314ZM56.8617 78.9501C56.8628 79.3303 57.1349 79.4853 57.4658 79.2943L59.874 77.9039C60.0485 77.7899 60.1938 77.6365 60.2981 77.4559C60.4023 77.2753 60.4626 77.0727 60.4741 76.8645L60.4662 74.0974C60.4651 73.711 60.1931 73.5559 59.8622 73.7469L57.454 75.1373C57.2787 75.252 57.1329 75.4065 57.0286 75.5882C56.9244 75.7699 56.8645 75.9737 56.8539 76.1829L56.8617 78.9501L56.8617 78.9501ZM47.2025 78.9772C47.2036 79.3574 47.4756 79.5124 47.8065 79.3214L50.2201 77.9279C50.3947 77.8139 50.5399 77.6604 50.6442 77.4799C50.7484 77.2993 50.8087 77.0967 50.8201 76.8886L50.8123 74.1214C50.8112 73.735 50.5391 73.5861 50.2083 73.7771L47.7948 75.1706C47.6196 75.2841 47.4739 75.4374 47.3696 75.6181C47.2653 75.7988 47.2053 76.0017 47.1947 76.21L47.2025 78.9772H47.2025ZM42.3807 81.7611C42.3818 82.1412 42.6539 82.2963 42.9847 82.1053L45.3983 80.7118C45.5729 80.5978 45.7182 80.4443 45.8224 80.2637C45.9267 80.0831 45.987 79.8806 45.9984 79.6724L45.9905 76.9052C45.9894 76.5188 45.7174 76.3699 45.3865 76.561L42.973 77.9545C42.7979 78.0679 42.6522 78.2213 42.5479 78.402C42.4436 78.5827 42.3836 78.7855 42.373 78.9939L42.3808 81.7611H42.3807ZM47.1869 73.4366C47.1879 73.8168 47.46 73.9718 47.7909 73.7808L50.2045 72.3873C50.379 72.2733 50.5243 72.1198 50.6286 71.9392C50.7328 71.7587 50.7931 71.5561 50.8045 71.3479L50.7966 68.5808C50.7955 68.2006 50.5235 68.0455 50.1927 68.2365L47.7791 69.63C47.6045 69.744 47.4592 69.8975 47.3549 70.0781C47.2507 70.2587 47.1904 70.4612 47.179 70.6694L47.1868 73.4366L47.1869 73.4366ZM42.365 76.2204C42.3661 76.6006 42.6382 76.7557 42.969 76.5647L45.3826 75.1712C45.5572 75.0572 45.7025 74.9037 45.8067 74.7231C45.911 74.5425 45.9712 74.34 45.9827 74.1318L45.9748 71.3646C45.9738 70.9844 45.7017 70.8294 45.3708 71.0204L42.9572 72.4139C42.7827 72.5279 42.6374 72.6814 42.5332 72.862C42.4289 73.0425 42.3686 73.2451 42.3572 73.4533L42.3651 76.2204H42.365ZM47.1711 67.896C47.1722 68.2762 47.4442 68.4312 47.7751 68.2402L50.1887 66.8467C50.3633 66.7327 50.5086 66.5792 50.6128 66.3986C50.7171 66.2181 50.7773 66.0155 50.7888 65.8073L50.781 63.0402C50.7799 62.66 50.5078 62.5049 50.177 62.6959L47.7634 64.0895C47.5888 64.2034 47.4435 64.3569 47.3393 64.5375C47.235 64.7181 47.1747 64.9206 47.1633 65.1288L47.1711 67.896L47.1711 67.896ZM42.3494 70.6799C42.3505 71.06 42.6225 71.2151 42.9533 71.0241L45.3669 69.6306C45.5415 69.5166 45.6868 69.3631 45.7911 69.1825C45.8953 69.002 45.9556 68.7994 45.967 68.5912L45.9592 65.824C45.9581 65.4439 45.6861 65.2888 45.3552 65.4798L42.9416 66.8733C42.767 66.9873 42.6217 67.1408 42.5175 67.3214C42.4133 67.5019 42.353 67.7045 42.3416 67.9127L42.3494 70.6799H42.3494ZM56.8461 73.4095C56.8472 73.7897 57.1193 73.9447 57.4501 73.7537L59.8583 72.3634C60.0328 72.2494 60.1781 72.0959 60.2824 71.9153C60.3866 71.7347 60.4469 71.5321 60.4584 71.324L60.4505 68.5568C60.4494 68.1704 60.1774 68.0215 59.8465 68.2126L57.4383 69.6029C57.2632 69.7163 57.1175 69.8697 57.0132 70.0504C56.9089 70.2311 56.8489 70.4339 56.8382 70.6423L56.846 73.4095L56.8461 73.4095ZM56.8303 67.8689C56.8314 68.2491 57.1035 68.4041 57.4343 68.2131L59.8425 66.8228C60.0171 66.7088 60.1624 66.5553 60.2666 66.3747C60.3709 66.1941 60.4312 65.9916 60.4426 65.7834L60.4348 63.0162C60.4337 62.636 60.1617 62.481 59.8308 62.672L57.4226 64.0623C57.248 64.1764 57.1027 64.3299 56.9985 64.5104C56.8942 64.691 56.8339 64.8936 56.8225 65.1018L56.8303 67.8689V67.8689ZM56.8146 62.3283C56.8157 62.7085 57.0878 62.8635 57.4186 62.6725L59.8268 61.2822C60.0014 61.1682 60.1467 61.0147 60.251 60.8341C60.3552 60.6535 60.4155 60.451 60.427 60.2428L60.4191 57.4756C60.418 57.0954 60.146 56.9404 59.8151 57.1314L57.4069 58.5218C57.2323 58.6358 57.087 58.7893 56.9828 58.9698C56.8785 59.1504 56.8182 59.353 56.8068 59.5611L56.8146 62.3283" fill="white"/>
<path d="M24.9406 104.316L24.8502 72.4619L23.6528 71.7661L23.7431 103.62C23.7129 103.917 23.7623 104.218 23.886 104.49C24.0097 104.762 24.2034 104.997 24.4474 105.17L25.6448 105.866C25.4009 105.693 25.2072 105.458 25.0835 105.186C24.9597 104.914 24.9104 104.613 24.9406 104.316V104.316Z" fill="#F2F2F2"/>
<path d="M24.846 71.0778L23.649 70.3818L23.653 71.7658L24.85 72.4618L24.846 71.0778Z" fill="#E8E8E8"/>
<path d="M63.419 50.194L63.415 48.811L54.374 54.031L54.378 55.414L63.419 50.194Z" fill="#F2F2F2"/>
<path d="M53.173 56.1091L53.17 54.7261L44.736 59.5951L44.739 60.9791L53.173 56.1091Z" fill="#F2F2F2"/>
<path d="M43.53 61.6769L43.526 60.2939L35.092 65.1629L35.096 66.5469L43.53 61.6769Z" fill="#F2F2F2"/>
<path d="M26.0268 62.0691C25.6769 62.2978 25.3859 62.6058 25.1774 62.9681C24.9689 63.3303 24.8487 63.7367 24.8267 64.1541L24.8463 71.0783L33.8878 65.8581L33.8794 62.9012C33.5161 62.8723 33.27 62.5666 33.2685 62.0519C33.2909 61.6343 33.4118 61.228 33.6214 60.8662C33.8309 60.5044 34.1231 60.1973 34.4741 59.97C35.1413 59.5848 35.68 59.8918 35.6821 60.6584C35.6565 61.2255 35.4463 61.7687 35.0835 62.2053L35.0918 65.163L43.5258 60.2936L43.5175 57.3342C43.1578 57.3026 42.9135 56.9972 42.912 56.4842C42.9341 56.0677 43.0544 55.6623 43.2629 55.301C43.4715 54.9397 43.7625 54.6329 44.1122 54.4055C44.7794 54.0203 45.3234 54.3242 45.3256 55.0907C45.2993 55.6568 45.0891 56.1989 44.727 56.6349L44.7354 59.5953L53.1694 54.7259L53.161 51.7665C52.8013 51.7348 52.557 51.4295 52.5556 50.9165C52.5777 50.5 52.6979 50.0946 52.9065 49.7333C53.115 49.3721 53.406 49.0652 53.7557 48.8378C54.4228 48.4526 54.9615 48.7596 54.9637 49.5262C54.938 50.0932 54.7278 50.6364 54.365 51.073L54.3734 54.0308L63.4149 48.8106L63.3953 41.8864C63.3931 41.1199 62.849 40.8098 62.1873 41.1918L26.0268 62.0691Z" fill="#1F56A3"/>
<path d="M53.7577 49.5295C53.5832 49.6435 53.4379 49.797 53.3337 49.9776C53.2294 50.1581 53.1691 50.3607 53.1577 50.5689L53.1611 51.7665L53.1695 54.7259L53.1734 56.1094L53.174 56.2954L53.1773 57.493C53.1784 57.8794 53.4505 58.0282 53.7813 57.8372C53.9569 57.7244 54.1031 57.5712 54.2075 57.3904C54.3118 57.2095 54.3715 57.0064 54.3814 56.7978L54.3779 55.5987L54.3774 55.4143L54.3735 54.0307L54.3651 51.0729L54.3617 49.8737C54.3607 49.4935 54.0941 49.3353 53.7577 49.5295Z" fill="#AAB0B1"/>
<path d="M54.378 55.5986L54.3814 56.7978C54.3715 57.0064 54.3118 57.2095 54.2075 57.3903C54.1031 57.5711 53.9569 57.7244 53.7813 57.8372C53.4505 58.0282 53.1784 57.8794 53.1773 57.493L53.174 56.2954C52.8119 56.7318 52.6018 57.2742 52.5753 57.8406C52.5775 58.6072 53.1216 58.911 53.7833 58.529C54.1335 58.3021 54.425 57.9954 54.6336 57.6341C54.8422 57.2727 54.9622 56.8669 54.9835 56.4502C54.982 55.9361 54.7391 55.6291 54.378 55.5986Z" fill="#E8E8E8"/>
<path d="M53.7558 48.8375C53.4061 49.065 53.1151 49.3718 52.9066 49.7331C52.698 50.0943 52.5778 50.4997 52.5557 50.9163C52.5571 51.4293 52.8014 51.7346 53.1611 51.7663L53.1577 50.5687C53.1692 50.3605 53.2294 50.1579 53.3337 49.9774C53.4379 49.7968 53.5832 49.6433 53.7577 49.5293C54.0941 49.3351 54.3607 49.4933 54.3617 49.8735L54.3651 51.0728C54.7279 50.6362 54.9381 50.093 54.9638 49.5259C54.9617 48.7594 54.423 48.4524 53.7558 48.8375Z" fill="#003067"/>
<path d="M43.5304 61.8634C43.1684 62.2997 42.9582 62.8421 42.9318 63.4085C42.9339 64.1751 43.4781 64.479 44.1398 64.0969C44.4908 63.8697 44.783 63.5626 44.9925 63.2007C45.2021 62.8389 45.323 62.4326 45.3453 62.015C45.3439 61.5028 45.1003 61.1976 44.7399 61.166L44.7433 62.3625C44.7324 62.5719 44.6718 62.7756 44.5665 62.9569C44.4612 63.1382 44.3142 63.2918 44.1378 63.4051C43.807 63.5961 43.5349 63.4473 43.5338 63.0609L43.5304 61.8634Z" fill="#E8E8E8"/>
<path d="M33.8923 67.4253C33.5271 67.8624 33.3149 68.407 33.2882 68.976C33.2904 69.7426 33.8345 70.0465 34.5016 69.6613C34.8518 69.4345 35.1433 69.1278 35.3519 68.7664C35.5605 68.405 35.6805 67.9993 35.7018 67.5825C35.7004 67.0684 35.4574 66.7614 35.0964 66.731L35.0998 67.9301C35.0891 68.1385 35.0291 68.3414 34.9248 68.5221C34.8205 68.7028 34.6748 68.8561 34.4997 68.9695C34.1634 69.1637 33.8968 69.0117 33.8957 68.6253L33.8923 67.4253Z" fill="#E8E8E8"/>
<path d="M44.1143 55.097C43.9397 55.211 43.7944 55.3645 43.6901 55.5451C43.5859 55.7257 43.5256 55.9282 43.5142 56.1364L43.5176 57.334L43.5259 60.2934L43.5299 61.677L43.5304 61.863L43.5338 63.0606C43.5349 63.447 43.807 63.5958 44.1378 63.4048C44.3142 63.2915 44.4612 63.1379 44.5665 62.9566C44.6718 62.7753 44.7324 62.5716 44.7433 62.3622L44.7399 61.1657L44.7394 60.9786L44.7355 59.5951L44.7271 56.6346L44.7237 55.438C44.7226 55.0579 44.4505 54.9029 44.1143 55.097Z" fill="#AAB0B1"/>
<path d="M44.1123 54.4056C43.7626 54.633 43.4716 54.9399 43.263 55.3011C43.0545 55.6624 42.9342 56.0678 42.9121 56.4844C42.9136 56.9974 43.1579 57.3027 43.5176 57.3344L43.5142 56.1367C43.5256 55.9286 43.5859 55.726 43.6901 55.5454C43.7944 55.3649 43.9397 55.2114 44.1143 55.0974C44.4505 54.9032 44.7226 55.0582 44.7237 55.4384L44.7271 56.635C45.0892 56.199 45.2994 55.6569 45.3257 55.0908C45.3235 54.3243 44.7795 54.0204 44.1123 54.4056Z" fill="#003067"/>
<path d="M34.4761 60.6619C34.301 60.7753 34.1553 60.9287 34.051 61.1094C33.9467 61.2901 33.8868 61.4929 33.8761 61.7013L33.8795 62.9014L33.8879 65.8583L33.8918 67.2418L33.8923 67.4254L33.8957 68.6254C33.8968 69.0118 34.1634 69.1638 34.4997 68.9697C34.6748 68.8562 34.8205 68.7029 34.9248 68.5222C35.0291 68.3415 35.0891 68.1386 35.0998 67.9303L35.0964 66.7311L35.0958 66.5467L35.0919 65.1632L35.0835 62.2054L35.0801 61.0061C35.079 60.6259 34.807 60.4709 34.4761 60.6619Z" fill="#AAB0B1"/>
<path d="M34.4741 59.9699C34.1231 60.1971 33.8309 60.5042 33.6214 60.8661C33.4118 61.2279 33.2909 61.6342 33.2686 62.0518C33.27 62.5665 33.5161 62.8722 33.8795 62.9011L33.8761 61.701C33.8867 61.4927 33.9467 61.2898 34.051 61.1091C34.1553 60.9285 34.301 60.7751 34.4761 60.6617C34.807 60.4707 35.079 60.6257 35.0801 61.0059L35.0835 62.2051C35.4463 61.7685 35.6565 61.2254 35.6821 60.6583C35.68 59.8917 35.1413 59.5847 34.4741 59.9699Z" fill="#003067"/>
<path d="M33.8879 65.8579L24.8459 71.0779L24.8499 72.4619L33.8919 67.2419L33.8879 65.8579Z" fill="#F2F2F2"/>
<path d="M63.0417 41.1101L61.8443 40.4143C61.7075 40.3505 61.5562 40.3244 61.406 40.3388C61.2558 40.3532 61.1122 40.4075 60.99 40.496L62.1875 41.1919C62.3096 41.1033 62.4533 41.0491 62.6035 41.0347C62.7537 41.0203 62.905 41.0464 63.0417 41.1101V41.1101Z" fill="#0078D4"/>
<path d="M24.827 64.154L23.629 63.458L23.649 70.382L24.846 71.078L24.827 64.154Z" fill="#0078D4"/>
<path d="M62.187 41.1921L60.99 40.4961L24.829 61.3731L26.027 62.0691L62.187 41.1921Z" fill="#0078D4"/>
<path d="M26.0268 62.0689L24.8293 61.373C24.4794 61.6018 24.1884 61.9097 23.9799 62.272C23.7714 62.6343 23.6512 63.0406 23.6292 63.458L24.8266 64.1539C24.8487 63.7365 24.9688 63.3302 25.1774 62.9679C25.3859 62.6056 25.6769 62.2976 26.0268 62.0689V62.0689Z" fill="#0078D4"/>
<path d="M103.914 88.3125C104.22 88.5115 104.474 88.7802 104.655 89.0965C104.837 89.4127 104.941 89.7676 104.959 90.1319L104.94 96.9042C104.938 97.5739 104.471 97.8488 103.888 97.5123L96.2603 93.1086C95.9536 92.9091 95.6983 92.6399 95.5153 92.323C95.3323 92.006 95.2268 91.6504 95.2074 91.2849L95.2266 84.5127C95.2285 83.843 95.7036 83.5723 96.2864 83.9088L97.401 84.5523L97.4076 82.2168C97.4124 80.5091 98.6257 79.8177 100.112 80.6757C100.896 81.1848 101.549 81.8721 102.017 82.6816C102.485 83.491 102.756 84.3997 102.806 85.3334L102.803 86.4049L101.754 85.7993L101.757 84.7278C101.725 84.1572 101.559 83.6022 101.273 83.1076C100.986 82.6131 100.587 82.1929 100.108 81.8811C99.2051 81.3596 98.4596 81.7844 98.4567 82.8224L98.4501 85.1579L103.914 88.3125ZM100.613 91.8233C101.124 91.8833 101.489 91.516 101.491 90.8463C101.466 90.3599 101.325 89.8864 101.082 89.4646C100.838 89.0428 100.498 88.6845 100.09 88.4189C99.3177 87.9731 98.6892 88.3397 98.6867 89.227C98.7266 89.9726 99.0357 90.6784 99.5567 91.2134L99.5534 92.3686C99.5635 92.5499 99.6161 92.7264 99.7069 92.8837C99.7977 93.0409 99.9242 93.1747 100.076 93.2741C100.368 93.4424 100.609 93.3133 100.61 92.9785L100.613 91.8233" fill="#1F56A3"/>
<path d="M110.977 83.1001C111.28 83.3044 111.532 83.5761 111.712 83.894C111.892 84.2119 111.996 84.5673 112.016 84.9321L111.994 92.4578C111.969 101.39 108.543 105.197 100.297 105.275C100.208 105.268 100.122 105.24 100.046 105.192C99.9518 105.137 99.867 105.067 99.7948 104.984C91.5764 95.4015 88.1833 87.657 88.2086 78.725L88.23 71.1994C88.2319 70.5381 88.6924 70.2506 89.2753 70.5703C93.399 72.817 97.0297 73.9573 99.4115 72.9009C99.5316 72.8586 99.66 72.8455 99.7862 72.8626C99.9124 72.8796 100.033 72.9265 100.137 72.9992C100.435 73.1836 100.683 73.437 100.861 73.7379C103.463 77.6002 106.926 80.8052 110.977 83.1001V83.1001ZM104.94 96.904L104.959 90.1318C104.941 89.7674 104.837 89.4126 104.655 89.0963C104.474 88.78 104.22 88.5114 103.914 88.3123L98.45 85.1578L98.4566 82.8222C98.4596 81.7842 99.2051 81.3593 100.108 81.8809C100.587 82.1927 100.986 82.6129 101.272 83.1074C101.559 83.602 101.725 84.157 101.757 84.7276L101.754 85.7991L102.803 86.4047L102.806 85.3332C102.756 84.3994 102.485 83.4908 102.017 82.6813C101.549 81.8719 100.896 81.1846 100.112 80.6755C98.6257 79.8175 97.4124 80.5088 97.4076 82.2165L97.4009 84.5521L96.2864 83.9086C95.7035 83.5721 95.2284 83.8428 95.2266 84.5125L95.2073 91.2847C95.2268 91.6501 95.3323 92.0058 95.5152 92.3228C95.6982 92.6397 95.9535 92.9089 96.2603 93.1084L103.888 97.5121C104.471 97.8486 104.938 97.5737 104.94 96.904" fill="#0078D4"/>
<path d="M100.09 88.419C100.498 88.6846 100.838 89.0429 101.081 89.4648C101.325 89.8866 101.465 90.36 101.491 90.8465C101.489 91.5162 101.123 91.8835 100.613 91.8235L100.61 92.9787C100.609 93.3135 100.368 93.4426 100.076 93.2743C99.924 93.1749 99.7975 93.0411 99.7067 92.8838C99.6159 92.7265 99.5633 92.5501 99.5532 92.3688L99.5565 91.2135C99.0356 90.6786 98.7264 89.9728 98.6865 89.2272C98.6891 88.3398 99.3176 87.9732 100.09 88.419Z" fill="#0078D4"/>
<path d="M78.6537 51.5005C79.0076 51.7298 79.302 52.0397 79.5128 52.4048C79.7236 52.7699 79.8448 53.1798 79.8664 53.6009C79.8642 54.3711 79.316 54.6834 78.6458 54.2965C78.292 54.0672 77.9976 53.7573 77.7868 53.3922C77.576 53.027 77.4549 52.6171 77.4332 52.1961C77.4354 51.4176 77.9763 51.1094 78.6537 51.5005Z" fill="#003067"/>
<path d="M83.5203 54.3102C83.8748 54.5387 84.1698 54.8484 84.3807 55.2137C84.5915 55.579 84.7123 55.9893 84.7329 56.4106C84.7307 57.1807 84.1898 57.4973 83.5124 57.1062C83.1593 56.8761 82.8654 56.566 82.6547 56.2011C82.444 55.8361 82.3223 55.4266 82.2997 55.0057C82.3019 54.2272 82.8501 53.9232 83.5203 54.3102Z" fill="#50E6FF"/>
<path d="M88.3939 57.1242C88.7478 57.3534 89.0422 57.6633 89.253 58.0285C89.4637 58.3936 89.5849 58.8035 89.6065 59.2245C89.6044 59.9947 89.0563 60.3071 88.386 59.9201C88.0329 59.6901 87.7391 59.38 87.5283 59.015C87.3176 58.6501 87.196 58.2405 87.1733 57.8197C87.1755 57.0412 87.7237 56.7372 88.3939 57.1242Z" fill="#C3F1FF"/>
<path d="M122.904 74.2395C123.845 74.8544 124.628 75.6823 125.189 76.6561C125.751 77.6299 126.075 78.7223 126.135 79.8447L126.014 122.755C126.008 124.806 124.546 125.639 122.761 124.608L77.3023 98.3628C76.3599 97.7499 75.5753 96.9232 75.0126 95.9499C74.4498 94.9766 74.1247 93.8843 74.0637 92.7617L74.1854 49.8515C74.1912 47.8006 75.653 46.9592 77.4451 47.9939L122.904 74.2395ZM123.583 120.413L123.683 84.9694C123.654 84.4074 123.491 83.8604 123.21 83.373C122.928 82.8856 122.536 82.4716 122.064 82.1647L78.23 56.857C77.3339 56.3396 76.603 56.7562 76.6 57.7858L76.4996 93.229C76.5296 93.791 76.6919 94.338 76.9733 94.8254C77.2547 95.3128 77.6472 95.7268 78.119 96.0337L121.953 121.341C122.849 121.859 123.58 121.442 123.583 120.413H123.583ZM122.48 79.6043C123.15 79.9912 123.698 79.6788 123.701 78.9087C123.679 78.4877 123.558 78.0777 123.347 77.7126C123.136 77.3475 122.842 77.0376 122.488 76.8083L94.8849 60.8716C94.2146 60.4846 93.6666 60.7887 93.6644 61.5672C93.687 61.988 93.8086 62.3976 94.0193 62.7625C94.23 63.1275 94.5239 63.4376 94.877 63.6676L122.48 79.6043H122.48ZM83.5202 54.3102C82.85 53.9233 82.3018 54.2272 82.2996 55.0058C82.3223 55.4266 82.4439 55.8361 82.6546 56.2011C82.8653 56.5661 83.1592 56.8762 83.5123 57.1062C84.1897 57.4973 84.7306 57.1807 84.7328 56.4106C84.7122 55.9893 84.5915 55.579 84.3806 55.2138C84.1697 54.8485 83.8748 54.5387 83.5202 54.3102V54.3102ZM88.394 57.1241C87.7237 56.7371 87.1756 57.0411 87.1734 57.8196C87.196 58.2404 87.3176 58.65 87.5283 59.0149C87.739 59.3799 88.0329 59.69 88.386 59.92C89.0562 60.307 89.6043 59.9946 89.6065 59.2244C89.5849 58.8034 89.4637 58.3935 89.2529 58.0284C89.0421 57.6633 88.7478 57.3533 88.394 57.1241V57.1241ZM78.6538 51.5006C77.9763 51.1095 77.4355 51.4177 77.4333 52.1962C77.4549 52.6172 77.5761 53.0271 77.7868 53.3922C77.9976 53.7574 78.292 54.0673 78.6458 54.2965C79.3161 54.6835 79.8643 54.3711 79.8664 53.601C79.8448 53.1799 79.7236 52.77 79.5128 52.4049C79.302 52.0398 79.0076 51.7298 78.6538 51.5006" fill="#0078D4"/>
<path d="M122.48 79.6044C123.15 79.9913 123.699 79.6789 123.701 78.9088C123.679 78.4878 123.558 78.0778 123.347 77.7127C123.136 77.3476 122.842 77.0377 122.488 76.8084L94.8849 60.8717C94.2147 60.4847 93.6666 60.7888 93.6644 61.5673C93.6871 61.9881 93.8087 62.3977 94.0194 62.7626C94.2301 63.1276 94.5239 63.4377 94.877 63.6677L122.48 79.6044" fill="#003067"/>
<path d="M122.064 82.1647C122.536 82.4717 122.929 82.8857 123.21 83.3731C123.491 83.8605 123.654 84.4075 123.684 84.9694L123.583 120.413C123.58 121.442 122.849 121.859 121.953 121.341L78.119 96.0338C77.6473 95.7269 77.2547 95.3128 76.9733 94.8254C76.6919 94.3381 76.5296 93.7911 76.4996 93.2291L76.6001 57.7859C76.603 56.7562 77.3339 56.3397 78.23 56.8571L122.064 82.1647ZM111.994 92.4581L112.016 84.9325C111.996 84.5676 111.892 84.2122 111.712 83.8943C111.532 83.5764 111.28 83.3047 110.977 83.1005C106.926 80.8055 103.462 77.6005 100.861 73.7382C100.683 73.4373 100.434 73.1839 100.137 72.9996C100.033 72.9268 99.9123 72.88 99.7861 72.8629C99.6599 72.8458 99.5315 72.8589 99.4114 72.9012C97.0296 73.9577 93.3989 72.8173 89.2752 70.5707C88.6923 70.2509 88.2318 70.5384 88.2299 71.1998L88.2086 78.7254C88.1833 87.6574 91.5764 95.4019 99.7948 104.985C99.867 105.067 99.9517 105.137 100.046 105.193C100.122 105.24 100.208 105.268 100.297 105.275C108.543 105.198 111.969 101.39 111.994 92.4581" fill="#1B93EB"/>
<path d="M126.121 72.37L80.6619 46.1244C80.3318 45.8847 79.9436 45.7377 79.5375 45.6986C79.1315 45.6594 78.7224 45.7295 78.3525 45.9016L75.1359 47.771C75.5057 47.5989 75.9148 47.5288 76.3209 47.568C76.7269 47.6071 77.1151 47.7541 77.4452 47.9938L122.904 74.2394C123.845 74.8542 124.628 75.6821 125.189 76.6559C125.751 77.6298 126.075 78.7221 126.135 79.8446L126.014 122.755C126.053 123.154 125.987 123.556 125.82 123.921C125.654 124.285 125.393 124.599 125.066 124.831L128.283 122.961C128.61 122.73 128.87 122.416 129.037 122.051C129.203 121.687 129.27 121.284 129.23 120.885L129.352 77.9752C129.291 76.8528 128.967 75.7604 128.406 74.7866C127.845 73.8128 127.062 72.9849 126.121 72.37V72.37Z" fill="#1F56A3"/>
<path d="M64.0508 97.2456L63.9972 116.159L56.2654 111.695C55.8688 111.437 55.5386 111.089 55.302 110.679C55.0653 110.269 54.9288 109.809 54.9036 109.336L54.9483 93.5627C54.9507 92.697 55.5657 92.3466 56.3191 92.7816L64.0508 97.2456Z" fill="#FFE452"/>
<path d="M63.3954 88.6693C63.2565 88.5684 63.0932 88.5065 62.9224 88.4899C62.7516 88.4733 62.5794 88.5026 62.4237 88.575L55.3473 92.6873C55.503 92.615 55.6752 92.5856 55.846 92.6022C56.0169 92.6188 56.1802 92.6808 56.3191 92.7817L64.0509 97.2456L71.1272 93.1333L63.3954 88.6693Z" fill="#FFE975"/>
<path d="M71.831 84.652C72.2268 84.9097 72.5559 85.2575 72.7915 85.6668C73.0271 86.0762 73.1625 86.5355 73.1865 87.0071L73.089 121.408L63.9972 116.159L64.0947 81.758C64.0972 80.8923 64.7058 80.5383 65.4591 80.9732L71.831 84.652Z" fill="#FFCA00"/>
<path d="M78.9073 80.5397L72.5355 76.8609C72.3976 76.7606 72.2354 76.6989 72.0657 76.6823C71.8959 76.6657 71.7248 76.6948 71.5701 76.7665L64.4938 80.8788C64.6485 80.8071 64.8196 80.778 64.9893 80.7946C65.159 80.8112 65.3212 80.8729 65.4591 80.9733L71.8311 84.6521C72.2268 84.9098 72.556 85.2576 72.7916 85.6669C73.0271 86.0762 73.1625 86.5355 73.1865 87.0072L73.089 121.408L80.1654 117.296L80.2628 82.8949C80.2388 82.4232 80.1034 81.964 79.8678 81.5546C79.6323 81.1453 79.3031 80.7975 78.9073 80.5397V80.5397Z" fill="#FFD533"/>
<path d="M80.9037 98.8773C81.2988 99.1357 81.6275 99.4836 81.863 99.8928C82.0985 100.302 82.2343 100.761 82.2592 101.232L82.1916 125.091C82.1891 125.956 81.5743 126.307 80.8272 125.875L73.089 121.408L73.1655 94.4097L80.9037 98.8773Z" fill="#FF9300"/>
<path d="M87.9801 94.765L80.2418 90.2974L73.1655 94.4097L80.9037 98.8774C81.2988 99.1358 81.6275 99.4837 81.863 99.8929C82.0985 100.302 82.2342 100.761 82.2592 101.233L82.1915 125.091C82.2084 125.259 82.1803 125.429 82.1101 125.583C82.0399 125.737 81.9301 125.87 81.7919 125.968L88.8682 121.855C89.0064 121.757 89.1162 121.625 89.1864 121.471C89.2567 121.317 89.2848 121.147 89.2679 120.978L89.3356 97.1201C89.3106 96.6487 89.1749 96.1897 88.9394 95.7805C88.7039 95.3713 88.3752 95.0234 87.9801 94.765V94.765Z" fill="#FFA933"/>
<path d="M112.983 120.098C113.274 120.287 113.515 120.543 113.688 120.843C113.86 121.143 113.959 121.48 113.976 121.826C113.974 122.459 113.527 122.714 112.977 122.396C112.687 122.208 112.447 121.954 112.274 121.655C112.101 121.356 112.002 121.021 111.984 120.676C111.986 120.036 112.433 119.781 112.983 120.098Z" fill="#003067"/>
<path d="M114.385 95.9156C114.482 95.978 114.564 96.063 114.622 96.1635C114.68 96.264 114.713 96.3769 114.718 96.4929C114.717 96.701 114.57 96.7926 114.382 96.684L111.721 95.1476C111.625 95.0838 111.544 94.9984 111.487 94.8982C111.429 94.798 111.395 94.6858 111.388 94.5703C111.389 94.3542 111.542 94.2746 111.723 94.3792L114.385 95.9156Z" fill="#003067"/>
<path d="M118.379 99.7531L118.315 122.415L107.656 116.261L107.72 93.6001L118.379 99.7531Z" fill="#003067"/>
<path d="M119.591 95.6084L109.602 89.8408C109.466 89.7428 109.307 89.6828 109.141 89.6669C108.975 89.6509 108.807 89.6798 108.656 89.7503L107.118 90.6441C107.269 90.5735 107.437 90.5447 107.603 90.5606C107.769 90.5766 107.928 90.6366 108.063 90.7346L118.053 96.5021C118.439 96.754 118.76 97.0933 118.99 97.4923C119.221 97.8914 119.354 98.3391 119.379 98.7993L119.303 125.663C119.319 125.827 119.292 125.992 119.224 126.141C119.155 126.291 119.048 126.42 118.914 126.514L120.452 125.621C120.586 125.526 120.693 125.397 120.762 125.248C120.83 125.098 120.857 124.933 120.841 124.769L120.917 97.9054C120.892 97.4453 120.759 96.9976 120.529 96.5985C120.298 96.1994 119.977 95.8603 119.591 95.6084Z" fill="#1F56A3"/>
<path d="M118.053 96.5022C118.439 96.7541 118.76 97.0933 118.991 97.4924C119.221 97.8914 119.354 98.3391 119.379 98.7993L119.303 125.663C119.301 126.504 118.7 126.846 117.968 126.424L107.979 120.656C107.593 120.405 107.272 120.065 107.041 119.666C106.811 119.267 106.678 118.819 106.652 118.359L106.729 91.4954C106.731 90.6549 107.332 90.3124 108.064 90.7347L118.053 96.5022ZM118.315 122.415L118.379 99.753L107.72 93.5994L107.656 116.261L118.315 122.415ZM112.977 122.396C113.527 122.713 113.974 122.458 113.976 121.826C113.959 121.48 113.86 121.143 113.688 120.843C113.515 120.542 113.274 120.287 112.983 120.098C112.433 119.78 111.986 120.035 111.984 120.676C112.002 121.02 112.101 121.356 112.274 121.655C112.446 121.954 112.687 122.208 112.977 122.396V122.396ZM111.723 94.3791C111.542 94.2745 111.389 94.3541 111.388 94.5703C111.395 94.6857 111.429 94.798 111.487 94.8981C111.545 94.9983 111.625 95.0837 111.721 95.1476L114.382 96.684C114.57 96.7925 114.717 96.7009 114.718 96.4928C114.713 96.3769 114.68 96.2639 114.622 96.1634C114.564 96.0629 114.482 95.9779 114.385 95.9155L111.723 94.3791" fill="#0078D4"/>
<path d="M110.752 100.89C110.872 100.968 110.971 101.074 111.042 101.197C111.113 101.321 111.154 101.461 111.161 101.603L111.156 103.525C111.155 103.785 110.97 103.891 110.744 103.76L109.067 102.792C108.948 102.715 108.849 102.61 108.778 102.487C108.707 102.363 108.666 102.225 108.658 102.083L108.663 100.161C108.664 99.8974 108.85 99.7916 109.076 99.9219L110.752 100.89Z" fill="#1F56A3"/>
<path d="M110.762 97.3179C110.882 97.3953 110.981 97.5 111.052 97.6233C111.123 97.7466 111.164 97.885 111.172 98.0272L111.166 99.9493C111.165 100.209 110.98 100.314 110.754 100.184L109.078 99.2162C108.958 99.1385 108.859 99.0337 108.788 98.9105C108.717 98.7873 108.676 98.6491 108.668 98.507L108.674 96.5849C108.674 96.3213 108.86 96.2197 109.086 96.3501L110.762 97.3179Z" fill="#1F56A3"/>
<path d="M113.807 109.818C113.926 109.896 114.025 110.001 114.096 110.124C114.168 110.247 114.209 110.385 114.216 110.527L114.211 112.454C114.21 112.713 114.025 112.819 113.799 112.689L112.122 111.721C112.003 111.643 111.904 111.538 111.833 111.415C111.762 111.292 111.721 111.154 111.713 111.012L111.718 109.085C111.719 108.826 111.905 108.72 112.131 108.85L113.807 109.818Z" fill="#1F56A3"/>
<path d="M113.817 106.242C113.936 106.32 114.035 106.425 114.107 106.548C114.178 106.671 114.219 106.809 114.227 106.951L114.221 108.878C114.22 109.137 114.035 109.243 113.809 109.112L112.133 108.145C112.013 108.067 111.914 107.962 111.843 107.839C111.772 107.716 111.731 107.577 111.723 107.435L111.729 105.509C111.729 105.25 111.915 105.144 112.141 105.274L113.817 106.242Z" fill="#1F56A3"/>
<path d="M113.827 102.666C113.947 102.744 114.046 102.849 114.117 102.973C114.189 103.097 114.229 103.236 114.237 103.379L114.231 105.301C114.231 105.561 114.045 105.666 113.819 105.536L112.143 104.568C112.024 104.49 111.924 104.386 111.853 104.263C111.782 104.139 111.741 104.001 111.733 103.859L111.739 101.937C111.739 101.673 111.925 101.567 112.151 101.698L113.827 102.666Z" fill="#1F56A3"/>
<path d="M113.837 99.0934C113.957 99.1707 114.056 99.2754 114.127 99.3987C114.199 99.522 114.24 99.6604 114.247 99.8025L114.241 101.725C114.241 101.984 114.055 102.09 113.829 101.96L112.153 100.992C112.034 100.914 111.935 100.809 111.863 100.686C111.792 100.563 111.751 100.424 111.743 100.282L111.749 98.3603C111.75 98.0967 111.935 97.9951 112.161 98.1254L113.837 99.0934Z" fill="#1F56A3"/>
<path d="M116.882 111.594C117.002 111.672 117.101 111.776 117.172 111.9C117.243 112.023 117.284 112.161 117.292 112.303L117.286 114.229C117.286 114.489 117.1 114.595 116.874 114.464L115.202 113.498C115.082 113.421 114.983 113.316 114.911 113.193C114.84 113.07 114.799 112.931 114.792 112.789L114.798 110.863C114.798 110.604 114.98 110.496 115.21 110.628L116.882 111.594Z" fill="#1F56A3"/>
<path d="M116.893 108.018C117.012 108.095 117.111 108.2 117.182 108.323C117.253 108.447 117.294 108.585 117.302 108.727L117.297 110.653C117.296 110.913 117.11 111.018 116.884 110.888L115.212 109.922C115.092 109.845 114.993 109.74 114.922 109.617C114.85 109.494 114.81 109.355 114.802 109.213L114.808 107.287C114.808 107.027 114.99 106.919 115.22 107.052L116.893 108.018Z" fill="#1F56A3"/>
<path d="M116.903 104.441C117.022 104.519 117.122 104.625 117.193 104.749C117.264 104.873 117.305 105.012 117.312 105.154L117.307 107.076C117.306 107.336 117.12 107.442 116.895 107.311L115.222 106.346C115.102 106.268 115.003 106.164 114.932 106.04C114.861 105.917 114.82 105.779 114.812 105.636L114.818 103.714C114.819 103.451 115.001 103.343 115.23 103.475L116.903 104.441Z" fill="#1F56A3"/>
<path d="M116.913 100.869C117.032 100.946 117.132 101.051 117.203 101.174C117.274 101.298 117.315 101.436 117.322 101.578L117.317 103.5C117.316 103.76 117.131 103.866 116.905 103.735L115.232 102.769C115.112 102.692 115.013 102.587 114.942 102.464C114.871 102.341 114.83 102.202 114.823 102.06L114.828 100.138C114.829 99.8744 115.011 99.7708 115.24 99.9032L116.913 100.869Z" fill="#1F56A3"/>
<path d="M110.732 108.043C110.851 108.121 110.95 108.225 111.021 108.348C111.092 108.472 111.133 108.61 111.141 108.752L111.136 110.678C111.135 110.938 110.949 111.044 110.724 110.913L109.047 109.945C108.928 109.868 108.829 109.763 108.758 109.64C108.687 109.516 108.646 109.378 108.638 109.236L108.643 107.31C108.644 107.05 108.83 106.945 109.055 107.075L110.732 108.043Z" fill="#1F56A3"/>
<path d="M113.807 113.395C113.926 113.473 114.025 113.577 114.096 113.701C114.168 113.824 114.209 113.962 114.216 114.104L114.211 116.03C114.21 116.29 114.025 116.396 113.799 116.265L112.122 115.297C112.003 115.22 111.904 115.115 111.833 114.992C111.762 114.868 111.721 114.73 111.713 114.588L111.718 112.662C111.719 112.402 111.905 112.297 112.131 112.427L113.807 113.395Z" fill="#1F56A3"/>
<path d="M116.882 115.17C117.002 115.248 117.101 115.353 117.172 115.476C117.243 115.599 117.284 115.737 117.292 115.879L117.286 117.806C117.286 118.065 117.1 118.171 116.874 118.04L115.202 117.075C115.082 116.997 114.983 116.893 114.911 116.769C114.84 116.646 114.799 116.508 114.792 116.365L114.798 114.439C114.798 114.18 114.98 114.072 115.21 114.204L116.882 115.17Z" fill="#1F56A3"/>
<path d="M110.732 111.619C110.851 111.697 110.95 111.801 111.021 111.925C111.092 112.048 111.133 112.186 111.141 112.328L111.136 114.255C111.135 114.514 110.949 114.62 110.724 114.489L109.047 113.521C108.928 113.444 108.829 113.339 108.758 113.216C108.687 113.093 108.646 112.954 108.638 112.812L108.643 110.886C108.644 110.627 108.83 110.521 109.055 110.651L110.732 111.619Z" fill="#1F56A3"/>
<path d="M110.742 104.466C110.861 104.544 110.96 104.649 111.031 104.772C111.102 104.895 111.143 105.033 111.151 105.175L111.146 107.102C111.145 107.361 110.959 107.467 110.734 107.337L109.057 106.369C108.938 106.291 108.839 106.186 108.768 106.063C108.697 105.94 108.656 105.802 108.648 105.659L108.653 103.733C108.654 103.474 108.84 103.368 109.065 103.498L110.742 104.466Z" fill="#1F56A3"/>
<path d="M97.4197 135.971L81.4463 145.254C80.8969 145.543 80.2827 145.687 79.662 145.672L79.6554 147.983C80.2761 147.999 80.8904 147.855 81.4397 147.565L97.4131 138.283C97.7202 138.128 97.9596 137.865 98.0857 137.546L98.0923 135.234C97.9661 135.554 97.7267 135.816 97.4197 135.971V135.971Z" fill="#E8E8E8"/>
<path d="M70.4434 119.042L72.6334 129.777L71.0466 122.005L71.976 129.777L52.1322 129.777C52.1498 129.556 52.2264 129.344 52.354 129.163C52.4815 128.982 52.6554 128.839 52.8573 128.748L68.8307 119.465C69.3261 119.195 69.8795 119.05 70.4434 119.042V119.042Z" fill="#F2F2F2"/>
<path d="M71.047 122.005L72.633 129.777H71.976L71.047 122.005Z" fill="#D1D1D1"/>
<path d="M72.6335 129.777L73.953 132.883L79.5954 133.853L79.5973 134.195L74.8409 134.001C74.2357 133.988 73.6422 133.832 73.1096 133.544C72.9078 133.448 72.7306 133.308 72.5913 133.134C72.4521 132.959 72.3545 132.755 72.3061 132.537L71.9761 129.777H72.6335Z" fill="#E4E4E4"/>
<path d="M89.757 134.612L79.606 134.196L79.604 133.854L89.757 134.612Z" fill="#D1D1D1"/>
<path d="M97.408 133.901C98.0326 134.262 98.261 134.769 98.0922 135.234L89.757 134.612L79.5954 133.849L74.4228 133.467C74.1454 133.452 73.8748 133.375 73.6303 133.243C73.5364 133.198 73.4534 133.133 73.387 133.052C73.3206 132.972 73.2725 132.878 73.2459 132.777L72.6335 129.777L70.4435 119.042C71.1201 118.998 71.7955 119.143 72.3949 119.46L97.408 133.901Z" fill="white"/>
<path d="M98.0922 135.234C97.966 135.554 97.7266 135.816 97.4196 135.971L81.4462 145.254C80.8969 145.543 80.2826 145.687 79.6619 145.672L79.6061 134.196L89.757 134.612L98.0922 135.234Z" fill="#F2F2F2"/>
<path d="M71.976 129.777L72.306 132.537C72.3545 132.755 72.452 132.959 72.5913 133.134C72.7305 133.308 72.9078 133.448 73.1095 133.544C73.6421 133.832 74.2356 133.988 74.8408 134.001L79.5972 134.195L79.6619 145.672C79.042 145.686 78.4289 145.54 77.8819 145.248L52.8689 130.807C52.6658 130.716 52.4906 130.573 52.3612 130.392C52.2317 130.211 52.1527 129.999 52.1322 129.777L71.976 129.777Z" fill="white"/>
<path d="M77.882 145.248L52.8688 130.807C52.6658 130.716 52.4906 130.573 52.3611 130.392C52.2317 130.211 52.1527 129.999 52.1322 129.777L52.1256 132.089C52.1461 132.311 52.2251 132.523 52.3546 132.704C52.484 132.884 52.6592 133.028 52.8623 133.119L77.8754 147.56C78.4223 147.852 79.0355 147.998 79.6553 147.983L79.6619 145.672C79.042 145.686 78.4289 145.54 77.882 145.248V145.248Z" fill="#F2F2F2"/>
<path opacity="0.2" d="M66.3135 117.05C69.4996 118.889 70.6524 121.452 69.7538 123.823C70.3567 124.033 70.9385 124.299 71.4915 124.618C75.333 126.835 75.3469 130.436 71.5304 132.654C71.0716 132.92 70.5928 133.151 70.0984 133.343C70.0274 133.369 69.937 133.399 69.8596 133.437C69.1085 133.707 68.3377 133.918 67.5541 134.07L67.2634 134.119C63.9775 134.696 60.5929 134.184 57.6245 132.661L37.7292 121.13C35.7356 119.717 35.8402 117.627 38.116 116.304C39.4763 115.612 40.9811 115.251 42.5076 115.251C44.0341 115.251 45.5389 115.612 46.8993 116.304C47.3548 116.559 47.7652 116.887 48.1143 117.275C48.2237 117.196 48.3398 117.129 48.4623 117.057C53.3876 114.195 61.3754 114.199 66.3135 117.05Z" fill="#003067"/>
<path d="M70.0493 115.258C70.046 115.793 69.9459 116.324 69.7537 116.823L69.749 118.48C69.9412 117.981 70.0413 117.45 70.0445 116.915L70.0493 115.258Z" fill="#F2F2F2"/>
<path d="M71.5304 125.654C71.0716 125.92 70.5928 126.151 70.0984 126.343C70.0274 126.37 69.937 126.399 69.8597 126.437C69.1085 126.707 68.3377 126.918 67.5541 127.07L67.2634 127.119C63.9775 127.696 60.5928 127.185 57.6245 125.662L37.7292 114.13C37.3242 113.89 36.9839 113.555 36.7377 113.154C36.4915 112.752 36.3468 112.297 36.3162 111.827L36.3116 113.484C36.3422 113.954 36.4868 114.409 36.733 114.811C36.9793 115.212 37.3196 115.547 37.7246 115.787L57.6198 127.318C60.5882 128.841 63.9728 129.353 67.2587 128.776L67.5494 128.727C68.333 128.575 69.1038 128.364 69.855 128.094C69.9323 128.056 70.0227 128.027 70.0937 128C70.5882 127.808 71.0669 127.577 71.5257 127.311C73.4233 126.208 74.3739 124.764 74.3781 123.317L74.3827 121.66C74.3786 123.107 73.4281 124.551 71.5304 125.654Z" fill="#F2F2F2"/>
<path d="M66.3135 110.05C69.4996 111.889 70.6524 114.452 69.7538 116.823C70.3567 117.033 70.9385 117.299 71.4915 117.618C75.333 119.835 75.3469 123.436 71.5304 125.654C71.0716 125.92 70.5928 126.151 70.0984 126.343C70.0274 126.369 69.937 126.399 69.8596 126.437C69.1085 126.706 68.3377 126.918 67.5541 127.07L67.2634 127.119C63.9775 127.696 60.5929 127.184 57.6245 125.661L37.7292 114.13C35.7356 112.717 35.8402 110.627 38.116 109.304C39.4763 108.612 40.9811 108.251 42.5076 108.251C44.0341 108.251 45.5389 108.612 46.8993 109.304C47.3548 109.559 47.7652 109.887 48.1143 110.275C48.2237 110.196 48.3398 110.129 48.4623 110.057C53.3876 107.195 61.3754 107.199 66.3135 110.05Z" fill="white"/>
<path d="M100.698 123.46C100.812 123.499 100.911 123.572 100.982 123.67C101.053 123.767 101.091 123.885 101.092 124.005C101.092 124.126 101.055 124.244 100.986 124.342C100.916 124.44 100.818 124.515 100.704 124.554C100.411 124.704 100.087 124.782 99.7585 124.782C99.4299 124.782 99.1059 124.705 98.8129 124.556C98.6982 124.517 98.5984 124.444 98.5275 124.346C98.4566 124.248 98.418 124.131 98.4174 124.01C98.4167 123.889 98.4539 123.771 98.5237 123.672C98.5935 123.573 98.6925 123.499 98.8067 123.459C99.0997 123.31 99.4237 123.233 99.7524 123.233C100.081 123.233 100.405 123.311 100.698 123.46V123.46Z" fill="#FFFFFE"/>
<path d="M103.542 125.103C103.657 125.141 103.756 125.215 103.827 125.312C103.897 125.41 103.936 125.527 103.936 125.648C103.937 125.768 103.9 125.886 103.83 125.985C103.761 126.083 103.662 126.157 103.549 126.197C103.256 126.346 102.932 126.424 102.603 126.425C102.275 126.425 101.95 126.347 101.657 126.198C101.543 126.16 101.443 126.087 101.372 125.989C101.301 125.891 101.263 125.773 101.262 125.652C101.261 125.531 101.298 125.413 101.368 125.314C101.438 125.216 101.537 125.141 101.651 125.102C101.944 124.953 102.268 124.875 102.597 124.875C102.926 124.876 103.25 124.954 103.542 125.103V125.103Z" fill="#FFFFFE"/>
<path d="M106.387 126.745C106.502 126.784 106.601 126.857 106.672 126.954C106.743 127.052 106.782 127.169 106.783 127.29C106.784 127.411 106.747 127.529 106.677 127.628C106.608 127.726 106.509 127.801 106.395 127.841C106.102 127.99 105.778 128.068 105.449 128.068C105.12 128.068 104.795 127.99 104.502 127.841C104.388 127.802 104.288 127.729 104.218 127.631C104.147 127.533 104.109 127.415 104.109 127.295C104.108 127.174 104.145 127.056 104.215 126.958C104.285 126.859 104.384 126.785 104.498 126.745C104.791 126.597 105.114 126.519 105.443 126.519C105.771 126.519 106.094 126.597 106.387 126.745Z" fill="#FFFFFE"/>
<path d="M114.66 126.882C114.717 126.901 114.767 126.938 114.802 126.987C114.838 127.036 114.857 127.094 114.857 127.155C114.857 127.215 114.839 127.274 114.804 127.323C114.769 127.372 114.72 127.409 114.663 127.429L105.71 132.632C105.563 132.707 105.402 132.745 105.238 132.745C105.073 132.745 104.912 132.707 104.765 132.632L102.868 131.537L100.042 133.179C99.8178 133.294 99.5595 133.324 99.315 133.263C99.2387 133.246 99.1653 133.218 99.0975 133.179C99.0433 133.155 98.9964 133.117 98.9617 133.069C98.927 133.021 98.9058 132.965 98.9003 132.906L98.8775 129.233L90.5399 124.419C90.4826 124.4 90.4328 124.364 90.3973 124.315C90.3618 124.266 90.3424 124.207 90.3418 124.147C90.3412 124.087 90.3595 124.028 90.3941 123.978C90.4286 123.929 90.4778 123.891 90.5346 123.871L99.4881 118.668C99.6348 118.594 99.797 118.555 99.9615 118.555C100.126 118.555 100.288 118.594 100.435 118.669L114.66 126.882ZM104.502 127.841C104.795 127.99 105.12 128.068 105.449 128.068C105.778 128.068 106.102 127.99 106.395 127.841C106.509 127.801 106.608 127.726 106.677 127.628C106.747 127.529 106.784 127.411 106.783 127.29C106.782 127.169 106.743 127.052 106.672 126.954C106.601 126.857 106.502 126.784 106.387 126.745C106.094 126.597 105.771 126.519 105.443 126.519C105.114 126.519 104.791 126.597 104.498 126.745C104.384 126.785 104.285 126.859 104.215 126.957C104.145 127.056 104.108 127.174 104.109 127.295C104.109 127.415 104.147 127.533 104.218 127.631C104.288 127.729 104.388 127.802 104.502 127.841V127.841ZM98.8129 124.556C99.1059 124.705 99.4299 124.782 99.7586 124.782C100.087 124.782 100.411 124.704 100.704 124.555C100.818 124.515 100.916 124.441 100.986 124.342C101.055 124.244 101.092 124.126 101.092 124.006C101.091 123.885 101.053 123.768 100.982 123.67C100.911 123.572 100.812 123.499 100.698 123.461C100.405 123.311 100.081 123.233 99.7524 123.233C99.4238 123.233 99.0997 123.31 98.8068 123.459C98.6925 123.499 98.5936 123.573 98.5237 123.672C98.4539 123.771 98.4167 123.889 98.4174 124.01C98.4181 124.131 98.4566 124.249 98.5275 124.346C98.5985 124.444 98.6983 124.518 98.813 124.556H98.8129ZM101.658 126.198C101.951 126.347 102.275 126.425 102.603 126.425C102.932 126.424 103.256 126.346 103.549 126.197C103.662 126.157 103.761 126.083 103.831 125.985C103.9 125.886 103.937 125.768 103.936 125.648C103.936 125.527 103.897 125.41 103.827 125.312C103.756 125.215 103.657 125.141 103.542 125.103C103.25 124.954 102.926 124.876 102.597 124.876C102.268 124.875 101.944 124.953 101.651 125.102C101.537 125.141 101.438 125.216 101.368 125.315C101.299 125.413 101.261 125.531 101.262 125.652C101.263 125.773 101.301 125.891 101.372 125.989C101.443 126.087 101.543 126.16 101.658 126.198" fill="#0078D4"/>
<path d="M114.663 127.429L105.71 132.632C105.563 132.707 105.402 132.745 105.238 132.745C105.073 132.745 104.912 132.707 104.765 132.632L102.868 131.537L100.042 133.179C99.8178 133.294 99.5595 133.324 99.315 133.263C99.2387 133.246 99.1653 133.218 99.0976 133.179C99.0433 133.155 98.9964 133.117 98.9617 133.069C98.9271 133.021 98.9058 132.965 98.9003 132.906L98.8775 129.233L90.5399 124.419C90.4852 124.395 90.438 124.356 90.4032 124.308C90.3684 124.259 90.3472 124.202 90.3419 124.142L90.338 125.504C90.3433 125.564 90.3645 125.621 90.3993 125.67C90.4342 125.719 90.4814 125.757 90.5361 125.782L98.8737 130.595L98.8965 134.268C98.902 134.327 98.9232 134.384 98.9579 134.432C98.9926 134.48 99.0395 134.518 99.0937 134.542C99.1615 134.581 99.2349 134.609 99.3112 134.625C99.5557 134.686 99.814 134.657 100.038 134.542L102.864 132.899L104.762 133.995C104.908 134.069 105.07 134.108 105.234 134.108C105.398 134.108 105.56 134.069 105.706 133.995L114.659 128.791C114.713 128.767 114.759 128.729 114.793 128.682C114.827 128.634 114.848 128.578 114.853 128.52L114.857 127.157C114.852 127.216 114.831 127.272 114.797 127.319C114.763 127.367 114.717 127.405 114.663 127.429Z" fill="#1F56A3"/>
</g>
<defs>
<linearGradient id="paint0_linear" x1="79.6785" y1="8.27832" x2="79.6785" y2="179.693" gradientUnits="userSpaceOnUse">
<stop stop-color="#00ABDE"/>
<stop offset="1" stop-color="#007ED8"/>
</linearGradient>
<clipPath id="clip0">
<rect width="159.356" height="188" fill="white"/>
</clipPath>
</defs>
</svg>
