<svg width="100" height="100" viewBox="0 0 100 100" fill="none" xmlns="http://www.w3.org/2000/svg">
<g clip-path="url(#clip0)">
<path d="M49.6401 96.4481C40.382 96.4481 31.3317 93.7028 23.6339 88.5592C15.936 83.4157 9.93624 76.105 6.3933 67.5516C2.85036 58.9981 1.92337 49.5862 3.72954 40.506C5.53571 31.4257 9.99394 23.085 16.5404 16.5385C23.0869 9.99198 31.4277 5.53376 40.5079 3.72759C49.5882 1.92141 59.0001 2.84841 67.5535 6.39135C76.1069 9.93428 83.4176 15.934 88.5612 23.6319C93.7047 31.3298 96.4501 40.38 96.4501 49.6381C96.4505 55.7854 95.24 61.8726 92.8878 67.5521C90.5355 73.2315 87.0875 78.392 82.7407 82.7388C78.3939 87.0856 73.2335 90.5335 67.554 92.8858C61.8746 95.2381 55.7874 96.4486 49.6401 96.4481V96.4481Z" fill="url(#paint0_linear)"/>
<path fill-rule="evenodd" clip-rule="evenodd" d="M95.54 49.64C95.54 58.7182 92.848 67.5925 87.8045 75.1407C82.7609 82.6889 75.5923 88.572 67.2052 92.0461C58.818 95.5201 49.5891 96.4291 40.6854 94.658C31.7816 92.887 23.603 88.5154 17.1838 82.0962C10.7646 75.677 6.39302 67.4984 4.62196 58.5946C2.85089 49.6909 3.75987 40.462 7.23393 32.0748C10.708 23.6877 16.5911 16.5191 24.1393 11.4755C31.6875 6.43199 40.5618 3.74 49.64 3.74C55.6677 3.73998 61.6363 4.9272 67.2052 7.23388C72.774 9.54057 77.834 12.9215 82.0963 17.1837C86.3585 21.446 89.7394 26.5059 92.0461 32.0748C94.3528 37.6437 95.54 43.6123 95.54 49.64V49.64ZM49.64 3.62732e-07C59.4579 3.62732e-07 69.0553 2.91134 77.2185 8.36585C85.3818 13.8204 91.7442 21.5731 95.5014 30.6436C99.2585 39.7141 100.242 49.6951 98.3262 59.3243C96.4108 68.9535 91.6831 77.7985 84.7408 84.7408C77.7985 91.6831 68.9535 96.4108 59.3243 98.3262C49.6951 100.242 39.7141 99.2585 30.6436 95.5014C21.5731 91.7442 13.8204 85.3818 8.36585 77.2185C2.91134 69.0553 3.62732e-07 59.4579 3.62732e-07 49.64C-0.000787738 43.121 1.28265 36.6656 3.77702 30.6427C6.27138 24.6197 9.9278 19.1471 14.5375 14.5375C19.1471 9.9278 24.6197 6.27138 30.6427 3.77702C36.6656 1.28265 43.121 -0.000787738 49.64 3.62732e-07V3.62732e-07Z" fill="#F2F1F0"/>
<path fill-rule="evenodd" clip-rule="evenodd" d="M92.7296 49.6386C92.7296 58.161 90.2024 66.492 85.4676 73.5781C80.7328 80.6643 74.0031 86.1872 66.1294 89.4486C58.2557 92.71 49.5918 93.5633 41.2331 91.9007C32.8745 90.238 25.1966 86.1341 19.1703 80.1079C13.1441 74.0816 9.04017 66.4037 7.37753 58.0451C5.7149 49.6864 6.56822 41.0225 9.8296 33.1488C13.091 25.2751 18.6139 18.5454 25.7 13.8106C32.7862 9.07581 41.1172 6.54862 49.6396 6.54862C55.2983 6.54828 60.9017 7.6626 66.1298 9.82795C71.3579 11.9933 76.1082 15.1673 80.1096 19.1686C84.1109 23.17 87.2849 27.9203 89.4502 33.1484C91.6156 38.3765 92.7299 43.9799 92.7296 49.6386V49.6386ZM49.6396 2.80862C58.9017 2.80862 67.9558 5.55515 75.6569 10.7009C83.3581 15.8466 89.3604 23.1605 92.9049 31.7176C96.4493 40.2746 97.3767 49.6906 95.5697 58.7747C93.7628 67.8588 89.3027 76.2031 82.7534 82.7524C76.2041 89.3017 67.8598 93.7619 58.7757 95.5688C49.6915 97.3757 40.2756 96.4484 31.7185 92.9039C23.1614 89.3594 15.8476 83.3571 10.7018 75.656C5.5561 67.9548 2.80957 58.9007 2.80957 49.6386C2.81076 37.2189 7.745 25.3082 16.5271 16.5261C25.3091 7.74403 37.2198 2.80979 49.6396 2.80859V2.80862Z" fill="#0078D4"/>
<path fill-rule="evenodd" clip-rule="evenodd" d="M92.7296 49.6386C92.7296 58.161 90.2024 66.492 85.4676 73.5781C80.7328 80.6642 74.0031 86.1872 66.1294 89.4486C58.2557 92.7099 49.5918 93.5633 41.2331 91.9006C32.8745 90.238 25.1966 86.1341 19.1703 80.1078C13.1441 74.0816 9.04017 66.4037 7.37753 58.045C5.7149 49.6864 6.56822 41.0224 9.8296 33.1488C13.091 25.2751 18.6139 18.5454 25.7001 13.8106C32.7862 9.07578 41.1172 6.54859 49.6396 6.54859C55.2983 6.54825 60.9017 7.66257 66.1298 9.82792C71.3579 11.9933 76.1082 15.1673 80.1096 19.1686C84.1109 23.1699 87.2849 27.9203 89.4502 33.1484C91.6156 38.3764 92.7299 43.9798 92.7296 49.6386V49.6386ZM49.6396 2.80859C58.9017 2.80859 67.9558 5.55513 75.6569 10.7009C83.3581 15.8466 89.3604 23.1605 92.9048 31.7175C96.4493 40.2746 97.3767 49.6905 95.5697 58.7747C93.7628 67.8588 89.3027 76.2031 82.7534 82.7524C76.2041 89.3017 67.8598 93.7618 58.7757 95.5688C49.6915 97.3757 40.2756 96.4483 31.7185 92.9039C23.1614 89.3594 15.8476 83.3571 10.7018 75.656C5.5561 67.9548 2.80957 58.9007 2.80957 49.6386C2.81076 37.2189 7.74501 25.3082 16.5271 16.5261C25.3091 7.74403 37.2198 2.80979 49.6396 2.80859V2.80859Z" fill="#0078D4"/>
<path fill-rule="evenodd" clip-rule="evenodd" d="M28.8316 69.7053C28.0439 69.703 27.2891 69.389 26.7321 68.8321C26.1751 68.2751 25.8612 67.5203 25.8589 66.7326V32.5469C25.8612 31.7592 26.1751 31.0044 26.7321 30.4474C27.2891 29.8905 28.0439 29.5765 28.8316 29.5742H70.4489C71.2366 29.5765 71.9914 29.8904 72.5484 30.4474C73.1054 31.0044 73.4193 31.7592 73.4216 32.5469V66.7326C73.4193 67.5203 73.1054 68.2751 72.5484 68.8321C71.9914 69.389 71.2366 69.703 70.4489 69.7053H28.8316Z" fill="#1F56A3"/>
<path fill-rule="evenodd" clip-rule="evenodd" d="M29.5747 67.4747C29.1809 67.4736 28.8035 67.3166 28.525 67.0381C28.2465 66.7596 28.0895 66.3823 28.0884 65.9884V37.748C28.0895 37.3542 28.2465 36.9768 28.525 36.6983C28.8035 36.4198 29.1809 36.2629 29.5747 36.2617H69.7058C70.0996 36.2629 70.477 36.4198 70.7555 36.6983C71.034 36.9768 71.191 37.3542 71.1921 37.748V65.9884C71.191 66.3823 71.034 66.7596 70.7555 67.0381C70.477 67.3166 70.0996 67.4736 69.7058 67.4747H29.5747Z" fill="#0078D4"/>
<path fill-rule="evenodd" clip-rule="evenodd" d="M28.8315 32.9194C28.8315 32.699 28.8969 32.4834 29.0194 32.3001C29.1419 32.1168 29.316 31.9739 29.5197 31.8895C29.7234 31.8052 29.9475 31.7831 30.1638 31.8261C30.38 31.8691 30.5786 31.9753 30.7345 32.1312C30.8904 32.2871 30.9966 32.4857 31.0396 32.702C31.0826 32.9182 31.0606 33.1423 30.9762 33.346C30.8918 33.5497 30.7489 33.7238 30.5656 33.8463C30.3823 33.9688 30.1668 34.0342 29.9463 34.0342C29.7999 34.0342 29.6549 34.0054 29.5197 33.9494C29.3844 33.8933 29.2615 33.8112 29.158 33.7077C29.0545 33.6042 28.9724 33.4813 28.9164 33.346C28.8604 33.2108 28.8315 33.0658 28.8315 32.9194Z" fill="#003067"/>
<path fill-rule="evenodd" clip-rule="evenodd" d="M33.2905 32.9194C33.2905 32.699 33.3559 32.4834 33.4784 32.3001C33.6009 32.1168 33.775 31.9739 33.9787 31.8895C34.1824 31.8052 34.4065 31.7831 34.6228 31.8261C34.839 31.8691 35.0376 31.9753 35.1935 32.1312C35.3494 32.2871 35.4556 32.4857 35.4986 32.702C35.5416 32.9182 35.5195 33.1423 35.4352 33.346C35.3508 33.5497 35.2079 33.7238 35.0246 33.8463C34.8413 33.9688 34.6258 34.0342 34.4053 34.0342C34.2589 34.0342 34.1139 34.0054 33.9787 33.9494C33.8434 33.8933 33.7205 33.8112 33.617 33.7077C33.5135 33.6042 33.4314 33.4813 33.3754 33.346C33.3193 33.2108 33.2905 33.0658 33.2905 32.9194Z" fill="#50E6FF"/>
<path fill-rule="evenodd" clip-rule="evenodd" d="M37.7495 32.9195C37.7495 32.699 37.8149 32.4835 37.9374 32.3001C38.0599 32.1168 38.234 31.9739 38.4377 31.8895C38.6414 31.8052 38.8655 31.7831 39.0817 31.8261C39.298 31.8691 39.4966 31.9753 39.6525 32.1312C39.8084 32.2871 39.9146 32.4857 39.9576 32.702C40.0006 32.9182 39.9786 33.1424 39.8942 33.3461C39.8098 33.5498 39.6669 33.7238 39.4836 33.8463C39.3003 33.9688 39.0847 34.0342 38.8643 34.0342C38.7179 34.0342 38.5729 34.0054 38.4377 33.9494C38.3024 33.8933 38.1795 33.8112 38.076 33.7077C37.9725 33.6042 37.8904 33.4813 37.8344 33.3461C37.7783 33.2108 37.7495 33.0659 37.7495 32.9195V32.9195Z" fill="#C3F1FF"/>
<path fill-rule="evenodd" clip-rule="evenodd" d="M70.0778 34.0342H44.8101C44.5144 34.0342 44.2309 33.9167 44.0218 33.7077C43.8128 33.4986 43.6953 33.2151 43.6953 32.9194C43.6953 32.6238 43.8128 32.3402 44.0218 32.1312C44.2309 31.9221 44.5144 31.8047 44.8101 31.8047H70.0778C70.3734 31.8047 70.657 31.9221 70.866 32.1312C71.0751 32.3402 71.1925 32.6238 71.1925 32.9194C71.1925 33.2151 71.0751 33.4986 70.866 33.7077C70.657 33.9167 70.3734 34.0342 70.0778 34.0342Z" fill="#003067"/>
<path fill-rule="evenodd" clip-rule="evenodd" d="M48.974 39.2993C46.8007 41.2329 43.4796 41.9925 39.7034 42.0975C39.449 42.1051 39.2075 42.2116 39.0304 42.3944C38.8532 42.5771 38.7542 42.8217 38.7544 43.0762V49.0758C38.7544 56.1885 41.8741 60.7902 49.4114 64.6375C49.4823 64.6731 49.5607 64.6917 49.6401 64.6917C49.7195 64.6917 49.7978 64.6731 49.8687 64.6375C57.406 60.7902 60.5257 56.1885 60.5257 49.0758V43.0762C60.5259 42.8217 60.427 42.5771 60.2498 42.3944C60.0726 42.2116 59.8312 42.1051 59.5767 42.0975C55.8005 41.9925 52.4794 41.2329 50.3061 39.2993C50.1235 39.1343 49.8862 39.043 49.6401 39.043C49.394 39.043 49.1566 39.1343 48.974 39.2993Z" fill="#1B93EB"/>
<path d="M53.1308 49.4883H46.1482C46.0216 49.4883 45.8962 49.5132 45.7793 49.5617C45.6623 49.6101 45.556 49.6811 45.4665 49.7707C45.3769 49.8602 45.3059 49.9665 45.2575 50.0835C45.209 50.2004 45.1841 50.3258 45.1841 50.4524V55.8527C45.1841 55.9794 45.209 56.1047 45.2575 56.2217C45.3059 56.3387 45.3769 56.445 45.4665 56.5345C45.556 56.624 45.6623 56.695 45.7793 56.7435C45.8962 56.7919 46.0216 56.8169 46.1482 56.8169H53.1308C53.3865 56.8169 53.6318 56.7153 53.8126 56.5345C53.9934 56.3537 54.095 56.1084 54.095 55.8527V50.4524C54.095 50.1967 53.9934 49.9515 53.8126 49.7707C53.6318 49.5899 53.3865 49.4883 53.1308 49.4883V49.4883ZM50.1223 53.7984V54.7162C50.1226 54.7797 50.1103 54.8426 50.0862 54.9013C50.0621 54.9601 50.0267 55.0135 49.9819 55.0585C49.9371 55.1035 49.8839 55.1392 49.8252 55.1636C49.7666 55.1879 49.7037 55.2005 49.6402 55.2005C49.5767 55.2005 49.5139 55.1879 49.4552 55.1636C49.3966 55.1392 49.3434 55.1035 49.2986 55.0585C49.2538 55.0135 49.2183 54.9601 49.1942 54.9013C49.1701 54.8426 49.1579 54.7797 49.1582 54.7162V53.7987C48.8826 53.687 48.6544 53.4829 48.5127 53.2214C48.371 52.96 48.3247 52.6574 48.3815 52.3655C48.4384 52.0736 48.595 51.8105 48.8245 51.6214C49.054 51.4322 49.3421 51.3288 49.6395 51.3287C49.9369 51.3286 50.2251 51.4319 50.4547 51.6209C50.6843 51.8099 50.841 52.0729 50.8981 52.3647C50.9551 52.6566 50.9089 52.9592 50.7674 53.2208C50.6259 53.4823 50.3978 53.6865 50.1223 53.7984V53.7984Z" fill="#0078D4"/>
<path d="M52.1112 48.4814H51.1471V47.6287C51.1461 47.2296 50.9868 46.8472 50.7043 46.5654C50.4217 46.2835 50.0389 46.1253 49.6398 46.1253C49.2407 46.1253 48.8579 46.2835 48.5754 46.5654C48.2928 46.8472 48.1336 47.2296 48.1325 47.6287V50.4132H47.1685V47.6287C47.1678 47.3037 47.2312 46.9818 47.3552 46.6814C47.4791 46.381 47.661 46.108 47.8905 45.8779C48.1201 45.6479 48.3928 45.4655 48.6929 45.3409C48.9931 45.2164 49.3149 45.1523 49.6398 45.1523C49.9648 45.1523 50.2865 45.2164 50.5867 45.3409C50.8869 45.4655 51.1595 45.6479 51.3891 45.8779C51.6186 46.108 51.8006 46.381 51.9245 46.6814C52.0484 46.9818 52.1118 47.3037 52.1112 47.6287V48.4814Z" fill="#0078D4"/>
<path opacity="0.2" fill-rule="evenodd" clip-rule="evenodd" d="M57.8892 69.7043H73.4218V48.7188C71.7427 49.053 70.1478 49.721 68.7317 50.683C67.3156 51.6451 66.107 52.8817 65.1777 54.3195C64.2483 55.7574 63.6171 57.3671 63.3214 59.0534C63.0258 60.7397 63.0717 62.4682 63.4564 64.1365L57.8892 69.7043Z" fill="#003067"/>
<path d="M55.9193 80.8572L70.6529 66.451C70.7801 66.326 70.8526 66.1556 70.8543 65.9773C70.8561 65.7989 70.7871 65.6271 70.6624 65.4996C70.5377 65.372 70.3675 65.2992 70.1891 65.2969C70.0108 65.2947 69.8388 65.3633 69.7109 65.4877L55.6978 79.1894V80.1166C55.6973 80.3799 55.7744 80.6374 55.9193 80.8572Z" fill="#50E6FF"/>
<path d="M75.9082 50.4727C74.195 50.4739 72.5068 50.8832 70.9833 51.6666C69.4597 52.45 68.1447 53.5851 67.147 54.9778C66.1494 56.3705 65.4978 57.9808 65.2462 59.6753C64.9946 61.3699 65.1503 63.1001 65.7003 64.7225L56.0924 74.3305C55.9673 74.4556 55.868 74.6042 55.8003 74.7676C55.7326 74.9311 55.6977 75.1063 55.6978 75.2832V79.1874L69.7109 65.4857C69.8388 65.3616 70.0107 65.2933 70.1889 65.2956C70.3671 65.298 70.5371 65.3708 70.6617 65.4982C70.7862 65.6256 70.8553 65.7972 70.8536 65.9754C70.852 66.1536 70.7798 66.3239 70.6529 66.449L55.9193 80.8552C56.0419 81.0417 56.209 81.1948 56.4055 81.3008C56.602 81.4067 56.8218 81.4621 57.045 81.462H61.8765C62.2338 81.462 62.5765 81.32 62.8292 81.0673C62.9177 80.9789 62.9879 80.8738 63.0358 80.7583C63.0836 80.6427 63.1083 80.5188 63.1083 80.3937V79.441C63.1083 79.1756 63.1605 78.9128 63.2621 78.6676C63.3637 78.4224 63.5125 78.1996 63.7002 78.0119C63.8879 77.8242 64.1107 77.6753 64.3559 77.5738C64.6011 77.4722 64.8639 77.4199 65.1293 77.4199L66.0004 77.4199C66.3054 77.4198 66.5978 77.2987 66.8135 77.083C67.0291 76.8673 67.1503 76.5748 67.1503 76.2699V75.3989C67.1503 75.1335 67.2026 74.8706 67.3041 74.6254C67.4057 74.3802 67.5546 74.1574 67.7423 73.9697C67.9299 73.7821 68.1527 73.6332 68.398 73.5316C68.6432 73.4301 68.906 73.3778 69.1714 73.3778H69.6816C70.2176 73.3778 70.7317 73.1649 71.1107 72.7859L71.5481 72.3485C71.8243 72.0884 72.1611 71.9014 72.5279 71.8044C72.8947 71.7075 73.2799 71.7036 73.6486 71.7933C75.1264 72.1099 76.6543 72.1123 78.1332 71.8002C79.612 71.4881 81.0086 70.8685 82.2325 69.9817C83.4564 69.0949 84.4801 67.9606 85.2372 66.6525C85.9942 65.3444 86.4678 63.8917 86.6271 62.3887C86.7864 60.8858 86.6278 59.3661 86.1618 57.9283C85.6957 56.4906 84.9325 55.167 83.9217 54.0433C82.911 52.9196 81.6752 52.021 80.2946 51.4059C78.9141 50.7908 77.4196 50.4728 75.9082 50.4727L75.9082 50.4727ZM79.2766 61.9252C78.6104 61.9252 77.9592 61.7277 77.4052 61.3576C76.8513 60.9874 76.4195 60.4614 76.1646 59.8459C75.9096 59.2304 75.8429 58.5531 75.9729 57.8997C76.1029 57.2463 76.4237 56.6461 76.8948 56.175C77.3659 55.7039 77.9661 55.3831 78.6195 55.2531C79.2729 55.1232 79.9501 55.1899 80.5656 55.4448C81.1811 55.6998 81.7072 56.1315 82.0773 56.6854C82.4475 57.2394 82.645 57.8906 82.645 58.5568C82.645 59.4502 82.2901 60.3069 81.6584 60.9386C81.0267 61.5703 80.17 61.9252 79.2766 61.9252V61.9252Z" fill="url(#paint1_linear)"/>
</g>
<defs>
<linearGradient id="paint0_linear" x1="47.8698" y1="-15.155" x2="51.8525" y2="130.613" gradientUnits="userSpaceOnUse">
<stop stop-color="#00ABDE"/>
<stop offset="1" stop-color="#007ED8"/>
</linearGradient>
<linearGradient id="paint1_linear" x1="71.1924" y1="81.462" x2="71.1924" y2="50.4727" gradientUnits="userSpaceOnUse">
<stop stop-color="#32BEDD"/>
<stop offset="0.18" stop-color="#32CAEA"/>
<stop offset="0.41" stop-color="#32D2F2"/>
<stop offset="0.78" stop-color="#32D4F5"/>
</linearGradient>
<clipPath id="clip0">
<rect width="99.2799" height="99.28" fill="white"/>
</clipPath>
</defs>
</svg>
