<svg width="100" height="100" viewBox="0 0 100 100" fill="none" xmlns="http://www.w3.org/2000/svg">
<g clip-path="url(#clip0_970_770)">
<path d="M49.6401 96.45C40.382 96.45 31.3317 93.7047 23.6339 88.5611C15.936 83.4176 9.93624 76.1068 6.3933 67.5534C2.85036 59 1.92337 49.5881 3.72954 40.5078C5.53571 31.4276 9.99394 23.0868 16.5404 16.5403C23.0869 9.99384 31.4277 5.53562 40.5079 3.72945C49.5882 1.92327 59.0001 2.85027 67.5535 6.39321C76.1069 9.93614 83.4176 15.9359 88.5612 23.6338C93.7047 31.3316 96.4501 40.3819 96.4501 49.64C96.4505 55.7873 95.24 61.8745 92.8878 67.5539C90.5355 73.2334 87.0875 78.3938 82.7407 82.7406C78.3939 87.0874 73.2335 90.5354 67.554 92.8877C61.8746 95.2399 55.7874 96.4504 49.6401 96.45V96.45Z" fill="url(#paint0_linear_970_770)"/>
<path fill-rule="evenodd" clip-rule="evenodd" d="M95.54 49.64C95.54 58.7182 92.848 67.5925 87.8045 75.1407C82.7609 82.6889 75.5923 88.572 67.2052 92.0461C58.818 95.5201 49.5891 96.4291 40.6854 94.658C31.7816 92.887 23.603 88.5154 17.1838 82.0962C10.7646 75.677 6.39302 67.4984 4.62196 58.5946C2.85089 49.6909 3.75987 40.462 7.23393 32.0748C10.708 23.6877 16.5911 16.5191 24.1393 11.4755C31.6875 6.43199 40.5618 3.74 49.64 3.74C55.6677 3.73998 61.6363 4.9272 67.2052 7.23388C72.774 9.54057 77.834 12.9215 82.0963 17.1837C86.3585 21.446 89.7394 26.5059 92.0461 32.0748C94.3528 37.6437 95.54 43.6123 95.54 49.64V49.64ZM49.64 3.62732e-07C59.4579 3.62732e-07 69.0553 2.91134 77.2185 8.36585C85.3818 13.8204 91.7442 21.5731 95.5014 30.6436C99.2585 39.7141 100.242 49.6951 98.3262 59.3243C96.4108 68.9535 91.6831 77.7985 84.7408 84.7408C77.7985 91.6831 68.9535 96.4108 59.3243 98.3262C49.6951 100.242 39.7141 99.2585 30.6436 95.5014C21.5731 91.7442 13.8204 85.3818 8.36585 77.2185C2.91134 69.0553 3.62732e-07 59.4579 3.62732e-07 49.64C-0.000787738 43.121 1.28265 36.6656 3.77702 30.6427C6.27138 24.6197 9.9278 19.1471 14.5375 14.5375C19.1471 9.9278 24.6197 6.27138 30.6427 3.77702C36.6656 1.28265 43.121 -0.000787738 49.64 3.62732e-07V3.62732e-07Z" fill="#F2F1F0"/>
<path fill-rule="evenodd" clip-rule="evenodd" d="M92.7296 49.6401C92.7296 58.1625 90.2024 66.4935 85.4676 73.5796C80.7328 80.6657 74.0031 86.1887 66.1294 89.4501C58.2557 92.7114 49.5918 93.5648 41.2331 91.9021C32.8745 90.2395 25.1966 86.1356 19.1703 80.1093C13.1441 74.0831 9.04017 66.4052 7.37753 58.0465C5.7149 49.6879 6.56822 41.0239 9.8296 33.1503C13.091 25.2766 18.6139 18.5469 25.7 13.8121C32.7862 9.07727 41.1172 6.55009 49.6396 6.55009C55.2983 6.54974 60.9017 7.66407 66.1298 9.82942C71.3579 11.9948 76.1082 15.1687 80.1096 19.1701C84.1109 23.1714 87.2849 27.9218 89.4502 33.1499C91.6156 38.3779 92.7299 43.9813 92.7296 49.6401V49.6401ZM49.6396 2.81009C58.9017 2.81009 67.9558 5.55662 75.6569 10.7024C83.3581 15.8481 89.3604 23.162 92.9049 31.719C96.4493 40.2761 97.3767 49.692 95.5697 58.7762C93.7628 67.8603 89.3027 76.2046 82.7534 82.7539C76.2041 89.3032 67.8598 93.7633 58.7757 95.5703C49.6915 97.3772 40.2756 96.4498 31.7185 92.9054C23.1614 89.3609 15.8476 83.3586 10.7018 75.6574C5.5561 67.9563 2.80957 58.9022 2.80957 49.6401C2.81076 37.2204 7.745 25.3097 16.5271 16.5276C25.3091 7.7455 37.2198 2.81125 49.6396 2.81006V2.81009Z" fill="#0078D4"/>
<path fill-rule="evenodd" clip-rule="evenodd" d="M92.7637 49.6401C92.7637 58.1625 90.2366 66.4935 85.5018 73.5796C80.767 80.6657 74.0372 86.1887 66.1636 89.4501C58.2899 92.7114 49.6259 93.5648 41.2673 91.9021C32.9087 90.2395 25.2308 86.1356 19.2045 80.1093C13.1783 74.0831 9.07435 66.4052 7.41171 58.0465C5.74908 49.6879 6.6024 41.0239 9.86378 33.1503C13.1252 25.2766 18.6481 18.5469 25.7342 13.8121C32.8203 9.07727 41.1514 6.55009 49.6738 6.55009C55.3325 6.54974 60.9359 7.66407 66.164 9.82942C71.3921 11.9948 76.1424 15.1687 80.1437 19.1701C84.1451 23.1714 87.3191 27.9218 89.4844 33.1499C91.6498 38.3779 92.7641 43.9813 92.7637 49.6401V49.6401ZM49.6738 2.81009C58.9359 2.81009 67.9899 5.55662 75.6911 10.7024C83.3923 15.8481 89.3946 23.162 92.939 31.719C96.4835 40.2761 97.4109 49.692 95.6039 58.7762C93.797 67.8603 89.3369 76.2046 82.7876 82.7539C76.2383 89.3032 67.894 93.7633 58.8098 95.5703C49.7257 97.3772 40.3097 96.4498 31.7527 92.9054C23.1956 89.3609 15.8818 83.3586 10.736 75.6574C5.59028 67.9563 2.84375 58.9022 2.84375 49.6401C2.84494 37.2204 7.77918 25.3097 16.5612 16.5276C25.3433 7.7455 37.254 2.81125 49.6738 2.81006V2.81009Z" fill="#0078D4"/>
<path d="M25.9841 76.9612H73.3634C73.6123 76.9605 73.8509 76.8613 74.0269 76.6852C74.2029 76.5092 74.3021 76.2707 74.3029 76.0218V39.0312H25.0447V76.0218C25.0454 76.2707 25.1446 76.5092 25.3206 76.6852C25.4967 76.8613 25.7352 76.9605 25.9841 76.9612V76.9612Z" fill="#003067"/>
<path d="M25.0447 43.1255H74.3029V38.7101C74.3031 38.6155 74.2847 38.5217 74.2486 38.4342C74.2125 38.3467 74.1594 38.2672 74.0925 38.2003C74.0255 38.1333 73.946 38.0803 73.8586 38.0442C73.7711 38.0081 73.6773 37.9896 73.5826 37.9899H25.7649C25.6703 37.9896 25.5765 38.0081 25.489 38.0442C25.4015 38.0803 25.322 38.1333 25.2551 38.2003C25.1881 38.2672 25.1351 38.3467 25.099 38.4342C25.0629 38.5217 25.0444 38.6155 25.0447 38.7101V43.1255Z" fill="#1F56A3"/>
<path d="M28.8339 41.9119C29.0809 41.9111 29.3221 41.8372 29.527 41.6993C29.7319 41.5615 29.8913 41.3659 29.9851 41.1375C30.0789 40.909 30.1029 40.6579 30.0539 40.4158C30.005 40.1737 29.8854 39.9516 29.7102 39.7775C29.535 39.6034 29.3121 39.4852 29.0698 39.4378C28.8274 39.3904 28.5764 39.4159 28.3486 39.5111C28.1207 39.6063 27.9262 39.767 27.7896 39.9728C27.653 40.1785 27.5806 40.4202 27.5813 40.6672C27.58 40.8317 27.6115 40.9948 27.6741 41.1469C27.7367 41.299 27.829 41.4372 27.9457 41.5531C28.0624 41.6691 28.2011 41.7605 28.3536 41.8222C28.5061 41.8838 28.6694 41.9143 28.8339 41.9119V41.9119Z" fill="#50E6FF"/>
<path d="M53.9648 65.802L54.0373 65.8661C54.17 65.9988 54.2497 66.1753 54.2615 66.3626C54.2733 66.5498 54.2163 66.7349 54.1013 66.8832L54.0372 66.9558L50.1864 70.8058C50.0538 70.9384 49.8774 71.018 49.6902 71.0299C49.5031 71.0417 49.318 70.9849 49.1697 70.8701L49.0972 70.8061L45.2419 66.9561C45.1033 66.8176 45.0226 66.6315 45.0163 66.4356C45.01 66.2397 45.0786 66.0488 45.2081 65.9017C45.3376 65.7546 45.5182 65.6624 45.7133 65.6438C45.9084 65.6252 46.1033 65.6816 46.2582 65.8016L46.3308 65.8656L48.8694 68.3996L48.8693 58.7056C48.8693 58.5168 48.9386 58.3346 49.0641 58.1935C49.1896 58.0524 49.3625 57.9623 49.55 57.9403L49.6398 57.9351C49.8286 57.9351 50.0109 58.0044 50.152 58.1299C50.293 58.2554 50.3832 58.4283 50.4052 58.6158L50.4104 58.7056L50.4104 68.4019L52.9477 65.866C53.0804 65.7334 53.2569 65.6537 53.4441 65.6419C53.6314 65.6301 53.8165 65.687 53.9648 65.802L54.0373 65.8661L53.9648 65.802Z" fill="#0078D4"/>
<path d="M41.5048 61.7685L41.5773 61.8326C41.71 61.9653 41.7897 62.1418 41.8015 62.3291C41.8132 62.5163 41.7563 62.7015 41.6413 62.8497L41.5772 62.9223L37.7264 66.7723C37.5938 66.9049 37.4174 66.9845 37.2302 66.9964C37.0431 67.0082 36.858 66.9514 36.7097 66.8366L36.6372 66.7727L32.7819 62.9226C32.6433 62.7842 32.5626 62.598 32.5563 62.4022C32.55 62.2063 32.6186 62.0154 32.7481 61.8683C32.8776 61.7212 33.0583 61.629 33.2534 61.6104C33.4484 61.5918 33.6433 61.6482 33.7982 61.7682L33.8708 61.8322L36.4094 64.3661L36.4093 54.6722C36.4093 54.4834 36.4786 54.3011 36.6041 54.1601C36.7296 54.019 36.9025 53.9289 37.09 53.9068L37.1798 53.9016C37.3686 53.9017 37.5509 53.971 37.6919 54.0964C37.833 54.2219 37.9231 54.3948 37.9452 54.5823L37.9504 54.6722L37.9504 64.3684L40.4877 61.8324C40.6204 61.6998 40.7969 61.6201 40.9841 61.6083C41.1714 61.5966 41.3565 61.6535 41.5048 61.7685L41.5774 61.8326L41.5048 61.7685Z" fill="#0078D4"/>
<path d="M66.4249 61.7685L66.4975 61.8326C66.6302 61.9653 66.7099 62.1418 66.7216 62.3291C66.7334 62.5163 66.6765 62.7015 66.5615 62.8497L66.4974 62.9223L62.6466 66.7723C62.514 66.9049 62.3376 66.9845 62.1504 66.9964C61.9633 67.0082 61.7782 66.9514 61.6299 66.8366L61.5573 66.7727L57.7021 62.9226C57.5634 62.7842 57.4828 62.598 57.4765 62.4022C57.4702 62.2063 57.5388 62.0154 57.6683 61.8683C57.7978 61.7212 57.9784 61.629 58.1735 61.6104C58.3686 61.5918 58.5635 61.6482 58.7184 61.7682L58.791 61.8322L61.3296 64.3661L61.3295 54.6722C61.3295 54.4834 61.3988 54.3011 61.5243 54.1601C61.6497 54.019 61.8226 53.9289 62.0102 53.9068L62.1 53.9016C62.2888 53.9017 62.471 53.971 62.6121 54.0964C62.7532 54.2219 62.8433 54.3948 62.8654 54.5823L62.8705 54.6722L62.8706 64.3684L65.4078 61.8324C65.5405 61.6998 65.7171 61.6201 65.9043 61.6083C66.0916 61.5966 66.2767 61.6535 66.4249 61.7685L66.4975 61.8326L66.4249 61.7685Z" fill="#0078D4"/>
<path opacity="0.2" d="M28.8716 37.9899V51.8214C28.8726 52.8072 29.2646 53.7523 29.9616 54.4494C30.6586 55.1466 31.6036 55.5388 32.5894 55.5401H66.689C67.6749 55.539 68.6201 55.1469 69.3173 54.4497C70.0144 53.7525 70.4066 52.8073 70.4077 51.8214V37.9899H28.8716Z" fill="#001834"/>
<path d="M32.5897 24.047H66.6893C67.1451 24.047 67.5822 24.228 67.9045 24.5503C68.2268 24.8726 68.4079 25.3097 68.4079 25.7655V31.8638H30.8711V25.7655C30.8711 25.3097 31.0522 24.8726 31.3745 24.5503C31.6968 24.2281 32.1339 24.047 32.5897 24.047V24.047Z" fill="url(#paint1_linear_970_770)"/>
<path d="M30.8711 31.8638H68.4079V51.8215C68.4079 52.2773 68.2268 52.7145 67.9045 53.0368C67.5822 53.3591 67.1451 53.5401 66.6893 53.5401H32.5897C32.1339 53.5401 31.6968 53.3591 31.3745 53.0368C31.0522 52.7145 30.8711 52.2773 30.8711 51.8215V31.8638Z" fill="url(#paint2_linear_970_770)"/>
<path d="M41.1592 28.6463H39.3523C39.1111 28.6463 38.9155 28.8418 38.9155 29.0831V36.2152C38.9155 36.4565 39.1111 36.652 39.3523 36.652H41.1592C41.4005 36.652 41.596 36.4565 41.596 36.2152V29.0831C41.596 28.8418 41.4005 28.6463 41.1592 28.6463Z" fill="#003067"/>
<path d="M60.0103 28.6463H58.2034C57.9622 28.6463 57.7666 28.8418 57.7666 29.0831V36.2152C57.7666 36.4565 57.9622 36.652 58.2034 36.652H60.0103C60.2515 36.652 60.4471 36.4565 60.4471 36.2152V29.0831C60.4471 28.8418 60.2515 28.6463 60.0103 28.6463Z" fill="#003067"/>
<path d="M41.1592 27.8609H39.3523C39.1111 27.8609 38.9155 28.0565 38.9155 28.2977V35.4299C38.9155 35.6711 39.1111 35.8666 39.3523 35.8666H41.1592C41.4005 35.8666 41.596 35.6711 41.596 35.4299V28.2977C41.596 28.0565 41.4005 27.8609 41.1592 27.8609Z" fill="url(#paint3_linear_970_770)"/>
<path d="M60.0103 27.8609H58.2034C57.9622 27.8609 57.7666 28.0565 57.7666 28.2977V35.4299C57.7666 35.6711 57.9622 35.8666 58.2034 35.8666H60.0103C60.2515 35.8666 60.4471 35.6711 60.4471 35.4299V28.2977C60.4471 28.0565 60.2515 27.8609 60.0103 27.8609Z" fill="url(#paint4_linear_970_770)"/>
<path d="M57.3737 24.047H55.0175V20.117C55.0175 20.068 54.9981 20.0209 54.9634 19.9862C54.9288 19.9515 54.8818 19.9319 54.8327 19.9318H44.53C44.4809 19.9319 44.4339 19.9515 44.3993 19.9862C44.3646 20.0209 44.3452 20.068 44.3451 20.117V24.047H41.989V20.117C41.9897 19.4433 42.2576 18.7973 42.734 18.3209C43.2104 17.8445 43.8563 17.5764 44.53 17.5757H54.8327C55.5064 17.5764 56.1523 17.8445 56.6287 18.3209C57.1051 18.7973 57.373 19.4433 57.3737 20.117L57.3737 24.047Z" fill="url(#paint5_linear_970_770)"/>
<path d="M49.2007 42.2638H42.6602V35.7233H49.2007V42.2638ZM56.6756 42.2638H50.1351V35.7233H56.6756V42.2638ZM49.2007 49.7387H42.6602V43.1982H49.2007V49.7387ZM56.6756 49.7387H50.1351V43.1982H56.6756V49.7387Z" fill="#C3F1FF"/>
</g>
<defs>
<linearGradient id="paint0_linear_970_770" x1="47.8697" y1="-15.1531" x2="51.8525" y2="130.615" gradientUnits="userSpaceOnUse">
<stop stop-color="#00ABDE"/>
<stop offset="1" stop-color="#007ED8"/>
</linearGradient>
<linearGradient id="paint1_linear_970_770" x1="49.6395" y1="31.8638" x2="49.6395" y2="24.0469" gradientUnits="userSpaceOnUse">
<stop stop-color="#32BEDD"/>
<stop offset="0.18" stop-color="#32CAEA"/>
<stop offset="0.41" stop-color="#32D2F2"/>
<stop offset="0.78" stop-color="#32D4F5"/>
</linearGradient>
<linearGradient id="paint2_linear_970_770" x1="49.6395" y1="31.8638" x2="49.6395" y2="53.579" gradientUnits="userSpaceOnUse">
<stop stop-color="#005BA1"/>
<stop offset="0.26" stop-color="#00589D"/>
<stop offset="0.53" stop-color="#004F90"/>
<stop offset="0.8" stop-color="#003F7C"/>
<stop offset="1" stop-color="#003067"/>
</linearGradient>
<linearGradient id="paint3_linear_970_770" x1="40.2558" y1="35.8666" x2="40.2558" y2="27.8609" gradientUnits="userSpaceOnUse">
<stop stop-color="#CCCCCC"/>
<stop offset="0.32" stop-color="#DFDFDF"/>
<stop offset="0.67" stop-color="#ECECEC"/>
<stop offset="1" stop-color="#F0F0F0"/>
</linearGradient>
<linearGradient id="paint4_linear_970_770" x1="59.1069" y1="35.8666" x2="59.1069" y2="27.8609" gradientUnits="userSpaceOnUse">
<stop stop-color="#CCCCCC"/>
<stop offset="0.32" stop-color="#DFDFDF"/>
<stop offset="0.67" stop-color="#ECECEC"/>
<stop offset="1" stop-color="#F0F0F0"/>
</linearGradient>
<linearGradient id="paint5_linear_970_770" x1="49.6813" y1="24.047" x2="49.6813" y2="17.5757" gradientUnits="userSpaceOnUse">
<stop stop-color="#CCCCCC"/>
<stop offset="0.32" stop-color="#DFDFDF"/>
<stop offset="0.67" stop-color="#ECECEC"/>
<stop offset="1" stop-color="#F0F0F0"/>
</linearGradient>
<clipPath id="clip0_970_770">
<rect width="99.2799" height="99.28" fill="white"/>
</clipPath>
</defs>
</svg>
