<svg width="103" height="103" viewBox="0 0 103 103" fill="none" xmlns="http://www.w3.org/2000/svg">
<path d="M51.8186 98.2157C77.671 98.2157 98.6245 77.2622 98.6245 51.4098C98.6245 25.5574 77.671 4.60388 51.8186 4.60388C25.9662 4.60388 5.0127 25.5574 5.0127 51.4098C5.0127 77.2622 25.9662 98.2157 51.8186 98.2157Z" fill="url(#paint0_linear)"/>
<path fill-rule="evenodd" clip-rule="evenodd" d="M51.8184 1.40979C24.205 1.40979 1.81836 23.7965 1.81836 51.4098C1.81836 79.0231 24.205 101.41 51.8184 101.41C79.4317 101.41 101.818 79.0231 101.818 51.4098C101.818 23.7965 79.4317 1.40979 51.8184 1.40979ZM51.8184 97.1666C26.5467 97.1666 6.06152 76.6814 6.06152 51.4098C6.06152 26.1382 26.5467 5.65295 51.8184 5.65295C77.09 5.65295 97.5752 26.1382 97.5752 51.4098C97.5752 76.6814 77.09 97.1666 51.8184 97.1666Z" fill="#D9D9D9"/>
<path fill-rule="evenodd" clip-rule="evenodd" d="M5.92104 51.4098C5.92104 76.7564 26.4718 97.3072 51.8184 97.3072C77.165 97.3072 97.7157 76.7564 97.7157 51.4098C97.7157 26.0632 77.165 5.51247 51.8184 5.51247C26.4718 5.51247 5.92104 26.0632 5.92104 51.4098ZM51.8184 1.76575C24.4017 1.76575 2.17432 23.9932 2.17432 51.4098C2.17432 78.8264 24.4017 101.054 51.8184 101.054C79.235 101.054 101.462 78.8264 101.462 51.4098C101.462 23.9932 79.235 1.76575 51.8184 1.76575Z" fill="#F2F1F0"/>
<path fill-rule="evenodd" clip-rule="evenodd" d="M8.7311 51.4098C8.7311 75.2109 28.0173 94.4971 51.8184 94.4971C75.6194 94.4971 94.9057 75.2109 94.9057 51.4098C94.9057 27.6088 75.6194 8.32253 51.8184 8.32253C28.0173 8.32253 8.7311 27.6088 8.7311 51.4098ZM51.8184 4.57581C25.9566 4.57581 4.98438 25.5481 4.98438 51.4098C4.98438 77.2716 25.9566 98.2438 51.8184 98.2438C77.6801 98.2438 98.6524 77.2716 98.6524 51.4098C98.6524 25.5481 77.6895 4.57581 51.8184 4.57581Z" fill="#0078D4"/>
<path opacity="0.15" d="M21.6012 31.5148H83.8811C85.8668 31.5148 87.4686 33.1259 87.4686 35.1023V71.0333C87.4686 73.0191 85.8575 74.6208 83.8811 74.6208H21.6012C19.6154 74.6208 18.0137 73.0097 18.0137 71.0333V35.1023C18.0043 33.1259 19.6154 31.5148 21.6012 31.5148Z" fill="#1F1D20"/>
<path d="M21.6012 28.7047H83.8811C85.8668 28.7047 87.4686 30.3158 87.4686 32.2922V68.2233C87.4686 70.209 85.8575 71.8107 83.8811 71.8107H21.6012C19.6154 71.8107 18.0137 70.1997 18.0137 68.2233V32.2922C18.0043 30.3158 19.6154 28.7047 21.6012 28.7047Z" fill="url(#paint1_linear)" stroke="#A3A3A3" stroke-width="1.6164"/>
<path d="M77.1365 32.161L64.8379 36.9381V50.7635L69.2684 48.8995V38.0246L77.2302 36.1606V52.4027L64.8379 50.7635L77.1365 55.2221L84.0117 52.9928V34.4746L77.1365 32.161Z" fill="url(#paint2_linear)"/>
<path opacity="0.2" d="M78.6873 53.8732L67.5642 51.6439H64.8379L77.1365 56.1025L84.0117 53.8732L81.8486 52.3909L78.6873 53.8732Z" fill="#1F1D21"/>
<path d="M52.2779 58.004C55.1629 58.004 57.5046 55.681 57.5046 52.8054C57.5046 49.9391 55.1629 47.6068 52.2779 47.6068C49.393 47.6068 47.0513 49.9298 47.0513 52.8054C47.0513 55.6716 49.393 58.004 52.2779 58.004Z" fill="white"/>
<path d="M60.895 66.9213C60.4173 62.6219 56.7268 59.2405 52.2682 59.2405C47.847 59.2405 44.194 62.547 43.6413 66.8089C43.5664 67.0992 43.5664 67.4364 43.5664 67.7268C43.6788 68.9351 44.5218 70.1153 46.1142 71.0333C49.505 72.9816 55.0407 72.9816 58.3941 71.0333C59.977 70.1153 60.792 68.9351 60.9044 67.7268C60.9699 67.4739 60.9325 67.1742 60.895 66.9213Z" fill="white"/>
<path d="M68.6129 65.9752C71.4979 65.9752 73.8396 63.6522 73.8396 60.7766C73.8396 57.9103 71.4979 55.578 68.6129 55.578C65.7279 55.578 63.3862 57.901 63.3862 60.7766C63.3862 63.6428 65.7279 65.9752 68.6129 65.9752Z" fill="white"/>
<path d="M77.23 74.8924C76.7523 70.5931 73.0617 67.2117 68.6031 67.2117C64.182 67.2117 60.5289 70.5182 59.9763 74.78C59.9014 75.0704 59.9014 75.4076 59.9014 75.698C60.0138 76.9063 60.8568 78.0865 62.4491 79.0045C65.8399 80.9528 71.3757 80.9528 74.729 79.0045C76.312 78.0865 77.1269 76.9063 77.2393 75.698C77.3049 75.4451 77.2674 75.1453 77.23 74.8924Z" fill="white"/>
<path d="M35.9513 66.4998C38.8363 66.4998 41.178 64.1768 41.178 61.3012C41.178 58.435 38.8363 56.1027 35.9513 56.1027C33.0663 56.1027 30.7246 58.4256 30.7246 61.3012C30.7246 64.1675 33.0663 66.4998 35.9513 66.4998Z" fill="white"/>
<path d="M44.5683 75.4171C44.0906 71.1177 40.4001 67.7363 35.9415 67.7363C31.5204 67.7363 27.8673 71.0428 27.3147 75.3047C27.2397 75.5951 27.2397 75.9323 27.2397 76.2227C27.3521 77.431 28.1952 78.6112 29.7875 79.5291C33.1783 81.4774 38.7141 81.4774 42.0674 79.5291C43.6504 78.6112 44.4653 77.431 44.5777 76.2227C44.6433 75.9698 44.6058 75.67 44.5683 75.4171Z" fill="white"/>
<path fill-rule="evenodd" clip-rule="evenodd" d="M42.3762 50.4872C42.3762 52.6978 37.7115 54.4775 31.9603 54.4775C26.2091 54.4775 21.5444 52.6884 21.5444 50.4872C21.5444 48.2766 26.2091 46.4969 31.9603 46.4969C37.7209 46.4969 42.3762 48.286 42.3762 50.4872Z" fill="black" fill-opacity="0.1028"/>
<path fill-rule="evenodd" clip-rule="evenodd" d="M31.9696 48.6138C27.9419 48.6138 24.6729 47.3961 24.6729 45.8975V49.5224C24.6729 51.0211 27.9419 52.2388 31.9696 52.2388C35.9973 52.2388 39.2663 51.0211 39.2663 49.5224V45.8975C39.2663 47.3961 35.9973 48.6138 31.9696 48.6138Z" fill="#45CAF2"/>
<path fill-rule="evenodd" clip-rule="evenodd" d="M31.9697 49.8127V51.021C31.9697 51.3676 31.6793 51.6392 31.3327 51.6299C27.5954 51.5081 24.6636 50.3466 24.6636 48.9229V49.5317C24.6636 51.0304 27.9326 52.2481 31.9603 52.2481C35.988 52.2481 39.2571 51.0304 39.2571 49.5317V46.5062C39.2571 47.9393 36.2971 49.1102 32.5411 49.2226C32.232 49.2132 31.9697 49.4849 31.9697 49.8127Z" fill="#0078D4"/>
<path fill-rule="evenodd" clip-rule="evenodd" d="M39.229 45.9256C39.229 47.4336 35.9787 48.6513 31.9697 48.6513C27.9607 48.6513 24.7104 47.4336 24.7104 45.9256C24.7104 44.4175 27.9607 43.1998 31.9697 43.1998C35.9787 43.1998 39.229 44.4175 39.229 45.9256Z" fill="#185A97"/>
<path d="M39.229 45.9256C39.229 47.4336 35.9787 48.6513 31.9697 48.6513C27.9607 48.6513 24.7104 47.4336 24.7104 45.9256C24.7104 44.4175 27.9607 43.1998 31.9697 43.1998C35.9787 43.1998 39.229 44.4175 39.229 45.9256Z" stroke="#E1E4E1" stroke-width="0.1238"/>
<path fill-rule="evenodd" clip-rule="evenodd" d="M31.9696 43.4714C27.9419 43.4714 24.6729 42.2537 24.6729 40.755V44.38C24.6729 45.8786 27.9419 47.0963 31.9696 47.0963C35.9973 47.0963 39.2663 45.8786 39.2663 44.38V40.755C39.2663 42.2537 35.9973 43.4714 31.9696 43.4714Z" fill="#C3F1FF"/>
<path fill-rule="evenodd" clip-rule="evenodd" d="M31.9697 44.6703V45.8787C31.9697 46.2252 31.6793 46.4969 31.3327 46.4875C27.5954 46.3657 24.6636 45.2042 24.6636 43.7805V44.3893C24.6636 45.888 27.9326 47.1057 31.9603 47.1057C35.988 47.1057 39.2571 45.888 39.2571 44.3893V41.3545C39.2571 42.7876 36.2971 43.9585 32.5411 44.0709C32.232 44.0802 31.9697 44.3425 31.9697 44.6703Z" fill="#32B0E7"/>
<path fill-rule="evenodd" clip-rule="evenodd" d="M39.229 40.7831C39.229 42.2912 35.9787 43.5089 31.9697 43.5089C27.9607 43.5089 24.7104 42.2912 24.7104 40.7831C24.7104 39.2751 27.9607 38.0574 31.9697 38.0574C35.9787 38.0574 39.229 39.2751 39.229 40.7831Z" fill="#BAC0C2"/>
<path d="M39.229 40.7831C39.229 42.2912 35.9787 43.5089 31.9697 43.5089C27.9607 43.5089 24.7104 42.2912 24.7104 40.7831C24.7104 39.2751 27.9607 38.0574 31.9697 38.0574C35.9787 38.0574 39.229 39.2751 39.229 40.7831Z" fill="#2195DC"/>
<path fill-rule="evenodd" clip-rule="evenodd" d="M31.9696 38.329C27.9419 38.329 24.6729 37.1114 24.6729 35.6127V39.2376C24.6729 40.7363 27.9419 41.954 31.9696 41.954C35.9973 41.954 39.2663 40.7363 39.2663 39.2376V35.6127C39.2663 37.1114 35.9973 38.329 31.9696 38.329Z" fill="white"/>
<path fill-rule="evenodd" clip-rule="evenodd" d="M31.9697 39.528V40.7364C31.9697 41.0829 31.6793 41.3546 31.3327 41.3452C27.5954 41.2234 24.6636 40.0619 24.6636 38.6382V39.247C24.6636 40.7457 27.9326 41.9634 31.9603 41.9634C35.988 41.9634 39.2571 40.7457 39.2571 39.247V36.2216C39.2571 37.6547 36.2971 38.8255 32.5411 38.9379C32.232 38.9379 31.9697 39.2096 31.9697 39.528Z" fill="#50E6FF"/>
<path fill-rule="evenodd" clip-rule="evenodd" d="M38.9385 35.6314C38.9385 37.1394 35.8193 38.3571 31.9602 38.3571C28.1104 38.3571 24.9819 37.1394 24.9819 35.6314C24.9819 34.1233 28.1011 32.9056 31.9602 32.9056C35.8193 32.915 38.9385 34.1327 38.9385 35.6314Z" fill="#C3F1FF"/>
<path d="M38.9385 35.6314C38.9385 37.1394 35.8193 38.3571 31.9602 38.3571C28.1104 38.3571 24.9819 37.1394 24.9819 35.6314C24.9819 34.1233 28.1011 32.9056 31.9602 32.9056C35.8193 32.915 38.9385 34.1327 38.9385 35.6314Z" stroke="white" stroke-width="1.1138"/>
<path opacity="0.2" d="M66.7208 18.1764H42.3765V33.8752C42.3765 34.5402 42.9104 35.0741 43.5754 35.0741H46.1326V38.7834L49.8699 35.0741H65.5218C66.1869 35.0741 66.7208 34.5402 66.7208 33.8752V18.1764V18.1764Z" fill="#1F1D21"/>
<path d="M65.9059 16.6215H43.1914C42.7418 16.6215 42.3765 16.9868 42.3765 17.4364V32.7043C42.3765 33.1539 42.7418 33.5192 43.1914 33.5192H46.1326V37.2284L49.8699 33.5192H65.9059C66.3555 33.5192 66.7208 33.1539 66.7208 32.7043V17.4364C66.7208 16.9868 66.3555 16.6215 65.9059 16.6215Z" fill="url(#paint3_linear)"/>
<path d="M58.3328 22.1947H50.7645C50.4647 22.1947 50.2212 22.4382 50.2212 22.738C50.2212 23.0377 50.4647 23.2813 50.7645 23.2813H58.3328C58.6326 23.2813 58.8761 23.0377 58.8761 22.738C58.8761 22.4382 58.6326 22.1947 58.3328 22.1947Z" fill="#C3F1FF"/>
<path d="M58.3328 24.5739H50.7645C50.4647 24.5739 50.2212 24.8174 50.2212 25.1171C50.2212 25.4169 50.4647 25.6604 50.7645 25.6604H58.3328C58.6326 25.6604 58.8761 25.4169 58.8761 25.1171C58.8761 24.8268 58.6326 24.5739 58.3328 24.5739Z" fill="#C3F1FF"/>
<path d="M58.3328 26.9624H50.7645C50.4647 26.9624 50.2212 27.2059 50.2212 27.5057C50.2212 27.8054 50.4647 28.049 50.7645 28.049H58.3328C58.6326 28.049 58.8761 27.8054 58.8761 27.5057C58.8761 27.2059 58.6326 26.9624 58.3328 26.9624Z" fill="#C3F1FF"/>
<path d="M77.1365 32.161L64.8379 36.9381V50.7635L69.2684 48.8995V38.0246L77.2302 36.1606V52.4027L64.8379 50.7635L77.1365 55.2221L84.0117 52.9928V34.4746L77.1365 32.161Z" fill="url(#paint4_linear)"/>
<defs>
<linearGradient id="paint0_linear" x1="53.5889" y1="-13.383" x2="49.6062" y2="132.385" gradientUnits="userSpaceOnUse">
<stop stop-color="#00ABDE"/>
<stop offset="1" stop-color="#007ED8"/>
</linearGradient>
<linearGradient id="paint1_linear" x1="52.7457" y1="28.7053" x2="52.7457" y2="71.8113" gradientUnits="userSpaceOnUse">
<stop stop-color="#555559"/>
<stop offset="1" stop-color="#2E2E33"/>
</linearGradient>
<linearGradient id="paint2_linear" x1="75.2193" y1="22.6371" x2="71.0689" y2="67.803" gradientUnits="userSpaceOnUse">
<stop stop-color="#008BF1"/>
<stop offset="0.22" stop-color="#0086EC"/>
<stop offset="0.49" stop-color="#0078DD"/>
<stop offset="0.79" stop-color="#0061C4"/>
<stop offset="1" stop-color="#004DAE"/>
</linearGradient>
<linearGradient id="paint3_linear" x1="54.5486" y1="23.2367" x2="54.5486" y2="48.5271" gradientUnits="userSpaceOnUse">
<stop stop-color="#7CD1F0"/>
<stop offset="0.505208" stop-color="#4DC1EA"/>
<stop offset="0.796875" stop-color="#0078D4"/>
</linearGradient>
<linearGradient id="paint4_linear" x1="75.2193" y1="22.6371" x2="71.0689" y2="67.803" gradientUnits="userSpaceOnUse">
<stop stop-color="#008BF1"/>
<stop offset="0.22" stop-color="#0086EC"/>
<stop offset="0.49" stop-color="#0078DD"/>
<stop offset="0.79" stop-color="#0061C4"/>
<stop offset="1" stop-color="#004DAE"/>
</linearGradient>
</defs>
</svg>
