<svg width="160" height="188" viewBox="0 0 160 188" fill="none" xmlns="http://www.w3.org/2000/svg">
<g clip-path="url(#clip0)">
<path d="M79.6779 188C82.7592 187.994 85.7796 187.141 88.4083 185.534L150.384 147.874C153.165 146.11 155.449 143.665 157.019 140.771C158.589 137.876 159.394 134.628 159.356 131.336V56.6207C159.392 53.3283 158.587 50.0812 157.017 47.1871C155.447 44.2929 153.163 41.8476 150.384 40.0829L88.4083 2.4228C85.7749 0.837605 82.7592 0 79.6855 0C76.6118 0 73.5961 0.837605 70.9627 2.4228L8.9876 40.098C6.2045 41.8604 3.91796 44.3048 2.34499 47.1991C0.772021 50.0935 -0.0351786 53.3418 4.1431e-06 56.6358V131.336C-0.0185283 134.119 0.556189 136.874 1.68588 139.418C2.81557 141.962 4.4743 144.236 6.5516 146.089V146.115L70.9627 185.549C73.5884 187.149 76.6032 187.996 79.6779 188V188ZM80.3257 6.95218C82.2776 6.95218 84.7548 8.1651 86.4646 9.20912L147.222 46.4034C150.974 48.6881 153.09 55.2842 153.09 60.0352L152.458 131.336C152.458 136.087 149.259 140.355 145.506 142.64L85.1104 179.021C81.6758 181.109 78.8854 181.109 75.4507 179.021L14.2427 142.549C10.4903 140.265 7.47191 136.072 7.47191 131.336V57.688C7.50442 55.3228 8.11341 53.0013 9.24608 50.9247C10.3787 48.8482 12.0009 47.0792 13.9718 45.7714L74.548 9.20912C76.2577 8.1651 78.3739 6.95218 80.3257 6.95218Z" fill="#F2F1F0"/>
<path fill-rule="evenodd" clip-rule="evenodd" d="M87.5765 10.5318C85.2056 9.05825 82.4697 8.27734 79.6783 8.27734C76.8868 8.27734 74.1509 9.05825 71.7801 10.5318L15.6454 44.8632C13.1193 46.4748 11.047 48.7052 9.625 51.3427C8.203 53.9801 7.47851 56.9372 7.52026 59.9333V128.036C7.48034 131.032 8.20562 133.989 9.62745 136.626C11.0493 139.263 13.1206 141.493 15.6454 143.106L71.7801 177.437C74.1508 178.911 76.8867 179.692 79.6783 179.692C82.4698 179.692 85.2057 178.911 87.5765 177.437L143.711 143.106C146.236 141.494 148.307 139.263 149.729 136.626C151.151 133.989 151.877 131.032 151.837 128.036V59.9333C151.875 56.9377 151.149 53.9819 149.727 51.3451C148.305 48.7082 146.234 46.4773 143.711 44.8632L87.5765 10.5318Z" fill="url(#paint0_linear)"/>
<path fill-rule="evenodd" clip-rule="evenodd" d="M79.6783 9.7539C81.3615 9.7539 83.2442 10.6196 85.311 11.8777L143.777 47.4201C145.668 48.6335 147.218 50.3104 148.278 52.2914C149.339 54.2725 149.875 56.4918 149.837 58.7386V129.217C149.875 131.464 149.339 133.683 148.278 135.664C147.218 137.645 145.668 139.322 143.777 140.535L85.312 176.077L85.311 176.078C83.6408 177.217 81.6958 177.888 79.6783 178.021C77.6609 177.888 75.7158 177.217 74.0456 176.078L74.0446 176.077L15.5823 140.537L15.5801 140.536C13.7918 139.572 12.2668 138.185 11.1383 136.496C10.1614 134.893 9.52031 132.678 9.52031 129.217V58.7386C9.48157 56.4919 10.018 54.2726 11.0785 52.2916C12.139 50.3106 13.6885 48.6336 15.5797 47.4202L74.0365 11.8831L74.0406 11.8807C76.1244 10.6277 77.9846 9.7539 79.6783 9.7539ZM87.3908 8.4609L145.855 44.0021C148.333 45.5722 150.368 47.751 151.765 50.3307C153.162 52.9104 153.876 55.8051 153.837 58.7386V129.217C153.876 132.151 153.162 135.045 151.765 137.625C150.368 140.205 148.333 142.384 145.855 143.954L87.3898 179.495C85.0956 181.02 82.4302 181.893 79.6783 182.021C76.9264 181.893 74.261 181.02 71.9667 179.495H71.9658L13.502 143.953L13.4995 143.952C11.1642 142.659 9.18097 140.814 7.72281 138.578C6.12823 135.725 5.36521 132.482 5.52031 129.217V58.7386C5.48125 55.805 6.19436 52.9103 7.59165 50.3305C8.98894 47.7508 11.0238 45.572 13.5022 44.002L71.9667 8.46025L71.9749 8.45537C74.0655 7.19796 76.7734 5.75391 79.6783 5.75391C82.5645 5.75391 85.2816 7.17699 87.3908 8.46085V8.4609Z" fill="#0078D4"/>
<path opacity="0.2" d="M139.96 132.028L80.41 166.634L20.464 132.025L80.014 97.418L139.96 132.028Z" fill="#003067"/>
<path d="M140.601 120.65L79.878 155.938L18.767 120.655L79.489 85.3672L140.601 120.65Z" fill="#1B93EB"/>
<path d="M140.601 120.648L140.589 124.754L79.8669 160.042L79.8779 155.936L140.601 120.648Z" fill="#1F56A3"/>
<path d="M79.878 155.939L79.867 160.045L18.755 124.762L18.767 120.656L79.878 155.939Z" fill="#0078D4"/>
<path opacity="0.2" d="M43.6603 112.779C43.5205 112.731 43.3992 112.641 43.3132 112.521C43.2272 112.401 43.1808 112.257 43.1805 112.109C43.1802 111.962 43.226 111.818 43.3116 111.697C43.3971 111.577 43.518 111.486 43.6576 111.438L51.52 106.868C51.8791 106.686 52.2761 106.59 52.679 106.59C53.0818 106.589 53.4791 106.684 53.8387 106.865L101.793 134.552C101.933 134.6 102.054 134.691 102.14 134.811C102.226 134.931 102.272 135.075 102.272 135.223C102.273 135.371 102.227 135.515 102.141 135.635C102.056 135.756 101.935 135.847 101.795 135.895L94.002 140.424C93.6429 140.607 93.2458 140.702 92.8429 140.703C92.4399 140.704 92.0425 140.61 91.6826 140.429L43.6603 112.779Z" fill="#1F56A3"/>
<path d="M43.6603 110.135C43.5205 110.087 43.3992 109.997 43.3132 109.877C43.2272 109.756 43.1808 109.613 43.1805 109.465C43.1802 109.317 43.226 109.173 43.3116 109.053C43.3971 108.932 43.518 108.841 43.6576 108.793L51.52 104.224C51.8791 104.041 52.2761 103.946 52.679 103.945C53.0818 103.945 53.4791 104.039 53.8387 104.221L101.793 131.908C101.933 131.956 102.054 132.046 102.14 132.166C102.226 132.287 102.272 132.431 102.272 132.578C102.273 132.726 102.227 132.87 102.141 132.991C102.056 133.111 101.935 133.202 101.795 133.251L94.002 137.78C93.6428 137.962 93.2457 138.058 92.8428 138.059C92.4399 138.06 92.0424 137.966 91.6825 137.784L43.6603 110.135Z" fill="white"/>
<path d="M58.1663 109.003C58.2579 109.034 58.3376 109.093 58.3942 109.171C58.4508 109.25 58.4815 109.344 58.4821 109.441C58.4826 109.538 58.453 109.632 58.3973 109.711C58.3416 109.79 58.2626 109.85 58.1713 109.882L53.82 112.411C53.5859 112.529 53.3271 112.591 53.0648 112.59C52.8024 112.589 52.544 112.526 52.3108 112.406L47.931 109.877C47.5119 109.635 47.5012 109.245 47.9177 109.003L52.2689 106.474C52.5041 106.355 52.764 106.293 53.0277 106.293C53.2914 106.293 53.5514 106.355 53.7865 106.474L58.1663 109.003Z" fill="#1B93EB"/>
<path d="M90.6274 131.567C90.5098 131.567 90.3943 131.536 90.2924 131.477L59.4942 113.696C59.3403 113.607 59.228 113.46 59.182 113.289C59.136 113.117 59.1601 112.934 59.2489 112.78C59.3377 112.626 59.4841 112.514 59.6557 112.468C59.8274 112.422 60.0102 112.446 60.1641 112.535L90.9624 130.317C91.09 130.391 91.1897 130.504 91.246 130.641C91.3024 130.777 91.3122 130.928 91.2741 131.07C91.2359 131.213 91.1519 131.338 91.035 131.428C90.9181 131.518 90.7748 131.567 90.6274 131.567H90.6274Z" fill="#1B93EB"/>
<path d="M32.0043 120.697C31.8645 120.649 31.7432 120.559 31.6572 120.439C31.5712 120.319 31.5248 120.175 31.5245 120.027C31.5242 119.88 31.57 119.736 31.6556 119.615C31.7411 119.495 31.862 119.404 32.0016 119.356L39.864 114.786C40.2231 114.604 40.6201 114.508 41.023 114.508C41.4258 114.507 41.8231 114.602 42.1827 114.783L90.1371 142.47C90.2768 142.518 90.398 142.609 90.4839 142.729C90.5698 142.849 90.6161 142.993 90.6163 143.141C90.6165 143.289 90.5706 143.433 90.4851 143.553C90.3996 143.674 90.2786 143.765 90.139 143.813L82.346 148.342C81.9869 148.525 81.5898 148.62 81.1869 148.621C80.7839 148.622 80.3864 148.528 80.0266 148.347L32.0043 120.697Z" fill="white"/>
<path d="M46.5103 119.566C46.602 119.597 46.6817 119.655 46.7383 119.734C46.7949 119.812 46.8256 119.907 46.8262 120.003C46.8267 120.1 46.7971 120.195 46.7413 120.274C46.6856 120.353 46.6066 120.413 46.5153 120.445L42.1641 122.973C41.9301 123.092 41.6712 123.153 41.4089 123.152C41.1465 123.152 40.8881 123.088 40.6549 122.968L36.2751 120.44C35.8561 120.198 35.8453 119.808 36.2618 119.566L40.613 117.037C40.8482 116.918 41.1081 116.855 41.3718 116.855C41.6355 116.855 41.8955 116.918 42.1306 117.037L46.5103 119.566Z" fill="#E8E8E8"/>
<path d="M78.9715 142.129C78.8539 142.129 78.7384 142.099 78.6365 142.04L47.8382 124.258C47.6843 124.169 47.572 124.023 47.526 123.851C47.48 123.68 47.5041 123.497 47.5929 123.343C47.6817 123.189 47.8281 123.077 47.9997 123.031C48.1713 122.985 48.3542 123.009 48.5081 123.098L79.3064 140.879C79.434 140.953 79.5337 141.067 79.59 141.203C79.6464 141.339 79.6562 141.49 79.6181 141.633C79.5799 141.775 79.4959 141.901 79.379 141.991C79.2621 142.081 79.1189 142.129 78.9715 142.129V142.129Z" fill="#E8E8E8"/>
<path opacity="0.2" d="M117.673 119.721L70.3366 91.7844C69.9883 91.5922 69.6204 91.438 69.2393 91.3242L60.9253 96.1558C61.166 96.419 61.4457 96.6436 61.7546 96.8218L109.156 124.727C110.229 125.267 111.415 125.547 112.617 125.541C113.819 125.536 115.003 125.247 116.072 124.697L117.688 123.747C119.585 122.633 119.579 120.821 117.673 119.721Z" fill="#1F56A3"/>
<path d="M55.1336 60.5417L50.4929 63.2385C52.5417 62.0479 55.3782 62.216 58.5049 64.0212C59.8439 64.8058 61.0828 65.7499 62.1945 66.8326L66.835 64.1359C65.7233 63.0532 64.4844 62.1091 63.1456 61.3244C60.0188 59.5192 57.1821 59.3512 55.1336 60.5417Z" fill="#E8E8E8"/>
<path d="M113.058 75.0839C111.804 74.3445 110.467 73.7564 109.075 73.3319C105.021 63.5897 97.9072 54.6325 89.7696 49.9343C83.4142 46.265 77.6574 45.9233 73.4988 48.3401L68.8582 51.0369C73.017 48.6201 78.7735 48.9617 85.1289 52.6311C93.2668 57.3294 100.381 66.2865 104.434 76.0287C105.826 76.4532 107.163 77.0413 108.417 77.7806C118.25 83.4574 126.175 97.2254 126.143 108.51C126.147 109.742 126.039 110.972 125.819 112.184C125.795 112.358 125.737 112.524 125.713 112.724C125.397 114.167 124.868 115.555 124.143 116.842C124.061 116.981 123.956 117.094 123.875 117.234C123.122 118.347 122.131 119.277 120.973 119.958L125.614 117.261C126.771 116.58 127.762 115.65 128.515 114.538C128.597 114.398 128.702 114.285 128.784 114.145C129.509 112.858 130.038 111.47 130.353 110.027C130.377 109.827 130.436 109.661 130.459 109.487C130.679 108.275 130.788 107.045 130.784 105.813C130.816 94.5287 122.89 80.7606 113.058 75.0839Z" fill="#E8E8E8"/>
<path d="M85.1291 52.6296C93.2667 57.3278 100.381 66.285 104.434 76.0272C105.826 76.4517 107.164 77.0398 108.417 77.7792C118.25 83.4559 126.175 97.224 126.143 108.509C126.147 109.741 126.039 110.971 125.819 112.183C125.795 112.356 125.737 112.523 125.713 112.723C125.397 114.166 124.868 115.553 124.143 116.84C124.061 116.98 123.956 117.093 123.875 117.233C120.792 121.706 114.953 122.583 108.278 118.73L57.3174 89.1873C51.6428 85.2564 47.189 77.1803 47.2081 70.4575C47.2283 63.3078 52.2945 60.4342 58.5051 64.0198C59.844 64.8045 61.0828 65.7486 62.1945 66.8314C62.1724 66.4578 62.1734 66.111 62.1744 65.7509C62.2157 51.1981 72.4877 45.3311 85.1291 52.6296Z" fill="white"/>
<g opacity="0.2">
<path opacity="0.2" d="M106.921 127.113C107.173 127.198 107.393 127.36 107.549 127.576C107.705 127.792 107.79 128.051 107.791 128.317C107.793 128.584 107.711 128.844 107.558 129.062C107.404 129.279 107.186 129.444 106.934 129.531C106.288 129.859 105.574 130.029 104.85 130.029C104.125 130.028 103.412 129.856 102.766 129.528L77.4189 114.894C77.1671 114.809 76.948 114.648 76.7923 114.432C76.6366 114.217 76.5521 113.959 76.5506 113.693C76.5491 113.427 76.6307 113.168 76.7839 112.951C76.9372 112.734 77.1545 112.57 77.4054 112.483C78.0506 112.153 78.7646 111.981 79.4891 111.98C80.2136 111.98 80.9279 112.151 81.5737 112.479L106.921 127.113Z" fill="#003067"/>
</g>
<path d="M95.217 113.659L98.436 111.789L100.012 114.522L96.793 116.393L95.217 113.659Z" fill="#0078D4"/>
<path d="M98.4467 107.836C97.4814 108.369 97.4764 110.145 98.4355 111.789C97.8991 112.101 97.3626 112.413 96.8261 112.724C96.415 112.963 96.0039 113.202 95.5928 113.441L95.2169 113.66C94.2578 112.015 94.2629 110.24 95.2281 109.706C96.1936 109.145 97.4811 108.397 98.4467 107.836Z" fill="#0078D4"/>
<path d="M90.0674 106.99C83.5507 103.228 78.2616 94.0667 78.2827 86.5788C78.2933 82.8589 79.6126 80.2381 81.7367 79.0039L78.518 80.8743C76.3941 82.1085 75.0749 84.7293 75.0643 88.4492C75.0431 95.9371 80.3325 105.099 86.8487 108.861C90.1282 110.754 93.1056 110.926 95.2568 109.676L98.4755 107.806C96.324 109.056 93.3469 108.884 90.0674 106.99Z" fill="#1F56A3"/>
<path d="M95.2281 109.706L98.4467 107.836C98.7226 107.712 99.0263 107.662 99.3274 107.692C99.6285 107.722 99.9163 107.831 100.162 108.008L96.9434 109.879C96.6978 109.702 96.4099 109.593 96.1089 109.563C95.8078 109.532 95.504 109.582 95.2281 109.706V109.706Z" fill="#0078D4"/>
<path d="M98.6541 111.683L101.873 109.812L103.457 112.556L100.238 114.426L98.6541 111.683Z" fill="#0078D4"/>
<path d="M86.9167 81.6953C93.4452 85.4645 98.7111 94.5995 98.6899 102.101C98.6686 109.603 93.3682 112.624 86.8397 108.854C80.3112 105.085 75.0331 95.957 75.0544 88.4553C75.0757 80.9537 80.3883 77.9261 86.9167 81.6953Z" fill="url(#paint1_linear)"/>
<path d="M96.9434 109.878L100.162 108.008C100.877 108.453 101.466 109.075 101.873 109.813L98.654 111.684C98.2476 110.946 97.6587 110.324 96.9434 109.878V109.878Z" fill="#0078D4"/>
<path d="M110.112 124.086L103.457 112.559C105.535 110.561 106.772 107.315 106.784 103.036C106.813 92.4656 99.3591 79.5542 90.1602 74.2432C85.5311 71.5706 81.3314 71.3255 78.2975 73.0888L75.079 74.9592C78.1127 73.196 82.3125 73.441 86.9417 76.1136C96.1409 81.4246 103.595 94.336 103.565 104.906C103.553 109.185 102.316 112.432 100.238 114.429L106.893 125.956C107.837 127.592 107.832 129.368 106.882 129.909L110.1 128.039C111.051 127.497 111.056 125.721 110.112 124.086Z" fill="#1F56A3"/>
<path d="M106.893 125.957L100.238 114.43C102.316 112.432 103.553 109.186 103.565 104.907C103.595 94.3367 96.1408 81.4253 86.9417 76.1143C77.7425 70.8032 70.2397 75.0789 70.2096 85.6493C70.1795 96.2195 77.6341 109.131 86.833 114.442C90.5593 116.593 94.0075 117.171 96.7934 116.395L103.441 127.924C103.85 128.664 104.441 129.287 105.159 129.733C105.406 129.911 105.695 130.021 105.997 130.052C106.299 130.083 106.605 130.034 106.882 129.91C107.832 129.368 107.837 127.593 106.893 125.957ZM86.8486 108.864C80.3324 105.102 75.043 95.9401 75.0642 88.4522C75.0857 80.9641 80.4094 77.9302 86.9258 81.6925C93.4425 85.4549 98.7316 94.6163 98.7104 102.104C98.6893 109.592 93.3653 112.626 86.8486 108.864Z" fill="#0078D4"/>
</g>
<defs>
<linearGradient id="paint0_linear" x1="79.6785" y1="8.27734" x2="79.6785" y2="179.692" gradientUnits="userSpaceOnUse">
<stop stop-color="#00ABDE"/>
<stop offset="1" stop-color="#007ED8"/>
</linearGradient>
<linearGradient id="paint1_linear" x1="86.8721" y1="110.477" x2="86.8721" y2="80.0742" gradientUnits="userSpaceOnUse">
<stop stop-color="white" stop-opacity="0.2"/>
<stop offset="1" stop-color="white" stop-opacity="0"/>
</linearGradient>
<clipPath id="clip0">
<rect width="159.356" height="188" fill="white"/>
</clipPath>
</defs>
</svg>
