<svg width="100" height="100" viewBox="0 0 100 100" fill="none" xmlns="http://www.w3.org/2000/svg">
<g clip-path="url(#clip0)">
<path d="M49.6401 96.4501C40.382 96.4501 31.3317 93.7047 23.6339 88.5612C15.936 83.4176 9.93624 76.1069 6.3933 67.5535C2.85036 59.0001 1.92337 49.5882 3.72954 40.5079C5.53571 31.4277 9.99394 23.0869 16.5404 16.5404C23.0869 9.99393 31.4277 5.53571 40.5079 3.72954C49.5882 1.92337 59.0001 2.85036 67.5535 6.3933C76.1069 9.93624 83.4176 15.936 88.5612 23.6339C93.7047 31.3317 96.4501 40.382 96.4501 49.6401C96.4505 55.7874 95.24 61.8746 92.8878 67.554C90.5355 73.2335 87.0875 78.3939 82.7407 82.7407C78.3939 87.0875 73.2335 90.5355 67.554 92.8878C61.8746 95.24 55.7874 96.4505 49.6401 96.4501V96.4501Z" fill="url(#paint0_linear)"/>
<path fill-rule="evenodd" clip-rule="evenodd" d="M95.54 49.64C95.54 58.7182 92.848 67.5925 87.8045 75.1407C82.7609 82.6889 75.5923 88.572 67.2052 92.0461C58.818 95.5201 49.5891 96.4291 40.6854 94.658C31.7816 92.887 23.603 88.5154 17.1838 82.0962C10.7646 75.677 6.39302 67.4984 4.62196 58.5946C2.85089 49.6909 3.75987 40.462 7.23393 32.0748C10.708 23.6877 16.5911 16.5191 24.1393 11.4755C31.6875 6.43199 40.5618 3.74 49.64 3.74C55.6677 3.73998 61.6363 4.9272 67.2052 7.23388C72.774 9.54057 77.834 12.9215 82.0963 17.1837C86.3585 21.446 89.7394 26.5059 92.0461 32.0748C94.3528 37.6437 95.54 43.6123 95.54 49.64V49.64ZM49.64 3.62732e-07C59.4579 3.62732e-07 69.0553 2.91134 77.2185 8.36585C85.3818 13.8204 91.7442 21.5731 95.5014 30.6436C99.2585 39.7141 100.242 49.6951 98.3262 59.3243C96.4108 68.9535 91.6831 77.7985 84.7408 84.7408C77.7985 91.6831 68.9535 96.4108 59.3243 98.3262C49.6951 100.242 39.7141 99.2585 30.6436 95.5014C21.5731 91.7442 13.8204 85.3818 8.36585 77.2185C2.91134 69.0553 3.62732e-07 59.4579 3.62732e-07 49.64C-0.000787738 43.121 1.28265 36.6656 3.77702 30.6427C6.27138 24.6197 9.9278 19.1471 14.5375 14.5375C19.1471 9.9278 24.6197 6.27138 30.6427 3.77702C36.6656 1.28265 43.121 -0.000787738 49.64 3.62732e-07V3.62732e-07Z" fill="#F2F1F0"/>
<path fill-rule="evenodd" clip-rule="evenodd" d="M92.7296 49.6401C92.7296 58.1625 90.2024 66.4935 85.4676 73.5796C80.7328 80.6657 74.0031 86.1887 66.1294 89.4501C58.2557 92.7114 49.5918 93.5648 41.2331 91.9021C32.8745 90.2395 25.1966 86.1356 19.1703 80.1093C13.1441 74.0831 9.04017 66.4052 7.37753 58.0465C5.7149 49.6879 6.56822 41.0239 9.8296 33.1503C13.091 25.2766 18.6139 18.5469 25.7 13.8121C32.7862 9.07727 41.1172 6.55009 49.6396 6.55009C55.2983 6.54974 60.9017 7.66407 66.1298 9.82942C71.3579 11.9948 76.1082 15.1687 80.1096 19.1701C84.1109 23.1714 87.2849 27.9218 89.4502 33.1499C91.6156 38.3779 92.7299 43.9813 92.7296 49.6401V49.6401ZM49.6396 2.81009C58.9017 2.81009 67.9558 5.55662 75.6569 10.7024C83.3581 15.8481 89.3604 23.162 92.9049 31.719C96.4493 40.2761 97.3767 49.692 95.5697 58.7762C93.7628 67.8603 89.3027 76.2046 82.7534 82.7539C76.2041 89.3032 67.8598 93.7633 58.7757 95.5703C49.6915 97.3772 40.2756 96.4498 31.7185 92.9054C23.1614 89.3609 15.8476 83.3586 10.7018 75.6574C5.5561 67.9563 2.80957 58.9022 2.80957 49.6401C2.81076 37.2204 7.745 25.3097 16.5271 16.5276C25.3091 7.7455 37.2198 2.81125 49.6396 2.81006V2.81009Z" fill="#0078D4"/>
<path fill-rule="evenodd" clip-rule="evenodd" d="M92.7296 49.6401C92.7296 58.1625 90.2024 66.4935 85.4676 73.5796C80.7328 80.6657 74.0031 86.1886 66.1294 89.45C58.2557 92.7114 49.5918 93.5647 41.2331 91.9021C32.8745 90.2395 25.1966 86.1355 19.1703 80.1093C13.1441 74.083 9.04017 66.4051 7.37753 58.0465C5.7149 49.6879 6.56822 41.0239 9.8296 33.1502C13.091 25.2766 18.6139 18.5468 25.7001 13.812C32.7862 9.07724 41.1172 6.55006 49.6396 6.55006C55.2983 6.54971 60.9017 7.66404 66.1298 9.82939C71.3579 11.9947 76.1082 15.1687 80.1096 19.1701C84.1109 23.1714 87.2849 27.9217 89.4502 33.1498C91.6156 38.3779 92.7299 43.9813 92.7296 49.6401V49.6401ZM49.6396 2.81006C58.9017 2.81006 67.9558 5.55659 75.6569 10.7023C83.3581 15.8481 89.3604 23.1619 92.9048 31.719C96.4493 40.2761 97.3767 49.692 95.5697 58.7761C93.7628 67.8603 89.3027 76.2046 82.7534 82.7539C76.2041 89.3032 67.8598 93.7633 58.7757 95.5702C49.6915 97.3772 40.2756 96.4498 31.7185 92.9053C23.1614 89.3609 15.8476 83.3586 10.7018 75.6574C5.5561 67.9563 2.80957 58.9022 2.80957 49.6401C2.81076 37.2203 7.74501 25.3096 16.5271 16.5276C25.3091 7.7455 37.2198 2.81125 49.6396 2.81006V2.81006Z" fill="#0078D4"/>
<path fill-rule="evenodd" clip-rule="evenodd" d="M28.1872 27.291H71.093C72.1027 27.294 73.0701 27.6964 73.784 28.4103C74.4979 29.1242 74.9003 30.0916 74.9033 31.1013V64.2905C74.9003 65.3001 74.4979 66.2675 73.784 66.9815C73.0701 67.6954 72.1027 68.0978 71.093 68.1007H28.1872C27.1776 68.0978 26.2101 67.6954 25.4962 66.9815C24.7823 66.2675 24.3799 65.3001 24.377 64.2905V31.1012C24.3799 30.0916 24.7823 29.1242 25.4962 28.4103C26.2101 27.6964 27.1776 27.294 28.1872 27.291V27.291Z" fill="#C3F1FF"/>
<path d="M32.1494 62.0042V55.8217C32.1494 55.3063 32.3542 54.812 32.7186 54.4476C33.083 54.0832 33.5773 53.8784 34.0927 53.8784V53.8784C34.6081 53.8784 35.1024 54.0832 35.4668 54.4476C35.8313 54.8121 36.036 55.3063 36.036 55.8217V62.0042C36.036 62.5196 35.8313 63.0139 35.4668 63.3783C35.1024 63.7428 34.6081 63.9475 34.0927 63.9475V63.9475C33.5773 63.9475 33.083 63.7428 32.7186 63.3783C32.3541 63.0139 32.1494 62.5196 32.1494 62.0042V62.0042Z" fill="white"/>
<path d="M47.696 62.0041V49.6391C47.696 49.1237 47.9008 48.6294 48.2652 48.265C48.6297 47.9005 49.124 47.6958 49.6394 47.6958V47.6958C50.1548 47.6958 50.6491 47.9005 51.0135 48.265C51.3779 48.6294 51.5827 49.1237 51.5827 49.6391V62.0041C51.5827 62.2593 51.5324 62.512 51.4348 62.7478C51.3371 62.9836 51.194 63.1978 51.0135 63.3783C50.833 63.5587 50.6188 63.7019 50.383 63.7995C50.1473 63.8972 49.8946 63.9474 49.6394 63.9474V63.9474C49.124 63.9474 48.6297 63.7427 48.2652 63.3783C47.9008 63.0138 47.696 62.5195 47.696 62.0041V62.0041Z" fill="#0078D4"/>
<path d="M39.9226 62.0042V41.3569C39.9226 40.8415 40.1274 40.3472 40.4918 39.9828C40.8562 39.6183 41.3505 39.4136 41.8659 39.4136C42.1211 39.4136 42.3738 39.4638 42.6096 39.5615C42.8454 39.6592 43.0596 39.8023 43.2401 39.9828C43.4205 40.1632 43.5637 40.3774 43.6613 40.6132C43.759 40.849 43.8092 41.1017 43.8092 41.3569V62.0042C43.8092 62.5196 43.6045 63.0139 43.2401 63.3783C42.8756 63.7428 42.3813 63.9475 41.8659 63.9475V63.9475C41.6107 63.9475 41.358 63.8972 41.1222 63.7996C40.8865 63.7019 40.6722 63.5588 40.4918 63.3783C40.3113 63.1979 40.1682 62.9836 40.0705 62.7479C39.9729 62.5121 39.9226 62.2594 39.9226 62.0042Z" fill="#50E6FF"/>
<path d="M55.4692 62.004V47.6958C55.4692 47.4406 55.5195 47.1879 55.6172 46.9521C55.7148 46.7163 55.858 46.5021 56.0384 46.3216C56.2189 46.1412 56.4331 45.998 56.6689 45.9004C56.9047 45.8027 57.1574 45.7524 57.4126 45.7524V45.7524C57.928 45.7524 58.4223 45.9572 58.7867 46.3216C59.1511 46.6861 59.3559 47.1804 59.3559 47.6958V62.004C59.3559 62.2592 59.3056 62.5119 59.208 62.7477C59.1103 62.9835 58.9671 63.1977 58.7867 63.3782C58.6062 63.5586 58.392 63.7018 58.1562 63.7994C57.9205 63.8971 57.6678 63.9474 57.4126 63.9473V63.9473C56.8972 63.9473 56.4029 63.7426 56.0384 63.3782C55.674 63.0137 55.4692 62.5194 55.4692 62.004V62.004Z" fill="#1F56A3"/>
<path d="M63.2424 62.0039V36.9721C63.2424 36.7169 63.2927 36.4642 63.3904 36.2285C63.488 35.9927 63.6312 35.7785 63.8116 35.598C63.9921 35.4175 64.2063 35.2744 64.4421 35.1767C64.6779 35.0791 64.9306 35.0288 65.1858 35.0288V35.0288C65.7012 35.0288 66.1955 35.2336 66.5599 35.598C66.9243 35.9624 67.1291 36.4567 67.1291 36.9721V62.0039C67.1291 62.2591 67.0788 62.5118 66.9812 62.7476C66.8835 62.9834 66.7403 63.1976 66.5599 63.3781C66.3794 63.5585 66.1652 63.7017 65.9294 63.7993C65.6937 63.897 65.441 63.9472 65.1858 63.9472V63.9472C64.6704 63.9472 64.1761 63.7425 63.8116 63.3781C63.4472 63.0136 63.2424 62.5193 63.2424 62.0039V62.0039Z" fill="#003067"/>
<path opacity="0.2" d="M62.9241 68.1007C62.2567 65.0746 60.5761 62.3671 58.1605 60.4262C55.7448 58.4852 52.7389 57.4272 49.6401 57.4272C46.5413 57.4272 43.5354 58.4852 41.1198 60.4262C38.7042 62.3671 37.0236 65.0746 36.3562 68.1007H62.9241Z" fill="#767676"/>
<path d="M49.6401 82.6517C56.0533 82.6517 61.2523 77.4527 61.2523 71.0395C61.2523 64.6262 56.0533 59.4272 49.6401 59.4272C43.2268 59.4272 38.0278 64.6262 38.0278 71.0395C38.0278 77.4527 43.2268 82.6517 49.6401 82.6517Z" fill="white"/>
<path d="M49.64 72.4285C51.7654 72.4285 53.4883 70.7056 53.4883 68.5802C53.4883 66.4549 51.7654 64.7319 49.64 64.7319C47.5147 64.7319 45.7917 66.4549 45.7917 68.5802C45.7917 70.7056 47.5147 72.4285 49.64 72.4285Z" fill="#0078D4"/>
<path d="M54.861 78.0474C55.1812 77.7975 55.3925 77.4337 55.4509 77.0317C55.5092 76.6298 55.4102 76.2209 55.1744 75.8902C54.5501 75.0023 53.7214 74.2777 52.7582 73.7775C51.795 73.2773 50.7256 73.0161 49.6402 73.0161C48.5549 73.0161 47.4854 73.2773 46.5222 73.7775C45.559 74.2777 44.7303 75.0023 44.1061 75.8902C43.8703 76.2209 43.7712 76.6298 43.8296 77.0317C43.888 77.4337 44.0993 77.7975 44.4195 78.0474C45.9274 79.1729 47.7586 79.781 49.6402 79.781C51.5219 79.781 53.3531 79.1729 54.861 78.0474V78.0474Z" fill="#0078D4"/>
</g>
<defs>
<linearGradient id="paint0_linear" x1="47.8698" y1="-15.153" x2="51.8525" y2="130.615" gradientUnits="userSpaceOnUse">
<stop stop-color="#00ABDE"/>
<stop offset="1" stop-color="#007ED8"/>
</linearGradient>
<clipPath id="clip0">
<rect width="99.2799" height="99.28" fill="white"/>
</clipPath>
</defs>
</svg>
