<svg width="181" height="191" viewBox="0 0 181 191" fill="none" xmlns="http://www.w3.org/2000/svg">
<path fill-rule="evenodd" clip-rule="evenodd" d="M5.20947 58.9037L24.7922 153.98C25.9721 159.713 31.0615 163.802 36.9256 163.718L143.683 164.278C148.343 164.302 152.36 161.001 153.242 156.424L175.625 39.6666L160.31 27.0565L12.4204 46.2935L5.20947 58.9037Z" fill="url(#paint0_linear)"/>
<path fill-rule="evenodd" clip-rule="evenodd" d="M160.047 27.2352C158.116 26.8777 156.138 26.8419 154.183 27.128L21.3352 47.0563L21.0372 47.104C11.5736 48.6892 5.10168 57.5687 6.53194 67.0919C6.60345 67.5448 6.68689 67.9978 6.78224 68.4388L25.769 150.739L25.8405 151.048C27.7952 158.879 34.8392 164.386 42.9322 164.386H137.616H137.937C146.281 164.243 153.396 158.247 154.934 150.023L174.099 47.7953L174.147 47.4973C175.78 38.0456 169.511 29.0111 160.047 27.2352ZM155.232 30.787C156.543 30.6321 157.878 30.6798 159.177 30.9301C166.34 32.2769 171.048 39.2137 169.713 46.4127L150.583 148.998L150.524 149.284C149.248 155.411 143.873 159.809 137.616 159.809H43.1109H42.813C36.7939 159.678 31.6212 155.458 30.2624 149.535L11.3114 66.9489L11.2399 66.6152C11.1922 66.3887 11.1565 66.1623 11.1207 65.9358C10.0361 58.6891 15.0063 51.943 22.2052 50.8584L154.791 30.8466L155.232 30.787Z" fill="#0076D7"/>
<path d="M43.0755 166.388H137.485C146.996 166.388 155.161 159.618 156.913 150.274L176.019 48.3435C178.521 34.9825 167.103 23.1471 153.659 25.1613L21.2044 45.0301C9.80993 46.7345 2.28912 57.7952 4.87552 69.0109L23.8146 151.072C25.8885 160.035 33.8741 166.388 43.0755 166.388Z" stroke="white" stroke-width="5"/>
<path opacity="0.15" d="M36.0907 69.4518H130.476C133.67 69.4518 136.257 72.0382 136.257 75.2325V133.015C136.257 136.209 133.67 138.796 130.476 138.796H36.0907C32.8965 138.796 30.3101 136.209 30.3101 133.015V75.2325C30.3101 72.0382 32.8965 69.4518 36.0907 69.4518Z" fill="#1F1D20"/>
<path opacity="0.15" d="M125.292 64.7081L84.9106 80.3934V125.792L99.4755 119.678V83.969L125.614 77.8546V131.192L84.9106 125.792L125.292 140.441L147.866 133.122V72.3124L125.292 64.7081Z" fill="#1F1D20"/>
<path d="M36.0907 65.7332H130.476C133.67 65.7332 136.257 68.3196 136.257 71.5139V129.297C136.257 132.491 133.67 135.077 130.476 135.077H36.0907C32.8965 135.077 30.3101 132.491 30.3101 129.297V71.5139C30.3101 68.3196 32.8965 65.7332 36.0907 65.7332Z" fill="url(#paint1_linear)" stroke="#A3A3A3" stroke-width="2.043"/>
<path d="M125.292 62.67L84.9106 78.3552V123.754L99.4755 117.64V81.9309L125.614 75.8165V129.153L84.9106 123.754L125.292 138.402L147.866 131.084V70.2742L125.292 62.67Z" fill="white"/>
<path opacity="0.2" d="M73.6948 90.4767V101.454H82.8366V105.077L86.4838 101.454H90.1309V90.4767H73.6948Z" fill="#1F1D21"/>
<path opacity="0.2" d="M67.1277 89.0227H36.5319C34.6607 89.0227 33.147 90.5483 33.147 92.4077V111.204C33.147 113.075 34.6726 114.589 36.5319 114.589H67.1277C68.9989 114.589 70.5126 113.063 70.5126 111.204V92.4196C70.5245 90.5364 69.0108 89.0227 67.1277 89.0227Z" fill="#1F1D21"/>
<path d="M67.1277 87.509H36.5319C34.6607 87.509 33.147 89.0346 33.147 90.8939V109.69C33.147 111.561 34.6726 113.075 36.5319 113.075H67.1277C68.9989 113.075 70.5126 111.549 70.5126 109.69V90.9058C70.5245 89.0346 69.0108 87.509 67.1277 87.509Z" fill="url(#paint2_linear)"/>
<path d="M51.9546 101.561C52.8485 101.561 53.5517 100.834 53.5517 99.9641C53.5517 99.0702 52.8246 98.367 51.9546 98.367C51.0606 98.367 50.3574 99.0941 50.3574 99.9641C50.3574 100.846 51.0726 101.561 51.9546 101.561Z" fill="white"/>
<path d="M51.9554 92.4553C47.8076 92.4553 44.4346 95.8164 44.4346 99.9761C44.4346 104.124 47.7957 107.497 51.9554 107.497C56.1031 107.497 59.4762 104.136 59.4762 99.9761C59.4762 95.8045 56.1031 92.4553 51.9554 92.4553ZM51.9554 106.007C48.63 106.007 45.9006 103.325 45.9006 99.9523C45.9006 96.5912 48.6181 93.8975 51.9554 93.8975C55.2927 93.8975 58.034 96.5793 58.034 99.9523C58.034 103.325 55.3165 106.007 51.9554 106.007Z" fill="white"/>
<path d="M82.6819 121.74C82.2528 117.914 78.9751 114.898 75.0181 114.898C71.0848 114.898 67.8429 117.842 67.3542 121.621C67.2827 121.883 67.2827 122.181 67.2827 122.431C67.3781 123.504 68.129 124.553 69.5473 125.375C72.5628 127.103 77.4853 127.103 80.4769 125.375C81.8833 124.565 82.6104 123.504 82.7176 122.431C82.7534 122.229 82.7176 121.966 82.6819 121.74Z" fill="#7B83EB"/>
<path d="M75.0175 113.802C77.5801 113.802 79.6539 111.74 79.6539 109.189C79.6539 106.639 77.5801 104.577 75.0175 104.577C72.4549 104.577 70.3811 106.639 70.3811 109.189C70.3572 111.728 72.4311 113.802 75.0175 113.802Z" fill="#7B83EB"/>
<path d="M64.8748 126.21C64.4457 122.384 61.168 119.368 57.2109 119.368C53.2777 119.368 50.0358 122.312 49.5471 126.09C49.4756 126.353 49.4756 126.651 49.4756 126.901C49.5709 127.974 50.3218 129.022 51.7402 129.845C54.7556 131.573 59.6781 131.573 62.6698 129.845C64.0762 129.034 64.8032 127.974 64.9105 126.901C64.9463 126.686 64.9105 126.424 64.8748 126.21Z" fill="#7B83EB"/>
<path d="M57.1985 118.272C59.761 118.272 61.8349 116.21 61.8349 113.659C61.8349 111.108 59.761 109.046 57.1985 109.046C54.6359 109.046 52.562 111.108 52.562 113.659C52.562 116.21 54.6478 118.272 57.1985 118.272Z" fill="#7B83EB"/>
<path d="M73.6948 88.963V99.9403H82.8366V103.564L86.4838 99.9403H90.1309V88.963H73.6948V88.963Z" fill="#5059C9"/>
<path opacity="0.2" d="M74.6126 71.9191H54.9941V85.5423H58.0215V88.534L61.0251 85.5423H74.6007L74.6126 71.9191Z" fill="#1F1D21"/>
<path d="M74.6126 70.6676H54.9941V84.2909H58.0215V87.2825L61.0251 84.2909H74.6007L74.6126 70.6676Z" fill="#5059C9"/>
<defs>
<linearGradient id="paint0_linear" x1="90.4009" y1="48.1394" x2="91.7705" y2="158.676" gradientUnits="userSpaceOnUse">
<stop stop-color="#00ABDE"/>
<stop offset="1" stop-color="#007ED8"/>
</linearGradient>
<linearGradient id="paint1_linear" x1="83.2811" y1="65.7314" x2="83.2811" y2="135.076" gradientUnits="userSpaceOnUse">
<stop stop-color="#555559"/>
<stop offset="1" stop-color="#2E2E33"/>
</linearGradient>
<linearGradient id="paint2_linear" x1="33.1451" y1="100.29" x2="70.5108" y2="100.29" gradientUnits="userSpaceOnUse">
<stop stop-color="#5A62C3"/>
<stop offset="0.5" stop-color="#4D55BD"/>
<stop offset="1" stop-color="#3940AB"/>
</linearGradient>
</defs>
</svg>
