<svg width="100" height="100" viewBox="0 0 100 100" fill="none" xmlns="http://www.w3.org/2000/svg">
<g clip-path="url(#clip0)">
<path d="M49.1926 96.4501C39.9344 96.4501 30.8842 93.7047 23.1863 88.5612C15.4885 83.4176 9.48873 76.1069 5.94579 67.5535C2.40285 59.0001 1.47586 49.5882 3.28203 40.5079C5.0882 31.4277 9.54643 23.0869 16.0929 16.5404C22.6394 9.99393 30.9802 5.53571 40.0604 3.72954C49.1407 1.92337 58.5526 2.85036 67.106 6.3933C75.6594 9.93624 82.9701 15.936 88.1137 23.6339C93.2572 31.3317 96.0026 40.382 96.0026 49.6401C96.003 55.7874 94.7925 61.8746 92.4403 67.554C90.088 73.2335 86.64 78.3939 82.2932 82.7407C77.9464 87.0875 72.7859 90.5355 67.1065 92.8878C61.4271 95.24 55.3399 96.4505 49.1926 96.4501V96.4501Z" fill="url(#paint0_linear)"/>
<path fill-rule="evenodd" clip-rule="evenodd" d="M95.5402 49.7108C95.5402 58.789 92.8483 67.6633 87.8047 75.2115C82.7611 82.7597 75.5925 88.6428 67.2054 92.1169C58.8183 95.5909 49.5893 96.4999 40.6856 94.7288C31.7819 92.9578 23.6033 88.5862 17.184 82.167C10.7648 75.7478 6.39326 67.5692 4.6222 58.6654C2.85114 49.7617 3.76011 40.5328 7.23417 32.1456C10.7082 23.7585 16.5914 16.5899 24.1396 11.5463C31.6878 6.50279 40.5621 3.8108 49.6402 3.8108C55.6679 3.81078 61.6366 4.998 67.2054 7.30468C72.7743 9.61137 77.8343 12.9923 82.0965 17.2545C86.3587 21.5168 89.7397 26.5767 92.0464 32.1456C94.353 37.7145 95.5403 43.6831 95.5402 49.7108V49.7108ZM49.6402 0.0708008C59.4581 0.0708008 69.0555 2.98214 77.2188 8.43665C85.382 13.8912 91.7445 21.6439 95.5016 30.7144C99.2588 39.7849 100.242 49.7659 98.3264 59.3951C96.4111 69.0243 91.6833 77.8693 84.741 84.8116C77.7987 91.7539 68.9537 96.4816 59.3245 98.397C49.6953 100.312 39.7144 99.3293 30.6438 95.5722C21.5733 91.815 13.8206 85.4526 8.36609 77.2893C2.91158 69.1261 0.000244502 59.5287 0.000244502 49.7108C-0.000542285 43.1918 1.2829 36.7364 3.77726 30.7135C6.27163 24.6905 9.92805 19.2179 14.5377 14.6083C19.1474 9.99861 24.62 6.34219 30.6429 3.84782C36.6659 1.35346 43.1212 0.0700227 49.6402 0.0708108V0.0708008Z" fill="#F2F1F0"/>
<path fill-rule="evenodd" clip-rule="evenodd" d="M92.2821 49.6401C92.2821 58.1625 89.7549 66.4935 85.0201 73.5796C80.2853 80.6657 73.5556 86.1887 65.6819 89.4501C57.8082 92.7114 49.1443 93.5648 40.7856 91.9021C32.427 90.2395 24.7491 86.1356 18.7228 80.1093C12.6966 74.0831 8.59266 66.4052 6.93002 58.0465C5.26739 49.6879 6.12071 41.0239 9.38209 33.1503C12.6435 25.2766 18.1664 18.5469 25.2525 13.8121C32.3387 9.07727 40.6697 6.55009 49.1921 6.55009C54.8508 6.54974 60.4542 7.66407 65.6823 9.82942C70.9104 11.9948 75.6607 15.1687 79.6621 19.1701C83.6634 23.1714 86.8374 27.9218 89.0027 33.1499C91.1681 38.3779 92.2824 43.9813 92.2821 49.6401V49.6401ZM49.1921 2.81009C58.4542 2.81009 67.5083 5.55662 75.2094 10.7024C82.9106 15.8481 88.9129 23.162 92.4573 31.719C96.0018 40.2761 96.9292 49.692 95.1222 58.7762C93.3153 67.8603 88.8552 76.2046 82.3059 82.7539C75.7566 89.3032 67.4123 93.7633 58.3281 95.5703C49.244 97.3772 39.8281 96.4498 31.271 92.9054C22.7139 89.3609 15.4001 83.3586 10.2543 75.6574C5.10859 67.9563 2.36206 58.9022 2.36206 49.6401C2.36325 37.2204 7.29749 25.3097 16.0796 16.5276C24.8616 7.7455 36.7723 2.81125 49.1921 2.81006V2.81009Z" fill="#0078D4"/>
<path fill-rule="evenodd" clip-rule="evenodd" d="M28.2816 76.4853C27.3099 76.4824 26.3788 76.0952 25.6917 75.4081C25.0046 74.721 24.6173 73.7899 24.6145 72.8182V26.9792C24.6173 26.0075 25.0046 25.0764 25.6917 24.3892C26.3788 23.7021 27.3099 23.3149 28.2816 23.312H64.9528C65.9245 23.3149 66.8556 23.7021 67.5427 24.3892C68.2298 25.0764 68.6171 26.0075 68.6199 26.9792V72.8182C68.6171 73.7899 68.2298 74.721 67.5427 75.4081C66.8556 76.0952 65.9245 76.4824 64.9528 76.4853H28.2816Z" fill="#1F56A3"/>
<path opacity="0.2" fill-rule="evenodd" clip-rule="evenodd" d="M64.9528 23.312H46.6172V76.4852H64.9528C65.9245 76.4824 66.8556 76.0951 67.5427 75.408C68.2298 74.7209 68.617 73.7898 68.6199 72.8181V26.9791C68.617 26.0074 68.2298 25.0763 67.5427 24.3892C66.8556 23.7021 65.9245 23.3149 64.9528 23.312Z" fill="#003067"/>
<path fill-rule="evenodd" clip-rule="evenodd" d="M27.3647 71.9015V27.8961C27.366 27.4102 27.5596 26.9445 27.9032 26.601C28.2468 26.2574 28.7124 26.0638 29.1983 26.0625H64.0359C64.5218 26.0638 64.9875 26.2574 65.3311 26.601C65.6746 26.9445 65.8682 27.4102 65.8695 27.8961V71.9015C65.8682 72.3874 65.6746 72.853 65.331 73.1966C64.9875 73.5402 64.5218 73.7338 64.0359 73.735H29.1983C28.7124 73.7338 28.2468 73.5402 27.9032 73.1966C27.5596 72.853 27.366 72.3874 27.3647 71.9015V71.9015Z" fill="white"/>
<path opacity="0.2" fill-rule="evenodd" clip-rule="evenodd" d="M36.5327 26.0624H37.4495V23.312H36.5327V26.0624Z" fill="#003067"/>
<path opacity="0.2" fill-rule="evenodd" clip-rule="evenodd" d="M54.8682 27.8963H38.3662C38.1233 27.8956 37.8905 27.7987 37.7188 27.627C37.547 27.4552 37.4502 27.2224 37.4495 26.9795V27.8963C37.4502 28.1392 37.547 28.372 37.7188 28.5437C37.8905 28.7155 38.1233 28.8123 38.3662 28.8131H54.8682C55.1112 28.8123 55.3439 28.7155 55.5157 28.5438C55.6875 28.372 55.7843 28.1392 55.785 27.8963V26.9795C55.7843 27.2224 55.6875 27.4552 55.5157 27.627C55.3439 27.7987 55.1112 27.8956 54.8682 27.8963V27.8963Z" fill="#546670"/>
<path fill-rule="evenodd" clip-rule="evenodd" d="M46.6173 19.6453C47.1034 19.6458 47.5695 19.8391 47.9132 20.1829C48.257 20.5266 48.4503 20.9927 48.4508 21.4788H44.7837C44.784 20.9927 44.9773 20.5265 45.3211 20.1827C45.6649 19.8389 46.1311 19.6456 46.6173 19.6453ZM54.8683 21.4788H50.2844C50.2852 20.9968 50.1909 20.5192 50.007 20.0736C49.823 19.628 49.553 19.223 49.2124 18.8819C48.8718 18.5407 48.4673 18.2701 48.022 18.0854C47.5767 17.9007 47.0993 17.8057 46.6172 17.8057C46.1352 17.8057 45.6578 17.9007 45.2125 18.0854C44.7672 18.2701 44.3627 18.5407 44.0221 18.8819C43.6815 19.223 43.4115 19.628 43.2275 20.0736C43.0436 20.5192 42.9493 20.9968 42.9501 21.4788H38.3662C38.1233 21.4796 37.8905 21.5764 37.7188 21.7481C37.547 21.9199 37.4502 22.1527 37.4495 22.3956V26.9795C37.4502 27.2225 37.547 27.4552 37.7188 27.627C37.8905 27.7988 38.1233 27.8956 38.3662 27.8963H54.8682C55.1112 27.8956 55.3439 27.7988 55.5157 27.627C55.6875 27.4552 55.7843 27.2225 55.785 26.9795V22.3956C55.7843 22.1527 55.6875 21.9199 55.5157 21.7482C55.344 21.5764 55.1112 21.4796 54.8683 21.4788H54.8683Z" fill="#B3B3B3"/>
<path opacity="0.2" fill-rule="evenodd" clip-rule="evenodd" d="M55.7849 26.9792V22.3953C55.7842 22.1524 55.6874 21.9196 55.5156 21.7478C55.3438 21.576 55.1111 21.4792 54.8681 21.4785H51.201L48.4507 27.896H54.8681C55.1111 27.8953 55.3438 27.7985 55.5156 27.6267C55.6874 27.4549 55.7842 27.2221 55.7849 26.9792Z" fill="#E8E8E8"/>
<path opacity="0.2" fill-rule="evenodd" clip-rule="evenodd" d="M47.2453 17.8745L46.4807 19.6585C46.5266 19.6548 46.5706 19.6448 46.6173 19.6448C47.1035 19.6453 47.5696 19.8386 47.9133 20.1823C48.2571 20.5261 48.4504 20.9922 48.4509 21.4783H45.7006L42.9502 27.8958H46.6173L49.9865 20.0336C49.7449 19.4743 49.3678 18.984 48.8892 18.607C48.4106 18.2301 47.8456 17.9783 47.2453 17.8745V17.8745Z" fill="#E8E8E8"/>
<path opacity="0.2" fill-rule="evenodd" clip-rule="evenodd" d="M64.9864 76.4853C65.95 76.4853 66.8743 76.1025 67.5557 75.4211C68.2371 74.7397 68.6199 73.8155 68.6199 72.8518V52.7808C68.2817 53.2259 68.0737 53.7561 68.0189 54.3125L50.6637 71.6689C49.9911 72.3234 49.4789 73.1246 49.1671 74.0099L48.5159 76.4853L64.9864 76.4853Z" fill="#767676"/>
<path opacity="0.2" d="M33.6947 32.3506H50.1987C50.7823 32.3506 51.342 32.5824 51.7547 32.9951C52.1674 33.4078 52.3993 33.9675 52.3993 34.5511V69.7599C52.3993 70.3435 52.1674 70.9032 51.7547 71.3159C51.342 71.7286 50.7823 71.9604 50.1987 71.9604H33.6946C33.111 71.9604 32.5513 71.7286 32.1386 71.316C31.726 70.9033 31.4941 70.3436 31.4941 69.76V34.5511C31.4941 34.2622 31.5511 33.976 31.6616 33.709C31.7722 33.442 31.9343 33.1995 32.1387 32.9951C32.343 32.7908 32.5856 32.6287 32.8526 32.5181C33.1196 32.4075 33.4057 32.3506 33.6947 32.3506V32.3506Z" fill="#003067"/>
<path fill-rule="evenodd" clip-rule="evenodd" d="M52.3994 68.7599C52.3977 69.343 52.1653 69.9017 51.753 70.3141C51.3406 70.7264 50.7819 70.9588 50.1988 70.9605H33.6947C33.1116 70.9588 32.5529 70.7264 32.1405 70.3141C31.7282 69.9017 31.4958 69.343 31.4941 68.7599V33.5511C31.4958 32.968 31.7282 32.4093 32.1406 31.997C32.5529 31.5847 33.1116 31.3523 33.6947 31.3506H50.1988C50.7819 31.3523 51.3406 31.5847 51.753 31.997C52.1653 32.4093 52.3977 32.968 52.3994 33.5511V68.7599Z" fill="#003067"/>
<path fill-rule="evenodd" clip-rule="evenodd" d="M33.1445 64.9087H50.7489V35.7515H33.1445V64.9087Z" fill="#1F56A3"/>
<path fill-rule="evenodd" clip-rule="evenodd" d="M43.5972 67.6597C43.5972 67.9861 43.5004 68.3052 43.3191 68.5766C43.1377 68.848 42.88 69.0595 42.5784 69.1845C42.2768 69.3094 41.945 69.3421 41.6248 69.2784C41.3047 69.2147 41.0106 69.0575 40.7798 68.8267C40.549 68.5959 40.3918 68.3018 40.3281 67.9817C40.2644 67.6615 40.2971 67.3297 40.422 67.0281C40.5469 66.7265 40.7585 66.4688 41.0299 66.2874C41.3013 66.1061 41.6204 66.0093 41.9468 66.0093C42.1635 66.0093 42.3782 66.0519 42.5784 66.1349C42.7786 66.2178 42.9606 66.3394 43.1138 66.4926C43.2671 66.6459 43.3887 66.8278 43.4716 67.0281C43.5545 67.2283 43.5972 67.4429 43.5972 67.6597V67.6597Z" fill="#1F56A3"/>
<path fill-rule="evenodd" clip-rule="evenodd" d="M44.1473 34.6515H39.7462C39.6003 34.6515 39.4603 34.5936 39.3572 34.4904C39.254 34.3872 39.196 34.2473 39.196 34.1014C39.196 33.9555 39.254 33.8156 39.3572 33.7124C39.4603 33.6092 39.6003 33.5513 39.7462 33.5513H44.1473C44.2932 33.5513 44.4331 33.6092 44.5363 33.7124C44.6395 33.8156 44.6974 33.9555 44.6974 34.1014C44.6974 34.2473 44.6395 34.3872 44.5363 34.4904C44.4331 34.5936 44.2932 34.6515 44.1473 34.6515Z" fill="#1F56A3"/>
<path d="M47.106 45.5453C48.2997 45.5453 49.2673 44.5776 49.2673 43.384C49.2673 42.1903 48.2997 41.2227 47.106 41.2227H36.7882C35.5946 41.2227 34.6269 42.1903 34.6269 43.384C34.6269 44.5776 35.5946 45.5453 36.7882 45.5453H47.106Z" fill="#1F56A3"/>
<path fill-rule="evenodd" clip-rule="evenodd" d="M36.788 44.8503C36.3998 44.8492 36.0279 44.6943 35.7538 44.4195C35.4796 44.1446 35.3257 43.7723 35.3257 43.3841C35.3257 42.9959 35.4796 42.6236 35.7538 42.3487C36.0279 42.0739 36.3998 41.919 36.788 41.918H47.1061C47.2989 41.9175 47.49 41.955 47.6683 42.0285C47.8466 42.1019 48.0087 42.2098 48.1453 42.346C48.2818 42.4822 48.3902 42.644 48.4641 42.8222C48.538 43.0003 48.5761 43.1913 48.5761 43.3841C48.5761 43.577 48.538 43.7679 48.4641 43.9461C48.3902 44.1242 48.2818 44.286 48.1453 44.4222C48.0087 44.5584 47.8466 44.6663 47.6683 44.7398C47.49 44.8132 47.2989 44.8508 47.1061 44.8503H36.788Z" fill="#0078D4"/>
<path d="M47.1063 44.8503C47.916 44.8503 48.5724 44.1938 48.5724 43.3841C48.5724 42.5744 47.916 41.918 47.1063 41.918C46.2966 41.918 45.6401 42.5744 45.6401 43.3841C45.6401 44.1938 46.2966 44.8503 47.1063 44.8503Z" fill="white"/>
<path d="M47.106 52.7489C48.2997 52.7489 49.2673 51.7812 49.2673 50.5876C49.2673 49.3939 48.2997 48.4263 47.106 48.4263H36.7882C35.5946 48.4263 34.6269 49.3939 34.6269 50.5876C34.6269 51.7812 35.5946 52.7489 36.7882 52.7489H47.106Z" fill="#1F56A3"/>
<path fill-rule="evenodd" clip-rule="evenodd" d="M36.788 52.0539C36.3998 52.0529 36.0279 51.898 35.7538 51.6231C35.4796 51.3483 35.3257 50.9759 35.3257 50.5877C35.3257 50.1996 35.4796 49.8272 35.7538 49.5524C36.0279 49.2775 36.3998 49.1226 36.788 49.1216H47.1061C47.2989 49.1211 47.49 49.1586 47.6683 49.2321C47.8466 49.3055 48.0087 49.4135 48.1453 49.5497C48.2818 49.6859 48.3902 49.8476 48.4641 50.0258C48.538 50.2039 48.5761 50.3949 48.5761 50.5877C48.5761 50.7806 48.538 50.9716 48.4641 51.1497C48.3902 51.3278 48.2818 51.4896 48.1453 51.6258C48.0087 51.762 47.8466 51.8699 47.6683 51.9434C47.49 52.0168 47.2989 52.0544 47.1061 52.0539H36.788Z" fill="#0078D4"/>
<path d="M41.9471 52.0539C42.7568 52.0539 43.4133 51.3975 43.4133 50.5877C43.4133 49.778 42.7568 49.1216 41.9471 49.1216C41.1374 49.1216 40.481 49.778 40.481 50.5877C40.481 51.3975 41.1374 52.0539 41.9471 52.0539Z" fill="white"/>
<path d="M47.106 59.995C48.2997 59.995 49.2673 59.0273 49.2673 57.8337C49.2673 56.64 48.2997 55.6724 47.106 55.6724H36.7882C35.5946 55.6724 34.6269 56.64 34.6269 57.8337C34.6269 59.0273 35.5946 59.995 36.7882 59.995H47.106Z" fill="#1F56A3"/>
<path fill-rule="evenodd" clip-rule="evenodd" d="M36.788 59.3C36.3998 59.299 36.0279 59.144 35.7538 58.8692C35.4796 58.5943 35.3257 58.222 35.3257 57.8338C35.3257 57.4456 35.4796 57.0733 35.7538 56.7985C36.0279 56.5236 36.3998 56.3687 36.788 56.3677H47.1061C47.2989 56.3672 47.49 56.4047 47.6683 56.4782C47.8466 56.5516 48.0087 56.6596 48.1453 56.7957C48.2818 56.9319 48.3902 57.0937 48.4641 57.2719C48.538 57.45 48.5761 57.641 48.5761 57.8338C48.5761 58.0267 48.538 58.2176 48.4641 58.3958C48.3902 58.5739 48.2818 58.7357 48.1453 58.8719C48.0087 59.0081 47.8466 59.116 47.6683 59.1895C47.49 59.2629 47.2989 59.3005 47.1061 59.3H36.788Z" fill="#0078D4"/>
<path d="M36.7884 59.3C37.5981 59.3 38.2546 58.6436 38.2546 57.8338C38.2546 57.0241 37.5981 56.3677 36.7884 56.3677C35.9787 56.3677 35.3223 57.0241 35.3223 57.8338C35.3223 58.6436 35.9787 59.3 36.7884 59.3Z" fill="white"/>
<path fill-rule="evenodd" clip-rule="evenodd" d="M61.1706 41.6637C61.0576 41.5508 60.9043 41.4873 60.7446 41.4873C60.5848 41.4873 60.4315 41.5508 60.3185 41.6637L58.3324 43.6484L57.6149 42.9379C57.5982 42.913 57.5792 42.8896 57.5583 42.868C57.4462 42.755 57.2938 42.6909 57.1346 42.6899C56.9754 42.6889 56.8222 42.751 56.7087 42.8627C56.5952 42.9743 56.5305 43.1264 56.5288 43.2857C56.5272 43.4449 56.5887 43.5983 56.6999 43.7123L56.6927 43.7195L57.9081 44.9238C58.0212 45.0367 58.1745 45.1001 58.3343 45.1001C58.4941 45.1001 58.6474 45.0367 58.7605 44.9238L61.1688 42.5166L61.1706 42.5151C61.2266 42.4592 61.2709 42.3929 61.3012 42.3198C61.3315 42.2468 61.3471 42.1685 61.3471 42.0894C61.3471 42.0103 61.3315 41.932 61.3012 41.859C61.2709 41.7859 61.2265 41.7196 61.1706 41.6637V41.6637Z" fill="#1F56A3"/>
<path fill-rule="evenodd" clip-rule="evenodd" d="M61.1706 48.7003C61.0576 48.5874 60.9043 48.5239 60.7446 48.5239C60.5848 48.5239 60.4315 48.5874 60.3185 48.7003L58.3324 50.6851L57.6149 49.9745C57.5982 49.9496 57.5792 49.9262 57.5583 49.9047C57.4462 49.7916 57.2938 49.7276 57.1346 49.7266C56.9754 49.7256 56.8222 49.7877 56.7087 49.8993C56.5952 50.011 56.5305 50.1631 56.5288 50.3223C56.5272 50.4815 56.5887 50.6349 56.6999 50.7489L56.6927 50.7562L57.9081 51.9605C58.0212 52.0734 58.1745 52.1368 58.3343 52.1368C58.4941 52.1368 58.6474 52.0734 58.7605 51.9605L61.1688 49.5532L61.1706 49.5518C61.2266 49.4959 61.271 49.4295 61.3012 49.3565C61.3315 49.2834 61.3471 49.2051 61.3471 49.126C61.3471 49.047 61.3315 48.9687 61.3012 48.8956C61.2709 48.8226 61.2266 48.7562 61.1706 48.7003V48.7003Z" fill="#B3B3B3"/>
<path fill-rule="evenodd" clip-rule="evenodd" d="M61.1707 56.2037C61.0576 56.0908 60.9044 56.0273 60.7446 56.0273C60.5848 56.0273 60.4316 56.0908 60.3186 56.2037L58.3324 58.1885L57.615 57.4779C57.5982 57.453 57.5793 57.4296 57.5583 57.4081C57.4463 57.2947 57.2938 57.2303 57.1344 57.2292C56.975 57.228 56.8216 57.2902 56.708 57.4019C56.5943 57.5137 56.5296 57.6661 56.5281 57.8255C56.5266 57.9849 56.5884 58.1384 56.6999 58.2523L56.6927 58.2595L57.9082 59.4639C58.0213 59.5768 58.1746 59.6402 58.3344 59.6402C58.4942 59.6402 58.6475 59.5768 58.7606 59.4639L61.1689 57.0566L61.1707 57.0552C61.2266 56.9993 61.271 56.9329 61.3013 56.8599C61.3316 56.7868 61.3471 56.7085 61.3471 56.6295C61.3471 56.5504 61.3316 56.4721 61.3013 56.399C61.271 56.326 61.2266 56.2596 61.1707 56.2037V56.2037Z" fill="#B3B3B3"/>
<path fill-rule="evenodd" clip-rule="evenodd" d="M52.3206 73.3252C51.9503 73.6953 51.6498 74.1293 51.4337 74.6062L48.9703 83.9673C48.9397 84.1815 48.9594 84.3998 49.0278 84.605C49.0962 84.8103 49.2115 84.9968 49.3644 85.1498C49.5174 85.3027 49.7039 85.418 49.9091 85.4864C50.1144 85.5548 50.3327 85.5745 50.5469 85.5439L59.908 83.0805C60.3849 82.8643 60.8189 82.5639 61.189 82.1936L52.3206 73.3252Z" fill="#E1E4E1"/>
<path fill-rule="evenodd" clip-rule="evenodd" d="M52.321 73.3252C51.9507 73.6953 51.6502 74.1293 51.4342 74.6062L48.9707 83.9673C48.9406 84.1814 48.9605 84.3997 49.0289 84.6048C49.0972 84.81 49.2122 84.9965 49.3648 85.1497L56.7552 77.7594L52.321 73.3252Z" fill="#C5CCCD"/>
<path fill-rule="evenodd" clip-rule="evenodd" d="M73.5067 52.1396L71.0432 54.6031C70.7824 54.8647 70.636 55.2191 70.636 55.5885C70.636 55.9579 70.7824 56.3122 71.0432 56.5739L77.9409 63.4715C78.2025 63.7324 78.5568 63.8789 78.9263 63.8789C79.2957 63.8789 79.6501 63.7324 79.9117 63.4715L82.3752 61.0081C82.6361 60.7465 82.7826 60.3921 82.7826 60.0227C82.7826 59.6533 82.6361 59.2989 82.3752 59.0373L75.4775 52.1396C75.2159 51.8789 74.8615 51.7324 74.4921 51.7324C74.1227 51.7324 73.7684 51.8789 73.5067 52.1396Z" fill="#546670"/>
<path fill-rule="evenodd" clip-rule="evenodd" d="M77.2019 55.8348L73.5066 52.1396L71.0432 54.6031L79.9117 63.4716L80.897 62.4862L77.2019 58.791C77.1047 58.694 77.0277 58.5788 76.9751 58.452C76.9226 58.3252 76.8955 58.1892 76.8955 58.052C76.8955 57.9147 76.9226 57.7787 76.9751 57.6519C77.0277 57.5251 77.1047 57.4099 77.2019 57.3129C77.299 57.2159 77.376 57.1007 77.4286 56.9739C77.4811 56.8471 77.5082 56.7111 77.5082 56.5739C77.5082 56.4366 77.4811 56.3007 77.4286 56.1739C77.376 56.0471 77.299 55.9319 77.2019 55.8348V55.8348Z" fill="#30404D"/>
<path fill-rule="evenodd" clip-rule="evenodd" d="M73.9994 57.5591L76.9555 60.5152L58.2333 79.2375L55.7698 78.7448L55.2771 76.2813L73.9994 57.5591Z" fill="#EFB252"/>
<path fill-rule="evenodd" clip-rule="evenodd" d="M71.0428 54.603L73.999 57.5592L55.2767 76.2815L52.8132 75.7888L52.3206 73.3253L71.0428 54.603Z" fill="#CC9547"/>
<path fill-rule="evenodd" clip-rule="evenodd" d="M76.9552 60.5151L79.9113 63.4713L61.1891 82.1936L58.7256 81.7009L58.2329 79.2374L76.9552 60.5151Z" fill="#F7CB64"/>
<path fill-rule="evenodd" clip-rule="evenodd" d="M49.628 81.4712L48.9708 83.9672C48.9402 84.1814 48.9599 84.3997 49.0283 84.6049C49.0967 84.8102 49.212 84.9967 49.365 85.1496C49.518 85.3026 49.7044 85.4179 49.9097 85.4863C50.1149 85.5547 50.3333 85.5744 50.5474 85.5438L53.0434 84.8865L49.628 81.4712Z" fill="#30404D"/>
<path fill-rule="evenodd" clip-rule="evenodd" d="M49.6279 81.4712L48.9707 83.9672C48.9405 84.1813 48.9605 84.3996 49.0288 84.6047C49.0972 84.8099 49.2122 84.9964 49.3648 85.1497L51.3356 83.1789L49.6279 81.4712Z" fill="#182A37"/>
<path fill-rule="evenodd" clip-rule="evenodd" d="M70.5508 54.1103C70.6816 53.98 70.8587 53.9067 71.0434 53.9067C71.2282 53.9067 71.4053 53.98 71.5361 54.1103L80.4046 62.9788C80.5345 63.1096 80.6072 63.2866 80.6069 63.471C80.6065 63.6553 80.5332 63.832 80.4028 63.9624C80.2724 64.0927 80.0957 64.1661 79.9114 64.1665C79.727 64.1668 79.5501 64.0941 79.4192 63.9642L70.5508 55.0957C70.4204 54.9649 70.3472 54.7877 70.3472 54.603C70.3472 54.4183 70.4204 54.2412 70.5508 54.1103Z" fill="#ADBDC4"/>
<path fill-rule="evenodd" clip-rule="evenodd" d="M70.5505 54.1103C70.4201 54.2412 70.3469 54.4183 70.3469 54.603C70.3469 54.7877 70.4201 54.9649 70.5505 55.0957L74.9848 59.5299L75.9701 58.5446L71.5359 54.1103C71.4051 53.98 71.2279 53.9067 71.0432 53.9067C70.8585 53.9067 70.6813 53.98 70.5505 54.1103V54.1103Z" fill="#8BA6B1"/>
<path fill-rule="evenodd" clip-rule="evenodd" d="M76.4627 61.0079L73.5066 58.0518L73.0139 58.5444L75.97 61.5006L76.4627 61.0079Z" fill="#CC9547"/>
<path fill-rule="evenodd" clip-rule="evenodd" d="M79.4186 63.964L76.4624 61.0078L75.9697 61.5005L78.9259 64.4566L79.4186 63.964Z" fill="#EFB252"/>
</g>
<defs>
<linearGradient id="paint0_linear" x1="47.4222" y1="-15.153" x2="51.405" y2="130.615" gradientUnits="userSpaceOnUse">
<stop stop-color="#00ABDE"/>
<stop offset="1" stop-color="#007ED8"/>
</linearGradient>
<clipPath id="clip0">
<rect width="99.2799" height="99.28" fill="white"/>
</clipPath>
</defs>
</svg>
