<svg width="100" height="100" viewBox="0 0 100 100" fill="none" xmlns="http://www.w3.org/2000/svg">
<g clip-path="url(#clip0)">
<path d="M49.1926 96.4501C39.9344 96.4501 30.8842 93.7047 23.1863 88.5612C15.4885 83.4176 9.48873 76.1069 5.94579 67.5535C2.40285 59.0001 1.47586 49.5882 3.28203 40.5079C5.0882 31.4277 9.54643 23.0869 16.0929 16.5404C22.6394 9.99393 30.9802 5.53571 40.0604 3.72954C49.1407 1.92337 58.5526 2.85036 67.106 6.3933C75.6594 9.93624 82.9701 15.936 88.1137 23.6339C93.2572 31.3317 96.0026 40.382 96.0026 49.6401C96.003 55.7874 94.7925 61.8746 92.4403 67.554C90.088 73.2335 86.64 78.3939 82.2932 82.7407C77.9464 87.0875 72.7859 90.5355 67.1065 92.8878C61.4271 95.24 55.3399 96.4505 49.1926 96.4501V96.4501Z" fill="url(#paint0_linear)"/>
<path fill-rule="evenodd" clip-rule="evenodd" d="M95.5402 49.7108C95.5402 58.789 92.8483 67.6633 87.8047 75.2115C82.7611 82.7597 75.5925 88.6428 67.2054 92.1169C58.8183 95.5909 49.5893 96.4999 40.6856 94.7288C31.7819 92.9578 23.6033 88.5862 17.184 82.167C10.7648 75.7478 6.39326 67.5692 4.6222 58.6654C2.85114 49.7617 3.76011 40.5328 7.23417 32.1456C10.7082 23.7585 16.5914 16.5899 24.1396 11.5463C31.6878 6.50279 40.5621 3.8108 49.6402 3.8108C55.6679 3.81078 61.6366 4.998 67.2054 7.30468C72.7743 9.61137 77.8343 12.9923 82.0965 17.2545C86.3587 21.5168 89.7397 26.5767 92.0464 32.1456C94.353 37.7145 95.5403 43.6831 95.5402 49.7108V49.7108ZM49.6402 0.0708008C59.4581 0.0708008 69.0555 2.98214 77.2188 8.43665C85.382 13.8912 91.7445 21.6439 95.5016 30.7144C99.2588 39.7849 100.242 49.7659 98.3264 59.3951C96.4111 69.0243 91.6833 77.8693 84.741 84.8116C77.7987 91.7539 68.9537 96.4816 59.3245 98.397C49.6953 100.312 39.7144 99.3293 30.6438 95.5722C21.5733 91.815 13.8206 85.4526 8.36609 77.2893C2.91158 69.1261 0.000244502 59.5287 0.000244502 49.7108C-0.000542285 43.1918 1.2829 36.7364 3.77726 30.7135C6.27163 24.6905 9.92805 19.2179 14.5377 14.6083C19.1474 9.99861 24.62 6.34219 30.6429 3.84782C36.6659 1.35346 43.1212 0.0700227 49.6402 0.0708108V0.0708008Z" fill="#F2F1F0"/>
<path fill-rule="evenodd" clip-rule="evenodd" d="M92.2821 49.6401C92.2821 58.1625 89.7549 66.4935 85.0201 73.5796C80.2853 80.6657 73.5556 86.1887 65.6819 89.4501C57.8082 92.7114 49.1443 93.5648 40.7856 91.9021C32.427 90.2395 24.7491 86.1356 18.7228 80.1093C12.6966 74.0831 8.59266 66.4052 6.93002 58.0465C5.26739 49.6879 6.12071 41.0239 9.38209 33.1503C12.6435 25.2766 18.1664 18.5469 25.2525 13.8121C32.3387 9.07727 40.6697 6.55009 49.1921 6.55009C54.8508 6.54974 60.4542 7.66407 65.6823 9.82942C70.9104 11.9948 75.6607 15.1687 79.6621 19.1701C83.6634 23.1714 86.8374 27.9218 89.0027 33.1499C91.1681 38.3779 92.2824 43.9813 92.2821 49.6401V49.6401ZM49.1921 2.81009C58.4542 2.81009 67.5083 5.55662 75.2094 10.7024C82.9106 15.8481 88.9129 23.162 92.4573 31.719C96.0018 40.2761 96.9292 49.692 95.1222 58.7762C93.3153 67.8603 88.8552 76.2046 82.3059 82.7539C75.7566 89.3032 67.4123 93.7633 58.3281 95.5703C49.244 97.3772 39.8281 96.4498 31.271 92.9054C22.7139 89.3609 15.4001 83.3586 10.2543 75.6574C5.10859 67.9563 2.36206 58.9022 2.36206 49.6401C2.36325 37.2204 7.29749 25.3097 16.0796 16.5276C24.8616 7.7455 36.7723 2.81125 49.1921 2.81006V2.81009Z" fill="#0078D4"/>
<path fill-rule="evenodd" clip-rule="evenodd" d="M54.8969 68.7809C54.8946 69.5753 54.578 70.3366 54.0162 70.8983C53.4545 71.4601 52.6932 71.7767 51.8988 71.7791H29.4123C28.6178 71.7767 27.8565 71.4601 27.2948 70.8983C26.733 70.3366 26.4164 69.5753 26.4141 68.7809V20.8097C26.4164 20.0153 26.733 19.254 27.2948 18.6922C27.8566 18.1305 28.6178 17.8138 29.4123 17.8115H51.8988C52.6932 17.8138 53.4545 18.1305 54.0162 18.6922C54.578 19.254 54.8946 20.0153 54.8969 20.8097V68.7809Z" fill="#003067"/>
<path fill-rule="evenodd" clip-rule="evenodd" d="M28.6626 63.5342H52.6482V23.8081H28.6626V63.5342Z" fill="#1F56A3"/>
<path fill-rule="evenodd" clip-rule="evenodd" d="M42.904 67.2818C42.904 67.7266 42.7722 68.1613 42.5251 68.5311C42.278 68.9009 41.9268 69.1891 41.5159 69.3593C41.105 69.5295 40.6529 69.5741 40.2167 69.4873C39.7805 69.4005 39.3798 69.1864 39.0654 68.8719C38.7509 68.5574 38.5367 68.1567 38.4499 67.7206C38.3632 67.2844 38.4077 66.8322 38.5779 66.4213C38.7481 66.0104 39.0363 65.6593 39.4061 65.4122C39.7759 65.1651 40.2106 65.0332 40.6554 65.0332C40.9507 65.0332 41.2431 65.0913 41.5159 65.2043C41.7888 65.3173 42.0367 65.483 42.2455 65.6918C42.4543 65.9006 42.6199 66.1485 42.7329 66.4213C42.8459 66.6941 42.9041 66.9865 42.904 67.2818Z" fill="#1F56A3"/>
<path fill-rule="evenodd" clip-rule="evenodd" d="M43.6537 22.3087H37.6573C37.4585 22.3087 37.2678 22.2297 37.1273 22.0891C36.9867 21.9486 36.9077 21.7579 36.9077 21.5591C36.9077 21.3603 36.9867 21.1697 37.1273 21.0291C37.2678 20.8885 37.4585 20.8096 37.6573 20.8096H43.6537C43.8524 20.8096 44.0431 20.8885 44.1837 21.0291C44.3242 21.1697 44.4032 21.3603 44.4032 21.5591C44.4032 21.7579 44.3242 21.9486 44.1837 22.0891C44.0431 22.2297 43.8524 22.3087 43.6537 22.3087V22.3087Z" fill="#1F56A3"/>
<path d="M47.6847 44.3943C49.311 44.3943 50.6294 43.0759 50.6294 41.4496C50.6294 39.8233 49.311 38.5049 47.6847 38.5049H33.6269C32.0005 38.5049 30.6821 39.8233 30.6821 41.4496C30.6821 43.0759 32.0005 44.3943 33.6269 44.3943H47.6847Z" fill="#1F56A3"/>
<path fill-rule="evenodd" clip-rule="evenodd" d="M33.6267 43.4473C33.0977 43.4462 32.5907 43.2352 32.217 42.8607C31.8434 42.4862 31.6335 41.9788 31.6335 41.4497C31.6335 40.9207 31.8434 40.4133 32.217 40.0388C32.5907 39.6643 33.0977 39.4533 33.6267 39.4522H47.6848C47.9475 39.4516 48.2078 39.5028 48.4506 39.6029C48.6935 39.7031 48.9143 39.8501 49.1002 40.0357C49.2862 40.2212 49.4337 40.4416 49.5344 40.6843C49.6351 40.9269 49.6869 41.187 49.6869 41.4497C49.6869 41.7125 49.6351 41.9726 49.5344 42.2152C49.4337 42.4579 49.2862 42.6783 49.1002 42.8638C48.9143 43.0494 48.6935 43.1964 48.4506 43.2966C48.2078 43.3967 47.9475 43.4479 47.6848 43.4473H33.6267Z" fill="#0078D4"/>
<path d="M47.6851 43.4473C48.7883 43.4473 49.6827 42.553 49.6827 41.4497C49.6827 40.3465 48.7883 39.4521 47.6851 39.4521C46.5819 39.4521 45.6875 40.3465 45.6875 41.4497C45.6875 42.553 46.5819 43.4473 47.6851 43.4473Z" fill="white"/>
<path d="M47.6847 52.2693C49.311 52.2693 50.6294 50.9509 50.6294 49.3246C50.6294 47.6983 49.311 46.3799 47.6847 46.3799H33.6269C32.0005 46.3799 30.6821 47.6983 30.6821 49.3246C30.6821 50.9509 32.0005 52.2693 33.6269 52.2693H47.6847Z" fill="#1F56A3"/>
<path fill-rule="evenodd" clip-rule="evenodd" d="M33.6267 51.3218C33.0969 51.3218 32.5889 51.1114 32.2142 50.7368C31.8396 50.3621 31.6292 49.854 31.6292 49.3242C31.6292 48.7945 31.8396 48.2864 32.2142 47.9117C32.5889 47.5371 33.0969 47.3267 33.6267 47.3267H47.6849C48.2147 47.3267 48.7228 47.5371 49.0974 47.9117C49.472 48.2864 49.6825 48.7945 49.6825 49.3242C49.6825 49.854 49.472 50.3621 49.0974 50.7368C48.7228 51.1114 48.2147 51.3218 47.6849 51.3218H33.6267Z" fill="#0078D4"/>
<path d="M40.6558 51.3218C41.759 51.3218 42.6534 50.4275 42.6534 49.3243C42.6534 48.221 41.759 47.3267 40.6558 47.3267C39.5526 47.3267 38.6582 48.221 38.6582 49.3243C38.6582 50.4275 39.5526 51.3218 40.6558 51.3218Z" fill="white"/>
<path d="M47.6847 60.1438C49.311 60.1438 50.6294 58.8254 50.6294 57.1991C50.6294 55.5728 49.311 54.2544 47.6847 54.2544H33.6269C32.0005 54.2544 30.6821 55.5728 30.6821 57.1991C30.6821 58.8254 32.0005 60.1438 33.6269 60.1438H47.6847Z" fill="#1F56A3"/>
<path fill-rule="evenodd" clip-rule="evenodd" d="M33.6267 59.1968C33.0969 59.1968 32.5889 58.9864 32.2142 58.6118C31.8396 58.2371 31.6292 57.729 31.6292 57.1992C31.6292 56.6695 31.8396 56.1614 32.2142 55.7867C32.5889 55.4121 33.0969 55.2017 33.6267 55.2017H47.6849C47.9472 55.2017 48.207 55.2533 48.4493 55.3537C48.6917 55.4541 48.9119 55.6012 49.0974 55.7867C49.2829 55.9722 49.43 56.1924 49.5304 56.4348C49.6308 56.6772 49.6825 56.9369 49.6825 57.1992C49.6825 57.4616 49.6308 57.7213 49.5304 57.9637C49.43 58.2061 49.2829 58.4263 49.0974 58.6118C48.9119 58.7973 48.6917 58.9444 48.4493 59.0448C48.207 59.1452 47.9472 59.1968 47.6849 59.1968H33.6267Z" fill="#0078D4"/>
<path d="M33.6272 59.1968C34.7305 59.1968 35.6248 58.3025 35.6248 57.1992C35.6248 56.096 34.7305 55.2017 33.6272 55.2017C32.524 55.2017 31.6296 56.096 31.6296 57.1992C31.6296 58.3025 32.524 59.1968 33.6272 59.1968Z" fill="white"/>
<path fill-rule="evenodd" clip-rule="evenodd" d="M43.6983 29.6236C43.5443 29.4697 43.3355 29.3833 43.1178 29.3833C42.9001 29.3833 42.6913 29.4697 42.5373 29.6236L39.8312 32.3278L38.8538 31.3597C38.8309 31.3257 38.8051 31.2939 38.7766 31.2645C38.6237 31.1113 38.4163 31.0247 38.1998 31.0237C37.9833 31.0226 37.7752 31.1073 37.6208 31.2591C37.4665 31.4109 37.3784 31.6176 37.3758 31.8341C37.3732 32.0506 37.4563 32.2593 37.607 32.4148L37.5972 32.4246L39.2532 34.0655C39.4073 34.2194 39.6161 34.3058 39.8338 34.3058C40.0516 34.3058 40.2604 34.2194 40.4145 34.0655L43.6958 30.7857L43.6983 30.7837C43.7745 30.7076 43.8349 30.6171 43.8762 30.5176C43.9175 30.4181 43.9387 30.3114 43.9387 30.2037C43.9387 30.0959 43.9175 29.9893 43.8762 29.8897C43.835 29.7902 43.7745 29.6998 43.6983 29.6236V29.6236Z" fill="white"/>
<path opacity="0.2" fill-rule="evenodd" clip-rule="evenodd" d="M54.9001 71.779V44.2129C54.2535 44.3567 53.6857 44.741 53.3118 45.2878H49.1655C48.0168 45.2892 46.9155 45.7461 46.1033 46.5585C45.2911 47.3708 44.8343 48.4721 44.833 49.6208V71.779H54.9001Z" fill="#001834"/>
<path fill-rule="evenodd" clip-rule="evenodd" d="M49.1656 80.5868C48.5578 80.5851 47.9754 80.3428 47.5456 79.9131C47.1158 79.4833 46.8736 78.9009 46.8718 78.2931V49.6209C46.8736 49.0131 47.1158 48.4307 47.5456 48.0009C47.9754 47.5712 48.5578 47.3289 49.1656 47.3271H72.1033C72.7111 47.3289 73.2935 47.5712 73.7233 48.0009C74.1531 48.4307 74.3953 49.0131 74.3971 49.6209V78.2931C74.3953 78.9009 74.1531 79.4833 73.7233 79.9131C73.2935 80.3428 72.7111 80.5851 72.1033 80.5868H49.1656Z" fill="#003067"/>
<path opacity="0.2" fill-rule="evenodd" clip-rule="evenodd" d="M72.1034 47.3271H60.6345V80.5868H72.1034C72.7112 80.5851 73.2936 80.3428 73.7234 79.9131C74.1531 79.4833 74.3954 78.9009 74.3972 78.2931V49.6209C74.3954 49.0131 74.1531 48.4307 73.7234 48.0009C73.2936 47.5712 72.7112 47.3289 72.1034 47.3271V47.3271Z" fill="#003067"/>
<path fill-rule="evenodd" clip-rule="evenodd" d="M48.5923 77.7195V50.1943C48.5931 49.8903 48.7142 49.5991 48.9291 49.3842C49.144 49.1693 49.4352 49.0482 49.7392 49.0474H71.53C71.834 49.0482 72.1252 49.1693 72.3401 49.3842C72.555 49.5991 72.6761 49.8903 72.6769 50.1943V77.7195C72.6761 78.0235 72.555 78.3147 72.3401 78.5296C72.1252 78.7445 71.8339 78.8656 71.53 78.8664H49.7392C49.4352 78.8656 49.144 78.7445 48.9291 78.5296C48.7142 78.3147 48.5931 78.0235 48.5923 77.7195V77.7195Z" fill="white"/>
<path opacity="0.2" fill-rule="evenodd" clip-rule="evenodd" d="M54.3267 49.0475H54.9001V47.3271H54.3267V49.0475Z" fill="#003067"/>
<path fill-rule="evenodd" clip-rule="evenodd" d="M53.9426 75.6827C53.3378 75.6827 52.7465 75.5033 52.2435 75.1672C51.7406 74.8312 51.3486 74.3535 51.1171 73.7947C50.8856 73.2358 50.825 72.6209 50.943 72.0276C51.0611 71.4344 51.3523 70.8894 51.7801 70.4617C52.2078 70.034 52.7527 69.7427 53.346 69.6247C53.9393 69.5067 54.5542 69.5672 55.1131 69.7987C55.6719 70.0302 56.1496 70.4222 56.4856 70.9252C56.8217 71.4281 57.001 72.0194 57.001 72.6243C57.001 73.4354 56.6788 74.2133 56.1052 74.7869C55.5317 75.3604 54.7538 75.6827 53.9426 75.6827V75.6827Z" fill="#E8E8E8"/>
<path fill-rule="evenodd" clip-rule="evenodd" d="M53.9426 67.6543C53.3378 67.6543 52.7465 67.475 52.2435 67.1389C51.7406 66.8029 51.3486 66.3252 51.1171 65.7664C50.8856 65.2075 50.825 64.5926 50.943 63.9993C51.0611 63.406 51.3523 62.8611 51.7801 62.4334C52.2078 62.0056 52.7527 61.7144 53.346 61.5964C53.9393 61.4784 54.5542 61.5389 55.113 61.7704C55.6719 62.0019 56.1495 62.3939 56.4856 62.8968C56.8217 63.3998 57.001 63.9911 57.001 64.596C57.001 65.4071 56.6788 66.185 56.1052 66.7586C55.5317 67.3321 54.7538 67.6543 53.9426 67.6543V67.6543Z" fill="#72C472"/>
<path fill-rule="evenodd" clip-rule="evenodd" d="M55.3476 63.7477C55.2759 63.676 55.1786 63.6357 55.0771 63.6357C54.9757 63.6357 54.8784 63.676 54.8066 63.7477L53.5456 65.0078L53.0901 64.5567C53.0795 64.5409 53.0674 64.526 53.0541 64.5124C52.9829 64.4407 52.8863 64.4002 52.7852 64.3996C52.6842 64.3991 52.5871 64.4385 52.5151 64.5093C52.4431 64.5802 52.402 64.6766 52.4009 64.7776C52.3998 64.8786 52.4387 64.976 52.5091 65.0484L52.5046 65.053L53.2762 65.8176C53.348 65.8893 53.4454 65.9295 53.5468 65.9295C53.6483 65.9295 53.7456 65.8893 53.8174 65.8176L55.3464 64.2892L55.3475 64.2883C55.3831 64.2529 55.4113 64.2107 55.4305 64.1643C55.4497 64.118 55.4596 64.0683 55.4596 64.0181C55.4596 63.9678 55.4497 63.9181 55.4305 63.8717C55.4113 63.8254 55.3831 63.7832 55.3476 63.7477V63.7477Z" fill="white"/>
<path fill-rule="evenodd" clip-rule="evenodd" d="M53.9426 59.626C53.3378 59.626 52.7465 59.4466 52.2435 59.1106C51.7406 58.7745 51.3486 58.2969 51.1171 57.738C50.8856 57.1792 50.825 56.5642 50.943 55.971C51.0611 55.3777 51.3523 54.8328 51.7801 54.405C52.2078 53.9773 52.7527 53.686 53.346 53.568C53.9393 53.45 54.5542 53.5106 55.1131 53.7421C55.6719 53.9736 56.1496 54.3656 56.4856 54.8685C56.8217 55.3715 57.001 55.9628 57.001 56.5677C57.001 57.3788 56.6788 58.1567 56.1052 58.7302C55.5317 59.3038 54.7538 59.626 53.9426 59.626V59.626Z" fill="#72C472"/>
<path fill-rule="evenodd" clip-rule="evenodd" d="M55.3476 55.7194C55.2759 55.6477 55.1786 55.6074 55.0771 55.6074C54.9757 55.6074 54.8784 55.6477 54.8066 55.7194L53.5456 56.9795L53.0902 56.5284C53.0795 56.5126 53.0674 56.4977 53.0542 56.484C52.9829 56.4128 52.8863 56.3727 52.7855 56.3723C52.6848 56.3719 52.5879 56.4113 52.5161 56.482C52.4442 56.5527 52.4032 56.6488 52.4019 56.7496C52.4006 56.8504 52.4391 56.9476 52.5092 57.02L52.5046 57.0246L53.2762 57.7893C53.3481 57.8609 53.4454 57.9012 53.5468 57.9012C53.6483 57.9012 53.7456 57.8609 53.8174 57.7893L55.3464 56.2609L55.3476 56.26C55.3831 56.2245 55.4113 56.1824 55.4305 56.136C55.4497 56.0896 55.4596 56.0399 55.4596 55.9897C55.4596 55.9395 55.4498 55.8898 55.4305 55.8434C55.4113 55.7971 55.3832 55.7549 55.3476 55.7194V55.7194Z" fill="white"/>
<path d="M60.6347 54.2085H69.079C69.3831 54.2085 69.6749 54.3293 69.8899 54.5444C70.105 54.7595 70.2258 55.0512 70.2258 55.3554C70.2258 55.6595 70.105 55.9513 69.8899 56.1663C69.6749 56.3814 69.3831 56.5023 69.079 56.5023H60.6347C60.3305 56.5023 60.0388 56.3814 59.8237 56.1664C59.6086 55.9513 59.4878 55.6596 59.4878 55.3554V55.3554C59.4878 55.0512 59.6086 54.7595 59.8237 54.5444C60.0388 54.3293 60.3305 54.2085 60.6347 54.2085Z" fill="#E8E8E8"/>
<path d="M60.6347 63.3833H67.9321C68.2363 63.3833 68.528 63.5041 68.7431 63.7192C68.9581 63.9343 69.079 64.226 69.079 64.5302C69.079 64.8344 68.9581 65.1261 68.7431 65.3412C68.528 65.5562 68.2363 65.6771 67.9321 65.6771H60.6347C60.3305 65.6771 60.0388 65.5562 59.8237 65.3412C59.6086 65.1261 59.4878 64.8344 59.4878 64.5302V64.5302C59.4878 64.226 59.6086 63.9343 59.8237 63.7192C60.0388 63.5041 60.3305 63.3833 60.6347 63.3833Z" fill="#E8E8E8"/>
<path d="M60.6347 58.7959H69.079C69.3831 58.7959 69.6749 58.9167 69.8899 59.1318C70.105 59.3469 70.2258 59.6386 70.2258 59.9428C70.2258 60.0934 70.1962 60.2425 70.1386 60.3817C70.0809 60.5208 69.9964 60.6473 69.8899 60.7538C69.7834 60.8603 69.657 60.9447 69.5179 61.0024C69.3787 61.06 69.2296 61.0897 69.079 61.0897H60.6347C60.4841 61.0897 60.3349 61.06 60.1958 61.0024C60.0566 60.9447 59.9302 60.8603 59.8237 60.7538C59.7172 60.6473 59.6327 60.5208 59.5751 60.3817C59.5175 60.2425 59.4878 60.0934 59.4878 59.9428V59.9428C59.4878 59.6386 59.6086 59.3469 59.8237 59.1318C60.0388 58.9167 60.3305 58.7959 60.6347 58.7959Z" fill="#E8E8E8"/>
<path d="M60.6347 67.9707H69.079C69.3831 67.9707 69.6749 68.0915 69.8899 68.3066C70.105 68.5217 70.2258 68.8134 70.2258 69.1176C70.2258 69.4218 70.105 69.7135 69.8899 69.9286C69.6749 70.1436 69.3831 70.2645 69.079 70.2645H60.6347C60.3305 70.2645 60.0388 70.1436 59.8237 69.9286C59.6086 69.7135 59.4878 69.4218 59.4878 69.1176C59.4878 68.8134 59.6086 68.5217 59.8237 68.3066C60.0388 68.0915 60.3305 67.9707 60.6347 67.9707Z" fill="#E8E8E8"/>
<path d="M60.6347 72.5586H66.2118C66.5159 72.5586 66.8076 72.6794 67.0227 72.8945C67.2378 73.1096 67.3586 73.4013 67.3586 73.7055V73.7055C67.3586 73.8561 67.329 74.0052 67.2713 74.1444C67.2137 74.2835 67.1292 74.41 67.0227 74.5164C66.9162 74.6229 66.7898 74.7074 66.6506 74.7651C66.5115 74.8227 66.3624 74.8524 66.2118 74.8524H60.6347C60.4841 74.8524 60.3349 74.8227 60.1958 74.7651C60.0566 74.7074 59.9302 74.6229 59.8237 74.5164C59.7172 74.41 59.6327 74.2835 59.5751 74.1444C59.5175 74.0052 59.4878 73.8561 59.4878 73.7055V73.7055C59.4878 73.4013 59.6086 73.1096 59.8237 72.8945C60.0388 72.6794 60.3305 72.5586 60.6347 72.5586V72.5586Z" fill="#E8E8E8"/>
<path opacity="0.2" fill-rule="evenodd" clip-rule="evenodd" d="M65.7956 50.1941H55.4736C55.3216 50.1936 55.176 50.1331 55.0686 50.0256C54.9611 49.9182 54.9006 49.7726 54.9001 49.6206V50.1941C54.9006 50.346 54.9611 50.4916 55.0686 50.599C55.176 50.7065 55.3216 50.7671 55.4736 50.7675H65.7956C65.9475 50.7671 66.0931 50.7065 66.2006 50.599C66.308 50.4916 66.3686 50.346 66.369 50.1941V49.6206C66.3686 49.7726 66.308 49.9182 66.2006 50.0256C66.0931 50.1331 65.9475 50.1936 65.7956 50.1941V50.1941Z" fill="#546670"/>
<path fill-rule="evenodd" clip-rule="evenodd" d="M60.6346 45.0332C60.9387 45.0335 61.2302 45.1544 61.4452 45.3695C61.6602 45.5845 61.7812 45.876 61.7815 46.1801H59.4877C59.4879 45.876 59.6088 45.5844 59.8238 45.3694C60.0389 45.1543 60.3305 45.0334 60.6346 45.0332V45.0332ZM65.7956 46.1801H62.9283C62.9271 45.5726 62.6849 44.9904 62.2548 44.5613C61.8248 44.1321 61.2421 43.8911 60.6346 43.8911C60.0271 43.8911 59.4443 44.1321 59.0143 44.5613C58.5843 44.9904 58.3421 45.5726 58.3408 46.1801H55.4736C55.3216 46.1805 55.176 46.2411 55.0686 46.3485C54.9611 46.456 54.9006 46.6016 54.9001 46.7535V49.6208C54.9006 49.7727 54.9611 49.9183 55.0686 50.0258C55.176 50.1332 55.3216 50.1938 55.4736 50.1942H65.7956C65.9475 50.1938 66.0931 50.1332 66.2006 50.0258C66.308 49.9183 66.3686 49.7727 66.369 49.6208V46.7535C66.3686 46.6016 66.308 46.456 66.2006 46.3485C66.0931 46.2411 65.9475 46.1805 65.7956 46.1801H65.7956Z" fill="#B3B3B3"/>
<path opacity="0.2" fill-rule="evenodd" clip-rule="evenodd" d="M66.369 49.6208V46.7536C66.3686 46.6017 66.308 46.4561 66.2006 46.3486C66.0931 46.2412 65.9475 46.1806 65.7956 46.1802H63.5018L61.7815 50.1943H65.7956C65.9475 50.1939 66.0931 50.1333 66.2006 50.0258C66.308 49.9184 66.3686 49.7728 66.369 49.6208V49.6208Z" fill="#E8E8E8"/>
<path opacity="0.2" fill-rule="evenodd" clip-rule="evenodd" d="M61.0274 43.9258L60.5491 45.0417C60.5778 45.0394 60.6053 45.0331 60.6346 45.0331C60.9387 45.0334 61.2302 45.1543 61.4452 45.3693C61.6602 45.5843 61.7812 45.8759 61.7815 46.18H60.0611L58.3408 50.1941H60.6346L62.742 45.2762C62.5909 44.9264 62.355 44.6197 62.0557 44.384C61.7563 44.1482 61.4029 43.9907 61.0274 43.9258V43.9258Z" fill="#E8E8E8"/>
<path d="M63.2788 42.5004L63.2516 42.3377C63.0828 41.3255 62.602 40.3914 61.8764 39.6658C61.1508 38.9402 60.2166 38.4594 59.2045 38.2905L59.0417 38.2634L59.2045 38.2362C60.2166 38.0674 61.1508 37.5866 61.8764 36.861C62.602 36.1354 63.0828 35.2013 63.2516 34.1891L63.2788 34.0264L63.3059 34.1891C63.4748 35.2013 63.9556 36.1354 64.6812 36.861C65.4068 37.5866 66.3409 38.0674 67.3531 38.2362L67.5158 38.2634L67.1733 38.3334C66.172 38.538 65.2592 39.049 64.5613 39.7957C63.8635 40.5423 63.4153 41.4876 63.2788 42.5004V42.5004Z" fill="white"/>
<path d="M69.0938 33.6202L69.078 33.5253C68.9795 32.9353 68.6992 32.3907 68.2763 31.9677C67.8533 31.5447 67.3087 31.2644 66.7187 31.166L66.6238 31.1502L66.7187 31.1344C67.3087 31.0359 67.8533 30.7556 68.2763 30.3326C68.6992 29.9096 68.9795 29.3651 69.078 28.775L69.0938 28.6802L69.1096 28.775C69.2081 29.3651 69.4883 29.9096 69.9113 30.3326C70.3343 30.7556 70.8789 31.0359 71.4689 31.1344L71.5638 31.1502L71.3641 31.191C70.7804 31.3103 70.2483 31.6082 69.8415 32.0435C69.4347 32.4787 69.1734 33.0298 69.0938 33.6202V33.6202Z" fill="white"/>
</g>
<defs>
<linearGradient id="paint0_linear" x1="47.4222" y1="-15.153" x2="51.405" y2="130.615" gradientUnits="userSpaceOnUse">
<stop stop-color="#00ABDE"/>
<stop offset="1" stop-color="#007ED8"/>
</linearGradient>
<clipPath id="clip0">
<rect width="99.2799" height="99.28" fill="white"/>
</clipPath>
</defs>
</svg>
