<?xml version="1.0" encoding="UTF-8"?>
<svg width="100px" height="100px" viewBox="0 0 100 100" version="1.1" xmlns="http://www.w3.org/2000/svg" xmlns:xlink="http://www.w3.org/1999/xlink">
    <!-- Generator: Sketch 54.1 (76490) - https://sketchapp.com -->
    <title>M365 SFA Generalist/modern-communications-with-microsoft-teams</title>
    <desc>Created with Sketch.</desc>
    <defs>
        <rect id="path-1" x="0" y="0" width="96" height="96" rx="48"></rect>
        <filter x="-16.7%" y="-9.9%" width="133.3%" height="121.2%" filterUnits="objectBoundingBox" id="filter-3">
            <feOffset dx="0" dy="2" in="SourceAlpha" result="shadowOffsetOuter1"></feOffset>
            <feColorMatrix values="0 0 0 0 0   0 0 0 0 0   0 0 0 0 0  0 0 0 0.0964956975 0" type="matrix" in="shadowOffsetOuter1" result="shadowMatrixOuter1"></feColorMatrix>
            <feMerge>
                <feMergeNode in="shadowMatrixOuter1"></feMergeNode>
                <feMergeNode in="SourceGraphic"></feMergeNode>
            </feMerge>
        </filter>
        <filter x="-13.3%" y="-9.1%" width="126.7%" height="118.2%" filterUnits="objectBoundingBox" id="filter-4">
            <feOffset dx="0" dy="2" in="SourceAlpha" result="shadowOffsetOuter1"></feOffset>
            <feColorMatrix values="0 0 0 0 0   0 0 0 0 0   0 0 0 0 0  0 0 0 0.100685009 0" type="matrix" in="shadowOffsetOuter1" result="shadowMatrixOuter1"></feColorMatrix>
            <feMerge>
                <feMergeNode in="shadowMatrixOuter1"></feMergeNode>
                <feMergeNode in="SourceGraphic"></feMergeNode>
            </feMerge>
        </filter>
        <filter x="-10.5%" y="-10.5%" width="123.7%" height="123.7%" filterUnits="objectBoundingBox" id="filter-5">
            <feOffset dx="0" dy="2" in="SourceAlpha" result="shadowOffsetOuter1"></feOffset>
            <feColorMatrix values="0 0 0 0 0   0 0 0 0 0   0 0 0 0 0  0 0 0 0.0983072917 0" type="matrix" in="shadowOffsetOuter1" result="shadowMatrixOuter1"></feColorMatrix>
            <feMerge>
                <feMergeNode in="shadowMatrixOuter1"></feMergeNode>
                <feMergeNode in="SourceGraphic"></feMergeNode>
            </feMerge>
        </filter>
    </defs>
    <g id="Badges" stroke="none" stroke-width="1" fill="none" fill-rule="evenodd">
        <g id="M365-SFA-Generalist-2" transform="translate(-50.000000, -1060.000000)">
            <g id="M365-SFA-Generalist/modern-communications-with-microsoft-teams" transform="translate(50.000000, 1060.000000)">
                <g id="Mask" transform="translate(2.000000, 2.000000)">
                    <mask id="mask-2" fill="white">
                        <use xlink:href="#path-1"></use>
                    </mask>
                    <use id="BG" fill="#55A2FF" xlink:href="#path-1"></use>
                    <g id="Mobile" filter="url(#filter-3)" mask="url(#mask-2)">
                        <g transform="translate(60.000000, 21.000000)">
                            <path d="M24,37.8947368 C24,39.2842105 22.8631579,40.4210526 21.4736842,40.4210526 L2.52631579,40.4210526 C1.13684211,40.4210526 0,39.2842105 0,37.8947368 L0,2.52631579 C0,1.13684211 1.13684211,0 2.52631579,0 L21.4736842,0 C22.8631579,0 24,1.13684211 24,2.52631579 L24,37.8947368" id="Fill-1355" fill="#3F4A4D"></path>
                            <polygon id="Fill-1356" fill="#252A2C" points="1.89473684 33.4736842 22.1052632 33.4736842 22.1052632 5.05263158 1.89473684 5.05263158"></polygon>
                            <path d="M13.8947368,36.6315789 C13.8947368,37.6781053 13.0465263,38.5263158 12,38.5263158 C10.9534737,38.5263158 10.1052632,37.6781053 10.1052632,36.6315789 C10.1052632,35.5850526 10.9534737,34.7368421 12,34.7368421 C13.0465263,34.7368421 13.8947368,35.5850526 13.8947368,36.6315789" id="Fill-1357" fill="#252A2C"></path>
                            <path d="M14.5263158,3.78947368 L9.47368421,3.78947368 C9.12505263,3.78947368 8.84210526,3.50715789 8.84210526,3.15789474 C8.84210526,2.80863158 9.12505263,2.52631579 9.47368421,2.52631579 L14.5263158,2.52631579 C14.8749474,2.52631579 15.1578947,2.80863158 15.1578947,3.15789474 C15.1578947,3.50715789 14.8749474,3.78947368 14.5263158,3.78947368" id="Fill-1358" fill="#252A2C"></path>
                            <polyline id="Fill-1359" fill="#2E3537" points="22.1052632 28.4210526 10.1052632 5.05263158 22.1052632 5.05263158 22.1052632 28.4210526"></polyline>
                        </g>
                    </g>
                    <g id="talking" filter="url(#filter-4)" mask="url(#mask-2)" fill-rule="nonzero">
                        <g transform="translate(12.000000, 15.000000)">
                            <path d="M21.5201337,2.87589574 C20.5279144,2.0111896 19.6883053,1.44384503 18.9769698,1.08260016 L18.9703786,1.05598211 C18.9328599,1.04356036 18.8983832,1.03519469 18.8611179,1.02302644 C18.1018699,0.653669406 17.4967531,0.527677335 17.0191493,0.535282491 C10.7078846,-0.726159245 8.30997915,3.27643391 7.46479291,5.5993018 C5.64259773,10.1487056 7.05107247,16.7778659 3.48881779,18.9542078 C3.48881779,18.9542078 6.94561432,21.0927774 11.5502823,21.3196645 L11.8636147,19.8980075 C11.0668479,19.3263534 10.5235863,18.1358931 10.1316673,17.2062896 C10.1091054,17.1555886 10.0862899,17.101592 10.0634744,17.0435393 C10.0330538,16.9710368 10.0016192,16.8957458 9.97322659,16.8278064 C9.97829669,16.83313 9.98438081,16.8387071 9.98945092,16.8440307 C9.65964069,15.9075826 9.34706881,14.4255914 9.34706881,14.4255914 C9.20890849,13.8174325 9.02537075,12.8563944 8.96300848,11.833501 C9.33616809,11.0582822 10.7884992,7.90594536 11.5589014,4.29172213 C11.5589014,4.29172213 12.3582032,10.5066549 21.2858949,11.8793854 C21.41645,12.6642374 21.5198802,13.6237545 21.4767843,14.5482879 C21.3099779,16.368962 20.3656711,18.3904123 18.9267758,19.5973504 L19.1384526,21.0276266 C23.7715131,20.8144287 26.9486934,18.7009561 26.9486934,18.7009561 C22.5856159,16.0348422 26.3316618,7.06887129 21.5201337,2.87589574 Z" id="Shape" fill="#84522D"></path>
                            <path d="M20.803221,26.9997014 L15.4816405,32.8952177 L15.4816405,33.1185557 L15.3825199,33.008788 L15.2833994,33.1185557 L15.2833994,32.8952177 L7.56007157,23.5413275 L11.1345338,23.0280359 L11.8643752,19.8784876 C12.3427394,20.1973971 12.8563409,20.4524233 13.3914903,20.6296234 L20.803221,26.9997014 Z" id="Shape" fill="#E7C3A6"></path>
                            <path d="M23.5385418,23.967019 L20.8034745,26.9997014 L13.3917438,20.6296234 C13.9727777,20.8174708 14.578655,20.9201404 15.2058268,20.9201404 C16.5663891,20.9201404 17.8382245,20.438227 18.9331134,19.602167 L19.4079286,22.9750533 L23.5385418,23.967019 Z" id="Shape" fill="#D9B090"></path>
                            <path d="M18.9267758,19.5970969 C20.3659246,18.3901588 21.3099779,16.368962 21.4767843,14.5480344 C21.5198802,13.6237545 21.41645,12.6639839 21.2858949,11.8791319 C12.3582032,10.5064014 11.5589014,4.29146862 11.5589014,4.29146862 C10.7884992,7.90543835 9.33591458,11.0577752 8.96300848,11.8332475 C9.02511724,12.8561409 9.20890849,13.817179 9.34706881,14.4253379 C9.34706881,14.4253379 9.65964069,15.9073291 9.98945092,16.8437772 C9.98438081,16.8384536 9.97829669,16.8328765 9.97322659,16.8275529 C10.0016192,16.8954923 10.0333073,16.9707833 10.0634744,17.0432858 C10.0862899,17.1013385 10.1088519,17.1553351 10.1316673,17.2060361 C10.5043199,18.0900086 11.0166539,19.2036569 11.7510584,19.8029431 C12.7820639,20.5145321 13.9568069,20.9191264 15.2045593,20.9191264 C16.56284,20.9191264 17.834422,20.4394946 18.9282968,19.6062231 L18.9267758,19.5970969 Z" id="Shape" fill="#EAC5A7"></path>
                            <path d="M15.2281353,17.616968 C14.8653694,17.616968 14.5533045,17.8212932 14.3913147,18.1199222 C10.5912722,17.7280032 9.37799644,14.4266054 9.37799644,14.4266054 C9.37064479,14.4266054 9.36481417,14.4266054 9.35720902,14.4266054 C9.35365995,14.4266054 9.35036438,14.4255914 9.34706881,14.4255914 C9.34706881,14.4255914 9.68169564,15.9757755 9.9785502,16.83313 C10.8414818,17.7698316 12.223085,18.7278276 14.3456838,18.9389975 C14.4896747,19.2852855 14.8303857,19.528397 15.2283888,19.528397 C15.7561866,19.528397 16.1841033,19.1004803 16.1841033,18.5726825 C16.1841033,18.0451382 15.7556796,17.616968 15.2281353,17.616968 Z" id="Shape" fill="#546670"></path>
                            <path d="M29.2264374,33.7713316 C29.6353412,24.67658 21.7127976,23.3395937 21.7127976,23.3395937 L14.6577487,28.8487681 L7.64680962,23.3395937 C7.64680962,23.3395937 -0.2263005,24.67658 0.18006829,33.7713316 C-0.0975454203,39.8619616 0.276406687,42.9072767 1.30192461,42.9072767 C6.36196235,42.9072767 17.2659069,46.1768902 29.0646115,40.8864339 C29.6385202,40.6290973 29.6924621,38.2573965 29.2264374,33.7713316 Z" id="Shape" fill="#5558AF"></path>
                            <circle id="Oval" fill="#EAC5A7" cx="21.0549517" cy="13.1223213" r="1.31214277"></circle>
                            <circle id="Oval" fill="#EAC5A7" cx="9.64848646" cy="13.1223213" r="1.31214277"></circle>
                        </g>
                    </g>
                    <rect id="Rectangle" fill="#55A2FF" mask="url(#mask-2)" x="28" y="41" width="42" height="40" rx="2"></rect>
                    <g id="Calendar" filter="url(#filter-5)" mask="url(#mask-2)">
                        <g transform="translate(30.000000, 43.000000)">
                            <path d="M0,8.3125 L0,35.625 C0,36.93125 1.06875,38 2.375,38 L30.875,38 L38,30.875 L38,8.3125 L0,8.3125" id="Fill-1315" fill="#E1E4E1"></path>
                            <path d="M38,1.1875 C38,0.534375 37.465625,0 36.8125,0 L1.1875,0 C0.534375,0 0,0.534375 0,1.1875 L0,7.125 L38,7.125 L38,1.1875" id="Fill-1316" fill="#5558AF"></path>
                            <polygon id="Fill-1317" fill="#CAD2D4" points="0 8.3125 38 8.3125 38 7.125 0 7.125"></polygon>
                            <path d="M20.1875,3.5625 C20.1875,4.218 19.6555,4.75 19,4.75 C18.3439063,4.75 17.8125,4.218 17.8125,3.5625 C17.8125,2.90640625 18.3439063,2.375 19,2.375 C19.6555,2.375 20.1875,2.90640625 20.1875,3.5625" id="Fill-1318" fill="#3D3F86"></path>
                            <path d="M29.6875,3.5625 C29.6875,4.218 29.1555,4.75 28.5,4.75 C27.8439062,4.75 27.3125,4.218 27.3125,3.5625 C27.3125,2.90640625 27.8439062,2.375 28.5,2.375 C29.1555,2.375 29.6875,2.90640625 29.6875,3.5625" id="Fill-1319" fill="#3D3F86"></path>
                            <path d="M10.6875,3.5625 C10.6875,4.218 10.1555,4.75 9.5,4.75 C8.84390625,4.75 8.3125,4.218 8.3125,3.5625 C8.3125,2.90640625 8.84390625,2.375 9.5,2.375 C10.1555,2.375 10.6875,2.90640625 10.6875,3.5625" id="Fill-1320" fill="#3D3F86"></path>
                            <path d="M20.1875,9.5 C20.1875,10.1555 19.6555,10.6875 19,10.6875 C18.3439063,10.6875 17.8125,10.1555 17.8125,9.5 C17.8125,8.84390625 18.3439063,8.3125 19,8.3125 C19.6555,8.3125 20.1875,8.84390625 20.1875,9.5" id="Fill-1321" fill="#546670"></path>
                            <path d="M29.6875,9.5 C29.6875,10.1555 29.1555,10.6875 28.5,10.6875 C27.8439062,10.6875 27.3125,10.1555 27.3125,9.5 C27.3125,8.84390625 27.8439062,8.3125 28.5,8.3125 C29.1555,8.3125 29.6875,8.84390625 29.6875,9.5" id="Fill-1322" fill="#546670"></path>
                            <path d="M10.6875,9.5 C10.6875,10.1555 10.1555,10.6875 9.5,10.6875 C8.84390625,10.6875 8.3125,10.1555 8.3125,9.5 C8.3125,8.84390625 8.84390625,8.3125 9.5,8.3125 C10.1555,8.3125 10.6875,8.84390625 10.6875,9.5" id="Fill-1323" fill="#546670"></path>
                            <path d="M28.5,10.09375 C28.1716563,10.09375 27.90625,9.82834375 27.90625,9.5 L27.90625,3.5625 C27.90625,3.23415625 28.1716563,2.96875 28.5,2.96875 C28.8283437,2.96875 29.09375,3.23415625 29.09375,3.5625 L29.09375,9.5 C29.09375,9.82834375 28.8283437,10.09375 28.5,10.09375" id="Fill-1324" fill="#AAB0B1"></path>
                            <path d="M19,10.09375 C18.6716563,10.09375 18.40625,9.82834375 18.40625,9.5 L18.40625,3.5625 C18.40625,3.23415625 18.6716563,2.96875 19,2.96875 C19.3283438,2.96875 19.59375,3.23415625 19.59375,3.5625 L19.59375,9.5 C19.59375,9.82834375 19.3283438,10.09375 19,10.09375" id="Fill-1325" fill="#AAB0B1"></path>
                            <path d="M9.5,10.09375 C9.17165625,10.09375 8.90625,9.82834375 8.90625,9.5 L8.90625,3.5625 C8.90625,3.23415625 9.17165625,2.96875 9.5,2.96875 C9.82834375,2.96875 10.09375,3.23415625 10.09375,3.5625 L10.09375,9.5 C10.09375,9.82834375 9.82834375,10.09375 9.5,10.09375" id="Fill-1326" fill="#AAB0B1"></path>
                            <path d="M6.53125,15.4375 C6.53125,15.7640625 6.2640625,16.03125 5.9375,16.03125 L3.5625,16.03125 C3.2359375,16.03125 2.96875,15.7640625 2.96875,15.4375 L2.96875,13.0625 C2.96875,12.7359375 3.2359375,12.46875 3.5625,12.46875 L5.9375,12.46875 C6.2640625,12.46875 6.53125,12.7359375 6.53125,13.0625 L6.53125,15.4375" id="Fill-1327" fill="#C5CCCD"></path>
                            <path d="M11.28125,15.4375 C11.28125,15.7640625 11.0140625,16.03125 10.6875,16.03125 L8.3125,16.03125 C7.9859375,16.03125 7.71875,15.7640625 7.71875,15.4375 L7.71875,13.0625 C7.71875,12.7359375 7.9859375,12.46875 8.3125,12.46875 L10.6875,12.46875 C11.0140625,12.46875 11.28125,12.7359375 11.28125,13.0625 L11.28125,15.4375" id="Fill-1328" fill="#C5CCCD"></path>
                            <path d="M16.03125,15.4375 C16.03125,15.7640625 15.7640625,16.03125 15.4375,16.03125 L13.0625,16.03125 C12.7359375,16.03125 12.46875,15.7640625 12.46875,15.4375 L12.46875,13.0625 C12.46875,12.7359375 12.7359375,12.46875 13.0625,12.46875 L15.4375,12.46875 C15.7640625,12.46875 16.03125,12.7359375 16.03125,13.0625 L16.03125,15.4375" id="Fill-1329" fill="#C5CCCD"></path>
                            <path d="M20.78125,15.4375 C20.78125,15.7640625 20.5140625,16.03125 20.1875,16.03125 L17.8125,16.03125 C17.4859375,16.03125 17.21875,15.7640625 17.21875,15.4375 L17.21875,13.0625 C17.21875,12.7359375 17.4859375,12.46875 17.8125,12.46875 L20.1875,12.46875 C20.5140625,12.46875 20.78125,12.7359375 20.78125,13.0625 L20.78125,15.4375" id="Fill-1330" fill="#C5CCCD"></path>
                            <path d="M25.53125,15.4375 C25.53125,15.7640625 25.2640625,16.03125 24.9375,16.03125 L22.5625,16.03125 C22.2359375,16.03125 21.96875,15.7640625 21.96875,15.4375 L21.96875,13.0625 C21.96875,12.7359375 22.2359375,12.46875 22.5625,12.46875 L24.9375,12.46875 C25.2640625,12.46875 25.53125,12.7359375 25.53125,13.0625 L25.53125,15.4375" id="Fill-1331" fill="#C5CCCD"></path>
                            <path d="M30.28125,15.4375 C30.28125,15.7640625 30.0140625,16.03125 29.6875,16.03125 L27.3125,16.03125 C26.9859375,16.03125 26.71875,15.7640625 26.71875,15.4375 L26.71875,13.0625 C26.71875,12.7359375 26.9859375,12.46875 27.3125,12.46875 L29.6875,12.46875 C30.0140625,12.46875 30.28125,12.7359375 30.28125,13.0625 L30.28125,15.4375" id="Fill-1332" fill="#5558AF"></path>
                            <path d="M35.03125,15.4375 C35.03125,15.7640625 34.7640625,16.03125 34.4375,16.03125 L32.0625,16.03125 C31.7359375,16.03125 31.46875,15.7640625 31.46875,15.4375 L31.46875,13.0625 C31.46875,12.7359375 31.7359375,12.46875 32.0625,12.46875 L34.4375,12.46875 C34.7640625,12.46875 35.03125,12.7359375 35.03125,13.0625 L35.03125,15.4375" id="Fill-1333" fill="#5558AF"></path>
                            <path d="M6.53125,20.1875 C6.53125,20.5140625 6.2640625,20.78125 5.9375,20.78125 L3.5625,20.78125 C3.2359375,20.78125 2.96875,20.5140625 2.96875,20.1875 L2.96875,17.8125 C2.96875,17.4859375 3.2359375,17.21875 3.5625,17.21875 L5.9375,17.21875 C6.2640625,17.21875 6.53125,17.4859375 6.53125,17.8125 L6.53125,20.1875" id="Fill-1334" fill="#C5CCCD"></path>
                            <path d="M11.28125,20.1875 C11.28125,20.5140625 11.0140625,20.78125 10.6875,20.78125 L8.3125,20.78125 C7.9859375,20.78125 7.71875,20.5140625 7.71875,20.1875 L7.71875,17.8125 C7.71875,17.4859375 7.9859375,17.21875 8.3125,17.21875 L10.6875,17.21875 C11.0140625,17.21875 11.28125,17.4859375 11.28125,17.8125 L11.28125,20.1875" id="Fill-1335" fill="#C5CCCD"></path>
                            <path d="M16.03125,20.1875 C16.03125,20.5140625 15.7640625,20.78125 15.4375,20.78125 L13.0625,20.78125 C12.7359375,20.78125 12.46875,20.5140625 12.46875,20.1875 L12.46875,17.8125 C12.46875,17.4859375 12.7359375,17.21875 13.0625,17.21875 L15.4375,17.21875 C15.7640625,17.21875 16.03125,17.4859375 16.03125,17.8125 L16.03125,20.1875" id="Fill-1336" fill="#C5CCCD"></path>
                            <path d="M20.78125,20.1875 C20.78125,20.5140625 20.5140625,20.78125 20.1875,20.78125 L17.8125,20.78125 C17.4859375,20.78125 17.21875,20.5140625 17.21875,20.1875 L17.21875,17.8125 C17.21875,17.4859375 17.4859375,17.21875 17.8125,17.21875 L20.1875,17.21875 C20.5140625,17.21875 20.78125,17.4859375 20.78125,17.8125 L20.78125,20.1875" id="Fill-1337" fill="#C5CCCD"></path>
                            <path d="M25.53125,20.1875 C25.53125,20.5140625 25.2640625,20.78125 24.9375,20.78125 L22.5625,20.78125 C22.2359375,20.78125 21.96875,20.5140625 21.96875,20.1875 L21.96875,17.8125 C21.96875,17.4859375 22.2359375,17.21875 22.5625,17.21875 L24.9375,17.21875 C25.2640625,17.21875 25.53125,17.4859375 25.53125,17.8125 L25.53125,20.1875" id="Fill-1338" fill="#C5CCCD"></path>
                            <path d="M30.28125,20.1875 C30.28125,20.5140625 30.0140625,20.78125 29.6875,20.78125 L27.3125,20.78125 C26.9859375,20.78125 26.71875,20.5140625 26.71875,20.1875 L26.71875,17.8125 C26.71875,17.4859375 26.9859375,17.21875 27.3125,17.21875 L29.6875,17.21875 C30.0140625,17.21875 30.28125,17.4859375 30.28125,17.8125 L30.28125,20.1875" id="Fill-1339" fill="#5558AF"></path>
                            <path d="M35.03125,20.1875 C35.03125,20.5140625 34.7640625,20.78125 34.4375,20.78125 L32.0625,20.78125 C31.7359375,20.78125 31.46875,20.5140625 31.46875,20.1875 L31.46875,17.8125 C31.46875,17.4859375 31.7359375,17.21875 32.0625,17.21875 L34.4375,17.21875 C34.7640625,17.21875 35.03125,17.4859375 35.03125,17.8125 L35.03125,20.1875" id="Fill-1340" fill="#5558AF"></path>
                            <path d="M6.53125,24.9375 C6.53125,25.2640625 6.2640625,25.53125 5.9375,25.53125 L3.5625,25.53125 C3.2359375,25.53125 2.96875,25.2640625 2.96875,24.9375 L2.96875,22.5625 C2.96875,22.2359375 3.2359375,21.96875 3.5625,21.96875 L5.9375,21.96875 C6.2640625,21.96875 6.53125,22.2359375 6.53125,22.5625 L6.53125,24.9375" id="Fill-1341" fill="#C5CCCD"></path>
                            <path d="M11.28125,24.9375 C11.28125,25.2640625 11.0140625,25.53125 10.6875,25.53125 L8.3125,25.53125 C7.9859375,25.53125 7.71875,25.2640625 7.71875,24.9375 L7.71875,22.5625 C7.71875,22.2359375 7.9859375,21.96875 8.3125,21.96875 L10.6875,21.96875 C11.0140625,21.96875 11.28125,22.2359375 11.28125,22.5625 L11.28125,24.9375" id="Fill-1342" fill="#C5CCCD"></path>
                            <path d="M16.03125,24.9375 C16.03125,25.2640625 15.7640625,25.53125 15.4375,25.53125 L13.0625,25.53125 C12.7359375,25.53125 12.46875,25.2640625 12.46875,24.9375 L12.46875,22.5625 C12.46875,22.2359375 12.7359375,21.96875 13.0625,21.96875 L15.4375,21.96875 C15.7640625,21.96875 16.03125,22.2359375 16.03125,22.5625 L16.03125,24.9375" id="Fill-1343" fill="#C5CCCD"></path>
                            <path d="M20.78125,24.9375 C20.78125,25.2640625 20.5140625,25.53125 20.1875,25.53125 L17.8125,25.53125 C17.4859375,25.53125 17.21875,25.2640625 17.21875,24.9375 L17.21875,22.5625 C17.21875,22.2359375 17.4859375,21.96875 17.8125,21.96875 L20.1875,21.96875 C20.5140625,21.96875 20.78125,22.2359375 20.78125,22.5625 L20.78125,24.9375" id="Fill-1344" fill="#C5CCCD"></path>
                            <path d="M25.53125,24.9375 C25.53125,25.2640625 25.2640625,25.53125 24.9375,25.53125 L22.5625,25.53125 C22.2359375,25.53125 21.96875,25.2640625 21.96875,24.9375 L21.96875,22.5625 C21.96875,22.2359375 22.2359375,21.96875 22.5625,21.96875 L24.9375,21.96875 C25.2640625,21.96875 25.53125,22.2359375 25.53125,22.5625 L25.53125,24.9375" id="Fill-1345" fill="#C5CCCD"></path>
                            <path d="M30.28125,24.9375 C30.28125,25.2640625 30.0140625,25.53125 29.6875,25.53125 L27.3125,25.53125 C26.9859375,25.53125 26.71875,25.2640625 26.71875,24.9375 L26.71875,22.5625 C26.71875,22.2359375 26.9859375,21.96875 27.3125,21.96875 L29.6875,21.96875 C30.0140625,21.96875 30.28125,22.2359375 30.28125,22.5625 L30.28125,24.9375" id="Fill-1346" fill="#5558AF"></path>
                            <path d="M35.03125,24.9375 C35.03125,25.2640625 34.7640625,25.53125 34.4375,25.53125 L32.0625,25.53125 C31.7359375,25.53125 31.46875,25.2640625 31.46875,24.9375 L31.46875,22.5625 C31.46875,22.2359375 31.7359375,21.96875 32.0625,21.96875 L34.4375,21.96875 C34.7640625,21.96875 35.03125,22.2359375 35.03125,22.5625 L35.03125,24.9375" id="Fill-1347" fill="#5558AF"></path>
                            <path d="M6.53125,29.6875 C6.53125,30.0140625 6.2640625,30.28125 5.9375,30.28125 L3.5625,30.28125 C3.2359375,30.28125 2.96875,30.0140625 2.96875,29.6875 L2.96875,27.3125 C2.96875,26.9859375 3.2359375,26.71875 3.5625,26.71875 L5.9375,26.71875 C6.2640625,26.71875 6.53125,26.9859375 6.53125,27.3125 L6.53125,29.6875" id="Fill-1348" fill="#C5CCCD"></path>
                            <path d="M11.28125,29.6875 C11.28125,30.0140625 11.0140625,30.28125 10.6875,30.28125 L8.3125,30.28125 C7.9859375,30.28125 7.71875,30.0140625 7.71875,29.6875 L7.71875,27.3125 C7.71875,26.9859375 7.9859375,26.71875 8.3125,26.71875 L10.6875,26.71875 C11.0140625,26.71875 11.28125,26.9859375 11.28125,27.3125 L11.28125,29.6875" id="Fill-1349" fill="#C5CCCD"></path>
                            <path d="M16.03125,29.6875 C16.03125,30.0140625 15.7640625,30.28125 15.4375,30.28125 L13.0625,30.28125 C12.7359375,30.28125 12.46875,30.0140625 12.46875,29.6875 L12.46875,27.3125 C12.46875,26.9859375 12.7359375,26.71875 13.0625,26.71875 L15.4375,26.71875 C15.7640625,26.71875 16.03125,26.9859375 16.03125,27.3125 L16.03125,29.6875" id="Fill-1350" fill="#C5CCCD"></path>
                            <path d="M20.78125,29.6875 C20.78125,30.0140625 20.5140625,30.28125 20.1875,30.28125 L17.8125,30.28125 C17.4859375,30.28125 17.21875,30.0140625 17.21875,29.6875 L17.21875,27.3125 C17.21875,26.9859375 17.4859375,26.71875 17.8125,26.71875 L20.1875,26.71875 C20.5140625,26.71875 20.78125,26.9859375 20.78125,27.3125 L20.78125,29.6875" id="Fill-1351" fill="#C5CCCD"></path>
                            <path d="M25.53125,29.6875 C25.53125,30.0140625 25.2640625,30.28125 24.9375,30.28125 L22.5625,30.28125 C22.2359375,30.28125 21.96875,30.0140625 21.96875,29.6875 L21.96875,27.3125 C21.96875,26.9859375 22.2359375,26.71875 22.5625,26.71875 L24.9375,26.71875 C25.2640625,26.71875 25.53125,26.9859375 25.53125,27.3125 L25.53125,29.6875" id="Fill-1352" fill="#C5CCCD"></path>
                            <path d="M30.28125,29.6875 C30.28125,30.0140625 30.0140625,30.28125 29.6875,30.28125 L27.3125,30.28125 C26.9859375,30.28125 26.71875,30.0140625 26.71875,29.6875 L26.71875,27.3125 C26.71875,26.9859375 26.9859375,26.71875 27.3125,26.71875 L29.6875,26.71875 C30.0140625,26.71875 30.28125,26.9859375 30.28125,27.3125 L30.28125,29.6875" id="Fill-1353" fill="#5558AF"></path>
                            <path d="M35.03125,29.6875 C35.03125,30.0140625 34.7640625,30.28125 34.4375,30.28125 L32.0625,30.28125 C31.7359375,30.28125 31.46875,30.0140625 31.46875,29.6875 L31.46875,27.3125 C31.46875,26.9859375 31.7359375,26.71875 32.0625,26.71875 L34.4375,26.71875 C34.7640625,26.71875 35.03125,26.9859375 35.03125,27.3125 L35.03125,29.6875" id="Fill-1354" fill="#5558AF"></path>
                            <path d="M30.875,33.25 L30.875,38 L38,30.875 L33.25,30.875 C31.94375,30.875 30.875,31.94375 30.875,33.25" id="Fill-1355" fill="#AAB0B1"></path>
                            <polyline id="Fill-1356" fill="#CAD2D4" points="26.125 38 30.875 33.25 30.875 38 26.125 38"></polyline>
                        </g>
                    </g>
                </g>
                <g id="Azure-Border" stroke="#0078D4" stroke-width="4">
                    <rect x="2" y="2" width="96" height="96" rx="48"></rect>
                </g>
            </g>
        </g>
    </g>
</svg>