<svg width="100" height="100" viewBox="0 0 100 100" fill="none" xmlns="http://www.w3.org/2000/svg">
<g clip-path="url(#clip0_1022_941)">
<path d="M49.6401 96.45C40.382 96.45 31.3317 93.7047 23.6339 88.5611C15.936 83.4176 9.93624 76.1068 6.3933 67.5534C2.85036 59 1.92337 49.5881 3.72954 40.5078C5.53571 31.4276 9.99394 23.0868 16.5404 16.5403C23.0869 9.99384 31.4277 5.53562 40.5079 3.72945C49.5882 1.92327 59.0001 2.85027 67.5535 6.39321C76.1069 9.93614 83.4176 15.9359 88.5612 23.6338C93.7047 31.3316 96.4501 40.3819 96.4501 49.64C96.4505 55.7873 95.24 61.8745 92.8878 67.5539C90.5355 73.2334 87.0875 78.3938 82.7407 82.7406C78.3939 87.0874 73.2335 90.5354 67.554 92.8877C61.8746 95.2399 55.7874 96.4504 49.6401 96.45V96.45Z" fill="url(#paint0_linear_1022_941)"/>
<path fill-rule="evenodd" clip-rule="evenodd" d="M95.54 49.64C95.54 58.7182 92.848 67.5925 87.8045 75.1407C82.7609 82.6889 75.5923 88.572 67.2052 92.0461C58.818 95.5201 49.5891 96.4291 40.6854 94.658C31.7816 92.887 23.603 88.5154 17.1838 82.0962C10.7646 75.677 6.39302 67.4984 4.62196 58.5946C2.85089 49.6909 3.75987 40.462 7.23393 32.0748C10.708 23.6877 16.5911 16.5191 24.1393 11.4755C31.6875 6.43199 40.5618 3.74 49.64 3.74C55.6677 3.73998 61.6363 4.9272 67.2052 7.23388C72.774 9.54057 77.834 12.9215 82.0963 17.1837C86.3585 21.446 89.7394 26.5059 92.0461 32.0748C94.3528 37.6437 95.54 43.6123 95.54 49.64V49.64ZM49.64 3.62732e-07C59.4579 3.62732e-07 69.0553 2.91134 77.2185 8.36585C85.3818 13.8204 91.7442 21.5731 95.5014 30.6436C99.2585 39.7141 100.242 49.6951 98.3262 59.3243C96.4108 68.9535 91.6831 77.7985 84.7408 84.7408C77.7985 91.6831 68.9535 96.4108 59.3243 98.3262C49.6951 100.242 39.7141 99.2585 30.6436 95.5014C21.5731 91.7442 13.8204 85.3818 8.36585 77.2185C2.91134 69.0553 3.62732e-07 59.4579 3.62732e-07 49.64C-0.000787738 43.121 1.28265 36.6656 3.77702 30.6427C6.27138 24.6197 9.9278 19.1471 14.5375 14.5375C19.1471 9.9278 24.6197 6.27138 30.6427 3.77702C36.6656 1.28265 43.121 -0.000787738 49.64 3.62732e-07V3.62732e-07Z" fill="#F2F1F0"/>
<path fill-rule="evenodd" clip-rule="evenodd" d="M92.7296 49.6401C92.7296 58.1625 90.2024 66.4935 85.4676 73.5796C80.7328 80.6657 74.0031 86.1887 66.1294 89.4501C58.2557 92.7114 49.5918 93.5648 41.2331 91.9021C32.8745 90.2395 25.1966 86.1356 19.1703 80.1093C13.1441 74.0831 9.04017 66.4052 7.37753 58.0465C5.7149 49.6879 6.56822 41.0239 9.8296 33.1503C13.091 25.2766 18.6139 18.5469 25.7 13.8121C32.7862 9.07727 41.1172 6.55009 49.6396 6.55009C55.2983 6.54974 60.9017 7.66407 66.1298 9.82942C71.3579 11.9948 76.1082 15.1687 80.1096 19.1701C84.1109 23.1714 87.2849 27.9218 89.4502 33.1499C91.6156 38.3779 92.7299 43.9813 92.7296 49.6401V49.6401ZM49.6396 2.81009C58.9017 2.81009 67.9558 5.55662 75.6569 10.7024C83.3581 15.8481 89.3604 23.162 92.9049 31.719C96.4493 40.2761 97.3767 49.692 95.5697 58.7762C93.7628 67.8603 89.3027 76.2046 82.7534 82.7539C76.2041 89.3032 67.8598 93.7633 58.7757 95.5703C49.6915 97.3772 40.2756 96.4498 31.7185 92.9054C23.1614 89.3609 15.8476 83.3586 10.7018 75.6574C5.5561 67.9563 2.80957 58.9022 2.80957 49.6401C2.81076 37.2204 7.745 25.3097 16.5271 16.5276C25.3091 7.7455 37.2198 2.81125 49.6396 2.81006V2.81009Z" fill="#0078D4"/>
<path fill-rule="evenodd" clip-rule="evenodd" d="M92.7637 49.6401C92.7637 58.1625 90.2366 66.4935 85.5018 73.5796C80.767 80.6657 74.0372 86.1887 66.1636 89.4501C58.2899 92.7114 49.6259 93.5648 41.2673 91.9021C32.9087 90.2395 25.2308 86.1356 19.2045 80.1093C13.1783 74.0831 9.07435 66.4052 7.41171 58.0465C5.74908 49.6879 6.6024 41.0239 9.86378 33.1503C13.1252 25.2766 18.6481 18.5469 25.7342 13.8121C32.8203 9.07727 41.1514 6.55009 49.6738 6.55009C55.3325 6.54974 60.9359 7.66407 66.164 9.82942C71.3921 11.9948 76.1424 15.1687 80.1437 19.1701C84.1451 23.1714 87.3191 27.9218 89.4844 33.1499C91.6498 38.3779 92.7641 43.9813 92.7637 49.6401V49.6401ZM49.6738 2.81009C58.9359 2.81009 67.9899 5.55662 75.6911 10.7024C83.3923 15.8481 89.3946 23.162 92.939 31.719C96.4835 40.2761 97.4109 49.692 95.6039 58.7762C93.797 67.8603 89.3369 76.2046 82.7876 82.7539C76.2383 89.3032 67.894 93.7633 58.8098 95.5703C49.7257 97.3772 40.3097 96.4498 31.7527 92.9054C23.1956 89.3609 15.8818 83.3586 10.736 75.6574C5.59028 67.9563 2.84375 58.9022 2.84375 49.6401C2.84494 37.2204 7.77918 25.3097 16.5612 16.5276C25.3433 7.7455 37.254 2.81125 49.6738 2.81006V2.81009Z" fill="#0078D4"/>
<path fill-rule="evenodd" clip-rule="evenodd" d="M46.6094 18.9814C46.609 19.1168 46.555 19.2464 46.4593 19.3421C46.3636 19.4378 46.2339 19.4918 46.0986 19.4922H45.0772C44.9418 19.4918 44.8121 19.4378 44.7164 19.3421C44.6207 19.2464 44.5668 19.1168 44.5664 18.9814V15.917C44.5668 15.7817 44.6207 15.652 44.7164 15.5563C44.8121 15.4606 44.9418 15.4067 45.0772 15.4063H46.0986C46.2339 15.4067 46.3636 15.4606 46.4593 15.5563C46.555 15.652 46.609 15.7817 46.6094 15.917V18.9814Z" fill="#C3F1FF"/>
<path fill-rule="evenodd" clip-rule="evenodd" d="M50.6953 18.9814C50.6949 19.1168 50.6409 19.2464 50.5452 19.3421C50.4496 19.4378 50.3199 19.4918 50.1846 19.4922H49.1631C49.0278 19.4918 48.8981 19.4378 48.8024 19.3421C48.7067 19.2464 48.6527 19.1168 48.6523 18.9814V15.917C48.6527 15.7817 48.7067 15.652 48.8024 15.5563C48.8981 15.4606 49.0278 15.4067 49.1631 15.4063H50.1846C50.3199 15.4067 50.4496 15.4606 50.5452 15.5563C50.6409 15.652 50.6949 15.7817 50.6953 15.917V18.9814Z" fill="#C3F1FF"/>
<path fill-rule="evenodd" clip-rule="evenodd" d="M54.7812 18.9814C54.7808 19.1168 54.7269 19.2464 54.6312 19.3421C54.5355 19.4378 54.4058 19.4918 54.2705 19.4922H53.249C53.1137 19.4918 52.984 19.4378 52.8883 19.3421C52.7926 19.2464 52.7387 19.1168 52.7383 18.9814V15.917C52.7387 15.7817 52.7926 15.652 52.8883 15.5563C52.984 15.4606 53.1137 15.4067 53.249 15.4063H54.2705C54.4058 15.4067 54.5355 15.4606 54.6312 15.5563C54.7269 15.652 54.7808 15.7817 54.7812 15.917V18.9814Z" fill="#C3F1FF"/>
<path fill-rule="evenodd" clip-rule="evenodd" d="M58.8669 18.9814C58.8665 19.1168 58.8126 19.2464 58.7169 19.3421C58.6212 19.4378 58.4915 19.4918 58.3561 19.4922H57.3347C57.1994 19.4918 57.0697 19.4378 56.974 19.3421C56.8783 19.2464 56.8244 19.1168 56.824 18.9814V15.917C56.8244 15.7817 56.8783 15.652 56.974 15.5563C57.0697 15.4606 57.1994 15.4067 57.3347 15.4063H58.3561C58.4915 15.4067 58.6212 15.4606 58.7169 15.5563C58.8126 15.652 58.8665 15.7817 58.8669 15.917V18.9814Z" fill="#C3F1FF"/>
<path fill-rule="evenodd" clip-rule="evenodd" d="M42.5232 18.9814C42.5228 19.1168 42.4688 19.2464 42.3731 19.3421C42.2775 19.4378 42.1478 19.4918 42.0124 19.4922H40.991C40.8556 19.4918 40.726 19.4378 40.6303 19.3421C40.5346 19.2464 40.4806 19.1168 40.4802 18.9814V15.917C40.4806 15.7817 40.5346 15.652 40.6303 15.5563C40.726 15.4606 40.8556 15.4067 40.991 15.4063H42.0124C42.1478 15.4067 42.2775 15.4606 42.3731 15.5563C42.4688 15.652 42.5228 15.7817 42.5232 15.917V18.9814Z" fill="#C3F1FF"/>
<path fill-rule="evenodd" clip-rule="evenodd" d="M46.6094 47.5826C46.609 47.7179 46.555 47.8476 46.4593 47.9433C46.3636 48.039 46.234 48.0929 46.0986 48.0933H45.0772C44.9418 48.0929 44.8121 48.039 44.7164 47.9433C44.6207 47.8476 44.5668 47.7179 44.5664 47.5826V44.5182C44.5668 44.3828 44.6207 44.2531 44.7164 44.1575C44.8121 44.0618 44.9418 44.0078 45.0772 44.0074H46.0986C46.2339 44.0078 46.3636 44.0618 46.4593 44.1575C46.555 44.2531 46.609 44.3828 46.6094 44.5182V47.5826Z" fill="#C3F1FF"/>
<path fill-rule="evenodd" clip-rule="evenodd" d="M50.6953 47.5826C50.6949 47.7179 50.6409 47.8476 50.5452 47.9433C50.4496 48.039 50.3199 48.0929 50.1846 48.0933H49.1631C49.0278 48.0929 48.8981 48.039 48.8024 47.9433C48.7067 47.8476 48.6527 47.7179 48.6523 47.5826V44.5182C48.6527 44.3828 48.7067 44.2531 48.8024 44.1575C48.8981 44.0618 49.0278 44.0078 49.1631 44.0074H50.1846C50.3199 44.0078 50.4495 44.0618 50.5452 44.1575C50.6409 44.2532 50.6949 44.3828 50.6953 44.5182V47.5826Z" fill="#C3F1FF"/>
<path fill-rule="evenodd" clip-rule="evenodd" d="M54.7812 47.5826C54.7808 47.7179 54.7269 47.8476 54.6312 47.9433C54.5355 48.039 54.4058 48.0929 54.2705 48.0933H53.249C53.1137 48.0929 52.984 48.039 52.8883 47.9433C52.7926 47.8476 52.7387 47.7179 52.7383 47.5826V44.5182C52.7387 44.3828 52.7926 44.2532 52.8883 44.1575C52.984 44.0618 53.1137 44.0078 53.249 44.0074H54.2705C54.4058 44.0078 54.5355 44.0618 54.6312 44.1575C54.7269 44.2531 54.7808 44.3828 54.7812 44.5182V47.5826Z" fill="#C3F1FF"/>
<path fill-rule="evenodd" clip-rule="evenodd" d="M58.8669 47.5826C58.8665 47.7179 58.8126 47.8476 58.7169 47.9433C58.6212 48.039 58.4915 48.0929 58.3561 48.0933H57.3347C57.1994 48.0929 57.0697 48.039 56.974 47.9433C56.8783 47.8476 56.8244 47.7179 56.824 47.5826V44.5182C56.8244 44.3828 56.8783 44.2532 56.974 44.1575C57.0697 44.0618 57.1994 44.0078 57.3347 44.0074H58.3561C58.4915 44.0078 58.6212 44.0618 58.7169 44.1575C58.8126 44.2531 58.8665 44.3828 58.8669 44.5182V47.5826Z" fill="#C3F1FF"/>
<path fill-rule="evenodd" clip-rule="evenodd" d="M42.5232 47.5826C42.5228 47.7179 42.4689 47.8476 42.3732 47.9433C42.2775 48.039 42.1478 48.0929 42.0124 48.0933H40.991C40.8556 48.0929 40.726 48.039 40.6303 47.9433C40.5346 47.8476 40.4806 47.7179 40.4802 47.5826V44.5182C40.4806 44.3828 40.5346 44.2531 40.6303 44.1575C40.726 44.0618 40.8556 44.0078 40.991 44.0074H42.0124C42.1478 44.0078 42.2774 44.0618 42.3731 44.1575C42.4688 44.2531 42.5228 44.3828 42.5232 44.5182V47.5826Z" fill="#C3F1FF"/>
<path fill-rule="evenodd" clip-rule="evenodd" d="M66.0173 28.1745C66.0169 28.3099 65.963 28.4395 65.8673 28.5352C65.7716 28.6309 65.6419 28.6849 65.5066 28.6853H62.4421C62.3068 28.6849 62.1771 28.631 62.0814 28.5353C61.9857 28.4396 61.9318 28.3099 61.9314 28.1745V27.1531C61.9318 27.0178 61.9857 26.8881 62.0814 26.7924C62.1771 26.6967 62.3068 26.6428 62.4421 26.6424H65.5066C65.6419 26.6428 65.7716 26.6967 65.8672 26.7924C65.9629 26.8881 66.0169 27.0178 66.0173 27.1531V28.1745Z" fill="#C3F1FF"/>
<path fill-rule="evenodd" clip-rule="evenodd" d="M66.0173 32.2606C66.0169 32.3959 65.963 32.5256 65.8673 32.6213C65.7716 32.717 65.6419 32.7709 65.5066 32.7713H62.4421C62.3068 32.7709 62.1771 32.717 62.0814 32.6213C61.9857 32.5256 61.9318 32.3959 61.9314 32.2606V31.2391C61.9318 31.1038 61.9857 30.9741 62.0814 30.8784C62.1771 30.7827 62.3068 30.7287 62.4421 30.7283H65.5066C65.6419 30.7288 65.7716 30.7827 65.8673 30.8784C65.963 30.9741 66.0169 31.1038 66.0173 31.2391V32.2606Z" fill="#C3F1FF"/>
<path fill-rule="evenodd" clip-rule="evenodd" d="M66.0173 36.3463C66.0169 36.4817 65.963 36.6114 65.8673 36.7071C65.7716 36.8027 65.6419 36.8567 65.5066 36.8571H62.4421C62.3068 36.8567 62.1771 36.8028 62.0814 36.7071C61.9857 36.6114 61.9318 36.4817 61.9314 36.3463V35.3249C61.9318 35.1895 61.9857 35.0599 62.0814 34.9642C62.1771 34.8685 62.3068 34.8145 62.4421 34.8141H65.5066C65.6419 34.8145 65.7716 34.8685 65.8673 34.9642C65.9629 35.0599 66.0169 35.1896 66.0173 35.3249V36.3463Z" fill="#C3F1FF"/>
<path fill-rule="evenodd" clip-rule="evenodd" d="M66.0173 40.4324C66.0169 40.5677 65.9629 40.6973 65.8672 40.793C65.7716 40.8887 65.6419 40.9427 65.5066 40.9431H62.4421C62.3068 40.9427 62.1771 40.8887 62.0814 40.793C61.9857 40.6974 61.9318 40.5677 61.9314 40.4324V39.4109C61.9318 39.2756 61.9857 39.1459 62.0814 39.0502C62.1771 38.9545 62.3068 38.9005 62.4421 38.9001H65.5066C65.6419 38.9006 65.7716 38.9545 65.8673 39.0502C65.963 39.1459 66.0169 39.2756 66.0173 39.4109V40.4324Z" fill="#C3F1FF"/>
<path fill-rule="evenodd" clip-rule="evenodd" d="M66.0173 24.0888C66.0169 24.2241 65.9629 24.3538 65.8672 24.4495C65.7716 24.5452 65.6419 24.5991 65.5066 24.5995H62.4421C62.3068 24.5991 62.1771 24.5452 62.0814 24.4495C61.9857 24.3538 61.9318 24.2241 61.9314 24.0888V23.0673C61.9318 22.932 61.9857 22.8023 62.0814 22.7066C62.1771 22.6109 62.3068 22.557 62.4421 22.5566H65.5066C65.6419 22.557 65.7716 22.6109 65.8672 22.7066C65.9629 22.8023 66.0169 22.932 66.0173 23.0673V24.0888Z" fill="#C3F1FF"/>
<path fill-rule="evenodd" clip-rule="evenodd" d="M37.4162 28.1745C37.4158 28.3099 37.3619 28.4396 37.2662 28.5353C37.1705 28.631 37.0408 28.6849 36.9055 28.6853H33.8411C33.7057 28.6849 33.576 28.631 33.4803 28.5353C33.3846 28.4396 33.3307 28.3099 33.3303 28.1745V27.1531C33.3307 27.0178 33.3847 26.8881 33.4804 26.7924C33.5761 26.6967 33.7057 26.6428 33.8411 26.6424H36.9055C37.0408 26.6428 37.1705 26.6967 37.2661 26.7924C37.3618 26.8881 37.4158 27.0178 37.4162 27.1531L37.4162 28.1745Z" fill="#C3F1FF"/>
<path fill-rule="evenodd" clip-rule="evenodd" d="M37.4162 32.2606C37.4158 32.3959 37.3619 32.5256 37.2662 32.6213C37.1705 32.717 37.0408 32.7709 36.9055 32.7713H33.8411C33.7057 32.7709 33.576 32.717 33.4803 32.6213C33.3846 32.5256 33.3307 32.3959 33.3303 32.2606V31.2391C33.3307 31.1038 33.3846 30.9741 33.4803 30.8784C33.576 30.7827 33.7057 30.7287 33.8411 30.7283H36.9055C37.0408 30.7287 37.1705 30.7827 37.2662 30.8784C37.3619 30.9741 37.4158 31.1038 37.4162 31.2391L37.4162 32.2606Z" fill="#C3F1FF"/>
<path fill-rule="evenodd" clip-rule="evenodd" d="M37.4162 36.3463C37.4158 36.4817 37.3619 36.6114 37.2662 36.7071C37.1705 36.8028 37.0408 36.8567 36.9055 36.8571H33.8411C33.7057 36.8567 33.576 36.8028 33.4803 36.7071C33.3846 36.6114 33.3307 36.4817 33.3303 36.3463V35.3249C33.3307 35.1895 33.3847 35.0599 33.4803 34.9642C33.576 34.8685 33.7057 34.8145 33.8411 34.8141H36.9055C37.0408 34.8145 37.1705 34.8685 37.2662 34.9642C37.3619 35.0599 37.4158 35.1895 37.4162 35.3249L37.4162 36.3463Z" fill="#C3F1FF"/>
<path fill-rule="evenodd" clip-rule="evenodd" d="M37.4162 40.4324C37.4158 40.5677 37.3619 40.6974 37.2662 40.793C37.1705 40.8887 37.0408 40.9427 36.9055 40.9431H33.8411C33.7057 40.9427 33.5761 40.8887 33.4804 40.793C33.3847 40.6974 33.3307 40.5677 33.3303 40.4324V39.4109C33.3307 39.2756 33.3846 39.1459 33.4803 39.0502C33.576 38.9545 33.7057 38.9005 33.8411 38.9001H36.9055C37.0408 38.9005 37.1705 38.9545 37.2662 39.0502C37.3619 39.1459 37.4158 39.2756 37.4162 39.4109L37.4162 40.4324Z" fill="#C3F1FF"/>
<path fill-rule="evenodd" clip-rule="evenodd" d="M37.4162 24.0888C37.4158 24.2241 37.3619 24.3538 37.2662 24.4495C37.1705 24.5452 37.0408 24.5991 36.9055 24.5995H33.8411C33.7057 24.5991 33.5761 24.5452 33.4804 24.4495C33.3847 24.3538 33.3307 24.2241 33.3303 24.0888V23.0673C33.3307 22.932 33.3847 22.8023 33.4804 22.7066C33.5761 22.6109 33.7057 22.557 33.8411 22.5566H36.9055C37.0408 22.557 37.1705 22.6109 37.2661 22.7066C37.3618 22.8023 37.4158 22.932 37.4162 23.0673L37.4162 24.0888Z" fill="#C3F1FF"/>
<path fill-rule="evenodd" clip-rule="evenodd" d="M62.953 42.986C62.9514 43.5273 62.7356 44.046 62.3528 44.4288C61.97 44.8116 61.4513 45.0273 60.91 45.0289H38.4377C37.8964 45.0273 37.3777 44.8116 36.9949 44.4288C36.6121 44.046 36.3964 43.5273 36.3948 42.986V20.5137C36.3964 19.9724 36.6121 19.4537 36.9949 19.0709C37.3777 18.6881 37.8964 18.4724 38.4377 18.4708H60.91C61.4513 18.4724 61.97 18.6881 62.3528 19.0709C62.7356 19.4537 62.9514 19.9724 62.953 20.5137V42.986Z" fill="#0078D4"/>
<path opacity="0.2" fill-rule="evenodd" clip-rule="evenodd" d="M60.9098 18.4708H53.9945L45.8228 45.0289H60.9098C61.4512 45.0273 61.9699 44.8116 62.3526 44.4288C62.7354 44.046 62.9512 43.5273 62.9527 42.986V20.5137C62.9512 19.9724 62.7354 19.4537 62.3526 19.0709C61.9699 18.6881 61.4512 18.4724 60.9098 18.4708V18.4708Z" fill="#1F56A3"/>
<path fill-rule="evenodd" clip-rule="evenodd" d="M59.6729 41.751C59.5301 41.8933 59.3484 41.9902 59.1507 42.0293C58.9529 42.0684 58.748 42.0481 58.5618 41.9708C58.3756 41.8935 58.2165 41.7628 58.1045 41.5951C57.9926 41.4275 57.9329 41.2304 57.9329 41.0288C57.9329 40.8272 57.9926 40.6302 58.1045 40.4625C58.2165 40.2949 58.3756 40.1641 58.5618 40.0869C58.748 40.0096 58.9529 39.9892 59.1507 40.0283C59.3484 40.0674 59.5301 40.1643 59.6729 40.3066C59.7684 40.4011 59.8442 40.5136 59.8959 40.6375C59.9477 40.7615 59.9743 40.8945 59.9743 41.0288C59.9743 41.1631 59.9477 41.2961 59.8959 41.4201C59.8442 41.5441 59.7684 41.6565 59.6729 41.751V41.751Z" fill="#9CEBFF"/>
<path fill-rule="evenodd" clip-rule="evenodd" d="M35.3733 40.9431H36.3948V38.9001H35.3733V40.9431Z" fill="#9CEBFF"/>
<path fill-rule="evenodd" clip-rule="evenodd" d="M35.3733 36.8571H36.3948V34.8141H35.3733V36.8571Z" fill="#9CEBFF"/>
<path fill-rule="evenodd" clip-rule="evenodd" d="M35.3733 32.7713H36.3948V30.7283H35.3733V32.7713Z" fill="#9CEBFF"/>
<path fill-rule="evenodd" clip-rule="evenodd" d="M35.3733 28.6853H36.3948V26.6424H35.3733V28.6853Z" fill="#9CEBFF"/>
<path fill-rule="evenodd" clip-rule="evenodd" d="M35.3733 24.5995H36.3948V22.5566H35.3733V24.5995Z" fill="#9CEBFF"/>
<path fill-rule="evenodd" clip-rule="evenodd" d="M62.9529 40.9431H63.9743V38.9001H62.9529V40.9431Z" fill="#9CEBFF"/>
<path fill-rule="evenodd" clip-rule="evenodd" d="M62.9529 36.8571H63.9743V34.8141H62.9529V36.8571Z" fill="#9CEBFF"/>
<path fill-rule="evenodd" clip-rule="evenodd" d="M62.9529 32.7713H63.9743V30.7283H62.9529V32.7713Z" fill="#9CEBFF"/>
<path fill-rule="evenodd" clip-rule="evenodd" d="M62.9529 28.6853H63.9743V26.6424H62.9529V28.6853Z" fill="#9CEBFF"/>
<path fill-rule="evenodd" clip-rule="evenodd" d="M62.9529 24.5995H63.9743V22.5566H62.9529V24.5995Z" fill="#9CEBFF"/>
<path fill-rule="evenodd" clip-rule="evenodd" d="M40.4802 18.4708H42.5232V17.4493H40.4802V18.4708Z" fill="#9CEBFF"/>
<path fill-rule="evenodd" clip-rule="evenodd" d="M44.5664 18.4708H46.6094V17.4493H44.5664V18.4708Z" fill="#9CEBFF"/>
<path fill-rule="evenodd" clip-rule="evenodd" d="M48.6523 18.4708H50.6953V17.4493H48.6523V18.4708Z" fill="#9CEBFF"/>
<path fill-rule="evenodd" clip-rule="evenodd" d="M52.7383 18.4708H54.7812V17.4493H52.7383V18.4708Z" fill="#9CEBFF"/>
<path fill-rule="evenodd" clip-rule="evenodd" d="M56.824 18.4708H58.8669V17.4493H56.824V18.4708Z" fill="#9CEBFF"/>
<path fill-rule="evenodd" clip-rule="evenodd" d="M40.4802 46.0504H42.5232V45.0289H40.4802V46.0504Z" fill="#9CEBFF"/>
<path fill-rule="evenodd" clip-rule="evenodd" d="M44.5664 46.0504H46.6094V45.0289H44.5664V46.0504Z" fill="#9CEBFF"/>
<path fill-rule="evenodd" clip-rule="evenodd" d="M48.6523 46.0504H50.6953V45.0289H48.6523V46.0504Z" fill="#9CEBFF"/>
<path fill-rule="evenodd" clip-rule="evenodd" d="M52.7383 46.0504H54.7812V45.0289H52.7383V46.0504Z" fill="#9CEBFF"/>
<path fill-rule="evenodd" clip-rule="evenodd" d="M56.824 46.0504H58.8669V45.0289H56.824V46.0504Z" fill="#9CEBFF"/>
<path fill-rule="evenodd" clip-rule="evenodd" d="M59.6732 41.7509C59.769 41.6566 59.8451 41.5442 59.8971 41.4202C59.949 41.2962 59.9758 41.1631 59.9758 41.0287C59.9758 40.8943 59.949 40.7612 59.8971 40.6372C59.8451 40.5132 59.769 40.4008 59.6732 40.3065L58.2329 41.7509C58.3273 41.8458 58.4395 41.921 58.5631 41.9724C58.6867 42.0238 58.8192 42.0502 58.953 42.0502C59.0869 42.0502 59.2194 42.0238 59.343 41.9724C59.4665 41.921 59.5788 41.8458 59.6732 41.7509Z" fill="#C3F1FF"/>
<path fill-rule="evenodd" clip-rule="evenodd" d="M41.4163 22.4707C41.4163 22.6727 41.3564 22.8702 41.2441 23.0382C41.1319 23.2062 40.9724 23.3371 40.7857 23.4144C40.5991 23.4917 40.3937 23.512 40.1955 23.4726C39.9974 23.4332 39.8154 23.3359 39.6725 23.193C39.5296 23.0502 39.4323 22.8682 39.3929 22.67C39.3535 22.4719 39.3737 22.2665 39.451 22.0798C39.5283 21.8932 39.6593 21.7336 39.8273 21.6214C39.9952 21.5091 40.1927 21.4492 40.3948 21.4492C40.529 21.449 40.6619 21.4753 40.7859 21.5265C40.9099 21.5778 41.0226 21.653 41.1175 21.7479C41.2124 21.8428 41.2877 21.9555 41.3389 22.0795C41.3902 22.2035 41.4165 22.3365 41.4163 22.4707V22.4707Z" fill="#C3F1FF"/>
<path fill-rule="evenodd" clip-rule="evenodd" d="M41.1153 23.1928C41.2106 23.0982 41.2862 22.9857 41.3378 22.8617C41.3894 22.7378 41.416 22.6048 41.416 22.4706C41.416 22.3363 41.3894 22.2034 41.3378 22.0794C41.2862 21.9555 41.2106 21.843 41.1153 21.7484L39.675 23.1928C39.7694 23.2876 39.8817 23.3629 40.0052 23.4143C40.1288 23.4657 40.2613 23.4921 40.3952 23.4921C40.529 23.4921 40.6615 23.4657 40.7851 23.4143C40.9087 23.3629 41.0209 23.2876 41.1153 23.1928V23.1928Z" fill="#9CEBFF"/>
<g opacity="0.2">
<path d="M20.9803 73.8223H45.612C45.7414 73.8219 45.8654 73.7703 45.9569 73.6788C46.0485 73.5873 46.1 73.4633 46.1004 73.3339V54.1031H20.4919V73.3339C20.4923 73.4633 20.5439 73.5873 20.6354 73.6788C20.7269 73.7703 20.8509 73.8219 20.9803 73.8223V73.8223Z" fill="#003067"/>
<path d="M20.4919 56.2317H46.1004V53.9362C46.1005 53.887 46.0909 53.8382 46.0722 53.7927C46.0534 53.7473 46.0258 53.7059 45.991 53.6711C45.9562 53.6363 45.9149 53.6088 45.8694 53.59C45.8239 53.5712 45.7752 53.5616 45.726 53.5618H20.8664C20.8172 53.5616 20.7684 53.5712 20.7229 53.59C20.6775 53.6088 20.6361 53.6363 20.6013 53.6711C20.5665 53.7059 20.539 53.7473 20.5202 53.7927C20.5014 53.8382 20.4918 53.887 20.4919 53.9362V56.2317Z" fill="#003067"/>
<path d="M22.462 55.6008C22.5904 55.6003 22.7158 55.5619 22.8223 55.4902C22.9289 55.4186 23.0117 55.3169 23.0605 55.1981C23.1093 55.0794 23.1217 54.9488 23.0963 54.8229C23.0708 54.6971 23.0086 54.5816 22.9176 54.4911C22.8265 54.4006 22.7106 54.3391 22.5846 54.3145C22.4586 54.2898 22.3281 54.3031 22.2097 54.3526C22.0912 54.4021 21.9901 54.4856 21.9191 54.5926C21.8481 54.6996 21.8104 54.8252 21.8108 54.9536C21.8101 55.0391 21.8265 55.1239 21.8591 55.203C21.8916 55.2821 21.9396 55.3539 22.0003 55.4142C22.0609 55.4745 22.133 55.522 22.2123 55.5541C22.2916 55.5861 22.3765 55.602 22.462 55.6008Z" fill="#003067"/>
<path d="M53.6674 73.8223H78.299C78.4284 73.8219 78.5524 73.7703 78.644 73.6788C78.7355 73.5873 78.787 73.4633 78.7874 73.3339V54.1031H53.179V73.3339C53.1793 73.4633 53.2309 73.5873 53.3224 73.6788C53.4139 73.7703 53.5379 73.8219 53.6674 73.8223Z" fill="#003067"/>
<path d="M53.179 56.2317H78.7874V53.9362C78.7876 53.887 78.778 53.8382 78.7592 53.7927C78.7404 53.7473 78.7128 53.7059 78.678 53.6711C78.6433 53.6363 78.6019 53.6088 78.5564 53.59C78.5109 53.5712 78.4622 53.5616 78.413 53.5618H53.5534C53.5042 53.5616 53.4554 53.5712 53.41 53.59C53.3645 53.6088 53.3231 53.6363 53.2883 53.6711C53.2535 53.7059 53.226 53.7473 53.2072 53.7927C53.1884 53.8382 53.1788 53.887 53.179 53.9362V56.2317Z" fill="#003067"/>
<path d="M55.149 55.6008C55.2774 55.6003 55.4028 55.5619 55.5093 55.4902C55.6159 55.4186 55.6988 55.3169 55.7475 55.1981C55.7963 55.0794 55.8087 54.9488 55.7833 54.8229C55.7578 54.6971 55.6957 54.5816 55.6046 54.4911C55.5135 54.4006 55.3976 54.3391 55.2716 54.3145C55.1456 54.2898 55.0152 54.3031 54.8967 54.3526C54.7782 54.4021 54.6771 54.4856 54.6061 54.5926C54.5351 54.6996 54.4974 54.8252 54.4978 54.9536C54.4971 55.0391 54.5135 55.1239 54.5461 55.203C54.5786 55.2821 54.6266 55.3539 54.6873 55.4142C54.7479 55.4745 54.82 55.522 54.8993 55.5541C54.9786 55.5861 55.0635 55.602 55.149 55.6008V55.6008Z" fill="#003067"/>
</g>
<path d="M20.9803 72.8223H45.612C45.7414 72.8219 45.8654 72.7703 45.9569 72.6788C46.0485 72.5873 46.1 72.4633 46.1004 72.3339V53.1031H20.4919V72.3339C20.4923 72.4633 20.5439 72.5873 20.6354 72.6788C20.7269 72.7703 20.8509 72.8219 20.9803 72.8223V72.8223Z" fill="#C3F1FF"/>
<path d="M20.4919 55.2317H46.1004V52.9362C46.1005 52.887 46.0909 52.8382 46.0722 52.7927C46.0534 52.7473 46.0258 52.7059 45.991 52.6711C45.9562 52.6363 45.9149 52.6088 45.8694 52.59C45.8239 52.5712 45.7752 52.5616 45.726 52.5618H20.8664C20.8172 52.5616 20.7684 52.5712 20.7229 52.59C20.6775 52.6088 20.6361 52.6363 20.6013 52.6711C20.5665 52.7059 20.539 52.7473 20.5202 52.7927C20.5014 52.8382 20.4918 52.887 20.4919 52.9362V55.2317Z" fill="#0078D4"/>
<path d="M22.4618 54.6008C22.5902 54.6003 22.7156 54.5619 22.8221 54.4902C22.9286 54.4186 23.0115 54.3169 23.0603 54.1981C23.109 54.0794 23.1215 53.9488 23.096 53.8229C23.0706 53.6971 23.0084 53.5816 22.9173 53.4911C22.8263 53.4006 22.7104 53.3391 22.5844 53.3145C22.4584 53.2898 22.3279 53.3031 22.2094 53.3526C22.091 53.4021 21.9898 53.4856 21.9188 53.5926C21.8478 53.6996 21.8102 53.8252 21.8106 53.9536C21.8099 54.0391 21.8263 54.1239 21.8588 54.203C21.8913 54.2821 21.9393 54.3539 22 54.4142C22.0607 54.4745 22.1328 54.522 22.2121 54.5541C22.2914 54.5861 22.3763 54.602 22.4618 54.6008V54.6008Z" fill="#50E6FF"/>
<path d="M53.6674 72.8223H78.299C78.4284 72.8219 78.5524 72.7703 78.644 72.6788C78.7355 72.5873 78.787 72.4633 78.7874 72.3339V53.1031H53.179V72.3339C53.1793 72.4633 53.2309 72.5873 53.3224 72.6788C53.4139 72.7703 53.5379 72.8219 53.6674 72.8223Z" fill="#003067"/>
<path d="M53.179 55.2317H78.7874V52.9362C78.7876 52.887 78.778 52.8382 78.7592 52.7927C78.7404 52.7473 78.7128 52.7059 78.678 52.6711C78.6433 52.6363 78.6019 52.6088 78.5564 52.59C78.5109 52.5712 78.4622 52.5616 78.413 52.5618H53.5534C53.5042 52.5616 53.4554 52.5712 53.41 52.59C53.3645 52.6088 53.3231 52.6363 53.2883 52.6711C53.2535 52.7059 53.226 52.7473 53.2072 52.7927C53.1884 52.8382 53.1788 52.887 53.179 52.9362V55.2317Z" fill="#1F56A3"/>
<path d="M55.1488 54.6008C55.2772 54.6003 55.4026 54.5619 55.5091 54.4902C55.6156 54.4186 55.6985 54.3169 55.7473 54.1981C55.796 54.0794 55.8085 53.9488 55.783 53.8229C55.7576 53.6971 55.6954 53.5816 55.6043 53.4911C55.5133 53.4006 55.3974 53.3391 55.2714 53.3145C55.1454 53.2898 55.0149 53.3031 54.8964 53.3526C54.778 53.4021 54.6768 53.4856 54.6059 53.5926C54.5349 53.6996 54.4972 53.8252 54.4976 53.9536C54.4969 54.0391 54.5133 54.1239 54.5458 54.203C54.5784 54.2821 54.6264 54.3539 54.687 54.4142C54.7477 54.4745 54.8198 54.522 54.8991 54.5541C54.9784 54.5861 55.0633 54.602 55.1488 54.6008V54.6008Z" fill="#50E6FF"/>
<path d="M28.2411 57.5299H23.2688C22.8906 57.5299 22.584 57.8365 22.584 58.2147V69.7106C22.584 70.0888 22.8906 70.3954 23.2688 70.3954H28.2411C28.6193 70.3954 28.9259 70.0888 28.9259 69.7106V58.2147C28.9259 57.8365 28.6193 57.5299 28.2411 57.5299Z" fill="#9CEBFF"/>
<path d="M35.8163 57.5299H30.844C30.4658 57.5299 30.1592 57.8365 30.1592 58.2147V69.7106C30.1592 70.0888 30.4658 70.3954 30.844 70.3954H35.8163C36.1945 70.3954 36.5011 70.0888 36.5011 69.7106V58.2147C36.5011 57.8365 36.1945 57.5299 35.8163 57.5299Z" fill="#0078D4"/>
<path d="M43.3918 57.5299H38.4194C38.0412 57.5299 37.7346 57.8365 37.7346 58.2147V69.7106C37.7346 70.0888 38.0412 70.3954 38.4194 70.3954H43.3918C43.77 70.3954 44.0766 70.0888 44.0766 69.7106V58.2147C44.0766 57.8365 43.77 57.5299 43.3918 57.5299Z" fill="#1F56A3"/>
<path d="M60.9281 57.5299H55.9558C55.5776 57.5299 55.271 57.8365 55.271 58.2147V69.7106C55.271 70.0888 55.5776 70.3954 55.9558 70.3954H60.9281C61.3063 70.3954 61.613 70.0888 61.613 69.7106V58.2147C61.613 57.8365 61.3063 57.5299 60.9281 57.5299Z" fill="white"/>
<path d="M68.5033 57.5299H63.531C63.1528 57.5299 62.8462 57.8365 62.8462 58.2147V69.7106C62.8462 70.0888 63.1528 70.3954 63.531 70.3954H68.5033C68.8815 70.3954 69.1882 70.0888 69.1882 69.7106V58.2147C69.1882 57.8365 68.8815 57.5299 68.5033 57.5299Z" fill="#C3F1FF"/>
<path d="M76.0788 57.5299H71.1065C70.7282 57.5299 70.4216 57.8365 70.4216 58.2147V69.7106C70.4216 70.0888 70.7282 70.3954 71.1065 70.3954H76.0788C76.457 70.3954 76.7636 70.0888 76.7636 69.7106V58.2147C76.7636 57.8365 76.457 57.5299 76.0788 57.5299Z" fill="#9CEBFF"/>
<path d="M52.2477 31.4079C52.2477 31.9238 52.0948 32.4281 51.8082 32.857C51.5216 33.2859 51.1142 33.6202 50.6377 33.8176C50.1611 34.015 49.6366 34.0666 49.1307 33.966C48.6248 33.8654 48.16 33.617 47.7953 33.2522C47.4305 32.8874 47.1821 32.4227 47.0815 31.9168C46.9808 31.4108 47.0325 30.8864 47.2299 30.4098C47.4273 29.9332 47.7616 29.5259 48.1905 29.2393C48.6194 28.9527 49.1237 28.7997 49.6395 28.7997C50.331 28.8006 50.9939 29.0756 51.4829 29.5646C51.9719 30.0535 52.2469 30.7165 52.2477 31.4079V31.4079ZM57.0679 30.0032L55.8551 29.7335C55.7296 29.6878 55.6272 29.5944 55.57 29.4737C55.566 29.4604 55.5613 29.4473 55.5557 29.4346L55.2211 28.6213C55.2153 28.6073 55.2088 28.5932 55.2018 28.5796C55.1564 28.4549 55.1624 28.3173 55.2185 28.197L55.8856 27.1485C56.0221 26.9215 56.0804 26.656 56.0515 26.3927C56.0226 26.1294 55.9082 25.8828 55.7257 25.6908L55.3567 25.3217C55.1629 25.1424 54.9166 25.0301 54.6542 25.0013C54.3918 24.9725 54.127 25.0288 53.899 25.1618L52.8502 25.8288C52.7834 25.8622 52.7092 25.8784 52.6345 25.8757C52.5775 25.8778 52.5206 25.8676 52.4679 25.8457C52.4543 25.8384 52.4402 25.832 52.4259 25.8264L51.6129 25.4915C51.6001 25.4862 51.587 25.4815 51.5737 25.4774C51.453 25.4202 51.3596 25.3177 51.314 25.1921L51.0445 23.9796C50.9805 23.7225 50.8339 23.4935 50.6272 23.3277C50.4205 23.1619 50.1652 23.0685 49.9003 23.0617H49.3787C49.1139 23.0684 48.8585 23.1618 48.6519 23.3275C48.4452 23.4933 48.2987 23.7222 48.2347 23.9793L47.965 25.1926C47.919 25.3179 47.8258 25.4202 47.7052 25.4774C47.6919 25.4813 47.6789 25.4863 47.6658 25.4915L46.8528 25.8264C46.8385 25.832 46.8245 25.8385 46.8108 25.8457C46.7581 25.8676 46.7012 25.8779 46.6442 25.8757C46.5694 25.8782 46.4952 25.862 46.4282 25.8288L45.38 25.1621C45.1519 25.0291 44.8872 24.9729 44.6248 25.0017C44.3623 25.0305 44.1161 25.1427 43.9223 25.322L43.5532 25.6908C43.3707 25.8828 43.2563 26.1295 43.2274 26.3928C43.1985 26.6562 43.2568 26.9217 43.3933 27.1488L44.0605 28.197C44.1163 28.3173 44.1223 28.4547 44.0772 28.5794C44.0702 28.5932 44.0634 28.6073 44.0576 28.6214L43.723 29.4346C43.7178 29.4474 43.7128 29.4604 43.7087 29.4737C43.6515 29.5945 43.5491 29.688 43.4236 29.7337L42.211 30.0029C41.9539 30.0669 41.7249 30.2135 41.5591 30.4202C41.3933 30.6269 41.2999 30.8822 41.2932 31.1471V31.6688C41.2999 31.9336 41.3933 32.1889 41.559 32.3955C41.7248 32.6022 41.9537 32.7487 42.2108 32.8128L43.4238 33.0822C43.5492 33.1281 43.6516 33.2215 43.7087 33.3422C43.7128 33.3555 43.7178 33.3685 43.723 33.3813L44.0576 34.1946C44.0634 34.2086 44.0699 34.2225 44.0772 34.2363C44.1223 34.3611 44.1162 34.4986 44.0602 34.6189L43.3933 35.6671C43.2567 35.8942 43.1983 36.1597 43.2272 36.4231C43.2561 36.6865 43.3706 36.9331 43.5532 37.1251L43.9222 37.4942C44.1161 37.6734 44.3624 37.7856 44.6249 37.8144C44.8873 37.8432 45.1521 37.787 45.3802 37.6541L46.4279 36.9872C46.495 36.9538 46.5693 36.9376 46.6441 36.9402C46.7012 36.9379 46.7581 36.9481 46.8108 36.9702C46.8246 36.9769 46.8384 36.9837 46.8528 36.9895L47.6658 37.3244C47.6788 37.3296 47.6919 37.3343 47.7052 37.3384C47.8258 37.3957 47.9191 37.4981 47.965 37.6235L48.2347 38.8363C48.2986 39.0934 48.4451 39.3225 48.6518 39.4883C48.8584 39.6541 49.1138 39.7475 49.3787 39.7541H49.9003C50.1651 39.7474 50.4204 39.6539 50.6271 39.4882C50.8337 39.3224 50.9802 39.0934 51.0443 38.8363L51.3139 37.6235C51.3597 37.498 51.453 37.3956 51.5737 37.3384C51.587 37.3343 51.6001 37.3296 51.6128 37.3244L52.4258 36.9895C52.4402 36.9837 52.4543 36.9769 52.4678 36.9702C52.5205 36.9482 52.5773 36.938 52.6342 36.9402C52.709 36.9375 52.7833 36.9537 52.8502 36.9872L53.8987 37.6538C54.1268 37.7869 54.3916 37.8432 54.6541 37.8145C54.9166 37.7857 55.1629 37.6735 55.3567 37.4942L55.7255 37.1254C55.9081 36.9333 56.0226 36.6867 56.0515 36.4233C56.0804 36.1599 56.0222 35.8943 55.8857 35.6672L55.2185 34.6189C55.1907 34.5594 55.175 34.495 55.1721 34.4294C55.1693 34.3638 55.1794 34.2983 55.2018 34.2366C55.2088 34.2227 55.2154 34.2089 55.2211 34.1948L55.5558 33.3813C55.5613 33.3686 55.5661 33.3555 55.5701 33.3422C55.6273 33.2214 55.7298 33.128 55.8554 33.0822L57.0677 32.8128C57.3249 32.7489 57.5539 32.6023 57.7198 32.3957C57.8856 32.189 57.9791 31.9337 57.9858 31.6688V31.1471C57.9791 30.8823 57.8857 30.6269 57.7199 30.4203C57.5541 30.2136 57.3251 30.0671 57.0679 30.0032V30.0032Z" fill="url(#paint1_linear_1022_941)"/>
<path opacity="0.2" d="M52.2479 31.4079C52.2479 31.9238 52.0949 32.4281 51.8083 32.857C51.5217 33.2859 51.1144 33.6202 50.6378 33.8176C50.1612 34.015 49.6368 34.0666 49.1309 33.966C48.6249 33.8654 48.1602 33.617 47.7954 33.2522C47.4307 32.8874 47.1822 32.4227 47.0816 31.9168C46.981 31.4108 47.0326 30.8864 47.23 30.4098C47.4274 29.9332 47.7617 29.5259 48.1907 29.2393C48.6196 28.9527 49.1238 28.7997 49.6397 28.7997C50.3312 28.8006 50.9941 29.0756 51.483 29.5646C51.972 30.0535 52.247 30.7165 52.2479 31.4079V31.4079Z" fill="url(#paint2_linear_1022_941)"/>
<path d="M50.4937 76.1612L50.5336 76.1161C50.6161 76.0336 50.7258 75.9841 50.8422 75.9768C50.9586 75.9694 51.0737 76.0048 51.1659 76.0763L51.211 76.1162L53.6045 78.5102C53.6869 78.5926 53.7365 78.7023 53.7438 78.8187C53.7512 78.935 53.7159 79.0501 53.6445 79.1422L53.6047 79.1874L51.2112 81.5841C51.1251 81.6703 51.0094 81.7205 50.8876 81.7244C50.7658 81.7283 50.6471 81.6857 50.5557 81.6052C50.4642 81.5247 50.4069 81.4123 50.3953 81.291C50.3838 81.1697 50.4189 81.0486 50.4935 80.9522L50.5333 80.9071L52.1086 79.3289L46.082 79.329C45.9646 79.329 45.8514 79.2859 45.7636 79.2079C45.6759 79.1299 45.6199 79.0224 45.6062 78.9058L45.603 78.85C45.603 78.7326 45.6461 78.6193 45.7241 78.5316C45.8021 78.4439 45.9096 78.3879 46.0262 78.3742L46.0821 78.371H52.1101L50.5335 76.7936C50.451 76.7111 50.4015 76.6014 50.3942 76.485C50.3869 76.3686 50.4223 76.2535 50.4937 76.1613L50.5336 76.1162L50.4937 76.1612Z" fill="white"/>
</g>
<defs>
<linearGradient id="paint0_linear_1022_941" x1="47.8697" y1="-15.1531" x2="51.8525" y2="130.615" gradientUnits="userSpaceOnUse">
<stop stop-color="#00ABDE"/>
<stop offset="1" stop-color="#007ED8"/>
</linearGradient>
<linearGradient id="paint1_linear_1022_941" x1="49.6395" y1="39.7541" x2="49.6395" y2="23.0617" gradientUnits="userSpaceOnUse">
<stop stop-color="#CCCCCC"/>
<stop offset="0.32" stop-color="#DFDFDF"/>
<stop offset="0.67" stop-color="#ECECEC"/>
<stop offset="1" stop-color="#F0F0F0"/>
</linearGradient>
<linearGradient id="paint2_linear_1022_941" x1="49.6397" y1="34.0161" x2="49.6397" y2="28.7997" gradientUnits="userSpaceOnUse">
<stop stop-color="#CCCCCC"/>
<stop offset="1" stop-color="white"/>
</linearGradient>
<clipPath id="clip0_1022_941">
<rect width="99.2799" height="99.28" fill="white"/>
</clipPath>
</defs>
</svg>
