<?xml version="1.0" encoding="UTF-8"?>
<svg width="107px" height="107px" viewBox="0 0 107 107" version="1.1" xmlns="http://www.w3.org/2000/svg" xmlns:xlink="http://www.w3.org/1999/xlink">
    <!-- Generator: Sketch 59.1 (86144) - https://sketch.com -->
    <title>NA/access-files-with-microsoft-graph</title>
    <desc>Created with Sketch.</desc>
    <defs>
        <rect id="path-1" x="0" y="0" width="100" height="100" rx="50"></rect>
        <filter x="-12.5%" y="-9.2%" width="125.0%" height="119.3%" filterUnits="objectBoundingBox" id="filter-3">
            <feOffset dx="0" dy="2" in="SourceAlpha" result="shadowOffsetOuter1"></feOffset>
            <feColorMatrix values="0 0 0 0 0   0 0 0 0 0   0 0 0 0 0  0 0 0 0.0964956975 0" type="matrix" in="shadowOffsetOuter1" result="shadowMatrixOuter1"></feColorMatrix>
            <feMerge>
                <feMergeNode in="shadowMatrixOuter1"></feMergeNode>
                <feMergeNode in="SourceGraphic"></feMergeNode>
            </feMerge>
        </filter>
        <filter x="-12.5%" y="-9.2%" width="125.0%" height="119.3%" filterUnits="objectBoundingBox" id="filter-4">
            <feOffset dx="0" dy="2" in="SourceAlpha" result="shadowOffsetOuter1"></feOffset>
            <feColorMatrix values="0 0 0 0 0   0 0 0 0 0   0 0 0 0 0  0 0 0 0.0964956975 0" type="matrix" in="shadowOffsetOuter1" result="shadowMatrixOuter1"></feColorMatrix>
            <feMerge>
                <feMergeNode in="shadowMatrixOuter1"></feMergeNode>
                <feMergeNode in="SourceGraphic"></feMergeNode>
            </feMerge>
        </filter>
        <circle id="path-5" cx="26.5" cy="25.5" r="13.5"></circle>
        <filter x="-1.9%" y="-1.9%" width="103.7%" height="103.7%" filterUnits="objectBoundingBox" id="filter-6">
            <feOffset dx="0" dy="1" in="SourceAlpha" result="shadowOffsetInner1"></feOffset>
            <feComposite in="shadowOffsetInner1" in2="SourceAlpha" operator="arithmetic" k2="-1" k3="1" result="shadowInnerInner1"></feComposite>
            <feColorMatrix values="0 0 0 0 0   0 0 0 0 0   0 0 0 0 0  0 0 0 0.1 0" type="matrix" in="shadowInnerInner1"></feColorMatrix>
        </filter>
        <linearGradient x1="78.4210223%" y1="-7.24023438%" x2="15.5786468%" y2="110.793945%" id="linearGradient-7">
            <stop stop-color="#FFFFFF" offset="0%"></stop>
            <stop stop-color="#000000" stop-opacity="0.5" offset="100%"></stop>
        </linearGradient>
        <rect id="path-8" x="-3" y="-3" width="106" height="106" rx="53"></rect>
        <filter x="-0.5%" y="-0.5%" width="101.9%" height="101.9%" filterUnits="objectBoundingBox" id="filter-9">
            <feOffset dx="1" dy="1" in="SourceAlpha" result="shadowOffsetOuter1"></feOffset>
            <feMorphology radius="4" operator="erode" in="SourceAlpha" result="shadowInner"></feMorphology>
            <feOffset dx="1" dy="1" in="shadowInner" result="shadowInner"></feOffset>
            <feComposite in="shadowOffsetOuter1" in2="shadowInner" operator="out" result="shadowOffsetOuter1"></feComposite>
            <feColorMatrix values="0 0 0 0 0   0 0 0 0 0   0 0 0 0 0  0 0 0 0.15 0" type="matrix" in="shadowOffsetOuter1"></feColorMatrix>
        </filter>
    </defs>
    <g id="Badges" stroke="none" stroke-width="1" fill="none" fill-rule="evenodd">
        <g id="N/A-60" transform="translate(-47.000000, -657.000000)">
            <g id="NA/access-files-with-microsoft-graph" transform="translate(50.000000, 660.000000)">
                <g id="Mask" transform="translate(2.000000, 2.000000)">
                    <g id="Circle-" transform="translate(-2.000000, -0.000000)">
                        <mask id="mask-2" fill="white">
                            <use xlink:href="#path-1"></use>
                        </mask>
                        <g id="BG"></g>
                        <g id="Color-/-Microsoft-Graph" mask="url(#mask-2)" fill="#0078D4" fill-rule="evenodd">
                            <rect id="Rectangle" x="0" y="0" width="100" height="100"></rect>
                        </g>
                    </g>
                    <g id="Paper" filter="url(#filter-3)" transform="translate(42.480825, 68.850265) rotate(-4.000000) translate(-42.480825, -68.850265) translate(26.480825, 47.063031)">
                        <g id="Group-2">
                            <path d="M2.72476596,0 C1.22689362,0 0.00136170213,1.22553191 0.00136170213,2.72340426 L0.00136170213,40.8510638 C0.00136170213,42.3489362 1.22689362,43.5744681 2.72476596,43.5744681 L28.5971064,43.5744681 C30.0956596,43.5744681 31.3205106,42.3489362 31.3205106,40.8510638 L31.3205106,10.893617 L20.4268936,0 L2.72476596,0" id="Fill-12" fill="#E1E4E1"></path>
                            <path d="M23.1502979,10.893617 L31.3205106,10.893617 L20.4268936,0 L20.4268936,8.17021277 C20.4268936,9.66808511 21.6524255,10.893617 23.1502979,10.893617" id="Fill-13" fill="#697D85"></path>
                            <path d="M24.512,19.0638298 L6.80987234,19.0638298 C6.05821277,19.0638298 5.44817021,18.4537872 5.44817021,17.7021277 C5.44817021,16.9504681 6.05821277,16.3404255 6.80987234,16.3404255 L24.512,16.3404255 C25.2643404,16.3404255 25.8737021,16.9504681 25.8737021,17.7021277 C25.8737021,18.4537872 25.2643404,19.0638298 24.512,19.0638298" id="Fill-14" fill="#C5CCCD"></path>
                            <path d="M13.618383,12.9361702 L6.80987234,12.9361702 C6.05821277,12.9361702 5.44817021,12.3261277 5.44817021,11.5744681 C5.44817021,10.8228085 6.05821277,10.212766 6.80987234,10.212766 L13.618383,10.212766 C14.3707234,10.212766 14.9800851,10.8228085 14.9800851,11.5744681 C14.9800851,12.3261277 14.3707234,12.9361702 13.618383,12.9361702" id="Fill-15" fill="#C5CCCD"></path>
                            <path d="M13.618383,7.4893617 L6.80987234,7.4893617 C6.05821277,7.4893617 5.44817021,6.87931915 5.44817021,6.12765957 C5.44817021,5.376 6.05821277,4.76595745 6.80987234,4.76595745 L13.618383,4.76595745 C14.3707234,4.76595745 14.9800851,5.376 14.9800851,6.12765957 C14.9800851,6.87931915 14.3707234,7.4893617 13.618383,7.4893617" id="Fill-16" fill="#C5CCCD"></path>
                            <path d="M24.512,25.1914894 L6.80987234,25.1914894 C6.05821277,25.1914894 5.44817021,24.5814468 5.44817021,23.8297872 C5.44817021,23.0781277 6.05821277,22.4680851 6.80987234,22.4680851 L24.512,22.4680851 C25.2643404,22.4680851 25.8737021,23.0781277 25.8737021,23.8297872 C25.8737021,24.5814468 25.2643404,25.1914894 24.512,25.1914894" id="Fill-17" fill="#C5CCCD"></path>
                            <path d="M24.512,31.3191489 L6.80987234,31.3191489 C6.05821277,31.3191489 5.44817021,30.7091064 5.44817021,29.9574468 C5.44817021,29.2057872 6.05821277,28.5957447 6.80987234,28.5957447 L24.512,28.5957447 C25.2643404,28.5957447 25.8737021,29.2057872 25.8737021,29.9574468 C25.8737021,30.7091064 25.2643404,31.3191489 24.512,31.3191489" id="Fill-18" fill="#C5CCCD"></path>
                            <path d="M24.512,37.4468085 L6.80987234,37.4468085 C6.05821277,37.4468085 5.44817021,36.836766 5.44817021,36.0851064 C5.44817021,35.3334468 6.05821277,34.7234043 6.80987234,34.7234043 L24.512,34.7234043 C25.2643404,34.7234043 25.8737021,35.3334468 25.8737021,36.0851064 C25.8737021,36.836766 25.2643404,37.4468085 24.512,37.4468085" id="Fill-19" fill="#C5CCCD"></path>
                            <polyline id="Fill-20" fill="#C5CCCD" points="31.3205106 19.0638298 23.1502979 10.893617 31.3205106 10.893617 31.3205106 19.0638298"></polyline>
                        </g>
                    </g>
                    <g id="Paper" filter="url(#filter-4)" transform="translate(55.480825, 76.850265) rotate(10.000000) translate(-55.480825, -76.850265) translate(39.480825, 55.063031)">
                        <g id="Group-2">
                            <path d="M2.72476596,0 C1.22689362,0 0.00136170213,1.22553191 0.00136170213,2.72340426 L0.00136170213,40.8510638 C0.00136170213,42.3489362 1.22689362,43.5744681 2.72476596,43.5744681 L28.5971064,43.5744681 C30.0956596,43.5744681 31.3205106,42.3489362 31.3205106,40.8510638 L31.3205106,10.893617 L20.4268936,0 L2.72476596,0" id="Fill-12" fill="#E1E4E1"></path>
                            <path d="M23.1502979,10.893617 L31.3205106,10.893617 L20.4268936,0 L20.4268936,8.17021277 C20.4268936,9.66808511 21.6524255,10.893617 23.1502979,10.893617" id="Fill-13" fill="#697D85"></path>
                            <path d="M24.512,19.0638298 L6.80987234,19.0638298 C6.05821277,19.0638298 5.44817021,18.4537872 5.44817021,17.7021277 C5.44817021,16.9504681 6.05821277,16.3404255 6.80987234,16.3404255 L24.512,16.3404255 C25.2643404,16.3404255 25.8737021,16.9504681 25.8737021,17.7021277 C25.8737021,18.4537872 25.2643404,19.0638298 24.512,19.0638298" id="Fill-14" fill="#C5CCCD"></path>
                            <path d="M13.618383,12.9361702 L6.80987234,12.9361702 C6.05821277,12.9361702 5.44817021,12.3261277 5.44817021,11.5744681 C5.44817021,10.8228085 6.05821277,10.212766 6.80987234,10.212766 L13.618383,10.212766 C14.3707234,10.212766 14.9800851,10.8228085 14.9800851,11.5744681 C14.9800851,12.3261277 14.3707234,12.9361702 13.618383,12.9361702" id="Fill-15" fill="#C5CCCD"></path>
                            <path d="M13.618383,7.4893617 L6.80987234,7.4893617 C6.05821277,7.4893617 5.44817021,6.87931915 5.44817021,6.12765957 C5.44817021,5.376 6.05821277,4.76595745 6.80987234,4.76595745 L13.618383,4.76595745 C14.3707234,4.76595745 14.9800851,5.376 14.9800851,6.12765957 C14.9800851,6.87931915 14.3707234,7.4893617 13.618383,7.4893617" id="Fill-16" fill="#C5CCCD"></path>
                            <path d="M24.512,25.1914894 L6.80987234,25.1914894 C6.05821277,25.1914894 5.44817021,24.5814468 5.44817021,23.8297872 C5.44817021,23.0781277 6.05821277,22.4680851 6.80987234,22.4680851 L24.512,22.4680851 C25.2643404,22.4680851 25.8737021,23.0781277 25.8737021,23.8297872 C25.8737021,24.5814468 25.2643404,25.1914894 24.512,25.1914894" id="Fill-17" fill="#C5CCCD"></path>
                            <path d="M24.512,31.3191489 L6.80987234,31.3191489 C6.05821277,31.3191489 5.44817021,30.7091064 5.44817021,29.9574468 C5.44817021,29.2057872 6.05821277,28.5957447 6.80987234,28.5957447 L24.512,28.5957447 C25.2643404,28.5957447 25.8737021,29.2057872 25.8737021,29.9574468 C25.8737021,30.7091064 25.2643404,31.3191489 24.512,31.3191489" id="Fill-18" fill="#C5CCCD"></path>
                            <path d="M24.512,37.4468085 L6.80987234,37.4468085 C6.05821277,37.4468085 5.44817021,36.836766 5.44817021,36.0851064 C5.44817021,35.3334468 6.05821277,34.7234043 6.80987234,34.7234043 L24.512,34.7234043 C25.2643404,34.7234043 25.8737021,35.3334468 25.8737021,36.0851064 C25.8737021,36.836766 25.2643404,37.4468085 24.512,37.4468085" id="Fill-19" fill="#C5CCCD"></path>
                            <polyline id="Fill-20" fill="#C5CCCD" points="31.3205106 19.0638298 23.1502979 10.893617 31.3205106 10.893617 31.3205106 19.0638298"></polyline>
                        </g>
                    </g>
                    <g id="shoot" transform="translate(22.000000, 0.000000)">
                        <g id="Group" transform="translate(26.000000, 26.000000) rotate(90.000000) translate(-26.000000, -26.000000) ">
                            <path d="M47.9528101,48 L5.26843728,48 C2.91012568,48 1,46.0288 1,43.6 L1,8.4 C1,5.969 2.91012568,4 5.26843728,4 L47.9528101,4 C50.3089874,4 47.9528101,5.969 47.9528101,8.4 L47.9528101,43.6 C47.9528101,46.0288 50.3089874,48 47.9528101,48" id="Fill-360" fill="#546670"></path>
                            <path d="M39.6,4 L39.6,21.6 C39.6,24.031 37.6288,26 35.2,26 L0,26 L0,43.6 C0,46.031 1.969,48 4.4,48 L44,48 L44,4 L39.6,4" id="Fill-364" fill="#30404D"></path>
                            <path d="M48,52 L48,52 C45.79,52 44,50.0608333 44,47.6666667 L44,4.33333333 C44,1.93916667 45.79,0 48,0 C50.208,0 52,1.93916667 52,4.33333333 L52,47.6666667 C52,50.0608333 50.208,52 48,52" id="Fill-374" fill="#ADBDC4"></path>
                            <path d="M50,47.6359894 L52,47.6359894 C52,50.2868757 49.834,52.383585 47.328,51.9406797 C45.362,51.5915918 44,49.5756091 44,47.4025368 L44,4 L48,4 L48,45.4541899 C48,46.6585432 48.896,47.6359894 50,47.6359894 Z" id="Fill-375" fill="#8BA6B1"></path>
                        </g>
                        <g id="Oval">
                            <use fill="#8BA6B1" fill-rule="evenodd" xlink:href="#path-5"></use>
                            <use fill="black" fill-opacity="1" filter="url(#filter-6)" xlink:href="#path-5"></use>
                        </g>
                    </g>
                    <path d="M49,40 C57.270625,40 64,33.270625 64,25 C64,16.7289063 57.270625,10 49,10 C40.7289063,10 34,16.7289063 34,25 C34,33.270625 40.7289063,40 49,40" id="Fill-115" fill="#55A2FF"></path>
                    <g id="Group-2" transform="translate(37.000000, 14.000000)">
                        <polygon id="Path-254" fill="#103F90" points="7.86633114 4.27415034 7.86633114 16.5928314 0.338028169 10.7715191"></polygon>
                        <polygon id="Path-255" fill="#0279D3" points="6.52851347 -1.42108547e-14 7.52830297 4.03170928 -8.33111358e-13 10.5886405"></polygon>
                        <polygon id="Path-256" fill="#0078D3" points="17.565868 0.338028169 6.85224663 -6.57252031e-14 8.09367345 4.04296157"></polygon>
                        <polygon id="Path-257" fill="#C5E4FB" points="18.2717411 0.545736375 23.8235801 10.266113 19.4325829 10.266113"></polygon>
                        <polygon id="Path-258" fill="#2B7CD2" points="8.46850122 4.41583742 17.9414613 0.545736375 18.9477974 10.2506124"></polygon>
                        <polygon id="Path-259" fill="#0358A6" points="8.26446724 4.95020667 17.9414613 10.266113 8.26446724 15.9167751"></polygon>
                        <polygon id="Path-260" fill="#3D63A5" points="9.01228567 16.0508841 18.6097692 10.3917254 17.9920775 20.4096563"></polygon>
                        <polygon id="Path-261" fill="#112D56" points="8.26446724 16.4245063 5.85245713 20.7696724 17.5905588 20.7696724"></polygon>
                        <polygon id="Path-262" fill="#163870" points="0.338028169 11.4058099 7.1902748 16.6746976 5.44094458 20.4096563"></polygon>
                        <polygon id="Path-263" fill="#036DC0" points="19.0945547 10.7297535 23.8235801 10.7297535 18.6097692 19.4421598"></polygon>
                        <circle id="Oval" fill="#55A2FF" cx="18.5915493" cy="10.8169014" r="1.69014085"></circle>
                        <circle id="Oval" fill="#55A2FF" cx="8.11267606" cy="4.05633803" r="1.69014085"></circle>
                        <circle id="Oval" fill="#55A2FF" cx="8.11267606" cy="16.5633803" r="1.69014085"></circle>
                    </g>
                </g>
                <g id="Azure-Border">
                    <path d="M50,0 C74.5263677,-4.50542066e-15 94.9281966,17.6592499 99.1842495,40.9565123 L94.2027317,73.3905473 C85.8096395,89.2186645 69.1638777,100 50,100 C30.9551233,100 14.3971863,89.3521454 5.95457608,73.6848234 L0.0261464987,48.3675131 C0.887696267,21.508872 22.932015,4.97230817e-15 50,0 Z" id="Combined-Shape" fill="url(#linearGradient-7)" fill-rule="evenodd" opacity="0.400000006" style="mix-blend-mode: overlay;"></path>
                    <g>
                        <use fill="black" fill-opacity="1" filter="url(#filter-9)" xlink:href="#path-8"></use>
                        <rect stroke="#F2F1F0" stroke-width="4" stroke-linejoin="square" x="-1" y="-1" width="102" height="102" rx="51"></rect>
                    </g>
                    <rect stroke="#0078D4" stroke-width="4" x="2" y="2" width="96" height="96" rx="48"></rect>
                </g>
            </g>
        </g>
    </g>
</svg>