<svg width="103" height="103" viewBox="0 0 103 103" fill="none" xmlns="http://www.w3.org/2000/svg">
<path d="M51.4153 97.9625C25.5653 97.9625 4.60532 77.0125 4.60532 51.1525C4.60532 25.2925 25.5653 4.34253 51.4153 4.34253C77.2653 4.34253 98.2253 25.3025 98.2253 51.1525C98.2253 77.0025 77.2653 97.9625 51.4153 97.9625Z" fill="url(#paint0_linear)"/>
<path fill-rule="evenodd" clip-rule="evenodd" d="M97.3152 51.1525C97.3152 76.5025 76.7652 97.0525 51.4152 97.0525C26.0652 97.0525 5.51524 76.5025 5.51524 51.1525C5.51524 25.8025 26.0652 5.25245 51.4152 5.25245C76.7652 5.25245 97.3152 25.8025 97.3152 51.1525ZM51.4152 1.51245C78.8352 1.51245 101.055 23.7325 101.055 51.1525C101.055 78.5725 78.8252 100.792 51.4152 100.792C23.9952 100.792 1.77524 78.5625 1.77524 51.1525C1.77524 23.7325 23.9952 1.51245 51.4152 1.51245Z" fill="#F2F1F0"/>
<path d="M62.3854 38.6224C60.0654 38.6224 58.1754 36.7224 58.1754 34.3924C58.1754 32.0624 60.0654 30.1624 62.3854 30.1624C64.7054 30.1624 66.5954 32.0624 66.5954 34.3924C66.5954 36.7224 64.6954 38.6224 62.3854 38.6224ZM62.3854 31.8324C60.9854 31.8324 59.8554 32.9824 59.8554 34.3924C59.8554 35.8024 60.9954 36.9524 62.3854 36.9524C63.7754 36.9524 64.9154 35.8024 64.9154 34.3924C64.9154 32.9824 63.7754 31.8324 62.3854 31.8324Z" fill="url(#paint1_linear)"/>
<path d="M73.1454 78.8625H52.1454L49.9354 82.9825L48.4654 82.1925L54.5854 70.8025L56.0454 71.6025L53.0454 77.1925H72.2554L69.2554 71.6025L70.7254 70.8125L76.8454 82.2025L75.3754 82.9925L73.1454 78.8625Z" fill="url(#paint2_linear)"/>
<path d="M85.4154 38.9226H39.9154V69.5126H85.4154V38.9226Z" fill="url(#paint3_linear)"/>
<path d="M39.3154 34.3826H85.9854C86.9054 34.3826 87.6554 35.1326 87.6554 36.0526V37.8026C87.6554 38.7226 86.9054 39.4726 85.9854 39.4726H39.3154C38.3954 39.4726 37.6454 38.7226 37.6454 37.8026V36.0526C37.6454 35.1326 38.3954 34.3826 39.3154 34.3826Z" fill="url(#paint4_linear)"/>
<path d="M39.0554 68.8625H86.2354C87.0154 68.8625 87.6454 69.5026 87.6454 70.2726C87.6454 71.0526 87.0054 71.6825 86.2354 71.6825H39.0554C38.2754 71.6925 37.6454 71.0526 37.6454 70.2726C37.6454 69.4926 38.2754 68.8625 39.0554 68.8625Z" fill="url(#paint5_linear)"/>
<path d="M85.4154 38.9226H39.9154V69.5126H85.4154V38.9226Z" fill="url(#paint6_linear)"/>
<path d="M39.3154 34.3826H85.9854C86.9054 34.3826 87.6554 35.1326 87.6554 36.0526V37.8026C87.6554 38.7226 86.9054 39.4726 85.9854 39.4726H39.3154C38.3954 39.4726 37.6454 38.7226 37.6454 37.8026V36.0526C37.6454 35.1326 38.3954 34.3826 39.3154 34.3826Z" fill="url(#paint7_linear)"/>
<path d="M39.0554 68.8625H86.2354C87.0154 68.8625 87.6454 69.5026 87.6454 70.2726C87.6454 71.0526 87.0054 71.6825 86.2354 71.6825H39.0554C38.2754 71.6925 37.6454 71.0526 37.6454 70.2726C37.6454 69.4926 38.2754 68.8625 39.0554 68.8625Z" fill="url(#paint8_linear)"/>
<path d="M78.4254 47.6228H65.9654C65.4254 47.6228 64.9854 48.0728 64.9854 48.6028C64.9854 49.1428 65.4354 49.5828 65.9654 49.5828H78.4154C78.9554 49.5828 79.3954 49.1328 79.3954 48.6028C79.4054 48.0628 78.9654 47.6228 78.4254 47.6228Z" fill="#50E6FF"/>
<path d="M78.4254 51.8828H65.9654C65.4254 51.8828 64.9854 52.3328 64.9854 52.8628C64.9854 53.4028 65.4354 53.8428 65.9654 53.8428H78.4154C78.9554 53.8428 79.3954 53.3928 79.3954 52.8628C79.4054 52.3328 78.9654 51.8828 78.4254 51.8828Z" fill="#32B0E7"/>
<path fill-rule="evenodd" clip-rule="evenodd" d="M65.9654 56.4729H72.1954C72.7354 56.4729 73.1754 56.9229 73.1754 57.4529C73.1754 57.9929 72.7254 58.4329 72.1954 58.4329H65.9654C65.4254 58.4329 64.9854 57.9829 64.9854 57.4529C64.9854 56.9229 65.4254 56.4729 65.9654 56.4729Z" fill="#185A97"/>
<path d="M33.6754 90.3328C33.6754 90.3328 33.6154 86.0228 33.5254 84.5328C33.4354 83.0328 33.0954 73.4428 32.9754 70.6928C32.8554 67.9428 32.8254 57.0328 32.9754 53.7428C33.1254 50.4428 33.5254 41.0028 33.5854 37.7628C33.6454 34.5228 33.7054 29.9728 33.7954 28.9028C33.8854 27.8328 34.3754 27.8628 34.8654 28.2628C35.3554 28.6628 35.3554 28.5728 36.6054 29.5428C37.8554 30.5228 38.0754 29.5128 38.0754 29.5128L41.3754 26.9728C41.3754 26.9728 40.7054 26.2428 40.3354 25.8728C39.9654 25.5028 39.2954 24.7428 38.1354 23.2128C36.9754 21.6828 36.5454 21.3228 35.8454 20.9828C35.1454 20.6428 33.5254 20.6728 32.5754 21.1928C31.6254 21.7128 30.3454 22.6628 30.3454 22.6628L29.3054 21.6228C28.9354 21.3128 27.3454 19.8828 26.3754 21.1328C25.4054 22.3828 26.7154 23.3328 27.4754 23.7328C28.2354 24.1328 29.9454 24.2228 29.9454 24.2228C29.9454 24.2228 30.1554 24.8628 30.3754 25.3528C30.5854 25.8428 31.0454 26.4528 31.0454 26.4528C31.0454 26.4528 30.6754 28.0428 30.4354 32.0128C30.1954 35.9828 29.8554 42.4028 29.6454 45.6628C29.4354 48.9328 28.1754 60.5728 27.6254 64.8428C27.0754 69.1228 25.8854 76.4228 25.3654 79.3528C24.8754 82.1328 21.6854 82.5228 18.7254 82.9228C22.6754 86.1728 27.2454 88.7028 32.2154 90.3128L33.6754 90.3328Z" fill="#F9D697"/>
<path d="M35.6954 21.6228C35.6954 21.6228 35.7254 19.1528 35.8154 18.0228C35.9054 16.8928 36.5454 16.2228 37.0354 16.5828C37.5254 16.9528 37.9854 17.6828 37.6754 18.8728C37.3654 20.0628 35.9354 21.7428 35.9354 21.7428L35.6954 21.6228Z" fill="#F9D697"/>
<path d="M30.0453 18.3226C30.0453 18.3226 30.5353 19.7326 30.8053 20.6426C31.0753 21.5626 31.5653 22.5326 31.5653 22.5326L31.9353 22.2926C31.9353 22.2926 31.3853 21.2526 31.0453 20.0926C30.7053 18.9326 30.4353 17.6526 30.4353 17.6526L30.0453 18.3226Z" fill="#F9D697"/>
<path d="M32.6053 17.5324C32.6053 17.6224 32.7853 18.3924 33.1553 19.2424C33.5253 20.1024 34.1053 21.3224 34.1053 21.3224L34.6253 21.2624C34.6253 21.2624 33.9553 20.2224 33.5853 19.1824C33.2153 18.1424 32.9153 17.1624 32.9153 17.1624L32.6053 17.5324Z" fill="#F9D697"/>
<path d="M40.6154 26.1028C40.6154 26.1028 39.0154 27.4328 38.2754 27.9928C37.5454 28.5628 36.4554 29.4928 36.4554 29.4928C36.4554 29.4928 38.4454 30.6528 39.5754 31.0828C40.7054 31.5128 42.1254 31.2628 42.8154 30.3028C43.5054 29.3428 42.9354 28.3128 42.5454 27.8028C42.1554 27.2928 40.6154 26.1028 40.6154 26.1028Z" fill="#AC6348"/>
<path d="M41.4354 29.7624C41.5854 29.7624 41.7154 29.6324 41.7154 29.4824C41.7154 29.3324 41.5854 29.2024 41.4354 29.2024C41.2854 29.2024 41.1554 29.3324 41.1554 29.4824C41.1554 29.6324 41.2854 29.7624 41.4354 29.7624Z" fill="#C08B76"/>
<path d="M40.3453 30.2028C40.4953 30.2028 40.6253 30.0728 40.6253 29.9228C40.6253 29.7728 40.4953 29.6428 40.3453 29.6428C40.1953 29.6428 40.0653 29.7728 40.0653 29.9228C40.0653 30.0728 40.1953 30.2028 40.3453 30.2028Z" fill="#C08B76"/>
<path d="M37.0055 24.3026C37.2855 24.1426 37.2955 23.6326 37.0355 23.1626C36.7655 22.7026 36.3255 22.4526 36.0355 22.6126C35.7555 22.7726 35.7455 23.2826 36.0055 23.7526C36.2855 24.2226 36.7255 24.4626 37.0055 24.3026Z" fill="#101010"/>
<path d="M36.9055 24.2327C37.0555 24.1427 37.0655 23.8627 36.9155 23.6027C36.7655 23.3427 36.5255 23.2027 36.3655 23.2927C36.2155 23.3827 36.2055 23.6627 36.3555 23.9227C36.5055 24.1827 36.7555 24.3227 36.9055 24.2327Z" fill="#ECECEC"/>
<path d="M34.4855 25.9828C34.7655 25.8228 34.7755 25.3128 34.5155 24.8428C34.2455 24.3828 33.8055 24.1328 33.5155 24.2928C33.2355 24.4528 33.2255 24.9628 33.4855 25.4328C33.7655 25.9028 34.2055 26.1428 34.4855 25.9828Z" fill="#101010"/>
<path d="M34.3855 25.9124C34.5355 25.8224 34.5455 25.5424 34.3955 25.2824C34.2455 25.0224 34.0055 24.8824 33.8455 24.9724C33.6955 25.0624 33.6855 25.3424 33.8355 25.6024C33.9855 25.8624 34.2355 25.9924 34.3855 25.9124Z" fill="#ECECEC"/>
<path d="M33.0453 33.7525L30.6653 37.0125L30.2953 36.4025L32.5453 33.3425L33.0453 33.7525Z" fill="#E2A570"/>
<path d="M32.7755 43.5028L30.4055 46.7628L30.0355 46.1528L32.2755 43.1028L32.7755 43.5028Z" fill="#E2A56F"/>
<path d="M31.9354 56.7125L28.8354 60.4925L28.4654 59.8825L31.4354 56.3025L31.9354 56.7125Z" fill="#E2A56F"/>
<path d="M32.1153 66.5428L27.9753 71.2228L27.6053 70.6128L31.6153 66.1428L32.1153 66.5428Z" fill="#E2A56F"/>
<path d="M30.8854 85.7225L22.9654 82.9525L23.2354 82.3025L31.1554 85.0725L30.8854 85.7225Z" fill="#E2A56F"/>
<path d="M32.1755 75.4025L28.2655 73.9525V73.2625L32.1755 74.7124V75.4025Z" fill="#E2A56F"/>
<path d="M33.0253 83.5028L32.0753 83.4228L27.3853 74.7728L27.6953 73.8328L33.0253 83.5028Z" fill="#E2A56F"/>
<path d="M31.8453 64.1426L28.7953 62.3425L28.8753 61.6125L31.9253 63.4025L31.8453 64.1426Z" fill="#E2A56F"/>
<path d="M32.9054 53.3425H32.0954L30.2154 48.7825H31.0354L32.9054 53.3425Z" fill="#E2A56F"/>
<path d="M33.0653 41.1628H32.2153L30.2953 39.0528L30.9053 38.6028L33.0653 41.1628Z" fill="#E2A56F"/>
<path d="M30.5153 18.7028C31.0353 18.4428 31.1953 17.7028 30.8653 17.0528C30.5353 16.4028 29.8553 16.0828 29.3353 16.3328C28.8153 16.5928 28.6553 17.3328 28.9853 17.9828C29.3153 18.6328 29.9953 18.9628 30.5153 18.7028Z" fill="#AB6448"/>
<path d="M33.1355 17.9625C33.6555 17.7025 33.8155 16.9625 33.4855 16.3125C33.1555 15.6625 32.4755 15.3425 31.9555 15.5925C31.4355 15.8525 31.2755 16.5925 31.6055 17.2425C31.9255 17.9025 32.6155 18.2225 33.1355 17.9625Z" fill="#AB6448"/>
<path d="M31.4354 75.6427C31.4354 76.6627 32.2354 77.5027 33.2454 77.5727C33.2254 77.1027 33.2054 76.6227 33.1954 76.1627C33.1954 76.1127 33.1954 76.0727 33.1854 76.0327C33.1854 75.9227 33.1754 75.8127 33.1754 75.7027C33.1754 75.6527 33.1754 75.6027 33.1654 75.5527C33.1654 75.4227 33.1554 75.2927 33.1554 75.1627C33.1554 75.1327 33.1554 75.1027 33.1554 75.0727C33.1554 74.9527 33.1454 74.8227 33.1454 74.7027C33.1454 74.6627 33.1454 74.6227 33.1454 74.5727C33.1454 74.4427 33.1354 74.3127 33.1354 74.1927C33.1354 74.1827 33.1354 74.1727 33.1354 74.1527C33.1254 74.0227 33.1254 73.8827 33.1154 73.7527C33.1154 73.7427 33.1154 73.7427 33.1154 73.7327C32.1654 73.8627 31.4354 74.6727 31.4354 75.6427Z" fill="#AB6448"/>
<path d="M30.9054 64.8925C30.9054 66.1925 31.7454 67.2925 32.9054 67.6825V67.6725C32.9054 67.4825 32.9054 67.2825 32.8954 67.0725C32.8954 67.0625 32.8954 67.0525 32.8954 67.0325C32.8954 66.8325 32.8954 66.6225 32.8854 66.4125C32.8854 66.4025 32.8854 66.4025 32.8854 66.3925C32.8754 65.0725 32.8654 63.5925 32.8654 62.1125C32.8654 62.1025 32.8654 62.1025 32.8654 62.0925C31.7254 62.5225 30.9054 63.6125 30.9054 64.8925Z" fill="#AB6448"/>
<path d="M33.0354 52.4324C31.8254 52.7524 30.9254 53.8624 30.9254 55.1724C30.9254 56.4324 31.7454 57.5024 32.8854 57.8724C32.8854 57.7424 32.8854 57.6224 32.8854 57.5024C32.8854 57.4224 32.8854 57.3524 32.8854 57.2824C32.8854 57.1524 32.8854 57.0324 32.8854 56.9024C32.8854 56.8424 32.8854 56.7824 32.8854 56.7324C32.8854 56.6024 32.8854 56.4824 32.8954 56.3624C32.8954 56.3024 32.8954 56.2524 32.8954 56.2024C32.8954 56.0924 32.8954 55.9724 32.9054 55.8624C32.9054 55.8224 32.9054 55.7724 32.9054 55.7324C32.9054 55.6124 32.9054 55.4924 32.9154 55.3724C32.9154 55.3424 32.9154 55.3024 32.9154 55.2724C32.9154 55.1424 32.9254 55.0224 32.9254 54.9024C32.9254 54.8724 32.9254 54.8524 32.9254 54.8224C32.9254 54.7024 32.9354 54.5824 32.9354 54.4724C32.9354 54.4524 32.9354 54.4324 32.9354 54.4124C32.9354 54.3024 32.9454 54.1824 32.9454 54.0824C32.9454 54.0724 32.9454 54.0624 32.9454 54.0524C32.9454 53.9424 32.9554 53.8424 32.9554 53.7424C32.9954 53.3724 33.0154 52.9224 33.0354 52.4324Z" fill="#AB6448"/>
<path d="M29.9153 49.3925C30.9853 49.3925 31.8453 48.5225 31.8453 47.4625C31.8453 46.3925 30.9753 45.5325 29.9153 45.5325C29.8253 45.5325 29.7453 45.5425 29.6553 45.5525C29.6553 45.5925 29.6453 45.6325 29.6453 45.6725C29.6453 45.6725 29.6453 45.6725 29.6453 45.6825C29.6353 45.7725 29.6353 45.8725 29.6253 45.9825C29.6253 45.9925 29.6253 45.9925 29.6253 46.0025C29.6153 46.1125 29.6053 46.2225 29.5953 46.3425C29.5953 46.3525 29.5953 46.3625 29.5953 46.3725C29.5853 46.4925 29.5753 46.6225 29.5653 46.7525C29.5653 46.7625 29.5653 46.7625 29.5653 46.7725C29.5553 46.9025 29.5453 47.0425 29.5253 47.1925C29.5253 47.2025 29.5253 47.2125 29.5253 47.2225C29.5153 47.3625 29.4953 47.5125 29.4853 47.6625C29.4853 47.6725 29.4853 47.6925 29.4853 47.7025C29.4753 47.8525 29.4553 48.0125 29.4453 48.1725C29.4453 48.1925 29.4453 48.2025 29.4453 48.2225C29.4253 48.3925 29.4153 48.5625 29.3953 48.7325C29.3953 48.7425 29.3953 48.7525 29.3953 48.7625C29.3753 48.9325 29.3653 49.1125 29.3453 49.2925C29.3453 49.3025 29.3453 49.3125 29.3453 49.3125C29.5153 49.3625 29.7153 49.3925 29.9153 49.3925Z" fill="#AB6448"/>
<path d="M31.5853 42.3428C31.5853 43.4828 32.3253 44.4428 33.3553 44.7728V44.7628C33.4053 43.4328 33.4553 42.1328 33.4953 40.9828C33.4953 40.9728 33.4953 40.9628 33.4953 40.9528C33.5053 40.7728 33.5053 40.5928 33.5153 40.4128C33.5153 40.4028 33.5153 40.3928 33.5153 40.3828C33.5253 40.2128 33.5253 40.0428 33.5353 39.8728C33.5353 39.8628 33.5353 39.8628 33.5353 39.8528C32.4153 40.1328 31.5853 41.1428 31.5853 42.3428Z" fill="#AB6448"/>
<path d="M31.7855 32.6128C31.7855 33.6328 32.6155 34.4728 33.6455 34.4728C33.6555 33.9728 33.6655 33.4828 33.6755 33.0128C33.6755 32.9928 33.6755 32.9828 33.6755 32.9628C33.6855 32.6628 33.6855 32.3628 33.6955 32.0828C33.6955 32.0628 33.6955 32.0428 33.6955 32.0228C33.7055 31.7428 33.7055 31.4728 33.7155 31.2128C33.7155 31.1928 33.7155 31.1628 33.7155 31.1428C33.7155 31.0128 33.7255 30.8928 33.7255 30.7728C33.6955 30.7728 33.6755 30.7728 33.6455 30.7728C32.6155 30.7628 31.7855 31.5928 31.7855 32.6128Z" fill="#AB6448"/>
<path d="M31.3055 37.9527C31.3055 37.1927 30.8455 36.5427 30.1955 36.2527C30.1855 36.5027 30.1655 36.7627 30.1555 37.0127C30.1555 37.0827 30.1455 37.1427 30.1455 37.2127C30.1355 37.4327 30.1255 37.6427 30.1055 37.8627C30.0955 37.9527 30.0955 38.0427 30.0855 38.1327C30.0855 38.1427 30.0855 38.1627 30.0855 38.1727C30.0555 38.6927 30.0255 39.2127 29.9955 39.7227C30.7555 39.4927 31.3055 38.7827 31.3055 37.9527Z" fill="#AB6448"/>
<path d="M29.5655 61.3526C29.5655 60.4626 29.0355 59.7025 28.2755 59.3625C28.2755 59.3725 28.2755 59.3725 28.2755 59.3825C28.2555 59.5625 28.2355 59.7426 28.2155 59.9226C28.2155 59.9326 28.2155 59.9425 28.2155 59.9525C28.1555 60.5125 28.0955 61.0525 28.0355 61.5625V61.5725C27.9955 61.9025 27.9555 62.2226 27.9255 62.5326C27.9255 62.5526 27.9255 62.5725 27.9155 62.5925C27.8955 62.7425 27.8855 62.8825 27.8655 63.0225C27.8655 63.0325 27.8655 63.0525 27.8555 63.0625C27.8355 63.2025 27.8255 63.3526 27.8055 63.4826C28.8055 63.2926 29.5655 62.4126 29.5655 61.3526Z" fill="#AB6448"/>
<path d="M26.0755 75.2827C27.6955 75.2827 29.0055 73.9727 29.0055 72.3527C29.0055 71.0427 28.1455 69.9427 26.9655 69.5627C26.9355 69.7827 26.8955 70.0127 26.8655 70.2327C26.8555 70.2727 26.8555 70.3027 26.8455 70.3427C26.7755 70.8027 26.7055 71.2627 26.6355 71.7227C26.6355 71.7427 26.6255 71.7627 26.6255 71.7927C26.5955 72.0127 26.5555 72.2327 26.5255 72.4627C26.5255 72.4727 26.5255 72.4827 26.5255 72.4927C26.4555 72.9627 26.3755 73.4327 26.3055 73.8927C26.3055 73.9027 26.3055 73.9227 26.2955 73.9327C26.2255 74.3927 26.1455 74.8427 26.0755 75.2827C26.0655 75.2827 26.0655 75.2827 26.0755 75.2827Z" fill="#AB6448"/>
<path d="M33.6753 89.7824C33.6753 89.5924 33.6653 89.3524 33.6653 89.0924C33.6653 88.8924 33.6553 88.6824 33.6553 88.4524C33.6553 88.3024 33.6453 88.1424 33.6453 87.9924C33.6453 87.8324 33.6353 87.6724 33.6353 87.5124C33.6353 87.4324 33.6353 87.3424 33.6253 87.2624C33.6253 87.1024 33.6153 86.9424 33.6153 86.7824C33.6153 86.6224 33.6053 86.4624 33.6053 86.3024C33.5853 85.5924 33.5653 84.9524 33.5353 84.5324C33.5353 84.5224 33.5353 84.5124 33.5353 84.5124C33.5353 84.4724 33.5353 84.4324 33.5253 84.3824C33.5253 84.3624 33.5253 84.3424 33.5253 84.3224C33.5253 84.2824 33.5253 84.2424 33.5153 84.1924C33.5153 84.1624 33.5153 84.1324 33.5153 84.1024C33.5153 84.0624 33.5153 84.0124 33.5053 83.9724C33.5053 83.9324 33.5053 83.8924 33.4953 83.8624C33.4953 83.8224 33.4953 83.7724 33.4853 83.7324C33.4853 83.6824 33.4853 83.6424 33.4753 83.5924C33.4753 83.5524 33.4753 83.5024 33.4653 83.4624C33.4553 83.2324 33.4453 82.9924 33.4353 82.7124C33.4353 82.7024 33.4353 82.6924 33.4353 82.6824C31.6753 83.1624 30.3753 84.7724 30.3753 86.6824C30.3753 87.4724 30.5953 88.2024 30.9753 88.8324C31.0853 89.0124 31.2153 89.1924 31.3553 89.3524C31.6953 89.7524 32.2453 90.5624 32.7053 90.8124L33.6053 91.1924C33.6153 91.1824 33.6753 90.1224 33.6753 89.7824Z" fill="#AB6448"/>
<path d="M21.2054 84.8027C21.5354 85.0327 21.8754 85.2727 22.2054 85.4927L21.7254 84.5427C21.5654 84.6427 21.3854 84.7327 21.2054 84.8027Z" fill="#E2A56F"/>
<path d="M30.9855 88.8225L30.0555 89.5525C30.2855 89.6425 30.5155 89.7425 30.7455 89.8225L31.3655 89.3425C31.2255 89.1725 31.0955 89.0025 30.9855 88.8225Z" fill="#E2A56F"/>
<path d="M20.8854 84.4424L21.5554 84.2224L21.7254 84.5524C22.7354 83.9624 23.4554 82.9424 23.6154 81.7424C22.3054 82.4724 20.4754 82.7024 18.7254 82.9424C19.4554 83.5424 20.2154 84.1124 20.9954 84.6624L20.8854 84.4424Z" fill="#AB6448"/>
<path d="M20.8853 84.4426L20.9853 84.6526C21.0553 84.7026 21.1253 84.7527 21.1953 84.8027C21.3753 84.7327 21.5553 84.6426 21.7153 84.5426L21.5453 84.2126L20.8853 84.4426Z" fill="#AB6448"/>
<path d="M51.7354 50.3125L58.2654 47.5225L59.4854 55.1525L51.7354 50.3125Z" fill="#50D9FF"/>
<path d="M58.2654 47.5125L49.6954 47.5625L51.7354 50.3025L58.2654 47.5125Z" fill="#28A8EA"/>
<path d="M58.2654 47.5125L62.3054 54.8725L59.4854 55.1525L58.2654 47.5125Z" fill="#2CAAEB"/>
<path d="M62.2954 54.8726L59.4854 55.1526L58.1354 61.7926L62.2954 54.8726Z" fill="#0078D4"/>
<path d="M59.4754 55.1523L58.1254 61.7923L51.5154 59.8023L59.4754 55.1523Z" fill="#0364B8"/>
<path d="M59.4854 55.1525L51.5254 59.8025L51.7354 50.3125L59.4854 55.1525Z" fill="#28A8EA"/>
<path d="M49.6954 47.5725L51.7354 50.3125L45.4554 54.6725L49.6954 47.5725Z" fill="#0078D4"/>
<path d="M51.7354 50.3125L45.4554 54.6725L51.5254 59.8025L51.7354 50.3125Z" fill="#0364B8"/>
<path d="M45.4554 54.6724L49.4454 62.0024L51.5254 59.7924L45.4554 54.6724Z" fill="#1D4A79"/>
<path d="M49.4454 62.0025L51.5254 59.7925L58.1354 61.7825L49.4454 62.0025Z" fill="#243A5E"/>
<path fill-rule="evenodd" clip-rule="evenodd" d="M94.5053 51.1525C94.5053 74.9525 75.2153 94.2425 51.4153 94.2425C27.6153 94.2425 8.3253 74.9525 8.3253 51.1525C8.3253 27.3525 27.6153 8.06251 51.4153 8.06251C75.2153 8.06251 94.5053 27.3525 94.5053 51.1525ZM51.4153 4.32251C77.2753 4.32251 98.2453 25.2925 98.2453 51.1525C98.2453 77.0125 77.2753 97.9825 51.4153 97.9825C25.5553 97.9825 4.5853 77.0125 4.5853 51.1525C4.5853 25.2925 25.5453 4.32251 51.4153 4.32251Z" fill="url(#paint9_linear)"/>
<defs>
<linearGradient id="paint0_linear" x1="49.6454" y1="-13.6371" x2="53.6274" y2="132.133" gradientUnits="userSpaceOnUse">
<stop stop-color="#00ABDE"/>
<stop offset="1" stop-color="#007ED8"/>
</linearGradient>
<linearGradient id="paint1_linear" x1="56.3289" y1="21.8969" x2="78.8581" y2="68.3785" gradientUnits="userSpaceOnUse">
<stop stop-color="#007ED8"/>
<stop offset="0.7065" stop-color="#002D4C"/>
</linearGradient>
<linearGradient id="paint2_linear" x1="67.6001" y1="142.892" x2="58.1141" y2="26.4518" gradientUnits="userSpaceOnUse">
<stop stop-color="#007ED8"/>
<stop offset="0.7065" stop-color="#002D4C"/>
</linearGradient>
<linearGradient id="paint3_linear" x1="62.6653" y1="69.5126" x2="62.6653" y2="38.9226" gradientUnits="userSpaceOnUse">
<stop stop-color="#D2EBFF"/>
<stop offset="1" stop-color="#F0FFFD"/>
</linearGradient>
<linearGradient id="paint4_linear" x1="62.6504" y1="34.3948" x2="62.6504" y2="39.4848" gradientUnits="userSpaceOnUse">
<stop stop-color="#0099BE"/>
<stop offset="1" stop-color="#006E97"/>
</linearGradient>
<linearGradient id="paint5_linear" x1="62.6454" y1="68.8674" x2="62.6454" y2="71.695" gradientUnits="userSpaceOnUse">
<stop stop-color="#0099BE"/>
<stop offset="1" stop-color="#006E97"/>
</linearGradient>
<linearGradient id="paint6_linear" x1="62.6653" y1="69.5126" x2="62.6653" y2="38.9226" gradientUnits="userSpaceOnUse">
<stop stop-color="#D2EBFF"/>
<stop offset="1" stop-color="#F0FFFD"/>
</linearGradient>
<linearGradient id="paint7_linear" x1="62.6504" y1="34.3948" x2="62.6504" y2="39.4848" gradientUnits="userSpaceOnUse">
<stop stop-color="#007ED8"/>
<stop offset="0.7065" stop-color="#002D4C"/>
</linearGradient>
<linearGradient id="paint8_linear" x1="62.6454" y1="68.8674" x2="62.6454" y2="71.695" gradientUnits="userSpaceOnUse">
<stop stop-color="#007ED8"/>
<stop offset="0.7065" stop-color="#002D4C"/>
</linearGradient>
<linearGradient id="paint9_linear" x1="2.8487" y1="-20.4726" x2="98.3758" y2="120.409" gradientUnits="userSpaceOnUse">
<stop stop-color="#007ED8"/>
<stop offset="0.7065" stop-color="#002D4C"/>
</linearGradient>
</defs>
</svg>
