<svg width="103" height="103" viewBox="0 0 103 103" fill="none" xmlns="http://www.w3.org/2000/svg">
<path d="M51.2497 98.7838C25.3997 98.7838 4.4397 77.8338 4.4397 51.9738C4.4397 26.1138 25.3997 5.16382 51.2497 5.16382C77.0997 5.16382 98.0597 26.1238 98.0597 51.9738C98.0597 77.8238 77.0997 98.7838 51.2497 98.7838Z" fill="url(#paint0_linear)"/>
<path fill-rule="evenodd" clip-rule="evenodd" d="M97.1499 51.974C97.1499 77.324 76.5999 97.874 51.2499 97.874C25.8999 97.874 5.34986 77.324 5.34986 51.974C5.34986 26.624 25.8999 6.07398 51.2499 6.07398C76.5999 6.07398 97.1499 26.624 97.1499 51.974ZM51.2499 2.33398C78.6699 2.33398 100.89 24.554 100.89 51.974C100.89 79.394 78.6599 101.614 51.2499 101.614C23.8299 101.614 1.60986 79.384 1.60986 51.974C1.60986 24.554 23.8299 2.33398 51.2499 2.33398Z" fill="#F2F1F0"/>
<path d="M62.2198 40.4739C59.8998 40.4739 58.0098 38.5739 58.0098 36.2439C58.0098 33.9139 59.8998 32.0139 62.2198 32.0139C64.5398 32.0139 66.4298 33.9139 66.4298 36.2439C66.4298 38.5739 64.5298 40.4739 62.2198 40.4739ZM62.2198 33.6739C60.8198 33.6739 59.6898 34.8239 59.6898 36.2339C59.6898 37.6439 60.8298 38.7939 62.2198 38.7939C63.6098 38.7939 64.7498 37.6439 64.7498 36.2339C64.7498 34.8239 63.6098 33.6739 62.2198 33.6739Z" fill="url(#paint1_linear)"/>
<path d="M72.9798 80.7038H51.9798L49.7698 84.8238L48.2998 84.0338L54.4198 72.6438L55.8798 73.4438L52.8798 79.0338H72.0898L69.0898 73.4438L70.5598 72.6538L76.6798 84.0438L75.2098 84.8338L72.9798 80.7038Z" fill="url(#paint2_linear)"/>
<path d="M85.2498 40.7639H39.7498V71.3539H85.2498V40.7639Z" fill="url(#paint3_linear)"/>
<path d="M39.1497 36.2239H85.8197C86.7397 36.2239 87.4897 36.9739 87.4897 37.8939V39.6439C87.4897 40.5639 86.7397 41.3139 85.8197 41.3139H39.1497C38.2297 41.3139 37.4797 40.5639 37.4797 39.6439V37.8939C37.4797 36.9839 38.2297 36.2239 39.1497 36.2239Z" fill="url(#paint4_linear)"/>
<path d="M38.8897 70.7039H86.0697C86.8497 70.7039 87.4797 71.3439 87.4797 72.1139C87.4797 72.8939 86.8397 73.5239 86.0697 73.5239H38.8897C38.1097 73.5339 37.4797 72.8939 37.4797 72.1139C37.4797 71.3439 38.1097 70.7039 38.8897 70.7039Z" fill="url(#paint5_linear)"/>
<path d="M85.2498 40.7639H39.7498V71.3539H85.2498V40.7639Z" fill="url(#paint6_linear)"/>
<path d="M39.1497 36.2239H85.8197C86.7397 36.2239 87.4897 36.9739 87.4897 37.8939V39.6439C87.4897 40.5639 86.7397 41.3139 85.8197 41.3139H39.1497C38.2297 41.3139 37.4797 40.5639 37.4797 39.6439V37.8939C37.4797 36.9839 38.2297 36.2239 39.1497 36.2239Z" fill="url(#paint7_linear)"/>
<path d="M38.8897 70.7039H86.0697C86.8497 70.7039 87.4797 71.3439 87.4797 72.1139C87.4797 72.8939 86.8397 73.5239 86.0697 73.5239H38.8897C38.1097 73.5339 37.4797 72.8939 37.4797 72.1139C37.4797 71.3439 38.1097 70.7039 38.8897 70.7039Z" fill="url(#paint8_linear)"/>
<path d="M52.3398 66.964V64.374C52.3398 63.674 51.7798 63.114 51.0798 63.114C50.3798 63.114 49.8198 63.684 49.8198 64.374V66.964C49.8198 67.664 50.3798 68.224 51.0798 68.224C51.7798 68.224 52.3398 67.664 52.3398 66.964Z" fill="#185A97"/>
<path d="M57.4499 66.964V61.864C57.4499 61.164 56.8899 60.604 56.1899 60.604C55.4899 60.604 54.9299 61.164 54.9299 61.864V66.964C54.9299 67.664 55.4899 68.224 56.1899 68.224C56.8899 68.224 57.4499 67.664 57.4499 66.964Z" fill="#0078D4"/>
<path d="M67.5898 66.964V50.384C67.5898 49.684 67.0298 49.124 66.3298 49.124C65.6298 49.124 65.0698 49.684 65.0698 50.384V66.964C65.0698 67.664 65.6298 68.224 66.3298 68.224C67.0198 68.224 67.5898 67.664 67.5898 66.964Z" fill="#50E6FF"/>
<path d="M62.4797 66.9639V56.7539C62.4797 56.0539 61.9197 55.4939 61.2197 55.4939C60.5197 55.4939 59.9597 56.0539 59.9597 56.7539V66.9639C59.9597 67.6639 60.5197 68.2239 61.2197 68.2239C61.8997 68.2239 62.4797 67.6639 62.4797 66.9639Z" fill="#50E6FF"/>
<path d="M72.6998 66.964V45.334C72.6998 44.634 72.1398 44.074 71.4398 44.074H71.4198C70.7198 44.074 70.1598 44.634 70.1698 45.334V66.954C70.1698 67.654 70.7298 68.214 71.4298 68.214H71.4398C72.1398 68.224 72.6998 67.664 72.6998 66.964Z" fill="#50E6FF"/>
<path d="M33.5098 92.1739C33.5098 92.1739 33.4498 87.8639 33.3598 86.3739C33.2698 84.8739 32.9298 75.2839 32.8098 72.5339C32.6898 69.7839 32.6598 58.8739 32.8098 55.5839C32.9598 52.2839 33.3598 42.8439 33.4198 39.6039C33.4798 36.3639 33.5398 31.8139 33.6298 30.7439C33.7198 29.6739 34.2098 29.7039 34.6998 30.1039C35.1898 30.5039 35.1898 30.4139 36.4398 31.3839C37.6898 32.3639 37.9098 31.3539 37.9098 31.3539L41.2098 28.8139C41.2098 28.8139 40.5398 28.0839 40.1698 27.7139C39.7998 27.3439 39.1298 26.5839 37.9698 25.0539C36.8098 23.5239 36.3798 23.1639 35.6798 22.8239C34.9798 22.4839 33.3598 22.5139 32.4098 23.0339C31.4598 23.5539 30.1798 24.5039 30.1798 24.5039L29.1498 23.4739C28.7798 23.1639 27.1898 21.7339 26.2198 22.9839C25.2498 24.2339 26.5598 25.1839 27.3198 25.5839C28.0798 25.9839 29.7898 26.0739 29.7898 26.0739C29.7898 26.0739 29.9998 26.7139 30.2198 27.2039C30.4298 27.6939 30.8898 28.3039 30.8898 28.3039C30.8898 28.3039 30.5198 29.8939 30.2798 33.8639C30.0398 37.8339 29.6998 44.2539 29.4898 47.5139C29.2798 50.7839 28.0198 62.4239 27.4698 66.6939C26.9198 70.9739 25.7198 78.2739 25.1998 81.2039C24.7098 83.9839 21.5198 84.3739 18.5598 84.7739C22.5098 88.0239 27.0798 90.5539 32.0498 92.1639L33.5098 92.1739Z" fill="#F9D697"/>
<path d="M35.5298 23.4738C35.5298 23.4738 35.5598 21.0038 35.6498 19.8738C35.7398 18.7438 36.3798 18.0738 36.8698 18.4338C37.3598 18.8038 37.8198 19.5338 37.5098 20.7238C37.1998 21.9138 35.7698 23.5938 35.7698 23.5938L35.5298 23.4738Z" fill="#F9D697"/>
<path d="M29.8799 20.1739C29.8799 20.1739 30.3699 21.5839 30.6399 22.4939C30.9099 23.4139 31.3999 24.3839 31.3999 24.3839L31.7699 24.1439C31.7699 24.1439 31.2199 23.1039 30.8799 21.9439C30.5399 20.7839 30.2699 19.5039 30.2699 19.5039L29.8799 20.1739Z" fill="#F9D697"/>
<path d="M32.4397 19.3739C32.4397 19.4639 32.6197 20.2339 32.9897 21.0839C33.3597 21.9439 33.9397 23.1639 33.9397 23.1639L34.4597 23.1039C34.4597 23.1039 33.7897 22.0639 33.4197 21.0239C33.0497 19.9839 32.7497 19.0039 32.7497 19.0039L32.4397 19.3739Z" fill="#F9D697"/>
<path d="M40.4498 27.9438C40.4498 27.9438 38.8498 29.2738 38.1098 29.8338C37.3798 30.4038 36.2898 31.3338 36.2898 31.3338C36.2898 31.3338 38.2798 32.4938 39.4098 32.9238C40.5398 33.3538 41.9598 33.1038 42.6498 32.1438C43.3398 31.1838 42.7698 30.1538 42.3798 29.6438C41.9798 29.1238 40.4498 27.9438 40.4498 27.9438Z" fill="#AC6348"/>
<path d="M41.2697 31.6039C41.4244 31.6039 41.5497 31.4786 41.5497 31.3239C41.5497 31.1693 41.4244 31.0439 41.2697 31.0439C41.1151 31.0439 40.9897 31.1693 40.9897 31.3239C40.9897 31.4786 41.1151 31.6039 41.2697 31.6039Z" fill="#C08B76"/>
<path d="M40.1799 32.0539C40.3345 32.0539 40.4599 31.9285 40.4599 31.7739C40.4599 31.6193 40.3345 31.4939 40.1799 31.4939C40.0253 31.4939 39.8999 31.6193 39.8999 31.7739C39.8999 31.9285 40.0253 32.0539 40.1799 32.0539Z" fill="#C08B76"/>
<path d="M36.8418 26.1443C37.124 25.9814 37.1356 25.4732 36.8677 25.0093C36.5999 24.5454 36.154 24.3014 35.8718 24.4643C35.5896 24.6272 35.578 25.1354 35.8458 25.5993C36.1137 26.0632 36.5596 26.3072 36.8418 26.1443Z" fill="#101010"/>
<path d="M36.7385 26.0726C36.8916 25.9843 36.8947 25.7033 36.7456 25.445C36.5965 25.1867 36.3516 25.049 36.1985 25.1374C36.0455 25.2257 36.0423 25.5067 36.1914 25.765C36.3405 26.0233 36.5855 26.161 36.7385 26.0726Z" fill="#ECECEC"/>
<path d="M34.3222 27.8221C34.6044 27.6591 34.616 27.151 34.3482 26.687C34.0803 26.2231 33.6344 25.9791 33.3522 26.142C33.0701 26.3049 33.0585 26.8131 33.3263 27.277C33.5942 27.741 34.0401 27.985 34.3222 27.8221Z" fill="#101010"/>
<path d="M34.2192 27.7501C34.3723 27.6618 34.3755 27.3808 34.2263 27.1225C34.0772 26.8642 33.8323 26.7265 33.6792 26.8149C33.5262 26.9032 33.523 27.1842 33.6721 27.4425C33.8212 27.7008 34.0662 27.8385 34.2192 27.7501Z" fill="#ECECEC"/>
<path d="M32.8799 35.5938L30.4999 38.8538L30.1299 38.2438L32.3799 35.1938L32.8799 35.5938Z" fill="#E2A570"/>
<path d="M32.6099 45.3538L30.2399 48.6138L29.8699 48.0038L32.1099 44.9438L32.6099 45.3538Z" fill="#E2A56F"/>
<path d="M31.7698 58.5538L28.6698 62.3338L28.2998 61.7238L31.2698 58.1438L31.7698 58.5538Z" fill="#E2A56F"/>
<path d="M31.9497 68.3939L27.8097 73.0739L27.4397 72.4639L31.4497 67.9839L31.9497 68.3939Z" fill="#E2A56F"/>
<path d="M30.7198 87.5738L22.7998 84.8038L23.0698 84.1538L30.9898 86.9238L30.7198 87.5738Z" fill="#E2A56F"/>
<path d="M32.0099 77.244L28.0999 75.804V75.104L32.0099 76.554V77.244Z" fill="#E2A56F"/>
<path d="M32.8597 85.3538L31.9097 85.2738L27.2197 76.6138L27.5297 75.6738L32.8597 85.3538Z" fill="#E2A56F"/>
<path d="M31.6799 65.9839L28.6299 64.1939L28.7099 63.4539L31.7599 65.2539L31.6799 65.9839Z" fill="#E2A56F"/>
<path d="M32.7398 55.194H31.9298L30.0498 50.624H30.8698L32.7398 55.194Z" fill="#E2A56F"/>
<path d="M32.8999 43.0138H32.0499L30.1299 40.8938L30.7399 40.4438L32.8999 43.0138Z" fill="#E2A56F"/>
<path d="M30.3474 20.5444C30.8668 20.2866 31.0251 19.5482 30.7009 18.8952C30.3767 18.2422 29.6928 17.9219 29.1734 18.1798C28.654 18.4377 28.4957 19.1761 28.8199 19.8291C29.1441 20.482 29.828 20.8023 30.3474 20.5444Z" fill="#AB6448"/>
<path d="M32.9695 19.8171C33.4889 19.5593 33.6471 18.8209 33.323 18.1679C32.9988 17.5149 32.3149 17.1946 31.7955 17.4525C31.2761 17.7104 31.1178 18.4488 31.442 19.1018C31.7662 19.7547 32.4501 20.075 32.9695 19.8171Z" fill="#AB6448"/>
<path d="M31.2698 77.494C31.2698 78.514 32.0698 79.354 33.0798 79.424C33.0598 78.954 33.0398 78.474 33.0298 78.014C33.0298 77.964 33.0298 77.924 33.0198 77.884C33.0198 77.774 33.0098 77.664 33.0098 77.554C33.0098 77.504 33.0098 77.454 32.9998 77.404C32.9998 77.274 32.9898 77.144 32.9898 77.014C32.9898 76.984 32.9898 76.954 32.9898 76.924C32.9898 76.804 32.9798 76.674 32.9798 76.554C32.9798 76.514 32.9798 76.474 32.9798 76.424C32.9798 76.294 32.9698 76.164 32.9698 76.044C32.9698 76.034 32.9698 76.024 32.9698 76.004C32.9598 75.874 32.9598 75.734 32.9498 75.604C32.9498 75.594 32.9498 75.594 32.9498 75.584C31.9998 75.714 31.2698 76.514 31.2698 77.494Z" fill="#AB6448"/>
<path d="M30.7397 66.7338C30.7397 68.0338 31.5797 69.1338 32.7397 69.5238V69.5138C32.7397 69.3238 32.7397 69.1238 32.7297 68.9138C32.7297 68.9038 32.7297 68.8938 32.7297 68.8738C32.7297 68.6738 32.7297 68.4638 32.7197 68.2538C32.7197 68.2438 32.7197 68.2438 32.7197 68.2338C32.7097 66.9138 32.6997 65.4338 32.6997 63.9538C32.6997 63.9438 32.6997 63.9438 32.6997 63.9338C31.5597 64.3638 30.7397 65.4538 30.7397 66.7338Z" fill="#AB6448"/>
<path d="M32.8698 54.2739C31.6598 54.5939 30.7598 55.7039 30.7598 57.0139C30.7598 58.2739 31.5798 59.3439 32.7198 59.7139C32.7198 59.5839 32.7198 59.4639 32.7198 59.3439C32.7198 59.2639 32.7198 59.1939 32.7198 59.1239C32.7198 58.9939 32.7198 58.8739 32.7198 58.7439C32.7198 58.6839 32.7198 58.6239 32.7198 58.5739C32.7198 58.4439 32.7198 58.3239 32.7298 58.2039C32.7298 58.1439 32.7298 58.0939 32.7298 58.0439C32.7298 57.9339 32.7298 57.8139 32.7398 57.7039C32.7398 57.6639 32.7398 57.6139 32.7398 57.5739C32.7398 57.4539 32.7398 57.3339 32.7498 57.2139C32.7498 57.1839 32.7498 57.1439 32.7498 57.1139C32.7498 56.9839 32.7598 56.8639 32.7598 56.7439C32.7598 56.7139 32.7598 56.6939 32.7598 56.6639C32.7598 56.5439 32.7698 56.4239 32.7698 56.3139C32.7698 56.2939 32.7698 56.2739 32.7698 56.2539C32.7698 56.1439 32.7798 56.0239 32.7798 55.9239C32.7798 55.9139 32.7798 55.9039 32.7798 55.8939C32.7798 55.7839 32.7898 55.6839 32.7898 55.5839C32.8298 55.2139 32.8498 54.7739 32.8698 54.2739Z" fill="#AB6448"/>
<path d="M29.7497 51.234C30.8197 51.234 31.6797 50.364 31.6797 49.304C31.6797 48.234 30.8097 47.374 29.7497 47.374C29.6597 47.374 29.5797 47.384 29.4897 47.394C29.4897 47.434 29.4797 47.474 29.4797 47.514C29.4797 47.514 29.4797 47.514 29.4797 47.524C29.4697 47.614 29.4697 47.714 29.4597 47.824C29.4597 47.834 29.4597 47.834 29.4597 47.844C29.4497 47.954 29.4397 48.064 29.4297 48.184C29.4297 48.194 29.4297 48.204 29.4297 48.214C29.4197 48.334 29.4097 48.464 29.3997 48.594C29.3997 48.604 29.3997 48.604 29.3997 48.614C29.3897 48.744 29.3797 48.884 29.3597 49.034C29.3597 49.044 29.3597 49.054 29.3597 49.064C29.3497 49.204 29.3297 49.354 29.3197 49.504C29.3197 49.514 29.3197 49.534 29.3197 49.544C29.3097 49.694 29.2897 49.854 29.2797 50.014C29.2797 50.034 29.2797 50.044 29.2797 50.064C29.2597 50.234 29.2497 50.404 29.2297 50.574C29.2297 50.584 29.2297 50.594 29.2297 50.604C29.2097 50.774 29.1997 50.954 29.1797 51.134C29.1797 51.144 29.1797 51.154 29.1797 51.154C29.3497 51.204 29.5497 51.234 29.7497 51.234Z" fill="#AB6448"/>
<path d="M31.4199 44.1838C31.4199 45.3238 32.1599 46.2838 33.1899 46.6138V46.6038C33.2399 45.2738 33.2899 43.9738 33.3299 42.8238C33.3299 42.8138 33.3299 42.8038 33.3299 42.7938C33.3399 42.6138 33.3399 42.4338 33.3499 42.2538C33.3499 42.2438 33.3499 42.2338 33.3499 42.2238C33.3599 42.0538 33.3599 41.8838 33.3699 41.7138C33.3699 41.7038 33.3699 41.7038 33.3699 41.6938C32.2499 41.9838 31.4199 42.9838 31.4199 44.1838Z" fill="#AB6448"/>
<path d="M31.6199 34.4639C31.6199 35.4839 32.4499 36.3239 33.4799 36.3239C33.4899 35.8239 33.4999 35.3339 33.5099 34.8639C33.5099 34.8439 33.5099 34.8339 33.5099 34.8139C33.5199 34.5139 33.5199 34.2139 33.5299 33.9339C33.5299 33.9139 33.5299 33.8939 33.5299 33.8739C33.5399 33.5939 33.5399 33.3239 33.5499 33.0639C33.5499 33.0439 33.5499 33.0139 33.5499 32.9939C33.5499 32.8639 33.5599 32.7439 33.5599 32.6239C33.5299 32.6239 33.5099 32.6239 33.4799 32.6239C32.4499 32.6039 31.6199 33.4339 31.6199 34.4639Z" fill="#AB6448"/>
<path d="M31.1398 39.794C31.1398 39.034 30.6798 38.384 30.0298 38.094C30.0198 38.344 29.9998 38.604 29.9898 38.854C29.9898 38.924 29.9798 38.984 29.9798 39.054C29.9698 39.274 29.9598 39.484 29.9398 39.704C29.9298 39.794 29.9298 39.884 29.9198 39.974C29.9198 39.984 29.9198 40.004 29.9198 40.014C29.8898 40.534 29.8598 41.054 29.8298 41.564C30.5898 41.334 31.1398 40.624 31.1398 39.794Z" fill="#AB6448"/>
<path d="M29.3999 63.1939C29.3999 62.3039 28.8699 61.5439 28.1099 61.2039C28.1099 61.2139 28.1099 61.2139 28.1099 61.2239C28.0899 61.4039 28.0699 61.5839 28.0499 61.7639C28.0499 61.7739 28.0499 61.7839 28.0499 61.7939C27.9899 62.3539 27.9299 62.8939 27.8699 63.4039V63.4139C27.8299 63.7439 27.7899 64.0639 27.7599 64.3739C27.7599 64.3939 27.7599 64.4139 27.7499 64.4339C27.7299 64.5839 27.7199 64.7239 27.6999 64.8639C27.6999 64.8739 27.6999 64.8939 27.6899 64.9039C27.6699 65.0439 27.6599 65.1939 27.6399 65.3239C28.6399 65.1339 29.3999 64.2539 29.3999 63.1939Z" fill="#AB6448"/>
<path d="M25.9098 77.1238C27.5298 77.1238 28.8398 75.8138 28.8398 74.1938C28.8398 72.8838 27.9798 71.7838 26.7998 71.4038C26.7698 71.6238 26.7298 71.8538 26.6998 72.0738C26.6898 72.1138 26.6898 72.1438 26.6798 72.1838C26.6098 72.6438 26.5398 73.1038 26.4698 73.5638C26.4698 73.5838 26.4598 73.6038 26.4598 73.6338C26.4298 73.8538 26.3898 74.0738 26.3598 74.3038C26.3598 74.3138 26.3598 74.3238 26.3598 74.3338C26.2898 74.8038 26.2098 75.2738 26.1398 75.7338C26.1398 75.7438 26.1398 75.7638 26.1298 75.7738C26.0598 76.2338 25.9798 76.6838 25.9098 77.1238C25.8998 77.1238 25.8998 77.1238 25.9098 77.1238Z" fill="#AB6448"/>
<path d="M33.5097 91.6339C33.5097 91.4439 33.4997 91.2039 33.4997 90.9439C33.4997 90.7439 33.4897 90.5339 33.4897 90.3039C33.4897 90.1539 33.4797 89.9939 33.4797 89.8439C33.4797 89.6839 33.4697 89.5239 33.4697 89.3639C33.4697 89.2839 33.4697 89.1939 33.4597 89.1139C33.4597 88.9539 33.4497 88.7939 33.4497 88.6339C33.4497 88.4739 33.4397 88.3139 33.4397 88.1539C33.4197 87.4439 33.3997 86.8039 33.3697 86.3839C33.3697 86.3739 33.3697 86.3639 33.3697 86.3639C33.3697 86.3239 33.3697 86.2839 33.3597 86.2339C33.3597 86.2139 33.3597 86.1939 33.3597 86.1739C33.3597 86.1339 33.3597 86.0939 33.3497 86.0439C33.3497 86.0139 33.3497 85.9839 33.3497 85.9539C33.3497 85.9139 33.3497 85.8639 33.3397 85.8239C33.3397 85.7839 33.3397 85.7439 33.3297 85.7139C33.3297 85.6739 33.3297 85.6239 33.3197 85.5839C33.3197 85.5339 33.3197 85.4939 33.3097 85.4439C33.3097 85.4039 33.3097 85.3539 33.2997 85.3139C33.2897 85.0839 33.2797 84.8439 33.2697 84.5639C33.2697 84.5539 33.2697 84.5439 33.2697 84.5339C31.5097 85.0139 30.2097 86.6239 30.2097 88.5339C30.2097 89.3239 30.4297 90.0539 30.8097 90.6839C30.9197 90.8639 31.0497 91.0439 31.1897 91.2039C31.5297 91.6039 32.0797 92.4139 32.5397 92.6639L33.4397 93.0439C33.4497 93.0239 33.5097 91.9639 33.5097 91.6339Z" fill="#AB6448"/>
<path d="M21.0398 86.654C21.3698 86.884 21.7098 87.124 22.0398 87.344L21.5598 86.394C21.3998 86.494 21.2198 86.574 21.0398 86.654Z" fill="#E2A56F"/>
<path d="M30.8199 90.6641L29.8899 91.3941C30.1199 91.4841 30.3499 91.5841 30.5799 91.6641L31.1999 91.1841C31.0599 91.0241 30.9299 90.8441 30.8199 90.6641Z" fill="#E2A56F"/>
<path d="M20.7198 86.284L21.3898 86.064L21.5598 86.394C22.5698 85.804 23.2898 84.784 23.4498 83.584C22.1398 84.314 20.3098 84.544 18.5598 84.784C19.2898 85.384 20.0498 85.954 20.8298 86.504L20.7198 86.284Z" fill="#AB6448"/>
<path d="M20.7197 86.284L20.8197 86.4939C20.8897 86.5439 20.9597 86.594 21.0297 86.644C21.2097 86.574 21.3897 86.484 21.5497 86.384L21.3797 86.054L20.7197 86.284Z" fill="#AB6448"/>
<path fill-rule="evenodd" clip-rule="evenodd" d="M94.3397 51.9738C94.3397 75.7738 75.0497 95.0638 51.2497 95.0638C27.4497 95.0638 8.15968 75.7738 8.15968 51.9738C8.15968 28.1738 27.4497 8.8838 51.2497 8.8838C75.0497 8.8838 94.3397 28.1738 94.3397 51.9738ZM51.2497 5.1438C77.1097 5.1438 98.0797 26.1138 98.0797 51.9738C98.0797 77.8338 77.1097 98.8038 51.2497 98.8038C25.3897 98.8038 4.41968 77.8338 4.41968 51.9738C4.41968 26.1138 25.3797 5.1438 51.2497 5.1438Z" fill="url(#paint9_linear)"/>
<path d="M81.3298 76.354C85.2098 76.354 88.3398 73.214 88.3398 69.344C88.3398 65.474 85.1998 62.334 81.3298 62.334C77.4498 62.334 74.3198 65.474 74.3198 69.344C74.3198 73.214 77.4598 76.354 81.3298 76.354Z" fill="#002D4C"/>
<path d="M85.1397 65.7739L79.3597 71.5739L77.6297 69.8339L76.4797 70.9939L79.3697 73.8839L86.3097 66.9239L85.1397 65.7739Z" fill="#FAF9F8"/>
<defs>
<linearGradient id="paint0_linear" x1="49.4798" y1="-12.8157" x2="53.4618" y2="132.954" gradientUnits="userSpaceOnUse">
<stop stop-color="#00ABDE"/>
<stop offset="1" stop-color="#007ED8"/>
</linearGradient>
<linearGradient id="paint1_linear" x1="56.1613" y1="23.7434" x2="78.6905" y2="70.2249" gradientUnits="userSpaceOnUse">
<stop stop-color="#007ED8"/>
<stop offset="0.7065" stop-color="#002D4C"/>
</linearGradient>
<linearGradient id="paint2_linear" x1="67.4349" y1="144.738" x2="57.9489" y2="28.297" gradientUnits="userSpaceOnUse">
<stop stop-color="#007ED8"/>
<stop offset="0.7065" stop-color="#002D4C"/>
</linearGradient>
<linearGradient id="paint3_linear" x1="62.497" y1="71.3494" x2="62.497" y2="40.763" gradientUnits="userSpaceOnUse">
<stop stop-color="#D2EBFF"/>
<stop offset="1" stop-color="#F0FFFD"/>
</linearGradient>
<linearGradient id="paint4_linear" x1="62.4886" y1="36.24" x2="62.4886" y2="41.3279" gradientUnits="userSpaceOnUse">
<stop stop-color="#0099BE"/>
<stop offset="1" stop-color="#006E97"/>
</linearGradient>
<linearGradient id="paint5_linear" x1="62.4844" y1="70.7122" x2="62.4844" y2="73.5403" gradientUnits="userSpaceOnUse">
<stop stop-color="#0099BE"/>
<stop offset="1" stop-color="#006E97"/>
</linearGradient>
<linearGradient id="paint6_linear" x1="62.497" y1="71.3494" x2="62.497" y2="40.763" gradientUnits="userSpaceOnUse">
<stop stop-color="#D2EBFF"/>
<stop offset="1" stop-color="#F0FFFD"/>
</linearGradient>
<linearGradient id="paint7_linear" x1="62.4886" y1="36.24" x2="62.4886" y2="41.3279" gradientUnits="userSpaceOnUse">
<stop stop-color="#007ED8"/>
<stop offset="0.7065" stop-color="#002D4C"/>
</linearGradient>
<linearGradient id="paint8_linear" x1="62.4844" y1="70.7122" x2="62.4844" y2="73.5403" gradientUnits="userSpaceOnUse">
<stop stop-color="#007ED8"/>
<stop offset="0.7065" stop-color="#002D4C"/>
</linearGradient>
<linearGradient id="paint9_linear" x1="2.68238" y1="-19.6507" x2="98.2094" y2="121.231" gradientUnits="userSpaceOnUse">
<stop stop-color="#007ED8"/>
<stop offset="0.7065" stop-color="#002D4C"/>
</linearGradient>
</defs>
</svg>
