<?xml version="1.0" encoding="UTF-8"?>
<svg width="107px" height="107px" viewBox="0 0 107 107" version="1.1" xmlns="http://www.w3.org/2000/svg" xmlns:xlink="http://www.w3.org/1999/xlink">
    <!-- Generator: Sketch 59.1 (86144) - https://sketch.com -->
    <title>NA/access-user-data-from-microsoft-graph</title>
    <desc>Created with Sketch.</desc>
    <defs>
        <rect id="path-1" x="0" y="0" width="100" height="100" rx="50"></rect>
        <filter x="-8.0%" y="-13.0%" width="113.6%" height="125.9%" filterUnits="objectBoundingBox" id="filter-3">
            <feOffset dx="0" dy="1" in="SourceAlpha" result="shadowOffsetOuter1"></feOffset>
            <feColorMatrix values="0 0 0 0 0   0 0 0 0 0   0 0 0 0 0  0 0 0 0.101873868 0" type="matrix" in="shadowOffsetOuter1" result="shadowMatrixOuter1"></feColorMatrix>
            <feMerge>
                <feMergeNode in="shadowMatrixOuter1"></feMergeNode>
                <feMergeNode in="SourceGraphic"></feMergeNode>
            </feMerge>
        </filter>
        <filter x="-8.0%" y="-13.0%" width="113.6%" height="125.9%" filterUnits="objectBoundingBox" id="filter-4">
            <feOffset dx="0" dy="1" in="SourceAlpha" result="shadowOffsetOuter1"></feOffset>
            <feColorMatrix values="0 0 0 0 0   0 0 0 0 0   0 0 0 0 0  0 0 0 0.101873868 0" type="matrix" in="shadowOffsetOuter1" result="shadowMatrixOuter1"></feColorMatrix>
            <feMerge>
                <feMergeNode in="shadowMatrixOuter1"></feMergeNode>
                <feMergeNode in="SourceGraphic"></feMergeNode>
            </feMerge>
        </filter>
        <linearGradient x1="78.4210223%" y1="-7.24023438%" x2="15.5786468%" y2="110.793945%" id="linearGradient-5">
            <stop stop-color="#FFFFFF" offset="0%"></stop>
            <stop stop-color="#000000" stop-opacity="0.5" offset="100%"></stop>
        </linearGradient>
        <rect id="path-6" x="-3" y="-3" width="106" height="106" rx="53"></rect>
        <filter x="-0.5%" y="-0.5%" width="101.9%" height="101.9%" filterUnits="objectBoundingBox" id="filter-7">
            <feOffset dx="1" dy="1" in="SourceAlpha" result="shadowOffsetOuter1"></feOffset>
            <feMorphology radius="4" operator="erode" in="SourceAlpha" result="shadowInner"></feMorphology>
            <feOffset dx="1" dy="1" in="shadowInner" result="shadowInner"></feOffset>
            <feComposite in="shadowOffsetOuter1" in2="shadowInner" operator="out" result="shadowOffsetOuter1"></feComposite>
            <feColorMatrix values="0 0 0 0 0   0 0 0 0 0   0 0 0 0 0  0 0 0 0.15 0" type="matrix" in="shadowOffsetOuter1"></feColorMatrix>
        </filter>
    </defs>
    <g id="Badges" stroke="none" stroke-width="1" fill="none" fill-rule="evenodd">
        <g id="N/A-60" transform="translate(-47.000000, -457.000000)">
            <g id="NA/access-user-data-from-microsoft-graph" transform="translate(50.000000, 460.000000)">
                <g id="Mask" transform="translate(2.000000, 2.000000)">
                    <g id="Circle-" transform="translate(-2.000000, -0.000000)">
                        <mask id="mask-2" fill="white">
                            <use xlink:href="#path-1"></use>
                        </mask>
                        <g id="BG"></g>
                        <g id="Color-/-Microsoft-Graph" mask="url(#mask-2)" fill="#0078D4" fill-rule="evenodd">
                            <rect id="Rectangle" x="0" y="0" width="100" height="100"></rect>
                        </g>
                    </g>
                    <g id="Data" filter="url(#filter-3)" transform="translate(26.000000, 56.000000)" fill="#FFFFFF" stroke="#FFFFFF">
                        <path d="M3.04491401,0.38035464 C1.45620838,0.38035464 0.163120393,1.83697204 0.163120393,3.62700053 C0.163120393,5.41541313 1.45620838,6.87041465 3.04491401,6.87041465 C4.63361964,6.87041465 5.92501117,5.41541313 5.92501117,3.62700053 C5.92501117,1.83697204 4.63192319,0.38035464 3.04491401,0.38035464 Z M3.04491401,6.04341262 C1.93534734,6.04341262 1.03309582,4.959029 1.03309582,3.62865785 C1.03309582,2.29667081 1.93534734,1.21067131 3.04491401,1.21067131 C4.15278422,1.21067131 5.05503574,2.29505493 5.05503574,3.62865785 C5.05503574,4.959029 4.15278422,6.04341262 3.04491401,6.04341262 Z" id="Fill-1"></path>
                        <path d="M10.0947599,0.38035464 C9.85517738,0.38035464 9.6597722,0.566479816 9.6597722,0.794684314 L9.6597722,6.45608497 C9.6597722,6.68428947 9.85517738,6.87041465 10.0947599,6.87041465 C10.3343424,6.87041465 10.5297476,6.68428947 10.5297476,6.45608497 L10.5297476,0.794684314 C10.5297476,0.566479816 10.3360432,0.38035464 10.0947599,0.38035464 Z" id="Fill-2"></path>
                        <path d="M17.1446058,0.38035464 C15.5559002,0.38035464 14.2628122,1.83697204 14.2628122,3.62700053 C14.2628122,5.41541313 15.5542037,6.87041465 17.1446058,6.87041465 C18.7333115,6.87041465 20.0263994,5.41541313 20.0263994,3.62700053 C20.0263994,1.83697204 18.7333115,0.38035464 17.1446058,0.38035464 Z M17.1446058,6.04341262 C16.0367356,6.04341262 15.1327876,4.959029 15.1327876,3.62865785 C15.1327876,2.29667081 16.0350392,1.21067131 17.1446058,1.21067131 C18.2541725,1.21067131 19.156424,2.29505493 19.156424,3.62865785 C19.156424,4.959029 18.2541725,6.04341262 17.1446058,6.04341262 Z" id="Fill-3"></path>
                        <path d="M24.1961917,6.87207196 C24.4357742,6.87207196 24.6311794,6.68594679 24.6311794,6.45774229 L24.6311794,0.796341632 C24.6311794,0.568137135 24.4357742,0.382011959 24.1961917,0.382011959 C23.9566091,0.382011959 23.761204,0.568137135 23.761204,0.796341632 L23.761204,6.45774229 C23.761204,6.68594679 23.9549083,6.87207196 24.1961917,6.87207196 Z" id="Fill-4"></path>
                        <path d="M28.7992317,0.38035464 C28.5596491,0.38035464 28.364244,0.566479816 28.364244,0.794684314 L28.364244,6.45608497 C28.364244,6.68428947 28.5596491,6.87041465 28.7992317,6.87041465 C29.0388142,6.87041465 29.2342194,6.68428947 29.2342194,6.45608497 L29.2342194,0.794684314 C29.2342194,0.566479816 29.040515,0.38035464 28.7992317,0.38035464 Z" id="Fill-5"></path>
                        <path d="M33.4040116,0.38035464 C33.1644291,0.38035464 32.9690239,0.566479816 32.9690239,0.794684314 L32.9690239,6.45608497 C32.9690239,6.68428947 33.1644291,6.87041465 33.4040116,6.87041465 C33.6435942,6.87041465 33.8389994,6.68428947 33.8389994,6.45608497 L33.8389994,0.794684314 C33.8389994,0.566479816 33.645295,0.38035464 33.4040116,0.38035464 Z" id="Fill-6"></path>
                        <path d="M40.4555975,6.87207196 C42.0443031,6.87207196 43.3373911,5.41707045 43.3373911,3.62865785 C43.3373911,1.83862936 42.0459996,0.382011959 40.4555975,0.382011959 C38.8668919,0.382011959 37.5738022,1.83862936 37.5738022,3.62865785 C37.5721031,5.41545456 38.8668919,6.87207196 40.4555975,6.87207196 Z M40.4555975,1.20901399 C41.5634677,1.20901399 42.4674157,2.29339761 42.4674157,3.62700053 C42.4674157,4.95898756 41.5651642,6.0417553 40.4555975,6.0417553 C39.3460308,6.0417553 38.4437769,4.95737168 38.4437769,3.62700053 C38.4420785,2.29335618 39.3460308,1.20901399 40.4555975,1.20901399 Z" id="Fill-7"></path>
                        <path d="M40.4555975,10.4261919 C38.8668919,10.4261919 37.5738039,11.8828093 37.5738039,13.6728378 C37.5738039,15.4612504 38.8668919,16.9178678 40.4555975,16.9178678 C42.0443031,16.9178678 43.3373911,15.4612504 43.3373911,13.6728378 C43.3356903,11.8828093 42.0426067,10.4261919 40.4555975,10.4261919 Z M40.4555975,16.0892499 C39.3460308,16.0892499 38.4437793,15.0048663 38.4437793,13.6728792 C38.4437793,12.3408922 39.3460308,11.2548927 40.4555975,11.2548927 C41.5634677,11.2548927 42.4674157,12.3392763 42.4674157,13.6728792 C42.4657149,15.0048663 41.5634677,16.0892499 40.4555975,16.0892499 Z" id="Fill-8"></path>
                        <path d="M33.4040116,10.4261919 C33.1644291,10.4261919 32.9690239,10.6123171 32.9690239,10.8405216 L32.9690239,16.5019222 C32.9690239,16.7301267 33.1644291,16.9162519 33.4040116,16.9162519 C33.6435942,16.9162519 33.8389994,16.7301267 33.8389994,16.5019222 L33.8389994,10.8405216 C33.8389994,10.6123171 33.645295,10.4261919 33.4040116,10.4261919 Z" id="Fill-9"></path>
                        <path d="M26.3541657,10.4261919 C24.7654601,10.4261919 23.4723721,11.8828093 23.4723721,13.6728378 C23.4723721,15.4612504 24.7654601,16.9178678 26.3541657,16.9178678 C27.9428714,16.9178678 29.2359593,15.4612504 29.2359593,13.6728378 C29.2342585,11.8828093 27.9428714,10.4261919 26.3541657,10.4261919 Z M26.3541657,16.0892499 C25.2445991,16.0892499 24.3423475,15.0048663 24.3423475,13.6728792 C24.3423475,12.3408922 25.2445991,11.2548927 26.3541657,11.2548927 C27.4620359,11.2548927 28.3659839,12.3392763 28.3659839,13.6728792 C28.3642831,15.0048663 27.4620359,16.0892499 26.3541657,16.0892499 Z" id="Fill-10"></path>
                        <path d="M19.7375676,16.5035796 L19.7375676,10.8421789 C19.7375676,10.6139744 19.5421624,10.4278492 19.3025799,10.4278492 C19.0629973,10.4278492 18.8675922,10.6139744 18.8675922,10.8421789 L18.8675922,16.5035796 C18.8675922,16.7317841 19.0629973,16.9179092 19.3025799,16.9179092 C19.5438632,16.9179092 19.7375676,16.7317841 19.7375676,16.5035796 Z" id="Fill-11"></path>
                        <path d="M14.6995399,16.9179092 C14.9391224,16.9179092 15.1345276,16.7317841 15.1345276,16.5035796 L15.1345276,10.8421789 C15.1345276,10.6139744 14.9391224,10.4278492 14.6995399,10.4278492 C14.4599573,10.4278492 14.2645522,10.6139744 14.2645522,10.8421789 L14.2645522,16.5035796 C14.2645522,16.7317841 14.4582565,16.9179092 14.6995399,16.9179092 Z" id="Fill-12"></path>
                        <path d="M10.0947599,10.4261919 C9.85517738,10.4261919 9.6597722,10.6123171 9.6597722,10.8405216 L9.6597722,16.5019222 C9.6597722,16.7301267 9.85517738,16.9162519 10.0947599,16.9162519 C10.3343424,16.9162519 10.5297476,16.7301267 10.5297476,16.5019222 L10.5297476,10.8405216 C10.5297476,10.6123171 10.3360432,10.4261919 10.0947599,10.4261919 Z" id="Fill-13"></path>
                        <path d="M3.04491401,10.4261919 C1.45620838,10.4261919 0.163120393,11.8828093 0.163120393,13.6728378 C0.163120393,15.4612504 1.45620838,16.9178678 3.04491401,16.9178678 C4.63361964,16.9178678 5.92501117,15.4612504 5.92501117,13.6728378 C5.92501117,11.8828093 4.63192319,10.4261919 3.04491401,10.4261919 Z M3.04491401,16.0892499 C1.93534734,16.0892499 1.03309582,15.0048663 1.03309582,13.6728792 C1.03309582,12.3408922 1.93534734,11.2548927 3.04491401,11.2548927 C4.15278422,11.2548927 5.05503574,12.3392763 5.05503574,13.6728792 C5.05503574,15.0048663 4.15278422,16.0892499 3.04491401,16.0892499 Z" id="Fill-14"></path>
                        <path d="M3.04491401,20.4753438 C1.45620838,20.4753438 0.163120393,21.9319612 0.163120393,23.7203738 C0.163120393,25.5087864 1.45620838,26.9654038 3.04491401,26.9654038 C4.63361964,26.9654038 5.92501117,25.5087864 5.92501117,23.7203738 C5.92501117,21.9319612 4.63192319,20.4753438 3.04491401,20.4753438 Z M3.04491401,26.1367445 C1.93534734,26.1367445 1.03309582,25.0523608 1.03309582,23.7203738 C1.03309582,22.3883868 1.93534734,21.3040032 3.04491401,21.3040032 C4.15278422,21.3040032 5.05503574,22.3883868 5.05503574,23.7203738 C5.05503574,25.0523608 4.15278422,26.1367445 3.04491401,26.1367445 Z" id="Fill-15"></path>
                        <path d="M10.0947599,20.4753438 C9.85517738,20.4753438 9.6597722,20.661469 9.6597722,20.8896735 L9.6597722,26.5510741 C9.6597722,26.7792786 9.85517738,26.9654038 10.0947599,26.9654038 C10.3343424,26.9654038 10.5297476,26.7792786 10.5297476,26.5510741 L10.5297476,20.8896735 C10.5297476,20.661469 10.3360432,20.4753438 10.0947599,20.4753438 Z" id="Fill-16"></path>
                        <path d="M17.1446058,20.4753438 C15.5559002,20.4753438 14.2628122,21.9319612 14.2628122,23.7203738 C14.2628122,25.5087864 15.5542037,26.9654038 17.1446058,26.9654038 C18.7333115,26.9654038 20.0263994,25.5087864 20.0263994,23.7203738 C20.0263994,21.9319612 18.7333115,20.4753438 17.1446058,20.4753438 Z M17.1446058,26.1367445 C16.0367356,26.1367445 15.1327876,25.0523608 15.1327876,23.7203738 C15.1327876,22.3883868 16.0350392,21.3040032 17.1446058,21.3040032 C18.2541725,21.3040032 19.156424,22.3883868 19.156424,23.7203738 C19.156424,25.0523608 18.2541725,26.1367445 17.1446058,26.1367445 Z" id="Fill-17"></path>
                        <path d="M24.1961917,20.4753438 C23.9566091,20.4753438 23.761204,20.661469 23.761204,20.8896735 L23.761204,26.5510741 C23.761204,26.7792786 23.9566091,26.9654038 24.1961917,26.9654038 C24.4357742,26.9654038 24.6311794,26.7792786 24.6311794,26.5510741 L24.6311794,20.8896735 C24.6311794,20.661469 24.4357742,20.4753438 24.1961917,20.4753438 Z" id="Fill-18"></path>
                        <path d="M28.7992317,20.4753438 C28.5596491,20.4753438 28.364244,20.661469 28.364244,20.8896735 L28.364244,26.5510741 C28.364244,26.7792786 28.5596491,26.9654038 28.7992317,26.9654038 C29.0388142,26.9654038 29.2342194,26.7792786 29.2342194,26.5510741 L29.2342194,20.8896735 C29.2342194,20.661469 29.040515,20.4753438 28.7992317,20.4753438 Z" id="Fill-19"></path>
                        <path d="M33.4040116,20.4753438 C33.1644291,20.4753438 32.9690239,20.661469 32.9690239,20.8896735 L32.9690239,26.5510741 C32.9690239,26.7792786 33.1644291,26.9654038 33.4040116,26.9654038 C33.6435942,26.9654038 33.8389994,26.7792786 33.8389994,26.5510741 L33.8389994,20.8896735 C33.8389994,20.661469 33.645295,20.4753438 33.4040116,20.4753438 Z" id="Fill-20"></path>
                        <path d="M40.4555975,20.4753438 C38.8668919,20.4753438 37.5738039,21.9319612 37.5738039,23.7203738 C37.5738039,25.5087864 38.8668919,26.9654038 40.4555975,26.9654038 C42.0443031,26.9654038 43.3373911,25.5087864 43.3373911,23.7203738 C43.3356903,21.9319612 42.0426067,20.4753438 40.4555975,20.4753438 Z M40.4555975,26.1367445 C39.3460308,26.1367445 38.4437793,25.0523608 38.4437793,23.7203738 C38.4437793,22.3883868 39.3460308,21.3040032 40.4555975,21.3040032 C41.5634677,21.3040032 42.4674157,22.3883868 42.4674157,23.7203738 C42.4657149,25.0523608 41.5634677,26.1367445 40.4555975,26.1367445 Z" id="Fill-21"></path>
                    </g>
                    <g id="Data" filter="url(#filter-4)" transform="translate(26.000000, 86.000000)" fill="#FFFFFF" stroke="#FFFFFF">
                        <path d="M3.04491401,0.38035464 C1.45620838,0.38035464 0.163120393,1.83697204 0.163120393,3.62700053 C0.163120393,5.41541313 1.45620838,6.87041465 3.04491401,6.87041465 C4.63361964,6.87041465 5.92501117,5.41541313 5.92501117,3.62700053 C5.92501117,1.83697204 4.63192319,0.38035464 3.04491401,0.38035464 Z M3.04491401,6.04341262 C1.93534734,6.04341262 1.03309582,4.959029 1.03309582,3.62865785 C1.03309582,2.29667081 1.93534734,1.21067131 3.04491401,1.21067131 C4.15278422,1.21067131 5.05503574,2.29505493 5.05503574,3.62865785 C5.05503574,4.959029 4.15278422,6.04341262 3.04491401,6.04341262 Z" id="Fill-1"></path>
                        <path d="M10.0947599,0.38035464 C9.85517738,0.38035464 9.6597722,0.566479816 9.6597722,0.794684314 L9.6597722,6.45608497 C9.6597722,6.68428947 9.85517738,6.87041465 10.0947599,6.87041465 C10.3343424,6.87041465 10.5297476,6.68428947 10.5297476,6.45608497 L10.5297476,0.794684314 C10.5297476,0.566479816 10.3360432,0.38035464 10.0947599,0.38035464 Z" id="Fill-2"></path>
                        <path d="M17.1446058,0.38035464 C15.5559002,0.38035464 14.2628122,1.83697204 14.2628122,3.62700053 C14.2628122,5.41541313 15.5542037,6.87041465 17.1446058,6.87041465 C18.7333115,6.87041465 20.0263994,5.41541313 20.0263994,3.62700053 C20.0263994,1.83697204 18.7333115,0.38035464 17.1446058,0.38035464 Z M17.1446058,6.04341262 C16.0367356,6.04341262 15.1327876,4.959029 15.1327876,3.62865785 C15.1327876,2.29667081 16.0350392,1.21067131 17.1446058,1.21067131 C18.2541725,1.21067131 19.156424,2.29505493 19.156424,3.62865785 C19.156424,4.959029 18.2541725,6.04341262 17.1446058,6.04341262 Z" id="Fill-3"></path>
                        <path d="M24.1961917,6.87207196 C24.4357742,6.87207196 24.6311794,6.68594679 24.6311794,6.45774229 L24.6311794,0.796341632 C24.6311794,0.568137135 24.4357742,0.382011959 24.1961917,0.382011959 C23.9566091,0.382011959 23.761204,0.568137135 23.761204,0.796341632 L23.761204,6.45774229 C23.761204,6.68594679 23.9549083,6.87207196 24.1961917,6.87207196 Z" id="Fill-4"></path>
                        <path d="M28.7992317,0.38035464 C28.5596491,0.38035464 28.364244,0.566479816 28.364244,0.794684314 L28.364244,6.45608497 C28.364244,6.68428947 28.5596491,6.87041465 28.7992317,6.87041465 C29.0388142,6.87041465 29.2342194,6.68428947 29.2342194,6.45608497 L29.2342194,0.794684314 C29.2342194,0.566479816 29.040515,0.38035464 28.7992317,0.38035464 Z" id="Fill-5"></path>
                        <path d="M33.4040116,0.38035464 C33.1644291,0.38035464 32.9690239,0.566479816 32.9690239,0.794684314 L32.9690239,6.45608497 C32.9690239,6.68428947 33.1644291,6.87041465 33.4040116,6.87041465 C33.6435942,6.87041465 33.8389994,6.68428947 33.8389994,6.45608497 L33.8389994,0.794684314 C33.8389994,0.566479816 33.645295,0.38035464 33.4040116,0.38035464 Z" id="Fill-6"></path>
                        <path d="M40.4555975,6.87207196 C42.0443031,6.87207196 43.3373911,5.41707045 43.3373911,3.62865785 C43.3373911,1.83862936 42.0459996,0.382011959 40.4555975,0.382011959 C38.8668919,0.382011959 37.5738022,1.83862936 37.5738022,3.62865785 C37.5721031,5.41545456 38.8668919,6.87207196 40.4555975,6.87207196 Z M40.4555975,1.20901399 C41.5634677,1.20901399 42.4674157,2.29339761 42.4674157,3.62700053 C42.4674157,4.95898756 41.5651642,6.0417553 40.4555975,6.0417553 C39.3460308,6.0417553 38.4437769,4.95737168 38.4437769,3.62700053 C38.4420785,2.29335618 39.3460308,1.20901399 40.4555975,1.20901399 Z" id="Fill-7"></path>
                        <path d="M40.4555975,10.4261919 C38.8668919,10.4261919 37.5738039,11.8828093 37.5738039,13.6728378 C37.5738039,15.4612504 38.8668919,16.9178678 40.4555975,16.9178678 C42.0443031,16.9178678 43.3373911,15.4612504 43.3373911,13.6728378 C43.3356903,11.8828093 42.0426067,10.4261919 40.4555975,10.4261919 Z M40.4555975,16.0892499 C39.3460308,16.0892499 38.4437793,15.0048663 38.4437793,13.6728792 C38.4437793,12.3408922 39.3460308,11.2548927 40.4555975,11.2548927 C41.5634677,11.2548927 42.4674157,12.3392763 42.4674157,13.6728792 C42.4657149,15.0048663 41.5634677,16.0892499 40.4555975,16.0892499 Z" id="Fill-8"></path>
                        <path d="M33.4040116,10.4261919 C33.1644291,10.4261919 32.9690239,10.6123171 32.9690239,10.8405216 L32.9690239,16.5019222 C32.9690239,16.7301267 33.1644291,16.9162519 33.4040116,16.9162519 C33.6435942,16.9162519 33.8389994,16.7301267 33.8389994,16.5019222 L33.8389994,10.8405216 C33.8389994,10.6123171 33.645295,10.4261919 33.4040116,10.4261919 Z" id="Fill-9"></path>
                        <path d="M26.3541657,10.4261919 C24.7654601,10.4261919 23.4723721,11.8828093 23.4723721,13.6728378 C23.4723721,15.4612504 24.7654601,16.9178678 26.3541657,16.9178678 C27.9428714,16.9178678 29.2359593,15.4612504 29.2359593,13.6728378 C29.2342585,11.8828093 27.9428714,10.4261919 26.3541657,10.4261919 Z M26.3541657,16.0892499 C25.2445991,16.0892499 24.3423475,15.0048663 24.3423475,13.6728792 C24.3423475,12.3408922 25.2445991,11.2548927 26.3541657,11.2548927 C27.4620359,11.2548927 28.3659839,12.3392763 28.3659839,13.6728792 C28.3642831,15.0048663 27.4620359,16.0892499 26.3541657,16.0892499 Z" id="Fill-10"></path>
                        <path d="M19.7375676,16.5035796 L19.7375676,10.8421789 C19.7375676,10.6139744 19.5421624,10.4278492 19.3025799,10.4278492 C19.0629973,10.4278492 18.8675922,10.6139744 18.8675922,10.8421789 L18.8675922,16.5035796 C18.8675922,16.7317841 19.0629973,16.9179092 19.3025799,16.9179092 C19.5438632,16.9179092 19.7375676,16.7317841 19.7375676,16.5035796 Z" id="Fill-11"></path>
                        <path d="M14.6995399,16.9179092 C14.9391224,16.9179092 15.1345276,16.7317841 15.1345276,16.5035796 L15.1345276,10.8421789 C15.1345276,10.6139744 14.9391224,10.4278492 14.6995399,10.4278492 C14.4599573,10.4278492 14.2645522,10.6139744 14.2645522,10.8421789 L14.2645522,16.5035796 C14.2645522,16.7317841 14.4582565,16.9179092 14.6995399,16.9179092 Z" id="Fill-12"></path>
                        <path d="M10.0947599,10.4261919 C9.85517738,10.4261919 9.6597722,10.6123171 9.6597722,10.8405216 L9.6597722,16.5019222 C9.6597722,16.7301267 9.85517738,16.9162519 10.0947599,16.9162519 C10.3343424,16.9162519 10.5297476,16.7301267 10.5297476,16.5019222 L10.5297476,10.8405216 C10.5297476,10.6123171 10.3360432,10.4261919 10.0947599,10.4261919 Z" id="Fill-13"></path>
                        <path d="M3.04491401,10.4261919 C1.45620838,10.4261919 0.163120393,11.8828093 0.163120393,13.6728378 C0.163120393,15.4612504 1.45620838,16.9178678 3.04491401,16.9178678 C4.63361964,16.9178678 5.92501117,15.4612504 5.92501117,13.6728378 C5.92501117,11.8828093 4.63192319,10.4261919 3.04491401,10.4261919 Z M3.04491401,16.0892499 C1.93534734,16.0892499 1.03309582,15.0048663 1.03309582,13.6728792 C1.03309582,12.3408922 1.93534734,11.2548927 3.04491401,11.2548927 C4.15278422,11.2548927 5.05503574,12.3392763 5.05503574,13.6728792 C5.05503574,15.0048663 4.15278422,16.0892499 3.04491401,16.0892499 Z" id="Fill-14"></path>
                    </g>
                    <g id="shoot" transform="translate(22.000000, 1.000000)">
                        <g id="Group" transform="translate(26.000000, 26.000000) rotate(90.000000) translate(-26.000000, -26.000000) ">
                            <path d="M47.9528101,48 L5.26843728,48 C2.91012568,48 1,46.0288 1,43.6 L1,8.4 C1,5.969 2.91012568,4 5.26843728,4 L47.9528101,4 C50.3089874,4 47.9528101,5.969 47.9528101,8.4 L47.9528101,43.6 C47.9528101,46.0288 50.3089874,48 47.9528101,48" id="Fill-360" fill="#546670"></path>
                            <path d="M39.6,4 L39.6,21.6 C39.6,24.031 37.6288,26 35.2,26 L0,26 L0,43.6 C0,46.031 1.969,48 4.4,48 L44,48 L44,4 L39.6,4" id="Fill-364" fill="#30404D"></path>
                            <path d="M48,52 L48,52 C45.79,52 44,50.0608333 44,47.6666667 L44,4.33333333 C44,1.93916667 45.79,0 48,0 C50.208,0 52,1.93916667 52,4.33333333 L52,47.6666667 C52,50.0608333 50.208,52 48,52" id="Fill-374" fill="#ADBDC4"></path>
                            <path d="M50,47.6359894 L52,47.6359894 C52,50.2868757 49.834,52.383585 47.328,51.9406797 C45.362,51.5915918 44,49.5756091 44,47.4025368 L44,4 L48,4 L48,45.4541899 C48,46.6585432 48.896,47.6359894 50,47.6359894 Z" id="Fill-375" fill="#8BA6B1"></path>
                        </g>
                    </g>
                    <g id="User" transform="translate(27.000000, 7.000000)">
                        <path d="M10,20 C15.51375,20 20,15.51375 20,10 C20,4.4859375 15.51375,0 10,0 C4.4859375,0 0,4.4859375 0,10 C0,15.51375 4.4859375,20 10,20" id="Fill-115" fill="#55B7D9"></path>
                        <path d="M10.0000001,10.7689466 C12.1238577,10.7689466 13.84658,9.0471475 13.84658,6.92328987 C13.84658,4.79853221 12.1238808,3.07671002 10.0000001,3.07671002 C7.87611941,3.07671002 6.15342027,4.79850913 6.15342027,6.92328987 C6.15342027,9.0471475 7.87611941,10.7689466 10.0000001,10.7689466 Z" id="Path" fill="#FFFFFE"></path>
                        <path d="M2.76308522,14.3875194 C4.24690778,16.8295946 6.93321348,18.4621063 10.0000001,18.4621063 C13.0667868,18.4621063 15.753254,16.8295484 17.236915,14.3875194 C17.2279009,14.3199089 17.2017585,14.254103 17.1557833,14.197309 C16.207431,13.0118802 14.7065541,12.3078278 12.6925691,12.3078278 L7.30717267,12.3078278 C5.29327996,12.3078278 3.79244919,13.0118802 2.84395847,14.197309 C2.79798321,14.2541007 2.77184087,14.3199089 2.76282675,14.3875194 L2.76308522,14.3875194 Z" id="Path" fill="#FFFFFE"></path>
                    </g>
                    <g id="Group-4" transform="translate(49.000000, 17.000000)">
                        <path d="M10,20 C15.51375,20 20,15.51375 20,10 C20,4.4859375 15.51375,0 10,0 C4.4859375,0 0,4.4859375 0,10 C0,15.51375 4.4859375,20 10,20" id="Fill-115" fill="#55A2FF"></path>
                        <g id="Group-2" transform="translate(2.000000, 2.666667)">
                            <polygon id="Path-254" fill="#103F90" points="5.24422076 2.84943356 5.24422076 11.0618876 0.225352113 7.18101271"></polygon>
                            <polygon id="Path-255" fill="#0279D3" points="4.35234231 -1.42108547e-14 5.01886865 2.68780618 -8.33111358e-13 7.05909369"></polygon>
                            <polygon id="Path-256" fill="#0078D3" points="11.7105787 0.225352113 4.56816442 -6.57252031e-14 5.3957823 2.69530772"></polygon>
                            <polygon id="Path-257" fill="#C5E4FB" points="12.1811607 0.36382425 15.8823867 6.84407532 12.9550552 6.84407532"></polygon>
                            <polygon id="Path-258" fill="#2B7CD2" points="5.64566748 2.94389161 11.9609742 0.36382425 12.6318649 6.83374158"></polygon>
                            <polygon id="Path-259" fill="#0358A6" points="5.50964483 3.30013778 11.9609742 6.84407532 5.50964483 10.6111834"></polygon>
                            <polygon id="Path-260" fill="#3D63A5" points="6.00819045 10.7005894 12.4065128 6.9278169 11.9947183 13.6064375"></polygon>
                            <polygon id="Path-261" fill="#112D56" points="5.50964483 10.9496709 3.90163809 13.8464483 11.7270392 13.8464483"></polygon>
                            <polygon id="Path-262" fill="#163870" points="0.225352113 7.60387324 4.79351653 11.1164651 3.62729639 13.6064375"></polygon>
                            <polygon id="Path-263" fill="#036DC0" points="12.7297031 7.15316901 15.8823867 7.15316901 12.4065128 12.9614398"></polygon>
                            <circle id="Oval" fill="#55A2FF" cx="12.3943662" cy="7.21126761" r="1.12676056"></circle>
                            <circle id="Oval" fill="#55A2FF" cx="5.4084507" cy="2.70422535" r="1.12676056"></circle>
                            <circle id="Oval" fill="#55A2FF" cx="5.4084507" cy="11.0422535" r="1.12676056"></circle>
                        </g>
                    </g>
                </g>
                <g id="Azure-Border">
                    <path d="M50,0 C74.5263677,-4.50542066e-15 94.9281966,17.6592499 99.1842495,40.9565123 L94.2027317,73.3905473 C85.8096395,89.2186645 69.1638777,100 50,100 C30.9551233,100 14.3971863,89.3521454 5.95457608,73.6848234 L0.0261464987,48.3675131 C0.887696267,21.508872 22.932015,4.97230817e-15 50,0 Z" id="Combined-Shape" fill="url(#linearGradient-5)" fill-rule="evenodd" opacity="0.400000006" style="mix-blend-mode: overlay;"></path>
                    <g>
                        <use fill="black" fill-opacity="1" filter="url(#filter-7)" xlink:href="#path-6"></use>
                        <rect stroke="#F2F1F0" stroke-width="4" stroke-linejoin="square" x="-1" y="-1" width="102" height="102" rx="51"></rect>
                    </g>
                    <rect stroke="#0078D4" stroke-width="4" x="2" y="2" width="96" height="96" rx="48"></rect>
                </g>
            </g>
        </g>
    </g>
</svg>