<svg width="103" height="103" viewBox="0 0 103 103" fill="none" xmlns="http://www.w3.org/2000/svg">
<path d="M51.2497 98.1066C25.3997 98.1066 4.4397 77.1566 4.4397 51.2966C4.4397 25.4366 25.3997 4.48657 51.2497 4.48657C77.0997 4.48657 98.0597 25.4466 98.0597 51.2966C98.0597 77.1466 77.0997 98.1066 51.2497 98.1066Z" fill="url(#paint0_linear)"/>
<path fill-rule="evenodd" clip-rule="evenodd" d="M97.1499 51.2966C97.1499 76.6466 76.5999 97.1966 51.2499 97.1966C25.8999 97.1966 5.34986 76.6466 5.34986 51.2966C5.34986 25.9466 25.8999 5.39662 51.2499 5.39662C76.5999 5.39662 97.1499 25.9466 97.1499 51.2966ZM51.2499 1.65662C78.6699 1.65662 100.89 23.8766 100.89 51.2966C100.89 78.7166 78.6599 100.937 51.2499 100.937C23.8299 100.937 1.60986 78.7066 1.60986 51.2966C1.60986 23.8766 23.8299 1.65662 51.2499 1.65662Z" fill="#F2F1F0"/>
<path d="M62.2198 40.2766C59.8998 40.2766 58.0098 38.3766 58.0098 36.0466C58.0098 33.7167 59.8998 31.8167 62.2198 31.8167C64.5398 31.8167 66.4298 33.7167 66.4298 36.0466C66.4298 38.3866 64.5298 40.2766 62.2198 40.2766ZM62.2198 33.4866C60.8198 33.4866 59.6898 34.6366 59.6898 36.0466C59.6898 37.4566 60.8298 38.6067 62.2198 38.6067C63.6098 38.6067 64.7498 37.4566 64.7498 36.0466C64.7498 34.6366 63.6098 33.4866 62.2198 33.4866Z" fill="url(#paint1_linear)"/>
<path d="M72.9798 80.5167H51.9798L49.7698 84.6367L48.2998 83.8467L54.4198 72.4567L55.8798 73.2567L52.8798 78.8467H72.0898L69.0898 73.2567L70.5598 72.4667L76.6798 83.8567L75.2098 84.6467L72.9798 80.5167Z" fill="url(#paint2_linear)"/>
<path d="M85.2498 40.5767H39.7498V71.1667H85.2498V40.5767Z" fill="url(#paint3_linear)"/>
<path d="M39.1497 36.0366H85.8197C86.7397 36.0366 87.4897 36.7866 87.4897 37.7066V39.4566C87.4897 40.3766 86.7397 41.1266 85.8197 41.1266H39.1497C38.2297 41.1266 37.4797 40.3766 37.4797 39.4566V37.7066C37.4797 36.7966 38.2297 36.0366 39.1497 36.0366Z" fill="url(#paint4_linear)"/>
<path d="M38.8897 70.5166H86.0697C86.8497 70.5166 87.4797 71.1566 87.4797 71.9266C87.4797 72.7066 86.8397 73.3366 86.0697 73.3366H38.8897C38.1097 73.3466 37.4797 72.7066 37.4797 71.9266C37.4797 71.1566 38.1097 70.5166 38.8897 70.5166Z" fill="url(#paint5_linear)"/>
<path d="M85.2498 40.5767H39.7498V71.1667H85.2498V40.5767Z" fill="url(#paint6_linear)"/>
<path d="M39.1497 36.0366H85.8197C86.7397 36.0366 87.4897 36.7866 87.4897 37.7066V39.4566C87.4897 40.3766 86.7397 41.1266 85.8197 41.1266H39.1497C38.2297 41.1266 37.4797 40.3766 37.4797 39.4566V37.7066C37.4797 36.7966 38.2297 36.0366 39.1497 36.0366Z" fill="url(#paint7_linear)"/>
<path d="M38.8897 70.5166H86.0697C86.8497 70.5166 87.4797 71.1566 87.4797 71.9266C87.4797 72.7066 86.8397 73.3366 86.0697 73.3366H38.8897C38.1097 73.3466 37.4797 72.7066 37.4797 71.9266C37.4797 71.1566 38.1097 70.5166 38.8897 70.5166Z" fill="url(#paint8_linear)"/>
<path d="M33.5098 91.9867C33.5098 91.9867 33.4498 87.6767 33.3598 86.1867C33.2698 84.6867 32.9298 75.0967 32.8098 72.3467C32.6898 69.5967 32.6598 58.6867 32.8098 55.3967C32.9598 52.0967 33.3598 42.6567 33.4198 39.4167C33.4798 36.1767 33.5398 31.6267 33.6298 30.5567C33.7198 29.4867 34.2098 29.5167 34.6998 29.9167C35.1898 30.3167 35.1898 30.2267 36.4398 31.1967C37.6898 32.1767 37.9098 31.1667 37.9098 31.1667L41.2098 28.6267C41.2098 28.6267 40.5398 27.8967 40.1698 27.5267C39.7998 27.1567 39.1298 26.3967 37.9698 24.8667C36.8098 23.3367 36.3798 22.9767 35.6798 22.6367C34.9798 22.2967 33.3598 22.3267 32.4098 22.8467C31.4598 23.3667 30.1798 24.3167 30.1798 24.3167L29.1398 23.2767C28.7698 22.9667 27.1798 21.5367 26.2098 22.7867C25.2398 24.0367 26.5498 24.9867 27.3098 25.3867C28.0698 25.7867 29.7798 25.8767 29.7798 25.8767C29.7798 25.8767 29.9898 26.5167 30.2098 27.0067C30.4198 27.4967 30.8798 28.1067 30.8798 28.1067C30.8798 28.1067 30.5098 29.6967 30.2698 33.6667C30.0298 37.6367 29.6898 44.0567 29.4798 47.3167C29.2698 50.5867 28.0098 62.2267 27.4598 66.4967C26.9098 70.7767 25.7198 78.0767 25.1998 81.0067C24.7098 83.7867 21.5198 84.1767 18.5598 84.5767C22.5098 87.8267 27.0798 90.3567 32.0498 91.9667L33.5098 91.9867Z" fill="#F9D697"/>
<path d="M35.5298 23.2767C35.5298 23.2767 35.5598 20.8067 35.6498 19.6767C35.7398 18.5467 36.3798 17.8767 36.8698 18.2367C37.3598 18.6067 37.8198 19.3367 37.5098 20.5267C37.1998 21.7167 35.7698 23.3967 35.7698 23.3967L35.5298 23.2767Z" fill="#F9D697"/>
<path d="M29.8799 19.9867C29.8799 19.9867 30.3699 21.3967 30.6399 22.3067C30.9099 23.2267 31.3999 24.1966 31.3999 24.1966L31.7699 23.9566C31.7699 23.9566 31.2199 22.9166 30.8799 21.7566C30.5399 20.5966 30.2699 19.3167 30.2699 19.3167L29.8799 19.9867Z" fill="#F9D697"/>
<path d="M32.4397 19.1866C32.4397 19.2766 32.6197 20.0467 32.9897 20.8967C33.3597 21.7567 33.9397 22.9767 33.9397 22.9767L34.4597 22.9167C34.4597 22.9167 33.7897 21.8767 33.4197 20.8367C33.0497 19.7967 32.7497 18.8167 32.7497 18.8167L32.4397 19.1866Z" fill="#F9D697"/>
<path d="M40.4498 27.7567C40.4498 27.7567 38.8498 29.0867 38.1098 29.6467C37.3798 30.2167 36.2898 31.1467 36.2898 31.1467C36.2898 31.1467 38.2798 32.3067 39.4098 32.7367C40.5398 33.1667 41.9598 32.9167 42.6498 31.9567C43.3398 30.9967 42.7698 29.9667 42.3798 29.4567C41.9898 28.9467 40.4498 27.7567 40.4498 27.7567Z" fill="#AC6348"/>
<path d="M41.2697 31.4167C41.4244 31.4167 41.5497 31.2913 41.5497 31.1367C41.5497 30.9821 41.4244 30.8567 41.2697 30.8567C41.1151 30.8567 40.9897 30.9821 40.9897 31.1367C40.9897 31.2913 41.1151 31.4167 41.2697 31.4167Z" fill="#C08B76"/>
<path d="M40.1799 31.8666C40.3345 31.8666 40.4599 31.7413 40.4599 31.5866C40.4599 31.432 40.3345 31.3066 40.1799 31.3066C40.0253 31.3066 39.8999 31.432 39.8999 31.5866C39.8999 31.7413 40.0253 31.8666 40.1799 31.8666Z" fill="#C08B76"/>
<path d="M36.8428 25.9569C37.1249 25.794 37.1366 25.2858 36.8687 24.8219C36.6008 24.358 36.1549 24.114 35.8728 24.2769C35.5906 24.4398 35.579 24.948 35.8468 25.4119C36.1147 25.8758 36.5606 26.1199 36.8428 25.9569Z" fill="#101010"/>
<path d="M36.7395 25.885C36.8925 25.7967 36.8957 25.5157 36.7466 25.2574C36.5975 24.9991 36.3525 24.8614 36.1995 24.9497C36.0464 25.0381 36.0432 25.3191 36.1924 25.5774C36.3415 25.8357 36.5864 25.9734 36.7395 25.885Z" fill="#ECECEC"/>
<path d="M34.3232 27.6346C34.6054 27.4716 34.617 26.9635 34.3492 26.4995C34.0813 26.0356 33.6354 25.7916 33.3532 25.9545C33.071 26.1174 33.0594 26.6256 33.3273 27.0895C33.5951 27.5535 34.041 27.7975 34.3232 27.6346Z" fill="#101010"/>
<path d="M34.22 27.5628C34.373 27.4744 34.3762 27.1934 34.2271 26.9351C34.078 26.6768 33.833 26.5391 33.68 26.6275C33.5269 26.7158 33.5237 26.9968 33.6728 27.2551C33.8219 27.5134 34.0669 27.6511 34.22 27.5628Z" fill="#ECECEC"/>
<path d="M32.8799 35.4067L30.4999 38.6667L30.1299 38.0567L32.3799 34.9967L32.8799 35.4067Z" fill="#E2A570"/>
<path d="M32.6099 45.1667L30.2399 48.4267L29.8699 47.8067L32.1099 44.7567L32.6099 45.1667Z" fill="#E2A56F"/>
<path d="M31.7698 58.3667L28.6698 62.1467L28.2998 61.5367L31.2698 57.9567L31.7698 58.3667Z" fill="#E2A56F"/>
<path d="M31.9497 68.2066L27.8097 72.8766L27.4397 72.2666L31.4497 67.7966L31.9497 68.2066Z" fill="#E2A56F"/>
<path d="M30.7198 87.3867L22.7998 84.6167L23.0698 83.9567L30.9898 86.7267L30.7198 87.3867Z" fill="#E2A56F"/>
<path d="M32.0099 77.0566L28.0999 75.6066V74.9166L32.0099 76.3666V77.0566Z" fill="#E2A56F"/>
<path d="M32.8597 85.1667L31.9097 85.0767L27.2197 76.4267L27.5297 75.4867L32.8597 85.1667Z" fill="#E2A56F"/>
<path d="M31.6799 65.7967L28.6299 64.0067L28.7099 63.2667L31.7599 65.0567L31.6799 65.7967Z" fill="#E2A56F"/>
<path d="M32.7398 54.9966H31.9298L30.0498 50.4366H30.8698L32.7398 54.9966Z" fill="#E2A56F"/>
<path d="M32.8999 42.8267H32.0499L30.1299 40.7067L30.7399 40.2567L32.8999 42.8267Z" fill="#E2A56F"/>
<path d="M30.3481 20.3571C30.8676 20.0992 31.0258 19.3608 30.7016 18.7078C30.3774 18.0548 29.6935 17.7345 29.1741 17.9924C28.6547 18.2503 28.4965 18.9887 28.8206 19.6417C29.1448 20.2947 29.8287 20.6149 30.3481 20.3571Z" fill="#AB6448"/>
<path d="M32.9658 19.6209C33.4852 19.363 33.6435 18.6246 33.3193 17.9716C32.9951 17.3186 32.3112 16.9983 31.7918 17.2562C31.2724 17.5141 31.1141 18.2525 31.4383 18.9055C31.7625 19.5584 32.4464 19.8787 32.9658 19.6209Z" fill="#AB6448"/>
<path d="M31.2698 77.2967C31.2698 78.3167 32.0698 79.1567 33.0798 79.2267C33.0598 78.7567 33.0398 78.2767 33.0298 77.8167C33.0298 77.7667 33.0298 77.7267 33.0198 77.6867C33.0198 77.5767 33.0098 77.4667 33.0098 77.3567C33.0098 77.3067 33.0098 77.2567 32.9998 77.2067C32.9998 77.0767 32.9898 76.9467 32.9898 76.8167C32.9898 76.7867 32.9898 76.7567 32.9898 76.7267C32.9898 76.6067 32.9798 76.4767 32.9798 76.3567C32.9798 76.3167 32.9798 76.2767 32.9798 76.2267C32.9798 76.0967 32.9698 75.9667 32.9698 75.8467C32.9698 75.8367 32.9698 75.8267 32.9698 75.8067C32.9598 75.6767 32.9598 75.5367 32.9498 75.4067C32.9498 75.3967 32.9498 75.3967 32.9498 75.3867C31.9998 75.5167 31.2698 76.3267 31.2698 77.2967Z" fill="#AB6448"/>
<path d="M30.7397 66.5467C30.7397 67.8467 31.5797 68.9467 32.7397 69.3367V69.3267C32.7397 69.1367 32.7397 68.9367 32.7297 68.7267C32.7297 68.7167 32.7297 68.7067 32.7297 68.6867C32.7297 68.4867 32.7297 68.2767 32.7197 68.0667C32.7197 68.0567 32.7197 68.0567 32.7197 68.0467C32.7097 66.7267 32.6997 65.2467 32.6997 63.7667C32.6997 63.7567 32.6997 63.7567 32.6997 63.7467C31.5597 64.1767 30.7397 65.2667 30.7397 66.5467Z" fill="#AB6448"/>
<path d="M32.8698 54.0867C31.6598 54.4067 30.7598 55.5167 30.7598 56.8267C30.7598 58.0867 31.5798 59.1567 32.7198 59.5267C32.7198 59.3967 32.7198 59.2767 32.7198 59.1567C32.7198 59.0767 32.7198 59.0067 32.7198 58.9367C32.7198 58.8067 32.7198 58.6867 32.7198 58.5567C32.7198 58.4967 32.7198 58.4367 32.7198 58.3867C32.7198 58.2567 32.7198 58.1367 32.7298 58.0167C32.7298 57.9567 32.7298 57.9067 32.7298 57.8567C32.7298 57.7467 32.7298 57.6267 32.7398 57.5167C32.7398 57.4767 32.7398 57.4267 32.7398 57.3867C32.7398 57.2667 32.7398 57.1467 32.7498 57.0267C32.7498 56.9967 32.7498 56.9567 32.7498 56.9267C32.7498 56.7967 32.7598 56.6767 32.7598 56.5567C32.7598 56.5267 32.7598 56.5067 32.7598 56.4767C32.7598 56.3567 32.7698 56.2367 32.7698 56.1267C32.7698 56.1067 32.7698 56.0867 32.7698 56.0667C32.7698 55.9567 32.7798 55.8367 32.7798 55.7367C32.7798 55.7267 32.7798 55.7167 32.7798 55.7067C32.7798 55.5967 32.7898 55.4967 32.7898 55.3967C32.8298 55.0267 32.8498 54.5867 32.8698 54.0867Z" fill="#AB6448"/>
<path d="M29.7497 51.0466C30.8197 51.0466 31.6797 50.1766 31.6797 49.1166C31.6797 48.0466 30.8097 47.1866 29.7497 47.1866C29.6597 47.1866 29.5797 47.1966 29.4897 47.2066C29.4897 47.2466 29.4797 47.2866 29.4797 47.3266C29.4797 47.3266 29.4797 47.3266 29.4797 47.3366C29.4697 47.4266 29.4697 47.5266 29.4597 47.6366C29.4597 47.6466 29.4597 47.6466 29.4597 47.6566C29.4497 47.7666 29.4397 47.8766 29.4297 47.9966C29.4297 48.0066 29.4297 48.0166 29.4297 48.0266C29.4197 48.1466 29.4097 48.2766 29.3997 48.4066C29.3997 48.4166 29.3997 48.4166 29.3997 48.4266C29.3897 48.5566 29.3797 48.6966 29.3597 48.8466C29.3597 48.8566 29.3597 48.8666 29.3597 48.8766C29.3497 49.0166 29.3297 49.1666 29.3197 49.3166C29.3197 49.3266 29.3197 49.3466 29.3197 49.3566C29.3097 49.5066 29.2897 49.6666 29.2797 49.8266C29.2797 49.8466 29.2797 49.8566 29.2797 49.8766C29.2597 50.0466 29.2497 50.2166 29.2297 50.3866C29.2297 50.3966 29.2297 50.4066 29.2297 50.4166C29.2097 50.5866 29.1997 50.7666 29.1797 50.9466C29.1797 50.9566 29.1797 50.9666 29.1797 50.9666C29.3497 51.0166 29.5497 51.0466 29.7497 51.0466Z" fill="#AB6448"/>
<path d="M31.4199 43.9967C31.4199 45.1367 32.1599 46.0967 33.1899 46.4267V46.4167C33.2399 45.0867 33.2899 43.7867 33.3299 42.6367C33.3299 42.6267 33.3299 42.6167 33.3299 42.6067C33.3399 42.4267 33.3399 42.2467 33.3499 42.0667C33.3499 42.0567 33.3499 42.0467 33.3499 42.0367C33.3599 41.8667 33.3599 41.6967 33.3699 41.5267C33.3699 41.5167 33.3699 41.5167 33.3699 41.5067C32.2499 41.7867 31.4199 42.7967 31.4199 43.9967Z" fill="#AB6448"/>
<path d="M31.6199 34.2667C31.6199 35.2867 32.4499 36.1267 33.4799 36.1267C33.4899 35.6267 33.4999 35.1367 33.5099 34.6667C33.5099 34.6467 33.5099 34.6367 33.5099 34.6167C33.5199 34.3167 33.5199 34.0167 33.5299 33.7367C33.5299 33.7167 33.5299 33.6967 33.5299 33.6767C33.5399 33.3967 33.5399 33.1267 33.5499 32.8667C33.5499 32.8467 33.5499 32.8167 33.5499 32.7967C33.5499 32.6667 33.5599 32.5467 33.5599 32.4267C33.5299 32.4267 33.5099 32.4267 33.4799 32.4267C32.4499 32.4167 31.6199 33.2467 31.6199 34.2667Z" fill="#AB6448"/>
<path d="M31.1398 39.6067C31.1398 38.8467 30.6798 38.1967 30.0298 37.9067C30.0198 38.1567 29.9998 38.4167 29.9898 38.6667C29.9898 38.7367 29.9798 38.7967 29.9798 38.8667C29.9698 39.0867 29.9598 39.2967 29.9398 39.5167C29.9298 39.6067 29.9298 39.6967 29.9198 39.7867C29.9198 39.7967 29.9198 39.8167 29.9198 39.8267C29.8898 40.3467 29.8598 40.8667 29.8298 41.3767C30.5898 41.1467 31.1398 40.4367 31.1398 39.6067Z" fill="#AB6448"/>
<path d="M29.3999 63.0067C29.3999 62.1167 28.8699 61.3567 28.1099 61.0167C28.1099 61.0267 28.1099 61.0267 28.1099 61.0367C28.0899 61.2167 28.0699 61.3967 28.0499 61.5767C28.0499 61.5867 28.0499 61.5967 28.0499 61.6067C27.9899 62.1667 27.9299 62.7067 27.8699 63.2167V63.2267C27.8299 63.5567 27.7899 63.8767 27.7599 64.1867C27.7599 64.2067 27.7599 64.2267 27.7499 64.2467C27.7299 64.3967 27.7199 64.5367 27.6999 64.6767C27.6999 64.6867 27.6999 64.7067 27.6899 64.7167C27.6699 64.8567 27.6599 65.0067 27.6399 65.1367C28.6399 64.9467 29.3999 64.0667 29.3999 63.0067Z" fill="#AB6448"/>
<path d="M25.9098 76.9367C27.5298 76.9367 28.8398 75.6267 28.8398 74.0067C28.8398 72.6967 27.9798 71.5967 26.7998 71.2167C26.7698 71.4367 26.7298 71.6667 26.6998 71.8867C26.6898 71.9267 26.6898 71.9567 26.6798 71.9967C26.6098 72.4567 26.5398 72.9167 26.4698 73.3767C26.4698 73.3967 26.4598 73.4167 26.4598 73.4467C26.4298 73.6667 26.3898 73.8867 26.3598 74.1167C26.3598 74.1267 26.3598 74.1367 26.3598 74.1467C26.2898 74.6167 26.2098 75.0867 26.1398 75.5467C26.1398 75.5567 26.1398 75.5767 26.1298 75.5867C26.0598 76.0467 25.9798 76.4967 25.9098 76.9367C25.8998 76.9367 25.8998 76.9367 25.9098 76.9367Z" fill="#AB6448"/>
<path d="M33.5097 91.4367C33.5097 91.2467 33.4997 91.0067 33.4997 90.7467C33.4997 90.5467 33.4897 90.3367 33.4897 90.1067C33.4897 89.9567 33.4797 89.7967 33.4797 89.6467C33.4797 89.4867 33.4697 89.3267 33.4697 89.1667C33.4697 89.0867 33.4697 88.9967 33.4597 88.9167C33.4597 88.7567 33.4497 88.5967 33.4497 88.4367C33.4497 88.2767 33.4397 88.1167 33.4397 87.9567C33.4197 87.2467 33.3997 86.6067 33.3697 86.1867C33.3697 86.1767 33.3697 86.1667 33.3697 86.1667C33.3697 86.1267 33.3697 86.0867 33.3597 86.0367C33.3597 86.0167 33.3597 85.9967 33.3597 85.9767C33.3597 85.9367 33.3597 85.8967 33.3497 85.8467C33.3497 85.8167 33.3497 85.7867 33.3497 85.7567C33.3497 85.7167 33.3497 85.6667 33.3397 85.6267C33.3397 85.5867 33.3397 85.5467 33.3297 85.5167C33.3297 85.4767 33.3297 85.4267 33.3197 85.3867C33.3197 85.3367 33.3197 85.2967 33.3097 85.2467C33.3097 85.2067 33.3097 85.1567 33.2997 85.1167C33.2897 84.8867 33.2797 84.6467 33.2697 84.3667C33.2697 84.3567 33.2697 84.3467 33.2697 84.3367C31.5097 84.8167 30.2097 86.4267 30.2097 88.3367C30.2097 89.1267 30.4297 89.8567 30.8097 90.4867C30.9197 90.6667 31.0497 90.8467 31.1897 91.0067C31.5297 91.4067 32.0797 92.2167 32.5397 92.4667L33.4397 92.8467C33.4497 92.8367 33.5097 91.7767 33.5097 91.4367Z" fill="#AB6448"/>
<path d="M21.0398 86.4568C21.3698 86.6868 21.7098 86.9268 22.0398 87.1468L21.5598 86.1968C21.3998 86.2968 21.2198 86.3868 21.0398 86.4568Z" fill="#E2A56F"/>
<path d="M30.8199 90.4767L29.8899 91.2067C30.1199 91.2967 30.3499 91.3967 30.5799 91.4767L31.1999 90.9967C31.0599 90.8267 30.9299 90.6567 30.8199 90.4767Z" fill="#E2A56F"/>
<path d="M20.7198 86.0967L21.3898 85.8767L21.5598 86.2067C22.5698 85.6167 23.2898 84.5967 23.4498 83.3967C22.1398 84.1267 20.3098 84.3567 18.5598 84.5967C19.2898 85.1967 20.0498 85.7667 20.8298 86.3167L20.7198 86.0967Z" fill="#AB6448"/>
<path d="M20.7197 86.0967L20.8197 86.3067C20.8897 86.3567 20.9597 86.4067 21.0297 86.4567C21.2097 86.3867 21.3897 86.2967 21.5497 86.1967L21.3797 85.8667L20.7197 86.0967Z" fill="#AB6448"/>
<path d="M67.9896 65.2967H59.6396V47.2367" stroke="#50E6FF" stroke-miterlimit="10" stroke-linejoin="round"/>
<path d="M67.9896 59.2267H59.6396" stroke="#50E6FF" stroke-miterlimit="10"/>
<path d="M67.9896 53.1567H59.6396" stroke="#50E6FF" stroke-miterlimit="10"/>
<path d="M71.2896 50.4867H65.2596C64.8896 50.4867 64.5896 50.7867 64.5896 51.1567V54.8467C64.5896 55.2167 64.8896 55.5167 65.2596 55.5167H71.2996C71.6696 55.5167 71.9696 55.2267 71.9696 54.8567V51.1667C71.9596 50.7867 71.6596 50.4867 71.2896 50.4867Z" fill="#50E6FF"/>
<path d="M71.2896 62.7866H65.2596C64.8896 62.7866 64.5896 63.0866 64.5896 63.4566V67.1566C64.5896 67.5266 64.8896 67.8266 65.2596 67.8266H71.2996C71.6696 67.8266 71.9696 67.5266 71.9696 67.1566V63.4666C71.9596 63.0866 71.6596 62.7866 71.2896 62.7866Z" fill="#0078D4"/>
<path d="M71.2896 56.6267H65.2596C64.8896 56.6267 64.5896 56.9267 64.5896 57.2967V60.9867C64.5896 61.3567 64.8896 61.6567 65.2596 61.6567H71.2996C71.6696 61.6567 71.9696 61.3667 71.9696 60.9867V57.2967C71.9596 56.9267 71.6596 56.6267 71.2896 56.6267Z" fill="#3BCAF4"/>
<path d="M56.3797 49.3867H62.4097C62.7797 49.3867 63.0797 49.0867 63.0797 48.7167V45.0167C63.0797 44.6467 62.7797 44.3467 62.4097 44.3467H56.3697C55.9997 44.3467 55.6997 44.6467 55.6997 45.0167V48.7067C55.7097 49.0867 56.0097 49.3867 56.3797 49.3867Z" fill="#0078D4"/>
<path fill-rule="evenodd" clip-rule="evenodd" d="M94.3397 51.2966C94.3397 75.0966 75.0497 94.3866 51.2497 94.3866C27.4497 94.3866 8.15968 75.0966 8.15968 51.2966C8.15968 27.4966 27.4497 8.20655 51.2497 8.20655C75.0497 8.20655 94.3397 27.4966 94.3397 51.2966ZM51.2497 4.46655C77.1097 4.46655 98.0797 25.4366 98.0797 51.2966C98.0797 77.1566 77.1097 98.1266 51.2497 98.1266C25.3897 98.1266 4.41968 77.1566 4.41968 51.2966C4.41968 25.4366 25.3797 4.46655 51.2497 4.46655Z" fill="url(#paint9_linear)"/>
<defs>
<linearGradient id="paint0_linear" x1="49.4798" y1="-13.4935" x2="53.4618" y2="132.276" gradientUnits="userSpaceOnUse">
<stop stop-color="#00ABDE"/>
<stop offset="1" stop-color="#007ED8"/>
</linearGradient>
<linearGradient id="paint1_linear" x1="56.1613" y1="23.554" x2="78.6905" y2="70.0354" gradientUnits="userSpaceOnUse">
<stop stop-color="#007ED8"/>
<stop offset="0.7065" stop-color="#002D4C"/>
</linearGradient>
<linearGradient id="paint2_linear" x1="67.4349" y1="144.548" x2="57.9489" y2="28.1077" gradientUnits="userSpaceOnUse">
<stop stop-color="#007ED8"/>
<stop offset="0.7065" stop-color="#002D4C"/>
</linearGradient>
<linearGradient id="paint3_linear" x1="62.497" y1="71.1599" x2="62.497" y2="40.5735" gradientUnits="userSpaceOnUse">
<stop stop-color="#D2EBFF"/>
<stop offset="1" stop-color="#F0FFFD"/>
</linearGradient>
<linearGradient id="paint4_linear" x1="62.4886" y1="36.0505" x2="62.4886" y2="41.1384" gradientUnits="userSpaceOnUse">
<stop stop-color="#0099BE"/>
<stop offset="1" stop-color="#006E97"/>
</linearGradient>
<linearGradient id="paint5_linear" x1="62.4844" y1="70.5226" x2="62.4844" y2="73.3508" gradientUnits="userSpaceOnUse">
<stop stop-color="#0099BE"/>
<stop offset="1" stop-color="#006E97"/>
</linearGradient>
<linearGradient id="paint6_linear" x1="62.497" y1="71.1599" x2="62.497" y2="40.5735" gradientUnits="userSpaceOnUse">
<stop stop-color="#D2EBFF"/>
<stop offset="1" stop-color="#F0FFFD"/>
</linearGradient>
<linearGradient id="paint7_linear" x1="62.4886" y1="36.0505" x2="62.4886" y2="41.1384" gradientUnits="userSpaceOnUse">
<stop stop-color="#007ED8"/>
<stop offset="0.7065" stop-color="#002D4C"/>
</linearGradient>
<linearGradient id="paint8_linear" x1="62.4844" y1="70.5226" x2="62.4844" y2="73.3508" gradientUnits="userSpaceOnUse">
<stop stop-color="#007ED8"/>
<stop offset="0.7065" stop-color="#002D4C"/>
</linearGradient>
<linearGradient id="paint9_linear" x1="2.68238" y1="-20.328" x2="98.2094" y2="120.553" gradientUnits="userSpaceOnUse">
<stop stop-color="#007ED8"/>
<stop offset="0.7065" stop-color="#002D4C"/>
</linearGradient>
</defs>
</svg>
