<svg width="103" height="103" viewBox="0 0 103 103" fill="none" xmlns="http://www.w3.org/2000/svg">
<path d="M51.2497 98.0778C25.3997 98.0778 4.4397 77.1278 4.4397 51.2678C4.4397 25.4078 25.3997 4.45776 51.2497 4.45776C77.0997 4.45776 98.0597 25.4178 98.0597 51.2678C98.0597 77.1178 77.0997 98.0778 51.2497 98.0778Z" fill="url(#paint0_linear)"/>
<path fill-rule="evenodd" clip-rule="evenodd" d="M97.1499 51.2678C97.1499 76.6178 76.5999 97.1678 51.2499 97.1678C25.8999 97.1678 5.34986 76.6178 5.34986 51.2678C5.34986 25.9178 25.8999 5.36781 51.2499 5.36781C76.5999 5.36781 97.1499 25.9178 97.1499 51.2678ZM51.2499 1.62781C78.6699 1.62781 100.89 23.8478 100.89 51.2678C100.89 78.6878 78.6599 100.908 51.2499 100.908C23.8299 100.908 1.60986 78.6778 1.60986 51.2678C1.60986 23.8478 23.8299 1.62781 51.2499 1.62781Z" fill="#F2F1F0"/>
<path d="M62.2198 38.7378C59.8998 38.7378 58.0098 36.8378 58.0098 34.5078C58.0098 32.1778 59.8998 30.2778 62.2198 30.2778C64.5398 30.2778 66.4298 32.1778 66.4298 34.5078C66.4298 36.8378 64.5298 38.7378 62.2198 38.7378ZM62.2198 31.9478C60.8198 31.9478 59.6898 33.0978 59.6898 34.5078C59.6898 35.9178 60.8298 37.0678 62.2198 37.0678C63.6098 37.0678 64.7498 35.9178 64.7498 34.5078C64.7498 33.0978 63.6098 31.9478 62.2198 31.9478Z" fill="url(#paint1_linear)"/>
<path d="M72.9798 78.9778H51.9798L49.7698 83.0978L48.2998 82.3078L54.4198 70.9178L55.8798 71.7178L52.8798 77.3078H72.0898L69.0898 71.7178L70.5598 70.9278L76.6798 82.3178L75.2098 83.1078L72.9798 78.9778Z" fill="url(#paint2_linear)"/>
<path d="M85.2498 39.0378H39.7498V69.6278H85.2498V39.0378Z" fill="url(#paint3_linear)"/>
<path d="M39.1497 34.4978H85.8197C86.7397 34.4978 87.4897 35.2478 87.4897 36.1678V37.9178C87.4897 38.8378 86.7397 39.5878 85.8197 39.5878H39.1497C38.2297 39.5878 37.4797 38.8378 37.4797 37.9178V36.1678C37.4797 35.2478 38.2297 34.4978 39.1497 34.4978Z" fill="url(#paint4_linear)"/>
<path d="M38.8897 68.9778H86.0697C86.8497 68.9778 87.4797 69.6178 87.4797 70.3878C87.4797 71.1678 86.8397 71.7978 86.0697 71.7978H38.8897C38.1097 71.8078 37.4797 71.1678 37.4797 70.3878C37.4797 69.6078 38.1097 68.9778 38.8897 68.9778Z" fill="url(#paint5_linear)"/>
<path d="M85.2498 39.0378H39.7498V69.6278H85.2498V39.0378Z" fill="url(#paint6_linear)"/>
<path d="M39.1497 34.4978H85.8197C86.7397 34.4978 87.4897 35.2478 87.4897 36.1678V37.9178C87.4897 38.8378 86.7397 39.5878 85.8197 39.5878H39.1497C38.2297 39.5878 37.4797 38.8378 37.4797 37.9178V36.1678C37.4797 35.2478 38.2297 34.4978 39.1497 34.4978Z" fill="url(#paint7_linear)"/>
<path d="M38.8897 68.9778H86.0697C86.8497 68.9778 87.4797 69.6178 87.4797 70.3878C87.4797 71.1678 86.8397 71.7978 86.0697 71.7978H38.8897C38.1097 71.8078 37.4797 71.1678 37.4797 70.3878C37.4797 69.6078 38.1097 68.9778 38.8897 68.9778Z" fill="url(#paint8_linear)"/>
<path d="M33.5098 90.4478C33.5098 90.4478 33.4498 86.1378 33.3598 84.6478C33.2698 83.1478 32.9298 73.5578 32.8098 70.8078C32.6898 68.0578 32.6598 57.1478 32.8098 53.8578C32.9598 50.5578 33.3598 41.1178 33.4198 37.8778C33.4798 34.6378 33.5398 30.0878 33.6298 29.0178C33.7198 27.9478 34.2098 27.9778 34.6998 28.3778C35.1898 28.7778 35.1898 28.6878 36.4398 29.6578C37.6898 30.6378 37.9098 29.6278 37.9098 29.6278L41.2098 27.0878C41.2098 27.0878 40.5398 26.3578 40.1698 25.9878C39.7998 25.6178 39.1298 24.8578 37.9698 23.3278C36.8098 21.7978 36.3798 21.4378 35.6798 21.0978C34.9798 20.7578 33.3598 20.7878 32.4098 21.3078C31.4598 21.8278 30.1798 22.7778 30.1798 22.7778L29.1398 21.7378C28.7698 21.4278 27.1798 19.9978 26.2098 21.2478C25.2398 22.4978 26.5498 23.4478 27.3098 23.8478C28.0698 24.2478 29.7798 24.3378 29.7798 24.3378C29.7798 24.3378 29.9898 24.9778 30.2098 25.4678C30.4198 25.9578 30.8798 26.5678 30.8798 26.5678C30.8798 26.5678 30.5098 28.1578 30.2698 32.1278C30.0298 36.0978 29.6898 42.5178 29.4798 45.7778C29.2698 49.0478 28.0098 60.6878 27.4598 64.9578C26.9098 69.2378 25.7198 76.5378 25.1998 79.4678C24.7098 82.2478 21.5198 82.6378 18.5598 83.0378C22.5098 86.2878 27.0798 88.8178 32.0498 90.4278L33.5098 90.4478Z" fill="#F9D697"/>
<path d="M35.5298 21.7379C35.5298 21.7379 35.5598 19.2679 35.6498 18.1379C35.7398 17.0079 36.3798 16.3379 36.8698 16.6979C37.3598 17.0679 37.8198 17.7979 37.5098 18.9879C37.1998 20.1779 35.7698 21.8579 35.7698 21.8579L35.5298 21.7379Z" fill="#F9D697"/>
<path d="M29.8799 18.4378C29.8799 18.4378 30.3699 19.8478 30.6399 20.7578C30.9099 21.6778 31.3999 22.6478 31.3999 22.6478L31.7699 22.4078C31.7699 22.4078 31.2199 21.3678 30.8799 20.2078C30.5399 19.0478 30.2699 17.7678 30.2699 17.7678L29.8799 18.4378Z" fill="#F9D697"/>
<path d="M32.4397 17.6478C32.4397 17.7378 32.6197 18.5078 32.9897 19.3578C33.3597 20.2178 33.9397 21.4378 33.9397 21.4378L34.4597 21.3778C34.4597 21.3778 33.7897 20.3378 33.4197 19.2978C33.0497 18.2578 32.7497 17.2778 32.7497 17.2778L32.4397 17.6478Z" fill="#F9D697"/>
<path d="M40.4498 26.2178C40.4498 26.2178 38.8498 27.5478 38.1098 28.1078C37.3798 28.6778 36.2898 29.6078 36.2898 29.6078C36.2898 29.6078 38.2798 30.7678 39.4098 31.1978C40.5398 31.6278 41.9598 31.3778 42.6498 30.4178C43.3398 29.4578 42.7698 28.4278 42.3798 27.9178C41.9898 27.4078 40.4498 26.2178 40.4498 26.2178Z" fill="#AC6348"/>
<path d="M41.2697 29.8779C41.4244 29.8779 41.5497 29.7525 41.5497 29.5979C41.5497 29.4432 41.4244 29.3179 41.2697 29.3179C41.1151 29.3179 40.9897 29.4432 40.9897 29.5979C40.9897 29.7525 41.1151 29.8779 41.2697 29.8779Z" fill="#C08B76"/>
<path d="M40.1799 30.3178C40.3345 30.3178 40.4599 30.1925 40.4599 30.0378C40.4599 29.8832 40.3345 29.7578 40.1799 29.7578C40.0253 29.7578 39.8999 29.8832 39.8999 30.0378C39.8999 30.1925 40.0253 30.3178 40.1799 30.3178Z" fill="#C08B76"/>
<path d="M36.8435 24.4178C37.1257 24.2548 37.1373 23.7467 36.8694 23.2827C36.6016 22.8188 36.1557 22.5748 35.8735 22.7377C35.5913 22.9006 35.5797 23.4088 35.8475 23.8727C36.1154 24.3367 36.5613 24.5807 36.8435 24.4178Z" fill="#101010"/>
<path d="M36.7402 24.346C36.8933 24.2576 36.8965 23.9766 36.7473 23.7183C36.5982 23.46 36.3533 23.3223 36.2002 23.4107C36.0472 23.499 36.044 23.78 36.1931 24.0383C36.3422 24.2966 36.5872 24.4343 36.7402 24.346Z" fill="#ECECEC"/>
<path d="M34.3242 26.0955C34.6064 25.9326 34.618 25.4244 34.3501 24.9605C34.0823 24.4965 33.6364 24.2525 33.3542 24.4154C33.072 24.5784 33.0604 25.0865 33.3283 25.5505C33.5961 26.0144 34.042 26.2584 34.3242 26.0955Z" fill="#101010"/>
<path d="M34.2209 26.0236C34.374 25.9352 34.3772 25.6542 34.228 25.3959C34.0789 25.1377 33.834 24.9999 33.6809 25.0883C33.5279 25.1767 33.5247 25.4577 33.6738 25.7159C33.8229 25.9742 34.0679 26.1119 34.2209 26.0236Z" fill="#ECECEC"/>
<path d="M32.8799 33.8678L30.4999 37.1278L30.1299 36.5178L32.3799 33.4578L32.8799 33.8678Z" fill="#E2A570"/>
<path d="M32.6099 43.6178L30.2399 46.8778L29.8699 46.2678L32.1099 43.2178L32.6099 43.6178Z" fill="#E2A56F"/>
<path d="M31.7698 56.8278L28.6698 60.6078L28.2998 59.9978L31.2698 56.4178L31.7698 56.8278Z" fill="#E2A56F"/>
<path d="M31.9497 66.6578L27.8097 71.3378L27.4397 70.7278L31.4497 66.2578L31.9497 66.6578Z" fill="#E2A56F"/>
<path d="M30.7198 85.8378L22.7998 83.0678L23.0698 82.4178L30.9898 85.1878L30.7198 85.8378Z" fill="#E2A56F"/>
<path d="M32.0099 75.5178L28.0999 74.0678V73.3778L32.0099 74.8278V75.5178Z" fill="#E2A56F"/>
<path d="M32.8597 83.6179L31.9097 83.5379L27.2197 74.8879L27.5297 73.9479L32.8597 83.6179Z" fill="#E2A56F"/>
<path d="M31.6799 64.2578L28.6299 62.4578L28.7099 61.7278L31.7599 63.5178L31.6799 64.2578Z" fill="#E2A56F"/>
<path d="M32.7398 53.4578H31.9298L30.0498 48.8978H30.8698L32.7398 53.4578Z" fill="#E2A56F"/>
<path d="M32.8999 41.2778H32.0499L30.1299 39.1678L30.7399 38.7178L32.8999 41.2778Z" fill="#E2A56F"/>
<path d="M30.3491 18.818C30.8685 18.5601 31.0268 17.8217 30.7026 17.1687C30.3784 16.5158 29.6945 16.1955 29.1751 16.4534C28.6557 16.7112 28.4974 17.4496 28.8216 18.1026C29.1458 18.7556 29.8297 19.0759 30.3491 18.818Z" fill="#AB6448"/>
<path d="M32.9668 18.0818C33.4862 17.8239 33.6445 17.0855 33.3203 16.4325C32.9961 15.7796 32.3122 15.4593 31.7928 15.7171C31.2734 15.975 31.1151 16.7134 31.4393 17.3664C31.7635 18.0194 32.4474 18.3397 32.9668 18.0818Z" fill="#AB6448"/>
<path d="M31.2698 75.7578C31.2698 76.7778 32.0698 77.6178 33.0798 77.6878C33.0598 77.2178 33.0398 76.7378 33.0298 76.2778C33.0298 76.2278 33.0298 76.1878 33.0198 76.1478C33.0198 76.0378 33.0098 75.9278 33.0098 75.8178C33.0098 75.7678 33.0098 75.7178 32.9998 75.6678C32.9998 75.5378 32.9898 75.4078 32.9898 75.2778C32.9898 75.2478 32.9898 75.2178 32.9898 75.1878C32.9898 75.0678 32.9798 74.9378 32.9798 74.8178C32.9798 74.7778 32.9798 74.7378 32.9798 74.6878C32.9798 74.5578 32.9698 74.4278 32.9698 74.3078C32.9698 74.2978 32.9698 74.2878 32.9698 74.2678C32.9598 74.1378 32.9598 73.9978 32.9498 73.8678C32.9498 73.8578 32.9498 73.8578 32.9498 73.8478C31.9998 73.9778 31.2698 74.7878 31.2698 75.7578Z" fill="#AB6448"/>
<path d="M30.7397 65.0078C30.7397 66.3078 31.5797 67.4078 32.7397 67.7978V67.7878C32.7397 67.5978 32.7397 67.3978 32.7297 67.1878C32.7297 67.1778 32.7297 67.1678 32.7297 67.1478C32.7297 66.9478 32.7297 66.7378 32.7197 66.5278C32.7197 66.5178 32.7197 66.5178 32.7197 66.5078C32.7097 65.1878 32.6997 63.7078 32.6997 62.2278C32.6997 62.2178 32.6997 62.2178 32.6997 62.2078C31.5597 62.6378 30.7397 63.7278 30.7397 65.0078Z" fill="#AB6448"/>
<path d="M32.8698 52.5479C31.6598 52.8679 30.7598 53.9779 30.7598 55.2879C30.7598 56.5479 31.5798 57.6179 32.7198 57.9879C32.7198 57.8579 32.7198 57.7379 32.7198 57.6179C32.7198 57.5379 32.7198 57.4679 32.7198 57.3979C32.7198 57.2679 32.7198 57.1479 32.7198 57.0179C32.7198 56.9579 32.7198 56.8979 32.7198 56.8479C32.7198 56.7179 32.7198 56.5979 32.7298 56.4779C32.7298 56.4179 32.7298 56.3679 32.7298 56.3179C32.7298 56.2079 32.7298 56.0879 32.7398 55.9779C32.7398 55.9379 32.7398 55.8879 32.7398 55.8479C32.7398 55.7279 32.7398 55.6079 32.7498 55.4879C32.7498 55.4579 32.7498 55.4179 32.7498 55.3879C32.7498 55.2579 32.7598 55.1379 32.7598 55.0179C32.7598 54.9879 32.7598 54.9679 32.7598 54.9379C32.7598 54.8179 32.7698 54.6979 32.7698 54.5879C32.7698 54.5679 32.7698 54.5479 32.7698 54.5279C32.7698 54.4179 32.7798 54.2979 32.7798 54.1979C32.7798 54.1879 32.7798 54.1779 32.7798 54.1679C32.7798 54.0579 32.7898 53.9579 32.7898 53.8579C32.8298 53.4879 32.8498 53.0379 32.8698 52.5479Z" fill="#AB6448"/>
<path d="M29.7497 49.5078C30.8197 49.5078 31.6797 48.6378 31.6797 47.5778C31.6797 46.5078 30.8097 45.6478 29.7497 45.6478C29.6597 45.6478 29.5797 45.6578 29.4897 45.6678C29.4897 45.7078 29.4797 45.7478 29.4797 45.7878C29.4797 45.7878 29.4797 45.7878 29.4797 45.7978C29.4697 45.8878 29.4697 45.9878 29.4597 46.0978C29.4597 46.1078 29.4597 46.1078 29.4597 46.1178C29.4497 46.2278 29.4397 46.3378 29.4297 46.4578C29.4297 46.4678 29.4297 46.4778 29.4297 46.4878C29.4197 46.6078 29.4097 46.7378 29.3997 46.8678C29.3997 46.8778 29.3997 46.8778 29.3997 46.8878C29.3897 47.0178 29.3797 47.1578 29.3597 47.3078C29.3597 47.3178 29.3597 47.3278 29.3597 47.3378C29.3497 47.4778 29.3297 47.6278 29.3197 47.7778C29.3197 47.7878 29.3197 47.8078 29.3197 47.8178C29.3097 47.9678 29.2897 48.1278 29.2797 48.2878C29.2797 48.3078 29.2797 48.3178 29.2797 48.3378C29.2597 48.5078 29.2497 48.6778 29.2297 48.8478C29.2297 48.8578 29.2297 48.8678 29.2297 48.8778C29.2097 49.0478 29.1997 49.2278 29.1797 49.4078C29.1797 49.4178 29.1797 49.4278 29.1797 49.4278C29.3497 49.4778 29.5497 49.5078 29.7497 49.5078Z" fill="#AB6448"/>
<path d="M31.4199 42.4578C31.4199 43.5978 32.1599 44.5578 33.1899 44.8878V44.8778C33.2399 43.5478 33.2899 42.2478 33.3299 41.0978C33.3299 41.0878 33.3299 41.0778 33.3299 41.0678C33.3399 40.8878 33.3399 40.7078 33.3499 40.5278C33.3499 40.5178 33.3499 40.5078 33.3499 40.4978C33.3599 40.3278 33.3599 40.1578 33.3699 39.9878C33.3699 39.9778 33.3699 39.9778 33.3699 39.9678C32.2499 40.2478 31.4199 41.2578 31.4199 42.4578Z" fill="#AB6448"/>
<path d="M31.6199 32.7278C31.6199 33.7478 32.4499 34.5878 33.4799 34.5878C33.4899 34.0878 33.4999 33.5978 33.5099 33.1278C33.5099 33.1078 33.5099 33.0978 33.5099 33.0778C33.5199 32.7778 33.5199 32.4778 33.5299 32.1978C33.5299 32.1778 33.5299 32.1578 33.5299 32.1378C33.5399 31.8578 33.5399 31.5878 33.5499 31.3278C33.5499 31.3078 33.5499 31.2778 33.5499 31.2578C33.5499 31.1278 33.5599 31.0078 33.5599 30.8878C33.5299 30.8878 33.5099 30.8878 33.4799 30.8878C32.4499 30.8778 31.6199 31.7078 31.6199 32.7278Z" fill="#AB6448"/>
<path d="M31.1398 38.0678C31.1398 37.3078 30.6798 36.6578 30.0298 36.3678C30.0198 36.6178 29.9998 36.8778 29.9898 37.1278C29.9898 37.1978 29.9798 37.2578 29.9798 37.3278C29.9698 37.5478 29.9598 37.7578 29.9398 37.9778C29.9298 38.0678 29.9298 38.1578 29.9198 38.2478C29.9198 38.2578 29.9198 38.2778 29.9198 38.2878C29.8898 38.8078 29.8598 39.3278 29.8298 39.8378C30.5898 39.6078 31.1398 38.8978 31.1398 38.0678Z" fill="#AB6448"/>
<path d="M29.3999 61.4678C29.3999 60.5778 28.8699 59.8178 28.1099 59.4778C28.1099 59.4878 28.1099 59.4878 28.1099 59.4978C28.0899 59.6778 28.0699 59.8578 28.0499 60.0378C28.0499 60.0478 28.0499 60.0578 28.0499 60.0678C27.9899 60.6278 27.9299 61.1678 27.8699 61.6778V61.6878C27.8299 62.0178 27.7899 62.3378 27.7599 62.6478C27.7599 62.6678 27.7599 62.6878 27.7499 62.7078C27.7299 62.8578 27.7199 62.9978 27.6999 63.1378C27.6999 63.1478 27.6999 63.1678 27.6899 63.1778C27.6699 63.3178 27.6599 63.4678 27.6399 63.5978C28.6399 63.4078 29.3999 62.5278 29.3999 61.4678Z" fill="#AB6448"/>
<path d="M25.9098 75.3979C27.5298 75.3979 28.8398 74.0878 28.8398 72.4678C28.8398 71.1578 27.9798 70.0579 26.7998 69.6779C26.7698 69.8979 26.7298 70.1279 26.6998 70.3479C26.6898 70.3879 26.6898 70.4179 26.6798 70.4579C26.6098 70.9179 26.5398 71.3779 26.4698 71.8379C26.4698 71.8579 26.4598 71.8779 26.4598 71.9079C26.4298 72.1279 26.3898 72.3479 26.3598 72.5779C26.3598 72.5879 26.3598 72.5978 26.3598 72.6078C26.2898 73.0778 26.2098 73.5479 26.1398 74.0079C26.1398 74.0179 26.1398 74.0379 26.1298 74.0479C26.0598 74.5079 25.9798 74.9579 25.9098 75.3979C25.8998 75.3979 25.8998 75.3979 25.9098 75.3979Z" fill="#AB6448"/>
<path d="M33.5097 89.8979C33.5097 89.7079 33.4997 89.4679 33.4997 89.2079C33.4997 89.0079 33.4897 88.7979 33.4897 88.5679C33.4897 88.4179 33.4797 88.2578 33.4797 88.1078C33.4797 87.9478 33.4697 87.7879 33.4697 87.6279C33.4697 87.5479 33.4697 87.4579 33.4597 87.3779C33.4597 87.2179 33.4497 87.0579 33.4497 86.8979C33.4497 86.7379 33.4397 86.5779 33.4397 86.4179C33.4197 85.7079 33.3997 85.0679 33.3697 84.6479C33.3697 84.6379 33.3697 84.6279 33.3697 84.6279C33.3697 84.5879 33.3697 84.5479 33.3597 84.4979C33.3597 84.4779 33.3597 84.4579 33.3597 84.4379C33.3597 84.3979 33.3597 84.3579 33.3497 84.3079C33.3497 84.2779 33.3497 84.2478 33.3497 84.2178C33.3497 84.1778 33.3497 84.1279 33.3397 84.0879C33.3397 84.0479 33.3397 84.0079 33.3297 83.9779C33.3297 83.9379 33.3297 83.8879 33.3197 83.8479C33.3197 83.7979 33.3197 83.7579 33.3097 83.7079C33.3097 83.6679 33.3097 83.6179 33.2997 83.5779C33.2897 83.3479 33.2797 83.1079 33.2697 82.8279C33.2697 82.8179 33.2697 82.8079 33.2697 82.7979C31.5097 83.2779 30.2097 84.8879 30.2097 86.7979C30.2097 87.5879 30.4297 88.3179 30.8097 88.9479C30.9197 89.1279 31.0497 89.3078 31.1897 89.4678C31.5297 89.8678 32.0797 90.6779 32.5397 90.9279L33.4397 91.3079C33.4497 91.2979 33.5097 90.2379 33.5097 89.8979Z" fill="#AB6448"/>
<path d="M21.0398 84.9178C21.3698 85.1478 21.7098 85.3878 22.0398 85.6078L21.5598 84.6578C21.3998 84.7578 21.2198 84.8478 21.0398 84.9178Z" fill="#E2A56F"/>
<path d="M30.8199 88.9377L29.8899 89.6677C30.1199 89.7577 30.3499 89.8577 30.5799 89.9377L31.1999 89.4577C31.0599 89.2877 30.9299 89.1177 30.8199 88.9377Z" fill="#E2A56F"/>
<path d="M20.7198 84.5578L21.3898 84.3378L21.5598 84.6678C22.5698 84.0778 23.2898 83.0578 23.4498 81.8578C22.1398 82.5878 20.3098 82.8178 18.5598 83.0578C19.2898 83.6578 20.0498 84.2278 20.8298 84.7778L20.7198 84.5578Z" fill="#AB6448"/>
<path d="M20.7197 84.5578L20.8197 84.7678C20.8897 84.8178 20.9597 84.8678 21.0297 84.9178C21.2097 84.8478 21.3897 84.7578 21.5497 84.6578L21.3797 84.3278L20.7197 84.5578Z" fill="#AB6448"/>
<path d="M72.6398 48.5279C72.6398 47.8979 72.1298 47.3779 71.4898 47.3779H53.7098C53.0798 47.3779 52.5598 47.8879 52.5598 48.5279C52.5598 49.1579 53.0698 49.6779 53.7098 49.6779H71.4998C72.1298 49.6779 72.6398 49.1679 72.6398 48.5279Z" fill="#50E6FF"/>
<path d="M56.8499 48.5279C56.8499 49.7879 57.8799 50.8079 59.1299 50.8079C60.3899 50.8079 61.4099 49.7779 61.4099 48.5279C61.4099 47.2679 60.3799 46.2479 59.1299 46.2479C57.8699 46.2379 56.8499 47.2679 56.8499 48.5279Z" fill="url(#paint9_linear)"/>
<path d="M72.6398 54.3379C72.6398 53.7079 72.1298 53.1879 71.4898 53.1879H53.7098C53.0798 53.1879 52.5598 53.6979 52.5598 54.3379C52.5598 54.9679 53.0698 55.4879 53.7098 55.4879H71.4998C72.1298 55.4779 72.6398 54.9679 72.6398 54.3379Z" fill="#32B0E7"/>
<path d="M63.7297 54.3279C63.7297 55.5879 64.7597 56.6079 66.0097 56.6079C67.2697 56.6079 68.2897 55.5779 68.2897 54.3279C68.2897 53.0679 67.2597 52.0479 66.0097 52.0479C64.7497 52.0479 63.7297 53.0679 63.7297 54.3279Z" fill="url(#paint10_linear)"/>
<path d="M72.6398 60.4779C72.6398 59.8479 72.1298 59.3279 71.4898 59.3279H53.7098C53.0798 59.3279 52.5598 59.8379 52.5598 60.4779C52.5598 61.1179 53.0698 61.6279 53.7098 61.6279H71.4998C72.1298 61.6279 72.6398 61.1179 72.6398 60.4779Z" fill="#185A97"/>
<path d="M56.9299 60.4778C56.9299 61.7378 57.9599 62.7578 59.2099 62.7578C60.4699 62.7578 61.4899 61.7278 61.4899 60.4778C61.4899 59.2178 60.4599 58.1978 59.2099 58.1978C57.9499 58.1878 56.9299 59.2178 56.9299 60.4778Z" fill="url(#paint11_linear)"/>
<path fill-rule="evenodd" clip-rule="evenodd" d="M94.3397 51.2677C94.3397 75.0677 75.0497 94.3577 51.2497 94.3577C27.4497 94.3577 8.15968 75.0677 8.15968 51.2677C8.15968 27.4677 27.4497 8.17774 51.2497 8.17774C75.0497 8.17774 94.3397 27.4677 94.3397 51.2677ZM51.2497 4.43774C77.1097 4.43774 98.0797 25.4077 98.0797 51.2677C98.0797 77.1277 77.1097 98.0977 51.2497 98.0977C25.3897 98.0977 4.41968 77.1277 4.41968 51.2677C4.41968 25.4077 25.3797 4.43774 51.2497 4.43774Z" fill="url(#paint12_linear)"/>
<defs>
<linearGradient id="paint0_linear" x1="49.4798" y1="-13.5217" x2="53.4618" y2="132.248" gradientUnits="userSpaceOnUse">
<stop stop-color="#00ABDE"/>
<stop offset="1" stop-color="#007ED8"/>
</linearGradient>
<linearGradient id="paint1_linear" x1="56.1613" y1="22.0134" x2="78.6905" y2="68.4949" gradientUnits="userSpaceOnUse">
<stop stop-color="#007ED8"/>
<stop offset="0.7065" stop-color="#002D4C"/>
</linearGradient>
<linearGradient id="paint2_linear" x1="67.4349" y1="143.008" x2="57.9489" y2="26.5672" gradientUnits="userSpaceOnUse">
<stop stop-color="#007ED8"/>
<stop offset="0.7065" stop-color="#002D4C"/>
</linearGradient>
<linearGradient id="paint3_linear" x1="62.497" y1="69.6194" x2="62.497" y2="39.0329" gradientUnits="userSpaceOnUse">
<stop stop-color="#D2EBFF"/>
<stop offset="1" stop-color="#F0FFFD"/>
</linearGradient>
<linearGradient id="paint4_linear" x1="62.4886" y1="34.51" x2="62.4886" y2="39.5984" gradientUnits="userSpaceOnUse">
<stop stop-color="#0099BE"/>
<stop offset="1" stop-color="#006E97"/>
</linearGradient>
<linearGradient id="paint5_linear" x1="62.4844" y1="68.9827" x2="62.4844" y2="71.8103" gradientUnits="userSpaceOnUse">
<stop stop-color="#0099BE"/>
<stop offset="1" stop-color="#006E97"/>
</linearGradient>
<linearGradient id="paint6_linear" x1="62.497" y1="69.6194" x2="62.497" y2="39.0329" gradientUnits="userSpaceOnUse">
<stop stop-color="#D2EBFF"/>
<stop offset="1" stop-color="#F0FFFD"/>
</linearGradient>
<linearGradient id="paint7_linear" x1="62.4886" y1="34.51" x2="62.4886" y2="39.5984" gradientUnits="userSpaceOnUse">
<stop stop-color="#007ED8"/>
<stop offset="0.7065" stop-color="#002D4C"/>
</linearGradient>
<linearGradient id="paint8_linear" x1="62.4844" y1="68.9827" x2="62.4844" y2="71.8103" gradientUnits="userSpaceOnUse">
<stop stop-color="#007ED8"/>
<stop offset="0.7065" stop-color="#002D4C"/>
</linearGradient>
<linearGradient id="paint9_linear" x1="53.9597" y1="42.6306" x2="71.3441" y2="62.4357" gradientUnits="userSpaceOnUse">
<stop stop-color="#007ED8"/>
<stop offset="0.7065" stop-color="#002D4C"/>
</linearGradient>
<linearGradient id="paint10_linear" x1="54.9645" y1="41.7484" x2="72.3489" y2="61.5535" gradientUnits="userSpaceOnUse">
<stop stop-color="#007ED8"/>
<stop offset="0.7065" stop-color="#002D4C"/>
</linearGradient>
<linearGradient id="paint11_linear" x1="48.0777" y1="47.7936" x2="65.4621" y2="67.5987" gradientUnits="userSpaceOnUse">
<stop stop-color="#007ED8"/>
<stop offset="0.7065" stop-color="#002D4C"/>
</linearGradient>
<linearGradient id="paint12_linear" x1="2.68238" y1="-20.3568" x2="98.2094" y2="120.525" gradientUnits="userSpaceOnUse">
<stop stop-color="#007ED8"/>
<stop offset="0.7065" stop-color="#002D4C"/>
</linearGradient>
</defs>
</svg>
