<?xml version="1.0" encoding="UTF-8"?>
<svg width="101px" height="101px" viewBox="0 0 101 101" version="1.1" xmlns="http://www.w3.org/2000/svg" xmlns:xlink="http://www.w3.org/1999/xlink">
    <!-- Generator: Sketch 63.1 (92452) - https://sketch.com -->
    <title>Extending Microsoft Teams/MS-Teams-Webhooks-and-connectors</title>
    <desc>Created with Sketch.</desc>
    <defs>
        <rect id="path-1" x="0" y="0" width="94.3396226" height="94.3396226" rx="47.1698113"></rect>
        <linearGradient x1="50%" y1="0%" x2="50%" y2="100%" id="linearGradient-3">
            <stop stop-color="#99D3FF" offset="0%"></stop>
            <stop stop-color="#0FA6FF" offset="100%"></stop>
        </linearGradient>
        <rect id="path-4" x="0" y="0" width="100" height="100" rx="50"></rect>
        <filter x="-0.5%" y="-0.5%" width="102.0%" height="102.0%" filterUnits="objectBoundingBox" id="filter-5">
            <feOffset dx="1" dy="1" in="SourceAlpha" result="shadowOffsetOuter1"></feOffset>
            <feMorphology radius="4" operator="erode" in="SourceAlpha" result="shadowInner"></feMorphology>
            <feOffset dx="1" dy="1" in="shadowInner" result="shadowInner"></feOffset>
            <feComposite in="shadowOffsetOuter1" in2="shadowInner" operator="out" result="shadowOffsetOuter1"></feComposite>
            <feColorMatrix values="0 0 0 0 0   0 0 0 0 0   0 0 0 0 0  0 0 0 0.15 0" type="matrix" in="shadowOffsetOuter1"></feColorMatrix>
        </filter>
        <path d="M50,2.83018868 C76.0511674,2.83018868 97.1698113,23.9488326 97.1698113,50 C97.1698113,76.0511674 76.0511674,97.1698113 50,97.1698113 C23.9488326,97.1698113 2.83018868,76.0511674 2.83018868,50 C2.83018868,23.9488326 23.9488326,2.83018868 50,2.83018868 Z M50,6.60377358 C26.032926,6.60377358 6.60377358,26.032926 6.60377358,50 C6.60377358,73.967074 26.032926,93.3962264 50,93.3962264 C73.967074,93.3962264 93.3962264,73.967074 93.3962264,50 C93.3962264,26.032926 73.967074,6.60377358 50,6.60377358 Z" id="path-6"></path>
        <filter x="-22.6%" y="-23.5%" width="145.3%" height="147.1%" filterUnits="objectBoundingBox" id="filter-8">
            <feOffset dx="0" dy="2" in="SourceAlpha" result="shadowOffsetOuter1"></feOffset>
            <feGaussianBlur stdDeviation="2" in="shadowOffsetOuter1" result="shadowBlurOuter1"></feGaussianBlur>
            <feColorMatrix values="0 0 0 0 0   0 0 0 0 0   0 0 0 0 0  0 0 0 0.1 0" type="matrix" in="shadowBlurOuter1" result="shadowMatrixOuter1"></feColorMatrix>
            <feMerge>
                <feMergeNode in="shadowMatrixOuter1"></feMergeNode>
                <feMergeNode in="SourceGraphic"></feMergeNode>
            </feMerge>
        </filter>
        <linearGradient x1="50%" y1="0%" x2="50%" y2="100%" id="linearGradient-9">
            <stop stop-color="#7B82EA" offset="0%"></stop>
            <stop stop-color="#4B53BB" offset="100%"></stop>
        </linearGradient>
        <linearGradient x1="50%" y1="100%" x2="50%" y2="0%" id="linearGradient-10">
            <stop stop-color="#CCCCCC" offset="15%"></stop>
            <stop stop-color="#707070" offset="100%"></stop>
        </linearGradient>
        <linearGradient x1="50%" y1="100%" x2="50%" y2="0%" id="linearGradient-11">
            <stop stop-color="#FFFFFF" offset="0%"></stop>
            <stop stop-color="#F0FFFD" offset="100%"></stop>
        </linearGradient>
        <linearGradient x1="50%" y1="100%" x2="50%" y2="0%" id="linearGradient-12">
            <stop stop-color="#FFFFFF" offset="0%"></stop>
            <stop stop-color="#F0FFFD" offset="100%"></stop>
        </linearGradient>
        <linearGradient x1="50%" y1="100%" x2="50%" y2="0%" id="linearGradient-13">
            <stop stop-color="#FFFFFF" offset="0%"></stop>
            <stop stop-color="#F0FFFD" offset="100%"></stop>
        </linearGradient>
    </defs>
    <g id="Badges" stroke="none" stroke-width="1" fill="none" fill-rule="evenodd">
        <g id="Extending-Microsoft-Teams-" transform="translate(-160.000000, -700.000000)">
            <g id="Extending-Microsoft-Teams/MS-Teams-Webhooks-and-connectors" transform="translate(160.000000, 700.000000)">
                <g id="Badge-Plates/Circle">
                    <g id="BG" transform="translate(2.830189, 2.830189)">
                        <mask id="mask-2" fill="white">
                            <use xlink:href="#path-1"></use>
                        </mask>
                        <g></g>
                        <g id="Colors/Microsoft-365/BG-Gradient-1" mask="url(#mask-2)" fill="url(#linearGradient-3)">
                            <rect id="Rectangle" x="0" y="0" width="94.3396226" height="94.3396226"></rect>
                        </g>
                    </g>
                    <g id="Border">
                        <g id="White-Border">
                            <use fill="black" fill-opacity="1" filter="url(#filter-5)" xlink:href="#path-4"></use>
                            <rect stroke="#F2F1F0" stroke-width="4" stroke-linejoin="square" x="2" y="2" width="96" height="96" rx="48"></rect>
                        </g>
                        <mask id="mask-7" fill="white">
                            <use xlink:href="#path-6"></use>
                        </mask>
                        <use id="Boarder" fill="#0078D4" fill-rule="nonzero" xlink:href="#path-6"></use>
                        <g id="Colors/Microsoft-365/Border" mask="url(#mask-7)" fill="#0076D7">
                            <g transform="translate(2.830189, 2.830189)" id="Microsoft-365/Border">
                                <rect x="0" y="0" width="94.3396226" height="94.3396226"></rect>
                            </g>
                        </g>
                    </g>
                </g>
                <g id="Group-2" transform="translate(23.000000, 26.000000)" fill-rule="nonzero">
                    <g id="Computer-w/-power-button" filter="url(#filter-8)">
                        <g id="Icon-compute-21-Virtual-Machine">
                            <rect id="Combined-Shape" fill="url(#linearGradient-9)" x="1.0658141e-13" y="2.13162821e-14" width="52.8909465" height="36.4285714" rx="0.6"></rect>
                            <path d="M37.4187792,47.8528232 C32.0081186,46.9716137 31.7953399,42.9432274 31.7953399,36.4285714 L21.0652097,36.4285714 C21.0652097,42.9432274 20.8828279,46.9716137 15.4721673,47.8528232 C13.9251593,48.0300568 12.757395,49.3885456 12.7667802,51 L40.1241663,51 C40.1335515,49.3885456 38.9657872,48.0300568 37.4187792,47.8528232 Z" id="Path" fill="url(#linearGradient-10)"></path>
                        </g>
                    </g>
                    <g id="noun_Webhooks_186514" transform="translate(12.437500, 5.000000)">
                        <g id="Group" transform="translate(0.562500, 0.000000)">
                            <g id="Path">
                                <path d="M21.7277428,19.2939023 L8.09130134,19.2939023 L8.09130134,20.7163719 C7.82640098,22.1745252 6.51346617,23.2823355 4.93368546,23.2823355 C3.16286282,23.2823355 1.72732746,21.8903911 1.72732746,20.1733406 C1.72732746,19.1138037 2.2739404,18.1780585 3.10864896,17.616772 L2.18919912,16.3431575 L2.18919912,16.3431575 C0.94104262,17.1856018 0.124148471,18.5869701 0.124148471,20.1733406 C0.124148471,22.7489163 2.27745152,24.8368329 4.93368546,24.8368329 C7.31578362,24.8368329 9.29340376,23.157643 9.67623078,20.9534334 L9.67623078,20.9534334 L21.6628813,20.9534334 C21.9404935,21.4165049 22.4576916,21.727838 23.0498826,21.727838 C23.9352939,21.727838 24.6530616,21.0318658 24.6530616,20.1733406 C24.6530616,19.3148154 23.9352939,18.6188432 23.0498826,18.6188432 C22.5011103,18.6188432 22.0167373,18.8861968 21.7277428,19.2939023 Z" fill="url(#linearGradient-11)"></path>
                                <path d="M3.49913769,19.5264664 C3.52683648,19.4597647 3.55961775,19.3941338 3.5976094,19.3300395 C3.89216327,18.8331087 4.42544261,18.554191 4.97462904,18.5515191 L10.986584,8.40897557 L10.986584,8.40897557 C9.21505311,6.98507384 8.70596274,4.48161849 9.89332692,2.47846094 C11.2167567,0.245752148 14.1465723,-0.519944679 16.4372531,0.768229196 C17.8436126,1.55910131 18.6820973,2.94027435 18.813632,4.40550134 L18.813632,4.40550134 L17.2228091,4.54134946 C17.1353274,3.56426648 16.5762937,2.64316455 15.6384925,2.11578815 C14.111372,1.25700557 12.1581616,1.76747011 11.2758751,3.25594264 C10.4118356,4.71363122 10.8953085,6.56871179 12.349993,7.45141429 L13.229093,7.94577983 L6.41979963,19.4334831 L6.41979963,19.4334831 C6.61329649,19.827118 6.63416451,20.2941021 6.44971635,20.7154502 C6.22465827,21.3088182 5.63838619,21.7318909 4.95059577,21.7318909 C4.06830923,21.7318909 3.35307467,21.0357101 3.35307467,20.1769275 C3.35307467,19.9447 3.40537557,19.7243627 3.49913769,19.5264664 Z" fill="url(#linearGradient-12)"></path>
                                <path d="M13.9016859,6.35050324 L20.6428265,17.7232286 L21.4456348,17.271766 L21.4592484,17.2947331 C21.4658747,17.2909464 21.4725199,17.2871791 21.4791842,17.2834314 C23.0073661,16.424052 24.9542936,16.9219815 25.8277685,18.3955882 C26.7012434,19.8691949 26.1704984,21.7604538 24.6423165,22.6198333 C23.7002256,23.149622 22.5989925,23.1635717 21.6882237,22.7510949 L21.0082307,24.1536605 L21.0082307,24.1536605 C22.3731659,24.7694756 24.0221246,24.7474014 25.4330996,23.9539338 C27.7253725,22.6648646 28.5214899,19.8279761 27.2112776,17.6175661 C26.0282961,15.6218024 23.5326713,14.8191197 21.3719078,15.6308698 L21.3719078,15.6308698 L15.3904604,5.5397942 C15.6481138,5.08215895 15.6626078,4.51135588 15.3771479,4.0297671 C14.9404104,3.29296378 13.9669467,3.04399901 13.2028557,3.47368875 C12.4387647,3.90337847 12.1733922,4.84900795 12.6101297,5.58581131 C12.8876973,6.05408517 13.38206,6.32531068 13.9016859,6.35050324 Z" fill="url(#linearGradient-13)"></path>
                            </g>
                        </g>
                    </g>
                </g>
            </g>
        </g>
    </g>
</svg>