<?xml version="1.0" encoding="UTF-8"?>
<svg width="101px" height="101px" viewBox="0 0 101 101" version="1.1" xmlns="http://www.w3.org/2000/svg" xmlns:xlink="http://www.w3.org/1999/xlink">
    <!-- Generator: Sketch 63.1 (92452) - https://sketch.com -->
    <title>Extending Microsoft Teams/MSTeams-Task-Oriented-Interactions-w-Messaging-Extensions</title>
    <desc>Created with Sketch.</desc>
    <defs>
        <rect id="path-1" x="0" y="0" width="94.3396226" height="94.3396226" rx="47.1698113"></rect>
        <linearGradient x1="50%" y1="0%" x2="50%" y2="100%" id="linearGradient-3">
            <stop stop-color="#99D3FF" offset="0%"></stop>
            <stop stop-color="#0FA6FF" offset="100%"></stop>
        </linearGradient>
        <rect id="path-4" x="0" y="0" width="100" height="100" rx="50"></rect>
        <filter x="-0.5%" y="-0.5%" width="102.0%" height="102.0%" filterUnits="objectBoundingBox" id="filter-5">
            <feOffset dx="1" dy="1" in="SourceAlpha" result="shadowOffsetOuter1"></feOffset>
            <feMorphology radius="4" operator="erode" in="SourceAlpha" result="shadowInner"></feMorphology>
            <feOffset dx="1" dy="1" in="shadowInner" result="shadowInner"></feOffset>
            <feComposite in="shadowOffsetOuter1" in2="shadowInner" operator="out" result="shadowOffsetOuter1"></feComposite>
            <feColorMatrix values="0 0 0 0 0   0 0 0 0 0   0 0 0 0 0  0 0 0 0.15 0" type="matrix" in="shadowOffsetOuter1"></feColorMatrix>
        </filter>
        <path d="M50,2.83018868 C76.0511674,2.83018868 97.1698113,23.9488326 97.1698113,50 C97.1698113,76.0511674 76.0511674,97.1698113 50,97.1698113 C23.9488326,97.1698113 2.83018868,76.0511674 2.83018868,50 C2.83018868,23.9488326 23.9488326,2.83018868 50,2.83018868 Z M50,6.60377358 C26.032926,6.60377358 6.60377358,26.032926 6.60377358,50 C6.60377358,73.967074 26.032926,93.3962264 50,93.3962264 C73.967074,93.3962264 93.3962264,73.967074 93.3962264,50 C93.3962264,26.032926 73.967074,6.60377358 50,6.60377358 Z" id="path-6"></path>
        <filter x="-24.5%" y="-20.0%" width="153.1%" height="143.3%" filterUnits="objectBoundingBox" id="filter-8">
            <feOffset dx="0" dy="2" in="SourceAlpha" result="shadowOffsetOuter1"></feOffset>
            <feGaussianBlur stdDeviation="2" in="shadowOffsetOuter1" result="shadowBlurOuter1"></feGaussianBlur>
            <feColorMatrix values="0 0 0 0 0   0 0 0 0 0   0 0 0 0 0  0 0 0 0.1 0" type="matrix" in="shadowBlurOuter1" result="shadowMatrixOuter1"></feColorMatrix>
            <feMerge>
                <feMergeNode in="shadowMatrixOuter1"></feMergeNode>
                <feMergeNode in="SourceGraphic"></feMergeNode>
            </feMerge>
        </filter>
        <linearGradient x1="50%" y1="100%" x2="50%" y2="0%" id="linearGradient-9">
            <stop stop-color="#D2EBFF" offset="0%"></stop>
            <stop stop-color="#F0FFFD" offset="100%"></stop>
        </linearGradient>
        <filter x="-8.1%" y="-8.1%" width="116.1%" height="116.1%" filterUnits="objectBoundingBox" id="filter-10">
            <feOffset dx="0" dy="1" in="SourceAlpha" result="shadowOffsetOuter1"></feOffset>
            <feColorMatrix values="0 0 0 0 0   0 0 0 0 0   0 0 0 0 0  0 0 0 0.19 0" type="matrix" in="shadowOffsetOuter1" result="shadowMatrixOuter1"></feColorMatrix>
            <feMerge>
                <feMergeNode in="shadowMatrixOuter1"></feMergeNode>
                <feMergeNode in="SourceGraphic"></feMergeNode>
            </feMerge>
        </filter>
        <linearGradient x1="50%" y1="0%" x2="50%" y2="100%" id="linearGradient-11">
            <stop stop-color="#7B82EA" offset="0%"></stop>
            <stop stop-color="#4B53BB" offset="100%"></stop>
        </linearGradient>
    </defs>
    <g id="Badges" stroke="none" stroke-width="1" fill="none" fill-rule="evenodd">
        <g id="Extending-Microsoft-Teams-" transform="translate(-160.000000, -320.000000)">
            <g id="Extending-Microsoft-Teams/MSTeams-Task-Oriented-Interactions-w-Messaging-Extensions" transform="translate(160.000000, 320.000000)">
                <g id="Badge-Plates/Circle">
                    <g id="BG" transform="translate(2.830189, 2.830189)">
                        <mask id="mask-2" fill="white">
                            <use xlink:href="#path-1"></use>
                        </mask>
                        <g></g>
                        <g id="Colors/Microsoft-365/BG-Gradient-1" mask="url(#mask-2)" fill="url(#linearGradient-3)">
                            <rect id="Rectangle" x="0" y="0" width="94.3396226" height="94.3396226"></rect>
                        </g>
                    </g>
                    <g id="Border">
                        <g id="White-Border">
                            <use fill="black" fill-opacity="1" filter="url(#filter-5)" xlink:href="#path-4"></use>
                            <rect stroke="#F2F1F0" stroke-width="4" stroke-linejoin="square" x="2" y="2" width="96" height="96" rx="48"></rect>
                        </g>
                        <mask id="mask-7" fill="white">
                            <use xlink:href="#path-6"></use>
                        </mask>
                        <use id="Boarder" fill="#0078D4" fill-rule="nonzero" xlink:href="#path-6"></use>
                        <g id="Colors/Microsoft-365/Border" mask="url(#mask-7)" fill="#0076D7">
                            <g transform="translate(2.830189, 2.830189)" id="Microsoft-365/Border">
                                <rect x="0" y="0" width="94.3396226" height="94.3396226"></rect>
                            </g>
                        </g>
                    </g>
                </g>
                <g id="Document" filter="url(#filter-8)" transform="translate(28.000000, 21.000000)">
                    <g id="Group" fill-rule="nonzero">
                        <path d="M23.2300085,0.0456989247 L1.9578191,0.0456989247 C1.02645133,0.0456989247 0.271428571,0.800315758 0.271428571,1.7311828 L0.271428571,47.2688172 C0.271428571,48.1996842 1.02645133,48.9543011 1.9578191,48.9543011 L38.585038,48.9543011 C39.5164058,48.9543011 40.2714286,48.1996842 40.2714286,47.2688172 L40.2714286,17.1370968 C40.2714286,16.2062297 39.5164058,15.4516129 38.585038,15.4516129 L26.4252747,15.4516129 C25.5102467,15.4516129 24.76847,14.710235 24.76847,13.7956989 L24.76847,1.7311828 C24.7864654,0.849564183 24.1100444,0.108501343 23.2300085,0.0456989247 Z" id="Path" fill="url(#linearGradient-9)"></path>
                        <path d="M40.5,16.5 L24,0 L24,13.3690702 C24,15.098235 25.3938305,16.5 27.1132075,16.5 L40.5,16.5 Z" id="Path" fill="#92C4FC"></path>
                    </g>
                    <path d="M30.4831461,24 L9.38202247,24 C8.61875254,24 8,24.5506898 8,25.23 C8,25.9093102 8.61875254,26.46 9.38202247,26.46 L30.6179775,26.46 C31.3812475,26.46 32,25.9093102 32,25.23 C32,24.5506898 31.3812475,24 30.6179775,24 L30.4831461,24 Z M30.2984801,31.015 L9.5690636,31.015 C9.03962838,30.9393986 8.5106484,31.1530533 8.21884931,31.5603508 C7.92705023,31.9676483 7.92705023,32.4923517 8.21884931,32.8996492 C8.5106484,33.3069467 9.03962838,33.5206014 9.5690636,33.445 L30.4309364,33.445 C30.9603716,33.5206014 31.4893516,33.3069467 31.7811507,32.8996492 C32.0729498,32.4923517 32.0729498,31.9676483 31.7811507,31.5603508 C31.4893516,31.1530533 30.9603716,30.9393986 30.4309364,31.015 L30.2984801,31.015 Z M30.4831461,38 L9.38202247,38 C8.61875254,38 8,38.5506898 8,39.23 C8,39.9093102 8.61875254,40.46 9.38202247,40.46 L30.6179775,40.46 C31.3812475,40.46 32,39.9093102 32,39.23 C32,38.5506898 31.3812475,38 30.6179775,38 L30.4831461,38 Z" id="Shape" fill="#83B9F9" fill-rule="nonzero"></path>
                    <g id="Chat-bubble" transform="translate(18.000000, 29.000000)">
                        <g id="Icon-iot-204-Notification-Hub-Namespaces" filter="url(#filter-10)">
                            <g id="Group" transform="translate(0.469203, 4.222830)" fill="url(#linearGradient-11)" fill-rule="nonzero">
                                <path d="M29.8341874,1.02497751 L29.8341874,19.9770616 C29.8341874,20.24931 29.7246695,20.5101614 29.5301235,20.7010178 C29.3355775,20.8918742 29.0723555,20.9967332 28.799588,20.9920393 L20.8735046,20.9920393 C20.7379197,20.9920393 20.6280065,21.1017271 20.6280065,21.2370339 L20.6280065,24.2994667 C20.6263607,24.4850678 20.5197702,24.6538087 20.3526799,24.7353297 C20.1855896,24.8168508 19.9866858,24.7971563 19.8389052,24.6844583 L15.0692267,21.0445382 L14.9114065,21.0445382 L1.05829612,21.0445382 C0.785528666,21.0492321 0.522306666,20.944373 0.32776063,20.7535167 C0.133214593,20.5626603 0.0236967222,20.3018089 0.0236967222,20.0295604 L0.0236967222,1.02497751 C0.0236967222,0.752729058 0.133214593,0.491877653 0.32776063,0.301021273 C0.522306666,0.110164892 0.785528666,0.00530583873 1.05829612,0.00984870956 L28.799588,0.00984870956 C29.0723555,0.00530583873 29.3355775,0.110164892 29.5301235,0.301021273 C29.7246695,0.491877653 29.8341874,0.752729058 29.8341874,1.02497751 Z" id="Path"></path>
                            </g>
                            <rect id="Rectangle" x="0" y="0" width="30.9674164" height="30.9674164"></rect>
                        </g>
                        <rect id="Rectangle" fill="#FFFFFF" x="5" y="9" width="21" height="2" rx="1"></rect>
                        <rect id="Rectangle-Copy" fill="#FFFFFF" x="5" y="14" width="21" height="2" rx="1"></rect>
                        <rect id="Rectangle-Copy" fill="#FFFFFF" x="5" y="19" width="11" height="2" rx="1"></rect>
                    </g>
                </g>
            </g>
        </g>
    </g>
</svg>