<?xml version="1.0" encoding="UTF-8"?>
<svg width="107px" height="107px" viewBox="0 0 107 107" version="1.1" xmlns="http://www.w3.org/2000/svg" xmlns:xlink="http://www.w3.org/1999/xlink">
    <!-- Generator: Sketch 60.1 (88133) - https://sketch.com -->
    <title>NA/rosoft-teams-task-modules </title>
    <desc>Created with Sketch.</desc>
    <defs>
        <rect id="path-1" x="0" y="0" width="96" height="96" rx="48"></rect>
        <rect id="path-3" x="0" y="0" width="100" height="100" rx="50"></rect>
        <filter x="-8.2%" y="-6.2%" width="116.3%" height="112.5%" filterUnits="objectBoundingBox" id="filter-5">
            <feOffset dx="0" dy="2" in="SourceAlpha" result="shadowOffsetOuter1"></feOffset>
            <feColorMatrix values="0 0 0 0 0   0 0 0 0 0   0 0 0 0 0  0 0 0 0.0964956975 0" type="matrix" in="shadowOffsetOuter1" result="shadowMatrixOuter1"></feColorMatrix>
            <feMerge>
                <feMergeNode in="shadowMatrixOuter1"></feMergeNode>
                <feMergeNode in="SourceGraphic"></feMergeNode>
            </feMerge>
        </filter>
        <circle id="path-6" cx="61.4794316" cy="65.0179816" r="16.9196003"></circle>
        <filter x="-3.0%" y="-3.0%" width="105.9%" height="111.8%" filterUnits="objectBoundingBox" id="filter-7">
            <feOffset dx="0" dy="2" in="SourceAlpha" result="shadowOffsetOuter1"></feOffset>
            <feColorMatrix values="0 0 0 0 0   0 0 0 0 0   0 0 0 0 0  0 0 0 0.102846372 0" type="matrix" in="shadowOffsetOuter1"></feColorMatrix>
        </filter>
        <linearGradient x1="78.4210223%" y1="-7.24023438%" x2="15.5786468%" y2="110.793945%" id="linearGradient-8">
            <stop stop-color="#FFFFFF" offset="0%"></stop>
            <stop stop-color="#000000" stop-opacity="0.5" offset="100%"></stop>
        </linearGradient>
        <rect id="path-9" x="-3" y="-3" width="106" height="106" rx="53"></rect>
        <filter x="-0.5%" y="-0.5%" width="101.9%" height="101.9%" filterUnits="objectBoundingBox" id="filter-10">
            <feOffset dx="1" dy="1" in="SourceAlpha" result="shadowOffsetOuter1"></feOffset>
            <feMorphology radius="4" operator="erode" in="SourceAlpha" result="shadowInner"></feMorphology>
            <feOffset dx="1" dy="1" in="shadowInner" result="shadowInner"></feOffset>
            <feComposite in="shadowOffsetOuter1" in2="shadowInner" operator="out" result="shadowOffsetOuter1"></feComposite>
            <feColorMatrix values="0 0 0 0 0   0 0 0 0 0   0 0 0 0 0  0 0 0 0.15 0" type="matrix" in="shadowOffsetOuter1"></feColorMatrix>
        </filter>
    </defs>
    <g id="Badges" stroke="none" stroke-width="1" fill="none" fill-rule="evenodd">
        <g id="NA/72" transform="translate(-47.000000, -257.000000)">
            <g id="NA/rosoft-teams-task-modules-" transform="translate(50.000000, 260.000000)">
                <g id="Mask" transform="translate(2.000000, 2.000000)">
                    <mask id="mask-2" fill="white">
                        <use xlink:href="#path-1"></use>
                    </mask>
                    <use id="BG" fill="#55A2FF" xlink:href="#path-1"></use>
                    <g id="Circle-" mask="url(#mask-2)">
                        <g transform="translate(-2.000000, -2.000000)">
                            <mask id="mask-4" fill="white">
                                <use xlink:href="#path-3"></use>
                            </mask>
                            <g id="BG" stroke="none" fill="none"></g>
                            <g id="Color/Blue" stroke="none" fill="none" mask="url(#mask-4)" fill-rule="evenodd">
                                <rect id="Rectangle" fill="#55A2FF" x="0" y="0" width="100" height="100"></rect>
                            </g>
                        </g>
                    </g>
                    <g id="Clipboard" filter="url(#filter-5)" mask="url(#mask-2)">
                        <g transform="translate(20.679432, 14.062418)">
                            <path d="M4.27393336,64 C2.07393336,64 0.273933363,62.2 0.273933363,60 L0.273933363,10 C0.273933363,7.8 2.07393336,6 4.27393336,6 L44.2739334,6 C46.4739334,6 48.2739334,7.8 48.2739334,10 L48.2739334,60 C48.2739334,62.2 46.4739334,64 44.2739334,64 L4.27393336,64" id="Fill-18" fill="#30404D" fill-rule="evenodd"></path>
                            <path d="M44.2739334,6 L24.2739334,6 L24.2739334,64 L44.2739334,64 C46.4739334,64 48.2739334,62.2 48.2739334,60 L48.2739334,10 C48.2739334,7.8 46.4739334,6 44.2739334,6" id="Fill-19" fill="#182A37" fill-rule="evenodd"></path>
                            <path d="M3.27393336,59 L3.27393336,11 C3.27393336,9.899 4.17393336,9 5.27393336,9 L43.2739334,9 C44.3739334,9 45.2739334,9.899 45.2739334,11 L45.2739334,59 C45.2739334,60.101 44.3739334,61 43.2739334,61 L5.27393336,61 C4.17393336,61 3.27393336,60.101 3.27393336,59 Z" id="Fill-20" fill="#E1E4E1" fill-rule="evenodd"></path>
                            <polygon id="Fill-26" fill="#182A37" fill-rule="evenodd" points="13.2739334 9 14.2739334 9 14.2739334 6 13.2739334 6"></polygon>
                            <path d="M12.6041291,55.4478722 C9.65848809,55.4478722 7.27079578,53.0597697 7.27079578,50.1145389 C7.27079578,47.1693081 9.65848809,44.7812056 12.6041291,44.7812056 C15.5497701,44.7812056 17.9374625,47.1693081 17.9374625,50.1145389 C17.9374625,53.0597697 15.5497701,55.4478722 12.6041291,55.4478722 Z" id="Fill-25" fill="#C5CCCD" fill-rule="evenodd"></path>
                            <g id="Group-70" stroke-width="1" fill="none" fill-rule="evenodd" transform="translate(7.000000, 30.500000)">
                                <path d="M5.60412912,10.9478722 C2.65848809,10.9478722 0.270795783,8.55976967 0.270795783,5.6145389 C0.270795783,2.66930814 2.65848809,0.281205571 5.60412912,0.281205571 C8.54977014,0.281205571 10.9374625,2.66930814 10.9374625,5.6145389 C10.9374625,8.55976967 8.54977014,10.9478722 5.60412912,10.9478722 Z" id="Fill-25" fill="#72C472"></path>
                                <path d="M8.05409032,4.13513136 C7.79355819,3.87478718 7.37090235,3.87478718 7.11070381,4.13513136 L4.91169254,6.33255626 L4.11741981,5.54585681 C4.09840531,5.51918903 4.07905721,5.49252126 4.05470529,5.46852026 C3.79417316,5.20817607 3.37151733,5.20817607 3.11131879,5.46852026 C2.85312177,5.72553096 2.85145383,6.14221499 3.10431344,6.40322587 L3.09630733,6.4112262 L4.44200082,7.74461509 C4.70253295,8.00495927 5.12518878,8.00495927 5.38572091,7.74461509 L8.05208879,5.07950405 C8.05275597,5.0791707 8.05342314,5.078504 8.05409032,5.07783731 C8.31462245,4.81749313 8.31462245,4.39480885 8.05409032,4.13513136" id="Fill-26" fill="#FFFFFF"></path>
                            </g>
                            <g id="Group-70" stroke-width="1" fill="none" fill-rule="evenodd" transform="translate(7.000000, 16.500000)">
                                <path d="M5.60412912,10.9478722 C2.65848809,10.9478722 0.270795783,8.55976967 0.270795783,5.6145389 C0.270795783,2.66930814 2.65848809,0.281205571 5.60412912,0.281205571 C8.54977014,0.281205571 10.9374625,2.66930814 10.9374625,5.6145389 C10.9374625,8.55976967 8.54977014,10.9478722 5.60412912,10.9478722 Z" id="Fill-25" fill="#72C472"></path>
                                <path d="M8.05409032,4.13513136 C7.79355819,3.87478718 7.37090235,3.87478718 7.11070381,4.13513136 L4.91169254,6.33255626 L4.11741981,5.54585681 C4.09840531,5.51918903 4.07905721,5.49252126 4.05470529,5.46852026 C3.79417316,5.20817607 3.37151733,5.20817607 3.11131879,5.46852026 C2.85312177,5.72553096 2.85145383,6.14221499 3.10431344,6.40322587 L3.09630733,6.4112262 L4.44200082,7.74461509 C4.70253295,8.00495927 5.12518878,8.00495927 5.38572091,7.74461509 L8.05208879,5.07950405 C8.05275597,5.0791707 8.05342314,5.078504 8.05409032,5.07783731 C8.31462245,4.81749313 8.31462245,4.39480885 8.05409032,4.13513136" id="Fill-26" fill="#FFFFFF"></path>
                            </g>
                            <rect id="Rectangle" fill="#C5CCCD" fill-rule="nonzero" x="22" y="18" width="19" height="4" rx="2"></rect>
                            <rect id="Rectangle" fill="#C5CCCD" fill-rule="nonzero" x="22" y="34" width="17" height="4" rx="2"></rect>
                            <rect id="Rectangle" fill="#C5CCCD" fill-rule="nonzero" x="22" y="26" width="19" height="4" rx="2"></rect>
                            <rect id="Rectangle" fill="#C5CCCD" fill-rule="nonzero" x="22" y="42" width="19" height="4" rx="2"></rect>
                            <rect id="Rectangle" fill="#C5CCCD" fill-rule="nonzero" x="22" y="50" width="14" height="4" rx="2"></rect>
                            <g id="Top" stroke-width="1" fill="none" fill-rule="evenodd" transform="translate(14.272933, 0.000000)">
                                <path d="M19.001,11 L1.001,11 C0.451,11 0.001,10.55 0.001,10 L0.001,11 C0.001,11.55 0.451,12 1.001,12 L19.001,12 C19.551,12 20.001,11.55 20.001,11 L20.001,10 C20.001,10.55 19.551,11 19.001,11" id="Fill-22" fill="#546670"></path>
                                <path d="M10.001,2 C11.104,2 12.001,2.897 12.001,4 L8.001,4 C8.001,2.897 8.897,2 10.001,2 Z M19.001,4 L14.001,4 C14.001,1.791 12.21,0 10.001,0 C7.792,0 6.001,1.791 6.001,4 L1.001,4 C0.451,4 0.001,4.45 0.001,5 L0.001,10 C0.001,10.55 0.451,11 1.001,11 L19.001,11 C19.551,11 20.001,10.55 20.001,10 L20.001,5 C20.001,4.45 19.551,4 19.001,4 L19.001,4 Z" id="Fill-24" fill="#ADBDC4"></path>
                                <path d="M20.001,10 L20.001,5 C20.001,4.45 19.551,4 19.001,4 L15.001,4 L12.001,11 L19.001,11 C19.551,11 20.001,10.55 20.001,10" id="Fill-33" fill="#8BA6B1"></path>
                                <path d="M10.686,0.069 L9.852,2.015 C9.902,2.011 9.95,2 10.001,2 C11.104,2 12.001,2.897 12.001,4 L9.001,4 L6.001,11 L10.001,11 L13.676,2.424 C13.151,1.202 12.033,0.303 10.686,0.069" id="Fill-34" fill="#8BA6B1"></path>
                            </g>
                        </g>
                    </g>
                    <g id="Oval" mask="url(#mask-2)">
                        <use fill="black" fill-opacity="1" filter="url(#filter-7)" xlink:href="#path-6"></use>
                        <use fill="#E9EBED" fill-rule="evenodd" xlink:href="#path-6"></use>
                    </g>
                    <g id="Group-15" mask="url(#mask-2)" fill-rule="nonzero">
                        <g transform="translate(49.726079, 54.135247)">
                            <circle id="Head" fill="#7B83EB" cx="12.4613956" cy="3.39894005" r="3.39856243"></circle>
                            <circle id="Head-2" fill="#5059C9" cx="20.0137565" cy="4.53179419" r="2.64332633"></circle>
                            <path d="M22.3361075,7.55273857 L16.6967596,7.55273857 C16.4437555,7.55273857 16.2383313,7.76193897 16.2383313,8.02022972 L16.2383313,13.951854 C16.2058561,15.7209946 17.3927097,17.2714943 19.0836833,17.6702589 C20.1421467,17.8968298 21.2444138,17.6249448 22.0842363,16.9301276 C22.9240588,16.2353103 23.4119413,15.1919517 23.412319,14.089307 L23.412319,8.649719 C23.412319,8.04401965 22.9304783,7.55273857 22.3361075,7.55273857 L22.3361075,7.55273857 Z" id="Path" fill="#5059C9"></path>
                            <path d="M18.1256678,8.65613851 L18.1256678,15.6413172 C18.1275544,18.3035244 16.349351,20.634183 13.7909887,21.3237135 C11.2330041,22.0128665 8.53303503,20.8886975 7.20986139,18.5825841 C7.0688763,18.3473836 6.94641003,18.1015672 6.84357188,17.8473618 C6.74784544,17.6075741 6.66725455,17.3620178 6.60227395,17.1121395 C6.48168047,16.6311379 6.42030342,16.1372049 6.41950554,15.6413172 L6.41950554,8.65613851 C6.41906277,8.3638606 6.53448283,8.08332197 6.74048215,7.87597962 C6.9458833,7.66915626 7.22537644,7.55292735 7.51686486,7.55311596 L17.0283082,7.55311596 C17.3197967,7.55292735 17.5992898,7.66915626 17.804691,7.87597962 C18.0104928,8.08291431 18.1260439,8.36348452 18.1256678,8.65613851 Z" id="Path" fill="#7B83EB"></path>
                            <path d="M0.975387417,4.90941224 L10.7307721,4.90941224 C11.2694637,4.90941224 11.7061595,5.34610806 11.7061595,5.88479966 L11.7061595,15.6401843 C11.7061595,16.1788759 11.2694637,16.6155717 10.7307721,16.6155717 L0.975387417,16.6155717 C0.436695822,16.6155717 1.77635684e-15,16.1788759 1.77635684e-15,15.6401843 L1.77635684e-15,5.88442204 C1.77635684e-15,5.34573044 0.436695822,4.90903462 0.975387417,4.90903462 L0.975387417,4.90941224 Z" id="path-4" fill="#000000"></path>
                            <path d="M0.975387417,4.90941224 L10.7307721,4.90941224 C11.2694637,4.90941224 11.7061595,5.34610806 11.7061595,5.88479966 L11.7061595,15.6401843 C11.7061595,16.1788759 11.2694637,16.6155717 10.7307721,16.6155717 L0.975387417,16.6155717 C0.436695822,16.6155717 1.77635684e-15,16.1788759 1.77635684e-15,15.6401843 L1.77635684e-15,5.88442204 C1.77635684e-15,5.34573044 0.436695822,4.90903462 0.975387417,4.90903462 L0.975387417,4.90941224 Z" id="path-4" fill="#4B53BC"></path>
                            <polygon id="Path" fill="#FFFFFF" points="9.06283315 8.59005535 6.79410392 8.59005535 6.79410392 14.3498634 5.30289025 14.3498634 5.30289025 8.59005535 3.02094438 8.59005535 3.02094438 7.17512053 9.06283315 7.17512053"></polygon>
                        </g>
                    </g>
                </g>
                <g id="Azure-Border">
                    <path d="M50,0 C74.5263677,-4.50542066e-15 94.9281966,17.6592499 99.1842495,40.9565123 L94.2027317,73.3905473 C85.8096395,89.2186645 69.1638777,100 50,100 C30.9551233,100 14.3971863,89.3521454 5.95457608,73.6848234 L0.0261464987,48.3675131 C0.887696267,21.508872 22.932015,4.97230817e-15 50,0 Z" id="Combined-Shape" fill="url(#linearGradient-8)" fill-rule="evenodd" opacity="0.400000006" style="mix-blend-mode: overlay;"></path>
                    <g>
                        <use fill="black" fill-opacity="1" filter="url(#filter-10)" xlink:href="#path-9"></use>
                        <rect stroke="#F2F1F0" stroke-width="4" stroke-linejoin="square" x="-1" y="-1" width="102" height="102" rx="51"></rect>
                    </g>
                    <rect stroke="#0078D4" stroke-width="4" x="2" y="2" width="96" height="96" rx="48"></rect>
                </g>
            </g>
        </g>
    </g>
</svg>