<svg width="100" height="100" viewBox="0 0 100 100" fill="none" xmlns="https://www.w3.org/2000/svg">
<g clip-path="url(#clip0)">
<path d="M49.6401 96.4481C40.382 96.4481 31.3317 93.7028 23.6339 88.5592C15.936 83.4157 9.93624 76.105 6.3933 67.5516C2.85036 58.9981 1.92337 49.5862 3.72954 40.506C5.53571 31.4257 9.99394 23.085 16.5404 16.5385C23.0869 9.99198 31.4277 5.53376 40.5079 3.72759C49.5882 1.92141 59.0001 2.84841 67.5535 6.39135C76.1069 9.93428 83.4176 15.934 88.5612 23.6319C93.7047 31.3298 96.4501 40.38 96.4501 49.6381C96.4505 55.7854 95.24 61.8726 92.8878 67.5521C90.5355 73.2315 87.0875 78.392 82.7407 82.7388C78.3939 87.0856 73.2335 90.5335 67.554 92.8858C61.8746 95.2381 55.7874 96.4486 49.6401 96.4481V96.4481Z" fill="url(#paint0_linear)"/>
<path fill-rule="evenodd" clip-rule="evenodd" d="M95.54 49.64C95.54 58.7182 92.848 67.5925 87.8045 75.1407C82.7609 82.6889 75.5923 88.572 67.2052 92.0461C58.818 95.5201 49.5891 96.4291 40.6854 94.658C31.7816 92.887 23.603 88.5154 17.1838 82.0962C10.7646 75.677 6.39302 67.4984 4.62196 58.5946C2.85089 49.6909 3.75987 40.462 7.23393 32.0748C10.708 23.6877 16.5911 16.5191 24.1393 11.4755C31.6875 6.43199 40.5618 3.74 49.64 3.74C55.6677 3.73998 61.6363 4.9272 67.2052 7.23388C72.774 9.54057 77.834 12.9215 82.0963 17.1837C86.3585 21.446 89.7394 26.5059 92.0461 32.0748C94.3528 37.6437 95.54 43.6123 95.54 49.64V49.64ZM49.64 3.62732e-07C59.4579 3.62732e-07 69.0553 2.91134 77.2185 8.36585C85.3818 13.8204 91.7442 21.5731 95.5014 30.6436C99.2585 39.7141 100.242 49.6951 98.3262 59.3243C96.4108 68.9535 91.6831 77.7985 84.7408 84.7408C77.7985 91.6831 68.9535 96.4108 59.3243 98.3262C49.6951 100.242 39.7141 99.2585 30.6436 95.5014C21.5731 91.7442 13.8204 85.3818 8.36585 77.2185C2.91134 69.0553 3.62732e-07 59.4579 3.62732e-07 49.64C-0.000787738 43.121 1.28265 36.6656 3.77702 30.6427C6.27138 24.6197 9.9278 19.1471 14.5375 14.5375C19.1471 9.9278 24.6197 6.27138 30.6427 3.77702C36.6656 1.28265 43.121 -0.000787738 49.64 3.62732e-07V3.62732e-07Z" fill="#F2F1F0"/>
<path fill-rule="evenodd" clip-rule="evenodd" d="M92.7296 49.6386C92.7296 58.161 90.2024 66.492 85.4676 73.5781C80.7328 80.6643 74.0031 86.1872 66.1294 89.4486C58.2558 92.71 49.5918 93.5633 41.2332 91.9007C32.8745 90.238 25.1966 86.1341 19.1704 80.1079C13.1441 74.0816 9.0402 66.4037 7.37756 58.0451C5.71493 49.6864 6.56825 41.0225 9.82963 33.1488C13.091 25.2751 18.614 18.5454 25.7001 13.8106C32.7862 9.07581 41.1172 6.54862 49.6396 6.54862C55.2984 6.54828 60.9018 7.6626 66.1298 9.82795C71.3579 11.9933 76.1083 15.1673 80.1096 19.1686C84.1109 23.17 87.2849 27.9203 89.4503 33.1484C91.6156 38.3765 92.7299 43.9799 92.7296 49.6386V49.6386ZM49.6396 2.80862C58.9017 2.80862 67.9558 5.55515 75.657 10.7009C83.3581 15.8466 89.3604 23.1605 92.9049 31.7176C96.4493 40.2746 97.3767 49.6906 95.5698 58.7747C93.7628 67.8588 89.3027 76.2031 82.7534 82.7524C76.2041 89.3017 67.8598 93.7619 58.7757 95.5688C49.6916 97.3757 40.2756 96.4484 31.7185 92.9039C23.1615 89.3594 15.8476 83.3571 10.7019 75.656C5.55613 67.9548 2.8096 58.9007 2.8096 49.6386C2.81079 37.2189 7.74503 25.3082 16.5271 16.5261C25.3092 7.74403 37.2199 2.80979 49.6396 2.80859V2.80862Z" fill="#0078D4"/>
<path fill-rule="evenodd" clip-rule="evenodd" d="M92.7295 49.6386C92.7295 58.161 90.2023 66.492 85.4675 73.5781C80.7327 80.6642 74.003 86.1872 66.1293 89.4486C58.2556 92.7099 49.5917 93.5633 41.233 91.9006C32.8744 90.238 25.1965 86.1341 19.1702 80.1078C13.144 74.0816 9.04008 66.4037 7.37744 58.045C5.7148 49.6864 6.56813 41.0224 9.82951 33.1488C13.0909 25.2751 18.6138 18.5454 25.7 13.8106C32.7861 9.07578 41.1171 6.54859 49.6395 6.54859C55.2982 6.54825 60.9016 7.66257 66.1297 9.82792C71.3578 11.9933 76.1081 15.1673 80.1095 19.1686C84.1108 23.1699 87.2848 27.9203 89.4501 33.1484C91.6155 38.3764 92.7298 43.9798 92.7295 49.6386V49.6386ZM49.6395 2.80859C58.9016 2.80859 67.9557 5.55513 75.6568 10.7009C83.358 15.8466 89.3603 23.1605 92.9048 31.7175C96.4492 40.2746 97.3766 49.6905 95.5696 58.7747C93.7627 67.8588 89.3026 76.2031 82.7533 82.7524C76.204 89.3017 67.8597 93.7618 58.7756 95.5688C49.6914 97.3757 40.2755 96.4483 31.7184 92.9039C23.1614 89.3594 15.8475 83.3571 10.7018 75.656C5.55601 67.9548 2.80948 58.9007 2.80948 49.6386C2.81067 37.2189 7.74492 25.3082 16.527 16.5261C25.3091 7.74403 37.2198 2.80979 49.6395 2.80859V2.80859Z" fill="#0078D4"/>
<path fill-rule="evenodd" clip-rule="evenodd" d="M31.1279 41.8086C30.2359 41.8112 29.3812 42.1667 28.7505 42.7974C28.1198 43.4281 27.7643 44.2828 27.7617 45.1748V68.7383H71.5224V45.1748C71.5198 44.2828 71.1643 43.4281 70.5336 42.7974C69.9029 42.1667 69.0482 41.8112 68.1562 41.8086H31.1279ZM68.1562 43.4917C68.6024 43.4923 69.0302 43.6698 69.3457 43.9853C69.6612 44.3008 69.8387 44.7286 69.8393 45.1748V67.0552H29.4448V45.1748C29.4452 44.7286 29.6227 44.3007 29.9382 43.9852C30.2538 43.6696 30.6816 43.4921 31.1279 43.4917H68.1562Z" fill="#1F56A3"/>
<path fill-rule="evenodd" clip-rule="evenodd" d="M29.4448 45.1753C29.4452 44.729 29.6227 44.3012 29.9382 43.9856C30.2538 43.6701 30.6816 43.4926 31.1279 43.4922H68.1562C68.6024 43.4928 69.0302 43.6703 69.3457 43.9858C69.6612 44.3013 69.8387 44.7291 69.8393 45.1753V67.0557H29.4448V45.1753Z" fill="#0078D4"/>
<path d="M66.8393 45.4922H32.4448C31.8925 45.4922 31.4448 45.9399 31.4448 46.4922V64.0557C31.4448 64.6079 31.8925 65.0557 32.4448 65.0557H66.8393C67.3916 65.0557 67.8393 64.6079 67.8393 64.0557V46.4922C67.8393 45.9399 67.3916 45.4922 66.8393 45.4922Z" fill="#1B93EB"/>
<path fill-rule="evenodd" clip-rule="evenodd" d="M22.7123 68.7383V69.5798C22.715 70.4718 23.0704 71.3265 23.7012 71.9572C24.3319 72.5879 25.1866 72.9434 26.0786 72.946H73.2056C74.0975 72.9434 74.9522 72.5879 75.5829 71.9572C76.2137 71.3265 76.5691 70.4718 76.5718 69.5798V68.7383H22.7123Z" fill="#0078D4"/>
<path fill-rule="evenodd" clip-rule="evenodd" d="M47.9586 71.2629H23.1824C23.4758 71.7722 23.8976 72.1956 24.4057 72.4909C24.9138 72.7862 25.4905 72.9432 26.0782 72.946H73.2052C74.0972 72.9434 74.9519 72.5879 75.5826 71.9572C76.2133 71.3265 76.5688 70.4718 76.5714 69.5798V68.7383H49.6417V69.5798C49.6418 69.8009 49.5983 70.0198 49.5137 70.224C49.4292 70.4282 49.3052 70.6138 49.1489 70.7701C48.9926 70.9264 48.807 71.0504 48.6028 71.1349C48.3985 71.2195 48.1797 71.263 47.9586 71.2629V71.2629Z" fill="#1F56A3"/>
<path fill-rule="evenodd" clip-rule="evenodd" d="M46.2758 70.4214H53.0083C53.4546 70.4212 53.8826 70.2438 54.1982 69.9282C54.5138 69.6126 54.6912 69.1846 54.6914 68.7383H44.5927C44.5928 69.1847 44.7701 69.6128 45.0857 69.9284C45.4014 70.244 45.8295 70.4214 46.2758 70.4214V70.4214Z" fill="#003067"/>
<path opacity="0.2" fill-rule="evenodd" clip-rule="evenodd" d="M33.9936 41.8086V56.5868C33.9952 57.9124 34.5225 59.1833 35.4598 60.1206C36.3972 61.0579 37.668 61.5852 38.9936 61.5868H60.2846C61.6102 61.5852 62.8811 61.0579 63.8184 60.1206C64.7558 59.1833 65.2831 57.9124 65.2846 56.5868V41.8086H33.9936Z" fill="#003067"/>
<path opacity="0.2" d="M62.1273 72.9457H71.5224V58.4141H68.0073C67.3388 58.4144 66.6827 58.5939 66.1071 58.9338C65.5316 59.2738 65.0577 59.7619 64.7348 60.3472C64.1391 61.4287 63.5053 62.5239 62.851 63.6011C62.1567 64.7456 61.477 65.9165 60.8315 67.0821C60.5199 67.6501 60.3602 68.2889 60.3679 68.9367C60.3756 69.5845 60.5504 70.2194 60.8755 70.7798C61.2981 71.5026 61.7119 72.224 62.1273 72.9457Z" fill="#003067"/>
<path d="M60.2851 32.2969H38.9938C37.337 32.2969 35.9938 33.64 35.9938 35.2969V56.5882C35.9938 58.245 37.337 59.5882 38.9938 59.5882H60.2851C61.9419 59.5882 63.2851 58.245 63.2851 56.5882V35.2969C63.2851 33.64 61.9419 32.2969 60.2851 32.2969Z" fill="white"/>
<path d="M58.3972 43.5077L53.6978 43.5053L53.101 44.264V49.292C53.2532 50.0054 53.6456 50.6449 54.2126 51.1038C54.7796 51.5626 55.487 51.813 56.2164 51.813C56.9458 51.813 57.6532 51.5626 58.2202 51.1038C58.7872 50.6449 59.1796 50.0054 59.3318 49.292V44.264C59.3057 44.0408 59.1933 43.8367 59.0187 43.6953C58.844 43.554 58.6209 43.4866 58.3972 43.5077V43.5077Z" fill="#5059C9"/>
<path d="M56.5625 42.8101C56.9733 42.8101 57.3749 42.6883 57.7164 42.4601C58.058 42.2319 58.3242 41.9075 58.4814 41.528C58.6386 41.1485 58.6797 40.7309 58.5995 40.328C58.5194 39.9251 58.3216 39.555 58.0311 39.2646C57.7407 38.9741 57.3706 38.7763 56.9677 38.6962C56.5648 38.616 56.1472 38.6571 55.7677 38.8143C55.3882 38.9715 55.0638 39.2378 54.8356 39.5793C54.6074 39.9208 54.4856 40.3224 54.4856 40.7332C54.4856 41.0059 54.5393 41.276 54.6437 41.528C54.7481 41.78 54.901 42.0089 55.0939 42.2018C55.2868 42.3947 55.5157 42.5476 55.7677 42.652C56.0197 42.7564 56.2898 42.8101 56.5625 42.8101V42.8101Z" fill="#5059C9"/>
<path d="M45.4856 50.9497V44.2918C45.4856 44.1883 45.506 44.0858 45.5456 43.9903C45.5851 43.8947 45.6432 43.8078 45.7163 43.7347C45.7895 43.6615 45.8763 43.6035 45.9719 43.5639C46.0675 43.5243 46.17 43.5039 46.2734 43.5039H53.6978C53.8012 43.5039 53.9037 43.5243 53.9992 43.5639C54.0948 43.6034 54.1817 43.6615 54.2548 43.7346C54.328 43.8078 54.386 43.8946 54.4256 43.9902C54.4652 44.0858 54.4856 44.1882 54.4856 44.2917V50.9497C54.4856 52.0963 54.0301 53.196 53.2193 54.0068C52.4085 54.8176 51.3088 55.2731 50.1621 55.2731H49.8091C48.6624 55.2731 47.5627 54.8176 46.7519 54.0068C45.9411 53.196 45.4856 52.0963 45.4856 50.9497V50.9497Z" fill="#7B83EB"/>
<path d="M50.3318 42.8119C50.8795 42.8119 51.4149 42.6495 51.8703 42.3452C52.3257 42.0409 52.6806 41.6084 52.8902 41.1024C53.0998 40.5964 53.1547 40.0396 53.0478 39.5024C52.941 38.9652 52.6772 38.4718 52.2899 38.0845C51.9026 37.6972 51.4092 37.4335 50.872 37.3266C50.3348 37.2198 49.778 37.2746 49.272 37.4842C48.766 37.6938 48.3335 38.0488 48.0292 38.5042C47.7249 38.9596 47.5625 39.495 47.5625 40.0427C47.5625 40.7771 47.8543 41.4815 48.3736 42.0008C48.893 42.5202 49.5973 42.8119 50.3318 42.8119Z" fill="#7B83EB"/>
<path opacity="0.5" d="M45.5721 51.8116H48.409C49.4708 51.8116 50.3317 51.3917 50.3317 50.3205V43.5039H46.2844C45.8432 43.5039 45.4856 45.2462 45.4856 45.6873V50.9496C45.4856 51.2391 45.5145 51.5279 45.5721 51.8116Z" fill="black"/>
<path opacity="0.5" d="M50.285 42.8048C50.2248 42.6067 50.1028 42.4331 49.9369 42.3094C49.7709 42.1857 49.5697 42.1183 49.3627 42.1172H48.5177C49.0064 42.549 49.6329 42.7928 50.285 42.8048Z" fill="black"/>
<path d="M48.6702 41.4258H40.9164C40.7891 41.4258 40.6631 41.4508 40.5455 41.4996C40.4279 41.5483 40.321 41.6197 40.231 41.7097C40.141 41.7997 40.0696 41.9065 40.0209 42.0241C39.9722 42.1417 39.9471 42.2677 39.9471 42.395V50.1489C39.9471 50.2762 39.9722 50.4022 40.0209 50.5198C40.0696 50.6374 40.141 50.7442 40.231 50.8342C40.321 50.9242 40.4279 50.9956 40.5455 51.0443C40.6631 51.093 40.7891 51.1181 40.9164 51.1181H48.6702C48.9273 51.1181 49.1738 51.016 49.3556 50.8342C49.5373 50.6525 49.6395 50.4059 49.6395 50.1489V42.395C49.6395 42.138 49.5373 41.8914 49.3556 41.7097C49.1738 41.5279 48.9273 41.4258 48.6702 41.4258V41.4258Z" fill="#4B53BC"/>
<path d="M47.4856 44.3035H45.3318V49.6881H44.2549V44.3035H42.101V43.2266H47.4856L47.4856 44.3035Z" fill="white"/>
<path d="M68.001 77.3862C67.696 77.3858 67.3965 77.3054 67.1323 77.1531C66.8681 77.0007 66.6485 76.7816 66.4955 76.5178C66.0825 75.8027 65.0079 73.94 64.4714 73.0035C63.8554 71.928 63.2324 70.8503 62.6024 69.7704C62.4512 69.5097 62.3698 69.2143 62.3662 68.9128C62.3626 68.6114 62.4368 68.3141 62.5818 68.0498C63.2142 66.9076 63.88 65.7603 64.5606 64.6392C65.2233 63.5479 65.8713 62.4287 66.4867 61.3126C66.6367 61.0406 66.8568 60.8137 67.1243 60.6557C67.3917 60.4976 67.6966 60.4142 68.0072 60.4141H75.7742C76.0857 60.4142 76.3914 60.4981 76.6594 60.6571C76.9273 60.8161 77.1475 61.0442 77.2969 61.3176C77.5783 61.8308 77.867 62.3382 78.1552 62.8253L79.229 64.6427C79.5866 65.2476 79.9467 65.8552 80.3093 66.4655C80.6227 66.992 80.9279 67.5282 81.2169 68.0592C81.3589 68.3222 81.4311 68.6173 81.4266 68.9162C81.4221 69.2151 81.341 69.5078 81.1911 69.7665C80.5604 70.8526 79.9361 71.9322 79.3182 73.0055C78.7817 73.938 77.7006 75.8049 77.2862 76.5202C77.133 76.7834 76.9135 77.0018 76.6496 77.1538C76.3857 77.3057 76.0866 77.3859 75.7821 77.3862L68.001 77.3862Z" fill="white"/>
<path d="M80.1987 68.6142C80.246 68.702 80.27 68.8005 80.2684 68.9002C80.2667 68.9999 80.2394 69.0976 80.1891 69.1837C79.5568 70.272 78.9316 71.3534 78.3133 72.4277C77.7771 73.3596 76.697 75.2247 76.283 75.9394C76.2321 76.0272 76.159 76.1 76.0711 76.1505C75.9831 76.201 75.8835 76.2275 75.782 76.2273H68.001C67.8994 76.2275 67.7996 76.201 67.7116 76.1503C67.6236 76.0996 67.5505 76.0266 67.4997 75.9387C67.0872 75.2242 66.0133 73.3634 65.4774 72.4277C64.86 71.3497 64.2355 70.2694 63.6041 69.1867C63.5532 69.0996 63.5258 69.0009 63.5245 68.9001C63.5232 68.7992 63.5481 68.6998 63.5967 68.6115C64.225 67.4765 64.8767 66.3532 65.5518 65.2416C66.2252 64.1327 66.8753 63.0099 67.5022 61.8731C67.5519 61.7826 67.625 61.7071 67.7138 61.6546C67.8026 61.602 67.9039 61.5743 68.0071 61.5742H75.7741C75.8776 61.5744 75.9792 61.6024 76.0682 61.6553C76.1571 61.7082 76.2302 61.7841 76.2798 61.875C76.5644 62.3946 76.8568 62.9083 77.1569 63.4162L78.2307 65.2333C78.5886 65.8391 78.9493 66.4476 79.3127 67.0588C79.6199 67.5753 79.9152 68.0937 80.1987 68.6142ZM76.207 68.2648L75.5875 62.4581L69.9295 64.5478C69.94 64.5826 69.9455 64.6188 69.946 64.6551V64.7708L75.9923 68.3638C76.0596 68.3221 76.1317 68.2889 76.207 68.2648V68.2648ZM69.8717 72.4856L75.6784 69.099C75.6687 69.0556 75.6632 69.0113 75.6619 68.9669C75.662 68.9055 75.6703 68.8443 75.6866 68.7851L69.7147 65.2416C69.6382 65.3051 69.5517 65.3553 69.4587 65.3903L69.6156 72.3286C69.7114 72.3617 69.7988 72.4152 69.8717 72.4855L69.8717 72.4856ZM68.9548 72.4277C68.9959 72.3934 69.0437 72.368 69.0952 72.3534L68.9383 65.3738C68.9023 65.364 68.8686 65.3472 68.8392 65.3242C68.8117 65.3022 68.7814 65.2774 68.7483 65.2499L64.4449 68.8925L68.9548 72.4277ZM75.0671 62.0946H68.2528L69.1448 63.9861H69.1778C69.1919 63.9855 69.2059 63.9828 69.2191 63.9779C69.2893 63.9776 69.359 63.9888 69.4256 64.0109C69.4947 64.0342 69.5611 64.0647 69.6239 64.1017L75.0671 62.0946ZM67.8067 62.3672L64.4201 68.2317L68.5005 64.7791C68.4994 64.679 68.5104 64.5791 68.5335 64.4817C68.5604 64.3851 68.6116 64.2969 68.6822 64.2257L67.8067 62.3672ZM64.3871 69.5038L67.815 75.4343L68.8475 73.5015C68.7852 73.4382 68.7373 73.3621 68.7071 73.2785C68.6742 73.1914 68.6574 73.099 68.6575 73.0059V72.9316C68.6583 72.906 68.6639 72.8808 68.674 72.8573L64.3871 69.5038ZM68.261 75.7069H75.125L69.8635 73.5593C69.7906 73.6278 69.703 73.6786 69.6074 73.708C69.5101 73.7317 69.4102 73.7428 69.31 73.741L68.261 75.7069ZM75.5958 75.3352L76.1657 69.6606C76.0847 69.6366 76.0091 69.5974 75.9427 69.545L70.103 72.9481V73.0968L75.5958 75.3352ZM76.1327 75.1617L79.6019 69.1651H77.0909C77.0648 69.2669 77.0137 69.3606 76.9422 69.4376C76.8709 69.5145 76.7871 69.5787 76.6944 69.6276L76.1327 75.1617ZM77.033 68.6364H79.6019L76.1327 62.648L76.7357 68.3308C76.8621 68.402 76.9653 68.5081 77.033 68.6364H77.033Z" fill="#0078D4"/>
<path d="M76.207 68.2639L75.5875 62.4572L69.9295 64.5469C69.94 64.5817 69.9455 64.6179 69.946 64.6543V64.7699L75.9923 68.3629C76.0596 68.3213 76.1317 68.288 76.207 68.2639V68.2639ZM69.8717 72.4847L75.6784 69.0981C75.6687 69.0547 75.6632 69.0105 75.6618 68.966C75.662 68.9046 75.6703 68.8435 75.6866 68.7843L69.7147 65.2408C69.6382 65.3042 69.5517 65.3545 69.4587 65.3894L69.6156 72.3278C69.7114 72.3608 69.7988 72.4144 69.8717 72.4847L69.8717 72.4847ZM68.9548 72.4269C68.9959 72.3925 69.0437 72.3672 69.0952 72.3525L68.9383 65.3729C68.9023 65.3632 68.8686 65.3463 68.8392 65.3233C68.8117 65.3013 68.7814 65.2765 68.7483 65.249L64.4449 68.8916L68.9548 72.4269ZM75.0671 62.0938H68.2528L69.1448 63.9853H69.1778C69.1919 63.9847 69.2059 63.9819 69.2191 63.977C69.2893 63.9768 69.359 63.9879 69.4256 64.01C69.4947 64.0334 69.5611 64.0638 69.6239 64.1009L75.0671 62.0938ZM67.8067 62.3663L64.4201 68.2309L68.5005 64.7782C68.4994 64.6781 68.5104 64.5783 68.5335 64.4809C68.5604 64.3842 68.6116 64.2961 68.6822 64.2248L67.8067 62.3663ZM64.3871 69.5029L67.815 75.4335L68.8475 73.5006C68.7852 73.4373 68.7373 73.3612 68.7071 73.2776C68.6742 73.1905 68.6574 73.0982 68.6575 73.0051V72.9307C68.6583 72.9051 68.6639 72.8799 68.674 72.8564L64.3871 69.5029ZM68.261 75.706H75.125L69.8635 73.5585C69.7906 73.6269 69.703 73.6777 69.6074 73.7071C69.5101 73.7308 69.4102 73.7419 69.31 73.7401L68.261 75.706ZM75.5958 75.3343L76.1657 69.6598C76.0847 69.6357 76.0091 69.5965 75.9427 69.5441L70.103 72.9472V73.0959L75.5958 75.3343ZM76.1327 75.1609L79.6019 69.1642H77.0909C77.0648 69.266 77.0137 69.3597 76.9422 69.4368C76.8709 69.5136 76.7871 69.5779 76.6944 69.6268L76.1327 75.1609ZM77.033 68.6355H79.6019L76.1327 62.6471L76.7357 68.3299C76.8621 68.4011 76.9653 68.5072 77.033 68.6355H77.033Z" fill="#50E6FF"/>
<path d="M49.6421 32.7939C49.5764 32.794 49.5114 32.7811 49.4507 32.756C49.39 32.7308 49.3349 32.694 49.2884 32.6476C49.242 32.6011 49.2052 32.546 49.18 32.4853C49.1549 32.4246 49.142 32.3596 49.1421 32.2939V27.125C49.142 27.0593 49.1549 26.9943 49.18 26.9336C49.2052 26.8729 49.242 26.8178 49.2884 26.7714C49.3349 26.7249 49.39 26.6881 49.4507 26.663C49.5114 26.6379 49.5764 26.625 49.6421 26.625H52.6421C52.7747 26.625 52.9018 26.6777 52.9956 26.7714C53.0894 26.8652 53.1421 26.9924 53.1421 27.125C53.1421 27.2576 53.0894 27.3848 52.9956 27.4786C52.9018 27.5723 52.7747 27.625 52.6421 27.625H50.1421V32.2939C50.1421 32.3596 50.1292 32.4246 50.1041 32.4853C50.079 32.546 50.0421 32.6011 49.9957 32.6476C49.9493 32.694 49.8941 32.7308 49.8334 32.756C49.7728 32.7811 49.7077 32.794 49.6421 32.7939V32.7939Z" fill="white"/>
<path d="M63.229 27.625H57.936C57.8034 27.625 57.6762 27.5723 57.5825 27.4786C57.4887 27.3848 57.436 27.2576 57.436 27.125C57.436 26.9924 57.4887 26.8652 57.5825 26.7714C57.6762 26.6777 57.8034 26.625 57.936 26.625H63.229C63.3616 26.625 63.4888 26.6777 63.5826 26.7714C63.6763 26.8652 63.729 26.9924 63.729 27.125C63.729 27.2576 63.6763 27.3848 63.5826 27.4786C63.4888 27.5723 63.3616 27.625 63.229 27.625Z" fill="white"/>
<path d="M71.522 30.625C71.4563 30.625 71.3913 30.6121 71.3306 30.587C71.2699 30.5619 71.2148 30.5251 71.1684 30.4786C71.1219 30.4322 71.0851 30.3771 71.06 30.3164C71.0349 30.2557 71.022 30.1907 71.022 30.125V27.625H68.522C68.3894 27.625 68.2622 27.5723 68.1684 27.4786C68.0747 27.3848 68.022 27.2576 68.022 27.125C68.022 26.9924 68.0747 26.8652 68.1684 26.7714C68.2622 26.6777 68.3894 26.625 68.522 26.625H71.522C71.5877 26.625 71.6527 26.6379 71.7134 26.663C71.7741 26.6881 71.8292 26.7249 71.8756 26.7714C71.9221 26.8178 71.9589 26.8729 71.984 26.9336C72.0091 26.9943 72.022 27.0593 72.022 27.125V30.125C72.022 30.1907 72.0091 30.2557 71.984 30.3164C71.9589 30.3771 71.9221 30.4322 71.8756 30.4786C71.8292 30.5251 71.7741 30.5619 71.7134 30.587C71.6527 30.6121 71.5877 30.625 71.522 30.625V30.625Z" fill="white"/>
<path d="M71.522 52.4585C71.4563 52.4585 71.3913 52.4456 71.3306 52.4205C71.2699 52.3954 71.2148 52.3586 71.1684 52.3121C71.1219 52.2657 71.0851 52.2105 71.06 52.1499C71.0349 52.0892 71.022 52.0241 71.022 51.9585V46.5009C71.022 46.3683 71.0747 46.2412 71.1684 46.1474C71.2622 46.0536 71.3894 46.0009 71.522 46.0009C71.6546 46.0009 71.7818 46.0536 71.8756 46.1474C71.9693 46.2412 72.022 46.3683 72.022 46.5009V51.9585C72.022 52.0241 72.0091 52.0892 71.984 52.1498C71.9589 52.2105 71.9221 52.2657 71.8756 52.3121C71.8292 52.3585 71.7741 52.3954 71.7134 52.4205C71.6527 52.4456 71.5877 52.4585 71.522 52.4585ZM71.522 41.5435C71.4563 41.5435 71.3913 41.5306 71.3306 41.5055C71.2699 41.4804 71.2148 41.4436 71.1684 41.3971C71.1219 41.3507 71.0851 41.2955 71.06 41.2349C71.0349 41.1742 71.022 41.1091 71.022 41.0435V35.5859C71.022 35.4533 71.0747 35.3262 71.1684 35.2324C71.2622 35.1386 71.3894 35.0859 71.522 35.0859C71.6546 35.0859 71.7818 35.1386 71.8756 35.2324C71.9693 35.3262 72.022 35.4533 72.022 35.5859V41.0434C72.022 41.1091 72.0091 41.1741 71.984 41.2348C71.9589 41.2955 71.9221 41.3506 71.8756 41.3971C71.8292 41.4435 71.7741 41.4803 71.7134 41.5055C71.6527 41.5306 71.5877 41.5435 71.522 41.5434V41.5435Z" fill="white"/>
<path d="M71.522 60.9141C71.4563 60.9141 71.3913 60.9012 71.3306 60.8761C71.2699 60.851 71.2148 60.8141 71.1684 60.7677C71.1219 60.7213 71.0851 60.6661 71.06 60.6054C71.0349 60.5448 71.022 60.4797 71.022 60.4141V57.4141C71.022 57.2815 71.0747 57.1543 71.1684 57.0605C71.2622 56.9667 71.3894 56.9141 71.522 56.9141C71.6546 56.9141 71.7818 56.9667 71.8756 57.0605C71.9693 57.1543 72.022 57.2815 72.022 57.4141V60.4141C72.022 60.4797 72.0091 60.5448 71.984 60.6054C71.9589 60.6661 71.9221 60.7213 71.8756 60.7677C71.8292 60.8141 71.7741 60.851 71.7134 60.8761C71.6527 60.9012 71.5877 60.9141 71.522 60.9141Z" fill="white"/>
</g>
<defs>
<linearGradient id="paint0_linear" x1="47.8698" y1="-15.155" x2="51.8525" y2="130.613" gradientUnits="userSpaceOnUse">
<stop stop-color="#00ABDE"/>
<stop offset="1" stop-color="#007ED8"/>
</linearGradient>
<clipPath id="clip0">
<rect width="99.2799" height="99.28" fill="white"/>
</clipPath>
</defs>
</svg>
