<svg width="103" height="103" viewBox="0 0 103 103" fill="none" xmlns="http://www.w3.org/2000/svg">
<path d="M51.9348 97.9423C26.0848 97.9423 5.12476 76.9923 5.12476 51.1323C5.12476 25.2723 26.0848 4.32227 51.9348 4.32227C77.7848 4.32227 98.7448 25.2823 98.7448 51.1323C98.7448 76.9823 77.7848 97.9423 51.9348 97.9423Z" fill="url(#paint0_linear_661_29888)"/>
<path fill-rule="evenodd" clip-rule="evenodd" d="M51.9353 1.13232C79.5453 1.13232 101.935 23.5223 101.935 51.1323C101.935 78.7423 79.5453 101.132 51.9353 101.132C24.3253 101.132 1.9353 78.7423 1.9353 51.1323C1.9353 23.5223 24.3253 1.13232 51.9353 1.13232ZM51.9353 96.8923C77.2053 96.8923 97.6953 76.4023 97.6953 51.1323C97.6953 25.8623 77.2053 5.37232 51.9353 5.37232C26.6653 5.37232 6.1753 25.8623 6.1753 51.1323C6.1753 76.4023 26.6653 96.8923 51.9353 96.8923Z" fill="#D9D9D9"/>
<path fill-rule="evenodd" clip-rule="evenodd" d="M97.8347 51.1324C97.8347 76.4824 77.2847 97.0324 51.9347 97.0324C26.5847 97.0324 6.03468 76.4824 6.03468 51.1324C6.03468 25.7824 26.5847 5.23243 51.9347 5.23243C77.2847 5.23243 97.8347 25.7824 97.8347 51.1324ZM51.9347 1.49243C79.3547 1.49243 101.575 23.7124 101.575 51.1324C101.575 78.5524 79.3447 100.772 51.9347 100.772C24.5147 100.772 2.29468 78.5424 2.29468 51.1324C2.29468 23.7124 24.5147 1.49243 51.9347 1.49243Z" fill="#F2F1F0"/>
<path fill-rule="evenodd" clip-rule="evenodd" d="M51.9352 94.2222C28.1352 94.2222 8.84522 74.9322 8.84522 51.1322C8.84522 27.3322 28.1352 8.04225 51.9352 8.04225C75.7352 8.04225 95.0252 27.3322 95.0252 51.1322C95.0252 74.9322 75.7352 94.2222 51.9352 94.2222ZM98.7652 51.1322C98.7652 76.9922 77.7952 97.9622 51.9352 97.9622C26.0752 97.9622 5.10522 76.9922 5.10522 51.1322C5.10522 25.2722 26.0752 4.30225 51.9352 4.30225C77.7952 4.30225 98.7652 25.2622 98.7652 51.1322Z" fill="url(#paint1_linear_661_29888)"/>
<path opacity="0.2" d="M88.0713 32.4467H79.3897C78.8635 32.4467 78.436 32.8742 78.436 33.4003V38.7112C78.436 39.2374 78.8635 39.6649 79.3897 39.6649H88.0713C88.5974 39.6649 89.0249 39.2374 89.0249 38.7112V33.4168C89.0249 32.8906 88.581 32.4467 88.0713 32.4467Z" fill="#1F1D21"/>
<path opacity="0.2" d="M88.0713 50.1392H79.3897C78.8635 50.1392 78.436 50.5667 78.436 51.0928V56.4202C78.436 56.9463 78.8635 57.3738 79.3897 57.3738H88.0713C88.5974 57.3738 89.0249 56.9463 89.0249 56.4202V51.0928C89.0249 50.5667 88.581 50.1392 88.0713 50.1392Z" fill="#1F1D21"/>
<path opacity="0.2" d="M88.0713 41.2765H79.3897C78.8635 41.2765 78.436 41.704 78.436 42.2301V47.541C78.436 48.0672 78.8635 48.4947 79.3897 48.4947H88.0713C88.5974 48.4947 89.0249 48.0672 89.0249 47.541V42.2466C89.0249 41.704 88.581 41.2765 88.0713 41.2765Z" fill="#1F1D21"/>
<path opacity="0.2" d="M88.0713 58.952H79.3897C78.8635 58.952 78.436 59.3795 78.436 59.9057V65.233C78.436 65.7592 78.8635 66.1867 79.3897 66.1867H88.0713C88.5974 66.1867 89.0249 65.7592 89.0249 65.233V59.9221C89.0249 59.396 88.581 58.952 88.0713 58.952Z" fill="#1F1D21"/>
<path opacity="0.2" d="M73.5698 72.3606C74.7865 72.3606 75.773 71.3741 75.773 70.1573V30.2188H32.5789V70.1573C32.5789 71.3741 33.5654 72.3606 34.7821 72.3606H73.5698V72.3606Z" fill="#1F1D21"/>
<path d="M75.7892 30.2126V29.522C75.7892 28.6834 75.1151 28.0093 74.2765 28.0093H34.0913C33.2528 28.0093 32.5786 28.6834 32.5786 29.522V30.2619V30.936V69.4112C32.5786 70.2498 33.2528 70.9239 34.0913 70.9239H74.3094C75.148 70.9239 75.8221 70.2498 75.8221 69.4112V30.2619C75.8057 30.2454 75.7892 30.229 75.7892 30.2126Z" fill="white"/>
<path d="M83.3197 62.0454H71.3003" stroke="white" stroke-width="0.8" stroke-miterlimit="10"/>
<path d="M83.3197 53.3304H71.3003" stroke="white" stroke-width="0.8" stroke-miterlimit="10"/>
<path d="M83.3197 44.5995H71.3003" stroke="white" stroke-width="0.8" stroke-miterlimit="10"/>
<path d="M83.3197 35.8684H71.3003" stroke="white" stroke-width="0.8" stroke-miterlimit="10"/>
<path d="M88.0713 32.0212H79.3897C78.8635 32.0212 78.436 32.4487 78.436 32.9749V38.2858C78.436 38.812 78.8635 39.2395 79.3897 39.2395H88.0713C88.5974 39.2395 89.0249 38.812 89.0249 38.2858V32.9913C89.0249 32.4652 88.581 32.0212 88.0713 32.0212Z" fill="#50E6FF"/>
<path d="M88.0713 49.7136H79.3897C78.8635 49.7136 78.436 50.1411 78.436 50.6673V55.9946C78.436 56.5208 78.8635 56.9483 79.3897 56.9483H88.0713C88.5974 56.9483 89.0249 56.5208 89.0249 55.9946V50.6673C89.0249 50.1411 88.581 49.7136 88.0713 49.7136Z" fill="#3BCAF4"/>
<path d="M88.0713 40.851H79.3897C78.8635 40.851 78.436 41.2785 78.436 41.8046V47.1155C78.436 47.6417 78.8635 48.0692 79.3897 48.0692H88.0713C88.5974 48.0692 89.0249 47.6417 89.0249 47.1155V41.8211C89.0249 41.2785 88.581 40.851 88.0713 40.851Z" fill="#50E6FF"/>
<path d="M88.0713 58.5265H79.3897C78.8635 58.5265 78.436 58.954 78.436 59.4801V64.8075C78.436 65.3336 78.8635 65.7611 79.3897 65.7611H88.0713C88.5974 65.7611 89.0249 65.3336 89.0249 64.8075V59.4966C89.0249 58.9704 88.581 58.5265 88.0713 58.5265Z" fill="#0078D4"/>
<path opacity="0.2" d="M69.1262 66.5183C69.8416 66.5183 70.4204 65.9395 70.4204 65.2241V34.6257H37.7214V65.2241C37.7214 65.9395 38.3002 66.5183 39.0156 66.5183H69.1262Z" fill="#1F1D21"/>
<path d="M70.4206 34.6123V34.105C70.4206 33.4742 69.9134 32.9669 69.2826 32.9669H38.8598C38.2289 32.9669 37.7217 33.4742 37.7217 34.105V34.6643V35.1781V64.2937C37.7217 64.9245 38.2289 65.4318 38.8598 65.4318H69.2956C69.9264 65.4318 70.4337 64.9245 70.4337 64.2937V34.6643C70.4271 34.6448 70.4206 34.6318 70.4206 34.6123Z" fill="#F2F1F0"/>
<path d="M47.1639 57.6145H43.8276V61.9718H47.1574V57.6145H47.1639Z" fill="#45CAF2"/>
<path d="M52.1388 54.7209H48.7571V61.9722H52.1518V54.7209H52.1388Z" fill="#50E6FF"/>
<path d="M58.1676 50.0187H53.8103V61.9524H58.1676V50.0187Z" fill="#32B0E7"/>
<path d="M64.9966 45.1414H59.989V61.9526H64.9966V45.1414Z" fill="#185A97"/>
<path d="M45.7918 53.5173L45.187 53.2312L49.7719 44.9199L55.8851 45.5247L62.2259 40.5171L62.7201 40.9658L56.1127 46.2661L50.1426 45.7003L45.7918 53.5173Z" fill="#16B2E6"/>
<path d="M44.8101 54.9548C45.61 55.1694 46.436 54.6946 46.6506 53.8947C46.8652 53.0948 46.3904 52.2689 45.5905 52.0543C44.7906 51.8397 43.9647 52.3144 43.7501 53.1143C43.5355 53.9207 44.0102 54.7402 44.8101 54.9548Z" fill="#005599"/>
<path d="M49.6609 46.9488C50.4609 47.1634 51.2868 46.6886 51.5014 45.8887C51.716 45.0888 51.2413 44.2629 50.4413 44.0483C49.6414 43.8337 48.8155 44.3084 48.6009 45.1083C48.3863 45.9082 48.861 46.7342 49.6609 46.9488Z" fill="#005599"/>
<path d="M55.4688 47.3003C56.2687 47.515 57.0946 47.0402 57.3093 46.2403C57.5239 45.4404 57.0491 44.6145 56.2492 44.3998C55.4493 44.1852 54.6234 44.66 54.4088 45.4599C54.1941 46.2598 54.6689 47.0792 55.4688 47.3003Z" fill="#005599"/>
<path d="M61.5958 42.1301C62.6038 42.6829 63.8069 41.987 63.8394 40.8359C63.8524 40.2962 63.5468 39.7694 63.0785 39.5092C62.0705 38.9565 60.8674 39.6523 60.8349 40.8034C60.8219 41.3432 61.121 41.87 61.5958 42.1301Z" fill="#005599"/>
<path d="M74.8185 73.4559C78.37 73.4559 81.2474 70.5784 81.2474 67.0104C81.2474 63.4589 78.3536 60.5979 74.8185 60.5979C71.2834 60.5979 68.373 63.4753 68.373 67.0433C68.3895 70.5949 71.2669 73.4559 74.8185 73.4559Z" fill="#002D4C"/>
<path d="M78.2115 64.2495L73.3914 69.0831L71.9514 67.6297L70.9915 68.5964L73.3981 71.0098L79.1849 65.2095L78.2115 64.2495Z" fill="#FAF9F8"/>
<path opacity="0.15" d="M40.7848 39.6072H17.2422V73.8476H40.7848V39.6072Z" fill="#1F1D20"/>
<path d="M40.7848 38.9478H17.2422V73.1882H40.7848V38.9478Z" fill="url(#paint2_linear_661_29888)"/>
<path opacity="0.2" d="M36.5002 43.7761H21.5269V50.1894H36.5093V43.7761H36.5002Z" fill="#1F1D21"/>
<path opacity="0.2" d="M23.6646 54.4744H21.5269V56.6121H23.6646V54.4744Z" fill="#1F1D21"/>
<path opacity="0.2" d="M23.6646 60.886H21.5269V63.0237H23.6646V60.886Z" fill="#1F1D21"/>
<path opacity="0.2" d="M23.6646 67.3188H21.5269V69.4566H23.6646V67.3188Z" fill="#1F1D21"/>
<path opacity="0.2" d="M30.087 54.4744H27.9492V56.6121H30.087V54.4744Z" fill="#1F1D21"/>
<path opacity="0.2" d="M30.087 60.886H27.9492V63.0237H30.087V60.886Z" fill="#1F1D21"/>
<path opacity="0.2" d="M30.087 67.3188H27.9492V69.4566H30.087V67.3188Z" fill="#1F1D21"/>
<path opacity="0.2" d="M36.5001 54.4744H34.3623V56.6121H36.5001V54.4744Z" fill="#1F1D21"/>
<path opacity="0.2" d="M36.5001 60.886H34.3623V63.0237H36.5001V60.886Z" fill="#1F1D21"/>
<path opacity="0.2" d="M36.5001 67.3188H34.3623V69.4566H36.5001V67.3188Z" fill="#1F1D21"/>
<path d="M36.5002 43.2334H21.5269V49.6467H36.5093V43.2334H36.5002Z" fill="#C3F1FF"/>
<path d="M23.6646 53.9298H21.5269V56.0676H23.6646V53.9298Z" fill="#2BC0E4"/>
<path d="M23.6646 60.3433H21.5269V62.481H23.6646V60.3433Z" fill="#057DD8"/>
<path d="M23.6646 66.7743H21.5269V68.912H23.6646V66.7743Z" fill="#2056A3"/>
<path d="M30.087 53.9298H27.9492V56.0676H30.087V53.9298Z" fill="#2BC0E4"/>
<path d="M30.087 60.3433H27.9492V62.481H30.087V60.3433Z" fill="#057DD8"/>
<path d="M30.087 66.7743H27.9492V68.912H30.087V66.7743Z" fill="#2056A3"/>
<path d="M36.5001 53.9298H34.3623V56.0676H36.5001V53.9298Z" fill="#2BC0E4"/>
<path d="M36.5001 60.3433H34.3623V62.481H36.5001V60.3433Z" fill="#057DD8"/>
<path d="M36.5001 66.7743H34.3623V68.912H36.5001V66.7743Z" fill="#2056A3"/>
<defs>
<linearGradient id="paint0_linear_661_29888" x1="36.8777" y1="0.693265" x2="67.114" y2="101.985" gradientUnits="userSpaceOnUse">
<stop stop-color="#A9B1FF"/>
<stop offset="1" stop-color="#7B83EB"/>
</linearGradient>
<linearGradient id="paint1_linear_661_29888" x1="51.9351" y1="4.30215" x2="51.9351" y2="97.9624" gradientUnits="userSpaceOnUse">
<stop stop-color="#5A62C3"/>
<stop offset="0.5" stop-color="#4D55BD"/>
<stop offset="1" stop-color="#3940AB"/>
</linearGradient>
<linearGradient id="paint2_linear_661_29888" x1="1.0467" y1="28.6203" x2="11.5987" y2="79.8723" gradientUnits="userSpaceOnUse">
<stop stop-color="#007ED8"/>
<stop offset="0.886694" stop-color="#002D4C"/>
</linearGradient>
</defs>
</svg>
