<svg width="103" height="103" viewBox="0 0 103 103" fill="none" xmlns="http://www.w3.org/2000/svg">
<path d="M51.6923 98.7065C25.8423 98.7065 4.88232 77.7565 4.88232 51.8965C4.88232 26.0365 25.8423 5.08655 51.6923 5.08655C77.5423 5.08655 98.5023 26.0465 98.5023 51.8965C98.5023 77.7465 77.5423 98.7065 51.6923 98.7065Z" fill="url(#paint0_linear)"/>
<path fill-rule="evenodd" clip-rule="evenodd" d="M97.5922 51.8965C97.5922 77.2465 77.0422 97.7965 51.6922 97.7965C26.3422 97.7965 5.79225 77.2465 5.79225 51.8965C5.79225 26.5465 26.3422 5.99655 51.6922 5.99655C77.0422 5.99655 97.5922 26.5465 97.5922 51.8965ZM51.6922 2.25655C79.1122 2.25655 101.332 24.4765 101.332 51.8965C101.332 79.3165 79.1022 101.537 51.6922 101.537C24.2722 101.537 2.05225 79.3065 2.05225 51.8965C2.05225 24.4765 24.2722 2.25655 51.6922 2.25655Z" fill="#F2F1F0"/>
<path d="M52.7324 79.5065V68.8365H48.9124V79.5065H18.0124C17.1324 79.5065 16.4424 80.1965 16.4424 81.0765C16.4424 81.9065 17.1324 82.5465 17.9124 82.5465H85.0924C85.9224 82.5465 86.6124 81.8665 86.6124 81.0265C86.6124 80.1965 85.9324 79.5065 85.0924 79.5065H52.7324Z" fill="#6472D8"/>
<path d="M54.2525 77.9866V74.1666H47.4025V77.9866H41.2925V84.1066H60.3725V77.9866H54.2525Z" fill="#3140AD"/>
<path d="M82.1725 29.5466V68.1766C82.1725 68.5666 81.8525 68.9166 81.4325 68.9166H22.0525C21.6625 68.9166 21.3125 68.5966 21.3125 68.1766V29.5466C21.3125 28.3766 22.2725 27.4166 23.4425 27.4166H80.0525C81.2125 27.4166 82.1725 28.3766 82.1725 29.5466Z" fill="url(#paint1_linear)"/>
<path d="M79.4026 30.1866H24.6426V65.0566H79.4026V30.1866Z" fill="url(#paint2_linear)"/>
<path d="M21.6324 70.0165H81.6624C82.9724 70.0165 84.0424 69.1965 84.0424 68.2465V67.2565H19.4424V68.1765C19.4424 69.2065 20.5024 70.0165 21.8224 70.0165" fill="#3140AD"/>
<path d="M62.4024 53.3565C62.3324 53.3565 62.2224 53.3165 62.1524 53.2865C62.0824 53.2465 62.0124 53.1765 61.9724 53.1065L61.3024 51.4065L60.2024 52.6865C60.1624 52.7265 60.1324 52.7565 60.0624 52.7565C60.0224 52.7565 59.9524 52.7565 59.8824 52.7565C59.8424 52.7565 59.7724 52.7165 59.7424 52.6865C59.7024 52.6465 59.6724 52.5765 59.6724 52.5465V46.6265C59.6724 46.5565 59.7124 46.4865 59.7424 46.4465C59.7824 46.4065 59.8124 46.4065 59.8524 46.3765C59.8924 46.3765 59.9224 46.3365 59.9624 46.3365C60.0324 46.3365 60.1024 46.3765 60.1724 46.4065L64.4324 50.8765C64.4724 50.9165 64.5024 50.9465 64.5024 51.0165C64.5024 51.0565 64.5024 51.1265 64.4624 51.1565C64.4224 51.1965 64.3924 51.2265 64.3524 51.2665C64.3124 51.3065 64.2424 51.3065 64.2124 51.3065H64.1424L62.5424 51.0265L63.2124 52.6965C63.2524 52.7365 63.2524 52.8065 63.2524 52.8365C63.2524 52.9065 63.2124 52.9465 63.2124 52.9765C63.1724 53.0165 63.1424 53.0865 63.1024 53.0865C63.0624 53.1265 62.9924 53.1565 62.9624 53.1565L62.5324 53.2965C62.4724 53.3565 62.4724 53.3565 62.4024 53.3565Z" fill="#3140AD"/>
<path d="M29.7621 44.8465H38.8421C39.0521 44.8465 39.3021 44.7365 39.4421 44.5965C39.6221 44.4165 39.6921 44.2065 39.6921 43.9965V34.8765C39.6921 34.6665 39.5821 34.4166 39.4421 34.2766C39.2621 34.0966 39.0521 34.0266 38.8421 34.0266H29.7621C29.5521 34.0266 29.3021 34.1366 29.1621 34.2766C28.9821 34.4566 28.9121 34.6665 28.9121 34.8765V43.9566C28.9121 44.1666 29.0221 44.4165 29.1621 44.5565C29.2921 44.7365 29.5421 44.8465 29.7621 44.8465Z" fill="white"/>
<path d="M37.6319 41.8965C35.8219 40.7965 32.7719 41.0465 31.5319 41.5065C30.3619 41.8965 29.7219 43.5265 29.4419 44.7665C29.5519 44.8065 29.6219 44.8365 29.7219 44.8365H38.8019C38.9119 44.8365 39.0519 44.7965 39.1519 44.7665C38.9119 43.7765 38.5919 42.5065 37.6319 41.8965Z" fill="#72ACF1"/>
<path d="M32.2422 41.3365C32.4922 41.7965 33.3422 42.1166 34.3022 42.1166C35.2222 42.1166 36.0022 41.8365 36.2922 41.3765C35.6922 41.1965 34.2722 41.1666 34.2722 41.1666C34.2722 41.1666 32.9122 41.1565 32.2422 41.3365Z" fill="#DCB38B"/>
<path d="M36.5721 38.1065L32.1021 38.1465V36.5865C32.1021 36.1565 32.4521 35.8065 32.8421 35.8065H35.7821C36.2121 35.8065 36.562 36.1566 36.562 36.5466V38.1065H36.5721Z" fill="#86501A"/>
<path d="M32.8422 37.6765H35.8522V40.8665C35.8522 41.0765 35.9922 41.2565 36.1022 41.2965C35.0722 42.1165 33.3722 41.8265 32.5522 41.2565C32.7322 41.2565 32.8322 41.0065 32.8322 40.7265V37.6765H32.8422Z" fill="url(#paint3_radial)"/>
<path d="M32.4522 38.8465C32.8222 38.8465 33.1222 38.5465 33.1222 38.1765C33.1222 37.8065 32.8222 37.5065 32.4522 37.5065C32.0822 37.5065 31.7822 37.8065 31.7822 38.1765C31.7822 38.5465 32.0822 38.8465 32.4522 38.8465Z" fill="#DCB38B"/>
<path d="M36.3221 38.8465C36.6921 38.8465 36.9921 38.5465 36.9921 38.1765C36.9921 37.8065 36.6921 37.5065 36.3221 37.5065C35.9521 37.5065 35.6521 37.8065 35.6521 38.1765C35.6421 38.5465 35.9421 38.8465 36.3221 38.8465Z" fill="url(#paint4_radial)"/>
<path d="M34.7921 40.7266H34.0821C33.1921 40.7266 32.4521 40.0166 32.4521 39.1266V36.9266C32.4521 36.4666 32.8421 36.0766 33.3021 36.0766H35.5021C36.0021 36.0766 36.3921 36.4666 36.3921 36.9666V39.1666C36.3921 39.9866 35.6821 40.6966 34.7921 40.7266Z" fill="#DCB38B"/>
<path d="M35.1821 36.5765C34.6121 36.4665 34.5821 36.3665 34.0121 36.3265C33.1221 36.2865 32.4121 36.4365 32.4121 36.4365V36.1865C32.4521 35.5865 32.8021 35.0565 33.5121 35.1565C34.6121 35.3365 34.4021 34.9765 34.8621 34.9765C35.3221 34.9365 35.4321 35.4065 35.6021 35.4065C36.0621 35.4065 35.9921 34.8065 36.6621 34.9765C37.2721 35.0865 37.6321 37.0065 35.1821 36.5765Z" fill="#86501A"/>
<path d="M33.6922 38.1366C33.7722 38.1366 33.8322 38.0266 33.8322 37.8866C33.8322 37.7466 33.7722 37.6366 33.6922 37.6366C33.6122 37.6366 33.5522 37.7466 33.5522 37.8866C33.5522 38.0266 33.6222 38.1366 33.6922 38.1366Z" fill="#605D5A"/>
<path d="M36.0321 40.4465H34.4321V39.0665C34.4321 38.9965 34.4721 38.9266 34.5421 38.8866L34.8621 38.6765C34.9321 38.6365 34.9321 38.5365 34.9021 38.4665L34.6221 38.0365C34.5521 37.9265 34.5121 37.8266 34.5121 37.6866V36.1965H36.1121L36.0321 40.4465Z" fill="url(#paint5_radial)"/>
<path d="M32.272 36.1566C32.272 36.1566 32.772 35.9066 32.772 36.7266C32.772 37.1866 32.632 37.4366 32.492 37.5066C32.352 37.5766 32.282 37.5766 32.282 37.5766V36.1566H32.272Z" fill="#86501A"/>
<path d="M36.5322 36.2265C36.5322 36.2265 36.0722 35.9765 36.0322 36.7965C36.0322 37.2565 36.1722 37.5065 36.3122 37.5765C36.4222 37.6465 36.5222 37.6465 36.5222 37.6465V36.2265H36.5322Z" fill="#86501A"/>
<path d="M35.222 38.1366C35.302 38.1366 35.362 38.0266 35.362 37.8866C35.362 37.7466 35.302 37.6366 35.222 37.6366C35.142 37.6366 35.082 37.7466 35.082 37.8866C35.082 38.0266 35.142 38.1366 35.222 38.1366Z" fill="#605D5A"/>
<path d="M33.832 39.1665C33.972 39.2765 34.082 39.3465 34.222 39.3765C34.292 39.4165 34.362 39.4165 34.432 39.4165C34.502 39.4165 34.572 39.4165 34.642 39.4165C34.682 39.4165 34.712 39.4566 34.712 39.4566V39.4965C34.642 39.5665 34.572 39.6366 34.462 39.6366C34.352 39.6766 34.252 39.6366 34.142 39.6366C33.932 39.5666 33.792 39.4266 33.752 39.2066C33.752 39.1666 33.792 39.1366 33.792 39.1366C33.792 39.1366 33.832 39.1365 33.832 39.1665Z" fill="#BF8F68"/>
<path d="M68.7321 34.1666C65.1021 34.1666 62.1621 37.1066 62.1621 40.7366C62.1621 44.3666 65.1021 47.3066 68.7321 47.3066C72.3621 47.3066 75.3021 44.3666 75.3021 40.7366C75.2921 37.1066 72.3621 34.1666 68.7321 34.1666ZM68.7321 43.8066C67.0421 43.8066 65.6621 42.4266 65.6621 40.7366C65.6621 39.0466 67.0421 37.6666 68.7321 37.6666C70.4221 37.6666 71.8021 39.0466 71.8021 40.7366C71.7921 42.4266 70.4221 43.8066 68.7321 43.8066Z" fill="white"/>
<path d="M68.7221 37.6666L68.7121 34.1566C66.4021 34.1666 64.3721 35.3666 63.2021 37.1766L66.0821 39.1966C66.6021 38.2866 67.5921 37.6666 68.7221 37.6666Z" fill="#3BCAF4"/>
<path d="M65.6621 40.7366C65.6621 40.1766 65.8121 39.6566 66.0721 39.2066L63.2021 37.1866L63.1921 37.2066C62.5421 38.2266 62.1621 39.4366 62.1621 40.7366C62.1621 41.7066 62.3721 42.6266 62.7521 43.4466L65.9621 42.0266C65.7621 41.6466 65.6621 41.1966 65.6621 40.7366Z" fill="#50E6FF"/>
<path d="M62.6025 58.7165H60.2725V61.7565H62.6025V58.7165Z" fill="white"/>
<path d="M66.0824 56.6965H63.7124V61.7565H66.0824V56.6965Z" fill="#C3F1FF"/>
<path d="M70.2827 53.4265H67.2427V61.7565H70.2827V53.4265Z" fill="#45CAF2"/>
<path d="M75.0625 50.0065H71.5625V61.7465H75.0625V50.0065Z" fill="#50E6FF"/>
<path d="M55.6224 48.5565H45.7824C45.3524 48.5565 45.0024 48.9065 45.0024 49.3365C45.0024 49.7665 45.3524 50.1165 45.7824 50.1165H55.6224C56.0524 50.1165 56.4024 49.7665 56.4024 49.3365C56.4024 48.8965 56.0524 48.5565 55.6224 48.5565Z" fill="white"/>
<path d="M55.6224 51.9165H45.7824C45.3524 51.9165 45.0024 52.2665 45.0024 52.6965C45.0024 53.1265 45.3524 53.4765 45.7824 53.4765H55.6224C56.0524 53.4765 56.4024 53.1265 56.4024 52.6965C56.4024 52.2665 56.0524 51.9165 55.6224 51.9165Z" fill="#74CFEB"/>
<path fill-rule="evenodd" clip-rule="evenodd" d="M45.7824 55.5465H50.7024C51.1324 55.5465 51.4824 55.8965 51.4824 56.3265C51.4824 56.7565 51.1324 57.1065 50.7024 57.1065H45.7824C45.3524 57.1065 45.0024 56.7565 45.0024 56.3265C45.0124 55.8965 45.3524 55.5465 45.7824 55.5465Z" fill="#2E76BC"/>
<path d="M40.3825 49.0966C40.3825 48.7266 40.0825 48.4366 39.7225 48.4366H29.4725C29.1025 48.4366 28.8125 48.7366 28.8125 49.0966C28.8125 49.4566 29.1125 49.7566 29.4725 49.7566H39.7225C40.0825 49.7566 40.3825 49.4666 40.3825 49.0966Z" fill="url(#paint6_linear)"/>
<path d="M31.2827 49.0965C31.2827 49.8266 31.8727 50.4165 32.6027 50.4165C33.3327 50.4165 33.9227 49.8266 33.9227 49.0965C33.9227 48.3665 33.3327 47.7766 32.6027 47.7766C31.8727 47.7766 31.2827 48.3665 31.2827 49.0965Z" fill="#35AFE4"/>
<path d="M40.3825 52.4366C40.3825 52.0666 40.0825 51.7766 39.7225 51.7766H29.4725C29.1025 51.7766 28.8125 52.0766 28.8125 52.4366C28.8125 52.8066 29.1125 53.0965 29.4725 53.0965H39.7225C40.0825 53.0965 40.3825 52.8066 40.3825 52.4366Z" fill="url(#paint7_linear)"/>
<path d="M35.2427 52.4365C35.2427 53.1665 35.8327 53.7565 36.5627 53.7565C37.2927 53.7565 37.8827 53.1665 37.8827 52.4365C37.8827 51.7065 37.2927 51.1165 36.5627 51.1165C35.8327 51.1265 35.2427 51.7165 35.2427 52.4365Z" fill="#2E76BC"/>
<path d="M40.3825 55.9765C40.3825 55.6065 40.0825 55.3165 39.7225 55.3165H29.4725C29.1025 55.3165 28.8125 55.6165 28.8125 55.9765C28.8125 56.3465 29.1125 56.6365 29.4725 56.6365H39.7225C40.0825 56.6365 40.3825 56.3465 40.3825 55.9765Z" fill="url(#paint8_linear)"/>
<path d="M31.3223 55.9766C31.3223 56.7066 31.9123 57.2966 32.6423 57.2966C33.3723 57.2966 33.9623 56.7066 33.9623 55.9766C33.9623 55.2466 33.3723 54.6565 32.6423 54.6565C31.9123 54.6565 31.3223 55.2466 31.3223 55.9766Z" fill="#50E6FF"/>
<path d="M45.9522 33.9466H55.1522C55.6622 33.9466 56.0722 34.3566 56.0722 34.8666V44.0666C56.0722 44.5766 55.6622 44.9866 55.1522 44.9866H45.9522C45.4422 44.9866 45.0322 44.5766 45.0322 44.0666V34.8666C45.0322 34.3566 45.4422 33.9466 45.9522 33.9466Z" fill="url(#paint9_linear)"/>
<path d="M52.9421 37.4566H51.1021V42.4666H49.9321V37.4566H48.1021V36.4866H52.9421V37.4566Z" fill="white"/>
<path fill-rule="evenodd" clip-rule="evenodd" d="M51.6923 94.9865C27.8923 94.9865 8.6023 75.6965 8.6023 51.8965C8.6023 28.0965 27.8923 8.80647 51.6923 8.80647C75.4923 8.80647 94.7823 28.0965 94.7823 51.8965C94.7823 75.6965 75.4923 94.9865 51.6923 94.9865ZM98.5223 51.8965C98.5223 77.7565 77.5523 98.7265 51.6923 98.7265C25.8323 98.7265 4.8623 77.7565 4.8623 51.8965C4.8623 26.0365 25.8323 5.06647 51.6923 5.06647C77.5523 5.06647 98.5223 26.0265 98.5223 51.8965Z" fill="url(#paint10_linear)"/>
<defs>
<linearGradient id="paint0_linear" x1="36.6349" y1="1.45755" x2="66.8712" y2="102.749" gradientUnits="userSpaceOnUse">
<stop stop-color="#C1C7FF"/>
<stop offset="1" stop-color="#9DA4FF"/>
</linearGradient>
<linearGradient id="paint1_linear" x1="50.9224" y1="25.4262" x2="52.1454" y2="60.5873" gradientUnits="userSpaceOnUse">
<stop stop-color="#5A62C3"/>
<stop offset="0.5" stop-color="#4D55BD"/>
<stop offset="1" stop-color="#3940AB"/>
</linearGradient>
<linearGradient id="paint2_linear" x1="50.9651" y1="22.2833" x2="52.7996" y2="66.3112" gradientUnits="userSpaceOnUse">
<stop stop-color="#A9B1FF"/>
<stop offset="0.795" stop-color="#7B83EB"/>
</linearGradient>
<radialGradient id="paint3_radial" cx="0" cy="0" r="1" gradientUnits="userSpaceOnUse" gradientTransform="translate(34.4099 38.5427) rotate(180) scale(2.59729 3.17677)">
<stop stop-color="#915A37"/>
<stop offset="1" stop-color="#DCB38B"/>
</radialGradient>
<radialGradient id="paint4_radial" cx="0" cy="0" r="1" gradientUnits="userSpaceOnUse" gradientTransform="translate(35.8906 38.2675) rotate(180) scale(0.742065)">
<stop stop-color="#915A37"/>
<stop offset="0.1165" stop-color="#9B6642"/>
<stop offset="0.7121" stop-color="#CA9D77"/>
<stop offset="1" stop-color="#DCB38B"/>
</radialGradient>
<radialGradient id="paint5_radial" cx="0" cy="0" r="1" gradientUnits="userSpaceOnUse" gradientTransform="translate(34.1916 38.5574) rotate(179.277) scale(1.30006 1.17182)">
<stop stop-color="#9B643D"/>
<stop offset="1" stop-color="#BF8F68" stop-opacity="0"/>
</radialGradient>
<linearGradient id="paint6_linear" x1="34.2775" y1="48.2039" x2="40.7668" y2="66.5016" gradientUnits="userSpaceOnUse">
<stop stop-color="#15548F"/>
<stop offset="0.4179" stop-color="#243A5E"/>
<stop offset="0.9677" stop-color="#1A2C45"/>
</linearGradient>
<linearGradient id="paint7_linear" x1="33.2249" y1="48.5772" x2="39.7142" y2="66.8748" gradientUnits="userSpaceOnUse">
<stop stop-color="#15548F"/>
<stop offset="0.4179" stop-color="#243A5E"/>
<stop offset="0.9677" stop-color="#1A2C45"/>
</linearGradient>
<linearGradient id="paint8_linear" x1="32.1094" y1="48.9727" x2="38.5987" y2="67.2705" gradientUnits="userSpaceOnUse">
<stop stop-color="#15548F"/>
<stop offset="0.4179" stop-color="#243A5E"/>
<stop offset="0.9677" stop-color="#1A2C45"/>
</linearGradient>
<linearGradient id="paint9_linear" x1="46.9461" y1="33.2276" x2="54.148" y2="45.7008" gradientUnits="userSpaceOnUse">
<stop stop-color="#5A62C3"/>
<stop offset="0.5" stop-color="#4D55BD"/>
<stop offset="1" stop-color="#3940AB"/>
</linearGradient>
<linearGradient id="paint10_linear" x1="51.6923" y1="5.06637" x2="51.6923" y2="98.7263" gradientUnits="userSpaceOnUse">
<stop stop-color="#5A62C3"/>
<stop offset="0.5" stop-color="#4D55BD"/>
<stop offset="1" stop-color="#3940AB"/>
</linearGradient>
</defs>
</svg>
