<svg width="100" height="100" viewBox="0 0 100 100" fill="none" xmlns="http://www.w3.org/2000/svg">
<g clip-path="url(#clip0_927_705)">
<path d="M49.6401 96.45C40.382 96.45 31.3317 93.7047 23.6339 88.5611C15.936 83.4176 9.93624 76.1068 6.3933 67.5534C2.85036 59 1.92337 49.5881 3.72954 40.5078C5.53571 31.4276 9.99394 23.0868 16.5404 16.5403C23.0869 9.99384 31.4277 5.53562 40.5079 3.72945C49.5882 1.92327 59.0001 2.85027 67.5535 6.39321C76.1069 9.93614 83.4176 15.9359 88.5612 23.6338C93.7047 31.3316 96.4501 40.3819 96.4501 49.64C96.4505 55.7873 95.24 61.8745 92.8878 67.5539C90.5355 73.2334 87.0875 78.3938 82.7407 82.7406C78.3939 87.0874 73.2335 90.5354 67.554 92.8877C61.8746 95.2399 55.7874 96.4504 49.6401 96.45V96.45Z" fill="url(#paint0_linear_927_705)"/>
<path fill-rule="evenodd" clip-rule="evenodd" d="M95.54 49.64C95.54 58.7182 92.848 67.5925 87.8045 75.1407C82.7609 82.6889 75.5923 88.572 67.2052 92.0461C58.818 95.5201 49.5891 96.4291 40.6854 94.658C31.7816 92.887 23.603 88.5154 17.1838 82.0962C10.7646 75.677 6.39302 67.4984 4.62196 58.5946C2.85089 49.6909 3.75987 40.462 7.23393 32.0748C10.708 23.6877 16.5911 16.5191 24.1393 11.4755C31.6875 6.43199 40.5618 3.74 49.64 3.74C55.6677 3.73998 61.6363 4.9272 67.2052 7.23388C72.774 9.54057 77.834 12.9215 82.0963 17.1837C86.3585 21.446 89.7394 26.5059 92.0461 32.0748C94.3528 37.6437 95.54 43.6123 95.54 49.64V49.64ZM49.64 3.62732e-07C59.4579 3.62732e-07 69.0553 2.91134 77.2185 8.36585C85.3818 13.8204 91.7442 21.5731 95.5014 30.6436C99.2585 39.7141 100.242 49.6951 98.3262 59.3243C96.4108 68.9535 91.6831 77.7985 84.7408 84.7408C77.7985 91.6831 68.9535 96.4108 59.3243 98.3262C49.6951 100.242 39.7141 99.2585 30.6436 95.5014C21.5731 91.7442 13.8204 85.3818 8.36585 77.2185C2.91134 69.0553 3.62732e-07 59.4579 3.62732e-07 49.64C-0.000787738 43.121 1.28265 36.6656 3.77702 30.6427C6.27138 24.6197 9.9278 19.1471 14.5375 14.5375C19.1471 9.9278 24.6197 6.27138 30.6427 3.77702C36.6656 1.28265 43.121 -0.000787738 49.64 3.62732e-07V3.62732e-07Z" fill="#F2F1F0"/>
<path fill-rule="evenodd" clip-rule="evenodd" d="M92.7296 49.6401C92.7296 58.1625 90.2024 66.4935 85.4676 73.5796C80.7328 80.6657 74.0031 86.1887 66.1294 89.4501C58.2557 92.7114 49.5918 93.5648 41.2331 91.9021C32.8745 90.2395 25.1966 86.1356 19.1703 80.1093C13.1441 74.0831 9.04017 66.4052 7.37753 58.0465C5.7149 49.6879 6.56822 41.0239 9.8296 33.1503C13.091 25.2766 18.6139 18.5469 25.7 13.8121C32.7862 9.07727 41.1172 6.55009 49.6396 6.55009C55.2983 6.54974 60.9017 7.66407 66.1298 9.82942C71.3579 11.9948 76.1082 15.1687 80.1096 19.1701C84.1109 23.1714 87.2849 27.9218 89.4502 33.1499C91.6156 38.3779 92.7299 43.9813 92.7296 49.6401V49.6401ZM49.6396 2.81009C58.9017 2.81009 67.9558 5.55662 75.6569 10.7024C83.3581 15.8481 89.3604 23.162 92.9049 31.719C96.4493 40.2761 97.3767 49.692 95.5697 58.7762C93.7628 67.8603 89.3027 76.2046 82.7534 82.7539C76.2041 89.3032 67.8598 93.7633 58.7757 95.5703C49.6915 97.3772 40.2756 96.4498 31.7185 92.9054C23.1614 89.3609 15.8476 83.3586 10.7018 75.6574C5.5561 67.9563 2.80957 58.9022 2.80957 49.6401C2.81076 37.2204 7.745 25.3097 16.5271 16.5276C25.3091 7.7455 37.2198 2.81125 49.6396 2.81006V2.81009Z" fill="#0078D4"/>
<path fill-rule="evenodd" clip-rule="evenodd" d="M92.7637 49.6401C92.7637 58.1625 90.2366 66.4935 85.5018 73.5796C80.767 80.6657 74.0372 86.1887 66.1636 89.4501C58.2899 92.7114 49.6259 93.5648 41.2673 91.9021C32.9087 90.2395 25.2308 86.1356 19.2045 80.1093C13.1783 74.0831 9.07435 66.4052 7.41171 58.0465C5.74908 49.6879 6.6024 41.0239 9.86378 33.1503C13.1252 25.2766 18.6481 18.5469 25.7342 13.8121C32.8203 9.07727 41.1514 6.55009 49.6738 6.55009C55.3325 6.54974 60.9359 7.66407 66.164 9.82942C71.3921 11.9948 76.1424 15.1687 80.1437 19.1701C84.1451 23.1714 87.3191 27.9218 89.4844 33.1499C91.6498 38.3779 92.7641 43.9813 92.7637 49.6401V49.6401ZM49.6738 2.81009C58.9359 2.81009 67.9899 5.55662 75.6911 10.7024C83.3923 15.8481 89.3946 23.162 92.939 31.719C96.4835 40.2761 97.4109 49.692 95.6039 58.7762C93.797 67.8603 89.3369 76.2046 82.7876 82.7539C76.2383 89.3032 67.894 93.7633 58.8098 95.5703C49.7257 97.3772 40.3097 96.4498 31.7527 92.9054C23.1956 89.3609 15.8818 83.3586 10.736 75.6574C5.59028 67.9563 2.84375 58.9022 2.84375 49.6401C2.84494 37.2204 7.77918 25.3097 16.5612 16.5276C25.3433 7.7455 37.254 2.81125 49.6738 2.81006V2.81009Z" fill="#0078D4"/>
<path opacity="0.2" d="M34.1203 81.0862H65.1588C65.3218 81.0858 65.4781 81.0208 65.5934 80.9055C65.7087 80.7901 65.7737 80.6339 65.7742 80.4708V56.2381H33.5049V80.4708C33.5054 80.6339 33.5703 80.7901 33.6857 80.9055C33.801 81.0208 33.9572 81.0858 34.1203 81.0862Z" fill="#003067"/>
<path d="M34.1203 79.8192H65.1588C65.3218 79.8188 65.4781 79.7538 65.5934 79.6384C65.7087 79.5231 65.7737 79.3669 65.7742 79.2038V54.9711H33.5049V79.2038C33.5054 79.3669 33.5703 79.5231 33.6857 79.6384C33.801 79.7538 33.9572 79.8188 34.1203 79.8192V79.8192Z" fill="#F2F2F2"/>
<path d="M33.5049 57.6533H65.7742V54.7607C65.7743 54.6987 65.7623 54.6373 65.7386 54.58C65.7149 54.5227 65.6802 54.4706 65.6363 54.4267C65.5925 54.3829 65.5404 54.3481 65.4831 54.3245C65.4258 54.3008 65.3644 54.2887 65.3024 54.2889H33.9767C33.9147 54.2887 33.8533 54.3008 33.796 54.3245C33.7386 54.3481 33.6866 54.3829 33.6427 54.4267C33.5989 54.4706 33.5641 54.5227 33.5405 54.58C33.5168 54.6373 33.5047 54.6987 33.5049 54.7607V57.6533Z" fill="url(#paint1_linear_927_705)"/>
<path d="M35.9874 56.8582C36.1491 56.8577 36.3071 56.8093 36.4414 56.7189C36.5756 56.6286 36.68 56.5006 36.7415 56.3509C36.8029 56.2012 36.8186 56.0367 36.7865 55.8781C36.7545 55.7196 36.6761 55.5741 36.5614 55.46C36.4466 55.346 36.3006 55.2685 36.1418 55.2375C35.9831 55.2064 35.8187 55.2231 35.6694 55.2855C35.5201 55.3479 35.3927 55.4531 35.3032 55.5879C35.2138 55.7227 35.1663 55.881 35.1668 56.0428C35.1659 56.1506 35.1866 56.2574 35.2276 56.3571C35.2685 56.4567 35.329 56.5472 35.4055 56.6232C35.4819 56.6991 35.5728 56.7591 35.6727 56.7994C35.7726 56.8398 35.8796 56.8598 35.9874 56.8582V56.8582Z" fill="#50E6FF"/>
<path d="M62.9138 59.7354H36.3591C36.0092 59.7354 35.7256 60.019 35.7256 60.3689V76.8765C35.7256 77.2263 36.0092 77.51 36.3591 77.51H62.9138C63.2637 77.51 63.5473 77.2263 63.5473 76.8765V60.3689C63.5473 60.019 63.2637 59.7354 62.9138 59.7354Z" fill="#E8E8E8"/>
<path d="M51.6333 68.8205C51.6333 69.2155 51.5162 69.6015 51.2967 69.9299C51.0773 70.2583 50.7655 70.5142 50.4006 70.6654C50.0357 70.8165 49.6342 70.856 49.2469 70.779C48.8595 70.7019 48.5037 70.5118 48.2245 70.2325C47.9452 69.9532 47.755 69.5974 47.678 69.2101C47.6009 68.8227 47.6405 68.4212 47.7916 68.0564C47.9427 67.6915 48.1987 67.3796 48.527 67.1602C48.8554 66.9408 49.2415 66.8237 49.6364 66.8237C50.1658 66.8243 50.6734 67.0349 51.0477 67.4092C51.4221 67.7836 51.6326 68.2911 51.6333 68.8205V68.8205ZM55.3236 67.745L54.3951 67.5385C54.299 67.5035 54.2206 67.4321 54.1768 67.3396C54.1738 67.3294 54.1701 67.3195 54.1658 67.3097L53.9096 66.6871L53.8949 66.6551C53.8601 66.5596 53.8647 66.4543 53.9076 66.3622L54.4184 65.5595C54.5229 65.3857 54.5675 65.1824 54.5454 64.9808C54.5233 64.7792 54.4357 64.5905 54.296 64.4435L54.0135 64.1609C53.8651 64.0237 53.6766 63.9377 53.4757 63.9156C53.2747 63.8936 53.0721 63.9367 52.8975 64.0385L52.0946 64.5491C52.0434 64.5747 51.9866 64.5871 51.9294 64.585C51.8857 64.5866 51.8422 64.5788 51.8018 64.562C51.7914 64.5565 51.7807 64.5515 51.7697 64.5473L51.1473 64.2909C51.1375 64.2868 51.1275 64.2832 51.1173 64.2801C51.0248 64.2363 50.9534 64.1578 50.9184 64.0616L50.7121 63.1333C50.6631 62.9365 50.5509 62.7612 50.3926 62.6343C50.2344 62.5073 50.0389 62.4358 49.8361 62.4306H49.4368C49.234 62.4357 49.0386 62.5072 48.8804 62.6341C48.7222 62.761 48.61 62.9363 48.561 63.1331L48.3545 64.062C48.3193 64.158 48.2479 64.2363 48.1556 64.2801L48.1255 64.2909L47.503 64.5473C47.4921 64.5516 47.4813 64.5565 47.4709 64.562C47.4305 64.5788 47.387 64.5867 47.3433 64.585C47.2861 64.5869 47.2292 64.5746 47.178 64.5491L46.3754 64.0387C46.2008 63.9369 45.9982 63.8939 45.7972 63.9159C45.5963 63.9379 45.4078 64.0239 45.2594 64.1611L44.9769 64.4435C44.8372 64.5905 44.7495 64.7793 44.7274 64.9809C44.7053 65.1826 44.7499 65.3859 44.8545 65.5597L45.3653 66.3622C45.408 66.4543 45.4126 66.5595 45.378 66.655C45.3727 66.6655 45.3675 66.6763 45.363 66.6871L45.1069 67.3097L45.0959 67.3397C45.0521 67.4322 44.9737 67.5037 44.8776 67.5388L43.9493 67.7448C43.7524 67.7939 43.5771 67.9061 43.4502 68.0643C43.3233 68.2226 43.2517 68.418 43.2466 68.6208V69.0202C43.2517 69.2229 43.3232 69.4184 43.4501 69.5766C43.577 69.7348 43.7523 69.847 43.9491 69.896L44.8778 70.1023C44.9738 70.1374 45.0521 70.2089 45.0958 70.3014L45.1068 70.3313L45.363 70.9539C45.3674 70.9647 45.3724 70.9753 45.378 70.9859C45.4126 71.0814 45.4079 71.1867 45.365 71.2788L44.8544 72.0813C44.7498 72.2552 44.7052 72.4585 44.7273 72.6601C44.7494 72.8618 44.8371 73.0506 44.9768 73.1976L45.2594 73.4801C45.4078 73.6173 45.5964 73.7032 45.7973 73.7253C45.9982 73.7473 46.2009 73.7043 46.3756 73.6025L47.1777 73.0919C47.229 73.0664 47.2859 73.054 47.3433 73.056C47.387 73.0543 47.4305 73.0621 47.4709 73.079C47.4814 73.0842 47.492 73.0894 47.503 73.0938L48.1254 73.3502L48.1556 73.3609C48.2479 73.4048 48.3193 73.4832 48.3545 73.5792L48.5609 74.5077C48.6099 74.7046 48.7221 74.8799 48.8803 75.0068C49.0385 75.1338 49.234 75.2053 49.4367 75.2104H49.8361C50.0389 75.2052 50.2343 75.1337 50.3925 75.0068C50.5507 74.8798 50.6629 74.7045 50.7119 74.5077L50.9184 73.5792C50.9534 73.4831 51.0249 73.4047 51.1173 73.3609L51.1472 73.3502L51.7696 73.0938C51.7806 73.0894 51.7914 73.0842 51.8018 73.079C51.8421 73.0622 51.8856 73.0543 51.9292 73.056C51.9864 73.054 52.0433 73.0663 52.0945 73.0919L52.8972 73.6023C53.0719 73.7042 53.2746 73.7473 53.4755 73.7253C53.6765 73.7033 53.865 73.6174 54.0135 73.4801L54.2958 73.1978C54.4356 73.0507 54.5232 72.8619 54.5454 72.6602C54.5675 72.4586 54.5229 72.2552 54.4184 72.0813L53.9076 71.2788C53.8864 71.2332 53.8743 71.1839 53.8721 71.1337C53.8699 71.0835 53.8777 71.0333 53.8949 70.9861L53.9096 70.9541L54.1658 70.3313C54.1701 70.3216 54.1738 70.3116 54.1768 70.3014C54.2206 70.2089 54.2991 70.1373 54.3953 70.1023L55.3234 69.896C55.5203 69.8471 55.6957 69.7349 55.8226 69.5767C55.9496 69.4185 56.0212 69.223 56.0263 69.0202V68.6208C56.0212 68.4181 55.9497 68.2226 55.8227 68.0644C55.6958 67.9061 55.5205 67.794 55.3236 67.745V67.745Z" fill="#0078D4"/>
<path opacity="0.2" d="M51.6333 68.8205C51.6333 69.2154 51.5162 69.6015 51.2968 69.9299C51.0774 70.2583 50.7655 70.5142 50.4007 70.6654C50.0358 70.8165 49.6343 70.856 49.2469 70.779C48.8596 70.7019 48.5038 70.5118 48.2245 70.2325C47.9452 69.9532 47.7551 69.5974 47.678 69.2101C47.601 68.8227 47.6405 68.4212 47.7916 68.0564C47.9428 67.6915 48.1987 67.3796 48.5271 67.1602C48.8555 66.9408 49.2416 66.8237 49.6365 66.8237C50.1659 66.8243 50.6734 67.0349 51.0478 67.4092C51.4221 67.7836 51.6327 68.2911 51.6333 68.8205V68.8205Z" fill="#0078D4"/>
<path d="M49.6365 41.2993C49.9845 41.2993 50.2665 41.0173 50.2665 40.6694C50.2665 40.3215 49.9845 40.0394 49.6365 40.0394C49.2886 40.0394 49.0066 40.3215 49.0066 40.6694C49.0066 41.0173 49.2886 41.2993 49.6365 41.2993Z" fill="#C3F1FF"/>
<path d="M49.6365 43.6395C49.9845 43.6395 50.2665 43.3575 50.2665 43.0096C50.2665 42.6616 49.9845 42.3796 49.6365 42.3796C49.2886 42.3796 49.0066 42.6616 49.0066 43.0096C49.0066 43.3575 49.2886 43.6395 49.6365 43.6395Z" fill="#C3F1FF"/>
<path d="M49.6365 45.9797C49.9845 45.9797 50.2665 45.6977 50.2665 45.3498C50.2665 45.0018 49.9845 44.7198 49.6365 44.7198C49.2886 44.7198 49.0066 45.0018 49.0066 45.3498C49.0066 45.6977 49.2886 45.9797 49.6365 45.9797Z" fill="#C3F1FF"/>
<path d="M49.6365 48.3199C49.9845 48.3199 50.2665 48.0379 50.2665 47.69C50.2665 47.3421 49.9845 47.06 49.6365 47.06C49.2886 47.06 49.0066 47.3421 49.0066 47.69C49.0066 48.0379 49.2886 48.3199 49.6365 48.3199Z" fill="#C3F1FF"/>
<path d="M49.6365 50.6601C49.9845 50.6601 50.2665 50.3781 50.2665 50.0302C50.2665 49.6822 49.9845 49.4002 49.6365 49.4002C49.2886 49.4002 49.0066 49.6822 49.0066 50.0302C49.0066 50.3781 49.2886 50.6601 49.6365 50.6601Z" fill="#C3F1FF"/>
<path d="M49.6365 53.0003C49.9845 53.0003 50.2665 52.7183 50.2665 52.3704C50.2665 52.0224 49.9845 51.7404 49.6365 51.7404C49.2886 51.7404 49.0066 52.0224 49.0066 52.3704C49.0066 52.7183 49.2886 53.0003 49.6365 53.0003Z" fill="#C3F1FF"/>
<path d="M58.4575 25.5405C59.3813 26.4757 60.1548 27.5482 60.7505 28.72C60.9346 29.0801 60.9682 29.4986 60.8439 29.8835C60.7195 30.2683 60.4473 30.588 60.0872 30.7722C59.7271 30.9564 59.3086 30.99 58.9238 30.8656C58.5389 30.7413 58.2192 30.4691 58.035 30.109C57.5842 29.2208 56.9992 28.4073 56.3006 27.6973C55.2564 26.6537 53.9798 25.8722 52.5755 25.4169C51.1711 24.9615 49.6788 24.8453 48.2209 25.0777C46.7629 25.3102 45.3808 25.8846 44.1876 26.754C42.9944 27.6234 42.0241 28.7631 41.3562 30.0797C41.1736 30.4406 40.8552 30.7142 40.4709 30.8404C40.0866 30.9665 39.6679 30.9348 39.307 30.7522C38.9461 30.5697 38.6725 30.2512 38.5464 29.8669C38.4202 29.4826 38.4519 29.064 38.6345 28.7031C39.52 26.9562 40.8067 25.444 42.3893 24.2903C43.9719 23.1366 45.8053 22.3742 47.7393 22.0657C49.6733 21.7571 51.653 21.9111 53.516 22.5151C55.379 23.1191 57.0724 24.1559 58.4575 25.5405L58.4575 25.5405ZM55.3327 30.1028C56.0403 30.8181 56.6097 31.658 57.0122 32.5802C57.0926 32.7636 57.136 32.9611 57.1401 33.1613C57.1441 33.3615 57.1087 33.5606 57.0359 33.7472C56.963 33.9337 56.8541 34.1041 56.7154 34.2485C56.5767 34.393 56.4108 34.5087 56.2274 34.5891C56.044 34.6695 55.8465 34.7129 55.6463 34.717C55.446 34.721 55.247 34.6856 55.0604 34.6128C54.8739 34.5399 54.7035 34.431 54.559 34.2923C54.4146 34.1536 54.2989 33.9877 54.2185 33.8043C53.9684 33.2299 53.615 32.7063 53.176 32.2595C52.6102 31.6878 51.9126 31.264 51.1444 31.0255C50.3763 30.7869 49.5612 30.741 48.7712 30.8917C47.9811 31.0424 47.2402 31.3851 46.6138 31.8896C45.9873 32.3941 45.4946 33.045 45.179 33.7848C45.0987 33.9683 44.9831 34.1341 44.8387 34.2729C44.6943 34.4117 44.524 34.5207 44.3375 34.5937C44.151 34.6666 43.952 34.7022 43.7518 34.6982C43.5515 34.6942 43.354 34.6509 43.1706 34.5706C42.9871 34.4903 42.8212 34.3747 42.6824 34.2303C42.5437 34.0859 42.4347 33.9156 42.3617 33.7291C42.2887 33.5426 42.2532 33.3436 42.2572 33.1434C42.2611 32.9431 42.3045 32.7456 42.3847 32.5622C42.8994 31.3675 43.6991 30.3173 44.714 29.5035C45.7288 28.6898 46.9277 28.1373 48.2057 27.8946C49.4836 27.6518 50.8016 27.7262 52.0441 28.1112C53.2866 28.4962 54.4158 29.18 55.3326 30.1028H55.3327ZM62.4761 21.8658C63.2654 22.6599 63.9818 23.5232 64.6169 24.4454C64.8466 24.7783 64.9348 25.1888 64.8618 25.5866C64.7889 25.9845 64.561 26.337 64.2281 26.5668C63.8952 26.7966 63.4847 26.8847 63.0869 26.8118C62.689 26.7388 62.3365 26.5109 62.1067 26.178C61.5764 25.4077 60.9782 24.6863 60.3194 24.0226C57.4835 21.1867 53.6372 19.5935 49.6267 19.5935C45.6162 19.5935 41.7699 21.1867 38.934 24.0226C38.2823 24.6859 37.6901 25.4052 37.1643 26.1722C36.9338 26.5045 36.5806 26.7316 36.1826 26.8036C35.7846 26.8756 35.3743 26.7865 35.042 26.5559C34.7097 26.3254 34.4825 25.9722 34.4106 25.5742C34.3386 25.1762 34.4277 24.7659 34.6583 24.4336C35.2876 23.517 35.9967 22.6577 36.7773 21.8658C40.1852 18.458 44.8072 16.5435 49.6267 16.5435C54.4461 16.5434 59.0681 18.458 62.476 21.8658L62.4761 21.8658ZM51.2552 34.2835C51.5753 34.6036 51.7934 35.0115 51.8817 35.4555C51.97 35.8996 51.9247 36.3599 51.7514 36.7781C51.5782 37.1964 51.2848 37.554 50.9083 37.8055C50.5319 38.057 50.0893 38.1913 49.6365 38.1913C49.1838 38.1913 48.7412 38.057 48.3648 37.8055C47.9883 37.554 47.6949 37.1964 47.5216 36.7781C47.3484 36.3599 47.3031 35.8996 47.3914 35.4555C47.4797 35.0115 47.6977 34.6036 48.0179 34.2835C48.2304 34.0709 48.4828 33.9023 48.7605 33.7872C49.0383 33.6722 49.3359 33.613 49.6365 33.613C49.9372 33.613 50.2348 33.6722 50.5126 33.7872C50.7903 33.9023 51.0426 34.0709 51.2552 34.2835Z" fill="#C3F1FF"/>
</g>
<defs>
<linearGradient id="paint0_linear_927_705" x1="47.8697" y1="-15.1531" x2="51.8525" y2="130.615" gradientUnits="userSpaceOnUse">
<stop stop-color="#00ABDE"/>
<stop offset="1" stop-color="#007ED8"/>
</linearGradient>
<linearGradient id="paint1_linear_927_705" x1="33.5049" y1="55.9711" x2="65.832" y2="55.9711" gradientUnits="userSpaceOnUse">
<stop stop-color="#005BA1"/>
<stop offset="0.26" stop-color="#00589D"/>
<stop offset="0.53" stop-color="#004F90"/>
<stop offset="0.8" stop-color="#003F7C"/>
<stop offset="1" stop-color="#003067"/>
</linearGradient>
<clipPath id="clip0_927_705">
<rect width="99.2799" height="99.28" fill="white"/>
</clipPath>
</defs>
</svg>
