<svg width="100" height="100" viewBox="0 0 100 100" fill="none" xmlns="https://www.w3.org/2000/svg">
<g clip-path="url(#clip0)">
<path d="M49.6401 96.4501C40.382 96.4501 31.3317 93.7047 23.6339 88.5612C15.936 83.4176 9.93624 76.1069 6.3933 67.5535C2.85036 59.0001 1.92337 49.5882 3.72954 40.5079C5.53571 31.4277 9.99394 23.0869 16.5404 16.5404C23.0869 9.99393 31.4277 5.53571 40.5079 3.72954C49.5882 1.92337 59.0001 2.85036 67.5535 6.3933C76.1069 9.93624 83.4176 15.936 88.5612 23.6339C93.7047 31.3317 96.4501 40.382 96.4501 49.6401C96.4505 55.7874 95.24 61.8746 92.8878 67.554C90.5355 73.2335 87.0875 78.3939 82.7407 82.7407C78.3939 87.0875 73.2335 90.5355 67.554 92.8878C61.8746 95.24 55.7874 96.4505 49.6401 96.4501V96.4501Z" fill="url(#paint0_linear)"/>
<path fill-rule="evenodd" clip-rule="evenodd" d="M95.54 49.64C95.54 58.7182 92.848 67.5925 87.8045 75.1407C82.7609 82.6889 75.5923 88.572 67.2052 92.0461C58.818 95.5201 49.5891 96.4291 40.6854 94.658C31.7816 92.887 23.603 88.5154 17.1838 82.0962C10.7646 75.677 6.39302 67.4984 4.62196 58.5946C2.85089 49.6909 3.75987 40.462 7.23393 32.0748C10.708 23.6877 16.5911 16.5191 24.1393 11.4755C31.6875 6.43199 40.5618 3.74 49.64 3.74C55.6677 3.73998 61.6363 4.9272 67.2052 7.23388C72.774 9.54057 77.834 12.9215 82.0963 17.1837C86.3585 21.446 89.7394 26.5059 92.0461 32.0748C94.3528 37.6437 95.54 43.6123 95.54 49.64V49.64ZM49.64 3.62732e-07C59.4579 3.62732e-07 69.0553 2.91134 77.2185 8.36585C85.3818 13.8204 91.7442 21.5731 95.5014 30.6436C99.2585 39.7141 100.242 49.6951 98.3262 59.3243C96.4108 68.9535 91.6831 77.7985 84.7408 84.7408C77.7985 91.6831 68.9535 96.4108 59.3243 98.3262C49.6951 100.242 39.7141 99.2585 30.6436 95.5014C21.5731 91.7442 13.8204 85.3818 8.36585 77.2185C2.91134 69.0553 3.62732e-07 59.4579 3.62732e-07 49.64C-0.000787738 43.121 1.28265 36.6656 3.77702 30.6427C6.27138 24.6197 9.9278 19.1471 14.5375 14.5375C19.1471 9.9278 24.6197 6.27138 30.6427 3.77702C36.6656 1.28265 43.121 -0.000787738 49.64 3.62732e-07V3.62732e-07Z" fill="#F2F1F0"/>
<path fill-rule="evenodd" clip-rule="evenodd" d="M92.7296 49.6401C92.7296 58.1625 90.2024 66.4935 85.4676 73.5796C80.7328 80.6657 74.0031 86.1887 66.1294 89.4501C58.2557 92.7114 49.5918 93.5648 41.2331 91.9021C32.8745 90.2395 25.1966 86.1356 19.1703 80.1093C13.1441 74.0831 9.04017 66.4052 7.37753 58.0465C5.7149 49.6879 6.56822 41.0239 9.8296 33.1503C13.091 25.2766 18.6139 18.5469 25.7 13.8121C32.7862 9.07727 41.1172 6.55009 49.6396 6.55009C55.2983 6.54974 60.9017 7.66407 66.1298 9.82942C71.3579 11.9948 76.1082 15.1687 80.1096 19.1701C84.1109 23.1714 87.2849 27.9218 89.4502 33.1499C91.6156 38.3779 92.7299 43.9813 92.7296 49.6401V49.6401ZM49.6396 2.81009C58.9017 2.81009 67.9558 5.55662 75.6569 10.7024C83.3581 15.8481 89.3604 23.162 92.9049 31.719C96.4493 40.2761 97.3767 49.692 95.5697 58.7762C93.7628 67.8603 89.3027 76.2046 82.7534 82.7539C76.2041 89.3032 67.8598 93.7633 58.7757 95.5703C49.6915 97.3772 40.2756 96.4498 31.7185 92.9054C23.1614 89.3609 15.8476 83.3586 10.7018 75.6574C5.5561 67.9563 2.80957 58.9022 2.80957 49.6401C2.81076 37.2204 7.745 25.3097 16.5271 16.5276C25.3091 7.7455 37.2198 2.81125 49.6396 2.81006V2.81009Z" fill="#0078D4"/>
<path fill-rule="evenodd" clip-rule="evenodd" d="M92.7296 49.6401C92.7296 58.1625 90.2024 66.4935 85.4676 73.5796C80.7328 80.6657 74.0031 86.1886 66.1294 89.45C58.2557 92.7114 49.5918 93.5647 41.2331 91.9021C32.8745 90.2395 25.1966 86.1355 19.1703 80.1093C13.1441 74.083 9.04017 66.4051 7.37753 58.0465C5.7149 49.6879 6.56822 41.0239 9.8296 33.1502C13.091 25.2766 18.6139 18.5468 25.7001 13.812C32.7862 9.07724 41.1172 6.55006 49.6396 6.55006C55.2983 6.54971 60.9017 7.66404 66.1298 9.82939C71.3579 11.9947 76.1082 15.1687 80.1096 19.1701C84.1109 23.1714 87.2849 27.9217 89.4502 33.1498C91.6156 38.3779 92.7299 43.9813 92.7296 49.6401V49.6401ZM49.6396 2.81006C58.9017 2.81006 67.9558 5.55659 75.6569 10.7023C83.3581 15.8481 89.3604 23.1619 92.9048 31.719C96.4493 40.2761 97.3767 49.692 95.5697 58.7761C93.7628 67.8603 89.3027 76.2046 82.7534 82.7539C76.2041 89.3032 67.8598 93.7633 58.7757 95.5702C49.6915 97.3772 40.2756 96.4498 31.7185 92.9053C23.1614 89.3609 15.8476 83.3586 10.7018 75.6574C5.5561 67.9563 2.80957 58.9022 2.80957 49.6401C2.81076 37.2203 7.74501 25.3096 16.5271 16.5276C25.3091 7.7455 37.2198 2.81125 49.6396 2.81006V2.81006Z" fill="#0078D4"/>
<path fill-rule="evenodd" clip-rule="evenodd" d="M25.0198 39.5494L48.2161 21.8561C48.6328 21.5383 49.1426 21.3667 49.6667 21.3679C50.1908 21.3692 50.6998 21.5432 51.115 21.863L74.5292 39.8988L49.639 59.102L25.0198 39.5494Z" fill="#E8E8E8"/>
<path fill-rule="evenodd" clip-rule="evenodd" d="M33.875 17.1787C32.9956 17.1813 32.1529 17.5318 31.5311 18.1536C30.9092 18.7755 30.5587 19.6181 30.5562 20.4975V66.9609C30.5587 67.8403 30.9092 68.683 31.5311 69.3048C32.1529 69.9266 32.9956 70.2771 33.875 70.2797H65.4036C66.2831 70.2773 67.1258 69.9269 67.7477 69.305C68.3696 68.6831 68.72 67.8404 68.7224 66.9609V30.454L55.4472 17.1787H33.875Z" fill="white"/>
<path fill-rule="evenodd" clip-rule="evenodd" d="M58.7661 30.454H68.7225L55.4473 17.1787V27.1352C55.4498 28.0146 55.8003 28.8572 56.4222 29.4791C57.044 30.1009 57.8867 30.4514 58.7661 30.454Z" fill="#E8E8E8"/>
<path opacity="0.5" fill-rule="evenodd" clip-rule="evenodd" d="M68.7225 40.4105L58.7661 30.4541H68.7225V40.4105Z" fill="#F2F2F2"/>
<path d="M40.8822 41.5511L47.8985 29.5735C48.0764 29.2698 48.3307 29.0179 48.6361 28.8428C48.9415 28.6678 49.2874 28.5757 49.6394 28.5757C49.9914 28.5757 50.3373 28.6678 50.6427 28.8428C50.9481 29.0179 51.2024 29.2698 51.3803 29.5735L58.3967 41.5511C58.5762 41.8577 58.6717 42.2062 58.6734 42.5614C58.675 42.9166 58.5829 43.266 58.4062 43.5742C58.2296 43.8825 57.9747 44.1386 57.6673 44.3167C57.36 44.4948 57.011 44.5886 56.6558 44.5886H42.623C42.2678 44.5885 41.9189 44.4948 41.6115 44.3166C41.3041 44.1385 41.0492 43.8824 40.8726 43.5742C40.6959 43.266 40.6038 42.9166 40.6055 42.5614C40.6072 42.2062 40.7026 41.8577 40.8822 41.5511V41.5511Z" fill="#FF9300"/>
<path d="M42.6228 43.5795C42.4452 43.5794 42.2708 43.5325 42.1172 43.4434C41.9636 43.3544 41.8362 43.2263 41.7479 43.0722C41.6595 42.9182 41.6135 42.7435 41.6143 42.5659C41.6151 42.3884 41.6627 42.2141 41.7524 42.0609L48.7688 30.0832C48.8578 29.9314 48.985 29.8054 49.1378 29.718C49.2905 29.6305 49.4635 29.5844 49.6395 29.5845C49.8155 29.5845 49.9885 29.6306 50.1412 29.7181C50.2939 29.8056 50.4211 29.9316 50.5101 30.0835L57.5259 42.0609C57.6157 42.2141 57.6635 42.3884 57.6644 42.566C57.6652 42.7436 57.6192 42.9183 57.5308 43.0725C57.4425 43.2266 57.3151 43.3546 57.1614 43.4437C57.0077 43.5327 56.8332 43.5796 56.6555 43.5795L42.6228 43.5795Z" fill="#FFCA00"/>
<path d="M49.6394 33.7964V38.6284" stroke="#FF9300" stroke-width="1.00881" stroke-miterlimit="10" stroke-linecap="round"/>
<path d="M49.6393 41.6853C50.0087 41.6853 50.3081 41.3859 50.3081 41.0165C50.3081 40.6471 50.0087 40.3477 49.6393 40.3477C49.2699 40.3477 48.9705 40.6471 48.9705 41.0165C48.9705 41.3859 49.2699 41.6853 49.6393 41.6853Z" fill="#FF9300"/>
<path opacity="0.2" fill-rule="evenodd" clip-rule="evenodd" d="M30.5562 70.2798H68.7224V41.8522L56.0421 51.6325L52.642 48.4316C51.8291 47.6669 50.7551 47.2412 49.639 47.2412C48.523 47.2412 47.449 47.6669 46.6361 48.4316L43.3353 51.5366L30.5562 41.3911V70.2798Z" fill="#767676"/>
<path fill-rule="evenodd" clip-rule="evenodd" d="M43.4455 54.1782L25.1635 72.4601C24.8662 72.1679 24.63 71.8193 24.469 71.4347C24.3079 71.0502 24.2252 70.6374 24.2256 70.2205V41.6301C24.2236 40.8621 24.5066 40.1206 25.0198 39.5493L43.4455 54.1782Z" fill="#F2F2F2"/>
<path fill-rule="evenodd" clip-rule="evenodd" d="M75.0533 41.63V70.2204C75.0538 70.6373 74.9712 71.0501 74.8103 71.4346C74.6494 71.8192 74.4134 72.1678 74.1162 72.46L55.9136 54.2574L74.5291 39.8987C74.8713 40.4112 75.0537 41.0137 75.0533 41.63Z" fill="#F2F2F2"/>
<path fill-rule="evenodd" clip-rule="evenodd" d="M74.1157 72.4599C73.8234 72.7572 73.4748 72.9932 73.0903 73.1541C72.7057 73.315 72.293 73.3976 71.8761 73.3971H27.4021C26.9854 73.3975 26.5727 73.3149 26.1883 73.154C25.8039 72.9931 25.4555 72.7571 25.1633 72.4599L43.4453 54.1779L48.0062 49.888C48.4482 49.4723 49.0322 49.2409 49.639 49.241C50.2458 49.2411 50.8297 49.4727 51.2715 49.8886L55.9131 54.2574L74.1157 72.4599Z" fill="white"/>
<path opacity="0.2" fill-rule="evenodd" clip-rule="evenodd" d="M62.9685 73.3971C63.3225 71.8017 63.497 70.1718 63.4888 68.5376V61.5141C63.488 60.7509 63.1844 60.0192 62.6446 59.4795C62.1049 58.9399 61.3731 58.6364 60.6099 58.6357C56.231 58.6357 53.269 57.7861 51.8022 56.103C51.5289 55.7991 51.1946 55.5563 50.821 55.3903C50.4475 55.2243 50.0432 55.1389 49.6345 55.1397C49.2258 55.1404 48.8218 55.2273 48.4489 55.3946C48.076 55.5619 47.7425 55.806 47.4702 56.1108C46.0102 57.7861 43.0484 58.6357 38.6685 58.6357C37.9054 58.6366 37.1738 58.9402 36.6343 59.4798C36.0948 60.0194 35.7913 60.7511 35.7906 61.5141V68.5376C35.7823 70.1717 35.9567 71.8017 36.3106 73.3971H62.9685Z" fill="#767676"/>
<path fill-rule="evenodd" clip-rule="evenodd" d="M49.6391 58.0151C47.3383 60.6502 43.2878 61.525 38.6685 61.525V68.5448C38.6685 75.7851 41.8761 80.4436 49.6391 84.3446C57.4021 80.4436 60.6097 75.7851 60.6097 68.5448V61.525C55.9903 61.525 51.9399 60.6502 49.6391 58.0151Z" fill="#C3F1FF"/>
<path fill-rule="evenodd" clip-rule="evenodd" d="M49.6394 58.0151V84.3446C57.4024 80.4436 60.61 75.7851 60.61 68.5448V61.525C55.9906 61.525 51.9402 60.6502 49.6394 58.0151Z" fill="#9CEBFF"/>
<path fill-rule="evenodd" clip-rule="evenodd" d="M39.547 62.382V68.5412C39.547 75.3405 42.4773 79.6612 49.6393 83.3631C56.8013 79.6576 59.7316 75.3405 59.7316 68.5377V62.382C55.1193 62.2682 51.7979 61.2405 49.6393 59.2562C47.4772 61.2405 44.1593 62.2682 39.547 62.382ZM49.6393 85.223C49.5024 85.2224 49.3674 85.1908 49.2445 85.1305C41.2148 81.0943 37.7903 76.13 37.7903 68.5377V61.5143C37.7902 61.3989 37.8129 61.2847 37.857 61.1781C37.9012 61.0715 37.9659 60.9747 38.0474 60.8931C38.129 60.8115 38.2259 60.7468 38.3325 60.7027C38.439 60.6586 38.5533 60.6359 38.6686 60.6359C43.7219 60.6359 47.0931 59.5869 48.9778 57.4248C49.0628 57.3347 49.1653 57.2629 49.2791 57.2138C49.3928 57.1647 49.5154 57.1394 49.6393 57.1394C49.7631 57.1394 49.8857 57.1647 49.9995 57.2138C50.1132 57.2629 50.2157 57.3347 50.3007 57.4248C52.1855 59.5869 55.5567 60.636 60.6099 60.636C60.8427 60.6365 61.0658 60.7292 61.2304 60.8938C61.3951 61.0584 61.4878 61.2816 61.4883 61.5144V68.5377C61.4883 76.13 58.0637 81.0908 50.034 85.127C49.912 85.19 49.7766 85.2229 49.6393 85.223V85.223Z" fill="#1F56A3"/>
</g>
<defs>
<linearGradient id="paint0_linear" x1="47.8698" y1="-15.153" x2="51.8525" y2="130.615" gradientUnits="userSpaceOnUse">
<stop stop-color="#00ABDE"/>
<stop offset="1" stop-color="#007ED8"/>
</linearGradient>
<clipPath id="clip0">
<rect width="99.2799" height="99.28" fill="white"/>
</clipPath>
</defs>
</svg>
