<svg width="100" height="100" viewBox="0 0 100 100" fill="none" xmlns="http://www.w3.org/2000/svg">
<g clip-path="url(#clip0)">
<path d="M49.6401 96.4481C40.382 96.4481 31.3317 93.7028 23.6339 88.5592C15.936 83.4157 9.93624 76.105 6.3933 67.5516C2.85036 58.9981 1.92337 49.5862 3.72954 40.506C5.53571 31.4257 9.99394 23.085 16.5404 16.5385C23.0869 9.99198 31.4277 5.53376 40.5079 3.72759C49.5882 1.92141 59.0001 2.84841 67.5535 6.39135C76.1069 9.93428 83.4176 15.934 88.5612 23.6319C93.7047 31.3298 96.4501 40.38 96.4501 49.6381C96.4505 55.7854 95.24 61.8726 92.8878 67.5521C90.5355 73.2315 87.0875 78.392 82.7407 82.7388C78.3939 87.0856 73.2335 90.5335 67.554 92.8858C61.8746 95.2381 55.7874 96.4486 49.6401 96.4481V96.4481Z" fill="url(#paint0_linear)"/>
<path fill-rule="evenodd" clip-rule="evenodd" d="M95.54 49.64C95.54 58.7182 92.848 67.5925 87.8045 75.1407C82.7609 82.6889 75.5923 88.572 67.2052 92.0461C58.818 95.5201 49.5891 96.4291 40.6854 94.658C31.7816 92.887 23.603 88.5154 17.1838 82.0962C10.7646 75.677 6.39302 67.4984 4.62196 58.5946C2.85089 49.6909 3.75987 40.462 7.23393 32.0748C10.708 23.6877 16.5911 16.5191 24.1393 11.4755C31.6875 6.43199 40.5618 3.74 49.64 3.74C55.6677 3.73998 61.6363 4.9272 67.2052 7.23388C72.774 9.54057 77.834 12.9215 82.0963 17.1837C86.3585 21.446 89.7394 26.5059 92.0461 32.0748C94.3528 37.6437 95.54 43.6123 95.54 49.64V49.64ZM49.64 3.62732e-07C59.4579 3.62732e-07 69.0553 2.91134 77.2185 8.36585C85.3818 13.8204 91.7442 21.5731 95.5014 30.6436C99.2585 39.7141 100.242 49.6951 98.3262 59.3243C96.4108 68.9535 91.6831 77.7985 84.7408 84.7408C77.7985 91.6831 68.9535 96.4108 59.3243 98.3262C49.6951 100.242 39.7141 99.2585 30.6436 95.5014C21.5731 91.7442 13.8204 85.3818 8.36585 77.2185C2.91134 69.0553 3.62732e-07 59.4579 3.62732e-07 49.64C-0.000787738 43.121 1.28265 36.6656 3.77702 30.6427C6.27138 24.6197 9.9278 19.1471 14.5375 14.5375C19.1471 9.9278 24.6197 6.27138 30.6427 3.77702C36.6656 1.28265 43.121 -0.000787738 49.64 3.62732e-07V3.62732e-07Z" fill="#F2F1F0"/>
<path fill-rule="evenodd" clip-rule="evenodd" d="M92.7296 49.6386C92.7296 58.161 90.2024 66.492 85.4676 73.5781C80.7328 80.6643 74.0031 86.1872 66.1294 89.4486C58.2558 92.71 49.5918 93.5633 41.2332 91.9007C32.8745 90.238 25.1966 86.1341 19.1704 80.1079C13.1441 74.0816 9.0402 66.4037 7.37756 58.0451C5.71493 49.6864 6.56825 41.0225 9.82963 33.1488C13.091 25.2751 18.614 18.5454 25.7001 13.8106C32.7862 9.07581 41.1172 6.54862 49.6396 6.54862C55.2984 6.54828 60.9018 7.6626 66.1298 9.82795C71.3579 11.9933 76.1083 15.1673 80.1096 19.1686C84.1109 23.17 87.2849 27.9203 89.4503 33.1484C91.6156 38.3765 92.7299 43.9799 92.7296 49.6386V49.6386ZM49.6396 2.80862C58.9017 2.80862 67.9558 5.55515 75.657 10.7009C83.3581 15.8466 89.3604 23.1605 92.9049 31.7176C96.4493 40.2746 97.3767 49.6906 95.5698 58.7747C93.7628 67.8588 89.3027 76.2031 82.7534 82.7524C76.2041 89.3017 67.8598 93.7619 58.7757 95.5688C49.6916 97.3757 40.2756 96.4484 31.7185 92.9039C23.1615 89.3594 15.8476 83.3571 10.7019 75.656C5.55613 67.9548 2.8096 58.9007 2.8096 49.6386C2.81079 37.2189 7.74503 25.3082 16.5271 16.5261C25.3092 7.74403 37.2199 2.80979 49.6396 2.80859V2.80862Z" fill="#0078D4"/>
<path fill-rule="evenodd" clip-rule="evenodd" d="M92.7296 49.6386C92.7296 58.161 90.2024 66.492 85.4676 73.5781C80.7328 80.6643 74.0031 86.1872 66.1294 89.4486C58.2558 92.71 49.5918 93.5633 41.2332 91.9007C32.8745 90.238 25.1966 86.1341 19.1704 80.1079C13.1441 74.0816 9.0402 66.4037 7.37756 58.0451C5.71493 49.6864 6.56825 41.0225 9.82963 33.1488C13.091 25.2751 18.614 18.5454 25.7001 13.8106C32.7862 9.07581 41.1172 6.54862 49.6396 6.54862C55.2984 6.54828 60.9018 7.6626 66.1298 9.82795C71.3579 11.9933 76.1083 15.1673 80.1096 19.1686C84.1109 23.17 87.2849 27.9203 89.4503 33.1484C91.6156 38.3765 92.7299 43.9799 92.7296 49.6386V49.6386ZM49.6396 2.80862C58.9017 2.80862 67.9558 5.55515 75.657 10.7009C83.3581 15.8466 89.3604 23.1605 92.9049 31.7176C96.4493 40.2746 97.3767 49.6906 95.5698 58.7747C93.7628 67.8588 89.3027 76.2031 82.7534 82.7524C76.2041 89.3017 67.8598 93.7619 58.7757 95.5688C49.6916 97.3757 40.2756 96.4484 31.7185 92.9039C23.1615 89.3594 15.8476 83.3571 10.7019 75.656C5.55613 67.9548 2.8096 58.9007 2.8096 49.6386C2.81079 37.2189 7.74503 25.3082 16.5271 16.5261C25.3092 7.74403 37.2199 2.80979 49.6396 2.80859V2.80862Z" fill="#0078D4"/>
<path fill-rule="evenodd" clip-rule="evenodd" d="M31.1254 41.3906C30.2335 41.3932 29.3788 41.7487 28.748 42.3795C28.1173 43.0102 27.7618 43.8649 27.7592 44.7569V68.3204H71.52V44.7569C71.5174 43.8649 71.1619 43.0102 70.5312 42.3795C69.9005 41.7487 69.0458 41.3933 68.1538 41.3906L31.1254 41.3906ZM68.1538 43.0737C68.6 43.0743 69.0277 43.2518 69.3432 43.5674C69.6588 43.8829 69.8363 44.3106 69.8369 44.7568V66.6372H29.4423V44.7569C29.4428 44.3106 29.6202 43.8828 29.9358 43.5672C30.2513 43.2517 30.6792 43.0742 31.1254 43.0738L68.1538 43.0737Z" fill="#1F56A3"/>
<path fill-rule="evenodd" clip-rule="evenodd" d="M29.4423 44.7573C29.4428 44.3111 29.6202 43.8832 29.9358 43.5677C30.2514 43.2521 30.6792 43.0747 31.1255 43.0742H68.1538C68.6 43.0748 69.0277 43.2523 69.3433 43.5678C69.6588 43.8834 69.8363 44.3111 69.8369 44.7573V66.6377H29.4423V44.7573Z" fill="#0078D4"/>
<path fill-rule="evenodd" clip-rule="evenodd" d="M22.7099 68.3203V69.1619C22.7125 70.0538 23.068 70.9085 23.6987 71.5392C24.3294 72.17 25.1841 72.5255 26.0761 72.5281H73.2031C74.0951 72.5255 74.9498 72.17 75.5805 71.5392C76.2112 70.9085 76.5667 70.0538 76.5693 69.1619V68.3203L22.7099 68.3203Z" fill="#0078D4"/>
<path fill-rule="evenodd" clip-rule="evenodd" d="M47.9562 70.845H23.18C23.4734 71.3542 23.8952 71.7776 24.4033 72.073C24.9114 72.3683 25.4881 72.5252 26.0758 72.5281H73.2028C74.0948 72.5255 74.9495 72.17 75.5802 71.5393C76.2109 70.9085 76.5664 70.0538 76.569 69.1619V68.3203H49.6393V69.1619C49.6393 69.3829 49.5958 69.6018 49.5113 69.806C49.4267 70.0103 49.3027 70.1959 49.1464 70.3522C48.9901 70.5085 48.8046 70.6324 48.6003 70.717C48.3961 70.8016 48.1772 70.8451 47.9562 70.845V70.845Z" fill="#1F56A3"/>
<path fill-rule="evenodd" clip-rule="evenodd" d="M46.2734 70.0034H53.0058C53.4522 70.0033 53.8802 69.8259 54.1958 69.5103C54.5114 69.1947 54.6888 68.7667 54.6889 68.3203H44.5903C44.5903 68.7667 44.7677 69.1948 45.0833 69.5104C45.3989 69.8261 45.827 70.0034 46.2734 70.0034Z" fill="#003067"/>
<path d="M54.8212 52.6328H44.458C44.2701 52.6328 44.0841 52.6698 43.9105 52.7417C43.7369 52.8136 43.5791 52.919 43.4462 53.0519C43.3134 53.1848 43.208 53.3425 43.1361 53.5161C43.0642 53.6897 43.0272 53.8758 43.0272 54.0637V62.0785C43.0272 62.2664 43.0642 62.4525 43.1361 62.6261C43.208 62.7997 43.3134 62.9574 43.4462 63.0903C43.5791 63.2232 43.7369 63.3286 43.9105 63.4005C44.0841 63.4724 44.2701 63.5094 44.458 63.5094H54.8212C55.2007 63.5093 55.5646 63.3586 55.8329 63.0902C56.1013 62.8219 56.252 62.458 56.2521 62.0785V54.0637C56.252 53.6842 56.1013 53.3203 55.8329 53.0519C55.5646 52.7836 55.2007 52.6328 54.8212 52.6328V52.6328ZM50.3561 59.0296V60.3917C50.3565 60.4859 50.3382 60.5792 50.3024 60.6663C50.2666 60.7534 50.214 60.8326 50.1475 60.8993C50.081 60.966 50.002 61.019 49.9151 61.0551C49.8281 61.0912 49.7348 61.1098 49.6407 61.1098C49.5465 61.1098 49.4532 61.0912 49.3662 61.0551C49.2793 61.019 49.2003 60.966 49.1338 60.8993C49.0673 60.8326 49.0147 60.7534 48.9789 60.6663C48.9431 60.5792 48.9249 60.4859 48.9252 60.3917V59.0301C48.5162 58.8642 48.1775 58.5613 47.9672 58.1733C47.757 57.7852 47.6881 57.3361 47.7725 56.9029C47.857 56.4697 48.0894 56.0793 48.43 55.7985C48.7706 55.5178 49.1982 55.3642 49.6395 55.3641C50.0809 55.364 50.5086 55.5173 50.8494 55.7978C51.1901 56.0783 51.4228 56.4686 51.5075 56.9017C51.5921 57.3349 51.5236 57.7841 51.3135 58.1723C51.1035 58.5604 50.765 58.8635 50.3561 59.0296V59.0296Z" fill="#1F56A3"/>
<path d="M53.3083 51.1344H51.8775V49.8688C51.8775 49.2755 51.6418 48.7065 51.2223 48.287C50.8028 47.8675 50.2338 47.6318 49.6405 47.6318C49.0472 47.6318 48.4782 47.8675 48.0587 48.287C47.6392 48.7065 47.4035 49.2755 47.4035 49.8688V54.0014H45.9727V49.8688C45.9743 48.8971 46.3614 47.9657 47.0491 47.2792C47.7368 46.5926 48.6688 46.207 49.6405 46.207C50.6122 46.207 51.5442 46.5926 52.2319 47.2792C52.9196 47.9657 53.3067 48.8971 53.3083 49.8688V51.1344Z" fill="#1F56A3"/>
<path opacity="0.2" d="M31.0739 41.3906V45.9658C31.0752 47.0402 31.5026 48.0703 32.2623 48.8301C33.0221 49.5899 34.0522 50.0173 35.1267 50.0185H64.072C65.1465 50.0173 66.1766 49.5899 66.9364 48.8301C67.6961 48.0703 68.1235 47.0402 68.1248 45.9658V41.3906H31.0739Z" fill="#003067"/>
<path opacity="0.2" d="M71.52 72.5277V53.4932C69.1632 53.1664 66.7622 53.5207 64.6002 54.514C62.4382 55.5074 60.6055 57.0986 59.3183 59.0996C58.0311 61.1007 57.3432 63.4282 57.3357 65.8075C57.3282 68.1868 58.0015 70.5185 59.2761 72.5277H71.52Z" fill="#003067"/>
<path d="M64.0721 22.6094H35.1264C33.9927 22.6094 33.0735 23.5285 33.0735 24.6623V45.9664C33.0735 47.1001 33.9927 48.0193 35.1264 48.0193H64.0721C65.2059 48.0193 66.125 47.1001 66.125 45.9664V24.6623C66.125 23.5285 65.2059 22.6094 64.0721 22.6094Z" fill="white"/>
<path d="M60.8756 27.2539H38.4035C37.8512 27.2539 37.4035 27.7016 37.4035 28.2539V31.2163C37.4035 31.7686 37.8512 32.2163 38.4035 32.2163H60.8756C61.4278 32.2163 61.8756 31.7686 61.8756 31.2163V28.2539C61.8756 27.7016 61.4278 27.2539 60.8756 27.2539Z" fill="#F2F2F2"/>
<path d="M60.8756 34.2578H38.4035C37.8512 34.2578 37.4035 34.7055 37.4035 35.2578V38.2202C37.4035 38.7725 37.8512 39.2202 38.4035 39.2202H60.8756C61.4278 39.2202 61.8756 38.7725 61.8756 38.2202V35.2578C61.8756 34.7055 61.4278 34.2578 60.8756 34.2578Z" fill="#F2F2F2"/>
<path d="M60.3522 41.125H51.1227C50.2813 41.125 49.5993 41.807 49.5993 42.6484C49.5993 43.4897 50.2813 44.1718 51.1227 44.1718H60.3522C61.1935 44.1718 61.8756 43.4897 61.8756 42.6484C61.8756 41.807 61.1935 41.125 60.3522 41.125Z" fill="#F2F2F2"/>
<path d="M40.3154 30.808C40.9064 30.808 41.3855 30.3289 41.3855 29.738C41.3855 29.147 40.9064 28.668 40.3154 28.668C39.7245 28.668 39.2454 29.147 39.2454 29.738C39.2454 30.3289 39.7245 30.808 40.3154 30.808Z" fill="#B3B3B3"/>
<path d="M43.6201 30.808C44.2111 30.808 44.6902 30.3289 44.6902 29.738C44.6902 29.147 44.2111 28.668 43.6201 28.668C43.0292 28.668 42.5501 29.147 42.5501 29.738C42.5501 30.3289 43.0292 30.808 43.6201 30.808Z" fill="#B3B3B3"/>
<path d="M46.9248 30.808C47.5157 30.808 47.9948 30.3289 47.9948 29.738C47.9948 29.147 47.5157 28.668 46.9248 28.668C46.3338 28.668 45.8548 29.147 45.8548 29.738C45.8548 30.3289 46.3338 30.808 46.9248 30.808Z" fill="#B3B3B3"/>
<path d="M50.2295 30.808C50.8205 30.808 51.2995 30.3289 51.2995 29.738C51.2995 29.147 50.8205 28.668 50.2295 28.668C49.6385 28.668 49.1595 29.147 49.1595 29.738C49.1595 30.3289 49.6385 30.808 50.2295 30.808Z" fill="#B3B3B3"/>
<path d="M53.5342 30.808C54.1251 30.808 54.6042 30.3289 54.6042 29.738C54.6042 29.147 54.1251 28.668 53.5342 28.668C52.9432 28.668 52.4642 29.147 52.4642 29.738C52.4642 30.3289 52.9432 30.808 53.5342 30.808Z" fill="#B3B3B3"/>
<path d="M41.7682 36.7511L40.8488 36.8752L41.5065 37.5832L40.8958 38.0027L40.4361 37.1504L39.9763 38.0027L39.3623 37.5832L40.0233 36.8752L39.1039 36.7511L39.3421 36.0733L40.1877 36.4357L40.0434 35.4727H40.8287L40.6844 36.4357L41.5233 36.0733L41.7682 36.7511Z" fill="#B3B3B3"/>
<path d="M44.9523 36.7511L44.0328 36.8752L44.6905 37.5832L44.0798 38.0027L43.6201 37.1504L43.1604 38.0027L42.5463 37.5832L43.2074 36.8752L42.288 36.7511L42.5262 36.0733L43.3718 36.4357L43.2276 35.4727H44.0128L43.8685 36.4357L44.7074 36.0733L44.9523 36.7511Z" fill="#B3B3B3"/>
<path d="M48.1363 36.7511L47.2169 36.8752L47.8746 37.5832L47.2639 38.0027L46.8042 37.1504L46.3445 38.0027L45.7304 37.5832L46.3914 36.8752L45.472 36.7511L45.7102 36.0733L46.5558 36.4357L46.4115 35.4727H47.1968L47.0525 36.4357L47.8914 36.0733L48.1363 36.7511Z" fill="#B3B3B3"/>
<path d="M51.3204 36.7511L50.401 36.8752L51.0587 37.5832L50.448 38.0027L49.9883 37.1504L49.5285 38.0027L48.9145 37.5832L49.5755 36.8752L48.656 36.7511L48.8943 36.0733L49.7399 36.4357L49.5956 35.4727H50.3808L50.2365 36.4357L51.0754 36.0733L51.3204 36.7511Z" fill="#B3B3B3"/>
<path d="M54.5045 36.7511L53.585 36.8752L54.2427 37.5832L53.632 38.0027L53.1723 37.1504L52.7126 38.0027L52.0985 37.5832L52.7596 36.8752L51.8401 36.7511L52.0784 36.0733L52.924 36.4357L52.7797 35.4727H53.5649L53.4206 36.4357L54.2595 36.0733L54.5045 36.7511Z" fill="#B3B3B3"/>
<path d="M57.6886 36.7511L56.7691 36.8752L57.4268 37.5832L56.8161 38.0027L56.3564 37.1504L55.8967 38.0027L55.2826 37.5832L55.9437 36.8752L55.0242 36.7511L55.2625 36.0733L56.1081 36.4357L55.9638 35.4727H56.749L56.6047 36.4357L57.4436 36.0733L57.6886 36.7511Z" fill="#B3B3B3"/>
<path d="M69.8369 76.3699C75.6366 76.3699 80.3382 71.6683 80.3382 65.8685C80.3382 60.0688 75.6366 55.3672 69.8369 55.3672C64.0371 55.3672 59.3355 60.0688 59.3355 65.8685C59.3355 71.6683 64.0371 76.3699 69.8369 76.3699Z" fill="white"/>
<path fill-rule="evenodd" clip-rule="evenodd" d="M72.3218 65.8697C72.3218 66.3612 72.1761 66.8416 71.903 67.2503C71.63 67.6589 71.2419 67.9774 70.7878 68.1655C70.3337 68.3536 69.8341 68.4028 69.3521 68.3069C68.8701 68.211 68.4273 67.9744 68.0798 67.6268C67.7322 67.2793 67.4956 66.8365 67.3997 66.3545C67.3038 65.8725 67.353 65.3728 67.5411 64.9188C67.7292 64.4647 68.0477 64.0766 68.4563 63.8036C68.865 63.5305 69.3454 63.3848 69.8369 63.3848C70.4957 63.3856 71.1273 63.6476 71.5931 64.1135C72.0589 64.5793 72.321 65.2109 72.3218 65.8697V65.8697ZM76.9142 64.5313L75.7587 64.2744C75.6391 64.2309 75.5415 64.1419 75.4871 64.0269C75.4833 64.0142 75.4787 64.0018 75.4734 63.9896L75.1546 63.2148C75.1491 63.2014 75.1429 63.188 75.1362 63.1751C75.093 63.0563 75.0987 62.9251 75.1521 62.8105L75.7878 61.8116C75.9178 61.5953 75.9733 61.3423 75.9458 61.0915C75.9183 60.8406 75.8092 60.6057 75.6354 60.4228L75.2838 60.0712C75.0992 59.9003 74.8646 59.7933 74.6145 59.7659C74.3645 59.7385 74.1123 59.7921 73.895 59.9188L72.8958 60.5542C72.8321 60.5861 72.7615 60.6015 72.6903 60.5989C72.6359 60.6009 72.5818 60.5912 72.5315 60.5704C72.5186 60.5634 72.5052 60.5573 72.4915 60.552L71.717 60.2329C71.7048 60.2278 71.6923 60.2233 71.6797 60.2195C71.5646 60.165 71.4757 60.0673 71.4322 59.9476L71.1755 58.7924C71.1145 58.5475 70.9748 58.3293 70.7779 58.1714C70.581 58.0134 70.3377 57.9244 70.0854 57.918H69.5884C69.3361 57.9243 69.0928 58.0133 68.8959 58.1712C68.6991 58.3291 68.5594 58.5473 68.4985 58.7922L68.2415 59.9482C68.1978 60.0675 68.1089 60.165 67.994 60.2195C67.9814 60.2232 67.9689 60.228 67.9565 60.2329L67.182 60.552C67.1683 60.5574 67.1549 60.5635 67.142 60.5704C67.0917 60.5913 67.0375 60.601 66.9832 60.599C66.9119 60.6013 66.8412 60.5859 66.7774 60.5542L65.7787 59.9191C65.5614 59.7924 65.3092 59.7388 65.0592 59.7662C64.8092 59.7937 64.5746 59.9006 64.3899 60.0714L64.0383 60.4228C63.8644 60.6058 63.7554 60.8407 63.7279 61.0916C63.7004 61.3425 63.7559 61.5955 63.886 61.8118L64.5216 62.8105C64.5748 62.9251 64.5805 63.0561 64.5375 63.1748C64.5308 63.188 64.5243 63.2014 64.5189 63.2148L64.2001 63.9896C64.1951 64.0018 64.1904 64.0142 64.1864 64.0269C64.132 64.142 64.0344 64.231 63.9148 64.2746L62.7595 64.5311C62.5146 64.5921 62.2964 64.7318 62.1385 64.9287C61.9805 65.1256 61.8915 65.3689 61.8851 65.6212V66.1182C61.8915 66.3705 61.9805 66.6137 62.1384 66.8106C62.2963 67.0075 62.5144 67.1471 62.7593 67.2081L63.915 67.4648C64.0345 67.5085 64.132 67.5975 64.1864 67.7126C64.1904 67.7252 64.1951 67.7376 64.2001 67.7498L64.5189 68.5246C64.5243 68.5381 64.5306 68.5512 64.5375 68.5644C64.5805 68.6833 64.5747 68.8143 64.5214 68.9289L63.886 69.9276C63.7558 70.1439 63.7003 70.3969 63.7278 70.6479C63.7553 70.8988 63.8644 71.1337 64.0383 71.3167L64.3899 71.6683C64.5747 71.839 64.8093 71.9459 65.0593 71.9734C65.3094 72.0008 65.5616 71.9472 65.779 71.8206L66.7772 71.1852C66.8411 71.1534 66.9119 71.1381 66.9832 71.1405C67.0376 71.1383 67.0917 71.1481 67.142 71.1691C67.1551 71.1755 67.1683 71.182 67.182 71.1875L67.9565 71.5065C67.9689 71.5115 67.9814 71.516 67.994 71.52C68.109 71.5745 68.1978 71.6721 68.2415 71.7916L68.4985 72.947C68.5594 73.192 68.699 73.4102 68.8959 73.5682C69.0927 73.7262 69.336 73.8151 69.5884 73.8215H70.0854C70.3377 73.8151 70.5809 73.726 70.7778 73.5681C70.9746 73.4101 71.1143 73.192 71.1752 72.947L71.4322 71.7916C71.4758 71.672 71.5647 71.5745 71.6797 71.52C71.6924 71.516 71.7048 71.5115 71.717 71.5065L72.4915 71.1875C72.5052 71.182 72.5186 71.1755 72.5315 71.1691C72.5817 71.1482 72.6358 71.1384 72.69 71.1405C72.7613 71.138 72.832 71.1534 72.8958 71.1852L73.8948 71.8204C74.112 71.9472 74.3643 72.0008 74.6144 71.9734C74.8644 71.9461 75.0991 71.8391 75.2838 71.6683L75.6352 71.3169C75.8091 71.1339 75.9182 70.899 75.9457 70.648C75.9733 70.3971 75.9178 70.144 75.7878 69.9276L75.1521 68.9289C75.1257 68.8722 75.1107 68.8109 75.1079 68.7484C75.1052 68.6859 75.1148 68.6234 75.1362 68.5646C75.1429 68.5515 75.1491 68.5383 75.1546 68.5249L75.4734 67.7498C75.4787 67.7377 75.4833 67.7252 75.4871 67.7126C75.5416 67.5974 75.6393 67.5084 75.7589 67.4648L76.9139 67.2081C77.1589 67.1472 77.3772 67.0076 77.5352 66.8108C77.6932 66.6139 77.7822 66.3706 77.7886 66.1182V65.6212C77.7823 65.3689 77.6933 65.1256 77.5353 64.9287C77.3774 64.7318 77.1591 64.5922 76.9142 64.5313V64.5313Z" fill="#0078D4"/>
</g>
<defs>
<linearGradient id="paint0_linear" x1="47.8697" y1="-15.155" x2="51.8525" y2="130.613" gradientUnits="userSpaceOnUse">
<stop stop-color="#00ABDE"/>
<stop offset="1" stop-color="#007ED8"/>
</linearGradient>
<clipPath id="clip0">
<rect width="99.2799" height="99.28" fill="white"/>
</clipPath>
</defs>
</svg>
