<?xml version="1.0" encoding="UTF-8"?>
<svg width="100px" height="118px" viewBox="0 0 100 118" version="1.1" xmlns="http://www.w3.org/2000/svg" xmlns:xlink="http://www.w3.org/1999/xlink">
    <!-- Generator: Sketch 55.2 (78181) - https://sketchapp.com -->
    <title>Office in Windows for IT/office-in-windows-for-it</title>
    <desc>Created with Sketch.</desc>
    <defs>
        <path d="M42.7425,1.49663266 C44.3745,0.498877554 46.1865,0 48,0 C49.8135,0 51.627,0.498877554 53.256,1.49663266 L90.591,24.3316189 C93.933,26.3773408 96,30.2031485 96,34.3529027 L96,79.6470973 C96,83.7952317 93.933,87.6242789 90.591,89.6683811 L53.256,112.504987 C51.627,113.501122 49.8135,114 48,114 C46.1865,114 44.3745,113.501122 42.7425,112.504987 L5.409,89.6683811 C2.0655,87.6242789 0,83.7952317 0,79.6470973 L0,34.3529027 C0,30.2031485 2.0655,26.3773408 5.409,24.3316189 L42.7425,1.49663266 Z" id="path-1"></path>
        <filter x="-4.8%" y="-8.0%" width="109.5%" height="116.0%" filterUnits="objectBoundingBox" id="filter-3">
            <feOffset dx="0" dy="2" in="SourceAlpha" result="shadowOffsetOuter1"></feOffset>
            <feColorMatrix values="0 0 0 0 0   0 0 0 0 0   0 0 0 0 0  0 0 0 0.0964956975 0" type="matrix" in="shadowOffsetOuter1" result="shadowMatrixOuter1"></feColorMatrix>
            <feMerge>
                <feMergeNode in="shadowMatrixOuter1"></feMergeNode>
                <feMergeNode in="SourceGraphic"></feMergeNode>
            </feMerge>
        </filter>
    </defs>
    <g id="Badges" stroke="none" stroke-width="1" fill="none" fill-rule="evenodd">
        <g id="Office-in-Windows-for-IT" transform="translate(-50.000000, -50.000000)">
            <g id="Office-in-Windows-for-IT/office-in-windows-for-it" transform="translate(50.000000, 50.000000)">
                <g id="Mask" transform="translate(2.000000, 2.000000)">
                    <mask id="mask-2" fill="white">
                        <use xlink:href="#path-1"></use>
                    </mask>
                    <use id="Trophy-1" fill="#55A2FF" xlink:href="#path-1"></use>
                    <g id="Laptop" filter="url(#filter-3)" mask="url(#mask-2)">
                        <g transform="translate(6.000000, 31.000000)">
                            <path d="M0,41.9907487 L0,44.6151705 C0,47.5020345 2.36197962,49.8640141 5.24884359,49.8640141 L78.7326539,49.8640141 C81.6195179,49.8640141 83.9814975,47.5020345 83.9814975,44.6151705 L83.9814975,41.9907487 L0,41.9907487" id="Fill-1415" fill="#E1E4E1"></path>
                            <path d="M13.122109,0 C10.235245,0 7.87326539,2.36197962 7.87326539,5.24884359 L7.87326539,41.9907487 L76.1082321,41.9907487 L76.1082321,5.24884359 C76.1082321,2.36197962 73.7462525,0 70.8593885,0 L13.122109,0 Z M70.8593885,2.6244218 C72.3054449,2.6244218 73.4838103,3.80147497 73.4838103,5.24884359 L73.4838103,39.3663269 L10.4976872,39.3663269 L10.4976872,5.24884359 C10.4976872,3.80147497 11.6747404,2.6244218 13.122109,2.6244218 L70.8593885,2.6244218 L70.8593885,2.6244218 Z" id="Fill-1416" fill="#182A37"></path>
                            <path d="M10.4976872,5.24884359 C10.4976872,3.80147497 11.6747404,2.6244218 13.122109,2.6244218 L70.8593885,2.6244218 C72.3054449,2.6244218 73.4838103,3.80147497 73.4838103,5.24884359 L73.4838103,39.3663269 L10.4976872,39.3663269 L10.4976872,5.24884359" id="Fill-1417" fill="#30404D"></path>
                            <path d="M13.122109,2.6244218 L41.1889879,2.6244218 L28.3581897,39.3663269 L10.4976872,39.3663269 L10.4976872,5.24884359 C10.4976872,3.80147497 11.6747404,2.6244218 13.122109,2.6244218" id="Fill-1418" fill="#384B58"></path>
                            <path d="M13.122109,0 L41.9907487,0 L41.1889879,2.6244218 L13.122109,2.6244218 C11.6747404,2.6244218 10.4976872,3.80147497 10.4976872,5.24884359 L10.4976872,39.3663269 L28.3581897,39.3663269 L27.5564289,41.9907487 L7.87326539,41.9907487 L7.87326539,5.24884359 C7.87326539,2.36197962 10.235245,0 13.122109,0" id="Fill-1419" fill="#30404D"></path>
                            <path d="M39.3663269,47.2395923 L0.733525892,47.2395923 C1.64551247,48.7984989 3.32120578,49.8640141 5.24884359,49.8640141 L78.7326539,49.8640141 C81.6195179,49.8640141 83.9814975,47.5020345 83.9814975,44.6151705 L83.9814975,41.9907487 L41.9907487,41.9907487 L41.9907487,44.6151705 C41.9907487,46.0651636 40.81632,47.2395923 39.3663269,47.2395923" id="Fill-1420" fill="#CDD6D8"></path>
                            <path d="M36.7419051,44.6151705 L47.2395923,44.6151705 C48.6882732,44.6151705 49.8640141,43.4394296 49.8640141,41.9907487 L34.1174834,41.9907487 C34.1174834,43.4394296 35.2919121,44.6151705 36.7419051,44.6151705" id="Fill-1421" fill="#AAB0B1"></path>
                        </g>
                    </g>
                    <polygon id="Path" fill="#F65B23" fill-rule="nonzero" mask="url(#mask-2)" points="34.2950925 62.115805 34.2950925 42.0541218 52.0420462 35.4953744 61.686405 38.5820276 61.686405 65.5878992 52.0420462 68.4953744 34.2950925 62.115805 52.0420462 64.2513564 52.0420462 40.896757 40.4673571 43.5974484 40.4673571 59.4156345"></polygon>
                </g>
                <g id="Azure-Hex-Border" stroke="#0078D4" stroke-width="4">
                    <path d="M45.5618501,3.25844398 L45.5621963,3.25823359 L6.67338401,26.8942953 C3.79673288,28.6432593 2,31.9508238 2,35.5582677 L2,82.4417323 C2,86.0486597 3.79764663,89.3586805 6.67318764,91.1055853 L45.560618,114.742485 C46.9289662,115.572418 48.4546283,116 50,116 C51.5458817,116 53.0723633,115.572188 54.4362178,114.743457 L93.3268764,91.1055464 C96.2016145,89.3583456 98,86.0476286 98,82.4417323 L98,35.5582677 C98,31.9518547 96.202529,28.6435953 93.3268966,26.8944659 L54.4351916,3.25759524 C53.0721095,2.42798656 51.5462432,2 50,2 C48.4542664,2 46.9292165,2.42775755 45.5618501,3.25844398 Z"></path>
                </g>
            </g>
        </g>
    </g>
</svg>