<svg width="160" height="189" viewBox="0 0 160 189" fill="none" xmlns="http://www.w3.org/2000/svg">
<g clip-path="url(#clip0_1023_1351)">
<path d="M80.0334 188.986C83.1147 188.981 86.1351 188.127 88.7638 186.52L150.739 148.86C153.52 147.096 155.804 144.651 157.375 141.757C158.945 138.862 159.749 135.615 159.711 132.322V57.607C159.747 54.3146 158.942 51.0675 157.372 48.1734C155.802 45.2793 153.519 42.834 150.739 41.0692L88.7638 3.40913C86.1303 1.82393 83.1147 0.986328 80.041 0.986328C76.9672 0.986328 73.9516 1.82393 71.3182 3.40913L9.34307 41.0843C6.55997 42.8467 4.27342 45.2911 2.70046 48.1855C1.12749 51.0798 0.32029 54.3282 0.355473 57.6222V132.322C0.33694 135.105 0.911657 137.861 2.04135 140.404C3.17104 142.948 4.82977 145.222 6.90707 147.075V147.101L71.3182 186.535C73.9438 188.135 76.9586 188.983 80.0334 188.986V188.986ZM80.6812 7.93851C82.6331 7.93851 85.1103 9.15143 86.8201 10.1954L147.577 47.3897C151.329 49.6745 153.445 56.2706 153.445 61.0216L152.813 132.322C152.813 137.073 149.614 141.341 145.861 143.626L85.4659 180.007C82.0313 182.095 79.2409 182.095 75.8062 180.007L14.5982 143.535C10.8458 141.251 7.82738 137.058 7.82738 132.322V58.6743C7.85989 56.3092 8.46888 53.9876 9.60155 51.9111C10.7342 49.8345 12.3563 48.0656 14.3273 46.7577L74.9035 10.1954C76.6132 9.15143 78.7294 7.93851 80.6812 7.93851Z" fill="#F2F1F0"/>
<path fill-rule="evenodd" clip-rule="evenodd" d="M87.9319 11.5191C85.561 10.0456 82.8252 9.26471 80.0337 9.26471C77.2422 9.26471 74.5064 10.0456 72.1355 11.5191L16.0008 45.8505C13.4748 47.4622 11.4025 49.6926 9.98047 52.33C8.55847 54.9675 7.83398 57.9246 7.87573 60.9207V129.024C7.83581 132.02 8.56109 134.976 9.98292 137.613C11.4048 140.25 13.4761 142.481 16.0008 144.094L72.1355 178.425C74.5063 179.899 77.2422 180.68 80.0337 180.68C82.8253 180.68 85.5612 179.899 87.9319 178.425L144.066 144.094C146.591 142.481 148.663 140.25 150.085 137.613C151.507 134.976 152.232 132.02 152.192 129.024V60.9207C152.23 57.9251 151.504 54.9693 150.082 52.3324C148.66 49.6956 146.59 47.4647 144.066 45.8505L87.9319 11.5191Z" fill="url(#paint0_linear_1023_1351)"/>
<path fill-rule="evenodd" clip-rule="evenodd" d="M80.0338 10.7407C81.717 10.7407 83.5997 11.6063 85.6665 12.8645L144.132 48.4068C146.024 49.6203 147.573 51.2972 148.634 53.2782C149.694 55.2592 150.231 57.4786 150.192 59.7253V130.204C150.231 132.451 149.694 134.67 148.634 136.651C147.573 138.632 146.024 140.309 144.132 141.522L85.6675 177.064L85.6665 177.065C83.9963 178.204 82.0512 178.875 80.0338 179.008C78.0163 178.875 76.0713 178.204 74.4011 177.065L74.4001 177.064L15.9378 141.524L15.9356 141.523C14.1473 140.559 12.6222 139.172 11.4938 137.483C10.5169 135.88 9.87578 133.665 9.87578 130.204V59.7253C9.83704 57.4786 10.3734 55.2593 11.434 53.2783C12.4945 51.2973 14.044 49.6204 15.9352 48.4069L74.392 12.8699L74.3961 12.8674C76.4799 11.6145 78.3401 10.7407 80.0338 10.7407ZM87.7463 9.44765L146.21 44.9889C148.689 46.559 150.723 48.7378 152.121 51.3175C153.518 53.8972 154.231 56.7918 154.192 59.7254V130.204C154.231 133.138 153.518 136.032 152.121 138.612C150.723 141.192 148.688 143.371 146.21 144.941L87.7453 180.482C85.4511 182.007 82.7857 182.88 80.0338 183.008C77.2819 182.88 74.6164 182.007 72.3222 180.482H72.3213L13.8575 144.94L13.855 144.939C11.5197 143.646 9.53644 141.801 8.07828 139.565C6.4837 136.712 5.72068 133.469 5.87578 130.204V59.7253C5.83672 56.7917 6.54983 53.897 7.94712 51.3173C9.34441 48.7375 11.3793 46.5588 13.8577 44.9887L72.3222 9.447L72.3304 9.44212C74.421 8.18471 77.1289 6.74066 80.0338 6.74066C82.92 6.74066 85.6371 8.16374 87.7463 9.4476V9.44765Z" fill="#0078D4"/>
<g opacity="0.2">
<path d="M139.965 133.012L80.4154 167.619L20.4764 133.013L80.0264 98.4063L139.965 133.012Z" fill="#003067"/>
</g>
<path d="M140.956 121.635L80.2334 156.923L19.1224 121.64L79.8444 86.3523L140.956 121.635Z" fill="#1B93EB"/>
<path d="M140.956 121.635L140.944 125.741L80.2224 161.029L80.2334 156.923L140.956 121.635Z" fill="#1F56A3"/>
<path d="M80.2335 156.923L80.2225 161.029L19.1105 125.746L19.1225 121.64L80.2335 156.923Z" fill="#0078D4"/>
<path opacity="0.1" d="M118.258 134.857L91.2806 119.281C91.027 119.195 90.8066 119.032 90.6502 118.815C90.4938 118.598 90.4093 118.337 90.4085 118.069C90.4076 117.802 90.4906 117.54 90.6456 117.322C90.8007 117.104 91.0202 116.939 91.2732 116.852L92.7575 115.989C93.406 115.658 94.1235 115.486 94.8513 115.486C95.5791 115.486 96.2966 115.658 96.945 115.989L123.922 131.565L118.258 134.857Z" fill="#003067"/>
<path d="M68.9975 69.9243L99.5675 52.4973L99.3995 111.707L68.8295 129.472L68.9975 69.9243Z" fill="#E8E8E8"/>
<path d="M60.9985 109.62L55.7429 106.586L55.7111 117.842L62.8129 121.942L62.8394 112.596C62.7883 111.99 62.5949 111.405 62.275 110.888C61.9552 110.371 61.5178 109.936 60.9985 109.62V109.62Z" fill="#003067"/>
<path d="M54.7678 89.6292C55.0324 89.7972 55.2536 90.0252 55.4135 90.2947C55.5734 90.5643 55.6675 90.8677 55.688 91.1804L55.6794 94.2247C55.6779 94.7763 55.2611 94.9926 54.7534 94.6994L51.0795 92.5783C50.8162 92.4115 50.5957 92.1852 50.4359 91.9176C50.276 91.65 50.1812 91.3486 50.1592 91.0377L50.1678 87.9934C50.1694 87.4312 50.5861 87.2149 51.0938 87.508L54.7678 89.6292Z" fill="#0078D4"/>
<path d="M63.5712 102.33C63.8331 102.496 64.0522 102.721 64.2105 102.988C64.3688 103.255 64.4619 103.555 64.4822 103.865L64.4735 106.909C64.4719 107.471 64.0645 107.693 63.5568 107.4L59.8828 105.279C59.6182 105.111 59.397 104.883 59.2371 104.613C59.0772 104.344 58.9831 104.04 58.9625 103.728L58.9712 100.683C58.9727 100.132 59.3894 99.9154 59.8972 100.209L63.5712 102.33Z" fill="#0078D4"/>
<path d="M63.5928 94.7243C63.856 94.8916 64.0758 95.1189 64.2342 95.3877C64.3926 95.6564 64.4849 95.9588 64.5038 96.2702L64.4952 99.3145C64.4936 99.8661 64.0861 100.088 63.5784 99.7945L59.9044 97.6734C59.6411 97.5066 59.4207 97.2802 59.2608 97.0126C59.101 96.745 59.0062 96.4436 58.9841 96.1327L58.9928 93.0884C58.9944 92.5262 59.4111 92.31 59.9188 92.6031L63.5928 94.7243Z" fill="#0078D4"/>
<path d="M54.8125 73.8986C55.077 74.0666 55.2983 74.2946 55.4582 74.5641C55.6181 74.8337 55.7121 75.1371 55.7327 75.4498L55.7241 78.4835C55.7225 79.0457 55.3058 79.262 54.7981 78.9689L51.1241 76.8477C50.8595 76.6797 50.6383 76.4517 50.4784 76.1822C50.3185 75.9126 50.2244 75.6091 50.2039 75.2964L50.2125 72.2627C50.214 71.7006 50.6308 71.4843 51.1385 71.7774L54.8125 73.8986Z" fill="#0078D4"/>
<path d="M54.8348 65.9962C55.0994 66.1641 55.3206 66.3922 55.4805 66.6617C55.6404 66.9313 55.7345 67.2347 55.7551 67.5475L55.7465 70.5917C55.7449 71.1433 55.3282 71.3596 54.8205 71.0664L51.1465 68.9453C50.8832 68.7785 50.6627 68.5522 50.5029 68.2846C50.343 68.017 50.2483 67.7156 50.2262 67.4047L50.2348 64.3604C50.2364 63.7982 50.6531 63.5819 51.1608 63.8751L54.8348 65.9962Z" fill="#0078D4"/>
<path d="M63.6374 78.9937C63.9007 79.161 64.1205 79.3884 64.2788 79.6571C64.4372 79.9258 64.5296 80.2283 64.5484 80.5396L64.5398 83.5733C64.5382 84.1355 64.1308 84.3571 63.6231 84.064L59.9491 81.9428C59.6845 81.7748 59.4633 81.5468 59.3034 81.2772C59.1435 81.0077 59.0494 80.7042 59.0288 80.3915L59.0374 77.3578C59.039 76.7957 59.4557 76.5794 59.9634 76.8725L63.6374 78.9937Z" fill="#0078D4"/>
<path d="M63.6597 71.0913C63.923 71.2586 64.1428 71.4859 64.3011 71.7547C64.4595 72.0234 64.5519 72.3258 64.5707 72.6372L64.5621 75.6815C64.5605 76.233 64.1531 76.4547 63.6454 76.1615L59.9714 74.0403C59.7081 73.8735 59.4877 73.6472 59.3278 73.3796C59.168 73.112 59.0732 72.8106 59.0511 72.4997L59.0598 69.4554C59.0614 68.8932 59.4781 68.6769 59.9858 68.97L63.6597 71.0913Z" fill="#0078D4"/>
<path d="M68.9805 69.9239C68.9918 70.0365 68.9974 70.1497 68.9972 70.2629L68.8294 129.473L62.8015 125.993L62.8395 112.596C62.7884 111.99 62.595 111.405 62.2751 110.888C61.9553 110.371 61.5179 109.936 60.9986 109.62L53.5953 105.346C52.5706 104.754 51.7374 105.123 51.7344 106.184L51.6964 119.581L45.6777 116.106L45.8456 56.8963C45.8456 56.7898 45.8518 56.6834 45.8642 56.5777L68.9805 69.9239ZM55.7465 70.5917L55.7551 67.5474C55.7345 67.2347 55.6405 66.9312 55.4806 66.6617C55.3207 66.3921 55.0995 66.1641 54.8349 65.9961L51.1609 63.875C50.6532 63.5818 50.2365 63.7981 50.2349 64.3603L50.2263 67.4046C50.2483 67.7155 50.3431 68.0169 50.5029 68.2845C50.6628 68.5521 50.8832 68.7784 51.1465 68.9453L54.8205 71.0664C55.3282 71.3595 55.745 71.1433 55.7465 70.5917M55.6795 94.2247L55.6882 91.1804C55.6676 90.8677 55.5735 90.5642 55.4136 90.2947C55.2537 90.0251 55.0325 89.7971 54.7679 89.6291L51.0939 87.508C50.5862 87.2148 50.1695 87.4311 50.1679 87.9933L50.1593 91.0376C50.1813 91.3485 50.2761 91.6499 50.4359 91.9175C50.5958 92.1852 50.8162 92.4115 51.0795 92.5783L54.7535 94.6995C55.2612 94.9926 55.6779 94.7763 55.6795 94.2248M55.658 101.82L55.6666 98.7753C55.6445 98.4643 55.5498 98.1629 55.3899 97.8953C55.2301 97.6277 55.0096 97.4014 54.7463 97.2346L51.0723 95.1134C50.5646 94.8203 50.1479 95.0366 50.1463 95.5882L50.1377 98.6325C50.1583 98.9452 50.2524 99.2486 50.4123 99.5182C50.5722 99.7877 50.7934 100.016 51.058 100.184L54.732 102.305C55.2397 102.598 55.6564 102.382 55.658 101.82M55.7241 78.4836L55.7327 75.4499C55.7121 75.1371 55.6181 74.8337 55.4582 74.5642C55.2983 74.2946 55.077 74.0666 54.8125 73.8986L51.1385 71.7775C50.6308 71.4843 50.2141 71.7006 50.2125 72.2628L50.2039 75.2965C50.2245 75.6092 50.3185 75.9126 50.4784 76.1822C50.6383 76.4517 50.8595 76.6798 51.1241 76.8477L54.7981 78.9689C55.3058 79.262 55.7225 79.0458 55.7241 78.4836M64.5622 75.6816L64.5708 72.6373C64.552 72.3259 64.4596 72.0235 64.3012 71.7547C64.1429 71.486 63.9231 71.2587 63.6598 71.0913L59.9858 68.9702C59.4781 68.677 59.0614 68.8933 59.0598 69.4555L59.0512 72.4998C59.0732 72.8107 59.168 73.1121 59.3278 73.3797C59.4877 73.6473 59.7081 73.8736 59.9715 74.0405L63.6455 76.1616C64.1532 76.4548 64.5606 76.2331 64.5622 75.6816ZM64.4952 99.3146L64.5038 96.2702C64.485 95.9589 64.3926 95.6564 64.2342 95.3877C64.0759 95.119 63.8561 94.8916 63.5928 94.7243L59.9188 92.6032C59.4111 92.31 58.9944 92.5263 58.9928 93.0885L58.9842 96.1328C59.0062 96.4437 59.101 96.7451 59.2609 97.0127C59.4207 97.2803 59.6412 97.5066 59.9045 97.6734L63.5785 99.7946C64.0862 100.088 64.4936 99.8661 64.4952 99.3146M64.4737 106.909L64.4823 103.865C64.462 103.556 64.3689 103.255 64.2106 102.988C64.0523 102.722 63.8333 102.496 63.5713 102.33L59.8973 100.209C59.3896 99.9155 58.9729 100.132 58.9713 100.683L58.9627 103.728C58.9833 104.04 59.0773 104.344 59.2372 104.613C59.3971 104.883 59.6183 105.111 59.8829 105.279L63.5569 107.4C64.0646 107.693 64.4721 107.472 64.4737 106.909M64.5398 83.5733L64.5484 80.5396C64.5296 80.2283 64.4372 79.9259 64.2788 79.6571C64.1205 79.3884 63.9007 79.1611 63.6374 78.9937L59.9634 76.8726C59.4557 76.5794 59.039 76.7957 59.0374 77.3579L59.0288 80.3916C59.0494 80.7043 59.1435 81.0078 59.3034 81.2773C59.4633 81.5468 59.6845 81.7749 59.9491 81.9429L63.6231 84.064C64.1308 84.3572 64.5382 84.1355 64.5398 83.5733ZM55.7025 86.0889L55.7111 83.0446C55.6904 82.7334 55.5962 82.4315 55.4362 82.1637C55.2762 81.8959 55.0551 81.6698 54.7909 81.504L51.1169 79.3828C50.6092 79.0897 50.1925 79.2954 50.1909 79.8575L50.1822 82.9018C50.203 83.2131 50.2972 83.515 50.4572 83.7828C50.6171 84.0506 50.8383 84.2766 51.1025 84.4425L54.7765 86.5636C55.2842 86.8567 55.7009 86.6511 55.7025 86.0889ZM64.5182 91.1787L64.5268 88.1344C64.5079 87.8245 64.4153 87.5236 64.2569 87.2566C64.0985 86.9896 63.8787 86.7642 63.6158 86.5991L59.9418 84.4779C59.4341 84.1848 59.0174 84.3905 59.0158 84.9526L59.0072 87.9969C59.0279 88.3081 59.1222 88.6101 59.2821 88.8779C59.4421 89.1457 59.6633 89.3717 59.9275 89.5376L63.6015 91.6587C64.1092 91.9519 64.5166 91.7409 64.5182 91.1787" fill="white"/>
<path d="M54.7463 97.2346C55.0096 97.4014 55.2301 97.6277 55.3899 97.8953C55.5498 98.1629 55.6445 98.4643 55.6666 98.7752L55.6579 101.82C55.6564 102.382 55.2396 102.598 54.7319 102.305L51.0579 100.184C50.7934 100.016 50.5722 99.7877 50.4123 99.5182C50.2524 99.2486 50.1583 98.9452 50.1377 98.6324L50.1463 95.5881C50.1479 95.0366 50.5646 94.8203 51.0723 95.1134L54.7463 97.2346Z" fill="#0078D4"/>
<path d="M54.7909 81.504C55.0551 81.6698 55.2763 81.8959 55.4362 82.1637C55.5962 82.4315 55.6904 82.7334 55.7112 83.0447L55.7025 86.089C55.7009 86.6511 55.2842 86.8568 54.7765 86.5637L51.1025 84.4425C50.8383 84.2767 50.6171 84.0506 50.4572 83.7828C50.2972 83.515 50.203 83.2131 50.1823 82.9018L50.1909 79.8575C50.1925 79.2954 50.6092 79.0897 51.1169 79.3828L54.7909 81.504Z" fill="#0078D4"/>
<path d="M63.6158 86.5991C63.8787 86.7643 64.0985 86.9897 64.2569 87.2567C64.4153 87.5236 64.5079 87.8245 64.5268 88.1344L64.5182 91.1787C64.5166 91.7409 64.1092 91.9519 63.6015 91.6588L59.9275 89.5376C59.6633 89.3718 59.4421 89.1457 59.2821 88.8779C59.1222 88.6101 59.0279 88.3082 59.0072 87.9969L59.0158 84.9526C59.0174 84.3905 59.4341 84.1848 59.9418 84.4779L63.6158 86.5991Z" fill="#0078D4"/>
<path d="M55.743 106.586L53.5952 105.346C52.5706 104.754 51.7374 105.123 51.7344 106.184L51.6964 119.581L55.7111 117.842L55.743 106.586Z" fill="#1F56A3"/>
<path d="M62.8015 125.992L62.8125 121.942L55.7115 117.842L51.6965 119.581L62.8015 125.992Z" fill="#0078D4"/>
<path d="M69.0053 67.399C69.3253 67.608 69.5913 67.8897 69.7816 68.2212C69.9719 68.5526 70.0811 68.9244 70.1003 69.3061C70.0983 70.0062 69.6074 70.2859 68.9981 69.9341L45.8641 56.5777C45.5389 56.3709 45.2675 56.0896 45.0724 55.7571C44.8774 55.4247 44.7642 55.0505 44.7423 54.6657C44.7443 53.9656 45.2444 53.6806 45.8537 54.0324L69.0053 67.399Z" fill="#1B93EB"/>
<path d="M99.5757 49.6333L76.424 36.2667C76.3115 36.1851 76.1791 36.1351 76.0407 36.1218C75.9023 36.1085 75.7628 36.1325 75.6368 36.1913L45.0663 53.9568C45.1923 53.8981 45.3318 53.8741 45.4702 53.8874C45.6087 53.9007 45.741 53.9507 45.8536 54.0323L69.0052 67.3989C69.3252 67.608 69.5912 67.8897 69.7815 68.2212C69.9718 68.5526 70.0811 68.9244 70.1002 69.3061C70.1141 69.4416 70.0919 69.5783 70.0358 69.7024C69.9796 69.8264 69.8916 69.9334 69.7807 70.0124L100.351 52.2468C100.462 52.1678 100.55 52.0608 100.606 51.9367C100.662 51.8127 100.685 51.676 100.671 51.5405C100.651 51.1588 100.542 50.787 100.352 50.4555C100.162 50.1241 99.8957 49.8423 99.5757 49.6333Z" fill="#0078D4"/>
<path d="M88.5267 103.405L90.6904 102.147C91.9191 101.434 93.3483 101.854 95.0357 102.829C95.5101 103.102 96.0053 103.42 96.5217 103.768L94.358 105.027C93.8416 104.677 93.3464 104.359 92.872 104.086C91.1846 103.111 89.7554 102.691 88.5267 103.405Z" fill="#C3F1FF"/>
<path d="M94.51 106.829L101.709 102.104L102.597 103.683L95.4479 108.374L94.51 106.829Z" fill="#8DDFF9"/>
<path d="M102.596 103.683L104.596 107.237L98.3355 111.373C98.97 116.103 98.2499 117.301 97.0305 118.03C95.7495 118.799 94.1676 118.234 92.8553 117.476C92.3331 117.168 91.8277 116.833 91.3413 116.471L94.9609 113.925C95.2068 113.75 95.1887 113.267 94.9248 112.832L93.4007 110.305L91.8764 107.789C91.7682 107.598 91.6137 107.437 91.4271 107.321C91.3581 107.272 91.2771 107.241 91.1924 107.233C91.1079 107.226 91.0228 107.24 90.9453 107.274L87.1888 109.607C86.9091 107.832 86.5253 104.723 88.3742 103.5C89.6366 102.657 91.1143 103.072 92.872 104.086C93.3465 104.36 93.8416 104.678 94.358 105.026L100.911 100.687L101.708 102.104L94.5098 106.829L95.4479 108.374L102.596 103.683Z" fill="#9CEBFF"/>
<path d="M102.295 99.7733L103.278 101.074L103.051 101.224L102.251 99.8022L102.295 99.7733Z" fill="#87D2EF"/>
<path d="M103.278 101.074L104.373 102.516L103.939 102.801L103.051 101.224L103.278 101.074Z" fill="#7AC8EA"/>
<path d="M104.372 102.516L106.831 105.761L105.936 106.352L103.939 102.801L104.372 102.516Z" fill="#87D2EF"/>
<path d="M105.948 99.3214L106.885 100.866L104.372 102.516L103.278 101.074L105.948 99.3214Z" fill="#8DDFF9"/>
<path d="M106.725 91.3607L108.888 90.1036C110.155 89.368 111.72 89.9315 113.02 90.6829C113.544 90.9916 114.051 91.3279 114.54 91.6905L112.376 92.9476C111.888 92.585 111.38 92.2487 110.856 91.9401C109.556 91.19 107.992 90.6251 106.725 91.3607Z" fill="#C3F1FF"/>
<path d="M114.463 100.84C114.278 100.725 114.124 100.566 114.015 100.378L112.481 97.8567L110.956 95.3292C110.693 94.8944 110.674 94.411 110.92 94.2363L114.54 91.6904L112.376 92.9476L108.756 95.4947C108.511 95.6681 108.529 96.1528 108.793 96.5863L110.317 99.1138L111.851 101.635C111.961 101.823 112.114 101.982 112.299 102.097C112.365 102.144 112.442 102.173 112.522 102.181C112.603 102.189 112.684 102.175 112.757 102.142L114.921 100.885C114.847 100.918 114.766 100.932 114.686 100.924C114.605 100.916 114.529 100.887 114.463 100.84V100.84Z" fill="#C3F1FF"/>
<path d="M109.135 104.24L98.3358 111.371C98.9703 116.103 98.2504 117.301 97.0308 118.029L99.1946 116.772C100.414 116.044 101.134 114.846 100.5 110.114L109.293 104.349L109.135 104.24Z" fill="#C3F1FF"/>
<path d="M118.693 98.5542L116.529 99.8127C116.819 101.593 117.193 104.695 115.353 105.924C115.287 105.968 115.219 106.01 115.151 106.05L117.315 104.793C117.383 104.752 117.451 104.71 117.517 104.667C119.356 103.438 118.982 100.336 118.693 98.5542Z" fill="#C3F1FF"/>
<path d="M116.529 99.8127C116.818 101.593 117.192 104.695 115.353 105.924C114.408 106.548 113.361 106.782 110.817 105.312C110.317 105.024 109.76 104.669 109.134 104.24L106.832 105.761L104.373 102.516L106.886 100.866L105.948 99.3214L103.279 101.072L102.294 99.7733L105.344 97.7542C104.797 93.3207 105.448 92.1962 106.599 91.4396C107.887 90.587 109.513 91.1637 110.856 91.9401C111.38 92.2487 111.888 92.5851 112.376 92.9476L108.757 95.4948C108.511 95.6682 108.529 96.1529 108.793 96.5864L110.317 99.1138L111.851 101.635C111.96 101.823 112.114 101.982 112.299 102.097C112.367 102.147 112.447 102.176 112.53 102.182C112.614 102.189 112.698 102.172 112.772 102.133L116.529 99.8127Z" fill="#9CEBFF"/>
<path d="M92.4721 85.473L92.5115 85.54L92.6245 87.207L91.2084 87.9689L89.8474 87.0021L89.7883 86.9009L92.4721 85.473Z" fill="#F2F2F2"/>
<path d="M89.49 80.5877C89.7376 80.7418 89.9408 80.9577 90.0795 81.2142L92.5115 85.54L92.4725 85.473L89.7896 86.8996L87.3955 82.6421C87.083 82.0786 87.0945 81.4874 87.419 81.3022L88.9133 80.5186C89.0076 80.4814 89.1097 80.4682 89.2104 80.4803C89.3111 80.4923 89.4071 80.5293 89.49 80.5877H89.49Z" fill="white"/>
<path d="M102.691 112.727L104.855 111.47L104.867 111.463L102.703 112.721L102.691 112.727Z" fill="#0078D4"/>
<path d="M102.703 112.721L104.866 111.463L106.731 110.477L104.567 111.734L102.703 112.721Z" fill="#0078D4"/>
<path d="M104.567 111.734L106.73 110.477L107.344 110.152L105.18 111.41L104.567 111.734Z" fill="#0078D4"/>
<path d="M92.61 87.2149L99.5696 99.5867L99.6905 99.8022L100.49 101.224L101.378 102.801L103.376 106.352L103.447 106.478L105.983 110.984L105.18 111.41L104.567 111.734L102.037 107.237L100.036 103.683L99.1479 102.104L98.3518 100.689L91.1886 87.9584L92.61 87.2149Z" fill="white"/>
<path d="M105.611 105.221L105.54 105.095L103.542 101.544L102.654 99.9651L101.854 98.5437L101.735 98.3296L94.7737 85.9577L92.6101 87.2149L99.5698 99.5867L99.6906 99.8022L100.491 101.224L101.379 102.801L103.377 106.352L103.448 106.478L105.983 110.984L108.146 109.727L105.611 105.221Z" fill="#F2F2F2"/>
<path d="M91.1886 87.9584L93.3535 86.7L94.7735 85.9577L92.6099 87.2149L91.1886 87.9584Z" fill="white"/>
<path d="M92.512 85.54L94.6755 84.2829L94.7885 85.9499L92.6249 87.207L92.512 85.54Z" fill="#B3B3B3"/>
<path d="M89.7883 86.9009L91.9519 85.6438L94.6357 84.2145L92.4721 85.473L89.7883 86.9009Z" fill="#F2F2F2"/>
<path d="M92.4722 85.473L94.6357 84.2145L94.6751 84.2829L92.5116 85.54L92.4722 85.473Z" fill="#F2F2F2"/>
<path d="M92.243 79.9569C92.1043 79.7003 91.9011 79.4843 91.6535 79.3302C91.5706 79.2717 91.4745 79.2348 91.3739 79.2227C91.2732 79.2106 91.1711 79.2238 91.0768 79.2611L89.5824 80.0453L87.4189 81.3022L88.9131 80.5185C89.0074 80.4813 89.1095 80.4682 89.2102 80.4803C89.3108 80.4923 89.4069 80.5293 89.4898 80.5877C89.7373 80.7418 89.9405 80.9577 90.0793 81.2142L92.5113 85.54L94.675 84.2829L92.243 79.9569Z" fill="#F2F2F2"/>
<path d="M105.983 110.984L108.147 109.727L109.949 108.769L107.785 110.026L105.983 110.984Z" fill="#0078D4"/>
<path d="M108.967 119.325C109.089 119.405 109.19 119.514 109.26 119.642L113.607 127.386C113.763 127.667 113.762 127.972 113.585 128.061L113.349 128.185C113.301 128.205 113.249 128.212 113.197 128.206C113.146 128.199 113.097 128.18 113.055 128.149C112.931 128.072 112.83 127.963 112.761 127.834L108.415 120.09C108.249 119.802 108.259 119.504 108.427 119.41L108.662 119.286C108.712 119.265 108.766 119.258 108.82 119.265C108.873 119.273 108.923 119.294 108.967 119.325V119.325Z" fill="#0078D4"/>
<path d="M117.448 126.129C118.367 127.764 118.293 129.527 117.28 130.059L116.032 130.725L114.832 131.353C114.562 131.469 114.266 131.514 113.973 131.482C113.681 131.45 113.401 131.343 113.162 131.172C112.434 130.717 111.837 130.079 111.432 129.322L106.617 120.755L106.593 118.575L104.673 117.287L102.68 113.733C102.436 113.31 102.447 112.855 102.703 112.721L104.567 111.734L105.18 111.41L105.983 110.984L107.786 110.026C107.861 109.994 107.944 109.981 108.026 109.989C108.108 109.998 108.187 110.027 108.254 110.075C108.439 110.19 108.592 110.351 108.697 110.541L110.69 114.095L110.723 116.38L112.633 117.563L117.448 126.129ZM115.551 127.019C115.719 126.924 115.729 126.625 115.563 126.338L111.227 118.611C111.153 118.478 111.047 118.365 110.919 118.284C110.877 118.253 110.829 118.235 110.778 118.231C110.727 118.226 110.676 118.234 110.629 118.255L110.393 118.378C110.349 118.406 110.314 118.446 110.291 118.492C110.269 118.539 110.259 118.591 110.264 118.642C110.269 118.789 110.309 118.932 110.381 119.06L114.718 126.786C114.788 126.914 114.888 127.023 115.011 127.102C115.054 127.134 115.105 127.155 115.158 127.163C115.211 127.169 115.265 127.163 115.315 127.143L115.551 127.019ZM113.585 128.061C113.762 127.972 113.763 127.667 113.607 127.385L109.26 119.642C109.19 119.514 109.089 119.405 108.967 119.325C108.923 119.294 108.873 119.273 108.82 119.265C108.767 119.258 108.712 119.265 108.663 119.286L108.427 119.408C108.259 119.504 108.249 119.802 108.415 120.09L112.761 127.834C112.83 127.963 112.931 128.071 113.055 128.149C113.097 128.18 113.146 128.199 113.197 128.206C113.249 128.212 113.301 128.205 113.349 128.185L113.585 128.061" fill="#1F56A3"/>
<path d="M110.918 118.284C111.047 118.365 111.153 118.478 111.226 118.612L115.563 126.338C115.729 126.625 115.718 126.924 115.551 127.019L115.315 127.143C115.265 127.163 115.211 127.169 115.158 127.163C115.104 127.156 115.054 127.135 115.011 127.102C114.888 127.023 114.787 126.914 114.717 126.786L110.381 119.06C110.309 118.932 110.269 118.789 110.264 118.642C110.259 118.591 110.268 118.539 110.291 118.492C110.314 118.446 110.349 118.406 110.392 118.378L110.628 118.255C110.675 118.234 110.726 118.226 110.777 118.231C110.828 118.236 110.877 118.254 110.918 118.284L110.918 118.284Z" fill="#0078D4"/>
<path d="M119.612 124.872L114.797 116.305L112.886 115.123L112.853 112.836L110.861 109.284C110.756 109.093 110.603 108.932 110.418 108.818C110.35 108.77 110.272 108.741 110.19 108.732C110.108 108.724 110.025 108.736 109.949 108.769L107.786 110.026C107.861 109.994 107.944 109.981 108.026 109.989C108.108 109.998 108.187 110.027 108.254 110.075C108.439 110.19 108.591 110.351 108.697 110.541L110.69 114.095L110.722 116.38L112.633 117.563L117.449 126.129C118.352 127.738 118.295 129.471 117.328 130.033L119.492 128.776C120.459 128.214 120.516 126.481 119.612 124.872Z" fill="#0078D4"/>
<path d="M83.3075 134.085C84.3343 133.561 85.4706 133.288 86.6231 133.288C87.7757 133.288 88.9119 133.561 89.9388 134.085C90.3198 134.254 90.6485 134.522 90.8911 134.861C91.1337 135.2 91.2813 135.598 91.3186 136.013L91.3256 133.568C91.2883 133.153 91.1407 132.755 90.8981 132.416C90.6555 132.077 90.3267 131.808 89.9457 131.639C88.9188 131.116 87.7826 130.843 86.6301 130.843C85.4775 130.843 84.3413 131.116 83.3145 131.639C82.9401 131.808 82.6171 132.073 82.3785 132.407C82.1399 132.741 81.9942 133.132 81.9562 133.541L81.9493 135.987C81.9873 135.578 82.133 135.186 82.3716 134.852C82.6102 134.518 82.9331 134.253 83.3075 134.085V134.085Z" fill="#50E6FF"/>
<path d="M87.0555 142.794L83.931 142.783C81.6334 142.771 78.6676 142.747 75.0336 142.709C74.0181 142.721 73.0161 142.476 72.1206 141.997C71.7869 141.845 71.4976 141.61 71.28 141.314C71.0624 141.019 70.9238 140.673 70.8772 140.309L70.7202 135.03C70.7036 134.36 70.7006 133.799 70.6917 133.346L70.6846 135.791C70.6936 136.245 70.6968 136.805 70.7132 137.476L70.8702 142.755C70.9168 143.118 71.0555 143.464 71.273 143.76C71.4906 144.055 71.7799 144.29 72.1137 144.442C73.0091 144.921 74.0112 145.166 75.0267 145.154C78.6607 145.195 81.6264 145.219 83.9239 145.228L87.0486 145.239C96.0599 145.239 103.335 141.011 103.306 135.791L103.313 133.346C103.343 138.565 96.067 142.794 87.0555 142.794Z" fill="#50E6FF"/>
<path d="M103.313 133.346C103.343 138.565 96.0669 142.794 87.0556 142.794L83.9309 142.783C81.6334 142.771 78.6677 142.747 75.0337 142.709C74.0182 142.721 73.0162 142.476 72.1207 141.997C71.787 141.845 71.4977 141.61 71.2801 141.314C71.0625 141.019 70.9239 140.673 70.8773 140.309L70.7203 135.03C70.7038 134.36 70.7007 133.799 70.6917 133.346C70.6688 128.13 77.9444 123.902 86.9492 123.898C90.9726 123.817 94.9494 124.769 98.4994 126.664C101.46 128.374 103.298 130.736 103.313 133.346ZM83.3425 135.476C84.3676 135.998 85.5015 136.27 86.6517 136.27C87.8019 136.27 88.9358 135.998 89.9609 135.476C91.7877 134.415 91.7781 132.697 89.9457 131.639C88.9188 131.116 87.7826 130.843 86.6301 130.843C85.4775 130.843 84.3413 131.116 83.3145 131.639C81.494 132.697 81.5037 134.415 83.3425 135.476" fill="#C3F1FF"/>
</g>
<defs>
<linearGradient id="paint0_linear_1023_1351" x1="80.0339" y1="9.26471" x2="80.0339" y2="180.68" gradientUnits="userSpaceOnUse">
<stop stop-color="#00ABDE"/>
<stop offset="1" stop-color="#007ED8"/>
</linearGradient>
<clipPath id="clip0_1023_1351">
<rect width="159.356" height="188" fill="white" transform="translate(0.355469 0.986328)"/>
</clipPath>
</defs>
</svg>
