<svg width="102" height="102" viewBox="0 0 102 102" fill="none" xmlns="https://www.w3.org/2000/svg">
<path d="M50.9999 97.8104C25.1499 97.8104 4.18994 76.8604 4.18994 51.0004C4.18994 25.1404 25.1499 4.19043 50.9999 4.19043C76.8499 4.19043 97.8099 25.1504 97.8099 51.0004C97.8099 76.8504 76.8499 97.8104 50.9999 97.8104Z" fill="url(#paint0_linear)"/>
<path fill-rule="evenodd" clip-rule="evenodd" d="M51 1C78.61 1 101 23.39 101 51C101 78.61 78.61 101 51 101C23.39 101 1 78.61 1 51C1 23.39 23.39 1 51 1ZM51 96.76C76.27 96.76 96.76 76.27 96.76 51C96.76 25.73 76.27 5.24 51 5.24C25.73 5.24 5.24 25.73 5.24 51C5.24 76.27 25.73 96.76 51 96.76Z" fill="#D9D9D9"/>
<path fill-rule="evenodd" clip-rule="evenodd" d="M96.9001 51.0004C96.9001 76.3504 76.3501 96.9004 51.0001 96.9004C25.6501 96.9004 5.10011 76.3504 5.10011 51.0004C5.10011 25.6504 25.6501 5.10035 51.0001 5.10035C76.3501 5.10035 96.9001 25.6504 96.9001 51.0004ZM51.0001 1.36035C78.4201 1.36035 100.64 23.5804 100.64 51.0004C100.64 78.4204 78.4101 100.64 51.0001 100.64C23.5801 100.64 1.36011 78.4104 1.36011 51.0004C1.36011 23.5804 23.5801 1.36035 51.0001 1.36035Z" fill="#F2F1F0"/>
<path fill-rule="evenodd" clip-rule="evenodd" d="M50.9999 94.0899C27.1999 94.0899 7.90992 74.7999 7.90992 50.9999C7.90992 27.1999 27.1999 7.90992 50.9999 7.90992C74.7999 7.90992 94.0899 27.1999 94.0899 50.9999C94.0899 74.7999 74.7999 94.0899 50.9999 94.0899ZM97.8299 50.9999C97.8299 76.8599 76.8599 97.8299 50.9999 97.8299C25.1399 97.8299 4.16992 76.8599 4.16992 50.9999C4.16992 25.1399 25.1399 4.16992 50.9999 4.16992C76.8599 4.16992 97.8299 25.1299 97.8299 50.9999Z" fill="url(#paint1_linear)"/>
<path d="M79.28 61.7197H62.27V62.4897H79.28V61.7197Z" fill="white"/>
<path d="M79.28 49.3496H62.27V50.1196H79.28V49.3496Z" fill="white"/>
<path d="M79.28 36.9893H62.27V37.7593H79.28V36.9893Z" fill="white"/>
<path d="M86.0101 31.9297H73.7201C72.9701 31.9297 72.3601 32.5397 72.3601 33.2897V40.8097C72.3601 41.5597 72.9701 42.1697 73.7201 42.1697H86.0201C86.7701 42.1797 87.3801 41.5697 87.3801 40.8197V33.2997C87.3701 32.5297 86.7601 31.9297 86.0101 31.9297Z" fill="white"/>
<path d="M86.0101 56.9697H73.7201C72.9701 56.9697 72.3601 57.5797 72.3601 58.3297V65.8597C72.3601 66.6097 72.9701 67.2197 73.7201 67.2197H86.0201C86.7701 67.2197 87.3801 66.6097 87.3801 65.8597V58.3397C87.3701 57.5797 86.7601 56.9697 86.0101 56.9697Z" fill="white"/>
<path d="M86.0101 44.4297H73.7201C72.9701 44.4297 72.3601 45.0397 72.3601 45.7897V53.3097C72.3601 54.0597 72.9701 54.6697 73.7201 54.6697H86.0201C86.7701 54.6797 87.3801 54.0697 87.3801 53.3097V45.7897C87.3701 45.0397 86.7601 44.4297 86.0101 44.4297Z" fill="white"/>
<g opacity="0.2">
<path opacity="0.2" d="M79.9301 40.9197C81.3401 40.9197 82.4801 40.1997 82.4801 39.3197C82.4801 38.4397 81.3401 37.7197 79.9301 37.7197C78.5201 37.7197 77.3801 38.4397 77.3801 39.3197C77.3801 40.1997 78.5201 40.9197 79.9301 40.9197Z" fill="#1F1D21"/>
</g>
<path d="M82.4701 38.8503C82.3301 37.5703 81.2301 36.5703 79.9001 36.5703C78.5801 36.5703 77.4901 37.5503 77.3301 38.8203C77.3101 38.9103 77.3101 39.0003 77.3101 39.1003C77.3401 39.4603 77.6001 39.8103 78.0701 40.0803C79.0801 40.6603 80.7301 40.6603 81.7201 40.0803C82.1901 39.8003 82.4301 39.4603 82.4601 39.1003C82.4901 39.0203 82.4801 38.9303 82.4701 38.8503Z" fill="url(#paint2_linear)"/>
<path d="M79.9001 36.3002C80.7601 36.3002 81.4601 35.6102 81.4601 34.7502C81.4601 33.8902 80.7601 33.2002 79.9001 33.2002C79.0401 33.2002 78.3401 33.8902 78.3401 34.7502C78.3401 35.6102 79.0401 36.3002 79.9001 36.3002Z" fill="url(#paint3_linear)"/>
<g opacity="0.2">
<path opacity="0.2" d="M79.9301 53.2693C81.3401 53.2693 82.4801 52.5493 82.4801 51.6693C82.4801 50.7893 81.3401 50.0693 79.9301 50.0693C78.5201 50.0693 77.3801 50.7893 77.3801 51.6693C77.3801 52.5493 78.5201 53.2693 79.9301 53.2693Z" fill="#1F1D21"/>
</g>
<path d="M82.4701 51.1999C82.3301 49.9199 81.2301 48.9199 79.9001 48.9199C78.5801 48.9199 77.4901 49.8999 77.3301 51.1699C77.3101 51.2599 77.3101 51.3499 77.3101 51.4499C77.3401 51.8099 77.6001 52.1599 78.0701 52.4299C79.0801 53.0099 80.7301 53.0099 81.7201 52.4299C82.1901 52.1499 82.4301 51.8099 82.4601 51.4499C82.4901 51.3599 82.4801 51.2699 82.4701 51.1999Z" fill="url(#paint4_linear)"/>
<path d="M79.9001 48.6498C80.7601 48.6498 81.4601 47.9598 81.4601 47.0998C81.4601 46.2398 80.7601 45.5498 79.9001 45.5498C79.0401 45.5498 78.3401 46.2398 78.3401 47.0998C78.3401 47.9498 79.0401 48.6498 79.9001 48.6498Z" fill="url(#paint5_linear)"/>
<g opacity="0.2">
<path opacity="0.2" d="M79.9301 65.9705C81.3401 65.9705 82.4801 65.2505 82.4801 64.3705C82.4801 63.4805 81.3401 62.7705 79.9301 62.7705C78.5201 62.7705 77.3801 63.4905 77.3801 64.3705C77.3801 65.2505 78.5201 65.9705 79.9301 65.9705Z" fill="#1F1D21"/>
</g>
<path d="M82.4701 63.8904C82.3301 62.6104 81.2301 61.6104 79.9001 61.6104C78.5801 61.6104 77.4901 62.5904 77.3301 63.8604C77.3101 63.9504 77.3101 64.0404 77.3101 64.1404C77.3401 64.5004 77.6001 64.8504 78.0701 65.1204C79.0801 65.7004 80.7301 65.7004 81.7201 65.1204C82.1901 64.8404 82.4301 64.5004 82.4601 64.1404C82.4901 64.0604 82.4801 63.9704 82.4701 63.8904Z" fill="url(#paint6_linear)"/>
<path d="M79.9001 61.3402C80.7601 61.3402 81.4601 60.6502 81.4601 59.7902C81.4601 58.9302 80.7601 58.2402 79.9001 58.2402C79.0401 58.2402 78.3401 58.9302 78.3401 59.7902C78.3401 60.6502 79.0401 61.3402 79.9001 61.3402Z" fill="url(#paint7_linear)"/>
<path d="M42.82 33.2197C40.29 33.2197 38.23 31.1497 38.23 28.5897C38.23 26.0297 40.3 23.9697 42.82 23.9697C45.35 23.9697 47.41 26.0397 47.41 28.5997C47.41 31.1597 45.36 33.2197 42.82 33.2197ZM42.82 25.7997C41.29 25.7997 40.05 27.0497 40.05 28.5997C40.05 30.1497 41.3 31.3997 42.82 31.3997C44.35 31.3997 45.59 30.1497 45.59 28.5997C45.59 27.0597 44.35 25.7997 42.82 25.7997Z" fill="url(#paint8_linear)"/>
<path d="M54.5901 77.1596H31.6501L29.2301 81.6596L27.6301 80.7896L34.3101 68.3496L35.9101 69.2296L32.6301 75.3296H53.6101L50.3301 69.2296L51.9301 68.3696L58.6101 80.8096L57.0001 81.6796L54.5901 77.1596Z" fill="url(#paint9_linear)"/>
<path d="M67.98 33.5498H18.28V66.9498H67.98V33.5498Z" fill="url(#paint10_linear)"/>
<path d="M17.63 28.5898H68.6C69.61 28.5898 70.43 29.4098 70.43 30.4198V32.3298C70.43 33.3398 69.61 34.1598 68.6 34.1598H17.63C16.62 34.1498 15.8 33.3298 15.8 32.3198V30.4198C15.8 29.4098 16.62 28.5898 17.63 28.5898Z" fill="url(#paint11_linear)"/>
<path d="M17.35 66.2393H68.89C69.74 66.2393 70.4401 66.9293 70.4401 67.7893C70.4401 68.6493 69.75 69.3393 68.89 69.3393H17.35C16.5 69.3493 15.8 68.6593 15.8 67.7993C15.8 66.9393 16.5 66.2393 17.35 66.2393Z" fill="url(#paint12_linear)"/>
<path d="M67.98 33.5498H18.28V66.9498H67.98V33.5498Z" fill="white"/>
<path d="M17.63 28.5898H68.6C69.61 28.5898 70.43 29.4098 70.43 30.4198V32.3298C70.43 33.3398 69.61 34.1598 68.6 34.1598H17.63C16.62 34.1498 15.8 33.3298 15.8 32.3198V30.4198C15.8 29.4098 16.62 28.5898 17.63 28.5898Z" fill="url(#paint13_linear)"/>
<path d="M17.35 66.2393H68.89C69.74 66.2393 70.4401 66.9293 70.4401 67.7893C70.4401 68.6493 69.75 69.3393 68.89 69.3393H17.35C16.5 69.3493 15.8 68.6593 15.8 67.7993C15.8 66.9393 16.5 66.2393 17.35 66.2393Z" fill="url(#paint14_linear)"/>
<path d="M54.2 47.5703H59.54C60.04 47.5703 60.45 47.9803 60.45 48.4803V53.3403C60.45 55.1903 58.95 56.7003 57.09 56.7003H57.07C55.22 56.7003 53.71 55.2003 53.71 53.3403V48.0403C53.72 47.7803 53.93 47.5703 54.2 47.5703Z" fill="#5059C9"/>
<path d="M57.8001 46.6003C58.9901 46.6003 59.9601 45.6303 59.9601 44.4403C59.9601 43.2503 58.9901 42.2803 57.8001 42.2803C56.6101 42.2803 55.6401 43.2503 55.6401 44.4403C55.6401 45.6403 56.6101 46.6003 57.8001 46.6003Z" fill="#5059C9"/>
<path d="M51.07 46.6003C52.8 46.6003 54.1899 45.2004 54.1899 43.4804C54.1899 41.7504 52.79 40.3604 51.07 40.3604C49.34 40.3604 47.95 41.7604 47.95 43.4804C47.95 45.2104 49.35 46.6003 51.07 46.6003Z" fill="#7B83EB"/>
<path d="M55.2401 47.5703H46.4301C45.9301 47.5803 45.5401 48.0003 45.5501 48.4903V54.0403C45.4801 57.0303 47.8501 59.5103 50.8401 59.5903C53.8301 59.5203 56.2001 57.0303 56.1301 54.0403V48.4903C56.1301 47.9903 55.7401 47.5803 55.2401 47.5703Z" fill="#7B83EB"/>
<path opacity="0.1" d="M51.31 47.5703V55.3403C51.31 55.7003 51.09 56.0203 50.76 56.1503C50.65 56.1903 50.54 56.2203 50.43 56.2203H45.96C45.9 56.0603 45.84 55.9003 45.79 55.7403C45.62 55.1903 45.54 54.6203 45.54 54.0403V48.4903C45.53 47.9903 45.92 47.5803 46.42 47.5703H51.31V47.5703Z" fill="black"/>
<path opacity="0.2" d="M50.83 47.5703V55.8203C50.83 55.9303 50.81 56.0503 50.76 56.1503C50.62 56.4803 50.3 56.7003 49.95 56.7003H46.19C46.11 56.5403 46.03 56.3803 45.96 56.2203C45.89 56.0603 45.84 55.9003 45.79 55.7403C45.62 55.1903 45.54 54.6203 45.54 54.0403V48.4903C45.53 47.9903 45.92 47.5803 46.42 47.5703H50.83Z" fill="black"/>
<path opacity="0.2" d="M50.83 47.5703V54.8603C50.83 55.3403 50.43 55.7403 49.95 55.7403H45.8C45.63 55.1903 45.55 54.6203 45.55 54.0403V48.4903C45.54 47.9903 45.93 47.5803 46.43 47.5703H50.83Z" fill="black"/>
<path opacity="0.2" d="M50.35 47.5703V54.8603C50.35 55.3403 49.95 55.7403 49.47 55.7403H45.8C45.63 55.1903 45.55 54.6203 45.55 54.0403V48.4903C45.54 47.9903 45.93 47.5803 46.43 47.5703H50.35Z" fill="black"/>
<path opacity="0.1" d="M51.31 45.0802V46.5902C51.23 46.6002 51.15 46.6002 51.07 46.6002C50.99 46.6002 50.91 46.5902 50.83 46.5902C50.67 46.5802 50.51 46.5502 50.35 46.5102C49.38 46.2802 48.57 45.6002 48.19 44.6802C48.12 44.5202 48.07 44.3602 48.04 44.2002H50.44C50.92 44.2002 51.31 44.6002 51.31 45.0802Z" fill="black"/>
<path opacity="0.2" d="M50.8299 45.5607V46.5907C50.6699 46.5807 50.5099 46.5507 50.3499 46.5107C49.3799 46.2807 48.5699 45.6007 48.1899 44.6807H49.9499C50.4399 44.6807 50.8299 45.0807 50.8299 45.5607Z" fill="black"/>
<path opacity="0.2" d="M50.8299 45.5607V46.5907C50.6699 46.5807 50.5099 46.5507 50.3499 46.5107C49.3799 46.2807 48.5699 45.6007 48.1899 44.6807H49.9499C50.4399 44.6807 50.8299 45.0807 50.8299 45.5607Z" fill="black"/>
<path opacity="0.2" d="M50.3499 45.5607V46.5207C49.3799 46.2907 48.5699 45.6107 48.1899 44.6807H49.4699C49.9599 44.6807 50.3499 45.0807 50.3499 45.5607Z" fill="black"/>
<path d="M40.66 44.6807H49.47C49.96 44.6807 50.35 45.0707 50.35 45.5607V54.3707C50.35 54.8607 49.96 55.2507 49.47 55.2507H40.66C40.17 55.2507 39.78 54.8607 39.78 54.3707V45.5607C39.78 45.0807 40.17 44.6807 40.66 44.6807Z" fill="url(#paint15_linear)"/>
<path d="M47.38 48.0406H45.62V52.8406H44.5V48.0406H42.75V47.1006H47.39V48.0406H47.38Z" fill="white"/>
<path d="M27.8901 41.3096C27.4501 41.4096 25.8501 42.6296 25.4801 43.6996C25.1101 44.7696 25.0401 47.2696 25.5901 49.4896C26.1401 51.7096 26.7601 52.4596 27.1901 53.3396C27.6101 54.2096 28.8301 56.4896 31.6101 58.2996C34.3801 60.0996 36.4601 58.8196 36.7701 58.4896C37.0901 58.1596 37.6301 57.2796 37.6401 56.9696C37.6501 56.6496 37.7001 56.6496 37.2301 56.1896C36.7601 55.7396 35.5901 54.3696 35.2301 53.9796C34.8801 53.5896 34.4501 53.4896 34.1901 53.6596C33.9301 53.8296 32.8001 54.5996 32.5101 54.7296C32.2101 54.8596 32.2001 55.0396 31.7401 54.6396C31.2801 54.2396 30.0501 52.8696 29.3301 51.3796C28.6101 49.8796 28.2401 48.0196 28.1601 47.6296C28.0801 47.2396 28.3001 47.1496 28.9501 46.8196C29.6101 46.4896 30.4301 46.2296 30.7101 46.0696C30.9901 45.9096 30.7901 45.6196 30.7501 45.1696C30.7101 44.7196 30.2101 42.3596 30.0701 41.8796C29.9301 41.3996 29.7401 41.4296 29.4101 41.3696C29.0801 41.3096 28.3101 41.2196 27.8901 41.3096Z" fill="url(#paint16_linear)"/>
<defs>
<linearGradient id="paint0_linear" x1="35.9424" y1="0.561529" x2="66.1787" y2="101.854" gradientUnits="userSpaceOnUse">
<stop stop-color="#A9B1FF"/>
<stop offset="1" stop-color="#7B83EB"/>
</linearGradient>
<linearGradient id="paint1_linear" x1="50.9998" y1="4.16992" x2="50.9998" y2="97.83" gradientUnits="userSpaceOnUse">
<stop stop-color="#5A62C3"/>
<stop offset="0.5" stop-color="#4D55BD"/>
<stop offset="1" stop-color="#3940AB"/>
</linearGradient>
<linearGradient id="paint2_linear" x1="79.1314" y1="36.9913" x2="80.6549" y2="40.8305" gradientUnits="userSpaceOnUse">
<stop stop-color="#5A62C3"/>
<stop offset="0.5" stop-color="#4D55BD"/>
<stop offset="1" stop-color="#3940AB"/>
</linearGradient>
<linearGradient id="paint3_linear" x1="78.8314" y1="33.1494" x2="81.5127" y2="37.1713" gradientUnits="userSpaceOnUse">
<stop stop-color="#5A62C3"/>
<stop offset="0.5" stop-color="#4D55BD"/>
<stop offset="1" stop-color="#3940AB"/>
</linearGradient>
<linearGradient id="paint4_linear" x1="79.1314" y1="49.3364" x2="80.6549" y2="53.1755" gradientUnits="userSpaceOnUse">
<stop stop-color="#5A62C3"/>
<stop offset="0.5" stop-color="#4D55BD"/>
<stop offset="1" stop-color="#3940AB"/>
</linearGradient>
<linearGradient id="paint5_linear" x1="78.8314" y1="45.4944" x2="81.5127" y2="49.5164" gradientUnits="userSpaceOnUse">
<stop stop-color="#5A62C3"/>
<stop offset="0.5" stop-color="#4D55BD"/>
<stop offset="1" stop-color="#3940AB"/>
</linearGradient>
<linearGradient id="paint6_linear" x1="79.1314" y1="62.035" x2="80.6549" y2="65.8742" gradientUnits="userSpaceOnUse">
<stop stop-color="#5A62C3"/>
<stop offset="0.5" stop-color="#4D55BD"/>
<stop offset="1" stop-color="#3940AB"/>
</linearGradient>
<linearGradient id="paint7_linear" x1="78.8314" y1="58.193" x2="81.5127" y2="62.215" gradientUnits="userSpaceOnUse">
<stop stop-color="#5A62C3"/>
<stop offset="0.5" stop-color="#4D55BD"/>
<stop offset="1" stop-color="#3940AB"/>
</linearGradient>
<linearGradient id="paint8_linear" x1="36.2099" y1="14.9543" x2="60.8161" y2="65.7204" gradientUnits="userSpaceOnUse">
<stop stop-color="#5A62C3"/>
<stop offset="0.5" stop-color="#4D55BD"/>
<stop offset="1" stop-color="#3940AB"/>
</linearGradient>
<linearGradient id="paint9_linear" x1="48.5197" y1="147.104" x2="38.1593" y2="19.9279" gradientUnits="userSpaceOnUse">
<stop stop-color="#5A62C3"/>
<stop offset="0.5" stop-color="#4D55BD"/>
<stop offset="1" stop-color="#3940AB"/>
</linearGradient>
<linearGradient id="paint10_linear" x1="43.1314" y1="66.9505" x2="43.1314" y2="33.5457" gradientUnits="userSpaceOnUse">
<stop stop-color="#D2EBFF"/>
<stop offset="1" stop-color="#F0FFFD"/>
</linearGradient>
<linearGradient id="paint11_linear" x1="43.1182" y1="28.6029" x2="43.1182" y2="34.16" gradientUnits="userSpaceOnUse">
<stop stop-color="#0099BE"/>
<stop offset="1" stop-color="#006E97"/>
</linearGradient>
<linearGradient id="paint12_linear" x1="43.1182" y1="66.2528" x2="43.1182" y2="69.3431" gradientUnits="userSpaceOnUse">
<stop stop-color="#0099BE"/>
<stop offset="1" stop-color="#006E97"/>
</linearGradient>
<linearGradient id="paint13_linear" x1="43.1182" y1="28.6644" x2="43.1182" y2="32.2137" gradientUnits="userSpaceOnUse">
<stop stop-color="#5A62C3"/>
<stop offset="0.5" stop-color="#4D55BD"/>
<stop offset="1" stop-color="#3940AB"/>
</linearGradient>
<linearGradient id="paint14_linear" x1="43.1183" y1="65.7684" x2="43.1183" y2="68.3499" gradientUnits="userSpaceOnUse">
<stop stop-color="#5A62C3"/>
<stop offset="0.5" stop-color="#4D55BD"/>
<stop offset="1" stop-color="#3940AB"/>
</linearGradient>
<linearGradient id="paint15_linear" x1="41.6144" y1="43.9939" x2="48.5153" y2="55.9461" gradientUnits="userSpaceOnUse">
<stop stop-color="#5A62C3"/>
<stop offset="0.5" stop-color="#4D55BD"/>
<stop offset="1" stop-color="#3940AB"/>
</linearGradient>
<linearGradient id="paint16_linear" x1="21.8934" y1="38.1664" x2="40.9886" y2="65.1243" gradientUnits="userSpaceOnUse">
<stop stop-color="#5A62C3"/>
<stop offset="0.5" stop-color="#4D55BD"/>
<stop offset="1" stop-color="#3940AB"/>
</linearGradient>
</defs>
</svg>
