<?xml version="1.0" encoding="UTF-8"?>
<svg width="100px" height="100px" viewBox="0 0 100 100" version="1.1" xmlns="http://www.w3.org/2000/svg" xmlns:xlink="http://www.w3.org/1999/xlink">
    <!-- Generator: Sketch 58 (84663) - https://sketch.com -->
    <title>Microsoft Graphs/optimize-network-traffic-with-microsoft-graph</title>
    <desc>Created with Sketch.</desc>
    <defs>
        <rect id="path-1" x="0" y="0" width="96" height="96" rx="48"></rect>
        <polygon id="path-3" points="43 -2 43 39 47 39 47 -2 49 -2 49 39 53 39 53 -2 56 -2 56 39 98 39 98 43 56 43 56 47 98 47 98 49 56 49 56 53 98 53 98 57 56 57 56 98 53 98 53 57 49 57 49 98 47 98 47 57 43 57 43 98 40 98 40 57 -2 57 -2 53 40 53 40 49 -2 49 -2 47 40 47 40 43 -2 43 -2 39 40 39 40 -2"></polygon>
        <filter x="-1.0%" y="-1.0%" width="102.0%" height="104.0%" filterUnits="objectBoundingBox" id="filter-4">
            <feOffset dx="0" dy="2" in="SourceAlpha" result="shadowOffsetOuter1"></feOffset>
            <feColorMatrix values="0 0 0 0 0   0 0 0 0 0   0 0 0 0 0  0 0 0 0.0976016171 0" type="matrix" in="shadowOffsetOuter1"></feColorMatrix>
        </filter>
        <path d="M5,25 C2.23857625,25 0,22.7614237 0,20 C0,17.5814613 1.7171644,15.5639878 3.9988136,15.1002591 L4,6 C4,4.8954305 4.8954305,4 6,4 L15.1002591,3.9988136 C15.5639878,1.7171644 17.5814613,0 20,0 C22.7614237,0 25,2.23857625 25,5 C25,7.76142375 22.7614237,10 20,10 C17.5811085,10 15.5633992,8.28233464 15.1000563,6.00018797 L6,6 L6.00018797,15.1000563 C8.28233464,15.5633992 10,17.5811085 10,20 C10,22.7614237 7.76142375,25 5,25 Z M20,8 C21.6568542,8 23,6.65685425 23,5 C23,3.34314575 21.6568542,2 20,2 C18.3431458,2 17,3.34314575 17,5 C17,6.65685425 18.3431458,8 20,8 Z M5,23 C6.65685425,23 8,21.6568542 8,20 C8,18.3431458 6.65685425,17 5,17 C3.34314575,17 2,18.3431458 2,20 C2,21.6568542 3.34314575,23 5,23 Z" id="path-5"></path>
        <filter x="-4.0%" y="-4.0%" width="108.0%" height="116.0%" filterUnits="objectBoundingBox" id="filter-6">
            <feOffset dx="0" dy="2" in="SourceAlpha" result="shadowOffsetOuter1"></feOffset>
            <feColorMatrix values="0 0 0 0 0   0 0 0 0 0   0 0 0 0 0  0 0 0 0.10270979 0" type="matrix" in="shadowOffsetOuter1"></feColorMatrix>
        </filter>
        <path d="M20,25 C22.7614237,25 25,22.7614237 25,20 C25,17.5814613 23.2828356,15.5639878 21.0011864,15.1002591 L21,6 C21,4.8954305 20.1045695,4 19,4 L9.89974091,3.9988136 C9.43601224,1.7171644 7.41853874,0 5,0 C2.23857625,0 -2.84217094e-14,2.23857625 -2.84217094e-14,5 C-2.84217094e-14,7.76142375 2.23857625,10 5,10 C7.4188915,10 9.43660076,8.28233464 9.89994372,6.00018797 L19,6 L18.999812,15.1000563 C16.7176654,15.5633992 15,17.5811085 15,20 C15,22.7614237 17.2385763,25 20,25 Z M5,8 C3.34314575,8 2,6.65685425 2,5 C2,3.34314575 3.34314575,2 5,2 C6.65685425,2 8,3.34314575 8,5 C8,6.65685425 6.65685425,8 5,8 Z M20,23 C18.3431458,23 17,21.6568542 17,20 C17,18.3431458 18.3431458,17 20,17 C21.6568542,17 23,18.3431458 23,20 C23,21.6568542 21.6568542,23 20,23 Z" id="path-7"></path>
        <filter x="-4.0%" y="-4.0%" width="108.0%" height="116.0%" filterUnits="objectBoundingBox" id="filter-8">
            <feOffset dx="0" dy="2" in="SourceAlpha" result="shadowOffsetOuter1"></feOffset>
            <feColorMatrix values="0 0 0 0 0   0 0 0 0 0   0 0 0 0 0  0 0 0 0.10270979 0" type="matrix" in="shadowOffsetOuter1"></feColorMatrix>
        </filter>
        <path d="M5,0 C2.23857625,0 2.84217094e-14,2.23857625 2.84217094e-14,5 C2.84217094e-14,7.41853874 1.7171644,9.43601224 3.9988136,9.89974091 L4,19 C4,20.1045695 4.8954305,21 6,21 L15.1002591,21.0011864 C15.5639878,23.2828356 17.5814613,25 20,25 C22.7614237,25 25,22.7614237 25,20 C25,17.2385763 22.7614237,15 20,15 C17.5811085,15 15.5633992,16.7176654 15.1000563,18.999812 L6,19 L6.00018797,9.89994372 C8.28233464,9.43660076 10,7.4188915 10,5 C10,2.23857625 7.76142375,0 5,0 Z M20,17 C21.6568542,17 23,18.3431458 23,20 C23,21.6568542 21.6568542,23 20,23 C18.3431458,23 17,21.6568542 17,20 C17,18.3431458 18.3431458,17 20,17 Z M5,2 C6.65685425,2 8,3.34314575 8,5 C8,6.65685425 6.65685425,8 5,8 C3.34314575,8 2,6.65685425 2,5 C2,3.34314575 3.34314575,2 5,2 Z" id="path-9"></path>
        <filter x="-4.0%" y="-4.0%" width="108.0%" height="116.0%" filterUnits="objectBoundingBox" id="filter-10">
            <feOffset dx="0" dy="2" in="SourceAlpha" result="shadowOffsetOuter1"></feOffset>
            <feColorMatrix values="0 0 0 0 0   0 0 0 0 0   0 0 0 0 0  0 0 0 0.10270979 0" type="matrix" in="shadowOffsetOuter1"></feColorMatrix>
        </filter>
        <path d="M20,0 C22.7614237,0 25,2.23857625 25,5 C25,7.41853874 23.2828356,9.43601224 21.0011864,9.89974091 L21,19 C21,20.1045695 20.1045695,21 19,21 L9.89974091,21.0011864 C9.43601224,23.2828356 7.41853874,25 5,25 C2.23857625,25 2.84217094e-14,22.7614237 2.84217094e-14,20 C2.84217094e-14,17.2385763 2.23857625,15 5,15 C7.4188915,15 9.43660076,16.7176654 9.89994372,18.999812 L19,19 L18.999812,9.89994372 C16.7176654,9.43660076 15,7.4188915 15,5 C15,2.23857625 17.2385763,0 20,0 Z M5,17 C3.34314575,17 2,18.3431458 2,20 C2,21.6568542 3.34314575,23 5,23 C6.65685425,23 8,21.6568542 8,20 C8,18.3431458 6.65685425,17 5,17 Z M20,2 C18.3431458,2 17,3.34314575 17,5 C17,6.65685425 18.3431458,8 20,8 C21.6568542,8 23,6.65685425 23,5 C23,3.34314575 21.6568542,2 20,2 Z" id="path-11"></path>
        <filter x="-4.0%" y="-4.0%" width="108.0%" height="116.0%" filterUnits="objectBoundingBox" id="filter-12">
            <feOffset dx="0" dy="2" in="SourceAlpha" result="shadowOffsetOuter1"></feOffset>
            <feColorMatrix values="0 0 0 0 0   0 0 0 0 0   0 0 0 0 0  0 0 0 0.10270979 0" type="matrix" in="shadowOffsetOuter1"></feColorMatrix>
        </filter>
    </defs>
    <g id="Page-1" stroke="none" stroke-width="1" fill="none" fill-rule="evenodd">
        <g id="Rebuild">
            <g id="Microsoft-Graphs/optimize-network-traffic-with-microsoft-graph">
                <g id="Mask" transform="translate(2.000000, 2.000000)">
                    <mask id="mask-2" fill="white">
                        <use xlink:href="#path-1"></use>
                    </mask>
                    <use id="BG" fill="#55A2FF" xlink:href="#path-1"></use>
                    <g id="Path" fill-rule="nonzero" mask="url(#mask-2)">
                        <use fill="black" fill-opacity="1" filter="url(#filter-4)" xlink:href="#path-3"></use>
                        <use fill="#FFFFFF" xlink:href="#path-3"></use>
                    </g>
                    <g id="Quarter" mask="url(#mask-2)" fill-rule="nonzero">
                        <g transform="translate(59.000000, 60.000000)" id="Shape">
                            <path d="M20,9 C17.790861,9 16,7.209139 16,5 C16,2.790861 17.790861,1 20,1 C22.209139,1 24,2.790861 24,5 C24,7.209139 22.209139,9 20,9 Z M5,24 C2.790861,24 1,22.209139 1,20 C1,17.790861 2.790861,16 5,16 C7.209139,16 9,17.790861 9,20 C9,22.209139 7.209139,24 5,24 Z" fill="#F0D44C"></path>
                            <g fill="none">
                                <use fill="black" fill-opacity="1" filter="url(#filter-6)" xlink:href="#path-5"></use>
                                <use fill="#FFFFFF" xlink:href="#path-5"></use>
                            </g>
                        </g>
                    </g>
                    <g id="Quarter" mask="url(#mask-2)" fill-rule="nonzero">
                        <g transform="translate(12.000000, 60.000000)" id="Shape">
                            <path d="M5,9 C7.209139,9 9,7.209139 9,5 C9,2.790861 7.209139,1 5,1 C2.790861,1 1,2.790861 1,5 C1,7.209139 2.790861,9 5,9 Z M20,24 C22.209139,24 24,22.209139 24,20 C24,17.790861 22.209139,16 20,16 C17.790861,16 16,17.790861 16,20 C16,22.209139 17.790861,24 20,24 Z" fill="#3DA5DF"></path>
                            <g fill="none">
                                <use fill="black" fill-opacity="1" filter="url(#filter-8)" xlink:href="#path-7"></use>
                                <use fill="#FFFFFF" xlink:href="#path-7"></use>
                            </g>
                        </g>
                    </g>
                    <g id="Quarter" mask="url(#mask-2)" fill-rule="nonzero">
                        <g transform="translate(59.000000, 11.000000)" id="Shape">
                            <path d="M20,16 C17.790861,16 16,17.790861 16,20 C16,22.209139 17.790861,24 20,24 C22.209139,24 24,22.209139 24,20 C24,17.790861 22.209139,16 20,16 Z M5,1 C2.790861,1 1,2.790861 1,5 C1,7.209139 2.790861,9 5,9 C7.209139,9 9,7.209139 9,5 C9,2.790861 7.209139,1 5,1 Z" fill="#6FC56E"></path>
                            <g fill="none">
                                <use fill="black" fill-opacity="1" filter="url(#filter-10)" xlink:href="#path-9"></use>
                                <use fill="#FFFFFF" xlink:href="#path-9"></use>
                            </g>
                        </g>
                    </g>
                    <g id="Quarter" mask="url(#mask-2)" fill-rule="nonzero">
                        <g transform="translate(12.000000, 11.000000)" id="Combined-Shape">
                            <path d="M5,16 C7.209139,16 9,17.790861 9,20 C9,22.209139 7.209139,24 5,24 C2.790861,24 1,22.209139 1,20 C1,17.790861 2.790861,16 5,16 Z M20,1 C22.209139,1 24,2.790861 24,5 C24,7.209139 22.209139,9 20,9 C17.790861,9 16,7.209139 16,5 C16,2.790861 17.790861,1 20,1 Z" fill="#E86C60"></path>
                            <g fill="none">
                                <use fill="black" fill-opacity="1" filter="url(#filter-12)" xlink:href="#path-11"></use>
                                <use fill="#FFFFFF" xlink:href="#path-11"></use>
                            </g>
                        </g>
                    </g>
                    <g id="Dot" mask="url(#mask-2)">
                        <g transform="translate(32.486586, 34.000000)">
                            <path d="M0,15 C0,23.270625 6.72890625,30 15,30 C23.2710938,30 30,23.270625 30,15 C30,6.72890625 23.2710938,0 15,0 C6.72890625,0 0,6.72890625 0,15 Z" id="Fill-109" fill="#51A0FF"></path>
                            <path d="M3,15 C3,21.6165 8.383125,27 15,27 C21.616875,27 27,21.6165 27,15 C27,8.383125 21.616875,3 15,3 C8.383125,3 3,8.383125 3,15 Z" id="Fill-109" fill="#7CB65A"></path>
                            <path d="M20.3555102,11.3516 C19.877551,10.8828 19.1020408,10.8828 18.6240816,11.3516 L13.7755102,16.1032 L11.3759184,13.7516 C10.8979592,13.2828 10.122449,13.2828 9.6444898,13.7516 C9.16612245,14.22 9.16612245,14.98 9.6444898,15.4484 L12.9097959,18.6484 C13.1485714,18.8828 13.4620408,19 13.7755102,19 C14.0889796,19 14.402449,18.8828 14.6412245,18.6484 L20.3555102,13.0484 C20.8338776,12.58 20.8338776,11.82 20.3555102,11.3516" id="Fill-110" fill="#FFFFFE"></path>
                        </g>
                    </g>
                </g>
                <g id="Azure-Border" stroke="#0078D4" stroke-width="4">
                    <rect x="2" y="2" width="96" height="96" rx="48"></rect>
                </g>
            </g>
        </g>
    </g>
</svg>