<?xml version="1.0" encoding="UTF-8"?>
<svg width="107px" height="107px" viewBox="0 0 107 107" version="1.1" xmlns="http://www.w3.org/2000/svg" xmlns:xlink="http://www.w3.org/1999/xlink">
    <!-- Generator: Sketch 63.1 (92452) - https://sketch.com -->
    <title>Manage your security with Microsoft 365/Overview-of-security-management-in-Microsoft-365-security-center</title>
    <desc>Created with Sketch.</desc>
    <defs>
        <rect id="path-1" x="0" y="0" width="100" height="100" rx="50"></rect>
        <filter x="-8.5%" y="-6.0%" width="117.0%" height="111.9%" filterUnits="objectBoundingBox" id="filter-3">
            <feOffset dx="0" dy="2" in="SourceAlpha" result="shadowOffsetOuter1"></feOffset>
            <feColorMatrix values="0 0 0 0 0   0 0 0 0 0   0 0 0 0 0  0 0 0 0.0964956975 0" type="matrix" in="shadowOffsetOuter1" result="shadowMatrixOuter1"></feColorMatrix>
            <feMerge>
                <feMergeNode in="shadowMatrixOuter1"></feMergeNode>
                <feMergeNode in="SourceGraphic"></feMergeNode>
            </feMerge>
        </filter>
        <filter x="-10.1%" y="-11.3%" width="121.7%" height="124.2%" filterUnits="objectBoundingBox" id="filter-4">
            <feOffset dx="0" dy="2" in="SourceAlpha" result="shadowOffsetOuter1"></feOffset>
            <feColorMatrix values="0 0 0 0 0   0 0 0 0 0   0 0 0 0 0  0 0 0 0.1 0" type="matrix" in="shadowOffsetOuter1" result="shadowMatrixOuter1"></feColorMatrix>
            <feMerge>
                <feMergeNode in="shadowMatrixOuter1"></feMergeNode>
                <feMergeNode in="SourceGraphic"></feMergeNode>
            </feMerge>
        </filter>
        <filter x="-18.8%" y="-13.1%" width="141.3%" height="127.4%" filterUnits="objectBoundingBox" id="filter-5">
            <feOffset dx="0" dy="2" in="SourceAlpha" result="shadowOffsetOuter1"></feOffset>
            <feColorMatrix values="0 0 0 0 0   0 0 0 0 0   0 0 0 0 0  0 0 0 0.101760643 0" type="matrix" in="shadowOffsetOuter1" result="shadowMatrixOuter1"></feColorMatrix>
            <feMerge>
                <feMergeNode in="shadowMatrixOuter1"></feMergeNode>
                <feMergeNode in="SourceGraphic"></feMergeNode>
            </feMerge>
        </filter>
        <linearGradient x1="76.7275556%" y1="-4.05946744%" x2="15.5786468%" y2="110.793945%" id="linearGradient-6">
            <stop stop-color="#FFFFFF" offset="0%"></stop>
            <stop stop-color="#000000" stop-opacity="0.5" offset="100%"></stop>
        </linearGradient>
        <rect id="path-7" x="-3" y="-3" width="106" height="106" rx="53"></rect>
        <filter x="-0.5%" y="-0.5%" width="101.9%" height="101.9%" filterUnits="objectBoundingBox" id="filter-8">
            <feOffset dx="1" dy="1" in="SourceAlpha" result="shadowOffsetOuter1"></feOffset>
            <feMorphology radius="4" operator="erode" in="SourceAlpha" result="shadowInner"></feMorphology>
            <feOffset dx="1" dy="1" in="shadowInner" result="shadowInner"></feOffset>
            <feComposite in="shadowOffsetOuter1" in2="shadowInner" operator="out" result="shadowOffsetOuter1"></feComposite>
            <feColorMatrix values="0 0 0 0 0   0 0 0 0 0   0 0 0 0 0  0 0 0 0.15 0" type="matrix" in="shadowOffsetOuter1"></feColorMatrix>
        </filter>
    </defs>
    <g id="Badges" stroke="none" stroke-width="1" fill="none" fill-rule="evenodd">
        <g id="Manage-your-security-with-Microsoft-365" transform="translate(-47.000000, -257.000000)">
            <g id="Manage-your-security-with-Microsoft-365/Overview-of-security-management-in-Microsoft-365-security-center" transform="translate(50.000000, 260.000000)">
                <g id="Mask" transform="translate(2.000000, 2.000000)">
                    <g id="Circle-" transform="translate(-2.000000, 0.000000)">
                        <mask id="mask-2" fill="white">
                            <use xlink:href="#path-1"></use>
                        </mask>
                        <g id="BG"></g>
                        <g id="Color-/-Microsoft-365" mask="url(#mask-2)" fill="#0078D4" fill-rule="evenodd">
                            <rect id="Rectangle" x="0" y="0" width="100" height="100"></rect>
                        </g>
                    </g>
                    <g id="Book" filter="url(#filter-3)" transform="translate(25.000000, 15.000000)">
                        <path d="M0.832518557,55.6124645 L0.832518557,61.6124645 C0.839673316,62.8067453 1.6709668,63.6146507 2.83251856,63.6124645 L46.8325186,63.6124645 L46.8325186,55.6124645 L0.832518557,55.6124645 Z" id="Shape" fill="#BE9556" fill-rule="nonzero"></path>
                        <path d="M2.83251856,56.6124645 L2.83251856,60.6124645 C2.86672747,61.717521 3.75260508,62.6147293 4.78807411,62.6124645 L46.8325186,62.6124645 L46.8325186,56.6124645 L2.83251856,56.6124645 Z" id="Shape" fill="#FFFFFF" fill-rule="nonzero"></path>
                        <polygon id="Shape" fill="#4F4D52" fill-rule="nonzero" opacity="0.2" points="2.83251856 56.6124645 2.83251856 57.6124645 46.8325186 57.6124645 46.8325186 56.6124645"></polygon>
                        <polygon id="Shape" fill="#4F4D52" fill-rule="nonzero" opacity="0.2" points="20.8325186 56.6124645 26.8325186 62.6124645 20.8325186 62.6124645"></polygon>
                        <polygon id="Shape" fill="#EF6F59" fill-rule="nonzero" points="21.8325186 66.6124645 17.8325186 64.6124645 14.8325186 66.6124645 14.8325186 56.6124645 21.8325186 56.6124645"></polygon>
                        <polygon id="Shape" fill="#F7CB64" fill-rule="nonzero" points="46.8325186 55.6124645 0.832518557 55.6124645 0.832518557 0.612464493 46.8325186 0.612464493"></polygon>
                        <path d="M23.8325186,51.6124645 C23.8325186,52.7164645 22.9384486,53.6124645 21.8325186,53.6124645 L0.832518557,53.6124645 L0.832518557,55.6124645 L46.8325186,55.6124645 L46.8325186,3.61246449 L25.8325186,3.61246449 C24.7265885,3.61246449 23.8325186,4.50746449 23.8325186,5.61246449 L23.8325186,51.6124645 Z" id="Fill-361" fill-opacity="0.126868207" fill="#000000"></path>
                    </g>
                    <g id="Group" transform="translate(29.000000, 20.000000)">
                        <g id="Gear-Lightbulb">
                            <g id="Group-74" filter="url(#filter-4)" transform="translate(0.285714, 0.000000)">
                                <g id="Group-5">
                                    <path d="M19.6112,30.4170857 C13.2992,30.4170857 8.18262857,25.3005143 8.18262857,18.9885143 C8.18262857,12.6765143 13.2992,7.55994286 19.6112,7.55994286 C25.9232,7.55994286 31.0397714,12.6765143 31.0397714,18.9885143 C31.0397714,25.3005143 25.9232,30.4170857 19.6112,30.4170857 M34.2797714,16.0250857 L32.5357714,11.7290857 L34.2534857,9.61194286 C35.0020571,8.68965714 34.9186286,7.34737143 34.0626286,6.52394286 L32.5894857,5.10794286 C31.7597714,4.30965714 30.4660571,4.25365714 29.5706286,4.97651429 L27.4512,6.68565714 L23.1574857,4.80222857 L22.9232,2.08908571 C22.8203429,0.9068 21.8317714,0.000514285714 20.6460571,0.000514285714 L18.6163429,0.000514285714 C17.4460571,0.000514285714 16.4643429,0.883942857 16.3426286,2.04794286 L16.0552,4.80222857 L11.6557714,6.68565714 L9.50434286,4.96851429 C8.6032,4.25022857 7.31005714,4.31365714 6.48434286,5.11708571 L5.05177143,6.51137143 C4.19805714,7.34108571 4.12491429,8.68737143 4.88262857,9.60451429 L6.63577143,11.7290857 L4.78148571,16.0250857 L2.02891429,16.3365143 C0.873485714,16.4673714 0.000342857143,17.4450857 0.000342857143,18.6079429 L0.000342857143,20.8908 C0.000342857143,22.0662286 0.890628571,23.0490857 2.05977143,23.1656571 L4.78148571,23.4353714 L6.63577143,27.7073714 L4.87405714,29.7890857 C4.11748571,30.6839429 4.15977143,32.0056571 4.97234286,32.8508 L6.44091429,34.3776571 C7.27748571,35.2462286 8.64548571,35.3159429 9.56548571,34.5365143 L12.0980571,32.3919429 L26.9729143,32.3919429 L29.7632,34.4610857 C30.6774857,35.1399429 31.9529143,35.0416571 32.7523429,34.2302286 L34.1546286,32.8068 C34.9666286,31.9833714 35.0352,30.6839429 34.3152,29.7788 L32.5357714,27.5428 L34.2797714,23.1942286 L37.1363429,22.9439429 C38.3169143,22.8399429 39.2220571,21.8519429 39.2220571,20.6668 L39.2220571,18.6153714 C39.2220571,17.4490857 38.3443429,16.4696571 37.1849143,16.3428 L34.2797714,16.0250857 Z" id="Fill-1" fill="#546670"></path>
                                    <path d="M34.2797143,16.0251429 L32.5357143,11.7291429 L34.2534286,9.612 C35.002,8.68914286 34.9185714,7.34742857 34.0625714,6.524 L32.5894286,5.108 C31.7597143,4.30971429 30.466,4.25371429 29.5705714,4.976 L27.4511429,6.68571429 L23.1574286,4.80228571 L22.9231429,2.08914286 C22.8202857,0.906857143 21.8317143,-2.35494164e-13 20.646,-2.35494164e-13 L19.4238281,-2.35494164e-13 L19.4238281,7.56 C25.7358281,7.56 31.0397143,12.6765714 31.0397143,18.9885714 C31.0397143,25.3005714 25.7358281,30.4171429 19.4238281,30.4171429 L19.4238281,32.392 L26.9728571,32.392 L29.7631429,34.4611429 C30.6774286,35.14 31.9528571,35.0417143 32.7522857,34.2302857 L34.1545714,32.8068571 C34.9665714,31.9834286 35.0351429,30.684 34.3157143,29.7788571 L32.5357143,27.5428571 L34.2797143,23.1942857 L37.1362857,22.944 C38.3168571,22.84 39.222,21.852 39.222,20.6662857 L39.222,18.6154286 C39.222,17.4491429 38.3442857,16.4697143 37.1848571,16.3428571 L34.2797143,16.0251429 Z" id="Fill-3" fill="#30404D"></path>
                                </g>
                                <g id="Group-67" transform="translate(8.000000, 8.000000)" stroke-width="2">
                                    <ellipse id="Oval" stroke="#30404D" fill-rule="nonzero" cx="11.7142857" cy="11.1428571" rx="11.4285714" ry="11.1428571"></ellipse>
                                    <path d="M11.4238281,22.2857143 C17.7358281,22.2857143 23.1428571,17.2970571 23.1428571,11.1428571 C23.1428571,5.60018935 18.7570131,1.0029371 13.2742412,0.144023681 C12.6693174,0.0492582657 12.0510406,0 11.4238281,0" id="Stroke-1" stroke="#546670"></path>
                                </g>
                            </g>
                        </g>
                        <g id="Round-Lock" transform="translate(2.857143, 13.714286)">
                            <path d="M6.05896199,19.3529447 L2.4247717,19.3529447 C1.20016465,19.3529447 0.203877633,18.3566576 0.203877633,17.1320506 C0.203877633,15.9074436 1.20016465,14.9111565 2.4247717,14.9111565 C2.53715702,14.9111565 2.6501339,14.9213101 2.77139269,14.9427033 C3.20082275,13.4879026 4.5255901,12.488363 6.05896199,12.488363 C7.95157157,12.488363 9.49125282,14.0280443 9.49125282,15.9206538 C9.49125282,17.8132634 7.95157157,19.3529447 6.05896199,19.3529447 Z" id="Cloud" fill="#FFFFFF" fill-rule="nonzero"></path>
                            <g id="Lock" filter="url(#filter-5)" transform="translate(6.624389, 0.210613)">
                                <path d="M10.5184686,0 C6.30056268,0 2.86867325,3.43188943 2.86867325,7.64979533 L2.86867325,13.3871418 C2.86867325,13.9149777 3.51125605,14.3433662 4.30300987,14.3433662 C5.09476369,14.3433662 5.73734649,13.9149777 5.73734649,13.3871418 L5.73734649,7.64979533 C5.73734649,5.01348461 7.88215786,2.86867325 10.5184686,2.86867325 C13.1547793,2.86867325 15.2995907,5.01348461 15.2995907,7.64979533 L15.2995907,13.3871418 C15.2995907,13.9149777 15.9421735,14.3433662 16.7339273,14.3433662 C17.5256811,14.3433662 18.1682639,13.9149777 18.1682639,13.3871418 L18.1682639,7.64979533 C18.1682639,3.43188943 14.7363745,0 10.5184686,0" id="Fill-84" fill="#F3F3F3"></path>
                                <path d="M10.5184686,0 C10.3568666,0 10.1990896,0.013865254 10.0403564,0.0243837226 C14.0349839,0.273002071 17.2120395,3.59349135 17.2120395,7.64979533 L17.2120395,10.0178851 C17.2120395,10.5734515 16.6067494,10.9196047 16.1315059,10.6322593 C15.8618506,10.469223 15.5845455,10.3176614 15.2995907,10.179487 L15.2995907,13.3871418 C15.2995907,13.9149777 15.9421735,14.3433662 16.7339273,14.3433662 C17.5256811,14.3433662 18.1682639,13.9149777 18.1682639,13.3871418 L18.1682639,7.64979533 C18.1682639,3.43188943 14.7363745,0 10.5184686,0" id="Fill-85" fill="#C5CCCD"></path>
                                <path d="M8.71550744,2.94612742 C6.40574736,3.36925673 4.78112208,5.47199422 4.78112208,7.82048138 L4.78112208,9.94282147 C4.78112208,10.400853 4.56597159,10.8364132 4.19160973,11.0993749 C3.72210354,11.4292723 3.27937163,11.7935938 2.86867325,12.1918613 L2.86867325,13.3871418 C2.86867325,13.9149777 3.51125605,14.3433662 4.30300987,14.3433662 C5.09476369,14.3433662 5.73734649,13.9149777 5.73734649,13.3871418 L5.73734649,7.64979533 C5.73734649,5.17460843 7.62732405,3.13402552 10.0403564,2.89305697 C9.61531461,2.85002687 9.17688572,2.86150156 8.71550744,2.94612742" id="Fill-87" fill="#C5CCCD"></path>
                                <path d="M10.5184686,10.5184686 C5.24584714,10.5184686 0.956224416,14.8080913 0.956224416,20.0807127 C0.956224416,25.3533342 5.24584714,29.6429569 10.5184686,29.6429569 C15.79109,29.6429569 20.0807127,25.3533342 20.0807127,20.0807127 C20.0807127,14.8080913 15.79109,10.5184686 10.5184686,10.5184686" id="Fill-88" fill="#30404D"></path>
                                <path d="M10.5184686,10.5184686 L10.5184686,12.9090296 C10.2540725,12.9090296 10.0403564,12.6953135 10.0403564,12.4309174 L10.0403564,12.9090296 C10.0403564,13.059635 10.1101607,13.1939845 10.2186922,13.281479 C10.4300178,13.451687 10.5184686,13.7337732 10.5184686,14.0048628 L10.5184686,23.4270201 C9.6616915,23.4270201 8.80491442,23.1004694 8.15181314,22.44689 C7.55895401,21.8549871 7.23861883,21.0947887 7.18315781,20.3197688 C7.11670021,21.2544782 7.43799162,22.2116588 8.15181314,22.9259585 C8.55773041,23.3318757 9.04253619,23.6120495 9.55746304,23.7655235 C10.1417162,23.9400345 10.5184686,24.5094661 10.5184686,25.1190592 L10.5184686,29.6429569 C15.79109,29.6429569 20.0807127,25.3533342 20.0807127,20.0807127 C20.0807127,14.8080913 15.79109,10.5184686 10.5184686,10.5184686" id="Fill-89" fill="#182A37"></path>
                                <path d="M5.4476105,15.0098547 C5.3539005,15.1030865 5.23150378,15.1494634 5.10910705,15.1494634 C4.98718844,15.1494634 4.86479172,15.1030865 4.77108172,15.0098547 L4.11367744,14.3524504 C2.85002687,15.7638376 2.04775459,17.5902262 1.93683255,19.6026005 L1.98368755,19.6026005 C2.18688524,17.780993 2.95138666,16.1286372 4.11367744,14.8305626 L4.77108172,15.4879669 C4.86479172,15.5811987 4.98718844,15.6275756 5.10910705,15.6275756 C5.23150378,15.6275756 5.3539005,15.5811987 5.4476105,15.4879669 C5.60490941,15.3301898 5.62164334,15.0940024 5.51311187,14.9104073 C5.49303116,14.9448314 5.47677534,14.9802117 5.4476105,15.0098547" id="Fill-90" fill="#182A37"></path>
                                <path d="M10.0403564,11.9771889 L10.0403564,11.4990767 C8.02798208,11.6099987 6.20159345,12.412271 4.79020621,13.6759216 L5.05173359,13.9379271 C6.42582807,12.8024106 8.14846636,12.0814174 10.0403564,11.9771889" id="Fill-91" fill="#182A37"></path>
                                <path d="M2.86867325,20.5588249 L1.93683255,20.5588249 C1.94543857,20.7204269 1.96647551,20.8782039 1.98368755,21.0369371 L2.86867325,21.0369371 C3.1330693,21.0369371 3.34678546,20.823221 3.34678546,20.5588249 C3.34678546,20.4703742 3.31570816,20.3910076 3.27363429,20.3197688 C3.18996465,20.4598557 3.04366232,20.5588249 2.86867325,20.5588249" id="Fill-92" fill="#182A37"></path>
                                <path d="M5.4476105,25.8280996 L4.79020621,26.4855039 C4.87435396,26.5610456 4.96519528,26.6289375 5.05173359,26.7016106 L5.4476105,26.3062118 C5.60490941,26.1484348 5.62164334,25.9122473 5.51311187,25.7286522 C5.49303116,25.7630763 5.47677534,25.7984566 5.4476105,25.8280996" id="Fill-93" fill="#182A37"></path>
                                <path d="M16.9227816,25.8089751 L16.2653773,25.1515708 C16.0789136,24.965107 15.7762685,24.965107 15.5893266,25.1515708 C15.4028629,25.3385127 15.4028629,25.6411577 15.5893266,25.8280996 L16.2467309,26.4855039 C14.8353437,27.7491544 13.0089551,28.5514267 10.9965808,28.6623487 L10.9965808,27.7305081 C10.9965808,27.466112 10.7828646,27.2523958 10.5184686,27.2523958 C10.2540725,27.2523958 10.0403564,27.466112 10.0403564,27.7305081 L10.0403564,28.6623487 C8.02798208,28.5514267 6.20159345,27.7491544 4.79020621,26.4855039 L5.4476105,25.8280996 C5.63407426,25.6411577 5.63407426,25.3385127 5.4476105,25.1515708 C5.26066862,24.965107 4.9580236,24.965107 4.77108172,25.1515708 L4.11367744,25.8089751 C2.85002687,24.3975879 2.04775459,22.5711992 1.93683255,20.5588249 L2.86867325,20.5588249 C3.1330693,20.5588249 3.34678546,20.3451088 3.34678546,20.0807127 C3.34678546,19.8163167 3.1330693,19.6026005 2.86867325,19.6026005 L1.93683255,19.6026005 C2.04775459,17.5902262 2.85002687,15.7638376 4.11367744,14.3524504 L4.77108172,15.0098547 C4.86479172,15.1030865 4.98718844,15.1494634 5.10910705,15.1494634 C5.23150378,15.1494634 5.3539005,15.1030865 5.4476105,15.0098547 C5.63407426,14.8229128 5.63407426,14.5202678 5.4476105,14.3333259 L4.79020621,13.6759216 C6.20159345,12.412271 8.02798208,11.6099987 10.0403564,11.4990767 L10.0403564,12.4309174 C10.0403564,12.6953135 10.2540725,12.9090296 10.5184686,12.9090296 C10.7828646,12.9090296 10.9965808,12.6953135 10.9965808,12.4309174 L10.9965808,11.4990767 C13.0089551,11.6099987 14.8353437,12.412271 16.2467309,13.6759216 L15.5893266,14.3333259 C15.4028629,14.5202678 15.4028629,14.8229128 15.5893266,15.0098547 C15.6830366,15.1030865 15.8054334,15.1494634 15.927352,15.1494634 C16.0497487,15.1494634 16.1721454,15.1030865 16.2653773,15.0098547 L16.9227816,14.3524504 C18.1869103,15.7638376 18.9891826,17.5902262 19.1001046,19.6026005 L18.1682639,19.6026005 C17.9038678,19.6026005 17.6901517,19.8163167 17.6901517,20.0807127 C17.6901517,20.3451088 17.9038678,20.5588249 18.1682639,20.5588249 L19.1001046,20.5588249 C18.9891826,22.5711992 18.1869103,24.3975879 16.9227816,25.8089751 Z M10.5184686,9.56224416 C4.71848938,9.56224416 0,14.2807335 0,20.0807127 C0,25.8806919 4.71848938,30.5991813 10.5184686,30.5991813 C16.3184478,30.5991813 21.0369371,25.8806919 21.0369371,20.0807127 C21.0369371,14.2807335 16.3184478,9.56224416 10.5184686,9.56224416 L10.5184686,9.56224416 Z" id="Fill-94" fill="#546670"></path>
                                <polyline id="Fill-95" fill="#DF5142" points="13.5611747 19.0666367 11.2117313 19.353026 11.5497566 17.0212727 14.5585167 16.0067186 13.5611747 19.0666367"></polyline>
                                <path d="M12.885124,22.44689 C14.1918047,21.1406875 14.1913266,19.0202599 12.885124,17.7145354 C11.5779652,16.4068985 9.45897192,16.4068985 8.15181314,17.7145354 L12.885124,22.44689" id="Fill-96" fill="#ADBDC4"></path>
                                <path d="M8.15181314,17.7145354 C6.84513248,19.020738 6.84561059,21.1411656 8.15181314,22.44689 C9.45897192,23.7545269 11.5779652,23.7545269 12.885124,22.44689 L8.15181314,17.7145354" id="Fill-97" fill="#A0AEB3"></path>
                            </g>
                            <path d="M32.0527875,16.4289885 L25.1566929,16.4289885 C23.9345079,16.4289885 22.9400911,15.4345716 22.9400911,14.2123866 C22.9400911,13.2613832 23.5481173,12.4257095 24.439472,12.1215745 C24.6255114,10.10376 26.3141802,8.54773754 28.3584511,8.54773754 C30.3507722,8.54773754 32.0257302,10.0495247 32.2654039,12.0058876 C33.3882556,12.113277 34.2693893,13.0618742 34.2693893,14.2123866 C34.2693893,15.4345716 33.2749725,16.4289885 32.0527875,16.4289885 Z" id="Cloud" fill="#FFFFFF" fill-rule="nonzero" opacity="0.900000036"></path>
                        </g>
                    </g>
                </g>
                <g id="Azure-Border">
                    <path d="M50,0 C74.5263677,-4.50542066e-15 94.9281966,17.6592499 99.1842495,40.9565123 L94.2027317,73.3905473 C85.8096395,89.2186645 69.1638777,100 50,100 C30.9551233,100 14.3971863,89.3521454 5.95457608,73.6848234 L0.0261464987,48.3675131 C0.887696267,21.508872 22.932015,4.97230817e-15 50,0 Z" id="Combined-Shape" fill="url(#linearGradient-6)" fill-rule="evenodd" opacity="0.400000006" style="mix-blend-mode: overlay;"></path>
                    <g>
                        <use fill="black" fill-opacity="1" filter="url(#filter-8)" xlink:href="#path-7"></use>
                        <rect stroke="#F2F1F0" stroke-width="4" stroke-linejoin="square" x="-1" y="-1" width="102" height="102" rx="51"></rect>
                    </g>
                    <rect stroke="#0078D4" stroke-width="4" x="2" y="2" width="96" height="96" rx="48"></rect>
                </g>
            </g>
        </g>
    </g>
</svg>