<svg width="103" height="103" viewBox="0 0 103 103" fill="none" xmlns="http://www.w3.org/2000/svg">
<path d="M51.4999 98.1542C25.6499 98.1542 4.68994 77.2042 4.68994 51.3442C4.68994 25.4842 25.6499 4.53418 51.4999 4.53418C77.3499 4.53418 98.3099 25.4942 98.3099 51.3442C98.3099 77.1942 77.3499 98.1542 51.4999 98.1542Z" fill="url(#paint0_linear)"/>
<path fill-rule="evenodd" clip-rule="evenodd" d="M51.5 1.34375C79.11 1.34375 101.5 23.7337 101.5 51.3438C101.5 78.9538 79.11 101.344 51.5 101.344C23.89 101.344 1.5 78.9538 1.5 51.3438C1.5 23.7337 23.89 1.34375 51.5 1.34375ZM51.5 97.1038C76.77 97.1038 97.26 76.6138 97.26 51.3438C97.26 26.0737 76.77 5.58375 51.5 5.58375C26.23 5.58375 5.74 26.0737 5.74 51.3438C5.74 76.6138 26.23 97.1038 51.5 97.1038Z" fill="#D9D9D9"/>
<path fill-rule="evenodd" clip-rule="evenodd" d="M97.4001 51.3441C97.4001 76.6941 76.8501 97.2441 51.5001 97.2441C26.1501 97.2441 5.60011 76.6941 5.60011 51.3441C5.60011 25.9941 26.1501 5.4441 51.5001 5.4441C76.8501 5.4441 97.4001 25.9941 97.4001 51.3441ZM51.5001 1.7041C78.9201 1.7041 101.14 23.9241 101.14 51.3441C101.14 78.7641 78.9101 100.984 51.5001 100.984C24.0801 100.984 1.86011 78.7541 1.86011 51.3441C1.86011 23.9241 24.0801 1.7041 51.5001 1.7041Z" fill="#F2F1F0"/>
<path fill-rule="evenodd" clip-rule="evenodd" d="M51.4999 94.4337C27.6999 94.4337 8.40992 75.1437 8.40992 51.3437C8.40992 27.5437 27.6999 8.25367 51.4999 8.25367C75.2999 8.25367 94.5899 27.5437 94.5899 51.3437C94.5899 75.1437 75.2999 94.4337 51.4999 94.4337ZM98.3299 51.3437C98.3299 77.2037 77.3599 98.1737 51.4999 98.1737C25.6399 98.1737 4.66992 77.2037 4.66992 51.3437C4.66992 25.4837 25.6399 4.51367 51.4999 4.51367C77.3599 4.51367 98.3299 25.4737 98.3299 51.3437Z" fill="url(#paint1_linear)"/>
<path d="M51.17 31.6639C48.34 31.6639 46.02 29.3339 46.02 26.4739C46.02 23.6139 48.34 21.2939 51.17 21.2939C54 21.2939 56.32 23.6239 56.32 26.4839C56.32 29.3439 54.01 31.6639 51.17 31.6639ZM51.17 23.3439C49.46 23.3439 48.07 24.7539 48.07 26.4839C48.07 28.2139 49.47 29.6239 51.17 29.6239C52.88 29.6239 54.27 28.2139 54.27 26.4839C54.27 24.7539 52.88 23.3439 51.17 23.3439Z" fill="url(#paint2_linear)"/>
<path d="M64.3601 80.9242H38.6401L35.9301 85.9642L34.1301 84.9842L41.6101 71.0342L43.4001 72.0242L39.7201 78.8642H63.2501L59.5701 72.0242L61.3701 71.0542L68.8501 85.0042L67.0501 85.9842L64.3601 80.9242Z" fill="url(#paint3_linear)"/>
<path d="M79.3801 32.0244H23.6501V69.4744H79.3701V32.0244H79.3801Z" fill="url(#paint4_linear)"/>
<path d="M22.9201 26.4736H80.0701C81.2001 26.4736 82.1201 27.3936 82.1201 28.5236V30.6636C82.1201 31.7936 81.2001 32.7136 80.0701 32.7136H22.9201C21.7901 32.7036 20.8701 31.7836 20.8701 30.6536V28.5236C20.8801 27.3936 21.8001 26.4736 22.9201 26.4736Z" fill="url(#paint5_linear)"/>
<path d="M22.6101 68.6836H80.3901C81.3501 68.6836 82.1201 69.4636 82.1201 70.4136C82.1201 71.3736 81.3401 72.1436 80.3901 72.1436H22.6101C21.6501 72.1536 20.8801 71.3736 20.8801 70.4236C20.8801 69.4636 21.6501 68.6836 22.6101 68.6836Z" fill="url(#paint6_linear)"/>
<path d="M79.3801 32.0244H23.6501V69.4744H79.3701V32.0244H79.3801Z" fill="url(#paint7_linear)"/>
<path d="M22.9201 26.4736H80.0701C81.2001 26.4736 82.1201 27.3936 82.1201 28.5236V30.6636C82.1201 31.7936 81.2001 32.7136 80.0701 32.7136H22.9201C21.7901 32.7036 20.8701 31.7836 20.8701 30.6536V28.5236C20.8801 27.3936 21.8001 26.4736 22.9201 26.4736Z" fill="url(#paint8_linear)"/>
<path d="M22.6101 68.6836H80.3901C81.3501 68.6836 82.1201 69.4636 82.1201 70.4136C82.1201 71.3736 81.3401 72.1436 80.3901 72.1436H22.6101C21.6501 72.1536 20.8801 71.3736 20.8801 70.4236C20.8801 69.4636 21.6501 68.6836 22.6101 68.6836Z" fill="url(#paint9_linear)"/>
<path d="M63.5 48.3633H69.27C69.82 48.3633 70.26 48.8033 70.26 49.3533V54.6133C70.26 56.6133 68.64 58.2433 66.63 58.2433H66.61C64.61 58.2433 62.98 56.6233 62.98 54.6133V48.8833C62.99 48.5933 63.22 48.3633 63.5 48.3633Z" fill="#5059C9"/>
<path d="M67.4001 47.3236C68.6901 47.3236 69.7401 46.2736 69.7401 44.9836C69.7401 43.6936 68.6901 42.6436 67.4001 42.6436C66.1101 42.6436 65.0601 43.6936 65.0601 44.9836C65.0601 46.2736 66.1101 47.3236 67.4001 47.3236Z" fill="#5059C9"/>
<path d="M60.13 47.3235C61.99 47.3235 63.51 45.8135 63.51 43.9435C63.51 42.0835 62 40.5635 60.13 40.5635C58.27 40.5635 56.75 42.0735 56.75 43.9435C56.75 45.8135 58.26 47.3235 60.13 47.3235Z" fill="#7B83EB"/>
<path d="M64.63 48.3633H55.11C54.57 48.3733 54.15 48.8233 54.16 49.3633V55.3533C54.08 58.5833 56.64 61.2633 59.87 61.3433C63.1 61.2633 65.66 58.5833 65.58 55.3533V49.3633C65.59 48.8233 65.17 48.3733 64.63 48.3633Z" fill="#7B83EB"/>
<path opacity="0.1" d="M60.3901 48.3633V56.7633C60.3901 57.1533 60.1501 57.4933 59.8001 57.6433C59.6901 57.6933 59.5601 57.7133 59.4401 57.7133H54.6201C54.5501 57.5433 54.4901 57.3733 54.4401 57.1933C54.2601 56.5933 54.1701 55.9733 54.1701 55.3533V49.3633C54.1601 48.8233 54.5801 48.3833 55.1201 48.3633H60.3901V48.3633Z" fill="black"/>
<path opacity="0.2" d="M59.8701 48.3635V57.2835C59.8701 57.4035 59.8501 57.5235 59.8001 57.6435C59.6501 58.0035 59.3101 58.2335 58.9201 58.2335H54.8601C54.7701 58.0635 54.6901 57.8935 54.6201 57.7135C54.5501 57.5335 54.4901 57.3735 54.4401 57.1935C54.2601 56.5935 54.1701 55.9735 54.1701 55.3535V49.3535C54.1601 48.8135 54.5801 48.3735 55.1201 48.3535H59.8701V48.3635Z" fill="black"/>
<path opacity="0.2" d="M59.8701 48.3633V56.2433C59.8701 56.7633 59.4401 57.1933 58.9201 57.1933H54.4301C54.2501 56.5933 54.1601 55.9733 54.1601 55.3533V49.3633C54.1501 48.8233 54.5701 48.3833 55.1101 48.3633H59.8701Z" fill="black"/>
<path opacity="0.2" d="M59.3501 48.3633V56.2433C59.3501 56.7633 58.9201 57.1933 58.4001 57.1933H54.4301C54.2501 56.5933 54.1601 55.9733 54.1601 55.3533V49.3633C54.1501 48.8233 54.5701 48.3833 55.1101 48.3633H59.3501Z" fill="black"/>
<path opacity="0.1" d="M60.3901 45.6734V47.3134C60.3001 47.3234 60.2201 47.3234 60.1301 47.3234C60.0401 47.3234 59.9601 47.3134 59.8701 47.3134C59.6901 47.3034 59.5201 47.2734 59.3501 47.2334C58.3001 46.9834 57.4301 46.2434 57.0101 45.2534C56.9401 45.0834 56.8801 44.9134 56.8401 44.7334H59.4301C59.9601 44.7334 60.3901 45.1534 60.3901 45.6734Z" fill="black"/>
<path opacity="0.2" d="M59.87 46.1931V47.3131C59.69 47.3031 59.52 47.2731 59.35 47.2331C58.3 46.9831 57.43 46.2431 57.01 45.2531H58.92C59.44 45.2431 59.87 45.6731 59.87 46.1931Z" fill="black"/>
<path opacity="0.2" d="M59.87 46.1931V47.3131C59.69 47.3031 59.52 47.2731 59.35 47.2331C58.3 46.9831 57.43 46.2431 57.01 45.2531H58.92C59.44 45.2431 59.87 45.6731 59.87 46.1931Z" fill="black"/>
<path opacity="0.2" d="M59.35 46.1932V47.2232C58.3 46.9732 57.43 46.2332 57.01 45.2432H58.4C58.92 45.2432 59.35 45.6732 59.35 46.1932Z" fill="black"/>
<path d="M48.8801 45.2432H58.4001C58.9301 45.2432 59.3501 45.6732 59.3501 46.1932V55.7132C59.3501 56.2432 58.9201 56.6632 58.4001 56.6632H48.8801C48.3501 56.6632 47.9301 56.2332 47.9301 55.7132V46.1932C47.9201 45.6732 48.3501 45.2432 48.8801 45.2432Z" fill="url(#paint10_linear)"/>
<path d="M56.1401 48.8733H54.2401V54.0533H53.0301V48.8733H51.1401V47.8633H56.1501V48.8733H56.1401Z" fill="white"/>
<path d="M35.91 41.6042C35.43 41.7042 33.71 43.0342 33.3 44.1842C32.9 45.3342 32.82 48.0342 33.42 50.4342C34.02 52.8342 34.69 53.6442 35.15 54.5942C35.61 55.5342 36.93 57.9942 39.92 59.9442C42.92 61.8942 45.16 60.5042 45.5 60.1442C45.84 59.7842 46.42 58.8442 46.44 58.4942C46.45 58.1542 46.51 58.1442 46 57.6542C45.49 57.1642 44.22 55.6842 43.84 55.2642C43.46 54.8442 43 54.7442 42.72 54.9242C42.44 55.1042 41.22 55.9442 40.9 56.0842C40.58 56.2242 40.57 56.4242 40.07 55.9842C39.57 55.5442 38.25 54.0742 37.47 52.4542C36.69 50.8342 36.29 48.8242 36.2 48.4042C36.12 47.9842 36.35 47.8842 37.06 47.5242C37.77 47.1642 38.66 46.8842 38.96 46.7142C39.26 46.5442 39.05 46.2242 39.01 45.7442C38.97 45.2642 38.43 42.7042 38.27 42.1842C38.12 41.6642 37.91 41.6942 37.56 41.6342C37.21 41.5642 36.36 41.5142 35.91 41.6042Z" fill="url(#paint11_linear)"/>
<defs>
<linearGradient id="paint0_linear" x1="36.4424" y1="0.90498" x2="66.6787" y2="102.197" gradientUnits="userSpaceOnUse">
<stop stop-color="#A9B1FF"/>
<stop offset="1" stop-color="#7B83EB"/>
</linearGradient>
<linearGradient id="paint1_linear" x1="51.4998" y1="4.51327" x2="51.4998" y2="98.1735" gradientUnits="userSpaceOnUse">
<stop stop-color="#5A62C3"/>
<stop offset="0.5" stop-color="#4D55BD"/>
<stop offset="1" stop-color="#3940AB"/>
</linearGradient>
<linearGradient id="paint2_linear" x1="43.7543" y1="11.1815" x2="71.3423" y2="68.0995" gradientUnits="userSpaceOnUse">
<stop stop-color="#5A62C3"/>
<stop offset="0.5" stop-color="#4D55BD"/>
<stop offset="1" stop-color="#3940AB"/>
</linearGradient>
<linearGradient id="paint3_linear" x1="57.5559" y1="159.345" x2="45.9399" y2="16.758" gradientUnits="userSpaceOnUse">
<stop stop-color="#5A62C3"/>
<stop offset="0.5" stop-color="#4D55BD"/>
<stop offset="1" stop-color="#3940AB"/>
</linearGradient>
<linearGradient id="paint4_linear" x1="51.5146" y1="69.4789" x2="51.5146" y2="32.0262" gradientUnits="userSpaceOnUse">
<stop stop-color="#D2EBFF"/>
<stop offset="1" stop-color="#F0FFFD"/>
</linearGradient>
<linearGradient id="paint5_linear" x1="51.4999" y1="26.4835" x2="51.4999" y2="32.7142" gradientUnits="userSpaceOnUse">
<stop stop-color="#0099BE"/>
<stop offset="1" stop-color="#006E97"/>
</linearGradient>
<linearGradient id="paint6_linear" x1="51.4999" y1="68.6963" x2="51.4999" y2="72.1612" gradientUnits="userSpaceOnUse">
<stop stop-color="#0099BE"/>
<stop offset="1" stop-color="#006E97"/>
</linearGradient>
<linearGradient id="paint7_linear" x1="52.4875" y1="89.6689" x2="51.3537" y2="44.3146" gradientUnits="userSpaceOnUse">
<stop stop-color="#D2DBFF"/>
<stop offset="1" stop-color="#F0FFFD"/>
</linearGradient>
<linearGradient id="paint8_linear" x1="51.4999" y1="26.5525" x2="51.4999" y2="30.5318" gradientUnits="userSpaceOnUse">
<stop stop-color="#5A62C3"/>
<stop offset="0.5" stop-color="#4D55BD"/>
<stop offset="1" stop-color="#3940AB"/>
</linearGradient>
<linearGradient id="paint9_linear" x1="51.4999" y1="68.1534" x2="51.4999" y2="71.0474" gradientUnits="userSpaceOnUse">
<stop stop-color="#5A62C3"/>
<stop offset="0.5" stop-color="#4D55BD"/>
<stop offset="1" stop-color="#3940AB"/>
</linearGradient>
<linearGradient id="paint10_linear" x1="49.9081" y1="44.5023" x2="57.3647" y2="57.4166" gradientUnits="userSpaceOnUse">
<stop stop-color="#5A62C3"/>
<stop offset="0.5" stop-color="#4D55BD"/>
<stop offset="1" stop-color="#3940AB"/>
</linearGradient>
<linearGradient id="paint11_linear" x1="29.4336" y1="38.2081" x2="50.0662" y2="67.3364" gradientUnits="userSpaceOnUse">
<stop stop-color="#5A62C3"/>
<stop offset="0.5" stop-color="#4D55BD"/>
<stop offset="1" stop-color="#3940AB"/>
</linearGradient>
</defs>
</svg>
