<svg width="160" height="189" viewBox="0 0 160 189" fill="none" xmlns="http://www.w3.org/2000/svg">
<g clip-path="url(#clip0_940_1590)">
<path d="M80.0334 188.989C83.1147 188.984 86.1351 188.13 88.7638 186.523L150.739 148.863C153.52 147.099 155.804 144.654 157.375 141.76C158.945 138.865 159.749 135.618 159.711 132.325V57.61C159.747 54.3176 158.942 51.0705 157.372 48.1763C155.802 45.2822 153.519 42.8369 150.739 41.0722L88.7638 3.41206C86.1303 1.82686 83.1147 0.989258 80.041 0.989258C76.9672 0.989258 73.9516 1.82686 71.3182 3.41206L9.34307 41.0873C6.55997 42.8496 4.27342 45.294 2.70046 48.1884C1.12749 51.0828 0.32029 54.3311 0.355473 57.6251V132.325C0.33694 135.108 0.911657 137.863 2.04135 140.407C3.17104 142.951 4.82977 145.225 6.90707 147.078V147.104L71.3182 186.538C73.9438 188.138 76.9586 188.986 80.0334 188.989V188.989ZM80.6812 7.94144C82.6331 7.94144 85.1103 9.15436 86.8201 10.1984L147.577 47.3927C151.329 49.6774 153.445 56.2735 153.445 61.0245L152.813 132.325C152.813 137.076 149.614 141.344 145.861 143.629L85.4659 180.01C82.0313 182.098 79.2409 182.098 75.8062 180.01L14.5982 143.538C10.8458 141.254 7.82738 137.061 7.82738 132.325V58.6773C7.85989 56.3121 8.46888 53.9906 9.60155 51.914C10.7342 49.8374 12.3563 48.0685 14.3273 46.7606L74.9035 10.1984C76.6132 9.15436 78.7294 7.94144 80.6812 7.94144Z" fill="#F2F1F0"/>
<path fill-rule="evenodd" clip-rule="evenodd" d="M87.9319 11.5221C85.561 10.0485 82.8252 9.26764 80.0337 9.26764C77.2422 9.26764 74.5064 10.0485 72.1355 11.5221L16.0008 45.8535C13.4748 47.4651 11.4025 49.6955 9.98047 52.333C8.55847 54.9704 7.83398 57.9275 7.87573 60.9236V129.027C7.83581 132.023 8.56109 134.979 9.98292 137.616C11.4048 140.253 13.4761 142.484 16.0008 144.097L72.1355 178.428C74.5063 179.902 77.2422 180.683 80.0337 180.683C82.8253 180.683 85.5612 179.902 87.9319 178.428L144.066 144.097C146.591 142.484 148.663 140.253 150.085 137.616C151.507 134.979 152.232 132.023 152.192 129.027V60.9236C152.23 57.928 151.504 54.9722 150.082 52.3354C148.66 49.6985 146.59 47.4676 144.066 45.8535L87.9319 11.5221Z" fill="url(#paint0_linear_940_1590)"/>
<path fill-rule="evenodd" clip-rule="evenodd" d="M80.0338 10.7436C81.717 10.7436 83.5997 11.6093 85.6665 12.8674L144.132 48.4098C146.024 49.6232 147.573 51.3001 148.634 53.2811C149.694 55.2622 150.231 57.4815 150.192 59.7283V130.207C150.231 132.453 149.694 134.673 148.634 136.654C147.573 138.635 146.024 140.311 144.132 141.525L85.6675 177.067L85.6665 177.068C83.9963 178.207 82.0512 178.878 80.0338 179.011C78.0163 178.878 76.0713 178.207 74.4011 177.068L74.4001 177.067L15.9378 141.527L15.9356 141.526C14.1473 140.562 12.6222 139.175 11.4938 137.486C10.5169 135.883 9.87578 133.668 9.87578 130.207V59.7282C9.83704 57.4816 10.3734 55.2623 11.434 53.2813C12.4945 51.3003 14.044 49.6233 15.9352 48.4098L74.392 12.8728L74.3961 12.8704C76.4799 11.6174 78.3401 10.7436 80.0338 10.7436ZM87.7463 9.45058L146.21 44.9918C148.689 46.5619 150.723 48.7407 152.121 51.3204C153.518 53.9001 154.231 56.7948 154.192 59.7283V130.207C154.231 133.14 153.518 136.035 152.121 138.615C150.723 141.195 148.688 143.374 146.21 144.944L87.7453 180.485C85.4511 182.01 82.7857 182.883 80.0338 183.011C77.2819 182.883 74.6164 182.01 72.3222 180.485H72.3213L13.8575 144.943L13.855 144.942C11.5197 143.649 9.53644 141.804 8.07828 139.568C6.4837 136.715 5.72068 133.472 5.87578 130.207V59.7282C5.83672 56.7947 6.54983 53.9 7.94712 51.3202C9.34441 48.7405 11.3793 46.5617 13.8577 44.9916L72.3222 9.44993L72.3304 9.44505C74.421 8.18764 77.1289 6.74359 80.0338 6.74359C82.92 6.74359 85.6371 8.16667 87.7463 9.45053V9.45058Z" fill="#0078D4"/>
<path opacity="0.2" d="M139.965 133.015L80.4154 167.622L20.4764 133.016L80.0264 98.4093L139.965 133.015Z" fill="#003067"/>
<path d="M140.956 121.638L80.2334 156.926L19.1224 121.643L79.8444 86.3553L140.956 121.638Z" fill="#1B93EB"/>
<path d="M140.956 121.638L140.944 125.744L80.2224 161.032L80.2334 156.926L140.956 121.638Z" fill="#1F56A3"/>
<path d="M80.2335 156.926L80.2225 161.032L19.1105 125.749L19.1225 121.643L80.2335 156.926Z" fill="#0078D4"/>
<path opacity="0.2" d="M72.4241 61.7638L70.2587 63.0221C71.6928 62.1887 73.6793 62.3056 75.8717 63.5714C76.809 64.1207 77.675 64.7837 78.4498 65.5453L80.6151 64.2869C79.8403 63.5253 78.9744 62.8624 78.0371 62.3131C75.8445 61.0471 73.858 60.9304 72.4241 61.7638Z" fill="#32BEDD"/>
<path opacity="0.2" d="M125.377 93.4603C125.4 85.549 119.847 75.9203 112.962 71.9453C112.088 71.4281 111.156 71.0151 110.186 70.7147C107.337 63.8998 102.364 57.6311 96.6655 54.3413C92.2164 51.7725 88.1856 51.5325 85.2741 53.2245L83.1086 54.4829C86.0204 52.7909 90.0512 53.0309 94.5003 55.5996C100.198 58.8895 105.171 65.1581 108.02 71.973C108.991 72.2734 109.923 72.6864 110.797 73.2036C117.682 77.1786 123.234 86.8072 123.212 94.7186C123.213 95.5783 123.135 96.4363 122.979 97.2818C122.968 97.4 122.929 97.5239 122.909 97.6592C122.685 98.67 122.315 99.6427 121.81 100.547C121.751 100.637 121.682 100.721 121.623 100.811C121.094 101.592 120.397 102.246 119.584 102.724L121.75 101.466C122.563 100.987 123.259 100.334 123.788 99.5527C123.847 99.4628 123.916 99.3784 123.975 99.2884C124.48 98.3844 124.85 97.4116 125.074 96.4008C125.094 96.2656 125.134 96.1418 125.144 96.0236V96.0235C125.3 95.178 125.378 94.32 125.377 93.4603Z" fill="#32BEDD"/>
<path opacity="0.2" d="M94.5003 55.5996C100.198 58.8895 105.171 65.1582 108.02 71.973C108.991 72.2734 109.922 72.6864 110.797 73.2036C117.682 77.1786 123.234 86.8073 123.212 94.7186C123.213 95.5783 123.134 96.4363 122.979 97.2818C122.968 97.4001 122.929 97.5239 122.909 97.6591C122.685 98.67 122.315 99.6427 121.81 100.547C121.751 100.637 121.682 100.721 121.623 100.811C119.462 103.944 115.384 104.569 110.706 101.868L75.036 81.1836C71.0652 78.4283 67.9475 72.779 67.9609 68.0683C67.975 63.0759 71.5172 61.0573 75.8717 63.5714C76.8091 64.1207 77.675 64.7837 78.4498 65.5453C78.4308 65.2747 78.4316 65.0268 78.4323 64.7788C78.4612 54.591 85.6538 50.4921 94.5003 55.5996Z" fill="url(#paint1_linear_940_1590)"/>
<path opacity="0.5" d="M63.4126 78.5464L61.2472 79.8047C62.6813 78.9713 64.6678 79.0881 66.8602 80.3539C67.7976 80.9032 68.6635 81.5662 69.4383 82.3278L71.6035 81.0694C70.8287 80.3078 69.9629 79.6449 69.0256 79.0956C66.833 77.8297 64.8465 77.7129 63.4126 78.5464Z" fill="#32BEDD"/>
<path opacity="0.5" d="M116.366 110.243C116.388 102.331 110.836 92.7028 103.951 88.7278C103.076 88.2106 102.145 87.7976 101.174 87.4973C98.3251 80.6823 93.3522 74.4137 87.654 71.1238C83.2049 68.5551 79.1741 68.3151 76.2626 70.0071L74.0972 71.2654C77.0089 69.5734 81.0397 69.8135 85.4888 72.3821C91.187 75.672 96.1597 81.9406 99.0088 88.7555C99.9792 89.0559 100.911 89.4689 101.785 89.9861C108.67 93.9611 114.223 103.59 114.2 111.501C114.201 112.361 114.123 113.219 113.967 114.064V114.064C113.957 114.183 113.917 114.306 113.897 114.442C113.674 115.453 113.303 116.425 112.799 117.329C112.74 117.419 112.671 117.504 112.611 117.594C112.082 118.375 111.386 119.028 110.573 119.507L112.738 118.249C113.551 117.77 114.248 117.116 114.777 116.335C114.836 116.245 114.905 116.161 114.964 116.071C115.469 115.167 115.839 114.194 116.063 113.183C116.083 113.048 116.122 112.924 116.133 112.806V112.806C116.288 111.961 116.367 111.103 116.366 110.243V110.243Z" fill="#32BEDD"/>
<path opacity="0.5" d="M85.4888 72.3822C91.187 75.672 96.1597 81.9407 99.0088 88.7556C99.9792 89.056 100.911 89.469 101.785 89.9861C108.67 93.9611 114.223 103.59 114.2 111.501C114.201 112.361 114.123 113.219 113.967 114.064C113.957 114.183 113.917 114.306 113.897 114.442C113.673 115.452 113.303 116.425 112.799 117.329C112.74 117.419 112.671 117.504 112.611 117.594C110.451 120.726 106.373 121.351 101.694 118.65L66.0245 97.9662C62.0537 95.2108 58.936 89.5616 58.9494 84.8509C58.9635 79.8584 62.5058 77.8398 66.8603 80.3539C67.7976 80.9032 68.6635 81.5662 69.4384 82.3277C69.4194 82.0572 69.4201 81.8092 69.4208 81.5613C69.4497 71.3736 76.6424 67.2747 85.4888 72.3822Z" fill="url(#paint2_linear_940_1590)"/>
<path d="M54.4011 95.1L52.2357 96.3583C53.6698 95.5249 55.6563 95.6417 57.8487 96.9075C58.7861 97.4568 59.652 98.1198 60.4268 98.8814L62.5921 97.6229C61.8173 96.8614 60.9514 96.1985 60.0141 95.6492C57.8216 94.3833 55.835 94.2666 54.4011 95.1Z" fill="#32BEDD"/>
<path d="M107.354 126.796C107.377 118.885 101.824 109.256 94.9392 105.281C94.0649 104.764 93.1331 104.351 92.1627 104.051C89.3136 97.2359 84.3407 90.9672 78.6426 87.6774C74.1934 85.1086 70.1626 84.8686 67.2511 86.5606L65.0857 87.8189C67.9974 86.1269 72.0282 86.367 76.4773 88.9357C82.1755 92.2256 87.1482 98.4942 89.9973 105.309C90.9677 105.61 91.8996 106.023 92.774 106.54C99.6587 110.515 105.211 120.143 105.189 128.055C105.19 128.914 105.112 129.772 104.956 130.618V130.618C104.946 130.736 104.906 130.86 104.886 130.995C104.662 132.006 104.292 132.979 103.787 133.883C103.728 133.973 103.659 134.057 103.6 134.147C103.071 134.928 102.375 135.582 101.561 136.06L103.727 134.802C104.54 134.324 105.236 133.67 105.765 132.889C105.824 132.799 105.893 132.714 105.952 132.624C106.457 131.72 106.827 130.748 107.051 129.737C107.071 129.602 107.111 129.478 107.121 129.36V129.36C107.277 128.514 107.355 127.656 107.354 126.796V126.796Z" fill="#32BEDD"/>
<path d="M76.4774 88.9358C82.1756 92.2256 87.1482 98.4943 89.9973 105.309C90.9677 105.61 91.8996 106.023 92.7739 106.54C99.6588 110.515 105.211 120.143 105.189 128.055C105.19 128.914 105.112 129.772 104.956 130.618C104.945 130.736 104.906 130.86 104.886 130.995C104.662 132.006 104.292 132.979 103.787 133.883C103.728 133.973 103.659 134.057 103.6 134.147C101.44 137.28 97.3611 137.905 92.6829 135.204L57.013 114.52C53.0423 111.764 49.9246 106.115 49.9379 101.405C49.9521 96.412 53.4943 94.3934 57.8488 96.9075C58.7861 97.4568 59.652 98.1198 60.4269 98.8813C60.4079 98.6108 60.4086 98.3628 60.4093 98.1149C60.4383 87.9272 67.6309 83.8283 76.4774 88.9358Z" fill="url(#paint3_linear_940_1590)"/>
<path d="M76.0272 101.214C80.294 103.677 83.7493 109.643 83.7354 114.545C83.7215 119.467 80.2437 121.43 75.9769 118.967C73.7295 117.508 71.8594 115.537 70.5196 113.217C69.1799 110.896 68.4085 108.292 68.2687 105.616C68.2826 100.713 71.7606 98.7503 76.0272 101.214Z" stroke="white" stroke-width="1.25515" stroke-miterlimit="10"/>
<path d="M78.8704 108.95C79.1584 109.13 79.3954 109.381 79.559 109.679C79.9412 110.322 79.9392 111.03 79.5545 111.249L75.6752 113.46C75.5639 113.506 75.4428 113.522 75.3232 113.509C75.2036 113.495 75.0894 113.451 74.9912 113.381C74.708 113.205 74.4733 112.961 74.3088 112.671L72.3649 109.323L72.3817 109.314C72.0163 108.662 72.0182 107.972 72.3861 107.763C72.497 107.712 72.6192 107.692 72.7405 107.704C72.8617 107.716 72.9777 107.76 73.0767 107.831C73.3614 108.008 73.5946 108.256 73.7528 108.552L73.8523 108.744L74.9988 110.71L78.1925 108.89C78.3003 108.837 78.4204 108.815 78.5399 108.826C78.6594 108.836 78.7737 108.879 78.8704 108.95V108.95Z" fill="white"/>
<path opacity="0.2" d="M72.8223 143.4C73.3714 143.717 73.3743 144.225 72.8351 144.539L71.3571 145.397C71.0523 145.552 70.7152 145.633 70.3734 145.632C70.0316 145.631 69.6948 145.55 69.3906 145.394L52.2414 135.493C52.1229 135.453 52.0197 135.377 51.9464 135.276C51.873 135.174 51.8332 135.052 51.8325 134.927C51.8318 134.802 51.8702 134.68 51.9424 134.578C52.0145 134.476 52.1169 134.399 52.235 134.357L53.7129 133.498C54.0165 133.344 54.3524 133.263 54.693 133.263C55.0337 133.263 55.3695 133.344 55.6731 133.498L72.8223 143.4Z" fill="#003067"/>
<path d="M64.6953 129.58C63.7413 128.958 62.9477 128.12 62.3793 127.133C61.8108 126.147 61.4836 125.04 61.4242 123.903C61.3833 123.498 61.4504 123.091 61.6185 122.721C61.7866 122.351 62.0498 122.032 62.3812 121.797L60.2054 123.062C59.874 123.297 59.6108 123.615 59.4426 123.985C59.2745 124.355 59.2074 124.763 59.2482 125.167C59.3077 126.304 59.635 127.411 60.2034 128.398C60.7719 129.384 61.5654 130.223 62.5193 130.844C62.8523 131.086 63.2441 131.235 63.6539 131.275C64.0637 131.315 64.4767 131.244 64.8501 131.071L67.0259 129.806C66.6525 129.98 66.2395 130.05 65.8298 130.01C65.42 129.971 65.0283 129.822 64.6953 129.58Z" fill="#0078D4"/>
<path d="M54.7843 122.633C54.7477 122.642 54.7125 122.656 54.6799 122.675L52.5039 123.939C52.5366 123.921 52.5717 123.906 52.6083 123.897L53.9716 123.527C54.0335 123.51 54.0929 123.485 54.1485 123.453L56.3243 122.189C56.2687 122.221 56.2092 122.246 56.1473 122.263L54.7843 122.633Z" fill="#0078D4"/>
<path d="M65.7267 138.129L65.5439 139.952C65.541 140.036 65.5181 140.119 65.477 140.192C65.4359 140.266 65.3778 140.329 65.3076 140.376L67.4834 139.111C67.5536 139.065 67.6117 139.002 67.6528 138.928C67.6939 138.854 67.7168 138.772 67.7197 138.688L67.9027 136.865C67.9097 136.709 67.9534 136.557 68.0301 136.421C68.1068 136.286 68.2144 136.17 68.3441 136.083L66.1684 137.348C66.0386 137.434 65.9309 137.55 65.8542 137.686C65.7775 137.822 65.7338 137.973 65.7267 138.129V138.129Z" fill="#0078D4"/>
<path d="M59.9935 115.402C59.7716 115.27 59.5703 115.107 59.3962 114.917L57.8611 113.248C57.7674 113.144 57.6588 113.056 57.5389 112.984C57.4551 112.924 57.3569 112.887 57.2541 112.877C57.1514 112.867 57.0478 112.884 56.9538 112.927L54.7781 114.191C54.872 114.148 54.9756 114.131 55.0784 114.141C55.1811 114.151 55.2793 114.188 55.3631 114.249C55.483 114.32 55.5916 114.409 55.6853 114.512L57.2203 116.181C57.3944 116.371 57.5957 116.535 57.8176 116.666C58.0454 116.811 58.3112 116.883 58.5807 116.876C58.6948 116.866 58.8055 116.832 58.9048 116.775L61.0808 115.511C60.9815 115.568 60.8708 115.602 60.7567 115.611C60.4871 115.619 60.2214 115.546 59.9935 115.402V115.402Z" fill="#0078D4"/>
<path d="M73.2662 132.146C72.889 131.634 72.6741 131.02 72.6492 130.384C72.6579 130.291 72.6757 130.199 72.7022 130.11L74.7297 128.932C74.9411 128.809 75.021 128.493 74.936 128.108C74.4198 125.955 73.612 123.882 72.5351 121.946C72.3929 121.679 72.1831 121.453 71.9266 121.291C71.8269 121.231 71.7152 121.192 71.5993 121.179L70.0695 121.079C69.8538 121.053 69.6458 120.983 69.4582 120.873C69.0466 120.603 68.6988 120.246 68.4392 119.828C68.1795 119.41 68.0141 118.94 67.9546 118.451L67.7828 116.424C67.723 115.964 67.4957 115.542 67.1444 115.238C66.394 114.608 65.5934 114.039 64.7506 113.539C63.9874 113.1 63.1812 112.741 62.3448 112.467C62.2788 112.443 62.2083 112.432 62.1378 112.436C62.0674 112.44 61.9987 112.46 61.9363 112.492L59.7603 113.757C59.8228 113.724 59.8915 113.705 59.9619 113.701C60.0324 113.696 60.1029 113.707 60.169 113.732C61.0053 114.006 61.8114 114.365 62.5746 114.803C63.4175 115.304 64.2181 115.872 64.9687 116.503C65.3199 116.806 65.5471 117.228 65.6067 117.688L65.7787 119.716C65.8382 120.204 66.0035 120.674 66.2632 121.093C66.5228 121.511 66.8706 121.868 67.2822 122.138C67.4698 122.248 67.678 122.317 67.8938 122.343L69.4235 122.444C69.5394 122.457 69.651 122.495 69.7508 122.556C70.0072 122.717 70.2169 122.943 70.3592 123.211C71.4361 125.146 72.2438 127.219 72.7601 129.373C72.7688 129.446 72.77 129.521 72.7635 129.595L70.9165 130.669C70.7632 130.779 70.6415 130.927 70.5637 131.099C70.4859 131.271 70.4548 131.46 70.4734 131.648C70.4981 132.284 70.713 132.898 71.0903 133.411L72.4469 135.351C72.5773 135.52 72.6707 135.714 72.7211 135.921C72.7716 136.127 72.7779 136.343 72.7397 136.552C72.341 137.925 71.4841 139.119 70.3117 139.937L70.303 139.942L72.4788 138.678L72.4874 138.673C73.6598 137.855 74.5167 136.66 74.9155 135.288C74.9537 135.078 74.9474 134.863 74.897 134.656C74.8466 134.449 74.7532 134.255 74.6229 134.087L73.2662 132.146ZM72.7376 129.927C72.7448 129.878 72.7545 129.828 72.7666 129.78C72.7619 129.83 72.7522 129.879 72.7376 129.927V129.927Z" fill="#0078D4"/>
<path d="M72.4471 135.351C72.5774 135.519 72.6709 135.713 72.7213 135.92C72.7718 136.127 72.7781 136.343 72.7398 136.552C72.3411 137.925 71.4842 139.119 70.3118 139.937C70.2159 139.983 70.1092 140.003 70.0032 139.993C69.8972 139.983 69.7958 139.945 69.7096 139.883C69.5887 139.811 69.4792 139.722 69.3847 139.617L67.8398 137.954C67.6642 137.757 67.4594 137.588 67.2325 137.454C67.0076 137.311 66.7453 137.24 66.4794 137.248C66.2691 137.28 66.0774 137.387 65.9392 137.549C65.8011 137.711 65.7256 137.917 65.7267 138.129L65.5439 139.952C65.5469 140.029 65.5306 140.106 65.4966 140.175C65.4626 140.244 65.4119 140.304 65.3491 140.349C65.2863 140.393 65.2134 140.422 65.1369 140.431C65.0603 140.441 64.9827 140.431 64.9108 140.403C64.0678 140.138 63.2576 139.779 62.4954 139.332C61.641 138.833 60.8332 138.259 60.0818 137.615C59.7387 137.313 59.5185 136.895 59.4632 136.441L59.2814 134.419C59.2059 133.778 58.9471 133.172 58.5361 132.673C58.3261 132.406 58.0694 132.18 57.7785 132.005C57.5949 131.893 57.3895 131.823 57.1763 131.798L55.6367 131.691C55.5224 131.679 55.4122 131.642 55.3141 131.582C55.0587 131.422 54.8506 131.197 54.7109 130.93C53.6254 128.995 52.8172 126.917 52.3099 124.757C52.2026 124.309 52.322 123.97 52.6085 123.897L53.9718 123.527C54.1787 123.449 54.353 123.303 54.4665 123.113C54.5799 122.923 54.6258 122.701 54.5967 122.481C54.5697 121.849 54.3549 121.24 53.9797 120.73L52.623 118.79C52.4887 118.621 52.3929 118.425 52.3423 118.216C52.2917 118.006 52.2876 117.788 52.3302 117.577C52.7209 116.204 53.5798 115.01 54.7582 114.204C54.8532 114.154 54.9602 114.131 55.0672 114.139C55.1741 114.147 55.2767 114.185 55.3632 114.249C55.4831 114.32 55.5917 114.409 55.6854 114.512L57.2205 116.181C57.3946 116.371 57.5958 116.535 57.8177 116.666C58.0456 116.811 58.3113 116.884 58.5809 116.876C58.7934 116.849 58.9882 116.743 59.1274 116.58C59.2665 116.417 59.34 116.209 59.3335 115.994L59.5263 114.177C59.5235 114.1 59.5403 114.022 59.5752 113.953C59.6101 113.883 59.6619 113.823 59.726 113.779C59.79 113.735 59.8641 113.707 59.9415 113.699C60.019 113.691 60.0972 113.702 60.1691 113.732C61.0055 114.006 61.8116 114.365 62.5748 114.803C63.4176 115.304 64.2183 115.872 64.9688 116.503C65.3201 116.806 65.5473 117.228 65.607 117.688L65.7789 119.716C65.8384 120.204 66.0038 120.674 66.2634 121.093C66.5231 121.511 66.8709 121.868 67.2825 122.138C67.4701 122.247 67.6782 122.317 67.8939 122.343L69.4236 122.444C69.5395 122.457 69.6512 122.495 69.751 122.556C70.0074 122.717 70.2171 122.943 70.3593 123.211C71.4362 125.146 72.244 127.219 72.7603 129.373C72.8577 129.814 72.7384 130.165 72.4518 130.238L71.0886 130.597C70.7033 130.703 70.4751 131.093 70.4735 131.648C70.4984 132.284 70.7133 132.898 71.0905 133.411L72.4471 135.351ZM62.5194 130.844C64.3327 131.891 65.8059 131.04 65.8118 128.957C65.7523 127.821 65.4248 126.716 64.8563 125.731C64.2878 124.746 63.4943 123.91 62.5408 123.291C60.7274 122.244 59.2542 123.083 59.2483 125.167C59.3077 126.304 59.635 127.411 60.2034 128.398C60.7719 129.384 61.5654 130.223 62.5193 130.844" fill="#C3F1FF"/>
</g>
<defs>
<linearGradient id="paint0_linear_940_1590" x1="80.0339" y1="9.26764" x2="80.0339" y2="180.683" gradientUnits="userSpaceOnUse">
<stop stop-color="#00ABDE"/>
<stop offset="1" stop-color="#007ED8"/>
</linearGradient>
<linearGradient id="paint1_linear_940_1590" x1="111.3" y1="107.508" x2="81.2914" y2="55.532" gradientUnits="userSpaceOnUse">
<stop stop-color="#50E6FF"/>
<stop offset="1" stop-color="#C3F1FF"/>
</linearGradient>
<linearGradient id="paint2_linear_940_1590" x1="102.288" y1="124.29" x2="72.28" y2="72.3146" gradientUnits="userSpaceOnUse">
<stop stop-color="#50E6FF"/>
<stop offset="1" stop-color="#C3F1FF"/>
</linearGradient>
<linearGradient id="paint3_linear_940_1590" x1="93.2766" y1="140.844" x2="63.2685" y2="88.8682" gradientUnits="userSpaceOnUse">
<stop stop-color="#50E6FF"/>
<stop offset="1" stop-color="#C3F1FF"/>
</linearGradient>
<clipPath id="clip0_940_1590">
<rect width="159.356" height="188" fill="white" transform="translate(0.355469 0.989258)"/>
</clipPath>
</defs>
</svg>
