<svg width="103" height="103" viewBox="0 0 103 103" fill="none" xmlns="http://www.w3.org/2000/svg">
<path d="M51.6845 98.7108C25.8345 98.7108 4.87451 77.7608 4.87451 51.9008C4.87451 26.0408 25.8345 5.09082 51.6845 5.09082C77.5345 5.09082 98.4945 26.0508 98.4945 51.9008C98.4945 77.7508 77.5345 98.7108 51.6845 98.7108Z" fill="url(#paint0_linear)"/>
<path fill-rule="evenodd" clip-rule="evenodd" d="M51.6846 1.90088C79.2946 1.90088 101.685 24.2909 101.685 51.9009C101.685 79.5109 79.2946 101.901 51.6846 101.901C24.0746 101.901 1.68457 79.5109 1.68457 51.9009C1.68457 24.2909 24.0746 1.90088 51.6846 1.90088ZM51.6846 97.6609C76.9546 97.6609 97.4446 77.1709 97.4446 51.9009C97.4446 26.6309 76.9546 6.14088 51.6846 6.14088C26.4146 6.14088 5.92457 26.6309 5.92457 51.9009C5.92457 77.1709 26.4146 97.6609 51.6846 97.6609Z" fill="#D9D9D9"/>
<path fill-rule="evenodd" clip-rule="evenodd" d="M97.5847 51.9007C97.5847 77.2507 77.0347 97.8007 51.6847 97.8007C26.3347 97.8007 5.78468 77.2507 5.78468 51.9007C5.78468 26.5507 26.3347 6.00074 51.6847 6.00074C77.0347 6.00074 97.5847 26.5507 97.5847 51.9007ZM51.6847 2.26074C79.1047 2.26074 101.325 24.4807 101.325 51.9007C101.325 79.3207 79.0947 101.541 51.6847 101.541C24.2647 101.541 2.04468 79.3107 2.04468 51.9007C2.04468 24.4807 24.2647 2.26074 51.6847 2.26074Z" fill="#F2F1F0"/>
<path fill-rule="evenodd" clip-rule="evenodd" d="M51.6845 94.9908C27.8845 94.9908 8.59449 75.7008 8.59449 51.9008C8.59449 28.1008 27.8845 8.8108 51.6845 8.8108C75.4845 8.8108 94.7745 28.1008 94.7745 51.9008C94.7745 75.7008 75.4845 94.9908 51.6845 94.9908ZM98.5145 51.9008C98.5145 77.7608 77.5445 98.7308 51.6845 98.7308C25.8245 98.7308 4.85449 77.7608 4.85449 51.9008C4.85449 26.0408 25.8245 5.0708 51.6845 5.0708C77.5445 5.0708 98.5145 26.0308 98.5145 51.9008Z" fill="url(#paint1_linear)"/>
<path d="M30.8845 23.8511H70.0845C71.1745 23.8511 72.0645 24.7411 72.0645 25.8311V79.1011C72.0645 80.1911 71.1745 81.0811 70.0845 81.0811H30.8845C29.7945 81.0711 28.9045 80.1811 28.9045 79.0911V25.8211C28.9045 24.7311 29.7845 23.8511 30.8845 23.8511Z" fill="white"/>
<path d="M30.8845 23.8511H70.0845C71.1745 23.8511 72.0645 24.7411 72.0645 25.8311V79.1011C72.0645 80.1911 71.1745 81.0811 70.0845 81.0811H30.8845C29.7945 81.0711 28.9045 80.1811 28.9045 79.0911V25.8211C28.9045 24.7311 29.7845 23.8511 30.8845 23.8511Z" fill="#F4F4F4"/>
<path fill-rule="evenodd" clip-rule="evenodd" d="M49.4446 15.6909C52.2546 15.6909 54.5246 17.9709 54.5246 20.7709V20.9009C54.5246 21.0509 54.5146 21.2009 54.5046 21.3509H57.5346C59.2446 21.3509 60.6246 22.7309 60.6246 24.4409C60.6246 26.1509 59.2446 27.5309 57.5346 27.5309H41.3546C39.6446 27.5309 38.2646 26.1509 38.2646 24.4409C38.2646 22.7309 39.6446 21.3509 41.3546 21.3509H44.3846C44.3746 21.2009 44.3646 21.0509 44.3646 20.9009V20.7709C44.3646 17.9709 46.6446 15.6909 49.4446 15.6909Z" fill="#1F56A3"/>
<path d="M49.8445 22.5411C50.9345 22.5411 51.8245 21.6511 51.8245 20.5611C51.8245 19.4711 50.9345 18.5811 49.8445 18.5811C48.7545 18.5811 47.8645 19.4711 47.8645 20.5611C47.8645 21.6511 48.7545 22.5411 49.8445 22.5411Z" fill="#C3DAF5"/>
<path d="M55.0045 61.3709L79.0445 37.5309C81.1745 35.4209 84.5645 35.3009 86.8345 37.2509C89.3845 39.4309 89.5345 43.3309 87.1445 45.7009L62.9445 69.7309L53.0545 72.2909C52.5745 72.4109 52.1345 71.9709 52.2645 71.4909L55.0045 61.3709Z" fill="url(#paint2_linear)"/>
<path d="M55.0347 61.3408L76.7847 39.7808L85.2047 47.6308L62.9647 69.7308L55.0347 61.3408Z" fill="url(#paint3_linear)"/>
<path d="M55.0545 71.7809L53.0545 72.2909C52.5745 72.4109 52.1345 71.9709 52.2645 71.4909L52.8245 69.4209L55.0545 71.7809Z" fill="url(#paint4_linear)"/>
<path d="M36.3545 54.4012H45.0445C47.5345 54.4012 49.5445 52.3912 49.5445 49.9012V43.2012C49.5445 40.7112 51.5545 38.7012 54.0445 38.7012H58.1245" stroke="#3940AB" stroke-width="1.3" stroke-miterlimit="10"/>
<path d="M58.2545 38.7012H35.8845" stroke="#3940AB" stroke-width="1.3" stroke-miterlimit="10"/>
<path d="M64.7046 42.8907C66.9027 42.8907 68.6846 41.1088 68.6846 38.9107C68.6846 36.7126 66.9027 34.9307 64.7046 34.9307C62.5065 34.9307 60.7246 36.7126 60.7246 38.9107C60.7246 41.1088 62.5065 42.8907 64.7046 42.8907Z" fill="#1B93EB"/>
<path d="M36.7246 57.7608C38.9227 57.7608 40.7046 55.9789 40.7046 53.7808C40.7046 51.5827 38.9227 49.8008 36.7246 49.8008C34.5265 49.8008 32.7446 51.5827 32.7446 53.7808C32.7446 55.9789 34.5265 57.7608 36.7246 57.7608Z" fill="#0078D4"/>
<path d="M36.5147 42.8907C38.7128 42.8907 40.4947 41.1088 40.4947 38.9107C40.4947 36.7126 38.7128 34.9307 36.5147 34.9307C34.3166 34.9307 32.5347 36.7126 32.5347 38.9107C32.5347 41.1088 34.3166 42.8907 36.5147 42.8907Z" fill="#1F56A3"/>
<path d="M56.1545 36.5708L59.7345 38.6108L56.1545 40.6808V36.5708Z" fill="#3940AB"/>
<defs>
<linearGradient id="paint0_linear" x1="36.6271" y1="1.46182" x2="66.8634" y2="102.753" gradientUnits="userSpaceOnUse">
<stop stop-color="#C1C7FF"/>
<stop offset="1" stop-color="#9DA4FF"/>
</linearGradient>
<linearGradient id="paint1_linear" x1="51.6846" y1="5.0707" x2="51.6846" y2="98.7308" gradientUnits="userSpaceOnUse">
<stop stop-color="#5A62C3"/>
<stop offset="0.5" stop-color="#4D55BD"/>
<stop offset="1" stop-color="#3940AB"/>
</linearGradient>
<linearGradient id="paint2_linear" x1="52.2423" y1="54.0893" x2="88.8459" y2="54.0893" gradientUnits="userSpaceOnUse">
<stop stop-color="#007ED8"/>
<stop offset="0.7065" stop-color="#002D4C"/>
</linearGradient>
<linearGradient id="paint3_linear" x1="68.9642" y1="26.0839" x2="72.1366" y2="103.983" gradientUnits="userSpaceOnUse">
<stop stop-color="#007ED8"/>
<stop offset="0.7065" stop-color="#002D4C"/>
</linearGradient>
<linearGradient id="paint4_linear" x1="51.8179" y1="26.7822" x2="54.9903" y2="104.681" gradientUnits="userSpaceOnUse">
<stop stop-color="#007ED8"/>
<stop offset="0.7065" stop-color="#002D4C"/>
</linearGradient>
</defs>
</svg>
