<svg width="103" height="103" viewBox="0 0 103 103" fill="none" xmlns="http://www.w3.org/2000/svg">
<path d="M51.374 98.6844C25.524 98.6844 4.56403 77.7345 4.56403 51.8745C4.56403 26.0145 25.524 5.06445 51.374 5.06445C77.224 5.06445 98.184 26.0245 98.184 51.8745C98.184 77.7245 77.224 98.6844 51.374 98.6844Z" fill="url(#paint0_linear_342_58330)"/>
<path fill-rule="evenodd" clip-rule="evenodd" d="M97.274 51.8744C97.274 77.2244 76.724 97.7744 51.374 97.7744C26.024 97.7744 5.47401 77.2244 5.47401 51.8744C5.47401 26.5244 26.024 5.97438 51.374 5.97438C76.724 5.97438 97.274 26.5244 97.274 51.8744ZM51.374 2.23438C78.794 2.23438 101.014 24.4544 101.014 51.8744C101.014 79.2944 78.784 101.514 51.374 101.514C23.954 101.514 1.73401 79.2844 1.73401 51.8744C1.73401 24.4544 23.954 2.23438 51.374 2.23438Z" fill="#F2F1F0"/>
<path fill-rule="evenodd" clip-rule="evenodd" d="M94.464 51.8749C94.464 75.6749 75.174 94.9649 51.374 94.9649C27.574 94.9649 8.28401 75.6749 8.28401 51.8749C8.28401 28.0749 27.574 8.78493 51.374 8.78493C75.174 8.78493 94.464 28.0749 94.464 51.8749ZM51.374 5.04492C77.234 5.04492 98.204 26.0149 98.204 51.8749C98.204 77.7349 77.234 98.7049 51.374 98.7049C25.514 98.7049 4.54401 77.7349 4.54401 51.8749C4.54401 26.0149 25.504 5.04492 51.374 5.04492Z" fill="url(#paint1_linear_342_58330)"/>
<path opacity="0.1" d="M83.5971 73.1211L78.1177 76.1402L51.3182 61.439L56.7976 58.4199L83.5971 73.1211Z" fill="#1F1D21"/>
<path d="M59.6839 34.8694C59.2104 34.4301 58.703 34.0696 58.1957 33.8218C56.9216 33.1346 55.7942 33.1008 54.9599 33.5289L51.476 35.3313C52.3104 34.892 53.4378 34.937 54.7118 35.6242C55.2192 35.8833 55.6927 36.2438 56.2001 36.6719L57.0006 37.3929L60.5182 35.5566L59.6839 34.8694Z" fill="#A1F6FF"/>
<path d="M78.5687 38.3272C76.7535 34.2604 73.6643 30.7794 70.2932 28.9657C67.5648 27.5125 65.0957 27.366 63.3143 28.3461L59.7966 30.1711C61.578 29.191 64.0471 29.3374 66.7756 30.7907C70.1579 32.6044 73.2359 36.1304 75.0511 40.1521L75.2653 40.6591L78.7829 38.8228L78.5687 38.3272Z" fill="#A1F6FF"/>
<path d="M88.3324 51.7215C88.3324 47.2942 84.9952 41.8531 80.8574 39.6338C80.2712 39.3071 79.73 39.0931 79.1888 38.9466L78.7942 38.834L75.2653 40.6702L75.6599 40.7829C76.2011 40.9293 76.7535 41.1434 77.3285 41.4701C81.4663 43.6893 84.8035 49.1305 84.8035 53.5577C84.8035 54.0647 84.7697 54.5378 84.6569 55.0448C84.6569 55.0786 84.6231 55.1912 84.6231 55.225C84.4766 55.8446 84.1834 56.5318 83.9692 56.8247C83.9354 56.8585 83.9354 56.8923 83.9016 56.9373C83.8677 56.9711 83.8677 57.0049 83.8339 57.05C83.5069 57.4893 83.0672 57.8498 82.6388 58.0977L86.1565 56.2614C86.63 56.0023 87.0246 55.6418 87.3516 55.2137C87.3854 55.1799 87.3854 55.1461 87.4192 55.1011C87.453 55.0673 87.453 55.0335 87.4868 54.9884C87.7011 54.6955 87.9942 54.0084 88.1408 53.3888C88.1408 53.355 88.1746 53.2423 88.1746 53.2085V53.2761V53.2085C88.2986 52.7354 88.3324 52.2284 88.3324 51.7215Z" fill="#A1F6FF"/>
<path d="M66.7756 30.7904C70.1579 32.6042 73.2359 36.1302 75.0511 40.1519L75.2653 40.6589L75.6599 40.7715C76.2011 40.918 76.7535 41.132 77.3285 41.4587C81.4663 43.678 84.8035 49.1191 84.8035 53.5464C84.8035 54.0533 84.7697 54.5264 84.657 55.0334C84.657 55.0672 84.6231 55.1798 84.6231 55.2136C84.4766 55.8332 84.1834 56.5204 83.9692 56.8133C83.9354 56.8471 83.9354 56.8809 83.9016 56.926C83.8677 56.9598 83.8677 56.9936 83.8339 57.0386C82.4923 58.8523 79.978 59.0664 77.2947 57.6131L54.1594 45.0861C53.0658 44.3651 52.0511 43.2724 51.2957 41.9656C50.529 40.6589 50.1344 39.2845 50.1344 38.0453C50.1344 35.3642 52.1751 34.2714 54.678 35.612C55.1854 35.8711 55.6589 36.2316 56.1663 36.6597L56.9668 37.3807L56.9329 36.4344C56.9329 36.2879 56.9329 36.1415 56.9329 35.995C56.9329 30.2497 61.3638 27.8953 66.7756 30.7904Z" fill="url(#paint2_linear_342_58330)"/>
<path d="M75.0736 48.4771L70.857 43.2162L70.8457 45.3002L60.9128 39.2733C60.5859 39.0705 60.1574 39.1832 59.9545 39.5099C59.7516 39.8366 59.8643 40.2646 60.1913 40.4674L70.8457 46.9337L70.8344 48.8263L75.0736 48.4771Z" fill="white"/>
<path opacity="0.15" d="M85.0254 80.8183L66.2124 69.8633L48.8323 79.8476L67.6453 90.5715L85.0254 80.8183Z" fill="url(#paint3_linear_342_58330)"/>
<path opacity="0.15" d="M61.8673 66.582L43.0543 55.627L25.6742 65.6113L44.4872 76.3351L61.8673 66.582Z" fill="url(#paint4_linear_342_58330)"/>
<path d="M43.6552 37.554L43.5628 75.3187L25.9516 65.7504L25.9978 27.8008L43.6552 37.554Z" fill="#EBEBEB"/>
<path d="M43.5166 37.3678L43.5628 75.3174L61.2202 65.4718L61.174 27.5684L43.5166 37.3678Z" fill="#CDCDD0"/>
<path d="M61.1739 27.5683L43.5165 37.4602L25.9977 27.7994L43.6552 18L61.1739 27.5683Z" fill="#CDCDD0"/>
<path d="M42.1298 38.985V42.2206L27.1533 33.6693V30.4336L42.1298 38.985Z" fill="url(#paint5_linear_342_58330)"/>
<path d="M42.1298 42.8229V46.1047L27.1533 37.5071V34.2715L42.1298 42.8229Z" fill="url(#paint6_linear_342_58330)"/>
<path d="M42.1298 46.7506V49.9862L27.1533 41.3886V38.1992L42.1298 46.7506Z" fill="url(#paint7_linear_342_58330)"/>
<path d="M42.1298 50.6803V53.9159L27.1533 45.3183V42.1289L42.1298 50.6803Z" fill="url(#paint8_linear_342_58330)"/>
<path d="M42.1298 54.5631V57.845L27.1533 49.2474V46.0117L42.1298 54.5631Z" fill="url(#paint9_linear_342_58330)"/>
<path d="M42.1298 58.4908V61.7265L27.1533 53.1751V49.9395L42.1298 58.4908Z" fill="url(#paint10_linear_342_58330)"/>
<path d="M42.1298 62.4205V65.6562L27.1533 57.0586V53.8691L42.1298 62.4205Z" fill="url(#paint11_linear_342_58330)"/>
<path d="M42.1298 66.304V69.5859L27.1533 60.9883V57.7988L42.1298 66.304Z" fill="url(#paint12_linear_342_58330)"/>
<path d="M44.9033 38.8014V42.037L59.8335 33.4394V30.25L44.9033 38.8014Z" fill="url(#paint13_linear_342_58330)"/>
<path d="M44.9033 42.6842V45.9198L59.8335 37.3222V34.1328L44.9033 42.6842Z" fill="url(#paint14_linear_342_58330)"/>
<path d="M44.9033 46.565V49.8007L59.8335 41.2493V38.0137L44.9033 46.565Z" fill="url(#paint15_linear_342_58330)"/>
<path d="M44.9033 50.4947V53.7304L59.8335 45.1328V41.9434L44.9033 50.4947Z" fill="url(#paint16_linear_342_58330)"/>
<path d="M44.9033 54.4244V57.6601L59.8335 49.0625V45.873L44.9033 54.4244Z" fill="url(#paint17_linear_342_58330)"/>
<path d="M44.9033 58.3059V61.5878L59.8335 52.9902V49.8008L44.9033 58.3059Z" fill="url(#paint18_linear_342_58330)"/>
<path d="M44.9033 62.2369V65.4726L59.8335 56.9212V53.6855L44.9033 62.2369Z" fill="url(#paint19_linear_342_58330)"/>
<path d="M44.9033 66.1647V69.4003L59.8335 60.8027V57.6133L44.9033 66.1647Z" fill="url(#paint20_linear_342_58330)"/>
<mask id="mask0_342_58330" style="mask-type:alpha" maskUnits="userSpaceOnUse" x="29" y="18" width="29" height="17">
<path d="M57.6685 26.6535L43.5647 34.8575L29.4222 26.6887L43.5318 18.4648L57.6685 26.6535Z" fill="#CDCDD0"/>
</mask>
<g mask="url(#mask0_342_58330)">
<path d="M60.568 25.7231C60.5834 20.2875 52.9927 15.8595 43.6136 15.8329C34.2346 15.8064 26.6189 20.1912 26.6035 25.6268C26.5881 31.0623 34.1788 35.4903 43.5578 35.5169C52.9369 35.5435 60.5526 31.1586 60.568 25.7231Z" fill="#F4F4F4"/>
</g>
<path d="M43.5166 18.0918C48.6012 21.0501 53.732 24.0084 58.8628 26.9667C58.6317 26.8281 58.2619 26.7356 57.661 26.6894L43.5166 18.5078C43.5166 18.1842 43.5166 18.0918 43.5166 18.0918Z" fill="#CDCDD0"/>
<path d="M28.2165 26.9667C32.7926 24.2858 37.415 21.651 41.9911 18.97C42.4533 18.6927 43.0543 18.3691 43.5165 18.0918C43.5165 18.0918 43.5165 18.1842 43.5165 18.5078L29.4183 26.6894C28.8174 26.7356 28.4476 26.8281 28.2165 26.9667Z" fill="#CDCDD0"/>
<path d="M43.6089 36.6275C41.5751 35.4257 39.495 34.2701 37.4612 33.0683C34.3642 31.2656 31.3135 29.5091 28.2165 27.7064C28.0778 27.6139 27.9853 27.5215 27.9391 27.429C27.8467 27.2441 28.0778 26.7819 29.4183 26.6895L43.5627 34.871C43.5627 35.7493 43.5627 36.3502 43.5627 36.4889C43.6089 36.5813 43.6089 36.6275 43.6089 36.6275Z" fill="#EBEBEB"/>
<path d="M58.909 27.7539L57.3836 28.6321C56.3667 29.2331 55.3498 29.834 54.3328 30.3886L52.8075 31.2669L51.2821 32.1451C48.7398 33.6243 46.1975 35.1035 43.609 36.5826C43.609 36.5826 43.609 36.5364 43.609 36.4439C43.609 36.2591 43.609 35.7044 43.609 34.8261L57.661 26.6445C59.0014 26.737 59.2326 27.1992 59.1863 27.3841C59.1401 27.569 59.0014 27.6615 58.909 27.7539Z" fill="#9B9BA0"/>
<path d="M62.4682 70.8333L62.4219 87.2889L48.9709 79.3847L49.0171 62.7441L62.4682 70.8333Z" fill="#EBEBEB"/>
<path d="M62.3757 70.6477L62.4219 87.2882L75.6419 79.4764L75.5957 62.5586L62.3757 70.6477Z" fill="#CDCDD0"/>
<path d="M75.5957 62.5592L62.3757 70.7408L49.0171 62.7441L62.2371 54.5625L75.5957 62.5592Z" fill="#F4F4F4"/>
<path d="M54.7951 69.5391V74.3001L56.0893 75.0859V70.2786L54.7951 69.5391Z" fill="url(#paint21_linear_342_58330)"/>
<path d="M50.4038 66.9512L50.3575 71.7122L51.5594 72.4056V67.6445L50.4038 66.9512Z" fill="url(#paint22_linear_342_58330)"/>
<path d="M57.8458 71.2949L57.7996 76.056L59.1401 76.8418V72.0345L57.8458 71.2949Z" fill="url(#paint23_linear_342_58330)"/>
<path d="M51.7905 67.7363L51.7443 72.5436L53.0847 73.3294V68.5221L51.7905 67.7363Z" fill="url(#paint24_linear_342_58330)"/>
<path d="M53.3159 68.6621L53.2697 73.4231L54.5639 74.2089L54.6101 69.4017L53.3159 68.6621Z" fill="url(#paint25_linear_342_58330)"/>
<path d="M62.1909 78.5996V73.7923L60.8504 73.0527V77.86L62.1909 78.5996Z" fill="url(#paint26_linear_342_58330)"/>
<path d="M59.3713 72.1738L59.325 76.9811L60.6193 77.7207L60.6655 72.9134L59.3713 72.1738Z" fill="url(#paint27_linear_342_58330)"/>
<path d="M56.3205 70.418V75.179L57.6147 75.9648V71.1575L56.3205 70.418Z" fill="url(#paint28_linear_342_58330)"/>
<path d="M54.7951 75.502V79.9856L56.0893 80.7715V76.2415L54.7951 75.502Z" fill="url(#paint29_linear_342_58330)"/>
<path d="M50.4038 72.9141L50.3575 77.444L51.5594 78.1373V73.6074L50.4038 72.9141Z" fill="url(#paint30_linear_342_58330)"/>
<path d="M50.4038 66.9512L50.3575 71.7122L51.5594 72.4056V67.6445L50.4038 66.9512Z" fill="url(#paint31_linear_342_58330)"/>
<path d="M57.8458 77.2598L57.7996 81.7897L59.1401 82.5293V77.9993L57.8458 77.2598Z" fill="url(#paint32_linear_342_58330)"/>
<path d="M51.7905 73.7461L51.7443 78.2298L53.0847 79.0156V74.4857L51.7905 73.7461Z" fill="url(#paint33_linear_342_58330)"/>
<path d="M53.3159 74.623L53.2697 79.1067L54.5639 79.8925L54.6101 75.3626L53.3159 74.623Z" fill="url(#paint34_linear_342_58330)"/>
<path d="M62.1909 84.2851V79.7552L60.8504 79.0156V83.5455L62.1909 84.2851Z" fill="url(#paint35_linear_342_58330)"/>
<path d="M59.3713 78.1367L59.325 82.6666L60.6193 83.4062L60.6655 78.8763L59.3713 78.1367Z" fill="url(#paint36_linear_342_58330)"/>
<path d="M56.3205 76.3809V80.8646L57.6147 81.6504V77.1204L56.3205 76.3809Z" fill="url(#paint37_linear_342_58330)"/>
<path d="M70.0026 69.5391V74.3001L68.7084 75.0859L68.6622 70.2786L70.0026 69.5391Z" fill="url(#paint38_linear_342_58330)"/>
<path d="M74.3938 66.9512L74.4401 71.7122L73.2383 72.4056V67.6445L74.3938 66.9512Z" fill="url(#paint39_linear_342_58330)"/>
<path d="M66.9519 71.2949V76.056L65.6576 76.8418V72.0345L66.9519 71.2949Z" fill="url(#paint40_linear_342_58330)"/>
<path d="M73.0072 67.7363V72.5436L71.713 73.3294V68.5221L73.0072 67.7363Z" fill="url(#paint41_linear_342_58330)"/>
<path d="M71.4818 68.6621L71.5281 73.4231L70.2338 74.2089L70.1876 69.4017L71.4818 68.6621Z" fill="url(#paint42_linear_342_58330)"/>
<path d="M62.5607 78.692V73.8385L63.9474 73.0527V77.86L62.5607 78.692Z" fill="url(#paint43_linear_342_58330)"/>
<path d="M65.4265 72.1738L65.4727 76.9811L64.1322 77.7207V72.9134L65.4265 72.1738Z" fill="url(#paint44_linear_342_58330)"/>
<path d="M68.4773 70.418V75.179L67.183 75.9648V71.1575L68.4773 70.418Z" fill="url(#paint45_linear_342_58330)"/>
<path d="M70.0026 75.502V79.9856L68.7084 80.7715L68.6622 76.2415L70.0026 75.502Z" fill="url(#paint46_linear_342_58330)"/>
<path d="M74.3938 72.9141L74.4401 77.444L73.2383 78.1373V73.6074L74.3938 72.9141Z" fill="url(#paint47_linear_342_58330)"/>
<path d="M66.9519 77.2598V81.7897L65.6576 82.5293V77.9993L66.9519 77.2598Z" fill="url(#paint48_linear_342_58330)"/>
<path d="M73.0072 73.7461V78.2298L71.713 79.0156V74.4857L73.0072 73.7461Z" fill="url(#paint49_linear_342_58330)"/>
<path d="M71.4818 74.623L71.5281 79.1067L70.2338 79.8925L70.1876 75.3626L71.4818 74.623Z" fill="url(#paint50_linear_342_58330)"/>
<path d="M62.5607 84.3776V79.8014L63.9474 79.0156V83.5455L62.5607 84.3776Z" fill="url(#paint51_linear_342_58330)"/>
<path d="M65.4265 78.1367L65.4727 82.6666L64.1322 83.4062V78.8763L65.4265 78.1367Z" fill="url(#paint52_linear_342_58330)"/>
<path d="M68.4773 76.3809V80.8646L67.183 81.6504V77.1204L68.4773 76.3809Z" fill="url(#paint53_linear_342_58330)"/>
<path d="M62.2833 54.7012C66.2123 56.9661 70.3724 59.5547 74.3014 61.8658C74.1628 61.7734 73.9317 61.7272 73.6081 61.6809L62.2833 54.8861C62.2833 54.7474 62.2833 54.7012 62.2833 54.7012Z" fill="#CDCDD0"/>
<path d="M50.2651 62.0963C54.1941 59.8313 58.4005 56.9655 62.3295 54.6543C62.3295 54.6543 62.3295 54.7005 62.3295 54.8854L50.9585 61.9114C50.6349 61.9576 50.4038 62.0039 50.2651 62.0963Z" fill="#CDCDD0"/>
<path d="M73.6081 61.6354C70.0951 63.6692 65.7039 66.3964 62.1909 68.4302C58.6317 66.3964 54.4715 63.9466 50.9123 61.9127C54.4253 59.8789 58.7703 56.9206 62.2833 54.8867C65.8426 56.9206 70.0951 59.6015 73.6081 61.6354Z" fill="#F4F4F4"/>
<path d="M62.1909 69.8164C58.2619 67.5514 54.148 65.194 50.2189 62.8828C50.0803 62.7904 49.9878 62.6979 49.9416 62.5592C49.8954 62.3743 50.0803 62.0046 50.9123 61.9121L62.1909 68.4296C62.1909 69.0306 62.1909 69.4928 62.1909 69.6777C62.1909 69.7701 62.1909 69.8164 62.1909 69.8164Z" fill="#EBEBEB"/>
<path d="M74.3477 62.6055C74.3477 62.6055 63.3927 69.123 62.2371 69.8163C62.2371 69.8163 62.2371 69.0305 62.2371 68.4296L73.6544 61.6348C74.5326 61.7272 74.6713 62.097 74.6251 62.2819C74.5326 62.4668 74.4402 62.5592 74.3477 62.6055Z" fill="#CDCDD0"/>
<path d="M62.2371 56.4115L62.2834 55.8105L72.2214 61.6347L71.6205 62.0045L62.2371 56.4115Z" fill="#CDCDD0"/>
<path d="M62.2371 56.4128L62.2833 55.7656L52.7613 61.5898L53.316 61.9134L62.2371 56.4128Z" fill="#9B9BA0"/>
<path opacity="0.15" d="M17.8862 63.8913H47.4435C48.2715 63.8913 48.9442 63.2186 48.9442 62.3906V38.8203H16.3855V62.3906C16.3855 63.2186 17.0582 63.8913 17.8862 63.8913Z" fill="#1F1D20"/>
<path d="M17.0065 63.2096H48.3232C48.6647 63.2096 48.9442 62.9302 48.9442 62.5887V38.1387H16.3855V62.5887C16.3855 62.9302 16.665 63.2096 17.0065 63.2096Z" fill="white"/>
<path d="M16.3855 40.8438H48.9442V37.9253C48.9442 37.6614 48.732 37.4492 48.4681 37.4492H16.8616C16.5977 37.4492 16.3855 37.6614 16.3855 37.9253V40.8438Z" fill="#092E4C"/>
<path d="M18.8901 40.0413C19.3454 40.0413 19.718 39.6739 19.718 39.2134C19.718 38.7528 19.3402 38.3906 18.8901 38.3906C18.4347 38.3906 18.0621 38.758 18.0621 39.2186C18.0621 39.6791 18.4243 40.0413 18.8901 40.0413Z" fill="#32B0E7"/>
<path d="M37.9503 46.6471C37.9503 46.0954 37.5054 45.6504 36.9536 45.6504H24.9839C24.4322 45.6504 23.9872 46.0954 23.9872 46.6471C23.9872 47.1989 24.4322 47.6439 24.9839 47.6439H36.9625C37.5143 47.635 37.9503 47.1989 37.9503 46.6471Z" fill="url(#paint54_linear_342_58330)"/>
<path d="M41.3408 46.6471C41.3408 46.0954 40.8958 45.6504 40.3441 45.6504H37.0869C36.5351 45.6504 36.8911 46.0954 36.8911 46.6471C36.8911 47.1989 36.544 47.6439 37.0869 47.6439H40.353C40.8869 47.635 41.3408 47.1989 41.3408 46.6471Z" fill="#9B9BA0"/>
<path d="M35.4762 46.6486C35.4762 47.7433 36.3573 48.6332 37.4608 48.6332C38.5643 48.6332 39.4454 47.7522 39.4454 46.6486C39.4454 45.554 38.5465 44.6641 37.4519 44.6641C36.3662 44.6819 35.4762 45.554 35.4762 46.6486Z" fill="#50E6FF"/>
<path d="M34.2749 51.6588C34.2749 51.1071 33.8299 50.6621 33.2782 50.6621H24.9839C24.4322 50.6621 23.9872 51.1071 23.9872 51.6588C23.9872 52.2106 24.4322 52.6556 24.9839 52.6556H33.296C33.8388 52.6467 34.2749 52.2106 34.2749 51.6588Z" fill="url(#paint55_linear_342_58330)"/>
<path d="M41.3408 51.6588C41.3408 51.1071 40.8958 50.6621 40.344 50.6621H33.8831C33.3313 50.6621 32.8863 51.1071 32.8863 51.6588C32.8863 52.2106 33.3313 52.6556 33.8831 52.6556H40.3529C40.8869 52.6467 41.3408 52.2106 41.3408 51.6588Z" fill="#9B9BA0"/>
<path d="M31.1424 51.6584C31.1424 52.753 32.0235 53.643 33.127 53.643C34.2305 53.643 35.1116 52.7619 35.1116 51.6584C35.1116 50.5638 34.2305 49.6738 33.127 49.6738C32.0235 49.6738 31.1424 50.5638 31.1424 51.6584Z" fill="#35AFE4"/>
<path d="M29.6561 56.9713C29.6561 56.4196 29.2111 55.9746 28.6594 55.9746H24.9839C24.4322 55.9835 23.9872 56.4196 23.9872 56.9713C23.9872 57.5231 24.4322 57.9681 24.9839 57.9681H28.6594C29.2111 57.9503 29.6561 57.5142 29.6561 56.9713Z" fill="url(#paint56_linear_342_58330)"/>
<path d="M41.3411 56.9713C41.3411 56.4196 40.8962 55.9746 40.3444 55.9746H29.6384C29.0867 55.9746 28.6417 56.4196 28.6417 56.9713C28.6417 57.5231 29.0867 57.9681 29.6384 57.9681H40.3444C40.8873 57.9503 41.3411 57.5142 41.3411 56.9713Z" fill="#9B9BA0"/>
<path d="M27.0578 56.9728C27.0578 58.0675 27.9389 58.9574 29.0424 58.9574C30.137 58.9574 31.027 58.0764 31.027 56.9728C31.027 55.8782 30.1459 54.9883 29.0424 54.9883C27.9389 54.9883 27.0578 55.8782 27.0578 56.9728Z" fill="#2E76BC"/>
<defs>
<linearGradient id="paint0_linear_342_58330" x1="49.6001" y1="-12.915" x2="53.5821" y2="132.855" gradientUnits="userSpaceOnUse">
<stop stop-color="#00ABDE"/>
<stop offset="1" stop-color="#007ED8"/>
</linearGradient>
<linearGradient id="paint1_linear_342_58330" x1="2.80441" y1="-19.7477" x2="98.3319" y2="121.134" gradientUnits="userSpaceOnUse">
<stop stop-color="#007ED8"/>
<stop offset="0.7065" stop-color="#002D4C"/>
</linearGradient>
<linearGradient id="paint2_linear_342_58330" x1="73.6409" y1="27.6416" x2="58.7436" y2="72.1659" gradientUnits="userSpaceOnUse">
<stop stop-color="#4DC1EA"/>
<stop offset="0.585" stop-color="#0078D4"/>
</linearGradient>
<linearGradient id="paint3_linear_342_58330" x1="58.5184" y1="70.645" x2="76.5709" y2="91.0976" gradientUnits="userSpaceOnUse">
<stop/>
<stop offset="0.8221" stop-opacity="0"/>
</linearGradient>
<linearGradient id="paint4_linear_342_58330" x1="35.3696" y1="56.4273" x2="53.422" y2="76.8799" gradientUnits="userSpaceOnUse">
<stop/>
<stop offset="0.8221" stop-opacity="0"/>
</linearGradient>
<linearGradient id="paint5_linear_342_58330" x1="35.6732" y1="73.5592" x2="34.5988" y2="34.6668" gradientUnits="userSpaceOnUse">
<stop stop-color="#0078D4"/>
<stop offset="0.848" stop-color="#4DC2EB"/>
</linearGradient>
<linearGradient id="paint6_linear_342_58330" x1="35.5587" y1="73.259" x2="34.4843" y2="34.3667" gradientUnits="userSpaceOnUse">
<stop stop-color="#0078D4"/>
<stop offset="0.848" stop-color="#4DC2EB"/>
</linearGradient>
<linearGradient id="paint7_linear_342_58330" x1="35.4361" y1="72.735" x2="34.3617" y2="33.8426" gradientUnits="userSpaceOnUse">
<stop stop-color="#0078D4"/>
<stop offset="0.848" stop-color="#4DC2EB"/>
</linearGradient>
<linearGradient id="paint8_linear_342_58330" x1="35.3134" y1="72.2129" x2="34.2391" y2="33.3205" gradientUnits="userSpaceOnUse">
<stop stop-color="#0078D4"/>
<stop offset="0.848" stop-color="#4DC2EB"/>
</linearGradient>
<linearGradient id="paint9_linear_342_58330" x1="35.1908" y1="71.6901" x2="34.1164" y2="32.7977" gradientUnits="userSpaceOnUse">
<stop stop-color="#0078D4"/>
<stop offset="0.848" stop-color="#4DC2EB"/>
</linearGradient>
<linearGradient id="paint10_linear_342_58330" x1="35.0682" y1="71.166" x2="33.9938" y2="32.2737" gradientUnits="userSpaceOnUse">
<stop stop-color="#0078D4"/>
<stop offset="0.848" stop-color="#4DC2EB"/>
</linearGradient>
<linearGradient id="paint11_linear_342_58330" x1="34.9455" y1="70.6439" x2="33.8712" y2="31.7515" gradientUnits="userSpaceOnUse">
<stop stop-color="#0078D4"/>
<stop offset="0.848" stop-color="#4DC2EB"/>
</linearGradient>
<linearGradient id="paint12_linear_342_58330" x1="34.8229" y1="70.1217" x2="33.7485" y2="31.2294" gradientUnits="userSpaceOnUse">
<stop stop-color="#0078D4"/>
<stop offset="0.848" stop-color="#4DC2EB"/>
</linearGradient>
<linearGradient id="paint13_linear_342_58330" x1="52.6386" y1="77.8052" x2="52.2682" y2="22.9879" gradientUnits="userSpaceOnUse">
<stop stop-color="#0078D4"/>
<stop offset="0.848" stop-color="#4DC2EB"/>
</linearGradient>
<linearGradient id="paint14_linear_342_58330" x1="52.6105" y1="77.5131" x2="52.2401" y2="22.6958" gradientUnits="userSpaceOnUse">
<stop stop-color="#0078D4"/>
<stop offset="0.848" stop-color="#4DC2EB"/>
</linearGradient>
<linearGradient id="paint15_linear_342_58330" x1="52.5803" y1="76.9637" x2="52.2099" y2="22.1464" gradientUnits="userSpaceOnUse">
<stop stop-color="#0078D4"/>
<stop offset="0.848" stop-color="#4DC2EB"/>
</linearGradient>
<linearGradient id="paint16_linear_342_58330" x1="52.5501" y1="76.4169" x2="52.1797" y2="21.5997" gradientUnits="userSpaceOnUse">
<stop stop-color="#0078D4"/>
<stop offset="0.848" stop-color="#4DC2EB"/>
</linearGradient>
<linearGradient id="paint17_linear_342_58330" x1="52.52" y1="75.8702" x2="52.1496" y2="21.0529" gradientUnits="userSpaceOnUse">
<stop stop-color="#0078D4"/>
<stop offset="0.848" stop-color="#4DC2EB"/>
</linearGradient>
<linearGradient id="paint18_linear_342_58330" x1="52.4898" y1="75.3214" x2="52.1194" y2="20.5041" gradientUnits="userSpaceOnUse">
<stop stop-color="#0078D4"/>
<stop offset="0.848" stop-color="#4DC2EB"/>
</linearGradient>
<linearGradient id="paint19_linear_342_58330" x1="52.4597" y1="74.7759" x2="52.0893" y2="19.9587" gradientUnits="userSpaceOnUse">
<stop stop-color="#0078D4"/>
<stop offset="0.848" stop-color="#4DC2EB"/>
</linearGradient>
<linearGradient id="paint20_linear_342_58330" x1="52.4295" y1="74.2272" x2="52.0591" y2="19.4099" gradientUnits="userSpaceOnUse">
<stop stop-color="#0078D4"/>
<stop offset="0.848" stop-color="#4DC2EB"/>
</linearGradient>
<linearGradient id="paint21_linear_342_58330" x1="66.7906" y1="83.6339" x2="53.7977" y2="70.6409" gradientUnits="userSpaceOnUse">
<stop stop-color="#0078D4"/>
<stop offset="0.848" stop-color="#4DC2EB"/>
</linearGradient>
<linearGradient id="paint22_linear_342_58330" x1="66.655" y1="85.3723" x2="53.5814" y2="72.2987" gradientUnits="userSpaceOnUse">
<stop stop-color="#0078D4"/>
<stop offset="0.848" stop-color="#4DC2EB"/>
</linearGradient>
<linearGradient id="paint23_linear_342_58330" x1="66.9458" y1="82.5232" x2="53.9544" y2="69.5318" gradientUnits="userSpaceOnUse">
<stop stop-color="#0078D4"/>
<stop offset="0.848" stop-color="#4DC2EB"/>
</linearGradient>
<linearGradient id="paint24_linear_342_58330" x1="66.636" y1="84.7441" x2="53.6416" y2="71.7497" gradientUnits="userSpaceOnUse">
<stop stop-color="#0078D4"/>
<stop offset="0.848" stop-color="#4DC2EB"/>
</linearGradient>
<linearGradient id="paint25_linear_342_58330" x1="66.7124" y1="84.1895" x2="53.7195" y2="71.1966" gradientUnits="userSpaceOnUse">
<stop stop-color="#0078D4"/>
<stop offset="0.848" stop-color="#4DC2EB"/>
</linearGradient>
<linearGradient id="paint26_linear_342_58330" x1="66.5661" y1="80.8713" x2="54.5362" y2="68.8414" gradientUnits="userSpaceOnUse">
<stop stop-color="#0078D4"/>
<stop offset="0.848" stop-color="#4DC2EB"/>
</linearGradient>
<linearGradient id="paint27_linear_342_58330" x1="67.023" y1="81.9683" x2="54.0337" y2="68.9791" gradientUnits="userSpaceOnUse">
<stop stop-color="#0078D4"/>
<stop offset="0.848" stop-color="#4DC2EB"/>
</linearGradient>
<linearGradient id="paint28_linear_342_58330" x1="66.8669" y1="83.0782" x2="53.8763" y2="70.0876" gradientUnits="userSpaceOnUse">
<stop stop-color="#0078D4"/>
<stop offset="0.848" stop-color="#4DC2EB"/>
</linearGradient>
<linearGradient id="paint29_linear_342_58330" x1="63.133" y1="85.8077" x2="50.6788" y2="73.3534" gradientUnits="userSpaceOnUse">
<stop stop-color="#0078D4"/>
<stop offset="0.848" stop-color="#4DC2EB"/>
</linearGradient>
<linearGradient id="paint30_linear_342_58330" x1="62.7817" y1="87.3303" x2="50.2669" y2="74.8156" gradientUnits="userSpaceOnUse">
<stop stop-color="#0078D4"/>
<stop offset="0.848" stop-color="#4DC2EB"/>
</linearGradient>
<linearGradient id="paint31_linear_342_58330" x1="66.655" y1="85.3723" x2="53.5814" y2="72.2987" gradientUnits="userSpaceOnUse">
<stop stop-color="#0078D4"/>
<stop offset="0.848" stop-color="#4DC2EB"/>
</linearGradient>
<linearGradient id="paint32_linear_342_58330" x1="63.4079" y1="84.8186" x2="50.9548" y2="72.3655" gradientUnits="userSpaceOnUse">
<stop stop-color="#0078D4"/>
<stop offset="0.848" stop-color="#4DC2EB"/>
</linearGradient>
<linearGradient id="paint33_linear_342_58330" x1="62.8587" y1="86.7989" x2="50.4033" y2="74.3435" gradientUnits="userSpaceOnUse">
<stop stop-color="#0078D4"/>
<stop offset="0.848" stop-color="#4DC2EB"/>
</linearGradient>
<linearGradient id="paint34_linear_342_58330" x1="62.9954" y1="86.3018" x2="50.5411" y2="73.8476" gradientUnits="userSpaceOnUse">
<stop stop-color="#0078D4"/>
<stop offset="0.848" stop-color="#4DC2EB"/>
</linearGradient>
<linearGradient id="paint35_linear_342_58330" x1="63.4063" y1="83.5428" x2="51.8723" y2="72.0089" gradientUnits="userSpaceOnUse">
<stop stop-color="#0078D4"/>
<stop offset="0.848" stop-color="#4DC2EB"/>
</linearGradient>
<linearGradient id="paint36_linear_342_58330" x1="63.5453" y1="84.322" x2="51.0937" y2="71.8705" gradientUnits="userSpaceOnUse">
<stop stop-color="#0078D4"/>
<stop offset="0.848" stop-color="#4DC2EB"/>
</linearGradient>
<linearGradient id="paint37_linear_342_58330" x1="63.2699" y1="85.3125" x2="50.8173" y2="72.86" gradientUnits="userSpaceOnUse">
<stop stop-color="#0078D4"/>
<stop offset="0.848" stop-color="#4DC2EB"/>
</linearGradient>
<linearGradient id="paint38_linear_342_58330" x1="70.1992" y1="77.2997" x2="67.5773" y2="62.0059" gradientUnits="userSpaceOnUse">
<stop stop-color="#0078D4"/>
<stop offset="0.848" stop-color="#4DC2EB"/>
</linearGradient>
<linearGradient id="paint39_linear_342_58330" x1="75.0701" y1="76.9843" x2="72.4406" y2="61.6451" gradientUnits="userSpaceOnUse">
<stop stop-color="#0078D4"/>
<stop offset="0.848" stop-color="#4DC2EB"/>
</linearGradient>
<linearGradient id="paint40_linear_342_58330" x1="66.9066" y1="77.5267" x2="64.2853" y2="62.236" gradientUnits="userSpaceOnUse">
<stop stop-color="#0078D4"/>
<stop offset="0.848" stop-color="#4DC2EB"/>
</linearGradient>
<linearGradient id="paint41_linear_342_58330" x1="73.4906" y1="77.0727" x2="70.8683" y2="61.7758" gradientUnits="userSpaceOnUse">
<stop stop-color="#0078D4"/>
<stop offset="0.848" stop-color="#4DC2EB"/>
</linearGradient>
<linearGradient id="paint42_linear_342_58330" x1="71.8448" y1="77.1873" x2="69.2228" y2="61.8923" gradientUnits="userSpaceOnUse">
<stop stop-color="#0078D4"/>
<stop offset="0.848" stop-color="#4DC2EB"/>
</linearGradient>
<linearGradient id="paint43_linear_342_58330" x1="63.5559" y1="77.6755" x2="60.9864" y2="62.686" gradientUnits="userSpaceOnUse">
<stop stop-color="#0078D4"/>
<stop offset="0.848" stop-color="#4DC2EB"/>
</linearGradient>
<linearGradient id="paint44_linear_342_58330" x1="65.2604" y1="77.6413" x2="62.6395" y2="62.3528" gradientUnits="userSpaceOnUse">
<stop stop-color="#0078D4"/>
<stop offset="0.848" stop-color="#4DC2EB"/>
</linearGradient>
<linearGradient id="paint45_linear_342_58330" x1="68.5528" y1="77.4139" x2="65.9314" y2="62.1224" gradientUnits="userSpaceOnUse">
<stop stop-color="#0078D4"/>
<stop offset="0.848" stop-color="#4DC2EB"/>
</linearGradient>
<linearGradient id="paint46_linear_342_58330" x1="69.0426" y1="76.3845" x2="66.5602" y2="61.9034" gradientUnits="userSpaceOnUse">
<stop stop-color="#0078D4"/>
<stop offset="0.848" stop-color="#4DC2EB"/>
</linearGradient>
<linearGradient id="paint47_linear_342_58330" x1="73.8894" y1="75.9278" x2="71.401" y2="61.4127" gradientUnits="userSpaceOnUse">
<stop stop-color="#0078D4"/>
<stop offset="0.848" stop-color="#4DC2EB"/>
</linearGradient>
<linearGradient id="paint48_linear_342_58330" x1="65.7642" y1="76.6963" x2="63.2822" y2="62.2176" gradientUnits="userSpaceOnUse">
<stop stop-color="#0078D4"/>
<stop offset="0.848" stop-color="#4DC2EB"/>
</linearGradient>
<linearGradient id="paint49_linear_342_58330" x1="72.3199" y1="76.0752" x2="69.8369" y2="61.5919" gradientUnits="userSpaceOnUse">
<stop stop-color="#0078D4"/>
<stop offset="0.848" stop-color="#4DC2EB"/>
</linearGradient>
<linearGradient id="paint50_linear_342_58330" x1="70.6812" y1="76.2288" x2="68.1986" y2="61.747" gradientUnits="userSpaceOnUse">
<stop stop-color="#0078D4"/>
<stop offset="0.848" stop-color="#4DC2EB"/>
</linearGradient>
<linearGradient id="paint51_linear_342_58330" x1="62.45" y1="77.0556" x2="60.0155" y2="62.8538" gradientUnits="userSpaceOnUse">
<stop stop-color="#0078D4"/>
<stop offset="0.848" stop-color="#4DC2EB"/>
</linearGradient>
<linearGradient id="paint52_linear_342_58330" x1="64.1252" y1="76.8505" x2="61.6434" y2="62.3735" gradientUnits="userSpaceOnUse">
<stop stop-color="#0078D4"/>
<stop offset="0.848" stop-color="#4DC2EB"/>
</linearGradient>
<linearGradient id="paint53_linear_342_58330" x1="67.4035" y1="76.5404" x2="64.9213" y2="62.0612" gradientUnits="userSpaceOnUse">
<stop stop-color="#0078D4"/>
<stop offset="0.848" stop-color="#4DC2EB"/>
</linearGradient>
<linearGradient id="paint54_linear_342_58330" x1="30.5689" y1="45.522" x2="38.7562" y2="68.6068" gradientUnits="userSpaceOnUse">
<stop stop-color="#15548F"/>
<stop offset="0.4179" stop-color="#243A5E"/>
<stop offset="0.9677" stop-color="#1A2C45"/>
</linearGradient>
<linearGradient id="paint55_linear_342_58330" x1="27.757" y1="47.7895" x2="34.2632" y2="66.1343" gradientUnits="userSpaceOnUse">
<stop stop-color="#15548F"/>
<stop offset="0.4179" stop-color="#243A5E"/>
<stop offset="0.9677" stop-color="#1A2C45"/>
</linearGradient>
<linearGradient id="paint56_linear_342_58330" x1="25.1405" y1="52.2229" x2="29.5353" y2="64.6142" gradientUnits="userSpaceOnUse">
<stop stop-color="#15548F"/>
<stop offset="0.4179" stop-color="#243A5E"/>
<stop offset="0.9677" stop-color="#1A2C45"/>
</linearGradient>
</defs>
</svg>
