<svg width="103" height="103" viewBox="0 0 103 103" fill="none" xmlns="https://www.w3.org/2000/svg">
<path d="M51.7746 97.8456C25.9246 97.8456 4.9646 76.8956 4.9646 51.0356C4.9646 25.1756 25.9246 4.22559 51.7746 4.22559C77.6246 4.22559 98.5846 25.1856 98.5846 51.0356C98.5846 76.8856 77.6246 97.8456 51.7746 97.8456Z" fill="url(#paint0_linear)"/>
<path fill-rule="evenodd" clip-rule="evenodd" d="M51.7747 1.03516C79.3847 1.03516 101.775 23.4252 101.775 51.0352C101.775 78.6452 79.3847 101.035 51.7747 101.035C24.1647 101.035 1.77466 78.6452 1.77466 51.0352C1.77466 23.4252 24.1647 1.03516 51.7747 1.03516ZM51.7747 96.7952C77.0447 96.7952 97.5347 76.3052 97.5347 51.0352C97.5347 25.7652 77.0447 5.27516 51.7747 5.27516C26.5047 5.27516 6.01466 25.7652 6.01466 51.0352C6.01466 76.3052 26.5047 96.7952 51.7747 96.7952Z" fill="#D9D9D9"/>
<path fill-rule="evenodd" clip-rule="evenodd" d="M97.6748 51.0355C97.6748 76.3855 77.1248 96.9355 51.7748 96.9355C26.4248 96.9355 5.87477 76.3855 5.87477 51.0355C5.87477 25.6855 26.4248 5.13551 51.7748 5.13551C77.1248 5.13551 97.6748 25.6855 97.6748 51.0355ZM51.7748 1.39551C79.1948 1.39551 101.415 23.6155 101.415 51.0355C101.415 78.4555 79.1848 100.676 51.7748 100.676C24.3548 100.676 2.13477 78.4455 2.13477 51.0355C2.13477 23.6155 24.3548 1.39551 51.7748 1.39551Z" fill="#F2F1F0"/>
<path fill-rule="evenodd" clip-rule="evenodd" d="M51.7746 94.1251C27.9746 94.1251 8.68458 74.8351 8.68458 51.0351C8.68458 27.2351 27.9746 7.94508 51.7746 7.94508C75.5746 7.94508 94.8646 27.2351 94.8646 51.0351C94.8646 74.8351 75.5746 94.1251 51.7746 94.1251ZM98.6046 51.0351C98.6046 76.8951 77.6346 97.8651 51.7746 97.8651C25.9146 97.8651 4.94458 76.8951 4.94458 51.0351C4.94458 25.1751 25.9146 4.20508 51.7746 4.20508C77.6346 4.20508 98.6046 25.1651 98.6046 51.0351Z" fill="url(#paint1_linear)"/>
<path opacity="0.2" d="M72.3147 72.0153C73.4647 72.0153 74.3947 71.0853 74.3947 69.9353V32.1553H16.3247V69.9353C16.3247 71.0853 17.2547 72.0153 18.4047 72.0153H72.3147Z" fill="#1F1D21"/>
<path d="M74.4047 31.5053V30.8653C74.4047 30.0853 73.7647 29.4453 72.9847 29.4453H17.7447C16.9647 29.4453 16.3247 30.0853 16.3247 30.8653V31.5653V32.2053V68.5953C16.3247 69.3753 16.9647 70.0153 17.7447 70.0153H72.9847C73.7647 70.0153 74.4047 69.3753 74.4047 68.5953V31.5753C74.4147 31.5553 74.4047 31.5253 74.4047 31.5053Z" fill="#F2F1F0"/>
<path opacity="0.2" d="M89.2447 63.0548C89.9147 63.0548 90.4647 62.5048 90.4647 61.8348V39.7148H66.5447V61.8348C66.5447 62.5048 67.0947 63.0548 67.7647 63.0548H89.2447V63.0548Z" fill="#1F1D21"/>
<path d="M90.4647 39.3348V38.9648C90.4647 38.5048 90.0947 38.1348 89.6347 38.1348H67.3747C66.9147 38.1348 66.5447 38.5048 66.5447 38.9648V39.3748V39.7548V61.0548C66.5447 61.5148 66.9147 61.8848 67.3747 61.8848H89.6447C90.1047 61.8848 90.4747 61.5148 90.4747 61.0548V39.3748C90.4747 39.3648 90.4647 39.3448 90.4647 39.3348Z" fill="white"/>
<path d="M81.3446 48.1455H85.1946C85.5546 48.1455 85.8546 48.4355 85.8546 48.8055V52.3055C85.8546 53.6455 84.7746 54.7255 83.4346 54.7255H83.4246C82.0846 54.7255 81.0046 53.6455 81.0046 52.3055V48.4855C81.0046 48.2955 81.1546 48.1455 81.3446 48.1455Z" fill="#5059C9"/>
<path d="M83.9445 47.455C84.8045 47.455 85.5045 46.755 85.5045 45.895C85.5045 45.035 84.8045 44.335 83.9445 44.335C83.0845 44.335 82.3845 45.035 82.3845 45.895C82.3845 46.755 83.0845 47.455 83.9445 47.455Z" fill="#5059C9"/>
<path d="M79.0945 47.4551C80.3345 47.4551 81.3445 46.4451 81.3445 45.2051C81.3445 43.9651 80.3345 42.9551 79.0945 42.9551C77.8545 42.9551 76.8445 43.9651 76.8445 45.2051C76.8445 46.4451 77.8545 47.4551 79.0945 47.4551Z" fill="#7B83EB"/>
<path d="M82.0946 48.1455H75.7446C75.3846 48.1555 75.1046 48.4555 75.1146 48.8155V52.8155C75.0646 54.9755 76.7746 56.7555 78.9246 56.8155C81.0846 56.7655 82.7846 54.9755 82.7346 52.8155V48.8155C82.7446 48.4555 82.4546 48.1555 82.0946 48.1455Z" fill="#7B83EB"/>
<path opacity="0.1" d="M79.2645 48.1455V53.7455C79.2645 54.0055 79.1045 54.2355 78.8645 54.3355C78.7845 54.3655 78.7045 54.3855 78.6245 54.3855H75.4045C75.3545 54.2755 75.3145 54.1555 75.2845 54.0355C75.1645 53.6355 75.1045 53.2255 75.1045 52.8055V48.8055C75.0945 48.4455 75.3745 48.1455 75.7345 48.1455H79.2645V48.1455Z" fill="black"/>
<path opacity="0.2" d="M78.9245 48.1455V54.0955C78.9245 54.1755 78.9045 54.2555 78.8745 54.3355C78.7745 54.5755 78.5445 54.7255 78.2845 54.7355H75.5745C75.5145 54.6255 75.4645 54.5055 75.4145 54.3855C75.3645 54.2655 75.3245 54.1555 75.2945 54.0355C75.1745 53.6355 75.1145 53.2255 75.1145 52.8055V48.8055C75.1045 48.4455 75.3845 48.1455 75.7445 48.1455H78.9245V48.1455Z" fill="black"/>
<path opacity="0.2" d="M78.9245 48.1448V53.3948C78.9245 53.7448 78.6445 54.0248 78.2945 54.0248H75.3045C75.1845 53.6248 75.1245 53.2148 75.1245 52.7948V48.7948C75.1145 48.4348 75.3945 48.1348 75.7545 48.1348H78.9245V48.1448Z" fill="black"/>
<path opacity="0.2" d="M78.5745 48.1448V53.3948C78.5745 53.7448 78.2945 54.0248 77.9445 54.0248H75.2945C75.1745 53.6248 75.1145 53.2148 75.1145 52.7948V48.7948C75.1045 48.4348 75.3845 48.1348 75.7445 48.1348H78.5745V48.1448Z" fill="black"/>
<path opacity="0.1" d="M79.2645 46.3548V47.4448C79.2045 47.4448 79.1545 47.4548 79.0945 47.4548C79.0345 47.4548 78.9845 47.4548 78.9245 47.4448C78.8045 47.4348 78.6945 47.4148 78.5745 47.3848C77.8745 47.2148 77.2945 46.7248 77.0145 46.0648C76.9645 45.9548 76.9345 45.8348 76.9045 45.7148H78.6345C78.9845 45.7248 79.2645 46.0048 79.2645 46.3548Z" fill="black"/>
<path opacity="0.2" d="M78.9247 46.7054V47.4454C78.8047 47.4354 78.6947 47.4154 78.5747 47.3854C77.8747 47.2154 77.2946 46.7254 77.0146 46.0654H78.2847C78.6347 46.0654 78.9247 46.3554 78.9247 46.7054Z" fill="black"/>
<path opacity="0.2" d="M78.9247 46.7054V47.4454C78.8047 47.4354 78.6947 47.4154 78.5747 47.3854C77.8747 47.2154 77.2946 46.7254 77.0146 46.0654H78.2847C78.6347 46.0654 78.9247 46.3554 78.9247 46.7054Z" fill="black"/>
<path opacity="0.2" d="M78.5747 46.7054V47.3954C77.8747 47.2254 77.2946 46.7354 77.0146 46.0754H77.9347C78.2947 46.0654 78.5747 46.3554 78.5747 46.7054Z" fill="black"/>
<path d="M71.5846 46.0654H77.9346C78.2846 46.0654 78.5646 46.3454 78.5646 46.6954V53.0454C78.5646 53.3954 78.2846 53.6754 77.9346 53.6754H71.5846C71.2346 53.6754 70.9546 53.3954 70.9546 53.0454V46.6954C70.9546 46.3554 71.2346 46.0654 71.5846 46.0654Z" fill="url(#paint2_linear)"/>
<path d="M76.4345 48.4854H75.1645V51.9454H74.3545V48.4854H73.0945V47.8154H76.4345V48.4854Z" fill="white"/>
<path d="M26.8245 35.0455C26.0545 35.1555 23.1946 37.0656 22.4346 38.8456C21.6746 40.6256 21.2746 44.8756 21.9546 48.7355C22.6446 52.5855 23.6145 53.9455 24.2345 55.4855C24.8545 57.0255 26.6746 61.0555 31.1946 64.4555C35.7146 67.8555 39.4046 65.8955 39.9746 65.3755C40.5546 64.8455 41.5746 63.4155 41.6346 62.8755C41.6946 62.3355 41.7745 62.3256 41.0245 61.5056C40.2745 60.6856 38.4245 58.2055 37.8745 57.4955C37.3145 56.7855 36.6046 56.5756 36.1346 56.8256C35.6646 57.0756 33.6645 58.2755 33.1445 58.4655C32.6245 58.6555 32.5846 58.9555 31.8446 58.2155C31.1046 57.4755 29.1746 55.0056 28.1146 52.3656C27.0546 49.7256 26.6346 46.5056 26.5546 45.8256C26.4646 45.1456 26.8446 45.0156 28.0045 44.5256C29.1645 44.0356 30.5946 43.6855 31.0946 43.4455C31.5946 43.2055 31.2846 42.6756 31.2746 41.9156C31.2646 41.1456 30.6745 37.0555 30.4945 36.2155C30.3145 35.3755 29.9846 35.4055 29.4346 35.2655C28.8846 35.1255 27.5545 34.9355 26.8245 35.0455Z" fill="url(#paint3_linear)"/>
<path d="M41.5547 51.815C43.0547 51.815 44.2747 50.595 44.2747 49.095C44.2747 47.595 43.0547 46.375 41.5547 46.375C40.0547 46.375 38.8347 47.595 38.8347 49.095C38.8347 50.595 40.0547 51.815 41.5547 51.815Z" fill="url(#paint4_linear)"/>
<path d="M59.4846 63.5347C60.9846 63.5347 62.2046 62.3147 62.2046 60.8147C62.2046 59.3147 60.9846 58.0947 59.4846 58.0947C57.9846 58.0947 56.7646 59.3147 56.7646 60.8147C56.7646 62.3147 57.9846 63.5347 59.4846 63.5347Z" fill="url(#paint5_linear)"/>
<path d="M41.7247 46.7245C42.9747 46.7245 43.9947 47.7445 43.9947 48.9845C43.9947 50.2245 42.9747 51.2545 41.7247 51.2545C40.4747 51.2545 39.4547 50.2345 39.4547 48.9945C39.4547 47.7345 40.4647 46.7245 41.7247 46.7245ZM41.7247 45.6045C39.8547 45.6045 38.3347 47.1245 38.3347 48.9945C38.3347 50.8645 39.8547 52.3745 41.7247 52.3745C43.5947 52.3745 45.1147 50.8545 45.1147 48.9845C45.1147 47.1145 43.5947 45.6045 41.7247 45.6045Z" fill="url(#paint6_linear)"/>
<path d="M59.4747 58.3446C60.7247 58.3446 61.7447 59.3646 61.7447 60.6046C61.7447 61.8546 60.7247 62.8746 59.4747 62.8746C58.2147 62.8746 57.2047 61.8546 57.2047 60.6146C57.2047 59.3646 58.2247 58.3446 59.4747 58.3446ZM59.4747 57.2246C57.6047 57.2246 56.0847 58.7446 56.0847 60.6146C56.0847 62.4846 57.6047 63.9946 59.4747 63.9946C61.3447 63.9946 62.8647 62.4746 62.8647 60.6046C62.8647 58.7346 61.3447 57.2246 59.4747 57.2246Z" fill="url(#paint7_linear)"/>
<path d="M47.0148 53.615L45.9348 50.915L48.8148 51.345L47.0148 53.615Z" fill="url(#paint8_linear)"/>
<path d="M55.4147 58.2345C55.3347 58.2345 55.2547 58.2045 55.1747 58.1545C52.3447 55.8245 49.2447 53.6045 46.8747 52.2245C46.6947 52.1245 46.6347 51.8845 46.7447 51.7145C46.8447 51.5345 47.0847 51.4745 47.2547 51.5845C49.6547 52.9845 52.7947 55.2345 55.6547 57.5945C55.8147 57.7245 55.8347 57.9645 55.7047 58.1145C55.6247 58.1945 55.5247 58.2345 55.4147 58.2345Z" fill="url(#paint9_linear)"/>
<path d="M53.2646 38.4746L56.1746 38.5546L54.6446 41.0246L53.2646 38.4746Z" fill="url(#paint10_linear)"/>
<path d="M45.3747 45.6051C45.2747 45.6051 45.1647 45.5651 45.0947 45.4751C44.9647 45.3151 44.9847 45.0751 45.1347 44.9451C48.6047 41.9951 51.6047 40.4851 54.3847 39.1951C54.5747 39.1051 54.7947 39.1851 54.8747 39.3751C54.9647 39.5651 54.8847 39.7851 54.6947 39.8651C51.9647 41.1351 49.0047 42.6151 45.6047 45.5051C45.5447 45.5751 45.4547 45.6051 45.3747 45.6051Z" fill="url(#paint11_linear)"/>
<path d="M60.3247 41.1548C61.8247 41.1548 63.0447 39.9348 63.0447 38.4348C63.0447 36.9348 61.8247 35.7148 60.3247 35.7148C58.8247 35.7148 57.6047 36.9348 57.6047 38.4348C57.6047 39.9348 58.8247 41.1548 60.3247 41.1548Z" fill="url(#paint12_linear)"/>
<path d="M60.4747 36.1649C61.7247 36.1649 62.7447 37.1849 62.7447 38.4249C62.7447 39.6749 61.7247 40.6949 60.4747 40.6949C59.2247 40.6949 58.2047 39.6749 58.2047 38.4349C58.2047 37.1849 59.2247 36.1649 60.4747 36.1649ZM60.4747 35.0449C58.6047 35.0449 57.0847 36.5649 57.0847 38.4349C57.0847 40.3149 58.6047 41.8149 60.4747 41.8149C62.3447 41.8149 63.8647 40.2949 63.8647 38.4249C63.8647 36.5549 62.3447 35.0449 60.4747 35.0449Z" fill="url(#paint13_linear)"/>
<defs>
<linearGradient id="paint0_linear" x1="36.7171" y1="0.596386" x2="66.9534" y2="101.888" gradientUnits="userSpaceOnUse">
<stop stop-color="#A9B1FF"/>
<stop offset="1" stop-color="#7B83EB"/>
</linearGradient>
<linearGradient id="paint1_linear" x1="51.7745" y1="4.20498" x2="51.7745" y2="97.865" gradientUnits="userSpaceOnUse">
<stop stop-color="#5A62C3"/>
<stop offset="0.5" stop-color="#4D55BD"/>
<stop offset="1" stop-color="#3940AB"/>
</linearGradient>
<linearGradient id="paint2_linear" x1="72.278" y1="45.5708" x2="77.2511" y2="54.1841" gradientUnits="userSpaceOnUse">
<stop stop-color="#5A62C3"/>
<stop offset="0.5" stop-color="#4D55BD"/>
<stop offset="1" stop-color="#3940AB"/>
</linearGradient>
<linearGradient id="paint3_linear" x1="21.4607" y1="31.4927" x2="38.6961" y2="72.7409" gradientUnits="userSpaceOnUse">
<stop stop-color="#5A62C3"/>
<stop offset="0.5" stop-color="#4D55BD"/>
<stop offset="1" stop-color="#3940AB"/>
</linearGradient>
<linearGradient id="paint4_linear" x1="37.2094" y1="30.1396" x2="50.34" y2="87.4623" gradientUnits="userSpaceOnUse">
<stop stop-color="#A9B1FF"/>
<stop offset="1" stop-color="#7B83EB"/>
</linearGradient>
<linearGradient id="paint5_linear" x1="51.695" y1="26.8211" x2="64.8256" y2="84.1438" gradientUnits="userSpaceOnUse">
<stop stop-color="#A9B1FF"/>
<stop offset="1" stop-color="#7B83EB"/>
</linearGradient>
<linearGradient id="paint6_linear" x1="35.0771" y1="28.1078" x2="52.0197" y2="81.336" gradientUnits="userSpaceOnUse">
<stop stop-color="#5A62C3"/>
<stop offset="0.5" stop-color="#4D55BD"/>
<stop offset="1" stop-color="#3940AB"/>
</linearGradient>
<linearGradient id="paint7_linear" x1="47.8355" y1="24.0468" x2="64.7782" y2="77.2751" gradientUnits="userSpaceOnUse">
<stop stop-color="#5A62C3"/>
<stop offset="0.5" stop-color="#4D55BD"/>
<stop offset="1" stop-color="#3940AB"/>
</linearGradient>
<linearGradient id="paint8_linear" x1="42.5801" y1="33.3332" x2="51.2633" y2="65.5243" gradientUnits="userSpaceOnUse">
<stop stop-color="#5A62C3"/>
<stop offset="0.5" stop-color="#4D55BD"/>
<stop offset="1" stop-color="#3940AB"/>
</linearGradient>
<linearGradient id="paint9_linear" x1="45.2323" y1="32.6173" x2="53.9155" y2="64.8083" gradientUnits="userSpaceOnUse">
<stop stop-color="#5A62C3"/>
<stop offset="0.5" stop-color="#4D55BD"/>
<stop offset="1" stop-color="#3940AB"/>
</linearGradient>
<linearGradient id="paint10_linear" x1="52.5906" y1="30.6325" x2="61.2739" y2="62.8236" gradientUnits="userSpaceOnUse">
<stop stop-color="#5A62C3"/>
<stop offset="0.5" stop-color="#4D55BD"/>
<stop offset="1" stop-color="#3940AB"/>
</linearGradient>
<linearGradient id="paint11_linear" x1="47.1783" y1="32.093" x2="55.8614" y2="64.284" gradientUnits="userSpaceOnUse">
<stop stop-color="#5A62C3"/>
<stop offset="0.5" stop-color="#4D55BD"/>
<stop offset="1" stop-color="#3940AB"/>
</linearGradient>
<linearGradient id="paint12_linear" x1="57.3689" y1="25.5215" x2="70.4995" y2="82.8442" gradientUnits="userSpaceOnUse">
<stop stop-color="#A9B1FF"/>
<stop offset="1" stop-color="#7B83EB"/>
</linearGradient>
<linearGradient id="paint13_linear" x1="55.1557" y1="21.7171" x2="72.0984" y2="74.9453" gradientUnits="userSpaceOnUse">
<stop stop-color="#5A62C3"/>
<stop offset="0.5" stop-color="#4D55BD"/>
<stop offset="1" stop-color="#3940AB"/>
</linearGradient>
</defs>
</svg>
