<svg width="102" height="102" viewBox="0 0 102 102" fill="none" xmlns="http://www.w3.org/2000/svg">
<path d="M50.9995 97.81C44.8523 97.81 38.7652 96.5992 33.0859 94.2467C27.4067 91.8943 22.2461 88.4463 17.8994 84.0996C13.5527 79.7529 10.1049 74.5926 7.75244 68.9134C5.40002 63.2341 4.18945 57.1471 4.18945 50.9999C4.1921 38.5869 9.12503 26.6832 17.9033 17.9067C26.6816 9.13032 38.5865 4.19995 50.9995 4.19995C63.4143 4.19995 75.3205 9.1317 84.0991 17.9103C92.8777 26.6889 97.8091 38.5952 97.8091 51.0099C97.8064 63.423 92.8735 75.3267 84.0952 84.1031C75.3169 92.8796 63.4126 97.81 50.9995 97.81V97.81Z" fill="url(#paint0_linear)"/>
<path fill-rule="evenodd" clip-rule="evenodd" d="M96.8994 51.0101C96.8994 63.1835 92.0635 74.8584 83.4556 83.4663C74.8476 92.0742 63.1729 96.9101 50.9995 96.9101C38.8261 96.9101 27.1509 92.0742 18.543 83.4663C9.93505 74.8584 5.09912 63.1835 5.09912 51.0101C5.09912 38.8367 9.93505 27.1618 18.543 18.5539C27.1509 9.94598 38.8261 5.11011 50.9995 5.11011C63.1729 5.11011 74.8476 9.94598 83.4556 18.5539C92.0635 27.1618 96.8994 38.8367 96.8994 51.0101V51.0101ZM50.9995 1.37012C57.5187 1.3688 63.9739 2.65188 69.9971 5.14606C76.0203 7.64024 81.4933 11.2966 86.103 15.9064C90.7128 20.5162 94.3691 25.989 96.8633 32.0121C99.3575 38.0353 100.64 44.4909 100.639 51.0101C100.639 64.1754 95.4094 76.8016 86.1001 86.1109C76.7908 95.4202 64.1649 100.65 50.9995 100.65C37.8342 100.65 25.2077 95.4202 15.8984 86.1109C6.58913 76.8016 1.35938 64.1754 1.35938 51.0101C1.35806 44.4909 2.64108 38.0353 5.13525 32.0121C7.62943 25.989 11.2857 20.5162 15.8955 15.9064C20.5053 11.2966 25.9783 7.64024 32.0015 5.14606C38.0247 2.65188 44.4803 1.3688 50.9995 1.37012V1.37012Z" fill="#F2F1F0"/>
<path fill-rule="evenodd" clip-rule="evenodd" d="M94.0898 50.9999C94.0898 56.6586 92.975 62.2619 90.8096 67.4898C88.6441 72.7177 85.4705 77.4679 81.4692 81.4692C77.468 85.4705 72.7177 88.6444 67.4897 90.8099C62.2618 92.9754 56.6587 94.09 51 94.09C39.5718 94.09 28.6117 89.5501 20.5308 81.4692C12.4498 73.3882 7.90967 62.4281 7.90967 50.9999C7.90967 39.5718 12.4498 28.6117 20.5308 20.5307C28.6117 12.4498 39.5718 7.90994 51 7.90994C56.6587 7.90994 62.2618 9.0245 67.4897 11.19C72.7177 13.3554 77.468 16.5295 81.4692 20.5307C85.4705 24.532 88.6441 29.2822 90.8096 34.5101C92.975 39.7381 94.0898 45.3413 94.0898 50.9999ZM51 4.19995C63.4201 4.19995 75.3314 9.13381 84.1138 17.9161C92.8961 26.6985 97.8296 38.6098 97.8296 51.0299C97.8296 63.45 92.8961 75.3614 84.1138 84.1438C75.3314 92.9261 63.4201 97.86 51 97.86C38.5799 97.86 26.6686 92.9261 17.8862 84.1438C9.1039 75.3614 4.16992 63.45 4.16992 51.0299C4.16992 38.6098 9.1039 26.6985 17.8862 17.9161C26.6686 9.13381 38.5799 4.19995 51 4.19995Z" fill="url(#paint1_linear)"/>
<path opacity="0.15" d="M73.69 22.2H27.6397C27.4038 22.1987 27.17 22.244 26.9517 22.3333C26.7334 22.4227 26.535 22.5544 26.3677 22.7207C26.2004 22.887 26.0677 23.0848 25.9771 23.3027C25.8865 23.5205 25.8399 23.7541 25.8399 23.99V84.08C25.8385 84.3167 25.8842 84.5514 25.9741 84.7704C26.0641 84.9894 26.1969 85.1883 26.3643 85.3557C26.5317 85.5231 26.7303 85.6557 26.9492 85.7457C27.1682 85.8357 27.4029 85.8813 27.6397 85.88H73.69C73.9259 85.88 74.1592 85.8334 74.377 85.7428C74.5948 85.6522 74.7927 85.5194 74.959 85.3522C75.1254 85.1849 75.2569 84.9864 75.3462 84.768C75.4356 84.5497 75.4813 84.3159 75.48 84.08V23.99C75.4774 23.5161 75.2878 23.0623 74.9527 22.7272C74.6175 22.392 74.1639 22.2026 73.69 22.2V22.2Z" fill="#1E1C1F"/>
<path d="M73.69 19.94H27.6397C27.4038 19.9387 27.17 19.984 26.9517 20.0734C26.7334 20.1627 26.535 20.2944 26.3677 20.4607C26.2004 20.6271 26.0677 20.8248 25.9771 21.0427C25.8865 21.2605 25.8399 21.4941 25.8399 21.73V81.82C25.8385 82.0567 25.8842 82.2914 25.9741 82.5104C26.0641 82.7294 26.1969 82.9283 26.3643 83.0957C26.5317 83.2631 26.7303 83.3957 26.9492 83.4857C27.1682 83.5757 27.4029 83.6213 27.6397 83.62H73.69C73.9259 83.62 74.1592 83.5733 74.377 83.4828C74.5948 83.3922 74.7927 83.2595 74.959 83.0922C75.1254 82.9249 75.2569 82.7264 75.3462 82.5081C75.4356 82.2897 75.4813 82.0559 75.48 81.82V21.73C75.4774 21.2561 75.2878 20.8023 74.9527 20.4672C74.6175 20.132 74.1639 19.9426 73.69 19.94V19.94Z" fill="white"/>
<path opacity="0.15" fill-rule="evenodd" clip-rule="evenodd" d="M53.7706 12.6499C54.6135 13.1112 55.3149 13.7934 55.7994 14.6232C56.2839 15.453 56.5332 16.3991 56.5206 17.3599V17.8399C56.5206 18.0099 56.5206 18.1799 56.5206 18.3499H60.2706C60.8184 18.3437 61.3581 18.4818 61.8355 18.7504C62.313 19.019 62.7112 19.4085 62.9903 19.8799C63.3474 20.4222 63.5513 21.051 63.5802 21.6997C63.6091 22.3483 63.4619 22.9928 63.1544 23.5647C62.8469 24.1366 62.3906 24.6147 61.8336 24.9483C61.2765 25.282 60.6396 25.4588 59.9903 25.4599H41.1002C40.5534 25.4672 40.0146 25.3306 39.5372 25.0638C39.0598 24.797 38.6609 24.4094 38.3805 23.9399C38.0242 23.3968 37.8211 22.7676 37.7926 22.1187C37.764 21.4698 37.9107 20.8251 38.2179 20.2528C38.525 19.6804 38.9811 19.2016 39.5377 18.8667C40.0942 18.5318 40.7309 18.3533 41.3805 18.3499H44.8604C44.8604 18.1899 44.8604 18.0099 44.8604 17.8399V17.6899C44.8725 16.6537 45.1564 15.6388 45.6837 14.7467C46.211 13.8546 46.9633 13.1166 47.8653 12.6064C48.7673 12.0961 49.7875 11.8316 50.8238 11.8393C51.8601 11.8469 52.8762 12.1265 53.7706 12.6499V12.6499Z" fill="#1E1C1F"/>
<path fill-rule="evenodd" clip-rule="evenodd" d="M53.7707 11.66C54.6136 12.1213 55.315 12.8035 55.7995 13.6333C56.284 14.4631 56.5333 15.4092 56.5207 16.37V16.84C56.5207 17.02 56.5207 17.19 56.5207 17.36H60.2707C60.8184 17.3538 61.3581 17.4919 61.8356 17.7605C62.3131 18.0291 62.7112 18.4187 62.9904 18.89C63.3475 19.4323 63.5513 20.0611 63.5802 20.7098C63.6091 21.3584 63.4619 22.0028 63.1544 22.5747C62.847 23.1466 62.3907 23.6248 61.8336 23.9584C61.2766 24.2921 60.6397 24.4688 59.9904 24.47H41.1002C40.5523 24.4773 40.0125 24.3396 39.5348 24.0709C39.0572 23.8022 38.6589 23.4121 38.3805 22.94C38.0234 22.3977 37.8196 21.769 37.7907 21.1203C37.7618 20.4716 37.909 19.8272 38.2165 19.2553C38.5239 18.6834 38.9802 18.2053 39.5373 17.8717C40.0943 17.538 40.7312 17.3612 41.3805 17.36H44.8605C44.8605 17.2 44.8605 17.02 44.8605 16.84V16.69C44.8713 15.6534 45.1545 14.638 45.6818 13.7455C46.2091 12.853 46.9622 12.1149 47.8649 11.6053C48.7676 11.0956 49.7883 10.8324 50.8249 10.8421C51.8614 10.8517 52.8775 11.1337 53.7707 11.66Z" fill="#2057A3"/>
<path d="M50.6597 19.4299C50.9765 19.4312 51.2905 19.3698 51.5835 19.2491C51.8765 19.1285 52.1427 18.951 52.3667 18.7269C52.5908 18.5029 52.7685 18.2367 52.8892 17.9437C53.0098 17.6507 53.0712 17.3367 53.0698 17.0199C53.0712 16.703 53.0098 16.3891 52.8892 16.0961C52.7685 15.8031 52.5908 15.5368 52.3667 15.3128C52.1427 15.0887 51.8765 14.9113 51.5835 14.7906C51.2905 14.67 50.9765 14.6086 50.6597 14.6099C50.0205 14.6099 49.4076 14.8638 48.9556 15.3158C48.5036 15.7677 48.25 16.3807 48.25 17.0199C48.2487 17.3367 48.31 17.6507 48.4307 17.9437C48.5513 18.2367 48.7286 18.5029 48.9527 18.7269C49.1767 18.951 49.4429 19.1285 49.7359 19.2491C50.0289 19.3698 50.3428 19.4312 50.6597 19.4299V19.4299Z" fill="#F2F2F2"/>
<path d="M45.4102 61.0801H35.4604C35.2934 61.0801 35.1328 61.1464 35.0146 61.2646C34.8965 61.3827 34.8301 61.543 34.8301 61.7101C34.8327 61.8754 34.9007 62.0331 35.0186 62.1491C35.1364 62.2651 35.2951 62.3301 35.4604 62.3301H45.4004C45.5658 62.3301 45.7244 62.2651 45.8423 62.1491C45.9601 62.0331 46.0276 61.8754 46.0303 61.7101C46.0316 61.6278 46.0164 61.5461 45.9858 61.4697C45.9553 61.3933 45.9098 61.3238 45.8521 61.2652C45.7943 61.2066 45.7258 61.16 45.6499 61.1282C45.574 61.0964 45.4924 61.0801 45.4102 61.0801Z" fill="#74CEEA"/>
<path d="M45.4102 63.79H35.4604C35.2934 63.79 35.1328 63.8564 35.0146 63.9746C34.8965 64.0927 34.8301 64.253 34.8301 64.42C34.8301 64.5871 34.8965 64.7474 35.0146 64.8655C35.1328 64.9837 35.2934 65.05 35.4604 65.05H45.4004C45.5675 65.05 45.7276 64.9837 45.8457 64.8655C45.9639 64.7474 46.0303 64.5871 46.0303 64.42C46.0303 64.2547 45.9651 64.0959 45.8491 63.9781C45.7331 63.8602 45.5755 63.7927 45.4102 63.79V63.79Z" fill="#33AEE3"/>
<path fill-rule="evenodd" clip-rule="evenodd" d="M35.4604 66.72H39.4604C39.6249 66.72 39.7827 66.7853 39.8989 66.9016C40.0152 67.0179 40.0801 67.1756 40.0801 67.34C40.0801 67.5054 40.0154 67.6641 39.8994 67.782C39.7834 67.8998 39.6258 67.9673 39.4604 67.97H35.4604C35.2934 67.97 35.1328 67.9036 35.0146 67.7855C34.8965 67.6673 34.8301 67.5071 34.8301 67.34C34.8327 67.1746 34.9007 67.0169 35.0186 66.9009C35.1364 66.7849 35.2951 66.7199 35.4604 66.72V66.72Z" fill="#175A97"/>
<g opacity="0.15">
<path opacity="0.15" d="M35.6992 45.86C35.6992 45.378 35.6044 44.9008 35.4199 44.4555C35.2355 44.0102 34.9653 43.6057 34.6245 43.2649C34.2837 42.9241 33.8789 42.6537 33.4336 42.4693C32.9883 42.2849 32.5112 42.1899 32.0293 42.1899C31.5473 42.1899 31.0703 42.2849 30.625 42.4693C30.1797 42.6537 29.7749 42.9241 29.4341 43.2649C29.0933 43.6057 28.8231 44.0102 28.6387 44.4555C28.4542 44.9008 28.3594 45.378 28.3594 45.86C28.3594 46.8333 28.7458 47.7668 29.4341 48.455C30.1223 49.1433 31.056 49.5299 32.0293 49.5299C33.0026 49.5299 33.9363 49.1433 34.6245 48.455C35.3128 47.7668 35.6992 46.8333 35.6992 45.86V45.86Z" fill="#1E1C1F"/>
<path opacity="0.15" d="M55.8286 38.44C55.8366 37.963 55.75 37.4893 55.5733 37.0462C55.3965 36.6031 55.1334 36.1996 54.7993 35.8591C54.4653 35.5185 54.067 35.2478 53.6275 35.0625C53.1879 34.8773 52.7158 34.7812 52.2388 34.78C51.6481 34.7801 51.0661 34.9241 50.5435 35.1993C50.0208 35.4746 49.5731 35.873 49.2388 36.36L44.709 40.63L39.8086 35.73C39.1458 35.1019 38.2719 34.7451 37.3589 34.73C36.8787 34.73 36.4035 34.8247 35.96 35.0088C35.5165 35.1928 35.1135 35.4626 34.7744 35.8026C34.4354 36.1426 34.1667 36.5461 33.9839 36.9901C33.8011 37.4341 33.7077 37.9098 33.709 38.39C33.7237 39.3001 34.0808 40.1713 34.709 40.83L34.6587 40.88L39.5586 45.78L35.419 50.1C34.9067 50.4319 34.4855 50.8866 34.1939 51.4228C33.9022 51.959 33.7493 52.5596 33.749 53.17C33.749 54.138 34.1334 55.0664 34.8179 55.7509C35.5024 56.4354 36.4309 56.82 37.3989 56.82C38.3016 56.815 39.1705 56.4767 39.8389 55.87V55.87L44.7388 50.97L49.6489 55.87C50.3333 56.5211 51.2445 56.8798 52.189 56.87C53.098 56.8685 53.9732 56.527 54.6431 55.9126C55.313 55.2982 55.7287 54.4554 55.8086 53.55V38.42C55.8086 38.42 55.8286 38.47 55.8286 38.44Z" fill="#1E1C1F"/>
</g>
<path d="M48.5497 46.21L44.7197 50.04L49.6197 54.94L51.9097 52.66H48.5497V46.21Z" fill="#3075BA"/>
<path d="M39.8185 34.7257L34.6143 39.9299L39.5145 44.8302L44.7187 39.626L39.8185 34.7257Z" fill="#3274B6"/>
<path d="M34.6895 49.8701L39.8195 54.9401L44.7195 50.0401L39.5095 44.8401L34.6895 49.8701Z" fill="#8E79B3"/>
<path d="M48.5497 37.05H51.9497L49.8397 34.8L44.7197 39.6301L48.5497 43.46V37.05Z" fill="#9076B4"/>
<path d="M48.5498 43.4601L44.7198 39.6301L39.5098 44.8401L44.7198 50.0401L48.5498 46.2101V43.4601Z" fill="#6E6AAB"/>
<path d="M55.8199 37.53L51.9499 37.05L54.8299 39.93L49.9199 44.84L54.7299 49.85L51.9099 52.66H55.8199V37.53Z" fill="#88D3ED"/>
<path opacity="0.5" d="M49.9198 44.8401L48.5498 46.2101V52.6601H51.9098L54.6998 49.8701L49.9198 44.8401Z" fill="#2F75BB"/>
<path d="M49.9198 44.8401L48.5498 46.2101V52.6601H51.9098L54.8198 49.9001L49.9198 44.8401Z" fill="#3075BA"/>
<path d="M48.5498 43.46L49.9198 44.84L54.8298 39.93L51.9498 37.05H48.5498V43.46Z" fill="#8D79B6"/>
<path d="M48.5498 43.46L49.9198 44.84L54.8298 39.93L51.9498 37.05L48.6498 37.1301L48.5498 43.46Z" fill="#78C2E2"/>
<path d="M48.5498 46.21L49.9198 44.84L48.5498 43.46V46.21Z" fill="#8D79B6"/>
<path d="M48.5498 46.21L49.9198 44.84L48.5498 43.46V46.21Z" fill="#76BCD8"/>
<path d="M37.36 41.09C39.3758 41.09 41.01 39.4559 41.01 37.44C41.01 35.4242 39.3758 33.79 37.36 33.79C35.3441 33.79 33.71 35.4242 33.71 37.44C33.71 39.4559 35.3441 41.09 37.36 41.09Z" fill="#2F75BB"/>
<path d="M52.1695 55.9699C54.1854 55.9699 55.8195 54.3358 55.8195 52.3199C55.8195 50.3041 54.1854 48.6699 52.1695 48.6699C50.1537 48.6699 48.5195 50.3041 48.5195 52.3199C48.5195 54.3358 50.1537 55.9699 52.1695 55.9699Z" fill="#6DC0E5"/>
<path d="M32.0294 48.5299C34.0563 48.5299 35.6994 46.8868 35.6994 44.8599C35.6994 42.8331 34.0563 41.1899 32.0294 41.1899C30.0025 41.1899 28.3594 42.8331 28.3594 44.8599C28.3594 46.8868 30.0025 48.5299 32.0294 48.5299Z" fill="#8267AC"/>
<path d="M32.0299 47.76C33.6315 47.76 34.9299 46.4616 34.9299 44.86C34.9299 43.2583 33.6315 41.96 32.0299 41.96C30.4283 41.96 29.1299 43.2583 29.1299 44.86C29.1299 46.4616 30.4283 47.76 32.0299 47.76Z" fill="#FFFFF9"/>
<path d="M44.8 48.5801C46.8766 48.5801 48.56 46.8966 48.56 44.8201C48.56 42.7435 46.8766 41.0601 44.8 41.0601C42.7234 41.0601 41.04 42.7435 41.04 44.8201C41.04 46.8966 42.7234 48.5801 44.8 48.5801Z" fill="#FFFFF9"/>
<path d="M44.7996 47.5601C46.3128 47.5601 47.5396 46.3333 47.5396 44.8201C47.5396 43.3068 46.3128 42.0801 44.7996 42.0801C43.2863 42.0801 42.0596 43.3068 42.0596 44.8201C42.0596 46.3333 43.2863 47.5601 44.7996 47.5601Z" fill="#7465AC"/>
<path d="M55.8296 37.44C55.8376 37.9165 55.7506 38.3898 55.5737 38.8323C55.3969 39.2748 55.134 39.6777 54.7998 40.0174C54.4656 40.3572 54.067 40.627 53.6274 40.8112C53.1879 40.9953 52.7163 41.0901 52.2397 41.0901C51.2717 41.0901 50.3432 40.7055 49.6587 40.021C48.9742 39.3365 48.5898 38.4081 48.5898 37.44C48.5925 36.4728 48.9777 35.546 49.6616 34.862C50.3456 34.1781 51.2725 33.7927 52.2397 33.79C52.7159 33.7913 53.1871 33.887 53.626 34.0717C54.0649 34.2563 54.463 34.5262 54.7969 34.8656C55.1308 35.2051 55.394 35.6074 55.5713 36.0493C55.7486 36.4913 55.8362 36.9639 55.8296 37.44V37.44Z" fill="#354F74"/>
<path d="M37.36 55.8701C39.3758 55.8701 41.01 54.2359 41.01 52.2201C41.01 50.2042 39.3758 48.5701 37.36 48.5701C35.3441 48.5701 33.71 50.2042 33.71 52.2201C33.71 54.2359 35.3441 55.8701 37.36 55.8701Z" fill="#473B67"/>
<path d="M37.36 41.09C39.3758 41.09 41.01 39.4559 41.01 37.44C41.01 35.4242 39.3758 33.79 37.36 33.79C35.3441 33.79 33.71 35.4242 33.71 37.44C33.71 39.4559 35.3441 41.09 37.36 41.09Z" fill="#2F75BB"/>
<path d="M52.1695 55.9699C54.1854 55.9699 55.8195 54.3358 55.8195 52.3199C55.8195 50.3041 54.1854 48.6699 52.1695 48.6699C50.1537 48.6699 48.5195 50.3041 48.5195 52.3199C48.5195 54.3358 50.1537 55.9699 52.1695 55.9699Z" fill="#6DC0E5"/>
<path opacity="0.15" d="M67.4697 35.25H58.9697V43.74H67.4697V35.25Z" fill="#1E1C1F"/>
<path opacity="0.15" d="M67.4697 48.6499H58.9697V57.1399H67.4697V48.6499Z" fill="#1E1C1F"/>
<path opacity="0.15" d="M67.4697 62.2H58.9697V70.7H67.4697V62.2Z" fill="#1E1C1F"/>
<path d="M67.4697 34.54H58.9697V43.04H67.4697V34.54Z" fill="#F2F2F2"/>
<path d="M67.4697 47.9399H58.9697V56.43H67.4697V47.9399Z" fill="#F2F2F2"/>
<path d="M67.4697 61.45H58.9697V69.9399H67.4697V61.45Z" fill="#F2F2F2"/>
<path opacity="0.15" d="M70.0298 34.8599L68.8296 33.6599L62.8296 39.6599L61.0498 37.8699L59.8496 39.0699L62.8496 42.0699L70.0298 34.8599Z" fill="#1E1C1F"/>
<path opacity="0.15" d="M70.0298 48.2601L68.8296 47.0601L62.8296 53.0601L61.0498 51.2701L59.8496 52.4601L62.8496 55.4601L70.0298 48.2601Z" fill="#1E1C1F"/>
<path opacity="0.15" d="M70.0303 61.7801L68.8301 60.5801L62.8301 66.5801L61.0303 64.7701L59.8301 65.9701L62.8301 68.9701L70.0303 61.7801Z" fill="#1E1C1F"/>
<path d="M70.0298 34.2901L68.8296 33.1001L62.8296 39.1001L61.0498 37.3001L59.8496 38.5001L62.8496 41.5001L70.0298 34.2901Z" fill="#74CEEA"/>
<path d="M70.0298 47.69L68.8296 46.49L62.8296 52.49L61.0498 50.69L59.8496 51.89L62.8496 54.89L70.0298 47.69Z" fill="#33AEE3"/>
<path d="M70.0303 61.2L68.8301 60.01L62.8301 66.01L61.0303 64.2L59.8301 65.39L62.8301 68.39L70.0303 61.2Z" fill="#1565B0"/>
<defs>
<linearGradient id="paint0_linear" x1="49.2393" y1="-13.78" x2="53.2193" y2="131.99" gradientUnits="userSpaceOnUse">
<stop stop-color="#00AADD"/>
<stop offset="1" stop-color="#2E7BBE"/>
</linearGradient>
<linearGradient id="paint1_linear" x1="2.43993" y1="-20.6201" x2="97.9601" y2="120.26" gradientUnits="userSpaceOnUse">
<stop stop-color="#2E7BBE"/>
<stop offset="0.71" stop-color="#0A2D4B"/>
</linearGradient>
</defs>
</svg>
