<?xml version="1.0" encoding="UTF-8"?>
<svg width="102px" height="102px" viewBox="0 0 102 102" version="1.1" xmlns="http://www.w3.org/2000/svg" xmlns:xlink="http://www.w3.org/1999/xlink">
    <title>Stay current with Windows 10/plan-to-deploy-updates-to-windows-10</title>
    <defs>
        <rect id="path-1" x="0" y="0" width="94.3396226" height="94.3396226" rx="47.1698113"></rect>
        <filter x="-2.9%" y="-2.9%" width="106.4%" height="106.4%" filterUnits="objectBoundingBox" id="filter-3">
            <feMorphology radius="2.5" operator="dilate" in="SourceAlpha" result="shadowSpreadOuter1"></feMorphology>
            <feOffset dx="0.5" dy="0.5" in="shadowSpreadOuter1" result="shadowOffsetOuter1"></feOffset>
            <feMorphology radius="1" operator="erode" in="SourceAlpha" result="shadowInner"></feMorphology>
            <feOffset dx="0.5" dy="0.5" in="shadowInner" result="shadowInner"></feOffset>
            <feComposite in="shadowOffsetOuter1" in2="shadowInner" operator="out" result="shadowOffsetOuter1"></feComposite>
            <feColorMatrix values="0 0 0 0 0.821822822   0 0 0 0 0.831640661   0 0 0 0 0.835737288  0 0 0 1 0" type="matrix" in="shadowOffsetOuter1"></feColorMatrix>
        </filter>
        <linearGradient x1="77.8299825%" y1="11.1997378%" x2="-99.6885927%" y2="253.807911%" id="linearGradient-4">
            <stop stop-color="#FFFFFF" offset="0%"></stop>
            <stop stop-color="#000000" stop-opacity="0.5" offset="100%"></stop>
        </linearGradient>
        <rect id="path-5" x="0" y="0" width="94.3396226" height="94.3396226"></rect>
        <path d="M48.1132075,0.739331515 C74.2770768,0.739331515 95.4870836,21.9493383 95.4870836,48.1132075 C95.4870836,74.2770768 74.2770768,95.4870836 48.1132075,95.4870836 C21.9493383,95.4870836 0.739331515,74.2770768 0.739331515,48.1132075 C0.739331515,21.9493383 21.9493383,0.739331515 48.1132075,0.739331515 Z M48.1132075,4.71698113 C24.1461335,4.71698113 4.71698113,24.1461335 4.71698113,48.1132075 C4.71698113,72.0802816 24.1461335,91.509434 48.1132075,91.509434 C72.0802816,91.509434 91.509434,72.0802816 91.509434,48.1132075 C91.509434,24.1461335 72.0802816,4.71698113 48.1132075,4.71698113 Z" id="path-6"></path>
        <linearGradient x1="50%" y1="-9.93901477%" x2="50%" y2="129.576823%" id="linearGradient-8">
            <stop stop-color="#FFFFFF" offset="0%"></stop>
            <stop stop-color="#CBCBCB" offset="100%"></stop>
        </linearGradient>
        <linearGradient x1="50%" y1="12.7522786%" x2="50%" y2="138.094076%" id="linearGradient-9">
            <stop stop-color="#D02716" offset="0%"></stop>
            <stop stop-color="#DA5C46" offset="100%"></stop>
        </linearGradient>
    </defs>
    <g id="Badges" stroke="none" stroke-width="1" fill="none" fill-rule="evenodd">
        <g id="Stay-current-with-Windows-10" transform="translate(-159.000000, -509.000000)">
            <g id="Stay-current-with-Windows-10/plan-to-deploy-updates-to-windows-10" transform="translate(160.000000, 510.000000)">
                <g id="Badge-Plates/Circle">
                    <g id="BG" transform="translate(2.830189, 2.830189)">
                        <mask id="mask-2" fill="white">
                            <use xlink:href="#path-1"></use>
                        </mask>
                        <g>
                            <use fill="black" fill-opacity="1" filter="url(#filter-3)" xlink:href="#path-1"></use>
                            <rect stroke="#F2F1F0" stroke-width="2.5" x="-1.25" y="-1.25" width="96.8396226" height="96.8396226" rx="48.4198113"></rect>
                        </g>
                        <g id="Colors/Microsoft-365/BG-Solid-Badge" mask="url(#mask-2)">
                            <g id="Rectangle">
                                <use fill="#0078D4" xlink:href="#path-5"></use>
                                <use fill-opacity="0.4" fill="url(#linearGradient-4)" xlink:href="#path-5"></use>
                            </g>
                        </g>
                    </g>
                    <g id="Border" transform="translate(1.886792, 1.886792)">
                        <mask id="mask-7" fill="white">
                            <use xlink:href="#path-6"></use>
                        </mask>
                        <use id="Boarder" fill="#0078D4" fill-rule="nonzero" xlink:href="#path-6"></use>
                        <g id="Colors/Microsoft-365/Border" mask="url(#mask-7)" fill="#0076D7">
                            <g transform="translate(-1.886792, -1.886792)" id="Microsoft-365/Border">
                                <rect x="0" y="0" width="100" height="100"></rect>
                            </g>
                        </g>
                    </g>
                </g>
                <g id="Group-3" transform="translate(21.000000, 24.171875)">
                    <path d="M0,48.39375 C0,50.188125 1.63125,51.65625 3.625,51.65625 C35.0416667,51.65625 51.65625,51.65625 53.46875,51.65625 C56.1875,51.65625 58,51.2228807 58,47.2737387 C58,44.6409774 58,32.5080645 58,10.875 L0,10.875 L0,48.39375 Z" id="Fill-1315" fill="url(#linearGradient-8)"></path>
                    <path d="M56.1875,0 L1.8125,0 C0.815625,0 0,0.815625 0,1.8125 L0,10.875 L58,10.875 L58,1.8125 C58,0.815625 57.184375,0 56.1875,0 Z" id="Fill-1316" fill="url(#linearGradient-9)"></path>
                    <path d="M43.5,13.59375 C42.9988438,13.59375 42.59375,13.2899297 42.59375,12.9140625 L42.59375,6.1171875 C42.59375,5.74132031 42.9988438,5.4375 43.5,5.4375 C44.0011562,5.4375 44.40625,5.74132031 44.40625,6.1171875 L44.40625,12.9140625 C44.40625,13.2899297 44.0011562,13.59375 43.5,13.59375" id="Fill-1324" fill="#AAB0B1"></path>
                    <path d="M29,13.59375 C28.4988438,13.59375 28.09375,13.2899297 28.09375,12.9140625 L28.09375,6.1171875 C28.09375,5.74132031 28.4988438,5.4375 29,5.4375 C29.5011562,5.4375 29.90625,5.74132031 29.90625,6.1171875 L29.90625,12.9140625 C29.90625,13.2899297 29.5011562,13.59375 29,13.59375" id="Fill-1325" fill="#AAB0B1"></path>
                    <path d="M14.5,13.59375 C13.9988438,13.59375 13.59375,13.2899297 13.59375,12.9140625 L13.59375,6.1171875 C13.59375,5.74132031 13.9988438,5.4375 14.5,5.4375 C15.0011562,5.4375 15.40625,5.74132031 15.40625,6.1171875 L15.40625,12.9140625 C15.40625,13.2899297 15.0011562,13.59375 14.5,13.59375" id="Fill-1326" fill="#AAB0B1"></path>
                    <path d="M9.0625,22.65625 L5.4375,22.65625 C4.9390625,22.65625 4.53125,22.2484375 4.53125,21.75 L4.53125,18.125 C4.53125,17.6265625 4.9390625,17.21875 5.4375,17.21875 L9.0625,17.21875 C9.5609375,17.21875 9.96875,17.6265625 9.96875,18.125 L9.96875,21.75 C9.96875,22.2484375 9.5609375,22.65625 9.0625,22.65625 Z" id="Fill-1327" fill="#C5CCCD"></path>
                    <path d="M16.3125,22.65625 L12.6875,22.65625 C12.1890625,22.65625 11.78125,22.2484375 11.78125,21.75 L11.78125,18.125 C11.78125,17.6265625 12.1890625,17.21875 12.6875,17.21875 L16.3125,17.21875 C16.8109375,17.21875 17.21875,17.6265625 17.21875,18.125 L17.21875,21.75 C17.21875,22.2484375 16.8109375,22.65625 16.3125,22.65625 Z" id="Fill-1328" fill="#C5CCCD"></path>
                    <path d="M23.5625,22.65625 L19.9375,22.65625 C19.4390625,22.65625 19.03125,22.2484375 19.03125,21.75 L19.03125,18.125 C19.03125,17.6265625 19.4390625,17.21875 19.9375,17.21875 L23.5625,17.21875 C24.0609375,17.21875 24.46875,17.6265625 24.46875,18.125 L24.46875,21.75 C24.46875,22.2484375 24.0609375,22.65625 23.5625,22.65625 Z" id="Fill-1329" fill="#C5CCCD"></path>
                    <path d="M30.8125,22.65625 L27.1875,22.65625 C26.6890625,22.65625 26.28125,22.2484375 26.28125,21.75 L26.28125,18.125 C26.28125,17.6265625 26.6890625,17.21875 27.1875,17.21875 L30.8125,17.21875 C31.3109375,17.21875 31.71875,17.6265625 31.71875,18.125 L31.71875,21.75 C31.71875,22.2484375 31.3109375,22.65625 30.8125,22.65625 Z" id="Fill-1330" fill="#C5CCCD"></path>
                    <path d="M38.0625,22.65625 L34.4375,22.65625 C33.9390625,22.65625 33.53125,22.2484375 33.53125,21.75 L33.53125,18.125 C33.53125,17.6265625 33.9390625,17.21875 34.4375,17.21875 L38.0625,17.21875 C38.5609375,17.21875 38.96875,17.6265625 38.96875,18.125 L38.96875,21.75 C38.96875,22.2484375 38.5609375,22.65625 38.0625,22.65625 Z" id="Fill-1331" fill="#C5CCCD"></path>
                    <path d="M45.3125,22.65625 L41.6875,22.65625 C41.1890625,22.65625 40.78125,22.2484375 40.78125,21.75 L40.78125,18.125 C40.78125,17.6265625 41.1890625,17.21875 41.6875,17.21875 L45.3125,17.21875 C45.8109375,17.21875 46.21875,17.6265625 46.21875,18.125 L46.21875,21.75 C46.21875,22.2484375 45.8109375,22.65625 45.3125,22.65625 Z" id="Fill-1332" fill="#DF5142"></path>
                    <path d="M52.5625,22.65625 L48.9375,22.65625 C48.4390625,22.65625 48.03125,22.2484375 48.03125,21.75 L48.03125,18.125 C48.03125,17.6265625 48.4390625,17.21875 48.9375,17.21875 L52.5625,17.21875 C53.0609375,17.21875 53.46875,17.6265625 53.46875,18.125 L53.46875,21.75 C53.46875,22.2484375 53.0609375,22.65625 52.5625,22.65625 Z" id="Fill-1333" fill="#DF5142"></path>
                    <path d="M9.0625,29.90625 L5.4375,29.90625 C4.9390625,29.90625 4.53125,29.4984375 4.53125,29 L4.53125,25.375 C4.53125,24.8765625 4.9390625,24.46875 5.4375,24.46875 L9.0625,24.46875 C9.5609375,24.46875 9.96875,24.8765625 9.96875,25.375 L9.96875,29 C9.96875,29.4984375 9.5609375,29.90625 9.0625,29.90625 Z" id="Fill-1334" fill="#C5CCCD"></path>
                    <path d="M16.3125,29.90625 L12.6875,29.90625 C12.1890625,29.90625 11.78125,29.4984375 11.78125,29 L11.78125,25.375 C11.78125,24.8765625 12.1890625,24.46875 12.6875,24.46875 L16.3125,24.46875 C16.8109375,24.46875 17.21875,24.8765625 17.21875,25.375 L17.21875,29 C17.21875,29.4984375 16.8109375,29.90625 16.3125,29.90625 Z" id="Fill-1335" fill="#C5CCCD"></path>
                    <path d="M23.5625,29.90625 L19.9375,29.90625 C19.4390625,29.90625 19.03125,29.4984375 19.03125,29 L19.03125,25.375 C19.03125,24.8765625 19.4390625,24.46875 19.9375,24.46875 L23.5625,24.46875 C24.0609375,24.46875 24.46875,24.8765625 24.46875,25.375 L24.46875,29 C24.46875,29.4984375 24.0609375,29.90625 23.5625,29.90625 Z" id="Fill-1336" fill="#C5CCCD"></path>
                    <path d="M30.8125,29.90625 L27.1875,29.90625 C26.6890625,29.90625 26.28125,29.4984375 26.28125,29 L26.28125,25.375 C26.28125,24.8765625 26.6890625,24.46875 27.1875,24.46875 L30.8125,24.46875 C31.3109375,24.46875 31.71875,24.8765625 31.71875,25.375 L31.71875,29 C31.71875,29.4984375 31.3109375,29.90625 30.8125,29.90625 Z" id="Fill-1337" fill="#C5CCCD"></path>
                    <path d="M38.0625,29.90625 L34.4375,29.90625 C33.9390625,29.90625 33.53125,29.4984375 33.53125,29 L33.53125,25.375 C33.53125,24.8765625 33.9390625,24.46875 34.4375,24.46875 L38.0625,24.46875 C38.5609375,24.46875 38.96875,24.8765625 38.96875,25.375 L38.96875,29 C38.96875,29.4984375 38.5609375,29.90625 38.0625,29.90625 Z" id="Fill-1338" fill="#C5CCCD"></path>
                    <path d="M45.3125,29.90625 L41.6875,29.90625 C41.1890625,29.90625 40.78125,29.4984375 40.78125,29 L40.78125,25.375 C40.78125,24.8765625 41.1890625,24.46875 41.6875,24.46875 L45.3125,24.46875 C45.8109375,24.46875 46.21875,24.8765625 46.21875,25.375 L46.21875,29 C46.21875,29.4984375 45.8109375,29.90625 45.3125,29.90625 Z" id="Fill-1339" fill="#DF5142"></path>
                    <path d="M52.5625,29.90625 L48.9375,29.90625 C48.4390625,29.90625 48.03125,29.4984375 48.03125,29 L48.03125,25.375 C48.03125,24.8765625 48.4390625,24.46875 48.9375,24.46875 L52.5625,24.46875 C53.0609375,24.46875 53.46875,24.8765625 53.46875,25.375 L53.46875,29 C53.46875,29.4984375 53.0609375,29.90625 52.5625,29.90625 Z" id="Fill-1340" fill="#DF5142"></path>
                    <path d="M9.0625,37.15625 L5.4375,37.15625 C4.9390625,37.15625 4.53125,36.7484375 4.53125,36.25 L4.53125,32.625 C4.53125,32.1265625 4.9390625,31.71875 5.4375,31.71875 L9.0625,31.71875 C9.5609375,31.71875 9.96875,32.1265625 9.96875,32.625 L9.96875,36.25 C9.96875,36.7484375 9.5609375,37.15625 9.0625,37.15625 Z" id="Fill-1341" fill="#C5CCCD"></path>
                    <path d="M16.3125,37.15625 L12.6875,37.15625 C12.1890625,37.15625 11.78125,36.7484375 11.78125,36.25 L11.78125,32.625 C11.78125,32.1265625 12.1890625,31.71875 12.6875,31.71875 L16.3125,31.71875 C16.8109375,31.71875 17.21875,32.1265625 17.21875,32.625 L17.21875,36.25 C17.21875,36.7484375 16.8109375,37.15625 16.3125,37.15625 Z" id="Fill-1342" fill="#C5CCCD"></path>
                    <path d="M23.5625,37.15625 L19.9375,37.15625 C19.4390625,37.15625 19.03125,36.7484375 19.03125,36.25 L19.03125,32.625 C19.03125,32.1265625 19.4390625,31.71875 19.9375,31.71875 L23.5625,31.71875 C24.0609375,31.71875 24.46875,32.1265625 24.46875,32.625 L24.46875,36.25 C24.46875,36.7484375 24.0609375,37.15625 23.5625,37.15625 Z" id="Fill-1343" fill="#C5CCCD"></path>
                    <path d="M30.8125,37.15625 L27.1875,37.15625 C26.6890625,37.15625 26.28125,36.7484375 26.28125,36.25 L26.28125,32.625 C26.28125,32.1265625 26.6890625,31.71875 27.1875,31.71875 L30.8125,31.71875 C31.3109375,31.71875 31.71875,32.1265625 31.71875,32.625 L31.71875,36.25 C31.71875,36.7484375 31.3109375,37.15625 30.8125,37.15625 Z" id="Fill-1344" fill="#C5CCCD"></path>
                    <path d="M38.0625,37.15625 L34.4375,37.15625 C33.9390625,37.15625 33.53125,36.7484375 33.53125,36.25 L33.53125,32.625 C33.53125,32.1265625 33.9390625,31.71875 34.4375,31.71875 L38.0625,31.71875 C38.5609375,31.71875 38.96875,32.1265625 38.96875,32.625 L38.96875,36.25 C38.96875,36.7484375 38.5609375,37.15625 38.0625,37.15625 Z" id="Fill-1345" fill="#C5CCCD"></path>
                    <path d="M45.3125,37.15625 L41.6875,37.15625 C41.1890625,37.15625 40.78125,36.7484375 40.78125,36.25 L40.78125,32.625 C40.78125,32.1265625 41.1890625,31.71875 41.6875,31.71875 L45.3125,31.71875 C45.8109375,31.71875 46.21875,32.1265625 46.21875,32.625 L46.21875,36.25 C46.21875,36.7484375 45.8109375,37.15625 45.3125,37.15625 Z" id="Fill-1346" fill="#DF5142"></path>
                    <path d="M52.5625,37.15625 L48.9375,37.15625 C48.4390625,37.15625 48.03125,36.7484375 48.03125,36.25 L48.03125,32.625 C48.03125,32.1265625 48.4390625,31.71875 48.9375,31.71875 L52.5625,31.71875 C53.0609375,31.71875 53.46875,32.1265625 53.46875,32.625 L53.46875,36.25 C53.46875,36.7484375 53.0609375,37.15625 52.5625,37.15625 Z" id="Fill-1347" fill="#DF5142"></path>
                    <path d="M9.0625,44.40625 L5.4375,44.40625 C4.9390625,44.40625 4.53125,43.9984375 4.53125,43.5 L4.53125,39.875 C4.53125,39.3765625 4.9390625,38.96875 5.4375,38.96875 L9.0625,38.96875 C9.5609375,38.96875 9.96875,39.3765625 9.96875,39.875 L9.96875,43.5 C9.96875,43.9984375 9.5609375,44.40625 9.0625,44.40625 Z" id="Fill-1348" fill="#C5CCCD"></path>
                    <path d="M16.3125,44.40625 L12.6875,44.40625 C12.1890625,44.40625 11.78125,43.9984375 11.78125,43.5 L11.78125,39.875 C11.78125,39.3765625 12.1890625,38.96875 12.6875,38.96875 L16.3125,38.96875 C16.8109375,38.96875 17.21875,39.3765625 17.21875,39.875 L17.21875,43.5 C17.21875,43.9984375 16.8109375,44.40625 16.3125,44.40625 Z" id="Fill-1349" fill="#C5CCCD"></path>
                    <path d="M23.5625,44.40625 L19.9375,44.40625 C19.4390625,44.40625 19.03125,43.9984375 19.03125,43.5 L19.03125,39.875 C19.03125,39.3765625 19.4390625,38.96875 19.9375,38.96875 L23.5625,38.96875 C24.0609375,38.96875 24.46875,39.3765625 24.46875,39.875 L24.46875,43.5 C24.46875,43.9984375 24.0609375,44.40625 23.5625,44.40625 Z" id="Fill-1350" fill="#C5CCCD"></path>
                    <path d="M30.8125,44.40625 L27.1875,44.40625 C26.6890625,44.40625 26.28125,43.9984375 26.28125,43.5 L26.28125,39.875 C26.28125,39.3765625 26.6890625,38.96875 27.1875,38.96875 L30.8125,38.96875 C31.3109375,38.96875 31.71875,39.3765625 31.71875,39.875 L31.71875,43.5 C31.71875,43.9984375 31.3109375,44.40625 30.8125,44.40625 Z" id="Fill-1351" fill="#C5CCCD"></path>
                    <path d="M38.0625,44.40625 L34.4375,44.40625 C33.9390625,44.40625 33.53125,43.9984375 33.53125,43.5 L33.53125,39.875 C33.53125,39.3765625 33.9390625,38.96875 34.4375,38.96875 L38.0625,38.96875 C38.5609375,38.96875 38.96875,39.3765625 38.96875,39.875 L38.96875,43.5 C38.96875,43.9984375 38.5609375,44.40625 38.0625,44.40625 Z" id="Fill-1352" fill="#C5CCCD"></path>
                    <path d="M45.3125,44.40625 L41.6875,44.40625 C41.1890625,44.40625 40.78125,43.9984375 40.78125,43.5 L40.78125,39.875 C40.78125,39.3765625 41.1890625,38.96875 41.6875,38.96875 L45.3125,38.96875 C45.8109375,38.96875 46.21875,39.3765625 46.21875,39.875 L46.21875,43.5 C46.21875,43.9984375 45.8109375,44.40625 45.3125,44.40625 Z" id="Fill-1353" fill="#DF5142"></path>
                    <path d="M52.5625,44.40625 L48.9375,44.40625 C48.4390625,44.40625 48.03125,43.9984375 48.03125,43.5 L48.03125,39.875 C48.03125,39.3765625 48.4390625,38.96875 48.9375,38.96875 L52.5625,38.96875 C53.0609375,38.96875 53.46875,39.3765625 53.46875,39.875 L53.46875,43.5 C53.46875,43.9984375 53.0609375,44.40625 52.5625,44.40625 Z" id="Fill-1354" fill="#DF5142"></path>
                </g>
                <g id="Group" transform="translate(61.500000, 62.000000)">
                    <circle id="Oval" fill="#7EC662" cx="9.5" cy="9.5" r="9.5"></circle>
                    <path d="M15.3006003,15.2401411 C14.9268791,15.2401411 14.6127141,14.9259761 14.6127141,14.5522549 L14.6127141,13.4906474 C13.4022012,15.0462247 11.5184519,15.9875538 9.50035728,15.9875538 C6.24135874,15.9875538 3.47582201,13.5507418 3.07235243,10.3069911 L3.02738928,9.97823602 L4.40256363,9.97823602 L4.43234473,10.2322469 C4.80664896,12.7291531 6.97424699,14.6124091 9.50030346,14.6124091 C11.2941653,14.6124091 12.9682869,13.6407339 13.894966,12.1161008 L12.1758484,12.1161008 C11.8021272,12.1161008 11.4879622,11.8019358 11.4879622,11.4282146 C11.4879622,11.0544933 11.8021272,10.7403283 12.1758484,10.7403283 L15.3151067,10.7403283 C15.6438618,10.7403283 15.9878049,10.949373 15.9878049,11.4282146 L15.9878049,14.552225 C15.9878049,14.9265292 15.6742229,15.2401112 15.3005017,15.2401112 L15.3006003,15.2401411 Z M14.598124,9.02176383 L14.5683429,8.76770814 C14.1940387,6.27080192 12.0264407,4.38754595 9.50038419,4.38754595 C7.70652233,4.38754595 6.03240074,5.35922112 5.10572161,6.88385421 L6.8095914,6.88385421 C7.18331262,6.88385421 7.49747762,7.19801922 7.49747762,7.57174044 C7.49747762,7.94546166 7.18331262,8.25962667 6.8095914,8.25962667 L3.70008135,8.25904366 C3.4162924,8.24386161 3.01219512,8.06458904 3.01219512,7.57115743 L3.01277902,4.44714701 C3.01277902,4.07342578 3.32694403,3.75926078 3.70066585,3.75926078 C4.07438707,3.75926078 4.38855208,4.07342578 4.38855208,4.44714701 L4.38855208,5.50875445 C5.598482,3.9537752 7.48221634,3.01244619 9.50031094,3.01244619 C12.7593095,3.01244619 15.524845,5.44925804 15.9283159,8.69300874 L15.9732791,9.02176383 L14.598124,9.02176383 Z" id="Fill-1" fill="#FFFFFF"></path>
                </g>
            </g>
        </g>
    </g>
</svg>