<svg width="103" height="103" viewBox="0 0 103 103" fill="none" xmlns="https://www.w3.org/2000/svg">
<path d="M51.5366 98.1244C25.6866 98.1244 4.72656 77.1744 4.72656 51.3144C4.72656 25.4544 25.6866 4.50439 51.5366 4.50439C77.3866 4.50439 98.3466 25.4644 98.3466 51.3144C98.3466 77.1644 77.3866 98.1244 51.5366 98.1244Z" fill="url(#paint0_linear)"/>
<path fill-rule="evenodd" clip-rule="evenodd" d="M97.4366 51.3143C97.4366 76.6643 76.8866 97.2143 51.5366 97.2143C26.1866 97.2143 5.63661 76.6643 5.63661 51.3143C5.63661 25.9643 26.1866 5.41432 51.5366 5.41432C76.8866 5.41432 97.4366 25.9643 97.4366 51.3143ZM51.5366 1.67432C78.9566 1.67432 101.177 23.8943 101.177 51.3143C101.177 78.7343 78.9466 100.954 51.5366 100.954C24.1166 100.954 1.89661 78.7243 1.89661 51.3143C1.89661 23.8943 24.1166 1.67432 51.5366 1.67432Z" fill="#F2F1F0"/>
<path fill-rule="evenodd" clip-rule="evenodd" d="M94.6267 51.3144C94.6267 75.1144 75.3367 94.4044 51.5367 94.4044C27.7367 94.4044 8.44666 75.1144 8.44666 51.3144C8.44666 27.5144 27.7367 8.22437 51.5367 8.22437C75.3367 8.22437 94.6267 27.5144 94.6267 51.3144ZM51.5367 4.48438C77.3967 4.48438 98.3667 25.4544 98.3667 51.3144C98.3667 77.1744 77.3967 98.1444 51.5367 98.1444C25.6767 98.1444 4.70667 77.1744 4.70667 51.3144C4.70667 25.4544 25.6667 4.48438 51.5367 4.48438Z" fill="url(#paint1_linear)"/>
<path opacity="0.15" d="M74.8066 22.0644L29.5966 21.6944C28.6166 21.6844 27.8166 22.4644 27.8166 23.4444L27.3266 82.4444C27.3166 83.4244 28.0966 84.2244 29.0766 84.2244L74.2866 84.5944C75.2666 84.6044 76.0666 83.8244 76.0666 82.8444L76.5566 23.8444C76.5466 22.8744 75.7666 22.0744 74.8066 22.0644Z" fill="#1F1D20"/>
<path d="M74.8166 20.1943L29.6066 19.8243C28.6266 19.8143 27.8266 20.5943 27.8266 21.5743L27.3266 80.5643C27.3166 81.5443 28.0966 82.3443 29.0766 82.3443L74.2866 82.7143C75.2666 82.7243 76.0666 81.9443 76.0666 80.9643L76.5566 21.9643C76.5566 21.0043 75.7866 20.2043 74.8166 20.1943Z" fill="#F2F2F2"/>
<path fill-rule="evenodd" clip-rule="evenodd" d="M54.5766 13.3443C55.8566 14.0343 56.5966 15.4043 56.5866 16.8543V17.2043C56.5866 17.3343 56.5766 17.4543 56.5666 17.5843L59.3466 17.6043C60.1766 17.6143 60.9466 18.0243 61.3566 18.7543C62.5166 20.8043 61.0466 22.8943 59.1166 22.8743L45.0966 22.7743C44.2666 22.7643 43.4966 22.3543 43.0866 21.6243C41.9266 19.5743 43.3966 17.4843 45.3266 17.5043L47.9066 17.5243C47.8966 17.4043 47.8966 17.2743 47.8966 17.1443V17.0343C47.9366 13.8943 51.2666 11.5743 54.5766 13.3443Z" fill="url(#paint2_linear)"/>
<path d="M52.2166 19.0945C53.2066 19.1045 54.0166 18.3145 54.0266 17.3145C54.0366 16.3245 53.2466 15.5145 52.2466 15.5045C51.2566 15.4945 50.4466 16.2845 50.4366 17.2845C50.4466 18.2745 51.2266 19.0845 52.2166 19.0945Z" fill="#F2F2F2"/>
<path d="M39.9166 41.9846L51.8366 49.6446L63.9666 41.9546L65.4866 43.7146L51.8366 52.4246L38.3966 43.7146L39.9166 41.9846Z" fill="#9CEBFF"/>
<path d="M40.8267 40.9946L51.8467 27.9946L63.0867 41.0146L51.8367 48.0546L40.8267 40.9946Z" fill="white"/>
<path d="M51.8467 27.9946V48.0446L40.8267 40.9946L51.8467 27.9946Z" fill="#9CEBFF"/>
<path d="M51.8365 27.9946V48.0446L63.0865 41.0046L51.8365 27.9946Z" fill="url(#paint3_linear)"/>
<path d="M51.8365 38.3647L63.0865 41.0147L51.8365 48.0547V38.3647Z" fill="#53B1E0"/>
<path d="M51.8467 48.0547L40.8267 41.0047L51.8467 38.3647V48.0547Z" fill="#C3F1FF"/>
<path d="M51.8365 52.4246L65.4865 43.7146L63.9665 41.9546L51.8365 49.6446V52.4246Z" fill="url(#paint4_linear)"/>
<path d="M47.4767 57.7043L46.9067 57.1343L44.0267 60.0043L43.1667 59.1443L42.5867 59.7143L44.0267 61.1543L47.4767 57.7043Z" fill="url(#paint5_linear)"/>
<path d="M47.4767 62.4142L46.9067 61.8442L44.0267 64.7142L43.1667 63.8542L42.5867 64.4242L44.0267 65.8642L47.4767 62.4142Z" fill="url(#paint6_linear)"/>
<path d="M47.4767 67.1242L46.9067 66.5542L44.0267 69.4242L43.1667 68.5642L42.5867 69.1342L44.0267 70.5742L47.4767 67.1242Z" fill="#45CAF2"/>
<path d="M61.3066 58.5245C61.3066 58.1645 61.0066 57.8545 60.6366 57.8545H50.3266C49.9666 57.8545 49.6566 58.1545 49.6566 58.5245C49.6566 58.8945 49.9566 59.1945 50.3266 59.1945H60.6366C61.0066 59.1845 61.3066 58.8845 61.3066 58.5245Z" fill="url(#paint7_linear)"/>
<path d="M61.3066 63.7345C61.3066 63.3645 61.0066 63.0645 60.6366 63.0645H50.3266C49.9666 63.0645 49.6566 63.3645 49.6566 63.7345C49.6566 64.1045 49.9566 64.4044 50.3266 64.4044H60.6366C61.0066 64.3944 61.3066 64.1045 61.3066 63.7345Z" fill="url(#paint8_linear)"/>
<path d="M61.3066 68.9544C61.3066 68.5844 61.0066 68.2844 60.6366 68.2844H50.3266C49.9666 68.2744 49.6566 68.5744 49.6566 68.9544C49.6566 69.3244 49.9566 69.6244 50.3266 69.6244H60.6366C61.0066 69.6144 61.3066 69.3244 61.3066 68.9544Z" fill="#45CAF2"/>
<path d="M65.0566 70.6644C65.0566 70.6644 78.3266 59.6744 79.9366 61.0644C81.7466 62.6144 70.6866 76.6044 70.6866 76.6044L63.6666 78.4244C63.3266 78.5144 63.0166 78.2044 63.1066 77.8544L65.0566 70.6644Z" fill="#FFBB00"/>
<path d="M75.1266 61.0246L82.0366 54.0346C83.5466 52.5346 85.9566 52.4546 87.5566 53.8346C89.3666 55.3846 89.4666 58.1546 87.7766 59.8346L86.3866 61.2246L75.1266 61.0246Z" fill="#092E4C"/>
<path d="M65.0765 70.6446L80.6265 55.4546L86.6365 61.0146L70.7065 76.6146L65.0765 70.6446Z" fill="url(#paint9_linear)"/>
<path d="M65.0966 78.0545L63.6766 78.4145C63.3366 78.5045 63.0266 78.1945 63.1166 77.8445L63.5166 76.3745L65.0966 78.0545Z" fill="#00A4F3"/>
<defs>
<linearGradient id="paint0_linear" x1="49.7667" y1="-13.4756" x2="53.7487" y2="132.295" gradientUnits="userSpaceOnUse">
<stop stop-color="#00ABDE"/>
<stop offset="1" stop-color="#007ED8"/>
</linearGradient>
<linearGradient id="paint1_linear" x1="2.96986" y1="-20.3106" x2="98.4979" y2="120.571" gradientUnits="userSpaceOnUse">
<stop stop-color="#007ED8"/>
<stop offset="0.7065" stop-color="#002D4C"/>
</linearGradient>
<linearGradient id="paint2_linear" x1="33.7953" y1="8.8442" x2="122.346" y2="60.7265" gradientUnits="userSpaceOnUse">
<stop stop-color="#007ED8"/>
<stop offset="0.7065" stop-color="#002D4C"/>
</linearGradient>
<linearGradient id="paint3_linear" x1="58.3388" y1="46.2043" x2="51.4734" y2="33.0734" gradientUnits="userSpaceOnUse">
<stop stop-color="#1988D9"/>
<stop offset="0.9" stop-color="#54AEF0"/>
</linearGradient>
<linearGradient id="paint4_linear" x1="55.399" y1="42.3742" x2="60.1471" y2="50.6447" gradientUnits="userSpaceOnUse">
<stop offset="0.1" stop-color="#54AEF0"/>
<stop offset="0.29" stop-color="#4FABEE"/>
<stop offset="0.51" stop-color="#41A2E9"/>
<stop offset="0.74" stop-color="#2A93E0"/>
<stop offset="0.88" stop-color="#1988D9"/>
</linearGradient>
<linearGradient id="paint5_linear" x1="38.1469" y1="57.1328" x2="69.5981" y2="65.7636" gradientUnits="userSpaceOnUse">
<stop offset="0.1" stop-color="#54AEF0"/>
<stop offset="0.29" stop-color="#4FABEE"/>
<stop offset="0.51" stop-color="#41A2E9"/>
<stop offset="0.74" stop-color="#2A93E0"/>
<stop offset="0.88" stop-color="#1988D9"/>
</linearGradient>
<linearGradient id="paint6_linear" x1="72.602" y1="71.2898" x2="45.3931" y2="63.8294" gradientUnits="userSpaceOnUse">
<stop stop-color="#1988D9"/>
<stop offset="0.9" stop-color="#54AEF0"/>
</linearGradient>
<linearGradient id="paint7_linear" x1="39.0068" y1="53.9993" x2="70.4579" y2="62.6301" gradientUnits="userSpaceOnUse">
<stop offset="0.1" stop-color="#54AEF0"/>
<stop offset="0.29" stop-color="#4FABEE"/>
<stop offset="0.51" stop-color="#41A2E9"/>
<stop offset="0.74" stop-color="#2A93E0"/>
<stop offset="0.88" stop-color="#1988D9"/>
</linearGradient>
<linearGradient id="paint8_linear" x1="73.3311" y1="68.6308" x2="46.1221" y2="61.1703" gradientUnits="userSpaceOnUse">
<stop stop-color="#1988D9"/>
<stop offset="0.9" stop-color="#54AEF0"/>
</linearGradient>
<linearGradient id="paint9_linear" x1="69.8129" y1="65.4181" x2="119.921" y2="70.673" gradientUnits="userSpaceOnUse">
<stop stop-color="#007ED8"/>
<stop offset="0.7065" stop-color="#002D4C"/>
</linearGradient>
</defs>
</svg>
