<svg width="103" height="103" viewBox="0 0 103 103" fill="none" xmlns="http://www.w3.org/2000/svg">
<path d="M51.4482 97.955C25.5982 97.955 4.63818 77.005 4.63818 51.145C4.63818 25.285 25.5982 4.33496 51.4482 4.33496C77.2982 4.33496 98.2582 25.295 98.2582 51.145C98.2582 76.995 77.2982 97.955 51.4482 97.955Z" fill="url(#paint0_linear)"/>
<path fill-rule="evenodd" clip-rule="evenodd" d="M97.3482 51.1449C97.3482 76.4949 76.7982 97.0449 51.4482 97.0449C26.0982 97.0449 5.54823 76.4949 5.54823 51.1449C5.54823 25.7949 26.0982 5.24488 51.4482 5.24488C76.7982 5.24488 97.3482 25.7949 97.3482 51.1449ZM51.4482 1.50488C78.8682 1.50488 101.088 23.7249 101.088 51.1449C101.088 78.5649 78.8582 100.785 51.4482 100.785C24.0282 100.785 1.80823 78.5549 1.80823 51.1449C1.80823 23.7249 24.0282 1.50488 51.4482 1.50488Z" fill="#F2F1F0"/>
<path fill-rule="evenodd" clip-rule="evenodd" d="M94.5383 51.1449C94.5383 74.9449 75.2483 94.2349 51.4483 94.2349C27.6483 94.2349 8.35829 74.9449 8.35829 51.1449C8.35829 27.3449 27.6483 8.05494 51.4483 8.05494C75.2483 8.05494 94.5383 27.3449 94.5383 51.1449ZM51.4483 4.31494C77.3083 4.31494 98.2783 25.2849 98.2783 51.1449C98.2783 77.0049 77.3083 97.9749 51.4483 97.9749C25.5883 97.9749 4.61829 77.0049 4.61829 51.1449C4.61829 25.2849 25.5783 4.31494 51.4483 4.31494Z" fill="url(#paint1_linear)"/>
<path d="M61.1382 65.6948H55.9582V39.1948H61.1482C61.4282 39.1948 61.6482 38.9748 61.6482 38.6948C61.6482 38.4148 61.4282 38.1948 61.1482 38.1948H55.4582C55.1782 38.1948 54.9582 38.4148 54.9582 38.6948V51.0648H46.3082V52.0648H54.9582V66.1848C54.9582 66.4648 55.1782 66.6848 55.4582 66.6848H61.1382C61.4182 66.6848 61.6382 66.4648 61.6382 66.1848C61.6382 65.9048 61.4182 65.6948 61.1382 65.6948Z" fill="white"/>
<path opacity="0.15" d="M85.2882 71.0448H64.9682C64.7882 71.0448 64.6382 70.8948 64.6382 70.7148V69.1348H85.6182V70.7148C85.6182 70.8948 85.4682 71.0448 85.2882 71.0448Z" fill="#1F1D20"/>
<g opacity="0.25">
<path opacity="0.25" d="M87.1282 41.725C87.1382 41.665 87.1482 41.615 87.1682 41.565C87.2382 41.235 87.2682 40.885 87.2682 40.535C87.2682 37.495 84.8082 35.045 81.7782 35.045C81.3582 35.045 80.9382 35.095 80.5482 35.185C79.2982 33.215 77.0882 31.895 74.5782 31.895C70.6782 31.895 67.5182 35.065 67.5182 38.955C67.5182 39.055 67.5182 39.145 67.5182 39.245C67.1682 39.115 66.7882 39.055 66.3882 39.055C64.4682 39.055 62.9082 40.615 62.9082 42.535C62.9082 44.345 64.2782 45.825 66.0382 45.995L81.7682 46.025C83.8382 46.025 85.6282 44.885 86.5682 43.205C86.5982 43.155 86.6182 43.115 86.6482 43.055C86.7882 42.755 86.9982 42.305 87.1282 41.725Z" fill="#1F1D21"/>
</g>
<path d="M87.1282 41.1249C87.1382 41.0649 87.1482 41.0149 87.1682 40.9649C87.2382 40.6349 87.2682 40.2849 87.2682 39.9349C87.2682 36.8949 84.8082 34.4449 81.7782 34.4449C81.3582 34.4449 80.9382 34.4949 80.5482 34.5849C79.2982 32.6149 77.0882 31.2949 74.5782 31.2949C70.6782 31.2949 67.5182 34.4649 67.5182 38.3549C67.5182 38.4549 67.5182 38.5449 67.5182 38.6449C67.1582 38.5249 66.7782 38.4549 66.3882 38.4549C64.4682 38.4549 62.9082 40.0149 62.9082 41.9349C62.9082 43.7449 64.2782 45.2249 66.0382 45.3949L81.7682 45.4249C83.8382 45.4249 85.6282 44.2849 86.5682 42.6049C86.5982 42.5549 86.6182 42.5149 86.6482 42.4549C86.7882 42.1649 86.9982 41.7149 87.1282 41.1249Z" fill="white"/>
<path d="M84.9682 58.4648H80.9082V70.6448H84.9682V58.4648Z" fill="#185A97"/>
<path d="M80.9083 51.6948H68.7283V70.6448H80.9083V51.6948V51.6948Z" fill="#243A5E"/>
<path d="M73.4482 59.145H65.3282V69.975H73.4482V59.145Z" fill="#50E6FF"/>
<path d="M72.7782 59.8148V69.2848H66.0082V59.8148H72.7782ZM74.1282 58.4648H64.6582V70.6448H74.1282V58.4648Z" fill="white"/>
<path d="M71.4183 61.1748H67.3583V62.5248H71.4183V61.1748Z" fill="#32B0E7"/>
<path d="M71.4183 63.875H67.3583V65.225H71.4183V63.875Z" fill="#32B0E7"/>
<path d="M71.4183 66.585H67.3583V67.935H71.4183V66.585Z" fill="#32B0E7"/>
<path d="M74.1282 54.4048H71.4182V57.1148H74.1282V54.4048Z" fill="white"/>
<path d="M78.1983 54.4048H75.4883V57.1148H78.1983V54.4048Z" fill="white"/>
<path d="M78.1983 58.4648H75.4883V61.1748H78.1983V58.4648Z" fill="white"/>
<path d="M78.1983 62.5249H75.4883V65.2349H78.1983V62.5249Z" fill="white"/>
<path d="M78.1983 66.585H75.4883V69.295H78.1983V66.585Z" fill="white"/>
<path d="M84.9583 67.9349C85.7083 67.9349 86.3083 67.3249 86.3083 66.5849C86.3083 65.8349 85.6983 65.2349 84.9583 65.2349C84.2183 65.2349 83.6083 65.8449 83.6083 66.5849C83.5983 67.3349 84.2083 67.9349 84.9583 67.9349Z" fill="#0078D4"/>
<path d="M86.9882 66.5847C86.9882 65.4647 86.0782 64.5547 84.9582 64.5547C83.8382 64.5547 82.9282 65.4647 82.9282 66.5847C82.9282 67.4647 83.4882 68.2147 84.2782 68.4947V70.6447H85.6282V68.4947C86.4182 68.2147 86.9882 67.4647 86.9882 66.5847ZM84.9582 67.2647C84.5882 67.2647 84.2782 66.9647 84.2782 66.5847C84.2782 66.2147 84.5782 65.9047 84.9582 65.9047C85.3382 65.9047 85.6382 66.2047 85.6382 66.5847C85.6282 66.9547 85.3282 67.2647 84.9582 67.2647Z" fill="white"/>
<path opacity="0.15" d="M49.4582 32.0751L19.9682 31.8351C19.3282 31.8251 18.8082 32.3351 18.8082 32.9751L18.4882 71.4651C18.4782 72.1051 18.9882 72.6251 19.6282 72.6251L49.1182 72.8651C49.7582 72.8751 50.2782 72.3651 50.2782 71.7251L50.5982 33.2351C50.5982 32.5951 50.0782 32.0751 49.4582 32.0751Z" fill="#1F1D20"/>
<path d="M49.4682 30.8549L19.9782 30.6149C19.3382 30.6049 18.8182 31.1149 18.8182 31.7549L18.4982 70.2349C18.4882 70.8749 18.9982 71.3949 19.6382 71.3949L49.1282 71.6349C49.7682 71.6449 50.2882 71.1349 50.2882 70.4949L50.6082 32.0049C50.5982 31.3749 50.0982 30.8549 49.4682 30.8549Z" fill="#F2F2F2"/>
<path d="M40.6882 29.9051C40.4182 29.4351 39.9182 29.1651 39.3782 29.1551L37.5582 29.1451C37.5682 29.0551 37.5682 28.9851 37.5682 28.8951V28.6651C37.5782 27.7251 37.0882 26.8251 36.2582 26.3751C34.1082 25.2151 31.9282 26.7351 31.8982 28.7751V28.8451C31.8982 28.9351 31.8982 29.0151 31.9082 29.0951L30.2282 29.0851C28.9682 29.0751 28.0082 30.4351 28.7682 31.7751C29.0382 32.2451 29.5382 32.5151 30.0782 32.5251L39.2182 32.5951C40.4782 32.6051 41.4382 31.2451 40.6882 29.9051ZM34.7282 30.1351C34.0782 30.1251 33.5682 29.6051 33.5682 28.9551C33.5782 28.3051 34.0982 27.7951 34.7482 27.7951C35.3982 27.8051 35.9082 28.3251 35.9082 28.9751C35.8982 29.6151 35.3682 30.1351 34.7282 30.1351Z" fill="url(#paint2_linear)"/>
<path d="M29.5181 42.2153L28.7481 41.4453L24.8981 45.2853L23.7481 44.1253L22.9781 44.8953L24.8981 46.8153L29.5181 42.2153Z" fill="#50E6FF"/>
<path d="M29.5181 48.5151L28.7481 47.7451L24.8981 51.5851L23.7481 50.4251L22.9781 51.1951L24.8981 53.1151L29.5181 48.5151Z" fill="#32B0E7"/>
<path d="M29.5181 54.8154L28.7481 54.0454L24.8981 57.8854L23.7481 56.7254L22.9781 57.4954L24.8981 59.4154L29.5181 54.8154Z" fill="#185A97"/>
<path d="M46.5481 43.3055C46.5481 42.8155 46.1481 42.4155 45.6581 42.4155H31.8581C31.3681 42.4155 30.9681 42.8155 30.9681 43.3055C30.9681 43.7955 31.3681 44.1955 31.8581 44.1955H45.6581C46.1581 44.1955 46.5481 43.7955 46.5481 43.3055Z" fill="#50E6FF"/>
<path d="M46.5481 50.2855C46.5481 49.7955 46.1481 49.3955 45.6581 49.3955H31.8581C31.3681 49.3955 30.9681 49.7955 30.9681 50.2855C30.9681 50.7755 31.3681 51.1855 31.8581 51.1855H45.6581C46.1581 51.1655 46.5481 50.7755 46.5481 50.2855Z" fill="#32B0E7"/>
<path d="M46.5481 57.2652C46.5481 56.7752 46.1481 56.3752 45.6581 56.3752H31.8581C31.3681 56.3652 30.9681 56.7652 30.9681 57.2652C30.9681 57.7552 31.3681 58.1552 31.8581 58.1552H45.6581C46.1581 58.1552 46.5481 57.7652 46.5481 57.2652Z" fill="#185A97"/>
<defs>
<linearGradient id="paint0_linear" x1="49.6783" y1="-13.645" x2="53.6603" y2="132.125" gradientUnits="userSpaceOnUse">
<stop stop-color="#00ABDE"/>
<stop offset="1" stop-color="#007ED8"/>
</linearGradient>
<linearGradient id="paint1_linear" x1="2.88149" y1="-20.4801" x2="98.4095" y2="120.402" gradientUnits="userSpaceOnUse">
<stop stop-color="#007ED8"/>
<stop offset="0.7065" stop-color="#002D4C"/>
</linearGradient>
<linearGradient id="paint2_linear" x1="23.4008" y1="18.9093" x2="51.3693" y2="48.3896" gradientUnits="userSpaceOnUse">
<stop stop-color="#007ED8"/>
<stop offset="0.7065" stop-color="#002D4C"/>
</linearGradient>
</defs>
</svg>
