<svg width="181" height="191" viewBox="0 0 181 191" fill="none" xmlns="http://www.w3.org/2000/svg">
<path d="M90.9324 189.798C93.9924 189.798 97.0024 188.948 99.6624 187.328L161.632 149.668C167.172 146.298 170.602 139.968 170.602 133.128V58.4184C170.602 51.5984 167.172 45.2584 161.632 41.8784L99.6624 4.2184C94.3324 0.978404 87.5124 0.998404 82.2124 4.2184L20.2424 41.8984C14.7024 45.2684 11.2524 51.5984 11.2524 58.4384V133.138C11.2524 138.898 13.7024 144.318 17.8024 147.888V147.918L82.2124 187.348C84.8524 188.948 87.8724 189.798 90.9324 189.798ZM91.5824 8.7484C93.5324 8.7484 96.0124 9.9584 97.7224 11.0084L158.482 48.1984C162.232 50.4784 164.352 57.0784 164.352 61.8284L163.722 133.128C163.722 137.878 160.522 142.148 156.772 144.428L96.3724 180.808C92.9424 182.898 90.1524 182.898 86.7124 180.808L25.5024 144.338C21.7524 142.058 18.7324 137.858 18.7324 133.128V59.4884C18.7324 54.7484 21.4624 49.8584 25.2324 47.5684L85.8124 11.0084C87.5124 9.9684 89.6324 8.7484 91.5824 8.7484Z" fill="#F2F1F0"/>
<path fill-rule="evenodd" clip-rule="evenodd" d="M98.8325 12.3291C96.3825 10.8291 93.6625 10.0791 90.9325 10.0791C88.2025 10.0791 85.4825 10.8391 83.0325 12.3291L26.9025 46.6591C21.8825 49.7291 18.7725 55.4791 18.7725 61.7291V129.829C18.7725 136.059 21.8725 141.829 26.9025 144.899L83.0325 179.229C85.4825 180.729 88.2025 181.479 90.9325 181.479C93.6625 181.479 96.3825 180.739 98.8325 179.229L154.962 144.899C159.982 141.829 163.092 136.059 163.092 129.829V61.7291C163.092 55.4991 159.992 49.7491 154.962 46.6591L98.8325 12.3291Z" fill="url(#paint0_linear_148_116487)"/>
<path fill-rule="evenodd" clip-rule="evenodd" d="M90.9325 11.5488C92.6125 11.5488 94.5025 12.4188 96.5625 13.6688L155.032 49.2088C158.682 51.4288 161.092 55.6988 161.092 60.5288V131.009C161.092 135.829 158.682 140.109 155.032 142.329L96.5725 177.869C94.6125 179.059 92.6925 179.809 90.9425 179.809C89.1925 179.809 87.2725 179.059 85.3125 177.869L26.8325 142.339C24.8225 141.109 23.3725 139.909 22.3925 138.299C21.4125 136.699 20.7725 134.479 20.7725 131.019V60.5388C20.7725 55.7088 23.1825 51.4388 26.8325 49.2188L85.2925 13.6788C87.3825 12.4288 89.2425 11.5488 90.9325 11.5488ZM98.6425 181.299L157.102 145.759C162.022 142.769 165.082 137.149 165.082 131.019V60.5388C165.082 54.4088 162.022 48.7888 157.102 45.7988L98.6425 10.2588C96.5325 8.97883 93.8225 7.54883 90.9325 7.54883C88.0325 7.54883 85.3225 8.98883 83.2325 10.2488H83.2225L24.7525 45.7988C19.8325 48.7888 16.7725 54.4088 16.7725 60.5388V131.019C16.7725 134.979 17.5125 137.969 18.9725 140.379C20.4325 142.779 22.4925 144.379 24.7525 145.749L83.2125 181.289C85.4325 182.639 88.1025 183.819 90.9225 183.819C93.7425 183.819 96.4225 182.649 98.6425 181.299Z" fill="url(#paint1_linear_148_116487)"/>
<path opacity="0.15" d="M131.718 43.9984L53.1556 43.3527C51.4516 43.3348 50.0705 44.698 50.0705 46.4019L49.2275 148.928C49.2095 150.632 50.5727 152.013 52.2767 152.013L130.839 152.659C132.543 152.677 133.924 151.313 133.924 149.609L134.767 47.0835C134.749 45.3975 133.386 44.0164 131.718 43.9984Z" fill="#1F1D20"/>
<path d="M131.736 40.7514L53.1735 40.1056C51.4696 40.0877 50.0884 41.4509 50.0884 43.1549L49.2275 145.663C49.2095 147.367 50.5727 148.748 52.2767 148.748L130.839 149.394C132.543 149.412 133.924 148.048 133.924 146.344L134.767 43.8185C134.767 42.1504 133.422 40.7693 131.736 40.7514Z" fill="#F2F2F2"/>
<path opacity="0.15" d="M126.265 44.2676H57.7295V139.709H126.265V44.2676Z" fill="#1F1D20"/>
<path d="M126.265 43.1729H57.7295V138.614H126.265V43.1729Z" fill="white"/>
<path fill-rule="evenodd" clip-rule="evenodd" d="M96.0959 28.8411C98.3201 30.0429 99.6115 32.4285 99.5936 34.9396V35.5494C99.5936 35.7826 99.5756 35.9799 99.5577 36.2131L104.383 36.249C105.818 36.2669 107.163 36.9844 107.88 38.2399C109.889 41.8093 107.342 45.4325 103.988 45.3967L79.6301 45.2173C78.1951 45.1994 76.8499 44.4819 76.1324 43.2263C74.1235 39.6569 76.6705 36.0337 80.0247 36.0696L84.5088 36.1055C84.4909 35.8902 84.4909 35.675 84.4909 35.4418V35.2445C84.5626 29.7918 90.3562 25.756 96.0959 28.8411Z" fill="#243A5E"/>
<path d="M91.9708 38.8316C93.6928 38.8496 95.0918 37.4684 95.1098 35.7465C95.1277 34.0246 93.7466 32.6255 92.0247 32.6076C90.3027 32.5897 88.9037 33.9708 88.8857 35.6927C88.8857 37.4146 90.2489 38.8137 91.9708 38.8316Z" fill="#F2F2F2"/>
<path d="M83.126 76.2412H71.0503C69.9094 76.2412 68.9846 77.1651 68.9846 78.3049V89.2933C68.9846 93.4821 72.3836 96.8777 76.5766 96.8777H76.6125C80.8054 96.8783 84.205 93.4831 84.2056 89.2943C84.2056 89.294 84.2056 89.2936 84.2056 89.2932V77.3198C84.2055 76.7241 83.7222 76.2412 83.126 76.2412Z" fill="#5059C9"/>
<path d="M74.964 74.0691C72.262 74.0691 70.0715 71.8809 70.0715 69.1815C70.0715 66.4822 72.262 64.2939 74.964 64.2939C77.666 64.2939 79.8564 66.4822 79.8564 69.1815C79.8564 71.8809 77.666 74.0691 74.964 74.0691Z" fill="#5059C9"/>
<path d="M90.1851 74.069C86.2821 74.069 83.1182 70.9081 83.1182 67.0091C83.1182 63.11 86.2821 59.9492 90.1851 59.9492C94.088 59.9492 97.252 63.11 97.252 67.0091C97.252 70.9081 94.088 74.069 90.1851 74.069Z" fill="#7B83EB"/>
<path d="M80.7622 76.2412H100.695C101.822 76.2691 102.714 77.2037 102.688 78.3299V90.8627C102.845 97.6209 97.4934 103.229 90.7287 103.395C83.964 103.229 78.6119 97.6209 78.7693 90.8627V78.3299C78.7432 77.2037 79.6349 76.2691 80.7622 76.2412Z" fill="#7B83EB"/>
<path opacity="0.1" d="M89.6418 76.2412V93.804C89.6472 94.6094 90.1358 95.3329 90.8813 95.6395C91.1186 95.7398 91.3737 95.7915 91.6314 95.7916H101.732C101.873 95.4332 102.003 95.0748 102.112 94.7055C102.493 93.4592 102.687 92.1636 102.688 90.8606V78.3266C102.715 77.2022 101.824 76.2691 100.699 76.2412H89.6418Z" fill="black"/>
<path opacity="0.2" d="M90.729 76.2412V94.8901C90.7291 95.1476 90.7808 95.4024 90.8813 95.6395C91.1882 96.3843 91.9125 96.8723 92.7186 96.8777H101.221C101.405 96.5193 101.579 96.1609 101.732 95.7916C101.884 95.4223 102.003 95.0748 102.112 94.7055C102.493 93.4592 102.687 92.1636 102.688 90.8606V78.3266C102.715 77.2022 101.824 76.2691 100.699 76.2412H90.729Z" fill="black"/>
<path opacity="0.2" d="M90.7291 76.2412V92.7179C90.7373 93.8122 91.6233 94.6972 92.7187 94.7055H102.112C102.493 93.4592 102.687 92.1636 102.688 90.8606V78.3266C102.715 77.2022 101.824 76.2691 100.699 76.2412H90.7291Z" fill="black"/>
<path opacity="0.2" d="M91.8163 76.2412V92.7179C91.8246 93.8122 92.7105 94.6972 93.8059 94.7055H102.112C102.493 93.4592 102.687 92.1636 102.688 90.8606V78.3266C102.715 77.2022 101.824 76.2691 100.699 76.2412H91.8163Z" fill="black"/>
<path opacity="0.1" d="M89.6416 70.6253V74.0466C89.8264 74.0575 90.0004 74.0683 90.1852 74.0683C90.37 74.0683 90.544 74.0575 90.7288 74.0466C91.0958 74.0223 91.4598 73.9641 91.816 73.8728C94.0176 73.352 95.8365 71.8095 96.7085 69.7238C96.8585 69.3736 96.975 69.0099 97.0564 68.6377H91.6312C90.5341 68.6418 89.6458 69.5293 89.6416 70.6253Z" fill="black"/>
<path opacity="0.2" d="M90.7286 71.7122V74.0474C91.0956 74.0231 91.4595 73.9649 91.8158 73.8736C94.0174 73.3528 95.8363 71.8103 96.7083 69.7246H92.7182C91.6211 69.7288 90.7328 70.6162 90.7286 71.7122Z" fill="black"/>
<path opacity="0.2" d="M90.7286 71.7122V74.0474C91.0956 74.0231 91.4595 73.9649 91.8158 73.8736C94.0174 73.3528 95.8363 71.8103 96.7083 69.7246H92.7182C91.6211 69.7288 90.7328 70.6162 90.7286 71.7122Z" fill="black"/>
<path opacity="0.2" d="M91.8158 71.7122V73.8736C94.0174 73.3528 95.8363 71.8103 96.7083 69.7246H93.8054C92.7083 69.7288 91.82 70.6162 91.8158 71.7122Z" fill="black"/>
<path d="M113.742 69.7246H93.8088C92.7082 69.7246 91.816 70.616 91.816 71.7155V91.6286C91.816 92.7282 92.7082 93.6195 93.8088 93.6195H113.742C114.842 93.6195 115.735 92.7282 115.735 91.6286V71.7155C115.735 70.616 114.842 69.7246 113.742 69.7246Z" fill="url(#paint2_linear_148_116487)"/>
<path d="M98.5303 77.3039H102.515V88.1435H105.054V77.3039H109.02V75.2012H98.5303V77.3039Z" fill="white"/>
<path opacity="0.15" d="M88.054 137.928H60.934C60.174 137.928 59.564 137.308 59.564 136.558V111.458C59.564 110.698 60.174 110.088 60.934 110.088H88.054C88.814 110.088 89.424 110.698 89.424 111.458V136.548C89.424 137.308 88.804 137.928 88.054 137.928Z" fill="#1F1D20"/>
<path d="M88.054 137.918H60.934C60.174 137.918 59.564 137.308 59.564 136.548V111.468C59.564 110.708 60.174 110.098 60.934 110.098H88.054C88.814 110.098 89.424 110.708 89.424 111.468V136.558C89.424 137.308 88.804 137.918 88.054 137.918Z" fill="white"/>
<path d="M80.4339 118.208C80.4339 117.588 79.9339 117.088 79.3139 117.088H65.8639C65.2439 117.088 64.7439 117.588 64.7439 118.208C64.7439 118.828 65.2439 119.328 65.8639 119.328H79.3239C79.9439 119.318 80.4339 118.828 80.4339 118.208Z" fill="url(#paint3_linear_148_116487)"/>
<path d="M84.2439 118.208C84.2439 117.588 83.7439 117.088 83.1239 117.088H79.4639C78.8439 117.088 79.2439 117.588 79.2439 118.208C79.2439 118.828 78.8539 119.328 79.4639 119.328H83.1339C83.7339 119.318 84.2439 118.828 84.2439 118.208Z" fill="#9B9BA0"/>
<path d="M77.6538 118.208C77.6538 119.438 78.6438 120.438 79.8838 120.438C81.1238 120.438 82.1138 119.448 82.1138 118.208C82.1138 116.978 81.1038 115.978 79.8738 115.978C78.6538 115.998 77.6538 116.978 77.6538 118.208Z" fill="#50E6FF"/>
<path d="M76.3039 123.838C76.3039 123.218 75.8039 122.718 75.1839 122.718H65.8639C65.2439 122.718 64.7439 123.218 64.7439 123.838C64.7439 124.458 65.2439 124.958 65.8639 124.958H75.2039C75.8139 124.948 76.3039 124.458 76.3039 123.838Z" fill="url(#paint4_linear_148_116487)"/>
<path d="M84.2439 123.838C84.2439 123.218 83.7439 122.718 83.1239 122.718H75.8639C75.2439 122.718 74.7439 123.218 74.7439 123.838C74.7439 124.458 75.2439 124.958 75.8639 124.958H83.1339C83.7339 124.948 84.2439 124.458 84.2439 123.838Z" fill="#9B9BA0"/>
<path d="M72.7839 123.837C72.7839 125.067 73.7739 126.067 75.0139 126.067C76.2539 126.067 77.2439 125.077 77.2439 123.837C77.2439 122.607 76.2539 121.607 75.0139 121.607C73.7739 121.607 72.7839 122.607 72.7839 123.837Z" fill="#35AFE4"/>
<path d="M71.1139 129.807C71.1139 129.187 70.6139 128.688 69.9939 128.688H65.8639C65.2439 128.697 64.7439 129.187 64.7439 129.807C64.7439 130.427 65.2439 130.927 65.8639 130.927H69.9939C70.6139 130.907 71.1139 130.417 71.1139 129.807Z" fill="url(#paint5_linear_148_116487)"/>
<path d="M84.2439 129.807C84.2439 129.187 83.7439 128.688 83.1239 128.688H71.0939C70.4739 128.688 69.9739 129.187 69.9739 129.807C69.9739 130.427 70.4739 130.927 71.0939 130.927H83.1239C83.7339 130.907 84.2439 130.417 84.2439 129.807Z" fill="#9B9BA0"/>
<path d="M68.1938 129.807C68.1938 131.037 69.1838 132.037 70.4238 132.037C71.6538 132.037 72.6538 131.047 72.6538 129.807C72.6538 128.577 71.6638 127.577 70.4238 127.577C69.1838 127.577 68.1938 128.577 68.1938 129.807Z" fill="#2E76BC"/>
<path fill-rule="evenodd" clip-rule="evenodd" d="M108.248 127.694C108.784 127.695 109.314 127.59 109.809 127.385C110.305 127.181 110.755 126.88 111.133 126.502C111.512 126.123 111.813 125.673 112.017 125.178C112.222 124.682 112.327 124.152 112.326 123.616V117.768C112.349 117.218 112.261 116.67 112.067 116.155C111.873 115.64 111.577 115.17 111.196 114.772C110.815 114.375 110.358 114.059 109.852 113.843C109.346 113.627 108.802 113.516 108.251 113.516C107.701 113.516 107.157 113.627 106.651 113.843C106.145 114.059 105.688 114.375 105.307 114.772C104.926 115.17 104.63 115.64 104.436 116.155C104.242 116.67 104.154 117.218 104.177 117.768V123.646C104.183 124.721 104.615 125.751 105.377 126.509C106.14 127.268 107.172 127.694 108.248 127.694V127.694Z" fill="url(#paint6_linear_148_116487)"/>
<path fill-rule="evenodd" clip-rule="evenodd" d="M113.476 121.442V123.466C113.355 124.764 112.755 125.969 111.792 126.847C110.829 127.724 109.573 128.211 108.27 128.211C106.967 128.211 105.711 127.724 104.748 126.847C103.786 125.969 103.185 124.764 103.065 123.466V121.442H101.459V123.466C101.459 125.166 102.096 126.805 103.243 128.06C104.39 129.314 105.965 130.095 107.658 130.248V131.092H104.737V132.705H112.34V131.092H109.263V130.196C110.878 129.959 112.354 129.15 113.422 127.916C114.49 126.682 115.079 125.106 115.082 123.474V121.45L113.476 121.442Z" fill="url(#paint7_linear_148_116487)"/>
<defs>
<linearGradient id="paint0_linear_148_116487" x1="67.7212" y1="3.43511" x2="131.329" y2="182.854" gradientUnits="userSpaceOnUse">
<stop stop-color="#A9B1FF"/>
<stop offset="1" stop-color="#7B83EB"/>
</linearGradient>
<linearGradient id="paint1_linear_148_116487" x1="90.9273" y1="7.54864" x2="90.9273" y2="183.819" gradientUnits="userSpaceOnUse">
<stop stop-color="#5A62C3"/>
<stop offset="0.5" stop-color="#4D55BD"/>
<stop offset="1" stop-color="#3940AB"/>
</linearGradient>
<linearGradient id="paint2_linear_148_116487" x1="111.579" y1="68.169" x2="95.9943" y2="95.1886" gradientUnits="userSpaceOnUse">
<stop stop-color="#5A62C3"/>
<stop offset="0.5" stop-color="#4D55BD"/>
<stop offset="1" stop-color="#3940AB"/>
</linearGradient>
<linearGradient id="paint3_linear_148_116487" x1="72.1396" y1="116.944" x2="81.3394" y2="142.883" gradientUnits="userSpaceOnUse">
<stop stop-color="#15548F"/>
<stop offset="0.4179" stop-color="#243A5E"/>
<stop offset="0.9677" stop-color="#1A2C45"/>
</linearGradient>
<linearGradient id="paint4_linear_148_116487" x1="68.9799" y1="119.49" x2="76.2908" y2="140.103" gradientUnits="userSpaceOnUse">
<stop stop-color="#15548F"/>
<stop offset="0.4179" stop-color="#243A5E"/>
<stop offset="0.9677" stop-color="#1A2C45"/>
</linearGradient>
<linearGradient id="paint5_linear_148_116487" x1="66.0398" y1="124.472" x2="70.9782" y2="138.396" gradientUnits="userSpaceOnUse">
<stop stop-color="#15548F"/>
<stop offset="0.4179" stop-color="#243A5E"/>
<stop offset="0.9677" stop-color="#1A2C45"/>
</linearGradient>
<linearGradient id="paint6_linear_148_116487" x1="108.44" y1="113.864" x2="107.997" y2="132.129" gradientUnits="userSpaceOnUse">
<stop stop-color="#5A62C3"/>
<stop offset="0.5" stop-color="#4D55BD"/>
<stop offset="1" stop-color="#3940AB"/>
</linearGradient>
<linearGradient id="paint7_linear_148_116487" x1="107.731" y1="114.041" x2="108.797" y2="134.304" gradientUnits="userSpaceOnUse">
<stop stop-color="#5A62C3"/>
<stop offset="0.5" stop-color="#4D55BD"/>
<stop offset="1" stop-color="#3940AB"/>
</linearGradient>
</defs>
</svg>
