<?xml version="1.0" encoding="UTF-8"?>
<svg width="100px" height="100px" viewBox="0 0 100 100" version="1.1" xmlns="http://www.w3.org/2000/svg" xmlns:xlink="http://www.w3.org/1999/xlink">
    <!-- Generator: Sketch 58 (84663) - https://sketch.com -->
    <title>Collaborate with SharePoint in Microsoft 365/plan-for-sharepoint-in-microsoft-365</title>
    <desc>Created with Sketch.</desc>
    <defs>
        <rect id="path-1" x="0" y="0" width="96" height="96" rx="48"></rect>
        <filter x="-8.2%" y="-6.2%" width="116.3%" height="112.5%" filterUnits="objectBoundingBox" id="filter-3">
            <feOffset dx="0" dy="2" in="SourceAlpha" result="shadowOffsetOuter1"></feOffset>
            <feColorMatrix values="0 0 0 0 0   0 0 0 0 0   0 0 0 0 0  0 0 0 0.0964956975 0" type="matrix" in="shadowOffsetOuter1" result="shadowMatrixOuter1"></feColorMatrix>
            <feMerge>
                <feMergeNode in="shadowMatrixOuter1"></feMergeNode>
                <feMergeNode in="SourceGraphic"></feMergeNode>
            </feMerge>
        </filter>
        <circle id="path-4" cx="7" cy="11.0675676" r="2.83783784"></circle>
        <filter x="-8.8%" y="-8.8%" width="117.6%" height="117.6%" filterUnits="objectBoundingBox" id="filter-5">
            <feOffset dx="-1" dy="-1" in="SourceAlpha" result="shadowOffsetInner1"></feOffset>
            <feComposite in="shadowOffsetInner1" in2="SourceAlpha" operator="arithmetic" k2="-1" k3="1" result="shadowInnerInner1"></feComposite>
            <feColorMatrix values="0 0 0 0 0   0 0 0 0 0   0 0 0 0 0  0 0 0 0.1 0" type="matrix" in="shadowInnerInner1"></feColorMatrix>
        </filter>
        <circle id="path-6" cx="10.5" cy="7.85135135" r="3.5"></circle>
        <filter x="-7.1%" y="-7.1%" width="114.3%" height="114.3%" filterUnits="objectBoundingBox" id="filter-7">
            <feOffset dx="-1" dy="0" in="SourceAlpha" result="shadowOffsetInner1"></feOffset>
            <feComposite in="shadowOffsetInner1" in2="SourceAlpha" operator="arithmetic" k2="-1" k3="1" result="shadowInnerInner1"></feComposite>
            <feColorMatrix values="0 0 0 0 0   0 0 0 0 0   0 0 0 0 0  0 0 0 0.1 0" type="matrix" in="shadowInnerInner1"></feColorMatrix>
        </filter>
        <circle id="path-8" cx="6.62162162" cy="4.16216216" r="4.16216216"></circle>
        <filter x="-6.0%" y="-6.0%" width="112.0%" height="112.0%" filterUnits="objectBoundingBox" id="filter-9">
            <feOffset dx="-1" dy="1" in="SourceAlpha" result="shadowOffsetInner1"></feOffset>
            <feComposite in="shadowOffsetInner1" in2="SourceAlpha" operator="arithmetic" k2="-1" k3="1" result="shadowInnerInner1"></feComposite>
            <feColorMatrix values="0 0 0 0 0   0 0 0 0 0   0 0 0 0 0  0 0 0 0.1 0" type="matrix" in="shadowInnerInner1"></feColorMatrix>
        </filter>
        <path d="M0.32879845,8.30232558 C2.14937984,8.30232558 3.62403101,6.53274419 3.62403101,4.34883721 L3.62403101,4.34883721 C3.62403101,2.16493023 2.14937984,0.395348837 0.32879845,0.395348837 L0.32879845,0.395348837 L0.32879845,8.30232558 Z" id="path-10"></path>
    </defs>
    <g id="Badges" stroke="none" stroke-width="1" fill="none" fill-rule="evenodd">
        <g id="Collaborate-with-SharePoint-in-Microsoft-365" transform="translate(-51.000000, -660.000000)">
            <g id="Collaborate-with-SharePoint-in-Microsoft-365/plan-for-sharepoint-in-microsoft-365" transform="translate(51.000000, 660.000000)">
                <g id="Mask" transform="translate(2.000000, 2.000000)">
                    <mask id="mask-2" fill="white">
                        <use xlink:href="#path-1"></use>
                    </mask>
                    <use id="BG" fill="#55A2FF" xlink:href="#path-1"></use>
                    <g id="Clipboard" filter="url(#filter-3)" mask="url(#mask-2)">
                        <g transform="translate(24.000000, 12.000000)">
                            <path d="M4.27393336,64 C2.07393336,64 0.273933363,62.2 0.273933363,60 L0.273933363,10 C0.273933363,7.8 2.07393336,6 4.27393336,6 L44.2739334,6 C46.4739334,6 48.2739334,7.8 48.2739334,10 L48.2739334,60 C48.2739334,62.2 46.4739334,64 44.2739334,64 L4.27393336,64" id="Fill-18" fill="#30404D" fill-rule="evenodd"></path>
                            <path d="M44.2739334,6 L24.2739334,6 L24.2739334,64 L44.2739334,64 C46.4739334,64 48.2739334,62.2 48.2739334,60 L48.2739334,10 C48.2739334,7.8 46.4739334,6 44.2739334,6" id="Fill-19" fill="#182A37" fill-rule="evenodd"></path>
                            <path d="M3.27393336,59 L3.27393336,11 C3.27393336,9.899 4.17393336,9 5.27393336,9 L43.2739334,9 C44.3739334,9 45.2739334,9.899 45.2739334,11 L45.2739334,59 C45.2739334,60.101 44.3739334,61 43.2739334,61 L5.27393336,61 C4.17393336,61 3.27393336,60.101 3.27393336,59 Z" id="Fill-20" fill="#E1E4E1" fill-rule="evenodd"></path>
                            <polygon id="Fill-26" fill="#182A37" fill-rule="evenodd" points="13.2739334 9 14.2739334 9 14.2739334 6 13.2739334 6"></polygon>
                            <path d="M12.6041291,55.4478722 C9.65848809,55.4478722 7.27079578,53.0597697 7.27079578,50.1145389 C7.27079578,47.1693081 9.65848809,44.7812056 12.6041291,44.7812056 C15.5497701,44.7812056 17.9374625,47.1693081 17.9374625,50.1145389 C17.9374625,53.0597697 15.5497701,55.4478722 12.6041291,55.4478722 Z" id="Fill-25" fill="#C5CCCD" fill-rule="evenodd"></path>
                            <g id="Group-70" stroke-width="1" fill="none" fill-rule="evenodd" transform="translate(7.000000, 44.500000)">
                                <path d="M5.60412912,10.9478722 C2.65848809,10.9478722 0.270795783,8.55976967 0.270795783,5.6145389 C0.270795783,2.66930814 2.65848809,0.281205571 5.60412912,0.281205571 C8.54977014,0.281205571 10.9374625,2.66930814 10.9374625,5.6145389 C10.9374625,8.55976967 8.54977014,10.9478722 5.60412912,10.9478722 Z" id="Fill-25" fill="#72C472"></path>
                                <path d="M8.05409032,4.13513136 C7.79355819,3.87478718 7.37090235,3.87478718 7.11070381,4.13513136 L4.91169254,6.33255626 L4.11741981,5.54585681 C4.09840531,5.51918903 4.07905721,5.49252126 4.05470529,5.46852026 C3.79417316,5.20817607 3.37151733,5.20817607 3.11131879,5.46852026 C2.85312177,5.72553096 2.85145383,6.14221499 3.10431344,6.40322587 L3.09630733,6.4112262 L4.44200082,7.74461509 C4.70253295,8.00495927 5.12518878,8.00495927 5.38572091,7.74461509 L8.05208879,5.07950405 C8.05275597,5.0791707 8.05342314,5.078504 8.05409032,5.07783731 C8.31462245,4.81749313 8.31462245,4.39480885 8.05409032,4.13513136" id="Fill-26" fill="#FFFFFF"></path>
                            </g>
                            <g id="Group-70" stroke-width="1" fill="none" fill-rule="evenodd" transform="translate(7.000000, 30.500000)">
                                <path d="M5.60412912,10.9478722 C2.65848809,10.9478722 0.270795783,8.55976967 0.270795783,5.6145389 C0.270795783,2.66930814 2.65848809,0.281205571 5.60412912,0.281205571 C8.54977014,0.281205571 10.9374625,2.66930814 10.9374625,5.6145389 C10.9374625,8.55976967 8.54977014,10.9478722 5.60412912,10.9478722 Z" id="Fill-25" fill="#72C472"></path>
                                <path d="M8.05409032,4.13513136 C7.79355819,3.87478718 7.37090235,3.87478718 7.11070381,4.13513136 L4.91169254,6.33255626 L4.11741981,5.54585681 C4.09840531,5.51918903 4.07905721,5.49252126 4.05470529,5.46852026 C3.79417316,5.20817607 3.37151733,5.20817607 3.11131879,5.46852026 C2.85312177,5.72553096 2.85145383,6.14221499 3.10431344,6.40322587 L3.09630733,6.4112262 L4.44200082,7.74461509 C4.70253295,8.00495927 5.12518878,8.00495927 5.38572091,7.74461509 L8.05208879,5.07950405 C8.05275597,5.0791707 8.05342314,5.078504 8.05409032,5.07783731 C8.31462245,4.81749313 8.31462245,4.39480885 8.05409032,4.13513136" id="Fill-26" fill="#FFFFFF"></path>
                            </g>
                            <g id="sharepoint-logo" stroke-width="1" fill="none" fill-rule="evenodd" transform="translate(6.000000, 14.000000)">
                                <g id="Oval">
                                    <use fill="#37C5CF" fill-rule="evenodd" xlink:href="#path-4"></use>
                                    <use fill="black" fill-opacity="1" filter="url(#filter-5)" xlink:href="#path-4"></use>
                                </g>
                                <g id="Oval">
                                    <use fill="#1A9BA1" fill-rule="evenodd" xlink:href="#path-6"></use>
                                    <use fill="black" fill-opacity="1" filter="url(#filter-7)" xlink:href="#path-6"></use>
                                </g>
                                <g id="Oval">
                                    <use fill="#036C70" fill-rule="evenodd" xlink:href="#path-8"></use>
                                    <use fill="black" fill-opacity="1" filter="url(#filter-9)" xlink:href="#path-8"></use>
                                </g>
                                <rect id="Rectangle" fill="#03787D" x="0" y="3.5" width="7" height="7" rx="1"></rect>
                                <path d="M2.00450011,8.94191433 L2.00450011,7.98118798 C2.17863263,8.12729917 2.36777374,8.23688093 2.57192911,8.30993652 C2.77608448,8.38299212 2.98223828,8.41951937 3.1903967,8.41951937 C3.31248961,8.41951937 3.41906913,8.40851116 3.51013843,8.3864944 C3.60120774,8.36447765 3.67726448,8.33395488 3.73831094,8.29492517 C3.7993574,8.25589547 3.84489137,8.20986113 3.87491422,8.15682076 C3.90493707,8.1037804 3.91994827,8.04623747 3.91994827,7.98419024 C3.91994827,7.90012627 3.89593035,7.82507027 3.84789379,7.75902001 C3.79985723,7.69296974 3.73430833,7.6319242 3.65124512,7.57588155 C3.5681819,7.51983889 3.46960836,7.46579858 3.35552154,7.41375897 C3.24143471,7.36171937 3.11834288,7.3086798 2.98624235,7.25463867 C2.64998644,7.11453205 2.39929942,6.94340438 2.23417375,6.74125053 C2.06904808,6.53909668 1.98648649,6.29491451 1.98648649,6.00869668 C1.98648649,5.78452608 2.03152008,5.59188236 2.12158863,5.43075974 C2.21165718,5.26963712 2.33424863,5.13703819 2.48936669,5.03295898 C2.64448474,4.92887978 2.82411875,4.85232266 3.02827412,4.80328534 C3.23242949,4.75424802 3.44859076,4.72972973 3.67676441,4.72972973 C3.90093501,4.72972973 4.09958322,4.74323981 4.27271498,4.77026037 C4.44584674,4.79728094 4.60546582,4.83881192 4.75157702,4.89485457 L4.75157702,5.79253326 C4.67952218,5.74249517 4.60096357,5.69846232 4.51589883,5.66043338 C4.4308341,5.62240444 4.34326877,5.59088092 4.25320022,5.56586188 C4.16313168,5.54084284 4.07356485,5.52232903 3.98449707,5.51031989 C3.89542929,5.49831075 3.8108662,5.49230627 3.73080527,5.49230627 C3.62072149,5.49230627 3.52064683,5.50281411 3.43057828,5.5238301 C3.34050974,5.5448461 3.264453,5.57436812 3.20240577,5.61239707 C3.14035855,5.65042601 3.09232272,5.69595998 3.05829682,5.74900034 C3.02427093,5.80204071 3.00725823,5.86158513 3.00725823,5.9276354 C3.00725823,5.99969024 3.02627242,6.06423839 3.06430136,6.1212818 C3.1023303,6.17832522 3.15637062,6.23236553 3.22642393,6.28340438 C3.29647725,6.33444322 3.38154071,6.38448055 3.48161687,6.43351787 C3.58169303,6.48255519 3.6947774,6.53309289 3.82087336,6.5851325 C3.99300436,6.65718733 4.14761971,6.73374445 4.28472406,6.81480614 C4.4218284,6.89586783 4.53941612,6.98743615 4.63749076,7.08951383 C4.7355654,7.19159152 4.8106214,7.3081785 4.862661,7.43927827 C4.91470061,7.57037804 4.94072002,7.7229919 4.94072002,7.89712442 C4.94072002,8.13730721 4.89518605,8.33895765 4.80411674,8.50208179 C4.71304743,8.66520594 4.58945523,8.79730449 4.43333641,8.89838141 C4.2772176,8.99945834 4.09558209,9.07201247 3.88842444,9.11604598 C3.68126678,9.16007949 3.46260365,9.18209591 3.23242847,9.18209591 C2.99624873,9.18209591 2.77158112,9.16208098 2.55841889,9.12205052 C2.34525667,9.08202005 2.16061892,9.02197526 2.00450011,8.94191433 Z" id="S" fill="#FFFFFF" fill-rule="nonzero"></path>
                            </g>
                            <rect id="Rectangle" fill="#C5CCCD" fill-rule="nonzero" x="22" y="18" width="19" height="4" rx="2"></rect>
                            <rect id="Rectangle" fill="#C5CCCD" fill-rule="nonzero" x="22" y="34" width="17" height="4" rx="2"></rect>
                            <rect id="Rectangle" fill="#C5CCCD" fill-rule="nonzero" x="22" y="26" width="19" height="4" rx="2"></rect>
                            <rect id="Rectangle" fill="#C5CCCD" fill-rule="nonzero" x="22" y="42" width="19" height="4" rx="2"></rect>
                            <rect id="Rectangle" fill="#C5CCCD" fill-rule="nonzero" x="22" y="50" width="14" height="4" rx="2"></rect>
                            <g id="Top" stroke-width="1" fill="none" fill-rule="evenodd" transform="translate(14.272933, 0.000000)">
                                <path d="M19.001,11 L1.001,11 C0.451,11 0.001,10.55 0.001,10 L0.001,11 C0.001,11.55 0.451,12 1.001,12 L19.001,12 C19.551,12 20.001,11.55 20.001,11 L20.001,10 C20.001,10.55 19.551,11 19.001,11" id="Fill-22" fill="#546670"></path>
                                <path d="M10.001,2 C11.104,2 12.001,2.897 12.001,4 L8.001,4 C8.001,2.897 8.897,2 10.001,2 Z M19.001,4 L14.001,4 C14.001,1.791 12.21,0 10.001,0 C7.792,0 6.001,1.791 6.001,4 L1.001,4 C0.451,4 0.001,4.45 0.001,5 L0.001,10 C0.001,10.55 0.451,11 1.001,11 L19.001,11 C19.551,11 20.001,10.55 20.001,10 L20.001,5 C20.001,4.45 19.551,4 19.001,4 L19.001,4 Z" id="Fill-24" fill="#ADBDC4"></path>
                                <path d="M20.001,10 L20.001,5 C20.001,4.45 19.551,4 19.001,4 L15.001,4 L12.001,11 L19.001,11 C19.551,11 20.001,10.55 20.001,10" id="Fill-33" fill="#8BA6B1"></path>
                                <path d="M10.686,0.069 L9.852,2.015 C9.902,2.011 9.95,2 10.001,2 C11.104,2 12.001,2.897 12.001,4 L9.001,4 L6.001,11 L10.001,11 L13.676,2.424 C13.151,1.202 12.033,0.303 10.686,0.069" id="Fill-34" fill="#8BA6B1"></path>
                            </g>
                        </g>
                    </g>
                    <g id="Group" mask="url(#mask-2)">
                        <g transform="translate(49.000000, 55.000000)">
                            <g id="Gear">
                                <g id="Group-10" transform="translate(17.000000, 17.000000) rotate(-45.000000) translate(-17.000000, -17.000000) translate(5.534884, 5.534884)">
                                    <path d="M14.0290698,11.6220578 C14.0290698,9.99086795 12.7008656,8.66275543 11.0697674,8.66275543 C9.43845051,8.66275543 8.11046512,9.99074083 8.11046512,11.6220578 C8.11046512,13.2533747 9.43845051,14.5813601 11.0697674,14.5813601 C12.7008656,14.5813601 14.0290698,13.2532476 14.0290698,11.6220578 Z M14.5835257,4.68465413 C14.5824838,4.68411793 14.5814437,4.68357952 14.5804055,4.68303889 C14.5823899,4.68403418 14.5839408,4.68481203 14.5850006,4.68535598 Z M21.0306526,9.27077977 L21.0305668,9.27076072 C21.9420002,9.47309616 22.6395349,10.3423634 22.6395349,11.2761275 L22.6395349,11.967988 C22.6395349,12.901605 21.9417984,13.7710899 21.0303368,13.973329 L19.4225772,14.3306474 C19.4636526,14.3215076 19.3986759,14.3807068 19.4152118,14.3285595 C19.3957525,14.3887658 19.3957525,14.3887658 19.3789095,14.4295767 L18.9357206,15.5069707 C18.9138686,15.5578921 18.9138686,15.5578921 18.8900921,15.6054821 C18.9109625,15.5655965 18.9146328,15.6493838 18.8910243,15.6123331 L19.7760067,17.0027727 C20.2770434,17.7905779 20.1553119,18.8986928 19.4952569,19.5587478 L19.0059847,20.0480199 C18.3569901,20.6965493 17.2239538,20.821341 16.4505334,20.3279835 L15.0558945,19.4412161 C15.0924415,19.4649444 15.0699392,19.4595839 15.0417384,19.4595839 C15.0236051,19.4595839 15.0183554,19.4606491 15.0446313,19.4465851 C15.00658,19.4654564 15.0048497,19.4661996 14.9557822,19.4872761 L13.8760241,19.932063 C13.8308533,19.9497632 13.8308533,19.9497632 13.7878998,19.963927 C13.828823,19.9508007 13.7696144,20.0157491 13.7787182,19.974453 L13.4210121,21.5830929 C13.2182507,22.4943645 12.3490756,23.1918252 11.4156977,23.1918252 L10.7238372,23.1918252 C9.79007313,23.1918252 8.92080584,22.4942905 8.7185085,21.5830286 L8.3608924,19.9747932 C8.37008178,20.0159832 8.31069293,19.9507947 8.3546788,19.9648926 C8.30913479,19.9499016 8.30913479,19.9499016 8.26167133,19.9314506 L7.1881535,19.4892031 C7.13107421,19.4646461 7.13107421,19.4646461 7.08240689,19.4403004 C7.12034938,19.4605865 7.11540475,19.4595839 7.09710465,19.4595839 C7.068271,19.4595839 7.04539031,19.4650346 7.07882059,19.4436475 L5.68875648,20.3284851 C4.91313325,20.8210105 3.78193746,20.6959417 3.13342335,20.0478931 L2.64393207,19.5584018 C1.98376799,18.8982378 1.8621394,17.7899437 2.36357356,17.0027015 L3.24830197,15.6121176 C3.22463214,15.6492645 3.22837296,15.5646473 3.25036261,15.6068857 C3.22583722,15.5587744 3.22583722,15.5587744 3.20412943,15.5082394 L2.75976222,14.4283144 C2.74390605,14.3886699 2.74390605,14.3886699 2.72743295,14.3398178 C2.74045132,14.3805139 2.67562893,14.32135 2.7174944,14.3306898 L1.10856975,13.9733432 C0.197536084,13.7709939 -0.5,12.9014154 -0.5,11.967988 L-0.5,11.2761275 C-0.5,10.3424726 0.197393464,9.47324354 1.10897443,9.27041337 L2.71695763,8.91346814 C2.67570485,8.92264743 2.74045754,8.86358222 2.72658664,8.90696911 C2.74390605,8.85544562 2.74390605,8.85544562 2.76030094,8.8144866 L3.20346835,7.73749071 C3.2266466,7.68392821 3.2266466,7.68392821 3.24864046,7.64017316 C3.22849159,7.67900757 3.22478219,7.59436572 3.24851063,7.63178236 L2.36359949,6.24145481 C1.86245764,5.45394619 1.98390303,4.34620455 2.64405707,3.68558872 L3.13329661,3.19669511 C3.78160054,2.54792612 4.91413633,2.42329833 5.68870307,2.91616227 L7.07931426,3.80056208 C7.04547841,3.77900739 7.06856312,3.78453159 7.09710465,3.78453159 C7.11563679,3.78453159 7.12130665,3.78338053 7.08126715,3.8044284 C7.139629,3.77495654 7.14236299,3.7738251 7.1834068,3.75683938 L8.26641803,3.31073802 C8.30494284,3.29547168 8.30494284,3.29547168 8.35163506,3.28018847 C8.31071248,3.29331458 8.3702003,3.22805613 8.36080676,3.27005287 L8.71848203,1.66086006 C8.92085387,0.749724774 9.79016791,0.0522903148 10.7238372,0.0522903148 L11.4156977,0.0522903148 C12.3491108,0.0522903148 13.2186043,0.749785476 13.4213896,1.66116469 L13.7789725,3.27046634 C13.7697315,3.22844164 13.8288419,3.29332084 13.7762692,3.27661338 C13.8350543,3.29561829 13.8350543,3.29561829 13.8775176,3.31266496 L14.9510355,3.75491243 C14.9982703,3.77423033 14.9982703,3.77423033 15.0515743,3.80107002 C15.0173806,3.78330273 15.0234069,3.78453159 15.0420843,3.78453159 C15.0701953,3.78453159 15.0923155,3.77925289 15.0598667,3.80034702 L16.4507327,2.9158794 C17.2255215,2.42287414 18.3576915,2.54733749 19.0061115,3.19622239 L19.4957265,3.68583744 C20.1553944,4.34596726 20.2769949,5.45372969 19.775944,6.24109529 L18.8905145,7.63258154 C18.9146261,7.59485669 18.9109457,7.67894798 18.8908236,7.64038268 C18.9146652,7.68805158 18.9146652,7.68805158 18.9350595,7.73587613 L19.3760754,8.80778997 C19.3957525,8.85534967 19.3957525,8.85534967 19.411756,8.90429774 C19.3986274,8.86325705 19.4632998,8.92217572 19.4221627,8.91310696 L21.0306526,9.27077975 Z" id="Fill-376" stroke="#55A2FF"></path>
                                    <path d="M14.5290698,11.6220578 C14.5290698,13.5295171 12.9768808,15.0813601 11.0697674,15.0813601 C9.16230814,15.0813601 7.61046512,13.5295171 7.61046512,11.6220578 C7.61046512,9.71459845 9.16230814,8.16275543 11.0697674,8.16275543 C12.9768808,8.16275543 14.5290698,9.71459845 14.5290698,11.6220578 Z M19.3136308,9.40118566 C19.1818314,9.37212752 18.9766948,9.1853252 18.9355291,9.05663915 C18.9303401,9.03899671 18.9237674,9.0217002 18.9165029,9.00474962 L18.4726744,7.92613915 C18.465064,7.90745892 18.4564157,7.88877869 18.4470756,7.87079031 C18.3848081,7.75144438 18.3969157,7.47642985 18.4692151,7.36331066 L19.3541047,5.97267113 C19.729439,5.38286008 19.6360378,4.53360136 19.1420494,4.03926706 L18.6525581,3.54977578 C18.1699855,3.06685718 17.2965116,2.97034264 16.7191541,3.33772055 L15.3281686,4.22226415 C15.281814,4.25236008 15.1721541,4.28453159 15.0420843,4.28453159 C14.9355378,4.28453159 14.8563198,4.26308392 14.8210349,4.24474962 C14.8033924,4.23506357 14.7843663,4.22676124 14.7653401,4.21915078 L13.6870756,3.77497636 C13.670125,3.76805776 13.6528285,3.76148508 13.635186,3.75629613 C13.5068459,3.71513043 13.3196977,3.5099938 13.2906395,3.37784845 L12.9332936,1.7696188 C12.7814302,1.08709845 12.1148227,0.552290315 11.4156977,0.552290315 L10.7238372,0.552290315 C10.0243663,0.552290315 9.35810465,1.08709845 9.20658721,1.76927287 L8.84889535,3.37854031 C8.81949128,3.5099938 8.63268895,3.71513043 8.50434884,3.75629613 C8.4867064,3.76148508 8.46940988,3.76805776 8.45211337,3.77497636 L7.37384884,4.21915078 C7.35482267,4.22676124 7.33614244,4.23506357 7.31815407,4.24474962 C7.28321512,4.26308392 7.20399709,4.28453159 7.09710465,4.28453159 C6.96703488,4.28453159 6.857375,4.25201415 6.81067442,4.22226415 L5.42038081,3.33806648 C4.84302326,2.97068857 3.96920349,3.06754904 3.48697674,3.55012171 L2.99748547,4.03926706 C2.50315116,4.53394729 2.41009593,5.38320601 2.78543023,5.97301706 L3.67031977,7.36331066 C3.74227326,7.47677578 3.75438081,7.75109845 3.6924593,7.87044438 C3.68311919,7.88877869 3.674125,7.90745892 3.66651453,7.92613915 L3.22268605,9.00474962 C3.21576744,9.0217002 3.20919477,9.03899671 3.20365988,9.05663915 C3.16249419,9.1853252 2.95770349,9.37212752 2.82555814,9.40153159 L1.21732849,9.75853159 C0.53480814,9.91039497 5.68434189e-14,10.5766566 5.68434189e-14,11.2761275 L5.68434189e-14,11.967988 C5.68434189e-14,12.667113 0.53480814,13.3337205 1.21698256,13.485238 L2.82590407,13.8425839 C2.95770349,13.871988 3.16249419,14.0587903 3.20365988,14.1874764 C3.20919477,14.2051188 3.21576744,14.2224153 3.22268605,14.2393659 L3.66651453,15.3179764 C3.674125,15.3366566 3.68277326,15.3549909 3.6924593,15.3733252 C3.75438081,15.4923252 3.74227326,15.7673397 3.66997384,15.8808048 L2.78543023,17.2710985 C2.40975,17.8609095 2.50315116,18.7105142 2.99748547,19.2048485 L3.48697674,19.6943397 C3.96885756,20.1758746 4.84163953,20.2741188 5.42072674,19.906395 L6.81032849,19.0218514 C6.857375,18.9917554 6.96703488,18.9595839 7.09710465,18.9595839 C7.20399709,18.9595839 7.28321512,18.9806857 7.31815407,18.9993659 C7.33648837,19.0083601 7.35482267,19.0173543 7.37384884,19.0249647 L8.45211337,19.4691392 C8.46940988,19.4760578 8.4867064,19.4822845 8.50434884,19.4878194 C8.63268895,19.5289851 8.81949128,19.7341217 8.84889535,19.8659211 L9.20658721,21.4744967 C9.35810465,22.1570171 10.0243663,22.6918252 10.7238372,22.6918252 L11.4156977,22.6918252 C12.1148227,22.6918252 12.7810843,22.1570171 12.9329477,21.4744967 L13.2906395,19.8659211 C13.3196977,19.7341217 13.5068459,19.5289851 13.635186,19.4878194 C13.6528285,19.4822845 13.670125,19.4760578 13.6870756,19.4691392 L14.7653401,19.0249647 C14.7843663,19.0173543 14.8030465,19.0083601 14.8210349,18.9993659 C14.8563198,18.9806857 14.9355378,18.9595839 15.0417384,18.9595839 C15.1718081,18.9595839 15.281814,18.9917554 15.3281686,19.0218514 L16.7188081,19.906049 C17.2958198,20.2741188 18.1699855,20.1765665 18.6525581,19.6943397 L19.1417035,19.2051944 C19.6360378,18.7108601 19.729439,17.8612554 19.3541047,17.2710985 L18.4692151,15.8808048 C18.3969157,15.7673397 18.3848081,15.4926711 18.4470756,15.3736711 C18.4564157,15.3553368 18.465064,15.3370025 18.4726744,15.3183223 L18.9165029,14.2393659 C18.9237674,14.2224153 18.9303401,14.2051188 18.9355291,14.1874764 C18.9766948,14.0587903 19.1818314,13.871988 19.3139767,13.8425839 L20.9218605,13.485238 C21.6047267,13.3337205 22.1395349,12.667113 22.1395349,11.967988 L22.1395349,11.2761275 C22.1395349,10.5766566 21.6047267,9.91039497 20.9222064,9.75887752 L19.3136308,9.40118566 Z" id="Fill-376" fill="#546670"></path>
                                    <path d="M6.84167445,19.102385 C6.88891917,19.0721628 6.99904105,19.0398564 7.1296588,19.0398564 C7.23700158,19.0398564 7.31655334,19.0610466 7.35163949,19.0798052 C7.37005104,19.0888371 7.38846258,19.097869 7.4075689,19.1055114 L8.49037615,19.551549 C8.50774553,19.5584966 8.52511492,19.5647495 8.54283169,19.5703076 C8.6717125,19.6116459 8.85930182,19.817643 8.88882977,19.9499953 L9.24802858,21.5653182 C9.40018436,22.2507015 10.0692529,22.7877529 10.7716707,22.7877529 L11.466446,22.7877529 C12.1685164,22.7877529 12.837585,22.2507015 12.9900882,21.5653182 L13.349287,19.9499953 C13.3784675,19.817643 13.5664042,19.6116459 13.695285,19.5703076 C13.7130018,19.5647495 13.7303712,19.5584966 13.7473932,19.551549 L14.8302004,19.1055114 C14.8493068,19.097869 14.8680657,19.0888371 14.8861298,19.0798052 C14.9215634,19.0610466 15.0011152,19.0398564 15.1077632,19.0398564 C15.2383809,19.0398564 15.3488502,19.0721628 15.3954001,19.102385 L16.7918984,19.9902915 C17.371341,20.3599052 18.2491895,20.2619437 18.7337953,19.7776942 L19.2250014,19.2864971 C19.7214183,18.7900892 19.815213,17.9369208 19.4382974,17.3442884 L18.5496798,15.948163 C18.4770758,15.834222 18.4649172,15.5584012 18.527447,15.4389021 C18.5368265,15.4204909 18.5455112,15.4020797 18.5531537,15.3833211 L18.998852,14.2998389 C19.0061472,14.2828172 19.0127475,14.2654481 19.0179583,14.2477317 C19.0592975,14.1185059 19.2652983,13.93092 19.3980004,13.9013926 L21.0126581,13.5425477 C21.6984013,13.3903947 22.2354626,12.720991 22.2354626,12.0189334 L22.2354626,11.3241709 C22.2354626,10.621766 21.6984013,9.95270963 21.0130055,9.80055664 L19.397653,9.4413644 C19.2652983,9.41218437 19.0592975,9.22459849 19.0179583,9.09537265 C19.0127475,9.07765621 19.0061472,9.06028714 18.998852,9.04326546 L18.5531537,7.96013065 C18.5455112,7.94137206 18.5368265,7.92261347 18.527447,7.90454965 C18.4649172,7.78470311 18.4770758,7.508535 18.5496798,7.39494132 L19.4382974,5.9984686 C19.815213,5.40618353 19.6834962,4.59128465 19.1874266,4.09487681 L18.7284264,3.6358811 L13.4219932,8.94231431 C14.0511122,9.5714218 14.5929347,10.713822 14.5929347,11.6715522 C14.5929347,13.5870125 13.0342064,15.1453649 11.1190584,15.1453649 C10.1613107,15.1453649 9.12031649,14.5018701 8.49119749,13.87311 L3.04546739,19.3188401 L3.50432147,19.7776942 C3.98823244,20.2612489 4.86469143,20.3599052 5.44621833,19.9906389 L6.84167445,19.102385 Z" id="Fill-377" fill="#30404D"></path>
                                </g>
                                <circle id="Oval" fill="#55A2FF" fill-rule="nonzero" cx="16.6046512" cy="17.3953488" r="3.95348837"></circle>
                                <g id="Group-11" transform="translate(12.651163, 13.441860)">
                                    <path d="M3.95348837,7.90697674 C6.13739535,7.90697674 7.90697674,6.13739535 7.90697674,3.95348837 C7.90697674,1.7695814 6.13739535,0 3.95348837,0 C1.77037209,0 0,1.7695814 0,3.95348837 C0,6.13739535 1.77037209,7.90697674 3.95348837,7.90697674 Z" id="Stroke-4" stroke="#30404D"></path>
                                    <g id="Group-8" transform="translate(3.953488, 0.000000)">
                                        <mask id="mask-11" fill="white">
                                            <use xlink:href="#path-10"></use>
                                        </mask>
                                        <g id="Clip-7"></g>
                                        <polygon id="Stroke-6" stroke="#C4C4C4" mask="url(#mask-11)" points="-6.25968992 12.255814 6.91860465 12.255814 6.91860465 -3.55813953 -6.25968992 -3.55813953"></polygon>
                                    </g>
                                    <path d="M3.95348837,7.90697674 C6.13739535,7.90697674 7.90697674,6.13739535 7.90697674,3.95348837 C7.90697674,1.7695814 6.13739535,0 3.95348837,0" id="Stroke-9" stroke="#546670"></path>
                                </g>
                            </g>
                            <g id="Group-4" transform="translate(11.069767, 11.069767)">
                                <circle id="Oval" fill="#FFFFFF" cx="6.3255814" cy="6.3255814" r="6.3255814"></circle>
                                <g id="microsoft" transform="translate(2.976744, 2.976744)" fill-rule="nonzero">
                                    <rect id="Rectangle-path" fill="#E86C60" x="0" y="0" width="2.93023256" height="2.93023256"></rect>
                                    <polygon id="Rectangle-path" fill="#72C472" points="3.76744186 0 6.69767442 0 6.69767442 2.93023256 3.76744186 2.93023256"></polygon>
                                    <polygon id="Rectangle-path" fill="#43A6DD" points="0 3.76744186 2.93023256 3.76744186 2.93023256 6.69767442 0 6.69767442"></polygon>
                                    <polygon id="Rectangle-path" fill="#EFD358" points="3.76744186 3.76744186 6.69767442 3.76744186 6.69767442 6.69767442 3.76744186 6.69767442"></polygon>
                                </g>
                            </g>
                        </g>
                    </g>
                </g>
                <g id="Azure-Border" stroke="#0078D4" stroke-width="4">
                    <rect x="2" y="2" width="96" height="96" rx="48"></rect>
                </g>
            </g>
        </g>
    </g>
</svg>