<svg width="100" height="100" viewBox="0 0 100 100" fill="none" xmlns="http://www.w3.org/2000/svg">
<g clip-path="url(#clip0)">
<path d="M49.6401 96.4481C40.382 96.4481 31.3317 93.7028 23.6339 88.5592C15.936 83.4157 9.93624 76.105 6.3933 67.5516C2.85036 58.9981 1.92337 49.5862 3.72954 40.506C5.53571 31.4257 9.99394 23.085 16.5404 16.5385C23.0869 9.99198 31.4277 5.53376 40.5079 3.72759C49.5882 1.92141 59.0001 2.84841 67.5535 6.39135C76.1069 9.93428 83.4176 15.934 88.5612 23.6319C93.7047 31.3298 96.4501 40.38 96.4501 49.6381C96.4505 55.7854 95.24 61.8726 92.8878 67.5521C90.5355 73.2315 87.0875 78.392 82.7407 82.7388C78.3939 87.0856 73.2335 90.5335 67.554 92.8858C61.8746 95.2381 55.7874 96.4486 49.6401 96.4481V96.4481Z" fill="url(#paint0_linear)"/>
<path fill-rule="evenodd" clip-rule="evenodd" d="M95.54 49.64C95.54 58.7182 92.848 67.5925 87.8045 75.1407C82.7609 82.6889 75.5923 88.572 67.2052 92.0461C58.818 95.5201 49.5891 96.4291 40.6854 94.658C31.7816 92.887 23.603 88.5154 17.1838 82.0962C10.7646 75.677 6.39302 67.4984 4.62196 58.5946C2.85089 49.6909 3.75987 40.462 7.23393 32.0748C10.708 23.6877 16.5911 16.5191 24.1393 11.4755C31.6875 6.43199 40.5618 3.74 49.64 3.74C55.6677 3.73998 61.6363 4.9272 67.2052 7.23388C72.774 9.54057 77.834 12.9215 82.0963 17.1837C86.3585 21.446 89.7394 26.5059 92.0461 32.0748C94.3528 37.6437 95.54 43.6123 95.54 49.64V49.64ZM49.64 3.62732e-07C59.4579 3.62732e-07 69.0553 2.91134 77.2185 8.36585C85.3818 13.8204 91.7442 21.5731 95.5014 30.6436C99.2585 39.7141 100.242 49.6951 98.3262 59.3243C96.4108 68.9535 91.6831 77.7985 84.7408 84.7408C77.7985 91.6831 68.9535 96.4108 59.3243 98.3262C49.6951 100.242 39.7141 99.2585 30.6436 95.5014C21.5731 91.7442 13.8204 85.3818 8.36585 77.2185C2.91134 69.0553 3.62732e-07 59.4579 3.62732e-07 49.64C-0.000787738 43.121 1.28265 36.6656 3.77702 30.6427C6.27138 24.6197 9.9278 19.1471 14.5375 14.5375C19.1471 9.9278 24.6197 6.27138 30.6427 3.77702C36.6656 1.28265 43.121 -0.000787738 49.64 3.62732e-07V3.62732e-07Z" fill="#F2F1F0"/>
<path fill-rule="evenodd" clip-rule="evenodd" d="M92.7296 49.6386C92.7296 58.161 90.2024 66.492 85.4676 73.5781C80.7328 80.6643 74.0031 86.1872 66.1294 89.4486C58.2558 92.71 49.5918 93.5633 41.2332 91.9007C32.8745 90.238 25.1966 86.1341 19.1704 80.1079C13.1441 74.0816 9.0402 66.4037 7.37756 58.0451C5.71493 49.6864 6.56825 41.0225 9.82963 33.1488C13.091 25.2751 18.614 18.5454 25.7001 13.8106C32.7862 9.07581 41.1172 6.54862 49.6396 6.54862C55.2984 6.54828 60.9018 7.6626 66.1298 9.82795C71.3579 11.9933 76.1083 15.1673 80.1096 19.1686C84.1109 23.17 87.2849 27.9203 89.4503 33.1484C91.6156 38.3765 92.7299 43.9799 92.7296 49.6386V49.6386ZM49.6396 2.80862C58.9017 2.80862 67.9558 5.55515 75.657 10.7009C83.3581 15.8466 89.3604 23.1605 92.9049 31.7176C96.4493 40.2746 97.3767 49.6906 95.5698 58.7747C93.7628 67.8588 89.3027 76.2031 82.7534 82.7524C76.2041 89.3017 67.8598 93.7619 58.7757 95.5688C49.6916 97.3757 40.2756 96.4484 31.7185 92.9039C23.1615 89.3594 15.8476 83.3571 10.7019 75.656C5.55613 67.9548 2.8096 58.9007 2.8096 49.6386C2.81079 37.2189 7.74503 25.3082 16.5271 16.5261C25.3092 7.74403 37.2199 2.80979 49.6396 2.80859V2.80862Z" fill="#0078D4"/>
<path fill-rule="evenodd" clip-rule="evenodd" d="M92.7295 49.6386C92.7295 58.161 90.2023 66.492 85.4675 73.5781C80.7327 80.6642 74.003 86.1872 66.1293 89.4486C58.2556 92.7099 49.5917 93.5633 41.233 91.9006C32.8744 90.238 25.1965 86.1341 19.1702 80.1078C13.144 74.0816 9.04008 66.4037 7.37744 58.045C5.7148 49.6864 6.56813 41.0224 9.82951 33.1488C13.0909 25.2751 18.6138 18.5454 25.7 13.8106C32.7861 9.07578 41.1171 6.54859 49.6395 6.54859C55.2982 6.54825 60.9016 7.66257 66.1297 9.82792C71.3578 11.9933 76.1081 15.1673 80.1095 19.1686C84.1108 23.1699 87.2848 27.9203 89.4501 33.1484C91.6155 38.3764 92.7298 43.9798 92.7295 49.6386V49.6386ZM49.6395 2.80859C58.9016 2.80859 67.9557 5.55513 75.6568 10.7009C83.358 15.8466 89.3603 23.1605 92.9048 31.7175C96.4492 40.2746 97.3766 49.6905 95.5696 58.7747C93.7627 67.8588 89.3026 76.2031 82.7533 82.7524C76.204 89.3017 67.8597 93.7618 58.7756 95.5688C49.6914 97.3757 40.2755 96.4483 31.7184 92.9039C23.1614 89.3594 15.8475 83.3571 10.7018 75.656C5.55601 67.9548 2.80948 58.9007 2.80948 49.6386C2.81067 37.2189 7.74492 25.3082 16.527 16.5261C25.3091 7.74403 37.2198 2.80979 49.6395 2.80859V2.80859Z" fill="#0078D4"/>
<path fill-rule="evenodd" clip-rule="evenodd" d="M41.4258 16.8789C40.9675 16.8802 40.5284 17.0629 40.2044 17.3869C39.8804 17.7109 39.6978 18.15 39.6964 18.6082V42.819C39.6978 43.2772 39.8804 43.7163 40.2044 44.0403C40.5284 44.3643 40.9675 44.547 41.4258 44.5483H57.8544C58.3127 44.547 58.7518 44.3644 59.0759 44.0404C59.3999 43.7164 59.5825 43.2772 59.5838 42.819V23.7963L52.6664 16.8789H41.4258Z" fill="white"/>
<path fill-rule="evenodd" clip-rule="evenodd" d="M54.3958 23.7963H59.5838L52.6664 16.8789V22.0669C52.6677 22.5252 52.8504 22.9642 53.1744 23.2883C53.4984 23.6123 53.9375 23.7949 54.3958 23.7963Z" fill="#E8E8E8"/>
<path fill-rule="evenodd" clip-rule="evenodd" d="M59.5838 28.9849L54.3958 23.7969H59.5838V28.9849Z" fill="#F2F2F2"/>
<path d="M43.5391 31.3633H47.3806V39.5391H43.5391C43.3594 39.5391 43.1871 39.4677 43.06 39.3407C42.933 39.2136 42.8616 39.0413 42.8616 38.8616V32.0408C42.8616 31.8611 42.933 31.6888 43.06 31.5617C43.1871 31.4347 43.3594 31.3633 43.5391 31.3633V31.3633Z" fill="#FFE452"/>
<path d="M48.0581 23.9883H51.2221C51.4018 23.9883 51.5741 24.0597 51.7012 24.1867C51.8283 24.3138 51.8996 24.4861 51.8996 24.6658V39.5395H47.3806V24.6658C47.3807 24.4861 47.452 24.3138 47.5791 24.1867C47.7061 24.0597 47.8784 23.9883 48.0581 23.9883V23.9883Z" fill="#FFCA00"/>
<path d="M51.8996 27.8672H55.7411C55.8301 27.8672 55.9182 27.8847 56.0004 27.9188C56.0826 27.9528 56.1572 28.0027 56.2202 28.0656C56.2831 28.1285 56.333 28.2032 56.367 28.2854C56.4011 28.3676 56.4186 28.4557 56.4186 28.5447V38.8619C56.4186 39.0415 56.3472 39.2139 56.2202 39.3409C56.0931 39.468 55.9208 39.5394 55.7411 39.5394H51.8996V27.8672Z" fill="#FF9300"/>
<path fill-rule="evenodd" clip-rule="evenodd" d="M31.1258 41.8633C30.2338 41.8659 29.3791 42.2214 28.7484 42.8521C28.1177 43.4828 27.7622 44.3375 27.7596 45.2295V68.793H71.5203V45.2295C71.5177 44.3375 71.1622 43.4828 70.5315 42.8521C69.9008 42.2214 69.0461 41.8659 68.1541 41.8633L31.1258 41.8633ZM68.1541 43.5464C68.6003 43.547 69.0281 43.7245 69.3436 44.04C69.6591 44.3555 69.8366 44.7833 69.8372 45.2295V67.1099H29.4427V45.2295C29.4431 44.7832 29.6206 44.3554 29.9361 44.0398C30.2517 43.7243 30.6795 43.5468 31.1258 43.5464L68.1541 43.5464Z" fill="#1F56A3"/>
<path fill-rule="evenodd" clip-rule="evenodd" d="M29.4427 45.23C29.4431 44.7837 29.6206 44.3559 29.9361 44.0403C30.2517 43.7248 30.6795 43.5473 31.1258 43.5469H68.1541C68.6003 43.5475 69.0281 43.725 69.3436 44.0405C69.6591 44.356 69.8366 44.7838 69.8372 45.23V67.1104H29.4427V45.23Z" fill="#0078D4"/>
<path d="M39.1964 45.5469H31.9428C31.6667 45.5469 31.4428 45.7707 31.4428 46.0469V64.6104C31.4428 64.8865 31.6667 65.1104 31.9428 65.1104H39.1964C39.4726 65.1104 39.6964 64.8865 39.6964 64.6104V46.0469C39.6964 45.7707 39.4726 45.5469 39.1964 45.5469Z" fill="#1B93EB"/>
<path fill-rule="evenodd" clip-rule="evenodd" d="M22.7102 68.793V69.6345C22.7129 70.5265 23.0683 71.3812 23.6991 72.0119C24.3298 72.6426 25.1845 72.9981 26.0765 73.0007H73.2035C74.0954 72.9981 74.9501 72.6426 75.5808 72.0119C76.2116 71.3812 76.5671 70.5265 76.5697 69.6345V68.793H22.7102Z" fill="#0078D4"/>
<path fill-rule="evenodd" clip-rule="evenodd" d="M47.9565 71.3176H23.1803C23.4737 71.8269 23.8955 72.2503 24.4036 72.5456C24.9117 72.8409 25.4884 72.9979 26.0761 73.0007H73.2031C74.0951 72.9981 74.9498 72.6426 75.5805 72.0119C76.2112 71.3812 76.5667 70.5265 76.5693 69.6345V68.793H49.6396V69.6345C49.6397 69.8556 49.5962 70.0745 49.5116 70.2787C49.4271 70.4829 49.3031 70.6685 49.1468 70.8248C48.9905 70.9811 48.8049 71.1051 48.6007 71.1896C48.3964 71.2742 48.1776 71.3177 47.9565 71.3176Z" fill="#1F56A3"/>
<path fill-rule="evenodd" clip-rule="evenodd" d="M46.2737 70.4761H53.0062C53.4525 70.4759 53.8805 70.2985 54.1961 69.9829C54.5117 69.6673 54.6891 69.2393 54.6893 68.793H44.5906C44.5907 69.2394 44.768 69.6674 45.0836 69.9831C45.3993 70.2987 45.8274 70.4761 46.2737 70.4761V70.4761Z" fill="#003067"/>
<path d="M67.3374 45.5469H42.1239C41.8478 45.5469 41.6239 45.7707 41.6239 46.0469V53.5161C41.6239 53.7923 41.8478 54.0161 42.1239 54.0161H67.3374C67.6135 54.0161 67.8374 53.7923 67.8374 53.5161V46.0469C67.8374 45.7707 67.6135 45.5469 67.3374 45.5469Z" fill="#1B93EB"/>
<path d="M48.6217 56.0117H42.1239C41.8478 56.0117 41.6239 56.2356 41.6239 56.5117V64.6126C41.6239 64.8887 41.8478 65.1126 42.1239 65.1126H48.6217C48.8978 65.1126 49.1217 64.8887 49.1217 64.6126V56.5117C49.1217 56.2356 48.8978 56.0117 48.6217 56.0117Z" fill="#1B93EB"/>
<path d="M57.9795 56.0117H51.4818C51.2056 56.0117 50.9818 56.2356 50.9818 56.5117V64.6126C50.9818 64.8887 51.2056 65.1126 51.4818 65.1126H57.9795C58.2557 65.1126 58.4795 64.8887 58.4795 64.6126V56.5117C58.4795 56.2356 58.2557 56.0117 57.9795 56.0117Z" fill="#1B93EB"/>
<path d="M67.3374 56.0117H60.8396C60.5635 56.0117 60.3396 56.2356 60.3396 56.5117V64.6126C60.3396 64.8887 60.5635 65.1126 60.8396 65.1126H67.3374C67.6135 65.1126 67.8374 64.8887 67.8374 64.6126V56.5117C67.8374 56.2356 67.6135 56.0117 67.3374 56.0117Z" fill="#1B93EB"/>
<path d="M35.5696 51.7956C36.7602 51.7956 37.7253 50.8305 37.7253 49.64C37.7253 48.4495 36.7602 47.4844 35.5696 47.4844C34.3791 47.4844 33.414 48.4495 33.414 49.64C33.414 50.8305 34.3791 51.7956 35.5696 51.7956Z" fill="#0078D4"/>
<path d="M36.3059 53.8477H34.8334C34.6934 53.8477 34.5799 53.9611 34.5799 54.1011V55.5736C34.5799 55.7136 34.6934 55.827 34.8334 55.827H36.3059C36.4458 55.827 36.5593 55.7136 36.5593 55.5736V54.1011C36.5593 53.9611 36.4458 53.8477 36.3059 53.8477Z" fill="#0078D4"/>
<path d="M36.3059 57.3008H34.8334C34.6934 57.3008 34.5799 57.4143 34.5799 57.5542V59.0267C34.5799 59.1667 34.6934 59.2802 34.8334 59.2802H36.3059C36.4458 59.2802 36.5593 59.1667 36.5593 59.0267V57.5542C36.5593 57.4143 36.4458 57.3008 36.3059 57.3008Z" fill="#0078D4"/>
<path d="M36.3059 60.7578H34.8334C34.6934 60.7578 34.5799 60.8713 34.5799 61.0113V62.4838C34.5799 62.6237 34.6934 62.7372 34.8334 62.7372H36.3059C36.4458 62.7372 36.5593 62.6237 36.5593 62.4838V61.0113C36.5593 60.8713 36.4458 60.7578 36.3059 60.7578Z" fill="#0078D4"/>
<path d="M44.1974 48.2891H65.2639" stroke="#0078D4" stroke-width="0.75" stroke-miterlimit="10" stroke-linecap="round"/>
<path d="M44.1974 50.9922H65.2639" stroke="#0078D4" stroke-width="0.75" stroke-miterlimit="10" stroke-linecap="round"/>
<path d="M60.0053 49.4568C60.6503 49.4568 61.1732 48.9339 61.1732 48.2889C61.1732 47.644 60.6503 47.1211 60.0053 47.1211C59.3604 47.1211 58.8375 47.644 58.8375 48.2889C58.8375 48.9339 59.3604 49.4568 60.0053 49.4568Z" fill="#0078D4"/>
<path d="M49.6395 52.1599C50.2844 52.1599 50.8073 51.637 50.8073 50.9921C50.8073 50.3471 50.2844 49.8242 49.6395 49.8242C48.9945 49.8242 48.4716 50.3471 48.4716 50.9921C48.4716 51.637 48.9945 52.1599 49.6395 52.1599Z" fill="#0078D4"/>
<path d="M45.3728 60.5626L46.3594 62.5978C45.9177 62.812 45.4183 62.8766 44.9366 62.7819C44.4549 62.6872 44.0171 62.4384 43.6892 62.073C43.3614 61.7076 43.1614 61.2454 43.1193 60.7563C43.0773 60.2672 43.1955 59.7777 43.4562 59.3617C43.7168 58.9457 44.1057 58.6258 44.5642 58.4503C45.0226 58.2748 45.5258 58.2532 45.9976 58.3888C46.4694 58.5244 46.8843 58.8098 47.1796 59.2019C47.4749 59.5941 47.6346 60.0717 47.6346 60.5626H45.3728Z" fill="#0078D4"/>
<path d="M54.6892 60.5615H56.951C56.951 60.9447 56.8537 61.3217 56.668 61.657C56.4824 61.9923 56.2147 62.2749 55.8899 62.4783C55.5651 62.6818 55.1939 62.7993 54.8112 62.82C54.4286 62.8407 54.0469 62.7638 53.7021 62.5965C53.3573 62.4292 53.0606 62.1771 52.84 61.8638C52.6193 61.5504 52.4819 61.1861 52.4406 60.8051C52.3993 60.4241 52.4556 60.0389 52.604 59.6855C52.7524 59.3322 52.9882 59.0224 53.2892 58.7852L54.6892 60.5615Z" fill="#0078D4"/>
<path d="M64.0057 60.5626H66.2675C66.2675 61.0816 66.089 61.5847 65.762 61.9877C65.435 62.3907 64.9793 62.669 64.4715 62.7759C63.9636 62.8827 63.4344 62.8117 62.9727 62.5747C62.511 62.3377 62.1449 61.9491 61.9357 61.4741C61.7266 60.9991 61.6871 60.4667 61.824 59.9661C61.9609 59.4655 62.2657 59.0271 62.6875 58.7247C63.1092 58.4222 63.6221 58.2739 64.1402 58.3048C64.6582 58.3356 65.1499 58.5437 65.5328 58.8941L64.0057 60.5626Z" fill="#0078D4"/>
<path opacity="0.2" fill-rule="evenodd" clip-rule="evenodd" d="M71.5202 73.0023V56.9046C71.275 56.8894 71.0317 56.8672 70.7827 56.8672C68.8522 56.862 66.9495 57.3267 65.2387 58.2212C63.528 59.1157 62.0606 60.4132 60.9634 62.0015C59.8661 63.5898 59.1719 65.4213 58.9406 67.3379C58.7094 69.2545 58.948 71.1986 59.636 73.0023H71.5202Z" fill="#003067"/>
<path opacity="0.2" d="M59.5838 40.6758H39.6964V41.8645H59.5838V40.6758Z" fill="#767676"/>
<path d="M70.7822 78.7217C76.2649 78.7217 80.7094 74.2771 80.7094 68.7944C80.7094 63.3118 76.2649 58.8672 70.7822 58.8672C65.2995 58.8672 60.8549 63.3118 60.8549 68.7944C60.8549 74.2771 65.2995 78.7217 70.7822 78.7217Z" fill="white"/>
<path d="M70.7822 64.6289V72.9616" stroke="#0078D4" stroke-width="2.05404" stroke-miterlimit="10" stroke-linecap="round"/>
<path d="M66.6158 68.793H74.9485" stroke="#0078D4" stroke-width="2.05404" stroke-miterlimit="10" stroke-linecap="round"/>
</g>
<defs>
<linearGradient id="paint0_linear" x1="47.8698" y1="-15.155" x2="51.8525" y2="130.613" gradientUnits="userSpaceOnUse">
<stop stop-color="#00ABDE"/>
<stop offset="1" stop-color="#007ED8"/>
</linearGradient>
<clipPath id="clip0">
<rect width="99.2799" height="99.28" fill="white"/>
</clipPath>
</defs>
</svg>
