<?xml version="1.0" encoding="UTF-8"?>
<svg width="107px" height="107px" viewBox="0 0 107 107" version="1.1" xmlns="http://www.w3.org/2000/svg" xmlns:xlink="http://www.w3.org/1999/xlink">
    <!-- Generator: Sketch 63.1 (92452) - https://sketch.com -->
    <title>Protect your enterprise information with Microsoft 365/Prevent-data-loss</title>
    <desc>Created with Sketch.</desc>
    <defs>
        <rect id="path-1" x="0" y="0" width="100" height="100" rx="50"></rect>
        <filter x="-5.7%" y="-8.3%" width="111.4%" height="113.9%" filterUnits="objectBoundingBox" id="filter-3">
            <feOffset dx="0" dy="2" in="SourceAlpha" result="shadowOffsetOuter1"></feOffset>
            <feColorMatrix values="0 0 0 0 0   0 0 0 0 0   0 0 0 0 0  0 0 0 0.099071558 0" type="matrix" in="shadowOffsetOuter1" result="shadowMatrixOuter1"></feColorMatrix>
            <feMerge>
                <feMergeNode in="shadowMatrixOuter1"></feMergeNode>
                <feMergeNode in="SourceGraphic"></feMergeNode>
            </feMerge>
        </filter>
        <filter x="-16.7%" y="-11.5%" width="133.3%" height="123.2%" filterUnits="objectBoundingBox" id="filter-4">
            <feOffset dx="0" dy="2" in="SourceAlpha" result="shadowOffsetOuter1"></feOffset>
            <feColorMatrix values="0 0 0 0 0   0 0 0 0 0   0 0 0 0 0  0 0 0 0.0964956975 0" type="matrix" in="shadowOffsetOuter1" result="shadowMatrixOuter1"></feColorMatrix>
            <feMerge>
                <feMergeNode in="shadowMatrixOuter1"></feMergeNode>
                <feMergeNode in="SourceGraphic"></feMergeNode>
            </feMerge>
        </filter>
        <linearGradient x1="76.7275556%" y1="-4.05946744%" x2="15.5786468%" y2="110.793945%" id="linearGradient-5">
            <stop stop-color="#FFFFFF" offset="0%"></stop>
            <stop stop-color="#000000" stop-opacity="0.5" offset="100%"></stop>
        </linearGradient>
        <rect id="path-6" x="-3" y="-3" width="106" height="106" rx="53"></rect>
        <filter x="-0.5%" y="-0.5%" width="101.9%" height="101.9%" filterUnits="objectBoundingBox" id="filter-7">
            <feOffset dx="1" dy="1" in="SourceAlpha" result="shadowOffsetOuter1"></feOffset>
            <feMorphology radius="4" operator="erode" in="SourceAlpha" result="shadowInner"></feMorphology>
            <feOffset dx="1" dy="1" in="shadowInner" result="shadowInner"></feOffset>
            <feComposite in="shadowOffsetOuter1" in2="shadowInner" operator="out" result="shadowOffsetOuter1"></feComposite>
            <feColorMatrix values="0 0 0 0 0   0 0 0 0 0   0 0 0 0 0  0 0 0 0.15 0" type="matrix" in="shadowOffsetOuter1"></feColorMatrix>
        </filter>
    </defs>
    <g id="Badges" stroke="none" stroke-width="1" fill="none" fill-rule="evenodd">
        <g id="Protect-your-enterprise-information-with-Microsoft-365" transform="translate(-47.000000, -857.000000)">
            <g id="Protect-your-enterprise-information-with-Microsoft-365/Prevent-data-loss" transform="translate(50.000000, 860.000000)">
                <g id="Mask" transform="translate(2.000000, 2.000000)">
                    <g id="Circle-" transform="translate(-2.000000, -0.000000)">
                        <mask id="mask-2" fill="white">
                            <use xlink:href="#path-1"></use>
                        </mask>
                        <g id="BG"></g>
                        <g id="Color-/-Microsoft-365" mask="url(#mask-2)" fill="#0078D4" fill-rule="evenodd">
                            <rect id="Rectangle" x="0" y="0" width="100" height="100"></rect>
                        </g>
                    </g>
                    <g id="Database-Speed" transform="translate(14.000000, 8.000000)">
                        <g id="Database" filter="url(#filter-3)">
                            <path d="M69.4107937,58.0942534 C69.4107937,65.3862874 54.0047946,71.2938323 35,71.2938323 C15.9966392,71.2938323 0.589206296,65.3862874 0.589206296,58.0942534 C0.589206296,50.8022194 15.9966392,44.8946746 35,44.8946746 C54.0047946,44.8946746 69.4107937,50.8022194 69.4107937,58.0942534" id="Shadow" fill-opacity="0.102807971" fill="#000000"></path>
                            <g id="Lower" transform="translate(10.000000, 34.000000)">
                                <path d="M25,17.8885617 C11.6743534,17.8885617 0.870264213,13.8640792 0.870264213,8.89642109 L0.870264213,20.8859419 C0.870264213,25.8536001 11.6743534,29.8780825 25,29.8780825 C38.326652,29.8780825 49.1297358,25.8536001 49.1297358,20.8859419 L49.1297358,8.89642109 C49.1297358,13.8640792 38.326652,17.8885617 25,17.8885617" id="Fill-101" fill="#E1E4E1"></path>
                                <path d="M25,21.8520975 L25,25.845607 C25,26.9796159 24.0498917,27.8828265 22.9097616,27.8468579 C10.5623748,27.4522028 0.870264213,23.5925762 0.870264213,18.8876884 L0.870264213,20.8859419 C0.870264213,25.8536001 11.6743534,29.8780825 25,29.8780825 C38.326652,29.8780825 49.1297358,25.8536001 49.1297358,20.8859419 L49.1297358,10.8946746 C49.1297358,15.6195449 39.3581982,19.491161 26.9364113,19.8578405 C25.8566056,19.8898126 25,20.7780362 25,21.8520975" id="Fill-106" fill="#D3DAD8"></path>
                                <path d="M49,9 C49,13.972 38.255,18 25,18 C11.746,18 1,13.972 1,9 C1,4.028 11.746,0 25,0 C38.255,0 49,4.028 49,9" id="Fill-100" stroke="#E1E4E1" stroke-width="0.25" fill="#BAC0C2"></path>
                            </g>
                            <g id="Mid" transform="translate(10.000000, 17.000000)">
                                <path d="M25,17.9034072 C11.6743534,17.9034072 0.870264213,13.8789247 0.870264213,8.91126659 L0.870264213,20.9007874 C0.870264213,25.8684455 11.6743534,29.892928 25,29.892928 C38.326652,29.892928 49.1297358,25.8684455 49.1297358,20.9007874 L49.1297358,8.91126659 C49.1297358,13.8789247 38.326652,17.9034072 25,17.9034072" id="Fill-102" fill="#E1E4E1"></path>
                                <path d="M25,21.866943 L25,25.8604525 C25,26.9944614 24.0498917,27.8976719 22.9097616,27.8617034 C10.5623748,27.4670483 0.870264213,23.6074217 0.870264213,18.9025339 L0.870264213,20.9007874 C0.870264213,25.8684455 11.6743534,29.892928 25,29.892928 C38.326652,29.892928 49.1297358,25.8684455 49.1297358,20.9007874 L49.1297358,10.9095201 C49.1297358,15.6343904 39.3581982,19.5060065 26.9364113,19.872686 C25.8566056,19.9046581 25,20.7928817 25,21.866943" id="Fill-107" fill="#D3DAD8"></path>
                                <path d="M49,9 C49,13.972 38.255,18 25,18 C11.746,18 1,13.972 1,9 C1,4.028 11.746,0 25,0 C38.255,0 49,4.028 49,9" id="Fill-103" stroke="#E1E4E1" stroke-width="0.25" fill="#BAC0C2"></path>
                            </g>
                            <g id="Top" transform="translate(10.000000, 0.000000)">
                                <path d="M25,17.9182527 C11.6743534,17.9182527 0.870264213,13.8937702 0.870264213,8.92611208 L0.870264213,20.9156329 C0.870264213,25.883291 11.6743534,29.9077735 25,29.9077735 C38.326652,29.9077735 49.1297358,25.883291 49.1297358,20.9156329 L49.1297358,8.92611208 C49.1297358,13.8937702 38.326652,17.9182527 25,17.9182527" id="Fill-104" fill="#E1E4E1"></path>
                                <path d="M25,21.8817885 L25,25.875298 C25,27.0093069 24.0498917,27.9125174 22.9097616,27.8765489 C10.5623748,27.4818938 0.870264213,23.6222672 0.870264213,18.9173794 L0.870264213,20.9156329 C0.870264213,25.883291 11.6743534,29.9077735 25,29.9077735 C38.326652,29.9077735 49.1297358,25.883291 49.1297358,20.9156329 L49.1297358,10.9243656 C49.1297358,15.6492359 39.3581982,19.520852 26.9364113,19.8875315 C25.8566056,19.9195036 25,20.8077272 25,21.8817885" id="Fill-108" fill="#D3DAD8"></path>
                                <path d="M48.0498412,9 C48.0498412,13.972 37.7302352,18 25,18 C12.2707252,18 1.95015883,13.972 1.95015883,9 C1.95015883,4.028 12.2707252,0 25,0 C37.7302352,0 48.0498412,4.028 48.0498412,9" id="Fill-105" stroke="#E1E4E1" stroke-width="2.25" fill="#C4CBCD"></path>
                            </g>
                        </g>
                    </g>
                    <g id="Circle-Lock" filter="url(#filter-4)" transform="translate(37.000000, 30.000000)">
                        <path d="M12,0 C7.188,0 3.27272727,3.91527273 3.27272727,8.72727273 L3.27272727,15.2727273 C3.27272727,15.8749091 4.00581818,16.3636364 4.90909091,16.3636364 C5.81236364,16.3636364 6.54545455,15.8749091 6.54545455,15.2727273 L6.54545455,8.72727273 C6.54545455,5.71963636 8.99236364,3.27272727 12,3.27272727 C15.0076364,3.27272727 17.4545455,5.71963636 17.4545455,8.72727273 L17.4545455,15.2727273 C17.4545455,15.8749091 18.1876364,16.3636364 19.0909091,16.3636364 C19.9941818,16.3636364 20.7272727,15.8749091 20.7272727,15.2727273 L20.7272727,8.72727273 C20.7272727,3.91527273 16.812,0 12,0" id="Fill-84" fill="#F5F8F5"></path>
                        <path d="M12,0 C11.8156364,0 11.6356364,0.0158181818 11.4545455,0.0278181818 C16.0118182,0.311454545 19.6363636,4.09963636 19.6363636,8.72727273 L19.6363636,11.4289091 C19.6363636,12.0627273 18.9458182,12.4576364 18.4036364,12.1298182 C18.096,11.9438182 17.7796364,11.7709091 17.4545455,11.6132727 L17.4545455,15.2727273 C17.4545455,15.8749091 18.1876364,16.3636364 19.0909091,16.3636364 C19.9941818,16.3636364 20.7272727,15.8749091 20.7272727,15.2727273 L20.7272727,8.72727273 C20.7272727,3.91527273 16.812,0 12,0" id="Fill-85" fill="#C5CCCD"></path>
                        <path d="M9.94309091,3.36109091 C7.308,3.84381818 5.45454545,6.24272727 5.45454545,8.922 L5.45454545,11.3432727 C5.45454545,11.8658182 5.20909091,12.3627273 4.782,12.6627273 C4.24636364,13.0390909 3.74127273,13.4547273 3.27272727,13.9090909 L3.27272727,15.2727273 C3.27272727,15.8749091 4.00581818,16.3636364 4.90909091,16.3636364 C5.81236364,16.3636364 6.54545455,15.8749091 6.54545455,15.2727273 L6.54545455,8.72727273 C6.54545455,5.90345455 8.70163636,3.57545455 11.4545455,3.30054545 C10.9696364,3.25145455 10.4694545,3.26454545 9.94309091,3.36109091" id="Fill-87" fill="#C5CCCD"></path>
                        <path d="M12,12 C5.98472727,12 1.09090909,16.8938182 1.09090909,22.9090909 C1.09090909,28.9243636 5.98472727,33.8181818 12,33.8181818 C18.0152727,33.8181818 22.9090909,28.9243636 22.9090909,22.9090909 C22.9090909,16.8938182 18.0152727,12 12,12" id="Fill-88" fill="#30404D"></path>
                        <path d="M12,12 L12,14.7272727 C11.6983636,14.7272727 11.4545455,14.4834545 11.4545455,14.1818182 L11.4545455,14.7272727 C11.4545455,14.8990909 11.5341818,15.0523636 11.658,15.1521818 C11.8990909,15.3463636 12,15.6681818 12,15.9774545 L12,26.7267273 C11.0225455,26.7267273 10.0450909,26.3541818 9.3,25.6085455 C8.62363636,24.9332727 8.25818182,24.066 8.19490909,23.1818182 C8.11909091,24.2481818 8.48563636,25.3401818 9.3,26.1550909 C9.76309091,26.6181818 10.3161818,26.9378182 10.9036364,27.1129091 C11.5701818,27.312 12,27.9616364 12,28.6570909 L12,33.8181818 C18.0152727,33.8181818 22.9090909,28.9243636 22.9090909,22.9090909 C22.9090909,16.8938182 18.0152727,12 12,12" id="Fill-89" fill="#182A37"></path>
                        <path d="M6.21490909,17.124 C6.108,17.2303636 5.96836364,17.2832727 5.82872727,17.2832727 C5.68963636,17.2832727 5.55,17.2303636 5.44309091,17.124 L4.69309091,16.374 C3.25145455,17.9841818 2.33618182,20.0678182 2.20963636,22.3636364 L2.26309091,22.3636364 C2.49490909,20.2854545 3.36709091,18.4003636 4.69309091,16.9194545 L5.44309091,17.6694545 C5.55,17.7758182 5.68963636,17.8287273 5.82872727,17.8287273 C5.96836364,17.8287273 6.108,17.7758182 6.21490909,17.6694545 C6.39436364,17.4894545 6.41345455,17.22 6.28963636,17.0105455 C6.26672727,17.0498182 6.24818182,17.0901818 6.21490909,17.124" id="Fill-90" fill="#182A37"></path>
                        <path d="M11.4545455,13.6641818 L11.4545455,13.1187273 C9.15872727,13.2452727 7.07509091,14.1605455 5.46490909,15.6021818 L5.76327273,15.9010909 C7.33090909,14.6056364 9.29618182,13.7830909 11.4545455,13.6641818" id="Fill-91" fill="#182A37"></path>
                        <path d="M3.27272727,23.4545455 L2.20963636,23.4545455 C2.21945455,23.6389091 2.24345455,23.8189091 2.26309091,24 L3.27272727,24 C3.57436364,24 3.81818182,23.7561818 3.81818182,23.4545455 C3.81818182,23.3536364 3.78272727,23.2630909 3.73472727,23.1818182 C3.63927273,23.3416364 3.47236364,23.4545455 3.27272727,23.4545455" id="Fill-92" fill="#182A37"></path>
                        <path d="M6.21490909,29.466 L5.46490909,30.216 C5.56090909,30.3021818 5.66454545,30.3796364 5.76327273,30.4625455 L6.21490909,30.0114545 C6.39436364,29.8314545 6.41345455,29.562 6.28963636,29.3525455 C6.26672727,29.3918182 6.24818182,29.4321818 6.21490909,29.466" id="Fill-93" fill="#182A37"></path>
                        <path d="M19.3063636,29.4441818 L18.5563636,28.6941818 C18.3436364,28.4814545 17.9983636,28.4814545 17.7850909,28.6941818 C17.5723636,28.9074545 17.5723636,29.2527273 17.7850909,29.466 L18.5350909,30.216 C16.9249091,31.6576364 14.8412727,32.5729091 12.5454545,32.6994545 L12.5454545,31.6363636 C12.5454545,31.3347273 12.3016364,31.0909091 12,31.0909091 C11.6983636,31.0909091 11.4545455,31.3347273 11.4545455,31.6363636 L11.4545455,32.6994545 C9.15872727,32.5729091 7.07509091,31.6576364 5.46490909,30.216 L6.21490909,29.466 C6.42763636,29.2527273 6.42763636,28.9074545 6.21490909,28.6941818 C6.00163636,28.4814545 5.65636364,28.4814545 5.44309091,28.6941818 L4.69309091,29.4441818 C3.25145455,27.834 2.33618182,25.7503636 2.20963636,23.4545455 L3.27272727,23.4545455 C3.57436364,23.4545455 3.81818182,23.2107273 3.81818182,22.9090909 C3.81818182,22.6074545 3.57436364,22.3636364 3.27272727,22.3636364 L2.20963636,22.3636364 C2.33618182,20.0678182 3.25145455,17.9841818 4.69309091,16.374 L5.44309091,17.124 C5.55,17.2303636 5.68963636,17.2832727 5.82872727,17.2832727 C5.96836364,17.2832727 6.108,17.2303636 6.21490909,17.124 C6.42763636,16.9107273 6.42763636,16.5654545 6.21490909,16.3521818 L5.46490909,15.6021818 C7.07509091,14.1605455 9.15872727,13.2452727 11.4545455,13.1187273 L11.4545455,14.1818182 C11.4545455,14.4834545 11.6983636,14.7272727 12,14.7272727 C12.3016364,14.7272727 12.5454545,14.4834545 12.5454545,14.1818182 L12.5454545,13.1187273 C14.8412727,13.2452727 16.9249091,14.1605455 18.5350909,15.6021818 L17.7850909,16.3521818 C17.5723636,16.5654545 17.5723636,16.9107273 17.7850909,17.124 C17.892,17.2303636 18.0316364,17.2832727 18.1707273,17.2832727 C18.3103636,17.2832727 18.45,17.2303636 18.5563636,17.124 L19.3063636,16.374 C20.7485455,17.9841818 21.6638182,20.0678182 21.7903636,22.3636364 L20.7272727,22.3636364 C20.4256364,22.3636364 20.1818182,22.6074545 20.1818182,22.9090909 C20.1818182,23.2107273 20.4256364,23.4545455 20.7272727,23.4545455 L21.7903636,23.4545455 C21.6638182,25.7503636 20.7485455,27.834 19.3063636,29.4441818 Z M12,10.9090909 C5.38309091,10.9090909 0,16.2921818 0,22.9090909 C0,29.526 5.38309091,34.9090909 12,34.9090909 C18.6169091,34.9090909 24,29.526 24,22.9090909 C24,16.2921818 18.6169091,10.9090909 12,10.9090909 L12,10.9090909 Z" id="Fill-94" fill="#546670"></path>
                        <polyline id="Fill-95" fill="#DF5142" points="15.4712727 21.7521818 12.7909091 22.0789091 13.1765455 19.4187273 16.6090909 18.2612727 15.4712727 21.7521818"></polyline>
                        <path d="M14.7,25.6085455 C16.1907273,24.1183636 16.1901818,21.6992727 14.7,20.2096364 C13.2087273,18.7178182 10.7912727,18.7178182 9.3,20.2096364 L14.7,25.6085455" id="Fill-96" fill="#ADBDC4"></path>
                        <path d="M9.3,20.2096364 C7.80927273,21.6998182 7.80981818,24.1189091 9.3,25.6085455 C10.7912727,27.1003636 13.2087273,27.1003636 14.7,25.6085455 L9.3,20.2096364" id="Fill-97" fill="#A0AEB3"></path>
                    </g>
                    <g id="Group" transform="translate(8.000000, 34.000000)" fill-rule="nonzero">
                        <ellipse id="Shadow" fill="#000000" opacity="0.1" cx="22.5656979" cy="48.2557735" rx="18.1035294" ry="3.1545098"></ellipse>
                        <g id="Cape" transform="translate(33.135110, 5.007146)">
                            <path d="M0.103529412,13.2862745 C0.103529412,16.4235294 2.45647059,19.5607843 4.02509804,19.5607843 C5.59372549,19.5607843 7.16235294,18.7764706 8.73098039,17.9921569 C10.2996078,17.2078431 14.2211765,19.5607843 17.3584314,18.7764706 C20.4956863,17.9921569 19.7113725,10.9333333 23.6329412,10.1490196 C27.5545098,9.36470588 29.907451,13.2862745 33.8290196,13.2862745 C37.7505882,13.2862745 43.2407843,10.1490196 45.5937255,5.44313725 C45.5937255,5.44313725 40.1035294,10.1490196 36.9662745,9.36470588 C33.8290196,8.58039216 30.6917647,0.737254902 27.5545098,2.30588235 C24.4172549,3.8745098 20.4956863,9.36470588 13.4368627,9.36470588 C8.73098039,9.36470588 4.54823529,7.53490196 0.887843137,3.8745098 C0.364705882,8.05803922 0.103529412,11.1952941 0.103529412,13.2862745 Z" id="Path-3" fill="#DF5142"></path>
                            <path d="M29.707451,11.5152941 L29.707451,11.9490196 C26.5858824,10.3254902 23.5160784,9.98745098 20.4956863,10.9341176 C15.4901961,12.5027451 14.2211765,14.8556863 8.73098039,14.8556863 C3.24078431,14.8556863 0.887843137,10.1498039 0.103529412,0.738039216 C4.80941176,7.79686275 7.16235294,7.79686275 8.73098039,7.79686275 C10.2996078,7.79686275 11.8682353,7.79686275 14.2211765,4.26745098 C16.5741176,0.738039216 21.28,2.30666667 22.8486275,4.26745098 C23.8094118,5.46823529 26.0956863,7.88470588 29.707451,11.5152941 Z" id="Path-2" fill="#C2423D"></path>
                        </g>
                        <g id="Legs" transform="translate(20.910655, 38.543951) rotate(-4.000000) translate(-20.910655, -38.543951) translate(10.322420, 27.171402)" fill="#30404D">
                            <path d="M3.70199544,18.3530885 L3.43768171,14.7828924 C3.23121906,11.9959689 3.32324508,9.1949598 3.71219151,6.42759827 L4.30591701,2.20563749 C4.36016519,1.69265188 4.68988302,1.25009407 5.16590141,1.05133895 C5.64191979,0.85258383 6.18844447,0.929278283 6.59137086,1.25137676 C6.99429725,1.57347524 7.18946919,2.08969145 7.10042681,2.59779435 L6.55925034,6.45504925 C6.17785132,9.16852793 6.08190234,11.9145086 6.27297583,14.6479904 L6.6196425,19.6150493 C6.64081897,19.9123042 6.56787779,20.1938728 6.42670132,20.4323042 C6.18083643,20.8682554 5.72242398,21.1413331 5.22199544,21.1499512 L2.61572093,21.1954414 C1.85166465,21.1871431 1.23288191,20.57246 1.21950476,19.8084758 C1.2061276,19.0444916 1.80301176,18.4085225 2.56630916,18.3734806 L3.70199544,18.3530885 L3.70199544,18.3530885 Z" id="Combined-Shape" transform="translate(4.170468, 11.068882) rotate(4.000000) translate(-4.170468, -11.068882) "></path>
                            <path d="M16.939905,19.5122021 L16.6748069,15.942006 C16.4683443,13.1550826 16.5603703,10.3540734 16.9493167,7.58671189 L17.5430422,3.36475111 C17.6017106,2.85543003 17.931888,2.41794707 18.4055998,2.22186779 C18.8793116,2.02578851 19.4220915,2.10193608 19.8235615,2.4207962 C20.2250315,2.73965631 20.4220816,3.25110497 20.3383363,3.75690797 L19.7963756,7.61337856 C19.4149217,10.3271156 19.3189726,13.073362 19.510101,15.8071041 L19.857552,20.7741629 C19.8779442,21.0714178 19.805003,21.3529864 19.6638265,21.5914178 C19.417903,22.0268282 18.9598893,22.2995477 18.459905,22.3082805 L15.8528461,22.3537707 C15.0887899,22.3454724 14.4700071,21.7307893 14.45663,20.9668051 C14.4432528,20.2028209 15.040137,19.5668518 15.8034344,19.5318099 L16.939905,19.5122021 L16.939905,19.5122021 Z" id="Combined-Shape-Copy" transform="translate(17.406870, 12.234147) scale(-1, 1) rotate(-4.000000) translate(-17.406870, -12.234147) "></path>
                        </g>
                        <g id="Arm" transform="translate(37.056691, 18.340839) rotate(8.000000) translate(-37.056691, -18.340839) translate(32.350808, 9.713388)" fill="#30404D">
                            <path d="M1.57647059,13.6494118 L5.15372549,9.53411765 C5.70128019,8.90436603 5.65991861,7.95615174 5.05960784,7.37647059 L0.738039216,3.20392157 C0.177369803,2.66222239 0.161920133,1.7685994 0.703529412,1.20784314 C1.24470588,0.647058824 1.31529412,0.0337254902 1.87607843,0.574901961 L8.27764706,7.44941176 C8.79558944,8.00542095 8.84053153,8.85271145 8.38431373,9.46039216 L4.73098039,14.3223529 C5.20073422,14.7892934 5.28271308,15.5200276 4.9281039,16.0794509 C4.57349473,16.6388741 3.87765089,16.8765593 3.25490196,16.6509804 L2.1254902,16.24 C1.4603357,15.9975217 1.07764021,15.2998822 1.23058824,14.6086275 C1.2227451,14.2698039 1.33568627,13.9262745 1.57568627,13.6494118 L1.57647059,13.6494118 Z" id="Combined-Shape"></path>
                        </g>
                        <g id="Arm-Copy" transform="translate(5.490196, 18.340915) scale(-1, 1) rotate(4.000000) translate(-5.490196, -18.340915) translate(0.784314, 9.713464)" fill="#30404D">
                            <path d="M1.57647059,13.6494118 L5.15372549,9.53411765 C5.70128019,8.90436603 5.65991861,7.95615174 5.05960784,7.37647059 L0.738039216,3.20392157 C0.177369803,2.66222239 0.161920133,1.7685994 0.703529412,1.20784314 C1.24470588,0.647058824 1.31529412,0.0337254902 1.87607843,0.574901961 L8.27764706,7.44941176 C8.79558944,8.00542095 8.84053153,8.85271145 8.38431373,9.46039216 L4.73098039,14.3223529 C5.20073422,14.7892934 5.28271308,15.5200276 4.9281039,16.0794509 C4.57349473,16.6388741 3.87765089,16.8765593 3.25490196,16.6509804 L2.1254902,16.24 C1.4603357,15.9975217 1.07764021,15.2998822 1.23058824,14.6086275 C1.2227451,14.2698039 1.33568627,13.9262745 1.57568627,13.6494118 L1.57647059,13.6494118 Z" id="Combined-Shape"></path>
                        </g>
                        <g id="Shield" transform="translate(21.142632, 17.254902) rotate(2.000000) translate(-21.142632, -17.254902) translate(7.024985, 0.784314)">
                            <path d="M13.9513725,1.0172549 C11.2431373,4.07294118 6.47215686,5.08627451 1.03372549,5.08627451 L1.03372549,13.225098 C1.03372549,21.6156863 4.81176471,27.0156863 13.9513725,31.5364706 C23.0909804,27.0156863 26.8690196,21.614902 26.8690196,13.225098 L26.8690196,5.08627451 C21.4313725,5.08627451 16.6603922,4.07294118 13.9513725,1.0172549" id="Fill-22" fill="#2D4A5E"></path>
                            <path d="M13.9513725,31.5364706 C23.0909804,27.0156863 26.8690196,21.614902 26.8690196,13.225098 L26.8690196,5.08627451 C21.4313725,5.08627451 16.6603922,4.07294118 13.9513725,1.0172549 L13.9513725,31.5364706 Z" id="Fill-23" fill="#000000" opacity="0.100000001"></path>
                            <path d="M2.06666667,6.07843137 L2.06666667,13.2156863 C2.06666667,21.0980392 5.51843137,26.105098 13.9513725,30.3937255 C22.3843137,26.105098 25.8360784,21.0980392 25.8360784,13.214902 L25.8360784,6.07764706 C20.4039216,5.94666667 16.4956863,4.75607843 13.9513725,2.45647059 C11.4070588,4.75607843 7.49960784,5.94666667 2.06666667,6.07764706 L2.06666667,6.07843137 Z M13.9513725,32.5537259 C13.7921569,32.5537259 13.6337255,32.5176471 13.4878431,32.4454902 C4.03372549,27.7670588 0,22.0156863 0,13.214902 L0,5.07294118 C0,4.50980392 0.462745098,4.05490196 1.03372549,4.05490196 C6.9827451,4.05490196 10.9537255,2.83686275 13.172549,0.331764706 C13.5654902,-0.110588235 14.3372549,-0.110588235 14.7301961,0.331764706 C16.9498039,2.83686275 20.92,4.05490196 26.8698039,4.05490196 C27.44,4.05490196 27.9027451,4.51058824 27.9027451,5.07294118 L27.9027451,13.214902 C27.9027451,22.014902 23.8690196,27.7670588 14.4156863,32.4454902 C14.271307,32.5168205 14.1124109,32.5537259 13.9513725,32.5537259 Z" id="Fill-24" fill="#182A37"></path>
                        </g>
                    </g>
                </g>
                <g id="Azure-Border">
                    <path d="M50,0 C74.5263677,-4.50542066e-15 94.9281966,17.6592499 99.1842495,40.9565123 L94.2027317,73.3905473 C85.8096395,89.2186645 69.1638777,100 50,100 C30.9551233,100 14.3971863,89.3521454 5.95457608,73.6848234 L0.0261464987,48.3675131 C0.887696267,21.508872 22.932015,4.97230817e-15 50,0 Z" id="Combined-Shape" fill="url(#linearGradient-5)" fill-rule="evenodd" opacity="0.400000006" style="mix-blend-mode: overlay;"></path>
                    <g>
                        <use fill="black" fill-opacity="1" filter="url(#filter-7)" xlink:href="#path-6"></use>
                        <rect stroke="#F2F1F0" stroke-width="4" stroke-linejoin="square" x="-1" y="-1" width="102" height="102" rx="51"></rect>
                    </g>
                    <rect stroke="#0078D4" stroke-width="4" x="2" y="2" width="96" height="96" rx="48"></rect>
                </g>
            </g>
        </g>
    </g>
</svg>