<svg width="100" height="100" viewBox="0 0 100 100" fill="none" xmlns="https://www.w3.org/2000/svg">
<g clip-path="url(#clip0)">
<path d="M49.6401 96.4481C40.382 96.4481 31.3317 93.7028 23.6339 88.5592C15.936 83.4157 9.93624 76.105 6.3933 67.5516C2.85036 58.9981 1.92337 49.5862 3.72954 40.506C5.53571 31.4257 9.99394 23.085 16.5404 16.5385C23.0869 9.99198 31.4277 5.53376 40.5079 3.72759C49.5882 1.92141 59.0001 2.84841 67.5535 6.39135C76.1069 9.93428 83.4176 15.934 88.5612 23.6319C93.7047 31.3298 96.4501 40.38 96.4501 49.6381C96.4505 55.7854 95.24 61.8726 92.8878 67.5521C90.5355 73.2315 87.0875 78.392 82.7407 82.7388C78.3939 87.0856 73.2335 90.5335 67.554 92.8858C61.8746 95.2381 55.7874 96.4486 49.6401 96.4481V96.4481Z" fill="url(#paint0_linear)"/>
<path fill-rule="evenodd" clip-rule="evenodd" d="M95.54 49.64C95.54 58.7182 92.848 67.5925 87.8045 75.1407C82.7609 82.6889 75.5923 88.572 67.2052 92.0461C58.818 95.5201 49.5891 96.4291 40.6854 94.658C31.7816 92.887 23.603 88.5154 17.1838 82.0962C10.7646 75.677 6.39302 67.4984 4.62196 58.5946C2.85089 49.6909 3.75987 40.462 7.23393 32.0748C10.708 23.6877 16.5911 16.5191 24.1393 11.4755C31.6875 6.43199 40.5618 3.74 49.64 3.74C55.6677 3.73998 61.6363 4.9272 67.2052 7.23388C72.774 9.54057 77.834 12.9215 82.0963 17.1837C86.3585 21.446 89.7394 26.5059 92.0461 32.0748C94.3528 37.6437 95.54 43.6123 95.54 49.64V49.64ZM49.64 3.62732e-07C59.4579 3.62732e-07 69.0553 2.91134 77.2185 8.36585C85.3818 13.8204 91.7442 21.5731 95.5014 30.6436C99.2585 39.7141 100.242 49.6951 98.3262 59.3243C96.4108 68.9535 91.6831 77.7985 84.7408 84.7408C77.7985 91.6831 68.9535 96.4108 59.3243 98.3262C49.6951 100.242 39.7141 99.2585 30.6436 95.5014C21.5731 91.7442 13.8204 85.3818 8.36585 77.2185C2.91134 69.0553 3.62732e-07 59.4579 3.62732e-07 49.64C-0.000787738 43.121 1.28265 36.6656 3.77702 30.6427C6.27138 24.6197 9.9278 19.1471 14.5375 14.5375C19.1471 9.9278 24.6197 6.27138 30.6427 3.77702C36.6656 1.28265 43.121 -0.000787738 49.64 3.62732e-07V3.62732e-07Z" fill="#F2F1F0"/>
<path fill-rule="evenodd" clip-rule="evenodd" d="M92.7296 49.6386C92.7296 58.161 90.2024 66.492 85.4676 73.5781C80.7328 80.6643 74.0031 86.1872 66.1294 89.4486C58.2557 92.71 49.5918 93.5633 41.2331 91.9007C32.8745 90.238 25.1966 86.1341 19.1703 80.1079C13.1441 74.0816 9.04017 66.4037 7.37753 58.0451C5.7149 49.6864 6.56822 41.0225 9.8296 33.1488C13.091 25.2751 18.6139 18.5454 25.7 13.8106C32.7862 9.07581 41.1172 6.54862 49.6396 6.54862C55.2983 6.54828 60.9017 7.6626 66.1298 9.82795C71.3579 11.9933 76.1082 15.1673 80.1096 19.1686C84.1109 23.17 87.2849 27.9203 89.4502 33.1484C91.6156 38.3765 92.7299 43.9799 92.7296 49.6386V49.6386ZM49.6396 2.80862C58.9017 2.80862 67.9558 5.55515 75.6569 10.7009C83.3581 15.8466 89.3604 23.1605 92.9049 31.7176C96.4493 40.2746 97.3767 49.6906 95.5697 58.7747C93.7628 67.8588 89.3027 76.2031 82.7534 82.7524C76.2041 89.3017 67.8598 93.7619 58.7757 95.5688C49.6915 97.3757 40.2756 96.4484 31.7185 92.9039C23.1614 89.3594 15.8476 83.3571 10.7018 75.656C5.5561 67.9548 2.80957 58.9007 2.80957 49.6386C2.81076 37.2189 7.745 25.3082 16.5271 16.5261C25.3091 7.74403 37.2198 2.80979 49.6396 2.80859V2.80862Z" fill="#0078D4"/>
<path d="M41.383 44.3867H24.2403C22.9502 44.3867 21.9043 45.4326 21.9043 46.7227V72.5126C21.9043 73.8028 22.9502 74.8486 24.2403 74.8486H41.383C42.6732 74.8486 43.7191 73.8028 43.7191 72.5126V46.7227C43.7191 45.4326 42.6732 44.3867 41.383 44.3867Z" fill="white"/>
<path d="M32.7869 56.8336C34.7926 56.8336 36.4185 55.2076 36.4185 53.2019C36.4185 51.1962 34.7926 49.5703 32.7869 49.5703C30.7812 49.5703 29.1553 51.1962 29.1553 53.2019C29.1553 55.2076 30.7812 56.8336 32.7869 56.8336Z" fill="#E8E8E8"/>
<path fill-rule="evenodd" clip-rule="evenodd" d="M26.4028 63.7708C26.4028 62.0776 27.0754 60.4538 28.2727 59.2566C29.4699 58.0593 31.0937 57.3867 32.7869 57.3867C34.48 57.3867 36.1038 58.0593 37.3011 59.2566C38.4983 60.4538 39.1709 62.0776 39.1709 63.7708H26.4028Z" fill="#E8E8E8"/>
<path d="M26.4028 66.9766H39.1709" stroke="#E8E8E8" stroke-width="1.35492" stroke-miterlimit="10" stroke-linecap="round"/>
<path d="M26.4028 70.0156H35.9773" stroke="#E8E8E8" stroke-width="1.35492" stroke-miterlimit="10" stroke-linecap="round"/>
<path d="M74.9968 44.3867H57.8541C56.5639 44.3867 55.5181 45.4326 55.5181 46.7227V72.5126C55.5181 73.8028 56.5639 74.8486 57.8541 74.8486H74.9968C76.287 74.8486 77.3328 73.8028 77.3328 72.5126V46.7227C77.3328 45.4326 76.287 44.3867 74.9968 44.3867Z" fill="white"/>
<path d="M66.4011 56.8336C68.4068 56.8336 70.0328 55.2076 70.0328 53.2019C70.0328 51.1962 68.4068 49.5703 66.4011 49.5703C64.3955 49.5703 62.7695 51.1962 62.7695 53.2019C62.7695 55.2076 64.3955 56.8336 66.4011 56.8336Z" fill="#E8E8E8"/>
<path fill-rule="evenodd" clip-rule="evenodd" d="M60.0171 63.7708C60.0171 62.0776 60.6897 60.4538 61.8869 59.2566C63.0842 58.0593 64.708 57.3867 66.4011 57.3867C68.0943 57.3867 69.7181 58.0593 70.9153 59.2566C72.1126 60.4538 72.7852 62.0776 72.7852 63.7708H60.0171Z" fill="#E8E8E8"/>
<path d="M60.0171 66.9766H72.7852" stroke="#E8E8E8" stroke-width="1.35492" stroke-miterlimit="10" stroke-linecap="round"/>
<path d="M60.0171 70.0156H69.5916" stroke="#E8E8E8" stroke-width="1.35492" stroke-miterlimit="10" stroke-linecap="round"/>
<path opacity="0.2" d="M55.5186 44.3867V69.9581H59.7262C60.9851 69.9567 62.1919 69.456 63.0821 68.5659C63.9722 67.6758 64.4729 66.4689 64.4742 65.2101V44.3867H55.5186Z" fill="#767676"/>
<path opacity="0.2" d="M34.812 44.3867V65.2101C34.8134 66.469 35.3141 67.6758 36.2042 68.566C37.0943 69.4561 38.3012 69.9568 39.56 69.9582H43.719V44.3867H34.812Z" fill="#767676"/>
<path d="M59.7262 32.1211H39.56C38.0423 32.1211 36.812 33.3514 36.812 34.8691V65.2075C36.812 66.7251 38.0423 67.9555 39.56 67.9555H59.7262C61.2438 67.9555 62.4742 66.7251 62.4742 65.2075V34.8691C62.4742 33.3514 61.2438 32.1211 59.7262 32.1211Z" fill="white"/>
<path d="M49.6144 46.763C51.9738 46.763 53.8865 44.8503 53.8865 42.4909C53.8865 40.1314 51.9738 38.2188 49.6144 38.2188C47.255 38.2188 45.3423 40.1314 45.3423 42.4909C45.3423 44.8503 47.255 46.763 49.6144 46.763Z" fill="#0078D4"/>
<path fill-rule="evenodd" clip-rule="evenodd" d="M42.1045 54.928C42.1045 52.9362 42.8957 51.026 44.3041 49.6176C45.7125 48.2092 47.6227 47.418 49.6145 47.418C51.6063 47.418 53.5165 48.2092 54.9249 49.6176C56.3333 51.026 57.1245 52.9362 57.1245 54.928H42.1045Z" fill="#0078D4"/>
<path d="M42.1045 58.6992H57.1244" stroke="#0078D4" stroke-width="1.59388" stroke-miterlimit="10" stroke-linecap="round"/>
<path d="M42.1045 62.2734H53.3676" stroke="#0078D4" stroke-width="1.59388" stroke-miterlimit="10" stroke-linecap="round"/>
<path opacity="0.2" fill-rule="evenodd" clip-rule="evenodd" d="M39.478 32.1211C40.3681 34.0697 41.7994 35.7215 43.6017 36.8797C45.4039 38.0378 47.501 38.6536 49.6433 38.6536C51.7856 38.6536 53.8827 38.0378 55.685 36.8797C57.4872 35.7215 58.9186 34.0697 59.8086 32.1211H39.478Z" fill="#767676"/>
<path d="M49.6431 36.6572C54.7218 36.6572 58.8389 32.5401 58.8389 27.4614C58.8389 22.3827 54.7218 18.2656 49.6431 18.2656C44.5644 18.2656 40.4473 22.3827 40.4473 27.4614C40.4473 32.5401 44.5644 36.6572 49.6431 36.6572Z" fill="white"/>
<path fill-rule="evenodd" clip-rule="evenodd" d="M52.8975 25.5128H48.0863V24.1879C48.0863 23.9873 48.1258 23.7886 48.2026 23.6033C48.2794 23.4179 48.3919 23.2495 48.5338 23.1076C48.6756 22.9658 48.8441 22.8532 49.0294 22.7764C49.2148 22.6997 49.4135 22.6601 49.6141 22.6601C49.8147 22.6601 50.0134 22.6997 50.1988 22.7764C50.3841 22.8532 50.5525 22.9658 50.6944 23.1076C50.8363 23.2495 50.9488 23.4179 51.0256 23.6033C51.1024 23.7886 51.1419 23.9873 51.1419 24.1879H52.2422C52.2429 23.8424 52.1754 23.5001 52.0436 23.1806C51.9119 22.8612 51.7184 22.5709 51.4743 22.3263C51.2302 22.0817 50.9402 21.8876 50.621 21.7552C50.3018 21.6228 49.9596 21.5547 49.6141 21.5547C49.2685 21.5547 48.9264 21.6228 48.6072 21.7552C48.288 21.8876 47.998 22.0817 47.7539 22.3263C47.5098 22.5709 47.3163 22.8612 47.1845 23.1806C47.0528 23.5001 46.9853 23.8424 46.986 24.1879V25.5128H46.3307C46.2615 25.5128 46.193 25.5265 46.129 25.553C46.0651 25.5795 46.007 25.6183 45.958 25.6672C45.9091 25.7162 45.8703 25.7743 45.8438 25.8383C45.8173 25.9022 45.8037 25.9707 45.8037 26.04V31.1869C45.8037 31.3266 45.8592 31.4607 45.9581 31.5595C46.0569 31.6584 46.1909 31.7139 46.3307 31.7139H52.8975C53.0372 31.7139 53.1713 31.6584 53.2701 31.5595C53.369 31.4607 53.4245 31.3266 53.4245 31.1869V26.04C53.4245 25.9002 53.369 25.7661 53.2701 25.6673C53.1713 25.5684 53.0372 25.5129 52.8975 25.5128V25.5128Z" fill="#0078D4"/>
<path fill-rule="evenodd" clip-rule="evenodd" d="M51.3037 27.5642C51.2176 27.4781 51.1007 27.4297 50.9789 27.4297C50.857 27.4297 50.7402 27.4781 50.654 27.5642L49.1395 29.0776L48.5924 28.5358C48.5796 28.5168 48.5651 28.499 48.5492 28.4826C48.4636 28.3968 48.3476 28.3483 48.2264 28.3477C48.1052 28.3471 47.9887 28.3945 47.9023 28.4795C47.8159 28.5644 47.7666 28.6801 47.7652 28.8013C47.7637 28.9225 47.8103 29.0393 47.8946 29.1263L47.8891 29.1318L48.816 30.0502C48.9022 30.1363 49.0191 30.1847 49.141 30.1847C49.2628 30.1847 49.3797 30.1363 49.466 30.0502L51.3024 28.2146L51.3038 28.2135C51.3464 28.1709 51.3803 28.1202 51.4034 28.0645C51.4265 28.0088 51.4383 27.9491 51.4383 27.8888C51.4383 27.8285 51.4264 27.7688 51.4033 27.7131C51.3803 27.6574 51.3464 27.6068 51.3037 27.5642V27.5642Z" fill="white"/>
</g>
<defs>
<linearGradient id="paint0_linear" x1="47.8697" y1="-15.155" x2="51.8525" y2="130.613" gradientUnits="userSpaceOnUse">
<stop stop-color="#00ABDE"/>
<stop offset="1" stop-color="#007ED8"/>
</linearGradient>
<clipPath id="clip0">
<rect width="99.2799" height="99.28" fill="white"/>
</clipPath>
</defs>
</svg>
