<?xml version="1.0" encoding="UTF-8"?>
<svg width="107px" height="107px" viewBox="0 0 107 107" version="1.1" xmlns="http://www.w3.org/2000/svg" xmlns:xlink="http://www.w3.org/1999/xlink">
    <!-- Generator: Sketch 63.1 (92452) - https://sketch.com -->
    <title>Protect your enterprise information with Microsoft 365/Protect-your-data-with-sensitivity-labels</title>
    <desc>Created with Sketch.</desc>
    <defs>
        <rect id="path-1" x="0" y="0" width="100" height="100" rx="50"></rect>
        <filter x="-6.2%" y="-8.0%" width="112.3%" height="116.0%" filterUnits="objectBoundingBox" id="filter-3">
            <feOffset dx="0" dy="2" in="SourceAlpha" result="shadowOffsetOuter1"></feOffset>
            <feColorMatrix values="0 0 0 0 0   0 0 0 0 0   0 0 0 0 0  0 0 0 0.0964956975 0" type="matrix" in="shadowOffsetOuter1" result="shadowMatrixOuter1"></feColorMatrix>
            <feMerge>
                <feMergeNode in="shadowMatrixOuter1"></feMergeNode>
                <feMergeNode in="SourceGraphic"></feMergeNode>
            </feMerge>
        </filter>
        <filter x="-12.0%" y="-10.1%" width="125.8%" height="121.6%" filterUnits="objectBoundingBox" id="filter-4">
            <feOffset dx="0" dy="2" in="SourceAlpha" result="shadowOffsetOuter1"></feOffset>
            <feColorMatrix values="0 0 0 0 0   0 0 0 0 0   0 0 0 0 0  0 0 0 0.103742074 0" type="matrix" in="shadowOffsetOuter1" result="shadowMatrixOuter1"></feColorMatrix>
            <feMerge>
                <feMergeNode in="shadowMatrixOuter1"></feMergeNode>
                <feMergeNode in="SourceGraphic"></feMergeNode>
            </feMerge>
        </filter>
        <linearGradient x1="76.7275556%" y1="-4.05946744%" x2="15.5786468%" y2="110.793945%" id="linearGradient-5">
            <stop stop-color="#FFFFFF" offset="0%"></stop>
            <stop stop-color="#000000" stop-opacity="0.5" offset="100%"></stop>
        </linearGradient>
        <rect id="path-6" x="-3" y="-3" width="106" height="106" rx="53"></rect>
        <filter x="-0.5%" y="-0.5%" width="101.9%" height="101.9%" filterUnits="objectBoundingBox" id="filter-7">
            <feOffset dx="1" dy="1" in="SourceAlpha" result="shadowOffsetOuter1"></feOffset>
            <feMorphology radius="4" operator="erode" in="SourceAlpha" result="shadowInner"></feMorphology>
            <feOffset dx="1" dy="1" in="shadowInner" result="shadowInner"></feOffset>
            <feComposite in="shadowOffsetOuter1" in2="shadowInner" operator="out" result="shadowOffsetOuter1"></feComposite>
            <feColorMatrix values="0 0 0 0 0   0 0 0 0 0   0 0 0 0 0  0 0 0 0.15 0" type="matrix" in="shadowOffsetOuter1"></feColorMatrix>
        </filter>
    </defs>
    <g id="Badges" stroke="none" stroke-width="1" fill="none" fill-rule="evenodd">
        <g id="Protect-your-enterprise-information-with-Microsoft-365" transform="translate(-47.000000, -657.000000)">
            <g id="Protect-your-enterprise-information-with-Microsoft-365/Protect-your-data-with-sensitivity-labels" transform="translate(50.000000, 660.000000)">
                <g id="Mask" transform="translate(2.000000, 2.000000)">
                    <g id="Circle-" transform="translate(-2.000000, -0.000000)">
                        <mask id="mask-2" fill="white">
                            <use xlink:href="#path-1"></use>
                        </mask>
                        <g id="BG"></g>
                        <g id="Color-/-Microsoft-365" mask="url(#mask-2)" fill="#0078D4" fill-rule="evenodd">
                            <rect id="Rectangle" x="0" y="0" width="100" height="100"></rect>
                        </g>
                    </g>
                    <g id="Folder" filter="url(#filter-3)" transform="translate(16.000000, 23.000000)">
                        <path d="M25.002,0 L4.002,0 C1.802,0 0.002,1.8 0.002,4 L0.002,14 L64.002,14 L64.002,10 C64.002,7.8 62.203,6 60.002,6 L30.002,6 L25.002,0" id="Fill-213" fill="#CC9547"></path>
                        <path d="M64.002,46 C64.002,48.2 62.203,50 60.002,50 L4.002,50 C1.802,50 0.002,48.2 0.002,46 L0.002,14 C0.002,11.8 1.802,10 4.002,10 L60.002,10 C62.203,10 64.002,11.8 64.002,14 L64.002,46" id="Fill-214" fill="#EFB252"></path>
                    </g>
                    <rect id="Rectangle" fill="#E5E7E5" x="24" y="45" width="44" height="22" rx="3"></rect>
                    <rect id="Rectangle" fill="#C5CCCD" x="27" y="50" width="26" height="2" rx="1"></rect>
                    <rect id="Rectangle" fill="#C5CCCD" x="27" y="55" width="26" height="2" rx="1"></rect>
                    <rect id="Rectangle" fill="#C5CCCD" x="27" y="60" width="26" height="2" rx="1"></rect>
                    <g id="Shield-Blocking" transform="translate(51.000000, 35.000000)">
                        <g id="Shield" filter="url(#filter-4)" transform="translate(0.540339, 0.489167)">
                            <path d="M16.5736865,1.22768049 C13.355936,4.91563266 7.68834904,6.13840243 1.22768049,6.13840243 L1.22768049,15.9598463 C1.22768049,26.0857549 5.71608034,32.602283 16.5736865,38.058095 C27.4306789,32.602283 31.9196926,26.0857549 31.9196926,15.9598463 L31.9196926,6.13840243 C25.4596379,6.13840243 19.7914371,4.91563266 16.5736865,1.22768049" id="Fill-12" fill="#546670"></path>
                            <path d="M16.5736865,1.22768049 L16.5736865,26.3951304 C12.3737916,26.3951304 8.93935545,23.1479155 8.62445541,19.0290475 C8.6091094,19.2322286 8.5937634,19.4354098 8.5937634,19.6428878 C8.5937634,23.5248135 11.3664798,26.7603654 15.0396998,27.4754893 C15.9211744,27.6473645 16.5736865,28.3907251 16.5736865,29.2887733 L16.5736865,38.058095 C27.4306789,32.602283 31.9196926,26.0857549 31.9196926,15.9598463 L31.9196926,6.13840243 C25.4596379,6.13840243 19.7914371,4.91563266 16.5736865,1.22768049" id="Fill-13" fill="#182A37"></path>
                            <path d="M1.6735966,6.64334046 L1.6735966,15.733691 C1.6735966,25.7731125 6.00045315,32.150351 16.5736865,37.6122057 C27.1469199,32.150351 31.4737765,25.7731125 31.4737765,15.733691 L31.4737765,6.64334046 C24.6631397,6.47620032 19.7636015,4.96027813 16.5736865,2.03143871 C13.3837716,4.96027813 8.48423337,6.47620032 1.6735966,6.64334046 Z M16.5736865,39.2857755 C16.3846238,39.2857755 16.195561,39.2421929 16.022458,39.1550276 C4.79163693,33.508925 0,26.5682334 0,15.9481833 L0,6.12182874 C0,5.44353527 0.549387017,4.89353441 1.22768049,4.89353441 C8.29543704,4.89353441 13.0121855,3.42400087 15.6486293,0.400837678 C16.1151479,-0.133817173 17.0322252,-0.133817173 17.4987438,0.400837678 C20.1351876,3.42400087 24.8519361,4.89353441 31.9196926,4.89353441 C32.5973722,4.89353441 33.1473731,5.44353527 33.1473731,6.12182874 L33.1473731,15.9481833 C33.1473731,26.5682334 28.3557362,33.508925 17.1249151,39.1550276 C16.9518121,39.2421929 16.7627493,39.2857755 16.5736865,39.2857755 L16.5736865,39.2857755 Z" id="Fill-14" fill="#30404D"></path>
                            <path d="M24.5536097,18.4152073 C24.5536097,22.8219664 20.9810595,26.3951304 16.5736865,26.3951304 C12.1663136,26.3951304 8.5937634,22.8219664 8.5937634,18.4152073 C8.5937634,14.0084482 12.1663136,10.4352841 16.5736865,10.4352841 C20.9810595,10.4352841 24.5536097,14.0084482 24.5536097,18.4152073" id="Fill-15" fill="#30404D"></path>
                            <g id="Group-7" transform="translate(9.754504, 11.596024)">
                                <path d="M13.605169,6.81890098 C13.605169,10.5650134 10.5647314,13.6026306 6.81918302,13.6026306 C3.07363467,13.6026306 0.0331970785,10.5650134 0.0331970785,6.81890098 C0.0331970785,3.07278854 3.07363467,0.0357354773 6.81918302,0.0357354773 C10.5647314,0.0357354773 13.605169,3.07278854 13.605169,6.81890098" id="Fill-367" fill="#6E828F"></path>
                                <path d="M6.81918302,12.4862992 C6.50893429,12.4862992 6.25509442,12.2335875 6.25509442,11.9222106 L6.25509442,11.358122 C6.25509442,11.0467451 6.50893429,10.7940334 6.81918302,10.7940334 C7.12943176,10.7940334 7.38327163,11.0467451 7.38327163,11.358122 L7.38327163,11.9222106 C7.38327163,12.2335875 7.12943176,12.4862992 6.81918302,12.4862992" id="Fill-368" fill="#546670"></path>
                                <path d="M6.81918302,2.89679289 C6.50893429,2.89679289 6.25509442,2.6440812 6.25509442,2.33270429 L6.25509442,1.76861568 C6.25509442,1.45723877 6.50893429,1.20452707 6.81918302,1.20452707 C7.12943176,1.20452707 7.38327163,1.45723877 7.38327163,1.76861568 L7.38327163,2.33270429 C7.38327163,2.6440812 7.12943176,2.89679289 6.81918302,2.89679289" id="Fill-369" fill="#546670"></path>
                                <path d="M2.30647417,7.40950175 L1.74238556,7.40950175 C1.43213682,7.40950175 1.17829695,7.15679005 1.17829695,6.84541314 C1.17829695,6.53403623 1.43213682,6.28132454 1.74238556,6.28132454 L2.30647417,6.28132454 C2.6167229,6.28132454 2.87056277,6.53403623 2.87056277,6.84541314 C2.87056277,7.15679005 2.6167229,7.40950175 2.30647417,7.40950175" id="Fill-370" fill="#546670"></path>
                                <path d="M11.8959805,7.40950175 L11.3318919,7.40950175 C11.0216431,7.40950175 10.7678033,7.15679005 10.7678033,6.84541314 C10.7678033,6.53403623 11.0216431,6.28132454 11.3318919,6.28132454 L11.8959805,6.28132454 C12.2062292,6.28132454 12.4600691,6.53403623 12.4600691,6.84541314 C12.4600691,7.15679005 12.2062292,7.40950175 11.8959805,7.40950175" id="Fill-371" fill="#546670"></path>
                                <path d="M3.23157948,10.9987976 C3.08491644,10.9987976 2.93825341,10.944081 2.83107657,10.8335196 C2.61108201,10.613525 2.61108201,10.256457 2.83107657,10.0358983 L3.23157948,9.63708766 C3.45157404,9.4170931 3.80694986,9.4170931 4.02694442,9.63708766 C4.24693897,9.85764631 4.24693897,10.2147144 4.02694442,10.434709 L3.62644151,10.8335196 C3.51926467,10.944081 3.37260163,10.9987976 3.23157948,10.9987976" id="Fill-372" fill="#546670"></path>
                                <path d="M10.0119245,4.2184525 C9.8652615,4.2184525 9.72423935,4.16317182 9.61142163,4.05317454 C9.39142707,3.83317998 9.39142707,3.47611189 9.61142163,3.25555325 L10.0119245,2.85617851 C10.2319191,2.63561987 10.5872949,2.63618396 10.8072895,2.85561442 C11.027284,3.07560898 11.027284,3.43324116 10.8072895,3.65323572 L10.4124275,4.05261045 C10.2996097,4.16317182 10.1529467,4.2184525 10.0119245,4.2184525" id="Fill-373" fill="#546670"></path>
                                <path d="M3.62644151,4.2184525 C3.48541935,4.2184525 3.33875632,4.16317182 3.2259386,4.05261045 L2.83107657,3.65323572 C2.61108201,3.43324116 2.61108201,3.07560898 2.83107657,2.85561442 C3.05107113,2.63618396 3.40644695,2.63561987 3.62644151,2.85617851 L4.02694442,3.25555325 C4.24693897,3.47611189 4.24693897,3.83317998 4.02694442,4.05317454 C3.9141267,4.16317182 3.77310454,4.2184525 3.62644151,4.2184525" id="Fill-374" fill="#546670"></path>
                                <path d="M10.4067866,10.9987976 C10.2657644,10.9987976 10.1191014,10.944081 10.0119245,10.8335196 L9.61142163,10.434709 C9.39142707,10.2147144 9.39142707,9.85764631 9.61142163,9.63708766 C9.83141619,9.4170931 10.186792,9.4170931 10.4067866,9.63708766 L10.8072895,10.0358983 C11.027284,10.256457 11.027284,10.613525 10.8072895,10.8335196 C10.7001126,10.944081 10.5534496,10.9987976 10.4067866,10.9987976" id="Fill-375" fill="#546670"></path>
                                <path d="M9.63962606,7.40950175 L9.5832172,7.40950175 C9.32373644,8.69618786 8.18427745,9.66585618 6.81918302,9.66585618 C5.35819353,9.66585618 4.16796657,8.550653 4.02694442,7.12745745 C4.01566265,7.22109616 3.99873999,7.31247851 3.99873999,7.40950175 C3.99873999,8.96751448 5.26229847,10.2299448 6.81918302,10.2299448 C8.18427745,10.2299448 9.32373644,9.26027647 9.5832172,7.97359036 L9.63962606,7.97359036 C9.94987479,7.97359036 10.2037147,7.72087866 10.2037147,7.40950175 C10.2037147,7.30401718 10.1698694,7.21094256 10.1191014,7.12745745 C10.0175654,7.29273541 9.84833884,7.40950175 9.63962606,7.40950175" id="Fill-376" fill="#30404D"></path>
                                <path d="M9.63962606,6.28132454 L9.5832172,6.28132454 C9.32373644,4.99351025 8.18427745,4.02497011 6.81918302,4.02497011 C5.26229847,4.02497011 3.99873999,5.28740041 3.99873999,6.84541314 C3.99873999,8.40342588 5.26229847,9.66585618 6.81918302,9.66585618 C8.18427745,9.66585618 9.32373644,8.69618786 9.5832172,7.40950175 L9.63962606,7.40950175 C9.94987479,7.40950175 10.2037147,7.15679005 10.2037147,6.84541314 C10.2037147,6.53347214 9.94987479,6.28132454 9.63962606,6.28132454" id="Fill-377" fill="#ADBDC4"></path>
                            </g>
                        </g>
                    </g>
                </g>
                <g id="Azure-Border">
                    <path d="M50,0 C74.5263677,-4.50542066e-15 94.9281966,17.6592499 99.1842495,40.9565123 L94.2027317,73.3905473 C85.8096395,89.2186645 69.1638777,100 50,100 C30.9551233,100 14.3971863,89.3521454 5.95457608,73.6848234 L0.0261464987,48.3675131 C0.887696267,21.508872 22.932015,4.97230817e-15 50,0 Z" id="Combined-Shape" fill="url(#linearGradient-5)" fill-rule="evenodd" opacity="0.400000006" style="mix-blend-mode: overlay;"></path>
                    <g>
                        <use fill="black" fill-opacity="1" filter="url(#filter-7)" xlink:href="#path-6"></use>
                        <rect stroke="#F2F1F0" stroke-width="4" stroke-linejoin="square" x="-1" y="-1" width="102" height="102" rx="51"></rect>
                    </g>
                    <rect stroke="#0078D4" stroke-width="4" x="2" y="2" width="96" height="96" rx="48"></rect>
                </g>
            </g>
        </g>
    </g>
</svg>