<?xml version="1.0" encoding="UTF-8"?>
<svg width="100px" height="100px" viewBox="0 0 100 100" version="1.1" xmlns="http://www.w3.org/2000/svg" xmlns:xlink="http://www.w3.org/1999/xlink">
    <!-- Generator: Sketch 58 (84663) - https://sketch.com -->
    <title>Defend against threats with Microsoft 365/protect-against-threats</title>
    <desc>Created with Sketch.</desc>
    <defs>
        <rect id="path-1" x="0" y="0" width="96" height="96" rx="48"></rect>
    </defs>
    <g id="Badges" stroke="none" stroke-width="1" fill="none" fill-rule="evenodd">
        <g id="Defend-against-threats-with-Microsoft-365" transform="translate(-50.000000, -460.000000)">
            <g id="Defend-against-threats-with-Microsoft-365/protect-against-threats" transform="translate(50.000000, 460.000000)">
                <g id="Mask" transform="translate(2.000000, 2.000000)">
                    <mask id="mask-2" fill="white">
                        <use xlink:href="#path-1"></use>
                    </mask>
                    <use id="BG" fill="#55A2FF" xlink:href="#path-1"></use>
                    <ellipse id="Shadow" fill="#000000" fill-rule="nonzero" opacity="0.1" mask="url(#mask-2)" cx="49.5239703" cy="77.5597548" rx="23.082" ry="4.022"></ellipse>
                    <g id="Cape" mask="url(#mask-2)" fill-rule="nonzero">
                        <g transform="translate(62.999970, 22.417755)">
                            <path d="M0.132,16.94 C0.132,20.94 3.132,24.94 5.132,24.94 C7.132,24.94 9.132,23.94 11.132,22.94 C13.132,21.94 18.132,24.94 22.132,23.94 C26.132,22.94 25.132,13.94 30.132,12.94 C35.132,11.94 38.132,16.94 43.132,16.94 C48.132,16.94 55.132,12.94 58.132,6.94 C58.132,6.94 51.132,12.94 47.132,11.94 C43.132,10.94 39.132,0.94 35.132,2.94 C31.132,4.94 26.132,11.94 17.132,11.94 C11.132,11.94 5.799,9.607 1.132,4.94 C0.465,10.274 0.132,14.274 0.132,16.94 Z" id="Path-3" fill="#DF5142"></path>
                            <path d="M37.877,14.682 L37.877,15.235 C33.897,13.165 29.983,12.734 26.132,13.941 C19.75,15.941 18.132,18.941 11.132,18.941 C4.132,18.941 1.132,12.941 0.132,0.941 C6.132,9.941 9.132,9.941 11.132,9.941 C13.132,9.941 15.132,9.941 18.132,5.441 C21.132,0.941 27.132,2.941 29.132,5.441 C30.357,6.972 33.272,10.053 37.877,14.682 Z" id="Path-2" fill="#C2423D"></path>
                        </g>
                    </g>
                    <g id="Legs" mask="url(#mask-2)" fill="#30404D" fill-rule="nonzero">
                        <g transform="translate(47.413791, 65.177181) rotate(-4.000000) translate(-47.413791, -65.177181) translate(33.913791, 50.677181)">
                            <path d="M4.72004418,23.4001878 L4.38304418,18.8481878 C4.1198043,15.2948604 4.23713748,11.7235737 4.73304418,8.1951878 L5.49004418,2.8121878 C5.55921061,2.15813114 5.97960085,1.59386994 6.58652429,1.34045716 C7.19344774,1.08704438 7.8902667,1.18482981 8.40399784,1.59550537 C8.91772899,2.00618093 9.16657321,2.6643566 9.05304418,3.3121878 L8.36304418,8.2301878 C7.87676043,11.6898731 7.75442549,15.1909985 7.99804418,18.6761878 L8.44004418,25.0091878 C8.46704418,25.3881878 8.37404418,25.7471878 8.19404418,26.0511878 C7.88056645,26.6070256 7.29609057,26.9551997 6.65804418,26.9661878 L3.33504418,27.0241878 C2.36087243,27.0136074 1.57192444,26.2298865 1.55486857,25.2558066 C1.53781269,24.2817267 2.29883999,23.4708662 3.27204418,23.4261878 L4.72004418,23.4001878 L4.72004418,23.4001878 Z" id="Combined-Shape" transform="translate(5.317347, 14.112825) rotate(4.000000) translate(-5.317347, -14.112825) "></path>
                            <path d="M21.5983788,24.8780577 L21.2603788,20.3260577 C20.997139,16.7727303 21.1144721,13.2014436 21.6103788,9.67305767 L22.3673788,4.29005767 C22.442181,3.64067329 22.8631572,3.08288251 23.4671397,2.83288143 C24.0711223,2.58288035 24.7631666,2.6799685 25.2750409,3.08651515 C25.7869151,3.4930618 26.038154,4.14515883 25.9313788,4.79005767 L25.2403788,9.70705767 C24.7540251,13.1670723 24.6316901,16.6685366 24.8753788,20.1540577 L25.3183788,26.4870577 C25.3443788,26.8660577 25.2513788,27.2250577 25.0713788,27.5290577 C24.7578263,28.0842059 24.1738589,28.4319234 23.5363788,28.4430577 L20.2123788,28.5010577 C19.2382071,28.4904773 18.4492591,27.7067564 18.4322032,26.7326765 C18.4151473,25.7585966 19.1761746,24.9477361 20.1493788,24.9030577 L21.5983788,24.8780577 L21.5983788,24.8780577 Z" id="Combined-Shape-Copy" transform="translate(22.193759, 15.598537) scale(-1, 1) rotate(-4.000000) translate(-22.193759, -15.598537) "></path>
                        </g>
                    </g>
                    <g id="Arm" mask="url(#mask-2)" fill="#30404D" fill-rule="nonzero">
                        <g transform="translate(67.999986, 39.418214) rotate(8.000000) translate(-67.999986, -39.418214) translate(61.999986, 28.418214)" id="Combined-Shape">
                            <path d="M2.01,17.403 L6.571,12.156 C7.26913224,11.3530667 7.21639622,10.1440935 6.451,9.405 L0.941,4.085 C0.226146499,3.39433354 0.206448169,2.25496423 0.897,1.54 C1.587,0.825 1.677,0.043 2.392,0.733 L10.554,9.498 C11.2143765,10.2069117 11.2716777,11.2872071 10.69,12.062 L6.032,18.261 C6.63093613,18.8563491 6.73545917,19.7880351 6.28333248,20.5012998 C5.83120578,21.2145645 4.94400488,21.5176131 4.15,21.23 L2.71,20.706 C1.86192802,20.3968401 1.37399127,19.5073498 1.569,18.626 C1.559,18.194 1.703,17.756 2.009,17.403 L2.01,17.403 Z"></path>
                        </g>
                    </g>
                    <g id="Arm-Copy" mask="url(#mask-2)" fill="#30404D" fill-rule="nonzero">
                        <g transform="translate(27.752706, 39.418310) scale(-1, 1) rotate(4.000000) translate(-27.752706, -39.418310) translate(21.752706, 28.418310)" id="Combined-Shape">
                            <path d="M2.01,17.403 L6.571,12.156 C7.26913224,11.3530667 7.21639622,10.1440935 6.451,9.405 L0.941,4.085 C0.226146499,3.39433354 0.206448169,2.25496423 0.897,1.54 C1.587,0.825 1.677,0.043 2.392,0.733 L10.554,9.498 C11.2143765,10.2069117 11.2716777,11.2872071 10.69,12.062 L6.032,18.261 C6.63093613,18.8563491 6.73545917,19.7880351 6.28333248,20.5012998 C5.83120578,21.2145645 4.94400488,21.5176131 4.15,21.23 L2.71,20.706 C1.86192802,20.3968401 1.37399127,19.5073498 1.569,18.626 C1.559,18.194 1.703,17.756 2.009,17.403 L2.01,17.403 Z"></path>
                        </g>
                    </g>
                    <g id="Shield" mask="url(#mask-2)" fill-rule="nonzero">
                        <g transform="translate(47.709561, 38.033644) rotate(2.000000) translate(-47.709561, -38.033644) translate(29.709561, 17.033644)">
                            <path d="M17.788,1.297 C14.335,5.193 8.252,6.485 1.318,6.485 L1.318,16.862 C1.318,27.56 6.135,34.445 17.788,40.209 C29.441,34.445 34.258,27.559 34.258,16.862 L34.258,6.485 C27.325,6.485 21.242,5.193 17.788,1.297" id="Fill-22" fill="#2D4A5E"></path>
                            <path d="M17.788,40.209 C29.441,34.445 34.258,27.559 34.258,16.862 L34.258,6.485 C27.325,6.485 21.242,5.193 17.788,1.297 L17.788,40.209 Z" id="Fill-23" fill="#000000" opacity="0.100000001"></path>
                            <path d="M2.635,7.75 L2.635,16.85 C2.635,26.9 7.036,33.284 17.788,38.752 C28.54,33.284 32.941,26.9 32.941,16.849 L32.941,7.749 C26.015,7.582 21.032,6.064 17.788,3.132 C14.544,6.064 9.562,7.582 2.635,7.749 L2.635,7.75 Z M17.788,41.5060005 C17.585,41.5060005 17.383,41.46 17.197,41.368 C5.143,35.403 0,28.07 0,16.849 L0,6.468 C0,5.75 0.59,5.17 1.318,5.17 C8.903,5.17 13.966,3.617 16.795,0.423 C17.296,-0.141 18.28,-0.141 18.781,0.423 C21.611,3.617 26.673,5.17 34.259,5.17 C34.986,5.17 35.576,5.751 35.576,6.468 L35.576,16.849 C35.576,28.069 30.433,35.403 18.38,41.368 C18.1959165,41.4589462 17.9933239,41.5060005 17.788,41.5060005 Z" id="Fill-24" fill="#182A37"></path>
                        </g>
                    </g>
                </g>
                <g id="Azure-Border" stroke="#0078D4" stroke-width="4">
                    <rect x="2" y="2" width="96" height="96" rx="48"></rect>
                </g>
            </g>
        </g>
    </g>
</svg>