<svg width="102" height="102" viewBox="0 0 102 102" fill="none" xmlns="https://www.w3.org/2000/svg">
<path d="M50.9999 97.8104C25.1499 97.8104 4.18994 76.8604 4.18994 51.0004C4.18994 25.1404 25.1499 4.19043 50.9999 4.19043C76.8499 4.19043 97.8099 25.1504 97.8099 51.0004C97.8099 76.8504 76.8499 97.8104 50.9999 97.8104Z" fill="url(#paint0_linear)"/>
<path fill-rule="evenodd" clip-rule="evenodd" d="M96.9001 51.0004C96.9001 76.3504 76.3501 96.9004 51.0001 96.9004C25.6501 96.9004 5.10011 76.3504 5.10011 51.0004C5.10011 25.6504 25.6501 5.10035 51.0001 5.10035C76.3501 5.10035 96.9001 25.6504 96.9001 51.0004ZM51.0001 1.36035C78.4201 1.36035 100.64 23.5804 100.64 51.0004C100.64 78.4204 78.4101 100.64 51.0001 100.64C23.5801 100.64 1.36011 78.4104 1.36011 51.0004C1.36011 23.5804 23.5801 1.36035 51.0001 1.36035Z" fill="#F2F1F0"/>
<path fill-rule="evenodd" clip-rule="evenodd" d="M94.0899 50.9999C94.0899 74.7999 74.7999 94.0899 50.9999 94.0899C27.1999 94.0899 7.90992 74.7999 7.90992 50.9999C7.90992 27.1999 27.1999 7.90992 50.9999 7.90992C74.7999 7.90992 94.0899 27.1999 94.0899 50.9999ZM50.9999 4.16992C76.8599 4.16992 97.8299 25.1399 97.8299 50.9999C97.8299 76.8599 76.8599 97.8299 50.9999 97.8299C25.1399 97.8299 4.16992 76.8599 4.16992 50.9999C4.16992 25.1399 25.1299 4.16992 50.9999 4.16992Z" fill="url(#paint1_linear)"/>
<path opacity="0.4" d="M26.4301 60.0195C21.3001 60.0195 17.1201 55.8495 17.1201 50.7195C17.1201 46.0295 20.5901 42.1695 25.1101 41.5495C24.7601 40.0995 24.5401 38.5695 24.5401 36.9895C24.5801 26.7295 32.8801 18.4395 43.1501 18.4395C50.2201 18.4395 56.3601 22.4295 59.5201 28.2595C61.0601 27.5095 62.8101 27.0795 64.6501 27.0795C71.0601 27.0795 76.2801 32.2995 76.2801 38.6995C76.2801 39.6595 76.1501 40.6295 75.9301 41.5495C76.2801 41.5095 76.6301 41.5095 76.9801 41.5095C82.0701 41.4695 86.2401 45.5895 86.2401 50.7195C86.2401 55.8495 82.0701 60.0195 76.9401 60.0195H26.4301V60.0195Z" fill="url(#paint2_linear)"/>
<path d="M76.9501 60.7695H26.4301C20.8901 60.7695 16.3701 56.2595 16.3701 50.7195C16.3701 46.0095 19.6901 41.9495 24.2001 40.9495C23.9201 39.5995 23.7801 38.2695 23.7801 36.9895C23.8201 26.3495 32.5101 17.6895 43.1401 17.6895C50.0001 17.6895 56.3301 21.3495 59.8301 27.2995C61.3501 26.6595 63.0101 26.3295 64.6501 26.3295C71.4801 26.3295 77.0301 31.8795 77.0301 38.6995C77.0301 39.3695 76.9701 40.0495 76.8501 40.7595C76.9201 40.7595 76.9901 40.7595 77.0601 40.7595C79.6901 40.7595 82.1601 41.7795 84.0401 43.6395C85.9401 45.5195 86.9901 48.0395 86.9901 50.7195C87.0001 56.2595 82.4901 60.7695 76.9501 60.7695ZM43.1501 19.1895C33.3401 19.1895 25.3301 27.1795 25.2901 36.9995C25.2901 38.3995 25.4701 39.8795 25.8401 41.3795L26.0401 42.1895L25.2201 42.2995C21.0401 42.8695 17.8801 46.4895 17.8801 50.7195C17.8801 55.4295 21.7201 59.2695 26.4401 59.2695H76.9601C81.6801 59.2695 85.5101 55.4395 85.5101 50.7195C85.5101 48.4395 84.6201 46.2995 83.0101 44.6995C81.4001 43.1095 79.2901 42.1995 77.0101 42.2595C76.9901 42.2595 76.9601 42.2595 76.9301 42.2595C76.6301 42.2595 76.3401 42.2595 76.0401 42.2995L74.9701 42.4295L75.2201 41.3795C75.4401 40.4495 75.5501 39.5495 75.5501 38.6995C75.5501 32.6995 70.6701 27.8295 64.6701 27.8295C63.0201 27.8295 61.3601 28.2095 59.8601 28.9395L59.2201 29.2495L58.8801 28.6195C55.7101 22.7995 49.6901 19.1895 43.1501 19.1895Z" fill="white"/>
<path opacity="0.15" d="M51.7199 56.5703L70.7699 67.6503L51.6699 78.7303L32.6499 67.6503L51.7199 56.5703Z" fill="#1F1D20"/>
<path d="M51.6699 54.6601V76.8001L32.6499 65.6601V43.5801L51.6699 54.6601Z" fill="#32B0E7"/>
<path d="M51.7199 32.5L70.7699 43.58L51.6699 54.66L32.6499 43.58L51.7199 32.5Z" fill="#45CAF2"/>
<path d="M70.7799 43.5801V65.6601L51.6599 76.8001V54.6601L70.7799 43.5801Z" fill="#156AB3"/>
<path d="M51.6599 76.8002V54.6602L70.7699 65.6602L51.6599 76.8002Z" fill="#185A97"/>
<path d="M51.6699 76.8002V54.6602L32.6599 65.6602L51.6699 76.8002Z" fill="#0078D4"/>
<path fill-rule="evenodd" clip-rule="evenodd" d="M48.03 78.5202C48.03 79.4902 47.22 80.2902 46.26 80.2902H30.28C29.32 80.2902 28.51 79.5002 28.51 78.5202V65.2002H48.02V78.5202H48.03Z" fill="#30404D"/>
<path fill-rule="evenodd" clip-rule="evenodd" d="M48.03 65.2002C48.03 66.1702 47.22 66.9702 46.26 66.9702H30.28C29.32 66.9802 28.51 66.1802 28.51 65.2002V63.4302C28.51 62.4602 29.32 61.6602 30.28 61.6602H46.26C47.23 61.6602 48.03 62.4702 48.03 63.4302V65.2002V65.2002Z" fill="#546670"/>
<path fill-rule="evenodd" clip-rule="evenodd" d="M46.26 67.4206H39.15C38.67 67.4206 38.26 67.8206 38.26 68.3106V78.5106C38.26 78.9906 37.86 79.4006 37.37 79.4006H30.28C29.32 79.4006 28.51 78.5906 28.51 77.6206V78.5106C28.51 79.4806 29.32 80.2806 30.28 80.2806H46.26C47.23 80.2806 48.03 79.4706 48.03 78.5106V65.6406C48.03 66.6206 47.23 67.4206 46.26 67.4206Z" fill="#182A37"/>
<path fill-rule="evenodd" clip-rule="evenodd" d="M38.2699 70.6602C36.6899 70.6602 35.4199 71.9402 35.4199 73.5102C35.4199 75.0902 36.6999 76.3602 38.2699 76.3602C39.8499 76.3602 41.1099 75.0702 41.1099 73.5102C41.1199 71.9402 39.8499 70.6602 38.2699 70.6602Z" fill="#50E6FF"/>
<path fill-rule="evenodd" clip-rule="evenodd" d="M34.28 64.3205C34.28 65.0505 33.49 65.6605 32.51 65.6605C31.53 65.6605 30.74 65.0605 30.74 64.3205C30.74 63.5805 31.53 62.9805 32.51 62.9805C33.49 62.9805 34.28 63.5705 34.28 64.3205Z" fill="#182A37"/>
<path fill-rule="evenodd" clip-rule="evenodd" d="M45.81 64.3206C45.81 65.0506 45.02 65.6606 44.04 65.6606C43.06 65.6606 42.27 65.0706 42.27 64.3206C42.27 63.5906 43.06 62.9806 44.04 62.9806C45.02 62.9706 45.81 63.5706 45.81 64.3206Z" fill="#182A37"/>
<path fill-rule="evenodd" clip-rule="evenodd" d="M38.2699 51.8906C34.3499 51.8906 31.1599 55.0706 31.1599 59.0006V65.2006C31.4799 65.4806 31.9499 65.6606 32.4999 65.6606C33.0399 65.6606 33.4999 65.4806 33.8399 65.2006V59.0006C33.8399 56.5606 35.8399 54.5706 38.2699 54.5706C40.7099 54.5706 42.6999 56.5706 42.6999 59.0006V64.3206C42.6999 64.8006 43.2899 65.2106 44.0399 65.2106C44.7699 65.2106 45.3799 64.8106 45.3799 64.3206V59.0006C45.3699 55.0706 42.1799 51.8906 38.2699 51.8906Z" fill="#30404D"/>
<path fill-rule="evenodd" clip-rule="evenodd" d="M35.7199 54.8906C34.0099 55.6106 32.9399 57.3406 32.9399 59.2006V63.7506C32.9399 64.3306 32.3899 64.7606 31.8199 64.6006C31.5399 64.5306 31.2999 64.4306 31.1499 64.3006V65.1906C31.4699 65.4706 31.9399 65.6506 32.4899 65.6506C32.6299 65.6506 32.7899 65.6406 32.9399 65.6006C33.0199 65.5906 33.1099 65.5606 33.1999 65.5406C33.2399 65.5306 33.2799 65.5206 33.3199 65.4906C33.3799 65.4706 33.4399 65.4406 33.4899 65.4106C33.5099 65.4006 33.5499 65.3906 33.5699 65.3606C33.6499 65.3106 33.7299 65.2506 33.8099 65.2006V59.0206C33.8099 56.7206 35.5699 54.8206 37.7999 54.6006C37.1599 54.5006 36.4499 54.5906 35.7199 54.8906Z" fill="#182A37"/>
<path fill-rule="evenodd" clip-rule="evenodd" d="M38.2701 51.8906C38.1301 51.8906 37.9701 51.9006 37.8201 51.9106C41.5401 52.1506 44.4701 55.2206 44.4701 58.9806V63.7206C44.4701 64.3006 43.9201 64.7306 43.3501 64.5706C43.0701 64.5006 42.8301 64.4006 42.6801 64.2706V65.1606C43.0001 65.4406 43.4901 65.6206 44.0201 65.6206C44.5501 65.6206 45.0201 65.4406 45.3601 65.1606V58.9806C45.3701 55.0706 42.1801 51.8906 38.2701 51.8906Z" fill="#182A37"/>
<path opacity="0.15" d="M69.13 83.3699C76.66 83.3699 82.75 77.2499 82.75 69.7499C82.75 62.2399 76.63 56.1299 69.13 56.1299C61.62 56.1299 55.48 62.2199 55.48 69.7499C55.48 77.2799 61.59 83.3699 69.13 83.3699Z" fill="#1F1D20"/>
<path d="M69.12 80.2399C76.06 80.2399 81.68 74.6099 81.68 67.6799C81.68 60.7499 76.05 55.1299 69.12 55.1299C62.19 55.1299 56.54 60.7399 56.54 67.6899C56.54 74.6299 62.18 80.2399 69.12 80.2399Z" fill="white"/>
<path d="M69.1199 53.71C61.4099 53.71 55.1699 59.96 55.1699 67.66C55.1699 75.37 61.4199 81.61 69.1199 81.61C76.8299 81.61 83.0699 75.36 83.0699 67.66C83.0499 59.95 76.8099 53.71 69.1199 53.71ZM69.1199 79.47C62.5899 79.47 57.2999 74.17 57.2999 67.65C57.2999 61.13 62.5999 55.83 69.1199 55.83C75.6399 55.83 80.9399 61.13 80.9399 67.65C80.9399 74.18 75.6399 79.47 69.1199 79.47Z" fill="#002D4C"/>
<path d="M68.82 68.0304C68.82 68.0304 62.87 67.8504 62.08 67.8304C61.45 67.8104 61.27 67.6904 61.29 67.3804C61.31 67.0204 61.45 66.9104 62.08 66.8804C62.58 66.8604 68.82 66.6504 68.82 66.6504V68.0304Z" fill="#1D4A79"/>
<path d="M68.6699 67.0795C68.6699 67.0795 68.8299 59.4295 68.8499 58.4395C68.8699 57.6095 68.9599 57.3995 69.2299 57.4295C69.5499 57.4495 69.6399 57.6295 69.6599 58.4395C69.6799 59.0895 69.8599 67.0795 69.8599 67.0795H68.6699Z" fill="#1D4A79"/>
<path d="M69.12 68.8602C69.86 68.8602 70.47 68.2502 70.47 67.5102C70.47 66.7702 69.86 66.1602 69.12 66.1602C68.38 66.1602 67.77 66.7702 67.77 67.5102C67.77 68.2502 68.37 68.8602 69.12 68.8602Z" fill="#243A5E"/>
<defs>
<linearGradient id="paint0_linear" x1="49.23" y1="-13.7893" x2="53.212" y2="131.981" gradientUnits="userSpaceOnUse">
<stop stop-color="#00ABDE"/>
<stop offset="1" stop-color="#007ED8"/>
</linearGradient>
<linearGradient id="paint1_linear" x1="2.43262" y1="-20.6246" x2="97.9596" y2="120.257" gradientUnits="userSpaceOnUse">
<stop stop-color="#007ED8"/>
<stop offset="0.7065" stop-color="#002D4C"/>
</linearGradient>
<linearGradient id="paint2_linear" x1="50.175" y1="-10.7176" x2="52.0007" y2="63.297" gradientUnits="userSpaceOnUse">
<stop offset="0.5727" stop-color="white" stop-opacity="0"/>
<stop offset="0.7823" stop-color="white" stop-opacity="0.4301"/>
<stop offset="0.9044" stop-color="white" stop-opacity="0.5"/>
<stop offset="0.9273" stop-color="white"/>
</linearGradient>
</defs>
</svg>
