<svg width="103" height="103" viewBox="0 0 103 103" fill="none" xmlns="https://www.w3.org/2000/svg">
<path d="M51.9333 98.3405C26.0833 98.3405 5.12329 77.3905 5.12329 51.5305C5.12329 25.6705 26.0833 4.72047 51.9333 4.72047C77.7833 4.72047 98.7433 25.6805 98.7433 51.5305C98.7433 77.3805 77.7833 98.3405 51.9333 98.3405Z" fill="url(#paint0_linear)"/>
<path fill-rule="evenodd" clip-rule="evenodd" d="M97.8335 51.5305C97.8335 76.8805 77.2835 97.4305 51.9335 97.4305C26.5835 97.4305 6.03346 76.8805 6.03346 51.5305C6.03346 26.1805 26.5835 5.63047 51.9335 5.63047C77.2835 5.63047 97.8335 26.1805 97.8335 51.5305ZM51.9335 1.89047C79.3535 1.89047 101.573 24.1105 101.573 51.5305C101.573 78.9505 79.3435 101.17 51.9335 101.17C24.5135 101.17 2.29346 78.9405 2.29346 51.5305C2.29346 24.1105 24.5135 1.89047 51.9335 1.89047Z" fill="#F2F1F0"/>
<path fill-rule="evenodd" clip-rule="evenodd" d="M95.0233 51.5305C95.0233 75.3305 75.7333 94.6205 51.9333 94.6205C28.1333 94.6205 8.84327 75.3305 8.84327 51.5305C8.84327 27.7305 28.1333 8.44047 51.9333 8.44047C75.7333 8.44047 95.0233 27.7305 95.0233 51.5305ZM51.9333 4.70047C77.7933 4.70047 98.7633 25.6705 98.7633 51.5305C98.7633 77.3905 77.7933 98.3605 51.9333 98.3605C26.0733 98.3605 5.10327 77.3905 5.10327 51.5305C5.10327 25.6705 26.0633 4.70047 51.9333 4.70047Z" fill="#0078D4"/>
<path fill-rule="evenodd" clip-rule="evenodd" d="M52.0432 18.2504C45.7532 25.4604 34.6732 27.8504 22.0432 27.8504V47.0404C22.0432 66.8204 30.8132 79.5704 52.0432 90.2304C73.2632 79.5704 82.0432 66.8304 82.0432 47.0404V27.8404C69.4032 27.8404 58.3232 25.4604 52.0432 18.2504Z" fill="#F2F1F0"/>
<path fill-rule="evenodd" clip-rule="evenodd" d="M52.0432 18.2504V90.2304C73.2632 79.5704 82.0432 66.8304 82.0432 47.0404V27.8404C69.4032 27.8404 58.3232 25.4604 52.0432 18.2504Z" fill="#F2F1F0"/>
<path fill-rule="evenodd" clip-rule="evenodd" d="M24.4433 30.1804V47.0104C24.4433 65.6004 32.4533 77.4104 52.0333 87.5204C71.6133 77.4004 79.6233 65.6004 79.6233 47.0104V30.1804C67.0133 29.8804 57.9333 27.0704 52.0233 21.6404C46.1333 27.0704 37.0633 29.8804 24.4433 30.1804ZM52.0433 92.6304C51.6733 92.6304 51.3033 92.5504 50.9633 92.3804C29.0033 81.3404 19.6433 67.7804 19.6433 47.0304V27.8204C19.6433 26.4904 20.7233 25.4204 22.0433 25.4204C35.8533 25.4204 45.0733 22.5504 50.2233 16.6404C51.1333 15.6004 52.9233 15.6004 53.8333 16.6404C58.9933 22.5504 68.2033 25.4204 82.0133 25.4204C83.3433 25.4204 84.4133 26.5004 84.4133 27.8204V47.0304C84.4133 67.7804 75.0433 81.3504 53.1033 92.3804C52.7733 92.5504 52.4033 92.6304 52.0433 92.6304Z" fill="#546670"/>
<path d="M68.1034 61.7305C67.5734 62.0105 67.0234 62.2505 66.4634 62.4605C64.6734 63.1305 62.7734 63.4705 60.8634 63.4705C53.4834 63.4705 47.0634 58.3905 47.0634 51.8805C47.0834 50.1005 48.0634 48.4705 49.6234 47.6205C42.9534 47.9005 41.2334 54.8505 41.2334 58.9305C41.2334 70.4505 51.8534 71.6205 54.1334 71.6205C55.3634 71.6205 57.2234 71.2605 58.3434 70.9105L58.5434 70.8405C62.8434 69.3505 66.5034 66.4505 68.9234 62.6105C69.1034 62.3205 69.0234 61.9305 68.7334 61.7505C68.5434 61.6205 68.3034 61.6205 68.1034 61.7305Z" fill="url(#paint1_linear)"/>
<path opacity="0.35" d="M68.1034 61.7305C67.5734 62.0105 67.0234 62.2505 66.4634 62.4605C64.6734 63.1305 62.7734 63.4705 60.8634 63.4705C53.4834 63.4705 47.0634 58.3905 47.0634 51.8805C47.0834 50.1005 48.0634 48.4705 49.6234 47.6205C42.9534 47.9005 41.2334 54.8505 41.2334 58.9305C41.2334 70.4505 51.8534 71.6205 54.1334 71.6205C55.3634 71.6205 57.2234 71.2605 58.3434 70.9105L58.5434 70.8405C62.8434 69.3505 66.5034 66.4505 68.9234 62.6105C69.1034 62.3205 69.0234 61.9305 68.7334 61.7505C68.5434 61.6205 68.3034 61.6205 68.1034 61.7305Z" fill="url(#paint2_radial)"/>
<path d="M48.5535 69.6605C47.1635 68.8005 45.9535 67.6705 45.0035 66.3305C40.9035 60.7205 42.1335 52.8405 47.7535 48.7405C48.3435 48.3105 48.9635 47.9405 49.6135 47.6205C50.1035 47.3905 50.9335 46.9805 52.0335 47.0005C53.6135 47.0105 55.0935 47.7605 56.0435 49.0305C56.6735 49.8705 57.0235 50.8905 57.0335 51.9405C57.0335 51.9105 60.8435 39.5305 44.5635 39.5305C37.7235 39.5305 32.0935 46.0305 32.0935 51.7205C32.0635 54.7305 32.7135 57.7205 33.9835 60.4505C38.2835 69.6205 48.7635 74.1205 58.3635 70.9105C55.0735 71.9505 51.5035 71.4905 48.5735 69.6605H48.5535Z" fill="url(#paint3_linear)"/>
<path opacity="0.41" d="M48.5535 69.6605C47.1635 68.8005 45.9535 67.6705 45.0035 66.3305C40.9035 60.7205 42.1335 52.8405 47.7535 48.7405C48.3435 48.3105 48.9635 47.9405 49.6135 47.6205C50.1035 47.3905 50.9335 46.9805 52.0335 47.0005C53.6135 47.0105 55.0935 47.7605 56.0435 49.0305C56.6735 49.8705 57.0235 50.8905 57.0335 51.9405C57.0335 51.9105 60.8435 39.5305 44.5635 39.5305C37.7235 39.5305 32.0935 46.0305 32.0935 51.7205C32.0635 54.7305 32.7135 57.7205 33.9835 60.4505C38.2835 69.6205 48.7635 74.1205 58.3635 70.9105C55.0735 71.9505 51.5035 71.4905 48.5735 69.6605H48.5535Z" fill="url(#paint4_radial)"/>
<path d="M55.8235 55.2305C55.6935 55.3905 55.3135 55.6205 55.3135 56.1105C55.3135 56.5205 55.5835 56.9105 56.0535 57.2405C58.2935 58.8005 62.5235 58.5905 62.5335 58.5905C64.1935 58.5905 65.8235 58.1405 67.2535 57.2905C70.1835 55.5805 71.9935 52.4405 71.9935 49.0505C72.0335 45.5605 70.7435 43.2305 70.2235 42.2005C66.9235 35.7405 59.7835 32.0205 52.0335 32.0205C41.1235 32.0205 32.2335 40.7805 32.0735 51.7005C32.1435 46.0005 37.8135 41.4005 44.5435 41.4005C45.0935 41.4005 48.2035 41.4505 51.0935 42.9705C53.6435 44.3105 54.9735 45.9205 55.9035 47.5205C56.8635 49.1805 57.0435 51.2905 57.0435 52.1205C57.0435 52.9605 56.6135 54.2005 55.8235 55.2305Z" fill="url(#paint5_radial)"/>
<path d="M55.8235 55.2305C55.6935 55.3905 55.3135 55.6205 55.3135 56.1105C55.3135 56.5205 55.5835 56.9105 56.0535 57.2405C58.2935 58.8005 62.5235 58.5905 62.5335 58.5905C64.1935 58.5905 65.8235 58.1405 67.2535 57.2905C70.1835 55.5805 71.9935 52.4405 71.9935 49.0505C72.0335 45.5605 70.7435 43.2305 70.2235 42.2005C66.9235 35.7405 59.7835 32.0205 52.0335 32.0205C41.1235 32.0205 32.2335 40.7805 32.0735 51.7005C32.1435 46.0005 37.8135 41.4005 44.5435 41.4005C45.0935 41.4005 48.2035 41.4505 51.0935 42.9705C53.6435 44.3105 54.9735 45.9205 55.9035 47.5205C56.8635 49.1805 57.0435 51.2905 57.0435 52.1205C57.0435 52.9605 56.6135 54.2005 55.8235 55.2305Z" fill="url(#paint6_radial)"/>
<defs>
<linearGradient id="paint0_linear" x1="50.1629" y1="-13.2625" x2="54.1457" y2="132.506" gradientUnits="userSpaceOnUse">
<stop stop-color="#00ABDE"/>
<stop offset="1" stop-color="#007ED8"/>
</linearGradient>
<linearGradient id="paint1_linear" x1="41.2284" y1="59.6208" x2="69.0269" y2="59.6208" gradientUnits="userSpaceOnUse">
<stop stop-color="#0C59A4"/>
<stop offset="1" stop-color="#114A8B"/>
</linearGradient>
<radialGradient id="paint2_radial" cx="0" cy="0" r="1" gradientUnits="userSpaceOnUse" gradientTransform="translate(56.5855 59.8509) scale(14.8734 14.1297)">
<stop offset="0.72" stop-opacity="0"/>
<stop offset="0.95" stop-opacity="0.53"/>
<stop offset="1"/>
</radialGradient>
<linearGradient id="paint3_linear" x1="55.8968" y1="47.5706" x2="38.5293" y2="66.488" gradientUnits="userSpaceOnUse">
<stop stop-color="#1B9DE2"/>
<stop offset="0.16" stop-color="#1595DF"/>
<stop offset="0.67" stop-color="#0680D7"/>
<stop offset="1" stop-color="#0078D4"/>
</linearGradient>
<radialGradient id="paint4_radial" cx="0" cy="0" r="1" gradientUnits="userSpaceOnUse" gradientTransform="translate(43.1335 63.121) rotate(-81.3844) scale(22.3656 18.0692)">
<stop offset="0.76" stop-opacity="0"/>
<stop offset="0.95" stop-opacity="0.5"/>
<stop offset="1"/>
</radialGradient>
<radialGradient id="paint5_radial" cx="0" cy="0" r="1" gradientUnits="userSpaceOnUse" gradientTransform="translate(36.2038 39.5329) rotate(92.2906) scale(31.5918 67.284)">
<stop stop-color="#35C1F1"/>
<stop offset="0.11" stop-color="#34C1ED"/>
<stop offset="0.23" stop-color="#2FC2DF"/>
<stop offset="0.31" stop-color="#2BC3D2"/>
<stop offset="0.67" stop-color="#36C752"/>
</radialGradient>
<radialGradient id="paint6_radial" cx="0" cy="0" r="1" gradientUnits="userSpaceOnUse" gradientTransform="translate(69.4062 44.1273) rotate(73.7398) scale(15.179 12.3436)">
<stop stop-color="#66EB6E"/>
<stop offset="1" stop-color="#66EB6E" stop-opacity="0"/>
</radialGradient>
</defs>
</svg>
