<svg width="160" height="188" viewBox="0 0 160 188" fill="none" xmlns="http://www.w3.org/2000/svg">
<g clip-path="url(#clip0)">
<path d="M79.6779 188C82.7592 187.994 85.7796 187.141 88.4083 185.534L150.384 147.874C153.165 146.11 155.449 143.665 157.019 140.771C158.589 137.876 159.394 134.628 159.356 131.336V56.6207C159.392 53.3283 158.587 50.0812 157.017 47.1871C155.447 44.2929 153.163 41.8476 150.384 40.0829L88.4083 2.4228C85.7749 0.837605 82.7592 0 79.6855 0C76.6118 0 73.5961 0.837605 70.9627 2.4228L8.9876 40.098C6.2045 41.8604 3.91796 44.3048 2.34499 47.1991C0.772021 50.0935 -0.0351786 53.3418 4.1431e-06 56.6358V131.336C-0.0185283 134.119 0.556189 136.874 1.68588 139.418C2.81557 141.962 4.4743 144.236 6.5516 146.089V146.115L70.9627 185.549C73.5884 187.149 76.6032 187.996 79.6779 188V188ZM80.3257 6.95218C82.2776 6.95218 84.7548 8.1651 86.4646 9.20912L147.222 46.4034C150.974 48.6881 153.09 55.2842 153.09 60.0352L152.458 131.336C152.458 136.087 149.259 140.355 145.506 142.64L85.1104 179.021C81.6758 181.109 78.8854 181.109 75.4507 179.021L14.2427 142.549C10.4903 140.265 7.47191 136.072 7.47191 131.336V57.688C7.50442 55.3228 8.11341 53.0013 9.24608 50.9247C10.3787 48.8482 12.0009 47.0792 13.9718 45.7714L74.548 9.20912C76.2577 8.1651 78.3739 6.95218 80.3257 6.95218Z" fill="#F2F1F0"/>
<path fill-rule="evenodd" clip-rule="evenodd" d="M87.5765 10.5328C85.2056 9.05928 82.4697 8.27838 79.6783 8.27838C76.8868 8.27838 74.1509 9.05928 71.7801 10.5328L15.6454 44.8642C13.1193 46.4759 11.047 48.7062 9.625 51.3437C8.203 53.9812 7.47851 56.9382 7.52026 59.9343V128.038C7.48034 131.033 8.20562 133.99 9.62745 136.627C11.0493 139.264 13.1206 141.495 15.6454 143.108L71.7801 177.439C74.1508 178.912 76.8867 179.694 79.6783 179.694C82.4698 179.694 85.2057 178.912 87.5765 177.439L143.711 143.108C146.236 141.495 148.307 139.264 149.729 136.627C151.151 133.99 151.877 131.033 151.837 128.038V59.9343C151.875 56.9388 151.149 53.983 149.727 51.3461C148.305 48.7092 146.234 46.4784 143.711 44.8642L87.5765 10.5328Z" fill="url(#paint0_linear)"/>
<path fill-rule="evenodd" clip-rule="evenodd" d="M79.6783 9.75432C81.3615 9.75432 83.2442 10.62 85.311 11.8781L143.777 47.4205C145.668 48.6339 147.218 50.3108 148.278 52.2919C149.339 54.2729 149.875 56.4922 149.837 58.739V129.218C149.875 131.464 149.339 133.684 148.278 135.664C147.218 137.645 145.668 139.322 143.777 140.536L85.312 176.078L85.311 176.079C83.6408 177.218 81.6958 177.889 79.6783 178.022C77.6609 177.889 75.7158 177.218 74.0456 176.079L74.0446 176.078L15.5823 140.538L15.5801 140.537C13.7918 139.573 12.2668 138.186 11.1383 136.497C10.1614 134.894 9.52031 132.679 9.52031 129.218V58.739C9.48157 56.4923 10.018 54.273 11.0785 52.292C12.139 50.311 13.6885 48.6341 15.5797 47.4206L74.0365 11.8835L74.0406 11.8811C76.1244 10.6281 77.9846 9.75432 79.6783 9.75432ZM87.3908 8.46132L145.855 44.0026C148.333 45.5727 150.368 47.7514 151.765 50.3311C153.162 52.9109 153.876 55.8055 153.837 58.7391V129.218C153.876 132.151 153.162 135.046 151.765 137.626C150.368 140.205 148.333 142.384 145.855 143.955L87.3898 179.496C85.0956 181.021 82.4302 181.894 79.6783 182.022C76.9264 181.894 74.261 181.021 71.9667 179.496H71.9658L13.502 143.954L13.4995 143.953C11.1642 142.66 9.18097 140.814 7.72281 138.579C6.12823 135.725 5.36521 132.482 5.52031 129.218V58.739C5.48125 55.8054 6.19436 52.9107 7.59165 50.331C8.98894 47.7512 11.0238 45.5724 13.5022 44.0024L71.9667 8.46067L71.9749 8.45579C74.0655 7.19838 76.7734 5.75433 79.6783 5.75433C82.5645 5.75433 85.2816 7.17741 87.3908 8.46127V8.46132Z" fill="#0078D4"/>
<path opacity="0.2" d="M139.959 132.026L80.4091 166.633L20.4701 132.027L80.0201 97.42L139.959 132.026Z" fill="#003067"/>
<path d="M140.532 120.546L79.81 155.834L18.698 120.551L79.42 85.263L140.532 120.546Z" fill="#1B93EB"/>
<path d="M140.532 120.546L140.52 124.652L79.798 159.94L79.81 155.834L140.532 120.546Z" fill="#1F56A3"/>
<path d="M79.81 155.834L79.798 159.94L18.686 124.657L18.698 120.551L79.81 155.834Z" fill="#0078D4"/>
<path opacity="0.2" d="M113.826 119.088C114.043 119.161 114.232 119.3 114.366 119.486C114.5 119.671 114.573 119.894 114.574 120.123C114.576 120.352 114.505 120.576 114.373 120.763C114.241 120.95 114.054 121.091 113.838 121.167L111.015 122.807C110.459 123.09 109.844 123.237 109.221 123.237C108.597 123.237 107.982 123.09 107.426 122.807L76.7606 105.102C76.5427 105.03 76.353 104.891 76.2178 104.706C76.0827 104.52 76.009 104.297 76.007 104.068C76.005 103.838 76.0748 103.614 76.2067 103.426C76.3386 103.238 76.5259 103.096 76.7425 103.02L79.5652 101.379C80.1224 101.096 80.7385 100.949 81.3634 100.95C81.9883 100.951 82.6042 101.099 83.1608 101.383L113.826 119.088Z" fill="#003067"/>
<path d="M94.6941 33.7507C95.3843 34.1731 95.946 34.7761 96.3185 35.4944C100.914 44.2465 109.17 51.9677 121.553 59.1169C122.178 59.5244 122.699 60.0737 123.072 60.7203C123.445 61.3669 123.661 62.0924 123.701 62.8379L123.645 82.6192C123.584 104.009 115.157 113.143 95.4383 113.135C95.0919 113.131 94.7536 113.029 94.463 112.84C94.1004 112.626 93.7759 112.354 93.5028 112.033C73.849 89.2941 65.5007 70.4751 65.5614 49.0847L65.6174 29.3034C65.6213 27.9468 66.5854 27.3816 67.7797 28.0712C80.1625 35.2203 88.4351 37.0419 93.065 33.616C93.321 33.4803 93.6106 33.4208 93.8993 33.4447C94.1881 33.4686 94.4639 33.5748 94.6941 33.7507V33.7507Z" fill="url(#paint1_linear)"/>
<path d="M68.7346 32.1895C76.4374 36.3756 82.5511 38.416 87.3674 38.416C89.522 38.46 91.6539 37.9686 93.5718 36.9859C98.4489 46.2511 107.091 54.3763 119.987 61.8214C120.286 62.0853 120.493 62.4386 120.576 62.829L120.519 82.6103C120.464 102.164 113.554 109.881 95.8837 110.008L95.8674 109.99C76.7571 87.8794 68.6284 69.6675 68.6867 49.0936L68.7346 32.1895V32.1895ZM66.8156 27.7765C66.1066 27.7765 65.6203 28.3407 65.6175 29.3034L65.5615 49.0847C65.5008 70.4751 73.8491 89.2941 93.5029 112.033C93.776 112.354 94.1005 112.626 94.4631 112.84C94.7393 113.017 95.0566 113.119 95.384 113.136C95.4022 113.136 95.4204 113.136 95.4384 113.135H95.4644C115.162 113.135 123.584 103.999 123.645 82.6192L123.701 62.8379C123.661 62.0924 123.445 61.3668 123.072 60.7203C122.699 60.0737 122.178 59.5243 121.553 59.1169C109.17 51.9677 100.914 44.2465 96.3186 35.4943C95.9461 34.776 95.3844 34.1731 94.6942 33.7507C94.3861 33.5584 94.0335 33.449 93.6706 33.4331C93.4545 33.4279 93.2423 33.492 93.0652 33.616C91.3997 34.7813 89.3986 35.3695 87.3674 35.2907C82.6119 35.2907 76.1297 32.8919 67.7798 28.0711C67.4896 27.8904 67.1572 27.7888 66.8157 27.7765L66.8156 27.7765Z" fill="url(#paint2_linear)"/>
<path d="M126.099 56.4749C113.716 49.3257 105.46 41.6045 100.865 32.8524C100.492 32.134 99.9306 31.5311 99.2405 31.1087C99.0197 30.9461 98.7606 30.8436 98.4883 30.8113C98.2161 30.779 97.9401 30.818 97.6875 30.9244L96.5187 31.6037C91.7318 34.0721 83.808 32.0583 72.326 25.4291C72.1071 25.27 71.8498 25.1723 71.5805 25.1461C71.3112 25.12 71.0398 25.1663 70.7944 25.2804L66.2479 27.9224C66.4933 27.8083 66.7647 27.762 67.0341 27.7881C67.3034 27.8142 67.5608 27.912 67.7797 28.0711C79.5452 34.8639 87.6 36.847 92.3454 34.0893L93.4048 33.4737C93.8541 33.4004 94.3145 33.4993 94.694 33.7507C95.3842 34.1731 95.9459 34.776 96.3184 35.4943C100.914 44.2465 109.17 51.9676 121.553 59.1169C122.178 59.5244 122.699 60.0737 123.072 60.7203C123.445 61.3668 123.661 62.0924 123.701 62.8378L123.645 82.6191C123.606 96.3239 120.132 104.997 112.455 109.459L117.002 106.817C124.679 102.355 128.152 93.6819 128.191 79.9771L128.247 60.1958C128.207 59.4503 127.992 58.7248 127.618 58.0783C127.245 57.4317 126.724 56.8824 126.099 56.4749V56.4749Z" fill="url(#paint3_linear)"/>
<path d="M81.5167 50.6983C82.4589 51.3107 83.2432 52.137 83.8057 53.11C84.3681 54.0829 84.6928 55.1749 84.7533 56.2971C84.7475 58.3565 83.2878 59.1883 81.4955 58.1536C80.554 57.5401 79.7706 56.7129 79.2092 55.7394C78.6478 54.7658 78.3244 53.6734 78.2651 52.5512C78.271 50.499 79.7307 49.6672 81.5167 50.6983ZM81.4978 57.3571C82.9029 58.1683 84.0556 57.5114 84.0601 55.8969C84.012 55.0146 83.7563 54.1562 83.314 53.3913C82.8716 52.6264 82.2551 51.9766 81.5144 51.4948C80.1094 50.6836 78.9629 51.3368 78.9583 52.9514C79.0052 53.8337 79.2597 54.6925 79.7009 55.4581C80.1422 56.2236 80.7578 56.8742 81.4978 57.3571" fill="white"/>
<path d="M82.5855 54.0016C82.6922 54.0679 82.7796 54.1611 82.8389 54.2719C82.9821 54.5127 82.9813 54.7782 82.8372 54.8603L81.3837 55.6886C81.3426 55.7064 81.2975 55.7132 81.253 55.7083C81.2084 55.7034 81.1659 55.6869 81.1297 55.6605C81.0227 55.5942 80.934 55.5022 80.8716 55.3929L80.1434 54.1387L80.1497 54.1352C80.0128 53.8908 80.0135 53.6325 80.1576 53.5576C80.198 53.5378 80.243 53.5295 80.2877 53.5335C80.3325 53.5375 80.3753 53.5537 80.4116 53.5802C80.5195 53.6477 80.6083 53.7416 80.6696 53.8532L80.7007 53.9143L81.1302 54.6581L82.3268 53.9762C82.3683 53.9574 82.4141 53.9498 82.4596 53.9543C82.505 53.9587 82.5484 53.9751 82.5855 54.0016Z" fill="white"/>
<path d="M107.706 68.248C107.808 68.3139 107.892 68.403 107.953 68.508C108.014 68.6129 108.048 68.7307 108.055 68.8517C108.054 69.067 107.897 69.1563 107.704 69.0445L87.0341 57.1108C86.9332 57.0457 86.8492 56.9578 86.7886 56.8542C86.7281 56.7505 86.6928 56.6341 86.6855 56.5143C86.6862 56.2919 86.8428 56.2026 87.0363 56.3143L107.706 68.248Z" fill="white"/>
<path d="M110.654 71.8117C110.755 71.8772 110.839 71.9659 110.898 72.0702C110.958 72.1746 110.992 72.2918 110.997 72.4118C110.996 72.6271 110.846 72.72 110.652 72.6082L87.0288 58.9693C86.928 58.9042 86.8439 58.8162 86.7834 58.7126C86.7228 58.609 86.6875 58.4926 86.6803 58.3728C86.6809 58.1503 86.8375 58.0611 87.0311 58.1728L110.654 71.8117Z" fill="white"/>
<path d="M82.5856 64.8526C82.6913 64.9177 82.7786 65.0089 82.839 65.1174C82.9821 65.3654 82.9814 65.6309 82.8373 65.7058L81.3838 66.5341C81.3434 66.5539 81.2984 66.5622 81.2536 66.5582C81.2089 66.5542 81.166 66.538 81.1298 66.5115C81.0219 66.444 80.933 66.35 80.8717 66.2384L80.1435 64.9843C80.0129 64.7435 80.0136 64.4852 80.1577 64.4031C80.1988 64.3853 80.2439 64.3785 80.2884 64.3834C80.333 64.3883 80.3755 64.4048 80.4117 64.4312C80.5187 64.4975 80.6074 64.5894 80.6697 64.6987L80.7008 64.767L81.1303 65.5037L82.3269 64.8218C82.3691 64.8048 82.415 64.7988 82.4602 64.8042C82.5054 64.8095 82.5485 64.8262 82.5856 64.8526Z" fill="white"/>
<path d="M81.5167 61.551C82.459 62.1634 83.2432 62.9898 83.8057 63.9627C84.3681 64.9357 84.6928 66.0277 84.7533 67.1499C84.7475 69.2021 83.2878 70.0339 81.4956 68.9992C80.5548 68.3865 79.772 67.5605 79.2106 66.5883C78.6493 65.616 78.3253 64.525 78.2651 63.404C78.271 61.3517 79.7307 60.5199 81.5167 61.551ZM81.4978 68.2027C82.9029 69.0139 84.0556 68.3641 84.0602 66.7497C84.012 65.8674 83.7563 65.0089 83.314 64.244C82.8716 63.4791 82.2551 62.8293 81.5144 62.3475C80.1094 61.5363 78.9629 62.1896 78.9583 63.8041C79.0053 64.6855 79.2599 65.5433 79.7012 66.3076C80.1425 67.072 80.7581 67.7213 81.4978 68.2027" fill="white"/>
<path d="M110.654 82.6358C110.754 82.7004 110.838 82.7879 110.897 82.891C110.957 82.9941 110.991 83.1098 110.997 83.2287C110.996 83.4512 110.846 83.544 110.652 83.4323L87.0289 69.7933C86.9272 69.7274 86.8427 69.6383 86.7821 69.5334C86.7215 69.4284 86.6867 69.3106 86.6804 69.1896C86.681 68.9744 86.8376 68.8851 87.0312 68.9968L110.654 82.6358Z" fill="white"/>
<path d="M107.706 79.072C107.807 79.1371 107.891 79.225 107.952 79.3287C108.012 79.4323 108.047 79.5488 108.055 79.6686C108.054 79.891 107.897 79.9803 107.704 79.8685L87.0342 67.9349C86.9325 67.8689 86.8479 67.7799 86.7873 67.6749C86.7268 67.57 86.6919 67.4522 86.6857 67.3312C86.6863 67.1159 86.8429 67.0266 87.0364 67.1384L107.706 79.072Z" fill="white"/>
<path d="M81.5167 72.3966C82.4589 73.009 83.2432 73.8354 83.8057 74.8083C84.3681 75.7812 84.6928 76.8732 84.7533 77.9954C84.7475 80.0548 83.2878 80.8867 81.4955 79.852C80.5539 79.2385 79.7706 78.4113 79.2092 77.4377C78.6478 76.4641 78.3244 75.3717 78.2651 74.2495C78.271 72.1973 79.7307 71.3655 81.5167 72.3966ZM81.4978 79.0555C82.9029 79.8667 84.0556 79.2169 84.0601 77.5952C84.012 76.713 83.7563 75.8545 83.314 75.0896C82.8716 74.3247 82.2551 73.6749 81.5144 73.1931C80.1094 72.3819 78.9629 73.0352 78.9583 74.6497C79.0043 75.5322 79.2584 76.3914 79.6997 77.1571C80.1411 77.9228 80.7572 78.5733 81.4978 79.0555" fill="white"/>
<path d="M82.5855 75.7C82.6922 75.7663 82.7796 75.8595 82.8389 75.9702C82.9821 76.211 82.9813 76.4765 82.8372 76.5586L81.3837 77.3869C81.3426 77.4048 81.2975 77.4116 81.253 77.4066C81.2084 77.4017 81.1659 77.3852 81.1297 77.3588C81.0227 77.2925 80.934 77.2006 80.8716 77.0912L80.1434 75.8371L80.1497 75.8335C80.0128 75.5892 80.0135 75.3308 80.1576 75.2559C80.198 75.2362 80.243 75.2279 80.2877 75.2319C80.3325 75.2359 80.3753 75.252 80.4116 75.2786C80.5195 75.346 80.6083 75.44 80.6696 75.5515L80.7007 75.6198L81.1302 76.3565L82.3268 75.6746C82.3683 75.6557 82.4141 75.6482 82.4596 75.6526C82.505 75.6571 82.5484 75.6734 82.5855 75.7V75.7Z" fill="white"/>
<path d="M110.654 93.4814C110.755 93.5468 110.839 93.6355 110.898 93.7399C110.958 93.8443 110.992 93.9614 110.997 94.0815C110.996 94.3039 110.846 94.3896 110.652 94.2778L87.0289 80.6389C86.9275 80.5745 86.8429 80.4867 86.7823 80.3829C86.7217 80.2792 86.6867 80.1624 86.6804 80.0424C86.681 79.8199 86.8376 79.7307 87.0312 79.8424L110.654 93.4814Z" fill="white"/>
<path d="M107.706 89.9176C107.808 89.9835 107.892 90.0726 107.953 90.1775C108.014 90.2825 108.048 90.4003 108.055 90.5213C108.054 90.7438 107.897 90.833 107.704 90.7213L87.0342 78.7876C86.9325 78.7217 86.8479 78.6326 86.7873 78.5277C86.7268 78.4228 86.6919 78.3049 86.6857 78.1839C86.6863 77.9615 86.8429 77.8722 87.0365 77.9839L107.706 89.9176Z" fill="white"/>
<path d="M77.3887 114.327C77.5351 114.376 77.6625 114.47 77.753 114.595C77.8435 114.72 77.8926 114.871 77.8935 115.025C77.8944 115.18 77.8469 115.33 77.7579 115.457C77.6688 115.583 77.5425 115.678 77.3966 115.729L66.937 121.807C66.5623 121.999 66.1476 122.099 65.7268 122.099C65.3061 122.099 64.8913 121.999 64.5166 121.807L47.4803 111.971C46.8076 111.583 46.7986 110.955 47.4669 110.566L57.9266 104.488C58.3027 104.298 58.7184 104.199 59.1399 104.199C59.5613 104.2 59.9768 104.3 60.3524 104.491L77.3887 114.327ZM65.711 119.003L72.5464 115.031L59.1526 107.298L52.3172 111.27L65.711 119.003" fill="white"/>
<path d="M72.546 115.031L65.711 119.003L52.317 111.27L59.153 107.298L72.546 115.031Z" fill="#50E6FF"/>
<path d="M77.3967 115.729L66.937 121.807C66.5624 121.999 66.1476 122.099 65.7268 122.099C65.306 122.099 64.8913 121.999 64.5166 121.807L47.4803 111.971C47.3399 111.909 47.2186 111.81 47.129 111.685C47.0394 111.56 46.9847 111.414 46.9707 111.261L46.9667 112.657C46.9807 112.81 47.0354 112.957 47.125 113.082C47.2146 113.207 47.3358 113.306 47.4763 113.368L64.5126 123.204C64.8873 123.395 65.302 123.495 65.7228 123.495C66.1436 123.495 66.5584 123.395 66.9331 123.204L77.3926 117.125C77.5296 117.064 77.6478 116.967 77.735 116.844C77.8223 116.722 77.8756 116.579 77.8895 116.429L77.8935 115.032C77.8796 115.182 77.8263 115.325 77.739 115.448C77.6518 115.57 77.5336 115.667 77.3967 115.729V115.729Z" fill="#E8E8E8"/>
<path d="M105.948 130.816C106.095 130.865 106.222 130.959 106.313 131.084C106.403 131.209 106.452 131.36 106.453 131.514C106.454 131.668 106.406 131.819 106.317 131.945C106.228 132.072 106.102 132.167 105.956 132.218L95.4966 138.296C95.1219 138.488 94.7072 138.588 94.2864 138.588C93.8657 138.588 93.4509 138.488 93.0762 138.296L69.8434 124.883C69.1708 124.494 69.1618 123.866 69.8301 123.478L80.2897 117.399C80.6658 117.209 81.0815 117.11 81.503 117.111C81.9245 117.111 82.3399 117.211 82.7155 117.402L105.948 130.816ZM95.4445 132.909C95.6321 133.004 95.8394 133.054 96.0496 133.054C96.2598 133.054 96.4671 133.004 96.6547 132.909C96.7279 132.884 96.7913 132.837 96.836 132.774C96.8808 132.71 96.9046 132.635 96.9042 132.557C96.9037 132.48 96.8791 132.405 96.8336 132.342C96.7881 132.28 96.7242 132.233 96.6507 132.208L79.8059 122.483C79.6186 122.387 79.4112 122.337 79.2008 122.337C78.9904 122.337 78.783 122.387 78.5957 122.483C78.523 122.509 78.4601 122.556 78.4158 122.619C78.3714 122.683 78.3479 122.758 78.3483 122.835C78.3487 122.912 78.3732 122.987 78.4182 123.05C78.4633 123.112 78.5267 123.159 78.5997 123.184L95.4445 132.909L95.4445 132.909ZM82.9845 120.636C82.797 120.541 82.5897 120.491 82.3794 120.491C82.1692 120.491 81.9619 120.541 81.7743 120.636C81.7012 120.661 81.6377 120.708 81.593 120.772C81.5482 120.835 81.5244 120.91 81.5249 120.988C81.5253 121.065 81.55 121.14 81.5955 121.203C81.6409 121.266 81.7049 121.312 81.7783 121.337L97.1301 130.2C97.3172 130.297 97.5247 130.347 97.7352 130.347C97.9457 130.347 98.1532 130.297 98.3403 130.2C98.4135 130.175 98.4769 130.127 98.5216 130.064C98.5664 130.001 98.5902 129.926 98.5898 129.848C98.5893 129.771 98.5646 129.695 98.5192 129.633C98.4737 129.57 98.4097 129.523 98.3363 129.499L82.9846 120.636H82.9845ZM89.5367 133.175C89.7241 133.27 89.9315 133.32 90.1419 133.32C90.3522 133.32 90.5596 133.27 90.747 133.175C90.8196 133.149 90.8825 133.101 90.9269 133.038C90.9712 132.975 90.9948 132.9 90.9943 132.823C90.9939 132.746 90.9695 132.671 90.9244 132.608C90.8794 132.545 90.8159 132.498 90.743 132.474L76.6327 124.327C76.4451 124.232 76.2378 124.183 76.0276 124.183C75.8173 124.183 75.6101 124.232 75.4225 124.327C75.3493 124.352 75.2859 124.4 75.2411 124.463C75.1964 124.526 75.1726 124.602 75.173 124.679C75.1734 124.756 75.1981 124.832 75.2436 124.894C75.2891 124.957 75.353 125.004 75.4265 125.028L89.5368 133.175" fill="white"/>
<path d="M98.3364 129.499C98.4098 129.523 98.4738 129.57 98.5192 129.633C98.5647 129.695 98.5894 129.771 98.5898 129.848C98.5903 129.926 98.5664 130.001 98.5217 130.064C98.4769 130.127 98.4135 130.175 98.3404 130.2C98.1532 130.297 97.9458 130.347 97.7352 130.347C97.5247 130.347 97.3172 130.297 97.1301 130.2L81.7784 121.337C81.7049 121.312 81.641 121.266 81.5955 121.203C81.55 121.14 81.5253 121.065 81.5249 120.988C81.5245 120.91 81.5483 120.835 81.5931 120.772C81.6378 120.708 81.7012 120.661 81.7744 120.636C81.962 120.541 82.1693 120.491 82.3795 120.491C82.5897 120.491 82.797 120.541 82.9846 120.636L98.3364 129.499Z" fill="#C3F1FF"/>
<path d="M96.6507 132.208C96.7242 132.233 96.7882 132.28 96.8336 132.342C96.8791 132.405 96.9038 132.48 96.9042 132.557C96.9047 132.635 96.8808 132.71 96.8361 132.774C96.7913 132.837 96.7279 132.884 96.6547 132.909C96.4672 133.004 96.2599 133.054 96.0496 133.054C95.8394 133.054 95.6321 133.004 95.4445 132.909L78.5997 123.184C78.5267 123.159 78.4633 123.112 78.4182 123.05C78.3732 122.987 78.3487 122.912 78.3483 122.835C78.3478 122.758 78.3714 122.683 78.4158 122.619C78.4601 122.556 78.523 122.509 78.5957 122.483C78.783 122.387 78.9904 122.337 79.2008 122.337C79.4112 122.337 79.6185 122.387 79.8059 122.483L96.6507 132.208Z" fill="#C3F1FF"/>
<path d="M90.7431 132.474C90.816 132.498 90.8795 132.545 90.9245 132.608C90.9696 132.671 90.994 132.746 90.9945 132.823C90.9949 132.9 90.9713 132.975 90.927 133.038C90.8826 133.101 90.8198 133.149 90.7471 133.175C90.5597 133.27 90.3523 133.32 90.142 133.32C89.9316 133.32 89.7242 133.27 89.5368 133.175L75.4266 125.028C75.3531 125.004 75.2892 124.957 75.2437 124.894C75.1982 124.832 75.1735 124.756 75.1731 124.679C75.1727 124.602 75.1965 124.526 75.2412 124.463C75.286 124.4 75.3494 124.352 75.4226 124.327C75.6102 124.232 75.8174 124.183 76.0277 124.183C76.2379 124.183 76.4452 124.232 76.6328 124.327L90.7431 132.474Z" fill="#C3F1FF"/>
<path d="M105.956 132.218L95.4966 138.296C95.1219 138.488 94.7072 138.587 94.2864 138.587C93.8657 138.587 93.451 138.488 93.0763 138.296L69.8435 124.883C69.703 124.82 69.5817 124.722 69.4921 124.597C69.4025 124.472 69.3479 124.325 69.3338 124.172L69.3298 125.569C69.3439 125.722 69.3985 125.868 69.4881 125.993C69.5777 126.118 69.699 126.217 69.8395 126.279L93.0723 139.693C93.4469 139.884 93.8617 139.984 94.2824 139.984C94.7032 139.984 95.1179 139.884 95.4926 139.693L105.952 133.614C106.089 133.552 106.207 133.455 106.295 133.333C106.382 133.211 106.435 133.067 106.449 132.918L106.453 131.521C106.439 131.671 106.386 131.814 106.299 131.937C106.211 132.059 106.093 132.156 105.956 132.218V132.218Z" fill="#E8E8E8"/>
<path d="M60.7483 125.435C60.8216 125.461 60.8852 125.508 60.9301 125.572C60.9751 125.635 60.9992 125.71 60.999 125.788C60.9988 125.866 60.9744 125.941 60.9292 126.004C60.884 126.067 60.8202 126.115 60.7468 126.14C60.5593 126.235 60.352 126.284 60.1417 126.284C59.9315 126.284 59.7242 126.235 59.5366 126.14L44.1849 117.276C44.1119 117.251 44.0485 117.204 44.0034 117.142C43.9584 117.079 43.9339 117.004 43.9335 116.927C43.933 116.85 43.9566 116.775 44.001 116.712C44.0453 116.649 44.1082 116.601 44.1809 116.575C44.3689 116.479 44.5771 116.429 44.7883 116.428C44.9996 116.427 45.208 116.477 45.3965 116.572L60.7483 125.435Z" fill="#1F56A3"/>
<path d="M59.0627 128.145C59.1357 128.17 59.1991 128.217 59.2442 128.279C59.2892 128.342 59.3137 128.417 59.3141 128.494C59.3145 128.571 59.291 128.646 59.2466 128.709C59.2023 128.772 59.1394 128.82 59.0667 128.846C58.8794 128.941 58.672 128.991 58.4616 128.991C58.2512 128.991 58.0438 128.941 57.8565 128.846L41.0117 119.12C40.9382 119.096 40.8743 119.049 40.8288 118.987C40.7833 118.924 40.7586 118.849 40.7582 118.771C40.7577 118.694 40.7816 118.618 40.8263 118.555C40.8711 118.492 40.9345 118.445 41.0077 118.419C41.1952 118.324 41.4025 118.275 41.6128 118.275C41.823 118.275 42.0303 118.324 42.2179 118.419L59.0627 128.145Z" fill="#1F56A3"/>
<path d="M68.3549 126.755C68.5018 126.804 68.6296 126.898 68.7206 127.023C68.8115 127.148 68.8608 127.299 68.8617 127.453C68.8626 127.608 68.8149 127.759 68.7254 127.886C68.6359 128.012 68.5091 128.107 68.3628 128.157L57.9087 134.233C57.5332 134.425 57.1177 134.525 56.6961 134.525C56.2745 134.526 55.8587 134.427 55.4828 134.236L32.25 120.822C32.103 120.773 31.9751 120.679 31.8842 120.553C31.7934 120.427 31.744 120.276 31.7432 120.121C31.7423 119.966 31.7899 119.814 31.8794 119.688C31.9688 119.561 32.0956 119.465 32.2421 119.414L42.6963 113.339C43.0722 113.148 43.4879 113.048 43.9096 113.049C44.3312 113.05 44.7467 113.15 45.1221 113.342L68.3549 126.755ZM57.8565 128.846C58.0438 128.941 58.2512 128.991 58.4616 128.991C58.672 128.991 58.8794 128.941 59.0667 128.846C59.1394 128.82 59.2023 128.772 59.2466 128.709C59.291 128.646 59.3145 128.571 59.3141 128.494C59.3137 128.417 59.2892 128.342 59.2442 128.279C59.1991 128.216 59.1357 128.17 59.0627 128.145L42.2179 118.419C42.0303 118.324 41.823 118.275 41.6128 118.275C41.4026 118.275 41.1953 118.324 41.0077 118.419C40.9345 118.444 40.8711 118.492 40.8264 118.555C40.7816 118.618 40.7578 118.694 40.7582 118.771C40.7587 118.849 40.7833 118.924 40.8288 118.987C40.8743 119.049 40.9382 119.096 41.0117 119.12L57.8565 128.846H57.8565ZM45.3965 116.572C45.208 116.477 44.9996 116.427 44.7883 116.428C44.5771 116.429 44.3689 116.479 44.1809 116.575C44.1082 116.601 44.0453 116.649 44.001 116.712C43.9566 116.775 43.933 116.85 43.9335 116.927C43.9339 117.004 43.9584 117.079 44.0034 117.142C44.0485 117.204 44.1119 117.251 44.1849 117.276L59.5366 126.14C59.7242 126.235 59.9315 126.284 60.1417 126.284C60.352 126.284 60.5593 126.235 60.7468 126.14C60.8203 126.115 60.884 126.067 60.9293 126.004C60.9745 125.941 60.9989 125.866 60.999 125.788C60.9992 125.71 60.9751 125.635 60.9302 125.572C60.8852 125.508 60.8216 125.461 60.7483 125.435L45.3966 116.572L45.3965 116.572ZM51.9433 129.114C52.1309 129.209 52.3382 129.259 52.5484 129.259C52.7587 129.259 52.966 129.209 53.1535 129.114C53.2267 129.089 53.2901 129.041 53.3349 128.978C53.3796 128.915 53.4035 128.84 53.403 128.762C53.4026 128.685 53.3779 128.609 53.3325 128.547C53.287 128.484 53.223 128.437 53.1496 128.413L39.0393 120.266C38.852 120.171 38.6446 120.121 38.4342 120.121C38.2238 120.121 38.0164 120.171 37.8291 120.266C37.7564 120.292 37.6935 120.34 37.6492 120.403C37.6048 120.466 37.5812 120.541 37.5817 120.618C37.5821 120.695 37.6065 120.771 37.6516 120.833C37.6966 120.896 37.7601 120.943 37.833 120.967L51.9433 129.114" fill="white"/>
<path d="M53.1495 128.413C53.2229 128.437 53.2869 128.484 53.3324 128.547C53.3778 128.609 53.4025 128.685 53.403 128.762C53.4034 128.84 53.3796 128.915 53.3348 128.978C53.2901 129.041 53.2267 129.089 53.1535 129.114C52.9659 129.209 52.7586 129.259 52.5484 129.259C52.3381 129.259 52.1308 129.209 51.9433 129.114L37.8329 120.968C37.76 120.943 37.6965 120.896 37.6515 120.833C37.6064 120.771 37.582 120.696 37.5815 120.618C37.5811 120.541 37.6047 120.466 37.649 120.403C37.6934 120.34 37.7563 120.292 37.8289 120.267C38.0163 120.171 38.2237 120.121 38.434 120.121C38.6444 120.121 38.8518 120.171 39.0392 120.267L53.1495 128.413Z" fill="#1F56A3"/>
<path d="M68.3628 128.157L57.9086 134.233C57.5332 134.425 57.1177 134.525 56.696 134.525C56.2744 134.526 55.8587 134.427 55.4828 134.236L32.25 120.822C32.11 120.76 31.9892 120.661 31.9001 120.537C31.811 120.412 31.7568 120.266 31.7431 120.113L31.7391 121.51C31.7528 121.662 31.807 121.809 31.8961 121.933C31.9852 122.058 32.106 122.157 32.246 122.219L55.4788 135.632C55.8547 135.823 56.2704 135.922 56.6921 135.922C57.1137 135.921 57.5292 135.821 57.9046 135.629L68.3588 129.554C68.4961 129.492 68.6146 129.395 68.7022 129.273C68.7898 129.151 68.8435 129.007 68.8577 128.858L68.8617 127.461C68.8475 127.611 68.7938 127.754 68.7062 127.877C68.6185 127.999 68.5001 128.096 68.3628 128.157V128.157Z" fill="#E8E8E8"/>
<path d="M90.7181 139.667C90.865 139.715 90.9929 139.809 91.0838 139.934C91.1748 140.059 91.2241 140.21 91.225 140.365C91.2259 140.52 91.1782 140.671 91.0887 140.797C90.9991 140.923 90.8723 141.018 90.7259 141.069L80.2718 147.144C79.8964 147.336 79.4809 147.436 79.0593 147.437C78.6377 147.437 78.2219 147.338 77.846 147.147L60.8097 137.311C60.6627 137.262 60.5348 137.168 60.4439 137.042C60.3531 136.916 60.3037 136.765 60.3029 136.61C60.302 136.455 60.3496 136.303 60.4391 136.177C60.5285 136.05 60.6554 135.954 60.8018 135.903L71.256 129.828C71.6319 129.637 72.0477 129.537 72.4693 129.538C72.8909 129.538 73.3064 129.639 73.6818 129.831L90.7181 139.667ZM79.0458 144.34L85.8812 140.368L72.4874 132.635L65.652 136.607L79.0458 144.34Z" fill="white"/>
<path d="M85.881 140.368L79.046 144.34L65.652 136.607L72.487 132.635L85.881 140.368Z" fill="#0078D4"/>
<path d="M90.7259 141.069L80.2718 147.144C79.8964 147.336 79.4809 147.436 79.0592 147.437C78.6376 147.437 78.2218 147.338 77.8459 147.147L60.8097 137.311C60.6697 137.249 60.5488 137.15 60.4597 137.026C60.3706 136.901 60.3164 136.755 60.3028 136.602L60.2988 137.999C60.3125 138.151 60.3667 138.298 60.4558 138.422C60.5449 138.547 60.6657 138.645 60.8057 138.708L77.8419 148.544C78.2178 148.735 78.6336 148.834 79.0552 148.833C79.4769 148.833 79.8924 148.732 80.2678 148.54L90.7218 142.465C90.8591 142.404 90.9776 142.307 91.0653 142.184C91.153 142.062 91.2066 141.919 91.2208 141.769L91.2248 140.372C91.2106 140.522 91.157 140.666 91.0693 140.788C90.9817 140.91 90.8632 141.007 90.7259 141.069V141.069Z" fill="#E8E8E8"/>
</g>
<defs>
<linearGradient id="paint0_linear" x1="79.6785" y1="8.27838" x2="79.6785" y2="179.694" gradientUnits="userSpaceOnUse">
<stop stop-color="#00ABDE"/>
<stop offset="1" stop-color="#007ED8"/>
</linearGradient>
<linearGradient id="paint1_linear" x1="94.6309" y1="113.136" x2="94.6309" y2="27.7765" gradientUnits="userSpaceOnUse">
<stop stop-color="#004DAE"/>
<stop offset="0.21" stop-color="#0061C4"/>
<stop offset="0.51" stop-color="#0078DD"/>
<stop offset="0.78" stop-color="#0086EC"/>
<stop offset="1" stop-color="#008BF1"/>
</linearGradient>
<linearGradient id="paint2_linear" x1="6926.87" y1="9097.15" x2="2370.7" y2="3722.13" gradientUnits="userSpaceOnUse">
<stop stop-color="#004DAE"/>
<stop offset="0.21" stop-color="#0061C4"/>
<stop offset="0.51" stop-color="#0078DD"/>
<stop offset="0.78" stop-color="#0086EC"/>
<stop offset="1" stop-color="#008BF1"/>
</linearGradient>
<linearGradient id="paint3_linear" x1="97.2476" y1="109.459" x2="97.2476" y2="24.9834" gradientUnits="userSpaceOnUse">
<stop stop-color="#003067"/>
<stop offset="0.2" stop-color="#003F7C"/>
<stop offset="0.47" stop-color="#004F90"/>
<stop offset="0.74" stop-color="#00589D"/>
<stop offset="1" stop-color="#005BA1"/>
</linearGradient>
<clipPath id="clip0">
<rect width="159.356" height="188" fill="white"/>
</clipPath>
</defs>
</svg>
