<svg width="100" height="100" viewBox="0 0 100 100" fill="none" xmlns="http://www.w3.org/2000/svg">
<g clip-path="url(#clip0_1135_2878)">
<path d="M49.6401 96.4499C40.382 96.4499 31.3317 93.7045 23.6339 88.561C15.936 83.4174 9.93624 76.1067 6.3933 67.5533C2.85036 58.9999 1.92337 49.588 3.72954 40.5077C5.53571 31.4275 9.99394 23.0867 16.5404 16.5402C23.0869 9.99372 31.4277 5.5355 40.5079 3.72933C49.5882 1.92315 59.0001 2.85015 67.5535 6.39308C76.1069 9.93602 83.4176 15.9358 88.5612 23.6336C93.7047 31.3315 96.4501 40.3817 96.4501 49.6399C96.4505 55.7872 95.24 61.8744 92.8878 67.5538C90.5355 73.2332 87.0875 78.3937 82.7407 82.7405C78.3939 87.0873 73.2335 90.5353 67.554 92.8876C61.8746 95.2398 55.7874 96.4503 49.6401 96.4499V96.4499Z" fill="url(#paint0_linear_1135_2878)"/>
<path fill-rule="evenodd" clip-rule="evenodd" d="M95.54 49.6399C95.54 58.718 92.848 67.5923 87.8045 75.1406C82.7609 82.6888 75.5923 88.5719 67.2052 92.046C58.818 95.52 49.5891 96.429 40.6854 94.6579C31.7816 92.8869 23.603 88.5153 17.1838 82.0961C10.7646 75.6769 6.39302 67.4983 4.62196 58.5945C2.85089 49.6908 3.75987 40.4618 7.23393 32.0747C10.708 23.6876 16.5911 16.519 24.1393 11.4754C31.6875 6.43187 40.5618 3.73988 49.64 3.73988C55.6677 3.73986 61.6363 4.92708 67.2052 7.23377C72.774 9.54045 77.834 12.9214 82.0963 17.1836C86.3585 21.4458 89.7394 26.5058 92.0461 32.0747C94.3528 37.6435 95.54 43.6122 95.54 49.6399V49.6399ZM49.64 -0.000106449C59.4579 -0.000106449 69.0552 2.91123 77.2185 8.36574C85.3818 13.8203 91.7442 21.573 95.5014 30.6435C99.2585 39.714 100.242 49.695 98.3262 59.3242C96.4108 68.9534 91.6831 77.7984 84.7408 84.7407C77.7985 91.683 68.9535 96.4107 59.3243 98.3261C49.6951 100.241 39.7141 99.2584 30.6436 95.5013C21.5731 91.7441 13.8204 85.3816 8.36584 77.2184C2.91133 69.0551 -1.61629e-06 59.4577 3.61524e-07 49.6399C-0.000786426 43.1208 1.28265 36.6655 3.77702 30.6425C6.27138 24.6196 9.92781 19.147 14.5375 14.5374C19.1471 9.9277 24.6197 6.27127 30.6427 3.77691C36.6656 1.28254 43.121 -0.000894549 49.64 -0.000106449V-0.000106449Z" fill="#F2F1F0"/>
<path fill-rule="evenodd" clip-rule="evenodd" d="M92.7296 49.64C92.7296 58.1624 90.2024 66.4934 85.4676 73.5795C80.7328 80.6656 74.0031 86.1886 66.1294 89.45C58.2557 92.7113 49.5918 93.5647 41.2331 91.902C32.8745 90.2394 25.1966 86.1355 19.1703 80.1092C13.1441 74.083 9.04017 66.4051 7.37753 58.0464C5.7149 49.6878 6.56822 41.0238 9.8296 33.1502C13.091 25.2765 18.6139 18.5468 25.7 13.812C32.7862 9.07718 41.1172 6.55 49.6396 6.55C55.2983 6.54965 60.9017 7.66397 66.1298 9.82933C71.3579 11.9947 76.1082 15.1687 80.1096 19.17C84.1109 23.1713 87.2849 27.9217 89.4502 33.1498C91.6156 38.3778 92.7299 43.9812 92.7296 49.64ZM49.6396 2.81C58.9017 2.81 67.9558 5.55653 75.6569 10.7023C83.3581 15.848 89.3604 23.1619 92.9049 31.7189C96.4493 40.276 97.3767 49.6919 95.5697 58.7761C93.7628 67.8602 89.3027 76.2045 82.7534 82.7538C76.2041 89.3031 67.8598 93.7632 58.7757 95.5702C49.6915 97.3771 40.2756 96.4497 31.7185 92.9053C23.1614 89.3608 15.8476 83.3585 10.7018 75.6574C5.5561 67.9562 2.80957 58.9021 2.80957 49.64C2.81076 37.2203 7.74501 25.3096 16.5271 16.5275C25.3091 7.74544 37.2198 2.81119 49.6396 2.81V2.81Z" fill="#0078D4"/>
<path fill-rule="evenodd" clip-rule="evenodd" d="M92.7301 49.7835C92.7301 58.3059 90.2029 66.6369 85.4681 73.723C80.7333 80.8091 74.0036 86.3321 66.1299 89.5935C58.2562 92.8549 49.5923 93.7082 41.2336 92.0455C32.875 90.3829 25.1971 86.279 19.1708 80.2527C13.1446 74.2265 9.04066 66.5486 7.37802 58.1899C5.71538 49.8313 6.56871 41.1673 9.83009 33.2937C13.0915 25.42 18.6144 18.6903 25.7005 13.9555C32.7867 9.22069 41.1177 6.69351 49.6401 6.69351C55.2988 6.69316 60.9022 7.80748 66.1303 9.97284C71.3584 12.1382 76.1087 15.3122 80.1101 19.3135C84.1114 23.3149 87.2854 28.0652 89.4507 33.2933C91.6161 38.5213 92.7304 44.1248 92.7301 49.7835V49.7835ZM49.6401 2.95351C58.9022 2.95351 67.9563 5.70004 75.6574 10.8458C83.3586 15.9915 89.3609 23.3054 92.9053 31.8624C96.4498 40.4195 97.3772 49.8355 95.5702 58.9196C93.7633 68.0037 89.3032 76.348 82.7539 82.8973C76.2046 89.4466 67.8603 93.9067 58.7761 95.7137C49.692 97.5206 40.2761 96.5932 31.719 93.0488C23.1619 89.5043 15.8481 83.502 10.7023 75.8009C5.55659 68.0997 2.81006 59.0456 2.81006 49.7835C2.81124 37.3638 7.74548 25.4531 16.5276 16.671C25.3096 7.88892 37.2203 2.95467 49.64 2.95348L49.6401 2.95351Z" fill="#0078D4"/>
<path d="M73.4773 24.917C62.5415 24.917 55.2458 22.6468 51.1668 17.9677C50.9828 17.7727 50.761 17.6173 50.5149 17.5111C50.2687 17.4049 50.0035 17.3501 49.7354 17.3501C49.4673 17.3501 49.2021 17.4049 48.956 17.5111C48.7098 17.6173 48.488 17.7727 48.3041 17.9677C44.2252 22.6467 36.9296 24.917 25.9938 24.917C25.7441 24.9169 25.4969 24.966 25.2662 25.0614C25.0356 25.1569 24.826 25.2969 24.6494 25.4735C24.4729 25.65 24.3329 25.8596 24.2374 26.0903C24.142 26.3209 24.0929 26.5682 24.093 26.8178V42.0172C24.093 58.4479 31.5038 69.1912 48.8811 77.9261C49.1471 78.0565 49.4392 78.1249 49.7355 78.1262C50.0327 78.126 50.3256 78.0547 50.5897 77.9184C67.967 69.1836 75.378 58.4479 75.378 42.0172V26.8178C75.3769 26.314 75.1763 25.8312 74.8201 25.475C74.4639 25.1187 73.9811 24.9181 73.4773 24.917V24.917Z" fill="url(#paint1_linear_1135_2878)"/>
<path d="M49.7353 19.3074L49.7385 19.3078C54.2087 24.3904 61.9574 26.8661 73.4205 26.8743V42.0172C73.4205 57.5963 66.3339 67.8089 49.7278 76.161C33.1328 67.8104 26.0504 57.597 26.0504 42.0172V26.8743C37.5185 26.8661 45.2682 24.3891 49.7325 19.3074H49.7353M49.7496 76.172L49.7681 76.1731L49.76 76.1772L49.7496 76.172M49.7353 17.3501C49.4666 17.3458 49.2001 17.3986 48.9533 17.5051C48.7065 17.6116 48.4852 17.7692 48.304 17.9677C44.2252 22.6467 36.9296 24.917 25.9938 24.917C25.7441 24.9169 25.4969 24.966 25.2662 25.0615C25.0355 25.1569 24.826 25.2969 24.6494 25.4735C24.4729 25.65 24.3329 25.8596 24.2374 26.0903C24.142 26.321 24.0929 26.5682 24.093 26.8179V42.0172C24.093 58.4479 31.5038 69.1912 48.881 77.9261C49.1471 78.0565 49.4392 78.1249 49.7355 78.1262C50.0327 78.126 50.3256 78.0547 50.5898 77.9184C67.967 69.1836 75.378 58.4479 75.378 42.0172V26.8178C75.3769 26.314 75.1763 25.8312 74.8201 25.4749C74.4638 25.1187 73.981 24.9181 73.4772 24.917C62.5414 24.917 55.2457 22.6468 51.1667 17.9677C50.9855 17.7693 50.7642 17.6116 50.5174 17.5051C50.2706 17.3986 50.0041 17.3458 49.7353 17.3501V17.3501Z" fill="url(#paint2_linear_1135_2878)"/>
<path d="M56.3245 51.0139C56.6676 51.0139 57.0073 51.0815 57.3243 51.2127C57.6413 51.344 57.9293 51.5365 58.1718 51.7791C58.4144 52.0217 58.6069 52.3097 58.7382 52.6266C58.8694 52.9436 58.937 53.2833 58.937 53.6264V54.6933C58.937 55.3594 58.7288 56.0088 58.3415 56.5507C56.5457 59.0638 53.6132 60.3086 49.6399 60.3086C45.6659 60.3086 42.7349 59.0632 40.9435 56.5488C40.5578 56.0076 40.3506 55.3596 40.3506 54.695V53.6264C40.3506 53.2833 40.4181 52.9436 40.5494 52.6266C40.6807 52.3097 40.8732 52.0217 41.1157 51.7791C41.3583 51.5365 41.6463 51.344 41.9633 51.2127C42.2803 51.0814 42.62 51.0139 42.9631 51.0139H56.3245ZM49.64 37.0791C50.7888 37.0791 51.9118 37.4197 52.867 38.058C53.8222 38.6962 54.5667 39.6034 55.0063 40.6647C55.446 41.7261 55.561 42.894 55.3369 44.0207C55.1128 45.1474 54.5596 46.1824 53.7472 46.9947C52.9349 47.807 51.8999 48.3602 50.7732 48.5844C49.6465 48.8085 48.4786 48.6935 47.4173 48.2538C46.3559 47.8142 45.4487 47.0697 44.8105 46.1145C44.1723 45.1593 43.8316 44.0363 43.8316 42.8875C43.8316 41.347 44.4436 39.8697 45.5329 38.7804C46.6221 37.6911 48.0995 37.0791 49.64 37.0791V37.0791Z" fill="#C3F1FF"/>
<path opacity="0.2" d="M72.3128 57.8237L66.0075 50.4553L52.1141 67.0063L52.0943 66.9935L47.3484 72.4434L53.4259 76.418C62.8684 71.208 68.9939 65.247 72.3128 57.8237Z" fill="#1F56A3"/>
<path d="M52.514 69.988L66.025 78.756L79.774 69.954L81.497 71.967L66.025 81.929L50.791 71.967L52.514 69.988Z" fill="#50E6FF"/>
<path d="M53.5381 68.862L66.0251 53.987L78.7681 68.879L66.0251 76.931L53.5381 68.862Z" fill="white"/>
<path d="M66.0251 53.987V76.931L53.5381 68.862L66.0251 53.987Z" fill="#50E6FF"/>
<path d="M66.0249 53.987V76.931L78.7679 68.879L66.0249 53.987Z" fill="url(#paint3_linear_1135_2878)"/>
<path d="M66.0249 65.843L78.7679 68.879L66.0249 76.931V65.843Z" fill="#53B1E0"/>
<path d="M66.0251 76.931L53.5381 68.862L66.0251 65.843V76.931Z" fill="#9CEBFF"/>
<path d="M66.0249 81.929L81.4969 71.967L79.7739 69.954L66.0249 78.756V81.929Z" fill="url(#paint4_linear_1135_2878)"/>
</g>
<defs>
<linearGradient id="paint0_linear_1135_2878" x1="47.8698" y1="-15.1532" x2="51.8525" y2="130.615" gradientUnits="userSpaceOnUse">
<stop stop-color="#00ABDE"/>
<stop offset="1" stop-color="#007ED8"/>
</linearGradient>
<linearGradient id="paint1_linear_1135_2878" x1="49.7355" y1="78.1262" x2="49.7355" y2="17.3501" gradientUnits="userSpaceOnUse">
<stop stop-color="#008BF1"/>
<stop offset="0.99498" stop-color="#0078D4"/>
</linearGradient>
<linearGradient id="paint2_linear_1135_2878" x1="49.7355" y1="17.3501" x2="49.7355" y2="78.1262" gradientUnits="userSpaceOnUse">
<stop stop-color="#008BF1"/>
<stop offset="0.22" stop-color="#0086EC"/>
<stop offset="0.49" stop-color="#0078DD"/>
<stop offset="0.79" stop-color="#0061C4"/>
<stop offset="1" stop-color="#004DAE"/>
</linearGradient>
<linearGradient id="paint3_linear_1135_2878" x1="73.4025" y1="74.8111" x2="65.5042" y2="59.8504" gradientUnits="userSpaceOnUse">
<stop stop-color="#1988D9"/>
<stop offset="0.9" stop-color="#54AEF0"/>
</linearGradient>
<linearGradient id="paint4_linear_1135_2878" x1="70.0021" y1="70.4639" x2="75.4609" y2="79.8805" gradientUnits="userSpaceOnUse">
<stop offset="0.1" stop-color="#54AEF0"/>
<stop offset="0.29" stop-color="#4FABEE"/>
<stop offset="0.51" stop-color="#41A2E9"/>
<stop offset="0.74" stop-color="#2A93E0"/>
<stop offset="0.88" stop-color="#1988D9"/>
</linearGradient>
<clipPath id="clip0_1135_2878">
<rect width="99.2799" height="99.28" fill="white"/>
</clipPath>
</defs>
</svg>
