<?xml version="1.0" encoding="UTF-8"?>
<svg width="107px" height="107px" viewBox="0 0 107 107" version="1.1" xmlns="http://www.w3.org/2000/svg" xmlns:xlink="http://www.w3.org/1999/xlink">
    <!-- Generator: Sketch 63.1 (92452) - https://sketch.com -->
    <title>Manage your security with Microsoft 365/Protect-mail-with-Office-365-Advanced-Threat-Protection</title>
    <desc>Created with Sketch.</desc>
    <defs>
        <rect id="path-1" x="0" y="0" width="100" height="100" rx="50"></rect>
        <filter x="-6.2%" y="-9.1%" width="112.5%" height="118.2%" filterUnits="objectBoundingBox" id="filter-3">
            <feOffset dx="0" dy="2" in="SourceAlpha" result="shadowOffsetOuter1"></feOffset>
            <feColorMatrix values="0 0 0 0 0   0 0 0 0 0   0 0 0 0 0  0 0 0 0.0964956975 0" type="matrix" in="shadowOffsetOuter1" result="shadowMatrixOuter1"></feColorMatrix>
            <feMerge>
                <feMergeNode in="shadowMatrixOuter1"></feMergeNode>
                <feMergeNode in="SourceGraphic"></feMergeNode>
            </feMerge>
        </filter>
        <linearGradient x1="76.7275556%" y1="-4.05946744%" x2="15.5786468%" y2="110.793945%" id="linearGradient-4">
            <stop stop-color="#FFFFFF" offset="0%"></stop>
            <stop stop-color="#000000" stop-opacity="0.5" offset="100%"></stop>
        </linearGradient>
        <rect id="path-5" x="-3" y="-3" width="106" height="106" rx="53"></rect>
        <filter x="-0.5%" y="-0.5%" width="101.9%" height="101.9%" filterUnits="objectBoundingBox" id="filter-6">
            <feOffset dx="1" dy="1" in="SourceAlpha" result="shadowOffsetOuter1"></feOffset>
            <feMorphology radius="4" operator="erode" in="SourceAlpha" result="shadowInner"></feMorphology>
            <feOffset dx="1" dy="1" in="shadowInner" result="shadowInner"></feOffset>
            <feComposite in="shadowOffsetOuter1" in2="shadowInner" operator="out" result="shadowOffsetOuter1"></feComposite>
            <feColorMatrix values="0 0 0 0 0   0 0 0 0 0   0 0 0 0 0  0 0 0 0.15 0" type="matrix" in="shadowOffsetOuter1"></feColorMatrix>
        </filter>
    </defs>
    <g id="Badges" stroke="none" stroke-width="1" fill="none" fill-rule="evenodd">
        <g id="Manage-your-security-with-Microsoft-365" transform="translate(-47.000000, -657.000000)">
            <g id="Manage-your-security-with-Microsoft-365/Protect-mail-with-Office-365-Advanced-Threat-Protection" transform="translate(50.000000, 660.000000)">
                <g id="Mask" transform="translate(2.000000, 2.000000)">
                    <g id="Circle-" transform="translate(-2.000000, -0.000000)">
                        <mask id="mask-2" fill="white">
                            <use xlink:href="#path-1"></use>
                        </mask>
                        <g id="BG"></g>
                        <g id="Color-/-Microsoft-365" mask="url(#mask-2)" fill="#0078D4" fill-rule="evenodd">
                            <rect id="Rectangle" x="0" y="0" width="100" height="100"></rect>
                        </g>
                    </g>
                    <g id="Envelope" filter="url(#filter-3)" transform="translate(16.000000, 18.000000)">
                        <path d="M24.201,19.8 L1.181,42.82 C0.451,42.101 4.70734562e-13,41.101 4.70734562e-13,40 L4.70734562e-13,4 C4.70734562e-13,3 0.371,2.081 1,1.38 L24.201,19.8" id="Fill-4" fill="#EFB252"></path>
                        <path d="M62.82,42.82 C62.101,43.55 61.101,44 60,44 L4,44 C2.9,44 1.9,43.55 1.181,42.82 L24.201,19.8 L32,26 L39.9,19.9 L62.82,42.82" id="Fill-5" fill="#F7CB64"></path>
                        <path d="M64,4 L64,40 C64,41.101 63.55,42.101 62.82,42.82 L39.9,19.9 L63.34,1.82 C63.76,2.451 64,3.201 64,4" id="Fill-6" fill="#EFB252"></path>
                        <path d="M63.34,1.82 L39.9,19.9 L32,26 L24.201,19.8 L1,1.38 C1.721,0.53 2.8,0 4,0 L60,0 C61.4,0 62.63,0.721 63.34,1.82" id="Fill-7" fill="#F7CB64"></path>
                        <polyline id="Fill-8" fill="#CC9547" points="39.9 19.9 32 26 24.201 19.8 7.388 6.452 32 28 52.781 9.965 39.9 19.9"></polyline>
                    </g>
                    <g id="Group" transform="translate(16.000000, 37.000000)" fill-rule="nonzero">
                        <ellipse id="Shadow" fill="#000000" opacity="0.1" cx="22.5656979" cy="48.2557735" rx="18.1035294" ry="3.1545098"></ellipse>
                        <g id="Cape" transform="translate(33.135110, 5.007146)">
                            <path d="M0.103529412,13.2862745 C0.103529412,16.4235294 2.45647059,19.5607843 4.02509804,19.5607843 C5.59372549,19.5607843 7.16235294,18.7764706 8.73098039,17.9921569 C10.2996078,17.2078431 14.2211765,19.5607843 17.3584314,18.7764706 C20.4956863,17.9921569 19.7113725,10.9333333 23.6329412,10.1490196 C27.5545098,9.36470588 29.907451,13.2862745 33.8290196,13.2862745 C37.7505882,13.2862745 43.2407843,10.1490196 45.5937255,5.44313725 C45.5937255,5.44313725 40.1035294,10.1490196 36.9662745,9.36470588 C33.8290196,8.58039216 30.6917647,0.737254902 27.5545098,2.30588235 C24.4172549,3.8745098 20.4956863,9.36470588 13.4368627,9.36470588 C8.73098039,9.36470588 4.54823529,7.53490196 0.887843137,3.8745098 C0.364705882,8.05803922 0.103529412,11.1952941 0.103529412,13.2862745 Z" id="Path-3" fill="#DF5142"></path>
                            <path d="M29.707451,11.5152941 L29.707451,11.9490196 C26.5858824,10.3254902 23.5160784,9.98745098 20.4956863,10.9341176 C15.4901961,12.5027451 14.2211765,14.8556863 8.73098039,14.8556863 C3.24078431,14.8556863 0.887843137,10.1498039 0.103529412,0.738039216 C4.80941176,7.79686275 7.16235294,7.79686275 8.73098039,7.79686275 C10.2996078,7.79686275 11.8682353,7.79686275 14.2211765,4.26745098 C16.5741176,0.738039216 21.28,2.30666667 22.8486275,4.26745098 C23.8094118,5.46823529 26.0956863,7.88470588 29.707451,11.5152941 Z" id="Path-2" fill="#C2423D"></path>
                        </g>
                        <g id="Legs" transform="translate(20.910655, 38.543951) rotate(-4.000000) translate(-20.910655, -38.543951) translate(10.322420, 27.171402)" fill="#30404D">
                            <path d="M3.70199544,18.3530885 L3.43768171,14.7828924 C3.23121906,11.9959689 3.32324508,9.1949598 3.71219151,6.42759827 L4.30591701,2.20563749 C4.36016519,1.69265188 4.68988302,1.25009407 5.16590141,1.05133895 C5.64191979,0.85258383 6.18844447,0.929278283 6.59137086,1.25137676 C6.99429725,1.57347524 7.18946919,2.08969145 7.10042681,2.59779435 L6.55925034,6.45504925 C6.17785132,9.16852793 6.08190234,11.9145086 6.27297583,14.6479904 L6.6196425,19.6150493 C6.64081897,19.9123042 6.56787779,20.1938728 6.42670132,20.4323042 C6.18083643,20.8682554 5.72242398,21.1413331 5.22199544,21.1499512 L2.61572093,21.1954414 C1.85166465,21.1871431 1.23288191,20.57246 1.21950476,19.8084758 C1.2061276,19.0444916 1.80301176,18.4085225 2.56630916,18.3734806 L3.70199544,18.3530885 L3.70199544,18.3530885 Z" id="Combined-Shape" transform="translate(4.170468, 11.068882) rotate(4.000000) translate(-4.170468, -11.068882) "></path>
                            <path d="M16.939905,19.5122021 L16.6748069,15.942006 C16.4683443,13.1550826 16.5603703,10.3540734 16.9493167,7.58671189 L17.5430422,3.36475111 C17.6017106,2.85543003 17.931888,2.41794707 18.4055998,2.22186779 C18.8793116,2.02578851 19.4220915,2.10193608 19.8235615,2.4207962 C20.2250315,2.73965631 20.4220816,3.25110497 20.3383363,3.75690797 L19.7963756,7.61337856 C19.4149217,10.3271156 19.3189726,13.073362 19.510101,15.8071041 L19.857552,20.7741629 C19.8779442,21.0714178 19.805003,21.3529864 19.6638265,21.5914178 C19.417903,22.0268282 18.9598893,22.2995477 18.459905,22.3082805 L15.8528461,22.3537707 C15.0887899,22.3454724 14.4700071,21.7307893 14.45663,20.9668051 C14.4432528,20.2028209 15.040137,19.5668518 15.8034344,19.5318099 L16.939905,19.5122021 L16.939905,19.5122021 Z" id="Combined-Shape-Copy" transform="translate(17.406870, 12.234147) scale(-1, 1) rotate(-4.000000) translate(-17.406870, -12.234147) "></path>
                        </g>
                        <g id="Arm" transform="translate(37.056691, 18.340839) rotate(8.000000) translate(-37.056691, -18.340839) translate(32.350808, 9.713388)" fill="#30404D">
                            <path d="M1.57647059,13.6494118 L5.15372549,9.53411765 C5.70128019,8.90436603 5.65991861,7.95615174 5.05960784,7.37647059 L0.738039216,3.20392157 C0.177369803,2.66222239 0.161920133,1.7685994 0.703529412,1.20784314 C1.24470588,0.647058824 1.31529412,0.0337254902 1.87607843,0.574901961 L8.27764706,7.44941176 C8.79558944,8.00542095 8.84053153,8.85271145 8.38431373,9.46039216 L4.73098039,14.3223529 C5.20073422,14.7892934 5.28271308,15.5200276 4.9281039,16.0794509 C4.57349473,16.6388741 3.87765089,16.8765593 3.25490196,16.6509804 L2.1254902,16.24 C1.4603357,15.9975217 1.07764021,15.2998822 1.23058824,14.6086275 C1.2227451,14.2698039 1.33568627,13.9262745 1.57568627,13.6494118 L1.57647059,13.6494118 Z" id="Combined-Shape"></path>
                        </g>
                        <g id="Arm-Copy" transform="translate(5.490196, 18.340915) scale(-1, 1) rotate(4.000000) translate(-5.490196, -18.340915) translate(0.784314, 9.713464)" fill="#30404D">
                            <path d="M1.57647059,13.6494118 L5.15372549,9.53411765 C5.70128019,8.90436603 5.65991861,7.95615174 5.05960784,7.37647059 L0.738039216,3.20392157 C0.177369803,2.66222239 0.161920133,1.7685994 0.703529412,1.20784314 C1.24470588,0.647058824 1.31529412,0.0337254902 1.87607843,0.574901961 L8.27764706,7.44941176 C8.79558944,8.00542095 8.84053153,8.85271145 8.38431373,9.46039216 L4.73098039,14.3223529 C5.20073422,14.7892934 5.28271308,15.5200276 4.9281039,16.0794509 C4.57349473,16.6388741 3.87765089,16.8765593 3.25490196,16.6509804 L2.1254902,16.24 C1.4603357,15.9975217 1.07764021,15.2998822 1.23058824,14.6086275 C1.2227451,14.2698039 1.33568627,13.9262745 1.57568627,13.6494118 L1.57647059,13.6494118 Z" id="Combined-Shape"></path>
                        </g>
                        <g id="Shield" transform="translate(21.142632, 17.254902) rotate(2.000000) translate(-21.142632, -17.254902) translate(7.024985, 0.784314)">
                            <path d="M13.9513725,1.0172549 C11.2431373,4.07294118 6.47215686,5.08627451 1.03372549,5.08627451 L1.03372549,13.225098 C1.03372549,21.6156863 4.81176471,27.0156863 13.9513725,31.5364706 C23.0909804,27.0156863 26.8690196,21.614902 26.8690196,13.225098 L26.8690196,5.08627451 C21.4313725,5.08627451 16.6603922,4.07294118 13.9513725,1.0172549" id="Fill-22" fill="#2D4A5E"></path>
                            <path d="M13.9513725,31.5364706 C23.0909804,27.0156863 26.8690196,21.614902 26.8690196,13.225098 L26.8690196,5.08627451 C21.4313725,5.08627451 16.6603922,4.07294118 13.9513725,1.0172549 L13.9513725,31.5364706 Z" id="Fill-23" fill="#000000" opacity="0.100000001"></path>
                            <path d="M2.06666667,6.07843137 L2.06666667,13.2156863 C2.06666667,21.0980392 5.51843137,26.105098 13.9513725,30.3937255 C22.3843137,26.105098 25.8360784,21.0980392 25.8360784,13.214902 L25.8360784,6.07764706 C20.4039216,5.94666667 16.4956863,4.75607843 13.9513725,2.45647059 C11.4070588,4.75607843 7.49960784,5.94666667 2.06666667,6.07764706 L2.06666667,6.07843137 Z M13.9513725,32.5537259 C13.7921569,32.5537259 13.6337255,32.5176471 13.4878431,32.4454902 C4.03372549,27.7670588 0,22.0156863 0,13.214902 L0,5.07294118 C0,4.50980392 0.462745098,4.05490196 1.03372549,4.05490196 C6.9827451,4.05490196 10.9537255,2.83686275 13.172549,0.331764706 C13.5654902,-0.110588235 14.3372549,-0.110588235 14.7301961,0.331764706 C16.9498039,2.83686275 20.92,4.05490196 26.8698039,4.05490196 C27.44,4.05490196 27.9027451,4.51058824 27.9027451,5.07294118 L27.9027451,13.214902 C27.9027451,22.014902 23.8690196,27.7670588 14.4156863,32.4454902 C14.271307,32.5168205 14.1124109,32.5537259 13.9513725,32.5537259 Z" id="Fill-24" fill="#182A37"></path>
                        </g>
                    </g>
                </g>
                <g id="Azure-Border">
                    <path d="M50,0 C74.5263677,-4.50542066e-15 94.9281966,17.6592499 99.1842495,40.9565123 L94.2027317,73.3905473 C85.8096395,89.2186645 69.1638777,100 50,100 C30.9551233,100 14.3971863,89.3521454 5.95457608,73.6848234 L0.0261464987,48.3675131 C0.887696267,21.508872 22.932015,4.97230817e-15 50,0 Z" id="Combined-Shape" fill="url(#linearGradient-4)" fill-rule="evenodd" opacity="0.400000006" style="mix-blend-mode: overlay;"></path>
                    <g>
                        <use fill="black" fill-opacity="1" filter="url(#filter-6)" xlink:href="#path-5"></use>
                        <rect stroke="#F2F1F0" stroke-width="4" stroke-linejoin="square" x="-1" y="-1" width="102" height="102" rx="51"></rect>
                    </g>
                    <rect stroke="#0078D4" stroke-width="4" x="2" y="2" width="96" height="96" rx="48"></rect>
                </g>
            </g>
        </g>
    </g>
</svg>