<svg width="103" height="103" viewBox="0 0 103 103" fill="none" xmlns="http://www.w3.org/2000/svg">
<path d="M51.2177 98.0721C25.3677 98.0721 4.40771 77.1221 4.40771 51.2621C4.40771 25.4021 25.3677 4.45215 51.2177 4.45215C77.0677 4.45215 98.0277 25.4121 98.0277 51.2621C98.0277 77.1121 77.0677 98.0721 51.2177 98.0721Z" fill="url(#paint0_linear_852_61243)"/>
<path fill-rule="evenodd" clip-rule="evenodd" d="M97.1176 51.2623C97.1176 76.6123 76.5676 97.1623 51.2176 97.1623C25.8676 97.1623 5.31764 76.6123 5.31764 51.2623C5.31764 25.9123 25.8676 5.36232 51.2176 5.36232C76.5676 5.36232 97.1176 25.9123 97.1176 51.2623ZM51.2176 1.62231C78.6376 1.62231 100.858 23.8423 100.858 51.2623C100.858 78.6823 78.6276 100.902 51.2176 100.902C23.7976 100.902 1.57764 78.6723 1.57764 51.2623C1.57764 23.8423 23.7976 1.62231 51.2176 1.62231Z" fill="#F2F1F0"/>
<path fill-rule="evenodd" clip-rule="evenodd" d="M94.3077 51.2623C94.3077 75.0623 75.0177 94.3522 51.2177 94.3522C27.4177 94.3522 8.1277 75.0623 8.1277 51.2623C8.1277 27.4623 27.4177 8.17226 51.2177 8.17226C75.0177 8.17226 94.3077 27.4623 94.3077 51.2623ZM51.2177 4.43225C77.0777 4.43225 98.0477 25.4023 98.0477 51.2623C98.0477 77.1223 77.0777 98.0923 51.2177 98.0923C25.3577 98.0923 4.3877 77.1223 4.3877 51.2623C4.3877 25.4023 25.3477 4.43225 51.2177 4.43225Z" fill="url(#paint1_linear_852_61243)"/>
<path opacity="0.2" d="M73.0417 77.9498C74.5538 77.9498 75.7858 76.7178 75.7858 75.2057V25.2891H21.8184V75.187C21.8184 76.6991 23.0504 77.9312 24.5625 77.9312L73.0417 77.9498Z" fill="#1F1D21"/>
<g filter="url(#filter0_d_852_61243)">
<path d="M75.7858 25.7346V24.8946C75.7858 23.8492 74.9458 23.0278 73.9191 23.0278H23.6851C22.6584 23.0278 21.8184 23.8679 21.8184 24.8946V25.8279V26.668V74.7366C21.8184 75.7819 22.6584 76.6033 23.6851 76.6033H73.9004C74.9458 76.6033 75.7672 75.7633 75.7672 74.7366V25.8279C75.8045 25.7906 75.7858 25.7719 75.7858 25.7346Z" fill="#1D4A79"/>
</g>
<rect x="58.814" y="25.2935" width="11.2667" height="2.87926" fill="#4CE1FD"/>
<rect x="58.814" y="41.191" width="11.2667" height="2.87926" fill="#46D9FA"/>
<rect x="58.814" y="47.0756" width="11.2667" height="2.87926" fill="#31BBEE"/>
<rect x="58.814" y="65.2284" width="11.2667" height="2.87926" fill="#189AE2"/>
<path d="M58.814 71.1089H70.0806V73.9881H58.814V71.1089Z" fill="#0178D4"/>
<rect x="58.814" y="53.7098" width="11.2667" height="2.87926" fill="#26ADE9"/>
<path opacity="0.15" d="M73.8964 83.0146C79.1598 83.0146 83.4237 78.7508 83.4237 73.4874C83.4237 68.224 79.1598 63.9601 73.8964 63.9601C68.633 63.9601 64.3691 68.224 64.3691 73.4874C64.3818 78.7508 68.6457 83.0146 73.8964 83.0146Z" fill="#1F1D20"/>
<path d="M73.8964 81.9418C79.1598 81.9418 83.4237 77.6779 83.4237 72.4145C83.4237 67.1511 79.1598 62.8872 73.8964 62.8872C68.633 62.8872 64.3691 67.1511 64.3691 72.4145C64.3818 77.6779 68.6457 81.9418 73.8964 81.9418Z" fill="#002D4C"/>
<path opacity="0.3" d="M79.0841 68.2522L71.2396 76.1347L68.8863 73.7687L67.3174 75.3502L71.2396 79.2851L80.6657 69.8338L79.0841 68.2522Z" fill="#1F1D20"/>
<path d="M79.0841 67.5813L71.2396 75.4638L68.8863 73.0978L67.3174 74.6793L71.2396 78.6142L80.6657 69.1629L79.0841 67.5813Z" fill="#FAF9F8"/>
<g filter="url(#filter1_d_852_61243)">
<path d="M50.8152 50.2828C50.8507 50.1659 50.8709 50.0449 50.8753 49.9228V47.9228C50.8642 47.5469 50.7104 47.1894 50.4452 46.9228C50.1788 46.6587 49.8203 46.5082 49.4452 46.5028H47.9452V42.6128C47.9465 41.6656 47.7609 40.7275 47.3991 39.8521C47.0372 38.9768 46.5062 38.1814 45.8364 37.5117C45.1667 36.8419 44.3712 36.3109 43.4959 35.949C42.6205 35.5871 41.6825 35.4015 40.7352 35.4028H40.4152C37.1252 35.4928 34.5753 37.1228 33.7553 39.6528C33.6573 39.9463 33.5837 40.2473 33.5352 40.5528V40.7028C33.4652 41.0928 33.3452 41.8328 33.3052 42.2628V42.4128C33.2929 42.462 33.2929 42.5136 33.3052 42.5628C33.3266 42.603 33.3575 42.6373 33.3952 42.6628C33.7101 42.8075 34.0492 42.8923 34.3952 42.9128C34.5147 42.9174 34.634 42.8969 34.7453 42.8528L35.0153 42.7228L35.1353 42.3128C35.1353 42.0228 35.4052 40.7528 35.5252 40.3128C35.5872 40.0745 35.6814 39.8457 35.8052 39.6328C35.8964 39.4536 36.0036 39.2829 36.1253 39.1228L36.1952 39.0328L36.3452 38.8728C36.9885 38.2728 37.7582 37.8248 38.5976 37.5617C39.4369 37.2987 40.3246 37.2272 41.1952 37.3528C42.5319 37.525 43.7579 38.1847 44.6382 39.2052C45.5185 40.2257 45.9911 41.5353 45.9652 42.8828V46.4628H31.9652C31.7741 46.4601 31.5843 46.4958 31.4071 46.5677C31.23 46.6396 31.069 46.7464 30.9339 46.8815C30.7987 47.0167 30.6921 47.1776 30.6201 47.3547C30.5482 47.5319 30.5126 47.7216 30.5153 47.9128V64.3628C30.5206 64.7379 30.6711 65.0964 30.9352 65.3628C31.0711 65.5019 31.2346 65.6109 31.4152 65.6828C31.5952 65.7607 31.7891 65.8015 31.9852 65.8028H49.4552C49.8416 65.8002 50.2115 65.6456 50.4848 65.3723C50.758 65.0991 50.9126 64.7292 50.9152 64.3428V54.0928L50.8252 54.3928L50.8152 50.2828Z" fill="white"/>
</g>
<path fill-rule="evenodd" clip-rule="evenodd" d="M51.5821 63.7758C51.5821 64.2943 51.3761 64.7916 51.0095 65.1582C50.6428 65.5249 50.1455 65.7309 49.627 65.7309H32.2457C31.7271 65.7309 31.2299 65.5249 30.8632 65.1582C30.4965 64.7916 30.2905 64.2943 30.2905 63.7758V49.2881H51.5138V63.7758H51.5821Z" fill="#C5CCCD"/>
<path fill-rule="evenodd" clip-rule="evenodd" d="M51.5821 49.2862C51.5821 49.8047 51.3761 50.302 51.0095 50.6686C50.6428 51.0353 50.1455 51.2413 49.627 51.2413H32.2457C31.7271 51.2413 31.2299 51.0353 30.8632 50.6686C30.4965 50.302 30.2905 49.8047 30.2905 49.2862V47.331C30.2905 46.8125 30.4965 46.3151 30.8632 45.9485C31.2299 45.5818 31.7271 45.3759 32.2457 45.3759H49.627C50.1455 45.3759 50.6428 45.5818 51.0095 45.9485C51.3761 46.3151 51.5821 46.8125 51.5821 47.331V49.2862Z" fill="#839196"/>
<path fill-rule="evenodd" clip-rule="evenodd" d="M49.6563 51.7107H41.9237C41.6644 51.7107 41.4158 51.8137 41.2325 51.9971C41.0491 52.1804 40.9461 52.429 40.9461 52.6883V63.7838C40.9461 64.0431 40.8431 64.2917 40.6598 64.475C40.4765 64.6584 40.2278 64.7614 39.9685 64.7614H32.2652C31.7467 64.7614 31.2494 64.5554 30.8827 64.1887C30.5161 63.822 30.3101 63.3248 30.3101 62.8062V63.7838C30.3101 64.3023 30.5161 64.7996 30.8827 65.1663C31.2494 65.5329 31.7467 65.739 32.2652 65.739H49.6465C50.1651 65.739 50.6623 65.5329 51.029 65.1663C51.3956 64.7996 51.6017 64.3023 51.6017 63.7838V49.7751C51.5965 50.2886 51.3896 50.7794 51.0256 51.1416C50.6616 51.5037 50.1698 51.7082 49.6563 51.7107Z" fill="#ADBDC4"/>
<path fill-rule="evenodd" clip-rule="evenodd" d="M40.9656 55.2293C40.3522 55.2273 39.7521 55.4074 39.2412 55.7468C38.7303 56.0861 38.3317 56.5694 38.0956 57.1355C37.8596 57.7016 37.7968 58.3249 37.9153 58.9267C38.0338 59.5284 38.3281 60.0816 38.7611 60.5159C39.1941 60.9503 39.7463 61.2464 40.3477 61.3668C40.9491 61.4872 41.5726 61.4263 42.1394 61.1921C42.7063 60.9578 43.1909 60.5607 43.5318 60.0508C43.8728 59.541 44.0547 58.9415 44.0547 58.3282C44.0547 57.508 43.7296 56.7212 43.1506 56.1403C42.5715 55.5594 41.7858 55.2319 40.9656 55.2293V55.2293Z" fill="#F5F8F5"/>
<path fill-rule="evenodd" clip-rule="evenodd" d="M49.1676 48.3394C49.0975 48.7899 48.8534 49.195 48.4878 49.4674C48.1221 49.7398 47.6642 49.8578 47.2125 49.7961C46.1567 49.7961 45.2573 49.1508 45.2573 48.3394C45.3367 47.8863 45.5733 47.4757 45.9256 47.1798C46.2778 46.8839 46.7231 46.7217 47.1831 46.7217C47.6432 46.7217 48.0885 46.8839 48.4408 47.1798C48.793 47.4757 49.0295 47.8863 49.1089 48.3394H49.1676Z" fill="#30404D"/>
<path fill-rule="evenodd" clip-rule="evenodd" d="M36.1676 48.3389C36.0975 48.7895 35.8534 49.1945 35.4878 49.4669C35.1221 49.7393 34.6642 49.8573 34.2125 49.7956C33.1567 49.7956 32.2573 49.1503 32.2573 48.3389C32.3367 47.8858 32.5733 47.4752 32.9256 47.1793C33.2778 46.8834 33.7231 46.7212 34.1831 46.7212C34.6432 46.7212 35.0885 46.8834 35.4408 47.1793C35.793 47.4752 36.0295 47.8858 36.1089 48.3389H36.1676Z" fill="#30404D"/>
<path fill-rule="evenodd" clip-rule="evenodd" d="M40.8779 34.2817C37.388 34.2817 34.4258 35.9339 33.4678 38.8959C33.3653 39.2155 33.2868 39.5422 33.2332 39.8735C33.1746 40.2352 32.9692 41.4181 32.9692 41.8286C32.9688 41.9491 32.996 42.0681 33.0485 42.1765C33.101 42.2849 33.1776 42.3799 33.2723 42.4543C33.6842 42.6682 34.1381 42.7883 34.6018 42.8062C34.7884 42.8146 34.9748 42.7846 35.1493 42.7182C35.6674 42.5422 35.7261 42.1708 35.7261 41.7406L35.9118 41.2714C35.9118 38.4462 38.5122 36.9701 41.3765 37.2634C42.5881 37.4241 43.6982 38.0251 44.4951 38.9518C45.292 39.8785 45.7199 41.0661 45.6973 42.2881V47.8505C45.6973 48.3784 46.3425 48.8281 47.1539 48.8281C47.9652 48.8281 48.6104 48.3979 48.6104 47.8505V42.0633C48.6156 41.044 48.4195 40.0338 48.0333 39.0906C47.6472 38.1474 47.0786 37.2897 46.3602 36.5667C45.6418 35.8438 44.7876 35.2697 43.8468 34.8776C42.906 34.4855 41.8971 34.283 40.8779 34.2817V34.2817Z" fill="#F5F8F5"/>
<path fill-rule="evenodd" clip-rule="evenodd" d="M40.9165 34.2817H40.4277C42.3859 34.4036 44.2241 35.2671 45.568 36.6964C46.9119 38.1257 47.6606 40.0134 47.6618 41.9753V47.1271C47.6588 47.2737 47.6228 47.4178 47.5566 47.5486C47.4903 47.6795 47.3954 47.7937 47.279 47.8829C47.1626 47.9721 47.0276 48.0339 46.884 48.0638C46.7404 48.0938 46.592 48.091 46.4496 48.0558C46.1856 48 45.936 47.8902 45.7164 47.7332V48.7108C46.1286 49.0424 46.6441 49.2189 47.173 49.2093C47.7014 49.2156 48.2159 49.0395 48.6296 48.7108V41.985C48.627 39.9411 47.8132 37.9818 46.367 36.5374C44.9208 35.0931 42.9605 34.2817 40.9165 34.2817V34.2817Z" fill="#C5CCCD"/>
<path fill-rule="evenodd" clip-rule="evenodd" d="M37.9257 37.5071C37.4601 37.676 37.0328 37.9359 36.6686 38.2715C36.3044 38.6072 36.0106 39.0119 35.8043 39.4622L35.5111 40.5277C35.3449 41.1338 35.0222 41.5053 34.4552 41.5738C34.2093 41.597 33.9612 41.5772 33.7221 41.5151C33.4737 41.4626 33.24 41.3558 33.0378 41.2023L32.9596 41.7693C32.9569 41.8946 32.9859 42.0186 33.044 42.1297C33.1021 42.2408 33.1875 42.3354 33.292 42.4047C33.701 42.6153 34.1518 42.7322 34.6117 42.7469C34.7828 42.7461 34.9533 42.7265 35.12 42.6882C35.1687 42.6956 35.2181 42.6956 35.2667 42.6882L35.3938 42.6296L35.5403 42.522C35.6451 42.447 35.7239 42.341 35.7653 42.219L35.8532 41.8181C35.9119 41.4662 36.127 40.2443 36.2345 39.863C36.2906 39.6625 36.3693 39.469 36.4691 39.2863C37.1632 37.9665 38.7077 37.3311 40.4869 37.1454C39.6166 37.0637 38.7393 37.1876 37.9257 37.5071V37.5071Z" fill="#C5CCCD"/>
<defs>
<filter id="filter0_d_852_61243" x="17.8184" y="21.0278" width="61.9722" height="61.5754" filterUnits="userSpaceOnUse" color-interpolation-filters="sRGB">
<feFlood flood-opacity="0" result="BackgroundImageFix"/>
<feColorMatrix in="SourceAlpha" type="matrix" values="0 0 0 0 0 0 0 0 0 0 0 0 0 0 0 0 0 0 127 0" result="hardAlpha"/>
<feOffset dy="2"/>
<feGaussianBlur stdDeviation="2"/>
<feComposite in2="hardAlpha" operator="out"/>
<feColorMatrix type="matrix" values="0 0 0 0 0 0 0 0 0 0 0 0 0 0 0 0 0 0 0.25 0"/>
<feBlend mode="normal" in2="BackgroundImageFix" result="effect1_dropShadow_852_61243"/>
<feBlend mode="normal" in="SourceGraphic" in2="effect1_dropShadow_852_61243" result="shape"/>
</filter>
<filter id="filter1_d_852_61243" x="26.5151" y="35.4028" width="28.3999" height="38.4" filterUnits="userSpaceOnUse" color-interpolation-filters="sRGB">
<feFlood flood-opacity="0" result="BackgroundImageFix"/>
<feColorMatrix in="SourceAlpha" type="matrix" values="0 0 0 0 0 0 0 0 0 0 0 0 0 0 0 0 0 0 127 0" result="hardAlpha"/>
<feOffset dy="4"/>
<feGaussianBlur stdDeviation="2"/>
<feComposite in2="hardAlpha" operator="out"/>
<feColorMatrix type="matrix" values="0 0 0 0 0 0 0 0 0 0 0 0 0 0 0 0 0 0 0.25 0"/>
<feBlend mode="normal" in2="BackgroundImageFix" result="effect1_dropShadow_852_61243"/>
<feBlend mode="normal" in="SourceGraphic" in2="effect1_dropShadow_852_61243" result="shape"/>
</filter>
<linearGradient id="paint0_linear_852_61243" x1="49.4438" y1="-13.5274" x2="53.4258" y2="132.243" gradientUnits="userSpaceOnUse">
<stop stop-color="#00ABDE"/>
<stop offset="1" stop-color="#007ED8"/>
</linearGradient>
<linearGradient id="paint1_linear_852_61243" x1="2.6481" y1="-20.3604" x2="98.1756" y2="120.521" gradientUnits="userSpaceOnUse">
<stop stop-color="#007ED8"/>
<stop offset="0.7065" stop-color="#002D4C"/>
</linearGradient>
</defs>
</svg>
