<svg width="103" height="103" viewBox="0 0 103 103" fill="none" xmlns="http://www.w3.org/2000/svg">
<path d="M51.0912 98.726C25.2412 98.726 4.28125 77.776 4.28125 51.916C4.28125 26.056 25.2412 5.10596 51.0912 5.10596C76.9412 5.10596 97.9012 26.066 97.9012 51.916C97.9012 77.766 76.9412 98.726 51.0912 98.726Z" fill="url(#paint0_linear_1044_67)"/>
<path fill-rule="evenodd" clip-rule="evenodd" d="M96.9912 51.9161C96.9912 77.2661 76.4412 97.8161 51.0912 97.8161C25.7412 97.8161 5.19117 77.2661 5.19117 51.9161C5.19117 26.5661 25.7412 6.01613 51.0912 6.01613C76.4412 6.01613 96.9912 26.5661 96.9912 51.9161ZM51.0912 2.27612C78.5112 2.27612 100.731 24.4961 100.731 51.9161C100.731 79.3361 78.5012 101.556 51.0912 101.556C23.6712 101.556 1.45117 79.3261 1.45117 51.9161C1.45117 24.4961 23.6712 2.27612 51.0912 2.27612Z" fill="#F2F1F0"/>
<path fill-rule="evenodd" clip-rule="evenodd" d="M94.1812 51.9159C94.1812 75.7159 74.8912 95.0059 51.0912 95.0059C27.2912 95.0059 8.00123 75.7159 8.00123 51.9159C8.00123 28.1159 27.2912 8.82594 51.0912 8.82594C74.8912 8.82594 94.1812 28.1159 94.1812 51.9159ZM51.0912 5.08594C76.9512 5.08594 97.9212 26.0559 97.9212 51.9159C97.9212 77.7759 76.9512 98.746 51.0912 98.746C25.2312 98.746 4.26123 77.7759 4.26123 51.9159C4.26123 26.0559 25.2212 5.08594 51.0912 5.08594Z" fill="url(#paint1_linear_1044_67)"/>
<path opacity="0.35" d="M35.2266 67.1621L71.4445 66.8837C71.8835 66.9908 72.162 66.8302 72.5475 66.2305L77.4415 56.2282C77.827 55.6285 77.1738 54.5255 76.467 54.5791L39.9921 54.0543C39.553 53.9472 39.2746 54.1079 38.889 54.7076L34.252 65.513C33.7487 66.5517 34.2413 67.3763 35.2266 67.1621Z" fill="url(#paint2_linear_1044_67)"/>
<path d="M46.2673 50.9604V60.9627C46.2673 61.5302 45.8068 61.9907 45.2392 61.9907C44.6717 61.9907 44.2112 61.5302 44.2112 60.9627V50.9604H40.3452V67.3345H50.1333V50.9604H46.2673Z" fill="url(#paint3_linear_1044_67)"/>
<path d="M67.3641 26.0828H23.575C22.4077 26.0828 21.4546 27.0359 21.4546 28.2031V57.0854C21.4546 58.2419 22.4077 59.2058 23.575 59.2058H67.3749C68.5314 59.2058 69.4952 58.2526 69.4952 57.0854V28.2031C69.4845 27.0359 68.5421 26.0828 67.3641 26.0828Z" fill="url(#paint4_linear_1044_67)"/>
<path d="M65.908 28.5989H25.0317C24.6034 28.5989 24.2393 28.9523 24.2393 29.3913V55.8962C24.2393 56.3245 24.5927 56.6886 25.0317 56.6886H65.908C66.3364 56.6886 66.7005 56.3352 66.7005 55.8962V29.3913C66.6898 28.9523 66.3471 28.5989 65.908 28.5989Z" fill="white"/>
<path d="M56.3337 67.9337H34.1446C33.6413 67.9337 33.2236 67.5161 33.2236 67.0128C33.2236 66.5094 33.6413 66.0918 34.1446 66.0918H56.3337C56.837 66.0918 57.2547 66.5094 57.2547 67.0128C57.244 67.5268 56.837 67.9337 56.3337 67.9337Z" fill="url(#paint5_linear_1044_67)"/>
<path opacity="0.35" d="M55.7453 69.8076L84.7453 69.5827C85.0987 69.6684 85.3129 69.5399 85.6235 69.058L89.543 61.0476C89.8535 60.5657 89.3288 59.6876 88.7612 59.7304L63.8092 59.3128C63.4558 59.2271 63.2416 59.3556 62.9311 59.8375L54.9743 68.4904C54.5566 69.315 54.9528 69.979 55.7453 69.8076Z" fill="url(#paint6_linear_1044_67)"/>
<path d="M54.2245 69.7329C54.3531 69.9578 54.428 70.0327 54.7814 70.1291L84.0492 69.9149C84.6167 69.8721 85.0558 69.6151 85.2379 68.9083L85.4949 47.9936C85.4734 47.3618 85.5591 46.9441 84.8737 46.8798L84.424 46.8691L85.0986 47.3403L84.8416 68.255C84.8845 68.8226 84.349 69.433 83.6529 69.2617L54.8885 69.3474L54.2031 69.4223L54.2245 69.7329Z" fill="#333333"/>
<path d="M54.2136 69.2296L54.2565 47.7366C54.3421 47.3832 54.4385 47.0405 55.0061 46.9976L84.5201 46.8691C84.8735 46.9548 85.2591 46.9227 85.2591 47.6188L85.0449 69.1118C84.9592 69.4652 84.8628 69.8079 84.2953 69.8507L54.9525 69.9792C54.385 70.022 54.1172 69.5723 54.2136 69.2296Z" fill="url(#paint7_linear_1044_67)"/>
<path d="M55.8949 48.711L83.6527 48.5718L83.4492 67.9658L55.8628 68.105L55.8949 48.711Z" fill="white"/>
<path opacity="0.35" d="M17.7603 69.5406L27.9981 69.2621C28.4372 69.3692 28.7156 69.2086 29.1011 68.6089L33.9951 58.6067C34.3807 58.007 33.7274 56.9039 33.0206 56.9575L27.8374 56.4327C27.3984 56.3256 27.1199 56.4863 26.7344 57.086L16.775 67.8807C16.2824 68.9194 16.7643 69.744 17.7603 69.5406Z" fill="url(#paint8_linear_1044_67)"/>
<path fill-rule="evenodd" clip-rule="evenodd" d="M17.3643 69.5939C17.0323 69.5939 16.7539 69.3262 16.7539 68.9835V48.3258C16.7539 47.9938 17.0216 47.7261 17.3536 47.7261H28.0733C28.4053 47.7261 28.6838 47.9938 28.6838 48.3365V68.9942C28.6838 69.3262 28.416 69.5939 28.084 69.5939H17.3643Z" fill="url(#paint9_linear_1044_67)"/>
<path fill-rule="evenodd" clip-rule="evenodd" d="M23.5967 68.3833H21.8297C21.5834 68.3833 21.3906 68.1905 21.3906 67.9442C21.3906 67.6979 21.5834 67.5051 21.8297 67.5051H23.5967C23.843 67.5051 24.0358 67.6979 24.0358 67.9442C24.0358 68.1905 23.843 68.3833 23.5967 68.3833Z" fill="white"/>
<path fill-rule="evenodd" clip-rule="evenodd" d="M23.1574 49.3751C23.1574 49.6214 22.9647 49.8142 22.7184 49.8142C22.4721 49.8142 22.2793 49.6214 22.2793 49.3751C22.2793 49.1288 22.4828 48.936 22.7184 48.936C22.9647 48.936 23.1574 49.1395 23.1574 49.3751Z" fill="white"/>
<path fill-rule="evenodd" clip-rule="evenodd" d="M27.377 66.2846H18.0602C17.8139 66.2846 17.6211 66.0918 17.6211 65.8455V51.474C17.6211 51.2277 17.8139 51.0349 18.0602 51.0349H27.377C27.6233 51.0349 27.8161 51.2277 27.8161 51.474V65.8455C27.8161 66.0918 27.6126 66.2846 27.377 66.2846Z" fill="white"/>
<path d="M45.2183 47.9503C48.431 47.9503 51.0333 45.348 51.0333 42.1353C51.0333 38.9226 48.431 36.3203 45.2183 36.3203C42.0056 36.3203 39.4033 38.9226 39.4033 42.1353C39.414 45.348 42.0163 47.9503 45.2183 47.9503Z" fill="#84ECFD"/>
<path d="M48.3884 39.1794L43.6015 43.9878L42.1665 42.5421L41.2134 43.5059L43.6122 45.9047L49.3629 40.1325L48.3884 39.1794Z" fill="url(#paint10_linear_1044_67)"/>
<path d="M22.6112 61.969C24.4639 61.969 25.9631 60.4697 25.9631 58.6171C25.9631 56.7644 24.4639 55.2651 22.6112 55.2651C20.7585 55.2651 19.2593 56.7644 19.2593 58.6171C19.27 60.4697 20.7692 61.969 22.6112 61.969Z" fill="#84ECFD"/>
<path d="M24.4423 56.9248L21.6901 59.6984L20.8655 58.8631L20.3193 59.42L21.7008 60.8015L25.0099 57.4817L24.4423 56.9248Z" fill="url(#paint11_linear_1044_67)"/>
<g filter="url(#filter0_d_1044_67)">
<path fill-rule="evenodd" clip-rule="evenodd" d="M64.0744 56.129V62.7749C64.0744 70.1167 67.2368 74.778 74.9686 78.7701C82.6966 74.778 85.8628 70.1167 85.8628 62.7787V56.129C80.8841 56.0067 77.3012 54.8978 74.9686 52.7564C72.6361 54.9016 69.0531 56.0067 64.0744 56.129ZM74.9686 80.7852C74.8233 80.7852 74.678 80.7508 74.5442 80.6858C65.8793 76.3305 62.1816 70.9732 62.1816 62.7787V55.196C62.1816 54.6721 62.6061 54.2477 63.13 54.2477C68.5828 54.2477 72.2231 53.112 74.2574 50.7795C74.6168 50.3665 75.3242 50.3665 75.6837 50.7795C77.718 53.112 81.3583 54.2477 86.8111 54.2477C87.335 54.2477 87.7594 54.6721 87.7594 55.196V62.7787C87.7594 70.9732 84.0617 76.3305 75.3969 80.6858C75.2592 80.7508 75.1139 80.7852 74.9686 80.7852Z" fill="#FBFBFC"/>
</g>
<path fill-rule="evenodd" clip-rule="evenodd" d="M74.9686 51.6611C72.5295 54.4573 68.23 55.3856 63.3291 55.3856V62.8346C63.3291 70.5129 66.7341 75.4551 74.9686 79.593C83.2031 75.4551 86.6081 70.5129 86.6081 62.8346V55.3856C81.7073 55.3856 77.4078 54.4573 74.9686 51.6611Z" fill="#243A5E"/>
<path fill-rule="evenodd" clip-rule="evenodd" d="M74.9688 51.6611V79.593C83.2032 75.4551 86.6083 70.5129 86.6083 62.8346V55.3856C81.7074 55.3856 77.4079 54.4573 74.9688 51.6611Z" fill="#002D4C"/>
<path d="M79.1712 61.7604C79.1712 59.4546 77.2822 57.5618 74.9764 57.5618C72.9001 57.5618 71.1679 59.0875 70.839 61.0721H72.5559C72.6706 60.6667 72.8886 60.292 73.1983 59.9823C73.6763 59.5043 74.3072 59.2443 74.9726 59.2443C75.6418 59.2443 76.2689 59.5043 76.7469 59.9823C77.2249 60.4603 77.4849 61.0912 77.4849 61.7565C77.4849 61.8904 77.4849 62.2689 77.481 62.7699H70.7778V71.1938H79.1674V63.3243C79.1712 62.5634 79.1712 61.9439 79.1712 61.7604Z" fill="white"/>
<path d="M74.9766 67.9014C75.5769 67.9014 76.0626 67.4158 76.0626 66.8155C76.0626 66.2151 75.5769 65.7295 74.9766 65.7295C74.3763 65.7295 73.8906 66.2151 73.8906 66.8155C73.8906 67.4158 74.3763 67.9014 74.9766 67.9014Z" fill="#002D4C"/>
<defs>
<filter id="filter0_d_1044_67" x="58.1816" y="48.4697" width="33.5776" height="38.3154" filterUnits="userSpaceOnUse" color-interpolation-filters="sRGB">
<feFlood flood-opacity="0" result="BackgroundImageFix"/>
<feColorMatrix in="SourceAlpha" type="matrix" values="0 0 0 0 0 0 0 0 0 0 0 0 0 0 0 0 0 0 127 0" result="hardAlpha"/>
<feOffset dy="2"/>
<feGaussianBlur stdDeviation="2"/>
<feComposite in2="hardAlpha" operator="out"/>
<feColorMatrix type="matrix" values="0 0 0 0 0 0 0 0 0 0 0 0 0 0 0 0 0 0 0.25 0"/>
<feBlend mode="normal" in2="BackgroundImageFix" result="effect1_dropShadow_1044_67"/>
<feBlend mode="normal" in="SourceGraphic" in2="effect1_dropShadow_1044_67" result="shape"/>
</filter>
<linearGradient id="paint0_linear_1044_67" x1="21.0758" y1="-27.3959" x2="281.011" y2="363.334" gradientUnits="userSpaceOnUse">
<stop offset="0.0435" stop-color="white"/>
<stop offset="0.4857" stop-color="#4DC1EA"/>
<stop offset="0.8452" stop-color="#0078D4"/>
</linearGradient>
<linearGradient id="paint1_linear_1044_67" x1="56.2829" y1="-9.00218" x2="54.9025" y2="106.852" gradientUnits="userSpaceOnUse">
<stop offset="0.135417" stop-color="#2E77BC"/>
<stop offset="0.484375" stop-color="#1D4A79"/>
<stop offset="0.932292" stop-color="#092E4C"/>
</linearGradient>
<linearGradient id="paint2_linear_1044_67" x1="65.6146" y1="80.3653" x2="34.6816" y2="19.4226" gradientUnits="userSpaceOnUse">
<stop/>
<stop offset="0.8221" stop-opacity="0"/>
</linearGradient>
<linearGradient id="paint3_linear_1044_67" x1="45.5164" y1="55.8114" x2="44.7886" y2="64.5449" gradientUnits="userSpaceOnUse">
<stop stop-color="#0D3FB3"/>
<stop offset="0.7814" stop-color="#092F4F"/>
<stop offset="1" stop-color="#092E4C"/>
</linearGradient>
<linearGradient id="paint4_linear_1044_67" x1="47.1057" y1="23.2325" x2="42.6237" y2="76.4371" gradientUnits="userSpaceOnUse">
<stop stop-color="#0D3FB3"/>
<stop offset="0.7814" stop-color="#092F4F"/>
<stop offset="1" stop-color="#092E4C"/>
</linearGradient>
<linearGradient id="paint5_linear_1044_67" x1="44.3965" y1="57.983" x2="45.9976" y2="75.1588" gradientUnits="userSpaceOnUse">
<stop stop-color="#0D3FB3"/>
<stop offset="0.7814" stop-color="#092F4F"/>
<stop offset="1" stop-color="#092E4C"/>
</linearGradient>
<linearGradient id="paint6_linear_1044_67" x1="75.3819" y1="61.7551" x2="84.4389" y2="49.8941" gradientUnits="userSpaceOnUse">
<stop/>
<stop offset="0.8221" stop-opacity="0"/>
</linearGradient>
<linearGradient id="paint7_linear_1044_67" x1="55.5113" y1="44.5833" x2="89.6982" y2="77.8645" gradientUnits="userSpaceOnUse">
<stop stop-color="#0D3FB3"/>
<stop offset="0.7814" stop-color="#092F4F"/>
<stop offset="1" stop-color="#092E4C"/>
</linearGradient>
<linearGradient id="paint8_linear_1044_67" x1="27.8756" y1="61.4329" x2="34.181" y2="53.1752" gradientUnits="userSpaceOnUse">
<stop/>
<stop offset="0.8221" stop-opacity="0"/>
</linearGradient>
<linearGradient id="paint9_linear_1044_67" x1="17.6149" y1="34.7884" x2="29.5408" y2="90.5976" gradientUnits="userSpaceOnUse">
<stop stop-color="#0D3FB3"/>
<stop offset="0.7814" stop-color="#092F4F"/>
<stop offset="1" stop-color="#092E4C"/>
</linearGradient>
<linearGradient id="paint10_linear_1044_67" x1="42.8485" y1="38.5582" x2="52.1423" y2="51.0663" gradientUnits="userSpaceOnUse">
<stop stop-color="#0D3FB3"/>
<stop offset="0.7814" stop-color="#092F4F"/>
<stop offset="1" stop-color="#092E4C"/>
</linearGradient>
<linearGradient id="paint11_linear_1044_67" x1="18.9672" y1="56.0048" x2="37.974" y2="69.2816" gradientUnits="userSpaceOnUse">
<stop stop-color="#0D3FB3"/>
<stop offset="0.7814" stop-color="#092F4F"/>
<stop offset="1" stop-color="#092E4C"/>
</linearGradient>
</defs>
</svg>
