<svg width="103" height="103" viewBox="0 0 103 103" fill="none" xmlns="http://www.w3.org/2000/svg">
<path d="M51.4695 98.1436C77.3219 98.1436 98.2754 77.19 98.2754 51.3377C98.2754 25.4853 77.3219 4.53174 51.4695 4.53174C25.6171 4.53174 4.66357 25.4853 4.66357 51.3377C4.66357 77.19 25.6171 98.1436 51.4695 98.1436Z" fill="url(#paint0_linear)"/>
<path fill-rule="evenodd" clip-rule="evenodd" d="M51.4695 1.33765C23.8561 1.33765 1.46948 23.7243 1.46948 51.3376C1.46948 78.951 23.8561 101.338 51.4695 101.338C79.0828 101.338 101.469 78.951 101.469 51.3376C101.469 23.7243 79.0828 1.33765 51.4695 1.33765ZM51.4695 97.0945C26.1978 97.0945 5.71264 76.6093 5.71264 51.3376C5.71264 26.066 26.1978 5.58081 51.4695 5.58081C76.7411 5.58081 97.2263 26.066 97.2263 51.3376C97.2263 76.6093 76.7411 97.0945 51.4695 97.0945Z" fill="#D9D9D9"/>
<path fill-rule="evenodd" clip-rule="evenodd" d="M5.57216 51.3374C5.57216 76.684 26.1229 97.2348 51.4695 97.2348C76.8161 97.2348 97.3668 76.684 97.3668 51.3374C97.3668 25.9909 76.8161 5.44008 51.4695 5.44008C26.1229 5.44008 5.57216 25.9909 5.57216 51.3374ZM51.4695 1.69336C24.0529 1.69336 1.82544 23.9208 1.82544 51.3374C1.82544 78.7541 24.0529 100.981 51.4695 100.981C78.8861 100.981 101.114 78.7541 101.114 51.3374C101.114 23.9208 78.8861 1.69336 51.4695 1.69336Z" fill="#F2F1F0"/>
<path fill-rule="evenodd" clip-rule="evenodd" d="M8.38216 51.3374C8.38216 75.1385 27.6684 94.4247 51.4695 94.4247C75.2705 94.4247 94.5568 75.1385 94.5568 51.3374C94.5568 27.5364 75.2705 8.25014 51.4695 8.25014C27.6684 8.25014 8.38216 27.5364 8.38216 51.3374ZM51.4695 4.50342C25.6077 4.50342 4.63544 25.4757 4.63544 51.3374C4.63544 77.1992 25.6077 98.1715 51.4695 98.1715C77.3312 98.1715 98.3035 77.1992 98.3035 51.3374C98.3035 25.4757 77.3406 4.50342 51.4695 4.50342Z" fill="#0078D4"/>
<path d="M51.0198 13.936C30.4972 13.936 13.8524 30.5715 13.8524 51.1035C13.8524 71.6355 30.4972 88.271 51.0198 88.271C71.5425 88.271 88.1873 71.6355 88.1873 51.1035C88.1498 30.5715 71.5519 13.936 51.0198 13.936ZM51.0198 68.4415C41.4563 68.4415 33.6819 60.667 33.6819 51.1035C33.6819 41.54 41.4563 33.7656 51.0198 33.7656C60.5833 33.7656 68.3578 41.54 68.3578 51.1035C68.3578 60.667 60.5927 68.4415 51.0198 68.4415Z" fill="#0078D4"/>
<path d="M50.9824 33.7656L50.8981 13.936C37.8407 13.9829 26.357 20.7457 19.7628 31.0117L36.0517 42.4111C39.0116 37.2594 44.6036 33.7656 50.9824 33.7656Z" fill="#50E6FF"/>
<path d="M33.6819 51.1035C33.6819 47.9563 34.5156 44.987 35.9955 42.458L19.7535 31.0117L19.6692 31.1429C15.9974 36.9034 13.8618 43.7225 13.8618 51.1035C13.8618 56.5644 15.042 61.7629 17.1776 66.437L35.3024 58.4471C34.2533 56.2084 33.6819 53.7262 33.6819 51.1035Z" fill="#3BCAF4"/>
<path d="M66.2504 63.1678C67.6647 57.6321 69.0229 53.9228 69.0229 49.8857C69.0229 43.9472 66.0818 38.7111 61.5951 35.517C58.7194 33.4751 55.2069 32.2761 51.4227 32.2761C41.7 32.2761 33.8131 40.163 33.8131 49.8857C33.8131 59.6085 41.7 67.4953 51.4227 67.4953C55.2069 67.4953 58.7194 66.2964 61.5951 64.2544C61.6887 64.2076 61.7543 64.142 61.848 64.0764L77.6217 79.8501L81.9866 78.9041L66.2504 63.1678ZM61.5857 57.2574C59.3002 60.4046 55.6003 62.4466 51.4133 62.4466C44.4819 62.4466 38.8806 56.8265 38.8806 49.8951C38.8806 42.9636 44.5006 37.3436 51.4321 37.3436C55.6284 37.3436 59.3189 39.3855 61.5857 42.5328C63.1031 44.5935 63.9836 47.1506 63.9836 49.8951C63.993 52.6302 63.1031 55.1967 61.5857 57.2574Z" fill="#F2F1F0"/>
<path d="M57.5111 43.6379H45.072V46.1108H57.5111V43.6379Z" fill="#50E6FF"/>
<path d="M57.5111 48.6494H45.072V51.1223H57.5111V48.6494Z" fill="#50E6FF"/>
<path d="M57.5111 53.6514H45.072V56.1242H57.5111V53.6514Z" fill="#50E6FF"/>
<defs>
<linearGradient id="paint0_linear" x1="53.2398" y1="-13.4551" x2="49.257" y2="132.313" gradientUnits="userSpaceOnUse">
<stop stop-color="#00ABDE"/>
<stop offset="1" stop-color="#007ED8"/>
</linearGradient>
</defs>
</svg>
