<svg width="100" height="100" viewBox="0 0 100 100" fill="none" xmlns="http://www.w3.org/2000/svg">
<g clip-path="url(#clip0_939_809)">
<path d="M49.6401 96.45C40.382 96.45 31.3317 93.7047 23.6339 88.5611C15.936 83.4176 9.93624 76.1068 6.3933 67.5534C2.85036 59 1.92337 49.5881 3.72954 40.5078C5.53571 31.4276 9.99394 23.0868 16.5404 16.5403C23.0869 9.99384 31.4277 5.53562 40.5079 3.72945C49.5882 1.92327 59.0001 2.85027 67.5535 6.39321C76.1069 9.93614 83.4176 15.9359 88.5612 23.6338C93.7047 31.3316 96.4501 40.3819 96.4501 49.64C96.4505 55.7873 95.24 61.8745 92.8878 67.5539C90.5355 73.2334 87.0875 78.3938 82.7407 82.7406C78.3939 87.0874 73.2335 90.5354 67.554 92.8877C61.8746 95.2399 55.7874 96.4504 49.6401 96.45V96.45Z" fill="url(#paint0_linear_939_809)"/>
<path fill-rule="evenodd" clip-rule="evenodd" d="M95.54 49.64C95.54 58.7182 92.848 67.5925 87.8045 75.1407C82.7609 82.6889 75.5923 88.572 67.2052 92.0461C58.818 95.5201 49.5891 96.4291 40.6854 94.658C31.7816 92.887 23.603 88.5154 17.1838 82.0962C10.7646 75.677 6.39302 67.4984 4.62196 58.5946C2.85089 49.6909 3.75987 40.462 7.23393 32.0748C10.708 23.6877 16.5911 16.5191 24.1393 11.4755C31.6875 6.43199 40.5618 3.74 49.64 3.74C55.6677 3.73998 61.6363 4.9272 67.2052 7.23388C72.774 9.54057 77.834 12.9215 82.0963 17.1837C86.3585 21.446 89.7394 26.5059 92.0461 32.0748C94.3528 37.6437 95.54 43.6123 95.54 49.64V49.64ZM49.64 3.62732e-07C59.4579 3.62732e-07 69.0553 2.91134 77.2185 8.36585C85.3818 13.8204 91.7442 21.5731 95.5014 30.6436C99.2585 39.7141 100.242 49.6951 98.3262 59.3243C96.4108 68.9535 91.6831 77.7985 84.7408 84.7408C77.7985 91.6831 68.9535 96.4108 59.3243 98.3262C49.6951 100.242 39.7141 99.2585 30.6436 95.5014C21.5731 91.7442 13.8204 85.3818 8.36585 77.2185C2.91134 69.0553 3.62732e-07 59.4579 3.62732e-07 49.64C-0.000787738 43.121 1.28265 36.6656 3.77702 30.6427C6.27138 24.6197 9.9278 19.1471 14.5375 14.5375C19.1471 9.9278 24.6197 6.27138 30.6427 3.77702C36.6656 1.28265 43.121 -0.000787738 49.64 3.62732e-07V3.62732e-07Z" fill="#F2F1F0"/>
<path fill-rule="evenodd" clip-rule="evenodd" d="M92.7296 49.6401C92.7296 58.1625 90.2024 66.4935 85.4676 73.5796C80.7328 80.6657 74.0031 86.1887 66.1294 89.4501C58.2557 92.7114 49.5918 93.5648 41.2331 91.9021C32.8745 90.2395 25.1966 86.1356 19.1703 80.1093C13.1441 74.0831 9.04017 66.4052 7.37753 58.0465C5.7149 49.6879 6.56822 41.0239 9.8296 33.1503C13.091 25.2766 18.6139 18.5469 25.7 13.8121C32.7862 9.07727 41.1172 6.55009 49.6396 6.55009C55.2983 6.54974 60.9017 7.66407 66.1298 9.82942C71.3579 11.9948 76.1082 15.1687 80.1096 19.1701C84.1109 23.1714 87.2849 27.9218 89.4502 33.1499C91.6156 38.3779 92.7299 43.9813 92.7296 49.6401V49.6401ZM49.6396 2.81009C58.9017 2.81009 67.9558 5.55662 75.6569 10.7024C83.3581 15.8481 89.3604 23.162 92.9049 31.719C96.4493 40.2761 97.3767 49.692 95.5697 58.7762C93.7628 67.8603 89.3027 76.2046 82.7534 82.7539C76.2041 89.3032 67.8598 93.7633 58.7757 95.5703C49.6915 97.3772 40.2756 96.4498 31.7185 92.9054C23.1614 89.3609 15.8476 83.3586 10.7018 75.6574C5.5561 67.9563 2.80957 58.9022 2.80957 49.6401C2.81076 37.2204 7.745 25.3097 16.5271 16.5276C25.3091 7.7455 37.2198 2.81125 49.6396 2.81006V2.81009Z" fill="#0078D4"/>
<path fill-rule="evenodd" clip-rule="evenodd" d="M92.7637 49.6401C92.7637 58.1625 90.2366 66.4935 85.5018 73.5796C80.767 80.6657 74.0372 86.1887 66.1636 89.4501C58.2899 92.7114 49.6259 93.5648 41.2673 91.9021C32.9087 90.2395 25.2308 86.1356 19.2045 80.1093C13.1783 74.0831 9.07435 66.4052 7.41171 58.0465C5.74908 49.6879 6.6024 41.0239 9.86378 33.1503C13.1252 25.2766 18.6481 18.5469 25.7342 13.8121C32.8203 9.07727 41.1514 6.55009 49.6738 6.55009C55.3325 6.54974 60.9359 7.66407 66.164 9.82942C71.3921 11.9948 76.1424 15.1687 80.1437 19.1701C84.1451 23.1714 87.3191 27.9218 89.4844 33.1499C91.6498 38.3779 92.7641 43.9813 92.7637 49.6401V49.6401ZM49.6738 2.81009C58.9359 2.81009 67.9899 5.55662 75.6911 10.7024C83.3923 15.8481 89.3946 23.162 92.939 31.719C96.4835 40.2761 97.4109 49.692 95.6039 58.7762C93.797 67.8603 89.3369 76.2046 82.7876 82.7539C76.2383 89.3032 67.894 93.7633 58.8098 95.5703C49.7257 97.3772 40.3097 96.4498 31.7527 92.9054C23.1956 89.3609 15.8818 83.3586 10.736 75.6574C5.59028 67.9563 2.84375 58.9022 2.84375 49.6401C2.84494 37.2204 7.77918 25.3097 16.5612 16.5276C25.3433 7.7455 37.254 2.81125 49.6738 2.81006V2.81009Z" fill="#0078D4"/>
<path d="M26.5768 32.0699C25.4657 32.0731 24.401 32.516 23.6153 33.3017C22.8296 34.0873 22.3868 35.152 22.3835 36.2631V65.6158H76.8955V36.2631C76.8923 35.152 76.4495 34.0873 75.6638 33.3017C74.8781 32.516 73.8134 32.0732 72.7023 32.0699H26.5768ZM72.7024 34.1665C73.2582 34.1672 73.791 34.3884 74.1841 34.7814C74.5771 35.1744 74.7982 35.7073 74.799 36.2631V63.5191H24.4802V36.2631C24.4807 35.7072 24.7018 35.1743 25.0949 34.7812C25.4879 34.3881 26.0209 34.1671 26.5768 34.1665H72.7024Z" fill="url(#paint1_linear_939_809)"/>
<path d="M24.4802 36.2631C24.4808 35.7072 24.7019 35.1743 25.0949 34.7812C25.488 34.3881 26.021 34.1671 26.5769 34.1665H72.7024C73.2583 34.1672 73.7911 34.3884 74.1842 34.7814C74.5772 35.1744 74.7983 35.7073 74.799 36.2631V63.5191H24.4802V36.2631Z" fill="url(#paint2_linear_939_809)"/>
<path d="M16.0938 65.6158V66.6641C16.097 67.7752 16.5398 68.8399 17.3255 69.6256C18.1112 70.4113 19.1759 70.8541 20.287 70.8573H78.9923C80.1034 70.8541 81.168 70.4112 81.9537 69.6256C82.7394 68.8399 83.1822 67.7752 83.1855 66.6641V65.6158H16.0938Z" fill="url(#paint3_linear_939_809)"/>
<path fill-rule="evenodd" clip-rule="evenodd" d="M45.4465 67.7124H53.8329C54.3889 67.7122 54.9221 67.4912 55.3152 67.0981C55.7084 66.7049 55.9293 66.1718 55.9295 65.6158H43.3499C43.3499 66.1718 43.5708 66.7051 43.964 67.0983C44.3571 67.4915 44.8904 67.7124 45.4465 67.7124V67.7124Z" fill="#003067"/>
<path d="M49.6239 38.9674C51.1417 38.9686 52.6422 39.2907 54.0269 39.9124C55.4115 40.5342 56.6491 41.4417 57.6584 42.5753C58.6678 43.7089 59.4261 45.0431 59.8836 46.4904C60.3411 47.9377 60.4876 49.4653 60.3133 50.9731C59.8639 50.5127 59.3428 50.1285 58.7701 49.8353L58.7707 49.7281C58.7712 49.0027 58.6856 48.2799 58.5158 47.5747L54.9029 47.5756C54.9566 48.1325 54.9897 48.7045 55.0008 49.2876C54.4405 49.3907 53.8982 49.5748 53.3909 49.834L53.3912 49.728C53.3916 49.0091 53.354 48.2906 53.2786 47.5756H45.9691C45.8937 48.2906 45.8561 49.0091 45.8565 49.728C45.8547 50.8092 45.941 51.8887 46.1145 52.9558H50.565C50.3631 53.4731 50.2355 54.0163 50.186 54.5693H46.462C47.1635 57.1667 48.3829 58.8748 49.624 58.8748C49.9005 58.855 50.1699 58.7784 50.4155 58.65C50.6611 58.5215 50.8777 58.3439 51.0517 58.1281C51.4772 58.8354 51.9821 59.4917 52.5567 60.0842C51.0766 60.5033 49.5239 60.6001 48.0033 60.3683C46.4826 60.1364 45.0293 59.5813 43.7413 58.7403C42.4533 57.8993 41.3606 56.7919 40.5368 55.4929C39.713 54.1939 39.1772 52.7333 38.9656 51.2097C38.754 49.6861 38.8715 48.1348 39.3101 46.6604C39.7488 45.186 40.4984 43.8228 41.5084 42.6627C42.5185 41.5025 43.7655 40.5723 45.1655 39.9349C46.5654 39.2975 48.0858 38.9675 49.624 38.9674L49.6239 38.9674ZM44.7913 54.57L41.8621 54.5699C42.901 56.2319 44.4447 57.5178 46.2671 58.2394C45.6525 57.232 45.1918 56.1385 44.9004 54.995L44.7913 54.57ZM44.3449 47.5756H40.7324L40.7273 47.5942C40.3032 49.3751 40.4201 51.242 41.0629 52.9562L44.4769 52.9557C44.3192 51.8872 44.2409 50.8083 44.2427 49.7281C44.2427 48.9921 44.2776 48.2722 44.3449 47.5756V47.5756ZM46.2682 41.2168L46.2435 41.2262C44.0413 42.1052 42.2646 43.8024 41.2858 45.9622L44.5653 45.9626C44.825 44.2865 45.4031 42.6756 46.2682 41.2168V41.2168ZM49.6239 40.5813L49.4994 40.587C48.138 40.7115 46.8227 42.8654 46.2119 45.9621H53.0359C52.4267 42.8741 51.1171 40.7236 49.7598 40.5881L49.6239 40.5813ZM52.9807 41.2169L53.0956 41.4042C53.8921 42.8169 54.4295 44.3607 54.6825 45.9626L57.9619 45.9622C57.0278 43.9012 55.3655 42.2578 53.294 41.3473L52.9807 41.2169ZM60.9209 55.107C60.9218 54.4706 60.7972 53.8403 60.5543 53.2521C60.3114 52.6639 59.9549 52.1293 59.5053 51.679C59.0556 51.2287 58.5216 50.8714 57.9337 50.6277C57.3458 50.3839 56.7157 50.2585 56.0793 50.2585C55.4429 50.2585 54.8128 50.3839 54.2249 50.6277C53.6371 50.8714 53.103 51.2287 52.6533 51.679C52.2037 52.1293 51.8472 52.6639 51.6043 53.2521C51.3614 53.8403 51.2368 54.4706 51.2377 55.107C51.2377 57.111 52.7653 59.2113 55.7565 61.4548C55.8496 61.5246 55.9629 61.5624 56.0793 61.5624C56.1957 61.5624 56.3089 61.5246 56.4021 61.4548C59.3933 59.2114 60.9209 57.111 60.9209 55.107ZM54.4654 55.107C54.4654 54.7878 54.5601 54.4758 54.7374 54.2104C54.9148 53.945 55.1668 53.7381 55.4617 53.616C55.7566 53.4938 56.0811 53.4619 56.3941 53.5242C56.7072 53.5864 56.9948 53.7401 57.2205 53.9658C57.4462 54.1915 57.5999 54.4791 57.6621 54.7922C57.7244 55.1052 57.6924 55.4297 57.5703 55.7246C57.4482 56.0195 57.2413 56.2715 56.9759 56.4489C56.7105 56.6262 56.3985 56.7209 56.0793 56.7209C55.8674 56.7209 55.6575 56.6791 55.4617 56.598C55.2659 56.5169 55.088 56.398 54.9381 56.2482C54.7883 56.0983 54.6694 55.9204 54.5883 55.7246C54.5072 55.5288 54.4654 55.3189 54.4654 55.107V55.107Z" fill="#9CEBFF"/>
<path opacity="0.2" d="M37.9109 32.0699V38.0372C37.9122 39.0758 38.3253 40.0714 39.0597 40.8057C39.7941 41.54 40.7898 41.9531 41.8284 41.9542H57.4509C58.4894 41.9531 59.4851 41.54 60.2195 40.8057C60.9539 40.0714 61.3671 39.0758 61.3683 38.0372V32.0699H37.9109Z" fill="#003067"/>
<path d="M57.4513 23.0145H47.236V20.6109C47.2353 20.2948 47.297 19.9817 47.4175 19.6896C47.538 19.3974 47.715 19.1318 47.9382 18.9081C48.1615 18.6844 48.4267 18.5069 48.7186 18.3858C49.0105 18.2647 49.3235 18.2024 49.6395 18.2024C49.9556 18.2024 50.2685 18.2647 50.5605 18.3858C50.8524 18.5069 51.1176 18.6844 51.3409 18.9081C51.5641 19.1318 51.7411 19.3974 51.8616 19.6896C51.9821 19.9817 52.0438 20.2948 52.0431 20.6109H54.4469C54.4469 19.3359 53.9404 18.1131 53.0389 17.2116C52.1373 16.3101 50.9146 15.8036 49.6396 15.8036C48.3646 15.8036 47.1419 16.3101 46.2403 17.2116C45.3388 18.1131 44.8323 19.3359 44.8323 20.6109V23.0145H41.8278C41.5911 23.0145 41.3567 23.0611 41.138 23.1517C40.9193 23.2423 40.7205 23.3751 40.5531 23.5425C40.3857 23.7099 40.253 23.9086 40.1624 24.1273C40.0718 24.346 40.0251 24.5805 40.0251 24.8172V38.037C40.0251 38.5151 40.2151 38.9736 40.5531 39.3117C40.8912 39.6498 41.3497 39.8397 41.8278 39.8397H57.4513C57.9294 39.8397 58.3879 39.6497 58.726 39.3117C59.064 38.9736 59.2539 38.5151 59.254 38.037V24.8172C59.254 24.3391 59.064 23.8806 58.726 23.5425C58.3879 23.2045 57.9294 23.0145 57.4513 23.0145V23.0145Z" fill="white"/>
<path fill-rule="evenodd" clip-rule="evenodd" d="M52.9951 28.9618C52.8252 28.792 52.5948 28.6966 52.3546 28.6966C52.1143 28.6966 51.8839 28.792 51.714 28.9618L48.7277 31.9459L47.649 30.8776C47.6238 30.8401 47.5953 30.805 47.5639 30.7726C47.3951 30.6034 47.1663 30.5078 46.9274 30.5066C46.6884 30.5054 46.4587 30.5988 46.2883 30.7664C46.1179 30.934 46.0207 31.1621 46.0179 31.4011C46.0151 31.64 46.1068 31.8704 46.2732 32.0419L46.2624 32.0528L48.0898 33.8636C48.2599 34.0333 48.4903 34.1287 48.7306 34.1287C48.9709 34.1287 49.2014 34.0333 49.3714 33.8636L52.9924 30.2442L52.9951 30.242C53.0792 30.158 53.146 30.0582 53.1915 29.9484C53.237 29.8385 53.2604 29.7208 53.2604 29.6019C53.2604 29.483 53.237 29.3653 53.1915 29.2555C53.146 29.1456 53.0793 29.0458 52.9951 28.9618V28.9618Z" fill="#0078D4"/>
</g>
<defs>
<linearGradient id="paint0_linear_939_809" x1="47.8697" y1="-15.1531" x2="51.8525" y2="130.615" gradientUnits="userSpaceOnUse">
<stop stop-color="#00ABDE"/>
<stop offset="1" stop-color="#007ED8"/>
</linearGradient>
<linearGradient id="paint1_linear_939_809" x1="49.6396" y1="65.6158" x2="49.6396" y2="32.0098" gradientUnits="userSpaceOnUse">
<stop stop-color="#003067"/>
<stop offset="0.16493" stop-color="#003F7C"/>
<stop offset="0.36216" stop-color="#004F90"/>
<stop offset="0.68089" stop-color="#00589D"/>
<stop offset="1" stop-color="#005BA1"/>
</linearGradient>
<linearGradient id="paint2_linear_939_809" x1="49.6396" y1="63.5192" x2="49.6396" y2="34.1139" gradientUnits="userSpaceOnUse">
<stop stop-color="#005BA1"/>
<stop offset="0.26" stop-color="#00589D"/>
<stop offset="0.53" stop-color="#004F90"/>
<stop offset="0.8" stop-color="#003F7C"/>
<stop offset="1" stop-color="#003067"/>
</linearGradient>
<linearGradient id="paint3_linear_939_809" x1="49.6396" y1="70.8573" x2="49.6396" y2="65.6158" gradientUnits="userSpaceOnUse">
<stop stop-color="#004DAE"/>
<stop offset="0.21" stop-color="#0061C4"/>
<stop offset="0.51" stop-color="#0078DD"/>
<stop offset="0.78" stop-color="#0086EC"/>
<stop offset="1" stop-color="#008BF1"/>
</linearGradient>
<clipPath id="clip0_939_809">
<rect width="99.2799" height="99.28" fill="white"/>
</clipPath>
</defs>
</svg>
