<svg width="100" height="100" viewBox="0 0 100 100" fill="none" xmlns="https://www.w3.org/2000/svg">
<g clip-path="url(#clip0)">
<path d="M49.6401 96.4481C40.382 96.4481 31.3317 93.7028 23.6339 88.5592C15.936 83.4157 9.93624 76.105 6.3933 67.5516C2.85036 58.9981 1.92337 49.5862 3.72954 40.506C5.53571 31.4257 9.99394 23.085 16.5404 16.5385C23.0869 9.99198 31.4277 5.53376 40.5079 3.72759C49.5882 1.92141 59.0001 2.84841 67.5535 6.39135C76.1069 9.93428 83.4176 15.934 88.5612 23.6319C93.7047 31.3298 96.4501 40.38 96.4501 49.6381C96.4505 55.7854 95.24 61.8726 92.8878 67.5521C90.5355 73.2315 87.0875 78.392 82.7407 82.7388C78.3939 87.0856 73.2335 90.5335 67.554 92.8858C61.8746 95.2381 55.7874 96.4486 49.6401 96.4481V96.4481Z" fill="url(#paint0_linear)"/>
<path fill-rule="evenodd" clip-rule="evenodd" d="M95.54 49.64C95.54 58.7182 92.848 67.5925 87.8045 75.1407C82.7609 82.6889 75.5923 88.572 67.2052 92.0461C58.818 95.5201 49.5891 96.4291 40.6854 94.658C31.7816 92.887 23.603 88.5154 17.1838 82.0962C10.7646 75.677 6.39302 67.4984 4.62196 58.5946C2.85089 49.6909 3.75987 40.462 7.23393 32.0748C10.708 23.6877 16.5911 16.5191 24.1393 11.4755C31.6875 6.43199 40.5618 3.74 49.64 3.74C55.6677 3.73998 61.6363 4.9272 67.2052 7.23388C72.774 9.54057 77.834 12.9215 82.0963 17.1837C86.3585 21.446 89.7394 26.5059 92.0461 32.0748C94.3528 37.6437 95.54 43.6123 95.54 49.64V49.64ZM49.64 3.62732e-07C59.4579 3.62732e-07 69.0553 2.91134 77.2185 8.36585C85.3818 13.8204 91.7442 21.5731 95.5014 30.6436C99.2585 39.7141 100.242 49.6951 98.3262 59.3243C96.4108 68.9535 91.6831 77.7985 84.7408 84.7408C77.7985 91.6831 68.9535 96.4108 59.3243 98.3262C49.6951 100.242 39.7141 99.2585 30.6436 95.5014C21.5731 91.7442 13.8204 85.3818 8.36585 77.2185C2.91134 69.0553 3.62732e-07 59.4579 3.62732e-07 49.64C-0.000787738 43.121 1.28265 36.6656 3.77702 30.6427C6.27138 24.6197 9.9278 19.1471 14.5375 14.5375C19.1471 9.9278 24.6197 6.27138 30.6427 3.77702C36.6656 1.28265 43.121 -0.000787738 49.64 3.62732e-07V3.62732e-07Z" fill="#F2F1F0"/>
<path fill-rule="evenodd" clip-rule="evenodd" d="M92.7296 49.6386C92.7296 58.161 90.2024 66.492 85.4676 73.5781C80.7328 80.6643 74.0031 86.1872 66.1294 89.4486C58.2557 92.71 49.5918 93.5633 41.2331 91.9007C32.8745 90.238 25.1966 86.1341 19.1703 80.1079C13.1441 74.0816 9.04017 66.4037 7.37753 58.0451C5.7149 49.6864 6.56822 41.0225 9.8296 33.1488C13.091 25.2751 18.6139 18.5454 25.7 13.8106C32.7862 9.07581 41.1172 6.54862 49.6396 6.54862C55.2983 6.54828 60.9017 7.6626 66.1298 9.82795C71.3579 11.9933 76.1082 15.1673 80.1096 19.1686C84.1109 23.17 87.2849 27.9203 89.4502 33.1484C91.6156 38.3765 92.7299 43.9799 92.7296 49.6386V49.6386ZM49.6396 2.80862C58.9017 2.80862 67.9558 5.55515 75.6569 10.7009C83.3581 15.8466 89.3604 23.1605 92.9049 31.7176C96.4493 40.2746 97.3767 49.6906 95.5697 58.7747C93.7628 67.8588 89.3027 76.2031 82.7534 82.7524C76.2041 89.3017 67.8598 93.7619 58.7757 95.5688C49.6915 97.3757 40.2756 96.4484 31.7185 92.9039C23.1614 89.3594 15.8476 83.3571 10.7018 75.656C5.5561 67.9548 2.80957 58.9007 2.80957 49.6386C2.81076 37.2189 7.745 25.3082 16.5271 16.5261C25.3091 7.74403 37.2198 2.80979 49.6396 2.80859V2.80862Z" fill="#0078D4"/>
<path fill-rule="evenodd" clip-rule="evenodd" d="M28.5397 38.3594C27.5251 38.3624 26.553 38.7667 25.8356 39.4841C25.1183 40.2014 24.7139 41.1735 24.7109 42.1881V68.9889H74.4839V42.1881C74.481 41.1736 74.0766 40.2014 73.3592 39.4841C72.6419 38.7667 71.6698 38.3624 70.6553 38.3594H28.5397ZM70.6552 40.2737C71.1627 40.2744 71.6493 40.4763 72.0081 40.8352C72.367 41.194 72.5689 41.6806 72.5696 42.1881V67.0746H26.6253V42.1881C26.6258 41.6805 26.8277 41.1939 27.1866 40.835C27.5455 40.4761 28.0321 40.2742 28.5397 40.2737H70.6552Z" fill="#1F56A3"/>
<path fill-rule="evenodd" clip-rule="evenodd" d="M26.6255 42.1878C26.626 41.6802 26.8279 41.1936 27.1868 40.8347C27.5457 40.4758 28.0323 40.2739 28.5399 40.2734H70.6554C71.163 40.2741 71.6495 40.476 72.0084 40.8349C72.3672 41.1937 72.5691 41.6803 72.5698 42.1878V67.0743H26.6255V42.1878Z" fill="#0078D4"/>
<path fill-rule="evenodd" clip-rule="evenodd" d="M18.9678 68.9883V69.9454C18.9708 70.96 19.3751 71.9321 20.0925 72.6494C20.8098 73.3668 21.7819 73.7712 22.7965 73.7741H76.3981C77.4127 73.7712 78.3848 73.3668 79.1021 72.6495C79.8195 71.9321 80.2239 70.96 80.2268 69.9454V68.9883H18.9678Z" fill="#0078D4"/>
<path fill-rule="evenodd" clip-rule="evenodd" d="M47.6826 71.8598H19.5024C19.8361 72.439 20.3159 72.9206 20.8938 73.2565C21.4717 73.5924 22.1276 73.7709 22.7961 73.7741H76.3978C77.4123 73.7712 78.3844 73.3668 79.1018 72.6494C79.8191 71.9321 80.2235 70.96 80.2265 69.9454V68.9883H49.5969V69.9454C49.597 70.1969 49.5475 70.4458 49.4514 70.6781C49.3552 70.9104 49.2142 71.1215 49.0364 71.2993C48.8586 71.477 48.6476 71.618 48.4153 71.7142C48.183 71.8104 47.934 71.8599 47.6826 71.8598Z" fill="#1F56A3"/>
<path fill-rule="evenodd" clip-rule="evenodd" d="M45.7688 70.9026H53.4262C53.9339 70.9025 54.4207 70.7007 54.7797 70.3417C55.1386 69.9828 55.3404 69.4959 55.3406 68.9883H43.8545C43.8545 69.496 44.0562 69.9829 44.4152 70.3419C44.7742 70.7009 45.2611 70.9026 45.7688 70.9026V70.9026Z" fill="#003067"/>
<path fill-rule="evenodd" clip-rule="evenodd" d="M38.7112 62.7305C39.7228 62.7763 40.6751 63.2211 41.3593 63.9676C42.0436 64.7141 42.4042 65.7014 42.362 66.7132C42.362 66.7656 42.3528 66.8152 42.351 66.867C42.353 66.9186 42.362 66.9679 42.362 67.0201C42.3651 67.7152 42.1732 68.3971 41.808 68.9886H35.718C35.2856 68.3087 35.0575 67.5189 35.0609 66.7132C35.0188 65.7015 35.3792 64.7143 36.0634 63.9678C36.7475 63.2214 37.6996 62.7764 38.7112 62.7305V62.7305Z" fill="#5E9624"/>
<path fill-rule="evenodd" clip-rule="evenodd" d="M41.1305 66.5279C41.1349 67.393 40.9055 68.2432 40.4664 68.9885H41.8079C42.173 68.3971 42.365 67.7151 42.3619 67.02C42.381 66.3319 42.1921 65.6539 41.82 65.0748C41.4479 64.4956 40.9097 64.0421 40.2759 63.7734C40.84 64.5805 41.1387 65.5433 41.1305 66.5279V66.5279Z" fill="#76BC2D"/>
<path fill-rule="evenodd" clip-rule="evenodd" d="M39.431 68.9883C39.9807 68.2124 40.2759 67.2848 40.2758 66.3339C40.2633 65.0973 39.7633 63.9156 38.8845 63.0455C38.0056 62.1755 36.8189 61.6875 35.5823 61.6875C34.3456 61.6875 33.1589 62.1755 32.28 63.0455C31.4012 63.9156 30.9012 65.0973 30.8887 66.3339C30.8886 67.2848 31.1838 68.2123 31.7335 68.9883H39.431Z" fill="#76BC2D"/>
<path fill-rule="evenodd" clip-rule="evenodd" d="M30.8885 66.3017C30.8552 67.2816 31.1867 68.2391 31.8188 68.9886H34.0176C33.3945 68.6166 32.8757 68.0931 32.5093 67.4667C32.1429 66.8403 31.941 66.1314 31.9222 65.406C31.9342 64.4166 32.3062 63.4654 32.9687 62.7305C32.3498 63.1029 31.8347 63.6254 31.4711 64.2496C31.1076 64.8738 30.9072 65.5796 30.8885 66.3017V66.3017Z" fill="#5E9624"/>
<path d="M62.2172 52.1602H37.0659V68.9908H62.2172V52.1602Z" fill="white"/>
<path fill-rule="evenodd" clip-rule="evenodd" d="M64.554 51.4409L49.642 41.6719L34.729 51.4409V52.1599H64.554V51.4409Z" fill="#1F56A3"/>
<path d="M49.6417 57.5312C50.798 57.5312 51.9069 57.9906 52.7246 58.8082C53.5422 59.6259 54.0016 60.7349 54.0016 61.8912V68.989H45.2817V61.8912C45.2817 60.7349 45.7411 59.6259 46.5587 58.8082C47.3764 57.9906 48.4853 57.5313 49.6417 57.5312V57.5312Z" fill="#0078D4"/>
<path d="M47.2744 64.7177C47.5858 64.7177 47.8383 64.4652 47.8383 64.1538C47.8383 63.8423 47.5858 63.5898 47.2744 63.5898C46.9629 63.5898 46.7104 63.8423 46.7104 64.1538C46.7104 64.4652 46.9629 64.7177 47.2744 64.7177Z" fill="white"/>
<path d="M43.7346 54.2148H39.4033V58.5461H43.7346V54.2148Z" fill="#50E6FF"/>
<path d="M41.8123 54.2148H41.3262V58.5461H41.8123V54.2148Z" fill="#0078D4"/>
<path d="M39.4033 56.1388V56.625H43.7346V56.1388H39.4033Z" fill="#0078D4"/>
<path d="M59.8801 54.2148H55.5488V58.5461H59.8801V54.2148Z" fill="#50E6FF"/>
<path d="M57.9574 54.2148H57.4712V58.5461H57.9574V54.2148Z" fill="#0078D4"/>
<path d="M55.5488 56.1388V56.625H59.8801V56.1388H55.5488Z" fill="#0078D4"/>
<path d="M60.3185 58.5469H55.1099V58.9641H60.3185V58.5469Z" fill="#1F56A3"/>
<path d="M44.1735 58.5469H38.9648V58.9641H44.1735V58.5469Z" fill="#1F56A3"/>
<path opacity="0.2" d="M62.2172 52.1602H37.0659V52.9478H62.2172V52.1602Z" fill="#1F56A3"/>
<path d="M43.4575 43.0078H39.7354V49.2357H43.4575V43.0078Z" fill="#1F56A3"/>
<path d="M63.0947 27.7973C63.1037 27.7343 63.1217 27.6712 63.1307 27.6172C63.2997 26.7254 63.2703 25.8073 63.0445 24.9281C62.8186 24.049 62.402 23.2303 61.8242 22.5304C61.2463 21.8304 60.5214 21.2662 59.7009 20.878C58.8804 20.4898 57.9845 20.287 57.0769 20.2841C56.6126 20.2825 56.1498 20.3369 55.6985 20.4462C54.7784 18.995 53.412 17.8818 51.8047 17.2742C50.1974 16.6666 48.4363 16.5973 46.7863 17.0769C45.1363 17.5565 43.6866 18.5589 42.6554 19.9334C41.6242 21.3079 41.0673 22.9801 41.0684 24.6983C41.0684 24.8065 41.0684 24.9146 41.0774 25.0227C40.6653 24.8839 40.2331 24.8139 39.7982 24.8155C38.7972 24.8156 37.8345 25.2006 37.1094 25.8907C36.3842 26.5808 35.952 27.5232 35.9023 28.523C35.8525 29.5228 36.189 30.5034 36.842 31.2621C37.4951 32.0208 38.4147 32.4994 39.4108 32.599L57.0679 32.635C58.1669 32.6337 59.2459 32.3402 60.1941 31.7845C61.1423 31.2289 61.9258 30.4311 62.4641 29.4729C62.4911 29.4189 62.5272 29.3648 62.5542 29.3108C62.7927 28.8291 62.9741 28.3212 63.0947 27.7973V27.7973Z" fill="white"/>
<path d="M49.5683 40.3661C49.8679 40.3661 50.1108 40.1233 50.1108 39.8237C50.1108 39.5241 49.8679 39.2812 49.5683 39.2812C49.2687 39.2812 49.0259 39.5241 49.0259 39.8237C49.0259 40.1233 49.2687 40.3661 49.5683 40.3661Z" fill="white"/>
<path d="M49.5683 38.538C49.8679 38.538 50.1108 38.2952 50.1108 37.9956C50.1108 37.696 49.8679 37.4531 49.5683 37.4531C49.2687 37.4531 49.0259 37.696 49.0259 37.9956C49.0259 38.2952 49.2687 38.538 49.5683 38.538Z" fill="white"/>
<path d="M49.5683 36.7099C49.8679 36.7099 50.1108 36.467 50.1108 36.1674C50.1108 35.8679 49.8679 35.625 49.5683 35.625C49.2687 35.625 49.0259 35.8679 49.0259 36.1674C49.0259 36.467 49.2687 36.7099 49.5683 36.7099Z" fill="white"/>
<path d="M49.5683 34.8818C49.8679 34.8818 50.1108 34.6389 50.1108 34.3393C50.1108 34.0397 49.8679 33.7969 49.5683 33.7969C49.2687 33.7969 49.0259 34.0397 49.0259 34.3393C49.0259 34.6389 49.2687 34.8818 49.5683 34.8818Z" fill="white"/>
<path fill-rule="evenodd" clip-rule="evenodd" d="M61.1532 62.7305C60.1416 62.7763 59.1893 63.2212 58.505 63.9676C57.8207 64.7141 57.4602 65.7014 57.5023 66.7132C57.5023 66.7656 57.5116 66.8152 57.5133 66.867C57.5113 66.9186 57.5023 66.9679 57.5023 67.0201C57.4993 67.7152 57.6912 68.3971 58.0563 68.9886H64.1463C64.5788 68.3087 64.8069 67.5189 64.8034 66.7132C64.8456 65.7015 64.4852 64.7143 63.801 63.9678C63.1169 63.2214 62.1648 62.7764 61.1532 62.7305V62.7305Z" fill="#5E9624"/>
<path fill-rule="evenodd" clip-rule="evenodd" d="M59.5883 63.7734C58.9544 64.0421 58.4163 64.4956 58.0442 65.0748C57.672 65.6539 57.4832 66.3319 57.5023 67.02C57.4992 67.7151 57.6912 68.3971 58.0563 68.9885H59.3978C58.9588 68.2432 58.7293 67.393 58.7337 66.5279C58.7255 65.5433 59.0242 64.5805 59.5883 63.7734V63.7734Z" fill="#76BC2D"/>
<path fill-rule="evenodd" clip-rule="evenodd" d="M68.1307 68.9883C68.6804 68.2123 68.9756 67.2848 68.9755 66.3339C68.963 65.0973 68.463 63.9156 67.5842 63.0455C66.7053 62.1755 65.5186 61.6875 64.282 61.6875C63.0453 61.6875 61.8586 62.1755 60.9798 63.0455C60.1009 63.9156 59.6009 65.0973 59.5884 66.3339C59.5883 67.2848 59.8835 68.2124 60.4332 68.9883H68.1307Z" fill="#76BC2D"/>
<path fill-rule="evenodd" clip-rule="evenodd" d="M66.8955 62.7305C67.558 63.4654 67.9301 64.4166 67.9421 65.406C67.9233 66.1314 67.7213 66.8403 67.355 67.4666C66.9886 68.093 66.4697 68.6166 65.8467 68.9885H68.0455C68.6776 68.239 69.0091 67.2816 68.9757 66.3016C68.9571 65.5795 68.7567 64.8737 68.3931 64.2496C68.0295 63.6254 67.5145 63.1029 66.8955 62.7305V62.7305Z" fill="#5E9624"/>
</g>
<defs>
<linearGradient id="paint0_linear" x1="47.8697" y1="-15.155" x2="51.8525" y2="130.613" gradientUnits="userSpaceOnUse">
<stop stop-color="#00ABDE"/>
<stop offset="1" stop-color="#007ED8"/>
</linearGradient>
<clipPath id="clip0">
<rect width="99.2799" height="99.28" fill="white"/>
</clipPath>
</defs>
</svg>
