<svg width="103" height="102" viewBox="0 0 103 102" fill="none" xmlns="http://www.w3.org/2000/svg">
<path d="M51.8587 97.8049C77.711 97.8049 98.6646 76.8514 98.6646 50.999C98.6646 25.1466 77.711 4.19308 51.8587 4.19308C26.0063 4.19308 5.05273 25.1466 5.05273 50.999C5.05273 76.8514 26.0063 97.8049 51.8587 97.8049Z" fill="url(#paint0_linear)"/>
<path fill-rule="evenodd" clip-rule="evenodd" d="M51.8584 0.998995C24.2451 0.998995 1.8584 23.3857 1.8584 50.999C1.8584 78.6123 24.2451 100.999 51.8584 100.999C79.4717 100.999 101.858 78.6123 101.858 50.999C101.858 23.3857 79.4717 0.998995 51.8584 0.998995ZM51.8584 96.7558C26.5868 96.7558 6.10156 76.2706 6.10156 50.999C6.10156 25.7274 26.5868 5.24216 51.8584 5.24216C77.13 5.24216 97.6152 25.7274 97.6152 50.999C97.6152 76.2706 77.13 96.7558 51.8584 96.7558Z" fill="#D9D9D9"/>
<path fill-rule="evenodd" clip-rule="evenodd" d="M5.96108 50.999C5.96108 76.3456 26.5118 96.8963 51.8584 96.8963C77.205 96.8963 97.7558 76.3456 97.7558 50.999C97.7558 25.6524 77.205 5.10166 51.8584 5.10166C26.5118 5.10166 5.96108 25.6524 5.96108 50.999ZM51.8584 1.35494C24.4418 1.35494 2.21436 23.5824 2.21436 50.999C2.21436 78.4156 24.4418 100.643 51.8584 100.643C79.2751 100.643 101.502 78.4156 101.502 50.999C101.502 23.5824 79.2751 1.35494 51.8584 1.35494Z" fill="#F2F1F0"/>
<path fill-rule="evenodd" clip-rule="evenodd" d="M8.77114 50.999C8.77114 74.8 28.0574 94.0863 51.8584 94.0863C75.6595 94.0863 94.9457 74.8 94.9457 50.999C94.9457 27.1979 75.6595 7.9117 51.8584 7.9117C28.0574 7.9117 8.77114 27.1979 8.77114 50.999ZM51.8584 4.16498C25.9967 4.16498 5.02441 25.1373 5.02441 50.999C5.02441 76.8607 25.9967 97.833 51.8584 97.833C77.7202 97.833 98.6925 76.8607 98.6925 50.999C98.6925 25.1373 77.7295 4.16498 51.8584 4.16498Z" fill="#0078D4"/>
<path d="M51.8584 65.4707C59.8509 65.4707 66.3301 58.9915 66.3301 50.999C66.3301 43.0065 59.8509 36.5273 51.8584 36.5273C43.8659 36.5273 37.3867 43.0065 37.3867 50.999C37.3867 58.9915 43.8659 65.4707 51.8584 65.4707Z" stroke="#1D4A79" stroke-width="0.2428" stroke-miterlimit="10" stroke-linejoin="round"/>
<path d="M51.8583 69.2923C61.9615 69.2923 70.1517 61.1021 70.1517 50.999C70.1517 40.8958 61.9615 32.7056 51.8583 32.7056C41.7552 32.7056 33.5649 40.8958 33.5649 50.999C33.5649 61.1021 41.7552 69.2923 51.8583 69.2923Z" stroke="#24608C" stroke-width="0.307" stroke-miterlimit="10" stroke-linejoin="round"/>
<path d="M51.8582 73.114C64.072 73.114 73.9732 63.2128 73.9732 50.999C73.9732 38.7852 64.072 28.884 51.8582 28.884C39.6444 28.884 29.7432 38.7852 29.7432 50.999C29.7432 63.2128 39.6444 73.114 51.8582 73.114Z" stroke="#2C779F" stroke-width="0.3712" stroke-miterlimit="10" stroke-linejoin="round"/>
<path d="M51.8586 76.945C66.1883 76.945 77.8047 65.3286 77.8047 50.999C77.8047 36.6694 66.1883 25.0529 51.8586 25.0529C37.529 25.0529 25.9126 36.6694 25.9126 50.999C25.9126 65.3286 37.529 76.945 51.8586 76.945Z" stroke="#338DB2" stroke-width="0.4354" stroke-miterlimit="10" stroke-linejoin="round"/>
<path d="M51.8585 80.7667C68.2988 80.7667 81.6262 67.4392 81.6262 50.999C81.6262 34.5587 68.2988 21.2313 51.8585 21.2313C35.4183 21.2313 22.0908 34.5587 22.0908 50.999C22.0908 67.4392 35.4183 80.7667 51.8585 80.7667Z" stroke="#3AA3C6" stroke-width="0.4996" stroke-miterlimit="10" stroke-linejoin="round"/>
<path d="M51.8585 84.5977C70.4146 84.5977 85.4572 69.555 85.4572 50.999C85.4572 32.4429 70.4146 17.4003 51.8585 17.4003C33.3024 17.4003 18.2598 32.4429 18.2598 50.999C18.2598 69.555 33.3024 84.5977 51.8585 84.5977Z" stroke="#41B9D9" stroke-width="0.5638" stroke-miterlimit="10" stroke-linejoin="round"/>
<path d="M51.8584 88.4193C72.5251 88.4193 89.2788 71.6657 89.2788 50.999C89.2788 30.3323 72.5251 13.5786 51.8584 13.5786C31.1917 13.5786 14.438 30.3323 14.438 50.999C14.438 71.6657 31.1917 88.4193 51.8584 88.4193Z" stroke="#49D0EC" stroke-width="0.628" stroke-miterlimit="10" stroke-linejoin="round"/>
<path d="M51.8582 92.241C74.6356 92.241 93.1003 73.7763 93.1003 50.999C93.1003 28.2216 74.6356 9.75693 51.8582 9.75693C29.0809 9.75693 10.6162 28.2216 10.6162 50.999C10.6162 73.7763 29.0809 92.241 51.8582 92.241Z" stroke="#50E6FF" stroke-width="0.6922" stroke-miterlimit="10" stroke-linejoin="round"/>
<path opacity="0.15" fill-rule="evenodd" clip-rule="evenodd" d="M25.9123 31.1788V47.0181C25.9123 64.4965 33.4432 75.6055 51.8583 85.1222C70.2734 75.5962 77.8044 64.4965 77.8044 47.0087V31.1788C65.946 30.8884 57.4035 28.247 51.8583 23.1421C46.2944 28.247 37.7706 30.8884 25.9123 31.1788ZM51.8583 89.9087C51.5117 89.9087 51.1652 89.8244 50.8467 89.6745C30.2023 79.2961 21.3975 66.5385 21.3975 47.0181V28.9495C21.3975 27.7037 22.3997 26.6921 23.6549 26.6921C36.6466 26.6921 45.3109 23.9945 50.1629 18.44C51.0247 17.4658 52.7013 17.4658 53.5631 18.44C58.4057 23.9945 67.0794 26.6921 80.0711 26.6921C81.3169 26.6921 82.3285 27.7037 82.3285 28.9495V47.0087C82.3285 66.5291 73.5237 79.2867 52.8793 89.6558C52.5515 89.8244 52.2049 89.9087 51.8583 89.9087Z" fill="#1F1D20"/>
<path fill-rule="evenodd" clip-rule="evenodd" d="M51.849 19.0114C45.9291 25.7836 35.5226 28.0316 23.6455 28.0316V46.0814C23.6455 64.6933 31.8883 76.6734 51.849 86.7052C71.8096 76.6734 80.0524 64.7026 80.0524 46.0814V28.041C68.1753 28.041 57.7594 25.7929 51.849 19.0114Z" fill="#30404D"/>
<path fill-rule="evenodd" clip-rule="evenodd" d="M51.8584 19.0114V86.7052C71.8191 76.6734 80.0618 64.7026 80.0618 46.0814V28.041C68.1847 28.041 57.7689 25.7929 51.8584 19.0114Z" fill="#182A37"/>
<path fill-rule="evenodd" clip-rule="evenodd" d="M25.9123 30.2421V46.0814C25.9123 63.5598 33.4432 74.6689 51.8583 84.1855C70.2734 74.6595 77.8044 63.5598 77.8044 46.072V30.2421C65.946 29.9518 57.4035 27.3103 51.8583 22.2054C46.2944 27.3103 37.7706 29.9518 25.9123 30.2421ZM51.8583 88.972C51.5117 88.972 51.1652 88.8877 50.8467 88.7378C30.2023 78.3594 21.3975 65.6018 21.3975 46.0814V28.0128C21.3975 26.767 22.3997 25.7554 23.6549 25.7554C36.6466 25.7554 45.3109 23.0578 50.1629 17.5033C51.0247 16.5291 52.7013 16.5291 53.5631 17.5033C58.4057 23.0578 67.0794 25.7554 80.0711 25.7554C81.3169 25.7554 82.3285 26.767 82.3285 28.0128V46.072C82.3285 65.5924 73.5237 78.35 52.8793 88.7191C52.5515 88.8877 52.2049 88.972 51.8583 88.972Z" fill="#546670"/>
<path fill-rule="evenodd" clip-rule="evenodd" d="M25.9123 29.0058V44.845C25.9123 62.3235 33.4432 73.4325 51.8583 82.9492C70.2734 73.4231 77.8044 62.3235 77.8044 44.8357V29.0058C65.946 28.7154 57.4035 26.0739 51.8583 20.969C46.2944 26.0739 37.7706 28.7154 25.9123 29.0058ZM51.8583 87.7262C51.5117 87.7262 51.1652 87.6419 50.8467 87.4921C30.2023 77.1137 21.3975 64.3561 21.3975 44.8357V26.7765C21.3975 25.5307 22.3997 24.5191 23.6549 24.5191C36.6466 24.5191 45.3109 21.8214 50.1629 16.2669C51.0247 15.2928 52.7013 15.2928 53.5631 16.2669C58.4057 21.8214 67.0794 24.5191 80.0711 24.5191C81.3169 24.5191 82.3285 25.5307 82.3285 26.7765V44.8357C82.3285 64.3561 73.5237 77.1137 52.8793 87.4827C52.5515 87.6513 52.2049 87.7262 51.8583 87.7262Z" fill="#546670"/>
<path d="M62.8362 38.5599H40.7773V60.6281H62.8455V38.5599H62.8362Z" stroke="white" stroke-width="1.2" stroke-miterlimit="10"/>
<path d="M62.9014 63.3538C64.194 63.3538 65.2524 62.3047 65.2524 61.0027C65.2524 59.7101 64.2033 58.6517 62.9014 58.6517C61.6087 58.6517 60.5503 59.7007 60.5503 61.0027C60.5503 62.3047 61.5994 63.3538 62.9014 63.3538Z" fill="white"/>
<path d="M51.8677 63.3538C53.1603 63.3538 54.2187 62.3047 54.2187 61.0027C54.2187 59.7101 53.1697 58.6517 51.8677 58.6517C50.575 58.6517 49.5166 59.7007 49.5166 61.0027C49.5166 62.3047 50.5657 63.3538 51.8677 63.3538Z" fill="white"/>
<path d="M40.8242 63.3538C42.1168 63.3538 43.1753 62.3047 43.1753 61.0027C43.1753 59.7101 42.1262 58.6517 40.8242 58.6517C39.5316 58.6517 38.4731 59.7007 38.4731 61.0027C38.4825 62.3047 39.5316 63.3538 40.8242 63.3538Z" fill="white"/>
<path d="M62.9014 52.0387C64.194 52.0387 65.2524 50.9896 65.2524 49.6876C65.2524 48.3857 64.2033 47.3366 62.9014 47.3366C61.6087 47.3366 60.5503 48.3857 60.5503 49.6876C60.5503 50.9896 61.5994 52.0387 62.9014 52.0387Z" fill="#50E6FF"/>
<path d="M51.8677 52.0387C53.1603 52.0387 54.2187 50.9896 54.2187 49.6876C54.2187 48.3857 53.1697 47.3366 51.8677 47.3366C50.575 47.3366 49.5166 48.3857 49.5166 49.6876C49.5166 50.9896 50.5657 52.0387 51.8677 52.0387Z" fill="#50E6FF"/>
<path d="M40.8242 52.0387C42.1168 52.0387 43.1753 50.9896 43.1753 49.6876C43.1753 48.3857 42.1262 47.3366 40.8242 47.3366C39.5316 47.3366 38.4731 48.3857 38.4731 49.6876C38.4731 50.9896 39.5316 52.0387 40.8242 52.0387Z" fill="#50E6FF"/>
<path d="M62.9014 40.7142C64.194 40.7142 65.2524 39.6652 65.2524 38.3632C65.2524 37.0706 64.2033 36.0121 62.9014 36.0121C61.6087 36.0121 60.5503 37.0612 60.5503 38.3632C60.5503 39.6652 61.5994 40.7142 62.9014 40.7142Z" fill="white"/>
<path d="M51.8677 40.7142C53.1603 40.7142 54.2187 39.6652 54.2187 38.3632C54.2187 37.0706 53.1697 36.0121 51.8677 36.0121C50.575 36.0121 49.5166 37.0612 49.5166 38.3632C49.5166 39.6652 50.5657 40.7142 51.8677 40.7142Z" fill="white"/>
<path d="M40.8242 40.7142C42.1168 40.7142 43.1753 39.6652 43.1753 38.3632C43.1753 37.0706 42.1262 36.0121 40.8242 36.0121C39.5316 36.0121 38.4731 37.0612 38.4731 38.3632C38.4825 39.6652 39.5316 40.7142 40.8242 40.7142Z" fill="white"/>
<defs>
<linearGradient id="paint0_linear" x1="53.629" y1="-13.7938" x2="49.6462" y2="131.974" gradientUnits="userSpaceOnUse">
<stop stop-color="#00ABDE"/>
<stop offset="1" stop-color="#007ED8"/>
</linearGradient>
</defs>
</svg>
