<?xml version="1.0" encoding="UTF-8"?>
<svg width="202px" height="192px" viewBox="0 0 202 192" version="1.1" xmlns="http://www.w3.org/2000/svg" xmlns:xlink="http://www.w3.org/1999/xlink">
    <title>Secure the Microsoft 365 messaging environment/secure-the-microsoft-365-messaging-environment</title>
    <defs>
        <path d="M94.999168,180 C72.0096814,159.695484 51.1433507,133.810825 34.5507866,104.990719 C17.9586386,76.1718636 6.03918083,45.1087705 4.54747351e-13,14.9921785 C29.0261716,5.17926791 61.81196,0 94.9975041,0 C128.18596,0 160.972164,5.17968506 190,14.9930128 C183.961235,45.1062676 172.040945,76.1689436 155.447133,104.990719 C138.852906,133.814579 117.986575,159.698822 94.999168,180 Z" id="path-1"></path>
        <linearGradient x1="50%" y1="0%" x2="50%" y2="100%" id="linearGradient-3">
            <stop stop-color="#99D3FF" offset="0%"></stop>
            <stop stop-color="#0FA6FF" offset="100%"></stop>
        </linearGradient>
        <path d="M94.9975041,0 C128.18596,0 160.972164,5.17968506 190,14.9930128 C183.961235,45.1062676 172.040945,76.1689436 155.447133,104.990719 C138.852906,133.814579 117.986575,159.698822 94.999168,180 C72.0096814,159.695484 51.1433507,133.810825 34.5507866,104.990719 C17.9586386,76.1718636 6.03918083,45.1087705 4.54747351e-13,14.9921785 C29.0261716,5.17926791 61.81196,0 94.9975041,0 Z M94.9975041,5 C64.3667313,5 34.081813,9.48312148 6.90641106,18.001207 L5.813,18.348 L6.06325034,19.4813964 C12.193882,46.8903924 23.199643,74.9577434 38.1339673,101.186116 L38.8839529,102.49599 C54.2305801,129.151992 73.2912882,153.256779 94.2869583,172.621724 L94.999,173.275 L95.7112509,172.622085 C116.372365,153.566865 135.160604,129.918825 150.380339,103.763487 L151.113986,102.495958 C166.431818,75.8904307 177.704348,47.3442791 183.936835,19.4815472 L184.187,18.349 L183.093193,18.0019322 C156.361298,9.62293214 126.6224,5.14807734 96.5037414,5.00361261 L94.9975041,5 Z" id="path-4"></path>
        <filter x="-2.7%" y="-2.7%" width="105.3%" height="105.3%" filterUnits="objectBoundingBox" id="filter-6">
            <feOffset dx="0" dy="1" in="SourceAlpha" result="shadowOffsetOuter1"></feOffset>
            <feColorMatrix values="0 0 0 0 0   0 0 0 0 0   0 0 0 0 0  0 0 0 0.19 0" type="matrix" in="shadowOffsetOuter1" result="shadowMatrixOuter1"></feColorMatrix>
            <feMerge>
                <feMergeNode in="shadowMatrixOuter1"></feMergeNode>
                <feMergeNode in="SourceGraphic"></feMergeNode>
            </feMerge>
        </filter>
        <linearGradient x1="50%" y1="100%" x2="50%" y2="0%" id="linearGradient-7">
            <stop stop-color="#F36524" offset="0%"></stop>
            <stop stop-color="#FFA20A" offset="100%"></stop>
        </linearGradient>
        <filter x="-12.5%" y="-19.0%" width="125.0%" height="138.1%" filterUnits="objectBoundingBox" id="filter-8">
            <feOffset dx="0" dy="2" in="SourceAlpha" result="shadowOffsetOuter1"></feOffset>
            <feColorMatrix values="0 0 0 0 0   0 0 0 0 0   0 0 0 0 0  0 0 0 0.0964956975 0" type="matrix" in="shadowOffsetOuter1" result="shadowMatrixOuter1"></feColorMatrix>
            <feMerge>
                <feMergeNode in="shadowMatrixOuter1"></feMergeNode>
                <feMergeNode in="SourceGraphic"></feMergeNode>
            </feMerge>
        </filter>
    </defs>
    <g id="Badges" stroke="none" stroke-width="1" fill="none" fill-rule="evenodd">
        <g id="Secure-the-Microsoft-365-messaging-environment" transform="translate(-109.000000, -35.000000)">
            <g id="Secure-the-Microsoft-365-messaging-environment/secure-the-microsoft-365-messaging-environment" transform="translate(160.000000, 49.000000)">
                <g id="Trophy-Plates/Triangle" transform="translate(0.000000, 31.000000)">
                    <g id="BG" transform="translate(-45.000000, -40.000000)">
                        <mask id="mask-2" fill="white">
                            <use xlink:href="#path-1"></use>
                        </mask>
                        <path stroke="#FFFFFF" stroke-width="5" d="M94.9975041,-2.5 C61.531668,-2.5 28.4701501,2.72824188 -0.800660806,12.623858 C-1.49026853,12.8569944 -2.17997671,13.0934668 -2.86974568,13.3332541 C-2.73531616,14.0510077 -2.59467441,14.7682379 -2.4512031,15.4837102 C3.63852218,45.8523606 15.652907,77.1775413 32.3842134,106.2381 C49.1162293,135.300424 70.1619115,161.398988 93.3442125,181.873799 C93.8917925,182.357426 94.4423388,182.839483 94.9958132,183.319945 C95.5531796,182.841878 96.1051089,182.358658 96.6540549,181.87386 C119.834288,161.402388 140.880007,135.30422 157.613733,106.238055 C174.346688,77.1746013 186.361895,45.8498424 192.451199,15.4845643 C192.594289,14.7710248 192.734564,14.0557347 192.872022,13.3387388 C192.183618,13.095542 191.492084,12.8584389 190.80065,12.6246887 C161.528177,2.72865736 128.466258,-2.5 94.9975041,-2.5 Z"></path>
                        <g id="Colors/Microsoft-365/BG-Gradient-1" mask="url(#mask-2)" fill="url(#linearGradient-3)">
                            <rect id="Rectangle" x="0" y="0" width="190" height="180"></rect>
                        </g>
                    </g>
                    <g id="Border" transform="translate(-45.000000, -40.000000)">
                        <mask id="mask-5" fill="white">
                            <use xlink:href="#path-4"></use>
                        </mask>
                        <use fill="#000000" fill-rule="nonzero" xlink:href="#path-4"></use>
                        <g id="Colors/Microsoft-365/Border" mask="url(#mask-5)" fill="#0076D7">
                            <rect id="Microsoft-365/Border" x="0" y="0" width="190" height="180"></rect>
                        </g>
                    </g>
                </g>
                <g id="Group-2" transform="translate(3.000000, 0.000000)">
                    <g id="Lock" transform="translate(14.045977, -0.000000)" fill-rule="nonzero">
                        <path d="M62.4824155,41.8677376 L58.3381415,41.8677376 L58.3381415,26.9706875 C58.4101636,19.9345313 55.814429,13.1383602 51.0856622,7.98219405 C46.4379785,2.89336224 39.9033902,0 33.0580707,0 C26.2127512,0 19.6781628,2.89336224 15.0304792,7.98219405 C10.292544,13.1325515 7.69533526,19.9325821 7.77799983,26.9706875 L7.77799983,41.8677376 L3.63372592,41.8677376 C2.66470526,41.7731006 1.70357642,42.1144898 1.00529241,42.801347 C0.307008395,43.4882042 -0.0578554208,44.4511089 0.00748624629,45.434637 L0.00748624629,84.0410767 C0.00704787764,84.9499085 0.37053618,85.8200871 1.01488976,86.4527666 C1.65924334,87.0854461 2.52939769,87.4265596 3.42651222,87.3981585 L62.4824155,87.3981585 C63.37953,87.4265596 64.2496843,87.0854461 64.8940379,86.4527666 C65.5383915,85.8200871 65.9018798,84.9499085 65.9014414,84.0410767 L65.9014414,45.434637 C65.9603818,44.4899932 65.6227516,43.5640492 64.9717001,42.8848395 C64.3206485,42.2056299 63.4166794,41.8362753 62.4824155,41.8677376 Z M46.4233541,41.8677376 L19.4855736,41.8677376 L19.4855736,26.7608699 C19.4916707,22.8358825 21.0166708,19.0696295 23.7334544,16.2699895 C26.0733004,13.6006214 29.4296032,12.0729734 32.9544638,12.0729734 C36.4793245,12.0729734 39.8356272,13.6006214 42.1754733,16.2699895 C42.7839064,16.9221904 43.3383444,17.623947 43.8331829,18.3681656 L43.8331829,18.3681656 C45.5026895,20.8028328 46.4056383,23.6920067 46.4233541,26.6559611 L46.4233541,41.8677376 Z" id="Shape" fill="#FFBD02"></path>
                        <path d="M3.49189793,41.5526395 L63.6902133,41.5526395 C64.5073209,41.5569925 65.2952181,41.8643029 65.908046,42.4176802 L1.27406526,87.3998001 C0.511688333,86.7575861 0.0511084306,85.814455 0.00673230077,84.8046778 L0.00673230077,45.2290627 C-0.0533482099,44.255413 0.290813233,43.3010373 0.95445914,42.6009721 C1.61810505,41.9009069 2.53956106,41.520211 3.49189793,41.5526395 Z" id="Path" fill="#FFE452"></path>
                        <path d="M62.416148,41.5526395 L2.21783267,41.5526395 C1.40072508,41.5569925 0.612827927,41.8643029 0,42.4176802 L64.6339807,87.3998001 C65.4317853,86.7871748 65.9013137,85.8257199 65.9013137,84.8046778 L65.9013137,45.2290627 C65.9613942,44.255413 65.6172327,43.3010373 64.9535868,42.6009721 C64.2899409,41.9009069 63.3684849,41.520211 62.416148,41.5526395 Z" id="Path" fill="#FFD400" opacity="0.5"></path>
                    </g>
                    <g id="Chat-bubble" transform="translate(0.000000, 27.011494)">
                        <g id="Icon-iot-204-Notification-Hub-Namespaces" filter="url(#filter-6)">
                            <g id="Group" transform="translate(1.422745, 12.804709)" fill="url(#linearGradient-7)" fill-rule="nonzero">
                                <path d="M90.4649553,3.10799631 L90.4649553,60.5756061 C90.4649553,61.4011336 90.1328689,62.1921024 89.5429551,62.7708282 C88.9530413,63.349554 88.1548843,63.6675137 87.327783,63.6532805 L63.2938527,63.6532805 C62.8827243,63.6532805 62.5494389,63.9858823 62.5494389,64.3961674 L62.5494389,73.6822539 C62.5444486,74.2450442 62.2212388,74.7567102 61.7145778,75.003903 C61.2079168,75.2510959 60.6047892,75.1913772 60.1566804,74.8496477 L45.6937843,63.8124705 L45.2152325,63.8124705 L3.20902693,63.8124705 C2.38192563,63.8267038 1.5837686,63.5087441 0.993854812,62.9300183 C0.403941024,62.3512925 0.0718545769,61.5603237 0.0718545769,60.7347961 L0.0718545769,3.10799631 C0.0718545769,2.28246876 0.403941024,1.49149998 0.993854812,0.912774181 C1.5837686,0.334048381 2.38192563,0.0160886723 3.20902693,0.029863829 L87.327783,0.029863829 C88.1548843,0.0160886723 88.9530413,0.334048381 89.5429551,0.912774181 C90.1328689,1.49149998 90.4649553,2.28246876 90.4649553,3.10799631 Z" id="Path"></path>
                            </g>
                            <rect id="Rectangle" x="0" y="0" width="93.9011982" height="93.9011982"></rect>
                        </g>
                        <rect id="Rectangle" fill="#FFFFFF" x="15.6666667" y="24.2121212" width="62.6666667" height="8.54545455" rx="4.27272727"></rect>
                        <rect id="Rectangle-Copy" fill="#FFFFFF" x="15.6666667" y="39.8787879" width="62.6666667" height="8.54545455" rx="4.27272727"></rect>
                        <rect id="Rectangle-Copy" fill="#FFFFFF" x="15.6666667" y="55.5454545" width="34.1818182" height="8.54545455" rx="4.27272727"></rect>
                    </g>
                </g>
                <g id="Envelope" filter="url(#filter-8)" transform="translate(18.000000, 96.000000)">
                    <path d="M12,9.88996139 L0.585595637,21 C0.223627123,20.6529923 0,20.1703668 0,19.6389961 L0,2.26447876 C0,1.78185328 0.183959341,1.33832046 0.495847279,1 L12,9.88996139" id="Fill-4" fill="#3D74B2"></path>
                    <path d="M31,20.414876 C30.6500592,20.7768595 30.1633544,21 29.6274923,21 L2.37202096,21 C1.83664563,21 1.34994078,20.7768595 1,20.414876 L12.2039456,9 L15.9997566,12.0743802 L19.8447249,9.04958678 L31,20.414876" id="Fill-5" fill="#529BEC"></path>
                    <path d="M31,2.06341463 L31,19.6243902 C31,20.1614634 30.7759336,20.6492683 30.4124481,21 L19,9.8195122 L30.6713693,1 C30.8804979,1.30780488 31,1.67365854 31,2.06341463" id="Fill-6" fill="#3D74B2"></path>
                    <path d="M20.2436994,9.18461538 L16.4419669,12 L12.5237764,9.70533731 L1,0.84 C1.34696824,0.447692308 2.38999387,0 2.96747222,0 L29.9164616,0 C30.5901864,0 31.1821017,0.332769231 31.5237764,0.84 L20.2436994,9.18461538 Z" id="Fill-7" fill="#529BEC"></path>
                    <polyline id="Fill-8" fill="#597BA4" points="19.7571432 9.24095044 15.928359 12.0718396 12.1485251 9.19454242 4 3 15.928359 13 26 4.63031372 19.7571432 9.24095044"></polyline>
                </g>
            </g>
        </g>
    </g>
</svg>