<?xml version="1.0" encoding="UTF-8"?>
<svg width="107px" height="107px" viewBox="0 0 107 107" version="1.1" xmlns="http://www.w3.org/2000/svg" xmlns:xlink="http://www.w3.org/1999/xlink">
    <!-- Generator: Sketch 63.1 (92452) - https://sketch.com -->
    <title>Manage your security with Microsoft 365/Secure-Windows-10-endpoints</title>
    <desc>Created with Sketch.</desc>
    <defs>
        <rect id="path-1" x="0" y="0" width="100" height="100" rx="50"></rect>
        <filter x="-12.9%" y="-9.0%" width="126.0%" height="118.7%" filterUnits="objectBoundingBox" id="filter-3">
            <feOffset dx="0" dy="2" in="SourceAlpha" result="shadowOffsetOuter1"></feOffset>
            <feColorMatrix values="0 0 0 0 0   0 0 0 0 0   0 0 0 0 0  0 0 0 0.101760643 0" type="matrix" in="shadowOffsetOuter1" result="shadowMatrixOuter1"></feColorMatrix>
            <feMerge>
                <feMergeNode in="shadowMatrixOuter1"></feMergeNode>
                <feMergeNode in="SourceGraphic"></feMergeNode>
            </feMerge>
        </filter>
        <linearGradient x1="76.7275556%" y1="-4.05946744%" x2="15.5786468%" y2="110.793945%" id="linearGradient-4">
            <stop stop-color="#FFFFFF" offset="0%"></stop>
            <stop stop-color="#000000" stop-opacity="0.5" offset="100%"></stop>
        </linearGradient>
        <rect id="path-5" x="-3" y="-3" width="106" height="106" rx="53"></rect>
        <filter x="-0.5%" y="-0.5%" width="101.9%" height="101.9%" filterUnits="objectBoundingBox" id="filter-6">
            <feOffset dx="1" dy="1" in="SourceAlpha" result="shadowOffsetOuter1"></feOffset>
            <feMorphology radius="4" operator="erode" in="SourceAlpha" result="shadowInner"></feMorphology>
            <feOffset dx="1" dy="1" in="shadowInner" result="shadowInner"></feOffset>
            <feComposite in="shadowOffsetOuter1" in2="shadowInner" operator="out" result="shadowOffsetOuter1"></feComposite>
            <feColorMatrix values="0 0 0 0 0   0 0 0 0 0   0 0 0 0 0  0 0 0 0.15 0" type="matrix" in="shadowOffsetOuter1"></feColorMatrix>
        </filter>
    </defs>
    <g id="Badges" stroke="none" stroke-width="1" fill="none" fill-rule="evenodd">
        <g id="Manage-your-security-with-Microsoft-365" transform="translate(-47.000000, -857.000000)">
            <g id="Manage-your-security-with-Microsoft-365/Secure-Windows-10-endpoints" transform="translate(50.000000, 860.000000)">
                <g id="Mask" transform="translate(2.000000, 2.000000)">
                    <g id="Circle-" transform="translate(-2.000000, -0.000000)">
                        <mask id="mask-2" fill="white">
                            <use xlink:href="#path-1"></use>
                        </mask>
                        <g id="BG"></g>
                        <g id="Color-/-Microsoft-365" mask="url(#mask-2)" fill="#0078D4" fill-rule="evenodd">
                            <rect id="Rectangle" x="0" y="0" width="100" height="100"></rect>
                        </g>
                    </g>
                    <g id="Group-2" transform="translate(18.000000, 18.000000)">
                        <circle id="Oval" stroke="#FFFFFF" stroke-width="3" cx="7.77777778" cy="30" r="7.77777778"></circle>
                        <circle id="Oval" stroke="#FFFFFF" stroke-width="3" cx="52.2222222" cy="7.77777778" r="7.77777778"></circle>
                        <circle id="Oval" stroke="#FFFFFF" stroke-width="3" cx="52.2222222" cy="30" r="7.77777778"></circle>
                        <circle id="Oval" stroke="#FFFFFF" stroke-width="3" cx="52.2222222" cy="52.2222222" r="7.77777778"></circle>
                        <rect id="Rectangle" fill="#FFFFFF" x="14.4444444" y="27.7777778" width="31.1111111" height="3.33333333"></rect>
                        <polygon id="Rectangle" fill="#FFFFFF" transform="translate(30.000000, 18.333333) rotate(-31.000000) translate(-30.000000, -18.333333) " points="12.2222222 16.6666667 47.7777778 16.6666667 47.7777778 20 12.2222222 20"></polygon>
                        <polygon id="Rectangle" fill="#FFFFFF" transform="translate(30.555556, 40.555556) scale(1, -1) rotate(-31.000000) translate(-30.555556, -40.555556) " points="13.3333333 38.8888889 47.7777778 38.8888889 47.7777778 42.2222222 13.3333333 42.2222222"></polygon>
                    </g>
                    <g id="Round-Lock" transform="translate(5.000000, 21.000000)">
                        <path d="M8.83598624,28.2230443 L3.5361254,28.2230443 C1.75024012,28.2230443 0.297321549,26.7701257 0.297321549,24.9842405 C0.297321549,23.1983552 1.75024012,21.7454366 3.5361254,21.7454366 C3.70002065,21.7454366 3.8647786,21.7602438 4.04161435,21.7914423 C4.66786651,19.669858 6.5998189,18.212196 8.83598624,18.212196 C11.5960419,18.212196 13.8414104,20.4575645 13.8414104,23.2176202 C13.8414104,25.9776758 11.5960419,28.2230443 8.83598624,28.2230443 Z" id="Cloud" fill="#FFFFFF" fill-rule="nonzero"></path>
                        <g id="Lock" filter="url(#filter-3)" transform="translate(9.660567, 0.307145)">
                            <path d="M15.3394333,0 C9.18832057,0 4.18348182,5.00483875 4.18348182,11.1559515 L4.18348182,19.5229152 C4.18348182,20.2926758 5.12058175,20.9174091 6.27522273,20.9174091 C7.42986371,20.9174091 8.36696364,20.2926758 8.36696364,19.5229152 L8.36696364,11.1559515 C8.36696364,7.31133173 11.4948135,4.18348182 15.3394333,4.18348182 C19.1840531,4.18348182 22.311903,7.31133173 22.311903,11.1559515 L22.311903,19.5229152 C22.311903,20.2926758 23.249003,20.9174091 24.4036439,20.9174091 C25.5582849,20.9174091 26.4953849,20.2926758 26.4953849,19.5229152 L26.4953849,11.1559515 C26.4953849,5.00483875 21.4905461,0 15.3394333,0" id="Fill-84" fill="#F3F3F3"></path>
                            <path d="M15.3394333,0 C15.1037639,0 14.8736724,0.0202201621 14.6421864,0.0355595955 C20.4676848,0.39812802 25.1008909,5.24050823 25.1008909,11.1559515 L25.1008909,14.6094158 C25.1008909,15.4196167 24.2181762,15.9244235 23.5251128,15.5053781 C23.1318655,15.2676169 22.7274622,15.0465896 22.311903,14.8450852 L22.311903,19.5229152 C22.311903,20.2926758 23.249003,20.9174091 24.4036439,20.9174091 C25.5582849,20.9174091 26.4953849,20.2926758 26.4953849,19.5229152 L26.4953849,11.1559515 C26.4953849,5.00483875 21.4905461,0 15.3394333,0" id="Fill-85" fill="#C5CCCD"></path>
                            <path d="M12.710115,4.29643583 C9.3417149,4.9134994 6.9724697,7.97999157 6.9724697,11.4048687 L6.9724697,14.499948 C6.9724697,15.1679106 6.65870856,15.8031026 6.11276418,16.1865884 C5.42806766,16.6676888 4.78241697,17.198991 4.18348182,17.7797977 L4.18348182,19.5229152 C4.18348182,20.2926758 5.12058175,20.9174091 6.27522273,20.9174091 C7.42986371,20.9174091 8.36696364,20.2926758 8.36696364,19.5229152 L8.36696364,11.1559515 C8.36696364,7.54630395 11.1231809,4.57045389 14.6421864,4.21904141 C14.0223338,4.15628919 13.3829583,4.17302311 12.710115,4.29643583" id="Fill-87" fill="#C5CCCD"></path>
                            <path d="M15.3394333,15.3394333 C7.65019375,15.3394333 1.39449394,21.5951331 1.39449394,29.2843727 C1.39449394,36.9736123 7.65019375,43.2293121 15.3394333,43.2293121 C23.0286729,43.2293121 29.2843727,36.9736123 29.2843727,29.2843727 C29.2843727,21.5951331 23.0286729,15.3394333 15.3394333,15.3394333" id="Fill-88" fill="#30404D"></path>
                            <path d="M15.3394333,15.3394333 L15.3394333,18.8256682 C14.9538558,18.8256682 14.6421864,18.5139988 14.6421864,18.1284212 L14.6421864,18.8256682 C14.6421864,19.045301 14.7439844,19.2412274 14.9022595,19.3688236 C15.2104426,19.6170435 15.3394333,20.0284192 15.3394333,20.4237582 L15.3394333,34.1644043 C14.0899668,34.1644043 12.8405002,33.6881846 11.8880608,32.735048 C11.0234746,31.8718562 10.5563191,30.7632336 10.4754385,29.6329962 C10.3785211,30.996114 10.8470711,32.3920025 11.8880608,33.4336894 C12.4800235,34.0256521 13.1870319,34.4342389 13.9379669,34.6580551 C14.7900027,34.9125503 15.3394333,35.7429714 15.3394333,36.6319613 L15.3394333,43.2293121 C23.0286729,43.2293121 29.2843727,36.9736123 29.2843727,29.2843727 C29.2843727,21.5951331 23.0286729,15.3394333 15.3394333,15.3394333" id="Fill-89" fill="#182A37"></path>
                            <path d="M7.94443197,21.8893714 C7.80777157,22.0253345 7.62927634,22.0929675 7.45078112,22.0929675 C7.27298314,22.0929675 7.09448792,22.0253345 6.95782751,21.8893714 L5.99911293,20.9306568 C4.15628919,22.9889298 2.98630877,25.6524133 2.82454747,28.5871258 L2.89287768,28.5871258 C3.18920764,25.9306148 4.30410554,23.5209293 5.99911293,21.6279038 L6.95782751,22.5866183 C7.09448792,22.7225815 7.27298314,22.7902145 7.45078112,22.7902145 C7.62927634,22.7902145 7.80777157,22.7225815 7.94443197,22.5866183 C8.17382623,22.3565268 8.19822987,22.0120868 8.03995481,21.744344 C8.01067044,21.7945458 7.98696404,21.8461421 7.94443197,21.8893714" id="Fill-90" fill="#182A37"></path>
                            <path d="M14.6421864,17.4667338 L14.6421864,16.7694869 C11.7074739,16.9312482 9.04399045,18.1012286 6.98571739,19.9440523 L7.36711148,20.3261437 C9.37099927,18.6701821 11.8831801,17.6187337 14.6421864,17.4667338" id="Fill-91" fill="#182A37"></path>
                            <path d="M4.18348182,29.9816197 L2.82454747,29.9816197 C2.83709792,30.2172892 2.86777679,30.4473807 2.89287768,30.6788667 L4.18348182,30.6788667 C4.56905939,30.6788667 4.88072879,30.3671973 4.88072879,29.9816197 C4.88072879,29.852629 4.83540774,29.736886 4.77405,29.6329962 C4.65203178,29.8372896 4.43867421,29.9816197 4.18348182,29.9816197" id="Fill-92" fill="#182A37"></path>
                            <path d="M7.94443197,37.6659786 L6.98571739,38.6246931 C7.10843286,38.7348582 7.24090978,38.8338672 7.36711148,38.9398488 L7.94443197,38.3632255 C8.17382623,38.133134 8.19822987,37.788694 8.03995481,37.5209512 C8.01067044,37.571153 7.98696404,37.6227492 7.94443197,37.6659786" id="Fill-93" fill="#182A37"></path>
                            <path d="M24.6790565,37.6380887 L23.7203419,36.6793741 C23.4484156,36.4074478 23.0070583,36.4074478 22.7344347,36.6793741 C22.4625084,36.9519977 22.4625084,37.393355 22.7344347,37.6659786 L23.6931493,38.6246931 C21.6348762,40.4675169 18.9713928,41.6374973 16.0366803,41.7992586 L16.0366803,40.4403242 C16.0366803,40.0547467 15.7250109,39.7430773 15.3394333,39.7430773 C14.9538558,39.7430773 14.6421864,40.0547467 14.6421864,40.4403242 L14.6421864,41.7992586 C11.7074739,41.6374973 9.04399045,40.4675169 6.98571739,38.6246931 L7.94443197,37.6659786 C8.21635829,37.393355 8.21635829,36.9519977 7.94443197,36.6793741 C7.67180841,36.4074478 7.23045108,36.4074478 6.95782751,36.6793741 L5.99911293,37.6380887 C4.15628919,35.5798156 2.98630877,32.9163322 2.82454747,29.9816197 L4.18348182,29.9816197 C4.56905939,29.9816197 4.88072879,29.6699503 4.88072879,29.2843727 C4.88072879,28.8987952 4.56905939,28.5871258 4.18348182,28.5871258 L2.82454747,28.5871258 C2.98630877,25.6524133 4.15628919,22.9889298 5.99911293,20.9306568 L6.95782751,21.8893714 C7.09448792,22.0253345 7.27298314,22.0929675 7.45078112,22.0929675 C7.62927634,22.0929675 7.80777157,22.0253345 7.94443197,21.8893714 C8.21635829,21.6167478 8.21635829,21.1753905 7.94443197,20.9027669 L6.98571739,19.9440523 C9.04399045,18.1012286 11.7074739,16.9312482 14.6421864,16.7694869 L14.6421864,18.1284212 C14.6421864,18.5139988 14.9538558,18.8256682 15.3394333,18.8256682 C15.7250109,18.8256682 16.0366803,18.5139988 16.0366803,18.1284212 L16.0366803,16.7694869 C18.9713928,16.9312482 21.6348762,18.1012286 23.6931493,19.9440523 L22.7344347,20.9027669 C22.4625084,21.1753905 22.4625084,21.6167478 22.7344347,21.8893714 C22.8710951,22.0253345 23.0495903,22.0929675 23.2273883,22.0929675 C23.4058835,22.0929675 23.5843788,22.0253345 23.7203419,21.8893714 L24.6790565,20.9306568 C26.5225775,22.9889298 27.6925579,25.6524133 27.8543192,28.5871258 L26.4953849,28.5871258 C26.1098073,28.5871258 25.7981379,28.8987952 25.7981379,29.2843727 C25.7981379,29.6699503 26.1098073,29.9816197 26.4953849,29.9816197 L27.8543192,29.9816197 C27.6925579,32.9163322 26.5225775,35.5798156 24.6790565,37.6380887 Z M15.3394333,13.9449394 C6.88113035,13.9449394 0,20.8260697 0,29.2843727 C0,37.7426757 6.88113035,44.6238061 15.3394333,44.6238061 C23.7977363,44.6238061 30.6788667,37.7426757 30.6788667,29.2843727 C30.6788667,20.8260697 23.7977363,13.9449394 15.3394333,13.9449394 L15.3394333,13.9449394 Z" id="Fill-94" fill="#546670"></path>
                            <polyline id="Fill-95" fill="#DF5142" points="19.7767131 27.8055119 16.3504414 28.2231628 16.843395 24.8226894 21.2311702 23.3431313 19.7767131 27.8055119"></polyline>
                            <path d="M18.7908058,32.735048 C20.6963818,30.8301693 20.6956846,27.737879 18.7908058,25.8336975 C16.8845326,23.926727 13.7943341,23.926727 11.8880608,25.8336975 L18.7908058,32.735048" id="Fill-96" fill="#ADBDC4"></path>
                            <path d="M11.8880608,25.8336975 C9.98248487,27.7385762 9.98318211,30.8308665 11.8880608,32.735048 C13.7943341,34.6420184 16.8845326,34.6420184 18.7908058,32.735048 L11.8880608,25.8336975" id="Fill-97" fill="#A0AEB3"></path>
                        </g>
                        <path d="M46.7436484,23.9589415 L36.6868438,23.9589415 C34.9044907,23.9589415 33.4542995,22.5087503 33.4542995,20.7263972 C33.4542995,19.3395171 34.3410044,18.1208264 35.6408966,17.6772962 C35.9122041,14.73465 38.3748462,12.4654506 41.3560745,12.4654506 C44.2615428,12.4654506 46.7041898,14.6555568 47.0537141,17.5085861 C48.6912061,17.6651957 49.9761927,19.0485666 49.9761927,20.7263972 C49.9761927,22.5087503 48.5260015,23.9589415 46.7436484,23.9589415 Z" id="Cloud" fill="#FFFFFF" fill-rule="nonzero" opacity="0.900000036"></path>
                    </g>
                </g>
                <g id="Azure-Border">
                    <path d="M50,0 C74.5263677,-4.50542066e-15 94.9281966,17.6592499 99.1842495,40.9565123 L94.2027317,73.3905473 C85.8096395,89.2186645 69.1638777,100 50,100 C30.9551233,100 14.3971863,89.3521454 5.95457608,73.6848234 L0.0261464987,48.3675131 C0.887696267,21.508872 22.932015,4.97230817e-15 50,0 Z" id="Combined-Shape" fill="url(#linearGradient-4)" fill-rule="evenodd" opacity="0.400000006" style="mix-blend-mode: overlay;"></path>
                    <g>
                        <use fill="black" fill-opacity="1" filter="url(#filter-6)" xlink:href="#path-5"></use>
                        <rect stroke="#F2F1F0" stroke-width="4" stroke-linejoin="square" x="-1" y="-1" width="102" height="102" rx="51"></rect>
                    </g>
                    <rect stroke="#0078D4" stroke-width="4" x="2" y="2" width="96" height="96" rx="48"></rect>
                </g>
            </g>
        </g>
    </g>
</svg>