<?xml version="1.0" encoding="UTF-8"?>
<svg width="100px" height="100px" viewBox="0 0 100 100" version="1.1" xmlns="http://www.w3.org/2000/svg" xmlns:xlink="http://www.w3.org/1999/xlink">
    <!-- Generator: Sketch 52.6 (67491) - http://www.bohemiancoding.com/sketch -->
    <title>M365 SFA Generalist/protect-your-enterprise-with-microsoft-365</title>
    <desc>Created with Sketch.</desc>
    <defs>
        <rect id="path-1" x="0" y="0" width="96" height="96" rx="48"></rect>
    </defs>
    <g id="Badges" stroke="none" stroke-width="1" fill="none" fill-rule="evenodd">
        <g id="M365-SFA-Generalist-1" transform="translate(-50.000000, -860.000000)">
            <g id="M365-SFA-Generalist/protect-your-enterprise-with-microsoft-365" transform="translate(50.000000, 860.000000)">
                <g id="Mask" transform="translate(2.000000, 2.000000)">
                    <mask id="mask-2" fill="white">
                        <use xlink:href="#path-1"></use>
                    </mask>
                    <use id="BG" fill="#55A2FF" xlink:href="#path-1"></use>
                    <g id="Group-6" mask="url(#mask-2)" fill="#FFFFFF">
                        <g transform="translate(16.000000, 14.400000)">
                            <path d="M48,56.172 C40.28128,56.172 34,49.89072 34,42.172 C34,41.06576 33.10624,40.172 32,40.172 C30.89376,40.172 30,41.06576 30,42.172 C30,52.0968 38.0752,60.172 48,60.172 C49.10624,60.172 50,59.27824 50,58.172 C50,57.06888 49.10624,56.172 48,56.172 Z" id="Fill-1"></path>
                            <path d="M32,16.172 C17.6624,16.172 6,27.8344 6,42.172 C6,43.27824 6.89376,44.172 8,44.172 C9.10624,44.172 10,43.27824 10,42.172 C10,30.0408 19.8688,20.172 32,20.172 C44.1312,20.172 54,30.0408 54,42.172 C54,45.48136 51.30936,48.172 48,48.172 C44.69064,48.172 42,45.48136 42,42.172 C42,36.6564 37.5156,32.172 32,32.172 C26.4844,32.172 22,36.6564 22,42.172 C22,45.68136 22.687504,49.0876 24.04376,52.2936 C25.35312,55.39048 27.22816,58.17176 29.6156,60.556 C32.00312,62.94352 34.78432,64.8184808 37.878,66.1278408 C38.131128,66.2340888 38.396752,66.2872168 38.656128,66.2872168 C39.434256,66.2872168 40.174848,65.8278408 40.499888,65.0653768 C40.931136,64.049776 40.453016,62.874736 39.437408,62.443536 C36.818688,61.337296 34.465568,59.749776 32.443648,57.727936 C30.421808,55.706096 28.834288,53.352896 27.728048,50.734176 C26.581168,48.021696 25.999888,45.143536 25.999888,42.171776 C25.999888,38.862416 28.690528,36.171776 31.999888,36.171776 C35.309248,36.171776 37.999888,38.862416 37.999888,42.171776 C37.999888,47.687376 42.484288,52.171776 47.999888,52.171776 C53.515488,52.171776 57.999888,47.687376 57.999888,42.171776 C57.999888,27.837376 46.337488,16.171776 31.999888,16.171776 L32,16.172 Z" id="Fill-2"></path>
                            <path d="M18,42.172 C18,34.45328 24.28128,28.172 32,28.172 C39.71872,28.172 46,34.45328 46,42.172 C46,43.27824 46.89376,44.172 48,44.172 C49.10624,44.172 50,43.27824 50,42.172 C50,32.2472 41.9248,24.172 32,24.172 C22.0752,24.172 14,32.2472 14,42.172 C14,51.2536 17.53752,59.7904 23.9592,66.2128008 C24.349824,66.6034248 24.86232,66.7971768 25.3748,66.7971768 C25.88728,66.7971768 26.39976,66.6034248 26.7904,66.2128008 C27.571648,65.4315528 27.571648,64.16592 26.7904,63.38464 C21.12168,57.71904 18,50.18464 18,42.17184 L18,42.172 Z" id="Fill-3"></path>
                            <path d="M63.328,28.9376 C61.61552,24.8876 59.16552,21.2532 56.0436,18.1312 C52.92176,15.00936 49.28736,12.55936 45.2372,10.84368 C41.04344,9.07184 36.59,8.17184 32.0028,8.17184 C27.4156,8.17184 22.962,9.07184 18.7684,10.84368 C14.7184,12.55616 11.084,15.00616 7.962,18.12808 C4.84,21.25 2.38696,24.88432 0.6776,28.93448 C0.246352,29.95008 0.72448,31.12512 1.74008,31.55632 C2.75568,31.987568 3.93072,31.509448 4.36192,30.49384 C5.87128,26.922 8.03696,23.71256 10.7932,20.95624 C13.54944,18.2 16.75568,16.03752 20.3308,14.52496 C24.02768,12.96248 27.95576,12.16872 32.0092,12.16872 C36.0592,12.16872 39.99048,12.962472 43.6876,14.52496 C47.25944,16.03744 50.46888,18.2 53.2252,20.95624 C55.98144,23.71248 58.14392,26.92184 59.65336,30.49384 C59.975232,31.256336 60.71584,31.71568 61.49712,31.71568 C61.756496,31.71568 62.02212,31.66568 62.275248,31.556304 C63.281488,31.128176 63.756528,29.956304 63.328368,28.937584 L63.328,28.9376 Z" id="Fill-4"></path>
                            <path d="M5.128,15.3032 C12.30616,8.12504 21.8464,4.1752 32,4.1752 C42.1504,4.1752 51.6936,8.12832 58.872,15.3032 C59.262624,15.693824 59.77512,15.887576 60.2876,15.887576 C60.80008,15.887576 61.31256,15.693824 61.7032,15.3032 C62.484448,14.521952 62.484448,13.25632 61.7032,12.47504 C53.76568,4.54064 43.2192,0.17184 32,0.17184 C20.7808,0.17184 10.2344,4.54056 2.3032,12.47504 C1.521952,13.256288 1.521952,14.52192 2.3032,15.3032 C3.081328,16.084448 4.35008,16.084448 5.12816,15.3032 L5.128,15.3032 Z" id="Fill-5"></path>
                        </g>
                    </g>
                </g>
                <g id="Azure-Border" stroke="#0078D4" stroke-width="4">
                    <rect x="2" y="2" width="96" height="96" rx="48"></rect>
                </g>
            </g>
        </g>
    </g>
</svg>