<svg width="100" height="100" viewBox="0 0 100 100" fill="none" xmlns="http://www.w3.org/2000/svg">
<g clip-path="url(#clip0_930_527)">
<path d="M49.6401 96.45C40.382 96.45 31.3317 93.7047 23.6339 88.5611C15.936 83.4176 9.93624 76.1068 6.3933 67.5534C2.85036 59 1.92337 49.5881 3.72954 40.5078C5.53571 31.4276 9.99394 23.0868 16.5404 16.5403C23.0869 9.99384 31.4277 5.53562 40.5079 3.72945C49.5882 1.92327 59.0001 2.85027 67.5535 6.39321C76.1069 9.93614 83.4176 15.9359 88.5612 23.6338C93.7047 31.3316 96.4501 40.3819 96.4501 49.64C96.4505 55.7873 95.24 61.8745 92.8878 67.5539C90.5355 73.2334 87.0875 78.3938 82.7407 82.7406C78.3939 87.0874 73.2335 90.5354 67.554 92.8877C61.8746 95.2399 55.7874 96.4504 49.6401 96.45V96.45Z" fill="url(#paint0_linear_930_527)"/>
<path fill-rule="evenodd" clip-rule="evenodd" d="M95.54 49.64C95.54 58.7182 92.848 67.5925 87.8045 75.1407C82.7609 82.6889 75.5923 88.572 67.2052 92.0461C58.818 95.5201 49.5891 96.4291 40.6854 94.658C31.7816 92.887 23.603 88.5154 17.1838 82.0962C10.7646 75.677 6.39302 67.4984 4.62196 58.5946C2.85089 49.6909 3.75987 40.462 7.23393 32.0748C10.708 23.6877 16.5911 16.5191 24.1393 11.4755C31.6875 6.43199 40.5618 3.74 49.64 3.74C55.6677 3.73998 61.6363 4.9272 67.2052 7.23388C72.774 9.54057 77.834 12.9215 82.0963 17.1837C86.3585 21.446 89.7394 26.5059 92.0461 32.0748C94.3528 37.6437 95.54 43.6123 95.54 49.64V49.64ZM49.64 3.62732e-07C59.4579 3.62732e-07 69.0553 2.91134 77.2185 8.36585C85.3818 13.8204 91.7442 21.5731 95.5014 30.6436C99.2585 39.7141 100.242 49.6951 98.3262 59.3243C96.4108 68.9535 91.6831 77.7985 84.7408 84.7408C77.7985 91.6831 68.9535 96.4108 59.3243 98.3262C49.6951 100.242 39.7141 99.2585 30.6436 95.5014C21.5731 91.7442 13.8204 85.3818 8.36585 77.2185C2.91134 69.0553 3.62732e-07 59.4579 3.62732e-07 49.64C-0.000787738 43.121 1.28265 36.6656 3.77702 30.6427C6.27138 24.6197 9.9278 19.1471 14.5375 14.5375C19.1471 9.9278 24.6197 6.27138 30.6427 3.77702C36.6656 1.28265 43.121 -0.000787738 49.64 3.62732e-07V3.62732e-07Z" fill="#F2F1F0"/>
<path fill-rule="evenodd" clip-rule="evenodd" d="M92.7296 49.6401C92.7296 58.1625 90.2024 66.4935 85.4676 73.5796C80.7328 80.6657 74.0031 86.1887 66.1294 89.4501C58.2557 92.7114 49.5918 93.5648 41.2331 91.9021C32.8745 90.2395 25.1966 86.1356 19.1703 80.1093C13.1441 74.0831 9.04017 66.4052 7.37753 58.0465C5.7149 49.6879 6.56822 41.0239 9.8296 33.1503C13.091 25.2766 18.6139 18.5469 25.7 13.8121C32.7862 9.07727 41.1172 6.55009 49.6396 6.55009C55.2983 6.54974 60.9017 7.66407 66.1298 9.82942C71.3579 11.9948 76.1082 15.1687 80.1096 19.1701C84.1109 23.1714 87.2849 27.9218 89.4502 33.1499C91.6156 38.3779 92.7299 43.9813 92.7296 49.6401V49.6401ZM49.6396 2.81009C58.9017 2.81009 67.9558 5.55662 75.6569 10.7024C83.3581 15.8481 89.3604 23.162 92.9049 31.719C96.4493 40.2761 97.3767 49.692 95.5697 58.7762C93.7628 67.8603 89.3027 76.2046 82.7534 82.7539C76.2041 89.3032 67.8598 93.7633 58.7757 95.5703C49.6915 97.3772 40.2756 96.4498 31.7185 92.9054C23.1614 89.3609 15.8476 83.3586 10.7018 75.6574C5.5561 67.9563 2.80957 58.9022 2.80957 49.6401C2.81076 37.2204 7.745 25.3097 16.5271 16.5276C25.3091 7.7455 37.2198 2.81125 49.6396 2.81006V2.81009Z" fill="#0078D4"/>
<path fill-rule="evenodd" clip-rule="evenodd" d="M92.7637 49.6401C92.7637 58.1625 90.2366 66.4935 85.5018 73.5796C80.767 80.6657 74.0372 86.1887 66.1636 89.4501C58.2899 92.7114 49.6259 93.5648 41.2673 91.9021C32.9087 90.2395 25.2308 86.1356 19.2045 80.1093C13.1783 74.0831 9.07435 66.4052 7.41171 58.0465C5.74908 49.6879 6.6024 41.0239 9.86378 33.1503C13.1252 25.2766 18.6481 18.5469 25.7342 13.8121C32.8203 9.07727 41.1514 6.55009 49.6738 6.55009C55.3325 6.54974 60.9359 7.66407 66.164 9.82942C71.3921 11.9948 76.1424 15.1687 80.1437 19.1701C84.1451 23.1714 87.3191 27.9218 89.4844 33.1499C91.6498 38.3779 92.7641 43.9813 92.7637 49.6401V49.6401ZM49.6738 2.81009C58.9359 2.81009 67.9899 5.55662 75.6911 10.7024C83.3923 15.8481 89.3946 23.162 92.939 31.719C96.4835 40.2761 97.4109 49.692 95.6039 58.7762C93.797 67.8603 89.3369 76.2046 82.7876 82.7539C76.2383 89.3032 67.894 93.7633 58.8098 95.5703C49.7257 97.3772 40.3097 96.4498 31.7527 92.9054C23.1956 89.3609 15.8818 83.3586 10.736 75.6574C5.59028 67.9563 2.84375 58.9022 2.84375 49.6401C2.84494 37.2204 7.77918 25.3097 16.5612 16.5276C25.3433 7.7455 37.254 2.81125 49.6738 2.81006V2.81009Z" fill="#0078D4"/>
<path d="M74.923 25.4803C63.277 25.4803 55.5076 23.0627 51.1636 18.0797C50.9678 17.872 50.7315 17.7066 50.4694 17.5935C50.2073 17.4804 49.9248 17.422 49.6394 17.422C49.3539 17.422 49.0714 17.4804 48.8093 17.5935C48.5472 17.7066 48.3109 17.872 48.1151 18.0797C43.7713 23.0627 36.0019 25.4803 24.3559 25.4803C24.0901 25.4802 23.8268 25.5325 23.5812 25.6341C23.3355 25.7358 23.1123 25.8849 22.9243 26.0729C22.7363 26.2609 22.5872 26.4841 22.4856 26.7298C22.3839 26.9755 22.3316 27.2387 22.3318 27.5046V43.691C22.3318 61.1887 30.2238 72.6297 48.7296 81.9318C49.0129 82.0707 49.324 82.1436 49.6395 82.1449C49.956 82.1447 50.2679 82.0688 50.5491 81.9237C69.0549 72.6216 76.9472 61.1887 76.9472 43.691V27.5046C76.9461 26.9681 76.7324 26.4539 76.3531 26.0745C75.9737 25.6951 75.4595 25.4815 74.923 25.4803V25.4803Z" fill="url(#paint1_linear_930_527)"/>
<path d="M49.6392 19.5065L49.6425 19.5069C54.4032 24.9202 62.6544 27.5561 74.8626 27.5648V43.691C74.8626 60.2818 67.3156 71.1576 49.6312 80.0521C31.9585 71.1592 24.4162 60.2826 24.4162 43.691V27.5648C36.6289 27.5561 44.8818 24.9181 49.6363 19.5065H49.6392L49.6392 19.5065ZM49.6545 80.0639L49.6741 80.0651L49.6656 80.0695L49.6545 80.0639V80.0639ZM49.6392 17.422C49.3531 17.4174 49.0692 17.4737 48.8064 17.5871C48.5437 17.7005 48.308 17.8684 48.115 18.0797C43.7712 23.0626 36.0018 25.4803 24.356 25.4803C24.0901 25.4802 23.8268 25.5324 23.5812 25.6341C23.3355 25.7358 23.1123 25.8849 22.9243 26.0729C22.7363 26.2609 22.5872 26.4841 22.4856 26.7298C22.3839 26.9754 22.3316 27.2387 22.3318 27.5046V43.691C22.3318 61.1887 30.2238 72.6297 48.7295 81.9318C49.0128 82.0707 49.3239 82.1436 49.6394 82.1449C49.9559 82.1447 50.2678 82.0689 50.5491 81.9237C69.0548 72.6216 76.9472 61.1887 76.9472 43.691V27.5046C76.946 26.9681 76.7324 26.4539 76.353 26.0745C75.9737 25.6951 75.4595 25.4815 74.923 25.4803C63.277 25.4803 55.5076 23.0626 51.1636 18.0797C50.9706 17.8684 50.7349 17.7004 50.4721 17.5871C50.2093 17.4737 49.9254 17.4174 49.6393 17.422L49.6392 17.422Z" fill="url(#paint2_linear_930_527)"/>
<path d="M39.4329 47.9584C39.4329 45.9052 40.0417 43.8981 41.1824 42.191C42.3231 40.4838 43.9443 39.1533 45.8412 38.3676C47.7381 37.5818 49.8254 37.3763 51.8391 37.7768C53.8528 38.1774 55.7025 39.1661 57.1543 40.6179C58.6061 42.0697 59.5948 43.9194 59.9954 45.9331C60.3959 47.9468 60.1904 50.0341 59.4047 51.931C58.6189 53.8279 57.2884 55.4492 55.5812 56.5898C53.8741 57.7305 51.867 58.3394 49.8139 58.3394C47.0616 58.3362 44.423 57.2415 42.4768 55.2954C40.5307 53.3492 39.436 50.7106 39.4329 47.9584V47.9584ZM42.6352 47.9584C42.6352 49.3782 43.0562 50.7661 43.845 51.9466C44.6338 53.1271 45.755 54.0472 47.0667 54.5906C48.3785 55.1339 49.8218 55.2761 51.2144 54.9991C52.6069 54.7221 53.886 54.0384 54.8899 53.0344C55.8939 52.0305 56.5776 50.7514 56.8546 49.3588C57.1316 47.9663 56.9894 46.5229 56.4461 45.2112C55.9027 43.8995 54.9826 42.7783 53.8021 41.9895C52.6216 41.2007 51.2337 40.7797 49.8139 40.7797C47.9107 40.782 46.0861 41.539 44.7403 42.8848C43.3945 44.2305 42.6375 46.0552 42.6352 47.9584V47.9584Z" fill="white"/>
<path d="M37.6717 61.7024C37.882 61.7028 38.0903 61.6615 38.2846 61.581C38.4789 61.5004 38.6553 61.3822 38.8036 61.2332L44.7376 55.2992C44.8863 55.1505 45.0042 54.9741 45.0847 54.7799C45.1651 54.5856 45.2065 54.3775 45.2065 54.1673C45.2065 53.957 45.1651 53.7489 45.0847 53.5546C45.0042 53.3604 44.8863 53.184 44.7376 53.0353C44.589 52.8867 44.4125 52.7687 44.2183 52.6883C44.0241 52.6078 43.8159 52.5664 43.6057 52.5664C43.3955 52.5664 43.1873 52.6078 42.9931 52.6883C42.7989 52.7687 42.6224 52.8867 42.4738 53.0353L36.5398 58.9693C36.3159 59.1932 36.1635 59.4785 36.1018 59.789C36.04 60.0996 36.0718 60.4214 36.1929 60.7139C36.314 61.0064 36.5192 61.2565 36.7824 61.4324C37.0456 61.6084 37.3551 61.7023 37.6717 61.7024V61.7024Z" fill="white"/>
<path opacity="0.2" d="M76.8299 47.2196C76.6025 47.1656 76.3697 47.1375 76.136 47.1358H54.7415C53.9128 47.137 53.1185 47.4667 52.5327 48.0528C51.9468 48.6388 51.6173 49.4332 51.6165 50.2618V77.2862C51.6187 77.9386 51.8253 78.5739 52.2073 79.1028C52.5893 79.6316 53.1275 80.0274 53.7461 80.2345C68.7776 71.8945 75.871 61.756 76.8299 47.2196Z" fill="#003067"/>
<path fill-rule="evenodd" clip-rule="evenodd" d="M53.616 77.2864V50.262C53.6168 49.9636 53.7356 49.6777 53.9466 49.4667C54.1576 49.2557 54.4436 49.1368 54.742 49.136H76.1363C76.4347 49.1368 76.7207 49.2557 76.9317 49.4667C77.1427 49.6777 77.2616 49.9636 77.2623 50.262V77.2864C77.2616 77.5848 77.1427 77.8707 76.9317 78.0817C76.7207 78.2927 76.4347 78.4116 76.1363 78.4124H54.742C54.4436 78.4116 54.1576 78.2927 53.9466 78.0817C53.7356 77.8707 53.6168 77.5848 53.616 77.2864V77.2864Z" fill="white"/>
<path fill-rule="evenodd" clip-rule="evenodd" d="M58.8692 75.2865C58.2753 75.2865 57.6948 75.1104 57.201 74.7805C56.7072 74.4506 56.3223 73.9816 56.095 73.4329C55.8678 72.8842 55.8083 72.2805 55.9242 71.698C56.04 71.1155 56.326 70.5805 56.7459 70.1606C57.1659 69.7406 57.7009 69.4546 58.2834 69.3388C58.8659 69.2229 59.4696 69.2824 60.0183 69.5096C60.567 69.7369 61.0359 70.1218 61.3659 70.6156C61.6958 71.1094 61.8719 71.6899 61.8719 72.2838C61.8719 73.0802 61.5555 73.8439 60.9924 74.407C60.4293 74.9702 59.6656 75.2865 58.8692 75.2865V75.2865Z" fill="#E8E8E8"/>
<path fill-rule="evenodd" clip-rule="evenodd" d="M58.8692 67.4044C58.2753 67.4044 57.6948 67.2283 57.201 66.8984C56.7072 66.5684 56.3223 66.0995 56.095 65.5508C55.8678 65.0021 55.8083 64.3984 55.9242 63.8159C56.04 63.2334 56.326 62.6984 56.7459 62.2784C57.1659 61.8585 57.7009 61.5725 58.2834 61.4567C58.8659 61.3408 59.4696 61.4003 60.0183 61.6275C60.567 61.8548 61.0359 62.2397 61.3659 62.7335C61.6958 63.2273 61.8719 63.8078 61.8719 64.4017C61.8719 65.1981 61.5555 65.9618 60.9924 66.5249C60.4293 67.088 59.6656 67.4044 58.8692 67.4044V67.4044Z" fill="#72C472"/>
<path fill-rule="evenodd" clip-rule="evenodd" d="M60.2485 63.5688C60.178 63.4984 60.0825 63.4588 59.9829 63.4588C59.8833 63.4588 59.7878 63.4984 59.7173 63.5688L58.4793 64.806L58.0321 64.3631C58.0216 64.3476 58.0098 64.333 57.9968 64.3196C57.9268 64.2496 57.832 64.2101 57.733 64.2097C57.634 64.2093 57.5389 64.248 57.4683 64.3174C57.3978 64.3868 57.3575 64.4813 57.3562 64.5802C57.355 64.6792 57.3929 64.7746 57.4617 64.8458L57.4572 64.8503L58.2148 65.601C58.2853 65.6714 58.3809 65.7109 58.4805 65.7109C58.5801 65.7109 58.6756 65.6714 58.7461 65.601L60.2473 64.1005L60.2485 64.0996C60.2833 64.0647 60.311 64.0234 60.3299 63.9778C60.3488 63.9323 60.3585 63.8835 60.3585 63.8342C60.3585 63.7849 60.3488 63.7361 60.3299 63.6905C60.311 63.645 60.2833 63.6036 60.2485 63.5688V63.5688Z" fill="white"/>
<path fill-rule="evenodd" clip-rule="evenodd" d="M58.8692 59.5223C58.2753 59.5223 57.6948 59.3462 57.201 59.0162C56.7072 58.6863 56.3223 58.2173 56.095 57.6687C55.8678 57.12 55.8083 56.5162 55.9242 55.9338C56.04 55.3513 56.326 54.8163 56.7459 54.3963C57.1659 53.9764 57.7009 53.6904 58.2834 53.5745C58.8659 53.4587 59.4696 53.5182 60.0183 53.7454C60.567 53.9727 61.0359 54.3576 61.3659 54.8514C61.6958 55.3452 61.8719 55.9257 61.8719 56.5196C61.8719 57.316 61.5555 58.0797 60.9924 58.6428C60.4293 59.2059 59.6656 59.5223 58.8692 59.5223V59.5223Z" fill="#72C472"/>
<path fill-rule="evenodd" clip-rule="evenodd" d="M60.2485 55.6867C60.178 55.6163 60.0825 55.5767 59.9829 55.5767C59.8833 55.5767 59.7878 55.6163 59.7173 55.6867L58.4793 56.9238L58.0321 56.4809C58.0216 56.4654 58.0098 56.4508 57.9968 56.4374C57.9268 56.3674 57.832 56.328 57.733 56.3275C57.634 56.3271 57.5389 56.3659 57.4683 56.4353C57.3978 56.5047 57.3575 56.5991 57.3562 56.6981C57.355 56.797 57.3929 56.8925 57.4617 56.9636L57.4572 56.9682L58.2148 57.7189C58.2853 57.7892 58.3809 57.8288 58.4805 57.8288C58.5801 57.8288 58.6756 57.7892 58.7461 57.7189L60.2473 56.2183L60.2485 56.2174C60.2833 56.1826 60.311 56.1412 60.3299 56.0957C60.3487 56.0502 60.3584 56.0013 60.3584 55.9521C60.3584 55.9028 60.3487 55.854 60.3299 55.8084C60.311 55.7629 60.2833 55.7215 60.2485 55.6867V55.6867Z" fill="white"/>
<path d="M65.4392 54.203H73.7299C74.0285 54.203 74.3149 54.3216 74.5261 54.5328C74.7372 54.744 74.8559 55.0304 74.8559 55.329V55.329C74.8559 55.6276 74.7372 55.914 74.5261 56.1252C74.3149 56.3364 74.0285 56.455 73.7299 56.455H65.4392C65.1406 56.455 64.8542 56.3364 64.643 56.1252C64.4319 55.914 64.3132 55.6276 64.3132 55.329V55.329C64.3132 55.0304 64.4319 54.744 64.643 54.5328C64.8542 54.3216 65.1406 54.203 65.4392 54.203V54.203Z" fill="#E8E8E8"/>
<path d="M65.4392 63.2112H72.6039C72.7517 63.2112 72.8981 63.2403 73.0348 63.2969C73.1714 63.3535 73.2955 63.4364 73.4001 63.541C73.5046 63.6455 73.5876 63.7697 73.6441 63.9063C73.7007 64.0429 73.7299 64.1893 73.7299 64.3372C73.7299 64.6358 73.6112 64.9222 73.4001 65.1334C73.1889 65.3446 72.9025 65.4632 72.6039 65.4632H65.4392C65.1406 65.4632 64.8542 65.3446 64.643 65.1334C64.4319 64.9222 64.3132 64.6358 64.3132 64.3372V64.3372C64.3132 64.1893 64.3424 64.0429 64.3989 63.9063C64.4555 63.7697 64.5385 63.6455 64.643 63.541C64.7476 63.4364 64.8717 63.3535 65.0083 63.2969C65.1449 63.2403 65.2914 63.2112 65.4392 63.2112V63.2112Z" fill="#E8E8E8"/>
<path d="M65.4392 58.7071H73.7299C74.0285 58.7071 74.3149 58.8257 74.5261 59.0369C74.7372 59.2481 74.8559 59.5345 74.8559 59.8331V59.8331C74.8559 60.1317 74.7372 60.4181 74.5261 60.6293C74.3149 60.8405 74.0285 60.9591 73.7299 60.9591H65.4392C65.1406 60.9591 64.8542 60.8405 64.643 60.6293C64.4319 60.4181 64.3132 60.1317 64.3132 59.8331V59.8331C64.3132 59.5345 64.4319 59.2481 64.643 59.0369C64.8542 58.8257 65.1406 58.7071 65.4392 58.7071V58.7071Z" fill="#E8E8E8"/>
<path d="M65.4392 67.7152H73.7299C74.0285 67.7152 74.3149 67.8339 74.5261 68.0451C74.7372 68.2562 74.8559 68.5426 74.8559 68.8412C74.8559 69.1399 74.7372 69.4263 74.5261 69.6375C74.3149 69.8486 74.0285 69.9672 73.7299 69.9672H65.4392C65.1406 69.9672 64.8542 69.8486 64.643 69.6375C64.4319 69.4263 64.3132 69.1399 64.3132 68.8412V68.8412C64.3132 68.5426 64.4319 68.2562 64.643 68.0451C64.8542 67.8339 65.1406 67.7152 65.4392 67.7152V67.7152Z" fill="#E8E8E8"/>
<path d="M65.4392 72.2193H70.9148C71.0627 72.2193 71.2091 72.2484 71.3457 72.305C71.4823 72.3616 71.6065 72.4446 71.711 72.5491C71.8156 72.6537 71.8985 72.7778 71.9551 72.9144C72.0117 73.051 72.0408 73.1975 72.0408 73.3453V73.3453C72.0408 73.4932 72.0117 73.6396 71.9551 73.7762C71.8985 73.9128 71.8156 74.037 71.711 74.1415C71.6065 74.2461 71.4823 74.329 71.3457 74.3856C71.2091 74.4422 71.0627 74.4713 70.9148 74.4713H65.4392C65.1406 74.4713 64.8542 74.3527 64.643 74.1415C64.4319 73.9304 64.3132 73.644 64.3132 73.3453V73.3453C64.3132 73.0467 64.4319 72.7603 64.643 72.5491C64.8542 72.338 65.1406 72.2193 65.4392 72.2193V72.2193Z" fill="#E8E8E8"/>
</g>
<defs>
<linearGradient id="paint0_linear_930_527" x1="47.8697" y1="-15.1531" x2="51.8525" y2="130.615" gradientUnits="userSpaceOnUse">
<stop stop-color="#00ABDE"/>
<stop offset="1" stop-color="#007ED8"/>
</linearGradient>
<linearGradient id="paint1_linear_930_527" x1="49.6395" y1="82.145" x2="49.6395" y2="17.422" gradientUnits="userSpaceOnUse">
<stop stop-color="#008BF1"/>
<stop offset="0.99498" stop-color="#0078D4"/>
</linearGradient>
<linearGradient id="paint2_linear_930_527" x1="49.6394" y1="17.422" x2="49.6394" y2="82.1449" gradientUnits="userSpaceOnUse">
<stop stop-color="#008BF1"/>
<stop offset="0.22" stop-color="#0086EC"/>
<stop offset="0.49" stop-color="#0078DD"/>
<stop offset="0.79" stop-color="#0061C4"/>
<stop offset="1" stop-color="#004DAE"/>
</linearGradient>
<clipPath id="clip0_930_527">
<rect width="99.2799" height="99.28" fill="white"/>
</clipPath>
</defs>
</svg>
