<svg width="103" height="103" viewBox="0 0 103 103" fill="none" xmlns="http://www.w3.org/2000/svg">
<path d="M51.6845 98.7865C25.8345 98.7865 4.87451 77.8365 4.87451 51.9765C4.87451 26.1165 25.8345 5.1665 51.6845 5.1665C77.5345 5.1665 98.4945 26.1265 98.4945 51.9765C98.4945 77.8265 77.5345 98.7865 51.6845 98.7865Z" fill="url(#paint0_linear)"/>
<path fill-rule="evenodd" clip-rule="evenodd" d="M51.6846 1.97656C79.2946 1.97656 101.685 24.3666 101.685 51.9766C101.685 79.5866 79.2946 101.977 51.6846 101.977C24.0746 101.977 1.68457 79.5866 1.68457 51.9766C1.68457 24.3666 24.0746 1.97656 51.6846 1.97656ZM51.6846 97.7366C76.9546 97.7366 97.4446 77.2466 97.4446 51.9766C97.4446 26.7066 76.9546 6.21656 51.6846 6.21656C26.4146 6.21656 5.92457 26.7066 5.92457 51.9766C5.92457 77.2466 26.4146 97.7366 51.6846 97.7366Z" fill="#D9D9D9"/>
<path fill-rule="evenodd" clip-rule="evenodd" d="M97.5847 51.9764C97.5847 77.3264 77.0347 97.8764 51.6847 97.8764C26.3347 97.8764 5.78468 77.3264 5.78468 51.9764C5.78468 26.6264 26.3347 6.07643 51.6847 6.07643C77.0347 6.07643 97.5847 26.6264 97.5847 51.9764ZM51.6847 2.33643C79.1047 2.33643 101.325 24.5564 101.325 51.9764C101.325 79.3964 79.0947 101.616 51.6847 101.616C24.2647 101.616 2.04468 79.3864 2.04468 51.9764C2.04468 24.5564 24.2647 2.33643 51.6847 2.33643Z" fill="#F2F1F0"/>
<path fill-rule="evenodd" clip-rule="evenodd" d="M51.6845 95.0665C27.8845 95.0665 8.59449 75.7765 8.59449 51.9765C8.59449 28.1765 27.8845 8.88648 51.6845 8.88648C75.4845 8.88648 94.7745 28.1765 94.7745 51.9765C94.7745 75.7765 75.4845 95.0665 51.6845 95.0665ZM98.5145 51.9765C98.5145 77.8365 77.5445 98.8065 51.6845 98.8065C25.8245 98.8065 4.85449 77.8365 4.85449 51.9765C4.85449 26.1165 25.8245 5.14648 51.6845 5.14648C77.5445 5.14648 98.5145 26.1065 98.5145 51.9765Z" fill="url(#paint1_linear)"/>
<path d="M89.6046 47.0268C89.6046 46.2068 88.9346 45.5468 88.1246 45.5468C87.5946 45.5468 84.2646 45.2568 82.4846 43.8668C81.8046 41.4068 80.8246 39.1068 79.6046 36.9368C79.2946 34.8668 81.4246 33.3668 82.4046 31.7568C82.5746 31.4768 82.6746 31.3168 82.7346 31.2068C82.9146 30.6868 82.8146 30.0768 82.4046 29.6668C82.4046 29.6668 80.7646 27.3168 79.0746 25.6468C77.3846 23.9768 74.8446 22.1068 74.8446 22.1068C74.2746 21.5368 73.3246 21.5368 72.7446 22.1068C72.3646 22.4768 69.8346 24.5668 67.5546 24.8968C67.5246 24.8968 67.5246 24.8968 67.5246 24.8968C65.4046 23.6968 63.0346 22.7068 60.6446 22.0368H60.6146C58.9346 20.7968 59.3746 18.2268 58.9346 16.3968C58.9346 15.5768 58.2646 14.9168 57.4546 14.9168C57.4546 14.9168 54.6346 14.4268 52.2546 14.4268C49.8746 14.4268 46.7646 14.9168 46.7646 14.9168C45.9446 14.9168 45.2846 15.5868 45.2846 16.3968C45.2846 16.9268 44.9946 20.2568 43.6046 22.0368C41.2446 22.7068 38.7646 23.7468 36.6746 24.9168C34.6046 25.2268 33.1046 23.0968 31.4946 22.1168C31.2146 21.9468 31.0546 21.8468 30.9446 21.7868C30.4246 21.6068 29.8146 21.7068 29.4046 22.1168C29.4046 22.1168 27.0546 23.7568 25.3846 25.4468C23.7146 27.1268 21.8446 29.6768 21.8446 29.6768C21.2746 30.2468 21.2746 31.1968 21.8446 31.7768C22.2146 32.1468 24.3646 34.7168 24.6446 36.9568V36.9768C23.4746 39.0768 22.4446 41.5468 21.7846 43.8968C21.7846 43.8968 21.7946 43.8868 21.7946 43.8768C21.7946 43.8868 21.7846 43.8968 21.7846 43.8968C20.3446 45.6468 17.9746 45.1368 16.1446 45.5768C15.3246 45.5768 14.6646 46.2468 14.6646 47.0568C14.6646 47.0568 14.1746 49.8768 14.1746 52.2568C14.1746 54.6368 14.6646 57.7468 14.6646 57.7468C14.6646 58.5668 15.3346 59.2268 16.1446 59.2268C16.6746 59.2268 20.0046 59.5168 21.7846 60.9068C21.8246 60.8868 21.8046 60.9368 21.8046 60.9368C22.4946 63.3068 23.4646 65.6768 24.6546 67.7668C24.6346 67.7968 24.6546 67.7668 24.6646 67.8368C24.8646 69.9968 22.8446 71.4068 21.8646 73.0168C21.6946 73.2968 21.5946 73.4568 21.5346 73.5668C21.3546 74.0868 21.4546 74.6968 21.8646 75.1068C21.8646 75.1068 23.5046 77.4568 25.1946 79.1268C26.8746 80.8068 29.4246 82.6668 29.4246 82.6668C29.9946 83.2368 30.9446 83.2368 31.5246 82.6668C31.8946 82.2968 34.4646 80.1468 36.7046 79.8668C36.7046 79.8668 36.6946 79.8768 36.7346 79.8868C38.8946 81.0868 41.1146 82.0368 43.5546 82.6968C43.5746 82.7068 43.6446 82.7268 43.6446 82.7268C45.3246 83.9668 44.8846 86.5368 45.3246 88.3668C45.4146 89.1968 45.8646 89.7168 46.8046 89.8468C46.8046 89.8468 49.6246 90.3368 52.0046 90.3368C54.3846 90.3368 57.4946 89.8568 57.4946 89.8568C58.3146 89.7168 58.9746 89.1868 58.9746 88.3768C58.9746 87.8468 59.2646 84.5168 60.6546 82.7368C60.6546 82.7368 60.7146 82.6868 60.7746 82.6368C63.2546 81.9368 65.1346 81.1768 67.3246 79.9168C67.4346 79.8768 67.3146 79.8868 67.5746 79.8468C69.6446 79.5368 71.1446 81.6668 72.7546 82.6468C73.0346 82.8168 73.1946 82.9168 73.3046 82.9768C73.8246 83.1568 74.4346 83.0568 74.8446 82.6468C74.8446 82.6468 77.1946 81.0068 78.8646 79.3168C80.5446 77.6368 82.4046 75.0868 82.4046 75.0868C82.9746 74.5168 82.9746 73.5668 82.4046 72.9868C82.0346 72.6168 79.8846 70.0468 79.6046 67.8068C79.5746 67.5768 79.5946 67.5468 79.6246 67.4868C80.8746 65.2768 81.6646 63.6668 82.3446 61.1668C82.3446 61.1668 82.3146 61.0868 82.4746 60.8768C83.7146 59.1968 86.2846 59.6368 88.1146 59.1968C88.9346 59.1968 89.5946 58.5268 89.5946 57.7168C89.5946 57.7168 90.0846 54.8968 90.0846 52.5168C90.0846 50.1368 89.6046 47.0268 89.6046 47.0268Z" fill="#F2F1F0"/>
<path d="M66.2947 40.4966H71.4147C71.8947 40.4966 72.2947 40.8866 72.2947 41.3766V46.0466C72.2947 47.8266 70.8547 49.2666 69.0747 49.2666H69.0547C67.2747 49.2666 65.8347 47.8266 65.8347 46.0466V40.9666C65.8347 40.6966 66.0347 40.4966 66.2947 40.4966Z" fill="#5059C9"/>
<path d="M69.7546 39.5662C70.9046 39.5662 71.8346 38.6362 71.8346 37.4862C71.8346 36.3362 70.9046 35.4062 69.7546 35.4062C68.6046 35.4062 67.6746 36.3362 67.6746 37.4862C67.6746 38.6362 68.6046 39.5662 69.7546 39.5662Z" fill="#5059C9"/>
<path d="M63.2947 39.5664C64.9547 39.5664 66.2947 38.2264 66.2947 36.5664C66.2947 34.9064 64.9547 33.5664 63.2947 33.5664C61.6347 33.5664 60.2947 34.9064 60.2947 36.5664C60.3047 38.2264 61.6447 39.5664 63.2947 39.5664Z" fill="#7B83EB"/>
<path d="M67.2947 40.4966H58.8347C58.3547 40.5066 57.9747 40.9066 57.9847 41.3866V46.7066C57.9147 49.5766 60.1847 51.9566 63.0547 52.0266C65.9247 51.9566 68.1947 49.5766 68.1247 46.7066V41.3766C68.1547 40.8966 67.7747 40.5066 67.2947 40.4966Z" fill="#7B83EB"/>
<path opacity="0.1" d="M63.5246 40.4963V47.9563C63.5246 48.2963 63.3146 48.6063 62.9946 48.7363C62.8946 48.7763 62.7846 48.7963 62.6746 48.7963H58.3946C58.3346 48.6463 58.2746 48.4963 58.2346 48.3363C58.0746 47.8063 57.9946 47.2563 57.9946 46.7063V41.3763C57.9846 40.8963 58.3646 40.5063 58.8346 40.4863H63.5246V40.4963Z" fill="black"/>
<path opacity="0.2" d="M63.0646 40.4963V48.4163C63.0646 48.5263 63.0446 48.6363 63.0046 48.7363C62.8746 49.0563 62.5646 49.2563 62.2246 49.2663H58.6146C58.5346 49.1163 58.4646 48.9663 58.3946 48.8063C58.3346 48.6463 58.2746 48.5063 58.2346 48.3463C58.0746 47.8163 57.9946 47.2663 57.9946 46.7163V41.3763C57.9846 40.8963 58.3646 40.5063 58.8346 40.4863H63.0646V40.4963Z" fill="black"/>
<path opacity="0.2" d="M63.0646 40.4963V47.4963C63.0646 47.9563 62.6846 48.3363 62.2246 48.3363H58.2446C58.0846 47.8063 58.0046 47.2563 58.0046 46.7063V41.3763C57.9946 40.8963 58.3746 40.5063 58.8446 40.4863H63.0646V40.4963Z" fill="black"/>
<path opacity="0.2" d="M62.6046 40.4963V47.4963C62.6046 47.9563 62.2246 48.3363 61.7646 48.3363H58.2446C58.0846 47.8063 58.0046 47.2563 58.0046 46.7063V41.3763C57.9946 40.8963 58.3746 40.5063 58.8446 40.4863H62.6046V40.4963Z" fill="black"/>
<path opacity="0.1" d="M63.5245 38.1066V39.5566C63.4445 39.5566 63.3745 39.5666 63.2945 39.5666C63.2145 39.5666 63.1445 39.5666 63.0645 39.5566C62.9045 39.5466 62.7545 39.5166 62.6045 39.4866C61.6745 39.2666 60.8945 38.6066 60.5245 37.7266C60.4645 37.5766 60.4145 37.4266 60.3745 37.2666H62.6845C63.1445 37.2666 63.5245 37.6466 63.5245 38.1066Z" fill="black"/>
<path opacity="0.2" d="M63.0647 38.5666V39.5566C62.9047 39.5466 62.7547 39.5166 62.6047 39.4866C61.6747 39.2666 60.8947 38.6066 60.5247 37.7266H62.2147C62.6847 37.7266 63.0647 38.1066 63.0647 38.5666Z" fill="black"/>
<path opacity="0.2" d="M63.0647 38.5666V39.5566C62.9047 39.5466 62.7547 39.5166 62.6047 39.4866C61.6747 39.2666 60.8947 38.6066 60.5247 37.7266H62.2147C62.6847 37.7266 63.0647 38.1066 63.0647 38.5666Z" fill="black"/>
<path opacity="0.2" d="M62.6047 38.5666V39.4866C61.6747 39.2666 60.8947 38.6066 60.5247 37.7266H61.7547C62.2247 37.7266 62.6047 38.1066 62.6047 38.5666Z" fill="black"/>
<path d="M53.3346 37.7163H61.7946C62.2646 37.7163 62.6446 38.0963 62.6446 38.5663V47.0263C62.6446 47.4963 62.2646 47.8763 61.7946 47.8763H53.3346C52.8646 47.8763 52.4846 47.4963 52.4846 47.0263V38.5663C52.4846 38.0963 52.8646 37.7163 53.3346 37.7163Z" fill="url(#paint2_linear)"/>
<path d="M59.7547 40.9466H58.0647V45.5466H56.9847V40.9466H55.3047V40.0566H59.7547V40.9466V40.9466Z" fill="white"/>
<path d="M32.5945 41.9765C32.5945 38.2165 35.6445 35.1665 39.4045 35.1665C43.1645 35.1665 46.2145 38.2165 46.2145 41.9765V51.8065C46.2145 55.5665 43.1645 58.6165 39.4045 58.6165C35.6445 58.6165 32.5945 55.5665 32.5945 51.8065V41.9765Z" fill="url(#paint3_linear)"/>
<path fill-rule="evenodd" clip-rule="evenodd" d="M39.6846 62.1465C40.4246 62.1465 41.0246 62.7465 41.0246 63.4865V65.2665C41.0246 66.0065 40.4246 66.6065 39.6846 66.6065C38.9446 66.6065 38.3446 66.0065 38.3446 65.2665V63.4865C38.3346 62.7465 38.9346 62.1465 39.6846 62.1465Z" fill="url(#paint4_linear)"/>
<path fill-rule="evenodd" clip-rule="evenodd" d="M33.4646 65.6567C33.4646 64.9267 34.0646 64.3267 34.8046 64.3267H44.8246C45.5646 64.3267 46.1646 64.9167 46.1646 65.6567C46.1646 66.3867 45.5646 66.9867 44.8246 66.9867H34.8046C34.0646 66.9867 33.4646 66.3867 33.4646 65.6567Z" fill="url(#paint5_linear)"/>
<path fill-rule="evenodd" clip-rule="evenodd" d="M29.3246 48.3965C30.0646 48.3965 30.6646 48.9865 30.6646 49.7265V51.7365C30.6646 56.4865 34.5546 60.3365 39.3646 60.3365C44.1646 60.3365 48.0646 56.4865 48.0646 51.7365V49.7265C48.0646 48.9965 48.6646 48.3965 49.4046 48.3965C50.1446 48.3965 50.7446 48.9865 50.7446 49.7265V51.7365C50.7446 57.9565 45.6446 62.9865 39.3546 62.9865C33.0646 62.9865 27.9646 57.9465 27.9646 51.7365V49.7265C27.9746 48.9865 28.5746 48.3965 29.3246 48.3965Z" fill="url(#paint6_linear)"/>
<path d="M64.3547 70.5864C68.5147 70.5864 71.8847 67.2164 71.8847 63.0564C71.8847 58.8964 68.5147 55.5264 64.3547 55.5264C60.1947 55.5264 56.8247 58.8964 56.8247 63.0564C56.8347 67.2164 60.2047 70.5864 64.3547 70.5864Z" fill="#002D4C"/>
<path d="M68.4548 59.2363L62.2548 65.4663L60.3948 63.5963L59.1548 64.8463L62.2548 67.9563L69.7048 60.4863L68.4548 59.2363Z" fill="#FAF9F8"/>
<defs>
<linearGradient id="paint0_linear" x1="36.6271" y1="1.5375" x2="66.8634" y2="102.829" gradientUnits="userSpaceOnUse">
<stop stop-color="#C1C7FF"/>
<stop offset="1" stop-color="#9DA4FF"/>
</linearGradient>
<linearGradient id="paint1_linear" x1="51.6846" y1="5.14638" x2="51.6846" y2="98.8065" gradientUnits="userSpaceOnUse">
<stop stop-color="#5A62C3"/>
<stop offset="0.5" stop-color="#4D55BD"/>
<stop offset="1" stop-color="#3940AB"/>
</linearGradient>
<linearGradient id="paint2_linear" x1="54.2487" y1="37.0552" x2="60.8697" y2="48.5222" gradientUnits="userSpaceOnUse">
<stop stop-color="#5A62C3"/>
<stop offset="0.5" stop-color="#4D55BD"/>
<stop offset="1" stop-color="#3940AB"/>
</linearGradient>
<linearGradient id="paint3_linear" x1="35.6596" y1="31.1629" x2="44.1476" y2="66.8123" gradientUnits="userSpaceOnUse">
<stop stop-color="#5A62C3"/>
<stop offset="0.5" stop-color="#4D55BD"/>
<stop offset="1" stop-color="#3940AB"/>
</linearGradient>
<linearGradient id="paint4_linear" x1="31.9813" y1="32.0387" x2="40.4693" y2="67.6882" gradientUnits="userSpaceOnUse">
<stop stop-color="#5A62C3"/>
<stop offset="0.5" stop-color="#4D55BD"/>
<stop offset="1" stop-color="#3940AB"/>
</linearGradient>
<linearGradient id="paint5_linear" x1="31.8181" y1="32.0776" x2="40.3061" y2="67.7272" gradientUnits="userSpaceOnUse">
<stop stop-color="#5A62C3"/>
<stop offset="0.5" stop-color="#4D55BD"/>
<stop offset="1" stop-color="#3940AB"/>
</linearGradient>
<linearGradient id="paint6_linear" x1="34.6249" y1="31.4093" x2="43.1128" y2="67.0587" gradientUnits="userSpaceOnUse">
<stop stop-color="#5A62C3"/>
<stop offset="0.5" stop-color="#4D55BD"/>
<stop offset="1" stop-color="#3940AB"/>
</linearGradient>
</defs>
</svg>
