<svg width="100" height="100" viewBox="0 0 100 100" fill="none" xmlns="http://www.w3.org/2000/svg">
<g clip-path="url(#clip0)">
<path d="M49.6401 96.4481C40.382 96.4481 31.3317 93.7028 23.6339 88.5592C15.936 83.4157 9.93624 76.105 6.3933 67.5516C2.85036 58.9981 1.92337 49.5862 3.72954 40.506C5.53571 31.4257 9.99394 23.085 16.5404 16.5385C23.0869 9.99198 31.4277 5.53376 40.5079 3.72759C49.5882 1.92141 59.0001 2.84841 67.5535 6.39135C76.1069 9.93428 83.4176 15.934 88.5612 23.6319C93.7047 31.3298 96.4501 40.38 96.4501 49.6381C96.4505 55.7854 95.24 61.8726 92.8878 67.5521C90.5355 73.2315 87.0875 78.392 82.7407 82.7388C78.3939 87.0856 73.2335 90.5335 67.554 92.8858C61.8746 95.2381 55.7874 96.4486 49.6401 96.4481V96.4481Z" fill="url(#paint0_linear)"/>
<path fill-rule="evenodd" clip-rule="evenodd" d="M95.54 49.64C95.54 58.7182 92.848 67.5925 87.8045 75.1407C82.7609 82.6889 75.5923 88.572 67.2052 92.0461C58.818 95.5201 49.5891 96.4291 40.6854 94.658C31.7816 92.887 23.603 88.5154 17.1838 82.0962C10.7646 75.677 6.39302 67.4984 4.62196 58.5946C2.85089 49.6909 3.75987 40.462 7.23393 32.0748C10.708 23.6877 16.5911 16.5191 24.1393 11.4755C31.6875 6.43199 40.5618 3.74 49.64 3.74C55.6677 3.73998 61.6363 4.9272 67.2052 7.23388C72.774 9.54057 77.834 12.9215 82.0963 17.1837C86.3585 21.446 89.7394 26.5059 92.0461 32.0748C94.3528 37.6437 95.54 43.6123 95.54 49.64V49.64ZM49.64 3.62732e-07C59.4579 3.62732e-07 69.0553 2.91134 77.2185 8.36585C85.3818 13.8204 91.7442 21.5731 95.5014 30.6436C99.2585 39.7141 100.242 49.6951 98.3262 59.3243C96.4108 68.9535 91.6831 77.7985 84.7408 84.7408C77.7985 91.6831 68.9535 96.4108 59.3243 98.3262C49.6951 100.242 39.7141 99.2585 30.6436 95.5014C21.5731 91.7442 13.8204 85.3818 8.36585 77.2185C2.91134 69.0553 3.62732e-07 59.4579 3.62732e-07 49.64C-0.000787738 43.121 1.28265 36.6656 3.77702 30.6427C6.27138 24.6197 9.9278 19.1471 14.5375 14.5375C19.1471 9.9278 24.6197 6.27138 30.6427 3.77702C36.6656 1.28265 43.121 -0.000787738 49.64 3.62732e-07V3.62732e-07Z" fill="#F2F1F0"/>
<path fill-rule="evenodd" clip-rule="evenodd" d="M92.7296 49.6386C92.7296 58.161 90.2024 66.492 85.4676 73.5781C80.7328 80.6643 74.0031 86.1872 66.1294 89.4486C58.2557 92.71 49.5918 93.5633 41.2331 91.9007C32.8745 90.238 25.1966 86.1341 19.1703 80.1079C13.1441 74.0816 9.04017 66.4037 7.37753 58.0451C5.7149 49.6864 6.56822 41.0225 9.8296 33.1488C13.091 25.2751 18.6139 18.5454 25.7 13.8106C32.7862 9.07581 41.1172 6.54862 49.6396 6.54862C55.2983 6.54828 60.9017 7.6626 66.1298 9.82795C71.3579 11.9933 76.1082 15.1673 80.1096 19.1686C84.1109 23.17 87.2849 27.9203 89.4502 33.1484C91.6156 38.3765 92.7299 43.9799 92.7296 49.6386V49.6386ZM49.6396 2.80862C58.9017 2.80862 67.9558 5.55515 75.6569 10.7009C83.3581 15.8466 89.3604 23.1605 92.9049 31.7176C96.4493 40.2746 97.3767 49.6906 95.5697 58.7747C93.7628 67.8588 89.3027 76.2031 82.7534 82.7524C76.2041 89.3017 67.8598 93.7619 58.7757 95.5688C49.6915 97.3757 40.2756 96.4484 31.7185 92.9039C23.1614 89.3594 15.8476 83.3571 10.7018 75.656C5.5561 67.9548 2.80957 58.9007 2.80957 49.6386C2.81076 37.2189 7.745 25.3082 16.5271 16.5261C25.3091 7.74403 37.2198 2.80979 49.6396 2.80859V2.80862Z" fill="#0078D4"/>
<path fill-rule="evenodd" clip-rule="evenodd" d="M31.0786 41.8594C30.1867 41.862 29.332 42.2175 28.7012 42.8482C28.0705 43.4789 27.715 44.3336 27.7124 45.2256V68.7891H71.4732V45.2256C71.4706 44.3336 71.1151 43.4789 70.4843 42.8482C69.8536 42.2175 68.9989 41.862 68.1069 41.8594H31.0786ZM68.1069 43.5425C68.5532 43.5431 68.9809 43.7206 69.2964 44.0361C69.6119 44.3516 69.7895 44.7794 69.7901 45.2256V67.106H29.3955V45.2256C29.396 44.7793 29.5734 44.3515 29.889 44.0359C30.2045 43.7204 30.6324 43.5429 31.0786 43.5425H68.1069Z" fill="#1F56A3"/>
<path fill-rule="evenodd" clip-rule="evenodd" d="M29.3955 45.2261C29.396 44.7798 29.5734 44.352 29.889 44.0364C30.2045 43.7209 30.6324 43.5434 31.0786 43.543H68.107C68.5532 43.5436 68.9809 43.7211 69.2964 44.0366C69.612 44.3521 69.7895 44.7799 69.7901 45.2261V67.1065H29.3955V45.2261Z" fill="#0078D4"/>
<path d="M67.7896 45.543H31.395V65.1064H67.7896V45.543Z" fill="#1B93EB"/>
<path fill-rule="evenodd" clip-rule="evenodd" d="M22.6631 68.7891V69.6306C22.6657 70.5226 23.0212 71.3773 23.6519 72.008C24.2826 72.6387 25.1373 72.9942 26.0293 72.9968H73.1563C74.0483 72.9942 74.903 72.6387 75.5337 72.008C76.1644 71.3773 76.5199 70.5226 76.5225 69.6306V68.7891H22.6631Z" fill="#0078D4"/>
<path fill-rule="evenodd" clip-rule="evenodd" d="M47.909 71.3137H23.1328C23.4262 71.823 23.848 72.2464 24.3561 72.5417C24.8642 72.837 25.4409 72.994 26.0286 72.9968H73.1556C74.0476 72.9942 74.9023 72.6387 75.533 72.008C76.1637 71.3773 76.5192 70.5226 76.5218 69.6306V68.7891H49.5921V69.6306C49.5922 69.8517 49.5487 70.0705 49.4641 70.2748C49.3796 70.479 49.2556 70.6646 49.0993 70.8209C48.943 70.9772 48.7574 71.1012 48.5532 71.1857C48.3489 71.2703 48.13 71.3138 47.909 71.3137V71.3137Z" fill="#1F56A3"/>
<path fill-rule="evenodd" clip-rule="evenodd" d="M46.2266 70.4722H52.959C53.4053 70.472 53.8333 70.2946 54.1489 69.979C54.4645 69.6634 54.6419 69.2354 54.6421 68.7891H44.5435C44.5435 69.2354 44.7208 69.6635 45.0364 69.9792C45.3521 70.2948 45.7802 70.4721 46.2266 70.4722V70.4722Z" fill="#003067"/>
<path fill-rule="evenodd" clip-rule="evenodd" d="M50.7666 58.2921V61.5755C50.7666 61.8745 50.6478 62.1611 50.4364 62.3725C50.2251 62.5839 49.9384 62.7026 49.6395 62.7026C49.3405 62.7026 49.0538 62.5839 48.8425 62.3725C48.6311 62.1611 48.5123 61.8745 48.5123 61.5755V58.2919C47.4221 58.0169 46.4698 57.353 45.8348 56.425C45.1999 55.4971 44.9259 54.369 45.0645 53.2532C45.203 52.1373 45.7446 51.1106 46.5873 50.3661C47.43 49.6217 48.5157 49.2109 49.6401 49.2109C50.7645 49.211 51.8502 49.622 52.6927 50.3666C53.5353 51.1112 54.0767 52.138 54.2152 53.2538C54.3536 54.3697 54.0794 55.4977 53.4443 56.4256C52.8092 57.3534 51.8569 58.0172 50.7666 58.292V58.2921Z" fill="#1F56A3"/>
<path d="M36.521 60.6224L43.793 56.2044L51.894 59.4264L62.663 50.7734" stroke="white" stroke-width="0.89132" stroke-linecap="round" stroke-linejoin="round"/>
<path d="M62.6631 52.4141C63.5703 52.4141 64.3057 51.6787 64.3057 50.7715C64.3057 49.8643 63.5703 49.1289 62.6631 49.1289C61.7559 49.1289 61.0205 49.8643 61.0205 50.7715C61.0205 51.6787 61.7559 52.4141 62.6631 52.4141Z" fill="#0078D4" stroke="white" stroke-width="0.89132" stroke-linecap="round" stroke-linejoin="round"/>
<path d="M36.521 62.2657C37.4282 62.2657 38.1636 61.5303 38.1636 60.6231C38.1636 59.7159 37.4282 58.9805 36.521 58.9805C35.6138 58.9805 34.8784 59.7159 34.8784 60.6231C34.8784 61.5303 35.6138 62.2657 36.521 62.2657Z" fill="#0078D4" stroke="white" stroke-width="0.89132" stroke-linecap="round" stroke-linejoin="round"/>
<path d="M43.7979 57.9805C44.7051 57.9805 45.4405 57.2451 45.4405 56.3379C45.4405 55.4307 44.7051 54.6953 43.7979 54.6953C42.8907 54.6953 42.1553 55.4307 42.1553 56.3379C42.1553 57.2451 42.8907 57.9805 43.7979 57.9805Z" fill="#0078D4" stroke="white" stroke-width="0.89132" stroke-linecap="round" stroke-linejoin="round"/>
<path d="M51.7412 60.9962C52.6484 60.9962 53.3839 60.2607 53.3839 59.3535C53.3839 58.4464 52.6484 57.7109 51.7412 57.7109C50.8341 57.7109 50.0986 58.4464 50.0986 59.3535C50.0986 60.2607 50.8341 60.9962 51.7412 60.9962Z" fill="#0078D4" stroke="white" stroke-width="0.89132" stroke-linecap="round" stroke-linejoin="round"/>
<path d="M38.3979 41.8612V33.6553C38.3979 32.1853 38.6875 30.7296 39.2501 29.3714C39.8126 28.0133 40.6372 26.7792 41.6767 25.7397C42.7162 24.7002 43.9503 23.8756 45.3084 23.3131C46.6666 22.7505 48.1223 22.4609 49.5924 22.4609V22.4609C51.0624 22.4609 52.5181 22.7505 53.8763 23.3131C55.2344 23.8756 56.4685 24.7002 57.508 25.7397C58.5475 26.7792 59.3721 28.0133 59.9347 29.3714C60.4972 30.7296 60.7868 32.1853 60.7868 33.6553V41.8612" stroke="#1F56A3" stroke-width="5" stroke-miterlimit="10"/>
</g>
<defs>
<linearGradient id="paint0_linear" x1="47.8697" y1="-15.155" x2="51.8525" y2="130.613" gradientUnits="userSpaceOnUse">
<stop stop-color="#00ABDE"/>
<stop offset="1" stop-color="#007ED8"/>
</linearGradient>
<clipPath id="clip0">
<rect width="99.2799" height="99.28" fill="white"/>
</clipPath>
</defs>
</svg>
