<?xml version="1.0" encoding="UTF-8"?>
<svg width="100px" height="100px" viewBox="0 0 100 100" version="1.1" xmlns="http://www.w3.org/2000/svg" xmlns:xlink="http://www.w3.org/1999/xlink">
    <!-- Generator: Sketch 53.2 (72643) - https://sketchapp.com -->
    <title>M365 Fundamentals/protect-information-in-microsoft-365</title>
    <desc>Created with Sketch.</desc>
    <defs>
        <rect id="path-1" x="0" y="0" width="96" height="96" rx="48"></rect>
        <polygon id="path-3" points="0 0.0304027682 15.2006241 0.0304027682 15.2006241 9.12083047 0 9.12083047"></polygon>
        <filter x="-12.5%" y="-9.8%" width="125.0%" height="119.5%" filterUnits="objectBoundingBox" id="filter-5">
            <feOffset dx="0" dy="2" in="SourceAlpha" result="shadowOffsetOuter1"></feOffset>
            <feColorMatrix values="0 0 0 0 0   0 0 0 0 0   0 0 0 0 0  0 0 0 0.0967221467 0" type="matrix" in="shadowOffsetOuter1" result="shadowMatrixOuter1"></feColorMatrix>
            <feMerge>
                <feMergeNode in="shadowMatrixOuter1"></feMergeNode>
                <feMergeNode in="SourceGraphic"></feMergeNode>
            </feMerge>
        </filter>
        <filter x="-7.5%" y="-6.5%" width="115.1%" height="114.2%" filterUnits="objectBoundingBox" id="filter-6">
            <feOffset dx="0" dy="2" in="SourceAlpha" result="shadowOffsetOuter1"></feOffset>
            <feColorMatrix values="0 0 0 0 0   0 0 0 0 0   0 0 0 0 0  0 0 0 0.102921196 0" type="matrix" in="shadowOffsetOuter1" result="shadowMatrixOuter1"></feColorMatrix>
            <feMerge>
                <feMergeNode in="shadowMatrixOuter1"></feMergeNode>
                <feMergeNode in="SourceGraphic"></feMergeNode>
            </feMerge>
        </filter>
    </defs>
    <g id="Badges" stroke="none" stroke-width="1" fill="none" fill-rule="evenodd">
        <g id="M365-Fundamentals-3" transform="translate(-50.000000, -860.000000)">
            <g id="M365-Fundamentals/protect-information-in-microsoft-365" transform="translate(50.000000, 860.000000)">
                <g id="Mask" transform="translate(2.000000, 2.000000)">
                    <mask id="mask-2" fill="white">
                        <use xlink:href="#path-1"></use>
                    </mask>
                    <use id="BG" fill="#55A2FF" xlink:href="#path-1"></use>
                    <g id="Shield-Blocking" mask="url(#mask-2)">
                        <g transform="translate(5.000000, 14.000000)">
                            <g id="Paper-Stack" transform="translate(27.072727, 19.420017) rotate(-29.000000) translate(-27.072727, -19.420017) translate(11.072727, 6.920017)">
                                <path d="M31.2316723,18.7390034 L31.2316723,3.12316723 C31.2316723,1.40542525 29.8270279,0 28.1085051,0 L3.12316723,0 C1.40542525,0 0,1.40542525 0,3.12316723 L0,18.7390034 L31.2316723,18.7390034" id="Fill-310" fill="#C5CCCD"></path>
                                <path d="M31.2316723,16.396628 L31.2316723,3.90395904 C31.2316723,2.18621706 29.8270279,0.780791808 28.1085051,0.780791808 L3.12316723,0.780791808 C1.40542525,0.780791808 0,2.18621706 0,3.90395904 L0,16.396628 L31.2316723,16.396628" id="Fill-311" fill="#E1E4E1"></path>
                                <path d="M31.2316723,17.1774198 L31.2316723,4.68475085 C31.2316723,2.96700887 29.8270279,1.56158362 28.1085051,1.56158362 L3.12316723,1.56158362 C1.40542525,1.56158362 0,2.96700887 0,4.68475085 L0,17.1774198 L31.2316723,17.1774198" id="Fill-312" fill="#C5CCCD"></path>
                                <path d="M31.2316723,17.9582116 L31.2316723,5.46554266 C31.2316723,3.74780068 29.8270279,2.34237542 28.1085051,2.34237542 L3.12316723,2.34237542 C1.40542525,2.34237542 0,3.74780068 0,5.46554266 L0,17.9582116 L31.2316723,17.9582116" id="Fill-313" fill="#E1E4E1"></path>
                                <path d="M31.2316723,18.7390034 L31.2316723,6.24633447 C31.2316723,4.52859249 29.8270279,3.12316723 28.1085051,3.12316723 L3.12316723,3.12316723 C1.40542525,3.12316723 0,4.52859249 0,6.24633447 L0,18.7390034 L31.2316723,18.7390034" id="Fill-314" fill="#C5CCCD"></path>
                                <path d="M28.1085051,3.90395904 L3.12316723,3.90395904 C1.40542525,3.90395904 0,5.3093843 0,7.02712627 L0,18.7390034 L5.46554266,18.7390034 C6.32831761,18.7390034 7.02712627,19.441716 7.02712627,20.300587 C7.02712627,25.0399933 8.58870989,24.9853379 15.6158362,24.9853379 C22.6429624,24.9853379 24.2045461,25.0399933 24.2045461,20.300587 C24.2045461,19.441716 24.9041355,18.7390034 25.7661297,18.7390034 L31.2316723,18.7390034 L31.2316723,7.02712627 C31.2316723,5.3093843 29.8270279,3.90395904 28.1085051,3.90395904" id="Fill-315" fill="#E1E4E1"></path>
                                <path d="M24.9853379,10.9310853 L6.24633447,10.9310853 C5.38434031,10.9310853 4.68475085,10.2283727 4.68475085,9.3695017 C4.68475085,8.51063071 5.38434031,7.80791808 6.24633447,7.80791808 L24.9853379,7.80791808 C25.8481128,7.80791808 26.5469215,8.51063071 26.5469215,9.3695017 C26.5469215,10.2283727 25.8481128,10.9310853 24.9853379,10.9310853" id="Fill-316" fill="#C5CCCD"></path>
                                <path d="M20.300587,16.396628 L6.24633447,16.396628 C5.38434031,16.396628 4.68475085,15.6939153 4.68475085,14.8350444 C4.68475085,13.9761734 5.38434031,13.2734607 6.24633447,13.2734607 L20.300587,13.2734607 C21.163362,13.2734607 21.8621706,13.9761734 21.8621706,14.8350444 C21.8621706,15.6939153 21.163362,16.396628 20.300587,16.396628" id="Fill-317" fill="#C5CCCD"></path>
                            </g>
                            <g id="Paper" transform="translate(31.375680, 44.328316) rotate(5.000000) translate(-31.375680, -44.328316) translate(18.875680, 26.828316)">
                                <path d="M2.13487511,0 C0.961280597,0 0.0010669041,0.960213693 0.0010669041,2.13380821 L0.0010669041,32.0071231 C0.0010669041,33.1807176 0.961280597,34.1409313 2.13487511,34.1409313 L22.4060531,34.1409313 C23.580181,34.1409313 24.5398613,33.1807176 24.5398613,32.0071231 L24.5398613,8.53523282 L16.0046284,0 L2.13487511,0" id="Fill-12" fill="#E1E4E1"></path>
                                <path d="M18.1384367,8.53523282 L24.5398613,8.53523282 L16.0046284,0 L16.0046284,6.40142462 C16.0046284,7.57501913 16.9648421,8.53523282 18.1384367,8.53523282" id="Fill-13" fill="#697D85"></path>
                                <path d="M19.2053408,14.9366574 L5.33558742,14.9366574 C4.74665635,14.9366574 4.26868332,14.4586844 4.26868332,13.8697533 C4.26868332,13.2808223 4.74665635,12.8028492 5.33558742,12.8028492 L19.2053408,12.8028492 C19.7948053,12.8028492 20.2722449,13.2808223 20.2722449,13.8697533 C20.2722449,14.4586844 19.7948053,14.9366574 19.2053408,14.9366574" id="Fill-14" fill="#C5CCCD"></path>
                                <path d="M10.6701079,10.135589 L5.33558742,10.135589 C4.74665635,10.135589 4.26868332,9.65761594 4.26868332,9.06868488 C4.26868332,8.47975381 4.74665635,8.00178077 5.33558742,8.00178077 L10.6701079,8.00178077 C11.2595725,8.00178077 11.737012,8.47975381 11.737012,9.06868488 C11.737012,9.65761594 11.2595725,10.135589 10.6701079,10.135589" id="Fill-15" fill="#C5CCCD"></path>
                                <path d="M10.6701079,5.86797257 L5.33558742,5.86797257 C4.74665635,5.86797257 4.26868332,5.38999953 4.26868332,4.80106846 C4.26868332,4.2121374 4.74665635,3.73416436 5.33558742,3.73416436 L10.6701079,3.73416436 C11.2595725,3.73416436 11.737012,4.2121374 11.737012,4.80106846 C11.737012,5.38999953 11.2595725,5.86797257 10.6701079,5.86797257" id="Fill-16" fill="#C5CCCD"></path>
                                <path d="M19.2053408,19.7377259 L5.33558742,19.7377259 C4.74665635,19.7377259 4.26868332,19.2597529 4.26868332,18.6708218 C4.26868332,18.0818907 4.74665635,17.6039177 5.33558742,17.6039177 L19.2053408,17.6039177 C19.7948053,17.6039177 20.2722449,18.0818907 20.2722449,18.6708218 C20.2722449,19.2597529 19.7948053,19.7377259 19.2053408,19.7377259" id="Fill-17" fill="#C5CCCD"></path>
                                <path d="M19.2053408,24.5387944 L5.33558742,24.5387944 C4.74665635,24.5387944 4.26868332,24.0608213 4.26868332,23.4718903 C4.26868332,22.8829592 4.74665635,22.4049862 5.33558742,22.4049862 L19.2053408,22.4049862 C19.7948053,22.4049862 20.2722449,22.8829592 20.2722449,23.4718903 C20.2722449,24.0608213 19.7948053,24.5387944 19.2053408,24.5387944" id="Fill-18" fill="#C5CCCD"></path>
                                <path d="M19.2053408,29.3398628 L5.33558742,29.3398628 C4.74665635,29.3398628 4.26868332,28.8618898 4.26868332,28.2729587 C4.26868332,27.6840277 4.74665635,27.2060546 5.33558742,27.2060546 L19.2053408,27.2060546 C19.7948053,27.2060546 20.2722449,27.6840277 20.2722449,28.2729587 C20.2722449,28.8618898 19.7948053,29.3398628 19.2053408,29.3398628" id="Fill-19" fill="#C5CCCD"></path>
                                <polyline id="Fill-20" fill="#C5CCCD" points="24.5398613 14.9366574 18.1384367 8.53523282 24.5398613 8.53523282 24.5398613 14.9366574"></polyline>
                            </g>
                            <g id="Clipboard" transform="translate(30.840545, 35.997613) rotate(-133.000000) translate(-30.840545, -35.997613) translate(12.340545, 11.497613)">
                                <path d="M3.04027682,48.6444292 C1.3673645,48.6444292 0,47.2763046 0,45.6041524 L0,7.60069206 C0,5.92853981 1.3673645,4.56041524 3.04027682,4.56041524 L33.4430451,4.56041524 C35.1151973,4.56041524 36.4833219,5.92853981 36.4833219,7.60069206 L36.4833219,45.6041524 C36.4833219,47.2763046 35.1151973,48.6444292 33.4430451,48.6444292 L3.04027682,48.6444292" id="Fill-1" fill="#616161"></path>
                                <path d="M3.80034603,46.3642216 C2.96350983,46.3642216 2.28020762,45.6801593 2.28020762,44.8440832 L2.28020762,8.36076127 C2.28020762,7.52468514 2.96350983,6.84062285 3.80034603,6.84062285 L32.6822158,6.84062285 C33.519052,6.84062285 34.2031143,7.52468514 34.2031143,8.36076127 L34.2031143,44.8440832 C34.2031143,45.6801593 33.519052,46.3642216 32.6822158,46.3642216 L3.80034603,46.3642216" id="Fill-2" fill="#E1E4E1"></path>
                                <g id="Group-6" transform="translate(10.640969, 0.000000)">
                                    <mask id="mask-4" fill="white">
                                        <use xlink:href="#path-3"></use>
                                    </mask>
                                    <g id="Clip-4"></g>
                                    <path d="M14.4413149,8.36076127 L0.760069206,8.36076127 C0.342031143,8.36076127 0,8.01873012 0,7.60069206 L0,8.36076127 C0,8.77879933 0.342031143,9.12083047 0.760069206,9.12083047 L14.4413149,9.12083047 C14.8585929,9.12083047 15.2006241,8.77879933 15.2006241,8.36076127 L15.2006241,7.60069206 C15.2006241,8.01873012 14.8585929,8.36076127 14.4413149,8.36076127" id="Fill-3" fill="#546670" mask="url(#mask-4)"></path>
                                    <path d="M7.60069206,1.52013841 C8.43904839,1.52013841 9.12083047,2.20192049 9.12083047,3.04027682 L6.07979358,3.04027682 C6.07979358,2.20192049 6.76233573,1.52013841 7.60069206,1.52013841 Z M14.4413149,3.04027682 L10.6402088,3.04027682 C10.6402088,1.36128395 9.27968494,0 7.60069206,0 C5.92169918,0 4.56041524,1.36128395 4.56041524,3.04027682 L0.760069206,3.04027682 C0.342031143,3.04027682 0,3.38230797 0,3.80034603 L0,7.60069206 C0,8.01873012 0.342031143,8.36076127 0.760069206,8.36076127 L14.4413149,8.36076127 C14.8585929,8.36076127 15.2006241,8.01873012 15.2006241,7.60069206 L15.2006241,3.80034603 C15.2006241,3.38230797 14.8585929,3.04027682 14.4413149,3.04027682 L14.4413149,3.04027682 Z" id="Fill-5" fill="#A9B3B6" mask="url(#mask-4)"></path>
                                </g>
                                <polygon id="Fill-7" fill="#182A37" points="25.8415929 6.84062285 26.6016621 6.84062285 26.6016621 4.56041524 25.8415929 4.56041524"></polygon>
                                <polygon id="Fill-8" fill="#182A37" points="9.88013961 6.84062285 10.6402088 6.84062285 10.6402088 4.56041524 9.88013961 4.56041524"></polygon>
                                <path d="M28.1218006,31.1628374 L8.36076127,31.1628374 C7.52088479,31.1628374 6.84062285,30.4818154 6.84062285,29.642699 C6.84062285,28.8035826 7.52088479,28.1225606 8.36076127,28.1225606 L28.1218006,28.1225606 C28.961677,28.1225606 29.642699,28.8035826 29.642699,29.642699 C29.642699,30.4818154 28.961677,31.1628374 28.1218006,31.1628374" id="Fill-9" fill="#C5CCCD"></path>
                                <path d="M19.0009701,38.0034603 L8.36076127,38.0034603 C7.52088479,38.0034603 6.84062285,37.3224383 6.84062285,36.4833219 C6.84062285,35.6442055 7.52088479,34.9631835 8.36076127,34.9631835 L19.0009701,34.9631835 C19.8408466,34.9631835 20.5218686,35.6442055 20.5218686,36.4833219 C20.5218686,37.3224383 19.8408466,38.0034603 19.0009701,38.0034603" id="Fill-10" fill="#C5CCCD"></path>
                                <path d="M28.1218006,24.3222146 L8.36076127,24.3222146 C7.52088479,24.3222146 6.84062285,23.6411926 6.84062285,22.8020762 C6.84062285,21.9629598 7.52088479,21.2819378 8.36076127,21.2819378 L28.1218006,21.2819378 C28.961677,21.2819378 29.642699,21.9629598 29.642699,22.8020762 C29.642699,23.6411926 28.961677,24.3222146 28.1218006,24.3222146" id="Fill-11" fill="#C5CCCD"></path>
                                <path d="M28.1218006,17.4815917 L8.36076127,17.4815917 C7.52088479,17.4815917 6.84062285,16.8005697 6.84062285,15.9614533 C6.84062285,15.1223369 7.52088479,14.4413149 8.36076127,14.4413149 L28.1218006,14.4413149 C28.961677,14.4413149 29.642699,15.1223369 29.642699,15.9614533 C29.642699,16.8005697 28.961677,17.4815917 28.1218006,17.4815917" id="Fill-12" fill="#C5CCCD"></path>
                            </g>
                            <g id="Paper" transform="translate(61.375680, 45.328316) rotate(-22.000000) translate(-61.375680, -45.328316) translate(48.875680, 27.828316)">
                                <path d="M2.13487511,0 C0.961280597,0 0.0010669041,0.960213693 0.0010669041,2.13380821 L0.0010669041,32.0071231 C0.0010669041,33.1807176 0.961280597,34.1409313 2.13487511,34.1409313 L22.4060531,34.1409313 C23.580181,34.1409313 24.5398613,33.1807176 24.5398613,32.0071231 L24.5398613,8.53523282 L16.0046284,0 L2.13487511,0" id="Fill-12" fill="#E1E4E1"></path>
                                <path d="M18.1384367,8.53523282 L24.5398613,8.53523282 L16.0046284,0 L16.0046284,6.40142462 C16.0046284,7.57501913 16.9648421,8.53523282 18.1384367,8.53523282" id="Fill-13" fill="#697D85"></path>
                                <path d="M19.2053408,14.9366574 L5.33558742,14.9366574 C4.74665635,14.9366574 4.26868332,14.4586844 4.26868332,13.8697533 C4.26868332,13.2808223 4.74665635,12.8028492 5.33558742,12.8028492 L19.2053408,12.8028492 C19.7948053,12.8028492 20.2722449,13.2808223 20.2722449,13.8697533 C20.2722449,14.4586844 19.7948053,14.9366574 19.2053408,14.9366574" id="Fill-14" fill="#C5CCCD"></path>
                                <path d="M10.6701079,10.135589 L5.33558742,10.135589 C4.74665635,10.135589 4.26868332,9.65761594 4.26868332,9.06868488 C4.26868332,8.47975381 4.74665635,8.00178077 5.33558742,8.00178077 L10.6701079,8.00178077 C11.2595725,8.00178077 11.737012,8.47975381 11.737012,9.06868488 C11.737012,9.65761594 11.2595725,10.135589 10.6701079,10.135589" id="Fill-15" fill="#C5CCCD"></path>
                                <path d="M10.6701079,5.86797257 L5.33558742,5.86797257 C4.74665635,5.86797257 4.26868332,5.38999953 4.26868332,4.80106846 C4.26868332,4.2121374 4.74665635,3.73416436 5.33558742,3.73416436 L10.6701079,3.73416436 C11.2595725,3.73416436 11.737012,4.2121374 11.737012,4.80106846 C11.737012,5.38999953 11.2595725,5.86797257 10.6701079,5.86797257" id="Fill-16" fill="#C5CCCD"></path>
                                <path d="M19.2053408,19.7377259 L5.33558742,19.7377259 C4.74665635,19.7377259 4.26868332,19.2597529 4.26868332,18.6708218 C4.26868332,18.0818907 4.74665635,17.6039177 5.33558742,17.6039177 L19.2053408,17.6039177 C19.7948053,17.6039177 20.2722449,18.0818907 20.2722449,18.6708218 C20.2722449,19.2597529 19.7948053,19.7377259 19.2053408,19.7377259" id="Fill-17" fill="#C5CCCD"></path>
                                <path d="M19.2053408,24.5387944 L5.33558742,24.5387944 C4.74665635,24.5387944 4.26868332,24.0608213 4.26868332,23.4718903 C4.26868332,22.8829592 4.74665635,22.4049862 5.33558742,22.4049862 L19.2053408,22.4049862 C19.7948053,22.4049862 20.2722449,22.8829592 20.2722449,23.4718903 C20.2722449,24.0608213 19.7948053,24.5387944 19.2053408,24.5387944" id="Fill-18" fill="#C5CCCD"></path>
                                <path d="M19.2053408,29.3398628 L5.33558742,29.3398628 C4.74665635,29.3398628 4.26868332,28.8618898 4.26868332,28.2729587 C4.26868332,27.6840277 4.74665635,27.2060546 5.33558742,27.2060546 L19.2053408,27.2060546 C19.7948053,27.2060546 20.2722449,27.6840277 20.2722449,28.2729587 C20.2722449,28.8618898 19.7948053,29.3398628 19.2053408,29.3398628" id="Fill-19" fill="#C5CCCD"></path>
                                <polyline id="Fill-20" fill="#C5CCCD" points="24.5398613 14.9366574 18.1384367 8.53523282 24.5398613 8.53523282 24.5398613 14.9366574"></polyline>
                            </g>
                            <g id="Notebook" filter="url(#filter-5)" transform="translate(58.760490, 35.397360) rotate(15.000000) translate(-58.760490, -35.397360) translate(42.760490, 14.897360)">
                                <path d="M0,33.0589393 L7.628986,40.6879253 L30.515944,40.6879253 C31.214632,40.6879253 31.7868059,40.1157514 31.7868059,39.4164277 L31.7868059,6.35748833 L0,6.35748833 L0,33.0589393" id="Fill-132" fill="#F7CB64"></path>
                                <path d="M31.7868059,1.27149767 C31.7868059,0.57217395 31.214632,0 30.515944,0 L1.27149767,0 C0.57217395,0 0,0.57217395 0,1.27149767 L0,6.35748833 L31.7868059,6.35748833 L31.7868059,1.27149767" id="Fill-133" fill="#A15933"></path>
                                <polygon id="Fill-134" fill="#773F24" points="0 7.628986 31.7874417 7.628986 31.7874417 6.35748833 0 6.35748833"></polygon>
                                <polygon id="Fill-135" fill="#EFB252" points="0 13.3507255 31.7874417 13.3507255 31.7874417 12.0792278 0 12.0792278"></polygon>
                                <polygon id="Fill-136" fill="#EFB252" points="0 18.4367162 31.7874417 18.4367162 31.7874417 17.1652185 0 17.1652185"></polygon>
                                <polygon id="Fill-137" fill="#EFB252" points="0 23.5227068 31.7874417 23.5227068 31.7874417 22.2512092 0 22.2512092"></polygon>
                                <polygon id="Fill-138" fill="#EFB252" points="0 28.6086975 31.7874417 28.6086975 31.7874417 27.3371998 0 27.3371998"></polygon>
                                <polyline id="Fill-139" fill="#EFB252" points="31.7868059 33.6946882 0.635748833 33.6946882 0 33.0589393 0 32.4231905 31.7868059 32.4231905 31.7868059 33.6946882"></polyline>
                                <polygon id="Fill-140" fill="#DF5142" points="5.7217395 34.330437 6.99323716 34.330437 6.99323716 7.628986 5.7217395 7.628986"></polygon>
                                <path d="M7.628986,35.6019347 L7.628986,40.6879253 L0,33.0589393 L5.08599067,33.0589393 C6.4846381,33.0589393 7.628986,34.2032872 7.628986,35.6019347" id="Fill-141" fill="#CC9547"></path>
                                <polyline id="Fill-142" fill="#EFB252" points="12.7143409 40.6879253 7.628986 35.6019347 7.628986 40.6879253 12.7143409 40.6879253"></polyline>
                            </g>
                            <g id="Shield" filter="url(#filter-6)" transform="translate(17.000000, 5.000000)">
                                <path d="M26.1882353,1.90955882 C21.1038379,7.64587353 12.1484314,9.54779412 1.93986928,9.54779412 L1.93986928,24.8242647 C1.93986928,40.5743059 9.03203137,50.7102441 26.1882353,59.1963235 C43.3434693,50.7102441 50.4366013,40.5743059 50.4366013,24.8242647 L50.4366013,9.54779412 C40.2290092,9.54779412 31.2726327,7.64587353 26.1882353,1.90955882" id="Fill-22" fill="#7CB65A"></path>
                                <path d="M26.1882353,1.90955882 L26.1882353,41.0555147 C19.5519425,41.0555147 14.1251582,36.0047316 13.6275817,29.5981618 C13.6033333,29.9141938 13.579085,30.2302257 13.579085,30.5529412 C13.579085,36.5909662 17.9602797,41.6236085 23.7643686,42.7359265 C25.1571948,43.0032647 26.1882353,44.1595026 26.1882353,45.5563449 L26.1882353,59.1963235 C43.3434693,50.7102441 50.4366013,40.5743059 50.4366013,24.8242647 L50.4366013,9.54779412 C40.2290092,9.54779412 31.2726327,7.64587353 26.1882353,1.90955882" id="Fill-23" fill="#629E3F"></path>
                                <path d="M3.87973856,11.4086592 L3.87973856,24.8061239 C3.87973856,39.6023404 10.358902,49.001189 26.1882353,57.0509342 C42.0175686,49.001189 48.496732,39.6023404 48.496732,24.8061239 L48.496732,11.4086592 C38.2998092,11.1623261 30.9641935,8.92814228 26.1882353,4.61158456 C21.4122771,8.92814228 14.0766614,11.1623261 3.87973856,11.4086592 Z M26.1882353,61.1058824 C25.8894954,61.1058824 25.5917255,61.038093 25.317234,60.9025143 C7.57227974,52.1204533 0,41.3247625 0,24.8061239 L0,9.52201507 C0,8.46698382 0.868091503,7.61150147 1.93986928,7.61150147 C13.1076967,7.61150147 20.5606745,5.32575956 24.7265438,0.623470956 C25.4636941,-0.208141912 26.9127765,-0.208141912 27.6499268,0.623470956 C31.8157961,5.32575956 39.2687739,7.61150147 50.4366013,7.61150147 C51.5074092,7.61150147 52.3764706,8.46698382 52.3764706,9.52201507 L52.3764706,24.8061239 C52.3764706,41.3247625 44.8041908,52.1204533 27.0592366,60.9025143 C26.7847451,61.038093 26.4869752,61.1058824 26.1882353,61.1058824 L26.1882353,61.1058824 Z" id="Fill-24" fill="#629E3F"></path>
                                <path d="M38.7973856,28.6433824 C38.7973856,35.4977437 33.152366,41.0555147 26.1882353,41.0555147 C19.2241046,41.0555147 13.579085,35.4977437 13.579085,28.6433824 C13.579085,21.789021 19.2241046,16.23125 26.1882353,16.23125 C33.152366,16.23125 38.7973856,21.789021 38.7973856,28.6433824" id="Fill-25" fill="#FFFFFE"></path>
                                <path d="M33.3793307,23.4742066 C32.6218118,22.7285239 31.3929046,22.7285239 30.6363556,23.4742066 L24.2425464,29.7681125 L21.933132,27.5148331 C21.8778458,27.4384507 21.8215895,27.3620684 21.7507843,27.2933243 C20.9932654,26.5476415 19.7643582,26.5476415 19.0078092,27.2933243 C18.2570797,28.0294592 18.2522301,29.2229335 18.9874405,29.9705257 L18.9641621,29.9934404 L22.8768784,33.8125581 C23.6343974,34.5582408 24.8633046,34.5582408 25.6208235,33.8125581 L33.3735111,26.1790967 C33.375451,26.1781419 33.3773908,26.1762324 33.3793307,26.1743228 C34.1368497,25.4286401 34.1368497,24.2179798 33.3793307,23.4742066" id="Fill-26" fill="#7CB65A"></path>
                            </g>
                        </g>
                    </g>
                </g>
                <g id="Azure-Border" stroke="#0078D4" stroke-width="4">
                    <rect x="2" y="2" width="96" height="96" rx="48"></rect>
                </g>
            </g>
        </g>
    </g>
</svg>