<svg width="181" height="191" viewBox="0 0 181 191" fill="none" xmlns="http://www.w3.org/2000/svg">
<path d="M90.0379 189.316C93.0979 189.316 96.1079 188.466 98.7679 186.846L160.738 149.186C166.278 145.816 169.708 139.486 169.708 132.646V57.936C169.708 51.116 166.278 44.776 160.738 41.396L98.7679 3.73598C93.4379 0.495982 86.6179 0.515982 81.3179 3.73598L19.3479 41.416C13.8079 44.786 10.3579 51.116 10.3579 57.956V132.656C10.3579 138.416 12.8079 143.836 16.9079 147.406V147.436L81.3179 186.866C83.9579 188.466 86.9779 189.316 90.0379 189.316ZM90.6879 8.26598C92.6379 8.26598 95.1179 9.47598 96.8279 10.526L157.588 47.716C161.338 49.996 163.458 56.596 163.458 61.346L162.828 132.646C162.828 137.396 159.628 141.666 155.878 143.946L95.4779 180.326C92.0479 182.416 89.2579 182.416 85.8179 180.326L24.6079 143.856C20.8579 141.576 17.8379 137.376 17.8379 132.646V59.006C17.8379 54.266 20.5679 49.376 24.3379 47.086L84.9179 10.526C86.6179 9.48598 88.7379 8.26598 90.6879 8.26598Z" fill="#F2F1F0"/>
<path fill-rule="evenodd" clip-rule="evenodd" d="M97.9379 11.8467C95.4879 10.3467 92.7679 9.59668 90.0379 9.59668C87.3079 9.59668 84.5879 10.3567 82.1379 11.8467L26.0079 46.1767C20.9879 49.2467 17.8779 54.9967 17.8779 61.2467V129.347C17.8779 135.577 20.9779 141.347 26.0079 144.417L82.1379 178.747C84.5879 180.247 87.3079 180.997 90.0379 180.997C92.7679 180.997 95.4879 180.257 97.9379 178.747L154.068 144.417C159.088 141.347 162.198 135.577 162.198 129.347V61.2467C162.198 55.0167 159.098 49.2667 154.068 46.1767L97.9379 11.8467Z" fill="url(#paint0_linear)"/>
<path fill-rule="evenodd" clip-rule="evenodd" d="M90.0379 11.0664C91.7179 11.0664 93.6079 11.9364 95.6679 13.1864L154.138 48.7264C157.788 50.9464 160.198 55.2164 160.198 60.0464V130.526C160.198 135.346 157.788 139.626 154.138 141.846L95.6779 177.386C93.7179 178.576 91.7979 179.326 90.0479 179.326C88.2979 179.326 86.3779 178.576 84.4179 177.386L25.9379 141.856C23.9279 140.626 22.4779 139.426 21.4979 137.816C20.5179 136.216 19.8779 133.996 19.8779 130.536V60.0564C19.8779 55.2264 22.2879 50.9564 25.9379 48.7364L84.3979 13.1964C86.4879 11.9464 88.3479 11.0664 90.0379 11.0664ZM97.7479 180.816L156.208 145.276C161.128 142.286 164.188 136.666 164.188 130.536V60.0564C164.188 53.9264 161.128 48.3064 156.208 45.3164L97.7479 9.77641C95.6379 8.49641 92.9279 7.06641 90.0379 7.06641C87.1379 7.06641 84.4279 8.50641 82.3379 9.76641H82.3279L23.8579 45.3164C18.9379 48.3064 15.8779 53.9264 15.8779 60.0564V130.536C15.8779 134.496 16.6179 137.486 18.0779 139.896C19.5379 142.296 21.5979 143.896 23.8579 145.266L82.3179 180.806C84.5379 182.156 87.2079 183.336 90.0279 183.336C92.8479 183.336 95.5279 182.166 97.7479 180.816Z" fill="url(#paint1_linear)"/>
<path d="M90.0379 189.316C93.0979 189.316 96.1079 188.466 98.7679 186.846L160.738 149.186C166.278 145.816 169.708 139.486 169.708 132.646V57.936C169.708 51.116 166.278 44.776 160.738 41.396L98.7679 3.73598C93.4379 0.495982 86.6179 0.515982 81.3179 3.73598L19.3479 41.416C13.8079 44.786 10.3579 51.116 10.3579 57.956V132.656C10.3579 138.416 12.8079 143.836 16.9079 147.406V147.436L81.3179 186.866C83.9579 188.466 86.9779 189.316 90.0379 189.316ZM90.6879 8.26598C92.6379 8.26598 95.1179 9.47598 96.8279 10.526L157.588 47.716C161.338 49.996 163.458 56.596 163.458 61.346L162.828 132.646C162.828 137.396 159.628 141.666 155.878 143.946L95.4779 180.326C92.0479 182.416 89.2579 182.416 85.8179 180.326L24.6079 143.856C20.8579 141.576 17.8379 137.376 17.8379 132.646V59.006C17.8379 54.266 20.5679 49.376 24.3379 47.086L84.9179 10.526C86.6179 9.48598 88.7379 8.26598 90.6879 8.26598Z" fill="#F2F1F0"/>
<path fill-rule="evenodd" clip-rule="evenodd" d="M97.9379 11.8467C95.4879 10.3467 92.7679 9.59668 90.0379 9.59668C87.3079 9.59668 84.5879 10.3567 82.1379 11.8467L26.0079 46.1767C20.9879 49.2467 17.8779 54.9967 17.8779 61.2467V129.347C17.8779 135.577 20.9779 141.347 26.0079 144.417L82.1379 178.747C84.5879 180.247 87.3079 180.997 90.0379 180.997C92.7679 180.997 95.4879 180.257 97.9379 178.747L154.068 144.417C159.088 141.347 162.198 135.577 162.198 129.347V61.2467C162.198 55.0167 159.098 49.2667 154.068 46.1767L97.9379 11.8467Z" fill="url(#paint2_linear)"/>
<path fill-rule="evenodd" clip-rule="evenodd" d="M90.0379 11.0664C91.7179 11.0664 93.6079 11.9364 95.6679 13.1864L154.138 48.7264C157.788 50.9464 160.198 55.2164 160.198 60.0464V130.526C160.198 135.346 157.788 139.626 154.138 141.846L95.6779 177.386C93.7179 178.576 91.7979 179.326 90.0479 179.326C88.2979 179.326 86.3779 178.576 84.4179 177.386L25.9379 141.856C23.9279 140.626 22.4779 139.426 21.4979 137.816C20.5179 136.216 19.8779 133.996 19.8779 130.536V60.0564C19.8779 55.2264 22.2879 50.9564 25.9379 48.7364L84.3979 13.1964C86.4879 11.9464 88.3479 11.0664 90.0379 11.0664ZM97.7479 180.816L156.208 145.276C161.128 142.286 164.188 136.666 164.188 130.536V60.0564C164.188 53.9264 161.128 48.3064 156.208 45.3164L97.7479 9.77641C95.6379 8.49641 92.9279 7.06641 90.0379 7.06641C87.1379 7.06641 84.4279 8.50641 82.3379 9.76641H82.3279L23.8579 45.3164C18.9379 48.3064 15.8779 53.9264 15.8779 60.0564V130.536C15.8779 134.496 16.6179 137.486 18.0779 139.896C19.5379 142.296 21.5979 143.896 23.8579 145.266L82.3179 180.806C84.5379 182.156 87.2079 183.336 90.0279 183.336C92.8479 183.336 95.5279 182.166 97.7479 180.816Z" fill="#002D4C"/>
<path opacity="0.5" d="M43.929 120.501C39.6489 120.506 35.5271 118.887 32.3937 115.971C29.2603 113.055 27.3485 109.06 27.0454 104.791C26.7423 100.521 28.0705 96.2958 30.7605 92.9666C33.4505 89.6375 37.3026 87.4524 41.5404 86.8523C40.8529 84.1205 40.4997 81.3154 40.488 78.4985C40.4959 70.9465 43.0268 63.6143 47.6784 57.6648C52.3301 51.7154 58.8355 47.4898 66.1626 45.6604C73.4898 43.8311 81.2183 44.5022 88.1205 47.5669C95.0228 50.6317 100.703 55.9147 104.26 62.5767C107.183 61.1626 110.385 60.4258 113.632 60.4214C119.249 60.4302 124.635 62.6647 128.608 66.6353C132.582 70.6059 134.821 75.9893 134.834 81.6067C134.821 83.3637 134.602 85.1125 134.183 86.8188C134.821 86.7497 135.462 86.7221 136.104 86.7356C138.32 86.7112 140.519 87.1278 142.573 87.9617C144.627 88.7957 146.495 90.0301 148.067 91.5928C149.639 93.1556 150.885 95.0155 151.731 97.0643C152.577 99.1131 153.007 101.31 152.996 103.526C152.991 108.021 151.202 112.33 148.023 115.507C144.843 118.684 140.532 120.468 136.037 120.468L43.929 120.501Z" fill="url(#paint3_linear)"/>
<path d="M43.929 120.501C39.6489 120.506 35.5271 118.887 32.3937 115.971C29.2603 113.055 27.3485 109.06 27.0454 104.791C26.7423 100.521 28.0705 96.2958 30.7605 92.9666C33.4505 89.6375 37.3026 87.4524 41.5404 86.8523C40.8529 84.1205 40.4997 81.3154 40.488 78.4985C40.4959 70.9465 43.0268 63.6143 47.6784 57.6648C52.3301 51.7154 58.8355 47.4898 66.1626 45.6604C73.4898 43.8311 81.2183 44.5022 88.1205 47.5669C95.0228 50.6317 100.703 55.9147 104.26 62.5767C107.183 61.1626 110.385 60.4258 113.632 60.4214C119.249 60.4302 124.635 62.6647 128.608 66.6353C132.582 70.6059 134.821 75.9893 134.834 81.6067C134.821 83.3637 134.602 85.1125 134.183 86.8188C134.821 86.7497 135.462 86.7221 136.104 86.7356C138.32 86.7112 140.519 87.1278 142.573 87.9617C144.627 88.7957 146.495 90.0301 148.067 91.5928C149.639 93.1556 150.885 95.0155 151.731 97.0643C152.577 99.1131 153.007 101.31 152.996 103.526C152.991 108.021 151.202 112.33 148.023 115.507C144.843 118.684 140.532 120.468 136.037 120.468L43.929 120.501Z" stroke="white" stroke-width="0.8" stroke-miterlimit="10"/>
<path opacity="0.25" d="M40.7549 82.5088C40.5982 83.7953 40.5087 85.0888 40.4873 86.3846C40.4873 86.6018 40.4873 86.8192 40.4873 87.0364C40.8236 86.9577 41.1628 86.8957 41.5054 86.8521C41.1589 85.4223 40.9091 83.9718 40.7549 82.5088Z" fill="url(#paint4_linear)"/>
<path opacity="0.15" d="M136.036 120.501H43.9283C40.1198 120.496 36.4239 119.21 33.4355 116.849C30.4472 114.488 28.3413 111.19 27.4558 107.486C27.155 108.739 26.9712 106.433 26.9712 107.787C26.9756 112.283 28.7633 116.594 31.9426 119.773C35.1219 122.952 39.4321 124.74 43.9283 124.745H136.036C140.532 124.74 144.844 122.952 148.023 119.773C151.203 116.594 152.99 112.283 152.995 107.787C152.995 106.433 152.811 108.755 152.51 107.486C151.625 111.19 149.517 114.488 146.529 116.849C143.54 119.21 139.845 120.496 136.036 120.501Z" fill="#1F1D20"/>
<path opacity="0.25" d="M134.633 86.8191C134.633 86.368 134.516 85.9344 134.432 85.5C134.349 85.9511 134.3 86.4015 134.183 86.8526C134.331 86.8249 134.482 86.8136 134.633 86.8191Z" fill="url(#paint5_linear)"/>
<path d="M58.3245 133.594H121.372C122.835 133.594 124.011 132.418 124.011 130.954V83.6121C124.011 82.1484 122.835 80.9727 121.372 80.9727H58.3245C56.8608 80.9727 55.6851 82.1484 55.6851 83.6121V130.954C55.6851 132.406 56.8608 133.594 58.3245 133.594Z" fill="url(#paint6_linear)"/>
<path d="M55.6851 87.067H123.987V82.6879C123.987 81.1762 122.751 79.9404 121.24 79.9404H58.4325C56.9208 79.9404 55.6851 81.1762 55.6851 82.6879V87.067Z" fill="#50E6FF"/>
<path d="M59.9442 85.3758C60.892 85.3758 61.6839 84.6079 61.6839 83.6361C61.6839 82.6643 60.904 81.8965 59.9442 81.8965C58.9844 81.8965 58.2046 82.6763 58.2046 83.6361C58.2046 84.5959 58.9844 85.3758 59.9442 85.3758Z" fill="#0078D4"/>
<path d="M93.4295 106.839H86.1589V114.121H93.4415V106.839H93.4295Z" fill="white"/>
<path d="M100.712 99.6406L98.1443 102.208L106.447 110.51L98.0483 118.909L100.616 121.476L111.582 110.51L100.712 99.6406Z" fill="#50E6FF"/>
<path d="M78.6364 121.488L81.2039 118.92L72.9016 110.618L81.2999 102.22L78.7324 99.6523L67.7546 110.618L78.6364 121.488Z" fill="#50E6FF"/>
<path fill-rule="evenodd" clip-rule="evenodd" d="M126.823 137.672C126.823 138.5 126.145 139.171 125.324 139.171H111.793C110.972 139.171 110.294 138.5 110.294 137.672V126.398H126.823V137.672Z" fill="#C5CCCD"/>
<path fill-rule="evenodd" clip-rule="evenodd" d="M126.823 126.399C126.823 127.227 126.145 127.898 125.324 127.898H111.793C110.972 127.905 110.294 127.227 110.294 126.399V124.9C110.294 124.072 110.972 123.4 111.793 123.4H125.321C126.148 123.4 126.82 124.079 126.82 124.9V126.399H126.823Z" fill="#839196"/>
<path fill-rule="evenodd" clip-rule="evenodd" d="M125.321 128.278H119.31C118.896 128.278 118.559 128.611 118.559 129.029V137.669C118.559 138.083 118.225 138.421 117.807 138.421H111.793C110.972 138.424 110.294 137.746 110.294 136.918V137.669C110.294 138.497 110.972 139.168 111.793 139.168H125.321C126.148 139.168 126.82 138.49 126.82 137.669V126.778C126.823 127.606 126.148 128.278 125.321 128.278Z" fill="#ADBDC4"/>
<path fill-rule="evenodd" clip-rule="evenodd" d="M118.562 130.166C116.764 130.166 115.296 131.627 115.296 133.432C115.296 135.231 116.757 136.698 118.562 136.698C120.367 136.698 121.828 135.234 121.828 133.432C121.821 131.627 120.36 130.166 118.562 130.166Z" fill="#F5F8F5"/>
<path fill-rule="evenodd" clip-rule="evenodd" d="M115.181 125.651C115.181 126.274 114.506 126.778 113.682 126.778C112.857 126.778 112.183 126.274 112.183 125.651C112.183 125.029 112.857 124.524 113.682 124.524C114.506 124.524 115.181 125.025 115.181 125.651Z" fill="#182A37"/>
<path fill-rule="evenodd" clip-rule="evenodd" d="M124.948 125.651C124.948 126.274 124.274 126.778 123.449 126.778C122.621 126.778 121.95 126.274 121.95 125.651C121.95 125.029 122.625 124.524 123.449 124.524C124.274 124.524 124.948 125.025 124.948 125.651Z" fill="#182A37"/>
<path fill-rule="evenodd" clip-rule="evenodd" d="M118.562 115.129C115.244 115.129 112.548 117.828 112.548 121.143V126.388C112.823 126.622 113.223 126.778 113.675 126.778C114.127 126.778 114.527 126.625 114.802 126.388V121.143C114.802 119.073 116.489 117.39 118.555 117.39C120.625 117.39 122.308 119.077 122.308 121.143V125.651C122.308 126.065 122.813 126.402 123.435 126.402C124.058 126.402 124.562 126.065 124.562 125.651V121.143C124.569 117.828 121.874 115.129 118.562 115.129Z" fill="#F5F8F5"/>
<path fill-rule="evenodd" clip-rule="evenodd" d="M116.402 117.668C114.955 118.277 114.047 119.741 114.047 121.314V125.157C114.047 125.651 113.578 126.016 113.105 125.884C112.871 125.818 112.659 125.735 112.541 125.634V126.385C112.816 126.618 113.216 126.775 113.668 126.775C113.797 126.775 113.922 126.761 114.044 126.737C114.12 126.723 114.193 126.702 114.263 126.681C114.298 126.67 114.332 126.656 114.367 126.643C114.416 126.622 114.468 126.597 114.517 126.573C114.541 126.559 114.565 126.549 114.593 126.535C114.663 126.49 114.732 126.444 114.792 126.396V121.143C114.792 119.199 116.277 117.592 118.173 117.404C117.619 117.341 117.021 117.414 116.402 117.668Z" fill="#C5CCCD"/>
<path fill-rule="evenodd" clip-rule="evenodd" d="M118.562 115.129C118.437 115.129 118.312 115.139 118.187 115.15C121.328 115.345 123.822 117.953 123.822 121.143V125.161C123.822 125.655 123.352 126.02 122.879 125.888C122.646 125.822 122.434 125.738 122.315 125.637V126.388C122.59 126.622 122.994 126.778 123.442 126.778C123.895 126.778 124.295 126.625 124.569 126.388V121.143C124.569 117.828 121.87 115.129 118.562 115.129Z" fill="#C5CCCD"/>
<defs>
<linearGradient id="paint0_linear" x1="90.0378" y1="9.59688" x2="90.0378" y2="180.997" gradientUnits="userSpaceOnUse">
<stop stop-color="#00ABDE"/>
<stop offset="1" stop-color="#007ED8"/>
</linearGradient>
<linearGradient id="paint1_linear" x1="36.1574" y1="4.38771" x2="202.835" y2="286.719" gradientUnits="userSpaceOnUse">
<stop stop-color="#007ED8"/>
<stop offset="0.7065" stop-color="#002D4C"/>
</linearGradient>
<linearGradient id="paint2_linear" x1="87.6329" y1="-11.8555" x2="92.7352" y2="215.483" gradientUnits="userSpaceOnUse">
<stop stop-color="#007ED8"/>
<stop offset="0.7065" stop-color="#002D4C"/>
</linearGradient>
<linearGradient id="paint3_linear" x1="87.2182" y1="-8.447" x2="90.543" y2="126.483" gradientUnits="userSpaceOnUse">
<stop offset="0.57" stop-color="white" stop-opacity="0"/>
<stop offset="0.78" stop-color="white" stop-opacity="0.43"/>
<stop offset="0.9" stop-color="white" stop-opacity="0.5"/>
<stop offset="1" stop-color="white"/>
</linearGradient>
<linearGradient id="paint4_linear" x1="8814.12" y1="25302.8" x2="8853.74" y2="24941.2" gradientUnits="userSpaceOnUse">
<stop offset="0.57" stop-color="white" stop-opacity="0"/>
<stop offset="0.78" stop-color="white" stop-opacity="0.43"/>
<stop offset="0.9" stop-color="white" stop-opacity="0.5"/>
<stop offset="1" stop-color="white"/>
</linearGradient>
<linearGradient id="paint5_linear" x1="4039.98" y1="7621.64" x2="4048.03" y2="7512.93" gradientUnits="userSpaceOnUse">
<stop offset="0.57" stop-color="white" stop-opacity="0"/>
<stop offset="0.78" stop-color="white" stop-opacity="0.43"/>
<stop offset="0.9" stop-color="white" stop-opacity="0.5"/>
<stop offset="1" stop-color="white"/>
</linearGradient>
<linearGradient id="paint6_linear" x1="38.4485" y1="62.6294" x2="206.291" y2="208.442" gradientUnits="userSpaceOnUse">
<stop stop-color="#007ED8"/>
<stop offset="0.7065" stop-color="#002D4C"/>
</linearGradient>
</defs>
</svg>
