<?xml version="1.0" encoding="UTF-8"?>
<svg width="100px" height="100px" viewBox="0 0 100 100" version="1.1" xmlns="http://www.w3.org/2000/svg" xmlns:xlink="http://www.w3.org/1999/xlink">
    <!-- Generator: Sketch 53.2 (72643) - https://sketchapp.com -->
    <title>M365 Fundamentals/selecting-a-cloud-service</title>
    <desc>Created with Sketch.</desc>
    <defs>
        <rect id="path-1" x="0" y="0" width="96" height="96" rx="48"></rect>
        <filter x="-6.2%" y="-100.0%" width="112.5%" height="300.0%" filterUnits="objectBoundingBox" id="filter-3">
            <feOffset dx="0" dy="2" in="SourceAlpha" result="shadowOffsetOuter1"></feOffset>
            <feColorMatrix values="0 0 0 0 0   0 0 0 0 0   0 0 0 0 0  0 0 0 0.0988734149 0" type="matrix" in="shadowOffsetOuter1" result="shadowMatrixOuter1"></feColorMatrix>
            <feMerge>
                <feMergeNode in="shadowMatrixOuter1"></feMergeNode>
                <feMergeNode in="SourceGraphic"></feMergeNode>
            </feMerge>
        </filter>
        <filter x="-5.6%" y="-8.9%" width="111.1%" height="120.6%" filterUnits="objectBoundingBox" id="filter-4">
            <feOffset dx="0" dy="1" in="SourceAlpha" result="shadowOffsetOuter1"></feOffset>
            <feColorMatrix values="0 0 0 0 0   0 0 0 0 0   0 0 0 0 0  0 0 0 0.0964956975 0" type="matrix" in="shadowOffsetOuter1" result="shadowMatrixOuter1"></feColorMatrix>
            <feMerge>
                <feMergeNode in="shadowMatrixOuter1"></feMergeNode>
                <feMergeNode in="SourceGraphic"></feMergeNode>
            </feMerge>
        </filter>
        <filter x="-7.4%" y="-11.8%" width="114.8%" height="123.5%" filterUnits="objectBoundingBox" id="filter-5">
            <feOffset dx="0" dy="2" in="SourceAlpha" result="shadowOffsetOuter1"></feOffset>
            <feColorMatrix values="0 0 0 0 0   0 0 0 0 0   0 0 0 0 0  0 0 0 0.103147645 0" type="matrix" in="shadowOffsetOuter1" result="shadowMatrixOuter1"></feColorMatrix>
            <feMerge>
                <feMergeNode in="shadowMatrixOuter1"></feMergeNode>
                <feMergeNode in="SourceGraphic"></feMergeNode>
            </feMerge>
        </filter>
        <filter x="-6.2%" y="-100.0%" width="112.5%" height="300.0%" filterUnits="objectBoundingBox" id="filter-6">
            <feOffset dx="0" dy="2" in="SourceAlpha" result="shadowOffsetOuter1"></feOffset>
            <feColorMatrix values="0 0 0 0 0   0 0 0 0 0   0 0 0 0 0  0 0 0 0.0988734149 0" type="matrix" in="shadowOffsetOuter1" result="shadowMatrixOuter1"></feColorMatrix>
            <feMerge>
                <feMergeNode in="shadowMatrixOuter1"></feMergeNode>
                <feMergeNode in="SourceGraphic"></feMergeNode>
            </feMerge>
        </filter>
        <filter x="-5.6%" y="-8.9%" width="111.1%" height="120.6%" filterUnits="objectBoundingBox" id="filter-7">
            <feOffset dx="0" dy="1" in="SourceAlpha" result="shadowOffsetOuter1"></feOffset>
            <feColorMatrix values="0 0 0 0 0   0 0 0 0 0   0 0 0 0 0  0 0 0 0.0964956975 0" type="matrix" in="shadowOffsetOuter1" result="shadowMatrixOuter1"></feColorMatrix>
            <feMerge>
                <feMergeNode in="shadowMatrixOuter1"></feMergeNode>
                <feMergeNode in="SourceGraphic"></feMergeNode>
            </feMerge>
        </filter>
        <filter x="-7.4%" y="-11.8%" width="114.8%" height="123.5%" filterUnits="objectBoundingBox" id="filter-8">
            <feOffset dx="0" dy="2" in="SourceAlpha" result="shadowOffsetOuter1"></feOffset>
            <feColorMatrix values="0 0 0 0 0   0 0 0 0 0   0 0 0 0 0  0 0 0 0.103147645 0" type="matrix" in="shadowOffsetOuter1" result="shadowMatrixOuter1"></feColorMatrix>
            <feMerge>
                <feMergeNode in="shadowMatrixOuter1"></feMergeNode>
                <feMergeNode in="SourceGraphic"></feMergeNode>
            </feMerge>
        </filter>
    </defs>
    <g id="Badges" stroke="none" stroke-width="1" fill="none" fill-rule="evenodd">
        <g id="M365-Fundamentals-1" transform="translate(-50.000000, -460.000000)">
            <g id="M365-Fundamentals/selecting-a-cloud-service" transform="translate(50.000000, 460.000000)">
                <g id="Mask" transform="translate(2.000000, 2.000000)">
                    <mask id="mask-2" fill="white">
                        <use xlink:href="#path-1"></use>
                    </mask>
                    <use id="BG" fill="#55A2FF" xlink:href="#path-1"></use>
                    <g id="Group-8" mask="url(#mask-2)">
                        <g transform="translate(15.504645, 68.455618)">
                            <path d="M12.9007421,25.9646289 C12.5699952,26.2953758 12.0157925,26.2768217 11.662458,25.9234872 L0.277504708,14.5385339 C-0.0758297748,14.1851994 -0.0943838686,13.6309967 0.236363021,13.3002498 L4.42655279,9.11006007 C4.75729968,8.77931318 5.3115024,8.79786727 5.66483688,9.15120176 L17.0497902,20.5361551 C17.4031247,20.8894896 17.4216788,21.4436923 17.0909319,21.7744392 L12.9007421,25.9646289 Z" id="Fill-187" fill="#E1E4E1"></path>
                            <path d="M17.0909319,21.7744392 C17.4216788,21.4436923 17.4031247,20.8894896 17.0497902,20.5361551 L11.6916906,15.1780555 C11.0616581,14.548023 10.0395695,14.548023 9.40953704,15.1780555 C8.88195541,15.7056371 8.0252403,15.7056371 7.49765867,15.1780555 L5.73583737,13.4162341 C5.00775903,12.6881558 3.84587027,12.6318448 3.05079689,13.2861035 L0.863168713,15.086283 C0.889520904,15.1379118 0.911032897,15.172331 0.927704691,15.1895406 L11.662458,25.9234872 C12.0157925,26.2768217 12.5699952,26.2953758 12.9007421,25.9646289 L17.0909319,21.7744392 Z" id="Fill-188" fill="#CDD3D1"></path>
                            <path d="M14.9071957,20.974193 C14.9071957,21.4194913 14.5457942,21.7808928 14.100496,21.7808928 C13.6551977,21.7808928 13.2937962,21.4194913 13.2937962,20.974193 C13.2937962,20.5288948 13.6551977,20.1674933 14.100496,20.1674933 C14.5457942,20.1674933 14.9071957,20.5288948 14.9071957,20.974193" id="Fill-189" fill="#8BA6B1"></path>
                            <path d="M52.5768464,0.247656818 C50.4657132,-0.354947882 48.19324,0.158919847 46.5467659,1.61097936 L39.0283244,8.33320823 C38.0441507,9.20121714 36.7768254,9.68039678 35.464325,9.68039678 L28.2177413,9.68039678 C27.5497939,9.68039678 27.0076917,9.13829456 27.0076917,8.47034718 C27.0076917,7.8023998 27.5497939,7.26029759 28.2177413,7.26029759 C28.2177413,7.26029759 33.2709084,7.26029759 33.4612895,7.26029759 C35.2432892,7.26029759 36.6880885,5.81549837 36.6880885,4.03349866 C36.6880885,2.25149895 35.2432892,0.806699732 33.4612895,0.806699732 C33.2709084,0.806699732 26.6801716,0.806699732 24.5875925,0.806699732 C23.4081975,0.806699732 20.7541554,0.806699732 19.4940904,0.806699732 C16.9287852,0.806699732 15.0298141,1.76586571 13.1703712,3.25261332 C11.51583,4.57560088 7.84695966,8.00972164 6.13756292,9.6239278 L16.1478999,19.6342648 C16.8158473,19.4721181 17.5870522,19.3607936 18.4663549,19.3607936 L34.2679893,19.3607936 C37.3479688,19.3607936 40.278709,18.0321591 42.3083655,15.7153175 L53.2456005,2.62177413 C53.9756637,1.82798159 53.6134555,0.543715619 52.5768464,0.247656818" id="Fill-190" fill="#EAC5A7"></path>
                            <path d="M27.3505391,9.311735 C27.1391837,9.09392608 27.0076917,8.79786727 27.0076917,8.47034718 C27.0076917,7.8023998 27.5497939,7.26029759 28.2177413,7.26029759 C28.2177413,7.26029759 29.6673807,7.26594448 31.0403836,7.27159138 C31.0403836,7.26755788 33.4612895,7.26029759 33.4612895,7.26029759 C33.5734208,7.25303729 33.8670595,7.2102822 33.9896779,7.14009933 C35.0674287,6.52378073 34.5350069,4.84019839 33.2926893,4.84019839 L28.7525832,4.84019839 C27.4610569,4.84019839 26.300216,5.79371747 26.2074455,7.08201694 C26.1396828,8.02504893 26.6164423,8.85594965 27.3505391,9.311735" id="Fill-191" fill="#D9B090"></path>
                            <path d="M31.0411903,4.84019839 L31.0411903,3.22679893 C31.0411903,2.78150067 31.4025918,2.4200992 31.8478901,2.4200992 L33.4612895,2.4200992 C34.3526927,2.4200992 35.074689,3.14209545 35.074689,4.03349866 C35.074689,4.92490186 34.3526927,5.64689812 33.4612895,5.64689812 L31.8478901,5.64689812 C31.4025918,5.64689812 31.0411903,5.28549664 31.0411903,4.84019839" id="Fill-192" fill="#F9D8BE"></path>
                            <path d="M31.8478901,5.64689812 L33.4612895,5.64689812 C33.7815493,5.64689812 34.0784148,5.55090085 34.3292984,5.38956091 C34.1090694,5.07010781 33.750088,4.84019839 33.2926893,4.84019839 L31.0411903,4.84019839 C31.0411903,5.28549664 31.4025918,5.64689812 31.8478901,5.64689812" id="Fill-193" fill="#EAC5A7"></path>
                            <path d="M31.8478901,4.03349866 C31.8478901,3.39136567 31.6591223,2.84200315 31.3880712,2.58224584 C31.1831695,2.72825849 31.0411903,2.95574782 31.0411903,3.22679893 L31.0411903,4.84019839 C31.0411903,5.1104428 31.1831695,5.33873882 31.3880712,5.48475148 C31.6591223,5.22499416 31.8478901,4.67563164 31.8478901,4.03349866" id="Fill-194" fill="#FFFFFE"></path>
                            <path d="M31.3880712,5.48475148 C31.5340839,5.34519242 31.6526687,5.1168964 31.7341454,4.84019839 L31.0411903,4.84019839 C31.0411903,5.1104428 31.1831695,5.33873882 31.3880712,5.48475148" id="Fill-195" fill="#F9D8BE"></path>
                            <path d="M51.5821856,1.47787391 L41.5016658,13.2952183 C41.3322588,13.4888262 41.157205,13.6751739 40.9756975,13.8542612 C38.4967093,16.3042083 34.8778543,17.215779 31.455834,16.5518651 L17.1022257,13.7663309 C14.9701183,13.352494 12.7847687,13.5348081 10.7672127,14.2527709 L16.1478999,19.6342648 C16.8158473,19.4721181 17.5870522,19.3607936 18.4663549,19.3607936 L34.2679893,19.3607936 C37.3479688,19.3607936 40.278709,18.0321591 42.3083655,15.7153175 L53.2456005,2.62177413 C53.3819327,2.47334138 53.4440486,2.29667414 53.4545357,2.1079064 C53.5093913,1.13260642 52.1968908,0.717962761 51.5821856,1.47787391" id="Fill-196" fill="#D9B090"></path>
                        </g>
                    </g>
                    <g id="Group-4" mask="url(#mask-2)">
                        <g transform="translate(16.000000, -6.000000)">
                            <g id="Lower" filter="url(#filter-3)" transform="translate(0.000000, 71.378056)">
                                <path d="M62,0 L2,0 C0.896,0 0,0.895 0,2 C0,3.103 0.896,4 2,4 L62,4 C63.104,4 64,3.103 64,2 C64,0.895 63.104,0 62,0" id="Fill-201" fill="#30404D"></path>
                                <path d="M62,0 L2,0 C0.896,0 0,0.895 0,2 L64,2 C64,0.895 63.104,0 62,0" id="Fill-204" fill="#546670"></path>
                            </g>
                            <g id="Cloud" filter="url(#filter-4)" transform="translate(8.500000, 43.178056)">
                                <path d="M10.0539844,8.470575 C11.0271094,3.638505 15.2845313,0 20.390625,0 C24.9553125,0 28.8309375,2.912355 30.2990625,6.98091 C31.1315625,6.57765 32.0610938,6.345 33.046875,6.345 C36.5421094,6.345 39.375,9.185445 39.375,12.69 C39.375,12.79011 39.3644531,12.886695 39.3602344,12.985395 C42.6128906,13.9026 45,16.891095 45,20.445 C45,24.727875 41.5371094,28.2 37.265625,28.2 L9.84375,28.2 C4.4071875,28.2 0,23.78106 0,18.33 C0,12.87894 4.4071875,8.46 9.84375,8.46 C9.91476562,8.46 9.98367188,8.469165 10.0539844,8.470575 Z" id="Fill-11" fill="#FFFFFF"></path>
                                <path d="M39.4195835,13.0066659 C39.4234534,12.9084586 39.3562284,12.6154814 39.3562284,12.5158711 C39.3562284,10.4142343 38.3078203,8.79416923 36.8559525,7.64654647 C37.5512495,8.68754414 38.3100242,10.1176929 38.3100242,11.5031177 C38.3100242,11.9955573 38.2654616,12.2788264 38.241558,12.6413029 C38.7033542,12.7509396 38.9590621,12.8663698 39.4195835,13.0066659 Z" id="Fill-12" fill="#C4CBCD"></path>
                                <path d="M36.9993793,28.2 C41.7580386,28.2 44.8455125,24.9069436 44.994976,20.6510386 C45.0943834,17.8251632 43.7268996,15.5239013 41.5843532,14.0682337 C42.6510438,15.6691832 43.1316163,17.4826113 42.7650076,19.6262315 C42.2524603,22.6223145 39.9766657,25.0864095 37.0557806,25.821365 C35.4236665,26.2322849 33.861349,26.0976855 32.4774008,25.5877745 C33.2550345,24.5245104 33.7196406,23.2141246 33.7196406,21.7905045 C33.7196406,19.6568546 32.6832657,17.7717507 31.0962727,16.6066469 C32.0529806,17.9369733 32.5239319,19.6468843 32.2158395,21.4771513 C31.7730889,24.1107418 29.6728435,26.232997 27.066396,26.6809496 C26.524943,26.7735312 25.9940653,26.7963205 25.480813,26.7571513 C23.4693997,26.6018991 21.810495,25.109911 21.2507115,23.1521662 C21.1195784,22.6921068 21.0293362,22.2206528 21.0293362,21.7905045 C21.0293362,21.5319881 21.0476667,21.278457 21.0786874,21.0284866 C21.2027704,19.9702077 21.5799544,18.9909792 22.1510181,18.1556083 C21.3402487,18.4846291 20.4836531,18.7224926 19.5889867,18.8407122 C19.600972,18.6377448 19.6193024,18.4362018 19.6193024,18.2296736 C19.6193024,14.9309199 18.0266692,12.0153116 15.5830806,10.2 C17.061501,12.2325223 17.809524,14.8411869 17.3872189,17.6414243 C16.7477685,21.8830861 13.3658024,25.2993472 9.16672169,25.9452819 C6.3945952,26.3718694 3.81211826,25.6162611 1.8,24.1228487 C3.5970881,26.5912166 6.48342733,28.2 9.74906566,28.2 L27.3744884,28.2 L36.9993793,28.2 Z" id="Fill-13" fill="#E6E6E6"></path>
                                <path d="M29.2231454,15.6 C30.0933446,14.0352923 30.4042334,12.1440644 30.6,10.2838154 C30.9670158,6.79628999 29.1745873,4.06021366 26.7030315,2.12396751 C27.9801828,3.89744443 28.5652395,5.77156923 28.5652395,8.16073846 C28.5652395,10.9716923 27.5105553,13.5186769 25.8,15.4145846 C26.2530733,15.3027692 26.723103,15.2376615 27.2087325,15.2376615 C27.9154727,15.2376615 28.5916914,15.3692923 29.2231454,15.6 Z" id="Fill-14" fill="#E6E6E6"></path>
                            </g>
                            <g id="Top" filter="url(#filter-5)" transform="translate(43.466488, 26.812320) rotate(24.000000) translate(-43.466488, -26.812320) translate(16.466488, 9.812320)">
                                <path d="M31,4 C31,6.209 29.209,8 27,8 C24.791,8 23,6.209 23,4 C23,1.791 24.791,0 27,0 C29.209,0 31,1.791 31,4" id="Fill-198" fill="#C4CBCD"></path>
                                <path d="M26.999,4.999 C28.281,4.999 29.54,5.096 30.773,5.276 C30.909,4.873 31,4.449 31,4 C31,1.791 29.209,8.52651283e-13 27,8.52651283e-13 C24.791,8.52651283e-13 23,1.791 23,4 C23,4.449 23.091,4.873 23.227,5.276 C24.459,5.096 25.718,4.999 26.999,4.999" id="Fill-199" fill="#E1E4E1"></path>
                                <path d="M31,4 C31,1.791 29.209,0 27,0 L27,8 C29.209,8 31,6.209 31,4" id="Fill-200" fill="#C4CBCD"></path>
                                <path d="M53,32 C53,31.998 52.999,31.995 52.999,31.993 C52.995,17.66 41.333,6 26.999,6 C12.662,6 0.998,17.664 0.998,32.001 C0.998,33.105 0.997,34 1,34 L53,34 C53.003,34 53,32.276 53,32" id="Fill-202" fill="#E1E4E1"></path>
                                <path d="M27,12.919 L27,34 L53,34 C53.003,34 53,32.276 53,32 C53,31.998 52.999,31.995 52.999,31.993 C52.996,20.319 45.259,10.418 34.643,7.146 C30.836,5.973 27,8.935 27,12.919" id="Fill-203" fill="#C4CBCD"></path>
                            </g>
                        </g>
                    </g>
                    <g id="Lower" filter="url(#filter-6)" mask="url(#mask-2)">
                        <g transform="translate(16.000000, 65.378056)">
                            <path d="M62,0 L2,0 C0.896,0 0,0.895 0,2 C0,3.103 0.896,4 2,4 L62,4 C63.104,4 64,3.103 64,2 C64,0.895 63.104,0 62,0" id="Fill-201" fill="#30404D"></path>
                            <path d="M62,0 L2,0 C0.896,0 0,0.895 0,2 L64,2 C64,0.895 63.104,0 62,0" id="Fill-204" fill="#546670"></path>
                        </g>
                    </g>
                    <g id="Cloud" filter="url(#filter-7)" mask="url(#mask-2)">
                        <g transform="translate(24.500000, 37.178056)">
                            <path d="M10.0539844,8.470575 C11.0271094,3.638505 15.2845313,0 20.390625,0 C24.9553125,0 28.8309375,2.912355 30.2990625,6.98091 C31.1315625,6.57765 32.0610938,6.345 33.046875,6.345 C36.5421094,6.345 39.375,9.185445 39.375,12.69 C39.375,12.79011 39.3644531,12.886695 39.3602344,12.985395 C42.6128906,13.9026 45,16.891095 45,20.445 C45,24.727875 41.5371094,28.2 37.265625,28.2 L9.84375,28.2 C4.4071875,28.2 0,23.78106 0,18.33 C0,12.87894 4.4071875,8.46 9.84375,8.46 C9.91476562,8.46 9.98367188,8.469165 10.0539844,8.470575 Z" id="Fill-11" fill="#FFFFFF"></path>
                            <path d="M39.4195835,13.0066659 C39.4234534,12.9084586 39.3562284,12.6154814 39.3562284,12.5158711 C39.3562284,10.4142343 38.3078203,8.79416923 36.8559525,7.64654647 C37.5512495,8.68754414 38.3100242,10.1176929 38.3100242,11.5031177 C38.3100242,11.9955573 38.2654616,12.2788264 38.241558,12.6413029 C38.7033542,12.7509396 38.9590621,12.8663698 39.4195835,13.0066659 Z" id="Fill-12" fill="#C4CBCD"></path>
                            <path d="M36.9993793,28.2 C41.7580386,28.2 44.8455125,24.9069436 44.994976,20.6510386 C45.0943834,17.8251632 43.7268996,15.5239013 41.5843532,14.0682337 C42.6510438,15.6691832 43.1316163,17.4826113 42.7650076,19.6262315 C42.2524603,22.6223145 39.9766657,25.0864095 37.0557806,25.821365 C35.4236665,26.2322849 33.861349,26.0976855 32.4774008,25.5877745 C33.2550345,24.5245104 33.7196406,23.2141246 33.7196406,21.7905045 C33.7196406,19.6568546 32.6832657,17.7717507 31.0962727,16.6066469 C32.0529806,17.9369733 32.5239319,19.6468843 32.2158395,21.4771513 C31.7730889,24.1107418 29.6728435,26.232997 27.066396,26.6809496 C26.524943,26.7735312 25.9940653,26.7963205 25.480813,26.7571513 C23.4693997,26.6018991 21.810495,25.109911 21.2507115,23.1521662 C21.1195784,22.6921068 21.0293362,22.2206528 21.0293362,21.7905045 C21.0293362,21.5319881 21.0476667,21.278457 21.0786874,21.0284866 C21.2027704,19.9702077 21.5799544,18.9909792 22.1510181,18.1556083 C21.3402487,18.4846291 20.4836531,18.7224926 19.5889867,18.8407122 C19.600972,18.6377448 19.6193024,18.4362018 19.6193024,18.2296736 C19.6193024,14.9309199 18.0266692,12.0153116 15.5830806,10.2 C17.061501,12.2325223 17.809524,14.8411869 17.3872189,17.6414243 C16.7477685,21.8830861 13.3658024,25.2993472 9.16672169,25.9452819 C6.3945952,26.3718694 3.81211826,25.6162611 1.8,24.1228487 C3.5970881,26.5912166 6.48342733,28.2 9.74906566,28.2 L27.3744884,28.2 L36.9993793,28.2 Z" id="Fill-13" fill="#E6E6E6"></path>
                            <path d="M29.2231454,15.6 C30.0933446,14.0352923 30.4042334,12.1440644 30.6,10.2838154 C30.9670158,6.79628999 29.1745873,4.06021366 26.7030315,2.12396751 C27.9801828,3.89744443 28.5652395,5.77156923 28.5652395,8.16073846 C28.5652395,10.9716923 27.5105553,13.5186769 25.8,15.4145846 C26.2530733,15.3027692 26.723103,15.2376615 27.2087325,15.2376615 C27.9154727,15.2376615 28.5916914,15.3692923 29.2231454,15.6 Z" id="Fill-14" fill="#E6E6E6"></path>
                        </g>
                    </g>
                    <g id="Top" filter="url(#filter-8)" mask="url(#mask-2)">
                        <g transform="translate(59.466488, 20.812320) rotate(24.000000) translate(-59.466488, -20.812320) translate(32.466488, 3.812320)">
                            <path d="M31,4 C31,6.209 29.209,8 27,8 C24.791,8 23,6.209 23,4 C23,1.791 24.791,0 27,0 C29.209,0 31,1.791 31,4" id="Fill-198" fill="#C4CBCD"></path>
                            <path d="M26.999,4.999 C28.281,4.999 29.54,5.096 30.773,5.276 C30.909,4.873 31,4.449 31,4 C31,1.791 29.209,8.52651283e-13 27,8.52651283e-13 C24.791,8.52651283e-13 23,1.791 23,4 C23,4.449 23.091,4.873 23.227,5.276 C24.459,5.096 25.718,4.999 26.999,4.999" id="Fill-199" fill="#E1E4E1"></path>
                            <path d="M31,4 C31,1.791 29.209,0 27,0 L27,8 C29.209,8 31,6.209 31,4" id="Fill-200" fill="#C4CBCD"></path>
                            <path d="M53,32 C53,31.998 52.999,31.995 52.999,31.993 C52.995,17.66 41.333,6 26.999,6 C12.662,6 0.998,17.664 0.998,32.001 C0.998,33.105 0.997,34 1,34 L53,34 C53.003,34 53,32.276 53,32" id="Fill-202" fill="#E1E4E1"></path>
                            <path d="M27,12.919 L27,34 L53,34 C53.003,34 53,32.276 53,32 C53,31.998 52.999,31.995 52.999,31.993 C52.996,20.319 45.259,10.418 34.643,7.146 C30.836,5.973 27,8.935 27,12.919" id="Fill-203" fill="#C4CBCD"></path>
                        </g>
                    </g>
                </g>
                <g id="Azure-Border" stroke="#0078D4" stroke-width="4">
                    <rect x="2" y="2" width="96" height="96" rx="48"></rect>
                </g>
            </g>
        </g>
    </g>
</svg>