<?xml version="1.0" encoding="UTF-8"?>
<svg width="100px" height="100px" viewBox="0 0 100 100" version="1.1" xmlns="http://www.w3.org/2000/svg" xmlns:xlink="http://www.w3.org/1999/xlink">
    <!-- Generator: Sketch 58 (84663) - https://sketch.com -->
    <title>Drive adoption of Microsoft cloud services to enable business outcomes/service-adoption-framework-phase-3-broad-scale-enablement</title>
    <desc>Created with Sketch.</desc>
    <defs>
        <rect id="path-1" x="0" y="0" width="96" height="96" rx="48"></rect>
        <filter x="-6.2%" y="-6.2%" width="112.5%" height="112.5%" filterUnits="objectBoundingBox" id="filter-3">
            <feOffset dx="0" dy="2" in="SourceAlpha" result="shadowOffsetOuter1"></feOffset>
            <feColorMatrix values="0 0 0 0 0   0 0 0 0 0   0 0 0 0 0  0 0 0 0.0964956975 0" type="matrix" in="shadowOffsetOuter1" result="shadowMatrixOuter1"></feColorMatrix>
            <feMerge>
                <feMergeNode in="shadowMatrixOuter1"></feMergeNode>
                <feMergeNode in="SourceGraphic"></feMergeNode>
            </feMerge>
        </filter>
        <filter x="-11.1%" y="-12.9%" width="122.2%" height="125.8%" filterUnits="objectBoundingBox" id="filter-4">
            <feOffset dx="0" dy="2" in="SourceAlpha" result="shadowOffsetOuter1"></feOffset>
            <feColorMatrix values="0 0 0 0 0   0 0 0 0 0   0 0 0 0 0  0 0 0 0.204982517 0" type="matrix" in="shadowOffsetOuter1" result="shadowMatrixOuter1"></feColorMatrix>
            <feMerge>
                <feMergeNode in="shadowMatrixOuter1"></feMergeNode>
                <feMergeNode in="SourceGraphic"></feMergeNode>
            </feMerge>
        </filter>
    </defs>
    <g id="Badges" stroke="none" stroke-width="1" fill="none" fill-rule="evenodd">
        <g id="Drive-adoption-of-Microsoft-cloud-services-to-enable-business-outcomes" transform="translate(-50.000000, -860.000000)">
            <g id="Drive-adoption-of-Microsoft-cloud-services-to-enable-business-outcomes/service-adoption-framework-phase-3-broad-scale-enablement" transform="translate(50.000000, 860.000000)">
                <g id="Mask" transform="translate(2.000000, 2.000000)">
                    <mask id="mask-2" fill="white">
                        <use xlink:href="#path-1"></use>
                    </mask>
                    <use id="BG" fill="#304C72" xlink:href="#path-1"></use>
                    <g id="Two-Clouds" mask="url(#mask-2)" fill="#FFFFFF" fill-rule="nonzero">
                        <g transform="translate(9.739089, 54.000000)" id="Cloud">
                            <path d="M14.9295112,17.5312337 L6.02574496,17.5312337 C3.0254577,17.5312337 0.584554494,15.0903305 0.584554494,12.0900433 C0.584554494,9.08975601 3.0254577,6.64885281 6.02574496,6.64885281 C6.30108898,6.64885281 6.57788234,6.67372895 6.87496639,6.72614245 C7.92707003,3.16188074 11.17275,0.71300867 14.9295112,0.71300867 C19.5664046,0.71300867 23.3386237,4.48522773 23.3386237,9.1221212 C23.3386237,13.7590147 19.5664046,17.5312337 14.9295112,17.5312337 Z"></path>
                        </g>
                    </g>
                    <g id="Earth" filter="url(#filter-3)" mask="url(#mask-2)">
                        <g transform="translate(16.000000, 16.000000)">
                            <path d="M64,32 C64,49.673 49.673,64 32,64 C14.327,64 0,49.673 0,32 C0,14.327 14.327,0 32,0 C49.673,0 64,14.327 64,32" id="Fill-200" fill="#55B7D9"></path>
                            <path d="M50.852,6.148 C54.715,11.436 57,17.95 57,25 C57,42.673 42.673,57 25,57 C17.95,57 11.436,54.715 6.148,50.852 C11.969,58.82 21.377,64 32,64 C49.673,64 64,49.673 64,32 C64,21.377 58.82,11.968 50.852,6.148" id="Fill-201" fill="#0095B2"></path>
                            <path d="M45.047,8.027 C45.047,8.027 45.545,6.195 45.718,4.892 C46.319,4.607 48.742,6.286 50.793,8.435 C49.408,13.568 46.175,13.263 46.175,13.263 C46.175,13.263 43.508,13.208 43.816,11.209 L45.047,8.027" id="Fill-202" fill="#B0D173"></path>
                            <path d="M37.862,11.158 C38.171,10.542 38.94,10.233 39.71,9.925 C40.479,9.617 39.71,11.31 39.557,12.233 C39.402,13.158 39.248,13.619 40.326,14.698 C41.403,15.775 38.325,15.006 37.554,14.39 C36.785,13.775 37.862,11.158 37.862,11.158" id="Fill-203" fill="#B0D173"></path>
                            <path d="M23.921,41.176 C23.767,41.943 22.316,43.791 21.701,45.021 C21.085,46.252 20.776,46.714 20.007,47.33 C19.237,47.945 18.775,49.024 18.775,49.024 L18.973,51.641 C18.973,51.641 19.742,53.333 20.205,54.104 C20.667,54.873 19.281,59.029 19.281,59.029 C17.947,58.773 16.672,58.415 16.209,57.182 C15.748,55.95 15.081,55.95 15.235,54.565 C15.389,53.181 13.08,51.485 12.619,50.716 C12.157,49.947 11.541,48.868 11.541,48.101 C11.541,47.33 9.847,46.252 9.847,46.252 C9.847,46.252 6.769,44.867 6.308,44.251 C5.845,43.635 5.384,41.02 5.229,39.943 C5.076,38.864 5.691,36.093 5.691,36.093 C5.691,36.093 6.922,35.169 6.153,34.4 C5.384,33.63 5.229,31.63 5.229,31.63 L3.844,30.092 C3.844,30.092 2.767,28.55 2.612,27.782 C2.459,27.014 2.612,26.549 2.767,25.78 C2.92,25.011 2.459,23.626 2.459,22.855 C8.206,8.755 17.852,5.462 17.852,5.462 L18.621,8.694 C18.621,8.694 16.928,9.156 16.004,8.848 C15.081,8.54 14.619,8.54 14.619,8.54 L13.388,10.233 C13.388,10.233 12.926,11.31 12.772,11.927 C12.619,12.543 13.08,13.465 13.08,13.465 C13.08,13.465 15.235,13.619 15.235,13.003 C15.235,12.388 14.927,12.08 14.927,12.08 L14.619,11.002 C14.619,11.002 16.004,10.233 19.7,10.542 C23.394,10.848 22.008,13.465 23.547,14.081 C25.086,14.698 22.316,16.851 21.701,18.083 C21.085,19.315 20.161,16.545 20.161,16.545 C20.161,16.545 21.085,15.466 19.544,15.16 C18.005,14.851 17.698,16.851 18.468,16.698 C19.237,16.545 19.392,17.621 19.237,18.393 C19.083,19.161 19.083,20.084 18.313,21.778 C17.544,23.471 14.619,23.471 14.619,23.471 C14.619,23.471 15.081,24.242 15.543,25.164 C16.004,26.088 15.389,28.243 15.389,28.859 C15.389,29.475 13.542,27.782 13.234,26.242 C12.926,24.702 12.002,25.268 11.387,25.421 C10.771,25.576 8.77,26.036 8.462,25.268 C8.154,24.498 5.384,26.703 4.613,27.165 C3.844,27.627 4.152,28.859 5.384,28.243 C6.615,27.627 7.692,28.09 7.385,29.32 C7.077,30.551 5.845,29.782 6,30.551 C6.153,31.32 7.385,32.092 7.692,33.169 C8,34.246 10.925,32.708 11.849,32.246 C12.772,31.783 15.389,31.32 15.696,32.553 C16.004,33.783 19.456,34.862 20.535,35.169 C21.613,35.479 23.767,35.631 24.998,36.863 C26.23,38.094 24.076,40.402 23.921,41.176" id="Fill-204" fill="#B0D173"></path>
                            <path d="M19.281,59.029 C19.281,59.029 19.68,57.83 19.978,56.601 C18.371,56.347 16.808,55.967 15.29,55.483 C15.459,56.049 15.883,56.31 16.209,57.182 C16.672,58.415 17.947,58.773 19.281,59.029" id="Fill-205" fill="#7CB65A"></path>
                            <path d="M30.32,5.153 C30.167,6.695 27.499,9.002 27.807,9.617 C28.114,10.233 28.011,15.006 25.856,12.696 C23.701,10.386 21.546,7.154 21.701,5.615 C21.732,5.307 21.767,4.82 21.804,4.284 C25.07,1.252 32.445,1.872 32.835,2.588 C31.91,4.128 30.475,3.615 30.32,5.153" id="Fill-206" fill="#B0D173"></path>
                            <path d="M33.86,14.235 C33.399,13.465 34.938,13.003 34.938,13.003 C37.093,13.465 36.272,15.006 36.118,15.62 C35.964,16.236 34.323,15.006 33.86,14.235" id="Fill-207" fill="#B0D173"></path>
                            <path d="M58.182,32.604 C58.182,32.604 59.366,34.352 61.056,34.246 C59.945,47.118 49.203,55.385 49.203,55.385 C47.56,53.746 48.382,52.309 48.382,52.309 L49.372,49.845 L49.628,45.69 C49.628,45.69 49.1,41.379 44.994,43.431 C40.582,44.56 42.43,45.087 37.967,45.398 C33.502,45.702 35.194,36.71 35.194,36.71 C34.938,33.015 35.604,33.94 35.604,31.065 C35.604,28.192 45.047,29.834 45.047,29.834 C51.204,33.94 52.025,28.909 52.025,28.909 L56.539,27.268 L56.95,25.215 L54.487,22.344 L50.793,20.7 C50.793,20.7 49.1,21.778 50.793,24.396 C50.793,24.396 50.229,27.371 48.843,26.601 L45.047,21.932 C45.047,21.932 43.764,24.139 41.711,25.369 C39.66,26.601 36.169,25.317 36.169,25.317 C36.169,25.317 35.042,21.83 37.197,20.751 L40.377,20.7 C40.377,20.7 39.71,18.904 40.121,17.263 C40.531,15.62 41.455,17.059 43.096,15.827 C44.739,14.595 45.867,18.237 48.33,17.828 C50.793,17.417 49.561,17.007 51.204,16.185 C52.845,15.364 54.076,17.828 54.076,17.828 L57.361,18.237 C57.361,18.237 55.256,12.621 54.511,11.866 L54.282,11.876 C54.321,11.745 54.401,11.755 54.511,11.866 C56.421,12.221 63.016,23.521 61.07,30.289 C60.39,29.986 59.825,29.731 59.825,29.731 L55.719,29.731 L58.182,32.604" id="Fill-208" fill="#B0D173"></path>
                            <path d="M58.182,32.603 L56.495,30.637 C55.503,36.216 53.072,41.296 49.59,45.474 C49.617,45.606 49.628,45.69 49.628,45.69 L49.372,49.845 L48.382,52.309 C48.382,52.309 47.56,53.746 49.203,55.385 C49.203,55.385 59.945,47.118 61.056,34.246 C59.366,34.352 58.182,32.603 58.182,32.603" id="Fill-209" fill="#7CB65A"></path>
                            <path d="M54.282,11.876 L54.511,11.866 C54.401,11.755 54.321,11.745 54.282,11.876" id="Fill-210" fill="#7CB65A"></path>
                            <path d="M57,25 C57,26.608 56.878,28.187 56.649,29.731 L59.825,29.731 C59.825,29.731 60.39,29.986 61.07,30.289 C63.016,23.521 56.421,12.221 54.511,11.866 C55.256,12.621 57.361,18.237 57.361,18.237 L56.23,18.096 C56.721,20.322 57,22.627 57,25" id="Fill-211" fill="#7CB65A"></path>
                        </g>
                    </g>
                    <g id="Group-16" filter="url(#filter-4)" mask="url(#mask-2)">
                        <g transform="translate(30.000000, 32.500000)">
                            <path d="M35.8106769,15.1076293 C35.8106769,13.2533077 34.3077475,11.7503784 32.4534259,11.7503784 L25.738924,11.7503784 L25.738924,3.91679278 C25.738924,1.75752088 25.1004868,0 22.9412149,0 C20.781943,0 20.1435057,1.75752088 20.1435057,3.91679278 L20.1435057,4.47633461 C20.1435057,9.4126126 15.0080309,13.4290038 10.0717529,13.4290038 L8.95266922,13.4290038 L8.95266922,27.4175495 L13.4290038,27.4175495 C14.7965241,27.4175495 15.9525375,28.2518263 16.3447763,29.0368635 C17.0749784,30.4972677 18.8671908,30.7748004 21.2625894,30.7748004 L29.6557168,30.7748004 C32.1238558,30.7748004 34.1320514,28.7666048 34.1320514,26.2984658 L34.1320514,18.0122109 C35.1347504,17.4314065 35.8106769,16.3498122 35.8106769,15.1076293" id="Fill-89" fill="#EFB252"></path>
                            <path d="M7.83358557,30.2152586 L1.11908365,30.2152586 C0.501349476,30.2152586 0,29.7139091 0,29.096175 L0,11.1908365 C0,10.5725428 0.501349476,10.0717529 1.11908365,10.0717529 L7.83358557,10.0717529 C9.68510947,10.0717529 11.1908365,11.5774799 11.1908365,13.4290038 L11.1908365,26.8580077 C11.1908365,28.7095316 9.68510947,30.2152586 7.83358557,30.2152586" id="Fill-90" fill="#546670"></path>
                            <path d="M30.7748004,29.096175 L22.3816731,29.096175 C19.9862745,29.096175 18.194062,28.8186422 17.4638599,27.3582381 C17.0716211,26.5732009 15.9156077,25.738924 14.5480875,25.738924 C13.3120596,25.738924 12.3099202,24.7367846 12.3099202,23.5007567 L12.3099202,13.1346848 C11.9450989,13.2292474 11.5724441,13.3031069 11.1908365,13.3512275 L11.1908365,27.4175495 L13.4290038,27.4175495 C14.7965241,27.4175495 15.9525375,28.2518263 16.3447763,29.0368635 C17.0749784,30.4972677 18.8671908,30.7748004 21.2625894,30.7748004 L29.6557168,30.7748004 C31.5693498,30.7748004 33.2020929,29.565071 33.8410897,27.872457 C33.0387067,28.6289575 31.9615887,29.096175 30.7748004,29.096175" id="Fill-91" fill="#CC9547"></path>
                            <path d="M9.51221105,10.5261008 L9.51221105,18.4648803 C9.51221105,19.3920411 8.76074637,20.1435057 7.83358557,20.1435057 L2.79770913,20.1435057 C1.87054833,20.1435057 1.11908365,20.8949704 1.11908365,21.8221312 L1.11908365,30.2152586 L7.83358557,30.2152586 C9.68790718,30.2152586 11.1908365,28.7123293 11.1908365,26.8580077 L11.1908365,13.4290038 C11.1908365,12.1896187 10.5137909,11.1074648 9.51221105,10.5261008" id="Fill-92" fill="#30404D"></path>
                            <path d="M6.99427283,26.0186949 C6.99427283,26.7914222 6.36814552,27.4175495 5.59541826,27.4175495 C4.822691,27.4175495 4.1965637,26.7914222 4.1965637,26.0186949 C4.1965637,25.2459677 4.822691,24.6198404 5.59541826,24.6198404 C6.36814552,24.6198404 6.99427283,25.2459677 6.99427283,26.0186949" id="Fill-93" fill="#FFFFFE"></path>
                            <path d="M5.89757085,24.6545319 C6.05871889,24.8822655 6.15496009,25.1586791 6.15496009,25.4591531 C6.15496009,26.2318804 5.52883279,26.8580077 4.75610552,26.8580077 C4.65203074,26.8580077 4.55131321,26.8451382 4.45395294,26.8233161 C4.70742538,27.1819824 5.12316496,27.4175495 5.59541826,27.4175495 C6.36814552,27.4175495 6.99427283,26.7914222 6.99427283,26.0186949 C6.99427283,25.3500424 6.52481724,24.7927388 5.89757085,24.6545319" id="Fill-94" fill="#E1E4E1"></path>
                        </g>
                    </g>
                    <path d="M82.6455574,40.3265371 L65.7501257,40.3265371 C62.7557725,40.3265371 60.3194513,37.8902158 60.3194513,34.8958626 C60.3194513,32.5659041 61.8091154,30.5185037 63.9929345,29.7733729 C64.448731,24.8297273 68.5859696,21.0174723 73.5944333,21.0174723 C78.4756201,21.0174723 82.579267,24.6968508 83.1664677,29.48994 C85.9174543,29.7530441 88.0762319,32.0771072 88.0762319,34.8958626 C88.0762319,37.8902158 85.6399106,40.3265371 82.6455574,40.3265371 Z" id="Cloud" fill="#FFFFFF" fill-rule="nonzero" opacity="0.900000036" mask="url(#mask-2)"></path>
                </g>
                <g id="Azure-Border" stroke="#0078D4" stroke-width="4">
                    <rect x="2" y="2" width="96" height="96" rx="48"></rect>
                </g>
            </g>
        </g>
    </g>
</svg>