<svg width="100" height="100" viewBox="0 0 100 100" fill="none" xmlns="https://www.w3.org/2000/svg">
<g clip-path="url(#clip0)">
<path d="M49.6401 96.4481C40.382 96.4481 31.3317 93.7028 23.6339 88.5592C15.936 83.4157 9.93624 76.105 6.3933 67.5516C2.85036 58.9981 1.92337 49.5862 3.72954 40.506C5.53571 31.4257 9.99394 23.085 16.5404 16.5385C23.0869 9.99198 31.4277 5.53376 40.5079 3.72759C49.5882 1.92141 59.0001 2.84841 67.5535 6.39135C76.1069 9.93428 83.4176 15.934 88.5612 23.6319C93.7047 31.3298 96.4501 40.38 96.4501 49.6381C96.4505 55.7854 95.24 61.8726 92.8878 67.5521C90.5355 73.2315 87.0875 78.392 82.7407 82.7388C78.3939 87.0856 73.2335 90.5335 67.554 92.8858C61.8746 95.2381 55.7874 96.4486 49.6401 96.4481V96.4481Z" fill="url(#paint0_linear)"/>
<path fill-rule="evenodd" clip-rule="evenodd" d="M95.54 49.64C95.54 58.7182 92.848 67.5925 87.8045 75.1407C82.7609 82.6889 75.5923 88.572 67.2052 92.0461C58.818 95.5201 49.5891 96.4291 40.6854 94.658C31.7816 92.887 23.603 88.5154 17.1838 82.0962C10.7646 75.677 6.39302 67.4984 4.62196 58.5946C2.85089 49.6909 3.75987 40.462 7.23393 32.0748C10.708 23.6877 16.5911 16.5191 24.1393 11.4755C31.6875 6.43199 40.5618 3.74 49.64 3.74C55.6677 3.73998 61.6363 4.9272 67.2052 7.23388C72.774 9.54057 77.834 12.9215 82.0963 17.1837C86.3585 21.446 89.7394 26.5059 92.0461 32.0748C94.3528 37.6437 95.54 43.6123 95.54 49.64V49.64ZM49.64 3.62732e-07C59.4579 3.62732e-07 69.0553 2.91134 77.2185 8.36585C85.3818 13.8204 91.7442 21.5731 95.5014 30.6436C99.2585 39.7141 100.242 49.6951 98.3262 59.3243C96.4108 68.9535 91.6831 77.7985 84.7408 84.7408C77.7985 91.6831 68.9535 96.4108 59.3243 98.3262C49.6951 100.242 39.7141 99.2585 30.6436 95.5014C21.5731 91.7442 13.8204 85.3818 8.36585 77.2185C2.91134 69.0553 3.62732e-07 59.4579 3.62732e-07 49.64C-0.000787738 43.121 1.28265 36.6656 3.77702 30.6427C6.27138 24.6197 9.9278 19.1471 14.5375 14.5375C19.1471 9.9278 24.6197 6.27138 30.6427 3.77702C36.6656 1.28265 43.121 -0.000787738 49.64 3.62732e-07V3.62732e-07Z" fill="#F2F1F0"/>
<path fill-rule="evenodd" clip-rule="evenodd" d="M92.7296 49.6386C92.7296 58.161 90.2024 66.492 85.4676 73.5781C80.7328 80.6643 74.0031 86.1872 66.1294 89.4486C58.2557 92.71 49.5918 93.5633 41.2331 91.9007C32.8745 90.238 25.1966 86.1341 19.1703 80.1079C13.1441 74.0816 9.04017 66.4037 7.37753 58.0451C5.7149 49.6864 6.56822 41.0225 9.8296 33.1488C13.091 25.2751 18.6139 18.5454 25.7 13.8106C32.7862 9.07581 41.1172 6.54862 49.6396 6.54862C55.2983 6.54828 60.9017 7.6626 66.1298 9.82795C71.3579 11.9933 76.1082 15.1673 80.1096 19.1686C84.1109 23.17 87.2849 27.9203 89.4502 33.1484C91.6156 38.3765 92.7299 43.9799 92.7296 49.6386V49.6386ZM49.6396 2.80862C58.9017 2.80862 67.9558 5.55515 75.6569 10.7009C83.3581 15.8466 89.3604 23.1605 92.9049 31.7176C96.4493 40.2746 97.3767 49.6906 95.5697 58.7747C93.7628 67.8588 89.3027 76.2031 82.7534 82.7524C76.2041 89.3017 67.8598 93.7619 58.7757 95.5688C49.6915 97.3757 40.2756 96.4484 31.7185 92.9039C23.1614 89.3594 15.8476 83.3571 10.7018 75.656C5.5561 67.9548 2.80957 58.9007 2.80957 49.6386C2.81076 37.2189 7.745 25.3082 16.5271 16.5261C25.3091 7.74403 37.2198 2.80979 49.6396 2.80859V2.80862Z" fill="#0078D4"/>
<path fill-rule="evenodd" clip-rule="evenodd" d="M33.9218 71.2032C33.0925 71.2007 32.2978 70.8702 31.7114 70.2838C31.1249 69.6973 30.7944 68.9027 30.792 68.0733V28.9502C30.7944 28.1208 31.1249 27.3262 31.7114 26.7397C32.2978 26.1533 33.0925 25.8227 33.9218 25.8203H65.2204C66.0497 25.8227 66.8444 26.1533 67.4308 26.7397C68.0173 27.3262 68.3478 28.1208 68.3502 28.9502V68.0733C68.3478 68.9027 68.0173 69.6973 67.4309 70.2838C66.8444 70.8702 66.0497 71.2007 65.2204 71.2032H33.9218Z" fill="#30404D"/>
<path fill-rule="evenodd" clip-rule="evenodd" d="M65.2205 25.8203H49.5713V71.2032H65.2205C66.0499 71.2007 66.8446 70.8702 67.431 70.2838C68.0175 69.6973 68.348 68.9027 68.3504 68.0733V28.9502C68.348 28.1208 68.0174 27.3262 67.431 26.7397C66.8446 26.1533 66.0499 25.8227 65.2205 25.8203V25.8203Z" fill="#182A37"/>
<path fill-rule="evenodd" clip-rule="evenodd" d="M33.1396 67.2911V29.7329C33.1407 29.3182 33.3059 28.9208 33.5992 28.6275C33.8924 28.3343 34.2899 28.169 34.7046 28.168H64.4382C64.8529 28.169 65.2503 28.3343 65.5435 28.6275C65.8368 28.9208 66.002 29.3182 66.0031 29.7329V67.2911C66.002 67.7058 65.8368 68.1033 65.5435 68.3965C65.2503 68.6897 64.8529 68.855 64.4382 68.856H34.7046C34.2899 68.855 33.8924 68.6897 33.5992 68.3965C33.3059 68.1033 33.1407 67.7058 33.1396 67.2911V67.2911Z" fill="white"/>
<path fill-rule="evenodd" clip-rule="evenodd" d="M40.9644 28.1677H41.7468V25.8203H40.9644V28.1677Z" fill="#182A37"/>
<path fill-rule="evenodd" clip-rule="evenodd" d="M40.4403 53.5572C39.6149 53.5572 38.8081 53.3125 38.1218 52.854C37.4355 52.3954 36.9006 51.7436 36.5848 50.9811C36.2689 50.2186 36.1863 49.3795 36.3473 48.57C36.5083 47.7604 36.9058 47.0169 37.4894 46.4332C38.073 45.8496 38.8166 45.4521 39.6261 45.2911C40.4356 45.1301 41.2747 45.2127 42.0373 45.5286C42.7998 45.8445 43.4516 46.3794 43.9101 47.0656C44.3687 47.7519 44.6134 48.5588 44.6134 49.3841C44.6134 50.4909 44.1737 51.5523 43.3911 52.3349C42.6085 53.1175 41.5471 53.5572 40.4403 53.5572V53.5572Z" fill="#72C472"/>
<path fill-rule="evenodd" clip-rule="evenodd" d="M42.3575 48.2231C42.2596 48.1253 42.1268 48.0703 41.9884 48.0703C41.85 48.0703 41.7172 48.1253 41.6193 48.2231L39.8987 49.9425L39.2772 49.327C39.2626 49.3054 39.2462 49.2851 39.2281 49.2665C39.1309 49.169 38.9991 49.114 38.8614 49.1133C38.7237 49.1127 38.5914 49.1665 38.4932 49.263C38.3951 49.3595 38.3391 49.491 38.3374 49.6286C38.3358 49.7663 38.3886 49.899 38.4845 49.9978L38.4782 50.0041L39.5312 51.0474C39.6292 51.1452 39.762 51.2002 39.9004 51.2002C40.0389 51.2002 40.1716 51.1452 40.2696 51.0474L42.356 48.962L42.3575 48.9608C42.406 48.9123 42.4444 48.8548 42.4707 48.7916C42.4969 48.7283 42.5104 48.6604 42.5104 48.5919C42.5104 48.5234 42.4969 48.4556 42.4706 48.3923C42.4444 48.329 42.406 48.2715 42.3575 48.2231Z" fill="white"/>
<path fill-rule="evenodd" clip-rule="evenodd" d="M40.4403 42.6002C39.6149 42.6002 38.8081 42.3555 38.1218 41.8969C37.4355 41.4384 36.9006 40.7866 36.5848 40.0241C36.2689 39.2615 36.1863 38.4224 36.3473 37.6129C36.5083 36.8034 36.9058 36.0598 37.4894 35.4762C38.073 34.8926 38.8166 34.4951 39.6261 34.3341C40.4356 34.1731 41.2747 34.2557 42.0373 34.5716C42.7998 34.8874 43.4516 35.4223 43.9101 36.1086C44.3687 36.7949 44.6134 37.6017 44.6134 38.4271C44.6134 39.5339 44.1737 40.5953 43.3911 41.3779C42.6085 42.1605 41.5471 42.6002 40.4403 42.6002V42.6002Z" fill="#72C472"/>
<path fill-rule="evenodd" clip-rule="evenodd" d="M42.3575 37.27C42.2596 37.1722 42.1268 37.1172 41.9884 37.1172C41.85 37.1172 41.7172 37.1722 41.6193 37.27L39.8987 38.9894L39.2772 38.3738C39.2626 38.3522 39.2462 38.332 39.2281 38.3133C39.1309 38.2159 38.9991 38.1608 38.8614 38.1602C38.7237 38.1595 38.5914 38.2133 38.4932 38.3099C38.3951 38.4064 38.3391 38.5378 38.3374 38.6755C38.3358 38.8131 38.3886 38.9459 38.4845 39.0447L38.4782 39.051L39.5312 40.0943C39.6292 40.1921 39.762 40.2471 39.9004 40.2471C40.0389 40.2471 40.1716 40.1921 40.2696 40.0943L42.356 38.0089L42.3575 38.0076C42.406 37.9592 42.4444 37.9017 42.4707 37.8384C42.4969 37.7751 42.5104 37.7073 42.5104 37.6388C42.5104 37.5703 42.4969 37.5025 42.4706 37.4392C42.4444 37.3759 42.406 37.3184 42.3575 37.27V37.27Z" fill="white"/>
<path d="M49.5713 35.207H61.0935C61.299 35.207 61.5025 35.2475 61.6924 35.3261C61.8822 35.4048 62.0548 35.5201 62.2001 35.6654C62.3454 35.8107 62.4607 35.9832 62.5393 36.1731C62.6179 36.3629 62.6584 36.5664 62.6584 36.7719V36.7719C62.6584 37.187 62.4936 37.585 62.2001 37.8785C61.9066 38.172 61.5085 38.3369 61.0935 38.3369H49.5713C49.3658 38.3369 49.1623 38.2964 48.9724 38.2178C48.7825 38.1391 48.61 38.0238 48.4647 37.8785C48.3194 37.7332 48.2041 37.5607 48.1255 37.3708C48.0468 37.181 48.0063 36.9775 48.0063 36.7719V36.7719C48.0063 36.3569 48.1712 35.9589 48.4647 35.6654C48.7582 35.3719 49.1562 35.207 49.5713 35.207V35.207Z" fill="#E8E8E8"/>
<path d="M49.5713 47.7266H59.5286C59.9436 47.7266 60.3417 47.8914 60.6351 48.1849C60.9286 48.4784 61.0935 48.8764 61.0935 49.2915V49.2915C61.0935 49.7065 60.9286 50.1046 60.6351 50.3981C60.3417 50.6915 59.9436 50.8564 59.5286 50.8564H49.5713C49.1562 50.8564 48.7582 50.6915 48.4647 50.3981C48.1712 50.1046 48.0063 49.7065 48.0063 49.2915V49.2915C48.0063 48.8764 48.1712 48.4784 48.4647 48.1849C48.7582 47.8914 49.1562 47.7266 49.5713 47.7266V47.7266Z" fill="#E8E8E8"/>
<path d="M49.5713 41.4688H61.0935C61.299 41.4687 61.5025 41.5092 61.6924 41.5879C61.8822 41.6665 62.0548 41.7818 62.2001 41.9271C62.3454 42.0724 62.4607 42.2449 62.5393 42.4348C62.6179 42.6247 62.6584 42.8282 62.6584 43.0337V43.0337C62.6584 43.4487 62.4935 43.8468 62.2001 44.1402C61.9066 44.4337 61.5085 44.5986 61.0935 44.5986H49.5713C49.3658 44.5986 49.1623 44.5581 48.9724 44.4795C48.7825 44.4008 48.61 44.2855 48.4647 44.1402C48.3194 43.9949 48.2041 43.8224 48.1255 43.6325C48.0468 43.4427 48.0063 43.2392 48.0063 43.0337C48.0064 42.6186 48.1712 42.2206 48.4647 41.9271C48.7582 41.6336 49.1562 41.4688 49.5713 41.4688Z" fill="#E8E8E8"/>
<path d="M49.5713 53.9883H61.0935C61.299 53.9883 61.5025 54.0288 61.6924 54.1074C61.8822 54.186 62.0548 54.3013 62.2001 54.4466C62.3454 54.5919 62.4607 54.7645 62.5393 54.9543C62.6179 55.1442 62.6584 55.3477 62.6584 55.5532V55.5532C62.6584 55.9682 62.4936 56.3663 62.2001 56.6598C61.9066 56.9533 61.5085 57.1181 61.0935 57.1181H49.5713C49.1562 57.1181 48.7582 56.9533 48.4647 56.6598C48.1712 56.3663 48.0063 55.9682 48.0063 55.5532V55.5532C48.0063 55.1382 48.1712 54.7401 48.4647 54.4466C48.7582 54.1532 49.1562 53.9883 49.5713 53.9883V53.9883Z" fill="#E8E8E8"/>
<path d="M49.5713 60.2461H57.1812C57.5962 60.2461 57.9943 60.411 58.2878 60.7044C58.5812 60.9979 58.7461 61.396 58.7461 61.811C58.7461 62.2261 58.5812 62.6241 58.2878 62.9176C57.9943 63.2111 57.5962 63.3759 57.1812 63.3759H49.5713C49.1562 63.3759 48.7582 63.2111 48.4647 62.9176C48.1712 62.6241 48.0063 62.2261 48.0063 61.811V61.811C48.0063 61.396 48.1712 60.9979 48.4647 60.7044C48.7582 60.411 49.1562 60.2461 49.5713 60.2461V60.2461Z" fill="#E8E8E8"/>
<path fill-rule="evenodd" clip-rule="evenodd" d="M56.6134 29.7317H42.529C42.3217 29.7311 42.123 29.6484 41.9764 29.5018C41.8298 29.3552 41.7472 29.1566 41.7466 28.9492V29.7317C41.7472 29.939 41.8298 30.1377 41.9764 30.2843C42.123 30.4309 42.3217 30.5135 42.529 30.5141H56.6134C56.8207 30.5135 57.0194 30.4309 57.166 30.2843C57.3126 30.1377 57.3952 29.939 57.3958 29.7317V28.9492C57.3952 29.1566 57.3126 29.3552 57.166 29.5018C57.0194 29.6484 56.8207 29.7311 56.6134 29.7317V29.7317Z" fill="#546670"/>
<path fill-rule="evenodd" clip-rule="evenodd" d="M49.5712 22.6898C49.9861 22.6903 50.3839 22.8553 50.6773 23.1487C50.9707 23.4421 51.1357 23.8399 51.1361 24.2549H48.0063C48.0065 23.8399 48.1715 23.442 48.4649 23.1486C48.7583 22.8551 49.1562 22.6901 49.5712 22.6898V22.6898ZM56.6134 24.2549H52.7011C52.7011 23.4248 52.3713 22.6287 51.7843 22.0417C51.1974 21.4548 50.4013 21.125 49.5712 21.125C48.7411 21.125 47.945 21.4548 47.3581 22.0417C46.7711 22.6287 46.4414 23.4248 46.4414 24.2549H42.529C42.3217 24.2555 42.123 24.3381 41.9764 24.4847C41.8298 24.6313 41.7472 24.83 41.7466 25.0373V28.9496C41.7472 29.157 41.8298 29.3557 41.9764 29.5023C42.123 29.6489 42.3217 29.7315 42.529 29.7321H56.6134C56.8207 29.7315 57.0194 29.6489 57.166 29.5023C57.3126 29.3557 57.3952 29.157 57.3958 28.9496V25.0373C57.3952 24.8299 57.3126 24.6313 57.166 24.4847C57.0194 24.3381 56.8207 24.2555 56.6134 24.2549V24.2549Z" fill="#ADBDC4"/>
<path fill-rule="evenodd" clip-rule="evenodd" d="M57.3959 28.9487V25.0364C57.3953 24.829 57.3127 24.6304 57.1661 24.4838C57.0195 24.3371 56.8208 24.2545 56.6135 24.2539H53.4836L51.1362 29.7312H56.6135C56.8208 29.7306 57.0195 29.6479 57.1661 29.5013C57.3127 29.3547 57.3953 29.156 57.3959 28.9487Z" fill="#8BA6B1"/>
<path fill-rule="evenodd" clip-rule="evenodd" d="M50.1072 21.1797L49.4547 22.7024C49.4938 22.6992 49.5314 22.6906 49.5713 22.6906C49.9862 22.691 50.384 22.8561 50.6774 23.1494C50.9708 23.4428 51.1358 23.8406 51.1362 24.2555H48.7888L46.4414 29.7328H49.5713L52.4468 23.0224C52.2406 22.545 51.9188 22.1266 51.5103 21.8049C51.1018 21.4831 50.6196 21.2683 50.1072 21.1797Z" fill="#8BA6B1"/>
<path opacity="0.2" fill-rule="evenodd" clip-rule="evenodd" d="M68.3505 71.2015V54.1602L53.9039 68.6067C53.3298 69.1655 52.8926 69.8495 52.6266 70.6052L52.4697 71.2015H68.3505Z" fill="#767676"/>
<path d="M43.4205 63.6524H37.4595C37.0061 63.6532 36.5672 63.4929 36.221 63.2001C35.8748 62.9073 35.6439 62.5011 35.5694 62.0538C35.495 61.6066 35.5818 61.1475 35.8144 60.7583C36.047 60.3691 36.4103 60.0752 36.8395 59.9291C36.9167 59.0932 37.3003 58.3153 37.9164 57.7451C38.5325 57.1749 39.3376 56.8526 40.177 56.8402C41.0164 56.8278 41.8307 57.1262 42.4634 57.6779C43.096 58.2296 43.5024 58.9958 43.6043 59.8291C44.0942 59.8763 44.5472 60.1103 44.8693 60.4825C45.1914 60.8547 45.3579 61.3366 45.3342 61.8283C45.3106 62.32 45.0986 62.7837 44.7424 63.1233C44.3861 63.4629 43.9127 63.6523 43.4205 63.6524L43.4205 63.6524Z" fill="#E8E8E8"/>
<path opacity="0.2" fill-rule="evenodd" clip-rule="evenodd" d="M57.396 25.8188V25.0139C57.396 24.8123 57.3159 24.619 57.1734 24.4765C57.0309 24.334 56.8376 24.2539 56.636 24.2539H55.396V39.1387C55.396 39.8533 55.6799 40.5386 56.1852 41.0439C56.6904 41.5492 57.3758 41.833 58.0903 41.833H58.8687V43.7397C58.8555 44.2675 58.9896 44.7886 59.2557 45.2446C59.5218 45.7007 59.9096 46.0737 60.3756 46.3219C60.8769 46.5683 61.4425 46.6528 61.994 46.5635C62.5455 46.4742 63.0555 46.2157 63.4536 45.8237L67.5288 41.833H68.3504V25.8188H57.396Z" fill="#767676"/>
<path fill-rule="evenodd" clip-rule="evenodd" d="M55.3177 70.0195C55.0016 70.3354 54.7452 70.7058 54.5608 71.1129L52.4582 79.1025C52.4321 79.2853 52.4489 79.4716 52.5073 79.6468C52.5657 79.822 52.6641 79.9811 52.7946 80.1117C52.9252 80.2423 53.0844 80.3406 53.2595 80.399C53.4347 80.4574 53.6211 80.4742 53.8038 80.4481L61.7935 78.3456C62.2005 78.1611 62.5709 77.9047 62.8868 77.5887L55.3177 70.0195Z" fill="#E1E4E1"/>
<path fill-rule="evenodd" clip-rule="evenodd" d="M55.3184 70.0195C55.0023 70.3354 54.7459 70.7058 54.5615 71.1129L52.4589 79.1025C52.4332 79.2853 52.4502 79.4715 52.5086 79.6466C52.5669 79.8217 52.6651 79.9809 52.7953 80.1117L59.1029 73.8041L55.3184 70.0195Z" fill="#C5CCCD"/>
<path fill-rule="evenodd" clip-rule="evenodd" d="M73.3998 51.9374L71.2972 54.0399C71.0747 54.2632 70.9497 54.5657 70.9497 54.8809C70.9497 55.1962 71.0747 55.4986 71.2972 55.7219L77.1844 61.609C77.4076 61.8317 77.7101 61.9567 78.0254 61.9567C78.3407 61.9567 78.6431 61.8317 78.8664 61.609L80.9689 59.5065C81.1916 59.2832 81.3166 58.9808 81.3166 58.6655C81.3166 58.3502 81.1916 58.0477 80.9689 57.8245L75.0818 51.9374C74.8585 51.7148 74.5561 51.5898 74.2408 51.5898C73.9255 51.5898 73.6231 51.7148 73.3998 51.9374V51.9374Z" fill="#546670"/>
<path fill-rule="evenodd" clip-rule="evenodd" d="M76.5537 55.0913L73.3999 51.9375L71.2974 54.04L78.8665 61.6092L79.7075 60.7682L76.5537 57.6144C76.4708 57.5316 76.405 57.4333 76.3602 57.325C76.3153 57.2168 76.2922 57.1008 76.2922 56.9836C76.2922 56.8664 76.3153 56.7504 76.3602 56.6422C76.405 56.534 76.4708 56.4356 76.5537 56.3528C76.6366 56.27 76.7023 56.1717 76.7472 56.0635C76.7921 55.9552 76.8152 55.8392 76.8152 55.7221C76.8152 55.6049 76.7921 55.4889 76.7472 55.3807C76.7024 55.2724 76.6366 55.1741 76.5537 55.0913Z" fill="#30404D"/>
<path fill-rule="evenodd" clip-rule="evenodd" d="M73.8206 56.5664L76.3436 59.0894L60.3644 75.0687L58.2618 74.6482L57.8413 72.5457L73.8206 56.5664Z" fill="#EFB252"/>
<path fill-rule="evenodd" clip-rule="evenodd" d="M71.2971 54.043L73.8202 56.566L57.8409 72.5453L55.7384 72.1248L55.3179 70.0222L71.2971 54.043Z" fill="#CC9547"/>
<path fill-rule="evenodd" clip-rule="evenodd" d="M76.343 59.0859L78.866 61.609L62.8868 77.5883L60.7842 77.1678L60.3638 75.0653L76.343 59.0859Z" fill="#F7CB64"/>
<path fill-rule="evenodd" clip-rule="evenodd" d="M53.0197 76.9727L52.4587 79.1029C52.4326 79.2857 52.4494 79.4721 52.5078 79.6473C52.5662 79.8224 52.6646 79.9816 52.7952 80.1122C52.9257 80.2427 53.0849 80.3411 53.2601 80.3995C53.4352 80.4578 53.6216 80.4747 53.8044 80.4485L55.9347 79.8875L53.0197 76.9727Z" fill="#30404D"/>
<path fill-rule="evenodd" clip-rule="evenodd" d="M53.0199 76.9727L52.4589 79.1029C52.4332 79.2857 52.4502 79.472 52.5086 79.6471C52.5669 79.8222 52.6651 79.9814 52.7953 80.1122L54.4773 78.4302L53.0199 76.9727Z" fill="#182A37"/>
<path fill-rule="evenodd" clip-rule="evenodd" d="M70.8774 53.6191C70.989 53.5078 71.1402 53.4453 71.2979 53.4453C71.4555 53.4453 71.6067 53.5078 71.7184 53.6191L79.2875 61.1882C79.3984 61.2999 79.4606 61.4509 79.4603 61.6083C79.4601 61.7657 79.3974 61.9166 79.2861 62.0279C79.1749 62.1391 79.024 62.2018 78.8666 62.202C78.7092 62.2023 78.5582 62.1402 78.4465 62.0292L70.8774 54.4601C70.7661 54.3484 70.7036 54.1972 70.7036 54.0396C70.7036 53.8819 70.7661 53.7307 70.8774 53.6191V53.6191Z" fill="#ADBDC4"/>
<path fill-rule="evenodd" clip-rule="evenodd" d="M70.8769 53.6191C70.7656 53.7307 70.7031 53.8819 70.7031 54.0396C70.7031 54.1972 70.7656 54.3484 70.8769 54.4601L74.6615 58.2447L75.5025 57.4037L71.7179 53.6191C71.6062 53.5078 71.455 53.4453 71.2974 53.4453C71.1397 53.4453 70.9885 53.5078 70.8769 53.6191Z" fill="#8BA6B1"/>
<path fill-rule="evenodd" clip-rule="evenodd" d="M75.923 59.5074L73.4 56.9844L72.9795 57.4049L75.5025 59.9279L75.923 59.5074Z" fill="#CC9547"/>
<path fill-rule="evenodd" clip-rule="evenodd" d="M78.446 62.0308L75.923 59.5078L75.5024 59.9283L78.0255 62.4513L78.446 62.0308Z" fill="#EFB252"/>
<path fill-rule="evenodd" clip-rule="evenodd" d="M76.8375 25.1523H58.0905C57.9063 25.1524 57.7297 25.2255 57.5994 25.3558C57.4692 25.486 57.396 25.6626 57.396 25.8468V39.1388C57.396 39.323 57.4692 39.4997 57.5994 39.6299C57.7297 39.7601 57.9063 39.8333 58.0905 39.8333H60.8685V43.9036C60.8685 44.041 60.9092 44.1753 60.9855 44.2895C61.0618 44.4037 61.1703 44.4927 61.2972 44.5453C61.4241 44.5978 61.5637 44.6116 61.6984 44.5847C61.8331 44.5579 61.9569 44.4918 62.054 44.3946L66.7123 39.8333H76.8375C77.0217 39.8333 77.1983 39.7601 77.3285 39.6298C77.4587 39.4996 77.5319 39.323 77.532 39.1388V25.8468C77.5319 25.6627 77.4587 25.4861 77.3285 25.3558C77.1983 25.2256 77.0217 25.1524 76.8375 25.1523V25.1523Z" fill="white"/>
<path fill-rule="evenodd" clip-rule="evenodd" d="M69.7253 30.1109H61.6824C61.4465 30.1109 61.2203 30.0172 61.0535 29.8504C60.8867 29.6836 60.793 29.4574 60.793 29.2215C60.793 28.9856 60.8867 28.7593 61.0535 28.5925C61.2203 28.4257 61.4465 28.332 61.6824 28.332H69.7253C69.9612 28.332 70.1874 28.4257 70.3542 28.5925C70.521 28.7593 70.6147 28.9856 70.6147 29.2215C70.6147 29.4574 70.521 29.6836 70.3542 29.8504C70.1874 30.0172 69.9612 30.1109 69.7253 30.1109V30.1109Z" fill="#0078D4"/>
<path fill-rule="evenodd" clip-rule="evenodd" d="M73.2451 33.1148H61.6824C61.4465 33.1148 61.2203 33.0211 61.0535 32.8543C60.8867 32.6875 60.793 32.4613 60.793 32.2254C60.793 31.9895 60.8867 31.7633 61.0535 31.5964C61.2203 31.4296 61.4465 31.3359 61.6824 31.3359H73.2451C73.481 31.3359 73.7072 31.4296 73.874 31.5964C74.0408 31.7633 74.1346 31.9895 74.1346 32.2254C74.1346 32.4613 74.0408 32.6875 73.874 32.8543C73.7072 33.0211 73.481 33.1148 73.2451 33.1148Z" fill="#50E6FF"/>
<path fill-rule="evenodd" clip-rule="evenodd" d="M67.4638 36.1187H61.6824C61.4465 36.1187 61.2203 36.025 61.0535 35.8582C60.8867 35.6914 60.793 35.4652 60.793 35.2293C60.793 34.9934 60.8867 34.7672 61.0535 34.6004C61.2203 34.4336 61.4465 34.3398 61.6824 34.3398H67.4638C67.6997 34.3398 67.9259 34.4336 68.0927 34.6004C68.2595 34.7672 68.3532 34.9934 68.3532 35.2293C68.3532 35.4652 68.2595 35.6914 68.0927 35.8582C67.9259 36.025 67.6997 36.1187 67.4638 36.1187Z" fill="#9CEBFF"/>
</g>
<defs>
<linearGradient id="paint0_linear" x1="47.8697" y1="-15.155" x2="51.8525" y2="130.613" gradientUnits="userSpaceOnUse">
<stop stop-color="#00ABDE"/>
<stop offset="1" stop-color="#007ED8"/>
</linearGradient>
<clipPath id="clip0">
<rect width="99.2799" height="99.28" fill="white"/>
</clipPath>
</defs>
</svg>
