<svg width="100" height="100" viewBox="0 0 100 100" fill="none" xmlns="https://www.w3.org/2000/svg">
<g clip-path="url(#clip0)">
<path d="M49.6401 96.4481C40.382 96.4481 31.3317 93.7028 23.6339 88.5592C15.936 83.4157 9.93624 76.105 6.3933 67.5516C2.85036 58.9981 1.92337 49.5862 3.72954 40.506C5.53571 31.4257 9.99394 23.085 16.5404 16.5385C23.0869 9.99198 31.4277 5.53376 40.5079 3.72759C49.5882 1.92141 59.0001 2.84841 67.5535 6.39135C76.1069 9.93428 83.4176 15.934 88.5612 23.6319C93.7047 31.3298 96.4501 40.38 96.4501 49.6381C96.4505 55.7854 95.24 61.8726 92.8878 67.5521C90.5355 73.2315 87.0875 78.392 82.7407 82.7388C78.3939 87.0856 73.2335 90.5335 67.554 92.8858C61.8746 95.2381 55.7874 96.4486 49.6401 96.4481V96.4481Z" fill="url(#paint0_linear)"/>
<path fill-rule="evenodd" clip-rule="evenodd" d="M95.54 49.64C95.54 58.7182 92.848 67.5925 87.8045 75.1407C82.7609 82.6889 75.5923 88.572 67.2052 92.0461C58.818 95.5201 49.5891 96.4291 40.6854 94.658C31.7816 92.887 23.603 88.5154 17.1838 82.0962C10.7646 75.677 6.39302 67.4984 4.62196 58.5946C2.85089 49.6909 3.75987 40.462 7.23393 32.0748C10.708 23.6877 16.5911 16.5191 24.1393 11.4755C31.6875 6.43199 40.5618 3.74 49.64 3.74C55.6677 3.73998 61.6363 4.9272 67.2052 7.23388C72.774 9.54057 77.834 12.9215 82.0963 17.1837C86.3585 21.446 89.7394 26.5059 92.0461 32.0748C94.3528 37.6437 95.54 43.6123 95.54 49.64V49.64ZM49.64 3.62732e-07C59.4579 3.62732e-07 69.0553 2.91134 77.2185 8.36585C85.3818 13.8204 91.7442 21.5731 95.5014 30.6436C99.2585 39.7141 100.242 49.6951 98.3262 59.3243C96.4108 68.9535 91.6831 77.7985 84.7408 84.7408C77.7985 91.6831 68.9535 96.4108 59.3243 98.3262C49.6951 100.242 39.7141 99.2585 30.6436 95.5014C21.5731 91.7442 13.8204 85.3818 8.36585 77.2185C2.91134 69.0553 3.62732e-07 59.4579 3.62732e-07 49.64C-0.000787738 43.121 1.28265 36.6656 3.77702 30.6427C6.27138 24.6197 9.9278 19.1471 14.5375 14.5375C19.1471 9.9278 24.6197 6.27138 30.6427 3.77702C36.6656 1.28265 43.121 -0.000787738 49.64 3.62732e-07V3.62732e-07Z" fill="#F2F1F0"/>
<path fill-rule="evenodd" clip-rule="evenodd" d="M92.7296 49.6386C92.7296 58.161 90.2024 66.492 85.4676 73.5781C80.7328 80.6643 74.0031 86.1872 66.1294 89.4486C58.2557 92.71 49.5918 93.5633 41.2331 91.9007C32.8745 90.238 25.1966 86.1341 19.1703 80.1079C13.1441 74.0816 9.04017 66.4037 7.37753 58.0451C5.7149 49.6864 6.56822 41.0225 9.8296 33.1488C13.091 25.2751 18.6139 18.5454 25.7 13.8106C32.7862 9.07581 41.1172 6.54862 49.6396 6.54862C55.2983 6.54828 60.9017 7.6626 66.1298 9.82795C71.3579 11.9933 76.1082 15.1673 80.1096 19.1686C84.1109 23.17 87.2849 27.9203 89.4502 33.1484C91.6156 38.3765 92.7299 43.9799 92.7296 49.6386V49.6386ZM49.6396 2.80862C58.9017 2.80862 67.9558 5.55515 75.6569 10.7009C83.3581 15.8466 89.3604 23.1605 92.9049 31.7176C96.4493 40.2746 97.3767 49.6906 95.5697 58.7747C93.7628 67.8588 89.3027 76.2031 82.7534 82.7524C76.2041 89.3017 67.8598 93.7619 58.7757 95.5688C49.6915 97.3757 40.2756 96.4484 31.7185 92.9039C23.1614 89.3594 15.8476 83.3571 10.7018 75.656C5.5561 67.9548 2.80957 58.9007 2.80957 49.6386C2.81076 37.2189 7.745 25.3082 16.5271 16.5261C25.3091 7.74403 37.2198 2.80979 49.6396 2.80859V2.80862Z" fill="#0078D4"/>
<path opacity="0.2" d="M64.0249 10.0484V6.08911C63.093 5.78351 62.1542 5.50771 61.2085 5.26172V10.0484H64.0249Z" fill="#1F56A3"/>
<path opacity="0.2" d="M79.4471 15.6469C78.4731 17.2633 78.0161 19.1386 78.1373 21.0219C78.1373 25.277 79.6649 27.5147 82.7227 27.5147V27.5193C83.4065 27.5282 84.0821 27.3698 84.6906 27.0578C85.2991 26.7458 85.8221 26.2897 86.2139 25.7292C86.7379 25.0013 87.0941 24.1663 87.2568 23.2843C86.4505 22.1444 85.586 21.0348 84.6632 19.9553C84.6749 20.226 84.6862 20.4977 84.6862 20.797C84.6862 23.7095 84.0325 25.277 82.9405 25.277C81.6308 25.277 80.9747 23.7095 80.9747 20.797C80.8614 19.4255 81.117 18.0487 81.7149 16.8093C81.1213 16.2322 80.5161 15.6747 79.8995 15.1367C79.7389 15.2979 79.5879 15.4682 79.4471 15.6469V15.6469Z" fill="#1F56A3"/>
<path opacity="0.2" d="M48.1131 17.8973C48.3309 17.6841 48.5489 17.6841 48.7667 17.4498C48.9847 17.4498 49.2026 17.2154 49.4205 17.2154V27.2908H52.244V13.8555H50.5123C50.02 14.3527 49.4239 14.7351 48.7667 14.9755C48.1 15.4055 47.3597 15.7089 46.583 15.8705V18.3543C47.0211 18.3543 47.2391 18.1317 47.457 18.1317C47.6749 18.1317 47.8928 17.8973 48.1131 17.8973Z" fill="#1F56A3"/>
<path opacity="0.2" d="M48.1131 68.8699C48.3309 68.6567 48.5489 68.6567 48.7667 68.4224C48.9847 68.4224 49.2026 68.1881 49.4205 68.1881V78.2634H52.244V64.8281H50.5123C50.0199 65.3253 49.4239 65.7078 48.7667 65.9481C48.1005 66.379 47.36 66.6825 46.583 66.8432V69.3268C47.0211 69.3268 47.2391 69.1042 47.457 69.1042C47.6749 69.1042 47.8928 68.8699 48.1131 68.8699Z" fill="#1F56A3"/>
<path opacity="0.2" d="M60.7562 64.8285C60.0411 64.8196 59.3336 64.9769 58.6896 65.2879C58.0455 65.599 57.4825 66.0553 57.0448 66.621C56.2543 68.2981 55.8797 70.141 55.9528 71.9936C55.9528 76.2487 57.4899 78.4888 60.5361 78.4888V78.4934C61.2202 78.5012 61.8959 78.342 62.5047 78.0297C63.1134 77.7173 63.6368 77.2613 64.0295 76.701C64.8215 75.102 65.1971 73.3289 65.1215 71.5461C65.1215 67.0685 63.5936 64.8285 60.7562 64.8285ZM60.536 76.2487C59.4464 76.2487 58.7904 74.6812 58.7904 71.771C58.7904 68.636 59.4464 67.0685 60.536 67.0685C61.8457 67.0685 62.2838 68.636 62.2838 71.771C62.2838 74.6812 61.6255 76.2487 60.536 76.2487Z" fill="#1F56A3"/>
<path opacity="0.2" d="M51.5973 82.0785C50.8824 82.0697 50.1751 82.2268 49.5312 82.5374C48.8872 82.848 48.324 83.3037 47.8858 83.8686C47.095 85.468 46.7203 87.2409 46.7962 89.0234C46.7962 93.5035 48.3239 95.7435 51.3792 95.7434C52.0631 95.7512 52.7385 95.592 53.3469 95.2796C53.9553 94.9673 54.4783 94.5112 54.8705 93.9509C55.6382 92.3436 56.0125 90.5767 55.9625 88.7961C55.9625 84.3185 54.4347 82.0785 51.5973 82.0785ZM51.3793 93.5035C50.2875 93.5035 49.6337 91.9359 49.6337 89.0235C49.6337 85.8908 50.2875 84.3232 51.3793 84.3232C52.4713 84.3232 53.1249 85.8908 53.1249 88.8009C53.1249 91.9359 52.4713 93.5034 51.3792 93.5034L51.3793 93.5035Z" fill="#1F56A3"/>
<path opacity="0.2" d="M71.8086 89.0237C71.8086 85.8902 72.4631 84.3235 73.7721 84.3234C74.7672 84.3234 75.213 85.6387 75.285 88.0726C76.2423 87.4292 77.1781 86.7414 78.0955 86.0182C77.5448 83.3992 76.1086 82.0788 73.7721 82.0788C73.0844 82.0457 72.4001 82.1936 71.7875 82.5078C71.1749 82.8219 70.6554 83.2912 70.2809 83.8689C69.3042 85.4029 68.8452 87.2096 68.9711 89.0237C68.9679 89.8634 69.0408 90.7018 69.189 91.5283C70.0885 91.1066 70.9734 90.6454 71.8498 90.1623C71.8246 89.8073 71.8086 89.4322 71.8086 89.0237Z" fill="#1F56A3"/>
<path opacity="0.2" d="M58.5889 52.0769C58.7089 52.0905 58.8304 52.0764 58.9441 52.0358C59.0578 51.9952 59.1607 51.9291 59.245 51.8426C59.5508 51.8522 59.853 51.775 60.1167 51.62C60.3345 51.62 60.5525 51.3857 60.7727 51.3857C60.9906 51.1608 60.9906 50.9382 61.2085 50.9382V61.0135H64.0249V47.5781L62.3004 47.5852C61.8084 48.084 61.2112 48.4666 60.5525 48.7052C59.944 49.0957 59.2827 49.3971 58.5889 49.6003L58.5889 52.0769Z" fill="#1F56A3"/>
<path opacity="0.2" d="M60.7562 13.8559C60.0412 13.8465 59.3338 14.0034 58.6897 14.314C58.0457 14.6247 57.4825 15.0807 57.0447 15.646C56.2545 17.3241 55.88 19.1677 55.9527 21.0211C55.9527 25.2762 57.4898 27.5138 60.536 27.5138V27.5185C61.22 27.5267 61.8956 27.3679 62.5044 27.056C63.1131 26.7441 63.6366 26.2883 64.0294 25.7284C64.8212 24.1293 65.1967 22.3563 65.1214 20.5735C65.1214 16.0935 63.5936 13.8559 60.7562 13.8559ZM60.536 25.2762C59.4464 25.2762 58.7903 23.7086 58.7903 20.7961C58.7903 17.661 59.4463 16.0935 60.536 16.0935H60.543C61.8528 16.0935 62.2909 17.661 62.2909 20.7961C62.2908 23.7086 61.6254 25.2762 60.536 25.2762Z" fill="#1F56A3"/>
<path opacity="0.2" d="M64.032 44.5361V31.1007L62.3005 31.0938C61.7506 31.5153 61.1658 31.8892 60.5525 32.2114C59.8987 32.4363 59.245 32.8745 58.5889 33.1088V35.3465H59.245C59.4629 35.1239 59.6809 35.1239 60.1167 35.1239C60.3345 34.8989 60.5525 34.8989 60.7727 34.6763C60.9906 34.6763 60.9906 34.4608 61.2085 34.2265V44.5361H64.032Z" fill="#1F56A3"/>
<path opacity="0.2" d="M30.2141 44.7567C30.9017 44.7898 31.586 44.6419 32.1987 44.3277C32.8113 44.0136 33.3308 43.5443 33.7053 42.9666C34.6526 41.4201 35.1092 39.6229 35.0151 37.8118C35.0151 33.3333 33.4874 31.0941 30.4319 31.0941C29.7478 31.0849 29.0718 31.2432 28.4628 31.5552C27.8539 31.8673 27.3305 32.3235 26.9384 32.8842C25.9625 34.4185 25.5034 36.225 25.6286 38.0391C25.6286 42.5175 27.1571 44.7567 30.2141 44.7567ZM30.432 33.3364C31.5239 33.3364 32.1776 34.904 32.1776 37.8164C32.1776 40.9515 31.5239 42.5167 30.432 42.5167C29.1221 42.5167 28.4661 40.9515 28.4661 38.039C28.4661 34.904 29.1214 33.3365 30.4319 33.3364L30.432 33.3364Z" fill="#1F56A3"/>
<path opacity="0.2" d="M30.432 47.8016C29.7407 47.7447 29.0473 47.8821 28.43 48.1984C27.8126 48.5147 27.296 48.9973 26.9385 49.5917C25.9622 51.1259 25.5032 52.9325 25.6287 54.7466C25.6287 58.9993 27.1681 61.2393 30.2141 61.2393V61.2416C30.9084 61.324 31.6114 61.1975 32.2333 60.8782C32.8552 60.5589 33.3677 60.0613 33.7054 59.4492C34.6827 57.9155 35.1418 56.1085 35.0152 54.2943C35.0152 50.0416 33.4782 47.8016 30.432 47.8016ZM30.425 58.9922C29.1153 58.9922 28.4591 57.6497 28.4591 54.7395C28.4591 51.3865 29.1153 49.819 30.425 49.819C31.524 49.819 32.1706 51.3795 32.1706 54.5146C32.1706 57.6497 31.517 58.9923 30.425 58.9923V58.9922Z" fill="#1F56A3"/>
<path opacity="0.2" d="M27.8121 65.9481C27.1457 66.3786 26.4053 66.6821 25.6284 66.8432V69.3268C25.8488 69.3268 26.0665 69.1042 26.5024 69.1042C26.7203 69.1042 26.9382 68.8699 27.1561 68.8699C27.3763 68.6567 27.5943 68.6567 27.8121 68.4224C28.0301 68.4224 28.248 68.1881 28.4659 68.1881V78.2634H31.2963V64.8281H29.5577C29.0269 65.2756 28.4401 65.6521 27.8121 65.9481Z" fill="#1F56A3"/>
<path opacity="0.2" d="M37.4283 52.0768C37.7379 52.111 38.0491 52.0274 38.2998 51.8425C38.4189 51.8576 38.5398 51.8453 38.6535 51.8068C38.7671 51.7682 38.8705 51.7043 38.9558 51.6199C39.1738 51.6199 39.3916 51.3856 39.6096 51.3856C39.8298 51.1607 40.0477 50.9381 40.2656 50.9381V61.0134H43.0774V47.5781L41.3575 47.5851C40.8294 48.0373 40.2412 48.4143 39.6096 48.7051C38.944 49.1356 38.2044 49.4391 37.4282 49.6002L37.4283 52.0768Z" fill="#1F56A3"/>
<path opacity="0.2" d="M51.3722 10.2734L51.3816 10.2781C52.0728 10.3353 52.7664 10.1978 53.3834 9.88094C54.0005 9.56412 54.5164 9.08073 54.8728 8.4856C55.5491 7.16294 55.9139 5.70314 55.9394 4.21783C54.9983 4.08856 54.0537 3.99493 53.1074 3.92389C53.0544 6.77954 52.4175 8.02869 51.3722 8.02869C50.2814 8.02869 49.6281 6.68817 49.6268 3.78125C48.6819 3.78149 47.7374 3.82117 46.7939 3.87925C46.8195 8.06494 48.3518 10.2734 51.3722 10.2734Z" fill="#1F56A3"/>
<path opacity="0.2" d="M39.8112 13.8563C39.0925 13.8226 38.3767 13.9686 37.7287 14.2811C37.0806 14.5937 36.5207 15.063 36.0998 15.6465C35.1247 17.2625 34.6676 19.1382 34.7899 21.0216C34.7899 25.2766 36.3271 27.5143 39.3731 27.5143V27.5189C40.0611 27.5522 40.7458 27.4044 41.3588 27.0903C41.9719 26.7762 42.4918 26.3067 42.8666 25.7288C43.8422 24.1944 44.3012 22.388 44.1764 20.574C44.1764 16.094 42.6488 13.8563 39.8112 13.8563ZM39.5909 25.2766C38.2811 25.2766 37.8453 23.7091 37.8453 20.7966C37.8453 17.6615 38.2811 16.094 39.5909 16.094C40.6829 16.094 41.3389 17.6615 41.3389 20.7966C41.339 23.7091 40.6829 25.2766 39.5909 25.2766Z" fill="#1F56A3"/>
<path opacity="0.2" d="M39.8113 64.8289C39.0924 64.7955 38.3765 64.9419 37.7285 65.2549C37.0805 65.5679 36.5207 66.0375 36.0999 66.6214C35.1245 68.2363 34.6674 70.1114 34.79 71.994C34.79 76.2491 36.3272 78.4892 39.3732 78.4892V78.4938C40.0614 78.5267 40.7462 78.3785 41.3592 78.0639C41.9722 77.7494 42.492 77.2796 42.8667 76.7014C43.8426 75.1671 44.3017 73.3606 44.1765 71.5466C44.1765 67.0689 42.6489 64.8289 39.8113 64.8289ZM39.591 76.2491C38.2812 76.2491 37.8454 74.6816 37.8454 71.7714C37.8454 68.6364 38.2812 67.0689 39.591 67.0689C40.683 67.0689 41.339 68.6364 41.339 71.7714C41.3391 74.6816 40.683 76.2491 39.591 76.2491Z" fill="#1F56A3"/>
<path opacity="0.2" d="M43.0845 44.5361V31.1007L41.3575 31.0938C40.7014 31.5413 40.2656 31.7639 39.6096 32.2114C38.9558 32.4363 38.2998 32.8745 37.4282 33.1088V35.3465H38.2998C38.3853 35.2624 38.4887 35.1987 38.6023 35.1601C38.7159 35.1216 38.8367 35.1092 38.9558 35.1239C39.1738 34.8989 39.3916 34.8989 39.6096 34.6763C39.8298 34.6763 40.0477 34.4608 40.2656 34.2265V44.5361H43.0845Z" fill="#1F56A3"/>
<path opacity="0.2" d="M30.4318 82.0785C29.7477 82.0693 29.0716 82.2276 28.4627 82.5396C27.8538 82.8517 27.3304 83.3079 26.9383 83.8687C25.9627 85.4031 25.5037 87.2094 25.6285 89.0234C25.6285 89.0575 25.6326 89.0854 25.6328 89.1192C26.5968 89.7092 27.5754 90.2645 28.571 90.7772C28.4985 90.1955 28.4634 89.6097 28.466 89.0235C28.466 85.89 29.1213 84.3233 30.4318 84.3232C31.5237 84.3232 32.1774 85.8908 32.1774 88.8009C32.2219 89.9681 32.073 91.1347 31.7365 92.2532C32.5286 92.5871 33.3264 92.9026 34.1323 93.1902C34.7695 91.8158 35.0719 90.31 35.015 88.7962C35.015 84.3178 33.4873 82.0785 30.4318 82.0785Z" fill="#1F56A3"/>
<path opacity="0.2" d="M9.25984 44.7566C9.94344 44.7643 10.6186 44.6053 11.227 44.2934C11.8353 43.9814 12.3585 43.526 12.7512 42.9664C13.6984 41.4199 14.155 39.6228 14.0609 37.8117C14.0609 33.3332 12.5332 31.094 9.47778 31.094C8.74102 31.0862 8.01353 31.2586 7.35864 31.5963C6.24331 34.1846 5.36893 36.8703 4.74658 39.6191C5.08101 43.0438 6.58543 44.7563 9.25984 44.7566ZM9.47773 33.3363C10.5697 33.3363 11.0054 34.9038 11.0054 37.8163C11.0054 40.9513 10.5697 42.5165 9.25984 42.5165C8.16792 42.5165 7.51191 40.9513 7.51191 38.0389C7.51351 34.9039 8.16878 33.3363 9.47773 33.3363Z" fill="#1F56A3"/>
<path opacity="0.2" d="M41.3575 82.0742C40.7014 82.5218 40.2656 82.7467 39.6096 83.1942C38.9558 83.4169 38.2998 83.855 37.4282 84.0893V86.3293H38.2998C38.384 86.2428 38.4869 86.1768 38.6006 86.1362C38.7143 86.0956 38.8358 86.0815 38.9558 86.0951C39.1738 85.8818 39.3916 85.8818 39.6096 85.6475C39.8298 85.6475 40.0477 85.4343 40.2656 85.2V94.9061C41.2014 95.0998 42.1404 95.2732 43.0844 95.4082V82.0836L41.3575 82.0742Z" fill="#1F56A3"/>
<path opacity="0.2" d="M62.8698 82.0742C62.2136 82.5218 61.7778 82.7467 61.1218 83.1942C60.468 83.4169 59.812 83.855 58.9404 84.0893V86.3293H59.8121C59.8963 86.2428 59.9992 86.1768 60.1129 86.1362C60.2266 86.0956 60.3481 86.0815 60.4681 86.0951C60.6861 85.8818 60.9039 85.8818 61.1219 85.6475C61.3421 85.6475 61.56 85.4343 61.7779 85.2V93.921C62.7137 94.1147 63.6526 93.0556 64.5967 93.1906V82.0836L62.8698 82.0742Z" fill="#1F56A3"/>
<path opacity="0.2" d="M33.705 8.48218C34.1872 7.82213 34.5258 7.0684 34.699 6.26953C33.5617 6.65863 32.4395 7.1004 31.3294 7.58111C31.2218 7.71886 31.0846 7.8307 30.928 7.90838C30.7715 7.98607 30.5994 8.02762 30.4246 8.02997C30.39 8.02997 30.3609 8.01843 30.3272 8.01654C29.389 8.44977 28.4665 8.92627 27.5532 9.42602C28.3157 10.0073 29.2556 10.3071 30.2139 10.2747C30.9081 10.3571 31.6111 10.2305 32.233 9.91121C32.8549 9.5919 33.3674 9.09435 33.705 8.48218V8.48218Z" fill="#1F56A3"/>
<path opacity="0.2" d="M43.0774 10.049V4.25C42.1357 4.38483 41.1992 4.55792 40.2656 4.75116V10.049H43.0774Z" fill="#1F56A3"/>
<path opacity="0.2" d="M18.4259 27.5142V27.5189C19.1101 27.5281 19.7861 27.3698 20.395 27.0578C21.004 26.7458 21.5273 26.2895 21.9194 25.7288C22.895 24.1943 23.354 22.388 23.2292 20.5739C23.2292 17.0991 22.2972 14.9896 20.4569 14.2109C19.704 14.8293 18.9712 15.4834 18.2495 16.1569C18.3773 16.1174 18.5101 16.0962 18.6438 16.094C19.7356 16.094 20.3917 17.6615 20.3917 20.7966C20.3917 23.709 19.7356 25.2766 18.6438 25.2766C17.334 25.2766 16.6802 23.709 16.6802 20.7966C16.6053 19.5343 16.8047 18.2709 17.2648 17.0931C17.2043 17.1528 17.1411 17.2078 17.0809 17.2679C15.9413 18.4084 14.8617 19.6074 13.8464 20.8599C13.8461 20.9153 13.8428 20.9652 13.8428 21.0216C13.8428 25.2766 15.3799 27.5142 18.4259 27.5142Z" fill="#1F56A3"/>
<path opacity="0.2" d="M54.8634 59.4501C55.6568 57.8515 56.0324 56.0781 55.9554 54.2952C55.9554 50.0425 54.4276 47.8025 51.5901 47.8025C50.8682 47.7437 50.1436 47.8785 49.4911 48.1932C48.8387 48.5079 48.2821 48.991 47.8787 49.5926C47.0873 51.1918 46.7125 52.9649 46.7891 54.7475C46.7891 59.0002 48.3262 61.2402 51.3722 61.2402V61.2425C52.0635 61.2998 52.757 61.1622 53.3741 60.8454C53.9911 60.5286 54.5071 60.0452 54.8634 59.4501V59.4501ZM49.6266 54.7404C49.6266 51.3874 50.2803 49.8199 51.3722 49.8199H51.3862C52.4781 49.8199 53.1178 51.3804 53.1178 54.5155C53.1178 57.6505 52.4641 58.9931 51.3722 58.9931C50.2803 58.9931 49.6266 57.6506 49.6266 54.7404Z" fill="#1F56A3"/>
<path opacity="0.2" d="M9.47732 47.8095C8.7831 47.7275 8.08017 47.8539 7.45804 48.1727C6.8359 48.4915 6.32271 48.9882 5.98381 49.5996C5.0076 51.1338 4.5486 52.9403 4.6741 54.7544C4.6741 59.0071 6.21341 61.2471 9.25943 61.2471V61.2495C9.95075 61.3068 10.6443 61.1692 11.2614 60.8524C11.8785 60.5356 12.3945 60.0522 12.7508 59.457C13.728 57.9233 14.1871 56.1164 14.0605 54.3022C14.0605 50.0494 12.5235 47.8095 9.47732 47.8095ZM9.25943 58.9931C8.16751 58.9931 7.5115 57.6505 7.5115 54.7403C7.5115 51.3873 8.1675 49.8199 9.47732 49.8199C10.5692 49.8199 11.005 51.3804 11.005 54.5154C11.005 57.6505 10.5692 58.9931 9.25943 58.9931Z" fill="#1F56A3"/>
<path opacity="0.2" d="M17.99 51.6199C18.208 51.6199 18.4259 51.3856 18.6438 51.3856L19.082 50.9381V61.0134H21.9194V47.5781L20.3917 47.5851C19.8296 47.9896 19.2461 48.3635 18.6438 48.7051C17.9594 49.0985 17.2259 49.3995 16.4624 49.6002V52.0768C16.582 52.0905 16.7032 52.0765 16.8166 52.0359C16.9299 51.9953 17.0324 51.9291 17.1161 51.8425C17.5542 51.8425 17.7722 51.8425 17.99 51.6199Z" fill="#1F56A3"/>
<path opacity="0.2" d="M18.6438 64.8284C17.96 64.8206 17.2846 64.9798 16.6762 65.2922C16.0678 65.6046 15.5448 66.0606 15.1526 66.6209C14.1772 68.2358 13.7201 70.1109 13.8428 71.9936C13.8428 76.2486 15.3799 78.4887 18.4259 78.4887V78.4933C19.1103 78.5021 19.7864 78.3434 20.3953 78.031C21.0042 77.7185 21.5275 77.2619 21.9194 76.7009C22.8953 75.1666 23.3543 73.3601 23.2293 71.5461C23.2293 67.0676 21.7008 64.8284 18.6438 64.8284ZM18.6438 76.2486C17.334 76.2486 16.6802 74.6811 16.6802 71.771C16.6787 68.6359 17.3333 67.0684 18.6438 67.0684C19.7356 67.0684 20.3917 68.6359 20.3917 71.771C20.3917 74.6811 19.7356 76.2486 18.6438 76.2486Z" fill="#1F56A3"/>
<path opacity="0.2" d="M47.8859 32.8842C47.0948 34.4835 46.7201 36.2565 46.7963 38.0391C46.7963 42.5175 48.324 44.7567 51.3793 44.7567C52.0629 44.7644 52.7381 44.6054 53.3464 44.2935C53.9547 43.9816 54.4778 43.5261 54.8705 42.9666C55.6378 41.3591 56.0121 39.5923 55.9625 37.8118C55.9625 33.3318 54.4347 31.0941 51.5973 31.0941C50.8823 31.0848 50.1749 31.2416 49.5309 31.5523C48.8868 31.8629 48.3237 32.3189 47.8859 32.8842V32.8842ZM53.1249 37.8164C53.1249 40.9515 52.4714 42.5167 51.3793 42.5167C50.2875 42.5167 49.6337 40.9515 49.6337 38.039C49.6337 34.904 50.2875 33.3365 51.3793 33.3365C52.4714 33.3364 53.1249 34.904 53.1249 37.8164L53.1249 37.8164Z" fill="#1F56A3"/>
<path opacity="0.2" d="M27.1561 17.8973C27.3763 17.6841 27.5944 17.6841 27.8121 17.4498C28.0301 17.4498 28.248 17.2154 28.4659 17.2154V27.2908H31.2964V13.8555H29.5577C29.0269 14.3029 28.4401 14.6794 27.8121 14.9755C27.1452 15.405 26.405 15.7084 25.6284 15.8705V18.3543C25.8488 18.3543 26.0665 18.1317 26.5024 18.1317C26.7203 18.1316 26.9382 17.8973 27.1561 17.8973Z" fill="#1F56A3"/>
<path opacity="0.2" d="M82.2871 51.6199C82.5073 51.6199 82.7252 51.3856 82.9431 51.3856L83.3789 50.9381V61.0134H86.2141V47.5781L84.6887 47.5851C84.1274 47.9895 83.5447 48.3634 82.9431 48.7051C82.2579 49.0986 81.5235 49.3995 80.7593 49.6002V52.0768C80.8793 52.0906 81.0008 52.0766 81.1146 52.036C81.2283 51.9954 81.3313 51.9292 81.4154 51.8425C81.8513 51.8425 82.0691 51.8425 82.2871 51.6199Z" fill="#1F56A3"/>
<path opacity="0.2" d="M82.7228 78.4886V78.4933C83.4068 78.5018 84.0824 78.3429 84.6909 78.0305C85.2995 77.7181 85.8223 77.2616 86.214 76.7008C87.191 75.167 87.6501 73.3602 87.5239 71.546C87.5239 67.0676 85.9961 64.8284 82.9406 64.8284C82.2565 64.8209 81.5809 64.9802 80.9722 65.2925C80.3635 65.6048 79.8401 66.0608 79.4472 66.6209C78.4729 68.2363 78.0158 70.111 78.1374 71.9935C78.1374 76.2486 79.665 78.4886 82.7228 78.4886ZM82.9406 67.0683C84.0326 67.0683 84.6863 68.6359 84.6863 71.7709C84.6863 74.6811 84.0326 76.2486 82.9406 76.2486C81.6309 76.2486 80.9748 74.6811 80.9748 71.7709C80.9764 68.6359 81.6316 67.0684 82.9406 67.0683V67.0683Z" fill="#1F56A3"/>
<path opacity="0.2" d="M70.4989 17.8973C70.7168 17.6841 70.9348 17.6841 71.1526 17.4498C71.3209 17.4234 71.4754 17.3408 71.5908 17.2154V27.2908H74.4282V13.8555H72.6804C72.1884 14.3532 71.5923 14.7357 70.9348 14.9755C70.3256 15.3646 69.6645 15.6659 68.9712 15.8705V18.3543C69.1892 18.3543 69.407 18.1317 69.625 18.1317C70.0631 18.1316 70.281 17.8973 70.4989 17.8973Z" fill="#1F56A3"/>
<path opacity="0.2" d="M82.2871 35.1239C82.5073 34.8989 82.7252 34.8989 82.9431 34.6763C83.0584 34.6683 83.1668 34.6179 83.2472 34.5349C83.3277 34.4519 83.3746 34.342 83.3789 34.2265V44.5361H86.2141V31.1007L84.6887 31.0938C84.0761 31.4159 83.4921 31.7898 82.9431 32.2114C82.2871 32.4363 81.4154 32.8745 80.7593 33.1088V35.3465H81.4154C81.6791 35.1914 81.9813 35.1142 82.2871 35.1239V35.1239Z" fill="#1F56A3"/>
<path opacity="0.2" d="M73.5544 61.2473V61.2496C74.246 61.3067 74.9397 61.169 75.5571 60.8522C76.1745 60.5355 76.691 60.0522 77.048 59.4572C78.0241 57.923 78.4832 56.1164 78.3578 54.3024C78.3578 50.0496 76.8183 47.8096 73.7723 47.8096C73.0784 47.7273 72.3757 47.8536 71.7538 48.1725C71.132 48.4913 70.6193 48.9882 70.2811 49.5997C69.3038 51.1334 68.8447 52.9404 68.9713 54.7546C68.9713 59.0073 70.5084 61.2473 73.5544 61.2473ZM73.7723 49.82C74.8642 49.82 75.3 51.3805 75.3 54.5156C75.3 57.6506 74.8642 58.9932 73.5544 58.9932C72.4625 58.9932 71.8088 57.6506 71.8088 54.7405C71.8088 51.3875 72.4625 49.82 73.7723 49.82V49.82Z" fill="#1F56A3"/>
<path opacity="0.2" d="M73.5543 44.7571C74.2382 44.7645 74.9136 44.6054 75.5222 44.2936C76.1309 43.9817 76.6545 43.5264 77.0479 42.9669C77.994 41.42 78.4506 39.6232 78.3577 37.8122C78.3561 33.3337 76.8276 31.0945 73.7722 31.0945C73.0845 31.061 72.4 31.2087 71.7873 31.5228C71.1746 31.837 70.6552 32.3066 70.281 32.8846C69.304 34.4185 68.8449 36.2253 68.9712 38.0395C68.9712 42.5179 70.4989 44.7571 73.5543 44.7571ZM73.7722 33.3368C74.8641 33.3368 75.2999 34.9043 75.2999 37.8168C75.2999 40.9519 74.8641 42.517 73.5543 42.517C72.4624 42.517 71.8087 40.9519 71.8087 38.0394C71.8087 34.9044 72.4632 33.3369 73.7722 33.3368Z" fill="#1F56A3"/>
<path opacity="0.2" d="M70.4989 68.8699C70.7168 68.6567 70.9348 68.6567 71.1526 68.4224C71.3209 68.3959 71.4753 68.3133 71.5908 68.1881V78.2634H74.4282V64.8281H72.6804C72.1884 65.3258 71.5923 65.7084 70.9348 65.9481C70.3261 66.3381 69.6649 66.6395 68.9712 66.8432V69.3268C69.1892 69.3268 69.407 69.1042 69.625 69.1042C70.0631 69.1042 70.281 68.8699 70.4989 68.8699Z" fill="#1F56A3"/>
<path opacity="0.2" d="M47.9749 51.542H47.5765C48.504 49.7149 49.1216 47.7464 49.4042 45.717L55.5782 43.2591C55.7655 43.5825 56.037 43.849 56.3638 44.0301C56.6906 44.2113 57.0605 44.3003 57.4339 44.2877C57.8227 44.2841 58.2033 44.1758 58.5357 43.9741C58.8681 43.7724 59.14 43.4848 59.3227 43.1416C59.5055 42.7985 59.5923 42.4124 59.5741 42.024C59.5559 41.6356 59.4334 41.2593 59.2194 40.9347L69.3205 31.9841C69.7055 32.2702 70.174 32.4217 70.6537 32.4152C71.2168 32.4092 71.7553 32.1838 72.1548 31.787C72.5543 31.3901 72.7832 30.8531 72.7929 30.29C72.7535 29.737 72.5151 29.2171 72.1218 28.8263C71.7285 28.4356 71.2069 28.2006 70.6537 28.1649C70.09 28.1697 69.5506 28.3946 69.1504 28.7917C68.7503 29.1887 68.5212 29.7264 68.5121 30.29C68.509 30.693 68.616 31.0892 68.8214 31.4358L58.7578 40.4474C58.3748 40.165 57.9098 40.016 57.434 40.0233C56.8895 39.9999 56.358 40.1939 55.9565 40.5624C55.555 40.9309 55.3163 41.4438 55.293 41.9883C55.2907 42.0416 55.2905 42.095 55.2923 42.1484C55.2928 42.2875 55.3053 42.4263 55.3298 42.5632L49.4838 44.9062C49.5213 44.5196 49.5682 44.1401 49.5822 43.7464C49.7949 40.3412 48.9873 36.95 47.2626 34.0062C45.5843 30.9229 43.0407 28.398 39.9451 26.7426C38.4712 25.9771 36.9147 25.3828 35.3057 24.9712C32.1192 24.0905 28.7517 24.1038 25.5723 25.0097C22.3928 25.9157 19.5241 27.6792 17.2803 30.1072C15.5448 31.8489 14.1751 33.92 13.2515 36.1987C12.328 38.4774 11.8694 40.9177 11.9026 43.3762C11.9357 45.8347 12.4601 48.2618 13.4448 50.5147C14.4295 52.7677 15.8546 54.801 17.6364 56.4952C18.0679 56.9582 18.547 57.3745 19.0657 57.7371C22.2104 60.2658 26.0962 61.696 30.1298 61.8094C33.0155 61.908 35.8853 61.3428 38.5181 60.1575V78.2814C38.5243 78.7984 38.7333 79.2922 39.1002 79.6564C39.467 80.0206 39.9623 80.2261 40.4793 80.2285H47.9772C48.4944 80.2261 48.9899 80.0207 49.3572 79.6566C49.7244 79.2924 49.934 78.7986 49.9407 78.2814V53.4891C49.934 52.9715 49.7241 52.4774 49.3563 52.1132C48.9886 51.7489 48.4925 51.5438 47.9749 51.542Z" fill="#003067"/>
<path opacity="0.2" d="M74.3882 38.4375H66.8903C66.3731 38.4399 65.8775 38.6453 65.5103 39.0095C65.1431 39.3737 64.9335 39.8675 64.9268 40.3846V78.2866C64.9335 78.8038 65.1431 79.2976 65.5103 79.6618C65.8775 80.0259 66.3731 80.2313 66.8903 80.2337H74.2078C74.7249 80.2313 75.2205 80.0259 75.5877 79.6618C75.955 79.2976 76.1645 78.8038 76.1713 78.2866V40.3846C76.1741 39.8951 75.992 39.4226 75.6614 39.0616C75.3308 38.7005 74.8761 38.4777 74.3882 38.4375V38.4375Z" fill="#003067"/>
<path opacity="0.2" d="M60.8242 46.9375H53.5091C52.9919 46.9399 52.4963 47.1453 52.1291 47.5095C51.7619 47.8736 51.5523 48.3675 51.5456 48.8846V78.2858C51.5281 78.5323 51.561 78.7797 51.6423 79.013C51.7236 79.2463 51.8516 79.4606 52.0185 79.6428C52.1853 79.825 52.3876 79.9713 52.6128 80.0727C52.8381 80.1742 53.0816 80.2287 53.3287 80.2329H60.8266C61.3438 80.2305 61.8393 80.0251 62.2066 79.661C62.5738 79.2968 62.7833 78.803 62.7901 78.2858V48.8823C62.7525 48.3754 62.5328 47.8992 62.1714 47.5417C61.8101 47.1842 61.3315 46.9696 60.8242 46.9375V46.9375Z" fill="#003067"/>
<path d="M20.0073 53.9366C20.4382 54.3995 20.9174 54.815 21.4366 55.1761C24.5812 57.7053 28.4669 59.1363 32.5007 59.2507C37.4621 59.4463 42.2979 57.6629 45.9444 54.293C49.5909 50.9231 51.7493 46.2426 51.9449 41.2812L51.9484 41.1854C52.1625 37.7801 51.3548 34.3884 49.6287 31.4452C47.9505 28.3619 45.4068 25.837 42.3113 24.1816C40.8374 23.4161 39.2809 22.8218 37.6719 22.4102C34.4841 21.5307 31.1158 21.5461 27.9361 22.4546C24.7565 23.363 21.8885 25.1295 19.6465 27.5603V27.5603C17.911 29.302 16.5413 31.3731 15.6178 33.6518C14.6942 35.9305 14.2356 38.3708 14.2688 40.8293C14.302 43.2878 14.8263 45.7149 15.811 47.9678C16.7957 50.2208 18.2208 52.2541 20.0026 53.9483L20.0073 53.9366Z" fill="#37C2B1"/>
<path d="M32.5006 59.2507C37.462 59.4463 42.2978 57.6629 45.9443 54.293C49.5908 50.923 51.7492 46.2426 51.9448 41.2812L51.9483 41.1854C52.1624 37.7801 51.3547 34.3884 49.6287 31.4451C47.9504 28.3619 45.4068 25.837 42.3112 24.1815C40.8373 23.4161 39.2808 22.8218 37.6718 22.4102L33.2199 40.4755L21.4365 55.1761C24.5811 57.7053 28.4668 59.1363 32.5006 59.2507V59.2507Z" fill="#207067"/>
<path d="M33.2154 40.4774L37.6884 22.4051C34.4976 21.5265 31.1266 21.5426 27.9444 22.4518C24.7622 23.361 21.8914 25.1282 19.6465 27.56L33.2154 40.4774Z" fill="#42E8CA"/>
<path d="M52.3095 75.7183V50.9237C52.3034 50.4067 52.0943 49.9129 51.7275 49.5487C51.3606 49.1845 50.8653 48.979 50.3483 48.9766H42.8434C42.3262 48.979 41.8307 49.1844 41.4634 49.5485C41.0962 49.9127 40.8866 50.4065 40.8799 50.9237V75.7183C40.886 76.2359 41.0953 76.7303 41.4626 77.095C41.8299 77.4596 42.3258 77.6653 42.8434 77.6678H50.3413C50.8585 77.6647 51.3538 77.4587 51.7206 77.0941C52.0874 76.7295 52.2964 76.2355 52.3025 75.7183H52.3095Z" fill="#C3F1FF"/>
<path d="M65.1589 75.7209V46.3221C65.1233 45.8151 64.9049 45.3382 64.5442 44.9801C64.1835 44.622 63.705 44.407 63.1978 44.375H55.8803C55.3631 44.3774 54.8675 44.5828 54.5003 44.947C54.133 45.3112 53.9235 45.805 53.9167 46.3221V75.7209C53.9001 75.9675 53.9337 76.2149 54.0154 76.4481C54.0972 76.6813 54.2254 76.8955 54.3923 77.0777C54.5592 77.26 54.7613 77.4065 54.9865 77.5083C55.2116 77.6102 55.4551 77.6653 55.7022 77.6704H63.2001C63.7173 77.6674 64.2126 77.4614 64.5794 77.0968C64.9461 76.7321 65.1551 76.2381 65.1612 75.7209H65.1589Z" fill="#50E6FF"/>
<path d="M78.5452 75.7201V37.8205C78.5476 37.3305 78.3651 36.8576 78.0341 36.4963C77.7031 36.1349 77.2481 35.9117 76.7598 35.8711H69.2619C68.7443 35.8735 68.2484 36.0792 67.8811 36.4439C67.5138 36.8086 67.3045 37.303 67.2983 37.8206V75.7201C67.3045 76.2377 67.5138 76.7321 67.8811 77.0967C68.2484 77.4614 68.7443 77.6671 69.2619 77.6696H76.5841C77.1016 77.6671 77.5975 77.4614 77.9648 77.0967C78.3321 76.7321 78.5414 76.2376 78.5476 75.7201H78.5452Z" fill="#1F56A3"/>
<path d="M48.3847 43.3076C48.5958 43.4975 48.7646 43.7296 48.8802 43.989C48.9957 44.2483 49.0554 44.5291 49.0554 44.813C49.0554 45.0969 48.9957 45.3777 48.8802 45.6371C48.7646 45.8964 48.5958 46.1286 48.3847 46.3185C47.9477 46.677 47.3917 46.858 46.8274 46.8255C46.263 46.7929 45.7316 46.5492 45.3387 46.1427C45.1279 45.9527 44.9593 45.7205 44.8439 45.4611C44.7286 45.2018 44.6689 44.9211 44.6689 44.6373C44.6689 44.3534 44.7286 44.0728 44.8439 43.8134C44.9593 43.5541 45.1279 43.3219 45.3387 43.1318C45.7757 42.7733 46.3317 42.5923 46.896 42.6248C47.4604 42.6574 47.9918 42.9011 48.3847 43.3076V43.3076Z" fill="white"/>
<path d="M61.9467 39.59C61.9369 40.1534 61.7076 40.6907 61.3077 41.0877C60.9077 41.4846 60.3686 41.7097 59.8051 41.7152C59.3855 41.7119 58.9762 41.5845 58.6289 41.3491C58.2816 41.1136 58.0117 40.7805 57.8534 40.3919C57.6951 40.0033 57.6553 39.5766 57.7391 39.1654C57.823 38.7542 58.0267 38.3771 58.3245 38.0815C58.6224 37.786 59.0011 37.5852 59.4129 37.5045C59.8247 37.4238 60.2511 37.4668 60.6385 37.6282C61.0259 37.7895 61.3568 38.0619 61.5896 38.411C61.8224 38.7601 61.9467 39.1703 61.9467 39.59L61.9467 39.59Z" fill="white"/>
<path d="M75.1546 27.7267C75.1449 28.2901 74.9156 28.8275 74.5156 29.2244C74.1156 29.6214 73.5765 29.8465 73.013 29.8519C72.4685 29.8752 71.9371 29.6813 71.5355 29.3128C71.134 28.9443 70.8953 28.4314 70.872 27.8869C70.8697 27.8336 70.8695 27.7802 70.8714 27.7268C70.8805 27.1631 71.1096 26.6254 71.5097 26.2284C71.9098 25.8313 72.4493 25.6064 73.013 25.6016C73.5666 25.6368 74.0887 25.8716 74.4825 26.2624C74.8763 26.6531 75.1151 27.1734 75.1546 27.7267V27.7267Z" fill="white"/>
<path d="M59.8049 39.9449L46.9579 45.0809L46.7769 44.3729L59.6269 39.2369L72.6549 27.5469L73.1909 28.0789L59.8049 39.9449Z" fill="white"/>
<path fill-rule="evenodd" clip-rule="evenodd" d="M92.7296 49.6386C92.7296 58.161 90.2024 66.492 85.4676 73.5781C80.7328 80.6642 74.0031 86.1872 66.1294 89.4486C58.2557 92.7099 49.5918 93.5633 41.2331 91.9006C32.8745 90.238 25.1966 86.1341 19.1703 80.1078C13.1441 74.0816 9.04017 66.4037 7.37753 58.045C5.7149 49.6864 6.56822 41.0224 9.8296 33.1488C13.091 25.2751 18.6139 18.5454 25.7001 13.8106C32.7862 9.07578 41.1172 6.54859 49.6396 6.54859C55.2983 6.54825 60.9017 7.66257 66.1298 9.82792C71.3579 11.9933 76.1082 15.1673 80.1096 19.1686C84.1109 23.1699 87.2849 27.9203 89.4502 33.1484C91.6156 38.3764 92.7299 43.9798 92.7296 49.6386V49.6386ZM49.6396 2.80859C58.9017 2.80859 67.9558 5.55513 75.6569 10.7009C83.3581 15.8466 89.3604 23.1605 92.9048 31.7175C96.4493 40.2746 97.3767 49.6905 95.5697 58.7747C93.7628 67.8588 89.3027 76.2031 82.7534 82.7524C76.2041 89.3017 67.8598 93.7618 58.7757 95.5688C49.6915 97.3757 40.2756 96.4483 31.7185 92.9039C23.1614 89.3594 15.8476 83.3571 10.7018 75.656C5.5561 67.9548 2.80957 58.9007 2.80957 49.6386C2.81076 37.2189 7.74501 25.3082 16.5271 16.5261C25.3091 7.74403 37.2198 2.80979 49.6396 2.80859V2.80859Z" fill="#0078D4"/>
</g>
<defs>
<linearGradient id="paint0_linear" x1="47.8698" y1="-15.155" x2="51.8525" y2="130.613" gradientUnits="userSpaceOnUse">
<stop stop-color="#00ABDE"/>
<stop offset="1" stop-color="#007ED8"/>
</linearGradient>
<clipPath id="clip0">
<rect width="99.2799" height="99.28" fill="white"/>
</clipPath>
</defs>
</svg>
