<?xml version="1.0" encoding="UTF-8"?>
<svg width="100px" height="100px" viewBox="0 0 100 100" version="1.1" xmlns="http://www.w3.org/2000/svg" xmlns:xlink="http://www.w3.org/1999/xlink">
    <!-- Generator: Sketch 58 (84663) - https://sketch.com -->
    <title>Drive adoption of Microsoft cloud services to enable business outcomes/service-adoption-framework-phase-2-experiment</title>
    <desc>Created with Sketch.</desc>
    <defs>
        <rect id="path-1" x="0" y="0" width="96" height="96" rx="48"></rect>
        <filter x="-16.9%" y="-8.1%" width="135.5%" height="117.9%" filterUnits="objectBoundingBox" id="filter-3">
            <feOffset dx="0" dy="2" in="SourceAlpha" result="shadowOffsetOuter1"></feOffset>
            <feColorMatrix values="0 0 0 0 0   0 0 0 0 0   0 0 0 0 0  0 0 0 0.0954163024 0" type="matrix" in="shadowOffsetOuter1" result="shadowMatrixOuter1"></feColorMatrix>
            <feMerge>
                <feMergeNode in="shadowMatrixOuter1"></feMergeNode>
                <feMergeNode in="SourceGraphic"></feMergeNode>
            </feMerge>
        </filter>
    </defs>
    <g id="Badges" stroke="none" stroke-width="1" fill="none" fill-rule="evenodd">
        <g id="Drive-adoption-of-Microsoft-cloud-services-to-enable-business-outcomes" transform="translate(-50.000000, -660.000000)">
            <g id="Drive-adoption-of-Microsoft-cloud-services-to-enable-business-outcomes/service-adoption-framework-phase-2-experiment" transform="translate(50.000000, 660.000000)">
                <g id="Mask" transform="translate(2.000000, 2.000000)">
                    <mask id="mask-2" fill="white">
                        <use xlink:href="#path-1"></use>
                    </mask>
                    <use id="BG" fill="#55A2FF" xlink:href="#path-1"></use>
                    <g id="Group-7" filter="url(#filter-3)" mask="url(#mask-2)">
                        <g transform="translate(36.485288, 38.238171)">
                            <path d="M19.2212161,25.3720052 L19.2212161,39.9801294 C19.2212161,42.1021517 18.3601056,44.0242733 16.9684896,45.4158894 C15.5768735,46.8075054 13.6547519,47.6686159 11.5327296,47.6686159 C7.28868514,47.6686159 3.84424322,44.224174 3.84424322,39.9801294 L3.84424322,25.3720052 L19.2212161,25.3720052" id="Fill-95" fill="#DF5142"></path>
                            <path d="M11.5327296,47.6686159 C13.6547519,47.6686159 15.5768735,46.8075054 16.9684896,45.4158894 C18.3601056,44.0242733 19.2212161,42.1021517 19.2212161,39.9801294 L19.2212161,25.3720052 L11.5327296,25.3720052 L11.5327296,47.6686159" id="Fill-96" fill="#C2423D"></path>
                            <path d="M15.8813376,44.3287374 C14.7188384,45.4912365 13.1742215,46.1309186 11.5327296,46.1309186 C8.14133828,46.1309186 5.3819405,43.3715208 5.3819405,39.9801294 L5.3819405,25.3720052 L17.6835188,25.3720052 L17.6835188,39.9801294 C17.6835188,41.6216213 17.0430679,43.1670071 15.8813376,44.3287374 Z M21.527762,0 L1.53769729,0 C0.688119536,0 0,0.688119536 0,1.53769729 C0,2.38650619 0.688119536,3.07539457 1.53769729,3.07539457 L2.30654593,3.07539457 L2.30654593,39.9801294 C2.30654593,45.0676009 6.44525818,49.2063132 11.5327296,49.2063132 C13.9961207,49.2063132 16.3126617,48.2467901 18.0556415,46.5030413 C19.7986214,44.7600615 20.7589134,42.4427517 20.7589134,39.9801294 L20.7589134,3.07539457 L21.527762,3.07539457 C22.3765709,3.07539457 23.0654593,2.38650619 23.0654593,1.53769729 C23.0654593,0.688119536 22.3765709,0 21.527762,0 L21.527762,0 Z" id="Fill-97" fill="#E1E4E1"></path>
                            <path d="M12.3015783,1.53769729 C11.8771738,1.53769729 11.5327296,1.88214148 11.5327296,2.30654593 L11.5327296,3.07539457 L2.30654593,3.07539457 L2.30654593,4.61309186 L9.99503236,4.61309186 C10.8446101,4.61309186 11.5327296,5.3012114 11.5327296,6.15078915 L11.5327296,25.3720052 L17.6835188,25.3720052 L17.6835188,39.7625453 C17.6835188,41.323308 17.184536,42.8733069 16.1504346,44.0427257 C14.9633323,45.3859043 13.3049258,46.1309186 11.5327296,46.1309186 L11.5327296,46.1355317 C11.5327296,47.0174011 10.7469663,47.6755355 9.87278543,47.5586705 C7.39478625,47.2280656 5.20049222,46.1678233 3.58437237,44.6485784 C5.18819064,47.3726092 8.14287598,49.2063132 11.5327296,49.2063132 C14.0783875,49.2063132 16.4679691,48.1814379 18.2294013,46.3246685 C19.912411,44.5509346 20.7589134,42.1405941 20.7589134,39.6948866 L20.7589134,3.07539457 L21.527762,3.07539457 C22.3765709,3.07539457 23.0654593,2.38650619 23.0654593,1.53769729 L12.3015783,1.53769729" id="Fill-98" fill="#C5CCCD"></path>
                            <path d="M6.91963779,13.0704269 C6.91963779,12.6460225 7.26408198,12.3015783 7.68848643,12.3015783 L15.3769729,12.3015783 C15.8013773,12.3015783 16.1458215,12.6452536 16.1458215,13.0704269 C16.1458215,13.4956002 15.8013773,13.8392756 15.3769729,13.8392756 L7.68848643,13.8392756 C7.26408198,13.8392756 6.91963779,13.4948314 6.91963779,13.0704269" id="Fill-99" fill="#546670"></path>
                            <path d="M6.91963779,25.3720052 C6.91963779,24.9476008 7.26408198,24.6031566 7.68848643,24.6031566 L15.3769729,24.6031566 C15.8013773,24.6031566 16.1458215,24.9468319 16.1458215,25.3720052 C16.1458215,25.7971785 15.8013773,26.1408539 15.3769729,26.1408539 L7.68848643,26.1408539 C7.26408198,26.1408539 6.91963779,25.7964097 6.91963779,25.3720052" id="Fill-100" fill="#546670"></path>
                            <path d="M8.45733508,19.2212161 C8.45733508,18.7968116 8.80177927,18.4523674 9.22618372,18.4523674 L13.8392756,18.4523674 C14.26368,18.4523674 14.6081242,18.7960428 14.6081242,19.2212161 C14.6081242,19.6463894 14.26368,19.9900647 13.8392756,19.9900647 L9.22618372,19.9900647 C8.80177927,19.9900647 8.45733508,19.6456205 8.45733508,19.2212161" id="Fill-101" fill="#546670"></path>
                            <path d="M8.45733508,31.5227944 C8.45733508,31.0983899 8.80177927,30.7539457 9.22618372,30.7539457 L13.8392756,30.7539457 C14.26368,30.7539457 14.6081242,31.0976211 14.6081242,31.5227944 C14.6081242,31.9479677 14.26368,32.291643 13.8392756,32.291643 L9.22618372,32.291643 C8.80177927,32.291643 8.45733508,31.9471988 8.45733508,31.5227944" id="Fill-102" fill="#546670"></path>
                        </g>
                    </g>
                    <path d="M37.2608935,91.9139044 C37.2608935,86.18982 32.648677,81.5776035 26.9245925,81.5776035 C32.648677,81.5776035 37.2608935,76.965387 37.2608935,71.2413026 C37.2608935,76.965387 41.8731099,81.5776035 47.5971944,81.5776035 C41.8731099,81.5776035 37.2608935,86.18982 37.2608935,91.9139044 Z M34.2608935,29.8052057 C28.114735,29.8052057 23.1624297,24.8529005 23.1624297,18.706742 C23.1624297,24.8529005 18.2101245,29.8052057 12.063966,29.8052057 C18.2101245,29.8052057 23.1624297,34.757511 23.1624297,40.9036695 C23.1624297,34.757511 28.114735,29.8052057 34.2608935,29.8052057 Z M74.8169511,54.351505 C70.0275476,54.351505 66.1684561,50.4924135 66.1684561,45.70301 C66.1684561,50.4924135 62.3093646,54.351505 57.5199611,54.351505 C62.3093646,54.351505 66.1684561,58.2105965 66.1684561,63 C66.2360208,58.2105965 70.0950724,54.351505 74.8169511,54.351505 Z" id="Sparkle" fill="#FFFFFF" opacity="0.949999988" mask="url(#mask-2)"></path>
                    <g id="Group-4" mask="url(#mask-2)" fill="#FFFFFF">
                        <g transform="translate(37.185696, -16.269025)">
                            <path d="M1.13884275,17.8786923 C-1.36570022,21.5799312 3.64338572,29.8365411 11.1617978,26.7628046 C18.6775905,23.630987 18.7909053,30.1214796 16.7425828,32.683648 C13.099197,37.2968722 14.1801866,42.5352072 14.1801866,42.5352072 C14.1801866,42.5352072 15.60374,37.3525616 21.2979538,32.2856225 C29.0984571,25.2811701 21.753935,14.6335599 12.6985522,18.9623012 C5.63886598,22.3209762 5.12467848,20.1011439 5.0694446,18.3350266 C5.01161417,16.5689092 7.91655147,12.4141831 7.91655147,12.4141831 C7.91432503,12.4141831 3.58803796,14.1780797 1.13929828,17.8793187 L1.13884275,17.8786923 Z" id="Fill-1"></path>
                            <path d="M6.43503094,5.58089888 C9.11085586,8.02986633 12.0158159,6.03688013 13.1547726,7.23130979 C15.9440262,9.90713471 9.39568043,16.5134476 9.39568043,16.5134476 C9.39568043,16.5134476 19.2472396,13.3237768 18.0503159,6.7199694 C17.3096126,2.67616657 13.7218024,2.1067452 10.0203357,3.07658368 C5.06682527,4.38670838 5.46496469,0.00261808972 5.46496469,0.00261808972 C5.46718543,0.000398594961 3.64327183,2.9609342 6.43474623,5.58118359 L6.43503094,5.58089888 Z" id="Fill-2"></path>
                            <path d="M11.4465085,42.648522 C7.28927689,37.7505872 12.2427873,30.9173029 12.2427873,30.9173029 C12.2427873,30.9173029 4.84030944,32.9102777 4.4422839,37.5237297 C4.04413309,42.1369539 6.43525871,42.5350933 8.20137604,45.0395224 C9.96749338,47.6019186 8.77079742,51.1898449 8.77079742,51.1898449 C8.76857098,51.1898449 14.7474442,46.5788392 11.4466223,42.648522 L11.4465085,42.648522 Z" id="Fill-3"></path>
                        </g>
                    </g>
                </g>
                <g id="Azure-Border" stroke="#0078D4" stroke-width="4">
                    <rect x="2" y="2" width="96" height="96" rx="48"></rect>
                </g>
            </g>
        </g>
    </g>
</svg>