<svg width="100" height="100" viewBox="0 0 100 100" fill="none" xmlns="https://www.w3.org/2000/svg">
<g clip-path="url(#clip0)">
<path d="M49.6401 96.4481C40.382 96.4481 31.3317 93.7028 23.6339 88.5592C15.936 83.4157 9.93624 76.105 6.3933 67.5516C2.85036 58.9981 1.92337 49.5862 3.72954 40.506C5.53571 31.4257 9.99394 23.085 16.5404 16.5385C23.0869 9.99198 31.4277 5.53376 40.5079 3.72759C49.5882 1.92141 59.0001 2.84841 67.5535 6.39135C76.1069 9.93428 83.4176 15.934 88.5612 23.6319C93.7047 31.3298 96.4501 40.38 96.4501 49.6381C96.4505 55.7854 95.24 61.8726 92.8878 67.5521C90.5355 73.2315 87.0875 78.392 82.7407 82.7388C78.3939 87.0856 73.2335 90.5335 67.554 92.8858C61.8746 95.2381 55.7874 96.4486 49.6401 96.4481V96.4481Z" fill="url(#paint0_linear)"/>
<path fill-rule="evenodd" clip-rule="evenodd" d="M95.54 49.64C95.54 58.7182 92.848 67.5925 87.8045 75.1407C82.7609 82.6889 75.5923 88.572 67.2052 92.0461C58.818 95.5201 49.5891 96.4291 40.6854 94.658C31.7816 92.887 23.603 88.5154 17.1838 82.0962C10.7646 75.677 6.39302 67.4984 4.62196 58.5946C2.85089 49.6909 3.75987 40.462 7.23393 32.0748C10.708 23.6877 16.5911 16.5191 24.1393 11.4755C31.6875 6.43199 40.5618 3.74 49.64 3.74C55.6677 3.73998 61.6363 4.9272 67.2052 7.23388C72.774 9.54057 77.834 12.9215 82.0963 17.1837C86.3585 21.446 89.7394 26.5059 92.0461 32.0748C94.3528 37.6437 95.54 43.6123 95.54 49.64V49.64ZM49.64 3.62732e-07C59.4579 3.62732e-07 69.0553 2.91134 77.2185 8.36585C85.3818 13.8204 91.7442 21.5731 95.5014 30.6436C99.2585 39.7141 100.242 49.6951 98.3262 59.3243C96.4108 68.9535 91.6831 77.7985 84.7408 84.7408C77.7985 91.6831 68.9535 96.4108 59.3243 98.3262C49.6951 100.242 39.7141 99.2585 30.6436 95.5014C21.5731 91.7442 13.8204 85.3818 8.36585 77.2185C2.91134 69.0553 3.62732e-07 59.4579 3.62732e-07 49.64C-0.000787738 43.121 1.28265 36.6656 3.77702 30.6427C6.27138 24.6197 9.9278 19.1471 14.5375 14.5375C19.1471 9.9278 24.6197 6.27138 30.6427 3.77702C36.6656 1.28265 43.121 -0.000787738 49.64 3.62732e-07V3.62732e-07Z" fill="#F2F1F0"/>
<path fill-rule="evenodd" clip-rule="evenodd" d="M92.7296 49.6386C92.7296 58.161 90.2024 66.492 85.4676 73.5781C80.7328 80.6643 74.0031 86.1872 66.1294 89.4486C58.2557 92.71 49.5918 93.5633 41.2331 91.9007C32.8745 90.238 25.1966 86.1341 19.1703 80.1079C13.1441 74.0816 9.04017 66.4037 7.37753 58.0451C5.7149 49.6864 6.56822 41.0225 9.8296 33.1488C13.091 25.2751 18.6139 18.5454 25.7 13.8106C32.7862 9.07581 41.1172 6.54862 49.6396 6.54862C55.2983 6.54828 60.9017 7.6626 66.1298 9.82795C71.3579 11.9933 76.1082 15.1673 80.1096 19.1686C84.1109 23.17 87.2849 27.9203 89.4502 33.1484C91.6156 38.3765 92.7299 43.9799 92.7296 49.6386V49.6386ZM49.6396 2.80862C58.9017 2.80862 67.9558 5.55515 75.6569 10.7009C83.3581 15.8466 89.3604 23.1605 92.9049 31.7176C96.4493 40.2746 97.3767 49.6906 95.5697 58.7747C93.7628 67.8588 89.3027 76.2031 82.7534 82.7524C76.2041 89.3017 67.8598 93.7619 58.7757 95.5688C49.6915 97.3757 40.2756 96.4484 31.7185 92.9039C23.1614 89.3594 15.8476 83.3571 10.7018 75.656C5.5561 67.9548 2.80957 58.9007 2.80957 49.6386C2.81076 37.2189 7.745 25.3082 16.5271 16.5261C25.3091 7.74403 37.2198 2.80979 49.6396 2.80859V2.80862Z" fill="#0078D4"/>
<path fill-rule="evenodd" clip-rule="evenodd" d="M92.7296 49.6386C92.7296 58.161 90.2024 66.492 85.4676 73.5781C80.7328 80.6642 74.0031 86.1872 66.1294 89.4486C58.2557 92.7099 49.5918 93.5633 41.2331 91.9006C32.8745 90.238 25.1966 86.1341 19.1703 80.1078C13.1441 74.0816 9.04017 66.4037 7.37753 58.045C5.7149 49.6864 6.56822 41.0224 9.8296 33.1488C13.091 25.2751 18.6139 18.5454 25.7001 13.8106C32.7862 9.07578 41.1172 6.54859 49.6396 6.54859C55.2983 6.54825 60.9017 7.66257 66.1298 9.82792C71.3579 11.9933 76.1082 15.1673 80.1096 19.1686C84.1109 23.1699 87.2849 27.9203 89.4502 33.1484C91.6156 38.3764 92.7299 43.9798 92.7296 49.6386V49.6386ZM49.6396 2.80859C58.9017 2.80859 67.9558 5.55513 75.6569 10.7009C83.3581 15.8466 89.3604 23.1605 92.9048 31.7175C96.4493 40.2746 97.3767 49.6905 95.5697 58.7747C93.7628 67.8588 89.3027 76.2031 82.7534 82.7524C76.2041 89.3017 67.8598 93.7618 58.7757 95.5688C49.6915 97.3757 40.2756 96.4483 31.7185 92.9039C23.1614 89.3594 15.8476 83.3571 10.7018 75.656C5.5561 67.9548 2.80957 58.9007 2.80957 49.6386C2.81076 37.2189 7.74501 25.3082 16.5271 16.5261C25.3091 7.74403 37.2198 2.80979 49.6396 2.80859V2.80859Z" fill="#0078D4"/>
<path fill-rule="evenodd" clip-rule="evenodd" d="M31.1255 39.0938C30.2335 39.0964 29.3788 39.4518 28.7481 40.0826C28.1174 40.7133 27.7619 41.568 27.7593 42.46V66.0234H71.52V42.46C71.5174 41.568 71.1619 40.7133 70.5312 40.0826C69.9005 39.4519 69.0458 39.0964 68.1538 39.0938H31.1255ZM68.1538 40.7769C68.6 40.7774 69.0278 40.955 69.3433 41.2705C69.6588 41.586 69.8363 42.0138 69.8369 42.46V64.3404H29.4424V42.46C29.4428 42.0137 29.6203 41.5859 29.9359 41.2703C30.2514 40.9548 30.6793 40.7773 31.1255 40.7769H68.1538Z" fill="#1F56A3"/>
<path fill-rule="evenodd" clip-rule="evenodd" d="M29.4424 42.4604C29.4428 42.0142 29.6203 41.5863 29.9359 41.2708C30.2514 40.9553 30.6793 40.7778 31.1255 40.7773H68.1538C68.6 40.7779 69.0278 40.9555 69.3433 41.271C69.6588 41.5865 69.8363 42.0142 69.8369 42.4604V64.3408H29.4424V42.4604Z" fill="#0078D4"/>
<path d="M67.8364 42.7734H31.4419V62.3369H67.8364V42.7734Z" fill="#1B93EB"/>
<path fill-rule="evenodd" clip-rule="evenodd" d="M22.71 66.0234V66.865C22.7126 67.757 23.0681 68.6117 23.6988 69.2424C24.3295 69.8731 25.1842 70.2286 26.0762 70.2312H73.2032C74.0952 70.2286 74.9499 69.8731 75.5806 69.2424C76.2113 68.6117 76.5668 67.757 76.5694 66.865V66.0234H22.71Z" fill="#0078D4"/>
<path fill-rule="evenodd" clip-rule="evenodd" d="M47.9558 68.5481H23.1797C23.4731 69.0574 23.8949 69.4808 24.403 69.7761C24.9111 70.0714 25.4878 70.2284 26.0755 70.2312H73.2025C74.0944 70.2286 74.9491 69.8731 75.5799 69.2424C76.2106 68.6117 76.5661 67.757 76.5687 66.865V66.0234H49.639V66.865C49.639 67.086 49.5956 67.3049 49.511 67.5092C49.4264 67.7134 49.3025 67.899 49.1461 68.0553C48.9898 68.2116 48.8043 68.3356 48.6 68.4201C48.3958 68.5047 48.1769 68.5482 47.9558 68.5481Z" fill="#1F56A3"/>
<path fill-rule="evenodd" clip-rule="evenodd" d="M46.2734 67.7065H53.0059C53.4522 67.7064 53.8802 67.529 54.1958 67.2134C54.5114 66.8978 54.6888 66.4698 54.689 66.0234H44.5903C44.5904 66.4698 44.7677 66.8979 45.0833 67.2135C45.399 67.5292 45.8271 67.7065 46.2734 67.7065V67.7065Z" fill="#003067"/>
<path d="M38.0004 50.6797H35.2124C34.6601 50.6797 34.2124 51.1274 34.2124 51.6797V58.5985C34.2124 59.1508 34.6601 59.5985 35.2124 59.5985H38.0004C38.5527 59.5985 39.0004 59.1508 39.0004 58.5985V51.6797C39.0004 51.1274 38.5527 50.6797 38.0004 50.6797Z" fill="white"/>
<path d="M46.2499 34.2773H43.4619C42.9096 34.2773 42.4619 34.7251 42.4619 35.2773V58.6007C42.4619 59.153 42.9096 59.6007 43.4619 59.6007H46.2499C46.8022 59.6007 47.2499 59.153 47.2499 58.6007V35.2773C47.2499 34.7251 46.8022 34.2773 46.2499 34.2773Z" fill="#9CEBFF"/>
<path d="M54.4999 25.8984H51.7119C51.1596 25.8984 50.7119 26.3462 50.7119 26.8984V58.6001C50.7119 59.1524 51.1596 59.6001 51.7119 59.6001H54.4999C55.0522 59.6001 55.4999 59.1524 55.4999 58.6001V26.8984C55.4999 26.3462 55.0522 25.8984 54.4999 25.8984Z" fill="#50E6FF"/>
<path d="M62.7494 15H59.9614C59.4091 15 58.9614 15.4477 58.9614 16V58.5986C58.9614 59.1509 59.4091 59.5986 59.9614 59.5986H62.7494C63.3017 59.5986 63.7494 59.1509 63.7494 58.5986V16C63.7494 15.4477 63.3017 15 62.7494 15Z" fill="#1F56A3"/>
<path d="M13.7 41.4288C13.6932 41.3812 13.6797 41.3336 13.6729 41.2929C13.5454 40.6203 13.5676 39.9278 13.7379 39.2648C13.9082 38.6017 14.2224 37.9843 14.6583 37.4563C15.0941 36.9284 15.6408 36.5029 16.2597 36.2101C16.8785 35.9173 17.5542 35.7643 18.2388 35.7621C18.5889 35.7609 18.938 35.802 19.2783 35.8844C19.9723 34.7899 21.0029 33.9503 22.2151 33.492C23.4273 33.0337 24.7556 32.9815 26.0001 33.3432C27.2446 33.7049 28.3379 34.4609 29.1157 35.4976C29.8934 36.5342 30.3135 37.7954 30.3126 39.0914C30.3126 39.173 30.3126 39.2545 30.3058 39.336C30.6167 39.2314 30.9427 39.1786 31.2707 39.1797C32.0257 39.1799 32.7517 39.4702 33.2987 39.9907C33.8456 40.5111 34.1715 41.2219 34.2091 41.976C34.2466 42.7301 33.9929 43.4697 33.5003 44.0419C33.0078 44.6141 32.3141 44.9751 31.5628 45.0502L18.2456 45.0774C17.4166 45.0764 16.6029 44.855 15.8877 44.436C15.1725 44.0169 14.5816 43.4152 14.1756 42.6925C14.1552 42.6517 14.1281 42.611 14.1077 42.5702C13.9278 42.2069 13.791 41.8238 13.7 41.4288V41.4288Z" fill="white"/>
<path d="M80.0389 30.9561C80.0457 30.9086 80.0593 30.861 80.0661 30.8202C80.1936 30.1476 80.1714 29.4552 80.0011 28.7921C79.8307 28.1291 79.5165 27.5116 79.0807 26.9837C78.6448 26.4558 78.0981 26.0303 77.4793 25.7375C76.8605 25.4447 76.1848 25.2917 75.5002 25.2895C75.15 25.2883 74.801 25.3294 74.4607 25.4118C73.7667 24.3172 72.7361 23.4777 71.5239 23.0194C70.3116 22.561 68.9834 22.5088 67.7389 22.8705C66.4944 23.2322 65.401 23.9883 64.6233 25.0249C63.8455 26.0616 63.4255 27.3228 63.4263 28.6188C63.4263 28.7003 63.4263 28.7819 63.4331 28.8634C63.1223 28.7588 62.7963 28.706 62.4683 28.7071C61.7133 28.7073 60.9873 28.9976 60.4404 29.5181C59.8935 30.0385 59.5675 30.7493 59.53 31.5034C59.4925 32.2574 59.7462 32.997 60.2387 33.5693C60.7313 34.1415 61.4249 34.5025 62.1761 34.5776L75.4934 34.6048C76.3223 34.6038 77.1361 34.3824 77.8513 33.9633C78.5664 33.5442 79.1573 32.9425 79.5634 32.2199C79.5837 32.1791 79.6109 32.1383 79.6313 32.0976C79.8112 31.7343 79.948 31.3512 80.0389 30.9561V30.9561Z" fill="white"/>
</g>
<defs>
<linearGradient id="paint0_linear" x1="47.8698" y1="-15.155" x2="51.8525" y2="130.613" gradientUnits="userSpaceOnUse">
<stop stop-color="#00ABDE"/>
<stop offset="1" stop-color="#007ED8"/>
</linearGradient>
<clipPath id="clip0">
<rect width="99.2799" height="99.28" fill="white"/>
</clipPath>
</defs>
</svg>
