<svg width="103" height="102" viewBox="0 0 103 102" fill="none" xmlns="http://www.w3.org/2000/svg">
<path d="M51.4999 97.8104C25.6499 97.8104 4.68994 76.8604 4.68994 51.0004C4.68994 25.1404 25.6499 4.19043 51.4999 4.19043C77.3499 4.19043 98.3099 25.1504 98.3099 51.0004C98.3099 76.8504 77.3499 97.8104 51.4999 97.8104Z" fill="url(#paint0_linear)"/>
<path fill-rule="evenodd" clip-rule="evenodd" d="M51.5 1C79.11 1 101.5 23.39 101.5 51C101.5 78.61 79.11 101 51.5 101C23.89 101 1.5 78.61 1.5 51C1.5 23.39 23.89 1 51.5 1ZM51.5 96.76C76.77 96.76 97.26 76.27 97.26 51C97.26 25.73 76.77 5.24 51.5 5.24C26.23 5.24 5.74 25.73 5.74 51C5.74 76.27 26.23 96.76 51.5 96.76Z" fill="#D9D9D9"/>
<path fill-rule="evenodd" clip-rule="evenodd" d="M97.4001 51.0004C97.4001 76.3504 76.8501 96.9004 51.5001 96.9004C26.1501 96.9004 5.60011 76.3504 5.60011 51.0004C5.60011 25.6504 26.1501 5.10035 51.5001 5.10035C76.8501 5.10035 97.4001 25.6504 97.4001 51.0004ZM51.5001 1.36035C78.9201 1.36035 101.14 23.5804 101.14 51.0004C101.14 78.4204 78.9101 100.64 51.5001 100.64C24.0801 100.64 1.86011 78.4104 1.86011 51.0004C1.86011 23.5804 24.0801 1.36035 51.5001 1.36035Z" fill="#F2F1F0"/>
<path fill-rule="evenodd" clip-rule="evenodd" d="M51.4999 94.0899C27.6999 94.0899 8.40992 74.7999 8.40992 50.9999C8.40992 27.1999 27.6999 7.90992 51.4999 7.90992C75.2999 7.90992 94.5899 27.1999 94.5899 50.9999C94.5899 74.7999 75.2999 94.0899 51.4999 94.0899ZM98.3299 50.9999C98.3299 76.8599 77.3599 97.8299 51.4999 97.8299C25.6399 97.8299 4.66992 76.8599 4.66992 50.9999C4.66992 25.1399 25.6399 4.16992 51.4999 4.16992C77.3599 4.16992 98.3299 25.1299 98.3299 50.9999Z" fill="url(#paint1_linear)"/>
<path opacity="0.15" d="M88.7001 46.6903C88.7001 45.8803 88.0401 45.2203 87.2301 45.2203C86.7001 45.2203 83.4001 44.9303 81.6301 43.5503C81.6301 43.5503 81.6401 43.5303 81.6301 43.5503C80.9601 41.1103 79.9801 38.8303 78.7701 36.6703C78.4601 34.6203 80.5801 33.1303 81.5501 31.5303C81.7201 31.2503 81.8201 31.0903 81.8801 30.9803C82.0601 30.4603 81.9601 29.8603 81.5501 29.4503C81.5501 29.4503 79.9201 27.1203 78.2501 25.4603C76.5801 23.8003 74.0501 21.9503 74.0501 21.9503C73.4801 21.3803 72.5401 21.3803 71.9701 21.9503C71.5901 22.3203 69.0801 24.3903 66.8201 24.7203C66.7901 24.7203 66.7901 24.7203 66.7901 24.7203C64.6901 23.5303 62.3301 22.5503 59.9601 21.8803H59.9301C58.2601 20.6503 58.7001 18.1003 58.2601 16.2803C58.2601 15.4703 57.6001 14.8103 56.7901 14.8103C56.7901 14.8103 53.9901 14.3203 51.6301 14.3203C49.2701 14.3203 46.1801 14.8103 46.1801 14.8103C45.3701 14.8103 44.7101 15.4703 44.7101 16.2803C44.7101 16.8103 44.4201 20.1103 43.0401 21.8803C40.7001 22.5403 38.2401 23.5803 36.1601 24.7403C34.1101 25.0503 32.6201 22.9303 31.0201 21.9603C30.7401 21.7903 30.5801 21.6903 30.4701 21.6303C29.9501 21.4503 29.3501 21.5503 28.9401 21.9603C28.9401 21.9603 26.6101 23.5903 24.9501 25.2603C23.2901 26.9303 21.4401 29.4603 21.4401 29.4603C20.8701 30.0303 20.8701 30.9703 21.4401 31.5403C21.8101 31.9103 23.9401 34.4603 24.2201 36.6803V36.7003C23.0601 38.7803 22.0401 41.2303 21.3801 43.5703C21.3801 43.5703 21.4101 43.5303 21.3801 43.5703C19.9501 45.3103 17.6001 44.8003 15.7801 45.2403C14.9701 45.2403 14.3101 45.9003 14.3101 46.7103C14.3101 46.7103 13.8201 49.5103 13.8201 51.8703C13.8201 54.2303 14.3101 57.3203 14.3101 57.3203C14.3101 58.1303 14.9701 58.7903 15.7801 58.7903C16.3101 58.7903 19.6101 59.0803 21.3801 60.4603C21.4201 60.4403 21.4001 60.4903 21.4001 60.4903C22.0801 62.8403 23.0501 65.1903 24.2301 67.2703C24.2101 67.3003 24.2301 67.2703 24.2401 67.3403C24.4401 69.4803 22.4301 70.8803 21.4601 72.4803C21.2901 72.7603 21.1901 72.9203 21.1301 73.0303C20.9501 73.5503 21.0501 74.1503 21.4601 74.5603C21.4601 74.5603 23.0901 76.8903 24.7601 78.5503C26.4301 80.2203 28.9601 82.0603 28.9601 82.0603C29.5301 82.6303 30.4701 82.6303 31.0401 82.0603C31.4101 81.6903 33.9601 79.5603 36.1801 79.2803C36.1801 79.2803 36.1701 79.2903 36.2101 79.3003C38.3501 80.4903 40.5601 81.4303 42.9801 82.0903C43.0001 82.1003 43.0701 82.1203 43.0701 82.1203C44.7401 83.3503 44.3001 85.9003 44.7401 87.7203C44.8301 88.5403 45.2801 89.0603 46.2101 89.1903C46.2101 89.1903 49.0101 89.6803 51.3701 89.6803C53.7301 89.6803 56.8201 89.2003 56.8201 89.2003C57.6301 89.0603 58.2901 88.5403 58.2901 87.7303C58.2901 87.2003 58.5801 83.9003 59.9601 82.1303C59.9601 82.1303 60.0201 82.0803 60.0801 82.0303C62.5401 81.3403 64.4101 80.5803 66.5801 79.3303C66.6901 79.2903 66.5701 79.3003 66.8301 79.2603C68.8801 78.9503 70.3701 81.0703 71.9701 82.0403C72.2501 82.2103 72.4101 82.3103 72.5201 82.3703C73.0401 82.5503 73.6401 82.4503 74.0501 82.0403C74.0501 82.0403 76.3801 80.4103 78.0401 78.7403C79.7101 77.0703 81.5501 74.5403 81.5501 74.5403C82.1201 73.9703 82.1201 73.0303 81.5501 72.4603C81.1801 72.0903 79.0501 69.5403 78.7701 67.3203C78.7401 67.0903 78.7601 67.0603 78.7901 67.0003C80.0301 64.8103 80.8101 63.2103 81.4901 60.7303C81.4901 60.7303 81.4601 60.6503 81.6201 60.4403C82.8501 58.7703 85.4001 59.2103 87.2201 58.7703C88.0301 58.7703 88.6901 58.1103 88.6901 57.3003C88.6901 57.3003 89.1801 54.5003 89.1801 52.1403C89.1801 49.7803 88.7001 46.6903 88.7001 46.6903Z" fill="#1F1D20"/>
<path d="M88.7001 44.6903C88.7001 43.8803 88.0401 43.2203 87.2301 43.2203C86.7001 43.2203 83.4001 42.9303 81.6301 41.5503C81.6301 41.5503 81.6401 41.5303 81.6301 41.5503C80.9601 39.1103 79.9801 36.8303 78.7701 34.6703C78.4601 32.6203 80.5801 31.1303 81.5501 29.5303C81.7201 29.2503 81.8201 29.0903 81.8801 28.9803C82.0601 28.4603 81.9601 27.8603 81.5501 27.4503C81.5501 27.4503 79.9201 25.1203 78.2501 23.4603C76.5801 21.8003 74.0501 19.9503 74.0501 19.9503C73.4801 19.3803 72.5401 19.3803 71.9701 19.9503C71.5901 20.3203 69.0801 22.3903 66.8201 22.7203C66.7901 22.7203 66.7901 22.7203 66.7901 22.7203C64.6901 21.5303 62.3301 20.5503 59.9601 19.8803H59.9301C58.2601 18.6503 58.7001 16.1003 58.2601 14.2803C58.2601 13.4703 57.6001 12.8103 56.7901 12.8103C56.7901 12.8103 53.9901 12.3203 51.6301 12.3203C49.2701 12.3203 46.1801 12.8103 46.1801 12.8103C45.3701 12.8103 44.7101 13.4703 44.7101 14.2803C44.7101 14.8103 44.4201 18.1103 43.0401 19.8803C40.7001 20.5403 38.2401 21.5803 36.1601 22.7403C34.1101 23.0503 32.6201 20.9303 31.0201 19.9603C30.7401 19.7903 30.5801 19.6903 30.4701 19.6303C29.9501 19.4503 29.3501 19.5503 28.9401 19.9603C28.9401 19.9603 26.6101 21.5903 24.9501 23.2603C23.2901 24.9303 21.4401 27.4603 21.4401 27.4603C20.8701 28.0303 20.8701 28.9703 21.4401 29.5403C21.8101 29.9103 23.9401 32.4603 24.2201 34.6803V34.7003C23.0601 36.7803 22.0401 39.2303 21.3801 41.5703C21.3801 41.5703 21.4101 41.5303 21.3801 41.5703C19.9501 43.3103 17.6001 42.8003 15.7801 43.2403C14.9701 43.2403 14.3101 43.9003 14.3101 44.7103C14.3101 44.7103 13.8201 47.5103 13.8201 49.8703C13.8201 52.2303 14.3101 55.3203 14.3101 55.3203C14.3101 56.1303 14.9701 56.7903 15.7801 56.7903C16.3101 56.7903 19.6101 57.0803 21.3801 58.4603C21.4201 58.4403 21.4001 58.4903 21.4001 58.4903C22.0801 60.8403 23.0501 63.1903 24.2301 65.2703C24.2101 65.3003 24.2301 65.2703 24.2401 65.3403C24.4401 67.4803 22.4301 68.8803 21.4601 70.4803C21.2901 70.7603 21.1901 70.9203 21.1301 71.0303C20.9501 71.5503 21.0501 72.1503 21.4601 72.5603C21.4601 72.5603 23.0901 74.8903 24.7601 76.5503C26.4301 78.2203 28.9601 80.0603 28.9601 80.0603C29.5301 80.6303 30.4701 80.6303 31.0401 80.0603C31.4101 79.6903 33.9601 77.5603 36.1801 77.2803C36.1801 77.2803 36.1701 77.2903 36.2101 77.3003C38.3501 78.4903 40.5601 79.4303 42.9801 80.0903C43.0001 80.1003 43.0701 80.1203 43.0701 80.1203C44.7401 81.3503 44.3001 83.9003 44.7401 85.7203C44.8301 86.5403 45.2801 87.0603 46.2101 87.1903C46.2101 87.1903 49.0101 87.6803 51.3701 87.6803C53.7301 87.6803 56.8201 87.2003 56.8201 87.2003C57.6301 87.0603 58.2901 86.5403 58.2901 85.7303C58.2901 85.2003 58.5801 81.9003 59.9601 80.1303C59.9601 80.1303 60.0201 80.0803 60.0801 80.0303C62.5401 79.3403 64.4101 78.5803 66.5801 77.3303C66.6901 77.2903 66.5701 77.3003 66.8301 77.2603C68.8801 76.9503 70.3701 79.0703 71.9701 80.0403C72.2501 80.2103 72.4101 80.3103 72.5201 80.3703C73.0401 80.5503 73.6401 80.4503 74.0501 80.0403C74.0501 80.0403 76.3801 78.4103 78.0401 76.7403C79.7101 75.0703 81.5501 72.5403 81.5501 72.5403C82.1201 71.9703 82.1201 71.0303 81.5501 70.4603C81.1801 70.0903 79.0501 67.5403 78.7701 65.3203C78.7401 65.0903 78.7601 65.0603 78.7901 65.0003C80.0301 62.8103 80.8101 61.2103 81.4901 58.7303C81.4901 58.7303 81.4601 58.6503 81.6201 58.4403C82.8501 56.7703 85.4001 57.2103 87.2201 56.7703C88.0301 56.7703 88.6901 56.1103 88.6901 55.3003C88.6901 55.3003 89.1801 52.5003 89.1801 50.1403C89.1801 47.7803 88.7001 44.6903 88.7001 44.6903Z" fill="#F2F1F0"/>
<path d="M64.38 47.0293H71.29C71.94 47.0293 72.47 47.5593 72.47 48.2093V54.5093C72.47 56.9093 70.52 58.8593 68.12 58.8593H68.1C65.7 58.8593 63.75 56.9093 63.75 54.5093V47.6493C63.76 47.3093 64.04 47.0293 64.38 47.0293Z" fill="#5059C9"/>
<path d="M69.05 45.7895C70.6 45.7895 71.85 44.5395 71.85 42.9895C71.85 41.4395 70.6 40.1895 69.05 40.1895C67.5 40.1895 66.25 41.4395 66.25 42.9895C66.25 44.5295 67.51 45.7895 69.05 45.7895Z" fill="#5059C9"/>
<path d="M60.34 45.7895C62.57 45.7895 64.39 43.9795 64.39 41.7395C64.39 39.5095 62.58 37.6895 60.34 37.6895C58.11 37.6895 56.29 39.4995 56.29 41.7395C56.29 43.9795 58.1 45.7895 60.34 45.7895Z" fill="#7B83EB"/>
<path d="M65.7299 47.0293H54.3199C53.6699 47.0493 53.1599 47.5793 53.1799 48.2293V55.4093C53.0899 59.2793 56.1499 62.4993 60.0299 62.5893C63.8999 62.4993 66.9699 59.2793 66.8799 55.4093V48.2293C66.8899 47.5793 66.3799 47.0493 65.7299 47.0293Z" fill="#7B83EB"/>
<path opacity="0.1" d="M60.6501 47.0293V57.0993C60.6501 57.5593 60.3701 57.9793 59.9401 58.1493C59.8001 58.2093 59.6601 58.2393 59.5101 58.2393H53.7301C53.6501 58.0293 53.5701 57.8293 53.5101 57.6193C53.2901 56.9093 53.1801 56.1593 53.1801 55.4193V48.2393C53.1701 47.5993 53.6701 47.0593 54.3201 47.0493H60.6501V47.0293Z" fill="black"/>
<path opacity="0.2" d="M60.0301 47.0293V57.7193C60.0301 57.8693 60.0001 58.0093 59.9401 58.1493C59.7601 58.5793 59.3501 58.8593 58.8901 58.8593H54.0201C53.9101 58.6493 53.8101 58.4493 53.7301 58.2393C53.6401 58.0293 53.5701 57.8293 53.5101 57.6193C53.2901 56.9093 53.1801 56.1593 53.1801 55.4193V48.2293C53.1701 47.5893 53.6701 47.0493 54.3201 47.0393H60.0301V47.0293Z" fill="black"/>
<path opacity="0.2" d="M60.0301 47.0293V56.4693C60.0201 57.0993 59.5201 57.5993 58.8901 57.6093H53.5101C53.2901 56.8993 53.1801 56.1493 53.1801 55.4093V48.2293C53.1701 47.5893 53.6701 47.0493 54.3201 47.0393H60.0301V47.0293Z" fill="black"/>
<path opacity="0.2" d="M59.4001 47.0293V56.4693C59.3901 57.0993 58.8901 57.5993 58.2601 57.6093H53.5101C53.2901 56.8993 53.1801 56.1493 53.1801 55.4093V48.2293C53.1701 47.5893 53.6701 47.0493 54.3201 47.0393H59.4001V47.0293Z" fill="black"/>
<path opacity="0.1" d="M60.6499 43.8099V45.7699C60.5399 45.7799 60.4399 45.7799 60.3399 45.7799C60.2299 45.7799 60.1299 45.7699 60.0299 45.7699C59.8199 45.7599 59.6099 45.7199 59.4099 45.6699C58.1499 45.3699 57.1099 44.4899 56.6099 43.2899C56.5199 43.0899 56.4599 42.8799 56.4099 42.6699H59.5199C60.1399 42.6799 60.6499 43.1899 60.6499 43.8099Z" fill="black"/>
<path opacity="0.2" d="M60.0299 44.4398V45.7798C59.8199 45.7698 59.6099 45.7298 59.4099 45.6798C58.1499 45.3798 57.1099 44.4998 56.6099 43.2998H58.8899C59.5199 43.2998 60.0199 43.8098 60.0299 44.4398Z" fill="black"/>
<path opacity="0.2" d="M60.0299 44.4398V45.7798C59.8199 45.7698 59.6099 45.7298 59.4099 45.6798C58.1499 45.3798 57.1099 44.4998 56.6099 43.2998H58.8899C59.5199 43.2998 60.0199 43.8098 60.0299 44.4398Z" fill="black"/>
<path opacity="0.2" d="M59.3999 44.4398V45.6798C58.1399 45.3798 57.0999 44.4998 56.5999 43.2998H58.2599C58.8899 43.2998 59.3999 43.8098 59.3999 44.4398Z" fill="black"/>
<path d="M46.85 43.2998H58.26C58.89 43.2998 59.4 43.8098 59.4 44.4398V55.8498C59.4 56.4798 58.89 56.9898 58.26 56.9898H46.85C46.22 56.9898 45.71 56.4798 45.71 55.8498V44.4398C45.71 43.8098 46.22 43.2998 46.85 43.2998Z" fill="url(#paint2_linear)"/>
<path d="M55.5601 47.6397H53.2801V53.8497H51.8301V47.6397H49.5601V46.4297H55.5701V47.6397H55.5601Z" fill="white"/>
<path d="M31.31 38.9394C30.74 39.0594 28.67 40.6494 28.19 42.0294C27.71 43.4094 27.62 46.6494 28.34 49.5194C29.06 52.3894 29.86 53.3694 30.41 54.4994C30.96 55.6294 32.54 58.5794 36.13 60.9194C39.72 63.2594 42.4 61.5894 42.81 61.1594C43.22 60.7294 43.92 59.5994 43.93 59.1894C43.95 58.7794 44.01 58.7694 43.4 58.1894C42.79 57.6094 41.27 55.8294 40.81 55.3194C40.35 54.8094 39.8 54.6894 39.46 54.9094C39.12 55.1294 37.67 56.1294 37.28 56.2994C36.9 56.4694 36.88 56.6994 36.28 56.1794C35.68 55.6594 34.1 53.8894 33.16 51.9494C32.22 50.0094 31.74 47.5994 31.64 47.0894C31.54 46.5794 31.82 46.4694 32.67 46.0294C33.52 45.5994 34.58 45.2694 34.95 45.0594C35.31 44.8494 35.05 44.4694 35.01 43.8894C34.96 43.3094 34.31 40.2494 34.13 39.6294C33.95 39.0094 33.7 39.0394 33.28 38.9694C32.87 38.8894 31.86 38.8194 31.31 38.9394Z" fill="url(#paint3_linear)"/>
<defs>
<linearGradient id="paint0_linear" x1="36.4424" y1="0.561429" x2="66.6787" y2="101.853" gradientUnits="userSpaceOnUse">
<stop stop-color="#A9B1FF"/>
<stop offset="1" stop-color="#7B83EB"/>
</linearGradient>
<linearGradient id="paint1_linear" x1="51.4998" y1="4.16982" x2="51.4998" y2="97.8299" gradientUnits="userSpaceOnUse">
<stop stop-color="#5A62C3"/>
<stop offset="0.5" stop-color="#4D55BD"/>
<stop offset="1" stop-color="#3940AB"/>
</linearGradient>
<linearGradient id="paint2_linear" x1="48.0881" y1="42.4055" x2="57.0244" y2="57.8826" gradientUnits="userSpaceOnUse">
<stop stop-color="#5A62C3"/>
<stop offset="0.5" stop-color="#4D55BD"/>
<stop offset="1" stop-color="#3940AB"/>
</linearGradient>
<linearGradient id="paint3_linear" x1="23.5508" y1="34.8603" x2="48.2777" y2="69.7688" gradientUnits="userSpaceOnUse">
<stop stop-color="#5A62C3"/>
<stop offset="0.5" stop-color="#4D55BD"/>
<stop offset="1" stop-color="#3940AB"/>
</linearGradient>
</defs>
</svg>
