<?xml version="1.0" encoding="UTF-8"?>
<svg width="101px" height="101px" viewBox="0 0 101 101" version="1.1" xmlns="http://www.w3.org/2000/svg" xmlns:xlink="http://www.w3.org/1999/xlink">
    <!-- Generator: Sketch 63.1 (92452) - https://sketch.com -->
    <title>Customize and extend SharePoint/Working-with-External-Content-Graph-&amp;-3rd-Party-APIs</title>
    <desc>Created with Sketch.</desc>
    <defs>
        <rect id="path-1" x="0" y="0" width="94.3396226" height="94.3396226" rx="47.1698113"></rect>
        <linearGradient x1="50%" y1="2.35050413%" x2="50%" y2="100%" id="linearGradient-3">
            <stop stop-color="#036C70" offset="0%"></stop>
            <stop stop-color="#0E4F51" offset="100%"></stop>
        </linearGradient>
        <linearGradient x1="77.8299825%" y1="11.1997378%" x2="-99.6885927%" y2="253.807911%" id="linearGradient-4">
            <stop stop-color="#FFFFFF" offset="0%"></stop>
            <stop stop-color="#000000" stop-opacity="0.5" offset="100%"></stop>
        </linearGradient>
        <rect id="path-5" x="0" y="0" width="94.3396226" height="94.3396226"></rect>
        <rect id="path-6" x="0" y="0" width="100" height="100" rx="50"></rect>
        <filter x="-0.5%" y="-0.5%" width="102.0%" height="102.0%" filterUnits="objectBoundingBox" id="filter-7">
            <feOffset dx="1" dy="1" in="SourceAlpha" result="shadowOffsetOuter1"></feOffset>
            <feMorphology radius="4" operator="erode" in="SourceAlpha" result="shadowInner"></feMorphology>
            <feOffset dx="1" dy="1" in="shadowInner" result="shadowInner"></feOffset>
            <feComposite in="shadowOffsetOuter1" in2="shadowInner" operator="out" result="shadowOffsetOuter1"></feComposite>
            <feColorMatrix values="0 0 0 0 0   0 0 0 0 0   0 0 0 0 0  0 0 0 0.15 0" type="matrix" in="shadowOffsetOuter1"></feColorMatrix>
        </filter>
        <path d="M50,2.83018868 C76.0511674,2.83018868 97.1698113,23.9488326 97.1698113,50 C97.1698113,76.0511674 76.0511674,97.1698113 50,97.1698113 C23.9488326,97.1698113 2.83018868,76.0511674 2.83018868,50 C2.83018868,23.9488326 23.9488326,2.83018868 50,2.83018868 Z M50,6.60377358 C26.032926,6.60377358 6.60377358,26.032926 6.60377358,50 C6.60377358,73.967074 26.032926,93.3962264 50,93.3962264 C73.967074,93.3962264 93.3962264,73.967074 93.3962264,50 C93.3962264,26.032926 73.967074,6.60377358 50,6.60377358 Z" id="path-8"></path>
        <filter x="-20.8%" y="-21.7%" width="141.7%" height="147.3%" filterUnits="objectBoundingBox" id="filter-10">
            <feOffset dx="0" dy="1" in="SourceAlpha" result="shadowOffsetOuter1"></feOffset>
            <feColorMatrix values="0 0 0 0 0   0 0 0 0 0   0 0 0 0 0  0 0 0 0.0972599638 0" type="matrix" in="shadowOffsetOuter1" result="shadowMatrixOuter1"></feColorMatrix>
            <feMerge>
                <feMergeNode in="shadowMatrixOuter1"></feMergeNode>
                <feMergeNode in="SourceGraphic"></feMergeNode>
            </feMerge>
        </filter>
    </defs>
    <g id="Badges" stroke="none" stroke-width="1" fill="none" fill-rule="evenodd">
        <g id="Customize-and-extend-SharePoint" transform="translate(-160.000000, -1270.000000)">
            <g id="Customize-and-extend-SharePoint/Working-with-External-Content-Graph-&amp;-3rd-Party-APIs" transform="translate(160.000000, 1270.000000)">
                <g id="Badge-Plates/Circle">
                    <g id="BG" transform="translate(2.830189, 2.830189)">
                        <mask id="mask-2" fill="white">
                            <use xlink:href="#path-1"></use>
                        </mask>
                        <g></g>
                        <g id="Colors/Sharepoint/BG-Solid-1" mask="url(#mask-2)">
                            <rect id="Rectangle" fill="url(#linearGradient-3)" x="0" y="0" width="94.3396226" height="94.3396226"></rect>
                            <g id="Rectangle">
                                <use fill="#036C70" xlink:href="#path-5"></use>
                                <use fill-opacity="0.4" fill="url(#linearGradient-4)" xlink:href="#path-5"></use>
                            </g>
                        </g>
                    </g>
                    <g id="Border">
                        <g id="White-Border">
                            <use fill="black" fill-opacity="1" filter="url(#filter-7)" xlink:href="#path-6"></use>
                            <rect stroke="#F2F1F0" stroke-width="4" stroke-linejoin="square" x="2" y="2" width="96" height="96" rx="48"></rect>
                        </g>
                        <mask id="mask-9" fill="white">
                            <use xlink:href="#path-8"></use>
                        </mask>
                        <use id="Boarder" fill="#0078D4" fill-rule="nonzero" xlink:href="#path-8"></use>
                        <g id="Colors/Sharepoint/Border" mask="url(#mask-9)" fill="#036C70">
                            <g transform="translate(2.830189, 2.830189)" id="Rectangle">
                                <rect x="0" y="0" width="94.3396226" height="94.3396226"></rect>
                            </g>
                        </g>
                    </g>
                </g>
                <path d="M40.8393637,53.494507 C40.2894871,52.4850164 40.0124737,51.3821506 39.9211735,50.2782473 L25.0392285,46.3274353 C23.1094726,49.6339578 18.6077465,50.2782473 15.8542132,47.5216014 C13.5561437,45.3179448 13.5561437,41.5486959 15.8542132,39.2537389 C18.1512451,37.0500823 21.8260812,37.0500823 24.1210382,39.2537389 C25.1305287,40.3576423 25.8661185,41.8257092 25.8661185,43.3881889 L40.1971493,47.2445881 C40.6567632,45.6831459 41.759629,44.2150789 43.0461329,43.1111756 L38.1760932,34.659675 C34.4099568,36.1308545 30.0908312,35.2095517 27.2428851,32.3616056 C20.905816,26.0245364 25.4065046,15 34.4068443,15 C37.1133642,14.9936725 39.7108627,16.0660202 41.6246666,17.9798241 C43.5384705,19.893628 44.6108183,22.4911265 44.6044626,25.1976464 C44.6044626,27.9542923 43.5005593,30.5262625 41.6652162,32.3616056 C39.920136,34.1066859 44.6044626,39.8025781 45.7986287,41.8236342 C48.5563121,40.9967442 51.5858212,41.8236342 53.6981776,43.9359906 L64.9996993,32.9114823 C63.7131954,30.6134128 64.081509,27.6741664 65.9168521,25.8388234 C68.2149215,23.5407539 71.9810579,23.5407539 74.1857521,25.8388234 C75.2887791,26.9316738 75.9093159,28.4200181 75.9093159,29.9727546 C75.9093159,31.5254911 75.2887791,33.0138355 74.1857521,34.1066859 C72.3493715,35.9430664 69.4070126,36.3103425 67.1120557,35.0238386 L55.5376707,46.6884864 C55.8136465,47.6066767 56.0875474,48.524867 56.0875474,49.5364325 L68.7658357,49.5364325 C69.1331118,47.3327759 70.1426024,45.40302 71.6137818,43.8405403 C75.5645937,39.8897284 82.087376,39.8897284 86.0361129,43.8405403 C89.9879624,47.7923898 89.9879624,54.315172 86.0361129,58.2628714 C82.0842635,62.2157584 75.5614812,62.2157584 71.6137818,58.2628714 C70.1426024,56.7927295 69.1341493,54.7706359 68.7658357,52.5669792 L55.4432579,52.5669792 C54.7989685,54.2207592 53.6981776,55.5975259 52.2269982,56.5188286 L56.637424,73.0535161 C58.1999037,73.0535161 59.6679707,73.6978056 60.771874,74.7072961 C62.9755307,77.0053656 62.9755307,80.6802017 60.771874,82.9751586 C59.6789835,84.0785056 58.190416,84.6992461 56.637424,84.6992461 C55.084432,84.6992461 53.5958645,84.0785056 52.502974,82.9751586 C49.7473657,80.2185128 50.3916551,75.7167867 53.6981776,73.7891059 L49.3790521,57.6216945 C46.9896823,57.9900081 44.6013501,57.3457186 42.7649696,55.7853139 L32.5673512,61.6648442 C33.0488577,62.8304361 33.299046,64.0785583 33.3039785,65.3396803 C33.3039785,71.0355725 28.8012148,75.5372987 23.1053226,75.5372987 C17.5007307,75.5372987 13,71.034535 13,65.3386428 C12.9922972,62.656189 14.0544705,60.081369 15.9512596,58.1845798 C17.8480488,56.2877906 20.4228688,55.2256174 23.1053226,55.2333623 C26.2302821,55.2333623 29.1695285,56.6101289 31.0992843,59.0907989 L40.8393637,53.494507 L40.8393637,53.494507 Z" id="Fill-1" fill="#E1E4E1" fill-rule="nonzero"></path>
                <circle id="Oval" fill="#FFFFFF" cx="48" cy="50" r="9"></circle>
                <g id="Chart" filter="url(#filter-10)" transform="translate(42.000000, 44.000000)">
                    <path d="M11.5120879,0.276923077 L9.53406593,0.276923077 C9.31549451,0.276923077 9.13846154,0.431826923 9.13846154,0.623076923 L9.13846154,11.0076923 C9.13846154,11.1987692 9.31549451,11.3538462 9.53406593,11.3538462 L11.5120879,11.3538462 C11.7304615,11.3538462 11.9076923,11.1987692 11.9076923,11.0076923 L11.9076923,0.623076923 C11.9076923,0.431826923 11.7304615,0.276923077 11.5120879,0.276923077" id="Fill-49" fill="#30404D"></path>
                    <path d="M8.46593407,4.70769231 L6.48791209,4.70769231 C6.26934066,4.70769231 6.09230769,4.86422672 6.09230769,5.05748988 L6.09230769,11.0040486 C6.09230769,11.1971368 6.26934066,11.3538462 6.48791209,11.3538462 L8.46593407,11.3538462 C8.68430769,11.3538462 8.86153846,11.1971368 8.86153846,11.0040486 L8.86153846,5.05748988 C8.86153846,4.86422672 8.68430769,4.70769231 8.46593407,4.70769231" id="Fill-50" fill="#30404D"></path>
                    <path d="M5.41978022,6.36923077 L3.44175824,6.36923077 C3.22318681,6.36923077 3.04615385,6.52856044 3.04615385,6.72527473 L3.04615385,10.9978022 C3.04615385,11.1943385 3.22318681,11.3538462 3.44175824,11.3538462 L5.41978022,11.3538462 C5.63815385,11.3538462 5.81538462,11.1943385 5.81538462,10.9978022 L5.81538462,6.72527473 C5.81538462,6.52856044 5.63815385,6.36923077 5.41978022,6.36923077" id="Fill-51" fill="#30404D"></path>
                    <path d="M2.13626374,7.47692308 L0.356043956,7.47692308 C0.15932967,7.47692308 0,7.63464336 0,7.82937063 L0,11.0013986 C0,11.1959497 0.15932967,11.3538462 0.356043956,11.3538462 L2.13626374,11.3538462 C2.3328,11.3538462 2.49230769,11.1959497 2.49230769,11.0013986 L2.49230769,7.82937063 C2.49230769,7.63464336 2.3328,7.47692308 2.13626374,7.47692308" id="Fill-52" fill="#30404D"></path>
                    <path d="M7.9325451,1.10447736 C7.93201642,1.10343297 7.93113529,1.10308484 7.93025416,1.10221452 L7.03713937,0.11161105 C7.03625824,0.11056666 7.03555334,0.109348206 7.03484843,0.108651946 C6.92259229,-0.0158044729 6.7509479,-0.0330369002 6.62142158,0.05538808 C6.59956952,0.0703576633 6.57859859,0.0875900905 6.55956616,0.108651946 L5.66204572,1.10447736 C5.53093336,1.24982157 5.53093336,1.48567954 5.66222194,1.63137188 C5.79351052,1.77741235 6.00603941,1.77689016 6.13715176,1.63137188 L6.44237568,1.29351187 C6.3902127,3.6374701 3.9096516,5.39604801 0.629375635,5.39604801 C0.434645597,5.39604801 0.276923077,5.55183611 0.276923077,5.74417785 C0.276923077,5.93634552 0.434645597,6.09230769 0.629375635,6.09230769 C4.31532449,6.09230769 7.10093329,4.03190121 7.14745702,1.28811586 L7.4570866,1.63154595 L7.45743905,1.63137188 C7.5885514,1.77689016 7.80108029,1.77723828 7.93272132,1.63154595 C8.06348122,1.48602767 8.06348122,1.24982157 7.9325451,1.10447736" id="Fill-53" fill="#7CB65A"></path>
                    <path d="M11.5120879,0.276923077 L10.5230769,0.276923077 L10.5230769,11.3538462 L11.5120879,11.3538462 C11.7304615,11.3538462 11.9076923,11.1987692 11.9076923,11.0076923 L11.9076923,0.623076923 C11.9076923,0.432 11.7304615,0.276923077 11.5120879,0.276923077" id="Fill-54" fill="#5B656E"></path>
                    <path d="M8.46593407,4.70769231 L7.47692308,4.70769231 L7.47692308,11.3538462 L8.46593407,11.3538462 C8.68430769,11.3538462 8.86153846,11.1971368 8.86153846,11.0040486 L8.86153846,5.05748988 C8.86153846,4.86440162 8.68430769,4.70769231 8.46593407,4.70769231" id="Fill-55" fill="#5B656E"></path>
                    <path d="M5.41978022,6.36923077 L4.43076923,6.36923077 L4.43076923,11.3538462 L5.41978022,11.3538462 C5.63815385,11.3538462 5.81538462,11.1943385 5.81538462,10.9978022 L5.81538462,6.72527473 C5.81538462,6.52873846 5.63815385,6.36923077 5.41978022,6.36923077" id="Fill-56" fill="#5B656E"></path>
                    <path d="M2.37362637,7.47692308 L1.38461538,7.47692308 L1.38461538,11.3538462 L2.37362637,11.3538462 C2.592,11.3538462 2.76923077,11.1959497 2.76923077,11.0013986 L2.76923077,7.82937063 C2.76923077,7.63481958 2.592,7.47692308 2.37362637,7.47692308" id="Fill-57" fill="#5B656E"></path>
                </g>
            </g>
        </g>
    </g>
</svg>