<?xml version="1.0" encoding="UTF-8"?>
<svg width="101px" height="101px" viewBox="0 0 101 101" version="1.1" xmlns="http://www.w3.org/2000/svg" xmlns:xlink="http://www.w3.org/1999/xlink">
    <!-- Generator: Sketch 63.1 (92452) - https://sketch.com -->
    <title>Customize and extend SharePoint/Getting-Started-with-the-SharePoint-Framework</title>
    <desc>Created with Sketch.</desc>
    <defs>
        <rect id="path-1" x="0" y="0" width="94.3396226" height="94.3396226" rx="47.1698113"></rect>
        <linearGradient x1="50%" y1="2.35050413%" x2="50%" y2="100%" id="linearGradient-3">
            <stop stop-color="#036C70" offset="0%"></stop>
            <stop stop-color="#0E4F51" offset="100%"></stop>
        </linearGradient>
        <linearGradient x1="77.8299825%" y1="11.1997378%" x2="-99.6885927%" y2="253.807911%" id="linearGradient-4">
            <stop stop-color="#FFFFFF" offset="0%"></stop>
            <stop stop-color="#000000" stop-opacity="0.5" offset="100%"></stop>
        </linearGradient>
        <rect id="path-5" x="0" y="0" width="94.3396226" height="94.3396226"></rect>
        <rect id="path-6" x="0" y="0" width="100" height="100" rx="50"></rect>
        <filter x="-0.5%" y="-0.5%" width="102.0%" height="102.0%" filterUnits="objectBoundingBox" id="filter-7">
            <feOffset dx="1" dy="1" in="SourceAlpha" result="shadowOffsetOuter1"></feOffset>
            <feMorphology radius="4" operator="erode" in="SourceAlpha" result="shadowInner"></feMorphology>
            <feOffset dx="1" dy="1" in="shadowInner" result="shadowInner"></feOffset>
            <feComposite in="shadowOffsetOuter1" in2="shadowInner" operator="out" result="shadowOffsetOuter1"></feComposite>
            <feColorMatrix values="0 0 0 0 0   0 0 0 0 0   0 0 0 0 0  0 0 0 0.15 0" type="matrix" in="shadowOffsetOuter1"></feColorMatrix>
        </filter>
        <path d="M50,2.83018868 C76.0511674,2.83018868 97.1698113,23.9488326 97.1698113,50 C97.1698113,76.0511674 76.0511674,97.1698113 50,97.1698113 C23.9488326,97.1698113 2.83018868,76.0511674 2.83018868,50 C2.83018868,23.9488326 23.9488326,2.83018868 50,2.83018868 Z M50,6.60377358 C26.032926,6.60377358 6.60377358,26.032926 6.60377358,50 C6.60377358,73.967074 26.032926,93.3962264 50,93.3962264 C73.967074,93.3962264 93.3962264,73.967074 93.3962264,50 C93.3962264,26.032926 73.967074,6.60377358 50,6.60377358 Z" id="path-8"></path>
        <filter x="-9.1%" y="-10.8%" width="118.2%" height="123.9%" filterUnits="objectBoundingBox" id="filter-10">
            <feOffset dx="0" dy="2" in="SourceAlpha" result="shadowOffsetOuter1"></feOffset>
            <feColorMatrix values="0 0 0 0 0   0 0 0 0 0   0 0 0 0 0  0 0 0 0.0964956975 0" type="matrix" in="shadowOffsetOuter1" result="shadowMatrixOuter1"></feColorMatrix>
            <feMerge>
                <feMergeNode in="shadowMatrixOuter1"></feMergeNode>
                <feMergeNode in="SourceGraphic"></feMergeNode>
            </feMerge>
        </filter>
        <filter x="-20.0%" y="-23.7%" width="140.0%" height="148.1%" filterUnits="objectBoundingBox" id="filter-11">
            <feOffset dx="0" dy="2" in="SourceAlpha" result="shadowOffsetOuter1"></feOffset>
            <feColorMatrix values="0 0 0 0 0   0 0 0 0 0   0 0 0 0 0  0 0 0 0.0964956975 0" type="matrix" in="shadowOffsetOuter1" result="shadowMatrixOuter1"></feColorMatrix>
            <feMerge>
                <feMergeNode in="shadowMatrixOuter1"></feMergeNode>
                <feMergeNode in="SourceGraphic"></feMergeNode>
            </feMerge>
        </filter>
        <filter x="-20.0%" y="-23.7%" width="140.0%" height="148.1%" filterUnits="objectBoundingBox" id="filter-12">
            <feOffset dx="0" dy="2" in="SourceAlpha" result="shadowOffsetOuter1"></feOffset>
            <feColorMatrix values="0 0 0 0 0   0 0 0 0 0   0 0 0 0 0  0 0 0 0.0964956975 0" type="matrix" in="shadowOffsetOuter1" result="shadowMatrixOuter1"></feColorMatrix>
            <feMerge>
                <feMergeNode in="shadowMatrixOuter1"></feMergeNode>
                <feMergeNode in="SourceGraphic"></feMergeNode>
            </feMerge>
        </filter>
        <filter x="-20.0%" y="-23.7%" width="140.0%" height="148.1%" filterUnits="objectBoundingBox" id="filter-13">
            <feOffset dx="0" dy="2" in="SourceAlpha" result="shadowOffsetOuter1"></feOffset>
            <feColorMatrix values="0 0 0 0 0   0 0 0 0 0   0 0 0 0 0  0 0 0 0.0964956975 0" type="matrix" in="shadowOffsetOuter1" result="shadowMatrixOuter1"></feColorMatrix>
            <feMerge>
                <feMergeNode in="shadowMatrixOuter1"></feMergeNode>
                <feMergeNode in="SourceGraphic"></feMergeNode>
            </feMerge>
        </filter>
    </defs>
    <g id="Badges" stroke="none" stroke-width="1" fill="none" fill-rule="evenodd">
        <g id="Customize-and-extend-SharePoint" transform="translate(-160.000000, -1080.000000)">
            <g id="Customize-and-extend-SharePoint/Getting-Started-with-the-SharePoint-Framework" transform="translate(160.000000, 1080.000000)">
                <g id="Badge-Plates/Circle">
                    <g id="BG" transform="translate(2.830189, 2.830189)">
                        <mask id="mask-2" fill="white">
                            <use xlink:href="#path-1"></use>
                        </mask>
                        <g></g>
                        <g id="Colors/Sharepoint/BG-Solid-1" mask="url(#mask-2)">
                            <rect id="Rectangle" fill="url(#linearGradient-3)" x="0" y="0" width="94.3396226" height="94.3396226"></rect>
                            <g id="Rectangle">
                                <use fill="#036C70" xlink:href="#path-5"></use>
                                <use fill-opacity="0.4" fill="url(#linearGradient-4)" xlink:href="#path-5"></use>
                            </g>
                        </g>
                    </g>
                    <g id="Border">
                        <g id="White-Border">
                            <use fill="black" fill-opacity="1" filter="url(#filter-7)" xlink:href="#path-6"></use>
                            <rect stroke="#F2F1F0" stroke-width="4" stroke-linejoin="square" x="2" y="2" width="96" height="96" rx="48"></rect>
                        </g>
                        <mask id="mask-9" fill="white">
                            <use xlink:href="#path-8"></use>
                        </mask>
                        <use id="Boarder" fill="#0078D4" fill-rule="nonzero" xlink:href="#path-8"></use>
                        <g id="Colors/Sharepoint/Border" mask="url(#mask-9)" fill="#036C70">
                            <g transform="translate(2.830189, 2.830189)" id="Rectangle">
                                <rect x="0" y="0" width="94.3396226" height="94.3396226"></rect>
                            </g>
                        </g>
                    </g>
                </g>
                <path d="M73.6875,60.4814815 L73.892993,56.4454474 C73.9491589,55.3423068 73.1004182,54.4025032 71.9972777,54.3463373 C71.9634059,54.3446127 71.9294958,54.34375 71.8955802,54.34375 L35.0673828,54.34375 L35.0673828,54.34375 L27.6378793,54.34375 C26.5528796,54.34375 25.6657634,55.2088566 25.6385103,56.293514 L25.53125,60.5624219 L25.53125,60.5624219" id="Path-6" stroke="#FFFFFF" stroke-width="2"></path>
                <rect id="Rectangle" fill="#FFFFFF" x="49" y="46" width="2" height="27"></rect>
                <g id="Group-4" transform="translate(28.000000, 13.000000)">
                    <g id="Code" filter="url(#filter-10)">
                        <path d="M41.25,1.375 L2.75,1.375 C1.9916875,1.375 1.375,1.9916875 1.375,2.75 L1.375,34.375 C1.375,35.132625 1.9916875,35.75 2.75,35.75 L41.25,35.75 C42.007625,35.75 42.625,35.132625 42.625,34.375 L42.625,2.75 C42.625,1.9916875 42.007625,1.375 41.25,1.375" id="Fill-1523" fill="#182A37"></path>
                        <path d="M41.25,0 L2.75,0 C1.2375,0 0,1.2375 0,2.75 L0,34.375 C0,35.8875 1.2375,37.125 2.75,37.125 L41.25,37.125 C42.7625,37.125 44,35.8875 44,34.375 L44,2.75 C44,1.2375 42.7625,0 41.25,0 Z M41.25,1.375 C42.007625,1.375 42.625,1.9916875 42.625,2.75 L42.625,34.375 C42.625,35.132625 42.007625,35.75 41.25,35.75 L2.75,35.75 C1.9916875,35.75 1.375,35.132625 1.375,34.375 L1.375,2.75 C1.375,1.9916875 1.9916875,1.375 2.75,1.375 L41.25,1.375 L41.25,1.375 Z" id="Fill-1524" fill="#384B58"></path>
                        <polygon id="Fill-1525" fill="#384B58" points="7.5625 35.75 8.9375 35.75 8.9375 1.375 7.5625 1.375"></polygon>
                        <path d="M6.1875,13.0625 C6.1875,13.8215 5.5715,14.4375 4.8125,14.4375 C4.0528125,14.4375 3.4375,13.8215 3.4375,13.0625 C3.4375,12.3028125 4.0528125,11.6875 4.8125,11.6875 C5.5715,11.6875 6.1875,12.3028125 6.1875,13.0625" id="Fill-1526" fill="#E1E4E1"></path>
                        <path d="M6.1875,17.875 C6.1875,18.634 5.5715,19.25 4.8125,19.25 C4.0528125,19.25 3.4375,18.634 3.4375,17.875 C3.4375,17.1153125 4.0528125,16.5 4.8125,16.5 C5.5715,16.5 6.1875,17.1153125 6.1875,17.875" id="Fill-1527" fill="#E1E4E1"></path>
                        <path d="M6.1875,22.6875 C6.1875,23.4465 5.5715,24.0625 4.8125,24.0625 C4.0528125,24.0625 3.4375,23.4465 3.4375,22.6875 C3.4375,21.9278125 4.0528125,21.3125 4.8125,21.3125 C5.5715,21.3125 6.1875,21.9278125 6.1875,22.6875" id="Fill-1528" fill="#E1E4E1"></path>
                        <path d="M6.1875,27.5 C6.1875,28.259 5.5715,28.875 4.8125,28.875 C4.0528125,28.875 3.4375,28.259 3.4375,27.5 C3.4375,26.7403125 4.0528125,26.125 4.8125,26.125 C5.5715,26.125 6.1875,26.7403125 6.1875,27.5" id="Fill-1529" fill="#E1E4E1"></path>
                        <path d="M6.1875,32.3125 C6.1875,33.0715 5.5715,33.6875 4.8125,33.6875 C4.0528125,33.6875 3.4375,33.0715 3.4375,32.3125 C3.4375,31.5528125 4.0528125,30.9375 4.8125,30.9375 C5.5715,30.9375 6.1875,31.5528125 6.1875,32.3125" id="Fill-1530" fill="#E1E4E1"></path>
                        <path d="M19.25,33 L11.6875,33 C11.3073125,33 11,32.6926875 11,32.3125 C11,31.9323125 11.3073125,31.625 11.6875,31.625 L19.25,31.625 C19.6301875,31.625 19.9375,31.9323125 19.9375,32.3125 C19.9375,32.6926875 19.6301875,33 19.25,33" id="Fill-1531" fill="#FFFFFE"></path>
                        <path d="M26.125,33 L22,33 C21.6198125,33 21.3125,32.6926875 21.3125,32.3125 C21.3125,31.9323125 21.6198125,31.625 22,31.625 L26.125,31.625 C26.5051875,31.625 26.8125,31.9323125 26.8125,32.3125 C26.8125,32.6926875 26.5051875,33 26.125,33" id="Fill-1532" fill="#55B7D9"></path>
                        <path d="M14.4375,28.1875 L11.6875,28.1875 C11.3073125,28.1875 11,27.8801875 11,27.5 C11,27.1198125 11.3073125,26.8125 11.6875,26.8125 L14.4375,26.8125 C14.8176875,26.8125 15.125,27.1198125 15.125,27.5 C15.125,27.8801875 14.8176875,28.1875 14.4375,28.1875" id="Fill-1533" fill="#EFB252"></path>
                        <path d="M19.25,23.375 L11.6875,23.375 C11.3073125,23.375 11,23.0676875 11,22.6875 C11,22.3073125 11.3073125,22 11.6875,22 L19.25,22 C19.6301875,22 19.9375,22.3073125 19.9375,22.6875 C19.9375,23.0676875 19.6301875,23.375 19.25,23.375" id="Fill-1534" fill="#FFFFFE"></path>
                        <path d="M29.5625,23.375 L22,23.375 C21.6198125,23.375 21.3125,23.0676875 21.3125,22.6875 C21.3125,22.3073125 21.6198125,22 22,22 L29.5625,22 C29.9426875,22 30.25,22.3073125 30.25,22.6875 C30.25,23.0676875 29.9426875,23.375 29.5625,23.375" id="Fill-1535" fill="#FFFFFE"></path>
                        <path d="M34.375,23.375 L32.3125,23.375 C31.9323125,23.375 31.625,23.0676875 31.625,22.6875 C31.625,22.3073125 31.9323125,22 32.3125,22 L34.375,22 C34.7551875,22 35.0625,22.3073125 35.0625,22.6875 C35.0625,23.0676875 34.7551875,23.375 34.375,23.375" id="Fill-1536" fill="#DF5142"></path>
                        <path d="M24.75,28.1875 L17.1875,28.1875 C16.8073125,28.1875 16.5,27.8801875 16.5,27.5 C16.5,27.1198125 16.8073125,26.8125 17.1875,26.8125 L24.75,26.8125 C25.1301875,26.8125 25.4375,27.1198125 25.4375,27.5 C25.4375,27.8801875 25.1301875,28.1875 24.75,28.1875" id="Fill-1537" fill="#DF5142"></path>
                        <path d="M24.75,18.5625 L22,18.5625 C21.6198125,18.5625 21.3125,18.2551875 21.3125,17.875 C21.3125,17.4948125 21.6198125,17.1875 22,17.1875 L24.75,17.1875 C25.1301875,17.1875 25.4375,17.4948125 25.4375,17.875 C25.4375,18.2551875 25.1301875,18.5625 24.75,18.5625" id="Fill-1538" fill="#EFB252"></path>
                        <path d="M19.25,18.5625 L11.6875,18.5625 C11.3073125,18.5625 11,18.2551875 11,17.875 C11,17.4948125 11.3073125,17.1875 11.6875,17.1875 L19.25,17.1875 C19.6301875,17.1875 19.9375,17.4948125 19.9375,17.875 C19.9375,18.2551875 19.6301875,18.5625 19.25,18.5625" id="Fill-1539" fill="#55B7D9"></path>
                        <path d="M19.25,13.75 L11.6875,13.75 C11.3073125,13.75 11,13.4426875 11,13.0625 C11,12.6823125 11.3073125,12.375 11.6875,12.375 L19.25,12.375 C19.6301875,12.375 19.9375,12.6823125 19.9375,13.0625 C19.9375,13.4426875 19.6301875,13.75 19.25,13.75" id="Fill-1540" fill="#FFFFFE"></path>
                        <path d="M11.6875,8.9375 C11.5115,8.9375 11.3355,8.870125 11.2014375,8.7360625 C10.932625,8.46725 10.932625,8.03275 11.2014375,7.7639375 L12.777875,6.1875 L11.2014375,4.6110625 C10.932625,4.34225 10.932625,3.90775 11.2014375,3.6389375 C11.47025,3.370125 11.90475,3.370125 12.1735625,3.6389375 L14.2360625,5.7014375 C14.504875,5.97025 14.504875,6.40475 14.2360625,6.6735625 L12.1735625,8.7360625 C12.0395,8.870125 11.8635,8.9375 11.6875,8.9375" id="Fill-1541" fill="#697D85"></path>
                        <path d="M18.5625,8.9375 L15.8125,8.9375 C15.4323125,8.9375 15.125,8.6301875 15.125,8.25 C15.125,7.8698125 15.4323125,7.5625 15.8125,7.5625 L18.5625,7.5625 C18.9426875,7.5625 19.25,7.8698125 19.25,8.25 C19.25,8.6301875 18.9426875,8.9375 18.5625,8.9375" id="Fill-1542" fill="#697D85"></path>
                    </g>
                    <g id="Group-3" transform="translate(27.703704, 3.259259)">
                        <circle id="Oval" fill="#FFFFFF" cx="6.51851852" cy="6.51851852" r="6.51851852"></circle>
                        <g id="Sharepoint_32x" transform="translate(2.172840, 2.172840)">
                            <circle id="Oval" fill="#036C70" fill-rule="nonzero" cx="4.07407407" cy="2.58024691" r="2.58024691"></circle>
                            <circle id="Oval" fill="#1A9BA1" fill-rule="nonzero" cx="6.48320988" cy="4.8562963" r="2.20814815"></circle>
                            <circle id="Oval" fill="#37C6D0" fill-rule="nonzero" cx="4.34567901" cy="6.92592593" r="1.7654321"></circle>
                            <path d="M4.52765432,1.90123457 L1.58345679,1.90123457 C1.52443354,2.12276176 1.49430715,2.35099202 1.49382716,2.58024691 C1.49382716,4.00527793 2.64904305,5.16049383 4.07407407,5.16049383 C4.14825539,5.16462139 4.22260881,5.16462139 4.29679012,5.16049383 L4.29679012,5.16049383 C3.34091309,5.18697435 2.57988019,5.96968224 2.58024691,6.92592593 C2.58024691,6.97209877 2.58024691,7.01555556 2.58024691,7.06173862 L4.52222222,7.06173862 C4.61874873,7.06245143 4.7116087,7.02479846 4.78037263,6.95705325 C4.84913656,6.88930805 4.88817123,6.79702038 4.88888889,6.70049383 L4.88888889,2.26246914 C4.8874101,2.06358055 4.72654291,1.90271335 4.52765432,1.90123457 Z" id="Path" fill="#000000" fill-rule="nonzero" opacity="0.1"></path>
                            <path d="M4.25604938,2.17283951 L1.54,2.17283951 C1.51358248,2.30716455 1.49814057,2.44341674 1.49382716,2.58024691 C1.49382716,4.00527793 2.64904305,5.16049383 4.07407407,5.16049383 C4.14825539,5.16462139 4.22260881,5.16462139 4.29679012,5.16049383 L4.29679012,5.16049383 C3.34091309,5.18697435 2.57988019,5.96968224 2.58024691,6.92592593 C2.58021754,7.0630355 2.59570707,7.19970786 2.62641975,7.33333333 L4.25604938,7.33333333 C4.45493797,7.33185455 4.61580516,7.17098735 4.61728395,6.97209877 L4.61728395,2.53407407 C4.61580516,2.33518548 4.45493797,2.17431829 4.25604938,2.17283951 Z" id="Path" fill="#000000" fill-rule="nonzero" opacity="0.2"></path>
                            <path d="M4.25604938,2.17283951 L1.54,2.17283951 C1.51358248,2.30716455 1.49814057,2.44341674 1.49382716,2.58024691 C1.49382716,4.00527793 2.64904305,5.16049383 4.07407407,5.16049383 C4.14825539,5.16462139 4.22260881,5.16462139 4.29679012,5.16049383 L4.29679012,5.16049383 C3.39232652,5.18428439 2.65224832,5.88800376 2.58296296,6.79012346 L4.25333333,6.79012346 C4.45328179,6.79012346 4.6157918,6.62883177 4.61728395,6.42888889 L4.61728395,2.53407407 C4.61580516,2.33518548 4.45493797,2.17431829 4.25604938,2.17283951 Z" id="Path" fill="#000000" fill-rule="nonzero" opacity="0.2"></path>
                            <path d="M3.98444444,2.17283951 L1.54,2.17283951 C1.51358248,2.30716455 1.49814057,2.44341674 1.49382716,2.58024691 C1.49382716,4.00527793 2.64904305,5.16049383 4.07407407,5.16049383 C4.14825539,5.16462139 4.22260881,5.16462139 4.29679012,5.16049383 L4.29679012,5.16049383 C3.39232652,5.18428439 2.65224832,5.88800376 2.58296296,6.79012346 L3.9817284,6.79012346 C4.18167685,6.79012346 4.34418686,6.62883177 4.34567901,6.42888889 L4.34567901,2.53407407 C4.34420023,2.33518548 4.18333303,2.17431829 3.98444444,2.17283951 Z" id="Path" fill="#000000" fill-rule="nonzero" opacity="0.2"></path>
                            <rect id="Back_Plate" fill="#038387" fill-rule="nonzero" x="0" y="2.17283951" width="4.34567901" height="4.34567901" rx="1.33"></rect>
                            <path d="M1.62962963,4.31851852 C1.53534083,4.25535318 1.45644419,4.17181556 1.39876543,4.07407407 C1.34233951,3.97097624 1.31422584,3.85477308 1.31728395,3.73728395 C1.31165848,3.5789441 1.36487536,3.42413138 1.46666667,3.30271605 C1.57246439,3.1761961 1.71178369,3.08206143 1.86864198,3.03111111 C2.04412141,2.97450145 2.22746911,2.94608255 2.41185185,2.94691358 C2.65575841,2.93886685 2.89923025,2.97286103 3.13160494,3.04740741 L3.13160494,3.55802469 C3.03131326,3.49546738 2.9210932,3.45046085 2.80567901,3.42493827 C2.68729891,3.39739965 2.56596398,3.38462755 2.44444444,3.38691358 C2.30939747,3.3819794 2.17517473,3.40994247 2.05333333,3.46839506 C1.96160387,3.51201581 1.90187952,3.60317403 1.89851852,3.70469136 C1.8978145,3.76630429 1.92120503,3.82575522 1.9637037,3.87037037 C2.01431225,3.92328835 2.0741363,3.96654574 2.14024691,3.99802469 C2.21358025,4.03604938 2.32493827,4.08493827 2.47160494,4.14469136 L2.52049383,4.1637037 C2.66557884,4.22038905 2.8055186,4.28945023 2.93876543,4.37012346 C3.04058611,4.43255923 3.1262062,4.51817932 3.18864198,4.62 C3.2456841,4.73720968 3.27007882,4.86762763 3.25925926,4.99753086 C3.26508908,5.16038037 3.21527551,5.32035857 3.11802469,5.45111111 C3.01960813,5.570436 2.88834249,5.65826121 2.74049383,5.7037037 C2.56478955,5.75878841 2.38139762,5.78538024 2.19728395,5.78246914 C2.03434413,5.78319857 1.87165708,5.76956558 1.71111111,5.7417284 C1.57484131,5.71970957 1.44170768,5.68141085 1.3145679,5.62765432 L1.3145679,5.08444444 C1.43580232,5.17018525 1.57084735,5.23449242 1.71382716,5.2745679 C1.86232594,5.32207529 2.01695399,5.34769414 2.17283951,5.35061728 C2.31114106,5.35986663 2.44930958,5.33072905 2.57209877,5.26641975 C2.65731933,5.21723034 2.7092708,5.12579576 2.70790123,5.02740741 C2.70868412,4.95807067 2.68123065,4.89139797 2.63185185,4.84271605 C2.57171601,4.78336233 2.5019116,4.73468294 2.4254321,4.69876543 C2.33580247,4.65530864 2.2054321,4.59555556 2.03432099,4.52493827 C1.8928625,4.46983345 1.75728698,4.40068084 1.62962963,4.31851852 L1.62962963,4.31851852 Z" id="Path" fill="#FFFFFF" fill-rule="nonzero"></path>
                            <rect id="Rectangle" x="0" y="0" width="8.69135802" height="8.69135802"></rect>
                        </g>
                    </g>
                </g>
                <g id="Group-4" transform="translate(16.000000, 59.000000)">
                    <g id="Code" filter="url(#filter-11)">
                        <path d="M18.75,0.625 L1.25,0.625 C0.9053125,0.625 0.625,0.9053125 0.625,1.25 L0.625,15.625 C0.625,15.969375 0.9053125,16.25 1.25,16.25 L18.75,16.25 C19.094375,16.25 19.375,15.969375 19.375,15.625 L19.375,1.25 C19.375,0.9053125 19.094375,0.625 18.75,0.625" id="Fill-1523" fill="#182A37"></path>
                        <path d="M18.75,0 L1.25,0 C0.5625,0 0,0.5625 0,1.25 L0,15.625 C0,16.3125 0.5625,16.875 1.25,16.875 L18.75,16.875 C19.4375,16.875 20,16.3125 20,15.625 L20,1.25 C20,0.5625 19.4375,0 18.75,0 Z M18.75,0.625 C19.094375,0.625 19.375,0.9053125 19.375,1.25 L19.375,15.625 C19.375,15.969375 19.094375,16.25 18.75,16.25 L1.25,16.25 C0.9053125,16.25 0.625,15.969375 0.625,15.625 L0.625,1.25 C0.625,0.9053125 0.9053125,0.625 1.25,0.625 L18.75,0.625 L18.75,0.625 Z" id="Fill-1524" fill="#384B58"></path>
                        <polygon id="Fill-1525" fill="#384B58" points="3.4375 16.25 4.0625 16.25 4.0625 0.625 3.4375 0.625"></polygon>
                        <path d="M2.8125,5.9375 C2.8125,6.2825 2.5325,6.5625 2.1875,6.5625 C1.8421875,6.5625 1.5625,6.2825 1.5625,5.9375 C1.5625,5.5921875 1.8421875,5.3125 2.1875,5.3125 C2.5325,5.3125 2.8125,5.5921875 2.8125,5.9375" id="Fill-1526" fill="#E1E4E1"></path>
                        <path d="M2.8125,8.125 C2.8125,8.47 2.5325,8.75 2.1875,8.75 C1.8421875,8.75 1.5625,8.47 1.5625,8.125 C1.5625,7.7796875 1.8421875,7.5 2.1875,7.5 C2.5325,7.5 2.8125,7.7796875 2.8125,8.125" id="Fill-1527" fill="#E1E4E1"></path>
                        <path d="M2.8125,10.3125 C2.8125,10.6575 2.5325,10.9375 2.1875,10.9375 C1.8421875,10.9375 1.5625,10.6575 1.5625,10.3125 C1.5625,9.9671875 1.8421875,9.6875 2.1875,9.6875 C2.5325,9.6875 2.8125,9.9671875 2.8125,10.3125" id="Fill-1528" fill="#E1E4E1"></path>
                        <path d="M2.8125,12.5 C2.8125,12.845 2.5325,13.125 2.1875,13.125 C1.8421875,13.125 1.5625,12.845 1.5625,12.5 C1.5625,12.1546875 1.8421875,11.875 2.1875,11.875 C2.5325,11.875 2.8125,12.1546875 2.8125,12.5" id="Fill-1529" fill="#E1E4E1"></path>
                        <path d="M2.8125,14.6875 C2.8125,15.0325 2.5325,15.3125 2.1875,15.3125 C1.8421875,15.3125 1.5625,15.0325 1.5625,14.6875 C1.5625,14.3421875 1.8421875,14.0625 2.1875,14.0625 C2.5325,14.0625 2.8125,14.3421875 2.8125,14.6875" id="Fill-1530" fill="#E1E4E1"></path>
                        <path d="M8.75,15 L5.3125,15 C5.1396875,15 5,14.8603125 5,14.6875 C5,14.5146875 5.1396875,14.375 5.3125,14.375 L8.75,14.375 C8.9228125,14.375 9.0625,14.5146875 9.0625,14.6875 C9.0625,14.8603125 8.9228125,15 8.75,15" id="Fill-1531" fill="#FFFFFE"></path>
                        <path d="M11.875,15 L10,15 C9.8271875,15 9.6875,14.8603125 9.6875,14.6875 C9.6875,14.5146875 9.8271875,14.375 10,14.375 L11.875,14.375 C12.0478125,14.375 12.1875,14.5146875 12.1875,14.6875 C12.1875,14.8603125 12.0478125,15 11.875,15" id="Fill-1532" fill="#55B7D9"></path>
                        <path d="M6.5625,12.8125 L5.3125,12.8125 C5.1396875,12.8125 5,12.6728125 5,12.5 C5,12.3271875 5.1396875,12.1875 5.3125,12.1875 L6.5625,12.1875 C6.7353125,12.1875 6.875,12.3271875 6.875,12.5 C6.875,12.6728125 6.7353125,12.8125 6.5625,12.8125" id="Fill-1533" fill="#EFB252"></path>
                        <path d="M8.75,10.625 L5.3125,10.625 C5.1396875,10.625 5,10.4853125 5,10.3125 C5,10.1396875 5.1396875,10 5.3125,10 L8.75,10 C8.9228125,10 9.0625,10.1396875 9.0625,10.3125 C9.0625,10.4853125 8.9228125,10.625 8.75,10.625" id="Fill-1534" fill="#FFFFFE"></path>
                        <path d="M13.4375,10.625 L10,10.625 C9.8271875,10.625 9.6875,10.4853125 9.6875,10.3125 C9.6875,10.1396875 9.8271875,10 10,10 L13.4375,10 C13.6103125,10 13.75,10.1396875 13.75,10.3125 C13.75,10.4853125 13.6103125,10.625 13.4375,10.625" id="Fill-1535" fill="#FFFFFE"></path>
                        <path d="M15.625,10.625 L14.6875,10.625 C14.5146875,10.625 14.375,10.4853125 14.375,10.3125 C14.375,10.1396875 14.5146875,10 14.6875,10 L15.625,10 C15.7978125,10 15.9375,10.1396875 15.9375,10.3125 C15.9375,10.4853125 15.7978125,10.625 15.625,10.625" id="Fill-1536" fill="#DF5142"></path>
                        <path d="M11.25,12.8125 L7.8125,12.8125 C7.6396875,12.8125 7.5,12.6728125 7.5,12.5 C7.5,12.3271875 7.6396875,12.1875 7.8125,12.1875 L11.25,12.1875 C11.4228125,12.1875 11.5625,12.3271875 11.5625,12.5 C11.5625,12.6728125 11.4228125,12.8125 11.25,12.8125" id="Fill-1537" fill="#DF5142"></path>
                        <path d="M11.25,8.4375 L10,8.4375 C9.8271875,8.4375 9.6875,8.2978125 9.6875,8.125 C9.6875,7.9521875 9.8271875,7.8125 10,7.8125 L11.25,7.8125 C11.4228125,7.8125 11.5625,7.9521875 11.5625,8.125 C11.5625,8.2978125 11.4228125,8.4375 11.25,8.4375" id="Fill-1538" fill="#EFB252"></path>
                        <path d="M8.75,8.4375 L5.3125,8.4375 C5.1396875,8.4375 5,8.2978125 5,8.125 C5,7.9521875 5.1396875,7.8125 5.3125,7.8125 L8.75,7.8125 C8.9228125,7.8125 9.0625,7.9521875 9.0625,8.125 C9.0625,8.2978125 8.9228125,8.4375 8.75,8.4375" id="Fill-1539" fill="#55B7D9"></path>
                        <path d="M8.75,6.25 L5.3125,6.25 C5.1396875,6.25 5,6.1103125 5,5.9375 C5,5.7646875 5.1396875,5.625 5.3125,5.625 L8.75,5.625 C8.9228125,5.625 9.0625,5.7646875 9.0625,5.9375 C9.0625,6.1103125 8.9228125,6.25 8.75,6.25" id="Fill-1540" fill="#FFFFFE"></path>
                        <path d="M5.3125,4.0625 C5.2325,4.0625 5.1525,4.031875 5.0915625,3.9709375 C4.969375,3.84875 4.969375,3.65125 5.0915625,3.5290625 L5.808125,2.8125 L5.0915625,2.0959375 C4.969375,1.97375 4.969375,1.77625 5.0915625,1.6540625 C5.21375,1.531875 5.41125,1.531875 5.5334375,1.6540625 L6.4709375,2.5915625 C6.593125,2.71375 6.593125,2.91125 6.4709375,3.0334375 L5.5334375,3.9709375 C5.4725,4.031875 5.3925,4.0625 5.3125,4.0625" id="Fill-1541" fill="#697D85"></path>
                        <path d="M8.4375,4.0625 L7.1875,4.0625 C7.0146875,4.0625 6.875,3.9228125 6.875,3.75 C6.875,3.5771875 7.0146875,3.4375 7.1875,3.4375 L8.4375,3.4375 C8.6103125,3.4375 8.75,3.5771875 8.75,3.75 C8.75,3.9228125 8.6103125,4.0625 8.4375,4.0625" id="Fill-1542" fill="#697D85"></path>
                    </g>
                    <g id="Group-3" transform="translate(12.592593, 1.481481)">
                        <circle id="Oval" fill="#FFFFFF" cx="2.96296296" cy="2.96296296" r="2.96296296"></circle>
                        <g id="Sharepoint_32x" transform="translate(0.987654, 0.987654)">
                            <circle id="Oval" fill="#036C70" fill-rule="nonzero" cx="1.85185185" cy="1.17283951" r="1.17283951"></circle>
                            <circle id="Oval" fill="#1A9BA1" fill-rule="nonzero" cx="2.94691358" cy="2.20740741" r="1.0037037"></circle>
                            <circle id="Oval" fill="#37C6D0" fill-rule="nonzero" cx="1.97530864" cy="3.14814815" r="1"></circle>
                            <path d="M2.05802469,0.864197531 L0.719753086,0.864197531 C0.692924338,0.964891707 0.679230522,1.06863273 0.679012346,1.17283951 C0.679012346,1.82058088 1.20411048,2.34567901 1.85185185,2.34567901 C1.88557063,2.34755518 1.91936764,2.34755518 1.95308642,2.34567901 L1.95308642,2.34567901 C1.51859686,2.35771562 1.17267281,2.71349193 1.17283951,3.14814815 C1.17283951,3.1691358 1.17283951,3.18888889 1.17283951,3.20988119 L2.05555556,3.20988119 C2.09943124,3.2102052 2.14164032,3.19309021 2.17289665,3.16229693 C2.20415298,3.13150366 2.22189601,3.08955472 2.22222222,3.04567901 L2.22222222,1.02839506 C2.22155005,0.937991158 2.1484286,0.864869707 2.05802469,0.864197531 Z" id="Path" fill="#000000" fill-rule="nonzero" opacity="0.1"></path>
                            <path d="M1.9345679,0.987654321 L0.7,0.987654321 C0.687992037,1.04871116 0.680972984,1.11064397 0.679012346,1.17283951 C0.679012346,1.82058088 1.20411048,2.34567901 1.85185185,2.34567901 C1.88557063,2.34755518 1.91936764,2.34755518 1.95308642,2.34567901 L1.95308642,2.34567901 C1.51859686,2.35771562 1.17267281,2.71349193 1.17283951,3.14814815 C1.17282615,3.21047068 1.17986685,3.27259448 1.19382716,3.33333333 L1.9345679,3.33333333 C2.02497181,3.33266116 2.09809326,3.25953971 2.09876543,3.1691358 L2.09876543,1.15185185 C2.09809326,1.06144795 2.02497181,0.988326497 1.9345679,0.987654321 Z" id="Path" fill="#000000" fill-rule="nonzero" opacity="0.2"></path>
                            <path d="M1.9345679,0.987654321 L0.7,0.987654321 C0.687992037,1.04871116 0.680972984,1.11064397 0.679012346,1.17283951 C0.679012346,1.82058088 1.20411048,2.34567901 1.85185185,2.34567901 C1.88557063,2.34755518 1.91936764,2.34755518 1.95308642,2.34567901 L1.95308642,2.34567901 C1.5419666,2.35649291 1.20556742,2.67636535 1.17407407,3.08641975 L1.93333333,3.08641975 C2.02421899,3.08641975 2.09808718,3.01310535 2.09876543,2.92222222 L2.09876543,1.15185185 C2.09809326,1.06144795 2.02497181,0.988326497 1.9345679,0.987654321 Z" id="Path" fill="#000000" fill-rule="nonzero" opacity="0.2"></path>
                            <path d="M1.81111111,0.987654321 L0.7,0.987654321 C0.687992037,1.04871116 0.680972984,1.11064397 0.679012346,1.17283951 C0.679012346,1.82058088 1.20411048,2.34567901 1.85185185,2.34567901 C1.88557063,2.34755518 1.91936764,2.34755518 1.95308642,2.34567901 L1.95308642,2.34567901 C1.5419666,2.35649291 1.20556742,2.67636535 1.17407407,3.08641975 L1.80987654,3.08641975 C1.9007622,3.08641975 1.97463039,3.01310535 1.97530864,2.92222222 L1.97530864,1.15185185 C1.97463647,1.06144795 1.90151502,0.988326497 1.81111111,0.987654321 Z" id="Path" fill="#000000" fill-rule="nonzero" opacity="0.2"></path>
                            <rect id="Back_Plate" fill="#038387" fill-rule="nonzero" x="0" y="0.987654321" width="1.97530864" height="1.97530864" rx="0.987654321"></rect>
                            <path d="M0.740740741,1.96296296 C0.697882194,1.93425145 0.662020086,1.8962798 0.635802469,1.85185185 C0.610154324,1.8049892 0.597375384,1.75216958 0.598765432,1.69876543 C0.596208401,1.62679277 0.620397889,1.55642335 0.666666667,1.50123457 C0.71475654,1.4437255 0.778083498,1.40093702 0.849382716,1.37777778 C0.929146097,1.35204611 1.01248596,1.33912843 1.0962963,1.33950617 C1.20716291,1.33584857 1.31783193,1.35130047 1.42345679,1.38518519 L1.42345679,1.61728395 C1.37786967,1.58884881 1.32776964,1.5683913 1.27530864,1.55679012 C1.2214995,1.54427257 1.16634726,1.53846707 1.11111111,1.53950617 C1.04972612,1.53726336 0.988715785,1.54997385 0.933333333,1.57654321 C0.891638122,1.59637082 0.864490689,1.63780638 0.862962963,1.68395062 C0.862642955,1.71195649 0.873275015,1.73897965 0.892592593,1.75925926 C0.915596477,1.78331289 0.942789228,1.80297534 0.972839506,1.81728395 C1.00617284,1.8345679 1.05679012,1.85679012 1.12345679,1.88395062 L1.14567901,1.89259259 C1.21162675,1.91835866 1.27523573,1.9497501 1.33580247,1.98641975 C1.3820846,2.01479965 1.42100282,2.05371787 1.44938272,2.1 C1.47531095,2.15327713 1.48639947,2.21255802 1.48148148,2.27160494 C1.4841314,2.34562744 1.46148887,2.41834481 1.41728395,2.47777778 C1.37254915,2.53201636 1.31288295,2.57193691 1.24567901,2.59259259 C1.16581343,2.61763109 1.08245346,2.62971829 0.998765432,2.62839506 C0.924701879,2.62872662 0.850753216,2.62252981 0.777777778,2.60987654 C0.715836958,2.59986799 0.655321673,2.58245948 0.597530864,2.55802469 L0.597530864,2.31111111 C0.652637417,2.35008421 0.714021524,2.37931473 0.779012346,2.39753086 C0.84651179,2.41912513 0.916797269,2.43077006 0.987654321,2.43209877 C1.05051866,2.43630301 1.11332254,2.42305866 1.1691358,2.39382716 C1.20787242,2.37146834 1.23148673,2.32990716 1.2308642,2.28518519 C1.23122005,2.25366849 1.21874121,2.22336271 1.1962963,2.20123457 C1.16896182,2.17425561 1.13723255,2.15212861 1.10246914,2.13580247 C1.0617284,2.11604938 1.00246914,2.08888889 0.924691358,2.05679012 C0.860392044,2.03174248 0.79876681,2.00030947 0.740740741,1.96296296 L0.740740741,1.96296296 Z" id="Path" fill="#FFFFFF" fill-rule="nonzero"></path>
                            <rect id="Rectangle" x="0" y="0" width="3.95061728" height="3.95061728"></rect>
                        </g>
                    </g>
                </g>
                <g id="Group-4" transform="translate(40.000000, 70.000000)">
                    <g id="Code" filter="url(#filter-12)">
                        <path d="M18.75,0.625 L1.25,0.625 C0.9053125,0.625 0.625,0.9053125 0.625,1.25 L0.625,15.625 C0.625,15.969375 0.9053125,16.25 1.25,16.25 L18.75,16.25 C19.094375,16.25 19.375,15.969375 19.375,15.625 L19.375,1.25 C19.375,0.9053125 19.094375,0.625 18.75,0.625" id="Fill-1523" fill="#182A37"></path>
                        <path d="M18.75,0 L1.25,0 C0.5625,0 0,0.5625 0,1.25 L0,15.625 C0,16.3125 0.5625,16.875 1.25,16.875 L18.75,16.875 C19.4375,16.875 20,16.3125 20,15.625 L20,1.25 C20,0.5625 19.4375,0 18.75,0 Z M18.75,0.625 C19.094375,0.625 19.375,0.9053125 19.375,1.25 L19.375,15.625 C19.375,15.969375 19.094375,16.25 18.75,16.25 L1.25,16.25 C0.9053125,16.25 0.625,15.969375 0.625,15.625 L0.625,1.25 C0.625,0.9053125 0.9053125,0.625 1.25,0.625 L18.75,0.625 L18.75,0.625 Z" id="Fill-1524" fill="#384B58"></path>
                        <polygon id="Fill-1525" fill="#384B58" points="3.4375 16.25 4.0625 16.25 4.0625 0.625 3.4375 0.625"></polygon>
                        <path d="M2.8125,5.9375 C2.8125,6.2825 2.5325,6.5625 2.1875,6.5625 C1.8421875,6.5625 1.5625,6.2825 1.5625,5.9375 C1.5625,5.5921875 1.8421875,5.3125 2.1875,5.3125 C2.5325,5.3125 2.8125,5.5921875 2.8125,5.9375" id="Fill-1526" fill="#E1E4E1"></path>
                        <path d="M2.8125,8.125 C2.8125,8.47 2.5325,8.75 2.1875,8.75 C1.8421875,8.75 1.5625,8.47 1.5625,8.125 C1.5625,7.7796875 1.8421875,7.5 2.1875,7.5 C2.5325,7.5 2.8125,7.7796875 2.8125,8.125" id="Fill-1527" fill="#E1E4E1"></path>
                        <path d="M2.8125,10.3125 C2.8125,10.6575 2.5325,10.9375 2.1875,10.9375 C1.8421875,10.9375 1.5625,10.6575 1.5625,10.3125 C1.5625,9.9671875 1.8421875,9.6875 2.1875,9.6875 C2.5325,9.6875 2.8125,9.9671875 2.8125,10.3125" id="Fill-1528" fill="#E1E4E1"></path>
                        <path d="M2.8125,12.5 C2.8125,12.845 2.5325,13.125 2.1875,13.125 C1.8421875,13.125 1.5625,12.845 1.5625,12.5 C1.5625,12.1546875 1.8421875,11.875 2.1875,11.875 C2.5325,11.875 2.8125,12.1546875 2.8125,12.5" id="Fill-1529" fill="#E1E4E1"></path>
                        <path d="M2.8125,14.6875 C2.8125,15.0325 2.5325,15.3125 2.1875,15.3125 C1.8421875,15.3125 1.5625,15.0325 1.5625,14.6875 C1.5625,14.3421875 1.8421875,14.0625 2.1875,14.0625 C2.5325,14.0625 2.8125,14.3421875 2.8125,14.6875" id="Fill-1530" fill="#E1E4E1"></path>
                        <path d="M8.75,15 L5.3125,15 C5.1396875,15 5,14.8603125 5,14.6875 C5,14.5146875 5.1396875,14.375 5.3125,14.375 L8.75,14.375 C8.9228125,14.375 9.0625,14.5146875 9.0625,14.6875 C9.0625,14.8603125 8.9228125,15 8.75,15" id="Fill-1531" fill="#FFFFFE"></path>
                        <path d="M11.875,15 L10,15 C9.8271875,15 9.6875,14.8603125 9.6875,14.6875 C9.6875,14.5146875 9.8271875,14.375 10,14.375 L11.875,14.375 C12.0478125,14.375 12.1875,14.5146875 12.1875,14.6875 C12.1875,14.8603125 12.0478125,15 11.875,15" id="Fill-1532" fill="#55B7D9"></path>
                        <path d="M6.5625,12.8125 L5.3125,12.8125 C5.1396875,12.8125 5,12.6728125 5,12.5 C5,12.3271875 5.1396875,12.1875 5.3125,12.1875 L6.5625,12.1875 C6.7353125,12.1875 6.875,12.3271875 6.875,12.5 C6.875,12.6728125 6.7353125,12.8125 6.5625,12.8125" id="Fill-1533" fill="#EFB252"></path>
                        <path d="M8.75,10.625 L5.3125,10.625 C5.1396875,10.625 5,10.4853125 5,10.3125 C5,10.1396875 5.1396875,10 5.3125,10 L8.75,10 C8.9228125,10 9.0625,10.1396875 9.0625,10.3125 C9.0625,10.4853125 8.9228125,10.625 8.75,10.625" id="Fill-1534" fill="#FFFFFE"></path>
                        <path d="M13.4375,10.625 L10,10.625 C9.8271875,10.625 9.6875,10.4853125 9.6875,10.3125 C9.6875,10.1396875 9.8271875,10 10,10 L13.4375,10 C13.6103125,10 13.75,10.1396875 13.75,10.3125 C13.75,10.4853125 13.6103125,10.625 13.4375,10.625" id="Fill-1535" fill="#FFFFFE"></path>
                        <path d="M15.625,10.625 L14.6875,10.625 C14.5146875,10.625 14.375,10.4853125 14.375,10.3125 C14.375,10.1396875 14.5146875,10 14.6875,10 L15.625,10 C15.7978125,10 15.9375,10.1396875 15.9375,10.3125 C15.9375,10.4853125 15.7978125,10.625 15.625,10.625" id="Fill-1536" fill="#DF5142"></path>
                        <path d="M11.25,12.8125 L7.8125,12.8125 C7.6396875,12.8125 7.5,12.6728125 7.5,12.5 C7.5,12.3271875 7.6396875,12.1875 7.8125,12.1875 L11.25,12.1875 C11.4228125,12.1875 11.5625,12.3271875 11.5625,12.5 C11.5625,12.6728125 11.4228125,12.8125 11.25,12.8125" id="Fill-1537" fill="#DF5142"></path>
                        <path d="M11.25,8.4375 L10,8.4375 C9.8271875,8.4375 9.6875,8.2978125 9.6875,8.125 C9.6875,7.9521875 9.8271875,7.8125 10,7.8125 L11.25,7.8125 C11.4228125,7.8125 11.5625,7.9521875 11.5625,8.125 C11.5625,8.2978125 11.4228125,8.4375 11.25,8.4375" id="Fill-1538" fill="#EFB252"></path>
                        <path d="M8.75,8.4375 L5.3125,8.4375 C5.1396875,8.4375 5,8.2978125 5,8.125 C5,7.9521875 5.1396875,7.8125 5.3125,7.8125 L8.75,7.8125 C8.9228125,7.8125 9.0625,7.9521875 9.0625,8.125 C9.0625,8.2978125 8.9228125,8.4375 8.75,8.4375" id="Fill-1539" fill="#55B7D9"></path>
                        <path d="M8.75,6.25 L5.3125,6.25 C5.1396875,6.25 5,6.1103125 5,5.9375 C5,5.7646875 5.1396875,5.625 5.3125,5.625 L8.75,5.625 C8.9228125,5.625 9.0625,5.7646875 9.0625,5.9375 C9.0625,6.1103125 8.9228125,6.25 8.75,6.25" id="Fill-1540" fill="#FFFFFE"></path>
                        <path d="M5.3125,4.0625 C5.2325,4.0625 5.1525,4.031875 5.0915625,3.9709375 C4.969375,3.84875 4.969375,3.65125 5.0915625,3.5290625 L5.808125,2.8125 L5.0915625,2.0959375 C4.969375,1.97375 4.969375,1.77625 5.0915625,1.6540625 C5.21375,1.531875 5.41125,1.531875 5.5334375,1.6540625 L6.4709375,2.5915625 C6.593125,2.71375 6.593125,2.91125 6.4709375,3.0334375 L5.5334375,3.9709375 C5.4725,4.031875 5.3925,4.0625 5.3125,4.0625" id="Fill-1541" fill="#697D85"></path>
                        <path d="M8.4375,4.0625 L7.1875,4.0625 C7.0146875,4.0625 6.875,3.9228125 6.875,3.75 C6.875,3.5771875 7.0146875,3.4375 7.1875,3.4375 L8.4375,3.4375 C8.6103125,3.4375 8.75,3.5771875 8.75,3.75 C8.75,3.9228125 8.6103125,4.0625 8.4375,4.0625" id="Fill-1542" fill="#697D85"></path>
                    </g>
                    <g id="Group-3" transform="translate(12.592593, 1.481481)">
                        <circle id="Oval" fill="#FFFFFF" cx="2.96296296" cy="2.96296296" r="2.96296296"></circle>
                        <g id="Sharepoint_32x" transform="translate(0.987654, 0.987654)">
                            <circle id="Oval" fill="#036C70" fill-rule="nonzero" cx="1.85185185" cy="1.17283951" r="1.17283951"></circle>
                            <circle id="Oval" fill="#1A9BA1" fill-rule="nonzero" cx="2.94691358" cy="2.20740741" r="1.0037037"></circle>
                            <circle id="Oval" fill="#37C6D0" fill-rule="nonzero" cx="1.97530864" cy="3.14814815" r="1"></circle>
                            <path d="M2.05802469,0.864197531 L0.719753086,0.864197531 C0.692924338,0.964891707 0.679230522,1.06863273 0.679012346,1.17283951 C0.679012346,1.82058088 1.20411048,2.34567901 1.85185185,2.34567901 C1.88557063,2.34755518 1.91936764,2.34755518 1.95308642,2.34567901 L1.95308642,2.34567901 C1.51859686,2.35771562 1.17267281,2.71349193 1.17283951,3.14814815 C1.17283951,3.1691358 1.17283951,3.18888889 1.17283951,3.20988119 L2.05555556,3.20988119 C2.09943124,3.2102052 2.14164032,3.19309021 2.17289665,3.16229693 C2.20415298,3.13150366 2.22189601,3.08955472 2.22222222,3.04567901 L2.22222222,1.02839506 C2.22155005,0.937991158 2.1484286,0.864869707 2.05802469,0.864197531 Z" id="Path" fill="#000000" fill-rule="nonzero" opacity="0.1"></path>
                            <path d="M1.9345679,0.987654321 L0.7,0.987654321 C0.687992037,1.04871116 0.680972984,1.11064397 0.679012346,1.17283951 C0.679012346,1.82058088 1.20411048,2.34567901 1.85185185,2.34567901 C1.88557063,2.34755518 1.91936764,2.34755518 1.95308642,2.34567901 L1.95308642,2.34567901 C1.51859686,2.35771562 1.17267281,2.71349193 1.17283951,3.14814815 C1.17282615,3.21047068 1.17986685,3.27259448 1.19382716,3.33333333 L1.9345679,3.33333333 C2.02497181,3.33266116 2.09809326,3.25953971 2.09876543,3.1691358 L2.09876543,1.15185185 C2.09809326,1.06144795 2.02497181,0.988326497 1.9345679,0.987654321 Z" id="Path" fill="#000000" fill-rule="nonzero" opacity="0.2"></path>
                            <path d="M1.9345679,0.987654321 L0.7,0.987654321 C0.687992037,1.04871116 0.680972984,1.11064397 0.679012346,1.17283951 C0.679012346,1.82058088 1.20411048,2.34567901 1.85185185,2.34567901 C1.88557063,2.34755518 1.91936764,2.34755518 1.95308642,2.34567901 L1.95308642,2.34567901 C1.5419666,2.35649291 1.20556742,2.67636535 1.17407407,3.08641975 L1.93333333,3.08641975 C2.02421899,3.08641975 2.09808718,3.01310535 2.09876543,2.92222222 L2.09876543,1.15185185 C2.09809326,1.06144795 2.02497181,0.988326497 1.9345679,0.987654321 Z" id="Path" fill="#000000" fill-rule="nonzero" opacity="0.2"></path>
                            <path d="M1.81111111,0.987654321 L0.7,0.987654321 C0.687992037,1.04871116 0.680972984,1.11064397 0.679012346,1.17283951 C0.679012346,1.82058088 1.20411048,2.34567901 1.85185185,2.34567901 C1.88557063,2.34755518 1.91936764,2.34755518 1.95308642,2.34567901 L1.95308642,2.34567901 C1.5419666,2.35649291 1.20556742,2.67636535 1.17407407,3.08641975 L1.80987654,3.08641975 C1.9007622,3.08641975 1.97463039,3.01310535 1.97530864,2.92222222 L1.97530864,1.15185185 C1.97463647,1.06144795 1.90151502,0.988326497 1.81111111,0.987654321 Z" id="Path" fill="#000000" fill-rule="nonzero" opacity="0.2"></path>
                            <rect id="Back_Plate" fill="#038387" fill-rule="nonzero" x="0" y="0.987654321" width="1.97530864" height="1.97530864" rx="0.987654321"></rect>
                            <path d="M0.740740741,1.96296296 C0.697882194,1.93425145 0.662020086,1.8962798 0.635802469,1.85185185 C0.610154324,1.8049892 0.597375384,1.75216958 0.598765432,1.69876543 C0.596208401,1.62679277 0.620397889,1.55642335 0.666666667,1.50123457 C0.71475654,1.4437255 0.778083498,1.40093702 0.849382716,1.37777778 C0.929146097,1.35204611 1.01248596,1.33912843 1.0962963,1.33950617 C1.20716291,1.33584857 1.31783193,1.35130047 1.42345679,1.38518519 L1.42345679,1.61728395 C1.37786967,1.58884881 1.32776964,1.5683913 1.27530864,1.55679012 C1.2214995,1.54427257 1.16634726,1.53846707 1.11111111,1.53950617 C1.04972612,1.53726336 0.988715785,1.54997385 0.933333333,1.57654321 C0.891638122,1.59637082 0.864490689,1.63780638 0.862962963,1.68395062 C0.862642955,1.71195649 0.873275015,1.73897965 0.892592593,1.75925926 C0.915596477,1.78331289 0.942789228,1.80297534 0.972839506,1.81728395 C1.00617284,1.8345679 1.05679012,1.85679012 1.12345679,1.88395062 L1.14567901,1.89259259 C1.21162675,1.91835866 1.27523573,1.9497501 1.33580247,1.98641975 C1.3820846,2.01479965 1.42100282,2.05371787 1.44938272,2.1 C1.47531095,2.15327713 1.48639947,2.21255802 1.48148148,2.27160494 C1.4841314,2.34562744 1.46148887,2.41834481 1.41728395,2.47777778 C1.37254915,2.53201636 1.31288295,2.57193691 1.24567901,2.59259259 C1.16581343,2.61763109 1.08245346,2.62971829 0.998765432,2.62839506 C0.924701879,2.62872662 0.850753216,2.62252981 0.777777778,2.60987654 C0.715836958,2.59986799 0.655321673,2.58245948 0.597530864,2.55802469 L0.597530864,2.31111111 C0.652637417,2.35008421 0.714021524,2.37931473 0.779012346,2.39753086 C0.84651179,2.41912513 0.916797269,2.43077006 0.987654321,2.43209877 C1.05051866,2.43630301 1.11332254,2.42305866 1.1691358,2.39382716 C1.20787242,2.37146834 1.23148673,2.32990716 1.2308642,2.28518519 C1.23122005,2.25366849 1.21874121,2.22336271 1.1962963,2.20123457 C1.16896182,2.17425561 1.13723255,2.15212861 1.10246914,2.13580247 C1.0617284,2.11604938 1.00246914,2.08888889 0.924691358,2.05679012 C0.860392044,2.03174248 0.79876681,2.00030947 0.740740741,1.96296296 L0.740740741,1.96296296 Z" id="Path" fill="#FFFFFF" fill-rule="nonzero"></path>
                            <rect id="Rectangle" x="0" y="0" width="3.95061728" height="3.95061728"></rect>
                        </g>
                    </g>
                </g>
                <g id="Group-4" transform="translate(64.000000, 59.000000)">
                    <g id="Code" filter="url(#filter-13)">
                        <path d="M18.75,0.625 L1.25,0.625 C0.9053125,0.625 0.625,0.9053125 0.625,1.25 L0.625,15.625 C0.625,15.969375 0.9053125,16.25 1.25,16.25 L18.75,16.25 C19.094375,16.25 19.375,15.969375 19.375,15.625 L19.375,1.25 C19.375,0.9053125 19.094375,0.625 18.75,0.625" id="Fill-1523" fill="#182A37"></path>
                        <path d="M18.75,0 L1.25,0 C0.5625,0 0,0.5625 0,1.25 L0,15.625 C0,16.3125 0.5625,16.875 1.25,16.875 L18.75,16.875 C19.4375,16.875 20,16.3125 20,15.625 L20,1.25 C20,0.5625 19.4375,0 18.75,0 Z M18.75,0.625 C19.094375,0.625 19.375,0.9053125 19.375,1.25 L19.375,15.625 C19.375,15.969375 19.094375,16.25 18.75,16.25 L1.25,16.25 C0.9053125,16.25 0.625,15.969375 0.625,15.625 L0.625,1.25 C0.625,0.9053125 0.9053125,0.625 1.25,0.625 L18.75,0.625 L18.75,0.625 Z" id="Fill-1524" fill="#384B58"></path>
                        <polygon id="Fill-1525" fill="#384B58" points="3.4375 16.25 4.0625 16.25 4.0625 0.625 3.4375 0.625"></polygon>
                        <path d="M2.8125,5.9375 C2.8125,6.2825 2.5325,6.5625 2.1875,6.5625 C1.8421875,6.5625 1.5625,6.2825 1.5625,5.9375 C1.5625,5.5921875 1.8421875,5.3125 2.1875,5.3125 C2.5325,5.3125 2.8125,5.5921875 2.8125,5.9375" id="Fill-1526" fill="#E1E4E1"></path>
                        <path d="M2.8125,8.125 C2.8125,8.47 2.5325,8.75 2.1875,8.75 C1.8421875,8.75 1.5625,8.47 1.5625,8.125 C1.5625,7.7796875 1.8421875,7.5 2.1875,7.5 C2.5325,7.5 2.8125,7.7796875 2.8125,8.125" id="Fill-1527" fill="#E1E4E1"></path>
                        <path d="M2.8125,10.3125 C2.8125,10.6575 2.5325,10.9375 2.1875,10.9375 C1.8421875,10.9375 1.5625,10.6575 1.5625,10.3125 C1.5625,9.9671875 1.8421875,9.6875 2.1875,9.6875 C2.5325,9.6875 2.8125,9.9671875 2.8125,10.3125" id="Fill-1528" fill="#E1E4E1"></path>
                        <path d="M2.8125,12.5 C2.8125,12.845 2.5325,13.125 2.1875,13.125 C1.8421875,13.125 1.5625,12.845 1.5625,12.5 C1.5625,12.1546875 1.8421875,11.875 2.1875,11.875 C2.5325,11.875 2.8125,12.1546875 2.8125,12.5" id="Fill-1529" fill="#E1E4E1"></path>
                        <path d="M2.8125,14.6875 C2.8125,15.0325 2.5325,15.3125 2.1875,15.3125 C1.8421875,15.3125 1.5625,15.0325 1.5625,14.6875 C1.5625,14.3421875 1.8421875,14.0625 2.1875,14.0625 C2.5325,14.0625 2.8125,14.3421875 2.8125,14.6875" id="Fill-1530" fill="#E1E4E1"></path>
                        <path d="M8.75,15 L5.3125,15 C5.1396875,15 5,14.8603125 5,14.6875 C5,14.5146875 5.1396875,14.375 5.3125,14.375 L8.75,14.375 C8.9228125,14.375 9.0625,14.5146875 9.0625,14.6875 C9.0625,14.8603125 8.9228125,15 8.75,15" id="Fill-1531" fill="#FFFFFE"></path>
                        <path d="M11.875,15 L10,15 C9.8271875,15 9.6875,14.8603125 9.6875,14.6875 C9.6875,14.5146875 9.8271875,14.375 10,14.375 L11.875,14.375 C12.0478125,14.375 12.1875,14.5146875 12.1875,14.6875 C12.1875,14.8603125 12.0478125,15 11.875,15" id="Fill-1532" fill="#55B7D9"></path>
                        <path d="M6.5625,12.8125 L5.3125,12.8125 C5.1396875,12.8125 5,12.6728125 5,12.5 C5,12.3271875 5.1396875,12.1875 5.3125,12.1875 L6.5625,12.1875 C6.7353125,12.1875 6.875,12.3271875 6.875,12.5 C6.875,12.6728125 6.7353125,12.8125 6.5625,12.8125" id="Fill-1533" fill="#EFB252"></path>
                        <path d="M8.75,10.625 L5.3125,10.625 C5.1396875,10.625 5,10.4853125 5,10.3125 C5,10.1396875 5.1396875,10 5.3125,10 L8.75,10 C8.9228125,10 9.0625,10.1396875 9.0625,10.3125 C9.0625,10.4853125 8.9228125,10.625 8.75,10.625" id="Fill-1534" fill="#FFFFFE"></path>
                        <path d="M13.4375,10.625 L10,10.625 C9.8271875,10.625 9.6875,10.4853125 9.6875,10.3125 C9.6875,10.1396875 9.8271875,10 10,10 L13.4375,10 C13.6103125,10 13.75,10.1396875 13.75,10.3125 C13.75,10.4853125 13.6103125,10.625 13.4375,10.625" id="Fill-1535" fill="#FFFFFE"></path>
                        <path d="M15.625,10.625 L14.6875,10.625 C14.5146875,10.625 14.375,10.4853125 14.375,10.3125 C14.375,10.1396875 14.5146875,10 14.6875,10 L15.625,10 C15.7978125,10 15.9375,10.1396875 15.9375,10.3125 C15.9375,10.4853125 15.7978125,10.625 15.625,10.625" id="Fill-1536" fill="#DF5142"></path>
                        <path d="M11.25,12.8125 L7.8125,12.8125 C7.6396875,12.8125 7.5,12.6728125 7.5,12.5 C7.5,12.3271875 7.6396875,12.1875 7.8125,12.1875 L11.25,12.1875 C11.4228125,12.1875 11.5625,12.3271875 11.5625,12.5 C11.5625,12.6728125 11.4228125,12.8125 11.25,12.8125" id="Fill-1537" fill="#DF5142"></path>
                        <path d="M11.25,8.4375 L10,8.4375 C9.8271875,8.4375 9.6875,8.2978125 9.6875,8.125 C9.6875,7.9521875 9.8271875,7.8125 10,7.8125 L11.25,7.8125 C11.4228125,7.8125 11.5625,7.9521875 11.5625,8.125 C11.5625,8.2978125 11.4228125,8.4375 11.25,8.4375" id="Fill-1538" fill="#EFB252"></path>
                        <path d="M8.75,8.4375 L5.3125,8.4375 C5.1396875,8.4375 5,8.2978125 5,8.125 C5,7.9521875 5.1396875,7.8125 5.3125,7.8125 L8.75,7.8125 C8.9228125,7.8125 9.0625,7.9521875 9.0625,8.125 C9.0625,8.2978125 8.9228125,8.4375 8.75,8.4375" id="Fill-1539" fill="#55B7D9"></path>
                        <path d="M8.75,6.25 L5.3125,6.25 C5.1396875,6.25 5,6.1103125 5,5.9375 C5,5.7646875 5.1396875,5.625 5.3125,5.625 L8.75,5.625 C8.9228125,5.625 9.0625,5.7646875 9.0625,5.9375 C9.0625,6.1103125 8.9228125,6.25 8.75,6.25" id="Fill-1540" fill="#FFFFFE"></path>
                        <path d="M5.3125,4.0625 C5.2325,4.0625 5.1525,4.031875 5.0915625,3.9709375 C4.969375,3.84875 4.969375,3.65125 5.0915625,3.5290625 L5.808125,2.8125 L5.0915625,2.0959375 C4.969375,1.97375 4.969375,1.77625 5.0915625,1.6540625 C5.21375,1.531875 5.41125,1.531875 5.5334375,1.6540625 L6.4709375,2.5915625 C6.593125,2.71375 6.593125,2.91125 6.4709375,3.0334375 L5.5334375,3.9709375 C5.4725,4.031875 5.3925,4.0625 5.3125,4.0625" id="Fill-1541" fill="#697D85"></path>
                        <path d="M8.4375,4.0625 L7.1875,4.0625 C7.0146875,4.0625 6.875,3.9228125 6.875,3.75 C6.875,3.5771875 7.0146875,3.4375 7.1875,3.4375 L8.4375,3.4375 C8.6103125,3.4375 8.75,3.5771875 8.75,3.75 C8.75,3.9228125 8.6103125,4.0625 8.4375,4.0625" id="Fill-1542" fill="#697D85"></path>
                    </g>
                    <g id="Group-3" transform="translate(12.592593, 1.481481)">
                        <circle id="Oval" fill="#FFFFFF" cx="2.96296296" cy="2.96296296" r="2.96296296"></circle>
                        <g id="Sharepoint_32x" transform="translate(0.987654, 0.987654)">
                            <circle id="Oval" fill="#036C70" fill-rule="nonzero" cx="1.85185185" cy="1.17283951" r="1.17283951"></circle>
                            <circle id="Oval" fill="#1A9BA1" fill-rule="nonzero" cx="2.94691358" cy="2.20740741" r="1.0037037"></circle>
                            <circle id="Oval" fill="#37C6D0" fill-rule="nonzero" cx="1.97530864" cy="3.14814815" r="1"></circle>
                            <path d="M2.05802469,0.864197531 L0.719753086,0.864197531 C0.692924338,0.964891707 0.679230522,1.06863273 0.679012346,1.17283951 C0.679012346,1.82058088 1.20411048,2.34567901 1.85185185,2.34567901 C1.88557063,2.34755518 1.91936764,2.34755518 1.95308642,2.34567901 L1.95308642,2.34567901 C1.51859686,2.35771562 1.17267281,2.71349193 1.17283951,3.14814815 C1.17283951,3.1691358 1.17283951,3.18888889 1.17283951,3.20988119 L2.05555556,3.20988119 C2.09943124,3.2102052 2.14164032,3.19309021 2.17289665,3.16229693 C2.20415298,3.13150366 2.22189601,3.08955472 2.22222222,3.04567901 L2.22222222,1.02839506 C2.22155005,0.937991158 2.1484286,0.864869707 2.05802469,0.864197531 Z" id="Path" fill="#000000" fill-rule="nonzero" opacity="0.1"></path>
                            <path d="M1.9345679,0.987654321 L0.7,0.987654321 C0.687992037,1.04871116 0.680972984,1.11064397 0.679012346,1.17283951 C0.679012346,1.82058088 1.20411048,2.34567901 1.85185185,2.34567901 C1.88557063,2.34755518 1.91936764,2.34755518 1.95308642,2.34567901 L1.95308642,2.34567901 C1.51859686,2.35771562 1.17267281,2.71349193 1.17283951,3.14814815 C1.17282615,3.21047068 1.17986685,3.27259448 1.19382716,3.33333333 L1.9345679,3.33333333 C2.02497181,3.33266116 2.09809326,3.25953971 2.09876543,3.1691358 L2.09876543,1.15185185 C2.09809326,1.06144795 2.02497181,0.988326497 1.9345679,0.987654321 Z" id="Path" fill="#000000" fill-rule="nonzero" opacity="0.2"></path>
                            <path d="M1.9345679,0.987654321 L0.7,0.987654321 C0.687992037,1.04871116 0.680972984,1.11064397 0.679012346,1.17283951 C0.679012346,1.82058088 1.20411048,2.34567901 1.85185185,2.34567901 C1.88557063,2.34755518 1.91936764,2.34755518 1.95308642,2.34567901 L1.95308642,2.34567901 C1.5419666,2.35649291 1.20556742,2.67636535 1.17407407,3.08641975 L1.93333333,3.08641975 C2.02421899,3.08641975 2.09808718,3.01310535 2.09876543,2.92222222 L2.09876543,1.15185185 C2.09809326,1.06144795 2.02497181,0.988326497 1.9345679,0.987654321 Z" id="Path" fill="#000000" fill-rule="nonzero" opacity="0.2"></path>
                            <path d="M1.81111111,0.987654321 L0.7,0.987654321 C0.687992037,1.04871116 0.680972984,1.11064397 0.679012346,1.17283951 C0.679012346,1.82058088 1.20411048,2.34567901 1.85185185,2.34567901 C1.88557063,2.34755518 1.91936764,2.34755518 1.95308642,2.34567901 L1.95308642,2.34567901 C1.5419666,2.35649291 1.20556742,2.67636535 1.17407407,3.08641975 L1.80987654,3.08641975 C1.9007622,3.08641975 1.97463039,3.01310535 1.97530864,2.92222222 L1.97530864,1.15185185 C1.97463647,1.06144795 1.90151502,0.988326497 1.81111111,0.987654321 Z" id="Path" fill="#000000" fill-rule="nonzero" opacity="0.2"></path>
                            <rect id="Back_Plate" fill="#038387" fill-rule="nonzero" x="0" y="0.987654321" width="1.97530864" height="1.97530864" rx="0.987654321"></rect>
                            <path d="M0.740740741,1.96296296 C0.697882194,1.93425145 0.662020086,1.8962798 0.635802469,1.85185185 C0.610154324,1.8049892 0.597375384,1.75216958 0.598765432,1.69876543 C0.596208401,1.62679277 0.620397889,1.55642335 0.666666667,1.50123457 C0.71475654,1.4437255 0.778083498,1.40093702 0.849382716,1.37777778 C0.929146097,1.35204611 1.01248596,1.33912843 1.0962963,1.33950617 C1.20716291,1.33584857 1.31783193,1.35130047 1.42345679,1.38518519 L1.42345679,1.61728395 C1.37786967,1.58884881 1.32776964,1.5683913 1.27530864,1.55679012 C1.2214995,1.54427257 1.16634726,1.53846707 1.11111111,1.53950617 C1.04972612,1.53726336 0.988715785,1.54997385 0.933333333,1.57654321 C0.891638122,1.59637082 0.864490689,1.63780638 0.862962963,1.68395062 C0.862642955,1.71195649 0.873275015,1.73897965 0.892592593,1.75925926 C0.915596477,1.78331289 0.942789228,1.80297534 0.972839506,1.81728395 C1.00617284,1.8345679 1.05679012,1.85679012 1.12345679,1.88395062 L1.14567901,1.89259259 C1.21162675,1.91835866 1.27523573,1.9497501 1.33580247,1.98641975 C1.3820846,2.01479965 1.42100282,2.05371787 1.44938272,2.1 C1.47531095,2.15327713 1.48639947,2.21255802 1.48148148,2.27160494 C1.4841314,2.34562744 1.46148887,2.41834481 1.41728395,2.47777778 C1.37254915,2.53201636 1.31288295,2.57193691 1.24567901,2.59259259 C1.16581343,2.61763109 1.08245346,2.62971829 0.998765432,2.62839506 C0.924701879,2.62872662 0.850753216,2.62252981 0.777777778,2.60987654 C0.715836958,2.59986799 0.655321673,2.58245948 0.597530864,2.55802469 L0.597530864,2.31111111 C0.652637417,2.35008421 0.714021524,2.37931473 0.779012346,2.39753086 C0.84651179,2.41912513 0.916797269,2.43077006 0.987654321,2.43209877 C1.05051866,2.43630301 1.11332254,2.42305866 1.1691358,2.39382716 C1.20787242,2.37146834 1.23148673,2.32990716 1.2308642,2.28518519 C1.23122005,2.25366849 1.21874121,2.22336271 1.1962963,2.20123457 C1.16896182,2.17425561 1.13723255,2.15212861 1.10246914,2.13580247 C1.0617284,2.11604938 1.00246914,2.08888889 0.924691358,2.05679012 C0.860392044,2.03174248 0.79876681,2.00030947 0.740740741,1.96296296 L0.740740741,1.96296296 Z" id="Path" fill="#FFFFFF" fill-rule="nonzero"></path>
                            <rect id="Rectangle" x="0" y="0" width="3.95061728" height="3.95061728"></rect>
                        </g>
                    </g>
                </g>
            </g>
        </g>
    </g>
</svg>