<?xml version="1.0" encoding="UTF-8"?>
<svg width="101px" height="101px" viewBox="0 0 101 101" version="1.1" xmlns="http://www.w3.org/2000/svg" xmlns:xlink="http://www.w3.org/1999/xlink">
    <!-- Generator: Sketch 63.1 (92452) - https://sketch.com -->
    <title>Customize and extend SharePoint/Working-with-SharePoint-Content</title>
    <desc>Created with Sketch.</desc>
    <defs>
        <rect id="path-1" x="0" y="0" width="94.3396226" height="94.3396226" rx="47.1698113"></rect>
        <linearGradient x1="50%" y1="2.35050413%" x2="50%" y2="100%" id="linearGradient-3">
            <stop stop-color="#036C70" offset="0%"></stop>
            <stop stop-color="#0E4F51" offset="100%"></stop>
        </linearGradient>
        <linearGradient x1="77.8299825%" y1="11.1997378%" x2="-99.6885927%" y2="253.807911%" id="linearGradient-4">
            <stop stop-color="#FFFFFF" offset="0%"></stop>
            <stop stop-color="#000000" stop-opacity="0.5" offset="100%"></stop>
        </linearGradient>
        <rect id="path-5" x="0" y="0" width="94.3396226" height="94.3396226"></rect>
        <rect id="path-6" x="0" y="0" width="100" height="100" rx="50"></rect>
        <filter x="-0.5%" y="-0.5%" width="102.0%" height="102.0%" filterUnits="objectBoundingBox" id="filter-7">
            <feOffset dx="1" dy="1" in="SourceAlpha" result="shadowOffsetOuter1"></feOffset>
            <feMorphology radius="4" operator="erode" in="SourceAlpha" result="shadowInner"></feMorphology>
            <feOffset dx="1" dy="1" in="shadowInner" result="shadowInner"></feOffset>
            <feComposite in="shadowOffsetOuter1" in2="shadowInner" operator="out" result="shadowOffsetOuter1"></feComposite>
            <feColorMatrix values="0 0 0 0 0   0 0 0 0 0   0 0 0 0 0  0 0 0 0.15 0" type="matrix" in="shadowOffsetOuter1"></feColorMatrix>
        </filter>
        <path d="M50,2.83018868 C76.0511674,2.83018868 97.1698113,23.9488326 97.1698113,50 C97.1698113,76.0511674 76.0511674,97.1698113 50,97.1698113 C23.9488326,97.1698113 2.83018868,76.0511674 2.83018868,50 C2.83018868,23.9488326 23.9488326,2.83018868 50,2.83018868 Z M50,6.60377358 C26.032926,6.60377358 6.60377358,26.032926 6.60377358,50 C6.60377358,73.967074 26.032926,93.3962264 50,93.3962264 C73.967074,93.3962264 93.3962264,73.967074 93.3962264,50 C93.3962264,26.032926 73.967074,6.60377358 50,6.60377358 Z" id="path-8"></path>
        <filter x="-10.5%" y="-7.7%" width="121.1%" height="115.4%" filterUnits="objectBoundingBox" id="filter-10">
            <feOffset dx="0" dy="2" in="SourceAlpha" result="shadowOffsetOuter1"></feOffset>
            <feColorMatrix values="0 0 0 0 0   0 0 0 0 0   0 0 0 0 0  0 0 0 0.0964956975 0" type="matrix" in="shadowOffsetOuter1" result="shadowMatrixOuter1"></feColorMatrix>
            <feMerge>
                <feMergeNode in="shadowMatrixOuter1"></feMergeNode>
                <feMergeNode in="SourceGraphic"></feMergeNode>
            </feMerge>
        </filter>
        <filter x="-10.0%" y="-7.3%" width="120.0%" height="115.7%" filterUnits="objectBoundingBox" id="filter-11">
            <feOffset dx="0" dy="2" in="SourceAlpha" result="shadowOffsetOuter1"></feOffset>
            <feColorMatrix values="0 0 0 0 0   0 0 0 0 0   0 0 0 0 0  0 0 0 0.0964956975 0" type="matrix" in="shadowOffsetOuter1" result="shadowMatrixOuter1"></feColorMatrix>
            <feMerge>
                <feMergeNode in="shadowMatrixOuter1"></feMergeNode>
                <feMergeNode in="SourceGraphic"></feMergeNode>
            </feMerge>
        </filter>
    </defs>
    <g id="Badges" stroke="none" stroke-width="1" fill="none" fill-rule="evenodd">
        <g id="Customize-and-extend-SharePoint-2" transform="translate(-160.000000, -320.000000)">
            <g id="Customize-and-extend-SharePoint/Working-with-SharePoint-Content" transform="translate(160.000000, 320.000000)">
                <g id="Badge-Plates/Circle">
                    <g id="BG" transform="translate(2.830189, 2.830189)">
                        <mask id="mask-2" fill="white">
                            <use xlink:href="#path-1"></use>
                        </mask>
                        <g></g>
                        <g id="Colors/Sharepoint/BG-Solid-1" mask="url(#mask-2)">
                            <rect id="Rectangle" fill="url(#linearGradient-3)" x="0" y="0" width="94.3396226" height="94.3396226"></rect>
                            <g id="Rectangle">
                                <use fill="#036C70" xlink:href="#path-5"></use>
                                <use fill-opacity="0.4" fill="url(#linearGradient-4)" xlink:href="#path-5"></use>
                            </g>
                        </g>
                    </g>
                    <g id="Border">
                        <g id="White-Border">
                            <use fill="black" fill-opacity="1" filter="url(#filter-7)" xlink:href="#path-6"></use>
                            <rect stroke="#F2F1F0" stroke-width="4" stroke-linejoin="square" x="2" y="2" width="96" height="96" rx="48"></rect>
                        </g>
                        <mask id="mask-9" fill="white">
                            <use xlink:href="#path-8"></use>
                        </mask>
                        <use id="Boarder" fill="#0078D4" fill-rule="nonzero" xlink:href="#path-8"></use>
                        <g id="Colors/Sharepoint/Border" mask="url(#mask-9)" fill="#036C70">
                            <g transform="translate(2.830189, 2.830189)" id="Rectangle">
                                <rect x="0" y="0" width="94.3396226" height="94.3396226"></rect>
                            </g>
                        </g>
                    </g>
                </g>
                <g id="Paper" filter="url(#filter-10)" transform="translate(26.000000, 19.000000)">
                    <g id="Group-2">
                        <path d="M3.23565957,0 C1.45693617,0 0.00161702128,1.45531915 0.00161702128,3.23404255 L0.00161702128,48.5106383 C0.00161702128,50.2893617 1.45693617,51.7446809 3.23565957,51.7446809 L33.9590638,51.7446809 C35.7385957,51.7446809 37.1931064,50.2893617 37.1931064,48.5106383 L37.1931064,12.9361702 L24.2569362,0 L3.23565957,0" id="Fill-12" fill="#D7DCDC"></path>
                        <path d="M27.4909787,12.9361702 L37.1931064,12.9361702 L24.2569362,0 L24.2569362,9.70212766 C24.2569362,11.4808511 25.7122553,12.9361702 27.4909787,12.9361702" id="Fill-13" fill="#697D85"></path>
                        <path d="M29.108,22.6382979 L8.0867234,22.6382979 C7.19412766,22.6382979 6.46970213,21.9138723 6.46970213,21.0212766 C6.46970213,20.1286809 7.19412766,19.4042553 8.0867234,19.4042553 L29.108,19.4042553 C30.0014043,19.4042553 30.7250213,20.1286809 30.7250213,21.0212766 C30.7250213,21.9138723 30.0014043,22.6382979 29.108,22.6382979" id="Fill-14" fill="#C5CCCD"></path>
                        <path d="M16.1718298,15.3617021 L8.0867234,15.3617021 C7.19412766,15.3617021 6.46970213,14.6372766 6.46970213,13.7446809 C6.46970213,12.8520851 7.19412766,12.1276596 8.0867234,12.1276596 L16.1718298,12.1276596 C17.065234,12.1276596 17.7888511,12.8520851 17.7888511,13.7446809 C17.7888511,14.6372766 17.065234,15.3617021 16.1718298,15.3617021" id="Fill-15" fill="#C5CCCD"></path>
                        <path d="M16.1718298,8.89361702 L8.0867234,8.89361702 C7.19412766,8.89361702 6.46970213,8.16919149 6.46970213,7.27659574 C6.46970213,6.384 7.19412766,5.65957447 8.0867234,5.65957447 L16.1718298,5.65957447 C17.065234,5.65957447 17.7888511,6.384 17.7888511,7.27659574 C17.7888511,8.16919149 17.065234,8.89361702 16.1718298,8.89361702" id="Fill-16" fill="#C5CCCD"></path>
                        <path d="M29.108,29.9148936 L8.0867234,29.9148936 C7.19412766,29.9148936 6.46970213,29.1904681 6.46970213,28.2978723 C6.46970213,27.4052766 7.19412766,26.6808511 8.0867234,26.6808511 L29.108,26.6808511 C30.0014043,26.6808511 30.7250213,27.4052766 30.7250213,28.2978723 C30.7250213,29.1904681 30.0014043,29.9148936 29.108,29.9148936" id="Fill-17" fill="#C5CCCD"></path>
                        <path d="M29.108,37.1914894 L8.0867234,37.1914894 C7.19412766,37.1914894 6.46970213,36.4670638 6.46970213,35.5744681 C6.46970213,34.6818723 7.19412766,33.9574468 8.0867234,33.9574468 L29.108,33.9574468 C30.0014043,33.9574468 30.7250213,34.6818723 30.7250213,35.5744681 C30.7250213,36.4670638 30.0014043,37.1914894 29.108,37.1914894" id="Fill-18" fill="#C5CCCD"></path>
                        <path d="M29.108,44.4680851 L8.0867234,44.4680851 C7.19412766,44.4680851 6.46970213,43.7436596 6.46970213,42.8510638 C6.46970213,41.9584681 7.19412766,41.2340426 8.0867234,41.2340426 L29.108,41.2340426 C30.0014043,41.2340426 30.7250213,41.9584681 30.7250213,42.8510638 C30.7250213,43.7436596 30.0014043,44.4680851 29.108,44.4680851" id="Fill-19" fill="#C5CCCD"></path>
                        <polyline id="Fill-20" fill="#C5CCCD" points="37.1931064 22.6382979 27.4909787 12.9361702 37.1931064 12.9361702 37.1931064 22.6382979"></polyline>
                    </g>
                </g>
                <g id="Paper" filter="url(#filter-11)" transform="translate(34.000000, 27.000000)">
                    <g id="Group-2">
                        <path d="M3.40595745,0 C1.53361702,0 0.00170212766,1.53191489 0.00170212766,3.40425532 L0.00170212766,51.0638298 C0.00170212766,52.9361702 1.53361702,54.4680851 3.40595745,54.4680851 L35.746383,54.4680851 C37.6195745,54.4680851 39.1506383,52.9361702 39.1506383,51.0638298 L39.1506383,13.6170213 L25.533617,0 L3.40595745,0" id="Fill-12" fill="#E1E4E1"></path>
                        <path d="M28.9378723,13.6170213 L39.1506383,13.6170213 L25.533617,0 L25.533617,10.212766 C25.533617,12.0851064 27.0655319,13.6170213 28.9378723,13.6170213" id="Fill-13" fill="#697D85"></path>
                        <path d="M30.64,23.8297872 L8.51234043,23.8297872 C7.57276596,23.8297872 6.81021277,23.067234 6.81021277,22.1276596 C6.81021277,21.1880851 7.57276596,20.4255319 8.51234043,20.4255319 L30.64,20.4255319 C31.5804255,20.4255319 32.3421277,21.1880851 32.3421277,22.1276596 C32.3421277,23.067234 31.5804255,23.8297872 30.64,23.8297872" id="Fill-14" fill="#C5CCCD"></path>
                        <path d="M17.0229787,16.1702128 L8.51234043,16.1702128 C7.57276596,16.1702128 6.81021277,15.4076596 6.81021277,14.4680851 C6.81021277,13.5285106 7.57276596,12.7659574 8.51234043,12.7659574 L17.0229787,12.7659574 C17.9634043,12.7659574 18.7251064,13.5285106 18.7251064,14.4680851 C18.7251064,15.4076596 17.9634043,16.1702128 17.0229787,16.1702128" id="Fill-15" fill="#C5CCCD"></path>
                        <path d="M17.0229787,9.36170213 L8.51234043,9.36170213 C7.57276596,9.36170213 6.81021277,8.59914894 6.81021277,7.65957447 C6.81021277,6.72 7.57276596,5.95744681 8.51234043,5.95744681 L17.0229787,5.95744681 C17.9634043,5.95744681 18.7251064,6.72 18.7251064,7.65957447 C18.7251064,8.59914894 17.9634043,9.36170213 17.0229787,9.36170213" id="Fill-16" fill="#C5CCCD"></path>
                        <path d="M30.64,31.4893617 L8.51234043,31.4893617 C7.57276596,31.4893617 6.81021277,30.7268085 6.81021277,29.787234 C6.81021277,28.8476596 7.57276596,28.0851064 8.51234043,28.0851064 L30.64,28.0851064 C31.5804255,28.0851064 32.3421277,28.8476596 32.3421277,29.787234 C32.3421277,30.7268085 31.5804255,31.4893617 30.64,31.4893617" id="Fill-17" fill="#C5CCCD"></path>
                        <path d="M30.64,39.1489362 L8.51234043,39.1489362 C7.57276596,39.1489362 6.81021277,38.386383 6.81021277,37.4468085 C6.81021277,36.507234 7.57276596,35.7446809 8.51234043,35.7446809 L30.64,35.7446809 C31.5804255,35.7446809 32.3421277,36.507234 32.3421277,37.4468085 C32.3421277,38.386383 31.5804255,39.1489362 30.64,39.1489362" id="Fill-18" fill="#C5CCCD"></path>
                        <path d="M30.64,46.8085106 L8.51234043,46.8085106 C7.57276596,46.8085106 6.81021277,46.0459574 6.81021277,45.106383 C6.81021277,44.1668085 7.57276596,43.4042553 8.51234043,43.4042553 L30.64,43.4042553 C31.5804255,43.4042553 32.3421277,44.1668085 32.3421277,45.106383 C32.3421277,46.0459574 31.5804255,46.8085106 30.64,46.8085106" id="Fill-19" fill="#C5CCCD"></path>
                        <polyline id="Fill-20" fill="#C5CCCD" points="39.1506383 23.8297872 28.9378723 13.6170213 39.1506383 13.6170213 39.1506383 23.8297872"></polyline>
                    </g>
                </g>
                <g id="Sharepoint_32x" transform="translate(56.000000, 63.000000)">
                    <circle id="Oval" fill="#036C70" fill-rule="nonzero" cx="7.5" cy="4.75" r="4.75"></circle>
                    <circle id="Oval" fill="#1A9BA1" fill-rule="nonzero" cx="11.935" cy="8.94" r="4.065"></circle>
                    <circle id="Oval" fill="#37C6D0" fill-rule="nonzero" cx="8" cy="12.75" r="3.25"></circle>
                    <path d="M8.335,3.5 L2.915,3.5 C2.80634357,3.90781141 2.75088361,4.32796257 2.75,4.75 C2.75,7.37335256 4.87664744,9.5 7.5,9.5 C7.63656105,9.50759846 7.77343895,9.50759846 7.91,9.5 L7.91,9.5 C6.15031728,9.54874824 4.7493249,10.9896423 4.75,12.75 C4.75,12.835 4.75,12.915 4.75,13.0000188 L8.325,13.0000188 C8.50269653,13.001331 8.6736433,12.9320153 8.80023143,12.8073026 C8.92681957,12.6825898 8.99867885,12.5126966 9,12.335 L9,4.165 C8.99727769,3.79886419 8.70113581,3.50272231 8.335,3.5 Z" id="Path" fill="#000000" fill-rule="nonzero" opacity="0.1"></path>
                    <path d="M7.835,4 L2.835,4 C2.78636775,4.24728019 2.75794059,4.49810809 2.75,4.75 C2.75,7.37335256 4.87664744,9.5 7.5,9.5 C7.63656105,9.50759846 7.77343895,9.50759846 7.91,9.5 L7.91,9.5 C6.15031728,9.54874824 4.7493249,10.9896423 4.75,12.75 C4.74994592,13.0024063 4.77846075,13.2540077 4.835,13.5 L7.835,13.5 C8.20113581,13.4972777 8.49727769,13.2011358 8.5,12.835 L8.5,4.665 C8.49727769,4.29886419 8.20113581,4.00272231 7.835,4 Z" id="Path" fill="#000000" fill-rule="nonzero" opacity="0.2"></path>
                    <path d="M7.835,4 L2.835,4 C2.78636775,4.24728019 2.75794059,4.49810809 2.75,4.75 C2.75,7.37335256 4.87664744,9.5 7.5,9.5 C7.63656105,9.50759846 7.77343895,9.50759846 7.91,9.5 L7.91,9.5 C6.24496472,9.54379627 4.88254804,10.8392796 4.755,12.5 L7.83,12.5 C8.19808692,12.5 8.49725308,12.2030767 8.5,11.835 L8.5,4.665 C8.49727769,4.29886419 8.20113581,4.00272231 7.835,4 Z" id="Path" fill="#000000" fill-rule="nonzero" opacity="0.2"></path>
                    <path d="M7.335,4 L2.835,4 C2.78636775,4.24728019 2.75794059,4.49810809 2.75,4.75 C2.75,7.37335256 4.87664744,9.5 7.5,9.5 C7.63656105,9.50759846 7.77343895,9.50759846 7.91,9.5 L7.91,9.5 C6.24496472,9.54379627 4.88254804,10.8392796 4.755,12.5 L7.33,12.5 C7.69808692,12.5 7.99725308,12.2030767 8,11.835 L8,4.665 C7.99727769,4.29886419 7.70113581,4.00272231 7.335,4 Z" id="Path" fill="#000000" fill-rule="nonzero" opacity="0.2"></path>
                    <rect id="Back_Plate" fill="#038387" fill-rule="nonzero" x="0" y="4" width="8" height="8" rx="1.33"></rect>
                    <path d="M3,7.95 C2.82642289,7.83371836 2.68118135,7.6799332 2.575,7.5 C2.47112501,7.31020626 2.4193703,7.09628681 2.425,6.88 C2.41464403,6.58851073 2.51261145,6.30351459 2.7,6.08 C2.89476399,5.84708827 3.15123816,5.67379491 3.44,5.58 C3.76304169,5.47578675 4.10056813,5.42347016 4.44,5.425 C4.8890098,5.4101867 5.33721932,5.4727669 5.765,5.61 L5.765,6.55 C5.58037215,6.43483767 5.37746703,6.35198475 5.165,6.305 C4.94707299,6.2543039 4.72370642,6.23079163 4.5,6.235 C4.2513908,6.22591662 4.00429893,6.27739409 3.78,6.385 C3.61113439,6.46530183 3.50118729,6.63311583 3.495,6.82 C3.49370397,6.9334238 3.53676381,7.04286757 3.615,7.125 C3.70816573,7.22241719 3.81829637,7.30205011 3.94,7.36 C4.075,7.43 4.28,7.52 4.55,7.63 L4.64,7.665 C4.90708832,7.76935256 5.16470469,7.89648792 5.41,8.045 C5.59744262,8.15993859 5.75506141,8.31755738 5.87,8.505 C5.97500936,8.72077236 6.01991784,8.96085996 6,9.2 C6.01073217,9.49979113 5.91902991,9.79429646 5.74,10.035 C5.55882406,10.2546663 5.31717595,10.4163445 5.045,10.5 C4.7215444,10.6014059 4.38393653,10.6503591 4.045,10.645 C3.74504261,10.6463428 3.44555053,10.6212457 3.15,10.57 C2.89913968,10.5294653 2.65405277,10.4589609 2.42,10.36 L2.42,9.36 C2.64318154,9.51784104 2.89178717,9.63622467 3.155,9.71 C3.42837275,9.79745678 3.71302894,9.84461875 4,9.85 C4.25460058,9.8670272 4.50895627,9.81338756 4.735,9.695 C4.89188332,9.60444677 4.98752125,9.43612401 4.985,9.255 C4.98644122,9.12735738 4.93590188,9.00461899 4.845,8.915 C4.73429539,8.80573521 4.60579182,8.71612087 4.465,8.65 C4.3,8.57 4.06,8.46 3.745,8.33 C3.48458778,8.22855703 3.23500558,8.10125336 3,7.95 L3,7.95 Z" id="Path" fill="#FFFFFF" fill-rule="nonzero"></path>
                    <rect id="Rectangle" x="0" y="0" width="16" height="16"></rect>
                </g>
            </g>
        </g>
    </g>
</svg>