<?xml version="1.0" encoding="UTF-8"?>
<svg width="101px" height="101px" viewBox="0 0 101 101" version="1.1" xmlns="http://www.w3.org/2000/svg" xmlns:xlink="http://www.w3.org/1999/xlink">
    <!-- Generator: Sketch 63.1 (92452) - https://sketch.com -->
    <title>Customize and extend SharePoint/Developing-with-the-SharePoint-Framework-Extensions</title>
    <desc>Created with Sketch.</desc>
    <defs>
        <rect id="path-1" x="0" y="0" width="94.3396226" height="94.3396226" rx="47.1698113"></rect>
        <linearGradient x1="50%" y1="2.35050413%" x2="50%" y2="100%" id="linearGradient-3">
            <stop stop-color="#036C70" offset="0%"></stop>
            <stop stop-color="#0E4F51" offset="100%"></stop>
        </linearGradient>
        <linearGradient x1="77.8299825%" y1="11.1997378%" x2="-99.6885927%" y2="253.807911%" id="linearGradient-4">
            <stop stop-color="#FFFFFF" offset="0%"></stop>
            <stop stop-color="#000000" stop-opacity="0.5" offset="100%"></stop>
        </linearGradient>
        <rect id="path-5" x="0" y="0" width="94.3396226" height="94.3396226"></rect>
        <rect id="path-6" x="0" y="0" width="100" height="100" rx="50"></rect>
        <filter x="-0.5%" y="-0.5%" width="102.0%" height="102.0%" filterUnits="objectBoundingBox" id="filter-7">
            <feOffset dx="1" dy="1" in="SourceAlpha" result="shadowOffsetOuter1"></feOffset>
            <feMorphology radius="4" operator="erode" in="SourceAlpha" result="shadowInner"></feMorphology>
            <feOffset dx="1" dy="1" in="shadowInner" result="shadowInner"></feOffset>
            <feComposite in="shadowOffsetOuter1" in2="shadowInner" operator="out" result="shadowOffsetOuter1"></feComposite>
            <feColorMatrix values="0 0 0 0 0   0 0 0 0 0   0 0 0 0 0  0 0 0 0.15 0" type="matrix" in="shadowOffsetOuter1"></feColorMatrix>
        </filter>
        <path d="M50,2.83018868 C76.0511674,2.83018868 97.1698113,23.9488326 97.1698113,50 C97.1698113,76.0511674 76.0511674,97.1698113 50,97.1698113 C23.9488326,97.1698113 2.83018868,76.0511674 2.83018868,50 C2.83018868,23.9488326 23.9488326,2.83018868 50,2.83018868 Z M50,6.60377358 C26.032926,6.60377358 6.60377358,26.032926 6.60377358,50 C6.60377358,73.967074 26.032926,93.3962264 50,93.3962264 C73.967074,93.3962264 93.3962264,73.967074 93.3962264,50 C93.3962264,26.032926 73.967074,6.60377358 50,6.60377358 Z" id="path-8"></path>
        <filter x="-7.4%" y="-8.8%" width="114.8%" height="118.5%" filterUnits="objectBoundingBox" id="filter-10">
            <feOffset dx="0" dy="2" in="SourceAlpha" result="shadowOffsetOuter1"></feOffset>
            <feColorMatrix values="0 0 0 0 0   0 0 0 0 0   0 0 0 0 0  0 0 0 0.0964956975 0" type="matrix" in="shadowOffsetOuter1" result="shadowMatrixOuter1"></feColorMatrix>
            <feMerge>
                <feMergeNode in="shadowMatrixOuter1"></feMergeNode>
                <feMergeNode in="SourceGraphic"></feMergeNode>
            </feMerge>
        </filter>
        <circle id="path-11" cx="68" cy="66" r="15"></circle>
        <filter x="-3.3%" y="-3.3%" width="106.7%" height="113.3%" filterUnits="objectBoundingBox" id="filter-12">
            <feOffset dx="0" dy="2" in="SourceAlpha" result="shadowOffsetOuter1"></feOffset>
            <feColorMatrix values="0 0 0 0 0   0 0 0 0 0   0 0 0 0 0  0 0 0 0.1 0" type="matrix" in="shadowOffsetOuter1"></feColorMatrix>
        </filter>
        <path d="M61.6626142,61.7233983 L58,63.317971 L59.2707552,66.2927583 C59.2707552,66.2927583 60.5665949,68.0315665 61.1549392,67.1875319 C61.7427134,66.3434973 61.5722532,65.388578 62.3310577,65.4994626 C63.0895771,65.6100622 64.4110714,66.1126063 64.3603324,68.5848495 C64.3218505,70.4584866 63.2942434,69.9624987 62.7985405,69.6124567 C62.5163405,69.4132064 62.1600274,69.3222752 61.8279435,69.4177672 C61.407494,69.5389136 61.0175449,69.9337086 61.3598905,71.0915838 C61.9827259,73.196967 62.6306458,74.0663711 62.6306458,74.0663711 L65.8867779,72.9917306 C65.8867779,72.9917306 67.6489603,72.299628 67.9984322,73.4629192 C68.0887932,73.7645026 68.0297878,74.0900303 67.8818466,74.3679546 C67.5888146,74.9189573 67.156678,76.0845288 68.6751422,76.1880022 C70.6699257,76.3239713 71.1724698,75.0024771 71.1724698,75.0024771 C71.1724698,75.0024771 72.0418739,74.3545572 70.2682896,72.7012642 C70.2682896,72.7012642 69.4242549,72.1129199 71.444408,71.013195 L78,68.5295497 L77.2067044,65.4695323 C77.2067044,65.4695323 76.8654989,63.5599789 75.5186352,64.2934139 C75.5186352,64.2934139 73.7547425,66.8252326 72.6547326,64.8053646 C71.5547226,62.7854966 72.3386115,61.6598321 72.3386115,61.6598321 C72.3386115,61.6598321 72.4494962,60.9010276 74.0520502,61.5996864 C75.6548893,62.2986303 75.8760885,60.7810213 75.8760885,60.7810213 C75.8760885,60.7810213 75.4747374,57.1583142 73.0880093,57.5850348 C73.0880093,57.5850348 67.7683964,60.0937645 66.4471873,59.5915055 C66.4471873,59.5915055 65.4070379,59.284506 66.9751008,57.0337471 C66.9751008,57.0337471 67.1110699,55.0392486 63.9401679,56.5910636 C63.9401679,56.5910636 62.1164146,57.4097287 63.5228539,58.3900175 C63.5228539,58.3900175 65.3540185,60.3805253 63.3620854,61.0846001 C62.7911292,61.2864159 62.2178926,61.4813904 61.6626142,61.7233983" id="path-13"></path>
        <filter x="-2.5%" y="-2.5%" width="105.0%" height="105.0%" filterUnits="objectBoundingBox" id="filter-14">
            <feOffset dx="0" dy="1" in="SourceAlpha" result="shadowOffsetInner1"></feOffset>
            <feComposite in="shadowOffsetInner1" in2="SourceAlpha" operator="arithmetic" k2="-1" k3="1" result="shadowInnerInner1"></feComposite>
            <feColorMatrix values="0 0 0 0 0   0 0 0 0 0   0 0 0 0 0  0 0 0 0.1 0" type="matrix" in="shadowInnerInner1"></feColorMatrix>
        </filter>
    </defs>
    <g id="Badges" stroke="none" stroke-width="1" fill="none" fill-rule="evenodd">
        <g id="Customize-and-extend-SharePoint" transform="translate(-160.000000, -700.000000)">
            <g id="Customize-and-extend-SharePoint/Developing-with-the-SharePoint-Framework-Extensions" transform="translate(160.000000, 700.000000)">
                <g id="Badge-Plates/Circle">
                    <g id="BG" transform="translate(2.830189, 2.830189)">
                        <mask id="mask-2" fill="white">
                            <use xlink:href="#path-1"></use>
                        </mask>
                        <g></g>
                        <g id="Colors/Sharepoint/BG-Solid-1" mask="url(#mask-2)">
                            <rect id="Rectangle" fill="url(#linearGradient-3)" x="0" y="0" width="94.3396226" height="94.3396226"></rect>
                            <g id="Rectangle">
                                <use fill="#036C70" xlink:href="#path-5"></use>
                                <use fill-opacity="0.4" fill="url(#linearGradient-4)" xlink:href="#path-5"></use>
                            </g>
                        </g>
                    </g>
                    <g id="Border">
                        <g id="White-Border">
                            <use fill="black" fill-opacity="1" filter="url(#filter-7)" xlink:href="#path-6"></use>
                            <rect stroke="#F2F1F0" stroke-width="4" stroke-linejoin="square" x="2" y="2" width="96" height="96" rx="48"></rect>
                        </g>
                        <mask id="mask-9" fill="white">
                            <use xlink:href="#path-8"></use>
                        </mask>
                        <use id="Boarder" fill="#0078D4" fill-rule="nonzero" xlink:href="#path-8"></use>
                        <g id="Colors/Sharepoint/Border" mask="url(#mask-9)" fill="#036C70">
                            <g transform="translate(2.830189, 2.830189)" id="Rectangle">
                                <rect x="0" y="0" width="94.3396226" height="94.3396226"></rect>
                            </g>
                        </g>
                    </g>
                </g>
                <g id="Group-4" transform="translate(18.000000, 24.000000)">
                    <g id="Code" filter="url(#filter-10)">
                        <path d="M50.625,1.6875 L3.375,1.6875 C2.44434375,1.6875 1.6875,2.44434375 1.6875,3.375 L1.6875,42.1875 C1.6875,43.1173125 2.44434375,43.875 3.375,43.875 L50.625,43.875 C51.5548125,43.875 52.3125,43.1173125 52.3125,42.1875 L52.3125,3.375 C52.3125,2.44434375 51.5548125,1.6875 50.625,1.6875" id="Fill-1523" fill="#182A37"></path>
                        <path d="M50.625,0 L3.375,0 C1.51875,0 0,1.51875 0,3.375 L0,42.1875 C0,44.04375 1.51875,45.5625 3.375,45.5625 L50.625,45.5625 C52.48125,45.5625 54,44.04375 54,42.1875 L54,3.375 C54,1.51875 52.48125,0 50.625,0 Z M50.625,1.6875 C51.5548125,1.6875 52.3125,2.44434375 52.3125,3.375 L52.3125,42.1875 C52.3125,43.1173125 51.5548125,43.875 50.625,43.875 L3.375,43.875 C2.44434375,43.875 1.6875,43.1173125 1.6875,42.1875 L1.6875,3.375 C1.6875,2.44434375 2.44434375,1.6875 3.375,1.6875 L50.625,1.6875 L50.625,1.6875 Z" id="Fill-1524" fill="#384B58"></path>
                        <polygon id="Fill-1525" fill="#384B58" points="9.28125 43.875 10.96875 43.875 10.96875 1.6875 9.28125 1.6875"></polygon>
                        <path d="M7.59375,16.03125 C7.59375,16.96275 6.83775,17.71875 5.90625,17.71875 C4.97390625,17.71875 4.21875,16.96275 4.21875,16.03125 C4.21875,15.0989062 4.97390625,14.34375 5.90625,14.34375 C6.83775,14.34375 7.59375,15.0989062 7.59375,16.03125" id="Fill-1526" fill="#E1E4E1"></path>
                        <path d="M7.59375,21.9375 C7.59375,22.869 6.83775,23.625 5.90625,23.625 C4.97390625,23.625 4.21875,22.869 4.21875,21.9375 C4.21875,21.0051562 4.97390625,20.25 5.90625,20.25 C6.83775,20.25 7.59375,21.0051562 7.59375,21.9375" id="Fill-1527" fill="#E1E4E1"></path>
                        <path d="M7.59375,27.84375 C7.59375,28.77525 6.83775,29.53125 5.90625,29.53125 C4.97390625,29.53125 4.21875,28.77525 4.21875,27.84375 C4.21875,26.9114062 4.97390625,26.15625 5.90625,26.15625 C6.83775,26.15625 7.59375,26.9114062 7.59375,27.84375" id="Fill-1528" fill="#E1E4E1"></path>
                        <path d="M7.59375,33.75 C7.59375,34.6815 6.83775,35.4375 5.90625,35.4375 C4.97390625,35.4375 4.21875,34.6815 4.21875,33.75 C4.21875,32.8176562 4.97390625,32.0625 5.90625,32.0625 C6.83775,32.0625 7.59375,32.8176562 7.59375,33.75" id="Fill-1529" fill="#E1E4E1"></path>
                        <path d="M7.59375,39.65625 C7.59375,40.58775 6.83775,41.34375 5.90625,41.34375 C4.97390625,41.34375 4.21875,40.58775 4.21875,39.65625 C4.21875,38.7239062 4.97390625,37.96875 5.90625,37.96875 C6.83775,37.96875 7.59375,38.7239062 7.59375,39.65625" id="Fill-1530" fill="#E1E4E1"></path>
                        <path d="M23.625,40.5 L14.34375,40.5 C13.8771563,40.5 13.5,40.1228438 13.5,39.65625 C13.5,39.1896562 13.8771563,38.8125 14.34375,38.8125 L23.625,38.8125 C24.0915937,38.8125 24.46875,39.1896562 24.46875,39.65625 C24.46875,40.1228438 24.0915937,40.5 23.625,40.5" id="Fill-1531" fill="#FFFFFE"></path>
                        <path d="M32.0625,40.5 L27,40.5 C26.5334063,40.5 26.15625,40.1228438 26.15625,39.65625 C26.15625,39.1896562 26.5334063,38.8125 27,38.8125 L32.0625,38.8125 C32.5290938,38.8125 32.90625,39.1896562 32.90625,39.65625 C32.90625,40.1228438 32.5290938,40.5 32.0625,40.5" id="Fill-1532" fill="#55B7D9"></path>
                        <path d="M17.71875,34.59375 L14.34375,34.59375 C13.8771563,34.59375 13.5,34.2165938 13.5,33.75 C13.5,33.2834062 13.8771563,32.90625 14.34375,32.90625 L17.71875,32.90625 C18.1853437,32.90625 18.5625,33.2834062 18.5625,33.75 C18.5625,34.2165938 18.1853437,34.59375 17.71875,34.59375" id="Fill-1533" fill="#EFB252"></path>
                        <path d="M23.625,28.6875 L14.34375,28.6875 C13.8771563,28.6875 13.5,28.3103437 13.5,27.84375 C13.5,27.3771563 13.8771563,27 14.34375,27 L23.625,27 C24.0915937,27 24.46875,27.3771563 24.46875,27.84375 C24.46875,28.3103437 24.0915937,28.6875 23.625,28.6875" id="Fill-1534" fill="#FFFFFE"></path>
                        <path d="M36.28125,28.6875 L27,28.6875 C26.5334063,28.6875 26.15625,28.3103437 26.15625,27.84375 C26.15625,27.3771563 26.5334063,27 27,27 L36.28125,27 C36.7478438,27 37.125,27.3771563 37.125,27.84375 C37.125,28.3103437 36.7478438,28.6875 36.28125,28.6875" id="Fill-1535" fill="#FFFFFE"></path>
                        <path d="M42.1875,28.6875 L39.65625,28.6875 C39.1896562,28.6875 38.8125,28.3103437 38.8125,27.84375 C38.8125,27.3771563 39.1896562,27 39.65625,27 L42.1875,27 C42.6540938,27 43.03125,27.3771563 43.03125,27.84375 C43.03125,28.3103437 42.6540938,28.6875 42.1875,28.6875" id="Fill-1536" fill="#DF5142"></path>
                        <path d="M30.375,34.59375 L21.09375,34.59375 C20.6271563,34.59375 20.25,34.2165938 20.25,33.75 C20.25,33.2834062 20.6271563,32.90625 21.09375,32.90625 L30.375,32.90625 C30.8415937,32.90625 31.21875,33.2834062 31.21875,33.75 C31.21875,34.2165938 30.8415937,34.59375 30.375,34.59375" id="Fill-1537" fill="#DF5142"></path>
                        <path d="M30.375,22.78125 L27,22.78125 C26.5334063,22.78125 26.15625,22.4040937 26.15625,21.9375 C26.15625,21.4709063 26.5334063,21.09375 27,21.09375 L30.375,21.09375 C30.8415937,21.09375 31.21875,21.4709063 31.21875,21.9375 C31.21875,22.4040937 30.8415937,22.78125 30.375,22.78125" id="Fill-1538" fill="#EFB252"></path>
                        <path d="M23.625,22.78125 L14.34375,22.78125 C13.8771563,22.78125 13.5,22.4040937 13.5,21.9375 C13.5,21.4709063 13.8771563,21.09375 14.34375,21.09375 L23.625,21.09375 C24.0915937,21.09375 24.46875,21.4709063 24.46875,21.9375 C24.46875,22.4040937 24.0915937,22.78125 23.625,22.78125" id="Fill-1539" fill="#55B7D9"></path>
                        <path d="M23.625,16.875 L14.34375,16.875 C13.8771563,16.875 13.5,16.4978437 13.5,16.03125 C13.5,15.5646563 13.8771563,15.1875 14.34375,15.1875 L23.625,15.1875 C24.0915937,15.1875 24.46875,15.5646563 24.46875,16.03125 C24.46875,16.4978437 24.0915937,16.875 23.625,16.875" id="Fill-1540" fill="#FFFFFE"></path>
                        <path d="M14.34375,10.96875 C14.12775,10.96875 13.91175,10.8860625 13.7472187,10.7215312 C13.4173125,10.391625 13.4173125,9.858375 13.7472187,9.52846875 L15.6819375,7.59375 L13.7472187,5.65903125 C13.4173125,5.329125 13.4173125,4.795875 13.7472187,4.46596875 C14.077125,4.1360625 14.610375,4.1360625 14.9402812,4.46596875 L17.4715312,6.99721875 C17.8014375,7.327125 17.8014375,7.860375 17.4715312,8.19028125 L14.9402812,10.7215312 C14.77575,10.8860625 14.55975,10.96875 14.34375,10.96875" id="Fill-1541" fill="#697D85"></path>
                        <path d="M22.78125,10.96875 L19.40625,10.96875 C18.9396563,10.96875 18.5625,10.5915937 18.5625,10.125 C18.5625,9.65840625 18.9396563,9.28125 19.40625,9.28125 L22.78125,9.28125 C23.2478437,9.28125 23.625,9.65840625 23.625,10.125 C23.625,10.5915937 23.2478437,10.96875 22.78125,10.96875" id="Fill-1542" fill="#697D85"></path>
                    </g>
                    <g id="Group-3" transform="translate(34.000000, 4.000000)">
                        <circle id="Oval" fill="#FFFFFF" cx="8" cy="8" r="8"></circle>
                        <g id="Sharepoint_32x" transform="translate(2.666667, 2.666667)">
                            <circle id="Oval" fill="#036C70" fill-rule="nonzero" cx="5" cy="3.16666667" r="3.16666667"></circle>
                            <circle id="Oval" fill="#1A9BA1" fill-rule="nonzero" cx="7.95666667" cy="5.96" r="2.71"></circle>
                            <circle id="Oval" fill="#37C6D0" fill-rule="nonzero" cx="5.33333333" cy="8.5" r="2.16666667"></circle>
                            <path d="M5.55666667,2.33333333 L1.94333333,2.33333333 C1.87089571,2.60520761 1.83392241,2.88530838 1.83333333,3.16666667 C1.83333333,4.91556837 3.25109829,6.33333333 5,6.33333333 C5.0910407,6.33839897 5.18229263,6.33839897 5.27333333,6.33333333 L5.27333333,6.33333333 C4.10021152,6.36583216 3.1662166,7.3264282 3.16666667,8.5 C3.16666667,8.55666667 3.16666667,8.61 3.16666667,8.66667921 L5.55,8.66667921 C5.66846435,8.66755403 5.78242886,8.62134356 5.86682096,8.53820172 C5.95121305,8.45505988 5.99911924,8.34179773 6,8.22333333 L6,2.77666667 C5.99818513,2.53257613 5.80075721,2.33514821 5.55666667,2.33333333 Z" id="Path" fill="#000000" fill-rule="nonzero" opacity="0.1"></path>
                            <path d="M5.22333333,2.66666667 L1.89,2.66666667 C1.8575785,2.83152012 1.83862706,2.99873873 1.83333333,3.16666667 C1.83333333,4.91556837 3.25109829,6.33333333 5,6.33333333 C5.0910407,6.33839897 5.18229263,6.33839897 5.27333333,6.33333333 L5.27333333,6.33333333 C4.10021152,6.36583216 3.1662166,7.3264282 3.16666667,8.5 C3.16663061,8.66827084 3.1856405,8.8360051 3.22333333,9 L5.22333333,9 C5.46742387,8.99818513 5.66485179,8.80075721 5.66666667,8.55666667 L5.66666667,3.11 C5.66485179,2.86590946 5.46742387,2.66848154 5.22333333,2.66666667 Z" id="Path" fill="#000000" fill-rule="nonzero" opacity="0.2"></path>
                            <path d="M5.22333333,2.66666667 L1.89,2.66666667 C1.8575785,2.83152012 1.83862706,2.99873873 1.83333333,3.16666667 C1.83333333,4.91556837 3.25109829,6.33333333 5,6.33333333 C5.0910407,6.33839897 5.18229263,6.33839897 5.27333333,6.33333333 L5.27333333,6.33333333 C4.16330981,6.36253085 3.25503203,7.22618643 3.17,8.33333333 L5.22,8.33333333 C5.46539128,8.33333333 5.66483539,8.13538445 5.66666667,7.89 L5.66666667,3.11 C5.66485179,2.86590946 5.46742387,2.66848154 5.22333333,2.66666667 Z" id="Path" fill="#000000" fill-rule="nonzero" opacity="0.2"></path>
                            <path d="M4.89,2.66666667 L1.89,2.66666667 C1.8575785,2.83152012 1.83862706,2.99873873 1.83333333,3.16666667 C1.83333333,4.91556837 3.25109829,6.33333333 5,6.33333333 C5.0910407,6.33839897 5.18229263,6.33839897 5.27333333,6.33333333 L5.27333333,6.33333333 C4.16330981,6.36253085 3.25503203,7.22618643 3.17,8.33333333 L4.88666667,8.33333333 C5.13205795,8.33333333 5.33150206,8.13538445 5.33333333,7.89 L5.33333333,3.11 C5.33151846,2.86590946 5.13409054,2.66848154 4.89,2.66666667 Z" id="Path" fill="#000000" fill-rule="nonzero" opacity="0.2"></path>
                            <rect id="Back_Plate" fill="#038387" fill-rule="nonzero" x="0" y="2.66666667" width="5.33333333" height="5.33333333" rx="1.33"></rect>
                            <path d="M2,5.3 C1.88428192,5.2224789 1.78745423,5.11995547 1.71666667,5 C1.64741667,4.87347084 1.61291354,4.73085787 1.61666667,4.58666667 C1.60976268,4.39234049 1.6750743,4.20234306 1.8,4.05333333 C1.92984266,3.89805885 2.10082544,3.78252994 2.29333333,3.72 C2.50869446,3.6505245 2.73371208,3.61564677 2.96,3.61666667 C3.25933986,3.60679113 3.55814622,3.64851127 3.84333333,3.74 L3.84333333,4.36666667 C3.7202481,4.28989178 3.58497802,4.2346565 3.44333333,4.20333333 C3.29804866,4.16953594 3.14913761,4.15386109 3,4.15666667 C2.83426053,4.15061108 2.66953262,4.18492939 2.52,4.25666667 C2.40742293,4.31020122 2.33412486,4.42207722 2.33,4.54666667 C2.32913598,4.62228253 2.35784254,4.69524504 2.41,4.75 C2.47211049,4.81494479 2.54553092,4.86803341 2.62666667,4.90666667 C2.71666667,4.95333333 2.85333333,5.01333333 3.03333333,5.08666667 L3.09333333,5.11 C3.27139221,5.17956838 3.44313646,5.26432528 3.60666667,5.36333333 C3.73162841,5.43995906 3.83670761,5.54503825 3.91333333,5.67 C3.98333958,5.81384824 4.01327856,5.97390664 4,6.13333333 C4.00715478,6.33319409 3.94601994,6.52953097 3.82666667,6.69 C3.70588271,6.83644418 3.54478397,6.94422967 3.36333333,7 C3.14769627,7.06760395 2.92262435,7.10023938 2.69666667,7.09666667 C2.49669507,7.09756188 2.29703368,7.08083048 2.1,7.04666667 C1.93275979,7.01964356 1.76936852,6.97264059 1.61333333,6.90666667 L1.61333333,6.24 C1.76212102,6.34522736 1.92785811,6.42414978 2.10333333,6.47333333 C2.28558183,6.53163785 2.47535263,6.56307917 2.66666667,6.56666667 C2.83640039,6.57801813 3.00597085,6.54225838 3.15666667,6.46333333 C3.26125555,6.40296451 3.32501417,6.29074934 3.32333333,6.17 C3.32429415,6.08490492 3.29060126,6.00307933 3.23,5.94333333 C3.15619693,5.87049014 3.07052788,5.81074725 2.97666667,5.76666667 C2.86666667,5.71333333 2.70666667,5.64 2.49666667,5.55333333 C2.32305852,5.48570469 2.15667039,5.40083557 2,5.3 L2,5.3 Z" id="Path" fill="#FFFFFF" fill-rule="nonzero"></path>
                            <rect id="Rectangle" x="0" y="0" width="10.6666667" height="10.6666667"></rect>
                        </g>
                    </g>
                </g>
                <g id="Oval">
                    <use fill="black" fill-opacity="1" filter="url(#filter-12)" xlink:href="#path-11"></use>
                    <use fill="#35BFC9" fill-rule="evenodd" xlink:href="#path-11"></use>
                </g>
                <g id="Fill-2681">
                    <use fill="#FFFFFF" fill-rule="evenodd" xlink:href="#path-13"></use>
                    <use fill="black" fill-opacity="1" filter="url(#filter-14)" xlink:href="#path-13"></use>
                </g>
            </g>
        </g>
    </g>
</svg>