<svg width="100" height="100" viewBox="0 0 100 100" fill="none" xmlns="http://www.w3.org/2000/svg">
<g clip-path="url(#clip0_939_379)">
<path d="M49.6401 96.45C40.382 96.45 31.3317 93.7047 23.6339 88.5611C15.936 83.4176 9.93624 76.1068 6.3933 67.5534C2.85036 59 1.92337 49.5881 3.72954 40.5078C5.53571 31.4276 9.99394 23.0868 16.5404 16.5403C23.0869 9.99384 31.4277 5.53562 40.5079 3.72945C49.5882 1.92327 59.0001 2.85027 67.5535 6.39321C76.1069 9.93614 83.4176 15.9359 88.5612 23.6338C93.7047 31.3316 96.4501 40.3819 96.4501 49.64C96.4505 55.7873 95.24 61.8745 92.8878 67.5539C90.5355 73.2334 87.0875 78.3938 82.7407 82.7406C78.3939 87.0874 73.2335 90.5354 67.554 92.8877C61.8746 95.2399 55.7874 96.4504 49.6401 96.45V96.45Z" fill="url(#paint0_linear_939_379)"/>
<path fill-rule="evenodd" clip-rule="evenodd" d="M95.54 49.64C95.54 58.7182 92.848 67.5925 87.8045 75.1407C82.7609 82.6889 75.5923 88.572 67.2052 92.0461C58.818 95.5201 49.5891 96.4291 40.6854 94.658C31.7816 92.887 23.603 88.5154 17.1838 82.0962C10.7646 75.677 6.39302 67.4984 4.62196 58.5946C2.85089 49.6909 3.75987 40.462 7.23393 32.0748C10.708 23.6877 16.5911 16.5191 24.1393 11.4755C31.6875 6.43199 40.5618 3.74 49.64 3.74C55.6677 3.73998 61.6363 4.9272 67.2052 7.23388C72.774 9.54057 77.834 12.9215 82.0963 17.1837C86.3585 21.446 89.7394 26.5059 92.0461 32.0748C94.3528 37.6437 95.54 43.6123 95.54 49.64V49.64ZM49.64 3.62732e-07C59.4579 3.62732e-07 69.0553 2.91134 77.2185 8.36585C85.3818 13.8204 91.7442 21.5731 95.5014 30.6436C99.2585 39.7141 100.242 49.6951 98.3262 59.3243C96.4108 68.9535 91.6831 77.7985 84.7408 84.7408C77.7985 91.6831 68.9535 96.4108 59.3243 98.3262C49.6951 100.242 39.7141 99.2585 30.6436 95.5014C21.5731 91.7442 13.8204 85.3818 8.36585 77.2185C2.91134 69.0553 3.62732e-07 59.4579 3.62732e-07 49.64C-0.000787738 43.121 1.28265 36.6656 3.77702 30.6427C6.27138 24.6197 9.9278 19.1471 14.5375 14.5375C19.1471 9.9278 24.6197 6.27138 30.6427 3.77702C36.6656 1.28265 43.121 -0.000787738 49.64 3.62732e-07V3.62732e-07Z" fill="#F2F1F0"/>
<path fill-rule="evenodd" clip-rule="evenodd" d="M92.7296 49.6401C92.7296 58.1625 90.2024 66.4935 85.4676 73.5796C80.7328 80.6657 74.0031 86.1887 66.1294 89.4501C58.2557 92.7114 49.5918 93.5648 41.2331 91.9021C32.8745 90.2395 25.1966 86.1356 19.1703 80.1093C13.1441 74.0831 9.04017 66.4052 7.37753 58.0465C5.7149 49.6879 6.56822 41.0239 9.8296 33.1503C13.091 25.2766 18.6139 18.5469 25.7 13.8121C32.7862 9.07727 41.1172 6.55009 49.6396 6.55009C55.2983 6.54974 60.9017 7.66407 66.1298 9.82942C71.3579 11.9948 76.1082 15.1687 80.1096 19.1701C84.1109 23.1714 87.2849 27.9218 89.4502 33.1499C91.6156 38.3779 92.7299 43.9813 92.7296 49.6401V49.6401ZM49.6396 2.81009C58.9017 2.81009 67.9558 5.55662 75.6569 10.7024C83.3581 15.8481 89.3604 23.162 92.9049 31.719C96.4493 40.2761 97.3767 49.692 95.5697 58.7762C93.7628 67.8603 89.3027 76.2046 82.7534 82.7539C76.2041 89.3032 67.8598 93.7633 58.7757 95.5703C49.6915 97.3772 40.2756 96.4498 31.7185 92.9054C23.1614 89.3609 15.8476 83.3586 10.7018 75.6574C5.5561 67.9563 2.80957 58.9022 2.80957 49.6401C2.81076 37.2204 7.745 25.3097 16.5271 16.5276C25.3091 7.7455 37.2198 2.81125 49.6396 2.81006V2.81009Z" fill="#0078D4"/>
<path fill-rule="evenodd" clip-rule="evenodd" d="M92.7637 49.6401C92.7637 58.1625 90.2366 66.4935 85.5018 73.5796C80.767 80.6657 74.0372 86.1887 66.1636 89.4501C58.2899 92.7114 49.6259 93.5648 41.2673 91.9021C32.9087 90.2395 25.2308 86.1356 19.2045 80.1093C13.1783 74.0831 9.07435 66.4052 7.41171 58.0465C5.74908 49.6879 6.6024 41.0239 9.86378 33.1503C13.1252 25.2766 18.6481 18.5469 25.7342 13.8121C32.8203 9.07727 41.1514 6.55009 49.6738 6.55009C55.3325 6.54974 60.9359 7.66407 66.164 9.82942C71.3921 11.9948 76.1424 15.1687 80.1437 19.1701C84.1451 23.1714 87.3191 27.9218 89.4844 33.1499C91.6498 38.3779 92.7641 43.9813 92.7637 49.6401V49.6401ZM49.6738 2.81009C58.9359 2.81009 67.9899 5.55662 75.6911 10.7024C83.3923 15.8481 89.3946 23.162 92.939 31.719C96.4835 40.2761 97.4109 49.692 95.6039 58.7762C93.797 67.8603 89.3369 76.2046 82.7876 82.7539C76.2383 89.3032 67.894 93.7633 58.8098 95.5703C49.7257 97.3772 40.3097 96.4498 31.7527 92.9054C23.1956 89.3609 15.8818 83.3586 10.736 75.6574C5.59028 67.9563 2.84375 58.9022 2.84375 49.6401C2.84494 37.2204 7.77918 25.3097 16.5612 16.5276C25.3433 7.7455 37.254 2.81125 49.6738 2.81006V2.81009Z" fill="#0078D4"/>
<path d="M42.7629 29.7759H28.3599C27.5438 29.7783 26.7618 30.1035 26.1848 30.6806C25.6077 31.2577 25.2824 32.0397 25.28 32.8558V46.8887H74.5586V37.4757C74.5562 36.6596 74.231 35.8776 73.6539 35.3005C73.0768 34.7234 72.2948 34.3981 71.4787 34.3957H48.3794L45.6604 31.133C45.3064 30.7082 44.8634 30.3665 44.3627 30.132C43.862 29.8974 43.3158 29.7759 42.7629 29.7759V29.7759Z" fill="url(#paint1_linear_939_379)"/>
<path d="M56.9675 48.6578C64.3682 48.6578 70.3676 42.6584 70.3676 35.2577C70.3676 27.857 64.3682 21.8576 56.9675 21.8576C49.5668 21.8576 43.5674 27.857 43.5674 35.2577C43.5674 42.6584 49.5668 48.6578 56.9675 48.6578Z" fill="url(#paint2_linear_939_379)"/>
<path d="M56.9679 49.0053C54.2489 49.0053 51.5909 48.1991 49.3301 46.6886C47.0693 45.178 45.3071 43.031 44.2666 40.5189C43.226 38.0069 42.9537 35.2427 43.4841 32.5759C44.0145 29.9091 45.3238 27.4595 47.2464 25.5368C49.169 23.6142 51.6186 22.3048 54.2854 21.7743C56.9522 21.2438 59.7164 21.5161 62.2284 22.5566C64.7405 23.5971 66.8876 25.3591 68.3982 27.6199C69.9088 29.8807 70.7151 32.5387 70.7151 35.2577C70.7109 38.9024 69.2613 42.3967 66.6841 44.974C64.1069 47.5512 60.6127 49.001 56.9679 49.0053V49.0053ZM56.9679 22.2049C54.3863 22.2048 51.8626 22.9703 49.7161 24.4045C47.5695 25.8387 45.8964 27.8773 44.9084 30.2624C43.9205 32.6475 43.6619 35.272 44.1655 37.804C44.6691 40.336 45.9123 42.6618 47.7377 44.4873C49.5632 46.3128 51.889 47.556 54.421 48.0597C56.953 48.5634 59.5775 48.3049 61.9626 47.317C64.3477 46.329 66.3863 44.656 67.8206 42.5095C69.2548 40.363 70.0204 37.8393 70.0204 35.2577C70.0164 31.7972 68.6399 28.4795 66.193 26.0325C63.746 23.5855 60.4284 22.209 56.9679 22.2049Z" fill="#003067"/>
<path d="M60.6475 36.6334C60.8364 36.6334 61.0234 36.6706 61.1979 36.7429C61.3724 36.8152 61.531 36.9211 61.6645 37.0547C61.7981 37.1883 61.904 37.3468 61.9763 37.5213C62.0486 37.6958 62.0858 37.8828 62.0858 38.0717V38.659C62.0858 39.0257 61.9711 39.3832 61.758 39.6816C61.1933 40.3962 60.4599 40.9593 59.6238 41.3204C58.7876 41.6815 57.8749 41.8293 56.9675 41.7504C56.0604 41.8296 55.1479 41.6819 54.3121 41.3205C53.4764 40.9592 52.7436 40.3956 52.1799 39.6805C51.9676 39.3826 51.8535 39.0258 51.8535 38.66V38.0717C51.8535 37.8828 51.8907 37.6958 51.963 37.5213C52.0353 37.3468 52.1412 37.1882 52.2748 37.0547C52.4083 36.9211 52.5669 36.8152 52.7414 36.7429C52.9159 36.6706 53.1029 36.6334 53.2918 36.6334L60.6475 36.6334ZM56.9675 28.962C57.6 28.962 58.2182 29.1496 58.7441 29.5009C59.2699 29.8523 59.6798 30.3517 59.9218 30.936C60.1638 31.5203 60.2272 32.1632 60.1038 32.7835C59.9804 33.4038 59.6759 33.9736 59.2286 34.4208C58.7814 34.868 58.2117 35.1725 57.5914 35.2959C56.9711 35.4193 56.3282 35.356 55.7439 35.114C55.1596 34.8719 54.6601 34.4621 54.3088 33.9362C53.9574 33.4104 53.7699 32.7921 53.7699 32.1597C53.7699 31.3116 54.1068 30.4983 54.7064 29.8986C55.3061 29.2989 56.1194 28.962 56.9675 28.962L56.9675 28.962Z" fill="#003067"/>
<path opacity="0.2" d="M57.1545 35.2577C57.1538 32.856 56.583 30.4888 55.4893 28.3506C54.3955 26.2124 52.8098 24.3643 50.8627 22.9583C48.5685 24.0916 46.637 25.844 45.2864 28.0175C43.9359 30.191 43.2202 32.6988 43.2202 35.2577C43.2202 37.8166 43.9359 40.3245 45.2865 42.4979C46.637 44.6714 48.5686 46.4238 50.8628 47.5571C52.8099 46.151 54.3955 44.303 55.4893 42.1648C56.583 40.0266 57.1538 37.6594 57.1545 35.2577V35.2577Z" fill="#001834"/>
<path d="M41.9641 48.6578C49.3648 48.6578 55.3642 42.6584 55.3642 35.2577C55.3642 27.857 49.3648 21.8576 41.9641 21.8576C34.5634 21.8576 28.564 27.857 28.564 35.2577C28.564 42.6584 34.5634 48.6578 41.9641 48.6578Z" fill="url(#paint3_linear_939_379)" stroke="#1F56A3" stroke-width="0.8007" stroke-miterlimit="10"/>
<path d="M45.6441 36.6334C45.833 36.6334 46.02 36.6706 46.1945 36.7429C46.369 36.8152 46.5276 36.9211 46.6611 37.0547C46.7947 37.1882 46.9006 37.3468 46.9729 37.5213C47.0452 37.6958 47.0824 37.8828 47.0824 38.0717V38.659C47.0823 39.0257 46.9677 39.3832 46.7545 39.6816C46.1899 40.3962 45.4565 40.9593 44.6204 41.3204C43.7842 41.6815 42.8715 41.8293 41.9641 41.7504C41.057 41.8296 40.1445 41.6819 39.3087 41.3205C38.4729 40.9592 37.7402 40.3956 37.1765 39.6805C36.9642 39.3826 36.8501 39.0258 36.8501 38.66V38.0717C36.8501 37.8828 36.8873 37.6958 36.9596 37.5213C37.0318 37.3468 37.1378 37.1882 37.2713 37.0547C37.4049 36.9211 37.5634 36.8152 37.7379 36.7429C37.9124 36.6706 38.0995 36.6334 38.2883 36.6334L45.6441 36.6334ZM41.9641 28.962C42.5966 28.962 43.2148 29.1495 43.7407 29.5009C44.2665 29.8523 44.6764 30.3517 44.9184 30.936C45.1604 31.5203 45.2237 32.1632 45.1004 32.7835C44.977 33.4038 44.6724 33.9736 44.2252 34.4208C43.778 34.868 43.2083 35.1725 42.588 35.2959C41.9677 35.4193 41.3247 35.356 40.7404 35.114C40.1561 34.8719 39.6567 34.4621 39.3054 33.9362C38.954 33.4104 38.7664 32.7921 38.7664 32.1597C38.7664 31.3116 39.1033 30.4983 39.703 29.8986C40.3027 29.2989 41.116 28.962 41.9641 28.962L41.9641 28.962Z" fill="white"/>
<path opacity="0.3" d="M29.8569 37.773H69.9816C70.5827 37.773 71.1779 37.8914 71.7332 38.1214C72.2884 38.3514 72.793 38.6885 73.218 39.1135C73.643 39.5386 73.9802 40.0431 74.2102 40.5984C74.4402 41.1537 74.5586 41.7489 74.5586 42.3499V44.0786H25.28V42.3499C25.28 41.136 25.7623 39.9719 26.6206 39.1135C27.4789 38.2552 28.6431 37.773 29.8569 37.773V37.773Z" fill="#000C1A"/>
<path d="M74.5586 43.8829V64.4508C74.5586 65.4649 74.1557 66.4376 73.4386 67.1547C72.7214 67.8719 71.7488 68.2748 70.7346 68.2748H29.104C28.0898 68.2748 27.1172 67.8719 26.4001 67.1547C25.6829 66.4376 25.28 65.4649 25.28 64.4508V43.8829C25.28 42.8687 25.6829 41.896 26.4001 41.1789C27.1172 40.4617 28.0898 40.0589 29.104 40.0589H70.7346C71.7488 40.0589 72.7214 40.4617 73.4386 41.1789C74.1557 41.896 74.5586 42.8687 74.5586 43.8829V43.8829Z" fill="url(#paint4_linear_939_379)"/>
<path opacity="0.2" d="M66.7046 68.2748V67.8041C66.6904 66.8715 66.3658 65.9702 65.7822 65.2426C65.1986 64.5151 64.3892 64.0027 63.4819 63.7865L61.9614 63.4491L61.7651 62.974L62.6001 61.6625C63.0894 60.868 63.2999 59.9331 63.1982 59.0056C63.0965 58.0781 62.6884 57.2109 62.0386 56.5414L61.3726 55.8754C60.5856 55.1111 59.5291 54.6877 58.4321 54.6971C57.662 54.6913 56.9062 54.9052 56.2534 55.3138L54.9409 56.1493L54.4653 55.9535L54.1274 54.4339C53.9117 53.5265 53.3996 52.7168 52.6722 52.133C51.9448 51.5492 51.0435 51.2245 50.1108 51.2103H49.1694C48.2368 51.2247 47.3356 51.5494 46.608 52.1331C45.8805 52.7167 45.3681 53.5261 45.1518 54.4334L44.814 55.954L44.3403 56.1493L43.0288 55.3153C42.3757 54.9056 41.6191 54.6911 40.8481 54.6971C39.7509 54.6874 38.694 55.1106 37.9067 55.8749L37.2407 56.5409C36.5913 57.2105 36.1835 58.0773 36.0816 59.0045C35.9798 59.9317 36.1897 60.8664 36.6782 61.661L37.5142 62.9745L37.3188 63.4486L35.7983 63.7865C34.891 64.0026 34.0815 64.5149 33.4979 65.2425C32.9142 65.9701 32.5898 66.8714 32.5757 67.8041V68.2748L66.7046 68.2748Z" fill="#003067"/>
<path d="M44.932 68.2747C44.932 67.3437 45.2081 66.4335 45.7254 65.6593C46.2426 64.8852 46.9779 64.2818 47.8381 63.9255C48.6983 63.5692 49.6448 63.4759 50.558 63.6576C51.4712 63.8392 52.31 64.2876 52.9684 64.946C53.6268 65.6043 54.0751 66.4432 54.2568 67.3563C54.4384 68.2695 54.3452 69.2161 53.9889 70.0763C53.6326 70.9365 53.0292 71.6717 52.255 72.189C51.4808 72.7063 50.5707 72.9824 49.6396 72.9824C48.3915 72.9809 47.195 72.4844 46.3125 71.6019C45.4299 70.7194 44.9335 69.5228 44.932 68.2747V68.2747ZM36.2318 70.8103L38.4208 71.297C38.6474 71.3795 38.8323 71.548 38.9354 71.7659C38.9426 71.79 38.9512 71.8135 38.9613 71.8365L39.5653 73.3044C39.5756 73.3298 39.5874 73.3552 39.6001 73.3797C39.682 73.6048 39.6712 73.8532 39.57 74.0703L38.3658 75.9628C38.1194 76.3725 38.0143 76.8517 38.0664 77.327C38.1185 77.8022 38.3251 78.2472 38.6543 78.5938L39.3205 79.26C39.6702 79.5836 40.1147 79.7863 40.5884 79.8383C41.0621 79.8902 41.5399 79.7887 41.9516 79.5486L43.8445 78.3448C43.9651 78.2844 44.099 78.2553 44.2338 78.2601C44.3368 78.2563 44.4394 78.2748 44.5346 78.3142C44.5592 78.3273 44.5845 78.339 44.6104 78.3491L46.0778 78.9535C46.1009 78.9632 46.1244 78.9716 46.1484 78.9789C46.3664 79.0822 46.5348 79.2673 46.6173 79.4939L47.1036 81.6825C47.2192 82.1465 47.4838 82.5598 47.8568 82.859C48.2299 83.1583 48.6907 83.3269 49.1688 83.3391H50.1103C50.5883 83.3271 51.0491 83.1585 51.4221 82.8594C51.7951 82.5602 52.0596 82.147 52.1751 81.683L52.6619 79.493C52.7448 79.2668 52.9132 79.0823 53.1307 78.9789C53.1547 78.9719 53.1783 78.9629 53.2018 78.9535L54.6692 78.3491C54.6951 78.3389 54.7204 78.3273 54.745 78.3142C54.8402 78.2747 54.9428 78.2562 55.0458 78.2601C55.1807 78.2556 55.3147 78.2847 55.4356 78.3448L57.3276 79.5481C57.7392 79.7881 58.2171 79.8896 58.6907 79.8376C59.1644 79.7857 59.6088 79.583 59.9587 79.2595L60.6248 78.5938C60.9542 78.2472 61.1608 77.8021 61.2129 77.3267C61.265 76.8514 61.1598 76.3721 60.9134 75.9623L59.7092 74.0703C59.6084 73.8532 59.5976 73.6052 59.679 73.3801C59.6918 73.3551 59.704 73.3298 59.7144 73.3044L60.3184 71.8365C60.3278 71.8135 60.3367 71.7899 60.3442 71.7659C60.4473 71.5479 60.6322 71.3792 60.8588 71.2966L63.0474 70.8107C63.5114 70.6952 63.9248 70.4306 64.224 70.0575C64.5232 69.6845 64.6919 69.2236 64.704 68.7455V67.804C64.6919 67.326 64.5233 66.8653 64.2242 66.4923C63.925 66.1193 63.5118 65.8548 63.0478 65.7392L60.8583 65.2529C60.632 65.1701 60.4473 65.0015 60.3443 64.7836C60.3367 64.7596 60.3278 64.736 60.3184 64.713L59.7144 63.2451C59.704 63.2197 59.6922 63.1948 59.6791 63.1698C59.5976 62.9446 59.6086 62.6963 59.7097 62.4792L60.9134 60.5872C61.1599 60.1774 61.2652 59.6981 61.2131 59.2227C61.161 58.7474 60.9543 58.3022 60.6248 57.9557L59.9587 57.2895C59.6087 56.9661 59.1642 56.7636 58.6905 56.7116C58.2168 56.6597 57.7389 56.7611 57.3271 57.0009L55.4361 58.2047C55.3151 58.2649 55.181 58.2941 55.0459 58.2894C54.9429 58.2935 54.8402 58.2751 54.7451 58.2353C54.7201 58.223 54.6952 58.2108 54.6693 58.2005L53.2018 57.596C53.1783 57.5866 53.1548 57.5781 53.1307 57.5706C52.913 57.4672 52.7446 57.2824 52.6619 57.056L52.1751 54.867C52.0597 54.4029 51.7952 53.9896 51.4222 53.6903C51.0493 53.391 50.5884 53.2225 50.1103 53.2104H49.1688C48.6908 53.2226 48.23 53.3912 47.857 53.6905C47.4841 53.9897 47.2196 54.403 47.1041 54.867L46.6173 57.056C46.5347 57.2825 46.3662 57.4673 46.1484 57.5705C46.1244 57.5781 46.1009 57.5865 46.0778 57.596L44.6104 58.2004C44.5845 58.2108 44.5591 58.223 44.5346 58.2352C44.4396 58.2749 44.3372 58.2934 44.2343 58.2894C44.0993 58.2942 43.9653 58.265 43.8445 58.2047L41.952 57.0014C41.5404 56.7612 41.0625 56.6596 40.5887 56.7114C40.115 56.7633 39.6704 56.9659 39.3205 57.2895L38.6548 57.9552C38.3254 58.3018 38.1187 58.747 38.0665 59.2224C38.0143 59.6978 38.1194 60.1772 38.3658 60.5872L39.57 62.4792C39.6201 62.5866 39.6485 62.7029 39.6537 62.8213C39.6589 62.9397 39.6407 63.058 39.6001 63.1693C39.5874 63.1943 39.5756 63.2192 39.5653 63.2447L38.9613 64.713C38.9513 64.736 38.9426 64.7595 38.9354 64.7836C38.8321 65.0017 38.6471 65.1703 38.4204 65.2529L36.2323 65.7392C35.7682 65.8546 35.3547 66.119 35.0554 66.492C34.756 66.865 34.5873 67.3259 34.5752 67.804V68.7455C34.5873 69.2236 34.7559 69.6844 35.0551 70.0574C35.3544 70.4304 35.7678 70.6949 36.2318 70.8103H36.2318Z" fill="url(#paint5_linear_939_379)"/>
<path d="M44.9319 68.2747C44.9319 67.3437 45.208 66.4335 45.7253 65.6593C46.2425 64.8852 46.9778 64.2818 47.838 63.9255C48.6982 63.5692 49.6447 63.4759 50.5579 63.6576C51.4711 63.8392 52.3099 64.2876 52.9683 64.946C53.6267 65.6043 54.075 66.4432 54.2567 67.3563C54.4383 68.2695 54.3451 69.2161 53.9888 70.0763C53.6325 70.9365 53.0291 71.6717 52.2549 72.189C51.4807 72.7063 50.5706 72.9824 49.6395 72.9824C48.3914 72.9809 47.1949 72.4844 46.3124 71.6019C45.4298 70.7194 44.9334 69.5228 44.9319 68.2747V68.2747Z" fill="url(#paint6_linear_939_379)"/>
<path d="M44.932 68.2747C44.932 67.3437 45.2081 66.4335 45.7254 65.6593C46.2426 64.8852 46.9779 64.2818 47.8381 63.9255C48.6983 63.5692 49.6448 63.4759 50.558 63.6576C51.4712 63.8392 52.31 64.2876 52.9684 64.946C53.6268 65.6043 54.0751 66.4432 54.2568 67.3563C54.4384 68.2695 54.3452 69.2161 53.9889 70.0763C53.6326 70.9365 53.0292 71.6717 52.255 72.189C51.4808 72.7063 50.5707 72.9824 49.6396 72.9824C48.3915 72.9809 47.195 72.4844 46.3125 71.6019C45.4299 70.7194 44.9335 69.5228 44.932 68.2747V68.2747ZM36.2318 70.8103L38.4208 71.297C38.6474 71.3795 38.8323 71.548 38.9354 71.7659C38.9426 71.79 38.9512 71.8135 38.9613 71.8365L39.5653 73.3044C39.5756 73.3298 39.5874 73.3552 39.6001 73.3797C39.682 73.6048 39.6712 73.8532 39.57 74.0703L38.3658 75.9628C38.1194 76.3725 38.0143 76.8517 38.0664 77.327C38.1185 77.8022 38.3251 78.2472 38.6543 78.5938L39.3205 79.26C39.6702 79.5836 40.1147 79.7863 40.5884 79.8383C41.0621 79.8902 41.5399 79.7887 41.9516 79.5486L43.8445 78.3448C43.9651 78.2844 44.099 78.2553 44.2338 78.2601C44.3368 78.2563 44.4394 78.2748 44.5346 78.3142C44.5592 78.3273 44.5845 78.339 44.6104 78.3491L46.0778 78.9535C46.1009 78.9632 46.1244 78.9716 46.1484 78.9789C46.3664 79.0822 46.5348 79.2673 46.6173 79.4939L47.1036 81.6825C47.2192 82.1465 47.4838 82.5598 47.8568 82.859C48.2299 83.1583 48.6907 83.3269 49.1688 83.3391H50.1103C50.5883 83.3271 51.0491 83.1585 51.4221 82.8594C51.7951 82.5602 52.0596 82.147 52.1751 81.683L52.6619 79.493C52.7448 79.2668 52.9132 79.0823 53.1307 78.9789C53.1547 78.9719 53.1783 78.9629 53.2018 78.9535L54.6692 78.3491C54.6951 78.3389 54.7204 78.3273 54.745 78.3142C54.8402 78.2747 54.9428 78.2562 55.0458 78.2601C55.1807 78.2556 55.3147 78.2847 55.4356 78.3448L57.3276 79.5481C57.7392 79.7881 58.2171 79.8896 58.6907 79.8376C59.1644 79.7857 59.6088 79.583 59.9587 79.2595L60.6248 78.5938C60.9542 78.2472 61.1608 77.8021 61.2129 77.3267C61.265 76.8514 61.1598 76.3721 60.9134 75.9623L59.7092 74.0703C59.6084 73.8532 59.5976 73.6052 59.679 73.3801C59.6918 73.3551 59.704 73.3298 59.7144 73.3044L60.3184 71.8365C60.3278 71.8135 60.3367 71.7899 60.3442 71.7659C60.4473 71.5479 60.6322 71.3792 60.8588 71.2966L63.0474 70.8107C63.5114 70.6952 63.9248 70.4306 64.224 70.0575C64.5232 69.6845 64.6919 69.2236 64.704 68.7455V67.804C64.6919 67.326 64.5233 66.8653 64.2242 66.4923C63.925 66.1193 63.5118 65.8548 63.0478 65.7392L60.8583 65.2529C60.632 65.1701 60.4473 65.0015 60.3443 64.7836C60.3367 64.7596 60.3278 64.736 60.3184 64.713L59.7144 63.2451C59.704 63.2197 59.6922 63.1948 59.6791 63.1698C59.5976 62.9446 59.6086 62.6963 59.7097 62.4792L60.9134 60.5872C61.1599 60.1774 61.2652 59.6981 61.2131 59.2227C61.161 58.7474 60.9543 58.3022 60.6248 57.9557L59.9587 57.2895C59.6087 56.9661 59.1642 56.7636 58.6905 56.7116C58.2168 56.6597 57.7389 56.7611 57.3271 57.0009L55.4361 58.2047C55.3151 58.2649 55.181 58.2941 55.0459 58.2894C54.9429 58.2935 54.8402 58.2751 54.7451 58.2353C54.7201 58.223 54.6952 58.2108 54.6693 58.2005L53.2018 57.596C53.1783 57.5866 53.1548 57.5781 53.1307 57.5706C52.913 57.4672 52.7446 57.2824 52.6619 57.056L52.1751 54.867C52.0597 54.4029 51.7952 53.9896 51.4222 53.6903C51.0493 53.391 50.5884 53.2225 50.1103 53.2104H49.1688C48.6908 53.2226 48.23 53.3912 47.857 53.6905C47.4841 53.9897 47.2196 54.403 47.1041 54.867L46.6173 57.056C46.5347 57.2825 46.3662 57.4673 46.1484 57.5705C46.1244 57.5781 46.1009 57.5865 46.0778 57.596L44.6104 58.2004C44.5845 58.2108 44.5591 58.223 44.5346 58.2352C44.4396 58.2749 44.3372 58.2934 44.2343 58.2894C44.0993 58.2942 43.9653 58.265 43.8445 58.2047L41.952 57.0014C41.5404 56.7612 41.0625 56.6596 40.5887 56.7114C40.115 56.7633 39.6704 56.9659 39.3205 57.2895L38.6548 57.9552C38.3254 58.3018 38.1187 58.747 38.0665 59.2224C38.0143 59.6978 38.1194 60.1772 38.3658 60.5872L39.57 62.4792C39.6201 62.5866 39.6485 62.7029 39.6537 62.8213C39.6589 62.9397 39.6407 63.058 39.6001 63.1693C39.5874 63.1943 39.5756 63.2192 39.5653 63.2447L38.9613 64.713C38.9513 64.736 38.9426 64.7595 38.9354 64.7836C38.8321 65.0017 38.6471 65.1703 38.4204 65.2529L36.2323 65.7392C35.7682 65.8546 35.3547 66.119 35.0554 66.492C34.756 66.865 34.5873 67.3259 34.5752 67.804V68.7455C34.5873 69.2236 34.7559 69.6844 35.0551 70.0574C35.3544 70.4304 35.7678 70.6949 36.2318 70.8103H36.2318Z" fill="url(#paint7_linear_939_379)"/>
<path opacity="0.6" d="M44.9319 68.2747C44.9319 67.3437 45.208 66.4335 45.7253 65.6593C46.2425 64.8852 46.9778 64.2818 47.838 63.9255C48.6982 63.5692 49.6447 63.4759 50.5579 63.6576C51.4711 63.8392 52.3099 64.2876 52.9683 64.946C53.6267 65.6043 54.075 66.4432 54.2567 67.3563C54.4383 68.2695 54.3451 69.2161 53.9888 70.0763C53.6325 70.9365 53.0291 71.6717 52.2549 72.189C51.4807 72.7063 50.5706 72.9824 49.6395 72.9824C48.3914 72.9809 47.1949 72.4844 46.3124 71.6019C45.4298 70.7194 44.9334 69.5228 44.9319 68.2747V68.2747Z" fill="#0078D4"/>
</g>
<defs>
<linearGradient id="paint0_linear_939_379" x1="47.8697" y1="-15.1531" x2="51.8525" y2="130.615" gradientUnits="userSpaceOnUse">
<stop stop-color="#00ABDE"/>
<stop offset="1" stop-color="#007ED8"/>
</linearGradient>
<linearGradient id="paint1_linear_939_379" x1="49.9193" y1="29.7759" x2="49.9193" y2="46.9194" gradientUnits="userSpaceOnUse">
<stop stop-color="#005BA1"/>
<stop offset="0.26" stop-color="#00589D"/>
<stop offset="0.53" stop-color="#004F90"/>
<stop offset="0.8" stop-color="#003F7C"/>
<stop offset="1" stop-color="#003067"/>
</linearGradient>
<linearGradient id="paint2_linear_939_379" x1="56.9675" y1="48.6578" x2="56.9675" y2="21.8095" gradientUnits="userSpaceOnUse">
<stop stop-color="#003067"/>
<stop offset="0.2" stop-color="#003F7C"/>
<stop offset="0.47" stop-color="#004F90"/>
<stop offset="0.74" stop-color="#00589D"/>
<stop offset="1" stop-color="#005BA1"/>
</linearGradient>
<linearGradient id="paint3_linear_939_379" x1="41.9641" y1="48.6578" x2="41.9641" y2="21.8576" gradientUnits="userSpaceOnUse">
<stop stop-color="#004DAE"/>
<stop offset="0.21" stop-color="#0061C4"/>
<stop offset="0.51" stop-color="#0078DD"/>
<stop offset="0.78" stop-color="#0086EC"/>
<stop offset="1" stop-color="#008BF1"/>
</linearGradient>
<linearGradient id="paint4_linear_939_379" x1="49.9193" y1="40.0589" x2="49.9193" y2="68.2747" gradientUnits="userSpaceOnUse">
<stop stop-color="#008BF1"/>
<stop offset="0.22" stop-color="#0086EC"/>
<stop offset="0.49" stop-color="#0078DD"/>
<stop offset="0.79" stop-color="#0061C4"/>
<stop offset="1" stop-color="#004DAE"/>
</linearGradient>
<linearGradient id="paint5_linear_939_379" x1="49.6396" y1="54.2917" x2="49.6396" y2="82.6828" gradientUnits="userSpaceOnUse">
<stop stop-color="white"/>
<stop offset="0.56" stop-color="#FBFBFB"/>
<stop offset="1" stop-color="#F2F2F2"/>
</linearGradient>
<linearGradient id="paint6_linear_939_379" x1="49.6395" y1="54.2917" x2="49.6395" y2="82.6828" gradientUnits="userSpaceOnUse">
<stop stop-color="white"/>
<stop offset="0.56" stop-color="#FBFBFB"/>
<stop offset="1" stop-color="#F2F2F2"/>
</linearGradient>
<linearGradient id="paint7_linear_939_379" x1="49.6396" y1="54.2917" x2="49.6396" y2="82.6828" gradientUnits="userSpaceOnUse">
<stop stop-color="white"/>
<stop offset="0.56" stop-color="#FBFBFB"/>
<stop offset="1" stop-color="#F2F2F2"/>
</linearGradient>
<clipPath id="clip0_939_379">
<rect width="99.2799" height="99.28" fill="white"/>
</clipPath>
</defs>
</svg>
