<?xml version="1.0" encoding="UTF-8"?>
<svg width="101px" height="101px" viewBox="0 0 101 101" version="1.1" xmlns="http://www.w3.org/2000/svg" xmlns:xlink="http://www.w3.org/1999/xlink">
    <!-- Generator: Sketch 63.1 (92452) - https://sketch.com -->
    <title>Customize and extend SharePoint/Deploying-SharePoint-Framework-Components-to-Production</title>
    <desc>Created with Sketch.</desc>
    <defs>
        <rect id="path-1" x="0" y="0" width="94.3396226" height="94.3396226" rx="47.1698113"></rect>
        <linearGradient x1="50%" y1="2.35050413%" x2="50%" y2="100%" id="linearGradient-3">
            <stop stop-color="#036C70" offset="0%"></stop>
            <stop stop-color="#0E4F51" offset="100%"></stop>
        </linearGradient>
        <linearGradient x1="77.8299825%" y1="11.1997378%" x2="-99.6885927%" y2="253.807911%" id="linearGradient-4">
            <stop stop-color="#FFFFFF" offset="0%"></stop>
            <stop stop-color="#000000" stop-opacity="0.5" offset="100%"></stop>
        </linearGradient>
        <rect id="path-5" x="0" y="0" width="94.3396226" height="94.3396226"></rect>
        <rect id="path-6" x="0" y="0" width="100" height="100" rx="50"></rect>
        <filter x="-0.5%" y="-0.5%" width="102.0%" height="102.0%" filterUnits="objectBoundingBox" id="filter-7">
            <feOffset dx="1" dy="1" in="SourceAlpha" result="shadowOffsetOuter1"></feOffset>
            <feMorphology radius="4" operator="erode" in="SourceAlpha" result="shadowInner"></feMorphology>
            <feOffset dx="1" dy="1" in="shadowInner" result="shadowInner"></feOffset>
            <feComposite in="shadowOffsetOuter1" in2="shadowInner" operator="out" result="shadowOffsetOuter1"></feComposite>
            <feColorMatrix values="0 0 0 0 0   0 0 0 0 0   0 0 0 0 0  0 0 0 0.15 0" type="matrix" in="shadowOffsetOuter1"></feColorMatrix>
        </filter>
        <path d="M50,2.83018868 C76.0511674,2.83018868 97.1698113,23.9488326 97.1698113,50 C97.1698113,76.0511674 76.0511674,97.1698113 50,97.1698113 C23.9488326,97.1698113 2.83018868,76.0511674 2.83018868,50 C2.83018868,23.9488326 23.9488326,2.83018868 50,2.83018868 Z M50,6.60377358 C26.032926,6.60377358 6.60377358,26.032926 6.60377358,50 C6.60377358,73.967074 26.032926,93.3962264 50,93.3962264 C73.967074,93.3962264 93.3962264,73.967074 93.3962264,50 C93.3962264,26.032926 73.967074,6.60377358 50,6.60377358 Z" id="path-8"></path>
        <filter x="-5.9%" y="-4.7%" width="111.8%" height="109.4%" filterUnits="objectBoundingBox" id="filter-10">
            <feOffset dx="0" dy="2" in="SourceAlpha" result="shadowOffsetOuter1"></feOffset>
            <feColorMatrix values="0 0 0 0 0   0 0 0 0 0   0 0 0 0 0  0 0 0 0.1 0" type="matrix" in="shadowOffsetOuter1" result="shadowMatrixOuter1"></feColorMatrix>
            <feMerge>
                <feMergeNode in="shadowMatrixOuter1"></feMergeNode>
                <feMergeNode in="SourceGraphic"></feMergeNode>
            </feMerge>
        </filter>
        <path d="M0,8.83125714 L0,52.0522173 L11.8909834,52.1038961 L11.8909834,8.83125714 C11.8909834,5.29878961 8.6962374,0.407116883 5.84332831,0.407116883 C2.99085195,0.407116883 0,5.29878961 0,8.83125714 Z" id="path-11"></path>
        <path d="M38.2983065,28.597974 C38.0257855,28.8704951 37.6187216,29.0084821 37.3462182,29.0084821 C36.9391543,29.0084821 36.6666332,28.8739481 36.3941299,28.6014182 C35.5800021,27.7872904 34.900426,27.3802442 34.2208675,27.3802442 C33.5413091,27.3802442 32.8616623,27.7873081 32.0476052,28.6014182 C31.5025543,29.1464691 30.6884,29.1464691 30.1468727,28.6014182 C29.6018218,28.0563673 29.6018218,27.242213 30.1468727,26.7006857 C31.5060779,25.3414805 32.8651948,24.6619221 34.2244,24.6619221 C35.5836052,24.6619221 37.0773091,25.341507 38.3019273,26.7006857 C38.840081,27.2422836 38.840081,28.0564468 38.2984743,28.597974 L38.2983065,28.597974 Z" id="path-13"></path>
        <filter x="-5.6%" y="-11.5%" width="111.2%" height="123.0%" filterUnits="objectBoundingBox" id="filter-14">
            <feOffset dx="0" dy="1" in="SourceAlpha" result="shadowOffsetInner1"></feOffset>
            <feComposite in="shadowOffsetInner1" in2="SourceAlpha" operator="arithmetic" k2="-1" k3="1" result="shadowInnerInner1"></feComposite>
            <feColorMatrix values="0 0 0 0 0   0 0 0 0 0   0 0 0 0 0  0 0 0 0.1 0" type="matrix" in="shadowInnerInner1"></feColorMatrix>
        </filter>
    </defs>
    <g id="Badges" stroke="none" stroke-width="1" fill="none" fill-rule="evenodd">
        <g id="Customize-and-extend-SharePoint" transform="translate(-160.000000, -510.000000)">
            <g id="Customize-and-extend-SharePoint/Deploying-SharePoint-Framework-Components-to-Production" transform="translate(160.000000, 510.000000)">
                <g id="Badge-Plates/Circle">
                    <g id="BG" transform="translate(2.830189, 2.830189)">
                        <mask id="mask-2" fill="white">
                            <use xlink:href="#path-1"></use>
                        </mask>
                        <g></g>
                        <g id="Colors/Sharepoint/BG-Solid-1" mask="url(#mask-2)">
                            <rect id="Rectangle" fill="url(#linearGradient-3)" x="0" y="0" width="94.3396226" height="94.3396226"></rect>
                            <g id="Rectangle">
                                <use fill="#036C70" xlink:href="#path-5"></use>
                                <use fill-opacity="0.4" fill="url(#linearGradient-4)" xlink:href="#path-5"></use>
                            </g>
                        </g>
                    </g>
                    <g id="Border">
                        <g id="White-Border">
                            <use fill="black" fill-opacity="1" filter="url(#filter-7)" xlink:href="#path-6"></use>
                            <rect stroke="#F2F1F0" stroke-width="4" stroke-linejoin="square" x="2" y="2" width="96" height="96" rx="48"></rect>
                        </g>
                        <mask id="mask-9" fill="white">
                            <use xlink:href="#path-8"></use>
                        </mask>
                        <use id="Boarder" fill="#0078D4" fill-rule="nonzero" xlink:href="#path-8"></use>
                        <g id="Colors/Sharepoint/Border" mask="url(#mask-9)" fill="#036C70">
                            <g transform="translate(2.830189, 2.830189)" id="Rectangle">
                                <rect x="0" y="0" width="94.3396226" height="94.3396226"></rect>
                            </g>
                        </g>
                    </g>
                </g>
                <g id="rocket-ship" filter="url(#filter-10)" transform="translate(16.000000, 7.000000)">
                    <rect id="Rectangle" fill="#CCD7DC" x="25.3896104" y="9.02435065" width="17.6623377" height="61.625"></rect>
                    <path d="M40.5792208,74.2025065 C40.3125168,73.935863 40.1808757,73.6692109 40.1808757,73.2709523 L40.1808757,68.8831169 L28.4822279,68.8831169 L28.4822279,73.2709523 C28.4822279,73.5375958 28.3505954,73.8042478 28.2155844,73.9358803 L28.2155844,74.3341649 L28.2155844,74.4657974 C29.943725,77.9220786 32.8667021,81.911664 34.4632448,84.0379679 C35.9247333,82.0431755 38.8510802,78.1886443 40.5792208,74.8641338 L40.5792208,74.2025843 L40.5792208,74.2025843 L40.5792208,74.2025065 Z" id="Fill-1" fill="#DF5142"></path>
                    <path d="M37.7893702,73.3050844 L37.7893702,68.8831169 L30.6883117,68.9315282 L30.846557,73.3050844 C30.846557,73.4633297 30.7684369,73.6215801 30.6883117,73.6997002 L30.6883117,73.9360707 L30.6883117,74.0141908 C31.7139138,76.065395 33.4486171,78.4330999 34.3961196,79.6950006 C35.2634713,78.5111482 37.0001745,76.2235941 38.0257766,74.2505921 L38.0257766,73.8579814 C37.8674955,73.6996899 37.7893702,73.5414395 37.7893702,73.3050844 Z" id="Fill-1" fill="#C2423D"></path>
                    <path d="M28.3770182,27.3767117 L28.3770182,70.6493506 L40.2680016,70.6493506 L40.0641075,27.3767117 C40.0641075,23.8442442 37.0732556,18.9525714 34.2203465,18.9525714 C31.3678701,18.9525714 28.3770182,23.8442442 28.3770182,27.3767117 Z M38.2983065,28.597974 C38.0257855,28.8704951 37.6187216,29.0084821 37.3462182,29.0084821 C36.9391543,29.0084821 36.6666332,28.8739481 36.3941299,28.6014182 C35.5800021,27.7872904 34.900426,27.3802442 34.2208675,27.3802442 C33.5413091,27.3802442 32.8616623,27.7873081 32.0476052,28.6014182 C31.5025543,29.1464691 30.6884,29.1464691 30.1468727,28.6014182 C29.6018218,28.0563673 29.6018218,27.242213 30.1468727,26.7006857 C31.5060779,25.3414805 32.8651948,24.6619221 34.2244,24.6619221 C35.5836052,24.6619221 37.0773091,25.341507 38.3019273,26.7006857 C38.840081,27.2422836 38.840081,28.0564468 38.2984743,28.597974 L38.2983065,28.597974 Z" id="Fill-2" fill="#FFFFFF"></path>
                    <g id="Rectangle" transform="translate(28.377018, 18.545455)">
                        <mask id="mask-12" fill="white">
                            <use xlink:href="#path-11"></use>
                        </mask>
                        <g id="Mask"></g>
                        <path d="M5.84376104,-1.76623377 L14.6749299,-1.76623377 L14.6749299,52.1038961 L-1.07614927e-12,52.1006286 L-1.07614927e-12,50.3376623 C1.76379761,50.3376623 3.12750106,50.3376623 4.09111037,50.3376623 C5.53652433,50.3376623 5.84376104,49.7024909 5.84376104,47.3498123 C5.84376104,45.7813599 5.84376104,29.4093446 5.84376104,-1.76623377 Z" fill="#E4E8EA" mask="url(#mask-12)"></path>
                    </g>
                    <g id="Path">
                        <use fill="#ADBDC4" fill-rule="evenodd" xlink:href="#path-13"></use>
                        <use fill="black" fill-opacity="1" filter="url(#filter-14)" xlink:href="#path-13"></use>
                    </g>
                    <path d="M21.1948052,70.2077922 C21.4673262,71.0219112 22.2814805,72.3810537 23.2335688,73.7402589 C24.0476966,72.5190848 24.8653039,71.2944675 25.1343013,70.4803221 C25.1343013,70.3457881 25.1343013,70.3457881 24.9997673,70.2077922 L21.1948052,70.2077922 Z" id="Fill-4" fill="#DF5142"></path>
                    <path d="M21.8571429,70.6493506 C22.040416,71.1968538 22.5879429,72.1108908 23.2282319,73.0249699 C23.775741,72.2037181 24.3255901,71.3801507 24.5064935,70.8326297 C24.5064935,70.7421542 24.5064935,70.7421542 24.416018,70.6493506 L21.8571429,70.6493506 Z" id="Fill-4" fill="#C2423D"></path>
                    <path d="M-1.26439696e-12,68.8137039 L21.0606606,68.8137039 L21.0606606,62.8354442 C21.0606606,60.9347117 22.1473359,59.3029766 23.6410398,58.4888312 L23.6410398,48.5714286 L-1.26439696e-12,65.2817662 L-1.26439696e-12,68.8137039 Z" id="Fill-5" fill="#C5CFD4"></path>
                    <path d="M44.1558442,68.8137039 L65.2165048,68.8137039 L65.2165048,62.8354442 C65.2165048,60.9347117 66.3031801,59.3029766 67.796884,58.4888312 L67.796884,48.5714286 L44.1558442,65.2817662 L44.1558442,68.8137039 Z" id="Fill-5" fill="#C5CFD4" transform="translate(55.976364, 58.692566) scale(-1, 1) translate(-55.976364, -58.692566) "></path>
                    <path d="M43.0519922,70.6493506 C43.3245132,71.4634784 44.1386234,72.6535818 44.8181818,73.7402597 C45.7702701,72.3810519 46.5844156,71.0219377 46.8569455,70.2077922 L43.1899792,70.2077922 C43.1865262,70.4837662 43.0519922,69.7351834 43.0519922,69.8697262 L43.0519922,70.6493506 Z" id="Fill-6" fill="#DF5142"></path>
                    <path d="M1.56873072e-15,67.3152394 C10.0052083,67.3152394 16.0021814,67.3152394 17.9909192,67.3152394 C19.9796571,67.3152394 21.8571429,64.12377 23.6233766,57.7408312 L23.6233766,68.8137039 L1.56873072e-15,68.8831169 L1.56873072e-15,67.3152394 Z" id="Path-236" fill="#767D80"></path>
                    <path d="M44.1558442,67.2419407 C54.1610525,67.2419407 60.1580256,67.2419407 62.1467634,67.2419407 C64.1355012,67.2419407 66.012987,64.0504713 67.7792208,57.6675325 L67.7792208,68.8831169 L44.1558442,68.8098182 L44.1558442,67.2419407 Z" id="Path-236" fill="#767D80" transform="translate(55.967532, 63.275325) scale(-1, 1) translate(-55.967532, -63.275325) "></path>
                    <path d="M44.8181818,14.9441039 C44.8181818,9.10034286 39.9265091,-5.01993829e-14 34.2207792,-5.01993829e-14 C28.5150494,-5.01993829e-14 23.6233766,9.23828571 23.6233766,14.9441039 L23.6233766,57.7408312 C24.3029616,57.7408312 24.9187325,59.779586 25.4602597,60.0521158 L25.4602597,27.5799081 C25.4602597,23.0953522 29.1910753,16.4376223 34.0827481,16.4376223 C38.9744208,16.4376223 42.6987013,23.0955288 42.6987013,27.5799081 L42.6987013,59.4409901 C43.5162732,59.0339262 44.1385351,58.0128223 44.8181818,57.8782883 L44.8181818,14.9441039 Z" id="Fill-9" fill="#F0F6F8"></path>
                    <path d="M34.2207792,-3.13746143e-14 L34.2203766,16.44 L34.0827481,16.4376223 C29.273985,16.4376223 25.5870615,22.871579 25.4634625,27.3500499 L25.4602597,27.5799081 L25.4602597,60.8145419 C24.9187325,60.542012 24.3029616,57.7408312 23.6233766,57.7408312 L23.6233766,57.7408312 L23.6233766,14.9441039 C23.6233766,9.23828571 28.5150494,-3.13746143e-14 34.2207792,-3.13746143e-14 L34.2207792,-3.13746143e-14 Z" id="Combined-Shape" fill="#FFFFFF"></path>
                    <path d="M20.974026,58.8273299 L20.974026,70.6460831 L25.4585818,70.6460831 L25.4585818,58.8273299 C25.4585818,57.4715688 24.3719065,56.5194805 23.1507325,56.5194805 C21.8060137,56.5194805 20.974026,57.8752416 20.974026,58.8273299 Z" id="Fill-3" fill="#82959D"></path>
                    <path d="M42.6987013,58.7789186 L42.6987013,70.5976718 L47.1832571,70.5976718 L47.1832571,58.7789186 C47.1798042,57.6922433 46.5002192,56.8781861 45.5515221,56.6056563 C44.1924052,56.1985924 42.6987013,57.2852412 42.6987013,58.7789186 Z" id="Fill-7" fill="#82959D"></path>
                    <path d="M43.4935065,70.6493506 C43.6767796,71.1968538 44.2243066,72.1108908 44.8645955,73.0249699 C45.4121046,72.2037181 45.9619537,71.3801507 46.1428571,70.8326297 C46.1428571,70.7421542 46.1428571,70.7421542 46.0523817,70.6493506 L43.4935065,70.6493506 Z" id="Fill-4" fill="#C2423D"></path>
                    <path d="M25.4602597,58.4623377 C25.1134162,58.1754109 24.762491,58.0319475 24.4074844,58.0319475 C23.8749744,58.0319475 23.1996017,58.3943956 23.1996017,58.8273299 C23.1996017,59.2602641 23.2697215,68.4136376 23.2521803,69.0263862 C23.2441425,69.3071636 22.8699417,69.8533846 22.168361,69.8329294 C21.951604,69.8266096 21.5534923,69.833428 20.974026,69.8533846 C20.974026,63.2407682 20.974026,59.5654167 20.974026,58.8273299 C20.974026,57.7201997 21.5643663,56.5194805 23.2521803,56.5194805 C24.3773897,56.5194805 25.1134162,57.1670996 25.4602597,58.4623377 Z" id="Path-237" fill="#A1B6BF"></path>
                    <path d="M47.1849351,58.4623377 C46.8380915,58.1754109 46.4871664,58.0319475 46.1321597,58.0319475 C45.5996497,58.0319475 44.924277,58.3943956 44.924277,58.8273299 C44.924277,59.2602641 44.9943968,68.4136376 44.9768557,69.0263862 C44.9688178,69.3071636 44.594617,69.8533846 43.8930364,69.8329294 C43.6762793,69.8266096 43.2781676,69.833428 42.6987013,69.8533846 C42.6987013,63.2407682 42.6987013,59.5654167 42.6987013,58.8273299 C42.6987013,57.7201997 43.2890416,56.5194805 44.9768557,56.5194805 C46.102065,56.5194805 46.8380915,57.1670996 47.1849351,58.4623377 Z" id="Path-237" fill="#A1B6BF" transform="translate(44.941818, 63.186433) scale(-1, 1) translate(-44.941818, -63.186433) "></path>
                </g>
                <g id="Sharepoint_32x" transform="translate(44.250000, 52.000000)">
                    <circle id="Oval" fill="#036C70" fill-rule="nonzero" cx="5.625" cy="3.5625" r="3.5625"></circle>
                    <circle id="Oval" fill="#1A9BA1" fill-rule="nonzero" cx="8.95125" cy="6.705" r="3.04875"></circle>
                    <circle id="Oval" fill="#37C6D0" fill-rule="nonzero" cx="6" cy="9.5625" r="2.4375"></circle>
                    <path d="M6.25125,2.625 L2.18625,2.625 C2.10475768,2.93085856 2.06316271,3.24597193 2.0625,3.5625 C2.0625,5.53001442 3.65748558,7.125 5.625,7.125 C5.72742079,7.13069885 5.83007921,7.13069885 5.9325,7.125 L5.9325,7.125 C4.61273796,7.16156118 3.56199367,8.24223173 3.5625,9.5625 C3.5625,9.62625 3.5625,9.68625 3.5625,9.75001412 L6.24375,9.75001412 C6.3770224,9.75099828 6.50523247,9.6990115 6.60017357,9.60547694 C6.69511468,9.51194237 6.74900914,9.38452245 6.75,9.25125 L6.75,3.12375 C6.74795827,2.84914814 6.52585186,2.62704173 6.25125,2.625 Z" id="Path" fill="#000000" fill-rule="nonzero" opacity="0.1"></path>
                    <path d="M5.87625,3 L2.12625,3 C2.08977581,3.18546014 2.06845544,3.37358107 2.0625,3.5625 C2.0625,5.53001442 3.65748558,7.125 5.625,7.125 C5.72742079,7.13069885 5.83007921,7.13069885 5.9325,7.125 L5.9325,7.125 C4.61273796,7.16156118 3.56199367,8.24223173 3.5625,9.5625 C3.56245944,9.75180469 3.58384556,9.94050574 3.62625,10.125 L5.87625,10.125 C6.15085186,10.1229583 6.37295827,9.90085186 6.375,9.62625 L6.375,3.49875 C6.37295827,3.22414814 6.15085186,3.00204173 5.87625,3 Z" id="Path" fill="#000000" fill-rule="nonzero" opacity="0.2"></path>
                    <path d="M5.87625,3 L2.12625,3 C2.08977581,3.18546014 2.06845544,3.37358107 2.0625,3.5625 C2.0625,5.53001442 3.65748558,7.125 5.625,7.125 C5.72742079,7.13069885 5.83007921,7.13069885 5.9325,7.125 L5.9325,7.125 C4.68372354,7.1578472 3.66191103,8.12945974 3.56625,9.375 L5.8725,9.375 C6.14856519,9.375 6.37293981,9.15230751 6.375,8.87625 L6.375,3.49875 C6.37295827,3.22414814 6.15085186,3.00204173 5.87625,3 Z" id="Path" fill="#000000" fill-rule="nonzero" opacity="0.2"></path>
                    <path d="M5.50125,3 L2.12625,3 C2.08977581,3.18546014 2.06845544,3.37358107 2.0625,3.5625 C2.0625,5.53001442 3.65748558,7.125 5.625,7.125 C5.72742079,7.13069885 5.83007921,7.13069885 5.9325,7.125 L5.9325,7.125 C4.68372354,7.1578472 3.66191103,8.12945974 3.56625,9.375 L5.4975,9.375 C5.77356519,9.375 5.99793981,9.15230751 6,8.87625 L6,3.49875 C5.99795827,3.22414814 5.77585186,3.00204173 5.50125,3 Z" id="Path" fill="#000000" fill-rule="nonzero" opacity="0.2"></path>
                    <rect id="Back_Plate" fill="#038387" fill-rule="nonzero" x="0" y="3" width="6" height="6" rx="1.33"></rect>
                    <path d="M2.25,5.9625 C2.11981717,5.87528877 2.01088601,5.7599499 1.93125,5.625 C1.85334376,5.4826547 1.81452773,5.32221511 1.81875,5.16 C1.81098302,4.94138305 1.88445859,4.72763594 2.025,4.56 C2.17107299,4.38531621 2.36342862,4.25534618 2.58,4.185 C2.82228127,4.10684007 3.0754261,4.06760262 3.33,4.06875 C3.66675735,4.05764003 4.00291449,4.10457517 4.32375,4.2075 L4.32375,4.9125 C4.18527911,4.82612825 4.03310027,4.76398856 3.87375,4.72875 C3.71030475,4.69072793 3.54277982,4.67309373 3.375,4.67625 C3.1885431,4.66943746 3.0032242,4.70804557 2.835,4.78875 C2.70835079,4.84897637 2.62589047,4.97483687 2.62125,5.115 C2.62027798,5.20006785 2.65257286,5.28215067 2.71125,5.34375 C2.7811243,5.41681289 2.86372228,5.47653758 2.955,5.52 C3.05625,5.5725 3.21,5.64 3.4125,5.7225 L3.48,5.74875 C3.68031624,5.82701442 3.87352852,5.92236594 4.0575,6.03375 C4.19808196,6.11995394 4.31629606,6.23816804 4.4025,6.37875 C4.48125702,6.54057927 4.51493838,6.72064497 4.5,6.9 C4.50804913,7.12484335 4.43927243,7.34572235 4.305,7.52625 C4.16911804,7.6909997 3.98788197,7.81225837 3.78375,7.875 C3.5411583,7.95105445 3.2879524,7.98776931 3.03375,7.98375 C2.80878196,7.98475712 2.58416289,7.96593429 2.3625,7.9275 C2.17435476,7.897099 1.99053958,7.84422066 1.815,7.77 L1.815,7.02 C1.98238615,7.13838078 2.16884038,7.2271685 2.36625,7.2825 C2.57127956,7.34809258 2.7847717,7.38346406 3,7.3875 C3.19095044,7.4002704 3.38171721,7.36004067 3.55125,7.27125 C3.66891249,7.20333508 3.74064094,7.07709301 3.73875,6.94125 C3.73983091,6.84551803 3.70192641,6.75346424 3.63375,6.68625 C3.55072154,6.6043014 3.45434386,6.53709065 3.34875,6.4875 C3.225,6.4275 3.045,6.345 2.80875,6.2475 C2.61344083,6.17141777 2.42625418,6.07594002 2.25,5.9625 L2.25,5.9625 Z" id="Path" fill="#FFFFFF" fill-rule="nonzero"></path>
                    <rect id="Rectangle" x="0" y="0" width="12" height="12"></rect>
                </g>
            </g>
        </g>
    </g>
</svg>