<svg width="100" height="100" viewBox="0 0 100 100" fill="none" xmlns="http://www.w3.org/2000/svg">
<path d="M50.0001 95.29C40.9635 95.29 32.1298 92.6103 24.6161 87.5898C17.1024 82.5694 11.2462 75.4336 7.78802 67.0848C4.32986 58.736 3.42504 49.5493 5.188 40.6863C6.95096 31.8233 11.3025 23.6821 17.6924 17.2923C24.0822 10.9024 32.2234 6.55087 41.0864 4.78791C49.9494 3.02496 59.1361 3.92977 67.4849 7.38794C75.8336 10.8461 82.9694 16.7023 87.9899 24.216C93.0104 31.7297 95.6901 40.5634 95.6901 49.6C95.6914 55.6005 94.5105 61.5424 92.2148 67.0863C89.9191 72.6303 86.5537 77.6677 82.3107 81.9106C78.0677 86.1536 73.0304 89.519 67.4864 91.8147C61.9425 94.1104 56.0005 95.2913 50.0001 95.29V95.29Z" fill="url(#paint0_linear)"/>
<path fill-rule="evenodd" clip-rule="evenodd" d="M94.8001 49.6C94.8001 58.4606 92.1726 67.1222 87.2499 74.4895C82.3272 81.8569 75.3304 87.599 67.1443 90.9898C58.9581 94.3806 49.9504 95.2678 41.26 93.5392C32.5697 91.8106 24.5871 87.5438 18.3217 81.2784C12.0563 75.013 7.78949 67.0304 6.06087 58.34C4.33225 49.6497 5.21944 40.6419 8.61025 32.4558C12.0011 24.2696 17.7432 17.2728 25.1105 12.3502C32.4778 7.42747 41.1394 4.8 50 4.8C61.8809 4.80265 73.2745 9.52348 81.6755 17.9245C90.0766 26.3256 94.7974 37.7191 94.8001 49.6V49.6ZM50 1.14999C59.5854 1.14802 68.956 3.98872 76.9268 9.31281C84.8975 14.6369 91.1103 22.2052 94.7793 31.0605C98.4484 39.9159 99.4089 49.6604 97.5394 59.0616C95.6699 68.4629 91.0543 77.0985 84.2764 83.8764C77.4986 90.6542 68.8629 95.2698 59.4617 97.1393C50.0604 99.0089 40.3159 98.0483 31.4606 94.3793C22.6053 90.7102 15.037 84.4974 9.71286 76.5267C4.38877 68.5559 1.54807 59.1853 1.55005 49.6C1.55005 36.7503 6.65459 24.4268 15.7407 15.3407C24.8269 6.25453 37.1503 1.14999 50 1.14999V1.14999Z" fill="#F2F1F0"/>
<path fill-rule="evenodd" clip-rule="evenodd" d="M92.06 49.6C92.06 57.9187 89.5933 66.0506 84.9716 72.9673C80.35 79.884 73.7812 85.275 66.0957 88.4584C58.4102 91.6418 49.9534 92.4747 41.7945 90.8518C33.6357 89.2289 26.1413 85.2231 20.2591 79.3409C14.3769 73.4587 10.3711 65.9643 8.74821 57.8055C7.12532 49.6467 7.95824 41.1898 11.1417 33.5043C14.3251 25.8189 19.716 19.25 26.6328 14.6284C33.5495 10.0068 41.6814 7.54 50 7.54C61.155 7.54 71.8532 11.9713 79.741 19.8591C87.6287 27.7469 92.06 38.445 92.06 49.6V49.6ZM50 3.89C59.0406 3.89 67.8782 6.57084 75.3952 11.5935C82.9121 16.6162 88.7709 23.7551 92.2306 32.1075C95.6902 40.46 96.5955 49.6507 94.8317 58.5176C93.068 67.3844 88.7146 75.5292 82.3219 81.9219C75.9292 88.3145 67.7845 92.668 58.9176 94.4317C50.0507 96.1954 40.86 95.2902 32.5076 91.8305C24.1552 88.3709 17.0162 82.5121 11.9936 74.9951C6.97088 67.4781 4.29004 58.6406 4.29004 49.6C4.29269 37.4778 9.1094 25.8528 17.6811 17.2811C26.2528 8.70936 37.8778 3.89265 50 3.89V3.89Z" fill="#0078D4"/>
<path fill-rule="evenodd" clip-rule="evenodd" d="M92.06 49.6C92.06 57.9187 89.5933 66.0506 84.9716 72.9673C80.35 79.884 73.7812 85.275 66.0957 88.4584C58.4102 91.6418 49.9534 92.4747 41.7945 90.8518C33.6357 89.2289 26.1413 85.2231 20.2591 79.3409C14.3769 73.4587 10.3711 65.9643 8.74821 57.8055C7.12532 49.6467 7.95824 41.1898 11.1417 33.5043C14.3251 25.8189 19.716 19.25 26.6328 14.6284C33.5495 10.0068 41.6814 7.54 50 7.54C61.155 7.54 71.8532 11.9713 79.741 19.8591C87.6287 27.7469 92.06 38.445 92.06 49.6V49.6ZM50 3.89C59.0406 3.89 67.8782 6.57084 75.3952 11.5935C82.9121 16.6162 88.7709 23.7551 92.2306 32.1075C95.6902 40.46 96.5955 49.6507 94.8317 58.5176C93.068 67.3844 88.7146 75.5292 82.3219 81.9219C75.9292 88.3145 67.7845 92.668 58.9176 94.4317C50.0507 96.1954 40.86 95.2902 32.5076 91.8305C24.1552 88.3709 17.0162 82.5121 11.9936 74.9951C6.97088 67.4781 4.29004 58.6406 4.29004 49.6C4.29269 37.4778 9.1094 25.8528 17.6811 17.2811C26.2528 8.70936 37.8778 3.89265 50 3.89V3.89Z" fill="#0078D4"/>
<path fill-rule="evenodd" clip-rule="evenodd" d="M70.3263 31.6509H30.0809C29.2882 31.6509 28.6436 32.2989 28.6436 33.0957V66.3249C28.6436 67.121 29.2882 67.7697 30.0809 67.7697H70.3263C71.1183 67.7697 71.7637 67.121 71.7637 66.3249V33.0957C71.7637 32.2989 71.1183 31.6509 70.3263 31.6509Z" fill="#1F56A3"/>
<path fill-rule="evenodd" clip-rule="evenodd" d="M70.3264 30.2061H30.081C28.4999 30.2061 27.2063 31.5064 27.2063 33.0956V66.3249C27.2063 67.9141 28.4999 69.2144 30.081 69.2144H70.3264C71.9075 69.2144 73.2011 67.9141 73.2011 66.3249V33.0956C73.2011 31.5064 71.9075 30.2061 70.3264 30.2061ZM70.3263 31.6509C71.1183 31.6509 71.7637 32.2989 71.7637 33.0957V66.3249C71.7637 67.121 71.1183 67.7697 70.3263 67.7697H30.0809C29.2882 67.7697 28.6436 67.121 28.6436 66.3249V33.0957C28.6436 32.2989 29.2882 31.6509 30.0809 31.6509H70.3263Z" fill="#0076D7"/>
<path fill-rule="evenodd" clip-rule="evenodd" d="M35.1116 67.7697H36.5489V31.6509H35.1116V67.7697Z" fill="#0076D7"/>
<path fill-rule="evenodd" clip-rule="evenodd" d="M33.6745 39.4985C33.6745 40.296 33.0306 40.9433 32.2371 40.9433C31.443 40.9433 30.7998 40.296 30.7998 39.4985C30.7998 38.7003 31.443 38.0538 32.2371 38.0538C33.0306 38.0538 33.6745 38.7003 33.6745 39.4985Z" fill="#E1E4E1"/>
<path fill-rule="evenodd" clip-rule="evenodd" d="M33.6745 44.5551C33.6745 45.3526 33.0306 45.9999 32.2371 45.9999C31.443 45.9999 30.7998 45.3526 30.7998 44.5551C30.7998 43.7569 31.443 43.1104 32.2371 43.1104C33.0306 43.1104 33.6745 43.7569 33.6745 44.5551Z" fill="#E1E4E1"/>
<path fill-rule="evenodd" clip-rule="evenodd" d="M33.6745 49.6117C33.6745 50.4092 33.0306 51.0565 32.2371 51.0565C31.443 51.0565 30.7998 50.4092 30.7998 49.6117C30.7998 48.8135 31.443 48.167 32.2371 48.167C33.0306 48.167 33.6745 48.8135 33.6745 49.6117Z" fill="#E1E4E1"/>
<path fill-rule="evenodd" clip-rule="evenodd" d="M33.6745 54.6684C33.6745 55.4659 33.0306 56.1131 32.2371 56.1131C31.443 56.1131 30.7998 55.4659 30.7998 54.6684C30.7998 53.8702 31.443 53.2236 32.2371 53.2236C33.0306 53.2236 33.6745 53.8702 33.6745 54.6684Z" fill="#E1E4E1"/>
<path fill-rule="evenodd" clip-rule="evenodd" d="M33.6745 59.725C33.6745 60.5225 33.0306 61.1697 32.2371 61.1697C31.443 61.1697 30.7998 60.5225 30.7998 59.725C30.7998 58.9268 31.443 58.2802 32.2371 58.2802C33.0306 58.2802 33.6745 58.9268 33.6745 59.725Z" fill="#E1E4E1"/>
<path fill-rule="evenodd" clip-rule="evenodd" d="M47.3291 60.4474H39.4237C39.0263 60.4474 38.7051 60.1245 38.7051 59.725C38.7051 59.3255 39.0263 59.0026 39.4237 59.0026H47.3291C47.7265 59.0026 48.0478 59.3255 48.0478 59.725C48.0478 60.1245 47.7265 60.4474 47.3291 60.4474Z" fill="#FFFFFE"/>
<path fill-rule="evenodd" clip-rule="evenodd" d="M54.5158 60.4474H50.2038C49.8064 60.4474 49.4851 60.1245 49.4851 59.725C49.4851 59.3255 49.8064 59.0026 50.2038 59.0026H54.5158C54.9132 59.0026 55.2345 59.3255 55.2345 59.725C55.2345 60.1245 54.9132 60.4474 54.5158 60.4474Z" fill="#50E6FF"/>
<path fill-rule="evenodd" clip-rule="evenodd" d="M42.2984 55.3908H39.4237C39.0263 55.3908 38.7051 55.0679 38.7051 54.6684C38.7051 54.2689 39.0263 53.946 39.4237 53.946H42.2984C42.6958 53.946 43.0171 54.2689 43.0171 54.6684C43.0171 55.0679 42.6958 55.3908 42.2984 55.3908Z" fill="#1B93EB"/>
<path fill-rule="evenodd" clip-rule="evenodd" d="M47.3291 50.3341H39.4237C39.0263 50.3341 38.7051 50.0112 38.7051 49.6118C38.7051 49.2123 39.0263 48.8894 39.4237 48.8894H47.3291C47.7265 48.8894 48.0478 49.2123 48.0478 49.6118C48.0478 50.0112 47.7265 50.3341 47.3291 50.3341Z" fill="#FFFFFE"/>
<path fill-rule="evenodd" clip-rule="evenodd" d="M58.1091 50.3342H50.2038C49.8064 50.3342 49.4851 50.0113 49.4851 49.6118C49.4851 49.2123 49.8064 48.8894 50.2038 48.8894H58.1091C58.5066 48.8894 58.8278 49.2123 58.8278 49.6118C58.8278 50.0113 58.5066 50.3342 58.1091 50.3342Z" fill="#FFFFFE"/>
<path fill-rule="evenodd" clip-rule="evenodd" d="M62.9673 40.359H50.7592C50.1455 40.359 49.6494 40.0007 49.6494 39.5575C49.6494 39.1142 50.1455 38.7559 50.7592 38.7559H62.9673C63.581 38.7559 64.0771 39.1142 64.0771 39.5575C64.0771 40.0007 63.581 40.359 62.9673 40.359Z" fill="#FFFFFE"/>
<path fill-rule="evenodd" clip-rule="evenodd" d="M64.0359 60.6646H57.7058C57.3876 60.6646 57.1304 60.3064 57.1304 59.8631C57.1304 59.4199 57.3876 59.0616 57.7058 59.0616H64.0359C64.3542 59.0616 64.6114 59.4199 64.6114 59.8631C64.6114 60.3064 64.3542 60.6646 64.0359 60.6646Z" fill="#FFFFFE"/>
<path fill-rule="evenodd" clip-rule="evenodd" d="M63.1398 50.3341H60.9838C60.5864 50.3341 60.2651 50.0112 60.2651 49.6118C60.2651 49.2123 60.5864 48.8894 60.9838 48.8894H63.1398C63.5372 48.8894 63.8585 49.2123 63.8585 49.6118C63.8585 50.0112 63.5372 50.3341 63.1398 50.3341Z" fill="#C3F1FF"/>
<path fill-rule="evenodd" clip-rule="evenodd" d="M53.0784 55.3908H45.173C44.7756 55.3908 44.4543 55.0679 44.4543 54.6684C44.4543 54.2689 44.7756 53.946 45.173 53.946H53.0784C53.4758 53.946 53.797 54.2689 53.797 54.6684C53.797 55.0679 53.4758 55.3908 53.0784 55.3908Z" fill="#C3F1FF"/>
<path fill-rule="evenodd" clip-rule="evenodd" d="M53.0784 45.2775H50.2038C49.8064 45.2775 49.4851 44.9546 49.4851 44.5551C49.4851 44.1557 49.8064 43.8328 50.2038 43.8328H53.0784C53.4759 43.8328 53.7971 44.1557 53.7971 44.5551C53.7971 44.9546 53.4759 45.2775 53.0784 45.2775Z" fill="#1B93EB"/>
<path fill-rule="evenodd" clip-rule="evenodd" d="M47.3291 45.2775H39.4237C39.0263 45.2775 38.7051 44.9546 38.7051 44.5551C38.7051 44.1557 39.0263 43.8328 39.4237 43.8328H47.3291C47.7265 43.8328 48.0478 44.1557 48.0478 44.5551C48.0478 44.9546 47.7265 45.2775 47.3291 45.2775Z" fill="#50E6FF"/>
<path fill-rule="evenodd" clip-rule="evenodd" d="M47.3291 40.2209H39.4237C39.0263 40.2209 38.7051 39.898 38.7051 39.4985C38.7051 39.0991 39.0263 38.7762 39.4237 38.7762H47.3291C47.7265 38.7762 48.0478 39.0991 48.0478 39.4985C48.0478 39.898 47.7265 40.2209 47.3291 40.2209Z" fill="#FFFFFE"/>
<path d="M65.2549 51.5553C71.0994 51.8365 75.6198 56.6342 75.3487 62.2686C75.2332 64.6712 74.2568 66.8436 72.7363 68.5175L79.8569 76.0752L76.7582 78.7876L69.3952 70.9728C67.852 71.6918 66.1101 72.0613 64.2727 71.9729C58.4282 71.6918 53.9078 66.8941 54.1789 61.2597C54.4503 55.6159 59.4103 51.2742 65.2549 51.5553ZM64.4685 67.9026C67.987 68.0719 70.963 65.4669 71.1261 62.0749C71.2893 58.683 68.5771 55.8043 65.0586 55.6351C61.5402 55.4658 58.5642 58.0709 58.401 61.4628C58.2476 64.8552 60.9598 67.7338 64.4685 67.9026Z" fill="#50E6FF"/>
<path d="M25.7053 33.8731H24V27H30.8731V28.7354H25.7053V33.8731Z" fill="#50E6FF"/>
<path d="M30.8731 70.3516V72.0569H24V65.1838H25.734V70.3516H30.8731Z" fill="#50E6FF"/>
<path d="M69.0569 28.714V27H75.93V33.8731H74.1859V28.714H69.0569Z" fill="#50E6FF"/>
<defs>
<linearGradient id="paint0_linear" x1="48.2701" y1="-13.64" x2="52.1601" y2="128.64" gradientUnits="userSpaceOnUse">
<stop stop-color="#00ABDE"/>
<stop offset="1" stop-color="#007ED8"/>
</linearGradient>
</defs>
</svg>
