<?xml version="1.0" encoding="UTF-8"?>
<svg width="184px" height="150px" viewBox="0 0 184 150" version="1.1" xmlns="http://www.w3.org/2000/svg" xmlns:xlink="http://www.w3.org/1999/xlink">
    <!-- Generator: Sketch 63.1 (92452) - https://sketch.com -->
    <title>Customize and extend SharePoint/Customize-and-extend-SharePoint</title>
    <desc>Created with Sketch.</desc>
    <defs>
        <path d="M23.0601937,0 L156.939806,0 C167.985501,-5.58177493e-15 176.939806,8.954305 176.939806,20 C176.939806,20.9463774 176.872634,21.8915613 176.738796,22.8284271 L162.453082,122.828427 C161.045514,132.681402 152.607099,140 142.654092,140 L37.345908,140 C27.3929005,140 18.954486,132.681402 17.5469182,122.828427 L3.26120387,22.8284271 C1.69910671,11.893747 9.29708645,1.76310729 20.2317666,0.201010127 C21.1686324,0.0671721544 22.1138164,-3.37886697e-15 23.0601937,0 Z" id="path-1"></path>
        <linearGradient x1="50%" y1="2.35050413%" x2="50%" y2="100%" id="linearGradient-3">
            <stop stop-color="#036C70" offset="0%"></stop>
            <stop stop-color="#0E4F51" offset="100%"></stop>
        </linearGradient>
        <path d="M153.939806,0 C164.985501,0 173.939806,8.954305 173.939806,20 C173.939806,20.9463774 173.872634,21.8915613 173.738796,22.8284271 L159.453082,122.828427 C158.045514,132.681402 149.607099,140 139.654092,140 L34.345908,140 C24.3929005,140 15.954486,132.681402 14.5469182,122.828427 L0.261203875,22.8284271 C-1.30089329,11.893747 6.29708645,1.76310729 17.2317666,0.201010127 C18.1686324,0.0671721544 19.1138164,0 20.0601937,0 L153.939806,0 Z M153.939806,5 L20.0601937,5 C19.3504107,5 18.6415228,5.05037912 17.9388734,5.1507576 C9.84300443,6.30731031 4.18590479,13.7265465 5.16926925,21.8062065 L5.21095134,22.1213203 L19.4966656,122.12132 C20.5365851,129.400757 26.6934073,134.835727 34.0124382,134.996344 L34.345908,135 L139.654092,135 C147.007433,135 153.258486,129.673678 154.452555,122.450922 L154.503334,122.12132 L168.789049,22.1213203 C168.889427,21.418671 168.939806,20.709783 168.939806,20 C168.939806,11.8205929 162.39302,5.17026978 154.253634,5.00321776 L153.939806,5 Z" id="path-4"></path>
        <path d="M65.5002281,131 C29.325267,131 0,101.674714 0,65.5 C0,29.3252857 29.325267,0 65.5002281,0 C101.674733,0 131,29.3252857 131,65.5 C131,101.674714 101.674733,131 65.5002281,131 Z" id="path-6"></path>
        <filter x="-10.9%" y="-10.9%" width="121.8%" height="122.7%" filterUnits="objectBoundingBox" id="filter-8">
            <feOffset dx="0" dy="2" in="SourceAlpha" result="shadowOffsetOuter1"></feOffset>
            <feGaussianBlur stdDeviation="2" in="shadowOffsetOuter1" result="shadowBlurOuter1"></feGaussianBlur>
            <feColorMatrix values="0 0 0 0 0   0 0 0 0 0   0 0 0 0 0  0 0 0 0.1 0" type="matrix" in="shadowBlurOuter1" result="shadowMatrixOuter1"></feColorMatrix>
            <feMerge>
                <feMergeNode in="shadowMatrixOuter1"></feMergeNode>
                <feMergeNode in="SourceGraphic"></feMergeNode>
            </feMerge>
        </filter>
        <linearGradient x1="50%" y1="-9.93901477%" x2="50%" y2="100%" id="linearGradient-9">
            <stop stop-color="#EFEFEF" offset="0%"></stop>
            <stop stop-color="#FFFFFF" offset="100%"></stop>
        </linearGradient>
        <linearGradient x1="50%" y1="-9.93901477%" x2="50%" y2="100%" id="linearGradient-10">
            <stop stop-color="#EFEFEF" offset="0%"></stop>
            <stop stop-color="#FFFFFF" offset="100%"></stop>
        </linearGradient>
        <filter x="-21.3%" y="-21.3%" width="143.8%" height="143.8%" filterUnits="objectBoundingBox" id="filter-11">
            <feOffset dx="0" dy="2" in="SourceAlpha" result="shadowOffsetOuter1"></feOffset>
            <feGaussianBlur stdDeviation="2" in="shadowOffsetOuter1" result="shadowBlurOuter1"></feGaussianBlur>
            <feColorMatrix values="0 0 0 0 0   0 0 0 0 0   0 0 0 0 0  0 0 0 0.1 0" type="matrix" in="shadowBlurOuter1" result="shadowMatrixOuter1"></feColorMatrix>
            <feMerge>
                <feMergeNode in="shadowMatrixOuter1"></feMergeNode>
                <feMergeNode in="SourceGraphic"></feMergeNode>
            </feMerge>
        </filter>
    </defs>
    <g id="Badges" stroke="none" stroke-width="1" fill="none" fill-rule="evenodd">
        <g id="Customize-and-extend-SharePoint" transform="translate(-118.000000, -55.000000)">
            <g id="Customize-and-extend-SharePoint/Customize-and-extend-SharePoint" transform="translate(145.000000, 65.000000)">
                <g id="Trophy-Plates/Quadrilateral" transform="translate(15.000000, 15.000000)">
                    <g id="BG" transform="translate(-40.000000, -20.000000)">
                        <mask id="mask-2" fill="white">
                            <use xlink:href="#path-1"></use>
                        </mask>
                        <path stroke="#FFFFFF" stroke-width="5" d="M156.939806,-2.5 L23.0601937,-2.5 C21.9955192,-2.5 20.9321873,-2.42443133 19.8782132,-2.27386361 C13.7274556,-1.39518395 8.51514504,1.89339828 5.06019375,6.5 C1.60524246,11.1066017 -0.0923495156,17.0312229 0.786330141,23.1819805 L15.0720444,123.181981 C15.8638013,128.724279 18.6329839,133.553784 22.6038689,136.997714 C26.5747538,140.441644 31.7473413,142.5 37.345908,142.5 L142.654092,142.5 C148.252659,142.5 153.425246,140.441644 157.396131,136.997714 C161.367016,133.553784 164.136199,128.724279 164.927956,123.181981 L179.21367,23.1819805 C179.364238,22.1280065 179.439806,21.0646746 179.439806,20 C179.439806,13.7867966 176.921408,8.16179656 172.849709,4.09009742 C168.77801,0.0183982822 163.15301,-2.5 156.939806,-2.5 Z"></path>
                        <g id="Colors/Sharepoint/BG-Gradient-4" mask="url(#mask-2)" fill="url(#linearGradient-3)">
                            <rect id="Rectangle" x="0" y="0" width="180" height="140"></rect>
                        </g>
                    </g>
                    <g id="Border" transform="translate(-37.000000, -20.000000)">
                        <mask id="mask-5" fill="white">
                            <use xlink:href="#path-4"></use>
                        </mask>
                        <use fill="#000000" fill-rule="nonzero" xlink:href="#path-4"></use>
                        <g id="Colors/Sharepoint/Border" mask="url(#mask-5)" fill="#036C70">
                            <g transform="translate(-3.000000, 0.000000)" id="Rectangle">
                                <rect x="0" y="0" width="180" height="140"></rect>
                            </g>
                        </g>
                    </g>
                </g>
                <g id="Group">
                    <g id="Icon">
                        <mask id="mask-7" fill="white">
                            <use xlink:href="#path-6"></use>
                        </mask>
                        <g id="BG-Mask" opacity="0.800000012"></g>
                    </g>
                    <g id="Group-2" filter="url(#filter-8)" transform="translate(10.480000, 10.480000)">
                        <polygon id="Path-38" fill="url(#linearGradient-9)" points="55.4171413 0 37.99 17.03 73.36 17.03"></polygon>
                        <polygon id="Path-38" fill="url(#linearGradient-9)" transform="translate(55.675000, 101.525000) rotate(-180.000000) translate(-55.675000, -101.525000) " points="55.4171413 93.01 37.99 110.04 73.36 110.04"></polygon>
                        <polygon id="Path-38" fill="url(#linearGradient-10)" transform="translate(100.215000, 55.020000) rotate(-270.000000) translate(-100.215000, -55.020000) " points="99.9380406 45.85 81.22 64.19 119.21 64.19"></polygon>
                        <polygon id="Path-38" fill="url(#linearGradient-10)" transform="translate(9.825000, 55.020000) rotate(-90.000000) translate(-9.825000, -55.020000) " points="9.54804063 45.85 -9.17 64.19 28.82 64.19"></polygon>
                    </g>
                    <g id="Sharepoint_32x" filter="url(#filter-11)" transform="translate(39.300000, 36.680000)">
                        <circle id="Oval" fill="#036C70" fill-rule="nonzero" cx="26.4046875" cy="16.7229687" r="16.7229688"></circle>
                        <circle id="Oval" fill="#1A9BA1" fill-rule="nonzero" cx="42.0186594" cy="31.4743875" r="14.3113406"></circle>
                        <circle id="Oval" fill="#37C6D0" fill-rule="nonzero" cx="28.165" cy="44.8879687" r="11.4420313"></circle>
                        <path d="M29.3444094,12.3221875 L10.2626219,12.3221875 C9.88008332,13.7579386 9.68482963,15.2371332 9.68171875,16.7229687 C9.68171875,25.9588094 17.1688469,33.4459375 26.4046875,33.4459375 C26.8854677,33.4726888 27.3673635,33.4726888 27.8481438,33.4459375 L27.8481438,33.4459375 C21.6529608,33.6175618 16.720592,38.6904094 16.7229688,44.8879687 C16.7229688,45.1872219 16.7229688,45.4688719 16.7229688,45.7681913 L29.3092031,45.7681913 C29.934806,45.7728111 30.5366454,45.5287765 30.9823148,45.0897097 C31.4279841,44.6506428 31.6809737,44.0525125 31.685625,43.4269094 L31.685625,14.6634031 C31.6760408,13.3743762 30.6334363,12.3317717 29.3444094,12.3221875 Z" id="Path" fill="#000000" fill-rule="nonzero" opacity="0.1"></path>
                        <path d="M27.5840969,14.0825 L9.98097188,14.0825 C9.80975596,14.9530808 9.70967458,15.8361518 9.68171875,16.7229687 C9.68171875,25.9588094 17.1688469,33.4459375 26.4046875,33.4459375 C26.8854677,33.4726888 27.3673635,33.4726888 27.8481438,33.4459375 L27.8481438,33.4459375 C21.6529608,33.6175618 16.720592,38.6904094 16.7229688,44.8879687 C16.7227784,45.7765965 16.8231684,46.6623907 17.0222219,47.5284375 L27.5840969,47.5284375 C28.8731238,47.5188533 29.9157283,46.4762488 29.9253125,45.1872219 L29.9253125,16.4237156 C29.9157283,15.1346887 28.8731238,14.0920842 27.5840969,14.0825 Z" id="Path" fill="#000000" fill-rule="nonzero" opacity="0.2"></path>
                        <path d="M27.5840969,14.0825 L9.98097188,14.0825 C9.80975596,14.9530808 9.70967458,15.8361518 9.68171875,16.7229687 C9.68171875,25.9588094 17.1688469,33.4459375 26.4046875,33.4459375 C26.8854677,33.4726888 27.3673635,33.4726888 27.8481438,33.4459375 L27.8481438,33.4459375 C21.9861789,33.6001277 17.1896207,38.1610389 16.7405719,44.0078125 L27.5664938,44.0078125 C28.8623898,44.0078125 29.9156416,42.9624568 29.9253125,41.6665969 L29.9253125,16.4237156 C29.9157283,15.1346887 28.8731238,14.0920842 27.5840969,14.0825 Z" id="Path" fill="#000000" fill-rule="nonzero" opacity="0.2"></path>
                        <path d="M25.8237844,14.0825 L9.98097188,14.0825 C9.80975596,14.9530808 9.70967458,15.8361518 9.68171875,16.7229687 C9.68171875,25.9588094 17.1688469,33.4459375 26.4046875,33.4459375 C26.8854677,33.4726888 27.3673635,33.4726888 27.8481438,33.4459375 L27.8481438,33.4459375 C21.9861789,33.6001277 17.1896207,38.1610389 16.7405719,44.0078125 L25.8061813,44.0078125 C27.1020773,44.0078125 28.1553291,42.9624568 28.165,41.6665969 L28.165,16.4237156 C28.1554158,15.1346887 27.1128113,14.0920842 25.8237844,14.0825 Z" id="Path" fill="#000000" fill-rule="nonzero" opacity="0.2"></path>
                        <rect id="Back_Plate" fill="#038387" fill-rule="nonzero" x="0" y="14.0825" width="28.165" height="28.165" rx="1.33"></rect>
                        <path d="M10.561875,27.9889687 C9.95077508,27.5795847 9.43943409,27.0381648 9.06560938,26.4046875 C8.69990449,25.7364949 8.51769558,24.9833647 8.53751563,24.2219 C8.50105612,23.1956756 8.84596269,22.192311 9.5056875,21.4054 C10.1913785,20.5854052 11.0943279,19.9753042 12.11095,19.6450875 C13.2482587,19.2781917 14.4365627,19.0940046 15.631575,19.0993906 C17.2123701,19.0472386 18.7903478,19.26756 20.2964031,19.7507062 L20.2964031,23.0600937 C19.6463977,22.6546504 18.9320449,22.3629563 18.1840281,22.1975406 C17.4167889,22.0190587 16.6303989,21.9362808 15.8428125,21.9510969 C14.9675527,21.9191177 14.0976349,22.1003506 13.3079625,22.4791906 C12.71345,22.7619033 12.3263675,23.3527134 12.3045844,24.0106625 C12.3000215,24.4099852 12.4516191,24.7952956 12.7270594,25.0844531 C13.055061,25.4274225 13.4427897,25.7077802 13.8712625,25.9118 C14.3465469,26.1582437 15.068275,26.4751 16.0188438,26.8623687 L16.3357,26.9855906 C17.2760178,27.3529769 18.1829885,27.8005728 19.0465813,28.3234281 C19.7064964,28.7280838 20.2614131,29.2830005 20.6660688,29.9429156 C21.0357673,30.7025692 21.1938732,31.5478276 21.12375,32.38975 C21.1615339,33.4452022 20.8386847,34.482045 20.2083875,35.3294719 C19.570535,36.1028344 18.7197826,36.6720429 17.7615531,36.9665625 C16.6227872,37.3235748 15.4341965,37.4959204 14.2409281,37.4770531 C13.1848906,37.4817807 12.1304913,37.3934232 11.0899688,37.2130062 C10.2067836,37.0702989 9.34392455,36.8220792 8.5199125,36.473675 L8.5199125,32.95305 C9.305651,33.5087491 10.1808982,33.9255335 11.1075719,34.1852687 C12.0700148,34.4931713 13.0721825,34.6592109 14.0825,34.6781562 C14.9788532,34.7381026 15.8743442,34.5492576 16.6701594,34.1324594 C17.2224867,33.8136554 17.559192,33.2210541 17.5503156,32.5833844 C17.5553896,32.1340026 17.3774596,31.7018867 17.0574281,31.3863719 C16.6676787,31.0016915 16.2152658,30.686193 15.7195906,30.4534062 C15.1386875,30.1717562 14.2937375,29.7844875 13.1847406,29.3268062 C12.2679268,28.9696636 11.3892415,28.5214751 10.561875,27.9889687 L10.561875,27.9889687 Z" id="Path" fill="#FFFFFF" fill-rule="nonzero"></path>
                        <rect id="Rectangle" x="0" y="0" width="56.33" height="56.33"></rect>
                    </g>
                </g>
            </g>
        </g>
    </g>
</svg>