<svg width="103" height="103" viewBox="0 0 103 103" fill="none" xmlns="http://www.w3.org/2000/svg">
<path d="M51.2141 98.3049C77.0665 98.3049 98.02 77.3514 98.02 51.499C98.02 25.6467 77.0665 4.69312 51.2141 4.69312C25.3617 4.69312 4.4082 25.6467 4.4082 51.499C4.4082 77.3514 25.3617 98.3049 51.2141 98.3049Z" fill="url(#paint0_linear)"/>
<path fill-rule="evenodd" clip-rule="evenodd" d="M51.2139 1.49902C23.6005 1.49902 1.21387 23.8857 1.21387 51.499C1.21387 79.1124 23.6005 101.499 51.2139 101.499C78.8272 101.499 101.214 79.1124 101.214 51.499C101.214 23.8857 78.8272 1.49902 51.2139 1.49902ZM51.2139 97.2559C25.9422 97.2559 5.45703 76.7707 5.45703 51.499C5.45703 26.2274 25.9422 5.74219 51.2139 5.74219C76.4855 5.74219 96.9707 26.2274 96.9707 51.499C96.9707 76.7707 76.4855 97.2559 51.2139 97.2559Z" fill="#D9D9D9"/>
<path fill-rule="evenodd" clip-rule="evenodd" d="M5.31655 51.499C5.31655 76.8456 25.8673 97.3964 51.2139 97.3964C76.5605 97.3964 97.1112 76.8456 97.1112 51.499C97.1112 26.1525 76.5605 5.6017 51.2139 5.6017C25.8673 5.6017 5.31655 26.1525 5.31655 51.499ZM51.2139 1.85498C23.7973 1.85498 1.56982 24.0824 1.56982 51.499C1.56982 78.9157 23.7973 101.143 51.2139 101.143C78.6305 101.143 100.858 78.9157 100.858 51.499C100.858 24.0824 78.6305 1.85498 51.2139 1.85498Z" fill="#F2F1F0"/>
<path fill-rule="evenodd" clip-rule="evenodd" d="M8.1266 51.4991C8.1266 75.3001 27.4129 94.5864 51.2139 94.5864C75.0149 94.5864 94.3012 75.3001 94.3012 51.4991C94.3012 27.698 75.0149 8.41176 51.2139 8.41176C27.4129 8.41176 8.1266 27.698 8.1266 51.4991ZM51.2139 4.66504C25.3522 4.66504 4.37988 25.6373 4.37988 51.4991C4.37988 77.3608 25.3522 98.3331 51.2139 98.3331C77.0756 98.3331 98.0479 77.3608 98.0479 51.4991C98.0479 25.6373 77.085 4.66504 51.2139 4.66504Z" fill="#0078D4"/>
<path d="M91.8378 45.8602C91.8378 44.9984 91.1353 44.2959 90.2736 44.2959C89.7115 44.2959 86.2084 43.9868 84.335 42.5256C84.335 42.5256 84.3444 42.5069 84.335 42.5256C83.6231 39.9404 82.5834 37.5144 81.3002 35.2289C80.9723 33.0558 83.211 31.4728 84.2413 29.7774C84.4287 29.4776 84.5223 29.309 84.5973 29.1966C84.794 28.644 84.6816 28.0071 84.2413 27.5668C84.2413 27.5668 82.5085 25.1034 80.7475 23.333C78.9772 21.5627 76.2889 19.6144 76.2889 19.6144C75.6801 19.0056 74.6872 19.0056 74.0784 19.6144C73.6849 20.0078 71.0154 22.209 68.6269 22.5556C68.5894 22.5649 68.5894 22.5649 68.5894 22.5649C66.3601 21.3004 63.8592 20.2701 61.3489 19.5488H61.3208C59.5504 18.2469 60.0188 15.5398 59.5504 13.6103C59.5504 12.7485 58.8479 12.046 57.9862 12.046C57.9862 12.046 55.0169 11.5215 52.516 11.5215C50.015 11.5215 46.7367 12.046 46.7367 12.046C45.8749 12.046 45.1724 12.7485 45.1724 13.6103C45.1724 14.1723 44.8633 17.6755 43.4021 19.5488C40.9199 20.242 38.3159 21.3566 36.1053 22.5837C33.9322 22.9115 32.3492 20.6729 30.6539 19.6425C30.3541 19.4552 30.1855 19.3615 30.0731 19.2866C29.5205 19.0899 28.8835 19.2023 28.4433 19.6425C28.4433 19.6425 25.9798 21.3754 24.2095 23.1363C22.4392 24.8973 20.4909 27.5949 20.4909 27.5949C19.882 28.2038 19.882 29.1966 20.4909 29.8055C20.8843 30.1989 23.1417 32.8965 23.432 35.257V35.2757C22.1956 37.4863 21.1278 40.0715 20.4253 42.5631C20.4253 42.5631 20.4628 42.5256 20.4253 42.5631C18.9079 44.4083 16.4163 43.8651 14.4867 44.3334C13.625 44.3334 12.9225 45.0359 12.9225 45.8977C12.9225 45.8977 12.3979 48.8669 12.3979 51.3679C12.3979 53.8688 12.9225 57.1472 12.9225 57.1472C12.9225 58.0089 13.625 58.7114 14.4867 58.7114C15.0488 58.7114 18.5519 59.0205 20.4253 60.4818C20.4721 60.463 20.4534 60.5099 20.4534 60.5099C21.1746 63.0014 22.205 65.493 23.4601 67.7036C23.4414 67.741 23.4601 67.7036 23.4695 67.7785C23.6849 70.0453 21.5587 71.5346 20.5283 73.23C20.341 73.5297 20.2473 73.6983 20.1724 73.8107C19.9757 74.3634 20.0881 75.0003 20.5283 75.4406C20.5283 75.4406 22.2612 77.904 24.0222 79.6744C25.7925 81.4447 28.4808 83.393 28.4808 83.393C29.0896 84.0018 30.0825 84.0018 30.6913 83.393C31.0847 82.9996 33.7824 80.7422 36.1428 80.4518C36.1428 80.4518 36.1334 80.4705 36.1709 80.4705C38.447 81.7351 40.7887 82.7279 43.3552 83.4211C43.3833 83.4398 43.4489 83.4585 43.4489 83.4585C45.2192 84.7605 44.7509 87.4675 45.2192 89.3971C45.3223 90.2682 45.7906 90.8209 46.7835 90.9614C46.7835 90.9614 49.7528 91.4859 52.2537 91.4859C54.7546 91.4859 58.033 90.9614 58.033 90.9614C58.8948 90.8115 59.5973 90.2588 59.5973 89.3971C59.5973 88.8351 59.9064 85.3319 61.3676 83.4585C61.3676 83.4585 61.4332 83.4117 61.4987 83.3555C64.1121 82.6155 66.0978 81.8194 68.3927 80.4986C68.5051 80.4518 68.3833 80.4705 68.655 80.4331C70.8281 80.1052 72.4111 82.3439 74.1064 83.3742C74.4062 83.5616 74.5748 83.6552 74.6872 83.7302C75.2398 83.9269 75.8768 83.8145 76.317 83.3742C76.317 83.3742 78.7805 81.6414 80.5508 79.8804C82.3211 78.1101 84.2694 75.4218 84.2694 75.4218C84.8783 74.813 84.8783 73.8201 84.2694 73.2113C83.876 72.8179 81.6186 70.1202 81.3283 67.7598C81.3002 67.5162 81.3189 67.4881 81.347 67.4132C82.6677 65.0902 83.4826 63.3948 84.2039 60.7628C84.2039 60.7628 84.1758 60.6785 84.335 60.4537C85.637 58.6833 88.344 59.1517 90.2736 58.6833C91.1353 58.6833 91.8378 57.9808 91.8378 57.1191C91.8378 57.1191 92.3623 54.1498 92.3623 51.6489C92.353 49.1386 91.8378 45.8602 91.8378 45.8602ZM75.4927 51.4241C75.4927 64.2472 65.0956 74.6444 52.2724 74.6444C39.4493 74.6444 29.0521 64.2472 29.0521 51.4241C29.0521 38.6009 39.4493 28.2038 52.2724 28.2038C65.0956 28.2038 75.4927 38.5915 75.4927 51.4241Z" fill="#F2F1F0"/>
<path d="M74.715 83.7208C74.7057 83.7208 74.7057 83.7114 74.6963 83.7114C74.6963 83.7114 74.7057 83.7114 74.715 83.7208Z" fill="#F2F1F0"/>
<path d="M74.6867 83.7021C74.4619 83.571 74.106 83.3462 74.106 83.3462C74.2746 83.5242 74.4806 83.6272 74.6867 83.7021Z" fill="#F2F1F0"/>
<path d="M74.7148 83.7207C74.9115 83.8425 74.8647 83.8144 74.7148 83.7207V83.7207Z" fill="#F2F1F0"/>
<path d="M30.1011 19.2959C30.3259 19.427 30.6818 19.6518 30.6818 19.6518C30.5132 19.4739 30.3071 19.3708 30.1011 19.2959Z" fill="#F2F1F0"/>
<path d="M30.0732 19.2772C30.0826 19.2772 30.0826 19.2866 30.092 19.2866C30.092 19.2866 30.0826 19.2866 30.0732 19.2772Z" fill="#F2F1F0"/>
<path d="M30.0729 19.2772C29.8762 19.1554 29.9231 19.1835 30.0729 19.2772V19.2772Z" fill="#F2F1F0"/>
<path d="M20.1724 73.8201C20.0507 74.0168 20.0788 73.9699 20.1724 73.8201V73.8201Z" fill="#F2F1F0"/>
<path d="M20.1719 73.82C20.1719 73.8106 20.1812 73.8106 20.1812 73.8013C20.1812 73.8013 20.1812 73.8106 20.1719 73.82Z" fill="#F2F1F0"/>
<path d="M20.1909 73.7919C20.3221 73.5671 20.5469 73.2112 20.5469 73.2112C20.3689 73.3798 20.2659 73.5859 20.1909 73.7919Z" fill="#F2F1F0"/>
<path d="M84.5971 29.2059C84.466 29.4307 84.2412 29.7867 84.2412 29.7867C84.4192 29.6181 84.5222 29.412 84.5971 29.2059Z" fill="#F2F1F0"/>
<path d="M84.6158 29.1779C84.6158 29.1872 84.6064 29.1872 84.6064 29.1966C84.6064 29.1966 84.6064 29.1872 84.6158 29.1779Z" fill="#F2F1F0"/>
<path d="M84.6157 29.1778C84.7375 28.9811 84.7094 29.0279 84.6157 29.1778V29.1778Z" fill="#F2F1F0"/>
<path d="M35.1782 52.9977C35.1782 52.5855 35.7402 52.2577 36.4334 52.2577C37.1265 52.2577 37.6885 52.5855 37.6885 52.9883C37.6885 53.4004 37.1265 53.7283 36.4334 53.7283C35.7402 53.7376 35.1876 53.4098 35.1782 52.9977Z" fill="#75CFEB"/>
<path d="M35.7686 52.9976C35.7686 52.7728 36.0683 52.5854 36.4336 52.5854C36.7989 52.5854 37.0986 52.7634 37.0986 52.9882C37.0986 53.213 36.7989 53.4004 36.4336 53.4004C36.0683 53.4004 35.7779 53.2224 35.7686 52.9976Z" fill="white"/>
<path d="M31.7969 55.0116C31.7969 54.5994 32.3589 54.2716 33.052 54.2716C33.7452 54.2716 34.3072 54.5994 34.3072 55.0022C34.3072 55.4144 33.7452 55.7422 33.052 55.7422C32.3683 55.7516 31.7969 55.4237 31.7969 55.0116Z" fill="#60CBEB"/>
<path d="M32.3965 55.0115C32.3965 54.7867 32.6962 54.5994 33.0615 54.5994C33.4268 54.5994 33.7266 54.7773 33.7266 55.0021C33.7266 55.2269 33.4268 55.4143 33.0615 55.4143C32.6962 55.4143 32.3965 55.2363 32.3965 55.0115Z" fill="white"/>
<path d="M28.2842 57.1003C28.2842 56.6882 28.8462 56.3604 29.5393 56.3604C30.2325 56.3604 30.7945 56.6882 30.7945 57.091C30.7945 57.5031 30.2325 57.8309 29.5393 57.8309C28.8556 57.8403 28.2842 57.5125 28.2842 57.1003Z" fill="#49C7F0"/>
<path d="M28.8838 57.1003C28.8838 56.8754 29.1835 56.6881 29.5488 56.6881C29.9141 56.6881 30.2139 56.8661 30.2139 57.0909C30.2139 57.3157 29.9141 57.503 29.5488 57.503C29.1742 57.503 28.8838 57.3251 28.8838 57.1003Z" fill="white"/>
<path d="M24.603 59.2266C24.603 58.8144 25.165 58.4866 25.8582 58.4866C26.5513 58.4866 27.1133 58.8144 27.1133 59.2172C27.1133 59.6293 26.5513 59.9572 25.8582 59.9572C25.165 59.9665 24.603 59.6387 24.603 59.2266Z" fill="#3EB8EA"/>
<path d="M25.1934 59.2266C25.1934 59.0018 25.4931 58.8145 25.8584 58.8145C26.2237 58.8145 26.5234 58.9924 26.5234 59.2172C26.5234 59.442 26.2237 59.6294 25.8584 59.6294C25.4931 59.6294 25.1934 59.4514 25.1934 59.2266Z" fill="white"/>
<path d="M53.8089 76.6208C53.2656 76.9392 52.4413 76.9673 51.973 76.6957L20.8658 58.7302C20.6598 58.6084 20.5474 58.4398 20.5474 58.2712C20.5474 58.0651 20.6972 57.8403 20.997 57.6717L41.1824 46.0194L73.9943 64.9685L53.8089 76.6208Z" fill="#53626B"/>
<path d="M53.8089 76.6208L73.985 64.9685L73.9194 65.1933C73.6384 66.1394 73.0764 66.8512 72.224 67.3477L53.8089 77.979C53.275 78.2881 52.4413 78.3256 51.973 78.0539L20.8658 60.0884C20.6317 59.9573 20.5286 59.7699 20.5567 59.5826L20.5474 58.2712C20.5474 58.4492 20.6504 58.6084 20.8658 58.7302L51.9824 76.6957C52.4413 76.958 53.275 76.9299 53.8089 76.6208Z" fill="#323E44"/>
<path d="M47.8143 21.5065C47.6738 21.2723 47.3178 21.3285 47.0649 21.4035L48.0859 21.1318C48.3388 21.0756 48.5917 21.1037 48.8165 21.2348L79.1931 38.7695C79.9518 39.2097 80.3265 40.0528 80.1485 40.9145L75.4183 62.7017C75.1841 63.7695 74.594 64.4814 74.0039 64.9685L47.8143 21.5065Z" fill="#53626B"/>
<path d="M46.3436 22.1527C46.4092 21.8342 46.6153 21.5907 46.915 21.4502C46.9712 21.4315 47.018 21.4127 47.0649 21.394C47.3178 21.3284 47.5707 21.3565 47.8142 21.497L78.1908 39.0317C78.9495 39.4719 79.3242 40.315 79.1462 41.1767L74.0038 64.959L41.1919 46.01L46.3436 22.1527Z" fill="#323E44"/>
<path d="M39.4588 50.5436L41.1823 51.5365C41.3134 51.6114 41.454 51.6114 41.5851 51.5365L43.3086 50.5436C43.346 50.5249 43.3648 50.4874 43.3648 50.4406V50.2158H39.412V50.4406C39.3933 50.4874 39.4214 50.5249 39.4588 50.5436ZM51.158 65.952C51.2891 66.0269 51.4296 66.0269 51.5607 65.952L53.2842 64.9591C53.3217 64.9404 53.3404 64.9029 53.3404 64.8561V64.6313L39.4026 58.8613V59.0861C39.4026 59.133 39.4214 59.1704 39.4588 59.1892L51.158 65.952ZM34.4663 53.4286L41.1729 57.3064C41.3041 57.3814 41.4446 57.3814 41.5757 57.3064L43.2992 56.3136C43.3367 56.2948 43.3554 56.2574 43.3554 56.2105V55.9857L34.4101 53.1007V53.3256C34.4101 53.3724 34.4288 53.4099 34.4663 53.4286ZM36.9579 57.7561L38.6814 58.7489C38.8125 58.8239 38.953 58.8239 39.0748 58.7489L40.7983 57.7561C40.8357 57.7373 40.8545 57.6998 40.8545 57.653V57.4282H36.9017V57.653C36.9017 57.6905 36.9204 57.7373 36.9579 57.7561ZM36.1804 57.3064C36.3116 57.3814 36.4521 57.3814 36.5738 57.3064L38.2973 56.3136C38.3348 56.2948 38.3535 56.2574 38.3535 56.2105V55.9857H34.4007V56.2105C34.4007 56.248 34.4195 56.2948 34.457 56.3136L36.1804 57.3064ZM31.9654 54.8711L33.6889 55.864C33.82 55.9389 33.9605 55.9389 34.0823 55.864L35.8058 54.8711C35.8432 54.8523 35.862 54.8149 35.862 54.768V54.5432H31.9092V54.768C31.9092 54.8149 31.9279 54.8523 31.9654 54.8711ZM49.4438 62.0741L51.1673 63.067C51.2985 63.142 51.439 63.142 51.5701 63.067L53.2936 62.0741C53.3311 62.0554 53.3498 62.0179 53.3498 61.9711V61.7463H49.397V61.9711C49.3783 62.0179 49.4064 62.0554 49.4438 62.0741ZM61.143 68.837C61.2741 68.9119 61.4146 68.9119 61.5364 68.837L63.2599 67.8441C63.2973 67.8254 63.3161 67.7879 63.3161 67.7411V67.5163L56.8623 66.0738V66.2986C56.8623 66.3454 56.8811 66.3829 56.9185 66.4016L61.143 68.837ZM54.4363 67.8441L56.1598 68.837C56.291 68.9119 56.4315 68.9119 56.5532 68.837L58.2767 67.8441C58.3142 67.8254 58.3329 67.7879 58.3329 67.7411V67.5163H54.3801V67.7411C54.3801 67.7879 54.3989 67.816 54.4363 67.8441ZM51.9448 66.4016L53.6683 67.3945C53.7994 67.4694 53.9399 67.4694 54.071 67.3945L55.7945 66.4016C55.832 66.3829 55.8507 66.3454 55.8507 66.2986V66.0738H51.8886V66.2986C51.8792 66.3454 51.9073 66.3829 51.9448 66.4016ZM51.9448 63.526L53.6683 64.5189C53.7994 64.5938 53.9399 64.5938 54.071 64.5189L55.7945 63.526C55.832 63.5073 55.8507 63.4698 55.8507 63.423V63.1982H51.8886V63.423C51.8792 63.4604 51.9073 63.4979 51.9448 63.526ZM54.4363 64.9685L56.1598 65.9614C56.291 66.0363 56.4315 66.0363 56.5532 65.9614L58.2767 64.9685C58.3142 64.9498 58.3329 64.9123 58.3329 64.8655V64.6407H54.3801V64.8655C54.3801 64.9029 54.3989 64.9404 54.4363 64.9685ZM43.6739 58.7489C43.805 58.8239 43.9455 58.8239 44.0673 58.7489L45.7908 57.7561C45.8282 57.7373 45.847 57.6998 45.847 57.653V57.4282H41.8942V57.653C41.8942 57.6905 41.9129 57.7373 41.9504 57.7561L43.6739 58.7489ZM46.1748 60.1821C46.306 60.257 46.4465 60.257 46.5776 60.1821L48.3011 59.1892C48.3386 59.1704 48.3573 59.133 48.3573 59.0861V58.8613H44.3951V59.0861C44.3951 59.133 44.4139 59.1704 44.4513 59.1892L46.1748 60.1821ZM46.9523 60.641L48.6758 61.6339C48.8069 61.7088 48.9474 61.7088 49.0785 61.6339L50.802 60.641C50.8395 60.6223 50.8582 60.5848 50.8582 60.538V60.3132H46.9054V60.538C46.8867 60.5755 46.9148 60.6129 46.9523 60.641ZM56.9373 69.2866L58.6608 70.2795C58.7919 70.3544 58.9324 70.3544 59.0635 70.2795L60.787 69.2866C60.8245 69.2679 60.8432 69.2304 60.8432 69.1836V68.9587H56.8904V69.1836C56.8717 69.2304 56.8998 69.2679 56.9373 69.2866ZM61.143 65.952C61.2741 66.0269 61.4146 66.0269 61.5364 65.952L63.2599 64.9591C63.2973 64.9404 63.3161 64.9029 63.3161 64.8561V64.6313H59.3633V64.8561C59.3633 64.9029 59.382 64.9404 59.4195 64.9591L61.143 65.952ZM63.6439 67.3945C63.775 67.4694 63.9155 67.4694 64.0373 67.3945L65.7608 66.4016C65.7983 66.3829 65.817 66.3454 65.817 66.2986V66.0738H61.8642V66.2986C61.8642 66.3454 61.8829 66.3829 61.9204 66.4016L63.6439 67.3945ZM41.1729 54.4215C41.3041 54.4964 41.4446 54.4964 41.5757 54.4215L43.2992 53.4286C43.3367 53.4099 43.3554 53.3724 43.3554 53.3256V53.1007L36.9017 51.6583V51.8831C36.9017 51.9205 36.9204 51.9674 36.9579 51.9861L41.1729 54.4215ZM43.6739 55.864C43.805 55.9389 43.9455 55.9389 44.0767 55.864L45.8001 54.8711C45.8376 54.8523 45.8563 54.8149 45.8563 54.768V54.5432H41.9036V54.768C41.9036 54.8055 41.9223 54.8523 41.9598 54.8711L43.6739 55.864ZM53.6589 61.6245C53.79 61.6995 53.9305 61.6995 54.0523 61.6245L55.7758 60.6317C55.8133 60.6129 55.832 60.5755 55.832 60.5286V60.3038H51.8792V60.5286C51.8792 60.5755 51.8979 60.6129 51.9354 60.6317L53.6589 61.6245ZM56.1598 63.067C56.291 63.142 56.4315 63.142 56.5532 63.067L58.2767 62.0741C58.3142 62.0554 58.3329 62.0179 58.3329 61.9711V61.7463H54.3801V61.9711C54.3801 62.0179 54.3989 62.0554 54.4363 62.0741L56.1598 63.067ZM58.6514 64.5189C58.7825 64.5938 58.923 64.5938 59.0448 64.5189L60.7683 63.526C60.8058 63.5073 60.8245 63.4698 60.8245 63.423V63.1982H56.8717V63.423C56.8717 63.4604 56.8904 63.5073 56.9279 63.526L58.6514 64.5189ZM46.1748 57.3064C46.306 57.3814 46.4465 57.3814 46.5776 57.3064L48.3011 56.3136C48.3386 56.2948 48.3573 56.2574 48.3573 56.2105V55.9857H44.3951V56.2105C44.3951 56.248 44.4139 56.2948 44.4513 56.3136L46.1748 57.3064ZM46.9523 57.7561L48.6758 58.7489C48.8069 58.8239 48.9474 58.8239 49.0785 58.7489L50.802 57.7561C50.8395 57.7373 50.8582 57.6998 50.8582 57.653V57.4282H46.9054V57.653C46.8867 57.6905 46.9148 57.7373 46.9523 57.7561ZM51.158 60.1821C51.2891 60.257 51.4296 60.257 51.5607 60.1821L53.2842 59.1892C53.3217 59.1704 53.3404 59.133 53.3404 59.0861V58.8613H49.3876V59.0861C49.3876 59.1236 49.4064 59.1704 49.4438 59.1892L51.158 60.1821ZM56.1598 60.1821C56.291 60.257 56.4315 60.257 56.5532 60.1821L58.2767 59.1892C58.3142 59.1704 58.3329 59.133 58.3329 59.0861V58.8613H54.3801V59.0861C54.3801 59.133 54.3989 59.1704 54.4363 59.1892L56.1598 60.1821ZM66.9223 63.526L68.6458 64.5189C68.7769 64.5938 68.9174 64.5938 69.0392 64.5189L69.7136 64.1255C69.7511 64.1067 69.7698 64.0693 69.7698 64.0224V63.7976L66.8661 63.1888V63.4136C66.8661 63.4604 66.8848 63.4979 66.9223 63.526ZM41.9504 49.1011L43.6739 50.094C43.805 50.1689 43.9455 50.1689 44.0767 50.094L44.7511 49.7006C44.7885 49.6819 44.8073 49.6444 44.8073 49.5976V49.3728L41.9036 48.7639V48.9887C41.8942 49.0449 41.9129 49.0824 41.9504 49.1011ZM46.1748 51.5459C46.306 51.6208 46.4465 51.6208 46.5776 51.5459L47.252 51.1525C47.2895 51.1337 47.3082 51.0963 47.3082 51.0494V50.8246L44.4045 50.2158V50.4406C44.4045 50.478 44.4232 50.5249 44.4607 50.5436L46.1748 51.5459ZM48.6664 52.979C48.7975 53.0539 48.938 53.0539 49.0692 52.979L49.7436 52.5949C49.781 52.5762 49.7998 52.5387 49.7998 52.4919V52.2671L46.8961 51.6583V51.8831C46.8961 51.9299 46.9148 51.9674 46.9523 51.9861L48.6664 52.979ZM49.4438 53.4286L51.1673 54.4215C51.2985 54.4964 51.439 54.4964 51.5701 54.4215L52.2445 54.0281C52.282 54.0093 52.3007 53.9719 52.3007 53.925V53.7002L49.397 53.0914V53.3162C49.3783 53.3724 49.4064 53.4099 49.4438 53.4286ZM53.6589 55.864C53.79 55.9389 53.9305 55.9389 54.0617 55.864L54.7361 55.4705C54.7735 55.4518 54.7923 55.4143 54.7923 55.3675V55.1427L51.8886 54.5339V54.7587C51.8886 54.7961 51.9073 54.843 51.9448 54.8617L53.6589 55.864ZM54.4363 56.3136L56.1598 57.3064C56.291 57.3814 56.4315 57.3814 56.5532 57.3064L57.2276 56.913C57.2651 56.8943 57.2839 56.8568 57.2839 56.81V56.5852L54.3801 55.9764V56.2012C54.3801 56.2574 54.3989 56.2855 54.4363 56.3136ZM56.9373 57.7561L58.6608 58.7489C58.7919 58.8239 58.9324 58.8239 59.0635 58.7489L59.738 58.3555C59.7754 58.3368 59.7942 58.2993 59.7942 58.2525V58.0277L56.8904 57.4188V57.6436C56.8717 57.6905 56.8998 57.7373 56.9373 57.7561ZM59.4382 59.1985L61.1617 60.1914C61.2928 60.2664 61.4333 60.2664 61.5645 60.1914L62.2389 59.8074C62.2764 59.7886 62.2951 59.7512 62.2951 59.7043V59.4795L59.3914 58.8707V59.0955C59.3726 59.133 59.3914 59.1704 59.4382 59.1985ZM61.9298 60.641L63.6533 61.6339C63.7844 61.7088 63.9249 61.7088 64.056 61.6339L64.7305 61.2405C64.7679 61.2218 64.7867 61.1843 64.7867 61.1375V60.9127L61.8829 60.3038V60.5286C61.8642 60.5755 61.8923 60.6129 61.9298 60.641ZM64.4214 62.0741L66.1448 63.067C66.276 63.142 66.4165 63.142 66.5476 63.067L67.222 62.6736C67.2595 62.6549 67.2782 62.6174 67.2782 62.5706V62.3458L64.3745 61.7369V61.9617C64.3652 62.0179 64.3839 62.0554 64.4214 62.0741ZM66.1448 65.952C66.276 66.0269 66.4165 66.0269 66.5476 65.952L68.2711 64.9591C68.3086 64.9404 68.3273 64.9029 68.3273 64.8561V64.6313H64.3745V64.8561C64.3745 64.9029 64.3933 64.9404 64.4307 64.9591L66.1448 65.952ZM58.6514 61.6245C58.7825 61.6995 58.923 61.6995 59.0448 61.6245L60.7683 60.6317C60.8058 60.6129 60.8245 60.5755 60.8245 60.5286V60.3038H56.8717V60.5286C56.8717 60.5755 56.8904 60.6129 56.9279 60.6317L58.6514 61.6245ZM61.143 63.067C61.2741 63.142 61.4146 63.142 61.5364 63.067L63.2599 62.0741C63.2973 62.0554 63.3161 62.0179 63.3161 61.9711V61.7463H59.3633V61.9711C59.3633 62.0179 59.382 62.0554 59.4195 62.0741L61.143 63.067ZM48.6664 55.864C48.7975 55.9389 48.938 55.9389 49.0692 55.864L50.7927 54.8711C50.8301 54.8523 50.8489 54.8149 50.8489 54.768V54.5432H46.8961V54.768C46.8961 54.8055 46.9148 54.8523 46.9523 54.8711L48.6664 55.864ZM49.4438 56.3136L51.1673 57.3064C51.2985 57.3814 51.439 57.3814 51.5701 57.3064L53.2936 56.3136C53.3311 56.2948 53.3498 56.2574 53.3498 56.2105V55.9857H49.397V56.2105C49.3783 56.2574 49.4064 56.2855 49.4438 56.3136ZM51.9448 57.7561L53.6683 58.7489C53.7994 58.8239 53.9399 58.8239 54.071 58.7489L55.7945 57.7561C55.832 57.7373 55.8507 57.6998 55.8507 57.653V57.4282H51.8886V57.653C51.8792 57.6905 51.9073 57.7373 51.9448 57.7561ZM63.6439 64.5189C63.775 64.5938 63.9155 64.5938 64.0373 64.5189L65.7608 63.526C65.7983 63.5073 65.817 63.4698 65.817 63.423V63.1982H61.8642V63.423C61.8642 63.4604 61.8829 63.5073 61.9204 63.526L63.6439 64.5189ZM46.1748 54.4215C46.306 54.4964 46.4465 54.4964 46.5776 54.4215L48.3011 53.4286C48.3386 53.4099 48.3573 53.3724 48.3573 53.3256V53.1007H44.3951V53.3256C44.3951 53.3724 44.4139 53.4099 44.4513 53.4286L46.1748 54.4215ZM41.9504 51.9955L43.6739 52.9883C43.805 53.0633 43.9455 53.0633 44.0767 52.9883L45.8001 51.9955C45.8376 51.9767 45.8563 51.9393 45.8563 51.8924V51.6676H41.9036V51.8924C41.8942 51.9299 41.9129 51.9674 41.9504 51.9955Z" fill="#323E44"/>
<path d="M66.1448 62.8422C66.276 62.9171 66.4165 62.9171 66.5383 62.8422L67.2127 62.4488C67.2501 62.4301 67.2689 62.3926 67.2689 62.3458C67.2689 62.2989 67.2501 62.2615 67.2127 62.2427L65.4892 61.2498C65.358 61.1749 65.2175 61.1749 65.0958 61.2498L64.4214 61.6432C64.3839 61.662 64.3652 61.6994 64.3652 61.7463C64.3652 61.7931 64.3839 61.8306 64.4214 61.8493L66.1448 62.8422ZM58.6514 58.5147C58.7825 58.5897 58.923 58.5897 59.0542 58.5147L59.7286 58.1307C59.7661 58.112 59.7848 58.0745 59.7848 58.0277C59.7848 57.9808 59.7661 57.9434 59.7286 57.9246L58.0051 56.9317C57.874 56.8568 57.7335 56.8568 57.6117 56.9317L56.9373 57.3251C56.8998 57.3439 56.8811 57.3813 56.8811 57.4282C56.8811 57.4656 56.8998 57.5125 56.9373 57.5312L58.6514 58.5147ZM68.6458 64.2847C68.7769 64.3596 68.9174 64.3596 69.0392 64.2847L69.7136 63.9006C69.7511 63.8819 69.7698 63.8444 69.7698 63.7976C69.7698 63.7508 69.7511 63.7133 69.7136 63.6946L67.9901 62.7017C67.859 62.6268 67.7185 62.6268 67.5873 62.7017L66.9129 63.0951C66.8755 63.1138 66.8567 63.1513 66.8567 63.1981C66.8567 63.2356 66.8755 63.2824 66.9129 63.3012L68.6458 64.2847ZM56.9373 69.0524L58.6608 70.0453C58.7919 70.1202 58.9324 70.1202 59.0542 70.0453L60.7777 69.0524C60.8151 69.0337 60.8339 68.9962 60.8339 68.9494C60.8339 68.9025 60.8151 68.865 60.7777 68.8463L59.0542 67.8534C58.923 67.7785 58.7825 67.7785 58.6608 67.8534L56.9373 68.8463C56.8998 68.865 56.8811 68.9025 56.8811 68.9494C56.8717 68.9962 56.8998 69.0337 56.9373 69.0524ZM64.4214 64.7343L66.1448 65.7272C66.276 65.8021 66.4165 65.8021 66.5383 65.7272L68.2617 64.7343C68.2992 64.7156 68.3179 64.6781 68.3179 64.6313C68.3179 64.5844 68.2992 64.547 68.2617 64.5282L66.5383 63.5353C66.4071 63.4604 66.2666 63.4604 66.1448 63.5353L64.4214 64.5282C64.3839 64.547 64.3652 64.5844 64.3652 64.6313C64.3652 64.6687 64.3933 64.7062 64.4214 64.7343ZM39.4588 50.3188L41.1823 51.3117C41.3134 51.3866 41.454 51.3866 41.5851 51.3117L43.3086 50.3188C43.346 50.3 43.3648 50.2626 43.3648 50.2157C43.3648 50.1689 43.346 50.1314 43.3086 50.1127L41.5851 49.1198C41.454 49.0449 41.3134 49.0449 41.1823 49.1198L39.4588 50.1127C39.4214 50.1314 39.4026 50.1689 39.4026 50.2157C39.4026 50.2626 39.4214 50.2907 39.4588 50.3188ZM41.9504 51.7519L43.6739 52.7448C43.805 52.8197 43.9455 52.8197 44.0767 52.7448L45.8001 51.7519C45.8376 51.7332 45.8563 51.6957 45.8563 51.6489C45.8563 51.602 45.8376 51.5646 45.8001 51.5458L44.0767 50.5529C43.9455 50.478 43.805 50.478 43.6739 50.5529L41.9504 51.5458C41.9129 51.5646 41.8942 51.602 41.8942 51.6489C41.8942 51.6957 41.9129 51.7332 41.9504 51.7519ZM46.1748 54.1966C46.306 54.2716 46.4465 54.2716 46.5776 54.1966L48.3011 53.2038C48.3386 53.185 48.3573 53.1476 48.3573 53.1007C48.3573 53.0539 48.3386 53.0164 48.3011 52.9977L46.5776 52.0048C46.4465 51.9299 46.306 51.9299 46.1748 52.0048L44.4513 52.9977C44.4139 53.0164 44.3951 53.0539 44.3951 53.1007C44.3951 53.1382 44.4139 53.185 44.4513 53.2038L46.1748 54.1966ZM46.9523 54.6462L48.6758 55.6391C48.8069 55.7141 48.9474 55.7141 49.0785 55.6391L50.802 54.6462C50.8395 54.6275 50.8582 54.59 50.8582 54.5432C50.8582 54.5057 50.8395 54.4589 50.802 54.4402L49.0785 53.4473C48.9474 53.3724 48.8069 53.3724 48.6758 53.4473L46.9523 54.4402C46.9148 54.4589 46.8961 54.4964 46.8961 54.5432C46.8867 54.5807 46.9148 54.6181 46.9523 54.6462ZM49.4532 56.0794L51.1767 57.0722C51.3078 57.1472 51.4483 57.1472 51.5795 57.0722L53.303 56.0794C53.3404 56.0606 53.3592 56.0232 53.3592 55.9763C53.3592 55.9295 53.3404 55.892 53.303 55.8733L51.5701 54.8898C51.439 54.8148 51.2985 54.8148 51.1673 54.8898L49.4438 55.8827C49.4064 55.9014 49.3876 55.9389 49.3876 55.9857C49.3783 56.0232 49.4064 56.0606 49.4532 56.0794ZM51.9448 57.5219L53.6683 58.5147C53.7994 58.5897 53.9399 58.5897 54.0617 58.5147L55.7852 57.5219C55.8226 57.5031 55.8414 57.4656 55.8414 57.4188C55.8414 57.372 55.8226 57.3345 55.7852 57.3158L54.0617 56.3229C53.9305 56.248 53.79 56.248 53.6683 56.3229L51.9448 57.3158C51.9073 57.3345 51.8886 57.372 51.8886 57.4188C51.8886 57.4656 51.9073 57.5031 51.9448 57.5219ZM54.4363 58.9643L56.1598 59.9572C56.291 60.0322 56.4315 60.0322 56.5532 59.9572L58.2767 58.9643C58.3142 58.9456 58.3329 58.9081 58.3329 58.8613C58.3329 58.8145 58.3142 58.777 58.2767 58.7583L56.5532 57.7654C56.4221 57.6905 56.2816 57.6905 56.1598 57.7654L54.4363 58.7583C54.3989 58.777 54.3801 58.8145 54.3801 58.8613C54.3801 58.9081 54.3989 58.9456 54.4363 58.9643ZM56.9373 60.4068L58.6608 61.3997C58.7919 61.4746 58.9324 61.4746 59.0542 61.3997L60.7777 60.4068C60.8151 60.3881 60.8339 60.3506 60.8339 60.3038C60.8339 60.257 60.8151 60.2195 60.7777 60.2008L59.0542 59.2079C58.923 59.1329 58.7825 59.1329 58.6608 59.2079L56.9373 60.2008C56.8998 60.2195 56.8811 60.257 56.8811 60.3038C56.8717 60.3413 56.8998 60.3881 56.9373 60.4068ZM59.4382 61.8493L61.1617 62.8422C61.2928 62.9171 61.4333 62.9171 61.5551 62.8422L63.2786 61.8493C63.3161 61.8306 63.3348 61.7931 63.3348 61.7463C63.3348 61.7088 63.3161 61.662 63.2786 61.6432L61.5551 60.6504C61.424 60.5754 61.2835 60.5754 61.1617 60.6504L59.4382 61.6432C59.4007 61.662 59.382 61.6994 59.382 61.7463C59.3726 61.7931 59.3914 61.8306 59.4382 61.8493ZM61.9298 63.2918L63.6533 64.2847C63.7844 64.3596 63.9249 64.3596 64.0467 64.2847L65.7702 63.2918C65.8076 63.2731 65.8264 63.2356 65.8264 63.1888C65.8264 63.1419 65.8076 63.1045 65.7702 63.0857L64.0467 62.0929C63.9155 62.0179 63.775 62.0179 63.6533 62.0929L61.9298 63.0857C61.8923 63.1045 61.8736 63.1419 61.8736 63.1888C61.8642 63.2356 61.8923 63.2637 61.9298 63.2918ZM61.9298 66.1768L63.6533 67.1697C63.7844 67.2446 63.9249 67.2446 64.0467 67.1697L65.7702 66.1768C65.8076 66.158 65.8264 66.1206 65.8264 66.0737C65.8264 66.0269 65.8076 65.9894 65.7702 65.9707L64.0467 64.9778C63.9155 64.9029 63.775 64.9029 63.6533 64.9778L61.9298 65.9707C61.8923 65.9894 61.8736 66.0269 61.8736 66.0737C61.8642 66.1112 61.8923 66.158 61.9298 66.1768ZM41.1729 54.1966C41.3041 54.2716 41.4446 54.2716 41.5757 54.1966L43.2992 53.2038C43.3367 53.185 43.3554 53.1476 43.3554 53.1007C43.3554 53.0539 43.3367 53.0164 43.2992 52.9977L39.0842 50.5623C38.953 50.4874 38.8125 50.4874 38.6907 50.5623L36.9673 51.5552C36.9298 51.5739 36.9111 51.6114 36.9111 51.6582C36.9111 51.7051 36.9298 51.7425 36.9673 51.7613L41.1729 54.1966ZM43.6739 55.6298C43.805 55.7047 43.9455 55.7047 44.0767 55.6298L45.8001 54.6369C45.8376 54.6181 45.8563 54.5807 45.8563 54.5338C45.8563 54.4964 45.8376 54.4495 45.8001 54.4308L44.0767 53.4379C43.9455 53.363 43.805 53.363 43.6739 53.4379L41.9504 54.4308C41.9129 54.4495 41.8942 54.487 41.8942 54.5338C41.8942 54.5807 41.9129 54.6181 41.9504 54.6369L43.6739 55.6298ZM44.4513 56.0794L46.1748 57.0722C46.306 57.1472 46.4465 57.1472 46.5776 57.0722L48.3011 56.0794C48.3386 56.0606 48.3573 56.0232 48.3573 55.9763C48.3573 55.9295 48.3386 55.892 48.3011 55.8733L46.5776 54.8898C46.4465 54.8148 46.306 54.8148 46.1748 54.8898L44.4513 55.8827C44.4139 55.9014 44.3951 55.9389 44.3951 55.9857C44.3951 56.0232 44.4139 56.0606 44.4513 56.0794ZM46.9523 57.5219L48.6758 58.5147C48.8069 58.5897 48.9474 58.5897 49.0785 58.5147L50.802 57.5219C50.8395 57.5031 50.8582 57.4656 50.8582 57.4188C50.8582 57.372 50.8395 57.3345 50.802 57.3158L49.0785 56.3229C48.9474 56.248 48.8069 56.248 48.6758 56.3229L46.9523 57.3158C46.9148 57.3345 46.8961 57.372 46.8961 57.4188C46.8961 57.4656 46.9148 57.5031 46.9523 57.5219ZM49.4438 58.9643L51.1673 59.9572C51.2985 60.0322 51.439 60.0322 51.5701 59.9572L53.2936 58.9643C53.3311 58.9456 53.3498 58.9081 53.3498 58.8613C53.3498 58.8145 53.3311 58.777 53.2936 58.7583L51.5701 57.7654C51.439 57.6905 51.2985 57.6905 51.1673 57.7654L49.4438 58.7583C49.4064 58.777 49.3876 58.8145 49.3876 58.8613C49.3783 58.9081 49.4064 58.9456 49.4438 58.9643ZM51.9448 60.4068L53.6683 61.3997C53.7994 61.4746 53.9399 61.4746 54.071 61.3997L55.7945 60.4068C55.832 60.3881 55.8507 60.3506 55.8507 60.3038C55.8507 60.257 55.832 60.2195 55.7945 60.2008L54.071 59.2079C53.9399 59.1329 53.7994 59.1329 53.6683 59.2079L51.9448 60.2008C51.9073 60.2195 51.8886 60.257 51.8886 60.3038C51.8792 60.3413 51.9073 60.3881 51.9448 60.4068ZM54.4363 61.8493L56.1598 62.8422C56.291 62.9171 56.4315 62.9171 56.5532 62.8422L58.2767 61.8493C58.3142 61.8306 58.3329 61.7931 58.3329 61.7463C58.3329 61.7088 58.3142 61.662 58.2767 61.6432L56.5532 60.6504C56.4221 60.5754 56.2816 60.5754 56.1598 60.6504L54.4363 61.6432C54.3989 61.662 54.3801 61.6994 54.3801 61.7463C54.3801 61.7931 54.3989 61.8306 54.4363 61.8493ZM56.9373 63.2918L58.6608 64.2847C58.7919 64.3596 58.9324 64.3596 59.0542 64.2847L60.7777 63.2918C60.8151 63.2731 60.8339 63.2356 60.8339 63.1888C60.8339 63.1419 60.8151 63.1045 60.7777 63.0857L59.0542 62.0929C58.923 62.0179 58.7825 62.0179 58.6608 62.0929L56.9373 63.0857C56.8998 63.1045 56.8811 63.1419 56.8811 63.1888C56.8717 63.2356 56.8998 63.2637 56.9373 63.2918ZM59.4382 64.7343L61.1617 65.7272C61.2928 65.8021 61.4333 65.8021 61.5551 65.7272L63.2786 64.7343C63.3161 64.7156 63.3348 64.6781 63.3348 64.6313C63.3348 64.5844 63.3161 64.547 63.2786 64.5282L61.5551 63.5353C61.424 63.4604 61.2835 63.4604 61.1617 63.5353L59.4382 64.5282C59.4007 64.547 59.382 64.5844 59.382 64.6313C59.3726 64.6687 59.3914 64.7062 59.4382 64.7343ZM56.9373 66.1768L61.1523 68.6121C61.2835 68.6871 61.424 68.6871 61.5457 68.6121L63.2692 67.6193C63.3067 67.6005 63.3254 67.5631 63.3254 67.5162C63.3254 67.4788 63.3067 67.4319 63.2692 67.4132L59.0542 64.9778C58.923 64.9029 58.7825 64.9029 58.6608 64.9778L56.9373 65.9707C56.8998 65.9894 56.8811 66.0269 56.8811 66.0737C56.8717 66.1112 56.8998 66.158 56.9373 66.1768ZM41.1729 57.0722C41.3041 57.1472 41.4446 57.1472 41.5757 57.0722L43.2992 56.0794C43.3367 56.0606 43.3554 56.0232 43.3554 55.9763C43.3554 55.9295 43.3367 55.892 43.2992 55.8733L36.5926 51.9954C36.4614 51.9205 36.3209 51.9205 36.1898 51.9954L34.4663 52.9883C34.4288 53.0071 34.4101 53.0445 34.4101 53.0914C34.4101 53.1288 34.4288 53.1757 34.4663 53.1944L41.1729 57.0722ZM41.9504 57.5219L43.6739 58.5147C43.805 58.5897 43.9455 58.5897 44.0767 58.5147L45.8001 57.5219C45.8376 57.5031 45.8563 57.4656 45.8563 57.4188C45.8563 57.372 45.8376 57.3345 45.8001 57.3158L44.0767 56.3229C43.9455 56.248 43.805 56.248 43.6739 56.3229L41.9504 57.3158C41.9129 57.3345 41.8942 57.372 41.8942 57.4188C41.8942 57.4656 41.9129 57.5031 41.9504 57.5219ZM46.1748 59.9572C46.306 60.0322 46.4465 60.0322 46.5776 59.9572L48.3011 58.9643C48.3386 58.9456 48.3573 58.9081 48.3573 58.8613C48.3573 58.8145 48.3386 58.777 48.3011 58.7583L46.5776 57.7654C46.4465 57.6905 46.306 57.6905 46.1748 57.7654L44.4513 58.7583C44.4139 58.777 44.3951 58.8145 44.3951 58.8613C44.3951 58.9081 44.4139 58.9456 44.4513 58.9643L46.1748 59.9572ZM46.9523 60.4068L48.6758 61.3997C48.8069 61.4746 48.9474 61.4746 49.0785 61.3997L50.802 60.4068C50.8395 60.3881 50.8582 60.3506 50.8582 60.3038C50.8582 60.257 50.8395 60.2195 50.802 60.2008L49.0785 59.2079C48.9474 59.1329 48.8069 59.1329 48.6758 59.2079L46.9523 60.2008C46.9148 60.2195 46.8961 60.257 46.8961 60.3038C46.8867 60.3413 46.9148 60.3881 46.9523 60.4068ZM49.4532 61.8493L51.1767 62.8422C51.3078 62.9171 51.4483 62.9171 51.5795 62.8422L53.303 61.8493C53.3404 61.8306 53.3592 61.7931 53.3592 61.7463C53.3592 61.7088 53.3404 61.662 53.303 61.6432L51.5795 60.6504C51.4483 60.5754 51.3078 60.5754 51.1767 60.6504L49.4532 61.6432C49.4157 61.662 49.397 61.6994 49.397 61.7463C49.3783 61.7931 49.4064 61.8306 49.4532 61.8493ZM51.9448 63.2918L53.6683 64.2847C53.7994 64.3596 53.9399 64.3596 54.071 64.2847L55.7945 63.2918C55.832 63.2731 55.8507 63.2356 55.8507 63.1888C55.8507 63.1419 55.832 63.1045 55.7945 63.0857L54.071 62.0929C53.9399 62.0179 53.7994 62.0179 53.6683 62.0929L51.9448 63.0857C51.9073 63.1045 51.8886 63.1419 51.8886 63.1888C51.8792 63.2356 51.9073 63.2637 51.9448 63.2918ZM54.4363 64.7343L56.1598 65.7272C56.291 65.8021 56.4315 65.8021 56.5532 65.7272L58.2767 64.7343C58.3142 64.7156 58.3329 64.6781 58.3329 64.6313C58.3329 64.5844 58.3142 64.547 58.2767 64.5282L56.5532 63.5353C56.4221 63.4604 56.2816 63.4604 56.1598 63.5353L54.4363 64.5282C54.3989 64.547 54.3801 64.5844 54.3801 64.6313C54.3801 64.6687 54.3989 64.7062 54.4363 64.7343ZM31.9654 54.6462L33.6889 55.6391C33.82 55.7141 33.9605 55.7141 34.0823 55.6391L35.8058 54.6462C35.8432 54.6275 35.862 54.59 35.862 54.5432C35.862 54.5057 35.8432 54.4589 35.8058 54.4402L34.0823 53.4473C33.9511 53.3724 33.8106 53.3724 33.6889 53.4473L31.9654 54.4402C31.9279 54.4589 31.9092 54.4964 31.9092 54.5432C31.9092 54.5807 31.9279 54.6181 31.9654 54.6462ZM34.4663 56.0794L36.1898 57.0722C36.3209 57.1472 36.4614 57.1472 36.5832 57.0722L38.3067 56.0794C38.3442 56.0606 38.3629 56.0232 38.3629 55.9763C38.3629 55.9295 38.3442 55.892 38.3067 55.8733L36.5832 54.8898C36.4521 54.8148 36.3116 54.8148 36.1898 54.8898L34.4663 55.8827C34.4288 55.9014 34.4101 55.9389 34.4101 55.9857C34.4101 56.0232 34.4288 56.0606 34.4663 56.0794ZM36.9579 57.5219L38.6814 58.5147C38.8125 58.5897 38.953 58.5897 39.0748 58.5147L40.7983 57.5219C40.8357 57.5031 40.8545 57.4656 40.8545 57.4188C40.8545 57.372 40.8357 57.3345 40.7983 57.3158L39.0748 56.3229C38.9436 56.248 38.8031 56.248 38.6814 56.3229L36.9579 57.3158C36.9204 57.3345 36.9017 57.372 36.9017 57.4188C36.9017 57.4656 36.9204 57.5031 36.9579 57.5219ZM51.158 65.7272C51.2891 65.8021 51.4296 65.8021 51.5607 65.7272L53.2842 64.7343C53.3217 64.7156 53.3404 64.6781 53.3404 64.6313C53.3404 64.5844 53.3217 64.547 53.2842 64.5282C49.3783 62.2802 45.4817 60.0228 41.5757 57.7748C41.4446 57.6998 41.3041 57.6998 41.1729 57.7748L39.4495 58.7676C39.412 58.7864 39.3933 58.8238 39.3933 58.8707C39.3933 58.9175 39.412 58.955 39.4495 58.9737C43.3554 61.2217 47.2614 63.4698 51.158 65.7272ZM51.9448 66.1768L53.6683 67.1697C53.7994 67.2446 53.9399 67.2446 54.071 67.1697L55.7945 66.1768C55.832 66.158 55.8507 66.1206 55.8507 66.0737C55.8507 66.0269 55.832 65.9894 55.7945 65.9707L54.071 64.9778C53.9399 64.9029 53.7994 64.9029 53.6683 64.9778L51.9448 65.9707C51.9073 65.9894 51.8886 66.0269 51.8886 66.0737C51.8792 66.1112 51.9073 66.158 51.9448 66.1768ZM54.4363 67.6193L56.1598 68.6028C56.291 68.6777 56.4315 68.6777 56.5532 68.6028L58.2767 67.6099C58.3142 67.5912 58.3329 67.5537 58.3329 67.5069C58.3329 67.4694 58.3142 67.4226 58.2767 67.4038L56.5532 66.4203C56.4221 66.3454 56.2816 66.3454 56.1598 66.4203L54.4363 67.4038C54.3989 67.4226 54.3801 67.46 54.3801 67.5069C54.3801 67.5537 54.3989 67.5912 54.4363 67.6193ZM41.9504 48.8763L43.6739 49.8692C43.805 49.9441 43.9455 49.9441 44.0767 49.8692L44.7511 49.4851C44.7885 49.4664 44.8073 49.4289 44.8073 49.3821C44.8073 49.3446 44.7885 49.2978 44.7511 49.2791L43.0276 48.2862C42.8964 48.2112 42.7559 48.2112 42.6342 48.2862L41.9598 48.6796C41.9223 48.6983 41.9036 48.7358 41.9036 48.7826C41.8942 48.8107 41.9129 48.8576 41.9504 48.8763ZM46.1748 51.3023C46.306 51.3772 46.4465 51.3772 46.5776 51.3023L47.252 50.9089C47.2895 50.8902 47.3082 50.8527 47.3082 50.8059C47.3082 50.759 47.2895 50.7215 47.252 50.7028L45.5285 49.7099C45.3974 49.635 45.2569 49.635 45.1257 49.7099L44.4513 50.1033C44.4139 50.1221 44.3951 50.1595 44.3951 50.2064C44.3951 50.2532 44.4139 50.2907 44.4513 50.3094L46.1748 51.3023ZM48.6664 52.7541C48.7975 52.8291 48.938 52.8291 49.0692 52.7541L49.7436 52.3607C49.781 52.342 49.7998 52.3045 49.7998 52.2577C49.7998 52.2109 49.781 52.1734 49.7436 52.1547L48.0201 51.1618C47.8889 51.0869 47.7484 51.0869 47.6173 51.1618L46.9429 51.5552C46.9054 51.5739 46.8867 51.6114 46.8867 51.6582C46.8867 51.7051 46.9054 51.7425 46.9429 51.7613L48.6664 52.7541ZM51.158 54.1873C51.2891 54.2622 51.4296 54.2622 51.5607 54.1873L52.2351 53.8032C52.2726 53.7845 52.2913 53.747 52.2913 53.7002C52.2913 53.6534 52.2726 53.6159 52.2351 53.5972L50.5117 52.6043C50.3805 52.5293 50.24 52.5293 50.1089 52.6043L49.4345 52.9977C49.397 53.0164 49.3783 53.0539 49.3783 53.1007C49.3783 53.1476 49.397 53.185 49.4345 53.2038L51.158 54.1873ZM51.9448 54.6462L53.6683 55.6391C53.7994 55.7141 53.9399 55.7141 54.0617 55.6391L54.7361 55.2457C54.7735 55.227 54.7923 55.1895 54.7923 55.1427C54.7923 55.0958 54.7735 55.0584 54.7361 55.0396L53.0126 54.0468C52.8815 53.9718 52.741 53.9718 52.6192 54.0468L51.9448 54.4402C51.9073 54.4589 51.8886 54.4964 51.8886 54.5432C51.8792 54.5807 51.9073 54.6181 51.9448 54.6462ZM56.1598 57.0722C56.291 57.1472 56.4315 57.1472 56.5532 57.0722L57.2276 56.6788C57.2651 56.6601 57.2839 56.6226 57.2839 56.5758C57.2839 56.529 57.2651 56.4915 57.2276 56.4728L55.5042 55.4799C55.373 55.405 55.2325 55.405 55.1108 55.4799L54.4363 55.8733C54.3989 55.892 54.3801 55.9295 54.3801 55.9763C54.3801 56.0232 54.3989 56.0606 54.4363 56.0794L56.1598 57.0722ZM59.4382 58.9643L61.1617 59.9572C61.2928 60.0322 61.4333 60.0322 61.5551 59.9572L62.2202 59.5732C62.2576 59.5544 62.2764 59.517 62.2764 59.4701C62.2764 59.4327 62.2576 59.3858 62.2202 59.3671L60.4967 58.3742C60.3655 58.2993 60.225 58.2993 60.1033 58.3742L59.4289 58.7676C59.3914 58.7864 59.3726 58.8238 59.3726 58.8707C59.3726 58.9081 59.3914 58.9456 59.4382 58.9643ZM61.9298 60.4068L63.6533 61.3997C63.7844 61.4746 63.9249 61.4746 64.0467 61.3997L64.7211 61.0063C64.7586 60.9876 64.7773 60.9501 64.7773 60.9033C64.7773 60.8564 64.7586 60.819 64.7211 60.8002L62.9976 59.8073C62.8665 59.7324 62.726 59.7324 62.6042 59.8073L61.9298 60.2008C61.8923 60.2195 61.8736 60.257 61.8736 60.3038C61.8642 60.3413 61.8923 60.3881 61.9298 60.4068Z" fill="#53626B"/>
<path d="M77.4694 40.6429C76.6919 44.2491 75.9145 47.846 75.1277 51.4522C74.3502 55.049 73.5728 58.6552 72.7953 62.2521C67.8497 59.3952 62.9134 56.5477 57.9677 53.7002C53.0314 50.8527 48.0857 47.9958 43.1494 45.1483C43.2337 44.7736 43.3087 44.399 43.4023 44.0243C44.1798 40.4274 44.723 37.9546 45.4911 34.3578C46.2686 30.7609 47.046 27.1547 47.8234 23.5485C52.7598 26.396 57.6961 29.2528 62.6417 32.1004C67.578 34.9572 72.327 37.6923 77.2727 40.5492C77.3289 40.5679 77.3945 40.6054 77.4694 40.6429Z" fill="#002D4C"/>
<path d="M43.7584 70.7384C43.8895 70.8133 44.03 70.8133 44.1611 70.7384L50.5306 67.001C50.568 66.9823 50.5868 66.9448 50.5868 66.898V66.6732L31.9937 63.6477V63.8725C31.9937 63.9193 32.0124 63.9568 32.0499 63.9755L43.7584 70.7384Z" fill="#323E44"/>
<path d="M43.7584 70.4761C43.8896 70.551 44.0301 70.551 44.1519 70.4761L50.54 66.7668C50.5775 66.7481 50.5962 66.7106 50.5962 66.6638C50.5962 66.617 50.5775 66.5795 50.54 66.5608C46.6341 64.3127 42.7375 62.0553 38.8315 59.8073C38.7004 59.7324 38.5599 59.7324 38.4287 59.8073L32.0406 63.5166C32.0031 63.5353 31.9844 63.5728 31.9844 63.6196C31.9844 63.6664 32.0031 63.7039 32.0406 63.7226C35.9559 65.9707 39.8525 68.2187 43.7584 70.4761Z" fill="#53626B"/>
<path d="M55.0923 44.3709C55.4576 44.5769 55.7106 45.0921 55.7012 45.5417C55.7012 45.5979 55.6918 45.6447 55.6918 45.6916C55.6075 46.188 55.2235 46.4128 54.8207 46.1786C54.4086 45.9445 54.1463 45.345 54.2306 44.8392C54.3055 44.3521 54.6896 44.1273 55.0923 44.3428C55.0736 44.3615 55.083 44.3709 55.0923 44.3709Z" fill="white"/>
<path d="M55.757 39.9965C56.1598 40.2306 56.4314 40.8208 56.3471 41.3359C56.2628 41.8324 55.8788 42.0478 55.476 41.8136C55.4667 41.8043 55.4667 41.8043 55.4573 41.8043C55.0639 41.5607 54.8016 40.98 54.8766 40.4835C54.9609 39.9871 55.3355 39.7717 55.7383 39.9871C55.757 39.9871 55.757 39.9871 55.757 39.9965Z" fill="#75CFEB"/>
<path d="M61.7239 48.4829C62.136 48.7171 62.3983 49.3166 62.314 49.8224C62.2297 50.3188 61.855 50.5436 61.4429 50.3095C61.0401 50.0753 60.7685 49.4758 60.8528 48.97C60.8621 48.9138 60.8715 48.867 60.8902 48.8295C61.0026 48.4361 61.3586 48.2675 61.7239 48.4829C61.7145 48.4736 61.7145 48.4736 61.7239 48.4829Z" fill="white"/>
<path d="M59.8881 37.5987C60.3002 37.8328 60.5625 38.4323 60.4782 38.9381C60.4688 38.9662 60.4688 38.9849 60.4688 39.013C60.3658 39.4626 60.0005 39.65 59.6071 39.4252C59.223 39.2004 58.9701 38.6571 59.0076 38.17C59.0076 38.1419 59.0169 38.1138 59.0169 38.0951C59.0919 37.5893 59.4853 37.3739 59.8881 37.5987Z" fill="white"/>
<path d="M62.6603 43.9774C63.0724 44.2116 63.3347 44.8017 63.2504 45.3169C63.1661 45.8133 62.7914 46.0287 62.3793 45.7946C62.3699 45.7946 62.3699 45.7852 62.3699 45.7852C61.9765 45.551 61.7142 44.9609 61.7892 44.4645C61.8735 43.9587 62.2481 43.7526 62.6509 43.9774C62.6509 43.9774 62.6509 43.9774 62.6603 43.9774Z" fill="#75CFEB"/>
<path d="M57.6958 46.7031L55.6913 45.551L57.6958 46.7031ZM61.1428 48.6982L59.1383 47.5461L61.1428 48.6982ZM62.3604 45.7758L61.967 48.3423L62.3604 45.7758ZM63.0442 41.4109L62.6508 43.9774L63.0442 41.4109ZM60.4683 39.013L62.4541 40.1651L60.4683 39.013ZM57.0214 37.0178L59.0071 38.1699L57.0214 37.0178ZM55.7568 39.9965L56.1315 37.4206L55.7568 39.9965ZM55.0918 44.3708L55.4665 41.7949L55.0918 44.3708Z" stroke="white" stroke-width="0.2151" stroke-miterlimit="10" stroke-linecap="round"/>
<path d="M63.3348 39.5938C63.747 39.828 64.0092 40.4274 63.9249 40.9332C63.8406 41.4297 63.466 41.6545 63.0538 41.4203C63.0445 41.4203 63.0445 41.4109 63.0445 41.4109C62.6698 41.1861 62.4169 40.6429 62.4544 40.1652C62.4544 40.1371 62.4637 40.109 62.4637 40.0902C62.5387 39.5844 62.9321 39.3596 63.3348 39.5938Z" fill="white"/>
<path d="M58.5298 46.3566C58.8951 46.572 59.148 47.0779 59.1386 47.5275C59.1386 47.5837 59.1293 47.6305 59.1293 47.6867C59.045 48.1831 58.6703 48.4079 58.2582 48.1738C57.8554 47.9396 57.5931 47.3401 57.668 46.8437C57.6774 46.7875 57.6868 46.7406 57.7055 46.7032C57.8179 46.3098 58.1645 46.1505 58.5298 46.3566Z" fill="white"/>
<path d="M59.2042 41.9822C59.6163 42.2164 59.8786 42.8065 59.7943 43.3217C59.71 43.8181 59.3353 44.0336 58.9232 43.7994C58.5204 43.5652 58.2582 42.9751 58.3331 42.4787C58.4174 41.9635 58.8014 41.7481 59.2042 41.9822Z" fill="#75CFEB"/>
<path d="M56.4504 35.613C56.8532 35.8472 57.1248 36.4466 57.0405 36.9524C57.0311 36.9805 57.0311 36.9993 57.0311 37.0274C56.9281 37.477 56.5534 37.6549 56.1694 37.4395C56.16 37.4301 56.16 37.4301 56.1507 37.4301C55.7573 37.1866 55.495 36.5965 55.5699 36.1094C55.6449 35.5943 56.0383 35.3788 56.4504 35.613Z" fill="white"/>
<path opacity="0.35" d="M15.4423 67.5162L37.5012 80.3487C37.726 80.5736 37.9508 80.5736 38.4004 80.3487L49.2003 74.0449C49.6499 73.8201 49.6499 72.9209 49.2003 72.6961L27.1415 59.8635C26.9167 59.6387 26.6919 59.6387 26.2423 59.8635L15.4423 66.1674C14.7679 66.6076 14.7679 67.2914 15.4423 67.5162Z" fill="url(#paint1_linear)"/>
<path d="M14.5151 66.4766C14.1498 67.1697 14.3465 67.3477 14.59 67.5538L37.0516 80.5643C37.5012 80.7891 37.9508 80.7891 38.4004 80.3394L48.3011 64.8093C48.5259 64.5845 48.5259 64.3597 48.3011 63.9101L47.9545 63.4324V63.882L38.0257 79.4683C37.8009 79.9179 37.5012 80.3395 37.0516 79.8898L15.2176 67.0667L14.6743 66.2892L14.5151 66.4766Z" fill="#333333"/>
<path d="M14.5432 66.3829L24.6687 50.4031C24.8935 50.1783 25.1183 49.9535 25.5679 50.1783L47.8609 63.2356C48.0857 63.4605 48.3105 63.9101 48.0857 64.1349L37.9508 80.1146C37.726 80.3394 37.5012 80.5642 37.0516 80.3394L14.768 67.2915C14.3184 67.0667 14.3184 66.6171 14.5432 66.3829Z" fill="#53626B"/>
<path d="M25.3521 51.7614L46.5117 64.1443L37.0512 78.9907L15.8916 66.6077L25.3521 51.7614Z" fill="#002D4C"/>
<path d="M33.5771 65.802C33.6052 65.8208 33.6427 65.8395 33.6614 65.8676C33.8956 66.083 33.9518 66.4858 33.7738 66.8043C33.5959 67.1321 33.2493 67.282 32.9589 67.1789C32.9215 67.1696 32.8934 67.1508 32.8559 67.1321C32.8184 67.104 32.781 67.0759 32.7435 67.0478C32.528 66.8324 32.4812 66.4483 32.6498 66.1299C32.8184 65.8114 33.1463 65.6615 33.4366 65.7458C33.4928 65.7645 33.5397 65.7833 33.5771 65.802Z" fill="#50E6FF"/>
<path d="M34.5791 63.9193C34.6072 63.938 34.6447 63.9567 34.6821 63.9661L33.6705 65.8676C33.6424 65.8395 33.6143 65.8207 33.5862 65.802C33.5487 65.7739 33.5019 65.7551 33.4551 65.7458L34.4761 63.835C34.5042 63.8631 34.5416 63.8912 34.5791 63.9193Z" fill="white"/>
<path d="M29.5302 68.1719L31.1132 69.1367C31.0476 69.1929 30.9914 69.2678 30.9539 69.3521C30.9539 69.3615 30.9446 69.3615 30.9446 69.3708L29.4365 68.4435C29.4365 68.4341 29.4459 68.4341 29.4459 68.4248C29.4834 68.3405 29.5115 68.2562 29.5302 68.1719Z" fill="white"/>
<path d="M31.8627 69.0242C31.8908 69.043 31.9283 69.0617 31.947 69.0898C32.1812 69.3052 32.2374 69.708 32.0594 70.0359C31.8627 70.4012 31.4506 70.551 31.1509 70.3637C30.8511 70.1764 30.7575 69.7361 30.9448 69.3708C30.9448 69.3614 30.9542 69.3614 30.9542 69.3521C31.001 69.2678 31.0572 69.1928 31.1134 69.1366C31.2914 68.968 31.5255 68.9025 31.741 68.968C31.7784 68.9774 31.8253 68.9961 31.8627 69.0242Z" fill="white"/>
<path d="M32.7523 67.0479C32.7898 67.0853 32.8179 67.1134 32.8647 67.1321C32.8928 67.1509 32.9303 67.1696 32.9678 67.179L31.9562 69.0804C31.9281 69.0523 31.9 69.0336 31.8719 69.0149C31.8344 68.9868 31.7876 68.968 31.7407 68.9587L32.7523 67.0479Z" fill="white"/>
<path d="M26.6266 65.8115C26.6547 65.8302 26.6921 65.849 26.7109 65.8771C26.8888 66.0363 26.9638 66.2986 26.9076 66.5608C26.8888 66.6451 26.8607 66.7388 26.8139 66.8231C26.8139 66.8325 26.8045 66.8325 26.8045 66.8418C26.6078 67.1978 26.2051 67.3383 25.9053 67.1509C25.5962 66.9636 25.5025 66.5046 25.6993 66.1393C25.8679 65.8209 26.2051 65.6616 26.4861 65.7553C26.5423 65.7647 26.5797 65.7834 26.6266 65.8115Z" fill="white"/>
<path d="M26.9165 66.5608L28.4901 67.5256C28.4246 67.5818 28.3684 67.6567 28.3309 67.741C28.3309 67.7504 28.3215 67.7504 28.3215 67.7597L26.8135 66.8324C26.8135 66.8231 26.8228 66.8231 26.8228 66.8137C26.8697 66.7388 26.8978 66.6451 26.9165 66.5608Z" fill="white"/>
<path d="M27.5165 63.835C27.554 63.8724 27.5821 63.9005 27.6289 63.9193C27.657 63.938 27.6945 63.9567 27.7319 63.9661L26.7203 65.8676C26.6922 65.8395 26.6641 65.8207 26.636 65.802C26.5986 65.7739 26.5517 65.7551 26.5049 65.7458L27.5165 63.835Z" fill="white"/>
<path d="M28.3408 62.5892C28.3689 62.608 28.4064 62.6267 28.4251 62.6548C28.6593 62.8702 28.7155 63.273 28.5375 63.5915C28.3595 63.9193 28.013 64.0692 27.7226 63.9662C27.6851 63.9568 27.657 63.9381 27.6196 63.9193C27.5821 63.8912 27.5446 63.8631 27.5072 63.835C27.2917 63.6196 27.2449 63.2356 27.4135 62.9171C27.5821 62.5986 27.9193 62.4487 28.2003 62.533C28.2565 62.5424 28.294 62.5611 28.3408 62.5892Z" fill="#50E6FF"/>
<path d="M29.2304 60.6222C29.2678 60.6597 29.2959 60.6878 29.3428 60.7065C29.3709 60.7252 29.4083 60.744 29.4458 60.7533L28.4342 62.6548C28.4061 62.6267 28.378 62.608 28.3499 62.5892C28.3124 62.5611 28.2656 62.5424 28.2188 62.533L29.2304 60.6222Z" fill="white"/>
<path d="M30.0547 59.3764C30.3357 59.5544 30.4387 59.9572 30.2888 60.3131C30.2795 60.3412 30.2701 60.3599 30.2514 60.388C30.2139 60.4536 30.1764 60.5098 30.1296 60.5566C29.9423 60.7627 29.6706 60.847 29.4365 60.7627C29.399 60.7533 29.3709 60.7346 29.3334 60.7159C29.296 60.6878 29.2585 60.6597 29.221 60.6316C29.0056 60.4161 28.9588 60.0321 29.1274 59.7136C29.3334 59.3296 29.7456 59.1797 30.0547 59.3764Z" fill="white"/>
<path d="M32.6682 60.9782C32.9586 61.1562 33.0522 61.559 32.9024 61.9149C32.893 61.943 32.8836 61.9617 32.8649 61.9898C32.8274 62.0554 32.7899 62.1116 32.7525 62.1584C32.537 62.402 32.2186 62.4769 31.9563 62.3177C31.7034 62.1584 31.6004 61.8212 31.6753 61.5028C31.694 61.4372 31.7128 61.3716 31.7502 61.306C31.7596 61.2779 31.7783 61.2592 31.7971 61.2311C32.0125 60.9126 32.3872 60.8002 32.6682 60.9782Z" fill="white"/>
<path d="M31.6847 61.4934L30.1392 60.5474C30.186 60.5005 30.2235 60.4443 30.2609 60.3788C30.2703 60.3507 30.289 60.3319 30.2984 60.3038L31.8065 61.2311C31.7877 61.2499 31.7784 61.278 31.7596 61.3061C31.7222 61.3716 31.7034 61.4279 31.6847 61.4934Z" fill="white"/>
<path d="M35.2909 62.5893C35.6 62.7766 35.6937 63.2262 35.4876 63.6009C35.3097 63.9288 34.9631 64.0786 34.6727 63.9756C34.6353 63.9662 34.6072 63.9475 34.5697 63.9287C34.5322 63.9006 34.4948 63.8725 34.4573 63.8444C34.2793 63.6665 34.2231 63.3855 34.2887 63.1138C34.3074 63.0483 34.3355 62.9827 34.3636 62.9171C34.373 62.889 34.3917 62.8703 34.4105 62.8422C34.6259 62.5237 35.0006 62.4113 35.2909 62.5893Z" fill="white"/>
<path d="M34.3072 63.1045L32.7617 62.1585C32.8086 62.1116 32.846 62.0554 32.8741 61.9899C32.8835 61.9618 32.9022 61.943 32.9116 61.9149L34.429 62.8422C34.4103 62.861 34.4009 62.8891 34.3822 62.9172C34.3447 62.9734 34.3166 63.0389 34.3072 63.1045Z" fill="white"/>
<path d="M29.2397 67.4132C29.4832 67.5631 29.5863 67.8628 29.5301 68.172C29.5113 68.2563 29.4832 68.3499 29.4364 68.4342C29.4364 68.4436 29.427 68.4436 29.427 68.453C29.2303 68.8089 28.8276 68.9494 28.5278 68.7621C28.2281 68.5747 28.1344 68.1345 28.3217 67.7692C28.3217 67.7598 28.3311 67.7598 28.3311 67.7505C28.3779 67.6661 28.4341 67.5912 28.4903 67.535C28.7058 67.3289 29.0055 67.2727 29.2397 67.4132Z" fill="white"/>
<path d="M30.9541 64.2004C31.2632 64.3878 31.3475 64.8467 31.1508 65.212C30.9541 65.5773 30.5513 65.7272 30.2422 65.5399C29.9331 65.3525 29.8394 64.9029 30.0455 64.5283C30.2422 64.1536 30.6543 64.0131 30.9541 64.2004Z" fill="#50E6FF"/>
<path d="M75.1927 58.3837V61.8119L77.7592 63.4043L77.4407 63.5916L74.9023 61.9993V58.5429L75.1927 58.3837Z" fill="#75CFEB"/>
<path d="M72.6541 59.8729V63.2731L75.3424 64.7905L75.0052 64.9778L72.3169 63.4885V60.0884L72.6541 59.8729Z" fill="#5BCAED"/>
<path d="M70.2001 61.3341V64.7343L72.9446 66.1955L72.5231 66.4296L69.7786 64.9684L69.7505 61.5964L70.2001 61.3341Z" fill="#41C6F0"/>
<path d="M74.0967 58.2336C74.0967 57.9433 74.4901 57.7091 74.9865 57.7091C75.4736 57.7091 75.8764 57.9433 75.8764 58.2243C75.8764 58.5147 75.483 58.7488 74.9865 58.7488C74.4995 58.7488 74.0967 58.5147 74.0967 58.2336Z" fill="#75CFEB"/>
<path d="M71.521 59.6481C71.521 59.3577 71.9144 59.1235 72.4108 59.1235C72.8979 59.1235 73.3007 59.3577 73.3007 59.6387C73.3007 59.9291 72.9073 60.1633 72.4202 60.1633C71.9238 60.1633 71.521 59.9384 71.521 59.6481Z" fill="#60CBEB"/>
<path d="M71.9141 59.62C71.9141 59.442 72.1482 59.2921 72.4386 59.2921C72.729 59.2921 72.9631 59.4326 72.9631 59.6106C72.9631 59.7886 72.729 59.9384 72.4386 59.9384C72.1482 59.9384 71.9141 59.7979 71.9141 59.62Z" fill="white"/>
<path d="M74.4902 58.2056C74.4902 58.0277 74.7244 57.8778 75.0148 57.8778C75.3051 57.8778 75.5393 58.0183 75.5393 58.1963C75.5393 58.3742 75.3051 58.5241 75.0148 58.5241C74.7244 58.5241 74.4902 58.3836 74.4902 58.2056Z" fill="white"/>
<path d="M69.0854 61.2123C69.0854 60.9219 69.4789 60.6877 69.9753 60.6877C70.4624 60.6877 70.8651 60.9219 70.8651 61.2029C70.8651 61.4933 70.4717 61.7275 69.9753 61.7275C69.4882 61.7368 69.0854 61.5027 69.0854 61.2123Z" fill="#49C7F0"/>
<path d="M69.5068 61.2124C69.5068 61.0531 69.7129 60.922 69.9752 60.922C70.2374 60.922 70.4435 61.0531 70.4435 61.203C70.4435 61.3622 70.2374 61.4934 69.9752 61.4934C69.7129 61.5027 69.5068 61.3716 69.5068 61.2124Z" fill="white"/>
<path d="M76.9536 63.5635C76.9536 63.2731 77.347 63.0389 77.8435 63.0389C78.3399 63.0389 78.7333 63.2731 78.7333 63.5541C78.7333 63.8445 78.3399 64.0787 77.8435 64.0787C77.347 64.0787 76.9536 63.8539 76.9536 63.5635Z" fill="#75CFEB"/>
<path d="M77.3657 63.554C77.3657 63.3948 77.5718 63.2637 77.8341 63.2637C78.0963 63.2637 78.3024 63.3948 78.3024 63.5447C78.3024 63.7039 78.0963 63.835 77.8341 63.835C77.5718 63.835 77.3657 63.7133 77.3657 63.554Z" fill="white"/>
<path d="M74.5557 64.9872C74.5557 64.6968 74.9491 64.4626 75.4455 64.4626C75.9326 64.4626 76.3354 64.6968 76.3354 64.9778C76.3354 65.2682 75.9419 65.5024 75.4455 65.5024C74.9491 65.5024 74.5557 65.2682 74.5557 64.9872Z" fill="#60CBEB"/>
<path d="M74.9678 64.9779C74.9678 64.8186 75.1738 64.6875 75.4361 64.6875C75.6984 64.6875 75.9045 64.8186 75.9045 64.9685C75.9045 65.1277 75.6984 65.2589 75.4361 65.2589C75.1832 65.2682 74.9678 65.1465 74.9678 64.9779Z" fill="white"/>
<path d="M72.064 66.4672C72.064 66.1768 72.4574 65.9426 72.9538 65.9426C73.4409 65.9426 73.8437 66.1768 73.8437 66.4578C73.8437 66.7482 73.4502 66.9823 72.9538 66.9823C72.4667 66.9823 72.064 66.7482 72.064 66.4672Z" fill="#49C7F0"/>
<path d="M72.4854 66.4577C72.4854 66.2985 72.6914 66.1674 72.9537 66.1674C73.216 66.1674 73.422 66.2985 73.422 66.4484C73.422 66.6076 73.216 66.7387 72.9537 66.7387C72.6914 66.7481 72.4854 66.6263 72.4854 66.4577Z" fill="white"/>
<path d="M69.46 67.9751C69.46 67.6847 69.8534 67.4506 70.3498 67.4506C70.8369 67.4506 71.2397 67.6847 71.2397 67.9657C71.2397 68.2561 70.8462 68.4903 70.3498 68.4903C69.8534 68.4903 69.46 68.2561 69.46 67.9751Z" fill="#3EB8EA"/>
<path d="M69.8721 67.9658C69.8721 67.8065 70.0781 67.6754 70.3404 67.6754C70.6027 67.6754 70.8088 67.8065 70.8088 67.9564C70.8088 68.1157 70.6027 68.2468 70.3404 68.2468C70.0875 68.2562 69.8721 68.1344 69.8721 67.9658Z" fill="white"/>
<path opacity="0.4" d="M79.4543 77.0609L77.3936 78.1943L67.3149 72.6585L69.3756 71.5251L79.4543 77.0609Z" fill="#1F1D20"/>
<path d="M72.9258 54.5806C72.9632 54.1872 72.6635 53.8688 72.2701 53.8313C71.8767 53.7938 71.5582 54.0936 71.5207 54.487C71.4833 54.8804 71.783 55.1988 72.1764 55.2363C72.5698 55.2644 72.8977 54.9928 72.9258 54.5806Z" fill="#2E76BC"/>
<path d="M71.708 70.5135L73.3753 69.5581L75.7919 70.9538L74.1246 71.9092L71.708 70.5135Z" fill="#515659"/>
<path d="M74.1245 71.9185L75.7918 70.9631V71.8904L74.1245 72.8552V71.9185Z" fill="#515659"/>
<path d="M68.317 51.143L69.9562 50.1876L69.9188 66.2798L68.2515 67.2352L68.317 51.143Z" fill="#454C51"/>
<path d="M68.3169 51.143L69.9561 50.1876L79.2854 55.5454L77.6088 56.5289L68.3169 51.143Z" fill="white"/>
<path d="M72.6919 51.5927L74.3592 50.6373C74.4154 50.5998 74.5372 50.5998 74.6589 50.6747L72.9916 51.6302C72.8418 51.574 72.7481 51.574 72.6919 51.5927Z" fill="#515659"/>
<path d="M74.9303 51.63L73.263 52.5854C73.3192 52.548 73.3848 52.4637 73.3848 52.3232C73.3848 52.0609 73.2068 51.7611 72.9727 51.6394L74.6399 50.684C74.8741 50.8057 75.0521 51.1336 75.0521 51.3677C75.0427 51.5082 74.9865 51.5925 74.9303 51.63Z" fill="#515659"/>
<path d="M77.6092 56.5383L79.2765 55.5548L79.2391 71.647L77.5718 72.6305L77.6092 56.5383Z" fill="white"/>
<path d="M77.0098 52.698C77.7779 53.1476 78.4055 54.2529 78.4055 55.1147L78.3492 74.9536C78.3492 75.8434 77.7217 76.2087 76.9536 75.7591L68.1301 70.6729C67.7367 70.4669 67.4463 69.9236 67.4463 69.4833L67.5119 48.8108C67.5119 47.921 68.1394 47.5557 68.9075 48.0053L77.0098 52.698ZM77.5718 72.6306L77.628 56.5384L68.308 51.1431L68.2518 67.2353L77.5718 72.6306Z" fill="#53626B"/>
<path d="M77.6089 56.5382L77.5714 72.621L68.2515 67.2351L68.3077 51.1429L77.6089 56.5382Z" fill="#002D4C"/>
<path d="M78.0025 52.1172L69.9002 47.4057C69.5068 47.1996 69.1509 47.1715 68.9167 47.312L67.9238 47.8927C68.1861 47.7429 68.5139 47.771 68.9073 47.9864L77.019 52.6604C77.7871 53.1101 78.4146 54.2153 78.4146 55.0771L78.3584 74.916C78.3584 75.3656 78.2086 75.6653 77.9463 75.8058L78.9392 75.2251C79.1734 75.0752 79.3513 74.7755 79.3513 74.3352L79.4075 54.4963C79.4075 53.6346 78.7893 52.5293 78.0025 52.1172Z" fill="#323237"/>
<path d="M72.4199 70.6447C72.804 70.8695 73.1037 71.3847 73.1037 71.8156C73.1037 72.2465 72.7946 72.4338 72.4199 72.1996C72.064 71.9936 71.7549 71.4597 71.7549 71.0288C71.7549 70.5979 72.064 70.448 72.4199 70.6447Z" fill="#78787D"/>
<path d="M75.2862 65.5304C75.5672 65.6802 75.8013 66.0643 75.8013 66.4015C75.8013 66.7106 75.5765 66.8417 75.2862 66.6825C75.0052 66.5326 74.771 66.1486 74.771 65.8114C74.771 65.7833 74.771 65.7552 74.771 65.7364C74.8178 65.4835 75.0239 65.4086 75.2862 65.5304Z" fill="white"/>
<path d="M72.9256 64.1722C73.1785 64.3221 73.3846 64.6312 73.4127 64.9403C73.4127 64.9684 73.4127 65.0152 73.4127 65.0433C73.4127 65.3524 73.1879 65.4836 72.8975 65.3243C72.6165 65.1745 72.3823 64.7904 72.3823 64.4532C72.3823 64.4251 72.3823 64.397 72.3823 64.3783C72.4666 64.1254 72.6633 64.0224 72.9256 64.1722Z" fill="white"/>
<path d="M70.5652 62.814C70.8182 62.9639 71.0242 63.273 71.0523 63.5821C71.0523 63.6102 71.0523 63.657 71.0523 63.6851C71.0523 63.9942 70.8275 64.1254 70.5371 63.9662C70.2561 63.8163 70.022 63.4322 70.022 63.095C70.0501 62.7859 70.2749 62.6642 70.5652 62.814C70.5652 62.814 70.5371 62.814 70.5652 62.814Z" fill="white"/>
<path d="M72.926 58.6084C73.207 58.7583 73.4412 59.1423 73.4412 59.4795C73.4412 59.5076 73.4412 59.5076 73.4412 59.5357C73.4131 59.8167 73.2164 59.9198 72.926 59.7605C72.6731 59.6107 72.439 59.2454 72.439 58.9362C72.439 58.9081 72.439 58.9081 72.439 58.88C72.439 58.5803 72.6638 58.4492 72.926 58.6084Z" fill="white"/>
<path d="M75.5674 66.1768L75.6704 66.233C75.6704 66.1768 75.6142 66.1487 75.5674 66.1768Z" stroke="white" stroke-width="0.1854" stroke-miterlimit="10"/>
<path d="M70.5654 63.273L75.2863 65.9988V60.5567L70.5654 57.8309V63.273Z" stroke="white" stroke-width="0.1524" stroke-miterlimit="10"/>
<path d="M70.5651 60.0133C70.8461 60.1632 71.0803 60.5472 71.0803 60.8844C71.0803 61.1935 70.8555 61.3247 70.5651 61.1654C70.2841 61.0156 70.0781 60.6315 70.0781 60.2943C70.05 59.9946 70.2748 59.8635 70.5651 60.0133Z" fill="#77CFEA"/>
<path d="M75.3046 59.9666C75.5856 60.1164 75.8197 60.5005 75.8197 60.8377C75.8197 61.1468 75.5949 61.2779 75.3046 61.1187C75.0517 60.9688 74.8456 60.6035 74.8175 60.2944C74.8175 60.2663 74.8175 60.2663 74.8175 60.2382C74.7988 59.9385 75.0236 59.8073 75.3046 59.9666Z" fill="white"/>
<path d="M70.5652 57.2502C70.8462 57.4001 71.0804 57.7841 71.0804 58.1213C71.0804 58.1494 71.0804 58.1494 71.0804 58.1775C71.0523 58.4585 70.8556 58.5615 70.5652 58.4023C70.2842 58.2243 70.0781 57.8403 70.0781 57.5312C70.0781 57.194 70.3123 57.0628 70.5652 57.2502Z" fill="white"/>
<path d="M72.9258 61.3716C73.2068 61.5215 73.441 61.9055 73.441 62.2427C73.441 62.5518 73.2162 62.683 72.9258 62.5237C72.6448 62.3738 72.4106 61.9898 72.4106 61.6526C72.4387 61.3529 72.6448 61.2217 72.9258 61.3716Z" fill="#77CFEA"/>
<path d="M75.2864 62.7579C75.5674 62.9077 75.8016 63.2918 75.8016 63.629C75.8016 63.9381 75.5768 64.0692 75.2864 63.91C75.0054 63.7601 74.7993 63.3761 74.7993 63.0389C74.7993 62.711 75.0054 62.5799 75.2864 62.7579C75.2864 62.7391 75.2864 62.7391 75.2864 62.7579Z" fill="#77CFEA"/>
<defs>
<linearGradient id="paint0_linear" x1="52.9844" y1="-13.2938" x2="49.0017" y2="132.474" gradientUnits="userSpaceOnUse">
<stop stop-color="#00ABDE"/>
<stop offset="1" stop-color="#007ED8"/>
</linearGradient>
<linearGradient id="paint1_linear" x1="36.4735" y1="68.4241" x2="50.9221" y2="62.5831" gradientUnits="userSpaceOnUse">
<stop/>
<stop offset="0.8221" stop-opacity="0"/>
</linearGradient>
</defs>
</svg>
