<?xml version="1.0" encoding="UTF-8"?>
<svg width="234px" height="174px" viewBox="0 0 234 174" version="1.1" xmlns="http://www.w3.org/2000/svg" xmlns:xlink="http://www.w3.org/1999/xlink">
    <title>Stay current with Windows 10/stay-current-with-windows-10</title>
    <defs>
        <path d="M22.8002705,70.4413579 L104.705343,9.62750766 C112.005635,4.20710009 121.994365,4.20710009 129.294657,9.62750766 L211.19973,70.4413579 C220.344815,77.2315095 222.253866,90.1495716 215.463715,99.2946571 C214.258974,100.91722 212.822293,102.353902 211.19973,103.558642 L129.294657,164.372492 C121.994365,169.7929 112.005635,169.7929 104.705343,164.372492 L22.8002705,103.558642 C13.655185,96.7684905 11.7461338,83.8504284 18.5362855,74.7053429 C19.7410255,73.0827796 21.1777071,71.646098 22.8002705,70.4413579 Z" id="path-1"></path>
        <linearGradient x1="50%" y1="0%" x2="50%" y2="100%" id="linearGradient-3">
            <stop stop-color="#0062B3" offset="0%"></stop>
            <stop stop-color="#00549B" offset="100%"></stop>
        </linearGradient>
        <path d="M115.793482,4.12633238 L197.698554,64.9401826 C206.84364,71.7303342 208.752691,84.6483963 201.962539,93.7934818 C200.757799,95.4160452 199.321118,96.8527268 197.698554,98.0574668 L115.793482,158.871317 C108.49319,164.291725 98.5044598,164.291725 91.2041676,158.871317 L9.2990952,98.0574668 C0.154009679,91.2673152 -1.75504143,78.3492531 5.0351102,69.2041676 C6.23985027,67.5816043 7.67653187,66.1449227 9.2990952,64.9401826 L91.2041676,4.12633238 C98.5044598,-1.29407518 108.49319,-1.29407518 115.793482,4.12633238 Z M112.812807,8.14075346 C107.381131,4.10777796 99.9848807,4.03576054 94.483041,7.9247012 L94.1848426,8.14075346 L12.2797702,68.9546037 C11.0505756,69.8672707 9.96219824,70.955648 9.04953127,72.1848426 C3.9750741,79.0192032 5.31390446,88.6351042 12.001912,93.8319817 L12.2797702,94.0430458 L94.1848426,154.856896 C99.6165189,158.889871 107.012769,158.961889 112.514608,155.072948 L112.812807,154.856896 L194.717879,94.0430458 C195.947074,93.1303788 197.035451,92.0420014 197.948118,90.8128068 C203.022575,83.9784462 201.683745,74.3625453 194.995738,69.1656678 L194.717879,68.9546037 L112.812807,8.14075346 Z" id="path-4"></path>
        <linearGradient x1="50%" y1="100%" x2="50%" y2="0%" id="linearGradient-6">
            <stop stop-color="#D2EBFF" offset="0%"></stop>
            <stop stop-color="#F0FFFD" offset="100%"></stop>
        </linearGradient>
        <linearGradient x1="50%" y1="100%" x2="50%" y2="0%" id="linearGradient-7">
            <stop stop-color="#CCCCCC" offset="15%"></stop>
            <stop stop-color="#707070" offset="100%"></stop>
        </linearGradient>
        <filter x="-24.0%" y="-32.4%" width="148.0%" height="164.9%" filterUnits="objectBoundingBox" id="filter-8">
            <feOffset dx="0" dy="2" in="SourceAlpha" result="shadowOffsetOuter1"></feOffset>
            <feGaussianBlur stdDeviation="2" in="shadowOffsetOuter1" result="shadowBlurOuter1"></feGaussianBlur>
            <feColorMatrix values="0 0 0 0 0   0 0 0 0 0   0 0 0 0 0  0 0 0 0.1 0" type="matrix" in="shadowBlurOuter1" result="shadowMatrixOuter1"></feColorMatrix>
            <feMerge>
                <feMergeNode in="shadowMatrixOuter1"></feMergeNode>
                <feMergeNode in="SourceGraphic"></feMergeNode>
            </feMerge>
        </filter>
        <linearGradient x1="50%" y1="-9.18843242%" x2="50%" y2="153.851153%" id="linearGradient-9">
            <stop stop-color="#FFFFFF" offset="0%"></stop>
            <stop stop-color="#EFEFEF" offset="100%"></stop>
        </linearGradient>
        <filter x="-26.7%" y="-36.0%" width="153.3%" height="172.1%" filterUnits="objectBoundingBox" id="filter-10">
            <feOffset dx="0" dy="2" in="SourceAlpha" result="shadowOffsetOuter1"></feOffset>
            <feGaussianBlur stdDeviation="2" in="shadowOffsetOuter1" result="shadowBlurOuter1"></feGaussianBlur>
            <feColorMatrix values="0 0 0 0 0   0 0 0 0 0   0 0 0 0 0  0 0 0 0.1 0" type="matrix" in="shadowBlurOuter1" result="shadowMatrixOuter1"></feColorMatrix>
            <feMerge>
                <feMergeNode in="shadowMatrixOuter1"></feMergeNode>
                <feMergeNode in="SourceGraphic"></feMergeNode>
            </feMerge>
        </filter>
        <linearGradient x1="50%" y1="-9.18843242%" x2="50%" y2="153.851153%" id="linearGradient-11">
            <stop stop-color="#FFFFFF" offset="0%"></stop>
            <stop stop-color="#EFEFEF" offset="100%"></stop>
        </linearGradient>
    </defs>
    <g id="Badges" stroke="none" stroke-width="1" fill="none" fill-rule="evenodd">
        <g id="Stay-current-with-Windows-10" transform="translate(-93.000000, -43.000000)">
            <g id="Stay-current-with-Windows-10/stay-current-with-windows-10" transform="translate(132.000000, 69.000000)">
                <g id="Trophy-Plates/Football" transform="translate(28.000000, 11.000000)">
                    <g id="BG" transform="translate(-67.000000, -37.000000)">
                        <mask id="mask-2" fill="white">
                            <use xlink:href="#path-1"></use>
                        </mask>
                        <path stroke="#FFFFFF" stroke-width="5" d="M130.784995,7.62029712 C126.692384,4.58156703 121.846192,3.06220199 117,3.06220199 C112.153808,3.06220199 107.307616,4.58156703 103.215005,7.62029712 L21.309933,68.4341474 C19.4906853,69.784924 17.8798516,71.3957577 16.5290749,73.2150054 C12.7224538,78.341824 11.354259,84.5262253 12.2194241,90.3805771 C13.0845892,96.234929 16.1831143,101.759231 21.309933,105.565853 L103.215005,166.379703 C107.307616,169.418433 112.153808,170.937798 117,170.937798 C121.846192,170.937798 126.692384,169.418433 130.784995,166.379703 L212.690067,105.565853 C214.509315,104.215076 216.120148,102.604242 217.470925,100.784995 C221.277546,95.658176 222.645741,89.4737747 221.780576,83.6194229 C220.915411,77.765071 217.816886,72.2407685 212.690067,68.4341474 L130.784995,7.62029712 Z"></path>
                        <g id="Colors/Microsoft-365/BG-Gradient-3" mask="url(#mask-2)" fill="url(#linearGradient-3)">
                            <g transform="translate(0.501175, 0.501175)" id="Rectangle">
                                <rect x="0" y="0" width="233" height="173"></rect>
                            </g>
                        </g>
                    </g>
                    <g id="Border" transform="translate(-53.498825, -31.498825)">
                        <mask id="mask-5" fill="white">
                            <use xlink:href="#path-4"></use>
                        </mask>
                        <use fill="#000000" fill-rule="nonzero" xlink:href="#path-4"></use>
                        <g id="Colors/Microsoft-365/Border" mask="url(#mask-5)" fill="#0076D7">
                            <g transform="translate(-13.000000, -5.000000)" id="Microsoft-365/Border">
                                <rect x="0" y="0" width="233" height="173"></rect>
                            </g>
                        </g>
                    </g>
                </g>
                <g id="Computer" transform="translate(33.000000, 29.000000)" fill-rule="nonzero">
                    <rect id="Combined-Shape" fill="url(#linearGradient-6)" x="0" y="0" width="90" height="62.5423729" rx="0.6"></rect>
                    <path d="M64.1185678,81.6777099 C55.0677579,80.2017059 54.7118272,73.4542593 54.7118272,62.5423729 L36.7627493,62.5423729 C36.7627493,73.4542593 36.4576658,80.2017059 27.406856,81.6777099 C24.8190619,81.9745717 22.8656567,84.2500065 22.8813559,86.9491525 L68.6440678,86.9491525 C68.659767,84.2500065 66.7063618,81.9745717 64.1185678,81.6777099 Z" id="Path" fill="url(#linearGradient-7)"></path>
                </g>
                <g id="Group" transform="translate(57.500000, 0.500000)">
                    <circle id="Oval" fill="#7EC662" cx="20.5" cy="20.5" r="20.5"></circle>
                    <path d="M33.0170849,32.8866203 C32.2106338,32.8866203 31.5326988,32.2086853 31.5326988,31.4022342 L31.5326988,29.1113971 C28.9205393,32.468169 24.8556067,34.4994582 20.500771,34.4994582 C13.4681952,34.4994582 7.50045802,29.2410744 6.62981314,22.2414019 L6.5327874,21.531983 L9.50026889,21.531983 L9.56453337,22.0801116 C10.3722425,27.4681724 15.0496909,31.5320406 20.5006548,31.5320406 C24.3716199,31.5320406 27.9841981,29.4352679 29.9838741,26.1452701 L26.2741992,26.1452701 C25.4677482,26.1452701 24.7898132,25.4673351 24.7898132,24.6608841 C24.7898132,23.854433 25.4677482,23.176498 26.2741992,23.176498 L33.0483881,23.176498 C33.757807,23.176498 34.5,23.6275945 34.5,24.6608841 L34.5,31.4021697 C34.5,32.2098788 33.823323,32.8865558 33.016872,32.8865558 L33.0170849,32.8866203 Z M31.501215,19.4680167 L31.4369505,18.9197913 C30.6292414,13.5317305 25.951793,9.4678623 20.500829,9.4678623 C16.629864,9.4678623 13.0172858,11.564635 11.0176098,14.8546328 L14.6943814,14.8546328 C15.5008325,14.8546328 16.1787675,15.5325678 16.1787675,16.3390188 C16.1787675,17.1454699 15.5008325,17.8234049 14.6943814,17.8234049 L7.98438607,17.8221469 C7.3719994,17.7893856 6.5,17.4025342 6.5,16.3377608 L6.50126,9.59647512 C6.50126,8.79002406 7.17919501,8.11208905 7.98564736,8.11208905 C8.79209842,8.11208905 9.47003343,8.79002406 9.47003343,9.59647512 L9.47003343,11.8873122 C12.0809349,8.53183069 16.1458353,6.50054177 20.500671,6.50054177 C27.5332468,6.50054177 33.5009813,11.7589252 34.3716291,18.7585978 L34.4686549,19.4680167 L31.501215,19.4680167 Z" id="Fill-1" fill="#FFFFFF"></path>
                </g>
                <g id="windows-10" transform="translate(61.000000, 49.437500)" fill="#0076D7">
                    <polygon id="Path-103" points="9.66338121e-13 4.56198408 9.66338121e-13 16.384176 13.9936763 16.384176 13.9936763 2.42069575"></polygon>
                    <polygon id="Path-104" points="15.1156913 16.384176 33.7783535 16.384176 33.7783535 0 15.1156913 2.42069575"></polygon>
                    <polygon id="Path-105" points="9.66338121e-13 17.3940522 9.66338121e-13 29.0821787 13.9936763 31.3468824 13.9936763 17.3940522"></polygon>
                    <polygon id="Path-106" points="15.1156913 17.3940522 15.1156913 31.3468824 33.7783535 34.0219266 33.7783535 17.3940522"></polygon>
                </g>
                <g id="Cloud-White" filter="url(#filter-8)" transform="translate(0.000000, 29.286815)" fill="url(#linearGradient-9)" fill-rule="nonzero">
                    <g id="Group-31">
                        <g id="Icon-migrate-281-Azure-Migrate">
                            <path d="M49.6385542,24.5212279 C49.4680343,18.9812001 45.3676325,14.3812438 39.9504778,13.6528471 C39.6168304,5.8519279 33.1643369,-0.228710118 25.4697133,0.00660543726 C19.3766107,-0.0581618476 13.8985799,3.76186622 11.7763191,9.55550228 C5.1703993,10.3342615 0.143589491,15.9369335 0,22.680895 C0.38669521,30.1742697 6.57115785,36.0013419 13.9672622,35.841011 L37.9307021,35.841011 L38.5469049,35.841011 C44.6604768,35.7470109 49.5835033,30.7227272 49.6385542,24.5212279 L49.6385542,24.5212279 Z" id="Path"></path>
                        </g>
                    </g>
                </g>
                <g id="Cloud-White" filter="url(#filter-10)" transform="translate(110.000000, 50.500000)" fill="url(#linearGradient-11)" fill-rule="nonzero">
                    <g id="Group-31">
                        <g id="Icon-migrate-281-Azure-Migrate">
                            <path d="M44.6746988,22.0691051 C44.5212309,17.0830801 40.8308693,12.9431194 35.95543,12.2875624 C35.6551474,5.26673511 29.8479032,-0.205839106 22.922742,0.00594489354 C17.4389496,-0.0523456628 12.5087219,3.3856796 10.5986872,8.59995205 C4.65335937,9.30083534 0.129230541,14.3432401 0,20.4128055 C0.348025689,27.1568427 5.91404206,32.4012077 12.5705359,32.2569099 L34.1376319,32.2569099 L34.6922144,32.2569099 C40.1944291,32.1723098 44.625153,27.6504545 44.6746988,22.0691051 L44.6746988,22.0691051 Z" id="Path"></path>
                        </g>
                    </g>
                </g>
            </g>
        </g>
    </g>
</svg>