<svg width="100" height="100" viewBox="0 0 100 100" fill="none" xmlns="http://www.w3.org/2000/svg">
<g clip-path="url(#clip0_944_1183)">
<path d="M49.6401 96.45C40.382 96.45 31.3317 93.7047 23.6339 88.5611C15.936 83.4176 9.93624 76.1068 6.3933 67.5534C2.85036 59 1.92337 49.5881 3.72954 40.5078C5.53571 31.4276 9.99394 23.0868 16.5404 16.5403C23.0869 9.99384 31.4277 5.53562 40.5079 3.72945C49.5882 1.92327 59.0001 2.85027 67.5535 6.39321C76.1069 9.93614 83.4176 15.9359 88.5612 23.6338C93.7047 31.3316 96.4501 40.3819 96.4501 49.64C96.4505 55.7873 95.24 61.8745 92.8878 67.5539C90.5355 73.2334 87.0875 78.3938 82.7407 82.7406C78.3939 87.0874 73.2335 90.5354 67.554 92.8877C61.8746 95.2399 55.7874 96.4504 49.6401 96.45V96.45Z" fill="url(#paint0_linear_944_1183)"/>
<path fill-rule="evenodd" clip-rule="evenodd" d="M95.54 49.64C95.54 58.7182 92.848 67.5925 87.8045 75.1407C82.7609 82.6889 75.5923 88.572 67.2052 92.0461C58.818 95.5201 49.5891 96.4291 40.6854 94.658C31.7816 92.887 23.603 88.5154 17.1838 82.0962C10.7646 75.677 6.39302 67.4984 4.62196 58.5946C2.85089 49.6909 3.75987 40.462 7.23393 32.0748C10.708 23.6877 16.5911 16.5191 24.1393 11.4755C31.6875 6.43199 40.5618 3.74 49.64 3.74C55.6677 3.73998 61.6363 4.9272 67.2052 7.23388C72.774 9.54057 77.834 12.9215 82.0963 17.1837C86.3585 21.446 89.7394 26.5059 92.0461 32.0748C94.3528 37.6437 95.54 43.6123 95.54 49.64V49.64ZM49.64 3.62732e-07C59.4579 3.62732e-07 69.0553 2.91134 77.2185 8.36585C85.3818 13.8204 91.7442 21.5731 95.5014 30.6436C99.2585 39.7141 100.242 49.6951 98.3262 59.3243C96.4108 68.9535 91.6831 77.7985 84.7408 84.7408C77.7985 91.6831 68.9535 96.4108 59.3243 98.3262C49.6951 100.242 39.7141 99.2585 30.6436 95.5014C21.5731 91.7442 13.8204 85.3818 8.36585 77.2185C2.91134 69.0553 3.62732e-07 59.4579 3.62732e-07 49.64C-0.000787738 43.121 1.28265 36.6656 3.77702 30.6427C6.27138 24.6197 9.9278 19.1471 14.5375 14.5375C19.1471 9.9278 24.6197 6.27138 30.6427 3.77702C36.6656 1.28265 43.121 -0.000787738 49.64 3.62732e-07V3.62732e-07Z" fill="#F2F1F0"/>
<path fill-rule="evenodd" clip-rule="evenodd" d="M92.7296 49.6401C92.7296 58.1625 90.2024 66.4935 85.4676 73.5796C80.7328 80.6657 74.0031 86.1887 66.1294 89.4501C58.2557 92.7114 49.5918 93.5648 41.2331 91.9021C32.8745 90.2395 25.1966 86.1356 19.1703 80.1093C13.1441 74.0831 9.04017 66.4052 7.37753 58.0465C5.7149 49.6879 6.56822 41.0239 9.8296 33.1503C13.091 25.2766 18.6139 18.5469 25.7 13.8121C32.7862 9.07727 41.1172 6.55009 49.6396 6.55009C55.2983 6.54974 60.9017 7.66407 66.1298 9.82942C71.3579 11.9948 76.1082 15.1687 80.1096 19.1701C84.1109 23.1714 87.2849 27.9218 89.4502 33.1499C91.6156 38.3779 92.7299 43.9813 92.7296 49.6401V49.6401ZM49.6396 2.81009C58.9017 2.81009 67.9558 5.55662 75.6569 10.7024C83.3581 15.8481 89.3604 23.162 92.9049 31.719C96.4493 40.2761 97.3767 49.692 95.5697 58.7762C93.7628 67.8603 89.3027 76.2046 82.7534 82.7539C76.2041 89.3032 67.8598 93.7633 58.7757 95.5703C49.6915 97.3772 40.2756 96.4498 31.7185 92.9054C23.1614 89.3609 15.8476 83.3586 10.7018 75.6574C5.5561 67.9563 2.80957 58.9022 2.80957 49.6401C2.81076 37.2204 7.745 25.3097 16.5271 16.5276C25.3091 7.7455 37.2198 2.81125 49.6396 2.81006V2.81009Z" fill="#0078D4"/>
<path fill-rule="evenodd" clip-rule="evenodd" d="M92.7637 49.6401C92.7637 58.1625 90.2366 66.4935 85.5018 73.5796C80.767 80.6657 74.0372 86.1887 66.1636 89.4501C58.2899 92.7114 49.6259 93.5648 41.2673 91.9021C32.9087 90.2395 25.2308 86.1356 19.2045 80.1093C13.1783 74.0831 9.07435 66.4052 7.41171 58.0465C5.74908 49.6879 6.6024 41.0239 9.86378 33.1503C13.1252 25.2766 18.6481 18.5469 25.7342 13.8121C32.8203 9.07727 41.1514 6.55009 49.6738 6.55009C55.3325 6.54974 60.9359 7.66407 66.164 9.82942C71.3921 11.9948 76.1424 15.1687 80.1437 19.1701C84.1451 23.1714 87.3191 27.9218 89.4844 33.1499C91.6498 38.3779 92.7641 43.9813 92.7637 49.6401V49.6401ZM49.6738 2.81009C58.9359 2.81009 67.9899 5.55662 75.6911 10.7024C83.3923 15.8481 89.3946 23.162 92.939 31.719C96.4835 40.2761 97.4109 49.692 95.6039 58.7762C93.797 67.8603 89.3369 76.2046 82.7876 82.7539C76.2383 89.3032 67.894 93.7633 58.8098 95.5703C49.7257 97.3772 40.3097 96.4498 31.7527 92.9054C23.1956 89.3609 15.8818 83.3586 10.736 75.6574C5.59028 67.9563 2.84375 58.9022 2.84375 49.6401C2.84494 37.2204 7.77918 25.3097 16.5612 16.5276C25.3433 7.7455 37.254 2.81125 49.6738 2.81006V2.81009Z" fill="#0078D4"/>
<path opacity="0.2" d="M72.8735 41.9801H26.4057C26.3137 41.9798 26.2226 41.9978 26.1376 42.0329C26.0526 42.068 25.9753 42.1195 25.9103 42.1845C25.8452 42.2496 25.7937 42.3268 25.7586 42.4119C25.7235 42.4969 25.7056 42.588 25.7058 42.68V78.9383C25.7065 79.1802 25.803 79.412 25.974 79.5831C26.1451 79.7541 26.3769 79.8505 26.6188 79.8512H72.6605C72.9024 79.8505 73.1342 79.7541 73.3052 79.583C73.4762 79.412 73.5726 79.1802 73.5734 78.9383V42.68C73.5736 42.588 73.5557 42.4969 73.5206 42.4119C73.4855 42.3268 73.434 42.2496 73.3689 42.1845C73.3039 42.1195 73.2266 42.0679 73.1416 42.0328C73.0566 41.9978 72.9654 41.9798 72.8735 41.9801V41.9801Z" fill="#003067"/>
<path d="M26.6187 78.2389H72.6604C72.9023 78.2382 73.1341 78.1418 73.3052 77.9707C73.4762 77.7996 73.5726 77.5679 73.5733 77.326V41.3797H25.7058V77.326C25.7065 77.5679 25.8029 77.7997 25.974 77.9707C26.145 78.1418 26.3768 78.2382 26.6187 78.2389Z" fill="#003067"/>
<path d="M25.7058 45.3584H73.5733V41.0677C73.5736 40.9757 73.5557 40.8846 73.5206 40.7996C73.4855 40.7145 73.4339 40.6373 73.3689 40.5722C73.3039 40.5072 73.2266 40.4556 73.1416 40.4206C73.0566 40.3855 72.9654 40.3675 72.8735 40.3678H26.4057C26.3137 40.3675 26.2226 40.3855 26.1376 40.4206C26.0526 40.4556 25.9753 40.5072 25.9103 40.5722C25.8452 40.6373 25.7937 40.7145 25.7586 40.7995C25.7235 40.8846 25.7056 40.9757 25.7058 41.0677V45.3584Z" fill="url(#paint1_linear_944_1183)"/>
<path d="M29.3882 44.1791C29.6282 44.1783 29.8625 44.1064 30.0617 43.9725C30.2608 43.8385 30.4157 43.6485 30.5069 43.4265C30.598 43.2045 30.6213 42.9604 30.5737 42.7252C30.5262 42.49 30.4099 42.2741 30.2397 42.105C30.0695 41.9358 29.8529 41.8209 29.6174 41.7748C29.3818 41.7287 29.1379 41.7535 28.9165 41.8461C28.6951 41.9386 28.506 42.0947 28.3733 42.2947C28.2406 42.4947 28.1702 42.7295 28.1709 42.9695C28.1696 43.1293 28.2003 43.2878 28.2611 43.4357C28.3219 43.5835 28.4116 43.7177 28.525 43.8304C28.6384 43.9431 28.7732 44.032 28.9214 44.0919C29.0696 44.1517 29.2283 44.1814 29.3882 44.1791V44.1791Z" fill="#50E6FF"/>
<path d="M45.5673 67.1838L53.5734 58.5364C56.411 58.8078 57.3604 58.2057 58.1974 57.3019C58.6908 56.6971 59.0276 55.9801 59.1781 55.2143C59.3286 54.4485 59.2881 53.6573 59.0602 52.9109L56.2754 55.8184C56.186 55.9117 56.0634 55.9662 55.9341 55.9699C55.8049 55.9737 55.6793 55.9264 55.5847 55.8383L54.446 54.777L53.3074 53.7159C53.2127 53.6275 53.1563 53.5055 53.1505 53.3761C53.1447 53.2466 53.1898 53.1201 53.2762 53.0235L55.961 50.0223C55.2019 49.8496 54.4119 49.8675 53.6614 50.0746C52.911 50.2817 52.2235 50.6715 51.6604 51.2091C50.8123 52.1253 50.3318 53.0924 50.7471 55.7551L42.5948 64.5608C40.79 64.4124 39.337 64.5202 38.1439 65.8096C37.6504 66.4142 37.3134 67.1311 37.1629 67.8969C37.0124 68.6628 37.0529 69.4539 37.2809 70.2003L40.0655 67.2923C40.1549 67.1988 40.2775 67.1443 40.4068 67.1406C40.5361 67.1369 40.6616 67.1844 40.7562 67.2727L41.8948 68.3345L43.0335 69.3951C43.1282 69.4835 43.1846 69.6055 43.1905 69.735C43.1964 69.8645 43.1514 69.9912 43.0651 70.0879L40.3801 73.0879C41.1228 73.2551 41.8949 73.2413 42.6312 73.0476C43.3675 72.8539 44.0465 72.4859 44.6108 71.9749C45.5126 71.0488 46.0459 70.0035 45.5673 67.1838Z" fill="#9CEBFF"/>
<path opacity="0.2" d="M51.1948 56.5475L51.8943 57.1978L43.4104 66.3233L42.7109 65.6731L51.1948 56.5475Z" fill="#53B1E0"/>
<path opacity="0.17" d="M48.3477 58.1152L51.8796 60.3922L50.4698 62.1077L48.3477 58.1152Z" fill="#1F56A3"/>
<path d="M42.1072 53.749L43.1591 52.7368L53.4211 63.4022L52.3691 64.4144L42.1072 53.749Z" fill="white"/>
<path d="M61.6987 68.6296L58.1067 64.8874L56.6813 64.8416L56.6505 63.3695L55.1634 61.8198C55.1186 61.7755 55.0656 61.7405 55.0073 61.7167C54.949 61.6929 54.8866 61.6808 54.8236 61.6812C54.7606 61.6815 54.6983 61.6943 54.6403 61.7187C54.5822 61.7432 54.5296 61.7788 54.4853 61.8236L52.5523 63.6911L52.5538 63.6932L52.552 63.6913L50.7125 65.4682C50.6232 65.5547 50.5717 65.673 50.5694 65.7973C50.5671 65.9216 50.6141 66.0418 50.7001 66.1316L52.1871 67.6808L53.6173 67.801L53.6434 69.1985L57.2348 72.9408C57.3976 73.1109 57.5925 73.2473 57.8083 73.3419C58.024 73.4366 58.2563 73.4876 58.4918 73.4922C58.7273 73.4968 58.9614 73.4548 59.1806 73.3686C59.3999 73.2825 59.5999 73.1538 59.7693 72.9901L60.6546 72.1349L60.6391 72.1187L60.6556 72.1346L61.5858 71.2361C61.9451 70.9047 62.1586 70.4445 62.1797 69.9562C62.2009 69.4678 62.028 68.9909 61.6987 68.6296V68.6296Z" fill="#0078D4"/>
<path d="M41.2712 49.8069C41.2153 49.7486 41.1485 49.7019 41.0746 49.6695C41.0006 49.637 40.921 49.6195 40.8403 49.618C40.7596 49.6164 40.6793 49.6308 40.6042 49.6603C40.529 49.6898 40.4604 49.7338 40.4024 49.7899L39.2957 50.8589C39.1784 50.9726 39.1108 51.1281 39.1078 51.2915C39.1047 51.4549 39.1665 51.6128 39.2795 51.7308L41.1056 53.634L42.1219 53.7487L43.1733 52.7335L43.0839 51.6962L41.2712 49.8069Z" fill="white"/>
<path d="M41.0654 53.592L41.1065 53.6345L42.1222 53.7486L43.1735 52.7334L43.0846 51.696L43.0576 51.668L41.0654 53.592Z" fill="#F2F2F2"/>
<path d="M58.8453 70.8772C58.9031 70.9374 58.9346 71.018 58.9331 71.1014C58.9315 71.1848 58.8969 71.2642 58.8369 71.3221L58.6616 71.4917C58.6319 71.5203 58.5969 71.5428 58.5586 71.5579C58.5202 71.573 58.4793 71.5803 58.4381 71.5795C58.3969 71.5787 58.3563 71.5698 58.3185 71.5533C58.2808 71.5368 58.2467 71.513 58.2182 71.4833L54.9743 68.1027C54.9165 68.0426 54.885 67.9619 54.8865 67.8785C54.8881 67.7951 54.9227 67.7158 54.9827 67.6578L55.158 67.4882C55.1876 67.4596 55.2226 67.4371 55.261 67.422C55.2993 67.407 55.3403 67.3996 55.3815 67.4004C55.4227 67.4012 55.4633 67.4101 55.501 67.4266C55.5388 67.4432 55.5729 67.467 55.6014 67.4967L58.8453 70.8772Z" fill="#1B93EB"/>
<path d="M60.3011 69.4706C60.3588 69.5307 60.3904 69.6112 60.3889 69.6946C60.3874 69.7779 60.353 69.8572 60.2932 69.9152L60.1176 70.0849C60.0879 70.1135 60.0529 70.136 60.0146 70.1511C59.9762 70.1661 59.9353 70.1735 59.8941 70.1727C59.8529 70.1719 59.8123 70.163 59.7745 70.1464C59.7368 70.1299 59.7027 70.1061 59.6742 70.0764L56.4319 66.6969C56.3743 66.6367 56.3428 66.5562 56.3443 66.4728C56.3458 66.3895 56.3803 66.3101 56.4401 66.2521L56.6153 66.0832C56.6449 66.0546 56.6799 66.0321 56.7182 66.0171C56.7566 66.002 56.7975 65.9947 56.8387 65.9955C56.8799 65.9963 56.9205 66.0052 56.9582 66.0218C56.9959 66.0384 57.03 66.0622 57.0585 66.092L60.3011 69.4706Z" fill="#1B93EB"/>
<path d="M27.8946 32.6738L34.4913 21.4124C34.6028 21.2221 34.7621 21.0643 34.9534 20.9546C35.1448 20.845 35.3615 20.7872 35.5821 20.7872C35.8026 20.7872 36.0193 20.845 36.2107 20.9546C36.402 21.0643 36.5614 21.2221 36.6729 21.4124L43.2696 32.6738C43.3821 32.8658 43.4419 33.0842 43.4429 33.3067C43.444 33.5293 43.3863 33.7482 43.2756 33.9413C43.1649 34.1344 43.0052 34.2949 42.8126 34.4065C42.62 34.5181 42.4014 34.5769 42.1788 34.5769H28.9853C28.7628 34.5769 28.5441 34.5181 28.3515 34.4065C28.159 34.2949 27.9993 34.1345 27.8886 33.9413C27.7779 33.7482 27.7202 33.5293 27.7212 33.3067C27.7223 33.0842 27.7821 32.8658 27.8946 32.6738V32.6738Z" fill="#FF9300"/>
<path d="M28.9857 33.7341C28.9115 33.7341 28.8386 33.7146 28.7744 33.6774C28.7102 33.6403 28.657 33.5868 28.6201 33.5225C28.5832 33.4581 28.5639 33.3852 28.5642 33.311C28.5645 33.2368 28.5844 33.164 28.6219 33.1L35.2184 21.8384C35.2556 21.775 35.3088 21.7223 35.3726 21.6858C35.4364 21.6492 35.5087 21.63 35.5823 21.63C35.6558 21.63 35.7281 21.6493 35.7919 21.6859C35.8557 21.7225 35.9088 21.7752 35.946 21.8386L42.5425 33.0998C42.58 33.1638 42.5999 33.2366 42.6002 33.3107C42.6006 33.3849 42.5814 33.4579 42.5445 33.5222C42.5077 33.5866 42.4544 33.6401 42.3903 33.6773C42.3261 33.7145 42.2533 33.7341 42.1791 33.7341L28.9857 33.7341Z" fill="#FFCA00"/>
<path d="M35.582 25.561V29.5977" stroke="#FF9300" stroke-width="0.84277" stroke-miterlimit="10" stroke-linecap="round"/>
<path d="M35.5822 32.1515C35.8908 32.1515 36.141 31.9014 36.141 31.5928C36.141 31.2842 35.8908 31.034 35.5822 31.034C35.2736 31.034 35.0234 31.2842 35.0234 31.5928C35.0234 31.9014 35.2736 32.1515 35.5822 32.1515Z" fill="#FF9300"/>
<path d="M56.0828 32.6738L62.6795 21.4124C62.791 21.2221 62.9503 21.0643 63.1417 20.9546C63.333 20.845 63.5497 20.7872 63.7703 20.7872C63.9909 20.7872 64.2076 20.845 64.3989 20.9546C64.5903 21.0643 64.7496 21.2221 64.8611 21.4124L71.4578 32.6738C71.5703 32.8658 71.6301 33.0842 71.6312 33.3067C71.6322 33.5293 71.5745 33.7482 71.4638 33.9413C71.3531 34.1344 71.1934 34.2949 71.0008 34.4065C70.8082 34.5181 70.5896 34.5769 70.367 34.5769H57.1736C56.951 34.5769 56.7324 34.5181 56.5398 34.4065C56.3472 34.2949 56.1875 34.1345 56.0768 33.9413C55.9661 33.7482 55.9084 33.5293 55.9094 33.3067C55.9105 33.0842 55.9703 32.8658 56.0828 32.6738V32.6738Z" fill="#FF9300"/>
<path d="M57.1737 33.7341C57.0995 33.7341 57.0266 33.7146 56.9624 33.6774C56.8982 33.6403 56.845 33.5868 56.8081 33.5225C56.7711 33.4581 56.7519 33.3852 56.7522 33.311C56.7525 33.2368 56.7724 33.164 56.8099 33.1L63.4064 21.8384C63.4436 21.775 63.4968 21.7223 63.5606 21.6858C63.6244 21.6492 63.6967 21.63 63.7702 21.63C63.8438 21.63 63.9161 21.6493 63.9799 21.6859C64.0437 21.7225 64.0968 21.7752 64.134 21.8386L70.7305 33.0998C70.7679 33.1638 70.7879 33.2366 70.7882 33.3107C70.7886 33.3849 70.7694 33.4579 70.7325 33.5222C70.6956 33.5866 70.6424 33.6401 70.5783 33.6773C70.5141 33.7145 70.4413 33.7341 70.3671 33.7341L57.1737 33.7341Z" fill="#FFCA00"/>
<path d="M63.7703 25.561V29.5977" stroke="#FF9300" stroke-width="0.84277" stroke-miterlimit="10" stroke-linecap="round"/>
<path d="M63.7702 32.1515C64.0788 32.1515 64.3289 31.9014 64.3289 31.5928C64.3289 31.2842 64.0788 31.034 63.7702 31.034C63.4616 31.034 63.2114 31.2842 63.2114 31.5928C63.2114 31.9014 63.4616 32.1515 63.7702 32.1515Z" fill="#FF9300"/>
<path d="M49.6402 40.3678V38.9253C49.6402 38.7525 49.6062 38.5814 49.54 38.4218C49.4739 38.2621 49.377 38.1171 49.2548 37.9949C49.1326 37.8727 48.9876 37.7758 48.8279 37.7097C48.6683 37.6435 48.4972 37.6095 48.3244 37.6095H36.8981C36.7253 37.6095 36.5542 37.5755 36.3945 37.5094C36.2349 37.4432 36.0898 37.3463 35.9677 37.2241C35.8455 37.1019 35.7486 36.9569 35.6824 36.7973C35.6163 36.6376 35.5823 36.4665 35.5823 36.2937V35.2244" stroke="white" stroke-width="0.80285" stroke-miterlimit="10"/>
<path d="M49.6401 40.3678V38.9253C49.6401 38.5763 49.7788 38.2417 50.0255 37.9949C50.2723 37.7481 50.607 37.6095 50.9559 37.6095H62.3823C62.7313 37.6095 63.0659 37.4709 63.3127 37.2241C63.5595 36.9774 63.6981 36.6427 63.6981 36.2937V35.2244" stroke="white" stroke-width="0.80285" stroke-miterlimit="10"/>
<path d="M49.6396 38.9253V28.6651" stroke="white" stroke-width="0.80285" stroke-miterlimit="10"/>
<path fill-rule="evenodd" clip-rule="evenodd" d="M49.6763 29.4699C48.2906 29.4699 46.9361 29.0591 45.784 28.2893C44.6319 27.5195 43.734 26.4253 43.2037 25.1451C42.6734 23.865 42.5347 22.4564 42.805 21.0974C43.0753 19.7384 43.7426 18.49 44.7224 17.5103C45.7022 16.5305 46.9505 15.8632 48.3095 15.5929C49.6685 15.3226 51.0771 15.4613 52.3573 15.9916C53.6374 16.5219 54.7316 17.4198 55.5014 18.5719C56.2712 19.724 56.6821 21.0786 56.6821 22.4642C56.682 24.3222 55.9439 26.1041 54.6301 27.418C53.3162 28.7318 51.5343 29.4699 49.6763 29.4699V29.4699Z" fill="white"/>
<path fill-rule="evenodd" clip-rule="evenodd" d="M52.8945 20.5209C52.7302 20.3566 52.5073 20.2643 52.2749 20.2643C52.0425 20.2643 51.8197 20.3566 51.6553 20.5209L48.7667 23.4073L47.7233 22.3739C47.6989 22.3377 47.6714 22.3037 47.641 22.2724C47.4777 22.109 47.2564 22.0167 47.0254 22.0156C46.7944 22.0146 46.5723 22.1049 46.4076 22.2669C46.2429 22.4289 46.1489 22.6495 46.1461 22.8805C46.1432 23.1115 46.2318 23.3342 46.3925 23.5002L46.382 23.5107L48.1497 25.2622C48.3142 25.4265 48.5371 25.5187 48.7695 25.5187C49.002 25.5187 49.2249 25.4265 49.3894 25.2622L52.8919 21.7612L52.8945 21.7591C52.9759 21.6779 53.0404 21.5813 53.0845 21.4751C53.1285 21.3689 53.1512 21.255 53.1512 21.14C53.1512 21.025 53.1285 20.9111 53.0845 20.8049C53.0404 20.6987 52.9759 20.6021 52.8945 20.5209V20.5209Z" fill="#0078D4"/>
</g>
<defs>
<linearGradient id="paint0_linear_944_1183" x1="47.8697" y1="-15.1531" x2="51.8525" y2="130.615" gradientUnits="userSpaceOnUse">
<stop stop-color="#00ABDE"/>
<stop offset="1" stop-color="#007ED8"/>
</linearGradient>
<linearGradient id="paint1_linear_944_1183" x1="25.7058" y1="42.8631" x2="73.6591" y2="42.8631" gradientUnits="userSpaceOnUse">
<stop stop-color="#005BA1"/>
<stop offset="0.26" stop-color="#00589D"/>
<stop offset="0.53" stop-color="#004F90"/>
<stop offset="0.8" stop-color="#003F7C"/>
<stop offset="1" stop-color="#003067"/>
</linearGradient>
<clipPath id="clip0_944_1183">
<rect width="99.2799" height="99.28" fill="white"/>
</clipPath>
</defs>
</svg>
