<svg width="100" height="100" viewBox="0 0 100 100" fill="none" xmlns="http://www.w3.org/2000/svg">
<g clip-path="url(#clip0)">
<path d="M49.6396 96.4501C40.3815 96.4501 31.3312 93.7047 23.6334 88.5612C15.9355 83.4176 9.93575 76.1069 6.39281 67.5535C2.84987 59.0001 1.92288 49.5882 3.72905 40.5079C5.53523 31.4277 9.99345 23.0869 16.5399 16.5404C23.0864 9.99393 31.4272 5.53571 40.5074 3.72954C49.5877 1.92337 58.9996 2.85036 67.553 6.3933C76.1064 9.93624 83.4172 15.936 88.5607 23.6339C93.7042 31.3317 96.4496 40.382 96.4496 49.6401C96.45 55.7874 95.2395 61.8746 92.8873 67.554C90.535 73.2335 87.087 78.3939 82.7402 82.7407C78.3934 87.0875 73.233 90.5355 67.5535 92.8878C61.8741 95.24 55.7869 96.4505 49.6396 96.4501V96.4501Z" fill="url(#paint0_linear)"/>
<path fill-rule="evenodd" clip-rule="evenodd" d="M95.5402 49.711C95.5402 58.7892 92.8483 67.6635 87.8047 75.2117C82.7611 82.7599 75.5925 88.6431 67.2054 92.1171C58.8183 95.5912 49.5893 96.5001 40.6856 94.7291C31.7819 92.958 23.6033 88.5865 17.184 82.1672C10.7648 75.748 6.39326 67.5694 4.6222 58.6657C2.85114 49.762 3.76011 40.533 7.23417 32.1459C10.7082 23.7587 16.5914 16.5901 24.1396 11.5466C31.6878 6.50303 40.5621 3.81105 49.6402 3.81105C55.6679 3.81102 61.6366 4.99825 67.2054 7.30493C72.7743 9.61161 77.8343 12.9926 82.0965 17.2548C86.3587 21.517 89.7397 26.577 92.0464 32.1459C94.353 37.7147 95.5403 43.6834 95.5402 49.711V49.711ZM49.6402 0.0710453C59.4581 0.0710453 69.0555 2.98238 77.2188 8.43689C85.382 13.8914 91.7445 21.6441 95.5016 30.7146C99.2588 39.7852 100.242 49.7661 98.3264 59.3953C96.4111 69.0245 91.6833 77.8696 84.741 84.8118C77.7987 91.7541 68.9537 96.4819 59.3245 98.3972C49.6953 100.313 39.7144 99.3296 30.6438 95.5724C21.5733 91.8153 13.8206 85.4528 8.36609 77.2896C2.91158 69.1263 0.000244503 59.5289 0.000244503 49.711C-0.000543598 43.192 1.2829 36.7367 3.77726 30.7137C6.27162 24.6907 9.92805 19.2182 14.5377 14.6085C19.1474 9.99885 24.62 6.34242 30.6429 3.84806C36.6659 1.3537 43.1212 0.0702572 49.6402 0.0710453V0.0710453Z" fill="#F2F1F0"/>
<path fill-rule="evenodd" clip-rule="evenodd" d="M92.7303 49.6402C92.7303 58.1626 90.2031 66.4936 85.4683 73.5797C80.7335 80.6658 74.0038 86.1888 66.1301 89.4502C58.2565 92.7116 49.5925 93.5649 41.2339 91.9023C32.8752 90.2396 25.1973 86.1357 19.1711 80.1094C13.1448 74.0832 9.0409 66.4053 7.37827 58.0466C5.71563 49.688 6.56895 41.024 9.83033 33.1504C13.0917 25.2767 18.6147 18.547 25.7008 13.8122C32.7869 9.0774 41.1179 6.55021 49.6403 6.55021C55.2991 6.54987 60.9025 7.66419 66.1305 9.82954C71.3586 11.9949 76.109 15.1689 80.1103 19.1702C84.1116 23.1716 87.2856 27.9219 89.451 33.15C91.6163 38.378 92.7306 43.9815 92.7303 49.6402V49.6402ZM49.6403 2.81021C58.9024 2.81021 67.9565 5.55674 75.6577 10.7025C83.3588 15.8482 89.3611 23.1621 92.9056 31.7191C96.45 40.2762 97.3774 49.6922 95.5705 58.7763C93.7635 67.8604 89.3034 76.2047 82.7541 82.754C76.2048 89.3033 67.8605 93.7634 58.7764 95.5704C49.6923 97.3773 40.2763 96.4499 31.7192 92.9055C23.1622 89.361 15.8483 83.3587 10.7026 75.6576C5.55683 67.9564 2.8103 58.9023 2.8103 49.6402C2.81149 37.2205 7.74573 25.3098 16.5278 16.5277C25.3099 7.74562 37.2206 2.81137 49.6403 2.81018V2.81021Z" fill="#0078D4"/>
<path d="M25.3924 30.7965C24.2248 30.8 23.1059 31.2653 22.2803 32.091C21.4546 32.9166 20.9893 34.0354 20.9858 35.2031V66.0491H78.2711V35.2031C78.2677 34.0354 77.8023 32.9166 76.9767 32.0909C76.151 31.2653 75.0322 30.7999 73.8645 30.7965L25.3924 30.7965ZM73.8645 32.9998C74.4486 33.0006 75.0086 33.233 75.4216 33.646C75.8346 34.059 76.067 34.619 76.0678 35.2031V63.8457H23.1891V35.2031C23.1897 34.6189 23.422 34.0588 23.8351 33.6458C24.2482 33.2327 24.8082 33.0004 25.3924 32.9998L73.8645 32.9998Z" fill="url(#paint1_linear)"/>
<path d="M23.189 35.203C23.1896 34.6189 23.4219 34.0588 23.8349 33.6457C24.248 33.2326 24.8081 33.0003 25.3923 32.9998H73.8644C74.4485 33.0005 75.0085 33.2329 75.4215 33.6459C75.8345 34.059 76.0669 34.6189 76.0677 35.203V63.8457H23.189V35.203Z" fill="url(#paint2_linear)"/>
<path d="M14.376 66.0491V67.1507C14.3794 68.3183 14.8448 69.4371 15.6704 70.2628C16.4961 71.0884 17.6149 71.5538 18.7825 71.5572H80.4743C81.642 71.5538 82.7608 71.0884 83.5865 70.2628C84.4121 69.4371 84.8775 68.3183 84.8809 67.1507V66.0491H14.376Z" fill="url(#paint3_linear)"/>
<path fill-rule="evenodd" clip-rule="evenodd" d="M45.2218 68.2523H54.0349C54.6192 68.2521 55.1795 68.0199 55.5926 67.6068C56.0058 67.1936 56.238 66.6333 56.2382 66.0491H43.0186C43.0186 66.6334 43.2507 67.1938 43.6639 67.607C44.0771 68.0201 44.6375 68.2523 45.2218 68.2523V68.2523Z" fill="#003067"/>
<path opacity="0.2" d="M58.8553 71.5571C56.2621 69.3991 52.9949 68.2174 49.6212 68.2174C46.2474 68.2174 42.9802 69.3991 40.387 71.5571H58.8553Z" fill="#003067"/>
<path d="M65.1327 22.8098H34.1241C33.9653 22.8098 33.808 22.8411 33.6613 22.9019C33.5146 22.9626 33.3813 23.0517 33.269 23.164C33.1567 23.2763 33.0676 23.4096 33.0068 23.5563C32.9461 23.703 32.9148 23.8603 32.9148 24.0191V63.8458H66.342V24.0191C66.3401 23.699 66.212 23.3925 65.9857 23.1661C65.7593 22.9397 65.4529 22.8117 65.1327 22.8098V22.8098Z" fill="white"/>
<path fill-rule="evenodd" clip-rule="evenodd" d="M51.7088 17.2386C52.2749 17.5496 52.746 18.0085 53.0718 18.5663C53.3975 19.124 53.5658 19.7598 53.5586 20.4057V20.7296C53.5586 20.8447 53.5514 20.9599 53.5442 21.0751H56.0707C56.4399 21.0714 56.8036 21.1644 57.1257 21.345C57.4477 21.5256 57.7168 21.7874 57.9062 22.1044C58.1452 22.4689 58.2816 22.891 58.3011 23.3265C58.3206 23.7619 58.2224 24.1945 58.017 24.5789C57.8115 24.9633 57.5063 25.2853 57.1335 25.511C56.7606 25.7368 56.3338 25.8579 55.898 25.8617H43.1864C42.8172 25.8654 42.4535 25.7723 42.1314 25.5917C41.8094 25.4111 41.5403 25.1493 41.3509 24.8324C41.1119 24.4679 40.9755 24.0457 40.956 23.6103C40.9365 23.1749 41.0347 22.7422 41.2401 22.3578C41.4456 21.9734 41.7508 21.6514 42.1237 21.4257C42.4966 21.2 42.9234 21.0789 43.3592 21.0751H45.7057C45.6985 20.9599 45.6913 20.8448 45.6913 20.7296V20.6288C45.6953 19.9275 45.8847 19.2398 46.2402 18.6353C46.5958 18.0308 47.1048 17.5311 47.7158 17.1868C48.3269 16.8426 49.018 16.6661 49.7193 16.6751C50.4205 16.6842 51.1069 16.8786 51.7088 17.2386V17.2386Z" fill="#1F56A3"/>
<path d="M49.628 21.5644C49.9355 21.5644 50.2361 21.4732 50.4918 21.3023C50.7475 21.1315 50.9467 20.8887 51.0644 20.6046C51.1821 20.3205 51.2129 20.0079 51.1529 19.7063C51.0929 19.4047 50.9448 19.1277 50.7274 18.9102C50.5099 18.6928 50.2329 18.5447 49.9313 18.4847C49.6297 18.4247 49.3171 18.4555 49.033 18.5732C48.7489 18.6909 48.5061 18.8901 48.3353 19.1458C48.1644 19.4015 48.0732 19.7021 48.0732 20.0096C48.0733 20.4219 48.2371 20.8174 48.5286 21.109C48.8202 21.4005 49.2156 21.5643 49.628 21.5644V21.5644Z" fill="#F9F9F9"/>
<path fill-rule="evenodd" clip-rule="evenodd" d="M41.3056 60.0254C40.5442 60.0254 39.8 59.7996 39.1669 59.3767C38.5339 58.9537 38.0404 58.3525 37.7491 57.6491C37.4577 56.9456 37.3815 56.1716 37.53 55.4249C37.6786 54.6782 38.0452 53.9923 38.5836 53.4539C39.1219 52.9155 39.8078 52.5489 40.5546 52.4004C41.3013 52.2519 42.0753 52.3281 42.7787 52.6195C43.4821 52.9108 44.0833 53.4042 44.5063 54.0373C44.9293 54.6703 45.155 55.4146 45.155 56.1759C45.155 57.1969 44.7494 58.176 44.0275 58.8979C43.3056 59.6198 42.3265 60.0254 41.3056 60.0254V60.0254Z" fill="#E8E8E8"/>
<path fill-rule="evenodd" clip-rule="evenodd" d="M41.3056 49.9205C40.5442 49.9205 39.8 49.6948 39.1669 49.2718C38.5339 48.8488 38.0405 48.2476 37.7491 47.5442C37.4577 46.8408 37.3815 46.0668 37.53 45.3201C37.6786 44.5733 38.0452 43.8874 38.5835 43.3491C39.1219 42.8107 39.8078 42.4441 40.5545 42.2955C41.3013 42.147 42.0753 42.2232 42.7787 42.5146C43.4821 42.8059 44.0833 43.2993 44.5063 43.9324C44.9293 44.5654 45.155 45.3097 45.155 46.0711C45.155 47.092 44.7495 48.0711 44.0275 48.793C43.3056 49.5149 42.3265 49.9205 41.3056 49.9205V49.9205Z" fill="#72C472"/>
<path fill-rule="evenodd" clip-rule="evenodd" d="M43.0741 45.0033C42.9838 44.913 42.8613 44.8623 42.7336 44.8623C42.6059 44.8623 42.4835 44.913 42.3931 45.0033L40.806 46.5893L40.2327 46.0215C40.2192 46.0016 40.2041 45.9829 40.1874 45.9657C40.0978 45.8753 39.9761 45.8242 39.8488 45.8234C39.7216 45.8226 39.5992 45.8722 39.5085 45.9614C39.4178 46.0506 39.3661 46.1722 39.3648 46.2994C39.3634 46.4266 39.4126 46.5492 39.5014 46.6403L39.4956 46.6461L40.4669 47.6085C40.5573 47.6987 40.6798 47.7494 40.8075 47.7494C40.9352 47.7494 41.0577 47.6987 41.1481 47.6085L43.0726 45.6848L43.074 45.6837C43.1187 45.639 43.1542 45.586 43.1784 45.5276C43.2026 45.4692 43.2151 45.4067 43.2151 45.3435C43.2151 45.2803 43.2026 45.2177 43.1784 45.1593C43.1542 45.101 43.1188 45.0479 43.0741 45.0033V45.0033Z" fill="white"/>
<path d="M49.7285 43.7721H58.9135C59.1031 43.7721 59.2908 43.8094 59.4659 43.882C59.6411 43.9545 59.8002 44.0609 59.9343 44.1949C60.0683 44.3289 60.1746 44.4881 60.2472 44.6632C60.3197 44.8384 60.3571 45.0261 60.3571 45.2156C60.3571 45.5985 60.205 45.9657 59.9343 46.2364C59.6635 46.5071 59.2964 46.6592 58.9135 46.6592H49.7285C49.5389 46.6592 49.3512 46.6219 49.176 46.5493C49.0009 46.4768 48.8418 46.3704 48.7077 46.2364C48.5737 46.1023 48.4673 45.9432 48.3948 45.7681C48.3222 45.5929 48.2849 45.4052 48.2849 45.2156V45.2156C48.2849 44.8328 48.437 44.4656 48.7077 44.1949C48.9784 43.9242 49.3456 43.7721 49.7285 43.7721Z" fill="#E8E8E8"/>
<path d="M49.7285 49.5463H60.3571C60.7399 49.5463 61.1071 49.6984 61.3778 49.9691C61.6485 50.2398 61.8006 50.607 61.8006 50.9898C61.8006 51.1794 61.7633 51.3671 61.6907 51.5422C61.6182 51.7174 61.5119 51.8765 61.3778 52.0106C61.2438 52.1446 61.0846 52.2509 60.9095 52.3235C60.7344 52.396 60.5466 52.4334 60.3571 52.4334H49.7285C49.5389 52.4334 49.3512 52.396 49.176 52.3235C49.0009 52.2509 48.8418 52.1446 48.7077 52.0106C48.5737 51.8765 48.4673 51.7174 48.3948 51.5422C48.3222 51.3671 48.2849 51.1794 48.2849 50.9898V50.9898C48.2849 50.607 48.437 50.2398 48.7077 49.9691C48.9784 49.6984 49.3456 49.5463 49.7285 49.5463Z" fill="#E8E8E8"/>
<path d="M49.7285 55.3206H56.7482C57.131 55.3206 57.4982 55.4726 57.7689 55.7434C58.0396 56.0141 58.1917 56.3813 58.1917 56.7641V56.7641C58.1917 57.147 58.0397 57.5141 57.7689 57.7849C57.4982 58.0556 57.131 58.2077 56.7482 58.2077H49.7285C49.3456 58.2077 48.9784 58.0556 48.7077 57.7849C48.437 57.5141 48.2849 57.147 48.2849 56.7641V56.7641C48.2849 56.3813 48.437 56.0141 48.7077 55.7434C48.9784 55.4726 49.3456 55.3206 49.7285 55.3206Z" fill="#E8E8E8"/>
<path d="M55.0656 32.487L51.9363 32.4854L51.5388 32.9906V36.3389C51.6401 36.8139 51.9014 37.2398 52.279 37.5454C52.6566 37.8509 53.1277 38.0176 53.6134 38.0176C54.0991 38.0176 54.5702 37.8509 54.9478 37.5454C55.3254 37.2398 55.5867 36.8139 55.688 36.3389V32.9906C55.6706 32.842 55.5958 32.7061 55.4795 32.612C55.3631 32.5178 55.2146 32.473 55.0656 32.487V32.487Z" fill="#5059C9"/>
<path d="M53.8437 32.0243C54.1172 32.0243 54.3846 31.9432 54.6121 31.7912C54.8395 31.6393 55.0168 31.4233 55.1215 31.1706C55.2262 30.9178 55.2536 30.6397 55.2002 30.3715C55.1469 30.1032 55.0152 29.8567 54.8217 29.6633C54.6283 29.4699 54.3819 29.3381 54.1136 29.2848C53.8453 29.2314 53.5672 29.2588 53.3145 29.3635C53.0618 29.4681 52.8458 29.6454 52.6938 29.8728C52.5418 30.1003 52.4607 30.3677 52.4607 30.6412C52.4607 31.008 52.6064 31.3598 52.8658 31.6192C53.1251 31.8786 53.4769 32.0243 53.8437 32.0243V32.0243Z" fill="#5059C9"/>
<path d="M46.4675 37.4436V33.01C46.4675 32.9411 46.4811 32.8729 46.5075 32.8092C46.5338 32.7456 46.5725 32.6877 46.6212 32.639C46.6699 32.5903 46.7277 32.5516 46.7914 32.5253C46.855 32.4989 46.9233 32.4854 46.9922 32.4854H51.9362C52.0753 32.4853 52.2087 32.5406 52.3071 32.639C52.4055 32.7374 52.4608 32.8708 52.4608 33.01V37.4436C52.4608 38.2072 52.1575 38.9395 51.6175 39.4794C51.0776 40.0193 50.3453 40.3227 49.5817 40.3227H49.3466C48.5831 40.3227 47.8508 40.0193 47.3108 39.4794C46.7709 38.9395 46.4676 38.2072 46.4676 37.4436L46.4675 37.4436Z" fill="#7B83EB"/>
<path d="M49.6947 32.0243C50.0594 32.0243 50.4159 31.9162 50.7192 31.7136C51.0224 31.5109 51.2588 31.2229 51.3984 30.886C51.5379 30.549 51.5745 30.1782 51.5033 29.8205C51.4322 29.4628 51.2565 29.1342 50.9986 28.8763C50.7407 28.6184 50.4121 28.4428 50.0544 28.3716C49.6967 28.3005 49.3259 28.337 48.989 28.4766C48.652 28.6161 48.364 28.8525 48.1614 29.1558C47.9587 29.459 47.8506 29.8155 47.8506 30.1803C47.8506 30.6693 48.0449 31.1384 48.3907 31.4842C48.7365 31.8301 49.2056 32.0243 49.6947 32.0243V32.0243Z" fill="#7B83EB"/>
<path opacity="0.5" d="M46.5251 38.0176H48.4143C49.1213 38.0176 49.6947 37.738 49.6947 37.0246V32.4854H46.9995C46.7057 32.4854 46.4675 33.6456 46.4675 33.9394V37.4436C46.4675 37.6364 46.4868 37.8286 46.5251 38.0176V38.0176Z" fill="black"/>
<path opacity="0.5" d="M49.6635 32.0212C49.6234 31.8894 49.5422 31.7737 49.4316 31.6914C49.3211 31.609 49.1871 31.5641 49.0493 31.5634H48.4866C48.812 31.8509 49.2292 32.0132 49.6635 32.0212V32.0212Z" fill="black"/>
<path d="M48.5881 31.1023H43.4247C43.2535 31.1023 43.0894 31.1703 42.9683 31.2913C42.8473 31.4124 42.7793 31.5765 42.7793 31.7477V36.9111C42.7793 36.9959 42.796 37.0798 42.8284 37.1581C42.8609 37.2364 42.9084 37.3076 42.9683 37.3675C43.0283 37.4275 43.0994 37.475 43.1777 37.5074C43.256 37.5399 43.34 37.5566 43.4247 37.5566H48.5881C48.6729 37.5566 48.7568 37.5399 48.8351 37.5074C48.9134 37.475 48.9846 37.4275 49.0445 37.3675C49.1045 37.3076 49.152 37.2364 49.1844 37.1581C49.2169 37.0798 49.2336 36.9959 49.2336 36.9111V31.7477C49.2336 31.5765 49.1656 31.4124 49.0445 31.2913C48.9235 31.1703 48.7593 31.1023 48.5881 31.1023V31.1023Z" fill="#4B53BC"/>
<path d="M48.0764 33.0174H46.6421V36.6031H45.925V33.0174H44.4907V32.3003H48.0764V33.0174Z" fill="white"/>
<path d="M42.051 56.1759C42.051 56.3263 42.0064 56.4734 41.9228 56.5984C41.8393 56.7235 41.7205 56.821 41.5815 56.8786C41.4425 56.9361 41.2896 56.9512 41.142 56.9218C40.9945 56.8925 40.859 56.8201 40.7526 56.7137C40.6462 56.6073 40.5738 56.4718 40.5444 56.3242C40.5151 56.1767 40.5301 56.0238 40.5877 55.8848C40.6453 55.7458 40.7428 55.627 40.8678 55.5434C40.9929 55.4599 41.14 55.4153 41.2904 55.4153C41.4921 55.4155 41.6854 55.4957 41.828 55.6383C41.9706 55.7809 42.0508 55.9742 42.051 56.1759ZM43.4567 55.7662L43.103 55.6876C43.0664 55.6742 43.0365 55.647 43.0199 55.6118L43.0157 55.6004L42.9181 55.3632L42.9125 55.3511C42.9059 55.3331 42.903 55.3139 42.9038 55.2948C42.9046 55.2757 42.9092 55.2569 42.9173 55.2395L43.1119 54.9337C43.1517 54.8675 43.1687 54.7901 43.1603 54.7133C43.1518 54.6365 43.1185 54.5646 43.0653 54.5086L42.9577 54.401C42.9011 54.3487 42.8293 54.316 42.7528 54.3076C42.6763 54.2992 42.5991 54.3156 42.5326 54.3544L42.2267 54.5489C42.2072 54.5586 42.1856 54.5633 42.1638 54.5626C42.1472 54.5632 42.1306 54.5602 42.1152 54.5538L42.103 54.5482L41.8659 54.4505L41.8545 54.4464C41.8193 54.4297 41.792 54.3998 41.7787 54.3632L41.7001 54.0096C41.6814 53.9346 41.6387 53.8679 41.5784 53.8195C41.5181 53.7712 41.4437 53.7439 41.3664 53.7419H41.2143C41.1371 53.7439 41.0626 53.7711 41.0024 53.8195C40.9421 53.8678 40.8994 53.9346 40.8807 54.0095L40.8021 54.3634C40.7887 54.3999 40.7615 54.4297 40.7263 54.4464L40.7148 54.4505L40.4778 54.5482L40.4655 54.5538C40.4501 54.5602 40.4335 54.5632 40.4169 54.5626C40.3951 54.5633 40.3734 54.5586 40.3539 54.5489L40.0482 54.3545C39.9817 54.3157 39.9045 54.2993 39.828 54.3077C39.7515 54.3161 39.6796 54.3488 39.6231 54.4011L39.5155 54.5086C39.4623 54.5646 39.4289 54.6366 39.4205 54.7134C39.4121 54.7902 39.4291 54.8676 39.4689 54.9338L39.6634 55.2395C39.6797 55.2746 39.6815 55.3146 39.6683 55.351L39.6626 55.3632L39.565 55.6004L39.5608 55.6118C39.5442 55.647 39.5143 55.6743 39.4777 55.6876L39.1241 55.7661C39.0491 55.7848 38.9823 55.8275 38.934 55.8878C38.8856 55.9481 38.8584 56.0226 38.8564 56.0998V56.2519C38.8584 56.3291 38.8856 56.4036 38.934 56.4639C38.9823 56.5241 39.0491 56.5669 39.124 56.5855L39.4778 56.6641C39.5144 56.6775 39.5442 56.7047 39.5608 56.7399L39.565 56.7513L39.6626 56.9885L39.6683 57.0007C39.6815 57.037 39.6797 57.0772 39.6633 57.1122L39.4688 57.4179C39.429 57.4841 39.412 57.5616 39.4204 57.6384C39.4288 57.7152 39.4622 57.7871 39.5154 57.8431L39.6231 57.9507C39.6796 58.003 39.7514 58.0357 39.828 58.0441C39.9045 58.0525 39.9817 58.0361 40.0482 57.9973L40.3538 57.8029C40.3733 57.7931 40.395 57.7884 40.4168 57.7892C40.4334 57.7885 40.45 57.7915 40.4654 57.7979L40.4776 57.8035L40.7147 57.9012L40.7262 57.9053C40.7614 57.922 40.7886 57.9519 40.802 57.9885L40.8806 58.3421C40.8992 58.4171 40.942 58.4839 41.0022 58.5322C41.0625 58.5806 41.137 58.6078 41.2142 58.6098H41.3663C41.4435 58.6078 41.518 58.5806 41.5783 58.5322C41.6385 58.4839 41.6812 58.4171 41.6999 58.3421L41.7786 57.9885C41.7919 57.9519 41.8191 57.922 41.8543 57.9053L41.8657 57.9012L42.1028 57.8035L42.1151 57.7979C42.1304 57.7915 42.147 57.7885 42.1636 57.7892C42.1854 57.7884 42.207 57.7931 42.2266 57.8029L42.5323 57.9973C42.5988 58.0361 42.6761 58.0525 42.7526 58.0441C42.8291 58.0357 42.901 58.003 42.9575 57.9507L43.0651 57.8432C43.1183 57.7872 43.1517 57.7152 43.1601 57.6384C43.1686 57.5616 43.1516 57.4842 43.1118 57.4179L42.9172 57.1122C42.9091 57.0949 42.9045 57.0761 42.9037 57.057C42.9028 57.0378 42.9058 57.0187 42.9123 57.0007L42.918 56.9886L43.0155 56.7513L43.0197 56.7399C43.0364 56.7047 43.0663 56.6774 43.1029 56.6641L43.4565 56.5855C43.5314 56.5669 43.5983 56.5242 43.6466 56.4639C43.695 56.4036 43.7222 56.3292 43.7242 56.2519V56.0998C43.7223 56.0226 43.695 55.9481 43.6467 55.8879C43.5984 55.8276 43.5316 55.7849 43.4567 55.7662V55.7662Z" fill="white"/>
<path d="M55.6092 76.4412C56.2357 77.0756 56.7602 77.8031 57.1642 78.5979C57.211 78.6893 57.2392 78.789 57.2475 78.8913C57.2557 78.9937 57.2436 79.0966 57.2121 79.1943C57.1805 79.292 57.13 79.3825 57.0635 79.4606C56.9969 79.5388 56.9156 79.6031 56.8242 79.6498C56.7328 79.6965 56.6331 79.7248 56.5308 79.733C56.4285 79.7413 56.3256 79.7292 56.2279 79.6977C56.1302 79.6661 56.0397 79.6156 55.9615 79.549C55.8834 79.4825 55.8191 79.4012 55.7724 79.3098C55.4426 78.6604 55.0147 78.0656 54.5037 77.5466C53.7395 76.7827 52.8052 76.2107 51.7773 75.8775C50.7495 75.5442 49.6573 75.4592 48.5903 75.6293C47.5232 75.7994 46.5117 76.2199 45.6384 76.8563C44.7652 77.4927 44.0551 78.3269 43.5663 79.2905C43.4727 79.4755 43.3095 79.6158 43.1125 79.6804C42.9155 79.7451 42.7009 79.7288 42.5159 79.6352C42.3309 79.5416 42.1907 79.3784 42.126 79.1814C42.0614 78.9844 42.0776 78.7698 42.1712 78.5848C42.7716 77.4007 43.6439 76.3756 44.7167 75.5936C45.7896 74.8115 47.0324 74.2948 48.3435 74.0857C49.6545 73.8765 50.9965 73.9809 52.2594 74.3904C53.5223 74.7998 54.6703 75.5026 55.6092 76.4412V76.4412ZM53.4185 79.6397C53.8893 80.1159 54.2682 80.6749 54.5359 81.2888C54.5775 81.3829 54.6001 81.4842 54.6024 81.5871C54.6047 81.6899 54.5867 81.7922 54.5495 81.888C54.5122 81.9839 54.4564 82.0715 54.3852 82.1457C54.314 82.2199 54.2289 82.2794 54.1347 82.3207C54.0404 82.362 53.939 82.3843 53.8362 82.3863C53.7333 82.3883 53.6311 82.37 53.5354 82.3324C53.4396 82.2948 53.3522 82.2387 53.2782 82.1673C53.2042 82.0959 53.145 82.0106 53.104 81.9162C52.9143 81.4808 52.6462 81.0838 52.313 80.7452C51.8833 80.3113 51.3534 79.9897 50.7702 79.8087C50.1869 79.6277 49.5681 79.5928 48.9682 79.7071C48.3683 79.8214 47.8057 80.0815 47.3299 80.4643C46.8541 80.8472 46.4797 81.3411 46.2397 81.9027C46.1985 81.9967 46.1392 82.0817 46.0652 82.1529C45.9912 82.224 45.9039 82.2799 45.8083 82.3173C45.7127 82.3547 45.6107 82.3729 45.5081 82.3709C45.4054 82.3688 45.3042 82.3466 45.2102 82.3055C45.1161 82.2643 45.0311 82.205 44.96 82.131C44.8888 82.057 44.833 81.9697 44.7956 81.8741C44.7581 81.7785 44.7399 81.6765 44.742 81.5739C44.744 81.4712 44.7662 81.37 44.8074 81.276C45.1494 80.4812 45.6812 79.7826 46.3561 79.2412C47.031 78.6998 47.8283 78.3323 48.6783 78.1707C49.5283 78.0092 50.4049 78.0587 51.2314 78.3148C52.0578 78.5709 52.8087 79.0258 53.4184 79.6397H53.4185ZM58.4266 73.8647C58.9677 74.4092 59.4589 75.0011 59.8943 75.6333C60.0113 75.804 60.0558 76.014 60.0181 76.2175C59.9805 76.4209 59.8637 76.6011 59.6935 76.7186C59.5232 76.8361 59.3133 76.8813 59.1098 76.8444C58.9062 76.8074 58.7256 76.6912 58.6075 76.5214C58.2259 75.967 57.7954 75.4479 57.3211 74.9702C55.279 72.9281 52.5093 71.7808 49.6212 71.7808C46.7332 71.7808 43.9635 72.9281 41.9213 74.9702C41.4522 75.4474 41.026 75.9649 40.6476 76.5167C40.5891 76.6011 40.5145 76.6731 40.4282 76.7286C40.3419 76.7841 40.2454 76.8221 40.1444 76.8404C40.0434 76.8586 39.9398 76.8568 39.8395 76.8351C39.7392 76.8133 39.6441 76.7719 39.5598 76.7134C39.4754 76.6549 39.4034 76.5804 39.3479 76.494C39.2924 76.4077 39.2544 76.3113 39.2361 76.2102C39.2178 76.1092 39.2197 76.0056 39.2414 75.9053C39.2632 75.805 39.3045 75.7099 39.3631 75.6256C39.7946 74.997 40.2807 74.4078 40.8158 73.8647C41.9722 72.7084 43.3449 71.7911 44.8558 71.1653C46.3666 70.5395 47.9859 70.2174 49.6212 70.2174C51.2565 70.2174 52.8758 70.5395 54.3866 71.1653C55.8975 71.7911 57.2702 72.7084 58.4266 73.8647V73.8647ZM50.7269 82.3701C50.9456 82.5888 51.0945 82.8674 51.1548 83.1707C51.2151 83.474 51.1842 83.7884 51.0658 84.0741C50.9475 84.3598 50.7471 84.604 50.4899 84.7758C50.2328 84.9477 49.9305 85.0394 49.6212 85.0394C49.312 85.0394 49.0097 84.9477 48.7525 84.7758C48.4954 84.604 48.295 84.3598 48.1766 84.0741C48.0583 83.7884 48.0273 83.474 48.0877 83.1707C48.148 82.8674 48.2969 82.5888 48.5156 82.3701C48.8088 82.0769 49.2066 81.9122 49.6212 81.9122C50.0359 81.9122 50.4336 82.0769 50.7269 82.3701V82.3701Z" fill="white"/>
</g>
<defs>
<linearGradient id="paint0_linear" x1="47.8693" y1="-15.153" x2="51.8521" y2="130.615" gradientUnits="userSpaceOnUse">
<stop stop-color="#00ABDE"/>
<stop offset="1" stop-color="#007ED8"/>
</linearGradient>
<linearGradient id="paint1_linear" x1="49.6285" y1="66.049" x2="49.6285" y2="30.7334" gradientUnits="userSpaceOnUse">
<stop stop-color="#003067"/>
<stop offset="0.16493" stop-color="#003F7C"/>
<stop offset="0.36216" stop-color="#004F90"/>
<stop offset="0.68089" stop-color="#00589D"/>
<stop offset="1" stop-color="#005BA1"/>
</linearGradient>
<linearGradient id="paint2_linear" x1="49.6283" y1="63.8457" x2="49.6283" y2="32.9445" gradientUnits="userSpaceOnUse">
<stop stop-color="#005BA1"/>
<stop offset="0.26" stop-color="#00589D"/>
<stop offset="0.53" stop-color="#004F90"/>
<stop offset="0.8" stop-color="#003F7C"/>
<stop offset="1" stop-color="#003067"/>
</linearGradient>
<linearGradient id="paint3_linear" x1="49.6284" y1="71.5572" x2="49.6284" y2="66.049" gradientUnits="userSpaceOnUse">
<stop stop-color="#004DAE"/>
<stop offset="0.21" stop-color="#0061C4"/>
<stop offset="0.51" stop-color="#0078DD"/>
<stop offset="0.78" stop-color="#0086EC"/>
<stop offset="1" stop-color="#008BF1"/>
</linearGradient>
<clipPath id="clip0">
<rect width="99.2799" height="99.28" fill="white"/>
</clipPath>
</defs>
</svg>
