<svg width="100" height="100" viewBox="0 0 100 100" fill="none" xmlns="http://www.w3.org/2000/svg">
<g clip-path="url(#clip0)">
<path d="M49.6396 96.4501C40.3815 96.4501 31.3312 93.7047 23.6334 88.5612C15.9355 83.4176 9.93575 76.1069 6.39281 67.5535C2.84987 59.0001 1.92288 49.5882 3.72905 40.5079C5.53523 31.4277 9.99345 23.0869 16.5399 16.5404C23.0864 9.99393 31.4272 5.53571 40.5074 3.72954C49.5877 1.92337 58.9996 2.85036 67.553 6.3933C76.1064 9.93624 83.4172 15.936 88.5607 23.6339C93.7042 31.3317 96.4496 40.382 96.4496 49.6401C96.45 55.7874 95.2395 61.8746 92.8873 67.554C90.535 73.2335 87.087 78.3939 82.7402 82.7407C78.3934 87.0875 73.233 90.5355 67.5535 92.8878C61.8741 95.24 55.7869 96.4505 49.6396 96.4501V96.4501Z" fill="url(#paint0_linear)"/>
<path fill-rule="evenodd" clip-rule="evenodd" d="M95.5402 49.7113C95.5402 58.7895 92.8483 67.6637 87.8047 75.212C82.7611 82.7602 75.5925 88.6433 67.2054 92.1174C58.8183 95.5914 49.5893 96.5004 40.6856 94.7293C31.7819 92.9583 23.6033 88.5867 17.184 82.1675C10.7648 75.7483 6.39326 67.5697 4.6222 58.6659C2.85114 49.7622 3.76011 40.5333 7.23417 32.1461C10.7082 23.759 16.5914 16.5904 24.1396 11.5468C31.6878 6.50328 40.5621 3.81129 49.6402 3.81129C55.6679 3.81127 61.6366 4.99849 67.2054 7.30517C72.7743 9.61186 77.8343 12.9928 82.0965 17.255C86.3587 21.5173 89.7397 26.5772 92.0464 32.1461C94.353 37.715 95.5403 43.6836 95.5402 49.7113V49.7113ZM49.6402 0.0712894C59.4581 0.0712894 69.0555 2.98262 77.2188 8.43714C85.382 13.8917 91.7445 21.6444 95.5016 30.7149C99.2588 39.7854 100.242 49.7664 98.3264 59.3956C96.4111 69.0248 91.6833 77.8698 84.741 84.8121C77.7987 91.7544 68.9537 96.4821 59.3245 98.3975C49.6953 100.313 39.7144 99.3298 30.6438 95.5727C21.5733 91.8155 13.8206 85.4531 8.36609 77.2898C2.91158 69.1265 0.000244503 59.5292 0.000244503 49.7113C-0.000543598 43.1922 1.2829 36.7369 3.77726 30.714C6.27162 24.691 9.92805 19.2184 14.5377 14.6088C19.1474 9.99909 24.62 6.34267 30.6429 3.8483C36.6659 1.35394 43.1212 0.0705013 49.6402 0.0712894V0.0712894Z" fill="#F2F1F0"/>
<path fill-rule="evenodd" clip-rule="evenodd" d="M92.7303 49.6406C92.7303 58.163 90.2031 66.494 85.4683 73.5801C80.7335 80.6662 74.0038 86.1892 66.1301 89.4505C58.2565 92.7119 49.5925 93.5653 41.2339 91.9026C32.8752 90.24 25.1973 86.1361 19.1711 80.1098C13.1448 74.0836 9.0409 66.4057 7.37827 58.047C5.71563 49.6884 6.56895 41.0244 9.83033 33.1507C13.0917 25.2771 18.6147 18.5473 25.7008 13.8126C32.7869 9.07776 41.1179 6.55058 49.6403 6.55058C55.2991 6.55023 60.9025 7.66455 66.1305 9.82991C71.3586 11.9953 76.109 15.1692 80.1103 19.1706C84.1116 23.1719 87.2856 27.9223 89.451 33.1503C91.6163 38.3784 92.7306 43.9818 92.7303 49.6406V49.6406ZM49.6403 2.81058C58.9024 2.81058 67.9565 5.55711 75.6577 10.7029C83.3588 15.8486 89.3611 23.1624 92.9056 31.7195C96.45 40.2766 97.3774 49.6925 95.5705 58.7767C93.7635 67.8608 89.3034 76.2051 82.7541 82.7544C76.2048 89.3037 67.8605 93.7638 58.7764 95.5708C49.6923 97.3777 40.2763 96.4503 31.7192 92.9059C23.1622 89.3614 15.8483 83.3591 10.7026 75.6579C5.55683 67.9568 2.8103 58.9027 2.8103 49.6406C2.81149 37.2208 7.74573 25.3101 16.5278 16.5281C25.3099 7.74599 37.2206 2.81174 49.6403 2.81055V2.81058Z" fill="#0078D4"/>
<path fill-rule="evenodd" clip-rule="evenodd" d="M34.894 22.9111C33.5153 22.9111 32.1932 23.4588 31.2183 24.4336C30.2435 25.4085 29.6958 26.7306 29.6958 28.1093V68.7097C29.6958 69.276 29.5843 69.8366 29.3676 70.3598C29.1509 70.8829 28.8333 71.3582 28.4329 71.7586C28.0325 72.159 27.5572 72.4766 27.0341 72.6932C26.5109 72.9099 25.9503 73.0214 25.384 73.0214H64.0866C65.4652 73.0214 66.7874 72.4738 67.7623 71.4989C68.7371 70.5241 69.2848 69.2019 69.2848 67.8233V27.2228C69.2848 26.0793 69.739 24.9826 70.5476 24.174C71.3562 23.3654 72.4529 22.9111 73.5965 22.9111H34.894Z" fill="white"/>
<path fill-rule="evenodd" clip-rule="evenodd" d="M60.7878 69.7514C60.7247 69.4604 60.5651 69.1993 60.3351 69.0103C60.105 68.8213 59.8179 68.7154 59.5202 68.71H22.675C22.4531 68.7109 22.235 68.7683 22.0413 68.8766C21.8477 68.985 21.6847 69.1409 21.5678 69.3295C21.4509 69.5182 21.3839 69.7335 21.3731 69.9552C21.3623 70.1768 21.4081 70.3976 21.506 70.5968C21.86 71.324 22.4113 71.937 23.097 72.3657C23.7828 72.7945 24.5753 73.0218 25.384 73.0216H64.9729C64.0105 73.0216 63.0757 72.6996 62.3174 72.107C61.559 71.5145 61.0206 70.6853 60.7878 69.7514V69.7514Z" fill="#E8E8E8"/>
<path fill-rule="evenodd" clip-rule="evenodd" d="M73.5965 22.9111C72.453 22.9111 71.3563 23.3654 70.5477 24.174C69.7391 24.9826 69.2849 26.0793 69.2849 27.2228V31.2266H77.9081V27.2228C77.9081 26.6566 77.7966 26.0959 77.5799 25.5728C77.3633 25.0497 77.0457 24.5744 76.6453 24.174C76.2449 23.7736 75.7696 23.456 75.2465 23.2393C74.7234 23.0226 74.1627 22.9111 73.5965 22.9111V22.9111Z" fill="#E8E8E8"/>
<path d="M61.4849 40.1101L54.5757 40.1065L53.6982 41.222V48.6144C53.6982 50.6614 55.749 52.3209 58.2786 52.3209C60.8082 52.3209 62.859 50.6614 62.859 48.6144V41.222C62.8207 40.8938 62.6555 40.5937 62.3986 40.3859C62.1418 40.1781 61.8138 40.0791 61.4849 40.1101Z" fill="#5059C9"/>
<path d="M58.7875 39.0886C59.3914 39.0886 59.9818 38.9095 60.484 38.574C60.9861 38.2385 61.3775 37.7616 61.6086 37.2036C61.8397 36.6456 61.9002 36.0317 61.7824 35.4393C61.6646 34.847 61.3737 34.3029 60.9467 33.8758C60.5196 33.4488 59.9755 33.1579 59.3832 33.0401C58.7909 32.9223 58.1769 32.9828 57.6189 33.2139C57.0609 33.445 56.584 33.8364 56.2485 34.3386C55.913 34.8407 55.7339 35.4311 55.7339 36.035C55.7339 36.436 55.8129 36.8331 55.9663 37.2036C56.1198 37.5741 56.3447 37.9107 56.6283 38.1943C56.9118 38.4778 57.2484 38.7027 57.6189 38.8562C57.9894 39.0096 58.3865 39.0886 58.7875 39.0886V39.0886Z" fill="#5059C9"/>
<path d="M42.5017 51.0545V41.2657C42.5017 41.1136 42.5317 40.963 42.5899 40.8225C42.6481 40.6819 42.7334 40.5542 42.841 40.4467C42.9485 40.3391 43.0762 40.2538 43.2167 40.1956C43.3573 40.1374 43.5079 40.1074 43.66 40.1074H54.5756C54.7277 40.1074 54.8783 40.1374 55.0188 40.1956C55.1594 40.2538 55.2871 40.3391 55.3946 40.4466C55.5022 40.5542 55.5875 40.6819 55.6457 40.8224C55.7039 40.9629 55.7339 41.1135 55.7339 41.2656V51.0545C55.7339 52.7404 55.0642 54.3572 53.8721 55.5493C52.68 56.7413 51.0632 57.4111 49.3774 57.4111H48.8583C47.1724 57.4111 45.5556 56.7413 44.3635 55.5493C43.1715 54.3572 42.5017 52.7404 42.5017 51.0545Z" fill="#7B83EB"/>
<path d="M49.6269 39.0892C50.4321 39.0892 51.2193 38.8504 51.8888 38.403C52.5584 37.9556 53.0802 37.3198 53.3884 36.5758C53.6966 35.8319 53.7772 35.0132 53.6201 34.2234C53.463 33.4337 53.0752 32.7082 52.5058 32.1388C51.9364 31.5694 51.211 31.1816 50.4212 31.0245C49.6314 30.8674 48.8128 30.9481 48.0688 31.2562C47.3248 31.5644 46.689 32.0862 46.2416 32.7558C45.7942 33.4253 45.5554 34.2125 45.5554 35.0177C45.5554 36.0976 45.9844 37.1331 46.7479 37.8967C47.5115 38.6602 48.5471 39.0892 49.6269 39.0892V39.0892Z" fill="#7B83EB"/>
<path opacity="0.5" d="M42.6288 52.3208H46.7998C48.3609 52.3208 49.6268 51.7035 49.6268 50.1285V40.1064H43.6761C43.0275 40.1064 42.5017 42.668 42.5017 43.3166V51.0535C42.5017 51.4791 42.5443 51.9036 42.6288 52.3208V52.3208Z" fill="black"/>
<path opacity="0.5" d="M49.5581 39.0822C49.4696 38.791 49.2903 38.5358 49.0463 38.3539C48.8023 38.172 48.5065 38.0729 48.2021 38.0713H46.9597C47.6783 38.7062 48.5994 39.0646 49.5581 39.0822V39.0822Z" fill="black"/>
<path d="M47.1839 37.0537H35.7839C35.406 37.0537 35.0435 37.2038 34.7763 37.4711C34.509 37.7383 34.3589 38.1008 34.3589 38.4787V49.8788C34.3589 50.2567 34.509 50.6191 34.7763 50.8864C35.0435 51.1536 35.406 51.3038 35.7839 51.3038H47.1839C47.5619 51.3038 47.9243 51.1536 48.1916 50.8864C48.4588 50.6191 48.6089 50.2567 48.6089 49.8788V38.4787C48.6089 38.1008 48.4588 37.7383 48.1916 37.4711C47.9243 37.2038 47.5619 37.0537 47.1839 37.0537V37.0537Z" fill="#4B53BC"/>
<path d="M46.0541 41.2815H42.8874V49.1983H41.3041V41.2815H38.1375V39.6982H46.0541V41.2815Z" fill="white"/>
<path opacity="0.3" d="M49.6336 47.0635C48.0318 47.0648 46.4537 47.4506 45.0319 48.1886C43.6102 48.9266 42.3865 49.9952 41.4636 51.3045H42.5077C42.5126 51.432 42.5143 51.5601 42.527 51.6866C42.5363 51.7815 42.5555 51.8751 42.5692 51.9696C42.5856 52.0823 42.5978 52.1959 42.6202 52.3073L42.6224 52.3224H42.6239C42.9156 53.7589 43.6951 55.0504 44.8301 55.9779C45.9652 56.9055 47.386 57.412 48.8519 57.4118H49.3709C50.9486 57.4119 52.47 56.8251 53.6392 55.7656C54.8083 54.7062 55.5417 53.2497 55.6966 51.6796C56.4872 52.1072 57.3731 52.3283 58.272 52.3224C58.3294 52.3224 58.3826 52.3104 58.4395 52.3087C57.5793 50.7231 56.3073 49.399 54.7575 48.4758C53.2077 47.5527 51.4375 47.0647 49.6336 47.0635V47.0635Z" fill="#3D4176"/>
<path fill-rule="evenodd" clip-rule="evenodd" d="M49.6403 65.0973C48.0546 65.0973 46.5045 64.6271 45.186 63.7461C43.8676 62.8652 42.8399 61.613 42.2331 60.148C41.6263 58.6831 41.4675 57.071 41.7769 55.5158C42.0862 53.9606 42.8498 52.532 43.971 51.4107C45.0923 50.2895 46.5209 49.5259 48.0761 49.2166C49.6313 48.9072 51.2434 49.066 52.7083 49.6728C54.1733 50.2796 55.4255 51.3073 56.3064 52.6257C57.1874 53.9442 57.6576 55.4943 57.6576 57.08C57.6575 59.2063 56.8128 61.2455 55.3093 62.749C53.8058 64.2525 51.7666 65.0972 49.6403 65.0973Z" fill="#0078D4"/>
<path fill-rule="evenodd" clip-rule="evenodd" d="M53.3234 54.8561C53.1353 54.6681 52.8802 54.5625 52.6143 54.5625C52.3484 54.5625 52.0933 54.6681 51.9052 54.8561L48.5995 58.1593L47.4055 56.9767C47.3776 56.9353 47.3461 56.8964 47.3113 56.8605C47.1243 56.6741 46.8713 56.569 46.6072 56.5681C46.3432 56.5672 46.0895 56.6705 45.9012 56.8557C45.7129 57.0408 45.6054 57.2928 45.6019 57.5568C45.5984 57.8209 45.6993 58.0756 45.8826 58.2656L45.8706 58.2776L47.8935 60.2821C48.0817 60.47 48.3368 60.5756 48.6028 60.5756C48.8688 60.5756 49.1239 60.47 49.3121 60.2821L53.3204 56.2757L53.3234 56.2732C53.4165 56.1802 53.4903 56.0698 53.5407 55.9482C53.5911 55.8266 53.6171 55.6963 53.6171 55.5647C53.6171 55.433 53.5911 55.3027 53.5407 55.1811C53.4903 55.0596 53.4165 54.9491 53.3234 54.8561V54.8561Z" fill="white"/>
</g>
<defs>
<linearGradient id="paint0_linear" x1="47.8693" y1="-15.153" x2="51.8521" y2="130.615" gradientUnits="userSpaceOnUse">
<stop stop-color="#00ABDE"/>
<stop offset="1" stop-color="#007ED8"/>
</linearGradient>
<clipPath id="clip0">
<rect width="99.2799" height="99.28" fill="white"/>
</clipPath>
</defs>
</svg>
