<svg width="181" height="191" viewBox="0 0 181 191" fill="none" xmlns="https://www.w3.org/2000/svg">
<path d="M90.9003 189.66C93.9603 189.66 96.9703 188.81 99.6303 187.19L161.6 149.53C167.14 146.16 170.57 139.83 170.57 132.99V58.2796C170.57 51.4596 167.14 45.1196 161.6 41.7396L99.6303 4.07961C94.3003 0.83961 87.4803 0.85961 82.1803 4.07961L20.2103 41.7596C14.6703 45.1296 11.2203 51.4596 11.2203 58.2996V133C11.2203 138.76 13.6703 144.18 17.7703 147.75V147.78L82.1803 187.21C84.8203 188.81 87.8403 189.66 90.9003 189.66ZM91.5503 8.60961C93.5003 8.60961 95.9803 9.81961 97.6903 10.8696L158.45 48.0596C162.2 50.3396 164.32 56.9396 164.32 61.6896L163.69 132.99C163.69 137.74 160.49 142.01 156.74 144.29L96.3403 180.67C92.9103 182.76 90.1203 182.76 86.6803 180.67L25.4703 144.2C21.7203 141.92 18.7003 137.72 18.7003 132.99V59.3496C18.7003 54.6096 21.4303 49.7196 25.2003 47.4296L85.7803 10.8696C87.4803 9.82961 89.6003 8.60961 91.5503 8.60961Z" fill="#F2F1F0"/>
<path fill-rule="evenodd" clip-rule="evenodd" d="M98.8004 12.1897C96.3504 10.6897 93.6304 9.9397 90.9004 9.9397C88.1704 9.9397 85.4504 10.6997 83.0004 12.1897L26.8704 46.5197C21.8504 49.5897 18.7404 55.3397 18.7404 61.5897V129.69C18.7404 135.92 21.8404 141.69 26.8704 144.76L83.0004 179.09C85.4504 180.59 88.1704 181.34 90.9004 181.34C93.6304 181.34 96.3504 180.6 98.8004 179.09L154.93 144.76C159.95 141.69 163.06 135.92 163.06 129.69V61.5897C163.06 55.3597 159.96 49.6097 154.93 46.5197L98.8004 12.1897Z" fill="url(#paint0_linear)"/>
<path fill-rule="evenodd" clip-rule="evenodd" d="M90.9004 11.4097C92.5804 11.4097 94.4703 12.2797 96.5303 13.5297L155 49.0697C158.65 51.2897 161.06 55.5597 161.06 60.3897V130.87C161.06 135.69 158.65 139.97 155 142.19L96.5404 177.73C94.5804 178.92 92.6604 179.67 90.9104 179.67C89.1604 179.67 87.2403 178.92 85.2803 177.73L26.8004 142.2C24.7904 140.97 23.3404 139.77 22.3604 138.16C21.3804 136.56 20.7404 134.34 20.7404 130.88V60.3997C20.7404 55.5697 23.1504 51.2997 26.8004 49.0797L85.2604 13.5397C87.3504 12.2897 89.2104 11.4097 90.9004 11.4097ZM98.6104 181.16L157.07 145.62C161.99 142.63 165.05 137.01 165.05 130.88V60.3997C165.05 54.2697 161.99 48.6497 157.07 45.6597L98.6104 10.1197C96.5004 8.83967 93.7904 7.40967 90.9004 7.40967C88.0004 7.40967 85.2904 8.84967 83.2004 10.1097H83.1904L24.7204 45.6597C19.8004 48.6497 16.7404 54.2697 16.7404 60.3997V130.88C16.7404 134.84 17.4804 137.83 18.9404 140.24C20.4004 142.64 22.4604 144.24 24.7204 145.61L83.1804 181.15C85.4004 182.5 88.0704 183.68 90.8904 183.68C93.7104 183.68 96.3904 182.51 98.6104 181.16Z" fill="url(#paint1_linear)"/>
<path opacity="0.15" d="M155.24 89.7996C155.24 88.3896 154.09 87.2496 152.69 87.2496C151.77 87.2496 146.04 86.7496 142.96 84.3496C142.96 84.3496 142.98 84.3196 142.96 84.3496C141.8 80.1096 140.09 76.1496 137.99 72.3996C137.45 68.8396 141.13 66.2496 142.82 63.4696C143.12 62.9796 143.29 62.7096 143.39 62.5096C143.7 61.6096 143.53 60.5596 142.82 59.8496C142.82 59.8496 139.99 55.7996 137.09 52.9196C134.19 50.0396 129.8 46.8196 129.8 46.8196C128.81 45.8296 127.18 45.8296 126.19 46.8196C125.53 47.4596 121.17 51.0596 117.25 51.6296C117.2 51.6296 117.2 51.6296 117.2 51.6296C113.55 49.5596 109.45 47.8596 105.34 46.6996H105.29C102.39 44.5596 103.15 40.1296 102.39 36.9696C102.39 35.5596 101.24 34.4196 99.8404 34.4196C99.8404 34.4196 94.9804 33.5696 90.8804 33.5696C86.7804 33.5696 81.4104 34.4196 81.4104 34.4196C80.0004 34.4196 78.8604 35.5696 78.8604 36.9696C78.8604 37.8896 78.3604 43.6196 75.9604 46.6996C71.9004 47.8496 67.6204 49.6496 64.0104 51.6696C60.4504 52.2096 57.8604 48.5296 55.0804 46.8396C54.5904 46.5396 54.3204 46.3696 54.1204 46.2696C53.2204 45.9596 52.1704 46.1296 51.4604 46.8396C51.4604 46.8396 47.4104 49.6696 44.5304 52.5696C41.6504 55.4696 38.4304 59.8596 38.4304 59.8596C37.4404 60.8496 37.4404 62.4796 38.4304 63.4696C39.0704 64.1096 42.7704 68.5396 43.2604 72.3996V72.4296C41.2504 76.0396 39.4704 80.2996 38.3304 84.3596C38.3304 84.3596 38.3804 84.2896 38.3304 84.3596C35.8504 87.3796 31.7604 86.4996 28.6004 87.2596C27.1904 87.2596 26.0504 88.4096 26.0504 89.8096C26.0504 89.8096 25.2004 94.6696 25.2004 98.7696C25.2004 102.87 26.0504 108.24 26.0504 108.24C26.0504 109.65 27.2004 110.79 28.6004 110.79C29.5204 110.79 35.2504 111.29 38.3304 113.69C38.4004 113.66 38.3604 113.74 38.3604 113.74C39.5404 117.82 41.2304 121.9 43.2804 125.52C43.2504 125.57 43.2804 125.52 43.3004 125.64C43.6504 129.36 40.1604 131.79 38.4704 134.57C38.1704 135.06 38.0004 135.33 37.9004 135.53C37.5904 136.43 37.7604 137.48 38.4704 138.19C38.4704 138.19 41.3004 142.24 44.2004 145.12C47.1004 148.02 51.4904 151.22 51.4904 151.22C52.4804 152.21 54.1104 152.21 55.1004 151.22C55.7404 150.58 60.1704 146.88 64.0304 146.39C64.0304 146.39 64.0104 146.41 64.0804 146.42C67.8004 148.49 71.6404 150.12 75.8404 151.27C75.8704 151.29 76.0004 151.32 76.0004 151.32C78.9004 153.46 78.1404 157.89 78.9004 161.05C79.0604 162.47 79.8404 163.38 81.4504 163.6C81.4504 163.6 86.3104 164.45 90.4104 164.45C94.5104 164.45 99.8804 163.62 99.8804 163.62C101.29 163.38 102.43 162.47 102.43 161.07C102.43 160.15 102.93 154.42 105.33 151.34C105.33 151.34 105.43 151.25 105.54 151.17C109.81 149.97 113.06 148.65 116.83 146.48C117.02 146.41 116.81 146.43 117.26 146.36C120.82 145.82 123.41 149.5 126.19 151.19C126.68 151.49 126.95 151.66 127.15 151.76C128.05 152.07 129.1 151.9 129.81 151.19C129.81 151.19 133.86 148.36 136.74 145.46C139.64 142.56 142.84 138.17 142.84 138.17C143.83 137.18 143.83 135.55 142.84 134.56C142.2 133.92 138.5 129.49 138.01 125.63C137.96 125.23 137.99 125.18 138.04 125.07C140.19 121.27 141.55 118.49 142.73 114.18C142.73 114.18 142.68 114.04 142.96 113.68C145.1 110.78 149.53 111.54 152.69 110.78C154.1 110.78 155.24 109.63 155.24 108.23C155.24 108.23 156.09 103.37 156.09 99.2696C156.09 95.1696 155.24 89.7996 155.24 89.7996Z" fill="#1F1D20"/>
<path d="M155.24 86.3196C155.24 84.9096 154.09 83.7696 152.69 83.7696C151.77 83.7696 146.04 83.2696 142.96 80.8696C142.96 80.8696 142.98 80.8396 142.96 80.8696C141.8 76.6296 140.09 72.6696 137.99 68.9196C137.45 65.3596 141.13 62.7696 142.82 59.9896C143.12 59.4996 143.29 59.2296 143.39 59.0296C143.7 58.1296 143.53 57.0796 142.82 56.3696C142.82 56.3696 139.99 52.3196 137.09 49.4396C134.19 46.5596 129.8 43.3396 129.8 43.3396C128.81 42.3496 127.18 42.3496 126.19 43.3396C125.53 43.9796 121.17 47.5796 117.25 48.1496C117.2 48.1496 117.2 48.1496 117.2 48.1496C113.55 46.0796 109.45 44.3796 105.34 43.2196H105.29C102.39 41.0796 103.15 36.6496 102.39 33.4896C102.39 32.0796 101.24 30.9396 99.8404 30.9396C99.8404 30.9396 94.9804 30.0896 90.8804 30.0896C86.7804 30.0896 81.4104 30.9396 81.4104 30.9396C80.0004 30.9396 78.8604 32.0896 78.8604 33.4896C78.8604 34.4096 78.3604 40.1396 75.9604 43.2196C71.9004 44.3696 67.6204 46.1696 64.0104 48.1896C60.4504 48.7296 57.8604 45.0496 55.0804 43.3596C54.5904 43.0596 54.3204 42.8896 54.1204 42.7896C53.2204 42.4796 52.1704 42.6496 51.4604 43.3596C51.4604 43.3596 47.4104 46.1896 44.5304 49.0896C41.6504 51.9896 38.4304 56.3796 38.4304 56.3796C37.4404 57.3696 37.4404 58.9996 38.4304 59.9896C39.0704 60.6296 42.7704 65.0596 43.2604 68.9196V68.9496C41.2504 72.5596 39.4704 76.8196 38.3304 80.8796C38.3304 80.8796 38.3804 80.8096 38.3304 80.8796C35.8504 83.8996 31.7604 83.0196 28.6004 83.7796C27.1904 83.7796 26.0504 84.9296 26.0504 86.3296C26.0504 86.3296 25.2004 91.1896 25.2004 95.2896C25.2004 99.3896 26.0504 104.76 26.0504 104.76C26.0504 106.17 27.2004 107.31 28.6004 107.31C29.5204 107.31 35.2504 107.81 38.3304 110.21C38.4004 110.18 38.3604 110.26 38.3604 110.26C39.5404 114.34 41.2304 118.42 43.2804 122.04C43.2504 122.09 43.2804 122.04 43.3004 122.16C43.6504 125.88 40.1604 128.31 38.4704 131.09C38.1704 131.58 38.0004 131.85 37.9004 132.05C37.5904 132.95 37.7604 134 38.4704 134.71C38.4704 134.71 41.3004 138.76 44.2004 141.64C47.1004 144.54 51.4904 147.74 51.4904 147.74C52.4804 148.73 54.1104 148.73 55.1004 147.74C55.7404 147.1 60.1704 143.4 64.0304 142.91C64.0304 142.91 64.0104 142.93 64.0804 142.94C67.8004 145.01 71.6404 146.64 75.8404 147.79C75.8704 147.81 76.0004 147.84 76.0004 147.84C78.9004 149.98 78.1404 154.41 78.9004 157.57C79.0604 158.99 79.8404 159.9 81.4504 160.12C81.4504 160.12 86.3104 160.97 90.4104 160.97C94.5104 160.97 99.8804 160.14 99.8804 160.14C101.29 159.9 102.43 158.99 102.43 157.59C102.43 156.67 102.93 150.94 105.33 147.86C105.33 147.86 105.43 147.77 105.54 147.69C109.81 146.49 113.06 145.17 116.83 143C117.02 142.93 116.81 142.95 117.26 142.88C120.82 142.34 123.41 146.02 126.19 147.71C126.68 148.01 126.95 148.18 127.15 148.28C128.05 148.59 129.1 148.42 129.81 147.71C129.81 147.71 133.86 144.88 136.74 141.98C139.64 139.08 142.84 134.69 142.84 134.69C143.83 133.7 143.83 132.07 142.84 131.08C142.2 130.44 138.5 126.01 138.01 122.15C137.96 121.75 137.99 121.7 138.04 121.59C140.19 117.79 141.55 115.01 142.73 110.7C142.73 110.7 142.68 110.56 142.96 110.2C145.1 107.3 149.53 108.06 152.69 107.3C154.1 107.3 155.24 106.15 155.24 104.75C155.24 104.75 156.09 99.8896 156.09 95.7896C156.07 91.6896 155.24 86.3196 155.24 86.3196Z" fill="url(#paint2_linear)"/>
<path d="M43.8605 114.37C43.6705 114.7 43.7005 114.63 43.8605 114.37V114.37Z" fill="#9FC2F6"/>
<path d="M43.8605 114.36C43.8605 114.34 43.8805 114.34 43.8805 114.33C43.8705 114.34 43.8605 114.36 43.8605 114.36Z" fill="#9FC2F6"/>
<g opacity="0.15">
<path opacity="0.15" d="M65.4504 110.94C65.4504 114.29 68.1804 117.02 71.5304 117.02C74.8804 117.02 77.6104 114.29 77.6104 110.94C77.6104 109.49 77.0904 108.21 76.2504 107.14L87.1504 86.4196C85.7904 85.9096 84.6504 85.1696 83.6204 84.1796C81.6304 82.2796 80.3804 79.5896 80.3804 76.6196C80.3804 70.8496 85.0804 66.1296 90.8704 66.1296C96.6604 66.1296 101.36 70.8296 101.36 76.6196C101.36 77.5096 101.22 78.3696 101 79.1896L104.96 80.7596C105.34 79.4196 105.65 78.0696 105.65 76.6196C105.65 68.4796 99.0104 61.8496 90.8804 61.8496C82.7504 61.8496 76.1004 68.4696 76.1004 76.6096C76.1004 81.1696 78.2304 85.1996 81.4504 87.9296L72.5004 104.98C72.1704 104.93 71.8504 104.89 71.4904 104.89C68.1804 104.9 65.4504 107.59 65.4504 110.94Z" fill="#1F1D20"/>
<path opacity="0.15" d="M109.75 117.01C113.1 117.01 115.83 114.28 115.83 110.93C115.83 107.58 113.1 104.85 109.75 104.85C107.18 104.85 104.96 106.48 104.09 108.76H81.7605C81.9005 109.45 82.0005 110.15 82.0005 110.89C82.0005 111.63 81.9105 112.34 81.7605 113.02C80.7705 117.79 76.5505 121.37 71.4905 121.37C65.7205 121.37 61.0005 116.67 61.0005 110.88C61.0005 106.41 63.8405 102.58 67.8205 101.08L66.5705 97.0496C60.8605 99.0896 56.7305 104.52 56.7305 110.9C56.7305 119.04 63.3705 125.67 71.5005 125.67C78.9005 125.67 85.0105 120.15 86.0805 113.03H104.09C104.96 115.39 107.15 117.01 109.75 117.01Z" fill="#1F1D20"/>
<path opacity="0.15" d="M109.75 96.1597C108.32 96.1597 107 96.4297 105.7 96.8097C105.66 96.8097 105.66 96.8097 105.65 96.8097V96.8497V96.8097L95.7004 80.2797C96.4804 79.2697 96.9704 77.9997 96.9704 76.6097C96.9704 73.2597 94.2404 70.5297 90.8904 70.5297C87.5404 70.5297 84.8104 73.2597 84.8104 76.6097C84.8104 79.9597 87.5404 82.6897 90.8904 82.6897C91.2704 82.6897 91.6704 82.6497 92.0504 82.5597L103.86 102.34C105.07 101.54 106.59 100.86 108.07 100.59C108.63 100.5 109.19 100.45 109.75 100.45C115.52 100.45 120.24 105.15 120.24 110.94C120.24 116.71 115.54 121.43 109.75 121.43C107.11 121.43 104.72 120.45 102.88 118.83L99.8604 121.85C102.46 124.26 105.94 125.74 109.75 125.74C117.89 125.74 124.52 119.1 124.52 110.97C124.53 102.8 117.89 96.1597 109.75 96.1597Z" fill="#1F1D20"/>
</g>
<path d="M65.4504 108.79C65.4504 112.14 68.1804 114.87 71.5304 114.87C74.8804 114.87 77.6104 112.14 77.6104 108.79C77.6104 107.34 77.0904 106.06 76.2504 104.99L87.1504 84.2697C85.7904 83.7597 84.6504 83.0197 83.6204 82.0297C81.6304 80.1297 80.3804 77.4397 80.3804 74.4697C80.3804 68.6997 85.0804 63.9797 90.8704 63.9797C96.6604 63.9797 101.36 68.6797 101.36 74.4697C101.36 75.3597 101.22 76.2197 101 77.0397L104.96 78.6097C105.34 77.2697 105.65 75.9197 105.65 74.4697C105.65 66.3297 99.0104 59.6997 90.8804 59.6997C82.7504 59.6997 76.1004 66.3297 76.1004 74.4697C76.1004 79.0297 78.2304 83.0597 81.4504 85.7897L72.5004 102.84C72.1704 102.79 71.8504 102.75 71.4904 102.75C68.1804 102.75 65.4504 105.45 65.4504 108.79Z" fill="white"/>
<path d="M109.75 114.87C113.1 114.87 115.83 112.14 115.83 108.79C115.83 105.44 113.1 102.71 109.75 102.71C107.18 102.71 104.96 104.34 104.09 106.62H81.7605C81.9005 107.31 82.0005 108.01 82.0005 108.75C82.0005 109.49 81.9105 110.2 81.7605 110.88C80.7705 115.65 76.5505 119.23 71.4905 119.23C65.7205 119.23 61.0005 114.53 61.0005 108.74C61.0005 104.27 63.8405 100.44 67.8205 98.9397L66.5705 94.9097C60.8605 96.9497 56.7305 102.38 56.7305 108.76C56.7305 116.9 63.3705 123.53 71.5005 123.53C78.9005 123.53 85.0105 118.01 86.0805 110.89H104.09C104.96 113.24 107.15 114.87 109.75 114.87Z" fill="white"/>
<path d="M109.75 94.0196C108.32 94.0196 107 94.2896 105.7 94.6696C105.66 94.6696 105.66 94.6696 105.65 94.6696V94.7096V94.6696L95.7004 78.1396C96.4804 77.1296 96.9704 75.8596 96.9704 74.4696C96.9704 71.1196 94.2404 68.3896 90.8904 68.3896C87.5404 68.3896 84.8104 71.1196 84.8104 74.4696C84.8104 77.8196 87.5404 80.5496 90.8904 80.5496C91.2704 80.5496 91.6704 80.5096 92.0504 80.4196L103.86 100.2C105.07 99.3996 106.59 98.7196 108.07 98.4496C108.63 98.3596 109.19 98.3096 109.75 98.3096C115.52 98.3096 120.24 103.01 120.24 108.8C120.24 114.57 115.54 119.29 109.75 119.29C107.11 119.29 104.72 118.31 102.88 116.69L99.8604 119.71C102.46 122.12 105.94 123.6 109.75 123.6C117.89 123.6 124.52 116.96 124.52 108.83C124.53 100.65 117.89 94.0196 109.75 94.0196Z" fill="white"/>
<path opacity="0.15" d="M90.6304 91.1396C101.168 91.1396 109.71 82.5972 109.71 72.0596C109.71 61.522 101.168 52.9796 90.6304 52.9796C80.0928 52.9796 71.5504 61.522 71.5504 72.0596C71.5504 82.5972 80.0928 91.1396 90.6304 91.1396Z" fill="#1F1D20"/>
<path d="M90.6304 88.7096C101.168 88.7096 109.71 80.1672 109.71 69.6296C109.71 59.092 101.168 50.5496 90.6304 50.5496C80.0928 50.5496 71.5504 59.092 71.5504 69.6296C71.5504 80.1672 80.0928 88.7096 90.6304 88.7096Z" fill="#F2F1F0"/>
<path d="M100.36 77.7296C99.8205 72.8896 95.6704 69.0896 90.6404 69.0896C85.6604 69.0896 81.5504 72.8196 80.9204 77.6196C80.8404 77.9396 80.8405 78.3196 80.8405 78.6496C80.9705 80.0096 81.9205 81.3396 83.7005 82.3796C87.5105 84.5696 93.7505 84.5696 97.5205 82.3796C99.3005 81.3396 100.22 80.0196 100.34 78.6496C100.45 78.3496 100.41 78.0196 100.36 77.7296Z" fill="url(#paint3_linear)"/>
<path d="M90.6505 66.5496C93.9005 66.5496 96.5305 63.9296 96.5305 60.6996C96.5405 57.4596 93.9005 54.8396 90.6505 54.8396C87.4105 54.8396 84.7705 57.4596 84.7705 60.6896C84.7705 63.9196 87.4105 66.5496 90.6505 66.5496Z" fill="url(#paint4_linear)"/>
<path opacity="0.15" d="M67.1603 131.75C77.6979 131.75 86.2403 123.207 86.2403 112.67C86.2403 102.132 77.6979 93.5896 67.1603 93.5896C56.6227 93.5896 48.0803 102.132 48.0803 112.67C48.0803 123.207 56.6227 131.75 67.1603 131.75Z" fill="#1F1D20"/>
<path d="M67.1603 128.51C77.6979 128.51 86.2403 119.967 86.2403 109.43C86.2403 98.892 77.6979 90.3496 67.1603 90.3496C56.6227 90.3496 48.0803 98.892 48.0803 109.43C48.0803 119.967 56.6227 128.51 67.1603 128.51Z" fill="#F2F1F0"/>
<path d="M76.8904 117.53C76.3504 112.69 72.2004 108.89 67.1704 108.89C62.1904 108.89 58.0804 112.62 57.4504 117.42C57.3704 117.74 57.3704 118.12 57.3704 118.45C57.5004 119.81 58.4504 121.14 60.2304 122.18C64.0404 124.37 70.2804 124.37 74.0504 122.18C75.8304 121.14 76.7504 119.82 76.8704 118.45C76.9804 118.15 76.9404 117.82 76.8904 117.53Z" fill="url(#paint5_linear)"/>
<path d="M67.1704 106.35C70.4204 106.35 73.0504 103.73 73.0504 100.5C73.0604 97.2596 70.4204 94.6396 67.1704 94.6396C63.9304 94.6396 61.2904 97.2596 61.2904 100.49C61.3004 103.72 63.9404 106.35 67.1704 106.35Z" fill="url(#paint6_linear)"/>
<path opacity="0.15" d="M114.1 131.35C124.638 131.35 133.18 122.807 133.18 112.27C133.18 101.732 124.638 93.1896 114.1 93.1896C103.563 93.1896 95.0203 101.732 95.0203 112.27C95.0203 122.807 103.563 131.35 114.1 131.35Z" fill="#1F1D20"/>
<path d="M114.1 128.51C124.638 128.51 133.18 119.967 133.18 109.43C133.18 98.892 124.638 90.3496 114.1 90.3496C103.563 90.3496 95.0203 98.892 95.0203 109.43C95.0203 119.967 103.563 128.51 114.1 128.51Z" fill="#F2F1F0"/>
<path d="M123.84 117.53C123.3 112.69 119.15 108.89 114.12 108.89C109.14 108.89 105.03 112.62 104.4 117.42C104.32 117.74 104.32 118.12 104.32 118.45C104.45 119.81 105.4 121.14 107.18 122.18C110.99 124.37 117.23 124.37 121 122.18C122.78 121.14 123.7 119.82 123.82 118.45C123.92 118.15 123.88 117.82 123.84 117.53Z" fill="url(#paint7_linear)"/>
<path d="M114.12 106.35C117.37 106.35 120 103.73 120 100.5C120.01 97.2596 117.37 94.6396 114.12 94.6396C110.88 94.6396 108.24 97.2596 108.24 100.49C108.24 103.72 110.88 106.35 114.12 106.35Z" fill="url(#paint8_linear)"/>
<defs>
<linearGradient id="paint0_linear" x1="90.9003" y1="9.9399" x2="90.9003" y2="181.34" gradientUnits="userSpaceOnUse">
<stop stop-color="#00ABDE"/>
<stop offset="1" stop-color="#007ED8"/>
</linearGradient>
<linearGradient id="paint1_linear" x1="37.0199" y1="4.73097" x2="203.697" y2="287.062" gradientUnits="userSpaceOnUse">
<stop stop-color="#007ED8"/>
<stop offset="0.7065" stop-color="#002D4C"/>
</linearGradient>
<linearGradient id="paint2_linear" x1="83.3317" y1="17.3218" x2="100.355" y2="199.714" gradientUnits="userSpaceOnUse">
<stop stop-color="#007ED8"/>
<stop offset="0.7065" stop-color="#002D4C"/>
</linearGradient>
<linearGradient id="paint3_linear" x1="74.9821" y1="35.2971" x2="127.876" y2="179.691" gradientUnits="userSpaceOnUse">
<stop stop-color="#007ED8"/>
<stop offset="0.7065" stop-color="#002D4C"/>
</linearGradient>
<linearGradient id="paint4_linear" x1="80.5934" y1="33.2416" x2="133.487" y2="177.635" gradientUnits="userSpaceOnUse">
<stop stop-color="#007ED8"/>
<stop offset="0.7065" stop-color="#002D4C"/>
</linearGradient>
<linearGradient id="paint5_linear" x1="41.3057" y1="47.2405" x2="94.1994" y2="191.634" gradientUnits="userSpaceOnUse">
<stop stop-color="#007ED8"/>
<stop offset="0.7065" stop-color="#002D4C"/>
</linearGradient>
<linearGradient id="paint6_linear" x1="46.9171" y1="45.185" x2="99.8108" y2="189.579" gradientUnits="userSpaceOnUse">
<stop stop-color="#007ED8"/>
<stop offset="0.7065" stop-color="#002D4C"/>
</linearGradient>
<linearGradient id="paint7_linear" x1="82.9508" y1="32.7709" x2="135.844" y2="177.165" gradientUnits="userSpaceOnUse">
<stop stop-color="#007ED8"/>
<stop offset="0.7065" stop-color="#002D4C"/>
</linearGradient>
<linearGradient id="paint8_linear" x1="88.5622" y1="30.7154" x2="141.456" y2="175.109" gradientUnits="userSpaceOnUse">
<stop stop-color="#007ED8"/>
<stop offset="0.7065" stop-color="#002D4C"/>
</linearGradient>
</defs>
</svg>
