<svg width="100" height="100" viewBox="0 0 100 100" fill="none" xmlns="http://www.w3.org/2000/svg">
<g clip-path="url(#clip0)">
<path d="M49.6401 96.5204C40.382 96.5204 31.3317 93.775 23.6339 88.6315C15.936 83.488 9.93624 76.1772 6.3933 67.6238C2.85036 59.0704 1.92337 49.6585 3.72954 40.5782C5.53571 31.498 9.99394 23.1572 16.5404 16.6107C23.0869 10.0642 31.4277 5.60603 40.5079 3.79985C49.5882 1.99368 59.0001 2.92067 67.5535 6.46361C76.1069 10.0065 83.4176 16.0063 88.5612 23.7042C93.7047 31.402 96.4501 40.4523 96.4501 49.7104C96.4505 55.8577 95.24 61.9449 92.8878 67.6243C90.5355 73.3038 87.0875 78.4642 82.7407 82.811C78.3939 87.1578 73.2335 90.6058 67.554 92.9581C61.8746 95.3103 55.7874 96.5208 49.6401 96.5204V96.5204Z" fill="url(#paint0_linear)"/>
<path fill-rule="evenodd" clip-rule="evenodd" d="M95.54 49.7103C95.54 58.7885 92.848 67.6628 87.8045 75.211C82.7609 82.7592 75.5923 88.6423 67.2052 92.1164C58.818 95.5904 49.5891 96.4994 40.6854 94.7283C31.7816 92.9573 23.603 88.5857 17.1838 82.1665C10.7646 75.7473 6.39302 67.5687 4.62196 58.6649C2.85089 49.7612 3.75987 40.5323 7.23393 32.1451C10.708 23.758 16.5911 16.5894 24.1393 11.5458C31.6875 6.50229 40.5618 3.8103 49.64 3.8103C55.6677 3.81028 61.6363 4.9975 67.2052 7.30419C72.774 9.61087 77.834 12.9918 82.0963 17.2541C86.3585 21.5163 89.7394 26.5763 92.0461 32.1451C94.3528 37.714 95.54 43.6826 95.54 49.7103V49.7103ZM49.64 0.0703129C59.4579 0.0703129 69.0552 2.98165 77.2185 8.43616C85.3818 13.8907 91.7442 21.6434 95.5014 30.7139C99.2585 39.7844 100.242 49.7654 98.3262 59.3946C96.4108 69.0238 91.6831 77.8688 84.7408 84.8111C77.7985 91.7534 68.9535 96.4811 59.3243 98.3965C49.6951 100.312 39.7141 99.3288 30.6436 95.5717C21.5731 91.8146 13.8204 85.4521 8.36584 77.2888C2.91133 69.1256 -1.61629e-06 59.5282 3.61524e-07 49.7103C-0.000786426 43.1913 1.28265 36.7359 3.77702 30.713C6.27138 24.69 9.92781 19.2174 14.5375 14.6078C19.1471 9.99812 24.6197 6.34169 30.6427 3.84733C36.6656 1.35296 43.121 0.0695248 49.64 0.0703129V0.0703129Z" fill="#F2F1F0"/>
<path fill-rule="evenodd" clip-rule="evenodd" d="M92.7296 49.7109C92.7296 58.2333 90.2024 66.5643 85.4676 73.6504C80.7328 80.7365 74.0031 86.2594 66.1294 89.5208C58.2558 92.7822 49.5918 93.6355 41.2332 91.9729C32.8745 90.3103 25.1966 86.2063 19.1704 80.1801C13.1441 74.1538 9.0402 66.4759 7.37756 58.1173C5.71493 49.7587 6.56825 41.0947 9.82963 33.221C13.091 25.3474 18.614 18.6176 25.7001 13.8828C32.7862 9.14804 41.1172 6.62086 49.6396 6.62086C55.2984 6.62052 60.9018 7.73484 66.1298 9.90019C71.3579 12.0655 76.1083 15.2395 80.1096 19.2409C84.1109 23.2422 87.2849 27.9925 89.4503 33.2206C91.6156 38.4487 92.7299 44.0521 92.7296 49.7109ZM49.6396 2.88086C58.9017 2.88086 67.9558 5.62739 75.657 10.7731C83.3581 15.9189 89.3604 23.2327 92.9049 31.7898C96.4493 40.3469 97.3767 49.7628 95.5698 58.8469C93.7628 67.9311 89.3027 76.2754 82.7534 82.8247C76.2041 89.374 67.8598 93.8341 58.7757 95.641C49.6916 97.448 40.2756 96.5206 31.7185 92.9761C23.1615 89.4317 15.8476 83.4294 10.7019 75.7282C5.55613 68.0271 2.8096 58.973 2.8096 49.7109C2.81079 37.2911 7.74504 25.3804 16.5271 16.5984C25.3092 7.8163 37.2199 2.88205 49.6396 2.88086V2.88086Z" fill="#0078D4"/>
<path opacity="0.2" d="M21.7448 73.8803H77.5472C77.8404 73.8794 78.1213 73.7626 78.3287 73.5553C78.536 73.348 78.6528 73.067 78.6537 72.7738V29.207H20.6383V72.7739C20.6392 73.0671 20.756 73.348 20.9633 73.5553C21.1707 73.7626 21.4516 73.8794 21.7448 73.8803V73.8803Z" fill="#003067"/>
<path d="M21.7448 71.603H77.5472C77.8404 71.6021 78.1213 71.4853 78.3287 71.278C78.536 71.0706 78.6528 70.7897 78.6537 70.4965V26.9297H20.6383V70.4965C20.6392 70.7897 20.756 71.0707 20.9633 71.278C21.1707 71.4853 21.4516 71.6021 21.7448 71.603V71.603Z" fill="#F2F2F2"/>
<path d="M20.6383 31.7518H78.6537V26.5514C78.654 26.4399 78.6322 26.3295 78.5897 26.2264C78.5472 26.1234 78.4847 26.0298 78.4059 25.9509C78.3271 25.8721 78.2334 25.8096 78.1304 25.7671C78.0273 25.7246 77.9169 25.7028 77.8054 25.7031H21.4866C21.3751 25.7028 21.2647 25.7246 21.1616 25.7671C21.0586 25.8096 20.9649 25.8721 20.8861 25.9509C20.8073 26.0298 20.7448 26.1234 20.7023 26.2264C20.6598 26.3295 20.638 26.4399 20.6383 26.5514V31.7518Z" fill="url(#paint1_linear)"/>
<path d="M25.1013 30.3222C25.3921 30.3213 25.6762 30.2342 25.9175 30.0718C26.1589 29.9095 26.3467 29.6792 26.4572 29.4101C26.5676 29.141 26.5958 28.8452 26.5382 28.5601C26.4805 28.275 26.3397 28.0134 26.1333 27.8084C25.927 27.6033 25.6645 27.4641 25.3791 27.4082C25.0936 27.3524 24.798 27.3824 24.5296 27.4946C24.2612 27.6067 24.0321 27.796 23.8713 28.0383C23.7104 28.2807 23.6251 28.5653 23.626 28.8562C23.6244 29.0499 23.6616 29.242 23.7353 29.4212C23.809 29.6004 23.9177 29.763 24.0551 29.8996C24.1926 30.0362 24.3559 30.1439 24.5355 30.2165C24.7152 30.2891 24.9075 30.325 25.1013 30.3222V30.3222Z" fill="#50E6FF"/>
<path d="M73.5111 35.4941H25.7698C25.1408 35.4941 24.6308 36.0041 24.6308 36.6331V66.3112C24.6308 66.9402 25.1408 67.4502 25.7698 67.4502H73.5111C74.1402 67.4502 74.6501 66.9402 74.6501 66.3112V36.6331C74.6501 36.0041 74.1402 35.4941 73.5111 35.4941Z" fill="#E8E8E8"/>
<path d="M59.8384 48.1001L54.3657 48.0973L53.6707 48.9809V54.8363C53.6707 56.4578 55.2951 57.7722 57.2987 57.7722C59.3024 57.7722 60.9268 56.4578 60.9268 54.8363V48.9809C60.8965 48.7209 60.7656 48.4832 60.5621 48.3186C60.3587 48.154 60.0989 48.0756 59.8384 48.1001V48.1001Z" fill="#5059C9"/>
<path d="M57.7018 47.2906C58.1802 47.2906 58.6478 47.1487 59.0456 46.8829C59.4434 46.6172 59.7534 46.2394 59.9364 45.7974C60.1195 45.3555 60.1674 44.8692 60.0741 44.4C59.9808 43.9308 59.7504 43.4998 59.4121 43.1616C59.0739 42.8233 58.6429 42.5929 58.1737 42.4996C57.7045 42.4063 57.2182 42.4542 56.7762 42.6372C56.3343 42.8203 55.9565 43.1303 55.6907 43.5281C55.425 43.9258 55.2831 44.3935 55.2831 44.8718C55.2831 45.1895 55.3457 45.504 55.4672 45.7975C55.5888 46.0909 55.7669 46.3575 55.9915 46.5821C56.2161 46.8067 56.4828 46.9849 56.7762 47.1065C57.0697 47.228 57.3842 47.2906 57.7018 47.2906V47.2906Z" fill="#5059C9"/>
<path d="M44.802 56.7688V49.0152C44.802 48.8947 44.8257 48.7754 44.8718 48.664C44.9179 48.5527 44.9855 48.4516 45.0707 48.3664C45.1559 48.2812 45.2571 48.2136 45.3684 48.1675C45.4797 48.1214 45.599 48.0977 45.7195 48.0977H54.3656C54.6089 48.0976 54.8423 48.1943 55.0144 48.3663C55.1864 48.5384 55.2831 48.7718 55.2831 49.0151V56.7688C55.2831 58.1041 54.7526 59.3848 53.8084 60.329C52.8641 61.2733 51.5835 61.8038 50.2481 61.8038H49.837C48.5016 61.8038 47.221 61.2733 46.2767 60.329C45.3325 59.3848 44.802 58.1041 44.802 56.7688V56.7688Z" fill="#7B83EB"/>
<path d="M50.4457 47.2918C51.0835 47.2918 51.7071 47.1027 52.2374 46.7483C52.7678 46.3939 53.1811 45.8902 53.4252 45.301C53.6693 44.7117 53.7332 44.0632 53.6087 43.4376C53.4843 42.812 53.1771 42.2374 52.7261 41.7864C52.2751 41.3354 51.7005 41.0282 51.0749 40.9038C50.4493 40.7793 49.8008 40.8432 49.2115 41.0873C48.6223 41.3314 48.1186 41.7447 47.7642 42.2751C47.4098 42.8054 47.2207 43.429 47.2207 44.0668C47.2207 44.9221 47.5605 45.7424 48.1653 46.3472C48.7701 46.952 49.5904 47.2918 50.4457 47.2918Z" fill="#7B83EB"/>
<path opacity="0.5" d="M44.9027 57.7725H48.2065C49.4431 57.7725 50.4457 57.2835 50.4457 56.036V48.0977H45.7323C45.2185 48.0977 44.802 50.1267 44.802 50.6404V56.7687C44.802 57.1058 44.8357 57.4421 44.9027 57.7725V57.7725Z" fill="black"/>
<path opacity="0.5" d="M50.3912 47.2851C50.3211 47.0545 50.179 46.8523 49.9858 46.7082C49.7925 46.5641 49.5582 46.4857 49.3171 46.4844H48.333C48.9022 46.9873 49.6318 47.2711 50.3912 47.2851V47.2851Z" fill="black"/>
<path d="M48.5107 45.6777H39.4808C39.1815 45.6777 38.8944 45.7967 38.6827 46.0083C38.471 46.22 38.3521 46.5071 38.3521 46.8065V55.8363C38.3521 55.9846 38.3813 56.1313 38.438 56.2683C38.4947 56.4052 38.5779 56.5297 38.6827 56.6345C38.7875 56.7393 38.9119 56.8224 39.0489 56.8792C39.1858 56.9359 39.3326 56.9651 39.4808 56.9651H48.5107C48.6589 56.9651 48.8057 56.9359 48.9427 56.8792C49.0796 56.8224 49.204 56.7393 49.3089 56.6345C49.4137 56.5297 49.4968 56.4052 49.5535 56.2683C49.6103 56.1313 49.6395 55.9846 49.6395 55.8363V46.8065C49.6395 46.5071 49.5205 46.22 49.3089 46.0083C49.0972 45.7967 48.8101 45.6777 48.5107 45.6777V45.6777Z" fill="#4B53BC"/>
<path d="M47.6157 49.0275H45.1074V55.2983H43.8533V49.0275H41.345V47.7734H47.6157V49.0275Z" fill="white"/>
<path opacity="0.2" fill-rule="evenodd" clip-rule="evenodd" d="M78.4088 64.3421C78.4088 66.4003 77.7985 68.4124 76.655 70.1237C75.5115 71.8351 73.8862 73.1689 71.9847 73.9565C70.0831 74.7442 67.9907 74.9503 65.9721 74.5487C63.9534 74.1472 62.0991 73.1561 60.6437 71.7007C59.1883 70.2453 58.1972 68.391 57.7957 66.3723C57.3941 64.3537 57.6002 62.2613 58.3879 60.3597C59.1755 58.4582 60.5093 56.8329 62.2207 55.6894C63.932 54.5459 65.944 53.9356 68.0023 53.9355C70.7622 53.9357 73.4091 55.0321 75.3607 56.9837C77.3123 58.9353 78.4087 61.5822 78.4088 64.3421V64.3421Z" fill="#C7E7F1"/>
<path fill-rule="evenodd" clip-rule="evenodd" d="M57.5957 64.343C57.5957 62.2848 58.206 60.2728 59.3495 58.5614C60.493 56.8501 62.1183 55.5163 64.0199 54.7286C65.9214 53.941 68.0138 53.7349 70.0325 54.1364C72.0512 54.538 73.9055 55.5291 75.3608 56.9845C76.8162 58.4399 77.8074 60.2941 78.2089 62.3128C78.6104 64.3315 78.4043 66.4239 77.6167 68.3255C76.829 70.227 75.4952 71.8523 73.7838 72.9958C72.0725 74.1393 70.0605 74.7496 68.0023 74.7496C65.2431 74.7469 62.5977 73.6497 60.6467 71.6986C58.6956 69.7476 57.5984 67.1022 57.5957 64.343V64.343ZM82.6929 77.401L77.7729 72.477C79.8736 69.957 80.9219 66.7241 80.6996 63.4509C80.4774 60.1777 79.0018 57.1162 76.5798 54.9032C74.1578 52.6902 70.9759 51.4962 67.696 51.5696C64.416 51.6429 61.2907 52.978 58.97 55.297C56.6494 57.616 55.3121 60.7405 55.2365 64.0204C55.1608 67.3002 56.3526 70.483 58.5638 72.9066C60.7751 75.3301 63.8356 76.8079 67.1086 77.0324C70.3817 77.2569 73.6153 76.2109 76.1367 74.112L81.0625 79.036L82.6929 77.401Z" fill="#30404D"/>
<path fill-rule="evenodd" clip-rule="evenodd" d="M66.1989 76.9368C69.4307 77.4002 72.7169 76.6001 75.374 74.7028C75.5955 74.545 75.8658 74.4709 76.1368 74.4937C76.4078 74.5164 76.6619 74.6346 76.854 74.8271L80.242 78.2185H81.8781L75.3566 71.6982C74.3908 72.664 73.2441 73.43 71.9822 73.9526C70.7202 74.4752 69.3677 74.7441 68.0018 74.744C66.636 74.7439 65.2835 74.4748 64.0216 73.952C62.7598 73.4292 61.6132 72.663 60.6475 71.6971C59.6818 70.7312 58.9157 69.5845 58.3931 68.3226C57.8705 67.0607 57.6016 65.7081 57.6017 64.3423C57.6018 62.9764 57.8709 61.6239 58.3937 60.3621C58.9165 59.1002 59.6827 57.9537 60.6486 56.9879L59.0125 55.3535C57.3404 57.0222 56.1664 59.1238 55.6221 61.4226C55.0778 63.7213 55.1848 66.1262 55.9311 68.3675C56.6773 70.6088 58.0333 72.5979 59.847 74.1115C61.6606 75.6251 63.8602 76.6035 66.1988 76.9368H66.1989Z" fill="#182A37"/>
<path fill-rule="evenodd" clip-rule="evenodd" d="M81.597 82.6927L78.7558 79.8507C78.5336 79.6274 78.4089 79.3252 78.4089 79.0101C78.4089 78.6951 78.5336 78.3929 78.7558 78.1695L81.8315 75.0949C82.0551 74.8727 82.3575 74.748 82.6727 74.748C82.9879 74.748 83.2903 74.8727 83.5139 75.0949L86.2467 77.8285L81.597 82.6927Z" fill="#0078D4"/>
<path fill-rule="evenodd" clip-rule="evenodd" d="M83.9212 80.2628L81.8258 78.1687C81.7189 78.0614 81.5918 77.9762 81.452 77.9181C81.3121 77.86 81.1621 77.8301 81.0106 77.8301C80.8591 77.8301 80.7091 77.86 80.5692 77.9181C80.4293 77.9762 80.3023 78.0614 80.1954 78.1687L78.646 79.717V79.7419L81.5972 82.6941L83.9212 80.2628Z" fill="#1F56A3"/>
<path opacity="0.2" fill-rule="evenodd" clip-rule="evenodd" d="M74.1083 55.9258C75.5651 57.9283 76.2592 60.3851 76.0656 62.8539C75.8719 65.3227 74.8032 67.6413 73.052 69.3922C71.3007 71.143 68.9819 72.2111 66.513 72.4042C64.0442 72.5973 61.5875 71.9026 59.5853 70.4453C60.4674 71.6645 61.6037 72.6777 62.9155 73.415C64.2274 74.1523 65.6836 74.5961 67.1837 74.7158C68.6838 74.8354 70.192 74.628 71.6041 74.108C73.0163 73.588 74.2987 72.7677 75.363 71.7037C76.4272 70.6397 77.2478 69.3575 77.7682 67.9454C78.2885 66.5334 78.4962 65.0253 78.3769 63.5252C78.2576 62.0251 77.8142 60.5687 77.0772 59.2567C76.3402 57.9446 75.3273 56.8082 74.1083 55.9258V55.9258Z" fill="#ABDCEC"/>
<path fill-rule="evenodd" clip-rule="evenodd" d="M92.7295 49.7109C92.7295 58.2333 90.2023 66.5643 85.4675 73.6504C80.7327 80.7365 74.003 86.2595 66.1293 89.5209C58.2556 92.7822 49.5917 93.6356 41.233 91.9729C32.8744 90.3103 25.1965 86.2064 19.1702 80.1801C13.144 74.1539 9.04008 66.476 7.37744 58.1173C5.7148 49.7587 6.56813 41.0947 9.82951 33.2211C13.0909 25.3474 18.6138 18.6177 25.7 13.8829C32.7861 9.14808 41.1171 6.6209 49.6395 6.6209C55.2982 6.62056 60.9016 7.73488 66.1297 9.90023C71.3578 12.0656 76.1081 15.2396 80.1095 19.2409C84.1108 23.2422 87.2848 27.9926 89.4501 33.2207C91.6155 38.4487 92.7298 44.0521 92.7295 49.7109V49.7109ZM49.6395 2.8809C58.9016 2.8809 67.9557 5.62743 75.6568 10.7732C83.358 15.9189 89.3603 23.2328 92.9048 31.7898C96.4492 40.3469 97.3766 49.7628 95.5696 58.847C93.7627 67.9311 89.3026 76.2754 82.7533 82.8247C76.204 89.374 67.8597 93.8341 58.7756 95.6411C49.6914 97.448 40.2755 96.5206 31.7184 92.9762C23.1614 89.4317 15.8475 83.4294 10.7018 75.7283C5.55601 68.0271 2.80948 58.973 2.80948 49.7109C2.81066 37.2912 7.7449 25.3805 16.527 16.5984C25.309 7.8163 37.2197 2.88205 49.6395 2.88086V2.8809Z" fill="#0078D4"/>
</g>
<defs>
<linearGradient id="paint0_linear" x1="47.8698" y1="-15.0827" x2="51.8525" y2="130.685" gradientUnits="userSpaceOnUse">
<stop stop-color="#00ABDE"/>
<stop offset="1" stop-color="#007ED8"/>
</linearGradient>
<linearGradient id="paint1_linear" x1="20.6383" y1="28.7274" x2="78.7577" y2="28.7274" gradientUnits="userSpaceOnUse">
<stop stop-color="#005BA1"/>
<stop offset="0.26" stop-color="#00589D"/>
<stop offset="0.53" stop-color="#004F90"/>
<stop offset="0.8" stop-color="#003F7C"/>
<stop offset="1" stop-color="#003067"/>
</linearGradient>
<clipPath id="clip0">
<rect width="99.2799" height="99.28" fill="white" transform="translate(0 0.0703125)"/>
</clipPath>
</defs>
</svg>
