<svg width="100" height="100" viewBox="0 0 100 100" fill="none" xmlns="http://www.w3.org/2000/svg">
<g clip-path="url(#clip0)">
<path d="M49.6401 96.5204C40.382 96.5204 31.3317 93.775 23.6339 88.6315C15.936 83.488 9.93624 76.1772 6.3933 67.6238C2.85036 59.0704 1.92337 49.6585 3.72954 40.5782C5.53571 31.498 9.99394 23.1572 16.5404 16.6107C23.0869 10.0642 31.4277 5.60603 40.5079 3.79985C49.5882 1.99368 59.0001 2.92067 67.5535 6.46361C76.1069 10.0065 83.4176 16.0063 88.5612 23.7042C93.7047 31.402 96.4501 40.4523 96.4501 49.7104C96.4505 55.8577 95.24 61.9449 92.8878 67.6243C90.5355 73.3038 87.0875 78.4642 82.7407 82.811C78.3939 87.1578 73.2335 90.6058 67.554 92.9581C61.8746 95.3103 55.7874 96.5208 49.6401 96.5204V96.5204Z" fill="url(#paint0_linear)"/>
<path fill-rule="evenodd" clip-rule="evenodd" d="M95.54 49.7103C95.54 58.7885 92.848 67.6628 87.8045 75.211C82.7609 82.7592 75.5923 88.6423 67.2052 92.1164C58.818 95.5904 49.5891 96.4994 40.6854 94.7283C31.7816 92.9573 23.603 88.5857 17.1838 82.1665C10.7646 75.7473 6.39302 67.5687 4.62196 58.6649C2.85089 49.7612 3.75987 40.5323 7.23393 32.1451C10.708 23.758 16.5911 16.5894 24.1393 11.5458C31.6875 6.50229 40.5618 3.8103 49.64 3.8103C55.6677 3.81028 61.6363 4.9975 67.2052 7.30419C72.774 9.61087 77.834 12.9918 82.0963 17.2541C86.3585 21.5163 89.7394 26.5763 92.0461 32.1451C94.3528 37.714 95.54 43.6826 95.54 49.7103V49.7103ZM49.64 0.0703129C59.4579 0.0703129 69.0552 2.98165 77.2185 8.43616C85.3818 13.8907 91.7442 21.6434 95.5014 30.7139C99.2585 39.7844 100.242 49.7654 98.3262 59.3946C96.4108 69.0238 91.6831 77.8688 84.7408 84.8111C77.7985 91.7534 68.9535 96.4811 59.3243 98.3965C49.6951 100.312 39.7141 99.3288 30.6436 95.5717C21.5731 91.8146 13.8204 85.4521 8.36584 77.2888C2.91133 69.1256 -1.61629e-06 59.5282 3.61524e-07 49.7103C-0.000786426 43.1913 1.28265 36.7359 3.77702 30.713C6.27138 24.69 9.92781 19.2174 14.5375 14.6078C19.1471 9.99812 24.6197 6.34169 30.6427 3.84733C36.6656 1.35296 43.121 0.0695248 49.64 0.0703129V0.0703129Z" fill="#F2F1F0"/>
<path fill-rule="evenodd" clip-rule="evenodd" d="M92.7296 49.7109C92.7296 58.2333 90.2024 66.5643 85.4676 73.6504C80.7328 80.7365 74.0031 86.2594 66.1294 89.5208C58.2558 92.7822 49.5918 93.6355 41.2332 91.9729C32.8745 90.3103 25.1966 86.2063 19.1704 80.1801C13.1441 74.1538 9.0402 66.4759 7.37756 58.1173C5.71493 49.7587 6.56825 41.0947 9.82963 33.221C13.091 25.3474 18.614 18.6176 25.7001 13.8828C32.7862 9.14804 41.1172 6.62086 49.6396 6.62086C55.2984 6.62052 60.9018 7.73484 66.1298 9.90019C71.3579 12.0655 76.1083 15.2395 80.1096 19.2409C84.1109 23.2422 87.2849 27.9925 89.4503 33.2206C91.6156 38.4487 92.7299 44.0521 92.7296 49.7109ZM49.6396 2.88086C58.9017 2.88086 67.9558 5.62739 75.657 10.7731C83.3581 15.9189 89.3604 23.2327 92.9049 31.7898C96.4493 40.3469 97.3767 49.7628 95.5698 58.8469C93.7628 67.9311 89.3027 76.2754 82.7534 82.8247C76.2041 89.374 67.8598 93.8341 58.7757 95.641C49.6916 97.448 40.2756 96.5206 31.7185 92.9761C23.1615 89.4317 15.8476 83.4294 10.7019 75.7282C5.55613 68.0271 2.8096 58.973 2.8096 49.7109C2.81079 37.2911 7.74504 25.3804 16.5271 16.5984C25.3092 7.8163 37.2199 2.88205 49.6396 2.88086V2.88086Z" fill="#0078D4"/>
<path fill-rule="evenodd" clip-rule="evenodd" d="M92.7295 49.7109C92.7295 58.2333 90.2023 66.5643 85.4675 73.6504C80.7327 80.7365 74.003 86.2595 66.1293 89.5209C58.2556 92.7822 49.5917 93.6356 41.233 91.9729C32.8744 90.3103 25.1965 86.2064 19.1702 80.1801C13.144 74.1539 9.04008 66.476 7.37744 58.1173C5.7148 49.7587 6.56813 41.0947 9.82951 33.2211C13.0909 25.3474 18.6138 18.6177 25.7 13.8829C32.7861 9.14808 41.1171 6.6209 49.6395 6.6209C55.2982 6.62056 60.9016 7.73488 66.1297 9.90023C71.3578 12.0656 76.1081 15.2396 80.1095 19.2409C84.1108 23.2422 87.2848 27.9926 89.4501 33.2207C91.6155 38.4487 92.7298 44.0521 92.7295 49.7109V49.7109ZM49.6395 2.8809C58.9016 2.8809 67.9557 5.62743 75.6568 10.7732C83.358 15.9189 89.3603 23.2328 92.9048 31.7898C96.4492 40.3469 97.3766 49.7628 95.5696 58.847C93.7627 67.9311 89.3026 76.2754 82.7533 82.8247C76.204 89.374 67.8597 93.8341 58.7756 95.6411C49.6914 97.448 40.2755 96.5206 31.7184 92.9762C23.1614 89.4317 15.8475 83.4294 10.7018 75.7283C5.55601 68.0271 2.80948 58.973 2.80948 49.7109C2.81066 37.2912 7.7449 25.3805 16.527 16.5984C25.309 7.8163 37.2197 2.88205 49.6395 2.88086V2.8809Z" fill="#0078D4"/>
<path fill-rule="evenodd" clip-rule="evenodd" d="M34.7432 22.4375C33.3596 22.4375 32.0327 22.9871 31.0544 23.9655C30.076 24.9438 29.5264 26.2708 29.5264 27.6544V72.6542C29.5264 73.2225 29.4144 73.7852 29.1969 74.3102C28.9795 74.8352 28.6607 75.3122 28.2589 75.714C27.8571 76.1159 27.38 76.4346 26.855 76.6521C26.33 76.8695 25.7673 76.9814 25.199 76.9814H64.041C64.7261 76.9814 65.4045 76.8465 66.0374 76.5843C66.6704 76.3221 67.2455 75.9379 67.7299 75.4534C68.2143 74.969 68.5986 74.3939 68.8608 73.761C69.1229 73.128 69.2579 72.4496 69.2579 71.7646V26.7647C69.2579 25.6171 69.7138 24.5164 70.5253 23.7049C71.3368 22.8934 72.4375 22.4375 73.5851 22.4375H34.7432Z" fill="white"/>
<path fill-rule="evenodd" clip-rule="evenodd" d="M60.7304 73.6995C60.667 73.4075 60.5069 73.1454 60.276 72.9557C60.0451 72.766 59.7569 72.6598 59.4581 72.6543H22.4803C22.2576 72.6552 22.0387 72.7128 21.8443 72.8215C21.6499 72.9303 21.4864 73.0867 21.369 73.2761C21.2517 73.4654 21.1845 73.6815 21.1736 73.904C21.1628 74.1265 21.2087 74.348 21.307 74.5479C21.6622 75.2777 22.2155 75.8929 22.9037 76.3232C23.5919 76.7536 24.3873 76.9817 25.199 76.9815H64.9305C63.9646 76.9814 63.0265 76.6583 62.2654 76.0636C61.5043 75.4689 60.964 74.6367 60.7304 73.6995V73.6995Z" fill="#E8E8E8"/>
<path fill-rule="evenodd" clip-rule="evenodd" d="M73.5851 22.4375C73.0169 22.4375 72.4542 22.5494 71.9292 22.7669C71.4042 22.9844 70.9272 23.3031 70.5254 23.7049C70.1236 24.1067 69.8048 24.5838 69.5874 25.1088C69.3699 25.6338 69.258 26.1965 69.258 26.7647V30.7829H77.9122V26.7647C77.9123 26.1965 77.8003 25.6338 77.5829 25.1088C77.3655 24.5838 77.0467 24.1067 76.6449 23.7049C76.2431 23.3031 75.7661 22.9843 75.2411 22.7669C74.7161 22.5494 74.1534 22.4375 73.5851 22.4375Z" fill="#E8E8E8"/>
<path d="M43.3407 56.1406H61.9816" stroke="#F2F2F2" stroke-width="1.65303" stroke-miterlimit="10" stroke-linecap="round"/>
<path d="M43.3407 61.3027H61.9816" stroke="#F2F2F2" stroke-width="1.65303" stroke-miterlimit="10" stroke-linecap="round"/>
<path d="M43.3407 66.4629H61.9816" stroke="#F2F2F2" stroke-width="1.65303" stroke-miterlimit="10" stroke-linecap="round"/>
<path d="M39.7938 54.3984H37.2849C37.0156 54.3984 36.7974 54.6167 36.7974 54.886V57.3949C36.7974 57.6641 37.0156 57.8824 37.2849 57.8824H39.7938C40.0631 57.8824 40.2813 57.6641 40.2813 57.3949V54.886C40.2813 54.6167 40.0631 54.3984 39.7938 54.3984Z" fill="#0078D4"/>
<path d="M39.7938 59.5605H37.2849C37.0156 59.5605 36.7974 59.7788 36.7974 60.0481V62.557C36.7974 62.8262 37.0156 63.0445 37.2849 63.0445H39.7938C40.0631 63.0445 40.2813 62.8262 40.2813 62.557V60.0481C40.2813 59.7788 40.0631 59.5605 39.7938 59.5605Z" fill="#F2F2F2"/>
<path d="M39.7938 64.7207H37.2849C37.0156 64.7207 36.7974 64.939 36.7974 65.2082V67.7171C36.7974 67.9864 37.0156 68.2047 37.2849 68.2047H39.7938C40.0631 68.2047 40.2813 67.9864 40.2813 67.7171V65.2082C40.2813 64.939 40.0631 64.7207 39.7938 64.7207Z" fill="#F2F2F2"/>
<path d="M59.8384 37.0708L54.3657 37.068L53.6707 37.9516V43.807C53.6707 45.4285 55.2951 46.7429 57.2987 46.7429C59.3024 46.7429 60.9268 45.4285 60.9268 43.807V37.9516C60.8965 37.6916 60.7656 37.4539 60.5621 37.2893C60.3587 37.1247 60.0989 37.0463 59.8384 37.0708V37.0708Z" fill="#5059C9"/>
<path d="M57.7018 36.2613C58.1802 36.2613 58.6478 36.1194 59.0456 35.8536C59.4434 35.5879 59.7534 35.2101 59.9364 34.7682C60.1195 34.3262 60.1674 33.8399 60.0741 33.3707C59.9808 32.9015 59.7504 32.4705 59.4121 32.1323C59.0739 31.794 58.6429 31.5636 58.1737 31.4703C57.7045 31.377 57.2182 31.4249 56.7762 31.6079C56.3343 31.791 55.9565 32.101 55.6907 32.4988C55.425 32.8965 55.2831 33.3642 55.2831 33.8425C55.2831 34.1602 55.3457 34.4747 55.4672 34.7682C55.5888 35.0616 55.7669 35.3282 55.9915 35.5528C56.2161 35.7774 56.4828 35.9556 56.7762 36.0772C57.0697 36.1987 57.3842 36.2613 57.7018 36.2613V36.2613Z" fill="#5059C9"/>
<path d="M44.802 45.7375V37.9839C44.802 37.8634 44.8257 37.7441 44.8718 37.6328C44.9179 37.5215 44.9855 37.4203 45.0707 37.3351C45.1559 37.2499 45.2571 37.1823 45.3684 37.1362C45.4797 37.0901 45.599 37.0664 45.7195 37.0664H54.3656C54.6089 37.0664 54.8423 37.163 55.0144 37.3351C55.1864 37.5071 55.2831 37.7405 55.2831 37.9838V45.7375C55.2831 47.0729 54.7526 48.3535 53.8084 49.2978C52.8641 50.242 51.5835 50.7725 50.2481 50.7725H49.837C48.5016 50.7725 47.221 50.242 46.2767 49.2978C45.3325 48.3535 44.802 47.0729 44.802 45.7375V45.7375Z" fill="#7B83EB"/>
<path d="M50.4457 36.2605C51.0835 36.2605 51.7071 36.0714 52.2374 35.717C52.7678 35.3627 53.1811 34.859 53.4252 34.2697C53.6693 33.6804 53.7332 33.032 53.6087 32.4064C53.4843 31.7808 53.1771 31.2062 52.7261 30.7551C52.2751 30.3041 51.7005 29.997 51.0749 29.8725C50.4493 29.7481 49.8008 29.8119 49.2115 30.056C48.6223 30.3001 48.1186 30.7135 47.7642 31.2438C47.4098 31.7742 47.2207 32.3977 47.2207 33.0355C47.2207 33.8909 47.5605 34.7112 48.1653 35.316C48.7701 35.9208 49.5904 36.2605 50.4457 36.2605Z" fill="#7B83EB"/>
<path opacity="0.5" d="M44.9027 46.7413H48.2065C49.4431 46.7413 50.4457 46.2523 50.4457 45.0048V37.0664H45.7323C45.2185 37.0664 44.802 39.0954 44.802 39.6091V45.7374C44.802 46.0746 44.8357 46.4109 44.9027 46.7413V46.7413Z" fill="black"/>
<path opacity="0.5" d="M50.3912 36.2558C50.3211 36.0252 50.179 35.823 49.9858 35.6789C49.7925 35.5348 49.5582 35.4564 49.3171 35.4551H48.333C48.9022 35.958 49.6318 36.2418 50.3912 36.2558V36.2558Z" fill="black"/>
<path d="M48.5107 34.6484H39.4808C39.1815 34.6484 38.8944 34.7674 38.6827 34.979C38.471 35.1907 38.3521 35.4778 38.3521 35.7772V44.807C38.3521 44.9553 38.3813 45.102 38.438 45.239C38.4947 45.3759 38.5779 45.5004 38.6827 45.6052C38.7875 45.71 38.9119 45.7931 39.0489 45.8499C39.1858 45.9066 39.3326 45.9358 39.4808 45.9358H48.5107C48.6589 45.9358 48.8057 45.9066 48.9427 45.8499C49.0796 45.7931 49.204 45.71 49.3089 45.6052C49.4137 45.5004 49.4968 45.3759 49.5535 45.239C49.6103 45.102 49.6395 44.9553 49.6395 44.807V35.7772C49.6395 35.4778 49.5205 35.1907 49.3089 34.979C49.0972 34.7674 48.8101 34.6484 48.5107 34.6484V34.6484Z" fill="#4B53BC"/>
<path d="M47.6157 37.9982H45.1074V44.269H43.8533V37.9982H41.345V36.7441H47.6157V37.9982Z" fill="white"/>
</g>
<defs>
<linearGradient id="paint0_linear" x1="47.8698" y1="-15.0827" x2="51.8525" y2="130.685" gradientUnits="userSpaceOnUse">
<stop stop-color="#00ABDE"/>
<stop offset="1" stop-color="#007ED8"/>
</linearGradient>
<clipPath id="clip0">
<rect width="99.2799" height="99.28" fill="white" transform="translate(0 0.0703125)"/>
</clipPath>
</defs>
</svg>
