<svg width="160" height="188" viewBox="0 0 160 188" fill="none" xmlns="http://www.w3.org/2000/svg">
<g clip-path="url(#clip0)">
<path d="M79.6779 188C82.7592 187.994 85.7796 187.141 88.4083 185.534L150.384 147.874C153.165 146.11 155.449 143.665 157.019 140.771C158.589 137.876 159.394 134.628 159.356 131.336V56.6207C159.392 53.3283 158.587 50.0812 157.017 47.1871C155.447 44.2929 153.163 41.8476 150.384 40.0829L88.4083 2.4228C85.7749 0.837605 82.7592 0 79.6855 0C76.6118 0 73.5961 0.837605 70.9627 2.4228L8.9876 40.098C6.2045 41.8604 3.91796 44.3048 2.34499 47.1991C0.772021 50.0935 -0.0351786 53.3418 4.1431e-06 56.6358V131.336C-0.0185283 134.119 0.556189 136.874 1.68588 139.418C2.81557 141.962 4.4743 144.236 6.5516 146.089V146.115L70.9627 185.549C73.5884 187.149 76.6032 187.996 79.6779 188V188ZM80.3257 6.95218C82.2776 6.95218 84.7548 8.1651 86.4646 9.20912L147.222 46.4034C150.974 48.6881 153.09 55.2842 153.09 60.0352L152.458 131.336C152.458 136.087 149.259 140.355 145.506 142.64L85.1104 179.021C81.6758 181.109 78.8854 181.109 75.4507 179.021L14.2427 142.549C10.4903 140.265 7.47191 136.072 7.47191 131.336V57.688C7.50442 55.3228 8.11341 53.0013 9.24608 50.9247C10.3787 48.8482 12.0009 47.0792 13.9718 45.7714L74.548 9.20912C76.2577 8.1651 78.3739 6.95218 80.3257 6.95218Z" fill="#F2F1F0"/>
<path fill-rule="evenodd" clip-rule="evenodd" d="M87.5765 10.5329C85.2056 9.05935 82.4698 8.27844 79.6783 8.27844C76.8868 8.27844 74.151 9.05935 71.7801 10.5329L15.6454 44.8643C13.1194 46.4759 11.047 48.7063 9.62503 51.3438C8.20303 53.9812 7.47854 56.9383 7.52029 59.9344V128.038C7.48037 131.033 8.20565 133.99 9.62748 136.627C11.0493 139.264 13.1206 141.495 15.6454 143.108L71.7801 177.439C74.1508 178.912 76.8867 179.694 79.6783 179.694C82.4699 179.694 85.2057 178.912 87.5765 177.439L143.711 143.108C146.236 141.495 148.307 139.264 149.729 136.627C151.151 133.99 151.877 131.033 151.837 128.038V59.9344C151.875 56.9388 151.149 53.983 149.727 51.3462C148.305 48.7093 146.234 46.4784 143.711 44.8643L87.5765 10.5329Z" fill="url(#paint0_linear)"/>
<path fill-rule="evenodd" clip-rule="evenodd" d="M79.6783 9.75438C81.3615 9.75438 83.2442 10.6201 85.311 11.8782L143.777 47.4206C145.668 48.634 147.218 50.3109 148.278 52.2919C149.339 54.273 149.875 56.4923 149.837 58.7391V129.218C149.875 131.464 149.339 133.684 148.278 135.665C147.218 137.645 145.668 139.322 143.777 140.536L85.312 176.078L85.311 176.079C83.6408 177.218 81.6958 177.889 79.6783 178.022C77.6609 177.889 75.7158 177.218 74.0456 176.079L74.0446 176.078L15.5823 140.538L15.5801 140.537C13.7918 139.573 12.2668 138.186 11.1383 136.497C10.1614 134.894 9.52031 132.679 9.52031 129.218V58.7391C9.48157 56.4924 10.018 54.2731 11.0785 52.2921C12.139 50.3111 13.6885 48.6341 15.5797 47.4206L74.0365 11.8836L74.0406 11.8812C76.1244 10.6282 77.9846 9.75438 79.6783 9.75438ZM87.3908 8.46138L145.855 44.0026C148.333 45.5727 150.368 47.7515 151.765 50.3312C153.162 52.9109 153.876 55.8056 153.837 58.7391V129.218C153.876 132.151 153.162 135.046 151.765 137.626C150.368 140.206 148.333 142.384 145.855 143.955L87.3898 179.496C85.0956 181.021 82.4302 181.894 79.6783 182.022C76.9264 181.894 74.261 181.021 71.9667 179.496H71.9658L13.502 143.954L13.4995 143.953C11.1642 142.66 9.18097 140.815 7.72281 138.579C6.12823 135.725 5.36521 132.482 5.52031 129.218V58.7391C5.48125 55.8055 6.19436 52.9108 7.59165 50.331C8.98894 47.7513 11.0238 45.5725 13.5022 44.0025L71.9667 8.46073L71.9749 8.45585C74.0655 7.19844 76.7734 5.75439 79.6783 5.75439C82.5645 5.75439 85.2816 7.17747 87.3908 8.46133V8.46138Z" fill="#0078D4"/>
<path opacity="0.2" d="M139.959 132.026L80.409 166.633L20.47 132.027L80.02 97.4199L139.959 132.026Z" fill="#003067"/>
<path d="M140.532 120.546L79.81 155.834L18.698 120.551L79.42 85.2629L140.532 120.546Z" fill="#1B93EB"/>
<path d="M140.532 120.546L140.52 124.652L79.798 159.94L79.81 155.834L140.532 120.546Z" fill="#1F56A3"/>
<path d="M79.81 155.834L79.798 159.94L18.686 124.657L18.698 120.551L79.81 155.834Z" fill="#0078D4"/>
<path opacity="0.2" d="M47.9589 124.788C48.2806 125.08 48.2036 125.499 47.7832 125.743L47.3653 125.986C46.8507 126.237 46.2582 126.274 45.7161 126.091L44.5302 125.653C44.3873 125.617 44.2382 125.613 44.0936 125.641L43.1323 125.874C42.9983 125.895 42.8767 125.965 42.7911 126.07L42.4929 126.866C42.3499 127.071 42.1551 127.235 41.9282 127.341C41.7012 127.446 41.4504 127.49 41.2012 127.466H40.6108C40.2819 127.468 39.9581 127.386 39.6698 127.227C39.5141 127.149 39.3885 127.022 39.3124 126.866L39.0002 126.07C38.9672 126.018 38.9207 125.976 38.8656 125.949C38.8167 125.92 38.764 125.898 38.709 125.884L37.7376 125.653C37.5813 125.614 37.4177 125.614 37.2613 125.653L36.0779 126.09C35.5354 126.273 34.9426 126.235 34.4275 125.985L34.0094 125.744C33.5863 125.499 33.5045 125.08 33.8229 124.788L34.5732 124.101C34.6036 124.067 34.6218 124.023 34.6251 123.978C34.6284 123.932 34.6167 123.886 34.5917 123.848L34.1841 123.292C34.1539 123.241 34.1098 123.2 34.057 123.173C33.9915 123.135 33.92 123.108 33.8456 123.094L32.4727 122.917C32.2525 122.889 32.0398 122.819 31.8464 122.71C31.7367 122.663 31.6411 122.588 31.5685 122.492C31.4959 122.397 31.4488 122.285 31.4315 122.167L31.4296 121.825C31.4276 121.48 31.8798 121.151 32.4623 121.075L33.8333 120.898C33.9555 120.879 34.0679 120.82 34.1524 120.73L34.5511 120.169C34.5829 120.13 34.6001 120.08 34.5999 120.03C34.5996 119.979 34.5818 119.93 34.5495 119.891L33.789 119.205C33.4673 118.913 33.5444 118.494 33.9647 118.25L34.3826 118.007C34.8972 117.756 35.4897 117.719 36.0318 117.902L37.2177 118.34C37.3606 118.376 37.5097 118.38 37.6544 118.352L38.6156 118.119C38.7497 118.098 38.8713 118.029 38.9569 117.923L39.2551 117.127C39.398 116.922 39.5928 116.758 39.8198 116.652C40.0467 116.547 40.2975 116.503 40.5467 116.527H41.1371C41.466 116.525 41.7898 116.607 42.0781 116.766C42.2338 116.844 42.3594 116.971 42.4356 117.127L42.7452 117.922C42.7792 117.974 42.8265 118.016 42.8823 118.044C42.9315 118.074 42.9853 118.095 43.0414 118.107L44.0078 118.339C44.1648 118.379 44.3293 118.379 44.4866 118.34L45.6725 117.902C46.2145 117.72 46.8062 117.758 47.3204 118.008L47.7385 118.249C48.1617 118.494 48.2434 118.913 47.925 119.205L47.1747 119.892C47.1444 119.926 47.1261 119.97 47.1228 120.015C47.1195 120.061 47.1312 120.107 47.1563 120.145L47.5638 120.701C47.594 120.752 47.6381 120.793 47.691 120.82C47.7555 120.858 47.8262 120.885 47.8998 120.898L49.2752 121.076C49.4955 121.103 49.7083 121.174 49.9017 121.282C50.0112 121.33 50.1069 121.405 50.1798 121.5C50.2527 121.595 50.3006 121.707 50.3189 121.825L50.3184 122.168C50.3203 122.513 49.8681 122.842 49.2856 122.918L47.9122 123.094C47.7909 123.114 47.6796 123.173 47.5956 123.263L47.1968 123.824C47.1647 123.863 47.1475 123.912 47.1483 123.963C47.149 124.014 47.1676 124.063 47.2008 124.101L47.9589 124.788ZM38.7931 123.206C39.44 123.534 40.1554 123.705 40.8809 123.705C41.6065 123.705 42.3217 123.533 42.9684 123.204C43.2196 123.116 43.4371 122.952 43.5904 122.735C43.7438 122.517 43.8254 122.257 43.8239 121.991C43.8225 121.725 43.7379 121.466 43.5821 121.25C43.4263 121.034 43.207 120.872 42.9548 120.787C42.3083 120.459 41.5935 120.288 40.8684 120.288C40.1433 120.288 39.4285 120.459 38.782 120.787C38.5305 120.875 38.3126 121.039 38.1588 121.256C38.005 121.474 37.923 121.734 37.9242 122C37.9255 122.267 38.0099 122.526 38.1656 122.742C38.3214 122.958 38.5408 123.12 38.7931 123.206" fill="#003067"/>
<path d="M37.9176 117.145L37.9242 114.811C37.9481 114.553 38.0401 114.305 38.1908 114.094C38.3415 113.883 38.5455 113.715 38.782 113.609C39.4284 113.28 40.1433 113.109 40.8684 113.109C41.5935 113.109 42.3083 113.28 42.9548 113.609C43.195 113.716 43.4022 113.885 43.555 114.099C43.7079 114.313 43.8007 114.564 43.824 114.825L43.8174 117.145L37.9176 117.145Z" fill="url(#paint1_linear)"/>
<path d="M47.9589 117.609C48.2806 117.901 48.2036 118.32 47.7832 118.565L47.3653 118.808C46.8507 119.058 46.2582 119.096 45.7161 118.913L44.5302 118.474C44.3873 118.438 44.2382 118.434 44.0936 118.463L43.1323 118.696C42.9983 118.716 42.8767 118.786 42.7911 118.891L42.4929 119.687C42.3499 119.893 42.1551 120.056 41.9282 120.162C41.7012 120.267 41.4504 120.311 41.2012 120.288H40.6108C40.2819 120.289 39.9581 120.207 39.6698 120.049C39.5141 119.971 39.3885 119.844 39.3124 119.687L39.0002 118.891C38.9672 118.839 38.9207 118.797 38.8656 118.77C38.8167 118.741 38.764 118.72 38.709 118.706L37.7376 118.474C37.5813 118.435 37.4177 118.435 37.2613 118.474L36.0779 118.911C35.5353 119.094 34.9426 119.056 34.4275 118.806L34.0094 118.565C33.5863 118.321 33.5045 117.901 33.8229 117.609L34.5732 116.922C34.6036 116.888 34.6218 116.845 34.6251 116.799C34.6284 116.753 34.6167 116.708 34.5917 116.669L34.1841 116.113C34.1539 116.062 34.1098 116.021 34.057 115.994C33.9915 115.956 33.92 115.929 33.8456 115.915L32.4727 115.738C32.2525 115.711 32.0398 115.641 31.8464 115.532C31.7367 115.484 31.6411 115.409 31.5685 115.314C31.4959 115.219 31.4488 115.107 31.4315 114.988L31.4296 114.646C31.4276 114.301 31.8798 113.972 32.4623 113.896L33.8333 113.719C33.9555 113.701 34.0679 113.641 34.1524 113.551L34.5511 112.991C34.5829 112.951 34.6001 112.902 34.5999 112.851C34.5996 112.8 34.5818 112.751 34.5495 112.712L33.789 112.026C33.4673 111.735 33.5444 111.315 33.9647 111.071L34.3826 110.828C34.8972 110.578 35.4897 110.54 36.0318 110.723L37.2177 111.161C37.3606 111.197 37.5097 111.201 37.6544 111.173L38.6156 110.94C38.7497 110.92 38.8713 110.85 38.9569 110.745L39.2551 109.948C39.398 109.743 39.5928 109.579 39.8198 109.474C40.0467 109.368 40.2975 109.325 40.5467 109.348H41.1371C41.466 109.346 41.7898 109.429 42.0781 109.587C42.2338 109.665 42.3594 109.792 42.4356 109.949L42.7452 110.743C42.7792 110.795 42.8265 110.838 42.8823 110.865C42.9315 110.895 42.9853 110.916 43.0414 110.929L44.0078 111.16C44.1648 111.2 44.3294 111.201 44.4866 111.161L45.6725 110.723C46.2145 110.541 46.8062 110.579 47.3204 110.829L47.7385 111.071C48.1617 111.315 48.2434 111.735 47.925 112.026L47.1747 112.713C47.1444 112.748 47.1261 112.791 47.1228 112.837C47.1195 112.882 47.1312 112.928 47.1563 112.966L47.5638 113.522C47.594 113.573 47.6381 113.615 47.691 113.642C47.7555 113.68 47.8262 113.706 47.8998 113.719L49.2752 113.897C49.4955 113.925 49.7083 113.995 49.9017 114.104C50.0112 114.152 50.1069 114.227 50.1798 114.321C50.2527 114.416 50.3006 114.528 50.3189 114.646L50.3184 114.99C50.3203 115.334 49.8681 115.664 49.2856 115.74L47.9122 115.915C47.7909 115.935 47.6796 115.995 47.5956 116.085L47.1968 116.645C47.1647 116.684 47.1475 116.734 47.1483 116.784C47.149 116.835 47.1676 116.884 47.2008 116.922L47.9589 117.609ZM38.7931 116.027C39.44 116.356 40.1554 116.527 40.8809 116.526C41.6065 116.526 42.3217 116.355 42.9684 116.026C43.2196 115.938 43.4371 115.773 43.5904 115.556C43.7438 115.338 43.8254 115.078 43.8239 114.812C43.8225 114.546 43.7379 114.287 43.5821 114.071C43.4263 113.855 43.207 113.694 42.9548 113.609C42.3083 113.28 41.5935 113.109 40.8684 113.109C40.1433 113.109 39.4285 113.28 38.782 113.609C38.5305 113.696 38.3126 113.86 38.1588 114.078C38.005 114.295 37.923 114.555 37.9242 114.822C37.9255 115.088 38.0099 115.348 38.1656 115.564C38.3214 115.78 38.5408 115.942 38.7931 116.027" fill="url(#paint2_linear)"/>
<path d="M48.1119 111.686C48.1084 111.713 48.1027 111.739 48.0949 111.765C48.0905 111.779 48.0859 111.793 48.0802 111.807C48.0688 111.834 48.0552 111.86 48.0397 111.885C48.0323 111.897 48.0263 111.909 48.0179 111.921C47.9909 111.959 47.96 111.994 47.9256 112.026L47.9251 112.026L47.1747 112.713C47.1578 112.73 47.145 112.75 47.1374 112.773C47.1351 112.781 47.1333 112.789 47.1319 112.798C47.1273 112.814 47.1245 112.831 47.1234 112.848C47.1195 112.89 47.1312 112.932 47.1563 112.966L47.5638 113.522C47.5941 113.573 47.6382 113.615 47.691 113.642C47.7555 113.68 47.8262 113.706 47.8999 113.719L48.1129 113.747L48.1189 111.625L48.1166 111.645C48.116 111.659 48.1137 111.673 48.1119 111.686Z" fill="url(#paint3_linear)"/>
<path d="M50.2984 115.118C50.2169 115.315 50.0632 115.473 49.8689 115.56C49.7927 115.599 49.7135 115.632 49.6321 115.658C49.5195 115.696 49.4035 115.724 49.2856 115.74L48.1321 115.887L48.1068 115.89L47.9122 115.915C47.7909 115.935 47.6796 115.995 47.5956 116.085L47.1968 116.645C47.1647 116.684 47.1475 116.734 47.1483 116.785C47.149 116.835 47.1676 116.884 47.2008 116.922L47.9589 117.609C48.2806 117.901 48.2036 118.321 47.7832 118.565L47.3653 118.808C46.9639 119.006 46.5103 119.073 46.0688 118.999C46.0527 118.996 46.0376 118.993 46.0217 118.99C45.9178 118.973 45.8155 118.948 45.7161 118.913L44.5302 118.474C44.5056 118.467 44.4804 118.462 44.455 118.458C44.4079 118.45 44.3604 118.446 44.3127 118.444C44.2391 118.44 44.1654 118.447 44.0936 118.463L43.1323 118.696C43.1204 118.698 43.1093 118.703 43.0975 118.706C42.9768 118.73 42.8683 118.795 42.791 118.891L42.4928 119.687C42.4281 119.83 42.3201 119.948 42.1842 120.026C42.0757 120.094 41.9592 120.148 41.8374 120.187C41.632 120.254 41.4173 120.288 41.2012 120.288H40.6108C40.4568 120.287 40.3035 120.269 40.1539 120.233C40.0588 120.211 39.9655 120.183 39.8746 120.148C39.8041 120.12 39.7356 120.087 39.6698 120.049C39.5141 119.971 39.3885 119.844 39.3124 119.687L39.0002 118.891C38.9672 118.839 38.9207 118.798 38.8656 118.77C38.8167 118.742 38.764 118.72 38.709 118.706L38.2233 118.59L37.7376 118.474C37.6982 118.463 37.6578 118.456 37.6171 118.452C37.5724 118.447 37.5275 118.445 37.4826 118.445C37.4405 118.446 37.3984 118.448 37.3566 118.453C37.3242 118.457 37.2922 118.464 37.2613 118.474L36.0779 118.911C35.9736 118.948 35.8661 118.975 35.7568 118.992C35.7402 118.995 35.7246 118.998 35.7078 119C35.5963 119.016 35.4839 119.023 35.3713 119.023L35.3195 119.022C35.2033 119.019 35.0875 119.009 34.9729 118.989L34.9565 118.986C34.7713 118.956 34.5924 118.896 34.4275 118.806L34.0093 118.565C33.5862 118.321 33.5045 117.901 33.8229 117.609L34.5732 116.922C34.5943 116.898 34.6095 116.87 34.6178 116.839C34.6261 116.808 34.6272 116.776 34.621 116.744L34.6181 116.723C34.6135 116.704 34.6045 116.686 34.592 116.67L34.5916 116.67L34.5889 116.666L34.1841 116.113C34.1538 116.062 34.1098 116.021 34.0569 115.994C33.9915 115.956 33.92 115.929 33.8456 115.915L32.4727 115.738C32.2858 115.713 32.1045 115.657 31.936 115.572C31.9071 115.558 31.8733 115.548 31.8463 115.532C31.7306 115.468 31.6282 115.383 31.5444 115.28C31.4751 115.198 31.4353 115.096 31.4314 114.988L31.4134 118.166C31.4307 118.284 31.4778 118.397 31.5504 118.492C31.623 118.587 31.7186 118.662 31.8283 118.71C32.0217 118.818 32.2344 118.889 32.4546 118.916L33.617 119.066L33.6109 121.188C33.6194 121.306 33.6591 121.42 33.726 121.517C33.7928 121.615 33.8844 121.692 33.9913 121.743L34.4094 121.984C34.9245 122.234 35.5172 122.272 36.0598 122.089L37.2432 121.652C37.3996 121.613 37.5632 121.613 37.7196 121.652L38.6908 121.884C38.7459 121.898 38.7986 121.919 38.8475 121.948C38.9026 121.975 38.9491 122.017 38.9822 122.069L39.2942 122.865C39.3704 123.022 39.4961 123.149 39.6517 123.227C39.94 123.385 40.2638 123.467 40.5927 123.466H41.1832C41.4324 123.489 41.6832 123.445 41.9101 123.34C42.137 123.234 42.3319 123.07 42.4748 122.865L42.773 122.069C42.8586 121.964 42.9801 121.894 43.1142 121.874L44.0755 121.641C44.2201 121.612 44.3693 121.616 44.5122 121.652L45.6981 122.09C46.2402 122.274 46.8327 122.236 47.3472 121.986L47.7651 121.743C47.8701 121.693 47.96 121.616 48.0257 121.52C48.0914 121.424 48.1306 121.312 48.1393 121.196L48.1453 119.061L49.2675 118.918C49.85 118.841 50.3022 118.512 50.3003 118.167L50.3183 114.99C50.3184 115.033 50.3117 115.076 50.2984 115.118Z" fill="url(#paint4_linear)"/>
<path d="M33.8333 113.719C33.9555 113.701 34.0679 113.642 34.1523 113.551L34.5511 112.991C34.5839 112.95 34.6009 112.898 34.599 112.846C34.5981 112.829 34.5952 112.811 34.5904 112.795C34.5892 112.787 34.5876 112.778 34.5856 112.77C34.578 112.748 34.5657 112.728 34.5495 112.712L33.7891 112.027C33.7539 111.994 33.7221 111.959 33.6944 111.92C33.6858 111.908 33.6797 111.896 33.6722 111.884C33.6564 111.859 33.6426 111.833 33.6309 111.806C33.6249 111.791 33.6203 111.777 33.6158 111.763C33.6078 111.737 33.602 111.712 33.5982 111.686C33.5961 111.671 33.5941 111.656 33.5933 111.642C33.5929 111.634 33.5906 111.625 33.5906 111.617L33.5845 113.751L33.8333 113.719Z" fill="url(#paint5_linear)"/>
<path d="M51.4457 128.958C51.6417 129.136 51.5948 129.392 51.3386 129.541L51.084 129.689C50.7703 129.841 50.4092 129.864 50.0788 129.753L49.3561 129.486C49.269 129.463 49.1781 129.461 49.09 129.479L48.5041 129.62C48.4224 129.633 48.3483 129.675 48.2961 129.74L48.1144 130.225C48.0273 130.35 47.9085 130.45 47.7702 130.514C47.6319 130.578 47.479 130.605 47.3272 130.591H46.9673C46.7669 130.592 46.5695 130.541 46.3938 130.445C46.299 130.398 46.2224 130.32 46.176 130.225L45.9858 129.74C45.9657 129.708 45.9373 129.682 45.9037 129.666C45.8739 129.648 45.8418 129.635 45.8083 129.627L45.2163 129.486C45.121 129.462 45.0213 129.462 44.926 129.486L44.2047 129.752C43.8741 129.863 43.5128 129.84 43.1989 129.688L42.9441 129.541C42.6862 129.392 42.6364 129.136 42.8304 128.958L43.2877 128.54C43.3062 128.519 43.3173 128.492 43.3193 128.464C43.3213 128.437 43.3142 128.409 43.2989 128.386L43.0505 128.047C43.0321 128.016 43.0052 127.99 42.973 127.974C42.9332 127.951 42.8896 127.934 42.8443 127.926L42.0075 127.818C41.8733 127.801 41.7437 127.758 41.6258 127.692C41.559 127.663 41.5007 127.617 41.4564 127.559C41.4122 127.501 41.3835 127.433 41.3729 127.361L41.3718 127.152C41.3706 126.942 41.6461 126.742 42.0012 126.695L42.8367 126.588C42.9112 126.576 42.9797 126.54 43.0312 126.485L43.2742 126.144C43.2936 126.119 43.3041 126.089 43.3039 126.058C43.3037 126.027 43.2929 125.997 43.2732 125.974L42.8097 125.556C42.6137 125.378 42.6606 125.122 42.9168 124.973L43.1715 124.825C43.4851 124.673 43.8462 124.65 44.1766 124.762L44.8993 125.029C44.9864 125.051 45.0773 125.053 45.1654 125.036L45.7513 124.894C45.833 124.881 45.9071 124.839 45.9593 124.775L46.141 124.289C46.2281 124.164 46.3469 124.064 46.4852 124C46.6235 123.936 46.7764 123.909 46.9282 123.923H47.2881C47.4885 123.923 47.6858 123.973 47.8615 124.069C47.9564 124.117 48.033 124.194 48.0794 124.289L48.2681 124.774C48.2888 124.806 48.3177 124.831 48.3517 124.848C48.3817 124.866 48.4144 124.879 48.4487 124.887L49.0377 125.028C49.1334 125.052 49.2336 125.052 49.3295 125.029L50.0522 124.761C50.3826 124.651 50.7432 124.674 51.0565 124.826L51.3114 124.973C51.5693 125.122 51.6191 125.378 51.425 125.556L50.9677 125.974C50.9493 125.995 50.9382 126.022 50.9361 126.05C50.9341 126.077 50.9413 126.105 50.9565 126.129L51.2049 126.468C51.2233 126.499 51.2502 126.524 51.2824 126.54C51.3217 126.563 51.3648 126.579 51.4097 126.588L52.2479 126.696C52.3822 126.713 52.5119 126.755 52.6297 126.822C52.6965 126.851 52.7548 126.897 52.7992 126.955C52.8437 127.012 52.8728 127.08 52.884 127.152L52.8837 127.362C52.8849 127.572 52.6093 127.772 52.2542 127.819L51.4172 127.926C51.3433 127.938 51.2755 127.974 51.2242 128.029L50.9812 128.371C50.9617 128.395 50.9512 128.425 50.9517 128.456C50.9521 128.487 50.9635 128.516 50.9837 128.54L51.4457 128.958ZM45.8596 127.994C46.2538 128.194 46.6898 128.299 47.132 128.298C47.5742 128.298 48.0101 128.194 48.4042 127.993C48.5573 127.94 48.6899 127.84 48.7834 127.707C48.8769 127.574 48.9267 127.416 48.9258 127.254C48.9249 127.091 48.8733 126.934 48.7783 126.802C48.6834 126.671 48.5497 126.572 48.396 126.52C48.002 126.32 47.5663 126.216 47.1244 126.216C46.6825 126.216 46.2468 126.32 45.8528 126.52C45.6995 126.573 45.5667 126.673 45.473 126.806C45.3792 126.939 45.3293 127.097 45.33 127.259C45.3307 127.422 45.3822 127.58 45.4771 127.712C45.5721 127.843 45.7058 127.942 45.8596 127.994" fill="url(#paint6_linear)"/>
<path d="M51.539 125.348C51.5369 125.365 51.5334 125.381 51.5286 125.396L51.5197 125.422C51.5127 125.438 51.5045 125.454 51.495 125.47L51.4817 125.491C51.4652 125.515 51.4464 125.536 51.4255 125.555L51.4251 125.556L50.9678 125.974C50.9575 125.985 50.9497 125.997 50.9451 126.011L50.9417 126.026C50.939 126.036 50.9372 126.046 50.9366 126.056C50.9342 126.082 50.9413 126.108 50.9565 126.129L51.2049 126.467C51.2234 126.499 51.2502 126.524 51.2824 126.54C51.3218 126.563 51.3648 126.579 51.4097 126.587L51.5396 126.604L51.5432 125.311L51.5418 125.323L51.539 125.348Z" fill="url(#paint7_linear)"/>
<path d="M52.8716 127.44C52.8219 127.56 52.7282 127.656 52.6098 127.709C52.5634 127.733 52.5151 127.753 52.4655 127.769C52.3969 127.792 52.3261 127.809 52.2543 127.819L51.5513 127.909L51.5359 127.911L51.4173 127.926C51.3433 127.938 51.2755 127.974 51.2243 128.029L50.9813 128.371C50.9617 128.395 50.9512 128.425 50.9517 128.456C50.9521 128.486 50.9635 128.516 50.9837 128.54L51.4457 128.958C51.6417 129.136 51.5948 129.392 51.3386 129.541L51.0839 129.689C50.8393 129.81 50.5628 129.85 50.2938 129.805L50.2651 129.8C50.2017 129.79 50.1394 129.774 50.0788 129.753L49.3561 129.486C49.3411 129.481 49.3257 129.478 49.3102 129.476C49.2815 129.471 49.2526 129.468 49.2235 129.467C49.1787 129.465 49.1337 129.469 49.09 129.479L48.5041 129.62L48.4829 129.627C48.4093 129.641 48.3432 129.681 48.2961 129.74L48.1144 130.225C48.0749 130.312 48.0091 130.384 47.9263 130.431C47.8601 130.472 47.7891 130.505 47.7149 130.529C47.5897 130.57 47.4589 130.591 47.3272 130.591H46.9673C46.8735 130.59 46.7801 130.579 46.6889 130.557C46.631 130.544 46.5741 130.527 46.5187 130.505C46.4757 130.488 46.434 130.468 46.3939 130.445C46.299 130.398 46.2224 130.32 46.176 130.225L45.9858 129.74C45.9657 129.708 45.9373 129.683 45.9038 129.666C45.874 129.648 45.8419 129.635 45.8083 129.627L45.5123 129.556L45.2163 129.486C45.1923 129.479 45.1677 129.474 45.1428 129.472C45.1156 129.469 45.0882 129.468 45.0608 129.468C45.0352 129.468 45.0095 129.47 44.984 129.473C44.9643 129.475 44.9448 129.479 44.926 129.486L44.2047 129.752C44.1412 129.774 44.0756 129.791 44.009 129.801L43.9792 129.806C43.9112 129.816 43.8427 129.82 43.7741 129.82L43.7425 129.819C43.6717 129.818 43.6011 129.811 43.5313 129.799L43.5213 129.797C43.4084 129.779 43.2994 129.742 43.1989 129.688L42.944 129.541C42.6861 129.392 42.6363 129.136 42.8304 128.958L43.2877 128.54C43.3005 128.525 43.3098 128.508 43.3149 128.489C43.3199 128.47 43.3206 128.45 43.3168 128.431L43.3151 128.418C43.3122 128.406 43.3068 128.395 43.2991 128.386L43.2989 128.385L43.2972 128.383L43.0505 128.047C43.0321 128.016 43.0052 127.99 42.973 127.974C42.9331 127.951 42.8896 127.934 42.8442 127.926L42.0075 127.818C41.8936 127.802 41.7831 127.768 41.6804 127.716C41.6628 127.708 41.6422 127.702 41.6258 127.692C41.5552 127.653 41.4928 127.601 41.4418 127.539C41.3995 127.489 41.3752 127.426 41.3729 127.361L41.3619 129.298C41.3724 129.37 41.4012 129.438 41.4454 129.496C41.4896 129.554 41.5479 129.6 41.6147 129.629C41.7326 129.695 41.8623 129.738 41.9965 129.755L42.7049 129.846L42.7012 131.14C42.7064 131.211 42.7306 131.281 42.7713 131.34C42.812 131.399 42.8679 131.447 42.933 131.477L43.1878 131.625C43.5017 131.777 43.863 131.8 44.1937 131.688L44.9149 131.422C45.0102 131.398 45.1099 131.398 45.2052 131.422L45.7972 131.563C45.8307 131.572 45.8629 131.585 45.8926 131.603C45.9262 131.619 45.9546 131.645 45.9747 131.676L46.1649 132.161C46.2113 132.257 46.2879 132.334 46.3828 132.382C46.5585 132.478 46.7558 132.528 46.9563 132.527H47.3161C47.468 132.542 47.6209 132.515 47.7592 132.451C47.8975 132.386 48.0162 132.287 48.1033 132.161L48.285 131.676C48.3372 131.612 48.4114 131.57 48.493 131.557L49.0789 131.415C49.1671 131.398 49.258 131.4 49.3451 131.422L50.0678 131.689C50.3982 131.801 50.7593 131.778 51.0729 131.625L51.3276 131.477C51.3916 131.447 51.4464 131.4 51.4864 131.342C51.5264 131.283 51.5503 131.215 51.5556 131.144L51.5593 129.843L52.2432 129.756C52.5983 129.709 52.8738 129.509 52.8727 129.298L52.8837 127.362C52.8837 127.388 52.8796 127.415 52.8716 127.44V127.44Z" fill="url(#paint8_linear)"/>
<path d="M42.8368 126.588C42.9113 126.576 42.9798 126.54 43.0312 126.485L43.2742 126.144C43.2942 126.119 43.3046 126.087 43.3034 126.055C43.3029 126.045 43.3011 126.034 43.2982 126.024L43.2952 126.009C43.2906 125.996 43.2831 125.984 43.2732 125.974L42.8097 125.556C42.7883 125.536 42.7689 125.515 42.752 125.491L42.7385 125.469C42.7289 125.454 42.7204 125.438 42.7133 125.421L42.7041 125.395C42.6993 125.38 42.6957 125.364 42.6934 125.348L42.6904 125.321C42.6902 125.316 42.6887 125.311 42.6888 125.306L42.6851 126.607L42.8368 126.588Z" fill="url(#paint9_linear)"/>
<path d="M106.488 118.862C106.877 119.115 107.201 119.456 107.433 119.858C107.665 120.259 107.798 120.71 107.822 121.173L107.784 134.778C107.781 135.627 107.181 135.961 106.441 135.534L57.382 107.21C56.9934 106.959 56.6698 106.62 56.4379 106.22C56.2059 105.819 56.0723 105.37 56.0479 104.908L56.0864 91.3034C56.0888 90.4536 56.6898 90.1111 57.4293 90.5381L106.488 118.862ZM62.8535 105.441C64.4952 106.389 65.8307 105.628 65.836 103.741C65.7806 102.714 65.4834 101.715 64.9684 100.824C64.4535 99.934 63.7355 99.1779 62.8729 98.6176C61.2311 97.6697 59.9031 98.4351 59.8978 100.313C59.9506 101.34 60.246 102.341 60.7597 103.232C61.2735 104.123 61.991 104.88 62.8535 105.441" fill="#9CEBFF"/>
<path d="M62.8729 98.6176C63.7355 99.1779 64.4535 99.9341 64.9685 100.824C65.4834 101.715 65.7807 102.714 65.836 103.741C65.8307 105.628 64.4952 106.389 62.8535 105.441C61.991 104.88 61.2735 104.123 60.7598 103.232C60.246 102.341 59.9506 101.34 59.8978 100.313C59.9031 98.4351 61.2311 97.6698 62.8729 98.6176Z" fill="white"/>
<path d="M109.754 116.965L60.6946 88.6404C60.5586 88.5414 60.3985 88.4805 60.2311 88.4641C60.0636 88.4477 59.8948 88.4763 59.7421 88.547L56.4767 90.4446C56.6294 90.3739 56.7982 90.3453 56.9657 90.3617C57.1331 90.3781 57.2932 90.439 57.4292 90.538L106.488 118.862C106.877 119.115 107.201 119.456 107.433 119.858C107.665 120.259 107.798 120.71 107.822 121.173L107.784 134.778C107.801 134.941 107.774 135.106 107.706 135.256C107.638 135.406 107.531 135.535 107.397 135.63L110.663 133.732C110.797 133.637 110.903 133.508 110.971 133.358C111.039 133.209 111.066 133.044 111.049 132.88L111.088 119.275C111.063 118.812 110.93 118.362 110.698 117.96C110.466 117.558 110.143 117.217 109.754 116.965V116.965Z" fill="#50E6FF"/>
<path d="M62.9275 79.3623C63.7901 79.9225 64.5081 80.6787 65.023 81.5691C65.538 82.4595 65.8352 83.459 65.8906 84.4861C65.8853 86.3726 64.5498 87.1336 62.9081 86.1858C62.0456 85.625 61.3281 84.868 60.8143 83.9767C60.3006 83.0854 60.0052 82.0851 59.9524 81.0577C59.9577 79.1797 61.2857 78.4144 62.9275 79.3623Z" fill="white"/>
<path d="M106.543 99.607C106.932 99.8596 107.255 100.201 107.487 100.602C107.719 101.004 107.853 101.455 107.877 101.918L107.838 115.522C107.836 116.372 107.235 116.706 106.496 116.279L57.4366 87.9548C57.048 87.704 56.7244 87.3645 56.4925 86.9642C56.2606 86.564 56.1269 86.1145 56.1025 85.6525L56.141 72.048C56.1434 71.1982 56.7444 70.8558 57.4838 71.2827L106.543 99.607ZM62.9081 86.1857C64.5498 87.1336 65.8853 86.3725 65.8906 84.4861C65.8352 83.459 65.538 82.4595 65.023 81.5691C64.5081 80.6786 63.7901 79.9225 62.9275 79.3622C61.2857 78.4144 59.9577 79.1797 59.9524 81.0576C60.0052 82.085 60.3006 83.0854 60.8143 83.9767C61.3281 84.868 62.0456 85.625 62.9081 86.1857" fill="#C3F1FF"/>
<path d="M109.808 97.7093L60.7492 69.385C60.6131 69.286 60.4531 69.2251 60.2856 69.2087C60.1182 69.1923 59.9494 69.2209 59.7967 69.2916L56.5313 71.1892C56.684 71.1185 56.8528 71.0899 57.0203 71.1064C57.1877 71.1228 57.3477 71.1837 57.4838 71.2827L106.543 99.607C106.932 99.8596 107.255 100.201 107.487 100.602C107.719 101.004 107.853 101.455 107.877 101.918L107.838 115.522C107.855 115.686 107.828 115.851 107.76 116.001C107.692 116.151 107.586 116.28 107.452 116.375L110.717 114.477C110.851 114.382 110.958 114.253 111.026 114.103C111.094 113.953 111.121 113.788 111.104 113.625L111.142 100.02C111.118 99.5571 110.985 99.1063 110.753 98.7047C110.521 98.303 110.197 97.9619 109.808 97.7093V97.7093Z" fill="#9CEBFF"/>
<path d="M106.597 80.3515C106.986 80.6041 107.31 80.9452 107.542 81.3468C107.774 81.7484 107.907 82.1992 107.932 82.6623L107.893 96.2669C107.891 97.1166 107.29 97.4591 106.55 97.0321L57.4912 68.7079C57.1023 68.4552 56.7787 68.1142 56.5468 67.7126C56.3149 67.3109 56.1813 66.8602 56.157 66.397L56.1956 52.7925C56.198 51.9427 56.7989 51.6003 57.5384 52.0272L106.597 80.3515ZM62.9627 66.9302C64.6044 67.8781 65.9399 67.117 65.9452 65.2306C65.8898 64.2035 65.5926 63.204 65.0776 62.3136C64.5627 61.4232 63.8446 60.667 62.982 60.1067C61.3403 59.1589 60.0122 59.9242 60.0069 61.8021C60.0598 62.8296 60.3551 63.8299 60.8689 64.7212C61.3826 65.6125 62.1001 66.3695 62.9627 66.9302" fill="white"/>
<path d="M62.9821 60.1068C63.8447 60.667 64.5627 61.4232 65.0776 62.3136C65.5926 63.2041 65.8898 64.2035 65.9452 65.2306C65.9399 67.1171 64.6044 67.8781 62.9627 66.9303C62.1002 66.3696 61.3827 65.6126 60.8689 64.7212C60.3552 63.8299 60.0598 62.8296 60.007 61.8022C60.0123 59.9242 61.3403 59.1589 62.9821 60.1068Z" fill="#9CEBFF"/>
<path d="M109.863 78.4539L60.8037 50.1297C60.6677 50.0307 60.5077 49.9698 60.3402 49.9534C60.1728 49.9369 60.004 49.9655 59.8513 50.0362L56.586 51.9338C56.7387 51.8631 56.9075 51.8345 57.075 51.851C57.2424 51.8674 57.4024 51.9283 57.5385 52.0273L106.597 80.3515C106.986 80.6042 107.31 80.9452 107.542 81.3469C107.774 81.7485 107.907 82.1993 107.932 82.6624L107.893 96.2669C107.91 96.4318 107.882 96.5982 107.814 96.749C107.745 96.8999 107.638 97.0298 107.503 97.1257L110.768 95.228C110.903 95.1322 111.011 95.0022 111.079 94.8513C111.148 94.7005 111.175 94.5342 111.158 94.3693L111.197 80.7648C111.173 80.3017 111.039 79.8509 110.807 79.4492C110.575 79.0476 110.252 78.7065 109.863 78.4539Z" fill="#E8E8E8"/>
<path opacity="0.2" d="M86.8356 142.506C86.9624 142.548 87.0727 142.629 87.1512 142.738C87.2296 142.846 87.2722 142.976 87.2729 143.11C87.2737 143.243 87.2326 143.374 87.1554 143.483C87.0782 143.592 86.9687 143.674 86.8424 143.718L85.5294 144.481C85.2065 144.643 84.8498 144.727 84.4883 144.726C84.1268 144.725 83.7707 144.639 83.4489 144.474L63.8729 133.172C63.7485 133.129 63.6405 133.049 63.5637 132.942C63.487 132.835 63.4455 132.707 63.4447 132.575C63.444 132.444 63.4841 132.315 63.5596 132.207C63.6351 132.1 63.7422 132.018 63.8661 131.974L65.1791 131.211C65.501 131.046 65.857 130.96 66.2185 130.959C66.58 130.957 66.9366 131.041 67.2596 131.204L86.8356 142.506Z" fill="#003067"/>
<path d="M82.1462 103.651C78.0119 101.264 74.2637 101.042 71.5569 102.615L68.5807 104.344C71.2875 102.771 75.0358 102.994 79.1701 105.381C87.3928 110.128 94.03 121.624 94.0032 131.073C93.9898 135.76 92.3354 139.059 89.6657 140.61L92.6417 138.881C95.3114 137.329 96.966 134.031 96.9792 129.343C97.006 119.895 90.3688 108.399 82.1462 103.651Z" fill="#E8E8E8"/>
<path d="M79.1701 105.381C87.3927 110.128 94.03 121.624 94.0031 131.073C93.9764 140.511 87.2958 144.318 79.0731 139.571C76.4475 138.001 74.1117 135.991 72.1681 133.629L65.7822 131.856C65.6676 131.823 65.5575 131.776 65.4547 131.716C65.1446 131.513 64.8776 131.251 64.669 130.944C64.4605 130.638 64.3145 130.294 64.2395 129.931C64.1858 129.689 64.1865 129.439 64.2416 129.198L65.9248 122.826C64.8528 119.966 64.2828 116.943 64.24 113.889C64.2668 104.441 70.9564 100.639 79.1701 105.381ZM84.114 123.636C84.6623 123.87 85.0773 123.571 85.0792 122.921C85.0611 122.565 84.966 122.218 84.8006 121.903C84.6352 121.588 84.4034 121.312 84.1212 121.096L83.9684 120.997L74.299 115.414L74.1462 115.337C73.5978 115.103 73.1829 115.401 73.1811 116.052C73.1992 116.407 73.2942 116.754 73.4596 117.069C73.625 117.385 73.8568 117.66 74.1391 117.877L74.2918 117.975L83.9611 123.558L84.114 123.636L84.114 123.636ZM81.1226 127.897C81.6709 128.131 82.0859 127.833 82.0877 127.183C82.0685 126.827 81.9729 126.48 81.8076 126.166C81.6423 125.851 81.4111 125.575 81.1297 125.357L80.9769 125.259L74.2821 121.393L74.1293 121.316C73.5808 121.092 73.166 121.38 73.1641 122.031C73.1822 122.386 73.2772 122.733 73.4426 123.048C73.608 123.364 73.8399 123.639 74.1221 123.856L74.2748 123.954L80.9697 127.82L81.1226 127.897" fill="url(#paint10_linear)"/>
<path d="M84.114 123.636C84.6623 123.87 85.0773 123.572 85.0792 122.921C85.0611 122.566 84.966 122.218 84.8006 121.903C84.6352 121.588 84.4034 121.312 84.1212 121.096L83.9684 120.997L74.299 115.415L74.1462 115.337C73.5978 115.103 73.1829 115.401 73.1811 116.052C73.1992 116.407 73.2942 116.754 73.4596 117.07C73.625 117.385 73.8568 117.66 74.1391 117.877L74.2918 117.975L83.9612 123.558L84.114 123.636L84.114 123.636ZM81.1226 127.898C81.6709 128.131 82.0859 127.833 82.0877 127.183C82.0685 126.827 81.9729 126.481 81.8076 126.166C81.6423 125.851 81.4111 125.575 81.1297 125.357L80.9769 125.259L74.2821 121.393L74.1293 121.316C73.5808 121.092 73.166 121.38 73.1641 122.031C73.1822 122.386 73.2772 122.733 73.4426 123.048C73.608 123.364 73.8399 123.639 74.1221 123.856L74.2748 123.954L80.9697 127.82L81.1226 127.898" fill="#0078D4"/>
<path opacity="0.1" d="M95.191 69.9827C95.3137 70.0236 95.4205 70.1019 95.4964 70.2066C95.5723 70.3113 95.6135 70.4371 95.6143 70.5665C95.615 70.6958 95.5752 70.8221 95.5005 70.9276C95.4258 71.0332 95.3198 71.1127 95.1976 71.155L93.9734 71.8664C93.6598 72.0254 93.3131 72.1083 92.9615 72.1083C92.6099 72.1083 92.2632 72.0254 91.9496 71.8664L72.4828 60.6272C72.3606 60.5858 72.2544 60.5073 72.1789 60.4026C72.1035 60.298 72.0625 60.1724 72.0618 60.0434C72.0611 59.9145 72.1006 59.7884 72.1749 59.683C72.2491 59.5775 72.3544 59.4978 72.4761 59.455L73.7004 58.7435C74.0137 58.5836 74.3605 58.5002 74.7122 58.5002C75.064 58.5002 75.4108 58.5836 75.7241 58.7435L95.191 69.9827Z" fill="#003067"/>
<path d="M71.7942 31.7377L70.8856 32.2657C71.2835 32.0809 71.7236 32.0058 72.1603 32.0482C72.597 32.0906 73.0144 32.2489 73.3694 32.5068L78.9499 35.7287L79.8585 35.2007L74.278 31.9787C73.923 31.7209 73.5056 31.5626 73.0689 31.5202C72.6322 31.4778 72.1921 31.5529 71.7942 31.7377V31.7377Z" fill="#E8E8E8"/>
<path d="M89.5843 63.6238L90.4929 63.0958C91.064 62.7544 91.5348 62.2679 91.8572 61.6858L90.9486 62.2138C90.6261 62.7959 90.1555 63.2823 89.5843 63.6238V63.6238Z" fill="#E8E8E8"/>
<path d="M98.4342 52.1967C98.3041 51.0722 97.9118 49.9939 97.2889 49.0487C97.53 48.4711 97.6496 47.8501 97.6403 47.2243C97.5519 45.56 97.0714 43.9401 96.2381 42.4967C95.4048 41.0534 94.2422 39.8274 92.8451 38.9186C92.0429 38.3924 91.0747 38.1809 90.1262 38.3246L89.2175 38.8526C90.1661 38.7088 91.1343 38.9204 91.9365 39.4466C93.3336 40.3554 94.4962 41.5814 95.3295 43.0248C96.1628 44.4682 96.6433 46.088 96.7318 47.7523C96.741 48.3781 96.6214 48.9991 96.3803 49.5767V49.5767C97.0031 50.5219 97.3954 51.6002 97.5256 52.7247L97.5376 52.8831L97.5177 59.8866C97.5742 60.5011 97.4644 61.1194 97.1999 61.6769C96.9353 62.2343 96.5258 62.7104 96.0141 63.0553L96.9228 62.5273C97.4344 62.1824 97.8439 61.7063 98.1085 61.1489C98.373 60.5914 98.4827 59.9731 98.4263 59.3586L98.4462 52.3551L98.4342 52.1967Z" fill="#E8E8E8"/>
<path d="M85.4632 32.7668C84.8905 32.3506 84.2169 32.0949 83.5123 32.0263C82.8076 31.9577 82.0973 32.0786 81.4551 32.3765L80.5465 32.9045C81.1888 32.6066 81.899 32.4857 82.6037 32.5543C83.3084 32.6229 83.982 32.8786 84.5547 33.2948C86.6397 34.6283 88.2667 36.5677 89.2175 38.8526L90.1262 38.3246C89.1753 36.0396 87.5482 34.1003 85.4632 32.7668V32.7668Z" fill="#E8E8E8"/>
<path d="M81.639 42.44L81.635 43.906L79.083 42.432L79.063 49.772L77.783 49.033L77.804 41.693L75.252 40.22L75.256 38.754L81.639 42.44Z" fill="white"/>
<path d="M88.5149 46.7883C88.79 46.9606 89.0164 47.2006 89.1725 47.4853C89.3414 47.7617 89.4356 48.0773 89.446 48.4011L89.4203 57.4759C89.4198 57.6704 89.4108 57.859 89.3936 58.0417C89.3852 58.5835 89.2455 59.1153 88.9864 59.5913C88.7274 60.0673 88.3568 60.4734 87.9064 60.7748C87.3215 61.0353 86.6785 61.138 86.0415 61.0727C85.4046 61.0075 84.7958 60.7765 84.2758 60.4028L83.8561 60.1605C82.345 59.2168 81.099 57.9041 80.2353 56.3459C79.5282 55.1447 79.0515 53.8221 78.8297 52.4461C78.8345 52.4789 78.8393 52.5116 78.8445 52.5446L82.211 54.4882C83.4662 55.2129 84.4925 55.2324 84.4967 53.7711L84.523 44.4835L88.5149 46.7883Z" fill="#7B83EB"/>
<path d="M83.6679 42.1446C83.6917 42.2615 83.7039 42.3804 83.7042 42.4997L83.7029 42.9376L83.6999 44.0082L83.6742 53.0641C83.6722 53.7924 83.1561 54.0865 82.5223 53.7206L78.7486 51.5418L73.3244 48.4101C72.9909 48.1933 72.7134 47.9007 72.5145 47.5562C72.3156 47.2117 72.201 46.8251 72.1799 46.4279L72.2099 35.8635C72.212 35.1352 72.7281 34.8411 73.3618 35.207L81.6869 40.0135L82.5598 40.5174C82.8425 40.7024 83.086 40.9413 83.2761 41.2205C83.4663 41.4998 83.5994 41.8138 83.6679 42.1446V42.1446ZM81.635 43.9055L81.6392 42.4395L75.2562 38.7543L75.252 40.2203L77.8036 41.6934L77.7828 49.0327L79.0626 49.7717L79.0834 42.4324L81.635 43.9055Z" fill="#4B53BC"/>
<path d="M84.547 35.9951C85.5009 36.6152 86.2946 37.4521 86.8635 38.4375C87.4324 39.4228 87.7603 40.5287 87.8204 41.6648C87.8145 43.7456 86.3364 44.5878 84.5256 43.5424C84.2327 43.3713 83.9571 43.1721 83.7028 42.9476C83.9429 43.1516 84.1987 43.3362 84.468 43.4997C84.3908 43.1718 84.2517 42.8617 84.0584 42.5859C83.9456 42.4243 83.8146 42.2762 83.6679 42.1447C83.5994 41.8138 83.4662 41.4998 83.2761 41.2205C83.0859 40.9413 82.8424 40.7024 82.5597 40.5175L81.6868 40.0135C81.4115 39.3327 81.2641 38.607 81.2522 37.8727C81.2582 35.7872 82.7321 34.9472 84.547 35.9951Z" fill="#7B83EB"/>
<path d="M91.9289 42.147C92.644 42.6113 93.2391 43.2384 93.6654 43.9768C94.0918 44.7153 94.3373 45.5442 94.3819 46.3957C94.3774 47.961 93.275 48.5939 91.9129 47.8075C91.1972 47.3426 90.6018 46.7147 90.1754 45.9754C89.749 45.2361 89.5038 44.4063 89.4599 43.554C89.4642 41.9934 90.5667 41.3605 91.9289 42.147Z" fill="#5059C9"/>
<path d="M97.5256 52.7248C97.3955 51.6003 97.0032 50.5221 96.3803 49.5768C96.6214 48.9992 96.741 48.3782 96.7318 47.7524C96.6433 46.0881 96.1629 44.4682 95.3296 43.0249C94.4962 41.5815 93.3336 40.3555 91.9365 39.4467C91.1343 38.9205 90.1661 38.709 89.2175 38.8527C88.2667 36.5678 86.6396 34.6284 84.5547 33.295C81.6862 31.6389 79.3047 32.7411 78.9499 35.7288L73.3694 32.5069C71.4434 31.3949 69.8703 32.2914 69.864 34.5092L69.8341 45.0736C69.8982 46.283 70.247 47.4602 70.8522 48.5092C71.4574 49.5583 72.3018 50.4495 73.3167 51.1104L76.8395 53.1443C77.2317 54.5964 77.8126 55.9907 78.5673 57.2918C79.8299 59.5637 81.6466 61.4794 83.8484 62.8608L84.2682 63.1031C86.2642 64.2555 88.1433 64.4452 89.5595 63.6381C90.1419 63.2966 90.6217 62.8046 90.9486 62.2139C91.1173 62.3255 91.2901 62.43 91.4589 62.5274C94.7924 64.452 97.5081 63.2679 97.5177 59.8868L97.5375 52.8832L97.5256 52.7248ZM91.9289 42.147C92.644 42.6113 93.2391 43.2384 93.6654 43.9769C94.0918 44.7153 94.3373 45.5442 94.3819 46.3957C94.3774 47.961 93.2751 48.5939 91.9129 47.8075C91.1972 47.3426 90.6018 46.7147 90.1754 45.9754C89.749 45.2361 89.5038 44.4063 89.4599 43.554C89.4643 41.9934 90.5667 41.3605 91.929 42.147H91.9289ZM95.172 58.5324C95.1666 60.4287 93.5078 61.0104 91.4666 59.8319C90.6756 59.3618 89.9739 58.7558 89.3936 58.0417C89.3852 58.5836 89.2455 59.1153 88.9865 59.5914C88.7275 60.0674 88.3569 60.4735 87.9065 60.7749C87.3216 61.0353 86.6786 61.138 86.0416 61.0728C85.4046 61.0075 84.7959 60.7765 84.2759 60.4029L83.8562 60.1605C82.345 59.2169 81.099 57.9041 80.2353 56.3459C79.5283 55.1448 79.0516 53.8222 78.8297 52.4461C78.7848 52.1466 78.7577 51.8446 78.7484 51.5418L73.3243 48.4102C72.9908 48.1934 72.7133 47.9008 72.5144 47.5563C72.3156 47.2118 72.2009 46.8252 72.1799 46.4279L72.2098 35.8636C72.2119 35.1353 72.728 34.8412 73.3618 35.2071L81.6869 40.0136C81.4115 39.3328 81.2642 38.607 81.2522 37.8727C81.2582 35.7873 82.7321 34.9473 84.547 35.9951C85.5009 36.6153 86.2947 37.4522 86.8636 38.4375C87.4324 39.4228 87.7603 40.5287 87.8204 41.6649C87.8145 43.7456 86.3364 44.5879 84.5256 43.5425C84.2327 43.3714 83.9572 43.1721 83.7029 42.9476L83.6999 44.0083L84.523 44.4835L88.5149 46.7883L94.0872 50.0102C94.119 50.0251 94.1509 50.0418 94.1826 50.0602C94.441 50.2194 94.6599 50.435 94.8231 50.6909C95.0225 50.9868 95.1487 51.326 95.1913 51.6803L95.1719 58.5325" fill="white"/>
<path d="M84.523 44.4835L84.4967 53.7711C84.4925 55.2324 83.4662 55.2129 82.211 54.4882L78.8446 52.5446C78.8393 52.5116 78.8346 52.4789 78.8297 52.4461C78.7853 52.1465 78.7583 51.8446 78.7486 51.5419L82.5223 53.7206C83.1561 54.0865 83.6722 53.7924 83.6742 53.0642L83.6999 44.0083L84.523 44.4835Z" fill="#3D4175"/>
<path d="M83.6679 42.1447C83.8146 42.2762 83.9456 42.4243 84.0584 42.5859C84.2518 42.8617 84.3908 43.1718 84.4681 43.4997C84.1964 43.3361 83.9403 43.1479 83.7029 42.9377L83.7042 42.4997C83.7039 42.3805 83.6917 42.2615 83.6679 42.1447V42.1447Z" fill="#3D4175"/>
<path d="M94.1826 50.0602C94.441 50.2194 94.6599 50.435 94.8231 50.6909C95.0225 50.9868 95.1487 51.3259 95.1913 51.6803L95.1719 58.5325C95.1665 60.4288 93.5078 61.0105 91.4665 59.832C90.6756 59.3619 89.9738 58.7558 89.3936 58.0418C89.4108 57.8593 89.4197 57.6707 89.4203 57.4759L89.4461 48.4011C89.4356 48.0773 89.3414 47.7618 89.1725 47.4853C89.0164 47.2007 88.79 46.9607 88.5149 46.7883L94.0872 50.0102C94.119 50.0251 94.1508 50.0418 94.1826 50.0602Z" fill="#5059C9"/>
</g>
<defs>
<linearGradient id="paint0_linear" x1="79.6785" y1="8.27844" x2="79.6785" y2="179.694" gradientUnits="userSpaceOnUse">
<stop stop-color="#00ABDE"/>
<stop offset="1" stop-color="#007ED8"/>
</linearGradient>
<linearGradient id="paint1_linear" x1="40.8708" y1="117.145" x2="40.8708" y2="113.109" gradientUnits="userSpaceOnUse">
<stop stop-color="#F0F0F0" stop-opacity="0"/>
<stop offset="1" stop-color="#F0F0F0" stop-opacity="0.5"/>
</linearGradient>
<linearGradient id="paint2_linear" x1="40.8742" y1="119.895" x2="40.8742" y2="109.586" gradientUnits="userSpaceOnUse">
<stop stop-color="white"/>
<stop offset="0.56" stop-color="#FBFBFB"/>
<stop offset="1" stop-color="#F2F2F2"/>
</linearGradient>
<linearGradient id="paint3_linear" x1="94.5614" y1="348.455" x2="94.5614" y2="352.956" gradientUnits="userSpaceOnUse">
<stop stop-color="#F0F0F0" stop-opacity="0"/>
<stop offset="1" stop-color="#F0F0F0" stop-opacity="0.5"/>
</linearGradient>
<linearGradient id="paint4_linear" x1="40.9413" y1="123.583" x2="40.9274" y2="115.795" gradientUnits="userSpaceOnUse">
<stop stop-color="white" stop-opacity="0.5"/>
<stop offset="1" stop-color="#FCFCFC" stop-opacity="0"/>
</linearGradient>
<linearGradient id="paint5_linear" x1="68.1744" y1="349.832" x2="68.1744" y2="354.387" gradientUnits="userSpaceOnUse">
<stop stop-color="#F0F0F0" stop-opacity="0"/>
<stop offset="1" stop-color="#F0F0F0" stop-opacity="0.5"/>
</linearGradient>
<linearGradient id="paint6_linear" x1="40.8742" y1="119.895" x2="40.8742" y2="109.586" gradientUnits="userSpaceOnUse">
<stop stop-color="white"/>
<stop offset="0.56" stop-color="#FBFBFB"/>
<stop offset="1" stop-color="#F2F2F2"/>
</linearGradient>
<linearGradient id="paint7_linear" x1="82.0461" y1="287.339" x2="82.0461" y2="289.01" gradientUnits="userSpaceOnUse">
<stop stop-color="#F0F0F0" stop-opacity="0"/>
<stop offset="1" stop-color="#F0F0F0" stop-opacity="0.5"/>
</linearGradient>
<linearGradient id="paint8_linear" x1="47.1687" y1="132.599" x2="47.1603" y2="127.852" gradientUnits="userSpaceOnUse">
<stop stop-color="white" stop-opacity="0.5"/>
<stop offset="1" stop-color="#FCFCFC" stop-opacity="0"/>
</linearGradient>
<linearGradient id="paint9_linear" x1="69.2745" y1="288.294" x2="69.2745" y2="289.986" gradientUnits="userSpaceOnUse">
<stop stop-color="#F0F0F0" stop-opacity="0"/>
<stop offset="1" stop-color="#F0F0F0" stop-opacity="0.5"/>
</linearGradient>
<linearGradient id="paint10_linear" x1="79.1017" y1="140.24" x2="79.1017" y2="104.174" gradientUnits="userSpaceOnUse">
<stop stop-color="#F2F2F2"/>
<stop offset="0.44" stop-color="#FBFBFB"/>
<stop offset="1" stop-color="white"/>
</linearGradient>
<clipPath id="clip0">
<rect width="159.356" height="188" fill="white"/>
</clipPath>
</defs>
</svg>
