<svg width="160" height="188" viewBox="0 0 160 188" fill="none" xmlns="http://www.w3.org/2000/svg">
<g clip-path="url(#clip0)">
<path d="M79.6779 188C82.7592 187.994 85.7796 187.141 88.4083 185.534L150.384 147.874C153.165 146.11 155.449 143.665 157.019 140.771C158.589 137.876 159.394 134.628 159.356 131.336V56.6207C159.392 53.3283 158.587 50.0812 157.017 47.1871C155.447 44.2929 153.163 41.8476 150.384 40.0829L88.4083 2.4228C85.7749 0.837605 82.7592 0 79.6855 0C76.6118 0 73.5961 0.837605 70.9627 2.4228L8.9876 40.098C6.2045 41.8604 3.91796 44.3048 2.34499 47.1991C0.772021 50.0935 -0.0351786 53.3418 4.1431e-06 56.6358V131.336C-0.0185283 134.119 0.556189 136.874 1.68588 139.418C2.81557 141.962 4.4743 144.236 6.5516 146.089V146.115L70.9627 185.549C73.5884 187.149 76.6032 187.996 79.6779 188V188ZM80.3257 6.95218C82.2776 6.95218 84.7548 8.1651 86.4646 9.20912L147.222 46.4034C150.974 48.6881 153.09 55.2842 153.09 60.0352L152.458 131.336C152.458 136.087 149.259 140.355 145.506 142.64L85.1104 179.021C81.6758 181.109 78.8854 181.109 75.4507 179.021L14.2427 142.549C10.4903 140.265 7.47191 136.072 7.47191 131.336V57.688C7.50442 55.3228 8.11341 53.0013 9.24608 50.9247C10.3787 48.8482 12.0009 47.0792 13.9718 45.7714L74.548 9.20912C76.2577 8.1651 78.3739 6.95218 80.3257 6.95218Z" fill="#F2F1F0"/>
<path fill-rule="evenodd" clip-rule="evenodd" d="M87.5765 10.5328C85.2056 9.05928 82.4698 8.27838 79.6783 8.27838C76.8868 8.27838 74.151 9.05928 71.7801 10.5328L15.6454 44.8642C13.1194 46.4759 11.047 48.7062 9.62503 51.3437C8.20303 53.9812 7.47854 56.9382 7.52029 59.9343V128.038C7.48037 131.033 8.20565 133.99 9.62748 136.627C11.0493 139.264 13.1206 141.495 15.6454 143.108L71.7801 177.439C74.1508 178.912 76.8867 179.694 79.6783 179.694C82.4699 179.694 85.2057 178.912 87.5765 177.439L143.711 143.108C146.236 141.495 148.307 139.264 149.729 136.627C151.151 133.99 151.877 131.033 151.837 128.038V59.9343C151.875 56.9388 151.149 53.983 149.727 51.3461C148.305 48.7092 146.234 46.4784 143.711 44.8642L87.5765 10.5328Z" fill="url(#paint0_linear)"/>
<path fill-rule="evenodd" clip-rule="evenodd" d="M79.6783 9.75432C81.3615 9.75432 83.2442 10.62 85.311 11.8781L143.777 47.4205C145.668 48.6339 147.218 50.3108 148.278 52.2919C149.339 54.2729 149.875 56.4922 149.837 58.739V129.218C149.875 131.464 149.339 133.684 148.278 135.664C147.218 137.645 145.668 139.322 143.777 140.536L85.312 176.078L85.311 176.079C83.6408 177.218 81.6958 177.889 79.6783 178.022C77.6609 177.889 75.7158 177.218 74.0456 176.079L74.0446 176.078L15.5823 140.538L15.5801 140.537C13.7918 139.573 12.2668 138.186 11.1383 136.497C10.1614 134.894 9.52031 132.679 9.52031 129.218V58.739C9.48157 56.4923 10.018 54.273 11.0785 52.292C12.139 50.311 13.6885 48.6341 15.5797 47.4206L74.0365 11.8835L74.0406 11.8811C76.1244 10.6281 77.9846 9.75432 79.6783 9.75432ZM87.3908 8.46132L145.855 44.0026C148.333 45.5727 150.368 47.7514 151.765 50.3311C153.162 52.9109 153.876 55.8055 153.837 58.7391V129.218C153.876 132.151 153.162 135.046 151.765 137.626C150.368 140.205 148.333 142.384 145.855 143.955L87.3898 179.496C85.0956 181.021 82.4302 181.894 79.6783 182.022C76.9264 181.894 74.261 181.021 71.9667 179.496H71.9658L13.502 143.954L13.4995 143.953C11.1642 142.66 9.18097 140.814 7.72281 138.579C6.12823 135.725 5.36521 132.482 5.52031 129.218V58.739C5.48125 55.8054 6.19436 52.9107 7.59165 50.331C8.98894 47.7512 11.0238 45.5724 13.5022 44.0024L71.9667 8.46067L71.9749 8.45579C74.0655 7.19838 76.7734 5.75433 79.6783 5.75433C82.5645 5.75433 85.2816 7.17741 87.3908 8.46127V8.46132Z" fill="#0078D4"/>
<path opacity="0.2" d="M139.61 132.026L80.06 166.633L20.121 132.027L79.671 97.42L139.61 132.026Z" fill="#003067"/>
<path d="M140.601 120.649L79.878 155.937L18.767 120.654L79.489 85.366L140.601 120.649Z" fill="#1B93EB"/>
<path d="M140.601 120.649L140.589 124.755L79.867 160.043L79.878 155.937L140.601 120.649Z" fill="#1F56A3"/>
<path d="M79.878 155.937L79.867 160.043L18.755 124.76L18.767 120.654L79.878 155.937Z" fill="#0078D4"/>
<g opacity="0.2">
<path opacity="0.2" d="M117.578 121.253C117.781 121.321 117.958 121.452 118.083 121.626C118.209 121.799 118.277 122.008 118.278 122.222C118.279 122.437 118.214 122.646 118.09 122.821C117.967 122.996 117.792 123.128 117.589 123.199L116.333 123.929C115.812 124.193 115.237 124.33 114.653 124.33C114.069 124.33 113.494 124.193 112.973 123.929L74.5503 101.746C74.3469 101.677 74.1699 101.547 74.0439 101.374C73.9178 101.2 73.8491 100.991 73.8472 100.777C73.8453 100.562 73.9103 100.353 74.0332 100.177C74.1561 100.001 74.3308 99.8676 74.5329 99.7957L75.7889 99.0658C76.3106 98.8011 76.8875 98.6634 77.4726 98.664C78.0577 98.6646 78.6343 98.8036 79.1554 99.0695L117.578 121.253Z" fill="#003067"/>
</g>
<path d="M72.0563 42.8208L70.2897 43.8474C71.5257 43.1291 73.2357 43.2287 75.119 44.3161L85.9698 50.5807L87.7364 49.5541L76.8858 43.2895C75.0023 42.2021 73.2923 42.1025 72.0563 42.8208Z" fill="#E8E8E8"/>
<path d="M106.647 104.82L108.414 103.793C109.524 103.129 110.44 102.183 111.067 101.051L109.3 102.078C108.673 103.21 107.758 104.156 106.647 104.82V104.82Z" fill="#E8E8E8"/>
<path d="M123.855 82.6008C123.602 80.4144 122.839 78.3178 121.628 76.4799C122.096 75.3569 122.329 74.1494 122.311 72.9326C122.328 67.002 118.148 59.763 112.987 56.7832C111.428 55.76 109.545 55.3487 107.701 55.6282L105.934 56.6548C107.778 56.3753 109.661 56.7866 111.221 57.8098C116.382 60.7897 120.561 68.0286 120.545 73.9593C120.563 75.1761 120.33 76.3836 119.861 77.5066V77.5067C121.072 79.3446 121.835 81.4411 122.088 83.6276L122.111 83.9355L122.073 97.5531C122.064 100.551 120.961 102.661 119.149 103.714L120.916 102.687C122.728 101.634 123.831 99.5247 123.839 96.5264L123.878 82.9089L123.855 82.6008Z" fill="#E8E8E8"/>
<path d="M98.6341 44.8217C95.5933 43.0659 92.8336 42.9047 90.8407 44.0628L89.0742 45.0894C91.0669 43.9314 93.8265 44.0926 96.8677 45.8484C100.644 48.029 103.967 52.1576 105.934 56.6548L107.701 55.6281C105.734 51.131 102.411 47.0023 98.6341 44.8217Z" fill="#E8E8E8"/>
<path d="M91.199 63.629L91.191 66.48L86.229 63.615L86.189 77.886L83.7 76.449L83.741 62.179L78.78 59.314L78.788 56.464L91.199 63.629Z" fill="white"/>
<path d="M104.568 72.0847C105.103 72.4199 105.543 72.8865 105.846 73.44C106.175 73.9775 106.358 74.5911 106.378 75.2206L106.328 92.8655C106.327 93.2439 106.31 93.6106 106.276 93.9657C106.042 96.4556 105.022 98.3388 103.385 99.28C101.506 100.341 98.9662 100.081 96.3255 98.5567L95.5093 98.0855C92.5712 96.2506 90.1484 93.6982 88.4691 90.6685C87.0943 88.3329 86.1674 85.7614 85.736 83.0858C85.7455 83.1496 85.7547 83.2133 85.7649 83.2773L92.3105 87.0565C94.7511 88.4655 96.7467 88.5033 96.7548 85.6621L96.806 67.6035L104.568 72.0847Z" fill="#7B83EB"/>
<path d="M95.1434 63.0558C95.1896 63.283 95.2132 63.5143 95.2138 63.7462L95.2114 64.5977L95.2055 66.6794L95.1556 84.2875C95.1516 85.7035 94.1481 86.2753 92.9158 85.5639L85.5782 81.3275L75.0315 75.2384C74.383 74.8168 73.8434 74.2478 73.4567 73.578C73.07 72.9082 72.8471 72.1564 72.8062 71.3841L72.8644 50.8428C72.8684 49.4268 73.872 48.855 75.1042 49.5664L91.2914 58.9121L92.9886 59.8919C93.5384 60.2515 94.0117 60.716 94.3815 61.259C94.7513 61.8019 95.0102 62.4125 95.1434 63.0558V63.0558ZM91.1906 66.4796L91.1987 63.6292L78.7877 56.4637L78.7796 59.3141L83.7408 62.1785L83.7003 76.4489L86.1889 77.8856L86.2293 63.6152L91.1906 66.4796" fill="#4B53BC"/>
<path d="M96.8527 51.0987C98.7074 52.3045 100.251 53.9317 101.357 55.8476C102.463 57.7635 103.101 59.9137 103.217 62.1228C103.206 66.1686 100.332 67.8064 96.8111 65.7736C96.2416 65.4409 95.7058 65.0535 95.2113 64.617C95.678 65.0137 96.1755 65.3727 96.6991 65.6906C96.5489 65.0531 96.2786 64.45 95.9026 63.9137C95.6833 63.5995 95.4285 63.3117 95.1433 63.0558C95.0102 62.4125 94.7513 61.8019 94.3815 61.259C94.0117 60.716 93.5383 60.2514 92.9885 59.8919L91.2914 58.9121C90.756 57.5884 90.4695 56.1772 90.4464 54.7494C90.4578 50.6945 93.3238 49.0613 96.8527 51.0987Z" fill="#7B83EB"/>
<path d="M111.206 63.0602C112.596 63.9631 113.753 65.1824 114.582 66.6182C115.411 68.0541 115.889 69.6657 115.975 71.3214C115.967 74.3649 113.823 75.5956 111.175 74.0664C109.783 73.1624 108.625 71.9417 107.796 70.5042C106.967 69.0667 106.49 67.4532 106.405 65.796C106.414 62.7617 108.557 61.531 111.206 63.0602Z" fill="#5059C9"/>
<path d="M122.088 83.6276C121.835 81.4411 121.072 79.3446 119.861 77.5067C120.33 76.3837 120.562 75.1762 120.544 73.9594C120.561 68.0287 116.382 60.7897 111.221 57.8099C109.661 56.7867 107.778 56.3754 105.934 56.6549C103.967 52.1577 100.645 48.0291 96.8675 45.8485C91.2902 42.6284 86.6595 44.7716 85.9697 50.5808L75.1191 44.3162C71.3742 42.1541 68.3155 43.8971 68.3033 48.2095L68.2451 68.7508C68.3697 71.1023 69.0479 73.3912 70.2246 75.4309C71.4014 77.4707 73.0432 79.2036 75.0165 80.4887L81.8662 84.4433C82.6288 87.2667 83.7583 89.9779 85.2257 92.5075C87.6808 96.9251 91.2132 100.65 95.4943 103.336L96.3104 103.807C100.191 106.048 103.845 106.416 106.599 104.847C107.731 104.183 108.664 103.227 109.3 102.078C109.628 102.295 109.964 102.498 110.292 102.688C116.774 106.43 122.054 104.128 122.073 97.5533L122.111 83.9357L122.088 83.6276ZM111.206 63.0602C112.596 63.9631 113.753 65.1824 114.582 66.6182C115.411 68.054 115.889 69.6657 115.975 71.3214C115.967 74.3649 113.823 75.5956 111.175 74.0664C109.783 73.1624 108.625 71.9417 107.796 70.5041C106.967 69.0666 106.49 67.4532 106.405 65.7959C106.414 62.7616 108.557 61.531 111.206 63.0602V63.0602ZM117.511 94.9198C117.501 98.607 114.276 99.7381 110.307 97.4466C108.769 96.5325 107.404 95.3541 106.276 93.9657C106.042 96.4556 105.022 98.3388 103.385 99.28C101.506 100.341 98.9661 100.081 96.3254 98.5567L95.5092 98.0854C92.5711 96.2506 90.1483 93.6982 88.469 90.6684C87.0942 88.3329 86.1673 85.7613 85.7359 83.0858C85.6487 82.5032 85.596 81.9161 85.5779 81.3274L75.0314 75.2384C74.383 74.8168 73.8434 74.2479 73.4567 73.578C73.07 72.9082 72.8471 72.1564 72.8062 71.3841L72.8644 50.8428C72.8684 49.4268 73.8719 48.855 75.1042 49.5664L91.2914 58.9121C90.756 57.5884 90.4695 56.1772 90.4464 54.7494C90.4579 50.6945 93.3239 49.0613 96.8527 51.0987C98.7074 52.3045 100.251 53.9317 101.357 55.8476C102.463 57.7635 103.101 59.9137 103.217 62.1228C103.206 66.1686 100.332 67.8063 96.8111 65.7736C96.2416 65.4409 95.7058 65.0535 95.2113 64.617L95.2055 66.6794L96.8059 67.6034L104.568 72.0847L115.402 78.3493C115.464 78.3784 115.526 78.4107 115.588 78.4464C116.09 78.756 116.516 79.1752 116.833 79.6728C117.221 80.2482 117.466 80.9076 117.549 81.5966L117.511 94.9199" fill="white"/>
<path d="M96.8059 67.6034L96.7547 85.662C96.7467 88.5032 94.7511 88.4655 92.3105 87.0564L85.7649 83.2773C85.7546 83.2132 85.7454 83.1495 85.7359 83.0857C85.6497 82.5032 85.597 81.9161 85.5782 81.3275L92.9158 85.5639C94.1481 86.2754 95.1516 85.7035 95.1556 84.2875L95.2055 66.6794L96.8059 67.6034Z" fill="#3D4175"/>
<path d="M95.1434 63.0558C95.4286 63.3117 95.6833 63.5996 95.9027 63.9137C96.2786 64.4501 96.5489 65.0531 96.6992 65.6906C96.171 65.3724 95.673 65.0066 95.2114 64.5977L95.2138 63.7463C95.2132 63.5144 95.1896 63.2831 95.1434 63.0558V63.0558Z" fill="#3D4175"/>
<path d="M115.588 78.4464C116.09 78.756 116.516 79.1752 116.833 79.6728C117.221 80.2482 117.466 80.9076 117.549 81.5965L117.512 94.9199C117.501 98.607 114.276 99.7381 110.307 97.4466C108.769 96.5325 107.405 95.3541 106.276 93.9657C106.31 93.611 106.327 93.2443 106.328 92.8655L106.378 75.2206C106.358 74.5911 106.175 73.9775 105.846 73.44C105.543 72.8865 105.103 72.4199 104.568 72.0847L115.402 78.3493C115.464 78.3783 115.526 78.4107 115.588 78.4464Z" fill="#5059C9"/>
<path opacity="0.2" d="M75.6358 132.565C76.2165 133.092 76.0775 133.849 75.3187 134.29L74.5643 134.729C73.6353 135.181 72.5658 135.249 71.5871 134.918L69.4463 134.127C69.1883 134.062 68.9191 134.055 68.6581 134.106L66.9227 134.526C66.6808 134.564 66.4612 134.689 66.3067 134.879L65.7684 136.316C65.5104 136.687 65.1586 136.983 64.749 137.173C64.3394 137.364 63.8865 137.442 63.4367 137.401H62.3708C61.7771 137.403 61.1925 137.255 60.6721 136.969C60.3911 136.828 60.1644 136.599 60.0269 136.316L59.4635 134.879C59.4039 134.786 59.3198 134.71 59.2205 134.661C59.1322 134.609 59.037 134.57 58.9377 134.545L57.1842 134.127C56.9019 134.057 56.6066 134.057 56.3243 134.127L54.1881 134.916C53.2086 135.246 52.1385 135.178 51.2087 134.726L50.4539 134.29C49.6901 133.849 49.5425 133.092 50.1173 132.565L51.4718 131.325C51.5265 131.263 51.5594 131.185 51.5654 131.103C51.5714 131.02 51.5502 130.938 51.505 130.869L50.7693 129.865C50.7147 129.773 50.6351 129.698 50.5398 129.649C50.4216 129.581 50.2926 129.532 50.1583 129.507L47.6799 129.188C47.2824 129.138 46.8983 129.011 46.5491 128.815C46.3512 128.729 46.1786 128.593 46.0475 128.421C45.9165 128.25 45.8313 128.047 45.8001 127.834L45.7967 127.216C45.7932 126.594 46.6094 126 47.6611 125.862L50.1359 125.543C50.3566 125.509 50.5595 125.403 50.712 125.239L51.4318 124.228C51.4892 124.156 51.5203 124.067 51.5198 123.976C51.5193 123.884 51.4872 123.795 51.4289 123.724L50.056 122.487C49.4753 121.961 49.6143 121.203 50.3732 120.762L51.1276 120.324C52.0565 119.872 53.1261 119.804 54.1048 120.134L56.2455 120.925C56.5035 120.991 56.7727 120.998 57.0338 120.946L58.7691 120.526C59.0111 120.489 59.2307 120.363 59.3852 120.173L59.9235 118.736C60.1815 118.365 60.5332 118.069 60.9429 117.879C61.3525 117.688 61.8053 117.61 62.2552 117.652H63.321C63.9147 117.649 64.4992 117.798 65.0197 118.083C65.3006 118.224 65.5274 118.453 65.665 118.736L66.2239 120.171C66.2852 120.265 66.3707 120.341 66.4715 120.391C66.5603 120.445 66.6573 120.483 66.7587 120.505L68.5032 120.923C68.7866 120.995 69.0837 120.996 69.3676 120.925L71.5083 120.134C72.4868 119.806 73.555 119.875 74.4832 120.326L75.238 120.762C76.0018 121.203 76.1494 121.96 75.5747 122.487L74.2201 123.727C74.1654 123.789 74.1325 123.867 74.1265 123.95C74.1205 124.032 74.1417 124.114 74.1869 124.184L74.9225 125.188C74.9771 125.28 75.0568 125.354 75.1521 125.403C75.2686 125.471 75.3962 125.519 75.5291 125.543L78.0121 125.865C78.4097 125.914 78.7939 126.041 79.143 126.237C79.3407 126.324 79.5134 126.459 79.6451 126.63C79.7767 126.801 79.8631 127.003 79.8962 127.216L79.8952 127.836C79.8987 128.459 79.0825 129.053 78.0308 129.19L75.5515 129.507C75.3325 129.543 75.1316 129.651 74.9799 129.813L74.2601 130.825C74.2022 130.896 74.1712 130.985 74.1725 131.076C74.1738 131.168 74.2074 131.256 74.2674 131.325L75.6358 132.565ZM59.0895 129.709C60.2574 130.302 61.5487 130.611 62.8585 130.611C64.1683 130.61 65.4594 130.3 66.6269 129.707C68.6937 128.505 68.6871 126.547 66.6023 125.343C65.4353 124.75 64.1448 124.441 62.8359 124.441C61.5269 124.441 60.2365 124.75 59.0695 125.343C56.9982 126.547 57.0047 128.505 59.0895 129.709" fill="#003067"/>
<path d="M57.509 118.768L57.521 114.554C57.5641 114.088 57.7302 113.642 58.0022 113.26C58.2743 112.879 58.6425 112.577 59.0695 112.384C60.2365 111.791 61.5269 111.482 62.8359 111.482C64.1448 111.482 65.4353 111.791 66.6023 112.384C67.0359 112.577 67.41 112.883 67.6859 113.269C67.9618 113.655 68.1294 114.108 68.1715 114.581L68.1596 118.768L57.509 118.768Z" fill="url(#paint1_linear)"/>
<path d="M75.6358 119.606C76.2165 120.133 76.0775 120.89 75.3187 121.331L74.5643 121.77C73.6353 122.222 72.5658 122.29 71.5871 121.959L69.4463 121.168C69.1883 121.103 68.9191 121.096 68.6581 121.147L66.9227 121.567C66.6807 121.605 66.4612 121.73 66.3067 121.92L65.7684 123.357C65.5104 123.728 65.1586 124.024 64.749 124.214C64.3394 124.405 63.8865 124.483 63.4367 124.442H62.3708C61.7771 124.444 61.1925 124.296 60.6721 124.01C60.3911 123.869 60.1644 123.64 60.0269 123.357L59.4635 121.92C59.4039 121.827 59.3198 121.751 59.2205 121.702C59.1322 121.65 59.037 121.611 58.9377 121.586L57.1842 121.168C56.9019 121.098 56.6066 121.098 56.3243 121.168L54.1881 121.957C53.2086 122.287 52.1385 122.219 51.2087 121.767L50.4539 121.331C49.6901 120.89 49.5425 120.133 50.1173 119.606L51.4718 118.366C51.5265 118.304 51.5594 118.226 51.5654 118.144C51.5714 118.061 51.5502 117.979 51.505 117.91L50.7693 116.906C50.7147 116.814 50.6351 116.739 50.5398 116.69C50.4216 116.622 50.2926 116.573 50.1583 116.548L47.6799 116.229C47.2824 116.179 46.8983 116.052 46.5491 115.856C46.3512 115.769 46.1786 115.634 46.0475 115.462C45.9165 115.291 45.8313 115.088 45.8001 114.875L45.7967 114.257C45.7932 113.635 46.6094 113.041 47.6611 112.903L50.1359 112.584C50.3566 112.55 50.5596 112.444 50.712 112.28L51.4318 111.269C51.4892 111.197 51.5203 111.108 51.5198 111.017C51.5193 110.925 51.4872 110.836 51.4289 110.765L50.056 109.528C49.4753 109.001 49.6143 108.244 50.3732 107.803L51.1276 107.365C52.0565 106.913 53.1261 106.845 54.1048 107.175L56.2455 107.966C56.5035 108.032 56.7727 108.039 57.0338 107.987L58.7691 107.567C59.0111 107.53 59.2307 107.404 59.3852 107.214L59.9235 105.777C60.1815 105.406 60.5332 105.11 60.9429 104.92C61.3525 104.729 61.8053 104.651 62.2552 104.693H63.321C63.9147 104.69 64.4993 104.839 65.0197 105.124C65.3006 105.265 65.5274 105.494 65.665 105.777L66.2239 107.212C66.2852 107.306 66.3707 107.382 66.4715 107.432C66.5603 107.486 66.6573 107.524 66.7587 107.546L68.5032 107.964C68.7866 108.036 69.0837 108.037 69.3676 107.966L71.5083 107.175C72.4868 106.847 73.555 106.916 74.4832 107.367L75.238 107.803C76.0018 108.244 76.1494 109.001 75.5747 109.528L74.2201 110.768C74.1654 110.83 74.1325 110.908 74.1265 110.991C74.1205 111.073 74.1417 111.155 74.1869 111.225L74.9225 112.229C74.9771 112.321 75.0568 112.395 75.1521 112.444C75.2686 112.512 75.3962 112.56 75.5291 112.584L78.0121 112.906C78.4097 112.955 78.7939 113.081 79.143 113.278C79.3407 113.365 79.5134 113.5 79.6451 113.671C79.7767 113.842 79.8631 114.044 79.8962 114.257L79.8952 114.877C79.8987 115.5 79.0825 116.094 78.0308 116.231L75.5515 116.548C75.3325 116.584 75.1316 116.692 74.9799 116.854L74.2601 117.866C74.2022 117.937 74.1711 118.026 74.1725 118.117C74.1738 118.209 74.2074 118.297 74.2674 118.366L75.6358 119.606ZM59.0895 116.75C60.2574 117.343 61.5487 117.652 62.8585 117.652C64.1683 117.651 65.4594 117.341 66.6269 116.747C68.6937 115.546 68.6871 113.588 66.6023 112.384C65.4353 111.791 64.1448 111.482 62.8359 111.482C61.5269 111.482 60.2365 111.791 59.0695 112.384C56.9982 113.588 57.0047 115.546 59.0895 116.75" fill="url(#paint2_linear)"/>
<path d="M75.9119 108.914C75.9056 108.962 75.8953 109.009 75.8812 109.056C75.8734 109.081 75.8649 109.106 75.8547 109.132C75.8341 109.18 75.8097 109.228 75.7815 109.273C75.7683 109.294 75.7574 109.316 75.7423 109.337C75.6935 109.406 75.6377 109.469 75.5757 109.527L75.5747 109.528L74.2201 110.768C74.1896 110.798 74.1665 110.835 74.1528 110.876C74.1487 110.89 74.1453 110.905 74.1428 110.92C74.1346 110.949 74.1295 110.98 74.1275 111.011C74.1204 111.087 74.1416 111.163 74.1869 111.225L74.9225 112.228C74.9771 112.32 75.0568 112.395 75.1522 112.444C75.2686 112.512 75.3962 112.56 75.5291 112.584L75.9137 112.634L75.9246 108.804C75.9246 108.816 75.921 108.827 75.9205 108.839C75.9193 108.864 75.9152 108.889 75.9119 108.914Z" fill="url(#paint3_linear)"/>
<path d="M79.8592 115.108C79.7119 115.464 79.4345 115.749 79.0837 115.906C78.9462 115.977 78.8033 116.036 78.6563 116.083C78.4531 116.153 78.2436 116.202 78.0308 116.231L75.9484 116.497L75.9028 116.503L75.5515 116.548C75.3325 116.584 75.1316 116.692 74.9799 116.854L74.2601 117.866C74.2022 117.936 74.1711 118.026 74.1725 118.117C74.1738 118.209 74.2074 118.297 74.2673 118.366L75.6358 119.606C76.2165 120.133 76.0775 120.89 75.3187 121.331L74.5642 121.77C73.8397 122.128 73.0208 122.248 72.2238 122.114C72.1948 122.11 72.1675 122.104 72.1388 122.099C71.9511 122.069 71.7665 122.022 71.5871 121.959L69.4463 121.168C69.4018 121.155 69.3564 121.145 69.3104 121.139C69.2255 121.125 69.1397 121.116 69.0536 121.114C68.9208 121.106 68.7877 121.118 68.6581 121.147L66.9228 121.567C66.9013 121.572 66.8812 121.581 66.8599 121.586C66.6419 121.629 66.4461 121.747 66.3066 121.92L65.7684 123.357C65.6515 123.615 65.4565 123.828 65.2112 123.968C65.0153 124.091 64.805 124.188 64.5851 124.259C64.2143 124.38 63.8267 124.442 63.4367 124.442H62.3708C62.0929 124.44 61.8162 124.407 61.546 124.342C61.3744 124.303 61.2059 124.252 61.0419 124.188C60.9146 124.138 60.791 124.078 60.6721 124.01C60.3911 123.869 60.1644 123.64 60.0269 123.357L59.4634 121.92C59.4038 121.827 59.3198 121.751 59.2204 121.702C59.1322 121.65 59.0369 121.611 58.9376 121.586L58.061 121.377L57.1842 121.168C57.113 121.148 57.0401 121.134 56.9665 121.127C56.8859 121.119 56.8048 121.115 56.7238 121.115C56.6477 121.116 56.5717 121.121 56.4963 121.13C56.4377 121.136 56.3801 121.149 56.3243 121.168L54.188 121.957C53.9997 122.023 53.8056 122.072 53.6083 122.102C53.5783 122.107 53.5502 122.113 53.5199 122.117C53.3186 122.145 53.1156 122.159 52.9124 122.158C52.8808 122.157 52.8506 122.157 52.819 122.156C52.6092 122.152 52.4001 122.132 52.1932 122.098L52.1636 122.092C51.8293 122.038 51.5064 121.928 51.2087 121.767L50.4538 121.331C49.69 120.89 49.5425 120.133 50.1172 119.606L51.4717 118.366C51.5097 118.323 51.5373 118.271 51.5522 118.216C51.5672 118.16 51.5692 118.101 51.5581 118.045C51.556 118.032 51.556 118.019 51.5528 118.007C51.5444 117.972 51.5283 117.939 51.5056 117.911L51.505 117.91L51.5 117.903L50.7693 116.906C50.7147 116.814 50.6351 116.739 50.5397 116.691C50.4215 116.622 50.2925 116.574 50.1582 116.548L47.6797 116.229C47.3425 116.183 47.0151 116.081 46.7109 115.928C46.6588 115.903 46.5977 115.884 46.5491 115.856C46.3402 115.741 46.1552 115.587 46.0041 115.402C45.8789 115.254 45.8071 115.068 45.8001 114.875L45.7676 120.611C45.7988 120.825 45.8839 121.027 46.015 121.199C46.146 121.371 46.3186 121.506 46.5166 121.593C46.8658 121.789 47.2498 121.916 47.6473 121.966L49.7456 122.236L49.7346 126.067C49.7499 126.28 49.8216 126.485 49.9423 126.661C50.063 126.837 50.2283 126.977 50.4213 127.068L51.1761 127.504C52.1059 127.956 53.176 128.024 54.1555 127.693L56.2918 126.905C56.5741 126.834 56.8694 126.834 57.1517 126.905L58.905 127.322C59.0043 127.348 59.0996 127.387 59.1878 127.439C59.2872 127.488 59.3713 127.563 59.4309 127.657L59.9943 129.094C60.1318 129.377 60.3586 129.606 60.6396 129.747C61.1601 130.032 61.7446 130.181 62.3383 130.178H63.4042C63.8541 130.22 64.3069 130.142 64.7165 129.951C65.1261 129.761 65.4779 129.465 65.7359 129.094L66.2742 127.657C66.4287 127.467 66.6482 127.341 66.8901 127.304L68.6256 126.884C68.8866 126.832 69.1559 126.839 69.4139 126.905L71.5546 127.696C72.5333 128.026 73.6029 127.958 74.5318 127.506L75.2862 127.068C75.4757 126.978 75.6379 126.839 75.7565 126.666C75.8751 126.493 75.9459 126.291 75.9616 126.082L75.9724 122.226L77.9982 121.968C79.0499 121.83 79.8662 121.236 79.8627 120.614L79.8952 114.877C79.8953 114.956 79.8831 115.034 79.8592 115.108V115.108Z" fill="url(#paint4_linear)"/>
<path d="M50.1359 112.584C50.3566 112.551 50.5595 112.444 50.7119 112.281L51.4318 111.269C51.491 111.195 51.5217 111.102 51.5182 111.007C51.5166 110.976 51.5114 110.945 51.5027 110.915C51.5006 110.9 51.4976 110.885 51.494 110.871C51.4803 110.831 51.4581 110.795 51.4288 110.766L50.0561 109.528C49.9926 109.47 49.9353 109.406 49.8851 109.336C49.8697 109.315 49.8587 109.292 49.8451 109.271C49.8166 109.226 49.7916 109.179 49.7706 109.13C49.7597 109.104 49.7515 109.078 49.7433 109.052C49.729 109.006 49.7184 108.96 49.7116 108.913C49.7079 108.886 49.7041 108.86 49.7028 108.833C49.702 108.819 49.6978 108.804 49.6979 108.789L49.6869 112.642L50.1359 112.584Z" fill="url(#paint5_linear)"/>
<path d="M81.9304 140.094C82.2843 140.415 82.1996 140.876 81.7371 141.145L81.2773 141.412C80.7111 141.688 80.0593 141.729 79.4628 141.528L78.1581 141.045C78.0009 141.006 77.8368 141.001 77.6777 141.033L76.6201 141.289C76.4726 141.312 76.3389 141.388 76.2447 141.504L75.9166 142.38C75.7593 142.606 75.545 142.786 75.2953 142.902C75.0457 143.018 74.7697 143.066 74.4955 143.041H73.8459C73.4841 143.042 73.1278 142.952 72.8106 142.778C72.6394 142.692 72.5012 142.552 72.4174 142.38L72.074 141.504C72.0377 141.447 71.9865 141.401 71.9259 141.371C71.8721 141.339 71.8141 141.315 71.7535 141.3L70.6849 141.046C70.5128 141.003 70.3329 141.003 70.1608 141.046L68.8588 141.526C68.2619 141.727 67.6097 141.686 67.043 141.411L66.583 141.145C66.1175 140.876 66.0276 140.415 66.3779 140.094L67.2034 139.338C67.2367 139.3 67.2568 139.253 67.2605 139.202C67.2641 139.152 67.2512 139.102 67.2237 139.06L66.7753 138.448C66.742 138.392 66.6935 138.346 66.6354 138.317C66.5633 138.275 66.4847 138.245 66.4029 138.23L64.8924 138.035C64.6501 138.005 64.4161 137.928 64.2033 137.808C64.0826 137.755 63.9774 137.673 63.8976 137.568C63.8177 137.463 63.7658 137.34 63.7468 137.21L63.7447 136.834C63.7425 136.454 64.24 136.092 64.881 136.008L66.3892 135.814C66.5238 135.794 66.6474 135.728 66.7403 135.629L67.179 135.012C67.2141 134.969 67.233 134.915 67.2327 134.859C67.2324 134.803 67.2128 134.749 67.1773 134.706L66.3406 133.951C65.9867 133.63 66.0714 133.169 66.5339 132.9L66.9937 132.633C67.5598 132.357 68.2117 132.316 68.8081 132.517L70.1128 133C70.27 133.039 70.4341 133.044 70.5932 133.012L71.6508 132.756C71.7983 132.734 71.9322 132.657 72.0263 132.541L72.3544 131.665C72.5116 131.439 72.726 131.259 72.9756 131.143C73.2253 131.027 73.5013 130.979 73.7754 131.004H74.425C74.7869 131.003 75.1431 131.093 75.4603 131.268C75.6315 131.353 75.7697 131.493 75.8536 131.665L76.1942 132.54C76.2316 132.597 76.2837 132.643 76.3451 132.674C76.3992 132.707 76.4583 132.73 76.5201 132.744L77.5833 132.998C77.756 133.042 77.9371 133.043 78.1101 133L79.4148 132.517C80.0111 132.318 80.6621 132.36 81.2278 132.634L81.6878 132.9C82.1533 133.169 82.2433 133.63 81.893 133.951L81.0674 134.707C81.0341 134.745 81.014 134.793 81.0104 134.843C81.0067 134.893 81.0197 134.943 81.0472 134.985L81.4955 135.597C81.5288 135.653 81.5773 135.699 81.6355 135.728C81.7064 135.77 81.7842 135.799 81.8652 135.814L83.3784 136.01C83.6208 136.04 83.8549 136.117 84.0677 136.237C84.1882 136.29 84.2934 136.372 84.3737 136.476C84.4539 136.581 84.5065 136.704 84.5267 136.834L84.5261 137.211C84.5282 137.591 84.0308 137.953 83.3898 138.037L81.8788 138.23C81.7454 138.252 81.6229 138.317 81.5305 138.416L81.0918 139.033C81.0565 139.076 81.0376 139.13 81.0384 139.186C81.0392 139.242 81.0597 139.296 81.0962 139.338L81.9304 140.094ZM71.8461 138.353C72.5579 138.714 73.3449 138.903 74.1432 138.902C74.9414 138.902 75.7283 138.713 76.4398 138.351C77.6994 137.619 77.6954 136.426 76.4248 135.692C75.7135 135.331 74.9271 135.143 74.1293 135.143C73.3315 135.143 72.5451 135.331 71.8338 135.692C70.5715 136.426 70.5754 137.619 71.846 138.353" fill="url(#paint6_linear)"/>
<path d="M82.0986 133.577C82.0948 133.607 82.0885 133.635 82.0799 133.664C82.0751 133.679 82.07 133.695 82.0638 133.71C82.0512 133.74 82.0363 133.768 82.0191 133.796C82.0111 133.809 82.0044 133.822 81.9952 133.835C81.9655 133.877 81.9315 133.916 81.8937 133.951L81.8931 133.951L81.0675 134.707C81.0489 134.726 81.0349 134.748 81.0265 134.773C81.024 134.782 81.022 134.791 81.0205 134.8C81.0155 134.818 81.0123 134.836 81.0111 134.855C81.0068 134.901 81.0197 134.948 81.0473 134.985L81.4956 135.597C81.529 135.653 81.5775 135.699 81.6356 135.729C81.7066 135.77 81.7844 135.799 81.8654 135.814L82.0998 135.844L82.1064 133.51L82.1039 133.532C82.1031 133.547 82.1006 133.562 82.0986 133.577Z" fill="url(#paint7_linear)"/>
<path d="M84.5043 137.352C84.4146 137.569 84.2455 137.743 84.0317 137.839C83.9479 137.882 83.8608 137.918 83.7713 137.947C83.6474 137.989 83.5197 138.019 83.39 138.037L82.1209 138.199L82.0931 138.202L81.879 138.23C81.7455 138.252 81.6231 138.317 81.5306 138.416L81.092 139.033C81.0566 139.076 81.0377 139.13 81.0385 139.186C81.0393 139.242 81.0598 139.296 81.0963 139.338L81.9304 140.094C82.2843 140.415 82.1996 140.876 81.7371 141.145L81.2773 141.412C80.8357 141.63 80.3366 141.704 79.8509 141.622C79.8332 141.62 79.8165 141.616 79.7991 141.613C79.6847 141.595 79.5722 141.566 79.4628 141.528L78.1581 141.046C78.131 141.037 78.1033 141.032 78.0753 141.028C78.0235 141.019 77.9712 141.014 77.9188 141.012C77.8379 141.008 77.7568 141.015 77.6778 141.033L76.6202 141.289C76.6071 141.292 76.5948 141.297 76.5818 141.3C76.449 141.327 76.3297 141.399 76.2447 141.504L75.9166 142.38C75.8454 142.537 75.7266 142.667 75.577 142.752C75.4576 142.827 75.3295 142.886 75.1955 142.93C74.9695 143.003 74.7333 143.041 74.4956 143.041H73.8459C73.6766 143.04 73.5079 143.019 73.3433 142.98C73.2387 142.956 73.136 142.925 73.0361 142.886C72.9584 142.855 72.8831 142.819 72.8107 142.778C72.6394 142.692 72.5012 142.552 72.4174 142.38L72.074 141.504C72.0377 141.447 71.9865 141.401 71.9259 141.371C71.8721 141.339 71.8141 141.315 71.7535 141.3L71.2192 141.173L70.6849 141.046C70.6415 141.033 70.5971 141.025 70.5522 141.021C70.5031 141.015 70.4537 141.013 70.4042 141.013C70.3579 141.014 70.3116 141.017 70.2656 141.022C70.2299 141.026 70.1948 141.034 70.1608 141.046L68.8588 141.526C68.744 141.567 68.6257 141.596 68.5055 141.615C68.4872 141.618 68.4701 141.622 68.4516 141.624C68.329 141.641 68.2052 141.649 68.0814 141.649L68.0244 141.648C67.8966 141.645 67.7691 141.633 67.643 141.612L67.625 141.608C67.4212 141.576 67.2245 141.509 67.043 141.411L66.583 141.145C66.1175 140.876 66.0276 140.415 66.3779 140.094L67.2034 139.338C67.2265 139.312 67.2433 139.28 67.2524 139.246C67.2616 139.212 67.2628 139.177 67.256 139.142C67.2547 139.134 67.2547 139.126 67.2528 139.119C67.2477 139.097 67.2378 139.078 67.224 139.061L67.2236 139.06L67.2206 139.056L66.7753 138.448C66.742 138.392 66.6935 138.346 66.6354 138.317C66.5634 138.275 66.4847 138.245 66.4029 138.23L64.8924 138.035C64.6868 138.007 64.4873 137.945 64.3019 137.852C64.2701 137.836 64.2329 137.825 64.2033 137.808C64.076 137.738 63.9632 137.644 63.8711 137.531C63.7948 137.441 63.751 137.328 63.7468 137.21L63.727 140.706C63.746 140.836 63.7979 140.96 63.8778 141.064C63.9576 141.169 64.0628 141.252 64.1835 141.304C64.3963 141.424 64.6303 141.501 64.8726 141.531L66.1514 141.696L66.1447 144.031C66.1541 144.161 66.1978 144.286 66.2713 144.393C66.3449 144.5 66.4456 144.586 66.5632 144.641L67.0232 144.907C67.5899 145.182 68.2421 145.224 68.839 145.022L70.141 144.542C70.3131 144.499 70.4931 144.499 70.6651 144.542L71.7337 144.796C71.7942 144.812 71.8523 144.836 71.906 144.867C71.9666 144.897 72.0179 144.943 72.0542 145L72.3976 145.876C72.4814 146.048 72.6196 146.188 72.7909 146.274C73.1081 146.448 73.4643 146.538 73.8262 146.537H74.4758C74.7499 146.562 75.0259 146.514 75.2755 146.398C75.5252 146.282 75.7395 146.102 75.8968 145.876L76.2248 145C76.319 144.884 76.4528 144.808 76.6002 144.785L77.6579 144.529C77.817 144.498 77.9811 144.502 78.1383 144.542L79.443 145.024C80.0395 145.225 80.6914 145.184 81.2575 144.908L81.7173 144.641C81.8327 144.586 81.9316 144.502 82.0039 144.396C82.0762 144.291 82.1193 144.168 82.1289 144.04L82.1355 141.691L83.3701 141.533C84.0111 141.449 84.5086 141.087 84.5065 140.708L84.5263 137.212C84.5263 137.259 84.5189 137.307 84.5043 137.352Z" fill="url(#paint8_linear)"/>
<path d="M66.3893 135.814C66.5238 135.794 66.6474 135.728 66.7403 135.629L67.179 135.012C67.2151 134.967 67.2338 134.911 67.2317 134.853C67.2307 134.834 67.2275 134.815 67.2223 134.797C67.221 134.788 67.2192 134.779 67.2169 134.77C67.2086 134.746 67.1951 134.724 67.1773 134.706L66.3406 133.952C66.3019 133.916 66.267 133.877 66.2364 133.834C66.227 133.821 66.2203 133.808 66.212 133.795C66.1946 133.767 66.1794 133.739 66.1666 133.709C66.16 133.693 66.155 133.677 66.1499 133.661C66.1412 133.634 66.1348 133.605 66.1307 133.577C66.1284 133.56 66.1261 133.544 66.1253 133.528C66.1248 133.519 66.1223 133.51 66.1223 133.501L66.1156 135.849L66.3893 135.814Z" fill="url(#paint9_linear)"/>
<path d="M101.688 116.03C101.52 116.12 101.339 116.185 101.152 116.223C100.953 116.257 100.748 116.214 100.581 116.101C100.257 115.902 99.9918 115.62 99.8113 115.286L93.1603 104.09C92.9618 103.766 92.8528 103.396 92.8442 103.016C92.8382 102.812 92.9013 102.613 93.0232 102.449C93.1517 102.311 93.3009 102.194 93.4653 102.103L87.8537 105.283C87.6892 105.375 87.54 105.492 87.4115 105.63C87.2896 105.793 87.2266 105.993 87.2327 106.197C87.2412 106.576 87.3502 106.947 87.5487 107.271L94.0793 118.578C94.2597 118.912 94.5252 119.194 94.849 119.393C95.0164 119.506 95.221 119.549 95.4198 119.515C95.6071 119.477 95.7878 119.412 95.9561 119.322C96.0016 119.298 96.0466 119.273 96.0912 119.247L101.823 115.955C101.779 115.981 101.734 116.006 101.688 116.03Z" fill="url(#paint10_linear)"/>
<path d="M95.9471 98.0082C96.0685 98.4235 96.1349 98.8529 96.1444 99.2854C96.1571 99.6162 96.0956 99.9457 95.9644 100.25C95.8542 100.476 95.7042 100.681 95.5215 100.854C95.4212 100.95 95.3096 101.035 95.1893 101.105L88.6775 104.889C88.7978 104.819 88.9093 104.735 89.0096 104.638C89.1923 104.465 89.3424 104.26 89.4526 104.034C89.5837 103.73 89.6452 103.4 89.6326 103.07C89.6231 102.637 89.5567 102.208 89.4353 101.792C89.303 101.342 89.1164 100.909 88.8795 100.503L86.2728 95.988C86.0324 95.5733 85.7454 95.1874 85.4174 94.8378C85.1285 94.5196 84.7934 94.2467 84.4231 94.0284C84.1163 93.8381 83.7707 93.7189 83.4117 93.6798C83.1187 93.6431 82.8216 93.7017 82.5644 93.8469L89.0762 90.0627C89.3334 89.9174 89.6305 89.8588 89.9236 89.8956C90.2825 89.9347 90.6281 90.0538 90.9349 90.2441C91.3051 90.4624 91.6403 90.7353 91.9292 91.0535C92.2572 91.4031 92.5443 91.789 92.7847 92.2037L95.3914 96.7187C95.6282 97.1245 95.8148 97.5575 95.9471 98.0082V98.0082ZM110.306 122.878C110.173 122.427 109.987 121.994 109.75 121.588L107.143 117.073C106.907 116.656 106.62 116.269 106.288 115.923C105.996 115.612 105.661 115.344 105.293 115.127C105.007 114.951 104.686 114.837 104.353 114.793C104.103 114.766 103.851 114.792 103.612 114.867C103.476 114.915 103.344 114.975 103.219 115.047L96.7073 118.831C96.8324 118.759 96.9639 118.699 97.1002 118.652C97.3394 118.576 97.5916 118.551 97.841 118.577C98.1744 118.622 98.4948 118.736 98.7815 118.912C99.1494 119.128 99.4843 119.396 99.7759 119.708C100.108 120.054 100.395 120.44 100.631 120.858L103.238 125.373C103.475 125.778 103.661 126.211 103.794 126.662C103.915 127.077 103.981 127.507 103.991 127.939C103.998 128.295 103.933 128.649 103.799 128.978C103.685 129.253 103.483 129.484 103.226 129.634L109.738 125.85C109.995 125.7 110.196 125.469 110.311 125.194C110.445 124.864 110.51 124.511 110.503 124.155C110.493 123.723 110.427 123.293 110.306 122.878V122.878Z" fill="url(#paint11_linear)"/>
<path opacity="0.2" d="M107.843 129.558C108.023 129.619 108.179 129.734 108.29 129.888C108.402 130.042 108.462 130.227 108.463 130.417C108.464 130.607 108.406 130.793 108.296 130.948C108.187 131.103 108.032 131.22 107.852 131.283L104.287 133.355C103.826 133.589 103.316 133.711 102.798 133.711C102.281 133.711 101.771 133.589 101.309 133.355L81.2103 121.751C81.0302 121.69 80.8736 121.574 80.7624 121.42C80.6511 121.266 80.5908 121.081 80.5897 120.891C80.5886 120.701 80.6469 120.516 80.7564 120.361C80.8659 120.205 81.0211 120.088 81.2005 120.025L84.7653 117.954C85.2267 117.719 85.737 117.597 86.2545 117.597C86.7721 117.597 87.2823 117.719 87.7437 117.954L107.843 129.558Z" fill="#003067"/>
<path d="M84.4231 94.0284C84.7933 94.2467 85.1285 94.5196 85.4174 94.8378C85.7454 95.1874 86.0324 95.5733 86.2729 95.988L88.8795 100.503C89.1164 100.909 89.303 101.342 89.4353 101.793C89.5567 102.208 89.623 102.637 89.6326 103.07C89.6452 103.401 89.5837 103.73 89.4526 104.034C89.3424 104.26 89.1923 104.465 89.0096 104.638C88.8448 104.797 88.6504 104.921 88.4375 105.005C88.2373 105.086 88.0424 105.179 87.8537 105.283C87.6892 105.375 87.54 105.492 87.4115 105.63C87.2896 105.793 87.2266 105.993 87.2327 106.197C87.2411 106.577 87.3502 106.947 87.5487 107.271L94.0791 118.578C94.2595 118.912 94.525 119.194 94.8488 119.393C95.0163 119.506 95.2209 119.549 95.4197 119.515C95.607 119.477 95.7877 119.412 95.956 119.322C96.145 119.223 96.3246 119.107 96.4927 118.975C96.6765 118.836 96.8816 118.726 97.1002 118.652C97.3394 118.576 97.5915 118.551 97.841 118.577C98.1744 118.622 98.4947 118.736 98.7814 118.912C99.1494 119.128 99.4843 119.396 99.7758 119.708C100.108 120.054 100.395 120.44 100.631 120.858L103.238 125.373C103.475 125.779 103.661 126.212 103.794 126.662C103.915 127.077 103.981 127.507 103.991 127.939C103.998 128.295 103.933 128.649 103.799 128.978C103.685 129.254 103.483 129.484 103.226 129.634L103.06 129.729C102.63 129.974 102.236 130.18 101.877 130.358C101.527 130.534 101.147 130.64 100.757 130.671C100.32 130.695 99.8822 130.646 99.4615 130.525C98.9058 130.355 98.3735 130.117 97.877 129.815C97.839 129.793 97.8007 129.77 97.762 129.748C96.6632 129.096 95.639 128.325 94.7078 127.45C93.6023 126.427 92.5633 125.334 91.5974 124.179C90.5688 122.956 89.5563 121.623 88.5599 120.18C87.5635 118.74 86.6275 117.255 85.7521 115.725C84.8741 114.2 84.0618 112.646 83.3152 111.064C82.5975 109.561 81.9576 108.022 81.3982 106.454C80.8951 105.05 80.4782 103.617 80.1498 102.162C79.8613 100.949 79.7128 99.708 79.7073 98.4618C79.6958 97.843 79.7531 97.2248 79.878 96.6186C79.9672 96.1933 80.1426 95.7909 80.3934 95.4361C80.6228 95.125 80.9065 94.8579 81.2308 94.6476C81.5543 94.4316 81.9371 94.2045 82.3751 93.9549L82.5644 93.847C82.8216 93.7017 83.1187 93.6431 83.4118 93.6799C83.7707 93.719 84.1163 93.8381 84.4231 94.0284Z" fill="url(#paint12_linear)"/>
<path d="M55.4056 76.8222C55.231 76.9365 55.0858 77.0904 54.9819 77.2714C54.878 77.4525 54.8183 77.6555 54.8078 77.8639L54.8156 80.6209C54.8167 80.9997 55.0878 81.1542 55.4174 80.9639L57.8166 79.5787C57.9906 79.4651 58.1353 79.3122 58.2392 79.1323C58.3431 78.9524 58.4031 78.7505 58.4145 78.5431L58.4067 75.7861C58.4056 75.4011 58.1346 75.2466 57.8049 75.437L55.4056 76.8222Z" fill="#F2F2F2"/>
<path d="M50.6017 79.5957C50.427 79.71 50.2819 79.864 50.178 80.045C50.0741 80.226 50.0144 80.429 50.0038 80.6375L50.0117 83.3945C50.0127 83.7733 50.2838 83.9278 50.6134 83.7374L53.0127 82.3522C53.1879 82.2388 53.3339 82.0856 53.4388 81.9051C53.5436 81.7246 53.6043 81.5219 53.616 81.3135L53.6082 78.5566C53.6071 78.1716 53.336 78.0172 53.001 78.2106L50.6017 79.5957Z" fill="#F2F2F2"/>
<path d="M55.39 71.3083C55.2155 71.4213 55.0704 71.5741 54.9664 71.7541C54.8625 71.9341 54.8028 72.1362 54.7921 72.3438L54.7999 75.1008C54.801 75.4796 55.0721 75.634 55.4017 75.4437L57.801 74.0585C57.9749 73.9449 58.1197 73.792 58.2235 73.6121C58.3274 73.4322 58.3875 73.2303 58.3989 73.0229L58.391 70.266C58.3899 69.881 58.1189 69.7327 57.7892 69.9231L55.39 71.3083Z" fill="#F2F2F2"/>
<path d="M45.7977 82.3693C45.6231 82.4836 45.4779 82.6375 45.374 82.8185C45.2701 82.9995 45.2105 83.2025 45.1999 83.411L45.2077 86.1679C45.2088 86.5467 45.4798 86.7012 45.8095 86.5109L48.2142 85.1225C48.3881 85.0089 48.5328 84.856 48.6367 84.6761C48.7405 84.4962 48.8006 84.2944 48.812 84.087L48.8042 81.3301C48.8031 80.9451 48.532 80.7906 48.2024 80.9809L45.7977 82.3693Z" fill="#F2F2F2"/>
<path d="M50.5861 74.0818C50.4116 74.1948 50.2664 74.3476 50.1625 74.5276C50.0586 74.7076 49.9988 74.9097 49.9882 75.1173L49.996 77.8743C49.9971 78.2531 50.2681 78.4076 50.5978 78.2173L52.9971 76.832C53.1723 76.7186 53.3183 76.5654 53.4231 76.3849C53.528 76.2044 53.5887 76.0017 53.6003 75.7933L53.5925 73.0363C53.5914 72.6513 53.3204 72.5031 52.9853 72.6965L50.5861 74.0818Z" fill="#F2F2F2"/>
<path d="M55.3744 65.7881C55.2004 65.9017 55.0557 66.0547 54.9518 66.2346C54.848 66.4145 54.7879 66.6163 54.7765 66.8237L54.7843 69.5807C54.7854 69.9594 55.0565 70.1139 55.3861 69.9236L57.7854 68.5384C57.9593 68.4248 58.104 68.2719 58.2079 68.092C58.3118 67.9121 58.3718 67.7102 58.3832 67.5028L58.3754 64.7459C58.3743 64.3671 58.1033 64.2126 57.7736 64.4029L55.3744 65.7881Z" fill="#F2F2F2"/>
<path d="M40.9938 85.1428C40.8191 85.2571 40.6739 85.4111 40.5701 85.5921C40.4662 85.7731 40.4065 85.9761 40.396 86.1846L40.4038 88.9416C40.4049 89.3203 40.6759 89.4748 41.0055 89.2846L43.4102 87.8962C43.5841 87.7826 43.7289 87.6297 43.8327 87.4498C43.9366 87.2699 43.9967 87.0681 44.0081 86.8607L44.0002 84.1037C43.9991 83.7187 43.7281 83.5643 43.3984 83.7546L40.9938 85.1428Z" fill="#F2F2F2"/>
<path d="M45.7821 76.8554C45.6077 76.9684 45.4625 77.1212 45.3586 77.3012C45.2546 77.4812 45.1949 77.6833 45.1843 77.8909L45.1921 80.6479C45.1932 81.0267 45.4642 81.1812 45.7939 80.9909L48.1986 79.6025C48.3725 79.4889 48.5172 79.336 48.6211 79.1561C48.7249 78.9762 48.785 78.7744 48.7964 78.567L48.7885 75.81C48.7874 75.425 48.5164 75.2768 48.1868 75.467L45.7821 76.8554Z" fill="#F2F2F2"/>
<path d="M50.5704 68.5618C50.3965 68.6753 50.2517 68.8283 50.1479 69.0082C50.044 69.1881 49.9839 69.3899 49.9725 69.5973L49.9803 72.3543C49.9814 72.733 50.2525 72.8875 50.5821 72.6972L52.9814 71.312C53.1566 71.1986 53.3026 71.0454 53.4075 70.8649C53.5123 70.6844 53.573 70.4817 53.5847 70.2733L53.5769 67.5163C53.5758 67.1376 53.3047 66.9831 52.9697 67.1766L50.5704 68.5618Z" fill="#F2F2F2"/>
<path d="M55.3587 60.2681C55.1848 60.3817 55.04 60.5346 54.9362 60.7145C54.8323 60.8944 54.7722 61.0962 54.7608 61.3036L54.7687 64.0606C54.7697 64.4393 55.0408 64.5938 55.3704 64.4035L57.7697 63.0183C57.9436 62.9047 58.0884 62.7518 58.1923 62.5719C58.2961 62.392 58.3562 62.1901 58.3676 61.9827L58.3598 59.2258C58.3587 58.847 58.0876 58.6925 57.758 58.8829L55.3587 60.2681Z" fill="#F2F2F2"/>
<path d="M36.1898 87.9165C36.0152 88.0307 35.87 88.1847 35.7661 88.3657C35.6622 88.5467 35.6026 88.7498 35.592 88.9582L35.5998 91.7152C35.6009 92.094 35.872 92.2484 36.2016 92.0581L38.6063 90.6698C38.7802 90.5562 38.925 90.4033 39.0288 90.2234C39.1327 90.0435 39.1928 89.8417 39.2041 89.6342L39.1963 86.8773C39.1952 86.4923 38.9242 86.3378 38.5945 86.5282L36.1898 87.9165Z" fill="#F2F2F2"/>
<path d="M40.9781 79.629C40.8037 79.742 40.6585 79.8948 40.5546 80.0748C40.4507 80.2548 40.3909 80.4569 40.3803 80.6645L40.3881 83.4214C40.3892 83.8002 40.6602 83.9547 40.9898 83.7644L43.3945 82.3761C43.5685 82.2625 43.7132 82.1096 43.8171 81.9297C43.9209 81.7498 43.981 81.548 43.9924 81.3406L43.9846 78.5836C43.9835 78.1986 43.7125 78.0503 43.3828 78.2407L40.9781 79.629Z" fill="#F2F2F2"/>
<path d="M45.7665 71.3353C45.5925 71.4489 45.4478 71.6018 45.3439 71.7817C45.2401 71.9616 45.18 72.1634 45.1686 72.3708L45.1764 75.1278C45.1775 75.5065 45.4485 75.661 45.7782 75.4707L48.1829 74.0824C48.3568 73.9688 48.5015 73.8159 48.6054 73.636C48.7093 73.4561 48.7693 73.2543 48.7807 73.0469L48.7729 70.2899C48.7718 69.9111 48.5008 69.7566 48.1712 69.9469L45.7665 71.3353Z" fill="#F2F2F2"/>
<path d="M50.5548 63.0416C50.3809 63.1552 50.2361 63.3081 50.1322 63.488C50.0284 63.6679 49.9683 63.8698 49.9569 64.0772L49.9647 66.8342C49.9658 67.2129 50.2368 67.3674 50.5665 67.1771L52.9658 65.7919C53.141 65.6785 53.287 65.5253 53.3918 65.3448C53.4967 65.1643 53.5574 64.9616 53.5691 64.7532L53.5612 61.9963C53.5602 61.6175 53.2891 61.463 52.954 61.6565L50.5548 63.0416Z" fill="#F2F2F2"/>
<path d="M31.3859 90.69C31.2112 90.8043 31.066 90.9582 30.9621 91.1392C30.8583 91.3203 30.7986 91.5233 30.788 91.7317L30.7958 94.4887C30.7969 94.8674 31.068 95.0219 31.3976 94.8316L33.8023 93.4433C33.9762 93.3297 34.121 93.1768 34.2248 92.9969C34.3287 92.817 34.3888 92.6151 34.4002 92.4077L34.3924 89.6507C34.3913 89.2657 34.1202 89.1113 33.7906 89.3016L31.3859 90.69Z" fill="#E8E8E8"/>
<path d="M36.1742 82.4025C35.9997 82.5155 35.8546 82.6683 35.7506 82.8484C35.6467 83.0284 35.587 83.2305 35.5763 83.4381L35.5841 86.1951C35.5852 86.5739 35.8563 86.7283 36.1859 86.538L38.5906 85.1497C38.7645 85.0361 38.9093 84.8832 39.0132 84.7033C39.117 84.5234 39.1771 84.3215 39.1885 84.1141L39.1807 81.3572C39.1796 80.9722 38.9086 80.8239 38.5789 81.0142L36.1742 82.4025Z" fill="#F2F2F2"/>
<path d="M40.9625 74.1089C40.7886 74.2224 40.6438 74.3754 40.54 74.5553C40.4361 74.7352 40.3761 74.937 40.3647 75.1444L40.3725 77.9013C40.3736 78.2801 40.6446 78.4346 40.9742 78.2443L43.3789 76.856C43.5528 76.7424 43.6976 76.5895 43.8015 76.4096C43.9053 76.2297 43.9654 76.0279 43.9768 75.8204L43.969 73.0635C43.9679 72.6847 43.6968 72.5302 43.3672 72.7206L40.9625 74.1089Z" fill="#F2F2F2"/>
<path d="M45.7508 65.8152C45.5769 65.9288 45.4321 66.0817 45.3283 66.2616C45.2244 66.4415 45.1643 66.6433 45.153 66.8507L45.1608 69.6077C45.1618 69.9865 45.4329 70.141 45.7626 69.9507L48.1672 68.5623C48.3411 68.4487 48.4859 68.2958 48.5897 68.1159C48.6936 67.936 48.7536 67.7342 48.765 67.5268L48.7572 64.7698C48.7561 64.391 48.4851 64.2366 48.1555 64.4268L45.7508 65.8152Z" fill="#F2F2F2"/>
<path d="M26.5874 93.4604C26.4114 93.5745 26.265 93.7287 26.1601 93.9103C26.0552 94.092 25.9949 94.2959 25.9841 94.5053L25.9919 97.2623C25.993 97.6411 26.2641 97.7955 26.5991 97.6021L28.9984 96.2169C29.1723 96.1033 29.3171 95.9504 29.4209 95.7705C29.5248 95.5906 29.5848 95.3888 29.5963 95.1813L29.5884 92.4243C29.5873 92.0393 29.3162 91.8849 28.9866 92.0752L26.5874 93.4604Z" fill="#E8E8E8"/>
<path d="M31.3703 85.1761C31.1958 85.2891 31.0507 85.4419 30.9467 85.6219C30.8428 85.8019 30.783 86.004 30.7724 86.2116L30.7802 88.9686C30.7813 89.3474 31.0524 89.5018 31.382 89.3116L33.7867 87.9232C33.9606 87.8096 34.1054 87.6567 34.2092 87.4768C34.3131 87.2969 34.3732 87.0951 34.3846 86.8877L34.3767 84.1307C34.3756 83.7457 34.1046 83.5975 33.775 83.7878L31.3703 85.1761Z" fill="#E8E8E8"/>
<path d="M36.1585 76.8824C35.9846 76.996 35.8399 77.1489 35.736 77.3288C35.6321 77.5087 35.5721 77.7106 35.5607 77.918L35.5685 80.6749C35.5696 81.0537 35.8407 81.2081 36.1703 81.0178L38.575 79.6295C38.7489 79.5159 38.8937 79.363 38.9976 79.1831C39.1014 79.0032 39.1615 78.8014 39.1729 78.5939L39.165 75.837C39.1639 75.4582 38.8929 75.3037 38.5632 75.4941L36.1585 76.8824Z" fill="#F2F2F2"/>
<path d="M40.9468 68.5888C40.7729 68.7024 40.6282 68.8553 40.5243 69.0352C40.4205 69.2151 40.3604 69.4169 40.349 69.6243L40.3568 72.3813C40.3579 72.7601 40.629 72.9146 40.9586 72.7243L43.3632 71.336C43.5372 71.2224 43.6819 71.0695 43.7858 70.8896C43.8897 70.7097 43.9497 70.5078 43.9611 70.3004L43.9533 67.5435C43.9522 67.1647 43.6812 67.0102 43.3515 67.2005L40.9468 68.5888Z" fill="#F2F2F2"/>
<path d="M26.5717 87.9465C26.396 88.0593 26.2496 88.2123 26.1446 88.393C26.0397 88.5736 25.9793 88.7766 25.9684 88.9852L25.9763 91.7421C25.9773 92.1209 26.2484 92.2753 26.5835 92.0819L28.9827 90.6967C29.1567 90.5831 29.3014 90.4302 29.4053 90.2503C29.5091 90.0704 29.5692 89.8686 29.5806 89.6611L29.5728 86.9041C29.5717 86.5191 29.3006 86.3709 28.971 86.5612L26.5717 87.9465Z" fill="#E8E8E8"/>
<path d="M36.1429 71.3623C35.969 71.4759 35.8242 71.6288 35.7203 71.8087C35.6165 71.9886 35.5564 72.1905 35.545 72.3979L35.5528 75.1549C35.5539 75.5336 35.825 75.6881 36.1546 75.4978L38.5593 74.1094C38.7332 73.9958 38.878 73.8429 38.9819 73.663C39.0857 73.4831 39.1458 73.2813 39.1572 73.0739L39.1494 70.3169C39.1483 69.9381 38.8772 69.7837 38.5476 69.974L36.1429 71.3623Z" fill="#F2F2F2"/>
<path d="M31.9311 69.1385C31.5672 69.5739 31.3558 70.1166 31.3292 70.6835C31.3313 71.4472 31.8735 71.7499 32.5381 71.3662C32.887 71.1402 33.1774 70.8346 33.3852 70.4746C33.5931 70.1145 33.7126 69.7103 33.7339 69.2951C33.7324 68.7829 33.4904 68.4771 33.1306 68.4467L33.1301 68.263L41.533 63.4116L41.5335 63.5969C41.1728 64.0317 40.9634 64.5721 40.937 65.1364C40.9392 65.9001 41.4814 66.2028 42.1406 65.8222C42.4903 65.5958 42.7815 65.2899 42.9902 64.9293C43.199 64.5688 43.3195 64.164 43.3417 63.748C43.3403 63.2377 43.0977 62.9336 42.7386 62.9022L42.7381 62.7158L51.1409 57.8644L51.1414 58.0498C50.7807 58.4845 50.5713 59.0249 50.545 59.5892C50.5472 60.353 51.0893 60.6557 51.7485 60.2751C52.0974 60.0491 52.3877 59.7435 52.5956 59.3835C52.8035 59.0234 52.923 58.6192 52.9442 58.204C52.9428 57.6918 52.7008 57.386 52.341 57.3556L52.3405 57.1718L61.3486 51.971L61.4386 83.707C61.3931 84.5375 61.1529 85.3457 60.7375 86.0663C60.3221 86.7869 59.7431 87.3998 59.0472 87.8554L25.4195 107.27C24.0956 108.035 23.0168 107.42 23.0124 105.892L22.9224 74.1565L31.9305 68.9556L31.9311 69.1385ZM35.5998 91.7151C35.6008 92.0939 35.872 92.2484 36.2016 92.0581L38.6062 90.6697C38.7802 90.5562 38.9249 90.4032 39.0288 90.2233C39.1327 90.0434 39.1927 89.8416 39.2041 89.6342L39.1963 86.8772C39.1952 86.4922 38.9242 86.3378 38.5945 86.5281L36.1898 87.9164C36.0152 88.0307 35.87 88.1847 35.7661 88.3657C35.6622 88.5467 35.6026 88.7497 35.592 88.9582L35.5998 91.7151H35.5998ZM50.0117 83.3944C50.0128 83.7732 50.2838 83.9277 50.6135 83.7374L53.0127 82.3522C53.188 82.2388 53.334 82.0856 53.4388 81.9051C53.5437 81.7246 53.6044 81.5219 53.6161 81.3135L53.6082 78.5565C53.6071 78.1715 53.336 78.0171 53.001 78.2105L50.6017 79.5957C50.4271 79.71 50.2819 79.864 50.178 80.045C50.0741 80.226 50.0145 80.429 50.0039 80.6375L50.0117 83.3945V83.3944ZM30.7959 94.4887C30.7969 94.8675 31.068 95.0219 31.3976 94.8316L33.8023 93.4433C33.9763 93.3297 34.121 93.1768 34.2249 92.9969C34.3287 92.817 34.3888 92.6151 34.4002 92.4077L34.3924 89.6507C34.3913 89.2657 34.1202 89.1113 33.7906 89.3016L31.3859 90.69C31.2112 90.8043 31.0661 90.9582 30.9622 91.1393C30.8583 91.3203 30.7986 91.5233 30.788 91.7318L30.7959 94.4888V94.4887ZM25.9919 97.2623C25.993 97.6411 26.2641 97.7955 26.5991 97.6021L28.9984 96.2169C29.1723 96.1033 29.3171 95.9504 29.4209 95.7705C29.5248 95.5906 29.5849 95.3888 29.5963 95.1814L29.5884 92.4243C29.5873 92.0393 29.3162 91.8849 28.9866 92.0752L26.5874 93.4604C26.4114 93.5745 26.265 93.7287 26.1601 93.9103C26.0552 94.0919 25.9949 94.2959 25.9841 94.5053L25.9919 97.2622V97.2623ZM45.2077 86.168C45.2088 86.5468 45.4798 86.7013 45.8095 86.5109L48.2142 85.1226C48.3881 85.009 48.5329 84.8561 48.6367 84.6762C48.7406 84.4963 48.8006 84.2945 48.812 84.0871L48.8042 81.3301C48.8031 80.9451 48.5321 80.7907 48.2025 80.981L45.7978 82.3693C45.6231 82.4836 45.4779 82.6375 45.374 82.8186C45.2701 82.9996 45.2105 83.2026 45.1999 83.4111L45.2077 86.1681V86.168ZM40.4038 88.9416C40.4049 89.3204 40.6759 89.4749 41.0055 89.2846L43.4102 87.8963C43.5841 87.7827 43.7289 87.6298 43.8327 87.4499C43.9366 87.27 43.9967 87.0681 44.0081 86.8607L44.0002 84.1037C43.9991 83.7187 43.7281 83.5642 43.3984 83.7546L40.9938 85.1429C40.8191 85.2572 40.674 85.4111 40.5701 85.5922C40.4662 85.7732 40.4066 85.9762 40.396 86.1846L40.4038 88.9416L40.4038 88.9416ZM35.5841 86.1951C35.5852 86.5739 35.8564 86.7283 36.1859 86.538L38.5906 85.1497C38.7646 85.0361 38.9093 84.8832 39.0132 84.7033C39.1171 84.5234 39.1771 84.3216 39.1885 84.1141L39.1807 81.3571C39.1796 80.9721 38.9086 80.8239 38.5789 81.0142L36.1742 82.4025C35.9998 82.5155 35.8546 82.6683 35.7507 82.8484C35.6467 83.0284 35.587 83.2305 35.5763 83.4381L35.5841 86.1951V86.1951ZM49.996 77.8743C49.9971 78.2531 50.2681 78.4076 50.5978 78.2173L52.997 76.8321C53.1723 76.7187 53.3183 76.5655 53.4231 76.385C53.5279 76.2045 53.5887 76.0018 53.6003 75.7934L53.5925 73.0364C53.5914 72.6514 53.3203 72.5032 52.9853 72.6966L50.586 74.0818C50.4116 74.1949 50.2664 74.3476 50.1625 74.5277C50.0585 74.7077 49.9988 74.9098 49.9882 75.1174L49.996 77.8744V77.8743ZM30.7802 88.9686C30.7813 89.3474 31.0524 89.5018 31.382 89.3115L33.7867 87.9232C33.9606 87.8096 34.1054 87.6567 34.2092 87.4768C34.3131 87.2969 34.3731 87.095 34.3845 86.8876L34.3767 84.1307C34.3756 83.7457 34.1045 83.5975 33.775 83.7878L31.3703 85.1761C31.1958 85.2891 31.0506 85.4419 30.9467 85.6219C30.8428 85.8019 30.783 86.0041 30.7724 86.2116L30.7802 88.9687V88.9686ZM25.9763 91.7422C25.9773 92.121 26.2485 92.2754 26.5835 92.082L28.9827 90.6968C29.1567 90.5832 29.3014 90.4303 29.4053 90.2504C29.5091 90.0705 29.5692 89.8687 29.5806 89.6612L29.5728 86.9042C29.5717 86.5192 29.3006 86.371 28.971 86.5613L26.5718 87.9465C26.396 88.0593 26.2496 88.2124 26.1447 88.393C26.0397 88.5736 25.9793 88.7766 25.9685 88.9852L25.9763 91.7422V91.7422ZM35.5685 80.6749C35.5695 81.0537 35.8407 81.2082 36.1703 81.0179L38.575 79.6295C38.7489 79.5159 38.8937 79.363 38.9976 79.1831C39.1014 79.0032 39.1615 78.8014 39.1729 78.5939L39.165 75.837C39.1639 75.4582 38.8929 75.3037 38.5632 75.4941L36.1585 76.8824C35.9846 76.996 35.8398 77.1489 35.736 77.3288C35.6321 77.5087 35.572 77.7106 35.5606 77.918L35.5684 80.6749L35.5685 80.6749ZM35.5528 75.1548C35.5539 75.5336 35.825 75.688 36.1546 75.4977L38.5593 74.1094C38.7332 73.9958 38.878 73.8429 38.9818 73.663C39.0857 73.4831 39.1458 73.2813 39.1572 73.0738L39.1493 70.3169C39.1483 69.9381 38.8772 69.7837 38.5475 69.974L36.1429 71.3623C35.9689 71.4759 35.8242 71.6288 35.7203 71.8087C35.6165 71.9886 35.5564 72.1904 35.545 72.3979L35.5528 75.1549V75.1548ZM49.9803 72.3542C49.9814 72.733 50.2525 72.8875 50.5821 72.6972L52.9814 71.312C53.1566 71.1986 53.3026 71.0454 53.4075 70.8649C53.5123 70.6844 53.573 70.4817 53.5847 70.2733L53.5769 67.5164C53.5758 67.1376 53.3047 66.9831 52.9696 67.1766L50.5704 68.5618C50.3965 68.6754 50.2517 68.8283 50.1478 69.0082C50.044 69.1881 49.9839 69.3899 49.9725 69.5973L49.9803 72.3542V72.3542ZM49.9647 66.8342C49.9658 67.2129 50.2368 67.3674 50.5665 67.1771L52.9657 65.7919C53.141 65.6785 53.287 65.5253 53.3918 65.3448C53.4967 65.1643 53.5574 64.9616 53.569 64.7532L53.5612 61.9962C53.5601 61.6174 53.289 61.463 52.954 61.6564L50.5547 63.0416C50.3808 63.1552 50.2361 63.3081 50.1322 63.488C50.0283 63.6679 49.9683 63.8697 49.9569 64.0772L49.9647 66.8342ZM54.8156 80.6209C54.8166 80.9997 55.0877 81.1542 55.4174 80.9638L57.8166 79.5786C57.9905 79.4651 58.1353 79.3121 58.2392 79.1322C58.343 78.9523 58.4031 78.7505 58.4145 78.5431L58.4067 75.7861C58.4056 75.4011 58.1346 75.2466 57.8049 75.437L55.4056 76.8222C55.231 76.9365 55.0858 77.0904 54.9819 77.2714C54.878 77.4525 54.8183 77.6555 54.8078 77.8639L54.8156 80.6209L54.8156 80.6209ZM45.1921 80.6479C45.1932 81.0267 45.4642 81.1812 45.7939 80.9909L48.1986 79.6025C48.3725 79.489 48.5172 79.336 48.6211 79.1561C48.7249 78.9762 48.785 78.7744 48.7963 78.567L48.7885 75.81C48.7874 75.425 48.5164 75.2768 48.1868 75.467L45.7821 76.8554C45.6077 76.9684 45.4625 77.1212 45.3586 77.3012C45.2546 77.4812 45.1949 77.6833 45.1843 77.8909L45.1921 80.6479V80.6479ZM40.3881 83.4215C40.3892 83.8002 40.6603 83.9548 40.9898 83.7645L43.3945 82.3761C43.5685 82.2626 43.7132 82.1096 43.8171 81.9297C43.921 81.7498 43.981 81.548 43.9924 81.3406L43.9846 78.5836C43.9835 78.1986 43.7125 78.0504 43.3828 78.2407L40.9781 79.629C40.8037 79.742 40.6585 79.8948 40.5546 80.0748C40.4507 80.2548 40.391 80.4569 40.3803 80.6645L40.3881 83.4215V83.4215ZM45.1764 75.1278C45.1775 75.5066 45.4485 75.6611 45.7782 75.4707L48.1829 74.0824C48.3568 73.9688 48.5016 73.8159 48.6054 73.636C48.7093 73.4561 48.7693 73.2543 48.7807 73.0469L48.7729 70.2899C48.7718 69.9112 48.5008 69.7567 48.1712 69.9469L45.7665 71.3353C45.5925 71.4489 45.4478 71.6018 45.3439 71.7817C45.2401 71.9616 45.18 72.1634 45.1686 72.3709L45.1764 75.1278V75.1278ZM40.3724 77.9013C40.3735 78.2801 40.6446 78.4346 40.9741 78.2443L43.3789 76.856C43.5528 76.7424 43.6976 76.5895 43.8014 76.4096C43.9053 76.2297 43.9654 76.0279 43.9768 75.8205L43.969 73.0635C43.9679 72.6847 43.6969 72.5302 43.3672 72.7206L40.9625 74.1089C40.7886 74.2225 40.6439 74.3754 40.54 74.5553C40.4362 74.7352 40.3761 74.937 40.3647 75.1444L40.3725 77.9013H40.3724ZM45.1608 69.6077C45.1619 69.9865 45.4329 70.1409 45.7626 69.9506L48.1673 68.5623C48.3412 68.4487 48.486 68.2958 48.5898 68.1159C48.6937 67.936 48.7537 67.7342 48.7651 67.5268L48.7573 64.7698C48.7562 64.391 48.4852 64.2365 48.1556 64.4268L45.7508 65.8152C45.5769 65.9288 45.4321 66.0817 45.3283 66.2616C45.2244 66.4415 45.1644 66.6433 45.153 66.8507L45.1608 69.6077L45.1608 69.6077ZM40.3568 72.3813C40.3579 72.7601 40.6289 72.9146 40.9585 72.7243L43.3632 71.3359C43.5371 71.2224 43.6819 71.0694 43.7857 70.8895C43.8896 70.7096 43.9497 70.5078 43.9611 70.3004L43.9532 67.5434C43.9522 67.1647 43.6811 67.0102 43.3515 67.2005L40.9468 68.5888C40.7729 68.7024 40.6282 68.8553 40.5243 69.0352C40.4205 69.2151 40.3604 69.4169 40.349 69.6243L40.3568 72.3813H40.3568ZM54.7999 75.1008C54.801 75.4796 55.0721 75.6341 55.4017 75.4438L57.801 74.0586C57.9749 73.945 58.1197 73.7921 58.2235 73.6122C58.3274 73.4322 58.3875 73.2304 58.3989 73.023L58.391 70.266C58.39 69.881 58.1189 69.7327 57.7893 69.9231L55.39 71.3083C55.2155 71.4213 55.0704 71.5741 54.9664 71.7541C54.8625 71.9341 54.8027 72.1363 54.7921 72.3438L54.7999 75.1008H54.7999ZM54.7843 69.5807C54.7853 69.9595 55.0565 70.114 55.3861 69.9236L57.7853 68.5384C57.9593 68.4249 58.104 68.2719 58.2079 68.092C58.3117 67.9121 58.3718 67.7103 58.3832 67.5029L58.3754 64.746C58.3743 64.3672 58.1033 64.2127 57.7736 64.403L55.3743 65.7882C55.2004 65.9018 55.0557 66.0547 54.9518 66.2346C54.8479 66.4146 54.7879 66.6164 54.7765 66.8238L54.7843 69.5807V69.5807ZM54.7686 64.0606C54.7697 64.4394 55.0408 64.5939 55.3704 64.4035L57.7697 63.0183C57.9436 62.9048 58.0884 62.7518 58.1922 62.5719C58.2961 62.392 58.3562 62.1902 58.3675 61.9828L58.3597 59.2258C58.3587 58.8471 58.0876 58.6926 57.7579 58.8829L55.3587 60.2681C55.1848 60.3817 55.04 60.5346 54.9361 60.7145C54.8323 60.8944 54.7722 61.0963 54.7608 61.3037L54.7686 64.0606Z" fill="white"/>
<path d="M23.0124 105.892L22.9224 74.1564L21.7295 73.4631L21.8194 105.199C21.7894 105.495 21.8385 105.795 21.9618 106.066C22.085 106.337 22.278 106.571 22.5211 106.743L23.7141 107.437C23.471 107.264 23.2781 107.031 23.1548 106.759C23.0316 106.488 22.9824 106.189 23.0124 105.892Z" fill="#F2F2F2"/>
<path d="M22.919 72.778L21.725 72.085L21.729 73.463L22.922 74.156L22.919 72.778Z" fill="#E8E8E8"/>
<path d="M61.349 51.971L61.345 50.593L52.337 55.793L52.341 57.172L61.349 51.971Z" fill="#F2F2F2"/>
<path d="M51.141 57.864L51.137 56.486L42.734 61.337L42.738 62.716L51.141 57.864Z" fill="#F2F2F2"/>
<path d="M41.533 63.412L41.529 62.033L33.126 66.885L33.13 68.263L41.533 63.412Z" fill="#F2F2F2"/>
<path d="M24.0947 63.802C23.7461 64.0299 23.4562 64.3367 23.2484 64.6977C23.0407 65.0586 22.921 65.4635 22.899 65.8793L22.9186 72.7779L31.9267 67.5771L31.9183 64.6311C31.5563 64.6023 31.3111 64.2977 31.3097 63.7849C31.332 63.3689 31.4524 62.9641 31.6612 62.6036C31.8699 62.2431 32.1611 61.9371 32.5108 61.7107C33.1755 61.3269 33.7122 61.6328 33.7144 62.3965C33.6888 62.9615 33.4794 63.5027 33.1179 63.9377L33.1263 66.8845L41.5291 62.0331L41.5208 59.0847C41.1624 59.0531 40.919 58.7489 40.9175 58.2378C40.9396 57.8228 41.0594 57.4188 41.2672 57.0589C41.475 56.699 41.7649 56.3933 42.1133 56.1667C42.778 55.7829 43.3201 56.0857 43.3222 56.8494C43.296 57.4134 43.0866 57.9535 42.7258 58.3879L42.7342 61.3373L51.137 56.486L51.1287 53.5376C50.7703 53.506 50.5269 53.2018 50.5254 52.6907C50.5475 52.2757 50.6673 51.8718 50.8751 51.5119C51.0829 51.152 51.3728 50.8463 51.7211 50.6197C52.3858 50.2359 52.9225 50.5418 52.9247 51.3055C52.8992 51.8705 52.6897 52.4117 52.3282 52.8466L52.3366 55.7935L61.3447 50.5926L61.3252 43.694C61.323 42.9303 60.7808 42.6213 60.1216 43.002L24.0947 63.802Z" fill="#1F56A3"/>
<path d="M51.7231 51.3089C51.5491 51.4224 51.4044 51.5754 51.3005 51.7552C51.1967 51.9351 51.1366 52.137 51.1252 52.3444L51.1286 53.5375L51.137 56.486L51.1409 57.8645L51.1414 58.0498L51.1448 59.2429C51.1459 59.6279 51.4169 59.7762 51.7465 59.5859C51.9215 59.4735 52.0671 59.3209 52.1711 59.1407C52.2751 58.9606 52.3345 58.7582 52.3444 58.5504L52.341 57.3556L52.3405 57.1719L52.3366 55.7934L52.3282 52.8466L52.3248 51.6518C52.3238 51.273 52.0582 51.1154 51.7231 51.3089Z" fill="#AAB0B1"/>
<path d="M52.341 57.3556L52.3444 58.5503C52.3345 58.7581 52.2751 58.9605 52.1711 59.1407C52.0671 59.3208 51.9215 59.4734 51.7465 59.5859C51.4169 59.7762 51.1459 59.6279 51.1448 59.2429L51.1414 58.0498C50.7807 58.4845 50.5713 59.0249 50.545 59.5892C50.5471 60.3529 51.0893 60.6557 51.7485 60.2751C52.0974 60.0491 52.3877 59.7435 52.5956 59.3834C52.8035 59.0234 52.9229 58.6192 52.9442 58.204C52.9428 57.6918 52.7007 57.386 52.341 57.3556Z" fill="#E8E8E8"/>
<path d="M51.7211 50.6196C51.3727 50.8462 51.0828 51.1519 50.875 51.5118C50.6673 51.8717 50.5475 52.2756 50.5254 52.6906C50.5269 53.2017 50.7703 53.5059 51.1286 53.5375L51.1253 52.3443C51.1366 52.1369 51.1967 51.9351 51.3005 51.7552C51.4044 51.5753 51.5491 51.4224 51.7231 51.3088C52.0582 51.1153 52.3238 51.2729 52.3248 51.6517L52.3282 52.8465C52.6897 52.4115 52.8991 51.8704 52.9247 51.3054C52.9225 50.5417 52.3858 50.2358 51.7211 50.6196Z" fill="#003067"/>
<path d="M41.5335 63.597C41.1728 64.0317 40.9634 64.5721 40.937 65.1364C40.9392 65.9002 41.4813 66.2029 42.1406 65.8223C42.4903 65.5959 42.7815 65.2899 42.9902 64.9294C43.199 64.5689 43.3195 64.164 43.3417 63.748C43.3403 63.2377 43.0977 62.9336 42.7386 62.9022L42.742 64.0943C42.7311 64.3029 42.6707 64.5059 42.5658 64.6865C42.4609 64.8672 42.3145 65.0202 42.1387 65.133C41.8091 65.3233 41.538 65.175 41.5369 64.7901L41.5335 63.597Z" fill="#E8E8E8"/>
<path d="M31.931 69.1384C31.5671 69.5739 31.3557 70.1165 31.3291 70.6834C31.3313 71.4472 31.8734 71.7499 32.5381 71.3662C32.887 71.1402 33.1773 70.8346 33.3852 70.4745C33.5931 70.1145 33.7125 69.7103 33.7338 69.2951C33.7324 68.7828 33.4903 68.477 33.1306 68.4467L33.134 69.6414C33.1233 69.849 33.0636 70.0511 32.9597 70.2311C32.8557 70.4112 32.7106 70.5639 32.5361 70.677C32.2011 70.8704 31.9355 70.719 31.9344 70.334L31.931 69.1384Z" fill="#E8E8E8"/>
<path d="M42.1152 56.8559C41.9413 56.9695 41.7965 57.1224 41.6926 57.3023C41.5888 57.4822 41.5287 57.6841 41.5173 57.8915L41.5207 59.0847L41.5291 62.0331L41.533 63.4116L41.5335 63.5969L41.5369 64.79C41.538 65.175 41.8091 65.3233 42.1387 65.133C42.3144 65.0202 42.4608 64.8671 42.5657 64.6865C42.6707 64.5059 42.7311 64.3029 42.742 64.0943L42.7386 62.9022L42.738 62.7158L42.7341 61.3373L42.7258 58.3879L42.7224 57.1957C42.7213 56.817 42.4502 56.6625 42.1152 56.8559Z" fill="#AAB0B1"/>
<path d="M42.1132 56.1667C41.7648 56.3933 41.4749 56.699 41.2671 57.0589C41.0593 57.4188 40.9395 57.8228 40.9175 58.2378C40.9189 58.7489 41.1623 59.0531 41.5207 59.0847L41.5173 57.8915C41.5287 57.684 41.5888 57.4822 41.6926 57.3023C41.7965 57.1224 41.9413 56.9695 42.1152 56.8559C42.4502 56.6625 42.7213 56.8169 42.7224 57.1957L42.7258 58.3879C43.0865 57.9535 43.2959 57.4134 43.3222 56.8494C43.32 56.0857 42.7779 55.7829 42.1132 56.1667Z" fill="#003067"/>
<path d="M32.5127 62.4C32.3382 62.513 32.1931 62.6658 32.0892 62.8458C31.9852 63.0258 31.9255 63.2279 31.9149 63.4355L31.9183 64.6311L31.9266 67.5771L31.9305 68.9556L31.9311 69.1385L31.9344 70.3341C31.9355 70.7191 32.2011 70.8705 32.5362 70.6771C32.7106 70.5641 32.8558 70.4113 32.9597 70.2312C33.0637 70.0512 33.1234 69.8491 33.134 69.6415L33.1306 68.4468L33.1301 68.263L33.1262 66.8846L33.1179 63.9377L33.1145 62.7429C33.1134 62.3641 32.8424 62.2096 32.5127 62.4Z" fill="#AAB0B1"/>
<path d="M32.5107 61.7107C32.161 61.9371 31.8699 62.2431 31.6611 62.6036C31.4523 62.9641 31.3319 63.3689 31.3096 63.7849C31.3111 64.2977 31.5562 64.6023 31.9183 64.6311L31.9149 63.4354C31.9255 63.2278 31.9852 63.0257 32.0891 62.8457C32.1931 62.6657 32.3382 62.5129 32.5127 62.3999C32.8423 62.2096 33.1134 62.3641 33.1145 62.7429L33.1178 63.9377C33.4793 63.5027 33.6887 62.9615 33.7143 62.3965C33.7121 61.6328 33.1754 61.327 32.5107 61.7107Z" fill="#003067"/>
<path d="M31.927 67.577L22.919 72.778L22.922 74.156L31.931 68.956L31.927 67.577Z" fill="#F2F2F2"/>
<path d="M60.9726 42.9204L59.7796 42.2271C59.6434 42.1636 59.4926 42.1376 59.343 42.152C59.1933 42.1663 59.0503 42.2204 58.9285 42.3086L60.1215 43.0019C60.2432 42.9137 60.3863 42.8596 60.536 42.8453C60.6856 42.831 60.8364 42.8569 60.9726 42.9204V42.9204Z" fill="#0078D4"/>
<path d="M22.899 65.879L21.706 65.186L21.725 72.085L22.919 72.778L22.899 65.879Z" fill="#0078D4"/>
<path d="M60.122 43.002L58.929 42.309L22.902 63.109L24.095 63.802L60.122 43.002Z" fill="#0078D4"/>
<path d="M24.0947 63.802L22.9017 63.1087C22.5531 63.3366 22.2631 63.6434 22.0554 64.0044C21.8476 64.3653 21.7279 64.7701 21.7059 65.186L22.8989 65.8793C22.9209 65.4635 23.0406 65.0586 23.2484 64.6977C23.4561 64.3367 23.7461 64.0299 24.0947 63.802V63.802Z" fill="#0078D4"/>
<path d="M34.2819 76.4556C34.1942 78.0819 33.7237 79.6645 32.9086 81.0745C32.0935 82.4845 30.9569 83.682 29.5913 84.5695C27.0031 86.0638 24.8878 84.8583 24.8793 81.8842C24.9651 80.2579 25.4339 78.6748 26.2474 77.2639C27.0609 75.853 28.1961 74.6542 29.5606 73.7652C32.158 72.2657 34.2735 73.4712 34.2819 76.4556Z" fill="#0078D4"/>
<path d="M31.1327 76.7506C30.9759 76.8484 30.8468 76.9848 30.7577 77.1467L29.0349 80.1308L28.4083 79.7843L28.363 79.7376C28.3027 79.7103 28.2363 79.6993 28.1705 79.7058C28.1047 79.7123 28.0417 79.7359 27.988 79.7744C27.8334 79.8705 27.7067 80.0056 27.6208 80.166C27.4133 80.515 27.4144 80.8894 27.6141 81.0136L27.6052 81.0292L28.6674 81.6242C28.7289 81.6487 28.7955 81.6575 28.8613 81.6496C28.927 81.6416 28.9896 81.6173 29.0435 81.5789C29.199 81.4827 29.3279 81.3492 29.4185 81.1905L31.5022 77.571C31.7097 77.2117 31.7086 76.8373 31.5088 76.7131C31.4484 76.6858 31.3818 76.6748 31.3157 76.6814C31.2497 76.688 31.1866 76.7119 31.1327 76.7506V76.7506Z" fill="white"/>
</g>
<defs>
<linearGradient id="paint0_linear" x1="79.6785" y1="8.27838" x2="79.6785" y2="179.694" gradientUnits="userSpaceOnUse">
<stop stop-color="#00ABDE"/>
<stop offset="1" stop-color="#007ED8"/>
</linearGradient>
<linearGradient id="paint1_linear" x1="62.8402" y1="118.768" x2="62.8402" y2="111.482" gradientUnits="userSpaceOnUse">
<stop stop-color="#F0F0F0" stop-opacity="0"/>
<stop offset="1" stop-color="#F0F0F0" stop-opacity="0.5"/>
</linearGradient>
<linearGradient id="paint2_linear" x1="62.8464" y1="123.733" x2="62.8464" y2="105.123" gradientUnits="userSpaceOnUse">
<stop stop-color="white"/>
<stop offset="0.56" stop-color="#FBFBFB"/>
<stop offset="1" stop-color="#F2F2F2"/>
</linearGradient>
<linearGradient id="paint3_linear" x1="209.059" y1="525.522" x2="209.059" y2="540.191" gradientUnits="userSpaceOnUse">
<stop stop-color="#F0F0F0" stop-opacity="0"/>
<stop offset="1" stop-color="#F0F0F0" stop-opacity="0.5"/>
</linearGradient>
<linearGradient id="paint4_linear" x1="62.9675" y1="130.389" x2="62.9425" y2="116.331" gradientUnits="userSpaceOnUse">
<stop stop-color="white" stop-opacity="0.5"/>
<stop offset="1" stop-color="#FCFCFC" stop-opacity="0"/>
</linearGradient>
<linearGradient id="paint5_linear" x1="142.369" y1="527.925" x2="142.369" y2="542.769" gradientUnits="userSpaceOnUse">
<stop stop-color="#F0F0F0" stop-opacity="0"/>
<stop offset="1" stop-color="#F0F0F0" stop-opacity="0.5"/>
</linearGradient>
<linearGradient id="paint6_linear" x1="62.8464" y1="123.733" x2="62.8464" y2="105.123" gradientUnits="userSpaceOnUse">
<stop stop-color="white"/>
<stop offset="0.56" stop-color="#FBFBFB"/>
<stop offset="1" stop-color="#F2F2F2"/>
</linearGradient>
<linearGradient id="paint7_linear" x1="170.406" y1="445.155" x2="170.406" y2="450.604" gradientUnits="userSpaceOnUse">
<stop stop-color="#F0F0F0" stop-opacity="0"/>
<stop offset="1" stop-color="#F0F0F0" stop-opacity="0.5"/>
</linearGradient>
<linearGradient id="paint8_linear" x1="74.2096" y1="146.665" x2="74.1943" y2="138.097" gradientUnits="userSpaceOnUse">
<stop stop-color="white" stop-opacity="0.5"/>
<stop offset="1" stop-color="#FCFCFC" stop-opacity="0"/>
</linearGradient>
<linearGradient id="paint9_linear" x1="140.544" y1="446.971" x2="140.544" y2="452.484" gradientUnits="userSpaceOnUse">
<stop stop-color="#F0F0F0" stop-opacity="0"/>
<stop offset="1" stop-color="#F0F0F0" stop-opacity="0.5"/>
</linearGradient>
<linearGradient id="paint10_linear" x1="87.2327" y1="110.816" x2="101.823" y2="110.816" gradientUnits="userSpaceOnUse">
<stop stop-color="#003067"/>
<stop offset="0.2" stop-color="#003F7C"/>
<stop offset="0.47" stop-color="#004F90"/>
<stop offset="0.74" stop-color="#00589D"/>
<stop offset="1" stop-color="#005BA1"/>
</linearGradient>
<linearGradient id="paint11_linear" x1="2779.61" y1="5242.74" x2="2779.61" y2="3660" gradientUnits="userSpaceOnUse">
<stop stop-color="#003067"/>
<stop offset="0.2" stop-color="#003F7C"/>
<stop offset="0.47" stop-color="#004F90"/>
<stop offset="0.74" stop-color="#00589D"/>
<stop offset="1" stop-color="#005BA1"/>
</linearGradient>
<linearGradient id="paint12_linear" x1="91.8488" y1="130.68" x2="91.8488" y2="93.6717" gradientUnits="userSpaceOnUse">
<stop stop-color="#004DAE"/>
<stop offset="1" stop-color="#008BF1"/>
</linearGradient>
<clipPath id="clip0">
<rect width="159.356" height="188" fill="white"/>
</clipPath>
</defs>
</svg>
