<svg width="100" height="100" viewBox="0 0 100 100" fill="none" xmlns="http://www.w3.org/2000/svg">
<g clip-path="url(#clip0)">
<path d="M49.1924 96.5204C39.9343 96.5204 30.884 93.7751 23.1862 88.6315C15.4883 83.488 9.48854 76.1772 5.94561 67.6238C2.40267 59.0704 1.47567 49.6585 3.28185 40.5782C5.08802 31.498 9.54624 23.1572 16.0927 16.6107C22.6392 10.0642 30.98 5.60603 40.0602 3.79985C49.1405 1.99368 58.5524 2.92067 67.1058 6.46361C75.6592 10.0065 82.9699 16.0063 88.1135 23.7042C93.257 31.402 96.0024 40.4523 96.0024 49.7104C96.0028 55.8577 94.7923 61.9449 92.4401 67.6243C90.0878 73.3038 86.6398 78.4642 82.293 82.811C77.9462 87.1578 72.7858 90.6058 67.1063 92.9581C61.4269 95.3103 55.3397 96.5208 49.1924 96.5204V96.5204Z" fill="url(#paint0_linear)"/>
<path fill-rule="evenodd" clip-rule="evenodd" d="M95.5402 49.7806C95.5402 58.8588 92.8482 67.7331 87.8046 75.2813C82.761 82.8295 75.5925 88.7126 67.2053 92.1867C58.8182 95.6608 49.5892 96.5697 40.6855 94.7987C31.7818 93.0276 23.6032 88.6561 17.184 82.2368C10.7647 75.8176 6.39317 67.639 4.62211 58.7353C2.85105 49.8315 3.76002 40.6026 7.23408 32.2155C10.7081 23.8283 16.5913 16.6597 24.1395 11.6162C31.6877 6.57261 40.562 3.88063 49.6402 3.88063C55.6678 3.8806 61.6365 5.06783 67.2053 7.37451C72.7742 9.68119 77.8342 13.0622 82.0964 17.3244C86.3586 21.5866 89.7396 26.6466 92.0463 32.2154C94.3529 37.7843 95.5402 43.7529 95.5402 49.7806V49.7806ZM49.6402 0.140625C59.458 0.140625 69.0554 3.05196 77.2187 8.50647C85.3819 13.961 91.7444 21.7137 95.5015 30.7842C99.2587 39.8547 100.242 49.8357 98.3263 59.4649C96.411 69.0941 91.6832 77.9391 84.7409 84.8814C77.7987 91.8237 68.9537 96.5514 59.3244 98.4668C49.6952 100.382 39.7143 99.3991 30.6437 95.642C21.5732 91.8849 13.8205 85.5224 8.366 77.3591C2.91149 69.1959 0.000152951 59.5985 0.000152951 49.7806C-0.00063515 43.2616 1.2828 36.8062 3.77717 30.7833C6.27153 24.7603 9.92796 19.2877 14.5376 14.6781C19.1473 10.0684 24.6199 6.412 30.6428 3.91764C36.6658 1.42328 43.1211 0.139837 49.6402 0.140625V0.140625Z" fill="#F2F1F0"/>
<path fill-rule="evenodd" clip-rule="evenodd" d="M92.2819 49.7089C92.2819 58.2313 89.7547 66.5623 85.0199 73.6485C80.2851 80.7346 73.5554 86.2575 65.6817 89.5189C57.8081 92.7803 49.1441 93.6336 40.7855 91.971C32.4268 90.3083 24.7489 86.2044 18.7227 80.1782C12.6964 74.1519 8.59251 66.474 6.92987 58.1154C5.26723 49.7567 6.12056 41.0928 9.38194 33.2191C12.6433 25.3454 18.1663 18.6157 25.2524 13.8809C32.3385 9.14612 40.6695 6.61894 49.1919 6.61894C54.8507 6.61859 60.4541 7.73291 65.6821 9.89827C70.9102 12.0636 75.6606 15.2376 79.6619 19.2389C83.6632 23.2403 86.8372 27.9906 89.0026 33.2187C91.1679 38.4468 92.2823 44.0502 92.2819 49.7089V49.7089ZM49.1919 2.87894C58.454 2.87894 67.5081 5.62547 75.2093 10.7712C82.9104 15.917 88.9127 23.2308 92.4572 31.7879C96.0016 40.3449 96.929 49.7609 95.1221 58.845C93.3151 67.9291 88.855 76.2735 82.3057 82.8227C75.7564 89.372 67.4121 93.8322 58.328 95.6391C49.2439 97.4461 39.8279 96.5187 31.2708 92.9742C22.7138 89.4298 15.3999 83.4274 10.2542 75.7263C5.10844 68.0251 2.36191 58.971 2.36191 49.7089C2.3631 37.2892 7.29734 25.3785 16.0794 16.5964C24.8615 7.81435 36.7722 2.8801 49.1919 2.87891V2.87894Z" fill="#0078D4"/>
<path d="M26.2165 59.0972C24.5998 55.0497 24.0649 50.651 24.6645 46.3341C25.2641 42.0171 26.9775 37.9306 29.636 34.477C28.5843 33.778 27.7539 32.7934 27.2424 31.6388C23.9884 35.7256 21.8989 40.6156 21.1946 45.7919C20.4904 50.9683 21.1976 56.2387 23.2416 61.0463C24.1164 60.2337 25.1222 59.5747 26.2165 59.0972V59.0972ZM39.1764 22.8165C40.0575 23.7106 40.7751 24.7522 41.2964 25.8941C43.9769 24.9448 46.7965 24.4479 49.64 24.4237C54.9545 24.3983 60.1396 26.0627 64.4463 29.1768C64.9034 28.2687 65.5437 27.4653 66.327 26.8173V26.8173L66.7374 26.5096C62.8262 23.6226 58.2491 21.7704 53.431 21.1248C48.6128 20.4792 43.7096 21.0611 39.1764 22.8165V22.8165ZM73.0634 40.3243C74.6806 44.3659 75.2157 48.7594 74.6161 53.071C74.0164 57.3827 72.3026 61.4634 69.6439 64.9103C70.1987 65.2914 70.6942 65.7523 71.1143 66.2781C71.4852 66.7257 71.7956 67.22 72.0376 67.7485C75.2916 63.6617 77.3811 58.7717 78.0853 53.5954C78.7896 48.419 78.0823 43.1485 76.0384 38.341C75.1649 39.1642 74.1593 39.8347 73.0634 40.3243V40.3243ZM57.9835 73.6301C55.2991 74.5487 52.477 74.9998 49.64 74.9636V74.9636C44.3251 74.9914 39.1393 73.3267 34.8336 70.2105C34.3854 71.1242 33.7436 71.9293 32.9529 72.57V72.57L32.5426 72.8777C36.4677 75.7763 41.0607 77.6375 45.8964 78.2891C50.732 78.9406 55.6539 78.3613 60.2062 76.605C59.2976 75.7504 58.5454 74.7436 57.9835 73.6301Z" fill="url(#paint1_linear)"/>
<path d="M36.5775 25.3126C37.891 26.6662 38.6161 28.4842 38.5948 30.3702C38.5735 32.2562 37.8075 34.0574 36.4638 35.381C35.1201 36.7047 33.3077 37.4435 31.4216 37.4364C29.5354 37.4294 27.7286 36.677 26.3948 35.3433C25.0611 34.0097 24.3086 32.2029 24.3014 30.3167C24.2942 28.4306 25.0329 26.6181 26.3565 25.2743C27.68 23.9306 29.4811 23.1645 31.3671 23.143C33.2532 23.1216 35.0712 23.8466 36.4249 25.16C36.4766 25.2101 36.5274 25.2609 36.5775 25.3126ZM63.9334 25.3126C64.9412 24.3347 66.2149 23.6754 67.5952 23.4171C68.9755 23.1587 70.4014 23.3128 71.6947 23.8599C72.988 24.4071 74.0914 25.3232 74.8672 26.4938C75.643 27.6643 76.0567 29.0375 76.0567 30.4418C76.0567 31.8461 75.643 33.2193 74.8672 34.3899C74.0914 35.5604 72.988 36.4765 71.6947 37.0237C70.4014 37.5709 68.9755 37.7249 67.5952 37.4665C66.2149 37.2082 64.9412 36.5489 63.9334 35.571C62.5991 34.2316 61.8499 32.4179 61.8499 30.5273C61.8499 28.6366 62.5991 26.823 63.9334 25.4836V25.3126ZM62.7024 74.0744C61.389 72.7207 60.664 70.9028 60.6853 69.0168C60.7067 67.1309 61.4727 65.3298 62.8164 64.0063C64.1601 62.6827 65.9725 61.944 67.8586 61.9511C69.7446 61.9582 71.5514 62.7106 72.8851 64.0443C74.2188 65.3779 74.9711 67.1847 74.9783 69.0708C74.9854 70.9568 74.2467 72.7693 72.9231 74.113C71.5995 75.4566 69.7985 76.2227 67.9125 76.244C66.0266 76.2654 64.2086 75.5404 62.855 74.227C62.8034 74.1769 62.7525 74.1261 62.7024 74.0744H62.7024ZM35.3465 74.0744C34.349 75.0758 33.0769 75.7589 31.6911 76.0373C30.3053 76.3158 28.8681 76.177 27.5611 75.6386C26.2542 75.1002 25.1363 74.1863 24.3487 73.0126C23.5611 71.8388 23.1393 70.4579 23.1366 69.0444C23.1339 67.6309 23.5504 66.2484 24.3334 65.0716C25.1164 63.8948 26.2308 62.9766 27.5356 62.4332C28.8405 61.8898 30.2772 61.7455 31.664 62.0185C33.0509 62.2916 34.3256 62.9698 35.327 63.9674L35.3465 63.9869C36.6809 65.3263 37.43 67.14 37.43 69.0306C37.43 70.9213 36.6809 72.7349 35.3465 74.0744H35.3465Z" fill="url(#paint2_linear)"/>
<path d="M33.9787 32.837C34.6363 32.2123 35.0187 31.3521 35.042 30.4455C35.0652 29.5389 34.7274 28.6602 34.1027 28.0027C34.0625 27.9603 34.0212 27.919 33.9787 27.8787C33.3401 27.2348 32.4718 26.8709 31.5649 26.8672C30.658 26.8635 29.7868 27.2202 29.1429 27.8588L29.1231 27.8787C28.4656 28.5033 28.0831 29.3635 28.0599 30.2701C28.0366 31.1767 28.3745 32.0554 28.9991 32.713C29.0393 32.7553 29.0807 32.7967 29.1231 32.837C29.4347 33.1603 29.807 33.419 30.2186 33.5985C30.6303 33.7779 31.0732 33.8746 31.5222 33.8828C31.9712 33.8911 32.4174 33.8108 32.8353 33.6467C33.2533 33.4825 33.6348 33.2376 33.9581 32.926C33.9884 32.8968 34.018 32.8672 34.0471 32.837" fill="white"/>
<path d="M71.4562 27.8779C70.9713 27.4172 70.362 27.1088 69.7036 26.991C69.0452 26.8732 68.3667 26.951 67.7521 27.2148C67.1375 27.4787 66.6138 27.917 66.2458 28.4755C65.8778 29.034 65.6816 29.6881 65.6816 30.357C65.6816 31.0258 65.8778 31.68 66.2458 32.2385C66.6138 32.797 67.1375 33.2353 67.7521 33.4991C68.3667 33.763 69.0452 33.8408 69.7036 33.723C70.362 33.6051 70.9713 33.2968 71.4562 32.8361C72.1138 32.2115 72.4962 31.3512 72.5195 30.4446C72.5427 29.538 72.2049 28.6593 71.5802 28.0018C71.54 27.9594 71.4987 27.9181 71.4562 27.8778" fill="white"/>
<path d="M27.8237 71.5099C28.3086 71.9706 28.918 72.2789 29.5763 72.3968C30.2347 72.5146 30.9132 72.4368 31.5278 72.173C32.1424 71.9091 32.6661 71.4708 33.0341 70.9123C33.4022 70.3538 33.5983 69.6996 33.5983 69.0308C33.5983 68.362 33.4022 67.7078 33.0341 67.1493C32.6661 66.5908 32.1424 66.1525 31.5278 65.8887C30.9132 65.6248 30.2347 65.547 29.5763 65.6648C28.918 65.7827 28.3086 66.091 27.8237 66.5517C27.1662 67.1763 26.7837 68.0365 26.7605 68.9431C26.7372 69.8498 27.0751 70.7285 27.6997 71.386C27.7399 71.4283 27.7813 71.4697 27.8237 71.51" fill="white"/>
<path d="M69.3656 69.0318C69.3656 69.3352 69.2756 69.6318 69.1071 69.8841C68.9385 70.1363 68.6989 70.3329 68.4186 70.4491C68.1383 70.5652 67.8299 70.5955 67.5323 70.5363C67.2347 70.4772 66.9614 70.3311 66.7469 70.1165C66.5323 69.902 66.3862 69.6287 66.3271 69.3311C66.2679 69.0335 66.2982 68.7251 66.4144 68.4448C66.5305 68.1645 66.7271 67.9249 66.9793 67.7563C67.2316 67.5878 67.5282 67.4978 67.8316 67.4978C68.2383 67.4983 68.6282 67.6601 68.9157 67.9477C69.2033 68.2352 69.3651 68.6251 69.3656 69.0318V69.0318ZM72.2006 68.2056L71.4873 68.047C71.4134 68.0201 71.3532 67.9652 71.3196 67.8942L71.3112 67.8712L71.1143 67.3929L71.103 67.3683C71.0763 67.295 71.0798 67.2141 71.1128 67.1433L71.5052 66.5267C71.5855 66.3932 71.6198 66.237 71.6028 66.0821C71.5858 65.9273 71.5185 65.7823 71.4112 65.6693L71.1942 65.4523C71.0802 65.3468 70.9353 65.2808 70.781 65.2638C70.6266 65.2469 70.4709 65.28 70.3368 65.3583L69.72 65.7505C69.6807 65.7702 69.637 65.7797 69.5931 65.7781C69.5596 65.7794 69.5261 65.7733 69.4951 65.7605L69.4704 65.7491L68.9923 65.5521L68.9693 65.5438C68.8982 65.5102 68.8433 65.4499 68.8165 65.376L68.658 64.6629C68.6203 64.5117 68.5341 64.377 68.4125 64.2795C68.291 64.182 68.1408 64.127 67.985 64.123H67.6782C67.5225 64.127 67.3723 64.1819 67.2508 64.2794C67.1292 64.3769 67.043 64.5115 67.0054 64.6627L66.8468 65.3763C66.8198 65.45 66.7649 65.5102 66.694 65.5438L66.6708 65.5521L66.1927 65.7491L66.168 65.7605C66.137 65.7734 66.1035 65.7794 66.07 65.7781C66.026 65.7796 65.9824 65.7701 65.943 65.7505L65.3265 65.3584C65.1923 65.2802 65.0366 65.2471 64.8823 65.2641C64.7279 65.281 64.5831 65.347 64.4691 65.4524L64.2521 65.6693C64.1447 65.7823 64.0774 65.9273 64.0604 66.0822C64.0435 66.2371 64.0778 66.3933 64.1581 66.5268L64.5505 67.1434C64.5833 67.2141 64.5868 67.2949 64.5603 67.3682L64.5488 67.3929L64.352 67.8712L64.3435 67.8942C64.3099 67.9653 64.2497 68.0202 64.1759 68.0472L63.4627 68.2055C63.3115 68.2431 63.1768 68.3294 63.0793 68.4509C62.9818 68.5725 62.9268 68.7227 62.9229 68.8785V69.1853C62.9268 69.341 62.9818 69.4912 63.0792 69.6127C63.1767 69.7342 63.3114 69.8204 63.4626 69.8581L64.176 70.0166C64.2498 70.0435 64.31 70.0985 64.3435 70.1695L64.352 70.1925L64.5488 70.6708L64.5603 70.6954C64.5868 70.7687 64.5832 70.8496 64.5503 70.9203L64.158 71.5369C64.0777 71.6704 64.0434 71.8266 64.0604 71.9815C64.0773 72.1364 64.1447 72.2814 64.252 72.3944L64.4691 72.6114C64.5832 72.7168 64.728 72.7828 64.8824 72.7997C65.0367 72.8167 65.1924 72.7836 65.3266 72.7054L65.9428 72.3132C65.9822 72.2936 66.026 72.2841 66.07 72.2856C66.1035 72.2842 66.137 72.2903 66.168 72.3032L66.1927 72.3146L66.6708 72.5116L66.694 72.5199C66.7649 72.5536 66.8198 72.6138 66.8468 72.6875L67.0054 73.4008C67.043 73.5521 67.1292 73.6868 67.2507 73.7843C67.3723 73.8818 67.5224 73.9367 67.6782 73.9407H67.985C68.1408 73.9367 68.2909 73.8817 68.4125 73.7842C68.534 73.6867 68.6202 73.552 68.6578 73.4008L68.8164 72.6875C68.8434 72.6137 68.8982 72.5535 68.9692 72.5199L68.9922 72.5116L69.4704 72.3146L69.4951 72.3032C69.526 72.2903 69.5594 72.2843 69.5929 72.2856C69.6369 72.284 69.6806 72.2935 69.7199 72.3132L70.3366 72.7053C70.4707 72.7835 70.6265 72.8167 70.7808 72.7998C70.9352 72.7829 71.0801 72.7168 71.1941 72.6114L71.411 72.3945C71.5184 72.2815 71.5857 72.1365 71.6027 71.9816C71.6198 71.8266 71.5855 71.6704 71.5052 71.5368L71.1128 70.9203C71.0965 70.8853 71.0872 70.8474 71.0855 70.8089C71.0839 70.7703 71.0898 70.7317 71.103 70.6954L71.1143 70.6709L71.3112 70.1924L71.3196 70.1694C71.3533 70.0984 71.4135 70.0434 71.4874 70.0165L72.2004 69.858C72.3517 69.8205 72.4864 69.7343 72.5839 69.6127C72.6815 69.4912 72.7365 69.341 72.7404 69.1852V68.8784C72.7365 68.7226 72.6816 68.5725 72.584 68.4509C72.4865 68.3294 72.3518 68.2432 72.2006 68.2056H72.2006Z" fill="url(#paint3_linear)"/>
<path opacity="0.2" d="M63.4084 48.9127C63.3126 48.0679 62.8992 47.2911 62.2521 46.7397C62.6342 45.7777 62.6968 44.7182 62.4306 43.7178C62.1644 42.7175 61.5836 41.8292 60.774 41.1842C59.9643 40.5392 58.9687 40.1717 57.9341 40.1359C56.8995 40.1001 55.8809 40.398 55.0286 40.9855C54.3857 40.029 53.4661 39.2915 52.3928 38.8716C51.3195 38.4516 50.1436 38.3693 49.0223 38.6356C47.9009 38.9018 46.8876 39.504 46.1176 40.3616C45.3477 41.2192 44.8578 42.2913 44.7135 43.4348H39.1059C38.1737 43.4359 37.2801 43.8067 36.621 44.4659C35.9619 45.1251 35.5912 46.0188 35.5903 46.951V56.1963C35.5912 57.1285 35.9619 58.0222 36.621 58.6814C37.2801 59.3405 38.1737 59.7114 39.1059 59.7125H42.6445C43.0186 60.7468 43.616 61.686 44.3942 62.4633C45.8069 63.8683 47.7167 64.6596 49.7091 64.6654H50.1298C51.1175 64.668 52.096 64.4747 53.0085 64.0966C53.921 63.7185 54.7494 63.1631 55.4458 62.4627C56.0117 61.895 56.4805 61.2383 56.8336 60.5187C57.0042 60.5314 57.1759 60.5377 57.3488 60.5377C60.6984 60.5377 63.4233 58.1304 63.4233 55.1716V49.0441L63.4084 48.9127Z" fill="#003067"/>
<path d="M63.4084 47.2624C63.3126 46.4176 62.8992 45.6408 62.2521 45.0894C62.6342 44.1273 62.6968 43.0678 62.4306 42.0674C62.1645 41.0671 61.5837 40.1788 60.774 39.5338C59.9643 38.8888 58.9687 38.5213 57.9341 38.4855C56.8995 38.4497 55.8809 38.7476 55.0286 39.3351C54.3857 38.3786 53.4661 37.6411 52.3928 37.2212C51.3195 36.8013 50.1436 36.7189 49.0223 36.9852C47.9009 37.2514 46.8876 37.8536 46.1176 38.7112C45.3477 39.5688 44.8578 40.6409 44.7135 41.7844H39.1059C38.1737 41.7855 37.2801 42.1563 36.621 42.8155C35.9619 43.4747 35.5912 44.3684 35.5903 45.3005V54.546C35.5912 55.4781 35.9619 56.3718 36.621 57.031C37.2801 57.6902 38.1737 58.061 39.1059 58.0621H42.6445C43.0186 59.0964 43.616 60.0356 44.3942 60.8129C45.8069 62.218 47.7167 63.0093 49.7091 63.0151H50.1298C51.1175 63.0177 52.096 62.8243 53.0085 62.4462C53.921 62.0681 54.7494 61.5128 55.4458 60.8123C56.0117 60.2446 56.4805 59.5879 56.8336 58.8683C57.0042 58.881 57.1759 58.8873 57.3488 58.8873C60.6984 58.8873 63.4233 56.48 63.4233 53.5212V47.3938L63.4084 47.2624Z" fill="white"/>
<path d="M59.9488 46.6237L54.3457 46.6208L53.6341 47.5254V53.5204C53.6341 55.1804 55.2972 56.5262 57.3486 56.5262C59.4 56.5262 61.0632 55.1804 61.0632 53.5204V47.5254C61.0321 47.2593 60.8981 47.0159 60.6898 46.8474C60.4815 46.6788 60.2155 46.5985 59.9488 46.6237V46.6237Z" fill="#5059C9"/>
<path d="M57.7614 45.7965C58.2511 45.7965 58.7299 45.6512 59.1371 45.3791C59.5444 45.107 59.8618 44.7202 60.0492 44.2677C60.2366 43.8152 60.2857 43.3173 60.1901 42.837C60.0946 42.3566 59.8587 41.9154 59.5124 41.569C59.1661 41.2227 58.7248 40.9869 58.2444 40.8913C57.7641 40.7958 57.2662 40.8448 56.8137 41.0323C56.3612 41.2197 55.9744 41.5371 55.7023 41.9443C55.4302 42.3516 55.285 42.8304 55.285 43.3201C55.285 43.6453 55.3491 43.9674 55.4735 44.2678C55.598 44.5682 55.7804 44.8412 56.0103 45.0712C56.2403 45.3011 56.5133 45.4835 56.8137 45.608C57.1142 45.7324 57.4362 45.7965 57.7614 45.7965V45.7965Z" fill="#5059C9"/>
<path d="M44.5542 55.4988V47.5604C44.5542 47.4371 44.5785 47.3149 44.6257 47.201C44.6729 47.087 44.7421 46.9834 44.8293 46.8962C44.9166 46.809 45.0201 46.7398 45.1341 46.6926C45.2481 46.6454 45.3702 46.6211 45.4936 46.6211H54.3457C54.5948 46.6211 54.8337 46.72 55.0099 46.8962C55.1861 47.0723 55.285 47.3112 55.285 47.5604V55.4988C55.285 56.8659 54.7419 58.1771 53.7752 59.1438C52.8084 60.1106 51.4973 60.6537 50.1301 60.6537H49.7091C48.342 60.6537 47.0308 60.1106 46.0641 59.1438C45.0973 58.1771 44.5542 56.8659 44.5542 55.4988H44.5542Z" fill="#7B83EB"/>
<path d="M50.3323 45.795C50.9854 45.795 51.6237 45.6014 52.1667 45.2386C52.7097 44.8758 53.1329 44.3601 53.3828 43.7568C53.6327 43.1534 53.6981 42.4896 53.5707 41.8491C53.4433 41.2086 53.1288 40.6203 52.6671 40.1585C52.2053 39.6967 51.617 39.3823 50.9765 39.2549C50.336 39.1275 49.6721 39.1928 49.0688 39.4427C48.4655 39.6926 47.9498 40.1158 47.587 40.6588C47.2242 41.2018 47.0305 41.8402 47.0305 42.4932C47.0306 43.3689 47.3784 44.2087 47.9976 44.8279C48.6168 45.4471 49.4566 45.795 50.3323 45.795Z" fill="#7B83EB"/>
<path opacity="0.5" d="M44.6573 56.5265H48.0398C49.3058 56.5265 50.3323 56.0258 50.3323 54.7486V46.6211H45.5066C44.9806 46.6211 44.5542 48.6984 44.5542 49.2244V55.4987C44.5542 55.8439 44.5887 56.1882 44.6573 56.5265V56.5265Z" fill="black"/>
<path opacity="0.5" d="M50.2765 45.7905C50.2048 45.5544 50.0593 45.3474 49.8615 45.1999C49.6636 45.0523 49.4237 44.972 49.1769 44.9707H48.1693C48.7521 45.4856 49.4991 45.7762 50.2765 45.7905V45.7905Z" fill="black"/>
<path d="M48.3513 44.1445H39.1063C38.7998 44.1445 38.5058 44.2663 38.2891 44.483C38.0724 44.6997 37.9506 44.9936 37.9506 45.3001V54.5451C37.9506 54.6969 37.9805 54.8472 38.0386 54.9874C38.0967 55.1276 38.1818 55.255 38.2891 55.3623C38.3964 55.4696 38.5238 55.5547 38.664 55.6128C38.8042 55.6709 38.9545 55.7008 39.1062 55.7008H48.3512C48.6577 55.7008 48.9517 55.579 49.1684 55.3623C49.3851 55.1456 49.5069 54.8516 49.5069 54.5451V45.3001C49.5069 44.9936 49.3851 44.6997 49.1684 44.483C48.9517 44.2663 48.6577 44.1445 48.3513 44.1445V44.1445Z" fill="#4B53BC"/>
<path d="M47.4349 47.5731H44.8669V53.9932H43.5829V47.5731H41.0148V46.2891H47.4349V47.5731Z" fill="white"/>
</g>
<defs>
<linearGradient id="paint0_linear" x1="47.422" y1="-15.0827" x2="51.4048" y2="130.685" gradientUnits="userSpaceOnUse">
<stop stop-color="#00ABDE"/>
<stop offset="1" stop-color="#007ED8"/>
</linearGradient>
<linearGradient id="paint1_linear" x1="49.64" y1="78.5489" x2="49.64" y2="20.7655" gradientUnits="userSpaceOnUse">
<stop stop-color="#003067"/>
<stop offset="0.2" stop-color="#003F7C"/>
<stop offset="0.47" stop-color="#004F90"/>
<stop offset="0.74" stop-color="#00589D"/>
<stop offset="1" stop-color="#005BA1"/>
</linearGradient>
<linearGradient id="paint2_linear" x1="49.5966" y1="76.2445" x2="49.5966" y2="23.1425" gradientUnits="userSpaceOnUse">
<stop stop-color="#004DAE"/>
<stop offset="0.21" stop-color="#0061C4"/>
<stop offset="0.51" stop-color="#0078DD"/>
<stop offset="0.78" stop-color="#0086EC"/>
<stop offset="1" stop-color="#008BF1"/>
</linearGradient>
<linearGradient id="paint3_linear" x1="67.8316" y1="73.5882" x2="67.8316" y2="64.3369" gradientUnits="userSpaceOnUse">
<stop stop-color="white"/>
<stop offset="0.56" stop-color="#FBFBFB"/>
<stop offset="1" stop-color="#F2F2F2"/>
</linearGradient>
<clipPath id="clip0">
<rect width="99.2799" height="99.28" fill="white" transform="translate(0 0.0703125)"/>
</clipPath>
</defs>
</svg>
