<svg width="100" height="100" viewBox="0 0 100 100" fill="none" xmlns="http://www.w3.org/2000/svg">
<g clip-path="url(#clip0)">
<path d="M49.6401 96.4499C40.382 96.4499 31.3317 93.7045 23.6339 88.561C15.936 83.4174 9.93624 76.1067 6.3933 67.5533C2.85036 58.9999 1.92337 49.588 3.72954 40.5077C5.53571 31.4275 9.99394 23.0867 16.5404 16.5402C23.0869 9.99372 31.4277 5.5355 40.5079 3.72933C49.5882 1.92315 59.0001 2.85015 67.5535 6.39308C76.1069 9.93602 83.4176 15.9358 88.5612 23.6336C93.7047 31.3315 96.4501 40.3817 96.4501 49.6399C96.4505 55.7872 95.24 61.8744 92.8878 67.5538C90.5355 73.2332 87.0875 78.3937 82.7407 82.7405C78.3939 87.0873 73.2335 90.5353 67.554 92.8876C61.8746 95.2398 55.7874 96.4503 49.6401 96.4499V96.4499Z" fill="url(#paint0_linear)"/>
<path fill-rule="evenodd" clip-rule="evenodd" d="M95.54 49.6399C95.54 58.718 92.848 67.5923 87.8045 75.1406C82.7609 82.6888 75.5923 88.5719 67.2052 92.046C58.818 95.52 49.5891 96.429 40.6854 94.6579C31.7816 92.8869 23.603 88.5153 17.1838 82.0961C10.7646 75.6769 6.39302 67.4983 4.62196 58.5945C2.85089 49.6908 3.75987 40.4618 7.23393 32.0747C10.708 23.6876 16.5911 16.519 24.1393 11.4754C31.6875 6.43187 40.5618 3.73988 49.64 3.73988C55.6677 3.73986 61.6363 4.92708 67.2052 7.23377C72.774 9.54045 77.834 12.9214 82.0963 17.1836C86.3585 21.4458 89.7394 26.5058 92.0461 32.0747C94.3528 37.6435 95.54 43.6122 95.54 49.6399V49.6399ZM49.64 -0.000106449C59.4579 -0.000106449 69.0552 2.91123 77.2185 8.36574C85.3818 13.8203 91.7442 21.573 95.5014 30.6435C99.2585 39.714 100.242 49.695 98.3262 59.3242C96.4108 68.9534 91.6831 77.7984 84.7408 84.7407C77.7985 91.683 68.9535 96.4107 59.3243 98.3261C49.6951 100.241 39.7141 99.2584 30.6436 95.5013C21.5731 91.7441 13.8204 85.3816 8.36584 77.2184C2.91133 69.0551 -1.61629e-06 59.4577 3.61524e-07 49.6399C-0.000786426 43.1208 1.28265 36.6655 3.77702 30.6425C6.27138 24.6196 9.92781 19.147 14.5375 14.5374C19.1471 9.9277 24.6197 6.27127 30.6427 3.77691C36.6656 1.28254 43.121 -0.000894549 49.64 -0.000106449V-0.000106449Z" fill="#F2F1F0"/>
<path fill-rule="evenodd" clip-rule="evenodd" d="M92.7296 49.64C92.7296 58.1624 90.2024 66.4934 85.4676 73.5795C80.7328 80.6656 74.0031 86.1886 66.1294 89.45C58.2557 92.7113 49.5918 93.5647 41.2331 91.902C32.8745 90.2394 25.1966 86.1355 19.1703 80.1092C13.1441 74.083 9.04017 66.4051 7.37753 58.0464C5.7149 49.6878 6.56822 41.0238 9.8296 33.1502C13.091 25.2765 18.6139 18.5468 25.7 13.812C32.7862 9.07718 41.1172 6.55 49.6396 6.55C55.2983 6.54965 60.9017 7.66397 66.1298 9.82933C71.3579 11.9947 76.1082 15.1687 80.1096 19.17C84.1109 23.1713 87.2849 27.9217 89.4502 33.1498C91.6156 38.3778 92.7299 43.9812 92.7296 49.64ZM49.6396 2.81C58.9017 2.81 67.9558 5.55653 75.6569 10.7023C83.3581 15.848 89.3604 23.1619 92.9049 31.7189C96.4493 40.276 97.3767 49.6919 95.5697 58.7761C93.7628 67.8602 89.3027 76.2045 82.7534 82.7538C76.2041 89.3031 67.8598 93.7632 58.7757 95.5702C49.6915 97.3771 40.2756 96.4497 31.7185 92.9053C23.1614 89.3608 15.8476 83.3585 10.7018 75.6574C5.5561 67.9562 2.80957 58.9021 2.80957 49.64C2.81076 37.2203 7.74501 25.3096 16.5271 16.5275C25.3091 7.74544 37.2198 2.81119 49.6396 2.81V2.81Z" fill="#0078D4"/>
<path fill-rule="evenodd" clip-rule="evenodd" d="M92.7296 49.6399C92.7296 58.1623 90.2024 66.4933 85.4676 73.5794C80.7328 80.6655 74.0031 86.1885 66.1294 89.4499C58.2557 92.7112 49.5918 93.5646 41.2331 91.9019C32.8745 90.2393 25.1966 86.1354 19.1703 80.1091C13.1441 74.0829 9.04017 66.405 7.37753 58.0463C5.7149 49.6877 6.56822 41.0237 9.8296 33.1501C13.091 25.2764 18.6139 18.5467 25.7001 13.8119C32.7862 9.07708 41.1172 6.5499 49.6396 6.5499C55.2983 6.54956 60.9017 7.66388 66.1298 9.82923C71.3579 11.9946 76.1082 15.1686 80.1096 19.1699C84.1109 23.1712 87.2849 27.9216 89.4502 33.1497C91.6156 38.3777 92.7299 43.9811 92.7296 49.6399V49.6399ZM49.6396 2.8099C58.9017 2.8099 67.9558 5.55643 75.6569 10.7022C83.3581 15.8479 89.3604 23.1618 92.9048 31.7188C96.4493 40.2759 97.3767 49.6918 95.5697 58.776C93.7628 67.8601 89.3027 76.2044 82.7534 82.7537C76.2041 89.303 67.8598 93.7631 58.7757 95.5701C49.6915 97.377 40.2756 96.4496 31.7185 92.9052C23.1614 89.3607 15.8476 83.3584 10.7018 75.6573C5.5561 67.9561 2.80957 58.902 2.80957 49.6399C2.81075 37.2202 7.74499 25.3095 16.5271 16.5274C25.3091 7.7453 37.2198 2.81105 49.6396 2.80986V2.8099Z" fill="#0078D4"/>
<path d="M25.4034 30.3949C24.2358 30.3983 23.1169 30.8637 22.2913 31.6893C21.4656 32.515 21.0002 33.6338 20.9968 34.8014V65.6474H78.2821V34.8014C78.2787 33.6338 77.8133 32.515 76.9877 31.6893C76.162 30.8637 75.0432 30.3983 73.8755 30.3949H25.4034ZM73.8755 32.5982C74.4596 32.5989 75.0196 32.8313 75.4326 33.2443C75.8456 33.6574 76.078 34.2173 76.0788 34.8014V63.4441H23.2001V34.8014C23.2007 34.2173 23.433 33.6572 23.8461 33.2441C24.2592 32.8311 24.8192 32.5987 25.4034 32.5982H73.8755Z" fill="url(#paint1_linear)"/>
<path d="M23.2002 34.8013C23.2008 34.2172 23.4331 33.6571 23.8462 33.244C24.2593 32.831 24.8193 32.5986 25.4035 32.5981H73.8756C74.4597 32.5988 75.0197 32.8312 75.4327 33.2442C75.8457 33.6573 76.0781 34.2172 76.0789 34.8013V63.444H23.2002V34.8013Z" fill="url(#paint2_linear)"/>
<path d="M14.387 65.6473V66.7489C14.3904 67.9165 14.8557 69.0354 15.6814 69.861C16.507 70.6867 17.6259 71.152 18.7935 71.1555H80.4853C81.653 71.152 82.7718 70.6867 83.5975 69.861C84.4231 69.0354 84.8885 67.9165 84.8919 66.7489V65.6473H14.387Z" fill="url(#paint3_linear)"/>
<path fill-rule="evenodd" clip-rule="evenodd" d="M45.2328 67.8505H54.0459C54.6302 67.8503 55.1905 67.6181 55.6036 67.205C56.0168 66.7918 56.249 66.2315 56.2492 65.6473H43.0295C43.0296 66.2316 43.2617 66.792 43.6749 67.2052C44.0881 67.6184 44.6485 67.8505 45.2328 67.8505V67.8505Z" fill="#003067"/>
<path opacity="0.2" d="M78.3318 65.6472V40.2431H67.4458C66.5872 40.2442 65.7641 40.5858 65.1571 41.193C64.55 41.8001 64.2085 42.6232 64.2075 43.4818V64.4086C64.2077 64.8338 64.2921 65.2548 64.4561 65.6472H78.3318Z" fill="#003067"/>
<path d="M79.4746 42.2433H67.4459C66.7618 42.2433 66.2073 42.7978 66.2073 43.4819V64.4086C66.2073 65.0927 66.7618 65.6473 67.4459 65.6473H79.4746C80.1587 65.6473 80.7133 65.0927 80.7133 64.4086V43.4819C80.7133 42.7978 80.1587 42.2433 79.4746 42.2433Z" fill="#003067"/>
<path d="M79.9976 43.4822V64.4086C79.9976 64.5474 79.9424 64.6804 79.8443 64.7785C79.7462 64.8767 79.6132 64.9318 79.4744 64.9318H67.4456C67.3069 64.9318 67.1739 64.8767 67.0759 64.7786C66.9779 64.6806 66.9228 64.5476 66.9228 64.409V43.4815C66.9228 43.3429 66.9779 43.2099 67.0759 43.1119C67.1739 43.0138 67.3069 42.9588 67.4456 42.9588H79.4741C79.6129 42.9588 79.7461 43.0139 79.8442 43.1121C79.9424 43.2103 79.9976 43.3434 79.9976 43.4822V43.4822Z" fill="url(#paint4_linear)"/>
<path d="M74.9826 53.9453C74.9826 54.2463 74.8933 54.5407 74.726 54.791C74.5587 55.0413 74.321 55.2365 74.0428 55.3517C73.7646 55.4669 73.4586 55.497 73.1633 55.4383C72.868 55.3795 72.5967 55.2345 72.3838 55.0216C72.1709 54.8087 72.0259 54.5375 71.9672 54.2422C71.9085 53.9469 71.9386 53.6408 72.0538 53.3626C72.1691 53.0845 72.3642 52.8467 72.6145 52.6795C72.8649 52.5122 73.1592 52.4229 73.4603 52.4229C73.8639 52.4234 74.2508 52.5839 74.5362 52.8693C74.8216 53.1547 74.9821 53.5417 74.9826 53.9453V53.9453ZM77.796 53.1253L77.0881 52.9679C77.0149 52.9412 76.9551 52.8868 76.9217 52.8163L76.9134 52.7934L76.718 52.3188L76.7068 52.2944C76.6803 52.2216 76.6838 52.1413 76.7165 52.0711L77.1059 51.4591C77.1856 51.3266 77.2196 51.1716 77.2027 51.018C77.1859 50.8643 77.1191 50.7204 77.0126 50.6083L76.7972 50.3929C76.6841 50.2882 76.5404 50.2227 76.3872 50.2059C76.234 50.1891 76.0795 50.2219 75.9464 50.2995L75.3342 50.6888C75.2952 50.7083 75.252 50.7178 75.2084 50.7162C75.1751 50.7174 75.1419 50.7115 75.1111 50.6987L75.0866 50.6874L74.6121 50.492L74.5892 50.4838C74.5187 50.4503 74.4643 50.3905 74.4376 50.3172L74.2803 49.6095C74.243 49.4594 74.1574 49.3258 74.0368 49.229C73.9161 49.1323 73.7671 49.0777 73.6125 49.0738H73.308C73.1534 49.0777 73.0044 49.1322 72.8838 49.2289C72.7632 49.3257 72.6777 49.4593 72.6403 49.6093L72.4829 50.3175C72.4561 50.3907 72.4017 50.4503 72.3313 50.4838L72.3083 50.492L71.8338 50.6874L71.8093 50.6987C71.7785 50.7115 71.7453 50.7175 71.712 50.7162C71.6684 50.7176 71.6251 50.7082 71.586 50.6888L70.9742 50.2997C70.8411 50.2221 70.6866 50.1893 70.5334 50.2061C70.3802 50.2229 70.2365 50.2884 70.1234 50.393L69.908 50.6083C69.8014 50.7204 69.7346 50.8643 69.7178 51.018C69.7009 51.1718 69.7349 51.3268 69.8146 51.4593L70.204 52.0711C70.2366 52.1413 70.2401 52.2215 70.2138 52.2943L70.2024 52.3188L70.0071 52.7934L69.9987 52.8163C69.9654 52.8868 69.9056 52.9413 69.8323 52.968L69.1246 53.1252C68.9745 53.1625 68.8408 53.2481 68.7441 53.3687C68.6473 53.4894 68.5928 53.6384 68.5889 53.793V54.0975C68.5928 54.252 68.6473 54.401 68.744 54.5216C68.8408 54.6422 68.9744 54.7278 69.1244 54.7651L69.8324 54.9224C69.9056 54.9492 69.9653 55.0037 69.9987 55.0742L70.007 55.097L70.2023 55.5717L70.2138 55.596C70.2401 55.6689 70.2366 55.7492 70.2039 55.8194L69.8146 56.4312C69.7349 56.5637 69.7008 56.7187 69.7177 56.8724C69.7345 57.0261 69.8014 57.1701 69.9079 57.2822L70.1233 57.4976C70.2365 57.6022 70.3803 57.6677 70.5335 57.6845C70.6866 57.7013 70.8412 57.6685 70.9743 57.5909L71.5859 57.2016C71.625 57.1822 71.6684 57.1727 71.7121 57.1742C71.7454 57.1729 71.7786 57.1789 71.8093 57.1917L71.8338 57.203L72.3083 57.3985L72.3313 57.4067C72.4017 57.4401 72.4562 57.4999 72.483 57.5731L72.6404 58.281C72.6777 58.431 72.7632 58.5647 72.8838 58.6615C73.0044 58.7583 73.1535 58.8128 73.3081 58.8167H73.6125C73.7671 58.8127 73.9161 58.7582 74.0367 58.6614C74.1573 58.5647 74.2429 58.431 74.2802 58.281L74.4376 57.5731C74.4643 57.4999 74.5188 57.4401 74.5892 57.4067L74.6121 57.3985L75.0866 57.203L75.1111 57.1917C75.1418 57.1789 75.175 57.173 75.2082 57.1742C75.2519 57.1727 75.2952 57.1821 75.3342 57.2016L75.9462 57.5907C76.0793 57.6684 76.2339 57.7013 76.3871 57.6845C76.5403 57.6677 76.6841 57.6022 76.7972 57.4976L77.0125 57.2823C77.119 57.1702 77.1859 57.0263 77.2027 56.8725C77.2196 56.7188 77.1856 56.5638 77.106 56.4312L76.7165 55.8194C76.7003 55.7846 76.6911 55.7471 76.6895 55.7088C76.6878 55.6705 76.6937 55.6322 76.7068 55.5962L76.718 55.5719L76.9133 55.0971L76.9217 55.0742C76.9551 55.0037 77.0149 54.9492 77.0882 54.9225L77.7958 54.7652C77.9459 54.7279 78.0796 54.6424 78.1764 54.5218C78.2732 54.4012 78.3277 54.2521 78.3317 54.0975V53.7931C78.3278 53.6385 78.2733 53.4894 78.1765 53.3688C78.0798 53.2482 77.9461 53.1627 77.796 53.1253H77.796Z" fill="white"/>
<path opacity="0.2" d="M62.7161 30.8769C62.6203 30.0321 62.207 29.2553 61.5598 28.7039C61.9419 27.7418 62.0045 26.6824 61.7383 25.682C61.4722 24.6816 60.8914 23.7933 60.0817 23.1483C59.272 22.5034 58.2764 22.1358 57.2418 22.1001C56.2073 22.0643 55.1886 22.3621 54.3363 22.9496C53.6934 21.9931 52.7738 21.2556 51.7005 20.8357C50.6272 20.4158 49.4513 20.3335 48.33 20.5997C47.2087 20.866 46.1953 21.4681 45.4253 22.3257C44.6554 23.1833 44.1655 24.2555 44.0212 25.3989H38.4136C37.4814 25.4 36.5878 25.7708 35.9287 26.43C35.2696 27.0892 34.8989 27.9829 34.8979 28.9151V38.1605C34.8989 39.0926 35.2696 39.9864 35.9287 40.6455C36.5877 41.3047 37.4814 41.6756 38.4135 41.6767H41.9522C42.3263 42.711 42.9237 43.6501 43.7019 44.4275C45.1146 45.8325 47.0243 46.6238 49.0168 46.6296H49.4375C50.4252 46.6322 51.4037 46.4388 52.3161 46.0607C53.2286 45.6826 54.0571 45.1273 54.7535 44.4269C55.3193 43.8592 55.7882 43.2024 56.1413 42.4829C56.3119 42.4956 56.4836 42.5019 56.6565 42.5019C60.0061 42.5019 62.731 40.0946 62.731 37.1357V31.0083L62.7161 30.8769Z" fill="#003067"/>
<path d="M62.7161 29.227C62.6203 28.3822 62.207 27.6054 61.5598 27.054C61.9419 26.0919 62.0045 25.0325 61.7383 24.0321C61.4722 23.0317 60.8914 22.1434 60.0817 21.4985C59.272 20.8535 58.2764 20.4859 57.2418 20.4502C56.2073 20.4144 55.1886 20.7122 54.3363 21.2997C53.6934 20.3432 52.7738 19.6057 51.7005 19.1858C50.6272 18.7659 49.4513 18.6836 48.33 18.9498C47.2087 19.2161 46.1953 19.8183 45.4254 20.6759C44.6554 21.5334 44.1655 22.6056 44.0212 23.7491H38.4136C37.4814 23.7501 36.5878 24.121 35.9287 24.7801C35.2696 25.4393 34.8989 26.3331 34.8979 27.2652V36.5106C34.8989 37.4428 35.2696 38.3365 35.9286 38.9957C36.5877 39.6549 37.4814 40.0257 38.4135 40.0268H41.9522C42.3263 41.0611 42.9237 42.0003 43.7019 42.7776C45.1146 44.1827 47.0243 44.974 49.0168 44.9797H49.4375C50.4252 44.9823 51.4037 44.789 52.3161 44.4109C53.2286 44.0328 54.0571 43.4775 54.7535 42.777C55.3193 42.2093 55.7882 41.5526 56.1413 40.8331C56.3119 40.8458 56.4836 40.8521 56.6565 40.8521C60.0061 40.8521 62.731 38.4448 62.731 35.4859V29.3584L62.7161 29.227Z" fill="white"/>
<path d="M59.2566 28.5891L53.6535 28.5862L52.9419 29.4908V35.4858C52.9419 37.1459 54.605 38.4916 56.6564 38.4916C58.7078 38.4916 60.3709 37.1459 60.3709 35.4858V29.4908C60.3399 29.2247 60.2058 28.9813 59.9976 28.8128C59.7893 28.6442 59.5233 28.564 59.2566 28.5891V28.5891Z" fill="#5059C9"/>
<path d="M57.0691 27.7608C57.5589 27.7608 58.0377 27.6155 58.4449 27.3434C58.8521 27.0713 59.1695 26.6846 59.357 26.2321C59.5444 25.7796 59.5934 25.2817 59.4979 24.8013C59.4023 24.3209 59.1665 23.8797 58.8202 23.5334C58.4738 23.187 58.0326 22.9512 57.5522 22.8556C57.0719 22.7601 56.574 22.8091 56.1215 22.9966C55.669 23.184 55.2822 23.5014 55.0101 23.9086C54.738 24.3159 54.5928 24.7946 54.5928 25.2844C54.5928 25.6096 54.6568 25.9316 54.7813 26.2321C54.9057 26.5325 55.0881 26.8055 55.3181 27.0355C55.548 27.2654 55.821 27.4478 56.1215 27.5723C56.4219 27.6967 56.7439 27.7608 57.0691 27.7608V27.7608Z" fill="#5059C9"/>
<path d="M43.8621 37.464V29.5256C43.8621 29.4023 43.8864 29.2801 43.9336 29.1662C43.9808 29.0522 44.05 28.9486 44.1372 28.8614C44.2244 28.7742 44.328 28.705 44.4419 28.6578C44.5559 28.6106 44.6781 28.5863 44.8014 28.5863H53.6535C53.9026 28.5863 54.1416 28.6852 54.3177 28.8614C54.4939 29.0375 54.5929 29.2764 54.5929 29.5256V37.464C54.5929 38.8312 54.0497 40.1423 53.083 41.109C52.1163 42.0758 50.8051 42.6189 49.438 42.6189H49.017C47.6498 42.6189 46.3386 42.0758 45.3719 41.109C44.4052 40.1423 43.8621 38.8311 43.8621 37.464V37.464Z" fill="#7B83EB"/>
<path d="M49.6402 27.7608C50.2932 27.7608 50.9316 27.5671 51.4745 27.2043C52.0175 26.8415 52.4407 26.3258 52.6906 25.7225C52.9405 25.1192 53.0059 24.4553 52.8785 23.8148C52.7511 23.1743 52.4366 22.586 51.9749 22.1242C51.5131 21.6625 50.9248 21.348 50.2843 21.2206C49.6438 21.0932 48.9799 21.1586 48.3766 21.4085C47.7733 21.6584 47.2576 22.0816 46.8948 22.6246C46.532 23.1676 46.3384 23.806 46.3384 24.459C46.3384 25.3347 46.6863 26.1745 47.3055 26.7937C47.9247 27.4129 48.7645 27.7608 49.6402 27.7608V27.7608Z" fill="#7B83EB"/>
<path opacity="0.5" d="M43.9652 38.4916H47.3477C48.6137 38.4916 49.6402 37.9909 49.6402 36.7137V28.5862H44.8145C44.2885 28.5862 43.8621 30.6635 43.8621 31.1895V37.4638C43.862 37.809 43.8966 38.1533 43.9652 38.4916V38.4916Z" fill="black"/>
<path opacity="0.5" d="M49.5843 27.7551C49.5125 27.519 49.367 27.312 49.1692 27.1645C48.9713 27.017 48.7314 26.9367 48.4846 26.9353H47.4771C48.0598 27.4502 48.8068 27.7408 49.5843 27.7551Z" fill="black"/>
<path d="M47.6589 26.1099H38.4139C38.2622 26.1099 38.1119 26.1398 37.9717 26.1978C37.8315 26.2559 37.7041 26.341 37.5968 26.4483C37.4895 26.5556 37.4043 26.683 37.3463 26.8233C37.2882 26.9635 37.2583 27.1137 37.2583 27.2655V36.5105C37.2583 36.6623 37.2882 36.8125 37.3463 36.9527C37.4043 37.0929 37.4895 37.2203 37.5968 37.3277C37.7041 37.435 37.8315 37.5201 37.9717 37.5782C38.1119 37.6362 38.2622 37.6661 38.4139 37.6661H47.6589C47.9654 37.6661 48.2594 37.5444 48.4761 37.3277C48.6928 37.1109 48.8145 36.817 48.8145 36.5105V27.2655C48.8145 27.1137 48.7847 26.9635 48.7266 26.8233C48.6685 26.6831 48.5834 26.5557 48.4761 26.4483C48.3688 26.341 48.2414 26.2559 48.1012 26.1978C47.961 26.1398 47.8107 26.1099 47.6589 26.1099Z" fill="#4B53BC"/>
<path d="M46.7426 29.5388H44.1746V35.959H42.8906V29.5388H40.3225V28.2548H46.7426V29.5388Z" fill="white"/>
</g>
<defs>
<linearGradient id="paint0_linear" x1="47.8698" y1="-15.1532" x2="51.8525" y2="130.615" gradientUnits="userSpaceOnUse">
<stop stop-color="#00ABDE"/>
<stop offset="1" stop-color="#007ED8"/>
</linearGradient>
<linearGradient id="paint1_linear" x1="49.6394" y1="65.6474" x2="49.6394" y2="30.3317" gradientUnits="userSpaceOnUse">
<stop stop-color="#003067"/>
<stop offset="0.16493" stop-color="#003F7C"/>
<stop offset="0.36216" stop-color="#004F90"/>
<stop offset="0.68089" stop-color="#00589D"/>
<stop offset="1" stop-color="#005BA1"/>
</linearGradient>
<linearGradient id="paint2_linear" x1="49.6395" y1="63.444" x2="49.6395" y2="32.5428" gradientUnits="userSpaceOnUse">
<stop stop-color="#005BA1"/>
<stop offset="0.26" stop-color="#00589D"/>
<stop offset="0.53" stop-color="#004F90"/>
<stop offset="0.8" stop-color="#003F7C"/>
<stop offset="1" stop-color="#003067"/>
</linearGradient>
<linearGradient id="paint3_linear" x1="49.6394" y1="71.1555" x2="49.6394" y2="65.6473" gradientUnits="userSpaceOnUse">
<stop stop-color="#004DAE"/>
<stop offset="0.21" stop-color="#0061C4"/>
<stop offset="0.51" stop-color="#0078DD"/>
<stop offset="0.78" stop-color="#0086EC"/>
<stop offset="1" stop-color="#008BF1"/>
</linearGradient>
<linearGradient id="paint4_linear" x1="1676.61" y1="896.377" x2="1676.61" y2="609.085" gradientUnits="userSpaceOnUse">
<stop stop-color="#004DAE"/>
<stop offset="0.21" stop-color="#0061C4"/>
<stop offset="0.51" stop-color="#0078DD"/>
<stop offset="0.78" stop-color="#0086EC"/>
<stop offset="1" stop-color="#008BF1"/>
</linearGradient>
<clipPath id="clip0">
<rect width="99.2799" height="99.28" fill="white"/>
</clipPath>
</defs>
</svg>
