<svg width="160" height="188" viewBox="0 0 160 188" fill="none" xmlns="http://www.w3.org/2000/svg">
<g clip-path="url(#clip0)">
<path d="M79.6779 188C82.7592 187.994 85.7796 187.141 88.4083 185.534L150.384 147.874C153.165 146.11 155.449 143.665 157.019 140.771C158.589 137.876 159.394 134.628 159.356 131.336V56.6207C159.392 53.3283 158.587 50.0812 157.017 47.1871C155.447 44.2929 153.163 41.8476 150.384 40.0829L88.4083 2.4228C85.7749 0.837605 82.7592 0 79.6855 0C76.6118 0 73.5961 0.837605 70.9627 2.4228L8.9876 40.098C6.2045 41.8604 3.91796 44.3048 2.34499 47.1991C0.772021 50.0935 -0.0351786 53.3418 4.1431e-06 56.6358V131.336C-0.0185283 134.119 0.556189 136.874 1.68588 139.418C2.81557 141.962 4.4743 144.236 6.5516 146.089V146.115L70.9627 185.549C73.5884 187.149 76.6032 187.996 79.6779 188V188ZM80.3257 6.95218C82.2776 6.95218 84.7548 8.1651 86.4646 9.20912L147.222 46.4034C150.974 48.6881 153.09 55.2842 153.09 60.0352L152.458 131.336C152.458 136.087 149.259 140.355 145.506 142.64L85.1104 179.021C81.6758 181.109 78.8854 181.109 75.4507 179.021L14.2427 142.549C10.4903 140.265 7.47191 136.072 7.47191 131.336V57.688C7.50442 55.3228 8.11341 53.0013 9.24608 50.9247C10.3787 48.8482 12.0009 47.0792 13.9718 45.7714L74.548 9.20912C76.2577 8.1651 78.3739 6.95218 80.3257 6.95218Z" fill="#F2F1F0"/>
<path fill-rule="evenodd" clip-rule="evenodd" d="M87.5765 10.5328C85.2056 9.05928 82.4698 8.27838 79.6783 8.27838C76.8868 8.27838 74.151 9.05928 71.7801 10.5328L15.6454 44.8642C13.1194 46.4759 11.047 48.7062 9.62503 51.3437C8.20303 53.9812 7.47854 56.9382 7.52029 59.9343V128.038C7.48037 131.033 8.20565 133.99 9.62748 136.627C11.0493 139.264 13.1206 141.495 15.6454 143.108L71.7801 177.439C74.1508 178.912 76.8867 179.694 79.6783 179.694C82.4699 179.694 85.2057 178.912 87.5765 177.439L143.711 143.108C146.236 141.495 148.307 139.264 149.729 136.627C151.151 133.99 151.877 131.033 151.837 128.038V59.9343C151.875 56.9388 151.149 53.983 149.727 51.3461C148.305 48.7092 146.234 46.4784 143.711 44.8642L87.5765 10.5328Z" fill="url(#paint0_linear)"/>
<path fill-rule="evenodd" clip-rule="evenodd" d="M79.6783 9.75432C81.3615 9.75432 83.2442 10.62 85.311 11.8781L143.777 47.4205C145.668 48.6339 147.218 50.3108 148.278 52.2919C149.339 54.2729 149.875 56.4922 149.837 58.739V129.218C149.875 131.464 149.339 133.684 148.278 135.664C147.218 137.645 145.668 139.322 143.777 140.536L85.312 176.078L85.311 176.079C83.6408 177.218 81.6958 177.889 79.6783 178.022C77.6609 177.889 75.7158 177.218 74.0456 176.079L74.0446 176.078L15.5823 140.538L15.5801 140.537C13.7918 139.573 12.2668 138.186 11.1383 136.497C10.1614 134.894 9.52031 132.679 9.52031 129.218V58.739C9.48157 56.4923 10.018 54.273 11.0785 52.292C12.139 50.311 13.6885 48.6341 15.5797 47.4206L74.0365 11.8835L74.0406 11.8811C76.1244 10.6281 77.9846 9.75432 79.6783 9.75432ZM87.3908 8.46132L145.855 44.0026C148.333 45.5727 150.368 47.7514 151.765 50.3311C153.162 52.9109 153.876 55.8055 153.837 58.7391V129.218C153.876 132.151 153.162 135.046 151.765 137.626C150.368 140.205 148.333 142.384 145.855 143.955L87.3898 179.496C85.0956 181.021 82.4302 181.894 79.6783 182.022C76.9264 181.894 74.261 181.021 71.9667 179.496H71.9658L13.502 143.954L13.4995 143.953C11.1642 142.66 9.18097 140.814 7.72281 138.579C6.12823 135.725 5.36521 132.482 5.52031 129.218V58.739C5.48125 55.8054 6.19436 52.9107 7.59165 50.331C8.98894 47.7512 11.0238 45.5724 13.5022 44.0024L71.9667 8.46067L71.9749 8.45579C74.0655 7.19838 76.7734 5.75433 79.6783 5.75433C82.5645 5.75433 85.2816 7.17741 87.3908 8.46127V8.46132Z" fill="#0078D4"/>
<path opacity="0.2" d="M139.61 132.026L80.06 166.633L20.121 132.027L79.671 97.42L139.61 132.026Z" fill="#003067"/>
<path d="M140.601 120.649L79.878 155.937L18.767 120.654L79.489 85.366L140.601 120.649Z" fill="#1B93EB"/>
<path d="M140.601 120.649L140.589 124.755L79.867 160.043L79.878 155.937L140.601 120.649Z" fill="#1F56A3"/>
<path d="M79.878 155.937L79.867 160.043L18.755 124.76L18.767 120.654L79.878 155.937Z" fill="#0078D4"/>
<path opacity="0.2" d="M117.578 121.253C117.781 121.321 117.958 121.452 118.083 121.626C118.209 121.799 118.277 122.008 118.278 122.222C118.279 122.437 118.214 122.646 118.09 122.821C117.967 122.996 117.792 123.128 117.589 123.199L116.333 123.929C115.812 124.193 115.237 124.33 114.653 124.33C114.069 124.33 113.494 124.193 112.973 123.929L74.5503 101.746C74.3469 101.677 74.1699 101.547 74.0439 101.374C73.9178 101.2 73.8491 100.991 73.8472 100.777C73.8453 100.562 73.9103 100.353 74.0332 100.177C74.1561 100.001 74.3308 99.8676 74.5329 99.7957L75.7889 99.0658C76.3106 98.8011 76.8875 98.6634 77.4726 98.664C78.0577 98.6646 78.6343 98.8036 79.1554 99.0695L117.578 121.253Z" fill="#003067"/>
<path d="M71.3118 45.6082L69.5452 46.6349C70.7812 45.9166 72.4912 46.0162 74.3746 47.1036L85.2253 53.3682L86.9919 52.3415L76.1413 46.0769C74.2578 44.9895 72.5478 44.8899 71.3118 45.6082Z" fill="#E8E8E8"/>
<path d="M105.903 107.607L107.669 106.58C108.78 105.916 109.695 104.971 110.322 103.839L108.555 104.865C107.928 105.997 107.013 106.943 105.903 107.607V107.607Z" fill="#E8E8E8"/>
<path d="M123.11 85.3883C122.857 83.2019 122.094 81.1053 120.883 79.2674C121.352 78.1444 121.585 76.9369 121.567 75.7201C121.583 69.7895 117.404 62.5505 112.243 59.5707C110.683 58.5475 108.801 58.1362 106.956 58.4157L105.19 59.4423C107.034 59.1628 108.917 59.5741 110.476 60.5973C115.637 63.5771 119.817 70.8161 119.8 76.7468C119.818 77.9636 119.585 79.1711 119.117 80.2941V80.2941C120.328 82.132 121.091 84.2286 121.344 86.415L121.367 86.723L121.328 100.341C121.32 103.339 120.217 105.449 118.405 106.502L120.171 105.475C121.983 104.422 123.086 102.312 123.095 99.3139L123.133 85.6964L123.11 85.3883Z" fill="#E8E8E8"/>
<path d="M97.8897 47.6092C94.8488 45.8534 92.0891 45.6922 90.0963 46.8503L88.3297 47.877C90.3224 46.7189 93.0821 46.8801 96.1232 48.6359C99.9 50.8164 103.223 54.9451 105.189 59.4423L106.956 58.4156C104.989 53.9184 101.667 49.7898 97.8897 47.6092Z" fill="#E8E8E8"/>
<path d="M90.454 66.417L90.446 69.267L85.485 66.403L85.444 80.673L82.956 79.236L82.996 64.966L78.035 62.102L78.043 59.251L90.454 66.417Z" fill="white"/>
<path d="M103.823 74.8722C104.358 75.2074 104.798 75.674 105.102 76.2275C105.43 76.765 105.614 77.3786 105.634 78.0081L105.584 95.653C105.583 96.0314 105.565 96.3981 105.532 96.7532C105.297 99.2431 104.277 101.126 102.64 102.067C100.762 103.129 98.2217 102.869 95.581 101.344L94.7648 100.873C91.8267 99.0381 89.4039 96.4857 87.7246 93.456C86.3498 91.1204 85.4229 88.5489 84.9915 85.8733C85.001 85.9371 85.0102 86.0007 85.0204 86.0648L91.566 89.8439C94.0066 91.253 96.0022 91.2907 96.0102 88.4495L96.0614 70.3909L103.823 74.8722Z" fill="#7B83EB"/>
<path d="M94.3989 65.8433C94.4451 66.0705 94.4687 66.3018 94.4693 66.5337L94.4669 67.3852L94.461 69.4668L94.4111 87.075C94.4071 88.491 93.4036 89.0629 92.1713 88.3514L84.8337 84.115L74.287 78.0258C73.6386 77.6042 73.099 77.0353 72.7123 76.3655C72.3256 75.6957 72.1027 74.9439 72.0618 74.1715L72.12 53.6303C72.124 52.2143 73.1275 51.6424 74.3598 52.3539L90.547 61.6996L92.2441 62.6794C92.7939 63.0389 93.2673 63.5035 93.637 64.0464C94.0068 64.5894 94.2657 65.2 94.3989 65.8433V65.8433ZM90.4461 69.2671L90.4542 66.4167L78.0432 59.2512L78.0351 62.1016L82.9963 64.966L82.9559 79.2364L85.4444 80.6731L85.4849 66.4028L90.4461 69.2671" fill="#4B53BC"/>
<path d="M96.1083 53.8861C97.963 55.092 99.5064 56.7192 100.612 58.6351C101.719 60.5509 102.356 62.7012 102.473 64.9103C102.462 68.956 99.5875 70.5938 96.0667 68.5611C95.4972 68.2284 94.9614 67.841 94.4669 67.4045C94.9336 67.8012 95.4311 68.1602 95.9547 68.478C95.8045 67.8405 95.5342 67.2375 95.1582 66.7012C94.9389 66.387 94.6841 66.0992 94.3989 65.8433C94.2657 65.2 94.0068 64.5894 93.6371 64.0464C93.2673 63.5035 92.7939 63.0389 92.2441 62.6794L90.547 61.6996C90.0116 60.3758 89.7251 58.9646 89.702 57.5369C89.7134 53.482 92.5794 51.8488 96.1083 53.8861Z" fill="#7B83EB"/>
<path d="M110.461 65.8477C111.852 66.7506 113.009 67.9699 113.838 69.4057C114.667 70.8415 115.144 72.4532 115.231 74.1089C115.222 77.1524 113.079 78.3831 110.43 76.8539C109.039 75.9499 107.881 74.7292 107.052 73.2916C106.223 71.8541 105.746 70.2407 105.661 68.5834C105.669 65.5491 107.813 64.3185 110.461 65.8477Z" fill="#5059C9"/>
<path d="M121.344 86.4151C121.09 84.2286 120.328 82.1321 119.117 80.2942C119.585 79.1711 119.818 77.9636 119.8 76.7468C119.817 70.8162 115.637 63.5772 110.476 60.5974C108.916 59.5742 107.034 59.1628 105.19 59.4423C103.223 54.9451 99.9001 50.8165 96.1231 48.6359C90.5458 45.4158 85.915 47.559 85.2252 53.3683L74.3746 47.1037C70.6297 44.9416 67.5711 46.6846 67.5588 50.9969L67.5006 71.5382C67.6252 73.8897 68.3035 76.1786 69.4802 78.2183C70.6569 80.2581 72.2988 81.9911 74.2721 83.2761L81.1217 87.2307C81.8843 90.0541 83.0138 92.7653 84.4813 95.295C86.9363 99.7125 90.4687 103.437 94.7498 106.123L95.566 106.594C99.447 108.835 103.101 109.204 105.854 107.635C106.987 106.971 107.92 106.014 108.555 104.866C108.883 105.083 109.219 105.286 109.547 105.475C116.029 109.217 121.309 106.915 121.328 100.341L121.367 86.7232L121.344 86.4151ZM110.461 65.8476C111.852 66.7506 113.009 67.9698 113.838 69.4057C114.667 70.8415 115.144 72.4532 115.231 74.1088C115.222 77.1523 113.079 78.3831 110.43 76.8538C109.039 75.9498 107.881 74.7291 107.052 73.2916C106.223 71.8541 105.746 70.2406 105.66 68.5834C105.669 65.5491 107.813 64.3184 110.461 65.8476V65.8476ZM116.767 97.7073C116.757 101.394 113.531 102.526 109.562 100.234C108.024 99.32 106.66 98.1416 105.532 96.7532C105.297 99.2431 104.277 101.126 102.64 102.067C100.762 103.129 98.2216 102.869 95.5809 101.344L94.7647 100.873C91.8266 99.0381 89.4038 96.4856 87.7246 93.4559C86.3498 91.1204 85.4229 88.5488 84.9914 85.8732C84.9043 85.2907 84.8515 84.7036 84.8335 84.1149L74.287 78.0259C73.6386 77.6043 73.099 77.0353 72.7123 76.3655C72.3256 75.6957 72.1027 74.9439 72.0618 74.1715L72.12 53.6303C72.124 52.2143 73.1275 51.6425 74.3598 52.3539L90.547 61.6996C90.0116 60.3758 89.7251 58.9646 89.702 57.5369C89.7135 53.482 92.5795 51.8487 96.1083 53.8862C97.963 55.092 99.5064 56.7192 100.612 58.6351C101.719 60.5509 102.356 62.7012 102.473 64.9103C102.462 68.956 99.5874 70.5938 96.0666 68.5611C95.4971 68.2284 94.9613 67.841 94.4669 67.4045L94.461 69.4669L96.0614 70.3909L103.823 74.8722L114.658 81.1368C114.72 81.1658 114.782 81.1982 114.843 81.2339C115.346 81.5435 115.772 81.9627 116.089 82.4602C116.477 83.0357 116.722 83.6951 116.805 84.384L116.767 97.7073Z" fill="white"/>
<path d="M96.0615 70.3909L96.0103 88.4495C96.0022 91.2907 94.0066 91.253 91.566 89.8439L85.0204 86.0648C85.0101 86.0007 85.0009 85.937 84.9915 85.8732C84.9052 85.2907 84.8526 84.7036 84.8337 84.115L92.1713 88.3514C93.4036 89.0628 94.4071 88.491 94.4111 87.075L94.461 69.4669L96.0615 70.3909Z" fill="#3D4175"/>
<path d="M94.3989 65.8433C94.6841 66.0992 94.9389 66.387 95.1582 66.7012C95.5341 67.2375 95.8045 67.8406 95.9547 68.4781C95.4265 68.1599 94.9285 67.7941 94.4669 67.3852L94.4693 66.5337C94.4687 66.3018 94.4451 66.0705 94.3989 65.8433V65.8433Z" fill="#3D4175"/>
<path d="M114.843 81.2339C115.346 81.5435 115.772 81.9627 116.089 82.4602C116.477 83.0357 116.722 83.6951 116.805 84.384L116.767 97.7073C116.757 101.394 113.531 102.526 109.562 100.234C108.024 99.32 106.66 98.1416 105.532 96.7532C105.565 96.3985 105.583 96.0318 105.584 95.653L105.634 78.0081C105.613 77.3786 105.43 76.765 105.102 76.2275C104.798 75.674 104.358 75.2074 103.823 74.8722L114.658 81.1368C114.72 81.1658 114.782 81.1982 114.843 81.2339Z" fill="#5059C9"/>
<path opacity="0.2" d="M86.865 129.24C87.4457 129.766 87.3067 130.524 86.5478 130.965L85.7934 131.403C84.8645 131.855 83.795 131.923 82.8162 131.593L80.6755 130.801C80.4175 130.736 80.1483 130.729 79.8872 130.781L78.1519 131.201C77.9099 131.238 77.6904 131.364 77.5359 131.554L76.9976 132.991C76.7396 133.362 76.3878 133.657 75.9782 133.848C75.5685 134.038 75.1157 134.117 74.6659 134.075H73.6C73.0063 134.078 72.4217 133.929 71.9013 133.643C71.6203 133.503 71.3936 133.273 71.2561 132.991L70.6926 131.554C70.6331 131.46 70.549 131.385 70.4496 131.336C70.3614 131.284 70.2662 131.244 70.1668 131.219L68.4134 130.801C68.1311 130.731 67.8358 130.731 67.5535 130.801L65.4172 131.59C64.4378 131.92 63.3677 131.852 62.4379 131.401L61.6831 130.965C60.9192 130.524 60.7717 129.766 61.3464 129.24L62.7009 128C62.7557 127.938 62.7886 127.86 62.7946 127.777C62.8006 127.695 62.7794 127.612 62.7342 127.543L61.9985 126.539C61.9439 126.447 61.8643 126.373 61.7689 126.324C61.6508 126.255 61.5218 126.207 61.3875 126.181L58.909 125.862C58.5115 125.812 58.1275 125.686 57.7783 125.489C57.5804 125.403 57.4078 125.267 57.2767 125.096C57.1457 124.924 57.0605 124.722 57.0293 124.508L57.0259 123.891C57.0223 123.268 57.8386 122.674 58.8903 122.537L61.3651 122.217C61.5858 122.184 61.7887 122.077 61.9411 121.914L62.661 120.902C62.7184 120.831 62.7495 120.742 62.749 120.65C62.7484 120.558 62.7164 120.47 62.6581 120.399L61.2852 119.162C60.7045 118.635 60.8436 117.877 61.6024 117.436L62.3568 116.998C63.2858 116.546 64.3553 116.478 65.334 116.809L67.4747 117.6C67.7327 117.665 68.002 117.672 68.263 117.621L69.9983 117.2C70.2403 117.163 70.4599 117.038 70.6144 116.848L71.1527 115.41C71.4107 115.04 71.7624 114.744 72.1721 114.553C72.5817 114.363 73.0345 114.284 73.4844 114.326H74.5502C75.1439 114.324 75.7285 114.472 76.2489 114.758C76.5299 114.899 76.7566 115.128 76.8942 115.41L77.453 116.845C77.5144 116.939 77.5998 117.015 77.7006 117.065C77.7894 117.119 77.8864 117.158 77.9878 117.18L79.7323 117.597C80.0158 117.67 80.3128 117.671 80.5967 117.6L82.7375 116.809C83.7159 116.481 84.7841 116.55 85.7123 117.001L86.4671 117.436C87.231 117.877 87.3785 118.635 86.8038 119.162L85.4493 120.402C85.3945 120.464 85.3616 120.542 85.3556 120.624C85.3496 120.707 85.3708 120.789 85.416 120.858L86.1516 121.862C86.2063 121.954 86.2859 122.029 86.3813 122.077C86.4977 122.146 86.6253 122.193 86.7583 122.217L89.2412 122.539C89.6388 122.588 90.023 122.715 90.3721 122.912C90.5698 122.998 90.7425 123.133 90.8742 123.305C91.0058 123.476 91.0922 123.677 91.1253 123.891L91.1243 124.511C91.1278 125.133 90.3116 125.727 89.2599 125.865L86.7806 126.181C86.5616 126.218 86.3607 126.325 86.209 126.487L85.4892 127.499C85.4313 127.57 85.4003 127.659 85.4016 127.751C85.4029 127.842 85.4365 127.93 85.4965 128L86.865 129.24ZM70.3187 126.384C71.4865 126.977 72.7779 127.286 74.0877 127.285C75.3975 127.285 76.6886 126.975 77.856 126.381C79.9228 125.18 79.9163 123.221 77.8315 122.018C76.6645 121.425 75.374 121.116 74.065 121.116C72.7561 121.116 71.4656 121.425 70.2986 122.018C68.2273 123.221 68.2339 125.18 70.3187 126.384" fill="#003067"/>
<path d="M68.7382 115.443L68.7501 111.229C68.7933 110.763 68.9594 110.316 69.2314 109.935C69.5034 109.554 69.8717 109.251 70.2986 109.059C71.4656 108.466 72.7561 108.157 74.065 108.157C75.374 108.157 76.6645 108.466 77.8315 109.059C78.2651 109.252 78.6392 109.557 78.9151 109.943C79.1909 110.33 79.3586 110.783 79.4006 111.255L79.3887 115.443L68.7382 115.443Z" fill="url(#paint1_linear)"/>
<path d="M86.865 116.281C87.4457 116.807 87.3067 117.565 86.5478 118.006L85.7934 118.444C84.8645 118.896 83.7949 118.964 82.8162 118.634L80.6755 117.842C80.4175 117.777 80.1483 117.77 79.8872 117.822L78.1519 118.242C77.9099 118.279 77.6904 118.405 77.5359 118.595L76.9976 120.032C76.7396 120.403 76.3878 120.698 75.9782 120.889C75.5685 121.079 75.1157 121.158 74.6659 121.116H73.6C73.0063 121.119 72.4217 120.97 71.9013 120.684C71.6203 120.544 71.3936 120.314 71.2561 120.032L70.6926 118.595C70.6331 118.501 70.549 118.426 70.4496 118.377C70.3614 118.325 70.2662 118.285 70.1668 118.26L68.4134 117.842C68.1311 117.772 67.8358 117.772 67.5535 117.842L65.4172 118.631C64.4378 118.961 63.3677 118.893 62.4379 118.442L61.6831 118.006C60.9192 117.565 60.7717 116.807 61.3464 116.281L62.7009 115.041C62.7557 114.979 62.7886 114.901 62.7946 114.818C62.8006 114.736 62.7794 114.653 62.7342 114.584L61.9985 113.58C61.9439 113.488 61.8643 113.414 61.7689 113.365C61.6508 113.296 61.5218 113.248 61.3875 113.222L58.909 112.903C58.5115 112.853 58.1275 112.727 57.7783 112.53C57.5804 112.444 57.4078 112.309 57.2767 112.137C57.1457 111.965 57.0605 111.763 57.0293 111.549L57.0259 110.932C57.0223 110.309 57.8386 109.715 58.8903 109.578L61.3651 109.258C61.5858 109.225 61.7887 109.118 61.9411 108.955L62.661 107.943C62.7184 107.872 62.7494 107.783 62.7489 107.691C62.7484 107.599 62.7163 107.511 62.658 107.44L61.2851 106.203C60.7044 105.676 60.8435 104.919 61.6023 104.477L62.3567 104.039C63.2857 103.587 64.3552 103.519 65.3339 103.85L67.4746 104.641C67.7326 104.706 68.0019 104.713 68.2629 104.662L69.9982 104.241C70.2402 104.204 70.4598 104.079 70.6143 103.889L71.1526 102.451C71.4106 102.081 71.7623 101.785 72.172 101.594C72.5816 101.404 73.0344 101.325 73.4843 101.367H74.5501C75.1438 101.365 75.7284 101.513 76.2488 101.799C76.5298 101.94 76.7565 102.169 76.8941 102.451L77.453 103.886C77.5144 103.98 77.5998 104.056 77.7006 104.106C77.7894 104.16 77.8864 104.199 77.9878 104.221L79.7323 104.638C80.0158 104.711 80.3128 104.712 80.5967 104.641L82.7375 103.85C83.7159 103.522 84.7841 103.591 85.7123 104.042L86.4671 104.477C87.231 104.918 87.3785 105.676 86.8038 106.203L85.4493 107.443C85.3945 107.505 85.3616 107.583 85.3556 107.665C85.3496 107.748 85.3708 107.83 85.416 107.899L86.1516 108.903C86.2063 108.995 86.2859 109.07 86.3813 109.118C86.4977 109.187 86.6253 109.234 86.7583 109.258L89.2412 109.58C89.6388 109.629 90.023 109.756 90.3721 109.953C90.5698 110.039 90.7425 110.174 90.8742 110.346C91.0058 110.517 91.0922 110.718 91.1253 110.932L91.1243 111.552C91.1278 112.174 90.3116 112.768 89.2599 112.906L86.7806 113.222C86.5616 113.259 86.3607 113.366 86.209 113.528L85.4893 114.54C85.4313 114.611 85.4003 114.7 85.4016 114.792C85.403 114.883 85.4366 114.971 85.4965 115.041L86.865 116.281ZM70.3187 113.425C71.4865 114.018 72.7779 114.327 74.0877 114.326C75.3975 114.326 76.6886 114.016 77.856 113.422C79.9228 112.221 79.9163 110.262 77.8315 109.059C76.6645 108.466 75.374 108.157 74.065 108.157C72.7561 108.157 71.4656 108.466 70.2986 109.059C68.2273 110.262 68.2339 112.221 70.3187 113.425" fill="url(#paint2_linear)"/>
<path fill-rule="evenodd" clip-rule="evenodd" d="M61.941 108.955C61.7887 109.118 61.5857 109.225 61.365 109.259L60.916 109.317L60.927 105.464C60.927 105.472 60.9283 105.48 60.9295 105.488C60.9305 105.495 60.9316 105.501 60.9319 105.508C60.9332 105.534 60.9369 105.56 60.9406 105.586L60.9408 105.588C60.9475 105.635 60.9581 105.681 60.9724 105.726C60.9806 105.753 60.9889 105.778 60.9997 105.804C61.0208 105.853 61.0457 105.9 61.0743 105.945C61.0791 105.953 61.0836 105.961 61.0882 105.969C61.0963 105.983 61.1043 105.997 61.1143 106.011C61.1644 106.08 61.2217 106.145 61.2853 106.203L62.658 107.44C62.6873 107.47 62.7095 107.506 62.7231 107.545C62.7268 107.56 62.7297 107.575 62.7319 107.59C62.7405 107.62 62.7457 107.651 62.7473 107.682C62.7508 107.777 62.7201 107.869 62.6609 107.943L61.941 108.955ZM87.1411 105.589C87.1348 105.637 87.1245 105.684 87.1104 105.731C87.1025 105.756 87.0941 105.781 87.0839 105.806C87.0633 105.855 87.0388 105.902 87.0107 105.947C87.0061 105.955 87.0018 105.962 86.9974 105.97L86.9974 105.97C86.9894 105.984 86.9813 105.998 86.9715 106.012C86.9227 106.081 86.8668 106.144 86.8049 106.202L86.8039 106.203L85.4493 107.443C85.4188 107.473 85.3957 107.51 85.382 107.55C85.3778 107.565 85.3745 107.58 85.372 107.595C85.3638 107.624 85.3587 107.655 85.3567 107.685C85.3496 107.762 85.3707 107.838 85.416 107.899L86.1517 108.903C86.2063 108.995 86.286 109.07 86.3814 109.119C86.4978 109.187 86.6254 109.235 86.7583 109.259L87.1429 109.309L87.1538 105.478C87.1538 105.485 87.1528 105.491 87.1517 105.498C87.1508 105.503 87.1499 105.509 87.1497 105.514C87.1488 105.534 87.1461 105.552 87.1435 105.571L87.1435 105.571L87.1411 105.589ZM91.0883 111.782C90.9411 112.138 90.6637 112.423 90.3129 112.581C90.1754 112.651 90.0325 112.71 89.8855 112.757C89.6823 112.827 89.4728 112.876 89.2599 112.905L87.1776 113.171L87.132 113.177L86.7806 113.222C86.5616 113.258 86.3608 113.366 86.2091 113.528L85.4893 114.54C85.4313 114.611 85.4003 114.7 85.4016 114.791C85.4029 114.883 85.4365 114.971 85.4965 115.04L86.865 116.28C87.4457 116.807 87.3067 117.564 86.5478 118.005L85.7934 118.444C85.0688 118.802 84.2499 118.922 83.453 118.788C83.4346 118.785 83.4169 118.782 83.3991 118.779L83.368 118.773C83.1803 118.743 82.9957 118.696 82.8163 118.633L80.6755 117.842C80.631 117.829 80.5856 117.819 80.5396 117.813C80.4547 117.799 80.3688 117.79 80.2828 117.788C80.15 117.78 80.0169 117.792 79.8873 117.821L78.152 118.241C78.1396 118.244 78.1277 118.248 78.1158 118.252L78.1158 118.252L78.1157 118.252C78.1069 118.255 78.0981 118.258 78.0891 118.26C77.8711 118.303 77.6753 118.421 77.5358 118.594L76.9976 120.031C76.8807 120.289 76.6857 120.502 76.4404 120.642C76.2445 120.765 76.0342 120.863 75.8143 120.933C75.4435 121.054 75.0559 121.116 74.6659 121.116H73.6C73.3221 121.114 73.0454 121.081 72.7752 121.016C72.6036 120.977 72.4351 120.926 72.2711 120.862C72.1438 120.812 72.0202 120.752 71.9013 120.684C71.6203 120.543 71.3936 120.314 71.2561 120.031L70.6926 118.594C70.633 118.501 70.549 118.425 70.4496 118.376C70.3614 118.324 70.2661 118.285 70.1668 118.26L69.2901 118.051L68.4134 117.842C68.3422 117.822 68.2693 117.808 68.1957 117.801C68.1151 117.793 68.034 117.789 67.9529 117.789C67.8769 117.79 67.8009 117.795 67.7255 117.804C67.6669 117.811 67.6093 117.823 67.5535 117.842L65.4172 118.631C65.2288 118.697 65.0348 118.746 64.8375 118.776C64.8254 118.778 64.8136 118.78 64.8018 118.782L64.8018 118.782C64.7844 118.786 64.7671 118.789 64.7491 118.792C64.5478 118.82 64.3448 118.833 64.1416 118.832C64.11 118.832 64.0798 118.831 64.0482 118.83C63.8384 118.826 63.6293 118.806 63.4223 118.772L63.3928 118.766C63.0585 118.712 62.7356 118.603 62.4379 118.441L61.683 118.006C60.9191 117.565 60.7716 116.807 61.3464 116.28L62.7009 115.04C62.7389 114.997 62.7665 114.945 62.7814 114.89C62.7964 114.834 62.7984 114.776 62.7872 114.719C62.7864 114.714 62.786 114.709 62.7855 114.704C62.7847 114.696 62.7839 114.688 62.782 114.681C62.7736 114.646 62.7575 114.613 62.7348 114.585L62.7342 114.584L62.7292 114.577V114.577L61.9984 113.58C61.9439 113.488 61.8643 113.413 61.7689 113.365C61.6507 113.296 61.5217 113.248 61.3874 113.222L58.9089 112.903C58.5717 112.857 58.2443 112.755 57.9401 112.602C57.9179 112.591 57.894 112.582 57.8702 112.572C57.8381 112.559 57.8061 112.546 57.7782 112.53C57.5694 112.415 57.3844 112.261 57.2332 112.076C57.1081 111.928 57.0362 111.742 57.0293 111.549L56.9968 117.285C57.028 117.499 57.1131 117.701 57.2442 117.873C57.3752 118.045 57.5478 118.18 57.7458 118.267C58.0949 118.463 58.479 118.59 58.8764 118.64L60.9748 118.91L60.9638 122.741C60.9791 122.954 61.0508 123.159 61.1715 123.335C61.2922 123.511 61.4575 123.651 61.6505 123.742L62.4053 124.178C63.3351 124.63 64.4052 124.698 65.3846 124.367L67.5209 123.579C67.8033 123.508 68.0985 123.508 68.3809 123.579L70.1342 123.996C70.2335 124.022 70.3288 124.061 70.417 124.113C70.5164 124.162 70.6005 124.237 70.6601 124.331L71.2235 125.768C71.361 126.051 71.5878 126.28 71.8688 126.421C72.3893 126.706 72.9738 126.855 73.5675 126.852H74.6334C75.0832 126.894 75.536 126.816 75.9457 126.625C76.3553 126.435 76.707 126.139 76.965 125.768L77.5033 124.331C77.6579 124.141 77.8773 124.015 78.1193 123.978L79.8547 123.558C80.1158 123.506 80.385 123.513 80.643 123.579L82.7838 124.37C83.7625 124.701 84.832 124.632 85.7609 124.18L86.5153 123.742C86.7048 123.652 86.8671 123.513 86.9857 123.34C87.1043 123.167 87.175 122.965 87.1907 122.756L87.2015 118.901L89.2274 118.642C90.279 118.504 91.0953 117.91 91.0919 117.288L91.1243 111.561C91.1234 111.636 91.1113 111.711 91.0883 111.782Z" fill="url(#paint3_linear)"/>
<path d="M93.1595 136.768C93.5134 137.089 93.4287 137.551 92.9662 137.82L92.5064 138.087C91.9403 138.362 91.2884 138.404 90.692 138.202L89.3873 137.72C89.23 137.68 89.066 137.676 88.9069 137.707L87.8492 137.963C87.7018 137.986 87.568 138.063 87.4738 138.179L87.1457 139.054C86.9885 139.28 86.7741 139.461 86.5244 139.577C86.2748 139.693 85.9988 139.741 85.7247 139.715H85.075C84.7132 139.717 84.3569 139.626 84.0397 139.452C83.8685 139.366 83.7303 139.227 83.6465 139.054L83.3031 138.179C83.2668 138.122 83.2156 138.076 83.155 138.046C83.1012 138.014 83.0432 137.99 82.9826 137.975L81.914 137.72C81.7419 137.677 81.562 137.677 81.3899 137.72L80.0879 138.201C79.491 138.402 78.8388 138.361 78.2722 138.085L77.8122 137.82C77.3466 137.551 77.2567 137.089 77.607 136.768L78.4325 136.013C78.4659 135.975 78.4859 135.927 78.4896 135.877C78.4932 135.827 78.4803 135.776 78.4528 135.734L78.0044 135.122C77.9711 135.066 77.9226 135.021 77.8645 134.991C77.7925 134.949 77.7139 134.92 77.632 134.904L76.1215 134.71C75.8793 134.679 75.6452 134.602 75.4324 134.483C75.3118 134.43 75.2065 134.347 75.1267 134.243C75.0468 134.138 74.9949 134.015 74.9759 133.884L74.9738 133.508C74.9717 133.129 75.4691 132.767 76.1101 132.683L77.6184 132.488C77.7529 132.468 77.8766 132.403 77.9695 132.303L78.4082 131.687C78.4432 131.643 78.4621 131.589 78.4618 131.533C78.4615 131.477 78.4419 131.423 78.4064 131.38L77.5697 130.626C77.2158 130.305 77.3005 129.843 77.763 129.575L78.2228 129.307C78.7889 129.032 79.4408 128.99 80.0373 129.192L81.3419 129.674C81.4991 129.714 81.6633 129.718 81.8224 129.687L82.88 129.431C83.0275 129.408 83.1613 129.331 83.2554 129.216L83.5835 128.34C83.7407 128.114 83.9551 127.934 84.2048 127.817C84.4544 127.701 84.7304 127.654 85.0046 127.679H85.6542C86.016 127.677 86.3722 127.768 86.6894 127.942C86.8607 128.028 86.9989 128.168 87.0827 128.34L87.4233 129.214C87.4607 129.272 87.5128 129.318 87.5742 129.348C87.6283 129.381 87.6874 129.405 87.7492 129.418L88.8124 129.673C88.9852 129.717 89.1662 129.717 89.3392 129.674L90.6439 129.192C91.2402 128.992 91.8912 129.034 92.4569 129.309L92.9169 129.575C93.3824 129.843 93.4724 130.305 93.1221 130.626L92.2966 131.382C92.2632 131.419 92.2432 131.467 92.2395 131.517C92.2358 131.568 92.2488 131.618 92.2763 131.66L92.7246 132.272C92.7579 132.328 92.8065 132.373 92.8646 132.403C92.9356 132.445 93.0133 132.474 93.0943 132.488L94.6076 132.684C94.8499 132.714 95.084 132.792 95.2968 132.911C95.4173 132.964 95.5226 133.047 95.6028 133.151C95.6831 133.255 95.7357 133.378 95.7559 133.508L95.7552 133.886C95.7574 134.265 95.2599 134.627 94.619 134.711L93.108 134.904C92.9745 134.926 92.8521 134.992 92.7597 135.091L92.321 135.707C92.2856 135.75 92.2667 135.805 92.2675 135.861C92.2683 135.916 92.2888 135.97 92.3254 136.012L93.1595 136.768ZM83.0753 135.028C83.787 135.389 84.574 135.577 85.3723 135.577C86.1705 135.577 86.9574 135.388 87.6689 135.026C88.9285 134.294 88.9246 133.1 87.6539 132.367C86.9427 132.005 86.1562 131.817 85.3584 131.817C84.5607 131.817 83.7742 132.005 83.0629 132.367C81.8006 133.1 81.8046 134.294 83.0752 135.028" fill="url(#paint4_linear)"/>
<path d="M93.3278 130.252C93.324 130.281 93.3177 130.31 93.3091 130.338C93.3043 130.354 93.2992 130.369 93.2929 130.384C93.2804 130.414 93.2655 130.443 93.2483 130.47C93.2403 130.483 93.2336 130.497 93.2244 130.51C93.1947 130.552 93.1607 130.59 93.1229 130.625L93.1223 130.626L92.2967 131.382C92.2781 131.4 92.2641 131.422 92.2557 131.447C92.2532 131.456 92.2512 131.465 92.2496 131.474C92.2447 131.492 92.2415 131.511 92.2403 131.529C92.236 131.576 92.2489 131.622 92.2765 131.66L92.7248 132.272C92.7581 132.328 92.8067 132.373 92.8648 132.403C92.9358 132.445 93.0136 132.474 93.0946 132.488L93.329 132.519L93.3356 130.184L93.3331 130.206C93.3323 130.222 93.3298 130.237 93.3278 130.252Z" fill="url(#paint5_linear)"/>
<path d="M95.7335 134.027C95.6437 134.243 95.4747 134.417 95.2609 134.513C95.1771 134.556 95.09 134.592 95.0004 134.621C94.8765 134.664 94.7489 134.694 94.6191 134.711L93.35 134.873L93.3223 134.877L93.1081 134.904C92.9747 134.926 92.8522 134.992 92.7598 135.091L92.3211 135.707C92.2858 135.751 92.2669 135.805 92.2677 135.861C92.2685 135.916 92.289 135.97 92.3255 136.012L93.1595 136.768C93.5134 137.089 93.4287 137.551 92.9662 137.82L92.5064 138.087C92.0648 138.305 91.5657 138.378 91.08 138.297C91.0623 138.294 91.0457 138.291 91.0282 138.287C90.9138 138.269 90.8013 138.24 90.692 138.202L89.3873 137.72C89.3602 137.712 89.3325 137.706 89.3044 137.702C89.2527 137.694 89.2004 137.688 89.1479 137.687C89.067 137.683 88.9859 137.689 88.9068 137.707L87.8493 137.963C87.8362 137.966 87.8239 137.971 87.8109 137.975C87.6781 138.001 87.5588 138.073 87.4738 138.178L87.1457 139.054C87.0745 139.211 86.9557 139.341 86.8061 139.427C86.6867 139.501 86.5586 139.561 86.4246 139.604C86.1986 139.678 85.9624 139.715 85.7247 139.715H85.075C84.9057 139.714 84.737 139.694 84.5724 139.654C84.4678 139.631 84.3651 139.6 84.2651 139.561C84.1875 139.53 84.1122 139.494 84.0398 139.452C83.8685 139.366 83.7303 139.227 83.6465 139.054L83.3031 138.178C83.2668 138.121 83.2156 138.076 83.155 138.046C83.1012 138.014 83.0432 137.99 82.9826 137.975L82.4483 137.847L81.914 137.72C81.8706 137.708 81.8262 137.7 81.7813 137.695C81.7322 137.69 81.6828 137.688 81.6333 137.688C81.587 137.688 81.5407 137.691 81.4947 137.697C81.4591 137.701 81.424 137.709 81.39 137.72L80.088 138.201C79.9732 138.241 79.855 138.271 79.7347 138.289C79.7164 138.292 79.6993 138.296 79.6808 138.299C79.5582 138.316 79.4345 138.324 79.3106 138.323L79.2536 138.322C79.1258 138.32 78.9983 138.308 78.8722 138.287L78.8542 138.283C78.6505 138.25 78.4537 138.184 78.2722 138.085L77.8122 137.82C77.3466 137.551 77.2567 137.089 77.607 136.768L78.4325 136.013C78.4557 135.986 78.4725 135.955 78.4816 135.921C78.4907 135.887 78.4919 135.851 78.4851 135.817C78.4839 135.809 78.4839 135.801 78.482 135.793C78.4768 135.772 78.467 135.752 78.4532 135.735L78.4528 135.734L78.4498 135.73L78.0045 135.122C77.9712 135.066 77.9227 135.021 77.8646 134.991C77.7925 134.949 77.7139 134.92 77.632 134.904L76.1215 134.71C75.916 134.682 75.7165 134.62 75.5311 134.527C75.4993 134.511 75.4621 134.5 75.4324 134.483C75.3051 134.412 75.1924 134.318 75.1003 134.206C75.024 134.116 74.9802 134.002 74.976 133.884L74.9562 137.381C74.9752 137.511 75.0271 137.634 75.1069 137.739C75.1868 137.844 75.292 137.926 75.4126 137.979C75.6254 138.098 75.8595 138.176 76.1017 138.206L77.3806 138.371L77.3739 140.706C77.3832 140.836 77.4269 140.96 77.5005 141.068C77.574 141.175 77.6748 141.26 77.7924 141.316L78.2524 141.581C78.8191 141.857 79.4713 141.898 80.0682 141.697L81.3702 141.216C81.5423 141.173 81.7222 141.173 81.8943 141.216L82.9629 141.471C83.0234 141.486 83.0815 141.51 83.1352 141.542C83.1958 141.572 83.2471 141.618 83.2834 141.675L83.6267 142.551C83.7106 142.723 83.8488 142.863 84.0201 142.948C84.3372 143.122 84.6935 143.213 85.0553 143.211H85.705C85.9791 143.237 86.2551 143.189 86.5047 143.073C86.7543 142.957 86.9687 142.777 87.126 142.551L87.454 141.675C87.5482 141.559 87.682 141.482 87.8294 141.46L88.8871 141.204C89.0462 141.172 89.2103 141.176 89.3675 141.216L90.6722 141.698C91.2687 141.9 91.9205 141.858 92.4867 141.583L92.9464 141.316C93.0619 141.261 93.1608 141.176 93.2331 141.071C93.3054 140.965 93.3485 140.842 93.3581 140.715L93.3647 138.365L94.5993 138.207C95.2403 138.124 95.7377 137.762 95.7356 137.382L95.7554 133.886C95.7555 133.934 95.7481 133.981 95.7335 134.027Z" fill="url(#paint6_linear)"/>
<path d="M77.6184 132.488C77.7529 132.468 77.8766 132.403 77.9695 132.303L78.4082 131.687C78.4443 131.642 78.463 131.585 78.4609 131.528C78.4599 131.508 78.4567 131.49 78.4514 131.471C78.4501 131.462 78.4483 131.453 78.4461 131.444C78.4378 131.42 78.4242 131.398 78.4064 131.38L77.5698 130.626C77.5311 130.591 77.4962 130.551 77.4656 130.509C77.4562 130.496 77.4495 130.482 77.4412 130.469C77.4238 130.442 77.4086 130.413 77.3957 130.383C77.3891 130.367 77.3841 130.352 77.3791 130.336C77.3704 130.308 77.3639 130.28 77.3598 130.251C77.3575 130.235 77.3552 130.219 77.3544 130.203C77.354 130.194 77.3514 130.185 77.3514 130.176L77.3447 132.524L77.6184 132.488Z" fill="url(#paint7_linear)"/>
<path d="M51.0633 47.7551C51.1931 47.6608 51.3457 47.6028 51.5054 47.5873C51.6652 47.5718 51.8261 47.5993 51.9717 47.6669L53.6676 48.6525C53.5221 48.5849 53.3611 48.5574 53.2014 48.5729C53.0417 48.5884 52.889 48.6463 52.7592 48.7407L47.1822 51.9606L45.4863 50.975L51.0633 47.7551Z" fill="#E8E8E8"/>
<path d="M47.182 51.961L45.486 50.975L29.631 60.129L31.327 61.115L47.182 51.961Z" fill="white"/>
<path d="M41.2461 50.7618C41.4817 50.5902 41.7589 50.4847 42.0489 50.4562C42.3389 50.4276 42.6314 50.4771 42.8959 50.5994L44.5918 51.5849C44.3273 51.4626 44.0349 51.4132 43.7448 51.4418C43.4548 51.4703 43.1776 51.5758 42.942 51.7474L41.3518 52.6655L39.6559 51.6799L41.2461 50.7618Z" fill="white"/>
<path d="M39.2286 51.4555C38.6146 51.855 38.1038 52.3941 37.7378 53.0287C37.3719 53.6633 37.1612 54.3755 37.123 55.107C37.1269 56.4487 38.0748 56.9889 39.2424 56.3148C39.8569 55.9159 40.3683 55.3774 40.7349 54.7432C41.1015 54.109 41.3129 53.397 41.3519 52.6655C41.3481 51.3238 40.3963 50.7814 39.2286 51.4555Z" fill="#E8E8E8"/>
<path d="M33.8331 55.0416L35.4271 54.1214C35.4653 53.3898 35.6759 52.6777 36.0419 52.0431C36.4078 51.4085 36.9187 50.8694 37.5327 50.4699C37.7478 50.3135 38.0008 50.2175 38.2654 50.1917C38.5301 50.1659 38.7969 50.2113 39.0381 50.3232L40.7341 51.3088C40.4929 51.1969 40.2261 51.1515 39.9614 51.1773C39.6968 51.2031 39.4438 51.2991 39.2287 51.4555C38.6147 51.855 38.1038 52.3941 37.7379 53.0287C37.3719 53.6633 37.1612 54.3754 37.1231 55.107L35.5291 56.0273C34.8564 56.4636 34.2966 57.053 33.8953 57.7472C33.4941 58.4414 33.2628 59.2207 33.2205 60.0214L31.5245 59.0358C31.5668 58.2351 31.7981 57.4558 32.1993 56.7616C32.6005 56.0674 33.1604 55.478 33.8331 55.0416V55.0416Z" fill="white"/>
<path d="M26.0611 64.1549C25.6893 64.3972 25.38 64.7239 25.1585 65.1084C24.9369 65.4929 24.8094 65.9243 24.7862 66.3675L24.9007 106.751C24.903 107.563 25.4772 107.89 26.1839 107.482L52.8821 92.068C53.2537 91.8267 53.563 91.5008 53.7846 91.117C54.0061 90.7332 54.1338 90.3024 54.157 89.8599L54.0425 49.4764C54.0402 48.6643 53.466 48.3327 52.7593 48.7407L47.1823 51.9606L47.1878 53.8981C47.1646 54.3413 47.0371 54.7727 46.8155 55.1572C46.594 55.5417 46.2847 55.8684 45.913 56.1107L32.6195 63.7857C31.9128 64.1937 31.3348 63.8643 31.3325 63.0522L31.327 61.1147L26.0611 64.1549Z" fill="#F2F2F2"/>
<path d="M51.61 50.8647C51.7331 50.7937 51.8727 50.7563 52.0148 50.7564C52.157 50.7564 52.2966 50.7939 52.4197 50.8649C52.5428 50.936 52.645 51.0383 52.716 51.1614C52.7871 51.2844 52.8245 51.4241 52.8245 51.5662V72.0268L52.83 72.0237V85.2207C52.9153 86.2253 53.2683 87.1888 53.8523 88.0108C54.4363 88.8327 55.2298 89.4832 56.1504 89.8945C56.6209 90.1259 57.1465 90.2216 57.6683 90.1705C57.6875 90.1669 57.7072 90.1702 57.7242 90.1798C57.7411 90.1893 57.7541 90.2046 57.7609 90.2229C57.7676 90.2411 57.7677 90.2612 57.7611 90.2795C57.7544 90.2977 57.7415 90.3131 57.7247 90.3228C53.7913 92.6008 32.1271 105.146 31.5737 105.42C31.2123 105.608 30.8111 105.706 30.404 105.706C29.9968 105.706 29.5956 105.608 29.2342 105.42C28.3139 105.009 27.5205 104.358 26.9366 103.536C26.3527 102.714 25.9995 101.751 25.9139 100.746V66.6107C25.9139 66.3307 25.9876 66.0557 26.1276 65.8132C26.2677 65.5707 26.4691 65.3694 26.7116 65.2295L51.61 50.8647Z" fill="white"/>
<path d="M24.3652 63.1693L29.631 60.129L31.327 61.1146L26.0611 64.1549C25.6893 64.3972 25.38 64.7239 25.1585 65.1084C24.9369 65.4929 24.8094 65.9243 24.7862 66.3674L24.9007 106.751C24.8847 106.909 24.9109 107.067 24.9764 107.212C25.0419 107.356 25.1445 107.48 25.2737 107.572L23.5777 106.586C23.4485 106.494 23.346 106.37 23.2804 106.226C23.2149 106.082 23.1888 105.923 23.2047 105.765L23.0902 65.3818C23.1134 64.9387 23.241 64.5073 23.4625 64.1228C23.6841 63.7383 23.9934 63.4116 24.3652 63.1693V63.1693Z" fill="#E8E8E8"/>
<path d="M39.2335 52.7954C38.9581 52.9746 38.7289 53.2164 38.5648 53.5011C38.4007 53.7858 38.3062 54.1052 38.289 54.4333C38.2907 55.0352 38.7159 55.2775 39.2397 54.9751C39.5153 54.7962 39.7447 54.5546 39.9091 54.2701C40.0736 53.9857 40.1684 53.6663 40.1859 53.3382C40.1842 52.7363 39.7573 52.493 39.2335 52.7954Z" fill="white"/>
<path d="M33.2229 59.9925C33.2697 59.197 33.5028 58.4237 33.9034 57.735C34.304 57.0462 34.8609 56.4612 35.5291 56.0273L37.1231 55.107C37.1269 56.4487 38.0748 56.9889 39.2424 56.3148C39.8569 55.9159 40.3683 55.3774 40.7349 54.7432C41.1015 54.1089 41.3129 53.397 41.3518 52.6655L42.942 51.7474C44.221 51.0089 45.2615 51.5974 45.2657 53.0671L47.1822 51.9606L47.1878 53.8981C47.1646 54.3413 47.037 54.7727 46.8155 55.1572C46.594 55.5417 46.2847 55.8684 45.9129 56.1107L32.6195 63.7856C31.9127 64.1936 31.3348 63.8642 31.3325 63.0522L31.327 61.1146L33.2229 59.9925Z" fill="#E8E8E8"/>
<path d="M39.2714 67.8881C39.0858 68.0091 38.9315 68.1723 38.821 68.3644C38.7106 68.5565 38.6471 68.772 38.6359 68.9932C38.6371 69.3992 38.9222 69.5662 39.2756 69.3622L48.659 63.9447C48.8452 63.8234 49.0001 63.6599 49.1112 63.4675C49.2223 63.2751 49.2864 63.0592 49.2983 62.8373C49.2972 62.4313 49.0082 62.2665 48.6548 62.4706L39.2714 67.8881Z" fill="#0078D4"/>
<path d="M39.2714 71.0236C39.0858 71.1446 38.9315 71.3079 38.821 71.4999C38.7106 71.692 38.6471 71.9075 38.6359 72.1288C38.6371 72.5348 38.9222 72.6973 39.2756 72.4933L44.6029 69.4176C44.7889 69.2972 44.9439 69.1345 45.055 68.9428C45.1661 68.7511 45.2303 68.5358 45.2423 68.3146C45.2411 67.9086 44.9521 67.7438 44.5987 67.9479L39.2714 71.0236Z" fill="#0078D4"/>
<path d="M39.2714 77.8714C39.086 77.9915 38.9316 78.154 38.8212 78.3453C38.7107 78.5367 38.6472 78.7515 38.6359 78.9722C38.637 79.3782 38.9222 79.5452 39.2756 79.3411L48.659 73.9237C48.8452 73.8024 49.0001 73.6389 49.1112 73.4465C49.2223 73.2541 49.2864 73.0381 49.2983 72.8163C49.2972 72.4103 49.0082 72.2499 48.6548 72.454L39.2714 77.8714Z" fill="#E8E8E8"/>
<path d="M39.2714 81.2182C39.0858 81.3392 38.9315 81.5025 38.821 81.6945C38.7106 81.8866 38.6471 82.1021 38.6359 82.3234C38.6371 82.7294 38.9223 82.8964 39.2756 82.6924L44.6029 79.6166C44.7891 79.4953 44.944 79.3318 45.0551 79.1394C45.1662 78.947 45.2303 78.7311 45.2423 78.5092C45.2411 78.1032 44.9521 77.9385 44.5987 78.1425L39.2714 81.2182Z" fill="#E8E8E8"/>
<path d="M39.2714 88.446C39.0858 88.567 38.9315 88.7302 38.821 88.9223C38.7106 89.1144 38.6471 89.3299 38.6359 89.5512C38.6371 89.9572 38.9222 90.1242 39.2756 89.9201L48.659 84.5026C48.8451 84.3813 49.0001 84.2179 49.1112 84.0254C49.2222 83.833 49.2864 83.6171 49.2983 83.3953C49.2971 82.9893 49.0082 82.8245 48.6548 83.0285L39.2714 88.446Z" fill="#E8E8E8"/>
<path d="M39.2714 91.7955C39.0858 91.9165 38.9315 92.0797 38.821 92.2717C38.7106 92.4638 38.6471 92.6793 38.6359 92.9006C38.6371 93.3066 38.9222 93.4691 39.2756 93.2651L44.6029 90.1894C44.7889 90.069 44.9439 89.9063 45.055 89.7146C45.1661 89.5229 45.2303 89.3077 45.2423 89.0864C45.2411 88.6803 44.9521 88.5157 44.5987 88.7197L39.2714 91.7955Z" fill="#E8E8E8"/>
<path d="M35.9851 70.784C35.9259 71.883 35.6079 72.9525 35.0571 73.9053C34.5062 74.8582 33.7381 75.6675 32.8153 76.2673C31.0663 77.2771 29.6367 76.4624 29.631 74.4525C29.689 73.3535 30.0058 72.2837 30.5555 71.3302C31.1053 70.3768 31.8725 69.5667 32.7946 68.9659C34.5498 67.9525 35.9794 68.7671 35.9851 70.784Z" fill="#0078D4"/>
<path d="M33.857 70.9833C33.751 71.0494 33.6638 71.1416 33.6036 71.251L32.4393 73.2676L32.0159 73.0334L31.9852 73.0018C31.9445 72.9834 31.8997 72.976 31.8552 72.9804C31.8107 72.9847 31.7681 73.0007 31.7318 73.0267C31.6273 73.0917 31.5418 73.1829 31.4837 73.2914C31.3435 73.5272 31.3442 73.7802 31.4792 73.8642L31.4732 73.8747L32.191 74.2768C32.2325 74.2934 32.2776 74.2993 32.322 74.2939C32.3664 74.2886 32.4088 74.2721 32.4452 74.2461C32.5502 74.1812 32.6373 74.091 32.6986 73.9837L34.1067 71.5377C34.2469 71.2949 34.2462 71.0419 34.1112 70.9579C34.0703 70.9395 34.0253 70.9321 33.9807 70.9365C33.9361 70.941 33.8934 70.9571 33.857 70.9833Z" fill="white"/>
<path d="M35.9851 80.948C35.9259 82.047 35.6079 83.1165 35.0571 84.0694C34.5062 85.0222 33.7381 85.8315 32.8153 86.4313C31.0663 87.4411 29.6367 86.6264 29.631 84.6166C29.689 83.5175 30.0058 82.4477 30.5555 81.4942C31.1053 80.5408 31.8725 79.7307 32.7946 79.1299C34.5498 78.1165 35.9794 78.9311 35.9851 80.948Z" stroke="#E8E8E8" stroke-width="0.60158" stroke-miterlimit="10"/>
<path d="M33.857 81.1473C33.751 81.2134 33.6638 81.3055 33.6036 81.415L32.4393 83.4316L32.0159 83.1974L31.9852 83.1658C31.9445 83.1474 31.8997 83.14 31.8552 83.1443C31.8107 83.1487 31.7681 83.1647 31.7318 83.1907C31.6273 83.2556 31.5418 83.3469 31.4837 83.4554C31.3435 83.6912 31.3442 83.9442 31.4792 84.0281L31.4732 84.0386L32.191 84.4407C32.2325 84.4573 32.2776 84.4632 32.322 84.4579C32.3664 84.4525 32.4088 84.4361 32.4452 84.4101C32.5502 84.3452 32.6373 84.2549 32.6986 84.1477L34.1067 81.7017C34.2469 81.4588 34.2462 81.2058 34.1112 81.1219C34.0703 81.1034 34.0253 81.0961 33.9807 81.1005C33.9361 81.105 33.8934 81.1211 33.857 81.1473V81.1473Z" fill="#E8E8E8"/>
<path d="M35.9851 91.112C35.9259 92.211 35.6079 93.2805 35.0571 94.2333C34.5062 95.1862 33.7381 95.9954 32.8153 96.5952C31.0663 97.605 29.6367 96.7903 29.631 94.7805C29.689 93.6814 30.0058 92.6116 30.5555 91.6582C31.1053 90.7047 31.8725 89.8946 32.7946 89.2938C34.5498 88.2805 35.9794 89.0951 35.9851 91.112Z" stroke="#E8E8E8" stroke-width="0.60158" stroke-miterlimit="10"/>
<path d="M33.857 91.3113C33.751 91.3773 33.6638 91.4695 33.6036 91.579L32.4393 93.5956L32.0159 93.3614L31.9852 93.3298C31.9445 93.3114 31.8997 93.304 31.8552 93.3083C31.8107 93.3127 31.7681 93.3287 31.7318 93.3547C31.6273 93.4196 31.5418 93.5109 31.4837 93.6194C31.3435 93.8552 31.3442 94.1082 31.4792 94.1921L31.4732 94.2026L32.191 94.6047C32.2325 94.6213 32.2776 94.6272 32.322 94.6219C32.3664 94.6165 32.4088 94.6001 32.4452 94.5741C32.5502 94.5092 32.6373 94.4189 32.6986 94.3117L34.1067 91.8657C34.2469 91.6228 34.2462 91.3698 34.1112 91.2859C34.0703 91.2674 34.0253 91.2601 33.9807 91.2645C33.9361 91.269 33.8934 91.2851 33.857 91.3113Z" fill="#E8E8E8"/>
</g>
<defs>
<linearGradient id="paint0_linear" x1="79.6785" y1="8.27838" x2="79.6785" y2="179.694" gradientUnits="userSpaceOnUse">
<stop stop-color="#00ABDE"/>
<stop offset="1" stop-color="#007ED8"/>
</linearGradient>
<linearGradient id="paint1_linear" x1="74.0694" y1="115.443" x2="74.0694" y2="108.157" gradientUnits="userSpaceOnUse">
<stop stop-color="#F0F0F0" stop-opacity="0"/>
<stop offset="1" stop-color="#F0F0F0" stop-opacity="0.5"/>
</linearGradient>
<linearGradient id="paint2_linear" x1="74.0756" y1="120.407" x2="74.0756" y2="101.797" gradientUnits="userSpaceOnUse">
<stop stop-color="white"/>
<stop offset="0.56" stop-color="#FBFBFB"/>
<stop offset="1" stop-color="#F2F2F2"/>
</linearGradient>
<linearGradient id="paint3_linear" x1="74.1967" y1="127.143" x2="74.1477" y2="107.499" gradientUnits="userSpaceOnUse">
<stop stop-color="white" stop-opacity="0.5"/>
<stop offset="1" stop-color="#FCFCFC" stop-opacity="0"/>
</linearGradient>
<linearGradient id="paint4_linear" x1="74.0755" y1="120.407" x2="74.0755" y2="101.797" gradientUnits="userSpaceOnUse">
<stop stop-color="white"/>
<stop offset="0.56" stop-color="#FBFBFB"/>
<stop offset="1" stop-color="#F2F2F2"/>
</linearGradient>
<linearGradient id="paint5_linear" x1="193.944" y1="434.069" x2="193.944" y2="439.517" gradientUnits="userSpaceOnUse">
<stop stop-color="#F0F0F0" stop-opacity="0"/>
<stop offset="1" stop-color="#F0F0F0" stop-opacity="0.5"/>
</linearGradient>
<linearGradient id="paint6_linear" x1="85.4388" y1="143.34" x2="85.4235" y2="134.772" gradientUnits="userSpaceOnUse">
<stop stop-color="white" stop-opacity="0.5"/>
<stop offset="1" stop-color="#FCFCFC" stop-opacity="0"/>
</linearGradient>
<linearGradient id="paint7_linear" x1="164.308" y1="435.837" x2="164.308" y2="441.35" gradientUnits="userSpaceOnUse">
<stop stop-color="#F0F0F0" stop-opacity="0"/>
<stop offset="1" stop-color="#F0F0F0" stop-opacity="0.5"/>
</linearGradient>
<clipPath id="clip0">
<rect width="159.356" height="188" fill="white"/>
</clipPath>
</defs>
</svg>
