<svg width="100" height="100" viewBox="0 0 100 100" fill="none" xmlns="https://www.w3.org/2000/svg">
<g clip-path="url(#clip0)">
<path d="M49.6401 96.4481C40.382 96.4481 31.3317 93.7028 23.6339 88.5592C15.936 83.4157 9.93624 76.105 6.3933 67.5516C2.85036 58.9981 1.92337 49.5862 3.72954 40.506C5.53571 31.4257 9.99394 23.085 16.5404 16.5385C23.0869 9.99198 31.4277 5.53376 40.5079 3.72759C49.5882 1.92141 59.0001 2.84841 67.5535 6.39135C76.1069 9.93428 83.4176 15.934 88.5612 23.6319C93.7047 31.3298 96.4501 40.38 96.4501 49.6381C96.4505 55.7854 95.24 61.8726 92.8878 67.5521C90.5355 73.2315 87.0875 78.392 82.7407 82.7388C78.3939 87.0856 73.2335 90.5335 67.554 92.8858C61.8746 95.2381 55.7874 96.4486 49.6401 96.4481V96.4481Z" fill="url(#paint0_linear)"/>
<path fill-rule="evenodd" clip-rule="evenodd" d="M95.54 49.64C95.54 58.7182 92.848 67.5925 87.8045 75.1407C82.7609 82.6889 75.5923 88.572 67.2052 92.0461C58.818 95.5201 49.5891 96.4291 40.6854 94.658C31.7816 92.887 23.603 88.5154 17.1838 82.0962C10.7646 75.677 6.39302 67.4984 4.62196 58.5946C2.85089 49.6909 3.75987 40.462 7.23393 32.0748C10.708 23.6877 16.5911 16.5191 24.1393 11.4755C31.6875 6.43199 40.5618 3.74 49.64 3.74C55.6677 3.73998 61.6363 4.9272 67.2052 7.23388C72.774 9.54057 77.834 12.9215 82.0963 17.1837C86.3585 21.446 89.7394 26.5059 92.0461 32.0748C94.3528 37.6437 95.54 43.6123 95.54 49.64V49.64ZM49.64 3.62732e-07C59.4579 3.62732e-07 69.0553 2.91134 77.2185 8.36585C85.3818 13.8204 91.7442 21.5731 95.5014 30.6436C99.2585 39.7141 100.242 49.6951 98.3262 59.3243C96.4108 68.9535 91.6831 77.7985 84.7408 84.7408C77.7985 91.6831 68.9535 96.4108 59.3243 98.3262C49.6951 100.242 39.7141 99.2585 30.6436 95.5014C21.5731 91.7442 13.8204 85.3818 8.36585 77.2185C2.91134 69.0553 3.62732e-07 59.4579 3.62732e-07 49.64C-0.000787738 43.121 1.28265 36.6656 3.77702 30.6427C6.27138 24.6197 9.9278 19.1471 14.5375 14.5375C19.1471 9.9278 24.6197 6.27138 30.6427 3.77702C36.6656 1.28265 43.121 -0.000787738 49.64 3.62732e-07V3.62732e-07Z" fill="#F2F1F0"/>
<path fill-rule="evenodd" clip-rule="evenodd" d="M92.7296 49.6386C92.7296 58.161 90.2024 66.492 85.4676 73.5781C80.7328 80.6643 74.0031 86.1872 66.1294 89.4486C58.2558 92.71 49.5918 93.5633 41.2332 91.9007C32.8745 90.238 25.1966 86.1341 19.1704 80.1079C13.1441 74.0816 9.0402 66.4037 7.37756 58.0451C5.71493 49.6864 6.56825 41.0225 9.82963 33.1488C13.091 25.2751 18.614 18.5454 25.7001 13.8106C32.7862 9.07581 41.1172 6.54862 49.6396 6.54862C55.2984 6.54828 60.9018 7.6626 66.1298 9.82795C71.3579 11.9933 76.1083 15.1673 80.1096 19.1686C84.1109 23.17 87.2849 27.9203 89.4503 33.1484C91.6156 38.3765 92.7299 43.9799 92.7296 49.6386V49.6386ZM49.6396 2.80862C58.9017 2.80862 67.9558 5.55515 75.657 10.7009C83.3581 15.8466 89.3604 23.1605 92.9049 31.7176C96.4493 40.2746 97.3767 49.6906 95.5698 58.7747C93.7628 67.8588 89.3027 76.2031 82.7534 82.7524C76.2041 89.3017 67.8598 93.7619 58.7757 95.5688C49.6916 97.3757 40.2756 96.4484 31.7185 92.9039C23.1615 89.3594 15.8476 83.3571 10.7019 75.656C5.55613 67.9548 2.8096 58.9007 2.8096 49.6386C2.81079 37.2189 7.74503 25.3082 16.5271 16.5261C25.3092 7.74403 37.2199 2.80979 49.6396 2.80859V2.80862Z" fill="#0078D4"/>
<path fill-rule="evenodd" clip-rule="evenodd" d="M68.9748 72.035C68.9721 72.9657 68.6011 73.8575 67.943 74.5157C67.2849 75.1738 66.393 75.5447 65.4623 75.5475H33.8501C32.9193 75.5447 32.0275 75.1738 31.3694 74.5157C30.7112 73.8575 30.3403 72.9657 30.3376 72.035V45.6914H68.9748V72.035Z" fill="#0078D4"/>
<path fill-rule="evenodd" clip-rule="evenodd" d="M68.9748 45.6929C68.9721 46.6236 68.6011 47.5155 67.943 48.1736C67.2849 48.8317 66.393 49.2027 65.4623 49.2054H33.8501C32.9193 49.2027 32.0275 48.8317 31.3694 48.1736C30.7113 47.5155 30.3403 46.6236 30.3376 45.6929V42.1804C30.3403 41.2497 30.7113 40.3578 31.3694 39.6997C32.0275 39.0416 32.9193 38.6707 33.8501 38.668H65.4623C66.393 38.6707 67.2849 39.0416 67.943 39.6997C68.6011 40.3578 68.9721 41.2497 68.9748 42.1804V45.6929Z" fill="#1B93EB"/>
<path opacity="0.2" fill-rule="evenodd" clip-rule="evenodd" d="M65.4623 50.0828H51.4124C51.1817 50.0827 50.9533 50.1281 50.7402 50.2163C50.5271 50.3046 50.3335 50.4339 50.1704 50.597C50.0073 50.7601 49.878 50.9537 49.7897 51.1668C49.7015 51.3799 49.6561 51.6083 49.6562 51.839V72.0357C49.6562 72.2663 49.6109 72.4947 49.5226 72.7078C49.4344 72.9209 49.305 73.1146 49.1419 73.2777C48.9789 73.4408 48.7852 73.5701 48.5721 73.6584C48.359 73.7466 48.1306 73.792 47.9 73.792H33.8501C32.9193 73.7892 32.0275 73.4183 31.3694 72.7602C30.7112 72.102 30.3403 71.2102 30.3376 70.2795V72.0357C30.3403 72.9664 30.7112 73.8582 31.3694 74.5164C32.0275 75.1745 32.9193 75.5454 33.8501 75.5482H65.4623C66.393 75.5454 67.2849 75.1745 67.943 74.5164C68.6011 73.8583 68.9721 72.9664 68.9748 72.0357V46.5703C68.9721 47.501 68.6011 48.3929 67.943 49.051C67.2849 49.7091 66.393 50.0801 65.4623 50.0828V50.0828Z" fill="#1F56A3"/>
<path fill-rule="evenodd" clip-rule="evenodd" d="M49.6561 54.4922C48.147 54.4922 46.6717 54.9397 45.417 55.7781C44.1622 56.6166 43.1842 57.8082 42.6066 59.2025C42.0291 60.5968 41.878 62.131 42.1724 63.6111C42.4668 65.0912 43.1936 66.4508 44.2607 67.5179C45.3278 68.5851 46.6874 69.3118 48.1675 69.6062C49.6476 69.9006 51.1818 69.7495 52.5761 69.172C53.9704 68.5945 55.162 67.6165 56.0005 66.3617C56.8389 65.1069 57.2864 63.6317 57.2864 62.1225C57.2857 60.0991 56.4816 58.1587 55.0508 56.7279C53.62 55.2971 51.6796 54.4929 49.6561 54.4922V54.4922Z" fill="white"/>
<path fill-rule="evenodd" clip-rule="evenodd" d="M41.753 43.9351C41.753 45.3893 40.1803 46.5695 38.2405 46.5695C36.3008 46.5695 34.7281 45.3893 34.7281 43.9351C34.7281 42.4809 36.3008 41.3008 38.2405 41.3008C40.1803 41.3008 41.753 42.4809 41.753 43.9351Z" fill="#0078D4"/>
<path fill-rule="evenodd" clip-rule="evenodd" d="M64.5844 43.9351C64.5844 45.3893 63.0117 46.5695 61.0719 46.5695C59.1321 46.5695 57.5594 45.3893 57.5594 43.9351C57.5594 42.4809 59.1321 41.3008 61.0719 41.3008C63.0117 41.3008 64.5844 42.4809 64.5844 43.9351Z" fill="#0078D4"/>
<path fill-rule="evenodd" clip-rule="evenodd" d="M49.6563 19.3477C45.9314 19.352 42.3603 20.8336 39.7264 23.4676C37.0924 26.1015 35.6108 29.6726 35.6064 33.3975V45.6604C36.3583 46.2493 37.2858 46.5693 38.2408 46.5693C39.1958 46.5693 40.1233 46.2493 40.8752 45.6604V33.3975C40.8752 31.0686 41.8003 28.8351 43.4471 27.1883C45.0939 25.5415 47.3274 24.6163 49.6563 24.6163C51.9852 24.6163 54.2188 25.5415 55.8656 27.1883C57.5123 28.8351 58.4375 31.0686 58.4375 33.3975V38.2724C58.4375 39.2418 59.6168 40.0286 61.0718 40.0286C62.5269 40.0286 63.7062 39.2418 63.7062 38.2724V33.3975C63.7019 29.6726 62.2202 26.1015 59.5863 23.4676C56.9524 20.8336 53.3813 19.352 49.6563 19.3477Z" fill="#F2F2F2"/>
<path fill-rule="evenodd" clip-rule="evenodd" d="M44.6195 25.2843C42.9674 26.0078 41.5649 27.2015 40.5867 28.7166C39.6086 30.2318 39.0981 32.0014 39.1189 33.8047V42.7931C39.1201 43.0617 39.0594 43.327 38.9417 43.5684C38.8239 43.8098 38.6522 44.0209 38.4398 44.1854C38.2274 44.3498 37.9801 44.4632 37.7169 44.5167C37.4536 44.5702 37.1816 44.5625 36.9219 44.4941C36.4485 44.3877 36.0013 44.1877 35.6065 43.9057V45.662C36.3496 46.2667 37.2829 46.5886 38.2409 46.5708C38.5359 46.5685 38.83 46.5373 39.1189 46.4777C39.2928 46.4439 39.4643 46.3993 39.6327 46.3443C39.7178 46.3162 39.7969 46.2811 39.8777 46.2486C39.9988 46.1994 40.1165 46.1467 40.2289 46.0878C40.2895 46.0554 40.3501 46.0246 40.408 45.9895C40.5729 45.894 40.7292 45.7844 40.8752 45.662V33.399C40.878 31.223 41.6875 29.1254 43.1473 27.5116C44.6071 25.8979 46.6134 24.8828 48.7782 24.6626C47.3617 24.5149 45.9308 24.7288 44.6195 25.2843V25.2843Z" fill="#E8E8E8"/>
<path fill-rule="evenodd" clip-rule="evenodd" d="M49.6566 19.3477C49.3607 19.3477 49.0709 19.3731 48.7786 19.3924C52.3423 19.6171 55.6869 21.1897 58.1333 23.7909C60.5797 26.392 61.9444 29.8267 61.9503 33.3975V36.6448C61.9512 36.9139 61.8901 37.1795 61.7718 37.4211C61.6535 37.6628 61.4811 37.8739 61.2681 38.0382C61.0551 38.2025 60.8071 38.3156 60.5433 38.3686C60.2796 38.4216 60.0071 38.4132 59.7472 38.3441C59.276 38.2377 58.8308 38.0382 58.4378 37.7574V38.3189C58.4342 38.7578 58.5745 39.1858 58.8371 39.5375C59.0997 39.8892 59.4703 40.1453 59.8922 40.2665C60.6651 40.4745 61.4793 40.4745 62.2523 40.2665C62.6741 40.1453 63.0447 39.8893 63.3073 39.5376C63.5699 39.1859 63.7101 38.7579 63.7066 38.319V33.3975C63.7022 29.6726 62.2205 26.1015 59.5866 23.4676C56.9527 20.8336 53.3816 19.352 49.6566 19.3477V19.3477Z" fill="#E8E8E8"/>
<path d="M54.5721 60.5685L51.9343 60.5672L51.5993 60.993V63.8153C51.6847 64.2158 51.9049 64.5748 52.2232 64.8324C52.5415 65.09 52.9386 65.2305 53.348 65.2305C53.7575 65.2305 54.1546 65.09 54.4728 64.8324C54.7911 64.5748 55.0114 64.2158 55.0967 63.8153V60.993C55.0821 60.8678 55.019 60.7532 54.921 60.6738C54.8229 60.5945 54.6977 60.5567 54.5721 60.5685H54.5721Z" fill="#5059C9"/>
<path d="M53.5423 60.1793C53.7729 60.1793 53.9983 60.1109 54.19 59.9828C54.3817 59.8547 54.5311 59.6726 54.6194 59.4596C54.7076 59.2466 54.7307 59.0122 54.6857 58.786C54.6407 58.5599 54.5297 58.3522 54.3667 58.1891C54.2036 58.0261 53.9959 57.915 53.7698 57.8701C53.5436 57.8251 53.3092 57.8482 53.0962 57.9364C52.8832 58.0246 52.7011 58.1741 52.573 58.3658C52.4449 58.5575 52.3765 58.7829 52.3765 59.0135C52.3765 59.1666 52.4067 59.3181 52.4653 59.4596C52.5238 59.601 52.6097 59.7295 52.718 59.8378C52.8262 59.9461 52.9547 60.0319 53.0962 60.0905C53.2376 60.1491 53.3892 60.1793 53.5423 60.1793V60.1793Z" fill="#5059C9"/>
<path d="M47.3247 64.7497V61.0125C47.3247 60.9545 47.3361 60.897 47.3584 60.8433C47.3806 60.7896 47.4132 60.7409 47.4542 60.6998C47.4953 60.6588 47.544 60.6262 47.5977 60.604C47.6514 60.5817 47.7089 60.5703 47.7669 60.5703H51.9343C52.0516 60.5703 52.164 60.6169 52.247 60.6998C52.3299 60.7827 52.3765 60.8952 52.3765 61.0125V64.7497C52.3765 65.3933 52.1208 66.0106 51.6657 66.4657C51.2106 66.9208 50.5933 67.1765 49.9497 67.1765H49.7515C49.1079 67.1765 48.4906 66.9208 48.0355 66.4657C47.5804 66.0106 47.3247 65.3933 47.3247 64.7497V64.7497Z" fill="#7B83EB"/>
<path d="M50.0449 60.1791C50.3523 60.1791 50.6529 60.0879 50.9085 59.9171C51.1641 59.7463 51.3633 59.5036 51.481 59.2196C51.5986 58.9355 51.6294 58.623 51.5694 58.3215C51.5095 58.0199 51.3614 57.743 51.144 57.5256C50.9266 57.3082 50.6497 57.1602 50.3482 57.1002C50.0466 57.0402 49.7341 57.071 49.4501 57.1886C49.166 57.3063 48.9233 57.5055 48.7525 57.7611C48.5817 58.0168 48.4905 58.3173 48.4905 58.6247C48.4905 59.037 48.6543 59.4323 48.9458 59.7238C49.2373 60.0153 49.6327 60.1791 50.0449 60.1791V60.1791Z" fill="#7B83EB"/>
<path opacity="0.5" d="M47.3732 65.2296H48.9656C49.5616 65.2296 50.0449 64.9939 50.0449 64.3926V60.5664H47.7731C47.5255 60.5664 47.3247 61.5444 47.3247 61.792V64.7458C47.3247 64.9083 47.341 65.0704 47.3732 65.2296V65.2296Z" fill="black"/>
<path opacity="0.5" d="M50.0186 60.179C49.9849 60.0678 49.9164 59.9703 49.8232 59.9009C49.7301 59.8314 49.6171 59.7936 49.5009 59.793H49.0266C49.3009 60.0354 49.6526 60.1722 50.0186 60.179V60.179Z" fill="black"/>
<path d="M49.1123 59.4023H44.76C44.6157 59.4023 44.4774 59.4597 44.3753 59.5617C44.2733 59.6637 44.216 59.8021 44.216 59.9463V64.2987C44.216 64.4429 44.2733 64.5813 44.3753 64.6833C44.4774 64.7853 44.6157 64.8427 44.76 64.8427H49.1123C49.2566 64.8427 49.395 64.7853 49.497 64.6833C49.599 64.5813 49.6563 64.4429 49.6563 64.2987V59.9464C49.6563 59.8749 49.6423 59.8042 49.6149 59.7382C49.5876 59.6722 49.5475 59.6122 49.497 59.5617C49.4465 59.5112 49.3865 59.4711 49.3205 59.4437C49.2545 59.4164 49.1837 59.4023 49.1123 59.4023Z" fill="#4B53BC"/>
<path d="M48.4473 61.0185H47.2383V64.041H46.6338V61.0185H45.4248V60.4141H48.4473L48.4473 61.0185Z" fill="white"/>
<path opacity="0.2" fill-rule="evenodd" clip-rule="evenodd" d="M30.3375 49.2031V60.7442L34.891 65.2977C35.418 65.8245 36.1322 66.1212 36.8773 66.1229C37.6204 66.1227 38.333 65.8274 38.8584 65.3019C39.3838 64.7764 39.679 64.0638 39.6791 63.3207V60.5077H40.5424C41.3768 60.5068 42.1768 60.1749 42.7668 59.585C43.3569 58.995 43.6888 58.1951 43.6898 57.3607V49.2031H30.3375Z" fill="#003067"/>
<path opacity="0.2" fill-rule="evenodd" clip-rule="evenodd" d="M68.9747 51.293H61.5277C60.7583 51.2937 60.0206 51.5997 59.4765 52.1437C58.9323 52.6877 58.6263 53.4254 58.6254 54.1948V65.6377C58.6263 66.4071 58.9323 67.1448 59.4765 67.6888C60.0206 68.2328 60.7583 68.5388 61.5277 68.5396H61.7797V70.3247C61.7797 70.8451 61.9339 71.3538 62.223 71.7864C62.5121 72.2191 62.9231 72.5563 63.4038 72.7554C63.8846 72.9545 64.4136 73.0065 64.924 72.9049C65.4343 72.8033 65.9031 72.5526 66.2709 72.1846L68.9747 69.4804V51.293Z" fill="#003067"/>
<path fill-rule="evenodd" clip-rule="evenodd" d="M18.1378 41.6641H40.5428C40.847 41.6641 41.1387 41.7849 41.3538 42C41.5689 42.2151 41.6898 42.5069 41.6898 42.8111V57.3628C41.6898 57.667 41.5689 57.9587 41.3538 58.1738C41.1387 58.3889 40.847 58.5098 40.5428 58.5098H37.6789V63.3228C37.6789 63.4814 37.6318 63.6365 37.5437 63.7684C37.4556 63.9004 37.3303 64.0032 37.1837 64.0639C37.0371 64.1246 36.8758 64.1405 36.7202 64.1095C36.5646 64.0785 36.4217 64.0021 36.3095 63.8899L30.929 58.5098H18.1378C17.8336 58.5098 17.5418 58.3889 17.3267 58.1738C17.1116 57.9587 16.9908 57.667 16.9908 57.3628V42.811C16.9908 42.5068 17.1116 42.2151 17.3267 42C17.5418 41.7849 17.8336 41.6641 18.1378 41.6641V41.6641Z" fill="white"/>
<path d="M24.1047 51.7839C24.99 51.7839 25.7076 51.0663 25.7076 50.181C25.7076 49.2958 24.99 48.5781 24.1047 48.5781C23.2194 48.5781 22.5018 49.2958 22.5018 50.181C22.5018 51.0663 23.2194 51.7839 24.1047 51.7839Z" fill="#E8E8E8"/>
<path d="M28.9146 51.7839C29.7999 51.7839 30.5175 51.0663 30.5175 50.181C30.5175 49.2958 29.7999 48.5781 28.9146 48.5781C28.0293 48.5781 27.3117 49.2958 27.3117 50.181C27.3117 51.0663 28.0293 51.7839 28.9146 51.7839Z" fill="#E8E8E8"/>
<path d="M33.7245 51.7839C34.6098 51.7839 35.3274 51.0663 35.3274 50.181C35.3274 49.2958 34.6098 48.5781 33.7245 48.5781C32.8393 48.5781 32.1216 49.2958 32.1216 50.181C32.1216 51.0663 32.8393 51.7839 33.7245 51.7839Z" fill="#E8E8E8"/>
<path fill-rule="evenodd" clip-rule="evenodd" d="M79.1463 53.293H61.5277C61.2885 53.293 61.0591 53.388 60.8899 53.5571C60.7208 53.7263 60.6257 53.9557 60.6257 54.1949V65.6379C60.6257 65.7564 60.649 65.8737 60.6944 65.9831C60.7397 66.0925 60.8061 66.192 60.8899 66.2757C60.9736 66.3595 61.0731 66.4259 61.1825 66.4713C61.292 66.5166 61.4092 66.5399 61.5277 66.5399H63.7798V70.3247C63.7798 70.4495 63.8167 70.5715 63.8861 70.6752C63.9554 70.779 64.0539 70.8598 64.1691 70.9076C64.2844 70.9553 64.4113 70.9678 64.5336 70.9434C64.656 70.9191 64.7684 70.859 64.8566 70.7707L69.0877 66.5399H79.1463C79.3855 66.5399 79.6149 66.4449 79.7841 66.2757C79.9532 66.1066 80.0483 65.8772 80.0483 65.6379V54.1949C80.0483 53.9557 79.9532 53.7263 79.7841 53.5572C79.6149 53.388 79.3855 53.293 79.1463 53.293V53.293Z" fill="white"/>
<path d="M74.4431 61.2569C75.1386 61.2569 75.7024 60.6931 75.7024 59.9976C75.7024 59.3021 75.1386 58.7383 74.4431 58.7383C73.7476 58.7383 73.1838 59.3021 73.1838 59.9976C73.1838 60.6931 73.7476 61.2569 74.4431 61.2569Z" fill="#E8E8E8"/>
<path d="M70.6642 61.2569C71.3597 61.2569 71.9235 60.6931 71.9235 59.9976C71.9235 59.3021 71.3597 58.7383 70.6642 58.7383C69.9687 58.7383 69.4048 59.3021 69.4048 59.9976C69.4048 60.6931 69.9687 61.2569 70.6642 61.2569Z" fill="#E8E8E8"/>
<path d="M66.8852 61.2569C67.5807 61.2569 68.1446 60.6931 68.1446 59.9976C68.1446 59.3021 67.5807 58.7383 66.8852 58.7383C66.1897 58.7383 65.6259 59.3021 65.6259 59.9976C65.6259 60.6931 66.1897 61.2569 66.8852 61.2569Z" fill="#E8E8E8"/>
</g>
<defs>
<linearGradient id="paint0_linear" x1="47.8697" y1="-15.155" x2="51.8525" y2="130.613" gradientUnits="userSpaceOnUse">
<stop stop-color="#00ABDE"/>
<stop offset="1" stop-color="#007ED8"/>
</linearGradient>
<clipPath id="clip0">
<rect width="99.2799" height="99.28" fill="white"/>
</clipPath>
</defs>
</svg>
