<svg width="100" height="100" viewBox="0 0 100 100" fill="none" xmlns="http://www.w3.org/2000/svg">
<g clip-path="url(#clip0)">
<path d="M49.6394 96.4501C40.3812 96.4501 31.331 93.7047 23.6331 88.5612C15.9353 83.4176 9.9355 76.1069 6.39257 67.5535C2.84963 59.0001 1.92263 49.5882 3.72881 40.5079C5.53498 31.4277 9.9932 23.0869 16.5397 16.5404C23.0862 9.99394 31.4269 5.53571 40.5072 3.72954C49.5874 1.92337 58.9994 2.85036 67.5528 6.3933C76.1062 9.93624 83.4169 15.936 88.5605 23.6339C93.704 31.3317 96.4494 40.382 96.4494 49.6401C96.4498 55.7874 95.2393 61.8746 92.887 67.554C90.5348 73.2335 87.0868 78.3939 82.74 82.7407C78.3932 87.0875 73.2327 90.5355 67.5533 92.8878C61.8738 95.24 55.7867 96.4505 49.6394 96.4501V96.4501Z" fill="url(#paint0_linear)"/>
<path fill-rule="evenodd" clip-rule="evenodd" d="M95.54 49.64C95.54 58.7182 92.848 67.5924 87.8045 75.1407C82.7609 82.6889 75.5923 88.572 67.2052 92.0461C58.818 95.5201 49.5891 96.4291 40.6854 94.658C31.7816 92.887 23.603 88.5154 17.1838 82.0962C10.7646 75.677 6.39302 67.4984 4.62196 58.5946C2.85089 49.6909 3.75987 40.462 7.23393 32.0748C10.708 23.6877 16.5911 16.5191 24.1393 11.4755C31.6875 6.43198 40.5618 3.73999 49.64 3.73999C55.6677 3.73997 61.6363 4.92719 67.2052 7.23387C72.774 9.54056 77.834 12.9215 82.0963 17.1837C86.3585 21.446 89.7394 26.5059 92.0461 32.0748C94.3528 37.6436 95.54 43.6123 95.54 49.64V49.64ZM49.64 3.62732e-07C59.4579 3.62732e-07 69.0552 2.91134 77.2185 8.36585C85.3818 13.8204 91.7442 21.5731 95.5014 30.6436C99.2585 39.7141 100.242 49.6951 98.3262 59.3243C96.4108 68.9535 91.6831 77.7985 84.7408 84.7408C77.7985 91.6831 68.9535 96.4108 59.3243 98.3262C49.6951 100.242 39.7141 99.2585 30.6436 95.5014C21.5731 91.7442 13.8204 85.3818 8.36584 77.2185C2.91133 69.0552 -1.61629e-06 59.4579 3.61524e-07 49.64C-0.000786426 43.1209 1.28265 36.6656 3.77702 30.6427C6.27138 24.6197 9.92781 19.1471 14.5375 14.5375C19.1471 9.9278 24.6197 6.27138 30.6427 3.77701C36.6656 1.28265 43.121 -0.000787738 49.64 3.62732e-07V3.62732e-07Z" fill="#F2F1F0"/>
<path fill-rule="evenodd" clip-rule="evenodd" d="M92.7296 49.6401C92.7296 58.1625 90.2024 66.4935 85.4676 73.5796C80.7328 80.6657 74.0031 86.1886 66.1294 89.45C58.2557 92.7114 49.5918 93.5647 41.2331 91.9021C32.8745 90.2395 25.1966 86.1355 19.1703 80.1093C13.1441 74.083 9.04017 66.4051 7.37753 58.0465C5.7149 49.6879 6.56822 41.0239 9.8296 33.1502C13.091 25.2766 18.6139 18.5468 25.7 13.812C32.7862 9.07724 41.1172 6.55006 49.6396 6.55006C55.2983 6.54971 60.9017 7.66404 66.1298 9.82939C71.3579 11.9947 76.1082 15.1687 80.1096 19.1701C84.1109 23.1714 87.2849 27.9217 89.4502 33.1498C91.6156 38.3779 92.7299 43.9813 92.7296 49.6401ZM49.6396 2.81006C58.9017 2.81006 67.9558 5.55659 75.6569 10.7023C83.3581 15.8481 89.3604 23.1619 92.9049 31.719C96.4493 40.2761 97.3767 49.692 95.5697 58.7761C93.7628 67.8603 89.3027 76.2046 82.7534 82.7539C76.2041 89.3032 67.8598 93.7633 58.7757 95.5702C49.6915 97.3772 40.2756 96.4498 31.7185 92.9053C23.1614 89.3609 15.8476 83.3586 10.7018 75.6574C5.5561 67.9563 2.80957 58.9022 2.80957 49.6401C2.81076 37.2203 7.74501 25.3096 16.5271 16.5276C25.3091 7.7455 37.2198 2.81125 49.6396 2.81006V2.81006Z" fill="#0078D4"/>
<path fill-rule="evenodd" clip-rule="evenodd" d="M92.7296 49.6401C92.7296 58.1625 90.2024 66.4935 85.4676 73.5796C80.7328 80.6657 74.0031 86.1887 66.1294 89.4501C58.2557 92.7114 49.5918 93.5648 41.2331 91.9021C32.8745 90.2395 25.1966 86.1356 19.1703 80.1093C13.1441 74.0831 9.04017 66.4052 7.37753 58.0465C5.7149 49.6879 6.56822 41.0239 9.8296 33.1503C13.091 25.2766 18.6139 18.5469 25.7001 13.8121C32.7862 9.07728 41.1172 6.5501 49.6396 6.5501C55.2983 6.54975 60.9017 7.66408 66.1298 9.82943C71.3579 11.9948 76.1082 15.1688 80.1096 19.1701C84.1109 23.1714 87.2849 27.9218 89.4502 33.1499C91.6156 38.3779 92.7299 43.9813 92.7296 49.6401V49.6401ZM49.6396 2.8101C58.9017 2.8101 67.9558 5.55663 75.6569 10.7024C83.3581 15.8481 89.3604 23.162 92.9048 31.719C96.4493 40.2761 97.3767 49.692 95.5697 58.7762C93.7628 67.8603 89.3027 76.2046 82.7534 82.7539C76.2041 89.3032 67.8598 93.7633 58.7757 95.5703C49.6915 97.3772 40.2756 96.4498 31.7185 92.9054C23.1614 89.3609 15.8476 83.3586 10.7018 75.6575C5.5561 67.9563 2.80957 58.9022 2.80957 49.6401C2.81075 37.2204 7.74499 25.3097 16.5271 16.5276C25.3091 7.7455 37.2198 2.81125 49.6396 2.81006V2.8101Z" fill="#0078D4"/>
<path opacity="0.2" d="M21.8052 73.729H77.6076C77.9008 73.7281 78.1818 73.6113 78.3891 73.4039C78.5964 73.1966 78.7132 72.9157 78.7141 72.6225V29.0557H20.6987V72.6225C20.6996 72.9157 20.8164 73.1966 21.0238 73.4039C21.2311 73.6113 21.512 73.7281 21.8052 73.729V73.729Z" fill="#003067"/>
<path d="M21.8052 71.4506H77.6076C77.9008 71.4498 78.1818 71.3329 78.3891 71.1256C78.5964 70.9183 78.7132 70.6374 78.7141 70.3442V26.7773H20.6987V70.3442C20.6996 70.6374 20.8164 70.9183 21.0238 71.1256C21.2311 71.3329 21.512 71.4498 21.8052 71.4506V71.4506Z" fill="#F2F2F2"/>
<path d="M20.6987 31.5999H78.7141V26.3996C78.7144 26.2881 78.6927 26.1776 78.6501 26.0746C78.6076 25.9715 78.5451 25.8779 78.4663 25.7991C78.3875 25.7202 78.2938 25.6578 78.1908 25.6152C78.0877 25.5727 77.9773 25.551 77.8658 25.5513H21.547C21.4355 25.551 21.3251 25.5727 21.222 25.6152C21.119 25.6578 21.0254 25.7202 20.9465 25.7991C20.8677 25.8779 20.8052 25.9715 20.7627 26.0746C20.7202 26.1776 20.6984 26.2881 20.6987 26.3996V31.5999Z" fill="url(#paint1_linear)"/>
<path d="M25.1619 30.1704C25.4527 30.1694 25.7368 30.0823 25.9781 29.9199C26.2195 29.7576 26.4073 29.5273 26.5177 29.2582C26.6282 28.9891 26.6564 28.6934 26.5988 28.4082C26.5411 28.1231 26.4002 27.8615 26.1939 27.6565C25.9876 27.4515 25.7251 27.3122 25.4396 27.2564C25.1542 27.2005 24.8586 27.2306 24.5902 27.3427C24.3218 27.4549 24.0927 27.6441 23.9319 27.8865C23.771 28.1288 23.6857 28.4134 23.6866 28.7043C23.685 28.898 23.7221 29.0901 23.7958 29.2693C23.8695 29.4485 23.9783 29.6112 24.1157 29.7478C24.2532 29.8843 24.4165 29.9921 24.5961 30.0646C24.7758 30.1372 24.9681 30.1732 25.1619 30.1704V30.1704Z" fill="#50E6FF"/>
<path d="M73.5717 35.3433H25.8304C25.2013 35.3433 24.6914 35.8532 24.6914 36.4822V66.1603C24.6914 66.7894 25.2013 67.2993 25.8304 67.2993H73.5717C74.2007 67.2993 74.7107 66.7894 74.7107 66.1603V36.4822C74.7107 35.8532 74.2007 35.3433 73.5717 35.3433Z" fill="#E8E8E8"/>
<path opacity="0.2" d="M60.4574 48.9879C60.2373 48.8098 59.9563 48.725 59.6744 48.7515L53.7529 48.7485V48.7486H49.5113V48.7485H48.6391V47.7528C48.9035 47.8237 49.1755 47.863 49.4492 47.8699L49.4525 47.8702C49.4727 47.8706 49.4911 47.8761 49.5113 47.8761C50.2908 47.8849 51.0512 47.6352 51.6739 47.1663C52.2965 46.6973 52.7464 46.0354 52.9533 45.2838C53.1601 44.5323 53.1123 43.7334 52.8173 43.0118C52.5223 42.2903 51.9967 41.6868 51.3226 41.2954C50.6484 40.904 49.8637 40.7469 49.0908 40.8485C48.318 40.9501 47.6005 41.3047 47.0504 41.857C46.5003 42.4093 46.1486 43.1282 46.0501 43.9014C45.9516 44.6747 46.1119 45.4588 46.5059 46.1314H37.6474C37.3235 46.1314 37.0128 46.2601 36.7838 46.4891C36.5547 46.7182 36.4261 47.0288 36.426 47.3527V57.1231C36.4261 57.447 36.5548 57.7577 36.7838 57.9867C37.0128 58.2157 37.3235 58.3444 37.6474 58.3444H43.4261C43.4321 58.6332 43.4611 58.9212 43.5127 59.2054L43.5138 59.2167H43.5162C43.7657 60.448 44.4334 61.555 45.4061 62.35C46.3788 63.1451 47.5966 63.5791 48.8529 63.5786H49.2978C50.6518 63.584 51.9583 63.0802 52.958 62.167C53.9577 61.2539 54.5775 59.9982 54.6944 58.6493C55.3776 59.0262 56.1462 59.2216 56.9265 59.2167C59.0945 59.2167 60.8522 57.7946 60.8522 56.0401V49.7045C60.8193 49.4232 60.6776 49.166 60.4574 48.9879V48.9879Z" fill="#767676"/>
<path opacity="0.2" d="M57.3627 47.8762C57.8803 47.8762 58.3863 47.7227 58.8167 47.4351C59.247 47.1476 59.5824 46.7388 59.7805 46.2606C59.9786 45.7824 60.0304 45.2562 59.9294 44.7486C59.8285 44.2409 59.5792 43.7746 59.2132 43.4086C58.8472 43.0426 58.3809 42.7934 57.8732 42.6924C57.3656 42.5914 56.8394 42.6432 56.3612 42.8413C55.883 43.0394 55.4742 43.3748 55.1867 43.8052C54.8991 44.2355 54.7456 44.7415 54.7456 45.2591C54.7456 45.6028 54.8133 45.9431 54.9448 46.2606C55.0763 46.5782 55.2691 46.8667 55.5121 47.1097C55.7552 47.3527 56.0437 47.5455 56.3612 47.677C56.6787 47.8085 57.019 47.8762 57.3627 47.8762V47.8762Z" fill="#767676"/>
<path d="M59.6745 47.7309L53.753 47.7278L53.001 48.6838V55.0195C53.001 56.7739 54.7586 58.1961 56.9266 58.1961C59.0946 58.1961 60.8522 56.7739 60.8522 55.0195V48.6839C60.8194 48.4026 60.6777 48.1454 60.4576 47.9673C60.2375 47.7892 59.9564 47.7043 59.6745 47.7309L59.6745 47.7309Z" fill="#5059C9"/>
<path d="M57.3627 46.8552C57.8803 46.8552 58.3863 46.7017 58.8166 46.4142C59.247 46.1266 59.5825 45.7179 59.7805 45.2397C59.9786 44.7615 60.0304 44.2353 59.9295 43.7276C59.8285 43.2199 59.5792 42.7536 59.2132 42.3876C58.8472 42.0216 58.3809 41.7724 57.8732 41.6714C57.3656 41.5704 56.8394 41.6222 56.3612 41.8203C55.883 42.0184 55.4742 42.3538 55.1867 42.7842C54.8991 43.2146 54.7456 43.7206 54.7456 44.2382C54.7456 44.5819 54.8133 44.9222 54.9448 45.2397C55.0763 45.5572 55.2691 45.8457 55.5121 46.0887C55.7551 46.3318 56.0436 46.5245 56.3612 46.656C56.6787 46.7876 57.019 46.8552 57.3627 46.8552Z" fill="#5059C9"/>
<path d="M43.405 57.1097V48.7203C43.405 48.5899 43.4307 48.4608 43.4806 48.3404C43.5305 48.2199 43.6036 48.1105 43.6958 48.0183C43.788 47.9261 43.8974 47.853 44.0179 47.8031C44.1383 47.7532 44.2674 47.7275 44.3978 47.7275H53.7529C53.8833 47.7275 54.0124 47.7532 54.1328 47.8031C54.2532 47.853 54.3627 47.9261 54.4549 48.0183C54.547 48.1104 54.6202 48.2199 54.6701 48.3403C54.72 48.4607 54.7456 48.5898 54.7456 48.7202V57.1097C54.7456 58.5546 54.1716 59.9402 53.15 60.9619C52.1283 61.9836 50.7426 62.5575 49.2978 62.5576H48.8529C47.408 62.5575 46.0224 61.9836 45.0007 60.9619C43.979 59.9402 43.4051 58.5546 43.405 57.1097V57.1097Z" fill="#7B83EB"/>
<path d="M49.5116 46.8553C50.2018 46.8553 50.8764 46.6507 51.4503 46.2672C52.0241 45.8838 52.4713 45.3388 52.7354 44.7012C52.9995 44.0636 53.0686 43.362 52.934 42.6851C52.7994 42.0083 52.467 41.3865 51.979 40.8985C51.491 40.4105 50.8693 40.0782 50.1924 39.9435C49.5155 39.8089 48.8139 39.878 48.1763 40.1421C47.5387 40.4062 46.9937 40.8534 46.6103 41.4273C46.2269 42.0011 46.0222 42.6757 46.0222 43.3659C46.0222 44.2913 46.3899 45.1789 47.0443 45.8333C47.6986 46.4877 48.5862 46.8553 49.5116 46.8553V46.8553Z" fill="#7B83EB"/>
<path opacity="0.5" d="M43.514 58.1958H47.0888C48.4267 58.1958 49.5116 57.6667 49.5116 56.3169V47.7275H44.4115C43.8557 47.7275 43.405 49.9229 43.405 50.4788V57.1096C43.405 57.4744 43.4415 57.8383 43.514 58.1958V58.1958Z" fill="black"/>
<path opacity="0.5" d="M49.4525 46.8493C49.3767 46.5998 49.223 46.381 49.0139 46.2251C48.8047 46.0692 48.5512 45.9843 48.2904 45.9829H47.2256C47.8414 46.527 48.6309 46.8342 49.4525 46.8493V46.8493Z" fill="black"/>
<path d="M47.4179 45.1104H37.6476C37.3237 45.1104 37.013 45.239 36.784 45.4681C36.5549 45.6971 36.4263 46.0077 36.4263 46.3316V56.102C36.4263 56.2624 36.4579 56.4212 36.5192 56.5694C36.5806 56.7176 36.6706 56.8522 36.784 56.9656C36.8974 57.079 37.032 57.169 37.1802 57.2304C37.3284 57.2917 37.4872 57.3233 37.6476 57.3233H47.4179C47.5783 57.3233 47.7371 57.2917 47.8853 57.2304C48.0335 57.169 48.1681 57.079 48.2815 56.9656C48.3949 56.8522 48.4849 56.7176 48.5463 56.5694C48.6076 56.4212 48.6392 56.2624 48.6392 56.102V46.3316C48.6392 46.0077 48.5106 45.6971 48.2815 45.4681C48.0525 45.239 47.7418 45.1104 47.4179 45.1104Z" fill="#4B53BC"/>
<path d="M46.4496 48.7344H43.7355V55.5194H42.3786V48.7344H39.6646V47.3774H46.4495L46.4496 48.7344Z" fill="white"/>
<path opacity="0.2" d="M47.6733 39.4227C48.3251 39.5365 48.9854 39.5938 49.647 39.5941C50.0044 39.5941 50.3628 39.577 50.7192 39.5433C51.9684 40.0642 53.3309 40.2542 54.6749 40.0948C56.019 39.9354 57.2992 39.4322 58.392 38.6336C59.4847 37.835 60.3531 36.7681 60.9131 35.5359C61.4732 34.3038 61.706 32.948 61.5891 31.5996H38.7654C39.4004 33.5892 40.565 35.3685 42.1343 36.7467C43.7036 38.1249 45.6183 39.0499 47.6733 39.4227V39.4227Z" fill="#767676"/>
<path opacity="0.2" d="M60.7463 25.5513H37.8044C37.9033 26.0759 38.055 26.5892 38.2573 27.0832C38.1181 28.6076 38.291 30.1445 38.7654 31.5999H61.5891C61.5231 30.79 61.3321 29.9953 61.0229 29.2438C61.1357 28.0061 61.0422 26.7583 60.7463 25.5513V25.5513Z" fill="#003067"/>
<path d="M53.7389 38.1475C52.8006 38.1466 51.8761 37.9213 51.0426 37.4903C49.5831 37.7087 48.0927 37.5818 46.6912 37.1199C45.2896 36.6579 44.0158 35.8737 42.9723 34.8303C41.9287 33.7868 41.1443 32.5132 40.6822 31.1117C40.22 29.7101 40.0929 28.2198 40.3112 26.7603C39.7374 25.6516 39.5313 24.3891 39.7226 23.1555C39.9138 21.9219 40.4927 20.7811 41.3752 19.8983C42.2578 19.0154 43.3984 18.4362 44.6319 18.2446C45.8655 18.0529 47.128 18.2586 48.2369 18.8321C49.2426 18.6833 50.2656 18.6965 51.2672 18.8711C53.6911 19.2995 55.8523 20.6568 57.2907 22.6543C58.7292 24.6518 59.3314 27.1317 58.9693 29.5664C59.4325 30.4633 59.657 31.4643 59.6214 32.473C59.5857 33.4818 59.2911 34.4644 58.7658 35.3264C58.2405 36.1883 57.5023 36.9006 56.6221 37.3947C55.7418 37.8887 54.7493 38.148 53.7399 38.1475H53.7389Z" fill="white"/>
<path d="M57.1164 30.3433L56.8774 29.9253L56.9614 29.4523C57.1664 28.2754 57.0852 27.0665 56.7246 25.9276C56.3641 24.7887 55.7348 23.7533 54.8899 22.9088C54.045 22.0643 53.0093 21.4355 51.8702 21.0755C50.7312 20.7155 49.5222 20.6348 48.3454 20.8403L47.8734 20.9233L47.4554 20.6833C46.7159 20.2628 45.8587 20.0968 45.0157 20.2108C44.1726 20.3248 43.3904 20.7126 42.7891 21.3144C42.1878 21.9162 41.8008 22.6989 41.6876 23.542C41.5744 24.3852 41.7412 25.2422 42.1624 25.9813L42.4034 26.3973L42.3194 26.8713C42.1132 28.0481 42.1935 29.2572 42.5534 30.3964C42.9133 31.5356 43.5423 32.5713 44.3872 33.416C45.2321 34.2607 46.268 34.8895 47.4073 35.2491C48.5466 35.6088 49.7557 35.6888 50.9324 35.4823L51.4044 35.3993L51.8224 35.6383C52.5616 36.0593 53.4187 36.2257 54.2617 36.1122C55.1048 35.9986 55.8872 35.6112 56.4886 35.0096C57.0901 34.4081 57.4773 33.6256 57.5907 32.7825C57.7041 31.9394 57.5375 31.0825 57.1164 30.3433V30.3433ZM49.6694 32.5223C47.2474 32.5223 46.1414 31.2953 46.1414 30.3943C46.1416 30.2915 46.1621 30.1897 46.2017 30.0948C46.2412 29.9999 46.2991 29.9137 46.3719 29.8411C46.4448 29.7686 46.5312 29.7111 46.6263 29.6719C46.7214 29.6328 46.8232 29.6127 46.9261 29.613L46.9704 29.6143C48.0054 29.6143 47.7394 31.1613 49.6684 31.1613C50.6574 31.1613 51.2364 30.5713 51.2364 30.0153C51.2364 29.6813 51.0444 29.3153 50.3934 29.1473L48.2394 28.6033C46.5054 28.1613 46.2014 27.2043 46.2014 26.3163C46.2014 24.4683 47.9014 23.8013 49.5164 23.8013C51.0064 23.8013 52.7784 24.6173 52.7784 25.7273C52.7741 25.8286 52.7498 25.928 52.707 26.0199C52.6642 26.1119 52.6038 26.1944 52.5291 26.263C52.4544 26.3315 52.3669 26.3847 52.2716 26.4194C52.1764 26.4542 52.0753 26.4698 51.974 26.4654C51.9534 26.4645 51.9329 26.4628 51.9124 26.4603C51.0284 26.4603 51.1754 25.2223 49.3944 25.2223C48.5094 25.2223 48.0434 25.6343 48.0434 26.2123C48.0434 26.7903 48.7274 26.9853 49.3334 27.1253L50.9274 27.4823C52.6724 27.8753 53.1394 28.8923 53.1394 29.8613C53.1394 31.3613 51.9724 32.5223 49.6694 32.5223V32.5223Z" fill="#B3B3B3"/>
</g>
<defs>
<linearGradient id="paint0_linear" x1="47.869" y1="-15.153" x2="51.8518" y2="130.615" gradientUnits="userSpaceOnUse">
<stop stop-color="#00ABDE"/>
<stop offset="1" stop-color="#007ED8"/>
</linearGradient>
<linearGradient id="paint1_linear" x1="20.6987" y1="28.5756" x2="78.8181" y2="28.5756" gradientUnits="userSpaceOnUse">
<stop stop-color="#005BA1"/>
<stop offset="0.26" stop-color="#00589D"/>
<stop offset="0.53" stop-color="#004F90"/>
<stop offset="0.8" stop-color="#003F7C"/>
<stop offset="1" stop-color="#003067"/>
</linearGradient>
<clipPath id="clip0">
<rect width="99.2799" height="99.28" fill="white"/>
</clipPath>
</defs>
</svg>
