<svg width="160" height="189" viewBox="0 0 160 189" fill="none" xmlns="http://www.w3.org/2000/svg">
<g clip-path="url(#clip0_944_628)">
<path d="M80.0334 188.987C83.1147 188.982 86.1351 188.129 88.7638 186.521L150.739 148.861C153.52 147.098 155.804 144.653 157.375 141.758C158.945 138.864 159.749 135.616 159.711 132.323V57.6085C159.747 54.3161 158.942 51.069 157.372 48.1749C155.802 45.2807 153.519 42.8354 150.739 41.0707L88.7638 3.41059C86.1303 1.8254 83.1147 0.987793 80.041 0.987793C76.9672 0.987793 73.9516 1.8254 71.3182 3.41059L9.34307 41.0858C6.55997 42.8482 4.27342 45.2925 2.70046 48.1869C1.12749 51.0813 0.32029 54.3296 0.355473 57.6236V132.323C0.33694 135.107 0.911657 137.862 2.04135 140.406C3.17104 142.95 4.82977 145.224 6.90707 147.076V147.102L71.3182 186.536C73.9438 188.136 76.9586 188.984 80.0334 188.987V188.987ZM80.6812 7.93997C82.6331 7.93997 85.1103 9.15289 86.8201 10.1969L147.577 47.3912C151.329 49.6759 153.445 56.272 153.445 61.023L152.813 132.323C152.813 137.074 149.614 141.342 145.861 143.627L85.4659 180.008C82.0313 182.096 79.2409 182.096 75.8062 180.008L14.5982 143.536C10.8458 141.252 7.82738 137.059 7.82738 132.323V58.6758C7.85989 56.3106 8.46888 53.9891 9.60155 51.9125C10.7342 49.836 12.3563 48.067 14.3273 46.7592L74.9035 10.1969C76.6132 9.15289 78.7294 7.93997 80.6812 7.93997Z" fill="#F2F1F0"/>
<path fill-rule="evenodd" clip-rule="evenodd" d="M87.9319 11.5206C85.561 10.0471 82.8252 9.26617 80.0337 9.26617C77.2422 9.26617 74.5064 10.0471 72.1355 11.5206L16.0008 45.852C13.4748 47.4637 11.4025 49.694 9.98047 52.3315C8.55847 54.969 7.83398 57.926 7.87573 60.9221V129.025C7.83581 132.021 8.56109 134.977 9.98292 137.615C11.4048 140.252 13.4761 142.482 16.0008 144.095L72.1355 178.426C74.5063 179.9 77.2422 180.681 80.0337 180.681C82.8253 180.681 85.5612 179.9 87.9319 178.426L144.066 144.095C146.591 142.482 148.663 140.252 150.085 137.615C151.507 134.978 152.232 132.021 152.192 129.025V60.9221C152.23 57.9266 151.504 54.9708 150.082 52.3339C148.66 49.697 146.59 47.4662 144.066 45.852L87.9319 11.5206Z" fill="url(#paint0_linear_944_628)"/>
<path fill-rule="evenodd" clip-rule="evenodd" d="M80.0338 10.7421C81.717 10.7421 83.5997 11.6078 85.6665 12.8659L144.132 48.4083C146.024 49.6217 147.573 51.2986 148.634 53.2797C149.694 55.2607 150.231 57.48 150.192 59.7268V130.205C150.231 132.452 149.694 134.671 148.634 136.652C147.573 138.633 146.024 140.31 144.132 141.523L85.6675 177.065L85.6665 177.066C83.9963 178.206 82.0512 178.877 80.0338 179.009C78.0163 178.877 76.0713 178.206 74.4011 177.066L74.4001 177.065L15.9378 141.525L15.9356 141.524C14.1473 140.561 12.6222 139.174 11.4938 137.484C10.5169 135.881 9.87578 133.666 9.87578 130.205V59.7268C9.83704 57.4801 10.3734 55.2608 11.434 53.2798C12.4945 51.2988 14.044 49.6219 15.9352 48.4084L74.392 12.8713L74.3961 12.8689C76.4799 11.6159 78.3401 10.7421 80.0338 10.7421ZM87.7463 9.44912L146.21 44.9904C148.689 46.5604 150.723 48.7392 152.121 51.3189C153.518 53.8986 154.231 56.7933 154.192 59.7269V130.205C154.231 133.139 153.518 136.034 152.121 138.613C150.723 141.193 148.688 143.372 146.21 144.942L87.7453 180.483C85.4511 182.008 82.7857 182.882 80.0338 183.009C77.2819 182.882 74.6164 182.008 72.3222 180.483H72.3213L13.8575 144.941L13.855 144.94C11.5197 143.647 9.53644 141.802 8.07828 139.566C6.4837 136.713 5.72068 133.47 5.87578 130.205V59.7268C5.83672 56.7932 6.54983 53.8985 7.94712 51.3187C9.34441 48.739 11.3793 46.5602 13.8577 44.9902L72.3222 9.44847L72.3304 9.44359C74.421 8.18618 77.1289 6.74213 80.0338 6.74213C82.92 6.74213 85.6371 8.16521 87.7463 9.44907V9.44912Z" fill="#0078D4"/>
<path opacity="0.2" d="M139.965 133.014L80.4154 167.621L20.4764 133.015L80.0264 98.4078L139.965 133.014Z" fill="#003067"/>
<path d="M140.956 121.637L80.2334 156.925L19.1224 121.642L79.8444 86.3538L140.956 121.637Z" fill="#1B93EB"/>
<path d="M140.956 121.637L140.944 125.743L80.2224 161.031L80.2334 156.925L140.956 121.637Z" fill="#1F56A3"/>
<path d="M80.2335 156.925L80.2225 161.031L19.1105 125.748L19.1225 121.642L80.2335 156.925Z" fill="#0078D4"/>
<path opacity="0.2" d="M112.033 138.607C110.284 139.043 108.486 139.261 106.683 139.256C101.79 139.17 97.0073 137.787 92.8234 135.249L42.1164 105.845L41.718 105.569C32.7776 99.3651 26.5559 87.6967 26.5852 77.1913C26.6086 69.4887 29.9651 63.1283 35.7952 59.7401L38.843 57.9667C40.9649 56.7405 43.319 55.9698 45.7552 55.7035C47.7727 52.4076 50.5722 49.6602 53.9054 47.705L56.9523 45.9325C60.5859 43.8328 64.7159 42.7456 68.9123 42.7841C74.6086 42.8986 80.1728 44.5216 85.0373 47.4877C93.7727 52.5321 101.708 61.3075 107.045 71.7626C107.365 71.9345 107.685 72.1124 108.003 72.2963C121.441 80.0546 131.541 97.5707 131.498 113.04C131.496 114.875 131.337 116.705 131.022 118.512C130.981 118.779 130.938 119.011 130.9 119.197L130.794 119.715C130.243 122.206 129.344 124.606 128.122 126.846L127.864 127.331L127.566 127.787C127.419 128.012 127.266 128.232 127.108 128.449C125.363 130.991 122.663 132.448 120 134L112.033 138.607Z" fill="white"/>
<path opacity="0.2" d="M106.683 133.256C102.843 133.165 99.0964 132.06 95.8224 130.052L45.3352 100.775L45.135 100.637C37.8391 95.5741 32.5617 85.7206 32.5852 77.2079C32.6018 71.6889 34.8703 67.2172 38.8098 64.9276L41.8606 63.1527C43.6674 62.1176 45.7157 61.5784 47.7981 61.5897C48.3317 61.5901 48.8649 61.6221 49.3947 61.6854C50.8745 58.0111 53.5175 54.9229 56.9191 52.8934L59.9699 51.1185C62.6886 49.5554 65.7765 48.7493 68.9123 48.7841C73.5547 48.9039 78.0827 50.2494 82.0373 52.684C90.2551 57.4291 97.7922 66.1175 102.557 76.2352C103.393 76.6126 104.209 77.0321 105.003 77.4921C116.532 84.1488 125.535 99.7562 125.498 113.024C125.497 114.538 125.364 116.049 125.101 117.54C125.064 117.795 125.021 118.002 124.991 118.139L124.979 118.223L124.932 118.438C124.497 120.395 123.787 122.279 122.821 124.035L122.694 124.276L122.544 124.504C122.443 124.66 122.335 124.811 122.225 124.962L122.196 125.002C120.95 126.831 119.311 128.361 117.4 129.478L114.349 131.25L114.347 131.247C112.018 132.59 109.371 133.283 106.683 133.256Z" fill="white"/>
<path d="M44.8755 68.3402L41.824 70.1134C43.845 68.939 46.6444 69.1036 49.734 70.8874C51.0549 71.6615 52.2752 72.5958 53.3671 73.669L56.4184 71.8957C55.3265 70.8225 54.1064 69.8883 52.7855 69.1142C49.6956 67.3302 46.8962 67.1657 44.8755 68.3402Z" fill="#32BEDD"/>
<path d="M119.498 113.007C119.53 101.859 111.705 88.2898 102.003 82.6881C100.771 81.9592 99.4574 81.3772 98.0899 80.954C94.0749 71.3502 87.067 62.5163 79.037 57.8802C72.7672 54.2602 67.0869 53.922 62.9839 56.3064L59.9324 58.0797C64.0356 55.6952 69.7159 56.0336 75.9857 59.6534C84.0157 64.2896 91.0233 73.1235 95.0383 82.7272C96.4059 83.1505 97.7192 83.7325 98.9513 84.4613C108.653 90.063 116.478 103.632 116.447 114.781C116.448 115.992 116.338 117.201 116.118 118.393V118.393C116.104 118.559 116.048 118.734 116.02 118.925C115.704 120.349 115.183 121.72 114.471 122.994C114.388 123.121 114.291 123.24 114.207 123.366C113.462 124.467 112.481 125.388 111.335 126.063L114.386 124.289C115.532 123.615 116.513 122.694 117.259 121.593C117.342 121.466 117.439 121.347 117.523 121.221C118.234 119.947 118.756 118.576 119.071 117.151C119.099 116.961 119.155 116.786 119.17 116.62V116.62C119.389 115.428 119.499 114.219 119.498 113.007V113.007Z" fill="#32BEDD"/>
<path d="M75.9857 59.6535C84.0157 64.2896 91.0233 73.1236 95.0383 82.7272C96.4058 83.1506 97.719 83.7326 98.9511 84.4614C108.653 90.063 116.478 103.632 116.447 114.781C116.448 115.992 116.338 117.201 116.118 118.393C116.104 118.56 116.048 118.734 116.02 118.925C115.704 120.349 115.183 121.72 114.471 122.994C114.388 123.121 114.291 123.24 114.207 123.366C111.163 127.781 105.416 128.662 98.8229 124.856L48.5561 95.707C42.9604 91.8241 38.5669 83.8631 38.5858 77.2247C38.6058 70.1892 43.5975 67.3445 49.734 70.8874C51.0549 71.6615 52.2751 72.5958 53.3671 73.669C53.3403 73.2877 53.3413 72.9383 53.3423 72.5889C53.383 58.2321 63.5191 52.4559 75.9857 59.6535Z" fill="url(#paint1_linear_944_628)"/>
<path d="M86.2081 105.437L74.9101 76.5978C74.6438 75.8527 74.1341 75.2193 73.4632 74.7998C73.175 74.6335 72.45 74.3111 72.011 74.9238L60.2562 91.0994C60.1061 91.3999 60.0267 91.7307 60.0241 92.0666C60.0215 92.4025 60.0958 92.7345 60.2413 93.0373C60.5172 93.7839 61.0283 94.4206 61.6976 94.8513H61.6978L85.0769 108.349C85.9596 108.859 86.3891 108.422 86.5384 108.22C86.7024 107.966 86.7833 107.667 86.7699 107.365L87.3747 106.403L86.2081 105.437ZM72.5948 82.3838C72.5962 81.85 72.9785 81.6322 73.443 81.9003C73.6868 82.0598 73.8895 82.2747 74.0344 82.5275C74.1792 82.7803 74.2622 83.0638 74.2765 83.3548L74.2504 92.6015C74.2488 93.1355 73.8761 93.3479 73.4113 93.0796C73.1665 92.9217 72.9625 92.708 72.816 92.4562C72.6696 92.2043 72.5847 91.9214 72.5685 91.6305L72.5948 82.3838ZM73.3975 97.9699C73.0741 97.7589 72.8049 97.4746 72.6118 97.1402C72.4187 96.8057 72.3071 96.4305 72.286 96.0449C72.2882 95.3402 72.7915 95.0533 73.4048 95.4075C73.7282 95.6185 73.9973 95.9027 74.1904 96.2372C74.3835 96.5716 74.4951 96.9469 74.5162 97.3325C74.5143 98.0372 74.0108 98.324 73.3975 97.9699V97.9699Z" fill="#FFCA00"/>
<path d="M73.4048 95.4074C73.7282 95.6184 73.9974 95.9027 74.1905 96.2372C74.3836 96.5716 74.4953 96.9469 74.5163 97.3325C74.5143 98.0372 74.0108 98.3241 73.3975 97.97C73.0741 97.7589 72.8049 97.4747 72.6118 97.1402C72.4188 96.8058 72.3072 96.4305 72.2861 96.0449C72.2881 95.3402 72.7915 95.0533 73.4048 95.4074Z" fill="#FF9300"/>
<path d="M87.9871 106.137C89.2993 109.472 87.6732 111.784 85.0714 110.282L61.6922 96.7839C59.0903 95.2818 57.4826 91.1023 58.8094 89.2908L70.5641 73.1046C71.2182 72.2096 72.3443 72.2234 73.4687 72.8725C74.7978 73.7182 75.8141 74.9753 76.3625 76.4523L87.9871 106.137ZM86.5385 108.22C86.7029 107.921 86.7889 107.586 86.7882 107.245C86.7876 106.904 86.7004 106.569 86.5348 106.271L74.9101 76.5977C74.6437 75.8527 74.134 75.2193 73.4632 74.7998C73.1752 74.6335 72.4501 74.3111 72.0109 74.9239L60.2563 91.0994C60.1061 91.3999 60.0267 91.7308 60.0241 92.0667C60.0216 92.4026 60.0959 92.7346 60.2415 93.0373C60.5172 93.784 61.0283 94.4206 61.6977 94.8513L85.0769 108.349C85.9596 108.859 86.3891 108.422 86.5385 108.22" fill="#FF9300"/>
<path d="M73.4432 81.9003C73.687 82.0598 73.8896 82.2747 74.0345 82.5275C74.1794 82.7803 74.2624 83.0638 74.2768 83.3548L74.2505 92.6016C74.249 93.1354 73.8761 93.348 73.4114 93.0797C73.1666 92.9217 72.9626 92.7081 72.8161 92.4562C72.6696 92.2044 72.5848 91.9214 72.5686 91.6305L72.5948 82.3838C72.5964 81.8499 72.9786 81.6321 73.4432 81.9003Z" fill="#FF9300"/>
<path d="M91.2813 104.977C91.2206 104.772 91.1482 104.562 91.0642 104.348L79.4397 74.6639C78.8913 73.187 77.8751 71.9299 76.5459 71.0842C76.2052 70.8371 75.8052 70.6843 75.3866 70.6414C74.9679 70.5985 74.5453 70.667 74.1615 70.8398L71.0842 72.6281C71.468 72.4553 71.8906 72.3868 72.3093 72.4298C72.728 72.4727 73.1279 72.6254 73.4686 72.8726C74.7978 73.7182 75.8141 74.9753 76.3624 76.4523L87.9871 106.137C88.0713 106.351 88.1436 106.56 88.2039 106.765C88.4078 107.288 88.4959 107.848 88.4621 108.408C88.4282 108.968 88.2732 109.514 88.0077 110.008L87.9949 110.026L87.9869 110.037C87.8473 110.236 87.6669 110.402 87.4579 110.525L90.5351 108.737C90.7442 108.614 90.9245 108.447 91.0642 108.249L91.0722 108.238L91.0724 108.238L91.0852 108.219C91.3506 107.725 91.5056 107.18 91.5394 106.62C91.5733 106.06 91.4852 105.499 91.2813 104.977Z" fill="#D15900"/>
<g opacity="0.1">
<path opacity="0.1" d="M105.072 133.208C105.326 133.292 105.548 133.454 105.705 133.671C105.863 133.887 105.949 134.148 105.951 134.415C105.953 134.683 105.871 134.945 105.717 135.164C105.563 135.383 105.345 135.548 105.092 135.637L103.608 136.5C102.957 136.83 102.238 137.003 101.508 137.003C100.778 137.003 100.058 136.83 99.4077 136.5L50.7375 108.4C50.4838 108.314 50.2633 108.151 50.1069 107.934C49.9505 107.717 49.8659 107.456 49.8651 107.188C49.8643 106.92 49.9473 106.659 50.1024 106.441C50.2575 106.222 50.477 106.058 50.7301 105.971L52.2144 105.108C52.8628 104.777 53.5803 104.605 54.3082 104.605C55.036 104.605 55.7535 104.777 56.4019 105.108L105.072 133.208Z" fill="#003067"/>
</g>
<path d="M48.4552 117.018L50.1023 116.06C51.0376 115.517 52.1256 115.837 53.4101 116.579C53.7712 116.787 54.1482 117.029 54.5413 117.295L52.8942 118.252C52.5011 117.986 52.1241 117.744 51.763 117.536C50.4785 116.794 49.3905 116.474 48.4552 117.018Z" fill="#C3F1FF"/>
<path d="M53.0095 119.624L58.4895 116.027L59.1655 117.229L53.7235 120.8L53.0095 119.624Z" fill="#8DDFF9"/>
<path d="M59.1651 117.229L60.6877 119.935L55.9219 123.082C56.4049 126.684 55.8568 127.596 54.9285 128.15C53.9534 128.736 52.7492 128.306 51.7502 127.729C51.3526 127.495 50.9678 127.239 50.5977 126.964L53.3531 125.026C53.5403 124.893 53.5265 124.525 53.3256 124.194L52.1654 122.27L51.005 120.355C50.9229 120.21 50.8052 120.087 50.663 119.999C50.6103 119.961 50.5487 119.938 50.4843 119.932C50.42 119.926 50.3551 119.937 50.2962 119.963L47.4366 121.738C47.2237 120.388 46.9315 118.021 48.339 117.09C49.3 116.448 50.4249 116.763 51.7629 117.536C52.1241 117.745 52.501 117.986 52.8941 118.252L57.8827 114.949L58.4891 116.027L53.0097 119.624L53.7238 120.8L59.1651 117.229Z" fill="#9CEBFF"/>
<path d="M58.9355 114.253L59.6845 115.243L59.5115 115.357L58.9025 114.275L58.9355 114.253Z" fill="#87D2EF"/>
<path d="M59.6845 115.243L60.5175 116.341L60.1875 116.558L59.5115 115.357L59.6845 115.243Z" fill="#7AC8EA"/>
<path d="M60.5175 116.341L62.3895 118.811L61.7075 119.261L60.1875 116.558L60.5175 116.341Z" fill="#87D2EF"/>
<path d="M61.7164 113.909L62.4305 115.085L60.5174 116.341L59.6844 115.243L61.7164 113.909Z" fill="#8DDFF9"/>
<path d="M62.3081 107.849L63.9552 106.892C64.9197 106.332 66.1105 106.761 67.1001 107.333C67.4992 107.568 67.8855 107.824 68.2574 108.1L66.6102 109.057C66.2384 108.781 65.8521 108.525 65.453 108.29C64.4634 107.718 63.2726 107.289 62.3081 107.849Z" fill="#C3F1FF"/>
<path d="M68.1988 115.065C68.0579 114.977 67.9408 114.856 67.8576 114.713L66.6898 112.794L65.5295 110.87C65.3287 110.539 65.3147 110.171 65.5018 110.038L68.2574 108.1L66.6103 109.057L63.8548 110.996C63.6676 111.128 63.6816 111.497 63.8823 111.827L65.0427 113.751L66.2105 115.67C66.2936 115.814 66.4108 115.934 66.5517 116.022C66.6015 116.058 66.6601 116.08 66.7213 116.086C66.7826 116.092 66.8443 116.082 66.9003 116.056L68.5475 115.099C68.4915 115.125 68.4297 115.135 68.3685 115.129C68.3072 115.123 68.2486 115.101 68.1988 115.065Z" fill="#C3F1FF"/>
<path d="M64.1423 117.653L55.9218 123.082C56.4048 126.684 55.8568 127.596 54.9285 128.15L56.5757 127.193C57.504 126.639 58.052 125.727 57.569 122.125L64.2634 117.736L64.1423 117.653Z" fill="#C3F1FF"/>
<path d="M71.4185 113.326L69.7713 114.283C69.9917 115.638 70.2766 118 68.8764 118.935C68.8256 118.969 68.7743 119.001 68.7224 119.031L70.3696 118.074C70.4215 118.044 70.4728 118.012 70.5236 117.978C71.9236 117.043 71.6388 114.681 71.4185 113.326Z" fill="#C3F1FF"/>
<path d="M69.7715 114.283C69.9917 115.638 70.2765 118 68.8765 118.935C68.1568 119.41 67.36 119.588 65.4234 118.47C65.0431 118.25 64.6185 117.98 64.1424 117.653L62.3897 118.811L60.5177 116.341L62.431 115.085L61.7169 113.909L59.685 115.242L58.9351 114.253L61.2571 112.716C60.8406 109.341 61.3363 108.485 62.2122 107.909C63.1928 107.26 64.4304 107.699 65.4532 108.29C65.8523 108.525 66.2385 108.781 66.6104 109.057L63.8549 110.996C63.6678 111.128 63.6817 111.497 63.8825 111.827L65.0428 113.751L66.2105 115.67C66.2936 115.814 66.4108 115.934 66.5516 116.022C66.6031 116.06 66.6641 116.082 66.7278 116.087C66.7915 116.092 66.8553 116.079 66.9119 116.049L69.7715 114.283Z" fill="#9CEBFF"/>
<path d="M51.4585 103.367L51.4885 103.418L51.5745 104.687L50.4965 105.267L49.4605 104.531L49.4155 104.454L51.4585 103.367Z" fill="#F2F2F2"/>
<path d="M49.1883 99.6481C49.3769 99.7653 49.5315 99.9298 49.6371 100.125L51.4884 103.418L51.4587 103.366L49.4164 104.453L47.5939 101.212C47.356 100.783 47.3648 100.333 47.6118 100.192L48.7493 99.5954C48.8211 99.5671 48.8988 99.5571 48.9755 99.5663C49.0521 99.5754 49.1253 99.6036 49.1883 99.6481V99.6481Z" fill="white"/>
<path d="M59.2374 124.114L60.8844 123.157L60.8934 123.152L59.2464 124.109L59.2374 124.114Z" fill="#0078D4"/>
<path d="M59.2465 124.109L60.8935 123.152L62.3125 122.401L60.6655 123.358L59.2465 124.109Z" fill="#0078D4"/>
<path d="M60.6655 123.358L62.3125 122.401L62.7795 122.154L61.1325 123.111L60.6655 123.358Z" fill="#0078D4"/>
<path d="M51.5634 104.693L56.8614 114.111L56.9534 114.275L57.5624 115.357L58.2384 116.558L59.7594 119.261L59.8134 119.357L61.7434 122.787L61.1324 123.111L60.6654 123.358L58.7394 119.935L57.2164 117.229L56.5404 116.027L55.9344 114.95L50.4814 105.259L51.5634 104.693Z" fill="white"/>
<path d="M61.4605 118.4L61.4065 118.304L59.8855 115.601L59.2095 114.399L58.6005 113.317L58.5095 113.154L53.2105 103.736L51.5635 104.693L56.8615 114.111L56.9535 114.275L57.5625 115.357L58.2385 116.558L59.7595 119.261L59.8135 119.357L61.7435 122.787L63.3905 121.83L61.4605 118.4Z" fill="#E8E8E8"/>
<path d="M50.4814 105.259L52.1294 104.301L53.2104 103.736L51.5634 104.693L50.4814 105.259Z" fill="white"/>
<path d="M51.4885 103.418L53.1355 102.461L53.2215 103.73L51.5745 104.687L51.4885 103.418Z" fill="#B3B3B3"/>
<path d="M49.4155 104.454L51.0625 103.497L53.1055 102.409L51.4585 103.367L49.4155 104.454Z" fill="#F2F2F2"/>
<path d="M51.4585 103.367L53.1055 102.409L53.1355 102.461L51.4885 103.418L51.4585 103.367Z" fill="#F2F2F2"/>
<path d="M51.2842 99.1679C51.1786 98.9725 51.024 98.8081 50.8354 98.6908C50.7724 98.6463 50.6992 98.6182 50.6226 98.609C50.5459 98.5998 50.4682 98.6099 50.3964 98.6382L49.2589 99.2352L47.6119 100.192L48.7494 99.5954C48.8212 99.5671 48.8989 99.5571 48.9755 99.5663C49.0521 99.5755 49.1253 99.6036 49.1884 99.6481C49.3768 99.7654 49.5315 99.9299 49.6371 100.125L51.4884 103.418L53.1355 102.461L51.2842 99.1679Z" fill="#E8E8E8"/>
<path d="M61.7435 122.787L63.3905 121.83L64.7625 121.101L63.1155 122.058L61.7435 122.787Z" fill="#0078D4"/>
<path d="M64.0146 129.137C64.1079 129.198 64.1847 129.28 64.2381 129.378L67.5468 135.273C67.6657 135.487 67.665 135.719 67.5303 135.787L67.3507 135.881C67.3143 135.896 67.2745 135.902 67.2352 135.897C67.1959 135.892 67.1585 135.878 67.1266 135.854C67.0325 135.795 66.9554 135.712 66.9031 135.614L63.5944 129.719C63.468 129.5 63.4761 129.273 63.6034 129.2L63.783 129.107C63.8209 129.091 63.8622 129.086 63.9028 129.091C63.9434 129.097 63.982 129.113 64.0146 129.137V129.137Z" fill="#0078D4"/>
<path d="M70.4713 134.316C71.1703 135.561 71.114 136.903 70.3433 137.308L69.3927 137.815L68.4797 138.293C68.2738 138.381 68.0485 138.415 67.8257 138.391C67.6029 138.366 67.3902 138.285 67.208 138.155C66.6536 137.808 66.1996 137.323 65.8911 136.747L62.2255 130.225L62.2078 128.566L60.7459 127.585L59.2291 124.88C59.0432 124.558 59.0517 124.211 59.2463 124.109L60.6654 123.358L61.1322 123.111L61.7431 122.787L63.1155 122.058C63.1732 122.033 63.2363 122.024 63.2987 122.03C63.3611 122.037 63.4208 122.059 63.4721 122.095C63.6131 122.183 63.7292 122.305 63.8094 122.45L65.3261 125.155L65.3511 126.895L66.8057 127.795L70.4713 134.316ZM69.0271 134.994C69.1543 134.921 69.1625 134.694 69.036 134.475L65.7348 128.593C65.6791 128.492 65.5984 128.406 65.5004 128.344C65.4688 128.321 65.4318 128.307 65.3931 128.304C65.3543 128.3 65.3152 128.306 65.2798 128.322L65.1001 128.416C65.0667 128.437 65.0399 128.467 65.0227 128.503C65.0054 128.538 64.9984 128.578 65.0025 128.617C65.006 128.729 65.0365 128.837 65.0912 128.935L68.3925 134.816C68.4458 134.914 68.5226 134.996 68.616 135.057C68.6486 135.082 68.6871 135.097 68.7277 135.103C68.7683 135.108 68.8095 135.103 68.8475 135.088L69.0271 134.994V134.994ZM67.5303 135.787C67.665 135.719 67.6656 135.487 67.5468 135.272L64.2381 129.378C64.1847 129.28 64.1079 129.198 64.0146 129.137C63.9819 129.113 63.9434 129.097 63.9028 129.091C63.8622 129.086 63.8209 129.091 63.783 129.107L63.6034 129.2C63.4761 129.273 63.4681 129.5 63.5944 129.719L66.9031 135.614C66.9554 135.712 67.0324 135.795 67.1266 135.854C67.1585 135.878 67.1959 135.892 67.2352 135.897C67.2744 135.902 67.3143 135.896 67.3507 135.881L67.5303 135.787" fill="#1F56A3"/>
<path d="M65.5005 128.344C65.5986 128.406 65.6793 128.492 65.7349 128.593L69.0361 134.475C69.1626 134.694 69.1545 134.921 69.0273 134.994L68.8476 135.088C68.8097 135.103 68.7684 135.108 68.7278 135.103C68.6872 135.098 68.6487 135.082 68.6161 135.057C68.5227 134.997 68.4459 134.914 68.3926 134.816L65.0914 128.935C65.0366 128.838 65.0061 128.729 65.0026 128.617C64.9985 128.578 65.0056 128.538 65.0228 128.503C65.0401 128.467 65.0669 128.437 65.1002 128.416L65.2799 128.322C65.3154 128.306 65.3544 128.3 65.3932 128.304C65.4319 128.307 65.4689 128.321 65.5005 128.344V128.344Z" fill="#0078D4"/>
<path d="M72.1184 133.359L68.4529 126.838L66.9982 125.938L66.9732 124.197L65.4565 121.493C65.3764 121.348 65.2603 121.225 65.1193 121.138C65.068 121.102 65.0083 121.08 64.9459 121.073C64.8835 121.067 64.8204 121.076 64.7627 121.101L63.1155 122.058C63.1732 122.033 63.2362 122.024 63.2986 122.03C63.3611 122.037 63.4207 122.059 63.4721 122.095C63.6131 122.183 63.7292 122.305 63.8093 122.45L65.3261 125.155L65.3511 126.895L66.8058 127.795L70.4714 134.316C71.1592 135.541 71.1157 136.86 70.3796 137.288L72.0268 136.331C72.7629 135.903 72.8062 134.584 72.1184 133.359Z" fill="#0078D4"/>
</g>
<defs>
<linearGradient id="paint0_linear_944_628" x1="80.0339" y1="9.26618" x2="80.0339" y2="180.681" gradientUnits="userSpaceOnUse">
<stop stop-color="#00ABDE"/>
<stop offset="1" stop-color="#007ED8"/>
</linearGradient>
<linearGradient id="paint1_linear_944_628" x1="99.6596" y1="132.803" x2="57.3715" y2="59.5582" gradientUnits="userSpaceOnUse">
<stop stop-color="#50E6FF"/>
<stop offset="1" stop-color="#C3F1FF"/>
</linearGradient>
<clipPath id="clip0_944_628">
<rect width="159.356" height="188" fill="white" transform="translate(0.355469 0.987793)"/>
</clipPath>
</defs>
</svg>
