<svg width="103" height="103" viewBox="0 0 103 103" fill="none" xmlns="http://www.w3.org/2000/svg">
<path d="M51.9281 98.6011C77.7805 98.6011 98.734 77.6476 98.734 51.7952C98.734 25.9428 77.7805 4.98926 51.9281 4.98926C26.0757 4.98926 5.12219 25.9428 5.12219 51.7952C5.12219 77.6476 26.0757 98.6011 51.9281 98.6011Z" fill="url(#paint0_linear)"/>
<path fill-rule="evenodd" clip-rule="evenodd" d="M51.9281 1.79517C24.3148 1.79517 1.9281 24.1818 1.9281 51.7952C1.9281 79.4085 24.3148 101.795 51.9281 101.795C79.5414 101.795 101.928 79.4085 101.928 51.7952C101.928 24.1818 79.5414 1.79517 51.9281 1.79517ZM51.9281 97.552C26.6565 97.552 6.17126 77.0668 6.17126 51.7952C6.17126 26.5235 26.6565 6.03833 51.9281 6.03833C77.1997 6.03833 97.6849 26.5235 97.6849 51.7952C97.6849 77.0668 77.1997 97.552 51.9281 97.552Z" fill="#D9D9D9"/>
<path fill-rule="evenodd" clip-rule="evenodd" d="M6.03078 51.7952C6.03078 77.1418 26.5815 97.6925 51.9281 97.6925C77.2747 97.6925 97.8255 77.1418 97.8255 51.7952C97.8255 26.4486 77.2747 5.89784 51.9281 5.89784C26.5815 5.89784 6.03078 26.4486 6.03078 51.7952ZM51.9281 2.15112C24.5115 2.15112 2.28406 24.3785 2.28406 51.7952C2.28406 79.2118 24.5115 101.439 51.9281 101.439C79.3448 101.439 101.572 79.2118 101.572 51.7952C101.572 24.3785 79.3448 2.15112 51.9281 2.15112Z" fill="#F2F1F0"/>
<path fill-rule="evenodd" clip-rule="evenodd" d="M8.84084 51.7952C8.84084 75.5962 28.1271 94.8825 51.9281 94.8825C75.7292 94.8825 95.0154 75.5962 95.0154 51.7952C95.0154 27.9942 75.7292 8.7079 51.9281 8.7079C28.1271 8.7079 8.84084 27.9942 8.84084 51.7952ZM51.9281 4.96118C26.0664 4.96118 5.09412 25.9335 5.09412 51.7952C5.09412 77.6569 26.0664 98.6292 51.9281 98.6292C77.7899 98.6292 98.7622 77.6569 98.7622 51.7952C98.7622 25.9335 77.7992 4.96118 51.9281 4.96118Z" fill="#0078D4"/>
<path d="M57.9135 18.618L22.2634 32.4622V72.5521L35.1147 67.1475V35.6282L58.1758 30.2235V77.2917L22.2634 72.5521L57.9135 85.4689L77.8367 79.0058V25.3434L57.9135 18.618Z" fill="url(#paint1_linear)"/>
<path d="M52.3122 57.3403C51.8345 53.0503 48.1534 49.6782 43.7041 49.6782C39.2924 49.6782 35.6487 52.9753 35.0961 57.2279C35.0211 57.5182 35.0211 57.8554 35.0211 58.1458C35.1335 59.3541 35.9765 60.525 37.5595 61.4429C40.9409 63.3819 46.458 63.3819 49.8113 61.4429C51.3943 60.525 52.1998 59.3541 52.3122 58.1458C52.3872 57.8929 52.3497 57.6025 52.3122 57.3403Z" fill="white"/>
<path d="M43.7135 48.4418C46.5891 48.4418 48.9214 46.1189 48.9214 43.262C48.9214 40.3958 46.5891 38.0822 43.7135 38.0822C40.8379 38.0822 38.5055 40.4051 38.5055 43.262C38.4962 46.1282 40.8379 48.4418 43.7135 48.4418Z" fill="white"/>
<path fill-rule="evenodd" clip-rule="evenodd" d="M77.4059 59.5415H69.4816C69.0789 59.5415 68.7604 59.1668 68.7604 58.6985C68.7604 58.2301 69.0789 57.8555 69.4816 57.8555H77.4059C77.8087 57.8555 78.1272 58.2301 78.1272 58.6985C78.1272 59.1668 77.7993 59.5415 77.4059 59.5415Z" fill="#50E6FF"/>
<path fill-rule="evenodd" clip-rule="evenodd" d="M87.2504 59.5415H80.8622C80.2721 59.5415 79.7944 59.1668 79.7944 58.6985C79.7944 58.2301 80.2721 57.8555 80.8622 57.8555H87.2504C87.8405 57.8555 88.3182 58.2301 88.3182 58.6985C88.3182 59.1668 87.8405 59.5415 87.2504 59.5415Z" fill="#50E6FF"/>
<path fill-rule="evenodd" clip-rule="evenodd" d="M76.1882 44.3016H69.8C69.2099 44.3016 68.7322 43.927 68.7322 43.4586C68.7322 42.9903 69.2099 42.6156 69.8 42.6156H76.1882C76.7783 42.6156 77.256 42.9903 77.256 43.4586C77.2466 43.9176 76.7689 44.3016 76.1882 44.3016Z" fill="#50E6FF"/>
<path fill-rule="evenodd" clip-rule="evenodd" d="M78.1927 54.4553H69.5472C69.1163 54.4553 68.7604 54.0806 68.7604 53.6123C68.7604 53.144 69.1163 52.7693 69.5472 52.7693H78.1927C78.6236 52.7693 78.9796 53.144 78.9796 53.6123C78.9796 54.0806 78.6236 54.4553 78.1927 54.4553Z" fill="#50E6FF"/>
<path fill-rule="evenodd" clip-rule="evenodd" d="M90.1073 54.4553H81.4617C81.0309 54.4553 80.6749 54.0806 80.6749 53.6123C80.6749 53.144 81.0309 52.7693 81.4617 52.7693H90.1073C90.5382 52.7693 90.8941 53.144 90.8941 53.6123C90.8941 54.0806 90.5475 54.4553 90.1073 54.4553Z" fill="#50E6FF"/>
<path fill-rule="evenodd" clip-rule="evenodd" d="M69.6501 49.3785C69.1443 49.3785 68.7322 49.0039 68.7322 48.5355C68.7322 48.0672 69.1443 47.6925 69.6501 47.6925H79.7382C80.244 47.6925 80.6561 48.0672 80.6561 48.5355C80.6561 49.0039 80.244 49.3785 79.7382 49.3785H69.6501Z" fill="#50E6FF"/>
<path d="M78.5017 81.3193L60.3676 63.1946C62.9903 59.7757 64.5545 55.495 64.5545 50.8585C64.5545 39.6558 55.4594 30.5793 44.2567 30.5793C33.054 30.5793 23.9775 39.6558 23.9775 50.8585C23.9775 62.0612 33.054 71.1376 44.2567 71.1376C48.7527 71.1376 52.9022 69.6764 56.2649 67.2036L74.4459 85.3752C74.4459 85.3752 76.0382 85.9934 77.6962 84.2324C79.3634 82.4621 78.5017 81.3193 78.5017 81.3193ZM27.003 50.9334C27.003 41.4355 34.7025 33.736 44.2005 33.736C53.6984 33.736 61.3979 41.4355 61.3979 50.9334C61.3979 60.4313 53.6703 68.1309 44.1724 68.1309C34.6932 68.1309 27.003 60.4313 27.003 50.9334Z" fill="white"/>
<defs>
<linearGradient id="paint0_linear" x1="53.6984" y1="-12.9976" x2="49.7157" y2="132.77" gradientUnits="userSpaceOnUse">
<stop stop-color="#00ABDE"/>
<stop offset="1" stop-color="#007ED8"/>
</linearGradient>
<linearGradient id="paint1_linear" x1="8.33387" y1="21.6687" x2="91.1748" y2="75.8339" gradientUnits="userSpaceOnUse">
<stop stop-color="#007ED8"/>
<stop offset="0.7065" stop-color="#002D4C"/>
</linearGradient>
</defs>
</svg>
