<?xml version="1.0" encoding="UTF-8"?>
<svg width="100px" height="100px" viewBox="0 0 100 100" version="1.1" xmlns="http://www.w3.org/2000/svg" xmlns:xlink="http://www.w3.org/1999/xlink">
    <!-- Generator: Sketch 58 (84663) - https://sketch.com -->
    <title>Defend against threats with Microsoft 365/train-the-defenders</title>
    <desc>Created with Sketch.</desc>
    <defs>
        <rect id="path-1" x="0" y="0" width="96" height="96" rx="48"></rect>
    </defs>
    <g id="Badges" stroke="none" stroke-width="1" fill="none" fill-rule="evenodd">
        <g id="Defend-against-threats-with-Microsoft-365" transform="translate(-50.000000, -660.000000)">
            <g id="Defend-against-threats-with-Microsoft-365/train-the-defenders" transform="translate(50.000000, 660.000000)">
                <g id="Mask" transform="translate(2.000000, 2.000000)">
                    <mask id="mask-2" fill="white">
                        <use xlink:href="#path-1"></use>
                    </mask>
                    <use id="BG" fill="#55A2FF" xlink:href="#path-1"></use>
                    <ellipse id="Shadow" fill="#000000" fill-rule="nonzero" opacity="0.1" mask="url(#mask-2)" cx="56.9415044" cy="78.5597548" rx="23.082" ry="4.022"></ellipse>
                    <g id="Cape" mask="url(#mask-2)" fill-rule="nonzero">
                        <g transform="translate(70.417504, 23.417755)">
                            <path d="M0.132,16.94 C0.132,20.94 3.132,24.94 5.132,24.94 C7.132,24.94 9.132,23.94 11.132,22.94 C13.132,21.94 18.132,24.94 22.132,23.94 C26.132,22.94 25.132,13.94 30.132,12.94 C35.132,11.94 38.132,16.94 43.132,16.94 C48.132,16.94 55.132,12.94 58.132,6.94 C58.132,6.94 51.132,12.94 47.132,11.94 C43.132,10.94 39.132,0.94 35.132,2.94 C31.132,4.94 26.132,11.94 17.132,11.94 C11.132,11.94 5.799,9.607 1.132,4.94 C0.465,10.274 0.132,14.274 0.132,16.94 Z" id="Path-3" fill="#DF5142"></path>
                            <path d="M37.877,14.682 L37.877,15.235 C33.897,13.165 29.983,12.734 26.132,13.941 C19.75,15.941 18.132,18.941 11.132,18.941 C4.132,18.941 1.132,12.941 0.132,0.941 C6.132,9.941 9.132,9.941 11.132,9.941 C13.132,9.941 15.132,9.941 18.132,5.441 C21.132,0.941 27.132,2.941 29.132,5.441 C30.357,6.972 33.272,10.053 37.877,14.682 Z" id="Path-2" fill="#C2423D"></path>
                        </g>
                    </g>
                    <g id="Legs" mask="url(#mask-2)" fill="#30404D" fill-rule="nonzero">
                        <g transform="translate(54.831325, 66.177181) rotate(-4.000000) translate(-54.831325, -66.177181) translate(41.331325, 51.677181)">
                            <path d="M4.72004418,23.4001878 L4.38304418,18.8481878 C4.1198043,15.2948604 4.23713748,11.7235737 4.73304418,8.1951878 L5.49004418,2.8121878 C5.55921061,2.15813114 5.97960085,1.59386994 6.58652429,1.34045716 C7.19344774,1.08704438 7.8902667,1.18482981 8.40399784,1.59550537 C8.91772899,2.00618093 9.16657321,2.6643566 9.05304418,3.3121878 L8.36304418,8.2301878 C7.87676043,11.6898731 7.75442549,15.1909985 7.99804418,18.6761878 L8.44004418,25.0091878 C8.46704418,25.3881878 8.37404418,25.7471878 8.19404418,26.0511878 C7.88056645,26.6070256 7.29609057,26.9551997 6.65804418,26.9661878 L3.33504418,27.0241878 C2.36087243,27.0136074 1.57192444,26.2298865 1.55486857,25.2558066 C1.53781269,24.2817267 2.29883999,23.4708662 3.27204418,23.4261878 L4.72004418,23.4001878 L4.72004418,23.4001878 Z" id="Combined-Shape" transform="translate(5.317347, 14.112825) rotate(4.000000) translate(-5.317347, -14.112825) "></path>
                            <path d="M21.5983788,24.8780577 L21.2603788,20.3260577 C20.997139,16.7727303 21.1144721,13.2014436 21.6103788,9.67305767 L22.3673788,4.29005767 C22.442181,3.64067329 22.8631572,3.08288251 23.4671397,2.83288143 C24.0711223,2.58288035 24.7631666,2.6799685 25.2750409,3.08651515 C25.7869151,3.4930618 26.038154,4.14515883 25.9313788,4.79005767 L25.2403788,9.70705767 C24.7540251,13.1670723 24.6316901,16.6685366 24.8753788,20.1540577 L25.3183788,26.4870577 C25.3443788,26.8660577 25.2513788,27.2250577 25.0713788,27.5290577 C24.7578263,28.0842059 24.1738589,28.4319234 23.5363788,28.4430577 L20.2123788,28.5010577 C19.2382071,28.4904773 18.4492591,27.7067564 18.4322032,26.7326765 C18.4151473,25.7585966 19.1761746,24.9477361 20.1493788,24.9030577 L21.5983788,24.8780577 L21.5983788,24.8780577 Z" id="Combined-Shape-Copy" transform="translate(22.193759, 15.598537) scale(-1, 1) rotate(-4.000000) translate(-22.193759, -15.598537) "></path>
                        </g>
                    </g>
                    <g id="Arm" mask="url(#mask-2)">
                        <g transform="translate(42.885875, 38.370758) rotate(8.000000) translate(-42.885875, -38.370758) translate(4.385875, 24.870758)">
                            <path d="M67.01,17.403 L71.571,12.156 C72.2691322,11.3530667 72.2163962,10.1440935 71.451,9.405 L65.941,4.085 C65.2261465,3.39433354 65.2064482,2.25496423 65.897,1.54 C66.587,0.825 66.677,0.043 67.392,0.733 L75.554,9.498 C76.2143765,10.2069117 76.2716777,11.2872071 75.69,12.062 L71.032,18.261 C71.6309361,18.8563491 71.7354592,19.7880351 71.2833325,20.5012998 C70.8312058,21.2145645 69.9440049,21.5176131 69.15,21.23 L67.71,20.706 C66.861928,20.3968401 66.3739913,19.5073498 66.569,18.626 C66.559,18.194 66.703,17.756 67.009,17.403 L67.01,17.403 Z" id="Combined-Shape" stroke="none" fill="#30404D" fill-rule="nonzero"></path>
                            <g id="Weight" stroke="none" stroke-width="1" fill="none" fill-rule="evenodd" transform="translate(15.938948, 14.465729) rotate(151.000000) translate(-15.938948, -14.465729) translate(1.938948, 7.965729)">
                                <path d="M0,2.57767545 C0,2.10518037 0.386586886,1.71859348 0.85908197,1.71859348 L3.00678689,1.71859348 C3.47928198,1.71859348 3.86586886,2.10518037 3.86586886,2.57767545 L3.86586886,10.3094132 C3.86586886,10.7819083 3.47928198,11.1684952 3.00678689,11.1684952 L0.85908197,11.1684952 C0.386586886,11.1684952 0,10.7819083 0,10.3094132 L0,2.57767545" id="Fill-245" fill="#EFB252"></path>
                                <path d="M7.94650822,5.15492136 L19.5441148,5.15492136 C19.8997748,5.15492136 20.1884263,5.73222444 20.1884263,6.44354432 C20.1884263,7.15486419 19.8997748,7.73216727 19.5441148,7.73216727 L7.94650822,7.73216727 C7.59084829,7.73216727 7.30219674,7.15486419 7.30219674,6.44354432 C7.30219674,5.73222444 7.59084829,5.15492136 7.94650822,5.15492136" id="Fill-246" fill="#30404D"></path>
                                <path d="M8.5908197,4.72538038 C9.06546249,4.72538038 9.44990167,4.68027857 9.44990167,5.15492136 L9.44990167,7.73216727 C9.44990167,8.20638052 9.06546249,8.16170826 8.5908197,8.16170826 C8.11617691,8.16170826 7.73173773,8.20638052 7.73173773,7.73216727 L7.73173773,5.15492136 C7.73173773,4.68027857 8.11617691,4.72538038 8.5908197,4.72538038" id="Fill-247" fill="#30404D"></path>
                                <path d="M18.8998033,4.72538038 C19.3744461,4.72538038 19.7588853,4.68027857 19.7588853,5.15492136 L19.7588853,7.73216727 C19.7588853,8.20638052 19.3744461,8.16170826 18.8998033,8.16170826 C18.4255901,8.16170826 18.0407214,8.20638052 18.0407214,7.73216727 L18.0407214,5.15492136 C18.0407214,4.68027857 18.4255901,4.72538038 18.8998033,4.72538038" id="Fill-248" fill="#30404D"></path>
                                <path d="M3.86586886,0.859511511 C3.86586886,0.387016427 4.25245575,0.000429540985 4.72495083,0.000429540985 L6.87265576,0.000429540985 C7.34515084,0.000429540985 7.73173773,0.387016427 7.73173773,0.859511511 L7.73173773,12.0275771 C7.73173773,12.5000722 7.34515084,12.8866591 6.87265576,12.8866591 L4.72495083,12.8866591 C4.25245575,12.8866591 3.86586886,12.5000722 3.86586886,12.0275771 L3.86586886,0.859511511" id="Fill-249" fill="#EFB252"></path>
                                <path d="M27.490623,10.3094132 C27.490623,10.7819083 27.1040362,11.1684952 26.6315411,11.1684952 L24.4842657,11.1684952 C24.0117706,11.1684952 23.6251837,10.7819083 23.6251837,10.3094132 L23.6247542,2.57724591 C23.6247542,2.10432129 24.0113411,1.71816394 24.4838361,1.71816394 L26.6311115,1.71816394 C27.1036066,1.71816394 27.4901935,2.10432129 27.4901935,2.57724591 L27.490623,10.3094132" id="Fill-250" fill="#EFB252"></path>
                                <path d="M23.6251837,12.0275771 C23.6251837,12.5000722 23.2385968,12.8866591 22.7661017,12.8866591 L20.6188264,12.8866591 C20.1463313,12.8866591 19.7597444,12.5000722 19.7597444,12.0275771 L19.7593149,0.85908197 C19.7593149,0.386157345 20.1459017,-1.77635684e-15 20.6183968,-1.77635684e-15 L22.7656722,-1.77635684e-15 C23.2381673,-1.77635684e-15 23.6247542,0.386157345 23.6247542,0.85908197 L23.6251837,12.0275771" id="Fill-251" fill="#EFB252"></path>
                                <polygon id="Fill-252" fill="#182A37" points="9.44990167 7.73173773 18.0407214 7.73173773 18.0407214 6.44311477 9.44990167 6.44311477"></polygon>
                                <path d="M21.9065902,11.1680656 C21.9065902,11.6427084 21.5221511,12.0271476 21.0475083,12.0271476 L19.7597444,12.0271476 L19.7597444,12.0275771 C19.7597444,12.498354 20.1441836,12.8840818 20.614531,12.8862295 L22.7703972,12.8862295 C23.2390264,12.8840818 23.6226065,12.5005017 23.6247542,12.0318725 L23.6247542,0.85908197 L21.9065902,0.85908197 L21.9065902,11.1680656" id="Fill-253" fill="#CC9547"></path>
                                <path d="M6.01271471,11.1680656 C6.01271471,11.6427084 5.62827553,12.0271476 5.15363274,12.0271476 L3.86586886,12.0271476 L3.86586886,12.0275771 C3.86586886,12.498354 4.25030805,12.8840818 4.72065542,12.8862295 L6.87609209,12.8862295 C7.34515084,12.8840818 7.72873094,12.5005017 7.73087865,12.0318725 L7.73087865,0.85908197 L6.01271471,0.85908197 L6.01271471,11.1680656" id="Fill-254" fill="#CC9547"></path>
                                <path d="M25.7716,9.44990167 C25.7716,9.92454446 25.3871608,10.3089836 24.912518,10.3089836 L23.6247542,10.3089836 L23.6247542,10.3094132 C23.6247542,10.7801901 24.0091934,11.1659179 24.4795407,11.1680656 L26.6354069,11.1680656 C27.1040362,11.1659179 27.4876163,10.7823378 27.489764,10.3137086 L27.489764,2.57724591 L25.7716,2.57724591 L25.7716,9.44990167" id="Fill-255" fill="#CC9547"></path>
                                <path d="M2.14770492,9.44990167 C2.14770492,9.92454446 1.76326574,10.3089836 1.28862295,10.3089836 L0.00085908197,10.3089836 L0.00085908197,10.3094132 C0.00085908197,10.7801901 0.385298264,11.1659179 0.855645642,11.1680656 L3.01151185,11.1680656 C3.48014106,11.1659179 3.86372116,10.7823378 3.86586886,10.3137086 L3.86586886,2.57724591 L2.14770492,2.57724591 L2.14770492,9.44990167" id="Fill-256" fill="#CC9547"></path>
                                <path d="M18.8998033,5.15449182 L18.8998033,6.01357379 C18.8998033,6.25068041 18.707369,6.44311477 18.4702624,6.44311477 L18.0407214,6.44311477 L18.0407214,7.74591258 C18.0407214,8.0259733 18.2658008,8.20809868 18.5441434,8.17760127 C19.1656892,8.1097338 19.7588853,8.32106796 19.7588853,7.73216727 L19.7588853,5.15492136 L19.7584558,5.15449182 L18.8998033,5.15449182" id="Fill-257" fill="#182A37"></path>
                                <path d="M8.5908197,5.15449182 L8.5908197,6.01357379 C8.5908197,6.25068041 8.39838534,6.44311477 8.16127871,6.44311477 L7.73173773,6.44311477 L7.73173773,7.74591258 C7.73173773,8.0259733 7.95681721,8.20809868 8.23515976,8.17760127 C8.85670557,8.1097338 9.44990167,8.32106796 9.44990167,7.73216727 L9.44990167,5.15492136 L9.44947213,5.15449182 L8.5908197,5.15449182" id="Fill-258" fill="#182A37"></path>
                            </g>
                            <path d="M33.9925966,9.71103631 L30.8878338,15.9556671 C30.1819766,15.5099893 29.779202,15.390134 29.6795098,15.596101 C29.5798176,15.8020681 29.9825923,15.9219234 30.8878338,15.9556671 L27.2467757,23.6481039 L14.9111806,14.3380819 L15.8687198,12.1908678" id="Path-2" stroke="#30404D" stroke-width="3.2" fill="none" stroke-linecap="round" stroke-linejoin="round"></path>
                        </g>
                    </g>
                    <g id="Shield" mask="url(#mask-2)" fill-rule="nonzero">
                        <g transform="translate(55.127095, 39.033644) rotate(2.000000) translate(-55.127095, -39.033644) translate(37.127095, 18.033644)">
                            <path d="M17.788,1.297 C14.335,5.193 8.252,6.485 1.318,6.485 L1.318,16.862 C1.318,27.56 6.135,34.445 17.788,40.209 C29.441,34.445 34.258,27.559 34.258,16.862 L34.258,6.485 C27.325,6.485 21.242,5.193 17.788,1.297" id="Fill-22" fill="#2D4A5E"></path>
                            <path d="M17.788,40.209 C29.441,34.445 34.258,27.559 34.258,16.862 L34.258,6.485 C27.325,6.485 21.242,5.193 17.788,1.297 L17.788,40.209 Z" id="Fill-23" fill="#000000" opacity="0.100000001"></path>
                            <path d="M2.635,7.75 L2.635,16.85 C2.635,26.9 7.036,33.284 17.788,38.752 C28.54,33.284 32.941,26.9 32.941,16.849 L32.941,7.749 C26.015,7.582 21.032,6.064 17.788,3.132 C14.544,6.064 9.562,7.582 2.635,7.749 L2.635,7.75 Z M17.788,41.5060005 C17.585,41.5060005 17.383,41.46 17.197,41.368 C5.143,35.403 0,28.07 0,16.849 L0,6.468 C0,5.75 0.59,5.17 1.318,5.17 C8.903,5.17 13.966,3.617 16.795,0.423 C17.296,-0.141 18.28,-0.141 18.781,0.423 C21.611,3.617 26.673,5.17 34.259,5.17 C34.986,5.17 35.576,5.751 35.576,6.468 L35.576,16.849 C35.576,28.069 30.433,35.403 18.38,41.368 C18.1959165,41.4589462 17.9933239,41.5060005 17.788,41.5060005 Z" id="Fill-24" fill="#182A37"></path>
                        </g>
                    </g>
                </g>
                <g id="Azure-Border" stroke="#0078D4" stroke-width="4">
                    <rect x="2" y="2" width="96" height="96" rx="48"></rect>
                </g>
            </g>
        </g>
    </g>
</svg>