<svg width="103" height="103" viewBox="0 0 103 103" fill="none" xmlns="http://www.w3.org/2000/svg">
<path d="M51.8979 98.6063C26.0479 98.6063 5.08789 77.6563 5.08789 51.7963C5.08789 25.9363 26.0479 4.98633 51.8979 4.98633C77.7479 4.98633 98.7079 25.9463 98.7079 51.7963C98.7079 77.6463 77.7479 98.6063 51.8979 98.6063Z" fill="url(#paint0_linear)"/>
<path fill-rule="evenodd" clip-rule="evenodd" d="M51.8975 1.79688C79.5075 1.79688 101.897 24.1869 101.897 51.7969C101.897 79.4069 79.5075 101.797 51.8975 101.797C24.2875 101.797 1.89746 79.4069 1.89746 51.7969C1.89746 24.1869 24.2875 1.79688 51.8975 1.79688ZM51.8975 97.5569C77.1675 97.5569 97.6575 77.0669 97.6575 51.7969C97.6575 26.5269 77.1675 6.03687 51.8975 6.03687C26.6275 6.03687 6.13746 26.5269 6.13746 51.7969C6.13746 77.0669 26.6275 97.5569 51.8975 97.5569Z" fill="#D9D9D9"/>
<path fill-rule="evenodd" clip-rule="evenodd" d="M97.7978 51.7962C97.7978 77.1462 77.2478 97.6963 51.8978 97.6963C26.5478 97.6963 5.99781 77.1462 5.99781 51.7962C5.99781 26.4462 26.5478 5.89625 51.8978 5.89625C77.2478 5.89625 97.7978 26.4462 97.7978 51.7962ZM51.8978 2.15625C79.3178 2.15625 101.538 24.3762 101.538 51.7962C101.538 79.2162 79.3078 101.436 51.8978 101.436C24.4778 101.436 2.25781 79.2062 2.25781 51.7962C2.25781 24.3762 24.4778 2.15625 51.8978 2.15625Z" fill="#F2F1F0"/>
<path fill-rule="evenodd" clip-rule="evenodd" d="M51.8974 94.8868C28.0974 94.8868 8.80738 75.5968 8.80738 51.7968C8.80738 27.9968 28.0974 8.7068 51.8974 8.7068C75.6974 8.7068 94.9874 27.9968 94.9874 51.7968C94.9874 75.5968 75.6974 94.8868 51.8974 94.8868ZM98.7274 51.7968C98.7274 77.6568 77.7574 98.6268 51.8974 98.6268C26.0374 98.6268 5.06738 77.6568 5.06738 51.7968C5.06738 25.9368 26.0374 4.9668 51.8974 4.9668C77.7574 4.9668 98.7274 25.9268 98.7274 51.7968Z" fill="url(#paint1_linear)"/>
<path opacity="0.15" d="M89.5372 48.3856C89.5372 47.5756 88.8772 46.9156 88.0672 46.9156C87.5372 46.9156 84.2372 46.6256 82.4672 45.2456C82.4672 45.2456 82.4772 45.2256 82.4672 45.2456C81.7972 42.8056 80.8172 40.5256 79.6072 38.3656C79.2972 36.3156 81.4172 34.8256 82.3872 33.2256C82.5572 32.9456 82.6572 32.7856 82.7172 32.6756C82.8972 32.1556 82.7972 31.5556 82.3872 31.1456C82.3872 31.1456 80.7572 28.8156 79.0872 27.1556C77.4172 25.4956 74.8872 23.6456 74.8872 23.6456C74.3172 23.0756 73.3772 23.0756 72.8072 23.6456C72.4272 24.0156 69.9172 26.0856 67.6572 26.4156C67.6272 26.4156 67.6272 26.4156 67.6272 26.4156C65.5272 25.2256 63.1672 24.2456 60.7972 23.5756H60.7672C59.0972 22.3456 59.5372 19.7956 59.0972 17.9756C59.0972 17.1656 58.4372 16.5056 57.6272 16.5056C57.6272 16.5056 54.8272 16.0156 52.4672 16.0156C50.1072 16.0156 47.0172 16.5056 47.0172 16.5056C46.2072 16.5056 45.5472 17.1656 45.5472 17.9756C45.5472 18.5056 45.2572 21.8056 43.8772 23.5756C41.5372 24.2356 39.0772 25.2756 36.9972 26.4356C34.9472 26.7456 33.4572 24.6256 31.8572 23.6556C31.5772 23.4856 31.4172 23.3856 31.3072 23.3256C30.7872 23.1456 30.1872 23.2456 29.7772 23.6556C29.7772 23.6556 27.4472 25.2856 25.7872 26.9556C24.1272 28.6256 22.2772 31.1556 22.2772 31.1556C21.7072 31.7256 21.7072 32.6656 22.2772 33.2356C22.6472 33.6056 24.7772 36.1556 25.0572 38.3756V38.3956C23.8972 40.4756 22.8772 42.9256 22.2172 45.2656C22.2172 45.2656 22.2472 45.2256 22.2172 45.2656C20.7872 47.0056 18.4372 46.4956 16.6172 46.9356C15.8072 46.9356 15.1472 47.5956 15.1472 48.4056C15.1472 48.4056 14.6572 51.2056 14.6572 53.5656C14.6572 55.9256 15.1472 59.0156 15.1472 59.0156C15.1472 59.8256 15.8072 60.4856 16.6172 60.4856C17.1472 60.4856 20.4472 60.7756 22.2172 62.1556C22.2572 62.1356 22.2372 62.1856 22.2372 62.1856C22.9172 64.5356 23.8872 66.8856 25.0672 68.9656C25.0472 68.9956 25.0672 68.9656 25.0772 69.0356C25.2772 71.1756 23.2672 72.5756 22.2972 74.1756C22.1272 74.4556 22.0272 74.6156 21.9672 74.7256C21.7872 75.2456 21.8872 75.8456 22.2972 76.2556C22.2972 76.2556 23.9272 78.5856 25.5972 80.2456C27.2672 81.9156 29.7972 83.7556 29.7972 83.7556C30.3672 84.3256 31.3072 84.3256 31.8772 83.7556C32.2472 83.3856 34.7972 81.2556 37.0172 80.9756C37.0172 80.9756 37.0072 80.9856 37.0472 80.9956C39.1872 82.1856 41.3972 83.1256 43.8172 83.7856C43.8372 83.7956 43.9072 83.8156 43.9072 83.8156C45.5772 85.0456 45.1372 87.5956 45.5772 89.4156C45.6672 90.2356 46.1172 90.7556 47.0472 90.8856C47.0472 90.8856 49.8472 91.3756 52.2072 91.3756C54.5672 91.3756 57.6572 90.8956 57.6572 90.8956C58.4672 90.7556 59.1272 90.2356 59.1272 89.4256C59.1272 88.8956 59.4172 85.5956 60.7972 83.8256C60.7972 83.8256 60.8572 83.7756 60.9172 83.7256C63.3772 83.0356 65.2472 82.2756 67.4172 81.0256C67.5272 80.9856 67.4072 80.9956 67.6672 80.9556C69.7172 80.6456 71.2072 82.7656 72.8072 83.7356C73.0872 83.9056 73.2472 84.0056 73.3572 84.0656C73.8772 84.2456 74.4772 84.1456 74.8872 83.7356C74.8872 83.7356 77.2172 82.1056 78.8772 80.4356C80.5472 78.7656 82.3872 76.2356 82.3872 76.2356C82.9572 75.6656 82.9572 74.7256 82.3872 74.1556C82.0172 73.7856 79.8872 71.2356 79.6072 69.0156C79.5772 68.7856 79.5972 68.7556 79.6272 68.6956C80.8672 66.5056 81.6472 64.9056 82.3272 62.4256C82.3272 62.4256 82.2972 62.3456 82.4572 62.1356C83.6872 60.4656 86.2372 60.9056 88.0572 60.4656C88.8672 60.4656 89.5272 59.8056 89.5272 58.9956C89.5272 58.9956 90.0172 56.1956 90.0172 53.8356C90.0172 51.4756 89.5372 48.3856 89.5372 48.3856Z" fill="#1F1D20"/>
<path d="M89.5372 46.3856C89.5372 45.5756 88.8772 44.9156 88.0672 44.9156C87.5372 44.9156 84.2372 44.6256 82.4672 43.2456C82.4672 43.2456 82.4772 43.2256 82.4672 43.2456C81.7972 40.8056 80.8172 38.5256 79.6072 36.3656C79.2972 34.3156 81.4172 32.8256 82.3872 31.2256C82.5572 30.9456 82.6572 30.7856 82.7172 30.6756C82.8972 30.1556 82.7972 29.5556 82.3872 29.1456C82.3872 29.1456 80.7572 26.8156 79.0872 25.1556C77.4172 23.4956 74.8872 21.6456 74.8872 21.6456C74.3172 21.0756 73.3772 21.0756 72.8072 21.6456C72.4272 22.0156 69.9172 24.0856 67.6572 24.4156C67.6272 24.4156 67.6272 24.4156 67.6272 24.4156C65.5272 23.2256 63.1672 22.2456 60.7972 21.5756H60.7672C59.0972 20.3456 59.5372 17.7956 59.0972 15.9756C59.0972 15.1656 58.4372 14.5056 57.6272 14.5056C57.6272 14.5056 54.8272 14.0156 52.4672 14.0156C50.1072 14.0156 47.0172 14.5056 47.0172 14.5056C46.2072 14.5056 45.5472 15.1656 45.5472 15.9756C45.5472 16.5056 45.2572 19.8056 43.8772 21.5756C41.5372 22.2356 39.0772 23.2756 36.9972 24.4356C34.9472 24.7456 33.4572 22.6256 31.8572 21.6556C31.5772 21.4856 31.4172 21.3856 31.3072 21.3256C30.7872 21.1456 30.1872 21.2456 29.7772 21.6556C29.7772 21.6556 27.4472 23.2856 25.7872 24.9556C24.1272 26.6256 22.2772 29.1556 22.2772 29.1556C21.7072 29.7256 21.7072 30.6656 22.2772 31.2356C22.6472 31.6056 24.7772 34.1556 25.0572 36.3756V36.3956C23.8972 38.4756 22.8772 40.9256 22.2172 43.2656C22.2172 43.2656 22.2472 43.2256 22.2172 43.2656C20.7872 45.0056 18.4372 44.4956 16.6172 44.9356C15.8072 44.9356 15.1472 45.5956 15.1472 46.4056C15.1472 46.4056 14.6572 49.2056 14.6572 51.5656C14.6572 53.9256 15.1472 57.0156 15.1472 57.0156C15.1472 57.8256 15.8072 58.4856 16.6172 58.4856C17.1472 58.4856 20.4472 58.7756 22.2172 60.1556C22.2572 60.1356 22.2372 60.1856 22.2372 60.1856C22.9172 62.5356 23.8872 64.8856 25.0672 66.9656C25.0472 66.9956 25.0672 66.9656 25.0772 67.0356C25.2772 69.1756 23.2672 70.5756 22.2972 72.1756C22.1272 72.4556 22.0272 72.6156 21.9672 72.7256C21.7872 73.2456 21.8872 73.8456 22.2972 74.2556C22.2972 74.2556 23.9272 76.5856 25.5972 78.2456C27.2672 79.9156 29.7972 81.7556 29.7972 81.7556C30.3672 82.3256 31.3072 82.3256 31.8772 81.7556C32.2472 81.3856 34.7972 79.2556 37.0172 78.9756C37.0172 78.9756 37.0072 78.9856 37.0472 78.9956C39.1872 80.1856 41.3972 81.1256 43.8172 81.7856C43.8372 81.7956 43.9072 81.8156 43.9072 81.8156C45.5772 83.0456 45.1372 85.5956 45.5772 87.4156C45.6672 88.2356 46.1172 88.7556 47.0472 88.8856C47.0472 88.8856 49.8472 89.3756 52.2072 89.3756C54.5672 89.3756 57.6572 88.8956 57.6572 88.8956C58.4672 88.7556 59.1272 88.2356 59.1272 87.4256C59.1272 86.8956 59.4172 83.5956 60.7972 81.8256C60.7972 81.8256 60.8572 81.7756 60.9172 81.7256C63.3772 81.0356 65.2472 80.2756 67.4172 79.0256C67.5272 78.9856 67.4072 78.9956 67.6672 78.9556C69.7172 78.6456 71.2072 80.7656 72.8072 81.7356C73.0872 81.9056 73.2472 82.0056 73.3572 82.0656C73.8772 82.2456 74.4772 82.1456 74.8872 81.7356C74.8872 81.7356 77.2172 80.1056 78.8772 78.4356C80.5472 76.7656 82.3872 74.2356 82.3872 74.2356C82.9572 73.6656 82.9572 72.7256 82.3872 72.1556C82.0172 71.7856 79.8872 69.2356 79.6072 67.0156C79.5772 66.7856 79.5972 66.7556 79.6272 66.6956C80.8672 64.5056 81.6472 62.9056 82.3272 60.4256C82.3272 60.4256 82.2972 60.3456 82.4572 60.1356C83.6872 58.4656 86.2372 58.9056 88.0572 58.4656C88.8672 58.4656 89.5272 57.8056 89.5272 56.9956C89.5272 56.9956 90.0172 54.1956 90.0172 51.8356C90.0172 49.4756 89.5372 46.3856 89.5372 46.3856Z" fill="#F2F1F0"/>
<path opacity="0.25" d="M64.2076 70.8672L76.0976 58.9772C78.0176 59.8372 80.3376 59.5072 81.8976 57.9472C83.3976 56.4472 83.7976 54.2372 83.0376 52.3872L79.2476 56.1772L76.3576 53.2872L80.1476 49.4972C78.2976 48.7372 76.0976 49.1172 74.5876 50.6372C73.0276 52.1972 72.6676 54.5372 73.5576 56.4372L61.6776 68.2872C60.2876 67.8272 58.6676 68.1372 57.5476 69.2572C55.9676 70.8372 55.9876 73.3872 57.5476 74.9472C59.1276 76.5272 61.6776 76.5072 63.2376 74.9472C64.3676 73.8572 64.6876 72.2772 64.2076 70.8672ZM59.4176 73.1172C58.8676 72.5672 58.8876 71.7072 59.4176 71.1772C59.9676 70.6272 60.8276 70.6472 61.3576 71.1772C61.8876 71.7072 61.8876 72.5872 61.3576 73.1172C60.8276 73.6472 59.9476 73.6472 59.4176 73.1172Z" fill="#1F1D21"/>
<path d="M64.2076 69.9473L76.0976 58.0573C78.0176 58.9173 80.3376 58.5873 81.8976 57.0273C83.3976 55.5273 83.7976 53.3173 83.0376 51.4673L79.2476 55.2573L76.3576 52.3673L80.1476 48.5773C78.2976 47.8173 76.0976 48.1973 74.5876 49.7173C73.0276 51.2773 72.6676 53.6173 73.5576 55.5173L61.6776 67.3673C60.2876 66.9073 58.6676 67.2173 57.5476 68.3373C55.9676 69.9173 55.9876 72.4673 57.5476 74.0273C59.1276 75.6073 61.6776 75.5873 63.2376 74.0273C64.3676 72.9373 64.6876 71.3573 64.2076 69.9473ZM59.4176 72.1973C58.8676 71.6473 58.8876 70.7873 59.4176 70.2573C59.9676 69.7073 60.8276 69.7273 61.3576 70.2573C61.8876 70.7873 61.8876 71.6673 61.3576 72.1973C60.8276 72.7273 59.9476 72.7273 59.4176 72.1973Z" fill="url(#paint2_linear)"/>
<g opacity="0.25">
<path opacity="0.25" d="M67.7279 45.8489H61.3379H59.7879H55.4979H54.7879H54.0679V44.2889C54.0779 44.2889 54.0979 44.2889 54.1079 44.2989C54.2179 44.3189 54.3279 44.3389 54.4379 44.3489C54.5479 44.3689 54.6679 44.3989 54.7779 44.4089C54.8879 44.4189 54.9979 44.4189 55.1079 44.4189C55.1179 44.4189 55.1279 44.4189 55.1379 44.4189C55.1479 44.4189 55.1579 44.4189 55.1679 44.4189C55.2779 44.4189 55.3879 44.4089 55.4979 44.4089V44.3889C57.8979 44.1989 59.7879 42.2189 59.7879 39.7789C59.7879 37.2089 57.7079 35.1289 55.1379 35.1289C52.5679 35.1289 50.4879 37.2089 50.4879 39.7789C50.4879 40.1489 50.5379 40.5089 50.6279 40.8489H50.6179C50.6679 41.0989 50.7479 41.3289 50.8479 41.5589H39.6479C38.9279 41.5589 38.3379 42.1489 38.3379 42.8689V55.9789C38.3379 56.6989 38.9279 57.2889 39.6479 57.2889H47.0879C47.8279 60.8889 50.9579 63.6289 54.7879 63.7289C57.9979 63.6489 60.7179 61.6989 61.9479 58.9489C62.5979 59.2589 63.3079 59.4389 64.0679 59.4389H64.0879C66.8479 59.4389 69.0779 57.1989 69.0779 54.4489V47.1989C69.0879 46.4489 68.4879 45.8489 67.7279 45.8489Z" fill="#1F1D21"/>
<path opacity="0.25" d="M65.1575 44.4185C66.9375 44.4185 68.3775 42.9785 68.3775 41.1985C68.3775 39.4185 66.9375 37.9785 65.1575 37.9785C63.3775 37.9785 61.9375 39.4185 61.9375 41.1985C61.9375 42.9685 63.3775 44.4185 65.1575 44.4185Z" fill="#1F1D21"/>
</g>
<path d="M59.7881 44.8086H67.7281C68.4781 44.8086 69.0881 45.4186 69.0881 46.1686V53.4086C69.0881 56.1686 66.8481 58.3986 64.0981 58.3986H64.0781C61.3181 58.3986 59.0881 56.1586 59.0881 53.4086V45.5186C59.0781 45.1186 59.3981 44.8086 59.7881 44.8086Z" fill="#5059C9"/>
<path d="M65.1575 43.3775C66.9375 43.3775 68.3775 41.9375 68.3775 40.1575C68.3775 38.3775 66.9375 36.9375 65.1575 36.9375C63.3775 36.9375 61.9375 38.3775 61.9375 40.1575C61.9375 41.9375 63.3775 43.3775 65.1575 43.3775Z" fill="#5059C9"/>
<path d="M55.148 43.3781C57.718 43.3781 59.798 41.2981 59.798 38.7281C59.798 36.1581 57.718 34.0781 55.148 34.0781C52.578 34.0781 50.498 36.1581 50.498 38.7281C50.498 41.2881 52.578 43.3781 55.148 43.3781Z" fill="#7B83EB"/>
<path d="M61.3481 44.8086H48.2281C47.4881 44.8286 46.8981 45.4386 46.9181 46.1886V54.4386C46.8181 58.8886 50.3381 62.5786 54.7881 62.6886C59.2381 62.5786 62.7581 58.8886 62.6581 54.4386V46.1886C62.6681 45.4386 62.0881 44.8186 61.3481 44.8086Z" fill="#7B83EB"/>
<path opacity="0.1" d="M55.5082 44.8086V56.3686C55.5082 56.8986 55.1882 57.3786 54.6882 57.5786C54.5282 57.6486 54.3682 57.6786 54.1982 57.6786H47.5582C47.4682 57.4386 47.3782 57.2086 47.3082 56.9586C47.0582 56.1386 46.9282 55.2886 46.9282 54.4286V46.1786C46.9082 45.4386 47.4982 44.8286 48.2382 44.8086H55.5082V44.8086Z" fill="black"/>
<path opacity="0.2" d="M54.7875 44.8086V57.0886C54.7875 57.2586 54.7575 57.4286 54.6875 57.5786C54.4875 58.0686 54.0075 58.3886 53.4775 58.3986H47.8875C47.7675 58.1586 47.6475 57.9286 47.5475 57.6786C47.4475 57.4386 47.3675 57.2086 47.2975 56.9586C47.0475 56.1386 46.9175 55.2886 46.9175 54.4286V46.1786C46.8975 45.4386 47.4875 44.8286 48.2275 44.8086H54.7875V44.8086Z" fill="black"/>
<path opacity="0.2" d="M54.7875 44.8086V55.6586C54.7775 56.3786 54.1975 56.9586 53.4775 56.9686H47.2975C47.0475 56.1486 46.9175 55.2986 46.9175 54.4386V46.1886C46.8975 45.4486 47.4875 44.8386 48.2275 44.8186H54.7875V44.8086Z" fill="black"/>
<path opacity="0.2" d="M54.0675 44.8086V55.6586C54.0575 56.3786 53.4775 56.9586 52.7575 56.9686H47.2975C47.0475 56.1486 46.9175 55.2986 46.9175 54.4386V46.1886C46.8975 45.4486 47.4875 44.8386 48.2275 44.8186H54.0675V44.8086Z" fill="black"/>
<path opacity="0.1" d="M55.5082 41.1088V43.3588C55.3882 43.3688 55.2682 43.3688 55.1482 43.3688C55.0282 43.3688 54.9082 43.3588 54.7882 43.3588C54.5482 43.3388 54.3082 43.3088 54.0682 43.2488C52.6182 42.9088 51.4282 41.8888 50.8482 40.5188C50.7482 40.2888 50.6682 40.0488 50.6182 39.7988H54.1882C54.9182 39.7988 55.4982 40.3888 55.5082 41.1088Z" fill="black"/>
<path opacity="0.2" d="M54.7877 41.8176V43.3576C54.5477 43.3376 54.3077 43.3076 54.0677 43.2476C52.6177 42.9076 51.4177 41.8876 50.8477 40.5176H53.4677C54.1977 40.5176 54.7877 41.0976 54.7877 41.8176Z" fill="black"/>
<path opacity="0.2" d="M54.7877 41.8176V43.3576C54.5477 43.3376 54.3077 43.3076 54.0677 43.2476C52.6177 42.9076 51.4177 41.8876 50.8477 40.5176H53.4677C54.1977 40.5176 54.7877 41.0976 54.7877 41.8176Z" fill="black"/>
<path opacity="0.2" d="M54.0677 41.8178V43.2378C52.6177 42.8978 51.4277 41.8778 50.8477 40.5078H52.7577C53.4877 40.5178 54.0677 41.0978 54.0677 41.8178Z" fill="black"/>
<path d="M39.6479 40.5176H52.7579C53.4779 40.5176 54.0679 41.1076 54.0679 41.8276V54.9376C54.0679 55.6576 53.4779 56.2476 52.7579 56.2476H39.6479C38.9279 56.2476 38.3379 55.6576 38.3379 54.9376V41.8276C38.3379 41.0976 38.9279 40.5176 39.6479 40.5176Z" fill="url(#paint3_linear)"/>
<path d="M49.6578 45.5072H47.0378V52.6472H45.3678V45.5072H42.7578V44.1172H49.6578V45.5072Z" fill="white"/>
<path opacity="0.25" d="M34.8871 38.5781H12.7871V53.9181H16.1971V57.2881L19.5971 53.9181H34.8971V38.5781H34.8871Z" fill="#1F1D21"/>
<path d="M34.8871 37.4473H12.7871V52.7873H16.1971V56.1573L19.5971 52.7873H34.8971V37.4473H34.8871Z" fill="url(#paint4_linear)"/>
<path opacity="0.25" d="M29.877 17.418V32.638H42.547L47.597 37.668V32.638H52.647V17.418H29.877Z" fill="#1F1D21"/>
<path d="M29.877 16.2871V31.5071H42.547L47.597 36.5371V31.5071H52.647V16.2871H29.877Z" fill="url(#paint5_linear)"/>
<defs>
<linearGradient id="paint0_linear" x1="36.8404" y1="1.35783" x2="67.0767" y2="102.65" gradientUnits="userSpaceOnUse">
<stop stop-color="#A9B1FF"/>
<stop offset="1" stop-color="#7B83EB"/>
</linearGradient>
<linearGradient id="paint1_linear" x1="51.8973" y1="4.9667" x2="51.8973" y2="98.6269" gradientUnits="userSpaceOnUse">
<stop stop-color="#5A62C3"/>
<stop offset="0.5" stop-color="#4D55BD"/>
<stop offset="1" stop-color="#3940AB"/>
</linearGradient>
<linearGradient id="paint2_linear" x1="60.3518" y1="40.396" x2="86.2415" y2="99.5456" gradientUnits="userSpaceOnUse">
<stop stop-color="#007ED8"/>
<stop offset="0.7065" stop-color="#002D4C"/>
</linearGradient>
<linearGradient id="paint3_linear" x1="41.0721" y1="39.489" x2="51.3389" y2="57.2712" gradientUnits="userSpaceOnUse">
<stop stop-color="#5A62C3"/>
<stop offset="0.5" stop-color="#4D55BD"/>
<stop offset="1" stop-color="#3940AB"/>
</linearGradient>
<linearGradient id="paint4_linear" x1="15.8601" y1="11.7892" x2="27.5766" y2="60.7341" gradientUnits="userSpaceOnUse">
<stop stop-color="#5A62C3"/>
<stop offset="0.5" stop-color="#4D55BD"/>
<stop offset="1" stop-color="#3940AB"/>
</linearGradient>
<linearGradient id="paint5_linear" x1="37.1411" y1="6.69471" x2="48.8576" y2="55.6396" gradientUnits="userSpaceOnUse">
<stop stop-color="#5A62C3"/>
<stop offset="0.5" stop-color="#4D55BD"/>
<stop offset="1" stop-color="#3940AB"/>
</linearGradient>
</defs>
</svg>
