<svg width="103" height="103" viewBox="0 0 103 103" fill="none" xmlns="http://www.w3.org/2000/svg">
<path d="M51.8969 98.12C26.0469 98.12 5.08691 77.17 5.08691 51.31C5.08691 25.45 26.0469 4.5 51.8969 4.5C77.7469 4.5 98.7069 25.46 98.7069 51.31C98.7069 77.16 77.7469 98.12 51.8969 98.12Z" fill="url(#paint0_linear)"/>
<path fill-rule="evenodd" clip-rule="evenodd" d="M97.7968 51.3099C97.7968 76.6599 77.2468 97.2099 51.8968 97.2099C26.5468 97.2099 5.99684 76.6599 5.99684 51.3099C5.99684 25.9599 26.5468 5.40992 51.8968 5.40992C77.2468 5.40992 97.7968 25.9599 97.7968 51.3099ZM51.8968 1.66992C79.3168 1.66992 101.537 23.8899 101.537 51.3099C101.537 78.7299 79.3068 100.95 51.8968 100.95C24.4768 100.95 2.25684 78.7199 2.25684 51.3099C2.25684 23.8899 24.4768 1.66992 51.8968 1.66992Z" fill="#F2F1F0"/>
<path fill-rule="evenodd" clip-rule="evenodd" d="M94.9864 51.3105C94.9864 75.1105 75.6964 94.4005 51.8964 94.4005C28.0964 94.4005 8.80641 75.1105 8.80641 51.3105C8.80641 27.5105 28.0964 8.22047 51.8964 8.22047C75.6964 8.22047 94.9864 27.5105 94.9864 51.3105ZM51.8964 4.48047C77.7564 4.48047 98.7264 25.4505 98.7264 51.3105C98.7264 77.1705 77.7564 98.1405 51.8964 98.1405C26.0364 98.1405 5.06641 77.1705 5.06641 51.3105C5.06641 25.4505 26.0264 4.48047 51.8964 4.48047Z" fill="url(#paint1_linear)"/>
<path opacity="0.15" d="M89.0968 47.4794C89.0968 46.6694 88.4368 46.0094 87.6268 46.0094C87.0968 46.0094 83.7968 45.7194 82.0268 44.3394C82.0268 44.3394 82.0368 44.3194 82.0268 44.3394C81.3568 41.8994 80.3768 39.6194 79.1668 37.4594C78.8568 35.4094 80.9768 33.9194 81.9468 32.3194C82.1168 32.0394 82.2168 31.8794 82.2768 31.7694C82.4568 31.2494 82.3568 30.6494 81.9468 30.2394C81.9468 30.2394 80.3168 27.9094 78.6468 26.2494C76.9768 24.5894 74.4468 22.7394 74.4468 22.7394C73.8768 22.1694 72.9368 22.1694 72.3668 22.7394C71.9868 23.1094 69.4768 25.1794 67.2168 25.5094C67.1868 25.5094 67.1868 25.5094 67.1868 25.5094C65.0868 24.3194 62.7268 23.3394 60.3568 22.6694H60.3268C58.6568 21.4394 59.0968 18.8894 58.6568 17.0694C58.6568 16.2594 57.9968 15.5994 57.1868 15.5994C57.1868 15.5994 54.3868 15.1094 52.0268 15.1094C49.6668 15.1094 46.5768 15.5994 46.5768 15.5994C45.7668 15.5994 45.1068 16.2594 45.1068 17.0694C45.1068 17.5994 44.8168 20.8994 43.4368 22.6694C41.0968 23.3294 38.6368 24.3694 36.5568 25.5294C34.5068 25.8394 33.0168 23.7194 31.4168 22.7494C31.1368 22.5794 30.9768 22.4794 30.8668 22.4194C30.3468 22.2394 29.7468 22.3394 29.3368 22.7494C29.3368 22.7494 27.0068 24.3794 25.3468 26.0494C23.6868 27.7194 21.8368 30.2494 21.8368 30.2494C21.2668 30.8194 21.2668 31.7594 21.8368 32.3294C22.2068 32.6994 24.3368 35.2494 24.6168 37.4694V37.4894C23.4568 39.5694 22.4368 42.0194 21.7768 44.3594C21.7768 44.3594 21.8068 44.3194 21.7768 44.3594C20.3468 46.0994 17.9968 45.5894 16.1768 46.0294C15.3668 46.0294 14.7068 46.6894 14.7068 47.4994C14.7068 47.4994 14.2168 50.2994 14.2168 52.6594C14.2168 55.0194 14.7068 58.1094 14.7068 58.1094C14.7068 58.9194 15.3668 59.5794 16.1768 59.5794C16.7068 59.5794 20.0068 59.8694 21.7768 61.2494C21.8168 61.2294 21.7968 61.2794 21.7968 61.2794C22.4768 63.6294 23.4468 65.9794 24.6268 68.0594C24.6068 68.0894 24.6268 68.0594 24.6368 68.1294C24.8368 70.2694 22.8268 71.6694 21.8568 73.2694C21.6868 73.5494 21.5868 73.7094 21.5268 73.8194C21.3468 74.3394 21.4468 74.9394 21.8568 75.3494C21.8568 75.3494 23.4868 77.6794 25.1568 79.3394C26.8268 81.0094 29.3568 82.8494 29.3568 82.8494C29.9268 83.4194 30.8668 83.4194 31.4368 82.8494C31.8068 82.4794 34.3568 80.3494 36.5768 80.0694C36.5768 80.0694 36.5668 80.0794 36.6068 80.0894C38.7468 81.2794 40.9568 82.2194 43.3768 82.8794C43.3968 82.8894 43.4668 82.9094 43.4668 82.9094C45.1368 84.1394 44.6968 86.6894 45.1368 88.5094C45.2268 89.3294 45.6768 89.8494 46.6068 89.9794C46.6068 89.9794 49.4068 90.4694 51.7668 90.4694C54.1268 90.4694 57.2168 89.9894 57.2168 89.9894C58.0268 89.8494 58.6868 89.3294 58.6868 88.5194C58.6868 87.9894 58.9768 84.6894 60.3568 82.9194C60.3568 82.9194 60.4168 82.8694 60.4768 82.8194C62.9368 82.1294 64.8068 81.3694 66.9768 80.1194C67.0868 80.0794 66.9668 80.0894 67.2268 80.0494C69.2768 79.7394 70.7668 81.8594 72.3668 82.8294C72.6468 82.9994 72.8068 83.0994 72.9168 83.1594C73.4368 83.3394 74.0368 83.2394 74.4468 82.8294C74.4468 82.8294 76.7768 81.1994 78.4368 79.5294C80.1068 77.8594 81.9468 75.3294 81.9468 75.3294C82.5168 74.7594 82.5168 73.8194 81.9468 73.2494C81.5768 72.8794 79.4468 70.3294 79.1668 68.1094C79.1368 67.8794 79.1568 67.8494 79.1868 67.7894C80.4268 65.5994 81.2068 63.9994 81.8868 61.5194C81.8868 61.5194 81.8568 61.4394 82.0168 61.2294C83.2468 59.5594 85.7968 59.9994 87.6168 59.5594C88.4268 59.5594 89.0868 58.8994 89.0868 58.0894C89.0868 58.0894 89.5768 55.2894 89.5768 52.9294C89.5768 50.5694 89.0968 47.4794 89.0968 47.4794Z" fill="#1F1D20"/>
<path d="M89.0968 45.4794C89.0968 44.6694 88.4368 44.0094 87.6268 44.0094C87.0968 44.0094 83.7968 43.7194 82.0268 42.3394C82.0268 42.3394 82.0368 42.3194 82.0268 42.3394C81.3568 39.8994 80.3768 37.6194 79.1668 35.4594C78.8568 33.4094 80.9768 31.9194 81.9468 30.3194C82.1168 30.0394 82.2168 29.8794 82.2768 29.7694C82.4568 29.2494 82.3568 28.6494 81.9468 28.2394C81.9468 28.2394 80.3168 25.9094 78.6468 24.2494C76.9768 22.5894 74.4468 20.7394 74.4468 20.7394C73.8768 20.1694 72.9368 20.1694 72.3668 20.7394C71.9868 21.1094 69.4768 23.1794 67.2168 23.5094C67.1868 23.5094 67.1868 23.5094 67.1868 23.5094C65.0868 22.3194 62.7268 21.3394 60.3568 20.6694H60.3268C58.6568 19.4394 59.0968 16.8894 58.6568 15.0694C58.6568 14.2594 57.9968 13.5994 57.1868 13.5994C57.1868 13.5994 54.3868 13.1094 52.0268 13.1094C49.6668 13.1094 46.5768 13.5994 46.5768 13.5994C45.7668 13.5994 45.1068 14.2594 45.1068 15.0694C45.1068 15.5994 44.8168 18.8994 43.4368 20.6694C41.0968 21.3294 38.6368 22.3694 36.5568 23.5294C34.5068 23.8394 33.0168 21.7194 31.4168 20.7494C31.1368 20.5794 30.9768 20.4794 30.8668 20.4194C30.3468 20.2394 29.7468 20.3394 29.3368 20.7494C29.3368 20.7494 27.0068 22.3794 25.3468 24.0494C23.6868 25.7194 21.8368 28.2494 21.8368 28.2494C21.2668 28.8194 21.2668 29.7594 21.8368 30.3294C22.2068 30.6994 24.3368 33.2494 24.6168 35.4694V35.4894C23.4568 37.5694 22.4368 40.0194 21.7768 42.3594C21.7768 42.3594 21.8068 42.3194 21.7768 42.3594C20.3468 44.0994 17.9968 43.5894 16.1768 44.0294C15.3668 44.0294 14.7068 44.6894 14.7068 45.4994C14.7068 45.4994 14.2168 48.2994 14.2168 50.6594C14.2168 53.0194 14.7068 56.1094 14.7068 56.1094C14.7068 56.9194 15.3668 57.5794 16.1768 57.5794C16.7068 57.5794 20.0068 57.8694 21.7768 59.2494C21.8168 59.2294 21.7968 59.2794 21.7968 59.2794C22.4768 61.6294 23.4468 63.9794 24.6268 66.0594C24.6068 66.0894 24.6268 66.0594 24.6368 66.1294C24.8368 68.2694 22.8268 69.6694 21.8568 71.2694C21.6868 71.5494 21.5868 71.7094 21.5268 71.8194C21.3468 72.3394 21.4468 72.9394 21.8568 73.3494C21.8568 73.3494 23.4868 75.6794 25.1568 77.3394C26.8268 79.0094 29.3568 80.8494 29.3568 80.8494C29.9268 81.4194 30.8668 81.4194 31.4368 80.8494C31.8068 80.4794 34.3568 78.3494 36.5768 78.0694C36.5768 78.0694 36.5668 78.0794 36.6068 78.0894C38.7468 79.2794 40.9568 80.2194 43.3768 80.8794C43.3968 80.8894 43.4668 80.9094 43.4668 80.9094C45.1368 82.1394 44.6968 84.6894 45.1368 86.5094C45.2268 87.3294 45.6768 87.8494 46.6068 87.9794C46.6068 87.9794 49.4068 88.4694 51.7668 88.4694C54.1268 88.4694 57.2168 87.9894 57.2168 87.9894C58.0268 87.8494 58.6868 87.3294 58.6868 86.5194C58.6868 85.9894 58.9768 82.6894 60.3568 80.9194C60.3568 80.9194 60.4168 80.8694 60.4768 80.8194C62.9368 80.1294 64.8068 79.3694 66.9768 78.1194C67.0868 78.0794 66.9668 78.0894 67.2268 78.0494C69.2768 77.7394 70.7668 79.8594 72.3668 80.8294C72.6468 80.9994 72.8068 81.0994 72.9168 81.1594C73.4368 81.3394 74.0368 81.2394 74.4468 80.8294C74.4468 80.8294 76.7768 79.1994 78.4368 77.5294C80.1068 75.8594 81.9468 73.3294 81.9468 73.3294C82.5168 72.7594 82.5168 71.8194 81.9468 71.2494C81.5768 70.8794 79.4468 68.3294 79.1668 66.1094C79.1368 65.8794 79.1568 65.8494 79.1868 65.7894C80.4268 63.5994 81.2068 61.9994 81.8868 59.5194C81.8868 59.5194 81.8568 59.4394 82.0168 59.2294C83.2468 57.5594 85.7968 57.9994 87.6168 57.5594C88.4268 57.5594 89.0868 56.8994 89.0868 56.0894C89.0868 56.0894 89.5768 53.2894 89.5768 50.9294C89.5768 48.5694 89.0968 45.4794 89.0968 45.4794Z" fill="#F2F1F0"/>
<path opacity="0.15" d="M51.9067 53.3203L69.9467 63.8103L51.8467 74.3003L33.8467 63.8103L51.9067 53.3203Z" fill="#1F1D20"/>
<path d="M51.8467 50.8904V71.8504L33.8467 61.3104V40.4004L51.8467 50.8904Z" fill="#32B0E7"/>
<path d="M51.9067 29.9102L69.9467 40.4002L51.8467 50.8902L33.8467 40.4002L51.9067 29.9102Z" fill="#45CAF2"/>
<path d="M69.9467 40.4004V61.3104L51.8467 71.8504V50.8904L69.9467 40.4004Z" fill="#156AB3"/>
<path d="M51.8467 71.8506V50.8906L69.9467 61.3106L51.8467 71.8506Z" fill="#185A97"/>
<path d="M51.8467 71.8506V50.8906L33.8467 61.3106L51.8467 71.8506Z" fill="#0078D4"/>
<path opacity="0.25" d="M60.5865 71.5801L72.4765 59.6901C74.3965 60.5501 76.7165 60.2201 78.2765 58.6601C79.7765 57.1601 80.1765 54.9501 79.4165 53.1001L75.6265 56.8901L72.7365 54.0001L76.5265 50.2101C74.6765 49.4501 72.4765 49.8301 70.9665 51.3501C69.4065 52.9101 69.0465 55.2501 69.9365 57.1501L58.0565 69.0101C56.6665 68.5501 55.0465 68.8601 53.9265 69.9801C52.3465 71.5601 52.3665 74.1101 53.9265 75.6701C55.5065 77.2501 58.0565 77.2301 59.6165 75.6701C60.7565 74.5701 61.0665 72.9901 60.5865 71.5801ZM55.7965 73.8301C55.2465 73.2801 55.2665 72.4201 55.7965 71.8901C56.3465 71.3401 57.2065 71.3601 57.7365 71.8901C58.2665 72.4201 58.2665 73.3001 57.7365 73.8301C57.2065 74.3601 56.3265 74.3601 55.7965 73.8301Z" fill="#1F1D21"/>
<path d="M60.5865 70.6602L72.4765 58.7702C74.3965 59.6302 76.7165 59.3002 78.2765 57.7402C79.7765 56.2402 80.1765 54.0302 79.4165 52.1802L75.6265 55.9702L72.7365 53.0802L76.5265 49.2902C74.6765 48.5302 72.4765 48.9102 70.9665 50.4302C69.4065 51.9902 69.0465 54.3302 69.9365 56.2302L58.0565 68.0902C56.6665 67.6302 55.0465 67.9402 53.9265 69.0602C52.3465 70.6402 52.3665 73.1902 53.9265 74.7502C55.5065 76.3302 58.0565 76.3102 59.6165 74.7502C60.7565 73.6502 61.0665 72.0702 60.5865 70.6602ZM55.7965 72.9102C55.2465 72.3602 55.2665 71.5002 55.7965 70.9702C56.3465 70.4202 57.2065 70.4402 57.7365 70.9702C58.2665 71.5002 58.2665 72.3802 57.7365 72.9102C57.2065 73.4402 56.3265 73.4402 55.7965 72.9102Z" fill="url(#paint2_linear)"/>
<defs>
<linearGradient id="paint0_linear" x1="50.127" y1="-13.4801" x2="54.109" y2="132.29" gradientUnits="userSpaceOnUse">
<stop stop-color="#00ABDE"/>
<stop offset="1" stop-color="#007ED8"/>
</linearGradient>
<linearGradient id="paint1_linear" x1="3.32911" y1="-20.3135" x2="98.8561" y2="120.567" gradientUnits="userSpaceOnUse">
<stop stop-color="#007ED8"/>
<stop offset="0.7065" stop-color="#002D4C"/>
</linearGradient>
<linearGradient id="paint2_linear" x1="63.6256" y1="42.3928" x2="67.4051" y2="71.8731" gradientUnits="userSpaceOnUse">
<stop stop-color="#007ED8"/>
<stop offset="0.7065" stop-color="#002D4C"/>
</linearGradient>
</defs>
</svg>
