<svg width="100" height="100" viewBox="0 0 100 100" fill="none" xmlns="http://www.w3.org/2000/svg">
<g clip-path="url(#clip0_967_1326)">
<path d="M49.6401 96.45C40.382 96.45 31.3317 93.7047 23.6339 88.5611C15.936 83.4176 9.93624 76.1068 6.3933 67.5534C2.85036 59 1.92337 49.5881 3.72954 40.5078C5.53571 31.4276 9.99394 23.0868 16.5404 16.5403C23.0869 9.99384 31.4277 5.53562 40.5079 3.72945C49.5882 1.92327 59.0001 2.85027 67.5535 6.39321C76.1069 9.93614 83.4176 15.9359 88.5612 23.6338C93.7047 31.3316 96.4501 40.3819 96.4501 49.64C96.4505 55.7873 95.24 61.8745 92.8878 67.5539C90.5355 73.2334 87.0875 78.3938 82.7407 82.7406C78.3939 87.0874 73.2335 90.5354 67.554 92.8877C61.8746 95.2399 55.7874 96.4504 49.6401 96.45V96.45Z" fill="url(#paint0_linear_967_1326)"/>
<path fill-rule="evenodd" clip-rule="evenodd" d="M95.54 49.64C95.54 58.7182 92.848 67.5925 87.8045 75.1407C82.7609 82.6889 75.5923 88.572 67.2052 92.0461C58.818 95.5201 49.5891 96.4291 40.6854 94.658C31.7816 92.887 23.603 88.5154 17.1838 82.0962C10.7646 75.677 6.39302 67.4984 4.62196 58.5946C2.85089 49.6909 3.75987 40.462 7.23393 32.0748C10.708 23.6877 16.5911 16.5191 24.1393 11.4755C31.6875 6.43199 40.5618 3.74 49.64 3.74C55.6677 3.73998 61.6363 4.9272 67.2052 7.23388C72.774 9.54057 77.834 12.9215 82.0963 17.1837C86.3585 21.446 89.7394 26.5059 92.0461 32.0748C94.3528 37.6437 95.54 43.6123 95.54 49.64V49.64ZM49.64 3.62732e-07C59.4579 3.62732e-07 69.0553 2.91134 77.2185 8.36585C85.3818 13.8204 91.7442 21.5731 95.5014 30.6436C99.2585 39.7141 100.242 49.6951 98.3262 59.3243C96.4108 68.9535 91.6831 77.7985 84.7408 84.7408C77.7985 91.6831 68.9535 96.4108 59.3243 98.3262C49.6951 100.242 39.7141 99.2585 30.6436 95.5014C21.5731 91.7442 13.8204 85.3818 8.36585 77.2185C2.91134 69.0553 3.62732e-07 59.4579 3.62732e-07 49.64C-0.000787738 43.121 1.28265 36.6656 3.77702 30.6427C6.27138 24.6197 9.9278 19.1471 14.5375 14.5375C19.1471 9.9278 24.6197 6.27138 30.6427 3.77702C36.6656 1.28265 43.121 -0.000787738 49.64 3.62732e-07V3.62732e-07Z" fill="#F2F1F0"/>
<path fill-rule="evenodd" clip-rule="evenodd" d="M92.7296 49.6401C92.7296 58.1625 90.2024 66.4935 85.4676 73.5796C80.7328 80.6657 74.0031 86.1887 66.1294 89.4501C58.2557 92.7114 49.5918 93.5648 41.2331 91.9021C32.8745 90.2395 25.1966 86.1356 19.1703 80.1093C13.1441 74.0831 9.04017 66.4052 7.37753 58.0465C5.7149 49.6879 6.56822 41.0239 9.8296 33.1503C13.091 25.2766 18.6139 18.5469 25.7 13.8121C32.7862 9.07727 41.1172 6.55009 49.6396 6.55009C55.2983 6.54974 60.9017 7.66407 66.1298 9.82942C71.3579 11.9948 76.1082 15.1687 80.1096 19.1701C84.1109 23.1714 87.2849 27.9218 89.4502 33.1499C91.6156 38.3779 92.7299 43.9813 92.7296 49.6401V49.6401ZM49.6396 2.81009C58.9017 2.81009 67.9558 5.55662 75.6569 10.7024C83.3581 15.8481 89.3604 23.162 92.9049 31.719C96.4493 40.2761 97.3767 49.692 95.5697 58.7762C93.7628 67.8603 89.3027 76.2046 82.7534 82.7539C76.2041 89.3032 67.8598 93.7633 58.7757 95.5703C49.6915 97.3772 40.2756 96.4498 31.7185 92.9054C23.1614 89.3609 15.8476 83.3586 10.7018 75.6574C5.5561 67.9563 2.80957 58.9022 2.80957 49.6401C2.81076 37.2204 7.745 25.3097 16.5271 16.5276C25.3091 7.7455 37.2198 2.81125 49.6396 2.81006V2.81009Z" fill="#0078D4"/>
<path fill-rule="evenodd" clip-rule="evenodd" d="M92.7637 49.6401C92.7637 58.1625 90.2366 66.4935 85.5018 73.5796C80.767 80.6657 74.0372 86.1887 66.1636 89.4501C58.2899 92.7114 49.6259 93.5648 41.2673 91.9021C32.9087 90.2395 25.2308 86.1356 19.2045 80.1093C13.1783 74.0831 9.07435 66.4052 7.41171 58.0465C5.74908 49.6879 6.6024 41.0239 9.86378 33.1503C13.1252 25.2766 18.6481 18.5469 25.7342 13.8121C32.8203 9.07727 41.1514 6.55009 49.6738 6.55009C55.3325 6.54974 60.9359 7.66407 66.164 9.82942C71.3921 11.9948 76.1424 15.1687 80.1437 19.1701C84.1451 23.1714 87.3191 27.9218 89.4844 33.1499C91.6498 38.3779 92.7641 43.9813 92.7637 49.6401V49.6401ZM49.6738 2.81009C58.9359 2.81009 67.9899 5.55662 75.6911 10.7024C83.3923 15.8481 89.3946 23.162 92.939 31.719C96.4835 40.2761 97.4109 49.692 95.6039 58.7762C93.797 67.8603 89.3369 76.2046 82.7876 82.7539C76.2383 89.3032 67.894 93.7633 58.8098 95.5703C49.7257 97.3772 40.3097 96.4498 31.7527 92.9054C23.1956 89.3609 15.8818 83.3586 10.736 75.6574C5.59028 67.9563 2.84375 58.9022 2.84375 49.6401C2.84494 37.2204 7.77918 25.3097 16.5612 16.5276C25.3433 7.7455 37.254 2.81125 49.6738 2.81006V2.81009Z" fill="#0078D4"/>
<path d="M40.5046 61.9452C40.0645 61.9465 39.6428 62.1219 39.3316 62.4331C39.0204 62.7443 38.845 63.166 38.8438 63.6061V75.2318H60.4345V63.6061C60.4332 63.166 60.2578 62.7443 59.9466 62.4331C59.6354 62.1219 59.2137 61.9465 58.7737 61.9452H40.5046ZM58.7737 62.7757C58.9938 62.7759 59.2049 62.8635 59.3605 63.0192C59.5162 63.1749 59.6038 63.3859 59.6041 63.6061V74.4014H39.6742V63.6061C39.6744 63.3859 39.7619 63.1748 39.9176 63.0191C40.0733 62.8634 40.2844 62.7759 40.5046 62.7757H58.7737Z" fill="url(#paint1_linear_967_1326)"/>
<path d="M39.6741 63.6061C39.6743 63.3859 39.7619 63.1748 39.9175 63.0191C40.0732 62.8634 40.2843 62.7759 40.5045 62.7757H58.7736C58.9937 62.7759 59.2048 62.8635 59.3604 63.0192C59.5161 63.1749 59.6037 63.3859 59.604 63.6061V74.4014H39.6741V63.6061Z" fill="url(#paint2_linear_967_1326)"/>
<path d="M36.3525 75.2318V75.647C36.3538 76.0871 36.5292 76.5088 36.8404 76.82C37.1516 77.1311 37.5733 77.3065 38.0134 77.3078H61.2649C61.705 77.3065 62.1267 77.1311 62.4379 76.82C62.7491 76.5088 62.9245 76.0871 62.9258 75.647V75.2318L36.3525 75.2318Z" fill="url(#paint3_linear_967_1326)"/>
<path fill-rule="evenodd" clip-rule="evenodd" d="M47.9784 76.0623H51.3001C51.5203 76.0622 51.7314 75.9747 51.8872 75.8189C52.0429 75.6632 52.1304 75.4521 52.1305 75.2318H47.1479C47.148 75.4521 47.2355 75.6633 47.3912 75.819C47.5469 75.9748 47.7581 76.0623 47.9784 76.0623Z" fill="#003067"/>
<path d="M79.0254 40.1367L20.2539 40.1378C19.1365 40.142 18.0664 40.5898 17.2791 41.3829C16.4919 42.176 16.0519 43.2493 16.0559 44.3668V54.9392C16.0519 56.0567 16.4919 57.13 17.2791 57.9231C18.0664 58.7161 19.1365 59.164 20.2539 59.1682H79.0254C80.143 59.1638 81.2131 58.7157 82.0003 57.9224C82.7875 57.1292 83.2275 56.0557 83.2234 54.9381V44.3657C83.2275 43.2482 82.7875 42.1749 82.0002 41.3818C81.2129 40.5887 80.1429 40.1409 79.0254 40.1367V40.1367Z" fill="url(#paint4_linear_967_1326)"/>
<path fill-rule="evenodd" clip-rule="evenodd" d="M31.3641 51.0938C30.9705 50.6957 30.7498 50.1586 30.7498 49.5988C30.7498 49.0391 30.9705 48.5019 31.3641 48.1039C31.5583 47.9078 31.7894 47.7521 32.0441 47.6459C32.2989 47.5397 32.5721 47.485 32.8481 47.485C33.124 47.485 33.3973 47.5397 33.652 47.6459C33.9067 47.7521 34.1379 47.9078 34.3321 48.1039C34.7259 48.5018 34.9468 49.039 34.9468 49.5988C34.9468 50.1586 34.7259 50.6959 34.3321 51.0938C34.1379 51.29 33.9068 51.4457 33.6521 51.552C33.3974 51.6583 33.1241 51.713 32.8481 51.713C32.5721 51.713 32.2988 51.6583 32.0441 51.552C31.7893 51.4457 31.5582 51.29 31.3641 51.0938Z" fill="#0078D4"/>
<path fill-rule="evenodd" clip-rule="evenodd" d="M25.0744 51.1129C24.681 50.7148 24.4604 50.1777 24.4604 49.618C24.4604 49.0583 24.681 48.5212 25.0744 48.123C25.2687 47.9269 25.5 47.7713 25.7548 47.6651C26.0096 47.5589 26.2829 47.5042 26.5589 47.5042C26.835 47.5042 27.1083 47.5589 27.3631 47.6651C27.6179 47.7713 27.8491 47.9269 28.0434 48.123C28.4368 48.5212 28.6574 49.0583 28.6574 49.618C28.6574 50.1777 28.4368 50.7148 28.0434 51.1129C27.8492 51.3091 27.618 51.4649 27.3632 51.5712C27.1084 51.6774 26.835 51.7322 26.5589 51.7322C26.2828 51.7322 26.0095 51.6774 25.7547 51.5712C25.4999 51.4649 25.2687 51.3091 25.0744 51.1129Z" fill="#0078D4"/>
<path fill-rule="evenodd" clip-rule="evenodd" d="M49.6392 44.3665V54.9389C49.6403 55.2156 49.5869 55.4898 49.4819 55.7458C49.377 56.0018 49.2227 56.2347 49.0278 56.4311C48.8329 56.6274 48.6012 56.7835 48.3459 56.8903C48.0907 56.9971 47.8169 57.0525 47.5402 57.0535H16.6379C17.0008 57.6932 17.5263 58.2258 18.1612 58.5971C18.7962 58.9684 19.5179 59.1653 20.2535 59.1679H79.0249C80.1424 59.1635 81.2125 58.7154 81.9997 57.9222C82.787 57.129 83.2269 56.0556 83.2229 54.938V44.3654C83.219 43.622 83.0184 42.8928 82.6414 42.2521H51.7381C51.4614 42.253 51.1876 42.3085 50.9324 42.4152C50.6772 42.522 50.4455 42.6781 50.2506 42.8744C50.0556 43.0708 49.9013 43.3036 49.7964 43.5596C49.6915 43.8157 49.6381 44.0898 49.6392 44.3665Z" fill="url(#paint5_linear_967_1326)"/>
<path fill-rule="evenodd" clip-rule="evenodd" d="M74.8279 47.5383H62.234C61.6758 47.5422 61.1417 47.7667 60.7482 48.1628C60.3548 48.5589 60.134 49.0946 60.134 49.6528C60.134 50.2111 60.3548 50.7468 60.7482 51.1429C61.1417 51.539 61.6758 51.7635 62.234 51.7673H74.8279C75.3862 51.7635 75.9203 51.539 76.3137 51.1429C76.7072 50.7468 76.928 50.2111 76.928 49.6528C76.928 49.0946 76.7072 48.5589 76.3137 48.1628C75.9203 47.7667 75.3862 47.5422 74.8279 47.5383V47.5383Z" fill="#9CEBFF"/>
<path fill-rule="evenodd" clip-rule="evenodd" d="M33.5516 50.308C33.2275 50.6342 32.8045 50.8439 32.3486 50.9044C31.8927 50.9648 31.4297 50.8726 31.0317 50.6421C31.1865 50.927 31.4062 51.1715 31.6729 51.3558C31.9397 51.5401 32.2461 51.659 32.5673 51.7029C32.8886 51.7469 33.2157 51.7146 33.5221 51.6087C33.8286 51.5029 34.1058 51.3264 34.3314 51.0935C34.7253 50.6956 34.9462 50.1584 34.9462 49.5986C34.9462 49.0387 34.7253 48.5015 34.3314 48.1036C34.1977 47.9727 34.0469 47.8603 33.8833 47.7695C34.1119 48.171 34.2033 48.6362 34.1434 49.0944C34.0836 49.5526 33.8758 49.9787 33.5516 50.308V50.308Z" fill="#003067"/>
<path fill-rule="evenodd" clip-rule="evenodd" d="M27.2627 50.3274C26.9387 50.6537 26.5156 50.8634 26.0598 50.9238C25.6039 50.9843 25.1408 50.892 24.7429 50.6615C24.8977 50.9465 25.1175 51.191 25.3843 51.3754C25.6512 51.5597 25.9577 51.6787 26.279 51.7226C26.6003 51.7666 26.9275 51.7343 27.234 51.6284C27.5406 51.5224 27.8179 51.3459 28.0436 51.1129C28.2767 50.8852 28.4533 50.6061 28.5593 50.2979C28.6653 49.9897 28.6978 49.661 28.6542 49.3381C28.6105 49.0151 28.492 48.7068 28.308 48.4378C28.1239 48.1689 27.8796 47.9466 27.5944 47.7889C27.8236 48.1903 27.9152 48.6556 27.8554 49.1139C27.7955 49.5722 27.5874 49.9984 27.2627 50.3274Z" fill="#003067"/>
<path fill-rule="evenodd" clip-rule="evenodd" d="M62.2341 48.5956H74.828C75.2936 48.5978 75.7452 48.7548 76.1117 49.0419C76.4783 49.329 76.7389 49.7299 76.8524 50.1815C76.9379 49.8706 76.9503 49.5441 76.8885 49.2276C76.8268 48.9111 76.6926 48.6132 76.4965 48.3572C76.3005 48.1012 76.0478 47.8941 75.7583 47.752C75.4689 47.61 75.1504 47.5368 74.828 47.5384H62.2341C61.9117 47.5369 61.5933 47.6101 61.3038 47.7522C61.0144 47.8943 60.7618 48.1014 60.5657 48.3574C60.3697 48.6134 60.2355 48.9112 60.1737 49.2277C60.112 49.5441 60.1242 49.8706 60.2096 50.1815C60.3232 49.7299 60.5838 49.329 60.9503 49.0419C61.3168 48.7548 61.7685 48.5978 62.2341 48.5956Z" fill="#50E6FF"/>
<path d="M39.6157 34.7854L48.2168 20.1023C48.3622 19.8542 48.5699 19.6484 48.8194 19.5054C49.0689 19.3624 49.3515 19.2872 49.6391 19.2872C49.9266 19.2872 50.2092 19.3624 50.4587 19.5054C50.7082 19.6484 50.9159 19.8542 51.0613 20.1023L59.6624 34.7854C59.8091 35.0358 59.8871 35.3205 59.8885 35.6107C59.8898 35.9009 59.8146 36.1864 59.6702 36.4381C59.5259 36.6899 59.3177 36.8992 59.0666 37.0447C58.8155 37.1902 58.5304 37.2668 58.2402 37.2668H41.0379C40.7477 37.2668 40.4627 37.1902 40.2116 37.0447C39.9604 36.8992 39.7522 36.6899 39.6079 36.4382C39.4636 36.1864 39.3883 35.9009 39.3897 35.6107C39.391 35.3205 39.469 35.0358 39.6157 34.7854V34.7854Z" fill="#FF9300"/>
<path d="M41.0381 36.1679C40.9414 36.168 40.8464 36.1425 40.7626 36.094C40.6789 36.0456 40.6095 35.9759 40.5613 35.892C40.5132 35.8081 40.4881 35.7129 40.4885 35.6162C40.489 35.5195 40.5149 35.4246 40.5638 35.3411L49.1647 20.6577C49.2132 20.575 49.2825 20.5063 49.3657 20.4587C49.4489 20.411 49.5431 20.3859 49.6391 20.3859C49.735 20.386 49.8292 20.4111 49.9124 20.4588C49.9956 20.5065 50.0648 20.5752 50.1133 20.658L58.7141 35.3408C58.763 35.4243 58.789 35.5192 58.7895 35.6159C58.7899 35.7126 58.7649 35.8077 58.7168 35.8916C58.6687 35.9755 58.5994 36.0453 58.5157 36.0938C58.432 36.1423 58.3371 36.1679 58.2404 36.1679H41.0381Z" fill="#FFCA00"/>
<path d="M49.6389 31.3238C49.4932 31.3239 49.3534 31.266 49.2503 31.163C49.1472 31.06 49.0892 30.9203 49.0891 30.7745V25.5113C49.0897 25.3659 49.1479 25.2267 49.251 25.1241C49.354 25.0215 49.4935 24.9639 49.6389 24.9639C49.7843 24.9639 49.9238 25.0215 50.0269 25.1241C50.1299 25.2267 50.1881 25.3659 50.1887 25.5113V30.7745C50.1886 30.9203 50.1307 31.06 50.0276 31.163C49.9245 31.266 49.7847 31.3239 49.6389 31.3238Z" fill="#FF9300"/>
<path d="M49.6392 34.1045C50.0415 34.1045 50.3677 33.7783 50.3677 33.376C50.3677 32.9736 50.0415 32.6474 49.6392 32.6474C49.2368 32.6474 48.9106 32.9736 48.9106 33.376C48.9106 33.7783 49.2368 34.1045 49.6392 34.1045Z" fill="#FF9300"/>
</g>
<defs>
<linearGradient id="paint0_linear_967_1326" x1="47.8697" y1="-15.1531" x2="51.8525" y2="130.615" gradientUnits="userSpaceOnUse">
<stop stop-color="#00ABDE"/>
<stop offset="1" stop-color="#007ED8"/>
</linearGradient>
<linearGradient id="paint1_linear_967_1326" x1="49.6391" y1="75.2318" x2="49.6391" y2="61.9214" gradientUnits="userSpaceOnUse">
<stop stop-color="#003067"/>
<stop offset="0.16493" stop-color="#003F7C"/>
<stop offset="0.36216" stop-color="#004F90"/>
<stop offset="0.68089" stop-color="#00589D"/>
<stop offset="1" stop-color="#005BA1"/>
</linearGradient>
<linearGradient id="paint2_linear_967_1326" x1="49.639" y1="74.4014" x2="49.639" y2="62.7548" gradientUnits="userSpaceOnUse">
<stop stop-color="#005BA1"/>
<stop offset="0.26" stop-color="#00589D"/>
<stop offset="0.53" stop-color="#004F90"/>
<stop offset="0.8" stop-color="#003F7C"/>
<stop offset="1" stop-color="#003067"/>
</linearGradient>
<linearGradient id="paint3_linear_967_1326" x1="49.6391" y1="77.3079" x2="49.6391" y2="75.2318" gradientUnits="userSpaceOnUse">
<stop stop-color="#004DAE"/>
<stop offset="0.21" stop-color="#0061C4"/>
<stop offset="0.51" stop-color="#0078DD"/>
<stop offset="0.78" stop-color="#0086EC"/>
<stop offset="1" stop-color="#008BF1"/>
</linearGradient>
<linearGradient id="paint4_linear_967_1326" x1="49.6397" y1="40.1367" x2="49.6397" y2="59.2023" gradientUnits="userSpaceOnUse">
<stop stop-color="#005BA1"/>
<stop offset="0.26" stop-color="#00589D"/>
<stop offset="0.53" stop-color="#004F90"/>
<stop offset="0.8" stop-color="#003F7C"/>
<stop offset="1" stop-color="#003067"/>
</linearGradient>
<linearGradient id="paint5_linear_967_1326" x1="49.9304" y1="42.2521" x2="49.9304" y2="59.1679" gradientUnits="userSpaceOnUse">
<stop stop-color="#008BF1"/>
<stop offset="0.22" stop-color="#0086EC"/>
<stop offset="0.49" stop-color="#0078DD"/>
<stop offset="0.79" stop-color="#0061C4"/>
<stop offset="1" stop-color="#004DAE"/>
</linearGradient>
<clipPath id="clip0_967_1326">
<rect width="99.2799" height="99.28" fill="white"/>
</clipPath>
</defs>
</svg>
