<svg width="100" height="100" viewBox="0 0 100 100" fill="none" xmlns="http://www.w3.org/2000/svg">
<g clip-path="url(#clip0_1136_925)">
<path d="M49.6401 96.45C40.382 96.45 31.3317 93.7047 23.6339 88.5611C15.936 83.4176 9.93624 76.1068 6.3933 67.5534C2.85036 59 1.92337 49.5881 3.72954 40.5078C5.53571 31.4276 9.99394 23.0868 16.5404 16.5403C23.0869 9.99384 31.4277 5.53562 40.5079 3.72945C49.5882 1.92327 59.0001 2.85027 67.5535 6.39321C76.1069 9.93614 83.4176 15.9359 88.5612 23.6338C93.7047 31.3316 96.4501 40.3819 96.4501 49.64C96.4505 55.7873 95.24 61.8745 92.8878 67.5539C90.5355 73.2334 87.0875 78.3938 82.7407 82.7406C78.3939 87.0874 73.2335 90.5354 67.554 92.8877C61.8746 95.2399 55.7874 96.4504 49.6401 96.45V96.45Z" fill="url(#paint0_linear_1136_925)"/>
<path fill-rule="evenodd" clip-rule="evenodd" d="M95.54 49.64C95.54 58.7182 92.848 67.5925 87.8045 75.1407C82.7609 82.6889 75.5923 88.572 67.2052 92.0461C58.818 95.5201 49.5891 96.4291 40.6854 94.658C31.7816 92.887 23.603 88.5154 17.1838 82.0962C10.7646 75.677 6.39302 67.4984 4.62196 58.5946C2.85089 49.6909 3.75987 40.462 7.23393 32.0748C10.708 23.6877 16.5911 16.5191 24.1393 11.4755C31.6875 6.43199 40.5618 3.74 49.64 3.74C55.6677 3.73998 61.6363 4.9272 67.2052 7.23388C72.774 9.54057 77.834 12.9215 82.0963 17.1837C86.3585 21.446 89.7394 26.5059 92.0461 32.0748C94.3528 37.6437 95.54 43.6123 95.54 49.64V49.64ZM49.64 3.62732e-07C59.4579 3.62732e-07 69.0553 2.91134 77.2185 8.36585C85.3818 13.8204 91.7442 21.5731 95.5014 30.6436C99.2585 39.7141 100.242 49.6951 98.3262 59.3243C96.4108 68.9535 91.6831 77.7985 84.7408 84.7408C77.7985 91.6831 68.9535 96.4108 59.3243 98.3262C49.6951 100.242 39.7141 99.2585 30.6436 95.5014C21.5731 91.7442 13.8204 85.3818 8.36585 77.2185C2.91134 69.0553 3.62732e-07 59.4579 3.62732e-07 49.64C-0.000787738 43.121 1.28265 36.6656 3.77702 30.6427C6.27138 24.6197 9.9278 19.1471 14.5375 14.5375C19.1471 9.9278 24.6197 6.27138 30.6427 3.77702C36.6656 1.28265 43.121 -0.000787738 49.64 3.62732e-07V3.62732e-07Z" fill="#F2F1F0"/>
<path fill-rule="evenodd" clip-rule="evenodd" d="M92.7296 49.6401C92.7296 58.1625 90.2024 66.4935 85.4676 73.5796C80.7328 80.6657 74.0031 86.1887 66.1294 89.4501C58.2557 92.7114 49.5918 93.5648 41.2331 91.9021C32.8745 90.2395 25.1966 86.1356 19.1703 80.1093C13.1441 74.0831 9.04017 66.4052 7.37753 58.0465C5.7149 49.6879 6.56822 41.0239 9.8296 33.1503C13.091 25.2766 18.6139 18.5469 25.7 13.8121C32.7862 9.07727 41.1172 6.55009 49.6396 6.55009C55.2983 6.54974 60.9017 7.66407 66.1298 9.82942C71.3579 11.9948 76.1082 15.1687 80.1096 19.1701C84.1109 23.1714 87.2849 27.9218 89.4502 33.1499C91.6156 38.3779 92.7299 43.9813 92.7296 49.6401V49.6401ZM49.6396 2.81009C58.9017 2.81009 67.9558 5.55662 75.6569 10.7024C83.3581 15.8481 89.3604 23.162 92.9049 31.719C96.4493 40.2761 97.3767 49.692 95.5697 58.7762C93.7628 67.8603 89.3027 76.2046 82.7534 82.7539C76.2041 89.3032 67.8598 93.7633 58.7757 95.5703C49.6915 97.3772 40.2756 96.4498 31.7185 92.9054C23.1614 89.3609 15.8476 83.3586 10.7018 75.6574C5.5561 67.9563 2.80957 58.9022 2.80957 49.6401C2.81076 37.2204 7.745 25.3097 16.5271 16.5276C25.3091 7.7455 37.2198 2.81125 49.6396 2.81006V2.81009Z" fill="#0078D4"/>
<path fill-rule="evenodd" clip-rule="evenodd" d="M92.7637 49.6401C92.7637 58.1625 90.2366 66.4935 85.5018 73.5796C80.767 80.6657 74.0372 86.1887 66.1636 89.4501C58.2899 92.7114 49.6259 93.5648 41.2673 91.9021C32.9087 90.2395 25.2308 86.1356 19.2045 80.1093C13.1783 74.0831 9.07435 66.4052 7.41171 58.0465C5.74908 49.6879 6.6024 41.0239 9.86378 33.1503C13.1252 25.2766 18.6481 18.5469 25.7342 13.8121C32.8203 9.07727 41.1514 6.55009 49.6738 6.55009C55.3325 6.54974 60.9359 7.66407 66.164 9.82942C71.3921 11.9948 76.1424 15.1687 80.1437 19.1701C84.1451 23.1714 87.3191 27.9218 89.4844 33.1499C91.6498 38.3779 92.7641 43.9813 92.7637 49.6401V49.6401ZM49.6738 2.81009C58.9359 2.81009 67.9899 5.55662 75.6911 10.7024C83.3923 15.8481 89.3946 23.162 92.939 31.719C96.4835 40.2761 97.4109 49.692 95.6039 58.7762C93.797 67.8603 89.3369 76.2046 82.7876 82.7539C76.2383 89.3032 67.894 93.7633 58.8098 95.5703C49.7257 97.3772 40.3097 96.4498 31.7527 92.9054C23.1956 89.3609 15.8818 83.3586 10.736 75.6574C5.59028 67.9563 2.84375 58.9022 2.84375 49.6401C2.84494 37.2204 7.77918 25.3097 16.5612 16.5276C25.3433 7.7455 37.254 2.81125 49.6738 2.81006V2.81009Z" fill="#0078D4"/>
<path fill-rule="evenodd" clip-rule="evenodd" d="M32.1623 21.4299C31.9496 21.639 31.7807 21.8884 31.6655 22.1635C31.5503 22.4387 31.4912 22.734 31.4915 23.0322V47.5108C31.4912 47.8091 31.5503 48.1044 31.6655 48.3795C31.7807 48.6546 31.9496 48.904 32.1623 49.1131L49.6739 33.809L44.9237 34.1911L32.1623 21.4299Z" fill="#E8E8E8"/>
<path fill-rule="evenodd" clip-rule="evenodd" d="M67.1852 21.4299L54.7877 33.8273L49.6738 33.2621L67.1852 49.1131C67.3979 48.9041 67.5668 48.6547 67.682 48.3796C67.7973 48.1044 67.8565 47.8091 67.8562 47.5108V23.0322C67.8565 22.734 67.7973 22.4386 67.6821 22.1635C67.5668 21.8884 67.3979 21.639 67.1852 21.4299V21.4299Z" fill="#E8E8E8"/>
<path fill-rule="evenodd" clip-rule="evenodd" d="M67.1852 49.1131C66.9761 49.3258 66.7267 49.4946 66.4515 49.6098C66.1764 49.7249 65.8811 49.784 65.5828 49.7836H33.7638C33.4657 49.7839 33.1705 49.7248 32.8955 49.6097C32.6204 49.4945 32.3711 49.3257 32.1621 49.1131L45.242 36.0332L48.3688 33.0922C48.7219 32.7601 49.1885 32.5752 49.6733 32.5753C50.1581 32.5753 50.6246 32.7604 50.9776 33.0927L54.1622 36.09L67.1852 49.1131Z" fill="#F2F2F2"/>
<path fill-rule="evenodd" clip-rule="evenodd" d="M67.1852 21.4299C66.9761 21.2173 66.7267 21.0484 66.4515 20.9333C66.1764 20.8182 65.8811 20.7591 65.5828 20.7595H33.7638C33.4657 20.7591 33.1705 20.8183 32.8955 20.9334C32.6204 21.0485 32.3711 21.2173 32.1621 21.4299L45.242 34.5098L48.3688 37.4508C48.7219 37.783 49.1885 37.9679 49.6733 37.9678C50.1581 37.9677 50.6246 37.7827 50.9776 37.4504L54.1621 34.453L67.1852 21.4299Z" fill="white"/>
<path d="M57.0571 28.5979C56.9913 28.4077 56.8954 28.2293 56.7732 28.0694C56.653 27.9099 56.5076 27.7711 56.3427 27.6585C56.1746 27.5452 55.9896 27.4594 55.7946 27.404L50.3637 25.9069C50.2685 25.8719 50.1703 25.8457 50.0703 25.8286C49.9731 25.8147 49.8749 25.8082 49.7767 25.8091C49.6248 25.8093 49.4735 25.829 49.3266 25.8678C49.18 25.9055 49.0386 25.9614 48.9057 26.0341L43.0737 29.3514C42.7815 29.5131 42.5407 29.7539 42.3789 30.0461C42.2133 30.3316 42.1256 30.6555 42.1245 30.9855V39.9587C42.124 40.0822 42.1479 40.2046 42.1949 40.3188C42.242 40.4331 42.3112 40.5368 42.3985 40.6242C42.4858 40.7115 42.5896 40.7807 42.7038 40.8277C42.8181 40.8747 42.9405 40.8986 43.064 40.8981C43.2213 40.8962 43.3758 40.8559 43.514 40.7807L45.1482 39.8902C45.3693 39.7667 45.5547 39.588 45.6864 39.3716C45.8169 39.1563 45.8846 38.9089 45.8821 38.6573V32.287C45.8811 31.9965 45.97 31.7128 46.1365 31.4748C46.2987 31.2326 46.5359 31.0504 46.8118 30.9562L50.266 29.7232V40.8981H45.6668C45.4464 40.8986 45.2352 40.9866 45.0797 41.1427C45.0032 41.2178 44.9428 41.3078 44.9025 41.4071C44.8621 41.5064 44.8424 41.6129 44.8448 41.7201C44.848 41.8649 44.8884 42.0064 44.9622 42.1311C45.0365 42.2508 45.1412 42.3487 45.2656 42.4148L48.8177 44.4208C48.9807 44.5193 49.1548 44.5981 49.3364 44.6556C49.5206 44.7099 49.7119 44.7363 49.9039 44.7339L50.1388 44.7143C50.2148 44.7082 50.2901 44.6951 50.3638 44.6752L55.7947 43.1194C56.1885 43.0071 56.5353 42.7702 56.7831 42.4441C57.0298 42.1214 57.1608 41.725 57.1549 41.3188V29.2046C57.1564 28.9983 57.1233 28.7932 57.0571 28.5979V28.5979ZM55.9023 41.3189C55.9063 41.4571 55.8612 41.5923 55.7751 41.7005C55.6895 41.8054 55.5731 41.8807 55.4423 41.9158L51.5185 43.0411V27.5215L52.1447 27.6976L52.771 27.8738L55.4423 28.6076C55.5728 28.6488 55.6884 28.727 55.7751 28.8327C55.8602 28.9377 55.9052 29.0695 55.9023 29.2046V41.3189Z" fill="#0078D4"/>
<path opacity="0.2" d="M49.9036 46.734C49.5141 46.7361 49.1264 46.6805 48.7532 46.569C48.4194 46.465 48.0991 46.3218 47.7991 46.1422L44.2815 44.1564C43.8578 43.9219 43.5027 43.5809 43.2512 43.1671C43.1978 43.0801 43.1492 42.9901 43.1057 42.8976L43.0637 42.8981C42.6775 42.8987 42.295 42.8231 41.9381 42.6756C41.5812 42.528 41.257 42.3116 40.9839 42.0385C40.7108 41.7654 40.4943 41.4411 40.3468 41.0842C40.1993 40.7273 40.1237 40.3448 40.1243 39.9586V30.9855C40.1248 30.312 40.3009 29.6503 40.635 29.0655C40.9777 28.45 41.4863 27.943 42.1028 27.6022L47.9172 24.296C48.2027 24.1369 48.5073 24.0147 48.8235 23.9322C49.1346 23.8507 49.455 23.8093 49.7766 23.8092C49.9783 23.8081 50.1798 23.8228 50.3792 23.8532C50.5743 23.8838 50.7664 23.9312 50.9534 23.9948L56.3255 25.4758C56.7297 25.5898 57.1134 25.7671 57.4622 26.0012C57.9851 26.3557 58.413 26.8332 58.7081 27.3918C59.0032 27.9504 59.1565 28.573 59.1546 29.2048V41.319C59.1593 42.1623 58.8849 42.9834 58.3743 43.6544C57.87 44.3163 57.1676 44.7998 56.3694 45.0348L50.9143 46.5983C50.7176 46.6529 50.5162 46.6892 50.3128 46.7067L49.9846 46.734L49.9036 46.734Z" fill="#767676"/>
<path d="M57.1549 29.2046V41.3189C57.1608 41.7251 57.0298 42.1215 56.783 42.4442C56.5353 42.7703 56.1885 43.0072 55.7947 43.1194L50.3638 44.6753C50.2902 44.6952 50.2148 44.7083 50.1388 44.7144L49.9039 44.734C49.7119 44.7364 49.5206 44.71 49.3363 44.6557C49.1548 44.5982 48.9807 44.5193 48.8177 44.4209L45.2656 42.4149C45.1412 42.3488 45.0365 42.2509 44.9623 42.1311C44.8884 42.0065 44.848 41.8649 44.8449 41.7201C44.8425 41.6129 44.8621 41.5064 44.9025 41.4071C44.9429 41.3078 45.0032 41.2179 45.0797 41.1428C45.2352 40.9866 45.4464 40.8986 45.6668 40.8981H50.266V29.7232L46.8117 30.9562C46.5359 31.0504 46.2987 31.2327 46.1365 31.4748C45.97 31.7129 45.8811 31.9965 45.8821 32.287V38.6573C45.8847 38.909 45.8169 39.1564 45.6864 39.3716C45.5548 39.5881 45.3693 39.7667 45.1482 39.8903L43.514 40.7807C43.3758 40.856 43.2213 40.8963 43.0639 40.8982C42.9404 40.8987 42.818 40.8747 42.7038 40.8277C42.5896 40.7807 42.4858 40.7115 42.3985 40.6242C42.3112 40.5368 42.242 40.4331 42.195 40.3189C42.148 40.2047 42.124 40.0823 42.1245 39.9588V30.9855C42.1255 30.6555 42.2133 30.3316 42.3789 30.0461C42.5407 29.7539 42.7815 29.5131 43.0737 29.3514L48.9058 26.0341C49.0386 25.9614 49.18 25.9055 49.3266 25.8678C49.4735 25.829 49.6248 25.8093 49.7767 25.8091C49.8749 25.8082 49.973 25.8147 50.0703 25.8286C50.1703 25.8457 50.2686 25.8719 50.3638 25.9069L55.7947 27.4041C55.9897 27.4594 56.1746 27.5453 56.3427 27.6585C56.5076 27.7711 56.6531 27.91 56.7733 28.0695C56.8955 28.2293 56.9913 28.4077 57.057 28.5979C57.1233 28.7933 57.1563 28.9983 57.1549 29.2046V29.2046ZM55.9024 41.3189V29.2046C55.9053 29.0695 55.8602 28.9377 55.7751 28.8327C55.6884 28.727 55.5728 28.6488 55.4424 28.6077L52.771 27.8738L52.1448 27.6976L51.5185 27.5215V43.0411L55.4424 41.9158C55.5732 41.8807 55.6896 41.8054 55.7751 41.7005C55.8613 41.5923 55.9063 41.4571 55.9024 41.3189V41.3189Z" fill="#0078D4"/>
<path d="M26.8445 65.5416V62.8577C26.8445 61.9941 27.1876 61.1659 27.7982 60.5552C28.4089 59.9445 29.2371 59.6015 30.1008 59.6015H46.4175C46.8452 59.6015 47.2686 59.5172 47.6637 59.3536C48.0587 59.1899 48.4177 58.9501 48.7201 58.6477C49.0224 58.3453 49.2623 57.9864 49.4259 57.5913C49.5896 57.1962 49.6738 56.7728 49.6738 56.3452V53.5332" stroke="white" stroke-width="0.5" stroke-miterlimit="10" stroke-linecap="round"/>
<path d="M49.6738 65.5407V62.8577C49.6738 61.9941 50.0169 61.1658 50.6276 60.5552C51.2383 59.9445 52.0665 59.6014 52.9301 59.6014H69.2469C69.6745 59.6014 70.0979 59.6856 70.493 59.8493C70.8881 60.0129 71.247 60.2528 71.5494 60.5552C71.8518 60.8575 72.0916 61.2165 72.2553 61.6116C72.4189 62.0066 72.5032 62.4301 72.5032 62.8577V65.5415" stroke="white" stroke-width="0.5" stroke-miterlimit="10" stroke-linecap="round"/>
<path d="M26.8445 67.2299C27.7769 67.2299 28.5328 66.474 28.5328 65.5416C28.5328 64.6092 27.7769 63.8533 26.8445 63.8533C25.9121 63.8533 25.1562 64.6092 25.1562 65.5416C25.1562 66.474 25.9121 67.2299 26.8445 67.2299Z" fill="white"/>
<path d="M49.6739 67.2299C50.6063 67.2299 51.3621 66.474 51.3621 65.5416C51.3621 64.6092 50.6063 63.8533 49.6739 63.8533C48.7415 63.8533 47.9856 64.6092 47.9856 65.5416C47.9856 66.474 48.7415 67.2299 49.6739 67.2299Z" fill="white"/>
<path d="M72.5032 67.2299C73.4356 67.2299 74.1915 66.474 74.1915 65.5416C74.1915 64.6092 73.4356 63.8533 72.5032 63.8533C71.5708 63.8533 70.8149 64.6092 70.8149 65.5416C70.8149 66.474 71.5708 67.2299 72.5032 67.2299Z" fill="white"/>
<path d="M26.8445 76.6285C28.7256 76.6285 30.2505 75.1036 30.2505 73.2225C30.2505 71.3414 28.7256 69.8165 26.8445 69.8165C24.9634 69.8165 23.4385 71.3414 23.4385 73.2225C23.4385 75.1036 24.9634 76.6285 26.8445 76.6285Z" fill="#0078D4"/>
<path d="M51.8961 70.1938H47.4513C47.006 70.1938 46.645 70.5548 46.645 71.0001V75.4449C46.645 75.8902 47.006 76.2512 47.4513 76.2512H51.8961C52.3414 76.2512 52.7024 75.8902 52.7024 75.4449V71.0001C52.7024 70.5548 52.3414 70.1938 51.8961 70.1938Z" fill="#50E6FF"/>
<path d="M69.4707 75.3647L71.9933 71.0605C72.0454 70.9716 72.1199 70.8979 72.2093 70.8466C72.2987 70.7954 72.4 70.7684 72.5031 70.7684C72.6061 70.7684 72.7074 70.7954 72.7968 70.8466C72.8863 70.8979 72.9607 70.9716 73.0128 71.0605L75.5354 75.3647C75.588 75.4545 75.616 75.5565 75.6165 75.6606C75.617 75.7646 75.59 75.8669 75.5383 75.9572C75.4865 76.0475 75.4119 76.1225 75.3219 76.1747C75.2319 76.2268 75.1297 76.2543 75.0256 76.2543H69.9805C69.8765 76.2543 69.7743 76.2268 69.6842 76.1747C69.5942 76.1225 69.5196 76.0475 69.4678 75.9572C69.4161 75.8669 69.3891 75.7646 69.3897 75.6606C69.3902 75.5565 69.4181 75.4545 69.4707 75.3647V75.3647Z" fill="#C3F1FF"/>
<path d="M52.3184 51.2655C52.18 51.2655 52.0449 51.2605 51.914 51.2505C51.7932 51.2411 51.6732 51.224 51.5546 51.1992C51.4449 51.1761 51.3374 51.1434 51.2334 51.1014C51.1312 51.0598 51.0335 51.0079 50.9417 50.9466C50.7783 50.8348 50.5996 50.7469 50.4112 50.6858C50.2358 50.6304 50.055 50.5937 49.8719 50.5761C49.8538 50.5744 49.8359 50.5735 49.8181 50.5735H49.4611C49.4432 50.5735 49.4254 50.5744 49.4072 50.5761C49.224 50.5937 49.0432 50.6305 48.8677 50.686C48.6822 50.7459 48.5062 50.8316 48.3447 50.9407C48.2498 51.0043 48.149 51.0584 48.0437 51.1024C47.941 51.1441 47.8347 51.1764 47.7262 51.1987C47.6063 51.2237 47.4849 51.2409 47.3628 51.2505C47.2314 51.2605 47.0974 51.2655 46.9608 51.2655C46.816 51.2655 46.6771 51.3231 46.5747 51.4254C46.4723 51.5278 46.4148 51.6667 46.4148 51.8115L46.4151 53.2572C46.4172 53.3225 46.4204 53.3879 46.4241 53.4505C46.4284 53.5221 46.4351 53.5937 46.4441 53.6652C46.4535 53.7399 46.5057 54.0175 46.5241 54.0899C46.6146 54.4442 46.7566 54.7833 46.9456 55.0963C47.1275 55.3972 47.3409 55.6779 47.5822 55.9336C47.8207 56.1861 48.0807 56.4174 48.3593 56.6249C48.6245 56.8227 48.9007 57.0055 49.1865 57.1722C49.2699 57.2208 49.3646 57.2463 49.4611 57.2463H49.8181C49.9146 57.2463 50.0093 57.2208 50.0927 57.1722C50.3785 57.0055 50.6547 56.8227 50.9199 56.6247C51.1985 56.4174 51.4585 56.1862 51.697 55.9338C51.9382 55.6779 52.1516 55.3972 52.3336 55.0963C52.5226 54.7833 52.6646 54.4442 52.7551 54.0899C52.7737 54.0175 52.822 53.7504 52.8327 53.6819C52.8447 53.6055 52.853 53.5292 52.8577 53.453C52.8623 53.3821 52.8645 53.3112 52.8644 53.2402V51.8115C52.8644 51.6667 52.8068 51.5278 52.7045 51.4254C52.6021 51.323 52.4632 51.2655 52.3184 51.2655V51.2655Z" fill="white"/>
<path d="M49.818 51.1195C49.963 51.1332 50.1061 51.1622 50.245 51.206C50.3837 51.2511 50.5153 51.316 50.6356 51.3985C50.7592 51.4816 50.8911 51.5517 51.029 51.6078C51.1628 51.6617 51.301 51.7037 51.442 51.7334C51.5838 51.7632 51.7273 51.7837 51.8718 51.7948C52.0169 51.8059 52.1657 51.8115 52.3182 51.8115V53.2402C52.3182 53.2997 52.3164 53.3592 52.3126 53.4188C52.3089 53.4783 52.3024 53.5378 52.2931 53.5973H49.818V51.1195ZM46.9607 51.8115C47.1114 51.8115 47.2593 51.8059 47.4044 51.7948C47.5497 51.7836 47.6942 51.7631 47.8369 51.7334C47.9781 51.7042 48.1163 51.6622 48.2499 51.6078C48.3886 51.5503 48.5213 51.4793 48.6461 51.3957C48.7657 51.3145 48.8963 51.2506 49.0339 51.206C49.1728 51.1622 49.3159 51.1332 49.4609 51.1195V53.5973H46.9858C46.9784 53.5378 46.9728 53.4783 46.9691 53.4188C46.9653 53.3592 46.9626 53.2997 46.9607 53.2402V51.8115ZM49.4609 56.7002C49.1928 56.5439 48.9338 56.3725 48.6851 56.1868C48.4319 55.9985 48.1957 55.7884 47.9791 55.559C47.7644 55.3315 47.5745 55.0817 47.4127 54.814C47.2511 54.5467 47.1298 54.2571 47.0527 53.9545H49.4608L49.4609 56.7002ZM49.818 53.9545H52.2261C52.149 54.2571 52.0277 54.5467 51.8661 54.8139C51.7043 55.0817 51.5145 55.3315 51.2997 55.5589C51.0831 55.7884 50.8469 55.9985 50.5937 56.1868C50.345 56.3724 50.086 56.5438 49.818 56.7002L49.818 53.9545Z" fill="#0078D4"/>
</g>
<defs>
<linearGradient id="paint0_linear_1136_925" x1="47.8697" y1="-15.1531" x2="51.8525" y2="130.615" gradientUnits="userSpaceOnUse">
<stop stop-color="#00ABDE"/>
<stop offset="1" stop-color="#007ED8"/>
</linearGradient>
<clipPath id="clip0_1136_925">
<rect width="99.2799" height="99.28" fill="white"/>
</clipPath>
</defs>
</svg>
