<svg width="100" height="100" viewBox="0 0 100 100" fill="none" xmlns="http://www.w3.org/2000/svg">
<g clip-path="url(#clip0_378_845)">
<path d="M49.6401 96.45C40.382 96.45 31.3317 93.7047 23.6339 88.5611C15.936 83.4176 9.93624 76.1068 6.3933 67.5534C2.85036 59 1.92337 49.5881 3.72954 40.5078C5.53571 31.4276 9.99394 23.0868 16.5404 16.5403C23.0869 9.99384 31.4277 5.53562 40.5079 3.72945C49.5882 1.92327 59.0001 2.85027 67.5535 6.39321C76.1069 9.93614 83.4176 15.9359 88.5612 23.6338C93.7047 31.3316 96.4501 40.3819 96.4501 49.64C96.4505 55.7873 95.24 61.8745 92.8878 67.5539C90.5355 73.2334 87.0875 78.3938 82.7407 82.7406C78.3939 87.0874 73.2335 90.5354 67.554 92.8877C61.8746 95.2399 55.7874 96.4504 49.6401 96.45V96.45Z" fill="url(#paint0_linear_378_845)"/>
<path fill-rule="evenodd" clip-rule="evenodd" d="M95.54 49.64C95.54 58.7182 92.848 67.5925 87.8045 75.1407C82.7609 82.6889 75.5923 88.572 67.2052 92.0461C58.818 95.5201 49.5891 96.4291 40.6854 94.658C31.7816 92.887 23.603 88.5154 17.1838 82.0962C10.7646 75.677 6.39302 67.4984 4.62196 58.5946C2.85089 49.6909 3.75987 40.462 7.23393 32.0748C10.708 23.6877 16.5911 16.5191 24.1393 11.4755C31.6875 6.43199 40.5618 3.74 49.64 3.74C55.6677 3.73998 61.6363 4.9272 67.2052 7.23388C72.774 9.54057 77.834 12.9215 82.0963 17.1837C86.3585 21.446 89.7394 26.5059 92.0461 32.0748C94.3528 37.6437 95.54 43.6123 95.54 49.64V49.64ZM49.64 3.62732e-07C59.4579 3.62732e-07 69.0553 2.91134 77.2185 8.36585C85.3818 13.8204 91.7442 21.5731 95.5014 30.6436C99.2585 39.7141 100.242 49.6951 98.3262 59.3243C96.4108 68.9535 91.6831 77.7985 84.7408 84.7408C77.7985 91.6831 68.9535 96.4108 59.3243 98.3262C49.6951 100.242 39.7141 99.2585 30.6436 95.5014C21.5731 91.7442 13.8204 85.3818 8.36585 77.2185C2.91134 69.0553 3.62732e-07 59.4579 3.62732e-07 49.64C-0.000787738 43.121 1.28265 36.6656 3.77702 30.6427C6.27138 24.6197 9.9278 19.1471 14.5375 14.5375C19.1471 9.9278 24.6197 6.27138 30.6427 3.77702C36.6656 1.28265 43.121 -0.000787738 49.64 3.62732e-07V3.62732e-07Z" fill="#F2F1F0"/>
<path fill-rule="evenodd" clip-rule="evenodd" d="M92.7296 49.6401C92.7296 58.1625 90.2024 66.4935 85.4676 73.5796C80.7328 80.6657 74.0031 86.1887 66.1294 89.4501C58.2557 92.7114 49.5918 93.5648 41.2331 91.9021C32.8745 90.2395 25.1966 86.1356 19.1703 80.1093C13.1441 74.0831 9.04017 66.4052 7.37753 58.0465C5.7149 49.6879 6.56822 41.0239 9.8296 33.1503C13.091 25.2766 18.6139 18.5469 25.7 13.8121C32.7862 9.07727 41.1172 6.55009 49.6396 6.55009C55.2983 6.54974 60.9017 7.66407 66.1298 9.82942C71.3579 11.9948 76.1082 15.1687 80.1096 19.1701C84.1109 23.1714 87.2849 27.9218 89.4502 33.1499C91.6156 38.3779 92.7299 43.9813 92.7296 49.6401V49.6401ZM49.6396 2.81009C58.9017 2.81009 67.9558 5.55662 75.6569 10.7024C83.3581 15.8481 89.3604 23.162 92.9049 31.719C96.4493 40.2761 97.3767 49.692 95.5697 58.7762C93.7628 67.8603 89.3027 76.2046 82.7534 82.7539C76.2041 89.3032 67.8598 93.7633 58.7757 95.5703C49.6915 97.3772 40.2756 96.4498 31.7185 92.9054C23.1614 89.3609 15.8476 83.3586 10.7018 75.6574C5.5561 67.9563 2.80957 58.9022 2.80957 49.6401C2.81076 37.2204 7.745 25.3097 16.5271 16.5276C25.3091 7.7455 37.2198 2.81125 49.6396 2.81006V2.81009Z" fill="#0078D4"/>
<path fill-rule="evenodd" clip-rule="evenodd" d="M92.7637 49.6401C92.7637 58.1625 90.2366 66.4935 85.5018 73.5796C80.767 80.6657 74.0372 86.1887 66.1636 89.4501C58.2899 92.7114 49.6259 93.5648 41.2673 91.9021C32.9087 90.2395 25.2308 86.1356 19.2045 80.1093C13.1783 74.0831 9.07435 66.4052 7.41171 58.0465C5.74908 49.6879 6.6024 41.0239 9.86378 33.1503C13.1252 25.2766 18.6481 18.5469 25.7342 13.8121C32.8203 9.07727 41.1514 6.55009 49.6738 6.55009C55.3325 6.54974 60.9359 7.66407 66.164 9.82942C71.3921 11.9948 76.1424 15.1687 80.1437 19.1701C84.1451 23.1714 87.3191 27.9218 89.4844 33.1499C91.6498 38.3779 92.7641 43.9813 92.7637 49.6401V49.6401ZM49.6738 2.81009C58.9359 2.81009 67.9899 5.55662 75.6911 10.7024C83.3923 15.8481 89.3946 23.162 92.939 31.719C96.4835 40.2761 97.4109 49.692 95.6039 58.7762C93.797 67.8603 89.3369 76.2046 82.7876 82.7539C76.2383 89.3032 67.894 93.7633 58.8098 95.5703C49.7257 97.3772 40.3097 96.4498 31.7527 92.9054C23.1956 89.3609 15.8818 83.3586 10.736 75.6574C5.59028 67.9563 2.84375 58.9022 2.84375 49.6401C2.84494 37.2204 7.77918 25.3097 16.5612 16.5276C25.3433 7.7455 37.254 2.81125 49.6738 2.81006V2.81009Z" fill="#0078D4"/>
<path d="M76.8973 25.2629H22.3802C20.4291 25.2629 18.8474 26.8446 18.8474 28.7957C18.8474 30.7468 20.4291 32.3285 22.3802 32.3285H76.8973C78.8484 32.3285 80.43 30.7468 80.43 28.7957C80.43 26.8446 78.8484 25.2629 76.8973 25.2629Z" fill="#0078D4"/>
<path d="M38.6619 25.2629H22.3802C20.4291 25.2629 18.8474 26.8446 18.8474 28.7957C18.8474 30.7468 20.4291 32.3285 22.3802 32.3285H38.6619C40.613 32.3285 42.1947 30.7468 42.1947 28.7957C42.1947 26.8446 40.613 25.2629 38.6619 25.2629Z" fill="white"/>
<path d="M38.6613 37.2152C36.996 37.2152 35.3682 36.7214 33.9836 35.7963C32.599 34.8711 31.5199 33.5562 30.8826 32.0177C30.2454 30.4792 30.0786 28.7864 30.4035 27.1531C30.7283 25.5199 31.5302 24.0197 32.7077 22.8422C33.8852 21.6647 35.3854 20.8628 37.0187 20.538C38.6519 20.2131 40.3448 20.3798 41.8832 21.0171C43.4217 21.6544 44.7367 22.7335 45.6618 24.1181C46.5869 25.5027 47.0807 27.1305 47.0807 28.7958C47.0807 31.0287 46.1936 33.1702 44.6147 34.7491C43.0357 36.3281 40.8942 37.2151 38.6613 37.2152V37.2152Z" fill="#50E6FF"/>
<path d="M38.6614 25.2629C38.2983 25.2629 37.9388 25.3344 37.6033 25.4733C37.2679 25.6123 36.9631 25.8159 36.7063 26.0727C36.4496 26.3294 36.2459 26.6342 36.107 26.9696C35.968 27.3051 35.8965 27.6646 35.8965 28.0277C35.8965 29.8709 38.3543 32.3285 38.6614 32.3285C38.9685 32.3285 41.4262 29.8709 41.4262 28.0277C41.4261 27.2944 41.1349 26.5912 40.6164 26.0727C40.0979 25.5542 39.3946 25.2629 38.6614 25.2629V25.2629ZM38.6614 29.0418C38.467 29.0418 38.2771 28.9842 38.1155 28.8762C37.9539 28.7682 37.8279 28.6148 37.7536 28.4352C37.6792 28.2557 37.6597 28.0581 37.6977 27.8675C37.7356 27.6769 37.8292 27.5018 37.9666 27.3643C38.104 27.2269 38.2791 27.1333 38.4697 27.0954C38.6603 27.0575 38.8579 27.077 39.0375 27.1514C39.217 27.2257 39.3705 27.3517 39.4785 27.5133C39.5864 27.6749 39.6441 27.8649 39.644 28.0592C39.644 28.3198 39.5405 28.5698 39.3562 28.754C39.1719 28.9383 38.922 29.0418 38.6614 29.0418Z" fill="white"/>
<path d="M76.8973 46.2608H22.3802C20.4291 46.2608 18.8474 47.8425 18.8474 49.7936C18.8474 51.7447 20.4291 53.3264 22.3802 53.3264H76.8973C78.8484 53.3264 80.43 51.7447 80.43 49.7936C80.43 47.8425 78.8484 46.2608 76.8973 46.2608Z" fill="url(#paint1_linear_378_845)"/>
<path d="M60.6754 46.2608H22.3802C20.4291 46.2608 18.8474 47.8425 18.8474 49.7936C18.8474 51.7447 20.4291 53.3264 22.3802 53.3264H60.6754C62.6265 53.3264 64.2082 51.7447 64.2082 49.7936C64.2082 47.8425 62.6265 46.2608 60.6754 46.2608Z" fill="url(#paint2_linear_378_845)"/>
<path d="M63.3211 41.375C64.9864 41.375 66.6142 41.8688 67.9988 42.7939C69.3834 43.719 70.4625 45.034 71.0998 46.5725C71.7371 48.1109 71.9038 49.8038 71.5789 51.437C71.2541 53.0703 70.4522 54.5705 69.2747 55.748C68.0972 56.9255 66.597 57.7274 64.9638 58.0522C63.3305 58.3771 61.6376 58.2104 60.0992 57.5731C58.5607 56.9358 57.2458 55.8567 56.3206 54.4721C55.3955 53.0875 54.9017 51.4597 54.9017 49.7944C54.9018 47.5615 55.7888 45.42 57.3678 43.841C58.9467 42.2621 61.0882 41.375 63.3211 41.375Z" fill="url(#paint3_linear_378_845)"/>
<path d="M63.3212 42.3741C64.7886 42.3741 66.2231 42.8093 67.4432 43.6245C68.6633 44.4398 69.6143 45.5986 70.1759 46.9543C70.7374 48.31 70.8843 49.8019 70.5981 51.2411C70.3118 52.6803 69.6051 54.0024 68.5675 55.04C67.5299 56.0776 66.2079 56.7843 64.7686 57.0705C63.3294 57.3568 61.8376 57.2099 60.4818 56.6484C59.1261 56.0868 57.9673 55.1358 57.1521 53.9157C56.3368 52.6956 55.9016 51.2611 55.9016 49.7937C55.9038 47.8266 56.6863 45.9407 58.0772 44.5497C59.4682 43.1587 61.3541 42.3763 63.3212 42.3741V42.3741ZM63.3212 41.3741C61.656 41.3741 60.0281 41.8679 58.6435 42.793C57.259 43.7182 56.1798 45.0331 55.5425 46.5716C54.9053 48.11 54.7385 49.8029 55.0634 51.4361C55.3882 53.0693 56.1901 54.5696 57.3676 55.7471C58.5451 56.9246 60.0453 57.7264 61.6785 58.0513C63.3117 58.3762 65.0046 58.2095 66.5431 57.5722C68.0815 56.935 69.3965 55.8559 70.3216 54.4713C71.2468 53.0867 71.7406 51.4589 71.7406 49.7937C71.7406 47.5607 70.8535 45.4192 69.2746 43.8402C67.6957 42.2612 65.5542 41.3742 63.3212 41.3741V41.3741Z" fill="url(#paint4_linear_378_845)"/>
<path d="M63.3218 45.5156V51.6427" stroke="white" stroke-width="1.36324" stroke-miterlimit="10" stroke-linecap="round"/>
<path d="M63.3217 55.162C63.8071 55.162 64.2006 54.7685 64.2006 54.2832C64.2006 53.7978 63.8071 53.4043 63.3217 53.4043C62.8363 53.4043 62.4429 53.7978 62.4429 54.2832C62.4429 54.7685 62.8363 55.162 63.3217 55.162Z" fill="white"/>
<path d="M76.8973 67.2588H22.3802C20.4291 67.2588 18.8474 68.8404 18.8474 70.7915C18.8474 72.7427 20.4291 74.3243 22.3802 74.3243H76.8973C78.8484 74.3243 80.43 72.7427 80.43 70.7915C80.43 68.8404 78.8484 67.2588 76.8973 67.2588Z" fill="#0078D4"/>
<path d="M37.7744 67.2588H22.3802C20.4291 67.2588 18.8474 68.8404 18.8474 70.7915C18.8474 72.7427 20.4291 74.3243 22.3802 74.3243H37.7744C39.7255 74.3243 41.3072 72.7427 41.3072 70.7915C41.3072 68.8404 39.7255 67.2588 37.7744 67.2588Z" fill="white"/>
<path d="M38.6613 79.2111C36.996 79.2111 35.3682 78.7173 33.9836 77.7921C32.599 76.867 31.5199 75.552 30.8826 74.0136C30.2454 72.4751 30.0786 70.7822 30.4035 69.149C30.7283 67.5158 31.5302 66.0156 32.7077 64.8381C33.8852 63.6606 35.3854 62.8587 37.0187 62.5338C38.6519 62.209 40.3448 62.3757 41.8832 63.013C43.4217 63.6502 44.7367 64.7294 45.6618 66.114C46.5869 67.4986 47.0807 69.1264 47.0807 70.7916C47.0807 73.0246 46.1936 75.1661 44.6147 76.745C43.0357 78.3239 40.8942 79.211 38.6613 79.2111V79.2111Z" fill="#50E6FF"/>
<path d="M38.6621 67.2588C38.299 67.2588 37.9395 67.3303 37.604 67.4692C37.2686 67.6081 36.9638 67.8118 36.7071 68.0685C36.4503 68.3253 36.2467 68.6301 36.1077 68.9655C35.9687 69.3009 35.8972 69.6605 35.8972 70.0235C35.8972 71.8667 38.355 74.3243 38.6621 74.3243C38.9692 74.3243 41.4269 71.8667 41.4269 70.0235C41.4269 69.2903 41.1356 68.5871 40.6171 68.0686C40.0986 67.5501 39.3954 67.2588 38.6621 67.2588V67.2588ZM38.6621 71.0377C38.4678 71.0377 38.2778 70.9801 38.1162 70.8721C37.9546 70.7641 37.8287 70.6106 37.7543 70.4311C37.6799 70.2515 37.6605 70.0539 37.6984 69.8633C37.7363 69.6727 37.8299 69.4976 37.9673 69.3602C38.1048 69.2228 38.2798 69.1292 38.4705 69.0913C38.6611 69.0534 38.8587 69.0729 39.0382 69.1472C39.2178 69.2216 39.3712 69.3476 39.4792 69.5092C39.5872 69.6708 39.6448 69.8607 39.6448 70.0551C39.6448 70.1841 39.6194 70.3119 39.57 70.4311C39.5206 70.5503 39.4482 70.6587 39.3569 70.7499C39.2657 70.8412 39.1574 70.9135 39.0382 70.9629C38.9189 71.0123 38.7911 71.0377 38.6621 71.0377V71.0377Z" fill="white"/>
</g>
<defs>
<linearGradient id="paint0_linear_378_845" x1="47.8697" y1="-15.1531" x2="51.8525" y2="130.615" gradientUnits="userSpaceOnUse">
<stop stop-color="#00ABDE"/>
<stop offset="1" stop-color="#007ED8"/>
</linearGradient>
<linearGradient id="paint1_linear_378_845" x1="49.6387" y1="53.3264" x2="49.6387" y2="46.2482" gradientUnits="userSpaceOnUse">
<stop stop-color="#005BA1"/>
<stop offset="0.26" stop-color="#00589D"/>
<stop offset="0.53" stop-color="#004F90"/>
<stop offset="0.8" stop-color="#003F7C"/>
<stop offset="1" stop-color="#003067"/>
</linearGradient>
<linearGradient id="paint2_linear_378_845" x1="18.8474" y1="49.7936" x2="64.2082" y2="49.7936" gradientUnits="userSpaceOnUse">
<stop stop-color="#008BF1"/>
<stop offset="0.22" stop-color="#0086EC"/>
<stop offset="0.49" stop-color="#0078DD"/>
<stop offset="0.79" stop-color="#0061C4"/>
<stop offset="1" stop-color="#004DAE"/>
</linearGradient>
<linearGradient id="paint3_linear_378_845" x1="63.3212" y1="58.214" x2="63.3212" y2="41.375" gradientUnits="userSpaceOnUse">
<stop stop-color="#008BF1"/>
<stop offset="0.22" stop-color="#0086EC"/>
<stop offset="0.49" stop-color="#0078DD"/>
<stop offset="0.79" stop-color="#0061C4"/>
<stop offset="1" stop-color="#004DAE"/>
</linearGradient>
<linearGradient id="paint4_linear_378_845" x1="63.3211" y1="58.2131" x2="63.3211" y2="41.3741" gradientUnits="userSpaceOnUse">
<stop stop-color="#004DAE"/>
<stop offset="0.21" stop-color="#0061C4"/>
<stop offset="0.51" stop-color="#0078DD"/>
<stop offset="0.78" stop-color="#0086EC"/>
<stop offset="1" stop-color="#008BF1"/>
</linearGradient>
<clipPath id="clip0_378_845">
<rect width="99.2799" height="99.28" fill="white"/>
</clipPath>
</defs>
</svg>
