<svg width="100" height="100" viewBox="0 0 100 100" fill="none" xmlns="http://www.w3.org/2000/svg">
<g clip-path="url(#clip0_1136_559)">
<path d="M49.6401 96.45C40.382 96.45 31.3317 93.7047 23.6339 88.5611C15.936 83.4176 9.93624 76.1068 6.3933 67.5534C2.85036 59 1.92337 49.5881 3.72954 40.5078C5.53571 31.4276 9.99394 23.0868 16.5404 16.5403C23.0869 9.99384 31.4277 5.53562 40.5079 3.72945C49.5882 1.92327 59.0001 2.85027 67.5535 6.39321C76.1069 9.93614 83.4176 15.9359 88.5612 23.6338C93.7047 31.3316 96.4501 40.3819 96.4501 49.64C96.4505 55.7873 95.24 61.8745 92.8878 67.5539C90.5355 73.2334 87.0875 78.3938 82.7407 82.7406C78.3939 87.0874 73.2335 90.5354 67.554 92.8877C61.8746 95.2399 55.7874 96.4504 49.6401 96.45V96.45Z" fill="url(#paint0_linear_1136_559)"/>
<path fill-rule="evenodd" clip-rule="evenodd" d="M95.54 49.64C95.54 58.7182 92.848 67.5925 87.8045 75.1407C82.7609 82.6889 75.5923 88.572 67.2052 92.0461C58.818 95.5201 49.5891 96.4291 40.6854 94.658C31.7816 92.887 23.603 88.5154 17.1838 82.0962C10.7646 75.677 6.39302 67.4984 4.62196 58.5946C2.85089 49.6909 3.75987 40.462 7.23393 32.0748C10.708 23.6877 16.5911 16.5191 24.1393 11.4755C31.6875 6.43199 40.5618 3.74 49.64 3.74C55.6677 3.73998 61.6363 4.9272 67.2052 7.23388C72.774 9.54057 77.834 12.9215 82.0963 17.1837C86.3585 21.446 89.7394 26.5059 92.0461 32.0748C94.3528 37.6437 95.54 43.6123 95.54 49.64V49.64ZM49.64 3.62732e-07C59.4579 3.62732e-07 69.0553 2.91134 77.2185 8.36585C85.3818 13.8204 91.7442 21.5731 95.5014 30.6436C99.2585 39.7141 100.242 49.6951 98.3262 59.3243C96.4108 68.9535 91.6831 77.7985 84.7408 84.7408C77.7985 91.6831 68.9535 96.4108 59.3243 98.3262C49.6951 100.242 39.7141 99.2585 30.6436 95.5014C21.5731 91.7442 13.8204 85.3818 8.36585 77.2185C2.91134 69.0553 3.62732e-07 59.4579 3.62732e-07 49.64C-0.000787738 43.121 1.28265 36.6656 3.77702 30.6427C6.27138 24.6197 9.9278 19.1471 14.5375 14.5375C19.1471 9.9278 24.6197 6.27138 30.6427 3.77702C36.6656 1.28265 43.121 -0.000787738 49.64 3.62732e-07V3.62732e-07Z" fill="#F2F1F0"/>
<path fill-rule="evenodd" clip-rule="evenodd" d="M92.7296 49.6401C92.7296 58.1625 90.2024 66.4935 85.4676 73.5796C80.7328 80.6657 74.0031 86.1887 66.1294 89.4501C58.2557 92.7114 49.5918 93.5648 41.2331 91.9021C32.8745 90.2395 25.1966 86.1356 19.1703 80.1093C13.1441 74.0831 9.04017 66.4052 7.37753 58.0465C5.7149 49.6879 6.56822 41.0239 9.8296 33.1503C13.091 25.2766 18.6139 18.5469 25.7 13.8121C32.7862 9.07727 41.1172 6.55009 49.6396 6.55009C55.2983 6.54974 60.9017 7.66407 66.1298 9.82942C71.3579 11.9948 76.1082 15.1687 80.1096 19.1701C84.1109 23.1714 87.2849 27.9218 89.4502 33.1499C91.6156 38.3779 92.7299 43.9813 92.7296 49.6401V49.6401ZM49.6396 2.81009C58.9017 2.81009 67.9558 5.55662 75.6569 10.7024C83.3581 15.8481 89.3604 23.162 92.9049 31.719C96.4493 40.2761 97.3767 49.692 95.5697 58.7762C93.7628 67.8603 89.3027 76.2046 82.7534 82.7539C76.2041 89.3032 67.8598 93.7633 58.7757 95.5703C49.6915 97.3772 40.2756 96.4498 31.7185 92.9054C23.1614 89.3609 15.8476 83.3586 10.7018 75.6574C5.5561 67.9563 2.80957 58.9022 2.80957 49.6401C2.81076 37.2204 7.745 25.3097 16.5271 16.5276C25.3091 7.7455 37.2198 2.81125 49.6396 2.81006V2.81009Z" fill="#0078D4"/>
<path fill-rule="evenodd" clip-rule="evenodd" d="M92.7637 49.6401C92.7637 58.1625 90.2366 66.4935 85.5018 73.5796C80.767 80.6657 74.0372 86.1887 66.1636 89.4501C58.2899 92.7114 49.6259 93.5648 41.2673 91.9021C32.9087 90.2395 25.2308 86.1356 19.2045 80.1093C13.1783 74.0831 9.07435 66.4052 7.41171 58.0465C5.74908 49.6879 6.6024 41.0239 9.86378 33.1503C13.1252 25.2766 18.6481 18.5469 25.7342 13.8121C32.8203 9.07727 41.1514 6.55009 49.6738 6.55009C55.3325 6.54974 60.9359 7.66407 66.164 9.82942C71.3921 11.9948 76.1424 15.1687 80.1437 19.1701C84.1451 23.1714 87.3191 27.9218 89.4844 33.1499C91.6498 38.3779 92.7641 43.9813 92.7637 49.6401V49.6401ZM49.6738 2.81009C58.9359 2.81009 67.9899 5.55662 75.6911 10.7024C83.3923 15.8481 89.3946 23.162 92.939 31.719C96.4835 40.2761 97.4109 49.692 95.6039 58.7762C93.797 67.8603 89.3369 76.2046 82.7876 82.7539C76.2383 89.3032 67.894 93.7633 58.8098 95.5703C49.7257 97.3772 40.3097 96.4498 31.7527 92.9054C23.1956 89.3609 15.8818 83.3586 10.736 75.6574C5.59028 67.9563 2.84375 58.9022 2.84375 49.6401C2.84494 37.2204 7.77918 25.3097 16.5612 16.5276C25.3433 7.7455 37.254 2.81125 49.6738 2.81006V2.81009Z" fill="#0078D4"/>
<path opacity="0.2" d="M25.8893 79.0296H73.4C73.6496 79.0289 73.8888 78.9294 74.0653 78.7529C74.2418 78.5764 74.3413 78.3372 74.3421 78.0876V40.9944H24.9473V78.0875C24.948 78.3372 25.0475 78.5764 25.224 78.7529C25.4005 78.9294 25.6397 79.0289 25.8893 79.0296V79.0296Z" fill="#003067"/>
<path d="M25.8893 77.0901H73.4C73.6496 77.0894 73.8888 76.9899 74.0653 76.8134C74.2418 76.6369 74.3413 76.3978 74.3421 76.1481V39.0549H24.9473V76.1481C24.948 76.3977 25.0475 76.6369 25.224 76.8134C25.4005 76.9899 25.6397 77.0894 25.8893 77.0901V77.0901Z" fill="#F2F2F2"/>
<path d="M24.9473 43.1606H74.3421V38.733C74.3423 38.6381 74.3238 38.5441 74.2876 38.4563C74.2514 38.3686 74.1982 38.2889 74.1311 38.2217C74.064 38.1546 73.9842 38.1014 73.8965 38.0652C73.8088 38.029 73.7147 38.0105 73.6198 38.0108H25.6695C25.5746 38.0105 25.4806 38.029 25.3928 38.0652C25.3051 38.1014 25.2254 38.1546 25.1582 38.2217C25.0911 38.2889 25.0379 38.3686 25.0017 38.4563C24.9655 38.5441 24.947 38.6381 24.9473 38.733V43.1606Z" fill="url(#paint1_linear_1136_559)"/>
<path d="M28.7471 41.9437C28.9948 41.9429 29.2366 41.8687 29.4421 41.7304C29.6476 41.5922 29.8074 41.3961 29.9015 41.167C29.9955 40.9379 30.0195 40.6861 29.9705 40.4434C29.9214 40.2006 29.8014 39.9779 29.6258 39.8033C29.4501 39.6288 29.2266 39.5102 28.9836 39.4627C28.7405 39.4151 28.4888 39.4407 28.2603 39.5362C28.0318 39.6317 27.8368 39.7928 27.6998 39.9991C27.5629 40.2055 27.4902 40.4478 27.491 40.6954C27.4897 40.8604 27.5213 41.024 27.584 41.1765C27.6468 41.3291 27.7394 41.4676 27.8564 41.5839C27.9734 41.7001 28.1125 41.7919 28.2654 41.8537C28.4184 41.9154 28.5822 41.946 28.7471 41.9437V41.9437Z" fill="#50E6FF"/>
<path d="M69.9638 46.3477H29.3164C28.7808 46.3477 28.3467 46.7819 28.3467 47.3175V72.5856C28.3467 73.1212 28.7808 73.5554 29.3164 73.5554H69.9638C70.4993 73.5554 70.9335 73.1212 70.9335 72.5856V47.3175C70.9335 46.7819 70.4993 46.3477 69.9638 46.3477Z" fill="#E8E8E8"/>
<path opacity="0.2" d="M33.4417 44.124L33.3157 44.2636C32.6765 44.9761 32.3235 45.8998 32.3245 46.8569V64.125C32.328 65.1631 32.7419 66.1576 33.4759 66.8917C34.2099 67.6258 35.2044 68.0398 36.2425 68.0434H63.1048C64.1429 68.04 65.1375 67.6261 65.8716 66.8919C66.6056 66.1578 67.0195 65.1631 67.0228 64.125V46.8564C67.0238 46.0888 66.7964 45.3382 66.3694 44.7002L66.1868 44.4272L64.5427 43.1606H34.7047L33.4417 44.124Z" fill="#767676"/>
<path opacity="0.2" d="M41.4561 38.011L34.7051 43.161H64.5431L57.8581 38.011H41.4561Z" fill="#003067"/>
<path fill-rule="evenodd" clip-rule="evenodd" d="M34.804 45.5999L48.8142 34.9134C49.0658 34.7215 49.3738 34.6178 49.6903 34.6186C50.0068 34.6193 50.3143 34.7244 50.565 34.9176L64.7069 45.811L49.6736 57.4094L34.804 45.5999Z" fill="#E8E8E8"/>
<path d="M37.4476 51.4812L47.9381 33.5728C48.1153 33.2702 48.3687 33.0192 48.673 32.8448C48.9773 32.6704 49.322 32.5786 49.6727 32.5786C50.0234 32.5786 50.3681 32.6704 50.6724 32.8448C50.9767 33.0192 51.23 33.2702 51.4073 33.5728L61.8978 51.4812C62.0767 51.7866 62.1718 52.1339 62.1735 52.4878C62.1752 52.8418 62.0834 53.1899 61.9073 53.497C61.7313 53.8041 61.4774 54.0593 61.1711 54.2368C60.8648 54.4142 60.5172 54.5077 60.1632 54.5077H39.1822C38.8282 54.5077 38.4805 54.4142 38.1743 54.2367C37.868 54.0593 37.6141 53.8041 37.438 53.497C37.262 53.1899 37.1702 52.8418 37.1719 52.4878C37.1736 52.1339 37.2687 51.7866 37.4476 51.4812V51.4812Z" fill="#FF9300"/>
<path d="M39.1825 53.1674C39.0646 53.1675 38.9487 53.1364 38.8465 53.0773C38.7444 53.0182 38.6597 52.9332 38.601 52.8309C38.5423 52.7285 38.5117 52.6125 38.5122 52.4945C38.5127 52.3765 38.5444 52.2608 38.604 52.159L49.0942 34.2502C49.1533 34.1493 49.2378 34.0656 49.3393 34.0074C49.4408 33.9493 49.5558 33.9187 49.6728 33.9187C49.7897 33.9188 49.9047 33.9494 50.0061 34.0076C50.1076 34.0658 50.1921 34.1496 50.2512 34.2505L60.7413 52.1587C60.8009 52.2604 60.8326 52.3762 60.8332 52.4941C60.8338 52.6121 60.8032 52.7281 60.7446 52.8304C60.6859 52.9328 60.6013 53.0178 60.4993 53.077C60.3972 53.1362 60.2814 53.1674 60.1634 53.1674H39.1825Z" fill="#FFCA00"/>
<path d="M49.6729 40.1701V46.5894" stroke="#FF9300" stroke-width="1.34022" stroke-miterlimit="10" stroke-linecap="round"/>
<path d="M49.6727 50.6508C50.1635 50.6508 50.5613 50.2529 50.5613 49.7622C50.5613 49.2715 50.1635 48.8736 49.6727 48.8736C49.182 48.8736 48.7842 49.2715 48.7842 49.7622C48.7842 50.2529 49.182 50.6508 49.6727 50.6508Z" fill="#FF9300"/>
<path fill-rule="evenodd" clip-rule="evenodd" d="M45.9328 54.4355L34.8907 65.4775C34.7111 65.301 34.5685 65.0905 34.4712 64.8582C34.374 64.626 34.324 64.3766 34.3242 64.1248V46.8567C34.323 46.3928 34.4939 45.945 34.8039 45.5999L45.9328 54.4355Z" fill="#F2F2F2"/>
<path fill-rule="evenodd" clip-rule="evenodd" d="M65.0235 46.8567V64.1248C65.0238 64.3766 64.9739 64.6259 64.8767 64.8582C64.7795 65.0904 64.637 65.301 64.4575 65.4775L53.4634 54.4834L64.7069 45.811C64.9135 46.1206 65.0237 46.4845 65.0235 46.8567V46.8567Z" fill="#F2F2F2"/>
<path fill-rule="evenodd" clip-rule="evenodd" d="M64.4571 65.4775C64.2806 65.657 64.07 65.7996 63.8378 65.8967C63.6055 65.9939 63.3562 66.0438 63.1044 66.0435H36.2428C35.9911 66.0438 35.7419 65.9939 35.5097 65.8967C35.2775 65.7995 35.0671 65.657 34.8906 65.4775L45.9326 54.4355L48.6873 51.8445C48.9543 51.5934 49.307 51.4536 49.6735 51.4537C50.04 51.4537 50.3927 51.5936 50.6595 51.8448L53.463 54.4835L64.4571 65.4775Z" fill="white"/>
<path d="M69.07 16.3867L53.9108 25.179L50.8622 23.0015C50.7528 22.9233 50.6675 22.816 50.6161 22.6917C50.5647 22.5675 50.5492 22.4313 50.5714 22.2987C50.5936 22.166 50.6526 22.0423 50.7417 21.9416C50.8307 21.8408 50.9463 21.7671 51.0752 21.7289L69.07 16.3867Z" fill="url(#paint2_linear_1136_559)"/>
<path d="M69.0699 16.3867L61.5964 29.8965C61.546 29.9876 61.4764 30.0667 61.3924 30.1282C61.3084 30.1897 61.212 30.2322 61.1099 30.2528C61.0079 30.2734 60.9025 30.2715 60.8013 30.2473C60.7 30.2231 60.6052 30.1771 60.5234 30.1126L57.9674 28.0959L55.4268 26.0886L69.0699 16.3867Z" fill="url(#paint3_linear_1136_559)"/>
<path d="M57.9674 28.0959L55.1235 30.9395L55.4267 26.0886L57.9674 28.0959Z" fill="url(#paint4_linear_1136_559)"/>
<path d="M69.0701 16.3867L55.4268 26.0886L55.1236 30.9395L53.9109 25.179L69.0701 16.3867Z" fill="url(#paint5_linear_1136_559)"/>
<path d="M42.4692 35.7566C42.4692 35.7566 42.215 35.6335 41.8071 35.4142" stroke="white" stroke-width="0.5" stroke-miterlimit="10" stroke-linecap="round"/>
<path d="M40.472 34.648C38.2841 33.3109 35.2083 30.9983 36.1978 29.038C37.7825 25.8981 43.2442 30.099 48.7095 29.8394" stroke="white" stroke-width="0.5" stroke-miterlimit="10" stroke-linecap="round" stroke-dasharray="1.54 1.54"/>
<path d="M49.4841 29.7715C49.7313 29.7395 49.9779 29.6968 50.224 29.6434" stroke="white" stroke-width="0.5" stroke-miterlimit="10" stroke-linecap="round"/>
</g>
<defs>
<linearGradient id="paint0_linear_1136_559" x1="47.8697" y1="-15.1531" x2="51.8525" y2="130.615" gradientUnits="userSpaceOnUse">
<stop stop-color="#00ABDE"/>
<stop offset="1" stop-color="#007ED8"/>
</linearGradient>
<linearGradient id="paint1_linear_1136_559" x1="24.9473" y1="40.5857" x2="74.4306" y2="40.5857" gradientUnits="userSpaceOnUse">
<stop stop-color="#005BA1"/>
<stop offset="0.26" stop-color="#00589D"/>
<stop offset="0.53" stop-color="#004F90"/>
<stop offset="0.8" stop-color="#003F7C"/>
<stop offset="1" stop-color="#003067"/>
</linearGradient>
<linearGradient id="paint2_linear_1136_559" x1="59.8156" y1="24.8634" x2="59.8156" y2="16.5782" gradientUnits="userSpaceOnUse">
<stop stop-color="white"/>
<stop offset="0.56" stop-color="#FBFBFB"/>
<stop offset="1" stop-color="#F2F2F2"/>
</linearGradient>
<linearGradient id="paint3_linear_1136_559" x1="59.8156" y1="24.8634" x2="59.8156" y2="16.5782" gradientUnits="userSpaceOnUse">
<stop stop-color="white"/>
<stop offset="0.56" stop-color="#FBFBFB"/>
<stop offset="1" stop-color="#F2F2F2"/>
</linearGradient>
<linearGradient id="paint4_linear_1136_559" x1="56.5455" y1="26.0886" x2="56.5455" y2="30.9395" gradientUnits="userSpaceOnUse">
<stop stop-color="#CCCCCC"/>
<stop offset="0.32" stop-color="#DFDFDF"/>
<stop offset="0.67" stop-color="#ECECEC"/>
<stop offset="1" stop-color="#F0F0F0"/>
</linearGradient>
<linearGradient id="paint5_linear_1136_559" x1="61.4905" y1="16.3867" x2="61.4905" y2="30.9395" gradientUnits="userSpaceOnUse">
<stop stop-color="#CCCCCC"/>
<stop offset="0.51033" stop-color="#CACACA"/>
<stop offset="0.77418" stop-color="#C2C2C2"/>
<stop offset="0.98128" stop-color="#B5B5B5"/>
<stop offset="1" stop-color="#B3B3B3"/>
</linearGradient>
<clipPath id="clip0_1136_559">
<rect width="99.2799" height="99.28" fill="white"/>
</clipPath>
</defs>
</svg>
