<svg width="100" height="100" viewBox="0 0 100 100" fill="none" xmlns="http://www.w3.org/2000/svg">
<g clip-path="url(#clip0_1141_1040)">
<path d="M49.6401 96.4499C40.382 96.4499 31.3317 93.7045 23.6339 88.561C15.936 83.4174 9.93624 76.1067 6.3933 67.5533C2.85036 58.9999 1.92337 49.588 3.72954 40.5077C5.53571 31.4275 9.99394 23.0867 16.5404 16.5402C23.0869 9.99372 31.4277 5.5355 40.5079 3.72933C49.5882 1.92315 59.0001 2.85015 67.5535 6.39308C76.1069 9.93602 83.4176 15.9358 88.5612 23.6336C93.7047 31.3315 96.4501 40.3817 96.4501 49.6399C96.4505 55.7872 95.24 61.8744 92.8878 67.5538C90.5355 73.2332 87.0875 78.3937 82.7407 82.7405C78.3939 87.0873 73.2335 90.5353 67.554 92.8876C61.8746 95.2398 55.7874 96.4503 49.6401 96.4499V96.4499Z" fill="url(#paint0_linear_1141_1040)"/>
<path fill-rule="evenodd" clip-rule="evenodd" d="M95.54 49.6399C95.54 58.718 92.848 67.5923 87.8045 75.1406C82.7609 82.6888 75.5923 88.5719 67.2052 92.046C58.818 95.52 49.5891 96.429 40.6854 94.6579C31.7816 92.8869 23.603 88.5153 17.1838 82.0961C10.7646 75.6769 6.39302 67.4983 4.62196 58.5945C2.85089 49.6908 3.75987 40.4618 7.23393 32.0747C10.708 23.6876 16.5911 16.519 24.1393 11.4754C31.6875 6.43187 40.5618 3.73988 49.64 3.73988C55.6677 3.73986 61.6363 4.92708 67.2052 7.23377C72.774 9.54045 77.834 12.9214 82.0963 17.1836C86.3585 21.4458 89.7394 26.5058 92.0461 32.0747C94.3528 37.6435 95.54 43.6122 95.54 49.6399V49.6399ZM49.64 -0.000106449C59.4579 -0.000106449 69.0552 2.91123 77.2185 8.36574C85.3818 13.8203 91.7442 21.573 95.5014 30.6435C99.2585 39.714 100.242 49.695 98.3262 59.3242C96.4108 68.9534 91.6831 77.7984 84.7408 84.7407C77.7985 91.683 68.9535 96.4107 59.3243 98.3261C49.6951 100.241 39.7141 99.2584 30.6436 95.5013C21.5731 91.7441 13.8204 85.3816 8.36584 77.2184C2.91133 69.0551 -1.61629e-06 59.4577 3.61524e-07 49.6399C-0.000786426 43.1208 1.28265 36.6655 3.77702 30.6425C6.27138 24.6196 9.92781 19.147 14.5375 14.5374C19.1471 9.9277 24.6197 6.27127 30.6427 3.77691C36.6656 1.28254 43.121 -0.000894549 49.64 -0.000106449V-0.000106449Z" fill="#F2F1F0"/>
<path fill-rule="evenodd" clip-rule="evenodd" d="M92.7296 49.64C92.7296 58.1624 90.2024 66.4934 85.4676 73.5795C80.7328 80.6656 74.0031 86.1886 66.1294 89.45C58.2557 92.7113 49.5918 93.5647 41.2331 91.902C32.8745 90.2394 25.1966 86.1355 19.1703 80.1092C13.1441 74.083 9.04017 66.4051 7.37753 58.0464C5.7149 49.6878 6.56822 41.0238 9.8296 33.1502C13.091 25.2765 18.6139 18.5468 25.7 13.812C32.7862 9.07718 41.1172 6.55 49.6396 6.55C55.2983 6.54965 60.9017 7.66397 66.1298 9.82933C71.3579 11.9947 76.1082 15.1687 80.1096 19.17C84.1109 23.1713 87.2849 27.9217 89.4502 33.1498C91.6156 38.3778 92.7299 43.9812 92.7296 49.64ZM49.6396 2.81C58.9017 2.81 67.9558 5.55653 75.6569 10.7023C83.3581 15.848 89.3604 23.1619 92.9049 31.7189C96.4493 40.276 97.3767 49.6919 95.5697 58.7761C93.7628 67.8602 89.3027 76.2045 82.7534 82.7538C76.2041 89.3031 67.8598 93.7632 58.7757 95.5702C49.6915 97.3771 40.2756 96.4497 31.7185 92.9053C23.1614 89.3608 15.8476 83.3585 10.7018 75.6574C5.5561 67.9562 2.80957 58.9021 2.80957 49.64C2.81076 37.2203 7.74501 25.3096 16.5271 16.5275C25.3091 7.74544 37.2198 2.81119 49.6396 2.81V2.81Z" fill="#0078D4"/>
<path fill-rule="evenodd" clip-rule="evenodd" d="M92.7301 49.7835C92.7301 58.3059 90.2029 66.6369 85.4681 73.723C80.7333 80.8091 74.0036 86.3321 66.1299 89.5935C58.2562 92.8549 49.5923 93.7082 41.2336 92.0455C32.875 90.3829 25.1971 86.279 19.1708 80.2527C13.1446 74.2265 9.04066 66.5486 7.37802 58.1899C5.71538 49.8313 6.56871 41.1673 9.83009 33.2937C13.0915 25.42 18.6144 18.6903 25.7005 13.9555C32.7867 9.22069 41.1177 6.69351 49.6401 6.69351C55.2988 6.69316 60.9022 7.80748 66.1303 9.97284C71.3584 12.1382 76.1087 15.3122 80.1101 19.3135C84.1114 23.3149 87.2854 28.0652 89.4507 33.2933C91.6161 38.5213 92.7304 44.1248 92.7301 49.7835V49.7835ZM49.6401 2.95351C58.9022 2.95351 67.9563 5.70004 75.6574 10.8458C83.3586 15.9915 89.3609 23.3054 92.9053 31.8624C96.4498 40.4195 97.3772 49.8355 95.5702 58.9196C93.7633 68.0037 89.3032 76.348 82.7539 82.8973C76.2046 89.4466 67.8603 93.9067 58.7761 95.7137C49.692 97.5206 40.2761 96.5932 31.719 93.0488C23.1619 89.5043 15.8481 83.502 10.7023 75.8009C5.55659 68.0997 2.81006 59.0456 2.81006 49.7835C2.81124 37.3638 7.74548 25.4531 16.5276 16.671C25.3096 7.88892 37.2203 2.95467 49.64 2.95348L49.6401 2.95351Z" fill="#0078D4"/>
<path d="M42.3878 78.1891H26.6562V43.1776C26.6562 42.6553 26.908 42.2314 27.2181 42.2314H41.8259C42.1361 42.2314 42.3878 42.6553 42.3878 43.1776V78.1891Z" fill="url(#paint1_linear_1141_1040)"/>
<path d="M26.6561 41.4823H42.3876C42.5863 41.4823 42.7768 41.5612 42.9173 41.7017C43.0578 41.8422 43.1367 42.0327 43.1367 42.2314C43.1367 42.4301 43.0578 42.6206 42.9173 42.7611C42.7768 42.9016 42.5863 42.9805 42.3876 42.9805H26.6561C26.4574 42.9805 26.2669 42.9016 26.1264 42.7611C25.9859 42.6206 25.907 42.4301 25.907 42.2314V42.2314C25.907 42.0327 25.9859 41.8422 26.1264 41.7017C26.2669 41.5612 26.4574 41.4823 26.6561 41.4823V41.4823Z" fill="url(#paint2_linear_1141_1040)"/>
<path d="M71.1041 78.1891H55.3726V43.1776C55.3726 42.6553 55.6243 42.2314 55.9344 42.2314H70.5422C70.8524 42.2314 71.1041 42.6553 71.1041 43.1776L71.1041 78.1891Z" fill="url(#paint3_linear_1141_1040)"/>
<path d="M55.3724 41.4823H71.1039C71.3026 41.4823 71.4931 41.5612 71.6336 41.7017C71.7741 41.8422 71.853 42.0327 71.853 42.2314V42.2314C71.853 42.4301 71.7741 42.6206 71.6336 42.7611C71.4931 42.9016 71.3026 42.9805 71.1039 42.9805H55.3724C55.1737 42.9805 54.9832 42.9016 54.8427 42.7611C54.7022 42.6206 54.6233 42.4301 54.6233 42.2314V42.2314C54.6233 42.0327 54.7022 41.8422 54.8427 41.7017C54.9832 41.5612 55.1737 41.4823 55.3724 41.4823V41.4823Z" fill="url(#paint4_linear_1141_1040)"/>
<path opacity="0.2" d="M62.3676 41.4822H35.3967V78.1891H62.3676V41.4822Z" fill="#003067"/>
<path d="M60.2848 78.1891H37.4788V27.4327C37.4788 26.6755 37.8436 26.0609 38.2933 26.0609H59.4703C59.9199 26.0609 60.2848 26.6755 60.2848 27.4327V78.1891Z" fill="white"/>
<path d="M49.088 78.1891H37.4788V27.7583C37.4788 27.006 37.8503 26.3953 38.3079 26.3953H48.6802C49.138 26.3953 49.088 25.643 49.088 26.3953V78.1891Z" fill="#F2F2F2"/>
<path d="M46.3475 55.3831H42.7275C42.4923 55.3877 42.2649 55.2988 42.0953 55.1359C41.9256 54.973 41.8275 54.7494 41.8225 54.5143V51.9079C41.8275 51.6727 41.9256 51.4491 42.0953 51.2862C42.2649 51.1233 42.4923 51.0344 42.7275 51.0391H46.3475C46.5827 51.0344 46.8101 51.1233 46.9798 51.2862C47.1495 51.4491 47.2476 51.6727 47.2526 51.9079V54.5143C47.2476 54.7494 47.1495 54.973 46.9798 55.1359C46.8101 55.2988 46.5827 55.3877 46.3475 55.3831V55.3831Z" fill="#0078D4"/>
<path d="M55.0367 55.3831H51.4167C51.1815 55.3877 50.9542 55.2988 50.7845 55.1359C50.6148 54.973 50.5167 54.7494 50.5117 54.5143V51.9079C50.5167 51.6727 50.6148 51.4491 50.7845 51.2862C50.9542 51.1233 51.1815 51.0344 51.4167 51.0391H55.0367C55.2719 51.0344 55.4993 51.1233 55.669 51.2862C55.8387 51.4491 55.9368 51.6727 55.9418 51.9079V54.5143C55.9368 54.7494 55.8387 54.973 55.669 55.1359C55.4993 55.2988 55.2719 55.3877 55.0367 55.3831V55.3831Z" fill="#0078D4"/>
<path d="M46.3475 61.8991H42.7275C42.4923 61.9037 42.2649 61.8148 42.0953 61.6519C41.9256 61.489 41.8275 61.2654 41.8225 61.0303V58.4239C41.8275 58.1887 41.9256 57.9651 42.0953 57.8023C42.2649 57.6394 42.4923 57.5505 42.7275 57.5551H46.3475C46.5827 57.5505 46.8101 57.6394 46.9798 57.8023C47.1495 57.9651 47.2476 58.1887 47.2526 58.4239V61.0303C47.2476 61.2655 47.1495 61.489 46.9798 61.6519C46.8101 61.8148 46.5827 61.9037 46.3475 61.8991Z" fill="#0078D4"/>
<path d="M55.0367 61.8991H51.4167C51.1815 61.9037 50.9542 61.8148 50.7845 61.6519C50.6148 61.489 50.5167 61.2654 50.5117 61.0303V58.4239C50.5167 58.1887 50.6148 57.9651 50.7845 57.8023C50.9542 57.6394 51.1815 57.5505 51.4167 57.5551H55.0367C55.2719 57.5505 55.4993 57.6394 55.669 57.8023C55.8387 57.9651 55.9368 58.1887 55.9418 58.4239V61.0303C55.9368 61.2655 55.8387 61.489 55.669 61.6519C55.4993 61.8148 55.2719 61.9037 55.0367 61.8991V61.8991Z" fill="#0078D4"/>
<path d="M46.3475 68.4151H42.7275C42.4923 68.4197 42.2649 68.3308 42.0953 68.1679C41.9256 68.005 41.8275 67.7815 41.8225 67.5463V64.9399C41.8275 64.7047 41.9256 64.4812 42.0953 64.3183C42.2649 64.1554 42.4923 64.0665 42.7275 64.0711H46.3475C46.5827 64.0665 46.8101 64.1554 46.9798 64.3183C47.1495 64.4812 47.2476 64.7047 47.2526 64.9399V67.5463C47.2476 67.7815 47.1495 68.005 46.9798 68.1679C46.8101 68.3308 46.5827 68.4197 46.3475 68.4151V68.4151Z" fill="#0078D4"/>
<path d="M55.0367 68.4151H51.4167C51.1815 68.4197 50.9542 68.3308 50.7845 68.1679C50.6148 68.005 50.5167 67.7815 50.5117 67.5463V64.9399C50.5167 64.7047 50.6148 64.4812 50.7845 64.3183C50.9542 64.1554 51.1815 64.0665 51.4167 64.0711H55.0367C55.2719 64.0665 55.4993 64.1554 55.669 64.3183C55.8387 64.4812 55.9368 64.7047 55.9418 64.9399V67.5463C55.9368 67.7815 55.8387 68.005 55.669 68.1679C55.4993 68.3308 55.2719 68.4197 55.0367 68.4151V68.4151Z" fill="#0078D4"/>
<path d="M46.3475 35.835H42.7275C42.4923 35.8396 42.2649 35.7507 42.0953 35.5878C41.9256 35.4249 41.8275 35.2014 41.8225 34.9662V32.3598C41.8275 32.1246 41.9256 31.901 42.0953 31.7381C42.2649 31.5752 42.4923 31.4863 42.7275 31.491H46.3475C46.5827 31.4864 46.8101 31.5752 46.9798 31.7381C47.1495 31.901 47.2476 32.1246 47.2526 32.3598V34.9662C47.2476 35.2014 47.1495 35.425 46.9798 35.5878C46.8101 35.7507 46.5827 35.8396 46.3475 35.835V35.835Z" fill="#0078D4"/>
<path d="M55.0367 35.835H51.4167C51.1815 35.8396 50.9542 35.7507 50.7845 35.5878C50.6148 35.4249 50.5167 35.2014 50.5117 34.9662V32.3598C50.5167 32.1246 50.6148 31.901 50.7845 31.7381C50.9542 31.5752 51.1815 31.4863 51.4167 31.491H55.0367C55.2719 31.4864 55.4993 31.5752 55.669 31.7381C55.8387 31.901 55.9368 32.1246 55.9418 32.3598V34.9662C55.9368 35.2014 55.8387 35.425 55.669 35.5878C55.4993 35.7507 55.2719 35.8396 55.0367 35.835V35.835Z" fill="#0078D4"/>
<path d="M46.3475 42.3511H42.7275C42.4923 42.3557 42.2649 42.2668 42.0953 42.1039C41.9256 41.941 41.8275 41.7174 41.8225 41.4823V38.8758C41.8275 38.6407 41.9256 38.4171 42.0953 38.2542C42.2649 38.0913 42.4923 38.0024 42.7275 38.007H46.3475C46.5827 38.0024 46.8101 38.0913 46.9798 38.2542C47.1495 38.4171 47.2476 38.6407 47.2526 38.8758V41.4823C47.2476 41.7174 47.1495 41.941 46.9798 42.1039C46.8101 42.2668 46.5827 42.3557 46.3475 42.3511V42.3511Z" fill="#0078D4"/>
<path d="M55.0367 42.3511H51.4167C51.1815 42.3557 50.9542 42.2668 50.7845 42.1039C50.6148 41.941 50.5167 41.7174 50.5117 41.4823V38.8758C50.5167 38.6407 50.6148 38.4171 50.7845 38.2542C50.9542 38.0913 51.1815 38.0024 51.4167 38.007H55.0367C55.2719 38.0024 55.4993 38.0913 55.669 38.2542C55.8387 38.4171 55.9368 38.6407 55.9418 38.8758V41.4823C55.9368 41.7174 55.8387 41.941 55.669 42.1039C55.4993 42.2668 55.2719 42.3557 55.0367 42.3511V42.3511Z" fill="#0078D4"/>
<path d="M46.3475 48.8671H42.7275C42.4923 48.8717 42.2649 48.7828 42.0953 48.6199C41.9256 48.457 41.8275 48.2334 41.8225 47.9983V45.3919C41.8275 45.1567 41.9256 44.9331 42.0953 44.7702C42.2649 44.6073 42.4923 44.5184 42.7275 44.523H46.3475C46.5827 44.5184 46.8101 44.6073 46.9798 44.7702C47.1495 44.9331 47.2476 45.1567 47.2526 45.3919V47.9983C47.2476 48.2334 47.1495 48.457 46.9798 48.6199C46.8101 48.7828 46.5827 48.8717 46.3475 48.8671V48.8671Z" fill="#0078D4"/>
<path d="M55.0367 48.8671H51.4167C51.1815 48.8717 50.9542 48.7828 50.7845 48.6199C50.6148 48.457 50.5167 48.2334 50.5117 47.9983V45.3919C50.5167 45.1567 50.6148 44.9331 50.7845 44.7702C50.9542 44.6073 51.1815 44.5184 51.4167 44.523H55.0367C55.2719 44.5184 55.4993 44.6073 55.669 44.7702C55.8387 44.9331 55.9368 45.1567 55.9418 45.3919V47.9983C55.9368 48.2334 55.8387 48.457 55.669 48.6199C55.4993 48.7828 55.2719 48.8717 55.0367 48.8671V48.8671Z" fill="#0078D4"/>
<path d="M50.6915 71.6731H47.0715C46.8437 71.6618 46.6206 71.7411 46.451 71.8938C46.2815 72.0464 46.1792 72.2598 46.1665 72.4876V78.1891H51.5965V72.4876C51.5838 72.2599 51.4815 72.0464 51.3119 71.8938C51.1424 71.7412 50.9193 71.6619 50.6915 71.6731Z" fill="#1F56A3"/>
<path d="M48.3386 71.6731H46.8939C46.6897 71.6854 46.4987 71.7779 46.3624 71.9305C46.2262 72.0831 46.1558 72.2833 46.1666 72.4876V78.1891H48.3333L48.3386 71.6731Z" fill="#003067"/>
<path d="M37.4788 24.975H60.2848C60.5728 24.975 60.8491 25.0894 61.0527 25.2931C61.2564 25.4968 61.3708 25.773 61.3708 26.061V26.061C61.3708 26.349 61.2564 26.6253 61.0527 26.8289C60.8491 27.0326 60.5728 27.147 60.2848 27.147H37.4788C37.1908 27.147 36.9146 27.0326 36.7109 26.8289C36.5072 26.6253 36.3928 26.349 36.3928 26.061C36.3928 25.773 36.5072 25.4968 36.7109 25.2931C36.9145 25.0894 37.1908 24.975 37.4788 24.975Z" fill="#003067"/>
<path d="M31.7493 72.9496V48.0629" stroke="white" stroke-width="0.53239" stroke-miterlimit="10" stroke-linecap="round"/>
<path d="M65.7932 72.9496V48.0629" stroke="white" stroke-width="0.53239" stroke-miterlimit="10" stroke-linecap="round"/>
<path d="M65.7931 56.6359C66.8304 56.6359 67.6714 55.795 67.6714 54.7577C67.6714 53.7203 66.8304 52.8794 65.7931 52.8794C64.7557 52.8794 63.9148 53.7203 63.9148 54.7577C63.9148 55.795 64.7557 56.6359 65.7931 56.6359Z" fill="#0078D4" stroke="white" stroke-width="0.53239" stroke-miterlimit="10" stroke-linecap="round"/>
<path d="M31.7491 69.0445C32.7865 69.0445 33.6274 68.2036 33.6274 67.1662C33.6274 66.1289 32.7865 65.2879 31.7491 65.2879C30.7118 65.2879 29.8708 66.1289 29.8708 67.1662C29.8708 68.2036 30.7118 69.0445 31.7491 69.0445Z" fill="#0078D4" stroke="white" stroke-width="0.53239" stroke-miterlimit="10" stroke-linecap="round"/>
<path opacity="0.2" d="M49.3432 24.9749C48.0224 26.8272 47.1685 28.9711 46.8542 31.2243C44.789 31.2404 42.8086 32.0475 41.3206 33.4797C39.8325 34.9118 38.9501 36.8599 38.855 38.9229C38.7599 40.9859 39.4593 43.007 40.8092 44.5699C42.1591 46.1329 44.0568 47.1189 46.1118 47.325L46.2168 47.3359L60.2846 47.3563V24.9749H49.3432Z" fill="#1F56A3"/>
<path opacity="0.2" d="M62.7271 24.9749H60.2847V47.3563L71.1038 47.3782V33.3516C71.1038 31.13 70.2213 28.9993 68.6504 27.4284C67.0794 25.8575 64.9488 24.9749 62.7271 24.9749V24.9749Z" fill="#003067"/>
<path d="M82.3903 37.8946C82.404 37.7986 82.4314 37.7026 82.4451 37.6203C82.7025 36.2623 82.6577 34.8643 82.3138 33.5256C81.97 32.1869 81.3356 30.9404 80.4557 29.8745C79.5757 28.8086 78.4719 27.9496 77.2226 27.3584C75.9732 26.7673 74.609 26.4585 73.2269 26.454C72.5199 26.4516 71.8152 26.5345 71.1281 26.7009C69.7271 24.4911 67.6463 22.7961 65.1989 21.8708C62.7514 20.9455 60.0697 20.8401 57.5572 21.5703C55.0447 22.3005 52.8373 23.827 51.2671 25.9199C49.6969 28.0129 48.8488 30.5592 48.8505 33.1757C48.8505 33.3403 48.8505 33.5049 48.8642 33.6695C48.2366 33.4583 47.5785 33.3517 46.9163 33.354C45.392 33.3543 43.9262 33.9404 42.822 34.9912C41.7177 36.042 41.0597 37.4771 40.9839 38.9995C40.9081 40.5219 41.4205 42.0152 42.4149 43.1704C43.4093 44.3257 44.8097 45.0545 46.3264 45.2061L73.2132 45.261C74.8867 45.259 76.5296 44.8121 77.9735 43.966C79.4174 43.1199 80.6103 41.9051 81.4301 40.446C81.4712 40.3637 81.526 40.2814 81.5672 40.1991C81.9304 39.4657 82.2067 38.6923 82.3903 37.8946Z" fill="white"/>
<path opacity="0.2" d="M69.4116 39.7628L62.4101 27.8105C62.2918 27.6085 62.1227 27.441 61.9196 27.3246C61.7165 27.2082 61.4865 27.147 61.2524 27.147C61.0183 27.147 60.7883 27.2082 60.5852 27.3246C60.3821 27.441 60.213 27.6085 60.0947 27.8105L53.0932 39.7628C52.9738 39.9667 52.9103 40.1984 52.9092 40.4347C52.9081 40.6709 52.9693 40.9032 53.0868 41.1082C53.2043 41.3132 53.3738 41.4835 53.5782 41.6019C53.7826 41.7204 54.0147 41.7827 54.2509 41.7827H68.2539C68.4901 41.7827 68.7222 41.7203 68.9266 41.6019C69.131 41.4835 69.3005 41.3131 69.4179 41.1082C69.5354 40.9032 69.5967 40.6709 69.5956 40.4347C69.5944 40.1984 69.531 39.9667 69.4116 39.7628V39.7628Z" fill="#949494"/>
<path d="M53.0932 38.9803L60.0947 27.028C60.213 26.826 60.3821 26.6585 60.5852 26.5421C60.7883 26.4257 61.0183 26.3644 61.2524 26.3644C61.4865 26.3644 61.7165 26.4257 61.9196 26.5421C62.1227 26.6585 62.2918 26.826 62.4101 27.028L69.4116 38.9803C69.531 39.1841 69.5945 39.4159 69.5956 39.6521C69.5967 39.8884 69.5355 40.1207 69.418 40.3257C69.3005 40.5306 69.131 40.701 68.9266 40.8194C68.7222 40.9378 68.4901 41.0002 68.2539 41.0002H54.2509C54.0147 41.0002 53.7826 40.9378 53.5782 40.8194C53.3738 40.701 53.2043 40.5306 53.0868 40.3257C52.9694 40.1207 52.9081 39.8884 52.9092 39.6522C52.9103 39.4159 52.9738 39.1842 53.0932 38.9803V38.9803Z" fill="#FF9300"/>
<path d="M54.2511 40.1057C54.1723 40.1058 54.095 40.085 54.0268 40.0456C53.9587 40.0062 53.9022 39.9494 53.863 39.8811C53.8238 39.8128 53.8034 39.7354 53.8037 39.6567C53.8041 39.5779 53.8252 39.5007 53.865 39.4327L60.8663 27.4801C60.9057 27.4127 60.9621 27.3569 61.0299 27.3181C61.0976 27.2793 61.1743 27.2589 61.2524 27.2589C61.3305 27.2589 61.4072 27.2794 61.4749 27.3182C61.5426 27.357 61.599 27.4129 61.6385 27.4803L68.6397 39.4325C68.6795 39.5004 68.7007 39.5776 68.7011 39.6563C68.7014 39.7351 68.681 39.8125 68.6419 39.8808C68.6028 39.9491 68.5463 40.0059 68.4782 40.0454C68.4101 40.0849 68.3328 40.1057 68.2541 40.1057H54.2511Z" fill="#FFCA00"/>
<path d="M61.2525 36.1629C61.1339 36.1628 61.0202 36.1157 60.9364 36.0318C60.8525 35.9479 60.8054 35.8342 60.8054 35.7156V31.4311C60.8054 31.3125 60.8525 31.1988 60.9364 31.1149C61.0202 31.0311 61.134 30.984 61.2525 30.984C61.3711 30.984 61.4849 31.0311 61.5687 31.1149C61.6526 31.1988 61.6997 31.3125 61.6997 31.4311V35.7156C61.6997 35.8342 61.6526 35.9479 61.5687 36.0318C61.4849 36.1157 61.3711 36.1628 61.2525 36.1629V36.1629Z" fill="#FF9300"/>
<path d="M61.2522 38.4261C61.5797 38.4261 61.8453 38.1606 61.8453 37.833C61.8453 37.5055 61.5797 37.24 61.2522 37.24C60.9247 37.24 60.6592 37.5055 60.6592 37.833C60.6592 38.1606 60.9247 38.4261 61.2522 38.4261Z" fill="#FF9300"/>
<path d="M31.7493 39.0803V24.8212C31.7493 23.6604 32.2104 22.5471 33.0312 21.7263C33.852 20.9054 34.9653 20.4443 36.1261 20.4443H49.5657" stroke="white" stroke-width="0.53239" stroke-miterlimit="10" stroke-linecap="round"/>
</g>
<defs>
<linearGradient id="paint0_linear_1141_1040" x1="47.8698" y1="-15.1532" x2="51.8525" y2="130.615" gradientUnits="userSpaceOnUse">
<stop stop-color="#00ABDE"/>
<stop offset="1" stop-color="#007ED8"/>
</linearGradient>
<linearGradient id="paint1_linear_1141_1040" x1="34.522" y1="78.1891" x2="34.522" y2="42.2314" gradientUnits="userSpaceOnUse">
<stop stop-color="#008BF1"/>
<stop offset="0.22" stop-color="#0086EC"/>
<stop offset="0.49" stop-color="#0078DD"/>
<stop offset="0.79" stop-color="#0061C4"/>
<stop offset="1" stop-color="#004DAE"/>
</linearGradient>
<linearGradient id="paint2_linear_1141_1040" x1="34.5219" y1="42.9267" x2="34.5219" y2="41.5149" gradientUnits="userSpaceOnUse">
<stop stop-color="white"/>
<stop offset="0.56" stop-color="#FBFBFB"/>
<stop offset="1" stop-color="#F2F2F2"/>
</linearGradient>
<linearGradient id="paint3_linear_1141_1040" x1="34.5221" y1="78.1891" x2="34.5221" y2="42.2314" gradientUnits="userSpaceOnUse">
<stop stop-color="#008BF1"/>
<stop offset="0.22" stop-color="#0086EC"/>
<stop offset="0.49" stop-color="#0078DD"/>
<stop offset="0.79" stop-color="#0061C4"/>
<stop offset="1" stop-color="#004DAE"/>
</linearGradient>
<linearGradient id="paint4_linear_1141_1040" x1="34.5219" y1="42.9267" x2="34.5219" y2="41.5149" gradientUnits="userSpaceOnUse">
<stop stop-color="white"/>
<stop offset="0.56" stop-color="#FBFBFB"/>
<stop offset="1" stop-color="#F2F2F2"/>
</linearGradient>
<clipPath id="clip0_1141_1040">
<rect width="99.2799" height="99.28" fill="white"/>
</clipPath>
</defs>
</svg>
