<svg width="100" height="100" viewBox="0 0 100 100" fill="none" xmlns="http://www.w3.org/2000/svg">
<g clip-path="url(#clip0_1134_2404)">
<path d="M49.6401 96.4499C40.382 96.4499 31.3317 93.7045 23.6339 88.561C15.936 83.4174 9.93624 76.1067 6.3933 67.5533C2.85036 58.9999 1.92337 49.588 3.72954 40.5077C5.53571 31.4275 9.99394 23.0867 16.5404 16.5402C23.0869 9.99372 31.4277 5.5355 40.5079 3.72933C49.5882 1.92315 59.0001 2.85015 67.5535 6.39308C76.1069 9.93602 83.4176 15.9358 88.5612 23.6336C93.7047 31.3315 96.4501 40.3817 96.4501 49.6399C96.4505 55.7872 95.24 61.8744 92.8878 67.5538C90.5355 73.2332 87.0875 78.3937 82.7407 82.7405C78.3939 87.0873 73.2335 90.5353 67.554 92.8876C61.8746 95.2398 55.7874 96.4503 49.6401 96.4499V96.4499Z" fill="url(#paint0_linear_1134_2404)"/>
<path fill-rule="evenodd" clip-rule="evenodd" d="M95.54 49.6399C95.54 58.718 92.848 67.5923 87.8045 75.1406C82.7609 82.6888 75.5923 88.5719 67.2052 92.046C58.818 95.52 49.5891 96.429 40.6854 94.6579C31.7816 92.8869 23.603 88.5153 17.1838 82.0961C10.7646 75.6769 6.39302 67.4983 4.62196 58.5945C2.85089 49.6908 3.75987 40.4618 7.23393 32.0747C10.708 23.6876 16.5911 16.519 24.1393 11.4754C31.6875 6.43187 40.5618 3.73988 49.64 3.73988C55.6677 3.73986 61.6363 4.92708 67.2052 7.23377C72.774 9.54045 77.834 12.9214 82.0963 17.1836C86.3585 21.4458 89.7394 26.5058 92.0461 32.0747C94.3528 37.6435 95.54 43.6122 95.54 49.6399V49.6399ZM49.64 -0.000106449C59.4579 -0.000106449 69.0552 2.91123 77.2185 8.36574C85.3818 13.8203 91.7442 21.573 95.5014 30.6435C99.2585 39.714 100.242 49.695 98.3262 59.3242C96.4108 68.9534 91.6831 77.7984 84.7408 84.7407C77.7985 91.683 68.9535 96.4107 59.3243 98.3261C49.6951 100.241 39.7141 99.2584 30.6436 95.5013C21.5731 91.7441 13.8204 85.3816 8.36584 77.2184C2.91133 69.0551 -1.61629e-06 59.4577 3.61524e-07 49.6399C-0.000786426 43.1208 1.28265 36.6655 3.77702 30.6425C6.27138 24.6196 9.92781 19.147 14.5375 14.5374C19.1471 9.9277 24.6197 6.27127 30.6427 3.77691C36.6656 1.28254 43.121 -0.000894549 49.64 -0.000106449V-0.000106449Z" fill="#F2F1F0"/>
<path fill-rule="evenodd" clip-rule="evenodd" d="M92.7296 49.64C92.7296 58.1624 90.2024 66.4934 85.4676 73.5795C80.7328 80.6656 74.0031 86.1886 66.1294 89.45C58.2557 92.7113 49.5918 93.5647 41.2331 91.902C32.8745 90.2394 25.1966 86.1355 19.1703 80.1092C13.1441 74.083 9.04017 66.4051 7.37753 58.0464C5.7149 49.6878 6.56822 41.0238 9.8296 33.1502C13.091 25.2765 18.6139 18.5468 25.7 13.812C32.7862 9.07718 41.1172 6.55 49.6396 6.55C55.2983 6.54965 60.9017 7.66397 66.1298 9.82933C71.3579 11.9947 76.1082 15.1687 80.1096 19.17C84.1109 23.1713 87.2849 27.9217 89.4502 33.1498C91.6156 38.3778 92.7299 43.9812 92.7296 49.64ZM49.6396 2.81C58.9017 2.81 67.9558 5.55653 75.6569 10.7023C83.3581 15.848 89.3604 23.1619 92.9049 31.7189C96.4493 40.276 97.3767 49.6919 95.5697 58.7761C93.7628 67.8602 89.3027 76.2045 82.7534 82.7538C76.2041 89.3031 67.8598 93.7632 58.7757 95.5702C49.6915 97.3771 40.2756 96.4497 31.7185 92.9053C23.1614 89.3608 15.8476 83.3585 10.7018 75.6574C5.5561 67.9562 2.80957 58.9021 2.80957 49.64C2.81076 37.2203 7.74501 25.3096 16.5271 16.5275C25.3091 7.74544 37.2198 2.81119 49.6396 2.81V2.81Z" fill="#0078D4"/>
<path fill-rule="evenodd" clip-rule="evenodd" d="M92.7301 49.7835C92.7301 58.3059 90.2029 66.6369 85.4681 73.723C80.7333 80.8091 74.0036 86.3321 66.1299 89.5935C58.2562 92.8549 49.5923 93.7082 41.2336 92.0455C32.875 90.3829 25.1971 86.279 19.1708 80.2527C13.1446 74.2265 9.04066 66.5486 7.37802 58.1899C5.71538 49.8313 6.56871 41.1673 9.83009 33.2937C13.0915 25.42 18.6144 18.6903 25.7005 13.9555C32.7867 9.22069 41.1177 6.69351 49.6401 6.69351C55.2988 6.69316 60.9022 7.80748 66.1303 9.97284C71.3584 12.1382 76.1087 15.3122 80.1101 19.3135C84.1114 23.3149 87.2854 28.0652 89.4507 33.2933C91.6161 38.5213 92.7304 44.1248 92.7301 49.7835V49.7835ZM49.6401 2.95351C58.9022 2.95351 67.9563 5.70004 75.6574 10.8458C83.3586 15.9915 89.3609 23.3054 92.9053 31.8624C96.4498 40.4195 97.3772 49.8355 95.5702 58.9196C93.7633 68.0037 89.3032 76.348 82.7539 82.8973C76.2046 89.4466 67.8603 93.9067 58.7761 95.7137C49.692 97.5206 40.2761 96.5932 31.719 93.0488C23.1619 89.5043 15.8481 83.502 10.7023 75.8009C5.55659 68.0997 2.81006 59.0456 2.81006 49.7835C2.81124 37.3638 7.74548 25.4531 16.5276 16.671C25.3096 7.88892 37.2203 2.95467 49.64 2.95348L49.6401 2.95351Z" fill="#0078D4"/>
<path d="M27.8272 37.754C26.7764 37.7571 25.7694 38.1759 25.0263 38.919C24.2832 39.662 23.8644 40.669 23.8613 41.7199V69.481H75.4177V41.7198C75.4147 40.669 74.9958 39.662 74.2528 38.919C73.5097 38.1759 72.5027 37.7571 71.4519 37.754H27.8272ZM71.4519 39.7369C71.9776 39.7376 72.4815 39.9467 72.8532 40.3185C73.225 40.6902 73.4341 41.1941 73.4348 41.7198V67.4981H25.8443V41.7198C25.8448 41.1941 26.0539 40.69 26.4257 40.3182C26.7974 39.9465 27.3015 39.7374 27.8273 39.7369H71.4519Z" fill="url(#paint1_linear_1134_2404)"/>
<path d="M25.8442 41.7198C25.8448 41.1941 26.0539 40.69 26.4256 40.3182C26.7974 39.9465 27.3015 39.7374 27.8272 39.7369H71.4519C71.9775 39.7376 72.4815 39.9467 72.8532 40.3185C73.225 40.6902 73.4341 41.1941 73.4348 41.7198V67.4981H25.8442V41.7198Z" fill="url(#paint2_linear_1134_2404)"/>
<path d="M17.9126 69.481V70.4725C17.9157 71.5233 18.3345 72.5303 19.0776 73.2734C19.8207 74.0164 20.8276 74.4353 21.8785 74.4383H77.4008C78.4516 74.4353 79.4586 74.0164 80.2017 73.2734C80.9448 72.5303 81.3636 71.5233 81.3667 70.4725V69.481H17.9126Z" fill="url(#paint3_linear_1134_2404)"/>
<path fill-rule="evenodd" clip-rule="evenodd" d="M45.6736 71.4639H53.6054C54.1312 71.4638 54.6355 71.2548 55.0073 70.8829C55.3791 70.5111 55.5881 70.0069 55.5883 69.481H43.6907C43.6907 70.0069 43.8996 70.5113 44.2715 70.8831C44.6434 71.255 45.1477 71.4639 45.6736 71.4639V71.4639Z" fill="#003067"/>
<path opacity="0.2" d="M31.4221 37.754C30.9774 38.4181 30.7387 39.1988 30.7358 39.9981V59.0151C30.7404 60.1046 31.1753 61.1481 31.9457 61.9184C32.7161 62.6887 33.7597 63.1235 34.8491 63.1279H64.4302C65.5198 63.1237 66.5636 62.6891 67.3342 61.9187C68.1048 61.1484 68.5398 60.1048 68.5444 59.0151V39.998C68.5445 39.2001 68.31 38.4197 67.8701 37.754L31.4221 37.754Z" fill="#003067"/>
<path fill-rule="evenodd" clip-rule="evenodd" d="M33.2644 38.6141L48.6934 26.8454C48.9706 26.634 49.3097 26.5198 49.6583 26.5207C50.0069 26.5215 50.3454 26.6372 50.6216 26.8499L66.1956 38.8465L49.6399 51.6195L33.2644 38.6141Z" fill="#B3B3B3"/>
<path d="M61.6206 20.859H37.6595C36.8198 20.859 36.1392 21.5396 36.1392 22.3793V52.2622C36.1392 53.1019 36.8198 53.7825 37.6595 53.7825H61.6206C62.4603 53.7825 63.1409 53.1019 63.1409 52.2622V22.3793C63.1409 21.5396 62.4603 20.859 61.6206 20.859Z" fill="white"/>
<path opacity="0.3" fill-rule="evenodd" clip-rule="evenodd" d="M36.1392 56.4426H63.141V39.0969L53.9208 46.2094L51.8684 44.2774C51.2652 43.7096 50.4681 43.3934 49.6398 43.3933C48.8115 43.3931 48.0143 43.709 47.4109 44.2766L45.4277 46.1422L36.1392 38.7672V56.4426Z" fill="#E8E8E8"/>
<path fill-rule="evenodd" clip-rule="evenodd" d="M45.5202 48.3444L33.36 60.5046C33.1622 60.3102 33.0051 60.0784 32.898 59.8226C32.7909 59.5668 32.7358 59.2922 32.7361 59.0149V39.9981C32.7347 39.4872 32.923 38.9941 33.2643 38.6141L45.5202 48.3444Z" fill="#E8E8E8"/>
<path fill-rule="evenodd" clip-rule="evenodd" d="M66.5442 39.998V59.0149C66.5446 59.2922 66.4897 59.5668 66.3826 59.8226C66.2756 60.0783 66.1186 60.3102 65.9209 60.5046L53.8135 48.3972L66.1956 38.8465C66.4232 39.1874 66.5445 39.5881 66.5442 39.998V39.998Z" fill="#E8E8E8"/>
<path fill-rule="evenodd" clip-rule="evenodd" d="M65.9205 60.5046C65.7261 60.7023 65.4942 60.8593 65.2384 60.9663C64.9827 61.0733 64.7081 61.1283 64.4308 61.1279H34.849C34.5718 61.1282 34.2973 61.0733 34.0417 60.9662C33.786 60.8592 33.5542 60.7023 33.3599 60.5046L45.5201 48.3443L48.5538 45.4909C48.8478 45.2144 49.2362 45.0604 49.6398 45.0605C50.0434 45.0606 50.4318 45.2146 50.7257 45.4913L53.8131 48.3972L65.9205 60.5046Z" fill="#F2F2F2"/>
<path d="M55.2535 38.8941H45.7299C45.6405 38.8944 45.5518 38.8771 45.4691 38.843C45.3864 38.809 45.3113 38.7589 45.2481 38.6956C45.1848 38.6324 45.1347 38.5573 45.1007 38.4746C45.0666 38.3919 45.0493 38.3032 45.0497 38.2138V36.173H42.0239C41.8644 36.1723 41.7116 36.1087 41.5988 35.9959C41.486 35.883 41.4223 35.7302 41.4216 35.5707V29.5193C41.4223 29.3597 41.486 29.2069 41.5988 29.0941C41.7116 28.9813 41.8644 28.9176 42.0239 28.917H45.9567V26.8337C45.9555 26.7496 45.9712 26.6662 46.0029 26.5883C46.0345 26.5104 46.0815 26.4396 46.1409 26.3802C46.2004 26.3207 46.2711 26.2738 46.349 26.2422C46.4269 26.2105 46.5103 26.1948 46.5944 26.196H54.389C54.4731 26.1948 54.5565 26.2105 54.6344 26.2422C54.7123 26.2738 54.783 26.3207 54.8425 26.3802C54.9019 26.4396 54.9489 26.5104 54.9805 26.5883C55.0122 26.6662 55.0279 26.7496 55.0267 26.8337V31.8506L55.7779 32.2828H55.7849C55.8284 32.3122 55.8647 32.3509 55.8912 32.3962C55.9189 32.4409 55.9336 32.4924 55.9337 32.545V38.2138C55.9341 38.3032 55.9168 38.3919 55.8827 38.4746C55.8487 38.5573 55.7986 38.6324 55.7353 38.6956C55.6721 38.7589 55.597 38.809 55.5143 38.843C55.4316 38.8771 55.3429 38.8944 55.2535 38.8941ZM53.4466 37.9871L48.6777 35.0109V35.5707C48.677 35.7303 48.6134 35.8831 48.5005 35.9959C48.3877 36.1087 48.2349 36.1724 48.0754 36.173H45.9567V37.987L53.4466 37.9871ZM48.2242 28.9453V27.5565H46.8637V28.917H48.0754C48.1264 28.9159 48.1771 28.9255 48.2242 28.9453V28.9453ZM45.0355 34.9543C45.3683 34.9602 45.6988 34.8975 46.0063 34.77C46.2807 34.6537 46.5254 34.4769 46.722 34.2527C46.919 34.0248 47.0683 33.7598 47.1613 33.4733C47.2631 33.1597 47.3157 32.8322 47.3172 32.5025C47.32 32.1846 47.2697 31.8685 47.1684 31.5671C47.0758 31.2905 46.9288 31.0351 46.7361 30.816C46.5442 30.6013 46.307 30.4319 46.0417 30.32C45.7452 30.1974 45.4272 30.1348 45.1063 30.1358C44.7673 30.1296 44.4303 30.1897 44.1143 30.3129C43.8351 30.4248 43.5854 30.5993 43.3845 30.8231C43.1825 31.0514 43.0305 31.3193 42.9381 31.6097C42.8359 31.9305 42.7834 32.265 42.7822 32.6017C42.779 32.9225 42.8317 33.2414 42.9381 33.5441C43.0346 33.82 43.1865 34.0732 43.3845 34.2881C43.5833 34.4995 43.8249 34.6662 44.0931 34.7771C44.3921 34.8991 44.7126 34.9593 45.0355 34.9542V34.9543ZM45.0426 33.9764C44.8649 33.9814 44.689 33.9399 44.5324 33.8559C44.392 33.7769 44.2729 33.665 44.1852 33.5299C44.0936 33.3887 44.0265 33.2329 43.9868 33.0693C43.9444 32.9002 43.9229 32.7264 43.923 32.5521C43.9227 32.3753 43.9441 32.1992 43.9868 32.0277C44.0265 31.8641 44.0936 31.7084 44.1852 31.5671C44.2758 31.4293 44.4002 31.3171 44.5466 31.2412C44.7089 31.1581 44.8885 31.1144 45.0709 31.1136C45.2431 31.1056 45.4143 31.1441 45.5664 31.2251C45.7186 31.3062 45.846 31.4268 45.9354 31.5742C46.0236 31.7189 46.0882 31.8768 46.1267 32.0419C46.1689 32.2134 46.188 32.3897 46.1834 32.5662C46.1843 32.743 46.1629 32.9192 46.1196 33.0906C46.079 33.2517 46.012 33.4049 45.9212 33.5441C45.8342 33.6787 45.7115 33.7866 45.5669 33.8559C45.4021 33.9311 45.2237 33.9721 45.0426 33.9764V33.9764ZM49.1312 27.5565V29.3705H51.3987V27.5565H49.1312ZM52.3057 27.5565V29.3705H54.1197V27.5565H52.3057ZM49.1312 30.2775V32.0915H51.3987V30.2775H49.1312ZM52.3057 30.2775V32.0915H54.1197V30.2775H52.3057ZM49.1312 34.2244L50.5909 35.1314L51.3987 34.6495V32.9985H49.1312V34.2244ZM52.3057 32.9985V34.1039L54.1481 32.9985L52.3057 32.9985ZM55.0267 37.9091V33.53L51.4554 35.67L55.0267 37.9091Z" fill="#0078D4"/>
</g>
<defs>
<linearGradient id="paint0_linear_1134_2404" x1="47.8698" y1="-15.1532" x2="51.8525" y2="130.615" gradientUnits="userSpaceOnUse">
<stop stop-color="#00ABDE"/>
<stop offset="1" stop-color="#007ED8"/>
</linearGradient>
<linearGradient id="paint1_linear_1134_2404" x1="49.6395" y1="69.481" x2="49.6395" y2="37.6971" gradientUnits="userSpaceOnUse">
<stop stop-color="#003067"/>
<stop offset="0.16493" stop-color="#003F7C"/>
<stop offset="0.36216" stop-color="#004F90"/>
<stop offset="0.68089" stop-color="#00589D"/>
<stop offset="1" stop-color="#005BA1"/>
</linearGradient>
<linearGradient id="paint2_linear_1134_2404" x1="49.6395" y1="67.4981" x2="49.6395" y2="39.6871" gradientUnits="userSpaceOnUse">
<stop stop-color="#005BA1"/>
<stop offset="0.26" stop-color="#00589D"/>
<stop offset="0.53" stop-color="#004F90"/>
<stop offset="0.8" stop-color="#003F7C"/>
<stop offset="1" stop-color="#003067"/>
</linearGradient>
<linearGradient id="paint3_linear_1134_2404" x1="49.6396" y1="74.4383" x2="49.6396" y2="69.481" gradientUnits="userSpaceOnUse">
<stop stop-color="#004DAE"/>
<stop offset="0.21" stop-color="#0061C4"/>
<stop offset="0.51" stop-color="#0078DD"/>
<stop offset="0.78" stop-color="#0086EC"/>
<stop offset="1" stop-color="#008BF1"/>
</linearGradient>
<clipPath id="clip0_1134_2404">
<rect width="99.2799" height="99.28" fill="white"/>
</clipPath>
</defs>
</svg>
