<svg width="100" height="100" viewBox="0 0 100 100" fill="none" xmlns="http://www.w3.org/2000/svg">
<g clip-path="url(#clip0_1136_343)">
<path d="M49.6401 96.45C40.382 96.45 31.3317 93.7047 23.6339 88.5611C15.936 83.4176 9.93624 76.1068 6.3933 67.5534C2.85036 59 1.92337 49.5881 3.72954 40.5078C5.53571 31.4276 9.99394 23.0868 16.5404 16.5403C23.0869 9.99384 31.4277 5.53562 40.5079 3.72945C49.5882 1.92327 59.0001 2.85027 67.5535 6.39321C76.1069 9.93614 83.4176 15.9359 88.5612 23.6338C93.7047 31.3316 96.4501 40.3819 96.4501 49.64C96.4505 55.7873 95.24 61.8745 92.8878 67.5539C90.5355 73.2334 87.0875 78.3938 82.7407 82.7406C78.3939 87.0874 73.2335 90.5354 67.554 92.8877C61.8746 95.2399 55.7874 96.4504 49.6401 96.45V96.45Z" fill="url(#paint0_linear_1136_343)"/>
<path fill-rule="evenodd" clip-rule="evenodd" d="M95.54 49.64C95.54 58.7182 92.848 67.5925 87.8045 75.1407C82.7609 82.6889 75.5923 88.572 67.2052 92.0461C58.818 95.5201 49.5891 96.4291 40.6854 94.658C31.7816 92.887 23.603 88.5154 17.1838 82.0962C10.7646 75.677 6.39302 67.4984 4.62196 58.5946C2.85089 49.6909 3.75987 40.462 7.23393 32.0748C10.708 23.6877 16.5911 16.5191 24.1393 11.4755C31.6875 6.43199 40.5618 3.74 49.64 3.74C55.6677 3.73998 61.6363 4.9272 67.2052 7.23388C72.774 9.54057 77.834 12.9215 82.0963 17.1837C86.3585 21.446 89.7394 26.5059 92.0461 32.0748C94.3528 37.6437 95.54 43.6123 95.54 49.64V49.64ZM49.64 3.62732e-07C59.4579 3.62732e-07 69.0553 2.91134 77.2185 8.36585C85.3818 13.8204 91.7442 21.5731 95.5014 30.6436C99.2585 39.7141 100.242 49.6951 98.3262 59.3243C96.4108 68.9535 91.6831 77.7985 84.7408 84.7408C77.7985 91.6831 68.9535 96.4108 59.3243 98.3262C49.6951 100.242 39.7141 99.2585 30.6436 95.5014C21.5731 91.7442 13.8204 85.3818 8.36585 77.2185C2.91134 69.0553 3.62732e-07 59.4579 3.62732e-07 49.64C-0.000787738 43.121 1.28265 36.6656 3.77702 30.6427C6.27138 24.6197 9.9278 19.1471 14.5375 14.5375C19.1471 9.9278 24.6197 6.27138 30.6427 3.77702C36.6656 1.28265 43.121 -0.000787738 49.64 3.62732e-07V3.62732e-07Z" fill="#F2F1F0"/>
<path fill-rule="evenodd" clip-rule="evenodd" d="M92.7296 49.6401C92.7296 58.1625 90.2024 66.4935 85.4676 73.5796C80.7328 80.6657 74.0031 86.1887 66.1294 89.4501C58.2557 92.7114 49.5918 93.5648 41.2331 91.9021C32.8745 90.2395 25.1966 86.1356 19.1703 80.1093C13.1441 74.0831 9.04017 66.4052 7.37753 58.0465C5.7149 49.6879 6.56822 41.0239 9.8296 33.1503C13.091 25.2766 18.6139 18.5469 25.7 13.8121C32.7862 9.07727 41.1172 6.55009 49.6396 6.55009C55.2983 6.54974 60.9017 7.66407 66.1298 9.82942C71.3579 11.9948 76.1082 15.1687 80.1096 19.1701C84.1109 23.1714 87.2849 27.9218 89.4502 33.1499C91.6156 38.3779 92.7299 43.9813 92.7296 49.6401V49.6401ZM49.6396 2.81009C58.9017 2.81009 67.9558 5.55662 75.6569 10.7024C83.3581 15.8481 89.3604 23.162 92.9049 31.719C96.4493 40.2761 97.3767 49.692 95.5697 58.7762C93.7628 67.8603 89.3027 76.2046 82.7534 82.7539C76.2041 89.3032 67.8598 93.7633 58.7757 95.5703C49.6915 97.3772 40.2756 96.4498 31.7185 92.9054C23.1614 89.3609 15.8476 83.3586 10.7018 75.6574C5.5561 67.9563 2.80957 58.9022 2.80957 49.6401C2.81076 37.2204 7.745 25.3097 16.5271 16.5276C25.3091 7.7455 37.2198 2.81125 49.6396 2.81006V2.81009Z" fill="#0078D4"/>
<path fill-rule="evenodd" clip-rule="evenodd" d="M92.7637 49.6401C92.7637 58.1625 90.2366 66.4935 85.5018 73.5796C80.767 80.6657 74.0372 86.1887 66.1636 89.4501C58.2899 92.7114 49.6259 93.5648 41.2673 91.9021C32.9087 90.2395 25.2308 86.1356 19.2045 80.1093C13.1783 74.0831 9.07435 66.4052 7.41171 58.0465C5.74908 49.6879 6.6024 41.0239 9.86378 33.1503C13.1252 25.2766 18.6481 18.5469 25.7342 13.8121C32.8203 9.07727 41.1514 6.55009 49.6738 6.55009C55.3325 6.54974 60.9359 7.66407 66.164 9.82942C71.3921 11.9948 76.1424 15.1687 80.1437 19.1701C84.1451 23.1714 87.3191 27.9218 89.4844 33.1499C91.6498 38.3779 92.7641 43.9813 92.7637 49.6401V49.6401ZM49.6738 2.81009C58.9359 2.81009 67.9899 5.55662 75.6911 10.7024C83.3923 15.8481 89.3946 23.162 92.939 31.719C96.4835 40.2761 97.4109 49.692 95.6039 58.7762C93.797 67.8603 89.3369 76.2046 82.7876 82.7539C76.2383 89.3032 67.894 93.7633 58.8098 95.5703C49.7257 97.3772 40.3097 96.4498 31.7527 92.9054C23.1956 89.3609 15.8818 83.3586 10.736 75.6574C5.59028 67.9563 2.84375 58.9022 2.84375 49.6401C2.84494 37.2204 7.77918 25.3097 16.5612 16.5276C25.3433 7.7455 37.254 2.81125 49.6738 2.81006V2.81009Z" fill="#0078D4"/>
<path fill-rule="evenodd" clip-rule="evenodd" d="M72.8277 22.9242C72.2841 22.9242 71.7459 23.0313 71.2437 23.2393C70.7415 23.4474 70.2852 23.7523 69.9008 24.1366C69.5164 24.521 69.2116 24.9773 69.0035 25.4795C68.7955 25.9817 68.6885 26.52 68.6885 27.0636V30.9072H76.9669V27.0636C76.9669 26.52 76.8599 25.9817 76.6519 25.4795C76.4439 24.9773 76.139 24.521 75.7546 24.1366C75.3702 23.7522 74.9139 23.4473 74.4117 23.2393C73.9095 23.0313 73.3713 22.9242 72.8277 22.9242Z" fill="#E8E8E8"/>
<path opacity="0.2" d="M72.1637 22.9242H68.6885V30.9072H72.1637V22.9242Z" fill="#767676"/>
<path fill-rule="evenodd" clip-rule="evenodd" d="M35.6725 22.9243C34.349 22.9243 33.0797 23.4501 32.1438 24.3859C31.208 25.3218 30.6822 26.5911 30.6822 27.9146V70.9603C30.6822 71.5039 30.5751 72.0422 30.3671 72.5444C30.159 73.0466 29.8541 73.5029 29.4697 73.8873C29.0854 74.2717 28.629 74.5766 28.1268 74.7846C27.6246 74.9926 27.0863 75.0996 26.5427 75.0996H63.6981C65.0216 75.0996 66.2909 74.5739 67.2268 73.638C68.1626 72.7021 68.6884 71.4328 68.6884 70.1093V27.0636C68.6884 25.9658 69.1245 24.9129 69.9008 24.1367C70.677 23.3604 71.7299 22.9243 72.8277 22.9243H35.6725Z" fill="white"/>
<path fill-rule="evenodd" clip-rule="evenodd" d="M60.5312 71.9602C60.4706 71.6808 60.3174 71.4301 60.0965 71.2486C59.8757 71.0672 59.6 70.9656 59.3142 70.9603H23.9421C23.729 70.9612 23.5197 71.0163 23.3337 71.1203C23.1478 71.2243 22.9913 71.374 22.8791 71.5551C22.7669 71.7362 22.7025 71.9429 22.6922 72.1557C22.6818 72.3686 22.7257 72.5805 22.8198 72.7717C23.1596 73.4698 23.6889 74.0583 24.3472 74.47C25.0055 74.8816 25.7663 75.0998 26.5428 75.0996H64.5489C63.625 75.0996 62.7276 74.7905 61.9996 74.2216C61.2715 73.6527 60.7547 72.8567 60.5312 71.9602V71.9602Z" fill="#E8E8E8"/>
<path d="M64.8407 48.5607H34.3469C33.8884 48.5607 33.5166 48.9325 33.5166 49.3911V56.7505C33.5166 57.209 33.8884 57.5808 34.3469 57.5808H64.8407C65.2993 57.5808 65.6711 57.209 65.6711 56.7505V49.3911C65.6711 48.9325 65.2993 48.5607 64.8407 48.5607Z" fill="#0078D4"/>
<path d="M37.7402 54.916C38.7593 54.916 39.5854 54.0898 39.5854 53.0708C39.5854 52.0517 38.7593 51.2256 37.7402 51.2256C36.7211 51.2256 35.895 52.0517 35.895 53.0708C35.895 54.0898 36.7211 54.916 37.7402 54.916Z" fill="white"/>
<path d="M64.8407 59.0224H34.3469C33.8884 59.0224 33.5166 59.3942 33.5166 59.8528V67.2121C33.5166 67.6707 33.8884 68.0425 34.3469 68.0425H64.8407C65.2993 68.0425 65.6711 67.6707 65.6711 67.2121V59.8528C65.6711 59.3942 65.2993 59.0224 64.8407 59.0224Z" fill="#9CEBFF"/>
<path d="M37.7402 65.3776C38.7593 65.3776 39.5854 64.5515 39.5854 63.5324C39.5854 62.5134 38.7593 61.6872 37.7402 61.6872C36.7211 61.6872 35.895 62.5134 35.895 63.5324C35.895 64.5515 36.7211 65.3776 37.7402 65.3776Z" fill="white"/>
<path d="M54.1959 38.6335C54.4321 38.6335 54.666 38.6801 54.8843 38.7705C55.1025 38.8609 55.3008 38.9933 55.4678 39.1604C55.6348 39.3274 55.7673 39.5257 55.8577 39.7439C55.9481 39.9621 55.9946 40.196 55.9946 40.4323V41.1668C55.9946 41.6254 55.8513 42.0725 55.5846 42.4456C54.3482 44.1758 52.3292 45.0329 49.5936 45.0329C46.8575 45.0329 44.8396 44.1754 43.6062 42.4443C43.3407 42.0717 43.198 41.6255 43.198 41.168V40.4323C43.198 40.196 43.2445 39.9621 43.3349 39.7439C43.4253 39.5257 43.5578 39.3274 43.7248 39.1604C43.8918 38.9933 44.0901 38.8609 44.3083 38.7705C44.5266 38.6801 44.7605 38.6335 44.9967 38.6335H54.1959ZM49.5937 29.0396C50.3846 29.0395 51.1578 29.2741 51.8154 29.7135C52.4731 30.1529 52.9857 30.7775 53.2884 31.5082C53.591 32.2389 53.6702 33.043 53.5159 33.8188C53.3616 34.5945 52.9808 35.3071 52.4215 35.8664C51.8622 36.4257 51.1496 36.8065 50.3739 36.9608C49.5981 37.1151 48.7941 37.0359 48.0633 36.7332C47.3326 36.4306 46.708 35.918 46.2686 35.2603C45.8292 34.6027 45.5946 33.8295 45.5947 33.0386C45.5947 31.978 46.016 30.9608 46.766 30.2109C47.5159 29.4609 48.5331 29.0396 49.5936 29.0396L49.5937 29.0396Z" fill="#0078D4"/>
<path opacity="0.2" d="M34.3469 57.5808C34.2379 57.5808 34.1299 57.5594 34.0291 57.5176C33.9284 57.4759 33.8369 57.4147 33.7597 57.3376C33.6826 57.2605 33.6215 57.169 33.5798 57.0682C33.538 56.9675 33.5166 56.8595 33.5166 56.7504V49.3911C33.5166 49.2821 33.538 49.1741 33.5798 49.0733C33.6215 48.9726 33.6826 48.881 33.7597 48.8039C33.8369 48.7268 33.9284 48.6657 34.0291 48.6239C34.1299 48.5822 34.2379 48.5607 34.3469 48.5607H47.5107V44.8326C45.9467 44.5785 44.5448 43.721 43.6063 42.4444C43.3408 42.0717 43.1981 41.6255 43.1981 41.168V40.4323C43.1981 40.196 43.2446 39.9621 43.335 39.7439C43.4254 39.5257 43.5579 39.3274 43.7249 39.1604C43.892 38.9933 44.0902 38.8608 44.3085 38.7705C44.5267 38.6801 44.7606 38.6335 44.9968 38.6335H46.3003C45.8396 38.0877 45.2657 37.6485 44.6185 37.3465C43.9712 37.0444 43.266 36.8867 42.5518 36.8842H30.6821V64.3935H33.5166V59.8528C33.5166 59.7437 33.538 59.6358 33.5798 59.535C33.6215 59.4343 33.6826 59.3427 33.7597 59.2656C33.8369 59.1885 33.9284 59.1273 34.0291 59.0856C34.1299 59.0439 34.2379 59.0224 34.3469 59.0224H47.5107V57.5808H34.3469Z" fill="#B3B3B3"/>
<g opacity="0.2">
<path d="M46.3004 38.6335H44.9969C44.7607 38.6335 44.5268 38.6801 44.3086 38.7705C44.0904 38.8608 43.8921 38.9933 43.725 39.1604C43.558 39.3274 43.4255 39.5257 43.3351 39.7439C43.2448 39.9621 43.1982 40.196 43.1982 40.4323V41.168C43.1982 41.6256 43.3409 42.0717 43.6064 42.4444C44.5449 43.721 45.9468 44.5786 47.5109 44.8326V41.8432C47.506 40.6627 47.0763 39.5233 46.3004 38.6335V38.6335Z" fill="#003067"/>
<path d="M33.5166 49.3911V56.7504C33.5166 56.8595 33.538 56.9675 33.5798 57.0682C33.6215 57.169 33.6826 57.2605 33.7598 57.3376C33.8369 57.4147 33.9284 57.4759 34.0291 57.5176C34.1299 57.5594 34.2379 57.5808 34.3469 57.5808H47.5107V48.5607H34.3469C34.2379 48.5607 34.1299 48.5822 34.0291 48.6239C33.9284 48.6656 33.8369 48.7268 33.7598 48.8039C33.6826 48.881 33.6215 48.9726 33.5798 49.0733C33.538 49.1741 33.5166 49.2821 33.5166 49.3911V49.3911Z" fill="#003067"/>
<path d="M33.5166 59.8528V64.3935H42.5518C43.8664 64.392 45.1268 63.8692 46.0565 62.9396C46.9862 62.01 47.5092 60.7497 47.5108 59.435V59.0224H34.3469C34.2379 59.0224 34.1299 59.0439 34.0291 59.0856C33.9284 59.1273 33.8369 59.1885 33.7598 59.2656C33.6826 59.3427 33.6215 59.4343 33.5798 59.535C33.538 59.6358 33.5166 59.7437 33.5166 59.8528V59.8528Z" fill="#003067"/>
</g>
<path d="M42.5514 38.8844H20.6355C19.0013 38.8844 17.6765 40.2092 17.6765 41.8434V59.4348C17.6765 61.0689 19.0013 62.3937 20.6355 62.3937H42.5514C44.1856 62.3937 45.5103 61.0689 45.5103 59.4348V41.8434C45.5103 40.2092 44.1856 38.8844 42.5514 38.8844Z" fill="url(#paint1_linear_1136_343)"/>
<path d="M22.801 55.285L28.225 49.861L32.092 53.728L39.827 45.993" stroke="white" stroke-width="1.0064" stroke-miterlimit="10" stroke-linecap="round"/>
<path d="M39.8274 48.0393C40.9577 48.0393 41.874 47.123 41.874 45.9927C41.874 44.8624 40.9577 43.9461 39.8274 43.9461C38.6971 43.9461 37.7808 44.8624 37.7808 45.9927C37.7808 47.123 38.6971 48.0393 39.8274 48.0393Z" fill="white" stroke="#50E6FF" stroke-width="1.0064" stroke-miterlimit="10" stroke-linecap="round"/>
<path d="M22.8009 57.1419C23.6229 57.1419 24.2891 56.4757 24.2891 55.6538C24.2891 54.8318 23.6229 54.1656 22.8009 54.1656C21.979 54.1656 21.3127 54.8318 21.3127 55.6538C21.3127 56.4757 21.979 57.1419 22.8009 57.1419Z" fill="white" stroke="#50E6FF" stroke-width="1.0064" stroke-miterlimit="10" stroke-linecap="round"/>
<path d="M28.2572 51.2764C29.0071 51.2764 29.6151 50.6685 29.6151 49.9186C29.6151 49.1687 29.0071 48.5607 28.2572 48.5607C27.5073 48.5607 26.8994 49.1687 26.8994 49.9186C26.8994 50.6685 27.5073 51.2764 28.2572 51.2764Z" fill="white" stroke="#50E6FF" stroke-width="1.0064" stroke-miterlimit="10" stroke-linecap="round"/>
<path d="M32.1261 54.8058C32.876 54.8058 33.484 54.1979 33.484 53.448C33.484 52.6981 32.876 52.0901 32.1261 52.0901C31.3762 52.0901 30.7683 52.6981 30.7683 53.448C30.7683 54.1979 31.3762 54.8058 32.1261 54.8058Z" fill="white" stroke="#50E6FF" stroke-width="1.0064" stroke-miterlimit="10" stroke-linecap="round"/>
</g>
<defs>
<linearGradient id="paint0_linear_1136_343" x1="47.8697" y1="-15.1531" x2="51.8525" y2="130.615" gradientUnits="userSpaceOnUse">
<stop stop-color="#00ABDE"/>
<stop offset="1" stop-color="#007ED8"/>
</linearGradient>
<linearGradient id="paint1_linear_1136_343" x1="31.5934" y1="62.3937" x2="31.5934" y2="38.8844" gradientUnits="userSpaceOnUse">
<stop stop-color="#004DAE"/>
<stop offset="0.21" stop-color="#0061C4"/>
<stop offset="0.51" stop-color="#0078DD"/>
<stop offset="0.78" stop-color="#0086EC"/>
<stop offset="1" stop-color="#008BF1"/>
</linearGradient>
<clipPath id="clip0_1136_343">
<rect width="99.2799" height="99.28" fill="white"/>
</clipPath>
</defs>
</svg>
