<svg width="100" height="100" viewBox="0 0 100 100" fill="none" xmlns="http://www.w3.org/2000/svg">
<g clip-path="url(#clip0_940_1514)">
<path d="M49.6401 96.45C40.382 96.45 31.3317 93.7047 23.6339 88.5611C15.936 83.4176 9.93624 76.1068 6.3933 67.5534C2.85036 59 1.92337 49.5881 3.72954 40.5078C5.53571 31.4276 9.99394 23.0868 16.5404 16.5403C23.0869 9.99384 31.4277 5.53562 40.5079 3.72945C49.5882 1.92327 59.0001 2.85027 67.5535 6.39321C76.1069 9.93614 83.4176 15.9359 88.5612 23.6338C93.7047 31.3316 96.4501 40.3819 96.4501 49.64C96.4505 55.7873 95.24 61.8745 92.8878 67.5539C90.5355 73.2334 87.0875 78.3938 82.7407 82.7406C78.3939 87.0874 73.2335 90.5354 67.554 92.8877C61.8746 95.2399 55.7874 96.4504 49.6401 96.45V96.45Z" fill="url(#paint0_linear_940_1514)"/>
<path fill-rule="evenodd" clip-rule="evenodd" d="M95.54 49.64C95.54 58.7182 92.848 67.5925 87.8045 75.1407C82.7609 82.6889 75.5923 88.572 67.2052 92.0461C58.818 95.5201 49.5891 96.4291 40.6854 94.658C31.7816 92.887 23.603 88.5154 17.1838 82.0962C10.7646 75.677 6.39302 67.4984 4.62196 58.5946C2.85089 49.6909 3.75987 40.462 7.23393 32.0748C10.708 23.6877 16.5911 16.5191 24.1393 11.4755C31.6875 6.43199 40.5618 3.74 49.64 3.74C55.6677 3.73998 61.6363 4.9272 67.2052 7.23388C72.774 9.54057 77.834 12.9215 82.0963 17.1837C86.3585 21.446 89.7394 26.5059 92.0461 32.0748C94.3528 37.6437 95.54 43.6123 95.54 49.64V49.64ZM49.64 3.62732e-07C59.4579 3.62732e-07 69.0553 2.91134 77.2185 8.36585C85.3818 13.8204 91.7442 21.5731 95.5014 30.6436C99.2585 39.7141 100.242 49.6951 98.3262 59.3243C96.4108 68.9535 91.6831 77.7985 84.7408 84.7408C77.7985 91.6831 68.9535 96.4108 59.3243 98.3262C49.6951 100.242 39.7141 99.2585 30.6436 95.5014C21.5731 91.7442 13.8204 85.3818 8.36585 77.2185C2.91134 69.0553 3.62732e-07 59.4579 3.62732e-07 49.64C-0.000787738 43.121 1.28265 36.6656 3.77702 30.6427C6.27138 24.6197 9.9278 19.1471 14.5375 14.5375C19.1471 9.9278 24.6197 6.27138 30.6427 3.77702C36.6656 1.28265 43.121 -0.000787738 49.64 3.62732e-07V3.62732e-07Z" fill="#F2F1F0"/>
<path fill-rule="evenodd" clip-rule="evenodd" d="M92.7296 49.6401C92.7296 58.1625 90.2024 66.4935 85.4676 73.5796C80.7328 80.6657 74.0031 86.1887 66.1294 89.4501C58.2557 92.7114 49.5918 93.5648 41.2331 91.9021C32.8745 90.2395 25.1966 86.1356 19.1703 80.1093C13.1441 74.0831 9.04017 66.4052 7.37753 58.0465C5.7149 49.6879 6.56822 41.0239 9.8296 33.1503C13.091 25.2766 18.6139 18.5469 25.7 13.8121C32.7862 9.07727 41.1172 6.55009 49.6396 6.55009C55.2983 6.54974 60.9017 7.66407 66.1298 9.82942C71.3579 11.9948 76.1082 15.1687 80.1096 19.1701C84.1109 23.1714 87.2849 27.9218 89.4502 33.1499C91.6156 38.3779 92.7299 43.9813 92.7296 49.6401V49.6401ZM49.6396 2.81009C58.9017 2.81009 67.9558 5.55662 75.6569 10.7024C83.3581 15.8481 89.3604 23.162 92.9049 31.719C96.4493 40.2761 97.3767 49.692 95.5697 58.7762C93.7628 67.8603 89.3027 76.2046 82.7534 82.7539C76.2041 89.3032 67.8598 93.7633 58.7757 95.5703C49.6915 97.3772 40.2756 96.4498 31.7185 92.9054C23.1614 89.3609 15.8476 83.3586 10.7018 75.6574C5.5561 67.9563 2.80957 58.9022 2.80957 49.6401C2.81076 37.2204 7.745 25.3097 16.5271 16.5276C25.3091 7.7455 37.2198 2.81125 49.6396 2.81006V2.81009Z" fill="#0078D4"/>
<path fill-rule="evenodd" clip-rule="evenodd" d="M92.7637 49.6401C92.7637 58.1625 90.2366 66.4935 85.5018 73.5796C80.767 80.6657 74.0372 86.1887 66.1636 89.4501C58.2899 92.7114 49.6259 93.5648 41.2673 91.9021C32.9087 90.2395 25.2308 86.1356 19.2045 80.1093C13.1783 74.0831 9.07435 66.4052 7.41171 58.0465C5.74908 49.6879 6.6024 41.0239 9.86378 33.1503C13.1252 25.2766 18.6481 18.5469 25.7342 13.8121C32.8203 9.07727 41.1514 6.55009 49.6738 6.55009C55.3325 6.54974 60.9359 7.66407 66.164 9.82942C71.3921 11.9948 76.1424 15.1687 80.1437 19.1701C84.1451 23.1714 87.3191 27.9218 89.4844 33.1499C91.6498 38.3779 92.7641 43.9813 92.7637 49.6401V49.6401ZM49.6738 2.81009C58.9359 2.81009 67.9899 5.55662 75.6911 10.7024C83.3923 15.8481 89.3946 23.162 92.939 31.719C96.4835 40.2761 97.4109 49.692 95.6039 58.7762C93.797 67.8603 89.3369 76.2046 82.7876 82.7539C76.2383 89.3032 67.894 93.7633 58.8098 95.5703C49.7257 97.3772 40.3097 96.4498 31.7527 92.9054C23.1956 89.3609 15.8818 83.3586 10.736 75.6574C5.59028 67.9563 2.84375 58.9022 2.84375 49.6401C2.84494 37.2204 7.77918 25.3097 16.5612 16.5276C25.3433 7.7455 37.254 2.81125 49.6738 2.81006V2.81009Z" fill="#0078D4"/>
<path d="M27.077 49.8026L46.4675 16.701C46.7951 16.1416 47.2635 15.6777 47.8259 15.3553C48.3884 15.0329 49.0254 14.8633 49.6737 14.8633C50.322 14.8633 50.959 15.0329 51.5215 15.3553C52.084 15.6777 52.5523 16.1416 52.88 16.701L72.2704 49.8026C72.6011 50.3672 72.7769 51.009 72.78 51.6632C72.7831 52.3175 72.6134 52.961 72.2881 53.5286C71.9627 54.0962 71.4933 54.5679 70.9272 54.8959C70.3611 55.2239 69.7184 55.3967 69.0642 55.3967H30.2833C29.629 55.3967 28.9863 55.2239 28.4202 54.8959C27.8542 54.5679 27.3847 54.0962 27.0594 53.5286C26.734 52.961 26.5643 52.3175 26.5674 51.6632C26.5705 51.009 26.7463 50.3672 27.077 49.8026V49.8026Z" fill="#FF9300"/>
<path d="M30.2839 52.9194C30.0659 52.9195 29.8516 52.8621 29.6629 52.7528C29.4742 52.6436 29.3176 52.4865 29.2091 52.2973C29.1006 52.1081 29.044 51.8937 29.0449 51.6756C29.0459 51.4575 29.1045 51.2436 29.2147 51.0554L48.6045 17.9531C48.7138 17.7665 48.87 17.6118 49.0576 17.5043C49.2452 17.3969 49.4577 17.3403 49.6739 17.3404C49.8901 17.3405 50.1026 17.3971 50.2901 17.5047C50.4777 17.6123 50.6338 17.7671 50.743 17.9537L70.1328 51.0548C70.243 51.2429 70.3016 51.4568 70.3027 51.6748C70.3037 51.8929 70.2472 52.1073 70.1388 52.2965C70.0305 52.4857 69.8741 52.6429 69.6855 52.7523C69.4969 52.8616 69.2828 52.9193 69.0647 52.9194H30.2839Z" fill="#FFCA00"/>
<path d="M49.6736 28.8953V40.7607" stroke="#FF9300" stroke-width="2.47725" stroke-miterlimit="10" stroke-linecap="round"/>
<path d="M49.6737 48.2677C50.5808 48.2677 51.3161 47.5323 51.3161 46.6252C51.3161 45.7181 50.5808 44.9828 49.6737 44.9828C48.7666 44.9828 48.0312 45.7181 48.0312 46.6252C48.0312 47.5323 48.7666 48.2677 49.6737 48.2677Z" fill="#FF9300"/>
<path opacity="0.2" d="M60.2208 55.3966L58.3987 53.5738C59.0452 52.2529 59.3803 50.8013 59.3782 49.3307C59.3809 47.774 59.0104 46.2394 58.2977 44.8555C57.5851 43.4715 56.5511 42.2786 55.2824 41.3766C54.0137 40.4746 52.5473 39.8899 51.0061 39.6714C49.4648 39.453 47.8937 39.6072 46.4243 40.1211C44.955 40.635 43.6302 41.4936 42.561 42.625C41.4919 43.7564 40.7095 45.1276 40.2796 46.6237C39.8496 48.1198 39.7845 49.6972 40.0897 51.2236C40.395 52.75 41.0617 54.181 42.0339 55.3967L60.2208 55.3966Z" fill="#D15900"/>
<path d="M34.5074 79.5055C37.5241 79.5055 39.9696 77.06 39.9696 74.0432C39.9696 71.0265 37.5241 68.581 34.5074 68.581C31.4907 68.581 29.0452 71.0265 29.0452 74.0432C29.0452 77.06 31.4907 79.5055 34.5074 79.5055Z" fill="white"/>
<path d="M64.8399 79.5055C67.8566 79.5055 70.3022 77.06 70.3022 74.0432C70.3022 71.0265 67.8566 68.581 64.8399 68.581C61.8232 68.581 59.3777 71.0265 59.3777 74.0432C59.3777 77.06 61.8232 79.5055 64.8399 79.5055Z" fill="white"/>
<path d="M49.6736 57.1051V63.3955H35.7925C35.4516 63.3955 35.1248 63.531 34.8837 63.772C34.6427 64.013 34.5073 64.3399 34.5073 64.6807V74.0432" stroke="white" stroke-width="1.1267" stroke-miterlimit="10"/>
<path d="M49.6736 56.1702V63.3955H63.5547C63.8955 63.3955 64.2224 63.531 64.4634 63.772C64.7044 64.013 64.8398 64.3399 64.8398 64.6807V74.0432" stroke="white" stroke-width="1.1267" stroke-miterlimit="10"/>
<path fill-rule="evenodd" clip-rule="evenodd" d="M36.8767 72.3129C36.7568 72.193 36.5941 72.1256 36.4245 72.1256C36.2549 72.1256 36.0922 72.193 35.9722 72.3129L33.8638 74.4197L33.1023 73.6655C33.0845 73.639 33.0643 73.6142 33.0421 73.5913C32.9229 73.4721 32.7615 73.4049 32.5929 73.4042C32.4243 73.4035 32.2623 73.4694 32.1421 73.5876C32.0219 73.7058 31.9533 73.8667 31.9512 74.0352C31.9491 74.2038 32.0137 74.3664 32.1309 74.4875L32.1232 74.4952L33.4135 75.7737C33.5335 75.8935 33.6962 75.9608 33.8659 75.9608C34.0355 75.9608 34.1982 75.8935 34.3183 75.7737L36.8748 73.2183L36.8767 73.2168C36.9361 73.1574 36.9832 73.087 37.0154 73.0094C37.0475 72.9319 37.0641 72.8488 37.0641 72.7648C37.0641 72.6809 37.0475 72.5978 37.0154 72.5202C36.9832 72.4427 36.9361 72.3722 36.8767 72.3129V72.3129Z" fill="#0078D4"/>
<path fill-rule="evenodd" clip-rule="evenodd" d="M67.2093 72.3129C67.0893 72.193 66.9266 72.1256 66.757 72.1256C66.5874 72.1256 66.4247 72.193 66.3047 72.3129L64.1963 74.4197L63.4348 73.6655C63.417 73.639 63.3968 73.6142 63.3747 73.5913C63.2555 73.4721 63.094 73.4049 62.9254 73.4042C62.7569 73.4035 62.5948 73.4694 62.4746 73.5876C62.3545 73.7058 62.2858 73.8667 62.2837 74.0352C62.2816 74.2038 62.3462 74.3664 62.4634 74.4875L62.4558 74.4952L63.746 75.7737C63.866 75.8935 64.0288 75.9608 64.1984 75.9608C64.368 75.9608 64.5308 75.8935 64.6508 75.7737L67.2073 73.2183L67.2093 73.2168C67.2686 73.1574 67.3157 73.087 67.3479 73.0094C67.38 72.9319 67.3966 72.8488 67.3966 72.7648C67.3966 72.6809 67.38 72.5978 67.3479 72.5202C67.3157 72.4427 67.2686 72.3722 67.2093 72.3129V72.3129Z" fill="#B3B3B3"/>
<path d="M49.6397 57.069C48.1091 57.069 46.613 56.6151 45.3404 55.7648C44.0678 54.9145 43.0759 53.7059 42.4902 52.2919C41.9045 50.8778 41.7512 49.3219 42.0498 47.8208C42.3484 46.3196 43.0854 44.9407 44.1677 43.8585C45.2499 42.7762 46.6288 42.0392 48.13 41.7406C49.6311 41.442 51.187 41.5953 52.6011 42.181C54.0151 42.7667 55.2237 43.7586 56.074 45.0312C56.9243 46.3038 57.3782 47.7999 57.3782 49.3305C57.3759 51.3821 56.5598 53.3491 55.1091 54.7999C53.6583 56.2506 51.6913 57.0667 49.6397 57.069ZM49.6397 43.9791C48.5813 43.9791 47.5467 44.293 46.6666 44.881C45.7866 45.469 45.1007 46.3048 44.6957 47.2826C44.2907 48.2604 44.1847 49.3364 44.3912 50.3745C44.5977 51.4125 45.1073 52.366 45.8557 53.1144C46.6041 53.8628 47.5576 54.3725 48.5957 54.579C49.6337 54.7855 50.7097 54.6795 51.6875 54.2745C52.6654 53.8694 53.5011 53.1835 54.0891 52.3035C54.6772 51.4235 54.991 50.3889 54.991 49.3305C54.9893 47.9117 54.425 46.5516 53.4218 45.5484C52.4186 44.5452 51.0584 43.9809 49.6397 43.9792V43.9791Z" fill="white"/>
<path d="M58.691 59.576C58.5343 59.5763 58.379 59.5455 58.2342 59.4855C58.0893 59.4255 57.9578 59.3374 57.8472 59.2263L53.4237 54.8028C53.2007 54.5788 53.0756 54.2755 53.0759 53.9595C53.0762 53.6434 53.2019 53.3404 53.4254 53.1169C53.6489 52.8934 53.952 52.7677 54.268 52.7673C54.5841 52.767 54.8874 52.8921 55.1114 53.1152L59.5348 57.5386C59.7017 57.7056 59.8153 57.9182 59.8613 58.1497C59.9073 58.3812 59.8837 58.6211 59.7934 58.8392C59.7031 59.0572 59.5502 59.2436 59.354 59.3748C59.1577 59.5059 58.927 59.576 58.691 59.576H58.691Z" fill="white"/>
<path opacity="0.6" d="M49.6397 54.6818C52.5951 54.6818 54.991 52.286 54.991 49.3305C54.991 46.375 52.5951 43.9792 49.6397 43.9792C46.6842 43.9792 44.2883 46.375 44.2883 49.3305C44.2883 52.286 46.6842 54.6818 49.6397 54.6818Z" fill="white"/>
</g>
<defs>
<linearGradient id="paint0_linear_940_1514" x1="47.8697" y1="-15.1531" x2="51.8525" y2="130.615" gradientUnits="userSpaceOnUse">
<stop stop-color="#00ABDE"/>
<stop offset="1" stop-color="#007ED8"/>
</linearGradient>
<clipPath id="clip0_940_1514">
<rect width="99.2799" height="99.28" fill="white"/>
</clipPath>
</defs>
</svg>
