<svg width="100" height="100" viewBox="0 0 100 100" fill="none" xmlns="http://www.w3.org/2000/svg">
<g clip-path="url(#clip0_967_1076)">
<path d="M49.6401 96.45C40.382 96.45 31.3317 93.7047 23.6339 88.5611C15.936 83.4176 9.93624 76.1068 6.3933 67.5534C2.85036 59 1.92337 49.5881 3.72954 40.5078C5.53571 31.4276 9.99394 23.0868 16.5404 16.5403C23.0869 9.99384 31.4277 5.53562 40.5079 3.72945C49.5882 1.92327 59.0001 2.85027 67.5535 6.39321C76.1069 9.93614 83.4176 15.9359 88.5612 23.6338C93.7047 31.3316 96.4501 40.3819 96.4501 49.64C96.4505 55.7873 95.24 61.8745 92.8878 67.5539C90.5355 73.2334 87.0875 78.3938 82.7407 82.7406C78.3939 87.0874 73.2335 90.5354 67.554 92.8877C61.8746 95.2399 55.7874 96.4504 49.6401 96.45V96.45Z" fill="url(#paint0_linear_967_1076)"/>
<path fill-rule="evenodd" clip-rule="evenodd" d="M95.54 49.64C95.54 58.7182 92.848 67.5925 87.8045 75.1407C82.7609 82.6889 75.5923 88.572 67.2052 92.0461C58.818 95.5201 49.5891 96.4291 40.6854 94.658C31.7816 92.887 23.603 88.5154 17.1838 82.0962C10.7646 75.677 6.39302 67.4984 4.62196 58.5946C2.85089 49.6909 3.75987 40.462 7.23393 32.0748C10.708 23.6877 16.5911 16.5191 24.1393 11.4755C31.6875 6.43199 40.5618 3.74 49.64 3.74C55.6677 3.73998 61.6363 4.9272 67.2052 7.23388C72.774 9.54057 77.834 12.9215 82.0963 17.1837C86.3585 21.446 89.7394 26.5059 92.0461 32.0748C94.3528 37.6437 95.54 43.6123 95.54 49.64V49.64ZM49.64 3.62732e-07C59.4579 3.62732e-07 69.0553 2.91134 77.2185 8.36585C85.3818 13.8204 91.7442 21.5731 95.5014 30.6436C99.2585 39.7141 100.242 49.6951 98.3262 59.3243C96.4108 68.9535 91.6831 77.7985 84.7408 84.7408C77.7985 91.6831 68.9535 96.4108 59.3243 98.3262C49.6951 100.242 39.7141 99.2585 30.6436 95.5014C21.5731 91.7442 13.8204 85.3818 8.36585 77.2185C2.91134 69.0553 3.62732e-07 59.4579 3.62732e-07 49.64C-0.000787738 43.121 1.28265 36.6656 3.77702 30.6427C6.27138 24.6197 9.9278 19.1471 14.5375 14.5375C19.1471 9.9278 24.6197 6.27138 30.6427 3.77702C36.6656 1.28265 43.121 -0.000787738 49.64 3.62732e-07V3.62732e-07Z" fill="#F2F1F0"/>
<path fill-rule="evenodd" clip-rule="evenodd" d="M92.7296 49.6401C92.7296 58.1625 90.2024 66.4935 85.4676 73.5796C80.7328 80.6657 74.0031 86.1887 66.1294 89.4501C58.2557 92.7114 49.5918 93.5648 41.2331 91.9021C32.8745 90.2395 25.1966 86.1356 19.1703 80.1093C13.1441 74.0831 9.04017 66.4052 7.37753 58.0465C5.7149 49.6879 6.56822 41.0239 9.8296 33.1503C13.091 25.2766 18.6139 18.5469 25.7 13.8121C32.7862 9.07727 41.1172 6.55009 49.6396 6.55009C55.2983 6.54974 60.9017 7.66407 66.1298 9.82942C71.3579 11.9948 76.1082 15.1687 80.1096 19.1701C84.1109 23.1714 87.2849 27.9218 89.4502 33.1499C91.6156 38.3779 92.7299 43.9813 92.7296 49.6401V49.6401ZM49.6396 2.81009C58.9017 2.81009 67.9558 5.55662 75.6569 10.7024C83.3581 15.8481 89.3604 23.162 92.9049 31.719C96.4493 40.2761 97.3767 49.692 95.5697 58.7762C93.7628 67.8603 89.3027 76.2046 82.7534 82.7539C76.2041 89.3032 67.8598 93.7633 58.7757 95.5703C49.6915 97.3772 40.2756 96.4498 31.7185 92.9054C23.1614 89.3609 15.8476 83.3586 10.7018 75.6574C5.5561 67.9563 2.80957 58.9022 2.80957 49.6401C2.81076 37.2204 7.745 25.3097 16.5271 16.5276C25.3091 7.7455 37.2198 2.81125 49.6396 2.81006V2.81009Z" fill="#0078D4"/>
<path fill-rule="evenodd" clip-rule="evenodd" d="M92.7637 49.6401C92.7637 58.1625 90.2366 66.4935 85.5018 73.5796C80.767 80.6657 74.0372 86.1887 66.1636 89.4501C58.2899 92.7114 49.6259 93.5648 41.2673 91.9021C32.9087 90.2395 25.2308 86.1356 19.2045 80.1093C13.1783 74.0831 9.07435 66.4052 7.41171 58.0465C5.74908 49.6879 6.6024 41.0239 9.86378 33.1503C13.1252 25.2766 18.6481 18.5469 25.7342 13.8121C32.8203 9.07727 41.1514 6.55009 49.6738 6.55009C55.3325 6.54974 60.9359 7.66407 66.164 9.82942C71.3921 11.9948 76.1424 15.1687 80.1437 19.1701C84.1451 23.1714 87.3191 27.9218 89.4844 33.1499C91.6498 38.3779 92.7641 43.9813 92.7637 49.6401V49.6401ZM49.6738 2.81009C58.9359 2.81009 67.9899 5.55662 75.6911 10.7024C83.3923 15.8481 89.3946 23.162 92.939 31.719C96.4835 40.2761 97.4109 49.692 95.6039 58.7762C93.797 67.8603 89.3369 76.2046 82.7876 82.7539C76.2383 89.3032 67.894 93.7633 58.8098 95.5703C49.7257 97.3772 40.3097 96.4498 31.7527 92.9054C23.1956 89.3609 15.8818 83.3586 10.736 75.6574C5.59028 67.9563 2.84375 58.9022 2.84375 49.6401C2.84494 37.2204 7.77918 25.3097 16.5612 16.5276C25.3433 7.7455 37.254 2.81125 49.6738 2.81006V2.81009Z" fill="#0078D4"/>
<path fill-rule="evenodd" clip-rule="evenodd" d="M44.7607 28.9161C44.76 29.1331 44.6736 29.341 44.5201 29.4944C44.3667 29.6478 44.1588 29.7343 43.9418 29.7349H42.3042C42.0872 29.7343 41.8793 29.6478 41.7259 29.4944C41.5725 29.341 41.486 29.1331 41.4854 28.9161V24.0032C41.486 23.7862 41.5725 23.5783 41.7259 23.4249C41.8793 23.2715 42.0872 23.185 42.3042 23.1844H43.9418C44.1588 23.185 44.3667 23.2715 44.5201 23.4249C44.6736 23.5783 44.76 23.7862 44.7607 24.0032V28.9161Z" fill="#C3F1FF"/>
<path fill-rule="evenodd" clip-rule="evenodd" d="M51.3114 28.9161C51.3107 29.1331 51.2243 29.341 51.0709 29.4944C50.9175 29.6478 50.7096 29.7343 50.4926 29.7349H48.855C48.638 29.7343 48.4301 29.6478 48.2767 29.4944C48.1232 29.341 48.0368 29.1331 48.0361 28.9161V24.0032C48.0368 23.7862 48.1232 23.5783 48.2767 23.4249C48.4301 23.2715 48.638 23.185 48.855 23.1844H50.4926C50.7096 23.185 50.9175 23.2715 51.0709 23.4249C51.2243 23.5783 51.3107 23.7862 51.3114 24.0032V28.9161Z" fill="#C3F1FF"/>
<path fill-rule="evenodd" clip-rule="evenodd" d="M57.8622 28.9161C57.8615 29.1331 57.7751 29.341 57.6216 29.4944C57.4682 29.6478 57.2603 29.7343 57.0433 29.7349H55.4057C55.1887 29.7343 54.9808 29.6478 54.8274 29.4944C54.674 29.341 54.5875 29.1331 54.5869 28.9161V24.0032C54.5875 23.7862 54.674 23.5783 54.8274 23.4249C54.9808 23.2715 55.1887 23.185 55.4057 23.1844H57.0433C57.2603 23.185 57.4682 23.2715 57.6216 23.4249C57.7751 23.5783 57.8615 23.7862 57.8622 24.0032V28.9161Z" fill="#C3F1FF"/>
<path fill-rule="evenodd" clip-rule="evenodd" d="M64.4122 28.9161C64.4116 29.1331 64.3251 29.341 64.1717 29.4944C64.0183 29.6478 63.8103 29.7343 63.5934 29.7349H61.9557C61.7388 29.7343 61.5309 29.6478 61.3775 29.4944C61.2241 29.341 61.1376 29.1331 61.137 28.9161V24.0032C61.1376 23.7862 61.2241 23.5783 61.3775 23.4249C61.5309 23.2715 61.7388 23.185 61.9557 23.1844H63.5934C63.8103 23.185 64.0183 23.2715 64.1717 23.4249C64.3251 23.5783 64.4116 23.7862 64.4122 24.0032V28.9161Z" fill="#C3F1FF"/>
<path fill-rule="evenodd" clip-rule="evenodd" d="M38.2099 28.9161C38.2093 29.1331 38.1228 29.341 37.9694 29.4944C37.8159 29.6478 37.608 29.7343 37.391 29.7349H35.7534C35.5364 29.7343 35.3285 29.6478 35.1751 29.4944C35.0217 29.341 34.9352 29.1331 34.9346 28.9161V24.0032C34.9352 23.7862 35.0217 23.5783 35.1751 23.4249C35.3285 23.2715 35.5364 23.185 35.7534 23.1844H37.391C37.608 23.185 37.8159 23.2715 37.9694 23.4249C38.1228 23.5783 38.2093 23.7862 38.2099 24.0032V28.9161Z" fill="#C3F1FF"/>
<path fill-rule="evenodd" clip-rule="evenodd" d="M44.7607 74.7701C44.76 74.9871 44.6736 75.195 44.5201 75.3484C44.3667 75.5019 44.1588 75.5884 43.9418 75.589H42.3042C42.0872 75.5883 41.8793 75.5019 41.7259 75.3484C41.5725 75.195 41.486 74.9871 41.4854 74.7701V69.8571C41.486 69.6402 41.5725 69.4323 41.7259 69.2789C41.8793 69.1255 42.0872 69.039 42.3042 69.0384H43.9418C44.1588 69.039 44.3667 69.1254 44.5201 69.2789C44.6736 69.4323 44.76 69.6402 44.7607 69.8571V74.7701Z" fill="#C3F1FF"/>
<path fill-rule="evenodd" clip-rule="evenodd" d="M51.3114 74.7701C51.3108 74.9871 51.2243 75.195 51.0709 75.3484C50.9175 75.5019 50.7096 75.5883 50.4926 75.589H48.855C48.638 75.5884 48.4301 75.5019 48.2767 75.3484C48.1232 75.195 48.0368 74.9871 48.0361 74.7701V69.8571C48.0368 69.6402 48.1233 69.4323 48.2767 69.2789C48.4301 69.1254 48.638 69.039 48.855 69.0384H50.4926C50.7096 69.039 50.9175 69.1255 51.0709 69.2789C51.2243 69.4323 51.3107 69.6402 51.3114 69.8571V74.7701Z" fill="#C3F1FF"/>
<path fill-rule="evenodd" clip-rule="evenodd" d="M57.8622 74.7701C57.8615 74.9871 57.7751 75.195 57.6216 75.3484C57.4682 75.5019 57.2603 75.5884 57.0433 75.589H55.4057C55.1887 75.5883 54.9808 75.5019 54.8274 75.3484C54.674 75.195 54.5875 74.9871 54.5869 74.7701V69.8571C54.5876 69.6402 54.674 69.4323 54.8274 69.2789C54.9809 69.1255 55.1887 69.039 55.4057 69.0384H57.0433C57.2603 69.039 57.4682 69.1254 57.6216 69.2789C57.775 69.4323 57.8615 69.6402 57.8622 69.8571V74.7701Z" fill="#C3F1FF"/>
<path fill-rule="evenodd" clip-rule="evenodd" d="M64.4122 74.7701C64.4116 74.9871 64.3251 75.195 64.1717 75.3484C64.0183 75.5019 63.8104 75.5883 63.5934 75.589H61.9557C61.7388 75.5883 61.5309 75.5019 61.3775 75.3484C61.2241 75.195 61.1376 74.9871 61.137 74.7701V69.8571C61.1376 69.6402 61.2241 69.4323 61.3775 69.2789C61.5309 69.1255 61.7388 69.039 61.9557 69.0384H63.5934C63.8103 69.039 64.0182 69.1255 64.1717 69.2789C64.3251 69.4323 64.4116 69.6402 64.4122 69.8571V74.7701Z" fill="#C3F1FF"/>
<path fill-rule="evenodd" clip-rule="evenodd" d="M38.2099 74.7701C38.2093 74.9871 38.1228 75.195 37.9694 75.3484C37.8159 75.5019 37.608 75.5883 37.391 75.589H35.7534C35.5364 75.5883 35.3285 75.5019 35.1751 75.3484C35.0217 75.195 34.9352 74.9871 34.9346 74.7701V69.8571C34.9352 69.6402 35.0217 69.4323 35.1751 69.2789C35.3286 69.1255 35.5365 69.039 35.7534 69.0384H37.391C37.608 69.039 37.8159 69.1255 37.9693 69.2789C38.1228 69.4323 38.2093 69.6402 38.2099 69.8571V74.7701Z" fill="#C3F1FF"/>
<path fill-rule="evenodd" clip-rule="evenodd" d="M75.8761 43.6547C75.8754 43.8717 75.789 44.0796 75.6356 44.233C75.4822 44.3864 75.2743 44.4729 75.0573 44.4736H70.1443C69.9273 44.4729 69.7194 44.3865 69.566 44.233C69.4126 44.0796 69.3261 43.8717 69.3254 43.6547V42.0171C69.3261 41.8001 69.4126 41.5922 69.566 41.4388C69.7194 41.2854 69.9273 41.1989 70.1443 41.1983H75.0573C75.2742 41.199 75.4821 41.2854 75.6355 41.4388C75.789 41.5922 75.8754 41.8001 75.8761 42.0171V43.6547Z" fill="#C3F1FF"/>
<path fill-rule="evenodd" clip-rule="evenodd" d="M75.8761 50.2055C75.8754 50.4225 75.789 50.6304 75.6356 50.7838C75.4822 50.9372 75.2743 51.0237 75.0573 51.0244H70.1443C69.9273 51.0237 69.7194 50.9373 69.566 50.7838C69.4126 50.6304 69.3261 50.4225 69.3254 50.2055V48.5679C69.3261 48.3509 69.4126 48.143 69.566 47.9896C69.7194 47.8361 69.9273 47.7497 70.1443 47.749H75.0573C75.2743 47.7497 75.4822 47.8362 75.6356 47.9896C75.789 48.143 75.8754 48.3509 75.8761 48.5679V50.2055Z" fill="#C3F1FF"/>
<path fill-rule="evenodd" clip-rule="evenodd" d="M75.8761 56.756C75.8754 56.973 75.789 57.1809 75.6356 57.3343C75.4822 57.4877 75.2743 57.5742 75.0573 57.5748H70.1443C69.9273 57.5742 69.7194 57.4877 69.566 57.3343C69.4126 57.1809 69.3261 56.973 69.3254 56.756V55.1183C69.3261 54.9013 69.4126 54.6934 69.566 54.54C69.7194 54.3866 69.9273 54.3001 70.1443 54.2995H75.0573C75.2743 54.3001 75.4822 54.3866 75.6356 54.54C75.789 54.6935 75.8754 54.9014 75.8761 55.1183V56.756Z" fill="#C3F1FF"/>
<path fill-rule="evenodd" clip-rule="evenodd" d="M75.8761 63.3068C75.8754 63.5237 75.789 63.7316 75.6355 63.885C75.4821 64.0384 75.2742 64.1249 75.0573 64.1255H70.1443C69.9273 64.1249 69.7194 64.0384 69.566 63.885C69.4126 63.7316 69.3261 63.5237 69.3254 63.3068V61.6691C69.3261 61.4522 69.4126 61.2442 69.566 61.0908C69.7194 60.9374 69.9273 60.8509 70.1443 60.8503H75.0573C75.2743 60.8509 75.4822 60.9374 75.6356 61.0908C75.789 61.2443 75.8754 61.4522 75.8761 61.6691V63.3068Z" fill="#C3F1FF"/>
<path fill-rule="evenodd" clip-rule="evenodd" d="M75.8761 37.1044C75.8754 37.3213 75.789 37.5292 75.6355 37.6826C75.4821 37.836 75.2742 37.9225 75.0573 37.9231H70.1443C69.9273 37.9225 69.7194 37.836 69.566 37.6826C69.4126 37.5292 69.3261 37.3213 69.3254 37.1044V35.4667C69.3261 35.2497 69.4126 35.0418 69.566 34.8884C69.7194 34.735 69.9273 34.6485 70.1443 34.6479H75.0573C75.2742 34.6485 75.4821 34.735 75.6355 34.8884C75.789 35.0418 75.8754 35.2497 75.8761 35.4667V37.1044Z" fill="#C3F1FF"/>
<path fill-rule="evenodd" clip-rule="evenodd" d="M30.022 43.6547C30.0214 43.8717 29.9349 44.0796 29.7815 44.233C29.6281 44.3865 29.4201 44.4729 29.2032 44.4736H24.2903C24.0733 44.4729 23.8654 44.3865 23.712 44.233C23.5585 44.0796 23.4721 43.8717 23.4714 43.6547V42.0171C23.4721 41.8001 23.5586 41.5922 23.712 41.4388C23.8654 41.2854 24.0733 41.1989 24.2903 41.1983H29.2032C29.4201 41.1989 29.628 41.2854 29.7815 41.4388C29.9349 41.5922 30.0214 41.8001 30.022 42.0171V43.6547Z" fill="#C3F1FF"/>
<path fill-rule="evenodd" clip-rule="evenodd" d="M30.022 50.2055C30.0214 50.4225 29.9349 50.6304 29.7815 50.7838C29.6281 50.9373 29.4201 51.0237 29.2032 51.0244H24.2903C24.0733 51.0237 23.8654 50.9373 23.712 50.7838C23.5585 50.6304 23.4721 50.4225 23.4714 50.2055V48.5679C23.4721 48.3509 23.5585 48.143 23.712 47.9896C23.8654 47.8362 24.0733 47.7497 24.2903 47.749H29.2032C29.4201 47.7497 29.6281 47.8362 29.7815 47.9896C29.9349 48.143 30.0214 48.3509 30.022 48.5679V50.2055Z" fill="#C3F1FF"/>
<path fill-rule="evenodd" clip-rule="evenodd" d="M30.022 56.756C30.0214 56.973 29.9349 57.1809 29.7815 57.3343C29.6281 57.4877 29.4201 57.5742 29.2032 57.5748H24.2903C24.0733 57.5742 23.8654 57.4877 23.712 57.3343C23.5585 57.1809 23.4721 56.973 23.4714 56.756V55.1183C23.4721 54.9013 23.5585 54.6934 23.712 54.54C23.8654 54.3866 24.0733 54.3001 24.2903 54.2995H29.2032C29.4201 54.3001 29.6281 54.3866 29.7815 54.54C29.9349 54.6934 30.0214 54.9013 30.022 55.1183V56.756Z" fill="#C3F1FF"/>
<path fill-rule="evenodd" clip-rule="evenodd" d="M30.022 63.3068C30.0214 63.5237 29.9349 63.7316 29.7815 63.885C29.628 64.0384 29.4201 64.1249 29.2032 64.1255H24.2903C24.0733 64.1249 23.8654 64.0384 23.712 63.885C23.5586 63.7316 23.4721 63.5237 23.4714 63.3068V61.6691C23.4721 61.4522 23.5585 61.2442 23.712 61.0908C23.8654 60.9374 24.0733 60.8509 24.2903 60.8503H29.2032C29.4201 60.8509 29.6281 60.9374 29.7815 61.0908C29.9349 61.2442 30.0214 61.4522 30.022 61.6691V63.3068Z" fill="#C3F1FF"/>
<path fill-rule="evenodd" clip-rule="evenodd" d="M30.022 37.1044C30.0214 37.3213 29.9349 37.5292 29.7815 37.6826C29.628 37.836 29.4201 37.9225 29.2032 37.9231H24.2903C24.0733 37.9225 23.8654 37.836 23.712 37.6826C23.5586 37.5292 23.4721 37.3213 23.4714 37.1044V35.4667C23.4721 35.2497 23.5586 35.0418 23.712 34.8884C23.8654 34.735 24.0733 34.6485 24.2903 34.6479H29.2032C29.4201 34.6485 29.628 34.735 29.7815 34.8884C29.9349 35.0418 30.0214 35.2497 30.022 35.4667V37.1044Z" fill="#C3F1FF"/>
<path fill-rule="evenodd" clip-rule="evenodd" d="M70.9632 67.4008C70.9606 68.2687 70.6147 69.1003 70.001 69.714C69.3874 70.3277 68.5558 70.6736 67.6879 70.6761H31.6598C30.7919 70.6736 29.9603 70.3277 29.3467 69.714C28.733 69.1003 28.3871 68.2687 28.3845 67.4008V31.3727C28.3871 30.5048 28.733 29.6732 29.3466 29.0595C29.9603 28.4459 30.7919 28.1 31.6598 28.0974H67.6879C68.5558 28.1 69.3874 28.4459 70.0011 29.0595C70.6148 29.6732 70.9607 30.5048 70.9632 31.3727V67.4008Z" fill="#0078D4"/>
<path opacity="0.2" fill-rule="evenodd" clip-rule="evenodd" d="M67.6875 28.0974H56.6006L43.4995 70.6761H67.6875C68.5554 70.6735 69.387 70.3277 70.0006 69.714C70.6143 69.1003 70.9602 68.2687 70.9628 67.4008V31.3727C70.9602 30.5048 70.6143 29.6732 70.0006 29.0595C69.3869 28.4459 68.5553 28.1 67.6875 28.0974V28.0974Z" fill="#1F56A3"/>
<path fill-rule="evenodd" clip-rule="evenodd" d="M65.7044 65.4208C65.4756 65.6491 65.1842 65.8043 64.8672 65.867C64.5501 65.9298 64.2216 65.8971 63.9231 65.7732C63.6246 65.6493 63.3695 65.4398 63.19 65.171C63.0106 64.9022 62.9148 64.5862 62.9148 64.263C62.9148 63.9398 63.0106 63.6239 63.19 63.3551C63.3695 63.0863 63.6246 62.8767 63.9231 62.7529C64.2216 62.629 64.5501 62.5963 64.8672 62.659C65.1842 62.7217 65.4756 62.877 65.7044 63.1052C65.8575 63.2567 65.9791 63.437 66.062 63.6357C66.145 63.8345 66.1877 64.0477 66.1877 64.263C66.1877 64.4784 66.145 64.6916 66.062 64.8903C65.9791 65.0891 65.8575 65.2694 65.7044 65.4208V65.4208Z" fill="#9CEBFF"/>
<path fill-rule="evenodd" clip-rule="evenodd" d="M26.7468 64.1255H28.3845V60.8503H26.7468V64.1255Z" fill="#9CEBFF"/>
<path fill-rule="evenodd" clip-rule="evenodd" d="M26.7468 57.5748H28.3845V54.2995H26.7468V57.5748Z" fill="#9CEBFF"/>
<path fill-rule="evenodd" clip-rule="evenodd" d="M26.7468 51.0244H28.3845V47.749H26.7468V51.0244Z" fill="#9CEBFF"/>
<path fill-rule="evenodd" clip-rule="evenodd" d="M26.7468 44.4736H28.3845V41.1983H26.7468V44.4736Z" fill="#9CEBFF"/>
<path fill-rule="evenodd" clip-rule="evenodd" d="M26.7468 37.9231H28.3845V34.6479H26.7468V37.9231Z" fill="#9CEBFF"/>
<path fill-rule="evenodd" clip-rule="evenodd" d="M70.9631 64.1255H72.6008V60.8503H70.9631V64.1255Z" fill="#9CEBFF"/>
<path fill-rule="evenodd" clip-rule="evenodd" d="M70.9631 57.5748H72.6008V54.2995H70.9631V57.5748Z" fill="#9CEBFF"/>
<path fill-rule="evenodd" clip-rule="evenodd" d="M70.9631 51.0244H72.6008V47.749H70.9631V51.0244Z" fill="#9CEBFF"/>
<path fill-rule="evenodd" clip-rule="evenodd" d="M70.9631 44.4736H72.6008V41.1983H70.9631V44.4736Z" fill="#9CEBFF"/>
<path fill-rule="evenodd" clip-rule="evenodd" d="M70.9631 37.9231H72.6008V34.6479H70.9631V37.9231Z" fill="#9CEBFF"/>
<path fill-rule="evenodd" clip-rule="evenodd" d="M34.9346 28.0974H38.2099V26.4597H34.9346V28.0974Z" fill="#9CEBFF"/>
<path fill-rule="evenodd" clip-rule="evenodd" d="M41.4854 28.0974H44.7607V26.4597H41.4854V28.0974Z" fill="#9CEBFF"/>
<path fill-rule="evenodd" clip-rule="evenodd" d="M48.0361 28.0974H51.3114V26.4597H48.0361V28.0974Z" fill="#9CEBFF"/>
<path fill-rule="evenodd" clip-rule="evenodd" d="M54.5869 28.0974H57.8622V26.4597H54.5869V28.0974Z" fill="#9CEBFF"/>
<path fill-rule="evenodd" clip-rule="evenodd" d="M61.137 28.0974H64.4122V26.4597H61.137V28.0974Z" fill="#9CEBFF"/>
<path fill-rule="evenodd" clip-rule="evenodd" d="M34.9346 72.3137H38.2099V70.6761H34.9346V72.3137Z" fill="#9CEBFF"/>
<path fill-rule="evenodd" clip-rule="evenodd" d="M41.4854 72.3137H44.7607V70.6761H41.4854V72.3137Z" fill="#9CEBFF"/>
<path fill-rule="evenodd" clip-rule="evenodd" d="M48.0361 72.3137H51.3114V70.6761H48.0361V72.3137Z" fill="#9CEBFF"/>
<path fill-rule="evenodd" clip-rule="evenodd" d="M54.5869 72.3137H57.8622V70.6761H54.5869V72.3137Z" fill="#9CEBFF"/>
<path fill-rule="evenodd" clip-rule="evenodd" d="M61.137 72.3137H64.4122V70.6761H61.137V72.3137Z" fill="#9CEBFF"/>
<path fill-rule="evenodd" clip-rule="evenodd" d="M65.7048 65.4206C65.8584 65.2695 65.9804 65.0893 66.0637 64.8905C66.147 64.6917 66.1899 64.4783 66.1899 64.2628C66.1899 64.0473 66.147 63.8339 66.0637 63.6351C65.9804 63.4364 65.8584 63.2561 65.7048 63.105L63.3958 65.4206C63.5471 65.5727 63.727 65.6934 63.9251 65.7758C64.1232 65.8582 64.3357 65.9006 64.5503 65.9006C64.7648 65.9006 64.9773 65.8582 65.1754 65.7758C65.3735 65.6934 65.5534 65.5727 65.7048 65.4206Z" fill="#C3F1FF"/>
<path fill-rule="evenodd" clip-rule="evenodd" d="M36.4353 34.5101C36.4353 34.834 36.3392 35.1506 36.1593 35.42C35.9793 35.6893 35.7236 35.8992 35.4243 36.0231C35.1251 36.1471 34.7958 36.1795 34.4781 36.1164C34.1604 36.0532 33.8686 35.8972 33.6396 35.6682C33.4106 35.4391 33.2546 35.1473 33.1914 34.8297C33.1282 34.512 33.1606 34.1827 33.2846 33.8835C33.4085 33.5842 33.6184 33.3284 33.8877 33.1485C34.157 32.9685 34.4737 32.8725 34.7976 32.8725C35.0127 32.8721 35.2258 32.9143 35.4247 32.9964C35.6235 33.0786 35.8042 33.1992 35.9563 33.3514C36.1085 33.5035 36.2291 33.6842 36.3113 33.883C36.3934 34.0818 36.4356 34.2949 36.4353 34.5101Z" fill="#C3F1FF"/>
<path fill-rule="evenodd" clip-rule="evenodd" d="M35.9523 35.6678C36.1051 35.5162 36.2263 35.3358 36.3091 35.1371C36.3918 34.9384 36.4344 34.7252 36.4344 34.51C36.4344 34.2947 36.3918 34.0816 36.3091 33.8829C36.2263 33.6842 36.1051 33.5038 35.9523 33.3522L33.6433 35.6678C33.7946 35.8199 33.9745 35.9406 34.1727 36.023C34.3708 36.1054 34.5832 36.1478 34.7978 36.1478C35.0124 36.1478 35.2248 36.1054 35.423 36.023C35.6211 35.9406 35.801 35.8199 35.9523 35.6678V35.6678Z" fill="#9CEBFF"/>
<g opacity="0.2">
<path opacity="0.2" fill-rule="evenodd" clip-rule="evenodd" d="M63.1176 46.1421C63.1346 46.1264 63.1546 46.1142 63.1707 46.0979C63.5042 45.7622 63.691 45.308 63.6901 44.8348V40.3699C63.6882 40.2193 63.6672 40.0696 63.6277 39.9242C63.6222 39.9041 63.6155 39.885 63.6094 39.8651C63.5038 39.4973 63.2818 39.1737 62.9767 38.9428C62.6716 38.7119 62.2999 38.5862 61.9173 38.5844H37.0973C36.6254 38.5862 36.1735 38.7753 35.8411 39.1103C35.5086 39.4452 35.3228 39.8985 35.3245 40.3704V44.8352C35.3261 45.1494 35.4109 45.4575 35.5704 45.7282L35.5706 45.7285C35.7189 45.9865 35.9297 46.2032 36.1836 46.3586C36.2036 46.3709 36.2247 46.3806 36.2454 46.3922C36.3466 46.4485 36.4532 46.4945 36.5636 46.5297C36.5984 46.541 36.632 46.5531 36.6677 46.5623C36.8072 46.5994 36.9508 46.6191 37.0951 46.6209L37.0972 46.6212H37.0973C36.6254 46.623 36.1735 46.8121 35.841 47.1471C35.5086 47.482 35.3228 47.9353 35.3245 48.4072V52.8721C35.3261 53.1863 35.4109 53.4944 35.5703 53.7651V53.7651L35.5706 53.7654C35.719 54.0235 35.9299 54.2402 36.1839 54.3955C36.2036 54.4078 36.2245 54.4174 36.2449 54.4289C36.3463 54.4853 36.4531 54.5314 36.5637 54.5666C36.5984 54.5778 36.6319 54.5901 36.6677 54.5992C36.8072 54.6363 36.9507 54.656 37.0951 54.6578L37.0972 54.6581H61.9172C62.3644 54.6605 62.7951 54.4886 63.1177 54.1789C63.1346 54.1632 63.1546 54.151 63.1707 54.1347C63.5042 53.799 63.691 53.3448 63.6901 52.8716V48.4068C63.6882 48.2562 63.6672 48.1064 63.6278 47.9611C63.6223 47.9409 63.6156 47.9217 63.6094 47.9018C63.5038 47.5341 63.2818 47.2105 62.9767 46.9797C62.6716 46.7488 62.2999 46.623 61.9173 46.6213H61.9172C62.3644 46.6236 62.795 46.4518 63.1176 46.1421H63.1176Z" fill="#003067"/>
<path opacity="0.2" fill-rule="evenodd" clip-rule="evenodd" d="M63.6093 55.9388C63.5699 55.8036 63.5145 55.6736 63.4443 55.5515V55.5514C63.2911 55.2812 63.0691 55.0562 62.8009 54.8994C62.5328 54.7425 62.2279 54.6593 61.9172 54.6581L37.0973 54.6586C36.6254 54.6603 36.1735 54.8494 35.841 55.1844C35.5085 55.5193 35.3227 55.9726 35.3245 56.4445V60.9093C35.3246 61.2159 35.4039 61.5172 35.5546 61.7841C35.7052 62.0511 35.9222 62.2746 36.1846 62.4332C36.2036 62.4451 36.2239 62.4543 36.2434 62.4654C36.3458 62.5224 36.4537 62.569 36.5654 62.6044C36.5991 62.6153 36.6318 62.6271 36.6665 62.636C36.8071 62.6736 36.9518 62.6935 37.0973 62.6953H61.9172C62.3892 62.6934 62.8411 62.5041 63.1735 62.1691C63.506 61.8341 63.6918 61.3808 63.6901 60.9089V56.4441C63.6881 56.2935 63.6672 56.1438 63.6277 55.9985C63.6221 55.9781 63.6155 55.9588 63.6093 55.9388Z" fill="#003067"/>
</g>
<path d="M61.9173 45.6213H37.0973C36.6254 45.6231 36.1735 45.8122 35.841 46.1471C35.5086 46.4821 35.3228 46.9353 35.3245 47.4072V51.8721C35.3228 52.344 35.5086 52.7973 35.841 53.1322C36.1735 53.4671 36.6254 53.6563 37.0973 53.6581H61.9173C62.3892 53.6562 62.8411 53.4669 63.1736 53.1319C63.506 52.7969 63.6918 52.3436 63.6901 51.8716V47.4068C63.691 47.1731 63.6458 46.9416 63.5571 46.7254C63.4685 46.5092 63.3381 46.3126 63.1735 46.1468C63.0089 45.981 62.8132 45.8493 62.5976 45.7591C62.3821 45.6689 62.1509 45.6221 61.9173 45.6213V45.6213Z" fill="url(#paint1_linear_967_1076)"/>
<path fill-rule="evenodd" clip-rule="evenodd" d="M41.7895 50.2483C41.6233 50.0802 41.53 49.8534 41.53 49.617C41.53 49.3806 41.6233 49.1537 41.7895 48.9856C41.8715 48.9028 41.9691 48.8371 42.0767 48.7922C42.1842 48.7474 42.2996 48.7243 42.4162 48.7243C42.5327 48.7243 42.6481 48.7474 42.7557 48.7922C42.8633 48.8371 42.9609 48.9028 43.0429 48.9856C43.2092 49.1537 43.3025 49.3805 43.3025 49.617C43.3025 49.8534 43.2092 50.0803 43.0429 50.2483C42.9609 50.3312 42.8633 50.3969 42.7557 50.4418C42.6482 50.4867 42.5328 50.5098 42.4162 50.5098C42.2996 50.5098 42.1842 50.4867 42.0766 50.4418C41.9691 50.3969 41.8715 50.3312 41.7895 50.2483V50.2483Z" fill="#0078D4"/>
<path fill-rule="evenodd" clip-rule="evenodd" d="M39.1333 50.2564C38.9672 50.0883 38.874 49.8614 38.874 49.6251C38.874 49.3887 38.9672 49.1619 39.1333 48.9937C39.2154 48.9109 39.313 48.8452 39.4206 48.8003C39.5282 48.7554 39.6436 48.7323 39.7602 48.7323C39.8768 48.7323 39.9922 48.7554 40.0998 48.8003C40.2075 48.8452 40.3051 48.9109 40.3872 48.9937C40.5533 49.1619 40.6464 49.3887 40.6464 49.6251C40.6464 49.8614 40.5533 50.0883 40.3872 50.2564C40.3051 50.3393 40.2075 50.405 40.0999 50.4499C39.9923 50.4948 39.8768 50.5179 39.7602 50.5179C39.6436 50.5179 39.5282 50.4948 39.4206 50.4499C39.313 50.405 39.2153 50.3393 39.1333 50.2564V50.2564Z" fill="#0078D4"/>
<path fill-rule="evenodd" clip-rule="evenodd" d="M49.5072 47.4073V51.8722C49.5076 51.989 49.485 52.1048 49.4407 52.2129C49.3964 52.321 49.3313 52.4194 49.2489 52.5023C49.1666 52.5852 49.0688 52.6511 48.961 52.6962C48.8532 52.7413 48.7376 52.7647 48.6207 52.7651H35.5703C35.7236 53.0353 35.9455 53.2602 36.2136 53.417C36.4818 53.5738 36.7866 53.657 37.0972 53.6581H61.9171C62.3891 53.6562 62.841 53.467 63.1735 53.132C63.5059 52.797 63.6917 52.3437 63.69 51.8717V47.4068C63.6884 47.0929 63.6036 46.7849 63.4444 46.5144H50.3936C50.2767 46.5147 50.1611 46.5382 50.0533 46.5833C49.9455 46.6284 49.8477 46.6942 49.7653 46.7772C49.683 46.8601 49.6179 46.9584 49.5736 47.0665C49.5293 47.1747 49.5067 47.2905 49.5072 47.4073V47.4073Z" fill="url(#paint2_linear_967_1076)"/>
<path d="M61.9173 37.5845H37.0973C36.6254 37.5862 36.1735 37.7754 35.841 38.1103C35.5086 38.4452 35.3228 38.8985 35.3245 39.3704V43.8353C35.3228 44.3072 35.5086 44.7605 35.8411 45.0954C36.1735 45.4303 36.6254 45.6195 37.0973 45.6212H61.9173C62.3892 45.6194 62.8411 45.4301 63.1736 45.0951C63.5061 44.7601 63.6918 44.3068 63.6901 43.8348V39.37C63.691 39.1363 63.6458 38.9048 63.5571 38.6886C63.4685 38.4724 63.3381 38.2758 63.1735 38.11C63.0089 37.9442 62.8132 37.8125 62.5977 37.7223C62.3821 37.6321 62.1509 37.5853 61.9173 37.5845V37.5845Z" fill="url(#paint3_linear_967_1076)"/>
<path fill-rule="evenodd" clip-rule="evenodd" d="M41.7895 42.2115C41.6233 42.0434 41.53 41.8165 41.53 41.5801C41.53 41.3438 41.6233 41.1169 41.7895 40.9488C41.8715 40.866 41.9691 40.8003 42.0767 40.7554C42.1842 40.7105 42.2996 40.6874 42.4162 40.6874C42.5327 40.6874 42.6481 40.7105 42.7557 40.7554C42.8633 40.8003 42.9609 40.866 43.0429 40.9488C43.2092 41.1168 43.3025 41.3437 43.3025 41.5801C43.3025 41.8166 43.2092 42.0434 43.0429 42.2115C42.9609 42.2943 42.8633 42.3601 42.7557 42.405C42.6482 42.4499 42.5328 42.473 42.4162 42.473C42.2996 42.473 42.1842 42.4499 42.0766 42.405C41.9691 42.3601 41.8715 42.2943 41.7895 42.2115V42.2115Z" fill="#0078D4"/>
<path fill-rule="evenodd" clip-rule="evenodd" d="M39.1333 42.2195C38.9672 42.0514 38.874 41.8246 38.874 41.5882C38.874 41.3518 38.9672 41.125 39.1333 40.9569C39.2154 40.8741 39.313 40.8083 39.4206 40.7635C39.5282 40.7186 39.6436 40.6955 39.7602 40.6955C39.8768 40.6955 39.9922 40.7186 40.0998 40.7635C40.2075 40.8083 40.3051 40.8741 40.3872 40.9569C40.5533 41.125 40.6464 41.3518 40.6464 41.5882C40.6464 41.8246 40.5533 42.0514 40.3872 42.2195C40.3051 42.3024 40.2075 42.3682 40.0999 42.4131C39.9923 42.4579 39.8768 42.4811 39.7602 42.4811C39.6436 42.4811 39.5282 42.4579 39.4206 42.4131C39.313 42.3682 39.2153 42.3024 39.1333 42.2195V42.2195Z" fill="#0078D4"/>
<path fill-rule="evenodd" clip-rule="evenodd" d="M49.5072 39.3705V43.8353C49.5076 43.9522 49.485 44.068 49.4407 44.1761C49.3964 44.2842 49.3313 44.3825 49.2489 44.4655C49.1666 44.5484 49.0688 44.6143 48.961 44.6594C48.8532 44.7045 48.7375 44.7279 48.6207 44.7283H35.5703C35.7236 44.9985 35.9455 45.2234 36.2136 45.3802C36.4817 45.537 36.7866 45.6202 37.0972 45.6213H61.9171C62.3891 45.6194 62.841 45.4302 63.1735 45.0952C63.5059 44.7602 63.6917 44.3068 63.69 43.8349V39.37C63.6884 39.056 63.6036 38.7481 63.4444 38.4775H50.3936C50.2767 38.4779 50.1611 38.5013 50.0533 38.5464C49.9455 38.5915 49.8476 38.6574 49.7653 38.7403C49.683 38.8232 49.6178 38.9216 49.5735 39.0297C49.5292 39.1378 49.5067 39.2536 49.5072 39.3705V39.3705Z" fill="url(#paint4_linear_967_1076)"/>
<path fill-rule="evenodd" clip-rule="evenodd" d="M60.1448 48.7468H54.8263C54.5906 48.7486 54.3652 48.8434 54.1991 49.0107C54.0331 49.178 53.9399 49.4041 53.9399 49.6398C53.9399 49.8755 54.0331 50.1016 54.1991 50.2689C54.3652 50.4361 54.5906 50.531 54.8263 50.5328H60.1448C60.3805 50.531 60.6059 50.4361 60.7719 50.2689C60.938 50.1016 61.0311 49.8755 61.0311 49.6398C61.0311 49.4041 60.938 49.178 60.7719 49.0107C60.6059 48.8434 60.3805 48.7486 60.1448 48.7468V48.7468Z" fill="#9CEBFF"/>
<path fill-rule="evenodd" clip-rule="evenodd" d="M60.1447 40.71H54.8261C54.5905 40.7119 54.3653 40.8069 54.1994 40.9741C54.0335 41.1414 53.9404 41.3674 53.9404 41.603C53.9404 41.8385 54.0335 42.0646 54.1994 42.2318C54.3653 42.3991 54.5905 42.494 54.8261 42.4959H60.1447C60.3802 42.494 60.6055 42.3991 60.7714 42.2318C60.9373 42.0646 61.0303 41.8385 61.0303 41.603C61.0303 41.3674 60.9373 41.1414 60.7714 40.9741C60.6055 40.8069 60.3802 40.7119 60.1447 40.71V40.71Z" fill="#9CEBFF"/>
<path fill-rule="evenodd" clip-rule="evenodd" d="M42.7131 49.9165C42.5762 50.0541 42.3975 50.1426 42.205 50.1681C42.0125 50.1936 41.817 50.1548 41.6489 50.0575C41.7143 50.1779 41.8071 50.2811 41.9197 50.3589C42.0324 50.4368 42.1618 50.487 42.2974 50.5056C42.4331 50.5241 42.5712 50.5105 42.7006 50.4658C42.8301 50.4211 42.9471 50.3465 43.0424 50.2482C43.2087 50.0802 43.302 49.8533 43.302 49.6169C43.302 49.3804 43.2087 49.1536 43.0424 48.9855C42.986 48.9301 42.9224 48.8826 42.8532 48.8444C42.9497 49.014 42.9883 49.2105 42.963 49.4039C42.9378 49.5974 42.85 49.7774 42.7131 49.9165V49.9165Z" fill="#003067"/>
<path fill-rule="evenodd" clip-rule="evenodd" d="M40.0573 49.9247C39.9204 50.0624 39.7418 50.151 39.5493 50.1765C39.3568 50.2021 39.1612 50.1631 38.9932 50.0658C39.0586 50.1861 39.1513 50.2894 39.264 50.3672C39.3767 50.4451 39.5062 50.4953 39.6419 50.5139C39.7776 50.5324 39.9157 50.5188 40.0452 50.4741C40.1747 50.4293 40.2918 50.3548 40.3871 50.2564C40.4855 50.1602 40.5601 50.0423 40.6049 49.9122C40.6496 49.782 40.6634 49.6432 40.6449 49.5069C40.6265 49.3705 40.5764 49.2403 40.4987 49.1267C40.421 49.0131 40.3178 48.9192 40.1974 48.8526C40.2942 49.0221 40.3329 49.2187 40.3076 49.4122C40.2823 49.6057 40.1944 49.7857 40.0573 49.9247V49.9247Z" fill="#003067"/>
<path fill-rule="evenodd" clip-rule="evenodd" d="M42.7131 41.8796C42.5762 42.0173 42.3975 42.1058 42.205 42.1313C42.0125 42.1568 41.817 42.1179 41.6489 42.0207C41.7143 42.141 41.807 42.2443 41.9197 42.3221C42.0324 42.3999 42.1618 42.4502 42.2974 42.4687C42.4331 42.4873 42.5712 42.4737 42.7006 42.429C42.8301 42.3842 42.9471 42.3097 43.0424 42.2114C43.2087 42.0433 43.302 41.8164 43.302 41.58C43.302 41.3436 43.2087 41.1167 43.0424 40.9487C42.9861 40.8933 42.9224 40.8458 42.8532 40.8076C42.9497 40.9772 42.9883 41.1736 42.963 41.3671C42.9377 41.5606 42.85 41.7406 42.7131 41.8796Z" fill="#003067"/>
<path fill-rule="evenodd" clip-rule="evenodd" d="M40.0573 41.8878C39.9204 42.0256 39.7418 42.1141 39.5493 42.1397C39.3568 42.1652 39.1612 42.1262 38.9932 42.0289C39.0586 42.1492 39.1513 42.2525 39.264 42.3304C39.3767 42.4082 39.5062 42.4585 39.6419 42.477C39.7776 42.4956 39.9157 42.4819 40.0452 42.4372C40.1747 42.3925 40.2918 42.3179 40.3871 42.2195C40.4855 42.1234 40.5601 42.0055 40.6049 41.8753C40.6496 41.7452 40.6633 41.6064 40.6449 41.47C40.6265 41.3336 40.5764 41.2034 40.4987 41.0898C40.421 40.9762 40.3178 40.8824 40.1974 40.8158C40.2942 40.9853 40.3329 41.1818 40.3076 41.3753C40.2823 41.5689 40.1944 41.7488 40.0573 41.8878V41.8878Z" fill="#003067"/>
<path d="M61.9173 53.6581L37.0973 53.6586C36.6254 53.6603 36.1735 53.8495 35.841 54.1844C35.5086 54.5193 35.3228 54.9726 35.3245 55.4446V59.9094C35.3228 60.3813 35.5086 60.8346 35.841 61.1695C36.1735 61.5045 36.6254 61.6936 37.0973 61.6954H61.9173C62.3892 61.6935 62.8411 61.5043 63.1736 61.1693C63.506 60.8343 63.6918 60.3809 63.6901 59.909V55.4441C63.6918 54.9721 63.506 54.5189 63.1735 54.1839C62.8411 53.849 62.3892 53.6599 61.9173 53.6581V53.6581Z" fill="url(#paint5_linear_967_1076)"/>
<path fill-rule="evenodd" clip-rule="evenodd" d="M41.7895 58.2854C41.6233 58.1173 41.53 57.8905 41.53 57.6541C41.53 57.4177 41.6233 57.1908 41.7895 57.0227C41.8715 56.9399 41.9691 56.8742 42.0767 56.8293C42.1842 56.7845 42.2996 56.7614 42.4162 56.7614C42.5327 56.7614 42.6481 56.7845 42.7557 56.8293C42.8633 56.8742 42.9609 56.9399 43.0429 57.0227C43.2092 57.1908 43.3025 57.4177 43.3025 57.6541C43.3025 57.8905 43.2092 58.1174 43.0429 58.2854C42.9609 58.3683 42.8633 58.434 42.7557 58.4789C42.6482 58.5238 42.5328 58.5469 42.4162 58.5469C42.2996 58.5469 42.1842 58.5238 42.0766 58.4789C41.9691 58.434 41.8715 58.3683 41.7895 58.2854V58.2854Z" fill="#0078D4"/>
<path fill-rule="evenodd" clip-rule="evenodd" d="M39.1333 58.2935C38.9672 58.1254 38.874 57.8985 38.874 57.6622C38.874 57.4258 38.9672 57.199 39.1333 57.0308C39.2154 56.948 39.313 56.8823 39.4206 56.8374C39.5282 56.7926 39.6436 56.7695 39.7602 56.7695C39.8768 56.7695 39.9922 56.7926 40.0998 56.8374C40.2074 56.8823 40.3051 56.948 40.3872 57.0308C40.5533 57.199 40.6464 57.4258 40.6464 57.6622C40.6464 57.8985 40.5533 58.1254 40.3872 58.2935C40.3051 58.3764 40.2075 58.4421 40.0999 58.487C39.9923 58.5319 39.8768 58.555 39.7602 58.555C39.6436 58.555 39.5282 58.5319 39.4206 58.487C39.313 58.4421 39.2153 58.3764 39.1333 58.2935Z" fill="#0078D4"/>
<path fill-rule="evenodd" clip-rule="evenodd" d="M49.5072 55.4444V59.9093C49.5076 60.0261 49.4851 60.1419 49.4407 60.25C49.3964 60.3582 49.3313 60.4565 49.2489 60.5394C49.1666 60.6224 49.0688 60.6883 48.961 60.7333C48.8532 60.7784 48.7376 60.8019 48.6207 60.8023H35.5703C35.7236 61.0725 35.9455 61.2974 36.2136 61.4542C36.4817 61.611 36.7866 61.6942 37.0972 61.6953H61.9171C62.3891 61.6934 62.841 61.5042 63.1734 61.1692C63.5059 60.8342 63.6917 60.3809 63.69 59.9089V55.444C63.6884 55.13 63.6036 54.8221 63.4444 54.5515H50.3936C50.2767 54.5519 50.1611 54.5753 50.0533 54.6204C49.9455 54.6655 49.8477 54.7314 49.7654 54.8143C49.683 54.8972 49.6179 54.9956 49.5736 55.1037C49.5293 55.2118 49.5067 55.3276 49.5072 55.4444V55.4444Z" fill="url(#paint6_linear_967_1076)"/>
<path fill-rule="evenodd" clip-rule="evenodd" d="M60.1448 56.7839H54.8263C54.5906 56.7857 54.3652 56.8805 54.1991 57.0478C54.0331 57.2151 53.9399 57.4412 53.9399 57.6769C53.9399 57.9126 54.0331 58.1387 54.1991 58.306C54.3652 58.4732 54.5906 58.5681 54.8263 58.5699H60.1448C60.3805 58.5681 60.6059 58.4732 60.7719 58.306C60.938 58.1387 61.0311 57.9126 61.0311 57.6769C61.0311 57.4412 60.938 57.2151 60.7719 57.0478C60.6059 56.8805 60.3805 56.7857 60.1448 56.7839V56.7839Z" fill="#9CEBFF"/>
<path fill-rule="evenodd" clip-rule="evenodd" d="M42.7131 57.9536C42.5762 58.0913 42.3976 58.1799 42.205 58.2054C42.0125 58.2309 41.817 58.192 41.6489 58.0947C41.7143 58.215 41.8071 58.3182 41.9197 58.396C42.0324 58.4739 42.1618 58.5241 42.2974 58.5427C42.4331 58.5612 42.5712 58.5476 42.7006 58.5029C42.8301 58.4582 42.9471 58.3836 43.0424 58.2853C43.2087 58.1173 43.302 57.8904 43.302 57.654C43.302 57.4175 43.2087 57.1907 43.0424 57.0226C42.9859 56.9673 42.9223 56.9199 42.8532 56.8815C42.9497 57.0511 42.9883 57.2476 42.963 57.4411C42.9377 57.6345 42.85 57.8145 42.7131 57.9536Z" fill="#003067"/>
<path fill-rule="evenodd" clip-rule="evenodd" d="M40.0573 57.9618C39.9204 58.0995 39.7418 58.1881 39.5493 58.2136C39.3568 58.2392 39.1612 58.2002 38.9932 58.1029C39.0586 58.2232 39.1513 58.3265 39.264 58.4043C39.3767 58.4822 39.5062 58.5324 39.6419 58.551C39.7776 58.5695 39.9157 58.5559 40.0452 58.5112C40.1747 58.4664 40.2918 58.3919 40.3871 58.2935C40.4855 58.1973 40.5601 58.0794 40.6049 57.9493C40.6496 57.8192 40.6634 57.6803 40.6449 57.544C40.6265 57.4076 40.5764 57.2774 40.4987 57.1638C40.421 57.0502 40.3178 56.9563 40.1974 56.8897C40.2942 57.0592 40.3329 57.2558 40.3076 57.4493C40.2823 57.6429 40.1944 57.8228 40.0573 57.9618Z" fill="#003067"/>
<path fill-rule="evenodd" clip-rule="evenodd" d="M54.8262 57.2304H60.1448C60.3414 57.2313 60.5321 57.2976 60.6869 57.4189C60.8417 57.5401 60.9518 57.7094 60.9998 57.9001C61.0359 57.7688 61.0411 57.6309 61.015 57.4973C60.9889 57.3636 60.9323 57.2378 60.8494 57.1297C60.7666 57.0216 60.6599 56.9341 60.5377 56.8741C60.4154 56.8141 60.2809 56.7833 60.1448 56.7839H54.8262C54.69 56.7833 54.5556 56.8142 54.4333 56.8742C54.3111 56.9342 54.2044 57.0217 54.1216 57.1298C54.0388 57.2379 53.9821 57.3637 53.9561 57.4973C53.93 57.631 53.9351 57.7688 53.9712 57.9001C54.0192 57.7094 54.1292 57.5401 54.284 57.4189C54.4388 57.2976 54.6296 57.2313 54.8262 57.2304V57.2304Z" fill="#50E6FF"/>
<path fill-rule="evenodd" clip-rule="evenodd" d="M54.8262 49.1933H60.1448C60.3414 49.1942 60.5321 49.2605 60.6869 49.3818C60.8417 49.503 60.9518 49.6723 60.9998 49.863C61.0359 49.7317 61.0411 49.5938 61.015 49.4602C60.9889 49.3265 60.9323 49.2007 60.8494 49.0926C60.7666 48.9845 60.6599 48.897 60.5377 48.837C60.4154 48.777 60.2809 48.7462 60.1448 48.7468H54.8262C54.69 48.7462 54.5556 48.7771 54.4333 48.8371C54.3111 48.8971 54.2044 48.9846 54.1216 49.0927C54.0388 49.2008 53.9821 49.3266 53.9561 49.4602C53.93 49.5939 53.9351 49.7317 53.9712 49.863C54.0192 49.6723 54.1292 49.503 54.284 49.3818C54.4388 49.2605 54.6296 49.1942 54.8262 49.1933V49.1933Z" fill="#50E6FF"/>
<path fill-rule="evenodd" clip-rule="evenodd" d="M54.8262 41.1565H60.1448C60.3414 41.1574 60.5321 41.2237 60.6869 41.3449C60.8417 41.4662 60.9518 41.6355 60.9998 41.8262C61.0359 41.6949 61.0411 41.557 61.015 41.4233C60.9889 41.2897 60.9323 41.1639 60.8494 41.0558C60.7666 40.9477 60.6599 40.8602 60.5377 40.8002C60.4154 40.7402 60.2809 40.7093 60.1448 40.71H54.8262C54.69 40.7094 54.5556 40.7403 54.4333 40.8003C54.3111 40.8603 54.2044 40.9477 54.1216 41.0558C54.0388 41.1639 53.9821 41.2897 53.9561 41.4234C53.93 41.557 53.9351 41.6949 53.9712 41.8262C54.0192 41.6355 54.1292 41.4662 54.284 41.3449C54.4388 41.2237 54.6296 41.1574 54.8262 41.1565V41.1565Z" fill="#50E6FF"/>
<path opacity="0.2" d="M56.6008 28.0974H42.4163L37.8892 35.5732C37.5651 36.1276 37.3931 36.7577 37.3904 37.3999C37.3878 38.0421 37.5546 38.6736 37.8741 39.2306C38.1936 39.7877 38.6544 40.2506 39.2101 40.5726C39.7657 40.8946 40.3964 41.0642 41.0386 41.0644H58.2408C58.8831 41.0645 59.5141 40.8949 60.0699 40.5729C60.6257 40.2508 61.0866 39.7877 61.406 39.2304C61.7254 38.6731 61.8919 38.0413 61.8888 37.3989C61.8857 36.7566 61.713 36.1265 61.3882 35.5723L56.6008 28.0974Z" fill="#003067"/>
<path d="M39.6162 36.5829L48.2173 21.8999C48.3627 21.6518 48.5704 21.446 48.8199 21.303C49.0694 21.16 49.352 21.0847 49.6395 21.0847C49.9271 21.0847 50.2097 21.16 50.4592 21.303C50.7087 21.446 50.9164 21.6518 51.0618 21.8999L59.663 36.5829C59.8096 36.8334 59.8876 37.1181 59.889 37.4083C59.8904 37.6985 59.8151 37.9839 59.6708 38.2357C59.5265 38.4875 59.3182 38.6967 59.0671 38.8422C58.816 38.9877 58.531 39.0643 58.2407 39.0643H41.0384C40.7482 39.0643 40.4631 38.9877 40.212 38.8422C39.9609 38.6967 39.7527 38.4875 39.6084 38.2357C39.4641 37.9839 39.3888 37.6985 39.3902 37.4083C39.3915 37.1181 39.4695 36.8334 39.6162 36.5829V36.5829Z" fill="#FF9300"/>
<path d="M41.0386 37.9655C40.9419 37.9655 40.8469 37.94 40.7631 37.8916C40.6794 37.8431 40.61 37.7734 40.5618 37.6895C40.5137 37.6056 40.4886 37.5105 40.489 37.4137C40.4895 37.317 40.5154 37.2221 40.5643 37.1386L49.1651 22.4552C49.2136 22.3725 49.2829 22.3039 49.3662 22.2562C49.4494 22.2085 49.5436 22.1835 49.6395 22.1835C49.7354 22.1835 49.8297 22.2086 49.9129 22.2564C49.9961 22.3041 50.0653 22.3727 50.1138 22.4555L58.7146 37.1384C58.7635 37.2218 58.7895 37.3167 58.7899 37.4134C58.7904 37.5101 58.7654 37.6052 58.7173 37.6891C58.6692 37.7731 58.5998 37.8428 58.5162 37.8913C58.4325 37.9398 58.3375 37.9654 58.2408 37.9655H41.0386Z" fill="#FFCA00"/>
<path d="M49.6394 33.1214C49.4937 33.1214 49.3539 33.0636 49.2508 32.9606C49.1476 32.8576 49.0897 32.7178 49.0896 32.5721V27.3089C49.0902 27.1635 49.1484 27.0242 49.2515 26.9216C49.3545 26.819 49.494 26.7614 49.6394 26.7614C49.7848 26.7614 49.9243 26.819 50.0274 26.9216C50.1304 27.0242 50.1886 27.1635 50.1892 27.3089V32.5721C50.1891 32.7178 50.1312 32.8576 50.0281 32.9606C49.925 33.0636 49.7852 33.1214 49.6394 33.1214V33.1214Z" fill="#FF9300"/>
<path d="M49.6394 35.9021C50.0418 35.9021 50.368 35.5759 50.368 35.1735C50.368 34.7712 50.0418 34.445 49.6394 34.445C49.2371 34.445 48.9109 34.7712 48.9109 35.1735C48.9109 35.5759 49.2371 35.9021 49.6394 35.9021Z" fill="#FF9300"/>
</g>
<defs>
<linearGradient id="paint0_linear_967_1076" x1="47.8697" y1="-15.1531" x2="51.8525" y2="130.615" gradientUnits="userSpaceOnUse">
<stop stop-color="#00ABDE"/>
<stop offset="1" stop-color="#007ED8"/>
</linearGradient>
<linearGradient id="paint1_linear_967_1076" x1="49.5073" y1="45.6213" x2="49.5073" y2="53.6725" gradientUnits="userSpaceOnUse">
<stop stop-color="#005BA1"/>
<stop offset="0.26" stop-color="#00589D"/>
<stop offset="0.53" stop-color="#004F90"/>
<stop offset="0.8" stop-color="#003F7C"/>
<stop offset="1" stop-color="#003067"/>
</linearGradient>
<linearGradient id="paint2_linear_967_1076" x1="49.6301" y1="46.5144" x2="49.6301" y2="53.6581" gradientUnits="userSpaceOnUse">
<stop stop-color="#008BF1"/>
<stop offset="0.22" stop-color="#0086EC"/>
<stop offset="0.49" stop-color="#0078DD"/>
<stop offset="0.79" stop-color="#0061C4"/>
<stop offset="1" stop-color="#004DAE"/>
</linearGradient>
<linearGradient id="paint3_linear_967_1076" x1="49.5073" y1="37.5845" x2="49.5073" y2="45.6356" gradientUnits="userSpaceOnUse">
<stop stop-color="#005BA1"/>
<stop offset="0.26" stop-color="#00589D"/>
<stop offset="0.53" stop-color="#004F90"/>
<stop offset="0.8" stop-color="#003F7C"/>
<stop offset="1" stop-color="#003067"/>
</linearGradient>
<linearGradient id="paint4_linear_967_1076" x1="49.6301" y1="38.4775" x2="49.6301" y2="45.6213" gradientUnits="userSpaceOnUse">
<stop stop-color="#008BF1"/>
<stop offset="0.22" stop-color="#0086EC"/>
<stop offset="0.49" stop-color="#0078DD"/>
<stop offset="0.79" stop-color="#0061C4"/>
<stop offset="1" stop-color="#004DAE"/>
</linearGradient>
<linearGradient id="paint5_linear_967_1076" x1="49.5073" y1="53.6581" x2="49.5073" y2="61.7097" gradientUnits="userSpaceOnUse">
<stop stop-color="#005BA1"/>
<stop offset="0.26" stop-color="#00589D"/>
<stop offset="0.53" stop-color="#004F90"/>
<stop offset="0.8" stop-color="#003F7C"/>
<stop offset="1" stop-color="#003067"/>
</linearGradient>
<linearGradient id="paint6_linear_967_1076" x1="49.6301" y1="54.5514" x2="49.6301" y2="61.6952" gradientUnits="userSpaceOnUse">
<stop stop-color="#008BF1"/>
<stop offset="0.22" stop-color="#0086EC"/>
<stop offset="0.49" stop-color="#0078DD"/>
<stop offset="0.79" stop-color="#0061C4"/>
<stop offset="1" stop-color="#004DAE"/>
</linearGradient>
<clipPath id="clip0_967_1076">
<rect width="99.2799" height="99.28" fill="white"/>
</clipPath>
</defs>
</svg>
