<?xml version="1.0" encoding="UTF-8"?>
<svg width="102px" height="102px" viewBox="0 0 102 102" version="1.1" xmlns="http://www.w3.org/2000/svg" xmlns:xlink="http://www.w3.org/1999/xlink">
    <title>Learn how Microsoft safeguards customer data/understand-microsoft-365-subprocessor-management</title>
    <defs>
        <rect id="path-1" x="0" y="0" width="94.3396226" height="94.3396226" rx="47.1698113"></rect>
        <filter x="-2.9%" y="-2.9%" width="106.4%" height="106.4%" filterUnits="objectBoundingBox" id="filter-3">
            <feMorphology radius="2.5" operator="dilate" in="SourceAlpha" result="shadowSpreadOuter1"></feMorphology>
            <feOffset dx="0.5" dy="0.5" in="shadowSpreadOuter1" result="shadowOffsetOuter1"></feOffset>
            <feMorphology radius="1" operator="erode" in="SourceAlpha" result="shadowInner"></feMorphology>
            <feOffset dx="0.5" dy="0.5" in="shadowInner" result="shadowInner"></feOffset>
            <feComposite in="shadowOffsetOuter1" in2="shadowInner" operator="out" result="shadowOffsetOuter1"></feComposite>
            <feColorMatrix values="0 0 0 0 0.821822822   0 0 0 0 0.831640661   0 0 0 0 0.835737288  0 0 0 1 0" type="matrix" in="shadowOffsetOuter1"></feColorMatrix>
        </filter>
        <linearGradient x1="77.8299825%" y1="11.1997378%" x2="-99.6885927%" y2="253.807911%" id="linearGradient-4">
            <stop stop-color="#FFFFFF" offset="0%"></stop>
            <stop stop-color="#000000" stop-opacity="0.5" offset="100%"></stop>
        </linearGradient>
        <rect id="path-5" x="0" y="0" width="94.3396226" height="94.3396226"></rect>
        <path d="M48.1132075,0.739331515 C74.2770768,0.739331515 95.4870836,21.9493383 95.4870836,48.1132075 C95.4870836,74.2770768 74.2770768,95.4870836 48.1132075,95.4870836 C21.9493383,95.4870836 0.739331515,74.2770768 0.739331515,48.1132075 C0.739331515,21.9493383 21.9493383,0.739331515 48.1132075,0.739331515 Z M48.1132075,4.71698113 C24.1461335,4.71698113 4.71698113,24.1461335 4.71698113,48.1132075 C4.71698113,72.0802816 24.1461335,91.509434 48.1132075,91.509434 C72.0802816,91.509434 91.509434,72.0802816 91.509434,48.1132075 C91.509434,24.1461335 72.0802816,4.71698113 48.1132075,4.71698113 Z" id="path-6"></path>
        <linearGradient x1="50%" y1="100%" x2="50%" y2="0%" id="linearGradient-8">
            <stop stop-color="#D2EBFF" offset="0%"></stop>
            <stop stop-color="#F0FFFD" offset="100%"></stop>
        </linearGradient>
        <filter x="-30.0%" y="-23.0%" width="160.0%" height="147.4%" filterUnits="objectBoundingBox" id="filter-9">
            <feOffset dx="0" dy="2" in="SourceAlpha" result="shadowOffsetOuter1"></feOffset>
            <feGaussianBlur stdDeviation="2" in="shadowOffsetOuter1" result="shadowBlurOuter1"></feGaussianBlur>
            <feColorMatrix values="0 0 0 0 0   0 0 0 0 0   0 0 0 0 0  0 0 0 0.1 0" type="matrix" in="shadowBlurOuter1" result="shadowMatrixOuter1"></feColorMatrix>
            <feMerge>
                <feMergeNode in="shadowMatrixOuter1"></feMergeNode>
                <feMergeNode in="SourceGraphic"></feMergeNode>
            </feMerge>
        </filter>
        <linearGradient x1="-1.00359143e-14%" y1="50%" x2="100%" y2="50%" id="linearGradient-10">
            <stop stop-color="#32BEDD" offset="0%"></stop>
            <stop stop-color="#37C5E3" offset="6%"></stop>
            <stop stop-color="#49DDF7" offset="30%"></stop>
            <stop stop-color="#50E6FF" offset="45%"></stop>
            <stop stop-color="#50E6FF" offset="55%"></stop>
            <stop stop-color="#49DDF7" offset="70%"></stop>
            <stop stop-color="#37C5E3" offset="94%"></stop>
            <stop stop-color="#32BEDD" offset="100%"></stop>
        </linearGradient>
        <linearGradient x1="50%" y1="97.5691716%" x2="50%" y2="-5.30956676%" id="linearGradient-11">
            <stop stop-color="#0B5088" offset="2.02438767%"></stop>
            <stop stop-color="#2997F1" offset="100%"></stop>
        </linearGradient>
    </defs>
    <g id="Badges" stroke="none" stroke-width="1" fill="none" fill-rule="evenodd">
        <g id="Learn-how-Microsoft-safeguards-customer-data-2-" transform="translate(-159.000000, -319.000000)">
            <g id="Learn-how-Microsoft-safeguards-customer-data/understand-microsoft-365-subprocessor-management" transform="translate(160.000000, 320.000000)">
                <g id="Badge-Plates/Circle">
                    <g id="BG" transform="translate(2.830189, 2.830189)">
                        <mask id="mask-2" fill="white">
                            <use xlink:href="#path-1"></use>
                        </mask>
                        <g>
                            <use fill="black" fill-opacity="1" filter="url(#filter-3)" xlink:href="#path-1"></use>
                            <rect stroke="#F2F1F0" stroke-width="2.5" x="-1.25" y="-1.25" width="96.8396226" height="96.8396226" rx="48.4198113"></rect>
                        </g>
                        <g id="Colors/Microsoft-365/BG-Solid-Badge" mask="url(#mask-2)">
                            <g id="Rectangle">
                                <use fill="#0078D4" xlink:href="#path-5"></use>
                                <use fill-opacity="0.4" fill="url(#linearGradient-4)" xlink:href="#path-5"></use>
                            </g>
                        </g>
                    </g>
                    <g id="Border" transform="translate(1.886792, 1.886792)">
                        <mask id="mask-7" fill="white">
                            <use xlink:href="#path-6"></use>
                        </mask>
                        <use id="Boarder" fill="#0078D4" fill-rule="nonzero" xlink:href="#path-6"></use>
                        <g id="Colors/Microsoft-365/Border" mask="url(#mask-7)" fill="#0076D7">
                            <g transform="translate(-1.886792, -1.886792)" id="Microsoft-365/Border">
                                <rect x="0" y="0" width="100" height="100"></rect>
                            </g>
                        </g>
                    </g>
                </g>
                <path d="M83.5736222,41.8325635 C82.1472584,41.8472979 80.8800082,42.7490698 80.4055344,44.0959145 L63.3534483,44.0959145 C63.0793716,42.7697417 62.5931132,41.4966068 61.9211998,40.3236629 L74.3696301,40.3236629 C74.9207334,41.882659 76.5151359,42.8168949 78.144824,42.5369184 C79.7745876,42.2598917 80.9651856,40.8452898 80.9651856,39.1919874 C80.9651856,37.538685 79.7745876,36.1240906 78.144824,35.8470565 C76.5150604,35.5670875 74.920756,36.5013083 74.3696301,38.0603119 L60.1852096,38.0603119 L60.1852096,23.3485307 L70.2201533,23.3485307 C70.7712566,24.9075269 72.3656591,25.8417627 73.9953473,25.5617862 C75.6251108,25.2847596 76.8157089,23.8701577 76.8157089,22.2168552 C76.8157089,20.5635528 75.6251108,19.1489585 73.9953473,18.8719243 C72.3655837,18.5919553 70.7712793,19.5261761 70.2201533,21.0851798 L59.0535341,21.0851798 C58.4287587,21.0851798 57.9218587,21.5920798 57.9218587,22.2168552 L57.9218587,36.1741861 C56.5485327,35.2606223 55.0101331,34.6210747 53.3951567,34.2880603 L53.3951567,28.4027443 C54.9541529,27.851641 55.8883887,26.2572385 55.6084122,24.6275503 C55.3313856,22.9977868 53.9167837,21.8071887 52.2634813,21.8071887 C50.6101788,21.8071887 49.1955845,22.9977868 48.9185503,24.6275503 C48.6385814,26.2573139 49.5728021,27.8516183 51.1318058,28.4027443 L51.1318058,33.9108352 L50.6779586,33.9108352 C49.5580526,33.9196773 48.4411643,34.0699789 47.3595844,34.3646823 L47.3595844,22.3674133 C48.9185805,21.81631 49.8528163,20.2219075 49.5728398,18.5922194 C49.2958132,16.9624558 47.8812113,15.7718578 46.2279089,15.7718578 C44.5746065,15.7718578 43.1600121,16.9624558 42.8829779,18.5922194 C42.603009,20.221983 43.5372297,21.8162874 45.0962334,22.3674133 L45.0962334,35.1930688 C43.6845814,35.862055 42.4055618,36.7815639 41.3239818,37.910297 L41.3239818,28.4027141 C42.8829779,27.8516108 43.8172138,26.2572083 43.5372373,24.6275202 C43.2602107,22.9977566 41.8456088,21.8071585 40.1923063,21.8071585 C38.5390039,21.8071585 37.1244096,22.9977566 36.8473754,24.6275202 C36.5674064,26.2572837 37.5016272,27.8515882 39.0606309,28.4027141 L39.0606309,39.1921081 L22.0854987,39.1921081 L22.0854987,29.1571644 C23.6444948,28.6060611 24.5787306,27.0116586 24.2987541,25.3819705 C24.0217275,23.7522069 22.6071256,22.5616089 20.9538232,22.5616089 C19.3005208,22.5616089 17.8859264,23.7522069 17.6088923,25.3819705 C17.3289233,27.0117341 18.263144,28.6060385 19.8221477,29.1571644 L19.8221477,40.3237836 C19.8221477,40.948559 20.3290478,41.4554591 20.9538232,41.4554591 L38.3061805,41.4554591 C35.2795522,41.8149999 32.5564392,43.4653902 30.8383295,45.982161 L25.6308871,45.982161 C25.0797837,44.4231649 23.4853812,43.488929 21.8556931,43.7689055 C20.2259295,44.0459322 19.0353315,45.4605341 19.0353315,47.1138365 C19.0353315,48.7671389 20.2259295,50.1817333 21.8556931,50.4587674 C23.4854567,50.7387364 25.0797611,49.8045156 25.6308871,48.245512 L29.6300773,48.245512 C29.1821224,49.4272829 28.952249,50.6798214 28.952249,51.9411114 L19.5955554,51.9411114 C19.044452,50.3821153 17.4500495,49.4478794 15.8203614,49.7278559 C14.1905978,50.0078249 13,51.4194845 13,53.0727869 C13,54.7260893 14.1905978,56.1406837 15.8203614,56.4206602 C17.450125,56.7006291 19.0444294,55.763466 19.5955554,54.2044624 L29.1763207,54.2044624 C29.4769239,55.5601341 30.0427315,56.8420961 30.8384502,57.976714 L25.6310078,57.976714 C25.0799044,56.4177178 23.485502,55.483482 21.8558138,55.7634585 C20.2260502,56.0434275 19.0354522,57.455087 19.0354522,59.1083894 C19.0354522,60.7616919 20.2260502,62.1762862 21.8558138,62.4562627 C23.4855774,62.7362317 25.0798818,61.7990686 25.6310078,60.2400649 L33.0252245,60.2400649 C34.7581214,61.5838918 36.8711858,62.350187 39.060827,62.4297061 L39.060827,73.1421462 L29.0258833,73.1421462 C28.47478,71.58315 26.8803775,70.6489142 25.2506894,70.9288907 C23.6209258,71.2059173 22.4303277,72.6205192 22.4303277,74.2738216 C22.4303277,75.9271241 23.6209258,77.3417184 25.2506894,77.6187526 C26.8804529,77.8987215 28.4747574,76.9645008 29.0258833,75.4054971 L40.1925025,75.4054971 C40.8172779,75.4054971 41.324178,74.898597 41.324178,74.2738216 L41.324178,62.5798417 L45.8508799,62.5798417 L45.8508799,69.5968332 C44.2918837,70.1479365 43.3576479,71.742339 43.6376244,73.3720272 C43.914651,75.0017907 45.3292529,76.1923888 46.9825554,76.1923888 C48.6358578,76.1923888 50.0504521,75.0017907 50.3274863,73.3720272 C50.6074553,71.7422636 49.6732345,70.1479592 48.1142308,69.5968332 L48.1142308,62.5798417 L51.8864824,62.5798417 L51.8864824,75.6325867 C50.3274863,76.18369 49.3932505,77.7780925 49.673227,79.4077806 C49.9502536,81.0375442 51.3648555,82.2281422 53.0181579,82.2281422 C54.6714603,82.2281422 56.0860547,81.0375442 56.3630888,79.4077806 C56.6430578,77.778017 55.7088371,76.1837126 54.1498334,75.6325867 L54.1498334,62.5798417 L57.922085,62.5798417 L57.922085,69.5968332 C56.3630888,70.1479365 55.428853,71.742339 55.7088295,73.3720272 C55.9858561,75.0017907 57.400458,76.1923888 59.0537605,76.1923888 C60.7070629,76.1923888 62.1216572,75.0017907 62.3986914,73.3720272 C62.6786604,71.7422636 61.7444396,70.1479592 60.1854359,69.5968332 L60.1854359,62.5798417 L62.5254391,62.5798417 C65.1955142,62.5739494 67.7064003,61.3184762 69.3154919,59.1848152 L79.4236173,59.1848152 L79.4236173,69.2197589 C77.8646212,69.7708623 76.9303853,71.3652648 77.2103618,72.9949529 C77.4873885,74.6247165 78.9019903,75.8153145 80.5552928,75.8153145 C82.2085952,75.8153145 83.6231896,74.6247165 83.9002237,72.9949529 C84.1801927,71.3651893 83.2459719,69.7708849 81.6869683,69.2197589 L81.6869683,58.0531398 C81.6869683,57.4283644 81.1800682,56.9214643 80.5552928,56.9214643 L70.5203491,56.9214643 C71.056718,55.4744286 71.1893353,53.9095477 70.8975742,52.3947624 L74.3692528,52.3947624 C74.9203562,53.9537585 76.5147586,54.8879943 78.1444468,54.6080178 C79.7742104,54.3309912 80.9648084,52.9163893 80.9648084,51.2630869 C80.9648084,49.6097845 79.7742104,48.1951901 78.1444468,47.918156 C76.5146832,47.638187 74.9203788,48.5724077 74.3692528,50.1314114 L70.1431239,50.1314114 C69.3179062,48.5046656 67.9976181,47.1843776 66.3708723,46.3591598 L80.4051572,46.3591598 C80.8295355,47.5585849 81.8875012,48.4191864 83.1459243,48.5900694 C84.4072898,48.7639476 85.6568104,48.2157942 86.3877219,47.1754751 C87.1156457,46.1322212 87.2010947,44.7706647 86.6087532,43.6448739 C86.016389,42.5190831 84.8434903,41.820613 83.5732978,41.8324579 L83.5736222,41.8325635 Z M68.784887,53.9807226 C68.784887,57.4494588 65.9940244,60.2757051 62.5252882,60.3168981 L39.5145534,60.3168981 C34.908257,60.3168981 31.177123,56.585915 31.177123,51.9794677 C31.177123,47.3761136 34.9081061,43.6420372 39.5145534,43.6420372 C40.0243959,43.7186592 40.5194813,43.4386902 40.7199387,42.9642088 C42.3143186,38.8560005 46.2751827,36.1565018 50.6779285,36.1740699 C56.4630535,36.212467 61.1904392,40.8039912 61.3933863,46.5863248 C61.3933863,47.2111002 61.9002864,47.7180003 62.5250618,47.7180003 C65.9642991,47.7592612 68.7463346,50.5383619 68.784887,53.9805415 L68.784887,53.9807226 Z" id="Fill-1" fill="url(#linearGradient-8)"></path>
                <g id="Database" filter="url(#filter-9)" transform="translate(30.000000, 23.000000)" fill-rule="nonzero">
                    <path d="M20.0225989,12.3821726 C8.94915254,12.3821726 0,9.03816235 0,4.89795918 L0,44.7606845 C0,48.8478082 9.03954802,52.1918184 19.7514124,52.244898 L20.0225989,52.244898 C31.0508475,52.244898 40,48.9008877 40,44.7606845 L40,4.89795918 C40,9.03816235 31.0508475,12.3821726 20.0225989,12.3821726 Z" id="Path" fill="url(#linearGradient-10)"></path>
                    <path d="M40,6.93877551 C40,10.7772471 30.960452,13.877551 20.0225989,13.877551 C9.08474576,13.877551 0,10.7772471 0,6.93877551 C0,3.10030395 9.03954802,0 20.0225989,0 C31.0056497,0 40,3.10030395 40,6.93877551" id="Path" fill="#E8E8E8"></path>
                    <path d="M20.4298037,10.6122449 C12.3362688,10.6122449 5.71428571,9.12471655 5.71428571,7.34693878 C5.71428571,5.569161 12.2929879,4.08163265 20.4298037,4.08163265 C28.5666196,4.08163265 35.1020408,5.53287982 35.1020408,7.34693878 C35.1020408,9.12471655 28.5233386,10.6122449 20.4298037,10.6122449 Z" id="Path" fill="#50E6FF"></path>
                    <path d="M5.71428571,7.97266808 C7.17997057,9.12355318 8.95847546,10.6075173 20.0400062,10.6032626 C26.1284288,10.6968651 30.9836896,10.0702147 34.2857143,8.19117518 C30.0868045,6.98738142 24.3995435,6.45232825 20.0400062,6.54909383 C15.680102,6.44505882 9.91178353,6.76174006 5.71428571,7.97266808 Z" id="Path" fill="#32BEDD"></path>
                </g>
                <g id="Gear" transform="translate(34.000000, 39.500000)">
                    <g id="a30ee4c9-49d5-4d00-a305-a6a3597e53b7" fill="url(#linearGradient-11)" fill-rule="nonzero">
                        <path d="M32,17.4485597 L32,13.7613169 L28.231405,12.4444444 L27.3057851,9.94238683 L29.1570248,6.05761317 L29.1570248,5.66255144 L27.9669421,4.47736626 L26.5785124,2.89711934 L26.0495868,2.89711934 L22.3471074,4.87242798 L19.8347107,4.14814815 L18.1818182,0 L14.5454545,0 L13.2892562,3.75308642 L10.5123967,4.87242798 L6.21487603,2.83127572 L3.63636364,5.39917695 L3.63636364,5.8600823 L5.55371901,9.5473251 L4.42975207,12.3127572 L0,13.9588477 L0,17.6460905 L0.52892562,17.6460905 L4.42975207,18.962963 L5.48760331,21.4650206 L3.50413223,25.744856 L6.08264463,28.3786008 L6.61157025,28.3786008 L10.2479339,26.5349794 L12.8264463,27.5884774 L14.4132231,32 L18.1157025,32 L18.1157025,31.473251 L19.3719008,27.5226337 L21.8842975,26.4691358 L26.2479339,28.5102881 L28.8264463,25.9423868 L28.8264463,25.4156379 L26.9752066,21.7283951 L27.7024793,19.1604938 L32,17.4485597 Z M16.2651787,20.5710026 C13.5103427,20.2752095 11.4285714,18.0618044 11.4285714,15.4285687 C11.4285714,12.7953329 13.5103427,10.5819278 16.2651787,10.2861348 C17.7038731,10.2686143 19.0900033,10.7992094 20.113857,11.7593658 C21.1377106,12.7195221 21.7139554,14.0292162 21.7138372,15.3958143 L21.7138372,15.3958143 C21.7325587,16.7737339 21.164519,18.1004201 20.1386109,19.0748375 C19.1127028,20.0492549 17.7159111,20.5887844 16.2651787,20.5710026 Z" id="Shape"></path>
                    </g>
                    <circle id="Oval" fill="#FFFFFF" cx="16.4848485" cy="15.5151515" r="5.81818182"></circle>
                </g>
            </g>
        </g>
    </g>
</svg>