<svg width="103" height="103" viewBox="0 0 103 103" fill="none" xmlns="http://www.w3.org/2000/svg">
<path d="M52.1014 98.3597C77.9562 98.3035 98.8648 77.2937 98.7992 51.4414C98.743 25.589 77.7314 4.68239 51.8766 4.74796C26.0219 4.80416 5.11329 25.814 5.17886 51.6663C5.24444 77.5186 26.2467 98.4253 52.1014 98.3597Z" fill="url(#paint0_linear)"/>
<path fill-rule="evenodd" clip-rule="evenodd" d="M51.8771 1.55361C24.2613 1.61918 1.92876 24.0526 1.98497 51.6659C2.05054 79.2792 24.4861 101.61 52.1019 101.553C79.7178 101.488 102.05 79.0543 101.985 51.441C101.929 23.8277 79.493 1.48804 51.8771 1.55361ZM52.1019 97.3103C26.828 97.3665 6.29413 76.9282 6.23792 51.6566C6.18172 26.385 26.6219 5.85288 51.8959 5.79668C77.1698 5.74048 97.7037 26.1788 97.7599 51.4504C97.8161 76.722 77.3759 97.2541 52.1019 97.3103Z" fill="#D9D9D9"/>
<path fill-rule="evenodd" clip-rule="evenodd" d="M6.08799 51.6661C6.1442 77.0126 26.7437 97.5164 52.0925 97.4602C77.4414 97.404 97.9472 76.8065 97.891 51.4599C97.8348 26.1134 77.2354 5.60947 51.8865 5.66567C26.5376 5.7125 6.03178 26.3195 6.08799 51.6661ZM51.8771 1.90969C24.458 1.97526 2.28472 24.2495 2.34093 51.6661C2.4065 79.0827 24.6828 101.254 52.1019 101.198C79.5211 101.132 101.694 78.8578 101.638 51.4412C101.573 24.0246 79.2962 1.84412 51.8771 1.90969Z" fill="#F2F1F0"/>
<path fill-rule="evenodd" clip-rule="evenodd" d="M8.89848 51.6569C8.95469 75.4579 28.2895 94.6973 52.0927 94.6411C75.896 94.5849 95.1371 75.2518 95.0809 51.4508C95.0247 27.6498 75.6899 8.41048 51.8867 8.46668C28.0928 8.52288 8.84228 27.8559 8.89848 51.6569ZM51.8867 4.71996C26.0226 4.77616 5.09522 25.8046 5.1608 51.6663C5.217 77.528 26.2474 98.4534 52.1115 98.3879C77.9756 98.3317 98.903 77.3031 98.8374 51.4414C98.7718 25.5797 77.7602 4.66376 51.8867 4.71996Z" fill="#0078D4"/>
<path opacity="0.15" d="M20.8046 31.9393L83.0901 31.7894C85.0761 31.7894 86.6873 33.3912 86.6873 35.377L86.7717 71.308C86.781 73.2937 85.1697 74.9048 83.1838 74.9048L20.8982 75.0547C18.9123 75.0547 17.3011 73.4529 17.3011 71.4671L17.2168 35.5361C17.2168 33.5598 18.8186 31.9487 20.8046 31.9393Z" fill="#1F1D20"/>
<path d="M20.8516 29.9911H83.1371C85.1231 29.9911 86.7249 31.6021 86.7249 33.5785V69.5095C86.7249 71.4953 85.1137 73.0971 83.1371 73.0971H20.8516C18.8657 73.0971 17.2637 71.4859 17.2637 69.5095V33.5785C17.2543 31.6021 18.8657 29.9911 20.8516 29.9911Z" fill="url(#paint1_linear)" stroke="#A3A3A3" stroke-width="1.6164"/>
<g opacity="0.15">
<path opacity="0.15" d="M51.7924 41.5785C53.3006 41.5785 54.5278 40.3606 54.5278 38.8431C54.5278 37.3349 53.3006 36.1077 51.7924 36.1077C50.2842 36.1077 49.0571 37.3349 49.0571 38.8431C49.0571 40.3606 50.2842 41.5785 51.7924 41.5785Z" fill="#1F1D20"/>
<path opacity="0.15" d="M53.3942 52.9499V40.0143H52.1858V52.9593H34.1343V64.7614H35.3427V54.1675H52.1858V65.2765H53.3942V54.1675H70.4059V64.752H71.6143V52.9499H53.3942Z" fill="#1F1D20"/>
<path opacity="0.15" d="M57.6381 38.7964C57.6381 41.4569 55.4835 43.6114 52.8325 43.6114C50.1814 43.6114 48.0269 41.4569 48.0269 38.7964C48.0269 36.136 50.1814 33.9816 52.8325 33.9816C55.4741 33.9816 57.6381 36.136 57.6381 38.7964Z" fill="#1F1D20"/>
<path opacity="0.15" d="M57.6381 64.1243C57.6381 66.7847 55.4835 68.9393 52.8325 68.9393C50.1814 68.9393 48.0269 66.7847 48.0269 64.1243C48.0269 61.4639 50.1814 59.3093 52.8325 59.3093C55.4741 59.3093 57.6381 61.4639 57.6381 64.1243Z" fill="#1F1D20"/>
<path opacity="0.15" d="M75.8388 64.1243C75.8388 66.7847 73.6842 68.9393 71.0332 68.9393C68.3727 68.9393 66.2275 66.7847 66.2275 64.1243C66.2275 61.4639 68.3821 59.3093 71.0332 59.3093C73.7029 59.3093 75.8388 61.4639 75.8388 64.1243Z" fill="#1F1D20"/>
<path opacity="0.15" d="M39.4926 64.1243C39.4926 66.7847 37.338 68.9393 34.687 68.9393C32.0265 68.9393 29.8813 66.7847 29.8813 64.1243C29.8813 61.4639 32.0359 59.3093 34.687 59.3093C37.338 59.3093 39.4926 61.4639 39.4926 64.1243Z" fill="#1F1D20"/>
</g>
<path d="M51.7924 40.6417C53.3006 40.6417 54.5278 39.4239 54.5278 37.9063C54.5278 36.3981 53.3006 35.1709 51.7924 35.1709C50.2842 35.1709 49.0571 36.3981 49.0571 37.9063C49.0571 39.4239 50.2842 40.6417 51.7924 40.6417Z" stroke="url(#paint2_linear)" stroke-width="0.7813" stroke-miterlimit="10"/>
<path d="M53.3942 52.0131V39.0775H52.1858V52.0225H34.1343V63.8246H35.3427V53.2307H52.1858V64.3397H53.3942V53.2307H70.4059V63.8152H71.6143V52.0131H53.3942Z" fill="white"/>
<path d="M57.6381 37.8597C57.6381 40.5201 55.4835 42.6747 52.8325 42.6747C50.1814 42.6747 48.0269 40.5201 48.0269 37.8597C48.0269 35.1993 50.1814 33.0448 52.8325 33.0448C55.4741 33.0448 57.6381 35.1993 57.6381 37.8597Z" fill="white"/>
<path d="M57.6381 63.1875C57.6381 65.848 55.4835 68.0025 52.8325 68.0025C50.1814 68.0025 48.0269 65.848 48.0269 63.1875C48.0269 60.5271 50.1814 58.3726 52.8325 58.3726C55.4741 58.3726 57.6381 60.5271 57.6381 63.1875Z" fill="white"/>
<path d="M75.8388 63.1875C75.8388 65.848 73.6842 68.0025 71.0332 68.0025C68.3727 68.0025 66.2275 65.848 66.2275 63.1875C66.2275 60.5271 68.3821 58.3726 71.0332 58.3726C73.7029 58.3726 75.8388 60.5271 75.8388 63.1875Z" fill="white"/>
<path d="M39.4926 63.1875C39.4926 65.848 37.338 68.0025 34.687 68.0025C32.0265 68.0025 29.8813 65.848 29.8813 63.1875C29.8813 60.5271 32.0359 58.3726 34.687 58.3726C37.338 58.3726 39.4926 60.5271 39.4926 63.1875Z" fill="white"/>
<defs>
<linearGradient id="paint0_linear" x1="53.6112" y1="-13.239" x2="49.9695" y2="132.536" gradientUnits="userSpaceOnUse">
<stop stop-color="#00ABDE"/>
<stop offset="1" stop-color="#007ED8"/>
</linearGradient>
<linearGradient id="paint1_linear" x1="51.9927" y1="29.9952" x2="51.9927" y2="73.114" gradientUnits="userSpaceOnUse">
<stop stop-color="#555559"/>
<stop offset="1" stop-color="#2E2E33"/>
</linearGradient>
<linearGradient id="paint2_linear" x1="48.6919" y1="37.9088" x2="54.898" y2="37.9088" gradientUnits="userSpaceOnUse">
<stop stop-color="#00ABDE"/>
<stop offset="1" stop-color="#007ED8"/>
</linearGradient>
</defs>
</svg>
