<?xml version="1.0" encoding="UTF-8"?>
<svg width="100px" height="100px" viewBox="0 0 100 100" version="1.1" xmlns="http://www.w3.org/2000/svg" xmlns:xlink="http://www.w3.org/1999/xlink">
    <!-- Generator: Sketch 58 (84663) - https://sketch.com -->
    <title>Extend Microsoft Office/understand-fundamental-components-and-types-of-microsoft-office-addins</title>
    <desc>Created with Sketch.</desc>
    <defs>
        <rect id="path-1" x="0" y="0" width="96" height="96" rx="48"></rect>
        <filter x="-5.1%" y="-8.5%" width="110.1%" height="117.0%" filterUnits="objectBoundingBox" id="filter-3">
            <feOffset dx="0" dy="2" in="SourceAlpha" result="shadowOffsetOuter1"></feOffset>
            <feColorMatrix values="0 0 0 0 0   0 0 0 0 0   0 0 0 0 0  0 0 0 0.101590806 0" type="matrix" in="shadowOffsetOuter1" result="shadowMatrixOuter1"></feColorMatrix>
            <feMerge>
                <feMergeNode in="shadowMatrixOuter1"></feMergeNode>
                <feMergeNode in="SourceGraphic"></feMergeNode>
            </feMerge>
        </filter>
    </defs>
    <g id="Badges" stroke="none" stroke-width="1" fill="none" fill-rule="evenodd">
        <g id="Extend-Microsoft-Office" transform="translate(-50.000000, -260.000000)">
            <g id="Extend-Microsoft-Office/understand-fundamental-components-and-types-of-microsoft-office-addins" transform="translate(50.000000, 260.000000)">
                <g id="Mask" transform="translate(2.000000, 2.000000)">
                    <mask id="mask-2" fill="white">
                        <use xlink:href="#path-1"></use>
                    </mask>
                    <use id="BG" fill="#55A2FF" xlink:href="#path-1"></use>
                    <g id="Group-2" mask="url(#mask-2)">
                        <g transform="translate(8.000000, 24.000000)" id="Computer">
                            <g filter="url(#filter-3)" transform="translate(0.000000, 0.000000)">
                                <path d="M0,39.3754158 L0,41.8363793 C0,44.5434392 2.21486714,46.7583063 4.92192698,46.7583063 L73.8289047,46.7583063 C76.5359645,46.7583063 78.7508316,44.5434392 78.7508316,41.8363793 L78.7508316,39.3754158 L0,39.3754158" id="Fill-1415" fill="#E1E4E1"></path>
                                <path d="M12.3048174,0 C9.59775761,0 7.38289047,2.21486714 7.38289047,4.92192698 L7.38289047,39.3754158 L71.3679412,39.3754158 L71.3679412,4.92192698 C71.3679412,2.21486714 69.153074,0 66.4460142,0 L12.3048174,0 Z M66.4460142,2.46096349 C67.8020051,2.46096349 68.9069777,3.56470561 68.9069777,4.92192698 L68.9069777,36.9144523 L9.84385396,36.9144523 L9.84385396,4.92192698 C9.84385396,3.56470561 10.9475961,2.46096349 12.3048174,2.46096349 L66.4460142,2.46096349 L66.4460142,2.46096349 Z" id="Fill-1416" fill="#182A37"></path>
                                <path d="M9.84385396,4.92192698 C9.84385396,3.56470561 10.9475961,2.46096349 12.3048174,2.46096349 L66.4460142,2.46096349 C67.8020051,2.46096349 68.9069777,3.56470561 68.9069777,4.92192698 L68.9069777,36.9144523 L9.84385396,36.9144523 L9.84385396,4.92192698" id="Fill-1417" fill="#30404D"></path>
                                <path d="M54,2.46 L67,2.46 C68.1045695,2.46 69,3.3554305 69,4.46 L69,36.91 L69,36.91 L54,36.91 L54,2.46 Z" id="Rectangle" fill="#EFD358"></path>
                                <path d="M54,2.46 L67,2.46083502 C68.1045193,2.46103444 68.9998715,3.35644416 69,4.46096349 L69,11 L69,11 L54,11 L54,2.46 Z" id="Rectangle" fill="#E1E4E1"></path>
                                <path d="M12.3048174,2.46096349 L38.6235915,2.46096349 L26.591941,36.9144523 L9.84385396,36.9144523 L9.84385396,4.92192698 C9.84385396,3.56470561 10.9475961,2.46096349 12.3048174,2.46096349" id="Fill-1418" fill="#384B58"></path>
                                <path d="M12.3048174,0 L39.3754158,0 L38.6235915,2.46096349 L12.3048174,2.46096349 C10.9475961,2.46096349 9.84385396,3.56470561 9.84385396,4.92192698 L9.84385396,36.9144523 L26.591941,36.9144523 L25.8401166,39.3754158 L7.38289047,39.3754158 L7.38289047,4.92192698 C7.38289047,2.21486714 9.59775761,0 12.3048174,0" id="Fill-1419" fill="#30404D"></path>
                                <path d="M36.9144523,44.2973428 L0.687839295,44.2973428 C1.54302411,45.7591551 3.1143493,46.7583063 4.92192698,46.7583063 L73.8289047,46.7583063 C76.5359645,46.7583063 78.7508316,44.5434392 78.7508316,41.8363793 L78.7508316,39.3754158 L39.3754158,39.3754158 L39.3754158,41.8363793 C39.3754158,43.1960616 38.2741347,44.2973428 36.9144523,44.2973428" id="Fill-1420" fill="#CDD6D8"></path>
                                <path d="M34.4534888,41.8363793 L44.2973428,41.8363793 C45.6557946,41.8363793 46.7583063,40.7338677 46.7583063,39.3754158 L31.9925254,39.3754158 C31.9925254,40.7338677 33.0938065,41.8363793 34.4534888,41.8363793" id="Fill-1421" fill="#AAB0B1"></path>
                            </g>
                        </g>
                    </g>
                    <g id="Group-12" mask="url(#mask-2)">
                        <g transform="translate(20.000000, 34.000000)">
                            <g id="Group-14" stroke-width="1" fill="none" fill-rule="evenodd">
                                <path d="M1.36363636,-3.30402372e-13 L9.09090909,-3.30402372e-13 L9.09090909,-3.30402372e-13 L9.09090909,2.72727273 L1.36363636,2.72727273 C0.610520796,2.72727273 -4.96399507e-13,2.11675193 -4.96491737e-13,1.36363636 C-4.96583967e-13,0.610520796 0.610520796,-3.30264027e-13 1.36363636,-3.30402372e-13 Z" id="Rectangle" fill="#EFD358" fill-rule="nonzero"></path>
                                <rect id="Rectangle" fill="#7CB65A" fill-rule="nonzero" x="9.09090909" y="-3.30402372e-13" width="8.18181818" height="2.72727273"></rect>
                                <path d="M17.2727273,-3.30402372e-13 L38.6363636,-3.30402372e-13 C39.3894792,-3.30318673e-13 40,0.610520796 40,1.36363636 C40,2.11675193 39.3894792,2.72727273 38.6363636,2.72727273 L17.2727273,2.72727273 L17.2727273,2.72727273 L17.2727273,-3.30402372e-13 Z" id="Rectangle" fill="#0082BA" fill-rule="nonzero"></path>
                            </g>
                            <g id="Group-15" stroke-width="1" fill="none" fill-rule="evenodd" transform="translate(0.000000, 18.000000)">
                                <path d="M1.36363636,-3.28626015e-13 L9.09090909,-3.28626015e-13 L9.09090909,-3.28626015e-13 L9.09090909,2.72727273 L1.36363636,2.72727273 C0.610520796,2.72727273 -4.96399507e-13,2.11675193 -4.96491737e-13,1.36363636 C-4.96583967e-13,0.610520796 0.610520796,-3.2848767e-13 1.36363636,-3.28626015e-13 Z" id="Rectangle" fill="#DF5142" fill-rule="nonzero"></path>
                                <rect id="Rectangle" fill="#7CB65A" fill-rule="nonzero" x="9.09090909" y="-3.28626015e-13" width="8.18181818" height="2.72727273"></rect>
                                <path d="M17.2727273,-3.28626015e-13 L34.0909091,-3.28626015e-13 C34.8440247,-3.30318673e-13 35.4545455,0.610520796 35.4545455,1.36363636 C35.4545455,2.11675193 34.8440247,2.72727273 34.0909091,2.72727273 L17.2727273,2.72727273 L17.2727273,2.72727273 L17.2727273,-3.28626015e-13 Z" id="Rectangle" fill="#0082BA" fill-rule="nonzero"></path>
                            </g>
                            <g id="Group-13" stroke-width="1" fill="none" fill-rule="evenodd" transform="translate(0.000000, 6.000000)">
                                <path d="M1.36363636,-3.31290551e-13 L8.18181818,-3.31290551e-13 L8.18181818,-3.31290551e-13 L8.18181818,2.72727273 L1.36363636,2.72727273 C0.610520796,2.72727273 -9.90226708e-13,2.11675193 -9.90318938e-13,1.36363636 C-9.90411168e-13,0.610520796 0.610520796,-3.30930161e-13 1.36363636,-3.31290551e-13 Z" id="Rectangle" fill="#7CB65A" fill-rule="nonzero"></path>
                                <path d="M8.18181818,-3.31290551e-13 L25,-3.31290551e-13 C25.7531156,-3.30762762e-13 26.3636364,0.610520796 26.3636364,1.36363636 C26.3636364,2.11675193 25.7531156,2.72727273 25,2.72727273 L8.18181818,2.72727273 L8.18181818,2.72727273 L8.18181818,-3.31290551e-13 Z" id="Rectangle" fill="#EFD358" fill-rule="nonzero"></path>
                            </g>
                            <rect id="Rectangle" fill="#0082BA" fill-rule="nonzero" x="0" y="12" width="36.3636364" height="2.72727273"></rect>
                        </g>
                    </g>
                </g>
                <g id="Azure-Border" stroke="#0078D4" stroke-width="4">
                    <rect x="2" y="2" width="96" height="96" rx="48"></rect>
                </g>
            </g>
        </g>
    </g>
</svg>