<?xml version="1.0" encoding="UTF-8"?>
<svg width="102px" height="102px" viewBox="0 0 102 102" version="1.1" xmlns="http://www.w3.org/2000/svg" xmlns:xlink="http://www.w3.org/1999/xlink">
    <title>Learn how Microsoft safeguards customer data/understand-microsoft-datacenter-security</title>
    <defs>
        <rect id="path-1" x="0" y="0" width="94.3396226" height="94.3396226" rx="47.1698113"></rect>
        <filter x="-2.9%" y="-2.9%" width="106.4%" height="106.4%" filterUnits="objectBoundingBox" id="filter-3">
            <feMorphology radius="2.5" operator="dilate" in="SourceAlpha" result="shadowSpreadOuter1"></feMorphology>
            <feOffset dx="0.5" dy="0.5" in="shadowSpreadOuter1" result="shadowOffsetOuter1"></feOffset>
            <feMorphology radius="1" operator="erode" in="SourceAlpha" result="shadowInner"></feMorphology>
            <feOffset dx="0.5" dy="0.5" in="shadowInner" result="shadowInner"></feOffset>
            <feComposite in="shadowOffsetOuter1" in2="shadowInner" operator="out" result="shadowOffsetOuter1"></feComposite>
            <feColorMatrix values="0 0 0 0 0.821822822   0 0 0 0 0.831640661   0 0 0 0 0.835737288  0 0 0 1 0" type="matrix" in="shadowOffsetOuter1"></feColorMatrix>
        </filter>
        <linearGradient x1="77.8299825%" y1="11.1997378%" x2="-99.6885927%" y2="253.807911%" id="linearGradient-4">
            <stop stop-color="#FFFFFF" offset="0%"></stop>
            <stop stop-color="#000000" stop-opacity="0.5" offset="100%"></stop>
        </linearGradient>
        <rect id="path-5" x="0" y="0" width="94.3396226" height="94.3396226"></rect>
        <path d="M48.1132075,0.739331515 C74.2770768,0.739331515 95.4870836,21.9493383 95.4870836,48.1132075 C95.4870836,74.2770768 74.2770768,95.4870836 48.1132075,95.4870836 C21.9493383,95.4870836 0.739331515,74.2770768 0.739331515,48.1132075 C0.739331515,21.9493383 21.9493383,0.739331515 48.1132075,0.739331515 Z M48.1132075,4.71698113 C24.1461335,4.71698113 4.71698113,24.1461335 4.71698113,48.1132075 C4.71698113,72.0802816 24.1461335,91.509434 48.1132075,91.509434 C72.0802816,91.509434 91.509434,72.0802816 91.509434,48.1132075 C91.509434,24.1461335 72.0802816,4.71698113 48.1132075,4.71698113 Z" id="path-6"></path>
    </defs>
    <g id="Badges" stroke="none" stroke-width="1" fill="none" fill-rule="evenodd">
        <g id="Learn-how-Microsoft-safeguards-customer-data-3" transform="translate(-159.000000, -319.000000)">
            <g id="Learn-how-Microsoft-safeguards-customer-data/understand-microsoft-datacenter-security" transform="translate(160.000000, 320.000000)">
                <g id="Badge-Plates/Circle">
                    <g id="BG" transform="translate(2.830189, 2.830189)">
                        <mask id="mask-2" fill="white">
                            <use xlink:href="#path-1"></use>
                        </mask>
                        <g>
                            <use fill="black" fill-opacity="1" filter="url(#filter-3)" xlink:href="#path-1"></use>
                            <rect stroke="#F2F1F0" stroke-width="2.5" x="-1.25" y="-1.25" width="96.8396226" height="96.8396226" rx="48.4198113"></rect>
                        </g>
                        <g id="Colors/Microsoft-365/BG-Solid-Badge" mask="url(#mask-2)">
                            <g id="Rectangle">
                                <use fill="#0078D4" xlink:href="#path-5"></use>
                                <use fill-opacity="0.4" fill="url(#linearGradient-4)" xlink:href="#path-5"></use>
                            </g>
                        </g>
                    </g>
                    <g id="Border" transform="translate(1.886792, 1.886792)">
                        <mask id="mask-7" fill="white">
                            <use xlink:href="#path-6"></use>
                        </mask>
                        <use id="Boarder" fill="#0078D4" fill-rule="nonzero" xlink:href="#path-6"></use>
                        <g id="Colors/Microsoft-365/Border" mask="url(#mask-7)" fill="#0076D7">
                            <g transform="translate(-1.886792, -1.886792)" id="Microsoft-365/Border">
                                <rect x="0" y="0" width="100" height="100"></rect>
                            </g>
                        </g>
                    </g>
                </g>
                <g id="Group-13" transform="translate(15.000000, 29.000000)">
                    <rect id="server-" fill="#007667" x="0" y="0" width="21" height="43" rx="2"></rect>
                    <g id="server" transform="translate(3.000000, 4.000000)">
                        <rect id="Rectangle" fill="#02B598" x="0" y="0" width="16" height="5" rx="1"></rect>
                        <rect id="Rectangle" fill="#007667" x="1.07692308" y="1.28571429" width="1.07692308" height="2.85714286"></rect>
                        <rect id="Rectangle-Copy-2" fill="#007667" x="3.38461538" y="1.28571429" width="1.07692308" height="2.85714286"></rect>
                        <rect id="Rectangle-Copy-3" fill="#007667" x="5.69230769" y="1.28571429" width="1.07692308" height="2.85714286"></rect>
                        <rect id="Rectangle-Copy-5" fill="#007667" x="8" y="1.28571429" width="1.07692308" height="2.85714286"></rect>
                        <ellipse id="Oval" fill="#B5DA21" cx="13.8461538" cy="1.85714286" rx="1" ry="1"></ellipse>
                    </g>
                    <g id="server-copy" transform="translate(3.000000, 19.000000)">
                        <rect id="Rectangle" fill="#02B598" x="0" y="0" width="16" height="5" rx="1"></rect>
                        <rect id="Rectangle" fill="#007667" x="1.07692308" y="1.28571429" width="1.07692308" height="2.85714286"></rect>
                        <rect id="Rectangle-Copy-2" fill="#007667" x="3.38461538" y="1.28571429" width="1.07692308" height="2.85714286"></rect>
                        <rect id="Rectangle-Copy-3" fill="#007667" x="5.69230769" y="1.28571429" width="1.07692308" height="2.85714286"></rect>
                        <rect id="Rectangle-Copy-5" fill="#007667" x="8" y="1.28571429" width="1.07692308" height="2.85714286"></rect>
                        <ellipse id="Oval" fill="#B5DA21" cx="13.8461538" cy="1.85714286" rx="1" ry="1"></ellipse>
                    </g>
                    <g id="server-copy-3" transform="translate(3.000000, 27.000000)">
                        <rect id="Rectangle" fill="#02B598" x="0" y="0" width="16" height="5" rx="1"></rect>
                        <rect id="Rectangle" fill="#007667" x="1.07692308" y="1.28571429" width="1.07692308" height="2.85714286"></rect>
                        <rect id="Rectangle-Copy-2" fill="#007667" x="3.38461538" y="1.28571429" width="1.07692308" height="2.85714286"></rect>
                        <rect id="Rectangle-Copy-3" fill="#007667" x="5.69230769" y="1.28571429" width="1.07692308" height="2.85714286"></rect>
                        <rect id="Rectangle-Copy-5" fill="#007667" x="8" y="1.28571429" width="1.07692308" height="2.85714286"></rect>
                        <ellipse id="Oval" fill="#B5DA21" cx="13.8461538" cy="1.85714286" rx="1" ry="1"></ellipse>
                    </g>
                    <g id="server-copy-2" transform="translate(3.000000, 11.000000)">
                        <rect id="Rectangle" fill="#02B598" x="0" y="0" width="16" height="5" rx="1"></rect>
                        <rect id="Rectangle" fill="#007667" x="1.07692308" y="1.28571429" width="1.07692308" height="2.85714286"></rect>
                        <rect id="Rectangle-Copy-2" fill="#007667" x="3.38461538" y="1.28571429" width="1.07692308" height="2.85714286"></rect>
                        <rect id="Rectangle-Copy-3" fill="#007667" x="5.69230769" y="1.28571429" width="1.07692308" height="2.85714286"></rect>
                        <rect id="Rectangle-Copy-5" fill="#007667" x="8" y="1.28571429" width="1.07692308" height="2.85714286"></rect>
                        <ellipse id="Oval" fill="#B5DA21" cx="13.8461538" cy="1.85714286" rx="1" ry="1"></ellipse>
                    </g>
                </g>
                <g id="Group-13-Copy-2" transform="translate(40.000000, 29.000000)">
                    <rect id="server-" fill="#007667" x="0" y="0" width="21" height="43" rx="2"></rect>
                    <g id="server" transform="translate(3.000000, 4.000000)">
                        <rect id="Rectangle" fill="#02B598" x="0" y="0" width="16" height="5" rx="1"></rect>
                        <rect id="Rectangle" fill="#007667" x="1.07692308" y="1.28571429" width="1.07692308" height="2.85714286"></rect>
                        <rect id="Rectangle-Copy-2" fill="#007667" x="3.38461538" y="1.28571429" width="1.07692308" height="2.85714286"></rect>
                        <rect id="Rectangle-Copy-3" fill="#007667" x="5.69230769" y="1.28571429" width="1.07692308" height="2.85714286"></rect>
                        <rect id="Rectangle-Copy-5" fill="#007667" x="8" y="1.28571429" width="1.07692308" height="2.85714286"></rect>
                        <ellipse id="Oval" fill="#B5DA21" cx="13.8461538" cy="1.85714286" rx="1" ry="1"></ellipse>
                    </g>
                    <g id="server-copy" transform="translate(3.000000, 19.000000)">
                        <rect id="Rectangle" fill="#02B598" x="0" y="0" width="16" height="5" rx="1"></rect>
                        <rect id="Rectangle" fill="#007667" x="1.07692308" y="1.28571429" width="1.07692308" height="2.85714286"></rect>
                        <rect id="Rectangle-Copy-2" fill="#007667" x="3.38461538" y="1.28571429" width="1.07692308" height="2.85714286"></rect>
                        <rect id="Rectangle-Copy-3" fill="#007667" x="5.69230769" y="1.28571429" width="1.07692308" height="2.85714286"></rect>
                        <rect id="Rectangle-Copy-5" fill="#007667" x="8" y="1.28571429" width="1.07692308" height="2.85714286"></rect>
                        <ellipse id="Oval" fill="#B5DA21" cx="13.8461538" cy="1.85714286" rx="1" ry="1"></ellipse>
                    </g>
                    <g id="server-copy-3" transform="translate(3.000000, 27.000000)">
                        <rect id="Rectangle" fill="#02B598" x="0" y="0" width="16" height="5" rx="1"></rect>
                        <rect id="Rectangle" fill="#007667" x="1.07692308" y="1.28571429" width="1.07692308" height="2.85714286"></rect>
                        <rect id="Rectangle-Copy-2" fill="#007667" x="3.38461538" y="1.28571429" width="1.07692308" height="2.85714286"></rect>
                        <rect id="Rectangle-Copy-3" fill="#007667" x="5.69230769" y="1.28571429" width="1.07692308" height="2.85714286"></rect>
                        <rect id="Rectangle-Copy-5" fill="#007667" x="8" y="1.28571429" width="1.07692308" height="2.85714286"></rect>
                        <ellipse id="Oval" fill="#B5DA21" cx="13.8461538" cy="1.85714286" rx="1" ry="1"></ellipse>
                    </g>
                    <g id="server-copy-2" transform="translate(3.000000, 11.000000)">
                        <rect id="Rectangle" fill="#02B598" x="0" y="0" width="16" height="5" rx="1"></rect>
                        <rect id="Rectangle" fill="#007667" x="1.07692308" y="1.28571429" width="1.07692308" height="2.85714286"></rect>
                        <rect id="Rectangle-Copy-2" fill="#007667" x="3.38461538" y="1.28571429" width="1.07692308" height="2.85714286"></rect>
                        <rect id="Rectangle-Copy-3" fill="#007667" x="5.69230769" y="1.28571429" width="1.07692308" height="2.85714286"></rect>
                        <rect id="Rectangle-Copy-5" fill="#007667" x="8" y="1.28571429" width="1.07692308" height="2.85714286"></rect>
                        <ellipse id="Oval" fill="#B5DA21" cx="13.8461538" cy="1.85714286" rx="1" ry="1"></ellipse>
                    </g>
                </g>
                <g id="Group-13-Copy-3" transform="translate(65.000000, 29.000000)">
                    <rect id="server-" fill="#747474" x="0" y="0" width="21" height="43" rx="2"></rect>
                    <g id="server" transform="translate(3.000000, 4.000000)">
                        <rect id="Rectangle" fill="#A7A7A7" x="0" y="0" width="16" height="5" rx="1"></rect>
                        <rect id="Rectangle" fill="#747474" x="1.07692308" y="1.28571429" width="1.07692308" height="2.85714286"></rect>
                        <rect id="Rectangle-Copy-2" fill="#747474" x="3.38461538" y="1.28571429" width="1.07692308" height="2.85714286"></rect>
                        <rect id="Rectangle-Copy-3" fill="#747474" x="5.69230769" y="1.28571429" width="1.07692308" height="2.85714286"></rect>
                        <rect id="Rectangle-Copy-5" fill="#747474" x="8" y="1.28571429" width="1.07692308" height="2.85714286"></rect>
                        <ellipse id="Oval" fill="#747474" cx="13.8461538" cy="1.85714286" rx="1" ry="1"></ellipse>
                    </g>
                    <g id="server-copy" transform="translate(3.000000, 19.000000)">
                        <rect id="Rectangle" fill="#A7A7A7" x="0" y="0" width="16" height="5" rx="1"></rect>
                        <rect id="Rectangle" fill="#747474" x="1.07692308" y="1.28571429" width="1.07692308" height="2.85714286"></rect>
                        <rect id="Rectangle-Copy-2" fill="#747474" x="3.38461538" y="1.28571429" width="1.07692308" height="2.85714286"></rect>
                        <rect id="Rectangle-Copy-3" fill="#747474" x="5.69230769" y="1.28571429" width="1.07692308" height="2.85714286"></rect>
                        <rect id="Rectangle-Copy-5" fill="#747474" x="8" y="1.28571429" width="1.07692308" height="2.85714286"></rect>
                        <ellipse id="Oval" fill="#747474" cx="13.8461538" cy="1.85714286" rx="1" ry="1"></ellipse>
                    </g>
                    <g id="server-copy-3" transform="translate(3.000000, 27.000000)">
                        <rect id="Rectangle" fill="#A7A7A7" x="0" y="0" width="16" height="5" rx="1"></rect>
                        <rect id="Rectangle" fill="#747474" x="1.07692308" y="1.28571429" width="1.07692308" height="2.85714286"></rect>
                        <rect id="Rectangle-Copy-2" fill="#747474" x="3.38461538" y="1.28571429" width="1.07692308" height="2.85714286"></rect>
                        <rect id="Rectangle-Copy-3" fill="#747474" x="5.69230769" y="1.28571429" width="1.07692308" height="2.85714286"></rect>
                        <rect id="Rectangle-Copy-5" fill="#747474" x="8" y="1.28571429" width="1.07692308" height="2.85714286"></rect>
                        <ellipse id="Oval" fill="#747474" cx="13.8461538" cy="1.85714286" rx="1" ry="1"></ellipse>
                    </g>
                    <g id="server-copy-2" transform="translate(3.000000, 11.000000)">
                        <rect id="Rectangle" fill="#A7A7A7" x="0" y="0" width="16" height="5" rx="1"></rect>
                        <rect id="Rectangle" fill="#747474" x="1.07692308" y="1.28571429" width="1.07692308" height="2.85714286"></rect>
                        <rect id="Rectangle-Copy-2" fill="#747474" x="3.38461538" y="1.28571429" width="1.07692308" height="2.85714286"></rect>
                        <rect id="Rectangle-Copy-3" fill="#747474" x="5.69230769" y="1.28571429" width="1.07692308" height="2.85714286"></rect>
                        <rect id="Rectangle-Copy-5" fill="#747474" x="8" y="1.28571429" width="1.07692308" height="2.85714286"></rect>
                        <ellipse id="Oval" fill="#747474" cx="13.8461538" cy="1.85714286" rx="1" ry="1"></ellipse>
                    </g>
                </g>
            </g>
        </g>
    </g>
</svg>