<?xml version="1.0" encoding="UTF-8"?>
<svg width="102px" height="102px" viewBox="0 0 102 102" version="1.1" xmlns="http://www.w3.org/2000/svg" xmlns:xlink="http://www.w3.org/1999/xlink">
    <title>Learn how Microsoft safeguards customer data/understand-microsoft-audit-logging-and-monitoring</title>
    <defs>
        <rect id="path-1" x="0" y="0" width="94.3396226" height="94.3396226" rx="47.1698113"></rect>
        <filter x="-2.9%" y="-2.9%" width="106.4%" height="106.4%" filterUnits="objectBoundingBox" id="filter-3">
            <feMorphology radius="2.5" operator="dilate" in="SourceAlpha" result="shadowSpreadOuter1"></feMorphology>
            <feOffset dx="0.5" dy="0.5" in="shadowSpreadOuter1" result="shadowOffsetOuter1"></feOffset>
            <feMorphology radius="1" operator="erode" in="SourceAlpha" result="shadowInner"></feMorphology>
            <feOffset dx="0.5" dy="0.5" in="shadowInner" result="shadowInner"></feOffset>
            <feComposite in="shadowOffsetOuter1" in2="shadowInner" operator="out" result="shadowOffsetOuter1"></feComposite>
            <feColorMatrix values="0 0 0 0 0.821822822   0 0 0 0 0.831640661   0 0 0 0 0.835737288  0 0 0 1 0" type="matrix" in="shadowOffsetOuter1"></feColorMatrix>
        </filter>
        <linearGradient x1="77.8299825%" y1="11.1997378%" x2="-99.6885927%" y2="253.807911%" id="linearGradient-4">
            <stop stop-color="#FFFFFF" offset="0%"></stop>
            <stop stop-color="#000000" stop-opacity="0.5" offset="100%"></stop>
        </linearGradient>
        <rect id="path-5" x="0" y="0" width="94.3396226" height="94.3396226"></rect>
        <path d="M48.1132075,0.739331515 C74.2770768,0.739331515 95.4870836,21.9493383 95.4870836,48.1132075 C95.4870836,74.2770768 74.2770768,95.4870836 48.1132075,95.4870836 C21.9493383,95.4870836 0.739331515,74.2770768 0.739331515,48.1132075 C0.739331515,21.9493383 21.9493383,0.739331515 48.1132075,0.739331515 Z M48.1132075,4.71698113 C24.1461335,4.71698113 4.71698113,24.1461335 4.71698113,48.1132075 C4.71698113,72.0802816 24.1461335,91.509434 48.1132075,91.509434 C72.0802816,91.509434 91.509434,72.0802816 91.509434,48.1132075 C91.509434,24.1461335 72.0802816,4.71698113 48.1132075,4.71698113 Z" id="path-6"></path>
        <linearGradient x1="50%" y1="100%" x2="50%" y2="0%" id="linearGradient-8">
            <stop stop-color="#D2EBFF" offset="0%"></stop>
            <stop stop-color="#F0FFFD" offset="100%"></stop>
        </linearGradient>
        <linearGradient x1="50%" y1="-9.93901477%" x2="50%" y2="100%" id="linearGradient-9">
            <stop stop-color="#FFFFFF" offset="0%"></stop>
            <stop stop-color="#CBCBCB" offset="100%"></stop>
        </linearGradient>
    </defs>
    <g id="Badges" stroke="none" stroke-width="1" fill="none" fill-rule="evenodd">
        <g id="Learn-how-Microsoft-safeguards-customer-data" transform="translate(-159.000000, -1269.000000)">
            <g id="Learn-how-Microsoft-safeguards-customer-data/understand-microsoft-audit-logging-and-monitoring" transform="translate(160.000000, 1270.000000)">
                <g id="Badge-Plates/Circle">
                    <g id="BG" transform="translate(2.830189, 2.830189)">
                        <mask id="mask-2" fill="white">
                            <use xlink:href="#path-1"></use>
                        </mask>
                        <g>
                            <use fill="black" fill-opacity="1" filter="url(#filter-3)" xlink:href="#path-1"></use>
                            <rect stroke="#F2F1F0" stroke-width="2.5" x="-1.25" y="-1.25" width="96.8396226" height="96.8396226" rx="48.4198113"></rect>
                        </g>
                        <g id="Colors/Microsoft-365/BG-Solid-Badge" mask="url(#mask-2)">
                            <g id="Rectangle">
                                <use fill="#0078D4" xlink:href="#path-5"></use>
                                <use fill-opacity="0.4" fill="url(#linearGradient-4)" xlink:href="#path-5"></use>
                            </g>
                        </g>
                    </g>
                    <g id="Border" transform="translate(1.886792, 1.886792)">
                        <mask id="mask-7" fill="white">
                            <use xlink:href="#path-6"></use>
                        </mask>
                        <use id="Boarder" fill="#0078D4" fill-rule="nonzero" xlink:href="#path-6"></use>
                        <g id="Colors/Microsoft-365/Border" mask="url(#mask-7)" fill="#0076D7">
                            <g transform="translate(-1.886792, -1.886792)" id="Microsoft-365/Border">
                                <rect x="0" y="0" width="100" height="100"></rect>
                            </g>
                        </g>
                    </g>
                </g>
                <g id="Group-18" transform="translate(22.752815, 16.705882)">
                    <g id="Group" fill-rule="nonzero">
                        <path d="M31.728792,0.0614439324 L2.67409439,0.0614439324 C1.40198231,0.0614439324 0.370731707,1.0760548 0.370731707,2.32764073 L0.370731707,63.5547122 C0.370731707,64.8062981 1.40198231,65.820909 2.67409439,65.820909 L52.7015154,65.820909 C53.9736275,65.820909 55.004878,64.8062981 55.004878,63.5547122 L55.004878,23.0414747 C55.004878,21.7898887 53.9736275,20.7752779 52.7015154,20.7752779 L36.0930582,20.7752779 C34.8432638,20.7752779 33.8301054,19.7784672 33.8301054,18.5488389 L33.8301054,2.32764073 C33.8546844,1.14227117 32.9307923,0.145884159 31.728792,0.0614439324 Z" id="Path" fill="url(#linearGradient-8)"></path>
                        <path d="M55.3170732,22.1848739 L32.7804878,0 L32.7804878,17.9752204 C32.7804878,20.3001479 34.6842563,22.1848739 37.0326737,22.1848739 L55.3170732,22.1848739 Z" id="Path" fill="#92C4FC"></path>
                    </g>
                    <path d="M46.3675426,31.8431373 L22.6574257,31.8431373 C21.7997832,31.8431373 21.1045267,32.5491255 21.1045267,33.4200062 C21.1045267,34.2908868 21.7997832,34.9968751 22.6574257,34.9968751 L46.5190449,34.9968751 C47.3766874,34.9968751 48.0719439,34.2908868 48.0719439,33.4200062 C48.0719439,32.5491255 47.3766874,31.8431373 46.5190449,31.8431373 L46.3675426,31.8431373 Z M46.3675426,41.2274304 L22.6574257,41.2274304 C22.0518625,41.1305088 21.4468201,41.4044157 21.1130629,41.926574 C20.7793058,42.4487324 20.7793058,43.121406 21.1130629,43.6435644 C21.4468201,44.1657227 22.0518625,44.4396296 22.6574257,44.342708 L46.5190449,44.342708 C47.1246081,44.4396296 47.7296505,44.1657227 48.0634076,43.6435644 C48.3971648,43.121406 48.3971648,42.4487324 48.0634076,41.926574 C47.7296505,41.4044157 47.1246081,41.1305088 46.5190449,41.2274304 L46.3675426,41.2274304 Z M46.3675426,50.6501837 L22.6574257,50.6501837 C21.7997832,50.6501837 21.1045267,51.356172 21.1045267,52.2270526 C21.1045267,53.0979333 21.7997832,53.8039216 22.6574257,53.8039216 L46.5190449,53.8039216 C47.3766874,53.8039216 48.0719439,53.0979333 48.0719439,52.2270526 C48.0719439,51.356172 47.3766874,50.6501837 46.5190449,50.6501837 L46.3675426,50.6501837 Z" id="Shape" fill="#83B9F9" fill-rule="nonzero"></path>
                    <path d="M9.27806578,33.438221 L14.6981603,28.0181264 C14.9445071,27.7717796 15.3416531,27.7717796 15.5879999,28.0181264 L16.2858281,28.7159546 C16.5321749,28.9623015 16.5321749,29.3594474 16.2858281,29.5917554 L9.72998763,36.1616231 C9.48364078,36.40797 9.08649487,36.40797 8.84014801,36.1616231 L5.66476615,32.9862411 C5.43200605,32.753481 5.43200605,32.3567872 5.66476615,32.1104404 L6.3766331,31.4126122 C6.6093932,31.1662654 7.00608699,31.1662654 7.25243384,31.4126122 L9.27806578,33.438221 Z" id="Fill-1" fill="#83B9F9"></path>
                    <path d="M9.27806578,43.3205739 L14.6981603,37.9004794 C14.9445071,37.6541325 15.3416531,37.6541325 15.5879999,37.9004794 L16.2858281,38.5983076 C16.5321749,38.8446544 16.5321749,39.2418003 16.2858281,39.4741083 L9.72998763,46.0439761 C9.48364078,46.2903229 9.08649487,46.2903229 8.84014801,46.0439761 L5.66476615,42.8685941 C5.43200605,42.635834 5.43200605,42.2391402 5.66476615,41.9927933 L6.3766331,41.2949651 C6.6093932,41.0486183 7.00608699,41.0486183 7.25243384,41.2949651 L9.27806578,43.3205739 Z" id="Fill-1" fill="#83B9F9"></path>
                    <path d="M9.27806578,53.2029268 L14.6981603,47.7828323 C14.9445071,47.5364855 15.3416531,47.5364855 15.5879999,47.7828323 L16.2858281,48.4806605 C16.5321749,48.7270074 16.5321749,49.1241533 16.2858281,49.3564613 L9.72998763,55.926329 C9.48364078,56.1726758 9.08649487,56.1726758 8.84014801,55.926329 L5.66476615,52.750947 C5.43200605,52.5181869 5.43200605,52.1214931 5.66476615,51.8751463 L6.3766331,51.1773181 C6.6093932,50.9309712 7.00608699,50.9309712 7.25243384,51.1773181 L9.27806578,53.2029268 Z" id="Fill-1" fill="#83B9F9"></path>
                </g>
                <g id="Group-13" transform="translate(47.000000, 50.000000) scale(-1, 1) rotate(-2.000000) translate(-47.000000, -50.000000) translate(12.500000, 13.500000)" fill-rule="nonzero">
                    <path d="M0.355883278,57.4509595 L22.915061,57.7690316 L22.9022739,65.1075982 L0.696482252,65.4602973 C0.609594665,64.8607941 0.499686977,63.476041 0.366759188,61.306038 C0.2338314,59.136035 0.230206097,57.8510089 0.355883278,57.4509595 Z" id="Rectangle" fill="url(#linearGradient-9)" transform="translate(11.589665, 61.455628) rotate(-45.000000) translate(-11.589665, -61.455628) "></path>
                    <path d="M37,0 C54.673112,0 69,14.326888 69,32 C69,49.673112 54.673112,64 37,64 C19.326888,64 5,49.673112 5,32 C5,14.326888 19.326888,0 37,0 Z M37,6.15384615 C22.7255634,6.15384615 11.1538462,17.7255634 11.1538462,32 C11.1538462,46.2744366 22.7255634,57.8461538 37,57.8461538 C51.2744366,57.8461538 62.8461538,46.2744366 62.8461538,32 C62.8461538,17.7255634 51.2744366,6.15384615 37,6.15384615 Z" id="Combined-Shape" fill="#50E6FF"></path>
                </g>
            </g>
        </g>
    </g>
</svg>