<?xml version="1.0" encoding="UTF-8"?>
<svg width="100px" height="100px" viewBox="0 0 100 100" version="1.1" xmlns="http://www.w3.org/2000/svg" xmlns:xlink="http://www.w3.org/1999/xlink">
    <!-- Generator: Sketch 58 (84663) - https://sketch.com -->
    <title>Extend Microsoft Office/understand-microsoft-office-js-apis</title>
    <desc>Created with Sketch.</desc>
    <defs>
        <rect id="path-1" x="0" y="0" width="96" height="96" rx="48"></rect>
        <filter x="-6.1%" y="-10.0%" width="112.1%" height="120.0%" filterUnits="objectBoundingBox" id="filter-3">
            <feOffset dx="0" dy="2" in="SourceAlpha" result="shadowOffsetOuter1"></feOffset>
            <feColorMatrix values="0 0 0 0 0   0 0 0 0 0   0 0 0 0 0  0 0 0 0.101590806 0" type="matrix" in="shadowOffsetOuter1" result="shadowMatrixOuter1"></feColorMatrix>
            <feMerge>
                <feMergeNode in="shadowMatrixOuter1"></feMergeNode>
                <feMergeNode in="SourceGraphic"></feMergeNode>
            </feMerge>
        </filter>
        <filter x="-16.0%" y="-16.0%" width="132.0%" height="132.0%" filterUnits="objectBoundingBox" id="filter-4">
            <feOffset dx="0" dy="2" in="SourceAlpha" result="shadowOffsetOuter1"></feOffset>
            <feColorMatrix values="0 0 0 0 0   0 0 0 0 0   0 0 0 0 0  0 0 0 0.1 0" type="matrix" in="shadowOffsetOuter1" result="shadowMatrixOuter1"></feColorMatrix>
            <feMerge>
                <feMergeNode in="shadowMatrixOuter1"></feMergeNode>
                <feMergeNode in="SourceGraphic"></feMergeNode>
            </feMerge>
        </filter>
    </defs>
    <g id="Badges" stroke="none" stroke-width="1" fill="none" fill-rule="evenodd">
        <g id="Extend-Microsoft-Office" transform="translate(-50.000000, -460.000000)">
            <g id="Extend-Microsoft-Office/understand-microsoft-office-js-apis" transform="translate(50.000000, 460.000000)">
                <g id="Mask" transform="translate(2.000000, 2.000000)">
                    <mask id="mask-2" fill="white">
                        <use xlink:href="#path-1"></use>
                    </mask>
                    <use id="BG" fill="#55A2FF" xlink:href="#path-1"></use>
                    <g id="Computer" filter="url(#filter-3)" mask="url(#mask-2)">
                        <g transform="translate(15.000000, 26.000000)">
                            <path d="M0,32.895917 L0,34.9519118 C0,37.2135061 1.85039533,39.0639015 4.11198963,39.0639015 L61.6798444,39.0639015 C63.9414387,39.0639015 65.791834,37.2135061 65.791834,34.9519118 L65.791834,32.895917 L0,32.895917" id="Fill-1415" fill="#E1E4E1"></path>
                            <path d="M10.2799741,0 C8.01837977,0 6.16798444,1.85039533 6.16798444,4.11198963 L6.16798444,32.895917 L59.6238496,32.895917 L59.6238496,4.11198963 C59.6238496,1.85039533 57.7734543,0 55.51186,0 L10.2799741,0 Z M55.51186,2.05599481 C56.6447131,2.05599481 57.5678548,2.97810849 57.5678548,4.11198963 L57.5678548,30.8399222 L8.22397925,30.8399222 L8.22397925,4.11198963 C8.22397925,2.97810849 9.14609293,2.05599481 10.2799741,2.05599481 L55.51186,2.05599481 L55.51186,2.05599481 Z" id="Fill-1416" fill="#182A37"></path>
                            <path d="M8.22397925,4.11198963 C8.22397925,2.97810849 9.14609293,2.05599481 10.2799741,2.05599481 L55.51186,2.05599481 C56.6447131,2.05599481 57.5678548,2.97810849 57.5678548,4.11198963 L57.5678548,30.8399222 L8.22397925,30.8399222 L8.22397925,4.11198963" id="Fill-1417" fill="#30404D"></path>
                            <path d="M10.2799741,2.05599481 L32.2678106,2.05599481 L22.216052,30.8399222 L8.22397925,30.8399222 L8.22397925,4.11198963 C8.22397925,2.97810849 9.14609293,2.05599481 10.2799741,2.05599481" id="Fill-1418" fill="#384B58"></path>
                            <path d="M10.2799741,0 L32.895917,0 L32.2678106,2.05599481 L10.2799741,2.05599481 C9.14609293,2.05599481 8.22397925,2.97810849 8.22397925,4.11198963 L8.22397925,30.8399222 L22.216052,30.8399222 L21.5879455,32.895917 L6.16798444,32.895917 L6.16798444,4.11198963 C6.16798444,1.85039533 8.01837977,0 10.2799741,0" id="Fill-1419" fill="#30404D"></path>
                            <path d="M30.8399222,37.0079066 L0.57465055,37.0079066 C1.28910875,38.2291676 2.60186144,39.0639015 4.11198963,39.0639015 L61.6798444,39.0639015 C63.9414387,39.0639015 65.791834,37.2135061 65.791834,34.9519118 L65.791834,32.895917 L32.895917,32.895917 L32.895917,34.9519118 C32.895917,36.087849 31.9758593,37.0079066 30.8399222,37.0079066" id="Fill-1420" fill="#CDD6D8"></path>
                            <path d="M28.7839274,34.9519118 L37.0079066,34.9519118 C38.1428158,34.9519118 39.0639015,34.0308262 39.0639015,32.895917 L26.7279326,32.895917 C26.7279326,34.0308262 27.6479903,34.9519118 28.7839274,34.9519118" id="Fill-1421" fill="#AAB0B1"></path>
                        </g>
                    </g>
                    <path d="M29.7470703,47.140625 C28.8212844,47.140625 28.082034,46.8603544 27.5292969,46.2998047 C26.9765597,45.739255 26.7001953,44.9960984 26.7001953,44.0703125 C26.7001953,43.062495 26.9882784,42.2753935 27.5644531,41.7089844 C28.1406279,41.1425753 28.9169873,40.859375 29.8935547,40.859375 C30.8310594,40.859375 31.5615208,41.1347629 32.0849609,41.6855469 C32.6084011,42.2363309 32.8701172,42.9999951 32.8701172,43.9765625 C32.8701172,44.9335985 32.5878934,45.7001924 32.0234375,46.2763672 C31.4589816,46.8525419 30.7001953,47.140625 29.7470703,47.140625 Z M29.8115234,41.9433594 C29.2802708,41.9433594 28.8603531,42.1289044 28.5517578,42.5 C28.2431625,42.8710956 28.0888672,43.3828092 28.0888672,44.0351562 C28.0888672,44.6640656 28.2451156,45.1591779 28.5576172,45.5205078 C28.8701188,45.8818377 29.2880833,46.0625 29.8115234,46.0625 C30.3466824,46.0625 30.7578111,45.8847674 31.0449219,45.5292969 C31.3320327,45.1738263 31.4755859,44.667972 31.4755859,44.0117188 C31.4755859,43.3515592 31.3320327,42.8417987 31.0449219,42.4824219 C30.7578111,42.1230451 30.3466824,41.9433594 29.8115234,41.9433594 Z M37.4462891,39.2246094 C37.2626944,39.1191401 37.0537121,39.0664062 36.8193359,39.0664062 C36.1591764,39.0664062 35.8291016,39.4394494 35.8291016,40.1855469 L35.8291016,41 L37.2236328,41 L37.2236328,42.0664062 L35.8349609,42.0664062 L35.8349609,47 L34.4755859,47 L34.4755859,42.0664062 L33.4501953,42.0664062 L33.4501953,41 L34.4755859,41 L34.4755859,40.0273438 C34.4755859,39.3945281 34.6826151,38.8955096 35.0966797,38.5302734 C35.5107443,38.1650372 36.0283172,37.9824219 36.6494141,37.9824219 C36.9853532,37.9824219 37.2509756,38.0195309 37.4462891,38.09375 L37.4462891,39.2246094 Z M41.5830078,39.2246094 C41.3994131,39.1191401 41.1904309,39.0664062 40.9560547,39.0664062 C40.2958951,39.0664062 39.9658203,39.4394494 39.9658203,40.1855469 L39.9658203,41 L41.3603516,41 L41.3603516,42.0664062 L39.9716797,42.0664062 L39.9716797,47 L38.6123047,47 L38.6123047,42.0664062 L37.5869141,42.0664062 L37.5869141,41 L38.6123047,41 L38.6123047,40.0273438 C38.6123047,39.3945281 38.8193339,38.8955096 39.2333984,38.5302734 C39.647463,38.1650372 40.165036,37.9824219 40.7861328,37.9824219 C41.122072,37.9824219 41.3876943,38.0195309 41.5830078,38.09375 L41.5830078,39.2246094 Z M43.0126953,39.7402344 C42.7900379,39.7402344 42.5996102,39.6679695 42.4414062,39.5234375 C42.2832023,39.3789055 42.2041016,39.1953136 42.2041016,38.9726562 C42.2041016,38.7499989 42.2832023,38.5644539 42.4414062,38.4160156 C42.5996102,38.2675774 42.7900379,38.1933594 43.0126953,38.1933594 C43.2431652,38.1933594 43.4384758,38.2675774 43.5986328,38.4160156 C43.7587899,38.5644539 43.8388672,38.7499989 43.8388672,38.9726562 C43.8388672,39.1835948 43.7587899,39.3642571 43.5986328,39.5146484 C43.4384758,39.6650398 43.2431652,39.7402344 43.0126953,39.7402344 Z M43.6865234,47 L42.3271484,47 L42.3271484,41 L43.6865234,41 L43.6865234,47 Z M49.7568359,46.7246094 C49.2763648,47.0019545 48.7080111,47.140625 48.0517578,47.140625 C47.1611284,47.140625 46.4423855,46.8623075 45.8955078,46.3056641 C45.3486301,45.7490207 45.0751953,45.0273482 45.0751953,44.140625 C45.0751953,43.1523388 45.3691377,42.3584014 45.9570312,41.7587891 C46.5449248,41.1591767 47.3310498,40.859375 48.3154297,40.859375 C48.8623074,40.859375 49.3447245,40.9550772 49.7626953,41.1464844 L49.7626953,42.4121094 C49.3447245,42.0996078 48.8994164,41.9433594 48.4267578,41.9433594 C47.8525362,41.9433594 47.3818378,42.1376934 47.0146484,42.5263672 C46.6474591,42.915041 46.4638672,43.423825 46.4638672,44.0527344 C46.4638672,44.6738312 46.636717,45.1640607 46.9824219,45.5234375 C47.3281267,45.8828143 47.7919893,46.0625 48.3740234,46.0625 C48.8623071,46.0625 49.32324,45.8886736 49.7568359,45.5410156 L49.7568359,46.7246094 Z M56.1845703,44.3691406 L52.0947266,44.3691406 C52.1103516,44.9238309 52.2812484,45.351561 52.6074219,45.6523438 C52.9335954,45.9531265 53.3818331,46.1035156 53.9521484,46.1035156 C54.5927766,46.1035156 55.1806614,45.9121113 55.7158203,45.5292969 L55.7158203,46.625 C55.1689426,46.9687517 54.4462936,47.140625 53.5478516,47.140625 C52.6650346,47.140625 51.9726588,46.8681668 51.4707031,46.3232422 C50.9687475,45.7783176 50.7177734,45.0117237 50.7177734,44.0234375 C50.7177734,43.0898391 50.9941379,42.3291045 51.546875,41.7412109 C52.0996121,41.1533174 52.7861287,40.859375 53.6064453,40.859375 C54.4267619,40.859375 55.0615212,41.1230442 55.5107422,41.6503906 C55.9599632,42.177737 56.1845703,42.9101516 56.1845703,43.8476562 L56.1845703,44.3691406 Z M54.8720703,43.4082031 C54.868164,42.9199194 54.7529308,42.5400404 54.5263672,42.2685547 C54.2998036,41.997069 53.9873067,41.8613281 53.5888672,41.8613281 C53.1982402,41.8613281 52.8671889,42.0039048 52.5957031,42.2890625 C52.3242174,42.5742202 52.1572269,42.9472633 52.0947266,43.4082031 L54.8720703,43.4082031 Z M58.0419922,47.1289062 C57.807616,47.1289062 57.6083993,47.0517586 57.4443359,46.8974609 C57.2802726,46.7431633 57.1982422,46.5585948 57.1982422,46.34375 C57.1982422,46.1249989 57.2802726,45.9375008 57.4443359,45.78125 C57.6083993,45.6249992 57.807616,45.546875 58.0419922,45.546875 C58.2802746,45.546875 58.482421,45.6249992 58.6484375,45.78125 C58.814454,45.9375008 58.8974609,46.1249989 58.8974609,46.34375 C58.8974609,46.5585948 58.814454,46.7431633 58.6484375,46.8974609 C58.482421,47.0517586 58.2802746,47.1289062 58.0419922,47.1289062 Z M61.7333984,46.7480469 C61.7333984,47.7324268 61.5263693,48.4912083 61.1123047,49.0244141 C60.6982401,49.5576199 60.1064492,49.8242188 59.3369141,49.8242188 C59.0517564,49.8242188 58.7744154,49.7617194 58.5048828,49.6367188 L58.5048828,48.4707031 C58.7587903,48.6464853 58.9990223,48.734375 59.2255859,48.734375 C59.9912148,48.734375 60.3740234,48.0586005 60.3740234,46.7070312 L60.3740234,41 L61.7333984,41 L61.7333984,46.7480469 Z M61.0654297,39.7402344 C60.8427723,39.7402344 60.6523445,39.6679695 60.4941406,39.5234375 C60.3359367,39.3789055 60.2568359,39.1953136 60.2568359,38.9726562 C60.2568359,38.7499989 60.3359367,38.5644539 60.4941406,38.4160156 C60.6523445,38.2675774 60.8427723,38.1933594 61.0654297,38.1933594 C61.2919933,38.1933594 61.4853508,38.2675774 61.6455078,38.4160156 C61.8056649,38.5644539 61.8857422,38.7499989 61.8857422,38.9726562 C61.8857422,39.1835948 61.8056649,39.3642571 61.6455078,39.5146484 C61.4853508,39.6650398 61.2919933,39.7402344 61.0654297,39.7402344 Z M63.1337891,46.8125 L63.1337891,45.5527344 C63.6416041,45.9394551 64.2021454,46.1328125 64.8154297,46.1328125 C65.6357463,46.1328125 66.0458984,45.8906274 66.0458984,45.40625 C66.0458984,45.2695306 66.0107425,45.1533208 65.9404297,45.0576172 C65.8701168,44.9619136 65.7753912,44.8769535 65.65625,44.8027344 C65.5371088,44.7285153 65.3964852,44.6621097 65.234375,44.6035156 L64.6923828,44.4042969 L64.6923828,44.4042969 C64.4462878,44.3066401 64.2246104,44.2031255 64.0273438,44.09375 C63.8300771,43.9843745 63.6660163,43.8603523 63.5351562,43.7216797 C63.4042962,43.5830071 63.3056644,43.4257821 63.2392578,43.25 C63.1728512,43.0742179 63.1396484,42.8691418 63.1396484,42.6347656 C63.1396484,42.3457017 63.2080071,42.0908214 63.3447266,41.8701172 C63.481446,41.649413 63.6650379,41.4638679 63.8955078,41.3134766 C64.1259777,41.1630852 64.3876938,41.0498051 64.6806641,40.9736328 C64.9736343,40.8974606 65.2763656,40.859375 65.5888672,40.859375 C66.1435575,40.859375 66.6396462,40.9433585 67.0771484,41.1113281 L67.0771484,42.3007812 C66.6552713,42.0117173 66.1709012,41.8671875 65.6240234,41.8671875 C65.4521476,41.8671875 65.2968757,41.8847654 65.1582031,41.9199219 C65.0195306,41.9550783 64.9013677,42.0039059 64.8037109,42.0664062 C64.7060542,42.1289066 64.6298831,42.2041011 64.5751953,42.2919922 C64.5205075,42.3798833 64.4931641,42.476562 64.4931641,42.5820312 C64.4931641,42.7109381 64.5205075,42.8203121 64.5751953,42.9101562 C64.6298831,43.0000004 64.710937,43.0791012 64.8183594,43.1474609 C64.9257818,43.2158207 65.0546867,43.27832 65.2050781,43.3349609 C65.3554695,43.3916018 65.5283193,43.4531247 65.7236328,43.5195312 C65.9814466,43.6250005 66.2128896,43.7324213 66.4179688,43.8417969 C66.6230479,43.9511724 66.7978508,44.0751946 66.9423828,44.2138672 C67.0869148,44.3525398 67.1982418,44.5126944 67.2763672,44.6943359 C67.3544926,44.8759775 67.3935547,45.0917956 67.3935547,45.3417969 C67.3935547,45.6464859 67.3232429,45.9121082 67.1826172,46.1386719 C67.0419915,46.3652355 66.8544934,46.5527336 66.6201172,46.7011719 C66.385741,46.8496101 66.1152359,46.9599606 65.8085938,47.0322266 C65.5019516,47.1044925 65.1787126,47.140625 64.8388672,47.140625 C64.1826139,47.140625 63.6142602,47.0312511 63.1337891,46.8125 Z" id="office.js" fill="#E1E4E1" fill-rule="nonzero" mask="url(#mask-2)"></path>
                    <g id="Check" filter="url(#filter-4)" mask="url(#mask-2)">
                        <g transform="translate(59.000000, 52.000000)">
                            <path d="M12.5,0 C5.60742188,0 0,5.60742188 0,12.5 C0,19.3921875 5.60742188,25 12.5,25 C19.3925781,25 25,19.3921875 25,12.5 C25,5.60742188 19.3925781,0 12.5,0" id="Fill-109" fill="#7CB65A"></path>
                            <path d="M18.0160156,8.93710938 C17.5585938,8.47929687 16.8164062,8.47929687 16.3589844,8.93710938 L11.71875,13.5773438 L9.42226563,11.2808594 C8.96484375,10.8230469 8.22265625,10.8230469 7.76523438,11.2808594 C7.30742188,11.7382812 7.30742188,12.4804687 7.76523438,12.9378906 L10.8902344,16.0628906 C11.11875,16.2917969 11.41875,16.40625 11.71875,16.40625 C12.01875,16.40625 12.31875,16.2917969 12.5472656,16.0628906 L18.0160156,10.5941406 C18.4738281,10.1367187 18.4738281,9.39453125 18.0160156,8.93710938" id="Fill-110" fill="#FFFFFE"></path>
                        </g>
                    </g>
                </g>
                <g id="Azure-Border" stroke="#0078D4" stroke-width="4">
                    <rect x="2" y="2" width="96" height="96" rx="48"></rect>
                </g>
            </g>
        </g>
    </g>
</svg>