<?xml version="1.0" encoding="UTF-8"?>
<svg width="102px" height="102px" viewBox="0 0 102 102" version="1.1" xmlns="http://www.w3.org/2000/svg" xmlns:xlink="http://www.w3.org/1999/xlink">
    <title>Learn how Microsoft safeguards customer data/understand-microsoft-365-resiliency-and-continuity</title>
    <defs>
        <rect id="path-1" x="0" y="0" width="94.3396226" height="94.3396226" rx="47.1698113"></rect>
        <filter x="-2.9%" y="-2.9%" width="106.4%" height="106.4%" filterUnits="objectBoundingBox" id="filter-3">
            <feMorphology radius="2.5" operator="dilate" in="SourceAlpha" result="shadowSpreadOuter1"></feMorphology>
            <feOffset dx="0.5" dy="0.5" in="shadowSpreadOuter1" result="shadowOffsetOuter1"></feOffset>
            <feMorphology radius="1" operator="erode" in="SourceAlpha" result="shadowInner"></feMorphology>
            <feOffset dx="0.5" dy="0.5" in="shadowInner" result="shadowInner"></feOffset>
            <feComposite in="shadowOffsetOuter1" in2="shadowInner" operator="out" result="shadowOffsetOuter1"></feComposite>
            <feColorMatrix values="0 0 0 0 0.821822822   0 0 0 0 0.831640661   0 0 0 0 0.835737288  0 0 0 1 0" type="matrix" in="shadowOffsetOuter1"></feColorMatrix>
        </filter>
        <linearGradient x1="77.8299825%" y1="11.1997378%" x2="-99.6885927%" y2="253.807911%" id="linearGradient-4">
            <stop stop-color="#FFFFFF" offset="0%"></stop>
            <stop stop-color="#000000" stop-opacity="0.5" offset="100%"></stop>
        </linearGradient>
        <rect id="path-5" x="0" y="0" width="94.3396226" height="94.3396226"></rect>
        <path d="M48.1132075,0.739331515 C74.2770768,0.739331515 95.4870836,21.9493383 95.4870836,48.1132075 C95.4870836,74.2770768 74.2770768,95.4870836 48.1132075,95.4870836 C21.9493383,95.4870836 0.739331515,74.2770768 0.739331515,48.1132075 C0.739331515,21.9493383 21.9493383,0.739331515 48.1132075,0.739331515 Z M48.1132075,4.71698113 C24.1461335,4.71698113 4.71698113,24.1461335 4.71698113,48.1132075 C4.71698113,72.0802816 24.1461335,91.509434 48.1132075,91.509434 C72.0802816,91.509434 91.509434,72.0802816 91.509434,48.1132075 C91.509434,24.1461335 72.0802816,4.71698113 48.1132075,4.71698113 Z" id="path-6"></path>
        <linearGradient x1="100%" y1="50%" x2="0%" y2="27.8549351%" id="linearGradient-8">
            <stop stop-color="#D02716" offset="0%"></stop>
            <stop stop-color="#D02716" offset="3.99714103%"></stop>
            <stop stop-color="#DA5C46" offset="100%"></stop>
        </linearGradient>
        <linearGradient x1="50%" y1="95.4865071%" x2="50%" y2="-5.30956676%" id="linearGradient-9">
            <stop stop-color="#063963" offset="0%"></stop>
            <stop stop-color="#1B78C4" offset="100%"></stop>
        </linearGradient>
    </defs>
    <g id="Badges" stroke="none" stroke-width="1" fill="none" fill-rule="evenodd">
        <g id="Learn-how-Microsoft-safeguards-customer-data" transform="translate(-159.000000, -1079.000000)">
            <g id="Learn-how-Microsoft-safeguards-customer-data/understand-microsoft-365-resiliency-and-continuity" transform="translate(160.000000, 1080.000000)">
                <g id="Badge-Plates/Circle">
                    <g id="BG" transform="translate(2.830189, 2.830189)">
                        <mask id="mask-2" fill="white">
                            <use xlink:href="#path-1"></use>
                        </mask>
                        <g>
                            <use fill="black" fill-opacity="1" filter="url(#filter-3)" xlink:href="#path-1"></use>
                            <rect stroke="#F2F1F0" stroke-width="2.5" x="-1.25" y="-1.25" width="96.8396226" height="96.8396226" rx="48.4198113"></rect>
                        </g>
                        <g id="Colors/Microsoft-365/BG-Solid-Badge" mask="url(#mask-2)">
                            <g id="Rectangle">
                                <use fill="#0078D4" xlink:href="#path-5"></use>
                                <use fill-opacity="0.4" fill="url(#linearGradient-4)" xlink:href="#path-5"></use>
                            </g>
                        </g>
                    </g>
                    <g id="Border" transform="translate(1.886792, 1.886792)">
                        <mask id="mask-7" fill="white">
                            <use xlink:href="#path-6"></use>
                        </mask>
                        <use id="Boarder" fill="#0078D4" fill-rule="nonzero" xlink:href="#path-6"></use>
                        <g id="Colors/Microsoft-365/Border" mask="url(#mask-7)" fill="#0076D7">
                            <g transform="translate(-1.886792, -1.886792)" id="Microsoft-365/Border">
                                <rect x="0" y="0" width="100" height="100"></rect>
                            </g>
                        </g>
                    </g>
                </g>
                <path d="M65.2737577,27.825 C70.9298352,36.825 73.7578739,36.825 75.643233,36.825 C77.5285922,36.825 79.4139513,36.825 82.2419901,32.325 C85.0700288,27.825 88.9305306,29.8851067 90.1158335,32.492812 C90.604535,33.5679712 91.1918668,35.1979309 91.664338,37.3296723 L91.7572375,37.7626953 C92.2223822,38.929996 92.2708333,40.0193764 92.2736173,40.3629855 L92.2727577,40.468 L92.2737577,40.4746094 C87.5593675,41.4746094 89.7834267,49.824 86.0127084,50.824 C82.2419901,51.824 77.5285922,48.824 75.643233,49.824 C73.7578739,50.824 71.8725147,51.824 69.9871556,51.824 C68.1017964,51.824 65.2737577,47.824 65.2737577,43.824 C65.2737577,41.4988885 65.5125254,38.1591109 65.9906862,33.8046673 C65.6813762,32.0114843 65.44607,30.0184786 65.2737577,27.825 Z" id="Combined-Shape" fill="url(#linearGradient-8)" fill-rule="nonzero"></path>
                <g id="Legs" transform="translate(49.913820, 69.643426) rotate(-4.000000) translate(-49.913820, -69.643426) translate(36.413820, 55.143426)" fill="#30404D" fill-rule="nonzero">
                    <path d="M4.72004418,23.4001878 L4.38304418,18.8481878 C4.1198043,15.2948604 4.23713748,11.7235737 4.73304418,8.1951878 L5.49004418,2.8121878 C5.55921061,2.15813114 5.97960085,1.59386994 6.58652429,1.34045716 C7.19344774,1.08704438 7.8902667,1.18482981 8.40399784,1.59550537 C8.91772899,2.00618093 9.16657321,2.6643566 9.05304418,3.3121878 L8.36304418,8.2301878 C7.87676043,11.6898731 7.75442549,15.1909985 7.99804418,18.6761878 L8.44004418,25.0091878 C8.46704418,25.3881878 8.37404418,25.7471878 8.19404418,26.0511878 C7.88056645,26.6070256 7.29609057,26.9551997 6.65804418,26.9661878 L3.33504418,27.0241878 C2.36087243,27.0136074 1.57192444,26.2298865 1.55486857,25.2558066 C1.53781269,24.2817267 2.29883999,23.4708662 3.27204418,23.4261878 L4.72004418,23.4001878 L4.72004418,23.4001878 Z" id="Combined-Shape" transform="translate(5.317347, 14.112825) rotate(4.000000) translate(-5.317347, -14.112825) "></path>
                    <path d="M21.5983788,24.8780577 L21.2603788,20.3260577 C20.997139,16.7727303 21.1144721,13.2014436 21.6103788,9.67305767 L22.3673788,4.29005767 C22.442181,3.64067329 22.8631572,3.08288251 23.4671397,2.83288143 C24.0711223,2.58288035 24.7631666,2.6799685 25.2750409,3.08651515 C25.7869151,3.4930618 26.038154,4.14515883 25.9313788,4.79005767 L25.2403788,9.70705767 C24.7540251,13.1670723 24.6316901,16.6685366 24.8753788,20.1540577 L25.3183788,26.4870577 C25.3443788,26.8660577 25.2513788,27.2250577 25.0713788,27.5290577 C24.7578263,28.0842059 24.1738589,28.4319234 23.5363788,28.4430577 L20.2123788,28.5010577 C19.2382071,28.4904773 18.4492591,27.7067564 18.4322032,26.7326765 C18.4151473,25.7585966 19.1761746,24.9477361 20.1493788,24.9030577 L21.5983788,24.8780577 L21.5983788,24.8780577 Z" id="Combined-Shape-Copy" transform="translate(22.193759, 15.598537) scale(-1, 1) rotate(-4.000000) translate(-22.193759, -15.598537) "></path>
                </g>
                <g id="Arm" transform="translate(70.500016, 43.884459) rotate(8.000000) translate(-70.500016, -43.884459) translate(64.500016, 32.884459)" fill="#30404D" fill-rule="nonzero">
                    <path d="M2.01,17.403 L6.571,12.156 C7.26913224,11.3530667 7.21639622,10.1440935 6.451,9.405 L0.941,4.085 C0.226146499,3.39433354 0.206448169,2.25496423 0.897,1.54 C1.587,0.825 1.677,0.043 2.392,0.733 L10.554,9.498 C11.2143765,10.2069117 11.2716777,11.2872071 10.69,12.062 L6.032,18.261 C6.63093613,18.8563491 6.73545917,19.7880351 6.28333248,20.5012998 C5.83120578,21.2145645 4.94400488,21.5176131 4.15,21.23 L2.71,20.706 C1.86192802,20.3968401 1.37399127,19.5073498 1.569,18.626 C1.559,18.194 1.703,17.756 2.009,17.403 L2.01,17.403 Z" id="Combined-Shape"></path>
                </g>
                <g id="Arm-Copy" transform="translate(30.252735, 43.884555) scale(-1, 1) rotate(4.000000) translate(-30.252735, -43.884555) translate(24.252735, 32.884555)" fill="#30404D" fill-rule="nonzero">
                    <path d="M2.01,17.403 L6.571,12.156 C7.26913224,11.3530667 7.21639622,10.1440935 6.451,9.405 L0.941,4.085 C0.226146499,3.39433354 0.206448169,2.25496423 0.897,1.54 C1.587,0.825 1.677,0.043 2.392,0.733 L10.554,9.498 C11.2143765,10.2069117 11.2716777,11.2872071 10.69,12.062 L6.032,18.261 C6.63093613,18.8563491 6.73545917,19.7880351 6.28333248,20.5012998 C5.83120578,21.2145645 4.94400488,21.5176131 4.15,21.23 L2.71,20.706 C1.86192802,20.3968401 1.37399127,19.5073498 1.569,18.626 C1.559,18.194 1.703,17.756 2.009,17.403 L2.01,17.403 Z" id="Combined-Shape"></path>
                </g>
                <g id="Shield-w/-lock" transform="translate(31.200000, 20.000000)" fill-rule="nonzero">
                    <path d="M37.472641,20.966946 C37.472641,33.0348229 22.6649369,42.7525007 19.4241048,44.7330056 C19.0540572,44.967786 18.5821339,44.967786 18.2120863,44.7330056 C14.9712543,42.7789074 0.163550112,33.0612297 0.163550112,20.966946 L0.163550112,6.44324284 C0.163550112,5.81171786 0.666560877,5.29569941 1.29652396,5.28134659 C12.8370478,4.99087253 10.1758768,0 18.8180956,0 C27.4603143,0 24.7991433,4.99087253 36.3396672,5.28134659 C36.9696303,5.29569941 37.472641,5.81171786 37.472641,6.44324284 L37.472641,20.966946 Z" id="Path" fill="#0078D4"></path>
                    <path d="M36.0908228,20.7721478 C36.0908228,31.5751143 22.385288,40.2432088 19.3838822,41.9922605 C19.0419377,42.1965192 18.6102599,42.1965192 18.2683154,41.9922605 C15.2669095,40.2432088 1.5613747,31.5751143 1.5613747,20.7721478 L1.5613747,7.91147343 C1.50681065,7.60661874 1.59324507,7.29393936 1.7977849,7.05625173 C2.00232473,6.81856409 2.30433286,6.67984976 2.62381926,6.67684869 C13.3013871,6.49679925 10.8577646,2.07272727 18.8260988,2.07272727 C26.794433,2.07272727 24.3508105,6.49679925 35.0283783,6.67684869 C35.6092511,6.69040896 36.0768199,7.14319487 36.0908228,7.70570264 L36.0908228,20.7721478 Z" id="Path" fill="url(#linearGradient-9)"></path>
                    <path d="M26.2471496,18.5220435 L25.2044909,18.5220435 L25.2044909,14.6358476 C25.222611,12.8003244 24.5695496,11.0274062 23.3798382,9.68231625 C22.2105266,8.35479188 20.5664882,7.6 18.8442729,7.6 C17.1220577,7.6 15.4780193,8.35479188 14.3087077,9.68231625 C13.1166896,11.0258908 12.4632574,12.7998159 12.484055,14.6358476 L12.484055,18.5220435 L11.4413963,18.5220435 C11.1976002,18.4973555 10.9557896,18.5864138 10.7801082,18.7655943 C10.6044268,18.9447749 10.5126306,19.195968 10.5290699,19.4525411 L10.5290699,29.5238093 C10.5289597,29.7608964 10.6204097,29.9879 10.7825228,30.1529472 C10.9446358,30.3179944 11.1635581,30.4069807 11.3892634,30.3995717 L26.2471496,30.3995717 C26.4728548,30.4069807 26.6917771,30.3179944 26.8538902,30.1529472 C27.0160032,29.9879 27.1074533,29.7608964 27.107343,29.5238093 L27.107343,19.4525411 C27.1221718,19.2061117 27.0372274,18.9645606 26.8734292,18.787375 C26.709631,18.6101895 26.4822012,18.5138359 26.2471496,18.5220435 Z M22.2068472,18.5220435 L15.4295658,18.5220435 L15.4295658,14.5811125 C15.4310997,13.5572004 15.8147748,12.5746973 16.4982909,11.8443548 C17.0869732,11.1479963 17.9313861,10.7494785 18.8182065,10.7494785 C19.7050269,10.7494785 20.5494397,11.1479963 21.1381221,11.8443548 C21.2911979,12.0144946 21.430689,12.1975619 21.5551855,12.3917063 L21.5551855,12.3917063 C21.975217,13.0268384 22.2023901,13.7805376 22.2068472,14.5537449 L22.2068472,18.5220435 Z" id="Shape" fill="#FFBD02"></path>
                    <path d="M11.4057138,18.655036 L26.5510197,18.655036 C26.756596,18.6561511 26.9548232,18.7348768 27.1090047,18.8766391 L10.8477288,30.4 C10.6559222,30.2354799 10.5400449,29.9938719 10.5288803,29.7351907 L10.5288803,19.5968491 C10.5137646,19.347423 10.6003522,19.1029344 10.767319,18.9235941 C10.9342858,18.7442539 11.1661151,18.6467286 11.4057138,18.655036 Z" id="Path" fill="#FFE452"></path>
                    <path d="M26.2304774,18.655036 L11.0851714,18.655036 C10.8795952,18.6561511 10.681368,18.7348768 10.5271865,18.8766391 L26.7884623,30.4 C26.9891821,30.2430598 27.1073109,29.9967577 27.1073109,29.7351907 L27.1073109,19.5968491 C27.1224265,19.347423 27.0358389,19.1029344 26.8688721,18.9235941 C26.7019053,18.7442539 26.470076,18.6467286 26.2304774,18.655036 Z" id="Path" fill="#FFD400" opacity="0.5"></path>
                </g>
            </g>
        </g>
    </g>
</svg>