<?xml version="1.0" encoding="UTF-8"?>
<svg width="102px" height="102px" viewBox="0 0 102 102" version="1.1" xmlns="http://www.w3.org/2000/svg" xmlns:xlink="http://www.w3.org/1999/xlink">
    <title>Learn how Microsoft safeguards customer data/understand-microsoft-365-identity-and-access-management</title>
    <defs>
        <rect id="path-1" x="0" y="0" width="94.3396226" height="94.3396226" rx="47.1698113"></rect>
        <filter x="-2.9%" y="-2.9%" width="106.4%" height="106.4%" filterUnits="objectBoundingBox" id="filter-3">
            <feMorphology radius="2.5" operator="dilate" in="SourceAlpha" result="shadowSpreadOuter1"></feMorphology>
            <feOffset dx="0.5" dy="0.5" in="shadowSpreadOuter1" result="shadowOffsetOuter1"></feOffset>
            <feMorphology radius="1" operator="erode" in="SourceAlpha" result="shadowInner"></feMorphology>
            <feOffset dx="0.5" dy="0.5" in="shadowInner" result="shadowInner"></feOffset>
            <feComposite in="shadowOffsetOuter1" in2="shadowInner" operator="out" result="shadowOffsetOuter1"></feComposite>
            <feColorMatrix values="0 0 0 0 0.821822822   0 0 0 0 0.831640661   0 0 0 0 0.835737288  0 0 0 1 0" type="matrix" in="shadowOffsetOuter1"></feColorMatrix>
        </filter>
        <linearGradient x1="77.8299825%" y1="11.1997378%" x2="-99.6885927%" y2="253.807911%" id="linearGradient-4">
            <stop stop-color="#FFFFFF" offset="0%"></stop>
            <stop stop-color="#000000" stop-opacity="0.5" offset="100%"></stop>
        </linearGradient>
        <rect id="path-5" x="0" y="0" width="94.3396226" height="94.3396226"></rect>
        <path d="M48.1132075,0.739331515 C74.2770768,0.739331515 95.4870836,21.9493383 95.4870836,48.1132075 C95.4870836,74.2770768 74.2770768,95.4870836 48.1132075,95.4870836 C21.9493383,95.4870836 0.739331515,74.2770768 0.739331515,48.1132075 C0.739331515,21.9493383 21.9493383,0.739331515 48.1132075,0.739331515 Z M48.1132075,4.71698113 C24.1461335,4.71698113 4.71698113,24.1461335 4.71698113,48.1132075 C4.71698113,72.0802816 24.1461335,91.509434 48.1132075,91.509434 C72.0802816,91.509434 91.509434,72.0802816 91.509434,48.1132075 C91.509434,24.1461335 72.0802816,4.71698113 48.1132075,4.71698113 Z" id="path-6"></path>
        <linearGradient x1="50%" y1="100%" x2="50%" y2="0%" id="linearGradient-8">
            <stop stop-color="#D2EBFF" offset="0%"></stop>
            <stop stop-color="#F0FFFD" offset="100%"></stop>
        </linearGradient>
        <linearGradient x1="50%" y1="0%" x2="17.6101954%" y2="106.813796%" id="linearGradient-9">
            <stop stop-color="#57A1DA" offset="0%"></stop>
            <stop stop-color="#4894CF" offset="100%"></stop>
        </linearGradient>
        <path d="M15.1683855,9.69805509 L14.1623113,9.69805509 L14.1623113,6.24736917 C14.1797956,4.61754548 13.5496486,3.04331087 12.4016815,1.84895965 C11.2733983,0.67020546 9.68704554,0 8.02525888,0 C6.36347222,0 4.77711941,0.67020546 3.64883624,1.84895965 C2.4986434,3.04196537 1.86813859,4.61709397 1.88820645,6.24736917 L1.88820645,9.69805509 L0.882132277,9.69805509 C0.64689043,9.67613379 0.41356442,9.75521166 0.244047268,9.91431218 C0.0745301162,10.0734127 -0.0140451248,10.2964556 0.00181737964,10.5242757 L0.00181737964,19.4668983 C0.00171096018,19.677416 0.089952278,19.8789803 0.246377144,20.0255314 C0.40280201,20.1720824 0.61404283,20.2510964 0.831828569,20.2445177 L15.1683855,20.2445177 C15.3861712,20.2510964 15.597412,20.1720824 15.7538369,20.0255314 C15.9102618,19.8789803 15.9985031,19.677416 15.9983967,19.4668983 L15.9983967,10.5242757 C16.0127052,10.3054626 15.9307412,10.0909811 15.7726904,9.93365201 C15.6146395,9.77632293 15.3951897,9.69076729 15.1683855,9.69805509 Z M11.1020408,9.46938776 L4.57142857,9.46938776 L4.57142857,6.1581652 C4.57290671,5.29786067 4.94261736,4.47234858 5.60125589,3.85870509 C6.16851225,3.27361545 6.98219146,2.93877551 7.83673469,2.93877551 C8.69127793,2.93877551 9.50495714,3.27361545 10.0722135,3.85870509 C10.2197179,4.00165877 10.3541321,4.15547439 10.4740973,4.31859712 L10.4740973,4.31859712 C10.8788412,4.85224347 11.0977459,5.48551159 11.1020408,6.1351706 L11.1020408,9.46938776 Z" id="path-10"></path>
        <filter x="-3.1%" y="-2.5%" width="106.2%" height="109.9%" filterUnits="objectBoundingBox" id="filter-11">
            <feOffset dx="0" dy="1" in="SourceAlpha" result="shadowOffsetOuter1"></feOffset>
            <feColorMatrix values="0 0 0 0 0   0 0 0 0 0   0 0 0 0 0  0 0 0 0.1 0" type="matrix" in="shadowOffsetOuter1"></feColorMatrix>
        </filter>
    </defs>
    <g id="Badges" stroke="none" stroke-width="1" fill="none" fill-rule="evenodd">
        <g id="Learn-how-Microsoft-safeguards-customer-data" transform="translate(-159.000000, -319.000000)">
            <g id="Learn-how-Microsoft-safeguards-customer-data/understand-microsoft-365-identity-and-access-management" transform="translate(160.000000, 320.000000)">
                <g id="Badge-Plates/Circle">
                    <g id="BG" transform="translate(2.830189, 2.830189)">
                        <mask id="mask-2" fill="white">
                            <use xlink:href="#path-1"></use>
                        </mask>
                        <g>
                            <use fill="black" fill-opacity="1" filter="url(#filter-3)" xlink:href="#path-1"></use>
                            <rect stroke="#F2F1F0" stroke-width="2.5" x="-1.25" y="-1.25" width="96.8396226" height="96.8396226" rx="48.4198113"></rect>
                        </g>
                        <g id="Colors/Microsoft-365/BG-Solid-Badge" mask="url(#mask-2)">
                            <g id="Rectangle">
                                <use fill="#0078D4" xlink:href="#path-5"></use>
                                <use fill-opacity="0.4" fill="url(#linearGradient-4)" xlink:href="#path-5"></use>
                            </g>
                        </g>
                    </g>
                    <g id="Border" transform="translate(1.886792, 1.886792)">
                        <mask id="mask-7" fill="white">
                            <use xlink:href="#path-6"></use>
                        </mask>
                        <use id="Boarder" fill="#0078D4" fill-rule="nonzero" xlink:href="#path-6"></use>
                        <g id="Colors/Microsoft-365/Border" mask="url(#mask-7)" fill="#0076D7">
                            <g transform="translate(-1.886792, -1.886792)" id="Microsoft-365/Border">
                                <rect x="0" y="0" width="100" height="100"></rect>
                            </g>
                        </g>
                    </g>
                </g>
                <g id="Group-14" transform="translate(19.000000, 18.000000)" fill-rule="nonzero">
                    <path d="M0,49.975 C0,51.032 0.861,51.897 1.914,51.897 L59.341,51.897 C60.3989088,51.891502 61.2539146,51.0329225 61.255,49.975 L61.255,14.415 L0,14.415 L0,49.975" id="Fill-1164" fill="url(#linearGradient-8)"></path>
                    <path d="M61.255,10.572 C61.255,9.51368729 60.3992986,8.65450045 59.341,8.649 L1.914,8.649 C0.855701449,8.65450045 2.1360691e-16,9.51368729 2.1360691e-16,10.572 L2.1360691e-16,14.416 L61.255,14.416 L61.255,10.572" id="Fill-1165" fill="#1C5487"></path>
                    <polygon id="Fill-1166" fill="#FFFFFE" points="5.743 46.13 24.885 46.13 24.885 19.221 5.743 19.221"></polygon>
                    <g id="Group-12" transform="translate(8.314000, 23.774000)" fill="#546670">
                        <path d="M10.3492308,16.5092316 C10.2637662,16.5094144 10.1808514,16.4801279 10.1144615,16.4263077 C7.84215385,14.6030769 5.36307692,12.46 4.68461538,10.0713846 C4.39563065,9.0634445 4.97060221,8.01044985 5.97476923,7.70861538 C6.45720818,7.57159053 6.97436572,7.6325094 7.41175942,7.87788645 C7.84915312,8.12326351 8.17070399,8.53285851 8.30523077,9.016 C8.70584615,10.4267692 11.4283077,12.6107692 12.4524615,13.4324615 C12.6160849,13.5643953 12.6434267,13.803276 12.5138462,13.9687692 C12.4526552,14.04775 12.3623093,14.0988481 12.2630905,14.1105924 C12.1638717,14.1223366 12.064093,14.0937431 11.9861538,14.0312308 C10.0390769,12.4696923 7.994,10.6776923 7.58153846,9.22815385 C7.50098317,8.93776008 7.30784309,8.69153526 7.04499114,8.54413598 C6.7821392,8.39673669 6.47132352,8.36035863 6.18153846,8.44307692 C5.57944353,8.62435385 5.2348726,9.25590724 5.40830769,9.86030769 C6.02538462,12.0324615 8.40215385,14.0786154 10.5818462,15.8264615 C10.7461541,15.9584791 10.7735343,16.1981756 10.6432308,16.3638462 C10.5726309,16.4551768 10.46359,16.5085034 10.3481538,16.5081538 L10.3492308,16.5092316 Z" id="Fill-1"></path>
                        <path d="M0.771076923,14.5761538 C0.605540273,14.5757718 0.459626413,14.4674286 0.411384615,14.3090769 C0.348013974,14.1086632 0.458814422,13.8947701 0.659076923,13.8309231 C1.07907692,13.6963077 2.40584615,13.0932308 1.78769231,10.9167692 C1.42539593,9.65210322 1.57711475,8.29553572 2.20984615,7.14215385 C2.83083697,5.99155308 3.88770173,5.13837922 5.14338462,4.774 C7.67738462,4.04276923 10.3610769,5.50092308 11.1590769,8.03276923 C11.3475385,8.21261538 12.6333846,9.28846154 13.5132308,10.0121538 C13.6747692,10.1456923 13.6984615,10.3858462 13.5681538,10.5495385 C13.5059739,10.6281922 13.4147201,10.6784684 13.315012,10.6890066 C13.2153039,10.6995449 13.1155562,10.6694559 13.0383077,10.6055385 C10.6152308,8.61323077 10.5355385,8.47538462 10.4967692,8.40861538 C10.4812209,8.38243048 10.4685817,8.35462428 10.4590769,8.32569231 C9.80646154,6.14707692 7.51261538,4.88492308 5.35015385,5.50953846 C4.28824773,5.81685064 3.39426146,6.53778227 2.86892308,7.51046154 C2.33391498,8.48660022 2.2054419,9.63434465 2.51138462,10.7046154 C3.15323077,12.9661538 2.03538462,14.1938462 0.882,14.56 C0.84599362,14.5706852 0.808635303,14.5761538 0.771076923,14.5761538 L0.771076923,14.5761538 Z" id="Fill-2"></path>
                        <path d="M1.974,16.0332308 C1.78446201,16.0343077 1.62289796,15.8960272 1.59476811,15.708585 C1.56663825,15.5211428 1.68048697,15.3415023 1.862,15.2869231 C3.42353846,14.7936923 3.99107692,13.9806154 3.22969231,10.4698462 C2.81830769,8.56584615 3.81876923,6.748 5.558,6.24184615 C7.35323077,5.72169231 9.23676923,6.776 9.75261538,8.59384615 C9.85707692,8.96215385 10.3363077,9.67292308 13.132,11.9161538 C13.2957573,12.0484745 13.3230833,12.2876968 13.1933846,12.4535385 C13.132175,12.5328396 13.0416127,12.5841541 12.9421282,12.5959059 C12.8426436,12.6076576 12.7426175,12.5788565 12.6646154,12.516 C9.57815385,10.0401538 9.17538462,9.32507692 9.02784615,8.806 C8.62615385,7.392 7.16476923,6.57030769 5.76476923,6.97523077 C4.41215385,7.36938462 3.63892308,8.80169231 3.96523077,10.3072308 C4.74061538,13.8869231 4.26676923,15.3256923 2.08492308,16.0170769 C2.04904632,16.0284544 2.01163758,16.0343077 1.974,16.0343077 L1.974,16.0332308 Z" id="Fill-3"></path>
                        <path d="M11.3927692,15.2707692 C11.2923324,15.2707692 11.1961135,15.2303821 11.1256923,15.1587692 C10.9878462,15.0187692 10.6841538,14.7850769 10.3341538,14.5158462 C8.98476923,13.4787692 6.72646154,11.7427692 6.132,9.64815385 C6.07428435,9.44665608 6.18957128,9.23625743 6.39046154,9.17646154 C6.48687423,9.14872075 6.59038409,9.16079398 6.67782427,9.20997908 C6.76526444,9.25916418 6.82933363,9.34135416 6.85569231,9.43815385 C7.38015385,11.2861538 9.51461538,12.9273846 10.7886154,13.9073846 C11.1763077,14.2056923 11.4832308,14.4415385 11.6576923,14.6181538 C11.8044969,14.7680417 11.8044969,15.0078045 11.6576923,15.1576923 C11.5882863,15.2294937 11.492632,15.2699329 11.3927692,15.2696923 L11.3927692,15.2707692 Z" id="Fill-4"></path>
                        <path d="M5.74107692,18.3238462 L5.71846154,18.3238462 C5.5095859,18.3089027 5.35212959,18.1278521 5.36630769,17.9189231 C5.39323077,17.4773846 5.59461538,15.2696923 6.87292308,15.2696923 C7.812,15.2696923 8.37738462,16.0483077 8.75215385,16.5641538 C8.85230769,16.702 8.94061538,16.8258462 9.02138462,16.9087692 C9.16818916,17.058657 9.16818916,17.2984199 9.02138462,17.4483077 C8.95116562,17.5194714 8.85535948,17.5595311 8.75538462,17.5595311 C8.65540975,17.5595311 8.55960361,17.5194714 8.48938462,17.4483077 C8.3649295,17.3126541 8.2497948,17.1687357 8.14476923,17.0175385 C7.82707692,16.5792308 7.43184615,16.0332308 6.87292308,16.0332308 C6.46369231,16.0332308 6.16753846,17.1769231 6.11907692,17.9663077 C6.10717234,18.16614 5.9423359,18.3224991 5.74215385,18.3238462 L5.74107692,18.3238462 Z" id="Fill-5"></path>
                        <path d="M3.48061538,17.5603186 C3.29536323,17.5559548 3.13973842,17.4197284 3.11090596,17.236682 C3.08207351,17.0536356 3.18828665,16.8761659 3.36323077,16.8150769 C4.31630769,16.5027692 4.94953846,14.4986154 4.62861538,13.4766154 C4.56550284,13.2775058 4.67387449,13.0645986 4.872,12.9984615 C4.96766518,12.9669187 5.07202551,12.9754517 5.16129609,13.0221158 C5.25056666,13.06878 5.31714104,13.1495992 5.34584615,13.2461538 C5.74538462,14.5136923 5.04753846,17.066 3.59584615,17.5430769 C3.55856904,17.5547926 3.51968904,17.5606064 3.48061538,17.5603186 L3.48061538,17.5603186 Z" id="Fill-6"></path>
                        <path d="M0.467384615,9.926 C0.366658721,9.92543136 0.270300696,9.88479767 0.19958252,9.81306924 C0.128864343,9.7413408 0.0896014603,9.64441613 0.0904477003,9.54369231 C0.0904477003,5.96507692 2.96369231,3.05415385 6.49492308,3.05415385 C9.97230769,3.05415385 11.2161538,5.08953846 12.1229231,6.57461538 C12.5526154,7.27461538 12.922,7.87984615 13.3936923,8.036 C13.5907692,8.10061538 13.6995385,8.316 13.6338462,8.51630769 C13.6042,8.61209378 13.5373039,8.69194765 13.4481948,8.73791984 C13.3590857,8.78389202 13.25524,8.79212538 13.16,8.76076923 C12.4255385,8.51953846 11.9883077,7.80446154 11.4832308,6.97630769 C10.6216923,5.56876923 9.55123077,3.81769231 6.49492308,3.81769231 C3.37830769,3.81769231 0.844307692,6.38615385 0.844307692,9.54369231 C0.845502429,9.75322937 0.676917547,9.92422261 0.467384615,9.926 Z" id="Fill-7"></path>
                        <path d="M0.844307692,12.5978472 C0.700804178,12.5979252 0.56970539,12.5165103 0.506153846,12.3878462 C0.437230769,12.2456923 0.0904615385,11.5198462 0.0904615385,11.0707692 C0.0904615385,10.8596923 0.259538462,10.6884615 0.467384615,10.6884615 C0.675230769,10.6884615 0.844307692,10.8607692 0.844307692,11.0707692 C0.844307692,11.27 1.04569231,11.7707692 1.18138462,12.0453846 C1.27461414,12.2337472 1.19930735,12.4620659 1.01230769,12.558 C0.960227715,12.5843287 0.902664428,12.5979816 0.844307692,12.5978472 L0.844307692,12.5978472 Z" id="Fill-8"></path>
                        <path d="M11.7686154,4.58123077 C11.6360296,4.58094115 11.5133464,4.51101173 11.4455385,4.39707692 C11.0750769,3.77676923 9.01492308,2.29061538 6.118,2.29061538 C3.10584615,2.29061538 1.49369231,3.85 1.16523077,4.39707692 C1.11442822,4.48345201 1.03097683,4.54572437 0.933713723,4.56983751 C0.83645062,4.59395066 0.733574691,4.57787195 0.648307692,4.52523077 C0.470147859,4.41414184 0.41405646,4.18066739 0.522307692,4.00076923 C0.934769231,3.31261538 2.74292308,1.52707692 6.118,1.52707692 C9.29169231,1.52707692 11.5736923,3.13815385 12.0895385,4.00076923 C12.1985137,4.18089945 12.1423453,4.4151744 11.9635385,4.52630769 C11.9047924,4.56193365 11.8373186,4.58057284 11.7686154,4.58015385 L11.7686154,4.58123077 Z" id="Fill-9"></path>
                        <path d="M10.2630769,1.52707692 C10.2208981,1.52668244 10.1790663,1.51940734 10.1392308,1.50553846 C9.98738462,1.45276923 9.84307692,1.39784615 9.69769231,1.344 C8.90615385,1.04676923 8.15661538,0.764615385 6.11907692,0.764615385 C4.30769231,0.764615385 3.90169231,0.974615385 3.33846154,1.26753846 C3.19846154,1.33969231 3.05307692,1.41615385 2.87969231,1.49369231 C2.78823696,1.53481115 2.68411794,1.53756516 2.59061676,1.50133851 C2.49711559,1.46511186 2.42203157,1.39292638 2.38215385,1.30092308 C2.29715264,1.10877835 2.38263975,0.884014482 2.57384615,0.796923077 C2.71574219,0.731160582 2.85579555,0.661493014 2.99384615,0.588 C3.62707692,0.258461538 4.12676923,0 6.11692308,0 C8.29015385,0 9.13984615,0.319846154 9.96153846,0.628923077 C10.0993846,0.681692308 10.2383077,0.733384615 10.3847692,0.785076923 C10.5584394,0.847536061 10.662695,1.02514885 10.6325678,1.2072335 C10.6024406,1.38931816 10.4465326,1.52388501 10.262,1.52707692 L10.2630769,1.52707692 Z" id="Fill-10"></path>
                        <path d="M13.2763077,6.87076923 C13.1117562,6.87020872 12.9665869,6.76296652 12.9176923,6.60584615 C12.7453846,6.06092308 12.2069231,5.17138462 12.2015385,5.16276923 C12.0921707,4.98319617 12.1473429,4.74907416 12.3253846,4.63723077 C12.4105642,4.58370755 12.5137665,4.56690045 12.6115272,4.59063076 C12.709288,4.61436107 12.7932998,4.67661225 12.8444615,4.76323077 C12.8681538,4.802 13.4346154,5.74 13.6349231,6.37430769 C13.6713506,6.48949474 13.6511902,6.61512218 13.5805501,6.71312729 C13.5099101,6.81113241 13.3971032,6.86998214 13.2763077,6.87184615 L13.2763077,6.87076923 Z" id="Fill-11"></path>
                    </g>
                    <path d="M42.113,43.247 L30.628,43.247 C29.805,43.247 29.67,42.817 29.67,42.287 C29.67,41.756 29.805,41.325 30.628,41.325 L42.113,41.325 C42.935,41.325 43.07,41.755 43.07,42.286 C43.07,42.816 42.935,43.247 42.113,43.247" id="Fill-1168" fill="#C5CCCD"></path>
                    <path d="M47.856,22.104 L36.37,22.104 C35.548,22.104 35.413,21.674 35.413,21.144 C35.413,20.613 35.548,20.182 36.37,20.182 L47.856,20.182 C48.678,20.182 48.813,20.612 48.813,21.143 C48.813,21.673 48.678,22.104 47.856,22.104" id="Fill-1169" fill="#546670"></path>
                    <path d="M54.555,37.48 L30.628,37.48 C29.805,37.48 29.67,37.05 29.67,36.52 C29.67,35.99 29.805,35.559 30.628,35.559 L54.555,35.559 C55.377,35.559 55.512,35.989 55.512,36.519 C55.512,37.05 55.377,37.481 54.555,37.481" id="Fill-1170" fill="#C5CCCD"></path>
                    <path d="M54.555,33.637 L30.628,33.637 C29.805,33.637 29.67,33.207 29.67,32.676 C29.67,32.146 29.805,31.715 30.628,31.715 L54.555,31.715 C55.377,31.715 55.512,32.145 55.512,32.675 C55.512,33.206 55.377,33.637 54.555,33.637" id="Fill-1171" fill="#C5CCCD"></path>
                    <path d="M54.555,29.793 L30.628,29.793 C29.805,29.793 29.67,29.362 29.67,28.831 C29.67,28.301 29.805,27.871 30.628,27.871 L54.555,27.871 C55.377,27.871 55.512,28.301 55.512,28.831 C55.512,29.362 55.377,29.793 54.555,29.793" id="Fill-1172" fill="#C5CCCD"></path>
                    <path d="M30.628,5.766 C30.119141,5.76520519 29.6314541,5.56223058 29.2722931,5.20175666 C28.913132,4.84128275 28.7119381,4.35285851 28.7129958,3.844 C28.7129958,2.782 29.57,1.922 30.628,1.922 C31.684,1.922 32.5420024,2.782 32.5420024,3.844 C32.5436592,4.90305563 31.6870533,5.7632419 30.628,5.766 L30.628,5.766 Z M30.628,0 C28.5092728,0.00441394158 26.7951301,1.72527171 26.7989935,3.844 L26.7989935,12.494 L34.4560065,12.494 L34.4560065,3.844 C34.4598704,1.72566134 32.7463364,0.00496521056 30.628,0 L30.628,0 Z" id="Fill-1173" fill="#30404D"></path>
                </g>
                <circle id="Oval" fill="url(#linearGradient-9)" cx="70" cy="64.6530612" r="15.7701172"></circle>
                <g id="Lock" transform="translate(62.000000, 54.530612)" fill-rule="nonzero">
                    <g id="Shape">
                        <use fill="black" fill-opacity="1" filter="url(#filter-11)" xlink:href="#path-10"></use>
                        <use fill="#494949" xlink:href="#path-10"></use>
                    </g>
                    <path d="M0.847701764,9.46983778 L15.4615935,9.46983778 C15.6599565,9.47086083 15.8512284,9.54308534 16,9.6731408 L0.309295228,20.244898 C0.124218723,20.093964 0.0124072088,19.8723081 0.00163434996,19.6349889 L0.00163434996,10.3338756 C-0.0129509432,10.1050472 0.0705985386,9.88074855 0.231706858,9.7162183 C0.392815177,9.55168804 0.616510114,9.4622164 0.847701764,9.46983778 Z" id="Path" fill="#5F5F5F"></path>
                    <path d="M15.1522982,9.46983778 L0.538406536,9.46983778 C0.34004348,9.47086083 0.148771621,9.54308534 0,9.6731408 L15.6907048,20.244898 C15.8843818,20.100918 15.9983657,19.8749556 15.9983657,19.6349889 L15.9983657,10.3338756 C16.0129509,10.1050472 15.9294015,9.88074855 15.7682931,9.7162183 C15.6071848,9.55168804 15.3834899,9.4622164 15.1522982,9.46983778 Z" id="Path" fill="#717171" opacity="0.571800595"></path>
                </g>
            </g>
        </g>
    </g>
</svg>