<?xml version="1.0" encoding="UTF-8"?>
<svg width="100px" height="100px" viewBox="0 0 100 100" version="1.1" xmlns="http://www.w3.org/2000/svg" xmlns:xlink="http://www.w3.org/1999/xlink">
    <!-- Generator: Sketch 58 (84663) - https://sketch.com -->
    <title>Collaborate with SharePoint in Microsoft 365/understand-your-sharepoint-site-options</title>
    <desc>Created with Sketch.</desc>
    <defs>
        <rect id="path-1" x="0" y="0" width="96" height="96" rx="48"></rect>
        <filter x="-5.8%" y="-6.5%" width="111.6%" height="112.9%" filterUnits="objectBoundingBox" id="filter-3">
            <feOffset dx="0" dy="2" in="SourceAlpha" result="shadowOffsetOuter1"></feOffset>
            <feColorMatrix values="0 0 0 0 0   0 0 0 0 0   0 0 0 0 0  0 0 0 0.1 0" type="matrix" in="shadowOffsetOuter1" result="shadowMatrixOuter1"></feColorMatrix>
            <feMerge>
                <feMergeNode in="shadowMatrixOuter1"></feMergeNode>
                <feMergeNode in="SourceGraphic"></feMergeNode>
            </feMerge>
        </filter>
        <filter x="-14.3%" y="-8.5%" width="128.6%" height="117.0%" filterUnits="objectBoundingBox" id="filter-4">
            <feOffset dx="0" dy="2" in="SourceAlpha" result="shadowOffsetOuter1"></feOffset>
            <feColorMatrix values="0 0 0 0 0   0 0 0 0 0   0 0 0 0 0  0 0 0 0.1 0" type="matrix" in="shadowOffsetOuter1" result="shadowMatrixOuter1"></feColorMatrix>
            <feMerge>
                <feMergeNode in="shadowMatrixOuter1"></feMergeNode>
                <feMergeNode in="SourceGraphic"></feMergeNode>
            </feMerge>
        </filter>
        <polygon id="path-5" points="0 0.984216975 27.682 0.984216975 27.682 32.6704 0 32.6704"></polygon>
        <polygon id="path-7" points="0 0 14 0 14 31 0 31"></polygon>
        <circle id="path-9" cx="9" cy="14.2297297" r="3.64864865"></circle>
        <filter x="-6.9%" y="-6.9%" width="113.7%" height="113.7%" filterUnits="objectBoundingBox" id="filter-10">
            <feOffset dx="-1" dy="-1" in="SourceAlpha" result="shadowOffsetInner1"></feOffset>
            <feComposite in="shadowOffsetInner1" in2="SourceAlpha" operator="arithmetic" k2="-1" k3="1" result="shadowInnerInner1"></feComposite>
            <feColorMatrix values="0 0 0 0 0   0 0 0 0 0   0 0 0 0 0  0 0 0 0.1 0" type="matrix" in="shadowInnerInner1"></feColorMatrix>
        </filter>
        <circle id="path-11" cx="13.5" cy="10.0945946" r="4.5"></circle>
        <filter x="-5.6%" y="-5.6%" width="111.1%" height="111.1%" filterUnits="objectBoundingBox" id="filter-12">
            <feOffset dx="-1" dy="0" in="SourceAlpha" result="shadowOffsetInner1"></feOffset>
            <feComposite in="shadowOffsetInner1" in2="SourceAlpha" operator="arithmetic" k2="-1" k3="1" result="shadowInnerInner1"></feComposite>
            <feColorMatrix values="0 0 0 0 0   0 0 0 0 0   0 0 0 0 0  0 0 0 0.1 0" type="matrix" in="shadowInnerInner1"></feColorMatrix>
        </filter>
        <circle id="path-13" cx="8.51351351" cy="5.35135135" r="5.35135135"></circle>
        <filter x="-4.7%" y="-4.7%" width="109.3%" height="109.3%" filterUnits="objectBoundingBox" id="filter-14">
            <feOffset dx="-1" dy="1" in="SourceAlpha" result="shadowOffsetInner1"></feOffset>
            <feComposite in="shadowOffsetInner1" in2="SourceAlpha" operator="arithmetic" k2="-1" k3="1" result="shadowInnerInner1"></feComposite>
            <feColorMatrix values="0 0 0 0 0   0 0 0 0 0   0 0 0 0 0  0 0 0 0.1 0" type="matrix" in="shadowInnerInner1"></feColorMatrix>
        </filter>
    </defs>
    <g id="Badges" stroke="none" stroke-width="1" fill="none" fill-rule="evenodd">
        <g id="Collaborate-with-SharePoint-in-Microsoft-365" transform="translate(-50.000000, -860.000000)">
            <g id="Collaborate-with-SharePoint-in-Microsoft-365/understand-your-sharepoint-site-options" transform="translate(50.000000, 860.000000)">
                <g id="Mask" transform="translate(2.000000, 2.000000)">
                    <mask id="mask-2" fill="white">
                        <use xlink:href="#path-1"></use>
                    </mask>
                    <use id="BG" fill="#55A2FF" xlink:href="#path-1"></use>
                    <g id="Gear-Lightbulb" mask="url(#mask-2)">
                        <g transform="translate(13.000000, 16.000000)">
                            <g id="Group-74" filter="url(#filter-3)" transform="translate(0.500000, 0.000000)">
                                <g id="Group-5">
                                    <path d="M34.3196,53.2299 C23.2736,53.2299 14.3196,44.2759 14.3196,33.2299 C14.3196,22.1839 23.2736,13.2299 34.3196,13.2299 C45.3656,13.2299 54.3196,22.1839 54.3196,33.2299 C54.3196,44.2759 45.3656,53.2299 34.3196,53.2299 M59.9896,28.0439 L56.9376,20.5259 L59.9436,16.8209 C61.2536,15.2069 61.1076,12.8579 59.6096,11.4169 L57.0316,8.9389 C55.5796,7.5419 53.3156,7.4439 51.7486,8.7089 L48.0396,11.6999 L40.5256,8.4039 L40.1156,3.6559 C39.9356,1.5869 38.2056,0.0009 36.1306,0.0009 L32.5786,0.0009 C30.5306,0.0009 28.8126,1.5469 28.5996,3.5839 L28.0966,8.4039 L20.3976,11.6999 L16.6326,8.6949 C15.0556,7.4379 12.7926,7.5489 11.3476,8.9549 L8.8406,11.3949 C7.3466,12.8469 7.2186,15.2029 8.5446,16.8079 L11.6126,20.5259 L8.3676,28.0439 L3.5506,28.5889 C1.5286,28.8179 0.0006,30.5289 0.0006,32.5639 L0.0006,36.5589 C0.0006,38.6159 1.5586,40.3359 3.6046,40.5399 L8.3676,41.0119 L11.6126,48.4879 L8.5296,52.1309 C7.2056,53.6969 7.2796,56.0099 8.7016,57.4889 L11.2716,60.1609 C12.7356,61.6809 15.1296,61.8029 16.7396,60.4389 L21.1716,56.6859 L47.2026,56.6859 L52.0856,60.3069 C53.6856,61.4949 55.9176,61.3229 57.3166,59.9029 L59.7706,57.4119 C61.1916,55.9709 61.3116,53.6969 60.0516,52.1129 L56.9376,48.1999 L59.9896,40.5899 L64.9886,40.1519 C67.0546,39.9699 68.6386,38.2409 68.6386,36.1669 L68.6386,32.5769 C68.6386,30.5359 67.1026,28.8219 65.0736,28.5999 L59.9896,28.0439 Z" id="Fill-1" fill="#546670"></path>
                                    <path d="M59.9895,28.044 L56.9375,20.526 L59.9435,16.821 C61.2535,15.206 61.1075,12.858 59.6095,11.417 L57.0315,8.939 C55.5795,7.542 53.3155,7.444 51.7485,8.708 L48.0395,11.7 L40.5255,8.404 L40.1155,3.656 C39.9355,1.587 38.2055,-4.12114787e-13 36.1305,-4.12114787e-13 L33.9916992,-4.12114787e-13 L33.9916992,13.23 C45.0376992,13.23 54.3195,22.184 54.3195,33.23 C54.3195,44.276 45.0376992,53.23 33.9916992,53.23 L33.9916992,56.686 L47.2025,56.686 L52.0855,60.307 C53.6855,61.495 55.9175,61.323 57.3165,59.903 L59.7705,57.412 C61.1915,55.971 61.3115,53.697 60.0525,52.113 L56.9375,48.2 L59.9895,40.59 L64.9885,40.152 C67.0545,39.97 68.6385,38.241 68.6385,36.166 L68.6385,32.577 C68.6385,30.536 67.1025,28.822 65.0735,28.6 L59.9895,28.044 Z" id="Fill-3" fill="#30404D"></path>
                                </g>
                                <g id="Group-67" transform="translate(14.000000, 14.000000)" stroke-width="2">
                                    <ellipse id="Oval" stroke="#30404D" fill-rule="nonzero" cx="20.5" cy="19.5" rx="20" ry="19.5"></ellipse>
                                    <path d="M19.9916992,39 C31.0376992,39 40.5,30.26985 40.5,19.5 C40.5,9.80033137 32.8247729,1.75513992 23.2299221,0.252041443 C22.1713055,0.0862019651 21.0893211,0 19.9916992,0" id="Stroke-1" stroke="#546670"></path>
                                </g>
                            </g>
                            <g id="Group-76" transform="translate(20.500000, 18.000000)">
                                <g id="Group-7" filter="url(#filter-4)" transform="translate(0.500000, 0.000000)">
                                    <g id="Group-3" transform="translate(0.000000, 0.015700)">
                                        <mask id="mask-6" fill="white">
                                            <use xlink:href="#path-5"></use>
                                        </mask>
                                        <g id="Clip-2"></g>
                                        <path d="M20.1748,32.6704 C20.1748,28.1734 22.0768,25.9994 22.8658,25.2914 C23.3918,24.8184 23.9118,24.3464 24.3708,23.8094 C26.7448,21.0294 28.0368,17.2994 27.5978,13.2684 C26.9038,6.9204 21.7638,1.7724 15.4168,1.0714 C7.0678,0.1494 -0.0002,6.6624 -0.0002,14.8254 C-0.0002,18.6574 1.5578,22.1254 4.0728,24.6324 C4.0728,24.6324 7.0778,27.4154 7.0778,32.6704" id="Fill-1" fill="#FCD116" mask="url(#mask-6)"></path>
                                    </g>
                                    <polygon id="Fill-4" fill="#E1E4E1" points="4 39 23 39 23 32 4 32"></polygon>
                                    <polyline id="Path" fill="#B5B5B5" points="22 39 22 44.5125285 13.9994355 47 6 44.5125285 6 39"></polyline>
                                    <polyline id="Path" fill="#696969" points="21.9971924 39 21.9971924 44.5033569 14 47 14 39"></polyline>
                                    <path d="M4,38.0541992 L13.0523081,38.0541992 C13.6045929,38.0541992 14.0523081,37.606484 14.0523081,37.0541992 C14.0523081,37.050746 14.0522902,37.0472928 14.0522545,37.0438397 L14,32 L14,32 L23.1333008,32 L23.1333008,39.0517578 L4,39.0517578 L4,38.0541992 Z" id="Path-35" fill="#C5CCCD" fill-rule="nonzero"></path>
                                </g>
                                <g id="Group-65" transform="translate(14.500000, 1.000000)">
                                    <g id="Group-3">
                                        <mask id="mask-8" fill="white">
                                            <use xlink:href="#path-7"></use>
                                        </mask>
                                        <g id="Clip-2"></g>
                                        <path d="M1.5940847,0.0841407606 C1.05699144,0.0264162853 0.525967035,0 0,0 L0,31 L6.40668307,31 C6.40668307,26.6002209 8.33050865,24.4722424 9.12856247,23.7795487 C9.66059836,23.3187313 10.1865654,22.8549787 10.6508324,22.3295881 C13.0510628,19.6106675 14.3589,15.9603282 13.913851,12.0174531 C13.2139103,5.80669086 8.01391695,0.769985798 1.5940847,0.0841407606 Z" id="Fill-1" fill="#FDBD0F" mask="url(#mask-8)"></path>
                                    </g>
                                </g>
                                <path d="M7.5,30.1337891 L12.5627219,30.1337891 C13.6672914,30.1337891 14.5627219,29.2383586 14.5627219,28.1337891 L14.5627219,28 L14.5627219,28 L15.5,28 L15.5,32 L7.5,32 L7.5,30.1337891 Z" id="Path-36" fill="#FDBD0F" fill-rule="nonzero"></path>
                            </g>
                            <g id="sharepoint-logo" transform="translate(26.000000, 25.000000)">
                                <g id="Oval">
                                    <use fill="#37C5CF" fill-rule="evenodd" xlink:href="#path-9"></use>
                                    <use fill="black" fill-opacity="1" filter="url(#filter-10)" xlink:href="#path-9"></use>
                                </g>
                                <g id="Oval">
                                    <use fill="#1A9BA1" fill-rule="evenodd" xlink:href="#path-11"></use>
                                    <use fill="black" fill-opacity="1" filter="url(#filter-12)" xlink:href="#path-11"></use>
                                </g>
                                <g id="Oval">
                                    <use fill="#036C70" fill-rule="evenodd" xlink:href="#path-13"></use>
                                    <use fill="black" fill-opacity="1" filter="url(#filter-14)" xlink:href="#path-13"></use>
                                </g>
                                <rect id="Rectangle" fill="#03787D" x="0" y="4.5" width="9" height="9" rx="1"></rect>
                                <path d="M2.57721442,11.496747 L2.57721442,10.2615274 C2.80109909,10.4493846 3.04428052,10.5902755 3.30676599,10.6842041 C3.56925147,10.7781327 3.83430636,10.8250963 4.10193861,10.8250963 C4.25891522,10.8250963 4.39594602,10.8109429 4.51303513,10.7826357 C4.63012424,10.7543284 4.72791148,10.7150848 4.80639978,10.6649038 C4.88488809,10.6147227 4.94343176,10.5555357 4.98203257,10.487341 C5.02063338,10.4191462 5.03993349,10.3451625 5.03993349,10.2653875 C5.03993349,10.1573052 5.00905331,10.0608046 4.94729202,9.97588287 C4.88553073,9.89096109 4.80125357,9.81247397 4.69445801,9.74041913 C4.58766245,9.66836429 4.46092504,9.59888389 4.31424198,9.53197582 C4.16755892,9.46506776 4.00929799,9.39687403 3.83945444,9.32739258 C3.40712542,9.14725549 3.08481354,8.9272342 2.87250911,8.66732211 C2.66020468,8.40741002 2.55405405,8.09346151 2.55405405,7.72546717 C2.55405405,7.43724782 2.61195439,7.18956303 2.72775681,6.98240538 C2.84355923,6.77524772 3.00117682,6.60476339 3.20061431,6.47094727 C3.4000518,6.33713114 3.63100983,6.23870056 3.8934953,6.17565258 C4.15598078,6.1126046 4.43390241,6.08108108 4.72726853,6.08108108 C5.01548787,6.08108108 5.27089271,6.09845118 5.49349068,6.13319191 C5.71608866,6.16793263 5.9213132,6.22132961 6.10917045,6.29338445 L6.10917045,7.44754276 C6.01652852,7.38320808 5.91552459,7.32659442 5.80615564,7.27770006 C5.69678669,7.22880571 5.5842027,7.18827547 5.46840029,7.15610813 C5.35259787,7.1239408 5.23744053,7.10013732 5.1229248,7.084697 C5.00840908,7.06925668 4.89968511,7.06153663 4.79674963,7.06153663 C4.65521334,7.06153663 4.52654592,7.07504671 4.41074351,7.10206728 C4.29494109,7.12908784 4.19715385,7.16704473 4.11737885,7.21593908 C4.03760386,7.26483344 3.97584349,7.32337711 3.93209591,7.39157187 C3.88834833,7.45976663 3.86647487,7.53632374 3.86647487,7.62124551 C3.86647487,7.71388745 3.89092168,7.79687793 3.93981604,7.87021946 C3.98871039,7.94356099 4.0581908,8.0130414 4.14825934,8.07866277 C4.23832789,8.14428414 4.3476952,8.20861785 4.47636455,8.27166583 C4.6050339,8.33471381 4.75042809,8.39969086 4.91255147,8.46659892 C5.13386275,8.55924086 5.33265392,8.65767143 5.50893093,8.76189361 C5.68520794,8.86611578 5.83639216,8.98384647 5.96248812,9.11508921 C6.08858409,9.24633195 6.18508465,9.39622949 6.25199272,9.56478634 C6.31890078,9.73334319 6.35235431,9.92956101 6.35235431,10.1534457 C6.35235431,10.4622521 6.29381063,10.721517 6.17672152,10.931248 C6.05963241,11.1409791 5.90072815,11.3108201 5.70000396,11.4407761 C5.49927977,11.5707321 5.2657484,11.664016 4.99940285,11.7206305 C4.73305729,11.7772451 4.45191897,11.8055519 4.15597947,11.8055519 C3.8523198,11.8055519 3.56346144,11.7798184 3.28939572,11.7283507 C3.01533,11.6768829 2.77793861,11.5996825 2.57721442,11.496747 Z" id="S" fill="#FFFFFF" fill-rule="nonzero"></path>
                            </g>
                        </g>
                    </g>
                </g>
                <g id="Azure-Border" stroke="#0078D4" stroke-width="4">
                    <rect x="2" y="2" width="96" height="96" rx="48"></rect>
                </g>
            </g>
        </g>
    </g>
</svg>