<?xml version="1.0" encoding="UTF-8"?>
<svg width="102px" height="102px" viewBox="0 0 102 102" version="1.1" xmlns="http://www.w3.org/2000/svg" xmlns:xlink="http://www.w3.org/1999/xlink">
    <title>Learn how Microsoft safeguards customer data/understand-microsoft-365-encryption</title>
    <defs>
        <rect id="path-1" x="0" y="0" width="94.3396226" height="94.3396226" rx="47.1698113"></rect>
        <filter x="-2.9%" y="-2.9%" width="106.4%" height="106.4%" filterUnits="objectBoundingBox" id="filter-3">
            <feMorphology radius="2.5" operator="dilate" in="SourceAlpha" result="shadowSpreadOuter1"></feMorphology>
            <feOffset dx="0.5" dy="0.5" in="shadowSpreadOuter1" result="shadowOffsetOuter1"></feOffset>
            <feMorphology radius="1" operator="erode" in="SourceAlpha" result="shadowInner"></feMorphology>
            <feOffset dx="0.5" dy="0.5" in="shadowInner" result="shadowInner"></feOffset>
            <feComposite in="shadowOffsetOuter1" in2="shadowInner" operator="out" result="shadowOffsetOuter1"></feComposite>
            <feColorMatrix values="0 0 0 0 0.821822822   0 0 0 0 0.831640661   0 0 0 0 0.835737288  0 0 0 1 0" type="matrix" in="shadowOffsetOuter1"></feColorMatrix>
        </filter>
        <linearGradient x1="77.8299825%" y1="11.1997378%" x2="-99.6885927%" y2="253.807911%" id="linearGradient-4">
            <stop stop-color="#FFFFFF" offset="0%"></stop>
            <stop stop-color="#000000" stop-opacity="0.5" offset="100%"></stop>
        </linearGradient>
        <rect id="path-5" x="0" y="0" width="94.3396226" height="94.3396226"></rect>
        <path d="M48.1132075,0.739331515 C74.2770768,0.739331515 95.4870836,21.9493383 95.4870836,48.1132075 C95.4870836,74.2770768 74.2770768,95.4870836 48.1132075,95.4870836 C21.9493383,95.4870836 0.739331515,74.2770768 0.739331515,48.1132075 C0.739331515,21.9493383 21.9493383,0.739331515 48.1132075,0.739331515 Z M48.1132075,4.71698113 C24.1461335,4.71698113 4.71698113,24.1461335 4.71698113,48.1132075 C4.71698113,72.0802816 24.1461335,91.509434 48.1132075,91.509434 C72.0802816,91.509434 91.509434,72.0802816 91.509434,48.1132075 C91.509434,24.1461335 72.0802816,4.71698113 48.1132075,4.71698113 Z" id="path-6"></path>
    </defs>
    <g id="Badges" stroke="none" stroke-width="1" fill="none" fill-rule="evenodd">
        <g id="Learn-how-Microsoft-safeguards-customer-data-2-" transform="translate(-159.000000, -699.000000)">
            <g id="Learn-how-Microsoft-safeguards-customer-data/understand-microsoft-365-encryption" transform="translate(160.000000, 700.000000)">
                <g id="Badge-Plates/Circle">
                    <g id="BG" transform="translate(2.830189, 2.830189)">
                        <mask id="mask-2" fill="white">
                            <use xlink:href="#path-1"></use>
                        </mask>
                        <g>
                            <use fill="black" fill-opacity="1" filter="url(#filter-3)" xlink:href="#path-1"></use>
                            <rect stroke="#F2F1F0" stroke-width="2.5" x="-1.25" y="-1.25" width="96.8396226" height="96.8396226" rx="48.4198113"></rect>
                        </g>
                        <g id="Colors/Microsoft-365/BG-Solid-Badge" mask="url(#mask-2)">
                            <g id="Rectangle">
                                <use fill="#0078D4" xlink:href="#path-5"></use>
                                <use fill-opacity="0.4" fill="url(#linearGradient-4)" xlink:href="#path-5"></use>
                            </g>
                        </g>
                    </g>
                    <g id="Border" transform="translate(1.886792, 1.886792)">
                        <mask id="mask-7" fill="white">
                            <use xlink:href="#path-6"></use>
                        </mask>
                        <use id="Boarder" fill="#0078D4" fill-rule="nonzero" xlink:href="#path-6"></use>
                        <g id="Colors/Microsoft-365/Border" mask="url(#mask-7)" fill="#0076D7">
                            <g transform="translate(-1.886792, -1.886792)" id="Microsoft-365/Border">
                                <rect x="0" y="0" width="100" height="100"></rect>
                            </g>
                        </g>
                    </g>
                </g>
                <g id="Group-17" transform="translate(9.000000, 21.500000)" fill="#FFFFFF">
                    <path d="M56.4783542,56.0500208 C56.4783542,57.9752271 54.9101896,59.5300667 52.9983083,59.5300667 C51.4034083,59.5300667 50.0654417,58.4590271 49.6450208,57.0042958 L44.8636521,57.0042958 C44.3398088,57.0042958 43.9060458,56.5838835 43.9060458,56.0466896 L43.9060458,46.2169396 C43.9060458,45.6830854 44.3398002,45.2593333 44.8636521,45.2593333 C45.3975063,45.2593333 45.8212583,45.6797456 45.8212583,46.2169396 L45.8212583,55.0891688 L49.6583458,55.0891688 C50.0654075,53.6344375 51.4034083,52.5633979 52.9983083,52.5633979 C54.9101896,52.570069 56.4783542,54.1383104 56.4783542,56.0501063 L56.4783542,56.0500208 Z" id="Fill-2"></path>
                    <path d="M65.6939583,38.5993958 C66.2278125,38.5993958 66.6515646,39.0198081 66.6515646,39.5570021 C66.6515646,40.0808454 66.2311523,40.5146083 65.6939583,40.5146083 L61.2963667,40.5146083 C60.7725233,40.5146083 60.3387604,40.080854 60.3387604,39.5570021 C60.3387604,39.0231479 60.7725148,38.5993958 61.2963667,38.5993958 L65.6939583,38.5993958 Z" id="Fill-3"></path>
                    <path d="M61.6939583,15.384 C62.2278125,15.384 62.6515646,15.8177544 62.6515646,16.3416063 C62.6515646,16.8754604 62.2311523,17.2992125 61.6939583,17.2992125 L57.2963667,17.2992125 C56.7725233,17.2992125 56.3387604,16.8788002 56.3387604,16.3416063 C56.3387604,15.8177629 56.7725148,15.384 57.2963667,15.384 L61.6939583,15.384 Z" id="Fill-4"></path>
                    <path d="M55.5482292,10.5391667 C55.5482292,10.0153233 55.9819835,9.58156042 56.5058354,9.58156042 L59.9491521,9.58156042 L59.9491521,4.37985625 C59.9491521,3.85601292 60.3829065,3.42225 60.9067583,3.42225 L64.6804667,3.42225 C65.0875283,1.96751875 66.4255292,0.896479167 68.0204292,0.896479167 C69.9456354,0.896479167 71.500475,2.46464375 71.500475,4.376525 C71.500475,6.30173125 69.9456354,7.86989583 68.0204292,7.86989583 C66.4255292,7.86989583 65.0875625,6.79885625 64.6804667,5.33404583 L61.8643646,5.33404583 L61.8643646,10.53575 C61.8643646,11.0595933 61.4439523,11.4933563 60.9067583,11.4933563 L56.5091667,11.4933563 C55.9819835,11.4933563 55.5482292,11.0596019 55.5482292,10.5390813 L55.5482292,10.5391667 Z" id="Fill-5"></path>
                    <path d="M59.5482292,22.1404583 C59.5482292,21.616615 59.9819835,21.1828521 60.5058354,21.1828521 L69.3908771,21.1828521 L69.3908771,17.3590896 C67.9261521,16.9520279 66.8550271,15.6007021 66.8550271,14.0191271 C66.8550271,12.0939208 68.4231917,10.5390812 70.3483979,10.5390812 C72.2602792,10.5390812 73.8284437,12.0939208 73.8284437,14.0191271 C73.8284437,15.6007021 72.7574042,16.9519937 71.3026729,17.3590896 L71.3026729,22.1404583 C71.3026729,22.6743125 70.8689185,23.0980646 70.3450667,23.0980646 L60.5025042,23.0980646 C59.9819921,23.0947248 59.5482292,22.674321 59.5482292,22.1404583 Z" id="Fill-6"></path>
                    <path d="M71.3032708,33.7545625 L71.3032708,38.5359313 C72.7580021,38.9429929 73.8290417,40.2943188 73.8290417,41.8758938 C73.8290417,43.8011 72.2608771,45.3559396 70.3489958,45.3559396 C68.4237896,45.3559396 66.855625,43.8011 66.855625,41.8758938 C66.855625,40.2943188 67.9266646,38.9430271 69.391475,38.5359313 L69.391475,34.7121688 L60.5064333,34.7121688 C59.98259,34.7121688 59.5488271,34.2784144 59.5488271,33.7545625 C59.5488271,33.2207083 59.9825815,32.7969563 60.5064333,32.7969563 L70.3489958,32.7969563 C70.8695079,32.7969563 71.3032708,33.2173685 71.3032708,33.7545625 Z" id="Fill-7"></path>
                    <path d="M75.4972292,51.4990208 C75.4972292,53.4242271 73.9423896,54.9923917 72.0171833,54.9923917 C70.4222833,54.9923917 69.0843167,53.9213521 68.6772208,52.4565417 L64.9035125,52.4565417 C64.3796692,52.4565417 63.9459062,52.0361294 63.9459062,51.4989354 L63.9459062,46.3105563 L60.5025896,46.3105563 C59.9787462,46.3105563 59.5449833,45.8768019 59.5449833,45.35295 C59.5449833,44.8290981 59.9787377,44.3953438 60.5025896,44.3953438 L64.9001812,44.3953438 C65.4340354,44.3953438 65.8577875,44.8290981 65.8577875,45.35295 L65.8577875,50.5413292 L68.6738896,50.5413292 C69.0809512,49.0865979 70.4189521,48.0155583 72.0138521,48.0155583 C73.9423896,48.0188981 75.4972292,49.5870542 75.4972292,51.4989354 L75.4972292,51.4990208 Z" id="Fill-8"></path>
                    <path d="M81.6694375,27.9522083 C81.6694375,29.8640896 80.1012729,31.4322542 78.1893917,31.4322542 C76.5944917,31.4322542 75.256525,30.3612146 74.8494292,28.9064833 L60.5054083,28.9064833 C59.981565,28.9064833 59.5478021,28.472729 59.5478021,27.9488771 C59.5478021,27.4150229 59.9815565,26.9912708 60.5054083,26.9912708 L74.8357625,26.9912708 C75.2561748,25.5265458 76.59415,24.4554208 78.18905,24.4554208 C80.1009312,24.4587606 81.6690958,26.0269167 81.6690958,27.9522083 L81.6694375,27.9522083 Z" id="Fill-9"></path>
                    <path d="M9.48961667,4.37977083 C9.48961667,2.46788958 11.0578667,0.899725 12.9697479,0.899725 C14.5646479,0.899725 15.9159396,1.97076458 16.3230354,3.42549583 L20.0833333,3.42549583 C20.6071767,3.42549583 21.0409396,3.85925021 21.0409396,4.38310208 L21.0409396,9.58480625 L24.4842563,9.58480625 C25.0181104,9.58480625 25.4418625,10.0185606 25.4418625,10.5424125 C25.4418625,11.0662558 25.0214502,11.5000188 24.4842563,11.5000188 L20.0866646,11.5000188 C19.5628213,11.5000188 19.1290583,11.0662644 19.1290583,10.5424125 L19.1290583,5.34070833 L16.32295,5.34070833 C15.9158883,6.80543333 14.5645625,7.87655833 12.9696625,7.87655833 C11.0577813,7.87321854 9.48961667,6.3050625 9.48961667,4.37977083 L9.48961667,4.37977083 Z" id="Fill-10"></path>
                    <path d="M21.4805833,46.3108125 L18.0372667,46.3108125 L18.0372667,51.4991917 C18.0372667,52.0330458 17.6035123,52.4567979 17.0796604,52.4567979 L13.3193625,52.4567979 C12.9123008,53.9215229 11.560975,54.9926479 9.966075,54.9926479 C8.05419375,54.9926479 6.48603002,53.4244833 6.48603002,51.4992771 C6.48603002,49.5873958 8.05419375,48.0192312 9.966075,48.0192312 C11.560975,48.0192312 12.9122667,49.0902708 13.3193625,50.5450021 L16.1254708,50.5450021 L16.1254708,45.3566229 C16.1254708,44.8327796 16.5592252,44.3990167 17.0830771,44.3990167 L21.4806687,44.3990167 C22.0145229,44.3990167 22.438275,44.832771 22.438275,45.3566229 C22.438275,45.877135 22.0178627,46.3108979 21.4806687,46.3108979 L21.4805833,46.3108125 Z" id="Fill-11"></path>
                    <path d="M7.15364583,28.9105833 C6.74658417,30.3653146 5.39525833,31.4363542 3.81368333,31.4363542 C1.88847708,31.4363542 0.3336375,29.8681896 0.3336375,27.9563083 C0.3336375,26.0311021 1.88847708,24.4629375 3.81368333,24.4629375 C5.39525833,24.4629375 6.74655,25.5339771 7.16697083,26.9987875 L21.4845125,26.9987875 C22.0183667,26.9987875 22.4421187,27.4191998 22.4421187,27.9563938 C22.4421187,28.4802371 22.0217065,28.914 21.4845125,28.914 L7.15364583,28.9105833 Z" id="Fill-12"></path>
                    <path d="M12.6092083,34.7095208 L12.6092083,38.5332833 C14.0639396,38.940345 15.1349792,40.2916708 15.1349792,41.8732458 C15.1349792,43.7984521 13.5668146,45.3532917 11.6549333,45.3532917 C9.72972708,45.3532917 8.1748875,43.7984521 8.1748875,41.8732458 C8.1748875,40.2916708 9.23260208,38.9403792 10.7006583,38.5332833 L10.7006583,33.7519146 C10.7006583,33.2180604 11.1210706,32.7943083 11.6582646,32.7943083 L21.4880146,32.7943083 C22.0218687,32.7943083 22.4456208,33.2147206 22.4456208,33.7519146 C22.4456208,34.2757579 22.0252085,34.7095208 21.4880146,34.7095208 L12.6092083,34.7095208 Z" id="Fill-13"></path>
                    <path d="M10.6967292,22.1404583 L10.6967292,17.3590896 C9.23200417,16.9520279 8.17095833,15.6007021 8.17095833,14.0191271 C8.17095833,12.0939208 9.72579792,10.5390812 11.6510042,10.5390812 C13.5628854,10.5390812 15.13105,12.0939208 15.13105,14.0191271 C15.13105,15.6007021 14.0600104,16.9519937 12.6052792,17.3590896 L12.6052792,21.1828521 L21.4775083,21.1828521 C22.0113625,21.1828521 22.4351146,21.6166065 22.4351146,22.1404583 C22.4351146,22.6743125 22.0147023,23.0980646 21.4775083,23.0980646 L11.651175,23.0947248 C11.1173208,23.0947248 10.6969,22.6743125 10.6969,22.1404498 L10.6967292,22.1404583 Z" id="Fill-14"></path>
                    <path d="M34.2170625,46.2236875 L34.2170625,56.0534375 C34.2170625,56.5872917 33.7833081,57.0110437 33.2594562,57.0110437 L28.4780875,57.0110437 C28.0576752,58.465775 26.7197,59.5368146 25.1248,59.5368146 C23.2129187,59.5368146 21.6447542,57.981975 21.6447542,56.0567687 C21.6447542,54.1448875 23.2129187,52.5767229 25.1248,52.5767229 C26.7197,52.5767229 28.0576667,53.6477625 28.4647625,55.1024937 L32.30185,55.1024937 L32.30185,46.2302646 C32.30185,45.6964104 32.7356044,45.27258 33.2594562,45.27258 C33.7832996,45.2659873 34.2170625,45.6863996 34.2170625,46.2236021 L34.2170625,46.2236875 Z" id="Fill-15"></path>
                    <path d="M42.5417708,63.8912708 C42.5417708,65.8164771 40.9869312,67.3713158 39.061725,67.3713158 C37.1365187,67.3713158 35.5816792,65.8164771 35.5816792,63.8912708 C35.5816792,62.3096958 36.6393937,60.9584042 38.10745,60.5513083 L38.10745,46.2243708 C38.10745,45.6905167 38.5412044,45.2667646 39.0650562,45.2667646 C39.5989104,45.2667646 40.0226625,45.6871769 40.0226625,46.2243708 L40.0226625,60.554725 C41.4840562,60.9584554 42.5417708,62.3097813 42.5417708,63.8912708 Z" id="Fill-16"></path>
                </g>
                <g id="Lock" transform="translate(30.000000, 17.000000)" fill-rule="nonzero">
                    <path d="M37.9209637,25.4097885 L35.4057783,25.4097885 L35.4057783,16.3686768 C35.4494889,12.0983901 33.8741215,7.97375193 31.0042038,4.84444285 C28.1834959,1.75599941 24.2176138,0 20.0631472,0 C15.9086805,0 11.9427985,1.75599941 9.12209061,4.84444285 C6.2466085,7.97022659 4.67034648,12.0972071 4.72051612,16.3686768 L4.72051612,25.4097885 L2.20533069,25.4097885 C1.61722608,25.3523526 1.03391105,25.5595439 0.61011817,25.9764017 C0.186325291,26.3932596 -0.0351128121,26.9776524 0.00454344909,27.5745617 L0.00454344909,51.0050483 C0.00427740045,51.5566239 0.224880695,52.0847407 0.61594286,52.4687178 C1.00700503,52.8526949 1.53510708,53.0597187 2.07957142,53.0424819 L37.9209637,53.0424819 C38.465428,53.0597187 38.9935301,52.8526949 39.3845923,52.4687178 C39.7756544,52.0847407 39.9962577,51.5566239 39.9959917,51.0050483 L39.9959917,27.5745617 C40.0317629,27.0012515 39.8268531,26.4392904 39.4317259,26.0270739 C39.0365987,25.6148573 38.4879742,25.3906938 37.9209637,25.4097885 Z M28.1746202,25.4097885 L11.8259149,25.4097885 L11.8259149,16.2413372 C11.8296153,13.8592381 12.7551473,11.5734759 14.40398,9.8743571 C15.824047,8.25430111 17.8610079,7.32716208 20.0002676,7.32716208 C22.1395272,7.32716208 24.1764881,8.25430111 25.5965551,9.8743571 C25.9658169,10.2701818 26.3023088,10.6960822 26.6026293,11.1477531 L26.6026293,11.1477531 C27.6158632,12.6253676 28.1638684,14.3788251 28.1746202,16.1776674 L28.1746202,25.4097885 Z" id="Shape" fill="#FFBD02"></path>
                    <path d="M2.11925441,25.2185534 L38.6539837,25.2185534 C39.1498913,25.2211953 39.6280709,25.4077039 40,25.743552 L0.77323807,53.0434783 C0.310546808,52.6537146 0.031018022,52.0813225 0.0040858749,51.4684825 L0.0040858749,27.4497974 C-0.032377358,26.8588834 0.176496347,26.2796669 0.579267144,25.854793 C0.982037942,25.4299191 1.54127529,25.1988724 2.11925441,25.2185534 Z" id="Path" fill="#FFE452"></path>
                    <path d="M37.8807456,25.2185534 L1.34601634,25.2185534 C0.8501087,25.2211953 0.371929052,25.4077039 0,25.743552 L39.2267619,53.0434783 C39.7109545,52.6716722 39.9959141,52.0881593 39.9959141,51.4684825 L39.9959141,27.4497974 C40.0323774,26.8588834 39.8235037,26.2796669 39.4207329,25.854793 C39.0179621,25.4299191 38.4587247,25.1988724 37.8807456,25.2185534 Z" id="Path" fill="#FFD400" opacity="0.5"></path>
                </g>
            </g>
        </g>
    </g>
</svg>