<?xml version="1.0" encoding="UTF-8"?>
<svg width="100px" height="100px" viewBox="0 0 100 100" version="1.1" xmlns="http://www.w3.org/2000/svg" xmlns:xlink="http://www.w3.org/1999/xlink">
    <!-- Generator: Sketch 58 (84663) - https://sketch.com -->
    <title>Extend Microsoft Office/understand-actionable-messages</title>
    <desc>Created with Sketch.</desc>
    <defs>
        <rect id="path-1" x="0" y="0" width="96" height="96" rx="48"></rect>
        <filter x="-6.2%" y="-9.1%" width="112.5%" height="118.2%" filterUnits="objectBoundingBox" id="filter-3">
            <feOffset dx="0" dy="2" in="SourceAlpha" result="shadowOffsetOuter1"></feOffset>
            <feColorMatrix values="0 0 0 0 0   0 0 0 0 0   0 0 0 0 0  0 0 0 0.0964956975 0" type="matrix" in="shadowOffsetOuter1" result="shadowMatrixOuter1"></feColorMatrix>
            <feMerge>
                <feMergeNode in="shadowMatrixOuter1"></feMergeNode>
                <feMergeNode in="SourceGraphic"></feMergeNode>
            </feMerge>
        </filter>
        <filter x="-13.3%" y="-13.3%" width="126.7%" height="126.7%" filterUnits="objectBoundingBox" id="filter-4">
            <feOffset dx="0" dy="2" in="SourceAlpha" result="shadowOffsetOuter1"></feOffset>
            <feColorMatrix values="0 0 0 0 0   0 0 0 0 0   0 0 0 0 0  0 0 0 0.1 0" type="matrix" in="shadowOffsetOuter1" result="shadowMatrixOuter1"></feColorMatrix>
            <feMerge>
                <feMergeNode in="shadowMatrixOuter1"></feMergeNode>
                <feMergeNode in="SourceGraphic"></feMergeNode>
            </feMerge>
        </filter>
    </defs>
    <g id="Badges" stroke="none" stroke-width="1" fill="none" fill-rule="evenodd">
        <g id="Extend-Microsoft-Office" transform="translate(-50.000000, -660.000000)">
            <g id="Extend-Microsoft-Office/understand-actionable-messages" transform="translate(50.000000, 660.000000)">
                <g id="Mask" transform="translate(2.000000, 2.000000)">
                    <mask id="mask-2" fill="white">
                        <use xlink:href="#path-1"></use>
                    </mask>
                    <use id="BG" fill="#55A2FF" xlink:href="#path-1"></use>
                    <g id="Envelope" filter="url(#filter-3)" mask="url(#mask-2)">
                        <g transform="translate(16.000000, 26.000000)">
                            <path d="M24.201,19.8 L1.181,42.82 C0.451,42.101 4.70734562e-13,41.101 4.70734562e-13,40 L4.70734562e-13,4 C4.70734562e-13,3 0.371,2.081 1,1.38 L24.201,19.8" id="Fill-4" fill="#EFB252"></path>
                            <path d="M62.82,42.82 C62.101,43.55 61.101,44 60,44 L4,44 C2.9,44 1.9,43.55 1.181,42.82 L24.201,19.8 L32,26 L39.9,19.9 L62.82,42.82" id="Fill-5" fill="#F7CB64"></path>
                            <path d="M64,4 L64,40 C64,41.101 63.55,42.101 62.82,42.82 L39.9,19.9 L63.34,1.82 C63.76,2.451 64,3.201 64,4" id="Fill-6" fill="#EFB252"></path>
                            <path d="M63.34,1.82 L39.9,19.9 L32,26 L24.201,19.8 L1,1.38 C1.721,0.53 2.8,0 4,0 L60,0 C61.4,0 62.63,0.721 63.34,1.82" id="Fill-7" fill="#F7CB64"></path>
                            <polyline id="Fill-8" fill="#CC9547" points="39.9 19.9 32 26 24.201 19.8 7.388 6.452 32 28 52.781 9.965 39.9 19.9"></polyline>
                        </g>
                    </g>
                    <g id="Check" filter="url(#filter-4)" mask="url(#mask-2)">
                        <g transform="translate(53.000000, 49.000000)">
                            <path d="M15,0 C6.72890625,0 0,6.72890625 0,15 C0,23.270625 6.72890625,30 15,30 C23.2710938,30 30,23.270625 30,15 C30,6.72890625 23.2710938,0 15,0" id="Fill-109" fill="#7CB65A"></path>
                            <path d="M21.6192188,10.7245313 C21.0703125,10.1751562 20.1796875,10.1751562 19.6307812,10.7245313 L14.0625,16.2928125 L11.3067188,13.5370313 C10.7578125,12.9876562 9.8671875,12.9876562 9.31828125,13.5370313 C8.76890625,14.0859375 8.76890625,14.9765625 9.31828125,15.5254687 L13.0682813,19.2754687 C13.3425,19.5501563 13.7025,19.6875 14.0625,19.6875 C14.4225,19.6875 14.7825,19.5501563 15.0567188,19.2754687 L21.6192188,12.7129687 C22.1685937,12.1640625 22.1685937,11.2734375 21.6192188,10.7245313" id="Fill-110" fill="#FFFFFE"></path>
                        </g>
                    </g>
                </g>
                <g id="Azure-Border" stroke="#0078D4" stroke-width="4">
                    <rect x="2" y="2" width="96" height="96" rx="48"></rect>
                </g>
            </g>
        </g>
    </g>
</svg>