<svg width="160" height="188" viewBox="0 0 160 188" fill="none" xmlns="http://www.w3.org/2000/svg">
<g clip-path="url(#clip0_1102_1281)">
<path d="M80.0334 188C83.1147 187.994 86.1351 187.141 88.7638 185.534L150.739 147.874C153.52 146.11 155.804 143.665 157.375 140.771C158.945 137.876 159.749 134.628 159.711 131.336V56.6207C159.747 53.3283 158.942 50.0812 157.372 47.1871C155.802 44.2929 153.519 41.8476 150.739 40.0829L88.7638 2.4228C86.1303 0.837605 83.1147 0 80.041 0C76.9672 0 73.9516 0.837605 71.3182 2.4228L9.34307 40.098C6.55997 41.8604 4.27342 44.3048 2.70046 47.1991C1.12749 50.0935 0.32029 53.3418 0.355473 56.6358V131.336C0.33694 134.119 0.911657 136.874 2.04135 139.418C3.17104 141.962 4.82977 144.236 6.90707 146.089V146.115L71.3182 185.549C73.9438 187.149 76.9586 187.996 80.0334 188V188ZM80.6812 6.95218C82.6331 6.95218 85.1103 8.1651 86.8201 9.20912L147.577 46.4034C151.329 48.6881 153.445 55.2842 153.445 60.0352L152.813 131.336C152.813 136.087 149.614 140.355 145.861 142.64L85.4659 179.021C82.0313 181.109 79.2409 181.109 75.8062 179.021L14.5982 142.549C10.8458 140.265 7.82738 136.072 7.82738 131.336V57.688C7.85989 55.3228 8.46888 53.0013 9.60155 50.9247C10.7342 48.8482 12.3563 47.0792 14.3273 45.7714L74.9035 9.20912C76.6132 8.1651 78.7294 6.95218 80.6812 6.95218Z" fill="#F2F1F0"/>
<path fill-rule="evenodd" clip-rule="evenodd" d="M87.9319 10.5328C85.561 9.05928 82.8252 8.27838 80.0337 8.27838C77.2422 8.27838 74.5064 9.05928 72.1355 10.5328L16.0008 44.8642C13.4748 46.4759 11.4025 48.7062 9.98047 51.3437C8.55847 53.9812 7.83398 56.9382 7.87573 59.9343V128.038C7.83581 131.033 8.56109 133.99 9.98292 136.627C11.4048 139.264 13.4761 141.495 16.0008 143.108L72.1355 177.439C74.5063 178.912 77.2422 179.694 80.0337 179.694C82.8253 179.694 85.5612 178.912 87.9319 177.439L144.066 143.108C146.591 141.495 148.663 139.264 150.085 136.627C151.507 133.99 152.232 131.033 152.192 128.038V59.9343C152.23 56.9388 151.504 53.983 150.082 51.3461C148.66 48.7092 146.59 46.4784 144.066 44.8642L87.9319 10.5328Z" fill="url(#paint0_linear_1102_1281)"/>
<path fill-rule="evenodd" clip-rule="evenodd" d="M80.0338 9.75432C81.717 9.75432 83.5997 10.62 85.6665 11.8781L144.132 47.4205C146.024 48.6339 147.573 50.3108 148.634 52.2919C149.694 54.2729 150.231 56.4922 150.192 58.739V129.218C150.231 131.464 149.694 133.684 148.634 135.664C147.573 137.645 146.024 139.322 144.132 140.536L85.6675 176.078L85.6665 176.079C83.9963 177.218 82.0512 177.889 80.0338 178.022C78.0163 177.889 76.0713 177.218 74.4011 176.079L74.4001 176.078L15.9378 140.538L15.9356 140.537C14.1473 139.573 12.6222 138.186 11.4938 136.497C10.5169 134.894 9.87578 132.679 9.87578 129.218V58.739C9.83704 56.4923 10.3734 54.273 11.434 52.292C12.4945 50.311 14.044 48.6341 15.9352 47.4206L74.392 11.8835L74.3961 11.8811C76.4799 10.6281 78.3401 9.75432 80.0338 9.75432ZM87.7463 8.46132L146.21 44.0026C148.689 45.5727 150.723 47.7514 152.121 50.3311C153.518 52.9109 154.231 55.8055 154.192 58.7391V129.218C154.231 132.151 153.518 135.046 152.121 137.626C150.723 140.205 148.688 142.384 146.21 143.955L87.7453 179.496C85.4511 181.021 82.7857 181.894 80.0338 182.022C77.2819 181.894 74.6164 181.021 72.3222 179.496H72.3213L13.8575 143.954L13.855 143.953C11.5197 142.66 9.53644 140.814 8.07828 138.579C6.4837 135.725 5.72068 132.482 5.87578 129.218V58.739C5.83672 55.8054 6.54983 52.9107 7.94712 50.331C9.34441 47.7512 11.3793 45.5724 13.8577 44.0024L72.3222 8.46067L72.3304 8.45579C74.421 7.19838 77.1289 5.75433 80.0338 5.75433C82.92 5.75433 85.6371 7.17741 87.7463 8.46127V8.46132Z" fill="#0078D4"/>
<g opacity="0.2">
<path d="M139.965 132.026L80.4154 166.633L20.4764 132.027L80.0264 97.42L139.965 132.026Z" fill="#003067"/>
</g>
<path d="M140.956 120.649L80.2334 155.937L19.1224 120.654L79.8444 85.366L140.956 120.649Z" fill="#1B93EB"/>
<path d="M140.956 120.649L140.944 124.755L80.2224 160.043L80.2334 155.937L140.956 120.649Z" fill="#1F56A3"/>
<path d="M80.2335 155.937L80.2225 160.043L19.1105 124.76L19.1225 120.654L80.2335 155.937Z" fill="#0078D4"/>
<path d="M84.0566 101.434C85.2281 102.11 85.2528 103.19 84.089 103.867L50.7681 123.231C50.1166 123.56 49.3967 123.73 48.6668 123.728C47.937 123.726 47.2179 123.552 46.5682 123.22L41.3532 120.209C41.1011 120.123 40.882 119.961 40.7263 119.745C40.5707 119.528 40.4863 119.269 40.4848 119.003C40.4833 118.736 40.5647 118.476 40.7179 118.258C40.8711 118.041 41.0883 117.876 41.3395 117.787L74.6604 98.423C75.3076 98.0923 76.0241 97.9198 76.751 97.9198C77.4778 97.9198 78.1943 98.0923 78.8415 98.423L84.0566 101.434Z" fill="#0078D4"/>
<path d="M40.4845 118.989C40.5075 119.252 40.6001 119.503 40.7528 119.717C40.9055 119.932 41.1127 120.101 41.353 120.209L46.5682 123.22C47.2179 123.552 47.937 123.726 48.6669 123.728C49.3967 123.73 50.1167 123.56 50.7682 123.231L84.0889 103.867C84.3253 103.761 84.5295 103.594 84.6805 103.384C84.8316 103.174 84.9241 102.927 84.9487 102.669L84.9349 107.494C84.9104 107.752 84.818 107.999 84.6669 108.209C84.5158 108.419 84.3116 108.586 84.0751 108.691L50.7545 128.055C50.103 128.384 49.383 128.555 48.6532 128.553C47.9233 128.551 47.2043 128.377 46.5545 128.045L41.3397 125.034C41.0994 124.926 40.8922 124.756 40.7395 124.542C40.5868 124.328 40.4942 124.076 40.4712 123.814L40.4845 118.989Z" fill="#1F56A3"/>
<path d="M108.671 104.51C109.842 105.187 109.848 106.277 108.703 106.943L65.7709 131.892C65.1194 132.222 64.3995 132.392 63.6696 132.39C62.9398 132.388 62.2207 132.214 61.571 131.882L56.356 128.871C56.1039 128.785 55.8848 128.623 55.7291 128.406C55.5735 128.19 55.4891 127.931 55.4876 127.665C55.4861 127.398 55.5676 127.138 55.7208 126.92C55.8739 126.702 56.0912 126.538 56.3423 126.449L99.2747 101.499C99.9227 101.171 100.639 101 101.365 101C102.092 101 102.808 101.171 103.456 101.499L108.671 104.51Z" fill="#50E6FF"/>
<path d="M55.4874 127.651C55.5103 127.913 55.603 128.165 55.7558 128.379C55.9085 128.594 56.1158 128.763 56.3562 128.871L61.571 131.882C62.2207 132.214 62.9397 132.388 63.6696 132.39C64.3994 132.392 65.1193 132.222 65.7707 131.892L108.703 106.943C108.939 106.836 109.141 106.669 109.291 106.459C109.441 106.248 109.532 106.002 109.556 105.744L109.542 110.569C109.519 110.827 109.427 111.073 109.278 111.284C109.128 111.494 108.925 111.661 108.689 111.768L65.757 136.717C65.1056 137.046 64.3856 137.217 63.6558 137.215C62.926 137.213 62.207 137.039 61.5573 136.706L56.3425 133.695C56.1021 133.588 55.8948 133.418 55.7421 133.204C55.5894 132.99 55.4968 132.738 55.474 132.476L55.4874 127.651Z" fill="#32BEDD"/>
<path d="M100.077 126.907C100.329 126.993 100.548 127.155 100.704 127.371C100.859 127.587 100.944 127.847 100.945 128.113C100.947 128.379 100.865 128.639 100.712 128.857C100.559 129.075 100.341 129.24 100.09 129.329L80.7736 140.554C80.1256 140.882 79.4095 141.053 78.6831 141.053C77.9568 141.053 77.2407 140.882 76.5927 140.554L71.3777 137.543C70.2062 136.867 70.1999 135.776 71.345 135.111L90.6617 123.885C91.3132 123.556 92.0332 123.385 92.7631 123.387C93.493 123.389 94.2121 123.564 94.8618 123.896L100.077 126.907Z" fill="#C3F1FF"/>
<path d="M70.4924 136.309C70.5167 136.575 70.6115 136.83 70.7671 137.047C70.9227 137.264 71.1334 137.435 71.3775 137.543L76.5927 140.554C77.2407 140.882 77.9568 141.053 78.6831 141.053C79.4094 141.053 80.1256 140.882 80.7735 140.554L100.09 129.329C100.326 129.222 100.53 129.054 100.68 128.843C100.83 128.631 100.922 128.384 100.945 128.126L100.932 132.951C100.908 133.209 100.817 133.456 100.666 133.668C100.516 133.879 100.313 134.046 100.077 134.153L80.7598 145.379C80.1118 145.707 79.3957 145.878 78.6694 145.878C77.9431 145.878 77.2269 145.707 76.5789 145.379L71.3637 142.368C71.1197 142.26 70.909 142.088 70.7534 141.871C70.5978 141.654 70.503 141.4 70.4786 141.134L70.4924 136.309Z" fill="#9CEBFF"/>
<path d="M90.1942 57.5397L87.1228 59.3246C88.4788 58.5366 90.3561 58.6478 92.4255 59.8425C93.3117 60.3619 94.1317 60.9867 94.8675 61.7033L97.9388 59.9185C97.203 59.2019 96.3831 58.5771 95.497 58.0577C93.4275 56.863 91.55 56.7518 90.1942 57.5397Z" fill="#E8E8E8"/>
<path d="M128.531 67.1643C127.702 66.675 126.817 66.2857 125.895 66.0048C123.212 59.5569 118.504 53.6286 113.118 50.5191C108.912 48.0905 105.102 47.8644 102.349 49.464L99.2778 51.2488C102.03 49.6493 105.84 49.8754 110.047 52.304C115.433 55.4135 120.141 61.3418 122.824 67.7896C123.745 68.0706 124.63 68.4598 125.46 68.9491C131.968 72.7063 137.213 81.8187 137.192 89.2875C137.195 90.1029 137.123 90.9169 136.977 91.7192C136.962 91.8338 136.923 91.9442 136.907 92.0765C136.698 93.0314 136.348 93.9499 135.868 94.8016C135.814 94.8941 135.745 94.969 135.69 95.0615C135.192 95.7977 134.536 96.4135 133.77 96.8642L136.841 95.0793C137.608 94.6286 138.264 94.0128 138.762 93.2767C138.816 93.1841 138.885 93.1092 138.94 93.0168C139.419 92.1651 139.769 91.2466 139.978 90.2917C139.994 90.1593 140.033 90.049 140.049 89.9343C140.194 89.132 140.266 88.3181 140.263 87.5027C140.284 80.0338 135.039 70.9214 128.531 67.1643Z" fill="#E8E8E8"/>
<path d="M110.047 52.3039C115.433 55.4135 120.141 61.3418 122.824 67.7896C123.745 68.0706 124.63 68.4598 125.46 68.9491C131.968 72.7063 137.213 81.8187 137.192 89.2875C137.195 90.1029 137.123 90.9168 136.977 91.7192C136.962 91.8339 136.923 91.9442 136.907 92.0765C136.698 93.0315 136.348 93.9499 135.868 94.8016C135.814 94.8941 135.745 94.969 135.691 95.0615C133.651 98.0222 129.786 98.6028 125.368 96.0523L91.6397 76.4996C87.8839 73.898 84.9362 68.5528 84.9488 64.1033C84.9622 59.3713 88.3152 57.4694 92.4257 59.8426C93.3118 60.3619 94.1317 60.9867 94.8675 61.7034C94.8529 61.4562 94.8535 61.2266 94.8542 60.9883C94.8815 51.3565 101.68 47.4734 110.047 52.3039Z" fill="white"/>
<path d="M31.1895 61.649L30.6455 61.962L30.7595 102.098L31.3035 101.784L31.1895 61.649Z" fill="white"/>
<path d="M36.0058 78.4514C35.7718 78.603 35.5772 78.8079 35.4378 79.0493C35.2984 79.2907 35.2183 79.5617 35.2041 79.8401L35.2175 84.5781C35.219 85.086 35.5752 85.2974 36.0244 85.038L67.6457 67.2581C67.8789 67.1058 68.073 66.9007 68.2123 66.6595C68.3516 66.4182 68.4321 66.1476 68.4473 65.8695L68.4339 61.1315C68.4325 60.6235 68.069 60.4163 67.627 60.6715L36.0058 78.4514Z" fill="#50E6FF"/>
<path d="M35.9762 68.0511C35.7423 68.2027 35.5476 68.4075 35.4083 68.649C35.2689 68.8904 35.1888 69.1614 35.1746 69.4398L35.188 74.1778C35.1894 74.6857 35.5456 74.8971 35.9949 74.6377L62.3985 59.8702C62.6317 59.7179 62.8258 59.5128 62.9651 59.2715C63.1044 59.0303 63.185 58.7596 63.2002 58.4815L63.1868 53.7435C63.1854 53.2355 62.8219 53.0284 62.3798 53.2836L35.9762 68.0511Z" fill="#C3F1FF"/>
<path d="M36.0352 88.8518C35.8012 89.0033 35.6066 89.2082 35.4672 89.4496C35.3279 89.691 35.2478 89.962 35.2335 90.2404L35.247 94.9784C35.2484 95.4864 35.6046 95.6977 36.0539 95.4383L55.7326 84.5533C55.9659 84.401 56.16 84.1959 56.2993 83.9547C56.4386 83.7134 56.5191 83.4428 56.5344 83.1646L56.521 78.4266C56.5195 77.9187 56.156 77.7116 55.714 77.9667L36.0352 88.8518Z" fill="#0078D4"/>
<path d="M30.9711 60.4577C30.6701 60.6535 30.4197 60.9176 30.2402 61.2286C30.0606 61.5395 29.9571 61.8885 29.938 62.247C29.9398 62.9039 30.4062 63.1696 30.9778 62.8395C31.2788 62.6437 31.5292 62.3796 31.7087 62.0686C31.8882 61.7577 31.9917 61.4087 32.0108 61.0502C32.009 60.3934 31.5427 60.1276 30.9711 60.4577Z" fill="white"/>
<path d="M30.9711 100.593C30.6701 100.789 30.4197 101.053 30.2402 101.364C30.0606 101.675 29.9571 102.024 29.938 102.383C29.9398 103.04 30.4062 103.305 30.9778 102.975C31.2788 102.779 31.5292 102.515 31.7087 102.204C31.8882 101.893 31.9917 101.544 32.0108 101.186C32.009 100.529 31.5427 100.263 30.9711 100.593Z" fill="white"/>
<path d="M117 75.5218C116.987 80.3492 113.738 82.442 109.626 80.4496L110.313 81.64L110.377 81.7649C110.574 82.1873 110.553 82.6164 110.31 82.7552C110.231 82.7902 110.144 82.8039 110.059 82.795C109.973 82.7861 109.891 82.7548 109.821 82.7043C109.617 82.5778 109.449 82.4011 109.333 82.1911L107.513 79.0314L107.443 78.9028C107.246 78.4804 107.273 78.0549 107.516 77.9162L109.348 76.8649L109.431 76.8395C109.573 76.8115 109.72 76.8408 109.841 76.9209C110.043 77.0467 110.209 77.2214 110.325 77.4289C110.586 77.8882 110.584 78.387 110.322 78.544L109.7 78.8981C113.022 80.4041 115.617 78.6616 115.628 74.7293C115.521 72.0054 114.616 69.3728 113.027 67.158C112.728 66.7206 112.672 66.1886 112.903 65.9765C112.982 65.9178 113.079 65.8868 113.178 65.8881C113.277 65.8894 113.373 65.923 113.451 65.9838C113.617 66.0857 113.76 66.2232 113.867 66.3863C115.782 69.06 116.871 72.2359 117 75.5218V75.5218Z" fill="#0078D4"/>
<path d="M104.757 74.3466C105.044 74.7913 105.087 75.3159 104.843 75.506C104.763 75.5584 104.669 75.5848 104.573 75.5816C104.477 75.5783 104.385 75.5456 104.309 75.4879C104.134 75.3805 103.987 75.2338 103.879 75.0594C102.106 72.4632 101.104 69.4185 100.988 66.2768C101.001 61.4568 104.243 59.3603 108.362 61.3564L107.675 60.166C107.408 59.703 107.409 59.2041 107.678 59.0508C107.756 59.0157 107.843 59.0017 107.928 59.0103C108.013 59.0189 108.095 59.0498 108.164 59.0999C108.367 59.226 108.534 59.402 108.649 59.6111L110.475 62.7746C110.742 63.2376 110.741 63.7365 110.472 63.8898L108.634 64.9374C108.555 64.9725 108.469 64.9865 108.384 64.9779C108.299 64.9693 108.217 64.9384 108.148 64.8884C107.945 64.7622 107.778 64.5862 107.663 64.3772C107.396 63.9142 107.397 63.4153 107.666 63.262L108.288 62.9079C104.967 61.4019 102.372 63.1444 102.36 67.0694C102.456 69.6728 103.287 72.196 104.757 74.3466V74.3466Z" fill="#0078D4"/>
</g>
<defs>
<linearGradient id="paint0_linear_1102_1281" x1="80.0339" y1="8.27838" x2="80.0339" y2="179.694" gradientUnits="userSpaceOnUse">
<stop stop-color="#00ABDE"/>
<stop offset="1" stop-color="#007ED8"/>
</linearGradient>
<clipPath id="clip0_1102_1281">
<rect width="159.356" height="188" fill="white" transform="translate(0.355469)"/>
</clipPath>
</defs>
</svg>
