<?xml version="1.0" encoding="UTF-8"?>
<svg width="100px" height="100px" viewBox="0 0 100 100" version="1.1" xmlns="http://www.w3.org/2000/svg" xmlns:xlink="http://www.w3.org/1999/xlink">
    <!-- Generator: Sketch 55.2 (78181) - https://sketchapp.com -->
    <title>Office in Windows for IT/upgrade-office-in-windows-for-it</title>
    <desc>Created with Sketch.</desc>
    <defs>
        <rect id="path-1" x="0" y="0" width="96" height="96" rx="48"></rect>
        <filter x="-5.9%" y="-10.0%" width="111.8%" height="120.0%" filterUnits="objectBoundingBox" id="filter-3">
            <feOffset dx="0" dy="2" in="SourceAlpha" result="shadowOffsetOuter1"></feOffset>
            <feColorMatrix values="0 0 0 0 0   0 0 0 0 0   0 0 0 0 0  0 0 0 0.0964956975 0" type="matrix" in="shadowOffsetOuter1" result="shadowMatrixOuter1"></feColorMatrix>
            <feMerge>
                <feMergeNode in="shadowMatrixOuter1"></feMergeNode>
                <feMergeNode in="SourceGraphic"></feMergeNode>
            </feMerge>
        </filter>
    </defs>
    <g id="Badges" stroke="none" stroke-width="1" fill="none" fill-rule="evenodd">
        <g id="Office-in-Windows-for-IT" transform="translate(-50.000000, -660.000000)">
            <g id="Office-in-Windows-for-IT/upgrade-office-in-windows-for-it" transform="translate(50.000000, 660.000000)">
                <g id="Mask" transform="translate(2.000000, 2.000000)">
                    <mask id="mask-2" fill="white">
                        <use xlink:href="#path-1"></use>
                    </mask>
                    <use id="BG" fill="#55A2FF" xlink:href="#path-1"></use>
                    <g id="Laptop" filter="url(#filter-3)" mask="url(#mask-2)">
                        <g transform="translate(13.000000, 27.000000)">
                            <path d="M0,33.592599 L0,35.6921364 C0,38.0016276 1.88958369,39.8912113 4.19907487,39.8912113 L62.9861231,39.8912113 C65.2956143,39.8912113 67.185198,38.0016276 67.185198,35.6921364 L67.185198,33.592599 L0,33.592599" id="Fill-1415" fill="#E1E4E1" fill-rule="evenodd"></path>
                            <path d="M10.4976872,0 C8.188196,0 6.29861231,1.88958369 6.29861231,4.19907487 L6.29861231,33.592599 L60.8865857,33.592599 L60.8865857,4.19907487 C60.8865857,1.88958369 58.997002,0 56.6875108,0 L10.4976872,0 Z M56.6875108,2.09953744 C57.8443559,2.09953744 58.7870482,3.04117998 58.7870482,4.19907487 L58.7870482,31.4930616 L8.39814975,31.4930616 L8.39814975,4.19907487 C8.39814975,3.04117998 9.33979229,2.09953744 10.4976872,2.09953744 L56.6875108,2.09953744 L56.6875108,2.09953744 Z" id="Fill-1416" fill="#182A37" fill-rule="evenodd"></path>
                            <path d="M8.39814975,4.19907487 C8.39814975,3.04117998 9.33979229,2.09953744 10.4976872,2.09953744 L56.6875108,2.09953744 C57.8443559,2.09953744 58.7870482,3.04117998 58.7870482,4.19907487 L58.7870482,31.4930616 L8.39814975,31.4930616 L8.39814975,4.19907487" id="Fill-1417" fill="#30404D" fill-rule="evenodd"></path>
                            <path d="M10.4976872,2.09953744 L32.9511903,2.09953744 L22.6865518,31.4930616 L8.39814975,31.4930616 L8.39814975,4.19907487 C8.39814975,3.04117998 9.33979229,2.09953744 10.4976872,2.09953744" id="Fill-1418" fill="#384B58" fill-rule="evenodd"></path>
                            <path d="M10.4976872,0 L33.592599,0 L32.9511903,2.09953744 L10.4976872,2.09953744 C9.33979229,2.09953744 8.39814975,3.04117998 8.39814975,4.19907487 L8.39814975,31.4930616 L22.6865518,31.4930616 L22.0451431,33.592599 L6.29861231,33.592599 L6.29861231,4.19907487 C6.29861231,1.88958369 8.188196,0 10.4976872,0" id="Fill-1419" fill="#30404D" fill-rule="evenodd"></path>
                            <path d="M31.4930616,37.7916739 L0.586820714,37.7916739 C1.31640997,39.0387991 2.65696463,39.8912113 4.19907487,39.8912113 L62.9861231,39.8912113 C65.2956143,39.8912113 67.185198,38.0016276 67.185198,35.6921364 L67.185198,33.592599 L33.592599,33.592599 L33.592599,35.6921364 C33.592599,36.8521309 32.653056,37.7916739 31.4930616,37.7916739" id="Fill-1420" fill="#CDD6D8" fill-rule="evenodd"></path>
                            <path d="M29.3935241,35.6921364 L37.7916739,35.6921364 C38.9506185,35.6921364 39.8912113,34.7515437 39.8912113,33.592599 L27.2939867,33.592599 C27.2939867,34.7515437 28.2335297,35.6921364 29.3935241,35.6921364" id="Fill-1421" fill="#AAB0B1" fill-rule="evenodd"></path>
                            <polygon id="Path" fill="#F65B23" fill-rule="nonzero" points="22.636074 24.892644 22.636074 8.84329741 36.8336369 3.5962995 44.549124 6.06562205 44.549124 27.6703193 36.8336369 29.9962995 22.636074 24.892644 36.8336369 26.6010852 36.8336369 7.91740563 27.5738857 10.0779587 27.5738857 22.7325076"></polygon>
                        </g>
                    </g>
                    <g id="Check" mask="url(#mask-2)">
                        <g transform="translate(56.593331, 48.000000)">
                            <path d="M13.3691648,0 C5.99732378,0 0,5.99732378 0,13.3691648 C0,20.7405881 5.99732378,26.7383296 13.3691648,26.7383296 C20.7410059,26.7383296 26.7383296,20.7405881 26.7383296,13.3691648 C26.7383296,5.99732378 20.7410059,0 13.3691648,0" id="Fill-109" fill="#7CB65A"></path>
                            <path d="M19.2648301,12.1983304 L14.7546822,6.78615304 C14.0691398,5.96350208 12.6691899,5.96350208 11.9836474,6.78615304 L7.47349957,12.1983304 C6.83576467,12.9641535 6.93859604,14.1007108 7.70441914,14.7384457 C8.47024224,15.3761806 9.60679949,15.2733492 10.2445344,14.5075261 L11.5651057,12.9235622 L11.5651057,18.7651057 C11.5651057,19.7618484 12.3724221,20.5691648 13.3691648,20.5691648 C14.3650055,20.5691648 15.1732239,19.7618484 15.1732239,18.7651057 L15.1732239,12.9235622 L16.4937952,14.5075261 C16.8500969,14.9359902 17.3633517,15.1569874 17.8802147,15.1569874 C18.28703,15.1569874 18.6965514,15.0198789 19.0339105,14.7384457 C19.7997336,14.1007108 19.902565,12.9641535 19.2648301,12.1983304" id="Fill-333" fill="#FFFFFE"></path>
                        </g>
                    </g>
                </g>
                <g id="Azure-Border" stroke="#0078D4" stroke-width="4">
                    <rect x="2" y="2" width="96" height="96" rx="48"></rect>
                </g>
            </g>
        </g>
    </g>
</svg>