<?xml version="1.0" encoding="UTF-8"?>
<svg width="107px" height="107px" viewBox="0 0 107 107" version="1.1" xmlns="http://www.w3.org/2000/svg" xmlns:xlink="http://www.w3.org/1999/xlink">
    <title>Manage document collaboration with Microsoft OneDrive/use-onedrive-in-microsoft-365</title>
    <defs>
        <rect id="path-1" x="0" y="0" width="100" height="100" rx="50"></rect>
        <filter x="-13.8%" y="-13.8%" width="127.6%" height="127.6%" filterUnits="objectBoundingBox" id="filter-3">
            <feOffset dx="0" dy="2" in="SourceAlpha" result="shadowOffsetOuter1"></feOffset>
            <feColorMatrix values="0 0 0 0 0   0 0 0 0 0   0 0 0 0 0  0 0 0 0.0964956975 0" type="matrix" in="shadowOffsetOuter1" result="shadowMatrixOuter1"></feColorMatrix>
            <feMerge>
                <feMergeNode in="shadowMatrixOuter1"></feMergeNode>
                <feMergeNode in="SourceGraphic"></feMergeNode>
            </feMerge>
        </filter>
        <circle id="path-4" cx="48" cy="48" r="20"></circle>
        <filter x="-2.5%" y="-2.5%" width="105.0%" height="110.0%" filterUnits="objectBoundingBox" id="filter-5">
            <feOffset dx="0" dy="2" in="SourceAlpha" result="shadowOffsetOuter1"></feOffset>
            <feColorMatrix values="0 0 0 0 0   0 0 0 0 0   0 0 0 0 0  0 0 0 0.1 0" type="matrix" in="shadowOffsetOuter1"></feColorMatrix>
        </filter>
        <filter x="-13.3%" y="-21.7%" width="126.7%" height="146.6%" filterUnits="objectBoundingBox" id="filter-6">
            <feOffset dx="0" dy="2" in="SourceAlpha" result="shadowOffsetOuter1"></feOffset>
            <feColorMatrix values="0 0 0 0 0   0 0 0 0 0   0 0 0 0 0  0 0 0 0.0964956975 0" type="matrix" in="shadowOffsetOuter1" result="shadowMatrixOuter1"></feColorMatrix>
            <feMerge>
                <feMergeNode in="shadowMatrixOuter1"></feMergeNode>
                <feMergeNode in="SourceGraphic"></feMergeNode>
            </feMerge>
        </filter>
        <filter x="-22.5%" y="-36.2%" width="144.1%" height="173.9%" filterUnits="objectBoundingBox" id="filter-7">
            <feOffset dx="0" dy="2" in="SourceAlpha" result="shadowOffsetOuter1"></feOffset>
            <feColorMatrix values="0 0 0 0 0   0 0 0 0 0   0 0 0 0 0  0 0 0 0.0964956975 0" type="matrix" in="shadowOffsetOuter1" result="shadowMatrixOuter1"></feColorMatrix>
            <feMerge>
                <feMergeNode in="shadowMatrixOuter1"></feMergeNode>
                <feMergeNode in="SourceGraphic"></feMergeNode>
            </feMerge>
        </filter>
        <linearGradient x1="76.7275556%" y1="-4.05946744%" x2="15.5786468%" y2="110.793945%" id="linearGradient-8">
            <stop stop-color="#FFFFFF" offset="0%"></stop>
            <stop stop-color="#000000" stop-opacity="0.5" offset="100%"></stop>
        </linearGradient>
        <rect id="path-9" x="-3" y="-3" width="106" height="106" rx="53"></rect>
        <filter x="-0.5%" y="-0.5%" width="101.9%" height="101.9%" filterUnits="objectBoundingBox" id="filter-10">
            <feOffset dx="1" dy="1" in="SourceAlpha" result="shadowOffsetOuter1"></feOffset>
            <feMorphology radius="4" operator="erode" in="SourceAlpha" result="shadowInner"></feMorphology>
            <feOffset dx="1" dy="1" in="shadowInner" result="shadowInner"></feOffset>
            <feComposite in="shadowOffsetOuter1" in2="shadowInner" operator="out" result="shadowOffsetOuter1"></feComposite>
            <feColorMatrix values="0 0 0 0 0   0 0 0 0 0   0 0 0 0 0  0 0 0 0.15 0" type="matrix" in="shadowOffsetOuter1"></feColorMatrix>
        </filter>
    </defs>
    <g id="Badges" stroke="none" stroke-width="1" fill="none" fill-rule="evenodd">
        <g id="Manage-document-collaboration-with-Microsoft-OneDrive" transform="translate(-47.000000, -457.000000)">
            <g id="Manage-document-collaboration-with-Microsoft-OneDrive/use-onedrive-in-microsoft-365" transform="translate(50.000000, 460.000000)">
                <g id="Mask" transform="translate(2.000000, 2.000000)">
                    <g id="Circle-" transform="translate(-2.000000, 0.000000)">
                        <mask id="mask-2" fill="white">
                            <use xlink:href="#path-1"></use>
                        </mask>
                        <g id="BG"></g>
                        <g id="Color/Blue" mask="url(#mask-2)" fill="#55A2FF" fill-rule="evenodd">
                            <rect id="Rectangle" x="0" y="0" width="100" height="100"></rect>
                        </g>
                    </g>
                    <g id="Network" transform="translate(5.000000, 4.000000)" fill="#FFFFFF">
                        <path d="M42.8539993,0 C47.0137173,0 50.3866395,3.37681079 50.3866395,7.53264018 C50.3866395,11.1664982 47.7770818,14.2823731 44.2288729,14.9406454 L44.2327715,24.6972724 C44.2327715,26.5200344 41.4752471,26.5200344 41.4752471,24.6972724 L41.4791357,14.9406454 C37.9309269,14.2863116 35.3213691,11.1664982 35.3213691,7.53264018 C35.3213691,3.37292218 38.6981799,0 42.8540093,0 L42.8539993,0 Z M42.8539993,2.7848444 C40.2327758,2.7848444 38.1062036,4.9114166 38.1062036,7.53264018 C38.1062036,10.1577524 40.2288872,12.280436 42.8539993,12.280436 C45.4791115,12.280436 47.6017951,10.1577524 47.6017951,7.53264018 C47.6017951,4.9114166 45.4752229,2.7848444 42.8539993,2.7848444 Z" id="Fill-4"></path>
                        <path d="M85.7079987,44.8539993 C85.7079987,49.0137173 82.3311879,52.3866395 78.1753585,52.3866395 C74.5415005,52.3866395 71.4256255,49.7770818 70.7673533,46.2288729 L61.0107262,46.2327715 C59.1879643,46.2327715 59.1879643,43.4752471 61.0107262,43.4752471 L70.7673533,43.4791357 C71.4216871,39.9309269 74.5415005,37.3213691 78.1753585,37.3213691 C82.3350765,37.3213691 85.7079987,40.6981799 85.7079987,44.8540093 L85.7079987,44.8539993 Z M82.9231543,44.8539993 C82.9231543,42.2327758 80.7965821,40.1062036 78.1753585,40.1062036 C75.5502463,40.1062036 73.4275627,42.2288872 73.4275627,44.8539993 C73.4275627,47.4791115 75.5502463,49.6017951 78.1753585,49.6017951 C80.7965821,49.6017951 82.9231543,47.4752229 82.9231543,44.8539993 Z" id="Fill-6"></path>
                        <path d="M42.8539993,87.7079987 C38.6942813,87.7079987 35.3213592,84.3311879 35.3213592,80.1753585 C35.3213592,76.5415005 37.9309169,73.4256255 41.4791258,72.7673533 L41.4752272,63.0107262 C41.4752272,61.1879643 44.2327516,61.1879643 44.2327516,63.0107262 L44.228863,72.7673533 C47.7770718,73.4216871 50.3866296,76.5415005 50.3866296,80.1753585 C50.3866296,84.3350765 47.0098188,87.7079987 42.8539894,87.7079987 L42.8539993,87.7079987 Z M42.8539993,84.9231543 C45.4752229,84.9231543 47.6017951,82.7965821 47.6017951,80.1753585 C47.6017951,77.5502463 45.4791115,75.4275627 42.8539993,75.4275627 C40.2288872,75.4275627 38.1062036,77.5502463 38.1062036,80.1753585 C38.1062036,82.7965821 40.2327758,84.9231543 42.8539993,84.9231543 Z" id="Fill-8"></path>
                        <path d="M0,43.8539993 C0,39.6942813 3.37681079,36.3213592 7.53264018,36.3213592 C11.1664982,36.3213592 14.2823731,38.9309169 14.9406454,42.4791258 L24.6972724,42.4752272 C26.5200344,42.4752272 26.5200344,45.2327516 24.6972724,45.2327516 L14.9406454,45.228863 C14.2863116,48.7770718 11.1664982,51.3866296 7.53264018,51.3866296 C3.37292218,51.3866296 0,48.0098188 0,43.8539894 L0,43.8539993 Z M2.7848444,43.8539993 C2.7848444,46.4752229 4.9114166,48.6017951 7.53264018,48.6017951 C10.1577524,48.6017951 12.280436,46.4791115 12.280436,43.8539993 C12.280436,41.2288872 10.1577524,39.1062036 7.53264018,39.1062036 C4.9114166,39.1062036 2.7848444,41.2327758 2.7848444,43.8539993 Z" id="Fill-10"></path>
                    </g>
                    <g id="Gear" filter="url(#filter-3)" transform="translate(33.000000, 33.000000)">
                        <path d="M14.5086769,24.3538462 C9.07064615,24.3538462 4.66252308,19.9457231 4.66252308,14.5076923 C4.66252308,9.06966154 9.07064615,4.66153846 14.5086769,4.66153846 C19.9467077,4.66153846 24.3548308,9.06966154 24.3548308,14.5076923 C24.3548308,19.9457231 19.9467077,24.3538462 14.5086769,24.3538462 Z M14.5086769,0.723076923 C6.89563077,0.723076923 0.724061538,6.89464615 0.724061538,14.5076923 C0.724061538,22.1207385 6.89563077,28.2923077 14.5086769,28.2923077 C22.1217231,28.2923077 28.2932923,22.1207385 28.2932923,14.5076923 C28.2932923,6.89464615 22.1217231,0.723076923 14.5086769,0.723076923 L14.5086769,0.723076923 Z" id="Fill-378" fill="#8BA6B1"></path>
                        <path d="M24.3548308,14.5076923 C24.3548308,19.9457231 19.9467077,24.3538462 14.5086769,24.3538462 C11.7891692,24.3538462 9.32763077,23.2520615 7.54646154,21.4699077 L4.76098462,24.2544 C7.256,26.7494154 10.7021538,28.2923077 14.5086769,28.2923077 C22.1217231,28.2923077 28.2932923,22.1207385 28.2932923,14.5076923 C28.2932923,10.7011692 26.7504,7.25501538 24.2563692,4.76 L21.4708923,7.54547692 C23.2530462,9.32664615 24.3548308,11.7881846 24.3548308,14.5076923" id="Fill-379" fill="#ADBDC4"></path>
                    </g>
                    <g id="Oval">
                        <use fill="black" fill-opacity="1" filter="url(#filter-5)" xlink:href="#path-4"></use>
                        <use fill="#334553" fill-rule="evenodd" xlink:href="#path-4"></use>
                    </g>
                    <g id="Group" transform="translate(33.000000, 37.000000)">
                        <g id="One-Cloud" filter="url(#filter-6)" transform="translate(15.000000, 9.210526) scale(-1, 1) translate(-15.000000, -9.210526) ">
                            <path d="M6.5625,5.52631579 C6.60984375,5.52631579 6.65578125,5.53230263 6.70265625,5.53322368 C7.35140625,2.37677632 10.1896875,0 13.59375,0 C16.636875,0 19.220625,1.90243421 20.199375,4.56013158 C20.754375,4.29671053 21.3740625,4.14473684 22.03125,4.14473684 C24.3614063,4.14473684 26.25,6.00019737 26.25,8.28947368 C26.25,8.35486842 26.2429688,8.41796053 26.2401563,8.48243421 C28.4085938,9.08157895 30,11.03375 30,13.3552632 C30,16.1529605 27.6914063,18.4210526 24.84375,18.4210526 L6.5625,18.4210526 C2.938125,18.4210526 0,15.5344737 0,11.9736842 C0,8.41289474 2.938125,5.52631579 6.5625,5.52631579" id="Fill-11" fill="#FFFFFF"></path>
                            <path d="M25.4695257,8.25173319 C25.848244,8.27528681 26.2150808,8.33217104 26.5685512,8.42105263 C26.5715215,8.35883551 26.5789474,8.29795162 26.5789474,8.23484569 C26.5789474,6.90339938 25.8512143,5.72705146 24.7368421,5 C25.270513,5.65950144 25.5888344,6.46832397 25.5888344,7.34602973 C25.5888344,7.65800413 25.5447743,7.96020156 25.4695257,8.25173319" id="Fill-12" fill="#C4CBCD"></path>
                            <path d="M24.687697,18.4210526 C27.8473819,18.4210526 29.8974224,16.3027123 29.9966642,13.5649956 C30.0626693,11.747181 29.1437466,10.1346036 27.721125,9.19820917 C28.429393,10.2280598 28.7594187,11.526826 28.5159955,12.9057629 C28.1756711,14.8330678 26.6645746,16.4181582 24.7251467,16.8909365 C23.6414452,17.155271 22.6040877,17.0686866 21.685165,16.7406736 C22.2015031,16.0567026 22.5099953,15.2137644 22.5099953,14.2979853 C22.5099953,12.925462 21.8218565,11.7128221 20.7681148,10.9633401 C21.4033558,11.8191056 21.716061,12.9190484 21.5114919,14.0964131 C21.2175115,15.7905357 19.8229772,17.1557291 18.0923317,17.4438857 C17.7328143,17.5034411 17.3803187,17.5181009 17.0395262,17.4929044 C15.7039752,17.3930345 14.6024851,16.4332761 14.2307965,15.1739081 C14.1437259,14.8779635 14.0838063,14.5746889 14.0838063,14.2979853 C14.0838063,14.1316883 14.0959775,13.9685981 14.1165748,13.8077984 C14.1989642,13.1270342 14.4494093,12.4971211 14.8285878,11.959748 C14.290248,12.1713988 13.7214802,12.3244104 13.1274339,12.4004581 C13.135392,12.2698943 13.1475631,12.1402468 13.1475631,12.0073924 C13.1475631,9.88538706 12.0900764,8.00984955 10.4675669,6.84210526 C11.4492179,8.14957572 11.945895,9.82766412 11.6654901,11.6289864 C11.2409038,14.3575407 8.99532445,16.5551356 6.20719216,16.9706492 C4.36653799,17.2450622 2.65180854,16.7589984 1.31578947,15.7983237 C2.50903145,17.3861627 4.42552132,18.4210526 6.5938606,18.4210526 L18.2969008,18.4210526 L24.687697,18.4210526 Z" id="Fill-13" fill="#E6E6E6"></path>
                            <path d="M18.5583767,10.0282321 C19.0233373,10.0282321 19.468218,10.1135762 19.8836483,10.2631579 C20.4561478,9.24866397 20.7894737,8.07357625 20.7894737,6.81635628 C20.7894737,4.56437247 19.7328261,2.57117409 18.1068026,1.31578947 C18.9470338,2.46564103 19.4508155,3.89079622 19.4508155,5.43983806 C19.4508155,7.26234818 18.7569443,8.9137112 17.6315789,10.142942 C17.9296535,10.0704453 18.2388836,10.0282321 18.5583767,10.0282321" id="Fill-14" fill="#E6E6E6"></path>
                        </g>
                        <g id="One-Cloud" filter="url(#filter-7)" transform="translate(7.105263, 6.578947)">
                            <path d="M4.83552632,4.10526316 C4.87041118,4.10526316 4.90425987,4.10971053 4.93879934,4.11039474 C5.41682566,1.76560526 7.50819079,0 10.0164474,0 C12.25875,0 14.1625658,1.41323684 14.88375,3.38752632 C15.2926974,3.19184211 15.7493092,3.07894737 16.2335526,3.07894737 C17.9505099,3.07894737 19.3421053,4.45728947 19.3421053,6.15789474 C19.3421053,6.20647368 19.3369243,6.25334211 19.334852,6.30123684 C20.932648,6.74631579 22.1052632,8.1965 22.1052632,9.92105263 C22.1052632,11.9993421 20.4041941,13.6842105 18.3059211,13.6842105 L4.83552632,13.6842105 C2.16493421,13.6842105 0,11.5398947 0,8.89473684 C0,6.24957895 2.16493421,4.10526316 4.83552632,4.10526316" id="Fill-11" stroke="#334553" fill="#FFFFFF"></path>
                            <path d="M19.4662584,7.46172249 C19.46838,7.41386317 19.4736842,7.3670294 19.4736842,7.31848638 C19.4736842,6.29429691 18.9367131,5.02407298 18.1407329,4.46480263 C18.5219264,4.97211143 18.7664606,5.95962351 18.7664606,6.63478179 C18.7664606,6.8747621 18.7349892,7.10722166 18.6812402,7.33147676 C18.9517532,7.34959494 19.2137795,7.39335203 19.4662584,7.46172249 Z" id="Fill-12" fill="#C4CBCD"></path>
                            <path d="M18.2063252,13.6842105 C20.5253599,13.6842105 22.0299768,12.0954553 22.1028148,10.0421677 C22.151259,8.67880681 20.6331069,7.38101357 19.8378743,7.04545455 C20.357704,7.81784249 21.1947448,8.51354053 21.0160856,9.54774325 C20.7663062,10.9932219 19.6572445,12.1820397 18.2338112,12.5366235 C17.438434,12.7348743 16.6770707,12.669936 16.002632,12.4239263 C16.3815957,11.910948 16.608012,11.2787443 16.608012,10.59191 C16.608012,9.56251757 16.102956,8.65303764 15.3295676,8.09092613 C15.7957995,8.73275027 16.025308,9.55770732 15.8751655,10.4407309 C15.6594001,11.7113228 14.6358887,12.7352179 13.3656901,12.9513353 C13.1018241,12.9960019 12.8431117,13.0069967 12.5929888,12.9880993 C11.6127679,12.9131969 10.8043348,12.1933781 10.5315358,11.2488521 C10.4676308,11.0268936 10.4236531,10.7994378 10.4236531,10.59191 C10.4236531,10.4671873 10.4325861,10.3448696 10.4477034,10.2242699 C10.5081727,9.7136967 10.6919856,9.24126191 10.9702817,8.83823208 C10.5751699,8.99697017 10.1577257,9.11172888 9.7217284,9.16876464 C9.72756918,9.07084179 9.73650214,8.97360612 9.73650214,8.87396533 C9.73650214,7.28246135 8.96036511,5.87580821 7.76953245,5 C8.49001026,5.98060284 8.85454386,7.23916914 8.64874214,8.59016086 C8.33711916,10.6365766 6.68898753,12.2847728 4.6426519,12.5964079 C3.29171306,12.8022177 2.27706799,12.1080658 1.29650353,11.3875598 C2.17227746,12.5784391 3.33500357,13.6842105 4.92644525,13.6842105 L13.5158326,13.6842105 L18.2063252,13.6842105 Z" id="Fill-13" fill="#E6E6E6"></path>
                            <path d="M14.5837888,8.78181818 C15.0131635,8.03586676 15.2631579,7.17183168 15.2631579,6.24740523 C15.2631579,4.59153478 14.8093528,3.13412955 13.5898351,2.21105263 C14.2200085,3.05653171 14.2591642,4.09625813 14.2591642,5.23525948 C14.2591642,6.57534045 13.7387608,7.78957797 12.8947368,8.69342412 C13.1182928,8.64011778 13.3502153,8.60907864 13.5898351,8.60907864 C13.9385556,8.60907864 14.2722161,8.67183168 14.5837888,8.78181818 Z" id="Fill-14" fill="#E6E6E6"></path>
                        </g>
                    </g>
                </g>
                <g id="Azure-Border">
                    <path d="M50,0 C74.5263677,-4.50542066e-15 94.9281966,17.6592499 99.1842495,40.9565123 L94.2027317,73.3905473 C85.8096395,89.2186645 69.1638777,100 50,100 C30.9551233,100 14.3971863,89.3521454 5.95457608,73.6848234 L0.0261464987,48.3675131 C0.887696267,21.508872 22.932015,4.97230817e-15 50,0 Z" id="Combined-Shape" fill="url(#linearGradient-8)" fill-rule="evenodd" opacity="0.400000006" style="mix-blend-mode: overlay;"></path>
                    <g>
                        <use fill="black" fill-opacity="1" filter="url(#filter-10)" xlink:href="#path-9"></use>
                        <rect stroke="#F2F1F0" stroke-width="4" stroke-linejoin="square" x="-1" y="-1" width="102" height="102" rx="51"></rect>
                    </g>
                    <rect stroke="#0078D4" stroke-width="4" x="2" y="2" width="96" height="96" rx="48"></rect>
                </g>
            </g>
        </g>
    </g>
</svg>