<?xml version="1.0" encoding="UTF-8"?>
<svg width="107px" height="107px" viewBox="0 0 107 107" version="1.1" xmlns="http://www.w3.org/2000/svg" xmlns:xlink="http://www.w3.org/1999/xlink">
    <!-- Generator: Sketch 63.1 (92452) - https://sketch.com -->
    <title>Manage your security with Microsoft 365/Use-reporting-in-the-Microsoft-365-security-center</title>
    <desc>Created with Sketch.</desc>
    <defs>
        <rect id="path-1" x="0" y="0" width="100" height="100" rx="50"></rect>
        <filter x="-9.3%" y="-7.1%" width="118.7%" height="114.3%" filterUnits="objectBoundingBox" id="filter-3">
            <feOffset dx="0" dy="2" in="SourceAlpha" result="shadowOffsetOuter1"></feOffset>
            <feColorMatrix values="0 0 0 0 0   0 0 0 0 0   0 0 0 0 0  0 0 0 0.100288723 0" type="matrix" in="shadowOffsetOuter1" result="shadowMatrixOuter1"></feColorMatrix>
            <feMerge>
                <feMergeNode in="shadowMatrixOuter1"></feMergeNode>
                <feMergeNode in="SourceGraphic"></feMergeNode>
            </feMerge>
        </filter>
        <polygon id="path-4" points="0.000875 0.035 17.500875 0.035 17.500875 10.5 0.000875 10.5"></polygon>
        <filter x="-15.4%" y="-10.6%" width="130.8%" height="121.6%" filterUnits="objectBoundingBox" id="filter-6">
            <feOffset dx="0" dy="2" in="SourceAlpha" result="shadowOffsetOuter1"></feOffset>
            <feColorMatrix values="0 0 0 0 0   0 0 0 0 0   0 0 0 0 0  0 0 0 0.0964956975 0" type="matrix" in="shadowOffsetOuter1" result="shadowMatrixOuter1"></feColorMatrix>
            <feMerge>
                <feMergeNode in="shadowMatrixOuter1"></feMergeNode>
                <feMergeNode in="SourceGraphic"></feMergeNode>
            </feMerge>
        </filter>
        <linearGradient x1="76.7275556%" y1="-4.05946744%" x2="15.5786468%" y2="110.793945%" id="linearGradient-7">
            <stop stop-color="#FFFFFF" offset="0%"></stop>
            <stop stop-color="#000000" stop-opacity="0.5" offset="100%"></stop>
        </linearGradient>
        <rect id="path-8" x="-3" y="-3" width="106" height="106" rx="53"></rect>
        <filter x="-0.5%" y="-0.5%" width="101.9%" height="101.9%" filterUnits="objectBoundingBox" id="filter-9">
            <feOffset dx="1" dy="1" in="SourceAlpha" result="shadowOffsetOuter1"></feOffset>
            <feMorphology radius="4" operator="erode" in="SourceAlpha" result="shadowInner"></feMorphology>
            <feOffset dx="1" dy="1" in="shadowInner" result="shadowInner"></feOffset>
            <feComposite in="shadowOffsetOuter1" in2="shadowInner" operator="out" result="shadowOffsetOuter1"></feComposite>
            <feColorMatrix values="0 0 0 0 0   0 0 0 0 0   0 0 0 0 0  0 0 0 0.15 0" type="matrix" in="shadowOffsetOuter1"></feColorMatrix>
        </filter>
    </defs>
    <g id="Badges" stroke="none" stroke-width="1" fill="none" fill-rule="evenodd">
        <g id="Manage-your-security-with-Microsoft-365" transform="translate(-47.000000, -457.000000)">
            <g id="Manage-your-security-with-Microsoft-365/Use-reporting-in-the-Microsoft-365-security-center" transform="translate(50.000000, 460.000000)">
                <g id="Mask" transform="translate(2.000000, 2.000000)">
                    <g id="Circle-" transform="translate(-2.000000, -0.000000)">
                        <mask id="mask-2" fill="white">
                            <use xlink:href="#path-1"></use>
                        </mask>
                        <g id="BG"></g>
                        <g id="Color-/-Microsoft-365" mask="url(#mask-2)" fill="#0078D4" fill-rule="evenodd">
                            <rect id="Rectangle" x="0" y="0" width="100" height="100"></rect>
                        </g>
                    </g>
                    <g id="Clipboard-Stats" transform="translate(14.000000, 28.000000)">
                        <path d="M12.5518371,48.8409469 L4.76104166,48.8409469 C2.1357903,48.8409469 0,46.7051566 0,44.0799053 C0,41.4546539 2.1357903,39.3188636 4.76104166,39.3188636 C5.00196768,39.3188636 5.24416187,39.3406302 5.50411041,39.3864921 C6.4247011,36.2677631 9.2646711,34.125 12.5518371,34.125 C16.6091189,34.125 19.9098106,37.4256917 19.9098106,41.4829735 C19.9098106,45.5402553 16.6091189,48.8409469 12.5518371,48.8409469 Z" id="Cloud" fill="#FFFFFF" fill-rule="nonzero"></path>
                        <g id="Group-4" filter="url(#filter-3)" transform="translate(12.250000, 0.000000)">
                            <path d="M3.500875,56 C1.575875,56 0.000875,54.425 0.000875,52.5 L0.000875,8.75 C0.000875,6.825 1.575875,5.25 3.500875,5.25 L38.500875,5.25 C40.425875,5.25 42.000875,6.825 42.000875,8.75 L42.000875,52.5 C42.000875,54.425 40.425875,56 38.500875,56 L3.500875,56" id="Fill-18" fill="#30404D"></path>
                            <path d="M38.500875,5.25 L21.000875,5.25 L21.000875,56 L38.500875,56 C40.425875,56 42.000875,54.425 42.000875,52.5 L42.000875,8.75 C42.000875,6.825 40.425875,5.25 38.500875,5.25" id="Fill-19" fill="#182A37"></path>
                            <path d="M4.375875,53.375 C3.413375,53.375 2.625875,52.588375 2.625875,51.625 L2.625875,9.625 C2.625875,8.661625 3.413375,7.875 4.375875,7.875 L37.625875,7.875 C38.588375,7.875 39.375875,8.661625 39.375875,9.625 L39.375875,51.625 C39.375875,52.588375 38.588375,53.375 37.625875,53.375 L4.375875,53.375" id="Fill-20" fill="#E1E4E1"></path>
                            <path d="M21.000875,7.875 L4.375875,7.875 C3.413375,7.875 2.625875,8.661625 2.625875,9.625 L2.625875,51.625 C2.625875,52.588375 3.413375,53.375 4.375875,53.375 L21.000875,53.375 L21.000875,7.875" id="Fill-21" fill="#FFFFFE"></path>
                            <g id="Group-25" transform="translate(12.250000, 0.000000)">
                                <mask id="mask-5" fill="white">
                                    <use xlink:href="#path-4"></use>
                                </mask>
                                <g id="Clip-23"></g>
                                <path d="M16.625875,9.625 L0.875875,9.625 C0.394625,9.625 0.000875,9.23125 0.000875,8.75 L0.000875,9.625 C0.000875,10.10625 0.394625,10.5 0.875875,10.5 L16.625875,10.5 C17.107125,10.5 17.500875,10.10625 17.500875,9.625 L17.500875,8.75 C17.500875,9.23125 17.107125,9.625 16.625875,9.625" id="Fill-22" fill="#546670" mask="url(#mask-5)"></path>
                                <path d="M8.750875,1.75 C9.716,1.75 10.500875,2.534875 10.500875,3.5 L7.000875,3.5 C7.000875,2.534875 7.784875,1.75 8.750875,1.75 Z M16.625875,3.5 L12.250875,3.5 C12.250875,1.567125 10.68375,0 8.750875,0 C6.818,0 5.250875,1.567125 5.250875,3.5 L0.875875,3.5 C0.394625,3.5 0.000875,3.89375 0.000875,4.375 L0.000875,8.75 C0.000875,9.23125 0.394625,9.625 0.875875,9.625 L16.625875,9.625 C17.107125,9.625 17.500875,9.23125 17.500875,8.75 L17.500875,4.375 C17.500875,3.89375 17.107125,3.5 16.625875,3.5 L16.625875,3.5 Z" id="Fill-24" fill="#ADBDC4" mask="url(#mask-5)"></path>
                            </g>
                            <polygon id="Fill-26" fill="#182A37" points="11.375875 7.875 12.250875 7.875 12.250875 5.25 11.375875 5.25"></polygon>
                            <path d="M29.750875,8.75 L29.750875,4.375 C29.750875,3.89375 29.357125,3.5 28.875875,3.5 L25.375875,3.5 L22.750875,9.625 L28.875875,9.625 C29.357125,9.625 29.750875,9.23125 29.750875,8.75" id="Fill-33" fill="#8BA6B1"></path>
                            <path d="M21.60025,0.060375 L20.8705,1.763125 C20.91425,1.759625 20.95625,1.75 21.000875,1.75 C21.966,1.75 22.750875,2.534875 22.750875,3.5 L20.125875,3.5 L17.500875,9.625 L21.000875,9.625 L24.2165,2.121 C23.757125,1.05175 22.778875,0.265125 21.60025,0.060375" id="Fill-34" fill="#8BA6B1"></path>
                        </g>
                        <g id="Group-8" transform="translate(23.625000, 18.375000)">
                            <path d="M14.2592593,5.16796875 L14.2592593,22.8867188 C14.2592593,23.29425 15.3750463,23.625 16.7546296,23.625 C18.134213,23.625 19.25,23.29425 19.25,22.8867188 L19.25,5.16796875 L14.2592593,5.16796875" id="Fill-878" fill="#69994E"></path>
                            <path d="M7.12962963,9.59765625 L7.12962963,22.8867188 C7.12962963,23.29425 8.24719907,23.625 9.625,23.625 C11.0035139,23.625 12.1203704,23.29425 12.1203704,22.8867188 L12.1203704,9.59765625 L7.12962963,9.59765625" id="Fill-879" fill="#C2423D"></path>
                            <path d="M0,0.73828125 L0,22.8867188 C0,23.29425 1.11756944,23.625 2.49537037,23.625 C3.8731713,23.625 4.99074074,23.29425 4.99074074,22.8867188 L4.99074074,0.73828125 L0,0.73828125" id="Fill-880" fill="#33A7CB"></path>
                            <path d="M2.49537037,0.73828125 L2.49537037,23.625 C3.8731713,23.625 4.99074074,23.29425 4.99074074,22.8867188 L4.99074074,0.73828125 L2.49537037,0.73828125" id="Fill-881" fill="#0095B2"></path>
                            <path d="M9.625,9.59765625 L9.625,23.625 C11.0028009,23.625 12.1203704,23.29425 12.1203704,22.8867188 L12.1203704,9.59765625 L9.625,9.59765625" id="Fill-882" fill="#AB3B37"></path>
                            <path d="M16.7546296,5.16796875 L16.7546296,23.625 C18.134213,23.625 19.25,23.29425 19.25,22.8867188 L19.25,5.16796875 L16.7546296,5.16796875" id="Fill-883" fill="#598844"></path>
                            <path d="M19.25,5.16796875 C19.25,5.5755 18.134213,5.90625 16.7546296,5.90625 C15.3750463,5.90625 14.2592593,5.5755 14.2592593,5.16796875 C14.2592593,4.76006836 15.3750463,4.4296875 16.7546296,4.4296875 C18.134213,4.4296875 19.25,4.76006836 19.25,5.16796875" id="Fill-884" fill="#7CB65A"></path>
                            <path d="M12.1203704,9.59765625 C12.1203704,10.0051875 11.0035139,10.3359375 9.625,10.3359375 C8.24719907,10.3359375 7.12962963,10.0051875 7.12962963,9.59765625 C7.12962963,9.18975586 8.24719907,8.859375 9.625,8.859375 C11.0035139,8.859375 12.1203704,9.18975586 12.1203704,9.59765625" id="Fill-885" fill="#DF5142"></path>
                            <path d="M4.99074074,0.73828125 C4.99074074,1.1458125 3.8731713,1.4765625 2.49537037,1.4765625 C1.11756944,1.4765625 0,1.1458125 0,0.73828125 C0,0.330380859 1.11756944,0 2.49537037,0 C3.8731713,0 4.99074074,0.330380859 4.99074074,0.73828125" id="Fill-886" fill="#55B7D9"></path>
                        </g>
                        <path d="M64.7761005,25.6454317 L49.9925978,25.6454317 C47.3725387,25.6454317 45.2407576,23.5136506 45.2407576,20.8935915 C45.2407576,18.8548779 46.5442137,17.0634024 48.4550554,16.411413 C48.8538773,12.0857232 52.4739612,8.75 56.8563669,8.75 C61.1274053,8.75 64.7180963,11.9694562 65.231897,16.1634092 C67.6390103,16.3936253 69.5279406,18.4271806 69.5279406,20.8935915 C69.5279406,23.5136506 67.3961595,25.6454317 64.7761005,25.6454317 Z" id="Cloud" fill="#FFFFFF" fill-rule="nonzero" opacity="0.900000036"></path>
                    </g>
                    <g id="Circle-Lock" filter="url(#filter-6)" transform="translate(35.000000, 6.000000)">
                        <path d="M13,0 C7.787,0 3.54545455,4.24154545 3.54545455,9.45454545 L3.54545455,16.5454545 C3.54545455,17.1978182 4.33963636,17.7272727 5.31818182,17.7272727 C6.29672727,17.7272727 7.09090909,17.1978182 7.09090909,16.5454545 L7.09090909,9.45454545 C7.09090909,6.19627273 9.74172727,3.54545455 13,3.54545455 C16.2582727,3.54545455 18.9090909,6.19627273 18.9090909,9.45454545 L18.9090909,16.5454545 C18.9090909,17.1978182 19.7032727,17.7272727 20.6818182,17.7272727 C21.6603636,17.7272727 22.4545455,17.1978182 22.4545455,16.5454545 L22.4545455,9.45454545 C22.4545455,4.24154545 18.213,0 13,0" id="Fill-84" fill="#F5F8F5"></path>
                        <path d="M13,0 C12.8002727,0 12.6052727,0.0171363636 12.4090909,0.0301363636 C17.3461364,0.337409091 21.2727273,4.44127273 21.2727273,9.45454545 L21.2727273,12.3813182 C21.2727273,13.0679545 20.5246364,13.4957727 19.9372727,13.1406364 C19.604,12.9391364 19.2612727,12.7518182 18.9090909,12.5810455 L18.9090909,16.5454545 C18.9090909,17.1978182 19.7032727,17.7272727 20.6818182,17.7272727 C21.6603636,17.7272727 22.4545455,17.1978182 22.4545455,16.5454545 L22.4545455,9.45454545 C22.4545455,4.24154545 18.213,0 13,0" id="Fill-85" fill="#C5CCCD"></path>
                        <path d="M10.7716818,3.64118182 C7.917,4.16413636 5.90909091,6.76295455 5.90909091,9.6655 L5.90909091,12.2885455 C5.90909091,12.8546364 5.64318182,13.3929545 5.1805,13.7179545 C4.60022727,14.1256818 4.05304545,14.5759545 3.54545455,15.0681818 L3.54545455,16.5454545 C3.54545455,17.1978182 4.33963636,17.7272727 5.31818182,17.7272727 C6.29672727,17.7272727 7.09090909,17.1978182 7.09090909,16.5454545 L7.09090909,9.45454545 C7.09090909,6.39540909 9.42677273,3.87340909 12.4090909,3.57559091 C11.8837727,3.52240909 11.3419091,3.53659091 10.7716818,3.64118182" id="Fill-87" fill="#C5CCCD"></path>
                        <path d="M13,13 C6.48345455,13 1.18181818,18.3016364 1.18181818,24.8181818 C1.18181818,31.3347273 6.48345455,36.6363636 13,36.6363636 C19.5165455,36.6363636 24.8181818,31.3347273 24.8181818,24.8181818 C24.8181818,18.3016364 19.5165455,13 13,13" id="Fill-88" fill="#30404D"></path>
                        <path d="M13,13 L13,15.9545455 C12.6732273,15.9545455 12.4090909,15.6904091 12.4090909,15.3636364 L12.4090909,15.9545455 C12.4090909,16.1406818 12.4953636,16.3067273 12.6295,16.4148636 C12.8906818,16.6252273 13,16.9738636 13,17.3089091 L13,28.9539545 C11.9410909,28.9539545 10.8821818,28.5503636 10.075,27.7425909 C9.34227273,27.0110455 8.94636364,26.0715 8.87781818,25.1136364 C8.79568182,26.2688636 9.19277273,27.4518636 10.075,28.3346818 C10.5766818,28.8363636 11.1758636,29.1826364 11.8122727,29.3723182 C12.5343636,29.588 13,30.2917727 13,31.0451818 L13,36.6363636 C19.5165455,36.6363636 24.8181818,31.3347273 24.8181818,24.8181818 C24.8181818,18.3016364 19.5165455,13 13,13" id="Fill-89" fill="#182A37"></path>
                        <path d="M6.73281818,18.551 C6.617,18.6662273 6.46572727,18.7235455 6.31445455,18.7235455 C6.16377273,18.7235455 6.0125,18.6662273 5.89668182,18.551 L5.08418182,17.7385 C3.52240909,19.4828636 2.53086364,21.7401364 2.39377273,24.2272727 L2.45168182,24.2272727 C2.70281818,21.9759091 3.64768182,19.9337273 5.08418182,18.3294091 L5.89668182,19.1419091 C6.0125,19.2571364 6.16377273,19.3144545 6.31445455,19.3144545 C6.46572727,19.3144545 6.617,19.2571364 6.73281818,19.1419091 C6.92722727,18.9469091 6.94790909,18.655 6.81377273,18.4280909 C6.78895455,18.4706364 6.76886364,18.5143636 6.73281818,18.551" id="Fill-90" fill="#182A37"></path>
                        <path d="M12.4090909,14.8028636 L12.4090909,14.2119545 C9.92195455,14.3490455 7.66468182,15.3405909 5.92031818,16.9023636 L6.24354545,17.2261818 C7.94181818,15.8227727 10.0708636,14.9316818 12.4090909,14.8028636" id="Fill-91" fill="#182A37"></path>
                        <path d="M3.54545455,25.4090909 L2.39377273,25.4090909 C2.40440909,25.6088182 2.43040909,25.8038182 2.45168182,26 L3.54545455,26 C3.87222727,26 4.13636364,25.7358636 4.13636364,25.4090909 C4.13636364,25.2997727 4.09795455,25.2016818 4.04595455,25.1136364 C3.94254545,25.2867727 3.76172727,25.4090909 3.54545455,25.4090909" id="Fill-92" fill="#182A37"></path>
                        <path d="M6.73281818,31.9215 L5.92031818,32.734 C6.02431818,32.8273636 6.13659091,32.9112727 6.24354545,33.0010909 L6.73281818,32.5124091 C6.92722727,32.3174091 6.94790909,32.0255 6.81377273,31.7985909 C6.78895455,31.8411364 6.76886364,31.8848636 6.73281818,31.9215" id="Fill-93" fill="#182A37"></path>
                        <path d="M20.9152273,31.8978636 L20.1027273,31.0853636 C19.8722727,30.8549091 19.4982273,30.8549091 19.2671818,31.0853636 C19.0367273,31.3164091 19.0367273,31.6904545 19.2671818,31.9215 L20.0796818,32.734 C18.3353182,34.2957727 16.0780455,35.2873182 13.5909091,35.4244091 L13.5909091,34.2727273 C13.5909091,33.9459545 13.3267727,33.6818182 13,33.6818182 C12.6732273,33.6818182 12.4090909,33.9459545 12.4090909,34.2727273 L12.4090909,35.4244091 C9.92195455,35.2873182 7.66468182,34.2957727 5.92031818,32.734 L6.73281818,31.9215 C6.96327273,31.6904545 6.96327273,31.3164091 6.73281818,31.0853636 C6.50177273,30.8549091 6.12772727,30.8549091 5.89668182,31.0853636 L5.08418182,31.8978636 C3.52240909,30.1535 2.53086364,27.8962273 2.39377273,25.4090909 L3.54545455,25.4090909 C3.87222727,25.4090909 4.13636364,25.1449545 4.13636364,24.8181818 C4.13636364,24.4914091 3.87222727,24.2272727 3.54545455,24.2272727 L2.39377273,24.2272727 C2.53086364,21.7401364 3.52240909,19.4828636 5.08418182,17.7385 L5.89668182,18.551 C6.0125,18.6662273 6.16377273,18.7235455 6.31445455,18.7235455 C6.46572727,18.7235455 6.617,18.6662273 6.73281818,18.551 C6.96327273,18.3199545 6.96327273,17.9459091 6.73281818,17.7148636 L5.92031818,16.9023636 C7.66468182,15.3405909 9.92195455,14.3490455 12.4090909,14.2119545 L12.4090909,15.3636364 C12.4090909,15.6904091 12.6732273,15.9545455 13,15.9545455 C13.3267727,15.9545455 13.5909091,15.6904091 13.5909091,15.3636364 L13.5909091,14.2119545 C16.0780455,14.3490455 18.3353182,15.3405909 20.0796818,16.9023636 L19.2671818,17.7148636 C19.0367273,17.9459091 19.0367273,18.3199545 19.2671818,18.551 C19.383,18.6662273 19.5342727,18.7235455 19.6849545,18.7235455 C19.8362273,18.7235455 19.9875,18.6662273 20.1027273,18.551 L20.9152273,17.7385 C22.4775909,19.4828636 23.4691364,21.7401364 23.6062273,24.2272727 L22.4545455,24.2272727 C22.1277727,24.2272727 21.8636364,24.4914091 21.8636364,24.8181818 C21.8636364,25.1449545 22.1277727,25.4090909 22.4545455,25.4090909 L23.6062273,25.4090909 C23.4691364,27.8962273 22.4775909,30.1535 20.9152273,31.8978636 Z M13,11.8181818 C5.83168182,11.8181818 0,17.6498636 0,24.8181818 C0,31.9865 5.83168182,37.8181818 13,37.8181818 C20.1683182,37.8181818 26,31.9865 26,24.8181818 C26,17.6498636 20.1683182,11.8181818 13,11.8181818 L13,11.8181818 Z" id="Fill-94" fill="#546670"></path>
                        <polyline id="Fill-95" fill="#DF5142" points="16.7605455 23.5648636 13.8568182 23.9188182 14.2745909 21.0369545 17.9931818 19.7830455 16.7605455 23.5648636"></polyline>
                        <path d="M15.925,27.7425909 C17.5399545,26.1282273 17.5393636,23.5075455 15.925,21.8937727 C14.3094545,20.2776364 11.6905455,20.2776364 10.075,21.8937727 L15.925,27.7425909" id="Fill-96" fill="#ADBDC4"></path>
                        <path d="M10.075,21.8937727 C8.46004545,23.5081364 8.46063636,26.1288182 10.075,27.7425909 C11.6905455,29.3587273 14.3094545,29.3587273 15.925,27.7425909 L10.075,21.8937727" id="Fill-97" fill="#A0AEB3"></path>
                    </g>
                </g>
                <g id="Azure-Border">
                    <path d="M50,0 C74.5263677,-4.50542066e-15 94.9281966,17.6592499 99.1842495,40.9565123 L94.2027317,73.3905473 C85.8096395,89.2186645 69.1638777,100 50,100 C30.9551233,100 14.3971863,89.3521454 5.95457608,73.6848234 L0.0261464987,48.3675131 C0.887696267,21.508872 22.932015,4.97230817e-15 50,0 Z" id="Combined-Shape" fill="url(#linearGradient-7)" fill-rule="evenodd" opacity="0.400000006" style="mix-blend-mode: overlay;"></path>
                    <g>
                        <use fill="black" fill-opacity="1" filter="url(#filter-9)" xlink:href="#path-8"></use>
                        <rect stroke="#F2F1F0" stroke-width="4" stroke-linejoin="square" x="-1" y="-1" width="102" height="102" rx="51"></rect>
                    </g>
                    <rect stroke="#0078D4" stroke-width="4" x="2" y="2" width="96" height="96" rx="48"></rect>
                </g>
            </g>
        </g>
    </g>
</svg>