<svg width="100" height="100" viewBox="0 0 100 100" fill="none" xmlns="http://www.w3.org/2000/svg">
<g clip-path="url(#clip0_404_287)">
<path d="M49.6401 96.4499C40.382 96.4499 31.3317 93.7045 23.6339 88.561C15.936 83.4174 9.93624 76.1067 6.3933 67.5533C2.85036 58.9999 1.92337 49.588 3.72954 40.5077C5.53571 31.4275 9.99394 23.0867 16.5404 16.5402C23.0869 9.99372 31.4277 5.5355 40.5079 3.72933C49.5882 1.92315 59.0001 2.85015 67.5535 6.39308C76.1069 9.93602 83.4176 15.9358 88.5612 23.6336C93.7047 31.3315 96.4501 40.3817 96.4501 49.6399C96.4505 55.7872 95.24 61.8744 92.8878 67.5538C90.5355 73.2332 87.0875 78.3937 82.7407 82.7405C78.3939 87.0873 73.2335 90.5353 67.554 92.8876C61.8746 95.2398 55.7874 96.4503 49.6401 96.4499V96.4499Z" fill="url(#paint0_linear_404_287)"/>
<path fill-rule="evenodd" clip-rule="evenodd" d="M95.54 49.6399C95.54 58.718 92.848 67.5923 87.8045 75.1406C82.7609 82.6888 75.5923 88.5719 67.2052 92.046C58.818 95.52 49.5891 96.429 40.6854 94.6579C31.7816 92.8869 23.603 88.5153 17.1838 82.0961C10.7646 75.6769 6.39302 67.4983 4.62196 58.5945C2.85089 49.6908 3.75987 40.4618 7.23393 32.0747C10.708 23.6876 16.5911 16.519 24.1393 11.4754C31.6875 6.43187 40.5618 3.73988 49.64 3.73988C55.6677 3.73986 61.6363 4.92708 67.2052 7.23377C72.774 9.54045 77.834 12.9214 82.0963 17.1836C86.3585 21.4458 89.7394 26.5058 92.0461 32.0747C94.3528 37.6435 95.54 43.6122 95.54 49.6399V49.6399ZM49.64 -0.000106449C59.4579 -0.000106449 69.0552 2.91123 77.2185 8.36574C85.3818 13.8203 91.7442 21.573 95.5014 30.6435C99.2585 39.714 100.242 49.695 98.3262 59.3242C96.4108 68.9534 91.6831 77.7984 84.7408 84.7407C77.7985 91.683 68.9535 96.4107 59.3243 98.3261C49.6951 100.241 39.7141 99.2584 30.6436 95.5013C21.5731 91.7441 13.8204 85.3816 8.36584 77.2184C2.91133 69.0551 -1.61629e-06 59.4577 3.61524e-07 49.6399C-0.000786426 43.1208 1.28265 36.6655 3.77702 30.6425C6.27138 24.6196 9.92781 19.147 14.5375 14.5374C19.1471 9.9277 24.6197 6.27127 30.6427 3.77691C36.6656 1.28254 43.121 -0.000894549 49.64 -0.000106449V-0.000106449Z" fill="#F2F1F0"/>
<path fill-rule="evenodd" clip-rule="evenodd" d="M92.7296 49.64C92.7296 58.1624 90.2024 66.4934 85.4676 73.5795C80.7328 80.6656 74.0031 86.1886 66.1294 89.45C58.2557 92.7113 49.5918 93.5647 41.2331 91.902C32.8745 90.2394 25.1966 86.1355 19.1703 80.1092C13.1441 74.083 9.04017 66.4051 7.37753 58.0464C5.7149 49.6878 6.56822 41.0238 9.8296 33.1502C13.091 25.2765 18.6139 18.5468 25.7 13.812C32.7862 9.07718 41.1172 6.55 49.6396 6.55C55.2983 6.54965 60.9017 7.66397 66.1298 9.82933C71.3579 11.9947 76.1082 15.1687 80.1096 19.17C84.1109 23.1713 87.2849 27.9217 89.4502 33.1498C91.6156 38.3778 92.7299 43.9812 92.7296 49.64ZM49.6396 2.81C58.9017 2.81 67.9558 5.55653 75.6569 10.7023C83.3581 15.848 89.3604 23.1619 92.9049 31.7189C96.4493 40.276 97.3767 49.6919 95.5697 58.7761C93.7628 67.8602 89.3027 76.2045 82.7534 82.7538C76.2041 89.3031 67.8598 93.7632 58.7757 95.5702C49.6915 97.3771 40.2756 96.4497 31.7185 92.9053C23.1614 89.3608 15.8476 83.3585 10.7018 75.6574C5.5561 67.9562 2.80957 58.9021 2.80957 49.64C2.81076 37.2203 7.74501 25.3096 16.5271 16.5275C25.3091 7.74544 37.2198 2.81119 49.6396 2.81V2.81Z" fill="#0078D4"/>
<path fill-rule="evenodd" clip-rule="evenodd" d="M92.7296 49.6399C92.7296 58.1623 90.2024 66.4933 85.4676 73.5794C80.7328 80.6655 74.0031 86.1885 66.1294 89.4499C58.2557 92.7112 49.5918 93.5646 41.2331 91.9019C32.8745 90.2393 25.1966 86.1354 19.1703 80.1091C13.1441 74.0829 9.04017 66.405 7.37753 58.0463C5.7149 49.6877 6.56822 41.0237 9.8296 33.1501C13.091 25.2764 18.6139 18.5467 25.7001 13.8119C32.7862 9.07708 41.1172 6.5499 49.6396 6.5499C55.2983 6.54956 60.9017 7.66388 66.1298 9.82923C71.3579 11.9946 76.1082 15.1686 80.1096 19.1699C84.1109 23.1712 87.2849 27.9216 89.4502 33.1497C91.6156 38.3777 92.7299 43.9811 92.7296 49.6399V49.6399ZM49.6396 2.8099C58.9017 2.8099 67.9558 5.55643 75.6569 10.7022C83.3581 15.8479 89.3604 23.1618 92.9048 31.7188C96.4493 40.2759 97.3767 49.6918 95.5697 58.776C93.7628 67.8601 89.3027 76.2044 82.7534 82.7537C76.2041 89.303 67.8598 93.7631 58.7757 95.5701C49.6915 97.377 40.2756 96.4496 31.7185 92.9052C23.1614 89.3607 15.8476 83.3584 10.7018 75.6573C5.5561 67.9561 2.80957 58.902 2.80957 49.6399C2.81075 37.2202 7.74499 25.3095 16.5271 16.5274C25.3091 7.7453 37.2198 2.81105 49.6396 2.80986V2.8099Z" fill="#0078D4"/>
<path d="M59.1251 66.9842C68.704 66.9842 76.4693 59.2189 76.4693 49.6399C76.4693 40.0609 68.704 32.2956 59.1251 32.2956C49.5461 32.2956 41.7808 40.0609 41.7808 49.6399C41.7808 59.2189 49.5461 66.9842 59.1251 66.9842Z" fill="url(#paint1_linear_404_287)"/>
<path d="M59.1253 67.434C55.6059 67.4341 52.1656 66.3906 49.2393 64.4354C46.3131 62.4802 44.0323 59.7012 42.6854 56.4498C41.3386 53.1984 40.9861 49.6206 41.6727 46.1688C42.3592 42.7171 44.0539 39.5465 46.5424 37.0579C49.0309 34.5693 52.2015 32.8745 55.6532 32.1879C59.1049 31.5013 62.6827 31.8537 65.9342 33.2004C69.1856 34.5472 71.9647 36.8279 73.92 39.7541C75.8752 42.6803 76.9188 46.1206 76.9188 49.64C76.9135 54.3575 75.0371 58.8803 71.7013 62.2162C68.3656 65.552 63.8428 67.4285 59.1253 67.434ZM59.1253 32.7453C55.7838 32.7452 52.5173 33.736 49.7389 35.5924C46.9606 37.4487 44.7951 40.0873 43.5163 43.1744C42.2375 46.2615 41.9028 49.6585 42.5547 52.9358C43.2065 56.213 44.8156 59.2234 47.1783 61.5862C49.5411 63.9491 52.5514 65.5582 55.8287 66.2101C59.106 66.862 62.503 66.5275 65.5901 65.2487C68.6772 63.97 71.3158 61.8046 73.1723 59.0263C75.0287 56.2479 76.0196 52.9815 76.0196 49.64C76.0144 45.1609 74.2328 40.8668 71.0656 37.6995C67.8985 34.5323 63.6044 32.7506 59.1253 32.7453V32.7453Z" fill="#003067"/>
<path d="M63.8883 51.4205C64.1327 51.4205 64.3748 51.4687 64.6007 51.5622C64.8265 51.6558 65.0318 51.7929 65.2046 51.9658C65.3775 52.1386 65.5146 52.3439 65.6082 52.5697C65.7017 52.7956 65.7499 53.0377 65.7499 53.2821V54.0424C65.7498 54.517 65.6015 54.9797 65.3255 55.3659C64.0459 57.1566 61.9563 58.0436 59.1251 58.0436C56.2933 58.0436 54.2049 57.1562 52.9283 55.3646C52.6535 54.9789 52.5058 54.5171 52.5059 54.0436V53.2821C52.5059 53.0376 52.554 52.7955 52.6476 52.5697C52.7411 52.3438 52.8782 52.1386 53.0511 51.9657C53.2239 51.7929 53.4292 51.6558 53.655 51.5622C53.8809 51.4686 54.123 51.4205 54.3674 51.4205L63.8883 51.4205ZM59.1251 41.4911C59.9437 41.4911 60.7439 41.7339 61.4245 42.1887C62.1052 42.6434 62.6357 43.2898 62.9489 44.0461C63.2622 44.8024 63.3442 45.6346 63.1845 46.4375C63.0248 47.2403 62.6306 47.9778 62.0518 48.5566C61.4729 49.1355 60.7355 49.5297 59.9326 49.6894C59.1297 49.8491 58.2975 49.7671 57.5412 49.4538C56.785 49.1406 56.1386 48.6101 55.6838 47.9295C55.229 47.2488 54.9862 46.4486 54.9862 45.63C54.9863 44.5323 55.4223 43.4796 56.1985 42.7034C56.9747 41.9272 58.0274 41.4912 59.1251 41.4911V41.4911Z" fill="#003067"/>
<path opacity="0.2" d="M59.367 49.6399C59.366 46.5313 58.6273 43.4673 57.2116 40.6997C55.7958 37.9322 53.7435 35.5402 51.2233 33.7203C48.2538 35.1872 45.7537 37.4554 44.0057 40.2686C42.2576 43.0818 41.3313 46.3278 41.3313 49.6399C41.3313 52.952 42.2577 56.198 44.0057 59.0112C45.7538 61.8244 48.2539 64.0925 51.2234 65.5594C53.7436 63.7395 55.7959 61.3475 57.2116 58.58C58.6273 55.8125 59.366 52.7485 59.367 49.6399V49.6399Z" fill="#001834"/>
<path d="M39.7056 66.9842C49.2846 66.9842 57.0499 59.2189 57.0499 49.6399C57.0499 40.0609 49.2846 32.2956 39.7056 32.2956C30.1266 32.2956 22.3613 40.0609 22.3613 49.6399C22.3613 59.2189 30.1266 66.9842 39.7056 66.9842Z" fill="url(#paint2_linear_404_287)"/>
<path d="M39.7056 67.5024C36.1728 67.5022 32.7194 66.4545 29.7821 64.4916C26.8448 62.5288 24.5555 59.739 23.2037 56.4751C21.8518 53.2111 21.4983 49.6196 22.1876 46.1548C22.8769 42.6899 24.5782 39.5072 27.0763 37.0092C29.5745 34.5112 32.7572 32.8101 36.2222 32.121C39.6871 31.4318 43.2785 31.7856 46.5424 33.1376C49.8063 34.4896 52.5959 36.779 54.5586 39.7165C56.5213 42.6539 57.5689 46.1073 57.5689 49.6401C57.5634 54.376 55.6796 58.9163 52.3307 62.265C48.9819 65.6136 44.4415 67.4972 39.7056 67.5024ZM39.7056 32.814C36.3777 32.814 33.1245 33.8008 30.3575 35.6497C27.5904 37.4986 25.4338 40.1265 24.1602 43.201C22.8867 46.2756 22.5535 49.6588 23.2027 52.9228C23.852 56.1867 25.4545 59.1848 27.8077 61.538C30.1609 63.8912 33.159 65.4937 36.423 66.143C39.6869 66.7922 43.0701 66.459 46.1447 65.1855C49.2193 63.9119 51.8472 61.7553 53.696 58.9882C55.5449 56.2212 56.5318 52.968 56.5318 49.6401C56.5267 45.1791 54.7524 40.9022 51.5979 37.7478C48.4435 34.5934 44.1666 32.819 39.7056 32.814V32.814Z" fill="#1F56A3"/>
<path d="M44.4688 51.4205C44.7133 51.4205 44.9554 51.4687 45.1812 51.5622C45.4071 51.6558 45.6123 51.7929 45.7852 51.9658C45.958 52.1386 46.0952 52.3439 46.1887 52.5697C46.2823 52.7956 46.3304 53.0377 46.3304 53.2821V54.0424C46.3304 54.517 46.182 54.9797 45.9061 55.3659C44.6265 57.1566 42.5369 58.0437 39.7057 58.0437C36.8739 58.0437 34.7855 57.1562 33.5089 55.3646C33.2341 54.9789 33.0864 54.5171 33.0864 54.0436V53.2821C33.0864 53.0376 33.1346 52.7956 33.2281 52.5697C33.3217 52.3438 33.4588 52.1386 33.6317 51.9658C33.8045 51.7929 34.0097 51.6558 34.2356 51.5622C34.4615 51.4687 34.7035 51.4205 34.948 51.4205L44.4688 51.4205ZM39.7057 41.4911C40.5243 41.4911 41.3245 41.7339 42.0051 42.1887C42.6858 42.6434 43.2162 43.2898 43.5295 44.0461C43.8428 44.8024 43.9247 45.6346 43.765 46.4375C43.6054 47.2403 43.2112 47.9778 42.6323 48.5566C42.0535 49.1355 41.316 49.5297 40.5132 49.6894C39.7103 49.8491 38.8781 49.7671 38.1218 49.4538C37.3655 49.1406 36.7191 48.6101 36.2643 47.9295C35.8096 47.2488 35.5668 46.4486 35.5668 45.63C35.5668 44.5323 36.0029 43.4796 36.7791 42.7034C37.5552 41.9272 38.608 41.4912 39.7057 41.4911V41.4911Z" fill="white"/>
<path opacity="0.2" d="M39.7054 40.4849C41.6536 40.4824 43.5505 39.8604 45.1218 38.7088C46.6931 37.5573 47.8575 35.9358 48.4465 34.0788C45.7802 32.5705 42.7689 31.7778 39.7054 31.7778C36.642 31.7778 33.6307 32.5705 30.9644 34.0788C31.5534 35.9358 32.7178 37.5573 34.2891 38.7088C35.8604 39.8604 37.7573 40.4824 39.7054 40.4849Z" fill="#003067"/>
<path d="M61.513 67.4339C61.513 67.8584 61.3872 68.2733 61.1513 68.6262C60.9155 68.9792 60.5803 69.2543 60.1882 69.4167C59.796 69.5791 59.3645 69.6216 58.9482 69.5388C58.5318 69.456 58.1494 69.2516 57.8493 68.9515C57.5491 68.6513 57.3447 68.2689 57.2619 67.8526C57.1791 67.4363 57.2216 67.0048 57.3841 66.6126C57.5465 66.2204 57.8216 65.8852 58.1745 65.6494C58.5275 65.4136 58.9424 65.2877 59.3669 65.2877C59.9359 65.2884 60.4813 65.5147 60.8837 65.9171C61.286 66.3194 61.5124 66.8649 61.513 67.4339V67.4339ZM65.4794 66.2779L64.4814 66.056C64.3781 66.0184 64.2938 65.9416 64.2468 65.8422C64.2435 65.8313 64.2396 65.8205 64.235 65.81L63.9596 65.1409C63.9549 65.1293 63.9495 65.1177 63.9438 65.1065C63.9064 65.0039 63.9113 64.8907 63.9575 64.7917L64.5065 63.9289C64.6188 63.7421 64.6667 63.5236 64.643 63.307C64.6192 63.0903 64.525 62.8874 64.3749 62.7294L64.0712 62.4257C63.9118 62.2782 63.7092 62.1858 63.4932 62.1621C63.2773 62.1384 63.0594 62.1847 62.8718 62.2942L62.0088 62.843C61.9538 62.8705 61.8927 62.8838 61.8313 62.8816C61.7843 62.8833 61.7375 62.8749 61.6941 62.8569C61.6829 62.8509 61.6714 62.8456 61.6596 62.841L60.9906 62.5655C60.98 62.5611 60.9693 62.5572 60.9584 62.5539C60.859 62.5068 60.7822 62.4224 60.7446 62.3191L60.5229 61.3213C60.4702 61.1098 60.3496 60.9214 60.1795 60.7849C60.0095 60.6485 59.7993 60.5716 59.5814 60.5661H59.1522C58.9343 60.5716 58.7242 60.6484 58.5541 60.7848C58.3841 60.9212 58.2635 61.1096 58.2109 61.3211L57.9889 62.3195C57.9511 62.4226 57.8744 62.5067 57.7752 62.5538C57.7642 62.5571 57.7535 62.5611 57.7428 62.5654L57.0738 62.841C57.062 62.8456 57.0504 62.8509 57.0392 62.8569C56.9958 62.8749 56.949 62.8833 56.9021 62.8816C56.8406 62.8836 56.7795 62.8703 56.7244 62.8429L55.8618 62.2944C55.6742 62.185 55.4563 62.1387 55.2404 62.1624C55.0245 62.1861 54.8218 62.2784 54.6623 62.4259L54.3587 62.7294C54.2085 62.8874 54.1143 63.0904 54.0906 63.3071C54.0668 63.5238 54.1148 63.7423 54.2271 63.9291L54.7761 64.7917C54.822 64.8906 54.827 65.0037 54.7898 65.1063C54.7841 65.1177 54.7785 65.1293 54.7737 65.1408L54.4984 65.81L54.4866 65.8422C54.4396 65.9416 54.3553 66.0185 54.252 66.0562L53.2543 66.2777C53.0427 66.3304 52.8543 66.451 52.7178 66.6211C52.5814 66.7911 52.5045 67.0013 52.499 67.2192V67.6484C52.5045 67.8663 52.5814 68.0764 52.7178 68.2464C52.8541 68.4165 53.0425 68.5371 53.254 68.5898L54.2522 68.8115C54.3554 68.8492 54.4396 68.9261 54.4866 69.0255L54.4984 69.0577L54.7737 69.7268C54.7784 69.7384 54.7838 69.7498 54.7898 69.7612C54.827 69.8638 54.8219 69.977 54.7758 70.076L54.227 70.9386C54.1146 71.1254 54.0667 71.3439 54.0904 71.5606C54.1142 71.7773 54.2084 71.9803 54.3586 72.1383L54.6623 72.4419C54.8218 72.5894 55.0245 72.6817 55.2405 72.7054C55.4564 72.7291 55.6743 72.6829 55.862 72.5735L56.7241 72.0247C56.7793 71.9973 56.8404 71.984 56.902 71.9861C56.949 71.9842 56.9958 71.9926 57.0392 72.0108C57.0505 72.0164 57.0619 72.0219 57.0737 72.0267L57.7427 72.3022L57.7751 72.3138C57.8744 72.3609 57.9512 72.4452 57.9889 72.5484L58.2108 73.5464C58.2634 73.758 58.384 73.9464 58.554 74.0828C58.7241 74.2193 58.9342 74.2961 59.1521 74.3016H59.5813C59.7993 74.2961 60.0093 74.2192 60.1794 74.0828C60.3494 73.9463 60.47 73.7579 60.5227 73.5464L60.7446 72.5484C60.7822 72.4452 60.859 72.3609 60.9583 72.3138L60.9905 72.3022L61.6595 72.0267C61.6713 72.0219 61.6829 72.0164 61.6941 72.0108C61.7374 71.9927 61.7841 71.9843 61.831 71.9861C61.8925 71.9839 61.9536 71.9972 62.0087 72.0247L62.8715 72.5733C63.0591 72.6828 63.277 72.7291 63.493 72.7055C63.709 72.6818 63.9116 72.5895 64.0712 72.4419L64.3746 72.1385C64.5248 71.9804 64.6191 71.7775 64.6429 71.5607C64.6667 71.344 64.6187 71.1254 64.5064 70.9386L63.9574 70.076C63.9346 70.027 63.9216 69.974 63.9192 69.9201C63.9169 69.8661 63.9252 69.8122 63.9437 69.7614C63.9495 69.75 63.9548 69.7386 63.9596 69.727L64.2349 69.0577C64.2395 69.0472 64.2434 69.0364 64.2467 69.0255C64.2938 68.926 64.3781 68.8491 64.4815 68.8115L65.479 68.5898C65.6906 68.5372 65.8791 68.4166 66.0156 68.2466C66.1521 68.0765 66.229 67.8664 66.2345 67.6484V67.2192C66.229 67.0013 66.1522 66.7912 66.0158 66.6212C65.8793 66.4511 65.6909 66.3305 65.4794 66.2779V66.2779Z" fill="url(#paint3_linear_404_287)"/>
<path opacity="0.2" d="M61.513 67.4339C61.513 67.8584 61.3872 68.2733 61.1513 68.6262C60.9155 68.9792 60.5803 69.2543 60.1882 69.4167C59.796 69.5791 59.3645 69.6216 58.9482 69.5388C58.5319 69.456 58.1494 69.2516 57.8493 68.9515C57.5492 68.6513 57.3448 68.2689 57.2619 67.8526C57.1791 67.4363 57.2216 67.0047 57.3841 66.6126C57.5465 66.2204 57.8216 65.8852 58.1745 65.6494C58.5275 65.4136 58.9424 65.2877 59.3669 65.2877C59.9359 65.2884 60.4814 65.5147 60.8837 65.9171C61.286 66.3194 61.5124 66.8649 61.513 67.4339Z" fill="url(#paint4_linear_404_287)"/>
<path d="M39.7055 38.4848C43.664 38.4848 46.873 35.2758 46.873 31.3173C46.873 27.3589 43.664 24.1499 39.7055 24.1499C35.7471 24.1499 32.5381 27.3589 32.5381 31.3173C32.5381 35.2758 35.7471 38.4848 39.7055 38.4848Z" fill="url(#paint5_linear_404_287)"/>
<path d="M42.7712 29.0773C42.616 28.9222 42.4055 28.835 42.186 28.835C41.9665 28.835 41.756 28.9222 41.6007 29.0773L38.8723 31.8038L37.8868 30.8277C37.8637 30.7934 37.8377 30.7614 37.809 30.7317C37.6547 30.5777 37.4458 30.4908 37.2278 30.49C37.0098 30.4892 36.8003 30.5745 36.6448 30.7274C36.4894 30.8803 36.4006 31.0883 36.3978 31.3063C36.395 31.5243 36.4783 31.7346 36.6298 31.8915L36.6199 31.9014L38.2895 33.5558C38.4449 33.7109 38.6554 33.798 38.875 33.798C39.0945 33.798 39.3051 33.7109 39.4604 33.5558L42.7688 30.249L42.7712 30.247C42.8481 30.1702 42.9091 30.0791 42.9506 29.9787C42.9922 29.8784 43.0137 29.7708 43.0137 29.6622C43.0137 29.5535 42.9922 29.446 42.9506 29.3456C42.9091 29.2453 42.8481 29.1541 42.7712 29.0773V29.0773Z" fill="#0078D4"/>
</g>
<defs>
<linearGradient id="paint0_linear_404_287" x1="47.8698" y1="-15.1532" x2="51.8525" y2="130.615" gradientUnits="userSpaceOnUse">
<stop stop-color="#00ABDE"/>
<stop offset="1" stop-color="#007ED8"/>
</linearGradient>
<linearGradient id="paint1_linear_404_287" x1="59.1251" y1="66.9842" x2="59.1251" y2="32.2334" gradientUnits="userSpaceOnUse">
<stop stop-color="#003067"/>
<stop offset="0.2" stop-color="#003F7C"/>
<stop offset="0.47" stop-color="#004F90"/>
<stop offset="0.74" stop-color="#00589D"/>
<stop offset="1" stop-color="#005BA1"/>
</linearGradient>
<linearGradient id="paint2_linear_404_287" x1="39.7056" y1="66.9842" x2="39.7056" y2="32.2956" gradientUnits="userSpaceOnUse">
<stop stop-color="#004DAE"/>
<stop offset="0.21" stop-color="#0061C4"/>
<stop offset="0.51" stop-color="#0078DD"/>
<stop offset="0.78" stop-color="#0086EC"/>
<stop offset="1" stop-color="#008BF1"/>
</linearGradient>
<linearGradient id="paint3_linear_404_287" x1="59.3669" y1="73.8086" x2="59.3669" y2="60.8653" gradientUnits="userSpaceOnUse">
<stop stop-color="white"/>
<stop offset="0.56" stop-color="#FBFBFB"/>
<stop offset="1" stop-color="#F2F2F2"/>
</linearGradient>
<linearGradient id="paint4_linear_404_287" x1="312.044" y1="363.288" x2="312.044" y2="345.927" gradientUnits="userSpaceOnUse">
<stop stop-color="white"/>
<stop offset="0.56" stop-color="#FBFBFB"/>
<stop offset="1" stop-color="#F2F2F2"/>
</linearGradient>
<linearGradient id="paint5_linear_404_287" x1="39.7055" y1="37.9703" x2="39.7055" y2="24.4622" gradientUnits="userSpaceOnUse">
<stop stop-color="#F2F2F2"/>
<stop offset="1" stop-color="white"/>
</linearGradient>
<clipPath id="clip0_404_287">
<rect width="99.2799" height="99.28" fill="white"/>
</clipPath>
</defs>
</svg>
