<svg width="100" height="100" viewBox="0 0 100 100" fill="none" xmlns="http://www.w3.org/2000/svg">
<g clip-path="url(#clip0_1022_898)">
<path d="M49.6401 96.45C40.382 96.45 31.3317 93.7047 23.6339 88.5611C15.936 83.4176 9.93624 76.1068 6.3933 67.5534C2.85036 59 1.92337 49.5881 3.72954 40.5078C5.53571 31.4276 9.99394 23.0868 16.5404 16.5403C23.0869 9.99384 31.4277 5.53562 40.5079 3.72945C49.5882 1.92327 59.0001 2.85027 67.5535 6.39321C76.1069 9.93614 83.4176 15.9359 88.5612 23.6338C93.7047 31.3316 96.4501 40.3819 96.4501 49.64C96.4505 55.7873 95.24 61.8745 92.8878 67.5539C90.5355 73.2334 87.0875 78.3938 82.7407 82.7406C78.3939 87.0874 73.2335 90.5354 67.554 92.8877C61.8746 95.2399 55.7874 96.4504 49.6401 96.45V96.45Z" fill="url(#paint0_linear_1022_898)"/>
<path fill-rule="evenodd" clip-rule="evenodd" d="M95.54 49.64C95.54 58.7182 92.848 67.5925 87.8045 75.1407C82.7609 82.6889 75.5923 88.572 67.2052 92.0461C58.818 95.5201 49.5891 96.4291 40.6854 94.658C31.7816 92.887 23.603 88.5154 17.1838 82.0962C10.7646 75.677 6.39302 67.4984 4.62196 58.5946C2.85089 49.6909 3.75987 40.462 7.23393 32.0748C10.708 23.6877 16.5911 16.5191 24.1393 11.4755C31.6875 6.43199 40.5618 3.74 49.64 3.74C55.6677 3.73998 61.6363 4.9272 67.2052 7.23388C72.774 9.54057 77.834 12.9215 82.0963 17.1837C86.3585 21.446 89.7394 26.5059 92.0461 32.0748C94.3528 37.6437 95.54 43.6123 95.54 49.64V49.64ZM49.64 3.62732e-07C59.4579 3.62732e-07 69.0553 2.91134 77.2185 8.36585C85.3818 13.8204 91.7442 21.5731 95.5014 30.6436C99.2585 39.7141 100.242 49.6951 98.3262 59.3243C96.4108 68.9535 91.6831 77.7985 84.7408 84.7408C77.7985 91.6831 68.9535 96.4108 59.3243 98.3262C49.6951 100.242 39.7141 99.2585 30.6436 95.5014C21.5731 91.7442 13.8204 85.3818 8.36585 77.2185C2.91134 69.0553 3.62732e-07 59.4579 3.62732e-07 49.64C-0.000787738 43.121 1.28265 36.6656 3.77702 30.6427C6.27138 24.6197 9.9278 19.1471 14.5375 14.5375C19.1471 9.9278 24.6197 6.27138 30.6427 3.77702C36.6656 1.28265 43.121 -0.000787738 49.64 3.62732e-07V3.62732e-07Z" fill="#F2F1F0"/>
<path fill-rule="evenodd" clip-rule="evenodd" d="M92.7296 49.6401C92.7296 58.1625 90.2024 66.4935 85.4676 73.5796C80.7328 80.6657 74.0031 86.1887 66.1294 89.4501C58.2557 92.7114 49.5918 93.5648 41.2331 91.9021C32.8745 90.2395 25.1966 86.1356 19.1703 80.1093C13.1441 74.0831 9.04017 66.4052 7.37753 58.0465C5.7149 49.6879 6.56822 41.0239 9.8296 33.1503C13.091 25.2766 18.6139 18.5469 25.7 13.8121C32.7862 9.07727 41.1172 6.55009 49.6396 6.55009C55.2983 6.54974 60.9017 7.66407 66.1298 9.82942C71.3579 11.9948 76.1082 15.1687 80.1096 19.1701C84.1109 23.1714 87.2849 27.9218 89.4502 33.1499C91.6156 38.3779 92.7299 43.9813 92.7296 49.6401V49.6401ZM49.6396 2.81009C58.9017 2.81009 67.9558 5.55662 75.6569 10.7024C83.3581 15.8481 89.3604 23.162 92.9049 31.719C96.4493 40.2761 97.3767 49.692 95.5697 58.7762C93.7628 67.8603 89.3027 76.2046 82.7534 82.7539C76.2041 89.3032 67.8598 93.7633 58.7757 95.5703C49.6915 97.3772 40.2756 96.4498 31.7185 92.9054C23.1614 89.3609 15.8476 83.3586 10.7018 75.6574C5.5561 67.9563 2.80957 58.9022 2.80957 49.6401C2.81076 37.2204 7.745 25.3097 16.5271 16.5276C25.3091 7.7455 37.2198 2.81125 49.6396 2.81006V2.81009Z" fill="#0078D4"/>
<path fill-rule="evenodd" clip-rule="evenodd" d="M92.7637 49.6401C92.7637 58.1625 90.2366 66.4935 85.5018 73.5796C80.767 80.6657 74.0372 86.1887 66.1636 89.4501C58.2899 92.7114 49.6259 93.5648 41.2673 91.9021C32.9087 90.2395 25.2308 86.1356 19.2045 80.1093C13.1783 74.0831 9.07435 66.4052 7.41171 58.0465C5.74908 49.6879 6.6024 41.0239 9.86378 33.1503C13.1252 25.2766 18.6481 18.5469 25.7342 13.8121C32.8203 9.07727 41.1514 6.55009 49.6738 6.55009C55.3325 6.54974 60.9359 7.66407 66.164 9.82942C71.3921 11.9948 76.1424 15.1687 80.1437 19.1701C84.1451 23.1714 87.3191 27.9218 89.4844 33.1499C91.6498 38.3779 92.7641 43.9813 92.7637 49.6401V49.6401ZM49.6738 2.81009C58.9359 2.81009 67.9899 5.55662 75.6911 10.7024C83.3923 15.8481 89.3946 23.162 92.939 31.719C96.4835 40.2761 97.4109 49.692 95.6039 58.7762C93.797 67.8603 89.3369 76.2046 82.7876 82.7539C76.2383 89.3032 67.894 93.7633 58.8098 95.5703C49.7257 97.3772 40.3097 96.4498 31.7527 92.9054C23.1956 89.3609 15.8818 83.3586 10.736 75.6574C5.59028 67.9563 2.84375 58.9022 2.84375 49.6401C2.84494 37.2204 7.77918 25.3097 16.5612 16.5276C25.3433 7.7455 37.254 2.81125 49.6738 2.81006V2.81009Z" fill="#0078D4"/>
<path d="M74.5788 29.0202H24.7003C23.7165 29.0202 22.9189 29.8178 22.9189 30.8016V62.8663C22.9189 63.8501 23.7165 64.6477 24.7003 64.6477H74.5788C75.5626 64.6477 76.3601 63.8501 76.3601 62.8663V30.8016C76.3601 29.8178 75.5626 29.0202 74.5788 29.0202Z" fill="url(#paint1_linear_1022_898)"/>
<path d="M60.3576 75.425C55.0728 74.5937 54.865 70.7934 54.865 64.6477H44.3846C44.3846 70.7934 44.2065 74.5937 38.9217 75.425C38.1922 75.5057 37.5184 75.8538 37.0305 76.4021C36.5425 76.9504 36.2749 77.66 36.2794 78.394H63C63.0044 77.66 62.7368 76.9504 62.2489 76.4021C61.7609 75.8538 61.0871 75.5057 60.3576 75.425V75.425Z" fill="url(#paint2_linear_1022_898)"/>
<path d="M28.5576 27.6094H70.7897V55.6528C70.7897 55.9895 70.7234 56.323 70.5945 56.6341C70.4657 56.9452 70.2768 57.2279 70.0387 57.466C69.8006 57.7041 69.5179 57.893 69.2068 58.0218C68.8957 58.1507 68.5623 58.217 68.2256 58.217H31.1218C30.4417 58.217 29.7895 57.9469 29.3086 57.466C28.8278 56.9851 28.5576 56.3329 28.5576 55.6528V27.6094Z" fill="#003067"/>
<path d="M58.525 37.733V48.064L49.645 53.274V42.913L58.525 37.733Z" fill="#50E6FF"/>
<path d="M58.5249 37.733L49.6449 42.943L40.7639 37.733L49.6449 32.552L58.5249 37.733Z" fill="#C3F1FF"/>
<path d="M49.6449 42.943V53.274L40.7639 48.064V37.733L49.6449 42.943Z" fill="#9CEBFF"/>
<path d="M40.7639 48.064L49.6449 42.913V53.274L40.7639 48.064Z" fill="#C3F1FF"/>
<path d="M58.525 48.064L49.645 42.913V53.274L58.525 48.064Z" fill="#9CEBFF"/>
<path d="M31.1218 22.4068H68.2256C68.5623 22.4068 68.8957 22.4731 69.2068 22.602C69.5179 22.7309 69.8006 22.9197 70.0387 23.1579C70.2768 23.396 70.4657 23.6786 70.5945 23.9897C70.7234 24.3008 70.7897 24.6343 70.7897 24.971V27.6094H28.5576V24.971C28.5576 24.6343 28.6239 24.3008 28.7528 23.9897C28.8817 23.6786 29.0705 23.396 29.3086 23.1578C29.5467 22.9197 29.8294 22.7309 30.1405 22.602C30.4516 22.4731 30.785 22.4068 31.1218 22.4068V22.4068Z" fill="url(#paint3_linear_1022_898)"/>
</g>
<defs>
<linearGradient id="paint0_linear_1022_898" x1="47.8697" y1="-15.1531" x2="51.8525" y2="130.615" gradientUnits="userSpaceOnUse">
<stop stop-color="#00ABDE"/>
<stop offset="1" stop-color="#007ED8"/>
</linearGradient>
<linearGradient id="paint1_linear_1022_898" x1="49.6395" y1="64.6477" x2="49.6395" y2="29.0202" gradientUnits="userSpaceOnUse">
<stop stop-color="#50E6FF"/>
<stop offset="0.81879" stop-color="#C3F1FF"/>
</linearGradient>
<linearGradient id="paint2_linear_1022_898" x1="49.6397" y1="78.394" x2="49.6397" y2="64.6477" gradientUnits="userSpaceOnUse">
<stop offset="0.15" stop-color="#CCCCCC"/>
<stop offset="1" stop-color="#707070"/>
</linearGradient>
<linearGradient id="paint3_linear_1022_898" x1="28.5576" y1="25.0081" x2="70.7897" y2="25.0081" gradientUnits="userSpaceOnUse">
<stop stop-color="#005BA1"/>
<stop offset="0.26" stop-color="#00589D"/>
<stop offset="0.53" stop-color="#004F90"/>
<stop offset="0.8" stop-color="#003F7C"/>
<stop offset="1" stop-color="#003067"/>
</linearGradient>
<clipPath id="clip0_1022_898">
<rect width="99.2799" height="99.28" fill="white"/>
</clipPath>
</defs>
</svg>
