<svg width="100" height="100" viewBox="0 0 100 100" fill="none" xmlns="http://www.w3.org/2000/svg">
<g clip-path="url(#clip0)">
<path d="M49.1924 96.5204C39.9343 96.5204 30.884 93.7751 23.1862 88.6315C15.4883 83.488 9.48854 76.1772 5.94561 67.6238C2.40267 59.0704 1.47567 49.6585 3.28185 40.5782C5.08802 31.498 9.54624 23.1572 16.0927 16.6107C22.6392 10.0642 30.98 5.60603 40.0602 3.79985C49.1405 1.99368 58.5524 2.92067 67.1058 6.46361C75.6592 10.0065 82.9699 16.0063 88.1135 23.7042C93.257 31.402 96.0024 40.4523 96.0024 49.7104C96.0028 55.8577 94.7923 61.9449 92.4401 67.6243C90.0878 73.3038 86.6398 78.4642 82.293 82.811C77.9462 87.1578 72.7858 90.6058 67.1063 92.9581C61.4269 95.3103 55.3397 96.5208 49.1924 96.5204V96.5204Z" fill="url(#paint0_linear)"/>
<path fill-rule="evenodd" clip-rule="evenodd" d="M95.5402 49.7806C95.5402 58.8588 92.8482 67.7331 87.8046 75.2813C82.761 82.8295 75.5925 88.7126 67.2053 92.1867C58.8182 95.6608 49.5892 96.5697 40.6855 94.7987C31.7818 93.0276 23.6032 88.6561 17.184 82.2368C10.7647 75.8176 6.39317 67.639 4.62211 58.7353C2.85105 49.8315 3.76002 40.6026 7.23408 32.2155C10.7081 23.8283 16.5913 16.6597 24.1395 11.6162C31.6877 6.57261 40.562 3.88063 49.6402 3.88063C55.6678 3.8806 61.6365 5.06783 67.2053 7.37451C72.7742 9.68119 77.8342 13.0622 82.0964 17.3244C86.3586 21.5866 89.7396 26.6466 92.0463 32.2154C94.3529 37.7843 95.5402 43.7529 95.5402 49.7806V49.7806ZM49.6402 0.140625C59.458 0.140625 69.0554 3.05196 77.2187 8.50647C85.3819 13.961 91.7444 21.7137 95.5015 30.7842C99.2587 39.8547 100.242 49.8357 98.3263 59.4649C96.411 69.0941 91.6832 77.9391 84.7409 84.8814C77.7987 91.8237 68.9537 96.5514 59.3244 98.4668C49.6952 100.382 39.7143 99.3991 30.6437 95.642C21.5732 91.8849 13.8205 85.5224 8.366 77.3591C2.91149 69.1959 0.000152951 59.5985 0.000152951 49.7806C-0.00063515 43.2616 1.2828 36.8062 3.77717 30.7833C6.27153 24.7603 9.92796 19.2877 14.5376 14.6781C19.1473 10.0684 24.6199 6.412 30.6428 3.91764C36.6658 1.42328 43.1211 0.139837 49.6402 0.140625V0.140625Z" fill="#F2F1F0"/>
<path fill-rule="evenodd" clip-rule="evenodd" d="M92.2819 49.7089C92.2819 58.2313 89.7547 66.5623 85.0199 73.6485C80.2851 80.7346 73.5554 86.2575 65.6817 89.5189C57.8081 92.7803 49.1441 93.6336 40.7855 91.971C32.4268 90.3083 24.7489 86.2044 18.7227 80.1782C12.6964 74.1519 8.59251 66.474 6.92987 58.1154C5.26723 49.7567 6.12056 41.0928 9.38194 33.2191C12.6433 25.3454 18.1663 18.6157 25.2524 13.8809C32.3385 9.14612 40.6695 6.61894 49.1919 6.61894C54.8507 6.61859 60.4541 7.73291 65.6821 9.89827C70.9102 12.0636 75.6606 15.2376 79.6619 19.2389C83.6632 23.2403 86.8372 27.9906 89.0026 33.2187C91.1679 38.4468 92.2823 44.0502 92.2819 49.7089V49.7089ZM49.1919 2.87894C58.454 2.87894 67.5081 5.62547 75.2093 10.7712C82.9104 15.917 88.9127 23.2308 92.4572 31.7879C96.0016 40.3449 96.929 49.7609 95.1221 58.845C93.3151 67.9291 88.855 76.2735 82.3057 82.8227C75.7564 89.372 67.4121 93.8322 58.328 95.6391C49.2439 97.4461 39.8279 96.5187 31.2708 92.9742C22.7138 89.4298 15.3999 83.4274 10.2542 75.7263C5.10844 68.0251 2.36191 58.971 2.36191 49.7089C2.3631 37.2892 7.29734 25.3785 16.0794 16.5964C24.8615 7.81435 36.7722 2.8801 49.1919 2.87891V2.87894Z" fill="#0078D4"/>
<path opacity="0.2" fill-rule="evenodd" clip-rule="evenodd" d="M23.581 40.4512V70.1774C23.5834 70.9853 23.9053 71.7594 24.4766 72.3306C25.0478 72.9019 25.822 73.2239 26.6298 73.2262H69.3136C70.1222 73.2262 70.8977 72.905 71.4695 72.3333C72.0413 71.7615 72.3625 70.986 72.3625 70.1774V40.4512H23.581Z" fill="#003067"/>
<path fill-rule="evenodd" clip-rule="evenodd" d="M23.581 38.4531V68.1794C23.5834 68.9872 23.9053 69.7613 24.4766 70.3326C25.0478 70.9038 25.822 71.2258 26.6298 71.2282H69.3136C70.1222 71.2282 70.8977 70.907 71.4695 70.3352C72.0413 69.7634 72.3625 68.988 72.3625 68.1794V38.4531H23.581Z" fill="white"/>
<path d="M72.3624 29.3057C72.3612 28.9017 72.2002 28.5147 71.9146 28.229C71.629 27.9434 71.2419 27.7824 70.838 27.7812H25.1054C24.7014 27.7824 24.3144 27.9434 24.0288 28.2291C23.7432 28.5147 23.5822 28.9017 23.581 29.3057V36.9278H72.3624V29.3057Z" fill="url(#paint1_linear)"/>
<path fill-rule="evenodd" clip-rule="evenodd" d="M23.581 38.4522H72.3624V36.9277H23.581V38.4522Z" fill="#E8E8E8"/>
<path d="M37.538 63.7918C42.8216 63.7918 47.1048 59.5086 47.1048 54.225C47.1048 48.9414 42.8216 44.6582 37.538 44.6582C32.2544 44.6582 27.9712 48.9414 27.9712 54.225C27.9712 59.5086 32.2544 63.7918 37.538 63.7918Z" fill="#E8E8E8"/>
<path opacity="0.2" fill-rule="evenodd" clip-rule="evenodd" d="M57.4904 52.5854C57.4897 52.837 57.3894 53.0782 57.2114 53.2562C57.0334 53.4342 56.7923 53.5345 56.5406 53.5352H52.741C52.4893 53.5345 52.2481 53.4342 52.0701 53.2562C51.8922 53.0782 51.7918 52.837 51.7911 52.5854V48.7858C51.7918 48.5341 51.8922 48.2929 52.0701 48.115C52.2481 47.937 52.4893 47.8367 52.741 47.8359H56.5405C56.7922 47.8367 57.0334 47.937 57.2114 48.115C57.3894 48.2929 57.4897 48.5341 57.4904 48.7858L57.4904 52.5854ZM65.0895 48.7858C65.0888 48.5341 64.9885 48.2929 64.8105 48.115C64.6325 47.937 64.3913 47.8367 64.1396 47.8359H60.3401C60.0884 47.8367 59.8472 47.937 59.6692 48.115C59.4913 48.2929 59.391 48.5341 59.3902 48.7858V52.5854C59.391 52.837 59.4913 53.0782 59.6692 53.2562C59.8472 53.4342 60.0884 53.5345 60.3401 53.5352H64.1396C64.3913 53.5345 64.6325 53.4342 64.8105 53.2562C64.9885 53.0782 65.0888 52.837 65.0895 52.5854V48.7858ZM57.4904 56.3849C57.4897 56.1332 57.3894 55.892 57.2114 55.714C57.0334 55.5361 56.7923 55.4357 56.5406 55.435H52.741C52.4893 55.4357 52.2481 55.536 52.0701 55.714C51.8922 55.892 51.7918 56.1332 51.7911 56.3849V60.1844C51.7918 60.4361 51.8922 60.6773 52.0701 60.8553C52.2481 61.0332 52.4893 61.1336 52.741 61.1343H56.5405C56.7922 61.1336 57.0334 61.0332 57.2114 60.8553C57.3894 60.6773 57.4897 60.4361 57.4904 60.1844L57.4904 56.3849ZM65.0895 56.3849C65.0888 56.1332 64.9885 55.892 64.8105 55.714C64.6325 55.5361 64.3913 55.4357 64.1396 55.435H60.3401C60.0884 55.4357 59.8472 55.536 59.6692 55.714C59.4913 55.892 59.391 56.1332 59.3902 56.3849V60.1844C59.391 60.4361 59.4913 60.6773 59.6692 60.8553C59.8472 61.0332 60.0884 61.1336 60.3401 61.1343H64.1396C64.3913 61.1336 64.6325 61.0332 64.8105 60.8553C64.9885 60.6773 65.0888 60.4361 65.0895 60.1844V56.3849Z" fill="#767676"/>
<path fill-rule="evenodd" clip-rule="evenodd" d="M57.4904 51.6361C57.4897 51.8878 57.3894 52.129 57.2114 52.307C57.0334 52.485 56.7923 52.5853 56.5406 52.586H52.741C52.4893 52.5853 52.2481 52.485 52.0701 52.307C51.8922 52.129 51.7918 51.8878 51.7911 51.6361V47.8366C51.7918 47.5849 51.8922 47.3437 52.0701 47.1657C52.2481 46.9878 52.4893 46.8875 52.741 46.8867H56.5405C56.7922 46.8875 57.0334 46.9878 57.2114 47.1657C57.3894 47.3437 57.4897 47.5849 57.4904 47.8366L57.4904 51.6361ZM65.0895 47.8366C65.0888 47.5849 64.9885 47.3437 64.8105 47.1658C64.6325 46.9878 64.3913 46.8875 64.1396 46.8867H60.3401C60.0884 46.8875 59.8472 46.9878 59.6692 47.1658C59.4913 47.3437 59.391 47.5849 59.3902 47.8366V51.6361C59.391 51.8878 59.4913 52.129 59.6692 52.307C59.8472 52.485 60.0884 52.5853 60.3401 52.586H64.1396C64.3913 52.5853 64.6325 52.485 64.8105 52.307C64.9885 52.129 65.0888 51.8878 65.0895 51.6361V47.8366ZM57.4904 55.4357C57.4897 55.184 57.3894 54.9428 57.2114 54.7649C57.0334 54.5869 56.7923 54.4866 56.5406 54.4858H52.741C52.4893 54.4866 52.2481 54.5869 52.0701 54.7649C51.8922 54.9428 51.7918 55.184 51.7911 55.4357V59.2352C51.7918 59.4869 51.8922 59.7281 52.0701 59.9061C52.2481 60.0841 52.4893 60.1844 52.741 60.1851H56.5405C56.7922 60.1844 57.0334 60.0841 57.2114 59.9061C57.3894 59.7281 57.4897 59.4869 57.4904 59.2352L57.4904 55.4357ZM65.0895 55.4357C65.0888 55.184 64.9885 54.9428 64.8105 54.7649C64.6325 54.5869 64.3913 54.4866 64.1396 54.4858H60.3401C60.0884 54.4866 59.8472 54.5869 59.6692 54.7649C59.4913 54.9428 59.391 55.184 59.3902 55.4357V59.2352C59.391 59.4869 59.4913 59.7281 59.6692 59.9061C59.8472 60.0841 60.0884 60.1844 60.3401 60.1851H64.1396C64.3913 60.1844 64.6325 60.0841 64.8105 59.9061C64.9885 59.7281 65.0888 59.4869 65.0895 59.2352V55.4357Z" fill="url(#paint2_linear)"/>
<path opacity="0.2" d="M40.235 55.4111C40.368 55.4106 40.4998 55.4357 40.6232 55.4851C40.7482 55.5355 40.8614 55.611 40.956 55.7069L41.9728 56.7238C42.0669 56.8172 42.1409 56.9289 42.1901 57.052C42.2397 57.1771 42.2664 57.3102 42.2686 57.4448C42.2691 57.5778 42.244 57.7096 42.1947 57.8331C42.1443 57.958 42.0688 58.0713 41.9728 58.1659L41.9081 58.2306C41.7417 58.397 41.5892 58.5449 41.4505 58.6743C41.3187 58.7986 41.1729 58.9072 41.0161 58.9978C40.8576 59.0871 40.6883 59.1555 40.5123 59.2012C40.2961 59.2539 40.0738 59.2773 39.8513 59.2705C39.4488 59.2679 39.0487 59.2072 38.6635 59.0903C38.2441 58.9649 37.8384 58.7977 37.4525 58.5911C37.0388 58.37 36.6431 58.1166 36.2693 57.8331C35.8817 57.5409 35.5156 57.2211 35.1739 56.8763C34.8321 56.5315 34.514 56.164 34.2218 55.7763C33.939 55.4039 33.6886 55.0081 33.473 54.5931C33.2725 54.2071 33.1085 53.8033 32.9831 53.3868C32.8668 53.0095 32.8076 52.6169 32.8075 52.222C32.8038 52.0015 32.8255 51.7813 32.8722 51.5657C32.9128 51.3902 32.9798 51.2219 33.0709 51.0666C33.1629 50.912 33.2714 50.7679 33.3944 50.6367C33.5208 50.5011 33.6687 50.3486 33.8382 50.1791L33.9122 50.1051C34.0062 50.0106 34.1176 49.9353 34.2403 49.8833C34.3646 49.8307 34.4983 49.804 34.6332 49.8047C34.7666 49.8043 34.8987 49.831 35.0214 49.8833C35.1451 49.936 35.258 50.0112 35.3542 50.1051L36.371 51.1219C36.4651 51.2153 36.539 51.327 36.5882 51.4501C36.6379 51.5752 36.6645 51.7083 36.6668 51.843C36.6691 51.9667 36.6455 52.0895 36.5975 52.2035C36.552 52.3069 36.4946 52.4046 36.4265 52.4947C36.3614 52.5811 36.287 52.6602 36.2046 52.7304C36.1245 52.7982 36.049 52.8675 35.9781 52.9384C35.9146 53.0004 35.8574 53.0686 35.8071 53.1418C35.7631 53.2092 35.7391 53.2877 35.7378 53.3682C35.737 53.4242 35.7476 53.4797 35.7691 53.5314C35.7905 53.5831 35.8224 53.6298 35.8626 53.6687L38.4093 56.2154C38.4482 56.2556 38.4949 56.2874 38.5466 56.3089C38.5983 56.3303 38.6538 56.341 38.7097 56.3402C38.789 56.3404 38.8665 56.3162 38.9316 56.2708C39.0055 56.2196 39.075 56.1624 39.1396 56.0998C39.2128 56.0296 39.2822 55.9555 39.3476 55.878C39.4185 55.7949 39.4974 55.719 39.5833 55.6515C39.6707 55.5818 39.7671 55.5243 39.8699 55.4805C39.9861 55.4345 40.11 55.411 40.235 55.4111Z" fill="#767676"/>
<path d="M40.235 54.788C40.368 54.7875 40.4998 54.8127 40.6233 54.862C40.7482 54.9124 40.8615 54.988 40.9561 55.0839L41.9729 56.1007C42.067 56.1941 42.1409 56.3058 42.1901 56.4289C42.2398 56.554 42.2664 56.6871 42.2687 56.8217C42.2692 56.9547 42.2441 57.0865 42.1947 57.21C42.1443 57.3349 42.0688 57.4482 41.9729 57.5428L41.9082 57.6075C41.7418 57.7739 41.5893 57.9218 41.4506 58.0512C41.3188 58.1755 41.173 58.2841 41.0161 58.3747C40.8577 58.464 40.6884 58.5324 40.5123 58.5781C40.2962 58.6308 40.0738 58.6542 39.8514 58.6474C39.4488 58.6448 39.0488 58.5841 38.6635 58.4672C38.2442 58.3418 37.8385 58.1746 37.4526 57.968C37.0388 57.7469 36.6432 57.4935 36.2694 57.21C35.8817 56.9178 35.5156 56.5981 35.174 56.2532C34.8322 55.9084 34.5141 55.5409 34.2218 55.1532C33.9391 54.7808 33.6886 54.385 33.4731 53.97C33.2725 53.584 33.1085 53.1802 32.9832 52.7637C32.8669 52.3864 32.8077 51.9938 32.8075 51.5989C32.8039 51.3784 32.8256 51.1582 32.8722 50.9426C32.9128 50.7671 32.9799 50.5988 33.071 50.4435C33.163 50.2889 33.2715 50.1448 33.3945 50.0136C33.5208 49.878 33.6687 49.7255 33.8382 49.556L33.9122 49.4821C34.0062 49.3876 34.1177 49.3122 34.2404 49.2602C34.3646 49.2076 34.4983 49.1809 34.6332 49.1817C34.7667 49.1812 34.8988 49.208 35.0215 49.2602C35.1452 49.3129 35.2581 49.3882 35.3543 49.4821L36.371 50.4988C36.4651 50.5922 36.5391 50.7039 36.5882 50.827C36.6379 50.9522 36.6646 51.0853 36.6668 51.2199C36.6692 51.3436 36.6455 51.4664 36.5975 51.5804C36.5521 51.6838 36.4947 51.7815 36.4265 51.8716C36.3614 51.9581 36.287 52.0371 36.2046 52.1073C36.1245 52.1751 36.049 52.2444 35.9782 52.3153C35.9147 52.3773 35.8574 52.4455 35.8072 52.5187C35.7632 52.5861 35.7391 52.6646 35.7378 52.7451C35.737 52.8011 35.7476 52.8566 35.7691 52.9083C35.7906 52.9599 35.8224 53.0067 35.8626 53.0456L38.4093 55.5923C38.4482 55.6325 38.4949 55.6643 38.5466 55.6858C38.5983 55.7072 38.6538 55.7179 38.7097 55.7171C38.7891 55.7173 38.8665 55.6931 38.9316 55.6477C39.0055 55.5965 39.0751 55.5393 39.1396 55.4767C39.2128 55.4065 39.2822 55.3324 39.3476 55.2549C39.4185 55.1718 39.4975 55.0959 39.5833 55.0284C39.6707 54.9587 39.7671 54.9012 39.8699 54.8574C39.9861 54.8114 40.11 54.7878 40.235 54.788Z" fill="url(#paint3_linear)"/>
<path opacity="0.2" d="M69.641 54.6543C68.0861 54.6574 66.5444 54.94 65.0895 55.4885V59.2342C65.0888 59.4859 64.9885 59.7271 64.8105 59.905C64.6325 60.083 64.3914 60.1833 64.1397 60.1841H60.3401C60.146 60.1827 59.957 60.1217 59.7988 60.0093C59.6406 59.8969 59.5207 59.7385 59.4556 59.5557C58.1508 61.167 57.2526 63.0684 56.8366 65.0996C56.4206 67.1307 56.499 69.2321 57.0652 71.2267H72.3624V54.9437C71.4679 54.7522 70.5558 54.6552 69.641 54.6543V54.6543Z" fill="#767676"/>
<path opacity="0.2" d="M60.3401 60.1858H64.1396C64.3913 60.1851 64.6325 60.0848 64.8105 59.9068C64.9884 59.7288 65.0887 59.4876 65.0895 59.236V55.4902C62.8799 56.3146 60.9336 57.7197 59.4556 59.5574C59.5207 59.7403 59.6405 59.8986 59.7988 60.0111C59.957 60.1235 60.146 60.1845 60.3401 60.1858V60.1858Z" fill="#003067"/>
<path d="M69.6407 78.7883C67.4518 78.7883 65.3121 78.1393 63.4922 76.9232C61.6722 75.7072 60.2537 73.9788 59.416 71.9565C58.5784 69.9343 58.3592 67.7091 58.7862 65.5623C59.2132 63.4155 60.2672 61.4435 61.815 59.8958C63.3628 58.348 65.3347 57.294 67.4815 56.8669C69.6283 56.4399 71.8535 56.6591 73.8758 57.4968C75.898 58.3344 77.6264 59.7529 78.8425 61.5729C80.0585 63.3929 80.7076 65.5326 80.7076 67.7215C80.7075 70.6565 79.5415 73.4714 77.4661 75.5468C75.3907 77.6223 72.5758 78.7882 69.6407 78.7883V78.7883Z" fill="url(#paint4_linear)"/>
<path fill-rule="evenodd" clip-rule="evenodd" d="M74.7248 64.6513C74.4651 64.3919 74.1131 64.2461 73.746 64.2461C73.3789 64.2461 73.0268 64.3919 72.7672 64.6513L68.2042 69.211L66.556 67.5787C66.5175 67.5214 66.4739 67.4678 66.4259 67.4183C66.168 67.1599 65.8185 67.014 65.4534 67.0123C65.0884 67.0106 64.7375 67.1533 64.4772 67.4092C64.2169 67.6652 64.0684 68.0137 64.064 68.3787C64.0596 68.7437 64.1997 69.0956 64.4538 69.3578L64.4372 69.3744L67.2296 72.1413C67.4894 72.4007 67.8415 72.5464 68.2087 72.5464C68.5758 72.5464 68.928 72.4007 69.1878 72.1413L74.7207 66.6109L74.7248 66.6075C74.8534 66.4791 74.9553 66.3267 75.0249 66.1588C75.0945 65.991 75.1303 65.8111 75.1302 65.6294C75.1302 65.4478 75.0944 65.2679 75.0249 65.1C74.9553 64.9322 74.8533 64.7797 74.7248 64.6513Z" fill="#0078D4"/>
</g>
<defs>
<linearGradient id="paint0_linear" x1="47.422" y1="-15.0827" x2="51.4048" y2="130.685" gradientUnits="userSpaceOnUse">
<stop stop-color="#00ABDE"/>
<stop offset="1" stop-color="#007ED8"/>
</linearGradient>
<linearGradient id="paint1_linear" x1="23.5809" y1="32.3545" x2="72.3624" y2="32.3545" gradientUnits="userSpaceOnUse">
<stop stop-color="#008BF1"/>
<stop offset="0.22" stop-color="#0086EC"/>
<stop offset="0.49" stop-color="#0078DD"/>
<stop offset="0.79" stop-color="#0061C4"/>
<stop offset="1" stop-color="#004DAE"/>
</linearGradient>
<linearGradient id="paint2_linear" x1="58.4403" y1="60.1851" x2="58.4403" y2="46.8867" gradientUnits="userSpaceOnUse">
<stop stop-color="#004DAE"/>
<stop offset="0.21" stop-color="#0061C4"/>
<stop offset="0.51" stop-color="#0078DD"/>
<stop offset="0.78" stop-color="#0086EC"/>
<stop offset="1" stop-color="#008BF1"/>
</linearGradient>
<linearGradient id="paint3_linear" x1="343.216" y1="558.926" x2="432.735" y2="558.926" gradientUnits="userSpaceOnUse">
<stop stop-color="#008BF1"/>
<stop offset="0.22" stop-color="#0086EC"/>
<stop offset="0.49" stop-color="#0078DD"/>
<stop offset="0.79" stop-color="#0061C4"/>
<stop offset="1" stop-color="#004DAE"/>
</linearGradient>
<linearGradient id="paint4_linear" x1="69.6407" y1="77.9939" x2="69.6407" y2="57.1366" gradientUnits="userSpaceOnUse">
<stop stop-color="#F2F2F2"/>
<stop offset="0.44" stop-color="#FBFBFB"/>
<stop offset="1" stop-color="white"/>
</linearGradient>
<clipPath id="clip0">
<rect width="99.2799" height="99.28" fill="white" transform="translate(0 0.0703125)"/>
</clipPath>
</defs>
</svg>
