<?xml version="1.0" encoding="UTF-8"?>
<svg width="100px" height="100px" viewBox="0 0 100 100" version="1.1" xmlns="http://www.w3.org/2000/svg" xmlns:xlink="http://www.w3.org/1999/xlink">
    <!-- Generator: Sketch 52.6 (67491) - http://www.bohemiancoding.com/sketch -->
    <title>M365 SFA Generalist/introduction</title>
    <desc>Created with Sketch.</desc>
    <defs>
        <rect id="path-1" x="0" y="0" width="96" height="96" rx="48"></rect>
        <filter x="-9.3%" y="-9.5%" width="118.6%" height="119.0%" filterUnits="objectBoundingBox" id="filter-3">
            <feOffset dx="0" dy="2" in="SourceAlpha" result="shadowOffsetOuter1"></feOffset>
            <feColorMatrix values="0 0 0 0 0   0 0 0 0 0   0 0 0 0 0  0 0 0 0.100628397 0" type="matrix" in="shadowOffsetOuter1" result="shadowMatrixOuter1"></feColorMatrix>
            <feMerge>
                <feMergeNode in="shadowMatrixOuter1"></feMergeNode>
                <feMergeNode in="SourceGraphic"></feMergeNode>
            </feMerge>
        </filter>
        <path d="M41.0086454,32.4919922 L41.0086454,30.2361328 C41.7961493,30.8103544 42.7148901,31.0974609 43.7648954,31.0974609 C44.4266174,31.0974609 44.942042,30.9552749 45.3111844,30.6708984 C45.6803269,30.386522 45.8648954,29.9900416 45.8648954,29.4814453 C45.8648954,28.9564427 45.6365774,28.5517592 45.1799344,28.2673828 C44.7232915,27.9830064 44.0957588,27.8408203 43.2973173,27.8408203 L42.2063016,27.8408203 L42.2063016,25.8556641 L43.215286,25.8556641 C44.7465437,25.8556641 45.512161,25.3470754 45.512161,24.3298828 C45.512161,23.3728468 44.9242763,22.8943359 43.7484891,22.8943359 C42.9609852,22.8943359 42.1953679,23.1486303 41.4516141,23.6572266 L41.4516141,21.5408203 C42.2773995,21.1251932 43.2398899,20.9173828 44.3391141,20.9173828 C45.5422452,20.9173828 46.4787592,21.1880832 47.1486844,21.7294922 C47.8186097,22.2709011 48.1535673,22.9736285 48.1535673,23.8376953 C48.1535673,25.3744217 47.3742782,26.3369121 45.8156766,26.7251953 L45.8156766,26.7662109 C46.6469308,26.8701177 47.3031742,27.1722631 47.7844266,27.6726563 C48.265679,28.1730494 48.5063016,28.7869104 48.5063016,29.5142578 C48.5063016,30.6134821 48.1043525,31.4830046 47.3004423,32.1228516 C46.496532,32.7626985 45.3863868,33.0826172 43.9699735,33.0826172 C42.7559049,33.0826172 41.7688054,32.8857442 41.0086454,32.4919922 Z M58.8176298,28.9646484 C58.8176298,29.5443388 58.7164589,30.0857397 58.5141141,30.5888672 C58.3117694,31.0919947 58.0301316,31.5281232 57.6691923,31.8972656 C57.308253,32.2664081 56.8789604,32.5562489 56.3813016,32.7667969 C55.8836429,32.9773448 55.3395077,33.0826172 54.7488798,33.0826172 C54.0871577,33.0826172 53.4951714,32.9595715 52.9729032,32.7134766 C52.450635,32.4673816 52.0090378,32.1105492 51.6480985,31.6429688 C51.2871592,31.1753883 51.0109901,30.6025425 50.8195829,29.9244141 C50.6281757,29.2462857 50.5324735,28.477934 50.5324735,27.6193359 C50.5324735,26.6076121 50.6568863,25.6902385 50.9057157,24.8671875 C51.1545451,24.0441365 51.5100103,23.340042 51.9721219,22.7548828 C52.4342336,22.1697236 52.9934077,21.7171891 53.649661,21.3972656 C54.3059143,21.0773422 55.0441882,20.9173828 55.8645048,20.9173828 C56.7723218,20.9173828 57.4777835,21.0240224 57.980911,21.2373047 L57.980911,23.4029297 C57.3848143,23.0638655 56.7340395,22.8943359 56.0285673,22.8943359 C55.5910651,22.8943359 55.1945847,22.9791007 54.8391141,23.1486328 C54.4836436,23.3181649 54.1787638,23.5587875 53.9244657,23.8705078 C53.6701676,24.1822281 53.4705602,24.5582009 53.3256376,24.9984375 C53.180715,25.4386741 53.1027861,25.9294895 53.0918485,26.4708984 L53.1410673,26.4708984 C53.6988826,25.6998008 54.5219212,25.3142578 55.6102079,25.3142578 C56.0969291,25.3142578 56.537159,25.4017569 56.930911,25.5767578 C57.324663,25.7517587 57.6609877,25.9992172 57.9398954,26.3191406 C58.218803,26.6390641 58.4348165,27.0232399 58.5879423,27.4716797 C58.741068,27.9201194 58.8176298,28.4177707 58.8176298,28.9646484 Z M56.2828641,29.1287109 C56.2828641,27.8654234 55.7660724,27.2337891 54.7324735,27.2337891 C54.4973161,27.2337891 54.284037,27.2775386 54.0926298,27.3650391 C53.9012226,27.4525395 53.7371617,27.5755851 53.6004423,27.7341797 C53.4637228,27.8927742 53.3584504,28.080077 53.2846219,28.2960938 C53.2107935,28.5121105 53.1738798,28.7513659 53.1738798,29.0138672 C53.1738798,29.3037124 53.2121606,29.5744128 53.2887235,29.8259766 C53.3652864,30.0775403 53.4732931,30.2976553 53.6127469,30.4863281 C53.7522008,30.6750009 53.9176288,30.8240229 54.109036,30.9333984 C54.3004432,31.042774 54.5137223,31.0974609 54.7488798,31.0974609 C54.9840372,31.0974609 55.1959491,31.0496099 55.3846219,30.9539063 C55.5732948,30.8582026 55.7346213,30.7242196 55.8686063,30.5519531 C56.0025914,30.3796866 56.1051294,30.1718762 56.1762235,29.9285156 C56.2473176,29.685155 56.2828641,29.4185561 56.2828641,29.1287109 Z M60.540286,32.5740234 L60.540286,30.3591797 C61.3441963,30.8513696 62.2000471,31.0974609 63.1078641,31.0974609 C63.7914613,31.0974609 64.3260263,30.9347673 64.7115751,30.609375 C65.0971239,30.2839827 65.2898954,29.8423856 65.2898954,29.2845703 C65.2898954,28.1197207 64.4668567,27.5373047 62.8207548,27.5373047 C62.2137205,27.5373047 61.5137275,27.5837886 60.7207548,27.6767578 L61.1637235,21.1142578 L67.3898954,21.1142578 L67.3898954,23.2306641 L63.1406766,23.2306641 L62.9766141,25.5849609 C63.39771,25.5521483 63.7613782,25.5357422 64.0676298,25.5357422 C65.2762296,25.5357422 66.2223138,25.8529265 66.905911,26.4873047 C67.5895082,27.1216829 67.9313016,27.9747993 67.9313016,29.0466797 C67.9313016,30.2334044 67.5238838,31.2027306 66.709036,31.9546875 C65.8941882,32.7066444 64.7895117,33.0826172 63.3949735,33.0826172 C62.2629366,33.0826172 61.3113836,32.9130876 60.540286,32.5740234 Z" id="path-4"></path>
        <filter x="-1.9%" y="-4.1%" width="103.7%" height="116.4%" filterUnits="objectBoundingBox" id="filter-5">
            <feOffset dx="0" dy="1" in="SourceAlpha" result="shadowOffsetOuter1"></feOffset>
            <feColorMatrix values="0 0 0 0 0   0 0 0 0 0   0 0 0 0 0  0 0 0 0.0977411685 0" type="matrix" in="shadowOffsetOuter1"></feColorMatrix>
        </filter>
    </defs>
    <g id="Badges" stroke="none" stroke-width="1" fill="none" fill-rule="evenodd">
        <g id="M365-SFA-Generalist-1" transform="translate(-50.000000, -260.000000)">
            <g id="M365-SFA-Generalist/introduction" transform="translate(50.000000, 260.000000)">
                <g id="Mask" transform="translate(2.000000, 2.000000)">
                    <mask id="mask-2" fill="white">
                        <use xlink:href="#path-1"></use>
                    </mask>
                    <use id="BG" fill="#55A2FF" xlink:href="#path-1"></use>
                    <g id="Group-4" filter="url(#filter-3)" mask="url(#mask-2)">
                        <g transform="translate(48.816043, 58.500000) scale(1, -1) translate(-48.816043, -58.500000) translate(27.316043, 37.500000)">
                            <path d="M31.8694216,18.6666667 L10.6231405,18.6666667 C7.36891848,18.6666667 4.72139579,16.0498333 4.72139579,12.8333333 C4.72139579,9.61683333 7.36891848,7 10.6231405,7 L21.2462811,7 C22.5493863,7 23.606979,5.95466667 23.606979,4.66666667 C23.606979,3.37866667 22.5493863,2.33333333 21.2462811,2.33333333 L10.6231405,2.33333333 C4.7650687,2.33333333 0,7.04316667 0,12.8333333 C0,18.6235 4.7650687,23.3333333 10.6231405,23.3333333 L31.8694216,23.3333333 C35.1236436,23.3333333 37.7711663,25.9501667 37.7711663,29.1666667 C37.7711663,32.3831667 35.1236436,35 31.8694216,35 L4.72139579,35 C3.4171102,35 2.3606979,36.0453333 2.3606979,37.3333333 C2.3606979,38.6213333 3.4171102,39.6666667 4.72139579,39.6666667 L31.8694216,39.6666667 C37.7274934,39.6666667 42.4925621,34.9568333 42.4925621,29.1666667 C42.4925621,23.3765 37.7274934,18.6666667 31.8694216,18.6666667" id="Fill-100" fill="#C5CCCD"></path>
                            <path d="M9.44279158,37.3333333 C9.44279158,39.9105 7.32878662,42 4.72139579,42 C2.11400497,42 0,39.9105 0,37.3333333 C0,34.7561667 2.11400497,32.6666667 4.72139579,32.6666667 C7.32878662,32.6666667 9.44279158,34.7561667 9.44279158,37.3333333" id="Fill-101" fill="#546670"></path>
                            <path d="M25.9676769,4.66666667 C25.9676769,7.24383333 23.8536719,9.33333333 21.2462811,9.33333333 C18.6388902,9.33333333 16.5248853,7.24383333 16.5248853,4.66666667 C16.5248853,2.0895 18.6388902,0 21.2462811,0 C23.8536719,0 25.9676769,2.0895 25.9676769,4.66666667" id="Fill-102" fill="#546670"></path>
                            <path d="M25.9676769,4.66666667 C25.9676769,2.0895 23.8536719,0 21.2462811,0 L21.2462811,9.33333333 C23.8536719,9.33333333 25.9676769,7.24383333 25.9676769,4.66666667" id="Fill-106" fill="#30404D"></path>
                            <path d="M9.44279158,37.3333333 C9.44279158,34.7561667 7.32878662,32.6666667 4.72139579,32.6666667 L4.72139579,42 C7.32878662,42 9.44279158,39.9105 9.44279158,37.3333333" id="Fill-107" fill="#30404D"></path>
                        </g>
                    </g>
                    <g id="365" mask="url(#mask-2)">
                        <use fill="black" fill-opacity="1" filter="url(#filter-5)" xlink:href="#path-4"></use>
                        <use fill="#182A37" fill-rule="evenodd" xlink:href="#path-4"></use>
                    </g>
                    <g id="Group-7" mask="url(#mask-2)">
                        <g transform="translate(26.068698, 18.500000)">
                            <path d="M5.96870077,7.84615385 C4.87045983,7.84615385 3.97913384,6.96738462 3.97913384,5.88461538 C3.97913384,4.80184615 4.87045983,3.92307692 5.96870077,3.92307692 C7.06694171,3.92307692 7.95826769,4.80184615 7.95826769,5.88461538 C7.95826769,6.96738462 7.06694171,7.84615385 5.96870077,7.84615385 Z M5.96870077,0 C2.67729389,0 0,2.52253846 0,5.62373077 C0,11.1003462 4.78358207,16.3513846 4.98718109,16.5723846 C5.23852971,16.8450385 5.59466219,17 5.96870077,17 C6.34207616,17 6.69887183,16.8450385 6.94955726,16.5723846 C7.15381946,16.3513846 11.9374015,11.1003462 11.9374015,5.62373077 C11.9374015,2.52253846 9.26010765,0 5.96870077,0 Z" id="Fill-99" fill="#DF5142"></path>
                            <path d="M8.91127025,0.732307692 C7.58555549,0.0215769231 5.96870077,0.970961538 5.96870077,2.45846154 L5.96870077,3.92307692 C7.06694171,3.92307692 7.95826769,4.80184615 7.95826769,5.88461538 C7.95826769,6.96738462 7.06694171,7.84615385 5.96870077,7.84615385 L5.96870077,15.1005769 C5.96870077,15.8309231 5.19542242,16.3494231 4.5289175,16.0303462 L4.51300097,16.0218462 C4.77363424,16.3363462 4.95203207,16.5338077 4.98784427,16.5723846 C5.23852971,16.8450385 5.59466219,17 5.96870077,17 C6.34207616,17 6.69887183,16.8450385 6.94955726,16.5723846 C7.15381946,16.3513846 11.9374015,11.1003462 11.9374015,5.62373077 C11.9374015,3.53011538 10.7171338,1.7 8.91127025,0.732307692" id="Fill-103" fill="#B43F3A"></path>
                            <path d="M5.96870077,7.84615385 C4.86979664,7.84615385 3.97913384,6.96803846 3.97913384,5.88461538 C3.97913384,4.80119231 4.86979664,3.92307692 5.96870077,3.92307692 L5.96870077,3.26923077 C4.50371632,3.26923077 3.31594487,4.44026923 3.31594487,5.88461538 C3.31594487,7.32896154 4.50371632,8.5 5.96870077,8.5 L5.96870077,7.84615385" id="Fill-104" fill="#B43F3A"></path>
                            <path d="M5.96870077,3.92307692 C7.0676049,3.92307692 7.95826769,4.80119231 7.95826769,5.88461538 C7.95826769,6.96803846 7.0676049,7.84615385 5.96870077,7.84615385 L5.96870077,8.5 C7.43368521,8.5 8.62145666,7.32896154 8.62145666,5.88461538 C8.62145666,4.44026923 7.43368521,3.26923077 5.96870077,3.26923077 L5.96870077,3.92307692" id="Fill-105" fill="#DF5142"></path>
                        </g>
                    </g>
                </g>
                <g id="Azure-Border" stroke="#0078D4" stroke-width="4">
                    <rect x="2" y="2" width="96" height="96" rx="48"></rect>
                </g>
            </g>
        </g>
    </g>
</svg>