<?xml version="1.0" encoding="UTF-8"?>
<svg width="100px" height="100px" viewBox="0 0 100 100" version="1.1" xmlns="http://www.w3.org/2000/svg" xmlns:xlink="http://www.w3.org/1999/xlink">
    <!-- Generator: Sketch 53.2 (72643) - https://sketchapp.com -->
    <title>M365 Fundamentals/whats-in-m365</title>
    <desc>Created with Sketch.</desc>
    <defs>
        <rect id="path-1" x="0" y="0" width="96" height="96" rx="48"></rect>
        <filter x="-5.3%" y="-8.5%" width="110.7%" height="117.0%" filterUnits="objectBoundingBox" id="filter-3">
            <feOffset dx="0" dy="2" in="SourceAlpha" result="shadowOffsetOuter1"></feOffset>
            <feColorMatrix values="0 0 0 0 0   0 0 0 0 0   0 0 0 0 0  0 0 0 0.0964956975 0" type="matrix" in="shadowOffsetOuter1" result="shadowMatrixOuter1"></feColorMatrix>
            <feMerge>
                <feMergeNode in="shadowMatrixOuter1"></feMergeNode>
                <feMergeNode in="SourceGraphic"></feMergeNode>
            </feMerge>
        </filter>
        <filter x="-7.1%" y="-7.3%" width="114.3%" height="114.5%" filterUnits="objectBoundingBox" id="filter-4">
            <feOffset dx="0" dy="2" in="SourceAlpha" result="shadowOffsetOuter1"></feOffset>
            <feColorMatrix values="0 0 0 0 0   0 0 0 0 0   0 0 0 0 0  0 0 0 0.0951086957 0" type="matrix" in="shadowOffsetOuter1" result="shadowMatrixOuter1"></feColorMatrix>
            <feMerge>
                <feMergeNode in="shadowMatrixOuter1"></feMergeNode>
                <feMergeNode in="SourceGraphic"></feMergeNode>
            </feMerge>
        </filter>
        <path d="M36.3539455,51.2406572 L36.3539455,49.4025543 C36.9956137,49.8704374 37.7442154,50.1043754 38.599773,50.1043754 C39.1389526,50.1043754 39.558927,49.9885204 39.859709,49.7568069 C40.160491,49.5250933 40.3108797,49.2020361 40.3108797,48.7876253 C40.3108797,48.3598465 40.1248433,48.0301053 39.7527649,47.7983918 C39.3806864,47.5666783 38.8693647,47.4508232 38.2187844,47.4508232 L37.329811,47.4508232 L37.329811,45.8332927 L38.1519443,45.8332927 C39.3996325,45.8332927 40.0234673,45.4188882 40.0234673,44.5900667 C40.0234673,43.8102616 39.5444513,43.4203649 38.586405,43.4203649 C37.9447368,43.4203649 37.3209021,43.6275672 36.7148821,44.0419779 L36.7148821,42.3175032 C37.3877425,41.9788449 38.1719919,41.8095184 39.0676538,41.8095184 C40.0479802,41.8095184 40.8110638,42.0300885 41.3569274,42.4712354 C41.902791,42.9123823 42.1757187,43.4849735 42.1757187,44.1890261 C42.1757187,45.4411703 41.540744,46.2254197 40.2707757,46.5417978 L40.2707757,46.5752179 C40.9480921,46.6598824 41.4828076,46.9060743 41.8749382,47.313801 C42.2670688,47.7215277 42.4631311,48.2217095 42.4631311,48.8143614 C42.4631311,49.7100233 42.1356179,50.4185213 41.4805816,50.9398767 C40.8255453,51.4612321 39.9209849,51.721906 38.7668733,51.721906 C37.7776348,51.721906 36.9733336,51.5614913 36.3539455,51.2406572 Z M50.8649323,48.3665327 C50.8649323,48.8388718 50.782497,49.2800121 50.6176239,49.6899668 C50.4527509,50.0999215 50.2232688,50.4552845 49.9291709,50.7560664 C49.6350729,51.0568484 49.2852799,51.2930144 48.8797812,51.4645715 C48.4742825,51.6361287 48.0309143,51.721906 47.5496631,51.721906 C47.0104836,51.721906 46.5281256,51.6216468 46.1025748,51.4211255 C45.677024,51.2206042 45.3172051,50.9298526 45.0231071,50.5488621 C44.7290092,50.1678716 44.5039831,49.7011095 44.3480221,49.1485619 C44.1920611,48.5960143 44.1140817,47.9699515 44.1140817,47.270355 C44.1140817,46.4459895 44.2154549,45.6985018 44.4182042,45.0278694 C44.6209535,44.357237 44.9105911,43.7835319 45.2871256,43.3067367 C45.66366,42.8299416 46.1192822,42.4612107 46.6540057,42.200533 C47.1887292,41.9398553 47.7902841,41.8095184 48.4586885,41.8095184 C49.1983894,41.8095184 49.7732086,41.8964096 50.1831633,42.0701948 L50.1831633,43.8347735 C49.6974561,43.5584997 49.1671965,43.4203649 48.5923688,43.4203649 C48.2358864,43.4203649 47.9128291,43.4894323 47.6231872,43.6275692 C47.3335453,43.7657061 47.0851254,43.9617685 46.8779201,44.2157621 C46.6707147,44.4697558 46.5080721,44.7761032 46.3899873,45.1348136 C46.2719025,45.493524 46.208405,45.8934466 46.199493,46.3345935 L46.2395971,46.3345935 C46.694112,45.7062934 47.3647344,45.392148 48.2514842,45.392148 C48.6480708,45.392148 49.0067758,45.4634434 49.3276099,45.6060363 C49.648444,45.7486293 49.9224857,45.9502616 50.1497432,46.2109393 C50.3770007,46.471617 50.5530112,46.7846484 50.67778,47.1500428 C50.8025489,47.5154372 50.8649323,47.9209297 50.8649323,48.3665327 Z M48.7995731,48.5002129 C48.7995731,47.4708701 48.3784846,46.9562065 47.5362951,46.9562065 C47.3446858,46.9562065 47.1709033,46.9918542 47.0149423,47.0631506 C46.8589812,47.1344471 46.7253024,47.2347062 46.6139016,47.3639311 C46.5025009,47.4931559 46.4167236,47.6457727 46.3565672,47.8217858 C46.2964108,47.997799 46.2663331,48.1927473 46.2663331,48.4066367 C46.2663331,48.6428063 46.2975248,48.8633764 46.3599092,49.0683538 C46.4222937,49.2733311 46.5102989,49.4526836 46.6239277,49.6064166 C46.7375564,49.7601496 46.8723493,49.8815746 47.0283103,49.9706952 C47.1842713,50.0598158 47.3580539,50.1043754 47.5496631,50.1043754 C47.7412724,50.1043754 47.9139409,50.0653857 48.0676739,49.9874052 C48.2214069,49.9094247 48.3528578,49.8002536 48.4620305,49.6598887 C48.5712033,49.5195238 48.6547526,49.3501972 48.7126809,49.1519039 C48.7706093,48.9536106 48.7995731,48.7363824 48.7995731,48.5002129 Z M52.2685745,51.3074973 L52.2685745,49.5028145 C52.9236108,49.9038571 53.620969,50.1043754 54.3606698,50.1043754 C54.9176735,50.1043754 55.3532438,49.9718105 55.6673939,49.7066768 C55.9815439,49.441543 56.1386166,49.0817241 56.1386166,48.6272091 C56.1386166,47.6780748 55.4679943,47.2035148 54.1267295,47.2035148 C53.6321102,47.2035148 53.061747,47.2413905 52.4156228,47.317143 L52.7765593,41.9699346 L57.8497233,41.9699346 L57.8497233,43.6944093 L54.3874059,43.6944093 L54.2537257,45.6127203 C54.5968399,45.5859842 54.8931614,45.5726163 55.1426991,45.5726163 C56.1274815,45.5726163 56.898363,45.8310621 57.4553667,46.3479615 C58.0123704,46.8648609 58.290868,47.559991 58.290868,48.4333728 C58.290868,49.4003311 57.9588988,50.1901505 57.2949504,50.8028545 C56.6310021,51.4155585 55.7308977,51.721906 54.5946102,51.721906 C53.6722121,51.721906 52.8968747,51.5837711 52.2685745,51.3074973 Z" id="path-5"></path>
        <filter x="-2.3%" y="-5.0%" width="104.6%" height="120.2%" filterUnits="objectBoundingBox" id="filter-6">
            <feOffset dx="0" dy="1" in="SourceAlpha" result="shadowOffsetOuter1"></feOffset>
            <feColorMatrix values="0 0 0 0 0   0 0 0 0 0   0 0 0 0 0  0 0 0 0.0977411685 0" type="matrix" in="shadowOffsetOuter1"></feColorMatrix>
        </filter>
    </defs>
    <g id="Badges" stroke="none" stroke-width="1" fill="none" fill-rule="evenodd">
        <g id="M365-Fundamentals-1" transform="translate(-50.000000, -260.000000)">
            <g id="M365-Fundamentals/whats-in-m365" transform="translate(50.000000, 260.000000)">
                <g id="Mask" transform="translate(2.000000, 2.000000)">
                    <mask id="mask-2" fill="white">
                        <use xlink:href="#path-1"></use>
                    </mask>
                    <use id="BG" fill="#55A2FF" xlink:href="#path-1"></use>
                    <g id="Group-5" mask="url(#mask-2)" fill="#FFFFFF">
                        <g transform="translate(36.672887, 48.144970)">
                            <path d="M20.4626131,1.77635684e-15 C19.6550995,1.77635684e-15 19.00105,0.657265625 19.00105,1.46875 L19.00105,2.05625 C19.00105,2.35660937 18.9703572,2.64889062 18.9257795,2.9375 L13.154798,2.9375 C12.3472844,2.9375 11.6932349,3.5955 11.6932349,4.40625 C11.6932349,5.217 12.3472844,5.875 13.154798,5.875 L17.7039129,5.875 C16.7246656,7.29307812 15.3427578,8.45926562 14.0938522,9.323625 C13.428841,9.78334375 13.2600305,10.698375 13.7182305,11.3673906 C14.0025045,11.7801094 14.459243,12.002625 14.92402,12.002625 C15.2090248,12.002625 15.4984143,11.9181719 15.7512647,11.7433906 C19.7895633,8.94835937 21.9241761,5.59960937 21.9241761,2.05625 L21.9241761,1.46875 C21.9241761,0.657265625 21.2693958,1.77635684e-15 20.4626131,1.77635684e-15" id="Fill-1"></path>
                            <path d="M11.579233,32.8897187 C8.4894888,31.4444687 6.14002624,29.7319062 4.67407854,27.90625 L8.7701089,27.90625 C9.57689168,27.90625 10.2316719,27.24825 10.2316719,26.4375 C10.2316719,25.6260156 9.57689168,24.96875 8.7701089,24.96875 L3.1262833,24.96875 C2.99693497,24.4803906 2.92385682,23.9898281 2.92385682,23.5 C2.92385682,22.9925469 2.99766575,22.5034531 3.12043705,22.03125 L8.7701089,22.03125 C9.57689168,22.03125 10.2316719,21.37325 10.2316719,20.5625 C10.2316719,19.7510156 9.57689168,19.09375 8.7701089,19.09375 L4.66823228,19.09375 C5.57001667,17.9738281 6.69322785,17.0330938 7.7265529,16.3082656 C8.38864095,15.8434063 8.55014366,14.928375 8.08828975,14.2630312 C7.62643584,13.5984219 6.71588207,13.4353906 6.05379403,13.90025 C2.09368903,16.6783906 0.00073078151,19.9970313 0.00073078151,23.5 C0.00073078151,28.153 3.67436943,32.4336719 10.3456738,35.5532969 C13.7650005,37.1520312 16.275235,39.0797656 17.6878357,41.125 L13.154798,41.125 C12.3472844,41.125 11.6932349,41.7822656 11.6932349,42.59375 C11.6932349,43.4045 12.3472844,44.0625 13.154798,44.0625 L18.9228564,44.0625 C18.9688956,44.35625 19.00105,44.65 19.00105,44.94375 L19.00105,45.53125 C19.00105,46.342 19.6550995,47 20.4626131,47 C21.2693958,47 21.9241761,46.342 21.9241761,45.53125 L21.9241761,44.94375 C21.9241761,40.2900156 18.2505374,36.0093437 11.579233,32.8897187" id="Fill-2"></path>
                            <path d="M11.579233,11.4467031 C8.15990634,9.84796875 5.64894107,7.92023437 4.23707119,5.875 L8.7701089,5.875 C9.57689168,5.875 10.2316719,5.217 10.2316719,4.40625 C10.2316719,3.5955 9.57689168,2.9375 8.7701089,2.9375 L3.00205044,2.9375 C2.95601121,2.64375 2.92385682,2.35 2.92385682,2.05625 L2.92385682,1.46875 C2.92385682,0.657265625 2.26907659,-3.55271368e-15 1.4622938,-3.55271368e-15 C0.654780233,-3.55271368e-15 0.00073078151,0.657265625 0.00073078151,1.46875 L0.00073078151,2.05625 C0.00073078151,6.70998437 3.67436943,10.9906562 10.3456738,14.1102812 C13.4354181,15.5555312 15.7848806,17.2680937 17.2500975,19.09375 L13.154798,19.09375 C12.3472844,19.09375 11.6932349,19.7510156 11.6932349,20.5625 C11.6932349,21.37325 12.3472844,22.03125 13.154798,22.03125 L18.7986236,22.03125 C18.9279719,22.5196094 19.00105,23.0101719 19.00105,23.5 C19.00105,24.0074531 18.9272411,24.4965469 18.8052006,24.96875 L13.154798,24.96875 C12.3472844,24.96875 11.6932349,25.6260156 11.6932349,26.4375 C11.6932349,27.24825 12.3472844,27.90625 13.154798,27.90625 L17.2610593,27.90625 C16.3329667,29.0606875 15.1651779,30.027125 14.0938522,30.7688437 C13.428841,31.2285625 13.2607613,32.1435937 13.7182305,32.811875 C14.0025045,33.2245937 14.459243,33.4471094 14.92402,33.4471094 C15.2097556,33.4471094 15.4984143,33.3633906 15.7512647,33.1871406 C19.7895633,30.3935781 21.9241761,27.042625 21.9241761,23.5 C21.9241761,18.847 18.2505374,14.5663281 11.579233,11.4467031" id="Fill-3"></path>
                            <path d="M8.7701089,41.125 L4.22684025,41.125 C5.18197169,39.7421719 6.51784029,38.6009531 7.7265529,37.7520156 C8.38864095,37.2878906 8.55014366,36.372125 8.08828975,35.7075156 C7.62643584,35.0421719 6.71588207,34.8784062 6.05379403,35.344 C2.09368903,38.1221406 0.00073078151,41.44225 0.00073078151,44.94375 L0.00073078151,45.53125 C0.00073078151,46.342 0.654780233,47 1.4622938,47 C2.26907659,47 2.92385682,46.342 2.92385682,45.53125 L2.92385682,44.94375 C2.92385682,44.6433906 2.95381886,44.3511094 2.99912732,44.0625 L8.7701089,44.0625 C9.57689168,44.0625 10.2316719,43.4045 10.2316719,42.59375 C10.2316719,41.7822656 9.57689168,41.125 8.7701089,41.125" id="Fill-4"></path>
                        </g>
                    </g>
                    <g id="Group-7" mask="url(#mask-2)">
                        <g transform="translate(10.000000, 12.951116)">
                            <g id="Cloud" filter="url(#filter-3)" stroke-width="1" fill="none" fill-rule="evenodd" transform="translate(0.500000, 0.679150)">
                                <path d="M16.7566406,14.117625 C18.3785156,6.064175 25.4742188,0 33.984375,0 C41.5921875,0 48.0515625,4.853925 50.4984375,11.63485 C51.8859375,10.96275 53.4351563,10.575 55.078125,10.575 C60.9035156,10.575 65.625,15.309075 65.625,21.15 C65.625,21.31685 65.6074219,21.477825 65.6003906,21.642325 C71.0214844,23.171 75,28.151825 75,34.075 C75,41.213125 69.2285156,47 62.109375,47 L16.40625,47 C7.3453125,47 0,39.6351 0,30.55 C0,21.4649 7.3453125,14.1 16.40625,14.1 C16.5246094,14.1 16.6394531,14.115275 16.7566406,14.117625 Z" id="Fill-11" fill="#FFFFFF"></path>
                                <path d="M65.6993058,21.6777766 C65.7057556,21.5140977 65.593714,21.0258023 65.593714,20.8597851 C65.593714,17.3570572 63.8463672,14.6569487 61.4265876,12.7442441 C62.5854158,14.4792402 63.8500403,16.8628215 63.8500403,19.1718628 C63.8500403,19.9925955 63.7757693,20.4647107 63.7359301,21.0688382 C64.5055903,21.2515659 64.9317702,21.4439496 65.6993058,21.6777766 Z" id="Fill-12" fill="#C4CBCD" opacity="0.5"></path>
                                <path d="M61.6656321,47 C69.596731,47 74.7425208,41.5115727 74.9916267,34.4183976 C75.1573057,29.7086053 72.878166,25.8731689 69.3072553,23.4470562 C71.085073,26.1153054 71.8860272,29.1376855 71.2750126,32.7103858 C70.4207671,37.7038576 66.6277761,41.8106825 61.7596344,43.0356083 C59.0394441,43.7204748 56.4355817,43.4961424 54.1290013,42.6462908 C55.4250574,40.874184 56.199401,38.6902077 56.199401,36.3175074 C56.199401,32.7614243 54.4721096,29.6195846 51.8271211,27.6777448 C53.4216344,29.8949555 54.2065532,32.7448071 53.6930659,35.7952522 C52.9551482,40.1845697 49.4547392,43.7216617 45.11066,44.4682493 C44.2082384,44.6225519 43.3234422,44.6605341 42.4680216,44.5952522 C39.1156662,44.3364985 36.3508249,41.8498516 35.4178525,38.5869436 C35.1992973,37.820178 35.0488937,37.0344214 35.0488937,36.3175074 C35.0488937,35.8866469 35.0794444,35.464095 35.1311457,35.0474777 C35.3379506,33.2836795 35.9665907,31.651632 36.9183635,30.2593472 C35.5670811,30.8077151 34.1394219,31.2041543 32.6483111,31.4011869 C32.6682866,31.062908 32.6988373,30.727003 32.6988373,30.3827893 C32.6988373,24.8848665 30.0444487,20.0255193 25.971801,17 C28.4358351,20.3875371 29.68254,24.7353116 28.9786981,29.4023739 C27.9129475,36.4718101 22.2763373,42.1655786 15.2778695,43.2421365 C10.6576587,43.9531157 6.35353043,42.6937685 3,40.2047478 C5.99514684,44.3186944 10.8057122,47 16.2484428,47 L45.6241473,47 L61.6656321,47 Z" id="Fill-13" fill="#E6E6E6" opacity="0.5"></path>
                                <path d="M48.7052423,26 C50.1555744,23.3921538 50.6737224,20.2401073 51,17.1396923 C51.611693,11.32715 48.6243121,6.76702277 44.5050525,3.53994585 C46.6336381,6.49574072 47.6087325,9.61928205 47.6087325,13.6012308 C47.6087325,18.2861538 45.8509255,22.5311282 43,25.6909744 C43.7551222,25.5046154 44.538505,25.3961026 45.3478875,25.3961026 C46.5257878,25.3961026 47.652819,25.6154872 48.7052423,26 Z" id="Fill-14" fill="#E6E6E6" opacity="0.5"></path>
                            </g>
                            <circle id="Oval" fill="#FFFFFF" fill-rule="nonzero" cx="38" cy="29.1791501" r="18.5"></circle>
                        </g>
                    </g>
                    <g id="Group-31" filter="url(#filter-4)" mask="url(#mask-2)">
                        <g transform="translate(27.754814, 28.048884)">
                            <path d="M34.8813607,18.7168277 C34.8813607,27.1742815 28.0241956,34.0305958 19.5675926,34.0305958 C11.1109895,34.0305958 4.25382448,27.1742815 4.25382448,18.7168277 C4.25382448,10.2602246 11.1109895,3.40305958 19.5675926,3.40305958 C28.0241956,3.40305958 34.8813607,10.2602246 34.8813607,18.7168277" id="Fill-1290" fill="#C7E7F1" opacity="0.652232143"></path>
                            <path d="M7.65688406,19.5675926 C7.18896336,19.5675926 6.80611916,19.1873007 6.80611916,18.7168277 C6.80611916,11.6793005 12.5317669,5.95535427 19.5675926,5.95535427 C20.0355133,5.95535427 20.4183575,6.33564617 20.4183575,6.80611916 C20.4183575,7.27659215 20.0355133,7.65688406 19.5675926,7.65688406 C13.4676083,7.65688406 8.50764895,12.6185449 8.50764895,18.7168277 C8.50764895,19.1873007 8.12480475,19.5675926 7.65688406,19.5675926" id="Fill-1291" fill="#FFFFFE" opacity="0.652232143"></path>
                            <path d="M4.25382448,18.7168277 C4.25382448,10.2729861 11.1194972,3.40305958 19.5675926,3.40305958 C28.0071803,3.40305958 34.8813607,10.2729861 34.8813607,18.7168277 C34.8813607,27.1606693 28.0071803,34.0305958 19.5675926,34.0305958 C11.1194972,34.0305958 4.25382448,27.1606693 4.25382448,18.7168277 Z M41.1855286,37.9322036 L33.9455193,30.686239 C36.6509517,27.4397202 38.2844203,23.2658676 38.2844203,18.7168277 C38.2844203,8.39619875 29.8873708,0 19.5675926,0 C9.24781441,0 0.850764895,8.39619875 0.850764895,18.7168277 C0.850764895,29.0374566 9.24781441,37.4336554 19.5675926,37.4336554 C24.1191848,37.4336554 28.2879328,35.8010376 31.5378547,33.0922021 L38.7863716,40.3381667 L41.1855286,37.9322036 L41.1855286,37.9322036 Z" id="Fill-1292" fill="#30404D"></path>
                            <path d="M28.5516699,6.33224311 C30.3808144,8.85731332 31.4783011,11.9540975 31.4783011,15.3137681 C31.4783011,23.7712219 24.6211361,30.6275362 16.164533,30.6275362 C12.8040117,30.6275362 9.70722745,29.5326018 7.18045571,27.6983527 C9.96245692,31.529347 14.4715109,34.0305958 19.5675926,34.0305958 C28.0241956,34.0305958 34.8813607,27.1742815 34.8813607,18.7168277 C34.8813607,13.6190444 32.3801119,9.11594585 28.5516699,6.33224311" id="Fill-1293" fill="#ABDCEC" opacity="0.652232143"></path>
                            <path d="M16.9132061,37.2490394 C21.9582419,37.9483681 26.6884948,36.6186226 30.414845,33.9616838 C31.0869493,33.4810017 32.0057754,33.5601228 32.5928031,34.1445983 L37.5782854,39.1351852 L39.9859501,39.1351852 L30.3893221,29.5402587 C27.2755225,32.6532074 22.8345298,34.4355599 18.0021852,33.9514747 C10.8387448,33.2351306 5.04503583,27.443974 4.33039332,20.2839366 C3.84545733,15.448189 5.63206361,11.0054947 8.74586312,7.8933967 L6.33819847,5.48828434 C2.31408051,9.51665612 0.102091787,15.3682171 1.08047142,21.6834449 C2.32258816,29.7333823 8.84795491,36.1319851 16.9132061,37.2490394" id="Fill-1294" fill="#182A37"></path>
                            <path d="M54.7892592,46.9401023 C55.4698712,47.6198635 55.4698712,48.7335147 54.7892592,49.4141266 L50.26319,53.9384944 C49.5825781,54.6191063 48.4680761,54.6191063 47.7874642,53.9384944 L35.3918196,41.5394468 C34.7112077,40.8596856 34.7112077,39.7460344 35.3918196,39.0654225 L39.9178889,34.5410547 C40.5985008,33.8604428 41.7130028,33.8604428 42.3936147,34.5410547 L54.7892592,46.9401023" id="Fill-1296" fill="#DF5142"></path>
                            <path d="M54.9509046,47.1391813 L52.6708547,49.4175297 C52.007258,50.0819771 50.9352943,50.0819771 50.2716977,49.4175297 L39.9093812,39.0620194 C39.2457846,38.397572 38.1738208,38.397572 37.5102242,39.0620194 L35.2301743,41.3403678 C35.2301743,41.3548308 35.2301743,41.3624877 35.2301743,41.3769507 L47.7874642,53.9384944 C48.4680761,54.6191063 49.5825781,54.6191063 50.26319,53.9384944 L54.7892592,49.4141266 C55.4103176,48.7956206 55.4613635,47.8223455 54.9509046,47.1391813" id="Fill-1297" fill="#C2423D"></path>
                        </g>
                    </g>
                    <g id="365" mask="url(#mask-2)">
                        <use fill="black" fill-opacity="1" filter="url(#filter-6)" xlink:href="#path-5"></use>
                        <use fill="#182A37" fill-rule="evenodd" xlink:href="#path-5"></use>
                    </g>
                </g>
                <g id="Azure-Border" stroke="#0078D4" stroke-width="4">
                    <rect x="2" y="2" width="96" height="96" rx="48"></rect>
                </g>
            </g>
        </g>
    </g>
</svg>