<svg width="160" height="189" viewBox="0 0 160 189" fill="none" xmlns="http://www.w3.org/2000/svg">
<g clip-path="url(#clip0_944_779)">
<path d="M80.0334 188.987C83.1147 188.982 86.1351 188.128 88.7638 186.521L150.739 148.861C153.52 147.097 155.804 144.652 157.375 141.758C158.945 138.863 159.749 135.616 159.711 132.323V57.608C159.747 54.3156 158.942 51.0685 157.372 48.1744C155.802 45.2802 153.519 42.835 150.739 41.0702L88.7638 3.4101C86.1303 1.82491 83.1147 0.987305 80.041 0.987305C76.9672 0.987305 73.9516 1.82491 71.3182 3.4101L9.34307 41.0853C6.55997 42.8477 4.27342 45.2921 2.70046 48.1864C1.12749 51.0808 0.32029 54.3291 0.355473 57.6231V132.323C0.33694 135.106 0.911657 137.862 2.04135 140.405C3.17104 142.949 4.82977 145.223 6.90707 147.076V147.102L71.3182 186.536C73.9438 188.136 76.9586 188.984 80.0334 188.987V188.987ZM80.6812 7.93948C82.6331 7.93948 85.1103 9.1524 86.8201 10.1964L147.577 47.3907C151.329 49.6754 153.445 56.2715 153.445 61.0225L152.813 132.323C152.813 137.074 149.614 141.342 145.861 143.627L85.4659 180.008C82.0313 182.096 79.2409 182.096 75.8062 180.008L14.5982 143.536C10.8458 141.252 7.82738 137.059 7.82738 132.323V58.6753C7.85989 56.3101 8.46888 53.9886 9.60155 51.912C10.7342 49.8355 12.3563 48.0665 14.3273 46.7587L74.9035 10.1964C76.6132 9.1524 78.7294 7.93948 80.6812 7.93948Z" fill="#F2F1F0"/>
<path fill-rule="evenodd" clip-rule="evenodd" d="M87.9319 11.5201C85.561 10.0466 82.8252 9.26569 80.0337 9.26569C77.2422 9.26569 74.5064 10.0466 72.1355 11.5201L16.0008 45.8515C13.4748 47.4632 11.4025 49.6935 9.98047 52.331C8.55847 54.9685 7.83398 57.9255 7.87573 60.9216V129.025C7.83581 132.021 8.56109 134.977 9.98292 137.614C11.4048 140.251 13.4761 142.482 16.0008 144.095L72.1355 178.426C74.5063 179.9 77.2422 180.681 80.0337 180.681C82.8253 180.681 85.5612 179.9 87.9319 178.426L144.066 144.095C146.591 142.482 148.663 140.251 150.085 137.614C151.507 134.977 152.232 132.021 152.192 129.025V60.9216C152.23 57.9261 151.504 54.9703 150.082 52.3334C148.66 49.6965 146.59 47.4657 144.066 45.8515L87.9319 11.5201Z" fill="url(#paint0_linear_944_779)"/>
<path fill-rule="evenodd" clip-rule="evenodd" d="M80.0338 10.7416C81.717 10.7416 83.5997 11.6073 85.6665 12.8654L144.132 48.4078C146.024 49.6212 147.573 51.2981 148.634 53.2792C149.694 55.2602 150.231 57.4796 150.192 59.7263V130.205C150.231 132.452 149.694 134.671 148.634 136.652C147.573 138.633 146.024 140.31 144.132 141.523L85.6675 177.065L85.6665 177.066C83.9963 178.205 82.0512 178.876 80.0338 179.009C78.0163 178.876 76.0713 178.205 74.4011 177.066L74.4001 177.065L15.9378 141.525L15.9356 141.524C14.1473 140.56 12.6222 139.173 11.4938 137.484C10.5169 135.881 9.87578 133.666 9.87578 130.205V59.7263C9.83704 57.4796 10.3734 55.2603 11.434 53.2793C12.4945 51.2983 14.044 49.6214 15.9352 48.4079L74.392 12.8708L74.3961 12.8684C76.4799 11.6154 78.3401 10.7416 80.0338 10.7416ZM87.7463 9.44863L146.21 44.9899C148.689 46.56 150.723 48.7387 152.121 51.3184C153.518 53.8982 154.231 56.7928 154.192 59.7264V130.205C154.231 133.138 153.518 136.033 152.121 138.613C150.723 141.193 148.688 143.372 146.21 144.942L87.7453 180.483C85.4511 182.008 82.7857 182.881 80.0338 183.009C77.2819 182.881 74.6164 182.008 72.3222 180.483H72.3213L13.8575 144.941L13.855 144.94C11.5197 143.647 9.53644 141.802 8.07828 139.566C6.4837 136.713 5.72068 133.47 5.87578 130.205V59.7263C5.83672 56.7927 6.54983 53.898 7.94712 51.3183C9.34441 48.7385 11.3793 46.5597 13.8577 44.9897L72.3222 9.44798L72.3304 9.4431C74.421 8.18569 77.1289 6.74164 80.0338 6.74164C82.92 6.74164 85.6371 8.16472 87.7463 9.44858V9.44863Z" fill="#0078D4"/>
<path opacity="0.2" d="M139.965 133.013L80.4154 167.62L20.4764 133.014L80.0264 98.4073L139.965 133.013Z" fill="#003067"/>
<path d="M140.956 121.636L80.2334 156.924L19.1224 121.641L79.8444 86.3533L140.956 121.636Z" fill="#1B93EB"/>
<path d="M140.956 121.636L140.944 125.742L80.2224 161.03L80.2334 156.924L140.956 121.636Z" fill="#1F56A3"/>
<path d="M80.2335 156.924L80.2225 161.03L19.1105 125.747L19.1225 121.641L80.2335 156.924Z" fill="#0078D4"/>
<path d="M72.6934 140.839L70.6204 142.044L40.5974 124.719L42.6704 123.514L72.6934 140.839Z" fill="#1B93EB"/>
<path d="M72.6935 140.839L72.6885 142.677L70.6155 143.881L70.6205 142.044L72.6935 140.839Z" fill="#1F56A3"/>
<path d="M70.6205 142.044L70.6155 143.881L40.5925 126.556L40.5975 124.719L70.6205 142.044Z" fill="#0078D4"/>
<path d="M60.2064 136.034L62.2984 134.84L42.6704 123.514L40.5974 124.719L60.2064 136.034Z" fill="#50E6FF"/>
<path d="M60.2065 136.034V137.874L40.5925 126.556L40.5975 124.719L60.2065 136.034Z" fill="#53B1E0"/>
<path d="M89.9637 48.9514L86.9905 50.6792C88.3031 49.9165 90.1204 50.0241 92.1236 51.1806C92.9815 51.6834 93.7752 52.2882 94.4875 52.9819L97.4605 51.2542C96.7482 50.5605 95.9545 49.9556 95.0968 49.4529C93.0935 48.2963 91.2761 48.1887 89.9637 48.9514Z" fill="#E8E8E8"/>
<path d="M127.075 58.2682C126.271 57.7945 125.415 57.4177 124.523 57.1458C121.926 50.9041 117.368 45.1654 112.154 42.1553C108.083 39.8045 104.394 39.5855 101.73 41.134L98.7568 42.8617C101.421 41.3134 105.109 41.5322 109.181 43.8831C114.395 46.8932 118.953 52.6319 121.55 58.8735C122.442 59.1455 123.298 59.5223 124.102 59.996C130.401 63.633 135.479 72.454 135.459 79.6839C135.461 80.4732 135.391 81.2611 135.251 82.0378C135.235 82.1488 135.198 82.2556 135.183 82.3837C134.98 83.3081 134.641 84.1972 134.177 85.0217C134.124 85.1112 134.057 85.1837 134.005 85.2733C133.523 85.9859 132.888 86.582 132.146 87.0183L135.119 85.2905C135.861 84.8542 136.496 84.2581 136.978 83.5456C137.03 83.4559 137.097 83.3834 137.15 83.2939C137.615 82.4695 137.953 81.5803 138.156 80.6559C138.171 80.5278 138.209 80.421 138.224 80.3099C138.365 79.5333 138.434 78.7454 138.432 77.9561C138.452 70.7262 133.374 61.9052 127.075 58.2682Z" fill="#E8E8E8"/>
<path d="M109.181 43.8831C114.395 46.8932 118.953 52.6319 121.55 58.8735C122.442 59.1455 123.298 59.5223 124.102 59.996C130.401 63.633 135.479 72.454 135.458 79.6839C135.461 80.4732 135.392 81.2611 135.251 82.0378C135.235 82.1488 135.198 82.2556 135.183 82.3837C134.98 83.3081 134.641 84.1972 134.177 85.0217C134.125 85.1112 134.057 85.1837 134.005 85.2733C132.03 88.1392 128.289 88.7013 124.012 86.2323L91.3629 67.305C87.7273 64.7865 84.8738 59.6123 84.886 55.3051C84.899 50.7245 88.1448 48.8834 92.1238 51.1807C92.9816 51.6834 93.7753 52.2882 94.4876 52.9819C94.4734 52.7426 94.474 52.5204 94.4747 52.2897C94.5011 42.966 101.082 39.2071 109.181 43.8831Z" fill="white"/>
<path d="M82.0488 92.6156C82.2056 92.6686 82.3419 92.7692 82.4388 92.9034C82.5357 93.0377 82.5882 93.1987 82.5892 93.3643C82.5901 93.5298 82.5394 93.6915 82.444 93.8267C82.3487 93.962 82.2135 94.0642 82.0573 94.119C81.6548 94.3259 81.2089 94.4341 80.7564 94.4349C80.3039 94.4356 79.8576 94.3288 79.4545 94.1232C78.7189 93.6985 78.7152 93.0361 79.4387 92.6156C79.8428 92.4094 80.2901 92.3019 80.7437 92.3019C81.1974 92.3019 81.6447 92.4094 82.0488 92.6156V92.6156Z" fill="#50E6FF"/>
<path d="M130.241 118.729C130.332 118.76 130.41 118.818 130.465 118.896C130.521 118.973 130.551 119.066 130.552 119.161C130.552 119.256 130.523 119.349 130.468 119.427C130.414 119.505 130.336 119.564 130.246 119.596L125.664 122.259L74.2402 92.5689L78.4861 90.1015L78.8223 89.9061C79.0538 89.7878 79.3101 89.7261 79.5701 89.7261C79.8302 89.7261 80.0864 89.7878 80.318 89.9061L130.241 118.729ZM79.4545 94.1232C79.8577 94.3288 80.3039 94.4356 80.7564 94.4348C81.209 94.4341 81.6548 94.3258 82.0573 94.119C82.2135 94.0642 82.3487 93.962 82.4441 93.8267C82.5394 93.6914 82.5901 93.5298 82.5892 93.3643C82.5883 93.1987 82.5357 93.0376 82.4388 92.9034C82.342 92.7692 82.2056 92.6686 82.0488 92.6156C81.6447 92.4094 81.1975 92.3019 80.7438 92.3019C80.2901 92.3019 79.8429 92.4094 79.4388 92.6156C78.7153 93.0361 78.7189 93.6985 79.4545 94.1232" fill="#0078D4"/>
<path d="M74.2402 92.5689L125.664 122.259L91.5434 142.087C91.2411 142.24 90.9071 142.32 90.5683 142.32C90.2295 142.32 89.8955 142.24 89.5931 142.087L40.1257 113.527C40.0083 113.487 39.9062 113.411 39.8337 113.311C39.7612 113.21 39.7219 113.089 39.7212 112.965C39.7205 112.841 39.7585 112.719 39.8298 112.618C39.9012 112.516 40.0024 112.439 40.1195 112.398L74.2402 92.5689Z" fill="#F2F2F2"/>
<path d="M130.246 119.596L125.664 122.259L125.656 125.076L130.238 122.413C130.323 122.375 130.395 122.315 130.449 122.239C130.503 122.164 130.535 122.075 130.544 121.983L130.552 119.166C130.543 119.258 130.511 119.346 130.457 119.422C130.403 119.498 130.331 119.557 130.246 119.596V119.596Z" fill="#1F56A3"/>
<path d="M91.5434 142.087C91.2411 142.24 90.907 142.32 90.5682 142.32C90.2295 142.32 89.8954 142.24 89.5931 142.087L40.1258 113.527C40.0137 113.477 39.9172 113.398 39.846 113.298C39.7749 113.198 39.7318 113.081 39.7213 112.959L39.7131 115.776C39.7238 115.898 39.7669 116.016 39.838 116.116C39.9092 116.216 40.0057 116.295 40.1177 116.345L89.5852 144.905C89.8875 145.058 90.2216 145.137 90.5604 145.137C90.8992 145.137 91.2332 145.058 91.5355 144.905L125.656 125.076L125.664 122.259L91.5434 142.087Z" fill="#E8E8E8"/>
<path opacity="0.2" d="M108.565 112.386L74.2405 92.5693L49.3715 107.021L83.6965 126.838L113.892 109.29L108.565 112.386Z" fill="#767676"/>
<path opacity="0.2" d="M113.892 109.29L81.6885 90.6973L74.2405 92.5693L108.565 112.386L113.892 109.29Z" fill="#1F56A3"/>
<path opacity="0.2" d="M41.4714 104.181L41.5084 91.5503L83.4704 67.1643L125.708 91.5503L125.671 104.18L83.7094 128.566L41.4714 104.181Z" fill="white"/>
<path opacity="0.2" d="M45.4785 101.875L45.5015 93.8563L83.4775 71.7873L121.702 93.8563L121.679 101.875L83.7025 123.944L45.4785 101.875Z" fill="white"/>
<path d="M101.836 105.377L86.5331 96.5421L99.4451 89.0384L99.4548 85.6304L83.5962 94.8465L67.625 85.6255L67.6153 89.0335L80.6495 96.5588L65.4658 105.383L49.4946 96.1617L49.4849 99.5697L65.4561 108.791L67.7414 107.463L67.7339 110.106L83.6962 119.322L99.5548 110.106L99.5623 107.478L101.827 108.785L117.685 99.5693L117.695 96.1613L101.836 105.377ZM83.7059 115.914L68.4027 107.078L81.3147 99.5747L81.3222 96.9472L83.5865 98.2545L85.8718 96.9264L85.8643 99.5696L98.8898 107.09L83.7059 115.914Z" fill="#1F56A3"/>
<path d="M99.4545 85.6303L83.4835 76.4093L67.6255 85.6253L83.5965 94.8463L99.4545 85.6303Z" fill="#C3F1FF"/>
<path d="M101.733 86.9453L85.8745 96.1613L101.837 105.377L117.695 96.1613L101.733 86.9453Z" fill="#C3F1FF"/>
<path d="M65.3535 86.9453L49.4945 96.1613L65.4655 105.382L81.3245 96.1663L65.3535 86.9453Z" fill="#C3F1FF"/>
<path d="M67.7435 106.698L83.7055 115.913L99.5645 106.697L83.6025 97.4813L67.7435 106.698Z" fill="#C3F1FF"/>
<path opacity="0.2" d="M94.7849 137.132C95.0283 137.353 94.97 137.67 94.652 137.855L94.3359 138.039C93.9466 138.228 93.4984 138.257 93.0883 138.118L92.1913 137.787C92.0832 137.759 91.9704 137.756 91.861 137.778L91.1338 137.954C91.0324 137.97 90.9404 138.022 90.8757 138.102L90.6501 138.704C90.542 138.86 90.3946 138.984 90.2229 139.063C90.0513 139.143 89.8615 139.176 89.673 139.159H89.2264C88.9776 139.16 88.7326 139.097 88.5145 138.978C88.3968 138.919 88.3018 138.823 88.2442 138.704L88.0081 138.102C87.9831 138.063 87.9479 138.031 87.9062 138.011C87.8692 137.989 87.8293 137.972 87.7877 137.962L87.053 137.787C86.9347 137.757 86.8109 137.757 86.6926 137.787L85.7974 138.117C85.387 138.256 84.9386 138.227 84.549 138.038L84.2327 137.855C83.9126 137.67 83.8508 137.353 84.0916 137.132L84.6592 136.613C84.6821 136.587 84.6959 136.554 84.6984 136.519C84.701 136.485 84.6921 136.45 84.6731 136.421L84.3649 136.001C84.342 135.962 84.3086 135.931 84.2687 135.911C84.2191 135.882 84.1651 135.861 84.1088 135.851L83.0702 135.717C82.9037 135.696 82.7428 135.643 82.5964 135.561C82.5135 135.525 82.4411 135.468 82.3862 135.396C82.3313 135.324 82.2956 135.239 82.2826 135.15L82.2811 134.891C82.2796 134.63 82.6217 134.381 83.0624 134.323L84.0994 134.19C84.1919 134.176 84.2769 134.131 84.3408 134.063L84.6424 133.639C84.6665 133.609 84.6795 133.571 84.6793 133.533C84.6791 133.495 84.6656 133.457 84.6412 133.428L84.0659 132.909C83.8226 132.689 83.8808 132.371 84.1988 132.186L84.515 132.003C84.9042 131.813 85.3524 131.785 85.7625 131.923L86.6595 132.255C86.7676 132.282 86.8805 132.285 86.9899 132.263L87.717 132.087C87.8184 132.072 87.9105 132.019 87.9752 131.94L88.2008 131.337C88.3089 131.182 88.4563 131.058 88.6279 130.978C88.7996 130.898 88.9893 130.865 89.1778 130.883H89.6245C89.8732 130.882 90.1182 130.944 90.3363 131.064C90.454 131.123 90.549 131.219 90.6067 131.337L90.8409 131.938C90.8666 131.978 90.9024 132.01 90.9446 132.031C90.9818 132.053 91.0225 132.069 91.065 132.079L91.796 132.254C91.9148 132.284 92.0392 132.284 92.1582 132.255L93.0553 131.923C93.4653 131.786 93.9129 131.815 94.3019 132.004L94.6182 132.186C94.9382 132.371 95.0001 132.688 94.7592 132.909L94.1916 133.429C94.1687 133.455 94.1549 133.488 94.1524 133.522C94.1499 133.557 94.1588 133.591 94.1777 133.62L94.486 134.041C94.5088 134.079 94.5422 134.111 94.5822 134.131C94.631 134.16 94.6845 134.18 94.7402 134.19L95.7806 134.324C95.9473 134.345 96.1082 134.398 96.2545 134.481C96.3374 134.517 96.4098 134.574 96.4649 134.645C96.5201 134.717 96.5563 134.801 96.5702 134.891L96.5697 135.151C96.5712 135.412 96.2292 135.66 95.7885 135.718L94.7496 135.851C94.6578 135.866 94.5736 135.911 94.5101 135.979L94.2084 136.403C94.1841 136.433 94.1711 136.47 94.1717 136.508C94.1722 136.547 94.1863 136.584 94.2114 136.613L94.7849 137.132ZM87.8513 135.935C88.3407 136.184 88.8818 136.313 89.4307 136.313C89.9795 136.313 90.5206 136.183 91.0098 135.934C91.1998 135.868 91.3643 135.744 91.4804 135.579C91.5964 135.415 91.6582 135.218 91.657 135.017C91.6559 134.815 91.5919 134.619 91.474 134.456C91.3562 134.293 91.1903 134.17 90.9995 134.106C90.5105 133.858 89.9697 133.728 89.4212 133.728C88.8727 133.728 88.3319 133.858 87.8429 134.106C87.6526 134.172 87.4878 134.296 87.3715 134.461C87.2552 134.625 87.1931 134.822 87.194 135.024C87.195 135.225 87.2588 135.421 87.3767 135.585C87.4945 135.748 87.6604 135.871 87.8513 135.935" fill="#767676"/>
<path d="M87.1891 131.351L87.1941 129.585C87.2122 129.39 87.2818 129.203 87.3958 129.043C87.5098 128.883 87.6641 128.756 87.843 128.676C88.332 128.427 88.8728 128.298 89.4213 128.298C89.9698 128.298 90.5105 128.427 90.9996 128.676C91.1812 128.757 91.338 128.885 91.4536 129.046C91.5692 129.208 91.6395 129.398 91.6571 129.596L91.6521 131.351H87.1891Z" fill="url(#paint1_linear_944_779)"/>
<path d="M94.7849 131.702C95.0282 131.923 94.9699 132.24 94.652 132.425L94.3358 132.609C93.9466 132.798 93.4984 132.826 93.0883 132.688L92.1913 132.356C92.0831 132.329 91.9703 132.326 91.8609 132.348L91.1337 132.524C91.0324 132.539 90.9404 132.592 90.8756 132.672L90.65 133.274C90.5419 133.429 90.3945 133.553 90.2229 133.633C90.0512 133.713 89.8615 133.746 89.673 133.728H89.2263C88.9775 133.729 88.7325 133.667 88.5144 133.547C88.3967 133.488 88.3017 133.392 88.2441 133.274L88.0079 132.672C87.983 132.632 87.9478 132.601 87.9061 132.58C87.8691 132.558 87.8292 132.542 87.7876 132.531L87.0528 132.356C86.9345 132.327 86.8108 132.327 86.6925 132.356L85.7973 132.687C85.3869 132.825 84.9385 132.797 84.5489 132.608L84.2326 132.425C83.9125 132.24 83.8506 131.923 84.0915 131.702L84.6591 131.182C84.682 131.156 84.6958 131.124 84.6983 131.089C84.7008 131.055 84.6919 131.02 84.673 130.991L84.3647 130.57C84.3418 130.532 84.3085 130.501 84.2685 130.48C84.219 130.451 84.165 130.431 84.1087 130.42L83.0701 130.287C82.9035 130.266 82.7426 130.213 82.5963 130.13C82.5134 130.094 82.441 130.037 82.3861 129.966C82.3312 129.894 82.2955 129.809 82.2825 129.719L82.281 129.461C82.2795 129.2 82.6216 128.951 83.0623 128.893L84.0993 128.759C84.1917 128.745 84.2768 128.701 84.3406 128.632L84.6423 128.208C84.6664 128.178 84.6794 128.141 84.6792 128.103C84.6789 128.064 84.6655 128.027 84.6411 127.997L84.0658 127.479C83.8225 127.258 83.8807 126.941 84.1987 126.756L84.5148 126.572C84.9041 126.383 85.3523 126.354 85.7624 126.493L86.6594 126.824C86.7675 126.852 86.8804 126.855 86.9898 126.833L87.7169 126.657C87.8183 126.641 87.9103 126.589 87.9751 126.509L88.2006 125.907C88.3087 125.752 88.4561 125.628 88.6278 125.548C88.7994 125.468 88.9892 125.435 89.1777 125.453H89.6243C89.8731 125.451 90.1181 125.514 90.3362 125.633C90.4539 125.692 90.5489 125.789 90.6066 125.907L90.8408 126.508C90.8665 126.548 90.9023 126.579 90.9445 126.6C90.9817 126.623 91.0224 126.639 91.0649 126.648L91.7959 126.823C91.9147 126.854 92.0391 126.854 92.1581 126.824L93.0552 126.493C93.4652 126.355 93.9128 126.384 94.3017 126.573L94.618 126.756C94.9381 126.941 95 127.258 94.7591 127.479L94.1915 127.998C94.1686 128.024 94.1548 128.057 94.1523 128.092C94.1498 128.126 94.1586 128.161 94.1776 128.19L94.4858 128.61C94.5087 128.649 94.5421 128.68 94.5821 128.701C94.6309 128.729 94.6844 128.749 94.7401 128.759L95.7805 128.894C95.9471 128.915 96.1081 128.968 96.2544 129.05C96.3373 129.086 96.4096 129.143 96.4648 129.215C96.52 129.287 96.5562 129.371 96.57 129.46L96.5696 129.72C96.5711 129.981 96.2291 130.23 95.7884 130.288L94.7494 130.42C94.6577 130.436 94.5735 130.481 94.5099 130.549L94.2083 130.973C94.184 131.002 94.171 131.04 94.1716 131.078C94.1721 131.116 94.1862 131.153 94.2113 131.182L94.7849 131.702ZM87.8513 130.505C88.3406 130.754 88.8818 130.883 89.4306 130.883C89.9795 130.883 90.5205 130.753 91.0097 130.504C91.1998 130.437 91.3643 130.313 91.4803 130.149C91.5963 129.984 91.6581 129.787 91.657 129.586C91.6558 129.385 91.5919 129.189 91.474 129.026C91.3561 128.862 91.1902 128.74 90.9994 128.676C90.5104 128.427 89.9697 128.298 89.4212 128.298C88.8727 128.298 88.3319 128.427 87.8429 128.676C87.6526 128.742 87.4878 128.866 87.3714 129.031C87.2551 129.195 87.1931 129.392 87.194 129.593C87.1949 129.795 87.2588 129.991 87.3766 130.155C87.4944 130.318 87.6604 130.441 87.8513 130.505" fill="#1B93EB"/>
<path d="M94.9007 127.221C94.898 127.242 94.8937 127.261 94.8878 127.281L94.8767 127.313C94.868 127.333 94.8578 127.353 94.846 127.372C94.8405 127.381 94.8359 127.39 94.8295 127.399C94.8091 127.428 94.7857 127.454 94.7598 127.478L94.7593 127.479L94.1917 127.998C94.1789 128.011 94.1692 128.026 94.1635 128.043L94.1593 128.062C94.1559 128.074 94.1537 128.087 94.1529 128.1C94.1499 128.132 94.1588 128.164 94.1778 128.19L94.486 128.61C94.5089 128.649 94.5423 128.68 94.5823 128.701C94.6311 128.729 94.6846 128.749 94.7403 128.759L94.9014 128.78L94.906 127.175L94.9043 127.19C94.9037 127.201 94.902 127.211 94.9007 127.221Z" fill="#0078D4"/>
<path d="M96.5547 129.817C96.493 129.966 96.3768 130.086 96.2298 130.152C96.1721 130.181 96.1122 130.206 96.0507 130.226C95.9655 130.255 95.8777 130.276 95.7885 130.288L94.9159 130.399L94.8968 130.402L94.7496 130.42C94.6578 130.436 94.5737 130.481 94.5101 130.549L94.2085 130.973C94.1842 131.002 94.1712 131.04 94.1717 131.078C94.1723 131.116 94.1863 131.153 94.2115 131.182L94.7849 131.702C95.0283 131.923 94.97 132.24 94.652 132.425L94.3359 132.609C94.0323 132.759 93.6891 132.809 93.3551 132.753L93.3195 132.747C93.2409 132.734 93.1635 132.714 93.0883 132.688L92.1913 132.356C92.1726 132.351 92.1535 132.347 92.1343 132.344C92.0987 132.338 92.0627 132.335 92.0266 132.334C91.971 132.331 91.9152 132.335 91.8609 132.348L91.1337 132.524C91.1247 132.526 91.1163 132.529 91.1074 132.532C91.0161 132.55 90.934 132.599 90.8755 132.672L90.65 133.274C90.601 133.382 90.5193 133.471 90.4165 133.53C90.3344 133.581 90.2463 133.622 90.1542 133.652C89.9988 133.703 89.8364 133.728 89.6729 133.728H89.2263C89.1098 133.728 88.9939 133.714 88.8807 133.686C88.8087 133.67 88.7381 133.649 88.6694 133.622C88.616 133.601 88.5642 133.576 88.5144 133.547C88.3967 133.488 88.3017 133.392 88.244 133.274L88.0079 132.672C87.983 132.632 87.9477 132.601 87.9061 132.58C87.8691 132.558 87.8292 132.542 87.7876 132.531L87.4202 132.444L87.0528 132.356C87.023 132.348 86.9925 132.342 86.9616 132.339C86.9278 132.336 86.8939 132.334 86.8599 132.334C86.828 132.335 86.7962 132.337 86.7646 132.341C86.74 132.343 86.7159 132.349 86.6925 132.356L85.7973 132.687C85.7184 132.715 85.6371 132.735 85.5544 132.748L85.5174 132.754C85.4331 132.766 85.348 132.772 85.2628 132.771L85.2237 132.77C85.1358 132.769 85.0481 132.761 84.9614 132.746L84.9491 132.743C84.809 132.721 84.6737 132.675 84.5489 132.608L84.2326 132.425C83.9125 132.24 83.8507 131.923 84.0916 131.702L84.6592 131.182C84.6751 131.164 84.6866 131.143 84.6929 131.119C84.6992 131.096 84.7 131.071 84.6953 131.048L84.6931 131.032C84.6896 131.017 84.6829 131.003 84.6733 130.992L84.6731 130.991L84.671 130.988L84.3648 130.57C84.3419 130.532 84.3086 130.501 84.2686 130.48C84.2191 130.451 84.165 130.431 84.1087 130.42L83.0702 130.287C82.9288 130.267 82.7917 130.225 82.6642 130.161C82.6423 130.15 82.6167 130.142 82.5964 130.131C82.5088 130.082 82.4313 130.018 82.368 129.94C82.3155 129.878 82.2854 129.8 82.2825 129.719L82.2689 132.123C82.282 132.213 82.3176 132.297 82.3726 132.369C82.4275 132.441 82.4998 132.498 82.5827 132.534C82.7291 132.617 82.89 132.67 83.0566 132.691L83.9358 132.804L83.9312 134.409C83.9377 134.499 83.9677 134.584 84.0183 134.658C84.0689 134.732 84.1381 134.791 84.219 134.829L84.5353 135.011C84.9249 135.201 85.3733 135.229 85.7838 135.091L86.679 134.76C86.7973 134.731 86.921 134.731 87.0393 134.76L87.774 134.935C87.8156 134.946 87.8555 134.962 87.8925 134.984C87.9342 135.005 87.9694 135.036 87.9944 135.076L88.2305 135.678C88.2881 135.796 88.3831 135.892 88.5009 135.951C88.719 136.071 88.9639 136.133 89.2127 136.132H89.6594C89.8479 136.15 90.0376 136.117 90.2092 136.037C90.3809 135.957 90.5283 135.833 90.6364 135.678L90.862 135.076C90.9267 134.996 91.0187 134.943 91.12 134.928L91.8473 134.752C91.9567 134.73 92.0695 134.733 92.1776 134.76L93.0747 135.092C93.4848 135.23 93.933 135.202 94.3222 135.012L94.6384 134.829C94.7177 134.791 94.7857 134.733 94.8354 134.66C94.8851 134.588 94.9148 134.503 94.9213 134.416L94.9259 132.8L95.7748 132.692C96.2155 132.634 96.5575 132.385 96.5561 132.124L96.5697 129.72C96.5698 129.753 96.5647 129.786 96.5547 129.817V129.817Z" fill="#0078D4"/>
<path d="M84.0994 128.759C84.1918 128.745 84.2769 128.7 84.3407 128.632L84.6424 128.208C84.6672 128.177 84.6801 128.138 84.6786 128.099C84.6779 128.085 84.6758 128.072 84.6721 128.06L84.6685 128.041C84.6628 128.025 84.6534 128.01 84.6412 127.997L84.0659 127.479C84.0393 127.454 84.0153 127.427 83.9943 127.398C83.9878 127.389 83.9832 127.38 83.9775 127.371C83.9655 127.352 83.9551 127.332 83.9463 127.312C83.9417 127.301 83.9383 127.29 83.9348 127.279C83.9288 127.26 83.9244 127.241 83.9216 127.221C83.92 127.21 83.9184 127.199 83.9179 127.188C83.9175 127.181 83.9158 127.175 83.9159 127.169L83.9113 128.784L84.0994 128.759Z" fill="#0078D4"/>
<path d="M108.957 125.239L108.952 126.87C108.905 127.373 108.726 127.854 108.432 128.265C108.138 128.677 107.741 129.002 107.28 129.21C106.022 129.85 104.631 130.183 103.22 130.183C101.808 130.183 100.417 129.85 99.1595 129.21C98.6906 129.002 98.2858 128.672 97.9871 128.255C97.6884 127.837 97.5067 127.348 97.4606 126.837L97.4652 125.206C97.5113 125.717 97.6931 126.207 97.9917 126.624C98.2904 127.041 98.6952 127.371 99.1641 127.58C100.422 128.219 101.813 128.553 103.224 128.553C104.635 128.553 106.027 128.219 107.284 127.58C107.745 127.372 108.143 127.046 108.437 126.635C108.73 126.224 108.91 125.742 108.957 125.239Z" fill="#E8E8E8"/>
<path d="M107.264 122.872C109.512 124.17 109.524 126.278 107.284 127.58C106.027 128.219 104.635 128.553 103.224 128.553C101.813 128.553 100.422 128.219 99.1641 127.58C96.9104 126.278 96.8985 124.17 99.1313 122.872C100.391 122.231 101.784 121.896 103.198 121.896C104.611 121.896 106.005 122.231 107.264 122.872V122.872Z" fill="white"/>
<path d="M106.418 125.174C106.458 125.192 106.492 125.22 106.519 125.255C106.546 125.289 106.563 125.33 106.571 125.373C106.585 125.543 106.362 125.684 106.076 125.692L101.081 125.829C100.947 125.836 100.813 125.808 100.693 125.748C100.649 125.728 100.61 125.698 100.581 125.659C100.552 125.62 100.534 125.574 100.529 125.525L100.522 124.35C100.521 124.184 100.757 124.047 101.044 124.047C101.174 124.044 101.303 124.074 101.418 124.136C101.46 124.154 101.497 124.184 101.523 124.222C101.55 124.26 101.566 124.304 101.57 124.35L101.575 125.208L106.022 125.087C106.16 125.079 106.297 125.109 106.418 125.174V125.174Z" fill="#0078D4"/>
</g>
<defs>
<linearGradient id="paint0_linear_944_779" x1="80.0339" y1="9.26569" x2="80.0339" y2="180.681" gradientUnits="userSpaceOnUse">
<stop stop-color="#00ABDE"/>
<stop offset="1" stop-color="#007ED8"/>
</linearGradient>
<linearGradient id="paint1_linear_944_779" x1="89.4231" y1="131.351" x2="89.4231" y2="128.298" gradientUnits="userSpaceOnUse">
<stop stop-color="#F0F0F0" stop-opacity="0"/>
<stop offset="1" stop-color="#F0F0F0" stop-opacity="0.5"/>
</linearGradient>
<clipPath id="clip0_944_779">
<rect width="159.356" height="188" fill="white" transform="translate(0.355469 0.987305)"/>
</clipPath>
</defs>
</svg>
