<svg width="103" height="103" viewBox="0 0 103 103" fill="none" xmlns="http://www.w3.org/2000/svg">
<path d="M51.4814 98.4424C25.6314 98.4424 4.67139 77.4924 4.67139 51.6324C4.67139 25.7724 25.6314 4.82245 51.4814 4.82245C77.3314 4.82245 98.2914 25.7824 98.2914 51.6324C98.2914 77.4824 77.3314 98.4424 51.4814 98.4424Z" fill="url(#paint0_linear_707_16975)"/>
<path fill-rule="evenodd" clip-rule="evenodd" d="M97.3813 51.6326C97.3813 76.9826 76.8313 97.5325 51.4813 97.5325C26.1313 97.5325 5.58131 76.9826 5.58131 51.6326C5.58131 26.2826 26.1313 5.73256 51.4813 5.73256C76.8313 5.73256 97.3813 26.2826 97.3813 51.6326ZM51.4813 1.99255C78.9013 1.99255 101.121 24.2126 101.121 51.6326C101.121 79.0526 78.8913 101.273 51.4813 101.273C24.0613 101.273 1.84131 79.0426 1.84131 51.6326C1.84131 24.2126 24.0613 1.99255 51.4813 1.99255Z" fill="#F2F1F0"/>
<path fill-rule="evenodd" clip-rule="evenodd" d="M94.5714 51.6324C94.5714 75.4324 75.2814 94.7224 51.4814 94.7224C27.6814 94.7224 8.39137 75.4324 8.39137 51.6324C8.39137 27.8324 27.6814 8.54245 51.4814 8.54245C75.2814 8.54245 94.5714 27.8324 94.5714 51.6324ZM51.4814 4.80244C77.3414 4.80244 98.3114 25.7724 98.3114 51.6324C98.3114 77.4924 77.3414 98.4625 51.4814 98.4625C25.6214 98.4625 4.65137 77.4924 4.65137 51.6324C4.65137 25.7724 25.6114 4.80244 51.4814 4.80244Z" fill="url(#paint1_linear_707_16975)"/>
<path d="M26.5113 66.8196C24.1768 66.8221 21.9286 65.939 20.2196 64.3487C18.5105 62.7584 17.4678 60.5792 17.3025 58.2506C17.1371 55.922 17.8616 53.6172 19.3288 51.8014C20.796 49.9856 22.897 48.7938 25.2085 48.4664C24.8335 46.9765 24.6408 45.4465 24.6345 43.9101C24.6388 39.791 26.0192 35.7918 28.5563 32.5468C31.0935 29.3018 34.6417 26.997 38.6381 25.9992C42.6346 25.0014 46.8499 25.3675 50.6146 27.0391C54.3793 28.7107 57.4777 31.5922 59.4176 35.2259C61.0116 34.4545 62.7585 34.0527 64.5293 34.0503C67.5932 34.0551 70.5304 35.2739 72.6978 37.4395C74.8652 39.6052 76.0865 42.5415 76.0937 45.6054C76.0862 46.5637 75.9672 47.5175 75.7387 48.4482C76.0866 48.4105 76.4361 48.3954 76.7861 48.4028C77.995 48.3895 79.1944 48.6167 80.3146 49.0716C81.4348 49.5264 82.4535 50.1997 83.3109 51.0521C84.1684 51.9045 84.8482 52.9189 85.3097 54.0364C85.7712 55.1539 86.0055 56.3519 85.9994 57.5609C85.9969 60.0124 85.0212 62.3629 83.2869 64.0956C81.5526 65.8282 79.2011 66.8013 76.7496 66.8013L26.5113 66.8196Z" fill="url(#paint2_linear_707_16975)"/>
<path opacity="0.6" d="M26.5118 66.8196C24.1773 66.8221 21.9291 65.939 20.2201 64.3487C18.511 62.7584 17.4683 60.5792 17.3029 58.2506C17.1376 55.922 17.8621 53.6172 19.3293 51.8014C20.7965 49.9856 22.8975 48.7938 25.2089 48.4664C24.834 46.9765 24.6413 45.4465 24.6349 43.9101C24.6393 39.791 26.0196 35.7918 28.5568 32.5468C31.0939 29.3018 34.6422 26.997 38.6386 25.9992C42.6351 25.0014 46.8504 25.3675 50.6151 27.0391C54.3798 28.7107 57.4782 31.5922 59.4181 35.2259C61.0121 34.4545 62.759 34.0527 64.5298 34.0503C67.5937 34.0551 70.5309 35.2739 72.6983 37.4395C74.8657 39.6052 76.087 42.5415 76.0942 45.6054C76.0867 46.5637 75.9677 47.5175 75.7391 48.4482C76.0871 48.4105 76.4366 48.3954 76.7866 48.4028C77.9955 48.3895 79.1949 48.6167 80.3151 49.0716C81.4353 49.5264 82.454 50.1997 83.3114 51.0521C84.1689 51.9045 84.8487 52.9189 85.3102 54.0364C85.7717 55.1539 86.006 56.3519 85.9999 57.5609C85.9974 60.0124 85.0217 62.3629 83.2874 64.0956C81.5531 65.8282 79.2016 66.8013 76.7501 66.8013L26.5118 66.8196Z" fill="url(#paint3_linear_707_16975)"/>
<path d="M26.5118 66.8196C24.1773 66.8221 21.9291 65.939 20.2201 64.3487C18.511 62.7584 17.4683 60.5792 17.3029 58.2506C17.1376 55.922 17.8621 53.6172 19.3293 51.8014C20.7965 49.9856 22.8975 48.7938 25.2089 48.4664C24.834 46.9765 24.6413 45.4465 24.6349 43.9101C24.6393 39.791 26.0196 35.7918 28.5568 32.5468C31.0939 29.3018 34.6422 26.997 38.6386 25.9992C42.6351 25.0014 46.8504 25.3675 50.6151 27.0391C54.3798 28.7107 57.4782 31.5922 59.4181 35.2259C61.0121 34.4545 62.759 34.0527 64.5298 34.0503C67.5937 34.0551 70.5309 35.2739 72.6983 37.4395C74.8657 39.6052 76.087 42.5415 76.0942 45.6054C76.0867 46.5637 75.9677 47.5175 75.7391 48.4482C76.0871 48.4105 76.4366 48.3954 76.7866 48.4028C77.9955 48.3895 79.1949 48.6167 80.3151 49.0716C81.4353 49.5264 82.454 50.1997 83.3114 51.0521C84.1689 51.9045 84.8487 52.9189 85.3102 54.0364C85.7717 55.1539 86.006 56.3519 85.9999 57.5609C85.9974 60.0124 85.0217 62.3629 83.2874 64.0956C81.5531 65.8282 79.2016 66.8013 76.7501 66.8013L26.5118 66.8196Z" stroke="white" stroke-width="1.2" stroke-miterlimit="10"/>
<path d="M40.7155 34.7788L47.8213 44.1234C48.2496 44.6686 47.8603 45.4667 47.1594 45.4667L43.8888 45.4667L43.8888 61.2164L36.2183 61.2164L36.2183 45.4667L32.9477 45.4667C32.2663 45.4667 31.877 44.688 32.2858 44.1429L39.3916 34.7982C39.7226 34.3505 40.3845 34.3505 40.7155 34.7788Z" fill="white"/>
<path d="M64.8884 80.8898H34.7478C33.8844 80.8898 33.2513 80.084 33.4432 79.2494L39.6593 52.8692C39.9183 51.8332 40.8392 51.1041 41.904 51.1041H71.6609C72.5242 51.1041 73.1573 51.9099 72.9655 52.7445L66.663 79.4892C66.4616 80.3142 65.7325 80.8898 64.8884 80.8898Z" fill="url(#paint4_linear_707_16975)"/>
<path d="M60.524 76.9569H53.1183C52.2742 76.9569 51.5835 76.2662 51.5835 75.4221C51.5835 74.5779 52.2742 73.8872 53.1183 73.8872H60.524C61.3682 73.8872 62.0588 74.5779 62.0588 75.4221C62.0588 76.2662 61.3682 76.9569 60.524 76.9569Z" fill="white"/>
<path d="M48.4364 54.7493L57.4824 64.179C58.365 65.1 58.2211 66.5772 57.1851 67.3159L43.4674 77.043C42.6904 77.5994 41.616 77.4363 41.0308 76.6881C40.4073 75.8919 40.5799 74.7311 41.3953 74.146L53.5782 65.4165L45.8848 57.1475C45.2037 56.4185 45.2708 55.2673 46.0382 54.615C46.7481 54.0203 47.7937 54.0778 48.4364 54.7493Z" fill="white"/>
<defs>
<linearGradient id="paint0_linear_707_16975" x1="49.7075" y1="-13.1571" x2="53.6895" y2="132.613" gradientUnits="userSpaceOnUse">
<stop stop-color="#00ABDE"/>
<stop offset="1" stop-color="#007ED8"/>
</linearGradient>
<linearGradient id="paint1_linear_707_16975" x1="2.91177" y1="-19.9902" x2="98.4393" y2="120.891" gradientUnits="userSpaceOnUse">
<stop stop-color="#007ED8"/>
<stop offset="0.7065" stop-color="#002D4C"/>
</linearGradient>
<linearGradient id="paint2_linear_707_16975" x1="51.6393" y1="25.4489" x2="51.6393" y2="66.8195" gradientUnits="userSpaceOnUse">
<stop stop-color="#00ABDE"/>
<stop offset="1" stop-color="#007ED8"/>
</linearGradient>
<linearGradient id="paint3_linear_707_16975" x1="50.123" y1="-3.51254" x2="51.9364" y2="70.0819" gradientUnits="userSpaceOnUse">
<stop offset="0.57" stop-color="white" stop-opacity="0"/>
<stop offset="0.78" stop-color="white" stop-opacity="0.43"/>
<stop offset="0.9" stop-color="white" stop-opacity="0.5"/>
<stop offset="1" stop-color="white"/>
</linearGradient>
<linearGradient id="paint4_linear_707_16975" x1="33.4144" y1="65.9982" x2="73.0012" y2="65.9982" gradientUnits="userSpaceOnUse">
<stop stop-color="#273B56"/>
<stop offset="1"/>
</linearGradient>
</defs>
</svg>
