<svg width="100" height="100" viewBox="0 0 100 100" fill="none" xmlns="http://www.w3.org/2000/svg">
<g clip-path="url(#clip0)">
<path d="M49.6401 96.4481C40.382 96.4481 31.3317 93.7028 23.6339 88.5592C15.936 83.4157 9.93624 76.105 6.3933 67.5516C2.85036 58.9981 1.92337 49.5862 3.72954 40.506C5.53571 31.4257 9.99394 23.085 16.5404 16.5385C23.0869 9.99198 31.4277 5.53376 40.5079 3.72759C49.5882 1.92141 59.0001 2.84841 67.5535 6.39135C76.1069 9.93428 83.4176 15.934 88.5612 23.6319C93.7047 31.3298 96.4501 40.38 96.4501 49.6381C96.4505 55.7854 95.24 61.8726 92.8878 67.5521C90.5355 73.2315 87.0875 78.392 82.7407 82.7388C78.3939 87.0856 73.2335 90.5335 67.554 92.8858C61.8746 95.2381 55.7874 96.4486 49.6401 96.4481V96.4481Z" fill="url(#paint0_linear)"/>
<path fill-rule="evenodd" clip-rule="evenodd" d="M95.54 49.64C95.54 58.7182 92.848 67.5925 87.8045 75.1407C82.7609 82.6889 75.5923 88.572 67.2052 92.0461C58.818 95.5201 49.5891 96.4291 40.6854 94.658C31.7816 92.887 23.603 88.5154 17.1838 82.0962C10.7646 75.677 6.39302 67.4984 4.62196 58.5946C2.85089 49.6909 3.75987 40.462 7.23393 32.0748C10.708 23.6877 16.5911 16.5191 24.1393 11.4755C31.6875 6.43199 40.5618 3.74 49.64 3.74C55.6677 3.73998 61.6363 4.9272 67.2052 7.23388C72.774 9.54057 77.834 12.9215 82.0963 17.1837C86.3585 21.446 89.7394 26.5059 92.0461 32.0748C94.3528 37.6437 95.54 43.6123 95.54 49.64V49.64ZM49.64 3.62732e-07C59.4579 3.62732e-07 69.0553 2.91134 77.2185 8.36585C85.3818 13.8204 91.7442 21.5731 95.5014 30.6436C99.2585 39.7141 100.242 49.6951 98.3262 59.3243C96.4108 68.9535 91.6831 77.7985 84.7408 84.7408C77.7985 91.6831 68.9535 96.4108 59.3243 98.3262C49.6951 100.242 39.7141 99.2585 30.6436 95.5014C21.5731 91.7442 13.8204 85.3818 8.36585 77.2185C2.91134 69.0553 3.62732e-07 59.4579 3.62732e-07 49.64C-0.000787738 43.121 1.28265 36.6656 3.77702 30.6427C6.27138 24.6197 9.9278 19.1471 14.5375 14.5375C19.1471 9.9278 24.6197 6.27138 30.6427 3.77702C36.6656 1.28265 43.121 -0.000787738 49.64 3.62732e-07V3.62732e-07Z" fill="#F2F1F0"/>
<path fill-rule="evenodd" clip-rule="evenodd" d="M92.7296 49.6386C92.7296 58.161 90.2024 66.492 85.4676 73.5781C80.7328 80.6643 74.0031 86.1872 66.1294 89.4486C58.2557 92.71 49.5918 93.5633 41.2331 91.9007C32.8745 90.238 25.1966 86.1341 19.1703 80.1079C13.1441 74.0816 9.04017 66.4037 7.37753 58.0451C5.7149 49.6864 6.56822 41.0225 9.8296 33.1488C13.091 25.2751 18.6139 18.5454 25.7 13.8106C32.7862 9.07581 41.1172 6.54862 49.6396 6.54862C55.2983 6.54828 60.9017 7.6626 66.1298 9.82795C71.3579 11.9933 76.1082 15.1673 80.1096 19.1686C84.1109 23.17 87.2849 27.9203 89.4502 33.1484C91.6156 38.3765 92.7299 43.9799 92.7296 49.6386V49.6386ZM49.6396 2.80862C58.9017 2.80862 67.9558 5.55515 75.6569 10.7009C83.3581 15.8466 89.3604 23.1605 92.9049 31.7176C96.4493 40.2746 97.3767 49.6906 95.5697 58.7747C93.7628 67.8588 89.3027 76.2031 82.7534 82.7524C76.2041 89.3017 67.8598 93.7619 58.7757 95.5688C49.6915 97.3757 40.2756 96.4484 31.7185 92.9039C23.1614 89.3594 15.8476 83.3571 10.7018 75.656C5.5561 67.9548 2.80957 58.9007 2.80957 49.6386C2.81076 37.2189 7.745 25.3082 16.5271 16.5261C25.3091 7.74403 37.2198 2.80979 49.6396 2.80859V2.80862Z" fill="#0078D4"/>
<path fill-rule="evenodd" clip-rule="evenodd" d="M27.3365 35.5586C26.2619 35.5617 25.2323 35.99 24.4725 36.7498C23.7127 37.5096 23.2844 38.5392 23.2812 39.6138V68.0002H75.9989V39.6138C75.9957 38.5393 75.5675 37.5096 74.8077 36.7498C74.0478 35.99 73.0182 35.5617 71.9437 35.5586H27.3365ZM71.9437 37.5862C72.4812 37.5869 72.9965 37.8008 73.3766 38.1809C73.7567 38.5609 73.9706 39.0763 73.9713 39.6138V65.9726H25.3088V39.6138C25.3094 39.0762 25.5232 38.5608 25.9033 38.1807C26.2835 37.8005 26.7989 37.5867 27.3365 37.5862H71.9437Z" fill="#1F56A3"/>
<path fill-rule="evenodd" clip-rule="evenodd" d="M25.3088 39.6135C25.3094 39.0759 25.5232 38.5605 25.9033 38.1804C26.2835 37.8003 26.7989 37.5865 27.3365 37.5859H71.9437C72.4812 37.5866 72.9965 37.8005 73.3766 38.1806C73.7567 38.5607 73.9706 39.076 73.9713 39.6135V65.9724H25.3088V39.6135Z" fill="#0078D4"/>
<path d="M71.5615 39.9961H27.7178V63.5638H71.5615V39.9961Z" fill="#1B93EB"/>
<path fill-rule="evenodd" clip-rule="evenodd" d="M17.1985 68V69.0138C17.2016 70.0883 17.6299 71.118 18.3897 71.8778C19.1495 72.6376 20.1791 73.0659 21.2537 73.069H78.0265C79.1011 73.0659 80.1307 72.6376 80.8905 71.8778C81.6503 71.118 82.0786 70.0883 82.0817 69.0138V68H17.1985Z" fill="#0078D4"/>
<path fill-rule="evenodd" clip-rule="evenodd" d="M47.6122 71.0414H17.7649C18.1183 71.6549 18.6264 72.165 19.2386 72.5207C19.8507 72.8765 20.5454 73.0655 21.2534 73.069H78.0262C79.1008 73.0659 80.1304 72.6376 80.8902 71.8778C81.65 71.118 82.0783 70.0883 82.0814 69.0138V68H49.6398V69.0138C49.6399 69.2801 49.5875 69.5438 49.4856 69.7898C49.3838 70.0359 49.2344 70.2594 49.0461 70.4477C48.8578 70.636 48.6343 70.7854 48.3882 70.8872C48.1422 70.9891 47.8785 71.0415 47.6122 71.0414V71.0414Z" fill="#1F56A3"/>
<path fill-rule="evenodd" clip-rule="evenodd" d="M45.585 70.0276H53.6954C54.2331 70.0274 54.7487 69.8137 55.1289 69.4335C55.5091 69.0533 55.7228 68.5377 55.723 68H43.5574C43.5574 68.5377 43.771 69.0535 44.1513 69.4337C44.5315 69.814 45.0472 70.0276 45.585 70.0276Z" fill="#003067"/>
<path d="M62.4806 54.7224C62.4892 54.6626 62.5063 54.6027 62.5148 54.5514C62.6753 53.7048 62.6473 52.8332 62.433 51.9986C62.2186 51.164 61.8231 50.3869 61.2745 49.7224C60.7259 49.0579 60.0378 48.5223 59.2589 48.1538C58.48 47.7852 57.6295 47.5927 56.7678 47.5899C56.3271 47.5885 55.8877 47.6402 55.4594 47.7439C54.5859 46.3662 53.2887 45.3095 51.7629 44.7326C50.2371 44.1558 48.5652 44.09 46.9988 44.5453C45.4324 45.0005 44.0562 45.9522 43.0772 47.257C42.0983 48.5619 41.5696 50.1493 41.5707 51.7805C41.5707 51.8832 41.5707 51.9858 41.5792 52.0884C41.188 51.9567 40.7777 51.8903 40.3648 51.8917C39.4146 51.892 38.5008 52.2574 37.8125 52.9125C37.1241 53.5676 36.7139 54.4622 36.6667 55.4113C36.6195 56.3604 36.9388 57.2913 37.5587 58.0115C38.1786 58.7317 39.0516 59.1861 39.9971 59.2807L56.7593 59.3149C57.8026 59.3137 58.8269 59.035 59.7271 58.5075C60.6273 57.98 61.371 57.2227 61.882 56.313C61.9077 56.2617 61.9419 56.2104 61.9676 56.159C62.194 55.7018 62.3662 55.2197 62.4806 54.7224V54.7224Z" fill="#0078D4"/>
<path d="M34.7649 33.0039V48.4459H48.2279H64.5129V33.0039" stroke="white" stroke-linecap="round" stroke-linejoin="round"/>
<path d="M28.3329 25.1936L29.3831 25.4271C29.4918 25.4667 29.5805 25.5475 29.63 25.6521C29.6334 25.6636 29.6376 25.6749 29.6424 25.6859L29.9321 26.3901C29.9371 26.4023 29.9428 26.4145 29.9489 26.4263C29.9882 26.5343 29.983 26.6534 29.9344 26.7576L29.3567 27.6655C29.2385 27.8621 29.1881 28.092 29.2131 28.32C29.2381 28.548 29.3372 28.7615 29.4951 28.9278L29.8147 29.2473C29.9825 29.4026 30.1958 29.4999 30.423 29.5248C30.6503 29.5497 30.8795 29.501 31.077 29.3858L31.9851 28.8083C32.043 28.7793 32.1072 28.7654 32.1719 28.7676C32.2213 28.7659 32.2705 28.7747 32.3162 28.7936C32.328 28.7999 32.3401 28.8055 32.3526 28.8104L33.0566 29.1004C33.0677 29.105 33.079 29.1091 33.0905 29.1125C33.195 29.1621 33.2758 29.2509 33.3154 29.3596L33.5487 30.4096C33.6042 30.6322 33.7311 30.8305 33.9101 30.9741C34.089 31.1176 34.3101 31.1985 34.5395 31.2044H34.9912C35.2205 31.1986 35.4416 31.1178 35.6205 30.9742C35.7995 30.8307 35.9264 30.6325 35.9818 30.4099L36.2153 29.3592C36.2551 29.2507 36.3359 29.1622 36.4402 29.1126C36.4518 29.1092 36.4631 29.1049 36.4743 29.1004L37.1783 28.8104C37.1908 28.8055 37.2029 28.7999 37.2147 28.7937C37.2604 28.7747 37.3096 28.7658 37.359 28.7677C37.4238 28.7655 37.488 28.7795 37.546 28.8083L38.4537 29.3856C38.6512 29.5007 38.8804 29.5494 39.1076 29.5245C39.3349 29.4996 39.5481 29.4024 39.7159 29.2472L40.0355 28.9278C40.1935 28.7615 40.2926 28.548 40.3176 28.3199C40.3426 28.0919 40.2922 27.8619 40.1739 27.6653L39.5962 26.7576C39.5479 26.6535 39.5427 26.5345 39.5818 26.4265C39.5879 26.4145 39.5938 26.4024 39.5987 26.3902L39.8885 25.686C39.893 25.6749 39.8973 25.6636 39.9009 25.6521C39.9503 25.5475 40.039 25.4666 40.1477 25.4269L41.1977 25.1938C41.4204 25.1384 41.6187 25.0115 41.7622 24.8325C41.9058 24.6535 41.9867 24.4324 41.9925 24.203V23.7513C41.9867 23.522 41.9058 23.301 41.7623 23.1221C41.6188 22.9431 41.4205 22.8162 41.198 22.7608L40.1475 22.5275C40.0389 22.4877 39.9503 22.4069 39.9009 22.3023C39.8973 22.2908 39.893 22.2795 39.8885 22.2684L39.5987 21.5642C39.5937 21.552 39.5881 21.5401 39.5818 21.5281C39.5427 21.4201 39.548 21.3009 39.5965 21.1968L40.174 20.2891C40.2922 20.0925 40.3427 19.8625 40.3177 19.6345C40.2927 19.4064 40.1936 19.1929 40.0355 19.0266L39.7159 18.707C39.548 18.5519 39.3348 18.4547 39.1075 18.4298C38.8802 18.4048 38.651 18.4535 38.4534 18.5686L37.5462 19.1461C37.4881 19.175 37.4238 19.1889 37.359 19.1867C37.3095 19.1887 37.2603 19.1798 37.2147 19.1607C37.2027 19.1548 37.1907 19.149 37.1783 19.144L36.4743 18.854L36.4402 18.8418C36.3357 18.7922 36.255 18.7036 36.2152 18.595L35.9817 17.5448C35.9264 17.3221 35.7995 17.1238 35.6205 16.9802C35.4416 16.8367 35.2205 16.7558 34.9911 16.75H34.5394C34.3101 16.7559 34.0891 16.8368 33.9101 16.9803C33.7312 17.1239 33.6043 17.3222 33.5489 17.5448L33.3153 18.595C33.2757 18.7036 33.1949 18.7923 33.0904 18.8418L33.0565 18.854L32.3525 19.144C32.3401 19.149 32.3279 19.1548 32.3162 19.1607C32.2706 19.1797 32.2214 19.1886 32.1721 19.1867C32.1073 19.189 32.043 19.175 31.9851 19.1461L31.0772 18.5688C30.8797 18.4536 30.6504 18.4048 30.4231 18.4297C30.1958 18.4546 29.9825 18.5518 29.8147 18.707L29.4953 19.0264C29.3372 19.1927 29.2381 19.4063 29.213 19.6343C29.188 19.8624 29.2384 20.0924 29.3566 20.2891L29.9344 21.1968C29.9584 21.2483 29.972 21.3041 29.9745 21.3609C29.977 21.4177 29.9683 21.4744 29.9488 21.5279C29.9427 21.5399 29.9371 21.5518 29.9321 21.564L29.6423 22.2684C29.6375 22.2795 29.6334 22.2908 29.6299 22.3023C29.5804 22.4069 29.4916 22.4878 29.3828 22.5275L28.3331 22.7608C28.1104 22.8161 27.9121 22.943 27.7685 23.1219C27.6248 23.3009 27.5439 23.522 27.5381 23.7513V24.203C27.5439 24.4324 27.6248 24.6535 27.7684 24.8324C27.9119 25.0114 28.1103 25.1382 28.3329 25.1936Z" fill="url(#paint1_linear)"/>
<path d="M34.7663 21.5233C33.4104 21.5233 32.3112 22.6225 32.3112 23.9785C32.3112 25.3344 33.4104 26.4336 34.7663 26.4336C36.1222 26.4336 37.2214 25.3344 37.2214 23.9785C37.2214 22.6225 36.1222 21.5233 34.7663 21.5233Z" fill="url(#paint2_linear)"/>
<path d="M58.0804 25.1936L59.1306 25.4272C59.2393 25.4667 59.328 25.5476 59.3775 25.6521C59.381 25.6637 59.3851 25.675 59.3899 25.686L59.6797 26.3902C59.6847 26.4024 59.6903 26.4146 59.6964 26.4263C59.7357 26.5343 59.7305 26.6535 59.6819 26.7577L59.1042 27.6656C58.986 27.8621 58.9356 28.092 58.9606 28.32C58.9856 28.548 59.0847 28.7615 59.2427 28.9278L59.5622 29.2474C59.73 29.4027 59.9433 29.4999 60.1705 29.5248C60.3978 29.5498 60.627 29.501 60.8245 29.3859L61.7326 28.8084C61.7905 28.7794 61.8547 28.7654 61.9194 28.7677C61.9688 28.7659 62.0181 28.7748 62.0637 28.7937C62.0755 28.8 62.0877 28.8056 62.1001 28.8104L62.8041 29.1004C62.8152 29.1051 62.8265 29.1091 62.838 29.1126C62.9426 29.1622 63.0234 29.2509 63.0629 29.3597L63.2962 30.4097C63.3517 30.6323 63.4786 30.8306 63.6576 30.9741C63.8366 31.1177 64.0577 31.1986 64.287 31.2045H64.7387C64.968 31.1987 65.1891 31.1178 65.3681 30.9743C65.547 30.8308 65.6739 30.6325 65.7293 30.4099L65.9628 29.3592C66.0026 29.2507 66.0834 29.1622 66.1878 29.1126C66.1993 29.1092 66.2106 29.1049 66.2219 29.1004L66.9259 28.8104C66.9383 28.8055 66.9505 28.7999 66.9623 28.7937C67.0079 28.7747 67.0572 28.7658 67.1066 28.7677C67.1713 28.7655 67.2356 28.7795 67.2936 28.8083L68.2013 29.3856C68.3987 29.5008 68.628 29.5494 68.8552 29.5245C69.0825 29.4996 69.2957 29.4024 69.4635 29.2472L69.7831 28.9278C69.9411 28.7615 70.0402 28.548 70.0652 28.3199C70.0902 28.0919 70.0398 27.8619 69.9215 27.6653L69.3438 26.7576C69.2955 26.6535 69.2903 26.5345 69.3294 26.4265C69.3355 26.4145 69.3414 26.4024 69.3463 26.3902L69.6361 25.686C69.6406 25.6749 69.6449 25.6636 69.6485 25.6521C69.6979 25.5475 69.7866 25.4666 69.8953 25.4269L70.9453 25.1938C71.168 25.1384 71.3663 25.0115 71.5098 24.8325C71.6534 24.6535 71.7343 24.4324 71.7401 24.2031V23.7514C71.7343 23.522 71.6534 23.301 71.5099 23.1221C71.3664 22.9431 71.1681 22.8162 70.9456 22.7608L69.8951 22.5275C69.7865 22.4877 69.6979 22.4069 69.6485 22.3023C69.6449 22.2908 69.6406 22.2795 69.6361 22.2684L69.3463 21.5642C69.3413 21.552 69.3357 21.5401 69.3294 21.5281C69.2903 21.4201 69.2956 21.3009 69.3441 21.1968L69.9216 20.2891C70.0398 20.0925 70.0904 19.8625 70.0653 19.6345C70.0403 19.4064 69.9412 19.1929 69.7831 19.0266L69.4635 18.707C69.2956 18.5519 69.0824 18.4547 68.8551 18.4298C68.6279 18.4048 68.3986 18.4535 68.2011 18.5686L67.2938 19.1461C67.2358 19.175 67.1714 19.1889 67.1066 19.1867C67.0572 19.1887 67.0079 19.1798 66.9623 19.1607C66.9503 19.1549 66.9383 19.149 66.9259 19.144L66.2219 18.854L66.1878 18.8418C66.0833 18.7922 66.0025 18.7036 65.9628 18.595L65.7293 17.5448C65.6739 17.3221 65.547 17.1238 65.3681 16.9802C65.1892 16.8367 64.968 16.7558 64.7387 16.75H64.287C64.0577 16.7559 63.8366 16.8368 63.6577 16.9803C63.4788 17.1239 63.3519 17.3222 63.2964 17.5448L63.0629 18.595C63.0233 18.7036 62.9425 18.7923 62.838 18.8418L62.8041 18.854L62.1001 19.144C62.0877 19.149 62.0755 19.1549 62.0637 19.1607C62.0181 19.1797 61.969 19.1886 61.9196 19.1867C61.8549 19.189 61.7906 19.175 61.7326 19.1461L60.8247 18.5688C60.6272 18.4536 60.398 18.4048 60.1707 18.4297C59.9434 18.4546 59.7301 18.5518 59.5622 18.707L59.2429 19.0264C59.0848 19.1927 58.9856 19.4063 58.9606 19.6343C58.9356 19.8624 58.986 20.0924 59.1042 20.2891L59.6819 21.1968C59.706 21.2483 59.7196 21.3041 59.7221 21.3609C59.7246 21.4177 59.7158 21.4744 59.6964 21.5279C59.6903 21.5399 59.6846 21.5518 59.6797 21.564L59.3899 22.2684C59.3851 22.2795 59.3809 22.2908 59.3775 22.3023C59.3279 22.4069 59.2392 22.4878 59.1304 22.5275L58.0806 22.7608C57.858 22.8161 57.6596 22.943 57.516 23.1219C57.3724 23.3009 57.2915 23.522 57.2856 23.7514V24.2031C57.2914 24.4324 57.3723 24.6535 57.5159 24.8325C57.6595 25.0114 57.8578 25.1383 58.0804 25.1936Z" fill="url(#paint3_linear)"/>
<path d="M64.5139 21.5233C63.1579 21.5233 62.0587 22.6225 62.0587 23.9785C62.0587 25.3344 63.1579 26.4336 64.5139 26.4336C65.8698 26.4336 66.969 25.3344 66.969 23.9785C66.969 22.6225 65.8698 21.5233 64.5139 21.5233Z" fill="url(#paint4_linear)"/>
<path d="M49.6392 48.4453L49.6397 53.2995" stroke="white" stroke-linecap="round" stroke-linejoin="round"/>
<path d="M49.639 60.9509C51.977 60.9509 53.8722 59.0556 53.8722 56.7176C53.8722 54.3797 51.977 52.4844 49.639 52.4844C47.301 52.4844 45.4058 54.3797 45.4058 56.7176C45.4058 59.0556 47.301 60.9509 49.639 60.9509Z" fill="white"/>
<path fill-rule="evenodd" clip-rule="evenodd" d="M51.5738 55.3052C51.4759 55.2073 51.3431 55.1523 51.2047 55.1523C51.0663 55.1523 50.9335 55.2073 50.8356 55.3052L49.115 57.0245L48.4935 56.409C48.479 56.3874 48.4625 56.3672 48.4444 56.3485C48.3472 56.251 48.2154 56.196 48.0777 56.1953C47.94 56.1947 47.8077 56.2485 47.7095 56.345C47.6114 56.4416 47.5554 56.573 47.5537 56.7106C47.5521 56.8483 47.605 56.981 47.7008 57.0799L47.6945 57.0861L48.7475 58.1295C48.8455 58.2273 48.9783 58.2822 49.1167 58.2822C49.2552 58.2822 49.388 58.2273 49.4859 58.1295L51.5723 56.044L51.5738 56.0428C51.6223 55.9944 51.6607 55.9369 51.687 55.8736C51.7132 55.8103 51.7267 55.7425 51.7267 55.674C51.7267 55.6055 51.7132 55.5376 51.6869 55.4743C51.6607 55.4111 51.6223 55.3536 51.5738 55.3052Z" fill="#0078D4"/>
</g>
<defs>
<linearGradient id="paint0_linear" x1="47.8697" y1="-15.155" x2="51.8525" y2="130.613" gradientUnits="userSpaceOnUse">
<stop stop-color="#00ABDE"/>
<stop offset="1" stop-color="#007ED8"/>
</linearGradient>
<linearGradient id="paint1_linear" x1="34.7653" y1="16.75" x2="34.7653" y2="31.2043" gradientUnits="userSpaceOnUse">
<stop stop-color="#008BF1"/>
<stop offset="0.22" stop-color="#0086EC"/>
<stop offset="0.49" stop-color="#0078DD"/>
<stop offset="0.79" stop-color="#0061C4"/>
<stop offset="1" stop-color="#004DAE"/>
</linearGradient>
<linearGradient id="paint2_linear" x1="34.7674" y1="31.2056" x2="34.7674" y2="16.7513" gradientUnits="userSpaceOnUse">
<stop stop-color="#008BF1"/>
<stop offset="0.22" stop-color="#0086EC"/>
<stop offset="0.49" stop-color="#0078DD"/>
<stop offset="0.79" stop-color="#0061C4"/>
<stop offset="1" stop-color="#004DAE"/>
</linearGradient>
<linearGradient id="paint3_linear" x1="64.6834" y1="16.9107" x2="64.3425" y2="31.0355" gradientUnits="userSpaceOnUse">
<stop stop-color="#B77AF4"/>
<stop offset="0.24" stop-color="#B376F2"/>
<stop offset="0.5" stop-color="#A669EE"/>
<stop offset="0.75" stop-color="#9255E6"/>
<stop offset="1" stop-color="#773ADC"/>
</linearGradient>
<linearGradient id="paint4_linear" x1="64.3443" y1="31.045" x2="64.6853" y2="16.9202" gradientUnits="userSpaceOnUse">
<stop stop-color="#B77AF4"/>
<stop offset="0.24" stop-color="#B376F2"/>
<stop offset="0.5" stop-color="#A669EE"/>
<stop offset="0.75" stop-color="#9255E6"/>
<stop offset="1" stop-color="#773ADC"/>
</linearGradient>
<clipPath id="clip0">
<rect width="99.2799" height="99.28" fill="white"/>
</clipPath>
</defs>
</svg>
