<svg width="160" height="189" viewBox="0 0 160 189" fill="none" xmlns="http://www.w3.org/2000/svg">
<g clip-path="url(#clip0_926_605)">
<path d="M80.0334 188.991C83.1147 188.985 86.1351 188.132 88.7638 186.525L150.739 148.865C153.52 147.101 155.804 144.656 157.375 141.762C158.945 138.867 159.749 135.62 159.711 132.327V57.6119C159.747 54.3195 158.942 51.0724 157.372 48.1783C155.802 45.2841 153.519 42.8389 150.739 41.0741L88.7638 3.41401C86.1303 1.82882 83.1147 0.991211 80.041 0.991211C76.9672 0.991211 73.9516 1.82882 71.3182 3.41401L9.34307 41.0892C6.55997 42.8516 4.27342 45.296 2.70046 48.1903C1.12749 51.0847 0.32029 54.333 0.355473 57.627V132.327C0.33694 135.11 0.911657 137.865 2.04135 140.409C3.17104 142.953 4.82977 145.227 6.90707 147.08V147.106L71.3182 186.54C73.9438 188.14 76.9586 188.988 80.0334 188.991V188.991ZM80.6812 7.94339C82.6331 7.94339 85.1103 9.15631 86.8201 10.2003L147.577 47.3946C151.329 49.6793 153.445 56.2754 153.445 61.0264L152.813 132.327C152.813 137.078 149.614 141.346 145.861 143.631L85.4659 180.012C82.0313 182.1 79.2409 182.1 75.8062 180.012L14.5982 143.54C10.8458 141.256 7.82738 137.063 7.82738 132.327V58.6792C7.85989 56.314 8.46888 53.9925 9.60155 51.9159C10.7342 49.8394 12.3563 48.0705 14.3273 46.7626L74.9035 10.2003C76.6132 9.15631 78.7294 7.94339 80.6812 7.94339Z" fill="#F2F1F0"/>
<path fill-rule="evenodd" clip-rule="evenodd" d="M87.9319 11.524C85.561 10.0505 82.8252 9.26959 80.0337 9.26959C77.2422 9.26959 74.5064 10.0505 72.1355 11.524L16.0008 45.8554C13.4748 47.4671 11.4025 49.6975 9.98047 52.3349C8.55847 54.9724 7.83398 57.9294 7.87573 60.9255V129.029C7.83581 132.024 8.56109 134.981 9.98292 137.618C11.4048 140.255 13.4761 142.486 16.0008 144.099L72.1355 178.43C74.5063 179.904 77.2422 180.685 80.0337 180.685C82.8253 180.685 85.5612 179.904 87.9319 178.43L144.066 144.099C146.591 142.486 148.663 140.255 150.085 137.618C151.507 134.981 152.232 132.025 152.192 129.029V60.9255C152.23 57.93 151.504 54.9742 150.082 52.3373C148.66 49.7004 146.59 47.4696 144.066 45.8554L87.9319 11.524Z" fill="url(#paint0_linear_926_605)"/>
<path fill-rule="evenodd" clip-rule="evenodd" d="M80.0338 10.7455C81.717 10.7455 83.5997 11.6112 85.6665 12.8693L144.132 48.4117C146.024 49.6251 147.573 51.302 148.634 53.2831C149.694 55.2641 150.231 57.4835 150.192 59.7302V130.209C150.231 132.455 149.694 134.675 148.634 136.656C147.573 138.637 146.024 140.313 144.132 141.527L85.6675 177.069L85.6665 177.07C83.9963 178.209 82.0512 178.88 80.0338 179.013C78.0163 178.88 76.0713 178.209 74.4011 177.07L74.4001 177.069L15.9378 141.529L15.9356 141.528C14.1473 140.564 12.6222 139.177 11.4938 137.488C10.5169 135.885 9.87578 133.67 9.87578 130.209V59.7302C9.83704 57.4835 10.3734 55.2642 11.434 53.2832C12.4945 51.3022 14.044 49.6253 15.9352 48.4118L74.392 12.8747L74.3961 12.8723C76.4799 11.6193 78.3401 10.7455 80.0338 10.7455ZM87.7463 9.45253L146.21 44.9938C148.689 46.5639 150.723 48.7426 152.121 51.3223C153.518 53.9021 154.231 56.7967 154.192 59.7303V130.209C154.231 133.142 153.518 136.037 152.121 138.617C150.723 141.197 148.688 143.376 146.21 144.946L87.7453 180.487C85.4511 182.012 82.7857 182.885 80.0338 183.013C77.2819 182.885 74.6164 182.012 72.3222 180.487H72.3213L13.8575 144.945L13.855 144.944C11.5197 143.651 9.53644 141.806 8.07828 139.57C6.4837 136.717 5.72068 133.474 5.87578 130.209V59.7302C5.83672 56.7966 6.54983 53.9019 7.94712 51.3222C9.34441 48.7424 11.3793 46.5636 13.8577 44.9936L72.3222 9.45188L72.3304 9.447C74.421 8.18959 77.1289 6.74554 80.0338 6.74554C82.92 6.74554 85.6371 8.16862 87.7463 9.45248V9.45253Z" fill="#0078D4"/>
<path opacity="0.2" d="M139.965 133.017L80.4154 167.624L20.4764 133.018L80.0264 98.4112L139.965 133.017Z" fill="#003067"/>
<path d="M140.956 121.64L80.2334 156.928L19.1224 121.645L79.8444 86.3572L140.956 121.64Z" fill="#1B93EB"/>
<path d="M140.956 121.64L140.944 125.746L80.2224 161.034L80.2334 156.928L140.956 121.64Z" fill="#1F56A3"/>
<path d="M80.2335 156.928L80.2225 161.034L19.1105 125.751L19.1225 121.645L80.2335 156.928Z" fill="#0078D4"/>
<path d="M120.92 84.0077L101.547 72.8228C100.634 72.2495 99.9007 71.4311 99.4305 70.461L97.6382 66.9541C97.1679 65.9841 96.4344 65.1657 95.5215 64.5923L82.3553 56.9909C82.0746 56.7872 81.7446 56.6623 81.3994 56.629C81.0542 56.5957 80.7064 56.6553 80.392 56.8017L77.3129 58.5911C77.6273 58.4448 77.975 58.3852 78.3202 58.4185C78.6654 58.4517 78.9954 58.5767 79.276 58.7803L92.4422 66.3818C93.3551 66.9552 94.0886 67.7735 94.5589 68.7436L96.3512 72.2504C96.8215 73.2206 97.5549 74.0389 98.4679 74.6123L117.841 85.7973C118.642 86.3196 119.309 87.0235 119.787 87.8519C120.265 88.6802 120.542 89.6097 120.593 90.5648L120.512 119.06C120.546 119.4 120.489 119.742 120.348 120.053C120.206 120.364 119.984 120.631 119.705 120.828L122.784 119.038C123.063 118.841 123.285 118.574 123.427 118.263C123.569 117.953 123.626 117.61 123.592 117.27L123.672 88.7753C123.621 87.8202 123.345 86.8907 122.866 86.0624C122.388 85.234 121.721 84.53 120.92 84.0077Z" fill="url(#paint1_linear_926_605)"/>
<path d="M92.4421 66.3818C93.3551 66.9552 94.0885 67.7736 94.5589 68.7436L96.3511 72.2505C96.8214 73.2206 97.5548 74.039 98.4678 74.6123L117.841 85.7972C118.642 86.3196 119.309 87.0235 119.787 87.8519C120.265 88.6802 120.541 89.6097 120.593 90.5648L120.512 119.06C120.507 120.807 119.262 121.516 117.742 120.639L79.1637 98.3656C78.3624 97.8432 77.6956 97.1393 77.2173 96.3109C76.7391 95.4826 76.4629 94.5531 76.4111 93.598L76.5054 60.3591C76.5104 58.6123 77.7558 57.9026 79.2759 58.7803L92.4421 66.3818Z" fill="url(#paint2_linear_926_605)"/>
<path opacity="0.3" d="M121.169 122.053C121.402 122.13 121.604 122.279 121.748 122.477C121.892 122.675 121.971 122.913 121.973 123.158C121.975 123.403 121.901 123.642 121.76 123.843C121.619 124.043 121.419 124.195 121.188 124.276L117.262 126.558C116.667 126.86 116.009 127.017 115.342 127.016C114.675 127.016 114.018 126.857 113.424 126.554L74.3819 104.013C74.1494 103.936 73.9469 103.788 73.8027 103.59C73.6585 103.392 73.5799 103.153 73.5778 102.908C73.5757 102.663 73.6503 102.424 73.7911 102.223C73.9319 102.023 74.1319 101.872 74.363 101.79L78.2895 99.5085C78.8841 99.2065 79.5417 99.0494 80.2087 99.0501C80.8756 99.0507 81.5329 99.2091 82.1269 99.5122L121.169 122.053Z" fill="#003067"/>
<path d="M106.813 93.0279C107.615 93.5503 108.281 94.2542 108.76 95.0826C109.238 95.9109 109.514 96.8404 109.566 97.7955L117.442 120.848C117.437 122.595 116.192 123.305 114.672 122.427L76.0936 100.154C75.2957 99.6311 74.6321 98.9278 74.1563 98.101C73.6806 97.2741 73.406 96.347 73.355 95.3944L65.4786 72.3418C65.4836 70.5949 66.7289 69.8852 68.2353 70.7549L106.813 93.0279Z" fill="url(#paint3_linear_926_605)"/>
<path d="M109.892 91.2385L71.3144 68.9654C71.0357 68.7638 70.7081 68.6404 70.3656 68.6081C70.0232 68.5757 69.6783 68.6355 69.3667 68.7813L66.2876 70.5707C66.5991 70.4249 66.944 70.3651 67.2865 70.3975C67.6289 70.4299 67.9565 70.5533 68.2352 70.7548L106.813 93.0278C108.333 93.9056 108.886 95.9871 109.566 97.7955L117.442 120.848C117.476 121.188 117.419 121.531 117.277 121.841C117.135 122.152 116.914 122.419 116.635 122.616L119.714 120.827C119.993 120.63 120.215 120.362 120.356 120.052C120.498 119.741 120.555 119.398 120.521 119.059L112.645 96.0061C111.94 94.1874 111.413 92.1162 109.892 91.2385Z" fill="url(#paint4_linear_926_605)"/>
<path d="M80.6329 55.3673L78.3254 56.7082C78.9639 56.4123 79.6699 56.2924 80.3702 56.3608C81.0706 56.4292 81.74 56.6835 82.3092 57.0974C82.9749 57.4875 83.5909 57.9569 84.1437 58.4953L86.451 57.1544C85.8982 56.6161 85.2823 56.1467 84.6166 55.7565C84.0474 55.3426 83.378 55.0883 82.6777 55.0199C81.9773 54.9515 81.2713 55.0714 80.6329 55.3673Z" fill="#E8E8E8"/>
<path d="M109.434 62.5978C108.811 62.2302 108.146 61.9378 107.453 61.7268C105.438 56.8828 101.901 52.4291 97.8546 50.093C94.6946 48.2686 91.8322 48.0987 89.7645 49.3004L87.457 50.6412C89.5249 49.4396 92.3872 49.6094 95.5472 51.4339C99.5935 53.7699 103.131 58.2236 105.146 63.0676C105.838 63.2787 106.503 63.5711 107.127 63.9387C112.016 66.7613 115.956 73.607 115.94 79.218C115.942 79.8306 115.888 80.4421 115.779 81.0448C115.767 81.131 115.738 81.2138 115.726 81.3133C115.569 82.0307 115.306 82.7207 114.946 83.3605C114.905 83.43 114.853 83.4863 114.812 83.5558C114.438 84.1088 113.945 84.5715 113.37 84.91L115.677 83.5692C116.252 83.2305 116.745 82.7679 117.12 82.2149C117.16 82.1454 117.212 82.0891 117.253 82.0197C117.614 81.3798 117.877 80.6898 118.034 79.9724C118.046 79.873 118.075 79.7901 118.086 79.7039C118.196 79.1012 118.25 78.4897 118.248 77.8771C118.264 72.2662 114.323 65.4204 109.434 62.5978Z" fill="#E8E8E8"/>
<path d="M95.5472 51.4339C99.5933 53.77 103.13 58.2236 105.146 63.0676C105.838 63.2787 106.503 63.5711 107.127 63.9387C112.015 66.7613 115.956 73.6071 115.94 79.218C115.942 79.8306 115.888 80.4421 115.779 81.0449C115.767 81.131 115.738 81.2139 115.726 81.3133C115.569 82.0307 115.306 82.7207 114.946 83.3606C114.905 83.4301 114.853 83.4863 114.812 83.5558C113.28 85.78 110.376 86.2162 107.057 84.3001L81.7187 69.6111C80.2477 68.5239 79.0345 67.1256 78.1656 65.5159C77.2968 63.9062 76.7937 62.1247 76.6921 60.2983C76.7022 56.7433 79.2211 55.3145 82.3092 57.0974C82.9749 57.4875 83.5909 57.9569 84.1437 58.4953C84.1327 58.3096 84.1332 58.1372 84.1337 57.9581C84.1542 50.7221 89.2616 47.8049 95.5472 51.4339Z" fill="white"/>
<path d="M78.5488 136.905C80.9412 138.286 80.9586 140.527 78.577 141.911C77.2386 142.593 75.7579 142.948 74.2559 142.948C72.7539 142.948 71.2732 142.593 69.9348 141.911L46.5078 128.385C44.1153 127.004 44.0979 124.764 46.4796 123.379C47.818 122.698 49.2987 122.342 50.8007 122.342C52.3027 122.342 53.7834 122.698 55.1218 123.379L78.5488 136.905Z" fill="#0078D4"/>
<path d="M46.4794 125.449C47.8178 124.767 49.2985 124.412 50.8005 124.412C52.3025 124.412 53.7831 124.767 55.1215 125.449L78.5486 138.974C79.1895 139.313 79.722 139.825 80.0852 140.452C80.7238 139.239 80.2107 137.865 78.5486 136.905L55.1216 123.379C53.7832 122.698 52.3026 122.342 50.8006 122.342C49.2986 122.342 47.8179 122.698 46.4795 123.379C44.8347 124.335 44.3354 125.7 44.9712 126.907C45.3275 126.289 45.85 125.784 46.4794 125.449V125.449Z" fill="#1F56A3"/>
<path d="M68.1255 140.866L68.1341 136.333C68.1831 136.876 68.3762 137.396 68.6934 137.839C69.0107 138.282 69.4405 138.632 69.9385 138.854C71.2774 139.536 72.7588 139.893 74.2617 139.893C75.7646 139.893 77.2463 139.538 78.5855 138.856C79.0747 138.636 79.4968 138.29 79.8088 137.854C80.1207 137.418 80.3113 136.906 80.3612 136.372L80.3525 139.427C80.3026 139.961 80.112 140.472 79.8001 140.909C79.4882 141.345 79.0661 141.691 78.5769 141.911C77.2376 142.593 75.7559 142.948 74.2531 142.948C72.7502 142.947 71.2687 142.591 69.9299 141.908L68.1255 140.866Z" fill="#50E6FF"/>
<path d="M78.5526 133.848C80.9498 135.232 80.9672 137.472 78.5856 138.856C77.2463 139.538 75.7646 139.893 74.2617 139.893C72.7588 139.893 71.2774 139.536 69.9386 138.854C67.5461 137.472 67.5288 135.232 69.9104 133.848C71.2488 133.166 72.7295 132.811 74.2315 132.811C75.7335 132.811 77.2142 133.166 78.5526 133.848V133.848Z" fill="#9CEBFF"/>
<path opacity="0.3" d="M85.6137 118.732C80.9918 116.064 73.5246 116.064 68.9327 118.732C64.3408 121.401 64.3652 125.726 68.987 128.395C71.5705 129.71 74.4285 130.396 77.3276 130.396C80.2267 130.396 83.0847 129.71 85.6681 128.395C90.26 125.726 90.2357 121.401 85.6137 118.732ZM80.7564 125.559C79.6897 126.103 78.5092 126.387 77.3116 126.387C76.114 126.387 74.9334 126.103 73.8668 125.559C71.9559 124.456 71.9424 122.669 73.8409 121.566C74.909 121.022 76.0905 120.739 77.2891 120.739C78.4877 120.739 79.6693 121.022 80.7374 121.566C82.6484 122.669 82.6549 124.456 80.7564 125.559Z" fill="#003067"/>
<path d="M85.6134 112.959L85.6074 115.16L80.7314 117.994L80.7374 115.792L85.6134 112.959Z" fill="#50E6FF"/>
<path d="M72.4192 119.975L72.4254 117.773C72.4652 117.347 72.6171 116.94 72.8658 116.592C73.1145 116.244 73.451 115.968 73.841 115.793C74.9091 115.249 76.0907 114.965 77.2893 114.965C78.4879 114.965 79.6695 115.249 80.7376 115.793L80.7313 117.994C79.6632 117.451 78.4816 117.167 77.283 117.167C76.0844 117.167 74.9028 117.451 73.8347 117.994C73.4447 118.17 73.1082 118.446 72.8596 118.794C72.6109 119.142 72.4589 119.549 72.4192 119.975V119.975Z" fill="#32BEDD"/>
<path d="M82.1756 117.801L82.1693 120.003C82.1303 119.57 81.9765 119.156 81.7236 118.803C81.4708 118.45 81.1282 118.171 80.7313 117.994L80.7376 115.793C81.1345 115.969 81.4771 116.248 81.7299 116.601C81.9827 116.954 82.1366 117.368 82.1756 117.801V117.801Z" fill="#1F56A3"/>
<path d="M89.0962 117.824L89.09 120.025C89.085 121.763 87.9431 123.497 85.6619 124.823C83.1016 126.193 80.2324 126.882 77.3292 126.824L77.3355 124.622C80.2386 124.68 83.1078 123.991 85.6682 122.621C87.9494 121.295 89.0913 119.561 89.0962 117.824Z" fill="#1F56A3"/>
<path d="M85.6138 112.959C90.2357 115.627 90.26 119.953 85.6682 122.621C83.1078 123.991 80.2385 124.68 77.3354 124.622L77.3163 120.614C78.515 120.636 79.6994 120.351 80.7565 119.785C82.6549 118.682 82.6483 116.896 80.7375 115.793L85.6138 112.959Z" fill="#0078D4"/>
<path d="M77.3354 124.622L77.3294 126.824L77.3104 122.815L77.3164 120.614L77.3354 124.622Z" fill="#0078D4"/>
<path d="M65.4984 119.958L65.5047 117.756C65.4997 119.516 66.6613 121.278 68.9871 122.621C71.5537 123.989 74.4275 124.678 77.3354 124.622L77.3292 126.824C74.4213 126.88 71.5475 126.191 68.9809 124.823C66.6551 123.48 65.4935 121.718 65.4984 119.958Z" fill="#32BEDD"/>
<path d="M85.6138 112.959L80.7375 115.793C79.6694 115.249 78.4878 114.965 77.2892 114.965C76.0906 114.965 74.909 115.249 73.8409 115.793C71.9425 116.896 71.956 118.682 73.8668 119.785C74.9275 120.35 76.1147 120.635 77.3163 120.614L77.3354 124.622C74.4275 124.678 71.5537 123.989 68.9871 122.621C64.3651 119.953 64.3408 115.627 68.9327 112.959C73.5246 110.29 80.9918 110.29 85.6138 112.959Z" fill="#50E6FF"/>
</g>
<defs>
<linearGradient id="paint0_linear_926_605" x1="80.0339" y1="9.26959" x2="80.0339" y2="180.685" gradientUnits="userSpaceOnUse">
<stop stop-color="#00ABDE"/>
<stop offset="1" stop-color="#007ED8"/>
</linearGradient>
<linearGradient id="paint1_linear_926_605" x1="77.3129" y1="88.7211" x2="123.672" y2="88.7211" gradientUnits="userSpaceOnUse">
<stop stop-color="#005BA1"/>
<stop offset="0.26" stop-color="#00589D"/>
<stop offset="0.53" stop-color="#004F90"/>
<stop offset="0.8" stop-color="#003F7C"/>
<stop offset="1" stop-color="#003067"/>
</linearGradient>
<linearGradient id="paint2_linear_926_605" x1="98.5021" y1="121.015" x2="98.5021" y2="58.2916" gradientUnits="userSpaceOnUse">
<stop stop-color="#003067"/>
<stop offset="0.2" stop-color="#003F7C"/>
<stop offset="0.47" stop-color="#004F90"/>
<stop offset="0.74" stop-color="#00589D"/>
<stop offset="1" stop-color="#005BA1"/>
</linearGradient>
<linearGradient id="paint3_linear_926_605" x1="91.4604" y1="122.804" x2="91.4604" y2="70.3835" gradientUnits="userSpaceOnUse">
<stop stop-color="#004DAE"/>
<stop offset="0.21" stop-color="#0061C4"/>
<stop offset="0.51" stop-color="#0078DD"/>
<stop offset="0.78" stop-color="#0086EC"/>
<stop offset="1" stop-color="#008BF1"/>
</linearGradient>
<linearGradient id="paint4_linear_926_605" x1="66.2876" y1="95.6051" x2="120.521" y2="95.6051" gradientUnits="userSpaceOnUse">
<stop stop-color="#008BF1"/>
<stop offset="0.22" stop-color="#0086EC"/>
<stop offset="0.49" stop-color="#0078DD"/>
<stop offset="0.79" stop-color="#0061C4"/>
<stop offset="1" stop-color="#004DAE"/>
</linearGradient>
<clipPath id="clip0_926_605">
<rect width="159.356" height="188" fill="white" transform="translate(0.355469 0.991211)"/>
</clipPath>
</defs>
</svg>
