<svg width="160" height="189" viewBox="0 0 160 189" fill="none" xmlns="http://www.w3.org/2000/svg">
<g clip-path="url(#clip0_926_348)">
<path d="M80.0334 188.991C83.1147 188.986 86.1351 188.133 88.7638 186.525L150.739 148.865C153.52 147.102 155.804 144.657 157.375 141.762C158.945 138.868 159.749 135.62 159.711 132.327V57.6124C159.747 54.32 158.942 51.0729 157.372 48.1788C155.802 45.2846 153.519 42.8393 150.739 41.0746L88.7638 3.4145C86.1303 1.8293 83.1147 0.991699 80.041 0.991699C76.9672 0.991699 73.9516 1.8293 71.3182 3.4145L9.34307 41.0897C6.55997 42.8521 4.27342 45.2965 2.70046 48.1908C1.12749 51.0852 0.32029 54.3335 0.355473 57.6275V132.327C0.33694 135.111 0.911657 137.866 2.04135 140.41C3.17104 142.954 4.82977 145.228 6.90707 147.08V147.106L71.3182 186.54C73.9438 188.14 76.9586 188.988 80.0334 188.991V188.991ZM80.6812 7.94388C82.6331 7.94388 85.1103 9.1568 86.8201 10.2008L147.577 47.3951C151.329 49.6798 153.445 56.2759 153.445 61.0269L152.813 132.327C152.813 137.078 149.614 141.346 145.861 143.631L85.4659 180.012C82.0313 182.1 79.2409 182.1 75.8062 180.012L14.5982 143.54C10.8458 141.256 7.82738 137.063 7.82738 132.327V58.6797C7.85989 56.3145 8.46888 53.993 9.60155 51.9164C10.7342 49.8399 12.3563 48.0709 14.3273 46.7631L74.9035 10.2008C76.6132 9.1568 78.7294 7.94388 80.6812 7.94388Z" fill="#F2F1F0"/>
<path fill-rule="evenodd" clip-rule="evenodd" d="M87.9319 11.5245C85.561 10.051 82.8252 9.27008 80.0337 9.27008C77.2422 9.27008 74.5064 10.051 72.1355 11.5245L16.0008 45.8559C13.4748 47.4676 11.4025 49.6979 9.98047 52.3354C8.55847 54.9729 7.83398 57.9299 7.87573 60.926V129.029C7.83581 132.025 8.56109 134.981 9.98292 137.618C11.4048 140.256 13.4761 142.486 16.0008 144.099L72.1355 178.43C74.5063 179.904 77.2422 180.685 80.0337 180.685C82.8253 180.685 85.5612 179.904 87.9319 178.43L144.066 144.099C146.591 142.486 148.663 140.256 150.085 137.619C151.507 134.981 152.232 132.025 152.192 129.029V60.926C152.23 57.9305 151.504 54.9747 150.082 52.3378C148.66 49.7009 146.59 47.4701 144.066 45.8559L87.9319 11.5245Z" fill="url(#paint0_linear_926_348)"/>
<path fill-rule="evenodd" clip-rule="evenodd" d="M80.0338 10.746C81.717 10.746 83.5997 11.6117 85.6665 12.8698L144.132 48.4122C146.024 49.6256 147.573 51.3025 148.634 53.2836C149.694 55.2646 150.231 57.4839 150.192 59.7307V130.209C150.231 132.456 149.694 134.675 148.634 136.656C147.573 138.637 146.024 140.314 144.132 141.527L85.6675 177.069L85.6665 177.07C83.9963 178.21 82.0512 178.881 80.0338 179.013C78.0163 178.881 76.0713 178.21 74.4011 177.07L74.4001 177.069L15.9378 141.529L15.9356 141.528C14.1473 140.565 12.6222 139.177 11.4938 137.488C10.5169 135.885 9.87578 133.67 9.87578 130.209V59.7307C9.83704 57.484 10.3734 55.2647 11.434 53.2837C12.4945 51.3027 14.044 49.6258 15.9352 48.4123L74.392 12.8752L74.3961 12.8728C76.4799 11.6198 78.3401 10.746 80.0338 10.746ZM87.7463 9.45302L146.21 44.9943C148.689 46.5643 150.723 48.7431 152.121 51.3228C153.518 53.9026 154.231 56.7972 154.192 59.7308V130.209C154.231 133.143 153.518 136.038 152.121 138.617C150.723 141.197 148.688 143.376 146.21 144.946L87.7453 180.487C85.4511 182.012 82.7857 182.885 80.0338 183.013C77.2819 182.885 74.6164 182.012 72.3222 180.487H72.3213L13.8575 144.945L13.855 144.944C11.5197 143.651 9.53644 141.806 8.07828 139.57C6.4837 136.717 5.72068 133.474 5.87578 130.209V59.7307C5.83672 56.7971 6.54983 53.9024 7.94712 51.3227C9.34441 48.7429 11.3793 46.5641 13.8577 44.9941L72.3222 9.45237L72.3304 9.44749C74.421 8.19008 77.1289 6.74603 80.0338 6.74603C82.92 6.74603 85.6371 8.16911 87.7463 9.45297V9.45302Z" fill="#0078D4"/>
<path opacity="0.2" d="M139.965 133.018L80.4154 167.625L20.4764 133.019L80.0264 98.4117L139.965 133.018Z" fill="#003067"/>
<path d="M140.956 121.641L80.2334 156.929L19.1224 121.646L79.8444 86.3577L140.956 121.641Z" fill="#1B93EB"/>
<path d="M140.956 121.641L140.944 125.747L80.2224 161.035L80.2334 156.929L140.956 121.641Z" fill="#1F56A3"/>
<path d="M80.2335 156.929L80.2225 161.035L19.1105 125.752L19.1225 121.646L80.2335 156.929Z" fill="#0078D4"/>
<path d="M29.0914 121.634L79.8524 92.1347L130.986 121.657L80.2264 151.156L29.0914 121.634Z" stroke="url(#paint1_radial_926_348)" stroke-width="0.75" stroke-miterlimit="10"/>
<path d="M39.0675 121.62L79.8605 97.9137L121.01 121.672L80.2185 145.378L39.0675 121.62Z" stroke="url(#paint2_radial_926_348)" stroke-width="0.75" stroke-miterlimit="10"/>
<path d="M49.0435 121.606L79.8685 103.692L111.035 121.686L80.2115 139.6L49.0435 121.606Z" stroke="url(#paint3_radial_926_348)" stroke-width="0.75" stroke-miterlimit="10"/>
<path d="M81.4137 51.3917L79.2283 52.6616C80.6756 51.8205 82.6805 51.9384 84.8931 53.2159C85.8391 53.7703 86.713 54.4394 87.495 55.208L89.6803 53.938C88.8983 53.1695 88.0244 52.5004 87.0785 51.946C84.8657 50.6684 82.8608 50.5506 81.4137 51.3917Z" fill="#32BEDD"/>
<path d="M134.856 83.3807C134.878 75.3964 129.274 65.6789 122.326 61.6672C121.444 61.1452 120.503 60.7284 119.524 60.4252C116.648 53.5474 111.63 47.2209 105.879 43.9007C101.389 41.3082 97.3206 41.066 94.3822 42.7737L92.1968 44.0436C95.1354 42.3359 99.2034 42.5783 103.694 45.1706C109.444 48.4909 114.463 54.8173 117.338 61.6952C118.318 61.9983 119.258 62.4151 120.141 62.9371C127.089 66.9488 132.693 76.6663 132.67 84.6506C132.671 85.5183 132.592 86.3842 132.435 87.2375V87.2375C132.425 87.3568 132.384 87.4818 132.364 87.6184C132.138 88.6385 131.765 89.6202 131.256 90.5325C131.196 90.6234 131.126 90.7085 131.066 90.7993C130.533 91.5877 129.83 92.2474 129.009 92.7303L131.194 91.4603C132.015 90.9774 132.718 90.3178 133.252 89.5293C133.312 89.4386 133.381 89.3534 133.441 89.2626C133.95 88.3503 134.324 87.3685 134.55 86.3483C134.57 86.2119 134.61 86.087 134.62 85.9677V85.9676C134.778 85.1143 134.856 84.2484 134.856 83.3807V83.3807Z" fill="#32BEDD"/>
<path d="M103.694 45.1706C109.444 48.4908 114.463 54.8174 117.338 61.6951C118.318 61.9983 119.258 62.4151 120.141 62.9371C127.089 66.9488 132.693 76.6663 132.67 84.6506C132.671 85.5183 132.592 86.3842 132.435 87.2375C132.425 87.3569 132.385 87.4819 132.364 87.6183C132.138 88.6385 131.765 89.6202 131.256 90.5326C131.196 90.6234 131.126 90.7086 131.066 90.7993C128.886 93.9608 124.77 94.5919 120.049 91.866L84.0496 70.9908C80.0422 68.21 76.8957 62.5086 76.9092 57.7544C76.9235 52.7159 80.4984 50.6786 84.8931 53.2159C85.8391 53.7703 86.713 54.4394 87.495 55.2079C87.4759 54.9349 87.4766 54.6847 87.4773 54.4344C87.5065 44.1527 94.7655 40.016 103.694 45.1706Z" fill="url(#paint4_linear_926_348)"/>
<path opacity="0.2" d="M78.5479 95.8475L123.162 121.606C123.29 121.68 123.397 121.786 123.471 121.914C123.545 122.042 123.584 122.187 123.584 122.335C123.584 122.483 123.546 122.629 123.472 122.757C123.398 122.885 123.292 122.992 123.164 123.066L93.9886 140.021C93.7185 140.159 93.4199 140.231 93.1168 140.231C92.8138 140.231 92.515 140.16 92.2445 140.024L48.1137 114.545C48.0086 114.509 47.9174 114.441 47.8528 114.35C47.7883 114.26 47.7535 114.151 47.7533 114.04C47.7531 113.929 47.7876 113.821 47.852 113.73C47.9163 113.64 48.0073 113.571 48.1123 113.535L78.5479 95.8475Z" fill="#003067"/>
<path d="M128.507 104.189L83.9699 78.4748C83.7634 78.3693 83.5347 78.3142 83.3028 78.3142C83.0708 78.3142 82.8422 78.3693 82.6356 78.4748L82.3357 78.6491L78.5478 80.8504L48.108 98.5399C48.0036 98.5769 47.9133 98.6455 47.8496 98.7362C47.786 98.8268 47.7521 98.935 47.7527 99.0458C47.7533 99.1566 47.7884 99.2644 47.8531 99.3544C47.9177 99.4443 48.0088 99.5119 48.1136 99.5477L92.2444 125.027C92.5141 125.163 92.8121 125.234 93.1144 125.234C93.4166 125.234 93.7147 125.163 93.9844 125.027L124.424 107.337L128.512 104.961C128.592 104.933 128.661 104.881 128.71 104.811C128.759 104.741 128.785 104.658 128.784 104.573C128.784 104.489 128.757 104.406 128.707 104.337C128.658 104.268 128.588 104.216 128.507 104.189V104.189ZM85.5139 80.892C85.1563 80.7012 84.7559 80.6049 84.3507 80.6121C84.7559 80.6049 85.1563 80.7012 85.5139 80.892V80.892Z" fill="#F2F2F2"/>
<path d="M85.514 80.892C85.6538 80.9393 85.7755 81.029 85.8619 81.1488C85.9483 81.2685 85.9952 81.4122 85.996 81.5599C85.9969 81.7075 85.9516 81.8518 85.8665 81.9725C85.7815 82.0932 85.6609 82.1843 85.5215 82.2332C85.1625 82.4177 84.7647 82.5143 84.361 82.515C83.9573 82.5156 83.5592 82.4203 83.1995 82.237C82.5433 81.8581 82.54 81.2671 83.1855 80.892C83.546 80.708 83.945 80.6121 84.3497 80.6121C84.7545 80.6121 85.1534 80.708 85.514 80.892Z" fill="#50E6FF"/>
<path d="M128.508 104.189C128.588 104.216 128.658 104.268 128.707 104.337C128.757 104.406 128.784 104.489 128.784 104.573C128.785 104.658 128.759 104.741 128.71 104.811C128.661 104.881 128.592 104.933 128.512 104.961L124.424 107.337L78.5479 80.8503L82.3357 78.6491L82.6356 78.4748C82.8421 78.3693 83.0708 78.3142 83.3028 78.3142C83.5347 78.3142 83.7634 78.3693 83.9699 78.4748L128.508 104.189ZM83.1996 82.237C83.5593 82.4203 83.9574 82.5156 84.3611 82.515C84.7648 82.5143 85.1625 82.4177 85.5216 82.2332C85.6609 82.1843 85.7815 82.0932 85.8666 81.9725C85.9517 81.8518 85.9969 81.7075 85.9961 81.5599C85.9953 81.4122 85.9484 81.2685 85.862 81.1488C85.7756 81.029 85.6539 80.9393 85.514 80.892C85.1535 80.708 84.7545 80.6121 84.3498 80.6121C83.945 80.6121 83.5461 80.708 83.1855 80.892C82.5401 81.2671 82.5434 81.858 83.1996 82.237Z" fill="#0078D4"/>
<path d="M128.512 104.961L124.424 107.337L124.417 109.85L128.505 107.475C128.58 107.441 128.645 107.387 128.693 107.32C128.741 107.253 128.77 107.174 128.777 107.091L128.784 104.578C128.777 104.66 128.748 104.739 128.7 104.806C128.652 104.874 128.587 104.927 128.512 104.961V104.961Z" fill="#1F56A3"/>
<path d="M93.9844 125.027C93.7146 125.163 93.4166 125.234 93.1144 125.234C92.8121 125.234 92.5141 125.163 92.2444 125.027L48.1137 99.5478C48.0138 99.5031 47.9276 99.4324 47.8642 99.3432C47.8007 99.254 47.7623 99.1494 47.7529 99.0404L47.7456 101.554C47.7551 101.663 47.7936 101.767 47.857 101.857C47.9205 101.946 48.0067 102.017 48.1066 102.061L92.2374 127.54C92.5072 127.677 92.8052 127.748 93.1074 127.748C93.4096 127.748 93.7076 127.677 93.9774 127.54L124.417 109.85L124.424 107.337L93.9844 125.027Z" fill="#E8E8E8"/>
<path opacity="0.2" d="M80.7361 105.885C80.9626 105.988 81.1581 106.148 81.303 106.35C81.4479 106.551 81.5371 106.788 81.5615 107.035C81.5665 107.926 80.3214 108.649 78.7753 108.654C78.085 108.666 77.4031 108.501 76.7941 108.176C76.5679 108.074 76.3722 107.914 76.2263 107.713C76.0804 107.512 75.9894 107.277 75.9621 107.03C75.9658 106.134 77.2109 105.411 78.7483 105.411C79.4406 105.396 80.125 105.56 80.7361 105.885V105.885ZM102.043 106.443C102.023 102.881 99.5128 99.6565 95.4705 97.3227C90.6245 94.7356 85.1958 93.4351 79.7035 93.5455C78.3499 93.5464 76.9973 93.6207 75.6517 93.7682C74.8833 93.8491 74.3878 94.2691 74.5213 94.7093C74.5951 94.8944 74.734 95.0461 74.9119 95.1358C75.2948 95.3361 75.7296 95.4151 76.1585 95.362C77.3387 95.2313 78.5253 95.1654 79.7127 95.1647C84.515 95.0659 89.2622 96.2021 93.4994 98.4643C97.0345 100.505 99.2298 103.326 99.2475 106.443C99.2515 107.147 99.1433 107.847 98.9271 108.518C98.8425 108.792 99.0036 109.055 99.318 109.237C99.5472 109.362 99.7994 109.439 100.059 109.464C100.82 109.54 101.543 109.251 101.68 108.816C101.923 108.049 102.045 107.248 102.043 106.443V106.443ZM90.793 100.107C87.5232 98.3611 83.8601 97.4835 80.1542 97.558C78.5843 97.5595 77.0178 97.7051 75.4745 97.9932C74.7415 98.1349 74.3422 98.5903 74.5892 99.0152C74.6737 99.1499 74.7918 99.2602 74.9318 99.3355C75.3705 99.5617 75.8733 99.6308 76.3567 99.5314C77.6119 99.2962 78.8862 99.1776 80.1633 99.1771C83.1797 99.1192 86.1607 99.8349 88.822 101.256C91.0425 102.538 92.4218 104.308 92.4328 106.261C92.4223 107.044 92.21 107.811 91.8164 108.487C91.6516 108.783 91.8043 109.097 92.1663 109.306C92.3392 109.402 92.5269 109.469 92.7218 109.504C93.0335 109.59 93.363 109.587 93.6729 109.495C93.9828 109.403 94.2606 109.225 94.4747 108.983C94.9531 108.155 95.2124 107.218 95.2281 106.261C95.2146 103.857 93.5208 101.682 90.793 100.107ZM85.6189 103.114C83.5542 102.012 81.2411 101.458 78.9011 101.505C77.7349 101.504 76.5723 101.635 75.4353 101.894C74.7112 102.061 74.3644 102.527 74.6462 102.942C74.7288 103.056 74.836 103.151 74.9601 103.219C75.4217 103.455 75.9521 103.52 76.4571 103.402C77.2619 103.219 78.0846 103.125 78.9101 103.124C80.5583 103.091 82.1873 103.482 83.6413 104.259C84.1821 104.503 84.6496 104.885 84.9973 105.365C85.345 105.846 85.5608 106.41 85.6232 107C85.6063 107.516 85.4424 108.016 85.1509 108.442C84.9452 108.75 85.0859 109.085 85.4686 109.306C85.6197 109.391 85.7825 109.452 85.9517 109.489C86.2664 109.58 86.5997 109.585 86.9171 109.504C87.2346 109.423 87.5246 109.259 87.7573 109.029C88.1734 108.432 88.4035 107.726 88.4185 107C88.4101 105.482 87.3411 104.108 85.6189 103.114Z" fill="#767676"/>
<path d="M92.4328 97.5705C92.4217 95.6174 91.0425 93.8477 88.822 92.5657C86.1607 91.1445 83.1797 90.4288 80.1632 90.4867C78.8861 90.4871 77.6118 90.6057 76.3566 90.8409C75.8733 90.9403 75.3705 90.8712 74.9318 90.6451C74.7918 90.5699 74.6737 90.4595 74.5892 90.3248C74.542 90.2469 74.5168 90.1577 74.516 90.0666L74.5098 92.3045C74.5104 92.3955 74.5356 92.4847 74.5828 92.5627C74.6673 92.6973 74.7854 92.8077 74.9254 92.8829C75.364 93.1091 75.8668 93.1782 76.3502 93.0788C77.6054 92.8436 78.8797 92.725 80.1568 92.7245C83.1733 92.6666 86.1543 93.3824 88.8156 94.8035C91.0361 96.0855 92.4153 97.8553 92.4264 99.8084L92.4328 97.5705Z" fill="#1F56A3"/>
<path d="M99.242 100.103L99.2483 97.8647C99.2485 97.8272 99.2482 97.7898 99.2475 97.7526C99.2299 94.6357 97.0345 91.8148 93.4994 89.7739C89.2622 87.5117 84.515 86.3755 79.7127 86.4743C78.5253 86.4749 77.3388 86.5408 76.1586 86.6716C75.7297 86.7246 75.2949 86.6457 74.912 86.4453C74.7341 86.3556 74.5951 86.2039 74.5214 86.0189C74.5069 85.972 74.4995 85.9232 74.4996 85.8741L74.4934 88.1119C74.4933 88.161 74.5006 88.2099 74.515 88.2568C74.5888 88.4418 74.7277 88.5935 74.9056 88.6832C75.2885 88.8836 75.7234 88.9625 76.1523 88.9094C77.3325 88.7787 78.519 88.7128 79.7065 88.7121C84.5087 88.6134 89.2558 89.7495 93.493 92.0117C97.0282 94.0527 99.2235 96.8735 99.2411 99.9905C99.2418 100.028 99.2421 100.065 99.242 100.103Z" fill="#1F56A3"/>
<path d="M85.6234 98.3093C85.5609 97.7192 85.3451 97.1558 84.9973 96.675C84.6496 96.1942 84.1821 95.8128 83.6413 95.5687C82.1874 94.7918 80.5584 94.4009 78.9103 94.4334C78.0848 94.435 77.2621 94.5283 76.4572 94.7118C75.9522 94.8298 75.4218 94.7648 74.9602 94.5284C74.8361 94.4607 74.7288 94.366 74.6462 94.2513C74.584 94.1643 74.5498 94.0603 74.5484 93.9533L74.542 96.1913C74.5435 96.2982 74.5777 96.4022 74.6398 96.4892C74.7224 96.6039 74.8297 96.6986 74.9538 96.7663C75.4154 97.0027 75.9459 97.0677 76.4508 96.9496C77.2557 96.7662 78.0784 96.6728 78.9039 96.6713C80.5521 96.6387 82.1811 97.0296 83.635 97.8066C84.1758 98.0507 84.6433 98.4321 84.991 98.9129C85.3387 99.3937 85.5546 99.9571 85.617 100.547L85.6234 98.3093Z" fill="#1F56A3"/>
<path d="M78.7752 99.9639C78.0848 99.9755 77.4029 99.811 76.7939 99.4857C76.5677 99.3833 76.372 99.2238 76.2262 99.0229C76.0803 98.8219 75.9893 98.5864 75.962 98.3396L75.9558 100.578C75.983 100.824 76.0741 101.06 76.2199 101.261C76.3658 101.462 76.5615 101.621 76.7877 101.724C77.3968 102.049 78.0786 102.213 78.769 102.202C80.315 102.197 81.5602 101.473 81.5552 100.583L81.5615 98.3447C81.5664 99.2352 80.3214 99.9588 78.7752 99.9639Z" fill="#1F56A3"/>
<path d="M101.68 100.126C101.543 100.561 100.82 100.849 100.059 100.773C99.7994 100.749 99.5472 100.671 99.318 100.546C99.2044 100.496 99.1064 100.416 99.0338 100.314C98.9612 100.213 98.9167 100.095 98.9048 99.9712L98.8984 102.209C98.9103 102.333 98.9548 102.451 99.0274 102.552C99.1 102.653 99.1981 102.733 99.3116 102.784C99.5408 102.909 99.793 102.986 100.053 103.011C100.813 103.087 101.537 102.799 101.674 102.364C101.904 101.634 102.026 100.876 102.037 100.111L102.044 97.8734C102.032 98.6378 101.91 99.3965 101.68 100.126V100.126Z" fill="#1F56A3"/>
<path d="M92.7218 100.814C92.527 100.779 92.3392 100.712 92.1662 100.616C92.0522 100.565 91.9538 100.484 91.8807 100.383C91.8077 100.282 91.7627 100.163 91.7502 100.039L91.744 102.277C91.7564 102.401 91.8014 102.52 91.8744 102.621C91.9475 102.722 92.0459 102.803 92.1599 102.854C92.3329 102.95 92.5206 103.017 92.7155 103.052C93.0271 103.138 93.3566 103.134 93.6665 103.042C93.9764 102.95 94.2542 102.773 94.4683 102.531C94.9468 101.702 95.2061 100.765 95.2218 99.8083L95.2282 97.5705C95.2125 98.5272 94.9531 99.4641 94.4747 100.293C94.2606 100.535 93.9828 100.712 93.6729 100.804C93.363 100.896 93.0335 100.9 92.7218 100.814V100.814Z" fill="#1F56A3"/>
<path d="M85.9518 100.799C85.7826 100.762 85.6199 100.7 85.4687 100.616C85.3554 100.565 85.2576 100.485 85.1852 100.384C85.1128 100.283 85.0683 100.165 85.0564 100.041L85.0502 102.279C85.062 102.403 85.1064 102.521 85.1788 102.622C85.2512 102.723 85.3491 102.803 85.4624 102.854C85.6135 102.938 85.7763 103 85.9454 103.037C86.2601 103.128 86.5934 103.133 86.9109 103.052C87.2283 102.971 87.5184 102.807 87.7511 102.576C88.162 101.987 88.3918 101.29 88.4123 100.572L88.4186 98.3341C88.3981 99.0523 88.1683 99.7488 87.7574 100.338C87.5247 100.569 87.2347 100.733 86.9172 100.814C86.5998 100.895 86.2665 100.89 85.9518 100.799V100.799Z" fill="#1F56A3"/>
<path d="M80.7361 97.1949C80.9626 97.2972 81.1581 97.4573 81.303 97.6591C81.4479 97.861 81.5371 98.0975 81.5615 98.3447C81.5665 99.2352 80.3214 99.9588 78.7753 99.9639C78.085 99.9756 77.4031 99.811 76.7941 99.4858C76.5679 99.3834 76.3722 99.2239 76.2263 99.0229C76.0804 98.8219 75.9894 98.5865 75.9621 98.3397C75.9658 97.4441 77.2109 96.7205 78.7483 96.7205C79.4406 96.706 80.125 96.8693 80.7361 97.1949V97.1949ZM102.043 97.7526C102.023 94.1905 99.5128 90.9661 95.4705 88.6322C90.6245 86.0452 85.1958 84.7447 79.7035 84.8551C78.3499 84.856 76.9973 84.9303 75.6517 85.0778C74.8833 85.1587 74.3878 85.5787 74.5213 86.0189C74.5951 86.204 74.734 86.3557 74.9119 86.4454C75.2948 86.6457 75.7296 86.7247 76.1585 86.6716C77.3387 86.5408 78.5253 86.475 79.7127 86.4743C84.515 86.3755 89.2622 87.5117 93.4994 89.7739C97.0345 91.8149 99.2298 94.6357 99.2475 97.7527C99.2515 98.4568 99.1434 99.1571 98.9272 99.8272C98.8425 100.102 99.0037 100.365 99.3181 100.546C99.5473 100.671 99.7994 100.749 100.059 100.773C100.82 100.849 101.543 100.561 101.68 100.126C101.923 99.3582 102.045 98.5576 102.043 97.7526V97.7526ZM90.793 91.4164C87.5232 89.6707 83.8601 88.7931 80.1542 88.8676C78.5843 88.869 77.0178 89.0147 75.4745 89.3028C74.7415 89.4445 74.3422 89.8999 74.5892 90.3248C74.6737 90.4595 74.7918 90.5698 74.9318 90.6451C75.3705 90.8713 75.8733 90.9404 76.3567 90.8409C77.6119 90.6057 78.8862 90.4872 80.1633 90.4867C83.1797 90.4287 86.1607 91.1445 88.822 92.5657C91.0425 93.8477 92.4218 95.6174 92.4328 97.5705C92.4223 98.3533 92.21 99.1201 91.8164 99.7969C91.6516 100.093 91.8043 100.407 92.1663 100.616C92.3392 100.712 92.5269 100.779 92.7218 100.814C93.0335 100.9 93.363 100.897 93.6729 100.804C93.9828 100.712 94.2606 100.535 94.4747 100.293C94.9531 99.4641 95.2124 98.5272 95.2281 97.5705C95.2146 95.1671 93.5208 92.9913 90.793 91.4164ZM85.6189 94.4233C83.5542 93.3211 81.2411 92.7671 78.9011 92.8143C77.7349 92.8139 76.5723 92.9446 75.4353 93.2039C74.7112 93.3709 74.3644 93.8364 74.6462 94.2513C74.7288 94.366 74.836 94.4607 74.9601 94.5284C75.4217 94.7648 75.9521 94.8297 76.4571 94.7118C77.2619 94.5283 78.0846 94.4349 78.9101 94.4334C80.5583 94.4008 82.1873 94.7917 83.6413 95.5687C84.1821 95.8128 84.6496 96.1942 84.9973 96.675C85.345 97.1558 85.5608 97.7192 85.6233 98.3093C85.6063 98.8251 85.4425 99.3254 85.151 99.7514C84.9453 100.059 85.086 100.395 85.4686 100.616C85.6198 100.7 85.7826 100.762 85.9518 100.799C86.2665 100.89 86.5998 100.895 86.9172 100.814C87.2346 100.733 87.5247 100.569 87.7574 100.338C88.1735 99.7421 88.4036 99.036 88.4186 98.3092C88.4101 96.7913 87.3411 95.4176 85.6189 94.4233Z" fill="#9CEBFF"/>
<path opacity="0.2" d="M60.5483 131.456C60.7916 131.677 60.7333 131.994 60.4154 132.179L60.0992 132.363C59.71 132.552 59.2618 132.581 58.8517 132.442L57.9546 132.111C57.8465 132.083 57.7337 132.08 57.6243 132.102L56.8971 132.278C56.7957 132.294 56.7037 132.346 56.639 132.426L56.4134 133.028C56.3053 133.184 56.1579 133.307 55.9862 133.387C55.8146 133.467 55.6248 133.5 55.4363 133.483H54.9897C54.7409 133.484 54.4959 133.421 54.2778 133.302C54.1601 133.243 54.0651 133.147 54.0075 133.028L53.7714 132.426C53.7464 132.387 53.7112 132.355 53.6695 132.335C53.6325 132.313 53.5926 132.296 53.551 132.286L52.8163 132.111C52.698 132.081 52.5742 132.081 52.4559 132.111L51.5607 132.441C51.1503 132.58 50.7019 132.551 50.3123 132.362L49.996 132.179C49.6759 131.994 49.6141 131.677 49.8549 131.456L50.4225 130.937C50.4454 130.911 50.4592 130.878 50.4617 130.843C50.4643 130.809 50.4554 130.774 50.4364 130.745L50.1282 130.325C50.1053 130.286 50.0719 130.255 50.032 130.234C49.9824 130.206 49.9284 130.185 49.8721 130.175L48.8335 130.041C48.667 130.02 48.5061 129.967 48.3597 129.885C48.2768 129.849 48.2045 129.792 48.1495 129.72C48.0946 129.648 48.059 129.563 48.0459 129.474L48.0444 129.215C48.043 128.954 48.385 128.705 48.8257 128.647L49.8627 128.514C49.9552 128.5 50.0402 128.455 50.1041 128.386L50.4057 127.962C50.4298 127.933 50.4428 127.895 50.4426 127.857C50.4424 127.818 50.4289 127.781 50.4045 127.752L49.8292 127.233C49.5859 127.012 49.6442 126.695 49.9622 126.51L50.2783 126.326C50.6675 126.137 51.1157 126.109 51.5258 126.247L52.4228 126.579C52.5309 126.606 52.6438 126.609 52.7532 126.587L53.4803 126.411C53.5818 126.396 53.6738 126.343 53.7385 126.263L53.9641 125.661C54.0722 125.506 54.2196 125.382 54.3912 125.302C54.5629 125.222 54.7526 125.189 54.9411 125.207H55.3878C55.6366 125.206 55.8815 125.268 56.0996 125.388C56.2173 125.447 56.3124 125.543 56.37 125.661L56.6042 126.262C56.6299 126.302 56.6657 126.334 56.7079 126.355C56.7452 126.377 56.7858 126.393 56.8283 126.403L57.5593 126.578C57.6781 126.608 57.8026 126.608 57.9215 126.579L58.8186 126.247C59.2286 126.11 59.6762 126.139 60.0652 126.328L60.3815 126.51C60.7016 126.695 60.7634 127.012 60.5225 127.233L59.9549 127.753C59.932 127.779 59.9182 127.811 59.9157 127.846C59.9132 127.881 59.9221 127.915 59.941 127.944L60.2493 128.365C60.2722 128.403 60.3055 128.435 60.3455 128.455C60.3943 128.484 60.4478 128.503 60.5035 128.514L61.5439 128.648C61.7106 128.669 61.8715 128.722 62.0178 128.804C62.1007 128.841 62.1731 128.897 62.2282 128.969C62.2834 129.041 62.3196 129.125 62.3335 129.215L62.3331 129.475C62.3345 129.735 61.9925 129.984 61.5518 130.042L60.5129 130.175C60.4211 130.19 60.3369 130.235 60.2734 130.303L59.9717 130.727C59.9474 130.757 59.9344 130.794 59.935 130.832C59.9355 130.871 59.9496 130.908 59.9747 130.937L60.5483 131.456ZM53.6147 130.259C54.1041 130.508 54.6452 130.637 55.1941 130.637C55.7429 130.637 56.284 130.507 56.7731 130.258C56.9632 130.192 57.1277 130.068 57.2437 129.903C57.3598 129.738 57.4215 129.542 57.4204 129.34C57.4193 129.139 57.3553 128.943 57.2374 128.78C57.1195 128.617 56.9536 128.494 56.7629 128.43C56.2738 128.182 55.7331 128.052 55.1846 128.052C54.6361 128.052 54.0953 128.182 53.6063 128.43C53.416 128.496 53.2512 128.62 53.1349 128.785C53.0185 128.949 52.9565 129.146 52.9574 129.348C52.9583 129.549 53.0222 129.745 53.14 129.909C53.2579 130.072 53.4238 130.195 53.6147 130.259" fill="#003067"/>
<path d="M52.9524 125.675L52.9574 123.909C52.9755 123.714 53.0451 123.526 53.1591 123.367C53.2731 123.207 53.4274 123.08 53.6063 123C54.0953 122.751 54.6361 122.622 55.1846 122.622C55.7331 122.622 56.2738 122.751 56.7629 123C56.9445 123.08 57.1013 123.208 57.2169 123.37C57.3325 123.532 57.4028 123.722 57.4204 123.92L57.4154 125.675L52.9524 125.675Z" fill="url(#paint5_linear_926_348)"/>
<path d="M60.5483 126.026C60.7916 126.247 60.7333 126.564 60.4154 126.749L60.0992 126.933C59.71 127.122 59.2618 127.15 58.8517 127.012L57.9546 126.68C57.8465 126.653 57.7337 126.65 57.6243 126.672L56.8971 126.848C56.7957 126.863 56.7037 126.916 56.639 126.996L56.4134 127.598C56.3053 127.753 56.1579 127.877 55.9862 127.957C55.8146 128.037 55.6248 128.07 55.4363 128.052H54.9897C54.7409 128.053 54.4959 127.991 54.2778 127.871C54.1601 127.812 54.0651 127.716 54.0075 127.598L53.7714 126.996C53.7464 126.956 53.7112 126.925 53.6695 126.904C53.6325 126.882 53.5926 126.866 53.551 126.855L52.8163 126.68C52.698 126.651 52.5742 126.651 52.4559 126.68L51.5607 127.011C51.1503 127.149 50.7019 127.121 50.3123 126.931L49.996 126.749C49.6759 126.564 49.6141 126.247 49.8549 126.026L50.4225 125.506C50.4454 125.48 50.4592 125.448 50.4617 125.413C50.4643 125.379 50.4554 125.344 50.4364 125.315L50.1282 124.894C50.1053 124.856 50.0719 124.824 50.032 124.804C49.9824 124.775 49.9284 124.755 49.8721 124.744L48.8335 124.611C48.667 124.59 48.5061 124.537 48.3597 124.454C48.2768 124.418 48.2045 124.361 48.1495 124.289C48.0946 124.218 48.059 124.133 48.0459 124.043L48.0444 123.784C48.043 123.524 48.385 123.275 48.8257 123.217L49.8627 123.083C49.9552 123.069 50.0402 123.024 50.1041 122.956L50.4057 122.532C50.4298 122.502 50.4428 122.465 50.4426 122.427C50.4424 122.388 50.4289 122.351 50.4045 122.321L49.8292 121.803C49.5859 121.582 49.6442 121.265 49.9622 121.08L50.2783 120.896C50.6675 120.707 51.1157 120.678 51.5258 120.817L52.4228 121.148C52.5309 121.176 52.6438 121.179 52.7532 121.157L53.4803 120.981C53.5818 120.965 53.6738 120.913 53.7385 120.833L53.9641 120.231C54.0722 120.075 54.2196 119.952 54.3912 119.872C54.5629 119.792 54.7526 119.759 54.9411 119.777H55.3878C55.6366 119.775 55.8815 119.838 56.0996 119.957C56.2173 120.016 56.3124 120.113 56.37 120.231L56.6042 120.832C56.6299 120.872 56.6657 120.903 56.7079 120.924C56.7452 120.947 56.7858 120.963 56.8283 120.972L57.5593 121.147C57.6781 121.178 57.8026 121.178 57.9215 121.148L58.8186 120.817C59.2286 120.679 59.6762 120.708 60.0652 120.897L60.3815 121.08C60.7016 121.265 60.7634 121.582 60.5225 121.803L59.9549 122.322C59.932 122.348 59.9182 122.381 59.9157 122.416C59.9132 122.45 59.9221 122.485 59.941 122.514L60.2493 122.934C60.2722 122.973 60.3055 123.004 60.3455 123.025C60.3943 123.053 60.4478 123.073 60.5035 123.083L61.5439 123.218C61.7106 123.239 61.8715 123.292 62.0178 123.374C62.1007 123.41 62.1731 123.467 62.2282 123.539C62.2834 123.611 62.3196 123.695 62.3335 123.784L62.3331 124.044C62.3345 124.305 61.9925 124.554 61.5518 124.612L60.5129 124.744C60.4211 124.76 60.3369 124.805 60.2734 124.873L59.9717 125.297C59.9474 125.326 59.9344 125.364 59.935 125.402C59.9355 125.44 59.9496 125.477 59.9747 125.506L60.5483 126.026ZM53.6147 124.829C54.1041 125.078 54.6452 125.207 55.1941 125.207C55.7429 125.207 56.284 125.077 56.7731 124.828C56.9632 124.761 57.1277 124.637 57.2437 124.473C57.3598 124.308 57.4215 124.111 57.4204 123.91C57.4193 123.709 57.3553 123.513 57.2374 123.35C57.1195 123.186 56.9536 123.064 56.7629 123C56.2738 122.751 55.7331 122.622 55.1846 122.622C54.6361 122.622 54.0953 122.751 53.6063 123C53.416 123.066 53.2512 123.19 53.1348 123.355C53.0185 123.519 52.9565 123.716 52.9574 123.917C52.9583 124.119 53.0222 124.315 53.14 124.478C53.2579 124.642 53.4238 124.765 53.6147 124.829" fill="url(#paint6_linear_926_348)"/>
<path d="M60.664 121.545C60.6613 121.566 60.657 121.585 60.6511 121.605L60.64 121.637C60.6314 121.657 60.6211 121.677 60.6093 121.696C60.6038 121.705 60.5992 121.714 60.5929 121.723C60.5724 121.752 60.549 121.778 60.5231 121.802L60.5226 121.803L59.955 122.322C59.9422 122.335 59.9326 122.35 59.9268 122.367L59.9226 122.386C59.9192 122.398 59.917 122.411 59.9162 122.424C59.9132 122.456 59.9221 122.488 59.9411 122.514L60.2493 122.934C60.2723 122.973 60.3056 123.004 60.3456 123.025C60.3944 123.053 60.4479 123.073 60.5036 123.083L60.6648 123.104L60.6693 121.499L60.6676 121.514C60.6671 121.525 60.6653 121.535 60.664 121.545Z" fill="url(#paint7_linear_926_348)"/>
<path d="M62.3179 124.141C62.2562 124.29 62.14 124.41 61.9929 124.476C61.9353 124.505 61.8754 124.53 61.8139 124.55C61.7287 124.579 61.6409 124.6 61.5517 124.612L60.6791 124.723L60.66 124.726L60.5128 124.744C60.421 124.76 60.3368 124.805 60.2733 124.873L59.9717 125.297C59.9474 125.326 59.9344 125.364 59.9349 125.402C59.9355 125.44 59.9495 125.477 59.9747 125.506L60.5481 126.026C60.7914 126.247 60.7332 126.564 60.4152 126.749L60.0991 126.933C59.7954 127.083 59.4523 127.133 59.1183 127.077L59.0827 127.071C59.0041 127.058 58.9267 127.038 58.8515 127.012L57.9544 126.68C57.9358 126.675 57.9167 126.671 57.8974 126.668C57.8618 126.662 57.8259 126.659 57.7898 126.658C57.7342 126.655 57.6784 126.659 57.6241 126.672L56.8969 126.848C56.8879 126.85 56.8795 126.853 56.8706 126.856C56.7792 126.874 56.6972 126.923 56.6387 126.996L56.4132 127.598C56.3642 127.706 56.2825 127.795 56.1797 127.854C56.0976 127.905 56.0095 127.946 55.9173 127.976C55.762 128.026 55.5996 128.052 55.4361 128.052H54.9895C54.873 128.052 54.757 128.038 54.6438 128.01C54.5719 127.994 54.5013 127.973 54.4326 127.946C54.3792 127.925 54.3274 127.9 54.2776 127.871C54.1599 127.812 54.0648 127.716 54.0072 127.598L53.7711 126.996C53.7462 126.956 53.7109 126.925 53.6693 126.904C53.6323 126.882 53.5924 126.866 53.5508 126.855L53.1834 126.768L52.816 126.68C52.7862 126.672 52.7556 126.666 52.7248 126.663C52.691 126.66 52.657 126.658 52.6231 126.658C52.5912 126.659 52.5594 126.661 52.5277 126.664C52.5032 126.667 52.4791 126.672 52.4557 126.68L51.5605 127.011C51.4816 127.039 51.4002 127.059 51.3176 127.072L51.2806 127.078C51.1962 127.09 51.1112 127.096 51.026 127.095L50.9869 127.094C50.899 127.093 50.8113 127.084 50.7246 127.07L50.7122 127.067C50.5721 127.045 50.4368 126.999 50.3121 126.931L49.9958 126.749C49.6757 126.564 49.6139 126.247 49.8548 126.026L50.4223 125.506C50.4383 125.488 50.4498 125.467 50.4561 125.443C50.4624 125.42 50.4632 125.395 50.4585 125.372L50.4563 125.356C50.4528 125.341 50.446 125.327 50.4365 125.316L50.4363 125.315L50.4342 125.312L50.128 124.894C50.1051 124.856 50.0718 124.825 50.0318 124.804C49.9823 124.775 49.9282 124.755 49.8719 124.744L48.8334 124.611C48.692 124.591 48.5548 124.549 48.4274 124.485C48.4055 124.474 48.3799 124.466 48.3595 124.455C48.272 124.406 48.1945 124.342 48.1312 124.264C48.0787 124.202 48.0486 124.124 48.0457 124.043L48.0321 126.447C48.0452 126.537 48.0808 126.621 48.1357 126.693C48.1907 126.765 48.263 126.822 48.3459 126.858C48.4923 126.941 48.6532 126.994 48.8197 127.015L49.699 127.128L49.6944 128.733C49.7008 128.823 49.7309 128.908 49.7815 128.982C49.832 129.056 49.9013 129.115 49.9822 129.153L50.2985 129.335C50.6881 129.525 51.1365 129.553 51.5469 129.415L52.4421 129.084C52.5604 129.055 52.6842 129.055 52.8025 129.084L53.5372 129.259C53.5788 129.27 53.6187 129.286 53.6557 129.308C53.6974 129.329 53.7326 129.36 53.7576 129.4L53.9937 130.002C54.0513 130.12 54.1463 130.216 54.2641 130.275C54.4822 130.395 54.7271 130.457 54.9759 130.456H55.4226C55.611 130.474 55.8008 130.441 55.9724 130.361C56.1441 130.281 56.2915 130.157 56.3996 130.002L56.6252 129.4C56.6899 129.32 56.7819 129.267 56.8833 129.252L57.6105 129.076C57.7199 129.054 57.8327 129.057 57.9408 129.084L58.8379 129.416C59.248 129.554 59.6962 129.526 60.0854 129.336L60.4016 129.153C60.481 129.115 60.549 129.057 60.5987 128.984C60.6484 128.912 60.678 128.827 60.6846 128.74L60.6891 127.124L61.538 127.016C61.9787 126.958 62.3208 126.709 62.3193 126.448L62.3329 124.044C62.333 124.077 62.3279 124.11 62.3179 124.141V124.141Z" fill="url(#paint8_linear_926_348)"/>
<path d="M49.8627 123.083C49.9551 123.069 50.0402 123.024 50.104 122.956L50.4057 122.532C50.4305 122.501 50.4434 122.462 50.4419 122.423C50.4412 122.41 50.439 122.397 50.4354 122.384L50.4318 122.365C50.4261 122.349 50.4167 122.334 50.4045 122.321L49.8292 121.803C49.8026 121.778 49.7786 121.751 49.7576 121.722C49.7511 121.713 49.7465 121.704 49.7408 121.695C49.7288 121.676 49.7184 121.656 49.7096 121.636C49.705 121.625 49.7016 121.614 49.6981 121.603C49.6921 121.584 49.6877 121.565 49.6849 121.545C49.6833 121.534 49.6817 121.523 49.6812 121.512C49.6808 121.505 49.6791 121.499 49.6792 121.493L49.6746 123.108L49.8627 123.083Z" fill="url(#paint9_linear_926_348)"/>
<path d="M63.1859 134.611C63.3342 134.745 63.2987 134.939 63.1049 135.052L62.9122 135.164C62.675 135.279 62.4019 135.296 62.1519 135.212L61.6052 135.01C61.5393 134.993 61.4705 134.991 61.4039 135.005L60.9607 135.112C60.8989 135.121 60.8428 135.154 60.8034 135.202L60.6659 135.569C60.6 135.664 60.5102 135.739 60.4056 135.788C60.3009 135.837 60.1853 135.857 60.0704 135.846H59.7982C59.6466 135.847 59.4973 135.809 59.3644 135.736C59.2926 135.7 59.2347 135.641 59.1996 135.569L59.0557 135.202C59.0405 135.178 59.019 135.159 58.9936 135.146C58.9711 135.133 58.9468 135.123 58.9214 135.117L58.4736 135.01C58.4015 134.992 58.3261 134.992 58.254 135.01L57.7084 135.211C57.4583 135.296 57.185 135.278 56.9475 135.163L56.7548 135.052C56.5597 134.939 56.522 134.746 56.6688 134.611L57.0147 134.294C57.0287 134.279 57.0371 134.259 57.0386 134.238C57.0401 134.216 57.0347 134.195 57.0232 134.178L56.8353 133.921C56.8213 133.898 56.801 133.879 56.7767 133.866C56.7465 133.849 56.7135 133.837 56.6792 133.83L56.0462 133.748C55.9447 133.736 55.8466 133.703 55.7575 133.653C55.7069 133.631 55.6628 133.597 55.6294 133.553C55.5959 133.509 55.5742 133.457 55.5662 133.403L55.5653 133.245C55.5644 133.086 55.7729 132.934 56.0414 132.899L56.6734 132.818C56.7298 132.809 56.7816 132.782 56.8206 132.74L57.0045 132.482C57.0191 132.463 57.0271 132.441 57.0269 132.417C57.0268 132.394 57.0186 132.371 57.0037 132.353L56.6531 132.037C56.5048 131.903 56.5403 131.709 56.7341 131.597L56.9268 131.485C57.164 131.369 57.4372 131.352 57.6871 131.436L58.2338 131.638C58.2997 131.655 58.3685 131.657 58.4352 131.644L58.8783 131.536C58.9401 131.527 58.9962 131.495 59.0357 131.446L59.1731 131.079C59.239 130.984 59.3289 130.909 59.4335 130.86C59.5381 130.812 59.6537 130.792 59.7686 130.802H60.0408C60.1925 130.802 60.3417 130.839 60.4747 130.912C60.5464 130.948 60.6043 131.007 60.6394 131.079L60.7822 131.445C60.7979 131.47 60.8197 131.489 60.8454 131.502C60.8681 131.515 60.8929 131.525 60.9188 131.531L61.3643 131.638C61.4367 131.656 61.5125 131.656 61.585 131.638L62.1318 131.436C62.3817 131.352 62.6545 131.37 62.8915 131.485L63.0843 131.596C63.2794 131.709 63.317 131.903 63.1703 132.037L62.8243 132.354C62.8104 132.37 62.802 132.39 62.8004 132.411C62.7989 132.432 62.8043 132.453 62.8158 132.47L63.0037 132.727C63.0177 132.75 63.038 132.769 63.0624 132.782C63.0921 132.799 63.1247 132.811 63.1586 132.817L63.7928 132.9C63.8943 132.912 63.9924 132.945 64.0816 132.995C64.1321 133.017 64.1762 133.051 64.2098 133.095C64.2434 133.139 64.2655 133.19 64.2739 133.245L64.2737 133.403C64.2746 133.562 64.0661 133.714 63.7975 133.749L63.1643 133.83C63.1084 133.839 63.0571 133.867 63.0183 133.908L62.8345 134.166C62.8197 134.184 62.8118 134.207 62.8121 134.231C62.8125 134.254 62.8211 134.277 62.8364 134.294L63.1859 134.611ZM58.9602 133.882C59.2584 134.033 59.5883 134.112 59.9228 134.112C60.2573 134.112 60.587 134.033 60.8851 133.881C61.001 133.84 61.1012 133.765 61.1719 133.664C61.2426 133.564 61.2803 133.444 61.2796 133.322C61.2789 133.199 61.2399 133.079 61.1681 132.98C61.0962 132.88 60.9951 132.806 60.8789 132.767C60.5808 132.615 60.2513 132.536 59.917 132.536C59.5827 132.536 59.2531 132.615 58.9551 132.767C58.8391 132.807 58.7387 132.883 58.6678 132.983C58.5969 133.083 58.5591 133.203 58.5596 133.326C58.5602 133.449 58.5991 133.568 58.6709 133.668C58.7427 133.768 58.8439 133.842 58.9602 133.882" fill="url(#paint10_linear_926_348)"/>
<path d="M63.2565 131.88C63.2548 131.893 63.2522 131.905 63.2486 131.917L63.2418 131.936C63.2366 131.948 63.2303 131.96 63.2231 131.972L63.2131 131.988C63.2007 132.006 63.1864 132.022 63.1706 132.037L63.1703 132.037L62.8244 132.354C62.8166 132.362 62.8107 132.371 62.8072 132.381L62.8047 132.393C62.8026 132.4 62.8013 132.408 62.8008 132.416C62.799 132.435 62.8043 132.455 62.8159 132.47L63.0038 132.727C63.0177 132.75 63.0381 132.769 63.0624 132.782C63.0922 132.799 63.1248 132.811 63.1587 132.818L63.2569 132.83L63.2597 131.852L63.2587 131.861L63.2565 131.88Z" fill="url(#paint11_linear_926_348)"/>
<path d="M64.2644 133.462C64.2268 133.553 64.156 133.626 64.0664 133.666C64.0313 133.684 63.9948 133.699 63.9573 133.711C63.9054 133.729 63.8519 133.742 63.7975 133.749L63.2657 133.817L63.2541 133.818L63.1643 133.83C63.1084 133.839 63.0571 133.867 63.0183 133.908L62.8345 134.166C62.8197 134.185 62.8118 134.207 62.8121 134.231C62.8124 134.254 62.821 134.277 62.8363 134.294L63.1858 134.611C63.3341 134.745 63.2986 134.939 63.1048 135.052L62.9122 135.164C62.7271 135.255 62.518 135.286 62.3144 135.252L62.2927 135.248C62.2448 135.24 62.1977 135.228 62.1518 135.212L61.6051 135.01C61.5938 135.007 61.5822 135.004 61.5704 135.002C61.5487 134.999 61.5268 134.997 61.5048 134.996C61.4709 134.994 61.4369 134.997 61.4038 135.005L60.9606 135.112L60.9446 135.117C60.8889 135.128 60.8389 135.158 60.8033 135.202L60.6658 135.569C60.636 135.635 60.5862 135.689 60.5235 135.725C60.4735 135.756 60.4198 135.781 60.3636 135.799C60.2689 135.83 60.17 135.846 60.0704 135.846H59.7981C59.7272 135.846 59.6565 135.837 59.5875 135.82C59.5437 135.811 59.5006 135.797 59.4588 135.781C59.4262 135.768 59.3947 135.753 59.3643 135.736C59.2925 135.7 59.2346 135.641 59.1995 135.569L59.0556 135.202C59.0404 135.178 59.0189 135.159 58.9935 135.146C58.971 135.133 58.9467 135.123 58.9213 135.117L58.6974 135.063L58.4735 135.01C58.4553 135.005 58.4367 135.001 58.4179 134.999C58.3973 134.997 58.3766 134.996 58.3559 134.996C58.3365 134.997 58.3171 134.998 58.2978 135C58.2829 135.002 58.2682 135.005 58.2539 135.01L57.7083 135.211C57.6603 135.228 57.6107 135.241 57.5603 135.248L57.5378 135.252C57.4864 135.26 57.4345 135.263 57.3826 135.263L57.3588 135.262C57.3052 135.261 57.2518 135.256 57.1989 135.247L57.1914 135.246C57.106 135.232 57.0235 135.204 56.9475 135.163L56.7547 135.052C56.5596 134.939 56.522 134.746 56.6687 134.611L57.0146 134.294C57.0243 134.283 57.0314 134.27 57.0352 134.256C57.039 134.242 57.0395 134.227 57.0367 134.212L57.0354 134.202C57.0332 134.194 57.0291 134.185 57.0233 134.178L57.0231 134.178L57.0219 134.176L56.8353 133.921C56.8213 133.898 56.801 133.879 56.7766 133.866C56.7464 133.849 56.7135 133.836 56.6792 133.83L56.0462 133.748C55.9601 133.737 55.8765 133.711 55.7988 133.672C55.7854 133.665 55.7698 133.66 55.7574 133.653C55.7041 133.624 55.6568 133.584 55.6182 133.537C55.5863 133.499 55.5679 133.452 55.5662 133.403L55.5579 134.868C55.5658 134.922 55.5876 134.974 55.621 135.018C55.6545 135.062 55.6986 135.096 55.7491 135.118C55.8383 135.168 55.9364 135.201 56.0379 135.214L56.5738 135.283L56.571 136.261C56.5749 136.315 56.5932 136.368 56.624 136.413C56.6548 136.458 56.6971 136.493 56.7463 136.517L56.9391 136.628C57.1766 136.743 57.4499 136.761 57.7 136.676L58.2456 136.475C58.3177 136.457 58.3931 136.457 58.4652 136.475L58.913 136.582C58.9383 136.588 58.9627 136.598 58.9852 136.611C59.0106 136.624 59.0321 136.643 59.0473 136.667L59.1912 137.034C59.2263 137.106 59.2842 137.165 59.356 137.201C59.4889 137.274 59.6382 137.312 59.7898 137.311H60.062C60.1769 137.322 60.2925 137.302 60.3972 137.253C60.5018 137.204 60.5916 137.129 60.6575 137.034L60.795 136.667C60.8344 136.619 60.8905 136.586 60.9523 136.577L61.3955 136.47C61.4622 136.456 61.5309 136.458 61.5968 136.475L62.1435 136.677C62.3935 136.761 62.6666 136.744 62.9039 136.629L63.0965 136.517C63.1449 136.494 63.1864 136.458 63.2166 136.414C63.2469 136.37 63.265 136.318 63.269 136.265L63.2718 135.28L63.7891 135.214C64.0577 135.179 64.2661 135.027 64.2653 134.868L64.2736 133.403C64.2736 133.423 64.2705 133.443 64.2644 133.462V133.462Z" fill="url(#paint12_linear_926_348)"/>
<path d="M56.6736 132.818C56.7299 132.809 56.7818 132.782 56.8207 132.74L57.0045 132.482C57.0196 132.463 57.0275 132.439 57.0266 132.415C57.0262 132.407 57.0248 132.399 57.0226 132.391L57.0204 132.38C57.0169 132.37 57.0112 132.361 57.0038 132.353L56.6532 132.037C56.6369 132.022 56.6223 132.006 56.6095 131.988L56.5993 131.971C56.592 131.96 56.5856 131.948 56.5802 131.935L56.5732 131.915C56.5696 131.904 56.5669 131.892 56.5652 131.88L56.5629 131.86L56.5616 131.848L56.5588 132.832L56.6736 132.818Z" fill="url(#paint13_linear_926_348)"/>
</g>
<defs>
<linearGradient id="paint0_linear_926_348" x1="80.0339" y1="9.27008" x2="80.0339" y2="180.685" gradientUnits="userSpaceOnUse">
<stop stop-color="#00ABDE"/>
<stop offset="1" stop-color="#007ED8"/>
</linearGradient>
<radialGradient id="paint1_radial_926_348" cx="0" cy="0" r="1" gradientUnits="userSpaceOnUse" gradientTransform="translate(80.0391 121.646) scale(42.2436)">
<stop offset="0.00898" stop-color="#50E6FF"/>
<stop offset="1" stop-color="#1490DF"/>
</radialGradient>
<radialGradient id="paint2_radial_926_348" cx="0" cy="0" r="1" gradientUnits="userSpaceOnUse" gradientTransform="translate(80.0392 121.646) scale(34.0919)">
<stop offset="0.00898" stop-color="#50E6FF"/>
<stop offset="1" stop-color="#1490DF"/>
</radialGradient>
<radialGradient id="paint3_radial_926_348" cx="0" cy="0" r="1" gradientUnits="userSpaceOnUse" gradientTransform="translate(80.0391 121.646) scale(25.9402)">
<stop offset="0.00898" stop-color="#50E6FF"/>
<stop offset="1" stop-color="#1490DF"/>
</radialGradient>
<linearGradient id="paint4_linear_926_348" x1="120.648" y1="97.5577" x2="90.3628" y2="45.1024" gradientUnits="userSpaceOnUse">
<stop stop-color="#50E6FF"/>
<stop offset="1" stop-color="#C3F1FF"/>
</linearGradient>
<linearGradient id="paint5_linear_926_348" x1="55.1864" y1="125.675" x2="55.1864" y2="122.622" gradientUnits="userSpaceOnUse">
<stop stop-color="#F0F0F0" stop-opacity="0"/>
<stop offset="1" stop-color="#F0F0F0" stop-opacity="0.5"/>
</linearGradient>
<linearGradient id="paint6_linear_926_348" x1="55.189" y1="127.755" x2="55.189" y2="119.957" gradientUnits="userSpaceOnUse">
<stop stop-color="white"/>
<stop offset="0.56" stop-color="#FBFBFB"/>
<stop offset="1" stop-color="#F2F2F2"/>
</linearGradient>
<linearGradient id="paint7_linear_926_348" x1="60.2927" y1="121.499" x2="60.2927" y2="123.104" gradientUnits="userSpaceOnUse">
<stop stop-color="#F0F0F0" stop-opacity="0"/>
<stop offset="1" stop-color="#F0F0F0" stop-opacity="0.5"/>
</linearGradient>
<linearGradient id="paint8_linear_926_348" x1="55.1826" y1="124.043" x2="55.1826" y2="130.456" gradientUnits="userSpaceOnUse">
<stop stop-color="#F0F0F0" stop-opacity="0"/>
<stop offset="1" stop-color="#F0F0F0" stop-opacity="0.5"/>
</linearGradient>
<linearGradient id="paint9_linear_926_348" x1="50.0582" y1="121.493" x2="50.0582" y2="123.108" gradientUnits="userSpaceOnUse">
<stop stop-color="#F0F0F0" stop-opacity="0"/>
<stop offset="1" stop-color="#F0F0F0" stop-opacity="0.5"/>
</linearGradient>
<linearGradient id="paint10_linear_926_348" x1="55.189" y1="127.755" x2="55.189" y2="119.957" gradientUnits="userSpaceOnUse">
<stop stop-color="white"/>
<stop offset="0.56" stop-color="#FBFBFB"/>
<stop offset="1" stop-color="#F2F2F2"/>
</linearGradient>
<linearGradient id="paint11_linear_926_348" x1="63.0301" y1="131.852" x2="63.0301" y2="132.83" gradientUnits="userSpaceOnUse">
<stop stop-color="#F0F0F0" stop-opacity="0"/>
<stop offset="1" stop-color="#F0F0F0" stop-opacity="0.5"/>
</linearGradient>
<linearGradient id="paint12_linear_926_348" x1="59.9158" y1="133.403" x2="59.9158" y2="137.311" gradientUnits="userSpaceOnUse">
<stop stop-color="#F0F0F0" stop-opacity="0"/>
<stop offset="1" stop-color="#F0F0F0" stop-opacity="0.5"/>
</linearGradient>
<linearGradient id="paint13_linear_926_348" x1="56.7927" y1="131.848" x2="56.7927" y2="132.832" gradientUnits="userSpaceOnUse">
<stop stop-color="#F0F0F0" stop-opacity="0"/>
<stop offset="1" stop-color="#F0F0F0" stop-opacity="0.5"/>
</linearGradient>
<clipPath id="clip0_926_348">
<rect width="159.356" height="188" fill="white" transform="translate(0.355469 0.991699)"/>
</clipPath>
</defs>
</svg>
