<svg width="100" height="100" viewBox="0 0 100 100" fill="none" xmlns="http://www.w3.org/2000/svg">
<g clip-path="url(#clip0_940_913)">
<path d="M49.6401 96.45C40.382 96.45 31.3317 93.7047 23.6339 88.5611C15.936 83.4176 9.93624 76.1068 6.3933 67.5534C2.85036 59 1.92337 49.5881 3.72954 40.5078C5.53571 31.4276 9.99394 23.0868 16.5404 16.5403C23.0869 9.99384 31.4277 5.53562 40.5079 3.72945C49.5882 1.92327 59.0001 2.85027 67.5535 6.39321C76.1069 9.93614 83.4176 15.9359 88.5612 23.6338C93.7047 31.3316 96.4501 40.3819 96.4501 49.64C96.4505 55.7873 95.24 61.8745 92.8878 67.5539C90.5355 73.2334 87.0875 78.3938 82.7407 82.7406C78.3939 87.0874 73.2335 90.5354 67.554 92.8877C61.8746 95.2399 55.7874 96.4504 49.6401 96.45V96.45Z" fill="url(#paint0_linear_940_913)"/>
<path fill-rule="evenodd" clip-rule="evenodd" d="M95.54 49.64C95.54 58.7182 92.848 67.5925 87.8045 75.1407C82.7609 82.6889 75.5923 88.572 67.2052 92.0461C58.818 95.5201 49.5891 96.4291 40.6854 94.658C31.7816 92.887 23.603 88.5154 17.1838 82.0962C10.7646 75.677 6.39302 67.4984 4.62196 58.5946C2.85089 49.6909 3.75987 40.462 7.23393 32.0748C10.708 23.6877 16.5911 16.5191 24.1393 11.4755C31.6875 6.43199 40.5618 3.74 49.64 3.74C55.6677 3.73998 61.6363 4.9272 67.2052 7.23388C72.774 9.54057 77.834 12.9215 82.0963 17.1837C86.3585 21.446 89.7394 26.5059 92.0461 32.0748C94.3528 37.6437 95.54 43.6123 95.54 49.64V49.64ZM49.64 3.62732e-07C59.4579 3.62732e-07 69.0553 2.91134 77.2185 8.36585C85.3818 13.8204 91.7442 21.5731 95.5014 30.6436C99.2585 39.7141 100.242 49.6951 98.3262 59.3243C96.4108 68.9535 91.6831 77.7985 84.7408 84.7408C77.7985 91.6831 68.9535 96.4108 59.3243 98.3262C49.6951 100.242 39.7141 99.2585 30.6436 95.5014C21.5731 91.7442 13.8204 85.3818 8.36585 77.2185C2.91134 69.0553 3.62732e-07 59.4579 3.62732e-07 49.64C-0.000787738 43.121 1.28265 36.6656 3.77702 30.6427C6.27138 24.6197 9.9278 19.1471 14.5375 14.5375C19.1471 9.9278 24.6197 6.27138 30.6427 3.77702C36.6656 1.28265 43.121 -0.000787738 49.64 3.62732e-07V3.62732e-07Z" fill="#F2F1F0"/>
<path fill-rule="evenodd" clip-rule="evenodd" d="M92.7296 49.6401C92.7296 58.1625 90.2024 66.4935 85.4676 73.5796C80.7328 80.6657 74.0031 86.1887 66.1294 89.4501C58.2557 92.7114 49.5918 93.5648 41.2331 91.9021C32.8745 90.2395 25.1966 86.1356 19.1703 80.1093C13.1441 74.0831 9.04017 66.4052 7.37753 58.0465C5.7149 49.6879 6.56822 41.0239 9.8296 33.1503C13.091 25.2766 18.6139 18.5469 25.7 13.8121C32.7862 9.07727 41.1172 6.55009 49.6396 6.55009C55.2983 6.54974 60.9017 7.66407 66.1298 9.82942C71.3579 11.9948 76.1082 15.1687 80.1096 19.1701C84.1109 23.1714 87.2849 27.9218 89.4502 33.1499C91.6156 38.3779 92.7299 43.9813 92.7296 49.6401V49.6401ZM49.6396 2.81009C58.9017 2.81009 67.9558 5.55662 75.6569 10.7024C83.3581 15.8481 89.3604 23.162 92.9049 31.719C96.4493 40.2761 97.3767 49.692 95.5697 58.7762C93.7628 67.8603 89.3027 76.2046 82.7534 82.7539C76.2041 89.3032 67.8598 93.7633 58.7757 95.5703C49.6915 97.3772 40.2756 96.4498 31.7185 92.9054C23.1614 89.3609 15.8476 83.3586 10.7018 75.6574C5.5561 67.9563 2.80957 58.9022 2.80957 49.6401C2.81076 37.2204 7.745 25.3097 16.5271 16.5276C25.3091 7.7455 37.2198 2.81125 49.6396 2.81006V2.81009Z" fill="#0078D4"/>
<path fill-rule="evenodd" clip-rule="evenodd" d="M92.7637 49.6401C92.7637 58.1625 90.2366 66.4935 85.5018 73.5796C80.767 80.6657 74.0372 86.1887 66.1636 89.4501C58.2899 92.7114 49.6259 93.5648 41.2673 91.9021C32.9087 90.2395 25.2308 86.1356 19.2045 80.1093C13.1783 74.0831 9.07435 66.4052 7.41171 58.0465C5.74908 49.6879 6.6024 41.0239 9.86378 33.1503C13.1252 25.2766 18.6481 18.5469 25.7342 13.8121C32.8203 9.07727 41.1514 6.55009 49.6738 6.55009C55.3325 6.54974 60.9359 7.66407 66.164 9.82942C71.3921 11.9948 76.1424 15.1687 80.1437 19.1701C84.1451 23.1714 87.3191 27.9218 89.4844 33.1499C91.6498 38.3779 92.7641 43.9813 92.7637 49.6401V49.6401ZM49.6738 2.81009C58.9359 2.81009 67.9899 5.55662 75.6911 10.7024C83.3923 15.8481 89.3946 23.162 92.939 31.719C96.4835 40.2761 97.4109 49.692 95.6039 58.7762C93.797 67.8603 89.3369 76.2046 82.7876 82.7539C76.2383 89.3032 67.894 93.7633 58.8098 95.5703C49.7257 97.3772 40.3097 96.4498 31.7527 92.9054C23.1956 89.3609 15.8818 83.3586 10.736 75.6574C5.59028 67.9563 2.84375 58.9022 2.84375 49.6401C2.84494 37.2204 7.77918 25.3097 16.5612 16.5276C25.3433 7.7455 37.254 2.81125 49.6738 2.81006V2.81009Z" fill="#0078D4"/>
<path d="M69.9055 56.9199L29.3737 56.9207C28.603 56.9235 27.865 57.2324 27.3221 57.7794C26.7792 58.3263 26.4757 59.0665 26.4785 59.8372V67.1285C26.4757 67.8991 26.7792 68.6393 27.3221 69.1863C27.865 69.7332 28.603 70.0421 29.3737 70.045H69.9055C70.6763 70.042 71.4142 69.7329 71.9571 69.1858C72.5001 68.6388 72.8035 67.8985 72.8007 67.1277V59.8364C72.8035 59.0658 72.5 58.3256 71.9571 57.7786C71.4141 57.2317 70.6762 56.9228 69.9055 56.9199V56.9199Z" fill="url(#paint1_linear_940_913)"/>
<path fill-rule="evenodd" clip-rule="evenodd" d="M37.036 64.4765C36.7645 64.202 36.6123 63.8315 36.6123 63.4455C36.6123 63.0594 36.7645 62.689 37.036 62.4145C37.1699 62.2792 37.3293 62.1719 37.505 62.0986C37.6807 62.0254 37.8691 61.9877 38.0594 61.9877C38.2498 61.9877 38.4382 62.0254 38.6139 62.0986C38.7896 62.1719 38.949 62.2792 39.0829 62.4145C39.3545 62.6889 39.5069 63.0594 39.5069 63.4455C39.5069 63.8316 39.3545 64.2021 39.0829 64.4765C38.949 64.6118 38.7896 64.7192 38.6139 64.7925C38.4383 64.8658 38.2498 64.9036 38.0594 64.9036C37.8691 64.9036 37.6806 64.8658 37.5049 64.7925C37.3293 64.7192 37.1699 64.6118 37.036 64.4765Z" fill="#0078D4"/>
<path fill-rule="evenodd" clip-rule="evenodd" d="M32.6981 64.4897C32.4268 64.2151 32.2747 63.8447 32.2747 63.4587C32.2747 63.0727 32.4268 62.7023 32.6981 62.4277C32.8321 62.2924 32.9916 62.1851 33.1673 62.1118C33.343 62.0386 33.5315 62.0009 33.7219 62.0009C33.9123 62.0009 34.1008 62.0386 34.2765 62.1118C34.4522 62.1851 34.6117 62.2924 34.7457 62.4277C35.017 62.7023 35.1691 63.0727 35.1691 63.4587C35.1691 63.8447 35.017 64.2151 34.7457 64.4897C34.6117 64.625 34.4523 64.7324 34.2765 64.8057C34.1008 64.879 33.9123 64.9168 33.7219 64.9168C33.5315 64.9168 33.343 64.879 33.1672 64.8057C32.9915 64.7324 32.832 64.625 32.6981 64.4897Z" fill="#0078D4"/>
<path fill-rule="evenodd" clip-rule="evenodd" d="M49.6393 59.837V67.1283C49.64 67.3191 49.6032 67.5082 49.5308 67.6848C49.4585 67.8613 49.352 68.0219 49.2176 68.1573C49.0832 68.2928 48.9234 68.4004 48.7473 68.474C48.5713 68.5477 48.3825 68.5859 48.1917 68.5866H26.8799C27.1301 69.0278 27.4926 69.3951 27.9304 69.6511C28.3683 69.9072 28.8661 70.043 29.3733 70.0448H69.9052C70.6759 70.0418 71.4139 69.7327 71.9568 69.1857C72.4997 68.6386 72.8032 67.8983 72.8003 67.1276V59.8363C72.7977 59.3236 72.6593 58.8207 72.3993 58.3788H51.0868C50.896 58.3794 50.7072 58.4177 50.5312 58.4913C50.3551 58.565 50.1953 58.6726 50.0609 58.808C49.9265 58.9434 49.8201 59.104 49.7477 59.2805C49.6754 59.4571 49.6385 59.6462 49.6393 59.837V59.837Z" fill="url(#paint2_linear_940_913)"/>
<path d="M69.9055 43.7955H29.3737C28.603 43.7984 27.8651 44.1073 27.3221 44.6542C26.7792 45.2011 26.4757 45.9413 26.4785 46.712V54.0033C26.4757 54.774 26.7792 55.5142 27.3221 56.0611C27.865 56.6081 28.603 56.917 29.3737 56.9198H69.9055C70.6763 56.9168 71.4142 56.6077 71.9571 56.0607C72.5001 55.5136 72.8035 54.7733 72.8007 54.0026V46.7113C72.802 46.3297 72.7282 45.9516 72.5835 45.5986C72.4387 45.2456 72.2258 44.9245 71.957 44.6538C71.6882 44.383 71.3686 44.1679 71.0166 44.0206C70.6646 43.8733 70.2871 43.7968 69.9055 43.7955V43.7955Z" fill="url(#paint3_linear_940_913)"/>
<path fill-rule="evenodd" clip-rule="evenodd" d="M37.036 51.3516C36.7645 51.0771 36.6123 50.7066 36.6123 50.3206C36.6123 49.9346 36.7645 49.5641 37.036 49.2896C37.1699 49.1544 37.3293 49.047 37.505 48.9738C37.6807 48.9005 37.8691 48.8628 38.0594 48.8628C38.2498 48.8628 38.4382 48.9005 38.6139 48.9738C38.7896 49.047 38.949 49.1544 39.0829 49.2896C39.3545 49.564 39.5069 49.9345 39.5069 50.3206C39.5069 50.7067 39.3545 51.0772 39.0829 51.3516C38.949 51.4869 38.7896 51.5943 38.6139 51.6676C38.4383 51.7409 38.2498 51.7787 38.0594 51.7787C37.8691 51.7787 37.6806 51.7409 37.5049 51.6676C37.3293 51.5943 37.1699 51.4869 37.036 51.3516V51.3516Z" fill="#0078D4"/>
<path fill-rule="evenodd" clip-rule="evenodd" d="M32.6981 51.3648C32.4268 51.0902 32.2747 50.7198 32.2747 50.3338C32.2747 49.9478 32.4268 49.5774 32.6981 49.3028C32.8321 49.1676 32.9915 49.0602 33.1673 48.9869C33.343 48.9137 33.5315 48.876 33.7219 48.876C33.9123 48.876 34.1008 48.9137 34.2765 48.9869C34.4522 49.0602 34.6117 49.1676 34.7457 49.3028C35.017 49.5774 35.1691 49.9478 35.1691 50.3338C35.1691 50.7198 35.017 51.0902 34.7457 51.3648C34.6117 51.5001 34.4523 51.6075 34.2765 51.6808C34.1008 51.7541 33.9123 51.7919 33.7219 51.7919C33.5315 51.7919 33.343 51.7541 33.1672 51.6808C32.9915 51.6075 32.832 51.5001 32.6981 51.3648Z" fill="#0078D4"/>
<path fill-rule="evenodd" clip-rule="evenodd" d="M49.6393 46.7121V54.0034C49.64 54.1942 49.6032 54.3833 49.5308 54.5599C49.4585 54.7365 49.352 54.897 49.2176 55.0325C49.0832 55.1679 48.9234 55.2755 48.7473 55.3492C48.5713 55.4228 48.3825 55.461 48.1917 55.4617H26.8799C27.1302 55.9029 27.4926 56.2702 27.9304 56.5262C28.3683 56.7823 28.8661 56.9181 29.3733 56.9199H69.9052C70.676 56.9169 71.4139 56.6078 71.9568 56.0608C72.4998 55.5137 72.8032 54.7734 72.8003 54.0026V46.7114C72.7977 46.1987 72.6594 45.6958 72.3993 45.2539H51.0868C50.896 45.2546 50.7072 45.2928 50.5312 45.3664C50.3551 45.4401 50.1953 45.5477 50.0609 45.6831C49.9265 45.8185 49.8201 45.9791 49.7477 46.1557C49.6754 46.3322 49.6385 46.5213 49.6393 46.7121V46.7121Z" fill="url(#paint4_linear_940_913)"/>
<path d="M69.9055 30.6711H29.3737C28.603 30.6739 27.865 30.9828 27.3221 31.5298C26.7792 32.0767 26.4757 32.8169 26.4785 33.5876V40.8789C26.4758 41.6495 26.7792 42.3897 27.3221 42.9367C27.8651 43.4836 28.603 43.7925 29.3737 43.7954H69.9055C70.6763 43.7924 71.4142 43.4833 71.9571 42.9363C72.5001 42.3892 72.8035 41.6489 72.8007 40.8781V33.5868C72.802 33.2053 72.7282 32.8272 72.5835 32.4742C72.4387 32.1211 72.2258 31.8001 71.957 31.5293C71.6881 31.2586 71.3686 31.0434 71.0166 30.8962C70.6646 30.7489 70.2871 30.6724 69.9055 30.6711V30.6711Z" fill="url(#paint5_linear_940_913)"/>
<path fill-rule="evenodd" clip-rule="evenodd" d="M37.036 38.2272C36.7645 37.9527 36.6123 37.5822 36.6123 37.1962C36.6123 36.8101 36.7645 36.4397 37.036 36.1652C37.1699 36.0299 37.3293 35.9226 37.505 35.8493C37.6807 35.7761 37.8691 35.7383 38.0594 35.7383C38.2498 35.7383 38.4382 35.7761 38.6139 35.8493C38.7896 35.9226 38.949 36.0299 39.0829 36.1652C39.3545 36.4396 39.5069 36.8101 39.5069 37.1962C39.5069 37.5823 39.3545 37.9528 39.0829 38.2272C38.949 38.3625 38.7896 38.4699 38.6139 38.5432C38.4383 38.6165 38.2498 38.6542 38.0594 38.6542C37.8691 38.6542 37.6806 38.6165 37.5049 38.5432C37.3293 38.4699 37.1699 38.3625 37.036 38.2272V38.2272Z" fill="#0078D4"/>
<path fill-rule="evenodd" clip-rule="evenodd" d="M32.6981 38.2403C32.4268 37.9658 32.2747 37.5953 32.2747 37.2093C32.2747 36.8233 32.4268 36.4529 32.6981 36.1783C32.8321 36.0431 32.9916 35.9358 33.1673 35.8625C33.343 35.7892 33.5315 35.7515 33.7219 35.7515C33.9123 35.7515 34.1008 35.7892 34.2765 35.8625C34.4522 35.9358 34.6117 36.0431 34.7457 36.1783C35.017 36.4529 35.1691 36.8233 35.1691 37.2093C35.1691 37.5953 35.017 37.9658 34.7457 38.2403C34.6117 38.3756 34.4523 38.4831 34.2765 38.5564C34.1008 38.6297 33.9123 38.6674 33.7219 38.6674C33.5315 38.6674 33.343 38.6297 33.1672 38.5564C32.9915 38.4831 32.832 38.3756 32.6981 38.2403Z" fill="#0078D4"/>
<path fill-rule="evenodd" clip-rule="evenodd" d="M49.6393 33.5877V40.879C49.64 41.0698 49.6032 41.2589 49.5308 41.4355C49.4585 41.612 49.352 41.7726 49.2176 41.908C49.0832 42.0435 48.9234 42.1511 48.7473 42.2247C48.5713 42.2983 48.3825 42.3366 48.1917 42.3372H26.8799C27.1301 42.7785 27.4925 43.1457 27.9304 43.4018C28.3683 43.6579 28.8661 43.7937 29.3733 43.7955H69.9052C70.676 43.7925 71.4139 43.4834 71.9568 42.9364C72.4998 42.3893 72.8032 41.649 72.8003 40.8783V33.587C72.7977 33.0743 72.6593 32.5714 72.3993 32.1295H51.0868C50.896 32.1301 50.7072 32.1684 50.5312 32.242C50.3551 32.3157 50.1953 32.4233 50.0609 32.5587C49.9265 32.6941 49.8201 32.8547 49.7477 33.0312C49.6754 33.2078 49.6385 33.3969 49.6393 33.5877V33.5877Z" fill="url(#paint6_linear_940_913)"/>
<path fill-rule="evenodd" clip-rule="evenodd" d="M67.0108 62.0245H58.3254C57.9404 62.0271 57.5721 62.182 57.3008 62.4551C57.0295 62.7283 56.8772 63.0977 56.8772 63.4827C56.8772 63.8678 57.0295 64.2371 57.3008 64.5103C57.5721 64.7835 57.9404 64.9383 58.3254 64.941H67.0108C67.3958 64.9383 67.7641 64.7835 68.0354 64.5103C68.3067 64.2371 68.459 63.8678 68.459 63.4827C68.459 63.0977 68.3067 62.7283 68.0354 62.4551C67.7641 62.182 67.3958 62.0271 67.0108 62.0245V62.0245Z" fill="#9CEBFF"/>
<path fill-rule="evenodd" clip-rule="evenodd" d="M67.0108 48.8996H58.3254C57.9404 48.9023 57.5721 49.0571 57.3008 49.3303C57.0295 49.6034 56.8772 49.9728 56.8772 50.3579C56.8772 50.7429 57.0295 51.1123 57.3008 51.3855C57.5721 51.6586 57.9404 51.8135 58.3254 51.8161H67.0108C67.3958 51.8135 67.7641 51.6586 68.0354 51.3855C68.3067 51.1123 68.459 50.7429 68.459 50.3579C68.459 49.9728 68.3067 49.6034 68.0354 49.3303C67.7641 49.0571 67.3958 48.9023 67.0108 48.8996V48.8996Z" fill="#9CEBFF"/>
<path fill-rule="evenodd" clip-rule="evenodd" d="M67.0108 35.7752H58.3254C57.9404 35.7778 57.5721 35.9326 57.3008 36.2058C57.0295 36.479 56.8772 36.8484 56.8772 37.2334C56.8772 37.6184 57.0295 37.9878 57.3008 38.261C57.5721 38.5342 57.9404 38.689 58.3254 38.6917H67.0108C67.3958 38.689 67.7641 38.5342 68.0354 38.261C68.3067 37.9878 68.459 37.6184 68.459 37.2334C68.459 36.8484 68.3067 36.479 68.0354 36.2058C67.7641 35.9326 67.3958 35.7778 67.0108 35.7752V35.7752Z" fill="#9CEBFF"/>
<path fill-rule="evenodd" clip-rule="evenodd" d="M38.5445 63.9346C38.3209 64.1595 38.0292 64.3042 37.7148 64.3458C37.4004 64.3875 37.0811 64.3239 36.8066 64.165C36.9134 64.3615 37.0649 64.5301 37.2488 64.6572C37.4328 64.7843 37.6441 64.8663 37.8657 64.8966C38.0872 64.9269 38.3128 64.9047 38.5241 64.8316C38.7355 64.7586 38.9267 64.6369 39.0823 64.4763C39.3539 64.2019 39.5062 63.8314 39.5062 63.4453C39.5062 63.0592 39.3539 62.6887 39.0823 62.4143C38.99 62.324 38.8861 62.2465 38.7732 62.1839C38.9309 62.4608 38.9939 62.7816 38.9526 63.0976C38.9113 63.4136 38.768 63.7075 38.5445 63.9346V63.9346Z" fill="#003067"/>
<path fill-rule="evenodd" clip-rule="evenodd" d="M34.2073 63.948C33.9838 64.173 33.692 64.3176 33.3776 64.3593C33.0632 64.401 32.7439 64.3374 32.4695 64.1784C32.5763 64.3749 32.7278 64.5436 32.9118 64.6707C33.0959 64.7978 33.3072 64.8799 33.5288 64.9102C33.7504 64.9405 33.9761 64.9182 34.1875 64.8452C34.3989 64.7721 34.5902 64.6504 34.7458 64.4897C34.9065 64.3326 35.0283 64.1402 35.1015 63.9276C35.1746 63.7151 35.197 63.4884 35.1669 63.2657C35.1368 63.0429 35.055 62.8303 34.9281 62.6448C34.8012 62.4593 34.6327 62.3061 34.436 62.1973C34.5941 62.4741 34.6573 62.795 34.616 63.1111C34.5747 63.4272 34.4312 63.7211 34.2073 63.948Z" fill="#003067"/>
<path fill-rule="evenodd" clip-rule="evenodd" d="M38.5445 50.8097C38.3208 51.0345 38.0291 51.179 37.7148 51.2206C37.4004 51.2623 37.0811 51.1988 36.8066 51.0401C36.9134 51.2366 37.0649 51.4052 37.2488 51.5323C37.4328 51.6594 37.6441 51.7414 37.8657 51.7717C38.0872 51.802 38.3128 51.7798 38.5241 51.7068C38.7355 51.6337 38.9267 51.512 39.0823 51.3514C39.3539 51.077 39.5062 50.7065 39.5062 50.3204C39.5062 49.9343 39.3539 49.5638 39.0823 49.2894C38.9902 49.1989 38.8862 49.1214 38.7732 49.059C38.9309 49.3359 38.9939 49.6567 38.9526 49.9727C38.9113 50.2887 38.768 50.5826 38.5445 50.8097V50.8097Z" fill="#003067"/>
<path fill-rule="evenodd" clip-rule="evenodd" d="M34.2073 50.8231C33.9838 51.0481 33.692 51.1927 33.3776 51.2344C33.0632 51.2761 32.7439 51.2125 32.4695 51.0535C32.5763 51.25 32.7278 51.4187 32.9118 51.5458C33.0959 51.6729 33.3072 51.755 33.5288 51.7853C33.7504 51.8156 33.9761 51.7933 34.1875 51.7203C34.3989 51.6472 34.5902 51.5255 34.7458 51.3648C34.9065 51.2077 35.0283 51.0152 35.1014 50.8027C35.1745 50.5902 35.1969 50.3635 35.1668 50.1408C35.1367 49.918 35.055 49.7054 34.9281 49.5199C34.8012 49.3344 34.6327 49.1812 34.436 49.0724C34.594 49.3492 34.6572 49.6701 34.6159 49.9862C34.5747 50.3023 34.4311 50.5962 34.2073 50.8231Z" fill="#003067"/>
<path fill-rule="evenodd" clip-rule="evenodd" d="M38.5445 37.6852C38.3208 37.91 38.0291 38.0545 37.7148 38.0962C37.4004 38.1379 37.0811 38.0744 36.8066 37.9156C36.9134 38.1121 37.0649 38.2807 37.2488 38.4078C37.4328 38.5349 37.6441 38.617 37.8657 38.6473C38.0872 38.6776 38.3128 38.6553 38.5241 38.5823C38.7355 38.5093 38.9267 38.3876 39.0823 38.227C39.3539 37.9525 39.5062 37.582 39.5062 37.196C39.5062 36.8099 39.3539 36.4394 39.0823 36.165C38.9902 36.0744 38.8862 35.9969 38.7732 35.9346C38.9309 36.2115 38.9939 36.5323 38.9526 36.8483C38.9113 37.1643 38.768 37.4581 38.5445 37.6852Z" fill="#003067"/>
<path fill-rule="evenodd" clip-rule="evenodd" d="M34.2073 37.6986C33.9838 37.9236 33.692 38.0682 33.3776 38.1099C33.0633 38.1516 32.7439 38.088 32.4695 37.929C32.5763 38.1255 32.7278 38.2942 32.9118 38.4213C33.0959 38.5484 33.3072 38.6305 33.5288 38.6608C33.7505 38.6911 33.9761 38.6688 34.1875 38.5958C34.3989 38.5227 34.5902 38.401 34.7458 38.2403C34.9065 38.0833 35.0283 37.8908 35.1014 37.6782C35.1745 37.4657 35.1969 37.239 35.1668 37.0163C35.1367 36.7936 35.055 36.581 34.9281 36.3955C34.8012 36.21 34.6327 36.0568 34.436 35.948C34.594 36.2248 34.6572 36.5457 34.6159 36.8617C34.5746 37.1778 34.4311 37.4717 34.2073 37.6986V37.6986Z" fill="#003067"/>
<path fill-rule="evenodd" clip-rule="evenodd" d="M58.3253 62.7536H67.0107C67.3318 62.7551 67.6433 62.8634 67.8961 63.0614C68.1489 63.2594 68.3286 63.5359 68.4069 63.8473C68.4658 63.6329 68.4743 63.4077 68.4318 63.1895C68.3892 62.9712 68.2966 62.7658 68.1614 62.5892C68.0262 62.4127 67.852 62.2698 67.6523 62.1718C67.4527 62.0739 67.2331 62.0234 67.0107 62.0245H58.3253C58.103 62.0235 57.8834 62.074 57.6838 62.1719C57.4842 62.2699 57.3099 62.4128 57.1747 62.5893C57.0395 62.7658 56.947 62.9713 56.9044 63.1895C56.8618 63.4078 56.8703 63.6329 56.9291 63.8473C57.0075 63.5359 57.1872 63.2594 57.44 63.0614C57.6927 62.8634 58.0042 62.7551 58.3253 62.7536V62.7536Z" fill="#50E6FF"/>
<path fill-rule="evenodd" clip-rule="evenodd" d="M58.3253 49.6288H67.0107C67.3318 49.6302 67.6433 49.7385 67.8961 49.9365C68.1488 50.1345 68.3286 50.411 68.4069 50.7224C68.4658 50.508 68.4743 50.2828 68.4318 50.0646C68.3892 49.8463 68.2966 49.6409 68.1614 49.4643C68.0262 49.2878 67.8519 49.1449 67.6523 49.047C67.4527 48.949 67.2331 48.8985 67.0107 48.8996H58.3253C58.1029 48.8986 57.8834 48.9491 57.6838 49.0471C57.4842 49.1451 57.3099 49.2879 57.1747 49.4644C57.0395 49.641 56.947 49.8464 56.9044 50.0646C56.8618 50.2829 56.8703 50.508 56.9291 50.7224C57.0075 50.411 57.1872 50.1345 57.44 49.9365C57.6927 49.7385 58.0042 49.6302 58.3253 49.6288V49.6288Z" fill="#50E6FF"/>
<path fill-rule="evenodd" clip-rule="evenodd" d="M58.3253 36.5043H67.0107C67.3318 36.5058 67.6433 36.614 67.8961 36.8121C68.1489 37.0101 68.3286 37.2866 68.4069 37.598C68.4658 37.3836 68.4743 37.1584 68.4318 36.9401C68.3892 36.7219 68.2967 36.5164 68.1614 36.3399C68.0262 36.1633 67.852 36.0205 67.6523 35.9225C67.4527 35.8245 67.2331 35.7741 67.0107 35.7752H58.3253C58.103 35.7742 57.8834 35.8246 57.6838 35.9226C57.4842 36.0206 57.3099 36.1635 57.1747 36.34C57.0395 36.5165 56.947 36.722 56.9044 36.9402C56.8618 37.1584 56.8703 37.3836 56.9291 37.598C57.0075 37.2866 57.1872 37.0101 57.4399 36.8121C57.6927 36.614 58.0042 36.5058 58.3253 36.5043V36.5043Z" fill="#50E6FF"/>
<path opacity="0.2" d="M37.324 30.7042V37.767C37.3255 39.0668 37.8426 40.3129 38.7618 41.2319C39.681 42.1509 40.9273 42.6677 42.2271 42.6689H57.0523C58.3521 42.6677 59.5984 42.1508 60.5176 41.2319C61.4368 40.3129 61.9539 39.0668 61.9554 37.767V30.7042H37.324Z" fill="#003067"/>
<path opacity="0.2" d="M63.9322 70.0448C64.2846 67.9778 64.1814 65.8588 63.6301 63.8358C63.0787 61.8127 62.0924 59.9344 60.74 58.3321C59.3876 56.7297 57.7018 55.4418 55.8001 54.5583C53.8985 53.6749 51.827 53.2172 49.7302 53.2172C47.6333 53.2172 45.5618 53.6749 43.6602 54.5583C41.7586 55.4418 40.0727 56.7297 38.7203 58.3321C37.3679 59.9344 36.3816 61.8127 35.8302 63.8358C35.2789 65.8588 35.1758 67.9778 35.5281 70.0448H63.9322Z" fill="#003067"/>
<path d="M57.0526 19.5693H42.2264C40.8599 19.5693 39.7522 20.677 39.7522 22.0435V36.8708C39.7522 38.2373 40.8599 39.3451 42.2264 39.3451H57.0526C58.4191 39.3451 59.5268 38.2373 59.5268 36.8708V22.0435C59.5268 20.677 58.4191 19.5693 57.0526 19.5693Z" fill="url(#paint7_linear_940_913)"/>
<path d="M49.1423 28.9597H42.1797V21.997H49.1423V28.9597ZM57.0997 28.9597H50.137V21.997H57.0997L57.0997 28.9597ZM49.1423 36.917H42.1797V29.9543H49.1423V36.917ZM57.0997 36.917H50.137V29.9543H57.0997L57.0997 36.917Z" fill="#0078D4"/>
<path d="M49.7256 80.1271C47.2728 80.1271 44.8751 79.3998 42.8356 78.0371C40.7962 76.6744 39.2066 74.7375 38.268 72.4714C37.3293 70.2053 37.0838 67.7117 37.5623 65.306C38.0408 62.9004 39.2219 60.6906 40.9563 58.9562C42.6907 57.2218 44.9005 56.0407 47.3062 55.5621C49.7119 55.0836 52.2054 55.3292 54.4715 56.2679C56.7376 57.2065 58.6745 58.7961 60.0372 60.8355C61.3999 62.8749 62.1273 65.2727 62.1273 67.7255C62.1235 71.0135 60.8157 74.1657 58.4908 76.4907C56.1658 78.8156 53.0136 80.1234 49.7256 80.1271V80.1271ZM49.7256 59.1495C48.0294 59.1495 46.3714 59.6525 44.961 60.5948C43.5507 61.5372 42.4515 62.8765 41.8024 64.4436C41.1533 66.0107 40.9834 67.735 41.3143 69.3986C41.6453 71.0622 42.462 72.5903 43.6614 73.7897C44.8608 74.989 46.3889 75.8058 48.0525 76.1367C49.716 76.4677 51.4404 76.2978 53.0075 75.6487C54.5745 74.9996 55.9139 73.9004 56.8563 72.4901C57.7986 71.0798 58.3016 69.4217 58.3016 67.7255C58.2989 65.4519 57.3945 63.2721 55.7868 61.6644C54.1791 60.0566 51.9993 59.1522 49.7256 59.1495V59.1495Z" fill="white"/>
<path d="M64.2312 84.1448C63.9799 84.1453 63.7311 84.0959 63.499 83.9997C63.2669 83.9035 63.0562 83.7623 62.8789 83.5843L55.7899 76.4953C55.612 76.3177 55.4709 76.1069 55.3746 75.8748C55.2783 75.6427 55.2286 75.3939 55.2285 75.1426C55.2284 74.8913 55.2778 74.6425 55.3739 74.4103C55.47 74.1781 55.611 73.9671 55.7886 73.7895C55.9663 73.6118 56.1773 73.4708 56.4095 73.3747C56.6417 73.2786 56.8905 73.2292 57.1418 73.2293C57.3931 73.2294 57.6419 73.2791 57.874 73.3754C58.1061 73.4717 58.3169 73.6128 58.4945 73.7907L65.5835 80.8797C65.8508 81.1472 66.0329 81.488 66.1067 81.859C66.1804 82.2299 66.1426 82.6145 65.9978 82.9639C65.8531 83.3134 65.608 83.6121 65.2936 83.8223C64.9791 84.0325 64.6094 84.1447 64.2312 84.1448H64.2312Z" fill="white"/>
<path opacity="0.6" d="M49.7256 76.3014C54.462 76.3014 58.3016 72.4618 58.3016 67.7255C58.3016 62.9891 54.462 59.1495 49.7256 59.1495C44.9892 59.1495 41.1497 62.9891 41.1497 67.7255C41.1497 72.4618 44.9892 76.3014 49.7256 76.3014Z" fill="white"/>
<path d="M43.9195 70.3035L48.9013 61.799C48.9855 61.6552 49.1058 61.536 49.2503 61.4532C49.3949 61.3704 49.5585 61.3268 49.7251 61.3268C49.8916 61.3268 50.0553 61.3704 50.1998 61.4532C50.3443 61.536 50.4647 61.6552 50.5488 61.799L55.5307 70.3035C55.6156 70.4485 55.6608 70.6134 55.6616 70.7815C55.6624 70.9496 55.6188 71.1149 55.5352 71.2607C55.4516 71.4066 55.331 71.5278 55.1856 71.612C55.0401 71.6963 54.875 71.7407 54.7069 71.7407H44.7433C44.5752 71.7407 44.4101 71.6963 44.2646 71.612C44.1192 71.5278 43.9986 71.4066 43.915 71.2607C43.8314 71.1149 43.7878 70.9496 43.7886 70.7815C43.7894 70.6134 43.8345 70.4485 43.9195 70.3035V70.3035Z" fill="#FF9300"/>
<path d="M44.7434 71.1042C44.6873 71.1042 44.6323 71.0895 44.5838 71.0614C44.5353 71.0334 44.4951 70.993 44.4672 70.9444C44.4394 70.8958 44.4248 70.8407 44.4251 70.7847C44.4253 70.7286 44.4403 70.6737 44.4687 70.6253L49.4503 62.1206C49.4784 62.0727 49.5185 62.0329 49.5667 62.0053C49.6149 61.9777 49.6695 61.9632 49.7251 61.9632C49.7806 61.9632 49.8352 61.9778 49.8834 62.0054C49.9316 62.0331 49.9717 62.0728 49.9997 62.1208L54.9814 70.6252C55.0097 70.6735 55.0248 70.7284 55.025 70.7845C55.0253 70.8405 55.0108 70.8956 54.983 70.9442C54.9551 70.9928 54.9149 71.0332 54.8665 71.0613C54.818 71.0894 54.763 71.1042 54.707 71.1042H44.7434Z" fill="#FFCA00"/>
<path d="M49.7251 64.9319V67.9804" stroke="#FF9300" stroke-width="0.63646" stroke-miterlimit="10" stroke-linecap="round"/>
<path d="M49.7252 69.9091C49.9582 69.9091 50.1472 69.7202 50.1472 69.4871C50.1472 69.2541 49.9582 69.0651 49.7252 69.0651C49.4921 69.0651 49.3032 69.2541 49.3032 69.4871C49.3032 69.7202 49.4921 69.9091 49.7252 69.9091Z" fill="#FF9300"/>
</g>
<defs>
<linearGradient id="paint0_linear_940_913" x1="47.8697" y1="-15.1531" x2="51.8525" y2="130.615" gradientUnits="userSpaceOnUse">
<stop stop-color="#00ABDE"/>
<stop offset="1" stop-color="#007ED8"/>
</linearGradient>
<linearGradient id="paint1_linear_940_913" x1="49.6396" y1="56.9199" x2="49.6396" y2="70.0685" gradientUnits="userSpaceOnUse">
<stop stop-color="#005BA1"/>
<stop offset="0.26" stop-color="#00589D"/>
<stop offset="0.53" stop-color="#004F90"/>
<stop offset="0.8" stop-color="#003F7C"/>
<stop offset="1" stop-color="#003067"/>
</linearGradient>
<linearGradient id="paint2_linear_940_913" x1="49.8401" y1="58.3788" x2="49.8401" y2="70.0448" gradientUnits="userSpaceOnUse">
<stop stop-color="#008BF1"/>
<stop offset="0.22" stop-color="#0086EC"/>
<stop offset="0.49" stop-color="#0078DD"/>
<stop offset="0.79" stop-color="#0061C4"/>
<stop offset="1" stop-color="#004DAE"/>
</linearGradient>
<linearGradient id="paint3_linear_940_913" x1="49.6396" y1="43.7955" x2="49.6396" y2="56.9434" gradientUnits="userSpaceOnUse">
<stop stop-color="#005BA1"/>
<stop offset="0.26" stop-color="#00589D"/>
<stop offset="0.53" stop-color="#004F90"/>
<stop offset="0.8" stop-color="#003F7C"/>
<stop offset="1" stop-color="#003067"/>
</linearGradient>
<linearGradient id="paint4_linear_940_913" x1="49.8401" y1="45.2539" x2="49.8401" y2="56.9199" gradientUnits="userSpaceOnUse">
<stop stop-color="#008BF1"/>
<stop offset="0.22" stop-color="#0086EC"/>
<stop offset="0.49" stop-color="#0078DD"/>
<stop offset="0.79" stop-color="#0061C4"/>
<stop offset="1" stop-color="#004DAE"/>
</linearGradient>
<linearGradient id="paint5_linear_940_913" x1="49.6396" y1="30.6711" x2="49.6396" y2="43.8189" gradientUnits="userSpaceOnUse">
<stop stop-color="#005BA1"/>
<stop offset="0.26" stop-color="#00589D"/>
<stop offset="0.53" stop-color="#004F90"/>
<stop offset="0.8" stop-color="#003F7C"/>
<stop offset="1" stop-color="#003067"/>
</linearGradient>
<linearGradient id="paint6_linear_940_913" x1="49.8401" y1="32.1295" x2="49.8401" y2="43.7955" gradientUnits="userSpaceOnUse">
<stop stop-color="#008BF1"/>
<stop offset="0.22" stop-color="#0086EC"/>
<stop offset="0.49" stop-color="#0078DD"/>
<stop offset="0.79" stop-color="#0061C4"/>
<stop offset="1" stop-color="#004DAE"/>
</linearGradient>
<linearGradient id="paint7_linear_940_913" x1="49.6395" y1="38.6353" x2="49.6395" y2="20" gradientUnits="userSpaceOnUse">
<stop stop-color="#F2F2F2"/>
<stop offset="0.44" stop-color="#FBFBFB"/>
<stop offset="1" stop-color="white"/>
</linearGradient>
<clipPath id="clip0_940_913">
<rect width="99.2799" height="99.28" fill="white"/>
</clipPath>
</defs>
</svg>
