<svg width="100" height="100" viewBox="0 0 100 100" fill="none" xmlns="http://www.w3.org/2000/svg">
<g clip-path="url(#clip0_967_289)">
<path d="M49.6401 96.45C40.382 96.45 31.3317 93.7047 23.6339 88.5611C15.936 83.4176 9.93624 76.1068 6.3933 67.5534C2.85036 59 1.92337 49.5881 3.72954 40.5078C5.53571 31.4276 9.99394 23.0868 16.5404 16.5403C23.0869 9.99384 31.4277 5.53562 40.5079 3.72945C49.5882 1.92327 59.0001 2.85027 67.5535 6.39321C76.1069 9.93614 83.4176 15.9359 88.5612 23.6338C93.7047 31.3316 96.4501 40.3819 96.4501 49.64C96.4505 55.7873 95.24 61.8745 92.8878 67.5539C90.5355 73.2334 87.0875 78.3938 82.7407 82.7406C78.3939 87.0874 73.2335 90.5354 67.554 92.8877C61.8746 95.2399 55.7874 96.4504 49.6401 96.45V96.45Z" fill="url(#paint0_linear_967_289)"/>
<path fill-rule="evenodd" clip-rule="evenodd" d="M95.54 49.64C95.54 58.7182 92.848 67.5925 87.8045 75.1407C82.7609 82.6889 75.5923 88.572 67.2052 92.0461C58.818 95.5201 49.5891 96.4291 40.6854 94.658C31.7816 92.887 23.603 88.5154 17.1838 82.0962C10.7646 75.677 6.39302 67.4984 4.62196 58.5946C2.85089 49.6909 3.75987 40.462 7.23393 32.0748C10.708 23.6877 16.5911 16.5191 24.1393 11.4755C31.6875 6.43199 40.5618 3.74 49.64 3.74C55.6677 3.73998 61.6363 4.9272 67.2052 7.23388C72.774 9.54057 77.834 12.9215 82.0963 17.1837C86.3585 21.446 89.7394 26.5059 92.0461 32.0748C94.3528 37.6437 95.54 43.6123 95.54 49.64V49.64ZM49.64 3.62732e-07C59.4579 3.62732e-07 69.0553 2.91134 77.2185 8.36585C85.3818 13.8204 91.7442 21.5731 95.5014 30.6436C99.2585 39.7141 100.242 49.6951 98.3262 59.3243C96.4108 68.9535 91.6831 77.7985 84.7408 84.7408C77.7985 91.6831 68.9535 96.4108 59.3243 98.3262C49.6951 100.242 39.7141 99.2585 30.6436 95.5014C21.5731 91.7442 13.8204 85.3818 8.36585 77.2185C2.91134 69.0553 3.62732e-07 59.4579 3.62732e-07 49.64C-0.000787738 43.121 1.28265 36.6656 3.77702 30.6427C6.27138 24.6197 9.9278 19.1471 14.5375 14.5375C19.1471 9.9278 24.6197 6.27138 30.6427 3.77702C36.6656 1.28265 43.121 -0.000787738 49.64 3.62732e-07V3.62732e-07Z" fill="#F2F1F0"/>
<path fill-rule="evenodd" clip-rule="evenodd" d="M92.7296 49.6401C92.7296 58.1625 90.2024 66.4935 85.4676 73.5796C80.7328 80.6657 74.0031 86.1887 66.1294 89.4501C58.2557 92.7114 49.5918 93.5648 41.2331 91.9021C32.8745 90.2395 25.1966 86.1356 19.1703 80.1093C13.1441 74.0831 9.04017 66.4052 7.37753 58.0465C5.7149 49.6879 6.56822 41.0239 9.8296 33.1503C13.091 25.2766 18.6139 18.5469 25.7 13.8121C32.7862 9.07727 41.1172 6.55009 49.6396 6.55009C55.2983 6.54974 60.9017 7.66407 66.1298 9.82942C71.3579 11.9948 76.1082 15.1687 80.1096 19.1701C84.1109 23.1714 87.2849 27.9218 89.4502 33.1499C91.6156 38.3779 92.7299 43.9813 92.7296 49.6401V49.6401ZM49.6396 2.81009C58.9017 2.81009 67.9558 5.55662 75.6569 10.7024C83.3581 15.8481 89.3604 23.162 92.9049 31.719C96.4493 40.2761 97.3767 49.692 95.5697 58.7762C93.7628 67.8603 89.3027 76.2046 82.7534 82.7539C76.2041 89.3032 67.8598 93.7633 58.7757 95.5703C49.6915 97.3772 40.2756 96.4498 31.7185 92.9054C23.1614 89.3609 15.8476 83.3586 10.7018 75.6574C5.5561 67.9563 2.80957 58.9022 2.80957 49.6401C2.81076 37.2204 7.745 25.3097 16.5271 16.5276C25.3091 7.7455 37.2198 2.81125 49.6396 2.81006V2.81009Z" fill="#0078D4"/>
<path fill-rule="evenodd" clip-rule="evenodd" d="M92.7637 49.6401C92.7637 58.1625 90.2366 66.4935 85.5018 73.5796C80.767 80.6657 74.0372 86.1887 66.1636 89.4501C58.2899 92.7114 49.6259 93.5648 41.2673 91.9021C32.9087 90.2395 25.2308 86.1356 19.2045 80.1093C13.1783 74.0831 9.07435 66.4052 7.41171 58.0465C5.74908 49.6879 6.6024 41.0239 9.86378 33.1503C13.1252 25.2766 18.6481 18.5469 25.7342 13.8121C32.8203 9.07727 41.1514 6.55009 49.6738 6.55009C55.3325 6.54974 60.9359 7.66407 66.164 9.82942C71.3921 11.9948 76.1424 15.1687 80.1437 19.1701C84.1451 23.1714 87.3191 27.9218 89.4844 33.1499C91.6498 38.3779 92.7641 43.9813 92.7637 49.6401V49.6401ZM49.6738 2.81009C58.9359 2.81009 67.9899 5.55662 75.6911 10.7024C83.3923 15.8481 89.3946 23.162 92.939 31.719C96.4835 40.2761 97.4109 49.692 95.6039 58.7762C93.797 67.8603 89.3369 76.2046 82.7876 82.7539C76.2383 89.3032 67.894 93.7633 58.8098 95.5703C49.7257 97.3772 40.3097 96.4498 31.7527 92.9054C23.1956 89.3609 15.8818 83.3586 10.736 75.6574C5.59028 67.9563 2.84375 58.9022 2.84375 49.6401C2.84494 37.2204 7.77918 25.3097 16.5612 16.5276C25.3433 7.7455 37.254 2.81125 49.6738 2.81006V2.81009Z" fill="#0078D4"/>
<path d="M45.8468 32.9024H16.3882C15.5612 32.9024 14.8909 33.5728 14.8909 34.3997V63.8602C14.8909 64.6872 15.5612 65.3576 16.3882 65.3576H45.8468C46.6737 65.3576 47.3441 64.6872 47.3441 63.8602V34.3997C47.3441 33.5728 46.6737 32.9024 45.8468 32.9024Z" fill="url(#paint1_linear_967_289)"/>
<path d="M30.2357 48.2477H17.8872V35.8992H30.2357V48.2477ZM44.3483 48.2477H31.9998V35.8992H44.3483V48.2477ZM30.2357 62.3602H17.8872V50.0117H30.2357V62.3602ZM44.3483 62.3602H31.9998V50.0117H44.3483V62.3602Z" fill="#C3F1FF"/>
<path opacity="0.2" d="M42.2386 65.3575V64.8956C42.2347 64.1501 41.9787 63.4279 41.5122 62.8464C41.0457 62.2649 40.3961 61.8584 39.6692 61.693L39.5833 61.674L39.6321 61.5983C40.0277 60.9672 40.1986 60.221 40.1171 59.4806C40.0356 58.7402 39.7064 58.0491 39.1829 57.5192L38.7806 57.1164C38.1559 56.5055 37.3154 56.1658 36.4417 56.1711C35.8259 56.1671 35.2218 56.3393 34.7005 56.6672L34.6243 56.7155L34.6048 56.6291C34.4392 55.9024 34.0327 55.253 33.4513 54.7867C32.87 54.3203 32.1479 54.0642 31.4026 54.0602H30.8323C30.087 54.0641 29.365 54.3201 28.7836 54.7864C28.2023 55.2527 27.7957 55.9019 27.6302 56.6286L27.6106 56.7155L27.5364 56.6681C27.0145 56.3399 26.4097 56.1676 25.7932 56.1716C24.92 56.1664 24.08 56.5057 23.4554 57.1159L23.052 57.5192C22.5278 58.0492 22.1983 58.741 22.1171 59.482C22.0359 60.2231 22.2078 60.9698 22.6048 61.6008L22.6507 61.6745L22.5657 61.6935C21.8388 61.8587 21.1892 62.2651 20.7226 62.8465C20.2561 63.428 20.0001 64.1502 19.9963 64.8956V65.3575L42.2386 65.3575Z" fill="#003067"/>
<path d="M33.9679 65.1809C33.9679 65.7446 33.8007 66.2957 33.4875 66.7644C33.1743 67.2331 32.7292 67.5984 32.2084 67.8142C31.6875 68.0299 31.1144 68.0864 30.5615 67.9764C30.0086 67.8664 29.5008 67.5949 29.1021 67.1963C28.7035 66.7977 28.4321 66.2898 28.3221 65.7369C28.2121 65.184 28.2685 64.6109 28.4843 64.0901C28.7 63.5693 29.0653 63.1241 29.5341 62.8109C30.0028 62.4978 30.5539 62.3306 31.1176 62.3306C31.8733 62.3315 32.5977 62.6321 33.132 63.1664C33.6664 63.7007 33.967 64.4252 33.9679 65.1809V65.1809ZM39.2355 63.6457L37.9101 63.351C37.7729 63.3011 37.661 63.1991 37.5986 63.0671C37.5942 63.0526 37.5889 63.0383 37.5829 63.0243L37.2172 62.1356C37.2109 62.1202 37.2038 62.1048 37.1961 62.09C37.1465 61.9537 37.1531 61.8033 37.2143 61.6719L37.9434 60.5261C38.0926 60.278 38.1562 59.9879 38.1247 59.7001C38.0931 59.4124 37.9681 59.1429 37.7687 58.9331L37.3654 58.5298C37.1536 58.3338 36.8845 58.2111 36.5977 58.1796C36.3109 58.1482 36.0216 58.2097 35.7724 58.3551L34.6263 59.0839C34.5533 59.1204 34.4722 59.1381 34.3906 59.1352C34.3282 59.1374 34.2661 59.1263 34.2085 59.1024C34.1936 59.0944 34.1783 59.0874 34.1626 59.0813L33.2741 58.7153C33.2602 58.7095 33.2459 58.7043 33.2314 58.6999C33.0994 58.6374 32.9974 58.5253 32.9475 58.3881L32.653 57.063C32.583 56.782 32.4228 56.5318 32.1969 56.3506C31.9711 56.1695 31.692 56.0674 31.4026 56.06H30.8326C30.5432 56.0673 30.2642 56.1693 30.0384 56.3505C29.8125 56.5316 29.6524 56.7818 29.5825 57.0627L29.2877 58.3887C29.2375 58.5256 29.1356 58.6374 29.0039 58.6999C28.9893 58.7042 28.9751 58.7096 28.9609 58.7153L28.0724 59.0813C28.0567 59.0875 28.0414 59.0945 28.0265 59.1024C27.9689 59.1264 27.9068 59.1375 27.8444 59.1352C27.7627 59.1379 27.6816 59.1203 27.6084 59.0839L26.4629 58.3554C26.2137 58.21 25.9244 58.1486 25.6376 58.18C25.3508 58.2115 25.0817 58.3342 24.8699 58.5301L24.4666 58.9331C24.2672 59.143 24.1421 59.4125 24.1105 59.7003C24.079 59.9881 24.1427 60.2783 24.2919 60.5264L25.0209 61.6719C25.0819 61.8033 25.0885 61.9535 25.0392 62.0898C25.0315 62.1049 25.0241 62.1203 25.0178 62.1356L24.6521 63.0244C24.6464 63.0384 24.641 63.0526 24.6365 63.0671C24.574 63.1991 24.4621 63.3012 24.3249 63.3513L22.9998 63.6454C22.7189 63.7154 22.4686 63.8756 22.2874 64.1015C22.1063 64.3273 22.0042 64.6064 21.9968 64.8959V65.4659C22.0042 65.7552 22.1062 66.0342 22.2873 66.26C22.4684 66.4858 22.7186 66.646 22.9994 66.716L24.3251 67.0104C24.4622 67.0606 24.574 67.1627 24.6364 67.2946C24.6409 67.3091 24.6464 67.3234 24.652 67.3374L25.0177 68.2261C25.024 68.2415 25.0311 68.2566 25.0391 68.2717C25.0885 68.408 25.0818 68.5584 25.0206 68.6898L24.2918 69.8353C24.1425 70.0834 24.0787 70.3737 24.1103 70.6615C24.1419 70.9493 24.267 71.2188 24.4665 71.4286L24.8698 71.832C25.0817 72.0278 25.3509 72.1504 25.6377 72.1819C25.9245 72.2133 26.2138 72.1519 26.4631 72.0067L27.6081 71.2779C27.6814 71.2414 27.7626 71.2238 27.8444 71.2266C27.9068 71.2241 27.9689 71.2353 28.0265 71.2593C28.0416 71.2667 28.0567 71.2742 28.0724 71.2804L28.9608 71.6464C28.9751 71.6521 28.9893 71.6573 29.0038 71.6618C29.1357 71.7244 29.2376 71.8363 29.2877 71.9734L29.5824 73.2987C29.6523 73.5797 29.8124 73.83 30.0383 74.0112C30.2641 74.1923 30.5431 74.2944 30.8326 74.3017H31.4026C31.692 74.2943 31.971 74.1922 32.1968 74.0111C32.4226 73.8299 32.5828 73.5797 32.6527 73.2987L32.9474 71.9734C32.9974 71.8362 33.0994 71.7243 33.2313 71.6618C33.2458 71.6573 33.2601 71.6521 33.2741 71.6464L34.1625 71.2804C34.1782 71.2742 34.1936 71.2667 34.2084 71.2593C34.2659 71.2353 34.328 71.2242 34.3902 71.2266C34.472 71.2237 34.5531 71.2413 34.6262 71.2779L35.772 72.0064C36.0213 72.1518 36.3106 72.2134 36.5975 72.1819C36.8843 72.1505 37.1535 72.0279 37.3654 71.832L37.7684 71.429C37.9678 71.219 38.093 70.9495 38.1246 70.6617C38.1562 70.3738 38.0925 70.0836 37.9434 69.8354L37.2142 68.6898C37.1839 68.6248 37.1667 68.5544 37.1636 68.4827C37.1604 68.411 37.1715 68.3394 37.196 68.272C37.2037 68.2569 37.2108 68.2418 37.2171 68.2264L37.5828 67.3374C37.5889 67.3235 37.5941 67.3092 37.5985 67.2946C37.661 67.1626 37.773 67.0605 37.9103 67.0105L39.2351 66.716C39.5161 66.6462 39.7664 66.4861 39.9477 66.2602C40.1289 66.0344 40.231 65.7554 40.2384 65.4659V64.8959C40.2311 64.6065 40.129 64.3274 39.9479 64.1016C39.7667 63.8757 39.5164 63.7156 39.2355 63.6457V63.6457Z" fill="white"/>
<path opacity="0.2" d="M33.9679 65.1809C33.9679 65.7446 33.8007 66.2957 33.4875 66.7644C33.1744 67.2331 32.7292 67.5985 32.2084 67.8142C31.6876 68.0299 31.1145 68.0864 30.5616 67.9764C30.0087 67.8664 29.5008 67.5949 29.1022 67.1963C28.7035 66.7977 28.4321 66.2898 28.3221 65.7369C28.2121 65.184 28.2686 64.6109 28.4843 64.0901C28.7 63.5693 29.0654 63.1241 29.5341 62.811C30.0028 62.4978 30.5539 62.3306 31.1176 62.3306C31.8733 62.3315 32.5977 62.6321 33.1321 63.1664C33.6664 63.7007 33.967 64.4252 33.9679 65.1809V65.1809Z" fill="white"/>
<g opacity="0.4">
<path opacity="0.4" d="M83.0118 32.9024H53.5532C52.7263 32.9024 52.0559 33.5728 52.0559 34.3997V63.8602C52.0559 64.6872 52.7263 65.3576 53.5532 65.3576H83.0118C83.8387 65.3576 84.5091 64.6872 84.5091 63.8602V34.3997C84.5091 33.5728 83.8387 32.9024 83.0118 32.9024Z" fill="url(#paint2_linear_967_289)"/>
<path opacity="0.4" d="M67.4007 48.2477H55.0522V35.8992H67.4007V48.2477ZM81.5133 48.2477H69.1648V35.8992H81.5133V48.2477ZM67.4007 62.3602H55.0522V50.0117H67.4007V62.3602ZM81.5133 62.3602H69.1648V50.0117H81.5133V62.3602Z" fill="#C3F1FF"/>
</g>
<path d="M69.5656 22.1018L69.628 22.0312C69.7571 21.9021 69.9288 21.8246 70.111 21.8131C70.2932 21.8016 70.4733 21.857 70.6176 21.9689L70.6882 22.0313L74.4341 25.778C74.5631 25.9071 74.6406 26.0787 74.6521 26.2608C74.6636 26.4429 74.6084 26.6229 74.4967 26.7672L74.4344 26.8378L70.6885 30.5888C70.5537 30.7238 70.3726 30.8023 70.182 30.8084C69.9915 30.8146 69.8057 30.7478 69.6626 30.6218C69.5194 30.4958 69.4297 30.32 69.4116 30.1302C69.3935 29.9404 69.4485 29.7508 69.5652 29.6L69.6275 29.5294L72.0929 27.0594L62.6611 27.0595C62.4774 27.0595 62.3001 26.9921 62.1628 26.87C62.0255 26.7479 61.9379 26.5797 61.9164 26.3972L61.9114 26.3098C61.9114 26.1261 61.9788 25.9488 62.1009 25.8116C62.223 25.6743 62.3912 25.5866 62.5736 25.5652L62.6611 25.5602L72.0952 25.56L69.6278 23.0914C69.4988 22.9623 69.4212 22.7905 69.4098 22.6083C69.3983 22.4261 69.4537 22.246 69.5656 22.1018L69.628 22.0311L69.5656 22.1018Z" fill="white"/>
<path d="M58.9934 27.0595C59.4074 27.0595 59.7431 26.7238 59.7431 26.3098C59.7431 25.8957 59.4074 25.5601 58.9934 25.5601C58.5793 25.5601 58.2437 25.8957 58.2437 26.3098C58.2437 26.7238 58.5793 27.0595 58.9934 27.0595Z" fill="white"/>
<path d="M55.0522 27.0595C55.4662 27.0595 55.8019 26.7238 55.8019 26.3098C55.8019 25.8957 55.4662 25.5601 55.0522 25.5601C54.6381 25.5601 54.3025 25.8957 54.3025 26.3098C54.3025 26.7238 54.6381 27.0595 55.0522 27.0595Z" fill="white"/>
<path d="M51.1108 27.0595C51.5248 27.0595 51.8605 26.7238 51.8605 26.3098C51.8605 25.8957 51.5248 25.5601 51.1108 25.5601C50.6967 25.5601 50.3611 25.8957 50.3611 26.3098C50.3611 26.7238 50.6967 27.0595 51.1108 27.0595Z" fill="white"/>
<path d="M47.1696 27.0595C47.5837 27.0595 47.9193 26.7238 47.9193 26.3098C47.9193 25.8957 47.5837 25.5601 47.1696 25.5601C46.7556 25.5601 46.4199 25.8957 46.4199 26.3098C46.4199 26.7238 46.7556 27.0595 47.1696 27.0595Z" fill="white"/>
<path d="M43.2285 27.0595C43.6425 27.0595 43.9782 26.7238 43.9782 26.3098C43.9782 25.8957 43.6425 25.5601 43.2285 25.5601C42.8144 25.5601 42.4788 25.8957 42.4788 26.3098C42.4788 26.7238 42.8144 27.0595 43.2285 27.0595Z" fill="white"/>
<path d="M39.2873 27.0595C39.7013 27.0595 40.037 26.7238 40.037 26.3098C40.037 25.8957 39.7013 25.5601 39.2873 25.5601C38.8732 25.5601 38.5376 25.8957 38.5376 26.3098C38.5376 26.7238 38.8732 27.0595 39.2873 27.0595Z" fill="white"/>
<path d="M35.3461 27.0595C35.7602 27.0595 36.0958 26.7238 36.0958 26.3098C36.0958 25.8957 35.7602 25.5601 35.3461 25.5601C34.9321 25.5601 34.5964 25.8957 34.5964 26.3098C34.5964 26.7238 34.9321 27.0595 35.3461 27.0595Z" fill="white"/>
<path d="M31.405 27.0595C31.819 27.0595 32.1547 26.7238 32.1547 26.3098C32.1547 25.8957 31.819 25.5601 31.405 25.5601C30.9909 25.5601 30.6553 25.8957 30.6553 26.3098C30.6553 26.7238 30.9909 27.0595 31.405 27.0595Z" fill="white"/>
</g>
<defs>
<linearGradient id="paint0_linear_967_289" x1="47.8697" y1="-15.1531" x2="51.8525" y2="130.615" gradientUnits="userSpaceOnUse">
<stop stop-color="#00ABDE"/>
<stop offset="1" stop-color="#007ED8"/>
</linearGradient>
<linearGradient id="paint1_linear_967_289" x1="31.1175" y1="65.3576" x2="31.1175" y2="32.9024" gradientUnits="userSpaceOnUse">
<stop stop-color="#004DAE"/>
<stop offset="0.21" stop-color="#0061C4"/>
<stop offset="0.51" stop-color="#0078DD"/>
<stop offset="0.78" stop-color="#0086EC"/>
<stop offset="1" stop-color="#008BF1"/>
</linearGradient>
<linearGradient id="paint2_linear_967_289" x1="68.2825" y1="65.3576" x2="68.2825" y2="32.9024" gradientUnits="userSpaceOnUse">
<stop stop-color="#004DAE"/>
<stop offset="0.21" stop-color="#0061C4"/>
<stop offset="0.51" stop-color="#0078DD"/>
<stop offset="0.78" stop-color="#0086EC"/>
<stop offset="1" stop-color="#008BF1"/>
</linearGradient>
<clipPath id="clip0_967_289">
<rect width="99.2799" height="99.28" fill="white"/>
</clipPath>
</defs>
</svg>
