<svg width="160" height="189" viewBox="0 0 160 189" fill="none" xmlns="http://www.w3.org/2000/svg">
<g clip-path="url(#clip0_930_289)">
<path d="M80.0334 188.99C83.1147 188.985 86.1351 188.132 88.7638 186.524L150.739 148.864C153.52 147.101 155.804 144.656 157.375 141.761C158.945 138.867 159.749 135.619 159.711 132.326V57.6114C159.747 54.319 158.942 51.0719 157.372 48.1778C155.802 45.2837 153.519 42.8384 150.739 41.0736L88.7638 3.41352C86.1303 1.82833 83.1147 0.990723 80.041 0.990723C76.9672 0.990723 73.9516 1.82833 71.3182 3.41352L9.34307 41.0887C6.55997 42.8511 4.27342 45.2955 2.70046 48.1898C1.12749 51.0842 0.32029 54.3326 0.355473 57.6266V132.326C0.33694 135.11 0.911657 137.865 2.04135 140.409C3.17104 142.953 4.82977 145.227 6.90707 147.079V147.105L71.3182 186.539C73.9438 188.139 76.9586 188.987 80.0334 188.99V188.99ZM80.6812 7.9429C82.6331 7.9429 85.1103 9.15582 86.8201 10.1998L147.577 47.3941C151.329 49.6789 153.445 56.275 153.445 61.026L152.813 132.326C152.813 137.077 149.614 141.345 145.861 143.63L85.4659 180.011C82.0313 182.099 79.2409 182.099 75.8062 180.011L14.5982 143.539C10.8458 141.255 7.82738 137.062 7.82738 132.326V58.6787C7.85989 56.3136 8.46888 53.992 9.60155 51.9155C10.7342 49.8389 12.3563 48.07 14.3273 46.7621L74.9035 10.1998C76.6132 9.15582 78.7294 7.9429 80.6812 7.9429Z" fill="#F2F1F0"/>
<path fill-rule="evenodd" clip-rule="evenodd" d="M87.9319 11.5235C85.561 10.05 82.8252 9.2691 80.0337 9.2691C77.2422 9.2691 74.5064 10.05 72.1355 11.5235L16.0008 45.8549C13.4748 47.4666 11.4025 49.697 9.98047 52.3344C8.55847 54.9719 7.83398 57.929 7.87573 60.925V129.028C7.83581 132.024 8.56109 134.98 9.98292 137.617C11.4048 140.255 13.4761 142.485 16.0008 144.098L72.1355 178.429C74.5063 179.903 77.2422 180.684 80.0337 180.684C82.8253 180.684 85.5612 179.903 87.9319 178.429L144.066 144.098C146.591 142.485 148.663 140.255 150.085 137.618C151.507 134.981 152.232 132.024 152.192 129.028V60.925C152.23 57.9295 151.504 54.9737 150.082 52.3368C148.66 49.7 146.59 47.4691 144.066 45.8549L87.9319 11.5235Z" fill="url(#paint0_linear_930_289)"/>
<path fill-rule="evenodd" clip-rule="evenodd" d="M80.0338 10.745C81.717 10.745 83.5997 11.6107 85.6665 12.8688L144.132 48.4112C146.024 49.6246 147.573 51.3015 148.634 53.2826C149.694 55.2636 150.231 57.483 150.192 59.7297V130.208C150.231 132.455 149.694 134.674 148.634 136.655C147.573 138.636 146.024 140.313 144.132 141.526L85.6675 177.068L85.6665 177.069C83.9963 178.209 82.0512 178.88 80.0338 179.012C78.0163 178.88 76.0713 178.209 74.4011 177.069L74.4001 177.068L15.9378 141.528L15.9356 141.527C14.1473 140.564 12.6222 139.176 11.4938 137.487C10.5169 135.884 9.87578 133.669 9.87578 130.208V59.7297C9.83704 57.483 10.3734 55.2637 11.434 53.2827C12.4945 51.3017 14.044 49.6248 15.9352 48.4113L74.392 12.8742L74.3961 12.8718C76.4799 11.6188 78.3401 10.745 80.0338 10.745ZM87.7463 9.45205L146.21 44.9933C148.689 46.5634 150.723 48.7421 152.121 51.3219C153.518 53.9016 154.231 56.7962 154.192 59.7298V130.208C154.231 133.142 153.518 136.037 152.121 138.616C150.723 141.196 148.688 143.375 146.21 144.945L87.7453 180.486C85.4511 182.011 82.7857 182.884 80.0338 183.012C77.2819 182.884 74.6164 182.011 72.3222 180.486H72.3213L13.8575 144.944L13.855 144.943C11.5197 143.65 9.53644 141.805 8.07828 139.569C6.4837 136.716 5.72068 133.473 5.87578 130.208V59.7297C5.83672 56.7961 6.54983 53.9014 7.94712 51.3217C9.34441 48.7419 11.3793 46.5632 13.8577 44.9931L72.3222 9.4514L72.3304 9.44652C74.421 8.18911 77.1289 6.74506 80.0338 6.74506C82.92 6.74506 85.6371 8.16814 87.7463 9.452V9.45205Z" fill="#0078D4"/>
<path opacity="0.2" d="M139.965 133.017L80.4154 167.624L20.4764 133.018L80.0264 98.4107L139.965 133.017Z" fill="#003067"/>
<path d="M140.956 121.64L80.2334 156.928L19.1224 121.645L79.8444 86.3567L140.956 121.64Z" fill="#1B93EB"/>
<path d="M140.956 121.64L140.944 125.746L80.2224 161.034L80.2334 156.928L140.956 121.64Z" fill="#1F56A3"/>
<path d="M80.2335 156.928L80.2225 161.034L19.1105 125.751L19.1225 121.645L80.2335 156.928Z" fill="#0078D4"/>
<path d="M69.9527 50.1253L125.369 82.1197L125.248 124.647C125.246 125.312 124.769 125.584 124.182 125.245L70.883 94.4727C70.5774 94.2729 70.3231 94.0041 70.1406 93.6879C69.958 93.3718 69.8524 93.0171 69.8322 92.6526L69.9527 50.1253Z" fill="#F2F2F2"/>
<path opacity="0.6" d="M75.8395 90.4057L75.9235 60.5007L119.358 85.5777L119.273 115.483L75.8395 90.4057Z" fill="white"/>
<path d="M125.248 124.647L125.369 82.1197L127.994 80.5941L127.873 123.121C127.886 123.251 127.864 123.381 127.81 123.499C127.756 123.617 127.671 123.719 127.565 123.794L124.94 125.319C125.046 125.244 125.131 125.143 125.185 125.025C125.239 124.907 125.261 124.776 125.248 124.647V124.647Z" fill="#E8E8E8"/>
<path d="M72.8296 42.3691C72.922 42.3265 73.024 42.3093 73.1252 42.3194C73.2265 42.3295 73.3231 42.3665 73.4052 42.4265L127.196 73.4827C127.432 73.6356 127.629 73.8421 127.771 74.0855C127.912 74.3288 127.994 74.6021 128.01 74.8831L127.994 80.5941L125.369 82.1196L125.385 76.4086C125.369 76.1276 125.287 75.8543 125.145 75.611C125.004 75.3676 124.807 75.1611 124.571 75.0082L70.78 43.9521C70.6979 43.8921 70.6013 43.8551 70.5002 43.845C70.399 43.8349 70.297 43.852 70.2047 43.8946L72.8296 42.3691Z" fill="#1F56A3"/>
<path d="M124.571 75.0083C124.807 75.1612 125.004 75.3677 125.146 75.611C125.287 75.8544 125.369 76.1277 125.385 76.4087L125.369 82.1197L69.9528 50.1253L69.9678 44.8333L69.9689 44.4143C69.9704 43.9043 70.3283 43.6912 70.7801 43.9521L124.571 75.0083Z" fill="#0078D4"/>
<path d="M75.1893 48.4314C75.5984 48.6964 75.9391 49.0544 76.1835 49.4762C76.4279 49.8979 76.5691 50.3715 76.5956 50.8582C76.5931 51.76 75.9569 52.1134 75.1801 51.6649C74.7698 51.403 74.4285 51.0462 74.1851 50.6246C73.9417 50.203 73.8033 49.729 73.7816 49.2427C73.7842 48.3409 74.4204 47.9875 75.1893 48.4314Z" fill="#50E6FF"/>
<path d="M81.1945 103.251C81.2282 103.279 81.2622 103.308 81.2966 103.335C81.2622 103.307 81.2281 103.279 81.1945 103.251Z" fill="#003067"/>
<path d="M59.7601 121.152C59.7634 121.161 59.7638 121.169 59.7669 121.178C59.8401 121.262 59.9068 121.352 59.9663 121.446C59.9047 121.343 59.8358 121.245 59.7601 121.152V121.152Z" fill="#0078D4"/>
<path d="M58.4467 121.917C58.4892 122.029 58.5396 122.137 58.5976 122.242C58.5462 122.144 58.5024 122.042 58.4666 121.938C58.4602 121.93 58.453 121.924 58.4467 121.917Z" fill="#0078D4"/>
<path d="M61.4355 123.801C61.4049 123.732 61.3779 123.662 61.3548 123.59C61.3481 123.582 61.3404 123.576 61.3339 123.568C61.3632 123.648 61.3972 123.725 61.4355 123.801V123.801Z" fill="#0078D4"/>
<path d="M62.6475 122.811C62.6508 122.82 62.6512 122.828 62.6544 122.837C62.7275 122.921 62.7941 123.011 62.8536 123.105C62.7934 123.001 62.7244 122.903 62.6475 122.811V122.811Z" fill="#0078D4"/>
<path d="M85.324 133.932C85.329 134.042 85.3299 134.074 85.3298 134.107L85.314 139.689C85.3105 140.924 84.4463 141.424 83.3782 140.808L56.3667 125.213C56.3379 125.196 56.3092 125.179 56.2807 125.161C55.5749 124.65 55.0296 123.948 54.7091 123.137L68.9109 131.337C69.4484 131.647 69.877 131.395 69.8788 130.777L69.8946 125.195C69.8963 124.578 70.3319 124.329 70.8625 124.636L85.0642 132.835C85.2061 133.185 85.2937 133.555 85.324 133.932V133.932ZM81.4599 135.782C81.9905 136.089 82.426 135.841 82.4278 135.223C82.4106 134.888 82.3146 134.562 82.1475 134.271C81.9804 133.98 81.747 133.733 81.4662 133.55L75.678 130.208C75.1474 129.901 74.7119 130.15 74.7101 130.767C74.7273 131.102 74.8233 131.428 74.9904 131.719C75.1575 132.01 75.3909 132.257 75.6717 132.441L81.4599 135.782" fill="url(#paint1_linear_930_289)"/>
<path d="M81.46 135.782C81.9906 136.089 82.4261 135.841 82.4278 135.223C82.4107 134.888 82.3147 134.562 82.1476 134.271C81.9805 133.98 81.7471 133.733 81.4663 133.55L75.6781 130.208C75.1475 129.901 74.712 130.15 74.7102 130.767C74.7273 131.102 74.8234 131.428 74.9905 131.719C75.1576 132.01 75.391 132.257 75.6718 132.441L81.46 135.782" fill="#C3F1FF"/>
<path d="M82.1031 135.782L76.3149 132.441C76.0341 132.257 75.8007 132.01 75.6336 131.719C75.4665 131.428 75.3705 131.102 75.3534 130.767C75.3464 130.655 75.366 130.542 75.4106 130.439C75.4553 130.335 75.5237 130.243 75.6104 130.171C75.1042 129.922 74.7119 130.181 74.7102 130.767C74.7273 131.102 74.8234 131.428 74.9905 131.719C75.1576 132.01 75.391 132.257 75.6718 132.441L81.4599 135.782C81.5643 135.86 81.6895 135.905 81.8195 135.911C81.9496 135.917 82.0785 135.885 82.19 135.818C82.1638 135.805 82.1297 135.798 82.1031 135.782Z" fill="#1F56A3"/>
<path d="M83.4068 130.76C83.9436 131.111 84.3947 131.579 84.7266 132.128C85.0584 132.677 85.2626 133.293 85.3241 133.932C85.2938 133.555 85.2061 133.185 85.0642 132.835L70.8625 124.636C70.3319 124.329 69.8964 124.578 69.8946 125.195L69.8788 130.777C69.877 131.395 69.4484 131.647 68.9109 131.337L54.7091 123.137C54.9649 123.809 55.3783 124.41 55.9145 124.888C55.48 124.508 55.126 124.045 54.8734 123.526C54.6208 123.007 54.4747 122.442 54.4436 121.866L54.4595 116.284C54.463 115.049 55.3341 114.552 56.3953 115.165L83.4068 130.76ZM62.8492 124.681C62.9479 124.611 63.0265 124.517 63.0768 124.407C63.1271 124.298 63.1474 124.177 63.1357 124.057C63.1179 123.722 63.0214 123.396 62.854 123.105C62.6866 122.815 62.4531 122.568 62.1723 122.384C62.0744 122.314 61.9597 122.271 61.8398 122.259C61.7199 122.247 61.599 122.267 61.4892 122.317C61.1268 122.524 61.1146 123.177 61.4355 123.801L61.446 123.822C61.4585 123.846 61.4714 123.869 61.4848 123.893C61.6465 124.187 61.881 124.435 62.166 124.613C62.2639 124.684 62.3787 124.727 62.4986 124.739C62.6185 124.75 62.7395 124.73 62.8492 124.681V124.681ZM59.9619 123.029C60.0594 122.958 60.1367 122.862 60.186 122.751C60.2353 122.641 60.255 122.519 60.2432 122.399C60.228 122.063 60.1329 121.736 59.9658 121.445C59.7988 121.154 59.5645 120.906 59.2826 120.724C59.1853 120.653 59.0709 120.61 58.9513 120.598C58.8316 120.587 58.711 120.608 58.602 120.658C58.2218 120.875 58.2198 121.587 58.5975 122.242C58.7578 122.536 58.9917 122.784 59.2762 122.961C59.3745 123.031 59.4895 123.075 59.6099 123.087C59.7302 123.099 59.8516 123.079 59.9619 123.029" fill="url(#paint2_linear_930_289)"/>
<path d="M59.0774 122.242C58.6997 121.587 58.7018 120.875 59.082 120.658L59.0908 120.656C59.014 120.621 58.9306 120.604 58.8462 120.604C58.7619 120.604 58.6786 120.623 58.602 120.658C58.2218 120.875 58.2198 121.587 58.5976 122.242C58.7578 122.536 58.9917 122.784 59.2763 122.961C59.3736 123.03 59.4873 123.073 59.6062 123.085C59.7251 123.098 59.8452 123.079 59.9547 123.031C59.8861 123.015 59.8196 122.991 59.7562 122.961C59.4716 122.784 59.2378 122.536 59.0774 122.242V122.242Z" fill="#1F56A3"/>
<path d="M61.9646 123.893C61.9512 123.869 61.9383 123.846 61.9259 123.822L61.9154 123.801C61.5944 123.177 61.6067 122.524 61.9691 122.317L61.9769 122.316C61.9001 122.282 61.8169 122.264 61.7329 122.264C61.6488 122.265 61.5658 122.283 61.4892 122.317C61.1267 122.524 61.1145 123.177 61.4354 123.801L61.4459 123.822C61.4584 123.846 61.4713 123.869 61.4847 123.893C61.6464 124.187 61.881 124.435 62.1659 124.613C62.2629 124.682 62.3762 124.725 62.4945 124.737C62.6129 124.749 62.7324 124.73 62.8413 124.682C62.7738 124.666 62.7083 124.643 62.6459 124.613C62.3609 124.435 62.1263 124.187 61.9646 123.893Z" fill="#1F56A3"/>
<path d="M63.1356 124.057C63.1178 123.722 63.0213 123.396 62.8539 123.105C62.6866 122.815 62.453 122.568 62.1723 122.384C62.1099 122.354 62.0444 122.331 61.9769 122.316L61.9692 122.317C61.6067 122.524 61.5945 123.177 61.9154 123.801L61.9259 123.822C61.9384 123.846 61.9512 123.869 61.9647 123.893C62.1264 124.187 62.361 124.435 62.6459 124.613C62.7083 124.643 62.7739 124.666 62.8413 124.682L62.8492 124.681C62.9479 124.611 63.0264 124.517 63.0768 124.407C63.1271 124.298 63.1474 124.177 63.1356 124.057Z" fill="#C3F1FF"/>
<path d="M60.2431 122.399C60.228 122.063 60.1329 121.736 59.9658 121.445C59.7987 121.154 59.5644 120.906 59.2825 120.724C59.2212 120.695 59.1569 120.672 59.0907 120.656L59.0819 120.658C58.7017 120.875 58.6997 121.587 59.0774 122.242C59.2377 122.536 59.4715 122.784 59.7561 122.961C59.8195 122.991 59.8861 123.015 59.9546 123.031L59.9618 123.029C60.0594 122.958 60.1367 122.862 60.186 122.751C60.2353 122.641 60.255 122.519 60.2431 122.399V122.399Z" fill="#50E6FF"/>
<path d="M108.144 120.67C108.094 120.082 107.917 119.511 107.623 118.999C107.297 118.385 106.816 117.867 106.227 117.499V117.499L79.2149 101.903C79.0193 101.762 78.7894 101.675 78.5489 101.651C78.3083 101.628 78.066 101.67 77.847 101.772L55.0273 115.033C55.2464 114.931 55.4887 114.89 55.7291 114.913C55.9696 114.936 56.1996 115.023 56.3951 115.165L83.4068 130.76C83.996 131.129 84.4776 131.646 84.8031 132.26C85.097 132.773 85.2748 133.343 85.3241 133.932C85.3291 134.042 85.3299 134.074 85.3299 134.107L85.3141 139.689C85.3386 139.929 85.2991 140.172 85.1995 140.392C85.0999 140.612 84.9438 140.802 84.7471 140.942L107.567 127.68C107.763 127.54 107.92 127.351 108.019 127.13C108.119 126.91 108.158 126.668 108.134 126.428L108.15 120.845C108.15 120.813 108.149 120.781 108.144 120.67Z" fill="url(#paint3_linear_930_289)"/>
<path d="M59.7601 111.105C59.7634 111.113 59.7638 111.121 59.7669 111.13C59.8401 111.214 59.9068 111.304 59.9663 111.398C59.9047 111.295 59.8358 111.197 59.7601 111.105V111.105Z" fill="#0078D4"/>
<path d="M58.4467 111.869C58.4892 111.981 58.5396 112.089 58.5976 112.194C58.5462 112.096 58.5024 111.994 58.4666 111.89C58.4602 111.882 58.453 111.877 58.4467 111.869Z" fill="#0078D4"/>
<path d="M61.4355 113.753C61.4049 113.684 61.3779 113.614 61.3548 113.542C61.3481 113.534 61.3404 113.528 61.3339 113.52C61.3632 113.6 61.3972 113.678 61.4355 113.753Z" fill="#0078D4"/>
<path d="M62.6475 112.764C62.6508 112.772 62.6512 112.78 62.6544 112.789C62.7275 112.873 62.7941 112.963 62.8536 113.057C62.7934 112.954 62.7244 112.855 62.6475 112.764V112.764Z" fill="#0078D4"/>
<path d="M85.324 123.884C85.329 123.994 85.3299 124.027 85.3298 124.059L85.314 129.641C85.3105 130.876 84.4463 131.377 83.3782 130.76L56.3667 115.165C56.3379 115.148 56.3092 115.131 56.2807 115.113C55.5749 114.602 55.0296 113.9 54.7091 113.09L68.9109 121.289C69.4484 121.599 69.877 121.347 69.8788 120.73L69.8946 115.147C69.8963 114.53 70.3319 114.282 70.8625 114.588L85.0642 122.787C85.2061 123.137 85.2937 123.507 85.324 123.884ZM81.4599 125.735C81.9905 126.041 82.426 125.793 82.4278 125.175C82.4106 124.84 82.3146 124.514 82.1475 124.223C81.9804 123.932 81.747 123.685 81.4662 123.502L75.678 120.16C75.1474 119.854 74.7119 120.102 74.7101 120.719C74.7273 121.054 74.8233 121.38 74.9904 121.671C75.1575 121.962 75.3909 122.209 75.6717 122.393L81.4599 125.735" fill="url(#paint4_linear_930_289)"/>
<path d="M81.46 125.735C81.9906 126.041 82.4261 125.793 82.4278 125.175C82.4107 124.84 82.3147 124.514 82.1476 124.223C81.9805 123.932 81.7471 123.685 81.4663 123.502L75.6781 120.16C75.1475 119.854 74.712 120.102 74.7102 120.719C74.7274 121.054 74.8234 121.38 74.9905 121.671C75.1576 121.962 75.391 122.209 75.6718 122.393L81.46 125.735" fill="#C3F1FF"/>
<path d="M82.1031 125.735L76.3149 122.393C76.0341 122.209 75.8007 121.962 75.6336 121.671C75.4665 121.38 75.3705 121.054 75.3534 120.719C75.3464 120.607 75.366 120.494 75.4106 120.391C75.4553 120.287 75.5237 120.196 75.6104 120.124C75.1042 119.874 74.7119 120.133 74.7102 120.719C74.7273 121.054 74.8234 121.38 74.9905 121.671C75.1576 121.962 75.391 122.209 75.6718 122.393L81.4599 125.735C81.5643 125.812 81.6895 125.857 81.8195 125.863C81.9496 125.87 82.0785 125.837 82.19 125.77C82.1638 125.757 82.1297 125.75 82.1031 125.735Z" fill="#1F56A3"/>
<path d="M83.4068 120.712C83.9436 121.063 84.3947 121.531 84.7266 122.08C85.0584 122.629 85.2626 123.245 85.3241 123.884C85.2938 123.507 85.2061 123.137 85.0642 122.787L70.8625 114.588C70.3319 114.282 69.8964 114.53 69.8946 115.147L69.8788 120.73C69.877 121.347 69.4484 121.599 68.9109 121.289L54.7091 113.09C54.9649 113.761 55.3783 114.362 55.9145 114.84C55.48 114.46 55.126 113.997 54.8734 113.478C54.6208 112.959 54.4747 112.394 54.4436 111.818L54.4594 106.236C54.4629 105.001 55.334 104.504 56.3952 105.117L83.4068 120.712ZM62.8492 114.633C62.9479 114.563 63.0265 114.469 63.0768 114.36C63.1271 114.25 63.1474 114.129 63.1357 114.009C63.1179 113.674 63.0214 113.348 62.854 113.058C62.6866 112.767 62.4531 112.52 62.1723 112.337C62.0744 112.266 61.9597 112.223 61.8398 112.211C61.7199 112.199 61.599 112.219 61.4892 112.269C61.1268 112.476 61.1146 113.129 61.4355 113.753L61.446 113.774C61.4585 113.798 61.4714 113.821 61.4848 113.845C61.6465 114.139 61.881 114.387 62.166 114.565C62.2639 114.636 62.3787 114.679 62.4986 114.691C62.6185 114.703 62.7395 114.683 62.8492 114.633V114.633ZM59.9619 112.982C60.0594 112.91 60.1367 112.814 60.186 112.703C60.2353 112.593 60.255 112.471 60.2432 112.351C60.228 112.015 60.1329 111.688 59.9658 111.397C59.7988 111.106 59.5645 110.859 59.2826 110.676C59.1853 110.605 59.0709 110.562 58.9513 110.551C58.8316 110.539 58.711 110.56 58.602 110.61C58.2218 110.827 58.2198 111.54 58.5975 112.194C58.7578 112.488 58.9917 112.736 59.2762 112.913C59.3745 112.983 59.4895 113.027 59.6099 113.039C59.7302 113.051 59.8516 113.031 59.9619 112.982" fill="url(#paint5_linear_930_289)"/>
<path d="M59.0774 112.194C58.6997 111.54 58.7018 110.827 59.082 110.61L59.0908 110.609C59.014 110.574 58.9306 110.556 58.8462 110.556C58.7619 110.556 58.6786 110.575 58.602 110.61C58.2218 110.827 58.2198 111.54 58.5976 112.194C58.7578 112.488 58.9917 112.736 59.2763 112.913C59.3736 112.982 59.4873 113.025 59.6062 113.037C59.7251 113.05 59.8452 113.031 59.9547 112.983C59.8861 112.967 59.8196 112.944 59.7562 112.913C59.4716 112.736 59.2378 112.488 59.0774 112.194V112.194Z" fill="#1F56A3"/>
<path d="M61.9646 113.845C61.9512 113.821 61.9383 113.798 61.9259 113.774L61.9154 113.753C61.5944 113.13 61.6067 112.476 61.9691 112.269L61.9769 112.268C61.9001 112.234 61.8169 112.216 61.7329 112.216C61.6488 112.217 61.5658 112.235 61.4892 112.269C61.1267 112.476 61.1145 113.13 61.4354 113.753L61.4459 113.774C61.4584 113.798 61.4713 113.821 61.4847 113.845C61.6464 114.139 61.881 114.388 62.1659 114.565C62.2629 114.634 62.3762 114.677 62.4945 114.689C62.6129 114.701 62.7324 114.682 62.8413 114.634C62.7738 114.619 62.7083 114.595 62.6459 114.565C62.3609 114.388 62.1263 114.139 61.9646 113.845Z" fill="#1F56A3"/>
<path d="M63.1356 114.009C63.1178 113.674 63.0213 113.348 62.8539 113.058C62.6866 112.767 62.453 112.52 62.1723 112.337C62.1099 112.307 62.0444 112.284 61.9769 112.268L61.9692 112.269C61.6067 112.476 61.5945 113.13 61.9154 113.753L61.9259 113.774C61.9384 113.798 61.9512 113.821 61.9647 113.845C62.1264 114.139 62.361 114.388 62.6459 114.565C62.7083 114.595 62.7739 114.619 62.8413 114.634L62.8492 114.633C62.9479 114.563 63.0264 114.469 63.0768 114.36C63.1271 114.25 63.1474 114.129 63.1356 114.009Z" fill="#C3F1FF"/>
<path d="M60.2431 112.351C60.228 112.015 60.1329 111.688 59.9658 111.397C59.7987 111.106 59.5644 110.859 59.2825 110.676C59.2212 110.647 59.1569 110.624 59.0907 110.609L59.0819 110.61C58.7017 110.827 58.6997 111.54 59.0774 112.194C59.2377 112.488 59.4715 112.736 59.7561 112.913C59.8195 112.944 59.8861 112.967 59.9546 112.983L59.9618 112.982C60.0594 112.91 60.1367 112.814 60.186 112.703C60.2353 112.593 60.255 112.471 60.2431 112.351V112.351Z" fill="#50E6FF"/>
<path d="M108.144 110.622C108.094 110.034 107.917 109.463 107.623 108.951C107.297 108.337 106.816 107.82 106.227 107.451V107.451L79.2149 91.8556C79.0193 91.7137 78.7894 91.6267 78.5489 91.6036C78.3083 91.5804 78.066 91.622 77.847 91.7241L55.0273 104.985C55.2464 104.883 55.4887 104.842 55.7291 104.865C55.9696 104.888 56.1996 104.975 56.3951 105.117L83.4068 120.712C83.996 121.081 84.4776 121.598 84.8031 122.213C85.097 122.725 85.2748 123.295 85.3241 123.884C85.3291 123.994 85.3299 124.027 85.3299 124.059L85.3141 129.641C85.3386 129.881 85.2991 130.124 85.1995 130.344C85.0999 130.564 84.9438 130.754 84.7471 130.894L107.567 117.633C107.763 117.492 107.92 117.303 108.019 117.083C108.119 116.863 108.158 116.62 108.134 116.38L108.15 110.797C108.15 110.765 108.149 110.733 108.144 110.622Z" fill="url(#paint6_linear_930_289)"/>
<path d="M59.7601 101.057C59.7634 101.065 59.7638 101.074 59.7669 101.082C59.8401 101.166 59.9068 101.256 59.9663 101.35C59.9047 101.248 59.8358 101.15 59.7601 101.057V101.057Z" fill="#0078D4"/>
<path d="M58.4467 101.821C58.4892 101.933 58.5396 102.041 58.5976 102.146C58.5462 102.048 58.5024 101.946 58.4666 101.842C58.4602 101.834 58.453 101.829 58.4467 101.821Z" fill="#0078D4"/>
<path d="M61.4355 103.706C61.4049 103.637 61.3779 103.566 61.3548 103.494C61.3481 103.486 61.3404 103.48 61.3339 103.472C61.3632 103.552 61.3972 103.63 61.4355 103.706Z" fill="#0078D4"/>
<path d="M62.6475 102.716C62.6508 102.724 62.6512 102.732 62.6544 102.741C62.7275 102.825 62.7941 102.915 62.8536 103.009C62.7934 102.906 62.7244 102.808 62.6475 102.716V102.716Z" fill="#0078D4"/>
<path d="M85.324 113.836C85.329 113.946 85.3299 113.979 85.3298 114.011L85.314 119.593C85.3105 120.828 84.4463 121.329 83.3782 120.712L56.3667 105.117C56.3379 105.1 56.3092 105.083 56.2807 105.065C55.5749 104.554 55.0296 103.852 54.7091 103.042L68.9109 111.241C69.4484 111.551 69.877 111.299 69.8788 110.682L69.8946 105.1C69.8963 104.482 70.3319 104.234 70.8625 104.54L85.0642 112.739C85.2061 113.09 85.2937 113.459 85.324 113.836V113.836ZM81.4599 115.687C81.9905 115.993 82.426 115.745 82.4278 115.127C82.4106 114.792 82.3146 114.466 82.1475 114.175C81.9804 113.885 81.747 113.637 81.4662 113.454L75.678 110.112C75.1474 109.806 74.7119 110.054 74.7101 110.671C74.7273 111.006 74.8233 111.333 74.9904 111.623C75.1575 111.914 75.3909 112.161 75.6717 112.345L81.4599 115.687" fill="url(#paint7_linear_930_289)"/>
<path d="M81.46 115.687C81.9906 115.993 82.4261 115.745 82.4278 115.127C82.4107 114.792 82.3147 114.466 82.1476 114.175C81.9805 113.885 81.7471 113.637 81.4663 113.454L75.6781 110.112C75.1475 109.806 74.712 110.054 74.7102 110.671C74.7274 111.006 74.8234 111.333 74.9905 111.623C75.1576 111.914 75.391 112.161 75.6718 112.345L81.46 115.687" fill="#C3F1FF"/>
<path d="M82.1031 115.687L76.3149 112.345C76.0341 112.161 75.8007 111.914 75.6336 111.623C75.4665 111.333 75.3705 111.006 75.3534 110.672C75.3464 110.559 75.366 110.446 75.4106 110.343C75.4553 110.239 75.5237 110.148 75.6104 110.076C75.1042 109.826 74.7119 110.085 74.7102 110.672C74.7273 111.006 74.8234 111.333 74.9905 111.623C75.1576 111.914 75.391 112.161 75.6718 112.345L81.4599 115.687C81.5643 115.764 81.6895 115.809 81.8195 115.815C81.9496 115.822 82.0785 115.789 82.19 115.722C82.1638 115.709 82.1297 115.702 82.1031 115.687Z" fill="#1F56A3"/>
<path d="M83.4067 110.664C83.9436 111.015 84.3947 111.483 84.7265 112.032C85.0584 112.581 85.2626 113.197 85.324 113.836C85.2937 113.459 85.2061 113.09 85.0642 112.739L70.8625 104.54C70.3319 104.234 69.8963 104.482 69.8946 105.1L69.8788 110.682C69.877 111.299 69.4484 111.551 68.9109 111.241L54.7091 103.042C54.9649 103.713 55.3783 104.314 55.9145 104.793C55.48 104.412 55.126 103.949 54.8734 103.43C54.6208 102.911 54.4747 102.347 54.4436 101.77L54.4594 96.188C54.4629 94.9528 55.334 94.4565 56.3952 95.0691L83.4067 110.664ZM62.8492 104.585C62.9479 104.516 63.0264 104.421 63.0768 104.312C63.1271 104.202 63.1474 104.081 63.1356 103.961C63.1178 103.626 63.0213 103.3 62.854 103.01C62.6866 102.719 62.4531 102.472 62.1723 102.289C62.0744 102.218 61.9597 102.175 61.8398 102.163C61.7199 102.152 61.5989 102.172 61.4892 102.221C61.1268 102.428 61.1146 103.082 61.4355 103.706L61.446 103.726C61.4585 103.75 61.4713 103.774 61.4847 103.797C61.6465 104.092 61.881 104.34 62.166 104.518C62.2639 104.588 62.3786 104.631 62.4986 104.643C62.6185 104.655 62.7394 104.635 62.8492 104.585V104.585ZM59.9618 102.934C60.0594 102.862 60.1367 102.766 60.186 102.656C60.2353 102.545 60.255 102.424 60.2432 102.303C60.228 101.968 60.1329 101.641 59.9658 101.349C59.7987 101.058 59.5645 100.811 59.2826 100.628C59.1853 100.558 59.0709 100.514 58.9512 100.503C58.8316 100.491 58.711 100.512 58.602 100.562C58.2218 100.779 58.2198 101.492 58.5975 102.146C58.7578 102.44 58.9916 102.688 59.2762 102.865C59.3744 102.936 59.4895 102.979 59.6098 102.991C59.7302 103.003 59.8516 102.983 59.9618 102.934" fill="url(#paint8_linear_930_289)"/>
<path d="M59.0774 102.146C58.6997 101.492 58.7018 100.779 59.082 100.562L59.0908 100.561C59.014 100.526 58.9306 100.508 58.8462 100.508C58.7619 100.508 58.6786 100.527 58.602 100.562C58.2218 100.779 58.2198 101.492 58.5976 102.146C58.7578 102.44 58.9917 102.688 59.2763 102.865C59.3736 102.934 59.4873 102.977 59.6062 102.99C59.7251 103.002 59.8452 102.983 59.9547 102.935C59.8861 102.919 59.8196 102.896 59.7562 102.865C59.4716 102.688 59.2378 102.44 59.0774 102.146V102.146Z" fill="#1F56A3"/>
<path d="M61.9646 103.797C61.9512 103.774 61.9383 103.75 61.9259 103.726L61.9154 103.706C61.5944 103.082 61.6067 102.428 61.9691 102.221L61.9769 102.22C61.9001 102.186 61.8169 102.168 61.7329 102.169C61.6488 102.169 61.5658 102.187 61.4892 102.221C61.1267 102.428 61.1145 103.082 61.4354 103.706L61.4459 103.726C61.4584 103.75 61.4713 103.774 61.4847 103.797C61.6464 104.092 61.881 104.34 62.1659 104.518C62.2629 104.587 62.3762 104.629 62.4945 104.641C62.6129 104.653 62.7324 104.634 62.8413 104.586C62.7738 104.571 62.7083 104.548 62.6459 104.518C62.3609 104.34 62.1263 104.092 61.9646 103.797V103.797Z" fill="#1F56A3"/>
<path d="M63.1356 103.961C63.1178 103.626 63.0213 103.3 62.8539 103.01C62.6866 102.719 62.453 102.472 62.1723 102.289C62.1099 102.259 62.0444 102.236 61.9769 102.22L61.9692 102.221C61.6067 102.428 61.5945 103.082 61.9154 103.706L61.9259 103.726C61.9384 103.75 61.9512 103.774 61.9647 103.797C62.1264 104.092 62.361 104.34 62.6459 104.518C62.7083 104.548 62.7739 104.571 62.8413 104.586L62.8492 104.585C62.9479 104.516 63.0264 104.421 63.0768 104.312C63.1271 104.202 63.1474 104.081 63.1356 103.961Z" fill="#C3F1FF"/>
<path d="M60.2431 102.303C60.228 101.968 60.1329 101.641 59.9658 101.349C59.7987 101.058 59.5644 100.811 59.2825 100.628C59.2212 100.599 59.1569 100.576 59.0907 100.561L59.0819 100.562C58.7017 100.779 58.6997 101.492 59.0774 102.146C59.2377 102.44 59.4715 102.688 59.7561 102.865C59.8195 102.896 59.8861 102.919 59.9546 102.935L59.9618 102.934C60.0594 102.862 60.1367 102.766 60.186 102.656C60.2353 102.545 60.255 102.424 60.2431 102.303V102.303Z" fill="#50E6FF"/>
<path d="M108.144 100.575C108.094 99.9862 107.917 99.4156 107.623 98.9034C107.297 98.2893 106.816 97.7717 106.227 97.4029V97.4029L79.2149 81.8077C79.0193 81.6658 78.7894 81.5788 78.5489 81.5557C78.3083 81.5326 78.066 81.5742 77.847 81.6762L55.0273 94.9376C55.2464 94.8356 55.4887 94.794 55.7291 94.8171C55.9696 94.8402 56.1996 94.9272 56.3951 95.0691L83.4068 110.664C83.996 111.033 84.4776 111.551 84.8031 112.165C85.097 112.677 85.2748 113.248 85.3241 113.836C85.3291 113.946 85.3299 113.979 85.3299 114.011L85.3141 119.593C85.3386 119.834 85.2991 120.076 85.1995 120.296C85.0999 120.516 84.9438 120.706 84.7471 120.846L107.567 107.585C107.763 107.445 107.92 107.255 108.019 107.035C108.119 106.815 108.158 106.572 108.134 106.332L108.149 100.75C108.15 100.717 108.149 100.685 108.144 100.575Z" fill="url(#paint9_linear_930_289)"/>
<path d="M79.2285 84.9817L89.3285 90.8127L89.2955 102.412L90.7055 101.593L90.7385 89.9937L80.6375 84.1627L79.2285 84.9817Z" fill="#0078D4"/>
<path d="M80.6755 70.8977L79.2655 71.7177L89.3665 77.5487L89.3335 89.1547L90.7425 88.3357L90.7755 76.7297L80.6755 70.8977Z" fill="#0078D4"/>
<path d="M67.6904 78.3207L77.7844 84.1487L77.7524 95.7477L79.1614 94.9287L79.1944 83.3297L69.1004 77.5017L67.6904 78.3207Z" fill="#0078D4"/>
<path d="M69.1385 64.2367L67.7285 65.0567L77.8225 70.8837L77.7895 82.4907L79.1995 81.6717L79.2325 70.0647L69.1385 64.2367Z" fill="#0078D4"/>
<path d="M79.1954 96.5807L89.2954 102.412L89.3284 90.8127L79.2284 84.9817L79.1954 96.5807Z" fill="#C3F1FF"/>
<path d="M79.2654 71.7177L79.2324 83.3237L89.3334 89.1547L89.3664 77.5487L79.2654 71.7177Z" fill="#C3F1FF"/>
<path d="M67.6575 89.9197L77.7525 95.7477L77.7845 84.1487L67.6905 78.3207L67.6575 89.9197Z" fill="#C3F1FF"/>
<path d="M67.6954 76.6627L77.7894 82.4907L77.8224 70.8837L67.7284 65.0567L67.6954 76.6627Z" fill="#C3F1FF"/>
<g opacity="0.2">
<path opacity="0.2" d="M84.4412 103.325C84.51 103.349 84.5697 103.394 84.6118 103.453C84.6539 103.512 84.6764 103.583 84.6761 103.656C84.6758 103.729 84.6528 103.8 84.6102 103.859C84.5676 103.918 84.5076 103.962 84.4386 103.985L83.7281 104.398C83.552 104.489 83.357 104.536 83.159 104.537C82.961 104.537 82.7657 104.491 82.589 104.402L71.7862 98.1647C71.4669 97.9804 71.4653 97.6855 71.7824 97.5012L72.4929 97.0883C72.6701 96.9975 72.8665 96.9501 73.0656 96.9501C73.2648 96.9501 73.4612 96.9975 73.6384 97.0883L84.4412 103.325Z" fill="#003067"/>
</g>
<path d="M79.3512 98.3341L78.207 100.351C78.185 100.391 78.1527 100.424 78.1135 100.448L79.0825 99.8847C79.1217 99.8611 79.1539 99.8276 79.1759 99.7876L80.3202 97.771L79.3512 98.3341Z" fill="#003067"/>
<path d="M85.6828 102.529L82.2883 96.6495L81.3193 97.2126L84.714 103.092C84.902 103.418 84.9009 103.776 84.7116 103.884L85.6806 103.321C85.8699 103.213 85.8709 102.855 85.6828 102.529Z" fill="url(#paint10_linear_930_289)"/>
<path d="M83.7832 97.2166L84.7521 96.6535C84.9982 96.5104 84.9115 95.9331 84.5419 95.5968L76.6189 88.4009C76.5769 88.3622 76.5309 88.3281 76.4816 88.2991C76.4322 88.2634 76.374 88.2415 76.3133 88.2357C76.2525 88.23 76.1913 88.2406 76.136 88.2664L75.1671 88.8295C75.2224 88.8037 75.2836 88.7931 75.3443 88.7988C75.4051 88.8046 75.4632 88.8264 75.5127 88.8622C75.5619 88.8912 75.608 88.9253 75.6501 88.964L83.573 96.1599C83.9426 96.4961 84.0293 97.0735 83.7832 97.2166Z" fill="url(#paint11_linear_930_289)"/>
<path d="M75.5127 88.8622C75.5619 88.8911 75.608 88.9253 75.65 88.964L83.5731 96.1599C83.9983 96.5469 84.049 97.253 83.649 97.2494L81.3193 97.2126L84.7139 103.092C84.9019 103.418 84.9009 103.776 84.7116 103.884L83.4348 104.612C83.3786 104.636 83.3173 104.645 83.2565 104.638C83.1958 104.632 83.1378 104.61 83.0881 104.574C82.945 104.485 82.8271 104.361 82.7457 104.214L79.3512 98.3341L78.207 100.351C78.1152 100.51 77.9404 100.511 77.7669 100.411C77.6479 100.335 77.5453 100.236 77.4649 100.12C77.3846 100.004 77.3281 99.8734 77.2987 99.7354L75.0468 89.3077C74.952 88.8822 75.2023 88.683 75.5127 88.8622Z" fill="url(#paint12_linear_930_289)"/>
<path d="M53.0713 126.827L53.0667 128.457C53.0197 128.961 52.8402 129.442 52.5464 129.853C52.2526 130.265 51.8551 130.59 51.3943 130.798C50.1365 131.438 48.7453 131.771 47.3341 131.771C45.923 131.771 44.5318 131.438 43.274 130.798C42.8051 130.59 42.4003 130.26 42.1016 129.842C41.8029 129.425 41.6212 128.936 41.5751 128.425L41.5797 126.794C41.6258 127.305 41.8076 127.795 42.1063 128.212C42.4049 128.629 42.8097 128.959 43.2786 129.168C44.5364 129.807 45.9276 130.141 47.3388 130.141C48.7499 130.141 50.1411 129.807 51.3989 129.168C51.8597 128.96 52.2573 128.634 52.5511 128.223C52.8448 127.812 53.0244 127.33 53.0713 126.827V126.827Z" fill="#E8E8E8"/>
<path d="M51.3788 124.46C53.6262 125.758 53.6381 127.866 51.3989 129.168C50.1411 129.807 48.75 130.141 47.3388 130.141C45.9276 130.141 44.5365 129.807 43.2786 129.168C41.0249 127.866 41.013 125.758 43.2458 124.46C44.5054 123.819 45.8988 123.484 47.3123 123.484C48.7258 123.484 50.1193 123.819 51.3788 124.46V124.46Z" fill="white"/>
<path d="M50.5329 126.762C50.5724 126.78 50.6069 126.808 50.6335 126.843C50.6601 126.877 50.6779 126.918 50.6854 126.961C50.6998 127.131 50.477 127.272 50.19 127.28L45.1955 127.417C45.0615 127.424 44.9279 127.396 44.808 127.336C44.7634 127.316 44.7247 127.286 44.6958 127.247C44.6668 127.208 44.6487 127.162 44.6432 127.113L44.6366 125.938C44.6357 125.772 44.8718 125.635 45.1588 125.635C45.2889 125.632 45.4176 125.662 45.5326 125.724C45.5749 125.742 45.6112 125.772 45.638 125.81C45.6647 125.848 45.6807 125.892 45.6844 125.938L45.6892 126.796L50.1366 126.675C50.2741 126.667 50.4111 126.697 50.5329 126.762V126.762Z" fill="#0078D4"/>
<path d="M63.9606 132.989L63.956 134.619C63.909 135.122 63.7295 135.604 63.4357 136.015C63.1419 136.426 62.7444 136.752 62.2836 136.96C61.0258 137.599 59.6346 137.933 58.2234 137.933C56.8123 137.933 55.4211 137.599 54.1633 136.96C53.6943 136.751 53.2896 136.421 52.9909 136.004C52.6922 135.587 52.5104 135.098 52.4644 134.586L52.469 132.956C52.5151 133.467 52.6968 133.957 52.9955 134.374C53.2942 134.791 53.699 135.121 54.1679 135.329C55.4257 135.969 56.8169 136.303 58.2281 136.303C59.6392 136.303 61.0304 135.969 62.2882 135.329C62.749 135.122 63.1465 134.796 63.4403 134.385C63.7341 133.974 63.9136 133.492 63.9606 132.989V132.989Z" fill="#E8E8E8"/>
<path d="M62.2681 130.622C64.5155 131.92 64.5274 134.028 62.2882 135.329C61.0304 135.969 59.6392 136.303 58.2281 136.303C56.8169 136.303 55.4257 135.969 54.1679 135.329C51.9141 134.028 51.9023 131.92 54.1351 130.622C55.3946 129.981 56.7881 129.646 58.2016 129.646C59.6151 129.646 61.0086 129.981 62.2681 130.622V130.622Z" fill="white"/>
<path d="M61.422 132.924C61.4616 132.942 61.4961 132.97 61.5227 133.004C61.5492 133.039 61.567 133.08 61.5746 133.123C61.5889 133.293 61.3661 133.434 61.0792 133.441L56.0847 133.579C55.9506 133.586 55.8171 133.558 55.6971 133.498C55.6525 133.478 55.6138 133.448 55.5849 133.408C55.556 133.369 55.5379 133.324 55.5324 133.275L55.5258 132.1C55.5248 131.934 55.761 131.797 56.0479 131.797C56.1781 131.794 56.3068 131.824 56.4218 131.885C56.464 131.904 56.5004 131.934 56.5271 131.972C56.5538 132.01 56.5699 132.054 56.5736 132.1L56.5784 132.958L61.0257 132.836C61.1633 132.829 61.3003 132.859 61.422 132.924V132.924Z" fill="#E8E8E8"/>
<path d="M75.0559 139.435L75.0513 141.065C75.0044 141.569 74.8248 142.05 74.531 142.461C74.2373 142.873 73.8397 143.198 73.3789 143.406C72.1211 144.046 70.7299 144.379 69.3188 144.379C67.9076 144.379 66.5164 144.046 65.2586 143.406C64.7897 143.198 64.3849 142.868 64.0862 142.45C63.7876 142.033 63.6058 141.544 63.5597 141.033L63.5643 139.402C63.6104 139.913 63.7922 140.403 64.0909 140.82C64.3896 141.237 64.7943 141.567 65.2632 141.776C66.5211 142.415 67.9122 142.749 69.3234 142.749C70.7345 142.749 72.1257 142.415 73.3835 141.776C73.8443 141.568 74.2419 141.242 74.5357 140.831C74.8295 140.42 75.009 139.938 75.0559 139.435Z" fill="#E8E8E8"/>
<path d="M73.3633 137.068C75.6107 138.366 75.6226 140.474 73.3834 141.776C72.1256 142.415 70.7344 142.749 69.3233 142.749C67.9121 142.749 66.521 142.415 65.2631 141.776C63.0094 140.474 62.9975 138.366 65.2303 137.068C66.4899 136.427 67.8833 136.092 69.2968 136.092C70.7103 136.092 72.1038 136.427 73.3633 137.068V137.068Z" fill="white"/>
<path d="M72.5174 139.37C72.5569 139.388 72.5914 139.416 72.618 139.451C72.6446 139.485 72.6624 139.526 72.6699 139.569C72.6842 139.739 72.4615 139.88 72.1745 139.888L67.18 140.025C67.046 140.032 66.9124 140.004 66.7925 139.944C66.7479 139.924 66.7092 139.894 66.6803 139.855C66.6513 139.816 66.6332 139.77 66.6277 139.721L66.6211 138.546C66.6202 138.38 66.8563 138.243 67.1433 138.243C67.2734 138.24 67.4021 138.27 67.5171 138.331C67.5594 138.35 67.5958 138.38 67.6225 138.418C67.6492 138.456 67.6652 138.5 67.6689 138.546L67.6737 139.404L72.1211 139.283C72.2586 139.275 72.3956 139.305 72.5174 139.37V139.37Z" fill="#E8E8E8"/>
</g>
<defs>
<linearGradient id="paint0_linear_930_289" x1="80.0339" y1="9.2691" x2="80.0339" y2="180.684" gradientUnits="userSpaceOnUse">
<stop stop-color="#00ABDE"/>
<stop offset="1" stop-color="#007ED8"/>
</linearGradient>
<linearGradient id="paint1_linear_930_289" x1="79.1889" y1="144.151" x2="63.9699" y2="117.791" gradientUnits="userSpaceOnUse">
<stop stop-color="#004DAE"/>
<stop offset="0.21" stop-color="#0061C4"/>
<stop offset="0.51" stop-color="#0078DD"/>
<stop offset="0.78" stop-color="#0086EC"/>
<stop offset="1" stop-color="#008BF1"/>
</linearGradient>
<linearGradient id="paint2_linear_930_289" x1="69.8838" y1="133.932" x2="69.8838" y2="114.903" gradientUnits="userSpaceOnUse">
<stop stop-color="#004DAE"/>
<stop offset="0.21" stop-color="#0061C4"/>
<stop offset="0.51" stop-color="#0078DD"/>
<stop offset="0.78" stop-color="#0086EC"/>
<stop offset="1" stop-color="#008BF1"/>
</linearGradient>
<linearGradient id="paint3_linear_930_289" x1="92.541" y1="136.442" x2="73.8549" y2="104.077" gradientUnits="userSpaceOnUse">
<stop stop-color="#003067"/>
<stop offset="0.2" stop-color="#003F7C"/>
<stop offset="0.47" stop-color="#004F90"/>
<stop offset="0.74" stop-color="#00589D"/>
<stop offset="1" stop-color="#005BA1"/>
</linearGradient>
<linearGradient id="paint4_linear_930_289" x1="79.1889" y1="134.103" x2="63.97" y2="107.743" gradientUnits="userSpaceOnUse">
<stop stop-color="#004DAE"/>
<stop offset="0.21" stop-color="#0061C4"/>
<stop offset="0.51" stop-color="#0078DD"/>
<stop offset="0.78" stop-color="#0086EC"/>
<stop offset="1" stop-color="#008BF1"/>
</linearGradient>
<linearGradient id="paint5_linear_930_289" x1="69.8838" y1="123.884" x2="69.8838" y2="104.855" gradientUnits="userSpaceOnUse">
<stop stop-color="#004DAE"/>
<stop offset="0.21" stop-color="#0061C4"/>
<stop offset="0.51" stop-color="#0078DD"/>
<stop offset="0.78" stop-color="#0086EC"/>
<stop offset="1" stop-color="#008BF1"/>
</linearGradient>
<linearGradient id="paint6_linear_930_289" x1="92.541" y1="126.394" x2="73.8549" y2="94.0289" gradientUnits="userSpaceOnUse">
<stop stop-color="#003067"/>
<stop offset="0.2" stop-color="#003F7C"/>
<stop offset="0.47" stop-color="#004F90"/>
<stop offset="0.74" stop-color="#00589D"/>
<stop offset="1" stop-color="#005BA1"/>
</linearGradient>
<linearGradient id="paint7_linear_930_289" x1="79.1889" y1="124.055" x2="63.9699" y2="97.695" gradientUnits="userSpaceOnUse">
<stop stop-color="#004DAE"/>
<stop offset="0.21" stop-color="#0061C4"/>
<stop offset="0.51" stop-color="#0078DD"/>
<stop offset="0.78" stop-color="#0086EC"/>
<stop offset="1" stop-color="#008BF1"/>
</linearGradient>
<linearGradient id="paint8_linear_930_289" x1="69.8838" y1="113.836" x2="69.8838" y2="94.8069" gradientUnits="userSpaceOnUse">
<stop stop-color="#004DAE"/>
<stop offset="0.21" stop-color="#0061C4"/>
<stop offset="0.51" stop-color="#0078DD"/>
<stop offset="0.78" stop-color="#0086EC"/>
<stop offset="1" stop-color="#008BF1"/>
</linearGradient>
<linearGradient id="paint9_linear_930_289" x1="92.541" y1="116.346" x2="73.8549" y2="83.981" gradientUnits="userSpaceOnUse">
<stop stop-color="#003067"/>
<stop offset="0.2" stop-color="#003F7C"/>
<stop offset="0.47" stop-color="#004F90"/>
<stop offset="0.74" stop-color="#00589D"/>
<stop offset="1" stop-color="#005BA1"/>
</linearGradient>
<linearGradient id="paint10_linear_930_289" x1="81.3194" y1="100.267" x2="85.8232" y2="100.267" gradientUnits="userSpaceOnUse">
<stop stop-color="#008BF1"/>
<stop offset="0.22" stop-color="#0086EC"/>
<stop offset="0.49" stop-color="#0078DD"/>
<stop offset="0.79" stop-color="#0061C4"/>
<stop offset="1" stop-color="#004DAE"/>
</linearGradient>
<linearGradient id="paint11_linear_930_289" x1="75.1671" y1="92.7249" x2="84.8912" y2="92.7249" gradientUnits="userSpaceOnUse">
<stop stop-color="#008BF1"/>
<stop offset="0.22" stop-color="#0086EC"/>
<stop offset="0.49" stop-color="#0078DD"/>
<stop offset="0.79" stop-color="#0061C4"/>
<stop offset="1" stop-color="#004DAE"/>
</linearGradient>
<linearGradient id="paint12_linear_930_289" x1="79.9404" y1="104.642" x2="79.9404" y2="88.7963" gradientUnits="userSpaceOnUse">
<stop stop-color="#004DAE"/>
<stop offset="0.21" stop-color="#0061C4"/>
<stop offset="0.51" stop-color="#0078DD"/>
<stop offset="0.78" stop-color="#0086EC"/>
<stop offset="1" stop-color="#008BF1"/>
</linearGradient>
<clipPath id="clip0_930_289">
<rect width="159.356" height="188" fill="white" transform="translate(0.355469 0.990723)"/>
</clipPath>
</defs>
</svg>
