<svg width="100" height="100" viewBox="0 0 100 100" fill="none" xmlns="http://www.w3.org/2000/svg">
<g clip-path="url(#clip0)">
<path d="M49.6401 96.4481C40.382 96.4481 31.3317 93.7028 23.6339 88.5592C15.936 83.4157 9.93624 76.105 6.3933 67.5516C2.85036 58.9981 1.92337 49.5862 3.72954 40.506C5.53571 31.4257 9.99394 23.085 16.5404 16.5385C23.0869 9.99198 31.4277 5.53376 40.5079 3.72759C49.5882 1.92141 59.0001 2.84841 67.5535 6.39135C76.1069 9.93428 83.4176 15.934 88.5612 23.6319C93.7047 31.3298 96.4501 40.38 96.4501 49.6381C96.4505 55.7854 95.24 61.8726 92.8878 67.5521C90.5355 73.2315 87.0875 78.392 82.7407 82.7388C78.3939 87.0856 73.2335 90.5335 67.554 92.8858C61.8746 95.2381 55.7874 96.4486 49.6401 96.4481V96.4481Z" fill="url(#paint0_linear)"/>
<path fill-rule="evenodd" clip-rule="evenodd" d="M95.54 49.64C95.54 58.7182 92.848 67.5925 87.8045 75.1407C82.7609 82.6889 75.5923 88.572 67.2052 92.0461C58.818 95.5201 49.5891 96.4291 40.6854 94.658C31.7816 92.887 23.603 88.5154 17.1838 82.0962C10.7646 75.677 6.39302 67.4984 4.62196 58.5946C2.85089 49.6909 3.75987 40.462 7.23393 32.0748C10.708 23.6877 16.5911 16.5191 24.1393 11.4755C31.6875 6.43199 40.5618 3.74 49.64 3.74C55.6677 3.73998 61.6363 4.9272 67.2052 7.23388C72.774 9.54057 77.834 12.9215 82.0963 17.1837C86.3585 21.446 89.7394 26.5059 92.0461 32.0748C94.3528 37.6437 95.54 43.6123 95.54 49.64V49.64ZM49.64 3.62732e-07C59.4579 3.62732e-07 69.0553 2.91134 77.2185 8.36585C85.3818 13.8204 91.7442 21.5731 95.5014 30.6436C99.2585 39.7141 100.242 49.6951 98.3262 59.3243C96.4108 68.9535 91.6831 77.7985 84.7408 84.7408C77.7985 91.6831 68.9535 96.4108 59.3243 98.3262C49.6951 100.242 39.7141 99.2585 30.6436 95.5014C21.5731 91.7442 13.8204 85.3818 8.36585 77.2185C2.91134 69.0553 3.62732e-07 59.4579 3.62732e-07 49.64C-0.000787738 43.121 1.28265 36.6656 3.77702 30.6427C6.27138 24.6197 9.9278 19.1471 14.5375 14.5375C19.1471 9.9278 24.6197 6.27138 30.6427 3.77702C36.6656 1.28265 43.121 -0.000787738 49.64 3.62732e-07V3.62732e-07Z" fill="#F2F1F0"/>
<path fill-rule="evenodd" clip-rule="evenodd" d="M92.7296 49.6386C92.7296 58.161 90.2024 66.492 85.4676 73.5781C80.7328 80.6643 74.0031 86.1872 66.1294 89.4486C58.2557 92.71 49.5918 93.5633 41.2331 91.9007C32.8745 90.238 25.1966 86.1341 19.1703 80.1079C13.1441 74.0816 9.04017 66.4037 7.37753 58.0451C5.7149 49.6864 6.56822 41.0225 9.8296 33.1488C13.091 25.2751 18.6139 18.5454 25.7 13.8106C32.7862 9.07581 41.1172 6.54862 49.6396 6.54862C55.2983 6.54828 60.9017 7.6626 66.1298 9.82795C71.3579 11.9933 76.1082 15.1673 80.1096 19.1686C84.1109 23.17 87.2849 27.9203 89.4502 33.1484C91.6156 38.3765 92.7299 43.9799 92.7296 49.6386V49.6386ZM49.6396 2.80862C58.9017 2.80862 67.9558 5.55515 75.6569 10.7009C83.3581 15.8466 89.3604 23.1605 92.9049 31.7176C96.4493 40.2746 97.3767 49.6906 95.5697 58.7747C93.7628 67.8588 89.3027 76.2031 82.7534 82.7524C76.2041 89.3017 67.8598 93.7619 58.7757 95.5688C49.6915 97.3757 40.2756 96.4484 31.7185 92.9039C23.1614 89.3594 15.8476 83.3571 10.7018 75.656C5.5561 67.9548 2.80957 58.9007 2.80957 49.6386C2.81076 37.2189 7.745 25.3082 16.5271 16.5261C25.3091 7.74403 37.2198 2.80979 49.6396 2.80859V2.80862Z" fill="#0078D4"/>
<path fill-rule="evenodd" clip-rule="evenodd" d="M26.3507 31.7227C25.2287 31.7259 24.1535 32.1731 23.3601 32.9665C22.5667 33.76 22.1195 34.8351 22.1162 35.9571V65.5986H77.1647V35.9571C77.1614 34.8351 76.7142 33.76 75.9208 32.9666C75.1273 32.1731 74.0522 31.726 72.9302 31.7227H26.3507ZM72.9302 33.8399C73.4915 33.8406 74.0296 34.0639 74.4265 34.4608C74.8234 34.8577 75.0467 35.3958 75.0474 35.9571V63.4814H24.2334V35.9571C24.234 35.3958 24.4572 34.8576 24.8542 34.4606C25.2511 34.0637 25.7893 33.8405 26.3507 33.8399H72.9302Z" fill="#1F56A3"/>
<path fill-rule="evenodd" clip-rule="evenodd" d="M24.2334 35.961C24.234 35.3996 24.4573 34.8614 24.8542 34.4645C25.2512 34.0675 25.7894 33.8443 26.3507 33.8438H72.9302C73.4915 33.8445 74.0296 34.0678 74.4265 34.4647C74.8234 34.8616 75.0467 35.3997 75.0474 35.961V63.4852H24.2334L24.2334 35.961Z" fill="#0078D4"/>
<path d="M72.5309 36.3594H26.7488V60.9691H72.5309V36.3594Z" fill="#1B93EB"/>
<path fill-rule="evenodd" clip-rule="evenodd" d="M15.7644 65.6016V66.6602C15.7677 67.7822 16.2149 68.8574 17.0083 69.6508C17.8017 70.4442 18.8768 70.8914 19.9989 70.8947H79.2818C80.4039 70.8914 81.479 70.4442 82.2724 69.6508C83.0658 68.8574 83.513 67.7822 83.5163 66.6602V65.6016H15.7644Z" fill="#0078D4"/>
<path fill-rule="evenodd" clip-rule="evenodd" d="M47.5227 68.7774H16.3557C16.7248 69.418 17.2554 69.9507 17.8945 70.3222C18.5337 70.6937 19.2591 70.8911 19.9984 70.8947H79.2814C80.4035 70.8914 81.4786 70.4442 82.272 69.6508C83.0654 68.8574 83.5126 67.7822 83.5159 66.6602V65.6016H49.64V66.6602C49.6401 66.9383 49.5854 67.2136 49.479 67.4705C49.3726 67.7274 49.2167 67.9609 49.02 68.1575C48.8234 68.3541 48.59 68.5101 48.3331 68.6164C48.0761 68.7228 47.8008 68.7775 47.5227 68.7774V68.7774Z" fill="#1F56A3"/>
<path fill-rule="evenodd" clip-rule="evenodd" d="M45.4058 67.7188H53.8748C54.4363 67.7186 54.9747 67.4955 55.3717 67.0985C55.7687 66.7014 55.9919 66.163 55.9921 65.6016H43.2886C43.2886 66.1631 43.5117 66.7016 43.9087 67.0987C44.3058 67.4957 44.8443 67.7188 45.4058 67.7188Z" fill="#003067"/>
<path opacity="0.2" d="M33.6956 31.7227V53.2662C33.6969 54.4784 34.1791 55.6405 35.0363 56.4976C35.8935 57.3547 37.0556 57.8368 38.2678 57.838H61.011C62.2232 57.8368 63.3853 57.3547 64.2425 56.4976C65.0997 55.6405 65.5819 54.4784 65.5833 53.2662V31.7227H33.6956Z" fill="#003067"/>
<path d="M61.0113 27.9531H38.2678C36.8475 27.9531 35.696 29.1046 35.696 30.5249V53.2683C35.696 54.6887 36.8475 55.8401 38.2678 55.8401H61.0113C62.4316 55.8401 63.583 54.6887 63.583 53.2683V30.5249C63.583 29.1046 62.4316 27.9531 61.0113 27.9531Z" fill="white"/>
<path fill-rule="evenodd" clip-rule="evenodd" d="M42.9684 49.0989C42.2529 49.0989 41.5534 48.8867 40.9585 48.4892C40.3635 48.0916 39.8998 47.5266 39.626 46.8655C39.3522 46.2045 39.2805 45.4771 39.4201 44.7753C39.5597 44.0735 39.9043 43.4289 40.4102 42.9229C40.9162 42.4169 41.5608 42.0724 42.2626 41.9328C42.9644 41.7932 43.6918 41.8649 44.3529 42.1387C45.014 42.4125 45.579 42.8762 45.9765 43.4712C46.374 44.0661 46.5862 44.7656 46.5862 45.4811C46.5861 46.4406 46.205 47.3608 45.5265 48.0392C44.8481 48.7177 43.9279 49.0988 42.9684 49.0989V49.0989Z" fill="#B3B3B3"/>
<path fill-rule="evenodd" clip-rule="evenodd" d="M44.6303 44.4762C44.5454 44.3914 44.4303 44.3438 44.3103 44.3438C44.1903 44.3438 44.0752 44.3914 43.9904 44.4762L42.4987 45.9668L41.9599 45.4331C41.9473 45.4144 41.9331 45.3969 41.9174 45.3807C41.833 45.2968 41.7189 45.2496 41.5998 45.2492C41.4808 45.2489 41.3665 45.2955 41.2816 45.379C41.1967 45.4625 41.1482 45.576 41.1465 45.695C41.1449 45.814 41.1902 45.9289 41.2727 46.0147L41.2672 46.0201L42.1801 46.9246C42.265 47.0094 42.3801 47.0571 42.5002 47.0571C42.6202 47.0571 42.7353 47.0094 42.8202 46.9246L44.629 45.1168L44.6303 45.1157C44.6724 45.0737 44.7057 45.0239 44.7284 44.969C44.7512 44.9142 44.7629 44.8553 44.7629 44.796C44.7629 44.7366 44.7511 44.6778 44.7284 44.6229C44.7057 44.568 44.6723 44.5182 44.6303 44.4762V44.4762Z" fill="white"/>
<path fill-rule="evenodd" clip-rule="evenodd" d="M42.9684 39.6028C42.2529 39.6028 41.5534 39.3906 40.9585 38.9931C40.3635 38.5956 39.8998 38.0305 39.626 37.3695C39.3522 36.7084 39.2805 35.981 39.4201 35.2792C39.5597 34.5774 39.9043 33.9328 40.4102 33.4268C40.9162 32.9209 41.5608 32.5763 42.2626 32.4367C42.9644 32.2971 43.6918 32.3688 44.3529 32.6426C45.0139 32.9164 45.579 33.3801 45.9765 33.9751C46.374 34.57 46.5862 35.2695 46.5862 35.985C46.5862 36.9445 46.205 37.8647 45.5265 38.5432C44.8481 39.2216 43.9279 39.6028 42.9684 39.6028V39.6028Z" fill="#72C472"/>
<path fill-rule="evenodd" clip-rule="evenodd" d="M44.6303 34.9801C44.5454 34.8953 44.4303 34.8477 44.3103 34.8477C44.1903 34.8477 44.0752 34.8953 43.9904 34.9801L42.4987 36.4707L41.9599 35.9371C41.9473 35.9184 41.9331 35.9008 41.9174 35.8846C41.833 35.8007 41.7189 35.7535 41.5998 35.7532C41.4808 35.7528 41.3665 35.7995 41.2816 35.8829C41.1967 35.9664 41.1482 36.0799 41.1465 36.1989C41.1449 36.318 41.1902 36.4328 41.2727 36.5186L41.2672 36.524L42.1801 37.4285C42.265 37.5133 42.3801 37.561 42.5002 37.561C42.6202 37.561 42.7353 37.5133 42.8202 37.4285L44.6289 35.6206L44.6303 35.6196C44.6723 35.5776 44.7056 35.5277 44.7284 35.4729C44.7511 35.418 44.7628 35.3592 44.7628 35.2998C44.7628 35.2405 44.7511 35.1817 44.7284 35.1268C44.7056 35.0719 44.6723 35.0221 44.6303 34.9801Z" fill="white"/>
<path d="M50.8843 33.1914H58.5718C58.9316 33.1914 59.2766 33.3343 59.5311 33.5888C59.7855 33.8432 59.9284 34.1883 59.9284 34.5481V34.5481C59.9284 34.9079 59.7855 35.253 59.5311 35.5074C59.2766 35.7618 58.9316 35.9047 58.5718 35.9047H50.8843C50.5244 35.9047 50.1794 35.7618 49.9249 35.5074C49.6705 35.253 49.5276 34.9079 49.5276 34.5481C49.5276 34.1883 49.6705 33.8432 49.9249 33.5888C50.1794 33.3343 50.5244 33.1914 50.8843 33.1914Z" fill="#B3B3B3"/>
<path d="M50.8843 44.0469H57.215C57.5749 44.0469 57.9199 44.1898 58.1744 44.4442C58.4288 44.6987 58.5717 45.0437 58.5717 45.4035C58.5717 45.7634 58.4288 46.1084 58.1744 46.3629C57.9199 46.6173 57.5749 46.7602 57.215 46.7602H50.8843C50.5244 46.7602 50.1794 46.6173 49.925 46.3629C49.6705 46.1084 49.5276 45.7634 49.5276 45.4035V45.4035C49.5276 45.0437 49.6705 44.6987 49.9249 44.4442C50.1794 44.1898 50.5244 44.0469 50.8843 44.0469Z" fill="#B3B3B3"/>
<path d="M50.8843 38.6211H58.5718C58.9316 38.6211 59.2766 38.764 59.5311 39.0185C59.7855 39.2729 59.9284 39.6179 59.9284 39.9778V39.9778C59.9284 40.1559 59.8933 40.3323 59.8251 40.4969C59.757 40.6615 59.657 40.8111 59.5311 40.9371C59.4051 41.063 59.2555 41.163 59.0909 41.2312C58.9263 41.2993 58.7499 41.3344 58.5718 41.3344H50.8843C50.7061 41.3344 50.5297 41.2993 50.3651 41.2312C50.2005 41.163 50.0509 41.063 49.9249 40.9371C49.799 40.8111 49.699 40.6615 49.6309 40.4969C49.5627 40.3323 49.5276 40.1559 49.5276 39.9778C49.5276 39.6179 49.6705 39.2729 49.925 39.0185C50.1794 38.764 50.5244 38.6211 50.8843 38.6211Z" fill="#B3B3B3"/>
<path d="M50.8843 49.4727H58.5718C58.9316 49.4727 59.2766 49.6156 59.5311 49.87C59.7855 50.1244 59.9284 50.4695 59.9284 50.8293V50.8293C59.9284 51.1891 59.7855 51.5342 59.5311 51.7886C59.2766 52.0431 58.9316 52.186 58.5718 52.186H50.8843C50.5244 52.186 50.1794 52.0431 49.9249 51.7886C49.6705 51.5342 49.5276 51.1891 49.5276 50.8293C49.5276 50.4695 49.6705 50.1244 49.9249 49.87C50.1794 49.6156 50.5244 49.4727 50.8843 49.4727Z" fill="#B3B3B3"/>
<path d="M49.5277 33.1935C53.5539 33.1935 56.8178 29.9296 56.8178 25.9034C56.8178 21.8772 53.5539 18.6133 49.5277 18.6133C45.5014 18.6133 42.2375 21.8772 42.2375 25.9034C42.2375 29.9296 45.5014 33.1935 49.5277 33.1935Z" fill="white"/>
<path d="M45.5088 29.5476C45.45 29.5477 45.392 29.5344 45.3391 29.5087C45.2862 29.483 45.2399 29.4455 45.2037 29.3992C44.4436 28.4351 44.0323 27.2421 44.0367 26.0145C44.0368 24.7663 44.4622 23.5553 45.2427 22.5812C46.0232 21.6071 47.1122 20.928 48.3304 20.6557C49.5485 20.3834 50.8231 20.5342 51.9441 21.0833C53.0651 21.6324 53.9655 22.5469 54.4971 23.6763C54.5409 23.7692 54.5461 23.8757 54.5113 23.9724C54.4766 24.069 54.4049 24.148 54.312 24.1918C54.2191 24.2356 54.1126 24.2407 54.0159 24.206C53.9192 24.1713 53.8403 24.0996 53.7965 24.0067C53.34 23.0365 52.5666 22.2509 51.6038 21.7791C50.6409 21.3074 49.5461 21.1778 48.4997 21.4116C47.4534 21.6454 46.5179 22.2287 45.8474 23.0654C45.177 23.9021 44.8116 24.9423 44.8114 26.0145C44.8076 27.0687 45.1608 28.0933 45.8134 28.9213C45.8583 28.9784 45.8861 29.047 45.8938 29.1193C45.9015 29.1915 45.8888 29.2644 45.857 29.3297C45.8252 29.395 45.7757 29.4501 45.7141 29.4886C45.6526 29.5272 45.5814 29.5476 45.5088 29.5476H45.5088Z" fill="#0078D4"/>
<path d="M52.712 24.064L54.3823 25.7604C54.4075 25.786 54.439 25.8046 54.4737 25.8141C54.5084 25.8237 54.5449 25.824 54.5797 25.815C54.6145 25.8059 54.6463 25.7879 54.6719 25.7627C54.6976 25.7375 54.7161 25.7059 54.7257 25.6713L55.36 23.3766C55.3695 23.3419 55.3698 23.3054 55.3608 23.2706C55.3518 23.2358 55.3337 23.2039 55.3085 23.1783C55.2833 23.1527 55.2517 23.1342 55.2171 23.1246C55.1824 23.115 55.1459 23.1147 55.1111 23.1238L52.8064 23.722C52.7716 23.731 52.7398 23.7491 52.7142 23.7743C52.6886 23.7995 52.67 23.8311 52.6605 23.8657C52.6509 23.9004 52.6506 23.9369 52.6597 23.9717C52.6687 24.0065 52.6867 24.0383 52.712 24.064V24.064Z" fill="#0078D4"/>
<path opacity="0.3" d="M53.5236 22.4492C53.5824 22.4491 53.6405 22.4624 53.6933 22.4882C53.7462 22.5139 53.7925 22.5513 53.8288 22.5976C54.5888 23.5617 55.0001 24.7547 54.9958 25.9824C54.9956 27.2306 54.5702 28.4415 53.7897 29.4156C53.0092 30.3897 51.9202 31.0688 50.702 31.3411C49.4839 31.6134 48.2093 31.4626 47.0883 30.9135C45.9674 30.3645 45.0669 29.4499 44.5353 28.3206C44.4915 28.2276 44.4864 28.1211 44.5211 28.0245C44.5558 27.9278 44.6275 27.8489 44.7204 27.8051C44.8133 27.7612 44.9198 27.7561 45.0165 27.7908C45.1132 27.8256 45.1921 27.8973 45.2359 27.9902C45.6925 28.9602 46.4659 29.7458 47.4287 30.2175C48.3915 30.6892 49.4863 30.8188 50.5326 30.585C51.5789 30.3512 52.5144 29.7679 53.1849 28.9312C53.8553 28.0946 54.2207 27.0545 54.2209 25.9824C54.2247 24.9281 53.8716 23.9036 53.219 23.0756C53.1741 23.0184 53.1463 22.9498 53.1386 22.8776C53.1309 22.8054 53.1436 22.7324 53.1754 22.6671C53.2072 22.6018 53.2567 22.5467 53.3182 22.5082C53.3798 22.4697 53.451 22.4492 53.5236 22.4492H53.5236Z" fill="#1F56A3"/>
<path d="M47.061 25.6783V24.1238L48.8555 23.874V25.6783H47.061ZM49.3025 23.8083L51.9942 23.4336V25.6783H49.3024L49.3025 23.8083ZM51.9942 26.1253V28.3701L49.3025 27.9954V26.1253H51.9942ZM48.8555 27.9297L47.061 27.6799V26.1253H48.8555V27.9297Z" fill="#0078D4"/>
</g>
<defs>
<linearGradient id="paint0_linear" x1="47.8697" y1="-15.155" x2="51.8525" y2="130.613" gradientUnits="userSpaceOnUse">
<stop stop-color="#00ABDE"/>
<stop offset="1" stop-color="#007ED8"/>
</linearGradient>
<clipPath id="clip0">
<rect width="99.2799" height="99.28" fill="white"/>
</clipPath>
</defs>
</svg>
