<svg width="160" height="189" viewBox="0 0 160 189" fill="none" xmlns="http://www.w3.org/2000/svg">
<g clip-path="url(#clip0_940_1432)">
<path d="M80.0334 188.988C83.1147 188.983 86.1351 188.129 88.7638 186.522L150.739 148.862C153.52 147.098 155.804 144.653 157.375 141.759C158.945 138.864 159.749 135.617 159.711 132.324V57.609C159.747 54.3166 158.942 51.0695 157.372 48.1753C155.802 45.2812 153.519 42.8359 150.739 41.0712L88.7638 3.41108C86.1303 1.82589 83.1147 0.988281 80.041 0.988281C76.9672 0.988281 73.9516 1.82589 71.3182 3.41108L9.34307 41.0863C6.55997 42.8487 4.27342 45.293 2.70046 48.1874C1.12749 51.0818 0.32029 54.3301 0.355473 57.6241V132.324C0.33694 135.107 0.911657 137.863 2.04135 140.406C3.17104 142.95 4.82977 145.224 6.90707 147.077V147.103L71.3182 186.537C73.9438 188.137 76.9586 188.985 80.0334 188.988V188.988ZM80.6812 7.94046C82.6331 7.94046 85.1103 9.15338 86.8201 10.1974L147.577 47.3917C151.329 49.6764 153.445 56.2725 153.445 61.0235L152.813 132.324C152.813 137.075 149.614 141.343 145.861 143.628L85.4659 180.009C82.0313 182.097 79.2409 182.097 75.8062 180.009L14.5982 143.537C10.8458 141.253 7.82738 137.06 7.82738 132.324V58.6763C7.85989 56.3111 8.46888 53.9896 9.60155 51.913C10.7342 49.8364 12.3563 48.0675 14.3273 46.7597L74.9035 10.1974C76.6132 9.15338 78.7294 7.94046 80.6812 7.94046Z" fill="#F2F1F0"/>
<path fill-rule="evenodd" clip-rule="evenodd" d="M87.9319 11.5211C85.561 10.0476 82.8252 9.26666 80.0337 9.26666C77.2422 9.26666 74.5064 10.0476 72.1355 11.5211L16.0008 45.8525C13.4748 47.4641 11.4025 49.6945 9.98047 52.332C8.55847 54.9694 7.83398 57.9265 7.87573 60.9226V129.026C7.83581 132.022 8.56109 134.978 9.98292 137.615C11.4048 140.252 13.4761 142.483 16.0008 144.096L72.1355 178.427C74.5063 179.901 77.2422 180.682 80.0337 180.682C82.8253 180.682 85.5612 179.901 87.9319 178.427L144.066 144.096C146.591 142.483 148.663 140.252 150.085 137.615C151.507 134.978 152.232 132.022 152.192 129.026V60.9226C152.23 57.9271 151.504 54.9713 150.082 52.3344C148.66 49.6975 146.59 47.4666 144.066 45.8525L87.9319 11.5211Z" fill="url(#paint0_linear_940_1432)"/>
<path fill-rule="evenodd" clip-rule="evenodd" d="M80.0338 10.7426C81.717 10.7426 83.5997 11.6083 85.6665 12.8664L144.132 48.4088C146.024 49.6222 147.573 51.2991 148.634 53.2801C149.694 55.2612 150.231 57.4805 150.192 59.7273V130.206C150.231 132.453 149.694 134.672 148.634 136.653C147.573 138.634 146.024 140.311 144.132 141.524L85.6675 177.066L85.6665 177.067C83.9963 178.206 82.0512 178.877 80.0338 179.01C78.0163 178.877 76.0713 178.206 74.4011 177.067L74.4001 177.066L15.9378 141.526L15.9356 141.525C14.1473 140.561 12.6222 139.174 11.4938 137.485C10.5169 135.882 9.87578 133.667 9.87578 130.206V59.7273C9.83704 57.4806 10.3734 55.2613 11.434 53.2803C12.4945 51.2993 14.044 49.6224 15.9352 48.4089L74.392 12.8718L74.3961 12.8694C76.4799 11.6164 78.3401 10.7426 80.0338 10.7426ZM87.7463 9.4496L146.21 44.9909C148.689 46.5609 150.723 48.7397 152.121 51.3194C153.518 53.8991 154.231 56.7938 154.192 59.7274V130.206C154.231 133.139 153.518 136.034 152.121 138.614C150.723 141.194 148.688 143.373 146.21 144.943L87.7453 180.484C85.4511 182.009 82.7857 182.882 80.0338 183.01C77.2819 182.882 74.6164 182.009 72.3222 180.484H72.3213L13.8575 144.942L13.855 144.941C11.5197 143.648 9.53644 141.803 8.07828 139.567C6.4837 136.714 5.72068 133.471 5.87578 130.206V59.7273C5.83672 56.7937 6.54983 53.899 7.94712 51.3192C9.34441 48.7395 11.3793 46.5607 13.8577 44.9907L72.3222 9.44895L72.3304 9.44407C74.421 8.18666 77.1289 6.74261 80.0338 6.74261C82.92 6.74261 85.6371 8.16569 87.7463 9.44955V9.4496Z" fill="#0078D4"/>
<path opacity="0.2" d="M139.965 133.014L80.4154 167.621L20.4764 133.015L80.0264 98.4083L139.965 133.014Z" fill="#003067"/>
<path d="M140.956 121.637L80.2334 156.925L19.1224 121.642L79.8444 86.3543L140.956 121.637Z" fill="#1B93EB"/>
<path d="M140.956 121.637L140.944 125.743L80.2224 161.031L80.2334 156.925L140.956 121.637Z" fill="#1F56A3"/>
<path d="M80.2335 156.925L80.2225 161.031L19.1105 125.748L19.1225 121.642L80.2335 156.925Z" fill="#0078D4"/>
<path opacity="0.2" d="M103.25 135.228C104.292 136.173 104.042 137.532 102.681 138.322L101.328 139.109C99.6619 139.92 97.7435 140.042 95.9881 139.448L92.1486 138.029C91.6858 137.912 91.2029 137.9 90.7347 137.992L87.6222 138.746C87.1882 138.813 86.7945 139.038 86.5173 139.379L85.5518 141.956C85.1322 143.05 83.2975 143.901 81.3697 143.901H79.4579C78.3931 143.906 77.3446 143.639 76.4112 143.127C75.9073 142.875 75.5005 142.463 75.2539 141.956L74.2434 139.379C74.1365 139.211 73.9857 139.076 73.8074 138.988C73.6491 138.894 73.4784 138.824 73.3002 138.779L70.1552 138.03C69.6489 137.903 69.1193 137.903 68.6129 138.03L64.7813 139.444C63.0246 140.036 61.1053 139.914 59.4377 139.104L58.0838 138.323C56.7138 137.532 56.4491 136.173 57.48 135.229L59.9094 133.005C60.0076 132.893 60.0666 132.753 60.0774 132.605C60.0881 132.457 60.0501 132.31 59.9691 132.186L58.6495 130.385C58.5516 130.22 58.4088 130.086 58.2378 129.999C58.0258 129.876 57.7945 129.789 57.5536 129.743L53.1083 129.171C52.3953 129.081 51.7066 128.854 51.0802 128.502C50.7252 128.347 50.4156 128.104 50.1806 127.796C49.9456 127.488 49.7929 127.125 49.7369 126.742L49.7307 125.635C49.7244 124.518 51.1884 123.452 53.0747 123.206L57.5135 122.633C57.9093 122.573 58.2733 122.382 58.5467 122.089L59.8378 120.274C59.9408 120.146 59.9965 119.987 59.9956 119.822C59.9947 119.658 59.9371 119.499 59.8326 119.372L57.3703 117.152C56.3287 116.208 56.5781 114.849 57.9392 114.058L59.2923 113.272C60.9584 112.461 62.8767 112.339 64.6321 112.932L68.4716 114.351C68.9344 114.468 69.4173 114.481 69.8856 114.389L72.998 113.635C73.4321 113.568 73.826 113.343 74.103 113.002L75.0685 110.424C75.4881 109.331 77.3227 108.479 79.2506 108.48H81.1623C82.2271 108.475 83.2756 108.742 84.2091 109.254C84.713 109.506 85.1197 109.918 85.3664 110.424L86.3689 112.997C86.4789 113.167 86.6322 113.303 86.8129 113.393C86.9722 113.489 87.1462 113.558 87.3281 113.598L90.457 114.347C90.9654 114.477 91.4981 114.478 92.0073 114.351L95.847 112.932C97.602 112.344 99.5178 112.467 101.183 113.276L102.536 114.058C103.906 114.849 104.171 116.208 103.14 117.152L100.711 119.376C100.613 119.487 100.554 119.628 100.543 119.776C100.532 119.924 100.57 120.071 100.651 120.195L101.971 121.996C102.069 122.161 102.211 122.295 102.382 122.382C102.591 122.505 102.82 122.59 103.059 122.633L107.512 123.21C108.225 123.299 108.914 123.526 109.54 123.878C109.895 124.034 110.205 124.276 110.441 124.583C110.677 124.89 110.832 125.252 110.891 125.634L110.89 126.746C110.896 127.863 109.432 128.928 107.546 129.175L103.099 129.743C102.706 129.808 102.346 130.001 102.074 130.292L100.783 132.106C100.679 132.234 100.623 132.393 100.625 132.558C100.628 132.722 100.688 132.88 100.796 133.004L103.25 135.228ZM73.5727 130.106C75.6673 131.169 77.9835 131.723 80.3327 131.723C82.6819 131.722 84.9977 131.166 87.0916 130.101C90.7986 127.947 90.7869 124.434 87.0476 122.275C84.9544 121.212 82.6399 120.658 80.2921 120.658C77.9444 120.658 75.6299 121.212 73.5367 122.275C69.8217 124.434 69.8334 127.947 73.5727 130.106" fill="#003067"/>
<path d="M70.7379 116.015L70.7593 108.457C70.7633 107.046 71.6892 105.638 73.5367 104.564C75.6299 103.501 77.9444 102.947 80.2922 102.947C82.6399 102.947 84.9544 103.501 87.0476 104.564C88.9283 105.65 89.866 107.078 89.862 108.504L89.8407 116.014L70.7379 116.015Z" fill="#1F56A3"/>
<path d="M103.25 117.517C104.292 118.462 104.042 119.821 102.681 120.612L101.328 121.398C99.6619 122.209 97.7436 122.331 95.9882 121.738L92.1486 120.318C91.6859 120.202 91.203 120.189 90.7347 120.281L87.6222 121.035C87.1883 121.102 86.7946 121.327 86.5174 121.668L85.5519 124.245C85.1323 125.339 83.2976 126.19 81.3698 126.19H79.458C78.3931 126.195 77.3447 125.928 76.4112 125.416C75.9073 125.164 75.5006 124.752 75.254 124.246L74.2434 121.668C74.1365 121.5 73.9858 121.365 73.8075 121.277C73.6492 121.184 73.4784 121.113 73.3002 121.068L70.1552 120.319C69.6489 120.192 69.1193 120.192 68.613 120.319L64.7815 121.733C63.0247 122.326 61.1054 122.204 59.4378 121.393L58.0839 120.612C56.7139 119.821 56.4492 118.462 57.4801 117.518L59.9095 115.294C60.0077 115.182 60.0667 115.042 60.0775 114.894C60.0883 114.746 60.0502 114.599 59.9692 114.475L58.6497 112.674C58.5517 112.509 58.4089 112.375 58.2379 112.288C58.026 112.165 57.7946 112.078 57.5537 112.032L53.1084 111.46C52.3955 111.37 51.7067 111.143 51.0804 110.791C50.7254 110.636 50.4157 110.393 50.1807 110.085C49.9457 109.777 49.793 109.414 49.737 109.031L49.7309 107.924C49.7245 106.807 51.1885 105.741 53.0748 105.495L57.5136 104.923C57.9094 104.862 58.2735 104.671 58.5468 104.378L59.8379 102.564C59.9409 102.435 59.9966 102.276 59.9957 102.111C59.9948 101.947 59.9372 101.788 59.8328 101.661L57.3704 99.4416C56.3288 98.497 56.5782 97.1384 57.9393 96.3474L59.2924 95.5611C60.9585 94.7504 62.8768 94.6284 64.6322 95.2214L68.4717 96.6404C68.9345 96.7574 69.4174 96.7701 69.8857 96.6777L72.9981 95.9239C73.4322 95.8574 73.8261 95.6319 74.1031 95.2911L75.0686 92.7134C75.4882 91.62 77.3228 90.7686 79.2507 90.7686H81.1624C82.2273 90.7642 83.2757 91.0306 84.2092 91.543C84.7131 91.7954 85.1198 92.2068 85.3665 92.7135L86.369 95.2865C86.479 95.4556 86.6324 95.5921 86.813 95.682C86.9723 95.7781 87.1464 95.8473 87.3282 95.8867L90.4571 96.6357C90.9655 96.7657 91.4983 96.7673 92.0074 96.6404L95.8471 95.2213C97.6021 94.6329 99.5179 94.7565 101.183 95.5656L102.537 96.3472C103.907 97.1382 104.171 98.4968 103.14 99.4414L100.711 101.665C100.613 101.777 100.554 101.917 100.543 102.065C100.532 102.213 100.57 102.36 100.651 102.484L101.971 104.285C102.069 104.45 102.212 104.584 102.383 104.671C102.591 104.794 102.82 104.879 103.059 104.922L107.512 105.499C108.225 105.588 108.914 105.815 109.54 106.167C109.895 106.323 110.205 106.565 110.441 106.872C110.677 107.179 110.832 107.541 110.891 107.923L110.89 109.035C110.896 110.152 109.432 111.217 107.546 111.464L103.099 112.032C102.706 112.097 102.346 112.29 102.074 112.581L100.783 114.395C100.679 114.523 100.623 114.683 100.625 114.847C100.628 115.011 100.688 115.169 100.796 115.293L103.25 117.517ZM73.5728 112.395C75.6674 113.459 77.9836 114.012 80.3328 114.012C82.682 114.011 84.9978 113.455 87.0916 112.39C90.7986 110.236 90.7869 106.723 87.0476 104.564C84.9545 103.501 82.6399 102.947 80.2922 102.947C77.9445 102.947 75.6299 103.501 73.5367 104.564C69.8217 106.723 69.8334 110.236 73.5727 112.395" fill="url(#paint1_linear_940_1432)"/>
<path d="M103.745 98.3401C103.734 98.4262 103.716 98.5112 103.69 98.5943C103.676 98.64 103.661 98.685 103.643 98.7303C103.606 98.818 103.562 98.9025 103.511 98.9832C103.488 99.0218 103.468 99.0608 103.441 99.0987C103.353 99.2222 103.253 99.3364 103.142 99.4392L103.14 99.4413L100.711 101.665C100.656 101.719 100.615 101.785 100.59 101.858C100.583 101.884 100.577 101.911 100.572 101.938C100.557 101.991 100.548 102.045 100.545 102.1C100.532 102.237 100.57 102.374 100.651 102.484L101.971 104.285C102.069 104.45 102.212 104.584 102.383 104.671C102.591 104.794 102.82 104.879 103.059 104.922L103.749 105.012L103.768 98.1421C103.768 98.1636 103.762 98.1849 103.761 98.2063C103.759 98.2512 103.751 98.2954 103.745 98.3401Z" fill="#1F56A3"/>
<path d="M110.825 109.45C110.561 110.087 110.063 110.599 109.434 110.882C109.188 111.008 108.931 111.114 108.668 111.199C108.303 111.324 107.927 111.412 107.546 111.464L103.811 111.941L103.729 111.951L103.099 112.032C102.706 112.097 102.346 112.29 102.074 112.581L100.783 114.395C100.679 114.523 100.623 114.682 100.625 114.847C100.628 115.011 100.688 115.169 100.796 115.293L103.25 117.517C104.292 118.462 104.042 119.821 102.681 120.612L101.328 121.398C100.029 122.04 98.5597 122.256 97.1304 122.016C97.0783 122.008 97.0293 121.998 96.9778 121.989C96.6412 121.934 96.3101 121.85 95.9883 121.738L92.1487 120.318C92.0689 120.295 91.9874 120.277 91.9049 120.266C91.7525 120.241 91.5986 120.226 91.4442 120.221C91.2061 120.208 90.9674 120.228 90.7348 120.281L87.6224 121.035C87.5839 121.043 87.5479 121.059 87.5097 121.069C87.1188 121.146 86.7675 121.358 86.5174 121.668L85.5519 124.245C85.3423 124.707 84.9925 125.09 84.5525 125.341C84.2011 125.561 83.8239 125.736 83.4296 125.863C82.7645 126.08 82.0693 126.191 81.3698 126.19H79.458C78.9597 126.188 78.4632 126.128 77.9787 126.011C77.6709 125.942 77.3687 125.85 77.0746 125.736C76.8462 125.645 76.6245 125.538 76.4113 125.416C75.9074 125.164 75.5006 124.752 75.254 124.246L74.2434 121.668C74.1365 121.5 73.9858 121.365 73.8075 121.277C73.6492 121.184 73.4784 121.113 73.3003 121.068L71.7279 120.693L70.1553 120.319C70.0276 120.283 69.8969 120.258 69.7649 120.245C69.6203 120.23 69.4749 120.223 69.3295 120.224C69.1931 120.225 69.0568 120.234 68.9215 120.251C68.8165 120.262 68.7131 120.285 68.613 120.319L64.7814 121.733C64.4436 121.852 64.0955 121.939 63.7417 121.994C63.6879 122.003 63.6375 122.014 63.5831 122.022C63.2222 122.072 62.858 122.096 62.4936 122.094C62.4369 122.093 62.3827 122.092 62.326 122.091C61.9498 122.083 61.5746 122.048 61.2035 121.986C61.1852 121.983 61.1685 121.978 61.1505 121.975C60.5509 121.879 59.9718 121.683 59.4378 121.393L58.0839 120.612C56.7138 119.821 56.4492 118.462 57.4802 117.518L59.9096 115.294C59.9777 115.216 60.0271 115.123 60.054 115.023C60.0808 114.923 60.0844 114.818 60.0644 114.717C60.0607 114.694 60.0607 114.67 60.055 114.648C60.0399 114.586 60.011 114.527 59.9703 114.477L59.9692 114.475L59.9602 114.463V114.463L58.6496 112.674C58.5517 112.509 58.409 112.375 58.2379 112.288C58.026 112.165 57.7946 112.078 57.5537 112.032L53.1083 111.46C52.5034 111.377 51.9163 111.195 51.3706 110.92C51.2771 110.874 51.1676 110.841 51.0803 110.791C50.7058 110.584 50.374 110.308 50.1029 109.977C49.8783 109.711 49.7495 109.378 49.7371 109.031L49.6788 119.32C49.7347 119.703 49.8874 120.066 50.1224 120.374C50.3575 120.682 50.6671 120.925 51.0221 121.08C51.6484 121.432 52.3371 121.66 53.0501 121.749L56.8136 122.233L56.7939 129.106C56.8214 129.488 56.95 129.855 57.1665 130.17C57.383 130.486 57.6795 130.738 58.0256 130.901L59.3794 131.682C61.047 132.493 62.9663 132.615 64.7231 132.022L68.5548 130.608C69.0612 130.481 69.5907 130.481 70.0971 130.608L73.2419 131.357C73.42 131.402 73.5908 131.473 73.7491 131.566C73.9274 131.654 74.0782 131.789 74.1851 131.957L75.1956 134.535C75.4422 135.041 75.849 135.453 76.353 135.705C77.2865 136.217 78.3349 136.484 79.3998 136.479H81.3116C83.2391 136.479 85.0739 135.628 85.4936 134.535L86.459 131.957C86.7362 131.616 87.1299 131.391 87.5638 131.324L90.6765 130.57C91.1447 130.478 91.6276 130.491 92.0903 130.608L95.93 132.027C97.6854 132.62 99.6037 132.498 101.27 131.687L102.623 130.901C102.963 130.739 103.254 130.49 103.466 130.179C103.679 129.869 103.806 129.507 103.834 129.132L103.854 122.217L107.487 121.753C109.373 121.507 110.837 120.441 110.831 119.324L110.89 109.036C110.89 109.176 110.868 109.316 110.825 109.45Z" fill="#1F56A3"/>
<path d="M57.5136 104.922C57.9094 104.862 58.2734 104.671 58.5467 104.378L59.8379 102.564C59.9441 102.431 59.9991 102.264 59.9929 102.095C59.99 102.038 59.9807 101.983 59.9652 101.929C59.9613 101.902 59.956 101.876 59.9494 101.849C59.925 101.779 59.8851 101.714 59.8327 101.661L57.3705 99.4415C57.2566 99.3375 57.1538 99.222 57.0639 99.0967C57.0361 99.0584 57.0164 99.0186 56.9921 98.9795C56.9408 98.899 56.8961 98.8145 56.8583 98.7269C56.8389 98.6804 56.8241 98.6339 56.8093 98.5868C56.7837 98.5056 56.7648 98.4225 56.7526 98.3382C56.7459 98.2905 56.7391 98.2434 56.7368 98.1954C56.7354 98.1689 56.7278 98.1427 56.728 98.1161L56.7083 105.026L57.5136 104.922Z" fill="#1F56A3"/>
<path d="M109.234 70.9243L124.634 79.8153L124.584 97.5003L126.733 96.2513L126.783 78.5663L111.383 69.6753L109.234 70.9243Z" fill="#0078D4"/>
<path d="M111.44 49.4513L109.291 50.7003L124.691 59.5913L124.641 77.2873L126.79 76.0383L126.84 58.3423L111.44 49.4513Z" fill="#0078D4"/>
<path d="M91.6434 60.7683L107.033 69.6543L106.983 87.3383L109.132 86.0893L109.182 68.4053L93.7924 59.5193L91.6434 60.7683Z" fill="#0078D4"/>
<path d="M93.8494 39.2953L91.7004 40.5443L107.09 49.4303L107.04 67.1263L109.189 65.8773L109.239 48.1813L93.8494 39.2953Z" fill="#0078D4"/>
<path d="M109.183 88.6083L124.583 97.5003L124.633 79.8153L109.233 70.9243L109.183 88.6083Z" fill="#C3F1FF"/>
<path d="M109.29 50.7003L109.24 68.3963L124.64 77.2873L124.69 59.5913L109.29 50.7003Z" fill="#C3F1FF"/>
<path d="M91.5925 78.4533L106.984 87.3383L107.034 69.6543L91.6435 60.7683L91.5925 78.4533Z" fill="#C3F1FF"/>
<path d="M91.6505 58.2403L107.041 67.1263L107.091 49.4303L91.7005 40.5443L91.6505 58.2403Z" fill="#C3F1FF"/>
<path opacity="0.2" d="M91.4166 102.794C85.2179 99.2152 75.1982 99.2153 69.0398 102.794C62.8773 106.375 62.91 112.179 69.1087 115.758C75.3074 119.337 85.3271 119.337 91.4895 115.756C97.6479 112.177 97.6153 106.373 91.4166 102.794Z" fill="#003067"/>
<path d="M96.0871 78.7167L96.0055 107.505C95.9989 109.836 94.4674 112.163 91.408 113.941C85.2455 117.522 75.2258 117.522 69.0271 113.943C65.9084 112.142 64.3505 109.779 64.3572 107.418L64.4388 78.6296C64.4321 80.9903 65.99 83.3541 69.1088 85.1547C75.3075 88.7335 85.3272 88.7335 91.4897 85.1522C94.549 83.3743 96.0805 81.0473 96.0871 78.7167Z" fill="url(#paint2_linear_940_1432)"/>
<path d="M91.4166 72.1908C85.2179 68.612 75.1982 68.612 69.0398 72.1909C62.8773 75.7721 62.91 81.5759 69.1087 85.1547C75.3074 88.7335 85.3271 88.7335 91.4895 85.1523C97.6479 81.5734 97.6153 75.7696 91.4166 72.1908ZM89.3984 83.9024C84.3838 86.8166 76.2304 86.8166 71.1862 83.9044C66.1421 80.9921 66.1155 76.2694 71.1302 73.3552C76.1415 70.4429 84.2949 70.4429 89.3391 73.3551C94.3832 76.2673 94.4097 80.9901 89.3984 83.9024Z" fill="#E8E8E8"/>
<path d="M89.3392 73.3551C94.3833 76.2674 94.4099 80.9901 89.3985 83.9024C84.3839 86.8166 76.2305 86.8166 71.1864 83.9044C66.1422 80.9921 66.1157 76.2694 71.1304 73.3552C76.1416 70.443 84.2951 70.4429 89.3392 73.3551Z" fill="#50E6FF"/>
</g>
<defs>
<linearGradient id="paint0_linear_940_1432" x1="80.0339" y1="9.26666" x2="80.0339" y2="180.682" gradientUnits="userSpaceOnUse">
<stop stop-color="#00ABDE"/>
<stop offset="1" stop-color="#007ED8"/>
</linearGradient>
<linearGradient id="paint1_linear_940_1432" x1="80.311" y1="124.919" x2="80.311" y2="91.5401" gradientUnits="userSpaceOnUse">
<stop stop-color="white"/>
<stop offset="0.56" stop-color="#FBFBFB"/>
<stop offset="1" stop-color="#F2F2F2"/>
</linearGradient>
<linearGradient id="paint2_linear_940_1432" x1="64.3572" y1="97.6283" x2="96.0871" y2="97.6283" gradientUnits="userSpaceOnUse">
<stop stop-color="#005BA1"/>
<stop offset="0.07" stop-color="#0060A9"/>
<stop offset="0.36" stop-color="#0071C8"/>
<stop offset="0.52" stop-color="#0078D4"/>
<stop offset="0.64" stop-color="#0074CD"/>
<stop offset="0.82" stop-color="#006ABB"/>
<stop offset="1" stop-color="#005BA1"/>
</linearGradient>
<clipPath id="clip0_940_1432">
<rect width="159.356" height="188" fill="white" transform="translate(0.355469 0.988281)"/>
</clipPath>
</defs>
</svg>
