<svg width="100" height="100" viewBox="0 0 100 100" fill="none" xmlns="http://www.w3.org/2000/svg">
<g clip-path="url(#clip0)">
<path d="M49.6401 96.4481C40.382 96.4481 31.3317 93.7028 23.6339 88.5592C15.936 83.4157 9.93624 76.105 6.3933 67.5516C2.85036 58.9981 1.92337 49.5862 3.72954 40.506C5.53571 31.4257 9.99394 23.085 16.5404 16.5385C23.0869 9.99198 31.4277 5.53376 40.5079 3.72759C49.5882 1.92141 59.0001 2.84841 67.5535 6.39135C76.1069 9.93428 83.4176 15.934 88.5612 23.6319C93.7047 31.3298 96.4501 40.38 96.4501 49.6381C96.4505 55.7854 95.24 61.8726 92.8878 67.5521C90.5355 73.2315 87.0875 78.392 82.7407 82.7388C78.3939 87.0856 73.2335 90.5335 67.554 92.8858C61.8746 95.2381 55.7874 96.4486 49.6401 96.4481V96.4481Z" fill="url(#paint0_linear)"/>
<path fill-rule="evenodd" clip-rule="evenodd" d="M95.54 49.64C95.54 58.7182 92.848 67.5925 87.8045 75.1407C82.7609 82.6889 75.5923 88.572 67.2052 92.0461C58.818 95.5201 49.5891 96.4291 40.6854 94.658C31.7816 92.887 23.603 88.5154 17.1838 82.0962C10.7646 75.677 6.39302 67.4984 4.62196 58.5946C2.85089 49.6909 3.75987 40.462 7.23393 32.0748C10.708 23.6877 16.5911 16.5191 24.1393 11.4755C31.6875 6.43199 40.5618 3.74 49.64 3.74C55.6677 3.73998 61.6363 4.9272 67.2052 7.23388C72.774 9.54057 77.834 12.9215 82.0963 17.1837C86.3585 21.446 89.7394 26.5059 92.0461 32.0748C94.3528 37.6437 95.54 43.6123 95.54 49.64V49.64ZM49.64 3.62732e-07C59.4579 3.62732e-07 69.0553 2.91134 77.2185 8.36585C85.3818 13.8204 91.7442 21.5731 95.5014 30.6436C99.2585 39.7141 100.242 49.6951 98.3262 59.3243C96.4108 68.9535 91.6831 77.7985 84.7408 84.7408C77.7985 91.6831 68.9535 96.4108 59.3243 98.3262C49.6951 100.242 39.7141 99.2585 30.6436 95.5014C21.5731 91.7442 13.8204 85.3818 8.36585 77.2185C2.91134 69.0553 3.62732e-07 59.4579 3.62732e-07 49.64C-0.000787738 43.121 1.28265 36.6656 3.77702 30.6427C6.27138 24.6197 9.9278 19.1471 14.5375 14.5375C19.1471 9.9278 24.6197 6.27138 30.6427 3.77702C36.6656 1.28265 43.121 -0.000787738 49.64 3.62732e-07V3.62732e-07Z" fill="#F2F1F0"/>
<path fill-rule="evenodd" clip-rule="evenodd" d="M92.7296 49.6386C92.7296 58.161 90.2024 66.492 85.4676 73.5781C80.7328 80.6643 74.0031 86.1872 66.1294 89.4486C58.2557 92.71 49.5918 93.5633 41.2331 91.9007C32.8745 90.238 25.1966 86.1341 19.1703 80.1079C13.1441 74.0816 9.04017 66.4037 7.37753 58.0451C5.7149 49.6864 6.56822 41.0225 9.8296 33.1488C13.091 25.2751 18.6139 18.5454 25.7 13.8106C32.7862 9.07581 41.1172 6.54862 49.6396 6.54862C55.2983 6.54828 60.9017 7.6626 66.1298 9.82795C71.3579 11.9933 76.1082 15.1673 80.1096 19.1686C84.1109 23.17 87.2849 27.9203 89.4502 33.1484C91.6156 38.3765 92.7299 43.9799 92.7296 49.6386V49.6386ZM49.6396 2.80862C58.9017 2.80862 67.9558 5.55515 75.6569 10.7009C83.3581 15.8466 89.3604 23.1605 92.9049 31.7176C96.4493 40.2746 97.3767 49.6906 95.5697 58.7747C93.7628 67.8588 89.3027 76.2031 82.7534 82.7524C76.2041 89.3017 67.8598 93.7619 58.7757 95.5688C49.6915 97.3757 40.2756 96.4484 31.7185 92.9039C23.1614 89.3594 15.8476 83.3571 10.7018 75.656C5.5561 67.9548 2.80957 58.9007 2.80957 49.6386C2.81076 37.2189 7.745 25.3082 16.5271 16.5261C25.3091 7.74403 37.2198 2.80979 49.6396 2.80859V2.80862Z" fill="#0078D4"/>
<path fill-rule="evenodd" clip-rule="evenodd" d="M92.7296 49.6386C92.7296 58.161 90.2024 66.492 85.4676 73.5781C80.7328 80.6642 74.0031 86.1872 66.1294 89.4486C58.2557 92.7099 49.5918 93.5633 41.2331 91.9006C32.8745 90.238 25.1966 86.1341 19.1703 80.1078C13.1441 74.0816 9.04017 66.4037 7.37753 58.045C5.7149 49.6864 6.56822 41.0224 9.8296 33.1488C13.091 25.2751 18.6139 18.5454 25.7001 13.8106C32.7862 9.07578 41.1172 6.54859 49.6396 6.54859C55.2983 6.54825 60.9017 7.66257 66.1298 9.82792C71.3579 11.9933 76.1082 15.1673 80.1096 19.1686C84.1109 23.1699 87.2849 27.9203 89.4502 33.1484C91.6156 38.3764 92.7299 43.9798 92.7296 49.6386V49.6386ZM49.6396 2.80859C58.9017 2.80859 67.9558 5.55513 75.6569 10.7009C83.3581 15.8466 89.3604 23.1605 92.9048 31.7175C96.4493 40.2746 97.3767 49.6905 95.5697 58.7747C93.7628 67.8588 89.3027 76.2031 82.7534 82.7524C76.2041 89.3017 67.8598 93.7618 58.7757 95.5688C49.6915 97.3757 40.2756 96.4483 31.7185 92.9039C23.1614 89.3594 15.8476 83.3571 10.7018 75.656C5.5561 67.9548 2.80957 58.9007 2.80957 49.6386C2.81076 37.2189 7.74501 25.3082 16.5271 16.5261C25.3091 7.74403 37.2198 2.80979 49.6396 2.80859V2.80859Z" fill="#0078D4"/>
<path fill-rule="evenodd" clip-rule="evenodd" d="M26.3507 31.7227C25.2287 31.7259 24.1535 32.1731 23.3601 32.9665C22.5667 33.76 22.1195 34.8351 22.1162 35.9571V65.5986H77.1647V35.9571C77.1614 34.8351 76.7142 33.76 75.9208 32.9666C75.1273 32.1731 74.0522 31.726 72.9302 31.7227H26.3507ZM72.9302 33.8399C73.4915 33.8406 74.0296 34.0639 74.4265 34.4608C74.8234 34.8577 75.0467 35.3958 75.0474 35.9571V63.4814H24.2334V35.9571C24.234 35.3958 24.4572 34.8576 24.8542 34.4606C25.2511 34.0637 25.7893 33.8405 26.3507 33.8399H72.9302Z" fill="#1F56A3"/>
<path fill-rule="evenodd" clip-rule="evenodd" d="M24.2334 35.961C24.234 35.3996 24.4573 34.8614 24.8542 34.4645C25.2512 34.0675 25.7894 33.8443 26.3507 33.8438H72.9302C73.4915 33.8445 74.0296 34.0678 74.4265 34.4647C74.8234 34.8616 75.0467 35.3997 75.0474 35.961V63.4852H24.2334L24.2334 35.961Z" fill="#0078D4"/>
<path d="M72.5309 36.3594H26.7488V60.9691H72.5309V36.3594Z" fill="#1B93EB"/>
<path fill-rule="evenodd" clip-rule="evenodd" d="M15.7644 65.6016V66.6602C15.7677 67.7822 16.2149 68.8574 17.0083 69.6508C17.8017 70.4442 18.8768 70.8914 19.9989 70.8947H79.2818C80.4039 70.8914 81.479 70.4442 82.2724 69.6508C83.0658 68.8574 83.513 67.7822 83.5163 66.6602V65.6016H15.7644Z" fill="#0078D4"/>
<path fill-rule="evenodd" clip-rule="evenodd" d="M47.5227 68.7774H16.3557C16.7248 69.418 17.2554 69.9507 17.8945 70.3222C18.5337 70.6937 19.2591 70.8911 19.9984 70.8947H79.2814C80.4035 70.8914 81.4786 70.4442 82.272 69.6508C83.0654 68.8574 83.5126 67.7822 83.5159 66.6602V65.6016H49.64V66.6602C49.6401 66.9383 49.5854 67.2136 49.479 67.4705C49.3726 67.7274 49.2167 67.9609 49.02 68.1575C48.8234 68.3541 48.59 68.5101 48.3331 68.6164C48.0761 68.7228 47.8008 68.7775 47.5227 68.7774V68.7774Z" fill="#1F56A3"/>
<path fill-rule="evenodd" clip-rule="evenodd" d="M45.4058 67.7188H53.8748C54.4363 67.7186 54.9747 67.4955 55.3717 67.0985C55.7687 66.7014 55.9919 66.163 55.9921 65.6016H43.2886C43.2886 66.1631 43.5117 66.7016 43.9087 67.0987C44.3058 67.4957 44.8443 67.7188 45.4058 67.7188Z" fill="#003067"/>
<path opacity="0.2" d="M69.3887 46.6016H29.959C29.4067 46.6016 28.959 47.0493 28.959 47.6016V56.9154C28.959 57.4677 29.4067 57.9154 29.959 57.9154H69.3887C69.941 57.9154 70.3887 57.4677 70.3887 56.9154V47.6016C70.3887 47.0493 69.941 46.6016 69.3887 46.6016Z" fill="#003067"/>
<path d="M69.3887 45.6016H29.959C29.4067 45.6016 28.959 46.0493 28.959 46.6016V55.9154C28.959 56.4677 29.4067 56.9154 29.959 56.9154H69.3887C69.941 56.9154 70.3887 56.4677 70.3887 55.9154V46.6016C70.3887 46.0493 69.941 45.6016 69.3887 45.6016Z" fill="#003067"/>
<path d="M33.6797 54.1661L36.0779 51.5127C36.2788 51.2904 36.5566 51.1526 36.8552 51.1271C37.1538 51.1016 37.4509 51.1903 37.6867 51.3753L39.6215 52.8936C39.7446 52.9902 39.8856 53.0614 40.0364 53.1032C40.1872 53.1449 40.3447 53.1563 40.5 53.1368C40.6552 53.1173 40.8051 53.0671 40.9408 52.9893C41.0765 52.9115 41.1955 52.8076 41.2908 52.6835L43.8731 49.322C44.0493 49.0926 44.3034 48.9356 44.5875 48.8808C44.8715 48.826 45.1658 48.8771 45.4147 49.0245L49.6609 51.5386C49.8435 51.6467 50.0518 51.7038 50.264 51.7038C50.4761 51.7038 50.6844 51.6467 50.867 51.5386L53.1736 50.1728C53.3569 50.0642 53.5661 50.0072 53.7792 50.0076C53.9922 50.0081 54.2012 50.066 54.3841 50.1754L60.2066 53.6569C60.4453 53.7996 60.7266 53.8537 61.0012 53.8098C61.2758 53.7658 61.5262 53.6265 61.7084 53.4164L64.9286 49.4971" stroke="#0078D4" stroke-width="0.67927" stroke-miterlimit="10"/>
<path d="M64.9287 51.0298C65.774 51.0298 66.4593 50.3446 66.4593 49.4993C66.4593 48.654 65.774 47.9688 64.9287 47.9688C64.0834 47.9688 63.3982 48.654 63.3982 49.4993C63.3982 50.3446 64.0834 51.0298 64.9287 51.0298Z" fill="white" stroke="#0078D4" stroke-width="0.67927" stroke-miterlimit="10"/>
<path d="M33.6799 55.0248C34.1538 55.0248 34.5379 54.6406 34.5379 54.1667C34.5379 53.6928 34.1538 53.3086 33.6799 53.3086C33.206 53.3086 32.8218 53.6928 32.8218 54.1667C32.8218 54.6406 33.206 55.0248 33.6799 55.0248Z" fill="white" stroke="#0078D4" stroke-width="0.67927" stroke-miterlimit="10"/>
<g opacity="0.2">
<path opacity="0.2" d="M69.3888 28.5742H51.4517C50.8994 28.5742 50.4517 29.0219 50.4517 29.5742V44.0449C50.4517 44.5971 50.8994 45.0449 51.4517 45.0449H69.3888C69.9411 45.0449 70.3888 44.5971 70.3888 44.0449V29.5742C70.3888 29.0219 69.9411 28.5742 69.3888 28.5742Z" fill="#003067"/>
<path opacity="0.2" d="M47.8961 28.5742H29.959C29.4067 28.5742 28.959 29.0219 28.959 29.5742V44.0449C28.959 44.5971 29.4067 45.0449 29.959 45.0449H47.8961C48.4484 45.0449 48.8961 44.5971 48.8961 44.0449V29.5742C48.8961 29.0219 48.4484 28.5742 47.8961 28.5742Z" fill="#003067"/>
</g>
<path d="M69.3888 27.5742H51.4517C50.8994 27.5742 50.4517 28.0219 50.4517 28.5742V43.0448C50.4517 43.5971 50.8994 44.0448 51.4517 44.0448H69.3888C69.941 44.0448 70.3888 43.5971 70.3888 43.0448V28.5742C70.3888 28.0219 69.941 27.5742 69.3888 27.5742Z" fill="white"/>
<path d="M47.8961 27.5742H29.959C29.4067 27.5742 28.959 28.0219 28.959 28.5742V43.0448C28.959 43.5971 29.4067 44.0448 29.959 44.0448H47.8961C48.4484 44.0448 48.8961 43.5971 48.8961 43.0448V28.5742C48.8961 28.0219 48.4484 27.5742 47.8961 27.5742Z" fill="white"/>
<path d="M34.3974 39.6123C34.2488 39.6123 34.1062 39.5532 34.0011 39.4481C33.896 39.343 33.837 39.2004 33.8369 39.0518V32.5728C33.8378 32.4247 33.8972 32.283 34.0023 32.1786C34.1073 32.0742 34.2493 32.0156 34.3974 32.0156C34.5455 32.0156 34.6876 32.0742 34.7926 32.1786C34.8976 32.283 34.957 32.4247 34.9579 32.5728V39.0518C34.9579 39.2004 34.8988 39.343 34.7937 39.4481C34.6886 39.5532 34.5461 39.6123 34.3974 39.6123V39.6123Z" fill="#C3F1FF"/>
<path d="M34.3973 39.6117C34.2865 39.6116 34.1781 39.5788 34.086 39.5172C33.9938 39.4556 33.922 39.368 33.8796 39.2656C33.8372 39.1632 33.8261 39.0505 33.8477 38.9418C33.8693 38.8331 33.9227 38.7332 34.001 38.6549L36.3569 36.2993C36.4621 36.1949 36.6045 36.1364 36.7527 36.1367C36.901 36.137 37.0431 36.196 37.148 36.3009C37.2528 36.4057 37.3118 36.5478 37.3121 36.6961C37.3124 36.8443 37.2539 36.9867 37.1495 37.0919L34.7936 39.4475C34.7417 39.4996 34.6799 39.541 34.6119 39.5692C34.5439 39.5973 34.471 39.6118 34.3973 39.6117V39.6117Z" fill="#C3F1FF"/>
<path d="M34.3974 39.6108C34.3237 39.611 34.2508 39.5965 34.1828 39.5683C34.1148 39.5401 34.053 39.4988 34.0011 39.4466L31.6452 37.0911C31.5928 37.0391 31.5512 36.9773 31.5228 36.9092C31.4943 36.8412 31.4796 36.7681 31.4795 36.6944C31.4793 36.6206 31.4938 36.5475 31.5219 36.4793C31.5501 36.4111 31.5915 36.3491 31.6436 36.297C31.6958 36.2448 31.7578 36.2034 31.826 36.1753C31.8942 36.1471 31.9672 36.1327 32.041 36.1328C32.1148 36.133 32.1878 36.1477 32.2559 36.1761C32.324 36.2045 32.3858 36.2461 32.4378 36.2985L34.7937 38.654C34.872 38.7324 34.9254 38.8323 34.947 38.941C34.9686 39.0497 34.9575 39.1624 34.9151 39.2648C34.8727 39.3672 34.8009 39.4547 34.7087 39.5163C34.6166 39.5779 34.5082 39.6108 34.3974 39.6108V39.6108Z" fill="#C3F1FF"/>
<path d="M39.7461 38.9551V36.8464C39.7461 36.7594 39.7632 36.6732 39.7965 36.5928C39.8299 36.5124 39.8787 36.4393 39.9402 36.3777C40.0018 36.3162 40.0748 36.2674 40.1553 36.2341C40.2357 36.2007 40.3219 36.1836 40.4089 36.1836V36.1836C40.5847 36.1836 40.7533 36.2534 40.8776 36.3777C41.0019 36.502 41.0717 36.6706 41.0717 36.8464V38.9551C41.0717 39.1309 41.0019 39.2995 40.8776 39.4238C40.7533 39.5481 40.5847 39.618 40.4089 39.618V39.618C40.2331 39.618 40.0645 39.5481 39.9402 39.4238C39.8159 39.2995 39.7461 39.1309 39.7461 38.9551V38.9551Z" fill="#C3F1FF"/>
<path d="M45.0486 38.9544V34.737C45.0486 34.5613 45.1184 34.3927 45.2427 34.2684C45.367 34.1441 45.5356 34.0742 45.7114 34.0742V34.0742C45.8872 34.0742 46.0558 34.1441 46.1801 34.2684C46.3044 34.3927 46.3742 34.5613 46.3742 34.737V38.9544C46.3742 39.1302 46.3044 39.2988 46.1801 39.4231C46.0558 39.5474 45.8872 39.6173 45.7114 39.6173V39.6173C45.5356 39.6173 45.367 39.5474 45.2427 39.4231C45.1184 39.2988 45.0486 39.1302 45.0486 38.9544V38.9544Z" fill="#1F56A3"/>
<path d="M42.3972 38.9552V31.9128C42.3972 31.737 42.467 31.5684 42.5914 31.4441C42.7157 31.3198 42.8842 31.25 43.06 31.25V31.25C43.2358 31.25 43.4044 31.3198 43.5287 31.4441C43.653 31.5684 43.7229 31.737 43.7229 31.9128V38.9552C43.7229 39.131 43.653 39.2996 43.5287 39.4239C43.4044 39.5482 43.2358 39.618 43.06 39.618V39.618C42.8842 39.618 42.7157 39.5482 42.5914 39.4239C42.467 39.2996 42.3972 39.131 42.3972 38.9552V38.9552Z" fill="#50E6FF"/>
<path d="M60.4318 29.3633C59.3711 29.3633 58.3268 29.6249 57.3914 30.1249C56.456 30.6249 55.6584 31.3478 55.0691 32.2298C54.4798 33.1117 54.1172 34.1253 54.0132 35.1808C53.9093 36.2364 54.0673 37.3013 54.4732 38.2812C54.8791 39.2611 55.5204 40.1258 56.3403 40.7986C57.1602 41.4715 58.1334 41.9318 59.1737 42.1387C60.214 42.3456 61.2892 42.2927 62.3042 41.9848C63.3192 41.6769 64.2425 41.1234 64.9925 40.3734L61.6866 37.0675C61.4803 37.274 61.2261 37.4263 60.9468 37.511C60.6675 37.5958 60.3716 37.6103 60.0853 37.5533C59.799 37.4964 59.5312 37.3697 59.3055 37.1845C59.0799 36.9993 58.9034 36.7613 58.7918 36.4917C58.6801 36.222 58.6367 35.9289 58.6653 35.6384C58.694 35.3479 58.7938 35.069 58.956 34.8263C59.1182 34.5836 59.3378 34.3847 59.5953 34.2472C59.8527 34.1096 60.1401 34.0377 60.432 34.0378V34.0378V29.3633H60.4318Z" fill="#0078D4"/>
<path d="M62.2071 35.8129H66.8813C66.8813 34.1024 66.2018 32.462 64.9923 31.2524C63.7828 30.0429 62.1424 29.3633 60.4319 29.3633V34.0378C60.9025 34.0383 61.3537 34.2255 61.6865 34.5583C62.0193 34.8911 62.2066 35.3423 62.2071 35.8129Z" fill="#50E6FF"/>
<path d="M62.2071 35.8125V35.8126C62.2073 36.0457 62.1614 36.2765 62.072 36.4918C61.9827 36.7071 61.8517 36.9026 61.6865 37.0671L64.9924 40.373C65.5922 39.7747 66.0678 39.0639 66.392 38.2812C66.7161 37.4986 66.8824 36.6596 66.8813 35.8125H62.2071Z" fill="#C3F1FF"/>
<path d="M60.4203 39.0471C62.2077 39.0471 63.6567 37.5981 63.6567 35.8106C63.6567 34.0232 62.2077 32.5742 60.4203 32.5742C58.6328 32.5742 57.1838 34.0232 57.1838 35.8106C57.1838 37.5981 58.6328 39.0471 60.4203 39.0471Z" fill="white"/>
<path d="M58.4545 36.6473L60.0296 33.9584C60.0695 33.8902 60.1266 33.8336 60.1952 33.7943C60.2637 33.755 60.3414 33.7344 60.4204 33.7344C60.4994 33.7344 60.5771 33.755 60.6456 33.7943C60.7142 33.8336 60.7713 33.8902 60.8112 33.9584L62.3863 36.6473C62.4266 36.7161 62.4481 36.7943 62.4484 36.874C62.4488 36.9538 62.4281 37.0322 62.3885 37.1014C62.3488 37.1706 62.2916 37.2281 62.2226 37.2681C62.1536 37.3081 62.0752 37.3291 61.9955 37.3291H58.8453C58.7655 37.3291 58.6872 37.3081 58.6182 37.2681C58.5492 37.2281 58.492 37.1706 58.4523 37.1014C58.4126 37.0322 58.392 36.9538 58.3923 36.874C58.3927 36.7943 58.4141 36.7161 58.4545 36.6473V36.6473Z" fill="#FF9300"/>
<path d="M58.8451 37.1027C58.8052 37.1027 58.766 37.0921 58.7316 37.0721C58.6971 37.0522 58.6685 37.0234 58.6486 36.9888C58.6288 36.9542 58.6185 36.915 58.6187 36.8752C58.6188 36.8353 58.6295 36.7962 58.6497 36.7618L60.2248 34.0729C60.2448 34.0388 60.2733 34.0105 60.3076 33.9909C60.3419 33.9713 60.3807 33.9609 60.4202 33.9609C60.4598 33.9609 60.4986 33.9713 60.5329 33.9909C60.5671 34.0106 60.5957 34.0389 60.6157 34.073L62.1907 36.7618C62.2108 36.7962 62.2216 36.8353 62.2218 36.8752C62.2219 36.9151 62.2116 36.9543 62.1918 36.9889C62.1719 37.0235 62.1433 37.0522 62.1088 37.0722C62.0743 37.0922 62.0352 37.1027 61.9953 37.1027H58.8451Z" fill="#FFCA00"/>
<path d="M60.4202 34.9062V35.991" stroke="#FF9300" stroke-width="0.22647" stroke-miterlimit="10" stroke-linecap="round"/>
<path d="M60.4202 36.6792C60.5031 36.6792 60.5703 36.612 60.5703 36.5291C60.5703 36.4461 60.5031 36.3789 60.4202 36.3789C60.3372 36.3789 60.27 36.4461 60.27 36.5291C60.27 36.612 60.3372 36.6792 60.4202 36.6792Z" fill="#FF9300"/>
</g>
<defs>
<linearGradient id="paint0_linear" x1="47.8698" y1="-15.155" x2="51.8525" y2="130.613" gradientUnits="userSpaceOnUse">
<stop stop-color="#00ABDE"/>
<stop offset="1" stop-color="#007ED8"/>
</linearGradient>
<clipPath id="clip0">
<rect width="99.2799" height="99.28" fill="white"/>
</clipPath>
</defs>
</svg>
