<svg width="100" height="100" viewBox="0 0 100 100" fill="none" xmlns="http://www.w3.org/2000/svg">
<g clip-path="url(#clip0_926_490)">
<path d="M49.6401 96.45C40.382 96.45 31.3317 93.7047 23.6339 88.5611C15.936 83.4176 9.93624 76.1068 6.3933 67.5534C2.85036 59 1.92337 49.5881 3.72954 40.5078C5.53571 31.4276 9.99394 23.0868 16.5404 16.5403C23.0869 9.99384 31.4277 5.53562 40.5079 3.72945C49.5882 1.92327 59.0001 2.85027 67.5535 6.39321C76.1069 9.93614 83.4176 15.9359 88.5612 23.6338C93.7047 31.3316 96.4501 40.3819 96.4501 49.64C96.4505 55.7873 95.24 61.8745 92.8878 67.5539C90.5355 73.2334 87.0875 78.3938 82.7407 82.7406C78.3939 87.0874 73.2335 90.5354 67.554 92.8877C61.8746 95.2399 55.7874 96.4504 49.6401 96.45V96.45Z" fill="url(#paint0_linear_926_490)"/>
<path fill-rule="evenodd" clip-rule="evenodd" d="M95.54 49.64C95.54 58.7182 92.848 67.5925 87.8045 75.1407C82.7609 82.6889 75.5923 88.572 67.2052 92.0461C58.818 95.5201 49.5891 96.4291 40.6854 94.658C31.7816 92.887 23.603 88.5154 17.1838 82.0962C10.7646 75.677 6.39302 67.4984 4.62196 58.5946C2.85089 49.6909 3.75987 40.462 7.23393 32.0748C10.708 23.6877 16.5911 16.5191 24.1393 11.4755C31.6875 6.43199 40.5618 3.74 49.64 3.74C55.6677 3.73998 61.6363 4.9272 67.2052 7.23388C72.774 9.54057 77.834 12.9215 82.0963 17.1837C86.3585 21.446 89.7394 26.5059 92.0461 32.0748C94.3528 37.6437 95.54 43.6123 95.54 49.64V49.64ZM49.64 3.62732e-07C59.4579 3.62732e-07 69.0553 2.91134 77.2185 8.36585C85.3818 13.8204 91.7442 21.5731 95.5014 30.6436C99.2585 39.7141 100.242 49.6951 98.3262 59.3243C96.4108 68.9535 91.6831 77.7985 84.7408 84.7408C77.7985 91.6831 68.9535 96.4108 59.3243 98.3262C49.6951 100.242 39.7141 99.2585 30.6436 95.5014C21.5731 91.7442 13.8204 85.3818 8.36585 77.2185C2.91134 69.0553 3.62732e-07 59.4579 3.62732e-07 49.64C-0.000787738 43.121 1.28265 36.6656 3.77702 30.6427C6.27138 24.6197 9.9278 19.1471 14.5375 14.5375C19.1471 9.9278 24.6197 6.27138 30.6427 3.77702C36.6656 1.28265 43.121 -0.000787738 49.64 3.62732e-07V3.62732e-07Z" fill="#F2F1F0"/>
<path fill-rule="evenodd" clip-rule="evenodd" d="M92.7296 49.6401C92.7296 58.1625 90.2024 66.4935 85.4676 73.5796C80.7328 80.6657 74.0031 86.1887 66.1294 89.4501C58.2557 92.7114 49.5918 93.5648 41.2331 91.9021C32.8745 90.2395 25.1966 86.1356 19.1703 80.1093C13.1441 74.0831 9.04017 66.4052 7.37753 58.0465C5.7149 49.6879 6.56822 41.0239 9.8296 33.1503C13.091 25.2766 18.6139 18.5469 25.7 13.8121C32.7862 9.07727 41.1172 6.55009 49.6396 6.55009C55.2983 6.54974 60.9017 7.66407 66.1298 9.82942C71.3579 11.9948 76.1082 15.1687 80.1096 19.1701C84.1109 23.1714 87.2849 27.9218 89.4502 33.1499C91.6156 38.3779 92.7299 43.9813 92.7296 49.6401V49.6401ZM49.6396 2.81009C58.9017 2.81009 67.9558 5.55662 75.6569 10.7024C83.3581 15.8481 89.3604 23.162 92.9049 31.719C96.4493 40.2761 97.3767 49.692 95.5697 58.7762C93.7628 67.8603 89.3027 76.2046 82.7534 82.7539C76.2041 89.3032 67.8598 93.7633 58.7757 95.5703C49.6915 97.3772 40.2756 96.4498 31.7185 92.9054C23.1614 89.3609 15.8476 83.3586 10.7018 75.6574C5.5561 67.9563 2.80957 58.9022 2.80957 49.6401C2.81076 37.2204 7.745 25.3097 16.5271 16.5276C25.3091 7.7455 37.2198 2.81125 49.6396 2.81006V2.81009Z" fill="#0078D4"/>
<path fill-rule="evenodd" clip-rule="evenodd" d="M92.7637 49.6401C92.7637 58.1625 90.2366 66.4935 85.5018 73.5796C80.767 80.6657 74.0372 86.1887 66.1636 89.4501C58.2899 92.7114 49.6259 93.5648 41.2673 91.9021C32.9087 90.2395 25.2308 86.1356 19.2045 80.1093C13.1783 74.0831 9.07435 66.4052 7.41171 58.0465C5.74908 49.6879 6.6024 41.0239 9.86378 33.1503C13.1252 25.2766 18.6481 18.5469 25.7342 13.8121C32.8203 9.07727 41.1514 6.55009 49.6738 6.55009C55.3325 6.54974 60.9359 7.66407 66.164 9.82942C71.3921 11.9948 76.1424 15.1687 80.1437 19.1701C84.1451 23.1714 87.3191 27.9218 89.4844 33.1499C91.6498 38.3779 92.7641 43.9813 92.7637 49.6401V49.6401ZM49.6738 2.81009C58.9359 2.81009 67.9899 5.55662 75.6911 10.7024C83.3923 15.8481 89.3946 23.162 92.939 31.719C96.4835 40.2761 97.4109 49.692 95.6039 58.7762C93.797 67.8603 89.3369 76.2046 82.7876 82.7539C76.2383 89.3032 67.894 93.7633 58.8098 95.5703C49.7257 97.3772 40.3097 96.4498 31.7527 92.9054C23.1956 89.3609 15.8818 83.3586 10.736 75.6574C5.59028 67.9563 2.84375 58.9022 2.84375 49.6401C2.84494 37.2204 7.77918 25.3097 16.5612 16.5276C25.3433 7.7455 37.254 2.81125 49.6738 2.81006V2.81009Z" fill="#0078D4"/>
<path d="M27.5657 58.1985H71.782C72.0143 58.1978 72.2369 58.1052 72.4012 57.9409C72.5654 57.7767 72.658 57.5541 72.6587 57.3218V22.8006H26.689V57.3218C26.6896 57.5541 26.7822 57.7767 26.9465 57.9409C27.1108 58.1052 27.3334 58.1978 27.5657 58.1985V58.1985Z" fill="#F2F2F2"/>
<path d="M26.689 26.6216H72.6587V22.501C72.659 22.4127 72.6417 22.3252 72.608 22.2435C72.5743 22.1618 72.5248 22.0877 72.4624 22.0252C72.3999 21.9627 72.3257 21.9132 72.2441 21.8795C72.1624 21.8458 72.0749 21.8286 71.9866 21.8288H27.3611C27.2728 21.8286 27.1853 21.8458 27.1036 21.8795C27.022 21.9132 26.9478 21.9627 26.8853 22.0252C26.8229 22.0877 26.7734 22.1618 26.7397 22.2435C26.706 22.3252 26.6887 22.4127 26.689 22.501V26.6216Z" fill="url(#paint1_linear_926_490)"/>
<path d="M30.2252 25.4891C30.4557 25.4883 30.6808 25.4193 30.872 25.2906C31.0632 25.162 31.212 24.9795 31.2995 24.7663C31.387 24.5531 31.4094 24.3187 31.3637 24.0928C31.318 23.8669 31.2064 23.6596 31.0429 23.4971C30.8794 23.3347 30.6714 23.2244 30.4453 23.1801C30.2191 23.1358 29.9848 23.1597 29.7722 23.2485C29.5595 23.3374 29.378 23.4873 29.2505 23.6794C29.1231 23.8714 29.0555 24.0969 29.0562 24.3274C29.0549 24.4809 29.0844 24.6331 29.1428 24.7751C29.2012 24.9171 29.2873 25.046 29.3962 25.1542C29.5052 25.2624 29.6346 25.3478 29.7769 25.4053C29.9193 25.4628 30.0717 25.4913 30.2252 25.4891V25.4891Z" fill="#50E6FF"/>
<path d="M68.5839 29.5878H30.755C30.2566 29.5878 29.8525 29.9918 29.8525 30.4902V54.0063C29.8525 54.5048 30.2566 54.9088 30.755 54.9088H68.5839C69.0823 54.9088 69.4864 54.5048 69.4864 54.0063V30.4902C69.4864 29.9918 69.0823 29.5878 68.5839 29.5878Z" fill="#E8E8E8"/>
<path d="M49.1351 41.7436H42.071V34.6795H49.1351L49.1351 41.7436ZM57.2084 41.7436H50.1443V34.6795H57.2084V41.7436ZM49.1351 49.8168H42.071V42.7527H49.1351L49.1351 49.8168ZM57.2084 49.8168H50.1443V42.7527H57.2084V49.8168Z" fill="#B3B3B3"/>
<path opacity="0.2" d="M31.301 58.1978L31.2971 58.2053H67.9822C68.3703 57.5616 68.5748 56.824 68.5735 56.0724V50.7413C68.5723 50.4011 68.528 50.0625 68.4417 49.7335L68.3967 49.5738C68.1522 48.7183 67.6352 47.9659 66.9242 47.4309C66.2132 46.8958 65.3471 46.6075 64.4573 46.6095H34.8215C33.7281 46.6128 32.6806 47.0498 31.909 47.8245C31.1373 48.5992 30.7044 49.6483 30.7053 50.7418V56.0728C30.7078 56.7996 30.9018 57.5129 31.2678 58.1407L31.301 58.1978Z" fill="#767676"/>
<path d="M64.4571 67.8014L34.8219 67.802C34.2584 67.8041 33.7189 68.0299 33.3219 68.4298C32.9249 68.8298 32.703 69.371 32.7051 69.9344V75.2655C32.703 75.829 32.9249 76.3702 33.3219 76.7701C33.7189 77.17 34.2584 77.3959 34.8219 77.398H64.4571C65.0206 77.3957 65.5602 77.1698 65.9572 76.7698C66.3541 76.3698 66.576 75.8285 66.5739 75.265V69.9339C66.576 69.3704 66.3541 68.8292 65.9571 68.4293C65.5601 68.0294 65.0206 67.8035 64.4571 67.8014V67.8014Z" fill="url(#paint2_linear_926_490)"/>
<path fill-rule="evenodd" clip-rule="evenodd" d="M40.4243 73.3265C40.2258 73.1258 40.1145 72.8549 40.1145 72.5726C40.1145 72.2904 40.2258 72.0195 40.4243 71.8188C40.5222 71.7199 40.6388 71.6415 40.7672 71.5879C40.8956 71.5343 41.0334 71.5068 41.1726 71.5068C41.3117 71.5068 41.4495 71.5343 41.578 71.5879C41.7064 71.6415 41.823 71.7199 41.9209 71.8188C42.1195 72.0195 42.2309 72.2903 42.2309 72.5726C42.2309 72.8549 42.1195 73.1258 41.9209 73.3265C41.823 73.4254 41.7065 73.5039 41.578 73.5575C41.4496 73.6111 41.3118 73.6387 41.1726 73.6387C41.0334 73.6387 40.8956 73.6111 40.7672 73.5575C40.6387 73.5039 40.5222 73.4254 40.4243 73.3265V73.3265Z" fill="#0078D4"/>
<path fill-rule="evenodd" clip-rule="evenodd" d="M37.2527 73.3361C37.0544 73.1354 36.9431 72.8645 36.9431 72.5823C36.9431 72.3001 37.0544 72.0292 37.2527 71.8285C37.3507 71.7296 37.4673 71.6511 37.5958 71.5975C37.7242 71.544 37.8621 71.5164 38.0013 71.5164C38.1405 71.5164 38.2783 71.544 38.4068 71.5975C38.5352 71.6511 38.6518 71.7296 38.7498 71.8285C38.9482 72.0292 39.0594 72.3001 39.0594 72.5823C39.0594 72.8645 38.9482 73.1354 38.7498 73.3361C38.6519 73.435 38.5353 73.5136 38.4068 73.5672C38.2783 73.6208 38.1405 73.6484 38.0013 73.6484C37.862 73.6484 37.7242 73.6208 37.5957 73.5672C37.4672 73.5136 37.3507 73.435 37.2527 73.3361V73.3361Z" fill="#0078D4"/>
<path fill-rule="evenodd" clip-rule="evenodd" d="M49.6395 69.9343V75.2654C49.6401 75.4049 49.6131 75.5431 49.5602 75.6722C49.5073 75.8013 49.4295 75.9188 49.3312 76.0178C49.2329 76.1168 49.1161 76.1955 48.9874 76.2493C48.8586 76.3032 48.7206 76.3311 48.5811 76.3316H32.9988C33.1818 76.6542 33.4467 76.9227 33.7669 77.11C34.087 77.2972 34.451 77.3965 34.8219 77.3978H64.4571C65.0207 77.3956 65.5602 77.1696 65.9572 76.7696C66.3542 76.3697 66.576 75.8284 66.5739 75.2649V69.9337C66.572 69.5589 66.4709 69.1912 66.2808 68.8681H50.6979C50.5584 68.8686 50.4203 68.8965 50.2916 68.9504C50.1629 69.0042 50.0461 69.0829 49.9478 69.1819C49.8495 69.2809 49.7717 69.3983 49.7188 69.5274C49.6659 69.6565 49.639 69.7948 49.6395 69.9343V69.9343Z" fill="url(#paint3_linear_926_490)"/>
<path d="M64.4571 58.2054H34.8219C34.2584 58.2075 33.7189 58.4333 33.3219 58.8332C32.9249 59.2331 32.703 59.7743 32.7051 60.3378V65.6689C32.703 66.2324 32.9249 66.7736 33.3219 67.1735C33.7189 67.5734 34.2584 67.7992 34.8219 67.8013H64.4571C65.0206 67.7991 65.5602 67.5732 65.9572 67.1732C66.3541 66.7732 66.576 66.2319 66.5739 65.6683V60.3373C66.5749 60.0583 66.521 59.7818 66.4151 59.5237C66.3093 59.2656 66.1536 59.0309 65.9571 58.8329C65.7605 58.6349 65.5269 58.4776 65.2695 58.3699C65.0121 58.2623 64.7361 58.2063 64.4571 58.2054V58.2054Z" fill="url(#paint4_linear_926_490)"/>
<path fill-rule="evenodd" clip-rule="evenodd" d="M40.4243 63.7301C40.2258 63.5294 40.1145 63.2585 40.1145 62.9762C40.1145 62.694 40.2258 62.4231 40.4243 62.2224C40.5222 62.1236 40.6388 62.0451 40.7672 61.9915C40.8956 61.9379 41.0334 61.9104 41.1726 61.9104C41.3117 61.9104 41.4495 61.9379 41.578 61.9915C41.7064 62.0451 41.823 62.1236 41.9209 62.2224C42.1195 62.4231 42.2309 62.694 42.2309 62.9762C42.2309 63.2585 42.1195 63.5294 41.9209 63.7301C41.823 63.829 41.7065 63.9075 41.578 63.9611C41.4496 64.0147 41.3118 64.0423 41.1726 64.0423C41.0334 64.0423 40.8956 64.0147 40.7672 63.9611C40.6387 63.9075 40.5222 63.829 40.4243 63.7301V63.7301Z" fill="#0078D4"/>
<path fill-rule="evenodd" clip-rule="evenodd" d="M37.2527 63.7397C37.0544 63.539 36.9431 63.2681 36.9431 62.9859C36.9431 62.7037 37.0544 62.4328 37.2527 62.2321C37.3507 62.1332 37.4673 62.0547 37.5958 62.0011C37.7242 61.9476 37.8621 61.92 38.0013 61.92C38.1405 61.92 38.2783 61.9476 38.4068 62.0011C38.5353 62.0547 38.6518 62.1332 38.7498 62.2321C38.9482 62.4328 39.0594 62.7037 39.0594 62.9859C39.0594 63.2681 38.9482 63.539 38.7498 63.7397C38.6519 63.8387 38.5353 63.9172 38.4068 63.9708C38.2783 64.0244 38.1405 64.052 38.0013 64.052C37.862 64.052 37.7242 64.0244 37.5957 63.9708C37.4672 63.9172 37.3507 63.8387 37.2527 63.7397Z" fill="#0078D4"/>
<path fill-rule="evenodd" clip-rule="evenodd" d="M49.6395 60.3379V65.669C49.6401 65.8085 49.6131 65.9468 49.5602 66.0759C49.5073 66.205 49.4295 66.3224 49.3312 66.4214C49.2329 66.5204 49.1161 66.5991 48.9873 66.6529C48.8586 66.7068 48.7206 66.7347 48.5811 66.7352H32.9988C33.1818 67.0578 33.4468 67.3263 33.7669 67.5136C34.0871 67.7008 34.451 67.8001 34.8219 67.8014H64.4571C65.0207 67.7992 65.5603 67.5732 65.9572 67.1732C66.3542 66.7732 66.576 66.2319 66.5739 65.6684V60.3373C66.572 59.9625 66.4709 59.5948 66.2808 59.2717H50.6979C50.5584 59.2722 50.4203 59.3001 50.2916 59.354C50.1629 59.4078 50.0461 59.4865 49.9478 59.5855C49.8495 59.6845 49.7717 59.8019 49.7188 59.931C49.6659 60.0601 49.639 60.1984 49.6395 60.3379V60.3379Z" fill="url(#paint5_linear_926_490)"/>
<path d="M64.4571 48.6093H34.8219C34.2584 48.6114 33.7189 48.8373 33.3219 49.2372C32.9249 49.6371 32.7031 50.1783 32.7051 50.7417V56.0729C32.7031 56.6363 32.9249 57.1775 33.3219 57.5774C33.7189 57.9773 34.2584 58.2032 34.8219 58.2053H64.4571C65.0206 58.2031 65.5602 57.9771 65.9572 57.5771C66.3541 57.1771 66.576 56.6358 66.5739 56.0723V50.7412C66.5749 50.4622 66.5209 50.1858 66.4151 49.9277C66.3093 49.6695 66.1536 49.4348 65.9571 49.2368C65.7605 49.0389 65.5269 48.8816 65.2695 48.7739C65.0121 48.6662 64.7361 48.6103 64.4571 48.6093V48.6093Z" fill="url(#paint6_linear_926_490)"/>
<path fill-rule="evenodd" clip-rule="evenodd" d="M40.4243 54.134C40.2258 53.9333 40.1145 53.6624 40.1145 53.3802C40.1145 53.0979 40.2258 52.8271 40.4243 52.6264C40.5222 52.5275 40.6388 52.449 40.7672 52.3954C40.8956 52.3419 41.0334 52.3143 41.1726 52.3143C41.3117 52.3143 41.4495 52.3419 41.578 52.3954C41.7064 52.449 41.823 52.5275 41.9209 52.6264C42.1195 52.827 42.2309 53.0979 42.2309 53.3802C42.2309 53.6625 42.1195 53.9334 41.9209 54.134C41.823 54.2329 41.7065 54.3115 41.578 54.3651C41.4496 54.4187 41.3118 54.4463 41.1726 54.4463C41.0334 54.4463 40.8956 54.4187 40.7672 54.3651C40.6387 54.3115 40.5222 54.2329 40.4243 54.134V54.134Z" fill="#0078D4"/>
<path fill-rule="evenodd" clip-rule="evenodd" d="M37.2527 54.1437C37.0544 53.9429 36.9431 53.672 36.9431 53.3898C36.9431 53.1076 37.0544 52.8368 37.2527 52.636C37.3507 52.5371 37.4673 52.4586 37.5958 52.4051C37.7242 52.3515 37.8621 52.3239 38.0013 52.3239C38.1405 52.3239 38.2783 52.3515 38.4068 52.4051C38.5352 52.4586 38.6518 52.5371 38.7498 52.636C38.9482 52.8368 39.0594 53.1076 39.0594 53.3898C39.0594 53.672 38.9482 53.9429 38.7498 54.1437C38.6519 54.2426 38.5353 54.3211 38.4068 54.3747C38.2783 54.4283 38.1405 54.4559 38.0013 54.4559C37.862 54.4559 37.7242 54.4283 37.5957 54.3747C37.4672 54.3211 37.3507 54.2426 37.2527 54.1437V54.1437Z" fill="#0078D4"/>
<path fill-rule="evenodd" clip-rule="evenodd" d="M49.6395 50.7418V56.0729C49.6401 56.2124 49.6131 56.3507 49.5602 56.4798C49.5073 56.6089 49.4295 56.7263 49.3312 56.8253C49.2329 56.9243 49.1161 57.003 48.9874 57.0569C48.8586 57.1107 48.7206 57.1386 48.5811 57.1391H32.9988C33.1818 57.4617 33.4467 57.7303 33.7669 57.9175C34.087 58.1047 34.451 58.2041 34.8219 58.2054H64.4571C65.0207 58.2031 65.5603 57.9772 65.9572 57.5772C66.3542 57.1772 66.576 56.6359 66.5739 56.0724V50.7413C66.572 50.3664 66.4709 49.9987 66.2808 49.6756H50.6979C50.5584 49.6761 50.4203 49.7041 50.2916 49.7579C50.1629 49.8118 50.0461 49.8904 49.9478 49.9894C49.8495 50.0885 49.7717 50.2059 49.7188 50.335C49.6659 50.4641 49.639 50.6023 49.6395 50.7418V50.7418Z" fill="url(#paint7_linear_926_490)"/>
<path fill-rule="evenodd" clip-rule="evenodd" d="M62.3408 71.5337H55.9903C55.7088 71.5356 55.4395 71.6488 55.2411 71.8485C55.0427 72.0483 54.9314 72.3184 54.9314 72.5999C54.9314 72.8814 55.0427 73.1515 55.2411 73.3512C55.4395 73.551 55.7088 73.6642 55.9903 73.6661H62.3408C62.6223 73.6642 62.8916 73.551 63.09 73.3512C63.2884 73.1515 63.3997 72.8814 63.3997 72.5999C63.3997 72.3184 63.2884 72.0483 63.09 71.8485C62.8916 71.6488 62.6223 71.5356 62.3408 71.5337V71.5337Z" fill="#9CEBFF"/>
<path fill-rule="evenodd" clip-rule="evenodd" d="M62.3408 61.9373H55.9904C55.709 61.9394 55.4398 62.0526 55.2416 62.2524C55.0434 62.4521 54.9321 62.7221 54.9321 63.0035C54.9321 63.2849 55.0434 63.5549 55.2416 63.7546C55.4398 63.9543 55.709 64.0676 55.9904 64.0697H62.3408C62.6222 64.0676 62.8913 63.9543 63.0896 63.7546C63.2878 63.5549 63.399 63.2849 63.399 63.0035C63.399 62.7221 63.2878 62.4521 63.0896 62.2524C62.8913 62.0526 62.6222 61.9394 62.3408 61.9373V61.9373Z" fill="#9CEBFF"/>
<path fill-rule="evenodd" clip-rule="evenodd" d="M62.3408 52.3412H55.9904C55.709 52.3433 55.4398 52.4566 55.2416 52.6563C55.0434 52.856 54.9321 53.126 54.9321 53.4074C54.9321 53.6888 55.0434 53.9588 55.2416 54.1586C55.4398 54.3583 55.709 54.4715 55.9904 54.4737H62.3408C62.6222 54.4715 62.8913 54.3583 63.0896 54.1586C63.2878 53.9588 63.399 53.6888 63.399 53.4074C63.399 53.126 63.2878 52.856 63.0896 52.6563C62.8913 52.4566 62.6222 52.3433 62.3408 52.3412Z" fill="#9CEBFF"/>
<path fill-rule="evenodd" clip-rule="evenodd" d="M41.5272 72.9302C41.3638 73.0947 41.1505 73.2005 40.9206 73.2309C40.6907 73.2614 40.4572 73.2149 40.2566 73.0987C40.3346 73.2424 40.4454 73.3656 40.5799 73.4586C40.7144 73.5515 40.8689 73.6115 41.0309 73.6336C41.1929 73.6558 41.3578 73.6395 41.5123 73.5861C41.6669 73.5327 41.8067 73.4437 41.9204 73.3263C42.119 73.1257 42.2304 72.8548 42.2304 72.5725C42.2304 72.2902 42.119 72.0193 41.9204 71.8187C41.853 71.7527 41.777 71.696 41.6944 71.6502C41.8098 71.8527 41.8558 72.0873 41.8256 72.3183C41.7954 72.5493 41.6907 72.7642 41.5272 72.9302Z" fill="#003067"/>
<path fill-rule="evenodd" clip-rule="evenodd" d="M38.3561 72.94C38.1926 73.1045 37.9793 73.2103 37.7495 73.2407C37.5196 73.2712 37.2861 73.2247 37.0854 73.1085C37.1635 73.2522 37.2743 73.3755 37.4089 73.4684C37.5434 73.5614 37.698 73.6214 37.86 73.6435C38.022 73.6657 38.187 73.6494 38.3416 73.596C38.4962 73.5426 38.636 73.4536 38.7498 73.3361C38.8673 73.2212 38.9564 73.0805 39.0098 72.9251C39.0633 72.7697 39.0797 72.604 39.0577 72.4411C39.0357 72.2783 38.9759 72.1228 38.8831 71.9872C38.7903 71.8516 38.6671 71.7395 38.5233 71.66C38.6389 71.8624 38.6851 72.097 38.6549 72.3281C38.6247 72.5592 38.5198 72.7741 38.3561 72.94V72.94Z" fill="#003067"/>
<path fill-rule="evenodd" clip-rule="evenodd" d="M41.5272 63.3339C41.3637 63.4982 41.1504 63.6039 40.9206 63.6343C40.6907 63.6648 40.4573 63.6184 40.2566 63.5023C40.3346 63.646 40.4454 63.7693 40.5799 63.8622C40.7144 63.9551 40.8689 64.0151 41.0309 64.0372C41.1929 64.0594 41.3578 64.0431 41.5123 63.9897C41.6669 63.9364 41.8067 63.8474 41.9204 63.7299C42.119 63.5293 42.2304 63.2584 42.2304 62.9761C42.2304 62.6938 42.119 62.4229 41.9204 62.2223C41.8531 62.1561 41.7771 62.0994 41.6944 62.0538C41.8098 62.2563 41.8558 62.4909 41.8256 62.7219C41.7955 62.9529 41.6907 63.1678 41.5272 63.3339Z" fill="#003067"/>
<path fill-rule="evenodd" clip-rule="evenodd" d="M38.3561 63.3436C38.1926 63.5081 37.9793 63.6139 37.7495 63.6444C37.5196 63.6749 37.2861 63.6283 37.0854 63.5121C37.1635 63.6558 37.2743 63.7791 37.4089 63.8721C37.5434 63.965 37.698 64.025 37.86 64.0472C38.022 64.0693 38.187 64.053 38.3416 63.9996C38.4962 63.9462 38.636 63.8572 38.7498 63.7397C38.8673 63.6249 38.9564 63.4841 39.0098 63.3288C39.0633 63.1734 39.0797 63.0076 39.0577 62.8448C39.0357 62.6819 38.9759 62.5265 38.8831 62.3908C38.7903 62.2552 38.6671 62.1432 38.5233 62.0636C38.6389 62.266 38.6851 62.5007 38.6549 62.7317C38.6247 62.9628 38.5197 63.1777 38.3561 63.3436Z" fill="#003067"/>
<path fill-rule="evenodd" clip-rule="evenodd" d="M41.5272 53.7378C41.3637 53.9021 41.1504 54.0078 40.9206 54.0383C40.6907 54.0687 40.4573 54.0223 40.2566 53.9062C40.3346 54.0499 40.4454 54.1732 40.5799 54.2661C40.7144 54.359 40.8689 54.419 41.0309 54.4412C41.1929 54.4633 41.3578 54.4471 41.5123 54.3937C41.6669 54.3403 41.8067 54.2513 41.9204 54.1339C42.119 53.9332 42.2304 53.6623 42.2304 53.3801C42.2304 53.0978 42.119 52.8269 41.9204 52.6262C41.8531 52.5601 41.7771 52.5034 41.6944 52.4578C41.8098 52.6602 41.8558 52.8948 41.8256 53.1258C41.7954 53.3569 41.6907 53.5717 41.5272 53.7378V53.7378Z" fill="#003067"/>
<path fill-rule="evenodd" clip-rule="evenodd" d="M38.3561 53.7475C38.1926 53.912 37.9793 54.0178 37.7495 54.0483C37.5196 54.0787 37.2861 54.0322 37.0854 53.916C37.1635 54.0597 37.2743 54.183 37.4089 54.276C37.5434 54.3689 37.698 54.4289 37.86 54.4511C38.022 54.4732 38.187 54.457 38.3416 54.4036C38.4962 54.3501 38.636 54.2611 38.7498 54.1436C38.8673 54.0288 38.9564 53.8881 39.0098 53.7327C39.0633 53.5773 39.0797 53.4115 39.0577 53.2487C39.0357 53.0858 38.9759 52.9304 38.8831 52.7948C38.7903 52.6591 38.6671 52.5471 38.5233 52.4675C38.6388 52.6699 38.685 52.9046 38.6549 53.1357C38.6247 53.3668 38.5197 53.5816 38.3561 53.7475Z" fill="#003067"/>
<path fill-rule="evenodd" clip-rule="evenodd" d="M55.9903 72.0668H62.3407C62.5755 72.0679 62.8033 72.147 62.9881 72.2918C63.1729 72.4366 63.3043 72.6387 63.3616 72.8664C63.4047 72.7097 63.4109 72.545 63.3798 72.3854C63.3486 72.2259 63.281 72.0756 63.1821 71.9466C63.0832 71.8175 62.9558 71.713 62.8099 71.6414C62.6639 71.5698 62.5033 71.5329 62.3407 71.5336H55.9903C55.8277 71.5329 55.6672 71.5698 55.5213 71.6415C55.3753 71.7131 55.2479 71.8176 55.1491 71.9466C55.0502 72.0757 54.9826 72.2259 54.9514 72.3855C54.9203 72.545 54.9264 72.7097 54.9695 72.8664C55.0268 72.6387 55.1582 72.4366 55.343 72.2918C55.5278 72.147 55.7556 72.0679 55.9903 72.0668Z" fill="#50E6FF"/>
<path fill-rule="evenodd" clip-rule="evenodd" d="M55.9903 62.4704H62.3407C62.5755 62.4715 62.8033 62.5507 62.9881 62.6954C63.1729 62.8402 63.3043 63.0424 63.3616 63.2701C63.4047 63.1133 63.4109 62.9486 63.3798 62.7891C63.3486 62.6295 63.281 62.4793 63.1821 62.3502C63.0832 62.2211 62.9558 62.1166 62.8099 62.045C62.6639 61.9734 62.5033 61.9365 62.3407 61.9373H55.9903C55.8277 61.9365 55.6672 61.9735 55.5213 62.0451C55.3753 62.1167 55.2479 62.2212 55.1491 62.3503C55.0502 62.4793 54.9826 62.6295 54.9514 62.7891C54.9203 62.9487 54.9264 63.1133 54.9695 63.2701C55.0268 63.0424 55.1582 62.8402 55.343 62.6954C55.5278 62.5507 55.7556 62.4715 55.9903 62.4704V62.4704Z" fill="#50E6FF"/>
<path fill-rule="evenodd" clip-rule="evenodd" d="M55.9903 52.8743H62.3407C62.5755 52.8754 62.8033 52.9546 62.9881 53.0994C63.1729 53.2441 63.3043 53.4463 63.3616 53.674C63.4047 53.5172 63.4109 53.3526 63.3798 53.193C63.3486 53.0334 63.281 52.8832 63.1821 52.7541C63.0832 52.625 62.9558 52.5206 62.8099 52.449C62.6639 52.3773 62.5033 52.3404 62.3407 52.3412H55.9903C55.8277 52.3405 55.6672 52.3774 55.5213 52.449C55.3753 52.5207 55.2479 52.6251 55.1491 52.7542C55.0502 52.8833 54.9826 53.0335 54.9514 53.193C54.9203 53.3526 54.9264 53.5172 54.9695 53.674C55.0268 53.4463 55.1582 53.2441 55.343 53.0994C55.5278 52.9546 55.7556 52.8754 55.9903 52.8743V52.8743Z" fill="#50E6FF"/>
<path opacity="0.2" d="M59.103 77.3978V77.1646C59.0997 76.5417 58.907 75.9345 58.5504 75.4236C58.1939 74.9127 57.6905 74.5223 57.1069 74.3043C57.365 73.7376 57.4449 73.1059 57.3359 72.4928C57.2269 71.8797 56.9342 71.3142 56.4966 70.8712L56.1674 70.5421C55.7216 70.1087 55.1561 69.8188 54.5439 69.7099C53.9317 69.6009 53.3009 69.6778 52.7329 69.9308C52.5148 69.3472 52.1244 68.8437 51.6135 68.4872C51.1027 68.1306 50.4955 67.9377 49.8725 67.9342H49.4067C48.7837 67.9377 48.1764 68.1306 47.6656 68.4873C47.1547 68.844 46.7644 69.3476 46.5464 69.9313C45.9788 69.6782 45.3485 69.601 44.7366 69.7096C44.1248 69.8182 43.5595 70.1077 43.1137 70.5406L42.7817 70.8722C42.3443 71.3151 42.0517 71.8804 41.9427 72.4933C41.8337 73.1062 41.9134 73.7377 42.1714 74.3043C41.5881 74.5227 41.085 74.9131 40.7287 75.424C40.3724 75.9348 40.1797 76.5418 40.1763 77.1646V77.3978H59.103Z" fill="#003067"/>
<path d="M51.9719 77.3978C51.9719 77.8591 51.8351 78.31 51.5788 78.6936C51.3225 79.0771 50.9582 79.3761 50.5321 79.5526C50.1059 79.7291 49.6369 79.7753 49.1845 79.6853C48.7321 79.5953 48.3165 79.3732 47.9903 79.047C47.6641 78.7208 47.442 78.3052 47.352 77.8528C47.262 77.4004 47.3082 76.9314 47.4847 76.5052C47.6612 76.0791 47.9602 75.7148 48.3437 75.4585C48.7273 75.2022 49.1782 75.0654 49.6395 75.0654C50.2579 75.0662 50.8507 75.3121 51.2879 75.7494C51.7252 76.1866 51.9711 76.7794 51.9719 77.3978ZM56.2823 76.1416L55.1977 75.9004C55.0855 75.8596 54.9939 75.7761 54.9428 75.6681C54.9392 75.6562 54.935 75.6445 54.93 75.6331L54.6307 74.9059C54.6256 74.8933 54.6197 74.8807 54.6135 74.8686C54.5729 74.7571 54.5783 74.634 54.6284 74.5264L55.225 73.5888C55.3471 73.3858 55.3992 73.1484 55.3733 72.9129C55.3475 72.6775 55.2452 72.457 55.082 72.2853L54.752 71.9553C54.5787 71.7949 54.3585 71.6945 54.1238 71.6687C53.8892 71.643 53.6524 71.6933 53.4485 71.8123L52.5106 72.4086C52.4509 72.4386 52.3846 72.453 52.3178 72.4506C52.2667 72.4525 52.2159 72.4433 52.1688 72.4238C52.1566 72.4173 52.1441 72.4115 52.1312 72.4065L51.4042 72.1071C51.3928 72.1023 51.3811 72.0981 51.3692 72.0945C51.2612 72.0433 51.1778 71.9516 51.1369 71.8393L50.896 70.755C50.8387 70.5251 50.7076 70.3203 50.5228 70.1721C50.338 70.0238 50.1096 69.9403 49.8728 69.9342H49.4063C49.1695 69.9402 48.9412 70.0237 48.7564 70.1719C48.5716 70.3201 48.4405 70.5249 48.3833 70.7548L48.1422 71.8398C48.1011 71.9518 48.0177 72.0433 47.9099 72.0945C47.898 72.098 47.8863 72.1024 47.8746 72.1071L47.1476 72.4065C47.1348 72.4116 47.1223 72.4173 47.1101 72.4238C47.0629 72.4434 47.0121 72.4525 46.9611 72.4506C46.8942 72.4528 46.8279 72.4384 46.768 72.4086L45.8306 71.8125C45.6266 71.6936 45.3899 71.6433 45.1552 71.669C44.9206 71.6948 44.7004 71.7952 44.527 71.9555L44.197 72.2853C44.0338 72.457 43.9315 72.6775 43.9057 72.913C43.8798 73.1485 43.932 73.386 44.054 73.5891L44.6506 74.5264C44.7006 74.634 44.7059 74.7569 44.6656 74.8683C44.6593 74.8807 44.6532 74.8933 44.6481 74.9059L44.3488 75.6331C44.3442 75.6445 44.3397 75.6562 44.336 75.6681C44.2849 75.7762 44.1933 75.8597 44.0811 75.9007L42.9968 76.1413C42.7669 76.1986 42.5621 76.3297 42.4138 76.5145C42.2656 76.6993 42.182 76.9277 42.176 77.1646V77.631C42.182 77.8678 42.2655 78.0961 42.4137 78.2809C42.562 78.4657 42.7667 78.5967 42.9965 78.654L44.0813 78.8949C44.1935 78.936 44.285 79.0195 44.336 79.1275C44.3397 79.1394 44.3442 79.151 44.3488 79.1625L44.6481 79.8897C44.6533 79.9024 44.6591 79.9149 44.6656 79.927C44.706 80.0386 44.7005 80.1616 44.6504 80.2692L44.054 81.2065C43.9319 81.4096 43.8797 81.647 43.9056 81.8826C43.9314 82.1181 44.0338 82.3386 44.197 82.5103L44.527 82.8403C44.7004 83.0005 44.9207 83.1009 45.1554 83.1267C45.3901 83.1524 45.6268 83.1022 45.8308 82.9833L46.7677 82.3869C46.8277 82.3571 46.8941 82.3426 46.9611 82.3449C47.0121 82.3429 47.063 82.352 47.1101 82.3717C47.1225 82.3778 47.1348 82.3839 47.1476 82.389L47.8746 82.6885L47.9099 82.7011C48.0177 82.7523 48.1012 82.8439 48.1422 82.956L48.3833 84.0406C48.4405 84.2705 48.5715 84.4753 48.7563 84.6235C48.9411 84.7718 49.1695 84.8553 49.4063 84.8613H49.8728C50.1096 84.8553 50.3379 84.7717 50.5227 84.6235C50.7075 84.4752 50.8385 84.2704 50.8958 84.0406L51.137 82.956C51.1779 82.8438 51.2613 82.7522 51.3693 82.7011L51.4043 82.6885L52.1313 82.389C52.1441 82.3839 52.1567 82.3778 52.1688 82.3717C52.2159 82.3521 52.2667 82.343 52.3176 82.3449C52.3845 82.3426 52.4509 82.357 52.5107 82.3869L53.4483 82.9831C53.6523 83.1021 53.8891 83.1524 54.1238 83.1267C54.3585 83.101 54.5788 83.0006 54.7521 82.8403L55.0819 82.5106C55.2451 82.3388 55.3475 82.1182 55.3734 81.8827C55.3993 81.6472 55.3472 81.4096 55.2251 81.2066L54.6285 80.2692C54.6037 80.216 54.5896 80.1584 54.587 80.0997C54.5845 80.041 54.5935 79.9824 54.6136 79.9273C54.6199 79.9149 54.6257 79.9025 54.6308 79.8899L54.9301 79.1625C54.935 79.1511 54.9393 79.1394 54.9429 79.1275C54.9941 79.0194 55.0857 78.9359 55.1981 78.895L56.2821 78.654C56.5121 78.5969 56.7169 78.4658 56.8653 78.281C57.0136 78.0962 57.0971 77.8679 57.1031 77.631V77.1645C57.0972 76.9277 57.0136 76.6993 56.8653 76.5145C56.717 76.3298 56.5122 76.1987 56.2823 76.1416V76.1416Z" fill="url(#paint8_linear_926_490)"/>
<path opacity="0.2" d="M51.9718 77.3978C51.9718 77.8591 51.835 78.31 51.5788 78.6936C51.3225 79.0771 50.9582 79.3761 50.532 79.5526C50.1058 79.7291 49.6369 79.7753 49.1845 79.6853C48.732 79.5953 48.3164 79.3732 47.9903 79.047C47.6641 78.7208 47.4419 78.3052 47.3519 77.8528C47.262 77.4004 47.3081 76.9314 47.4847 76.5052C47.6612 76.0791 47.9601 75.7148 48.3437 75.4585C48.7272 75.2022 49.1782 75.0654 49.6395 75.0654C50.2578 75.0662 50.8506 75.3121 51.2879 75.7494C51.7251 76.1866 51.9711 76.7794 51.9718 77.3978Z" fill="url(#paint9_linear_926_490)"/>
</g>
<defs>
<linearGradient id="paint0_linear_926_490" x1="47.8697" y1="-15.1531" x2="51.8525" y2="130.615" gradientUnits="userSpaceOnUse">
<stop stop-color="#00ABDE"/>
<stop offset="1" stop-color="#007ED8"/>
</linearGradient>
<linearGradient id="paint1_linear_926_490" x1="26.689" y1="24.2252" x2="72.7411" y2="24.2252" gradientUnits="userSpaceOnUse">
<stop stop-color="#005BA1"/>
<stop offset="0.26" stop-color="#00589D"/>
<stop offset="0.53" stop-color="#004F90"/>
<stop offset="0.8" stop-color="#003F7C"/>
<stop offset="1" stop-color="#003067"/>
</linearGradient>
<linearGradient id="paint2_linear_926_490" x1="49.6395" y1="67.8014" x2="49.6395" y2="77.4151" gradientUnits="userSpaceOnUse">
<stop stop-color="#005BA1"/>
<stop offset="0.26" stop-color="#00589D"/>
<stop offset="0.53" stop-color="#004F90"/>
<stop offset="0.8" stop-color="#003F7C"/>
<stop offset="1" stop-color="#003067"/>
</linearGradient>
<linearGradient id="paint3_linear_926_490" x1="49.7864" y1="68.8681" x2="49.7864" y2="77.3978" gradientUnits="userSpaceOnUse">
<stop stop-color="#008BF1"/>
<stop offset="0.22" stop-color="#0086EC"/>
<stop offset="0.49" stop-color="#0078DD"/>
<stop offset="0.79" stop-color="#0061C4"/>
<stop offset="1" stop-color="#004DAE"/>
</linearGradient>
<linearGradient id="paint4_linear_926_490" x1="49.6395" y1="58.2054" x2="49.6395" y2="67.8185" gradientUnits="userSpaceOnUse">
<stop stop-color="#005BA1"/>
<stop offset="0.26" stop-color="#00589D"/>
<stop offset="0.53" stop-color="#004F90"/>
<stop offset="0.8" stop-color="#003F7C"/>
<stop offset="1" stop-color="#003067"/>
</linearGradient>
<linearGradient id="paint5_linear_926_490" x1="49.7864" y1="59.2717" x2="49.7864" y2="67.8014" gradientUnits="userSpaceOnUse">
<stop stop-color="#008BF1"/>
<stop offset="0.22" stop-color="#0086EC"/>
<stop offset="0.49" stop-color="#0078DD"/>
<stop offset="0.79" stop-color="#0061C4"/>
<stop offset="1" stop-color="#004DAE"/>
</linearGradient>
<linearGradient id="paint6_linear_926_490" x1="49.6395" y1="48.6093" x2="49.6395" y2="58.2225" gradientUnits="userSpaceOnUse">
<stop stop-color="#005BA1"/>
<stop offset="0.26" stop-color="#00589D"/>
<stop offset="0.53" stop-color="#004F90"/>
<stop offset="0.8" stop-color="#003F7C"/>
<stop offset="1" stop-color="#003067"/>
</linearGradient>
<linearGradient id="paint7_linear_926_490" x1="49.7864" y1="49.6756" x2="49.7864" y2="58.2054" gradientUnits="userSpaceOnUse">
<stop stop-color="#008BF1"/>
<stop offset="0.22" stop-color="#0086EC"/>
<stop offset="0.49" stop-color="#0078DD"/>
<stop offset="0.79" stop-color="#0061C4"/>
<stop offset="1" stop-color="#004DAE"/>
</linearGradient>
<linearGradient id="paint8_linear_926_490" x1="49.6395" y1="84.8613" x2="49.6395" y2="69.9343" gradientUnits="userSpaceOnUse">
<stop stop-color="#CCCCCC"/>
<stop offset="0.32" stop-color="#DFDFDF"/>
<stop offset="0.67" stop-color="#ECECEC"/>
<stop offset="1" stop-color="#F0F0F0"/>
</linearGradient>
<linearGradient id="paint9_linear_926_490" x1="49.6395" y1="79.7301" x2="49.6395" y2="75.0654" gradientUnits="userSpaceOnUse">
<stop stop-color="#CCCCCC"/>
<stop offset="1" stop-color="white"/>
</linearGradient>
<clipPath id="clip0_926_490">
<rect width="99.2799" height="99.28" fill="white"/>
</clipPath>
</defs>
</svg>
