<svg width="100" height="100" viewBox="0 0 100 100" fill="none" xmlns="http://www.w3.org/2000/svg">
<g clip-path="url(#clip0)">
<path d="M49.6401 96.4481C40.382 96.4481 31.3317 93.7028 23.6339 88.5592C15.936 83.4157 9.93624 76.105 6.3933 67.5516C2.85036 58.9981 1.92337 49.5862 3.72954 40.506C5.53571 31.4257 9.99394 23.085 16.5404 16.5385C23.0869 9.99198 31.4277 5.53376 40.5079 3.72759C49.5882 1.92141 59.0001 2.84841 67.5535 6.39135C76.1069 9.93428 83.4176 15.934 88.5612 23.6319C93.7047 31.3298 96.4501 40.38 96.4501 49.6381C96.4505 55.7854 95.24 61.8726 92.8878 67.5521C90.5355 73.2315 87.0875 78.392 82.7407 82.7388C78.3939 87.0856 73.2335 90.5335 67.554 92.8858C61.8746 95.2381 55.7874 96.4486 49.6401 96.4481V96.4481Z" fill="url(#paint0_linear)"/>
<path fill-rule="evenodd" clip-rule="evenodd" d="M95.54 49.64C95.54 58.7182 92.848 67.5925 87.8045 75.1407C82.7609 82.6889 75.5923 88.572 67.2052 92.0461C58.818 95.5201 49.5891 96.4291 40.6854 94.658C31.7816 92.887 23.603 88.5154 17.1838 82.0962C10.7646 75.677 6.39302 67.4984 4.62196 58.5946C2.85089 49.6909 3.75987 40.462 7.23393 32.0748C10.708 23.6877 16.5911 16.5191 24.1393 11.4755C31.6875 6.43199 40.5618 3.74 49.64 3.74C55.6677 3.73998 61.6363 4.9272 67.2052 7.23388C72.774 9.54057 77.834 12.9215 82.0963 17.1837C86.3585 21.446 89.7394 26.5059 92.0461 32.0748C94.3528 37.6437 95.54 43.6123 95.54 49.64V49.64ZM49.64 3.62732e-07C59.4579 3.62732e-07 69.0553 2.91134 77.2185 8.36585C85.3818 13.8204 91.7442 21.5731 95.5014 30.6436C99.2585 39.7141 100.242 49.6951 98.3262 59.3243C96.4108 68.9535 91.6831 77.7985 84.7408 84.7408C77.7985 91.6831 68.9535 96.4108 59.3243 98.3262C49.6951 100.242 39.7141 99.2585 30.6436 95.5014C21.5731 91.7442 13.8204 85.3818 8.36585 77.2185C2.91134 69.0553 3.62732e-07 59.4579 3.62732e-07 49.64C-0.000787738 43.121 1.28265 36.6656 3.77702 30.6427C6.27138 24.6197 9.9278 19.1471 14.5375 14.5375C19.1471 9.9278 24.6197 6.27138 30.6427 3.77702C36.6656 1.28265 43.121 -0.000787738 49.64 3.62732e-07V3.62732e-07Z" fill="#F2F1F0"/>
<path fill-rule="evenodd" clip-rule="evenodd" d="M92.7296 49.6386C92.7296 58.161 90.2024 66.492 85.4676 73.5781C80.7328 80.6643 74.0031 86.1872 66.1294 89.4486C58.2557 92.71 49.5918 93.5633 41.2331 91.9007C32.8745 90.238 25.1966 86.1341 19.1703 80.1079C13.1441 74.0816 9.04017 66.4037 7.37753 58.0451C5.7149 49.6864 6.56822 41.0225 9.8296 33.1488C13.091 25.2751 18.6139 18.5454 25.7 13.8106C32.7862 9.07581 41.1172 6.54862 49.6396 6.54862C55.2983 6.54828 60.9017 7.6626 66.1298 9.82795C71.3579 11.9933 76.1082 15.1673 80.1096 19.1686C84.1109 23.17 87.2849 27.9203 89.4502 33.1484C91.6156 38.3765 92.7299 43.9799 92.7296 49.6386V49.6386ZM49.6396 2.80862C58.9017 2.80862 67.9558 5.55515 75.6569 10.7009C83.3581 15.8466 89.3604 23.1605 92.9049 31.7176C96.4493 40.2746 97.3767 49.6906 95.5697 58.7747C93.7628 67.8588 89.3027 76.2031 82.7534 82.7524C76.2041 89.3017 67.8598 93.7619 58.7757 95.5688C49.6915 97.3757 40.2756 96.4484 31.7185 92.9039C23.1614 89.3594 15.8476 83.3571 10.7018 75.656C5.5561 67.9548 2.80957 58.9007 2.80957 49.6386C2.81076 37.2189 7.745 25.3082 16.5271 16.5261C25.3091 7.74403 37.2198 2.80979 49.6396 2.80859V2.80862Z" fill="#0078D4"/>
<path fill-rule="evenodd" clip-rule="evenodd" d="M92.7296 49.6386C92.7296 58.161 90.2024 66.492 85.4676 73.5781C80.7328 80.6642 74.0031 86.1872 66.1294 89.4486C58.2557 92.7099 49.5918 93.5633 41.2331 91.9006C32.8745 90.238 25.1966 86.1341 19.1703 80.1078C13.1441 74.0816 9.04017 66.4037 7.37753 58.045C5.7149 49.6864 6.56822 41.0224 9.8296 33.1488C13.091 25.2751 18.6139 18.5454 25.7001 13.8106C32.7862 9.07578 41.1172 6.54859 49.6396 6.54859C55.2983 6.54825 60.9017 7.66257 66.1298 9.82792C71.3579 11.9933 76.1082 15.1673 80.1096 19.1686C84.1109 23.1699 87.2849 27.9203 89.4502 33.1484C91.6156 38.3764 92.7299 43.9798 92.7296 49.6386V49.6386ZM49.6396 2.80859C58.9017 2.80859 67.9558 5.55513 75.6569 10.7009C83.3581 15.8466 89.3604 23.1605 92.9048 31.7175C96.4493 40.2746 97.3767 49.6905 95.5697 58.7747C93.7628 67.8588 89.3027 76.2031 82.7534 82.7524C76.2041 89.3017 67.8598 93.7618 58.7757 95.5688C49.6915 97.3757 40.2756 96.4483 31.7185 92.9039C23.1614 89.3594 15.8476 83.3571 10.7018 75.656C5.5561 67.9548 2.80957 58.9007 2.80957 49.6386C2.81076 37.2189 7.74501 25.3082 16.5271 16.5261C25.3091 7.74403 37.2198 2.80979 49.6396 2.80859V2.80859Z" fill="#0078D4"/>
<path d="M39.3039 53.2531C39.3039 59.7735 31.2785 65.0215 29.5325 66.0914C29.4323 66.1522 29.3174 66.1844 29.2002 66.1844C29.0829 66.1844 28.968 66.1522 28.8678 66.0914C27.1218 65.0258 19.0964 59.7778 19.0964 53.2531V45.4075C19.0972 45.243 19.1624 45.0854 19.2782 44.9685C19.394 44.8517 19.551 44.7849 19.7155 44.7827C25.9592 44.6201 24.5213 41.9297 29.2002 41.9297C33.879 41.9297 32.4412 44.62 38.6848 44.7827C38.8486 44.7849 39.005 44.851 39.1206 44.967C39.2363 45.0829 39.3021 45.2395 39.3039 45.4032L39.3039 53.2531Z" fill="#76BC2D"/>
<path d="M38.4724 53.3222C38.4724 59.3006 31.1118 64.115 29.5113 65.0907C29.4193 65.1466 29.3137 65.1762 29.206 65.1762C29.0984 65.1762 28.9928 65.1466 28.9008 65.0907C27.2946 64.115 19.9282 59.3006 19.9282 53.3222V46.1271C19.9282 45.9758 19.9883 45.8306 20.0953 45.7236C20.2024 45.6166 20.3475 45.5565 20.4988 45.5565C26.2275 45.4053 24.9095 42.9375 29.2003 42.9375C33.4912 42.9375 32.1731 45.4053 37.9018 45.5579C38.0532 45.5579 38.1983 45.6181 38.3053 45.7251C38.4123 45.8321 38.4724 45.9772 38.4724 46.1285V53.3222Z" fill="url(#paint1_linear)"/>
<path d="M33.2701 52.143H32.6881V50.1217C32.693 49.1663 32.3363 48.2444 31.6895 47.5412C31.3917 47.215 31.0326 46.9506 30.6326 46.7632C30.2326 46.5757 29.7996 46.4689 29.3583 46.4488C28.9171 46.4287 28.4762 46.4957 28.0608 46.646C27.6454 46.7963 27.2637 47.0269 26.9375 47.3248C26.8621 47.3936 26.79 47.4657 26.7211 47.5412C26.0689 48.2405 25.7113 49.1642 25.7225 50.1203V52.143H25.1305C25.0089 52.1437 24.8923 52.1918 24.8055 52.277C24.7187 52.3622 24.6685 52.4779 24.6655 52.5995V57.8518C24.6689 57.9733 24.7192 58.0887 24.8059 58.1739C24.8926 58.259 25.009 58.3072 25.1305 58.3083H33.2701C33.3916 58.3072 33.508 58.259 33.5947 58.1739C33.6814 58.0887 33.7317 57.9733 33.7351 57.8518V52.5995C33.7321 52.4779 33.6819 52.3622 33.5951 52.277C33.5083 52.1918 33.3917 52.1437 33.2701 52.143V52.143ZM31.0604 52.143H27.3459V50.0875C27.3511 49.5588 27.5607 49.0527 27.9308 48.6753C28.0913 48.4959 28.2879 48.3525 28.5076 48.2543C28.7274 48.1561 28.9654 48.1054 29.206 48.1054C29.4467 48.1054 29.6847 48.1561 29.9044 48.2543C30.1242 48.3525 30.3207 48.4959 30.4813 48.6753C30.5625 48.7636 30.6356 48.8591 30.6996 48.9605V48.9605C30.9302 49.2924 31.0582 49.6848 31.0676 50.0889L31.0604 52.143Z" fill="white"/>
<path opacity="0.15" d="M25.1321 52.1406H33.2701C33.3802 52.1422 33.4863 52.1826 33.5696 52.2547L24.8325 58.1917C24.7812 58.1502 24.7398 58.0979 24.7112 58.0384C24.6825 57.979 24.6675 57.9139 24.667 57.848V52.5985C24.6696 52.4767 24.7196 52.3606 24.8065 52.2751C24.8934 52.1896 25.0102 52.1413 25.1321 52.1406Z" fill="#B3B3B3"/>
<path opacity="0.09" d="M33.2701 52.1406H25.1306C25.021 52.1425 24.9154 52.1829 24.8325 52.2547L33.5683 58.1917C33.6197 58.1503 33.6614 58.098 33.6902 58.0385C33.7191 57.9791 33.7344 57.914 33.7352 57.848V52.5985C33.7322 52.4768 33.682 52.3609 33.5953 52.2755C33.5085 52.1901 33.3919 52.1417 33.2701 52.1406V52.1406Z" fill="#A3A3A3"/>
<path d="M57.5847 48.1055H81.8348V61.6256C81.8348 61.8405 81.7495 62.0466 81.5975 62.1985C81.4456 62.3505 81.2395 62.4359 81.0246 62.4359H58.395C58.1801 62.4359 57.974 62.3505 57.822 62.1985C57.6701 62.0466 57.5847 61.8405 57.5847 61.6256V48.1055V48.1055Z" fill="url(#paint2_linear)"/>
<path d="M58.3992 42.9375H81.0203C81.2352 42.9375 81.4413 43.0229 81.5932 43.1748C81.7452 43.3268 81.8306 43.5329 81.8306 43.7478V43.7478V48.1042H57.5847V43.7478C57.5847 43.5329 57.6701 43.3268 57.822 43.1748C57.974 43.0229 58.1801 42.9375 58.3949 42.9375L58.3992 42.9375Z" fill="#0078D4"/>
<path d="M60.9008 51.2272L61.4276 50.6989C61.4497 50.6768 61.4759 50.6592 61.5048 50.6472C61.5337 50.6352 61.5647 50.629 61.5959 50.6289C61.6272 50.6289 61.6582 50.635 61.6871 50.6469C61.716 50.6588 61.7423 50.6764 61.7645 50.6984L65.6615 54.5844C65.7059 54.6288 65.7412 54.6814 65.7653 54.7393C65.7894 54.7973 65.8019 54.8594 65.8019 54.9221C65.802 54.9849 65.7898 55.0471 65.7658 55.1051C65.7419 55.1631 65.7068 55.2158 65.6625 55.2603V55.2603L65.1367 55.7875L60.9023 51.5651C60.8575 51.5205 60.8324 51.4599 60.8323 51.3967C60.8322 51.3335 60.8572 51.2729 60.9018 51.2282L60.9008 51.2272Z" fill="#F2F2F2"/>
<path d="M61.5058 59.1106L60.9775 58.5838C60.9327 58.5392 60.9076 58.4787 60.9075 58.4155C60.9074 58.3523 60.9324 58.2917 60.977 58.2469L65.1379 54.0742L65.6652 54.6C65.7549 54.6895 65.8055 54.811 65.8057 54.9377C65.8059 55.0644 65.7557 55.1861 65.6662 55.2758V55.2758L61.8387 59.1142C61.8166 59.1363 61.7903 59.1539 61.7615 59.1659C61.7326 59.1779 61.7016 59.1841 61.6703 59.1842C61.639 59.1842 61.6081 59.1781 61.5791 59.1662C61.5502 59.1542 61.5239 59.1367 61.5018 59.1147L61.5058 59.1106Z" fill="#E6E6E6"/>
<path d="M67.5872 57.8789H73.5627C73.6728 57.8789 73.7784 57.9226 73.8563 58.0005C73.9341 58.0783 73.9778 58.1839 73.9778 58.294V58.906C73.9778 59.0161 73.9341 59.1217 73.8563 59.1995C73.7784 59.2774 73.6728 59.3211 73.5627 59.3211H67.5872C67.4771 59.3211 67.3715 59.2774 67.2937 59.1995C67.2158 59.1217 67.1721 59.0161 67.1721 58.906V58.294C67.1721 58.2395 67.1829 58.1855 67.2037 58.1352C67.2246 58.0848 67.2551 58.039 67.2937 58.0005C67.3322 57.9619 67.378 57.9314 67.4284 57.9105C67.4787 57.8896 67.5327 57.8789 67.5872 57.8789V57.8789Z" fill="#F2F2F2"/>
<path d="M63.6994 25.3286C63.7088 25.2627 63.7276 25.1969 63.737 25.1405C63.9134 24.2095 63.8827 23.2511 63.647 22.3334C63.4113 21.4157 62.9764 20.5611 62.3731 19.8304C61.7699 19.0997 61.0132 18.5108 60.1567 18.1056C59.3002 17.7003 58.365 17.4886 57.4175 17.4856C56.9328 17.4839 56.4497 17.5408 55.9787 17.6548C55.0182 16.1399 53.5918 14.9779 51.914 14.3436C50.2362 13.7093 48.3978 13.637 46.6753 14.1376C44.9529 14.6382 43.4396 15.6846 42.3632 17.1194C41.2867 18.5543 40.7054 20.2998 40.7066 22.0936C40.7066 22.2064 40.7066 22.3193 40.716 22.4321C40.2857 22.2873 39.8346 22.2142 39.3806 22.2158C38.3356 22.216 37.3307 22.6178 36.5737 23.3382C35.8167 24.0585 35.3656 25.0423 35.3136 26.086C35.2617 27.1297 35.6129 28.1534 36.2946 28.9454C36.9764 29.7373 37.9364 30.237 38.9762 30.3409L57.4081 30.3785C58.5554 30.3771 59.6817 30.0707 60.6715 29.4907C61.6613 28.9107 62.4792 28.0779 63.0411 27.0777C63.0693 27.0212 63.1069 26.9648 63.1351 26.9084C63.3841 26.4056 63.5735 25.8754 63.6994 25.3286V25.3286Z" fill="white"/>
<path d="M49.5789 30.3789V34.4119H29.2839V40.2409" stroke="white" stroke-width="1.07369" stroke-linejoin="round"/>
<path d="M49.5791 30.3789V34.4119H69.8741V40.2409" stroke="white" stroke-width="1.07369" stroke-linejoin="round"/>
<path d="M49.5791 76.9688V72.9368H69.8741V65.1758" stroke="white" stroke-width="1.07369" stroke-linejoin="round"/>
<path d="M49.5789 76.9699V72.9379H29.2839V68.1289" stroke="white" stroke-width="1.07369" stroke-linejoin="round"/>
<path d="M49.8308 20.1562H56.7408" stroke="#B3B3B3" stroke-width="0.80527" stroke-miterlimit="10" stroke-linecap="round"/>
<path d="M49.8308 22.3086H54.6306" stroke="#B3B3B3" stroke-width="0.80527" stroke-miterlimit="10" stroke-linecap="round"/>
<path d="M47.4935 18.8867H43.8973C43.6403 18.8867 43.4319 19.0951 43.4319 19.3521V22.9483C43.4319 23.2053 43.6403 23.4137 43.8973 23.4137H47.4935C47.7505 23.4137 47.9589 23.2053 47.9589 22.9483V19.3521C47.9589 19.0951 47.7505 18.8867 47.4935 18.8867Z" fill="#B3B3B3"/>
<path opacity="0.3" d="M49.8308 25.4336H56.7408" stroke="#B3B3B3" stroke-width="0.80527" stroke-miterlimit="10" stroke-linecap="round"/>
<path opacity="0.3" d="M49.8308 27.582H54.6306" stroke="#B3B3B3" stroke-width="0.80527" stroke-miterlimit="10" stroke-linecap="round"/>
<path opacity="0.3" d="M47.4935 24.1641H43.8973C43.6403 24.1641 43.4319 24.3724 43.4319 24.6295V28.2257C43.4319 28.4827 43.6403 28.6911 43.8973 28.6911H47.4935C47.7505 28.6911 47.9589 28.4827 47.9589 28.2257V24.6295C47.9589 24.3724 47.7505 24.1641 47.4935 24.1641Z" fill="#B3B3B3"/>
<path fill-rule="evenodd" clip-rule="evenodd" d="M49.5786 85.268C48.6652 85.268 47.7723 84.9971 47.0128 84.4897C46.2533 83.9822 45.6613 83.2609 45.3118 82.417C44.9622 81.5731 44.8707 80.6445 45.0489 79.7486C45.2271 78.8528 45.667 78.0298 46.3129 77.3839C46.9588 76.738 47.7817 76.2982 48.6776 76.12C49.5735 75.9418 50.5021 76.0333 51.346 76.3828C52.1899 76.7324 52.9111 77.3243 53.4186 78.0838C53.9261 78.8433 54.1969 79.7362 54.1969 80.6496C54.1969 81.8745 53.7103 83.0492 52.8442 83.9153C51.9781 84.7814 50.8035 85.2679 49.5786 85.268V85.268Z" fill="white"/>
<path fill-rule="evenodd" clip-rule="evenodd" d="M51.7003 79.3683C51.592 79.26 51.4451 79.1992 51.2919 79.1992C51.1387 79.1992 50.9918 79.26 50.8834 79.3683L48.9792 81.2711L48.2914 80.5899C48.2753 80.566 48.2571 80.5436 48.2371 80.523C48.1295 80.4149 47.9836 80.3537 47.8311 80.3529C47.6786 80.352 47.5319 80.4116 47.4232 80.5185C47.3145 80.6255 47.2525 80.7711 47.2508 80.9236C47.2491 81.0761 47.3078 81.223 47.4141 81.3324L47.4072 81.3393L48.5725 82.4939C48.6809 82.6022 48.8278 82.663 48.981 82.663C49.1343 82.663 49.2812 82.6022 49.3896 82.4939L51.6986 80.186L51.7003 80.1847C51.7539 80.1311 51.7965 80.0674 51.8255 79.9974C51.8545 79.9274 51.8695 79.8523 51.8695 79.7765C51.8695 79.7007 51.8545 79.6256 51.8255 79.5556C51.7965 79.4855 51.754 79.4219 51.7003 79.3683V79.3683Z" fill="#0078D4"/>
</g>
<defs>
<linearGradient id="paint0_linear" x1="47.8698" y1="-15.155" x2="51.8525" y2="130.613" gradientUnits="userSpaceOnUse">
<stop stop-color="#00ABDE"/>
<stop offset="1" stop-color="#007ED8"/>
</linearGradient>
<linearGradient id="paint1_linear" x1="29.2003" y1="65.1762" x2="29.2003" y2="42.9375" gradientUnits="userSpaceOnUse">
<stop stop-color="#5E9624"/>
<stop offset="0.321" stop-color="#639D26"/>
<stop offset="0.794" stop-color="#6FB12A"/>
<stop offset="0.999" stop-color="#76BC2D"/>
</linearGradient>
<linearGradient id="paint2_linear" x1="69.7098" y1="62.4359" x2="69.7098" y2="48.1055" gradientUnits="userSpaceOnUse">
<stop stop-color="#32BEDD"/>
<stop offset="0.175" stop-color="#32CAEA"/>
<stop offset="0.41" stop-color="#32D2F2"/>
<stop offset="0.775" stop-color="#32D4F5"/>
</linearGradient>
<clipPath id="clip0">
<rect width="99.2799" height="99.28" fill="white"/>
</clipPath>
</defs>
</svg>
