<svg width="100" height="100" viewBox="0 0 100 100" fill="none" xmlns="http://www.w3.org/2000/svg">
<g clip-path="url(#clip0)">
<path d="M49.6401 96.4481C40.382 96.4481 31.3317 93.7028 23.6339 88.5592C15.936 83.4157 9.93624 76.105 6.3933 67.5516C2.85036 58.9981 1.92337 49.5862 3.72954 40.506C5.53571 31.4257 9.99394 23.085 16.5404 16.5385C23.0869 9.99198 31.4277 5.53376 40.5079 3.72759C49.5882 1.92141 59.0001 2.84841 67.5535 6.39135C76.1069 9.93428 83.4176 15.934 88.5612 23.6319C93.7047 31.3298 96.4501 40.38 96.4501 49.6381C96.4505 55.7854 95.24 61.8726 92.8878 67.5521C90.5355 73.2315 87.0875 78.392 82.7407 82.7388C78.3939 87.0856 73.2335 90.5335 67.554 92.8858C61.8746 95.2381 55.7874 96.4486 49.6401 96.4481V96.4481Z" fill="url(#paint0_linear)"/>
<path fill-rule="evenodd" clip-rule="evenodd" d="M95.54 49.64C95.54 58.7182 92.848 67.5925 87.8045 75.1407C82.7609 82.6889 75.5923 88.572 67.2052 92.0461C58.818 95.5201 49.5891 96.4291 40.6854 94.658C31.7816 92.887 23.603 88.5154 17.1838 82.0962C10.7646 75.677 6.39302 67.4984 4.62196 58.5946C2.85089 49.6909 3.75987 40.462 7.23393 32.0748C10.708 23.6877 16.5911 16.5191 24.1393 11.4755C31.6875 6.43199 40.5618 3.74 49.64 3.74C55.6677 3.73998 61.6363 4.9272 67.2052 7.23388C72.774 9.54057 77.834 12.9215 82.0963 17.1837C86.3585 21.446 89.7394 26.5059 92.0461 32.0748C94.3528 37.6437 95.54 43.6123 95.54 49.64V49.64ZM49.64 3.62732e-07C59.4579 3.62732e-07 69.0553 2.91134 77.2185 8.36585C85.3818 13.8204 91.7442 21.5731 95.5014 30.6436C99.2585 39.7141 100.242 49.6951 98.3262 59.3243C96.4108 68.9535 91.6831 77.7985 84.7408 84.7408C77.7985 91.6831 68.9535 96.4108 59.3243 98.3262C49.6951 100.242 39.7141 99.2585 30.6436 95.5014C21.5731 91.7442 13.8204 85.3818 8.36585 77.2185C2.91134 69.0553 3.62732e-07 59.4579 3.62732e-07 49.64C-0.000787738 43.121 1.28265 36.6656 3.77702 30.6427C6.27138 24.6197 9.9278 19.1471 14.5375 14.5375C19.1471 9.9278 24.6197 6.27138 30.6427 3.77702C36.6656 1.28265 43.121 -0.000787738 49.64 3.62732e-07V3.62732e-07Z" fill="#F2F1F0"/>
<path fill-rule="evenodd" clip-rule="evenodd" d="M92.7296 49.6386C92.7296 58.161 90.2024 66.492 85.4676 73.5781C80.7328 80.6643 74.0031 86.1872 66.1294 89.4486C58.2557 92.71 49.5918 93.5633 41.2331 91.9007C32.8745 90.238 25.1966 86.1341 19.1703 80.1079C13.1441 74.0816 9.04017 66.4037 7.37753 58.0451C5.7149 49.6864 6.56822 41.0225 9.8296 33.1488C13.091 25.2751 18.6139 18.5454 25.7 13.8106C32.7862 9.07581 41.1172 6.54862 49.6396 6.54862C55.2983 6.54828 60.9017 7.6626 66.1298 9.82795C71.3579 11.9933 76.1082 15.1673 80.1096 19.1686C84.1109 23.17 87.2849 27.9203 89.4502 33.1484C91.6156 38.3765 92.7299 43.9799 92.7296 49.6386V49.6386ZM49.6396 2.80862C58.9017 2.80862 67.9558 5.55515 75.6569 10.7009C83.3581 15.8466 89.3604 23.1605 92.9049 31.7176C96.4493 40.2746 97.3767 49.6906 95.5697 58.7747C93.7628 67.8588 89.3027 76.2031 82.7534 82.7524C76.2041 89.3017 67.8598 93.7619 58.7757 95.5688C49.6915 97.3757 40.2756 96.4484 31.7185 92.9039C23.1614 89.3594 15.8476 83.3571 10.7018 75.656C5.5561 67.9548 2.80957 58.9007 2.80957 49.6386C2.81076 37.2189 7.745 25.3082 16.5271 16.5261C25.3091 7.74403 37.2198 2.80979 49.6396 2.80859V2.80862Z" fill="#0078D4"/>
<path fill-rule="evenodd" clip-rule="evenodd" d="M92.7296 49.6386C92.7296 58.161 90.2024 66.492 85.4676 73.5781C80.7328 80.6642 74.0031 86.1872 66.1294 89.4486C58.2557 92.7099 49.5918 93.5633 41.2331 91.9006C32.8745 90.238 25.1966 86.1341 19.1703 80.1078C13.1441 74.0816 9.04017 66.4037 7.37753 58.045C5.7149 49.6864 6.56822 41.0224 9.8296 33.1488C13.091 25.2751 18.6139 18.5454 25.7001 13.8106C32.7862 9.07578 41.1172 6.54859 49.6396 6.54859C55.2983 6.54825 60.9017 7.66257 66.1298 9.82792C71.3579 11.9933 76.1082 15.1673 80.1096 19.1686C84.1109 23.1699 87.2849 27.9203 89.4502 33.1484C91.6156 38.3764 92.7299 43.9798 92.7296 49.6386V49.6386ZM49.6396 2.80859C58.9017 2.80859 67.9558 5.55513 75.6569 10.7009C83.3581 15.8466 89.3604 23.1605 92.9048 31.7175C96.4493 40.2746 97.3767 49.6905 95.5697 58.7747C93.7628 67.8588 89.3027 76.2031 82.7534 82.7524C76.2041 89.3017 67.8598 93.7618 58.7757 95.5688C49.6915 97.3757 40.2756 96.4483 31.7185 92.9039C23.1614 89.3594 15.8476 83.3571 10.7018 75.656C5.5561 67.9548 2.80957 58.9007 2.80957 49.6386C2.81076 37.2189 7.74501 25.3082 16.5271 16.5261C25.3091 7.74403 37.2198 2.80979 49.6396 2.80859V2.80859Z" fill="#0078D4"/>
<path fill-rule="evenodd" clip-rule="evenodd" d="M26.7472 31.7227C25.6252 31.7259 24.55 32.1731 23.7566 32.9665C22.9632 33.7599 22.516 34.8351 22.5127 35.9571V65.5986H77.5611V35.9571C77.5578 34.8351 77.1106 33.7599 76.3172 32.9665C75.5238 32.1731 74.4486 31.7259 73.3266 31.7227H26.7472ZM73.3266 33.8399C73.888 33.8406 74.4261 34.0639 74.823 34.4608C75.2199 34.8577 75.4432 35.3958 75.4439 35.9571V63.4814H24.6299V35.9571C24.6305 35.3958 24.8537 34.8576 25.2507 34.4606C25.6476 34.0637 26.1858 33.8405 26.7472 33.8399H73.3266Z" fill="#1F56A3"/>
<path fill-rule="evenodd" clip-rule="evenodd" d="M24.6299 35.961C24.6305 35.3996 24.8538 34.8614 25.2507 34.4645C25.6476 34.0675 26.1859 33.8443 26.7472 33.8438H73.3266C73.8879 33.8445 74.4261 34.0678 74.823 34.4647C75.2199 34.8616 75.4431 35.3997 75.4439 35.961V63.4852H24.6299L24.6299 35.961Z" fill="#0078D4"/>
<path d="M72.9274 36.3594H27.1453V60.9691H72.9274V36.3594Z" fill="#1B93EB"/>
<path fill-rule="evenodd" clip-rule="evenodd" d="M16.1609 65.6016V66.6602C16.1642 67.7822 16.6114 68.8574 17.4048 69.6508C18.1982 70.4442 19.2733 70.8914 20.3954 70.8947H79.6783C80.8004 70.8914 81.8755 70.4442 82.6689 69.6508C83.4623 68.8574 83.9095 67.7822 83.9128 66.6602V65.6016H16.1609Z" fill="#0078D4"/>
<path fill-rule="evenodd" clip-rule="evenodd" d="M47.9192 68.7774H16.7522C17.1213 69.418 17.6518 69.9506 18.291 70.3222C18.9302 70.6937 19.6556 70.8911 20.3949 70.8947H79.6779C80.8 70.8914 81.8751 70.4442 82.6685 69.6508C83.4619 68.8574 83.9091 67.7822 83.9124 66.6602V65.6016H50.0364V66.6602C50.0365 66.9382 49.9818 67.2136 49.8754 67.4705C49.769 67.7274 49.6131 67.9608 49.4165 68.1575C49.2199 68.3541 48.9864 68.51 48.7295 68.6164C48.4726 68.7228 48.1973 68.7775 47.9192 68.7774Z" fill="#1F56A3"/>
<path fill-rule="evenodd" clip-rule="evenodd" d="M45.8023 67.7188H54.2713C54.8328 67.7186 55.3712 67.4955 55.7682 67.0985C56.1652 66.7014 56.3883 66.163 56.3885 65.6016H43.6851C43.6851 66.1631 43.9082 66.7016 44.3052 67.0987C44.7023 67.4957 45.2408 67.7188 45.8023 67.7188Z" fill="#003067"/>
<path d="M39.6196 47.7554V41.4404L46.9093 40.4257V47.7554L39.6196 47.7554ZM48.725 40.1587L59.6595 38.6367V47.7555H48.725V40.1587ZM59.6595 49.5712V58.6899L48.725 57.1679V49.5712L59.6595 49.5712ZM46.9093 56.9009L39.6196 55.8862V49.5712H46.9093V56.9009Z" fill="#0078D4"/>
<path opacity="0.2" fill-rule="evenodd" clip-rule="evenodd" d="M49.5767 46.0899C53.3899 46.0855 57.0457 44.5688 59.7421 41.8725C62.4384 39.1761 63.9552 35.5203 63.9595 31.707H35.1938C35.1982 35.5203 36.7149 39.1761 39.4112 41.8725C42.1076 44.5688 45.7634 46.0855 49.5767 46.0899V46.0899Z" fill="#003067"/>
<path fill-rule="evenodd" clip-rule="evenodd" d="M49.64 20.875C47.494 20.875 45.3962 21.5114 43.6118 22.7036C41.8275 23.8959 40.4367 25.5905 39.6155 27.5732C38.7942 29.5558 38.5794 31.7375 38.998 33.8423C39.4167 35.9471 40.4501 37.8804 41.9676 39.3979C43.4851 40.9154 45.4184 41.9488 47.5232 42.3674C49.628 42.7861 51.8097 42.5712 53.7923 41.75C55.775 40.9287 57.4696 39.538 58.6618 37.7536C59.8541 35.9693 60.4905 33.8715 60.4905 31.7255C60.4873 28.8487 59.3431 26.0907 57.309 24.0565C55.2748 22.0223 52.5168 20.8782 49.64 20.875V20.875Z" fill="white"/>
<path fill-rule="evenodd" clip-rule="evenodd" d="M60.4211 30.4828C60.1046 27.7304 58.7473 25.2033 56.6274 23.4195C54.5075 21.6357 51.7856 20.7303 49.0196 20.8889C46.2536 21.0475 43.653 22.2581 41.7509 24.2726C39.8489 26.287 38.7893 28.9527 38.7896 31.7233C38.7896 31.853 38.795 31.9817 38.7992 32.1108C38.8946 29.5291 39.9065 27.0659 41.6535 25.1629C43.4006 23.2598 45.7685 22.0414 48.3326 21.7261C48.4963 21.7063 48.6624 21.7214 48.8199 21.7704C48.9774 21.8195 49.1227 21.9013 49.2462 22.0106C49.3698 22.1199 49.4688 22.2542 49.5366 22.4045C49.6045 22.5548 49.6397 22.7179 49.64 22.8828V33.655C49.1617 33.6543 48.7006 33.4762 48.3461 33.1552C47.9915 32.8341 47.7687 32.3929 47.7207 31.917C47.7089 32.0044 47.7032 32.0924 47.7036 32.1805C47.7189 32.5831 47.8594 32.971 48.1057 33.2898C48.352 33.6087 48.6917 33.8427 49.0774 33.9592C49.2386 34.0059 49.3804 34.1034 49.4818 34.2372C49.5832 34.371 49.6387 34.5339 49.64 34.7017V42.5737C51.1692 42.572 52.6807 42.2475 54.0758 41.6213C55.4708 40.9952 56.718 40.0816 57.7357 38.9403C58.7533 37.799 59.5186 36.4557 59.9814 34.9982C60.4441 33.5408 60.594 32.0021 60.4211 30.4828V30.4828Z" fill="#F2F2F2"/>
<path fill-rule="evenodd" clip-rule="evenodd" d="M49.64 44.1269C51.8748 44.1292 54.0681 43.5236 55.9852 42.3749L53.5221 38.2064C53.3921 38.0122 53.2188 37.8509 53.0158 37.7351C52.8129 37.6193 52.5859 37.5522 52.3526 37.5391H46.5398C46.3081 37.5519 46.0829 37.6205 45.8834 37.739C45.6838 37.8574 45.5158 38.0223 45.3936 38.2195L43.1685 42.2994C45.1146 43.4965 47.3551 44.1292 49.64 44.1269V44.1269Z" fill="#1F56A3"/>
<path fill-rule="evenodd" clip-rule="evenodd" d="M58.9403 31.7246C58.9416 32.9459 58.7012 34.1554 58.233 35.2834C57.7648 36.4114 57.078 37.4355 56.2122 38.2969L53.7476 35.8323C54.288 35.2935 54.7168 34.6533 55.0094 33.9484C55.302 33.2435 55.4526 32.4878 55.4526 31.7246C55.4526 30.9614 55.302 30.2058 55.0094 29.5009C54.7168 28.796 54.288 28.1558 53.7476 27.617L56.2122 25.1523C57.078 26.0137 57.7648 27.0379 58.233 28.1659C58.7012 29.2939 58.9416 30.5033 58.9403 31.7246V31.7246Z" fill="#7CB65A"/>
<path fill-rule="evenodd" clip-rule="evenodd" d="M56.2124 25.1539L53.7478 27.6185C53.209 27.078 52.5688 26.6492 51.8639 26.3566C51.159 26.064 50.4033 25.9134 49.6401 25.9134C48.877 25.9134 48.1213 26.064 47.4164 26.3566C46.7115 26.6492 46.0713 27.078 45.5325 27.6185L43.0679 25.1539C43.93 24.2891 44.9543 23.603 46.0821 23.1349C47.2099 22.6668 48.419 22.4258 49.6401 22.4258C50.8613 22.4258 52.0704 22.6668 53.1982 23.1349C54.326 23.603 55.3503 24.2891 56.2124 25.1539V25.1539Z" fill="#F7CB64"/>
<path fill-rule="evenodd" clip-rule="evenodd" d="M43.8273 31.7246C43.8265 32.4879 43.9767 33.2438 44.2694 33.9488C44.562 34.6538 44.9912 35.2939 45.5323 35.8323L43.0677 38.2969C42.203 37.4348 41.5169 36.4104 41.0487 35.2826C40.5806 34.1548 40.3396 32.9457 40.3396 31.7246C40.3396 30.5035 40.5806 29.2944 41.0487 28.1666C41.5169 27.0388 42.203 26.0145 43.0677 25.1523L45.5323 27.617C44.9912 28.1553 44.562 28.7955 44.2694 29.5004C43.9767 30.2054 43.8265 30.9613 43.8273 31.7246V31.7246Z" fill="#DF5142"/>
<path fill-rule="evenodd" clip-rule="evenodd" d="M52.3528 37.5391H49.6401V44.1269C51.875 44.1292 54.0683 43.5235 55.9853 42.3749L53.5223 38.2063C53.3923 38.0122 53.219 37.8509 53.016 37.7351C52.8131 37.6193 52.586 37.5522 52.3528 37.5391V37.5391Z" fill="#003067"/>
<path fill-rule="evenodd" clip-rule="evenodd" d="M49.64 42.5752C47.494 42.5752 45.3962 41.9388 43.6118 40.7466C41.8275 39.5543 40.4368 37.8597 39.6155 35.877C38.7943 33.8944 38.5794 31.7127 38.9981 29.6079C39.4167 27.5032 40.4501 25.5698 41.9676 24.0523C43.4851 22.5349 45.4184 21.5015 47.5232 21.0828C49.628 20.6641 51.8097 20.879 53.7923 21.7002C55.775 22.5215 57.4696 23.9122 58.6619 25.6966C59.8541 27.4809 60.4905 29.5787 60.4905 31.7247C60.4874 34.6015 59.3432 37.3595 57.309 39.3937C55.2748 41.4279 52.5168 42.5721 49.64 42.5752V42.5752ZM49.64 19.3242C47.1874 19.3242 44.7899 20.0515 42.7507 21.4141C40.7114 22.7767 39.122 24.7134 38.1834 26.9793C37.2449 29.2452 36.9993 31.7385 37.4778 34.144C37.9563 36.5494 39.1373 38.759 40.8715 40.4932C42.6058 42.2275 44.8153 43.4085 47.2208 43.887C49.6263 44.3655 52.1196 44.1199 54.3855 43.1813C56.6514 42.2428 58.5881 40.6534 59.9507 38.6141C61.3133 36.5749 62.0406 34.1773 62.0406 31.7247C62.0369 28.4371 60.7292 25.2851 58.4044 22.9603C56.0797 20.6356 52.9277 19.3279 49.64 19.3242V19.3242Z" fill="#003067"/>
<path fill-rule="evenodd" clip-rule="evenodd" d="M50.9374 30.312C51.1919 30.5504 51.377 30.8532 51.4732 31.1883C51.5694 31.5235 51.5731 31.8784 51.4838 32.2155C53.4245 31.101 56.4928 29.2866 56.3743 29.0181C56.2483 28.7348 52.5902 29.5722 50.5833 30.0551C50.7107 30.1269 50.8295 30.2131 50.9374 30.312V30.312Z" fill="#182A37"/>
<path fill-rule="evenodd" clip-rule="evenodd" d="M50.9595 30.3039C50.6789 30.0429 50.3271 29.871 49.9488 29.8099C49.5705 29.7488 49.1825 29.8013 48.834 29.9608C48.4855 30.1202 48.1921 30.3794 47.9909 30.7055C47.7897 31.0317 47.6897 31.4102 47.7037 31.7932C47.7176 32.1762 47.8448 32.5464 48.0691 32.8571C48.2935 33.1678 48.605 33.405 48.9641 33.5387C49.3233 33.6724 49.714 33.6965 50.0869 33.6081C50.4598 33.5197 50.7981 33.3227 51.0591 33.0421C51.4083 32.6654 51.594 32.1657 51.5753 31.6524C51.5566 31.1391 51.3352 30.6541 50.9595 30.3039V30.3039Z" fill="#546670"/>
<path fill-rule="evenodd" clip-rule="evenodd" d="M51.0059 30.3594L48.2739 33.0918C48.2906 33.1084 48.3026 33.1282 48.3204 33.1445C48.6916 33.4906 49.1839 33.677 49.6913 33.6635C50.1986 33.65 50.6803 33.4377 51.0326 33.0724C51.3849 32.707 51.5795 32.2179 51.5745 31.7104C51.5695 31.2029 51.3653 30.7177 51.0059 30.3594H51.0059Z" fill="#30404D"/>
<path fill-rule="evenodd" clip-rule="evenodd" d="M49.612 30.9497C49.4587 30.9552 49.3106 31.0061 49.1862 31.0958C49.0619 31.1856 48.967 31.3102 48.9135 31.4539C48.86 31.5976 48.8503 31.7539 48.8856 31.9031C48.921 32.0523 48.9998 32.1877 49.1121 32.2921C49.2245 32.3965 49.3652 32.4652 49.5166 32.4896C49.668 32.514 49.8232 32.493 49.9626 32.4291C50.1021 32.3653 50.2194 32.2615 50.2998 32.131C50.3803 32.0004 50.4202 31.8489 50.4145 31.6957C50.4068 31.4904 50.3179 31.2966 50.1675 31.1568C50.017 31.0169 49.8173 30.9425 49.612 30.9497V30.9497Z" fill="#182A37"/>
<path fill-rule="evenodd" clip-rule="evenodd" d="M53.7478 27.6185L56.2124 25.1539C55.351 24.2881 54.3269 23.6013 53.1989 23.1331C52.0709 22.6649 50.8614 22.4245 49.6401 22.4258V25.9134C50.4034 25.9127 51.1593 26.063 51.8643 26.3556C52.5693 26.6482 53.2094 27.0774 53.7478 27.6185V27.6185Z" fill="#EFB252"/>
<path fill-rule="evenodd" clip-rule="evenodd" d="M52.3528 40.6368C52.3521 40.8421 52.2703 41.0389 52.1251 41.1841C51.9799 41.3293 51.7831 41.4112 51.5778 41.4118H47.315C47.1097 41.4112 46.9129 41.3293 46.7677 41.1841C46.6225 41.0389 46.5406 40.8421 46.54 40.6368V39.4742C46.5406 39.2689 46.6225 39.0721 46.7677 38.9269C46.9129 38.7817 47.1097 38.6998 47.315 38.6992H51.5777C51.7831 38.6998 51.9798 38.7817 52.125 38.9269C52.2703 39.0721 52.3521 39.2689 52.3527 39.4742L52.3528 40.6368Z" fill="#1F56A3"/>
<path fill-rule="evenodd" clip-rule="evenodd" d="M51.5777 38.6992H47.315C47.1097 38.6998 46.9129 38.7817 46.7677 38.9269C46.6225 39.0721 46.5406 39.2689 46.54 39.4742V39.8617C46.5406 39.6564 46.6225 39.4596 46.7677 39.3144C46.9129 39.1692 47.1097 39.0873 47.315 39.0867H51.5777C51.7831 39.0873 51.9798 39.1692 52.1251 39.3144C52.2703 39.4596 52.3521 39.6564 52.3527 39.8617V39.4742C52.3521 39.2689 52.2703 39.0721 52.125 38.9269C51.9798 38.7817 51.7831 38.6998 51.5777 38.6992V38.6992Z" fill="#003067"/>
<path d="M63.959 31.707H68.849V43.422" stroke="white" stroke-miterlimit="10"/>
<path fill-rule="evenodd" clip-rule="evenodd" d="M75.4335 64.214C75.4324 64.5813 75.286 64.9333 75.0263 65.193C74.7666 65.4527 74.4146 65.5991 74.0474 65.6002H63.6513C63.284 65.5991 62.932 65.4527 62.6723 65.193C62.4126 64.9333 62.2662 64.5813 62.2651 64.214V44.808C62.2662 44.4407 62.4126 44.0888 62.6723 43.8291C62.932 43.5693 63.284 43.4229 63.6513 43.4219H74.0474C74.4146 43.423 74.7666 43.5693 75.0263 43.8291C75.286 44.0888 75.4324 44.4407 75.4335 44.808V64.214Z" fill="#003067"/>
<path fill-rule="evenodd" clip-rule="evenodd" d="M63.3047 61.7894H74.3938V46.1953H63.3047V61.7894Z" fill="#0078D4"/>
<path fill-rule="evenodd" clip-rule="evenodd" d="M69.889 63.5201C69.889 63.7257 69.8281 63.9267 69.7138 64.0977C69.5996 64.2686 69.4372 64.4019 69.2473 64.4806C69.0573 64.5592 68.8483 64.5798 68.6466 64.5397C68.4449 64.4996 68.2597 64.4006 68.1143 64.2552C67.9689 64.1098 67.8699 63.9246 67.8298 63.7229C67.7897 63.5212 67.8103 63.3122 67.889 63.1222C67.9676 62.9323 68.1009 62.7699 68.2719 62.6557C68.4428 62.5414 68.6438 62.4805 68.8494 62.4805C68.986 62.4805 69.1212 62.5073 69.2473 62.5596C69.3734 62.6118 69.488 62.6884 69.5846 62.785C69.6811 62.8815 69.7577 62.9961 69.8099 63.1222C69.8622 63.2484 69.889 63.3836 69.889 63.5201V63.5201Z" fill="#00244D"/>
<path fill-rule="evenodd" clip-rule="evenodd" d="M70.2354 45.5017H67.4631C67.4175 45.5019 67.3722 45.4931 67.33 45.4758C67.2877 45.4585 67.2493 45.433 67.2169 45.4008C67.1845 45.3686 67.1588 45.3303 67.1413 45.2882C67.1238 45.246 67.1147 45.2008 67.1147 45.1551C67.1147 45.1095 67.1238 45.0643 67.1413 45.0221C67.1588 44.9799 67.1845 44.9416 67.2169 44.9094C67.2493 44.8772 67.2877 44.8517 67.33 44.8344C67.3722 44.8171 67.4175 44.8084 67.4631 44.8086H70.2354C70.327 44.8091 70.4147 44.8458 70.4793 44.9108C70.5438 44.9757 70.5801 45.0635 70.5801 45.1551C70.5801 45.2467 70.5438 45.3346 70.4793 45.3995C70.4147 45.4645 70.327 45.5012 70.2354 45.5017V45.5017Z" fill="#00244D"/>
<path fill-rule="evenodd" clip-rule="evenodd" d="M72.6539 53.308L72.0622 53.1765C72.001 53.1542 71.951 53.1086 71.9232 53.0497L71.9162 53.0307L71.7529 52.6339L71.7435 52.6136C71.7326 52.5835 71.7276 52.5515 71.729 52.5194C71.7304 52.4874 71.7381 52.456 71.7517 52.4269L72.0771 51.9155C72.1437 51.8047 72.1721 51.6752 72.158 51.5468C72.1439 51.4183 72.0881 51.298 71.9991 51.2044L71.8191 51.0244C71.7246 50.9369 71.6045 50.8821 71.4764 50.868C71.3484 50.854 71.2193 50.8815 71.108 50.9464L70.5964 51.2717C70.5638 51.288 70.5276 51.2959 70.4912 51.2946C70.4634 51.2956 70.4356 51.2906 70.4099 51.28L70.3894 51.2705L69.9928 51.1072L69.9737 51.1003C69.9148 51.0724 69.8693 51.0224 69.847 50.9611L69.7156 50.3696C69.6843 50.2442 69.6128 50.1325 69.512 50.0516C69.4112 49.9707 69.2866 49.9252 69.1574 49.9219H68.9029C68.7738 49.9251 68.6492 49.9707 68.5484 50.0515C68.4476 50.1324 68.3761 50.2441 68.3449 50.3695L68.2133 50.9614C68.1909 51.0225 68.1454 51.0724 68.0866 51.1003L68.0674 51.1072L67.6708 51.2705L67.6503 51.28C67.6246 51.2906 67.5969 51.2956 67.569 51.2946C67.5326 51.2958 67.4964 51.2879 67.4637 51.2717L66.9523 50.9465C66.8411 50.8816 66.7119 50.8542 66.5839 50.8682C66.4559 50.8823 66.3358 50.937 66.2412 51.0245L66.0612 51.2044C65.9722 51.2981 65.9164 51.4184 65.9023 51.5468C65.8882 51.6753 65.9166 51.8048 65.9832 51.9156L66.3087 52.427C66.3359 52.4856 66.3388 52.5527 66.3168 52.6135L66.3073 52.634L66.144 53.0307L66.137 53.0498C66.1092 53.1087 66.0592 53.1543 65.998 53.1766L65.4065 53.3079C65.281 53.3391 65.1693 53.4107 65.0885 53.5115C65.0076 53.6123 64.962 53.7369 64.9587 53.8661V54.1206C64.962 54.2497 65.0076 54.3743 65.0884 54.4751C65.1693 54.5759 65.281 54.6474 65.4063 54.6786L65.9981 54.81C66.0593 54.8324 66.1092 54.878 66.137 54.9369L66.144 54.956L66.3073 55.3527L66.3168 55.373C66.3388 55.4339 66.3359 55.501 66.3085 55.5597L65.9832 56.071C65.9166 56.1818 65.8881 56.3113 65.9022 56.4398C65.9163 56.5683 65.9722 56.6886 66.0612 56.7823L66.2412 56.9623C66.3358 57.0497 66.456 57.1044 66.584 57.1185C66.712 57.1325 66.8412 57.1051 66.9525 57.0403L67.4636 56.7149C67.4963 56.6986 67.5325 56.6908 67.569 56.692C67.5969 56.6909 67.6246 56.6959 67.6503 56.7067L67.6708 56.7161L68.0674 56.8794L68.0866 56.8863C68.1455 56.9143 68.191 56.9642 68.2133 57.0254L68.3449 57.617C68.3761 57.7424 68.4476 57.8542 68.5484 57.935C68.6492 58.0159 68.7737 58.0615 68.9029 58.0648H69.1574C69.2866 58.0614 69.4111 58.0159 69.5119 57.935C69.6127 57.8541 69.6842 57.7424 69.7154 57.617L69.847 57.0254C69.8693 56.9642 69.9148 56.9142 69.9737 56.8863L69.9928 56.8794L70.3894 56.7161L70.4098 56.7067C70.4355 56.696 70.4632 56.691 70.491 56.692C70.5275 56.6907 70.5637 56.6986 70.5964 56.7149L71.1078 57.0401C71.2191 57.1051 71.3483 57.1325 71.4763 57.1185C71.6043 57.1045 71.7245 57.0497 71.8191 56.9623L71.999 56.7824C72.088 56.6887 72.1439 56.5683 72.158 56.4399C72.1721 56.3114 72.1437 56.1818 72.0771 56.071L71.7516 55.5597C71.7381 55.5306 71.7304 55.4992 71.729 55.4672C71.7276 55.4352 71.7325 55.4032 71.7435 55.3731L71.7529 55.3528L71.9162 54.9559L71.9231 54.9369C71.9511 54.8779 72.0011 54.8323 72.0623 54.81L72.6537 54.6786C72.7792 54.6474 72.8909 54.5759 72.9718 54.4751C73.0527 54.3743 73.0983 54.2497 73.1016 54.1205V53.8661C73.0983 53.7369 73.0528 53.6123 72.9719 53.5115C72.891 53.4107 72.7793 53.3392 72.6539 53.308V53.308Z" fill="white"/>
<path d="M69.0302 55.4866C69.8559 55.4866 70.5254 54.8171 70.5254 53.9913C70.5254 53.1655 69.8559 52.4961 69.0302 52.4961C68.2044 52.4961 67.5349 53.1655 67.5349 53.9913C67.5349 54.8171 68.2044 55.4866 69.0302 55.4866Z" fill="#1B93EB"/>
<path d="M35.1941 31.707H31.2141V43.422" stroke="white" stroke-miterlimit="10"/>
<path fill-rule="evenodd" clip-rule="evenodd" d="M24.6299 64.214C24.631 64.5813 24.7773 64.9333 25.0371 65.193C25.2968 65.4527 25.6487 65.5991 26.016 65.6002H36.4121C36.7794 65.5991 37.1313 65.4527 37.3911 65.193C37.6508 64.9333 37.7972 64.5813 37.7982 64.214V44.808C37.7972 44.4407 37.6508 44.0888 37.3911 43.8291C37.1313 43.5693 36.7794 43.4229 36.4121 43.4219H26.016C25.6487 43.423 25.2968 43.5693 25.0371 43.8291C24.7774 44.0888 24.631 44.4407 24.6299 44.808L24.6299 64.214Z" fill="#003067"/>
<path fill-rule="evenodd" clip-rule="evenodd" d="M36.7586 61.7894H25.6694V46.1953H36.7586V61.7894Z" fill="#0078D4"/>
<path fill-rule="evenodd" clip-rule="evenodd" d="M30.1743 63.5201C30.1743 63.7257 30.2353 63.9267 30.3495 64.0977C30.4638 64.2686 30.6261 64.4019 30.8161 64.4806C31.0061 64.5592 31.2151 64.5798 31.4167 64.5397C31.6184 64.4996 31.8037 64.4006 31.949 64.2552C32.0944 64.1098 32.1934 63.9246 32.2336 63.7229C32.2737 63.5212 32.2531 63.3122 32.1744 63.1222C32.0957 62.9323 31.9625 62.7699 31.7915 62.6557C31.6205 62.5414 31.4195 62.4805 31.2139 62.4805C31.0774 62.4805 30.9422 62.5073 30.8161 62.5596C30.6899 62.6118 30.5753 62.6884 30.4788 62.785C30.3822 62.8815 30.3057 62.9961 30.2534 63.1222C30.2012 63.2484 30.1743 63.3836 30.1743 63.5201Z" fill="#00244D"/>
<path fill-rule="evenodd" clip-rule="evenodd" d="M29.8278 45.5017H32.6001C32.6458 45.5019 32.691 45.4931 32.7333 45.4758C32.7756 45.4585 32.814 45.433 32.8464 45.4008C32.8787 45.3686 32.9044 45.3303 32.922 45.2882C32.9395 45.246 32.9485 45.2008 32.9485 45.1551C32.9485 45.1095 32.9395 45.0643 32.922 45.0221C32.9044 44.9799 32.8787 44.9416 32.8464 44.9094C32.814 44.8772 32.7756 44.8517 32.7333 44.8344C32.691 44.8171 32.6458 44.8084 32.6001 44.8086H29.8278C29.7362 44.8091 29.6486 44.8458 29.584 44.9108C29.5194 44.9757 29.4832 45.0635 29.4832 45.1551C29.4832 45.2467 29.5194 45.3346 29.584 45.3995C29.6486 45.4645 29.7362 45.5012 29.8278 45.5017V45.5017Z" fill="#00244D"/>
<path fill-rule="evenodd" clip-rule="evenodd" d="M26.9619 53.8661V54.1205C26.9652 54.2497 27.0108 54.3743 27.0917 54.4751C27.1726 54.5759 27.2843 54.6474 27.4098 54.6786L28.0012 54.81C28.0624 54.8323 28.1124 54.8779 28.1404 54.9369L28.1474 54.9559L28.3106 55.3528L28.32 55.3731C28.331 55.4032 28.3359 55.4352 28.3345 55.4672C28.3331 55.4992 28.3254 55.5306 28.3119 55.5597L27.9864 56.071C27.9198 56.1818 27.8914 56.3114 27.9055 56.4399C27.9196 56.5683 27.9755 56.6887 28.0645 56.7824L28.2444 56.9623C28.339 57.0497 28.4592 57.1045 28.5872 57.1185C28.7152 57.1325 28.8444 57.1051 28.9557 57.0401L29.4671 56.7149C29.4998 56.6986 29.536 56.6907 29.5725 56.692C29.6003 56.691 29.628 56.696 29.6537 56.7067L29.6742 56.7161L30.0707 56.8794L30.0898 56.8863C30.1487 56.9142 30.1942 56.9642 30.2165 57.0254L30.3481 57.617C30.3793 57.7424 30.4508 57.8541 30.5516 57.935C30.6524 58.0159 30.777 58.0615 30.9062 58.0648H31.1606C31.2898 58.0615 31.4144 58.0159 31.5152 57.935C31.616 57.8541 31.6874 57.7424 31.7186 57.617L31.8502 57.0254C31.8725 56.9642 31.918 56.9143 31.9769 56.8863L31.9961 56.8794L32.3927 56.7161L32.4132 56.7067C32.4389 56.6959 32.4666 56.6909 32.4945 56.692C32.531 56.6908 32.5672 56.6987 32.6 56.7149L33.111 57.0403C33.2223 57.1051 33.3515 57.1325 33.4795 57.1185C33.6075 57.1044 33.7277 57.0497 33.8223 56.9623L34.0023 56.7823C34.0913 56.6886 34.1472 56.5683 34.1613 56.4398C34.1754 56.3113 34.1469 56.1818 34.0803 56.071L33.755 55.5597C33.7276 55.501 33.7247 55.4339 33.7467 55.373L33.7562 55.3527L33.9195 54.956L33.9265 54.9369C33.9543 54.878 34.0042 54.8324 34.0654 54.81L34.6572 54.6786C34.7826 54.6474 34.8942 54.5759 34.9751 54.4751C35.0559 54.3743 35.1015 54.2497 35.1048 54.1206V53.8661C35.1015 53.7369 35.0559 53.6123 34.975 53.5115C34.8942 53.4107 34.7825 53.3391 34.657 53.3079L34.0655 53.1766C34.0043 53.1543 33.9543 53.1087 33.9265 53.0498L33.9195 53.0307L33.7562 52.634L33.7467 52.6135C33.7247 52.5527 33.7276 52.4856 33.7548 52.427L34.0803 51.9156C34.1469 51.8049 34.1753 51.6753 34.1612 51.5468C34.1471 51.4184 34.0913 51.2981 34.0023 51.2044L33.8223 51.0245C33.7277 50.937 33.6076 50.8823 33.4796 50.8682C33.3516 50.8542 33.2224 50.8816 33.1112 50.9465L32.5998 51.2717C32.5671 51.2879 32.5309 51.2958 32.4945 51.2946C32.4666 51.2956 32.4389 51.2906 32.4132 51.28L32.3927 51.2705L31.9961 51.1072L31.9769 51.1003C31.9181 51.0724 31.8726 51.0225 31.8502 50.9614L31.7186 50.3695C31.6874 50.2441 31.6159 50.1324 31.5151 50.0515C31.4143 49.9707 31.2898 49.9251 31.1606 49.9219H30.9062C30.7769 49.9252 30.6524 49.9707 30.5516 50.0516C30.4507 50.1325 30.3792 50.2442 30.348 50.3696L30.2165 50.9611C30.1943 51.0224 30.1487 51.0724 30.0898 51.1003L30.0707 51.1072L29.6742 51.2705L29.6537 51.28C29.6279 51.2906 29.6002 51.2956 29.5724 51.2946C29.5359 51.2959 29.4997 51.288 29.4671 51.2717L28.9555 50.9464C28.8443 50.8815 28.7151 50.854 28.5871 50.8681C28.4591 50.8821 28.339 50.9369 28.2444 51.0244L28.0644 51.2044C27.9754 51.298 27.9196 51.4183 27.9055 51.5468C27.8914 51.6752 27.9199 51.8047 27.9864 51.9155L28.3119 52.4269C28.3393 52.4856 28.3422 52.5528 28.32 52.6136L28.3106 52.6339L28.1474 53.0307L28.1404 53.0497C28.1125 53.1086 28.0625 53.1542 28.0013 53.1765L27.4097 53.308C27.2843 53.3392 27.1725 53.4107 27.0916 53.5115C27.0108 53.6123 26.9652 53.7369 26.9619 53.8661V53.8661Z" fill="white"/>
<path d="M31.0333 55.4866C31.8591 55.4866 32.5286 54.8171 32.5286 53.9913C32.5286 53.1655 31.8591 52.4961 31.0333 52.4961C30.2075 52.4961 29.5381 53.1655 29.5381 53.9913C29.5381 54.8171 30.2075 55.4866 31.0333 55.4866Z" fill="#1B93EB"/>
</g>
<defs>
<linearGradient id="paint0_linear" x1="47.8698" y1="-15.155" x2="51.8525" y2="130.613" gradientUnits="userSpaceOnUse">
<stop stop-color="#00ABDE"/>
<stop offset="1" stop-color="#007ED8"/>
</linearGradient>
<clipPath id="clip0">
<rect width="99.2799" height="99.28" fill="white"/>
</clipPath>
</defs>
</svg>
