<svg width="100" height="100" viewBox="0 0 100 100" fill="none" xmlns="http://www.w3.org/2000/svg">
<g clip-path="url(#clip0_1112_461)">
<path d="M49.6401 96.45C40.382 96.45 31.3317 93.7047 23.6339 88.5611C15.936 83.4176 9.93624 76.1068 6.3933 67.5534C2.85036 59 1.92337 49.5881 3.72954 40.5078C5.53571 31.4276 9.99394 23.0868 16.5404 16.5403C23.0869 9.99384 31.4277 5.53562 40.5079 3.72945C49.5882 1.92327 59.0001 2.85027 67.5535 6.39321C76.1069 9.93614 83.4176 15.9359 88.5612 23.6338C93.7047 31.3316 96.4501 40.3819 96.4501 49.64C96.4505 55.7873 95.24 61.8745 92.8878 67.5539C90.5355 73.2334 87.0875 78.3938 82.7407 82.7406C78.3939 87.0874 73.2335 90.5354 67.554 92.8877C61.8746 95.2399 55.7874 96.4504 49.6401 96.45V96.45Z" fill="url(#paint0_linear_1112_461)"/>
<path fill-rule="evenodd" clip-rule="evenodd" d="M95.54 49.64C95.54 58.7182 92.848 67.5925 87.8045 75.1407C82.7609 82.6889 75.5923 88.572 67.2052 92.0461C58.818 95.5201 49.5891 96.4291 40.6854 94.658C31.7816 92.887 23.603 88.5154 17.1838 82.0962C10.7646 75.677 6.39302 67.4984 4.62196 58.5946C2.85089 49.6909 3.75987 40.462 7.23393 32.0748C10.708 23.6877 16.5911 16.5191 24.1393 11.4755C31.6875 6.43199 40.5618 3.74 49.64 3.74C55.6677 3.73998 61.6363 4.9272 67.2052 7.23388C72.774 9.54057 77.834 12.9215 82.0963 17.1837C86.3585 21.446 89.7394 26.5059 92.0461 32.0748C94.3528 37.6437 95.54 43.6123 95.54 49.64V49.64ZM49.64 3.62732e-07C59.4579 3.62732e-07 69.0553 2.91134 77.2185 8.36585C85.3818 13.8204 91.7442 21.5731 95.5014 30.6436C99.2585 39.7141 100.242 49.6951 98.3262 59.3243C96.4108 68.9535 91.6831 77.7985 84.7408 84.7408C77.7985 91.6831 68.9535 96.4108 59.3243 98.3262C49.6951 100.242 39.7141 99.2585 30.6436 95.5014C21.5731 91.7442 13.8204 85.3818 8.36585 77.2185C2.91134 69.0553 3.62732e-07 59.4579 3.62732e-07 49.64C-0.000787738 43.121 1.28265 36.6656 3.77702 30.6427C6.27138 24.6197 9.9278 19.1471 14.5375 14.5375C19.1471 9.9278 24.6197 6.27138 30.6427 3.77702C36.6656 1.28265 43.121 -0.000787738 49.64 3.62732e-07V3.62732e-07Z" fill="#F2F1F0"/>
<path fill-rule="evenodd" clip-rule="evenodd" d="M92.7296 49.6401C92.7296 58.1625 90.2024 66.4935 85.4676 73.5796C80.7328 80.6657 74.0031 86.1887 66.1294 89.4501C58.2557 92.7114 49.5918 93.5648 41.2331 91.9021C32.8745 90.2395 25.1966 86.1356 19.1703 80.1093C13.1441 74.0831 9.04017 66.4052 7.37753 58.0465C5.7149 49.6879 6.56822 41.0239 9.8296 33.1503C13.091 25.2766 18.6139 18.5469 25.7 13.8121C32.7862 9.07727 41.1172 6.55009 49.6396 6.55009C55.2983 6.54974 60.9017 7.66407 66.1298 9.82942C71.3579 11.9948 76.1082 15.1687 80.1096 19.1701C84.1109 23.1714 87.2849 27.9218 89.4502 33.1499C91.6156 38.3779 92.7299 43.9813 92.7296 49.6401V49.6401ZM49.6396 2.81009C58.9017 2.81009 67.9558 5.55662 75.6569 10.7024C83.3581 15.8481 89.3604 23.162 92.9049 31.719C96.4493 40.2761 97.3767 49.692 95.5697 58.7762C93.7628 67.8603 89.3027 76.2046 82.7534 82.7539C76.2041 89.3032 67.8598 93.7633 58.7757 95.5703C49.6915 97.3772 40.2756 96.4498 31.7185 92.9054C23.1614 89.3609 15.8476 83.3586 10.7018 75.6574C5.5561 67.9563 2.80957 58.9022 2.80957 49.6401C2.81076 37.2204 7.745 25.3097 16.5271 16.5276C25.3091 7.7455 37.2198 2.81125 49.6396 2.81006V2.81009Z" fill="#0078D4"/>
<path fill-rule="evenodd" clip-rule="evenodd" d="M92.7637 49.6401C92.7637 58.1625 90.2366 66.4935 85.5018 73.5796C80.767 80.6657 74.0372 86.1887 66.1636 89.4501C58.2899 92.7114 49.6259 93.5648 41.2673 91.9021C32.9087 90.2395 25.2308 86.1356 19.2045 80.1093C13.1783 74.0831 9.07435 66.4052 7.41171 58.0465C5.74908 49.6879 6.6024 41.0239 9.86378 33.1503C13.1252 25.2766 18.6481 18.5469 25.7342 13.8121C32.8203 9.07727 41.1514 6.55009 49.6738 6.55009C55.3325 6.54974 60.9359 7.66407 66.164 9.82942C71.3921 11.9948 76.1424 15.1687 80.1437 19.1701C84.1451 23.1714 87.3191 27.9218 89.4844 33.1499C91.6498 38.3779 92.7641 43.9813 92.7637 49.6401V49.6401ZM49.6738 2.81009C58.9359 2.81009 67.9899 5.55662 75.6911 10.7024C83.3923 15.8481 89.3946 23.162 92.939 31.719C96.4835 40.2761 97.4109 49.692 95.6039 58.7762C93.797 67.8603 89.3369 76.2046 82.7876 82.7539C76.2383 89.3032 67.894 93.7633 58.8098 95.5703C49.7257 97.3772 40.3097 96.4498 31.7527 92.9054C23.1956 89.3609 15.8818 83.3586 10.736 75.6574C5.59028 67.9563 2.84375 58.9022 2.84375 49.6401C2.84494 37.2204 7.77918 25.3097 16.5612 16.5276C25.3433 7.7455 37.254 2.81125 49.6738 2.81006V2.81009Z" fill="#0078D4"/>
<path d="M44.4347 80.2976H31.823V52.2293C31.823 51.8105 32.0248 51.4707 32.2734 51.4707H43.9843C44.2329 51.4707 44.4347 51.8105 44.4347 52.2293V80.2976Z" fill="url(#paint1_linear_1112_461)"/>
<path d="M31.823 50.8701H44.4347C44.594 50.8701 44.7467 50.9334 44.8594 51.046C44.972 51.1586 45.0353 51.3114 45.0353 51.4707C45.0353 51.6299 44.972 51.7827 44.8594 51.8953C44.7467 52.008 44.594 52.0712 44.4347 52.0712H31.823C31.6637 52.0712 31.5109 52.008 31.3983 51.8953C31.2857 51.7827 31.2224 51.6299 31.2224 51.4707C31.2224 51.3114 31.2857 51.1586 31.3983 51.046C31.5109 50.9334 31.6637 50.8701 31.823 50.8701Z" fill="url(#paint2_linear_1112_461)"/>
<path d="M67.4562 80.2976H54.8445V52.2293C54.8445 51.8105 55.0463 51.4707 55.2949 51.4707H67.0058C67.2544 51.4707 67.4562 51.8105 67.4562 52.2293V80.2976Z" fill="url(#paint3_linear_1112_461)"/>
<path d="M54.8445 50.8701H67.4562C67.6155 50.8701 67.7682 50.9334 67.8809 51.046C67.9935 51.1586 68.0568 51.3114 68.0568 51.4707C68.0568 51.6299 67.9935 51.7827 67.8809 51.8953C67.7682 52.008 67.6155 52.0712 67.4562 52.0712H54.8445C54.6852 52.0712 54.5324 52.008 54.4198 51.8953C54.3072 51.7827 54.2439 51.6299 54.2439 51.4707C54.2439 51.3114 54.3072 51.1586 54.4198 51.046C54.5324 50.9334 54.6852 50.8701 54.8445 50.8701Z" fill="url(#paint4_linear_1112_461)"/>
<path opacity="0.2" d="M60.4523 50.8701H38.8301V80.2975H60.4523V50.8701Z" fill="#003067"/>
<path d="M58.7826 80.2976H40.4993V39.6068C40.4993 38.9997 40.7918 38.507 41.1523 38.507H58.1296C58.4901 38.507 58.7826 38.9997 58.7826 39.6068L58.7826 80.2976Z" fill="white"/>
<path d="M47.6093 62.0142H44.7072C44.5187 62.0179 44.3364 61.9467 44.2003 61.8161C44.0643 61.6855 43.9857 61.5062 43.9817 61.3177V59.2282C43.9857 59.0397 44.0643 58.8604 44.2003 58.7299C44.3364 58.5993 44.5187 58.528 44.7072 58.5317H47.6093C47.7978 58.528 47.9801 58.5993 48.1161 58.7298C48.2522 58.8604 48.3309 59.0397 48.3349 59.2282V61.3177C48.3309 61.5063 48.2522 61.6855 48.1161 61.8161C47.9801 61.9467 47.7978 62.0179 47.6093 62.0142V62.0142Z" fill="#0078D4"/>
<path d="M54.5753 62.0142H51.6733C51.4847 62.0179 51.3024 61.9467 51.1664 61.8161C51.0304 61.6855 50.9517 61.5062 50.9478 61.3177V59.2282C50.9517 59.0397 51.0304 58.8604 51.1664 58.7299C51.3024 58.5993 51.4847 58.528 51.6733 58.5317H54.5753C54.7639 58.528 54.9462 58.5993 55.0822 58.7298C55.2183 58.8604 55.2969 59.0397 55.3009 59.2282V61.3177C55.2969 61.5063 55.2183 61.6855 55.0822 61.8161C54.9462 61.9467 54.7639 62.0179 54.5753 62.0142V62.0142Z" fill="#0078D4"/>
<path d="M47.6093 67.238H44.7072C44.5187 67.2417 44.3364 67.1704 44.2003 67.0398C44.0643 66.9093 43.9857 66.73 43.9817 66.5415V64.452C43.9857 64.2635 44.0643 64.0842 44.2003 63.9537C44.3364 63.8231 44.5187 63.7518 44.7072 63.7555H47.6093C47.7978 63.7518 47.9801 63.8231 48.1162 63.9536C48.2522 64.0842 48.3309 64.2635 48.3349 64.452V66.5415C48.3308 66.73 48.2522 66.9093 48.1161 67.0399C47.9801 67.1704 47.7978 67.2417 47.6093 67.238V67.238Z" fill="#0078D4"/>
<path d="M54.5753 67.238H51.6733C51.4847 67.2417 51.3024 67.1704 51.1664 67.0398C51.0304 66.9093 50.9517 66.73 50.9478 66.5415V64.452C50.9517 64.2635 51.0304 64.0842 51.1664 63.9537C51.3024 63.8231 51.4847 63.7518 51.6733 63.7555H54.5753C54.7639 63.7518 54.9462 63.8231 55.0822 63.9536C55.2183 64.0842 55.2969 64.2635 55.3009 64.452V66.5415C55.2969 66.73 55.2182 66.9093 55.0822 67.0399C54.9462 67.1704 54.7639 67.2417 54.5753 67.238V67.238Z" fill="#0078D4"/>
<path d="M47.6093 72.4618H44.7072C44.5187 72.4655 44.3364 72.3943 44.2003 72.2637C44.0643 72.1331 43.9857 71.9539 43.9817 71.7653V69.6758C43.9857 69.4873 44.0643 69.3081 44.2003 69.1775C44.3364 69.0469 44.5187 68.9756 44.7072 68.9793H47.6093C47.7978 68.9756 47.9801 69.0469 48.1161 69.1775C48.2522 69.308 48.3309 69.4873 48.3349 69.6758V71.7653C48.3309 71.9539 48.2522 72.1331 48.1161 72.2637C47.9801 72.3943 47.7978 72.4655 47.6093 72.4618V72.4618Z" fill="#0078D4"/>
<path d="M54.5753 72.4618H51.6733C51.4847 72.4655 51.3024 72.3943 51.1664 72.2637C51.0304 72.1331 50.9517 71.9539 50.9478 71.7653V69.6758C50.9517 69.4873 51.0304 69.3081 51.1664 69.1775C51.3024 69.0469 51.4847 68.9756 51.6733 68.9793H54.5753C54.7639 68.9756 54.9462 69.0469 55.0822 69.1775C55.2183 69.308 55.2969 69.4873 55.3009 69.6758V71.7653C55.2969 71.9539 55.2183 72.1331 55.0822 72.2637C54.9462 72.3943 54.7639 72.4655 54.5753 72.4618V72.4618Z" fill="#0078D4"/>
<path d="M40.4993 37.6364H58.7826C59.0135 37.6364 59.235 37.7281 59.3982 37.8914C59.5615 38.0547 59.6533 38.2762 59.6533 38.5071C59.6532 38.738 59.5615 38.9594 59.3982 39.1227C59.235 39.286 59.0135 39.3777 58.7826 39.3777H40.4993C40.2684 39.3777 40.0469 39.286 39.8837 39.1227C39.7204 38.9594 39.6287 38.738 39.6287 38.5071C39.6287 38.3927 39.6512 38.2795 39.6949 38.1739C39.7387 38.0683 39.8028 37.9723 39.8837 37.8914C39.9645 37.8106 40.0605 37.7464 40.1661 37.7027C40.2717 37.6589 40.385 37.6364 40.4993 37.6364Z" fill="#003067"/>
<path d="M49.3264 49.071H44.9197V44.6642H49.3264V49.071ZM54.3627 49.071H49.956V44.6642H54.3627L54.3627 49.071ZM49.3264 54.1073H44.9197V49.7005H49.3264V54.1073ZM54.3627 54.1073H49.956V49.7005H54.3627L54.3627 54.1073Z" fill="#0078D4"/>
<path d="M22.7032 39.99C22.2835 39.9895 21.8811 39.8225 21.5842 39.5256C21.2874 39.2288 21.1204 38.8264 21.1199 38.4066V26.6345C21.1204 26.2147 21.2874 25.8123 21.5842 25.5155C21.8811 25.2187 22.2835 25.0517 22.7032 25.0511H34.4831C34.901 25.0555 35.3004 25.2239 35.5953 25.5201C35.8902 25.8163 36.0568 26.2166 36.0593 26.6345V38.4066C36.0576 38.8223 35.8932 39.2209 35.6012 39.5169C35.3093 39.8128 34.913 39.9827 34.4973 39.99H22.7032Z" fill="white"/>
<path d="M26.6618 35.0902H30.5163V38.9448H26.6618V35.0902ZM22.1648 29.9508H26.0193V26.0963H22.7029C22.5602 26.0963 22.4234 26.153 22.3225 26.2539C22.2216 26.3548 22.1649 26.4916 22.1649 26.6343L22.1648 29.9508ZM22.7028 38.9448H26.0193V35.0902H22.1648V38.4067C22.1648 38.5494 22.2215 38.6863 22.3224 38.7872C22.4233 38.8881 22.5601 38.9447 22.7028 38.9447L22.7028 38.9448ZM22.1648 34.4478H26.0193V30.5933H22.1648L22.1648 34.4478ZM31.1587 38.9448H34.4833C34.6246 38.9427 34.7594 38.8851 34.8585 38.7844C34.9577 38.6837 35.0133 38.5481 35.0133 38.4068V35.0902H31.1588L31.1587 38.9448ZM26.6617 34.4478H30.5163V30.5933H26.6618L26.6617 34.4478ZM31.1587 34.4478H35.0133V30.5933H31.1588L31.1587 34.4478ZM31.1587 26.0963V29.9508H35.0133V26.6343C35.0133 26.493 34.9577 26.3574 34.8585 26.2567C34.7594 26.156 34.6246 26.0984 34.4833 26.0963L31.1587 26.0963ZM26.6617 29.9508H30.5163V26.0963H26.6618L26.6617 29.9508Z" fill="url(#paint5_linear_1112_461)"/>
<path d="M64.6215 39.99C64.2017 39.9895 63.7993 39.8225 63.5025 39.5256C63.2056 39.2288 63.0386 38.8264 63.0381 38.4066V26.6345C63.0386 26.2147 63.2056 25.8123 63.5025 25.5155C63.7993 25.2187 64.2017 25.0517 64.6215 25.0511H76.4012C76.8192 25.0555 77.2186 25.2239 77.5135 25.5201C77.8083 25.8163 77.975 26.2166 77.9775 26.6345V38.4066C77.9758 38.8223 77.8114 39.2209 77.5194 39.5169C77.2275 39.8128 76.8312 39.9827 76.4155 39.99H64.6215Z" fill="white"/>
<path d="M68.5803 35.0902H72.4348V38.9448H68.5803V35.0902ZM64.0833 29.9508H67.9378V26.0963H64.6213C64.4786 26.0963 64.3418 26.153 64.2409 26.2539C64.14 26.3548 64.0833 26.4916 64.0833 26.6343L64.0833 29.9508ZM64.6213 38.9448H67.9378V35.0902H64.0833V38.4067C64.0833 38.5494 64.14 38.6863 64.2409 38.7872C64.3418 38.8881 64.4786 38.9447 64.6213 38.9447L64.6213 38.9448ZM64.0833 34.4478H67.9378V30.5933H64.0833L64.0833 34.4478ZM73.0772 38.9448H76.4017C76.543 38.9427 76.6778 38.8851 76.777 38.7844C76.8762 38.6837 76.9317 38.5481 76.9317 38.4068V35.0902H73.0772L73.0772 38.9448ZM68.5802 34.4478H72.4347V30.5933H68.5803L68.5802 34.4478ZM73.0772 34.4478H76.9317V30.5933H73.0772L73.0772 34.4478ZM73.0772 26.0963V29.9508H76.9317V26.6343C76.9317 26.493 76.8762 26.3574 76.777 26.2567C76.6778 26.156 76.543 26.0984 76.4017 26.0963L73.0772 26.0963ZM68.5802 29.9508H72.4347V26.0963H68.5803L68.5802 29.9508Z" fill="url(#paint6_linear_1112_461)"/>
<path d="M28.5891 41.9895V43.3779C28.5891 43.9253 28.8065 44.4502 29.1936 44.8373C29.5806 45.2243 30.1056 45.4418 30.6529 45.4418H34.8707C35.4181 45.4418 35.943 45.6592 36.3301 46.0463C36.7171 46.4333 36.9346 46.9583 36.9346 47.5056V48.371" stroke="white" stroke-width="0.5" stroke-miterlimit="10"/>
<path d="M70.5078 41.9895V43.3779C70.5078 43.9253 70.2904 44.4502 69.9034 44.8373C69.5163 45.2243 68.9914 45.4418 68.444 45.4418H64.2262C63.6788 45.4418 63.1539 45.6592 62.7668 46.0463C62.3798 46.4333 62.1624 46.9583 62.1624 47.5056V48.371" stroke="white" stroke-width="0.5" stroke-miterlimit="10"/>
</g>
<defs>
<linearGradient id="paint0_linear_1112_461" x1="47.8697" y1="-15.1531" x2="51.8525" y2="130.615" gradientUnits="userSpaceOnUse">
<stop stop-color="#00ABDE"/>
<stop offset="1" stop-color="#007ED8"/>
</linearGradient>
<linearGradient id="paint1_linear_1112_461" x1="38.1289" y1="80.2976" x2="38.1289" y2="51.4707" gradientUnits="userSpaceOnUse">
<stop offset="0.00121" stop-color="#C3F1FF"/>
<stop offset="1" stop-color="#50E6FF"/>
</linearGradient>
<linearGradient id="paint2_linear_1112_461" x1="38.1288" y1="52.0281" x2="38.1288" y2="50.8963" gradientUnits="userSpaceOnUse">
<stop stop-color="white"/>
<stop offset="0.56" stop-color="#FBFBFB"/>
<stop offset="1" stop-color="#F2F2F2"/>
</linearGradient>
<linearGradient id="paint3_linear_1112_461" x1="61.1504" y1="80.2976" x2="61.1504" y2="51.4707" gradientUnits="userSpaceOnUse">
<stop stop-color="#008BF1"/>
<stop offset="0.22" stop-color="#0086EC"/>
<stop offset="0.49" stop-color="#0078DD"/>
<stop offset="0.79" stop-color="#0061C4"/>
<stop offset="1" stop-color="#004DAE"/>
</linearGradient>
<linearGradient id="paint4_linear_1112_461" x1="38.1289" y1="52.0281" x2="38.1289" y2="50.8963" gradientUnits="userSpaceOnUse">
<stop stop-color="white"/>
<stop offset="0.56" stop-color="#FBFBFB"/>
<stop offset="1" stop-color="#F2F2F2"/>
</linearGradient>
<linearGradient id="paint5_linear_1112_461" x1="28.5891" y1="38.9448" x2="28.5891" y2="26.0963" gradientUnits="userSpaceOnUse">
<stop stop-color="#50E6FF"/>
<stop offset="0.99879" stop-color="#C3F1FF"/>
</linearGradient>
<linearGradient id="paint6_linear_1112_461" x1="70.5075" y1="38.9448" x2="70.5075" y2="26.0963" gradientUnits="userSpaceOnUse">
<stop stop-color="#004DAE"/>
<stop offset="0.21" stop-color="#0061C4"/>
<stop offset="0.51" stop-color="#0078DD"/>
<stop offset="0.78" stop-color="#0086EC"/>
<stop offset="1" stop-color="#008BF1"/>
</linearGradient>
<clipPath id="clip0_1112_461">
<rect width="99.2799" height="99.28" fill="white"/>
</clipPath>
</defs>
</svg>
