<svg width="100" height="100" viewBox="0 0 100 100" fill="none" xmlns="https://www.w3.org/2000/svg">
<g clip-path="url(#clip0)">
<path d="M49.6401 96.4481C40.382 96.4481 31.3317 93.7028 23.6339 88.5592C15.936 83.4157 9.93624 76.105 6.3933 67.5516C2.85036 58.9981 1.92337 49.5862 3.72954 40.506C5.53571 31.4257 9.99394 23.085 16.5404 16.5385C23.0869 9.99198 31.4277 5.53376 40.5079 3.72759C49.5882 1.92141 59.0001 2.84841 67.5535 6.39135C76.1069 9.93428 83.4176 15.934 88.5612 23.6319C93.7047 31.3298 96.4501 40.38 96.4501 49.6381C96.4505 55.7854 95.24 61.8726 92.8878 67.5521C90.5355 73.2315 87.0875 78.392 82.7407 82.7388C78.3939 87.0856 73.2335 90.5335 67.554 92.8858C61.8746 95.2381 55.7874 96.4486 49.6401 96.4481V96.4481Z" fill="url(#paint0_linear)"/>
<path fill-rule="evenodd" clip-rule="evenodd" d="M95.54 49.64C95.54 58.7182 92.848 67.5925 87.8045 75.1407C82.7609 82.6889 75.5923 88.572 67.2052 92.0461C58.818 95.5201 49.5891 96.4291 40.6854 94.658C31.7816 92.887 23.603 88.5154 17.1838 82.0962C10.7646 75.677 6.39302 67.4984 4.62196 58.5946C2.85089 49.6909 3.75987 40.462 7.23393 32.0748C10.708 23.6877 16.5911 16.5191 24.1393 11.4755C31.6875 6.43199 40.5618 3.74 49.64 3.74C55.6677 3.73998 61.6363 4.9272 67.2052 7.23388C72.774 9.54057 77.834 12.9215 82.0963 17.1837C86.3585 21.446 89.7394 26.5059 92.0461 32.0748C94.3528 37.6437 95.54 43.6123 95.54 49.64V49.64ZM49.64 3.62732e-07C59.4579 3.62732e-07 69.0553 2.91134 77.2185 8.36585C85.3818 13.8204 91.7442 21.5731 95.5014 30.6436C99.2585 39.7141 100.242 49.6951 98.3262 59.3243C96.4108 68.9535 91.6831 77.7985 84.7408 84.7408C77.7985 91.6831 68.9535 96.4108 59.3243 98.3262C49.6951 100.242 39.7141 99.2585 30.6436 95.5014C21.5731 91.7442 13.8204 85.3818 8.36585 77.2185C2.91134 69.0553 3.62732e-07 59.4579 3.62732e-07 49.64C-0.000787738 43.121 1.28265 36.6656 3.77702 30.6427C6.27138 24.6197 9.9278 19.1471 14.5375 14.5375C19.1471 9.9278 24.6197 6.27138 30.6427 3.77702C36.6656 1.28265 43.121 -0.000787738 49.64 3.62732e-07V3.62732e-07Z" fill="#F2F1F0"/>
<path fill-rule="evenodd" clip-rule="evenodd" d="M92.7296 49.6386C92.7296 58.161 90.2024 66.492 85.4676 73.5781C80.7328 80.6643 74.0031 86.1872 66.1294 89.4486C58.2557 92.71 49.5918 93.5633 41.2331 91.9007C32.8745 90.238 25.1966 86.1341 19.1703 80.1079C13.1441 74.0816 9.04017 66.4037 7.37753 58.0451C5.7149 49.6864 6.56822 41.0225 9.8296 33.1488C13.091 25.2751 18.6139 18.5454 25.7 13.8106C32.7862 9.07581 41.1172 6.54862 49.6396 6.54862C55.2983 6.54828 60.9017 7.6626 66.1298 9.82795C71.3579 11.9933 76.1082 15.1673 80.1096 19.1686C84.1109 23.17 87.2849 27.9203 89.4502 33.1484C91.6156 38.3765 92.7299 43.9799 92.7296 49.6386V49.6386ZM49.6396 2.80862C58.9017 2.80862 67.9558 5.55515 75.6569 10.7009C83.3581 15.8466 89.3604 23.1605 92.9049 31.7176C96.4493 40.2746 97.3767 49.6906 95.5697 58.7747C93.7628 67.8588 89.3027 76.2031 82.7534 82.7524C76.2041 89.3017 67.8598 93.7619 58.7757 95.5688C49.6915 97.3757 40.2756 96.4484 31.7185 92.9039C23.1614 89.3594 15.8476 83.3571 10.7018 75.656C5.5561 67.9548 2.80957 58.9007 2.80957 49.6386C2.81076 37.2189 7.745 25.3082 16.5271 16.5261C25.3091 7.74403 37.2198 2.80979 49.6396 2.80859V2.80862Z" fill="#0078D4"/>
<path fill-rule="evenodd" clip-rule="evenodd" d="M92.7296 49.6386C92.7296 58.161 90.2024 66.492 85.4676 73.5781C80.7328 80.6642 74.0031 86.1872 66.1294 89.4486C58.2557 92.7099 49.5918 93.5633 41.2331 91.9006C32.8745 90.238 25.1966 86.1341 19.1703 80.1078C13.1441 74.0816 9.04017 66.4037 7.37753 58.045C5.7149 49.6864 6.56822 41.0224 9.8296 33.1488C13.091 25.2751 18.6139 18.5454 25.7001 13.8106C32.7862 9.07578 41.1172 6.54859 49.6396 6.54859C55.2983 6.54825 60.9017 7.66257 66.1298 9.82792C71.3579 11.9933 76.1082 15.1673 80.1096 19.1686C84.1109 23.1699 87.2849 27.9203 89.4502 33.1484C91.6156 38.3764 92.7299 43.9798 92.7296 49.6386V49.6386ZM49.6396 2.80859C58.9017 2.80859 67.9558 5.55513 75.6569 10.7009C83.3581 15.8466 89.3604 23.1605 92.9048 31.7175C96.4493 40.2746 97.3767 49.6905 95.5697 58.7747C93.7628 67.8588 89.3027 76.2031 82.7534 82.7524C76.2041 89.3017 67.8598 93.7618 58.7757 95.5688C49.6915 97.3757 40.2756 96.4483 31.7185 92.9039C23.1614 89.3594 15.8476 83.3571 10.7018 75.656C5.5561 67.9548 2.80957 58.9007 2.80957 49.6386C2.81076 37.2189 7.74501 25.3082 16.5271 16.5261C25.3091 7.74403 37.2198 2.80979 49.6396 2.80859V2.80859Z" fill="#0078D4"/>
<path fill-rule="evenodd" clip-rule="evenodd" d="M23.8189 29.043C22.7017 29.0462 21.6312 29.4915 20.8413 30.2815C20.0513 31.0714 19.606 32.1419 19.6028 33.2591V62.7719H74.4123V33.2591C74.4091 32.1419 73.9638 31.0715 73.1738 30.2815C72.3839 29.4915 71.3134 29.0463 70.1962 29.043L23.8189 29.043ZM70.1962 31.151C70.7551 31.1518 71.2908 31.3741 71.686 31.7693C72.0812 32.1645 72.3035 32.7003 72.3043 33.2591V60.6639H21.7108V33.2591C21.7114 32.7002 21.9337 32.1643 22.3289 31.7691C22.7241 31.3739 23.26 31.1516 23.8189 31.1511L70.1962 31.151Z" fill="#1F56A3"/>
<path fill-rule="evenodd" clip-rule="evenodd" d="M21.7107 33.2604C21.7113 32.7015 21.9335 32.1656 22.3288 31.7704C22.724 31.3752 23.2598 31.1529 23.8188 31.1523H70.1961C70.7549 31.1531 71.2907 31.3754 71.6859 31.7706C72.081 32.1658 72.3034 32.7015 72.3041 33.2604V60.6651H21.7107V33.2604Z" fill="#0078D4"/>
<path d="M69.7988 33.6562H24.2153V58.1591H69.7988V33.6562Z" fill="#1B93EB"/>
<path d="M34.9883 34.6562H25.7666C25.4621 34.6562 25.2153 34.903 25.2153 35.2075V56.608C25.2153 56.9124 25.4621 57.1592 25.7666 57.1592H34.9883C35.2928 57.1592 35.5396 56.9124 35.5396 56.608V35.2075C35.5396 34.903 35.2928 34.6562 34.9883 34.6562Z" fill="#0078D4"/>
<path opacity="0.2" d="M46.0555 34.6562H36.8337C36.5293 34.6562 36.2825 34.903 36.2825 35.2075V56.608C36.2825 56.9124 36.5293 57.1592 36.8337 57.1592H46.0555C46.3599 57.1592 46.6067 56.9124 46.6067 56.608V35.2075C46.6067 34.903 46.3599 34.6562 46.0555 34.6562Z" fill="#1F56A3"/>
<path d="M46.0555 33.1016H36.8337C36.5293 33.1016 36.2825 33.3484 36.2825 33.6528V55.0533C36.2825 55.3577 36.5293 55.6045 36.8337 55.6045H46.0555C46.3599 55.6045 46.6067 55.3577 46.6067 55.0533V33.6528C46.6067 33.3484 46.3599 33.1016 46.0555 33.1016Z" fill="white"/>
<path d="M57.1226 34.6562H47.9008C47.5964 34.6562 47.3496 34.903 47.3496 35.2075V56.608C47.3496 56.9124 47.5964 57.1592 47.9008 57.1592H57.1226C57.427 57.1592 57.6738 56.9124 57.6738 56.608V35.2075C57.6738 34.903 57.427 34.6562 57.1226 34.6562Z" fill="#0078D4"/>
<path d="M68.1897 34.6562H58.968C58.6635 34.6562 58.4167 34.903 58.4167 35.2075V56.608C58.4167 56.9124 58.6635 57.1592 58.968 57.1592H68.1897C68.4942 57.1592 68.741 56.9124 68.741 56.608V35.2075C68.741 34.903 68.4942 34.6562 68.1897 34.6562Z" fill="#0078D4"/>
<path fill-rule="evenodd" clip-rule="evenodd" d="M13.2786 62.7734V63.8274C13.2818 64.9446 13.7271 66.0151 14.5171 66.8051C15.307 67.595 16.3775 68.0403 17.4947 68.0435H76.5203C77.6375 68.0403 78.708 67.595 79.498 66.8051C80.2879 66.0151 80.7332 64.9446 80.7365 63.8274V62.7734H13.2786Z" fill="#0078D4"/>
<path fill-rule="evenodd" clip-rule="evenodd" d="M44.8989 65.9355H13.8672C14.2347 66.5733 14.7629 67.1036 15.3993 67.4735C16.0358 67.8434 16.758 68.0399 17.4941 68.0435H76.5198C77.6369 68.0402 78.7074 67.595 79.4974 66.805C80.2874 66.0151 80.7326 64.9446 80.7359 63.8274V62.7734H47.0069V63.8274C47.007 64.1043 46.9525 64.3784 46.8466 64.6342C46.7407 64.89 46.5854 65.1224 46.3897 65.3182C46.1939 65.514 45.9615 65.6692 45.7057 65.7752C45.4499 65.8811 45.1758 65.9356 44.8989 65.9355V65.9355Z" fill="#1F56A3"/>
<path fill-rule="evenodd" clip-rule="evenodd" d="M42.7914 64.8815H51.2236C51.7827 64.8813 52.3187 64.6591 52.714 64.2638C53.1093 63.8685 53.3315 63.3325 53.3317 62.7734H40.6833C40.6834 63.3325 40.9055 63.8687 41.3008 64.264C41.6961 64.6594 42.2323 64.8815 42.7914 64.8815Z" fill="#003067"/>
<path d="M44.0931 35.3125H38.7958C38.669 35.3125 38.5662 35.4153 38.5662 35.5421V40.8395C38.5662 40.9663 38.669 41.0691 38.7958 41.0691H44.0931C44.2199 41.0691 44.3228 40.9663 44.3228 40.8395V35.5421C44.3228 35.4153 44.2199 35.3125 44.0931 35.3125Z" fill="#0078D4"/>
<path d="M39.183 45.0228C39.5237 45.0228 39.7999 44.7466 39.7999 44.4059C39.7999 44.0652 39.5237 43.7891 39.183 43.7891C38.8424 43.7891 38.5662 44.0652 38.5662 44.4059C38.5662 44.7466 38.8424 45.0228 39.183 45.0228Z" fill="#9CEBFF"/>
<path d="M39.183 47.2963C39.5237 47.2963 39.7999 47.0201 39.7999 46.6794C39.7999 46.3387 39.5237 46.0625 39.183 46.0625C38.8424 46.0625 38.5662 46.3387 38.5662 46.6794C38.5662 47.0201 38.8424 47.2963 39.183 47.2963Z" fill="#9CEBFF"/>
<path d="M39.183 49.5697C39.5237 49.5697 39.7999 49.2935 39.7999 48.9528C39.7999 48.6121 39.5237 48.3359 39.183 48.3359C38.8424 48.3359 38.5662 48.6121 38.5662 48.9528C38.5662 49.2935 38.8424 49.5697 39.183 49.5697Z" fill="#9CEBFF"/>
<path d="M39.183 51.8431C39.5237 51.8431 39.7999 51.567 39.7999 51.2263C39.7999 50.8856 39.5237 50.6094 39.183 50.6094C38.8424 50.6094 38.5662 50.8856 38.5662 51.2263C38.5662 51.567 38.8424 51.8431 39.183 51.8431Z" fill="#9CEBFF"/>
<path d="M44.3228 44.1055H40.6831V44.6055H44.3228V44.1055Z" fill="#9CEBFF"/>
<path d="M44.3228 46.4297H40.6831V46.9297H44.3228V46.4297Z" fill="#9CEBFF"/>
<path d="M44.3228 48.7539H40.6831V49.2539H44.3228V48.7539Z" fill="#9CEBFF"/>
<path d="M44.3228 51.0781H40.6831V51.5781H44.3228V51.0781Z" fill="#9CEBFF"/>
<path d="M33.026 36.7578H27.7287C27.6018 36.7578 27.499 36.8606 27.499 36.9874V42.2848C27.499 42.4116 27.6018 42.5144 27.7287 42.5144H33.026C33.1528 42.5144 33.2556 42.4116 33.2556 42.2848V36.9874C33.2556 36.8606 33.1528 36.7578 33.026 36.7578Z" fill="#1490DF"/>
<path d="M28.1159 46.472C28.4566 46.472 28.7328 46.1959 28.7328 45.8552C28.7328 45.5145 28.4566 45.2383 28.1159 45.2383C27.7752 45.2383 27.499 45.5145 27.499 45.8552C27.499 46.1959 27.7752 46.472 28.1159 46.472Z" fill="#1490DF"/>
<path d="M28.1159 48.7416C28.4566 48.7416 28.7328 48.4654 28.7328 48.1247C28.7328 47.784 28.4566 47.5078 28.1159 47.5078C27.7752 47.5078 27.499 47.784 27.499 48.1247C27.499 48.4654 27.7752 48.7416 28.1159 48.7416Z" fill="#1490DF"/>
<path d="M28.1159 51.015C28.4566 51.015 28.7328 50.7388 28.7328 50.3981C28.7328 50.0574 28.4566 49.7812 28.1159 49.7812C27.7752 49.7812 27.499 50.0574 27.499 50.3981C27.499 50.7388 27.7752 51.015 28.1159 51.015Z" fill="#1490DF"/>
<path d="M28.1159 53.2884C28.4566 53.2884 28.7328 53.0123 28.7328 52.6716C28.7328 52.3309 28.4566 52.0547 28.1159 52.0547C27.7752 52.0547 27.499 52.3309 27.499 52.6716C27.499 53.0123 27.7752 53.2884 28.1159 53.2884Z" fill="#1490DF"/>
<path d="M33.2554 45.5508H29.6157V46.0508H33.2554V45.5508Z" fill="#1490DF"/>
<path d="M33.2554 47.875H29.6157V48.375H33.2554V47.875Z" fill="#1490DF"/>
<path d="M33.2554 50.2031H29.6157V50.7031H33.2554V50.2031Z" fill="#1490DF"/>
<path d="M33.2554 52.5273H29.6157V53.0273H33.2554V52.5273Z" fill="#1490DF"/>
<path d="M55.1605 36.7578H49.8632C49.7364 36.7578 49.6335 36.8606 49.6335 36.9874V42.2848C49.6335 42.4116 49.7364 42.5144 49.8632 42.5144H55.1605C55.2873 42.5144 55.3901 42.4116 55.3901 42.2848V36.9874C55.3901 36.8606 55.2873 36.7578 55.1605 36.7578Z" fill="#1490DF"/>
<path d="M50.2504 46.472C50.5911 46.472 50.8673 46.1959 50.8673 45.8552C50.8673 45.5145 50.5911 45.2383 50.2504 45.2383C49.9097 45.2383 49.6335 45.5145 49.6335 45.8552C49.6335 46.1959 49.9097 46.472 50.2504 46.472Z" fill="#1490DF"/>
<path d="M50.2504 48.7416C50.5911 48.7416 50.8673 48.4654 50.8673 48.1247C50.8673 47.784 50.5911 47.5078 50.2504 47.5078C49.9097 47.5078 49.6335 47.784 49.6335 48.1247C49.6335 48.4654 49.9097 48.7416 50.2504 48.7416Z" fill="#1490DF"/>
<path d="M50.2504 51.015C50.5911 51.015 50.8673 50.7388 50.8673 50.3981C50.8673 50.0574 50.5911 49.7812 50.2504 49.7812C49.9097 49.7812 49.6335 50.0574 49.6335 50.3981C49.6335 50.7388 49.9097 51.015 50.2504 51.015Z" fill="#1490DF"/>
<path d="M50.2504 53.2884C50.5911 53.2884 50.8673 53.0123 50.8673 52.6716C50.8673 52.3309 50.5911 52.0547 50.2504 52.0547C49.9097 52.0547 49.6335 52.3309 49.6335 52.6716C49.6335 53.0123 49.9097 53.2884 50.2504 53.2884Z" fill="#1490DF"/>
<path d="M55.3896 45.5508H51.75V46.0508H55.3896V45.5508Z" fill="#1490DF"/>
<path d="M55.3896 47.875H51.75V48.375H55.3896V47.875Z" fill="#1490DF"/>
<path d="M55.3896 50.2031H51.75V50.7031H55.3896V50.2031Z" fill="#1490DF"/>
<path d="M55.3896 52.5273H51.75V53.0273H55.3896V52.5273Z" fill="#1490DF"/>
<path d="M66.2276 36.7578H60.9303C60.8035 36.7578 60.7007 36.8606 60.7007 36.9874V42.2848C60.7007 42.4116 60.8035 42.5144 60.9303 42.5144H66.2276C66.3545 42.5144 66.4573 42.4116 66.4573 42.2848V36.9874C66.4573 36.8606 66.3545 36.7578 66.2276 36.7578Z" fill="#1490DF"/>
<path d="M61.3176 46.472C61.6583 46.472 61.9344 46.1959 61.9344 45.8552C61.9344 45.5145 61.6583 45.2383 61.3176 45.2383C60.9769 45.2383 60.7007 45.5145 60.7007 45.8552C60.7007 46.1959 60.9769 46.472 61.3176 46.472Z" fill="#1490DF"/>
<path d="M61.3176 48.7416C61.6583 48.7416 61.9344 48.4654 61.9344 48.1247C61.9344 47.784 61.6583 47.5078 61.3176 47.5078C60.9769 47.5078 60.7007 47.784 60.7007 48.1247C60.7007 48.4654 60.9769 48.7416 61.3176 48.7416Z" fill="#1490DF"/>
<path d="M61.3176 51.015C61.6583 51.015 61.9344 50.7388 61.9344 50.3981C61.9344 50.0574 61.6583 49.7812 61.3176 49.7812C60.9769 49.7812 60.7007 50.0574 60.7007 50.3981C60.7007 50.7388 60.9769 51.015 61.3176 51.015Z" fill="#1490DF"/>
<path d="M61.3176 53.2884C61.6583 53.2884 61.9344 53.0123 61.9344 52.6716C61.9344 52.3309 61.6583 52.0547 61.3176 52.0547C60.9769 52.0547 60.7007 52.3309 60.7007 52.6716C60.7007 53.0123 60.9769 53.2884 61.3176 53.2884Z" fill="#1490DF"/>
<path d="M66.4568 45.5508H62.8171V46.0508H66.4568V45.5508Z" fill="#1490DF"/>
<path d="M66.4568 47.875H62.8171V48.375H66.4568V47.875Z" fill="#1490DF"/>
<path d="M66.4568 50.2031H62.8171V50.7031H66.4568V50.2031Z" fill="#1490DF"/>
<path d="M66.4568 52.5273H62.8171V53.0273H66.4568V52.5273Z" fill="#1490DF"/>
<path opacity="0.2" d="M74.4122 68.0405V43.4219H65.5532C64.533 43.423 63.5549 43.8288 62.8336 44.5502C62.1122 45.2717 61.7065 46.2498 61.7056 47.27V68.0405H74.4122Z" fill="#003067"/>
<path d="M44.3895 23.3376L43.0803 22.2994C44.3102 20.7461 45.8754 19.491 47.6589 18.6281C49.4424 17.7652 51.3979 17.3168 53.3791 17.3164C55.3603 17.316 57.316 17.7637 59.0998 18.6259C60.8836 19.4881 62.4494 20.7425 63.6799 22.2953L62.3707 23.3335C61.2965 21.9782 59.9297 20.8833 58.3727 20.1308C56.8156 19.3783 55.1085 18.9876 53.3791 18.988C51.6497 18.9884 49.9428 19.3798 48.3861 20.1331C46.8294 20.8863 45.4631 21.9818 44.3895 23.3376V23.3376Z" fill="white"/>
<path d="M46.7279 23.9908L42.0766 26.7766C42.0224 26.809 41.9607 26.8266 41.8976 26.8276C41.8345 26.8287 41.7722 26.813 41.717 26.7824C41.6619 26.7517 41.6157 26.707 41.5833 26.6529C41.5509 26.5987 41.5333 26.537 41.5322 26.4739L41.4446 21.0529C41.4436 20.9898 41.4592 20.9275 41.4899 20.8723C41.5206 20.8172 41.5652 20.7711 41.6194 20.7386C41.6735 20.7062 41.7353 20.6886 41.7984 20.6875C41.8615 20.6865 41.9238 20.7021 41.9789 20.7328L46.7179 23.3681C46.7731 23.3987 46.8192 23.4434 46.8517 23.4976C46.8841 23.5517 46.9017 23.6135 46.9027 23.6766C46.9037 23.7397 46.8881 23.802 46.8574 23.8571C46.8267 23.9123 46.7821 23.9584 46.7279 23.9908V23.9908Z" fill="white"/>
<path d="M60.0357 23.991L64.6871 26.7766C64.7412 26.809 64.8029 26.8266 64.8661 26.8277C64.9292 26.8287 64.9914 26.813 65.0466 26.7824C65.1017 26.7517 65.1479 26.707 65.1803 26.6529C65.2127 26.5987 65.2303 26.537 65.2314 26.4739L65.3188 21.0529C65.3198 20.9898 65.3042 20.9275 65.2735 20.8723C65.2429 20.8172 65.1982 20.771 65.144 20.7386C65.0899 20.7062 65.0282 20.6886 64.965 20.6875C64.9019 20.6865 64.8396 20.7021 64.7845 20.7328L60.0457 23.3683C59.9905 23.3989 59.9444 23.4436 59.9119 23.4978C59.8795 23.5519 59.8619 23.6137 59.8609 23.6768C59.8599 23.7399 59.8755 23.8022 59.9062 23.8573C59.9369 23.9125 59.9815 23.9586 60.0357 23.991V23.991Z" fill="white"/>
<path fill-rule="evenodd" clip-rule="evenodd" d="M81.2622 73.1437C81.2608 73.6334 81.0656 74.1026 80.7193 74.4489C80.373 74.7952 79.9038 74.9903 79.4141 74.9918H65.5532C65.0635 74.9903 64.5942 74.7952 64.248 74.4489C63.9017 74.1026 63.7065 73.6334 63.7051 73.1437V47.27C63.7065 46.7803 63.9017 46.311 64.248 45.9648C64.5942 45.6185 65.0635 45.4233 65.5532 45.4219H79.4141C79.9038 45.4233 80.373 45.6185 80.7193 45.9648C81.0656 46.311 81.2608 46.7803 81.2622 47.27V73.1437Z" fill="#003067"/>
<path fill-rule="evenodd" clip-rule="evenodd" d="M65.0911 69.9124H79.876V49.1211H65.0911V69.9124Z" fill="#0078D4"/>
<path fill-rule="evenodd" clip-rule="evenodd" d="M73.8698 72.222C73.8698 72.4962 73.7885 72.7642 73.6362 72.9921C73.4839 73.22 73.2675 73.3977 73.0142 73.5026C72.7609 73.6075 72.4822 73.635 72.2133 73.5815C71.9445 73.528 71.6975 73.396 71.5036 73.2021C71.3098 73.0083 71.1778 72.7613 71.1243 72.4924C71.0708 72.2236 71.0983 71.9449 71.2032 71.6916C71.3081 71.4383 71.4857 71.2218 71.7137 71.0695C71.9416 70.9172 72.2096 70.8359 72.4837 70.8359C72.6658 70.8359 72.846 70.8718 73.0142 70.9414C73.1824 71.0111 73.3352 71.1132 73.4639 71.2419C73.5926 71.3706 73.6947 71.5234 73.7643 71.6916C73.834 71.8598 73.8699 72.04 73.8698 72.222V72.222Z" fill="#00244D"/>
<path fill-rule="evenodd" clip-rule="evenodd" d="M74.3319 48.1936H70.6356C70.5131 48.1936 70.3956 48.1449 70.3089 48.0583C70.2223 47.9716 70.1736 47.8541 70.1736 47.7316C70.1736 47.609 70.2223 47.4915 70.3089 47.4049C70.3956 47.3182 70.5131 47.2695 70.6356 47.2695H74.3319C74.4544 47.2695 74.5719 47.3182 74.6586 47.4049C74.7452 47.4915 74.7939 47.609 74.7939 47.7316C74.7939 47.8541 74.7452 47.9716 74.6586 48.0583C74.5719 48.1449 74.4544 48.1936 74.3319 48.1936V48.1936Z" fill="#00244D"/>
<path d="M72.4833 65.3182C75.6886 65.3182 78.2869 62.7198 78.2869 59.5146C78.2869 56.3093 75.6886 53.7109 72.4833 53.7109C69.2781 53.7109 66.6797 56.3093 66.6797 59.5146C66.6797 62.7198 69.2781 65.3182 72.4833 65.3182Z" fill="#1B93EB"/>
<path d="M72.4834 60.2099C73.5456 60.2099 74.4067 59.3488 74.4067 58.2866C74.4067 57.2244 73.5456 56.3633 72.4834 56.3633C71.4212 56.3633 70.5601 57.2244 70.5601 58.2866C70.5601 59.3488 71.4212 60.2099 72.4834 60.2099Z" fill="#0078D4"/>
<path d="M75.0926 63.0185C75.2526 62.8936 75.3582 62.7117 75.3874 62.5109C75.4165 62.31 75.367 62.1056 75.2492 61.9403C74.9372 61.4966 74.523 61.1344 74.0416 60.8844C73.5602 60.6344 73.0257 60.5039 72.4833 60.5039C71.9408 60.5039 71.4064 60.6344 70.925 60.8844C70.4436 61.1344 70.0294 61.4966 69.7174 61.9403C69.5995 62.1056 69.55 62.31 69.5792 62.5109C69.6084 62.7117 69.714 62.8936 69.874 63.0185C70.6277 63.581 71.5429 63.8849 72.4833 63.8849C73.4237 63.8849 74.3389 63.581 75.0926 63.0185V63.0185Z" fill="#0078D4"/>
</g>
<defs>
<linearGradient id="paint0_linear" x1="47.8698" y1="-15.155" x2="51.8525" y2="130.613" gradientUnits="userSpaceOnUse">
<stop stop-color="#00ABDE"/>
<stop offset="1" stop-color="#007ED8"/>
</linearGradient>
<clipPath id="clip0">
<rect width="99.2799" height="99.28" fill="white"/>
</clipPath>
</defs>
</svg>
