<svg width="100" height="100" viewBox="0 0 100 100" fill="none" xmlns="http://www.w3.org/2000/svg">
<g clip-path="url(#clip0_967_356)">
<path d="M49.6401 96.45C40.382 96.45 31.3317 93.7047 23.6339 88.5611C15.936 83.4176 9.93624 76.1068 6.3933 67.5534C2.85036 59 1.92337 49.5881 3.72954 40.5078C5.53571 31.4276 9.99394 23.0868 16.5404 16.5403C23.0869 9.99384 31.4277 5.53562 40.5079 3.72945C49.5882 1.92327 59.0001 2.85027 67.5535 6.39321C76.1069 9.93614 83.4176 15.9359 88.5612 23.6338C93.7047 31.3316 96.4501 40.3819 96.4501 49.64C96.4505 55.7873 95.24 61.8745 92.8878 67.5539C90.5355 73.2334 87.0875 78.3938 82.7407 82.7406C78.3939 87.0874 73.2335 90.5354 67.554 92.8877C61.8746 95.2399 55.7874 96.4504 49.6401 96.45V96.45Z" fill="url(#paint0_linear_967_356)"/>
<path fill-rule="evenodd" clip-rule="evenodd" d="M95.54 49.64C95.54 58.7182 92.848 67.5925 87.8045 75.1407C82.7609 82.6889 75.5923 88.572 67.2052 92.0461C58.818 95.5201 49.5891 96.4291 40.6854 94.658C31.7816 92.887 23.603 88.5154 17.1838 82.0962C10.7646 75.677 6.39302 67.4984 4.62196 58.5946C2.85089 49.6909 3.75987 40.462 7.23393 32.0748C10.708 23.6877 16.5911 16.5191 24.1393 11.4755C31.6875 6.43199 40.5618 3.74 49.64 3.74C55.6677 3.73998 61.6363 4.9272 67.2052 7.23388C72.774 9.54057 77.834 12.9215 82.0963 17.1837C86.3585 21.446 89.7394 26.5059 92.0461 32.0748C94.3528 37.6437 95.54 43.6123 95.54 49.64V49.64ZM49.64 3.62732e-07C59.4579 3.62732e-07 69.0553 2.91134 77.2185 8.36585C85.3818 13.8204 91.7442 21.5731 95.5014 30.6436C99.2585 39.7141 100.242 49.6951 98.3262 59.3243C96.4108 68.9535 91.6831 77.7985 84.7408 84.7408C77.7985 91.6831 68.9535 96.4108 59.3243 98.3262C49.6951 100.242 39.7141 99.2585 30.6436 95.5014C21.5731 91.7442 13.8204 85.3818 8.36585 77.2185C2.91134 69.0553 3.62732e-07 59.4579 3.62732e-07 49.64C-0.000787738 43.121 1.28265 36.6656 3.77702 30.6427C6.27138 24.6197 9.9278 19.1471 14.5375 14.5375C19.1471 9.9278 24.6197 6.27138 30.6427 3.77702C36.6656 1.28265 43.121 -0.000787738 49.64 3.62732e-07V3.62732e-07Z" fill="#F2F1F0"/>
<path fill-rule="evenodd" clip-rule="evenodd" d="M92.7296 49.6401C92.7296 58.1625 90.2024 66.4935 85.4676 73.5796C80.7328 80.6657 74.0031 86.1887 66.1294 89.4501C58.2557 92.7114 49.5918 93.5648 41.2331 91.9021C32.8745 90.2395 25.1966 86.1356 19.1703 80.1093C13.1441 74.0831 9.04017 66.4052 7.37753 58.0465C5.7149 49.6879 6.56822 41.0239 9.8296 33.1503C13.091 25.2766 18.6139 18.5469 25.7 13.8121C32.7862 9.07727 41.1172 6.55009 49.6396 6.55009C55.2983 6.54974 60.9017 7.66407 66.1298 9.82942C71.3579 11.9948 76.1082 15.1687 80.1096 19.1701C84.1109 23.1714 87.2849 27.9218 89.4502 33.1499C91.6156 38.3779 92.7299 43.9813 92.7296 49.6401V49.6401ZM49.6396 2.81009C58.9017 2.81009 67.9558 5.55662 75.6569 10.7024C83.3581 15.8481 89.3604 23.162 92.9049 31.719C96.4493 40.2761 97.3767 49.692 95.5697 58.7762C93.7628 67.8603 89.3027 76.2046 82.7534 82.7539C76.2041 89.3032 67.8598 93.7633 58.7757 95.5703C49.6915 97.3772 40.2756 96.4498 31.7185 92.9054C23.1614 89.3609 15.8476 83.3586 10.7018 75.6574C5.5561 67.9563 2.80957 58.9022 2.80957 49.6401C2.81076 37.2204 7.745 25.3097 16.5271 16.5276C25.3091 7.7455 37.2198 2.81125 49.6396 2.81006V2.81009Z" fill="#0078D4"/>
<path fill-rule="evenodd" clip-rule="evenodd" d="M92.7637 49.6401C92.7637 58.1625 90.2366 66.4935 85.5018 73.5796C80.767 80.6657 74.0372 86.1887 66.1636 89.4501C58.2899 92.7114 49.6259 93.5648 41.2673 91.9021C32.9087 90.2395 25.2308 86.1356 19.2045 80.1093C13.1783 74.0831 9.07435 66.4052 7.41171 58.0465C5.74908 49.6879 6.6024 41.0239 9.86378 33.1503C13.1252 25.2766 18.6481 18.5469 25.7342 13.8121C32.8203 9.07727 41.1514 6.55009 49.6738 6.55009C55.3325 6.54974 60.9359 7.66407 66.164 9.82942C71.3921 11.9948 76.1424 15.1687 80.1437 19.1701C84.1451 23.1714 87.3191 27.9218 89.4844 33.1499C91.6498 38.3779 92.7641 43.9813 92.7637 49.6401V49.6401ZM49.6738 2.81009C58.9359 2.81009 67.9899 5.55662 75.6911 10.7024C83.3923 15.8481 89.3946 23.162 92.939 31.719C96.4835 40.2761 97.4109 49.692 95.6039 58.7762C93.797 67.8603 89.3369 76.2046 82.7876 82.7539C76.2383 89.3032 67.894 93.7633 58.8098 95.5703C49.7257 97.3772 40.3097 96.4498 31.7527 92.9054C23.1956 89.3609 15.8818 83.3586 10.736 75.6574C5.59028 67.9563 2.84375 58.9022 2.84375 49.6401C2.84494 37.2204 7.77918 25.3097 16.5612 16.5276C25.3433 7.7455 37.254 2.81125 49.6738 2.81006V2.81009Z" fill="#0078D4"/>
<path d="M63.0659 17.0558H36.2818C35.5299 17.0558 34.9204 17.6654 34.9204 18.4172V45.2031C34.9204 45.955 35.5299 46.5645 36.2818 46.5645H63.0659C63.8178 46.5645 64.4273 45.955 64.4273 45.2031V18.4172C64.4273 17.6654 63.8178 17.0558 63.0659 17.0558Z" fill="url(#paint1_linear_967_356)"/>
<path d="M48.872 31.008H37.6445V19.7805H48.872V31.008ZM61.7033 31.008H50.4759V19.7805H61.7033L61.7033 31.008ZM48.872 43.8393H37.6445V32.6119H48.872V43.8393ZM61.7033 43.8393H50.4759V32.6119H61.7033L61.7033 43.8393Z" fill="#C3F1FF"/>
<path d="M47.7109 70.9722C47.7192 70.9137 47.7359 70.8552 47.7443 70.8051C47.901 69.9782 47.8737 69.1269 47.6643 68.3117C47.455 67.4966 47.0687 66.7375 46.5329 66.0885C45.997 65.4394 45.3249 64.9164 44.5641 64.5564C43.8034 64.1964 42.9727 64.0084 42.131 64.0057C41.7005 64.0042 41.2714 64.0547 40.853 64.156C39.9999 62.8104 38.7329 61.7782 37.2426 61.2148C35.7523 60.6514 34.1193 60.5872 32.5894 61.0318C31.0594 61.4765 29.7152 62.406 28.7591 63.6805C27.803 64.9549 27.2866 66.5054 27.2876 68.0987C27.2876 68.1989 27.2876 68.2992 27.2959 68.3994C26.9138 68.2708 26.513 68.2059 26.1098 68.2073C25.1816 68.2074 24.289 68.5644 23.6166 69.2042C22.9442 69.8441 22.5435 70.7179 22.4974 71.645C22.4513 72.572 22.7632 73.4813 23.3687 74.1848C23.9743 74.8882 24.827 75.332 25.7506 75.4244L42.1227 75.4578C43.1418 75.4566 44.1422 75.1844 45.0214 74.6692C45.9006 74.154 46.6271 73.4142 47.1262 72.5258C47.1513 72.4757 47.1847 72.4255 47.2098 72.3754C47.4309 71.9288 47.5991 71.4578 47.7109 70.9722Z" fill="white"/>
<path d="M32.1879 68.1718L32.1388 68.1284C32.049 68.0386 31.9951 67.9192 31.9871 67.7925C31.9791 67.6658 32.0177 67.5405 32.0955 67.4402L32.1389 67.391L34.7447 64.7857C34.8344 64.696 34.9538 64.6421 35.0805 64.6341C35.2071 64.6261 35.3323 64.6645 35.4327 64.7422L35.4818 64.7855L38.0906 67.3908C38.1845 67.4845 38.2391 67.6105 38.2433 67.743C38.2476 67.8756 38.2012 68.0048 38.1135 68.1043C38.0259 68.2039 37.9036 68.2663 37.7716 68.2789C37.6396 68.2914 37.5078 68.2533 37.4029 68.1721L37.3538 68.1287L35.6359 66.414L35.636 72.9739C35.636 73.1017 35.589 73.225 35.5041 73.3204C35.4192 73.4159 35.3022 73.4769 35.1753 73.4918L35.1145 73.4953C34.9868 73.4953 34.8635 73.4484 34.768 73.3635C34.6725 73.2786 34.6115 73.1616 34.5966 73.0347L34.5931 72.9739L34.5931 66.4124L32.8761 68.1285C32.7863 68.2183 32.6669 68.2722 32.5402 68.2801C32.4135 68.2881 32.2882 68.2496 32.1879 68.1718L32.1387 68.1284L32.1879 68.1718Z" fill="#0078D4"/>
<path fill-rule="evenodd" clip-rule="evenodd" d="M62.3212 61.4813C62.321 61.5618 62.2889 61.6389 62.2319 61.6959C62.175 61.7528 62.0979 61.7849 62.0173 61.7851H61.4096C61.3291 61.7849 61.2519 61.7528 61.195 61.6959C61.138 61.6389 61.106 61.5618 61.1057 61.4813V59.658C61.1059 59.5775 61.138 59.5003 61.195 59.4434C61.2519 59.3864 61.3291 59.3544 61.4096 59.3541H62.0173C62.0979 59.3544 62.175 59.3864 62.232 59.4434C62.2889 59.5003 62.321 59.5775 62.3212 59.658V61.4813Z" fill="#C3F1FF"/>
<path fill-rule="evenodd" clip-rule="evenodd" d="M64.7523 61.4813C64.7521 61.5618 64.72 61.6389 64.6631 61.6959C64.6062 61.7528 64.529 61.7849 64.4485 61.7851H63.8407C63.7602 61.7849 63.6831 61.7528 63.6261 61.6959C63.5692 61.6389 63.5371 61.5618 63.5369 61.4813V59.658C63.5371 59.5775 63.5692 59.5003 63.6261 59.4434C63.6831 59.3864 63.7602 59.3544 63.8407 59.3541H64.4485C64.529 59.3544 64.6062 59.3865 64.6631 59.4434C64.72 59.5003 64.7521 59.5775 64.7523 59.658V61.4813Z" fill="#C3F1FF"/>
<path fill-rule="evenodd" clip-rule="evenodd" d="M67.1835 61.4813C67.1833 61.5618 67.1512 61.6389 67.0942 61.6959C67.0373 61.7528 66.9601 61.7849 66.8796 61.7851H66.2719C66.1914 61.7849 66.1142 61.7528 66.0573 61.6959C66.0003 61.6389 65.9683 61.5618 65.968 61.4813V59.658C65.9682 59.5775 66.0003 59.5003 66.0573 59.4434C66.1142 59.3865 66.1913 59.3544 66.2719 59.3541H66.8796C66.9601 59.3544 67.0373 59.3864 67.0942 59.4434C67.1512 59.5003 67.1833 59.5775 67.1835 59.658V61.4813Z" fill="#C3F1FF"/>
<path fill-rule="evenodd" clip-rule="evenodd" d="M69.6142 61.4813C69.6139 61.5618 69.5818 61.6389 69.5249 61.6959C69.468 61.7528 69.3908 61.7849 69.3103 61.7851H68.7025C68.622 61.7849 68.5449 61.7528 68.4879 61.6959C68.431 61.6389 68.3989 61.5618 68.3987 61.4813V59.658C68.3989 59.5775 68.431 59.5003 68.4879 59.4434C68.5449 59.3865 68.622 59.3544 68.7025 59.3541H69.3103C69.3908 59.3544 69.468 59.3864 69.5249 59.4434C69.5818 59.5003 69.6139 59.5775 69.6142 59.658V61.4813Z" fill="#C3F1FF"/>
<path fill-rule="evenodd" clip-rule="evenodd" d="M59.8903 61.4813C59.8901 61.5618 59.858 61.6389 59.801 61.6959C59.7441 61.7528 59.6669 61.7849 59.5864 61.7851H58.9787C58.8982 61.7849 58.821 61.7528 58.7641 61.6959C58.7071 61.6389 58.675 61.5618 58.6748 61.4813V59.658C58.675 59.5775 58.7071 59.5003 58.7641 59.4434C58.821 59.3864 58.8982 59.3544 58.9787 59.3541H59.5864C59.6669 59.3544 59.7441 59.3864 59.801 59.4434C59.858 59.5003 59.8901 59.5775 59.8903 59.658V61.4813Z" fill="#C3F1FF"/>
<path fill-rule="evenodd" clip-rule="evenodd" d="M62.3212 78.4982C62.321 78.5787 62.2889 78.6558 62.232 78.7128C62.175 78.7697 62.0979 78.8018 62.0173 78.802H61.4096C61.3291 78.8018 61.2519 78.7697 61.195 78.7128C61.138 78.6558 61.106 78.5787 61.1057 78.4982V76.6749C61.106 76.5944 61.138 76.5172 61.195 76.4603C61.2519 76.4034 61.3291 76.3713 61.4096 76.371H62.0173C62.0978 76.3713 62.175 76.4034 62.2319 76.4603C62.2889 76.5172 62.321 76.5944 62.3212 76.6749V78.4982Z" fill="#C3F1FF"/>
<path fill-rule="evenodd" clip-rule="evenodd" d="M64.7523 78.4982C64.7521 78.5787 64.72 78.6558 64.6631 78.7128C64.6062 78.7697 64.529 78.8018 64.4485 78.802H63.8407C63.7602 78.8018 63.6831 78.7697 63.6261 78.7128C63.5692 78.6558 63.5371 78.5787 63.5369 78.4982V76.6749C63.5371 76.5944 63.5692 76.5172 63.6261 76.4603C63.6831 76.4034 63.7602 76.3713 63.8407 76.371H64.4485C64.529 76.3713 64.6061 76.4034 64.6631 76.4603C64.72 76.5172 64.7521 76.5944 64.7523 76.6749V78.4982Z" fill="#C3F1FF"/>
<path fill-rule="evenodd" clip-rule="evenodd" d="M67.1835 78.4982C67.1833 78.5787 67.1512 78.6558 67.0942 78.7128C67.0373 78.7697 66.9601 78.8018 66.8796 78.802H66.2719C66.1913 78.8018 66.1142 78.7697 66.0573 78.7128C66.0003 78.6558 65.9683 78.5787 65.968 78.4982V76.6749C65.9683 76.5944 66.0003 76.5172 66.0573 76.4603C66.1142 76.4034 66.1914 76.3713 66.2719 76.371H66.8796C66.9601 76.3713 67.0373 76.4034 67.0942 76.4603C67.1512 76.5172 67.1832 76.5944 67.1835 76.6749V78.4982Z" fill="#C3F1FF"/>
<path fill-rule="evenodd" clip-rule="evenodd" d="M69.6142 78.4982C69.6139 78.5787 69.5818 78.6558 69.5249 78.7128C69.468 78.7697 69.3908 78.8018 69.3103 78.802H68.7025C68.622 78.8018 68.5449 78.7697 68.4879 78.7128C68.431 78.6558 68.3989 78.5787 68.3987 78.4982V76.6749C68.3989 76.5944 68.431 76.5172 68.4879 76.4603C68.5449 76.4034 68.622 76.3713 68.7025 76.371H69.3103C69.3908 76.3713 69.468 76.4034 69.5249 76.4603C69.5818 76.5172 69.6139 76.5944 69.6142 76.6749V78.4982Z" fill="#C3F1FF"/>
<path fill-rule="evenodd" clip-rule="evenodd" d="M59.8903 78.4982C59.8901 78.5787 59.858 78.6558 59.801 78.7128C59.7441 78.7697 59.6669 78.8018 59.5864 78.802H58.9787C58.8982 78.8018 58.821 78.7697 58.7641 78.7128C58.7071 78.6558 58.675 78.5787 58.6748 78.4982V76.6749C58.675 76.5944 58.7071 76.5172 58.7641 76.4603C58.821 76.4034 58.8982 76.3713 58.9787 76.371H59.5864C59.6669 76.3713 59.7441 76.4034 59.801 76.4603C59.858 76.5172 59.8901 76.5944 59.8903 76.6749V78.4982Z" fill="#C3F1FF"/>
<path fill-rule="evenodd" clip-rule="evenodd" d="M73.8685 66.9509C73.8683 67.0314 73.8362 67.1086 73.7792 67.1655C73.7223 67.2225 73.6451 67.2546 73.5646 67.2548H71.7414C71.6609 67.2546 71.5837 67.2225 71.5268 67.1655C71.4698 67.1086 71.4377 67.0314 71.4375 66.9509V66.3432C71.4377 66.2627 71.4698 66.1855 71.5268 66.1286C71.5837 66.0716 71.6609 66.0396 71.7414 66.0393H73.5646C73.6451 66.0396 73.7223 66.0716 73.7792 66.1286C73.8362 66.1855 73.8682 66.2627 73.8685 66.3432V66.9509Z" fill="#C3F1FF"/>
<path fill-rule="evenodd" clip-rule="evenodd" d="M73.8685 69.382C73.8683 69.4625 73.8362 69.5397 73.7792 69.5966C73.7223 69.6535 73.6451 69.6856 73.5646 69.6859H71.7414C71.6609 69.6856 71.5837 69.6536 71.5268 69.5966C71.4698 69.5397 71.4377 69.4625 71.4375 69.382V68.7743C71.4377 68.6937 71.4698 68.6166 71.5268 68.5596C71.5837 68.5027 71.6609 68.4706 71.7414 68.4704H73.5646C73.6451 68.4706 73.7223 68.5027 73.7792 68.5597C73.8362 68.6166 73.8683 68.6937 73.8685 68.7743V69.382Z" fill="#C3F1FF"/>
<path fill-rule="evenodd" clip-rule="evenodd" d="M73.8685 71.8129C73.8682 71.8934 73.8362 71.9706 73.7792 72.0275C73.7223 72.0845 73.6451 72.1165 73.5646 72.1168H71.7414C71.6609 72.1166 71.5837 72.0845 71.5268 72.0275C71.4698 71.9706 71.4377 71.8934 71.4375 71.8129V71.2052C71.4377 71.1246 71.4698 71.0475 71.5268 70.9905C71.5837 70.9336 71.6609 70.9015 71.7414 70.9013H73.5646C73.6451 70.9015 73.7223 70.9336 73.7792 70.9906C73.8362 71.0475 73.8683 71.1247 73.8685 71.2052V71.8129Z" fill="#C3F1FF"/>
<path fill-rule="evenodd" clip-rule="evenodd" d="M73.8685 74.244C73.8682 74.3245 73.8362 74.4017 73.7792 74.4586C73.7223 74.5155 73.6451 74.5476 73.5646 74.5479H71.7414C71.6609 74.5476 71.5837 74.5155 71.5268 74.4586C71.4698 74.4017 71.4377 74.3245 71.4375 74.244V73.6363C71.4377 73.5557 71.4698 73.4786 71.5268 73.4216C71.5837 73.3647 71.6609 73.3326 71.7414 73.3324H73.5646C73.6451 73.3326 73.7223 73.3647 73.7792 73.4217C73.8362 73.4786 73.8683 73.5557 73.8685 73.6363V74.244Z" fill="#C3F1FF"/>
<path fill-rule="evenodd" clip-rule="evenodd" d="M73.8685 64.52C73.8682 64.6005 73.8362 64.6777 73.7792 64.7346C73.7223 64.7915 73.6451 64.8236 73.5646 64.8239H71.7414C71.6609 64.8236 71.5837 64.7915 71.5268 64.7346C71.4698 64.6777 71.4377 64.6005 71.4375 64.52V63.9122C71.4377 63.8317 71.4698 63.7546 71.5268 63.6976C71.5837 63.6407 71.6609 63.6086 71.7414 63.6084H73.5646C73.6451 63.6086 73.7223 63.6407 73.7792 63.6976C73.8362 63.7546 73.8682 63.8317 73.8685 63.9122V64.52Z" fill="#C3F1FF"/>
<path fill-rule="evenodd" clip-rule="evenodd" d="M56.8516 66.9509C56.8514 67.0314 56.8193 67.1086 56.7624 67.1655C56.7054 67.2225 56.6283 67.2546 56.5478 67.2548H54.7245C54.644 67.2546 54.5669 67.2225 54.5099 67.1655C54.453 67.1086 54.4209 67.0314 54.4207 66.9509V66.3432C54.4209 66.2627 54.453 66.1855 54.5099 66.1286C54.5669 66.0716 54.644 66.0396 54.7245 66.0393H56.5478C56.6283 66.0396 56.7054 66.0716 56.7624 66.1286C56.8193 66.1855 56.8514 66.2627 56.8516 66.3432V66.9509Z" fill="#C3F1FF"/>
<path fill-rule="evenodd" clip-rule="evenodd" d="M56.8516 69.382C56.8514 69.4625 56.8193 69.5397 56.7624 69.5966C56.7054 69.6536 56.6283 69.6856 56.5478 69.6859H54.7245C54.644 69.6856 54.5669 69.6536 54.5099 69.5966C54.453 69.5397 54.4209 69.4625 54.4207 69.382V68.7743C54.4209 68.6937 54.453 68.6166 54.5099 68.5596C54.5669 68.5027 54.644 68.4706 54.7245 68.4704H56.5478C56.6283 68.4706 56.7054 68.5027 56.7624 68.5596C56.8193 68.6166 56.8514 68.6937 56.8516 68.7743V69.382Z" fill="#C3F1FF"/>
<path fill-rule="evenodd" clip-rule="evenodd" d="M56.8516 71.8129C56.8514 71.8934 56.8193 71.9706 56.7624 72.0275C56.7054 72.0845 56.6283 72.1166 56.5478 72.1168H54.7245C54.644 72.1166 54.5669 72.0845 54.5099 72.0275C54.453 71.9706 54.4209 71.8934 54.4207 71.8129V71.2052C54.4209 71.1246 54.453 71.0475 54.5099 70.9905C54.5669 70.9336 54.644 70.9015 54.7245 70.9013H56.5478C56.6283 70.9015 56.7054 70.9336 56.7624 70.9905C56.8193 71.0475 56.8514 71.1246 56.8516 71.2052V71.8129Z" fill="#C3F1FF"/>
<path fill-rule="evenodd" clip-rule="evenodd" d="M56.8516 74.244C56.8514 74.3245 56.8193 74.4017 56.7624 74.4586C56.7054 74.5155 56.6283 74.5476 56.5478 74.5479H54.7245C54.644 74.5476 54.5669 74.5155 54.5099 74.4586C54.453 74.4017 54.4209 74.3245 54.4207 74.244V73.6363C54.4209 73.5557 54.453 73.4786 54.5099 73.4216C54.5669 73.3647 54.644 73.3326 54.7245 73.3324H56.5478C56.6283 73.3326 56.7054 73.3647 56.7624 73.4216C56.8193 73.4786 56.8514 73.5557 56.8516 73.6363V74.244Z" fill="#C3F1FF"/>
<path fill-rule="evenodd" clip-rule="evenodd" d="M56.8516 64.52C56.8514 64.6005 56.8193 64.6777 56.7624 64.7346C56.7054 64.7915 56.6283 64.8236 56.5478 64.8239H54.7245C54.644 64.8236 54.5669 64.7915 54.5099 64.7346C54.453 64.6777 54.4209 64.6005 54.4207 64.52V63.9122C54.4209 63.8317 54.453 63.7546 54.5099 63.6976C54.5669 63.6407 54.644 63.6086 54.7245 63.6084H56.5478C56.6283 63.6086 56.7054 63.6407 56.7624 63.6976C56.8193 63.7546 56.8514 63.8317 56.8516 63.9122V64.52Z" fill="#C3F1FF"/>
<path fill-rule="evenodd" clip-rule="evenodd" d="M72.0453 75.7633C72.0443 76.0854 71.916 76.394 71.6882 76.6218C71.4605 76.8495 71.1518 76.9779 70.8298 76.9788H57.4594C57.1373 76.9779 56.8287 76.8495 56.601 76.6218C56.3732 76.394 56.2448 76.0854 56.2439 75.7633V62.3929C56.2448 62.0709 56.3732 61.7622 56.601 61.5345C56.8287 61.3068 57.1373 61.1784 57.4594 61.1775H70.8298C71.1518 61.1784 71.4605 61.3068 71.6882 61.5345C71.916 61.7622 72.0443 62.0709 72.0453 62.3929V75.7633Z" fill="#0078D4"/>
<path opacity="0.2" fill-rule="evenodd" clip-rule="evenodd" d="M70.8297 61.1775H66.7152L61.8533 76.9788H70.8297C71.1517 76.9779 71.4603 76.8495 71.6881 76.6218C71.9158 76.394 72.0442 76.0854 72.0451 75.7633V62.3929C72.0442 62.0709 71.9158 61.7623 71.6881 61.5345C71.4603 61.3068 71.1517 61.1784 70.8297 61.1775V61.1775Z" fill="#1F56A3"/>
<path fill-rule="evenodd" clip-rule="evenodd" d="M70.0936 75.0285C70.0087 75.1132 69.9006 75.1708 69.7829 75.1941C69.6652 75.2174 69.5433 75.2053 69.4325 75.1593C69.3218 75.1133 69.2271 75.0355 69.1605 74.9358C69.0939 74.836 69.0583 74.7188 69.0583 74.5989C69.0583 74.4789 69.0939 74.3617 69.1605 74.2619C69.2271 74.1622 69.3218 74.0844 69.4325 74.0384C69.5433 73.9924 69.6652 73.9803 69.7829 74.0036C69.9006 74.0269 70.0087 74.0845 70.0936 74.1692C70.1504 74.2254 70.1955 74.2923 70.2263 74.3661C70.2571 74.4398 70.2729 74.5189 70.2729 74.5989C70.2729 74.6788 70.2571 74.7579 70.2263 74.8317C70.1955 74.9054 70.1504 74.9723 70.0936 75.0285V75.0285Z" fill="#9CEBFF"/>
<path fill-rule="evenodd" clip-rule="evenodd" d="M55.6362 74.5478H56.244V73.3324H55.6362V74.5478Z" fill="#9CEBFF"/>
<path fill-rule="evenodd" clip-rule="evenodd" d="M55.6362 72.1168H56.244V70.9013H55.6362V72.1168Z" fill="#9CEBFF"/>
<path fill-rule="evenodd" clip-rule="evenodd" d="M55.6362 69.6859H56.244V68.4704H55.6362V69.6859Z" fill="#9CEBFF"/>
<path fill-rule="evenodd" clip-rule="evenodd" d="M55.6362 67.2548H56.244V66.0393H55.6362V67.2548Z" fill="#9CEBFF"/>
<path fill-rule="evenodd" clip-rule="evenodd" d="M55.6362 64.8239H56.244V63.6084H55.6362V64.8239Z" fill="#9CEBFF"/>
<path fill-rule="evenodd" clip-rule="evenodd" d="M72.0452 74.5478H72.6529V73.3324H72.0452L72.0452 74.5478Z" fill="#9CEBFF"/>
<path fill-rule="evenodd" clip-rule="evenodd" d="M72.0452 72.1168H72.6529V70.9013H72.0452L72.0452 72.1168Z" fill="#9CEBFF"/>
<path fill-rule="evenodd" clip-rule="evenodd" d="M72.0452 69.6859H72.6529V68.4704H72.0452L72.0452 69.6859Z" fill="#9CEBFF"/>
<path fill-rule="evenodd" clip-rule="evenodd" d="M72.0452 67.2548H72.6529V66.0393H72.0452L72.0452 67.2548Z" fill="#9CEBFF"/>
<path fill-rule="evenodd" clip-rule="evenodd" d="M72.0452 64.8239H72.6529V63.6084H72.0452L72.0452 64.8239Z" fill="#9CEBFF"/>
<path fill-rule="evenodd" clip-rule="evenodd" d="M58.6748 61.1774H59.8903V60.5697H58.6748V61.1774Z" fill="#9CEBFF"/>
<path fill-rule="evenodd" clip-rule="evenodd" d="M61.1057 61.1774H62.3212V60.5697H61.1057V61.1774Z" fill="#9CEBFF"/>
<path fill-rule="evenodd" clip-rule="evenodd" d="M63.5369 61.1774H64.7523V60.5697H63.5369V61.1774Z" fill="#9CEBFF"/>
<path fill-rule="evenodd" clip-rule="evenodd" d="M65.968 61.1774H67.1835V60.5697H65.968V61.1774Z" fill="#9CEBFF"/>
<path fill-rule="evenodd" clip-rule="evenodd" d="M68.3987 61.1774H69.6142V60.5697H68.3987V61.1774Z" fill="#9CEBFF"/>
<path fill-rule="evenodd" clip-rule="evenodd" d="M58.6748 77.5865H59.8903V76.9788H58.6748V77.5865Z" fill="#9CEBFF"/>
<path fill-rule="evenodd" clip-rule="evenodd" d="M61.1057 77.5865H62.3212V76.9788H61.1057V77.5865Z" fill="#9CEBFF"/>
<path fill-rule="evenodd" clip-rule="evenodd" d="M63.5369 77.5865H64.7523V76.9788H63.5369V77.5865Z" fill="#9CEBFF"/>
<path fill-rule="evenodd" clip-rule="evenodd" d="M65.968 77.5865H67.1835V76.9788H65.968V77.5865Z" fill="#9CEBFF"/>
<path fill-rule="evenodd" clip-rule="evenodd" d="M68.3987 77.5865H69.6142V76.9788H68.3987V77.5865Z" fill="#9CEBFF"/>
<path fill-rule="evenodd" clip-rule="evenodd" d="M70.094 75.0285C70.151 74.9724 70.1963 74.9055 70.2272 74.8317C70.2581 74.7579 70.274 74.6788 70.274 74.5988C70.274 74.5188 70.2581 74.4396 70.2272 74.3658C70.1963 74.2921 70.151 74.2252 70.094 74.1691L69.2371 75.0285C69.2932 75.0849 69.36 75.1297 69.4335 75.1603C69.507 75.1908 69.5859 75.2066 69.6655 75.2066C69.7451 75.2066 69.824 75.1908 69.8975 75.1603C69.971 75.1297 70.0378 75.0849 70.094 75.0285V75.0285Z" fill="#C3F1FF"/>
<path fill-rule="evenodd" clip-rule="evenodd" d="M59.2316 63.5573C59.2316 63.6775 59.196 63.795 59.1292 63.8949C59.0624 63.9949 58.9675 64.0728 58.8565 64.1188C58.7454 64.1648 58.6232 64.1768 58.5053 64.1534C58.3874 64.1299 58.2791 64.072 58.1941 63.987C58.1091 63.9021 58.0512 63.7938 58.0278 63.6759C58.0043 63.558 58.0164 63.4358 58.0624 63.3247C58.1084 63.2137 58.1863 63.1187 58.2862 63.052C58.3862 62.9852 58.5037 62.9495 58.6239 62.9495C58.7037 62.9494 58.7828 62.965 58.8566 62.9955C58.9304 63.026 58.9974 63.0708 59.0539 63.1272C59.1104 63.1837 59.1551 63.2507 59.1856 63.3245C59.2161 63.3983 59.2318 63.4774 59.2316 63.5573V63.5573Z" fill="#C3F1FF"/>
<path fill-rule="evenodd" clip-rule="evenodd" d="M59.0525 63.9869C59.1091 63.9306 59.1541 63.8637 59.1848 63.7899C59.2156 63.7162 59.2314 63.6371 59.2314 63.5572C59.2314 63.4773 59.2156 63.3982 59.1848 63.3245C59.1541 63.2508 59.1091 63.1838 59.0525 63.1275L58.1956 63.9869C58.2517 64.0433 58.3185 64.0881 58.392 64.1187C58.4655 64.1493 58.5444 64.165 58.624 64.165C58.7036 64.165 58.7825 64.1493 58.856 64.1187C58.9295 64.0881 58.9963 64.0433 59.0525 63.9869V63.9869Z" fill="#9CEBFF"/>
<path d="M61.2038 68.1718L61.1546 68.1284C61.0649 68.0386 61.011 67.9192 61.003 67.7925C60.995 67.6658 61.0335 67.5405 61.1113 67.4402L61.1547 67.391L63.7606 64.7857C63.8503 64.696 63.9697 64.6421 64.0963 64.6341C64.223 64.6261 64.3482 64.6645 64.4486 64.7422L64.4977 64.7855L67.1065 67.3908C67.2003 67.4846 67.2549 67.6105 67.2592 67.7431C67.2635 67.8756 67.217 68.0048 67.1294 68.1043C67.0418 68.2039 66.9195 68.2663 66.7875 68.2789C66.6555 68.2915 66.5236 68.2533 66.4188 68.1721L66.3697 68.1287L64.6518 66.414L64.6519 72.9739C64.6519 73.1017 64.6049 73.225 64.52 73.3205C64.4351 73.4159 64.3181 73.4769 64.1912 73.4918L64.1304 73.4953C64.0027 73.4953 63.8794 73.4484 63.7839 73.3635C63.6884 73.2786 63.6274 73.1616 63.6125 73.0347L63.609 72.9739L63.609 66.4125L61.892 68.1285C61.8022 68.2183 61.6828 68.2722 61.556 68.2802C61.4293 68.2881 61.3041 68.2496 61.2037 68.1718L61.1546 68.1284L61.2038 68.1718Z" fill="white"/>
<path d="M35.1348 58.3239V55.3531C35.1348 54.8106 35.3503 54.2904 35.7339 53.9067C36.1175 53.5231 36.6377 53.3076 37.1802 53.3076H47.5942C48.1367 53.3076 48.657 53.0921 49.0406 52.7085C49.4242 52.3249 49.6397 51.8047 49.6397 51.2622V48.537" stroke="white" stroke-width="0.75" stroke-miterlimit="10"/>
<path d="M64.1446 58.3239V55.3531C64.1446 54.8106 63.9291 54.2904 63.5455 53.9067C63.1619 53.5231 62.6416 53.3076 62.0991 53.3076H51.6851C51.1426 53.3076 50.6224 53.0921 50.2388 52.7085C49.8552 52.3249 49.6396 51.8047 49.6396 51.2622V48.537" stroke="white" stroke-width="0.75" stroke-miterlimit="10"/>
</g>
<defs>
<linearGradient id="paint0_linear_967_356" x1="47.8697" y1="-15.1531" x2="51.8525" y2="130.615" gradientUnits="userSpaceOnUse">
<stop stop-color="#00ABDE"/>
<stop offset="1" stop-color="#007ED8"/>
</linearGradient>
<linearGradient id="paint1_linear_967_356" x1="49.6739" y1="46.5645" x2="49.6739" y2="17.0558" gradientUnits="userSpaceOnUse">
<stop stop-color="#004DAE"/>
<stop offset="0.21" stop-color="#0061C4"/>
<stop offset="0.51" stop-color="#0078DD"/>
<stop offset="0.78" stop-color="#0086EC"/>
<stop offset="1" stop-color="#008BF1"/>
</linearGradient>
<clipPath id="clip0_967_356">
<rect width="99.2799" height="99.28" fill="white"/>
</clipPath>
</defs>
</svg>
