<svg width="100" height="100" viewBox="0 0 100 100" fill="none" xmlns="http://www.w3.org/2000/svg">
<g clip-path="url(#clip0_930_704)">
<path d="M49.6401 96.45C40.382 96.45 31.3317 93.7047 23.6339 88.5611C15.936 83.4176 9.93624 76.1068 6.3933 67.5534C2.85036 59 1.92337 49.5881 3.72954 40.5078C5.53571 31.4276 9.99394 23.0868 16.5404 16.5403C23.0869 9.99384 31.4277 5.53562 40.5079 3.72945C49.5882 1.92327 59.0001 2.85027 67.5535 6.39321C76.1069 9.93614 83.4176 15.9359 88.5612 23.6338C93.7047 31.3316 96.4501 40.3819 96.4501 49.64C96.4505 55.7873 95.24 61.8745 92.8878 67.5539C90.5355 73.2334 87.0875 78.3938 82.7407 82.7406C78.3939 87.0874 73.2335 90.5354 67.554 92.8877C61.8746 95.2399 55.7874 96.4504 49.6401 96.45V96.45Z" fill="url(#paint0_linear_930_704)"/>
<path fill-rule="evenodd" clip-rule="evenodd" d="M95.54 49.64C95.54 58.7182 92.848 67.5925 87.8045 75.1407C82.7609 82.6889 75.5923 88.572 67.2052 92.0461C58.818 95.5201 49.5891 96.4291 40.6854 94.658C31.7816 92.887 23.603 88.5154 17.1838 82.0962C10.7646 75.677 6.39302 67.4984 4.62196 58.5946C2.85089 49.6909 3.75987 40.462 7.23393 32.0748C10.708 23.6877 16.5911 16.5191 24.1393 11.4755C31.6875 6.43199 40.5618 3.74 49.64 3.74C55.6677 3.73998 61.6363 4.9272 67.2052 7.23388C72.774 9.54057 77.834 12.9215 82.0963 17.1837C86.3585 21.446 89.7394 26.5059 92.0461 32.0748C94.3528 37.6437 95.54 43.6123 95.54 49.64V49.64ZM49.64 3.62732e-07C59.4579 3.62732e-07 69.0553 2.91134 77.2185 8.36585C85.3818 13.8204 91.7442 21.5731 95.5014 30.6436C99.2585 39.7141 100.242 49.6951 98.3262 59.3243C96.4108 68.9535 91.6831 77.7985 84.7408 84.7408C77.7985 91.6831 68.9535 96.4108 59.3243 98.3262C49.6951 100.242 39.7141 99.2585 30.6436 95.5014C21.5731 91.7442 13.8204 85.3818 8.36585 77.2185C2.91134 69.0553 3.62732e-07 59.4579 3.62732e-07 49.64C-0.000787738 43.121 1.28265 36.6656 3.77702 30.6427C6.27138 24.6197 9.9278 19.1471 14.5375 14.5375C19.1471 9.9278 24.6197 6.27138 30.6427 3.77702C36.6656 1.28265 43.121 -0.000787738 49.64 3.62732e-07V3.62732e-07Z" fill="#F2F1F0"/>
<path fill-rule="evenodd" clip-rule="evenodd" d="M92.7296 49.6401C92.7296 58.1625 90.2024 66.4935 85.4676 73.5796C80.7328 80.6657 74.0031 86.1887 66.1294 89.4501C58.2557 92.7114 49.5918 93.5648 41.2331 91.9021C32.8745 90.2395 25.1966 86.1356 19.1703 80.1093C13.1441 74.0831 9.04017 66.4052 7.37753 58.0465C5.7149 49.6879 6.56822 41.0239 9.8296 33.1503C13.091 25.2766 18.6139 18.5469 25.7 13.8121C32.7862 9.07727 41.1172 6.55009 49.6396 6.55009C55.2983 6.54974 60.9017 7.66407 66.1298 9.82942C71.3579 11.9948 76.1082 15.1687 80.1096 19.1701C84.1109 23.1714 87.2849 27.9218 89.4502 33.1499C91.6156 38.3779 92.7299 43.9813 92.7296 49.6401V49.6401ZM49.6396 2.81009C58.9017 2.81009 67.9558 5.55662 75.6569 10.7024C83.3581 15.8481 89.3604 23.162 92.9049 31.719C96.4493 40.2761 97.3767 49.692 95.5697 58.7762C93.7628 67.8603 89.3027 76.2046 82.7534 82.7539C76.2041 89.3032 67.8598 93.7633 58.7757 95.5703C49.6915 97.3772 40.2756 96.4498 31.7185 92.9054C23.1614 89.3609 15.8476 83.3586 10.7018 75.6574C5.5561 67.9563 2.80957 58.9022 2.80957 49.6401C2.81076 37.2204 7.745 25.3097 16.5271 16.5276C25.3091 7.7455 37.2198 2.81125 49.6396 2.81006V2.81009Z" fill="#0078D4"/>
<path fill-rule="evenodd" clip-rule="evenodd" d="M92.7637 49.6401C92.7637 58.1625 90.2366 66.4935 85.5018 73.5796C80.767 80.6657 74.0372 86.1887 66.1636 89.4501C58.2899 92.7114 49.6259 93.5648 41.2673 91.9021C32.9087 90.2395 25.2308 86.1356 19.2045 80.1093C13.1783 74.0831 9.07435 66.4052 7.41171 58.0465C5.74908 49.6879 6.6024 41.0239 9.86378 33.1503C13.1252 25.2766 18.6481 18.5469 25.7342 13.8121C32.8203 9.07727 41.1514 6.55009 49.6738 6.55009C55.3325 6.54974 60.9359 7.66407 66.164 9.82942C71.3921 11.9948 76.1424 15.1687 80.1437 19.1701C84.1451 23.1714 87.3191 27.9218 89.4844 33.1499C91.6498 38.3779 92.7641 43.9813 92.7637 49.6401V49.6401ZM49.6738 2.81009C58.9359 2.81009 67.9899 5.55662 75.6911 10.7024C83.3923 15.8481 89.3946 23.162 92.939 31.719C96.4835 40.2761 97.4109 49.692 95.6039 58.7762C93.797 67.8603 89.3369 76.2046 82.7876 82.7539C76.2383 89.3032 67.894 93.7633 58.8098 95.5703C49.7257 97.3772 40.3097 96.4498 31.7527 92.9054C23.1956 89.3609 15.8818 83.3586 10.736 75.6574C5.59028 67.9563 2.84375 58.9022 2.84375 49.6401C2.84494 37.2204 7.77918 25.3097 16.5612 16.5276C25.3433 7.7455 37.254 2.81125 49.6738 2.81006V2.81009Z" fill="#0078D4"/>
<path d="M30.0553 41.3256C29.1101 41.3283 28.2044 41.705 27.5361 42.3734C26.8677 43.0417 26.491 43.9474 26.4883 44.8926V69.8614H72.8591V44.8925C72.8563 43.9474 72.4796 43.0417 71.8113 42.3733C71.1429 41.705 70.2372 41.3283 69.2921 41.3255L30.0553 41.3256ZM69.2921 43.1091C69.7649 43.1097 70.2182 43.2978 70.5525 43.6321C70.8868 43.9664 71.0749 44.4197 71.0756 44.8925V68.0779H28.2718V44.8925C28.2722 44.4197 28.4603 43.9663 28.7947 43.6319C29.129 43.2976 29.5824 43.1095 30.0553 43.1091H69.2921Z" fill="url(#paint1_linear_930_704)"/>
<path d="M28.272 44.8925C28.2724 44.4197 28.4605 43.9663 28.7949 43.6319C29.1293 43.2976 29.5826 43.1095 30.0555 43.1091H69.2923C69.7651 43.1097 70.2184 43.2978 70.5527 43.6321C70.887 43.9664 71.0752 44.4197 71.0758 44.8925V68.0779H28.272V44.8925Z" fill="url(#paint2_linear_930_704)"/>
<path d="M21.1379 69.8614V70.7532C21.1407 71.6984 21.5174 72.604 22.1857 73.2724C22.8541 73.9407 23.7598 74.3174 24.7049 74.3202H74.6427C75.5879 74.3174 76.4936 73.9407 77.1619 73.2724C77.8302 72.604 78.2069 71.6984 78.2097 70.7532V69.8614H21.1379Z" fill="url(#paint3_linear_930_704)"/>
<path fill-rule="evenodd" clip-rule="evenodd" d="M46.1067 71.6449H53.2407C53.7137 71.6447 54.1672 71.4568 54.5017 71.1224C54.8361 70.7879 55.0241 70.3344 55.0242 69.8614H44.3232C44.3233 70.3344 44.5112 70.7881 44.8456 71.1225C45.1801 71.457 45.6337 71.6449 46.1067 71.6449V71.6449Z" fill="#003067"/>
<path d="M49.0714 55.4005H41.115V47.4441H49.0714V55.4005ZM58.1644 55.4005H50.208V47.4441H58.1643L58.1644 55.4005ZM49.0714 64.4935H41.115V56.5371H49.0714V64.4935ZM58.1644 64.4935H50.208V56.5371H58.1643L58.1644 64.4935Z" fill="#9CEBFF"/>
<path d="M49.6396 44.2207V38.1721H63.019C63.1688 38.1721 63.3171 38.1426 63.4555 38.0853C63.5939 38.0279 63.7196 37.9439 63.8255 37.838C63.9314 37.7321 64.0155 37.6063 64.0728 37.4679C64.1301 37.3296 64.1596 37.1812 64.1596 37.0314V33.4469" stroke="white" stroke-miterlimit="10"/>
<path d="M49.6396 44.2207V38.1721H36.2603C35.9578 38.1721 35.6676 38.0519 35.4537 37.838C35.2398 37.6241 35.1196 37.3339 35.1196 37.0314V33.4469" stroke="white" stroke-miterlimit="10"/>
<path opacity="0.2" d="M28.0567 32.4078H42.1824C42.2566 32.4076 42.3277 32.378 42.3802 32.3255C42.4326 32.2731 42.4622 32.2019 42.4624 32.1277V21.0993H27.7766V32.1277C27.7768 32.2019 27.8064 32.2731 27.8589 32.3255C27.9114 32.378 27.9825 32.4076 28.0567 32.4078V32.4078Z" fill="#003067"/>
<path d="M27.7766 21.7434H42.4624V20.427C42.4625 20.3988 42.457 20.3708 42.4462 20.3447C42.4355 20.3186 42.4197 20.2949 42.3997 20.275C42.3798 20.255 42.3561 20.2392 42.33 20.2285C42.3039 20.2177 42.2759 20.2122 42.2477 20.2123H27.9914C27.9631 20.2122 27.9352 20.2177 27.9091 20.2285C27.883 20.2392 27.8593 20.255 27.8393 20.275C27.8194 20.2949 27.8036 20.3186 27.7928 20.3447C27.782 20.3708 27.7765 20.3988 27.7766 20.427V21.7434Z" fill="url(#paint4_linear_930_704)"/>
<path d="M28.9064 21.3816C28.9801 21.3814 29.052 21.3593 29.113 21.3182C29.1741 21.2771 29.2217 21.2188 29.2496 21.1507C29.2776 21.0826 29.2847 21.0077 29.2701 20.9355C29.2556 20.8634 29.2199 20.7971 29.1677 20.7452C29.1154 20.6933 29.049 20.6581 28.9767 20.644C28.9045 20.6298 28.8296 20.6374 28.7617 20.6658C28.6938 20.6942 28.6358 20.7421 28.5951 20.8034C28.5543 20.8648 28.5327 20.9368 28.533 21.0105C28.5326 21.0595 28.542 21.1081 28.5606 21.1535C28.5793 21.1989 28.6068 21.24 28.6416 21.2746C28.6764 21.3092 28.7177 21.3365 28.7632 21.3548C28.8087 21.3732 28.8574 21.3823 28.9064 21.3816V21.3816Z" fill="#50E6FF"/>
<path d="M37.4229 21.7434H37.8832C37.7307 21.7189 37.5753 21.7189 37.4229 21.7434V21.7434Z" fill="url(#paint5_linear_930_704)"/>
<path d="M37.4229 21.7434H37.8832C37.7307 21.7189 37.5753 21.7189 37.4229 21.7434V21.7434Z" fill="url(#paint6_linear_930_704)"/>
<path opacity="0.2" d="M57.0967 32.4078H71.2224C71.2966 32.4076 71.3677 32.378 71.4202 32.3255C71.4727 32.2731 71.5023 32.2019 71.5025 32.1277V21.0993H56.8167V32.1277C56.8169 32.2019 56.8464 32.2731 56.8989 32.3255C56.9514 32.378 57.0225 32.4076 57.0967 32.4078V32.4078Z" fill="#003067"/>
<path d="M56.8167 21.7434H71.5025V20.427C71.5025 20.3988 71.497 20.3708 71.4863 20.3447C71.4755 20.3186 71.4597 20.2949 71.4397 20.275C71.4198 20.255 71.3961 20.2392 71.37 20.2285C71.3439 20.2177 71.316 20.2122 71.2877 20.2123H57.0314C57.0032 20.2122 56.9752 20.2177 56.9491 20.2285C56.923 20.2392 56.8993 20.255 56.8794 20.275C56.8594 20.2949 56.8436 20.3186 56.8328 20.3447C56.8221 20.3708 56.8166 20.3988 56.8167 20.427V21.7434Z" fill="url(#paint7_linear_930_704)"/>
<path d="M57.9465 21.3816C58.0201 21.3814 58.092 21.3593 58.1531 21.3182C58.2142 21.2771 58.2617 21.2188 58.2897 21.1507C58.3176 21.0826 58.3248 21.0077 58.3102 20.9355C58.2956 20.8634 58.2599 20.7971 58.2077 20.7452C58.1555 20.6933 58.089 20.6581 58.0168 20.644C57.9445 20.6298 57.8697 20.6374 57.8017 20.6658C57.7338 20.6942 57.6758 20.7421 57.6351 20.8034C57.5944 20.8648 57.5728 20.9368 57.573 21.0105C57.5726 21.0595 57.582 21.1081 57.6007 21.1535C57.6193 21.1989 57.6469 21.24 57.6816 21.2746C57.7164 21.3092 57.7578 21.3365 57.8033 21.3548C57.8487 21.3732 57.8974 21.3823 57.9465 21.3816V21.3816Z" fill="#50E6FF"/>
<path d="M66.4627 21.7434H66.923C66.7705 21.7189 66.6151 21.7189 66.4626 21.7434H66.4627Z" fill="url(#paint8_linear_930_704)"/>
<path d="M66.4627 21.7434H66.923C66.7705 21.7189 66.6151 21.7189 66.4626 21.7434H66.4627Z" fill="url(#paint9_linear_930_704)"/>
</g>
<defs>
<linearGradient id="paint0_linear_930_704" x1="47.8697" y1="-15.1531" x2="51.8525" y2="130.615" gradientUnits="userSpaceOnUse">
<stop stop-color="#00ABDE"/>
<stop offset="1" stop-color="#007ED8"/>
</linearGradient>
<linearGradient id="paint1_linear_930_704" x1="49.6737" y1="69.8614" x2="49.6737" y2="41.2744" gradientUnits="userSpaceOnUse">
<stop stop-color="#003067"/>
<stop offset="0.16493" stop-color="#003F7C"/>
<stop offset="0.36216" stop-color="#004F90"/>
<stop offset="0.68089" stop-color="#00589D"/>
<stop offset="1" stop-color="#005BA1"/>
</linearGradient>
<linearGradient id="paint2_linear_930_704" x1="49.6739" y1="68.0779" x2="49.6739" y2="43.0643" gradientUnits="userSpaceOnUse">
<stop stop-color="#005BA1"/>
<stop offset="0.26" stop-color="#00589D"/>
<stop offset="0.53" stop-color="#004F90"/>
<stop offset="0.8" stop-color="#003F7C"/>
<stop offset="1" stop-color="#003067"/>
</linearGradient>
<linearGradient id="paint3_linear_930_704" x1="49.6738" y1="74.3202" x2="49.6738" y2="69.8614" gradientUnits="userSpaceOnUse">
<stop stop-color="#004DAE"/>
<stop offset="0.21" stop-color="#0061C4"/>
<stop offset="0.51" stop-color="#0078DD"/>
<stop offset="0.78" stop-color="#0086EC"/>
<stop offset="1" stop-color="#008BF1"/>
</linearGradient>
<linearGradient id="paint4_linear_930_704" x1="27.7766" y1="20.9778" x2="42.4888" y2="20.9778" gradientUnits="userSpaceOnUse">
<stop stop-color="#005BA1"/>
<stop offset="0.26" stop-color="#00589D"/>
<stop offset="0.53" stop-color="#004F90"/>
<stop offset="0.8" stop-color="#003F7C"/>
<stop offset="1" stop-color="#003067"/>
</linearGradient>
<linearGradient id="paint5_linear_930_704" x1="37.653" y1="27.9879" x2="37.653" y2="20.2127" gradientUnits="userSpaceOnUse">
<stop stop-color="#004DAE"/>
<stop offset="0.21" stop-color="#0061C4"/>
<stop offset="0.51" stop-color="#0078DD"/>
<stop offset="0.78" stop-color="#0086EC"/>
<stop offset="1" stop-color="#008BF1"/>
</linearGradient>
<linearGradient id="paint6_linear_930_704" x1="37.653" y1="21.7434" x2="37.653" y2="18.6127" gradientUnits="userSpaceOnUse">
<stop stop-color="#004DAE"/>
<stop offset="0.21" stop-color="#0061C4"/>
<stop offset="0.51" stop-color="#0078DD"/>
<stop offset="0.78" stop-color="#0086EC"/>
<stop offset="1" stop-color="#008BF1"/>
</linearGradient>
<linearGradient id="paint7_linear_930_704" x1="56.8167" y1="20.9778" x2="71.5288" y2="20.9778" gradientUnits="userSpaceOnUse">
<stop stop-color="#005BA1"/>
<stop offset="0.26" stop-color="#00589D"/>
<stop offset="0.53" stop-color="#004F90"/>
<stop offset="0.8" stop-color="#003F7C"/>
<stop offset="1" stop-color="#003067"/>
</linearGradient>
<linearGradient id="paint8_linear_930_704" x1="66.6928" y1="27.9879" x2="66.6928" y2="20.2127" gradientUnits="userSpaceOnUse">
<stop stop-color="#004DAE"/>
<stop offset="0.21" stop-color="#0061C4"/>
<stop offset="0.51" stop-color="#0078DD"/>
<stop offset="0.78" stop-color="#0086EC"/>
<stop offset="1" stop-color="#008BF1"/>
</linearGradient>
<linearGradient id="paint9_linear_930_704" x1="66.6928" y1="21.7434" x2="66.6928" y2="18.6127" gradientUnits="userSpaceOnUse">
<stop stop-color="#004DAE"/>
<stop offset="0.21" stop-color="#0061C4"/>
<stop offset="0.51" stop-color="#0078DD"/>
<stop offset="0.78" stop-color="#0086EC"/>
<stop offset="1" stop-color="#008BF1"/>
</linearGradient>
<clipPath id="clip0_930_704">
<rect width="99.2799" height="99.28" fill="white"/>
</clipPath>
</defs>
</svg>
