<svg width="100" height="100" viewBox="0 0 100 100" fill="none" xmlns="http://www.w3.org/2000/svg">
<g clip-path="url(#clip0_940_849)">
<path d="M49.6401 96.45C40.382 96.45 31.3317 93.7047 23.6339 88.5611C15.936 83.4176 9.93624 76.1068 6.3933 67.5534C2.85036 59 1.92337 49.5881 3.72954 40.5078C5.53571 31.4276 9.99394 23.0868 16.5404 16.5403C23.0869 9.99384 31.4277 5.53562 40.5079 3.72945C49.5882 1.92327 59.0001 2.85027 67.5535 6.39321C76.1069 9.93614 83.4176 15.9359 88.5612 23.6338C93.7047 31.3316 96.4501 40.3819 96.4501 49.64C96.4505 55.7873 95.24 61.8745 92.8878 67.5539C90.5355 73.2334 87.0875 78.3938 82.7407 82.7406C78.3939 87.0874 73.2335 90.5354 67.554 92.8877C61.8746 95.2399 55.7874 96.4504 49.6401 96.45V96.45Z" fill="url(#paint0_linear_940_849)"/>
<path fill-rule="evenodd" clip-rule="evenodd" d="M95.54 49.64C95.54 58.7182 92.848 67.5925 87.8045 75.1407C82.7609 82.6889 75.5923 88.572 67.2052 92.0461C58.818 95.5201 49.5891 96.4291 40.6854 94.658C31.7816 92.887 23.603 88.5154 17.1838 82.0962C10.7646 75.677 6.39302 67.4984 4.62196 58.5946C2.85089 49.6909 3.75987 40.462 7.23393 32.0748C10.708 23.6877 16.5911 16.5191 24.1393 11.4755C31.6875 6.43199 40.5618 3.74 49.64 3.74C55.6677 3.73998 61.6363 4.9272 67.2052 7.23388C72.774 9.54057 77.834 12.9215 82.0963 17.1837C86.3585 21.446 89.7394 26.5059 92.0461 32.0748C94.3528 37.6437 95.54 43.6123 95.54 49.64V49.64ZM49.64 3.62732e-07C59.4579 3.62732e-07 69.0553 2.91134 77.2185 8.36585C85.3818 13.8204 91.7442 21.5731 95.5014 30.6436C99.2585 39.7141 100.242 49.6951 98.3262 59.3243C96.4108 68.9535 91.6831 77.7985 84.7408 84.7408C77.7985 91.6831 68.9535 96.4108 59.3243 98.3262C49.6951 100.242 39.7141 99.2585 30.6436 95.5014C21.5731 91.7442 13.8204 85.3818 8.36585 77.2185C2.91134 69.0553 3.62732e-07 59.4579 3.62732e-07 49.64C-0.000787738 43.121 1.28265 36.6656 3.77702 30.6427C6.27138 24.6197 9.9278 19.1471 14.5375 14.5375C19.1471 9.9278 24.6197 6.27138 30.6427 3.77702C36.6656 1.28265 43.121 -0.000787738 49.64 3.62732e-07V3.62732e-07Z" fill="#F2F1F0"/>
<path fill-rule="evenodd" clip-rule="evenodd" d="M92.7296 49.6401C92.7296 58.1625 90.2024 66.4935 85.4676 73.5796C80.7328 80.6657 74.0031 86.1887 66.1294 89.4501C58.2557 92.7114 49.5918 93.5648 41.2331 91.9021C32.8745 90.2395 25.1966 86.1356 19.1703 80.1093C13.1441 74.0831 9.04017 66.4052 7.37753 58.0465C5.7149 49.6879 6.56822 41.0239 9.8296 33.1503C13.091 25.2766 18.6139 18.5469 25.7 13.8121C32.7862 9.07727 41.1172 6.55009 49.6396 6.55009C55.2983 6.54974 60.9017 7.66407 66.1298 9.82942C71.3579 11.9948 76.1082 15.1687 80.1096 19.1701C84.1109 23.1714 87.2849 27.9218 89.4502 33.1499C91.6156 38.3779 92.7299 43.9813 92.7296 49.6401V49.6401ZM49.6396 2.81009C58.9017 2.81009 67.9558 5.55662 75.6569 10.7024C83.3581 15.8481 89.3604 23.162 92.9049 31.719C96.4493 40.2761 97.3767 49.692 95.5697 58.7762C93.7628 67.8603 89.3027 76.2046 82.7534 82.7539C76.2041 89.3032 67.8598 93.7633 58.7757 95.5703C49.6915 97.3772 40.2756 96.4498 31.7185 92.9054C23.1614 89.3609 15.8476 83.3586 10.7018 75.6574C5.5561 67.9563 2.80957 58.9022 2.80957 49.6401C2.81076 37.2204 7.745 25.3097 16.5271 16.5276C25.3091 7.7455 37.2198 2.81125 49.6396 2.81006V2.81009Z" fill="#0078D4"/>
<path fill-rule="evenodd" clip-rule="evenodd" d="M92.7637 49.6401C92.7637 58.1625 90.2366 66.4935 85.5018 73.5796C80.767 80.6657 74.0372 86.1887 66.1636 89.4501C58.2899 92.7114 49.6259 93.5648 41.2673 91.9021C32.9087 90.2395 25.2308 86.1356 19.2045 80.1093C13.1783 74.0831 9.07435 66.4052 7.41171 58.0465C5.74908 49.6879 6.6024 41.0239 9.86378 33.1503C13.1252 25.2766 18.6481 18.5469 25.7342 13.8121C32.8203 9.07727 41.1514 6.55009 49.6738 6.55009C55.3325 6.54974 60.9359 7.66407 66.164 9.82942C71.3921 11.9948 76.1424 15.1687 80.1437 19.1701C84.1451 23.1714 87.3191 27.9218 89.4844 33.1499C91.6498 38.3779 92.7641 43.9813 92.7637 49.6401V49.6401ZM49.6738 2.81009C58.9359 2.81009 67.9899 5.55662 75.6911 10.7024C83.3923 15.8481 89.3946 23.162 92.939 31.719C96.4835 40.2761 97.4109 49.692 95.6039 58.7762C93.797 67.8603 89.3369 76.2046 82.7876 82.7539C76.2383 89.3032 67.894 93.7633 58.8098 95.5703C49.7257 97.3772 40.3097 96.4498 31.7527 92.9054C23.1956 89.3609 15.8818 83.3586 10.736 75.6574C5.59028 67.9563 2.84375 58.9022 2.84375 49.6401C2.84494 37.2204 7.77918 25.3097 16.5612 16.5276C25.3433 7.7455 37.254 2.81125 49.6738 2.81006V2.81009Z" fill="#0078D4"/>
<path d="M72.502 36.739H79.441V62.571H72.8" stroke="white" stroke-miterlimit="10"/>
<path d="M26.012 36.739H19.073V62.571H26.133" stroke="white" stroke-miterlimit="10"/>
<path d="M43.8864 66.8718H55.3929V78.3783H43.8864V66.8718ZM30.4622 51.5298H41.9686V40.0233H32.0683C31.6423 40.0233 31.2338 40.1925 30.9326 40.4937C30.6314 40.795 30.4622 41.2035 30.4622 41.6294V51.5298ZM32.0683 78.3783H41.9686V66.8718H30.4622V76.7722C30.4622 77.1981 30.6314 77.6067 30.9326 77.9079C31.2338 78.2091 31.6423 78.3783 32.0683 78.3783V78.3783ZM30.4622 64.954H41.9686V53.4476H30.4622V64.954ZM57.3106 78.3783H67.235C67.6568 78.372 68.0592 78.2 68.3552 77.8995C68.6512 77.5989 68.8172 77.194 68.8171 76.7722V66.8718H57.3106L57.3106 78.3783ZM43.8864 64.954H55.3929V53.4476H43.8864V64.954ZM57.3106 64.954H68.8171V53.4476H57.3106V64.954ZM57.3106 40.0233V51.5298H68.8171V41.6294C68.8172 41.2076 68.6512 40.8027 68.3552 40.5021C68.0592 40.2016 67.6568 40.0296 67.235 40.0233H57.3106ZM43.8864 51.5298H55.3929V40.0233H43.8864V51.5298Z" fill="#C3F1FF"/>
<path opacity="0.2" d="M57.3105 56.2925C59.2235 55.5928 61.0321 54.6356 62.6866 53.4476H57.3105V56.2925Z" fill="#0078D4"/>
<path opacity="0.2" d="M55.3927 40.0233H43.8862V51.5298H55.3927V40.0233Z" fill="#0078D4"/>
<path opacity="0.2" d="M43.8862 53.4476V56.8926C47.6565 57.8927 51.6224 57.8927 55.3927 56.8927V53.4476H43.8862Z" fill="#0078D4"/>
<path opacity="0.2" d="M41.9685 40.0233H32.0681C31.6421 40.0233 31.2336 40.1925 30.9324 40.4937C30.6312 40.7949 30.4619 41.2034 30.4619 41.6294V46.8625C31.5146 48.5806 32.7922 50.1502 34.2607 51.5298H41.9685V40.0233Z" fill="#0078D4"/>
<path opacity="0.2" d="M67.2349 40.0233H57.3105V51.5298H65.0183C66.4868 50.1502 67.7643 48.5805 68.8169 46.8624V41.6294C68.817 41.2076 68.6511 40.8026 68.3551 40.5021C68.0591 40.2016 67.6567 40.0296 67.2349 40.0233V40.0233Z" fill="#0078D4"/>
<path opacity="0.2" d="M36.5925 53.4476C38.247 54.6356 40.0556 55.5927 41.9685 56.2924V53.4476H36.5925Z" fill="#0078D4"/>
<path d="M49.6399 14.7202C53.6867 14.7202 57.6427 15.9202 61.0076 18.1686C64.3724 20.4169 66.995 23.6125 68.5436 27.3513C70.0923 31.0902 70.4975 35.2042 69.708 39.1734C68.9185 43.1425 66.9697 46.7883 64.1082 49.6499C61.2466 52.5114 57.6007 54.4602 53.6316 55.2497C49.6625 56.0392 45.5484 55.634 41.8096 54.0853C38.0708 52.5367 34.8752 49.9141 32.6268 46.5493C30.3785 43.1844 29.1785 39.2284 29.1785 35.1816C29.1785 32.4945 29.7077 29.8338 30.736 27.3513C31.7642 24.8688 33.2714 22.6132 35.1714 20.7132C37.0715 18.8131 39.3271 17.306 41.8096 16.2777C44.2921 15.2494 46.9528 14.7202 49.6399 14.7202V14.7202ZM55.6523 44.3872H43.6274C44.9614 49.3262 47.28 52.5742 49.6399 52.5742C51.9997 52.5742 54.3182 49.3262 55.6523 44.3872V44.3872ZM40.4506 44.3884L34.8809 44.3882C36.8564 47.5486 39.7916 49.9937 43.2569 51.3657C42.0882 49.4502 41.2123 47.3708 40.6581 45.1965L40.4506 44.3884ZM64.3988 44.3882L58.8291 44.3884C58.2771 46.851 57.3285 49.2074 56.0206 51.3657C59.267 50.0816 62.0536 47.853 64.0199 44.9682L64.3988 44.3882ZM39.6019 31.0886H32.7328L32.7231 31.1239C31.9167 34.5103 32.1389 38.0603 33.3613 41.3196L39.853 41.3188C39.5529 39.2869 39.4041 37.2355 39.4076 35.1816C39.4076 33.7822 39.474 32.4132 39.6019 31.0886ZM56.5893 31.0887H42.6903C42.5469 32.4483 42.4755 33.8145 42.4763 35.1816C42.4727 37.2374 42.6368 39.2901 42.9667 41.3192H56.3129C56.6429 39.2901 56.8069 37.2374 56.8033 35.1816C56.8041 33.8145 56.7327 32.4483 56.5893 31.0887ZM66.5478 31.0869L59.6779 31.0886C59.8058 32.4132 59.872 33.7822 59.872 35.1816C59.8755 37.2355 59.7267 39.2869 59.4267 41.3188L65.9185 41.3196C67.1453 38.0481 67.3645 34.4841 66.5478 31.0869V31.0869ZM43.2591 18.9974L43.2122 19.0152C39.0246 20.6867 35.6463 23.9139 33.7851 28.0207L40.021 28.0214C40.5149 24.8344 41.614 21.7714 43.2591 18.9974V18.9974ZM49.6399 17.7889L49.4032 17.7998C46.8144 18.0366 44.3134 22.1322 43.152 28.0206H56.1278C54.9694 22.1487 52.4793 18.0596 49.8983 17.8018L49.6399 17.7889ZM56.0229 18.9975L56.2414 19.3537C57.7559 22.0399 58.7777 24.9754 59.2588 28.0214L65.4946 28.0207C63.7184 24.1018 60.5576 20.9769 56.6186 19.2456L56.0229 18.9975Z" fill="#0078D4"/>
<path d="M55.6522 44.3872H43.6272C44.9612 49.3262 47.2799 52.5742 49.6397 52.5742C51.9996 52.5742 54.3181 49.3262 55.6522 44.3872ZM40.4505 44.3884L34.8808 44.3882C36.8563 47.5486 39.7914 49.9937 43.2567 51.3657C42.0881 49.4502 41.2122 47.3708 40.658 45.1965L40.4505 44.3884ZM64.3987 44.3882L58.829 44.3884C58.277 46.8509 57.3284 49.2074 56.0205 51.3657C59.2669 50.0815 62.0535 47.853 64.0198 44.9682L64.3987 44.3882ZM39.6017 31.0886H32.7327L32.723 31.1239C31.9165 34.5103 32.1387 38.0603 33.3611 41.3196L39.8529 41.3188C39.5528 39.2869 39.4039 37.2355 39.4074 35.1816C39.4074 33.7822 39.4739 32.4132 39.6017 31.0886ZM56.5892 31.0887H42.6902C42.5468 32.4483 42.4753 33.8145 42.4761 35.1816C42.4726 37.2374 42.6366 39.2901 42.9666 41.3192H56.3128C56.6427 39.2901 56.8068 37.2374 56.8032 35.1816C56.804 33.8145 56.7326 32.4483 56.5892 31.0887ZM66.5476 31.0869L59.6778 31.0886C59.8056 32.4132 59.8719 33.7822 59.8719 35.1816C59.8754 37.2355 59.7266 39.2869 59.4265 41.3188L65.9183 41.3196C67.1452 38.0481 67.3643 34.4841 66.5476 31.0869V31.0869ZM43.2589 18.9974L43.2121 19.0152C39.0244 20.6867 35.6461 23.9139 33.7849 28.0207L40.0208 28.0214C40.5148 24.8344 41.6139 21.7714 43.2589 18.9974V18.9974ZM49.6398 17.7889L49.4031 17.7998C46.8143 18.0366 44.3133 22.1322 43.1519 28.0206H56.1277C54.9693 22.1487 52.4791 18.0596 49.8981 17.8018L49.6398 17.7889ZM56.0228 18.9975L56.2413 19.3537C57.7557 22.0399 58.7776 24.9754 59.2587 28.0214L65.4945 28.0207C63.7183 24.1018 60.5575 20.9769 56.6185 19.2456L56.0228 18.9975Z" fill="#C3F1FF"/>
</g>
<defs>
<linearGradient id="paint0_linear_940_849" x1="47.8697" y1="-15.1531" x2="51.8525" y2="130.615" gradientUnits="userSpaceOnUse">
<stop stop-color="#00ABDE"/>
<stop offset="1" stop-color="#007ED8"/>
</linearGradient>
<clipPath id="clip0_940_849">
<rect width="99.2799" height="99.28" fill="white"/>
</clipPath>
</defs>
</svg>
