<svg width="100" height="100" viewBox="0 0 100 100" fill="none" xmlns="http://www.w3.org/2000/svg">
<g clip-path="url(#clip0_932_428)">
<path d="M49.6401 96.4499C40.382 96.4499 31.3317 93.7045 23.6339 88.561C15.936 83.4174 9.93624 76.1067 6.3933 67.5533C2.85036 58.9999 1.92337 49.588 3.72954 40.5077C5.53571 31.4275 9.99394 23.0867 16.5404 16.5402C23.0869 9.99372 31.4277 5.5355 40.5079 3.72933C49.5882 1.92315 59.0001 2.85015 67.5535 6.39308C76.1069 9.93602 83.4176 15.9358 88.5612 23.6336C93.7047 31.3315 96.4501 40.3817 96.4501 49.6399C96.4505 55.7872 95.24 61.8744 92.8878 67.5538C90.5355 73.2332 87.0875 78.3937 82.7407 82.7405C78.3939 87.0873 73.2335 90.5353 67.554 92.8876C61.8746 95.2398 55.7874 96.4503 49.6401 96.4499V96.4499Z" fill="url(#paint0_linear_932_428)"/>
<path fill-rule="evenodd" clip-rule="evenodd" d="M95.54 49.6399C95.54 58.718 92.848 67.5923 87.8045 75.1406C82.7609 82.6888 75.5923 88.5719 67.2052 92.046C58.818 95.52 49.5891 96.429 40.6854 94.6579C31.7816 92.8869 23.603 88.5153 17.1838 82.0961C10.7646 75.6769 6.39302 67.4983 4.62196 58.5945C2.85089 49.6908 3.75987 40.4618 7.23393 32.0747C10.708 23.6876 16.5911 16.519 24.1393 11.4754C31.6875 6.43187 40.5618 3.73988 49.64 3.73988C55.6677 3.73986 61.6363 4.92708 67.2052 7.23377C72.774 9.54045 77.834 12.9214 82.0963 17.1836C86.3585 21.4458 89.7394 26.5058 92.0461 32.0747C94.3528 37.6435 95.54 43.6122 95.54 49.6399V49.6399ZM49.64 -0.000106449C59.4579 -0.000106449 69.0552 2.91123 77.2185 8.36574C85.3818 13.8203 91.7442 21.573 95.5014 30.6435C99.2585 39.714 100.242 49.695 98.3262 59.3242C96.4108 68.9534 91.6831 77.7984 84.7408 84.7407C77.7985 91.683 68.9535 96.4107 59.3243 98.3261C49.6951 100.241 39.7141 99.2584 30.6436 95.5013C21.5731 91.7441 13.8204 85.3816 8.36584 77.2184C2.91133 69.0551 -1.61629e-06 59.4577 3.61524e-07 49.6399C-0.000786426 43.1208 1.28265 36.6655 3.77702 30.6425C6.27138 24.6196 9.92781 19.147 14.5375 14.5374C19.1471 9.9277 24.6197 6.27127 30.6427 3.77691C36.6656 1.28254 43.121 -0.000894549 49.64 -0.000106449V-0.000106449Z" fill="#F2F1F0"/>
<path fill-rule="evenodd" clip-rule="evenodd" d="M92.7296 49.64C92.7296 58.1624 90.2024 66.4934 85.4676 73.5795C80.7328 80.6656 74.0031 86.1886 66.1294 89.45C58.2557 92.7113 49.5918 93.5647 41.2331 91.902C32.8745 90.2394 25.1966 86.1355 19.1703 80.1092C13.1441 74.083 9.04017 66.4051 7.37753 58.0464C5.7149 49.6878 6.56822 41.0238 9.8296 33.1502C13.091 25.2765 18.6139 18.5468 25.7 13.812C32.7862 9.07718 41.1172 6.55 49.6396 6.55C55.2983 6.54965 60.9017 7.66397 66.1298 9.82933C71.3579 11.9947 76.1082 15.1687 80.1096 19.17C84.1109 23.1713 87.2849 27.9217 89.4502 33.1498C91.6156 38.3778 92.7299 43.9812 92.7296 49.64ZM49.6396 2.81C58.9017 2.81 67.9558 5.55653 75.6569 10.7023C83.3581 15.848 89.3604 23.1619 92.9049 31.7189C96.4493 40.276 97.3767 49.6919 95.5697 58.7761C93.7628 67.8602 89.3027 76.2045 82.7534 82.7538C76.2041 89.3031 67.8598 93.7632 58.7757 95.5702C49.6915 97.3771 40.2756 96.4497 31.7185 92.9053C23.1614 89.3608 15.8476 83.3585 10.7018 75.6574C5.5561 67.9562 2.80957 58.9021 2.80957 49.64C2.81076 37.2203 7.74501 25.3096 16.5271 16.5275C25.3091 7.74544 37.2198 2.81119 49.6396 2.81V2.81Z" fill="#0078D4"/>
<path fill-rule="evenodd" clip-rule="evenodd" d="M92.7296 49.6399C92.7296 58.1623 90.2024 66.4933 85.4676 73.5794C80.7328 80.6655 74.0031 86.1885 66.1294 89.4499C58.2557 92.7112 49.5918 93.5646 41.2331 91.9019C32.8745 90.2393 25.1966 86.1354 19.1703 80.1091C13.1441 74.0829 9.04017 66.405 7.37753 58.0463C5.7149 49.6877 6.56822 41.0237 9.8296 33.1501C13.091 25.2764 18.6139 18.5467 25.7001 13.8119C32.7862 9.07708 41.1172 6.5499 49.6396 6.5499C55.2983 6.54956 60.9017 7.66388 66.1298 9.82923C71.3579 11.9946 76.1082 15.1686 80.1096 19.1699C84.1109 23.1712 87.2849 27.9216 89.4502 33.1497C91.6156 38.3777 92.7299 43.9811 92.7296 49.6399V49.6399ZM49.6396 2.8099C58.9017 2.8099 67.9558 5.55643 75.6569 10.7022C83.3581 15.8479 89.3604 23.1618 92.9048 31.7188C96.4493 40.2759 97.3767 49.6918 95.5697 58.776C93.7628 67.8601 89.3027 76.2044 82.7534 82.7537C76.2041 89.303 67.8598 93.7631 58.7757 95.5701C49.6915 97.377 40.2756 96.4496 31.7185 92.9052C23.1614 89.3607 15.8476 83.3584 10.7018 75.6573C5.5561 67.9561 2.80957 58.902 2.80957 49.6399C2.81075 37.2202 7.74499 25.3095 16.5271 16.5274C25.3091 7.7453 37.2198 2.81105 49.6396 2.80986V2.8099Z" fill="#0078D4"/>
<path d="M43.3781 39.5883H30.7765C30.0624 39.5904 29.3783 39.875 28.8734 40.3799C28.3684 40.8848 28.0839 41.569 28.0818 42.283V54.5608H71.197V46.3251C71.1949 45.611 70.9104 44.9268 70.4055 44.4219C69.9006 43.917 69.2164 43.6325 68.5023 43.6304H48.292L45.9131 40.7757C45.6034 40.404 45.2158 40.1051 44.7777 39.8999C44.3397 39.6947 43.8618 39.5883 43.3781 39.5883V39.5883Z" fill="url(#paint1_linear_932_428)"/>
<path fill-rule="evenodd" clip-rule="evenodd" d="M37.9156 19.3604C37.2615 19.3623 36.6348 19.6229 36.1723 20.0854C35.7098 20.5479 35.4492 21.1746 35.4473 21.8287V56.3849C35.4492 57.039 35.7098 57.6657 36.1723 58.1282C36.6348 58.5906 37.2615 58.8513 37.9156 58.8532H61.3644C62.0185 58.8514 62.6453 58.5908 63.1078 58.1283C63.5703 57.6658 63.8309 57.039 63.8327 56.3849V29.2336L53.9595 19.3604H37.9156Z" fill="white"/>
<path fill-rule="evenodd" clip-rule="evenodd" d="M56.428 29.2336H63.8329L53.9597 19.3604V26.7653C53.9616 27.4193 54.2223 28.046 54.6848 28.5085C55.1473 28.971 55.774 29.2317 56.428 29.2336Z" fill="#E8E8E8"/>
<path fill-rule="evenodd" clip-rule="evenodd" d="M57.6622 42.1921H41.6182C41.2909 42.1921 40.977 42.062 40.7455 41.8306C40.5141 41.5991 40.384 41.2852 40.384 40.9579C40.384 40.6306 40.5141 40.3167 40.7455 40.0852C40.977 39.8538 41.2909 39.7238 41.6182 39.7238H57.6622C57.9895 39.7238 58.3034 39.8538 58.5349 40.0852C58.7663 40.3167 58.8963 40.6306 58.8963 40.9579C58.8963 41.2852 58.7663 41.5991 58.5349 41.8306C58.3034 42.062 57.9895 42.1921 57.6622 42.1921H57.6622Z" fill="#50E6FF"/>
<path fill-rule="evenodd" clip-rule="evenodd" d="M57.6622 47.7458H41.6182C41.2909 47.7458 40.977 47.6157 40.7455 47.3843C40.5141 47.1528 40.384 46.8389 40.384 46.5116C40.384 46.1843 40.5141 45.8704 40.7455 45.6389C40.977 45.4075 41.2909 45.2775 41.6182 45.2775H57.6622C57.9895 45.2775 58.3034 45.4075 58.5349 45.6389C58.7663 45.8704 58.8963 46.1843 58.8963 46.5116C58.8963 46.8389 58.7663 47.1528 58.5349 47.3843C58.3034 47.6157 57.9895 47.7458 57.6622 47.7458H57.6622Z" fill="#9CEBFF"/>
<path fill-rule="evenodd" clip-rule="evenodd" d="M57.6622 53.2994H41.6182C41.2909 53.2994 40.977 53.1694 40.7455 52.938C40.5141 52.7065 40.384 52.3926 40.384 52.0653C40.384 51.738 40.5141 51.4241 40.7455 51.1926C40.977 50.9612 41.2909 50.8311 41.6182 50.8311H57.6622C57.9895 50.8311 58.3034 50.9612 58.5349 51.1926C58.7663 51.4241 58.8963 51.738 58.8963 52.0653C58.8963 52.3926 58.7663 52.7065 58.5349 52.938C58.3034 53.1694 57.9895 53.2994 57.6622 53.2994H57.6622Z" fill="#C3F1FF"/>
<path opacity="0.5" fill-rule="evenodd" clip-rule="evenodd" d="M63.8329 36.6385L56.428 29.2336H63.8329V36.6385Z" fill="#F2F2F2"/>
<path d="M48.3386 32.2717C48.6836 32.2717 49.0145 32.4088 49.2585 32.6528C49.5025 32.8968 49.6395 33.2277 49.6395 33.5727V34.104C49.6395 34.4357 49.5358 34.7591 49.343 35.0289C48.8322 35.6753 48.1689 36.1847 47.4125 36.5114C46.6562 36.838 45.8306 36.9716 45.0098 36.9003C44.1894 36.9719 43.3639 36.8383 42.6079 36.5114C41.852 36.1846 41.1892 35.6748 40.6793 35.028C40.4872 34.7585 40.384 34.4358 40.384 34.1049V33.5727C40.384 33.4019 40.4177 33.2327 40.483 33.0748C40.5484 32.917 40.6442 32.7736 40.765 32.6528C40.8858 32.532 41.0293 32.4361 41.1871 32.3707C41.345 32.3054 41.5141 32.2717 41.685 32.2717H48.3386ZM45.0098 25.3326C45.5819 25.3326 46.1411 25.5022 46.6168 25.8201C47.0925 26.1379 47.4632 26.5896 47.6821 27.1182C47.901 27.6467 47.9583 28.2283 47.8467 28.7893C47.7351 29.3504 47.4596 29.8658 47.0551 30.2703C46.6506 30.6748 46.1352 30.9503 45.5741 31.0619C45.0131 31.1735 44.4315 31.1162 43.903 30.8973C43.3744 30.6784 42.9227 30.3076 42.6049 29.832C42.2871 29.3563 42.1174 28.7971 42.1174 28.225C42.1174 27.4579 42.4222 26.7222 42.9646 26.1798C43.507 25.6374 44.2427 25.3326 45.0098 25.3326V25.3326Z" fill="url(#paint2_linear_932_428)"/>
<path opacity="0.3" d="M32.0863 46.5852H67.1925C68.2546 46.5852 69.2732 47.0071 70.0241 47.7581C70.7751 48.5091 71.197 49.5276 71.197 50.5897V52.1022H28.0818V50.5897C28.0818 49.5276 28.5037 48.5091 29.2547 47.7581C30.0057 47.0071 31.0242 46.5852 32.0863 46.5852V46.5852Z" fill="#000C1A"/>
<path d="M71.197 51.9309V69.9264C71.197 70.8137 70.8445 71.6647 70.2171 72.2922C69.5896 72.9196 68.7387 73.2721 67.8513 73.2721H31.4275C30.5402 73.2721 29.6892 72.9196 29.0617 72.2922C28.4343 71.6647 28.0818 70.8137 28.0818 69.9264V51.9309C28.0818 51.0436 28.4343 50.1926 29.0617 49.5651C29.6892 48.9377 30.5402 48.5852 31.4275 48.5852H67.8513C68.7387 48.5852 69.5896 48.9377 70.2171 49.5651C70.8445 50.1926 71.197 51.0436 71.197 51.9309Z" fill="url(#paint3_linear_932_428)"/>
<path d="M49.2155 60.5041H43.2722V54.5608H49.2155V60.5041ZM56.0079 60.5041H50.0646V54.5608H56.0079V60.5041ZM49.2155 67.2965H43.2722V61.3532H49.2155V67.2965ZM56.0079 67.2965H50.0646V61.3532H56.0079V67.2965Z" fill="#9CEBFF"/>
</g>
<defs>
<linearGradient id="paint0_linear_932_428" x1="47.8698" y1="-15.1532" x2="51.8525" y2="130.615" gradientUnits="userSpaceOnUse">
<stop stop-color="#00ABDE"/>
<stop offset="1" stop-color="#007ED8"/>
</linearGradient>
<linearGradient id="paint1_linear_932_428" x1="49.6394" y1="39.5883" x2="49.6394" y2="54.5877" gradientUnits="userSpaceOnUse">
<stop stop-color="#005BA1"/>
<stop offset="0.26" stop-color="#00589D"/>
<stop offset="0.53" stop-color="#004F90"/>
<stop offset="0.8" stop-color="#003F7C"/>
<stop offset="1" stop-color="#003067"/>
</linearGradient>
<linearGradient id="paint2_linear_932_428" x1="45.0118" y1="36.9002" x2="45.0118" y2="25.3326" gradientUnits="userSpaceOnUse">
<stop stop-color="#004DAE"/>
<stop offset="0.21" stop-color="#0061C4"/>
<stop offset="0.51" stop-color="#0078DD"/>
<stop offset="0.78" stop-color="#0086EC"/>
<stop offset="1" stop-color="#008BF1"/>
</linearGradient>
<linearGradient id="paint3_linear_932_428" x1="49.6394" y1="48.5852" x2="49.6394" y2="73.2721" gradientUnits="userSpaceOnUse">
<stop stop-color="#008BF1"/>
<stop offset="0.22" stop-color="#0086EC"/>
<stop offset="0.49" stop-color="#0078DD"/>
<stop offset="0.79" stop-color="#0061C4"/>
<stop offset="1" stop-color="#004DAE"/>
</linearGradient>
<clipPath id="clip0_932_428">
<rect width="99.2799" height="99.28" fill="white"/>
</clipPath>
</defs>
</svg>
