<svg width="103" height="103" viewBox="0 0 103 103" fill="none" xmlns="https://www.w3.org/2000/svg">
<path d="M51.4999 98.4282C25.6499 98.4282 4.68994 77.4782 4.68994 51.6182C4.68994 25.7582 25.6499 4.80817 51.4999 4.80817C77.3499 4.80817 98.3099 25.7682 98.3099 51.6182C98.3099 77.4682 77.3499 98.4282 51.4999 98.4282Z" fill="url(#paint0_linear)"/>
<path fill-rule="evenodd" clip-rule="evenodd" d="M97.4001 51.6181C97.4001 76.9681 76.8501 97.5182 51.5001 97.5182C26.1501 97.5182 5.60011 76.9681 5.60011 51.6181C5.60011 26.2681 26.1501 5.71815 51.5001 5.71815C76.8501 5.71815 97.4001 26.2681 97.4001 51.6181ZM51.5001 1.97815C78.9201 1.97815 101.14 24.1981 101.14 51.6181C101.14 79.0381 78.9101 101.258 51.5001 101.258C24.0801 101.258 1.86011 79.0281 1.86011 51.6181C1.86011 24.1981 24.0801 1.97815 51.5001 1.97815Z" fill="#F2F1F0"/>
<path fill-rule="evenodd" clip-rule="evenodd" d="M94.5899 51.6181C94.5899 75.4181 75.2999 94.7081 51.4999 94.7081C27.6999 94.7081 8.40992 75.4181 8.40992 51.6181C8.40992 27.8181 27.6999 8.52815 51.4999 8.52815C75.2999 8.52815 94.5899 27.8181 94.5899 51.6181ZM51.4999 4.78815C77.3599 4.78815 98.3299 25.7581 98.3299 51.6181C98.3299 77.4781 77.3599 98.4482 51.4999 98.4482C25.6399 98.4482 4.66992 77.4781 4.66992 51.6181C4.66992 25.7581 25.6299 4.78815 51.4999 4.78815Z" fill="url(#paint1_linear)"/>
<path opacity="0.15" d="M90.8601 62.7181V38.4681L69.8501 26.3381L48.8501 38.4681V62.7181L69.8501 74.8481L90.8601 62.7181Z" fill="#383838"/>
<path d="M90.9001 60.8681V36.5681L69.85 24.4081L48.8 36.5581V60.8581L69.85 73.0081L90.9001 60.8681Z" fill="#0096B5"/>
<path d="M89.0599 59.7982V37.6182L69.8399 26.5182L50.6399 37.6182V59.7982L69.8499 70.8982L89.0599 59.7982Z" fill="#0B343A"/>
<path d="M70.3999 44.4281C77.8599 44.4281 84.2199 41.0181 86.6599 36.2281L69.8499 26.5281L53.8999 35.7381C56.1399 40.7781 62.6799 44.4281 70.3999 44.4281Z" fill="#1E4349"/>
<path d="M69.6 33.5682C69.59 33.5682 69.59 33.5682 69.58 33.5682C69.58 33.5682 69.58 33.5682 69.57 33.5682C69.21 33.5782 68.93 33.8582 68.93 34.2182C68.93 34.5782 69.22 34.8782 69.59 34.8782C69.6 34.8782 69.62 34.8782 69.63 34.8782C74.62 34.8882 78.66 38.9482 78.66 43.9282C78.66 48.9282 74.6 52.9782 69.61 52.9782C64.61 52.9782 60.56 48.9182 60.56 43.9282C60.56 43.8482 60.56 43.7782 60.57 43.6982C60.57 43.6882 60.57 43.6782 60.57 43.6682C60.57 43.6582 60.57 43.6582 60.57 43.6482C60.57 43.6382 60.57 43.6282 60.57 43.6182C60.55 43.2782 60.27 42.9982 59.92 42.9982C59.57 42.9982 59.29 43.2682 59.27 43.6182V43.6282C59.27 43.6382 59.27 43.6482 59.27 43.6582C59.27 43.6682 59.27 43.6682 59.27 43.6782C59.27 43.7582 59.26 43.8382 59.26 43.9182C59.26 49.6382 63.9 54.2882 69.63 54.2882C75.36 54.2882 80 49.6482 80 43.9182C79.97 38.2082 75.32 33.5682 69.6 33.5682Z" fill="#0095A9"/>
<path d="M69.5999 41.2982C69.5899 41.2982 69.5799 41.2982 69.5799 41.2982H69.5699C69.2199 41.2982 68.9399 41.5782 68.9399 41.9282C68.9399 42.2782 69.2199 42.5582 69.5699 42.5582H69.5799C69.5899 42.5582 69.5999 42.5582 69.6099 42.5582C70.3699 42.5582 70.9799 43.1782 70.9799 43.9282C70.9799 43.9882 70.9799 44.0382 70.9699 44.0882C70.9699 44.1082 70.9699 44.1182 70.9699 44.1382C70.9699 44.1482 70.9699 44.1582 70.9699 44.1682C70.9699 44.5182 71.2499 44.7982 71.5999 44.7982C71.9499 44.7982 72.2299 44.5182 72.2299 44.1682C72.2299 44.1582 72.2299 44.1482 72.2299 44.1482C72.2399 44.0682 72.2399 44.0082 72.2399 43.9282C72.2299 42.4782 71.0599 41.2982 69.5999 41.2982Z" fill="#0496AD"/>
<path d="M69.5699 50.4382C69.6199 50.4382 69.6599 50.4282 69.7099 50.4182C73.2399 50.3582 76.0999 47.4782 76.0999 43.9282C76.0999 40.3682 73.2299 37.4782 69.6899 37.4382C69.6499 37.4282 69.6199 37.4282 69.5899 37.4282C69.2199 37.4282 68.9199 37.7282 68.9199 38.0982C68.9199 38.4682 69.2199 38.7682 69.5899 38.7682C69.5999 38.7682 69.6199 38.7682 69.6299 38.7682C72.4699 38.7782 74.7799 41.0782 74.7799 43.9282C74.7799 46.7782 72.4699 49.0882 69.6199 49.0882C69.6099 49.0882 69.5999 49.0882 69.5999 49.0882C69.2299 49.0882 68.9299 49.3882 68.9299 49.7582C68.9299 50.1282 69.1999 50.4382 69.5699 50.4382Z" fill="#73C8DB"/>
<path d="M68.88 57.2181H67.78L67.09 59.9781L66.41 57.2181H65.2L64.5 59.9781L63.82 57.2181H62.46L63.69 61.3881H65.04L65.69 58.7681L66.34 61.3881H67.63L68.88 57.2181Z" fill="white"/>
<path d="M70.6 57.2382H69.25V63.1582H70.6V57.2382Z" fill="white"/>
<path d="M71.7599 57.1582C70.7599 57.1582 69.9299 58.1282 69.9299 59.3282C69.9299 60.5282 70.7399 61.4982 71.7599 61.4982C72.7799 61.4982 73.5899 60.5282 73.5899 59.3282C73.5899 58.1282 72.7699 57.1582 71.7599 57.1582ZM71.3599 60.4882C70.8799 60.4882 70.4899 59.9582 70.4899 59.2982C70.4899 58.6482 70.8799 58.1082 71.3599 58.1082C71.8399 58.1082 72.2299 58.6382 72.2299 59.2982C72.2299 59.9582 71.8499 60.4882 71.3599 60.4882Z" fill="white"/>
<path d="M76.7401 58.6382C76.7401 58.6382 75.4401 58.5482 74.8301 58.7282C74.2101 58.9182 73.8301 59.3382 73.8301 60.1682C73.8301 60.9982 74.6301 61.4182 75.2201 61.4182C76.0001 61.4182 76.6301 60.6082 76.6401 60.5482C76.6601 60.4782 76.8501 59.7082 76.8501 59.7082L76.7401 58.6382ZM76.0801 60.2082C75.7801 60.4782 75.1401 60.4782 75.0601 60.2082C74.9701 59.9382 75.1001 59.5282 75.4501 59.3782C75.8101 59.2282 76.4101 59.3582 76.4101 59.3582L76.6001 59.4782C76.5901 59.4682 76.3801 59.9382 76.0801 60.2082Z" fill="white"/>
<path d="M74.3 58.3982C74.3 58.3482 74.3 57.5082 74.3 57.5082C74.3 57.5082 74.81 56.9782 75.96 57.0582C77.11 57.1482 77.62 57.8482 77.64 58.6282C77.66 59.4182 77.66 61.4182 77.66 61.4182H76.45C76.45 61.4182 76.45 58.9982 76.45 58.5782C76.45 58.1482 76.01 57.9582 75.39 57.9582C74.86 57.9682 74.3 58.3982 74.3 58.3982Z" fill="white"/>
<path opacity="0.15" d="M70.8499 78.5781L51.9899 59.7181C54.7299 56.1681 56.3499 51.7081 56.3499 46.8881C56.3499 35.2281 46.8799 25.7881 35.2399 25.7881C23.5999 25.7881 14.1399 35.2281 14.1399 46.8881C14.1399 58.5381 23.5799 67.9882 35.2399 67.9882C39.9199 67.9882 44.2299 66.4681 47.7499 63.8981L66.6499 82.7981C66.6499 82.7981 68.2999 83.4381 70.0399 81.6181C71.7799 79.7781 70.8499 78.5781 70.8499 78.5781ZM17.2699 46.9481C17.2699 37.0581 25.2899 29.0381 35.1799 29.0381C45.0699 29.0381 53.0899 37.0581 53.0899 46.9481C53.0899 56.8381 45.0499 64.8581 35.1699 64.8581C25.2899 64.8581 17.2699 56.8381 17.2699 46.9481Z" fill="#1F1D20"/>
<path d="M35.85 64.6382C46.54 64.6382 55.22 55.9682 55.22 45.2682C55.22 34.5782 46.56 25.8882 35.85 25.8882C25.16 25.8882 16.47 34.5582 16.47 45.2682C16.47 55.9782 25.15 64.6382 35.85 64.6382Z" fill="#F2F1F0"/>
<path d="M70.8499 77.2582L51.9899 58.3882C54.7299 54.8382 56.3499 50.3782 56.3499 45.5582C56.3499 33.8982 46.8799 24.4582 35.2399 24.4582C23.5999 24.4582 14.1399 33.8982 14.1399 45.5582C14.1399 57.2082 23.5799 66.6582 35.2399 66.6582C39.9199 66.6582 44.2299 65.1382 47.7499 62.5682L66.6499 81.4682C66.6499 81.4682 68.2999 82.1082 70.0399 80.2882C71.7799 78.4582 70.8499 77.2582 70.8499 77.2582ZM17.2699 45.6282C17.2699 35.7382 25.2899 27.7182 35.1799 27.7182C45.0699 27.7182 53.0899 35.7382 53.0899 45.6282C53.0899 55.5182 45.0499 63.5382 35.1699 63.5382C25.2899 63.5382 17.2699 55.5182 17.2699 45.6282Z" fill="#1F65B7"/>
<path d="M35.3299 35.1682C28.0499 35.1682 22.1499 39.1182 22.1499 43.9782C22.1499 48.8482 28.0499 52.7882 35.3299 52.7882C42.6099 52.7882 48.5099 48.8382 48.5099 43.9782C48.5099 39.1182 42.6099 35.1682 35.3299 35.1682ZM44.1899 49.1682C42.4099 50.2482 39.9299 50.5882 37.2199 50.5882C31.7999 50.5882 27.3999 47.9282 27.3999 44.6382C27.3999 41.3482 31.6499 38.6082 37.0699 38.6082C39.9499 38.6082 42.6399 39.1282 44.4299 40.3282C46.0199 41.3882 47.0299 43.0982 47.0299 44.6382C47.0399 46.2782 45.9699 48.0882 44.1899 49.1682Z" fill="url(#paint2_linear)"/>
<path d="M44.2901 49.9382C43.8401 49.2382 42.8301 49.0182 42.4001 48.8682C42.3201 48.8382 42.2201 48.7882 42.1301 48.7382C43.7701 48.5282 45.2601 47.7882 45.7001 46.5382C46.2301 45.0482 46.0901 44.4382 46.0901 44.4382C46.0901 42.3982 44.4301 40.7382 42.3901 40.7382H33.0901V55.4282H37.4701V49.6182C37.5401 49.6082 37.6001 49.6082 37.6501 49.6082C37.9101 49.6082 38.8001 49.5982 39.0701 49.7182C39.3401 49.8382 39.7801 50.3982 39.7801 50.3982L42.4401 55.4382H47.4701L44.2901 49.9382ZM40.2201 46.4082H37.4801V43.7182H40.2201C40.9601 43.7182 41.5601 44.3182 41.5601 45.0582C41.5701 45.7982 40.9601 46.4082 40.2201 46.4082Z" fill="#1F65B7"/>
<defs>
<linearGradient id="paint0_linear" x1="49.73" y1="-13.1714" x2="53.712" y2="132.599" gradientUnits="userSpaceOnUse">
<stop stop-color="#00ABDE"/>
<stop offset="1" stop-color="#007ED8"/>
</linearGradient>
<linearGradient id="paint1_linear" x1="2.93302" y1="-20.0069" x2="98.46" y2="120.874" gradientUnits="userSpaceOnUse">
<stop stop-color="#007ED8"/>
<stop offset="0.7065" stop-color="#002D4C"/>
</linearGradient>
<linearGradient id="paint2_linear" x1="27.412" y1="38.6485" x2="46.9521" y2="51.8059" gradientUnits="userSpaceOnUse">
<stop stop-color="#BDBFC2"/>
<stop offset="1" stop-color="#908F96"/>
</linearGradient>
</defs>
</svg>
