<svg width="102" height="102" viewBox="0 0 102 102" fill="none" xmlns="http://www.w3.org/2000/svg">
<path d="M50.9999 97.8099C25.1499 97.8099 4.18994 76.8599 4.18994 50.9999C4.18994 25.1399 25.1499 4.18994 50.9999 4.18994C76.8499 4.18994 97.8099 25.1499 97.8099 50.9999C97.8099 76.8499 76.8499 97.8099 50.9999 97.8099Z" fill="url(#paint0_linear)"/>
<path fill-rule="evenodd" clip-rule="evenodd" d="M96.9001 51.0001C96.9001 76.3501 76.3501 96.9001 51.0001 96.9001C25.6501 96.9001 5.10011 76.3501 5.10011 51.0001C5.10011 25.6501 25.6501 5.10011 51.0001 5.10011C76.3501 5.10011 96.9001 25.6501 96.9001 51.0001ZM51.0001 1.36011C78.4201 1.36011 100.64 23.5801 100.64 51.0001C100.64 78.4201 78.4101 100.64 51.0001 100.64C23.5801 100.64 1.36011 78.4101 1.36011 51.0001C1.36011 23.5801 23.5801 1.36011 51.0001 1.36011Z" fill="#F2F1F0"/>
<path fill-rule="evenodd" clip-rule="evenodd" d="M94.0899 50.9999C94.0899 74.7999 74.7999 94.0899 50.9999 94.0899C27.1999 94.0899 7.90992 74.7999 7.90992 50.9999C7.90992 27.1999 27.1999 7.90992 50.9999 7.90992C74.7999 7.90992 94.0899 27.1999 94.0899 50.9999ZM50.9999 4.16992C76.8599 4.16992 97.8299 25.1399 97.8299 50.9999C97.8299 76.8599 76.8599 97.8299 50.9999 97.8299C25.1399 97.8299 4.16992 76.8599 4.16992 50.9999C4.16992 25.1399 25.1299 4.16992 50.9999 4.16992Z" fill="url(#paint1_linear)"/>
<path d="M50.9599 30.4198C48.0599 30.4198 45.6899 28.0398 45.6899 25.1198C45.6899 22.1998 48.0599 19.8198 50.9599 19.8198C53.8599 19.8198 56.2299 22.1998 56.2299 25.1198C56.2299 28.0398 53.8599 30.4198 50.9599 30.4198ZM50.9599 21.9198C49.2099 21.9198 47.7899 23.3498 47.7899 25.1198C47.7899 26.8898 49.2099 28.3198 50.9599 28.3198C52.7099 28.3198 54.1299 26.8898 54.1299 25.1198C54.1299 23.3498 52.7099 21.9198 50.9599 21.9198Z" fill="url(#paint2_linear)"/>
<path d="M64.4401 80.7699H38.1601L35.4001 85.9199L33.5601 84.9299L41.2101 70.6799L43.0401 71.6899L39.2801 78.6799H63.3201L59.5601 71.6899L61.4001 70.6999L69.0501 84.9499L67.2101 85.9399L64.4401 80.7699Z" fill="url(#paint3_linear)"/>
<path d="M79.7801 30.7798H22.8401V69.0598H79.7801V30.7798Z" fill="url(#paint4_linear)"/>
<path d="M22.1001 25.1099H80.5101C81.6601 25.1099 82.6001 26.0499 82.6001 27.1999V29.3899C82.6001 30.5399 81.6601 31.4799 80.5101 31.4799H22.1001C20.9501 31.4799 20.0101 30.5399 20.0101 29.3899V27.1999C20.0001 26.0499 20.9401 25.1099 22.1001 25.1099Z" fill="url(#paint5_linear)"/>
<path d="M21.77 68.2498H80.82C81.79 68.2498 82.59 69.0498 82.59 70.0198C82.59 70.9898 81.79 71.7898 80.82 71.7898H21.77C20.8 71.7998 20 71.0098 20 70.0298C20 69.0498 20.8 68.2498 21.77 68.2498Z" fill="url(#paint6_linear)"/>
<path d="M79.7801 30.7798H22.8401V69.0598H79.7801V30.7798Z" fill="#EBEBEB"/>
<path d="M22.1001 25.1099H80.5101C81.6601 25.1099 82.6001 26.0499 82.6001 27.1999V29.3899C82.6001 30.5399 81.6601 31.4799 80.5101 31.4799H22.1001C20.9501 31.4799 20.0101 30.5399 20.0101 29.3899V27.1999C20.0001 26.0499 20.9401 25.1099 22.1001 25.1099Z" fill="url(#paint7_linear)"/>
<path d="M21.77 68.2498H80.82C81.79 68.2498 82.59 69.0498 82.59 70.0198C82.59 70.9898 81.79 71.7898 80.82 71.7898H21.77C20.8 71.7998 20 71.0098 20 70.0298C20 69.0498 20.8 68.2498 21.77 68.2498Z" fill="url(#paint8_linear)"/>
<path d="M37.72 61.9702C44.62 61.9702 50.21 56.3702 50.21 49.4802C50.21 42.5802 44.61 36.9902 37.72 36.9902C30.83 36.9902 25.23 42.5902 25.23 49.4802C25.23 56.3702 30.82 61.9702 37.72 61.9702Z" fill="white"/>
<path d="M43.8001 54.5503C43.4601 51.4603 40.8001 49.0203 37.5901 49.0203C34.4001 49.0203 31.7701 51.4003 31.3801 54.4703C31.3301 54.6803 31.3301 54.9203 31.3301 55.1303C31.4101 56.0103 32.0201 56.8503 33.1601 57.5103C35.6001 58.9103 39.5901 58.9103 42.0101 57.5103C43.1501 56.8503 43.7401 56.0003 43.8201 55.1303C43.8601 54.9503 43.8301 54.7403 43.8001 54.5503Z" fill="url(#paint9_radial)"/>
<path d="M37.5901 48.1301C39.6701 48.1301 41.3501 46.4501 41.3501 44.3901C41.3501 42.3201 39.6601 40.6501 37.5901 40.6501C35.5101 40.6501 33.8301 42.3301 33.8301 44.3901C33.8301 46.4501 35.5101 48.1301 37.5901 48.1301Z" fill="url(#paint10_radial)"/>
<path opacity="0.15" d="M77.37 37.9702H52.87C52.5 37.9702 52.21 38.2602 52.21 38.6302V60.6702C52.21 61.0402 52.5 61.3302 52.87 61.3302H77.37C77.74 61.3302 78.03 61.0402 78.03 60.6702V38.6302C78.02 38.2602 77.73 37.9702 77.37 37.9702Z" fill="#1F1D20"/>
<path d="M77.37 37.6602H52.87C52.5 37.6602 52.21 37.9502 52.21 38.3202V60.3602C52.21 60.7302 52.5 61.0202 52.87 61.0202H77.37C77.74 61.0202 78.03 60.7302 78.03 60.3602V38.3202C78.02 37.9602 77.73 37.6602 77.37 37.6602Z" fill="white"/>
<g opacity="0.15">
<path opacity="0.15" d="M68.4099 43.6902H68.8499H71.3999H72.4399H72.4699H76.1199V42.2302H72.4699H72.4399H71.3999H68.8499H68.4099H68.3299H62.3699V43.6902H68.3299H68.4099Z" fill="#1F1D20"/>
<path opacity="0.15" d="M61.9498 42.6802H60.0798V43.2402H61.9498V42.6802Z" fill="#1F1D20"/>
<path opacity="0.15" d="M67.2599 45.5303H72.4399H72.7699H76.1199V44.0703H72.7699H72.4399H67.2599H67.1199H62.3699V45.5303H67.1199H67.2599Z" fill="#1F1D20"/>
<path opacity="0.15" d="M61.9599 44.5203H60.6199V45.0803H61.9599V44.5203Z" fill="#1F1D20"/>
<path opacity="0.15" d="M70.8999 47.3802H70.9499H76.1199V45.9202H70.9499H70.8999H66.4299H62.3699V47.3802H66.4299H70.8999Z" fill="#1F1D20"/>
<path opacity="0.15" d="M61.9599 46.3704H57.6299V46.9304H61.9599V46.3704Z" fill="#1F1D20"/>
<path opacity="0.15" d="M65.1599 49.2303H65.9599H66.4299H67.9099H67.9399H76.1199V47.7703H67.9399H67.9099H66.4299H65.9599H65.1599H64.9999H62.3699V49.2303H64.9999H65.1599Z" fill="#1F1D20"/>
<path opacity="0.15" d="M61.9599 48.2903H57.6299V48.8503H61.9599V48.2903Z" fill="#1F1D20"/>
<path opacity="0.15" d="M64.6999 51.0804H66.6399H66.9599H76.1199V49.6204H66.9599H66.6399H64.6999H64.5599H62.3699V51.0804H64.5599H64.6999Z" fill="#1F1D20"/>
<path opacity="0.15" d="M61.9599 50.1204H60.6199V50.6804H61.9599V50.1204Z" fill="#1F1D20"/>
<path opacity="0.15" d="M63.1299 56.6202H63.1999H63.9899H64.0799H64.1099H76.1199V55.1602H64.1099H64.0799H63.9899H63.1999H63.1299H62.9699H62.3699V56.6202H62.9699H63.1299Z" fill="#1F1D20"/>
<path opacity="0.15" d="M61.9599 55.5903H57.6299V56.1503H61.9599V55.5903Z" fill="#1F1D20"/>
<path opacity="0.15" d="M63.1299 54.7703H63.1999H63.6499H63.9599H63.9899H76.1199V53.3103H63.9899H63.9599H63.6499H63.1999H63.1299H62.9699H62.3699V54.7703H62.9699H63.1299Z" fill="#1F1D20"/>
<path opacity="0.15" d="M61.9599 53.7903H59.1599V54.3503H61.9599V53.7903Z" fill="#1F1D20"/>
<path opacity="0.15" d="M63.7399 52.9202H67.3799H67.7099H76.1199V51.4602H67.7099H67.3799H63.7399H63.5899H62.3699V52.9202H63.5899H63.7399Z" fill="#1F1D20"/>
<path opacity="0.15" d="M61.9599 51.9102H57.6299V52.4702H61.9599V51.9102Z" fill="#1F1D20"/>
<path opacity="0.15" d="M76.1199 57.0103H63.0899H62.9299H62.8299H62.7499H62.6799H62.5199H62.3699V58.4703H62.5199H62.6799H62.7499H62.8299H62.9299H63.0899H76.1199V57.0103Z" fill="#1F1D20"/>
<path opacity="0.15" d="M61.9599 57.4402H57.6299V58.0002H61.9599V57.4402Z" fill="#1F1D20"/>
<path opacity="0.15" d="M62.6199 40.7502C62.7599 40.7502 62.8699 40.6402 62.8699 40.5002C62.8699 40.3602 62.7599 40.2502 62.6199 40.2502C62.4799 40.2502 62.3699 40.3602 62.3699 40.5002C62.3699 40.6402 62.4799 40.7502 62.6199 40.7502Z" fill="#1F1D20"/>
<path opacity="0.15" d="M68.2598 40.5002C68.2598 40.6402 68.3698 40.7502 68.5098 40.7502C68.6498 40.7502 68.7598 40.6402 68.7598 40.5002C68.7598 40.3602 68.6498 40.2502 68.5098 40.2502C68.3698 40.2502 68.2598 40.3602 68.2598 40.5002Z" fill="#1F1D20"/>
<path opacity="0.15" d="M71.1499 40.5103C71.1499 40.6503 71.2599 40.7603 71.3999 40.7603C71.5399 40.7603 71.6499 40.6503 71.6499 40.5103C71.6499 40.3703 71.5399 40.2603 71.3999 40.2603C71.2599 40.2603 71.1499 40.3703 71.1499 40.5103Z" fill="#1F1D20"/>
<path opacity="0.15" d="M74.3799 40.5003C74.3799 40.6403 74.4899 40.7503 74.6299 40.7503C74.7699 40.7503 74.8799 40.6403 74.8799 40.5003C74.8799 40.3603 74.7699 40.2503 74.6299 40.2503C74.4899 40.2403 74.3799 40.3603 74.3799 40.5003Z" fill="#1F1D20"/>
<path opacity="0.15" d="M68.0699 40.2002H63.1299V40.7602H68.0699V40.2002Z" fill="#1F1D20"/>
<path opacity="0.15" d="M70.9499 40.2002H68.9399V40.7602H70.9499V40.2002Z" fill="#1F1D20"/>
<path opacity="0.15" d="M74.1099 40.2002H71.8499V40.7602H74.1099V40.2002Z" fill="#1F1D20"/>
<path opacity="0.15" d="M76.1198 40.2002H75.0698V40.7602H76.1198V40.2002Z" fill="#1F1D20"/>
<path opacity="0.15" d="M76.1199 39.2603H62.3699V39.7903H76.1199V39.2603Z" fill="#1F1D20"/>
<path opacity="0.15" d="M62.68 59.4001H61.96V59.9601H62.68V59.4001Z" fill="#1F1D20"/>
<path opacity="0.15" d="M69.68 59.4001H68.73V59.9601H69.68V59.4001Z" fill="#1F1D20"/>
<path opacity="0.15" d="M76.49 59.4001H75.47V59.9601H76.49V59.4001Z" fill="#1F1D20"/>
</g>
<path d="M76.1199 42.1301H72.4399V43.5901H76.1199V42.1301Z" fill="#CDCDCD"/>
<path d="M72.4699 42.1301H68.8499V43.5901H72.4699V42.1301Z" fill="#5DBDD2"/>
<path d="M68.4099 42.1301H62.3699V43.5901H68.4099V42.1301Z" fill="#325F7B"/>
<path d="M68.3292 43.5962H71.3992V42.1362H68.3292V43.5962Z" fill="#4397A8"/>
<path d="M61.9498 42.5801H60.0798V43.1401H61.9498V42.5801Z" fill="#B4BFC9"/>
<path d="M76.1199 43.9802H72.4399V45.4402H76.1199V43.9802Z" fill="#CDCDCD"/>
<path d="M67.2599 43.9802H62.3699V45.4402H67.2599V43.9802Z" fill="#325F7B"/>
<path d="M67.1195 45.4414H72.7695V43.9814H67.1195V45.4414Z" fill="#4397A8"/>
<path d="M61.9599 44.4302H60.6199V44.9902H61.9599V44.4302Z" fill="#B4BFC9"/>
<path d="M76.1199 45.8303H70.8999V47.2903H76.1199V45.8303Z" fill="#CDCDCD"/>
<path d="M66.4299 45.8303H62.3699V47.2903H66.4299V45.8303Z" fill="#325F7B"/>
<path d="M66.4175 47.2864H70.9475V45.8264H66.4175V47.2864Z" fill="#4397A8"/>
<path d="M61.9599 46.2803H57.6299V46.8403H61.9599V46.2803Z" fill="#B4BFC9"/>
<path d="M76.1199 47.6802H67.9099V49.1402H76.1199V47.6802Z" fill="#CDCDCD"/>
<path d="M67.94 47.6802H65.96V49.1402H67.94V47.6802Z" fill="#5DBDD2"/>
<path d="M65.1599 47.6802H62.3699V49.1402H65.1599V47.6802Z" fill="#325F7B"/>
<path d="M64.997 49.1313H66.427V47.6713H64.997V49.1313Z" fill="#4397A8"/>
<path d="M61.9599 48.1902H57.6299V48.7502H61.9599V48.1902Z" fill="#B4BFC9"/>
<path d="M76.1299 49.5203H66.6399V50.9803H76.1299V49.5203Z" fill="#CDCDCD"/>
<path d="M64.6999 49.5203H62.3699V50.9803H64.6999V49.5203Z" fill="#325F7B"/>
<path d="M64.5461 50.9868H66.9561V49.5268H64.5461V50.9868Z" fill="#4397A8"/>
<path d="M61.9599 50.0203H60.6199V50.5803H61.9599V50.0203Z" fill="#B4BFC9"/>
<path d="M76.1198 55.0703H64.0798V56.5303H76.1198V55.0703Z" fill="#CDCDCD"/>
<path d="M64.11 55.0703H63.2V56.5303H64.11V55.0703Z" fill="#5DBDD2"/>
<path d="M63.1299 55.0703H62.3699V56.5303H63.1299V55.0703Z" fill="#325F7B"/>
<path d="M62.9654 56.522H63.9854V55.062H62.9654V56.522Z" fill="#4397A8"/>
<path d="M61.9599 55.4902H57.6299V56.0502H61.9599V55.4902Z" fill="#B4BFC9"/>
<path d="M76.12 53.2202H63.96V54.6802H76.12V53.2202Z" fill="#CDCDCD"/>
<path d="M63.9799 53.2202H63.2V54.6802H63.9799V53.2202Z" fill="#5DBDD2"/>
<path d="M63.1299 53.2202H62.3699V54.6802H63.1299V53.2202Z" fill="#325F7B"/>
<path d="M62.9667 54.6768H63.6467V53.2168H62.9667V54.6768Z" fill="#4397A8"/>
<path d="M61.9599 53.7002H59.1599V54.2602H61.9599V53.7002Z" fill="#B4BFC9"/>
<path d="M76.1199 51.3701H67.3799V52.8301H76.1199V51.3701Z" fill="#CDCDCD"/>
<path d="M63.7399 51.3701H62.3699V52.8301H63.7399V51.3701Z" fill="#325F7B"/>
<path d="M63.5924 52.8318H67.7124V51.3718H63.5924V52.8318Z" fill="#4397A8"/>
<path d="M61.9599 51.8201H57.6299V52.3801H61.9599V51.8201Z" fill="#B4BFC9"/>
<path d="M76.1299 56.9102H62.9299V58.3702H76.1299V56.9102Z" fill="#CDCDCD"/>
<path d="M63.0998 56.9102H62.7498V58.3702H63.0998V56.9102Z" fill="#5DBDD2"/>
<path d="M62.6799 56.9102H62.3699V58.3702H62.6799V56.9102Z" fill="#325F7B"/>
<path d="M62.513 58.3772H62.823V56.9172H62.513V58.3772Z" fill="#4397A8"/>
<path d="M61.9599 57.3501H57.6299V57.9101H61.9599V57.3501Z" fill="#B4BFC9"/>
<path d="M62.6199 40.6602C62.7579 40.6602 62.8699 40.5482 62.8699 40.4102C62.8699 40.2721 62.7579 40.1602 62.6199 40.1602C62.4818 40.1602 62.3699 40.2721 62.3699 40.4102C62.3699 40.5482 62.4818 40.6602 62.6199 40.6602Z" fill="#325F7B"/>
<path d="M68.5198 40.6602C68.6578 40.6602 68.7698 40.5482 68.7698 40.4102C68.7698 40.2721 68.6578 40.1602 68.5198 40.1602C68.3817 40.1602 68.2698 40.2721 68.2698 40.4102C68.2698 40.5482 68.3817 40.6602 68.5198 40.6602Z" fill="#4397A8"/>
<path d="M71.3999 40.6702C71.538 40.6702 71.6499 40.5582 71.6499 40.4202C71.6499 40.2821 71.538 40.1702 71.3999 40.1702C71.2618 40.1702 71.1499 40.2821 71.1499 40.4202C71.1499 40.5582 71.2618 40.6702 71.3999 40.6702Z" fill="#5DBDD2"/>
<path d="M74.6299 40.6602C74.768 40.6602 74.8799 40.5482 74.8799 40.4102C74.8799 40.2721 74.768 40.1602 74.6299 40.1602C74.4918 40.1602 74.3799 40.2721 74.3799 40.4102C74.3799 40.5482 74.4918 40.6602 74.6299 40.6602Z" fill="#CDCDCD"/>
<path d="M68.0599 40.1101H63.1299V40.6701H68.0599V40.1101Z" fill="#B4BFC9"/>
<path d="M70.9499 40.1101H68.9399V40.6701H70.9499V40.1101Z" fill="#B4BFC9"/>
<path d="M74.1099 40.1101H71.8499V40.6701H74.1099V40.1101Z" fill="#B4BFC9"/>
<path d="M76.1198 40.1101H75.0698V40.6701H76.1198V40.1101Z" fill="#B4BFC9"/>
<path d="M76.1199 39.1702H62.3699V39.7002H76.1199V39.1702Z" fill="#50E6FF"/>
<path d="M62.68 59.3H61.96V59.8601H62.68V59.3Z" fill="#B4BFC9"/>
<path d="M69.68 59.3H68.73V59.8601H69.68V59.3Z" fill="#B4BFC9"/>
<path d="M76.49 59.3H75.47V59.8601H76.49V59.3Z" fill="#B4BFC9"/>
<defs>
<linearGradient id="paint0_linear" x1="49.23" y1="-13.7896" x2="53.212" y2="131.98" gradientUnits="userSpaceOnUse">
<stop stop-color="#00ABDE"/>
<stop offset="1" stop-color="#007ED8"/>
</linearGradient>
<linearGradient id="paint1_linear" x1="2.43262" y1="-20.6246" x2="97.9596" y2="120.257" gradientUnits="userSpaceOnUse">
<stop stop-color="#007ED8"/>
<stop offset="0.7065" stop-color="#002D4C"/>
</linearGradient>
<linearGradient id="paint2_linear" x1="43.382" y1="9.48472" x2="71.5759" y2="67.6531" gradientUnits="userSpaceOnUse">
<stop stop-color="#007ED8"/>
<stop offset="0.7065" stop-color="#002D4C"/>
</linearGradient>
<linearGradient id="paint3_linear" x1="57.4903" y1="160.902" x2="45.6192" y2="15.1835" gradientUnits="userSpaceOnUse">
<stop stop-color="#007ED8"/>
<stop offset="0.7065" stop-color="#002D4C"/>
</linearGradient>
<linearGradient id="paint4_linear" x1="51.3109" y1="69.0604" x2="51.3109" y2="30.7835" gradientUnits="userSpaceOnUse">
<stop stop-color="#D2EBFF"/>
<stop offset="1" stop-color="#F0FFFD"/>
</linearGradient>
<linearGradient id="paint5_linear" x1="51.3005" y1="25.1235" x2="51.3005" y2="31.4911" gradientUnits="userSpaceOnUse">
<stop stop-color="#0099BE"/>
<stop offset="1" stop-color="#006E97"/>
</linearGradient>
<linearGradient id="paint6_linear" x1="51.2951" y1="68.2635" x2="51.2951" y2="71.8021" gradientUnits="userSpaceOnUse">
<stop stop-color="#0099BE"/>
<stop offset="1" stop-color="#006E97"/>
</linearGradient>
<linearGradient id="paint7_linear" x1="51.3005" y1="25.1235" x2="51.3005" y2="31.4911" gradientUnits="userSpaceOnUse">
<stop stop-color="#007ED8"/>
<stop offset="0.7065" stop-color="#002D4C"/>
</linearGradient>
<linearGradient id="paint8_linear" x1="51.2951" y1="68.2635" x2="51.2951" y2="71.8021" gradientUnits="userSpaceOnUse">
<stop stop-color="#007ED8"/>
<stop offset="0.7065" stop-color="#002D4C"/>
</linearGradient>
<radialGradient id="paint9_radial" cx="0" cy="0" r="1" gradientUnits="userSpaceOnUse" gradientTransform="translate(34.1598 48.8504) scale(18.0283)">
<stop stop-color="#4FC2EB"/>
<stop offset="0.585" stop-color="#2E76BC"/>
</radialGradient>
<radialGradient id="paint10_radial" cx="0" cy="0" r="1" gradientUnits="userSpaceOnUse" gradientTransform="translate(34.6329 39.8666) scale(16.7387)">
<stop stop-color="#4FC2EB"/>
<stop offset="0.585" stop-color="#2E76BC"/>
</radialGradient>
</defs>
</svg>
