<svg width="103" height="103" viewBox="0 0 103 103" fill="none" xmlns="http://www.w3.org/2000/svg">
<path d="M51.577 98.3234C25.727 98.3234 4.76697 77.3734 4.76697 51.5134C4.76697 25.6534 25.727 4.70337 51.577 4.70337C77.427 4.70337 98.387 25.6634 98.387 51.5134C98.387 77.3634 77.427 98.3234 51.577 98.3234Z" fill="url(#paint0_linear)"/>
<path fill-rule="evenodd" clip-rule="evenodd" d="M97.477 51.5135C97.477 76.8635 76.927 97.4135 51.577 97.4135C26.2269 97.4135 5.67695 76.8635 5.67695 51.5135C5.67695 26.1635 26.2269 5.61353 51.577 5.61353C76.927 5.61353 97.477 26.1635 97.477 51.5135ZM51.577 1.87354C78.997 1.87354 101.217 24.0935 101.217 51.5135C101.217 78.9335 78.9869 101.154 51.577 101.154C24.1569 101.154 1.93695 78.9235 1.93695 51.5135C1.93695 24.0935 24.1569 1.87354 51.577 1.87354Z" fill="#F2F1F0"/>
<path fill-rule="evenodd" clip-rule="evenodd" d="M94.6669 51.5134C94.6669 75.3134 75.3769 94.6033 51.577 94.6033C27.777 94.6033 8.48695 75.3134 8.48695 51.5134C8.48695 27.7134 27.777 8.42335 51.577 8.42335C75.3769 8.42335 94.6669 27.7134 94.6669 51.5134ZM51.577 4.68335C77.437 4.68335 98.407 25.6534 98.407 51.5134C98.407 77.3734 77.437 98.3434 51.577 98.3434C25.7169 98.3434 4.74695 77.3734 4.74695 51.5134C4.74695 25.6534 25.7069 4.68335 51.577 4.68335Z" fill="url(#paint1_linear)"/>
<path opacity="0.15" d="M23.657 76.1234H79.507C81.067 76.1234 82.347 74.8534 82.347 73.2834V28.7534H20.817V73.2934C20.817 74.8534 22.087 76.1234 23.657 76.1234Z" fill="#1F1D20"/>
<path d="M21.997 73.5336H81.167C81.817 73.5336 82.337 73.0036 82.337 72.3636V26.1636H20.817V72.3636C20.817 73.0036 21.347 73.5336 21.997 73.5336Z" fill="#EBEBEB"/>
<path d="M20.817 31.2735H82.337V25.7635C82.337 25.2635 81.937 24.8635 81.437 24.8635H21.717C21.217 24.8635 20.817 25.2635 20.817 25.7635V31.2735V31.2735Z" fill="#092E4C"/>
<path d="M25.5569 29.7536C26.4169 29.7536 27.1169 29.0636 27.1169 28.1936C27.1169 27.3236 26.4069 26.6436 25.5569 26.6436C24.6969 26.6436 23.9969 27.3336 23.9969 28.2036C23.9969 29.0736 24.6769 29.7536 25.5569 29.7536Z" fill="#32B0E7"/>
<path opacity="0.15" d="M63.7769 66.4433L48.8269 58.5833L42.0369 62.2133L45.0669 63.7833L37.8669 67.9133L45.5369 72.3833L53.0769 67.9333L56.8569 69.8833L63.7769 66.4433Z" fill="#1F1D20"/>
<path d="M42.0369 42.7134V60.7334L56.8569 68.1434V50.3834L42.0369 42.7134Z" fill="#185A97"/>
<path d="M63.2869 46.6733L56.8569 50.3833V68.1433L63.2869 64.9833V46.6733Z" fill="#156AB3"/>
<path d="M42.0369 42.7132L48.8269 39.0732L63.7769 46.9432L56.8569 50.3832L42.0369 42.7132Z" fill="#C6E9F7"/>
<path d="M42.037 42.7133L39.517 40.1233C39.347 39.8933 39.397 39.5633 39.637 39.3933C39.657 39.3833 39.677 39.3733 39.697 39.3633L45.717 36.1533C45.957 36.0233 46.257 36.1033 46.397 36.3333L48.827 39.0933L42.037 42.7133Z" fill="#0078D4"/>
<path d="M52.847 34.2933L48.827 39.0734L63.317 46.7134L67.057 41.6133C67.277 41.3933 67.277 41.0333 67.057 40.8133C67.017 40.7733 66.967 40.7334 66.917 40.7134L53.527 34.1933C53.297 34.0733 53.017 34.1133 52.847 34.2933Z" fill="#45CAF2"/>
<path d="M56.8569 50.3634C56.8569 50.3634 60.1669 50.4834 61.1269 50.5334C61.3469 50.5734 61.5769 50.5334 61.7869 50.4434L67.3869 47.1734C67.5469 47.0734 67.6069 46.8734 67.5069 46.7034C67.4569 46.6134 67.3669 46.5534 67.2669 46.5334L63.3169 46.6834L56.8569 50.3634Z" fill="#32B0E7"/>
<path d="M53.1069 57.4534V66.2834L45.507 70.7334L45.437 61.8434L53.1069 57.4534Z" fill="#75CFEB"/>
<path d="M53.1069 57.4534L45.4869 61.9034L37.8669 57.4534L45.4869 53.0234L53.1069 57.4534Z" fill="#C6E9F7"/>
<path d="M49.5869 55.4034L42.0069 59.8434L41.3369 59.4634L48.9569 55.0334L49.5869 55.4034Z" fill="#75CFEB"/>
<path d="M45.517 61.9034V70.7334L37.897 66.2834V57.4534L45.517 61.9034Z" fill="#A6DEF3"/>
<path d="M37.897 66.2535L45.517 61.8535V70.6835L37.897 66.2535Z" fill="#A6DEF3"/>
<path d="M53.1069 66.2535L45.4869 61.8535V70.6835L53.1069 66.2535Z" fill="#75CFEB"/>
<defs>
<linearGradient id="paint0_linear" x1="49.8071" y1="-13.2762" x2="53.7891" y2="132.494" gradientUnits="userSpaceOnUse">
<stop stop-color="#00ABDE"/>
<stop offset="1" stop-color="#007ED8"/>
</linearGradient>
<linearGradient id="paint1_linear" x1="3.01025" y1="-20.1116" x2="98.5383" y2="120.77" gradientUnits="userSpaceOnUse">
<stop stop-color="#007ED8"/>
<stop offset="0.7065" stop-color="#002D4C"/>
</linearGradient>
</defs>
</svg>
