<svg xmlns="http://www.w3.org/2000/svg" xmlns:xlink="http://www.w3.org/1999/xlink" viewBox="0 0 601 210">
  <defs>
    <linearGradient id="linear-gradient" x1="308.1835" y1="205.0468" x2="308.1835" y2="24.4973" gradientUnits="userSpaceOnUse">
      <stop offset="0" stop-color="#81d3ed"/>
      <stop offset="1" stop-color="#b6e5f9"/>
    </linearGradient>
    <linearGradient id="linear-gradient-2" x1="359.4259" y1="1424.7276" x2="361.7554" y2="1422.3981" gradientTransform="matrix(1, -0.0014, -0.0014, -1, 3.6992, 1598.1566)" gradientUnits="userSpaceOnUse">
      <stop offset="0" stop-color="#8bc63f"/>
      <stop offset="0.24" stop-color="#88c540"/>
      <stop offset="0.5" stop-color="#7dc242"/>
      <stop offset="0.76" stop-color="#6daf44"/>
      <stop offset="1" stop-color="#5e9741"/>
    </linearGradient>
    <linearGradient id="linear-gradient-3" x1="354.1721" y1="1424.7277" x2="356.4867" y2="1422.3989" xlink:href="#linear-gradient-2"/>
    <linearGradient id="linear-gradient-4" x1="348.9219" y1="1424.7313" x2="351.2365" y2="1422.4026" xlink:href="#linear-gradient-2"/>
    <linearGradient id="linear-gradient-5" x1="466.9911" y1="156.6468" x2="466.9911" y2="76.4555" gradientUnits="userSpaceOnUse">
      <stop offset="0" stop-color="#004dae"/>
      <stop offset="0.21" stop-color="#0061c4"/>
      <stop offset="0.51" stop-color="#0078dd"/>
      <stop offset="0.78" stop-color="#0086ec"/>
      <stop offset="1" stop-color="#008bf1"/>
    </linearGradient>
    <linearGradient id="linear-gradient-6" x1="28.8929" y1="1570.1334" x2="20.413" y2="1586.1957" gradientTransform="matrix(1, 0, 0, -1, 0, 1598.9826)" gradientUnits="userSpaceOnUse">
      <stop offset="0" stop-color="#3085c7"/>
      <stop offset="0.9" stop-color="#5fabdf"/>
    </linearGradient>
    <linearGradient id="linear-gradient-7" x1="25.2421" y1="1574.8007" x2="31.1029" y2="1564.6908" gradientTransform="matrix(1, 0, 0, -1, 0, 1598.9826)" gradientUnits="userSpaceOnUse">
      <stop offset="0.1" stop-color="#5fabdf"/>
      <stop offset="0.29" stop-color="#5aa8dd"/>
      <stop offset="0.51" stop-color="#4da0d8"/>
      <stop offset="0.74" stop-color="#3b90ce"/>
      <stop offset="0.88" stop-color="#3085c7"/>
    </linearGradient>
    <radialGradient id="radial-gradient" cx="-184.4165" cy="1755.465" r="12" gradientTransform="matrix(1, 0, 0, -1, 564, 1832.9826)" gradientUnits="userSpaceOnUse">
      <stop offset="0" stop-color="#198ab3"/>
      <stop offset="0.382" stop-color="#1a8cb5"/>
      <stop offset="0.576" stop-color="#1c94bc"/>
      <stop offset="0.727" stop-color="#21a1c8"/>
      <stop offset="0.856" stop-color="#27b4d8"/>
      <stop offset="0.97" stop-color="#2fccee"/>
      <stop offset="1" stop-color="#32d4f5"/>
    </radialGradient>
    <linearGradient id="linear-gradient-8" x1="425.7717" y1="1486.8948" x2="425.7717" y2="1505.656" gradientTransform="matrix(1, 0, 0, -1, 0, 1598.9826)" gradientUnits="userSpaceOnUse">
      <stop offset="0" stop-color="#2e76bc"/>
      <stop offset="0.82" stop-color="#699cd3"/>
    </linearGradient>
    <linearGradient id="linear-gradient-9" x1="425.7717" y1="1479.656" x2="425.7717" y2="1486.8948" gradientTransform="matrix(1, 0, 0, -1, 0, 1598.9826)" gradientUnits="userSpaceOnUse">
      <stop offset="0.15" stop-color="#cccccb"/>
      <stop offset="1" stop-color="#707071"/>
    </linearGradient>
    <linearGradient id="linear-gradient-10" x1="466.9911" y1="1486.8948" x2="466.9911" y2="1505.656" xlink:href="#linear-gradient-8"/>
    <linearGradient id="linear-gradient-11" x1="466.9911" y1="1479.656" x2="466.9911" y2="1486.8948" xlink:href="#linear-gradient-9"/>
    <linearGradient id="linear-gradient-12" x1="508.2105" y1="1486.8948" x2="508.2105" y2="1505.656" xlink:href="#linear-gradient-8"/>
    <linearGradient id="linear-gradient-13" x1="508.2105" y1="1479.656" x2="508.2105" y2="1486.8948" xlink:href="#linear-gradient-9"/>
    <linearGradient id="linear-gradient-14" x1="55.8267" y1="1425.1515" x2="58.1562" y2="1422.822" xlink:href="#linear-gradient-2"/>
    <linearGradient id="linear-gradient-15" x1="50.5729" y1="1425.1516" x2="52.8875" y2="1422.8228" xlink:href="#linear-gradient-2"/>
    <linearGradient id="linear-gradient-16" x1="45.3227" y1="1425.1552" x2="47.6372" y2="1422.8265" xlink:href="#linear-gradient-2"/>
    <linearGradient id="linear-gradient-17" x1="-275.57" y1="1738.7607" x2="-275.57" y2="1741.697" gradientTransform="matrix(1, 0, 0, -1, 564, 1832.9826)" gradientUnits="userSpaceOnUse">
      <stop offset="0" stop-color="#5e9624"/>
      <stop offset="0.241" stop-color="#6fb02a"/>
      <stop offset="0.501" stop-color="#7cc52f"/>
      <stop offset="0.756" stop-color="#83d232"/>
      <stop offset="1" stop-color="#86d633"/>
    </linearGradient>
    <linearGradient id="linear-gradient-18" x1="-697.1825" y1="1156.7142" x2="-697.1825" y2="1146.6351" gradientTransform="translate(991.126 -1051.758)" gradientUnits="userSpaceOnUse">
      <stop offset="0" stop-color="#005ba1"/>
      <stop offset="0.126" stop-color="#0f66ae"/>
      <stop offset="0.515" stop-color="#3a86d1"/>
      <stop offset="0.819" stop-color="#5499e7"/>
      <stop offset="1" stop-color="#5ea0ef"/>
    </linearGradient>
    <linearGradient id="linear-gradient-19" x1="143.9477" y1="1501.4808" x2="132.6412" y2="1522.8972" xlink:href="#linear-gradient-6"/>
    <linearGradient id="linear-gradient-20" x1="139.0852" y1="1507.7069" x2="146.8996" y2="1494.227" xlink:href="#linear-gradient-7"/>
  </defs>
  <g id="Shapes">
    <rect width="601" height="210" fill="#fff"/>
    <g>
      <rect x="19.9835" y="24.4973" width="576.4" height="180.5495" fill="#fff"/>
      <rect x="19.9835" y="24.4973" width="576.4" height="180.5495" opacity="0.8" fill="url(#linear-gradient)"/>
    </g>
    <g>
      <rect x="358.7835" y="46.6468" width="218.3473" height="127.6" rx="4" fill="#fff"/>
      <rect x="358.7835" y="46.6468" width="218.3473" height="127.6" rx="4" fill="#505150" opacity="0.07"/>
      <rect x="358.7835" y="46.6468" width="218.3473" height="127.6" rx="4" fill="none" stroke="#505150" opacity="0.15"/>
      <rect x="358.7835" y="46.6468" width="218.3472" height="127.6" rx="4" fill="none" stroke="#505150" stroke-dasharray="0.7988 1.997" opacity="0.65"/>
    </g>
    <g>
      <circle cx="356.9835" cy="174.0972" r="15" fill="#fff" opacity="0.8"/>
      <g>
        <circle cx="362.296" cy="174.0841" r="1.6472" fill="url(#linear-gradient-2)"/>
        <circle cx="357.0421" cy="174.0983" r="1.6472" fill="url(#linear-gradient-3)"/>
        <circle cx="351.7882" cy="174.0983" r="1.6472" fill="url(#linear-gradient-4)"/>
        <path d="M352.984,180.6836l-.9425.9452a.4262.4262,0,0,1-.6025.0008h0l-6.978-6.9586a.852.852,0,0,1-.0017-1.2049h0l.9425-.9451h0l7.5813,7.56a.426.426,0,0,1,.0009.6024Z" fill="#74cfeb"/>
        <path d="M351.8988,166.5841l.9452.9425a.426.426,0,0,1,.0008.6025l-7.45,7.4707h0l-.9452-.9425a.852.852,0,0,1-.0017-1.2049h0l6.8483-6.8674A.426.426,0,0,1,351.8988,166.5841Z" fill="#2f8dcc"/>
        <path d="M368.5676,172.5081l.9425.9451a.8519.8519,0,0,1-.0017,1.2049h0l-6.978,6.9586a.426.426,0,0,1-.6024-.0009h0l-.9425-.9451a.426.426,0,0,1,.0008-.6025h0l7.5813-7.56Z" fill="#74cfeb"/>
        <path d="M369.5072,174.648l-.9452.9425h0l-7.45-7.4707a.426.426,0,0,1,.0008-.6025h0l.9552-.9525a.426.426,0,0,1,.6024.0008h0l6.8483,6.8674a.8519.8519,0,0,1-.0017,1.2049h0Z" fill="#2f8dcc"/>
      </g>
    </g>
    <g>
      <rect x="380.3675" y="76.4555" width="173.2473" height="80.1913" rx="4" fill="#fff"/>
      <rect x="380.3675" y="76.4555" width="173.2473" height="80.1913" rx="4" opacity="0.05" fill="url(#linear-gradient-5)"/>
      <rect x="380.3675" y="76.4555" width="173.2473" height="80.1913" rx="4" fill="none" stroke="#33bedd"/>
      <rect x="380.3675" y="76.4555" width="173.2473" height="80.1913" rx="4" fill="none" stroke="#005ca1" stroke-dasharray="0.9979 1.9958"/>
    </g>
    <g>
      <polygon points="6.466 23.671 20.972 33.085 35.734 23.634 37.584 25.795 20.972 36.491 4.616 25.795 6.466 23.671" fill="#74cfeb"/>
      <polygon points="7.565 22.462 20.972 6.491 34.653 22.48 20.972 31.125 7.565 22.462" fill="#fff"/>
      <polygon points="20.972 6.491 20.972 31.125 7.565 22.462 20.972 6.491" fill="#74cfeb"/>
      <polygon points="20.972 6.491 20.972 31.125 34.653 22.48 20.972 6.491" fill="url(#linear-gradient-6)"/>
      <polygon points="20.972 19.22 34.653 22.48 20.972 31.125 20.972 19.22" fill="#53b0de"/>
      <polygon points="20.972 31.125 7.565 22.462 20.972 19.22 20.972 31.125" fill="#a5def3"/>
      <polygon points="20.972 36.491 37.584 25.795 35.734 23.634 20.972 33.085 20.972 36.491" fill="url(#linear-gradient-7)"/>
    </g>
    <g id="faeec9e4-44b9-413a-8332-867d334dcda2">
      <g>
        <circle cx="379.5835" cy="77.5176" r="12" fill="url(#radial-gradient)"/>
        <circle cx="379.5835" cy="77.5176" r="10.3355" fill="#005ba1"/>
      </g>
      <g>
        <path d="M379.7247,78.84l-4.0009-3.97a.716.716,0,0,0-1.001,0l-.504.5012a.6622.6622,0,0,0-.2019.4758.6721.6721,0,0,0,.1991.4786l3.01,2.9957-3.0749,3.0537a.6678.6678,0,0,0-.01.9443l.01.01.51.5012a.7157.7157,0,0,0,1.0009,0l4.0631-4.0377a.6708.6708,0,0,0,.1991-.4771A.6609.6609,0,0,0,379.7247,78.84Z" fill="#f2f2f2"/>
        <path d="M379.2376,75.6512a.6706.6706,0,0,0,.1991.4772l4.0659,4.0362a.7157.7157,0,0,0,1.0009,0l.51-.5025a.6621.6621,0,0,0,.2018-.4758.67.67,0,0,0-.199-.4772l-3.0692-3.0522,3.01-2.9972a.671.671,0,0,0,.1991-.4772.6622.6622,0,0,0-.2019-.4757l-.51-.5026a.7157.7157,0,0,0-1.0009,0l-4.001,3.97A.6663.6663,0,0,0,379.2376,75.6512Z" fill="#f2f2f2"/>
      </g>
    </g>
    <g>
      <g>
        <rect x="411.7008" y="93.3266" width="28.1419" height="18.7613" rx="0.9381" fill="url(#linear-gradient-8)"/>
        <polygon points="430.462 99.971 430.462 105.428 425.772 108.179 425.772 102.707 430.462 99.971" fill="#74cfeb"/>
        <polygon points="430.462 99.971 425.772 102.723 421.081 99.971 425.772 97.235 430.462 99.971" fill="#c6eaf8"/>
        <polygon points="425.772 102.723 425.772 108.179 421.081 105.428 421.081 99.971 425.772 102.723" fill="#a5def3"/>
        <polygon points="421.081 105.428 425.772 102.707 425.772 108.179 421.081 105.428" fill="#c6eaf8"/>
        <polygon points="430.462 105.428 425.772 102.707 425.772 108.179 430.462 105.428" fill="#a5def3"/>
        <path d="M431.4158,117.7631c-2.783-.4377-2.8924-2.4389-2.8924-5.6752h-5.519c0,3.2363-.0938,5.2375-2.8767,5.6752a1.5635,1.5635,0,0,0-1.3914,1.5635h14.0709A1.5635,1.5635,0,0,0,431.4158,117.7631Z" fill="url(#linear-gradient-9)"/>
      </g>
      <g>
        <rect x="452.9201" y="93.3266" width="28.1419" height="18.7613" rx="0.9381" fill="url(#linear-gradient-10)"/>
        <polygon points="471.681 99.971 471.681 105.428 466.991 108.179 466.991 102.707 471.681 99.971" fill="#74cfeb"/>
        <polygon points="471.681 99.971 466.991 102.723 462.301 99.971 466.991 97.235 471.681 99.971" fill="#c6eaf8"/>
        <polygon points="466.991 102.723 466.991 108.179 462.301 105.428 462.301 99.971 466.991 102.723" fill="#a5def3"/>
        <polygon points="462.301 105.428 466.991 102.707 466.991 108.179 462.301 105.428" fill="#c6eaf8"/>
        <polygon points="471.681 105.428 466.991 102.707 466.991 108.179 471.681 105.428" fill="#a5def3"/>
        <path d="M472.6351,117.7631c-2.7829-.4377-2.8924-2.4389-2.8924-5.6752h-5.5189c0,3.2363-.0938,5.2375-2.8767,5.6752a1.5636,1.5636,0,0,0-1.3915,1.5635h14.071A1.5636,1.5636,0,0,0,472.6351,117.7631Z" fill="url(#linear-gradient-11)"/>
      </g>
      <g>
        <rect x="494.1395" y="93.3266" width="28.1419" height="18.7613" rx="0.9381" fill="url(#linear-gradient-12)"/>
        <polygon points="512.901 99.971 512.901 105.428 508.21 108.179 508.21 102.707 512.901 99.971" fill="#74cfeb"/>
        <polygon points="512.901 99.971 508.21 102.723 503.52 99.971 508.21 97.235 512.901 99.971" fill="#c6eaf8"/>
        <polygon points="508.21 102.723 508.21 108.179 503.52 105.428 503.52 99.971 508.21 102.723" fill="#a5def3"/>
        <polygon points="503.52 105.428 508.21 102.707 508.21 108.179 503.52 105.428" fill="#c6eaf8"/>
        <polygon points="512.901 105.428 508.21 102.707 508.21 108.179 512.901 105.428" fill="#a5def3"/>
        <path d="M513.8545,117.7631c-2.7829-.4377-2.8924-2.4389-2.8924-5.6752h-5.5189c0,3.2363-.0938,5.2375-2.8768,5.6752a1.5635,1.5635,0,0,0-1.3914,1.5635h14.0709A1.5635,1.5635,0,0,0,513.8545,117.7631Z" fill="url(#linear-gradient-13)"/>
      </g>
    </g>
    <g>
      <rect x="50.7835" y="46.6468" width="165.5473" height="127.6" rx="4" fill="#fff"/>
      <rect x="50.7835" y="46.6468" width="165.5473" height="127.6" rx="4" fill="#505150" opacity="0.07"/>
      <rect x="50.7835" y="46.6468" width="165.5473" height="127.6" rx="4" fill="none" stroke="#505150" opacity="0.15"/>
      <rect x="50.7835" y="46.6468" width="165.5473" height="127.6" rx="4" fill="none" stroke="#505150" stroke-dasharray="0.7997 1.9992" opacity="0.65"/>
    </g>
    <g>
      <circle cx="53.3837" cy="174.0972" r="15" fill="#fff" opacity="0.8"/>
      <g>
        <circle cx="58.6962" cy="174.0841" r="1.6472" fill="url(#linear-gradient-14)"/>
        <circle cx="53.4423" cy="174.0983" r="1.6472" fill="url(#linear-gradient-15)"/>
        <circle cx="48.1884" cy="174.0983" r="1.6472" fill="url(#linear-gradient-16)"/>
        <path d="M49.3842,180.6836l-.9425.9452a.4262.4262,0,0,1-.6025.0008h0l-6.978-6.9586a.852.852,0,0,1-.0017-1.2049h0l.9425-.9451h0l7.5813,7.56a.426.426,0,0,1,.0009.6024Z" fill="#74cfeb"/>
        <path d="M48.299,166.5841l.9452.9425a.426.426,0,0,1,.0008.6025l-7.45,7.4707h0l-.9452-.9425a.852.852,0,0,1-.0017-1.2049h0l6.8483-6.8674A.426.426,0,0,1,48.299,166.5841Z" fill="#2f8dcc"/>
        <path d="M64.9678,172.5081l.9425.9451a.8519.8519,0,0,1-.0017,1.2049h0l-6.978,6.9586a.426.426,0,0,1-.6024-.0009h0l-.9425-.9451a.426.426,0,0,1,.0008-.6025h0l7.5813-7.56Z" fill="#74cfeb"/>
        <path d="M65.9074,174.648l-.9452.9425h0l-7.45-7.4707a.426.426,0,0,1,.0008-.6025h0l.9552-.9525a.426.426,0,0,1,.6024.0008h0l6.8483,6.8674a.8519.8519,0,0,1-.0017,1.2049h0Z" fill="#2f8dcc"/>
      </g>
    </g>
    <g>
      <line x1="217.9835" y1="94.8972" x2="353.4013" y2="94.8972" fill="none" stroke="#3c3c41" stroke-miterlimit="10"/>
      <polygon points="352.307 98.637 358.784 94.897 352.307 91.157 352.307 98.637" fill="#3c3c41"/>
    </g>
    <g>
      <circle cx="288.3835" cy="95.4562" r="15" fill="#fff" opacity="0.8"/>
      <g id="f953c7e2-7618-4315-ace5-730ec480d707">
        <g>
          <path d="M294.5666,92.7444a1.4555,1.4555,0,1,1,0-.0067Zm-6.1413-1.4521a1.4615,1.4615,0,1,0,1.4628,1.46v-.0013A1.4615,1.4615,0,0,0,288.4253,91.2923Zm-4.6718,0a1.4622,1.4622,0,1,1,0,.0067Z" fill="url(#linear-gradient-17)"/>
          <path d="M284.8257,98.6078l-.8384.8407a.38.38,0,0,1-.5371.0008l-6.2025-6.1851a.7594.7594,0,0,1-.0015-1.074l.8384-.8408h0l6.74,6.7213A.38.38,0,0,1,284.8257,98.6078Z" fill="#50e6ff"/>
          <path d="M283.8631,86.0669l.84.8375a.38.38,0,0,1,.0007.537h0l-6.6231,6.6419h0l-.837-.8346a.76.76,0,0,1-.0015-1.0741l6.0868-6.1041a.38.38,0,0,1,.5371-.0007Z" fill="#1490df"/>
          <path d="M298.68,91.351l.8384.8408a.76.76,0,0,1-.0015,1.0741l-6.2026,6.185a.38.38,0,0,1-.537-.0007h0l-.8384-.8408a.38.38,0,0,1,.0008-.537h0l6.74-6.7214Z" fill="#50e6ff"/>
          <path d="M299.5244,93.245l-.8408.8384h0l-6.6231-6.6419a.38.38,0,0,1,.0007-.537h0l.84-.8374a.38.38,0,0,1,.537.0007h0l6.0869,6.1041a.76.76,0,0,1-.0016,1.0741Z" fill="#1490df"/>
          <circle cx="293.9435" cy="99.9167" r="5.0396" fill="url(#linear-gradient-18)"/>
          <path d="M293.4488,97.2759h-1.4975a1.8719,1.8719,0,0,0-.29,3.7091,1.9913,1.9913,0,0,1,.0227-.6953,1.1753,1.1753,0,0,1,.2675-2.3292h1.4935a1.1833,1.1833,0,0,1,0,2.3653H293.03a.8836.8836,0,0,0-.0829.3744.8528.8528,0,0,0,.0588.31h.4386a1.8719,1.8719,0,0,0,.0776-3.7345Z" fill="#fff"/>
          <path d="M295.98,98.8563a2.3045,2.3045,0,0,1,.0214.2875,1.9135,1.9135,0,0,1-.0415.4078,1.174,1.174,0,0,1-.2674,2.3266h-1.4989a1.1833,1.1833,0,0,1,0-2.364h.4118a.8757.8757,0,0,0,.0227-.6846h-.4318a1.8719,1.8719,0,0,0,0,3.7345h1.4962a1.8719,1.8719,0,0,0,.29-3.71Z" fill="#fff"/>
        </g>
      </g>
    </g>
    <g>
      <polygon points="114.046 90.597 133.386 103.149 153.069 90.548 155.535 93.406 133.386 107.691 111.579 93.43 114.046 90.597" fill="#74cfeb"/>
      <polygon points="115.511 88.986 133.386 67.691 151.628 89.01 133.386 100.536 115.511 88.986" fill="#fff"/>
      <polygon points="133.386 67.691 133.386 100.536 115.511 88.986 133.386 67.691" fill="#74cfeb"/>
      <polygon points="133.386 67.691 133.386 100.536 151.628 89.01 133.386 67.691" fill="url(#linear-gradient-19)"/>
      <polygon points="133.386 84.663 151.628 89.01 133.386 100.536 133.386 84.663" fill="#53b0de"/>
      <polygon points="133.386 100.536 115.511 88.986 133.386 84.663 133.386 100.536" fill="#a5def3"/>
      <polygon points="133.386 107.691 155.535 93.406 153.069 90.548 133.386 103.149 133.386 107.691" fill="url(#linear-gradient-20)"/>
      <polygon points="144.619 87.691 133.704 102.978 144.619 107.423 155.535 102.978 144.619 87.691" fill="#6c53a3"/>
      <polygon points="144.619 87.691 133.704 102.978 144.619 107.423 144.619 87.691" fill="#f9f9fa" opacity="0.5" style="isolation: isolate"/>
    </g>
  </g>
  <g id="Text">
    <g>
      <path d="M384.9558,181.8946l-3.63,9.8028h-1.2646l-3.5547-9.8028h1.2783l2.7139,7.7725a4.6126,4.6126,0,0,1,.1982.8682h.0273a4.2254,4.2254,0,0,1,.2256-.8819l2.7686-7.7588Z" fill="#2f2f2f"/>
      <path d="M386.8679,182.92a.7111.7111,0,0,1-.5127-.2051.6911.6911,0,0,1-.2119-.5195.7179.7179,0,0,1,.7246-.7314.7257.7257,0,0,1,.5234.2085.7312.7312,0,0,1,0,1.0356A.721.721,0,0,1,386.8679,182.92Zm.5469,8.7774h-1.1211v-7h1.1211Z" fill="#2f2f2f"/>
      <path d="M393.1833,185.8321a1.3714,1.3714,0,0,0-.8476-.2256,1.4287,1.4287,0,0,0-1.1993.6768,3.1223,3.1223,0,0,0-.4824,1.8457v3.5684h-1.1211v-7h1.1211V186.14h.0274a2.4425,2.4425,0,0,1,.7314-1.1518,1.6676,1.6676,0,0,1,1.1006-.4136,1.8281,1.8281,0,0,1,.67.0957Z" fill="#2f2f2f"/>
      <path d="M398.1023,191.629a2.1615,2.1615,0,0,1-1.0459.2188q-1.8384,0-1.8389-2.0508v-4.1426h-1.2031v-.957h1.2031v-1.709l1.1211-.3623v2.0713h1.7637v.957h-1.7637v3.9443a1.6378,1.6378,0,0,0,.2393,1.0049.9536.9536,0,0,0,.7929.3008,1.18,1.18,0,0,0,.7315-.2324Z" fill="#2f2f2f"/>
      <path d="M405.22,191.6974h-1.1211V190.59h-.0273a2.3019,2.3019,0,0,1-2.16,1.2715q-2.5019,0-2.5019-2.98v-4.1836h1.1142v4.0058q0,2.2149,1.6954,2.2149a1.7165,1.7165,0,0,0,1.3505-.605,2.3172,2.3172,0,0,0,.5293-1.5825v-4.0332H405.22Z" fill="#2f2f2f"/>
      <path d="M412.3757,191.6974h-1.1211v-1.0938h-.0273a2.3467,2.3467,0,0,1-2.1534,1.2578,2.2988,2.2988,0,0,1-1.6367-.5537,1.9174,1.9174,0,0,1-.5918-1.47q0-1.9621,2.3106-2.2832l2.0986-.294q0-1.7841-1.4424-1.7841a3.4462,3.4462,0,0,0-2.2832.8613V185.19a4.34,4.34,0,0,1,2.3789-.6563q2.4683,0,2.4678,2.6113Zm-1.1211-3.541-1.6885.2324a2.7392,2.7392,0,0,0-1.1757.3862,1.1132,1.1132,0,0,0-.3965.981,1.07,1.07,0,0,0,.3652.8374,1.4163,1.4163,0,0,0,.9746.3247,1.7977,1.7977,0,0,0,1.377-.5845,2.0845,2.0845,0,0,0,.5439-1.48Z" fill="#2f2f2f"/>
      <path d="M415.5173,191.6974h-1.1211V181.3341h1.1211Z" fill="#2f2f2f"/>
      <path d="M429.6745,191.6974h-1.4082l-5.0449-7.8135a3.2371,3.2371,0,0,1-.3144-.6152h-.0411a10.1356,10.1356,0,0,1,.0547,1.3466v7.0821h-1.1484v-9.8028h1.49l4.9082,7.6905q.3077.4782.3965.6562h.0274a10.3177,10.3177,0,0,1-.0684-1.4424v-6.9043h1.1484Z" fill="#2f2f2f"/>
      <path d="M437.653,188.4776h-4.9423a2.6177,2.6177,0,0,0,.6289,1.8047,2.1677,2.1677,0,0,0,1.6543.6358,3.4407,3.4407,0,0,0,2.1738-.7793v1.0527a4.0614,4.0614,0,0,1-2.44.67,2.9584,2.9584,0,0,1-2.3311-.9536,3.9019,3.9019,0,0,1-.8476-2.6831,3.8289,3.8289,0,0,1,.9257-2.6626,2.9716,2.9716,0,0,1,2.3008-1.0288,2.6318,2.6318,0,0,1,2.126.8887,3.7063,3.7063,0,0,1,.7519,2.4677Zm-1.1484-.95a2.2878,2.2878,0,0,0-.4678-1.5107,1.5981,1.5981,0,0,0-1.2822-.54,1.811,1.811,0,0,0-1.3467.5673,2.578,2.578,0,0,0-.6836,1.4834Z" fill="#2f2f2f"/>
      <path d="M442.5769,191.629a2.1615,2.1615,0,0,1-1.0459.2188q-1.8384,0-1.8389-2.0508v-4.1426H438.489v-.957h1.2031v-1.709l1.1211-.3623v2.0713h1.7637v.957h-1.7637v3.9443a1.6378,1.6378,0,0,0,.2393,1.0049.9536.9536,0,0,0,.7929.3008,1.18,1.18,0,0,0,.7315-.2324Z" fill="#2f2f2f"/>
      <path d="M453.2673,184.6974l-2.0986,7h-1.1621l-1.4424-5.0108a3.2891,3.2891,0,0,1-.1094-.6494h-.0273a3.07,3.07,0,0,1-.1436.6358l-1.5654,5.0244h-1.1211l-2.1192-7h1.1758l1.4492,5.2636a3.17,3.17,0,0,1,.0957.6289h.0547a2.941,2.941,0,0,1,.1231-.6425l1.6133-5.25h1.0254l1.4492,5.2773a3.706,3.706,0,0,1,.1025.6289h.0547a2.8893,2.8893,0,0,1,.1162-.6289l1.4219-5.2773Z" fill="#2f2f2f"/>
      <path d="M457.3425,191.8614a3.25,3.25,0,0,1-2.4785-.9809,3.6343,3.6343,0,0,1-.9258-2.6011,3.785,3.785,0,0,1,.9639-2.7549,3.4658,3.4658,0,0,1,2.6045-.9912,3.1368,3.1368,0,0,1,2.4433.9639,3.82,3.82,0,0,1,.8789,2.6728,3.7581,3.7581,0,0,1-.9472,2.6831A3.3159,3.3159,0,0,1,457.3425,191.8614Zm.082-6.3847a2.1331,2.1331,0,0,0-1.709.7348,3.02,3.02,0,0,0-.6289,2.0269,2.8541,2.8541,0,0,0,.6358,1.9619,2.1606,2.1606,0,0,0,1.7021.7178,2.0524,2.0524,0,0,0,1.6719-.7041,3.0609,3.0609,0,0,0,.584-2.003,3.1134,3.1134,0,0,0-.584-2.0234A2.0423,2.0423,0,0,0,457.4245,185.4767Z" fill="#2f2f2f"/>
      <path d="M466.195,185.8321a1.3712,1.3712,0,0,0-.8476-.2256,1.4286,1.4286,0,0,0-1.1992.6768,3.1216,3.1216,0,0,0-.4825,1.8457v3.5684h-1.1211v-7h1.1211V186.14h.0274a2.4433,2.4433,0,0,1,.7314-1.1518,1.6678,1.6678,0,0,1,1.1006-.4136,1.8277,1.8277,0,0,1,.67.0957Z" fill="#2f2f2f"/>
      <path d="M473.2488,191.6974h-1.5723l-3.09-3.3633h-.0273v3.3633h-1.1211V181.3341h1.1211v6.5693h.0273l2.94-3.206h1.47l-3.247,3.3769Z" fill="#2f2f2f"/>
    </g>
    <g>
      <path d="M51.7243,16.8546H49.3181l-.6973-2.1807H45.1345l-.69,2.1807H42.0515L45.62,7.0519H48.238Zm-3.6093-3.876L47.0622,9.6837a4.34,4.34,0,0,1-.164-.8818h-.0547a3.745,3.745,0,0,1-.1709.8545l-1.0664,3.3222Z" fill="#2f2f2f"/>
      <path d="M58.63,16.8546H52.3474v-.8955l3.5137-4.5117H52.696V9.8546h5.9063V10.921l-3.3291,4.3408H58.63Z" fill="#2f2f2f"/>
      <path d="M66.5124,16.8546H64.3591V15.7882h-.0342a2.4428,2.4428,0,0,1-2.14,1.2373q-2.4331,0-2.4336-2.9463V9.8546H61.905v4.0332q0,1.4832,1.1758,1.4834a1.1631,1.1631,0,0,0,.93-.4067,1.64,1.64,0,0,0,.3486-1.104V9.8546h2.1533Z" fill="#2f2f2f"/>
      <path d="M72.8464,11.8028a1.875,1.875,0,0,0-.9092-.2119,1.31,1.31,0,0,0-1.1006.5161,2.2506,2.2506,0,0,0-.3964,1.4048v3.3428H68.28v-7h2.16v1.2988h.0273a1.869,1.869,0,0,1,1.8457-1.4219,1.3929,1.3929,0,0,1,.5332.0821Z" fill="#2f2f2f"/>
      <path d="M80.2185,13.97H75.6521q.11,1.5242,1.9209,1.5244a3.7474,3.7474,0,0,0,2.03-.5468V16.506a5.3368,5.3368,0,0,1-2.5224.52,3.5516,3.5516,0,0,1-2.6319-.94,3.552,3.552,0,0,1-.9365-2.6215,3.7452,3.7452,0,0,1,1.0117-2.7618,3.37,3.37,0,0,1,2.4883-1.0185,3.0619,3.0619,0,0,1,2.3692.9092,3.5036,3.5036,0,0,1,.8369,2.4677Zm-2.003-1.3261q0-1.5038-1.2167-1.504A1.1591,1.1591,0,0,0,76.1,11.57a1.9487,1.9487,0,0,0-.4619,1.0733Z" fill="#2f2f2f"/>
      <path d="M94.198,16.8546H91.7917l-.6972-2.1807H87.6081l-.69,2.1807H84.5251l3.5684-9.8027h2.6181Zm-3.6094-3.876L89.5359,9.6837a4.3321,4.3321,0,0,1-.1641-.8818h-.0547a3.745,3.745,0,0,1-.1709.8545L88.08,12.9786Z" fill="#2f2f2f"/>
      <path d="M100.3327,16.6017a4.2679,4.2679,0,0,1-2.1123.4238,3.5717,3.5717,0,0,1-2.6113-.9775,3.3782,3.3782,0,0,1-.998-2.5225,3.7171,3.7171,0,0,1,1.07-2.813,3.9508,3.9508,0,0,1,2.86-1.0288,3.67,3.67,0,0,1,1.791.3281v1.8321a2.4613,2.4613,0,0,0-1.5107-.5059,1.9876,1.9876,0,0,0-1.4727.5434,2.0245,2.0245,0,0,0-.5439,1.5005,1.9933,1.9933,0,0,0,.5195,1.46,1.91,1.91,0,0,0,1.4287.53,2.8481,2.8481,0,0,0,1.5791-.5059Z" fill="#2f2f2f"/>
      <path d="M106.0642,16.7726a3.1971,3.1971,0,0,1-1.4424.2529q-2.2837,0-2.2832-2.3721v-3.206h-1.1348V9.8546h1.1348V8.3439l2.1533-.6153v2.126h1.5723v1.5928h-1.5723v2.83q0,1.0935.8682,1.0938a1.4621,1.4621,0,0,0,.7041-.1982Z" fill="#2f2f2f"/>
      <path d="M108.4421,8.7472a1.263,1.263,0,0,1-.8955-.3247,1.0461,1.0461,0,0,1-.3486-.7964,1.0088,1.0088,0,0,1,.3486-.793,1.463,1.463,0,0,1,1.7949,0,1.015,1.015,0,0,1,.3448.793,1.0436,1.0436,0,0,1-.3448.8066A1.2853,1.2853,0,0,1,108.4421,8.7472Zm1.0664,8.1074h-2.16v-7h2.16Z" fill="#2f2f2f"/>
      <path d="M118.0134,9.8546l-2.6045,7H112.948l-2.4815-7h2.3106l1.2168,4.3135a6.274,6.274,0,0,1,.2392,1.2441h.0274a7.088,7.088,0,0,1,.2529-1.2031l1.2441-4.3545Z" fill="#2f2f2f"/>
      <path d="M125.0007,13.97h-4.5664q.11,1.5242,1.9209,1.5244a3.7477,3.7477,0,0,0,2.03-.5468V16.506a5.3375,5.3375,0,0,1-2.5225.52,3.5512,3.5512,0,0,1-2.6318-.94,3.5517,3.5517,0,0,1-.9366-2.6215,3.7453,3.7453,0,0,1,1.0118-2.7618,3.37,3.37,0,0,1,2.4882-1.0185,3.0617,3.0617,0,0,1,2.3692.9092,3.5036,3.5036,0,0,1,.8369,2.4677Zm-2.0029-1.3261q0-1.5038-1.2168-1.504a1.1591,1.1591,0,0,0-.8985.4307,1.9487,1.9487,0,0,0-.4619,1.0733Z" fill="#2f2f2f"/>
      <path d="M130.36,16.8546V7.0519h3.4726q5.2223,0,5.2227,4.7783a4.8284,4.8284,0,0,1-1.4258,3.6572,5.2528,5.2528,0,0,1-3.7969,1.3672Zm2.208-8.0049v6.2139h1.0937a2.957,2.957,0,0,0,2.253-.8614,3.271,3.271,0,0,0,.8164-2.3447,2.9619,2.9619,0,0,0-.8106-2.2046,3.0843,3.0843,0,0,0-2.2724-.8032Z" fill="#2f2f2f"/>
      <path d="M141.5534,8.7472a1.2632,1.2632,0,0,1-.8955-.3247,1.0461,1.0461,0,0,1-.3486-.7964,1.0088,1.0088,0,0,1,.3486-.793,1.4631,1.4631,0,0,1,1.795,0,1.0152,1.0152,0,0,1,.3447.793,1.0439,1.0439,0,0,1-.3447.8066A1.2857,1.2857,0,0,1,141.5534,8.7472Zm1.0664,8.1074h-2.16v-7h2.16Z" fill="#2f2f2f"/>
      <path d="M148.9685,11.8028a1.875,1.875,0,0,0-.9092-.2119,1.31,1.31,0,0,0-1.1006.5161,2.2506,2.2506,0,0,0-.3965,1.4048v3.3428h-2.16v-7h2.16v1.2988h.0274a1.869,1.869,0,0,1,1.8457-1.4219,1.3933,1.3933,0,0,1,.5332.0821Z" fill="#2f2f2f"/>
      <path d="M156.3405,13.97h-4.5664q.11,1.5242,1.9209,1.5244a3.7477,3.7477,0,0,0,2.03-.5468V16.506a5.3371,5.3371,0,0,1-2.5224.52,3.5515,3.5515,0,0,1-2.6319-.94,3.552,3.552,0,0,1-.9365-2.6215,3.7452,3.7452,0,0,1,1.0117-2.7618,3.37,3.37,0,0,1,2.4883-1.0185,3.0616,3.0616,0,0,1,2.3691.9092,3.5032,3.5032,0,0,1,.8369,2.4677Zm-2.0029-1.3261q0-1.5038-1.2168-1.504a1.1588,1.1588,0,0,0-.8984.4307,1.9487,1.9487,0,0,0-.4619,1.0733Z" fill="#2f2f2f"/>
      <path d="M163.0085,16.6017a4.2679,4.2679,0,0,1-2.1123.4238,3.5717,3.5717,0,0,1-2.6113-.9775,3.3779,3.3779,0,0,1-.9981-2.5225,3.7175,3.7175,0,0,1,1.07-2.813,3.9511,3.9511,0,0,1,2.86-1.0288,3.67,3.67,0,0,1,1.791.3281v1.8321a2.4617,2.4617,0,0,0-1.5107-.5059,1.9875,1.9875,0,0,0-1.4727.5434,2.0241,2.0241,0,0,0-.5439,1.5005,1.9933,1.9933,0,0,0,.5195,1.46,1.91,1.91,0,0,0,1.4287.53,2.8481,2.8481,0,0,0,1.5791-.5059Z" fill="#2f2f2f"/>
      <path d="M168.7409,16.7726a3.1967,3.1967,0,0,1-1.4423.2529q-2.2837,0-2.2832-2.3721v-3.206h-1.1348V9.8546h1.1348V8.3439l2.1533-.6153v2.126h1.5722v1.5928h-1.5722v2.83q0,1.0935.8681,1.0938a1.4618,1.4618,0,0,0,.7041-.1982Z" fill="#2f2f2f"/>
      <path d="M173.2741,17.0255a3.7608,3.7608,0,0,1-2.7509-.981,3.5551,3.5551,0,0,1-1.002-2.6626,3.557,3.557,0,0,1,1.0391-2.7172,3.9253,3.9253,0,0,1,2.8095-.981,3.7182,3.7182,0,0,1,2.7344.981,3.4848,3.4848,0,0,1,.9912,2.5942,3.7033,3.7033,0,0,1-1.0215,2.7549A3.8074,3.8074,0,0,1,173.2741,17.0255Zm.0547-5.6875a1.4394,1.4394,0,0,0-1.1894.5264,2.3226,2.3226,0,0,0-.4239,1.49q0,2.0163,1.627,2.0166,1.5513,0,1.5518-2.0713Q174.8943,11.3378,173.3288,11.338Z" fill="#2f2f2f"/>
      <path d="M183.0427,11.8028a1.875,1.875,0,0,0-.9092-.2119,1.31,1.31,0,0,0-1.1006.5161,2.2506,2.2506,0,0,0-.3965,1.4048v3.3428h-2.16v-7h2.16v1.2988h.0274A1.869,1.869,0,0,1,182.51,9.7315a1.3929,1.3929,0,0,1,.5332.0821Z" fill="#2f2f2f"/>
      <path d="M191.1628,9.8546l-2.8437,7.56q-1.0254,2.7276-3.09,2.7276a3.95,3.95,0,0,1-1.292-.1778V18.2423a1.82,1.82,0,0,0,.9366.2529,1.17,1.17,0,0,0,1.1621-.7861l.3691-.8682-2.8437-6.9863h2.3925l1.3057,4.2588a5.5674,5.5674,0,0,1,.1914.9365h.0273a6.5589,6.5589,0,0,1,.2256-.9228l1.3194-4.2725Z" fill="#2f2f2f"/>
    </g>
    <g>
      <path d="M248.4265,125.3287v3.7051H247.278v-9.8027h2.6934a3.5584,3.5584,0,0,1,2.4375.7656,2.7341,2.7341,0,0,1,.8643,2.16,2.9722,2.9722,0,0,1-.96,2.2832,3.6727,3.6727,0,0,1-2.5947.8887Zm0-5.0586v4.02H249.63a2.6871,2.6871,0,0,0,1.8145-.5435,1.9216,1.9216,0,0,0,.6259-1.5347q0-1.9416-2.2968-1.9414Z" fill="#2f2f2f"/>
      <path d="M260.3093,125.8141h-4.9424a2.6189,2.6189,0,0,0,.6289,1.8047,2.1683,2.1683,0,0,0,1.6543.6357,3.4407,3.4407,0,0,0,2.1738-.7793v1.0527a4.0614,4.0614,0,0,1-2.44.67,2.9584,2.9584,0,0,1-2.331-.9537,3.9013,3.9013,0,0,1-.8477-2.6831,3.8291,3.8291,0,0,1,.9258-2.6626,2.9716,2.9716,0,0,1,2.3008-1.0288,2.6315,2.6315,0,0,1,2.1259.8887,3.7065,3.7065,0,0,1,.752,2.4678Zm-1.1484-.95a2.2884,2.2884,0,0,0-.4678-1.5108,1.5985,1.5985,0,0,0-1.2822-.54,1.8108,1.8108,0,0,0-1.3467.5674,2.5762,2.5762,0,0,0-.6836,1.4834Z" fill="#2f2f2f"/>
      <path d="M267.6609,125.8141h-4.9424a2.6179,2.6179,0,0,0,.6289,1.8047,2.1681,2.1681,0,0,0,1.6543.6357,3.4407,3.4407,0,0,0,2.1738-.7793v1.0527a4.0614,4.0614,0,0,1-2.44.67,2.9586,2.9586,0,0,1-2.3311-.9537,3.9018,3.9018,0,0,1-.8476-2.6831,3.83,3.83,0,0,1,.9257-2.6626,2.9716,2.9716,0,0,1,2.3008-1.0288,2.6318,2.6318,0,0,1,2.126.8887,3.7065,3.7065,0,0,1,.752,2.4678Zm-1.1485-.95a2.2879,2.2879,0,0,0-.4678-1.5108,1.5983,1.5983,0,0,0-1.2822-.54,1.8111,1.8111,0,0,0-1.3467.5674,2.5774,2.5774,0,0,0-.6836,1.4834Z" fill="#2f2f2f"/>
      <path d="M272.9939,123.1686a1.3715,1.3715,0,0,0-.8477-.2256,1.4287,1.4287,0,0,0-1.1992.6767,3.1216,3.1216,0,0,0-.4824,1.8457v3.5684h-1.1211v-7h1.1211v1.4424h.0273a2.4425,2.4425,0,0,1,.7315-1.1519,1.6675,1.6675,0,0,1,1.1-.4136,1.8287,1.8287,0,0,1,.67.0957Z" fill="#2f2f2f"/>
      <path d="M279.8366,125.8141h-4.9423a2.6179,2.6179,0,0,0,.6289,1.8047,2.168,2.168,0,0,0,1.6543.6357,3.4409,3.4409,0,0,0,2.1738-.7793v1.0527a4.0614,4.0614,0,0,1-2.44.67,2.9585,2.9585,0,0,1-2.3311-.9537,3.9018,3.9018,0,0,1-.8477-2.6831,3.8291,3.8291,0,0,1,.9258-2.6626,2.9716,2.9716,0,0,1,2.3008-1.0288,2.6318,2.6318,0,0,1,2.126.8887,3.7065,3.7065,0,0,1,.7519,2.4678Zm-1.1484-.95a2.2879,2.2879,0,0,0-.4678-1.5108,1.5984,1.5984,0,0,0-1.2822-.54,1.8111,1.8111,0,0,0-1.3467.5674,2.5768,2.5768,0,0,0-.6836,1.4834Z" fill="#2f2f2f"/>
      <path d="M287.5681,129.0338H286.447v-1.19H286.42a2.5875,2.5875,0,0,1-2.4062,1.3536,2.6169,2.6169,0,0,1-2.1094-.94,3.8608,3.8608,0,0,1-.789-2.56,4.1966,4.1966,0,0,1,.875-2.7823,2.8856,2.8856,0,0,1,2.331-1.0459,2.2438,2.2438,0,0,1,2.0986,1.1348h.0274v-4.334h1.1211Zm-1.1211-3.165v-1.0323a2.0015,2.0015,0,0,0-.5606-1.4355,1.88,1.88,0,0,0-1.4218-.5879,1.9352,1.9352,0,0,0-1.6133.7519,3.2974,3.2974,0,0,0-.5879,2.0782,2.958,2.958,0,0,0,.5645,1.9106,1.84,1.84,0,0,0,1.5136.7007,1.9175,1.9175,0,0,0,1.5215-.6768A2.5258,2.5258,0,0,0,286.447,125.8688Z" fill="#2f2f2f"/>
      <path d="M299.1755,122.0338l-2.7891,7h-1.1l-2.6524-7h1.23l1.7773,5.0859a4.599,4.599,0,0,1,.2461.9776h.0274a4.6212,4.6212,0,0,1,.2187-.95l1.8594-5.1133Z" fill="#2f2f2f"/>
      <path d="M300.9909,120.2564a.7114.7114,0,0,1-.5127-.205.6913.6913,0,0,1-.2119-.52.7179.7179,0,0,1,.7246-.7314.7261.7261,0,0,1,.5235.2085.7315.7315,0,0,1,0,1.0356A.7214.7214,0,0,1,300.9909,120.2564Zm.5469,8.7774h-1.1211v-7h1.1211Z" fill="#2f2f2f"/>
      <path d="M307.3064,123.1686a1.3715,1.3715,0,0,0-.8477-.2256,1.4287,1.4287,0,0,0-1.1992.6767,3.1216,3.1216,0,0,0-.4824,1.8457v3.5684H303.656v-7h1.1211v1.4424h.0273a2.4425,2.4425,0,0,1,.7315-1.1519,1.6675,1.6675,0,0,1,1.1-.4136,1.8287,1.8287,0,0,1,.67.0957Z" fill="#2f2f2f"/>
      <path d="M312.2253,128.9654a2.1612,2.1612,0,0,1-1.0459.2188q-1.8384,0-1.8389-2.0508v-4.1426h-1.2031v-.957h1.2031v-1.709l1.1211-.3623v2.0713h1.7637v.957h-1.7637v3.9444a1.6375,1.6375,0,0,0,.2393,1.0048.9538.9538,0,0,0,.793.3008,1.18,1.18,0,0,0,.7314-.2324Z" fill="#2f2f2f"/>
      <path d="M319.3435,129.0338h-1.1211v-1.1074h-.0274a2.3019,2.3019,0,0,1-2.16,1.2715q-2.502,0-2.502-2.9805v-4.1836h1.1143V126.04q0,2.2147,1.6953,2.2148a1.7166,1.7166,0,0,0,1.3506-.605,2.3175,2.3175,0,0,0,.5293-1.5825v-4.0332h1.1211Z" fill="#2f2f2f"/>
      <path d="M326.4988,129.0338h-1.1211V127.94H325.35a2.3467,2.3467,0,0,1-2.1533,1.2579,2.2985,2.2985,0,0,1-1.6367-.5538,1.9169,1.9169,0,0,1-.5918-1.47q0-1.9622,2.31-2.2832l2.0987-.2939q0-1.7843-1.4424-1.7842a3.446,3.446,0,0,0-2.2832.8613V122.526a4.3393,4.3393,0,0,1,2.3789-.6563q2.4682,0,2.4678,2.6114Zm-1.1211-3.541-1.6885.2324a2.7419,2.7419,0,0,0-1.1758.3862,1.1134,1.1134,0,0,0-.3965.981,1.07,1.07,0,0,0,.3652.8374,1.4168,1.4168,0,0,0,.9747.3247,1.7972,1.7972,0,0,0,1.3769-.5845,2.0839,2.0839,0,0,0,.544-1.48Z" fill="#2f2f2f"/>
      <path d="M329.64,129.0338h-1.1211V118.6705H329.64Z" fill="#2f2f2f"/>
      <path d="M270.2,145.8336h-1.1211v-3.9922q0-2.2287-1.6269-2.2285a1.7632,1.7632,0,0,0-1.3906.6323,2.3421,2.3421,0,0,0-.5508,1.5962v3.9922h-1.1211v-7h1.1211v1.1621h.0273a2.5255,2.5255,0,0,1,2.2969-1.3262,2.1406,2.1406,0,0,1,1.7568.7417,3.3064,3.3064,0,0,1,.6084,2.1431Z" fill="#2f2f2f"/>
      <path d="M277.903,142.6139h-4.9423a2.6179,2.6179,0,0,0,.6289,1.8047,2.168,2.168,0,0,0,1.6543.6357,3.4407,3.4407,0,0,0,2.1738-.7793v1.0527a4.0614,4.0614,0,0,1-2.44.67,2.9585,2.9585,0,0,1-2.3311-.9537,3.9018,3.9018,0,0,1-.8476-2.6831,3.829,3.829,0,0,1,.9257-2.6626,2.9716,2.9716,0,0,1,2.3008-1.0288,2.6318,2.6318,0,0,1,2.126.8887,3.7065,3.7065,0,0,1,.7519,2.4678Zm-1.1484-.95a2.2879,2.2879,0,0,0-.4678-1.5108,1.5984,1.5984,0,0,0-1.2822-.54,1.8111,1.8111,0,0,0-1.3467.5674,2.5774,2.5774,0,0,0-.6836,1.4834Z" fill="#2f2f2f"/>
      <path d="M282.8279,145.7652a2.1615,2.1615,0,0,1-1.0459.2188q-1.8384,0-1.8389-2.0508v-4.1426H278.74v-.957h1.2031v-1.709l1.1211-.3623v2.0713h1.7637v.957h-1.7637v3.9444a1.6382,1.6382,0,0,0,.2392,1.0048.9539.9539,0,0,0,.793.3008,1.18,1.18,0,0,0,.7315-.2324Z" fill="#2f2f2f"/>
      <path d="M293.5183,138.8336l-2.0987,7h-1.1621l-1.4423-5.0107a3.2841,3.2841,0,0,1-.1094-.65h-.0274a3.0625,3.0625,0,0,1-.1435.6358l-1.5654,5.0244h-1.1211l-2.1192-7h1.1758l1.4492,5.2637a3.1674,3.1674,0,0,1,.0957.6289h.0547a2.9408,2.9408,0,0,1,.1231-.6426l1.6132-5.25h1.0254l1.4492,5.2773a3.7067,3.7067,0,0,1,.1026.6289h.0547a2.8893,2.8893,0,0,1,.1162-.6289l1.4219-5.2773Z" fill="#2f2f2f"/>
      <path d="M297.5925,145.9977a3.25,3.25,0,0,1-2.4785-.981,3.6343,3.6343,0,0,1-.9258-2.6011,3.785,3.785,0,0,1,.9639-2.7549,3.4658,3.4658,0,0,1,2.6045-.9912,3.1368,3.1368,0,0,1,2.4433.9639,3.82,3.82,0,0,1,.8789,2.6729,3.7582,3.7582,0,0,1-.9472,2.6831A3.3162,3.3162,0,0,1,297.5925,145.9977Zm.082-6.3848a2.1329,2.1329,0,0,0-1.709.7349,3.02,3.02,0,0,0-.6289,2.0268,2.8541,2.8541,0,0,0,.6358,1.9619,2.1606,2.1606,0,0,0,1.7021.7178,2.0524,2.0524,0,0,0,1.6719-.7041,3.0606,3.0606,0,0,0,.584-2.0029,3.1139,3.1139,0,0,0-.584-2.0235A2.0423,2.0423,0,0,0,297.6745,139.6129Z" fill="#2f2f2f"/>
      <path d="M306.445,139.9684a1.3712,1.3712,0,0,0-.8476-.2256,1.4287,1.4287,0,0,0-1.1992.6767,3.1216,3.1216,0,0,0-.4825,1.8457v3.5684h-1.1211v-7h1.1211v1.4424h.0274a2.4431,2.4431,0,0,1,.7314-1.1519,1.6678,1.6678,0,0,1,1.1006-.4136,1.8253,1.8253,0,0,1,.67.0958Z" fill="#2f2f2f"/>
      <path d="M313.4988,145.8336h-1.5723l-3.09-3.3633h-.0273v3.3633h-1.1211V135.47h1.1211V142.04h.0273l2.94-3.2061h1.47l-3.247,3.3769Z" fill="#2f2f2f"/>
    </g>
    <g>
      <path d="M403.7253,69.6549h-2.4062l-.6973-2.1807h-3.4863l-.69,2.1807h-2.3925l3.5683-9.8027h2.6182Zm-3.6094-3.876-1.0527-3.2949a4.3472,4.3472,0,0,1-.1641-.8818h-.0546a3.7431,3.7431,0,0,1-.1709.8544l-1.0665,3.3223Z" fill="#2f2f2f"/>
      <path d="M410.6306,69.6549h-6.2822v-.8955l3.5136-4.5117h-3.165V62.6549h5.9062v1.0664l-3.3291,4.3408h3.3565Z" fill="#2f2f2f"/>
      <path d="M418.5134,69.6549H416.36V68.5885h-.0342a2.4428,2.4428,0,0,1-2.14,1.2373q-2.4332,0-2.4336-2.9463V62.6549h2.1533v4.0332q0,1.4832,1.1758,1.4834a1.1629,1.1629,0,0,0,.93-.4068,1.6392,1.6392,0,0,0,.3487-1.104V62.6549h2.1533Z" fill="#2f2f2f"/>
      <path d="M424.8474,64.6031a1.875,1.875,0,0,0-.9092-.2119,1.31,1.31,0,0,0-1.1006.5161,2.2506,2.2506,0,0,0-.3965,1.4048v3.3428h-2.16v-7h2.16v1.2988h.0274a1.869,1.869,0,0,1,1.8457-1.4219,1.3929,1.3929,0,0,1,.5332.0821Z" fill="#2f2f2f"/>
      <path d="M432.22,66.77H427.653q.11,1.5241,1.9209,1.5244a3.7475,3.7475,0,0,0,2.03-.5468v1.5586a5.3383,5.3383,0,0,1-2.5224.52,3.2581,3.2581,0,0,1-3.5684-3.5615,3.7452,3.7452,0,0,1,1.0117-2.7618,3.37,3.37,0,0,1,2.4883-1.0185,3.0616,3.0616,0,0,1,2.3691.9092,3.5032,3.5032,0,0,1,.837,2.4677Zm-2.003-1.3262q0-1.5036-1.2168-1.5039a1.1588,1.1588,0,0,0-.8984.4307,1.9487,1.9487,0,0,0-.4619,1.0732Z" fill="#2f2f2f"/>
      <path d="M445.7409,59.8522l-3.3769,9.8027h-2.502l-3.3359-9.8027h2.3789l2.0439,6.8222a4.8625,4.8625,0,0,1,.1983.9776h.041a5.5531,5.5531,0,0,1,.2119-1.0049l2.03-6.7949Z" fill="#2f2f2f"/>
      <path d="M447.87,61.5475a1.2632,1.2632,0,0,1-.8955-.3247,1.0462,1.0462,0,0,1-.3486-.7964,1.0088,1.0088,0,0,1,.3486-.793,1.4631,1.4631,0,0,1,1.795,0,1.0149,1.0149,0,0,1,.3447.793,1.0435,1.0435,0,0,1-.3447.8066A1.2857,1.2857,0,0,1,447.87,61.5475Zm1.0665,8.1074h-2.16v-7h2.16Z" fill="#2f2f2f"/>
      <path d="M455.2849,64.6031a1.875,1.875,0,0,0-.9092-.2119,1.31,1.31,0,0,0-1.1006.5161,2.2506,2.2506,0,0,0-.3965,1.4048v3.3428h-2.16v-7h2.16v1.2988h.0274a1.869,1.869,0,0,1,1.8457-1.4219,1.3929,1.3929,0,0,1,.5332.0821Z" fill="#2f2f2f"/>
      <path d="M460.8171,69.5729a3.1968,3.1968,0,0,1-1.4424.2529q-2.2836,0-2.2832-2.3721v-3.206h-1.1347V62.6549h1.1347V61.1441l2.1533-.6152v2.126h1.5723v1.5928h-1.5723v2.83q0,1.0935.8682,1.0938a1.4612,1.4612,0,0,0,.7041-.1983Z" fill="#2f2f2f"/>
      <path d="M468.782,69.6549h-2.1534V68.5885h-.0341a2.4428,2.4428,0,0,1-2.14,1.2373q-2.4331,0-2.4336-2.9463V62.6549h2.1533v4.0332q0,1.4832,1.1758,1.4834a1.1631,1.1631,0,0,0,.93-.4068,1.64,1.64,0,0,0,.3486-1.104V62.6549h2.1534Z" fill="#2f2f2f"/>
      <path d="M476.4314,69.6549h-2.044V68.65H474.36a2.2816,2.2816,0,0,1-2.085,1.1758,2.1778,2.1778,0,0,1-1.6025-.5777,2.0666,2.0666,0,0,1-.585-1.5415q0-2.0369,2.4131-2.3515l1.9-.2529q0-1.1485-1.2441-1.1485a4.2481,4.2481,0,0,0-2.379.7451V63.0719a5.3646,5.3646,0,0,1,1.2344-.41,6.4706,6.4706,0,0,1,1.4248-.1777,2.6434,2.6434,0,0,1,2.9942,2.9873Zm-2.03-2.8438V66.34l-1.2715.164q-1.0531.137-1.0527.95a.7882.7882,0,0,0,.2558.605.9877.9877,0,0,0,.6944.2358,1.2789,1.2789,0,0,0,.9912-.42A1.52,1.52,0,0,0,474.4011,66.8111Z" fill="#2f2f2f"/>
      <path d="M480.2888,69.6549h-2.16V59.2916h2.16Z" fill="#2f2f2f"/>
      <path d="M486.1814,69.6549V59.8522h3.4726q5.2222,0,5.2227,4.7783a4.8284,4.8284,0,0,1-1.4258,3.6572,5.2528,5.2528,0,0,1-3.7969,1.3672Zm2.208-8.0049v6.2139h1.0937a2.957,2.957,0,0,0,2.253-.8614,3.271,3.271,0,0,0,.8164-2.3447,2.9619,2.9619,0,0,0-.8106-2.2046A3.0844,3.0844,0,0,0,489.47,61.65Z" fill="#2f2f2f"/>
      <path d="M502.5739,66.77h-4.5664q.11,1.5241,1.9209,1.5244a3.7477,3.7477,0,0,0,2.03-.5468v1.5586a5.3383,5.3383,0,0,1-2.5224.52,3.2581,3.2581,0,0,1-3.5684-3.5615,3.7452,3.7452,0,0,1,1.0117-2.7618,3.37,3.37,0,0,1,2.4883-1.0185,3.0616,3.0616,0,0,1,2.3691.9092,3.5036,3.5036,0,0,1,.8369,2.4677Zm-2.0029-1.3262q0-1.5036-1.2168-1.5039a1.1588,1.1588,0,0,0-.8984.4307,1.9487,1.9487,0,0,0-.4619,1.0732Z" fill="#2f2f2f"/>
      <path d="M503.5622,69.47V67.72a4.6042,4.6042,0,0,0,1.0625.4785,3.5232,3.5232,0,0,0,1.002.1573,2.149,2.149,0,0,0,.9062-.1573.5079.5079,0,0,0,.3311-.4785.4419.4419,0,0,0-.15-.3418,1.41,1.41,0,0,0-.3857-.2392,4.4806,4.4806,0,0,0-.5166-.1846c-.1866-.0547-.3672-.1162-.54-.1846a5.1433,5.1433,0,0,1-.7344-.3384,2.0818,2.0818,0,0,1-.5332-.42,1.6231,1.6231,0,0,1-.3281-.5537,2.1836,2.1836,0,0,1-.1133-.7451,1.9272,1.9272,0,0,1,.2559-1.0117,2.11,2.11,0,0,1,.6836-.6939,3.1283,3.1283,0,0,1,.9785-.3964,5.077,5.077,0,0,1,1.1445-.1265,6.3533,6.3533,0,0,1,.9434.0718,6.9852,6.9852,0,0,1,.9433.2085v1.6679a3.3981,3.3981,0,0,0-.8789-.3589,3.7089,3.7089,0,0,0-.9189-.12,2.04,2.04,0,0,0-.3994.0376,1.3054,1.3054,0,0,0-.3321.1094.6082.6082,0,0,0-.2255.1846.4247.4247,0,0,0-.0821.2563.4739.4739,0,0,0,.1231.3281,1.0661,1.0661,0,0,0,.3213.2359,3.1418,3.1418,0,0,0,.4414.1777c.1611.0522.3222.106.4814.1606a6.2093,6.2093,0,0,1,.7793.3282,2.5039,2.5039,0,0,1,.5986.417,1.6554,1.6554,0,0,1,.3829.5605,2.2478,2.2478,0,0,1-.1368,1.8286,2.1672,2.1672,0,0,1-.7187.7178,3.2567,3.2567,0,0,1-1.0313.4033,5.7231,5.7231,0,0,1-1.2138.1265A6.2587,6.2587,0,0,1,503.5622,69.47Z" fill="#2f2f2f"/>
      <path d="M517.2517,69.6549h-2.5908l-2.2354-3.4727h-.0273v3.4727h-2.16V59.2916h2.16v6.5967h.0273l2.085-3.2334h2.5634l-2.5087,3.2881Z" fill="#2f2f2f"/>
      <path d="M522.5993,69.5729a3.1967,3.1967,0,0,1-1.4423.2529q-2.2838,0-2.2832-2.3721v-3.206H517.739V62.6549h1.1348V61.1441l2.1533-.6152v2.126h1.5722v1.5928h-1.5722v2.83q0,1.0935.8681,1.0938a1.4609,1.4609,0,0,0,.7041-.1983Z" fill="#2f2f2f"/>
      <path d="M527.1325,69.8258a3.7608,3.7608,0,0,1-2.7509-.981,4.0557,4.0557,0,0,1,.0371-5.38,3.9257,3.9257,0,0,1,2.81-.9809,3.7186,3.7186,0,0,1,2.7344.9809,3.4852,3.4852,0,0,1,.9912,2.5943,3.7034,3.7034,0,0,1-1.0215,2.7549A3.8074,3.8074,0,0,1,527.1325,69.8258Zm.0547-5.6875a1.4394,1.4394,0,0,0-1.1894.5264,2.3226,2.3226,0,0,0-.4239,1.49q0,2.0163,1.627,2.0166,1.5513,0,1.5518-2.0713Q528.7527,64.1381,527.1872,64.1383Z" fill="#2f2f2f"/>
      <path d="M534.5232,68.8414h-.0274v4.0332h-2.16v-10.22h2.16v1.0527h.0274a2.7484,2.7484,0,0,1,4.3506-.2905,3.9694,3.9694,0,0,1,.7421,2.5395,4.3034,4.3034,0,0,1-.8652,2.81,2.8176,2.8176,0,0,1-2.3,1.06A2.18,2.18,0,0,1,534.5232,68.8414Zm-.0616-2.8711v.5606a1.7836,1.7836,0,0,0,.3829,1.1826,1.2454,1.2454,0,0,0,1.0048.458,1.3259,1.3259,0,0,0,1.1455-.5708,2.76,2.76,0,0,0,.4063-1.6167q0-1.8457-1.4356-1.8457a1.35,1.35,0,0,0-1.0839.5024A2.0093,2.0093,0,0,0,534.4616,65.97Z" fill="#2f2f2f"/>
    </g>
    <g>
      <path d="M445.4275,142.7345H444.279v-4.4707h-5.0722v4.4707h-1.1485v-9.8028h1.1485v4.3h5.0722v-4.3h1.1485Z" fill="#2f2f2f"/>
      <path d="M450.6853,142.8985a3.25,3.25,0,0,1-2.4785-.9809,3.6343,3.6343,0,0,1-.9258-2.6011,3.7853,3.7853,0,0,1,.9638-2.7549,3.4661,3.4661,0,0,1,2.6045-.9912,3.137,3.137,0,0,1,2.4434.9639,3.8209,3.8209,0,0,1,.8789,2.6728,3.7577,3.7577,0,0,1-.9473,2.6831A3.3155,3.3155,0,0,1,450.6853,142.8985Zm.082-6.3847a2.1331,2.1331,0,0,0-1.709.7348,3.02,3.02,0,0,0-.6289,2.0269,2.8536,2.8536,0,0,0,.6358,1.9619,2.1606,2.1606,0,0,0,1.7021.7178,2.0524,2.0524,0,0,0,1.6719-.7041,3.0609,3.0609,0,0,0,.584-2.003,3.1134,3.1134,0,0,0-.584-2.0234A2.0423,2.0423,0,0,0,450.7673,136.5138Z" fill="#2f2f2f"/>
      <path d="M455.4363,142.4815v-1.2031a3.3175,3.3175,0,0,0,2.0166.6768q1.4764,0,1.4765-.9844a.8562.8562,0,0,0-.126-.4751,1.28,1.28,0,0,0-.3418-.3452,2.671,2.671,0,0,0-.5058-.27c-.1944-.08-.4024-.1631-.626-.25a8.1421,8.1421,0,0,1-.8174-.3726,2.5,2.5,0,0,1-.5879-.4238,1.5955,1.5955,0,0,1-.3554-.5366,1.9124,1.9124,0,0,1-.1192-.7041,1.6723,1.6723,0,0,1,.2256-.8716,1.9963,1.9963,0,0,1,.6016-.6358,2.7952,2.7952,0,0,1,.8584-.3862,3.8039,3.8039,0,0,1,.9941-.13,4.0176,4.0176,0,0,1,1.627.3145V137.02a3.169,3.169,0,0,0-1.7774-.5058,2.08,2.08,0,0,0-.5674.0717,1.3974,1.3974,0,0,0-.4345.2017.927.927,0,0,0-.2793.311.8158.8158,0,0,0-.1.4.956.956,0,0,0,.1.4581.9956.9956,0,0,0,.29.3281,2.224,2.224,0,0,0,.4649.26q.2739.1165.622.253a8.6754,8.6754,0,0,1,.834.3657,2.8581,2.8581,0,0,1,.6289.4238,1.6662,1.6662,0,0,1,.4.5435,1.7622,1.7622,0,0,1,.14.7314,1.72,1.72,0,0,1-.2295.9024,1.9585,1.9585,0,0,1-.6114.6357,2.7978,2.7978,0,0,1-.8818.376,4.3593,4.3593,0,0,1-1.0459.123A3.9724,3.9724,0,0,1,455.4363,142.4815Z" fill="#2f2f2f"/>
      <path d="M465.09,142.6661a2.1615,2.1615,0,0,1-1.0459.2188q-1.8384,0-1.8389-2.0508v-4.1426h-1.2031v-.957h1.2031v-1.709l1.1211-.3623v2.0713H465.09v.957h-1.7637v3.9443a1.6378,1.6378,0,0,0,.2393,1.0049.9536.9536,0,0,0,.7929.3008,1.18,1.18,0,0,0,.7315-.2324Z" fill="#2f2f2f"/>
      <path d="M471.57,141.7228h-.0273v4.2314h-1.1211v-10.22h1.1211v1.23h.0273a2.6519,2.6519,0,0,1,2.42-1.3945,2.5639,2.5639,0,0,1,2.1123.94,3.893,3.893,0,0,1,.7588,2.519,4.34,4.34,0,0,1-.8545,2.813,2.8443,2.8443,0,0,1-2.3379,1.0561A2.342,2.342,0,0,1,471.57,141.7228Zm-.0273-2.8233v.9776a2.0778,2.0778,0,0,0,.5644,1.4731,2.0109,2.0109,0,0,0,3.0274-.1743,3.5707,3.5707,0,0,0,.5781-2.167,2.82,2.82,0,0,0-.54-1.832,1.7882,1.7882,0,0,0-1.4629-.6631,1.9863,1.9863,0,0,0-1.5723.68A2.4979,2.4979,0,0,0,471.5427,138.9Z" fill="#2f2f2f"/>
      <path d="M481.5671,142.8985a3.25,3.25,0,0,1-2.4785-.9809,3.6343,3.6343,0,0,1-.9258-2.6011,3.785,3.785,0,0,1,.9639-2.7549,3.4659,3.4659,0,0,1,2.6045-.9912,3.1368,3.1368,0,0,1,2.4433.9639,3.82,3.82,0,0,1,.8789,2.6728,3.7581,3.7581,0,0,1-.9472,2.6831A3.3159,3.3159,0,0,1,481.5671,142.8985Zm.082-6.3847a2.1328,2.1328,0,0,0-1.7089.7348,3.02,3.02,0,0,0-.6289,2.0269,2.854,2.854,0,0,0,.6357,1.9619,2.1606,2.1606,0,0,0,1.7021.7178,2.0523,2.0523,0,0,0,1.6719-.7041,3.0609,3.0609,0,0,0,.584-2.003,3.1134,3.1134,0,0,0-.584-2.0234A2.0422,2.0422,0,0,0,481.6491,136.5138Z" fill="#2f2f2f"/>
      <path d="M489.7585,142.8985a3.25,3.25,0,0,1-2.4785-.9809,3.6343,3.6343,0,0,1-.9258-2.6011,3.785,3.785,0,0,1,.9639-2.7549,3.4659,3.4659,0,0,1,2.6045-.9912,3.1368,3.1368,0,0,1,2.4433.9639,3.82,3.82,0,0,1,.8789,2.6728,3.7581,3.7581,0,0,1-.9472,2.6831A3.3159,3.3159,0,0,1,489.7585,142.8985Zm.082-6.3847a2.1328,2.1328,0,0,0-1.7089.7348,3.02,3.02,0,0,0-.6289,2.0269,2.854,2.854,0,0,0,.6357,1.9619,2.1606,2.1606,0,0,0,1.7021.7178,2.0523,2.0523,0,0,0,1.6719-.7041,3.0609,3.0609,0,0,0,.584-2.003,3.1134,3.1134,0,0,0-.584-2.0234A2.0422,2.0422,0,0,0,489.8405,136.5138Z" fill="#2f2f2f"/>
      <path d="M496.0749,142.7345h-1.1211V132.3712h1.1211Z" fill="#2f2f2f"/>
    </g>
    <g>
      <path d="M81.3562,181.8946l-3.63,9.8028H76.4616l-3.5546-9.8028h1.2783l2.7138,7.7725a4.6044,4.6044,0,0,1,.1983.8682h.0273a4.2254,4.2254,0,0,1,.2256-.8819l2.7686-7.7588Z" fill="#2f2f2f"/>
      <path d="M83.2683,182.92a.7111.7111,0,0,1-.5127-.2051.6911.6911,0,0,1-.2119-.5195.7179.7179,0,0,1,.7246-.7314.7257.7257,0,0,1,.5234.2085.7312.7312,0,0,1,0,1.0356A.721.721,0,0,1,83.2683,182.92Zm.5469,8.7774H82.6941v-7h1.1211Z" fill="#2f2f2f"/>
      <path d="M89.5837,185.8321a1.3714,1.3714,0,0,0-.8476-.2256,1.4286,1.4286,0,0,0-1.1993.6768,3.1223,3.1223,0,0,0-.4824,1.8457v3.5684H85.9333v-7h1.1211V186.14h.0274a2.4425,2.4425,0,0,1,.7314-1.1518,1.6676,1.6676,0,0,1,1.1006-.4136,1.8281,1.8281,0,0,1,.67.0957Z" fill="#2f2f2f"/>
      <path d="M94.5027,191.629a2.1615,2.1615,0,0,1-1.0459.2188q-1.8384,0-1.8389-2.0508v-4.1426H90.4148v-.957h1.2031v-1.709l1.1211-.3623v2.0713h1.7637v.957H92.739v3.9443a1.6386,1.6386,0,0,0,.2392,1.0049.9539.9539,0,0,0,.793.3008,1.18,1.18,0,0,0,.7315-.2324Z" fill="#2f2f2f"/>
      <path d="M101.6208,191.6974H100.5V190.59h-.0273a2.3019,2.3019,0,0,1-2.16,1.2715q-2.5019,0-2.5019-2.98v-4.1836h1.1142v4.0058q0,2.2149,1.6953,2.2149a1.7166,1.7166,0,0,0,1.3506-.605,2.3172,2.3172,0,0,0,.5293-1.5825v-4.0332h1.1211Z" fill="#2f2f2f"/>
      <path d="M108.7761,191.6974H107.655v-1.0938h-.0273a2.3467,2.3467,0,0,1-2.1534,1.2578,2.2988,2.2988,0,0,1-1.6367-.5537,1.9174,1.9174,0,0,1-.5918-1.47q0-1.9621,2.3106-2.2832l2.0986-.294q0-1.7841-1.4424-1.7841a3.446,3.446,0,0,0-2.2832.8613V185.19a4.34,4.34,0,0,1,2.3789-.6563q2.4682,0,2.4678,2.6113Zm-1.1211-3.541-1.6885.2324a2.74,2.74,0,0,0-1.1758.3862,1.1134,1.1134,0,0,0-.3964.981,1.07,1.07,0,0,0,.3652.8374,1.4163,1.4163,0,0,0,.9746.3247,1.7977,1.7977,0,0,0,1.377-.5845,2.0845,2.0845,0,0,0,.5439-1.48Z" fill="#2f2f2f"/>
      <path d="M111.9177,191.6974h-1.1211V181.3341h1.1211Z" fill="#2f2f2f"/>
      <path d="M126.0749,191.6974h-1.4082l-5.0449-7.8135a3.2434,3.2434,0,0,1-.3145-.6152h-.041a10.1356,10.1356,0,0,1,.0547,1.3466v7.0821h-1.1484v-9.8028h1.49l4.9082,7.6905q.3076.4782.3965.6562h.0273a10.3219,10.3219,0,0,1-.0683-1.4424v-6.9043h1.1484Z" fill="#2f2f2f"/>
      <path d="M134.0534,188.4776h-4.9423a2.6177,2.6177,0,0,0,.6289,1.8047,2.1677,2.1677,0,0,0,1.6543.6358,3.4409,3.4409,0,0,0,2.1738-.7793v1.0527a4.0614,4.0614,0,0,1-2.44.67,2.9584,2.9584,0,0,1-2.3311-.9536,3.902,3.902,0,0,1-.8477-2.6831,3.8289,3.8289,0,0,1,.9258-2.6626,2.9716,2.9716,0,0,1,2.3008-1.0288,2.6318,2.6318,0,0,1,2.126.8887,3.7063,3.7063,0,0,1,.7519,2.4677Zm-1.1484-.95a2.2878,2.2878,0,0,0-.4678-1.5107,1.5981,1.5981,0,0,0-1.2822-.54,1.811,1.811,0,0,0-1.3467.5673,2.5774,2.5774,0,0,0-.6836,1.4834Z" fill="#2f2f2f"/>
      <path d="M138.9773,191.629a2.1615,2.1615,0,0,1-1.0459.2188q-1.8384,0-1.8389-2.0508v-4.1426h-1.2031v-.957h1.2031v-1.709l1.1211-.3623v2.0713h1.7637v.957h-1.7637v3.9443a1.6378,1.6378,0,0,0,.2393,1.0049.9536.9536,0,0,0,.7929.3008,1.18,1.18,0,0,0,.7315-.2324Z" fill="#2f2f2f"/>
      <path d="M149.6677,184.6974l-2.0986,7H146.407l-1.4424-5.0108a3.2891,3.2891,0,0,1-.1094-.6494h-.0273a3.07,3.07,0,0,1-.1436.6358l-1.5654,5.0244h-1.1211l-2.1192-7h1.1758l1.4492,5.2636a3.17,3.17,0,0,1,.0957.6289h.0547a2.941,2.941,0,0,1,.1231-.6425l1.6133-5.25h1.0253l1.4493,5.2773a3.706,3.706,0,0,1,.1025.6289h.0547a2.8893,2.8893,0,0,1,.1162-.6289l1.4219-5.2773Z" fill="#2f2f2f"/>
      <path d="M153.7429,191.8614a3.25,3.25,0,0,1-2.4785-.9809,3.6343,3.6343,0,0,1-.9258-2.6011,3.785,3.785,0,0,1,.9639-2.7549,3.4658,3.4658,0,0,1,2.6045-.9912,3.1368,3.1368,0,0,1,2.4433.9639,3.82,3.82,0,0,1,.8789,2.6728,3.7581,3.7581,0,0,1-.9472,2.6831A3.3159,3.3159,0,0,1,153.7429,191.8614Zm.082-6.3847a2.1331,2.1331,0,0,0-1.709.7348,3.02,3.02,0,0,0-.6289,2.0269,2.8536,2.8536,0,0,0,.6358,1.9619,2.1606,2.1606,0,0,0,1.7021.7178,2.0524,2.0524,0,0,0,1.6719-.7041,3.0609,3.0609,0,0,0,.584-2.003,3.1134,3.1134,0,0,0-.584-2.0234A2.0423,2.0423,0,0,0,153.8249,185.4767Z" fill="#2f2f2f"/>
      <path d="M162.5954,185.8321a1.3714,1.3714,0,0,0-.8476-.2256,1.4286,1.4286,0,0,0-1.1992.6768,3.1216,3.1216,0,0,0-.4825,1.8457v3.5684H158.945v-7h1.1211V186.14h.0274a2.4433,2.4433,0,0,1,.7314-1.1518,1.6676,1.6676,0,0,1,1.1006-.4136,1.8277,1.8277,0,0,1,.67.0957Z" fill="#2f2f2f"/>
      <path d="M169.6491,191.6974h-1.5722l-3.09-3.3633H164.96v3.3633h-1.1211V181.3341H164.96v6.5693h.0273l2.94-3.206h1.47l-3.2471,3.3769Z" fill="#2f2f2f"/>
    </g>
    <g>
      <path d="M112.0388,131.2545h-2.4063l-.6972-2.1807h-3.4864l-.69,2.1807h-2.3926l3.5684-9.8027h2.6182Zm-3.6094-3.876-1.0527-3.2949a4.3321,4.3321,0,0,1-.1641-.8818h-.0547a3.7342,3.7342,0,0,1-.1709.8545l-1.0664,3.3222Z" fill="#2f2f2f"/>
      <path d="M118.9441,131.2545h-6.2823v-.8955l3.5137-4.5117h-3.165v-1.5928h5.9062v1.0664l-3.3291,4.3408h3.3565Z" fill="#2f2f2f"/>
      <path d="M126.8269,131.2545h-2.1533v-1.0664h-.0342a2.4428,2.4428,0,0,1-2.14,1.2373q-2.433,0-2.4336-2.9463v-4.2246H122.22v4.0332q0,1.4832,1.1757,1.4834a1.163,1.163,0,0,0,.93-.4067,1.64,1.64,0,0,0,.3487-1.104v-4.0059h2.1533Z" fill="#2f2f2f"/>
      <path d="M133.1609,126.2027a1.875,1.875,0,0,0-.9092-.2119,1.31,1.31,0,0,0-1.1006.5161,2.25,2.25,0,0,0-.3965,1.4048v3.3428h-2.16v-7h2.16v1.2988h.0274a1.869,1.869,0,0,1,1.8457-1.4219,1.3933,1.3933,0,0,1,.5332.0821Z" fill="#2f2f2f"/>
      <path d="M140.5329,128.37h-4.5664q.11,1.5241,1.9209,1.5244a3.7477,3.7477,0,0,0,2.03-.5468v1.5586a5.3375,5.3375,0,0,1-2.5225.5195,3.258,3.258,0,0,1-3.5683-3.5615,3.745,3.745,0,0,1,1.0117-2.7617,3.37,3.37,0,0,1,2.4883-1.0186,3.0616,3.0616,0,0,1,2.3691.9092,3.5036,3.5036,0,0,1,.8369,2.4677Zm-2.0029-1.3261q0-1.5037-1.2168-1.5039a1.1587,1.1587,0,0,0-.8984.4306,1.948,1.948,0,0,0-.4619,1.0733Z" fill="#2f2f2f"/>
      <path d="M154.5124,131.2545h-2.4062l-.6973-2.1807h-3.4863l-.69,2.1807H144.84l3.5683-9.8027h2.6182Zm-3.6094-3.876-1.0527-3.2949a4.34,4.34,0,0,1-.164-.8818h-.0547a3.745,3.745,0,0,1-.1709.8545l-1.0664,3.3222Z" fill="#2f2f2f"/>
      <path d="M155.6159,131.2545v-9.8027h3.4727q5.2221,0,5.2227,4.7783a4.8287,4.8287,0,0,1-1.4258,3.6572,5.253,5.253,0,0,1-3.7969,1.3672Zm2.208-8.0049v6.2139h1.0938a2.9571,2.9571,0,0,0,2.2529-.8613,3.2709,3.2709,0,0,0,.8164-2.3448,2.9618,2.9618,0,0,0-.81-2.2046,3.0847,3.0847,0,0,0-2.2725-.8032Z" fill="#2f2f2f"/>
      <path d="M80.0945,148.0543v-9.8027h3.4726q5.2222,0,5.2227,4.7783a4.8284,4.8284,0,0,1-1.4258,3.6572,5.2528,5.2528,0,0,1-3.7969,1.3672Zm2.208-8.0049v6.2139h1.0937a2.9571,2.9571,0,0,0,2.2529-.8613,3.2709,3.2709,0,0,0,.8164-2.3448,2.9618,2.9618,0,0,0-.8105-2.2046,3.0847,3.0847,0,0,0-2.2725-.8032Z" fill="#2f2f2f"/>
      <path d="M93.5339,148.2252a3.761,3.761,0,0,1-2.751-.981,4.0559,4.0559,0,0,1,.0371-5.38,3.9254,3.9254,0,0,1,2.81-.981,3.7184,3.7184,0,0,1,2.7344.981,3.4852,3.4852,0,0,1,.9912,2.5942,3.7033,3.7033,0,0,1-1.0215,2.7549A3.8074,3.8074,0,0,1,93.5339,148.2252Zm.0547-5.6875a1.44,1.44,0,0,0-1.1895.5264,2.3232,2.3232,0,0,0-.4238,1.49q0,2.0163,1.627,2.0166,1.5511,0,1.5517-2.0713Q95.154,142.5374,93.5886,142.5377Z" fill="#2f2f2f"/>
      <path d="M109.85,148.0543H107.697v-3.9922q0-1.5241-1.1211-1.5244a1.0309,1.0309,0,0,0-.8682.458,1.88,1.88,0,0,0-.3349,1.1416v3.917h-2.16v-4.0332q0-1.4832-1.1006-1.4834a1.0571,1.0571,0,0,0-.8857.4375,1.9265,1.9265,0,0,0-.3311,1.19v3.89h-2.16v-7h2.16v1.0937h.0274a2.6544,2.6544,0,0,1,2.2627-1.2646,2.0149,2.0149,0,0,1,2.03,1.3057,2.59,2.59,0,0,1,2.3516-1.3057q2.2838,0,2.2832,2.8164Z" fill="#2f2f2f"/>
      <path d="M117.4157,148.0543h-2.0439v-1.0049h-.0273a2.2817,2.2817,0,0,1-2.085,1.1758,2.178,2.178,0,0,1-1.6025-.5776,2.0665,2.0665,0,0,1-.585-1.5415q0-2.037,2.4131-2.3516l1.9-.2529q0-1.1486-1.2442-1.1485a4.2486,4.2486,0,0,0-2.3789.7451v-1.6269a5.3629,5.3629,0,0,1,1.2344-.41,6.4706,6.4706,0,0,1,1.4248-.1777,2.6434,2.6434,0,0,1,2.9941,2.9873Zm-2.03-2.8438v-.4716l-1.2715.164q-1.0533.137-1.0527.95a.7882.7882,0,0,0,.2558.605.9876.9876,0,0,0,.6943.2358,1.279,1.279,0,0,0,.9913-.42A1.52,1.52,0,0,0,115.3855,145.2105Z" fill="#2f2f2f"/>
      <path d="M120.1863,139.9469a1.2633,1.2633,0,0,1-.8956-.3247,1.0461,1.0461,0,0,1-.3486-.7964,1.0089,1.0089,0,0,1,.3486-.793,1.4631,1.4631,0,0,1,1.795,0,1.015,1.015,0,0,1,.3447.793,1.0434,1.0434,0,0,1-.3447.8066A1.2857,1.2857,0,0,1,120.1863,139.9469Zm1.0664,8.1074h-2.16v-7h2.16Z" fill="#2f2f2f"/>
      <path d="M129.8,148.0543h-2.1533v-3.89q0-1.6268-1.1621-1.627a1.1521,1.1521,0,0,0-.9228.4307,1.6421,1.6421,0,0,0-.3624,1.0937v3.9922h-2.16v-7h2.16v1.1074h.0274a2.4753,2.4753,0,0,1,2.249-1.2783q2.3247,0,2.3242,2.8848Z" fill="#2f2f2f"/>
      <path d="M135.1316,147.6783v-2.1875a4.2088,4.2088,0,0,0,1.292.7486,4.15,4.15,0,0,0,1.4082.25,3.105,3.105,0,0,0,.7275-.0752,1.7,1.7,0,0,0,.5195-.2085.9073.9073,0,0,0,.3116-.3145.7849.7849,0,0,0,.1025-.393.85.85,0,0,0-.1641-.5127,1.77,1.77,0,0,0-.4472-.417,4.7361,4.7361,0,0,0-.6739-.3692q-.39-.1779-.8408-.3623a4.2791,4.2791,0,0,1-1.7119-1.1689,2.547,2.547,0,0,1-.5645-1.668,2.6564,2.6564,0,0,1,.3077-1.3159,2.6159,2.6159,0,0,1,.8369-.9058,3.7674,3.7674,0,0,1,1.2275-.5229,6.2974,6.2974,0,0,1,1.4766-.1675,8.8673,8.8673,0,0,1,1.3564.0923,5.3449,5.3449,0,0,1,1.0908.2837v2.0439a3.3118,3.3118,0,0,0-.5361-.3008,4.3257,4.3257,0,0,0-.5986-.2153,4.5482,4.5482,0,0,0-.6123-.1265,4.32,4.32,0,0,0-.5772-.041,3.0139,3.0139,0,0,0-.6836.0718,1.7613,1.7613,0,0,0-.5195.2017.9961.9961,0,0,0-.3281.311.7392.7392,0,0,0-.1162.4067.7746.7746,0,0,0,.13.441,1.5037,1.5037,0,0,0,.3692.3691,3.9334,3.9334,0,0,0,.581.3418q.3414.1677.7725.3452a8.5832,8.5832,0,0,1,1.0557.523,3.7577,3.7577,0,0,1,.8037.6254,2.43,2.43,0,0,1,.5127.7964,3.1833,3.1833,0,0,1-.1328,2.42,2.53,2.53,0,0,1-.8448.9023,3.6541,3.6541,0,0,1-1.2412.4956,7.1669,7.1669,0,0,1-1.4931.15,8.277,8.277,0,0,1-1.5342-.1367A4.633,4.633,0,0,1,135.1316,147.6783Z" fill="#2f2f2f"/>
      <path d="M149.5075,145.17h-4.5664q.11,1.5241,1.9209,1.5244a3.7477,3.7477,0,0,0,2.03-.5468v1.5586a5.3375,5.3375,0,0,1-2.5225.5195,3.258,3.258,0,0,1-3.5683-3.5615,3.745,3.745,0,0,1,1.0117-2.7617,3.37,3.37,0,0,1,2.4883-1.0186,3.0616,3.0616,0,0,1,2.3691.9092,3.5037,3.5037,0,0,1,.8369,2.4678Zm-2.0029-1.3261q0-1.5037-1.2168-1.5039a1.1587,1.1587,0,0,0-.8984.4306,1.948,1.948,0,0,0-.4619,1.0733Z" fill="#2f2f2f"/>
      <path d="M155.4392,143.0025a1.875,1.875,0,0,0-.9092-.2119,1.31,1.31,0,0,0-1.1006.5161,2.2506,2.2506,0,0,0-.3965,1.4048v3.3428h-2.16v-7h2.16v1.2988h.0274a1.8689,1.8689,0,0,1,1.8457-1.4218,1.3932,1.3932,0,0,1,.5332.082Z" fill="#2f2f2f"/>
      <path d="M163.5378,141.0543l-2.6045,7h-2.4609l-2.4815-7h2.3106l1.2168,4.3135a6.274,6.274,0,0,1,.2392,1.2441h.0274a7.088,7.088,0,0,1,.2529-1.2031l1.2442-4.3545Z" fill="#2f2f2f"/>
      <path d="M165.5837,139.9469a1.263,1.263,0,0,1-.8955-.3247,1.0461,1.0461,0,0,1-.3486-.7964,1.0089,1.0089,0,0,1,.3486-.793,1.463,1.463,0,0,1,1.7949,0,1.0151,1.0151,0,0,1,.3448.793,1.0435,1.0435,0,0,1-.3448.8066A1.2853,1.2853,0,0,1,165.5837,139.9469Zm1.0664,8.1074h-2.16v-7h2.16Z" fill="#2f2f2f"/>
      <path d="M173.7292,147.8014a4.2679,4.2679,0,0,1-2.1123.4238,3.5717,3.5717,0,0,1-2.6113-.9775,3.3779,3.3779,0,0,1-.9981-2.5225,3.7172,3.7172,0,0,1,1.07-2.813,3.9507,3.9507,0,0,1,2.86-1.0288,3.67,3.67,0,0,1,1.791.3281v1.8321a2.4623,2.4623,0,0,0-1.5107-.5059,1.9875,1.9875,0,0,0-1.4727.5435,2.0237,2.0237,0,0,0-.5439,1.5,1.9933,1.9933,0,0,0,.5195,1.4595,1.91,1.91,0,0,0,1.4287.53,2.8481,2.8481,0,0,0,1.5791-.5059Z" fill="#2f2f2f"/>
      <path d="M181.445,145.17h-4.5664q.11,1.5241,1.9209,1.5244a3.7477,3.7477,0,0,0,2.03-.5468v1.5586a5.3375,5.3375,0,0,1-2.5225.5195,3.258,3.258,0,0,1-3.5683-3.5615,3.745,3.745,0,0,1,1.0117-2.7617,3.37,3.37,0,0,1,2.4883-1.0186,3.0616,3.0616,0,0,1,2.3691.9092,3.5037,3.5037,0,0,1,.8369,2.4678Zm-2.0029-1.3261q0-1.5037-1.2168-1.5039a1.1587,1.1587,0,0,0-.8984.4306,1.948,1.948,0,0,0-.4619,1.0733Z" fill="#2f2f2f"/>
      <path d="M182.4333,147.87v-1.75a4.6042,4.6042,0,0,0,1.0625.4785,3.5232,3.5232,0,0,0,1.002.1573,2.1493,2.1493,0,0,0,.9062-.1573.5079.5079,0,0,0,.3311-.4785.4419.4419,0,0,0-.15-.3418,1.4091,1.4091,0,0,0-.3858-.2392,4.4671,4.4671,0,0,0-.5166-.1846c-.1865-.0547-.3671-.1162-.54-.1846a5.1326,5.1326,0,0,1-.7344-.3383,2.0843,2.0843,0,0,1-.5332-.4205,1.6231,1.6231,0,0,1-.3281-.5537,2.1832,2.1832,0,0,1-.1133-.7451,1.9272,1.9272,0,0,1,.2559-1.0117,2.1088,2.1088,0,0,1,.6836-.6938,3.1261,3.1261,0,0,1,.9785-.3965,5.077,5.077,0,0,1,1.1445-.1265,6.3543,6.3543,0,0,1,.9434.0718,6.9852,6.9852,0,0,1,.9433.2085v1.6679a3.3943,3.3943,0,0,0-.8789-.3588,3.7044,3.7044,0,0,0-.9189-.12,2.04,2.04,0,0,0-.3994.0376,1.3041,1.3041,0,0,0-.3321.1094.6083.6083,0,0,0-.2255.1846.4247.4247,0,0,0-.0821.2563.4737.4737,0,0,0,.1231.3281,1.0645,1.0645,0,0,0,.3213.2359,3.1418,3.1418,0,0,0,.4414.1777c.1611.0523.3222.106.4814.1607a6.21,6.21,0,0,1,.7793.3281,2.5039,2.5039,0,0,1,.5986.417,1.6554,1.6554,0,0,1,.3829.56,2.2478,2.2478,0,0,1-.1368,1.8286,2.1672,2.1672,0,0,1-.7187.7178,3.2544,3.2544,0,0,1-1.0313.4033,5.7231,5.7231,0,0,1-1.2138.1265A6.2587,6.2587,0,0,1,182.4333,147.87Z" fill="#2f2f2f"/>
    </g>
  </g>
</svg>
