<svg xmlns="http://www.w3.org/2000/svg" xmlns:xlink="http://www.w3.org/1999/xlink" viewBox="0 0 547.5713 290.1997">
  <defs>
    <linearGradient id="linear-gradient" x1="428.7713" y1="156.4" x2="428.7713" y2="20" gradientUnits="userSpaceOnUse">
      <stop offset="0" stop-color="#81d3ed"/>
      <stop offset="1" stop-color="#b6e5f9"/>
    </linearGradient>
    <linearGradient id="linear-gradient-2" x1="433.1714" y1="136.5" x2="433.1714" y2="57.5" gradientUnits="userSpaceOnUse">
      <stop offset="0" stop-color="#004dae"/>
      <stop offset="0.21" stop-color="#0061c4"/>
      <stop offset="0.51" stop-color="#0078dd"/>
      <stop offset="0.78" stop-color="#0086ec"/>
      <stop offset="1" stop-color="#008bf1"/>
    </linearGradient>
    <linearGradient id="linear-gradient-3" x1="59.8989" y1="1316.7121" x2="59.8989" y2="1286.7121" gradientTransform="matrix(1, 0, 0, -1, 0, 1376.6241)" gradientUnits="userSpaceOnUse">
      <stop offset="0" stop-color="#b3b2b4"/>
      <stop offset="0.38" stop-color="#b0aeaf"/>
      <stop offset="0.76" stop-color="#a2a1a1"/>
      <stop offset="1" stop-color="#979797"/>
    </linearGradient>
    <linearGradient id="linear-gradient-4" x1="93.8385" y1="1316.7121" x2="93.8385" y2="1286.7121" xlink:href="#linear-gradient-3"/>
    <linearGradient id="linear-gradient-5" x1="127.778" y1="1316.7121" x2="127.778" y2="1286.7121" xlink:href="#linear-gradient-3"/>
    <linearGradient id="linear-gradient-6" x1="103.9831" y1="1127.7362" x2="103.9831" y2="1149.8397" gradientTransform="matrix(1, 0, 0, -1, 0, 1376.6241)" gradientUnits="userSpaceOnUse">
      <stop offset="0" stop-color="#2e76bc"/>
      <stop offset="0.17" stop-color="#3780c3"/>
      <stop offset="0.38" stop-color="#4a8cca"/>
      <stop offset="0.59" stop-color="#5a95cf"/>
      <stop offset="0.8" stop-color="#659ad2"/>
      <stop offset="1" stop-color="#699cd3"/>
    </linearGradient>
    <linearGradient id="linear-gradient-7" x1="127.5165" y1="1114.805" x2="127.5165" y2="1133.0277" gradientTransform="matrix(1, 0, 0, -1, 0, 1376.6241)" gradientUnits="userSpaceOnUse">
      <stop offset="0" stop-color="#d3e9f9"/>
      <stop offset="1" stop-color="#f1f9f9"/>
    </linearGradient>
    <linearGradient id="linear-gradient-8" x1="145.4207" y1="1118.8531" x2="145.4207" y2="1158.1349" xlink:href="#linear-gradient-6"/>
    <linearGradient id="linear-gradient-9" x1="145.4316" y1="1129.4616" x2="145.4316" y2="1151.9176" xlink:href="#linear-gradient-7"/>
    <linearGradient id="linear-gradient-10" x1="-548.8051" y1="1511.4241" x2="-548.8051" y2="1481.4241" gradientTransform="matrix(1, 0, 0, -1, 564, 1610.6241)" gradientUnits="userSpaceOnUse">
      <stop offset="0" stop-color="#5ea0ef"/>
      <stop offset="0.18" stop-color="#559cec"/>
      <stop offset="0.47" stop-color="#3c91e5"/>
      <stop offset="0.84" stop-color="#1380da"/>
      <stop offset="1" stop-color="#0078d4"/>
    </linearGradient>
    <linearGradient id="linear-gradient-11" x1="48.464" y1="1141.6372" x2="48.464" y2="1119.0205" gradientTransform="matrix(1, 0, 0, -1, 0, 1376.6241)" gradientUnits="userSpaceOnUse">
      <stop offset="0.22" stop-color="#50c8e9"/>
      <stop offset="0.47" stop-color="#4ac7e9"/>
      <stop offset="0.63" stop-color="#3bc4e7"/>
      <stop offset="0.77" stop-color="#2abade"/>
      <stop offset="0.89" stop-color="#21a5cb"/>
      <stop offset="1" stop-color="#1b8ab3"/>
    </linearGradient>
    <linearGradient id="linear-gradient-12" x1="47.8144" y1="1153.7705" x2="49.4644" y2="1133.2372" xlink:href="#linear-gradient-11"/>
    <linearGradient id="linear-gradient-13" x1="321.0477" y1="1351.8663" x2="312.5678" y2="1367.9285" gradientTransform="matrix(1, 0, 0, -1, 0, 1376.6241)" gradientUnits="userSpaceOnUse">
      <stop offset="0" stop-color="#3085c7"/>
      <stop offset="0.9" stop-color="#5fabdf"/>
    </linearGradient>
    <linearGradient id="linear-gradient-14" x1="317.3969" y1="1356.5335" x2="323.2577" y2="1346.4236" gradientTransform="matrix(1, 0, 0, -1, 0, 1376.6241)" gradientUnits="userSpaceOnUse">
      <stop offset="0.1" stop-color="#5fabdf"/>
      <stop offset="0.29" stop-color="#5aa8dd"/>
      <stop offset="0.51" stop-color="#4da0d8"/>
      <stop offset="0.74" stop-color="#3b90ce"/>
      <stop offset="0.88" stop-color="#3085c7"/>
    </linearGradient>
    <linearGradient id="linear-gradient-15" x1="36.2416" y1="1237.6473" x2="28.8924" y2="1251.5679" xlink:href="#linear-gradient-13"/>
    <linearGradient id="linear-gradient-16" x1="33.0776" y1="1241.6923" x2="38.1569" y2="1232.9304" xlink:href="#linear-gradient-14"/>
    <radialGradient id="radial-gradient" cx="-225.0885" cy="1552.6241" r="12" gradientTransform="matrix(1, 0, 0, -1, 564, 1610.6241)" gradientUnits="userSpaceOnUse">
      <stop offset="0" stop-color="#198ab3"/>
      <stop offset="0.382" stop-color="#1a8cb5"/>
      <stop offset="0.576" stop-color="#1c94bc"/>
      <stop offset="0.727" stop-color="#21a1c8"/>
      <stop offset="0.856" stop-color="#27b4d8"/>
      <stop offset="0.97" stop-color="#2fccee"/>
      <stop offset="1" stop-color="#32d4f5"/>
    </radialGradient>
    <linearGradient id="linear-gradient-17" x1="391.952" y1="1284.0629" x2="391.952" y2="1302.8241" gradientTransform="matrix(1, 0, 0, -1, 0, 1376.6241)" gradientUnits="userSpaceOnUse">
      <stop offset="0" stop-color="#2e76bc"/>
      <stop offset="0.82" stop-color="#699cd3"/>
    </linearGradient>
    <linearGradient id="linear-gradient-18" x1="391.952" y1="1276.8241" x2="391.952" y2="1284.0629" gradientTransform="matrix(1, 0, 0, -1, 0, 1376.6241)" gradientUnits="userSpaceOnUse">
      <stop offset="0.15" stop-color="#cccccb"/>
      <stop offset="1" stop-color="#707071"/>
    </linearGradient>
    <linearGradient id="linear-gradient-19" x1="433.1714" y1="1284.0629" x2="433.1714" y2="1302.8241" xlink:href="#linear-gradient-17"/>
    <linearGradient id="linear-gradient-20" x1="433.1714" y1="1276.8241" x2="433.1714" y2="1284.0629" xlink:href="#linear-gradient-18"/>
    <linearGradient id="linear-gradient-21" x1="474.3907" y1="1284.0629" x2="474.3907" y2="1302.8241" xlink:href="#linear-gradient-17"/>
    <linearGradient id="linear-gradient-22" x1="474.3907" y1="1276.8241" x2="474.3907" y2="1284.0629" xlink:href="#linear-gradient-18"/>
    <linearGradient id="linear-gradient-23" x1="238.1111" y1="1305.7892" x2="243.0566" y2="1300.8438" gradientTransform="matrix(1, -0.0014, -0.0014, -1, 3.544, 1374.7131)" gradientUnits="userSpaceOnUse">
      <stop offset="0" stop-color="#8bc63f"/>
      <stop offset="1" stop-color="#5e9741"/>
    </linearGradient>
    <linearGradient id="linear-gradient-24" x1="248.8239" y1="1291.5109" x2="253.7622" y2="1286.5582" gradientTransform="matrix(1, 0, 0, -1, 0, 1376.6241)" xlink:href="#linear-gradient-23"/>
    <linearGradient id="linear-gradient-25" x1="229.6842" y1="1291.5175" x2="234.6176" y2="1286.584" gradientTransform="matrix(1, 0, 0, -1, 0, 1376.6241)" xlink:href="#linear-gradient-23"/>
  </defs>
  <g id="Shapes">
    <rect width="547.5713" height="290.1997" fill="#fff"/>
    <g>
      <rect x="314.3713" y="20" width="228.8" height="136.4" fill="#fff"/>
      <rect x="314.3713" y="20" width="228.8" height="136.4" opacity="0.8" fill="url(#linear-gradient)"/>
    </g>
    <g>
      <rect x="338.6714" y="57.5" width="189" height="79" rx="4" fill="#fff"/>
      <rect x="338.6714" y="57.5" width="189" height="79" rx="4" opacity="0.05" fill="url(#linear-gradient-2)"/>
      <rect x="338.6714" y="57.5" width="189" height="79" rx="4" fill="none" stroke="#33bedd"/>
      <rect x="338.6714" y="57.5" width="189" height="79" rx="4" fill="none" stroke="#005ca1" stroke-dasharray="1.002 2.0041"/>
    </g>
    <g>
      <rect x="16.8713" y="19.4" width="152.7336" height="97" fill="#fff"/>
      <rect x="16.8713" y="19.4" width="152.7336" height="97" fill="#505150" opacity="0.2"/>
    </g>
    <g>
      <rect x="17.6049" y="182.7998" width="152" height="97" fill="#fff"/>
      <rect x="17.6049" y="182.7998" width="152" height="97" fill="#505150" opacity="0.2"/>
    </g>
    <g>
      <g>
        <path d="M69.6385,88.8925a1.0811,1.0811,0,0,1-1.1226,1.0187H51.282a1.081,1.081,0,0,1-1.1226-1.0187V60.9316A1.0809,1.0809,0,0,1,51.282,59.913H68.5159a1.081,1.081,0,0,1,1.1226,1.0186Z" fill="url(#linear-gradient-3)"/>
        <path d="M53.0282,72.74a2.2452,2.2452,0,0,1,2.0789-2.3491h9.7292A2.2452,2.2452,0,0,1,66.9151,72.74h0a2.2243,2.2243,0,0,1-2.0022,2.4263c-.0255.0025-.0511.0045-.0766.006H55.1487A2.2244,2.2244,0,0,1,53.07,72.8436Z" fill="#1e3465"/>
        <path d="M53.0282,65.7962a2.2245,2.2245,0,0,1,2.0789-2.3284h9.7292a2.2244,2.2244,0,0,1,2.0788,2.3284h0a2.2452,2.2452,0,0,1-2.0788,2.3491H55.1487A2.2452,2.2452,0,0,1,53.07,65.7962Z" fill="#1e3465"/>
        <circle cx="55.7516" cy="65.7962" r="1.5592" fill="#74cfeb"/>
        <circle cx="55.7516" cy="72.7396" r="1.5592" fill="#74cfeb"/>
      </g>
      <g>
        <path d="M103.578,88.8925a1.081,1.081,0,0,1-1.1226,1.0187H85.2215a1.0811,1.0811,0,0,1-1.1226-1.0187V60.9316a1.0809,1.0809,0,0,1,1.1226-1.0186h17.2339a1.0809,1.0809,0,0,1,1.1226,1.0186Z" fill="url(#linear-gradient-4)"/>
        <path d="M86.9678,72.74a2.2452,2.2452,0,0,1,2.0788-2.3491h9.7292a2.2452,2.2452,0,0,1,2.0789,2.3491h0a2.2244,2.2244,0,0,1-2.0023,2.4263q-.0383.0038-.0766.006H89.0882a2.2244,2.2244,0,0,1-2.0789-2.3283Z" fill="#1e3465"/>
        <path d="M86.9678,65.7962a2.2244,2.2244,0,0,1,2.0788-2.3284h9.7292a2.2245,2.2245,0,0,1,2.0789,2.3284h0a2.2452,2.2452,0,0,1-2.0789,2.3491H89.0882a2.2452,2.2452,0,0,1-2.0789-2.3491Z" fill="#1e3465"/>
        <circle cx="89.6911" cy="65.7962" r="1.5592" fill="#74cfeb"/>
        <circle cx="89.6911" cy="72.7396" r="1.5592" fill="#74cfeb"/>
      </g>
      <g>
        <path d="M137.5176,88.8925a1.0811,1.0811,0,0,1-1.1226,1.0187H119.1611a1.081,1.081,0,0,1-1.1226-1.0187V60.9316a1.0809,1.0809,0,0,1,1.1226-1.0186H136.395a1.081,1.081,0,0,1,1.1226,1.0186Z" fill="url(#linear-gradient-5)"/>
        <path d="M120.9073,72.74a2.2452,2.2452,0,0,1,2.0789-2.3491h9.7292a2.2452,2.2452,0,0,1,2.0788,2.3491h0a2.2243,2.2243,0,0,1-2.0022,2.4263c-.0255.0025-.0511.0045-.0766.006h-9.6876a2.2244,2.2244,0,0,1-2.0789-2.3283Z" fill="#1e3465"/>
        <path d="M120.9073,65.7962a2.2245,2.2245,0,0,1,2.0789-2.3284h9.7292a2.2244,2.2244,0,0,1,2.0788,2.3284h0a2.2452,2.2452,0,0,1-2.0788,2.3491h-9.6876a2.2452,2.2452,0,0,1-2.0789-2.3491Z" fill="#1e3465"/>
        <circle cx="123.6307" cy="65.7962" r="1.5592" fill="#74cfeb"/>
        <circle cx="123.6307" cy="72.7396" r="1.5592" fill="#74cfeb"/>
      </g>
    </g>
    <g>
      <g>
        <path d="M87.2361,226.7844H120.73c.4338,0,.7854.1341.7854.3v21.5044c0,.1654-.3516.2995-.7854.2995H87.2361c-.4338,0-.7855-.1341-.7855-.2995V227.084C86.4506,226.9185,86.8023,226.7844,87.2361,226.7844Z" fill-opacity="0.5" fill="url(#linear-gradient-6)"/>
        <g>
          <path d="M87.3522,228.2862a.7765.7765,0,0,1,.7754-.7779h31.8835a.7766.7766,0,0,1,.7757.7779v18.8587a.7765.7765,0,0,1-.7757.7775H88.1276a.7764.7764,0,0,1-.7754-.7775Zm-1.7619-.9049V248.01a1.6686,1.6686,0,0,0,1.6664,1.6705h33.6249a1.6685,1.6685,0,0,0,1.6663-1.6705V227.3813a1.6685,1.6685,0,0,0-1.6663-1.6705H87.2567A1.6686,1.6686,0,0,0,85.59,227.3813Z" fill="#191a1e" fill-rule="evenodd"/>
          <path d="M84.2321,251.4564h39.6744a.4425.4425,0,0,1,.4419.4431v1.3028a.4425.4425,0,0,1-.4419.4428H84.2321a.4426.4426,0,0,1-.442-.4428V251.9A.4426.4426,0,0,1,84.2321,251.4564Z" fill="#191a1e" fill-rule="evenodd"/>
          <path d="M99.5438,252.2339h9.0507a.1279.1279,0,0,1,.1277.1284v.3768a.128.128,0,0,1-.1277.1287H99.5438a.128.128,0,0,1-.1277-.1287v-.3768A.1279.1279,0,0,1,99.5438,252.2339Z" fill="#fff" fill-rule="evenodd"/>
        </g>
      </g>
      <g>
        <rect x="112.4692" y="242.0989" width="30.0946" height="21.4162" rx="1.0825" fill="#2e76bc"/>
        <rect x="114.2193" y="243.5964" width="26.5944" height="18.2227" rx="0.5413" opacity="0.9" fill="url(#linear-gradient-7)" style="isolation: isolate"/>
        <rect x="125.9649" y="242.7665" width="3.1935" height="0.433" rx="0.1985" fill="#f2f2f3"/>
      </g>
      <g>
        <rect x="137.0513" y="222.3587" width="16.7388" height="27.9342" rx="0.6522" fill="url(#linear-gradient-8)"/>
        <rect x="143.5077" y="223.2935" width="3.8477" height="0.5217" rx="0.2391" fill="#f2f2f3"/>
        <rect x="138.6382" y="224.7065" width="13.5867" height="22.4561" rx="0.3043" opacity="0.9" fill="url(#linear-gradient-9)" style="isolation: isolate"/>
        <rect x="144.4859" y="248.0973" width="1.8695" height="1.5869" rx="0.4348" fill="#f2f2f3"/>
      </g>
    </g>
    <g>
      <path d="M24.0183,100.206v27.988a.9882.9882,0,0,1-.97,1.0057l-.0178,0H7.3773a.9882.9882,0,0,1-1.0059-.97c0-.0119,0-.0238,0-.0356V100.206a.9882.9882,0,0,1,.97-1.0058c.0119,0,.0237,0,.0356,0H23.0124a.9881.9881,0,0,1,1.0059.97C24.0185,100.1823,24.0185,100.1942,24.0183,100.206Z" fill="url(#linear-gradient-10)"/>
      <path id="a1bc77ea-5288-41a0-8f9a-2d282cf54a86" d="M8.7185,102.3237h2.947a.2471.2471,0,0,1,.2471.247v3.7059a.2471.2471,0,0,1-.2471.247H8.7185a.2647.2647,0,0,1-.2647-.247v-3.7059A.2646.2646,0,0,1,8.7185,102.3237Zm5.047,0h2.8588a.247.247,0,0,1,.247.247h0v3.7059a.247.247,0,0,1-.247.247H13.7655a.247.247,0,0,1-.2471-.247h0v-3.7059a.247.247,0,0,1,.2471-.247Zm5.047,0h2.8588a.2647.2647,0,0,1,.2647.247v3.7059a.2647.2647,0,0,1-.2647.247H18.8125a.247.247,0,0,1-.2471-.247h0v-3.7059a.247.247,0,0,1,.2471-.247Zm-10.094,6.7234h2.947a.2471.2471,0,0,1,.2471.2471V113a.2647.2647,0,0,1-.2471.2647H8.7185A.2647.2647,0,0,1,8.4538,113v-3.7058A.2647.2647,0,0,1,8.7185,109.0471Zm5.047,0h2.8588a.247.247,0,0,1,.247.2471h0V113a.2647.2647,0,0,1-.247.2647H13.7655A.2647.2647,0,0,1,13.5184,113v-3.7058a.2471.2471,0,0,1,.2471-.2471Zm5.047,0h2.8588a.2648.2648,0,0,1,.2647.2471V113a.2647.2647,0,0,1-.2647.2647H18.8125A.2647.2647,0,0,1,18.5654,113v-3.7058a.2471.2471,0,0,1,.2471-.2471Zm-10.094,6.7411h2.947a.2471.2471,0,0,1,.2471.2471h0v3.7058a.2471.2471,0,0,1-.2471.2471H8.7185a.2647.2647,0,0,1-.2647-.2471v-3.7764A.2647.2647,0,0,1,8.7185,115.7882Zm5.047,0h2.8588a.247.247,0,0,1,.3223.1348.2428.2428,0,0,1,.013.0417v3.7058a.2471.2471,0,0,1-.2471.2471h-2.947a.2471.2471,0,0,1-.2471-.2471h0v-3.7058A.2471.2471,0,0,1,13.7655,115.7882Zm0,6.7235h2.8588a.247.247,0,0,1,.247.247h0v5.5588a.247.247,0,0,1-.247.247H13.7655a.247.247,0,0,1-.2471-.247v-5.5588A.247.247,0,0,1,13.7655,122.5117Zm5.047-6.7235h2.8588a.2648.2648,0,0,1,.2647.2471v3.7058a.2648.2648,0,0,1-.2647.2471H18.8125a.2471.2471,0,0,1-.2471-.2471h0v-3.7764A.2471.2471,0,0,1,18.8125,115.7882Z" fill="#f2f2f2"/>
    </g>
    <g>
      <path d="M59.6647,253.52a2.4167,2.4167,0,0,0,2.4167-2.4167h0a.7842.7842,0,0,0,0-.2833c-.9667-7.6167-5.2834-13.8167-13.6167-13.8167s-12.7667,5.25-13.6167,13.8333a2.4333,2.4333,0,0,0,2.1578,2.6807l.0256.0027Z" fill="url(#linear-gradient-11)"/>
      <path d="M48.4647,238.8036a7.65,7.65,0,0,1-4.1333-1.2167l4.1333,10.7,4.0667-10.6333A7.5507,7.5507,0,0,1,48.4647,238.8036Z" fill="#fff" opacity="0.8" style="isolation: isolate"/>
      <circle cx="48.4814" cy="231.1536" r="7.6333" fill="url(#linear-gradient-12)"/>
    </g>
    <g>
      <polygon points="298.621 19.579 313.127 28.993 327.888 19.543 329.738 21.704 313.127 32.4 296.771 21.704 298.621 19.579" fill="#74cfeb"/>
      <polygon points="299.72 18.371 313.127 2.4 326.808 18.389 313.127 27.034 299.72 18.371" fill="#fff"/>
      <polygon points="313.127 2.4 313.127 27.034 299.72 18.371 313.127 2.4" fill="#74cfeb"/>
      <polygon points="313.127 2.4 313.127 27.034 326.808 18.389 313.127 2.4" fill="url(#linear-gradient-13)"/>
      <polygon points="313.127 15.129 326.808 18.389 313.127 27.034 313.127 15.129" fill="#53b0de"/>
      <polygon points="313.127 27.034 299.72 18.371 313.127 15.129 313.127 27.034" fill="#a5def3"/>
      <polygon points="313.127 32.4 329.738 21.704 327.888 19.543 313.127 28.993 313.127 32.4" fill="url(#linear-gradient-14)"/>
    </g>
    <g>
      <polygon points="16.805 134.489 29.377 142.648 42.17 134.457 43.773 136.33 29.377 145.6 15.202 136.33 16.805 134.489" fill="#74cfeb"/>
      <polygon points="17.758 133.441 29.377 119.6 41.234 133.457 29.377 140.949 17.758 133.441" fill="#fff"/>
      <polygon points="29.377 119.6 29.377 140.949 17.758 133.441 29.377 119.6" fill="#74cfeb"/>
      <polygon points="29.377 119.6 29.377 140.949 41.234 133.457 29.377 119.6" fill="url(#linear-gradient-15)"/>
      <polygon points="29.377 130.632 41.234 133.457 29.377 140.949 29.377 130.632" fill="#53b0de"/>
      <polygon points="29.377 140.949 17.758 133.441 29.377 130.632 29.377 140.949" fill="#a5def3"/>
      <polygon points="29.377 145.6 43.773 136.33 42.17 134.457 29.377 142.648 29.377 145.6" fill="url(#linear-gradient-16)"/>
    </g>
    <g id="faeec9e4-44b9-413a-8332-867d334dcda2">
      <g>
        <circle cx="338.9115" cy="58" r="12" fill="url(#radial-gradient)"/>
        <circle cx="338.9115" cy="58" r="10.3355" fill="#005ba1"/>
      </g>
      <g>
        <path d="M339.0527,59.3228l-4.0009-3.97a.716.716,0,0,0-1.001,0l-.504.5012a.6622.6622,0,0,0-.2019.4758.6721.6721,0,0,0,.1991.4786l3.01,2.9957-3.0748,3.0537a.6677.6677,0,0,0-.01.9443l.01.01.51.5012a.7157.7157,0,0,0,1.0009,0l4.0631-4.0376a.6706.6706,0,0,0,.1991-.4772A.6609.6609,0,0,0,339.0527,59.3228Z" fill="#f2f2f2"/>
        <path d="M338.5656,56.1336a.67.67,0,0,0,.1991.4772l4.0659,4.0363a.7158.7158,0,0,0,1.0009,0l.51-.5026a.6626.6626,0,0,0,.2019-.4758.671.671,0,0,0-.1991-.4772l-3.0692-3.0522,3.01-2.9972a.67.67,0,0,0,.1991-.4772.6626.6626,0,0,0-.2019-.4757l-.51-.5026a.7157.7157,0,0,0-1.0009,0l-4.001,3.97A.6664.6664,0,0,0,338.5656,56.1336Z" fill="#f2f2f2"/>
      </g>
    </g>
    <g>
      <g>
        <rect x="377.8811" y="73.8" width="28.1419" height="18.7613" rx="0.9381" fill="url(#linear-gradient-17)"/>
        <polygon points="396.642 80.445 396.642 85.901 391.952 88.653 391.952 83.181 396.642 80.445" fill="#74cfeb"/>
        <polygon points="396.642 80.445 391.952 83.196 387.262 80.445 391.952 77.709 396.642 80.445" fill="#c6eaf8"/>
        <polygon points="391.952 83.196 391.952 88.653 387.262 85.901 387.262 80.445 391.952 83.196" fill="#a5def3"/>
        <polygon points="387.262 85.901 391.952 83.181 391.952 88.653 387.262 85.901" fill="#c6eaf8"/>
        <polygon points="396.642 85.901 391.952 83.181 391.952 88.653 396.642 85.901" fill="#a5def3"/>
        <path d="M397.596,98.2366c-2.7829-.4378-2.8923-2.439-2.8923-5.6753h-5.519c0,3.2363-.0938,5.2375-2.8767,5.6753A1.5635,1.5635,0,0,0,384.9165,99.8h14.071A1.5635,1.5635,0,0,0,397.596,98.2366Z" fill="url(#linear-gradient-18)"/>
      </g>
      <g>
        <rect x="419.1004" y="73.8" width="28.1419" height="18.7613" rx="0.9381" fill="url(#linear-gradient-19)"/>
        <polygon points="437.862 80.445 437.862 85.901 433.171 88.653 433.171 83.181 437.862 80.445" fill="#74cfeb"/>
        <polygon points="437.862 80.445 433.171 83.196 428.481 80.445 433.171 77.709 437.862 80.445" fill="#c6eaf8"/>
        <polygon points="433.171 83.196 433.171 88.653 428.481 85.901 428.481 80.445 433.171 83.196" fill="#a5def3"/>
        <polygon points="428.481 85.901 433.171 83.181 433.171 88.653 428.481 85.901" fill="#c6eaf8"/>
        <polygon points="437.862 85.901 433.171 83.181 433.171 88.653 437.862 85.901" fill="#a5def3"/>
        <path d="M438.8154,98.2366c-2.7829-.4378-2.8924-2.439-2.8924-5.6753h-5.5189c0,3.2363-.0938,5.2375-2.8767,5.6753A1.5634,1.5634,0,0,0,426.1359,99.8h14.071A1.5635,1.5635,0,0,0,438.8154,98.2366Z" fill="url(#linear-gradient-20)"/>
      </g>
      <g>
        <rect x="460.3198" y="73.8" width="28.1419" height="18.7613" rx="0.9381" fill="url(#linear-gradient-21)"/>
        <polygon points="479.081 80.445 479.081 85.901 474.391 88.653 474.391 83.181 479.081 80.445" fill="#74cfeb"/>
        <polygon points="479.081 80.445 474.391 83.196 469.7 80.445 474.391 77.709 479.081 80.445" fill="#c6eaf8"/>
        <polygon points="474.391 83.196 474.391 88.653 469.7 85.901 469.7 80.445 474.391 83.196" fill="#a5def3"/>
        <polygon points="469.7 85.901 474.391 83.181 474.391 88.653 469.7 85.901" fill="#c6eaf8"/>
        <polygon points="479.081 85.901 474.391 83.181 474.391 88.653 479.081 85.901" fill="#a5def3"/>
        <path d="M480.0348,98.2366c-2.783-.4378-2.8924-2.439-2.8924-5.6753h-5.5189c0,3.2363-.0939,5.2375-2.8768,5.6753A1.5633,1.5633,0,0,0,467.3553,99.8h14.0709A1.5634,1.5634,0,0,0,480.0348,98.2366Z" fill="url(#linear-gradient-22)"/>
      </g>
    </g>
    <g>
      <line x1="174.776" y1="68.6259" x2="308.9891" y2="68.6259" fill="none" stroke="#3c3c41" stroke-miterlimit="10"/>
      <polygon points="175.87 72.366 169.394 68.626 175.87 64.886 175.87 72.366" fill="#3c3c41"/>
      <polygon points="307.895 72.366 314.371 68.626 307.895 64.886 307.895 72.366" fill="#3c3c41"/>
    </g>
    <g>
      <rect x="230.5727" y="78.0759" width="13.7848" height="2.873" transform="translate(49.8728 245.4069) rotate(-60)" fill="#927bb8"/>
      <rect x="245.4213" y="72.8428" width="2.873" height="13.7848" transform="translate(-6.7949 134.1114) rotate(-30)" fill="#927bb8"/>
      <rect x="235.1545" y="86.4126" width="13.7848" height="2.873" fill="#6c53a3"/>
      <circle cx="242.3081" cy="71.0607" r="3.497" fill="url(#linear-gradient-23)"/>
      <circle cx="251.7688" cy="88.0668" r="3.497" fill="url(#linear-gradient-24)"/>
      <circle cx="232.6443" cy="88.0668" r="3.497" fill="url(#linear-gradient-25)"/>
    </g>
    <g>
      <path d="M169.6049,231.3h23.4073a5.0147,5.0147,0,0,0,5-5V135.2746a5.0147,5.0147,0,0,1,5-5H308.9891" fill="none" stroke="#3c3c41" stroke-miterlimit="10"/>
      <polygon points="307.895 134.014 314.371 130.275 307.895 126.535 307.895 134.014" fill="#3c3c41"/>
    </g>
  </g>
  <g id="Text">
    <g>
      <path d="M341.7123,15.1631H339.306l-.6972-2.1806h-3.4863l-.69,2.1806h-2.3926L335.6078,5.36h2.6182Zm-3.6094-3.8759L337.05,7.9922a4.3308,4.3308,0,0,1-.1641-.8818h-.0547a3.7332,3.7332,0,0,1-.1709.8545l-1.0664,3.3223Z" fill="#2f2f2f"/>
      <path d="M348.6176,15.1631h-6.2823v-.8955l3.5137-4.5117h-3.165V8.1631H348.59V9.23L345.2611,13.57h3.3565Z" fill="#2f2f2f"/>
      <path d="M356.5,15.1631h-2.1533V14.0967h-.0342a2.4428,2.4428,0,0,1-2.14,1.2373q-2.433,0-2.4336-2.9462V8.1631h2.1534v4.0333q0,1.483,1.1757,1.4833a1.163,1.163,0,0,0,.93-.4067,1.64,1.64,0,0,0,.3487-1.104V8.1631H356.5Z" fill="#2f2f2f"/>
      <path d="M362.8344,10.1114a1.875,1.875,0,0,0-.9092-.2119,1.31,1.31,0,0,0-1.1006.5161,2.25,2.25,0,0,0-.3965,1.4048v3.3427h-2.16v-7h2.16V9.462h.0274A1.8688,1.8688,0,0,1,362.3012,8.04a1.3935,1.3935,0,0,1,.5332.082Z" fill="#2f2f2f"/>
      <path d="M370.2064,12.2784H365.64q.11,1.5242,1.9209,1.5244a3.7469,3.7469,0,0,0,2.03-.5469v1.5586a5.3375,5.3375,0,0,1-2.5225.5195,3.5513,3.5513,0,0,1-2.6318-.94,3.5524,3.5524,0,0,1-.9365-2.6216,3.745,3.745,0,0,1,1.0117-2.7617A3.37,3.37,0,0,1,367,7.9922a3.062,3.062,0,0,1,2.3691.9092,3.5039,3.5039,0,0,1,.8369,2.4678Zm-2.0029-1.3262q0-1.5036-1.2168-1.5039a1.1588,1.1588,0,0,0-.8984.4307,1.948,1.948,0,0,0-.4619,1.0732Z" fill="#2f2f2f"/>
      <path d="M384.1859,15.1631H381.78l-.6973-2.1806h-3.4863l-.69,2.1806h-2.3926L378.0814,5.36H380.7Zm-3.6093-3.8759-1.0528-3.295a4.3382,4.3382,0,0,1-.164-.8818h-.0547a3.7439,3.7439,0,0,1-.1709.8545l-1.0664,3.3223Z" fill="#2f2f2f"/>
      <path d="M390.3207,14.91a4.2679,4.2679,0,0,1-2.1123.4238,3.5713,3.5713,0,0,1-2.6113-.9775,3.3777,3.3777,0,0,1-.9981-2.5225,3.7174,3.7174,0,0,1,1.07-2.8129,3.9505,3.9505,0,0,1,2.86-1.0289,3.6691,3.6691,0,0,1,1.791.3282v1.832a2.4623,2.4623,0,0,0-1.5107-.5059,1.9874,1.9874,0,0,0-1.4727.5435,2.0238,2.0238,0,0,0-.544,1.5005,1.9936,1.9936,0,0,0,.52,1.46,1.91,1.91,0,0,0,1.4287.53,2.8482,2.8482,0,0,0,1.5791-.5058Z" fill="#2f2f2f"/>
      <path d="M396.0521,15.0811a3.1953,3.1953,0,0,1-1.4423.2529q-2.2837,0-2.2832-2.372V9.7559h-1.1348V8.1631h1.1348V6.6524l2.1533-.6152V8.1631h1.5722V9.7559H394.48v2.83q0,1.0935.8681,1.0937a1.4618,1.4618,0,0,0,.7041-.1982Z" fill="#2f2f2f"/>
      <path d="M398.43,7.0557a1.2628,1.2628,0,0,1-.8955-.3247,1.0457,1.0457,0,0,1-.3487-.7964,1.0084,1.0084,0,0,1,.3487-.7929,1.4626,1.4626,0,0,1,1.7949,0,1.0147,1.0147,0,0,1,.3447.7929,1.0436,1.0436,0,0,1-.3447.8067A1.2861,1.2861,0,0,1,398.43,7.0557Zm1.0664,8.1074h-2.16v-7h2.16Z" fill="#2f2f2f"/>
      <path d="M408.0014,8.1631l-2.6045,7h-2.461l-2.4814-7h2.31l1.2168,4.3135a6.2832,6.2832,0,0,1,.2393,1.2442h.0273a7.09,7.09,0,0,1,.253-1.2032l1.2441-4.3545Z" fill="#2f2f2f"/>
      <path d="M414.9887,12.2784h-4.5664q.11,1.5242,1.9209,1.5244a3.7466,3.7466,0,0,0,2.03-.5469v1.5586a5.3371,5.3371,0,0,1-2.5224.5195,3.5516,3.5516,0,0,1-2.6319-.94,3.5524,3.5524,0,0,1-.9365-2.6216,3.745,3.745,0,0,1,1.0117-2.7617,3.37,3.37,0,0,1,2.4883-1.0186,3.0618,3.0618,0,0,1,2.3691.9092,3.5035,3.5035,0,0,1,.837,2.4678Zm-2.003-1.3262q0-1.5036-1.2168-1.5039a1.1591,1.1591,0,0,0-.8984.4307,1.9487,1.9487,0,0,0-.4619,1.0732Z" fill="#2f2f2f"/>
      <path d="M420.348,15.1631V5.36h3.4727q5.2221,0,5.2226,4.7783a4.8289,4.8289,0,0,1-1.4257,3.6573,5.2531,5.2531,0,0,1-3.7969,1.3671Zm2.208-8.0048v6.2138H423.65a2.9571,2.9571,0,0,0,2.2529-.8613,3.2707,3.2707,0,0,0,.8164-2.3447,2.9616,2.9616,0,0,0-.8105-2.2046,3.0843,3.0843,0,0,0-2.2725-.8032Z" fill="#2f2f2f"/>
      <path d="M431.5414,7.0557a1.2628,1.2628,0,0,1-.8955-.3247,1.0459,1.0459,0,0,1-.3486-.7964,1.0086,1.0086,0,0,1,.3486-.7929,1.4626,1.4626,0,0,1,1.7949,0,1.0147,1.0147,0,0,1,.3447.7929,1.0436,1.0436,0,0,1-.3447.8067A1.2861,1.2861,0,0,1,431.5414,7.0557Zm1.0664,8.1074h-2.16v-7h2.16Z" fill="#2f2f2f"/>
      <path d="M438.9564,10.1114a1.8746,1.8746,0,0,0-.9091-.2119,1.3093,1.3093,0,0,0-1.1006.5161A2.25,2.25,0,0,0,436.55,11.82v3.3427h-2.16v-7h2.16V9.462h.0273A1.8689,1.8689,0,0,1,438.4232,8.04a1.3928,1.3928,0,0,1,.5332.082Z" fill="#2f2f2f"/>
      <path d="M446.3285,12.2784h-4.5664q.11,1.5242,1.9209,1.5244a3.7469,3.7469,0,0,0,2.03-.5469v1.5586a5.3375,5.3375,0,0,1-2.5225.5195,3.5512,3.5512,0,0,1-2.6318-.94,3.5524,3.5524,0,0,1-.9365-2.6216,3.745,3.745,0,0,1,1.0117-2.7617,3.37,3.37,0,0,1,2.4883-1.0186,3.062,3.062,0,0,1,2.3691.9092,3.5039,3.5039,0,0,1,.8369,2.4678Zm-2.0029-1.3262q0-1.5036-1.2168-1.5039a1.1591,1.1591,0,0,0-.8985.4307,1.9487,1.9487,0,0,0-.4619,1.0732Z" fill="#2f2f2f"/>
      <path d="M452.9965,14.91a4.2679,4.2679,0,0,1-2.1123.4238,3.5717,3.5717,0,0,1-2.6114-.9775,3.378,3.378,0,0,1-.998-2.5225,3.717,3.717,0,0,1,1.07-2.8129,3.9505,3.9505,0,0,1,2.86-1.0289,3.6693,3.6693,0,0,1,1.791.3282v1.832a2.4624,2.4624,0,0,0-1.5108-.5059,1.9873,1.9873,0,0,0-1.4726.5435,2.0238,2.0238,0,0,0-.544,1.5005,1.9936,1.9936,0,0,0,.52,1.46,1.91,1.91,0,0,0,1.4287.53,2.8482,2.8482,0,0,0,1.5791-.5058Z" fill="#2f2f2f"/>
      <path d="M458.7289,15.0811a3.1955,3.1955,0,0,1-1.4424.2529q-2.2836,0-2.2832-2.372V9.7559h-1.1348V8.1631h1.1348V6.6524l2.1533-.6152V8.1631h1.5723V9.7559h-1.5723v2.83q0,1.0935.8682,1.0937a1.4621,1.4621,0,0,0,.7041-.1982Z" fill="#2f2f2f"/>
      <path d="M463.2621,15.334a3.7609,3.7609,0,0,1-2.751-.9809,3.5554,3.5554,0,0,1-1.0019-2.6626,3.5571,3.5571,0,0,1,1.039-2.7173,3.9258,3.9258,0,0,1,2.81-.981,3.7189,3.7189,0,0,1,2.7344.981,3.4853,3.4853,0,0,1,.9912,2.5942,3.7031,3.7031,0,0,1-1.0215,2.7549A3.8074,3.8074,0,0,1,463.2621,15.334Zm.0547-5.6875a1.44,1.44,0,0,0-1.19.5264,2.3236,2.3236,0,0,0-.4238,1.49q0,2.0165,1.627,2.0166,1.5512,0,1.5517-2.0712Q464.8822,9.6464,463.3168,9.6465Z" fill="#2f2f2f"/>
      <path d="M473.0307,10.1114a1.875,1.875,0,0,0-.9092-.2119,1.3093,1.3093,0,0,0-1.1006.5161,2.25,2.25,0,0,0-.3965,1.4048v3.3427h-2.16v-7h2.16V9.462h.0273A1.869,1.869,0,0,1,472.4975,8.04a1.3935,1.3935,0,0,1,.5332.082Z" fill="#2f2f2f"/>
      <path d="M481.1508,8.1631l-2.8438,7.5606q-1.0254,2.7276-3.09,2.7275a3.95,3.95,0,0,1-1.292-.1777V16.5508a1.8187,1.8187,0,0,0,.9365.253,1.17,1.17,0,0,0,1.1621-.7862l.3692-.8681-2.8438-6.9864h2.3926l1.3057,4.2588a5.5708,5.5708,0,0,1,.1914.9366h.0273a6.5354,6.5354,0,0,1,.2256-.9229l1.3193-4.2725Z" fill="#2f2f2f"/>
    </g>
    <g>
      <path d="M55.6342,135.28a4.5636,4.5636,0,0,1-3.4317-1.3706,4.9217,4.9217,0,0,1-1.3261-3.5717,5.2746,5.2746,0,0,1,1.3466-3.76,4.6617,4.6617,0,0,1,3.5684-1.4355,4.4475,4.4475,0,0,1,3.3936,1.374,5.0631,5.0631,0,0,1,1.2958,3.623,5.1921,5.1921,0,0,1-1.3427,3.7256A4.6123,4.6123,0,0,1,55.6342,135.28Zm.0957-8.2373a2.2236,2.2236,0,0,0-1.8457.8716,3.632,3.632,0,0,0-.6836,2.3072,3.5649,3.5649,0,0,0,.6836,2.3037,2.3591,2.3591,0,0,0,3.6025.0239,3.53,3.53,0,0,0,.67-2.2866,3.8253,3.8253,0,0,0-.6494-2.3721A2.1175,2.1175,0,0,0,55.73,127.0425Z" fill="#2f2f2f"/>
      <path d="M68.7055,135.1089H66.5521v-3.89q0-1.6267-1.1621-1.627a1.1521,1.1521,0,0,0-.9228.4307,1.6428,1.6428,0,0,0-.3623,1.0938v3.9921h-2.16v-7h2.16v1.1075h.0273a2.4754,2.4754,0,0,1,2.249-1.2784q2.3247,0,2.3243,2.8848Z" fill="#2f2f2f"/>
      <path d="M74.1156,132.1285H70.3764v-1.5108h3.7392Z" fill="#2f2f2f"/>
      <path d="M78.0131,134.2955h-.0274v4.0332h-2.16v-10.22h2.16v1.0528h.0274a2.7482,2.7482,0,0,1,4.3506-.2905,3.9692,3.9692,0,0,1,.7421,2.54,4.3035,4.3035,0,0,1-.8652,2.81,2.8178,2.8178,0,0,1-2.3,1.0595A2.18,2.18,0,0,1,78.0131,134.2955Zm-.0615-2.8711v.5605a1.7834,1.7834,0,0,0,.3828,1.1826,1.2454,1.2454,0,0,0,1.0048.458,1.3262,1.3262,0,0,0,1.1456-.5708,2.76,2.76,0,0,0,.4062-1.6167q0-1.8456-1.4355-1.8457a1.35,1.35,0,0,0-1.084.5025A2.0091,2.0091,0,0,0,77.9516,131.4244Z" fill="#2f2f2f"/>
      <path d="M89.0892,130.0572a1.8746,1.8746,0,0,0-.9091-.2119,1.3093,1.3093,0,0,0-1.1006.5161,2.25,2.25,0,0,0-.3965,1.4048v3.3427h-2.16v-7h2.16v1.2989H86.71a1.8689,1.8689,0,0,1,1.8457-1.4219,1.3928,1.3928,0,0,1,.5332.082Z" fill="#2f2f2f"/>
      <path d="M96.4613,132.2242H91.8949q.11,1.5241,1.9209,1.5244a3.7469,3.7469,0,0,0,2.03-.5469V134.76a5.3375,5.3375,0,0,1-2.5225.5195,3.258,3.258,0,0,1-3.5683-3.5615,3.745,3.745,0,0,1,1.0117-2.7617,3.37,3.37,0,0,1,2.4883-1.0186,3.062,3.062,0,0,1,2.3691.9092,3.5039,3.5039,0,0,1,.8369,2.4678Zm-2.0029-1.3262q0-1.5036-1.2168-1.5039a1.1588,1.1588,0,0,0-.8984.4307,1.9481,1.9481,0,0,0-.462,1.0732Z" fill="#2f2f2f"/>
      <path d="M108.94,135.1089h-2.1533v-3.9921q0-1.5243-1.1211-1.5245a1.0308,1.0308,0,0,0-.8681.4581,1.8793,1.8793,0,0,0-.335,1.1416v3.9169h-2.16v-4.0332q0-1.4831-1.1-1.4834a1.0572,1.0572,0,0,0-.8858.4375,1.9267,1.9267,0,0,0-.331,1.19v3.89h-2.16v-7h2.16v1.0938h.0273a2.6542,2.6542,0,0,1,2.2627-1.2647,2.015,2.015,0,0,1,2.03,1.3057,2.5894,2.5894,0,0,1,2.3515-1.3057q2.2838,0,2.2832,2.8165Z" fill="#2f2f2f"/>
      <path d="M111.71,127.0015a1.2632,1.2632,0,0,1-.8955-.3247,1.0459,1.0459,0,0,1-.3486-.7964,1.0086,1.0086,0,0,1,.3486-.7929,1.4628,1.4628,0,0,1,1.795,0,1.015,1.015,0,0,1,.3447.7929,1.0439,1.0439,0,0,1-.3447.8067A1.2861,1.2861,0,0,1,111.71,127.0015Zm1.0664,8.1074h-2.16v-7h2.16Z" fill="#2f2f2f"/>
      <path d="M114.2162,134.9244v-1.75a4.6127,4.6127,0,0,0,1.0625.4785,3.5229,3.5229,0,0,0,1.002.1572,2.1494,2.1494,0,0,0,.9062-.1572.508.508,0,0,0,.3311-.4785.4419.4419,0,0,0-.15-.3418,1.4117,1.4117,0,0,0-.3858-.2393,4.474,4.474,0,0,0-.5166-.1845c-.1865-.0547-.3672-.1163-.54-.1846a5.1382,5.1382,0,0,1-.7344-.3384,2.0818,2.0818,0,0,1-.5332-.42,1.624,1.624,0,0,1-.3281-.5537,2.1836,2.1836,0,0,1-.1133-.7451,1.9269,1.9269,0,0,1,.2559-1.0118,2.1088,2.1088,0,0,1,.6836-.6938,3.1285,3.1285,0,0,1,.9785-.3965,5.077,5.077,0,0,1,1.1445-.1265,6.3678,6.3678,0,0,1,.9434.0718,7.0039,7.0039,0,0,1,.9433.2085v1.668a3.3945,3.3945,0,0,0-.8789-.3589,3.7048,3.7048,0,0,0-.9189-.12,2.04,2.04,0,0,0-.3994.0376,1.308,1.308,0,0,0-.3321.1093.61.61,0,0,0-.2256.1846.4249.4249,0,0,0-.082.2564.4739.4739,0,0,0,.1231.3281,1.0667,1.0667,0,0,0,.3212.2358,3.1588,3.1588,0,0,0,.4414.1778c.1612.0522.3223.1059.4815.1606a6.2244,6.2244,0,0,1,.7793.3281,2.5116,2.5116,0,0,1,.5986.417,1.6556,1.6556,0,0,1,.3828.5606,2.2483,2.2483,0,0,1-.1367,1.8286,2.1681,2.1681,0,0,1-.7187.7178,3.2591,3.2591,0,0,1-1.0313.4033,5.7234,5.7234,0,0,1-1.2139.1264A6.2581,6.2581,0,0,1,114.2162,134.9244Z" fill="#2f2f2f"/>
      <path d="M127.1654,132.2242H122.599q.11,1.5241,1.9209,1.5244a3.7469,3.7469,0,0,0,2.03-.5469V134.76a5.3375,5.3375,0,0,1-2.5225.5195,3.258,3.258,0,0,1-3.5683-3.5615,3.745,3.745,0,0,1,1.0117-2.7617,3.37,3.37,0,0,1,2.4883-1.0186,3.062,3.062,0,0,1,2.3691.9092,3.5039,3.5039,0,0,1,.8369,2.4678Zm-2.0029-1.3262q0-1.5036-1.2168-1.5039a1.1588,1.1588,0,0,0-.8984.4307,1.9481,1.9481,0,0,0-.462,1.0732Z" fill="#2f2f2f"/>
      <path d="M128.1537,134.9244v-1.75a4.6127,4.6127,0,0,0,1.0625.4785,3.5229,3.5229,0,0,0,1.002.1572,2.1494,2.1494,0,0,0,.9062-.1572.508.508,0,0,0,.3311-.4785.4419.4419,0,0,0-.15-.3418,1.4117,1.4117,0,0,0-.3858-.2393,4.474,4.474,0,0,0-.5166-.1845c-.1865-.0547-.3672-.1163-.54-.1846a5.1382,5.1382,0,0,1-.7344-.3384,2.0818,2.0818,0,0,1-.5332-.42,1.624,1.624,0,0,1-.3281-.5537,2.1836,2.1836,0,0,1-.1133-.7451,1.9269,1.9269,0,0,1,.2559-1.0118,2.1088,2.1088,0,0,1,.6836-.6938,3.1285,3.1285,0,0,1,.9785-.3965,5.077,5.077,0,0,1,1.1445-.1265,6.3678,6.3678,0,0,1,.9434.0718,7.0039,7.0039,0,0,1,.9433.2085v1.668a3.3945,3.3945,0,0,0-.8789-.3589,3.7048,3.7048,0,0,0-.9189-.12,2.04,2.04,0,0,0-.3994.0376,1.308,1.308,0,0,0-.3321.1093.61.61,0,0,0-.2256.1846.4249.4249,0,0,0-.082.2564.4739.4739,0,0,0,.1231.3281,1.0667,1.0667,0,0,0,.3212.2358,3.1588,3.1588,0,0,0,.4414.1778c.1612.0522.3223.1059.4815.1606a6.2244,6.2244,0,0,1,.7793.3281,2.5116,2.5116,0,0,1,.5986.417,1.6556,1.6556,0,0,1,.3828.5606,2.2483,2.2483,0,0,1-.1367,1.8286,2.1681,2.1681,0,0,1-.7187.7178,3.2591,3.2591,0,0,1-1.0313.4033,5.7234,5.7234,0,0,1-1.2139.1264A6.2581,6.2581,0,0,1,128.1537,134.9244Z" fill="#2f2f2f"/>
      <path d="M60.1117,151.9088H57.7055l-.6973-2.1807H53.5219l-.6905,2.1807H50.4389l3.5683-9.8028h2.6182Zm-3.6094-3.876L55.45,144.7379a4.347,4.347,0,0,1-.1641-.8819h-.0547a3.7383,3.7383,0,0,1-.1708.8545l-1.0665,3.3223Z" fill="#2f2f2f"/>
      <path d="M66.2465,151.6558a4.2678,4.2678,0,0,1-2.1123.4239,3.5718,3.5718,0,0,1-2.6114-.9776,3.378,3.378,0,0,1-.998-2.5224,3.7171,3.7171,0,0,1,1.07-2.813,3.95,3.95,0,0,1,2.86-1.0288,3.67,3.67,0,0,1,1.791.3281v1.832a2.4623,2.4623,0,0,0-1.5108-.5058,1.9872,1.9872,0,0,0-1.4726.5434,2.0238,2.0238,0,0,0-.544,1.5005,1.9936,1.9936,0,0,0,.52,1.4595,1.91,1.91,0,0,0,1.4287.53,2.8484,2.8484,0,0,0,1.5791-.5059Z" fill="#2f2f2f"/>
      <path d="M71.9779,151.8267a3.1953,3.1953,0,0,1-1.4424.253q-2.2836,0-2.2832-2.3721v-3.2061H67.1176v-1.5927h1.1347V143.398l2.1534-.6152v2.126h1.5722v1.5927H70.4057v2.83q0,1.0935.8681,1.0938a1.462,1.462,0,0,0,.7041-.1983Z" fill="#2f2f2f"/>
      <path d="M74.3558,143.8013a1.2632,1.2632,0,0,1-.8955-.3247,1.0459,1.0459,0,0,1-.3486-.7964,1.0086,1.0086,0,0,1,.3486-.7929,1.4631,1.4631,0,0,1,1.795,0,1.0147,1.0147,0,0,1,.3447.7929,1.0436,1.0436,0,0,1-.3447.8067A1.2857,1.2857,0,0,1,74.3558,143.8013Zm1.0665,8.1075h-2.16v-7h2.16Z" fill="#2f2f2f"/>
      <path d="M83.9262,144.9088l-2.6045,7h-2.461l-2.4814-7H78.69l1.2168,4.3134a6.2832,6.2832,0,0,1,.2393,1.2442h.0273a7.09,7.09,0,0,1,.253-1.2032l1.2441-4.3544Z" fill="#2f2f2f"/>
      <path d="M90.9144,149.024H86.348q.11,1.5241,1.9209,1.5244a3.7469,3.7469,0,0,0,2.03-.5469V151.56a5.3375,5.3375,0,0,1-2.5225.52,3.2581,3.2581,0,0,1-3.5683-3.5616,3.745,3.745,0,0,1,1.0117-2.7617,3.37,3.37,0,0,1,2.4883-1.0185,3.0619,3.0619,0,0,1,2.3691.9091,3.5039,3.5039,0,0,1,.8369,2.4678Zm-2.0029-1.3262q0-1.5036-1.2168-1.5039a1.1588,1.1588,0,0,0-.8984.4307,1.9487,1.9487,0,0,0-.4619,1.0732Z" fill="#2f2f2f"/>
      <path d="M96.2738,151.9088V142.106h3.4727q5.2221,0,5.2226,4.7783a4.8286,4.8286,0,0,1-1.4258,3.6573,5.2527,5.2527,0,0,1-3.7968,1.3672Zm2.208-8.0049v6.2138h1.0938a2.9571,2.9571,0,0,0,2.2529-.8613,3.2705,3.2705,0,0,0,.8164-2.3447,2.9616,2.9616,0,0,0-.8105-2.2046,3.0843,3.0843,0,0,0-2.2725-.8032Z" fill="#2f2f2f"/>
      <path d="M107.4672,143.8013a1.2628,1.2628,0,0,1-.8955-.3247,1.0457,1.0457,0,0,1-.3487-.7964,1.0084,1.0084,0,0,1,.3487-.7929,1.463,1.463,0,0,1,1.7949,0,1.0147,1.0147,0,0,1,.3447.7929,1.0436,1.0436,0,0,1-.3447.8067A1.2856,1.2856,0,0,1,107.4672,143.8013Zm1.0664,8.1075h-2.16v-7h2.16Z" fill="#2f2f2f"/>
      <path d="M114.8812,146.857a1.8746,1.8746,0,0,0-.9091-.2119,1.3093,1.3093,0,0,0-1.1006.5161,2.25,2.25,0,0,0-.3965,1.4048v3.3428h-2.16v-7h2.16v1.2988h.0273a1.8689,1.8689,0,0,1,1.8457-1.4219,1.3928,1.3928,0,0,1,.5332.082Z" fill="#2f2f2f"/>
      <path d="M122.2543,149.024h-4.5664q.11,1.5241,1.9209,1.5244a3.7471,3.7471,0,0,0,2.03-.5469V151.56a5.3375,5.3375,0,0,1-2.5225.52,3.2583,3.2583,0,0,1-3.5684-3.5616,3.7446,3.7446,0,0,1,1.0118-2.7617,3.37,3.37,0,0,1,2.4882-1.0185,3.0622,3.0622,0,0,1,2.3692.9091,3.5039,3.5039,0,0,1,.8369,2.4678Zm-2.0029-1.3262q0-1.5036-1.2168-1.5039a1.1591,1.1591,0,0,0-.8985.4307,1.9487,1.9487,0,0,0-.4619,1.0732Z" fill="#2f2f2f"/>
      <path d="M128.9223,151.6558a4.268,4.268,0,0,1-2.1123.4239,3.5718,3.5718,0,0,1-2.6114-.9776,3.378,3.378,0,0,1-.998-2.5224,3.7171,3.7171,0,0,1,1.07-2.813,3.95,3.95,0,0,1,2.86-1.0288,3.67,3.67,0,0,1,1.7911.3281v1.832a2.4623,2.4623,0,0,0-1.5108-.5058,1.9872,1.9872,0,0,0-1.4726.5434,2.0238,2.0238,0,0,0-.544,1.5005,1.994,1.994,0,0,0,.5195,1.4595,1.91,1.91,0,0,0,1.4288.53,2.8486,2.8486,0,0,0,1.5791-.5059Z" fill="#2f2f2f"/>
      <path d="M134.6537,151.8267a3.1953,3.1953,0,0,1-1.4424.253q-2.2836,0-2.2832-2.3721v-3.2061h-1.1348v-1.5927h1.1348V143.398l2.1533-.6152v2.126h1.5723v1.5927h-1.5723v2.83q0,1.0935.8682,1.0938a1.4623,1.4623,0,0,0,.7041-.1983Z" fill="#2f2f2f"/>
      <path d="M139.1869,152.08a3.761,3.761,0,0,1-2.751-.981,4.056,4.056,0,0,1,.0371-5.38,3.9258,3.9258,0,0,1,2.81-.9809,3.7189,3.7189,0,0,1,2.7344.9809,3.4853,3.4853,0,0,1,.9912,2.5942,3.7031,3.7031,0,0,1-1.0215,2.7549A3.8075,3.8075,0,0,1,139.1869,152.08Zm.0547-5.6875a1.44,1.44,0,0,0-1.19.5263,2.3237,2.3237,0,0,0-.4238,1.49q0,2.0163,1.627,2.0166,1.5511,0,1.5517-2.0713Q140.807,146.392,139.2416,146.3922Z" fill="#2f2f2f"/>
      <path d="M148.9564,146.857a1.8746,1.8746,0,0,0-.9091-.2119,1.3093,1.3093,0,0,0-1.1006.5161,2.25,2.25,0,0,0-.3965,1.4048v3.3428h-2.16v-7h2.16v1.2988h.0273a1.8689,1.8689,0,0,1,1.8457-1.4219,1.3928,1.3928,0,0,1,.5332.082Z" fill="#2f2f2f"/>
      <path d="M157.0756,144.9088l-2.8438,7.56q-1.0254,2.7276-3.09,2.7275a3.95,3.95,0,0,1-1.292-.1777v-1.7227a1.8187,1.8187,0,0,0,.9365.253,1.17,1.17,0,0,0,1.1621-.7862l.3692-.8681-2.8438-6.9863h2.3926l1.3057,4.2587a5.5708,5.5708,0,0,1,.1914.9366h.0273a6.5354,6.5354,0,0,1,.2256-.9229l1.3193-4.2724Z" fill="#2f2f2f"/>
    </g>
    <g>
      <path d="M36.8217,42.709V32.9063h2.707q5.1811,0,5.1816,4.7783a4.8135,4.8135,0,0,1-1.4394,3.647,5.3359,5.3359,0,0,1-3.8516,1.3774ZM37.97,33.9454V41.67H39.433a4.1533,4.1533,0,0,0,3.001-1.0322,3.8683,3.8683,0,0,0,1.0732-2.9258q0-3.767-4.0058-3.7666Z" fill="#2f2f2f"/>
      <path d="M49.3871,42.8731a3.25,3.25,0,0,1-2.4785-.9809,3.6345,3.6345,0,0,1-.9258-2.6011,3.7848,3.7848,0,0,1,.9639-2.7549,3.4654,3.4654,0,0,1,2.6045-.9912,3.1368,3.1368,0,0,1,2.4433.9639,3.82,3.82,0,0,1,.8789,2.6728,3.7582,3.7582,0,0,1-.9472,2.6831A3.3159,3.3159,0,0,1,49.3871,42.8731Zm.082-6.3848a2.1332,2.1332,0,0,0-1.709.7349,3.02,3.02,0,0,0-.6289,2.0269,2.8541,2.8541,0,0,0,.6358,1.9619,2.1605,2.1605,0,0,0,1.7021.7177,2.0521,2.0521,0,0,0,1.6719-.7041,3.0606,3.0606,0,0,0,.584-2.0029,3.1134,3.1134,0,0,0-.584-2.0234A2.0424,2.0424,0,0,0,49.4691,36.4883Z" fill="#2f2f2f"/>
      <path d="M64.5277,42.709H63.4066V38.69a3.0229,3.0229,0,0,0-.3593-1.6816,1.3591,1.3591,0,0,0-1.2061-.52,1.4921,1.4921,0,0,0-1.22.6563,2.5043,2.5043,0,0,0-.503,1.5723V42.709h-1.121V38.5528q0-2.0647-1.5928-2.0645a1.4754,1.4754,0,0,0-1.2168.6187,2.5556,2.5556,0,0,0-.4785,1.61V42.709H54.5883v-7h1.1211v1.1075h.0273a2.3789,2.3789,0,0,1,2.1738-1.2715,2.022,2.022,0,0,1,1.9825,1.4492,2.4973,2.4973,0,0,1,2.3242-1.4492q2.31,0,2.31,2.8506Z" fill="#2f2f2f"/>
      <path d="M71.5629,42.709H70.4418V41.6153h-.0274a2.3465,2.3465,0,0,1-2.1533,1.2578,2.2992,2.2992,0,0,1-1.6367-.5537,1.9174,1.9174,0,0,1-.5918-1.47q0-1.9621,2.3106-2.2832l2.0986-.294q0-1.7841-1.4424-1.7842a3.4461,3.4461,0,0,0-2.2832.8614V36.2012a4.34,4.34,0,0,1,2.3789-.6562q2.4682,0,2.4678,2.6113Zm-1.1211-3.541-1.6885.2325a2.74,2.74,0,0,0-1.1758.3862,1.1134,1.1134,0,0,0-.3965.9809,1.07,1.07,0,0,0,.3653.8374,1.4158,1.4158,0,0,0,.9746.3247,1.7973,1.7973,0,0,0,1.3769-.5844,2.0841,2.0841,0,0,0,.544-1.48Z" fill="#2f2f2f"/>
      <path d="M74.141,33.9317a.7115.7115,0,0,1-.5127-.2051.6911.6911,0,0,1-.2119-.52.7179.7179,0,0,1,.7246-.7315.7261.7261,0,0,1,.5234.2085.7313.7313,0,0,1,0,1.0357A.721.721,0,0,1,74.141,33.9317Zm.5469,8.7773H73.5668v-7h1.1211Z" fill="#2f2f2f"/>
      <path d="M82.6176,42.709H81.4965V38.7169q0-2.2289-1.627-2.2286a1.7634,1.7634,0,0,0-1.3906.6324,2.3421,2.3421,0,0,0-.5508,1.5962V42.709H76.807v-7h1.1211v1.1622h.0274a2.5253,2.5253,0,0,1,2.2968-1.3262,2.1408,2.1408,0,0,1,1.7569.7417,3.3067,3.3067,0,0,1,.6084,2.143Z" fill="#2f2f2f"/>
      <path d="M93.3363,42.3878a3.6423,3.6423,0,0,1-1.914.4853,3.1671,3.1671,0,0,1-2.4161-.9741,3.5292,3.5292,0,0,1-.92-2.5259,3.88,3.88,0,0,1,.9912-2.7788A3.468,3.468,0,0,1,91.723,35.545a3.6815,3.6815,0,0,1,1.627.3418v1.1484a2.8489,2.8489,0,0,0-1.668-.5469,2.2511,2.2511,0,0,0-1.76.7691,2.9137,2.9137,0,0,0-.6875,2.02,2.7746,2.7746,0,0,0,.6464,1.9414,2.2238,2.2238,0,0,0,1.7325.7109,2.81,2.81,0,0,0,1.7226-.6083Z" fill="#2f2f2f"/>
      <path d="M97.7767,42.8731a3.25,3.25,0,0,1-2.4785-.9809,3.6344,3.6344,0,0,1-.9257-2.6011,3.7848,3.7848,0,0,1,.9638-2.7549,3.4657,3.4657,0,0,1,2.6045-.9912,3.137,3.137,0,0,1,2.4434.9639,3.8205,3.8205,0,0,1,.8789,2.6728,3.7583,3.7583,0,0,1-.9473,2.6831A3.3156,3.3156,0,0,1,97.7767,42.8731Zm.0821-6.3848a2.1331,2.1331,0,0,0-1.709.7349,3.0193,3.0193,0,0,0-.6289,2.0269,2.854,2.854,0,0,0,.6357,1.9619,2.1607,2.1607,0,0,0,1.7022.7177,2.0523,2.0523,0,0,0,1.6719-.7041,3.0612,3.0612,0,0,0,.5839-2.0029,3.114,3.114,0,0,0-.5839-2.0234A2.0425,2.0425,0,0,0,97.8588,36.4883Z" fill="#2f2f2f"/>
      <path d="M108.7885,42.709h-1.1211V38.7169q0-2.2289-1.627-2.2286a1.7634,1.7634,0,0,0-1.3906.6324,2.3421,2.3421,0,0,0-.5508,1.5962V42.709h-1.1211v-7h1.1211v1.1622h.0274a2.5253,2.5253,0,0,1,2.2968-1.3262,2.1408,2.1408,0,0,1,1.7569.7417,3.3067,3.3067,0,0,1,.6084,2.143Z" fill="#2f2f2f"/>
      <path d="M114.018,42.6407a2.1615,2.1615,0,0,1-1.0459.2187q-1.8384,0-1.8389-2.0507V36.6661H109.93V35.709h1.2031V34l1.1211-.3623V35.709h1.7637v.9571h-1.7637V40.61a1.6386,1.6386,0,0,0,.2392,1.0049.9539.9539,0,0,0,.793.3008,1.1811,1.1811,0,0,0,.7315-.2324Z" fill="#2f2f2f"/>
      <path d="M119.0492,36.8438a1.3714,1.3714,0,0,0-.8476-.2256,1.4286,1.4286,0,0,0-1.1993.6768,3.1223,3.1223,0,0,0-.4824,1.8457V42.709h-1.1211v-7H116.52v1.4424h.0274A2.442,2.442,0,0,1,117.2787,36a1.6676,1.6676,0,0,1,1.1006-.4136,1.8259,1.8259,0,0,1,.67.0957Z" fill="#2f2f2f"/>
      <path d="M123.1918,42.8731a3.25,3.25,0,0,1-2.4785-.9809,3.6345,3.6345,0,0,1-.9258-2.6011,3.7848,3.7848,0,0,1,.9639-2.7549,3.4653,3.4653,0,0,1,2.6044-.9912,3.137,3.137,0,0,1,2.4434.9639,3.8205,3.8205,0,0,1,.8789,2.6728,3.7578,3.7578,0,0,1-.9473,2.6831A3.3155,3.3155,0,0,1,123.1918,42.8731Zm.082-6.3848a2.1332,2.1332,0,0,0-1.709.7349,3.02,3.02,0,0,0-.6289,2.0269,2.8536,2.8536,0,0,0,.6358,1.9619,2.1605,2.1605,0,0,0,1.7021.7177,2.0521,2.0521,0,0,0,1.6719-.7041,3.0606,3.0606,0,0,0,.584-2.0029,3.1134,3.1134,0,0,0-.584-2.0234A2.0424,2.0424,0,0,0,123.2738,36.4883Z" fill="#2f2f2f"/>
      <path d="M129.5072,42.709h-1.1211V32.3458h1.1211Z" fill="#2f2f2f"/>
      <path d="M132.7387,42.709h-1.1211V32.3458h1.1211Z" fill="#2f2f2f"/>
      <path d="M140.5766,39.4893h-4.9424a2.6177,2.6177,0,0,0,.6289,1.8047,2.168,2.168,0,0,0,1.6543.6357,3.4406,3.4406,0,0,0,2.1738-.7792v1.0527a4.0614,4.0614,0,0,1-2.44.67A2.9587,2.9587,0,0,1,135.32,41.92a3.9019,3.9019,0,0,1-.8476-2.6831,3.8292,3.8292,0,0,1,.9257-2.6626,2.9716,2.9716,0,0,1,2.3008-1.0288,2.6318,2.6318,0,0,1,2.126.8887,3.7062,3.7062,0,0,1,.752,2.4677Zm-1.1485-.95a2.2876,2.2876,0,0,0-.4678-1.5107,1.5982,1.5982,0,0,0-1.2822-.54,1.8111,1.8111,0,0,0-1.3467.5674,2.5777,2.5777,0,0,0-.6836,1.4834Z" fill="#2f2f2f"/>
      <path d="M145.91,36.8438a1.3717,1.3717,0,0,0-.8477-.2256,1.4286,1.4286,0,0,0-1.1992.6768,3.1216,3.1216,0,0,0-.4824,1.8457V42.709h-1.1211v-7H143.38v1.4424h.0273A2.4422,2.4422,0,0,1,144.1391,36a1.6675,1.6675,0,0,1,1.1-.4136,1.8265,1.8265,0,0,1,.67.0957Z" fill="#2f2f2f"/>
      <path d="M146.9115,42.4561V41.253a3.3176,3.3176,0,0,0,2.0166.6767q1.4766,0,1.4766-.9843a.8562.8562,0,0,0-.126-.4751,1.2814,1.2814,0,0,0-.3418-.3452,2.6691,2.6691,0,0,0-.5059-.27c-.1943-.0795-.4023-.163-.6259-.2495a8.11,8.11,0,0,1-.8174-.3725,2.497,2.497,0,0,1-.5879-.4239,1.5938,1.5938,0,0,1-.3555-.5366,1.912,1.912,0,0,1-.1191-.7041,1.6728,1.6728,0,0,1,.2256-.8716,1.9977,1.9977,0,0,1,.6015-.6357,2.7973,2.7973,0,0,1,.8584-.3862,3.8,3.8,0,0,1,.9942-.13,4.0188,4.0188,0,0,1,1.6269.3144v1.1348a3.1685,3.1685,0,0,0-1.7773-.5059,2.0792,2.0792,0,0,0-.5674.0718,1.398,1.398,0,0,0-.4346.2017.9291.9291,0,0,0-.2793.311.8153.8153,0,0,0-.1.4.9556.9556,0,0,0,.1.458.9963.9963,0,0,0,.29.3282,2.2257,2.2257,0,0,0,.4648.26q.2739.1165.6221.2529a8.7,8.7,0,0,1,.834.3658,2.86,2.86,0,0,1,.6289.4238,1.668,1.668,0,0,1,.4.5435,1.7635,1.7635,0,0,1,.14.7314,1.7193,1.7193,0,0,1-.23.9023,1.9575,1.9575,0,0,1-.6113.6358,2.8024,2.8024,0,0,1-.8818.376,4.36,4.36,0,0,1-1.0459.123A3.9738,3.9738,0,0,1,146.9115,42.4561Z" fill="#2f2f2f"/>
    </g>
    <g>
      <path d="M43.1625,206.79q0,4.1286-3.7256,4.1289-3.5684,0-3.5684-3.9717v-5.9951H37.017v5.92q0,3.0147,2.543,3.0147,2.4536,0,2.4541-2.9121v-6.0225h1.1484Z" fill="#2f2f2f"/>
      <path d="M44.8519,210.502v-1.2031a3.3176,3.3176,0,0,0,2.0166.6767q1.4766,0,1.4766-.9843a.8562.8562,0,0,0-.126-.4751,1.28,1.28,0,0,0-.3418-.3452,2.6711,2.6711,0,0,0-.5058-.27c-.1944-.0795-.4024-.163-.626-.25a8.1207,8.1207,0,0,1-.8174-.3725,2.497,2.497,0,0,1-.5879-.4239,1.5935,1.5935,0,0,1-.3554-.5366,1.912,1.912,0,0,1-.1192-.7041,1.6728,1.6728,0,0,1,.2256-.8716,1.997,1.997,0,0,1,.6016-.6357,2.7952,2.7952,0,0,1,.8584-.3862,3.8,3.8,0,0,1,.9941-.13,4.02,4.02,0,0,1,1.627.3144V205.04a3.1691,3.1691,0,0,0-1.7774-.5059,2.08,2.08,0,0,0-.5674.0718,1.3974,1.3974,0,0,0-.4345.2017.927.927,0,0,0-.2793.311.8153.8153,0,0,0-.1.4.9556.9556,0,0,0,.1.458.9947.9947,0,0,0,.29.3281,2.2213,2.2213,0,0,0,.4648.26q.2741.1165.6221.2529a8.7,8.7,0,0,1,.834.3658,2.8581,2.8581,0,0,1,.6289.4238,1.6666,1.6666,0,0,1,.4.5435,1.7619,1.7619,0,0,1,.14.7314,1.7193,1.7193,0,0,1-.2294.9023,1.9588,1.9588,0,0,1-.6114.6358,2.8024,2.8024,0,0,1-.8818.376,4.36,4.36,0,0,1-1.0459.123A3.9743,3.9743,0,0,1,44.8519,210.502Z" fill="#2f2f2f"/>
      <path d="M56.807,207.5352H51.8646a2.6187,2.6187,0,0,0,.6289,1.8047,2.1683,2.1683,0,0,0,1.6543.6357,3.4411,3.4411,0,0,0,2.1739-.7792v1.0527a4.0617,4.0617,0,0,1-2.44.67,2.9587,2.9587,0,0,1-2.331-.9536,3.902,3.902,0,0,1-.8477-2.6831,3.8288,3.8288,0,0,1,.9258-2.6626,2.9716,2.9716,0,0,1,2.3008-1.0288,2.6318,2.6318,0,0,1,2.126.8887,3.7067,3.7067,0,0,1,.7519,2.4677Zm-1.1484-.95a2.2874,2.2874,0,0,0-.4678-1.5107,1.5982,1.5982,0,0,0-1.2822-.54,1.811,1.811,0,0,0-1.3467.5674,2.5771,2.5771,0,0,0-.6836,1.4834Z" fill="#2f2f2f"/>
      <path d="M62.14,204.89a1.3714,1.3714,0,0,0-.8476-.2256,1.4286,1.4286,0,0,0-1.1992.6768,3.1216,3.1216,0,0,0-.4825,1.8457v3.5683H58.49v-7h1.1211v1.4424h.0274a2.4428,2.4428,0,0,1,.7314-1.1518,1.6676,1.6676,0,0,1,1.1006-.4136,1.8256,1.8256,0,0,1,.67.0957Z" fill="#2f2f2f"/>
    </g>
    <g>
      <path d="M96.7728,210.7549v-9.8027H99.48q5.1811,0,5.1816,4.7783a4.8135,4.8135,0,0,1-1.4394,3.647,5.3359,5.3359,0,0,1-3.8516,1.3774Zm1.1485-8.7636v7.7246h1.4629a4.1532,4.1532,0,0,0,3.0009-1.0322,3.868,3.868,0,0,0,1.0733-2.9258q0-3.767-4.0059-3.7666Z" fill="#2f2f2f"/>
      <path d="M112.0385,207.5352h-4.9424a2.6177,2.6177,0,0,0,.6289,1.8047,2.1681,2.1681,0,0,0,1.6543.6357,3.4406,3.4406,0,0,0,2.1738-.7792v1.0527a4.0614,4.0614,0,0,1-2.44.67,2.9589,2.9589,0,0,1-2.3311-.9536,3.9019,3.9019,0,0,1-.8476-2.6831,3.8288,3.8288,0,0,1,.9258-2.6626,2.9713,2.9713,0,0,1,2.3007-1.0288,2.6317,2.6317,0,0,1,2.126.8887,3.7062,3.7062,0,0,1,.752,2.4677Zm-1.1485-.95a2.2879,2.2879,0,0,0-.4677-1.5107,1.5984,1.5984,0,0,0-1.2823-.54,1.8111,1.8111,0,0,0-1.3467.5674,2.577,2.577,0,0,0-.6835,1.4834Z" fill="#2f2f2f"/>
      <path d="M119.1762,203.7549l-2.7891,7h-1.1006l-2.6523-7h1.23l1.7774,5.086a4.61,4.61,0,0,1,.2461.9775h.0273a4.621,4.621,0,0,1,.2188-.95l1.8593-5.1133Z" fill="#2f2f2f"/>
      <path d="M120.9916,201.9776a.7115.7115,0,0,1-.5127-.2051.6911.6911,0,0,1-.2119-.52.7179.7179,0,0,1,.7246-.7315.7261.7261,0,0,1,.5234.2085.7313.7313,0,0,1,0,1.0357A.721.721,0,0,1,120.9916,201.9776Zm.5469,8.7773h-1.1211v-7h1.1211Z" fill="#2f2f2f"/>
      <path d="M128.4506,210.4337a3.6424,3.6424,0,0,1-1.9141.4853,3.167,3.167,0,0,1-2.416-.9741,3.5288,3.5288,0,0,1-.92-2.5259,3.88,3.88,0,0,1,.9912-2.7788,3.4679,3.4679,0,0,1,2.6455-1.0493,3.6814,3.6814,0,0,1,1.6269.3418v1.1484a2.8486,2.8486,0,0,0-1.6679-.5469,2.2513,2.2513,0,0,0-1.76.7691,2.9137,2.9137,0,0,0-.6875,2.02,2.7747,2.7747,0,0,0,.6465,1.9414,2.2236,2.2236,0,0,0,1.7324.7109,2.81,2.81,0,0,0,1.7227-.6084Z" fill="#2f2f2f"/>
      <path d="M135.6205,207.5352h-4.9424a2.6187,2.6187,0,0,0,.6289,1.8047,2.1683,2.1683,0,0,0,1.6543.6357,3.4406,3.4406,0,0,0,2.1738-.7792v1.0527a4.0614,4.0614,0,0,1-2.44.67,2.9587,2.9587,0,0,1-2.331-.9536,3.9015,3.9015,0,0,1-.8477-2.6831,3.8288,3.8288,0,0,1,.9258-2.6626,2.9716,2.9716,0,0,1,2.3008-1.0288,2.6315,2.6315,0,0,1,2.1259.8887,3.7062,3.7062,0,0,1,.752,2.4677Zm-1.1484-.95a2.288,2.288,0,0,0-.4678-1.5107,1.5983,1.5983,0,0,0-1.2822-.54,1.8108,1.8108,0,0,0-1.3467.5674,2.5765,2.5765,0,0,0-.6836,1.4834Z" fill="#2f2f2f"/>
      <path d="M136.8627,210.502v-1.2031a3.3174,3.3174,0,0,0,2.0166.6767q1.4766,0,1.4765-.9843a.8562.8562,0,0,0-.1259-.4751,1.2814,1.2814,0,0,0-.3418-.3452,2.6721,2.6721,0,0,0-.5059-.27c-.1943-.0795-.4023-.163-.626-.25a8.1183,8.1183,0,0,1-.8173-.3725,2.497,2.497,0,0,1-.5879-.4239,1.5938,1.5938,0,0,1-.3555-.5366,1.912,1.912,0,0,1-.1191-.7041,1.6737,1.6737,0,0,1,.2255-.8716,1.997,1.997,0,0,1,.6016-.6357,2.7963,2.7963,0,0,1,.8584-.3862,3.8,3.8,0,0,1,.9941-.13,4.0189,4.0189,0,0,1,1.627.3144V205.04a3.1687,3.1687,0,0,0-1.7773-.5059,2.0792,2.0792,0,0,0-.5674.0718,1.3969,1.3969,0,0,0-.4346.2017.9281.9281,0,0,0-.2793.311.8153.8153,0,0,0-.1.4.9556.9556,0,0,0,.1.458.9947.9947,0,0,0,.29.3281,2.2247,2.2247,0,0,0,.4649.26q.2739.1165.6221.2529a8.7083,8.7083,0,0,1,.8339.3658,2.8581,2.8581,0,0,1,.6289.4238,1.6651,1.6651,0,0,1,.4.5435,1.7619,1.7619,0,0,1,.14.7314,1.7193,1.7193,0,0,1-.23.9023,1.9585,1.9585,0,0,1-.6113.6358,2.803,2.803,0,0,1-.8819.376,4.3593,4.3593,0,0,1-1.0459.123A3.9736,3.9736,0,0,1,136.8627,210.502Z" fill="#2f2f2f"/>
    </g>
    <g>
      <path d="M221.9164,40.502h-1.2715l-1.0391-2.748H215.45l-.9775,2.748h-1.2784l3.76-9.8027h1.19Zm-2.6865-3.78-1.5381-4.1767a3.9991,3.9991,0,0,1-.15-.6563h-.0273a3.6652,3.6652,0,0,1-.1573.6563l-1.5244,4.1767Z" fill="#2f2f2f"/>
      <path d="M228.5277,33.8233l-4.1426,5.7217h4.1016v.957h-5.749v-.3486L226.88,34.459h-3.753v-.957h5.4Z" fill="#2f2f2f"/>
      <path d="M235.6244,40.502h-1.1211V39.3946h-.0273a2.3021,2.3021,0,0,1-2.16,1.2715q-2.502,0-2.5019-2.98V33.502h1.1142v4.0059q0,2.2148,1.6953,2.2148a1.7162,1.7162,0,0,0,1.3506-.605,2.317,2.317,0,0,0,.5293-1.5825V33.502h1.1211Z" fill="#2f2f2f"/>
      <path d="M241.3822,34.6368a1.3714,1.3714,0,0,0-.8476-.2256,1.4287,1.4287,0,0,0-1.1993.6768,3.1221,3.1221,0,0,0-.4824,1.8457V40.502h-1.1211v-7h1.1211v1.4424h.0274a2.4423,2.4423,0,0,1,.7314-1.1519,1.668,1.668,0,0,1,1.1006-.4135,1.8259,1.8259,0,0,1,.67.0957Z" fill="#2f2f2f"/>
      <path d="M248.225,37.2823h-4.9424a2.6184,2.6184,0,0,0,.6289,1.8047,2.1683,2.1683,0,0,0,1.6543.6357,3.44,3.44,0,0,0,2.1738-.7793v1.0528a4.0621,4.0621,0,0,1-2.44.67,2.9587,2.9587,0,0,1-2.331-.9536,3.9016,3.9016,0,0,1-.8477-2.6831,3.8288,3.8288,0,0,1,.9258-2.6626,2.971,2.971,0,0,1,2.3008-1.0288,2.6314,2.6314,0,0,1,2.1259.8886,3.7067,3.7067,0,0,1,.752,2.4678Zm-1.1484-.95a2.288,2.288,0,0,0-.4678-1.5107,1.5983,1.5983,0,0,0-1.2822-.54,1.8108,1.8108,0,0,0-1.3467.5674,2.5765,2.5765,0,0,0-.6836,1.4834Z" fill="#2f2f2f"/>
      <path d="M261.4935,40.502h-1.2714l-1.0391-2.748h-4.1563l-.9775,2.748h-1.2783l3.76-9.8027H257.72Zm-2.6865-3.78-1.5381-4.1767a3.9991,3.9991,0,0,1-.15-.6563h-.0273a3.6751,3.6751,0,0,1-.1572.6563L255.41,36.7217Z" fill="#2f2f2f"/>
      <path d="M262.8392,40.502V30.6993h2.7071q5.1812,0,5.1816,4.7783a4.8135,4.8135,0,0,1-1.4394,3.647,5.3364,5.3364,0,0,1-3.8516,1.3774Zm1.1485-8.7637V39.463h1.4629a4.1533,4.1533,0,0,0,3.001-1.0323,3.8682,3.8682,0,0,0,1.0732-2.9258q0-3.7668-4.0059-3.7666Z" fill="#2f2f2f"/>
      <path d="M224.6244,56.8917a5.7494,5.7494,0,0,1-2.707.5742,4.3651,4.3651,0,0,1-3.35-1.3467A4.9675,4.9675,0,0,1,217.31,52.585a5.2082,5.2082,0,0,1,1.415-3.8008,4.802,4.802,0,0,1,3.5889-1.4492,5.7508,5.7508,0,0,1,2.3105.4033V48.962a4.6846,4.6846,0,0,0-2.3242-.5879,3.5682,3.5682,0,0,0-2.7383,1.1279,4.2507,4.2507,0,0,0-1.0488,3.0147,4.0459,4.0459,0,0,0,.98,2.854,3.34,3.34,0,0,0,2.5743,1.063,4.8275,4.8275,0,0,0,2.5566-.6563Z" fill="#2f2f2f"/>
      <path d="M229.1732,57.4659a3.25,3.25,0,0,1-2.4785-.981,3.6343,3.6343,0,0,1-.9258-2.601,3.7848,3.7848,0,0,1,.9639-2.7549,3.4656,3.4656,0,0,1,2.6045-.9912,3.1371,3.1371,0,0,1,2.4434.9638,3.821,3.821,0,0,1,.8789,2.6729,3.7583,3.7583,0,0,1-.9473,2.6831A3.3161,3.3161,0,0,1,229.1732,57.4659Zm.0821-6.3848a2.1326,2.1326,0,0,0-1.709.7349,3.019,3.019,0,0,0-.6289,2.0268,2.854,2.854,0,0,0,.6357,1.9619,2.16,2.16,0,0,0,1.7022.7178,2.0519,2.0519,0,0,0,1.6718-.7041,3.0606,3.0606,0,0,0,.584-2.0029,3.1134,3.1134,0,0,0-.584-2.0234A2.0419,2.0419,0,0,0,229.2553,51.0811Z" fill="#2f2f2f"/>
      <path d="M240.1859,57.3018h-1.1211V53.31q0-2.2287-1.6269-2.2285a1.7635,1.7635,0,0,0-1.3906.6323,2.3423,2.3423,0,0,0-.5508,1.5962v3.9922h-1.1211v-7h1.1211v1.1621h.0273a2.5256,2.5256,0,0,1,2.2969-1.3261,2.14,2.14,0,0,1,1.7568.7417,3.3059,3.3059,0,0,1,.6084,2.143Z" fill="#2f2f2f"/>
      <path d="M248.0189,57.3018h-1.1211V53.31q0-2.2287-1.6269-2.2285a1.7635,1.7635,0,0,0-1.3906.6323A2.3423,2.3423,0,0,0,243.33,53.31v3.9922h-1.1211v-7H243.33v1.1621h.0273a2.5256,2.5256,0,0,1,2.2969-1.3261,2.14,2.14,0,0,1,1.7568.7417,3.3059,3.3059,0,0,1,.6084,2.143Z" fill="#2f2f2f"/>
      <path d="M255.7221,54.0821H250.78a2.6177,2.6177,0,0,0,.6289,1.8047,2.1681,2.1681,0,0,0,1.6543.6357,3.44,3.44,0,0,0,2.1738-.7793V56.796a4.0621,4.0621,0,0,1-2.44.67,2.9589,2.9589,0,0,1-2.3311-.9536,3.9021,3.9021,0,0,1-.8476-2.6831,3.8292,3.8292,0,0,1,.9257-2.6626,2.9713,2.9713,0,0,1,2.3008-1.0288,2.6318,2.6318,0,0,1,2.126.8886,3.7067,3.7067,0,0,1,.752,2.4678Zm-1.1485-.95a2.2874,2.2874,0,0,0-.4678-1.5107,1.598,1.598,0,0,0-1.2822-.54,1.8111,1.8111,0,0,0-1.3467.5674,2.5777,2.5777,0,0,0-.6836,1.4834Z" fill="#2f2f2f"/>
      <path d="M262.22,56.9805a3.6415,3.6415,0,0,1-1.9141.4854,3.167,3.167,0,0,1-2.416-.9741,3.5291,3.5291,0,0,1-.92-2.5259,3.88,3.88,0,0,1,.9912-2.7788,3.468,3.468,0,0,1,2.6455-1.0493,3.68,3.68,0,0,1,1.627.3418V51.628a2.8484,2.8484,0,0,0-1.668-.5469,2.2514,2.2514,0,0,0-1.76.7691,2.9142,2.9142,0,0,0-.6875,2.02,2.7747,2.7747,0,0,0,.6465,1.9414,2.2237,2.2237,0,0,0,1.7325.7109,2.81,2.81,0,0,0,1.7226-.6084Z" fill="#2f2f2f"/>
      <path d="M267.3832,57.2335a2.1615,2.1615,0,0,1-1.0459.2187q-1.8384,0-1.8389-2.0508V51.2589h-1.2031v-.9571h1.2031v-1.709l1.1211-.3623v2.0713h1.7637v.9571H265.62v3.9443a1.638,1.638,0,0,0,.2393,1.0049.9537.9537,0,0,0,.7929.3008,1.18,1.18,0,0,0,.7315-.2325Z" fill="#2f2f2f"/>
    </g>
    <g>
      <path d="M239.6117,149.566v-1.3535a2.6346,2.6346,0,0,0,.5576.3691,4.4451,4.4451,0,0,0,.6836.2769,5.4085,5.4085,0,0,0,.7207.1743,4.02,4.02,0,0,0,.67.0615,2.62,2.62,0,0,0,1.5821-.3931,1.4751,1.4751,0,0,0,.35-1.8217,1.9846,1.9846,0,0,0-.4824-.5367,4.7377,4.7377,0,0,0-.7286-.4648c-.2792-.148-.582-.3042-.9052-.4683q-.5127-.26-.9571-.5263a4.1539,4.1539,0,0,1-.7724-.5879,2.4488,2.4488,0,0,1-.5156-.7281,2.4792,2.4792,0,0,1,.1054-2.1191,2.5219,2.5219,0,0,1,.7725-.8169,3.506,3.506,0,0,1,1.0908-.4785,4.976,4.976,0,0,1,1.2471-.1572,4.7832,4.7832,0,0,1,2.1123.3486v1.292a3.83,3.83,0,0,0-2.2285-.6016,3.68,3.68,0,0,0-.752.0786,2.1162,2.1162,0,0,0-.67.2564,1.48,1.48,0,0,0-.4785.458,1.2151,1.2151,0,0,0-.1846.6836,1.4151,1.4151,0,0,0,.14.6494,1.595,1.595,0,0,0,.414.499,4.13,4.13,0,0,0,.666.4375q.394.2117.9063.4649.5259.26.998.5468a4.5773,4.5773,0,0,1,.8272.6358,2.8068,2.8068,0,0,1,.5635.7725,2.1632,2.1632,0,0,1,.2089.9707,2.4686,2.4686,0,0,1-.2832,1.227,2.3382,2.3382,0,0,1-.7656.8169,3.3587,3.3587,0,0,1-1.1113.4546,6.0894,6.0894,0,0,1-1.3262.14,5.4366,5.4366,0,0,1-.5742-.0376q-.3413-.0374-.6973-.1093a5.71,5.71,0,0,1-.6738-.1778A2.1283,2.1283,0,0,1,239.6117,149.566Z" fill="#2f2f2f"/>
      <path d="M247.7211,141.1851a.7111.7111,0,0,1-.5127-.2051.6911.6911,0,0,1-.2119-.5195.7179.7179,0,0,1,.7246-.7314.7257.7257,0,0,1,.5234.2085.7312.7312,0,0,1,0,1.0356A.721.721,0,0,1,247.7211,141.1851Zm.5469,8.7774h-1.1211v-7h1.1211Z" fill="#2f2f2f"/>
      <path d="M256.4115,149.4019q0,3.8554-3.6914,3.8555a4.9564,4.9564,0,0,1-2.2695-.4922v-1.1211a4.6591,4.6591,0,0,0,2.2558.6563q2.5841,0,2.584-2.7481v-.7656h-.0273a2.8318,2.8318,0,0,1-4.5078.4067,3.7278,3.7278,0,0,1-.7969-2.5054,4.3613,4.3613,0,0,1,.8574-2.8369,2.8685,2.8685,0,0,1,2.3486-1.0527,2.2824,2.2824,0,0,1,2.0987,1.1348h.0273v-.9707h1.1211Zm-1.1211-2.6045v-1.0322a1.9988,1.9988,0,0,0-.5644-1.4287,1.8541,1.8541,0,0,0-1.4043-.5947,1.9472,1.9472,0,0,0-1.627.7553,3.3737,3.3737,0,0,0-.5879,2.1158,2.8889,2.8889,0,0,0,.5645,1.87,1.8188,1.8188,0,0,0,1.4931.7007,1.9488,1.9488,0,0,0,1.5342-.67A2.4954,2.4954,0,0,0,255.29,146.7974Z" fill="#2f2f2f"/>
      <path d="M264.3285,149.9625h-1.1211V145.97q0-2.2289-1.6269-2.2285a1.7634,1.7634,0,0,0-1.3907.6323,2.342,2.342,0,0,0-.5507,1.5962v3.9922H258.518v-7h1.1211v1.1621h.0273a2.5254,2.5254,0,0,1,2.2969-1.3262,2.1407,2.1407,0,0,1,1.7568.7417,3.3062,3.3062,0,0,1,.6084,2.1431Z" fill="#2f2f2f"/>
      <path d="M269.9379,146.5035h-3.7324v-.8819h3.7324Z" fill="#2f2f2f"/>
      <path d="M272.3969,141.1851a.7111.7111,0,0,1-.5127-.2051.6911.6911,0,0,1-.2119-.5195.7179.7179,0,0,1,.7246-.7314.7259.7259,0,0,1,.5234.2085.7315.7315,0,0,1,0,1.0356A.7212.7212,0,0,1,272.3969,141.1851Zm.5468,8.7774h-1.1211v-7h1.1211Z" fill="#2f2f2f"/>
      <path d="M280.8725,149.9625h-1.1211V145.97q0-2.2289-1.627-2.2285a1.7633,1.7633,0,0,0-1.3906.6323,2.3421,2.3421,0,0,0-.5508,1.5962v3.9922h-1.1211v-7h1.1211v1.1621h.0273a2.5256,2.5256,0,0,1,2.2969-1.3262,2.141,2.141,0,0,1,1.7569.7417,3.3068,3.3068,0,0,1,.6084,2.1431Z" fill="#2f2f2f"/>
    </g>
    <g>
      <path d="M365.1127,49.9634h-2.4063l-.6972-2.1806h-3.4864l-.69,2.1806H355.44l3.5684-9.8027h2.6182Zm-3.6094-3.8759-1.0527-3.295a4.3321,4.3321,0,0,1-.1641-.8818h-.0547a3.7385,3.7385,0,0,1-.1709.8545l-1.0664,3.3223Z" fill="#2f2f2f"/>
      <path d="M372.018,49.9634h-6.2823v-.8955l3.5137-4.5117h-3.165V42.9634h5.9062V44.03l-3.3291,4.3409h3.3565Z" fill="#2f2f2f"/>
      <path d="M379.9008,49.9634h-2.1533V48.897h-.0342a2.4428,2.4428,0,0,1-2.14,1.2373q-2.433,0-2.4336-2.9463V42.9634h2.1533v4.0332q0,1.4832,1.1758,1.4834a1.163,1.163,0,0,0,.93-.4067,1.64,1.64,0,0,0,.3487-1.104V42.9634h2.1533Z" fill="#2f2f2f"/>
      <path d="M386.2348,44.9117a1.875,1.875,0,0,0-.9092-.2119,1.3091,1.3091,0,0,0-1.1006.5161,2.25,2.25,0,0,0-.3965,1.4048v3.3427h-2.16v-7h2.16v1.2989h.0273a1.869,1.869,0,0,1,1.8458-1.4219,1.3935,1.3935,0,0,1,.5332.082Z" fill="#2f2f2f"/>
      <path d="M393.6068,47.0787H389.04q.11,1.5242,1.9209,1.5244a3.7469,3.7469,0,0,0,2.03-.5469v1.5586a5.3375,5.3375,0,0,1-2.5225.52,3.258,3.258,0,0,1-3.5683-3.5615,3.745,3.745,0,0,1,1.0117-2.7617,3.37,3.37,0,0,1,2.4883-1.0186,3.062,3.062,0,0,1,2.3691.9092,3.5039,3.5039,0,0,1,.8369,2.4678Zm-2.0029-1.3262q0-1.5036-1.2168-1.5039a1.1588,1.1588,0,0,0-.8984.4307,1.9488,1.9488,0,0,0-.462,1.0732Z" fill="#2f2f2f"/>
      <path d="M407.1283,40.1607l-3.3769,9.8027h-2.502l-3.3359-9.8027h2.3789l2.0439,6.8223a4.8617,4.8617,0,0,1,.1983.9775h.041a5.5548,5.5548,0,0,1,.2119-1.0049l2.03-6.7949Z" fill="#2f2f2f"/>
      <path d="M409.2572,41.856a1.263,1.263,0,0,1-.8955-.3247,1.0459,1.0459,0,0,1-.3486-.7964,1.0086,1.0086,0,0,1,.3486-.7929,1.4626,1.4626,0,0,1,1.7949,0,1.0148,1.0148,0,0,1,.3448.7929,1.0438,1.0438,0,0,1-.3448.8067A1.2857,1.2857,0,0,1,409.2572,41.856Zm1.0664,8.1074h-2.16v-7h2.16Z" fill="#2f2f2f"/>
      <path d="M416.6723,44.9117a1.875,1.875,0,0,0-.9092-.2119,1.3091,1.3091,0,0,0-1.1006.5161,2.25,2.25,0,0,0-.3965,1.4048v3.3427h-2.16v-7h2.16v1.2989h.0273a1.869,1.869,0,0,1,1.8458-1.4219,1.3935,1.3935,0,0,1,.5332.082Z" fill="#2f2f2f"/>
      <path d="M422.2045,49.8814a3.1958,3.1958,0,0,1-1.4424.2529q-2.2837,0-2.2832-2.372V44.5562h-1.1348V42.9634h1.1348V41.4527l2.1533-.6152v2.1259h1.5723v1.5928h-1.5723v2.83q0,1.0935.8682,1.0937a1.4621,1.4621,0,0,0,.7041-.1982Z" fill="#2f2f2f"/>
      <path d="M430.1693,49.9634H428.016V48.897h-.0342a2.4428,2.4428,0,0,1-2.14,1.2373q-2.4332,0-2.4336-2.9463V42.9634h2.1533v4.0332q0,1.4832,1.1758,1.4834a1.163,1.163,0,0,0,.93-.4067,1.64,1.64,0,0,0,.3486-1.104V42.9634h2.1533Z" fill="#2f2f2f"/>
      <path d="M437.8187,49.9634h-2.0439V48.9586h-.0273a2.2818,2.2818,0,0,1-2.085,1.1757,2.1776,2.1776,0,0,1-1.6025-.5776,2.0664,2.0664,0,0,1-.585-1.5415q0-2.0369,2.4131-2.3516l1.9-.2529q0-1.1484-1.2442-1.1484a4.2478,4.2478,0,0,0-2.3789.7451V43.38a5.3586,5.3586,0,0,1,1.2344-.41,6.4652,6.4652,0,0,1,1.4248-.1778,2.6434,2.6434,0,0,1,2.9941,2.9873Zm-2.03-2.8437V46.648l-1.2715.1641q-1.0533.1369-1.0528.95a.788.788,0,0,0,.2559.6049.9872.9872,0,0,0,.6943.2359,1.279,1.279,0,0,0,.9913-.42A1.5207,1.5207,0,0,0,435.7885,47.12Z" fill="#2f2f2f"/>
      <path d="M441.6762,49.9634h-2.16V39.6h2.16Z" fill="#2f2f2f"/>
      <path d="M447.5687,49.9634V40.1607h3.4727q5.2221,0,5.2227,4.7783a4.829,4.829,0,0,1-1.4258,3.6573,5.2528,5.2528,0,0,1-3.7969,1.3671Zm2.208-8.0048v6.2138h1.0938a2.9571,2.9571,0,0,0,2.2529-.8613,3.2707,3.2707,0,0,0,.8164-2.3447,2.9616,2.9616,0,0,0-.81-2.2046,3.0843,3.0843,0,0,0-2.2725-.8032Z" fill="#2f2f2f"/>
      <path d="M463.9613,47.0787h-4.5664q.11,1.5242,1.9209,1.5244a3.7469,3.7469,0,0,0,2.03-.5469v1.5586a5.3375,5.3375,0,0,1-2.5225.52,3.258,3.258,0,0,1-3.5683-3.5615,3.745,3.745,0,0,1,1.0117-2.7617,3.37,3.37,0,0,1,2.4883-1.0186,3.062,3.062,0,0,1,2.3691.9092,3.5039,3.5039,0,0,1,.8369,2.4678Zm-2.0029-1.3262q0-1.5036-1.2168-1.5039a1.1588,1.1588,0,0,0-.8984.4307,1.9481,1.9481,0,0,0-.462,1.0732Z" fill="#2f2f2f"/>
      <path d="M464.95,49.7789v-1.75a4.6127,4.6127,0,0,0,1.0625.4785,3.5229,3.5229,0,0,0,1.002.1572,2.1494,2.1494,0,0,0,.9062-.1572.508.508,0,0,0,.3311-.4785.4419.4419,0,0,0-.15-.3418,1.4117,1.4117,0,0,0-.3858-.2393,4.4926,4.4926,0,0,0-.5166-.1846c-.1865-.0546-.3672-.1162-.54-.1845a5.1382,5.1382,0,0,1-.7344-.3384,2.0818,2.0818,0,0,1-.5332-.42,1.625,1.625,0,0,1-.3281-.5537,2.1836,2.1836,0,0,1-.1133-.7451,1.9269,1.9269,0,0,1,.2559-1.0118,2.1088,2.1088,0,0,1,.6836-.6938,3.1285,3.1285,0,0,1,.9785-.3965,5.077,5.077,0,0,1,1.1445-.1265,6.3678,6.3678,0,0,1,.9434.0718,7.0039,7.0039,0,0,1,.9433.2085v1.668a3.3945,3.3945,0,0,0-.8789-.3589,3.7048,3.7048,0,0,0-.9189-.12,2.04,2.04,0,0,0-.3994.0376,1.308,1.308,0,0,0-.3321.1093.61.61,0,0,0-.2256.1846.4249.4249,0,0,0-.082.2564.4739.4739,0,0,0,.1231.3281,1.0667,1.0667,0,0,0,.3212.2358,3.1588,3.1588,0,0,0,.4414.1778c.1612.0522.3223.1059.4815.1606a6.2244,6.2244,0,0,1,.7793.3281,2.5116,2.5116,0,0,1,.5986.417,1.6556,1.6556,0,0,1,.3828.5606,2.2483,2.2483,0,0,1-.1367,1.8286,2.1681,2.1681,0,0,1-.7187.7178,3.2591,3.2591,0,0,1-1.0313.4033,5.73,5.73,0,0,1-1.2139.1264A6.2577,6.2577,0,0,1,464.95,49.7789Z" fill="#2f2f2f"/>
      <path d="M478.6391,49.9634h-2.5909l-2.2353-3.4726h-.0274v3.4726h-2.16V39.6h2.16v6.5966h.0274l2.0849-3.2334h2.5635l-2.5088,3.2881Z" fill="#2f2f2f"/>
      <path d="M483.9867,49.8814a3.1955,3.1955,0,0,1-1.4424.2529q-2.2836,0-2.2832-2.372V44.5562h-1.1347V42.9634h1.1347V41.4527l2.1533-.6152v2.1259h1.5723v1.5928h-1.5723v2.83q0,1.0935.8682,1.0937a1.4621,1.4621,0,0,0,.7041-.1982Z" fill="#2f2f2f"/>
      <path d="M488.52,50.1343a3.7609,3.7609,0,0,1-2.751-.9809,4.056,4.056,0,0,1,.0371-5.38,3.926,3.926,0,0,1,2.81-.981,3.7188,3.7188,0,0,1,2.7344.981,3.4853,3.4853,0,0,1,.9912,2.5942,3.7033,3.7033,0,0,1-1.0215,2.7549A3.8074,3.8074,0,0,1,488.52,50.1343Zm.0547-5.6875a1.44,1.44,0,0,0-1.1895.5264,2.3236,2.3236,0,0,0-.4238,1.49q0,2.0164,1.627,2.0166,1.5513,0,1.5517-2.0712Q490.14,44.4465,488.5746,44.4468Z" fill="#2f2f2f"/>
      <path d="M495.9105,49.15h-.0273v4.0332h-2.16v-10.22h2.16v1.0528h.0273a2.7483,2.7483,0,0,1,4.3506-.2906,3.97,3.97,0,0,1,.7422,2.54,4.3041,4.3041,0,0,1-.8652,2.81,2.8178,2.8178,0,0,1-2.3,1.06A2.18,2.18,0,0,1,495.9105,49.15Zm-.0615-2.8711v.56a1.7834,1.7834,0,0,0,.3828,1.1826,1.2457,1.2457,0,0,0,1.0049.458,1.326,1.326,0,0,0,1.1455-.5708,2.76,2.76,0,0,0,.4063-1.6167q0-1.8456-1.4356-1.8457a1.35,1.35,0,0,0-1.084.5025A2.0091,2.0091,0,0,0,495.849,46.2789Z" fill="#2f2f2f"/>
    </g>
    <g>
      <path d="M411.6068,120.8h-1.1484v-4.4707h-5.0723V120.8h-1.1484v-9.8028h1.1484v4.3h5.0723v-4.3h1.1484Z" fill="#2f2f2f"/>
      <path d="M416.8646,120.9639a3.25,3.25,0,0,1-2.4785-.9809,3.6343,3.6343,0,0,1-.9258-2.6011,3.785,3.785,0,0,1,.9639-2.7549,3.4661,3.4661,0,0,1,2.6045-.9912,3.1372,3.1372,0,0,1,2.4434.9639,3.8207,3.8207,0,0,1,.8789,2.6728,3.7581,3.7581,0,0,1-.9473,2.6831A3.3157,3.3157,0,0,1,416.8646,120.9639Zm.0821-6.3847a2.1329,2.1329,0,0,0-1.709.7348,3.02,3.02,0,0,0-.6289,2.0269,2.854,2.854,0,0,0,.6357,1.9619,2.1607,2.1607,0,0,0,1.7022.7178,2.0522,2.0522,0,0,0,1.6718-.7041,3.0609,3.0609,0,0,0,.584-2.003,3.1134,3.1134,0,0,0-.584-2.0234A2.0421,2.0421,0,0,0,416.9467,114.5792Z" fill="#2f2f2f"/>
      <path d="M421.6156,120.5469v-1.2031a3.3177,3.3177,0,0,0,2.0166.6768q1.4766,0,1.4766-.9844a.8562.8562,0,0,0-.126-.4751,1.2814,1.2814,0,0,0-.3418-.3452,2.6689,2.6689,0,0,0-.5059-.27c-.1943-.08-.4023-.1631-.6259-.2495a8.1319,8.1319,0,0,1-.8174-.3726,2.5,2.5,0,0,1-.5879-.4238,1.5952,1.5952,0,0,1-.3555-.5367,1.9117,1.9117,0,0,1-.1191-.7041,1.6722,1.6722,0,0,1,.2256-.8715,1.997,1.997,0,0,1,.6015-.6358,2.7973,2.7973,0,0,1,.8584-.3862,3.8047,3.8047,0,0,1,.9942-.13,4.0171,4.0171,0,0,1,1.6269.3145v1.1347a3.1684,3.1684,0,0,0-1.7773-.5058,2.0793,2.0793,0,0,0-.5674.0717,1.398,1.398,0,0,0-.4346.2017.9291.9291,0,0,0-.2793.311.8153.8153,0,0,0-.1.4.9554.9554,0,0,0,.1.458.9953.9953,0,0,0,.29.3282,2.2257,2.2257,0,0,0,.4648.26q.2739.1166.6221.253a8.6754,8.6754,0,0,1,.834.3657,2.86,2.86,0,0,1,.6289.4238,1.668,1.668,0,0,1,.4.5435,1.7638,1.7638,0,0,1,.14.7314,1.72,1.72,0,0,1-.23.9024,1.9582,1.9582,0,0,1-.6113.6357,2.7978,2.7978,0,0,1-.8818.376,4.36,4.36,0,0,1-1.0459.123A3.9726,3.9726,0,0,1,421.6156,120.5469Z" fill="#2f2f2f"/>
      <path d="M431.2689,120.7315a2.1609,2.1609,0,0,1-1.0459.2188q-1.8383,0-1.8388-2.0508v-4.1426H427.181V113.8h1.2032v-1.709l1.1211-.3623V113.8h1.7636v.957h-1.7636v3.9443a1.6379,1.6379,0,0,0,.2392,1.0049.9538.9538,0,0,0,.793.3008,1.18,1.18,0,0,0,.7314-.2324Z" fill="#2f2f2f"/>
      <path d="M437.7494,119.7881h-.0273V124.02H436.601V113.8h1.1211v1.23h.0273a2.6516,2.6516,0,0,1,2.42-1.3945,2.5639,2.5639,0,0,1,2.1123.94,3.8929,3.8929,0,0,1,.7588,2.5191,4.34,4.34,0,0,1-.8545,2.813,2.844,2.844,0,0,1-2.3379,1.0561A2.3419,2.3419,0,0,1,437.7494,119.7881Zm-.0273-2.8232v.9775a2.0779,2.0779,0,0,0,.5644,1.4732,2.0109,2.0109,0,0,0,3.0274-.1743,3.5709,3.5709,0,0,0,.5781-2.167,2.82,2.82,0,0,0-.54-1.8321,1.7881,1.7881,0,0,0-1.4628-.663,1.9863,1.9863,0,0,0-1.5723.68A2.4979,2.4979,0,0,0,437.7221,116.9649Z" fill="#2f2f2f"/>
      <path d="M447.7465,120.9639a3.25,3.25,0,0,1-2.4785-.9809,3.6343,3.6343,0,0,1-.9258-2.6011,3.7853,3.7853,0,0,1,.9638-2.7549,3.4661,3.4661,0,0,1,2.6045-.9912,3.137,3.137,0,0,1,2.4434.9639,3.8207,3.8207,0,0,1,.8789,2.6728,3.7577,3.7577,0,0,1-.9473,2.6831A3.3155,3.3155,0,0,1,447.7465,120.9639Zm.082-6.3847a2.1331,2.1331,0,0,0-1.709.7348,3.02,3.02,0,0,0-.6289,2.0269,2.8536,2.8536,0,0,0,.6358,1.9619,2.1606,2.1606,0,0,0,1.7021.7178,2.0524,2.0524,0,0,0,1.6719-.7041,3.0609,3.0609,0,0,0,.584-2.003,3.1134,3.1134,0,0,0-.584-2.0234A2.0423,2.0423,0,0,0,447.8285,114.5792Z" fill="#2f2f2f"/>
      <path d="M455.9379,120.9639a3.25,3.25,0,0,1-2.4785-.9809,3.6343,3.6343,0,0,1-.9258-2.6011,3.785,3.785,0,0,1,.9639-2.7549,3.4657,3.4657,0,0,1,2.6044-.9912,3.137,3.137,0,0,1,2.4434.9639,3.8207,3.8207,0,0,1,.8789,2.6728,3.7577,3.7577,0,0,1-.9473,2.6831A3.3155,3.3155,0,0,1,455.9379,120.9639Zm.082-6.3847a2.1331,2.1331,0,0,0-1.709.7348,3.02,3.02,0,0,0-.6289,2.0269,2.8536,2.8536,0,0,0,.6358,1.9619,2.1606,2.1606,0,0,0,1.7021.7178,2.0524,2.0524,0,0,0,1.6719-.7041,3.0609,3.0609,0,0,0,.584-2.003,3.1134,3.1134,0,0,0-.584-2.0234A2.0423,2.0423,0,0,0,456.02,114.5792Z" fill="#2f2f2f"/>
      <path d="M462.2543,120.8h-1.1211V110.4366h1.1211Z" fill="#2f2f2f"/>
    </g>
  </g>
</svg>
