<svg xmlns="http://www.w3.org/2000/svg" xmlns:xlink="http://www.w3.org/1999/xlink" viewBox="0 0 652 210">
  <defs>
    <linearGradient id="linear-gradient" x1="334.8" y1="205.0468" x2="334.8" y2="24.4973" gradientUnits="userSpaceOnUse">
      <stop offset="0" stop-color="#81d3ed"/>
      <stop offset="1" stop-color="#b6e5f9"/>
    </linearGradient>
    <linearGradient id="linear-gradient-2" x1="410.2368" y1="1416.2717" x2="412.5662" y2="1413.9422" gradientTransform="matrix(1, -0.0014, -0.0014, -1, 3.6931, 1589.7717)" gradientUnits="userSpaceOnUse">
      <stop offset="0" stop-color="#8bc63f"/>
      <stop offset="0.24" stop-color="#88c540"/>
      <stop offset="0.5" stop-color="#7dc242"/>
      <stop offset="0.76" stop-color="#6daf44"/>
      <stop offset="1" stop-color="#5e9741"/>
    </linearGradient>
    <linearGradient id="linear-gradient-3" x1="404.983" y1="1416.2718" x2="407.2975" y2="1413.943" xlink:href="#linear-gradient-2"/>
    <linearGradient id="linear-gradient-4" x1="399.7327" y1="1416.2754" x2="402.0473" y2="1413.9466" xlink:href="#linear-gradient-2"/>
    <linearGradient id="linear-gradient-5" x1="517.8076" y1="156.6468" x2="517.8076" y2="76.4555" gradientUnits="userSpaceOnUse">
      <stop offset="0" stop-color="#004dae"/>
      <stop offset="0.21" stop-color="#0061c4"/>
      <stop offset="0.51" stop-color="#0078dd"/>
      <stop offset="0.78" stop-color="#0086ec"/>
      <stop offset="1" stop-color="#008bf1"/>
    </linearGradient>
    <linearGradient id="linear-gradient-6" x1="29.0764" y1="1561.3335" x2="20.5966" y2="1577.3957" gradientTransform="matrix(1, 0, 0, -1, 0, 1590.1827)" gradientUnits="userSpaceOnUse">
      <stop offset="0" stop-color="#3085c7"/>
      <stop offset="0.9" stop-color="#5fabdf"/>
    </linearGradient>
    <linearGradient id="linear-gradient-7" x1="25.4256" y1="1566.0007" x2="31.2864" y2="1555.8908" gradientTransform="matrix(1, 0, 0, -1, 0, 1590.1827)" gradientUnits="userSpaceOnUse">
      <stop offset="0.1" stop-color="#5fabdf"/>
      <stop offset="0.29" stop-color="#5aa8dd"/>
      <stop offset="0.51" stop-color="#4da0d8"/>
      <stop offset="0.74" stop-color="#3b90ce"/>
      <stop offset="0.88" stop-color="#3085c7"/>
    </linearGradient>
    <radialGradient id="radial-gradient" cx="-133.6" cy="1746.6651" r="12" gradientTransform="matrix(1, 0, 0, -1, 564, 1824.1827)" gradientUnits="userSpaceOnUse">
      <stop offset="0" stop-color="#198ab3"/>
      <stop offset="0.382" stop-color="#1a8cb5"/>
      <stop offset="0.576" stop-color="#1c94bc"/>
      <stop offset="0.727" stop-color="#21a1c8"/>
      <stop offset="0.856" stop-color="#27b4d8"/>
      <stop offset="0.97" stop-color="#2fccee"/>
      <stop offset="1" stop-color="#32d4f5"/>
    </radialGradient>
    <linearGradient id="linear-gradient-8" x1="476.5882" y1="1478.0948" x2="476.5882" y2="1496.8561" gradientTransform="matrix(1, 0, 0, -1, 0, 1590.1827)" gradientUnits="userSpaceOnUse">
      <stop offset="0" stop-color="#2e76bc"/>
      <stop offset="0.82" stop-color="#699cd3"/>
    </linearGradient>
    <linearGradient id="linear-gradient-9" x1="476.5882" y1="1470.8561" x2="476.5882" y2="1478.0948" gradientTransform="matrix(1, 0, 0, -1, 0, 1590.1827)" gradientUnits="userSpaceOnUse">
      <stop offset="0.15" stop-color="#cccccb"/>
      <stop offset="1" stop-color="#707071"/>
    </linearGradient>
    <linearGradient id="linear-gradient-10" x1="517.8076" y1="1478.0948" x2="517.8076" y2="1496.8561" xlink:href="#linear-gradient-8"/>
    <linearGradient id="linear-gradient-11" x1="517.8076" y1="1470.8561" x2="517.8076" y2="1478.0948" xlink:href="#linear-gradient-9"/>
    <linearGradient id="linear-gradient-12" x1="559.0269" y1="1478.0948" x2="559.0269" y2="1496.8561" xlink:href="#linear-gradient-8"/>
    <linearGradient id="linear-gradient-13" x1="559.0269" y1="1470.8561" x2="559.0269" y2="1478.0948" xlink:href="#linear-gradient-9"/>
    <linearGradient id="linear-gradient-14" x1="51.0902" y1="1416.7731" x2="53.4197" y2="1414.4437" xlink:href="#linear-gradient-2"/>
    <linearGradient id="linear-gradient-15" x1="45.8364" y1="1416.7732" x2="48.151" y2="1414.4445" xlink:href="#linear-gradient-2"/>
    <linearGradient id="linear-gradient-16" x1="40.5861" y1="1416.7769" x2="42.9007" y2="1414.4481" xlink:href="#linear-gradient-2"/>
    <linearGradient id="linear-gradient-17" x1="-224.7535" y1="1729.9607" x2="-224.7535" y2="1732.897" gradientTransform="matrix(1, 0, 0, -1, 564, 1824.1827)" gradientUnits="userSpaceOnUse">
      <stop offset="0" stop-color="#5e9624"/>
      <stop offset="0.241" stop-color="#6fb02a"/>
      <stop offset="0.501" stop-color="#7cc52f"/>
      <stop offset="0.756" stop-color="#83d232"/>
      <stop offset="1" stop-color="#86d633"/>
    </linearGradient>
    <linearGradient id="linear-gradient-18" x1="-646.366" y1="1156.7143" x2="-646.366" y2="1146.6352" gradientTransform="translate(991.126 -1051.758)" gradientUnits="userSpaceOnUse">
      <stop offset="0" stop-color="#005ba1"/>
      <stop offset="0.126" stop-color="#0f66ae"/>
      <stop offset="0.515" stop-color="#3a86d1"/>
      <stop offset="0.819" stop-color="#5499e7"/>
      <stop offset="1" stop-color="#5ea0ef"/>
    </linearGradient>
    <radialGradient id="radial-gradient-2" cx="162.2396" cy="118.6914" r="59.9357" gradientTransform="translate(-18.779 7.852) scale(1.1081 0.9524)" gradientUnits="userSpaceOnUse">
      <stop offset="0" stop-color="#6bb9f2"/>
      <stop offset="0.2" stop-color="#65b6f1"/>
      <stop offset="0.45" stop-color="#55aef0"/>
      <stop offset="0.74" stop-color="#3aa2ee"/>
      <stop offset="1" stop-color="#1b93eb"/>
    </radialGradient>
    <linearGradient id="linear-gradient-19" x1="162.2396" y1="1473.6914" x2="162.2396" y2="1443.6914" gradientTransform="matrix(1, 0, 0, -1, 0, 1590.1827)" gradientUnits="userSpaceOnUse">
      <stop offset="0" stop-color="#b3b2b4"/>
      <stop offset="0.38" stop-color="#b0aeaf"/>
      <stop offset="0.76" stop-color="#a2a1a1"/>
      <stop offset="1" stop-color="#979797"/>
    </linearGradient>
    <linearGradient id="linear-gradient-20" x1="71.0114" y1="1513.5733" x2="71.0114" y2="1530.8914" xlink:href="#linear-gradient-8"/>
    <linearGradient id="linear-gradient-21" x1="71.0114" y1="1506.8914" x2="71.0114" y2="1513.5733" xlink:href="#linear-gradient-9"/>
  </defs>
  <g id="Shapes">
    <rect width="652" height="210" fill="#fff"/>
    <g>
      <rect x="22.4" y="24.4973" width="624.8" height="180.5495" fill="#fff"/>
      <rect x="22.4" y="24.4973" width="624.8" height="180.5495" opacity="0.8" fill="url(#linear-gradient)"/>
    </g>
    <g>
      <rect x="409.6" y="46.6468" width="218.3473" height="127.6" rx="4" fill="#fff"/>
      <rect x="409.6" y="46.6468" width="218.3473" height="127.6" rx="4" fill="#505150" opacity="0.07"/>
      <rect x="409.6" y="46.6468" width="218.3473" height="127.6" rx="4" fill="none" stroke="#505150" opacity="0.15"/>
      <rect x="409.6" y="46.6468" width="218.3472" height="127.6" rx="4" fill="none" stroke="#505150" stroke-dasharray="0.7988 1.997" opacity="0.65"/>
    </g>
    <g>
      <circle cx="407.8" cy="174.0972" r="15" fill="#fff" opacity="0.8"/>
      <g>
        <circle cx="413.1125" cy="174.0842" r="1.6472" fill="url(#linear-gradient-2)"/>
        <circle cx="407.8586" cy="174.0984" r="1.6472" fill="url(#linear-gradient-3)"/>
        <circle cx="402.6047" cy="174.0984" r="1.6472" fill="url(#linear-gradient-4)"/>
        <path d="M403.8005,180.6837l-.9426.9451a.4259.4259,0,0,1-.6024.0008h0l-6.978-6.9585a.8519.8519,0,0,1-.0017-1.2049h0l.9425-.9452h0l7.5813,7.56a.4261.4261,0,0,1,.0009.6025Z" fill="#74cfeb"/>
        <path d="M402.7153,166.5842l.9452.9425a.426.426,0,0,1,.0008.6024l-7.45,7.4707h0l-.9451-.9425a.852.852,0,0,1-.0017-1.2049h0l6.8483-6.8674A.4259.4259,0,0,1,402.7153,166.5842Z" fill="#2f8dcc"/>
        <path d="M419.3841,172.5081l.9425.9452a.8518.8518,0,0,1-.0017,1.2048h0l-6.978,6.9586a.426.426,0,0,1-.6024-.0008h0l-.9426-.9452a.426.426,0,0,1,.0009-.6024h0l7.5813-7.56Z" fill="#74cfeb"/>
        <path d="M420.3237,174.648l-.9452.9425h0l-7.45-7.4707a.426.426,0,0,1,.0009-.6024h0l.9552-.9526a.426.426,0,0,1,.6024.0009h0l6.8483,6.8674a.852.852,0,0,1-.0017,1.2049h0Z" fill="#2f8dcc"/>
      </g>
    </g>
    <g>
      <rect x="431.184" y="76.4555" width="173.2473" height="80.1913" rx="4" fill="#fff"/>
      <rect x="431.184" y="76.4555" width="173.2473" height="80.1913" rx="4" opacity="0.05" fill="url(#linear-gradient-5)"/>
      <rect x="431.184" y="76.4555" width="173.2473" height="80.1913" rx="4" fill="none" stroke="#33bedd"/>
      <rect x="431.184" y="76.4555" width="173.2473" height="80.1913" rx="4" fill="none" stroke="#005ca1" stroke-dasharray="0.9979 1.9958"/>
    </g>
    <g>
      <polygon points="6.65 23.671 21.155 33.085 35.917 23.634 37.767 25.795 21.155 36.491 4.8 25.795 6.65 23.671" fill="#74cfeb"/>
      <polygon points="7.749 22.462 21.155 6.491 34.837 22.48 21.155 31.125 7.749 22.462" fill="#fff"/>
      <polygon points="21.155 6.491 21.155 31.125 7.749 22.462 21.155 6.491" fill="#74cfeb"/>
      <polygon points="21.155 6.491 21.155 31.125 34.837 22.48 21.155 6.491" fill="url(#linear-gradient-6)"/>
      <polygon points="21.155 19.22 34.837 22.48 21.155 31.125 21.155 19.22" fill="#53b0de"/>
      <polygon points="21.155 31.125 7.749 22.462 21.155 19.22 21.155 31.125" fill="#a5def3"/>
      <polygon points="21.155 36.491 37.767 25.795 35.917 23.634 21.155 33.085 21.155 36.491" fill="url(#linear-gradient-7)"/>
    </g>
    <g id="faeec9e4-44b9-413a-8332-867d334dcda2">
      <g>
        <circle cx="430.4" cy="77.5176" r="12" fill="url(#radial-gradient)"/>
        <circle cx="430.4" cy="77.5176" r="10.3355" fill="#005ba1"/>
      </g>
      <g>
        <path d="M430.5412,78.8405l-4.001-3.97a.7157.7157,0,0,0-1.0009,0l-.504.5011a.6622.6622,0,0,0-.2019.4758.6721.6721,0,0,0,.1991.4786l3.01,2.9958-3.0749,3.0536a.6678.6678,0,0,0-.01.9443l.01.01.51.5011a.7157.7157,0,0,0,1.0009,0l4.0631-4.0376a.6709.6709,0,0,0,.199-.4772A.66.66,0,0,0,430.5412,78.8405Z" fill="#f2f2f2"/>
        <path d="M430.0541,75.6513a.6707.6707,0,0,0,.1991.4772l4.0659,4.0362a.7157.7157,0,0,0,1.0009,0l.51-.5026a.6618.6618,0,0,0,.2019-.4758.6707.6707,0,0,0-.199-.4771l-3.0692-3.0523,3.01-2.9972a.6707.6707,0,0,0,.199-.4771.6621.6621,0,0,0-.2018-.4758l-.51-.5026a.7157.7157,0,0,0-1.0009,0l-4.001,3.97A.6665.6665,0,0,0,430.0541,75.6513Z" fill="#f2f2f2"/>
      </g>
    </g>
    <g>
      <g>
        <rect x="462.5173" y="93.3266" width="28.1419" height="18.7613" rx="0.9381" fill="url(#linear-gradient-8)"/>
        <polygon points="481.279 99.971 481.279 105.428 476.588 108.179 476.588 102.707 481.279 99.971" fill="#74cfeb"/>
        <polygon points="481.279 99.971 476.588 102.723 471.898 99.971 476.588 97.235 481.279 99.971" fill="#c6eaf8"/>
        <polygon points="476.588 102.723 476.588 108.179 471.898 105.428 471.898 99.971 476.588 102.723" fill="#a5def3"/>
        <polygon points="471.898 105.428 476.588 102.707 476.588 108.179 471.898 105.428" fill="#c6eaf8"/>
        <polygon points="481.279 105.428 476.588 102.707 476.588 108.179 481.279 105.428" fill="#a5def3"/>
        <path d="M482.2322,117.7632c-2.7829-.4378-2.8923-2.439-2.8923-5.6753h-5.519c0,3.2363-.0938,5.2375-2.8767,5.6753a1.5635,1.5635,0,0,0-1.3915,1.5634h14.071A1.5634,1.5634,0,0,0,482.2322,117.7632Z" fill="url(#linear-gradient-9)"/>
      </g>
      <g>
        <rect x="503.7366" y="93.3266" width="28.1419" height="18.7613" rx="0.9381" fill="url(#linear-gradient-10)"/>
        <polygon points="522.498 99.971 522.498 105.428 517.808 108.179 517.808 102.707 522.498 99.971" fill="#74cfeb"/>
        <polygon points="522.498 99.971 517.808 102.723 513.117 99.971 517.808 97.235 522.498 99.971" fill="#c6eaf8"/>
        <polygon points="517.808 102.723 517.808 108.179 513.117 105.428 513.117 99.971 517.808 102.723" fill="#a5def3"/>
        <polygon points="513.117 105.428 517.808 102.707 517.808 108.179 513.117 105.428" fill="#c6eaf8"/>
        <polygon points="522.498 105.428 517.808 102.707 517.808 108.179 522.498 105.428" fill="#a5def3"/>
        <path d="M523.4516,117.7632c-2.7829-.4378-2.8924-2.439-2.8924-5.6753H515.04c0,3.2363-.0938,5.2375-2.8767,5.6753a1.5634,1.5634,0,0,0-1.3915,1.5634h14.071A1.5635,1.5635,0,0,0,523.4516,117.7632Z" fill="url(#linear-gradient-11)"/>
      </g>
      <g>
        <rect x="544.956" y="93.3266" width="28.1419" height="18.7613" rx="0.9381" fill="url(#linear-gradient-12)"/>
        <polygon points="563.717 99.971 563.717 105.428 559.027 108.179 559.027 102.707 563.717 99.971" fill="#74cfeb"/>
        <polygon points="563.717 99.971 559.027 102.723 554.337 99.971 559.027 97.235 563.717 99.971" fill="#c6eaf8"/>
        <polygon points="559.027 102.723 559.027 108.179 554.337 105.428 554.337 99.971 559.027 102.723" fill="#a5def3"/>
        <polygon points="554.337 105.428 559.027 102.707 559.027 108.179 554.337 105.428" fill="#c6eaf8"/>
        <polygon points="563.717 105.428 559.027 102.707 559.027 108.179 563.717 105.428" fill="#a5def3"/>
        <path d="M564.671,117.7632c-2.783-.4378-2.8924-2.439-2.8924-5.6753H556.26c0,3.2363-.0939,5.2375-2.8768,5.6753a1.5633,1.5633,0,0,0-1.3914,1.5634h14.0709A1.5634,1.5634,0,0,0,564.671,117.7632Z" fill="url(#linear-gradient-13)"/>
      </g>
    </g>
    <g>
      <rect x="50.4527" y="46.6468" width="218.3473" height="127.6" rx="4" fill="#fff"/>
      <rect x="50.4527" y="46.6468" width="218.3473" height="127.6" rx="4" fill="#505150" opacity="0.07"/>
      <rect x="50.4527" y="46.6468" width="218.3473" height="127.6" rx="4" fill="none" stroke="#505150" opacity="0.15"/>
      <rect x="50.4527" y="46.6468" width="218.3473" height="127.6" rx="4" fill="none" stroke="#505150" stroke-dasharray="0.7988 1.997" opacity="0.65"/>
    </g>
    <g>
      <circle cx="48.6527" cy="174.0972" r="15" fill="#fff" opacity="0.8"/>
      <g>
        <circle cx="53.9653" cy="174.0842" r="1.6472" fill="url(#linear-gradient-14)"/>
        <circle cx="48.7113" cy="174.0984" r="1.6472" fill="url(#linear-gradient-15)"/>
        <circle cx="43.4574" cy="174.0984" r="1.6472" fill="url(#linear-gradient-16)"/>
        <path d="M44.6532,180.6837l-.9425.9451a.426.426,0,0,1-.6025.0008h0l-6.978-6.9585a.852.852,0,0,1-.0017-1.2049h0l.9426-.9452h0l7.5813,7.56a.4261.4261,0,0,1,.0008.6025Z" fill="#74cfeb"/>
        <path d="M43.5681,166.5842l.9451.9425a.426.426,0,0,1,.0009.6024l-7.45,7.4707h0l-.9452-.9425a.8519.8519,0,0,1-.0016-1.2049h0l6.8482-6.8674A.426.426,0,0,1,43.5681,166.5842Z" fill="#2f8dcc"/>
        <path d="M60.2368,172.5081l.9425.9452a.8518.8518,0,0,1-.0016,1.2048h0L54.2,181.6167a.4261.4261,0,0,1-.6025-.0008h0l-.9425-.9452a.426.426,0,0,1,.0008-.6024h0l7.5813-7.56Z" fill="#74cfeb"/>
        <path d="M61.1764,174.648l-.9452.9425h0l-7.45-7.4707a.426.426,0,0,1,.0008-.6024h0l.9552-.9526a.4261.4261,0,0,1,.6025.0009h0l6.8482,6.8674a.852.852,0,0,1-.0016,1.2049h0Z" fill="#2f8dcc"/>
      </g>
    </g>
    <g>
      <line x1="268.8" y1="94.8972" x2="404.2178" y2="94.8972" fill="none" stroke="#3c3c41" stroke-miterlimit="10"/>
      <polygon points="403.124 98.637 409.6 94.897 403.124 91.157 403.124 98.637" fill="#3c3c41"/>
    </g>
    <g>
      <circle cx="339.2" cy="95.4563" r="15" fill="#fff" opacity="0.8"/>
      <g id="f953c7e2-7618-4315-ace5-730ec480d707">
        <g>
          <path d="M345.3831,92.7445a1.4555,1.4555,0,1,1,0-.0067Zm-6.1413-1.4521a1.4615,1.4615,0,1,0,1.4628,1.46v-.0013A1.4614,1.4614,0,0,0,339.2418,91.2924Zm-4.6719,0a1.4621,1.4621,0,1,1,0,.0067Z" fill="url(#linear-gradient-17)"/>
          <path d="M335.6422,98.6078l-.8384.8408a.38.38,0,0,1-.5371.0007l-6.2025-6.185a.76.76,0,0,1-.0016-1.0741l.8384-.8408h0l6.74,6.7214A.38.38,0,0,1,335.6422,98.6078Z" fill="#50e6ff"/>
          <path d="M334.68,86.067l.84.8374a.38.38,0,0,1,.0008.5371h0l-6.6231,6.6419h0l-.837-.8346a.76.76,0,0,1-.0015-1.0741l6.0868-6.1041a.38.38,0,0,1,.5371-.0008Z" fill="#1490df"/>
          <path d="M349.4964,91.3511l.8384.8408a.7594.7594,0,0,1-.0015,1.074l-6.2026,6.1851a.38.38,0,0,1-.537-.0008h0l-.8384-.8407a.38.38,0,0,1,.0007-.5371h0l6.74-6.7213Z" fill="#50e6ff"/>
          <path d="M350.3409,93.2451l-.8408.8384h0l-6.6231-6.6419a.38.38,0,0,1,.0007-.537h0l.84-.8375a.38.38,0,0,1,.5371.0008h0l6.0868,6.1041a.7594.7594,0,0,1-.0015,1.074Z" fill="#1490df"/>
          <circle cx="344.76" cy="99.9167" r="5.0396" fill="url(#linear-gradient-18)"/>
          <path d="M344.2653,97.2759h-1.4976a1.872,1.872,0,0,0-.29,3.7092,1.9912,1.9912,0,0,1,.0227-.6953,1.1754,1.1754,0,0,1,.2674-2.3293h1.4936a1.1834,1.1834,0,0,1,0,2.3654h-.4145a.8836.8836,0,0,0-.0829.3744.8515.8515,0,0,0,.0588.31h.4386a1.872,1.872,0,0,0,.0775-3.7346Z" fill="#fff"/>
          <path d="M346.7964,98.8564a2.2856,2.2856,0,0,1,.0214.2875,1.9077,1.9077,0,0,1-.0414.4078,1.1739,1.1739,0,0,1-.2674,2.3265H345.01a1.1833,1.1833,0,0,1,0-2.364h.4118a.8757.8757,0,0,0,.0227-.6846h-.4319a1.872,1.872,0,0,0,0,3.7346h1.4963a1.872,1.872,0,0,0,.29-3.71Z" fill="#fff"/>
        </g>
      </g>
    </g>
    <g>
      <rect x="70.8" y="76.8914" width="180.4" height="88" fill="#fff"/>
      <rect x="70.8" y="76.8914" width="180.4" height="88" opacity="0.7" fill="url(#radial-gradient-2)"/>
    </g>
    <g>
      <rect x="95.6923" y="85.6914" width="133.0945" height="70.4" fill="#fff"/>
      <rect x="95.6923" y="85.6914" width="133.0945" height="70.4" fill="#505150" opacity="0.15"/>
    </g>
    <g>
      <path d="M171.9791,145.4718a1.0811,1.0811,0,0,1-1.1226,1.0187H153.6226a1.0811,1.0811,0,0,1-1.1226-1.0187V117.5109a1.0811,1.0811,0,0,1,1.1226-1.0187h17.2339a1.0811,1.0811,0,0,1,1.1226,1.0187Z" fill="url(#linear-gradient-19)"/>
      <path d="M155.3689,129.3189a2.2452,2.2452,0,0,1,2.0788-2.3491h9.7292a2.2452,2.2452,0,0,1,2.0789,2.3491h0a2.2245,2.2245,0,0,1-2.0023,2.4263q-.0382.0037-.0766.006h-9.6876a2.2244,2.2244,0,0,1-2.0789-2.3283Z" fill="#1e3465"/>
      <path d="M155.3689,122.3755a2.2244,2.2244,0,0,1,2.0788-2.3284h9.7292a2.2245,2.2245,0,0,1,2.0789,2.3284h0a2.2452,2.2452,0,0,1-2.0789,2.3491h-9.6876a2.2452,2.2452,0,0,1-2.0789-2.3491Z" fill="#1e3465"/>
      <circle cx="158.0922" cy="122.3755" r="1.5592" fill="#74cfeb"/>
      <circle cx="158.0922" cy="129.3189" r="1.5592" fill="#74cfeb"/>
    </g>
    <g>
      <rect x="58.0229" y="59.2914" width="25.9771" height="17.3181" rx="0.8659" fill="url(#linear-gradient-20)"/>
      <polygon points="75.341 65.425 75.341 70.462 71.011 73.002 71.011 67.95 75.341 65.425" fill="#74cfeb"/>
      <polygon points="75.341 65.425 71.011 67.965 66.682 65.425 71.011 62.899 75.341 65.425" fill="#c6eaf8"/>
      <polygon points="71.011 67.965 71.011 73.002 66.682 70.462 66.682 65.425 71.011 67.965" fill="#a5def3"/>
      <polygon points="66.682 70.462 71.011 67.95 71.011 73.002 66.682 70.462" fill="#c6eaf8"/>
      <polygon points="75.341 70.462 71.011 67.95 71.011 73.002 75.341 70.462" fill="#a5def3"/>
      <path d="M76.2213,81.8482c-2.5689-.4041-2.67-2.2514-2.67-5.2387H68.457c0,2.9873-.0866,4.8346-2.6554,5.2387a1.4433,1.4433,0,0,0-1.2845,1.4432H77.5057A1.4431,1.4431,0,0,0,76.2213,81.8482Z" fill="url(#linear-gradient-21)"/>
    </g>
  </g>
  <g id="Text">
    <g>
      <path d="M435.7729,181.8946l-3.63,9.8027h-1.2647l-3.5547-9.8027h1.2784l2.7138,7.7724a4.614,4.614,0,0,1,.1983.8682h.0273a4.2122,4.2122,0,0,1,.2256-.8818l2.7685-7.7588Z" fill="#2f2f2f"/>
      <path d="M437.685,182.92a.7115.7115,0,0,1-.5127-.2051.6912.6912,0,0,1-.2119-.5195.7179.7179,0,0,1,.7246-.7315.7263.7263,0,0,1,.5234.2085.7316.7316,0,0,1,0,1.0357A.7212.7212,0,0,1,437.685,182.92Zm.5468,8.7773h-1.1211v-7h1.1211Z" fill="#2f2f2f"/>
      <path d="M444,185.8321a1.3715,1.3715,0,0,0-.8477-.2256,1.4286,1.4286,0,0,0-1.1992.6768,3.1221,3.1221,0,0,0-.4824,1.8457v3.5683H440.35v-7h1.1211V186.14h.0273a2.4432,2.4432,0,0,1,.7315-1.1519,1.668,1.668,0,0,1,1.1006-.4135,1.8259,1.8259,0,0,1,.67.0957Z" fill="#2f2f2f"/>
      <path d="M448.9193,191.629a2.161,2.161,0,0,1-1.0459.2187q-1.8383,0-1.8388-2.0508v-4.1426h-1.2032v-.957h1.2032v-1.709l1.1211-.3623v2.0713h1.7636v.957h-1.7636v3.9444a1.6381,1.6381,0,0,0,.2392,1.0049.9539.9539,0,0,0,.793.3007,1.18,1.18,0,0,0,.7314-.2324Z" fill="#2f2f2f"/>
      <path d="M456.0375,191.6973h-1.1211V190.59h-.0273a2.3019,2.3019,0,0,1-2.16,1.2715q-2.502,0-2.5019-2.9805v-4.1836h1.1142v4.0059q0,2.2147,1.6953,2.2148a1.7162,1.7162,0,0,0,1.3506-.605,2.3175,2.3175,0,0,0,.5293-1.5825v-4.0332h1.1211Z" fill="#2f2f2f"/>
      <path d="M463.1928,191.6973h-1.1211v-1.0937h-.0274a2.3467,2.3467,0,0,1-2.1533,1.2578,2.2992,2.2992,0,0,1-1.6367-.5537,1.9176,1.9176,0,0,1-.5918-1.47q0-1.9622,2.31-2.2832l2.0987-.2939q0-1.7842-1.4424-1.7842a3.446,3.446,0,0,0-2.2832.8613V185.19a4.34,4.34,0,0,1,2.3789-.6562q2.4682,0,2.4678,2.6113Zm-1.1211-3.541-1.6885.2324a2.7414,2.7414,0,0,0-1.1758.3863,1.1132,1.1132,0,0,0-.3965.9809,1.07,1.07,0,0,0,.3653.8374,1.4163,1.4163,0,0,0,.9746.3247,1.7972,1.7972,0,0,0,1.3769-.5845,2.0838,2.0838,0,0,0,.544-1.48Z" fill="#2f2f2f"/>
      <path d="M466.3344,191.6973h-1.1211V181.334h1.1211Z" fill="#2f2f2f"/>
      <path d="M480.4916,191.6973h-1.4082l-5.0449-7.8135a3.2346,3.2346,0,0,1-.3145-.6152h-.041a10.1568,10.1568,0,0,1,.0547,1.3467v7.082h-1.1484v-9.8027h1.49l4.9082,7.69q.3076.4783.3965.6563h.0273a10.3229,10.3229,0,0,1-.0683-1.4424v-6.9043h1.1484Z" fill="#2f2f2f"/>
      <path d="M488.47,188.4776h-4.9424a2.6187,2.6187,0,0,0,.6289,1.8047,2.1683,2.1683,0,0,0,1.6543.6357,3.4406,3.4406,0,0,0,2.1739-.7793v1.0528a4.0624,4.0624,0,0,1-2.44.67,2.9587,2.9587,0,0,1-2.331-.9536,3.9021,3.9021,0,0,1-.8477-2.6831,3.8288,3.8288,0,0,1,.9258-2.6626,2.9713,2.9713,0,0,1,2.3008-1.0288,2.6318,2.6318,0,0,1,2.126.8886,3.7072,3.7072,0,0,1,.7519,2.4678Zm-1.1484-.95a2.288,2.288,0,0,0-.4678-1.5107,1.5982,1.5982,0,0,0-1.2822-.54,1.811,1.811,0,0,0-1.3467.5674,2.5771,2.5771,0,0,0-.6836,1.4834Z" fill="#2f2f2f"/>
      <path d="M493.3939,191.629a2.161,2.161,0,0,1-1.0459.2187q-1.8383,0-1.8388-2.0508v-4.1426h-1.2031v-.957h1.2031v-1.709l1.1211-.3623v2.0713h1.7636v.957H491.63v3.9444a1.6388,1.6388,0,0,0,.2392,1.0049.9539.9539,0,0,0,.793.3007,1.18,1.18,0,0,0,.7314-.2324Z" fill="#2f2f2f"/>
      <path d="M504.0844,184.6973l-2.0987,7h-1.1621l-1.4423-5.0107a3.2818,3.2818,0,0,1-.1094-.6494h-.0274a3.0632,3.0632,0,0,1-.1435.6357l-1.5655,5.0244h-1.121l-2.1192-7h1.1758l1.4492,5.2637a3.1686,3.1686,0,0,1,.0957.6289h.0547a2.9408,2.9408,0,0,1,.1231-.6426l1.6132-5.25h1.0254l1.4492,5.2774a3.7033,3.7033,0,0,1,.1026.6289h.0547a2.8883,2.8883,0,0,1,.1162-.6289l1.4219-5.2774Z" fill="#2f2f2f"/>
      <path d="M508.16,191.8614a3.25,3.25,0,0,1-2.4785-.981,3.6343,3.6343,0,0,1-.9258-2.6011,3.7851,3.7851,0,0,1,.9638-2.7548,3.4657,3.4657,0,0,1,2.6045-.9912,3.137,3.137,0,0,1,2.4434.9638,3.821,3.821,0,0,1,.8789,2.6729,3.7578,3.7578,0,0,1-.9473,2.6831A3.3159,3.3159,0,0,1,508.16,191.8614Zm.082-6.3848a2.1329,2.1329,0,0,0-1.709.7349,3.02,3.02,0,0,0-.6289,2.0268A2.8536,2.8536,0,0,0,506.54,190.2a2.16,2.16,0,0,0,1.7021.7178,2.0521,2.0521,0,0,0,1.6719-.7041,3.0612,3.0612,0,0,0,.584-2.0029,3.114,3.114,0,0,0-.584-2.0234A2.0421,2.0421,0,0,0,508.2416,185.4766Z" fill="#2f2f2f"/>
      <path d="M517.0121,185.8321a1.3714,1.3714,0,0,0-.8476-.2256,1.4286,1.4286,0,0,0-1.1993.6768,3.1221,3.1221,0,0,0-.4824,1.8457v3.5683h-1.1211v-7h1.1211V186.14h.0274a2.4423,2.4423,0,0,1,.7314-1.1519,1.668,1.668,0,0,1,1.1006-.4135,1.8259,1.8259,0,0,1,.67.0957Z" fill="#2f2f2f"/>
      <path d="M524.0658,191.6973h-1.5722l-3.09-3.3633h-.0273v3.3633h-1.1211V181.334h1.1211v6.5694h.0273l2.94-3.2061h1.47l-3.2471,3.377Z" fill="#2f2f2f"/>
    </g>
    <g>
      <path d="M51.9076,16.8545H49.5014l-.6973-2.1806H45.3178l-.6905,2.1806H42.2348l3.5683-9.8027h2.6182Zm-3.6094-3.8759-1.0527-3.295a4.3446,4.3446,0,0,1-.1641-.8818h-.0546a3.7439,3.7439,0,0,1-.1709.8545L45.79,12.9786Z" fill="#2f2f2f"/>
      <path d="M58.8129,16.8545H52.5307V15.959l3.5136-4.5117h-3.165V9.8545h5.9062V10.921l-3.3291,4.3408h3.3565Z" fill="#2f2f2f"/>
      <path d="M66.6957,16.8545H64.5424V15.7881h-.0342a2.4428,2.4428,0,0,1-2.14,1.2373q-2.4332,0-2.4336-2.9462V9.8545h2.1533v4.0332q0,1.4832,1.1758,1.4834a1.1631,1.1631,0,0,0,.93-.4067,1.64,1.64,0,0,0,.3486-1.104V9.8545h2.1533Z" fill="#2f2f2f"/>
      <path d="M73.03,11.8028a1.875,1.875,0,0,0-.9092-.2119,1.3093,1.3093,0,0,0-1.1006.5161,2.25,2.25,0,0,0-.3965,1.4048v3.3427h-2.16v-7h2.16v1.2989h.0274a1.8688,1.8688,0,0,1,1.8457-1.4219,1.3932,1.3932,0,0,1,.5332.082Z" fill="#2f2f2f"/>
      <path d="M80.4018,13.97H75.8354q.11,1.5242,1.9209,1.5244a3.7466,3.7466,0,0,0,2.03-.5469v1.5586a5.3371,5.3371,0,0,1-2.5224.52,3.5516,3.5516,0,0,1-2.6319-.94,3.5524,3.5524,0,0,1-.9365-2.6216,3.745,3.745,0,0,1,1.0117-2.7617,3.37,3.37,0,0,1,2.4883-1.0186,3.0618,3.0618,0,0,1,2.3691.9092,3.5035,3.5035,0,0,1,.837,2.4678Zm-2.003-1.3262q0-1.5036-1.2168-1.5039a1.1589,1.1589,0,0,0-.8984.4307,1.9487,1.9487,0,0,0-.4619,1.0732Z" fill="#2f2f2f"/>
      <path d="M94.3813,16.8545H91.975l-.6973-2.1806H87.7914l-.69,2.1806H84.7084l3.5684-9.8027h2.6181Zm-3.6094-3.8759-1.0528-3.295a4.3382,4.3382,0,0,1-.164-.8818H89.5a3.7439,3.7439,0,0,1-.1709.8545l-1.0664,3.3223Z" fill="#2f2f2f"/>
      <path d="M100.516,16.6016a4.2679,4.2679,0,0,1-2.1123.4238,3.5713,3.5713,0,0,1-2.6113-.9775,3.3779,3.3779,0,0,1-.9981-2.5225,3.7174,3.7174,0,0,1,1.07-2.8129,3.9507,3.9507,0,0,1,2.86-1.0289,3.6691,3.6691,0,0,1,1.791.3282v1.832a2.4623,2.4623,0,0,0-1.5107-.5059,1.9875,1.9875,0,0,0-1.4727.5435,2.0238,2.0238,0,0,0-.5439,1.5005,1.9936,1.9936,0,0,0,.52,1.46,1.91,1.91,0,0,0,1.4287.53,2.848,2.848,0,0,0,1.5791-.5058Z" fill="#2f2f2f"/>
      <path d="M106.2475,16.7725a3.1958,3.1958,0,0,1-1.4424.2529q-2.2837,0-2.2832-2.372V11.4473h-1.1348V9.8545h1.1348V8.3438l2.1533-.6152V9.8545h1.5723v1.5928h-1.5723v2.83q0,1.0935.8682,1.0937a1.4621,1.4621,0,0,0,.7041-.1982Z" fill="#2f2f2f"/>
      <path d="M108.6254,8.7471a1.2628,1.2628,0,0,1-.8955-.3247,1.0459,1.0459,0,0,1-.3486-.7964,1.0086,1.0086,0,0,1,.3486-.7929,1.4626,1.4626,0,0,1,1.7949,0,1.0147,1.0147,0,0,1,.3447.7929,1.0436,1.0436,0,0,1-.3447.8067A1.2861,1.2861,0,0,1,108.6254,8.7471Zm1.0664,8.1074h-2.16v-7h2.16Z" fill="#2f2f2f"/>
      <path d="M118.1967,9.8545l-2.6045,7h-2.4609l-2.4815-7H112.96l1.2167,4.3135a6.2759,6.2759,0,0,1,.2393,1.2442h.0274a7.0888,7.0888,0,0,1,.2529-1.2032l1.2441-4.3545Z" fill="#2f2f2f"/>
      <path d="M125.184,13.97h-4.5664q.11,1.5242,1.9209,1.5244a3.7471,3.7471,0,0,0,2.03-.5469v1.5586a5.3375,5.3375,0,0,1-2.5225.52,3.5512,3.5512,0,0,1-2.6318-.94,3.5521,3.5521,0,0,1-.9366-2.6216,3.745,3.745,0,0,1,1.0117-2.7617,3.3708,3.3708,0,0,1,2.4883-1.0186,3.0622,3.0622,0,0,1,2.3692.9092,3.5039,3.5039,0,0,1,.8369,2.4678Zm-2.0029-1.3262q0-1.5036-1.2168-1.5039a1.1591,1.1591,0,0,0-.8985.4307,1.9487,1.9487,0,0,0-.4619,1.0732Z" fill="#2f2f2f"/>
      <path d="M130.5434,16.8545V7.0518h3.4726q5.2223,0,5.2227,4.7783a4.8286,4.8286,0,0,1-1.4258,3.6573,5.2528,5.2528,0,0,1-3.7969,1.3671Zm2.208-8.0048v6.2138h1.0937a2.9571,2.9571,0,0,0,2.2529-.8613,3.2707,3.2707,0,0,0,.8165-2.3447,2.9617,2.9617,0,0,0-.8106-2.2046,3.0843,3.0843,0,0,0-2.2725-.8032Z" fill="#2f2f2f"/>
      <path d="M141.7367,8.7471a1.263,1.263,0,0,1-.8955-.3247,1.0459,1.0459,0,0,1-.3486-.7964,1.0086,1.0086,0,0,1,.3486-.7929,1.4626,1.4626,0,0,1,1.7949,0,1.0148,1.0148,0,0,1,.3448.7929,1.0437,1.0437,0,0,1-.3448.8067A1.2857,1.2857,0,0,1,141.7367,8.7471Zm1.0664,8.1074h-2.16v-7h2.16Z" fill="#2f2f2f"/>
      <path d="M149.1518,11.8028a1.875,1.875,0,0,0-.9092-.2119,1.3092,1.3092,0,0,0-1.1006.5161,2.25,2.25,0,0,0-.3965,1.4048v3.3427h-2.16v-7h2.16v1.2989h.0274a1.8688,1.8688,0,0,1,1.8457-1.4219,1.3935,1.3935,0,0,1,.5332.082Z" fill="#2f2f2f"/>
      <path d="M156.5238,13.97h-4.5664q.11,1.5242,1.9209,1.5244a3.7469,3.7469,0,0,0,2.03-.5469v1.5586a5.3375,5.3375,0,0,1-2.5225.52,3.5513,3.5513,0,0,1-2.6318-.94,3.5524,3.5524,0,0,1-.9365-2.6216,3.745,3.745,0,0,1,1.0117-2.7617,3.37,3.37,0,0,1,2.4883-1.0186,3.062,3.062,0,0,1,2.3691.9092,3.5039,3.5039,0,0,1,.8369,2.4678Zm-2.0029-1.3262q0-1.5036-1.2168-1.5039a1.1588,1.1588,0,0,0-.8984.4307,1.948,1.948,0,0,0-.4619,1.0732Z" fill="#2f2f2f"/>
      <path d="M163.1918,16.6016a4.2679,4.2679,0,0,1-2.1123.4238,3.5713,3.5713,0,0,1-2.6113-.9775,3.3779,3.3779,0,0,1-.9981-2.5225,3.7174,3.7174,0,0,1,1.07-2.8129,3.9505,3.9505,0,0,1,2.86-1.0289,3.6691,3.6691,0,0,1,1.791.3282v1.832a2.4623,2.4623,0,0,0-1.5107-.5059,1.9874,1.9874,0,0,0-1.4727.5435,2.0238,2.0238,0,0,0-.5439,1.5005,1.9936,1.9936,0,0,0,.5195,1.46,1.91,1.91,0,0,0,1.4287.53,2.8482,2.8482,0,0,0,1.5791-.5058Z" fill="#2f2f2f"/>
      <path d="M168.9242,16.7725a3.1955,3.1955,0,0,1-1.4424.2529q-2.2836,0-2.2832-2.372V11.4473h-1.1347V9.8545h1.1347V8.3438l2.1534-.6152V9.8545h1.5722v1.5928H167.352v2.83q0,1.0935.8681,1.0937a1.4618,1.4618,0,0,0,.7041-.1982Z" fill="#2f2f2f"/>
      <path d="M173.4574,17.0254a3.7609,3.7609,0,0,1-2.751-.9809,3.5554,3.5554,0,0,1-1.0019-2.6626,3.5572,3.5572,0,0,1,1.0391-2.7173,3.9256,3.9256,0,0,1,2.81-.981,3.7188,3.7188,0,0,1,2.7344.981,3.4853,3.4853,0,0,1,.9912,2.5942,3.7031,3.7031,0,0,1-1.0215,2.7549A3.8074,3.8074,0,0,1,173.4574,17.0254Zm.0547-5.6875a1.4394,1.4394,0,0,0-1.1894.5264,2.323,2.323,0,0,0-.4239,1.49q0,2.0165,1.627,2.0166,1.5513,0,1.5517-2.0712Q175.0775,11.3378,173.5121,11.3379Z" fill="#2f2f2f"/>
      <path d="M183.226,11.8028a1.875,1.875,0,0,0-.9092-.2119,1.3093,1.3093,0,0,0-1.1006.5161,2.25,2.25,0,0,0-.3965,1.4048v3.3427h-2.16v-7h2.16v1.2989h.0274a1.8688,1.8688,0,0,1,1.8457-1.4219,1.3935,1.3935,0,0,1,.5332.082Z" fill="#2f2f2f"/>
      <path d="M191.3461,9.8545l-2.8438,7.5606q-1.0252,2.7276-3.09,2.7275a3.9531,3.9531,0,0,1-1.292-.1777V18.2422a1.8187,1.8187,0,0,0,.9365.253,1.17,1.17,0,0,0,1.1621-.7862l.3692-.8681-2.8438-6.9864h2.3926l1.3057,4.2588a5.5708,5.5708,0,0,1,.1914.9366h.0273a6.5354,6.5354,0,0,1,.2256-.9229l1.3193-4.2725Z" fill="#2f2f2f"/>
    </g>
    <g>
      <path d="M299.2436,125.3287v3.705h-1.149V119.231h2.6939a3.5592,3.5592,0,0,1,2.4375.7656,2.7345,2.7345,0,0,1,.8642,2.16,2.9727,2.9727,0,0,1-.96,2.2832,3.673,3.673,0,0,1-2.5948.8887Zm0-5.0586V124.29h1.2031a2.6863,2.6863,0,0,0,1.8144-.5435,1.9213,1.9213,0,0,0,.626-1.5346q0-1.9417-2.2969-1.9414Z" fill="#2f2f2f"/>
      <path d="M311.1264,125.814H306.184a2.6177,2.6177,0,0,0,.6289,1.8047,2.1681,2.1681,0,0,0,1.6543.6357,3.44,3.44,0,0,0,2.1738-.7793v1.0528a4.0614,4.0614,0,0,1-2.44.67,2.9589,2.9589,0,0,1-2.3311-.9536,3.9019,3.9019,0,0,1-.8476-2.6831,3.8288,3.8288,0,0,1,.9258-2.6626,2.9713,2.9713,0,0,1,2.3007-1.0288,2.6317,2.6317,0,0,1,2.126.8887,3.7062,3.7062,0,0,1,.752,2.4677Zm-1.1485-.95a2.2879,2.2879,0,0,0-.4677-1.5107,1.5984,1.5984,0,0,0-1.2823-.54,1.8107,1.8107,0,0,0-1.3466.5674,2.5765,2.5765,0,0,0-.6836,1.4834Z" fill="#2f2f2f"/>
      <path d="M318.4779,125.814h-4.9424a2.6183,2.6183,0,0,0,.629,1.8047,2.168,2.168,0,0,0,1.6543.6357,3.4406,3.4406,0,0,0,2.1738-.7793v1.0528a4.0617,4.0617,0,0,1-2.44.67,2.9587,2.9587,0,0,1-2.331-.9536,3.902,3.902,0,0,1-.8477-2.6831,3.8288,3.8288,0,0,1,.9258-2.6626A2.9716,2.9716,0,0,1,315.6,121.87a2.6318,2.6318,0,0,1,2.126.8887,3.7062,3.7062,0,0,1,.7519,2.4677Zm-1.1484-.95a2.2874,2.2874,0,0,0-.4678-1.5107,1.5982,1.5982,0,0,0-1.2822-.54,1.8111,1.8111,0,0,0-1.3467.5674,2.5771,2.5771,0,0,0-.6836,1.4834Z" fill="#2f2f2f"/>
      <path d="M323.8109,123.1685a1.3714,1.3714,0,0,0-.8476-.2256,1.4286,1.4286,0,0,0-1.1992.6768,3.1216,3.1216,0,0,0-.4825,1.8457v3.5683h-1.1211v-7h1.1211v1.4424h.0274a2.4423,2.4423,0,0,1,.7314-1.1518,1.6678,1.6678,0,0,1,1.1006-.4136,1.8256,1.8256,0,0,1,.67.0957Z" fill="#2f2f2f"/>
      <path d="M330.6537,125.814h-4.9424a2.6187,2.6187,0,0,0,.6289,1.8047,2.1683,2.1683,0,0,0,1.6543.6357,3.4406,3.4406,0,0,0,2.1739-.7793v1.0528a4.0619,4.0619,0,0,1-2.4405.67,2.9587,2.9587,0,0,1-2.331-.9536,3.9015,3.9015,0,0,1-.8477-2.6831,3.8288,3.8288,0,0,1,.9258-2.6626,2.9716,2.9716,0,0,1,2.3008-1.0288,2.6318,2.6318,0,0,1,2.126.8887,3.7067,3.7067,0,0,1,.7519,2.4677Zm-1.1484-.95a2.288,2.288,0,0,0-.4678-1.5107,1.5983,1.5983,0,0,0-1.2822-.54,1.811,1.811,0,0,0-1.3467.5674,2.5771,2.5771,0,0,0-.6836,1.4834Z" fill="#2f2f2f"/>
      <path d="M338.3852,129.0337h-1.1211v-1.1894h-.0274a2.5877,2.5877,0,0,1-2.4062,1.3535,2.617,2.617,0,0,1-2.1094-.94,3.8609,3.8609,0,0,1-.7891-2.56,4.1963,4.1963,0,0,1,.875-2.7822,2.8855,2.8855,0,0,1,2.3311-1.0459,2.2439,2.2439,0,0,1,2.0986,1.1347h.0274v-4.3339h1.1211Zm-1.1211-3.165v-1.0322a2.002,2.002,0,0,0-.5606-1.4356,1.88,1.88,0,0,0-1.4219-.5879,1.9348,1.9348,0,0,0-1.6132.752,3.2971,3.2971,0,0,0-.5879,2.0781,2.9587,2.9587,0,0,0,.5644,1.9107,1.84,1.84,0,0,0,1.5137.7006,1.9174,1.9174,0,0,0,1.5215-.6767A2.5261,2.5261,0,0,0,337.2641,125.8687Z" fill="#2f2f2f"/>
      <path d="M349.9926,122.0337l-2.7891,7h-1.1006l-2.6523-7h1.2305l1.7773,5.086a4.6044,4.6044,0,0,1,.2461.9775h.0273a4.621,4.621,0,0,1,.2188-.95l1.8594-5.1133Z" fill="#2f2f2f"/>
      <path d="M351.808,120.2564a.7115.7115,0,0,1-.5127-.2051.6911.6911,0,0,1-.2119-.5195.7179.7179,0,0,1,.7246-.7315.7261.7261,0,0,1,.5234.2085.7313.7313,0,0,1,0,1.0357A.721.721,0,0,1,351.808,120.2564Zm.5469,8.7773h-1.1211v-7h1.1211Z" fill="#2f2f2f"/>
      <path d="M358.1234,123.1685a1.3714,1.3714,0,0,0-.8476-.2256,1.4286,1.4286,0,0,0-1.1992.6768,3.1216,3.1216,0,0,0-.4825,1.8457v3.5683H354.473v-7h1.1211v1.4424h.0274a2.4423,2.4423,0,0,1,.7314-1.1518,1.6678,1.6678,0,0,1,1.1006-.4136,1.8256,1.8256,0,0,1,.67.0957Z" fill="#2f2f2f"/>
      <path d="M363.0424,128.9654a2.1615,2.1615,0,0,1-1.0459.2187q-1.8384,0-1.8389-2.0507v-4.1426h-1.2031v-.9571h1.2031v-1.7089l1.1211-.3623v2.0712h1.7637v.9571h-1.7637v3.9443a1.638,1.638,0,0,0,.2393,1.0049.9536.9536,0,0,0,.7929.3008,1.1809,1.1809,0,0,0,.7315-.2324Z" fill="#2f2f2f"/>
      <path d="M370.1605,129.0337H369.04v-1.1074h-.0274a2.3018,2.3018,0,0,1-2.16,1.2715q-2.502,0-2.502-2.9805v-4.1836h1.1143V126.04q0,2.2149,1.6953,2.2148a1.7167,1.7167,0,0,0,1.3506-.6049,2.3179,2.3179,0,0,0,.5293-1.5826v-4.0332h1.121Z" fill="#2f2f2f"/>
      <path d="M377.3158,129.0337h-1.1211V127.94h-.0273a2.3466,2.3466,0,0,1-2.1533,1.2578,2.2993,2.2993,0,0,1-1.6368-.5537,1.9174,1.9174,0,0,1-.5918-1.47q0-1.9622,2.3106-2.2832l2.0986-.294q0-1.7841-1.4424-1.7842a3.446,3.446,0,0,0-2.2832.8614v-1.1485a4.34,4.34,0,0,1,2.3789-.6562q2.4684,0,2.4678,2.6113Zm-1.1211-3.541-1.6884.2324a2.74,2.74,0,0,0-1.1758.3863,1.1131,1.1131,0,0,0-.3965.9809,1.07,1.07,0,0,0,.3652.8374,1.4167,1.4167,0,0,0,.9746.3247,1.7975,1.7975,0,0,0,1.377-.5844,2.084,2.084,0,0,0,.5439-1.48Z" fill="#2f2f2f"/>
      <path d="M380.4574,129.0337h-1.1211V118.6705h1.1211Z" fill="#2f2f2f"/>
      <path d="M321.017,145.8335h-1.1211v-3.9921q0-2.2288-1.627-2.2286a1.7634,1.7634,0,0,0-1.3906.6324,2.3421,2.3421,0,0,0-.5508,1.5962v3.9921h-1.1211v-7h1.1211v1.1622h.0274a2.5254,2.5254,0,0,1,2.2969-1.3262,2.1407,2.1407,0,0,1,1.7568.7417,3.3062,3.3062,0,0,1,.6084,2.1431Z" fill="#2f2f2f"/>
      <path d="M328.72,142.6138h-4.9424a2.6187,2.6187,0,0,0,.6289,1.8047,2.1683,2.1683,0,0,0,1.6543.6358,3.4412,3.4412,0,0,0,2.1739-.7793v1.0527a4.0617,4.0617,0,0,1-2.44.67,2.9587,2.9587,0,0,1-2.331-.9536,3.902,3.902,0,0,1-.8477-2.6831,3.8288,3.8288,0,0,1,.9258-2.6626,2.9716,2.9716,0,0,1,2.3008-1.0288,2.6318,2.6318,0,0,1,2.126.8887,3.7067,3.7067,0,0,1,.7519,2.4677Zm-1.1484-.95a2.2882,2.2882,0,0,0-.4678-1.5107,1.5982,1.5982,0,0,0-1.2822-.54,1.811,1.811,0,0,0-1.3467.5674,2.5771,2.5771,0,0,0-.6836,1.4834Z" fill="#2f2f2f"/>
      <path d="M333.6449,145.7652a2.1613,2.1613,0,0,1-1.0459.2187q-1.8384,0-1.8388-2.0507v-4.1426H329.557v-.9571H330.76v-1.7089l1.1211-.3623v2.0712h1.7636v.9571h-1.7636v3.9443a1.6379,1.6379,0,0,0,.2392,1.0049.9538.9538,0,0,0,.793.3008,1.1808,1.1808,0,0,0,.7314-.2324Z" fill="#2f2f2f"/>
      <path d="M344.3354,138.8335l-2.0987,7h-1.1621l-1.4424-5.0107a3.2821,3.2821,0,0,1-.1093-.6494h-.0274a3.067,3.067,0,0,1-.1435.6357l-1.5655,5.0244h-1.1211l-2.1191-7h1.1758l1.4492,5.2637a3.1772,3.1772,0,0,1,.0957.6289h.0547a2.9473,2.9473,0,0,1,.123-.6426l1.6133-5.25h1.0254l1.4492,5.2774a3.7033,3.7033,0,0,1,.1026.6289h.0546a2.89,2.89,0,0,1,.1163-.6289l1.4218-5.2774Z" fill="#2f2f2f"/>
      <path d="M348.41,145.9976a3.25,3.25,0,0,1-2.4785-.9809,3.6345,3.6345,0,0,1-.9258-2.6011,3.7852,3.7852,0,0,1,.9638-2.7549,3.4661,3.4661,0,0,1,2.6045-.9912,3.137,3.137,0,0,1,2.4434.9639,3.8205,3.8205,0,0,1,.8789,2.6728,3.7578,3.7578,0,0,1-.9473,2.6831A3.3155,3.3155,0,0,1,348.41,145.9976Zm.082-6.3848a2.1332,2.1332,0,0,0-1.709.7349,3.02,3.02,0,0,0-.6289,2.0269,2.8536,2.8536,0,0,0,.6358,1.9619,2.1606,2.1606,0,0,0,1.7021.7178,2.0522,2.0522,0,0,0,1.6719-.7042,3.0612,3.0612,0,0,0,.584-2.0029,3.114,3.114,0,0,0-.584-2.0234A2.0424,2.0424,0,0,0,348.4916,139.6128Z" fill="#2f2f2f"/>
      <path d="M357.2621,139.9683a1.3714,1.3714,0,0,0-.8476-.2256,1.4286,1.4286,0,0,0-1.1993.6768,3.1223,3.1223,0,0,0-.4824,1.8457v3.5683h-1.1211v-7h1.1211v1.4424h.0274a2.442,2.442,0,0,1,.7314-1.1518,1.6676,1.6676,0,0,1,1.1006-.4136,1.8259,1.8259,0,0,1,.67.0957Z" fill="#2f2f2f"/>
      <path d="M364.3158,145.8335h-1.5722l-3.09-3.3632h-.0273v3.3632h-1.1211V135.47h1.1211V142.04h.0273l2.94-3.2061h1.47l-3.2471,3.377Z" fill="#2f2f2f"/>
    </g>
    <g>
      <path d="M456.5414,69.6548h-2.4062l-.6973-2.1806h-3.4863l-.69,2.1806h-2.3925l3.5683-9.8027h2.6182Zm-3.6094-3.8759-1.0527-3.295a4.339,4.339,0,0,1-.1641-.8818h-.0547a3.7332,3.7332,0,0,1-.1709.8545l-1.0664,3.3223Z" fill="#2f2f2f"/>
      <path d="M463.4467,69.6548h-6.2822v-.8955l3.5136-4.5117h-3.165V62.6548h5.9062v1.0664L460.09,68.0621h3.3565Z" fill="#2f2f2f"/>
      <path d="M471.33,69.6548h-2.1533V68.5884h-.0342a2.4428,2.4428,0,0,1-2.14,1.2373q-2.433,0-2.4335-2.9463V62.6548h2.1533V66.688q0,1.4832,1.1758,1.4834a1.1629,1.1629,0,0,0,.93-.4067,1.64,1.64,0,0,0,.3487-1.104V62.6548H471.33Z" fill="#2f2f2f"/>
      <path d="M477.6635,64.6031a1.875,1.875,0,0,0-.9092-.2119,1.3093,1.3093,0,0,0-1.1006.5161,2.25,2.25,0,0,0-.3965,1.4048v3.3427h-2.16v-7h2.16v1.2989h.0274a1.8688,1.8688,0,0,1,1.8457-1.4219,1.3935,1.3935,0,0,1,.5332.082Z" fill="#2f2f2f"/>
      <path d="M485.0355,66.77h-4.5664q.11,1.5241,1.9209,1.5244a3.7469,3.7469,0,0,0,2.03-.5469v1.5586a5.3371,5.3371,0,0,1-2.5224.5195,3.258,3.258,0,0,1-3.5684-3.5615,3.745,3.745,0,0,1,1.0117-2.7617,3.37,3.37,0,0,1,2.4883-1.0186,3.062,3.062,0,0,1,2.3691.9092,3.5034,3.5034,0,0,1,.8369,2.4678Zm-2.0029-1.3262q0-1.5036-1.2168-1.5039a1.1585,1.1585,0,0,0-.8984.4307,1.9487,1.9487,0,0,0-.4619,1.0732Z" fill="#2f2f2f"/>
      <path d="M498.557,59.8521,495.18,69.6548h-2.502l-3.3359-9.8027h2.3789l2.0439,6.8223a4.8617,4.8617,0,0,1,.1983.9775h.041a5.5548,5.5548,0,0,1,.2119-1.0049l2.03-6.7949Z" fill="#2f2f2f"/>
      <path d="M500.6859,61.5474a1.2632,1.2632,0,0,1-.8955-.3247,1.0459,1.0459,0,0,1-.3486-.7964,1.0086,1.0086,0,0,1,.3486-.7929,1.4628,1.4628,0,0,1,1.795,0,1.015,1.015,0,0,1,.3447.7929,1.0441,1.0441,0,0,1-.3447.8067A1.2861,1.2861,0,0,1,500.6859,61.5474Zm1.0664,8.1074h-2.16v-7h2.16Z" fill="#2f2f2f"/>
      <path d="M508.101,64.6031a1.875,1.875,0,0,0-.9092-.2119,1.3093,1.3093,0,0,0-1.1006.5161,2.25,2.25,0,0,0-.3965,1.4048v3.3427h-2.16v-7h2.16v1.2989h.0274a1.8688,1.8688,0,0,1,1.8457-1.4219,1.3935,1.3935,0,0,1,.5332.082Z" fill="#2f2f2f"/>
      <path d="M513.6332,69.5728a3.1955,3.1955,0,0,1-1.4424.2529q-2.2836,0-2.2832-2.372V64.2476h-1.1347V62.6548h1.1347V61.1441l2.1533-.6152v2.1259h1.5723v1.5928h-1.5723v2.83q0,1.0935.8682,1.0937a1.4621,1.4621,0,0,0,.7041-.1982Z" fill="#2f2f2f"/>
      <path d="M521.598,69.6548h-2.1533V68.5884H519.41a2.4427,2.4427,0,0,1-2.14,1.2373q-2.4331,0-2.4336-2.9463V62.6548h2.1533V66.688q0,1.4832,1.1758,1.4834a1.163,1.163,0,0,0,.93-.4067,1.64,1.64,0,0,0,.3486-1.104V62.6548h2.1533Z" fill="#2f2f2f"/>
      <path d="M529.2475,69.6548h-2.044V68.65h-.0273a2.2818,2.2818,0,0,1-2.085,1.1757,2.1776,2.1776,0,0,1-1.6025-.5776,2.0664,2.0664,0,0,1-.585-1.5415q0-2.0369,2.4131-2.3516l1.9-.2529q0-1.1484-1.2442-1.1484a4.248,4.248,0,0,0-2.3789.7451v-1.627a5.36,5.36,0,0,1,1.2344-.41,6.4652,6.4652,0,0,1,1.4248-.1778,2.6434,2.6434,0,0,1,2.9942,2.9873Zm-2.03-2.8437v-.4717l-1.2715.1641q-1.0531.137-1.0527.95a.788.788,0,0,0,.2558.6049.9873.9873,0,0,0,.6944.2359,1.2792,1.2792,0,0,0,.9912-.42A1.52,1.52,0,0,0,527.2172,66.8111Z" fill="#2f2f2f"/>
      <path d="M533.1049,69.6548h-2.16V59.2916h2.16Z" fill="#2f2f2f"/>
      <path d="M538.9975,69.6548V59.8521H542.47q5.2223,0,5.2227,4.7783a4.8282,4.8282,0,0,1-1.4258,3.6572,5.2524,5.2524,0,0,1-3.7969,1.3672Zm2.208-8.0048v6.2138h1.0937a2.957,2.957,0,0,0,2.2529-.8613,3.2707,3.2707,0,0,0,.8165-2.3447,2.9617,2.9617,0,0,0-.8106-2.2046,3.0843,3.0843,0,0,0-2.2725-.8032Z" fill="#2f2f2f"/>
      <path d="M555.39,66.77h-4.5664q.11,1.5241,1.9209,1.5244a3.7469,3.7469,0,0,0,2.03-.5469v1.5586a5.3375,5.3375,0,0,1-2.5225.5195,3.258,3.258,0,0,1-3.5683-3.5615,3.745,3.745,0,0,1,1.0117-2.7617,3.37,3.37,0,0,1,2.4883-1.0186,3.062,3.062,0,0,1,2.3691.9092,3.5039,3.5039,0,0,1,.8369,2.4678Zm-2.0029-1.3262q0-1.5036-1.2168-1.5039a1.1585,1.1585,0,0,0-.8984.4307,1.948,1.948,0,0,0-.4619,1.0732Z" fill="#2f2f2f"/>
      <path d="M556.3783,69.47V67.72a4.6127,4.6127,0,0,0,1.0625.4785,3.5229,3.5229,0,0,0,1.002.1572,2.1494,2.1494,0,0,0,.9062-.1572.508.508,0,0,0,.3311-.4785.4417.4417,0,0,0-.15-.3418,1.4117,1.4117,0,0,0-.3858-.2393,4.4859,4.4859,0,0,0-.5166-.1846c-.1865-.0546-.3671-.1162-.54-.1845a5.1433,5.1433,0,0,1-.7344-.3384,2.0818,2.0818,0,0,1-.5332-.42,1.625,1.625,0,0,1-.3281-.5537,2.1836,2.1836,0,0,1-.1133-.7451,1.9278,1.9278,0,0,1,.2559-1.0118,2.11,2.11,0,0,1,.6836-.6938,3.1285,3.1285,0,0,1,.9785-.3965,5.077,5.077,0,0,1,1.1445-.1265,6.3678,6.3678,0,0,1,.9434.0718,7,7,0,0,1,.9433.2085v1.668a3.3945,3.3945,0,0,0-.8789-.3589,3.7042,3.7042,0,0,0-.9189-.12,2.04,2.04,0,0,0-.3994.0376,1.308,1.308,0,0,0-.3321.1093.6083.6083,0,0,0-.2255.1846.425.425,0,0,0-.0821.2564.4739.4739,0,0,0,.1231.3281,1.0659,1.0659,0,0,0,.3213.2358,3.1538,3.1538,0,0,0,.4414.1778c.1611.0522.3222.1059.4814.1606a6.2244,6.2244,0,0,1,.7793.3281,2.5067,2.5067,0,0,1,.5986.417,1.6558,1.6558,0,0,1,.3829.5606,2.2478,2.2478,0,0,1-.1368,1.8286,2.1681,2.1681,0,0,1-.7187.7178,3.2591,3.2591,0,0,1-1.0313.4033,5.73,5.73,0,0,1-1.2138.1264A6.2587,6.2587,0,0,1,556.3783,69.47Z" fill="#2f2f2f"/>
      <path d="M570.0678,69.6548H567.477l-2.2354-3.4726h-.0273v3.4726h-2.16V59.2916h2.16v6.5966h.0273l2.085-3.2334H569.89l-2.5087,3.2881Z" fill="#2f2f2f"/>
      <path d="M575.4154,69.5728a3.1955,3.1955,0,0,1-1.4424.2529q-2.2836,0-2.2832-2.372V64.2476h-1.1347V62.6548H571.69V61.1441l2.1534-.6152v2.1259h1.5722v1.5928h-1.5722v2.83q0,1.0935.8681,1.0937a1.4618,1.4618,0,0,0,.7041-.1982Z" fill="#2f2f2f"/>
      <path d="M579.9486,69.8257a3.7605,3.7605,0,0,1-2.7509-.9809,4.0557,4.0557,0,0,1,.0371-5.38,3.9256,3.9256,0,0,1,2.81-.981,3.7188,3.7188,0,0,1,2.7344.981,3.4853,3.4853,0,0,1,.9912,2.5942,3.7033,3.7033,0,0,1-1.0215,2.7549A3.8074,3.8074,0,0,1,579.9486,69.8257Zm.0547-5.6875a1.4394,1.4394,0,0,0-1.1894.5264,2.323,2.323,0,0,0-.4239,1.49q0,2.0165,1.627,2.0166,1.5513,0,1.5518-2.0713Q581.5688,64.138,580.0033,64.1382Z" fill="#2f2f2f"/>
      <path d="M587.3393,68.8414h-.0274v4.0332h-2.16v-10.22h2.16v1.0528h.0274a2.7482,2.7482,0,0,1,4.3505-.2906,3.9691,3.9691,0,0,1,.7422,2.54,4.3041,4.3041,0,0,1-.8652,2.81,2.8178,2.8178,0,0,1-2.3,1.06A2.18,2.18,0,0,1,587.3393,68.8414Zm-.0616-2.8711v.5605a1.7839,1.7839,0,0,0,.3828,1.1826,1.2457,1.2457,0,0,0,1.0049.458,1.3259,1.3259,0,0,0,1.1455-.5708,2.76,2.76,0,0,0,.4063-1.6167q0-1.8456-1.4356-1.8457a1.35,1.35,0,0,0-1.0839.5025A2.0092,2.0092,0,0,0,587.2777,65.97Z" fill="#2f2f2f"/>
    </g>
    <g>
      <path d="M496.2445,142.7344h-1.1484v-4.4707h-5.0723v4.4707h-1.1484v-9.8027h1.1484v4.3h5.0723v-4.3h1.1484Z" fill="#2f2f2f"/>
      <path d="M501.5023,142.8985a3.25,3.25,0,0,1-2.4785-.981,3.6343,3.6343,0,0,1-.9258-2.601,3.7848,3.7848,0,0,1,.9639-2.7549,3.4657,3.4657,0,0,1,2.6045-.9912,3.1373,3.1373,0,0,1,2.4434.9638,3.821,3.821,0,0,1,.8789,2.6729,3.7583,3.7583,0,0,1-.9473,2.6831A3.3157,3.3157,0,0,1,501.5023,142.8985Zm.0821-6.3848a2.1326,2.1326,0,0,0-1.709.7349,3.019,3.019,0,0,0-.6289,2.0268,2.8545,2.8545,0,0,0,.6357,1.962,2.1607,2.1607,0,0,0,1.7022.7177,2.0523,2.0523,0,0,0,1.6719-.7041,3.0612,3.0612,0,0,0,.5839-2.0029,3.114,3.114,0,0,0-.5839-2.0234A2.0423,2.0423,0,0,0,501.5844,136.5137Z" fill="#2f2f2f"/>
      <path d="M506.2533,142.4815v-1.2031a3.3182,3.3182,0,0,0,2.0166.6767q1.4766,0,1.4766-.9843a.8557.8557,0,0,0-.126-.4751,1.2817,1.2817,0,0,0-.3418-.3453,2.671,2.671,0,0,0-.5058-.27c-.1944-.08-.4024-.1631-.626-.25a8.1328,8.1328,0,0,1-.8174-.3725,2.497,2.497,0,0,1-.5879-.4239,1.5953,1.5953,0,0,1-.3555-.5366,1.9124,1.9124,0,0,1-.1191-.7041,1.6725,1.6725,0,0,1,.2256-.8716,1.9977,1.9977,0,0,1,.6015-.6357,2.8,2.8,0,0,1,.8584-.3863,3.8052,3.8052,0,0,1,.9942-.13,4.0171,4.0171,0,0,1,1.6269.3144V137.02a3.1685,3.1685,0,0,0-1.7773-.5059,2.0758,2.0758,0,0,0-.5674.0718,1.3957,1.3957,0,0,0-.4346.2017.9291.9291,0,0,0-.2793.311.8153.8153,0,0,0-.1.4.9556.9556,0,0,0,.1.458.995.995,0,0,0,.29.3281,2.2258,2.2258,0,0,0,.4648.26q.2739.1164.6221.2529a8.7255,8.7255,0,0,1,.834.3657,2.8607,2.8607,0,0,1,.6289.4239,1.6687,1.6687,0,0,1,.4.5434,1.7643,1.7643,0,0,1,.14.7315,1.7184,1.7184,0,0,1-.23.9023,1.9575,1.9575,0,0,1-.6113.6358,2.8,2.8,0,0,1-.8818.3759,4.3548,4.3548,0,0,1-1.0459.1231A3.9738,3.9738,0,0,1,506.2533,142.4815Z" fill="#2f2f2f"/>
      <path d="M515.9066,142.6661a2.161,2.161,0,0,1-1.0459.2187q-1.8382,0-1.8388-2.0508v-4.1425h-1.2031v-.9571h1.2031v-1.709l1.1211-.3623v2.0713h1.7636v.9571H514.143v3.9443a1.6381,1.6381,0,0,0,.2392,1.0049.9539.9539,0,0,0,.793.3008,1.18,1.18,0,0,0,.7314-.2325Z" fill="#2f2f2f"/>
      <path d="M522.3871,141.7227H522.36v4.2315h-1.1211v-10.22H522.36v1.2305h.0273a2.6516,2.6516,0,0,1,2.42-1.3945,2.5636,2.5636,0,0,1,2.1123.94,3.8926,3.8926,0,0,1,.7588,2.519,4.34,4.34,0,0,1-.8545,2.813,2.8441,2.8441,0,0,1-2.3379,1.0562A2.3419,2.3419,0,0,1,522.3871,141.7227ZM522.36,138.9v.9775a2.0778,2.0778,0,0,0,.5644,1.4731,2.0109,2.0109,0,0,0,3.0274-.1743,3.5707,3.5707,0,0,0,.5781-2.167,2.82,2.82,0,0,0-.54-1.832,1.7879,1.7879,0,0,0-1.4628-.6631,1.9864,1.9864,0,0,0-1.5723.68A2.4977,2.4977,0,0,0,522.36,138.9Z" fill="#2f2f2f"/>
      <path d="M532.3842,142.8985a3.25,3.25,0,0,1-2.4785-.981,3.6343,3.6343,0,0,1-.9258-2.601,3.7848,3.7848,0,0,1,.9639-2.7549,3.4653,3.4653,0,0,1,2.6044-.9912,3.1373,3.1373,0,0,1,2.4434.9638,3.821,3.821,0,0,1,.8789,2.6729,3.7578,3.7578,0,0,1-.9473,2.6831A3.3155,3.3155,0,0,1,532.3842,142.8985Zm.082-6.3848a2.1329,2.1329,0,0,0-1.709.7349,3.02,3.02,0,0,0-.6289,2.0268,2.854,2.854,0,0,0,.6358,1.962,2.1605,2.1605,0,0,0,1.7021.7177,2.0521,2.0521,0,0,0,1.6719-.7041,3.0606,3.0606,0,0,0,.584-2.0029,3.1134,3.1134,0,0,0-.584-2.0234A2.0421,2.0421,0,0,0,532.4662,136.5137Z" fill="#2f2f2f"/>
      <path d="M540.5756,142.8985a3.25,3.25,0,0,1-2.4785-.981,3.6343,3.6343,0,0,1-.9258-2.601,3.7848,3.7848,0,0,1,.9639-2.7549,3.4653,3.4653,0,0,1,2.6044-.9912,3.1373,3.1373,0,0,1,2.4434.9638,3.821,3.821,0,0,1,.8789,2.6729,3.7578,3.7578,0,0,1-.9473,2.6831A3.3155,3.3155,0,0,1,540.5756,142.8985Zm.082-6.3848a2.1329,2.1329,0,0,0-1.709.7349,3.02,3.02,0,0,0-.6289,2.0268,2.854,2.854,0,0,0,.6358,1.962,2.1605,2.1605,0,0,0,1.7021.7177,2.0521,2.0521,0,0,0,1.6719-.7041,3.0606,3.0606,0,0,0,.584-2.0029,3.1134,3.1134,0,0,0-.584-2.0234A2.0421,2.0421,0,0,0,540.6576,136.5137Z" fill="#2f2f2f"/>
      <path d="M546.892,142.7344h-1.1211V132.3711h1.1211Z" fill="#2f2f2f"/>
    </g>
    <g>
      <path d="M76.6254,181.8946l-3.63,9.8027H71.7309l-3.5547-9.8027h1.2783l2.7139,7.7724a4.6144,4.6144,0,0,1,.1982.8682h.0273a4.2246,4.2246,0,0,1,.2256-.8818l2.7686-7.7588Z" fill="#2f2f2f"/>
      <path d="M78.5375,182.92a.7115.7115,0,0,1-.5127-.2051.6912.6912,0,0,1-.2119-.5195.7179.7179,0,0,1,.7246-.7315.7261.7261,0,0,1,.5234.2085.7313.7313,0,0,1,0,1.0357A.721.721,0,0,1,78.5375,182.92Zm.5469,8.7773H77.9633v-7h1.1211Z" fill="#2f2f2f"/>
      <path d="M84.8529,185.8321a1.3714,1.3714,0,0,0-.8476-.2256,1.4286,1.4286,0,0,0-1.1992.6768,3.1214,3.1214,0,0,0-.4825,1.8457v3.5683H81.2025v-7h1.1211V186.14h.0274a2.4431,2.4431,0,0,1,.7314-1.1519,1.668,1.668,0,0,1,1.1006-.4135,1.8256,1.8256,0,0,1,.67.0957Z" fill="#2f2f2f"/>
      <path d="M89.7719,191.629a2.1615,2.1615,0,0,1-1.0459.2187q-1.8384,0-1.8389-2.0508v-4.1426H85.684v-.957h1.2031v-1.709l1.1211-.3623v2.0713h1.7637v.957H88.0082v3.9444a1.638,1.638,0,0,0,.2393,1.0049.9536.9536,0,0,0,.7929.3007,1.18,1.18,0,0,0,.7315-.2324Z" fill="#2f2f2f"/>
      <path d="M96.89,191.6973H95.7689V190.59h-.0273a2.3018,2.3018,0,0,1-2.16,1.2715q-2.5019,0-2.5019-2.9805v-4.1836h1.1143v4.0059q0,2.2147,1.6953,2.2148a1.7162,1.7162,0,0,0,1.35-.605,2.317,2.317,0,0,0,.5293-1.5825v-4.0332H96.89Z" fill="#2f2f2f"/>
      <path d="M104.0453,191.6973h-1.1211v-1.0937h-.0273a2.3468,2.3468,0,0,1-2.1533,1.2578,2.2993,2.2993,0,0,1-1.6368-.5537,1.9176,1.9176,0,0,1-.5918-1.47q0-1.9622,2.3106-2.2832l2.0986-.2939q0-1.7842-1.4424-1.7842a3.4462,3.4462,0,0,0-2.2832.8613V185.19a4.34,4.34,0,0,1,2.3789-.6562q2.4682,0,2.4678,2.6113Zm-1.1211-3.541-1.6885.2324a2.74,2.74,0,0,0-1.1757.3863,1.113,1.113,0,0,0-.3965.9809,1.07,1.07,0,0,0,.3652.8374,1.4165,1.4165,0,0,0,.9746.3247,1.7974,1.7974,0,0,0,1.377-.5845,2.0838,2.0838,0,0,0,.5439-1.48Z" fill="#2f2f2f"/>
      <path d="M107.1869,191.6973h-1.1211V181.334h1.1211Z" fill="#2f2f2f"/>
      <path d="M121.3441,191.6973h-1.4082l-5.0449-7.8135a3.2341,3.2341,0,0,1-.3144-.6152h-.0411a10.1386,10.1386,0,0,1,.0547,1.3467v7.082h-1.1484v-9.8027h1.49l4.9082,7.69q.3077.4783.3965.6563h.0274a10.3186,10.3186,0,0,1-.0684-1.4424v-6.9043h1.1484Z" fill="#2f2f2f"/>
      <path d="M129.3227,188.4776H124.38a2.6177,2.6177,0,0,0,.6289,1.8047,2.168,2.168,0,0,0,1.6543.6357,3.44,3.44,0,0,0,2.1738-.7793v1.0528a4.0621,4.0621,0,0,1-2.44.67,2.9589,2.9589,0,0,1-2.3311-.9536,3.9021,3.9021,0,0,1-.8476-2.6831,3.8292,3.8292,0,0,1,.9257-2.6626,2.9713,2.9713,0,0,1,2.3008-1.0288,2.6318,2.6318,0,0,1,2.126.8886,3.7067,3.7067,0,0,1,.752,2.4678Zm-1.1485-.95a2.2874,2.2874,0,0,0-.4678-1.5107,1.598,1.598,0,0,0-1.2822-.54,1.8111,1.8111,0,0,0-1.3467.5674,2.5777,2.5777,0,0,0-.6836,1.4834Z" fill="#2f2f2f"/>
      <path d="M134.2465,191.629a2.1615,2.1615,0,0,1-1.0459.2187q-1.8384,0-1.8389-2.0508v-4.1426h-1.2031v-.957h1.2031v-1.709l1.1211-.3623v2.0713h1.7637v.957h-1.7637v3.9444a1.638,1.638,0,0,0,.2393,1.0049.9537.9537,0,0,0,.7929.3007,1.18,1.18,0,0,0,.7315-.2324Z" fill="#2f2f2f"/>
      <path d="M144.9369,184.6973l-2.0986,7h-1.1621l-1.4424-5.0107a3.2891,3.2891,0,0,1-.1094-.6494h-.0273a3.0711,3.0711,0,0,1-.1436.6357l-1.5654,5.0244H137.267l-2.1191-7h1.1757l1.4493,5.2637a3.176,3.176,0,0,1,.0957.6289h.0546a2.9408,2.9408,0,0,1,.1231-.6426l1.6133-5.25h1.0254l1.4492,5.2774a3.6943,3.6943,0,0,1,.1025.6289h.0547a2.8943,2.8943,0,0,1,.1162-.6289l1.4219-5.2774Z" fill="#2f2f2f"/>
      <path d="M149.0121,191.8614a3.25,3.25,0,0,1-2.4785-.981,3.6343,3.6343,0,0,1-.9258-2.6011,3.7847,3.7847,0,0,1,.9639-2.7548,3.4656,3.4656,0,0,1,2.6045-.9912,3.1368,3.1368,0,0,1,2.4433.9638,3.82,3.82,0,0,1,.8789,2.6729,3.7582,3.7582,0,0,1-.9472,2.6831A3.3162,3.3162,0,0,1,149.0121,191.8614Zm.082-6.3848a2.1325,2.1325,0,0,0-1.7089.7349,3.019,3.019,0,0,0-.6289,2.0268,2.854,2.854,0,0,0,.6357,1.9619,2.16,2.16,0,0,0,1.7021.7178,2.052,2.052,0,0,0,1.6719-.7041,3.0606,3.0606,0,0,0,.584-2.0029,3.1134,3.1134,0,0,0-.584-2.0234A2.042,2.042,0,0,0,149.0941,185.4766Z" fill="#2f2f2f"/>
      <path d="M157.8646,185.8321a1.3712,1.3712,0,0,0-.8476-.2256,1.4286,1.4286,0,0,0-1.1992.6768,3.1214,3.1214,0,0,0-.4824,1.8457v3.5683h-1.1211v-7h1.1211V186.14h.0273a2.4431,2.4431,0,0,1,.7314-1.1519,1.6684,1.6684,0,0,1,1.1006-.4135,1.8256,1.8256,0,0,1,.67.0957Z" fill="#2f2f2f"/>
      <path d="M164.9184,191.6973h-1.5723l-3.09-3.3633h-.0274v3.3633h-1.1211V181.334h1.1211v6.5694h.0274l2.9394-3.2061h1.47l-3.247,3.377Z" fill="#2f2f2f"/>
    </g>
    <g>
      <path d="M108.2968,105.41V95.6075h2.707q5.1811,0,5.1816,4.7783a4.8131,4.8131,0,0,1-1.4394,3.647,5.3364,5.3364,0,0,1-3.8516,1.3774Zm1.1484-8.7637v7.7246h1.4629a4.1529,4.1529,0,0,0,3.001-1.0322,3.8683,3.8683,0,0,0,1.0732-2.9258q0-3.7668-4.0058-3.7666Z" fill="#2f2f2f"/>
      <path d="M120.8622,105.5743a3.25,3.25,0,0,1-2.4785-.981,3.6343,3.6343,0,0,1-.9258-2.6011,3.7847,3.7847,0,0,1,.9639-2.7548,3.4656,3.4656,0,0,1,2.6045-.9913,3.1368,3.1368,0,0,1,2.4433.9639,3.82,3.82,0,0,1,.8789,2.6729,3.7582,3.7582,0,0,1-.9472,2.6831A3.3162,3.3162,0,0,1,120.8622,105.5743Zm.082-6.3848a2.1325,2.1325,0,0,0-1.7089.7349,3.0191,3.0191,0,0,0-.629,2.0268,2.8541,2.8541,0,0,0,.6358,1.9619,2.16,2.16,0,0,0,1.7021.7178,2.0524,2.0524,0,0,0,1.6719-.7041,3.0606,3.0606,0,0,0,.584-2.0029,3.1139,3.1139,0,0,0-.584-2.0235A2.0423,2.0423,0,0,0,120.9442,99.19Z" fill="#2f2f2f"/>
      <path d="M136.0028,105.41h-1.1211v-4.02a3.0233,3.0233,0,0,0-.3593-1.6817,1.3591,1.3591,0,0,0-1.2061-.52,1.4921,1.4921,0,0,0-1.22.6563,2.5041,2.5041,0,0,0-.5029,1.5722V105.41h-1.1211V101.254q0-2.0648-1.5928-2.0645a1.4754,1.4754,0,0,0-1.2168.6187,2.5561,2.5561,0,0,0-.4785,1.61V105.41h-1.1211v-7h1.1211v1.1074h.0273a2.3791,2.3791,0,0,1,2.1738-1.2715,2.0219,2.0219,0,0,1,1.9825,1.4493,2.4974,2.4974,0,0,1,2.3242-1.4493q2.31,0,2.3105,2.8506Z" fill="#2f2f2f"/>
      <path d="M143.038,105.41h-1.1211v-1.0937H141.89a2.3469,2.3469,0,0,1-2.1534,1.2578,2.2992,2.2992,0,0,1-1.6367-.5537,1.9176,1.9176,0,0,1-.5918-1.47q0-1.9621,2.3106-2.2832l2.0986-.2939q0-1.7842-1.4424-1.7842a3.446,3.446,0,0,0-2.2832.8613V98.9024a4.34,4.34,0,0,1,2.3789-.6563q2.4683,0,2.4678,2.6114Zm-1.1211-3.541-1.6885.2324a2.7429,2.7429,0,0,0-1.1758.3862,1.1135,1.1135,0,0,0-.3964.981,1.07,1.07,0,0,0,.3652.8374,1.4163,1.4163,0,0,0,.9746.3247,1.797,1.797,0,0,0,1.3769-.5845,2.0838,2.0838,0,0,0,.544-1.48Z" fill="#2f2f2f"/>
      <path d="M145.6161,96.6329a.7115.7115,0,0,1-.5127-.2051.6912.6912,0,0,1-.2119-.52.7179.7179,0,0,1,.7246-.7315.7261.7261,0,0,1,.5235.2085.7316.7316,0,0,1,0,1.0357A.7214.7214,0,0,1,145.6161,96.6329Zm.5469,8.7773h-1.1211v-7h1.1211Z" fill="#2f2f2f"/>
      <path d="M154.0927,105.41h-1.1211V101.418q0-2.2287-1.627-2.2285a1.7633,1.7633,0,0,0-1.3906.6323,2.3421,2.3421,0,0,0-.5508,1.5962V105.41h-1.1211v-7h1.1211v1.1621h.0274a2.5253,2.5253,0,0,1,2.2968-1.3262,2.1408,2.1408,0,0,1,1.7569.7417,3.3064,3.3064,0,0,1,.6084,2.1431Z" fill="#2f2f2f"/>
      <path d="M164.8114,105.0889a3.6423,3.6423,0,0,1-1.914.4854,3.1669,3.1669,0,0,1-2.4161-.9742,3.5291,3.5291,0,0,1-.92-2.5258,3.88,3.88,0,0,1,.9912-2.7788,3.4681,3.4681,0,0,1,2.6455-1.0494,3.6815,3.6815,0,0,1,1.627.3418v1.1485a2.8482,2.8482,0,0,0-1.668-.5469,2.2513,2.2513,0,0,0-1.76.769,2.914,2.914,0,0,0-.6875,2.02,2.7746,2.7746,0,0,0,.6464,1.9414,2.2238,2.2238,0,0,0,1.7325.7109,2.81,2.81,0,0,0,1.7226-.6084Z" fill="#2f2f2f"/>
      <path d="M169.2519,105.5743a3.25,3.25,0,0,1-2.4786-.981,3.6347,3.6347,0,0,1-.9257-2.6011,3.7847,3.7847,0,0,1,.9638-2.7548,3.4658,3.4658,0,0,1,2.6045-.9913,3.137,3.137,0,0,1,2.4434.9639,3.821,3.821,0,0,1,.8789,2.6729,3.7578,3.7578,0,0,1-.9473,2.6831A3.3159,3.3159,0,0,1,169.2519,105.5743Zm.082-6.3848a2.1328,2.1328,0,0,0-1.709.7349,3.02,3.02,0,0,0-.6289,2.0268,2.854,2.854,0,0,0,.6357,1.9619,2.16,2.16,0,0,0,1.7022.7178,2.0526,2.0526,0,0,0,1.6719-.7041,3.0612,3.0612,0,0,0,.5839-2.0029,3.1145,3.1145,0,0,0-.5839-2.0235A2.0425,2.0425,0,0,0,169.3339,99.19Z" fill="#2f2f2f"/>
      <path d="M180.2636,105.41h-1.1211V101.418q0-2.2287-1.627-2.2285a1.7633,1.7633,0,0,0-1.3906.6323,2.3421,2.3421,0,0,0-.5508,1.5962V105.41H174.453v-7h1.1211v1.1621h.0274a2.5253,2.5253,0,0,1,2.2968-1.3262,2.1408,2.1408,0,0,1,1.7569.7417,3.307,3.307,0,0,1,.6084,2.1431Z" fill="#2f2f2f"/>
      <path d="M185.4931,105.3418a2.1615,2.1615,0,0,1-1.0459.2188q-1.8384,0-1.8389-2.0508V99.3672h-1.2031V98.41h1.2031v-1.709l1.1211-.3623V98.41h1.7637v.957h-1.7637v3.9444a1.638,1.638,0,0,0,.2393,1.0049.9539.9539,0,0,0,.7929.3007,1.18,1.18,0,0,0,.7315-.2324Z" fill="#2f2f2f"/>
      <path d="M190.5243,99.545a1.3714,1.3714,0,0,0-.8476-.2256,1.4289,1.4289,0,0,0-1.1993.6767,3.1225,3.1225,0,0,0-.4824,1.8457V105.41h-1.1211v-7h1.1211v1.4424h.0274a2.4423,2.4423,0,0,1,.7314-1.1519,1.668,1.668,0,0,1,1.1006-.4135,1.8259,1.8259,0,0,1,.67.0957Z" fill="#2f2f2f"/>
      <path d="M194.6669,105.5743a3.25,3.25,0,0,1-2.4785-.981,3.6343,3.6343,0,0,1-.9258-2.6011,3.7847,3.7847,0,0,1,.9639-2.7548,3.4655,3.4655,0,0,1,2.6045-.9913,3.1368,3.1368,0,0,1,2.4433.9639,3.82,3.82,0,0,1,.8789,2.6729,3.7582,3.7582,0,0,1-.9472,2.6831A3.3162,3.3162,0,0,1,194.6669,105.5743Zm.082-6.3848a2.1329,2.1329,0,0,0-1.709.7349,3.02,3.02,0,0,0-.6289,2.0268,2.8536,2.8536,0,0,0,.6358,1.9619,2.16,2.16,0,0,0,1.7021.7178,2.0524,2.0524,0,0,0,1.6719-.7041,3.0606,3.0606,0,0,0,.584-2.0029,3.1139,3.1139,0,0,0-.584-2.0235A2.0423,2.0423,0,0,0,194.7489,99.19Z" fill="#2f2f2f"/>
      <path d="M200.9823,105.41h-1.1211V95.0469h1.1211Z" fill="#2f2f2f"/>
      <path d="M204.2138,105.41h-1.1211V95.0469h1.1211Z" fill="#2f2f2f"/>
      <path d="M212.0517,102.1905h-4.9424a2.6179,2.6179,0,0,0,.6289,1.8047,2.1681,2.1681,0,0,0,1.6543.6357,3.4407,3.4407,0,0,0,2.1738-.7793v1.0527a4.0614,4.0614,0,0,1-2.44.67,2.9589,2.9589,0,0,1-2.3311-.9536,3.9021,3.9021,0,0,1-.8476-2.6831,3.8292,3.8292,0,0,1,.9257-2.6626,2.9714,2.9714,0,0,1,2.3008-1.0289,2.6318,2.6318,0,0,1,2.126.8887,3.7067,3.7067,0,0,1,.752,2.4678Zm-1.1485-.95a2.2879,2.2879,0,0,0-.4678-1.5108,1.5983,1.5983,0,0,0-1.2822-.54,1.8111,1.8111,0,0,0-1.3467.5674,2.5774,2.5774,0,0,0-.6836,1.4834Z" fill="#2f2f2f"/>
      <path d="M217.3847,99.545a1.3715,1.3715,0,0,0-.8477-.2256,1.4287,1.4287,0,0,0-1.1992.6767,3.1218,3.1218,0,0,0-.4824,1.8457V105.41h-1.1211v-7h1.1211v1.4424h.0273a2.4425,2.4425,0,0,1,.7315-1.1519,1.6679,1.6679,0,0,1,1.1-.4135,1.8265,1.8265,0,0,1,.67.0957Z" fill="#2f2f2f"/>
    </g>
    <g>
      <path d="M98.9721,59.8521l-3.63,9.8027H94.0775l-3.5546-9.8027h1.2783l2.7138,7.7725a4.6051,4.6051,0,0,1,.1983.8681h.0273a4.2246,4.2246,0,0,1,.2256-.8818l2.7686-7.7588Z" fill="#2f2f2f"/>
      <path d="M100.8842,60.8775a.7115.7115,0,0,1-.5127-.2051.6911.6911,0,0,1-.2119-.52.7179.7179,0,0,1,.7246-.7315.7261.7261,0,0,1,.5234.2085.7313.7313,0,0,1,0,1.0357A.721.721,0,0,1,100.8842,60.8775Zm.5469,8.7773H100.31v-7h1.1211Z" fill="#2f2f2f"/>
      <path d="M107.2,63.79a1.3714,1.3714,0,0,0-.8476-.2256,1.4286,1.4286,0,0,0-1.1993.6768,3.1221,3.1221,0,0,0-.4824,1.8457v3.5683h-1.1211v-7H104.67v1.4424h.0274a2.4415,2.4415,0,0,1,.7314-1.1518,1.6676,1.6676,0,0,1,1.1006-.4136,1.8259,1.8259,0,0,1,.67.0957Z" fill="#2f2f2f"/>
      <path d="M112.1186,69.5865a2.1615,2.1615,0,0,1-1.0459.2187q-1.8384,0-1.8389-2.0508V63.6119h-1.2031v-.9571h1.2031V60.9459l1.1211-.3624v2.0713h1.7637v.9571h-1.7637v3.9443a1.6388,1.6388,0,0,0,.2392,1.0049.9539.9539,0,0,0,.793.3008,1.1805,1.1805,0,0,0,.7315-.2325Z" fill="#2f2f2f"/>
      <path d="M119.2367,69.6548h-1.1211V68.5474h-.0273a2.3019,2.3019,0,0,1-2.16,1.2715q-2.5019,0-2.5019-2.9805V62.6548H114.54v4.0059q0,2.2149,1.6953,2.2148a1.7165,1.7165,0,0,0,1.3506-.6049,2.3174,2.3174,0,0,0,.5293-1.5826V62.6548h1.1211Z" fill="#2f2f2f"/>
      <path d="M126.392,69.6548h-1.1211V68.5611h-.0273a2.3467,2.3467,0,0,1-2.1534,1.2578,2.2992,2.2992,0,0,1-1.6367-.5537,1.9175,1.9175,0,0,1-.5918-1.47q0-1.9622,2.3106-2.2832l2.0986-.294q0-1.7841-1.4424-1.7842a3.4456,3.4456,0,0,0-2.2832.8614V63.147a4.34,4.34,0,0,1,2.3789-.6562q2.4682,0,2.4678,2.6113Zm-1.1211-3.541-1.6885.2324a2.7414,2.7414,0,0,0-1.1758.3863,1.1132,1.1132,0,0,0-.3964.9809,1.07,1.07,0,0,0,.3652.8374,1.4163,1.4163,0,0,0,.9746.3247,1.7977,1.7977,0,0,0,1.377-.5844,2.0845,2.0845,0,0,0,.5439-1.48Z" fill="#2f2f2f"/>
      <path d="M129.5336,69.6548h-1.1211V59.2916h1.1211Z" fill="#2f2f2f"/>
      <path d="M145.5775,69.6548h-1.1211V65.6353a3.0229,3.0229,0,0,0-.3593-1.6816,1.3591,1.3591,0,0,0-1.2061-.52,1.4921,1.4921,0,0,0-1.22.6563,2.5047,2.5047,0,0,0-.5029,1.5722v3.9922h-1.1211V65.4986q0-2.0647-1.5928-2.0645a1.4754,1.4754,0,0,0-1.2168.6187,2.5561,2.5561,0,0,0-.4785,1.61v3.9922h-1.1211v-7h1.1211v1.1075h.0273a2.3789,2.3789,0,0,1,2.1739-1.2715,2.022,2.022,0,0,1,1.9824,1.4492,2.4973,2.4973,0,0,1,2.3242-1.4492q2.31,0,2.31,2.8506Z" fill="#2f2f2f"/>
      <path d="M152.6117,69.6548h-1.1211V68.5611h-.0273a2.3466,2.3466,0,0,1-2.1533,1.2578,2.2993,2.2993,0,0,1-1.6368-.5537,1.9175,1.9175,0,0,1-.5918-1.47q0-1.9622,2.3106-2.2832l2.0986-.294q0-1.7841-1.4424-1.7842a3.446,3.446,0,0,0-2.2832.8614V63.147a4.34,4.34,0,0,1,2.3789-.6562q2.4684,0,2.4678,2.6113Zm-1.1211-3.541-1.6885.2324a2.74,2.74,0,0,0-1.1757.3863,1.113,1.113,0,0,0-.3965.9809,1.07,1.07,0,0,0,.3652.8374,1.4167,1.4167,0,0,0,.9746.3247,1.7975,1.7975,0,0,0,1.377-.5844,2.084,2.084,0,0,0,.5439-1.48Z" fill="#2f2f2f"/>
      <path d="M159.4555,69.3335a3.6415,3.6415,0,0,1-1.9141.4854,3.167,3.167,0,0,1-2.416-.9741,3.5288,3.5288,0,0,1-.92-2.5259,3.88,3.88,0,0,1,.9912-2.7788,3.4677,3.4677,0,0,1,2.6455-1.0493,3.68,3.68,0,0,1,1.6269.3418V63.981a2.8488,2.8488,0,0,0-1.6679-.5469,2.2513,2.2513,0,0,0-1.76.7691,2.9137,2.9137,0,0,0-.6875,2.02A2.7747,2.7747,0,0,0,156,68.1646a2.2236,2.2236,0,0,0,1.7324.7109,2.81,2.81,0,0,0,1.7227-.6084Z" fill="#2f2f2f"/>
      <path d="M166.7533,69.6548h-1.1211V65.6216q0-2.1878-1.6269-2.1875a1.7747,1.7747,0,0,0-1.3809.6324,2.3546,2.3546,0,0,0-.5605,1.6235v3.9648h-1.1211V59.2916h1.1211v4.5253h.0273a2.5465,2.5465,0,0,1,2.2969-1.3261q2.3657,0,2.3652,2.8506Z" fill="#2f2f2f"/>
      <path d="M169.3383,60.8775a.7115.7115,0,0,1-.5127-.2051.6911.6911,0,0,1-.2119-.52.7179.7179,0,0,1,.7246-.7315.7261.7261,0,0,1,.5234.2085.7313.7313,0,0,1,0,1.0357A.721.721,0,0,1,169.3383,60.8775Zm.5469,8.7773h-1.1211v-7h1.1211Z" fill="#2f2f2f"/>
      <path d="M177.8139,69.6548h-1.1211V65.6626q0-2.2287-1.627-2.2285a1.7634,1.7634,0,0,0-1.3906.6324,2.3419,2.3419,0,0,0-.5508,1.5961v3.9922h-1.1211v-7h1.1211v1.1621h.0274a2.5254,2.5254,0,0,1,2.2968-1.3261,2.1405,2.1405,0,0,1,1.7569.7417,3.3067,3.3067,0,0,1,.6084,2.143Z" fill="#2f2f2f"/>
      <path d="M185.517,66.4351h-4.9424a2.6182,2.6182,0,0,0,.6289,1.8047,2.1683,2.1683,0,0,0,1.6543.6357,3.44,3.44,0,0,0,2.1738-.7793V69.149a4.0614,4.0614,0,0,1-2.44.67,2.9587,2.9587,0,0,1-2.331-.9536,3.9016,3.9016,0,0,1-.8477-2.6831,3.8288,3.8288,0,0,1,.9258-2.6626,2.971,2.971,0,0,1,2.3008-1.0288,2.6317,2.6317,0,0,1,2.1259.8886,3.7067,3.7067,0,0,1,.752,2.4678Zm-1.1484-.95a2.288,2.288,0,0,0-.4678-1.5107,1.5983,1.5983,0,0,0-1.2822-.54,1.8108,1.8108,0,0,0-1.3467.5674,2.5765,2.5765,0,0,0-.6836,1.4834Z" fill="#2f2f2f"/>
    </g>
  </g>
</svg>
