<svg xmlns="http://www.w3.org/2000/svg" xmlns:xlink="http://www.w3.org/1999/xlink" viewBox="0 0 655 198">
  <defs>
    <radialGradient id="radial-gradient" cx="9" cy="9" r="9" gradientUnits="userSpaceOnUse">
      <stop offset="0.45" stop-color="#0078d4"/>
      <stop offset="0.81" stop-color="#0063af"/>
      <stop offset="1" stop-color="#005ba1"/>
    </radialGradient>
    <linearGradient id="linear-gradient" x1="44.79" y1="465.23" x2="44.79" y2="494.09" gradientTransform="matrix(1, 0, 0, -1, 0, 594.16)" gradientUnits="userSpaceOnUse">
      <stop offset="0" stop-color="#0078d4"/>
      <stop offset="0.82" stop-color="#5ea0ef"/>
    </linearGradient>
    <linearGradient id="linear-gradient-2" x1="44.81" y1="454.09" x2="44.81" y2="465.23" gradientTransform="matrix(1, 0, 0, -1, 0, 594.16)" gradientUnits="userSpaceOnUse">
      <stop offset="0.15" stop-color="#ccc"/>
      <stop offset="1" stop-color="#707070"/>
    </linearGradient>
    <linearGradient id="linear-gradient-3" x1="24.93" y1="472.63" x2="24.93" y2="450.01" gradientTransform="matrix(1, 0, 0, -1, 0, 594.16)" gradientUnits="userSpaceOnUse">
      <stop offset="0.22" stop-color="#32d4f5"/>
      <stop offset="0.47" stop-color="#31d1f3"/>
      <stop offset="0.63" stop-color="#2ec9eb"/>
      <stop offset="0.77" stop-color="#29bade"/>
      <stop offset="0.89" stop-color="#22a5cb"/>
      <stop offset="1" stop-color="#198ab3"/>
    </linearGradient>
    <linearGradient id="linear-gradient-4" x1="24.28" y1="484.76" x2="25.93" y2="464.23" xlink:href="#linear-gradient-3"/>
    <radialGradient id="radial-gradient-6" cx="123.91" cy="493.91" r="12" gradientTransform="matrix(1, 0, 0, -1, 0, 594.16)" gradientUnits="userSpaceOnUse">
      <stop offset="0" stop-color="#198ab3"/>
      <stop offset="0.38" stop-color="#1a8cb5"/>
      <stop offset="0.58" stop-color="#1c94bc"/>
      <stop offset="0.73" stop-color="#21a1c8"/>
      <stop offset="0.86" stop-color="#27b4d8"/>
      <stop offset="0.97" stop-color="#2fccee"/>
      <stop offset="1" stop-color="#32d4f5"/>
    </radialGradient>
    <linearGradient id="linear-gradient-5" x1="14.52" y1="488.15" x2="9.99" y2="496.72" gradientTransform="matrix(1, 0, 0, -1, 0, 594.16)" gradientUnits="userSpaceOnUse">
      <stop offset="0" stop-color="#1988d9"/>
      <stop offset="0.9" stop-color="#54aef0"/>
    </linearGradient>
    <linearGradient id="linear-gradient-6" x1="12.57" y1="490.64" x2="15.69" y2="485.25" gradientTransform="matrix(1, 0, 0, -1, 0, 594.16)" gradientUnits="userSpaceOnUse">
      <stop offset="0.1" stop-color="#54aef0"/>
      <stop offset="0.29" stop-color="#4fabee"/>
      <stop offset="0.51" stop-color="#41a2e9"/>
      <stop offset="0.74" stop-color="#2a93e0"/>
      <stop offset="0.88" stop-color="#1988d9"/>
    </linearGradient>
    <linearGradient id="linear-gradient-7" x1="189.96" y1="459.26" x2="189.96" y2="479.83" gradientTransform="matrix(1, 0, 0, -1, 0, 594.16)" gradientUnits="userSpaceOnUse">
      <stop offset="0" stop-color="#0078d4"/>
      <stop offset="0.17" stop-color="#1c84dc"/>
      <stop offset="0.38" stop-color="#3990e4"/>
      <stop offset="0.59" stop-color="#4d99ea"/>
      <stop offset="0.8" stop-color="#5a9eee"/>
      <stop offset="1" stop-color="#5ea0ef"/>
    </linearGradient>
    <linearGradient id="linear-gradient-8" x1="321.43" y1="528.49" x2="321.43" y2="552.49" gradientTransform="matrix(1, 0, 0, -1, 0, 594.16)" gradientUnits="userSpaceOnUse">
      <stop offset="0" stop-color="#005ba1"/>
      <stop offset="0.17" stop-color="#0063ae"/>
      <stop offset="0.58" stop-color="#0072ca"/>
      <stop offset="0.81" stop-color="#0078d4"/>
    </linearGradient>
    <linearGradient id="linear-gradient-9" x1="359.2" y1="460.6" x2="359.2" y2="482.25" xlink:href="#linear-gradient"/>
    <linearGradient id="linear-gradient-10" x1="359.2" y1="452.25" x2="359.2" y2="460.6" xlink:href="#linear-gradient-2"/>
    <linearGradient id="linear-gradient-11" x1="359.2" y1="413.15" x2="359.2" y2="434.8" xlink:href="#linear-gradient"/>
    <linearGradient id="linear-gradient-12" x1="359.2" y1="404.8" x2="359.2" y2="413.15" xlink:href="#linear-gradient-2"/>
    <linearGradient id="linear-gradient-13" x1="359.2" y1="508.05" x2="359.2" y2="529.69" xlink:href="#linear-gradient"/>
    <linearGradient id="linear-gradient-14" x1="359.2" y1="499.69" x2="359.2" y2="508.05" xlink:href="#linear-gradient-2"/>
    <linearGradient id="linear-gradient-15" x1="-2021.47" y1="485.24" x2="-2022.11" y2="459.56" gradientTransform="translate(-1400.92 594.16) rotate(180)" gradientUnits="userSpaceOnUse">
      <stop offset="0" stop-color="#32d4f5"/>
      <stop offset="0.23" stop-color="#31d0f1"/>
      <stop offset="0.46" stop-color="#2cc3e6"/>
      <stop offset="0.7" stop-color="#25afd4"/>
      <stop offset="0.94" stop-color="#1c92ba"/>
      <stop offset="1" stop-color="#198ab3"/>
    </linearGradient>
    <symbol id="_1" data-name="1" viewBox="0 0 18 18.42">
      <circle cx="9" cy="9" r="9" fill="url(#radial-gradient)"/>
      <path d="M10.19,4.71V13.3H8.83V6.38A4.69,4.69,0,0,1,8,6.82a6.87,6.87,0,0,1-1,.33V6c.22-.08.44-.15.65-.24l.63-.27L9,5.14l.65-.43Z" fill="#fff"/>
    </symbol>
    <symbol id="_3" data-name="3" viewBox="0 0 18 18.42">
      <circle cx="9" cy="9" r="9" fill="url(#radial-gradient)"/>
      <path d="M6.39,13V11.71a2.86,2.86,0,0,0,1.85.65A2.11,2.11,0,0,0,9.58,12a1.22,1.22,0,0,0,.5-1c0-.95-.73-1.43-2.18-1.43H7.24V8.43h.63c1.29,0,1.94-.45,1.94-1.35S9.3,5.84,8.29,5.84a2.42,2.42,0,0,0-1.58.61V5.24a4.05,4.05,0,0,1,2-.48,2.74,2.74,0,0,1,1.79.56,1.8,1.8,0,0,1,.67,1.44A2.06,2.06,0,0,1,9.51,8.9v0a2.23,2.23,0,0,1,1.43.63,1.93,1.93,0,0,1,.53,1.37,2.24,2.24,0,0,1-.85,1.83,3.44,3.44,0,0,1-2.24.69A3.83,3.83,0,0,1,6.39,13Z" fill="#fff"/>
    </symbol>
    <symbol id="_4" data-name="4" viewBox="0 0 18 18.42">
      <circle cx="9" cy="9" r="9" fill="url(#radial-gradient)"/>
      <path d="M11,4.9v5.43h1.25v1.13H11V13.3H9.65V11.46H5.85V10.31c.34-.38.69-.8,1.05-1.25s.71-.92,1-1.39.64-.94.93-1.41A15.17,15.17,0,0,0,9.6,4.9ZM9.65,10.33V6.8a22,22,0,0,1-1.26,2q-.63.85-1.17,1.53Z" fill="#fff"/>
    </symbol>
    <symbol id="_2" data-name="2" viewBox="0 0 18 18.42">
      <circle cx="9" cy="9" r="9" fill="url(#radial-gradient)"/>
      <path d="M11.52,13.3H6.24v-.65a2.67,2.67,0,0,1,.11-.75,3.5,3.5,0,0,1,.3-.65,3.54,3.54,0,0,1,.44-.58c.17-.18.35-.36.54-.53s.39-.33.59-.49l.58-.48c.18-.15.35-.3.5-.45a3.94,3.94,0,0,0,.38-.45,2.3,2.3,0,0,0,.24-.5A1.69,1.69,0,0,0,10,7.21a1.52,1.52,0,0,0-.1-.59,1.22,1.22,0,0,0-.29-.41A1.12,1.12,0,0,0,9.18,6a1.59,1.59,0,0,0-.55-.09,2.58,2.58,0,0,0-1.05.24,3.67,3.67,0,0,0-1,.72V5.53a3.85,3.85,0,0,1,.52-.34A3,3,0,0,1,7.63,5a2.68,2.68,0,0,1,.59-.14,3.47,3.47,0,0,1,.66,0,3.33,3.33,0,0,1,1,.15,2.1,2.1,0,0,1,.79.44,1.89,1.89,0,0,1,.51.72,2.59,2.59,0,0,1,.18,1,2.86,2.86,0,0,1-.13.91,2.53,2.53,0,0,1-.36.76,3.5,3.5,0,0,1-.56.67c-.21.21-.46.43-.73.65l-.67.54a6.57,6.57,0,0,0-.61.51,2.78,2.78,0,0,0-.44.49.93.93,0,0,0-.16.51v0h3.79Z" fill="#fff"/>
    </symbol>
    <symbol id="_5" data-name="5" viewBox="0 0 18 18.42">
      <circle cx="9" cy="9" r="9" fill="url(#radial-gradient)"/>
      <path d="M6.58,13.11V11.8a3,3,0,0,0,1.67.56,2.09,2.09,0,0,0,1.38-.44,1.43,1.43,0,0,0,.52-1.16,1.34,1.34,0,0,0-.53-1.12A2.53,2.53,0,0,0,8.1,9.25c-.23,0-.69,0-1.38.07L7,4.9h4.14V6.06h-3L8,8.16l.73,0a2.93,2.93,0,0,1,2.07.68,2.46,2.46,0,0,1,.73,1.88,2.55,2.55,0,0,1-.84,2,3.29,3.29,0,0,1-2.29.75A3.79,3.79,0,0,1,6.58,13.11Z" fill="#fff"/>
    </symbol>
  </defs>
  <g id="Shapes">
    <rect width="655" height="198" fill="#fff"/>
    <g>
      <rect x="176.87" y="1.93" width="26.34" height="194.14" fill="#fff"/>
      <rect x="176.87" y="1.93" width="26.34" height="194.14" fill="#005ba1" opacity="0.2"/>
    </g>
    <g>
      <rect x="23.15" y="100.06" width="43.28" height="28.86" rx="1.45" fill="url(#linear-gradient)"/>
      <path d="M53.49,137.66C49.2,137,49,133.89,49,128.93H40.57c0,5-.16,8.06-4.45,8.73a2.59,2.59,0,0,0-2.14,2.4H55.63A2.57,2.57,0,0,0,53.49,137.66Z" fill="url(#linear-gradient-2)"/>
    </g>
    <g>
      <path d="M36.13,140.06a2.41,2.41,0,0,0,2.42-2.41h0a.71.71,0,0,0,0-.29c-1-7.61-5.28-13.81-13.62-13.81s-12.76,5.25-13.61,13.83a2.42,2.42,0,0,0,2.15,2.68H36.13Z" fill="url(#linear-gradient-3)"/>
      <path d="M24.93,125.35a7.75,7.75,0,0,1-4.13-1.22l4.13,10.7L29,124.2A7.6,7.6,0,0,1,24.93,125.35Z" fill="#fff" opacity="0.8" style="isolation: isolate"/>
      <circle cx="24.95" cy="117.7" r="7.63" fill="url(#linear-gradient-4)"/>
    </g>
    <g>
      <rect x="123.69" y="100.35" width="132.69" height="76.99" rx="4" fill="#fff"/>
      <rect x="123.69" y="100.35" width="132.69" height="76.99" rx="4" fill="#005ba1" opacity="0.12"/>
      <rect x="123.69" y="100.35" width="132.69" height="76.99" rx="4" fill="none" stroke="#003067" stroke-width="0.8" opacity="0.15"/>
      <rect x="123.69" y="100.35" width="132.69" height="76.99" rx="4" fill="none" stroke="#003067" stroke-width="0.8" stroke-dasharray="0.8 2"/>
    </g>
    <g>
      <circle cx="123.91" cy="100.25" r="12" fill="url(#radial-gradient-6)"/>
      <circle cx="123.91" cy="100.25" r="10.34" fill="#005ba1"/>
      <path d="M124.05,101.57l-4-4a.72.72,0,0,0-1,0l-.51.5a.68.68,0,0,0,0,1l3,3-3.08,3.06a.67.67,0,0,0,0,.94h0l.51.5a.7.7,0,0,0,1,0l4.07-4a.68.68,0,0,0,0-1Zm-.49-3.19a.67.67,0,0,0,.2.48l4.07,4a.72.72,0,0,0,1,0l.5-.51a.64.64,0,0,0,.21-.47.72.72,0,0,0-.2-.48l-3.07-3,3-3a.66.66,0,0,0,.2-.48.69.69,0,0,0-.2-.47l-.51-.5a.7.7,0,0,0-1,0l-4,4a.64.64,0,0,0-.21.47Z" fill="#f2f2f2"/>
    </g>
    <g>
      <line x1="70.83" y1="124.91" x2="163.92" y2="124.91" fill="none" stroke="#3c3c41" stroke-miterlimit="10"/>
      <polygon points="162.83 128.65 169.31 124.91 162.83 121.17 162.83 128.65" fill="#3c3c41"/>
    </g>
    <use width="18" height="18.42" transform="translate(84.03 115.7)" xlink:href="#_1"/>
    <g>
      <rect x="143.03" y="1.93" width="94.01" height="60.13" fill="#fff"/>
      <rect x="143.03" y="1.93" width="94.01" height="60.13" fill="#505050" opacity="0.14"/>
      <rect x="143.03" y="1.93" width="94.01" height="60.13" fill="none" stroke="#505050" stroke-width="0.25"/>
    </g>
    <g>
      <g>
        <path d="M214.87,34.11H201.54a.84.84,0,0,0-.83.84v3.54l7.5,2.19,7.5-2.19V35A.85.85,0,0,0,214.87,34.11Z" fill="#41a5ee"/>
        <polygon points="215.71 38.49 200.71 38.49 200.71 42.86 208.21 45.05 215.71 42.86 215.71 38.49" fill="#2b7cd3"/>
        <polygon points="215.71 42.86 200.71 42.86 200.71 47.24 208.21 49.42 215.71 47.24 215.71 42.86" fill="#185abd"/>
        <path d="M215.71,47.24h-15v3.54a.83.83,0,0,0,.83.83h13.33a.84.84,0,0,0,.84-.83Z" fill="#103f91"/>
        <path d="M206.12,37.24h-5.41V49.11h5.41a.84.84,0,0,0,.84-.83V38.07A.84.84,0,0,0,206.12,37.24Z" opacity="0.1" style="isolation: isolate"/>
        <path d="M205.5,37.86h-4.79V49.74h4.79a.84.84,0,0,0,.83-.84V38.7A.84.84,0,0,0,205.5,37.86Z" opacity="0.2" style="isolation: isolate"/>
        <path d="M205.5,37.86h-4.79V48.49h4.79a.84.84,0,0,0,.83-.84V38.7A.84.84,0,0,0,205.5,37.86Z" opacity="0.2" style="isolation: isolate"/>
        <path d="M204.87,37.86h-4.16V48.49h4.16a.85.85,0,0,0,.84-.84V38.7A.85.85,0,0,0,204.87,37.86Z" opacity="0.2" style="isolation: isolate"/>
        <rect x="195.71" y="37.86" width="10" height="10" rx="0.83" fill="#185abd"/>
        <path d="M203.18,46h-1.13l-1.31-4.31L199.36,46h-1.12L197,39.74h1.12l.88,4.37,1.31-4.25h.94l1.25,4.25.87-4.37h1.07Z" fill="#fff"/>
        <rect x="195.71" y="32.86" width="20" height="20" fill="none"/>
      </g>
      <g>
        <path d="M178.31,33.86h-7.2a.75.75,0,0,0-.8.67v3.33l8,5,3.5,1.5,3.5-1.5v-5Z" fill="#21a366"/>
        <rect x="165.31" y="32.86" width="20" height="20" fill="none"/>
        <rect x="170.31" y="37.86" width="8" height="5" fill="#107c41"/>
        <path d="M185.31,34.68v3.18h-7v-4h6.17A.84.84,0,0,1,185.31,34.68Z" fill="#33c481"/>
        <path d="M178.31,42.86h-8V51a.83.83,0,0,0,.83.83h13.33a.84.84,0,0,0,.84-.83V47.86Z" fill="#185c37"/>
        <rect x="178.31" y="42.86" width="7" height="5" fill="#107c41"/>
        <path d="M177.27,37.86h-7v12h6.76a1.32,1.32,0,0,0,1.24-1.16V38.86A1,1,0,0,0,177.27,37.86Z" opacity="0.5" style="isolation: isolate"/>
        <rect x="165.31" y="36.86" width="12" height="12" rx="1" fill="#107c41"/>
        <path d="M168.07,46.49l2.34-3.64-2.14-3.61H170l1.18,2.31a5,5,0,0,1,.22.49h0a4,4,0,0,1,.24-.51l1.25-2.29h1.59l-2.21,3.59,2.26,3.66h-1.68L171.5,44a2.11,2.11,0,0,1-.16-.34h0a1.26,1.26,0,0,1-.16.33l-1.39,2.55Z" fill="#fff"/>
      </g>
    </g>
    <g>
      <polygon points="2.56 103.25 10.29 108.27 18.16 103.23 19.15 104.38 10.29 110.08 1.57 104.38 2.56 103.25" fill="#50e6ff"/>
      <polygon points="3.14 102.6 10.29 94.08 17.59 102.61 10.29 107.22 3.14 102.6" fill="#fff"/>
      <polygon points="10.29 94.08 10.29 107.22 3.14 102.6 10.29 94.08" fill="#50e6ff"/>
      <polygon points="10.29 94.08 10.29 107.22 17.59 102.61 10.29 94.08" fill="url(#linear-gradient-5)"/>
      <polygon points="10.29 100.87 17.59 102.61 10.29 107.22 10.29 100.87" fill="#53b1e0"/>
      <polygon points="10.29 107.22 3.14 102.6 10.29 100.87 10.29 107.22" fill="#9cebff"/>
      <polygon points="10.29 110.08 19.15 104.38 18.16 103.23 10.29 108.27 10.29 110.08" fill="url(#linear-gradient-6)"/>
    </g>
    <g>
      <path d="M174.37,114.33h31.17c.41,0,.74.12.74.28v20c0,.16-.33.28-.74.28H174.37c-.4,0-.73-.12-.73-.28v-20C173.64,114.45,174,114.33,174.37,114.33Z" fill-opacity="0.5" fill="url(#linear-gradient-7)"/>
      <g>
        <path d="M174.48,115.73a.73.73,0,0,1,.72-.73h29.68a.73.73,0,0,1,.72.73v17.55a.72.72,0,0,1-.72.72H175.2a.72.72,0,0,1-.72-.72Zm-1.64-.85v19.2a1.55,1.55,0,0,0,1.55,1.56h31.3a1.56,1.56,0,0,0,1.55-1.56v-19.2a1.55,1.55,0,0,0-1.55-1.55h-31.3A1.54,1.54,0,0,0,172.84,114.88Z" fill="#1a1a1f" fill-rule="evenodd"/>
        <path d="M171.57,137.29H208.5a.41.41,0,0,1,.41.41v1.22a.41.41,0,0,1-.41.41H171.57a.42.42,0,0,1-.41-.41V137.7A.42.42,0,0,1,171.57,137.29Z" fill="#1a1a1f" fill-rule="evenodd"/>
        <path d="M185.82,138h8.43a.13.13,0,0,1,.12.12v.35a.12.12,0,0,1-.12.12h-8.43a.11.11,0,0,1-.11-.12v-.35A.12.12,0,0,1,185.82,138Z" fill="#fff" fill-rule="evenodd"/>
      </g>
    </g>
    <g>
      <rect x="322.71" y="53.94" width="74.65" height="142.06" fill="#fff"/>
      <rect x="322.71" y="53.94" width="74.65" height="142.06" fill="#9cebff" opacity="0.2"/>
      <path d="M397.28,54V195.92h-74.5V54h74.5m.15-.15h-74.8V196.07h74.8V53.86Z" fill="#198ab3"/>
    </g>
    <g>
      <rect x="327.03" y="103.26" width="66" height="48.4" fill="#fff"/>
      <rect x="327.03" y="103.26" width="66" height="48.4" fill="#9cebff" opacity="0.7"/>
    </g>
    <g>
      <rect x="578.31" y="54.08" width="75" height="103.18" fill="#fff"/>
      <rect x="578.31" y="54.08" width="75" height="103.18" fill="#0078d4" opacity="0.1"/>
      <rect x="578.31" y="54.08" width="75" height="103.18" fill="none" stroke="#005ba1" stroke-width="0.25"/>
    </g>
    <g id="f296cd5a-787e-4f7b-ae7d-f8e4c512e403">
      <g>
        <circle cx="321.43" cy="53.66" r="12" fill="url(#linear-gradient-8)"/>
        <g id="b26dad0a-3648-4f5e-b5e8-d86f08f4d08c">
          <g id="bf235d1c-b690-40eb-8a79-cf880451778d">
            <g id="bcd9163a-c4d8-4e54-8c97-4a109bf64f75">
              <path id="e49dfb7e-134a-43bd-83fc-ab356cb14af0" d="M327.15,50.32V57l-5.74,3.34V53.65Z" fill="#32bedd"/>
            </g>
            <g id="a5b973ff-f0b7-405d-8643-344e4c6197bf">
              <path id="b4b89f14-a55a-428c-a4ac-415feb735142" d="M327.15,50.32l-5.73,3.34-5.74-3.34L321.42,47Z" fill="#9cebff"/>
            </g>
            <g id="adac1240-6aa9-4f15-96e4-37e67d1c6c71">
              <path id="f65d8fa4-1c52-4beb-89ef-75de96e9143e" d="M321.41,53.66v6.65L315.68,57V50.32Z" fill="#50e6ff"/>
            </g>
            <path id="b5d243da-3c58-4a56-96f0-5072c268eecc" d="M315.68,57l5.73-3.32v6.66Z" fill="#9cebff"/>
            <path id="f11f8f15-8a95-4259-8c1e-cffcafd2ea60" d="M327.15,57l-5.74-3.32v6.66Z" fill="#50e6ff"/>
          </g>
        </g>
      </g>
    </g>
    <g>
      <rect x="342.96" y="111.91" width="32.47" height="21.65" rx="1.08" fill="url(#linear-gradient-9)"/>
      <polygon points="364.61 119.58 364.61 125.87 359.2 129.05 359.2 122.73 364.61 119.58" fill="#50e6ff"/>
      <polygon points="364.61 119.58 359.2 122.75 353.79 119.58 359.2 116.42 364.61 119.58" fill="#c3f1ff"/>
      <polygon points="359.2 122.75 359.2 129.05 353.79 125.87 353.79 119.58 359.2 122.75" fill="#9cebff"/>
      <polygon points="353.79 125.87 359.2 122.73 359.2 129.05 353.79 125.87" fill="#c3f1ff"/>
      <polygon points="364.61 125.87 359.2 122.73 359.2 129.05 364.61 125.87" fill="#9cebff"/>
      <path d="M365.71,140.11c-3.21-.51-3.34-2.82-3.34-6.55H356c0,3.73-.1,6-3.31,6.55a1.8,1.8,0,0,0-1.61,1.8h16.24A1.81,1.81,0,0,0,365.71,140.11Z" fill="url(#linear-gradient-10)"/>
    </g>
    <g>
      <rect x="342.96" y="159.36" width="32.47" height="21.65" rx="1.08" fill="url(#linear-gradient-11)"/>
      <polygon points="364.61 167.02 364.61 173.32 359.2 176.49 359.2 170.18 364.61 167.02" fill="#50e6ff"/>
      <polygon points="364.61 167.02 359.2 170.2 353.79 167.02 359.2 163.87 364.61 167.02" fill="#c3f1ff"/>
      <polygon points="359.2 170.2 359.2 176.49 353.79 173.32 353.79 167.02 359.2 170.2" fill="#9cebff"/>
      <polygon points="353.79 173.32 359.2 170.18 359.2 176.49 353.79 173.32" fill="#c3f1ff"/>
      <polygon points="364.61 173.32 359.2 170.18 359.2 176.49 364.61 173.32" fill="#9cebff"/>
      <path d="M365.71,187.55c-3.21-.5-3.34-2.81-3.34-6.55H356c0,3.74-.1,6.05-3.31,6.55a1.8,1.8,0,0,0-1.61,1.81h16.24A1.81,1.81,0,0,0,365.71,187.55Z" fill="url(#linear-gradient-12)"/>
    </g>
    <g>
      <rect x="342.96" y="64.46" width="32.47" height="21.65" rx="1.08" fill="url(#linear-gradient-13)"/>
      <polygon points="364.61 72.13 364.61 78.42 359.2 81.6 359.2 75.29 364.61 72.13" fill="#50e6ff"/>
      <polygon points="364.61 72.13 359.2 75.31 353.79 72.13 359.2 68.97 364.61 72.13" fill="#c3f1ff"/>
      <polygon points="359.2 75.31 359.2 81.6 353.79 78.42 353.79 72.13 359.2 75.31" fill="#9cebff"/>
      <polygon points="353.79 78.42 359.2 75.29 359.2 81.6 353.79 78.42" fill="#c3f1ff"/>
      <polygon points="364.61 78.42 359.2 75.29 359.2 81.6 364.61 78.42" fill="#9cebff"/>
      <path d="M365.71,92.66c-3.21-.51-3.34-2.82-3.34-6.55H356c0,3.73-.1,6-3.31,6.55a1.8,1.8,0,0,0-1.61,1.8h16.24A1.81,1.81,0,0,0,365.71,92.66Z" fill="url(#linear-gradient-14)"/>
    </g>
    <g id="bce83c25-9afe-4c01-b0b0-4312ccacb0c8">
      <g>
        <path d="M634.19,110.76h-2a8.28,8.28,0,0,0-1.22,0,1.51,1.51,0,0,1-1.49-1.53,1.39,1.39,0,0,1,.18-.69l.86-1.56a4.07,4.07,0,0,0-1.13-.64L627.3,110a1.53,1.53,0,0,1-1.33.78h-1.84a1.47,1.47,0,0,0-.71.18h0l-3.48,2.22a.56.56,0,0,1-.36,0H607.53a.65.65,0,0,0-.61.68v10.73l-3.89,1.2.29,1.24,3.6-.53V133a.65.65,0,0,0,.64.65h20.8l2.55,3.31,1.09-.69-1.51-2.62h3.73a.65.65,0,0,0,.67-.62V111.42a.67.67,0,0,0-.67-.66Z" fill="#005ba1"/>
        <circle cx="631.08" cy="104.5" r="2.42" fill="#50e5ff"/>
        <circle cx="632.63" cy="138.93" r="3.15" fill="#50e5ff"/>
        <circle cx="599.76" cy="127.49" r="3.93" fill="#50e5ff"/>
        <g>
          <path d="M629.5,112.64l-15.34-2.22h-.31a2.22,2.22,0,0,0-2.22,1.94l-.57,3.75h20.28v-.91a2.22,2.22,0,0,0-1.83-2.55Z" fill="#0078d4"/>
          <path d="M629.35,113.6,614,111.38h-.2a1.27,1.27,0,0,0-1.26,1.11l-.54,3.62h18.25l.15-1a1.27,1.27,0,0,0-1.08-1.46Z" fill="#fff"/>
        </g>
        <path d="M607.5,113.2h13.43a.74.74,0,0,1,.47.2l2.22,2.22a.63.63,0,0,0,.47.2H634.3a.66.66,0,0,1,.66.64V133a.66.66,0,0,1-.66.65H607.66a.65.65,0,0,1-.73-.55V113.91A.66.66,0,0,1,607.5,113.2Z" fill="url(#linear-gradient-15)"/>
      </g>
    </g>
    <g>
      <line x1="211.43" y1="124.91" x2="331.52" y2="124.91" fill="none" stroke="#3c3c41" stroke-miterlimit="10"/>
      <polygon points="330.43 128.65 336.91 124.91 330.43 121.17 330.43 128.65" fill="#3c3c41"/>
    </g>
    <g>
      <line x1="380.16" y1="124.91" x2="585.7" y2="124.91" fill="none" stroke="#3c3c41" stroke-miterlimit="10"/>
      <polygon points="584.6 128.65 591.08 124.91 584.6 121.17 584.6 128.65" fill="#3c3c41"/>
    </g>
    <g>
      <path d="M591.06,107.1l-.23-.41.88-.49.24.45Z" fill="#3c3c41"/>
      <path d="M391.58,108.45l-.43-.9.89-.43.44.9Zm2.24-1.08-.43-.9.9-.43.43.91Zm2.25-1.06-.43-.91.9-.42.43.9Zm194-.88-.54-.82.83-.56.56.85Zm-191.76-.18-.43-.91.91-.42.42.91Zm2.25-1-.42-.91.91-.41.41.91Zm188.13-.8-.59-.79.8-.6c.21.28.41.54.59.8Zm-185.87-.24-.41-.91.9-.41.42.91Zm2.27-1-.42-.91.91-.41.41.91Zm182.1-.7c-.21-.24-.41-.5-.63-.76l.77-.64q.33.39.63.78Zm-179.83-.31-.41-.92.91-.4.41.91Zm2.27-1-.4-.91.91-.4.4.92Zm176-.56-.66-.74.74-.67c.23.25.46.5.67.75Zm-173.68-.43-.4-.91.92-.4.39.92Zm2.28-1-.39-.92.92-.38.39.92Zm169.73-.41-.69-.7.71-.71.7.72Zm-167.44-.55-.38-.92.92-.39.38.93Zm2.3-1-.38-.93.92-.38.38.93ZM582.18,96l-.72-.68.69-.73.72.69Zm-161.09-.71-.37-.92.92-.38.37.93Zm2.31-.92-.37-.93.92-.37.37.93Zm157-.05-.75-.65.66-.75.75.66Zm-154.66-.87-.37-.93.93-.36.36.93Zm152.78-.73c-.25-.21-.5-.42-.76-.62l.62-.78.78.63ZM428,92.55l-.36-.93.93-.36.35.94Zm2.32-.88-.36-.94.94-.35.35.94Zm146.21-.49-.79-.59.6-.81.79.61ZM432.67,90.8l-.34-.94.93-.35.35.94Zm2.34-.86-.34-.94.93-.34.34.94Zm139.56-.23-.81-.56.57-.83.82.58ZM437.35,89.1l-.34-.94.94-.34.33,1Zm135.18-.78-.83-.54.54-.84.84.54Zm-132.84,0-.33-.94.94-.33.33,1Zm2.35-.81-.32-.94.94-.32.32.94ZM570.45,87l-.85-.51.52-.86.85.52Zm-126.06-.32-.31-1,.95-.31.31,1Zm2.37-.78-.31-1,.95-.3.3,1Zm121.56-.16-.86-.49.48-.87.88.49Zm-119.2-.59-.3-1,.95-.3.3,1Zm117-.6c-.28-.16-.58-.31-.87-.46l.46-.89.88.46ZM451.49,84.4l-.29-1,.95-.29.29.95Zm2.38-.73-.29-1,1-.28.28,1ZM564,83.41l-.89-.43.43-.9c.31.14.61.29.9.44ZM456.25,83,456,82l1-.28.28,1Zm105.47-.61-.91-.41.41-.91.91.41Zm-103.08-.07-.27-1,1-.27.27,1Zm2.4-.67-.27-1,1-.27.26,1Zm98.41-.25-.91-.38.37-.93.93.38Zm-96-.39-.25-1,1-.25.25,1Zm93.73-.54-.93-.35.35-.94.94.36Zm-91.32-.09-.25-1,1-.25.24,1Zm2.41-.6-.24-1,1-.23.23,1Zm86.59-.17-.94-.33.33-.94.94.33Zm-84.18-.41-.22-1,1-.23.22,1Zm81.83-.39-.94-.3.3-1,.95.3Zm-79.41-.16-.21-1,1-.21.21,1Zm2.43-.53-.21-1,1-.21.2,1Zm74.62,0-1-.28.27-1,1,.28Zm-72.19-.47-.2-1,1-.2.19,1Zm69.81-.21-1-.25.25-1,1,.26Zm-67.37-.28-.19-1,1-.18.18,1Zm65-.33-1-.24.23-1,1,.23Zm-62.53-.12-.18-1,1-.17.17,1Zm2.44-.43-.17-1,1-.16.16,1Zm57.68,0L542,76l.21-1,1,.21Zm-55.23-.4-.16-1,1-.16.15,1Zm52.8-.11-1-.18.18-1,1,.18Zm-50.35-.26-.14-1,1-.14.14,1Zm47.92-.18-1-.17.16-1,1,.16Zm-45.46-.17-.13-1,1-.13.13,1Zm43-.23-1-.14.14-1,1,.14Zm-40.54-.08-.13-1,1-.11.11,1Zm38.09-.26-1-.12.12-1,1,.12Zm-35.63,0-.11-1,1-.11.11,1Zm2.47-.25-.09-1,1-.09.09,1Zm30.7,0-1-.1.1-1,1,.11ZM502.49,74l-.08-1,1-.07.08,1Zm25.76,0-1-.09.08-1,1,.08ZM505,73.83l-.07-1,1-.07.07,1Zm20.81,0-1-.06.06-1,1,.06Zm-18.34-.1-.05-1,1-.05,0,1Zm15.87-.05-1,0,0-1,1,0Zm-13.39-.07,0-1,1,0,0,1Zm10.91,0-1,0,0-1,1,0Zm-8.43,0,0-1,1,0v1Zm6,0-1,0v-1l1,0Zm-3.47,0v-1h1v1Z" fill="#3c3c41"/>
      <polygon points="389.75 109.34 389.31 108.44 389.76 108.22 390.2 109.12 389.75 109.34" fill="#3c3c41"/>
      <polygon points="388.92 105.1 384.71 111.28 392.16 111.84 388.92 105.1" fill="#3c3c41"/>
    </g>
    <g>
      <path d="M591.71,144l-.88-.49.23-.42.89.45Z" fill="#3c3c41"/>
      <path d="M515.87,177.78h-1v-1h1Zm1.5,0v-1h1l0,1Zm-4,0-1,0,0-1,1,0Zm6.49,0,0-1,1,0,0,1Zm-9,0-1,0,0-1,1,0Zm11.48-.06,0-1,1,0,.05,1Zm-14,0-1,0,.05-1,1,0Zm16.46-.09-.06-1,1-.07.07,1Zm-19,0-1-.06.07-1,1,.06Zm21.45-.13-.08-1,1-.08.09,1Zm-23.94,0-1-.08.08-1,1,.08Zm26.43-.19-.1-1,1-.11.11,1Zm-28.91,0-1-.09.09-1,1,.1Zm-2.49-.24-1-.1.11-1,1,.11Zm33.89,0-.12-1,1-.13.13,1ZM496,176.57l-1-.12.13-1,1,.12Zm38.83-.07-.14-1,1-.14.15,1Zm-41.31-.24-1-.13.13-1,1,.13Zm43.78-.13-.16-1,1-.16.17,1Zm-46.25-.2-1-.14.14-1,1,.14Zm48.71-.23-.18-1,1-.19.2,1Zm-51.18-.14-1-.15.16-1,1,.16Zm53.64-.35-.21-1,1-.2.21,1C542.83,175.08,542.5,175.14,542.18,175.21Zm-56.1,0-1-.17.17-1,1,.16Zm-2.46-.42-1-.18.18-1,1,.17Zm61-.08-.23-1,1-.23.24,1Zm-63.45-.37-1-.19.19-1,1,.19Zm65.87-.23-.25-1,1-.26.26,1Zm-68.32-.25-1-.19.2-1,1,.19Zm70.73-.4-.27-1,1-.27.29,1Zm-73.17-.1-1-.2.21-1,1,.21Zm-2.44-.52-1-.22.21-1,1,.21Zm78-.1-.3-1,.94-.3.31.95Zm-80.44-.45-1-.23.22-1,1,.23Zm82.82-.33-.33-.95.94-.33.33,1ZM469,171.68l-1-.24.24-1,1,.24Zm-2.42-.6-1-.24.25-1,1,.24Zm90,0-.35-.94.93-.35.36.94Zm-92.44-.6-1-.26.25-1,1,.25Zm94.77-.31-.37-.92.91-.38.39.92Zm-97.18-.33-1-.26.27-1,.95.26Zm99.49-.64-.41-.92.91-.4.41.91Zm-101.89,0-1-.27.27-1,1,.27Zm-2.4-.68-1-.28.28-1,1,.28Zm106.56-.35-.43-.9.89-.43.44.9Zm-108.95-.35-1-.28.29-1,.95.29Zm-2.39-.71-.95-.3.29-.95.95.29ZM565.74,167l-.46-.88.87-.46.47.88Zm-116-.69-.95-.3.3-.95.95.3Zm118.17-.48-.48-.88.86-.48.5.86Zm-120.54-.27-.95-.31.31-.95.94.31Zm-2.37-.77-.95-.32.31-.95.95.32Zm125.09-.21-.52-.86.85-.51.52.85ZM442.66,164l-.94-.32.32-1,.94.32Zm129.58-.74-.54-.84.83-.54.55.83Zm-131.94-.07-.94-.32.33-1,.94.33ZM438,162.4l-.94-.33.34-.94.93.33Zm136.38-.5-.57-.82.81-.57.58.81Zm-138.73-.34-.93-.34.34-.94.93.34Zm-2.34-.85-.93-.34.34-.94.94.34Zm143.11-.27-.6-.8.79-.6.6.8Zm-145.44-.6-.94-.35.36-.93.93.35ZM428.6,159l-.93-.36.36-.93.92.36Zm149.75-.05-.62-.78.76-.62.64.77Zm-152.08-.85-.93-.36.37-.93.92.36Zm154-.75-.66-.76c.26-.22.51-.43.75-.65l.66.75ZM424,157.15l-.92-.36.37-.93.92.36Zm-2.31-.92-.92-.37.37-.93.92.37Zm160.51-.59-.69-.74c.25-.22.49-.45.72-.68l.69.73Zm-162.82-.35-.92-.38.38-.92.92.38Zm-2.3-.95-.92-.38.38-.92.92.38ZM584,153.89l-.71-.7.69-.71.72.69Zm-169.22-.51-.92-.39.39-.92.92.39Zm-2.29-1-.92-.39.4-.92.91.39Zm173.24-.33-.74-.67c.23-.25.45-.49.66-.74l.75.67Zm-175.53-.65-.91-.4.4-.92.91.4Zm-2.28-1L407,150l.41-.91.91.4Zm179.47-.24-.77-.64.63-.76.77.63Zm-181.75-.78-.91-.4.42-.92.9.41Zm-2.27-1-.9-.41.41-.91.91.41Zm185.59-.16-.8-.6.59-.8.8.59C589.32,147.67,589.12,147.94,588.91,148.22Zm-187.85-.87-.91-.42.42-.91.9.42Zm-2.26-1-.91-.42.43-.9.9.42Zm191.57-.13-.83-.56.54-.82.85.54C590.76,145.58,590.58,145.87,590.37,146.17Zm-193.83-.92-.9-.43.43-.9.9.42Zm-2.25-1.07-.9-.43.43-.9.9.43ZM392,143.11l-.89-.44.43-.9.9.43Z" fill="#3c3c41"/>
      <polygon points="389.76 142 389.31 141.78 389.75 140.88 390.2 141.1 389.76 142" fill="#3c3c41"/>
      <polygon points="392.16 138.39 384.71 138.95 388.92 145.13 392.16 138.39" fill="#3c3c41"/>
    </g>
    <g>
      <rect x="483.53" y="45.48" width="70" height="65.8" fill="#fff"/>
      <rect x="483.53" y="45.48" width="70" height="65.8" fill="#505050" opacity="0.14"/>
      <rect x="483.53" y="45.48" width="70" height="65.8" fill="none" stroke="#505050" stroke-width="0.25"/>
    </g>
    <g>
      <rect x="483.53" y="137.88" width="70" height="58.19" fill="#fff"/>
      <rect x="483.53" y="137.88" width="70" height="58.19" fill="#505050" opacity="0.14"/>
      <rect x="483.53" y="137.88" width="70" height="58.19" fill="none" stroke="#505050" stroke-width="0.25"/>
    </g>
    <use width="18" height="18.42" transform="translate(431.48 77.67)" xlink:href="#_3"/>
    <use width="18" height="18.42" transform="translate(431.48 154.65)" xlink:href="#_4"/>
    <g>
      <path d="M512.57,165.34a.89.89,0,0,1,.67.28.87.87,0,0,1,.28.66v18.11a.91.91,0,0,1-.28.67.93.93,0,0,1-.67.28H497.33a.93.93,0,0,1-.67-.28.91.91,0,0,1-.28-.67v-3.34h-4.77a.91.91,0,0,1-.67-.28.93.93,0,0,1-.28-.67v-9.53a1,1,0,0,1,.28-.67.91.91,0,0,1,.67-.28h4.77v-3.34a.87.87,0,0,1,.28-.66.89.89,0,0,1,.67-.28Zm-16.19,11.21,1.35,2.54h2l-2.26-3.69,2.22-3.61h-2l-1.25,2.29,0,.06,0,.09c-.2-.41-.41-.81-.62-1.22s-.41-.81-.62-1.22h-2.08l2.17,3.64-2.37,3.66H495Zm7.86,7.36v-2.86h-6.43v2.86Zm0-4.29v-3.57h-2.15v3.57Zm0-5v-3.57h-2.15v3.57Zm0-5v-2.86h-6.43v2.86Zm7.85,14.29v-2.86h-6.43v2.86Zm0-4.29v-3.57h-6.43v3.57Zm0-5v-3.57h-6.43v3.57Zm0-5v-2.86h-6.43v2.86Z"/>
      <path d="M544.6,165.34a.91.91,0,0,1,.67.28.87.87,0,0,1,.28.66v18.11a.91.91,0,0,1-.28.67,1,1,0,0,1-.67.28H529.35a1,1,0,0,1-.67-.28.94.94,0,0,1-.27-.67v-3.34h-4.77a.91.91,0,0,1-.67-.28.89.89,0,0,1-.28-.67v-9.53a1,1,0,0,1,.95-.95h4.77v-3.34a.94.94,0,0,1,.94-.94Zm-16.16,9.24,1.37,4.51h1.56l1.5-7.5H531.3l-.9,4.43-1.26-4.29h-1.33L526.47,176l-.89-4.45h-1.64l1.5,7.5H527Zm15.68,9.33v-2.86H529.83v2.86Zm0-4.29v-3.57h-10v3.57Zm0-5v-3.57h-10v3.57Zm0-5v-2.86H529.83v2.86Z"/>
    </g>
    <use width="18" height="18.42" transform="translate(274.31 115.7)" xlink:href="#_2"/>
    <g>
      <path d="M333.43,112.25S301.8,69.4,242.2,50.65" fill="none" stroke="#3c3c41" stroke-miterlimit="10"/>
      <polygon points="244.35 47.51 237.04 49.11 242.08 54.64 244.35 47.51" fill="#3c3c41"/>
    </g>
    <use width="18" height="18.42" transform="translate(274.31 60.76)" xlink:href="#_5"/>
  </g>
  <g id="Text">
    <g>
      <path d="M31.07,153.86q0,3.54-3.19,3.54T24.82,154v-5.14h1v5.07c0,1.73.72,2.59,2.18,2.59s2.1-.83,2.1-2.5v-5.16h1Z" fill="#231f20"/>
      <path d="M32.53,157.05v-1a2.84,2.84,0,0,0,1.73.58c.84,0,1.27-.28,1.27-.84a.76.76,0,0,0-.11-.41.93.93,0,0,0-.3-.29,1.59,1.59,0,0,0-.43-.23l-.53-.22a6,6,0,0,1-.71-.32,2.14,2.14,0,0,1-.5-.36,1.26,1.26,0,0,1-.3-.46,1.57,1.57,0,0,1-.11-.6,1.45,1.45,0,0,1,.2-.75,1.78,1.78,0,0,1,.51-.55,2.77,2.77,0,0,1,.74-.33,3.41,3.41,0,0,1,.85-.11,3.46,3.46,0,0,1,1.4.27v1a2.82,2.82,0,0,0-1.53-.43,1.75,1.75,0,0,0-.48.06,1.33,1.33,0,0,0-.38.17,1,1,0,0,0-.24.27.81.81,0,0,0-.08.34,1,1,0,0,0,.08.4.94.94,0,0,0,.25.28,2.11,2.11,0,0,0,.4.22l.53.22a6.21,6.21,0,0,1,.72.31,2.82,2.82,0,0,1,.54.36,1.41,1.41,0,0,1,.34.47,1.51,1.51,0,0,1,.12.63,1.41,1.41,0,0,1-.2.77,1.7,1.7,0,0,1-.52.55,2.49,2.49,0,0,1-.76.32,3.68,3.68,0,0,1-.89.1A3.54,3.54,0,0,1,32.53,157.05Z" fill="#231f20"/>
      <path d="M42.79,154.5H38.55a2.28,2.28,0,0,0,.54,1.55,1.88,1.88,0,0,0,1.42.54,2.94,2.94,0,0,0,1.86-.66v.9a3.47,3.47,0,0,1-2.09.57,2.56,2.56,0,0,1-2-.81,3.39,3.39,0,0,1-.72-2.3,3.29,3.29,0,0,1,.79-2.29,2.58,2.58,0,0,1,2-.88,2.27,2.27,0,0,1,1.82.76,3.2,3.2,0,0,1,.65,2.12Zm-1-.81a1.91,1.91,0,0,0-.4-1.3,1.36,1.36,0,0,0-1.1-.46,1.54,1.54,0,0,0-1.15.49,2.19,2.19,0,0,0-.59,1.27Z" fill="#231f20"/>
      <path d="M47.37,152.24a1.18,1.18,0,0,0-.73-.2,1.22,1.22,0,0,0-1,.58,2.67,2.67,0,0,0-.42,1.58v3.06h-1v-6h1v1.24h0a2.08,2.08,0,0,1,.62-1,1.47,1.47,0,0,1,.95-.35,1.44,1.44,0,0,1,.57.08Z" fill="#231f20"/>
    </g>
    <g>
      <path d="M607.59,72.6h-2.06l-.6-1.86h-3l-.59,1.86H599.3l3.06-8.4h2.24Zm-3.09-3.32-.91-2.82a4.51,4.51,0,0,1-.14-.76h0a3.06,3.06,0,0,1-.15.73l-.91,2.85Z" fill="#1e1e1e"/>
      <path d="M613.52,72.6h-5.39v-.76l3-3.87h-2.71V66.6h5.06v.92l-2.85,3.72h2.88Z" fill="#1e1e1e"/>
      <path d="M620.28,72.6h-1.84v-.91h0a2.09,2.09,0,0,1-1.84,1.06c-1.39,0-2.08-.84-2.08-2.52V66.6h1.84v3.46c0,.85.34,1.27,1,1.27a1,1,0,0,0,.8-.35,1.38,1.38,0,0,0,.3-.94V66.6h1.84Z" fill="#1e1e1e"/>
      <path d="M625.72,68.27a1.61,1.61,0,0,0-.78-.18,1.12,1.12,0,0,0-.94.45,1.88,1.88,0,0,0-.34,1.2V72.6h-1.85v-6h1.85v1.12h0a1.61,1.61,0,0,1,1.58-1.22,1.14,1.14,0,0,1,.46.07Z" fill="#1e1e1e"/>
      <path d="M632.05,70.13h-3.91c.06.87.61,1.31,1.64,1.31a3.24,3.24,0,0,0,1.74-.47v1.34a4.63,4.63,0,0,1-2.16.44,2.78,2.78,0,0,1-3.06-3,3.2,3.2,0,0,1,.87-2.37,2.9,2.9,0,0,1,2.13-.87,2.62,2.62,0,0,1,2,.78,3,3,0,0,1,.72,2.11ZM630.33,69c0-.85-.34-1.28-1-1.28a1,1,0,0,0-.77.37,1.65,1.65,0,0,0-.4.91Z" fill="#1e1e1e"/>
      <path d="M594.62,79.54a2,2,0,0,0-.68-.14c-.6,0-.9.32-.9,1V81h1.38v1.37H593V87H591.2V82.37h-1V81h1v-.74a2.15,2.15,0,0,1,.67-1.65,2.52,2.52,0,0,1,1.81-.63,3.11,3.11,0,0,1,.94.12Z" fill="#1e1e1e"/>
      <path d="M596.39,80.06a1.12,1.12,0,0,1-.77-.28.92.92,0,0,1-.3-.69.88.88,0,0,1,.3-.68,1.16,1.16,0,0,1,.77-.26,1.14,1.14,0,0,1,.77.26.88.88,0,0,1,.3.68.89.89,0,0,1-.3.7A1.1,1.1,0,0,1,596.39,80.06ZM597.3,87h-1.85V81h1.85Z" fill="#1e1e1e"/>
      <path d="M600.69,87h-1.86V78.12h1.86Z" fill="#1e1e1e"/>
      <path d="M607.65,84.53h-3.91c.06.87.61,1.31,1.64,1.31a3.24,3.24,0,0,0,1.74-.47v1.34a4.63,4.63,0,0,1-2.16.44,2.79,2.79,0,0,1-3.06-3.05,3.2,3.2,0,0,1,.87-2.37,2.9,2.9,0,0,1,2.13-.87,2.6,2.6,0,0,1,2,.78,3,3,0,0,1,.72,2.11Zm-1.71-1.14c0-.85-.35-1.28-1.05-1.28a1,1,0,0,0-.77.36,1.71,1.71,0,0,0-.39.92Z" fill="#1e1e1e"/>
      <path d="M611.67,86.85v-1.5a4.27,4.27,0,0,0,.91.41,3,3,0,0,0,.86.13,1.86,1.86,0,0,0,.78-.13.43.43,0,0,0,.28-.41.38.38,0,0,0-.13-.3,1,1,0,0,0-.33-.2,3.72,3.72,0,0,0-.44-.16c-.16,0-.32-.1-.46-.16a3.71,3.71,0,0,1-.63-.29,1.67,1.67,0,0,1-.46-.36,1.4,1.4,0,0,1-.28-.47,1.79,1.79,0,0,1-.1-.64,1.61,1.61,0,0,1,.22-.87,1.75,1.75,0,0,1,.59-.59,2.43,2.43,0,0,1,.84-.34,3.93,3.93,0,0,1,1-.11,5.73,5.73,0,0,1,.81.06,5.45,5.45,0,0,1,.8.18v1.43a2.76,2.76,0,0,0-.75-.31,3.11,3.11,0,0,0-.79-.1,1.87,1.87,0,0,0-.34,0,1,1,0,0,0-.28.09.54.54,0,0,0-.2.16.44.44,0,0,0-.07.22.41.41,0,0,0,.11.28.79.79,0,0,0,.27.2l.38.16.41.13a4.65,4.65,0,0,1,.67.29,2.18,2.18,0,0,1,.51.35,1.29,1.29,0,0,1,.33.48,1.69,1.69,0,0,1,.12.66,1.73,1.73,0,0,1-.23.91,1.93,1.93,0,0,1-.62.62,3,3,0,0,1-.88.34,5.1,5.1,0,0,1-1,.11A5.46,5.46,0,0,1,611.67,86.85Z" fill="#1e1e1e"/>
      <path d="M623.16,87h-1.84V83.59c0-.87-.32-1.31-1-1.31a1,1,0,0,0-.8.36,1.46,1.46,0,0,0-.31.94V87H617.4V78.12h1.85v3.77h0a2.1,2.1,0,0,1,1.84-1q2,0,2,2.46Z" fill="#1e1e1e"/>
      <path d="M629.66,87H627.9v-.86h0a2,2,0,0,1-1.79,1,1.85,1.85,0,0,1-1.37-.49,1.8,1.8,0,0,1-.5-1.33q0-1.74,2.07-2l1.63-.22c0-.65-.36-1-1.07-1a3.59,3.59,0,0,0-2,.64v-1.4a4.67,4.67,0,0,1,1.06-.35,5.63,5.63,0,0,1,1.22-.15,2.27,2.27,0,0,1,2.57,2.56Zm-1.74-2.43v-.41l-1.09.14c-.61.08-.91.35-.91.82a.71.71,0,0,0,.22.52.89.89,0,0,0,.6.2,1.1,1.1,0,0,0,.85-.36A1.31,1.31,0,0,0,627.92,84.57Z" fill="#1e1e1e"/>
      <path d="M635,82.67a1.59,1.59,0,0,0-.77-.18,1.14,1.14,0,0,0-1,.44,2,2,0,0,0-.34,1.21V87h-1.85V81H633v1.12h0a1.6,1.6,0,0,1,1.58-1.22A1.09,1.09,0,0,1,635,81Z" fill="#1e1e1e"/>
      <path d="M641.36,84.53h-3.91c.06.87.61,1.31,1.64,1.31a3.24,3.24,0,0,0,1.74-.47v1.34a4.63,4.63,0,0,1-2.16.44,2.79,2.79,0,0,1-3.06-3.05,3.2,3.2,0,0,1,.87-2.37,2.9,2.9,0,0,1,2.13-.87,2.6,2.6,0,0,1,2,.78,3,3,0,0,1,.72,2.11Zm-1.71-1.14c0-.85-.35-1.28-1-1.28a1,1,0,0,0-.77.36,1.71,1.71,0,0,0-.39.92Z" fill="#1e1e1e"/>
    </g>
    <g>
      <path d="M153,71.77l-2.22,8.4h-2.09l-1.4-5.39a4.44,4.44,0,0,1-.13-.94h0a5,5,0,0,1-.15.94l-1.43,5.39h-2.18l-2.21-8.4h2.06l1.19,5.59a6.4,6.4,0,0,1,.11,1h0a5.46,5.46,0,0,1,.17-1l1.53-5.57h2l1.37,5.64a7.22,7.22,0,0,1,.14.9h0a7.8,7.8,0,0,1,.12-.94l1.16-5.6Z" fill="#1e1e1e"/>
      <path d="M154.91,73.22a1.06,1.06,0,0,1-.77-.28.88.88,0,0,1-.3-.68.87.87,0,0,1,.3-.68,1.09,1.09,0,0,1,.77-.26,1.11,1.11,0,0,1,.77.26.89.89,0,0,1,.29.68.91.91,0,0,1-.29.69A1.11,1.11,0,0,1,154.91,73.22Zm.91,7H154v-6h1.85Z" fill="#1e1e1e"/>
      <path d="M163.15,80.17h-1.84V76.84c0-.93-.34-1.4-1-1.4a1,1,0,0,0-.79.37,1.4,1.4,0,0,0-.31.94v3.42h-1.85v-6h1.85v1h0a2.13,2.13,0,0,1,1.93-1.1c1.33,0,2,.83,2,2.48Z" fill="#1e1e1e"/>
      <path d="M170.52,80.17h-1.85v-.83h0a2.08,2.08,0,0,1-1.86,1,2.28,2.28,0,0,1-1.81-.8,3.33,3.33,0,0,1-.68-2.22,3.59,3.59,0,0,1,.75-2.38,2.48,2.48,0,0,1,2-.9,1.68,1.68,0,0,1,1.61.83h0V71.29h1.85Zm-1.82-2.92V76.8a1.4,1.4,0,0,0-.34-1,1.19,1.19,0,0,0-1.84.09,2.21,2.21,0,0,0-.35,1.33,2,2,0,0,0,.33,1.22,1.11,1.11,0,0,0,.93.43,1.13,1.13,0,0,0,.92-.45A1.92,1.92,0,0,0,168.7,77.25Z" fill="#1e1e1e"/>
      <path d="M174.92,80.32a3.21,3.21,0,0,1-2.36-.85,3.49,3.49,0,0,1,0-4.61A3.34,3.34,0,0,1,175,74a3.2,3.2,0,0,1,2.35.84,3,3,0,0,1,.85,2.23,3.16,3.16,0,0,1-.88,2.36A3.24,3.24,0,0,1,174.92,80.32Zm.05-4.88a1.23,1.23,0,0,0-1,.45,2,2,0,0,0-.36,1.28c0,1.15.46,1.73,1.39,1.73s1.33-.59,1.33-1.78S175.86,75.44,175,75.44Z" fill="#1e1e1e"/>
      <path d="M188,74.17l-1.73,6h-1.94l-.89-3.52a3.58,3.58,0,0,1-.1-.76h0a5,5,0,0,1-.12.74l-1,3.54h-1.92l-1.7-6h1.89l.83,3.91a5.2,5.2,0,0,1,.09.67h0a3.84,3.84,0,0,1,.11-.69l1-3.89h1.76l.93,3.91c0,.1.05.33.08.68h0c0-.22,0-.45.09-.68l.78-3.91Z" fill="#1e1e1e"/>
      <path d="M188.45,80v-1.5a3.87,3.87,0,0,0,.91.41,3,3,0,0,0,.86.14,1.83,1.83,0,0,0,.77-.14.44.44,0,0,0,.29-.41.39.39,0,0,0-.13-.29,1.33,1.33,0,0,0-.33-.21,4.72,4.72,0,0,0-.45-.16,3.53,3.53,0,0,1-.46-.15,4.68,4.68,0,0,1-.63-.29,2.45,2.45,0,0,1-.46-.36,1.64,1.64,0,0,1-.28-.48,2,2,0,0,1-.09-.64,1.6,1.6,0,0,1,.22-.86,1.75,1.75,0,0,1,.58-.6,2.85,2.85,0,0,1,.84-.34,4.46,4.46,0,0,1,1-.11,5.52,5.52,0,0,1,.81.06,7.84,7.84,0,0,1,.81.18v1.43a3,3,0,0,0-.75-.3,3.13,3.13,0,0,0-.79-.11,2,2,0,0,0-.35,0,1.83,1.83,0,0,0-.28.1.43.43,0,0,0-.19.16.32.32,0,0,0-.07.22.4.4,0,0,0,.1.28.88.88,0,0,0,.28.2,1.88,1.88,0,0,0,.38.15l.41.14a7.13,7.13,0,0,1,.67.28,1.94,1.94,0,0,1,.51.36,1.58,1.58,0,0,1,.33.48,1.82,1.82,0,0,1,.11.66,1.78,1.78,0,0,1-.23.91,1.81,1.81,0,0,1-.62.61,2.66,2.66,0,0,1-.88.35,5,5,0,0,1-1,.11A5.41,5.41,0,0,1,188.45,80Z" fill="#1e1e1e"/>
      <path d="M204.61,71.77l-2.9,8.4h-2.14l-2.86-8.4h2l1.75,5.84a4.62,4.62,0,0,1,.17.84h0a4.49,4.49,0,0,1,.19-.86l1.74-5.82Z" fill="#1e1e1e"/>
      <path d="M206.44,73.22a1.07,1.07,0,0,1-.77-.28.88.88,0,0,1-.3-.68.87.87,0,0,1,.3-.68,1.11,1.11,0,0,1,.77-.26,1.09,1.09,0,0,1,.77.26.87.87,0,0,1,.3.68.89.89,0,0,1-.3.69A1.1,1.1,0,0,1,206.44,73.22Zm.91,7H205.5v-6h1.85Z" fill="#1e1e1e"/>
      <path d="M212.8,75.84a1.59,1.59,0,0,0-.77-.18,1.14,1.14,0,0,0-.95.44,2,2,0,0,0-.34,1.2v2.87h-1.85v-6h1.85v1.11h0a1.6,1.6,0,0,1,1.58-1.22,1.28,1.28,0,0,1,.45.07Z" fill="#1e1e1e"/>
      <path d="M217.55,80.1a2.75,2.75,0,0,1-1.23.22c-1.31,0-2-.68-2-2V75.53h-1V74.17h1v-1.3l1.85-.52v1.82h1.34v1.36h-1.34V78c0,.63.24.94.74.94a1.24,1.24,0,0,0,.6-.17Z" fill="#1e1e1e"/>
      <path d="M224.39,80.17h-1.84v-.91h0a2.12,2.12,0,0,1-1.84,1.06c-1.39,0-2.08-.85-2.08-2.53V74.17h1.84v3.46c0,.84.34,1.27,1,1.27a1,1,0,0,0,.8-.35,1.41,1.41,0,0,0,.3-1V74.17h1.84Z" fill="#1e1e1e"/>
      <path d="M231,80.17h-1.75v-.86h0a2,2,0,0,1-1.78,1,1.88,1.88,0,0,1-1.38-.5,1.79,1.79,0,0,1-.5-1.32c0-1.16.69-1.84,2.07-2l1.63-.21c0-.66-.36-1-1.07-1a3.72,3.72,0,0,0-2,.64V74.53a4.22,4.22,0,0,1,1.06-.35,5.12,5.12,0,0,1,1.22-.16A2.27,2.27,0,0,1,231,76.58Zm-1.74-2.44v-.4l-1.09.14q-.9.12-.9.81a.66.66,0,0,0,.22.52.8.8,0,0,0,.59.2,1.1,1.1,0,0,0,.85-.36A1.29,1.29,0,0,0,229.22,77.73Z" fill="#1e1e1e"/>
      <path d="M234.27,80.17h-1.85V71.29h1.85Z" fill="#1e1e1e"/>
      <path d="M142.05,94.57v-8.4h3q4.47,0,4.47,4.09a4.13,4.13,0,0,1-1.22,3.14A4.5,4.5,0,0,1,145,94.57Zm1.89-6.86V93h.94a2.53,2.53,0,0,0,1.93-.73,2.81,2.81,0,0,0,.7-2,2.55,2.55,0,0,0-.69-1.89,2.64,2.64,0,0,0-1.95-.69Z" fill="#1e1e1e"/>
      <path d="M156.11,92.1h-3.92c.07.87.62,1.3,1.65,1.3a3.15,3.15,0,0,0,1.74-.47v1.34a4.5,4.5,0,0,1-2.16.45,2.8,2.8,0,0,1-3.06-3.06,3.19,3.19,0,0,1,.87-2.36,2.87,2.87,0,0,1,2.13-.88,2.62,2.62,0,0,1,2,.78,3,3,0,0,1,.72,2.12ZM154.39,91c0-.86-.35-1.29-1-1.29a1,1,0,0,0-.77.37,1.68,1.68,0,0,0-.4.92Z" fill="#1e1e1e"/>
      <path d="M157,94.41v-1.5a4.27,4.27,0,0,0,.91.41,3.08,3.08,0,0,0,.86.14,1.84,1.84,0,0,0,.78-.14.43.43,0,0,0,.28-.41.36.36,0,0,0-.13-.29,1,1,0,0,0-.33-.21,3.72,3.72,0,0,0-.44-.16,3.53,3.53,0,0,1-.46-.15,4.68,4.68,0,0,1-.63-.29,2.16,2.16,0,0,1-.46-.36,1.44,1.44,0,0,1-.28-.48,2,2,0,0,1-.1-.64,1.69,1.69,0,0,1,.22-.86,1.88,1.88,0,0,1,.59-.6,2.64,2.64,0,0,1,.84-.34,4.46,4.46,0,0,1,1-.11,5.73,5.73,0,0,1,.81.06,7.84,7.84,0,0,1,.81.18v1.43a2.94,2.94,0,0,0-.76-.3,3.07,3.07,0,0,0-.79-.11,1.87,1.87,0,0,0-.34,0,1.51,1.51,0,0,0-.28.1.53.53,0,0,0-.2.16.38.38,0,0,0-.07.22.41.41,0,0,0,.11.28.88.88,0,0,0,.28.2,1.79,1.79,0,0,0,.37.15L160,91a6.9,6.9,0,0,1,.66.28,2.18,2.18,0,0,1,.52.36,1.39,1.39,0,0,1,.32.48,1.62,1.62,0,0,1,.12.66,1.78,1.78,0,0,1-.23.91,1.9,1.9,0,0,1-.62.61,2.66,2.66,0,0,1-.88.35,5.1,5.1,0,0,1-1,.11A5.51,5.51,0,0,1,157,94.41Z" fill="#1e1e1e"/>
      <path d="M168.71,94.57h-2.22l-1.92-3h0v3H162.7V85.69h1.85v5.65h0l1.79-2.77h2.19l-2.15,2.82Z" fill="#1e1e1e"/>
      <path d="M173.3,94.5a2.83,2.83,0,0,1-1.24.22c-1.3,0-2-.68-2-2V89.93h-1V88.57h1v-1.3l1.85-.52v1.82h1.35v1.36H172v2.43c0,.63.25.94.74.94a1.31,1.31,0,0,0,.61-.17Z" fill="#1e1e1e"/>
      <path d="M177.19,94.72a3.21,3.21,0,0,1-2.36-.85,3.49,3.49,0,0,1,0-4.61,3.34,3.34,0,0,1,2.4-.84,3.2,3.2,0,0,1,2.35.84,3,3,0,0,1,.85,2.23,3.16,3.16,0,0,1-.88,2.36A3.24,3.24,0,0,1,177.19,94.72Zm.05-4.88a1.23,1.23,0,0,0-1,.45,2,2,0,0,0-.36,1.28c0,1.15.46,1.73,1.39,1.73s1.33-.59,1.33-1.78S178.13,89.84,177.24,89.84Z" fill="#1e1e1e"/>
      <path d="M183.53,93.87h0v3.46h-1.85V88.57h1.85v.9h0a2.36,2.36,0,0,1,3.73-.25,3.39,3.39,0,0,1,.64,2.18,3.73,3.73,0,0,1-.74,2.41,2.44,2.44,0,0,1-2,.91A1.88,1.88,0,0,1,183.53,93.87Zm-.05-2.46v.48a1.54,1.54,0,0,0,.33,1,1.08,1.08,0,0,0,.86.39,1.15,1.15,0,0,0,1-.49,2.32,2.32,0,0,0,.35-1.39c0-1-.41-1.58-1.23-1.58a1.15,1.15,0,0,0-.93.43A1.73,1.73,0,0,0,183.48,91.41Z" fill="#1e1e1e"/>
    </g>
    <g>
      <path d="M153.89,155.24h-1.17l-1.41-2.36a6,6,0,0,0-.38-.56,2.23,2.23,0,0,0-.37-.38,1.59,1.59,0,0,0-.41-.21,1.81,1.81,0,0,0-.49-.07h-.81v3.58h-1v-8.4h2.51a3.65,3.65,0,0,1,1,.13,2.23,2.23,0,0,1,.81.42,1.94,1.94,0,0,1,.53.7,2.32,2.32,0,0,1,.2,1,2.29,2.29,0,0,1-.14.81,2,2,0,0,1-.37.65,2.17,2.17,0,0,1-.59.49,3,3,0,0,1-.77.32v0a1.63,1.63,0,0,1,.37.21,2,2,0,0,1,.29.29,2.75,2.75,0,0,1,.28.37c.1.14.2.3.31.48Zm-5-7.51v3h1.33a1.92,1.92,0,0,0,.69-.11,1.46,1.46,0,0,0,.54-.32,1.57,1.57,0,0,0,.36-.51,1.78,1.78,0,0,0,.12-.67,1.34,1.34,0,0,0-.43-1.06,1.88,1.88,0,0,0-1.26-.37Z" fill="#1e1e1e"/>
      <path d="M159.56,152.48h-4.23a2.16,2.16,0,0,0,.54,1.54,1.82,1.82,0,0,0,1.42.55,2.93,2.93,0,0,0,1.86-.67v.9a3.45,3.45,0,0,1-2.09.58,2.52,2.52,0,0,1-2-.82,3.81,3.81,0,0,1,.07-4.58,2.53,2.53,0,0,1,2-.88,2.25,2.25,0,0,1,1.82.76,3.17,3.17,0,0,1,.64,2.11Zm-1-.82a2,2,0,0,0-.4-1.29,1.36,1.36,0,0,0-1.1-.46,1.55,1.55,0,0,0-1.15.48,2.19,2.19,0,0,0-.59,1.27Z" fill="#1e1e1e"/>
      <path d="M169.54,155.24h-1v-3.45a2.65,2.65,0,0,0-.31-1.44,1.17,1.17,0,0,0-1-.44,1.26,1.26,0,0,0-1,.56,2.12,2.12,0,0,0-.43,1.35v3.42h-1v-3.56c0-1.18-.46-1.77-1.37-1.77a1.24,1.24,0,0,0-1,.53,2.2,2.2,0,0,0-.41,1.38v3.42h-1v-6h1v.95h0a2,2,0,0,1,1.87-1.09,1.71,1.71,0,0,1,1.69,1.24,2.14,2.14,0,0,1,2-1.24c1.32,0,2,.81,2,2.44Z" fill="#1e1e1e"/>
      <path d="M173.84,155.38a2.79,2.79,0,0,1-2.13-.84,3.12,3.12,0,0,1-.79-2.23,3.23,3.23,0,0,1,.83-2.36,3,3,0,0,1,2.23-.85,2.68,2.68,0,0,1,2.09.82,3.25,3.25,0,0,1,.76,2.29,3.18,3.18,0,0,1-.82,2.3A2.82,2.82,0,0,1,173.84,155.38Zm.07-5.47a1.84,1.84,0,0,0-1.47.63,2.56,2.56,0,0,0-.54,1.73,2.46,2.46,0,0,0,.55,1.68,1.85,1.85,0,0,0,1.46.62,1.75,1.75,0,0,0,1.43-.6,3.23,3.23,0,0,0,0-3.45A1.73,1.73,0,0,0,173.91,149.91Z" fill="#1e1e1e"/>
      <path d="M181,155.18a1.91,1.91,0,0,1-.9.19c-1,0-1.57-.59-1.57-1.76v-3.55h-1v-.82h1v-1.47l1-.31v1.78H181v.82h-1.51v3.38a1.45,1.45,0,0,0,.2.86.84.84,0,0,0,.68.26,1,1,0,0,0,.63-.2Z" fill="#1e1e1e"/>
      <path d="M187,152.48H182.8a2.16,2.16,0,0,0,.54,1.54,1.82,1.82,0,0,0,1.42.55,2.93,2.93,0,0,0,1.86-.67v.9a3.45,3.45,0,0,1-2.09.58,2.52,2.52,0,0,1-2-.82,3.81,3.81,0,0,1,.07-4.58,2.53,2.53,0,0,1,2-.88,2.25,2.25,0,0,1,1.82.76A3.17,3.17,0,0,1,187,152Zm-1-.82a2,2,0,0,0-.4-1.29,1.36,1.36,0,0,0-1.1-.46,1.55,1.55,0,0,0-1.15.48,2.19,2.19,0,0,0-.59,1.27Z" fill="#1e1e1e"/>
      <path d="M196.9,155.24h-1v-1h0a2.21,2.21,0,0,1-2.06,1.16,2.24,2.24,0,0,1-1.81-.81,3.3,3.3,0,0,1-.68-2.19,3.62,3.62,0,0,1,.75-2.39,2.5,2.5,0,0,1,2-.89,1.91,1.91,0,0,1,1.8,1h0v-3.72h1Zm-1-2.72v-.88a1.73,1.73,0,0,0-.48-1.23,1.58,1.58,0,0,0-1.21-.5,1.67,1.67,0,0,0-1.39.64,2.85,2.85,0,0,0-.5,1.78,2.56,2.56,0,0,0,.48,1.64,1.59,1.59,0,0,0,1.3.6,1.61,1.61,0,0,0,1.3-.58A2.15,2.15,0,0,0,195.93,152.52Z" fill="#1e1e1e"/>
      <path d="M203.61,152.48h-4.24a2.26,2.26,0,0,0,.54,1.54,1.85,1.85,0,0,0,1.42.55,2.89,2.89,0,0,0,1.86-.67v.9a3.41,3.41,0,0,1-2.09.58,2.53,2.53,0,0,1-2-.82,3.35,3.35,0,0,1-.72-2.3,3.28,3.28,0,0,1,.79-2.28,2.54,2.54,0,0,1,2-.88,2.26,2.26,0,0,1,1.83.76,3.22,3.22,0,0,1,.64,2.11Zm-1-.82a2,2,0,0,0-.41-1.29,1.35,1.35,0,0,0-1.09-.46,1.57,1.57,0,0,0-1.16.48,2.18,2.18,0,0,0-.58,1.27Z" fill="#1e1e1e"/>
      <path d="M204.68,155v-1a2.84,2.84,0,0,0,1.73.58c.85,0,1.27-.28,1.27-.84a.76.76,0,0,0-.11-.41,1.17,1.17,0,0,0-.29-.3,3,3,0,0,0-.44-.23l-.53-.21a6.76,6.76,0,0,1-.7-.32,2.23,2.23,0,0,1-.51-.37,1.31,1.31,0,0,1-.3-.46,1.57,1.57,0,0,1-.1-.6,1.44,1.44,0,0,1,.19-.75,1.87,1.87,0,0,1,.51-.54,2.26,2.26,0,0,1,.74-.33,3.05,3.05,0,0,1,.85-.11,3.46,3.46,0,0,1,1.4.27v1a2.71,2.71,0,0,0-1.53-.43,1.75,1.75,0,0,0-.48.06,1.15,1.15,0,0,0-.37.17.72.72,0,0,0-.25.27.74.74,0,0,0-.08.34.87.87,0,0,0,.08.39.83.83,0,0,0,.25.28,1.91,1.91,0,0,0,.4.23l.54.21a6.81,6.81,0,0,1,.71.32,2.12,2.12,0,0,1,.54.36,1.32,1.32,0,0,1,.34.47,1.46,1.46,0,0,1,.12.62,1.5,1.5,0,0,1-.19.78,1.71,1.71,0,0,1-.53.54,2.3,2.3,0,0,1-.75.32,3.82,3.82,0,0,1-.9.11A3.41,3.41,0,0,1,204.68,155Z" fill="#1e1e1e"/>
      <path d="M215,155.24h-1.35L211,152.35h0v2.89h-1v-8.89h1V152h0l2.52-2.75h1.26L212,152.13Z" fill="#1e1e1e"/>
      <path d="M219.1,155.18a1.87,1.87,0,0,1-.89.19c-1.06,0-1.58-.59-1.58-1.76v-3.55h-1v-.82h1v-1.47l1-.31v1.78h1.51v.82h-1.51v3.38a1.37,1.37,0,0,0,.21.86.8.8,0,0,0,.67.26,1,1,0,0,0,.63-.2Z" fill="#1e1e1e"/>
      <path d="M222.76,155.38a2.77,2.77,0,0,1-2.12-.84,3.12,3.12,0,0,1-.8-2.23,3.23,3.23,0,0,1,.83-2.36,3,3,0,0,1,2.23-.85,2.71,2.71,0,0,1,2.1.82,3.29,3.29,0,0,1,.75,2.29,3.21,3.21,0,0,1-.81,2.3A2.84,2.84,0,0,1,222.76,155.38Zm.07-5.47a1.8,1.8,0,0,0-1.46.63,2.56,2.56,0,0,0-.54,1.73,2.46,2.46,0,0,0,.54,1.68,1.85,1.85,0,0,0,1.46.62,1.75,1.75,0,0,0,1.43-.6,3.23,3.23,0,0,0,0-3.45A1.73,1.73,0,0,0,222.83,149.91Z" fill="#1e1e1e"/>
      <path d="M228.21,154.37h0V158h-1v-8.76h1v1h0a2.3,2.3,0,0,1,2.08-1.19,2.21,2.21,0,0,1,1.81.8,3.37,3.37,0,0,1,.65,2.16,3.69,3.69,0,0,1-.73,2.41,2.44,2.44,0,0,1-2,.91A2,2,0,0,1,228.21,154.37Zm0-2.42v.84a1.79,1.79,0,0,0,.48,1.26,1.73,1.73,0,0,0,2.6-.15,3,3,0,0,0,.49-1.86,2.43,2.43,0,0,0-.46-1.57,1.54,1.54,0,0,0-1.25-.56,1.7,1.7,0,0,0-1.35.58A2.13,2.13,0,0,0,228.19,152Z" fill="#1e1e1e"/>
      <path d="M181.09,169.36a3.1,3.1,0,0,1-1.64.42,2.71,2.71,0,0,1-2.07-.84,3,3,0,0,1-.79-2.16,3.3,3.3,0,0,1,.85-2.38,3,3,0,0,1,2.27-.9,3.06,3.06,0,0,1,1.39.29v1a2.44,2.44,0,0,0-1.43-.46,2,2,0,0,0-1.51.65,2.52,2.52,0,0,0-.58,1.74,2.38,2.38,0,0,0,.55,1.66,1.89,1.89,0,0,0,1.48.61,2.39,2.39,0,0,0,1.48-.52Z" fill="#1e1e1e"/>
      <path d="M183.34,169.64h-1v-8.89h1Z" fill="#1e1e1e"/>
      <path d="M185.65,162.11a.6.6,0,0,1-.44-.17.65.65,0,0,1,0-.9.64.64,0,0,1,.44-.17.66.66,0,0,1,.45.17.61.61,0,0,1,.18.45.6.6,0,0,1-.18.44A.63.63,0,0,1,185.65,162.11Zm.47,7.53h-1v-6h1Z" fill="#1e1e1e"/>
      <path d="M192.81,166.88h-4.24a2.26,2.26,0,0,0,.54,1.54,1.85,1.85,0,0,0,1.42.55,2.89,2.89,0,0,0,1.86-.67v.9a3.41,3.41,0,0,1-2.09.58,2.53,2.53,0,0,1-2-.82,3.35,3.35,0,0,1-.72-2.3,3.28,3.28,0,0,1,.79-2.28,2.54,2.54,0,0,1,2-.88,2.26,2.26,0,0,1,1.83.76,3.17,3.17,0,0,1,.64,2.11Zm-1-.82a2,2,0,0,0-.41-1.29,1.35,1.35,0,0,0-1.09-.46,1.57,1.57,0,0,0-1.16.48,2.18,2.18,0,0,0-.58,1.27Z" fill="#1e1e1e"/>
      <path d="M199.24,169.64h-1v-3.42c0-1.28-.46-1.91-1.39-1.91a1.5,1.5,0,0,0-1.19.54,2,2,0,0,0-.48,1.37v3.42h-1v-6h1v1h0a2.17,2.17,0,0,1,2-1.13,1.84,1.84,0,0,1,1.5.63,2.84,2.84,0,0,1,.52,1.84Z" fill="#1e1e1e"/>
      <path d="M203.73,169.58a1.87,1.87,0,0,1-.89.19c-1.05,0-1.58-.59-1.58-1.76v-3.55h-1v-.82h1v-1.47l1-.31v1.78h1.51v.82h-1.51v3.38a1.37,1.37,0,0,0,.21.86.81.81,0,0,0,.68.26,1,1,0,0,0,.62-.2Z" fill="#1e1e1e"/>
    </g>
    <g>
      <path d="M172.11,11.63,169.74,20h-1.16l-1.73-6.14a4.56,4.56,0,0,1-.13-.86h0a4.62,4.62,0,0,1-.16.84L164.8,20h-1.14l-2.46-8.41h1.08l1.79,6.45a3.88,3.88,0,0,1,.14.84h0a5.16,5.16,0,0,1,.18-.84l1.86-6.45h.94l1.79,6.5a6.16,6.16,0,0,1,.14.78h0a4.35,4.35,0,0,1,.16-.81L171,11.63Z" fill="#1e1e1e"/>
      <path d="M175.27,20.18a2.79,2.79,0,0,1-2.13-.84,3.16,3.16,0,0,1-.79-2.23,3.23,3.23,0,0,1,.83-2.36,3,3,0,0,1,2.23-.85,2.68,2.68,0,0,1,2.09.82,3.25,3.25,0,0,1,.76,2.29,3.21,3.21,0,0,1-.81,2.3A2.85,2.85,0,0,1,175.27,20.18Zm.07-5.48a1.84,1.84,0,0,0-1.47.63,2.59,2.59,0,0,0-.53,1.74,2.46,2.46,0,0,0,.54,1.68,1.85,1.85,0,0,0,1.46.62,1.75,1.75,0,0,0,1.43-.6,2.61,2.61,0,0,0,.5-1.72,2.65,2.65,0,0,0-.5-1.74A1.76,1.76,0,0,0,175.34,14.7Z" fill="#1e1e1e"/>
      <path d="M182.92,15a1.18,1.18,0,0,0-.73-.19,1.2,1.2,0,0,0-1,.58,2.62,2.62,0,0,0-.42,1.58V20h-1V14h1v1.23h0a2,2,0,0,1,.62-1,1.43,1.43,0,0,1,.95-.36,1.65,1.65,0,0,1,.57.08Z" fill="#1e1e1e"/>
      <path d="M188.94,20H187.6L185,17.15h0V20h-1V11.15h1v5.63h0L187.47,14h1.26l-2.79,2.89Z" fill="#1e1e1e"/>
      <path d="M189.57,19.82v-1a2.81,2.81,0,0,0,1.72.58c.85,0,1.27-.28,1.27-.85a.72.72,0,0,0-.11-.4,1.17,1.17,0,0,0-.29-.3,2.56,2.56,0,0,0-.44-.23l-.53-.21c-.27-.11-.5-.22-.7-.32a2.23,2.23,0,0,1-.51-.37,1.31,1.31,0,0,1-.3-.46,1.57,1.57,0,0,1-.1-.6,1.44,1.44,0,0,1,.19-.75,1.67,1.67,0,0,1,.52-.54A2.21,2.21,0,0,1,191,14a3.05,3.05,0,0,1,.85-.11,3.46,3.46,0,0,1,1.4.27v1a2.71,2.71,0,0,0-1.52-.44,1.49,1.49,0,0,0-.49.07,1,1,0,0,0-.37.17.62.62,0,0,0-.24.27.64.64,0,0,0-.09.34.78.78,0,0,0,.09.39.74.74,0,0,0,.25.28,1.81,1.81,0,0,0,.39.22l.54.22c.26.1.5.21.71.31a2.44,2.44,0,0,1,.54.37,1.38,1.38,0,0,1,.34.46,1.54,1.54,0,0,1,.12.63,1.44,1.44,0,0,1-.19.77,1.74,1.74,0,0,1-.53.55,2.54,2.54,0,0,1-.75.32,3.82,3.82,0,0,1-.9.11A3.34,3.34,0,0,1,189.57,19.82Z" fill="#1e1e1e"/>
      <path d="M196,19.17h0V22.8h-1V14h1v1.05h0a2.25,2.25,0,0,1,2.07-1.19,2.18,2.18,0,0,1,1.81.8,3.37,3.37,0,0,1,.65,2.16,3.71,3.71,0,0,1-.73,2.41,2.44,2.44,0,0,1-2,.91A2,2,0,0,1,196,19.17Zm0-2.42v.84a1.77,1.77,0,0,0,.49,1.26,1.58,1.58,0,0,0,1.22.52,1.6,1.6,0,0,0,1.37-.67,3,3,0,0,0,.5-1.86,2.43,2.43,0,0,0-.47-1.57,1.52,1.52,0,0,0-1.25-.57,1.71,1.71,0,0,0-1.35.59A2.13,2.13,0,0,0,196,16.75Z" fill="#1e1e1e"/>
      <path d="M206.37,20h-1V19.1h0a2,2,0,0,1-1.85,1.08,1.93,1.93,0,0,1-1.4-.48,1.62,1.62,0,0,1-.51-1.26q0-1.68,2-2l1.8-.26c0-1-.41-1.53-1.24-1.53a3,3,0,0,0-1.95.74v-1a3.68,3.68,0,0,1,2-.56c1.41,0,2.11.74,2.11,2.23Zm-1-3-1.45.2a2.35,2.35,0,0,0-1,.33,1,1,0,0,0-.34.84.92.92,0,0,0,.32.72,1.19,1.19,0,0,0,.83.28,1.55,1.55,0,0,0,1.18-.5,1.81,1.81,0,0,0,.47-1.27Z" fill="#1e1e1e"/>
      <path d="M212.27,19.76a3.1,3.1,0,0,1-1.64.42,2.69,2.69,0,0,1-2.07-.84,3,3,0,0,1-.79-2.16,3.29,3.29,0,0,1,.85-2.38,3,3,0,0,1,2.27-.9,3.06,3.06,0,0,1,1.39.29v1a2.45,2.45,0,0,0-1.43-.47,2,2,0,0,0-1.51.66,2.52,2.52,0,0,0-.58,1.74,2.38,2.38,0,0,0,.55,1.66,1.89,1.89,0,0,0,1.48.61,2.45,2.45,0,0,0,1.48-.52Z" fill="#1e1e1e"/>
      <path d="M218.55,17.28h-4.24a2.27,2.27,0,0,0,.54,1.54,1.84,1.84,0,0,0,1.42.55,2.93,2.93,0,0,0,1.86-.67v.9a3.43,3.43,0,0,1-2.09.58,2.55,2.55,0,0,1-2-.82,3.37,3.37,0,0,1-.73-2.3,3.29,3.29,0,0,1,.8-2.28,2.53,2.53,0,0,1,2-.88,2.25,2.25,0,0,1,1.82.76,3.17,3.17,0,0,1,.65,2.11Zm-1-.82a2,2,0,0,0-.4-1.29,1.36,1.36,0,0,0-1.1-.47,1.56,1.56,0,0,0-1.15.49,2.25,2.25,0,0,0-.59,1.27Z" fill="#1e1e1e"/>
    </g>
    <g>
      <path d="M343.47,45.28h-1.9V41.86h-3.48v3.42h-1.9v-8.4h1.9v3.35h3.48V36.88h1.9Z" fill="#1e1e1e"/>
      <path d="M348,45.42a3.23,3.23,0,0,1-2.36-.84,3.47,3.47,0,0,1,0-4.61,3.38,3.38,0,0,1,2.41-.84,3.16,3.16,0,0,1,2.34.84,3,3,0,0,1,.85,2.23,3.19,3.19,0,0,1-.87,2.36A3.27,3.27,0,0,1,348,45.42Zm.05-4.87a1.23,1.23,0,0,0-1,.45,2,2,0,0,0-.37,1.28c0,1.15.47,1.73,1.4,1.73s1.33-.6,1.33-1.78S349,40.55,348.08,40.55Z" fill="#1e1e1e"/>
      <path d="M352.16,45.12v-1.5a4.06,4.06,0,0,0,.91.41,3,3,0,0,0,.86.13,1.78,1.78,0,0,0,.77-.13.44.44,0,0,0,.29-.41.36.36,0,0,0-.13-.29,1.33,1.33,0,0,0-.33-.21l-.44-.16c-.16,0-.32-.1-.47-.15a6.21,6.21,0,0,1-.63-.29,2.09,2.09,0,0,1-.45-.36,1.29,1.29,0,0,1-.28-.48,1.76,1.76,0,0,1-.1-.64,1.66,1.66,0,0,1,.22-.87,1.82,1.82,0,0,1,.58-.59,2.85,2.85,0,0,1,.84-.34,4.53,4.53,0,0,1,1-.11,5.52,5.52,0,0,1,.81.06,5.3,5.3,0,0,1,.81.18V40.8a2.76,2.76,0,0,0-.75-.31,3.64,3.64,0,0,0-.79-.1,1.79,1.79,0,0,0-.34,0l-.29.1a.49.49,0,0,0-.19.16.32.32,0,0,0-.07.22.38.38,0,0,0,.11.28,1.18,1.18,0,0,0,.27.2,1.88,1.88,0,0,0,.38.15l.41.14a4.66,4.66,0,0,1,.67.28,1.94,1.94,0,0,1,.51.36,1.37,1.37,0,0,1,.33.48,1.61,1.61,0,0,1,.11.65,1.7,1.7,0,0,1-.23.92,1.87,1.87,0,0,1-.61.61,3,3,0,0,1-.89.35,5,5,0,0,1-1,.1A5.4,5.4,0,0,1,352.16,45.12Z" fill="#1e1e1e"/>
      <path d="M361.43,45.21a2.78,2.78,0,0,1-1.23.21c-1.31,0-2-.67-2-2V40.64h-1V39.28h1V38l1.84-.52v1.82h1.35v1.36h-1.35v2.43c0,.62.25.94.75.94a1.31,1.31,0,0,0,.6-.17Z" fill="#1e1e1e"/>
      <path d="M367.66,44.58h0V48h-1.86V39.28h1.86v.9h0a2.36,2.36,0,0,1,3.73-.25,3.43,3.43,0,0,1,.64,2.18,3.68,3.68,0,0,1-.75,2.41,2.42,2.42,0,0,1-2,.9A1.87,1.87,0,0,1,367.66,44.58Zm-.05-2.46v.48a1.52,1.52,0,0,0,.33,1,1,1,0,0,0,.86.4,1.15,1.15,0,0,0,1-.49,2.4,2.4,0,0,0,.35-1.39c0-1.05-.41-1.58-1.23-1.58A1.15,1.15,0,0,0,368,41,1.73,1.73,0,0,0,367.61,42.12Z" fill="#1e1e1e"/>
      <path d="M376.13,45.42a3.2,3.2,0,0,1-2.35-.84,3.47,3.47,0,0,1,0-4.61,3.35,3.35,0,0,1,2.41-.84,3.19,3.19,0,0,1,2.34.84,3,3,0,0,1,.85,2.23,3.16,3.16,0,0,1-.88,2.36A3.24,3.24,0,0,1,376.13,45.42Zm.05-4.87a1.23,1.23,0,0,0-1,.45,2,2,0,0,0-.36,1.28c0,1.15.46,1.73,1.39,1.73s1.33-.6,1.33-1.78S377.08,40.55,376.18,40.55Z" fill="#1e1e1e"/>
      <path d="M383.47,45.42a3.23,3.23,0,0,1-2.36-.84,3.47,3.47,0,0,1,0-4.61,3.38,3.38,0,0,1,2.41-.84,3.2,3.2,0,0,1,2.35.84,3,3,0,0,1,.85,2.23,3.2,3.2,0,0,1-.88,2.36A3.24,3.24,0,0,1,383.47,45.42Zm0-4.87a1.23,1.23,0,0,0-1,.45,2,2,0,0,0-.37,1.28c0,1.15.47,1.73,1.4,1.73s1.33-.6,1.33-1.78S384.41,40.55,383.52,40.55Z" fill="#1e1e1e"/>
      <path d="M389.8,45.28H388V36.4h1.85Z" fill="#1e1e1e"/>
    </g>
    <g>
      <path d="M514,56.48q0,3.54-3.2,3.54c-2,0-3-1.14-3-3.4V51.48h1v5.07c0,1.72.73,2.58,2.18,2.58s2.1-.83,2.1-2.49V51.48h1Z" fill="#1e1e1e"/>
      <path d="M515.43,59.66v-1a2.81,2.81,0,0,0,1.72.58c.85,0,1.27-.28,1.27-.84a.76.76,0,0,0-.11-.41,1.17,1.17,0,0,0-.29-.3,2.56,2.56,0,0,0-.44-.23l-.53-.21a6.76,6.76,0,0,1-.7-.32,2.55,2.55,0,0,1-.51-.36,1.52,1.52,0,0,1-.3-.46,1.66,1.66,0,0,1-.1-.61,1.38,1.38,0,0,1,.19-.74,1.7,1.7,0,0,1,.52-.55,2.21,2.21,0,0,1,.73-.33,3.59,3.59,0,0,1,2.25.16v1a2.7,2.7,0,0,0-1.52-.43,1.83,1.83,0,0,0-.49.06,1.15,1.15,0,0,0-.37.17.68.68,0,0,0-.24.27.67.67,0,0,0-.09.34.75.75,0,0,0,.09.39.74.74,0,0,0,.25.28,1.82,1.82,0,0,0,.39.23l.54.21c.26.11.5.21.71.32a2.42,2.42,0,0,1,.54.36,1.41,1.41,0,0,1,.34.47,1.46,1.46,0,0,1,.12.62,1.5,1.5,0,0,1-.19.78,1.61,1.61,0,0,1-.53.54,2.3,2.3,0,0,1-.75.32,3.82,3.82,0,0,1-.9.11A3.34,3.34,0,0,1,515.43,59.66Z" fill="#1e1e1e"/>
      <path d="M525.68,57.12h-4.23a2.21,2.21,0,0,0,.54,1.55,1.85,1.85,0,0,0,1.41.54,2.94,2.94,0,0,0,1.87-.67v.91a3.53,3.53,0,0,1-2.1.57,2.51,2.51,0,0,1-2-.82,3.83,3.83,0,0,1,.06-4.58,2.55,2.55,0,0,1,2-.88,2.25,2.25,0,0,1,1.82.76,3.18,3.18,0,0,1,.64,2.12Zm-1-.82a2,2,0,0,0-.4-1.29,1.37,1.37,0,0,0-1.1-.46A1.57,1.57,0,0,0,522,55a2.24,2.24,0,0,0-.58,1.27Z" fill="#1e1e1e"/>
      <path d="M530.26,54.85a1.14,1.14,0,0,0-.72-.19,1.21,1.21,0,0,0-1,.58,2.62,2.62,0,0,0-.41,1.58v3.06h-1v-6h1v1.24h0a2.07,2.07,0,0,1,.63-1,1.54,1.54,0,0,1,1.51-.27Z" fill="#1e1e1e"/>
      <path d="M503.49,73.41h0V77h-1V68.28h1v1h0a2.27,2.27,0,0,1,2.07-1.19,2.21,2.21,0,0,1,1.81.8A3.31,3.31,0,0,1,508,71.1a3.69,3.69,0,0,1-.73,2.41,2.43,2.43,0,0,1-2,.91A2,2,0,0,1,503.49,73.41Zm0-2.42v.84a1.73,1.73,0,0,0,.49,1.26,1.71,1.71,0,0,0,2.59-.15,3,3,0,0,0,.5-1.85,2.45,2.45,0,0,0-.46-1.57,1.54,1.54,0,0,0-1.26-.57,1.7,1.7,0,0,0-1.35.58A2.15,2.15,0,0,0,503.46,71Z" fill="#1e1e1e"/>
      <path d="M512.63,69.25a1.16,1.16,0,0,0-.72-.19,1.21,1.21,0,0,0-1,.58,2.62,2.62,0,0,0-.42,1.58v3.06h-1v-6h1v1.24h0a1.93,1.93,0,0,1,.63-1,1.54,1.54,0,0,1,1.51-.27Z" fill="#1e1e1e"/>
      <path d="M516.2,74.42a2.79,2.79,0,0,1-2.13-.84,3.12,3.12,0,0,1-.79-2.23A3.23,3.23,0,0,1,514.1,69a3,3,0,0,1,2.24-.85,2.68,2.68,0,0,1,2.09.82,3.32,3.32,0,0,1,.75,2.3,3.25,3.25,0,0,1-.81,2.3A2.85,2.85,0,0,1,516.2,74.42Zm.07-5.47a1.84,1.84,0,0,0-1.47.63,2.58,2.58,0,0,0-.54,1.73,2.44,2.44,0,0,0,.55,1.69,1.85,1.85,0,0,0,1.46.61,1.75,1.75,0,0,0,1.43-.6,3.23,3.23,0,0,0,0-3.45A1.73,1.73,0,0,0,516.27,69Z" fill="#1e1e1e"/>
      <path d="M523.54,66.24a1.24,1.24,0,0,0-.64-.16c-.67,0-1,.43-1,1.27v.93h1.41v.82h-1.41v5.18h-.95V69.1h-1v-.82h1v-1a2.06,2.06,0,0,1,.54-1.5,2.12,2.12,0,0,1,2.06-.44Z" fill="#1e1e1e"/>
      <path d="M525.05,66.76a.6.6,0,0,1-.44-.18.61.61,0,0,1-.18-.45.59.59,0,0,1,.18-.44.6.6,0,0,1,.44-.18.61.61,0,0,1,.45.18.63.63,0,0,1,0,.88A.62.62,0,0,1,525.05,66.76Zm.47,7.52h-1v-6h1Z" fill="#1e1e1e"/>
      <path d="M528.31,74.28h-1V65.4h1Z" fill="#1e1e1e"/>
      <path d="M535,71.52h-4.23a2.21,2.21,0,0,0,.54,1.55,1.85,1.85,0,0,0,1.41.54,2.94,2.94,0,0,0,1.87-.67v.91a3.53,3.53,0,0,1-2.1.57,2.51,2.51,0,0,1-2-.82A3.83,3.83,0,0,1,530.6,69a2.55,2.55,0,0,1,2-.88,2.25,2.25,0,0,1,1.82.76A3.18,3.18,0,0,1,535,71Zm-1-.82a2,2,0,0,0-.4-1.29,1.37,1.37,0,0,0-1.1-.46,1.59,1.59,0,0,0-1.16.48,2.24,2.24,0,0,0-.58,1.27Z" fill="#1e1e1e"/>
    </g>
    <path d="M514.09,95.71A7.83,7.83,0,0,1,515.92,97a8.13,8.13,0,0,1,1.4,1.69,7,7,0,0,1,.89,2,8.56,8.56,0,0,1,.32,2.22h-2a5.91,5.91,0,0,0-.47-2.33,6,6,0,0,0-1.3-1.91,6.3,6.3,0,0,0-1.9-1.28,6,6,0,0,0-2.33-.48,5.71,5.71,0,0,0-2.33.47,5.86,5.86,0,0,0-1.91,1.29,6.34,6.34,0,0,0-1.28,1.91,6,6,0,0,0-.48,2.33h-2a7.76,7.76,0,0,1,.31-2.21,8.12,8.12,0,0,1,4.12-5,5.93,5.93,0,0,1-1.78-2.13,6.17,6.17,0,0,1-.65-2.7,5.74,5.74,0,0,1,.47-2.33,6,6,0,0,1,1.29-1.91,6.22,6.22,0,0,1,1.91-1.28,6,6,0,0,1,2.33-.48,5.74,5.74,0,0,1,2.33.47,5.92,5.92,0,0,1,1.9,1.29A6.34,6.34,0,0,1,516,88.55a5.82,5.82,0,0,1,.49,2.33,6,6,0,0,1-.64,2.7A5.88,5.88,0,0,1,514.09,95.71Zm-7.56-4.83a3.75,3.75,0,0,0,.31,1.54,4,4,0,0,0,.86,1.27,4,4,0,0,0,4.37.88,3.91,3.91,0,0,0,1.27-.86,4.66,4.66,0,0,0,.86-1.27,3.7,3.7,0,0,0,.33-1.56,3.91,3.91,0,0,0-.32-1.55,3.69,3.69,0,0,0-.85-1.26,4.22,4.22,0,0,0-1.29-.86,3.71,3.71,0,0,0-1.54-.33,3.8,3.8,0,0,0-1.55.31,4.25,4.25,0,0,0-1.27.86,3.87,3.87,0,0,0-.85,1.28A4.1,4.1,0,0,0,506.53,90.88Zm28-6v2h-14v-2Zm-14,8h14v2h-14Zm0,8h14v2h-14Z"/>
    <g>
      <path d="M514.24,153.23h-1.09l-.89-2.36H508.7l-.84,2.36h-1.1l3.23-8.4h1Zm-2.3-3.24-1.32-3.58a3.65,3.65,0,0,1-.13-.56h0a3.49,3.49,0,0,1-.14.56L509,150Z" fill="#1e1e1e"/>
      <path d="M516.33,152.36h0V156h-1v-8.76h1v1.05h0a2.3,2.3,0,0,1,2.08-1.19,2.23,2.23,0,0,1,1.81.8,3.37,3.37,0,0,1,.65,2.16,3.74,3.74,0,0,1-.73,2.41,2.44,2.44,0,0,1-2,.91A2,2,0,0,1,516.33,152.36Zm0-2.42v.84a1.79,1.79,0,0,0,.48,1.26,1.73,1.73,0,0,0,2.6-.15,3,3,0,0,0,.49-1.86,2.43,2.43,0,0,0-.46-1.57,1.56,1.56,0,0,0-1.25-.56,1.7,1.7,0,0,0-1.35.58A2.13,2.13,0,0,0,516.31,149.94Z" fill="#1e1e1e"/>
      <path d="M523.39,152.36h0V156h-1v-8.76h1v1.05h0a2.27,2.27,0,0,1,2.07-1.19,2.2,2.2,0,0,1,1.81.8,3.31,3.31,0,0,1,.65,2.16,3.69,3.69,0,0,1-.73,2.41,2.43,2.43,0,0,1-2,.91A2,2,0,0,1,523.39,152.36Zm0-2.42v.84a1.79,1.79,0,0,0,.49,1.26,1.72,1.72,0,0,0,2.59-.15,3,3,0,0,0,.5-1.86,2.49,2.49,0,0,0-.46-1.57,1.56,1.56,0,0,0-1.26-.56,1.7,1.7,0,0,0-1.35.58A2.13,2.13,0,0,0,523.36,149.94Z" fill="#1e1e1e"/>
      <path d="M529.09,153v-1a2.84,2.84,0,0,0,1.73.58c.85,0,1.27-.28,1.27-.84a.76.76,0,0,0-.11-.41,1.17,1.17,0,0,0-.29-.3,3,3,0,0,0-.44-.23l-.53-.21a6.76,6.76,0,0,1-.7-.32,2.55,2.55,0,0,1-.51-.36,1.52,1.52,0,0,1-.3-.46,1.66,1.66,0,0,1-.1-.61,1.44,1.44,0,0,1,.19-.75,1.78,1.78,0,0,1,.52-.54,2.21,2.21,0,0,1,.73-.33,3.05,3.05,0,0,1,.85-.11,3.46,3.46,0,0,1,1.4.27v1a2.71,2.71,0,0,0-1.53-.43,1.75,1.75,0,0,0-.48.06,1.15,1.15,0,0,0-.37.17.62.62,0,0,0-.24.27.64.64,0,0,0-.09.34.75.75,0,0,0,.09.39.8.8,0,0,0,.24.28,1.91,1.91,0,0,0,.4.23l.54.21a6.81,6.81,0,0,1,.71.32,2.12,2.12,0,0,1,.54.36,1.32,1.32,0,0,1,.34.47,1.46,1.46,0,0,1,.12.62,1.5,1.5,0,0,1-.19.78,1.71,1.71,0,0,1-.53.54,2.3,2.3,0,0,1-.75.32,3.82,3.82,0,0,1-.9.11A3.41,3.41,0,0,1,529.09,153Z" fill="#1e1e1e"/>
    </g>
  </g>
</svg>
